0, 0, Header, 0, 1, 384
1, 0, Start_track
1, 0, Copyright_t, "(C) John Sankey 1998"
1, 0, Program_c, 0, 6
1, 0, Pitch_bend_c, 0, 8192
1, 0, Program_c, 1, 6
1, 0, Pitch_bend_c, 1, 7792
1, 0, Program_c, 2, 6
1, 0, Pitch_bend_c, 2, 7876
1, 0, Program_c, 3, 6
1, 0, Pitch_bend_c, 3, 7952
1, 0, Program_c, 4, 6
1, 0, Pitch_bend_c, 4, 7792
1, 0, Program_c, 5, 6
1, 0, Pitch_bend_c, 5, 8112
1, 0, Program_c, 6, 6
1, 0, Pitch_bend_c, 6, 7712
1, 0, Program_c, 7, 6
1, 0, Pitch_bend_c, 7, 8037
1, 0, Program_c, 8, 6
1, 0, Pitch_bend_c, 8, 7872
1, 0, Program_c, 10, 6
1, 0, Pitch_bend_c, 10, 7712
1, 0, Program_c, 11, 6
1, 0, Pitch_bend_c, 11, 8032
1, 0, Program_c, 12, 6
1, 0, Pitch_bend_c, 12, 7872
1, 0, Tempo, 500000
1, 71, Note_on_c, 2, 50, 127
1, 432, Note_on_c, 2, 62, 127
1, 574, Note_off_c, 2, 62, 127
1, 577, Note_on_c, 1, 61, 127
1, 719, Note_off_c, 1, 61, 127
1, 721, Note_on_c, 2, 62, 127
1, 838, Note_off_c, 2, 50, 127
1, 865, Note_on_c, 10, 57, 127
1, 901, Note_off_c, 2, 62, 127
1, 1024, Note_on_c, 2, 62, 127
1, 1149, Note_off_c, 10, 57, 127
1, 1166, Note_off_c, 2, 62, 127
1, 1169, Note_on_c, 1, 61, 127
1, 1311, Note_off_c, 1, 61, 127
1, 1313, Note_on_c, 2, 62, 127
1, 1458, Note_on_c, 5, 53, 127
1, 1493, Note_off_c, 2, 62, 127
1, 1618, Note_on_c, 2, 62, 127
1, 1743, Note_off_c, 5, 53, 127
1, 1760, Note_off_c, 2, 62, 127
1, 1762, Note_on_c, 1, 61, 127
1, 1904, Note_off_c, 1, 61, 127
1, 1906, Note_on_c, 2, 62, 127
1, 2051, Note_on_c, 2, 50, 127
1, 2086, Note_off_c, 2, 62, 127
1, 2211, Note_on_c, 2, 62, 127
1, 2336, Note_off_c, 2, 50, 127
1, 2355, Note_on_c, 0, 60, 127
1, 2382, Note_off_c, 2, 62, 127
1, 2500, Note_on_c, 2, 62, 127
1, 2525, Note_off_c, 0, 60, 127
1, 2643, Note_on_c, 11, 58, 127
1, 2664, Note_off_c, 2, 62, 127
1, 2790, Note_on_c, 2, 62, 127
1, 2883, Note_off_c, 11, 58, 127
1, 2932, Note_off_c, 2, 62, 127
1, 2935, Note_on_c, 7, 55, 127
1, 3079, Note_on_c, 11, 58, 127
1, 3085, Note_off_c, 7, 55, 127
1, 3221, Note_off_c, 11, 58, 127
1, 3224, Note_on_c, 4, 52, 127
1, 3368, Note_on_c, 0, 60, 127
1, 3509, Note_off_c, 4, 52, 127
1, 3514, Note_on_c, 0, 48, 127
1, 3533, Note_off_c, 0, 60, 127
1, 3658, Note_on_c, 0, 60, 127
1, 3664, Note_off_c, 0, 48, 127
1, 3801, Note_on_c, 10, 57, 127
1, 3822, Note_off_c, 0, 60, 127
1, 3947, Note_on_c, 0, 60, 127
1, 4042, Note_off_c, 10, 57, 127
1, 4089, Note_off_c, 0, 60, 127
1, 4091, Note_on_c, 5, 53, 127
1, 4236, Note_on_c, 10, 57, 127
1, 4241, Note_off_c, 5, 53, 127
1, 4378, Note_off_c, 10, 57, 127
1, 4380, Note_on_c, 2, 50, 127
1, 4525, Note_on_c, 11, 58, 127
1, 4664, Note_off_c, 2, 50, 127
1, 4667, Note_off_c, 11, 58, 127
1, 4669, Note_on_c, 11, 46, 127
1, 4813, Note_on_c, 11, 58, 127
1, 4819, Note_off_c, 11, 46, 127
1, 4958, Note_on_c, 7, 55, 127
1, 4977, Note_off_c, 11, 58, 127
1, 5102, Note_on_c, 11, 58, 127
1, 5198, Note_off_c, 7, 55, 127
1, 5244, Note_off_c, 11, 58, 127
1, 5247, Note_on_c, 4, 52, 127
1, 5391, Note_on_c, 7, 55, 127
1, 5397, Note_off_c, 4, 52, 127
1, 5533, Note_off_c, 7, 55, 127
1, 5536, Note_on_c, 1, 49, 127
1, 5680, Note_on_c, 10, 57, 127
1, 5791, Note_off_c, 1, 49, 127
1, 5824, Note_on_c, 10, 45, 127
1, 5845, Note_off_c, 10, 57, 127
1, 5970, Note_on_c, 10, 57, 127
1, 5975, Note_off_c, 10, 45, 127
1, 6134, Note_off_c, 10, 57, 127
1, 6136, Note_on_c, 5, 53, 127
1, 6295, Note_on_c, 10, 57, 127
1, 6376, Note_off_c, 5, 53, 127
1, 6438, Note_off_c, 10, 57, 127
1, 6440, Note_on_c, 2, 50, 127
1, 6584, Note_on_c, 11, 58, 127
1, 6680, Note_off_c, 2, 50, 127
1, 6726, Note_off_c, 11, 58, 127
1, 6729, Note_on_c, 4, 52, 127
1, 6873, Note_on_c, 7, 55, 127
1, 6969, Note_off_c, 4, 52, 127
1, 7015, Note_off_c, 7, 55, 127
1, 7018, Note_on_c, 1, 49, 127
1, 7162, Note_on_c, 10, 57, 127
1, 7198, Note_off_c, 1, 49, 127
1, 7304, Note_off_c, 10, 57, 127
1, 7307, Note_on_c, 2, 50, 127
1, 7626, Note_on_c, 5, 53, 127
1, 7730, Note_off_c, 5, 53, 127
1, 7732, Note_on_c, 10, 57, 127
1, 7836, Note_off_c, 10, 57, 127
1, 7838, Note_on_c, 2, 62, 127
1, 7945, Note_on_c, 2, 38, 127
1, 8109, Note_off_c, 2, 62, 127
1, 8177, Note_on_c, 5, 65, 127
1, 8193, Note_off_c, 2, 50, 127
1, 8217, Note_off_c, 2, 38, 127
1, 8282, Note_off_c, 5, 65, 127
1, 8284, Note_on_c, 4, 64, 127
1, 8388, Note_off_c, 4, 64, 127
1, 8390, Note_on_c, 2, 62, 127
1, 8494, Note_off_c, 2, 62, 127
1, 8497, Note_on_c, 1, 61, 127
1, 8729, Note_on_c, 4, 64, 127
1, 8833, Note_off_c, 4, 64, 127
1, 8835, Note_on_c, 10, 69, 127
1, 8941, Note_on_c, 10, 57, 127
1, 9047, Note_off_c, 1, 61, 127
1, 9049, Note_on_c, 10, 45, 127
1, 9237, Note_off_c, 10, 69, 127
1, 9281, Note_on_c, 7, 67, 127
1, 9336, Note_off_c, 10, 45, 127
1, 9342, Note_off_c, 10, 57, 127
1, 9385, Note_off_c, 7, 67, 127
1, 9387, Note_on_c, 5, 65, 127
1, 9491, Note_off_c, 5, 65, 127
1, 9494, Note_on_c, 4, 64, 127
1, 9598, Note_off_c, 4, 64, 127
1, 9600, Note_on_c, 2, 62, 127
1, 9832, Note_on_c, 5, 65, 127
1, 9936, Note_off_c, 5, 65, 127
1, 9938, Note_on_c, 10, 69, 127
1, 10042, Note_off_c, 10, 69, 127
1, 10045, Note_on_c, 2, 74, 127
1, 10151, Note_on_c, 2, 50, 127
1, 10361, Note_off_c, 2, 74, 127
1, 10383, Note_on_c, 5, 77, 127
1, 10388, Note_off_c, 2, 50, 127
1, 10390, Note_off_c, 2, 62, 127
1, 10488, Note_off_c, 5, 77, 127
1, 10490, Note_on_c, 4, 76, 127
1, 10594, Note_off_c, 4, 76, 127
1, 10597, Note_on_c, 2, 74, 127
1, 10701, Note_off_c, 2, 74, 127
1, 10703, Note_on_c, 10, 81, 127
1, 10840, Note_on_c, 4, 76, 127
1, 10906, Note_off_c, 4, 76, 127
1, 10909, Note_on_c, 1, 73, 127
1, 10975, Note_off_c, 1, 73, 127
1, 10978, Note_on_c, 10, 69, 127
1, 11044, Note_off_c, 10, 69, 127
1, 11046, Note_on_c, 4, 64, 127
1, 11112, Note_off_c, 4, 64, 127
1, 11115, Note_on_c, 1, 61, 127
1, 11181, Note_off_c, 1, 61, 127
1, 11183, Note_on_c, 10, 57, 127
1, 11246, Note_off_c, 10, 81, 127
1, 11973, Note_off_c, 10, 57, 127
1, 12023, Note_on_c, 11, 82, 127
1, 12152, Note_off_c, 11, 82, 127
1, 12155, Note_on_c, 10, 81, 127
1, 12284, Note_off_c, 10, 81, 127
1, 12286, Note_on_c, 7, 79, 127
1, 12415, Note_off_c, 7, 79, 127
1, 12418, Note_on_c, 10, 81, 127
1, 12516, Note_on_c, 7, 79, 127
1, 12537, Note_off_c, 10, 81, 127
1, 12580, Note_off_c, 7, 79, 127
1, 12583, Note_on_c, 5, 77, 127
1, 12646, Note_off_c, 5, 77, 127
1, 12649, Note_on_c, 4, 76, 127
1, 12712, Note_off_c, 4, 76, 127
1, 12715, Note_on_c, 2, 74, 127
1, 12778, Note_off_c, 2, 74, 127
1, 12780, Note_on_c, 0, 72, 127
1, 12843, Note_off_c, 0, 72, 127
1, 12846, Note_on_c, 11, 70, 127
1, 12909, Note_off_c, 11, 70, 127
1, 12912, Note_on_c, 10, 69, 127
1, 12975, Note_off_c, 10, 69, 127
1, 12978, Note_on_c, 11, 70, 127
1, 13041, Note_off_c, 11, 70, 127
1, 13043, Note_on_c, 0, 72, 127
1, 13106, Note_off_c, 0, 72, 127
1, 13109, Note_on_c, 11, 70, 127
1, 13172, Note_off_c, 11, 70, 127
1, 13175, Note_on_c, 10, 69, 127
1, 13238, Note_off_c, 10, 69, 127
1, 13241, Note_on_c, 7, 67, 127
1, 13304, Note_off_c, 7, 67, 127
1, 13306, Note_on_c, 5, 65, 127
1, 13369, Note_off_c, 5, 65, 127
1, 13372, Note_on_c, 4, 64, 127
1, 13435, Note_off_c, 4, 64, 127
1, 13438, Note_on_c, 2, 62, 127
1, 13501, Note_off_c, 2, 62, 127
1, 13504, Note_on_c, 1, 61, 127
1, 13567, Note_off_c, 1, 61, 127
1, 13569, Note_on_c, 2, 62, 127
1, 13632, Note_off_c, 2, 62, 127
1, 13635, Note_on_c, 4, 64, 127
1, 13698, Note_off_c, 4, 64, 127
1, 13701, Note_on_c, 5, 65, 127
1, 13764, Note_off_c, 5, 65, 127
1, 13767, Note_on_c, 7, 67, 127
1, 13830, Note_off_c, 7, 67, 127
1, 13832, Note_on_c, 10, 69, 127
1, 13895, Note_off_c, 10, 69, 127
1, 13898, Note_on_c, 11, 70, 127
1, 13961, Note_off_c, 11, 70, 127
1, 13964, Note_on_c, 10, 69, 127
1, 14027, Note_off_c, 10, 69, 127
1, 14029, Note_on_c, 7, 67, 127
1, 14092, Note_off_c, 7, 67, 127
1, 14095, Note_on_c, 5, 65, 127
1, 14158, Note_off_c, 5, 65, 127
1, 14161, Note_on_c, 4, 64, 127
1, 14224, Note_off_c, 4, 64, 127
1, 14227, Note_on_c, 2, 62, 127
1, 14290, Note_off_c, 2, 62, 127
1, 14292, Note_on_c, 1, 61, 127
1, 14355, Note_off_c, 1, 61, 127
1, 14358, Note_on_c, 12, 59, 127
1, 14421, Note_off_c, 12, 59, 127
1, 14424, Note_on_c, 10, 57, 127
1, 14487, Note_off_c, 10, 57, 127
1, 14490, Note_on_c, 7, 55, 127
1, 14553, Note_off_c, 7, 55, 127
1, 14555, Note_on_c, 5, 53, 127
1, 14697, Note_on_c, 11, 70, 127
1, 14844, Note_off_c, 11, 70, 127
1, 14846, Note_on_c, 10, 69, 127
1, 14993, Note_off_c, 10, 69, 127
1, 14995, Note_on_c, 7, 67, 127
1, 15142, Note_off_c, 7, 67, 127
1, 15144, Note_on_c, 10, 69, 127
1, 15292, Note_on_c, 4, 64, 127
1, 15390, Note_off_c, 10, 69, 127
1, 15439, Note_off_c, 4, 64, 127
1, 15441, Note_on_c, 5, 65, 127
1, 15589, Note_on_c, 1, 61, 127
1, 15687, Note_off_c, 5, 65, 127
1, 15709, Note_off_c, 5, 53, 127
1, 15736, Note_off_c, 1, 61, 127
1, 15739, Note_on_c, 10, 57, 127
1, 15739, Note_on_c, 5, 65, 127
1, 15739, Note_on_c, 2, 62, 127
1, 15887, Note_on_c, 5, 53, 127
1, 16034, Note_off_c, 5, 53, 127
1, 16036, Note_on_c, 4, 52, 127
1, 16183, Note_off_c, 4, 52, 127
1, 16185, Note_on_c, 2, 50, 127
1, 16327, Note_off_c, 10, 57, 127
1, 16332, Note_off_c, 2, 50, 127
1, 16334, Note_on_c, 10, 57, 127
1, 16482, Note_on_c, 12, 59, 127
1, 16621, Note_off_c, 2, 62, 127
1, 16621, Note_off_c, 5, 65, 127
1, 16629, Note_off_c, 12, 59, 127
1, 16629, Note_off_c, 10, 57, 127
1, 16642, Note_on_c, 1, 61, 127
1, 16642, Note_on_c, 4, 64, 127
1, 16642, Note_on_c, 7, 55, 127
1, 16779, Note_on_c, 10, 45, 127
1, 16788, Note_off_c, 7, 55, 127
1, 16951, Note_on_c, 2, 50, 127
1, 16957, Note_off_c, 10, 45, 127
1, 16981, Note_off_c, 4, 64, 127
1, 16981, Note_off_c, 1, 61, 127
1, 17144, Note_on_c, 2, 38, 127
1, 17251, Note_off_c, 2, 50, 127
1, 17314, Note_on_c, 4, 64, 127
1, 17314, Note_on_c, 7, 67, 127
1, 17472, Note_on_c, 11, 58, 127
1, 17616, Note_off_c, 7, 67, 127
1, 17616, Note_off_c, 4, 64, 127
1, 17624, Note_on_c, 5, 65, 127
1, 17624, Note_on_c, 2, 62, 127
1, 17774, Note_off_c, 11, 58, 127
1, 17776, Note_on_c, 10, 57, 127
1, 17926, Note_off_c, 2, 62, 127
1, 17926, Note_off_c, 5, 65, 127
1, 17928, Note_on_c, 1, 61, 127
1, 17928, Note_on_c, 4, 64, 127
1, 18078, Note_off_c, 10, 57, 127
1, 18080, Note_on_c, 7, 55, 127
1, 18214, Note_off_c, 2, 38, 127
1, 18244, Note_off_c, 4, 64, 127
1, 18244, Note_off_c, 1, 61, 127
1, 18255, Note_on_c, 2, 62, 127
1, 18255, Note_on_c, 5, 65, 127
1, 18255, Note_on_c, 2, 38, 127
1, 18255, Note_on_c, 2, 50, 127
1, 18255, Note_on_c, 10, 57, 127
1, 18261, Note_off_c, 7, 55, 127
1, 18397, Note_off_c, 2, 62, 127
1, 18400, Note_on_c, 1, 61, 127
1, 18542, Note_off_c, 1, 61, 127
1, 18544, Note_on_c, 2, 62, 127
1, 18686, Note_off_c, 10, 57, 127
1, 18688, Note_on_c, 10, 57, 127
1, 18825, Note_off_c, 5, 65, 127
1, 18833, Note_on_c, 5, 65, 127
1, 18964, Note_off_c, 2, 62, 127
1, 18977, Note_on_c, 1, 61, 127
1, 19119, Note_off_c, 1, 61, 127
1, 19122, Note_on_c, 2, 62, 127
1, 19263, Note_off_c, 10, 57, 127
1, 19266, Note_on_c, 10, 57, 127
1, 19403, Note_off_c, 5, 65, 127
1, 19408, Note_off_c, 10, 57, 127
1, 19408, Note_off_c, 2, 50, 127
1, 19408, Note_off_c, 2, 38, 127
1, 19411, Note_on_c, 10, 69, 127
1, 19411, Note_on_c, 2, 50, 127
1, 19411, Note_on_c, 2, 38, 127
1, 19542, Note_off_c, 2, 62, 127
1, 19555, Note_on_c, 4, 64, 127
1, 19697, Note_off_c, 4, 64, 127
1, 19699, Note_on_c, 5, 65, 127
1, 19844, Note_on_c, 2, 62, 127
1, 19981, Note_off_c, 10, 69, 127
1, 19983, Note_off_c, 5, 65, 127
1, 19988, Note_on_c, 10, 69, 127
1, 20129, Note_off_c, 2, 62, 127
1, 20134, Note_on_c, 4, 64, 127
1, 20276, Note_off_c, 4, 64, 127
1, 20278, Note_on_c, 5, 65, 127
1, 20423, Note_on_c, 2, 62, 127
1, 20499, Note_off_c, 10, 69, 127
1, 20532, Note_off_c, 5, 65, 127
1, 20565, Note_off_c, 2, 38, 127
1, 20565, Note_off_c, 2, 50, 127
1, 20567, Note_on_c, 2, 74, 127
1, 20567, Note_on_c, 2, 50, 127
1, 20567, Note_on_c, 2, 38, 127
1, 20711, Note_on_c, 8, 68, 127
1, 20853, Note_off_c, 8, 68, 127
1, 20856, Note_on_c, 10, 69, 127
1, 20993, Note_off_c, 2, 62, 127
1, 20999, Note_on_c, 5, 65, 127
1, 21106, Note_off_c, 2, 74, 127
1, 21139, Note_off_c, 10, 69, 127
1, 21144, Note_on_c, 4, 76, 127
1, 21209, Note_off_c, 5, 65, 127
1, 21288, Note_on_c, 12, 71, 127
1, 21430, Note_off_c, 12, 71, 127
1, 21433, Note_on_c, 1, 73, 127
1, 21577, Note_on_c, 7, 67, 127
1, 21684, Note_off_c, 4, 76, 127
1, 21717, Note_off_c, 1, 73, 127
1, 21719, Note_off_c, 7, 67, 127
1, 21719, Note_off_c, 2, 38, 127
1, 21719, Note_off_c, 2, 50, 127
1, 21721, Note_on_c, 5, 77, 127
1, 21721, Note_on_c, 2, 38, 127
1, 21721, Note_on_c, 2, 50, 127
1, 21866, Note_on_c, 1, 73, 127
1, 22008, Note_off_c, 1, 73, 127
1, 22010, Note_on_c, 2, 74, 127
1, 22155, Note_on_c, 10, 69, 127
1, 22277, Note_off_c, 5, 77, 127
1, 22299, Note_on_c, 6, 78, 127
1, 22430, Note_off_c, 2, 74, 127
1, 22444, Note_on_c, 0, 72, 127
1, 22586, Note_off_c, 0, 72, 127
1, 22588, Note_on_c, 2, 74, 127
1, 22725, Note_off_c, 10, 69, 127
1, 22731, Note_on_c, 10, 69, 127
1, 22838, Note_off_c, 6, 78, 127
1, 22873, Note_off_c, 2, 50, 127
1, 22873, Note_off_c, 2, 38, 127
1, 22876, Note_on_c, 7, 79, 127
1, 22876, Note_on_c, 2, 50, 127
1, 22876, Note_on_c, 2, 38, 127
1, 23007, Note_off_c, 2, 74, 127
1, 23020, Note_on_c, 2, 74, 127
1, 23151, Note_off_c, 10, 69, 127
1, 23162, Note_off_c, 2, 74, 127
1, 23165, Note_on_c, 4, 76, 127
1, 23309, Note_on_c, 11, 70, 127
1, 23416, Note_off_c, 7, 79, 127
1, 23451, Note_off_c, 11, 70, 127
1, 23454, Note_on_c, 10, 81, 127
1, 23585, Note_off_c, 4, 76, 127
1, 23598, Note_on_c, 4, 76, 127
1, 23740, Note_off_c, 4, 76, 127
1, 23742, Note_on_c, 6, 78, 127
1, 23887, Note_on_c, 0, 72, 127
1, 23994, Note_off_c, 10, 81, 127
1, 24026, Note_off_c, 6, 78, 127
1, 24029, Note_off_c, 0, 72, 127
1, 24029, Note_off_c, 2, 38, 127
1, 24029, Note_off_c, 2, 50, 127
1, 24031, Note_on_c, 11, 82, 127
1, 24031, Note_on_c, 2, 38, 127
1, 24031, Note_on_c, 2, 50, 127
1, 24200, Note_on_c, 6, 78, 127
1, 24342, Note_off_c, 6, 78, 127
1, 24344, Note_on_c, 7, 79, 127
1, 24489, Note_on_c, 2, 74, 127
1, 24601, Note_off_c, 11, 82, 127
1, 24628, Note_off_c, 7, 79, 127
1, 24633, Note_on_c, 7, 79, 127
1, 24774, Note_off_c, 2, 74, 127
1, 24802, Note_on_c, 2, 74, 127
1, 24944, Note_off_c, 2, 74, 127
1, 24957, Note_on_c, 4, 76, 127
1, 25099, Note_off_c, 4, 76, 127
1, 25116, Note_on_c, 1, 73, 127
1, 25184, Note_off_c, 2, 50, 127
1, 25184, Note_off_c, 2, 38, 127
1, 25203, Note_off_c, 7, 79, 127
1, 25279, Note_on_c, 2, 38, 127
1, 25279, Note_on_c, 2, 50, 127
1, 25401, Note_off_c, 1, 73, 127
1, 25461, Note_on_c, 7, 79, 127
1, 25643, Note_on_c, 4, 76, 127
1, 25643, Note_on_c, 11, 70, 127
1, 25823, Note_off_c, 7, 79, 127
1, 25825, Note_on_c, 7, 79, 127
1, 26005, Note_off_c, 11, 70, 127
1, 26005, Note_off_c, 4, 76, 127
1, 26007, Note_on_c, 2, 74, 127
1, 26007, Note_on_c, 10, 69, 127
1, 26125, Note_off_c, 7, 79, 127
1, 26188, Note_on_c, 5, 77, 127
1, 26368, Note_off_c, 10, 69, 127
1, 26368, Note_off_c, 2, 74, 127
1, 26370, Note_on_c, 1, 73, 127
1, 26370, Note_on_c, 7, 67, 127
1, 26488, Note_off_c, 5, 77, 127
1, 26540, Note_on_c, 4, 76, 127
1, 26731, Note_off_c, 7, 67, 127
1, 26731, Note_off_c, 1, 73, 127
1, 26736, Note_off_c, 4, 76, 127
1, 26738, Note_on_c, 5, 77, 127
1, 26738, Note_on_c, 10, 69, 127
1, 26738, Note_on_c, 2, 74, 127
1, 26939, Note_off_c, 2, 50, 127
1, 26978, Note_on_c, 1, 49, 127
1, 27096, Note_off_c, 2, 38, 127
1, 27200, Note_off_c, 1, 49, 127
1, 27203, Note_on_c, 2, 50, 127
1, 27399, Note_off_c, 2, 50, 127
1, 27402, Note_on_c, 2, 38, 127
1, 27598, Note_off_c, 2, 38, 127
1, 27601, Note_on_c, 2, 50, 127
1, 27884, Note_off_c, 2, 50, 127
1, 27886, Note_on_c, 4, 52, 127
1, 27963, Note_off_c, 4, 52, 127
1, 27966, Note_on_c, 5, 53, 127
1, 28043, Note_off_c, 5, 53, 127
1, 28045, Note_on_c, 7, 55, 127
1, 28122, Note_off_c, 7, 55, 127
1, 28125, Note_on_c, 10, 57, 127
1, 28202, Note_off_c, 10, 57, 127
1, 28204, Note_on_c, 12, 59, 127
1, 28281, Note_off_c, 12, 59, 127
1, 28283, Note_on_c, 1, 61, 127
1, 28364, Note_on_c, 2, 62, 127
1, 28372, Note_off_c, 1, 61, 127
1, 28396, Note_off_c, 2, 74, 127
1, 28396, Note_off_c, 10, 69, 127
1, 28396, Note_off_c, 5, 77, 127
1, 28467, Note_off_c, 2, 62, 127
1, 28469, Note_on_c, 8, 44, 127
1, 28827, Note_on_c, 5, 77, 127
1, 28983, Note_off_c, 5, 77, 127
1, 28986, Note_on_c, 4, 76, 127
1, 29142, Note_off_c, 4, 76, 127
1, 29145, Note_on_c, 2, 74, 127
1, 29145, Note_on_c, 5, 65, 127
1, 29301, Note_off_c, 5, 65, 127
1, 29301, Note_off_c, 2, 74, 127
1, 29303, Note_on_c, 1, 73, 127
1, 29303, Note_on_c, 4, 64, 127
1, 29363, Note_off_c, 8, 44, 127
1, 29459, Note_off_c, 4, 64, 127
1, 29459, Note_off_c, 1, 73, 127
1, 29462, Note_on_c, 2, 74, 127
1, 29462, Note_on_c, 2, 62, 127
1, 29618, Note_off_c, 2, 62, 127
1, 29618, Note_off_c, 2, 74, 127
1, 29621, Note_on_c, 4, 76, 127
1, 29621, Note_on_c, 1, 61, 127
1, 29777, Note_off_c, 1, 61, 127
1, 29777, Note_off_c, 4, 76, 127
1, 29780, Note_on_c, 5, 77, 127
1, 29780, Note_on_c, 2, 62, 127
1, 29936, Note_off_c, 2, 62, 127
1, 29936, Note_off_c, 5, 77, 127
1, 29939, Note_on_c, 4, 76, 127
1, 29939, Note_on_c, 4, 64, 127
1, 30095, Note_off_c, 4, 64, 127
1, 30095, Note_off_c, 4, 76, 127
1, 30097, Note_on_c, 2, 74, 127
1, 30097, Note_on_c, 5, 65, 127
1, 30253, Note_off_c, 5, 65, 127
1, 30253, Note_off_c, 2, 74, 127
1, 30256, Note_on_c, 1, 73, 127
1, 30256, Note_on_c, 4, 64, 127
1, 30412, Note_off_c, 4, 64, 127
1, 30412, Note_off_c, 1, 73, 127
1, 30415, Note_on_c, 2, 74, 127
1, 30415, Note_on_c, 2, 62, 127
1, 30571, Note_off_c, 2, 62, 127
1, 30571, Note_off_c, 2, 74, 127
1, 30574, Note_on_c, 4, 76, 127
1, 30574, Note_on_c, 1, 61, 127
1, 30730, Note_off_c, 1, 61, 127
1, 30730, Note_off_c, 4, 76, 127
1, 30733, Note_on_c, 5, 77, 127
1, 30733, Note_on_c, 2, 62, 127
1, 30889, Note_off_c, 2, 62, 127
1, 30889, Note_off_c, 5, 77, 127
1, 30891, Note_on_c, 4, 76, 127
1, 30891, Note_on_c, 4, 64, 127
1, 31047, Note_off_c, 4, 64, 127
1, 31047, Note_off_c, 4, 76, 127
1, 31050, Note_on_c, 2, 74, 127
1, 31050, Note_on_c, 5, 65, 127
1, 31206, Note_off_c, 5, 65, 127
1, 31206, Note_off_c, 2, 74, 127
1, 31209, Note_on_c, 1, 73, 127
1, 31209, Note_on_c, 4, 64, 127
1, 31365, Note_off_c, 4, 64, 127
1, 31365, Note_off_c, 1, 73, 127
1, 31368, Note_on_c, 2, 74, 127
1, 31368, Note_on_c, 2, 62, 127
1, 31524, Note_off_c, 2, 62, 127
1, 31524, Note_off_c, 2, 74, 127
1, 31527, Note_on_c, 4, 76, 127
1, 31527, Note_on_c, 1, 61, 127
1, 31683, Note_off_c, 1, 61, 127
1, 31683, Note_off_c, 4, 76, 127
1, 31685, Note_on_c, 5, 77, 127
1, 31685, Note_on_c, 2, 62, 127
1, 31841, Note_off_c, 2, 62, 127
1, 31841, Note_off_c, 5, 77, 127
1, 31844, Note_on_c, 1, 73, 127
1, 31844, Note_on_c, 4, 64, 127
1, 32000, Note_off_c, 4, 64, 127
1, 32000, Note_off_c, 1, 73, 127
1, 32003, Note_on_c, 2, 74, 127
1, 32003, Note_on_c, 5, 65, 127
1, 32162, Note_on_c, 8, 56, 127
1, 32318, Note_off_c, 8, 56, 127
1, 32321, Note_on_c, 10, 57, 127
1, 32449, Note_off_c, 5, 65, 127
1, 32449, Note_off_c, 2, 74, 127
1, 32484, Note_on_c, 1, 73, 127
1, 32484, Note_on_c, 4, 64, 127
1, 32647, Note_off_c, 4, 64, 127
1, 32647, Note_off_c, 1, 73, 127
1, 32650, Note_on_c, 2, 74, 127
1, 32650, Note_on_c, 5, 65, 127
1, 32814, Note_off_c, 10, 57, 127
1, 32816, Note_on_c, 4, 52, 127
1, 32979, Note_off_c, 4, 52, 127
1, 32990, Note_on_c, 5, 53, 127
1, 33097, Note_off_c, 5, 65, 127
1, 33097, Note_off_c, 2, 74, 127
1, 33163, Note_on_c, 4, 64, 127
1, 33163, Note_on_c, 1, 73, 127
1, 33332, Note_off_c, 1, 73, 127
1, 33332, Note_off_c, 4, 64, 127
1, 33337, Note_on_c, 5, 65, 127
1, 33337, Note_on_c, 2, 74, 127
1, 33501, Note_off_c, 5, 53, 127
1, 33509, Note_on_c, 1, 49, 127
1, 33678, Note_off_c, 1, 49, 127
1, 33684, Note_on_c, 2, 50, 127
1, 33749, Note_off_c, 2, 74, 127
1, 33749, Note_off_c, 5, 65, 127
1, 33858, Note_on_c, 4, 64, 127
1, 33858, Note_on_c, 1, 73, 127
1, 34027, Note_off_c, 1, 73, 127
1, 34027, Note_off_c, 4, 64, 127
1, 34032, Note_on_c, 5, 65, 127
1, 34032, Note_on_c, 2, 74, 127
1, 34198, Note_off_c, 2, 50, 127
1, 34206, Note_on_c, 8, 44, 127
1, 34375, Note_off_c, 8, 44, 127
1, 34381, Note_on_c, 10, 45, 127
1, 34569, Note_off_c, 2, 74, 127
1, 34569, Note_off_c, 5, 65, 127
1, 34569, Note_on_c, 2, 62, 127
1, 34569, Note_on_c, 12, 71, 127
1, 34774, Note_off_c, 12, 71, 127
1, 34774, Note_off_c, 2, 62, 127
1, 34790, Note_on_c, 10, 69, 127
1, 34790, Note_on_c, 1, 61, 127
1, 34995, Note_off_c, 1, 61, 127
1, 34995, Note_off_c, 10, 69, 127
1, 35009, Note_on_c, 12, 59, 127
1, 35009, Note_on_c, 8, 68, 127
1, 35214, Note_off_c, 8, 68, 127
1, 35214, Note_off_c, 12, 59, 127
1, 35225, Note_on_c, 4, 64, 127
1, 35225, Note_on_c, 1, 61, 127
1, 35225, Note_on_c, 10, 69, 127
1, 35414, Note_off_c, 10, 45, 127
1, 35624, Note_on_c, 10, 45, 127
1, 35750, Note_on_c, 1, 49, 127
1, 35875, Note_on_c, 4, 52, 127
1, 35949, Note_off_c, 10, 45, 127
1, 35955, Note_off_c, 1, 49, 127
1, 35991, Note_on_c, 10, 57, 127
1, 36079, Note_off_c, 4, 52, 127
1, 36216, Note_on_c, 10, 45, 127
1, 36472, Note_off_c, 10, 57, 127
1, 36601, Note_off_c, 10, 69, 127
1, 36601, Note_off_c, 1, 61, 127
1, 36601, Note_off_c, 4, 64, 127
1, 38297, Note_on_c, 11, 70, 127
1, 38297, Note_on_c, 5, 65, 127
1, 38297, Note_on_c, 2, 62, 127
1, 38297, Note_on_c, 10, 57, 127
1, 38516, Note_off_c, 10, 45, 127
1, 38940, Note_off_c, 10, 57, 127
1, 38940, Note_off_c, 2, 62, 127
1, 38940, Note_off_c, 5, 65, 127
1, 38940, Note_off_c, 11, 70, 127
1, 38955, Note_on_c, 7, 55, 127
1, 38955, Note_on_c, 4, 64, 127
1, 38955, Note_on_c, 7, 67, 127
1, 38955, Note_on_c, 11, 70, 127
1, 39269, Note_off_c, 7, 67, 127
1, 39269, Note_off_c, 4, 64, 127
1, 39271, Note_on_c, 2, 62, 127
1, 39271, Note_on_c, 5, 65, 127
1, 39427, Note_off_c, 5, 65, 127
1, 39429, Note_on_c, 4, 64, 127
1, 39585, Note_off_c, 4, 64, 127
1, 39585, Note_off_c, 2, 62, 127
1, 39587, Note_on_c, 1, 61, 127
1, 39587, Note_on_c, 4, 64, 127
1, 39901, Note_off_c, 11, 70, 127
1, 39903, Note_on_c, 10, 69, 127
1, 40205, Note_off_c, 7, 55, 127
1, 40217, Note_off_c, 4, 64, 127
1, 40217, Note_off_c, 1, 61, 127
1, 40219, Note_on_c, 5, 53, 127
1, 40219, Note_on_c, 2, 62, 127
1, 40219, Note_on_c, 5, 65, 127
1, 40533, Note_off_c, 5, 65, 127
1, 40533, Note_off_c, 2, 62, 127
1, 40535, Note_on_c, 0, 60, 127
1, 40535, Note_on_c, 4, 64, 127
1, 40691, Note_off_c, 4, 64, 127
1, 40693, Note_on_c, 2, 62, 127
1, 40849, Note_off_c, 2, 62, 127
1, 40849, Note_off_c, 0, 60, 127
1, 40851, Note_on_c, 12, 59, 127
1, 40851, Note_on_c, 2, 62, 127
1, 41165, Note_off_c, 10, 69, 127
1, 41167, Note_on_c, 7, 67, 127
1, 41312, Note_off_c, 2, 62, 127
1, 41324, Note_off_c, 12, 59, 127
1, 41326, Note_on_c, 2, 62, 127
1, 41471, Note_off_c, 5, 53, 127
1, 41481, Note_off_c, 7, 67, 127
1, 41483, Note_off_c, 2, 62, 127
1, 41485, Note_on_c, 4, 52, 127
1, 41485, Note_on_c, 1, 61, 127
1, 41485, Note_on_c, 7, 67, 127
1, 41801, Note_on_c, 4, 76, 127
1, 41957, Note_off_c, 4, 76, 127
1, 41959, Note_on_c, 10, 69, 127
1, 42115, Note_off_c, 10, 69, 127
1, 42115, Note_off_c, 1, 61, 127
1, 42115, Note_off_c, 4, 52, 127
1, 42117, Note_on_c, 10, 69, 127
1, 42117, Note_on_c, 2, 62, 127
1, 42117, Note_on_c, 2, 50, 127
1, 42431, Note_off_c, 7, 67, 127
1, 42433, Note_on_c, 5, 65, 127
1, 42589, Note_off_c, 5, 65, 127
1, 42591, Note_on_c, 4, 64, 127
1, 42709, Note_off_c, 10, 69, 127
1, 42747, Note_off_c, 4, 64, 127
1, 42747, Note_off_c, 2, 62, 127
1, 42749, Note_on_c, 11, 70, 127
1, 42749, Note_on_c, 5, 65, 127
1, 42749, Note_on_c, 2, 62, 127
1, 42759, Note_off_c, 2, 50, 127
1, 43063, Note_off_c, 11, 70, 127
1, 43065, Note_on_c, 10, 69, 127
1, 43221, Note_off_c, 10, 69, 127
1, 43223, Note_on_c, 8, 68, 127
1, 43350, Note_off_c, 5, 65, 127
1, 43380, Note_off_c, 8, 68, 127
1, 43380, Note_off_c, 2, 62, 127
1, 43382, Note_on_c, 8, 68, 127
1, 43382, Note_on_c, 4, 64, 127
1, 43696, Note_off_c, 4, 64, 127
1, 43698, Note_on_c, 2, 62, 127
1, 43974, Note_off_c, 8, 68, 127
1, 44012, Note_off_c, 2, 62, 127
1, 44014, Note_on_c, 10, 69, 127
1, 44014, Note_on_c, 4, 64, 127
1, 44014, Note_on_c, 1, 61, 127
1, 44014, Note_on_c, 10, 57, 127
1, 44328, Note_off_c, 10, 69, 127
1, 44330, Note_on_c, 7, 67, 127
1, 44486, Note_off_c, 7, 67, 127
1, 44488, Note_on_c, 6, 66, 127
1, 44615, Note_off_c, 4, 64, 127
1, 44645, Note_off_c, 6, 66, 127
1, 44645, Note_off_c, 1, 61, 127
1, 44647, Note_on_c, 6, 66, 127
1, 44647, Note_on_c, 2, 62, 127
1, 44647, Note_on_c, 2, 50, 127
1, 44961, Note_off_c, 2, 62, 127
1, 44963, Note_on_c, 0, 60, 127
1, 45068, Note_off_c, 10, 57, 127
1, 45239, Note_off_c, 6, 66, 127
1, 45277, Note_off_c, 0, 60, 127
1, 45279, Note_on_c, 7, 67, 127
1, 45279, Note_on_c, 2, 62, 127
1, 45279, Note_on_c, 12, 59, 127
1, 45470, Note_off_c, 2, 50, 127
1, 45593, Note_off_c, 7, 67, 127
1, 45595, Note_on_c, 5, 65, 127
1, 45751, Note_off_c, 5, 65, 127
1, 45753, Note_on_c, 4, 64, 127
1, 45880, Note_off_c, 2, 62, 127
1, 45910, Note_off_c, 4, 64, 127
1, 45910, Note_off_c, 12, 59, 127
1, 45912, Note_on_c, 4, 64, 127
1, 45912, Note_on_c, 0, 60, 127
1, 46226, Note_off_c, 0, 60, 127
1, 46228, Note_on_c, 11, 58, 127
1, 46504, Note_off_c, 4, 64, 127
1, 46542, Note_off_c, 11, 58, 127
1, 46544, Note_on_c, 5, 65, 127
1, 46544, Note_on_c, 0, 60, 127
1, 46544, Note_on_c, 10, 57, 127
1, 46544, Note_on_c, 5, 53, 127
1, 46858, Note_off_c, 5, 65, 127
1, 46860, Note_on_c, 3, 63, 127
1, 47016, Note_off_c, 3, 63, 127
1, 47018, Note_on_c, 2, 62, 127
1, 47169, Note_off_c, 0, 60, 127
1, 47174, Note_off_c, 2, 62, 127
1, 47174, Note_off_c, 5, 53, 127
1, 47176, Note_on_c, 2, 62, 127
1, 47176, Note_on_c, 11, 46, 127
1, 47490, Note_off_c, 10, 57, 127
1, 47492, Note_on_c, 10, 57, 127
1, 47768, Note_off_c, 2, 62, 127
1, 47806, Note_off_c, 10, 57, 127
1, 47808, Note_on_c, 3, 63, 127
1, 47808, Note_on_c, 11, 58, 127
1, 47808, Note_on_c, 7, 55, 127
1, 48122, Note_off_c, 3, 63, 127
1, 48124, Note_on_c, 2, 62, 127
1, 48280, Note_off_c, 2, 62, 127
1, 48282, Note_on_c, 1, 61, 127
1, 48394, Note_off_c, 11, 46, 127
1, 48438, Note_off_c, 1, 61, 127
1, 48438, Note_off_c, 11, 58, 127
1, 48440, Note_on_c, 1, 61, 127
1, 48440, Note_on_c, 10, 57, 127
1, 48754, Note_off_c, 7, 55, 127
1, 48756, Note_on_c, 7, 55, 127
1, 49070, Note_off_c, 7, 55, 127
1, 49070, Note_off_c, 10, 57, 127
1, 49070, Note_off_c, 1, 61, 127
1, 49072, Note_on_c, 2, 62, 127
1, 49072, Note_on_c, 11, 58, 127
1, 49072, Note_on_c, 5, 53, 127
1, 49072, Note_on_c, 2, 50, 127
1, 49386, Note_off_c, 2, 50, 127
1, 49386, Note_off_c, 5, 53, 127
1, 49386, Note_off_c, 11, 58, 127
1, 49388, Note_on_c, 10, 57, 127
1, 49388, Note_on_c, 4, 52, 127
1, 49388, Note_on_c, 0, 48, 127
1, 49544, Note_off_c, 4, 52, 127
1, 49546, Note_on_c, 2, 50, 127
1, 49702, Note_off_c, 2, 50, 127
1, 49702, Note_off_c, 0, 48, 127
1, 49704, Note_on_c, 2, 50, 127
1, 49704, Note_on_c, 12, 47, 127
1, 50018, Note_off_c, 2, 50, 127
1, 50018, Note_off_c, 10, 57, 127
1, 50020, Note_on_c, 8, 56, 127
1, 50020, Note_on_c, 4, 52, 127
1, 50334, Note_off_c, 4, 52, 127
1, 50334, Note_off_c, 8, 56, 127
1, 50334, Note_off_c, 12, 47, 127
1, 50336, Note_on_c, 10, 57, 127
1, 50336, Note_on_c, 5, 53, 127
1, 50336, Note_on_c, 10, 45, 127
1, 50650, Note_off_c, 5, 53, 127
1, 50650, Note_off_c, 2, 62, 127
1, 50665, Note_on_c, 4, 52, 127
1, 50665, Note_on_c, 0, 60, 127
1, 50928, Note_off_c, 10, 45, 127
1, 50979, Note_off_c, 0, 60, 127
1, 50979, Note_off_c, 4, 52, 127
1, 50981, Note_on_c, 2, 50, 127
1, 50981, Note_on_c, 5, 53, 127
1, 50981, Note_on_c, 2, 62, 127
1, 51085, Note_off_c, 2, 62, 127
1, 51087, Note_on_c, 4, 64, 127
1, 51191, Note_off_c, 4, 64, 127
1, 51193, Note_on_c, 5, 65, 127
1, 51283, Note_off_c, 10, 57, 127
1, 51296, Note_off_c, 5, 53, 127
1, 51298, Note_on_c, 7, 55, 127
1, 51298, Note_on_c, 11, 58, 127
1, 51612, Note_off_c, 11, 58, 127
1, 51612, Note_off_c, 7, 55, 127
1, 51612, Note_off_c, 2, 50, 127
1, 51614, Note_on_c, 0, 48, 127
1, 51614, Note_on_c, 10, 57, 127
1, 51614, Note_on_c, 0, 60, 127
1, 51928, Note_off_c, 10, 57, 127
1, 51928, Note_off_c, 5, 65, 127
1, 51930, Note_on_c, 7, 55, 127
1, 51930, Note_on_c, 4, 64, 127
1, 52206, Note_off_c, 0, 48, 127
1, 52244, Note_off_c, 4, 64, 127
1, 52244, Note_off_c, 7, 55, 127
1, 52246, Note_on_c, 5, 53, 127
1, 52246, Note_on_c, 10, 57, 127
1, 52246, Note_on_c, 5, 65, 127
1, 52350, Note_off_c, 5, 65, 127
1, 52352, Note_on_c, 7, 67, 127
1, 52456, Note_off_c, 7, 67, 127
1, 52458, Note_on_c, 10, 69, 127
1, 52562, Note_off_c, 5, 53, 127
1, 52562, Note_off_c, 0, 60, 127
1, 52564, Note_on_c, 4, 52, 127
1, 52564, Note_on_c, 7, 67, 127
1, 52878, Note_off_c, 7, 67, 127
1, 52878, Note_off_c, 4, 52, 127
1, 52880, Note_on_c, 3, 51, 127
1, 52880, Note_on_c, 6, 66, 127
1, 53036, Note_off_c, 6, 66, 127
1, 53038, Note_off_c, 10, 57, 127
1, 53045, Note_on_c, 4, 64, 127
1, 53167, Note_off_c, 10, 69, 127
1, 53210, Note_on_c, 10, 57, 127
1, 53210, Note_on_c, 6, 66, 127
1, 53210, Note_on_c, 12, 71, 127
1, 53220, Note_off_c, 4, 64, 127
1, 53490, Note_off_c, 3, 51, 127
1, 53525, Note_off_c, 12, 71, 127
1, 53525, Note_off_c, 6, 66, 127
1, 53525, Note_off_c, 10, 57, 127
1, 53527, Note_on_c, 4, 52, 127
1, 53527, Note_on_c, 8, 56, 127
1, 53527, Note_on_c, 4, 64, 127
1, 53527, Note_on_c, 0, 72, 127
1, 53588, Note_off_c, 0, 72, 127
1, 53590, Note_on_c, 12, 71, 127
1, 53651, Note_off_c, 12, 71, 127
1, 53653, Note_on_c, 0, 72, 127
1, 53842, Note_off_c, 0, 72, 127
1, 53842, Note_off_c, 8, 56, 127
1, 53844, Note_on_c, 10, 57, 127
1, 53844, Note_on_c, 2, 74, 127
1, 54000, Note_off_c, 2, 74, 127
1, 54002, Note_on_c, 4, 76, 127
1, 54158, Note_off_c, 4, 76, 127
1, 54158, Note_off_c, 10, 57, 127
1, 54160, Note_on_c, 12, 59, 127
1, 54160, Note_on_c, 10, 69, 127
1, 54316, Note_off_c, 10, 69, 127
1, 54318, Note_on_c, 8, 68, 127
1, 54395, Note_off_c, 8, 68, 127
1, 54397, Note_on_c, 10, 69, 127
1, 54474, Note_off_c, 10, 69, 127
1, 54474, Note_off_c, 4, 52, 127
1, 54476, Note_on_c, 2, 50, 127
1, 54476, Note_on_c, 8, 68, 127
1, 54632, Note_off_c, 8, 68, 127
1, 54634, Note_on_c, 10, 69, 127
1, 54790, Note_off_c, 10, 69, 127
1, 54790, Note_off_c, 2, 50, 127
1, 54790, Note_off_c, 12, 59, 127
1, 54792, Note_on_c, 1, 49, 127
1, 54792, Note_on_c, 10, 57, 127
1, 54792, Note_on_c, 10, 69, 127
1, 55106, Note_off_c, 10, 57, 127
1, 55108, Note_on_c, 7, 55, 127
1, 55264, Note_off_c, 7, 55, 127
1, 55266, Note_on_c, 5, 53, 127
1, 55368, Note_off_c, 1, 49, 127
1, 55422, Note_off_c, 5, 53, 127
1, 55422, Note_off_c, 4, 64, 127
1, 55424, Note_on_c, 2, 50, 127
1, 55424, Note_on_c, 5, 53, 127
1, 55424, Note_on_c, 2, 62, 127
1, 55648, Note_off_c, 10, 69, 127
1, 55738, Note_off_c, 2, 50, 127
1, 55740, Note_on_c, 0, 48, 127
1, 55740, Note_on_c, 2, 74, 127
1, 55896, Note_off_c, 2, 74, 127
1, 55898, Note_on_c, 7, 67, 127
1, 56054, Note_off_c, 7, 67, 127
1, 56054, Note_off_c, 0, 48, 127
1, 56054, Note_off_c, 5, 53, 127
1, 56056, Note_on_c, 12, 47, 127
1, 56056, Note_on_c, 5, 53, 127
1, 56056, Note_on_c, 7, 67, 127
1, 56370, Note_off_c, 5, 53, 127
1, 56370, Note_off_c, 2, 62, 127
1, 56372, Note_on_c, 5, 53, 127
1, 56372, Note_on_c, 2, 62, 127
1, 56528, Note_off_c, 2, 62, 127
1, 56528, Note_off_c, 5, 53, 127
1, 56530, Note_on_c, 4, 52, 127
1, 56530, Note_on_c, 0, 60, 127
1, 56632, Note_off_c, 12, 47, 127
1, 56686, Note_off_c, 0, 60, 127
1, 56686, Note_off_c, 4, 52, 127
1, 56688, Note_on_c, 0, 48, 127
1, 56688, Note_on_c, 4, 52, 127
1, 56688, Note_on_c, 0, 60, 127
1, 56912, Note_off_c, 7, 67, 127
1, 57002, Note_off_c, 0, 48, 127
1, 57004, Note_on_c, 11, 46, 127
1, 57004, Note_on_c, 0, 72, 127
1, 57160, Note_off_c, 0, 72, 127
1, 57162, Note_on_c, 5, 65, 127
1, 57318, Note_off_c, 5, 65, 127
1, 57318, Note_off_c, 11, 46, 127
1, 57320, Note_on_c, 10, 45, 127
1, 57320, Note_on_c, 5, 65, 127
1, 57634, Note_off_c, 0, 60, 127
1, 57634, Note_off_c, 4, 52, 127
1, 57636, Note_on_c, 4, 52, 127
1, 57636, Note_on_c, 0, 60, 127
1, 57792, Note_off_c, 4, 52, 127
1, 57794, Note_on_c, 2, 50, 127
1, 57896, Note_off_c, 10, 45, 127
1, 57950, Note_off_c, 2, 50, 127
1, 57950, Note_off_c, 0, 60, 127
1, 57952, Note_on_c, 11, 46, 127
1, 57952, Note_on_c, 2, 50, 127
1, 57952, Note_on_c, 11, 58, 127
1, 58077, Note_off_c, 5, 65, 127
1, 58110, Note_on_c, 5, 65, 127
1, 58266, Note_off_c, 5, 65, 127
1, 58266, Note_off_c, 11, 46, 127
1, 58268, Note_on_c, 10, 45, 127
1, 58268, Note_on_c, 7, 67, 127
1, 58424, Note_off_c, 7, 67, 127
1, 58426, Note_on_c, 5, 65, 127
1, 58582, Note_off_c, 5, 65, 127
1, 58582, Note_off_c, 10, 45, 127
1, 58584, Note_on_c, 7, 43, 127
1, 58584, Note_on_c, 4, 64, 127
1, 58898, Note_off_c, 11, 58, 127
1, 58898, Note_off_c, 2, 50, 127
1, 58900, Note_on_c, 2, 50, 127
1, 58900, Note_on_c, 11, 58, 127
1, 59056, Note_off_c, 2, 50, 127
1, 59058, Note_on_c, 1, 49, 127
1, 59160, Note_off_c, 7, 43, 127
1, 59214, Note_off_c, 1, 49, 127
1, 59214, Note_off_c, 11, 58, 127
1, 59216, Note_on_c, 10, 45, 127
1, 59216, Note_on_c, 1, 49, 127
1, 59216, Note_on_c, 10, 57, 127
1, 59472, Note_off_c, 4, 64, 127
1, 59530, Note_off_c, 10, 45, 127
1, 59532, Note_on_c, 7, 43, 127
1, 59532, Note_on_c, 10, 69, 127
1, 59688, Note_off_c, 10, 69, 127
1, 59690, Note_on_c, 2, 62, 127
1, 59846, Note_off_c, 2, 62, 127
1, 59846, Note_off_c, 7, 43, 127
1, 59846, Note_off_c, 1, 49, 127
1, 59848, Note_on_c, 6, 42, 127
1, 59848, Note_on_c, 2, 50, 127
1, 59848, Note_on_c, 2, 62, 127
1, 60162, Note_off_c, 2, 50, 127
1, 60162, Note_off_c, 10, 57, 127
1, 60164, Note_on_c, 0, 48, 127
1, 60164, Note_on_c, 10, 57, 127
1, 60320, Note_off_c, 0, 48, 127
1, 60322, Note_on_c, 12, 47, 127
1, 60473, Note_off_c, 6, 42, 127
1, 60478, Note_off_c, 12, 47, 127
1, 60478, Note_off_c, 10, 57, 127
1, 60480, Note_on_c, 7, 43, 127
1, 60480, Note_on_c, 12, 47, 127
1, 60480, Note_on_c, 7, 55, 127
1, 60636, Note_off_c, 2, 62, 127
1, 60638, Note_on_c, 2, 62, 127
1, 60794, Note_off_c, 2, 62, 127
1, 60794, Note_off_c, 7, 55, 127
1, 60796, Note_on_c, 5, 53, 127
1, 60796, Note_on_c, 1, 61, 127
1, 60952, Note_off_c, 1, 61, 127
1, 60954, Note_on_c, 2, 62, 127
1, 61110, Note_off_c, 2, 62, 127
1, 61110, Note_off_c, 5, 53, 127
1, 61110, Note_off_c, 12, 47, 127
1, 61112, Note_on_c, 1, 49, 127
1, 61112, Note_on_c, 4, 52, 127
1, 61112, Note_on_c, 4, 64, 127
1, 61322, Note_on_c, 2, 62, 127
1, 61426, Note_off_c, 2, 62, 127
1, 61428, Note_on_c, 1, 61, 127
1, 61532, Note_off_c, 1, 61, 127
1, 61534, Note_on_c, 12, 59, 127
1, 61638, Note_off_c, 12, 59, 127
1, 61640, Note_on_c, 10, 57, 127
1, 61689, Note_off_c, 4, 64, 127
1, 61738, Note_off_c, 4, 52, 127
1, 61743, Note_off_c, 10, 57, 127
1, 61743, Note_off_c, 1, 49, 127
1, 61743, Note_off_c, 7, 43, 127
1, 61745, Note_on_c, 5, 41, 127
1, 61745, Note_on_c, 2, 50, 127
1, 61745, Note_on_c, 10, 69, 127
1, 62061, Note_on_c, 10, 57, 127
1, 62197, Note_off_c, 10, 57, 127
1, 62199, Note_on_c, 0, 60, 127
1, 62286, Note_off_c, 0, 60, 127
1, 62288, Note_on_c, 12, 59, 127
1, 62375, Note_off_c, 12, 59, 127
1, 62375, Note_off_c, 10, 69, 127
1, 62377, Note_on_c, 12, 59, 127
1, 62377, Note_on_c, 7, 67, 127
1, 62691, Note_off_c, 12, 59, 127
1, 62693, Note_on_c, 1, 61, 127
1, 62849, Note_off_c, 1, 61, 127
1, 62851, Note_on_c, 2, 62, 127
1, 63007, Note_off_c, 2, 62, 127
1, 63007, Note_off_c, 2, 50, 127
1, 63007, Note_off_c, 5, 41, 127
1, 63009, Note_on_c, 4, 40, 127
1, 63009, Note_on_c, 4, 52, 127
1, 63009, Note_on_c, 1, 61, 127
1, 63323, Note_off_c, 1, 61, 127
1, 63325, Note_on_c, 2, 62, 127
1, 63481, Note_off_c, 2, 62, 127
1, 63483, Note_on_c, 4, 64, 127
1, 63639, Note_off_c, 4, 64, 127
1, 63639, Note_off_c, 4, 40, 127
1, 63641, Note_on_c, 5, 41, 127
1, 63641, Note_on_c, 10, 57, 127
1, 63799, Note_off_c, 4, 52, 127
1, 63858, Note_off_c, 7, 67, 127
1, 63957, Note_on_c, 10, 45, 127
1, 63957, Note_on_c, 7, 67, 127
1, 64113, Note_off_c, 7, 67, 127
1, 64115, Note_on_c, 5, 65, 127
1, 64271, Note_off_c, 5, 65, 127
1, 64271, Note_off_c, 10, 45, 127
1, 64273, Note_on_c, 2, 50, 127
1, 64273, Note_on_c, 5, 65, 127
1, 64350, Note_off_c, 2, 50, 127
1, 64352, Note_on_c, 0, 48, 127
1, 64429, Note_off_c, 0, 48, 127
1, 64431, Note_on_c, 2, 50, 127
1, 64587, Note_off_c, 10, 57, 127
1, 64587, Note_off_c, 5, 41, 127
1, 64589, Note_on_c, 5, 41, 127
1, 64589, Note_on_c, 10, 57, 127
1, 64725, Note_off_c, 10, 57, 127
1, 64727, Note_on_c, 0, 60, 127
1, 64814, Note_off_c, 0, 60, 127
1, 64816, Note_on_c, 11, 58, 127
1, 64903, Note_off_c, 11, 58, 127
1, 64903, Note_off_c, 5, 41, 127
1, 64905, Note_on_c, 7, 43, 127
1, 64905, Note_on_c, 11, 58, 127
1, 65219, Note_off_c, 2, 50, 127
1, 65221, Note_on_c, 2, 50, 127
1, 65535, Note_off_c, 11, 58, 127
1, 65535, Note_off_c, 7, 43, 127
1, 65537, Note_on_c, 8, 44, 127
1, 65537, Note_on_c, 12, 59, 127
1, 65851, Note_off_c, 2, 50, 127
1, 65851, Note_off_c, 5, 65, 127
1, 65853, Note_on_c, 2, 50, 127
1, 65853, Note_on_c, 5, 65, 127
1, 66009, Note_off_c, 5, 65, 127
1, 66011, Note_on_c, 4, 64, 127
1, 66167, Note_off_c, 4, 64, 127
1, 66167, Note_off_c, 12, 59, 127
1, 66167, Note_off_c, 8, 44, 127
1, 66169, Note_on_c, 10, 45, 127
1, 66169, Note_on_c, 10, 57, 127
1, 66169, Note_on_c, 4, 64, 127
1, 66483, Note_off_c, 2, 50, 127
1, 66485, Note_on_c, 2, 50, 127
1, 66794, Note_off_c, 4, 64, 127
1, 66799, Note_off_c, 2, 50, 127
1, 66799, Note_off_c, 10, 57, 127
1, 66801, Note_on_c, 1, 49, 127
1, 66801, Note_on_c, 10, 57, 127
1, 66979, Note_on_c, 4, 64, 127
1, 67125, Note_off_c, 10, 45, 127
1, 67135, Note_off_c, 4, 64, 127
1, 67147, Note_on_c, 10, 45, 127
1, 67147, Note_on_c, 1, 61, 127
1, 67303, Note_off_c, 1, 61, 127
1, 67313, Note_on_c, 2, 62, 127
1, 67426, Note_off_c, 1, 49, 127
1, 67431, Note_off_c, 10, 57, 127
1, 67461, Note_off_c, 10, 45, 127
1, 67469, Note_off_c, 2, 62, 127
1, 67472, Note_on_c, 4, 64, 127
1, 67472, Note_on_c, 7, 55, 127
1, 67472, Note_on_c, 11, 46, 127
1, 67788, Note_on_c, 2, 50, 127
1, 68081, Note_off_c, 4, 64, 127
1, 68102, Note_off_c, 11, 46, 127
1, 68102, Note_off_c, 7, 55, 127
1, 68104, Note_on_c, 5, 65, 127
1, 68104, Note_on_c, 10, 57, 127
1, 68104, Note_on_c, 10, 45, 127
1, 68418, Note_off_c, 2, 50, 127
1, 68420, Note_on_c, 2, 50, 127
1, 68713, Note_off_c, 5, 65, 127
1, 68734, Note_off_c, 10, 45, 127
1, 68734, Note_off_c, 10, 57, 127
1, 68736, Note_on_c, 7, 67, 127
1, 68736, Note_on_c, 11, 58, 127
1, 68736, Note_on_c, 7, 43, 127
1, 69050, Note_off_c, 7, 67, 127
1, 69050, Note_off_c, 2, 50, 127
1, 69052, Note_on_c, 5, 65, 127
1, 69052, Note_on_c, 2, 50, 127
1, 69208, Note_off_c, 5, 65, 127
1, 69210, Note_on_c, 4, 64, 127
1, 69366, Note_off_c, 4, 64, 127
1, 69366, Note_off_c, 7, 43, 127
1, 69366, Note_off_c, 11, 58, 127
1, 69368, Note_on_c, 5, 65, 127
1, 69368, Note_on_c, 10, 57, 127
1, 69368, Note_on_c, 10, 45, 127
1, 69682, Note_off_c, 5, 65, 127
1, 69682, Note_off_c, 2, 50, 127
1, 69684, Note_on_c, 4, 64, 127
1, 69684, Note_on_c, 1, 49, 127
1, 69840, Note_off_c, 4, 64, 127
1, 69842, Note_on_c, 2, 62, 127
1, 69998, Note_off_c, 2, 62, 127
1, 69998, Note_off_c, 1, 49, 127
1, 69998, Note_off_c, 10, 45, 127
1, 70000, Note_on_c, 2, 62, 127
1, 70000, Note_on_c, 2, 50, 127
1, 70000, Note_on_c, 11, 46, 127
1, 70314, Note_off_c, 10, 57, 127
1, 70378, Note_on_c, 10, 57, 127
1, 70551, Note_off_c, 10, 57, 127
1, 70566, Note_on_c, 7, 55, 127
1, 70724, Note_off_c, 2, 62, 127
1, 70729, Note_off_c, 7, 55, 127
1, 70773, Note_on_c, 7, 55, 127
1, 70946, Note_off_c, 2, 50, 127
1, 71200, Note_off_c, 11, 46, 127
1, 71268, Note_on_c, 1, 73, 127
1, 71273, Note_off_c, 7, 55, 127
1, 71390, Note_off_c, 1, 73, 127
1, 71414, Note_on_c, 2, 74, 127
1, 71536, Note_off_c, 2, 74, 127
1, 71544, Note_on_c, 4, 76, 127
1, 71666, Note_off_c, 4, 76, 127
1, 71668, Note_on_c, 10, 45, 127
1, 71668, Note_on_c, 1, 49, 127
1, 71668, Note_on_c, 10, 57, 127
1, 71668, Note_on_c, 5, 77, 127
1, 71913, Note_off_c, 10, 57, 127
1, 71939, Note_on_c, 10, 69, 127
1, 72066, Note_off_c, 10, 69, 127
1, 72083, Note_on_c, 12, 71, 127
1, 72210, Note_off_c, 12, 71, 127
1, 72212, Note_on_c, 1, 73, 127
1, 72294, Note_off_c, 1, 49, 127
1, 72294, Note_off_c, 10, 45, 127
1, 72299, Note_off_c, 5, 77, 127
1, 72338, Note_off_c, 1, 73, 127
1, 72340, Note_on_c, 5, 77, 127
1, 72340, Note_on_c, 2, 74, 127
1, 72562, Note_on_c, 4, 64, 127
1, 72692, Note_off_c, 4, 64, 127
1, 72704, Note_on_c, 5, 65, 127
1, 72834, Note_off_c, 5, 65, 127
1, 72844, Note_on_c, 7, 67, 127
1, 72976, Note_off_c, 7, 67, 127
1, 72976, Note_off_c, 2, 74, 127
1, 72976, Note_off_c, 5, 77, 127
1, 72978, Note_on_c, 5, 77, 127
1, 72978, Note_on_c, 2, 74, 127
1, 72978, Note_on_c, 10, 69, 127
1, 73091, Note_off_c, 10, 69, 127
1, 73093, Note_on_c, 4, 64, 127
1, 73208, Note_off_c, 4, 64, 127
1, 73210, Note_on_c, 5, 65, 127
1, 73323, Note_off_c, 5, 65, 127
1, 73325, Note_on_c, 1, 61, 127
1, 73438, Note_off_c, 1, 61, 127
1, 73438, Note_off_c, 2, 74, 127
1, 73438, Note_off_c, 5, 77, 127
1, 73440, Note_on_c, 5, 77, 127
1, 73440, Note_on_c, 2, 74, 127
1, 73440, Note_on_c, 2, 62, 127
1, 73555, Note_off_c, 2, 62, 127
1, 73557, Note_on_c, 10, 57, 127
1, 73670, Note_off_c, 10, 57, 127
1, 73672, Note_on_c, 11, 58, 127
1, 73787, Note_off_c, 11, 58, 127
1, 73789, Note_on_c, 7, 55, 127
1, 73902, Note_off_c, 7, 55, 127
1, 73902, Note_off_c, 2, 74, 127
1, 73902, Note_off_c, 5, 77, 127
1, 73904, Note_on_c, 5, 77, 127
1, 73904, Note_on_c, 2, 74, 127
1, 73904, Note_on_c, 10, 57, 127
1, 74017, Note_off_c, 10, 57, 127
1, 74019, Note_on_c, 5, 53, 127
1, 74134, Note_off_c, 5, 53, 127
1, 74136, Note_on_c, 7, 55, 127
1, 74249, Note_off_c, 7, 55, 127
1, 74251, Note_on_c, 10, 57, 127
1, 74366, Note_off_c, 10, 57, 127
1, 74366, Note_off_c, 2, 74, 127
1, 74366, Note_off_c, 5, 77, 127
1, 74368, Note_on_c, 5, 77, 127
1, 74368, Note_on_c, 2, 74, 127
1, 74368, Note_on_c, 2, 50, 127
1, 74508, Note_off_c, 2, 50, 127
1, 74510, Note_on_c, 0, 60, 127
1, 74646, Note_off_c, 0, 60, 127
1, 74648, Note_on_c, 12, 59, 127
1, 74789, Note_off_c, 12, 59, 127
1, 74791, Note_on_c, 10, 57, 127
1, 74924, Note_on_c, 8, 56, 127
1, 74933, Note_off_c, 10, 57, 127
1, 74994, Note_off_c, 2, 74, 127
1, 74994, Note_off_c, 5, 77, 127
1, 75134, Note_on_c, 4, 76, 127
1, 75269, Note_off_c, 4, 76, 127
1, 75277, Note_on_c, 5, 77, 127
1, 75428, Note_on_c, 1, 73, 127
1, 75556, Note_off_c, 5, 77, 127
1, 75559, Note_off_c, 1, 73, 127
1, 75559, Note_on_c, 2, 74, 127
1, 75697, Note_on_c, 10, 69, 127
1, 75848, Note_on_c, 12, 71, 127
1, 75853, Note_off_c, 10, 69, 127
1, 76004, Note_on_c, 4, 64, 127
1, 76056, Note_off_c, 8, 56, 127
1, 76145, Note_on_c, 5, 65, 127
1, 76145, Note_on_c, 10, 57, 127
1, 76160, Note_off_c, 12, 71, 127
1, 76173, Note_off_c, 4, 64, 127
1, 76183, Note_off_c, 2, 74, 127
1, 76315, Note_on_c, 10, 69, 127
1, 76458, Note_on_c, 2, 74, 127
1, 76575, Note_off_c, 5, 65, 127
1, 76601, Note_on_c, 2, 62, 127
1, 76742, Note_off_c, 2, 62, 127
1, 76744, Note_on_c, 4, 64, 127
1, 76887, Note_off_c, 10, 69, 127
1, 76890, Note_on_c, 7, 67, 127
1, 77028, Note_off_c, 2, 74, 127
1, 77038, Note_on_c, 1, 73, 127
1, 77183, Note_off_c, 7, 67, 127
1, 77190, Note_on_c, 7, 67, 127
1, 77292, Note_off_c, 10, 57, 127
1, 77317, Note_off_c, 4, 64, 127
1, 77338, Note_off_c, 7, 67, 127
1, 77341, Note_on_c, 6, 66, 127
1, 77341, Note_on_c, 2, 62, 127
1, 77341, Note_on_c, 2, 50, 127
1, 77362, Note_off_c, 1, 73, 127
1, 77541, Note_on_c, 10, 69, 127
1, 77689, Note_off_c, 10, 69, 127
1, 77694, Note_on_c, 2, 74, 127
1, 77839, Note_off_c, 2, 74, 127
1, 77842, Note_on_c, 10, 69, 127
1, 77990, Note_off_c, 10, 69, 127
1, 77993, Note_on_c, 11, 70, 127
1, 78082, Note_off_c, 6, 66, 127
1, 78144, Note_on_c, 6, 66, 127
1, 78289, Note_off_c, 6, 66, 127
1, 78292, Note_on_c, 7, 67, 127
1, 78437, Note_off_c, 11, 70, 127
1, 78444, Note_on_c, 11, 70, 127
1, 78590, Note_off_c, 11, 70, 127
1, 78595, Note_on_c, 2, 74, 127
1, 78651, Note_off_c, 2, 62, 127
1, 78738, Note_off_c, 7, 67, 127
1, 78745, Note_on_c, 7, 67, 127
1, 78891, Note_off_c, 7, 67, 127
1, 78896, Note_on_c, 11, 70, 127
1, 79041, Note_off_c, 2, 74, 127
1, 79048, Note_on_c, 2, 74, 127
1, 79193, Note_off_c, 2, 74, 127
1, 79196, Note_on_c, 7, 79, 127
1, 79347, Note_on_c, 11, 58, 127
1, 79490, Note_off_c, 11, 70, 127
1, 79492, Note_off_c, 7, 79, 127
1, 79495, Note_off_c, 11, 58, 127
1, 79498, Note_on_c, 1, 73, 127
1, 79498, Note_on_c, 7, 67, 127
1, 79498, Note_on_c, 10, 57, 127
1, 79643, Note_off_c, 10, 57, 127
1, 79653, Note_on_c, 7, 55, 127
1, 79771, Note_off_c, 1, 73, 127
1, 79809, Note_off_c, 7, 55, 127
1, 79816, Note_on_c, 10, 57, 127
1, 79816, Note_on_c, 2, 74, 127
1, 79943, Note_off_c, 7, 67, 127
1, 80004, Note_on_c, 4, 64, 127
1, 80159, Note_off_c, 4, 64, 127
1, 80164, Note_on_c, 6, 66, 127
1, 80319, Note_off_c, 6, 66, 127
1, 80326, Note_on_c, 7, 67, 127
1, 80479, Note_off_c, 7, 67, 127
1, 80486, Note_on_c, 6, 66, 127
1, 80604, Note_off_c, 2, 74, 127
1, 80647, Note_on_c, 2, 74, 127
1, 80762, Note_off_c, 10, 57, 127
1, 80800, Note_off_c, 6, 66, 127
1, 80808, Note_on_c, 4, 64, 127
1, 80808, Note_on_c, 7, 55, 127
1, 80969, Note_off_c, 2, 74, 127
1, 80981, Note_on_c, 1, 73, 127
1, 81137, Note_off_c, 7, 55, 127
1, 81137, Note_off_c, 4, 64, 127
1, 81149, Note_on_c, 2, 62, 127
1, 81149, Note_on_c, 10, 57, 127
1, 81323, Note_off_c, 1, 73, 127
1, 81349, Note_on_c, 6, 66, 127
1, 81546, Note_on_c, 10, 69, 127
1, 81656, Note_off_c, 2, 50, 127
1, 81783, Note_on_c, 2, 74, 127
1, 81843, Note_off_c, 10, 69, 127
1, 81879, Note_off_c, 10, 57, 127
1, 81910, Note_off_c, 6, 66, 127
1, 82092, Note_off_c, 2, 62, 127
1, 82153, Note_on_c, 2, 38, 127
1, 82163, Note_off_c, 2, 74, 127
1, 84953, Note_off_c, 2, 38, 127
1, 85110, Note_on_c, 2, 50, 127
1, 85483, Note_off_c, 2, 50, 127
1, 85493, Note_on_c, 4, 52, 127
1, 85753, Note_off_c, 4, 52, 127
1, 85754, Note_on_c, 5, 53, 127
1, 85884, Note_off_c, 5, 53, 127
1, 85885, Note_on_c, 7, 55, 127
1, 86015, Note_off_c, 7, 55, 127
1, 86016, Note_on_c, 10, 57, 127
1, 86276, Note_off_c, 10, 57, 127
1, 86277, Note_on_c, 7, 55, 127
1, 86537, Note_off_c, 7, 55, 127
1, 86538, Note_on_c, 5, 53, 127
1, 86777, Note_off_c, 5, 53, 127
1, 86800, Note_on_c, 2, 50, 127
1, 87060, Note_off_c, 2, 50, 127
1, 87061, Note_on_c, 2, 62, 127
1, 87320, Note_off_c, 2, 62, 127
1, 87323, Note_on_c, 2, 62, 127
1, 87585, Note_on_c, 4, 64, 127
1, 87845, Note_off_c, 4, 64, 127
1, 87846, Note_on_c, 5, 65, 127
1, 87976, Note_off_c, 5, 65, 127
1, 87977, Note_on_c, 7, 67, 127
1, 88107, Note_off_c, 7, 67, 127
1, 88107, Note_off_c, 2, 62, 127
1, 88108, Note_on_c, 10, 69, 127
1, 88108, Note_on_c, 1, 61, 127
1, 88368, Note_off_c, 10, 69, 127
1, 88369, Note_on_c, 7, 67, 127
1, 88629, Note_off_c, 7, 67, 127
1, 88629, Note_off_c, 1, 61, 127
1, 88630, Note_on_c, 5, 65, 127
1, 88630, Note_on_c, 2, 62, 127
1, 88869, Note_off_c, 5, 65, 127
1, 88889, Note_off_c, 2, 62, 127
1, 88892, Note_on_c, 2, 62, 127
1, 89154, Note_on_c, 11, 70, 127
1, 89219, Note_off_c, 2, 62, 127
1, 89415, Note_on_c, 2, 62, 127
1, 89675, Note_off_c, 2, 62, 127
1, 89676, Note_on_c, 0, 60, 127
1, 89936, Note_off_c, 0, 60, 127
1, 89937, Note_on_c, 2, 62, 127
1, 90067, Note_off_c, 2, 62, 127
1, 90068, Note_on_c, 4, 64, 127
1, 90198, Note_off_c, 4, 64, 127
1, 90198, Note_off_c, 11, 70, 127
1, 90199, Note_on_c, 10, 69, 127
1, 90199, Note_on_c, 5, 65, 127
1, 90444, Note_off_c, 5, 65, 127
1, 90460, Note_on_c, 10, 57, 127
1, 90705, Note_off_c, 10, 57, 127
1, 90721, Note_on_c, 12, 59, 127
1, 90981, Note_off_c, 12, 59, 127
1, 90982, Note_on_c, 0, 60, 127
1, 91112, Note_off_c, 0, 60, 127
1, 91113, Note_on_c, 2, 62, 127
1, 91243, Note_off_c, 2, 62, 127
1, 91243, Note_off_c, 10, 69, 127
1, 91244, Note_on_c, 7, 67, 127
1, 91244, Note_on_c, 4, 64, 127
1, 91489, Note_off_c, 4, 64, 127
1, 91505, Note_on_c, 12, 59, 127
1, 91750, Note_off_c, 12, 59, 127
1, 91766, Note_on_c, 1, 61, 127
1, 92005, Note_off_c, 1, 61, 127
1, 92028, Note_on_c, 10, 57, 127
1, 92267, Note_off_c, 10, 57, 127
1, 92289, Note_off_c, 7, 67, 127
1, 92290, Note_on_c, 5, 65, 127
1, 92290, Note_on_c, 2, 62, 127
1, 92550, Note_off_c, 5, 65, 127
1, 92551, Note_on_c, 7, 67, 127
1, 92681, Note_off_c, 7, 67, 127
1, 92682, Note_on_c, 5, 65, 127
1, 92812, Note_off_c, 5, 65, 127
1, 92813, Note_on_c, 4, 64, 127
1, 93073, Note_off_c, 4, 64, 127
1, 93074, Note_on_c, 5, 65, 127
1, 93204, Note_off_c, 5, 65, 127
1, 93205, Note_on_c, 7, 67, 127
1, 93335, Note_off_c, 7, 67, 127
1, 93335, Note_off_c, 2, 62, 127
1, 93336, Note_on_c, 10, 69, 127
1, 93336, Note_on_c, 1, 61, 127
1, 93596, Note_off_c, 10, 69, 127
1, 93597, Note_on_c, 7, 67, 127
1, 93857, Note_off_c, 7, 67, 127
1, 93857, Note_off_c, 1, 61, 127
1, 93858, Note_on_c, 5, 65, 127
1, 93858, Note_on_c, 2, 62, 127
1, 94090, Note_off_c, 5, 65, 127
1, 94117, Note_off_c, 2, 62, 127
1, 94120, Note_on_c, 2, 62, 127
1, 94379, Note_off_c, 2, 62, 127
1, 94382, Note_on_c, 10, 69, 127
1, 94382, Note_on_c, 0, 60, 127
1, 94644, Note_on_c, 10, 45, 127
1, 94904, Note_off_c, 10, 45, 127
1, 94904, Note_off_c, 0, 60, 127
1, 94905, Note_on_c, 2, 62, 127
1, 94905, Note_on_c, 12, 47, 127
1, 95165, Note_off_c, 12, 47, 127
1, 95166, Note_on_c, 0, 48, 127
1, 95296, Note_off_c, 0, 48, 127
1, 95297, Note_on_c, 2, 50, 127
1, 95427, Note_off_c, 2, 50, 127
1, 95427, Note_off_c, 2, 62, 127
1, 95427, Note_off_c, 10, 69, 127
1, 95428, Note_on_c, 8, 68, 127
1, 95428, Note_on_c, 12, 59, 127
1, 95428, Note_on_c, 4, 52, 127
1, 95688, Note_off_c, 4, 52, 127
1, 95689, Note_on_c, 2, 50, 127
1, 95949, Note_off_c, 2, 50, 127
1, 95949, Note_off_c, 12, 59, 127
1, 95949, Note_off_c, 8, 68, 127
1, 95950, Note_on_c, 10, 69, 127
1, 95950, Note_on_c, 10, 57, 127
1, 95950, Note_on_c, 0, 48, 127
1, 96182, Note_off_c, 0, 48, 127
1, 96212, Note_on_c, 10, 45, 127
1, 96472, Note_off_c, 10, 45, 127
1, 96472, Note_off_c, 10, 57, 127
1, 96473, Note_on_c, 4, 64, 127
1, 96473, Note_on_c, 0, 60, 127
1, 96473, Note_on_c, 10, 57, 127
1, 96733, Note_off_c, 10, 69, 127
1, 96734, Note_on_c, 10, 69, 127
1, 96994, Note_off_c, 10, 69, 127
1, 96994, Note_off_c, 0, 60, 127
1, 96994, Note_off_c, 4, 64, 127
1, 96995, Note_on_c, 12, 71, 127
1, 96995, Note_on_c, 5, 65, 127
1, 96995, Note_on_c, 2, 62, 127
1, 97255, Note_off_c, 12, 71, 127
1, 97256, Note_on_c, 0, 72, 127
1, 97386, Note_off_c, 0, 72, 127
1, 97387, Note_on_c, 2, 74, 127
1, 97517, Note_off_c, 2, 74, 127
1, 97517, Note_off_c, 2, 62, 127
1, 97517, Note_off_c, 5, 65, 127
1, 97517, Note_off_c, 10, 57, 127
1, 97518, Note_on_c, 4, 76, 127
1, 97518, Note_on_c, 4, 64, 127
1, 97518, Note_on_c, 12, 59, 127
1, 97518, Note_on_c, 8, 56, 127
1, 97778, Note_off_c, 4, 76, 127
1, 97779, Note_on_c, 2, 74, 127
1, 98039, Note_off_c, 2, 74, 127
1, 98039, Note_off_c, 8, 56, 127
1, 98039, Note_off_c, 12, 59, 127
1, 98039, Note_off_c, 4, 64, 127
1, 98040, Note_on_c, 0, 72, 127
1, 98040, Note_on_c, 4, 64, 127
1, 98040, Note_on_c, 10, 57, 127
1, 98272, Note_off_c, 0, 72, 127
1, 98302, Note_on_c, 10, 69, 127
1, 98534, Note_off_c, 10, 69, 127
1, 98559, Note_off_c, 10, 57, 127
1, 98559, Note_off_c, 4, 64, 127
1, 98564, Note_on_c, 5, 77, 127
1, 98826, Note_on_c, 10, 69, 127
1, 98826, Note_on_c, 0, 72, 127
1, 98826, Note_on_c, 10, 57, 127
1, 99086, Note_off_c, 10, 57, 127
1, 99086, Note_off_c, 0, 72, 127
1, 99086, Note_off_c, 10, 69, 127
1, 99087, Note_on_c, 2, 74, 127
1, 99087, Note_on_c, 12, 71, 127
1, 99087, Note_on_c, 7, 55, 127
1, 99347, Note_off_c, 7, 55, 127
1, 99348, Note_on_c, 10, 57, 127
1, 99478, Note_off_c, 10, 57, 127
1, 99479, Note_on_c, 12, 59, 127
1, 99609, Note_off_c, 12, 59, 127
1, 99609, Note_off_c, 12, 71, 127
1, 99609, Note_off_c, 2, 74, 127
1, 99609, Note_off_c, 5, 77, 127
1, 99610, Note_on_c, 4, 76, 127
1, 99610, Note_on_c, 0, 72, 127
1, 99610, Note_on_c, 7, 67, 127
1, 99610, Note_on_c, 0, 60, 127
1, 99870, Note_off_c, 0, 60, 127
1, 99871, Note_on_c, 4, 52, 127
1, 100131, Note_off_c, 4, 52, 127
1, 100131, Note_off_c, 7, 67, 127
1, 100131, Note_off_c, 0, 72, 127
1, 100132, Note_on_c, 10, 69, 127
1, 100132, Note_on_c, 6, 54, 127
1, 100392, Note_off_c, 6, 54, 127
1, 100393, Note_on_c, 7, 55, 127
1, 100523, Note_off_c, 7, 55, 127
1, 100524, Note_on_c, 10, 57, 127
1, 100654, Note_off_c, 10, 57, 127
1, 100654, Note_off_c, 10, 69, 127
1, 100654, Note_off_c, 4, 76, 127
1, 100655, Note_on_c, 2, 74, 127
1, 100655, Note_on_c, 6, 66, 127
1, 100655, Note_on_c, 12, 71, 127
1, 100655, Note_on_c, 12, 59, 127
1, 100915, Note_off_c, 12, 59, 127
1, 100916, Note_on_c, 6, 54, 127
1, 101172, Note_off_c, 12, 71, 127
1, 101172, Note_off_c, 6, 66, 127
1, 101176, Note_off_c, 6, 54, 127
1, 101177, Note_on_c, 4, 64, 127
1, 101177, Note_on_c, 8, 56, 127
1, 101437, Note_off_c, 8, 56, 127
1, 101438, Note_on_c, 4, 52, 127
1, 101698, Note_off_c, 4, 52, 127
1, 101698, Note_off_c, 2, 74, 127
1, 101699, Note_on_c, 0, 72, 127
1, 101699, Note_on_c, 10, 69, 127
1, 101699, Note_on_c, 10, 57, 127
1, 101959, Note_off_c, 10, 69, 127
1, 101959, Note_off_c, 0, 72, 127
1, 101959, Note_off_c, 4, 64, 127
1, 101960, Note_on_c, 2, 74, 127
1, 101960, Note_on_c, 7, 67, 127
1, 101960, Note_on_c, 4, 64, 127
1, 102090, Note_off_c, 2, 74, 127
1, 102091, Note_on_c, 0, 72, 127
1, 102221, Note_off_c, 0, 72, 127
1, 102221, Note_off_c, 4, 64, 127
1, 102221, Note_off_c, 7, 67, 127
1, 102222, Note_on_c, 12, 71, 127
1, 102222, Note_on_c, 5, 65, 127
1, 102222, Note_on_c, 2, 62, 127
1, 102482, Note_off_c, 2, 62, 127
1, 102482, Note_off_c, 12, 71, 127
1, 102483, Note_on_c, 0, 72, 127
1, 102483, Note_on_c, 0, 60, 127
1, 102613, Note_off_c, 0, 72, 127
1, 102614, Note_on_c, 2, 74, 127
1, 102744, Note_off_c, 2, 74, 127
1, 102744, Note_off_c, 0, 60, 127
1, 102744, Note_off_c, 5, 65, 127
1, 102744, Note_off_c, 10, 57, 127
1, 102745, Note_on_c, 4, 76, 127
1, 102745, Note_on_c, 4, 64, 127
1, 102745, Note_on_c, 12, 59, 127
1, 102745, Note_on_c, 8, 56, 127
1, 103005, Note_off_c, 4, 76, 127
1, 103006, Note_on_c, 2, 74, 127
1, 103262, Note_off_c, 8, 56, 127
1, 103262, Note_off_c, 12, 59, 127
1, 103266, Note_off_c, 2, 74, 127
1, 103266, Note_off_c, 4, 64, 127
1, 103267, Note_on_c, 0, 72, 127
1, 103267, Note_on_c, 4, 64, 127
1, 103267, Note_on_c, 10, 57, 127
1, 103512, Note_off_c, 0, 72, 127
1, 103528, Note_on_c, 10, 69, 127
1, 103788, Note_off_c, 10, 69, 127
1, 103788, Note_off_c, 4, 64, 127
1, 103789, Note_on_c, 10, 81, 127
1, 103789, Note_on_c, 0, 72, 127
1, 104049, Note_off_c, 10, 57, 127
1, 104050, Note_on_c, 10, 45, 127
1, 104310, Note_off_c, 10, 45, 127
1, 104310, Note_off_c, 0, 72, 127
1, 104311, Note_on_c, 2, 74, 127
1, 104311, Note_on_c, 12, 47, 127
1, 104571, Note_off_c, 12, 47, 127
1, 104572, Note_on_c, 0, 48, 127
1, 104702, Note_off_c, 0, 48, 127
1, 104703, Note_on_c, 2, 50, 127
1, 104833, Note_off_c, 2, 50, 127
1, 104833, Note_off_c, 2, 74, 127
1, 104833, Note_off_c, 10, 81, 127
1, 104834, Note_on_c, 8, 80, 127
1, 104834, Note_on_c, 12, 71, 127
1, 104834, Note_on_c, 4, 52, 127
1, 105094, Note_off_c, 4, 52, 127
1, 105095, Note_on_c, 2, 50, 127
1, 105355, Note_off_c, 2, 50, 127
1, 105355, Note_off_c, 12, 71, 127
1, 105355, Note_off_c, 8, 80, 127
1, 105356, Note_on_c, 10, 81, 127
1, 105356, Note_on_c, 10, 69, 127
1, 105356, Note_on_c, 0, 48, 127
1, 105601, Note_off_c, 0, 48, 127
1, 105617, Note_on_c, 10, 45, 127
1, 105873, Note_off_c, 10, 69, 127
1, 105878, Note_on_c, 0, 60, 127
1, 105878, Note_on_c, 5, 53, 127
1, 105889, Note_off_c, 10, 45, 127
1, 106139, Note_off_c, 10, 81, 127
1, 106140, Note_on_c, 10, 81, 127
1, 106400, Note_off_c, 10, 81, 127
1, 106400, Note_off_c, 0, 60, 127
1, 106401, Note_on_c, 7, 79, 127
1, 106401, Note_on_c, 12, 59, 127
1, 106661, Note_off_c, 7, 79, 127
1, 106662, Note_on_c, 10, 81, 127
1, 106792, Note_off_c, 10, 81, 127
1, 106793, Note_on_c, 12, 83, 127
1, 106923, Note_off_c, 12, 83, 127
1, 106923, Note_off_c, 12, 59, 127
1, 106923, Note_off_c, 5, 53, 127
1, 106924, Note_on_c, 0, 84, 127
1, 106924, Note_on_c, 7, 55, 127
1, 106924, Note_on_c, 4, 52, 127
1, 107184, Note_off_c, 0, 84, 127
1, 107185, Note_on_c, 4, 76, 127
1, 107445, Note_off_c, 4, 76, 127
1, 107445, Note_off_c, 7, 55, 127
1, 107446, Note_on_c, 6, 78, 127
1, 107446, Note_on_c, 10, 57, 127
1, 107706, Note_off_c, 6, 78, 127
1, 107707, Note_on_c, 7, 79, 127
1, 107837, Note_off_c, 7, 79, 127
1, 107838, Note_on_c, 10, 81, 127
1, 107968, Note_off_c, 10, 81, 127
1, 107968, Note_off_c, 10, 57, 127
1, 107968, Note_off_c, 4, 52, 127
1, 107969, Note_on_c, 12, 83, 127
1, 107969, Note_on_c, 6, 54, 127
1, 107969, Note_on_c, 2, 50, 127
1, 108229, Note_off_c, 12, 83, 127
1, 108230, Note_on_c, 6, 78, 127
1, 108490, Note_off_c, 6, 78, 127
1, 108490, Note_off_c, 6, 54, 127
1, 108491, Note_on_c, 8, 80, 127
1, 108491, Note_on_c, 12, 59, 127
1, 108751, Note_off_c, 8, 80, 127
1, 108752, Note_on_c, 4, 76, 127
1, 109008, Note_off_c, 12, 59, 127
1, 109012, Note_off_c, 4, 76, 127
1, 109012, Note_off_c, 2, 50, 127
1, 109013, Note_on_c, 10, 81, 127
1, 109013, Note_on_c, 0, 48, 127
1, 109273, Note_off_c, 0, 48, 127
1, 109274, Note_on_c, 4, 76, 127
1, 109274, Note_on_c, 2, 50, 127
1, 109404, Note_off_c, 2, 50, 127
1, 109405, Note_on_c, 0, 48, 127
1, 109535, Note_off_c, 0, 48, 127
1, 109535, Note_off_c, 4, 76, 127
1, 109536, Note_on_c, 2, 74, 127
1, 109536, Note_on_c, 12, 47, 127
1, 109796, Note_off_c, 12, 47, 127
1, 109796, Note_off_c, 2, 74, 127
1, 109797, Note_on_c, 0, 72, 127
1, 109797, Note_on_c, 0, 48, 127
1, 109927, Note_off_c, 0, 48, 127
1, 109928, Note_on_c, 2, 50, 127
1, 110058, Note_off_c, 2, 50, 127
1, 110058, Note_off_c, 0, 72, 127
1, 110058, Note_off_c, 10, 81, 127
1, 110059, Note_on_c, 7, 79, 127
1, 110059, Note_on_c, 12, 71, 127
1, 110059, Note_on_c, 4, 52, 127
1, 110319, Note_off_c, 4, 52, 127
1, 110320, Note_on_c, 2, 50, 127
1, 110580, Note_off_c, 2, 50, 127
1, 110580, Note_off_c, 12, 71, 127
1, 110581, Note_on_c, 10, 69, 127
1, 110581, Note_on_c, 1, 49, 127
1, 110841, Note_off_c, 1, 49, 127
1, 110842, Note_on_c, 10, 45, 127
1, 111102, Note_off_c, 10, 45, 127
1, 111102, Note_off_c, 7, 79, 127
1, 111103, Note_on_c, 5, 77, 127
1, 111103, Note_on_c, 2, 50, 127
1, 111363, Note_off_c, 2, 50, 127
1, 111364, Note_on_c, 5, 41, 127
1, 111624, Note_off_c, 5, 41, 127
1, 111624, Note_off_c, 10, 69, 127
1, 111625, Note_on_c, 11, 70, 127
1, 111625, Note_on_c, 7, 43, 127
1, 111885, Note_off_c, 7, 43, 127
1, 111885, Note_off_c, 11, 70, 127
1, 111886, Note_on_c, 10, 69, 127
1, 111886, Note_on_c, 10, 45, 127
1, 112016, Note_off_c, 10, 45, 127
1, 112017, Note_on_c, 11, 46, 127
1, 112147, Note_off_c, 11, 46, 127
1, 112147, Note_off_c, 10, 69, 127
1, 112147, Note_off_c, 5, 77, 127
1, 112148, Note_on_c, 4, 76, 127
1, 112148, Note_on_c, 7, 67, 127
1, 112148, Note_on_c, 0, 48, 127
1, 112408, Note_off_c, 0, 48, 127
1, 112409, Note_on_c, 11, 46, 127
1, 112669, Note_off_c, 11, 46, 127
1, 112669, Note_off_c, 7, 67, 127
1, 112670, Note_on_c, 5, 65, 127
1, 112670, Note_on_c, 10, 45, 127
1, 112930, Note_off_c, 10, 45, 127
1, 112931, Note_on_c, 5, 41, 127
1, 113191, Note_off_c, 5, 41, 127
1, 113191, Note_off_c, 4, 76, 127
1, 113192, Note_on_c, 2, 74, 127
1, 113192, Note_on_c, 11, 46, 127
1, 113452, Note_off_c, 11, 46, 127
1, 113453, Note_on_c, 2, 38, 127
1, 113713, Note_off_c, 2, 38, 127
1, 113713, Note_off_c, 5, 65, 127
1, 113714, Note_on_c, 7, 67, 127
1, 113714, Note_on_c, 4, 40, 127
1, 113974, Note_off_c, 4, 40, 127
1, 113974, Note_off_c, 7, 67, 127
1, 113975, Note_on_c, 5, 65, 127
1, 113975, Note_on_c, 5, 41, 127
1, 114105, Note_off_c, 5, 41, 127
1, 114106, Note_on_c, 7, 43, 127
1, 114236, Note_off_c, 7, 43, 127
1, 114236, Note_off_c, 5, 65, 127
1, 114236, Note_off_c, 2, 74, 127
1, 114237, Note_on_c, 1, 73, 127
1, 114237, Note_on_c, 4, 64, 127
1, 114237, Note_on_c, 10, 45, 127
1, 114497, Note_off_c, 10, 45, 127
1, 114497, Note_off_c, 4, 64, 127
1, 114498, Note_on_c, 5, 65, 127
1, 114498, Note_on_c, 7, 43, 127
1, 114628, Note_off_c, 5, 65, 127
1, 114629, Note_on_c, 7, 67, 127
1, 114759, Note_off_c, 7, 67, 127
1, 114759, Note_off_c, 7, 43, 127
1, 114759, Note_off_c, 1, 73, 127
1, 114760, Note_on_c, 2, 74, 127
1, 114760, Note_on_c, 10, 69, 127
1, 114760, Note_on_c, 5, 41, 127
1, 115005, Note_off_c, 5, 41, 127
1, 115020, Note_off_c, 10, 69, 127
1, 115021, Note_on_c, 7, 67, 127
1, 115021, Note_on_c, 2, 38, 127
1, 115281, Note_off_c, 2, 38, 127
1, 115281, Note_off_c, 7, 67, 127
1, 115282, Note_on_c, 5, 65, 127
1, 115282, Note_on_c, 2, 50, 127
1, 115541, Note_off_c, 2, 50, 127
1, 115544, Note_on_c, 2, 50, 127
1, 115804, Note_off_c, 5, 65, 127
1, 115804, Note_off_c, 2, 74, 127
1, 115805, Note_on_c, 11, 70, 127
1, 115805, Note_on_c, 7, 67, 127
1, 115805, Note_on_c, 4, 52, 127
1, 116065, Note_off_c, 4, 52, 127
1, 116066, Note_on_c, 5, 53, 127
1, 116196, Note_off_c, 5, 53, 127
1, 116197, Note_on_c, 7, 55, 127
1, 116327, Note_off_c, 7, 55, 127
1, 116327, Note_off_c, 7, 67, 127
1, 116327, Note_off_c, 11, 70, 127
1, 116327, Note_off_c, 2, 50, 127
1, 116328, Note_on_c, 10, 69, 127
1, 116328, Note_on_c, 4, 64, 127
1, 116328, Note_on_c, 10, 57, 127
1, 116328, Note_on_c, 1, 49, 127
1, 116588, Note_off_c, 10, 57, 127
1, 116589, Note_on_c, 7, 55, 127
1, 116849, Note_off_c, 7, 55, 127
1, 116849, Note_off_c, 1, 49, 127
1, 116849, Note_off_c, 4, 64, 127
1, 116849, Note_off_c, 10, 69, 127
1, 116850, Note_on_c, 10, 69, 127
1, 116850, Note_on_c, 2, 62, 127
1, 116850, Note_on_c, 5, 53, 127
1, 116850, Note_on_c, 2, 50, 127
1, 117095, Note_off_c, 5, 53, 127
1, 117109, Note_off_c, 2, 50, 127
1, 117112, Note_on_c, 2, 50, 127
1, 117368, Note_off_c, 10, 69, 127
1, 117372, Note_off_c, 2, 62, 127
1, 117373, Note_on_c, 2, 62, 127
1, 117373, Note_on_c, 11, 58, 127
1, 117632, Note_off_c, 2, 62, 127
1, 117633, Note_off_c, 11, 58, 127
1, 117634, Note_on_c, 2, 62, 127
1, 117634, Note_on_c, 10, 57, 127
1, 117893, Note_off_c, 10, 57, 127
1, 117894, Note_off_c, 2, 50, 127
1, 117895, Note_on_c, 4, 64, 127
1, 117895, Note_on_c, 7, 55, 127
1, 118155, Note_off_c, 7, 55, 127
1, 118155, Note_off_c, 4, 64, 127
1, 118156, Note_on_c, 5, 65, 127
1, 118156, Note_on_c, 4, 52, 127
1, 118286, Note_off_c, 5, 65, 127
1, 118287, Note_on_c, 7, 67, 127
1, 118417, Note_off_c, 7, 67, 127
1, 118417, Note_off_c, 4, 52, 127
1, 118417, Note_off_c, 2, 62, 127
1, 118418, Note_on_c, 10, 69, 127
1, 118418, Note_on_c, 1, 61, 127
1, 118418, Note_on_c, 10, 57, 127
1, 118678, Note_off_c, 10, 69, 127
1, 118679, Note_on_c, 7, 67, 127
1, 118679, Note_on_c, 10, 45, 127
1, 118799, Note_off_c, 10, 57, 127
1, 118939, Note_off_c, 10, 45, 127
1, 118939, Note_off_c, 7, 67, 127
1, 118939, Note_off_c, 1, 61, 127
1, 118940, Note_on_c, 5, 65, 127
1, 118940, Note_on_c, 2, 62, 127
1, 118940, Note_on_c, 2, 50, 127
1, 119200, Note_off_c, 5, 65, 127
1, 119201, Note_on_c, 4, 64, 127
1, 119201, Note_on_c, 2, 38, 127
1, 119321, Note_off_c, 2, 50, 127
1, 119321, Note_off_c, 2, 62, 127
1, 119331, Note_off_c, 4, 64, 127
1, 119332, Note_on_c, 2, 62, 127
1, 119447, Note_off_c, 2, 38, 127
1, 119463, Note_on_c, 11, 70, 127
1, 119591, Note_off_c, 2, 62, 127
1, 119725, Note_on_c, 2, 62, 127
1, 119964, Note_off_c, 2, 62, 127
1, 119987, Note_on_c, 0, 60, 127
1, 120247, Note_off_c, 0, 60, 127
1, 120248, Note_on_c, 2, 62, 127
1, 120378, Note_off_c, 2, 62, 127
1, 120379, Note_on_c, 4, 64, 127
1, 120509, Note_off_c, 4, 64, 127
1, 120509, Note_off_c, 11, 70, 127
1, 120510, Note_on_c, 5, 65, 127
1, 120772, Note_on_c, 10, 69, 127
1, 121011, Note_off_c, 10, 69, 127
1, 121034, Note_on_c, 7, 67, 127
1, 121294, Note_off_c, 7, 67, 127
1, 121295, Note_on_c, 10, 69, 127
1, 121419, Note_off_c, 5, 65, 127
1, 121424, Note_off_c, 10, 69, 127
1, 121425, Note_on_c, 11, 70, 127
1, 121555, Note_off_c, 11, 70, 127
1, 121556, Note_on_c, 0, 72, 127
1, 121818, Note_on_c, 4, 64, 127
1, 122050, Note_off_c, 4, 64, 127
1, 122080, Note_on_c, 2, 62, 127
1, 122330, Note_off_c, 0, 72, 127
1, 122341, Note_off_c, 2, 62, 127
1, 122342, Note_on_c, 4, 64, 127
1, 122472, Note_off_c, 4, 64, 127
1, 122473, Note_on_c, 6, 66, 127
1, 122603, Note_off_c, 6, 66, 127
1, 122604, Note_on_c, 7, 67, 127
1, 122866, Note_on_c, 11, 70, 127
1, 123105, Note_off_c, 11, 70, 127
1, 123128, Note_on_c, 10, 69, 127
1, 123241, Note_off_c, 7, 67, 127
1, 123388, Note_off_c, 10, 69, 127
1, 123389, Note_on_c, 12, 71, 127
1, 123519, Note_off_c, 12, 71, 127
1, 123520, Note_on_c, 1, 73, 127
1, 123650, Note_off_c, 1, 73, 127
1, 123651, Note_on_c, 2, 74, 127
1, 123913, Note_on_c, 5, 65, 127
1, 124145, Note_off_c, 5, 65, 127
1, 124175, Note_on_c, 4, 64, 127
1, 124435, Note_off_c, 4, 64, 127
1, 124436, Note_on_c, 5, 65, 127
1, 124566, Note_off_c, 5, 65, 127
1, 124567, Note_on_c, 7, 67, 127
1, 124697, Note_off_c, 7, 67, 127
1, 124697, Note_off_c, 2, 74, 127
1, 124698, Note_on_c, 1, 73, 127
1, 124698, Note_on_c, 10, 69, 127
1, 124958, Note_off_c, 10, 69, 127
1, 124959, Note_on_c, 7, 67, 127
1, 125219, Note_off_c, 7, 67, 127
1, 125219, Note_off_c, 1, 73, 127
1, 125220, Note_on_c, 2, 74, 127
1, 125220, Note_on_c, 5, 65, 127
1, 125465, Note_off_c, 5, 65, 127
1, 125481, Note_on_c, 2, 62, 127
1, 125726, Note_off_c, 2, 62, 127
1, 125742, Note_on_c, 11, 70, 127
1, 125873, Note_off_c, 2, 74, 127
1, 126004, Note_on_c, 2, 74, 127
1, 126264, Note_off_c, 2, 74, 127
1, 126265, Note_on_c, 0, 72, 127
1, 126525, Note_off_c, 0, 72, 127
1, 126526, Note_on_c, 2, 74, 127
1, 126656, Note_off_c, 2, 74, 127
1, 126657, Note_on_c, 4, 76, 127
1, 126787, Note_off_c, 4, 76, 127
1, 126787, Note_off_c, 11, 70, 127
1, 126788, Note_on_c, 5, 77, 127
1, 126788, Note_on_c, 10, 69, 127
1, 127033, Note_off_c, 5, 77, 127
1, 127047, Note_off_c, 10, 69, 127
1, 127050, Note_on_c, 10, 69, 127
1, 127312, Note_on_c, 12, 71, 127
1, 127572, Note_off_c, 12, 71, 127
1, 127573, Note_on_c, 0, 72, 127
1, 127703, Note_off_c, 0, 72, 127
1, 127704, Note_on_c, 2, 74, 127
1, 127834, Note_off_c, 2, 74, 127
1, 127834, Note_off_c, 10, 69, 127
1, 127835, Note_on_c, 4, 76, 127
1, 127835, Note_on_c, 7, 67, 127
1, 128080, Note_off_c, 4, 76, 127
1, 128096, Note_on_c, 12, 71, 127
1, 128356, Note_off_c, 12, 71, 127
1, 128357, Note_on_c, 1, 73, 127
1, 128602, Note_off_c, 1, 73, 127
1, 128618, Note_on_c, 10, 69, 127
1, 128863, Note_off_c, 10, 69, 127
1, 128878, Note_off_c, 7, 67, 127
1, 128879, Note_on_c, 2, 74, 127
1, 128879, Note_on_c, 5, 65, 127
1, 129139, Note_off_c, 5, 65, 127
1, 129140, Note_on_c, 7, 67, 127
1, 129270, Note_off_c, 7, 67, 127
1, 129271, Note_on_c, 5, 65, 127
1, 129401, Note_off_c, 5, 65, 127
1, 129402, Note_on_c, 4, 64, 127
1, 129662, Note_off_c, 4, 64, 127
1, 129663, Note_on_c, 5, 65, 127
1, 129793, Note_off_c, 5, 65, 127
1, 129794, Note_on_c, 7, 67, 127
1, 129924, Note_off_c, 7, 67, 127
1, 129924, Note_off_c, 2, 74, 127
1, 129925, Note_on_c, 1, 73, 127
1, 129925, Note_on_c, 10, 69, 127
1, 130185, Note_off_c, 10, 69, 127
1, 130186, Note_on_c, 7, 67, 127
1, 130186, Note_on_c, 10, 57, 127
1, 130446, Note_off_c, 10, 57, 127
1, 130446, Note_off_c, 7, 67, 127
1, 130446, Note_off_c, 1, 73, 127
1, 130447, Note_on_c, 2, 74, 127
1, 130447, Note_on_c, 5, 65, 127
1, 130447, Note_on_c, 2, 50, 127
1, 130707, Note_off_c, 2, 50, 127
1, 130707, Note_off_c, 5, 65, 127
1, 130708, Note_on_c, 2, 62, 127
1, 130708, Note_on_c, 4, 52, 127
1, 130964, Note_off_c, 2, 74, 127
1, 130968, Note_off_c, 4, 52, 127
1, 130968, Note_off_c, 2, 62, 127
1, 130969, Note_on_c, 2, 74, 127
1, 130969, Note_on_c, 5, 53, 127
1, 131228, Note_off_c, 2, 74, 127
1, 131229, Note_off_c, 5, 53, 127
1, 131230, Note_on_c, 2, 74, 127
1, 131230, Note_on_c, 2, 50, 127
1, 131490, Note_off_c, 2, 50, 127
1, 131491, Note_on_c, 4, 76, 127
1, 131491, Note_on_c, 7, 55, 127
1, 131751, Note_off_c, 7, 55, 127
1, 131751, Note_off_c, 4, 76, 127
1, 131752, Note_on_c, 5, 77, 127
1, 131752, Note_on_c, 4, 52, 127
1, 131882, Note_off_c, 5, 77, 127
1, 131883, Note_on_c, 7, 79, 127
1, 132013, Note_off_c, 7, 79, 127
1, 132013, Note_off_c, 4, 52, 127
1, 132013, Note_off_c, 2, 74, 127
1, 132014, Note_on_c, 10, 81, 127
1, 132014, Note_on_c, 1, 73, 127
1, 132014, Note_on_c, 10, 57, 127
1, 132274, Note_off_c, 10, 57, 127
1, 132274, Note_off_c, 10, 81, 127
1, 132275, Note_on_c, 7, 79, 127
1, 132275, Note_on_c, 10, 45, 127
1, 132535, Note_off_c, 10, 45, 127
1, 132535, Note_off_c, 7, 79, 127
1, 132535, Note_off_c, 1, 73, 127
1, 132536, Note_on_c, 5, 77, 127
1, 132536, Note_on_c, 2, 74, 127
1, 132536, Note_on_c, 2, 50, 127
1, 132796, Note_off_c, 2, 50, 127
1, 132796, Note_off_c, 5, 77, 127
1, 132797, Note_on_c, 10, 69, 127
1, 132797, Note_on_c, 0, 48, 127
1, 133053, Note_off_c, 2, 74, 127
1, 133057, Note_off_c, 0, 48, 127
1, 133057, Note_off_c, 10, 69, 127
1, 133058, Note_on_c, 2, 74, 127
1, 133058, Note_on_c, 11, 46, 127
1, 133318, Note_off_c, 11, 46, 127
1, 133319, Note_on_c, 2, 62, 127
1, 133319, Note_on_c, 10, 45, 127
1, 133579, Note_off_c, 10, 45, 127
1, 133579, Note_off_c, 2, 62, 127
1, 133580, Note_on_c, 4, 64, 127
1, 133580, Note_on_c, 7, 43, 127
1, 133840, Note_off_c, 7, 43, 127
1, 133840, Note_off_c, 4, 64, 127
1, 133841, Note_on_c, 5, 65, 127
1, 133841, Note_on_c, 4, 40, 127
1, 133971, Note_off_c, 5, 65, 127
1, 133972, Note_on_c, 7, 67, 127
1, 134102, Note_off_c, 7, 67, 127
1, 134102, Note_off_c, 4, 40, 127
1, 134102, Note_off_c, 2, 74, 127
1, 134103, Note_on_c, 1, 73, 127
1, 134103, Note_on_c, 10, 69, 127
1, 134103, Note_on_c, 10, 45, 127
1, 134363, Note_off_c, 10, 69, 127
1, 134364, Note_on_c, 7, 67, 127
1, 134624, Note_off_c, 7, 67, 127
1, 134624, Note_off_c, 10, 45, 127
1, 134624, Note_off_c, 1, 73, 127
1, 134625, Note_on_c, 2, 74, 127
1, 134625, Note_on_c, 5, 65, 127
1, 134625, Note_on_c, 2, 38, 127
1, 134870, Note_off_c, 5, 65, 127
1, 134886, Note_on_c, 2, 62, 127
1, 135142, Note_off_c, 2, 74, 127
1, 135146, Note_off_c, 2, 62, 127
1, 135147, Note_on_c, 5, 65, 127
1, 135346, Note_off_c, 2, 38, 127
1, 135409, Note_on_c, 5, 53, 127
1, 135409, Note_on_c, 2, 50, 127
1, 135539, Note_off_c, 2, 50, 127
1, 135540, Note_on_c, 0, 48, 127
1, 135670, Note_off_c, 0, 48, 127
1, 135670, Note_off_c, 5, 53, 127
1, 135671, Note_on_c, 7, 55, 127
1, 135671, Note_on_c, 11, 46, 127
1, 135931, Note_off_c, 11, 46, 127
1, 135931, Note_off_c, 7, 55, 127
1, 135932, Note_on_c, 10, 57, 127
1, 135932, Note_on_c, 7, 43, 127
1, 136062, Note_off_c, 10, 57, 127
1, 136063, Note_on_c, 11, 58, 127
1, 136193, Note_off_c, 11, 58, 127
1, 136193, Note_off_c, 7, 43, 127
1, 136193, Note_off_c, 5, 65, 127
1, 136194, Note_on_c, 4, 64, 127
1, 136194, Note_on_c, 0, 60, 127
1, 136194, Note_on_c, 0, 48, 127
1, 136454, Note_off_c, 0, 48, 127
1, 136454, Note_off_c, 0, 60, 127
1, 136455, Note_on_c, 11, 58, 127
1, 136455, Note_on_c, 0, 36, 127
1, 136715, Note_off_c, 0, 36, 127
1, 136715, Note_off_c, 11, 58, 127
1, 136715, Note_off_c, 4, 64, 127
1, 136716, Note_on_c, 5, 65, 127
1, 136716, Note_on_c, 10, 57, 127
1, 136716, Note_on_c, 5, 41, 127
1, 136976, Note_off_c, 5, 41, 127
1, 136976, Note_off_c, 10, 57, 127
1, 136977, Note_on_c, 5, 53, 127
1, 136977, Note_on_c, 7, 43, 127
1, 137233, Note_off_c, 5, 65, 127
1, 137237, Note_off_c, 7, 43, 127
1, 137237, Note_off_c, 5, 53, 127
1, 137238, Note_on_c, 5, 65, 127
1, 137238, Note_on_c, 10, 45, 127
1, 137497, Note_off_c, 5, 65, 127
1, 137498, Note_off_c, 10, 45, 127
1, 137499, Note_on_c, 5, 65, 127
1, 137499, Note_on_c, 5, 41, 127
1, 137759, Note_off_c, 5, 41, 127
1, 137760, Note_on_c, 7, 67, 127
1, 137760, Note_on_c, 11, 46, 127
1, 138020, Note_off_c, 11, 46, 127
1, 138020, Note_off_c, 7, 67, 127
1, 138021, Note_on_c, 10, 69, 127
1, 138021, Note_on_c, 7, 43, 127
1, 138151, Note_off_c, 10, 69, 127
1, 138152, Note_on_c, 11, 70, 127
1, 138282, Note_off_c, 11, 70, 127
1, 138282, Note_off_c, 7, 43, 127
1, 138282, Note_off_c, 5, 65, 127
1, 138283, Note_on_c, 0, 72, 127
1, 138283, Note_on_c, 4, 64, 127
1, 138283, Note_on_c, 0, 48, 127
1, 138543, Note_off_c, 0, 48, 127
1, 138543, Note_off_c, 0, 72, 127
1, 138544, Note_on_c, 11, 70, 127
1, 138544, Note_on_c, 0, 36, 127
1, 138804, Note_off_c, 0, 36, 127
1, 138804, Note_off_c, 11, 70, 127
1, 138804, Note_off_c, 4, 64, 127
1, 138805, Note_on_c, 10, 69, 127
1, 138805, Note_on_c, 5, 65, 127
1, 138805, Note_on_c, 5, 41, 127
1, 139064, Note_off_c, 5, 65, 127
1, 139065, Note_off_c, 10, 69, 127
1, 139066, Note_on_c, 5, 65, 127
1, 139328, Note_on_c, 5, 77, 127
1, 139459, Note_off_c, 5, 41, 127
1, 139584, Note_off_c, 5, 65, 127
1, 139587, Note_off_c, 5, 77, 127
1, 139590, Note_on_c, 5, 77, 127
1, 139590, Note_on_c, 10, 57, 127
1, 139850, Note_off_c, 10, 57, 127
1, 139851, Note_on_c, 7, 79, 127
1, 139851, Note_on_c, 11, 58, 127
1, 140111, Note_off_c, 11, 58, 127
1, 140111, Note_off_c, 7, 79, 127
1, 140112, Note_on_c, 10, 81, 127
1, 140112, Note_on_c, 7, 55, 127
1, 140242, Note_off_c, 10, 81, 127
1, 140243, Note_on_c, 11, 82, 127
1, 140373, Note_off_c, 11, 82, 127
1, 140373, Note_off_c, 7, 55, 127
1, 140373, Note_off_c, 5, 77, 127
1, 140374, Note_on_c, 0, 84, 127
1, 140374, Note_on_c, 3, 75, 127
1, 140374, Note_on_c, 0, 60, 127
1, 140634, Note_off_c, 0, 60, 127
1, 140634, Note_off_c, 0, 84, 127
1, 140635, Note_on_c, 11, 82, 127
1, 140635, Note_on_c, 0, 48, 127
1, 140895, Note_off_c, 0, 48, 127
1, 140895, Note_off_c, 11, 82, 127
1, 140896, Note_on_c, 10, 81, 127
1, 140896, Note_on_c, 5, 53, 127
1, 141156, Note_off_c, 5, 53, 127
1, 141156, Note_off_c, 10, 81, 127
1, 141157, Note_on_c, 5, 77, 127
1, 141157, Note_on_c, 5, 65, 127
1, 141402, Note_off_c, 5, 77, 127
1, 141417, Note_off_c, 5, 65, 127
1, 141417, Note_off_c, 3, 75, 127
1, 141418, Note_on_c, 11, 82, 127
1, 141418, Note_on_c, 2, 74, 127
1, 141418, Note_on_c, 7, 67, 127
1, 141678, Note_off_c, 7, 67, 127
1, 141678, Note_off_c, 2, 74, 127
1, 141679, Note_on_c, 11, 70, 127
1, 141679, Note_on_c, 2, 62, 127
1, 141939, Note_off_c, 2, 62, 127
1, 141939, Note_off_c, 11, 70, 127
1, 141940, Note_on_c, 0, 72, 127
1, 141940, Note_on_c, 3, 63, 127
1, 142200, Note_off_c, 3, 63, 127
1, 142200, Note_off_c, 0, 72, 127
1, 142201, Note_on_c, 2, 74, 127
1, 142201, Note_on_c, 0, 60, 127
1, 142331, Note_off_c, 2, 74, 127
1, 142332, Note_on_c, 3, 75, 127
1, 142462, Note_off_c, 3, 75, 127
1, 142462, Note_off_c, 0, 60, 127
1, 142462, Note_off_c, 11, 82, 127
1, 142463, Note_on_c, 10, 81, 127
1, 142463, Note_on_c, 5, 77, 127
1, 142463, Note_on_c, 5, 65, 127
1, 142723, Note_off_c, 5, 65, 127
1, 142723, Note_off_c, 5, 77, 127
1, 142724, Note_on_c, 3, 75, 127
1, 142724, Note_on_c, 5, 53, 127
1, 142984, Note_off_c, 5, 53, 127
1, 142984, Note_off_c, 3, 75, 127
1, 142985, Note_on_c, 2, 74, 127
1, 142985, Note_on_c, 11, 58, 127
1, 143245, Note_off_c, 11, 58, 127
1, 143245, Note_off_c, 10, 81, 127
1, 143246, Note_on_c, 7, 79, 127
1, 143246, Note_on_c, 10, 57, 127
1, 143376, Note_off_c, 10, 57, 127
1, 143377, Note_on_c, 7, 55, 127
1, 143507, Note_off_c, 7, 55, 127
1, 143507, Note_off_c, 2, 74, 127
1, 143508, Note_on_c, 0, 72, 127
1, 143508, Note_on_c, 10, 57, 127
1, 143768, Note_off_c, 10, 57, 127
1, 143768, Note_off_c, 7, 79, 127
1, 143769, Note_on_c, 5, 77, 127
1, 143769, Note_on_c, 5, 53, 127
1, 144029, Note_off_c, 5, 53, 127
1, 144029, Note_off_c, 0, 72, 127
1, 144030, Note_on_c, 11, 70, 127
1, 144030, Note_on_c, 7, 55, 127
1, 144290, Note_off_c, 7, 55, 127
1, 144290, Note_off_c, 11, 70, 127
1, 144291, Note_on_c, 10, 69, 127
1, 144291, Note_on_c, 10, 57, 127
1, 144421, Note_off_c, 10, 57, 127
1, 144422, Note_on_c, 11, 58, 127
1, 144552, Note_off_c, 11, 58, 127
1, 144552, Note_off_c, 10, 69, 127
1, 144552, Note_off_c, 5, 77, 127
1, 144553, Note_on_c, 4, 76, 127
1, 144553, Note_on_c, 7, 67, 127
1, 144553, Note_on_c, 0, 60, 127
1, 144813, Note_off_c, 0, 60, 127
1, 144814, Note_on_c, 11, 58, 127
1, 145074, Note_off_c, 11, 58, 127
1, 145074, Note_off_c, 7, 67, 127
1, 145075, Note_on_c, 5, 65, 127
1, 145075, Note_on_c, 10, 57, 127
1, 145335, Note_off_c, 10, 57, 127
1, 145336, Note_on_c, 5, 53, 127
1, 145596, Note_off_c, 5, 53, 127
1, 145596, Note_off_c, 4, 76, 127
1, 145597, Note_on_c, 2, 74, 127
1, 145597, Note_on_c, 11, 58, 127
1, 145857, Note_off_c, 11, 58, 127
1, 145858, Note_on_c, 10, 57, 127
1, 146118, Note_off_c, 10, 57, 127
1, 146118, Note_off_c, 5, 65, 127
1, 146119, Note_on_c, 4, 64, 127
1, 146119, Note_on_c, 8, 56, 127
1, 146379, Note_off_c, 8, 56, 127
1, 146380, Note_on_c, 4, 52, 127
1, 146640, Note_off_c, 4, 52, 127
1, 146640, Note_off_c, 2, 74, 127
1, 146641, Note_on_c, 0, 72, 127
1, 146641, Note_on_c, 10, 57, 127
1, 146903, Note_on_c, 10, 45, 127
1, 147163, Note_off_c, 10, 45, 127
1, 147163, Note_off_c, 0, 72, 127
1, 147163, Note_off_c, 4, 64, 127
1, 147164, Note_on_c, 12, 71, 127
1, 147164, Note_on_c, 2, 62, 127
1, 147164, Note_on_c, 12, 47, 127
1, 147424, Note_off_c, 12, 47, 127
1, 147424, Note_off_c, 2, 62, 127
1, 147425, Note_on_c, 4, 64, 127
1, 147425, Note_on_c, 0, 48, 127
1, 147555, Note_off_c, 0, 48, 127
1, 147555, Note_off_c, 4, 64, 127
1, 147556, Note_on_c, 5, 65, 127
1, 147556, Note_on_c, 2, 50, 127
1, 147686, Note_off_c, 2, 50, 127
1, 147686, Note_off_c, 5, 65, 127
1, 147686, Note_off_c, 10, 57, 127
1, 147687, Note_on_c, 7, 67, 127
1, 147687, Note_on_c, 7, 55, 127
1, 147687, Note_on_c, 4, 52, 127
1, 147947, Note_off_c, 4, 52, 127
1, 147947, Note_off_c, 7, 67, 127
1, 147948, Note_on_c, 5, 65, 127
1, 147948, Note_on_c, 2, 50, 127
1, 148208, Note_off_c, 2, 50, 127
1, 148208, Note_off_c, 5, 65, 127
1, 148208, Note_off_c, 12, 71, 127
1, 148209, Note_on_c, 10, 69, 127
1, 148209, Note_on_c, 4, 64, 127
1, 148209, Note_on_c, 1, 49, 127
1, 148469, Note_off_c, 1, 49, 127
1, 148469, Note_off_c, 4, 64, 127
1, 148470, Note_on_c, 1, 61, 127
1, 148470, Note_on_c, 10, 45, 127
1, 148730, Note_off_c, 10, 45, 127
1, 148730, Note_off_c, 1, 61, 127
1, 148730, Note_off_c, 7, 55, 127
1, 148731, Note_on_c, 2, 62, 127
1, 148731, Note_on_c, 5, 53, 127
1, 148731, Note_on_c, 2, 50, 127
1, 148944, Note_off_c, 10, 69, 127
1, 148992, Note_off_c, 2, 50, 127
1, 148993, Note_on_c, 11, 70, 127
1, 148993, Note_on_c, 0, 48, 127
1, 149123, Note_off_c, 11, 70, 127
1, 149124, Note_on_c, 10, 69, 127
1, 149254, Note_off_c, 10, 69, 127
1, 149254, Note_off_c, 0, 48, 127
1, 149255, Note_on_c, 7, 67, 127
1, 149255, Note_on_c, 11, 46, 127
1, 149515, Note_off_c, 11, 46, 127
1, 149515, Note_off_c, 2, 62, 127
1, 149516, Note_on_c, 4, 64, 127
1, 149516, Note_on_c, 7, 43, 127
1, 149646, Note_off_c, 4, 64, 127
1, 149647, Note_on_c, 2, 62, 127
1, 149777, Note_off_c, 2, 62, 127
1, 149777, Note_off_c, 7, 43, 127
1, 149777, Note_off_c, 5, 53, 127
1, 149778, Note_on_c, 0, 60, 127
1, 149778, Note_on_c, 4, 52, 127
1, 149778, Note_on_c, 0, 48, 127
1, 149991, Note_off_c, 7, 67, 127
1, 150039, Note_off_c, 0, 48, 127
1, 150040, Note_on_c, 10, 69, 127
1, 150040, Note_on_c, 11, 46, 127
1, 150170, Note_off_c, 10, 69, 127
1, 150171, Note_on_c, 7, 67, 127
1, 150301, Note_off_c, 7, 67, 127
1, 150301, Note_off_c, 11, 46, 127
1, 150302, Note_on_c, 5, 65, 127
1, 150302, Note_on_c, 10, 45, 127
1, 150562, Note_off_c, 10, 45, 127
1, 150562, Note_off_c, 0, 60, 127
1, 150563, Note_on_c, 2, 62, 127
1, 150563, Note_on_c, 5, 41, 127
1, 150693, Note_off_c, 2, 62, 127
1, 150694, Note_on_c, 0, 60, 127
1, 150824, Note_off_c, 0, 60, 127
1, 150824, Note_off_c, 5, 41, 127
1, 150824, Note_off_c, 4, 52, 127
1, 150825, Note_on_c, 11, 58, 127
1, 150825, Note_on_c, 2, 50, 127
1, 150825, Note_on_c, 11, 46, 127
1, 151038, Note_off_c, 5, 65, 127
1, 151086, Note_off_c, 11, 46, 127
1, 151087, Note_on_c, 7, 67, 127
1, 151087, Note_on_c, 10, 45, 127
1, 151217, Note_off_c, 7, 67, 127
1, 151218, Note_on_c, 5, 65, 127
1, 151348, Note_off_c, 5, 65, 127
1, 151348, Note_off_c, 10, 45, 127
1, 151349, Note_on_c, 4, 64, 127
1, 151349, Note_on_c, 7, 43, 127
1, 151609, Note_off_c, 7, 43, 127
1, 151609, Note_off_c, 4, 64, 127
1, 151610, Note_on_c, 5, 65, 127
1, 151610, Note_on_c, 4, 40, 127
1, 151740, Note_off_c, 5, 65, 127
1, 151741, Note_on_c, 7, 67, 127
1, 151871, Note_off_c, 7, 67, 127
1, 151871, Note_off_c, 4, 40, 127
1, 151871, Note_off_c, 2, 50, 127
1, 151871, Note_off_c, 11, 58, 127
1, 151872, Note_on_c, 10, 69, 127
1, 151872, Note_on_c, 10, 57, 127
1, 151872, Note_on_c, 1, 49, 127
1, 151872, Note_on_c, 10, 45, 127
1, 152132, Note_off_c, 10, 69, 127
1, 152133, Note_on_c, 7, 67, 127
1, 152393, Note_off_c, 7, 67, 127
1, 152393, Note_off_c, 10, 45, 127
1, 152393, Note_off_c, 1, 49, 127
1, 152393, Note_off_c, 10, 57, 127
1, 152394, Note_on_c, 5, 65, 127
1, 152394, Note_on_c, 10, 57, 127
1, 152394, Note_on_c, 2, 50, 127
1, 152394, Note_on_c, 2, 38, 127
1, 152654, Note_off_c, 5, 65, 127
1, 152655, Note_on_c, 2, 62, 127
1, 152911, Note_off_c, 2, 38, 127
1, 152911, Note_off_c, 2, 50, 127
1, 152911, Note_off_c, 10, 57, 127
1, 152916, Note_on_c, 2, 74, 127
1, 153047, Note_on_c, 0, 60, 127
1, 153172, Note_off_c, 2, 62, 127
1, 153176, Note_off_c, 0, 60, 127
1, 153177, Note_on_c, 2, 62, 127
1, 153177, Note_on_c, 11, 58, 127
1, 153307, Note_off_c, 11, 58, 127
1, 153308, Note_on_c, 10, 57, 127
1, 153438, Note_off_c, 10, 57, 127
1, 153438, Note_off_c, 2, 62, 127
1, 153439, Note_on_c, 4, 64, 127
1, 153439, Note_on_c, 7, 55, 127
1, 153699, Note_off_c, 7, 55, 127
1, 153699, Note_off_c, 4, 64, 127
1, 153700, Note_on_c, 5, 65, 127
1, 153700, Note_on_c, 5, 53, 127
1, 153830, Note_off_c, 5, 53, 127
1, 153830, Note_off_c, 5, 65, 127
1, 153831, Note_on_c, 7, 67, 127
1, 153831, Note_on_c, 4, 52, 127
1, 153961, Note_off_c, 4, 52, 127
1, 153961, Note_off_c, 7, 67, 127
1, 153961, Note_off_c, 2, 74, 127
1, 153962, Note_on_c, 1, 73, 127
1, 153962, Note_on_c, 10, 69, 127
1, 153962, Note_on_c, 10, 57, 127
1, 154222, Note_off_c, 10, 57, 127
1, 154222, Note_off_c, 10, 69, 127
1, 154223, Note_on_c, 7, 67, 127
1, 154223, Note_on_c, 10, 45, 127
1, 154483, Note_off_c, 10, 45, 127
1, 154483, Note_off_c, 7, 67, 127
1, 154483, Note_off_c, 1, 73, 127
1, 154484, Note_on_c, 2, 74, 127
1, 154484, Note_on_c, 5, 65, 127
1, 154484, Note_on_c, 2, 50, 127
1, 154744, Note_off_c, 5, 65, 127
1, 154745, Note_on_c, 2, 62, 127
1, 155001, Note_off_c, 2, 50, 127
1, 155001, Note_off_c, 2, 74, 127
1, 155005, Note_off_c, 2, 62, 127
1, 155006, Note_on_c, 2, 74, 127
1, 155137, Note_on_c, 0, 84, 127
1, 155267, Note_off_c, 0, 84, 127
1, 155268, Note_on_c, 11, 82, 127
1, 155268, Note_on_c, 2, 62, 127
1, 155398, Note_off_c, 11, 82, 127
1, 155399, Note_on_c, 10, 81, 127
1, 155529, Note_off_c, 10, 81, 127
1, 155529, Note_off_c, 2, 62, 127
1, 155530, Note_on_c, 7, 79, 127
1, 155530, Note_on_c, 4, 64, 127
1, 155790, Note_off_c, 4, 64, 127
1, 155790, Note_off_c, 7, 79, 127
1, 155791, Note_on_c, 5, 77, 127
1, 155791, Note_on_c, 5, 65, 127
1, 155921, Note_off_c, 5, 65, 127
1, 155921, Note_off_c, 5, 77, 127
1, 155922, Note_on_c, 4, 76, 127
1, 155922, Note_on_c, 7, 67, 127
1, 156052, Note_off_c, 7, 67, 127
1, 156052, Note_off_c, 4, 76, 127
1, 156052, Note_off_c, 2, 74, 127
1, 156053, Note_on_c, 10, 81, 127
1, 156053, Note_on_c, 1, 73, 127
1, 156053, Note_on_c, 10, 69, 127
1, 156313, Note_off_c, 10, 69, 127
1, 156313, Note_off_c, 10, 81, 127
1, 156314, Note_on_c, 10, 69, 127
1, 156314, Note_on_c, 7, 67, 127
1, 156570, Note_off_c, 1, 73, 127
1, 156574, Note_off_c, 7, 67, 127
1, 156574, Note_off_c, 10, 69, 127
1, 156575, Note_on_c, 2, 74, 127
1, 156575, Note_on_c, 5, 65, 127
1, 156835, Note_off_c, 5, 65, 127
1, 156836, Note_on_c, 2, 62, 127
1, 156967, Note_on_c, 4, 76, 127
1, 157092, Note_off_c, 2, 74, 127
1, 157096, Note_off_c, 4, 76, 127
1, 157096, Note_off_c, 2, 62, 127
1, 157097, Note_on_c, 5, 77, 127
1, 157097, Note_on_c, 2, 74, 127
1, 157097, Note_on_c, 10, 69, 127
1, 157228, Note_on_c, 4, 64, 127
1, 157358, Note_off_c, 4, 64, 127
1, 157359, Note_on_c, 2, 62, 127
1, 157489, Note_off_c, 2, 62, 127
1, 157490, Note_on_c, 0, 60, 127
1, 157615, Note_off_c, 10, 69, 127
1, 157619, Note_off_c, 0, 60, 127
1, 157620, Note_on_c, 7, 67, 127
1, 157620, Note_on_c, 11, 58, 127
1, 157880, Note_off_c, 11, 58, 127
1, 157881, Note_on_c, 10, 57, 127
1, 158011, Note_off_c, 10, 57, 127
1, 158012, Note_on_c, 7, 55, 127
1, 158142, Note_off_c, 7, 55, 127
1, 158142, Note_off_c, 2, 74, 127
1, 158142, Note_off_c, 5, 77, 127
1, 158143, Note_on_c, 4, 76, 127
1, 158143, Note_on_c, 0, 72, 127
1, 158143, Note_on_c, 0, 60, 127
1, 158403, Note_off_c, 0, 60, 127
1, 158404, Note_on_c, 11, 58, 127
1, 158664, Note_off_c, 11, 58, 127
1, 158664, Note_off_c, 7, 67, 127
1, 158665, Note_on_c, 5, 65, 127
1, 158665, Note_on_c, 10, 57, 127
1, 158925, Note_off_c, 10, 57, 127
1, 158926, Note_on_c, 7, 55, 127
1, 159056, Note_off_c, 7, 55, 127
1, 159057, Note_on_c, 5, 53, 127
1, 159180, Note_off_c, 5, 53, 127
1, 159187, Note_off_c, 0, 72, 127
1, 159187, Note_off_c, 4, 76, 127
1, 159188, Note_on_c, 2, 74, 127
1, 159188, Note_on_c, 11, 70, 127
1, 159319, Note_on_c, 0, 60, 127
1, 159449, Note_off_c, 0, 60, 127
1, 159450, Note_on_c, 11, 58, 127
1, 159580, Note_off_c, 11, 58, 127
1, 159581, Note_on_c, 10, 57, 127
1, 159711, Note_off_c, 10, 57, 127
1, 159711, Note_off_c, 5, 65, 127
1, 159712, Note_on_c, 4, 64, 127
1, 159712, Note_on_c, 7, 55, 127
1, 159972, Note_off_c, 7, 55, 127
1, 159973, Note_on_c, 5, 53, 127
1, 160103, Note_off_c, 5, 53, 127
1, 160104, Note_on_c, 4, 52, 127
1, 160234, Note_off_c, 4, 52, 127
1, 160234, Note_off_c, 11, 70, 127
1, 160234, Note_off_c, 2, 74, 127
1, 160235, Note_on_c, 0, 72, 127
1, 160235, Note_on_c, 10, 69, 127
1, 160235, Note_on_c, 10, 57, 127
1, 160495, Note_off_c, 10, 57, 127
1, 160496, Note_on_c, 7, 55, 127
1, 160756, Note_off_c, 7, 55, 127
1, 160756, Note_off_c, 4, 64, 127
1, 160757, Note_on_c, 2, 62, 127
1, 160757, Note_on_c, 6, 54, 127
1, 161017, Note_off_c, 6, 54, 127
1, 161018, Note_on_c, 4, 52, 127
1, 161148, Note_off_c, 4, 52, 127
1, 161149, Note_on_c, 2, 50, 127
1, 161279, Note_off_c, 2, 50, 127
1, 161279, Note_off_c, 10, 69, 127
1, 161279, Note_off_c, 0, 72, 127
1, 161280, Note_on_c, 7, 67, 127
1, 161280, Note_on_c, 11, 70, 127
1, 161280, Note_on_c, 7, 55, 127
1, 161410, Note_off_c, 7, 55, 127
1, 161411, Note_on_c, 5, 53, 127
1, 161541, Note_off_c, 5, 53, 127
1, 161542, Note_on_c, 3, 51, 127
1, 161672, Note_off_c, 3, 51, 127
1, 161673, Note_on_c, 2, 50, 127
1, 161803, Note_off_c, 2, 50, 127
1, 161803, Note_off_c, 11, 70, 127
1, 161803, Note_off_c, 7, 67, 127
1, 161803, Note_off_c, 2, 62, 127
1, 161804, Note_on_c, 7, 67, 127
1, 161804, Note_on_c, 10, 69, 127
1, 161804, Note_on_c, 3, 63, 127
1, 161804, Note_on_c, 0, 48, 127
1, 162064, Note_off_c, 0, 48, 127
1, 162065, Note_on_c, 11, 46, 127
1, 162195, Note_off_c, 11, 46, 127
1, 162196, Note_on_c, 10, 45, 127
1, 162326, Note_off_c, 10, 45, 127
1, 162326, Note_off_c, 3, 63, 127
1, 162326, Note_off_c, 10, 69, 127
1, 162326, Note_off_c, 7, 67, 127
1, 162327, Note_on_c, 6, 66, 127
1, 162327, Note_on_c, 2, 62, 127
1, 162327, Note_on_c, 2, 50, 127
1, 162587, Note_off_c, 2, 50, 127
1, 162587, Note_off_c, 2, 62, 127
1, 162588, Note_on_c, 0, 60, 127
1, 162588, Note_on_c, 2, 38, 127
1, 162848, Note_off_c, 2, 38, 127
1, 162848, Note_off_c, 0, 60, 127
1, 162848, Note_off_c, 6, 66, 127
1, 162849, Note_on_c, 7, 67, 127
1, 162849, Note_on_c, 11, 58, 127
1, 162849, Note_on_c, 7, 43, 127
1, 163109, Note_off_c, 7, 67, 127
1, 163110, Note_on_c, 2, 62, 127
1, 163366, Note_off_c, 7, 43, 127
1, 163366, Note_off_c, 11, 58, 127
1, 163370, Note_off_c, 2, 62, 127
1, 163371, Note_on_c, 7, 67, 127
1, 163502, Note_on_c, 5, 53, 127
1, 163632, Note_off_c, 5, 53, 127
1, 163633, Note_on_c, 7, 55, 127
1, 163633, Note_on_c, 3, 51, 127
1, 163763, Note_off_c, 3, 51, 127
1, 163764, Note_on_c, 2, 50, 127
1, 163894, Note_off_c, 2, 50, 127
1, 163894, Note_off_c, 7, 55, 127
1, 163895, Note_on_c, 10, 57, 127
1, 163895, Note_on_c, 0, 48, 127
1, 164155, Note_off_c, 0, 48, 127
1, 164155, Note_off_c, 10, 57, 127
1, 164156, Note_on_c, 11, 58, 127
1, 164156, Note_on_c, 11, 46, 127
1, 164286, Note_off_c, 11, 46, 127
1, 164286, Note_off_c, 11, 58, 127
1, 164287, Note_on_c, 0, 60, 127
1, 164287, Note_on_c, 10, 45, 127
1, 164417, Note_off_c, 10, 45, 127
1, 164417, Note_off_c, 0, 60, 127
1, 164417, Note_off_c, 7, 67, 127
1, 164418, Note_on_c, 6, 66, 127
1, 164418, Note_on_c, 2, 62, 127
1, 164418, Note_on_c, 2, 50, 127
1, 164678, Note_off_c, 2, 50, 127
1, 164678, Note_off_c, 2, 62, 127
1, 164679, Note_on_c, 0, 60, 127
1, 164679, Note_on_c, 2, 38, 127
1, 164939, Note_off_c, 2, 38, 127
1, 164939, Note_off_c, 0, 60, 127
1, 164939, Note_off_c, 6, 66, 127
1, 164940, Note_on_c, 7, 67, 127
1, 164940, Note_on_c, 11, 58, 127
1, 164940, Note_on_c, 7, 43, 127
1, 165200, Note_off_c, 11, 58, 127
1, 165201, Note_on_c, 7, 55, 127
1, 165457, Note_off_c, 7, 67, 127
1, 165460, Note_off_c, 7, 55, 127
1, 165461, Note_off_c, 7, 43, 127
1, 165462, Note_on_c, 7, 55, 127
1, 165593, Note_on_c, 5, 77, 127
1, 165723, Note_off_c, 5, 77, 127
1, 165724, Note_on_c, 3, 75, 127
1, 165724, Note_on_c, 11, 58, 127
1, 165854, Note_off_c, 3, 75, 127
1, 165855, Note_on_c, 2, 74, 127
1, 165985, Note_off_c, 2, 74, 127
1, 165985, Note_off_c, 11, 58, 127
1, 165986, Note_on_c, 0, 72, 127
1, 165986, Note_on_c, 10, 57, 127
1, 166246, Note_off_c, 10, 57, 127
1, 166246, Note_off_c, 0, 72, 127
1, 166247, Note_on_c, 11, 70, 127
1, 166247, Note_on_c, 11, 58, 127
1, 166377, Note_off_c, 11, 58, 127
1, 166377, Note_off_c, 11, 70, 127
1, 166378, Note_on_c, 10, 69, 127
1, 166378, Note_on_c, 0, 60, 127
1, 166508, Note_off_c, 0, 60, 127
1, 166508, Note_off_c, 10, 69, 127
1, 166508, Note_off_c, 7, 55, 127
1, 166509, Note_on_c, 2, 62, 127
1, 166509, Note_on_c, 5, 53, 127
1, 166640, Note_on_c, 3, 75, 127
1, 166768, Note_off_c, 5, 53, 127
1, 166769, Note_off_c, 3, 75, 127
1, 166769, Note_off_c, 2, 62, 127
1, 166770, Note_on_c, 2, 74, 127
1, 166770, Note_on_c, 5, 53, 127
1, 166900, Note_off_c, 2, 74, 127
1, 166901, Note_on_c, 0, 72, 127
1, 167031, Note_off_c, 0, 72, 127
1, 167032, Note_on_c, 11, 70, 127
1, 167032, Note_on_c, 7, 55, 127
1, 167292, Note_off_c, 7, 55, 127
1, 167292, Note_off_c, 11, 70, 127
1, 167293, Note_on_c, 10, 69, 127
1, 167293, Note_on_c, 10, 57, 127
1, 167423, Note_off_c, 10, 57, 127
1, 167423, Note_off_c, 10, 69, 127
1, 167424, Note_on_c, 7, 67, 127
1, 167424, Note_on_c, 11, 58, 127
1, 167554, Note_off_c, 11, 58, 127
1, 167554, Note_off_c, 7, 67, 127
1, 167554, Note_off_c, 5, 53, 127
1, 167555, Note_on_c, 0, 60, 127
1, 167555, Note_on_c, 3, 51, 127
1, 167686, Note_on_c, 5, 77, 127
1, 167816, Note_off_c, 5, 77, 127
1, 167816, Note_off_c, 0, 60, 127
1, 167817, Note_on_c, 3, 75, 127
1, 167817, Note_on_c, 7, 55, 127
1, 167947, Note_off_c, 3, 75, 127
1, 167948, Note_on_c, 2, 74, 127
1, 168078, Note_off_c, 2, 74, 127
1, 168078, Note_off_c, 7, 55, 127
1, 168079, Note_on_c, 0, 72, 127
1, 168079, Note_on_c, 10, 57, 127
1, 168339, Note_off_c, 10, 57, 127
1, 168339, Note_off_c, 0, 72, 127
1, 168340, Note_on_c, 11, 70, 127
1, 168340, Note_on_c, 5, 53, 127
1, 168470, Note_off_c, 11, 70, 127
1, 168471, Note_on_c, 10, 69, 127
1, 168601, Note_off_c, 10, 69, 127
1, 168601, Note_off_c, 5, 53, 127
1, 168601, Note_off_c, 3, 51, 127
1, 168602, Note_on_c, 11, 58, 127
1, 168602, Note_on_c, 2, 50, 127
1, 168733, Note_on_c, 5, 77, 127
1, 168863, Note_off_c, 5, 77, 127
1, 168863, Note_off_c, 2, 50, 127
1, 168864, Note_on_c, 7, 79, 127
1, 168864, Note_on_c, 11, 46, 127
1, 168994, Note_off_c, 7, 79, 127
1, 168995, Note_on_c, 8, 80, 127
1, 169125, Note_off_c, 8, 80, 127
1, 169125, Note_off_c, 11, 46, 127
1, 169126, Note_on_c, 7, 79, 127
1, 169126, Note_on_c, 3, 51, 127
1, 169386, Note_off_c, 3, 51, 127
1, 169386, Note_off_c, 7, 79, 127
1, 169386, Note_off_c, 11, 58, 127
1, 169387, Note_on_c, 10, 81, 127
1, 169387, Note_on_c, 0, 60, 127
1, 169387, Note_on_c, 0, 48, 127
1, 169517, Note_off_c, 10, 81, 127
1, 169518, Note_on_c, 11, 82, 127
1, 169648, Note_off_c, 11, 82, 127
1, 169648, Note_off_c, 0, 48, 127
1, 169649, Note_on_c, 11, 82, 127
1, 169649, Note_on_c, 5, 53, 127
1, 169735, Note_off_c, 11, 82, 127
1, 169736, Note_on_c, 10, 81, 127
1, 169778, Note_off_c, 10, 81, 127
1, 169779, Note_on_c, 11, 82, 127
1, 169821, Note_off_c, 11, 82, 127
1, 169822, Note_on_c, 10, 81, 127
1, 169864, Note_off_c, 10, 81, 127
1, 169865, Note_on_c, 11, 82, 127
1, 169907, Note_off_c, 11, 82, 127
1, 169907, Note_off_c, 0, 60, 127
1, 169908, Note_on_c, 10, 81, 127
1, 169908, Note_on_c, 3, 63, 127
1, 170038, Note_off_c, 10, 81, 127
1, 170039, Note_on_c, 11, 82, 127
1, 170169, Note_off_c, 11, 82, 127
1, 170169, Note_off_c, 3, 63, 127
1, 170169, Note_off_c, 5, 53, 127
1, 170170, Note_on_c, 11, 82, 127
1, 170170, Note_on_c, 2, 62, 127
1, 170170, Note_on_c, 11, 58, 127
1, 170415, Note_off_c, 11, 82, 127
1, 170431, Note_on_c, 2, 74, 127
1, 170676, Note_off_c, 2, 74, 127
1, 170687, Note_off_c, 11, 58, 127
1, 170687, Note_off_c, 2, 62, 127
1, 170692, Note_on_c, 7, 79, 127
1, 170823, Note_on_c, 5, 65, 127
1, 170953, Note_off_c, 5, 65, 127
1, 170954, Note_on_c, 7, 67, 127
1, 170954, Note_on_c, 3, 63, 127
1, 171084, Note_off_c, 3, 63, 127
1, 171085, Note_on_c, 2, 62, 127
1, 171215, Note_off_c, 2, 62, 127
1, 171215, Note_off_c, 7, 67, 127
1, 171216, Note_on_c, 10, 69, 127
1, 171216, Note_on_c, 0, 60, 127
1, 171476, Note_off_c, 0, 60, 127
1, 171476, Note_off_c, 10, 69, 127
1, 171477, Note_on_c, 11, 70, 127
1, 171477, Note_on_c, 11, 58, 127
1, 171607, Note_off_c, 11, 58, 127
1, 171607, Note_off_c, 11, 70, 127
1, 171608, Note_on_c, 0, 72, 127
1, 171608, Note_on_c, 10, 57, 127
1, 171738, Note_off_c, 10, 57, 127
1, 171738, Note_off_c, 0, 72, 127
1, 171738, Note_off_c, 7, 79, 127
1, 171739, Note_on_c, 6, 78, 127
1, 171739, Note_on_c, 2, 74, 127
1, 171739, Note_on_c, 2, 62, 127
1, 171984, Note_off_c, 2, 62, 127
1, 171999, Note_off_c, 2, 74, 127
1, 172000, Note_on_c, 0, 72, 127
1, 172000, Note_on_c, 2, 50, 127
1, 172259, Note_off_c, 2, 50, 127
1, 172260, Note_off_c, 0, 72, 127
1, 172260, Note_off_c, 6, 78, 127
1, 172261, Note_on_c, 7, 79, 127
1, 172261, Note_on_c, 11, 70, 127
1, 172261, Note_on_c, 7, 55, 127
1, 172391, Note_off_c, 11, 70, 127
1, 172392, Note_on_c, 2, 74, 127
1, 172522, Note_off_c, 2, 74, 127
1, 172522, Note_off_c, 7, 55, 127
1, 172523, Note_on_c, 11, 70, 127
1, 172523, Note_on_c, 10, 57, 127
1, 172653, Note_off_c, 11, 70, 127
1, 172654, Note_on_c, 2, 74, 127
1, 172779, Note_off_c, 7, 79, 127
1, 172783, Note_off_c, 2, 74, 127
1, 172783, Note_off_c, 10, 57, 127
1, 172784, Note_on_c, 7, 67, 127
1, 172784, Note_on_c, 11, 58, 127
1, 172915, Note_on_c, 2, 74, 127
1, 173045, Note_off_c, 2, 74, 127
1, 173045, Note_off_c, 11, 58, 127
1, 173046, Note_on_c, 7, 79, 127
1, 173046, Note_on_c, 7, 55, 127
1, 173176, Note_off_c, 7, 79, 127
1, 173177, Note_on_c, 2, 74, 127
1, 173302, Note_off_c, 7, 67, 127
1, 173306, Note_off_c, 2, 74, 127
1, 173306, Note_off_c, 7, 55, 127
1, 173307, Note_on_c, 3, 75, 127
1, 173307, Note_on_c, 0, 60, 127
1, 173438, Note_on_c, 0, 72, 127
1, 173568, Note_off_c, 0, 72, 127
1, 173568, Note_off_c, 0, 60, 127
1, 173569, Note_on_c, 7, 67, 127
1, 173569, Note_on_c, 11, 58, 127
1, 173699, Note_off_c, 7, 67, 127
1, 173700, Note_on_c, 0, 72, 127
1, 173825, Note_off_c, 3, 75, 127
1, 173829, Note_off_c, 0, 72, 127
1, 173829, Note_off_c, 11, 58, 127
1, 173830, Note_on_c, 5, 65, 127
1, 173830, Note_on_c, 10, 57, 127
1, 173961, Note_on_c, 0, 72, 127
1, 174091, Note_off_c, 0, 72, 127
1, 174091, Note_off_c, 10, 57, 127
1, 174092, Note_on_c, 5, 77, 127
1, 174092, Note_on_c, 5, 53, 127
1, 174222, Note_off_c, 5, 77, 127
1, 174223, Note_on_c, 0, 72, 127
1, 174348, Note_off_c, 5, 65, 127
1, 174352, Note_off_c, 0, 72, 127
1, 174352, Note_off_c, 5, 53, 127
1, 174353, Note_on_c, 2, 74, 127
1, 174353, Note_on_c, 11, 58, 127
1, 174484, Note_on_c, 11, 70, 127
1, 174614, Note_off_c, 11, 70, 127
1, 174614, Note_off_c, 11, 58, 127
1, 174615, Note_on_c, 5, 65, 127
1, 174615, Note_on_c, 10, 57, 127
1, 174745, Note_off_c, 5, 65, 127
1, 174746, Note_on_c, 11, 70, 127
1, 174871, Note_off_c, 2, 74, 127
1, 174875, Note_off_c, 11, 70, 127
1, 174875, Note_off_c, 10, 57, 127
1, 174876, Note_on_c, 3, 63, 127
1, 174876, Note_on_c, 7, 55, 127
1, 175007, Note_on_c, 11, 70, 127
1, 175137, Note_off_c, 11, 70, 127
1, 175137, Note_off_c, 7, 55, 127
1, 175138, Note_on_c, 3, 75, 127
1, 175138, Note_on_c, 3, 51, 127
1, 175268, Note_off_c, 3, 75, 127
1, 175269, Note_on_c, 11, 70, 127
1, 175394, Note_off_c, 3, 63, 127
1, 175398, Note_off_c, 11, 70, 127
1, 175398, Note_off_c, 3, 51, 127
1, 175399, Note_on_c, 0, 72, 127
1, 175399, Note_on_c, 10, 57, 127
1, 175530, Note_on_c, 10, 69, 127
1, 175660, Note_off_c, 10, 69, 127
1, 175660, Note_off_c, 10, 57, 127
1, 175661, Note_on_c, 3, 63, 127
1, 175661, Note_on_c, 7, 55, 127
1, 175791, Note_off_c, 3, 63, 127
1, 175792, Note_on_c, 10, 69, 127
1, 175917, Note_off_c, 0, 72, 127
1, 175921, Note_off_c, 10, 69, 127
1, 175921, Note_off_c, 7, 55, 127
1, 175922, Note_on_c, 2, 62, 127
1, 175922, Note_on_c, 6, 54, 127
1, 176053, Note_on_c, 10, 69, 127
1, 176183, Note_off_c, 10, 69, 127
1, 176183, Note_off_c, 6, 54, 127
1, 176184, Note_on_c, 2, 74, 127
1, 176184, Note_on_c, 2, 50, 127
1, 176314, Note_off_c, 2, 74, 127
1, 176315, Note_on_c, 10, 69, 127
1, 176445, Note_off_c, 10, 69, 127
1, 176445, Note_off_c, 2, 50, 127
1, 176446, Note_on_c, 11, 70, 127
1, 176446, Note_on_c, 7, 55, 127
1, 176576, Note_off_c, 11, 70, 127
1, 176577, Note_on_c, 0, 72, 127
1, 176707, Note_off_c, 0, 72, 127
1, 176707, Note_off_c, 7, 55, 127
1, 176708, Note_on_c, 10, 69, 127
1, 176708, Note_on_c, 2, 50, 127
1, 176838, Note_off_c, 10, 69, 127
1, 176839, Note_on_c, 0, 72, 127
1, 176969, Note_off_c, 0, 72, 127
1, 176969, Note_off_c, 2, 50, 127
1, 176969, Note_off_c, 2, 62, 127
1, 176970, Note_on_c, 11, 70, 127
1, 176970, Note_on_c, 7, 55, 127
1, 177232, Note_on_c, 2, 62, 127
1, 177232, Note_on_c, 7, 43, 127
1, 177492, Note_off_c, 7, 43, 127
1, 177492, Note_off_c, 2, 62, 127
1, 177492, Note_off_c, 11, 70, 127
1, 177493, Note_on_c, 10, 69, 127
1, 177493, Note_on_c, 0, 60, 127
1, 177493, Note_on_c, 10, 45, 127
1, 177753, Note_off_c, 10, 45, 127
1, 177753, Note_off_c, 0, 60, 127
1, 177754, Note_on_c, 3, 63, 127
1, 177754, Note_on_c, 11, 46, 127
1, 177884, Note_off_c, 11, 46, 127
1, 177885, Note_on_c, 0, 48, 127
1, 178015, Note_off_c, 0, 48, 127
1, 178015, Note_off_c, 3, 63, 127
1, 178015, Note_off_c, 7, 55, 127
1, 178016, Note_on_c, 10, 57, 127
1, 178016, Note_on_c, 6, 54, 127
1, 178016, Note_on_c, 2, 50, 127
1, 178276, Note_off_c, 2, 50, 127
1, 178276, Note_off_c, 10, 57, 127
1, 178277, Note_on_c, 2, 62, 127
1, 178277, Note_on_c, 0, 48, 127
1, 178533, Note_off_c, 6, 54, 127
1, 178537, Note_off_c, 0, 48, 127
1, 178537, Note_off_c, 2, 62, 127
1, 178537, Note_off_c, 10, 69, 127
1, 178538, Note_on_c, 7, 67, 127
1, 178538, Note_on_c, 7, 55, 127
1, 178538, Note_on_c, 11, 46, 127
1, 178798, Note_off_c, 11, 46, 127
1, 178799, Note_on_c, 7, 43, 127
1, 179055, Note_off_c, 7, 67, 127
1, 179059, Note_off_c, 7, 43, 127
1, 179060, Note_on_c, 3, 51, 127
1, 179320, Note_off_c, 7, 55, 127
1, 179321, Note_on_c, 7, 55, 127
1, 179581, Note_off_c, 7, 55, 127
1, 179582, Note_on_c, 5, 53, 127
1, 179842, Note_off_c, 5, 53, 127
1, 179843, Note_on_c, 7, 55, 127
1, 179973, Note_off_c, 7, 55, 127
1, 179974, Note_on_c, 10, 57, 127
1, 180104, Note_off_c, 10, 57, 127
1, 180104, Note_off_c, 3, 51, 127
1, 180105, Note_on_c, 11, 58, 127
1, 180105, Note_on_c, 2, 50, 127
1, 180350, Note_off_c, 11, 58, 127
1, 180364, Note_off_c, 2, 50, 127
1, 180367, Note_on_c, 2, 50, 127
1, 180629, Note_on_c, 4, 52, 127
1, 180889, Note_off_c, 4, 52, 127
1, 180890, Note_on_c, 5, 53, 127
1, 181020, Note_off_c, 5, 53, 127
1, 181021, Note_on_c, 7, 55, 127
1, 181151, Note_off_c, 7, 55, 127
1, 181151, Note_off_c, 2, 50, 127
1, 181152, Note_on_c, 10, 57, 127
1, 181152, Note_on_c, 0, 48, 127
1, 181397, Note_off_c, 10, 57, 127
1, 181413, Note_on_c, 4, 52, 127
1, 181673, Note_off_c, 4, 52, 127
1, 181674, Note_on_c, 6, 54, 127
1, 181934, Note_off_c, 6, 54, 127
1, 181935, Note_on_c, 2, 50, 127
1, 182195, Note_off_c, 2, 50, 127
1, 182195, Note_off_c, 0, 48, 127
1, 182196, Note_on_c, 7, 55, 127
1, 182196, Note_on_c, 11, 46, 127
1, 182456, Note_off_c, 11, 46, 127
1, 182457, Note_on_c, 0, 48, 127
1, 182587, Note_off_c, 0, 48, 127
1, 182588, Note_on_c, 11, 46, 127
1, 182718, Note_off_c, 11, 46, 127
1, 182719, Note_on_c, 10, 45, 127
1, 182979, Note_off_c, 10, 45, 127
1, 182980, Note_on_c, 11, 46, 127
1, 183110, Note_off_c, 11, 46, 127
1, 183111, Note_on_c, 0, 48, 127
1, 183241, Note_off_c, 0, 48, 127
1, 183241, Note_off_c, 7, 55, 127
1, 183242, Note_on_c, 6, 54, 127
1, 183242, Note_on_c, 2, 50, 127
1, 183502, Note_off_c, 2, 50, 127
1, 183503, Note_on_c, 0, 48, 127
1, 183763, Note_off_c, 0, 48, 127
1, 183763, Note_off_c, 6, 54, 127
1, 183764, Note_on_c, 7, 55, 127
1, 183764, Note_on_c, 11, 46, 127
1, 184024, Note_off_c, 11, 46, 127
1, 184025, Note_on_c, 7, 43, 127
1, 184281, Note_off_c, 7, 55, 127
1, 184285, Note_off_c, 7, 43, 127
1, 184286, Note_on_c, 3, 51, 127
1, 184548, Note_on_c, 7, 55, 127
1, 184808, Note_off_c, 7, 55, 127
1, 184809, Note_on_c, 5, 53, 127
1, 185069, Note_off_c, 5, 53, 127
1, 185070, Note_on_c, 7, 55, 127
1, 185200, Note_off_c, 7, 55, 127
1, 185201, Note_on_c, 8, 56, 127
1, 185331, Note_off_c, 8, 56, 127
1, 185331, Note_off_c, 3, 51, 127
1, 185332, Note_on_c, 11, 58, 127
1, 185332, Note_on_c, 2, 50, 127
1, 185592, Note_off_c, 11, 58, 127
1, 185593, Note_on_c, 5, 53, 127
1, 185853, Note_off_c, 5, 53, 127
1, 185853, Note_off_c, 2, 50, 127
1, 185854, Note_on_c, 7, 55, 127
1, 185854, Note_on_c, 3, 51, 127
1, 186099, Note_off_c, 7, 55, 127
1, 186113, Note_off_c, 3, 51, 127
1, 186116, Note_on_c, 3, 51, 127
1, 186376, Note_off_c, 3, 51, 127
1, 186377, Note_on_c, 0, 60, 127
1, 186508, Note_on_c, 11, 70, 127
1, 186638, Note_off_c, 11, 70, 127
1, 186639, Note_on_c, 8, 68, 127
1, 186639, Note_on_c, 0, 48, 127
1, 186769, Note_off_c, 8, 68, 127
1, 186770, Note_on_c, 7, 67, 127
1, 186900, Note_off_c, 7, 67, 127
1, 186900, Note_off_c, 0, 48, 127
1, 186901, Note_on_c, 5, 65, 127
1, 186901, Note_on_c, 2, 50, 127
1, 187161, Note_off_c, 2, 50, 127
1, 187161, Note_off_c, 5, 65, 127
1, 187162, Note_on_c, 3, 63, 127
1, 187162, Note_on_c, 3, 51, 127
1, 187292, Note_off_c, 3, 51, 127
1, 187292, Note_off_c, 3, 63, 127
1, 187293, Note_on_c, 2, 62, 127
1, 187293, Note_on_c, 5, 53, 127
1, 187423, Note_off_c, 5, 53, 127
1, 187423, Note_off_c, 2, 62, 127
1, 187423, Note_off_c, 0, 60, 127
1, 187424, Note_on_c, 7, 67, 127
1, 187424, Note_on_c, 12, 59, 127
1, 187424, Note_on_c, 7, 55, 127
1, 187684, Note_off_c, 7, 55, 127
1, 187684, Note_off_c, 7, 67, 127
1, 187685, Note_on_c, 7, 55, 127
1, 187685, Note_on_c, 5, 53, 127
1, 187941, Note_off_c, 12, 59, 127
1, 187945, Note_off_c, 5, 53, 127
1, 187945, Note_off_c, 7, 55, 127
1, 187946, Note_on_c, 0, 60, 127
1, 187946, Note_on_c, 3, 51, 127
1, 188208, Note_on_c, 7, 55, 127
1, 188464, Note_off_c, 3, 51, 127
1, 188464, Note_off_c, 0, 60, 127
1, 188468, Note_off_c, 7, 55, 127
1, 188469, Note_on_c, 7, 67, 127
1, 188600, Note_on_c, 5, 53, 127
1, 188728, Note_off_c, 7, 67, 127
1, 188729, Note_off_c, 5, 53, 127
1, 188730, Note_on_c, 7, 67, 127
1, 188730, Note_on_c, 3, 51, 127
1, 188860, Note_off_c, 3, 51, 127
1, 188861, Note_on_c, 2, 50, 127
1, 188991, Note_off_c, 2, 50, 127
1, 188992, Note_on_c, 10, 69, 127
1, 188992, Note_on_c, 0, 48, 127
1, 189252, Note_off_c, 0, 48, 127
1, 189252, Note_off_c, 10, 69, 127
1, 189253, Note_on_c, 11, 70, 127
1, 189253, Note_on_c, 11, 46, 127
1, 189383, Note_off_c, 11, 46, 127
1, 189383, Note_off_c, 11, 70, 127
1, 189384, Note_on_c, 0, 72, 127
1, 189384, Note_on_c, 10, 45, 127
1, 189514, Note_off_c, 10, 45, 127
1, 189514, Note_off_c, 0, 72, 127
1, 189514, Note_off_c, 7, 67, 127
1, 189515, Note_on_c, 2, 74, 127
1, 189515, Note_on_c, 6, 66, 127
1, 189515, Note_on_c, 2, 50, 127
1, 189775, Note_off_c, 2, 50, 127
1, 189775, Note_off_c, 2, 74, 127
1, 189776, Note_on_c, 0, 72, 127
1, 189776, Note_on_c, 2, 38, 127
1, 190036, Note_off_c, 2, 38, 127
1, 190036, Note_off_c, 0, 72, 127
1, 190036, Note_off_c, 6, 66, 127
1, 190037, Note_on_c, 11, 70, 127
1, 190037, Note_on_c, 7, 67, 127
1, 190037, Note_on_c, 7, 43, 127
1, 190296, Note_off_c, 7, 67, 127
1, 190297, Note_off_c, 11, 70, 127
1, 190298, Note_on_c, 7, 67, 127
1, 190554, Note_off_c, 7, 43, 127
1, 190559, Note_on_c, 3, 75, 127
1, 190597, Note_off_c, 7, 67, 127
1, 190821, Note_on_c, 11, 70, 127
1, 190821, Note_on_c, 7, 55, 127
1, 191081, Note_off_c, 7, 55, 127
1, 191081, Note_off_c, 11, 70, 127
1, 191082, Note_on_c, 10, 69, 127
1, 191082, Note_on_c, 5, 53, 127
1, 191342, Note_off_c, 5, 53, 127
1, 191342, Note_off_c, 10, 69, 127
1, 191343, Note_on_c, 7, 67, 127
1, 191343, Note_on_c, 7, 55, 127
1, 191473, Note_off_c, 7, 55, 127
1, 191474, Note_on_c, 10, 57, 127
1, 191604, Note_off_c, 10, 57, 127
1, 191604, Note_off_c, 7, 67, 127
1, 191604, Note_off_c, 3, 75, 127
1, 191605, Note_on_c, 2, 74, 127
1, 191605, Note_on_c, 5, 65, 127
1, 191605, Note_on_c, 11, 58, 127
1, 191865, Note_off_c, 11, 58, 127
1, 191865, Note_off_c, 5, 65, 127
1, 191866, Note_on_c, 7, 67, 127
1, 191866, Note_on_c, 2, 50, 127
1, 191996, Note_off_c, 7, 67, 127
1, 191997, Note_on_c, 10, 69, 127
1, 192127, Note_off_c, 10, 69, 127
1, 192127, Note_off_c, 2, 50, 127
1, 192128, Note_on_c, 7, 67, 127
1, 192128, Note_on_c, 4, 52, 127
1, 192388, Note_off_c, 4, 52, 127
1, 192388, Note_off_c, 7, 67, 127
1, 192389, Note_on_c, 5, 65, 127
1, 192389, Note_on_c, 5, 53, 127
1, 192519, Note_off_c, 5, 53, 127
1, 192520, Note_on_c, 7, 55, 127
1, 192650, Note_off_c, 7, 55, 127
1, 192650, Note_off_c, 5, 65, 127
1, 192650, Note_off_c, 2, 74, 127
1, 192651, Note_on_c, 1, 73, 127
1, 192651, Note_on_c, 4, 64, 127
1, 192651, Note_on_c, 10, 57, 127
1, 192911, Note_off_c, 10, 57, 127
1, 192912, Note_on_c, 7, 55, 127
1, 193172, Note_off_c, 7, 55, 127
1, 193172, Note_off_c, 4, 64, 127
1, 193172, Note_off_c, 1, 73, 127
1, 193173, Note_on_c, 2, 74, 127
1, 193173, Note_on_c, 2, 62, 127
1, 193173, Note_on_c, 5, 53, 127
1, 193433, Note_off_c, 5, 53, 127
1, 193434, Note_on_c, 2, 50, 127
1, 193690, Note_off_c, 2, 62, 127
1, 193690, Note_off_c, 2, 74, 127
1, 193694, Note_off_c, 2, 50, 127
1, 193695, Note_on_c, 2, 62, 127
1, 193826, Note_on_c, 0, 84, 127
1, 193956, Note_off_c, 0, 84, 127
1, 193957, Note_on_c, 11, 82, 127
1, 193957, Note_on_c, 5, 65, 127
1, 194087, Note_off_c, 11, 82, 127
1, 194088, Note_on_c, 10, 81, 127
1, 194218, Note_off_c, 10, 81, 127
1, 194218, Note_off_c, 5, 65, 127
1, 194219, Note_on_c, 8, 80, 127
1, 194219, Note_on_c, 4, 64, 127
1, 194479, Note_off_c, 4, 64, 127
1, 194479, Note_off_c, 8, 80, 127
1, 194480, Note_on_c, 6, 78, 127
1, 194480, Note_on_c, 6, 66, 127
1, 194610, Note_off_c, 6, 66, 127
1, 194610, Note_off_c, 6, 78, 127
1, 194611, Note_on_c, 4, 76, 127
1, 194611, Note_on_c, 8, 68, 127
1, 194741, Note_off_c, 8, 68, 127
1, 194741, Note_off_c, 4, 76, 127
1, 194741, Note_off_c, 2, 62, 127
1, 194742, Note_on_c, 0, 84, 127
1, 194742, Note_on_c, 10, 69, 127
1, 194872, Note_off_c, 0, 84, 127
1, 194873, Note_on_c, 4, 76, 127
1, 195003, Note_off_c, 4, 76, 127
1, 195004, Note_on_c, 10, 81, 127
1, 195004, Note_on_c, 0, 60, 127
1, 195134, Note_off_c, 10, 81, 127
1, 195135, Note_on_c, 7, 79, 127
1, 195265, Note_off_c, 7, 79, 127
1, 195265, Note_off_c, 0, 60, 127
1, 195266, Note_on_c, 5, 77, 127
1, 195266, Note_on_c, 2, 62, 127
1, 195396, Note_off_c, 5, 77, 127
1, 195397, Note_on_c, 4, 76, 127
1, 195527, Note_off_c, 4, 76, 127
1, 195527, Note_off_c, 2, 62, 127
1, 195528, Note_on_c, 2, 74, 127
1, 195528, Note_on_c, 12, 59, 127
1, 195658, Note_off_c, 2, 74, 127
1, 195659, Note_on_c, 0, 72, 127
1, 195789, Note_off_c, 0, 72, 127
1, 195789, Note_off_c, 12, 59, 127
1, 195789, Note_off_c, 10, 69, 127
1, 195790, Note_on_c, 12, 71, 127
1, 195790, Note_on_c, 8, 68, 127
1, 195790, Note_on_c, 4, 64, 127
1, 195920, Note_off_c, 12, 71, 127
1, 195921, Note_on_c, 4, 76, 127
1, 196051, Note_off_c, 4, 76, 127
1, 196051, Note_off_c, 4, 64, 127
1, 196052, Note_on_c, 12, 71, 127
1, 196052, Note_on_c, 4, 52, 127
1, 196182, Note_off_c, 12, 71, 127
1, 196183, Note_on_c, 2, 74, 127
1, 196308, Note_off_c, 8, 68, 127
1, 196312, Note_off_c, 2, 74, 127
1, 196312, Note_off_c, 4, 52, 127
1, 196313, Note_on_c, 0, 72, 127
1, 196313, Note_on_c, 10, 57, 127
1, 196444, Note_on_c, 10, 69, 127
1, 196574, Note_off_c, 10, 69, 127
1, 196574, Note_off_c, 10, 57, 127
1, 196575, Note_on_c, 4, 64, 127
1, 196575, Note_on_c, 0, 60, 127
1, 196705, Note_off_c, 4, 64, 127
1, 196706, Note_on_c, 7, 67, 127
1, 196831, Note_off_c, 0, 72, 127
1, 196835, Note_off_c, 7, 67, 127
1, 196835, Note_off_c, 0, 60, 127
1, 196836, Note_on_c, 5, 65, 127
1, 196836, Note_on_c, 2, 62, 127
1, 196967, Note_on_c, 0, 72, 127
1, 197097, Note_off_c, 0, 72, 127
1, 197097, Note_off_c, 2, 62, 127
1, 197098, Note_on_c, 12, 71, 127
1, 197098, Note_on_c, 2, 50, 127
1, 197228, Note_off_c, 12, 71, 127
1, 197229, Note_on_c, 10, 69, 127
1, 197354, Note_off_c, 5, 65, 127
1, 197358, Note_off_c, 10, 69, 127
1, 197358, Note_off_c, 2, 50, 127
1, 197359, Note_on_c, 8, 68, 127
1, 197359, Note_on_c, 4, 52, 127
1, 197490, Note_on_c, 4, 64, 127
1, 197620, Note_off_c, 4, 64, 127
1, 197620, Note_off_c, 4, 52, 127
1, 197620, Note_off_c, 8, 68, 127
1, 197621, Note_on_c, 10, 69, 127
1, 197621, Note_on_c, 2, 62, 127
1, 197621, Note_on_c, 5, 53, 127
1, 197751, Note_off_c, 2, 62, 127
1, 197752, Note_on_c, 0, 60, 127
1, 197882, Note_off_c, 0, 60, 127
1, 197882, Note_off_c, 5, 53, 127
1, 197883, Note_on_c, 12, 59, 127
1, 197883, Note_on_c, 2, 50, 127
1, 198013, Note_off_c, 2, 50, 127
1, 198014, Note_on_c, 5, 53, 127
1, 198144, Note_off_c, 5, 53, 127
1, 198144, Note_off_c, 10, 69, 127
1, 198145, Note_on_c, 8, 68, 127
1, 198145, Note_on_c, 4, 52, 127
1, 198275, Note_off_c, 4, 52, 127
1, 198275, Note_off_c, 12, 59, 127
1, 198276, Note_on_c, 12, 59, 127
1, 198276, Note_on_c, 2, 50, 127
1, 198406, Note_off_c, 2, 50, 127
1, 198406, Note_off_c, 12, 59, 127
1, 198406, Note_off_c, 8, 68, 127
1, 198407, Note_on_c, 10, 69, 127
1, 198407, Note_on_c, 10, 57, 127
1, 198407, Note_on_c, 0, 48, 127
1, 198537, Note_off_c, 0, 48, 127
1, 198538, Note_on_c, 4, 52, 127
1, 198668, Note_off_c, 4, 52, 127
1, 198669, Note_on_c, 0, 48, 127
1, 198799, Note_off_c, 0, 48, 127
1, 198800, Note_on_c, 10, 45, 127
1, 198925, Note_off_c, 10, 57, 127
1, 198925, Note_off_c, 10, 69, 127
1, 198929, Note_off_c, 10, 45, 127
1, 198930, Note_on_c, 5, 53, 127
1, 199192, Note_on_c, 0, 60, 127
1, 199192, Note_on_c, 10, 45, 127
1, 199452, Note_off_c, 10, 45, 127
1, 199452, Note_off_c, 0, 60, 127
1, 199453, Note_on_c, 11, 58, 127
1, 199453, Note_on_c, 7, 43, 127
1, 199713, Note_off_c, 7, 43, 127
1, 199713, Note_off_c, 11, 58, 127
1, 199714, Note_on_c, 10, 57, 127
1, 199714, Note_on_c, 10, 45, 127
1, 199844, Note_off_c, 10, 45, 127
1, 199845, Note_on_c, 11, 46, 127
1, 199975, Note_off_c, 11, 46, 127
1, 199975, Note_off_c, 10, 57, 127
1, 199975, Note_off_c, 5, 53, 127
1, 199976, Note_on_c, 7, 55, 127
1, 199976, Note_on_c, 4, 52, 127
1, 199976, Note_on_c, 0, 48, 127
1, 200236, Note_off_c, 0, 48, 127
1, 200236, Note_off_c, 7, 55, 127
1, 200237, Note_on_c, 10, 57, 127
1, 200237, Note_on_c, 0, 36, 127
1, 200367, Note_off_c, 10, 57, 127
1, 200368, Note_on_c, 11, 58, 127
1, 200498, Note_off_c, 11, 58, 127
1, 200498, Note_off_c, 0, 36, 127
1, 200499, Note_on_c, 10, 57, 127
1, 200499, Note_on_c, 5, 41, 127
1, 200759, Note_off_c, 5, 41, 127
1, 200759, Note_off_c, 10, 57, 127
1, 200760, Note_on_c, 7, 55, 127
1, 200760, Note_on_c, 7, 43, 127
1, 200890, Note_off_c, 7, 43, 127
1, 200891, Note_on_c, 10, 45, 127
1, 201021, Note_off_c, 10, 45, 127
1, 201021, Note_off_c, 7, 55, 127
1, 201021, Note_off_c, 4, 52, 127
1, 201022, Note_on_c, 5, 53, 127
1, 201022, Note_on_c, 2, 50, 127
1, 201022, Note_on_c, 11, 46, 127
1, 201282, Note_off_c, 11, 46, 127
1, 201282, Note_off_c, 5, 53, 127
1, 201283, Note_on_c, 7, 55, 127
1, 201283, Note_on_c, 2, 38, 127
1, 201413, Note_off_c, 7, 55, 127
1, 201414, Note_on_c, 10, 57, 127
1, 201544, Note_off_c, 10, 57, 127
1, 201544, Note_off_c, 2, 38, 127
1, 201545, Note_on_c, 7, 55, 127
1, 201545, Note_on_c, 4, 40, 127
1, 201805, Note_off_c, 4, 40, 127
1, 201805, Note_off_c, 7, 55, 127
1, 201806, Note_on_c, 5, 53, 127
1, 201806, Note_on_c, 5, 41, 127
1, 201936, Note_off_c, 5, 41, 127
1, 201937, Note_on_c, 7, 43, 127
1, 202067, Note_off_c, 7, 43, 127
1, 202067, Note_off_c, 5, 53, 127
1, 202067, Note_off_c, 2, 50, 127
1, 202068, Note_on_c, 4, 52, 127
1, 202068, Note_on_c, 1, 49, 127
1, 202068, Note_on_c, 10, 45, 127
1, 202328, Note_off_c, 10, 45, 127
1, 202329, Note_on_c, 7, 43, 127
1, 202459, Note_off_c, 4, 52, 127
1, 202460, Note_on_c, 2, 50, 127
1, 202585, Note_off_c, 1, 49, 127
1, 202589, Note_off_c, 2, 50, 127
1, 202589, Note_off_c, 7, 43, 127
1, 202590, Note_on_c, 2, 50, 127
1, 202590, Note_on_c, 5, 41, 127
1, 202850, Note_off_c, 5, 41, 127
1, 202851, Note_on_c, 2, 38, 127
1, 203107, Note_off_c, 2, 50, 127
1, 203111, Note_off_c, 2, 38, 127
1, 203112, Note_on_c, 2, 50, 127
1, 203371, Note_off_c, 2, 50, 127
1, 203374, Note_on_c, 2, 50, 127
1, 203636, Note_on_c, 4, 52, 127
1, 203896, Note_off_c, 4, 52, 127
1, 203897, Note_on_c, 5, 53, 127
1, 204027, Note_off_c, 5, 53, 127
1, 204028, Note_on_c, 7, 55, 127
1, 204158, Note_off_c, 7, 55, 127
1, 204158, Note_off_c, 2, 50, 127
1, 204159, Note_on_c, 10, 57, 127
1, 204159, Note_on_c, 1, 49, 127
1, 204419, Note_off_c, 10, 57, 127
1, 204420, Note_on_c, 7, 55, 127
1, 204680, Note_off_c, 7, 55, 127
1, 204680, Note_off_c, 1, 49, 127
1, 204681, Note_on_c, 5, 53, 127
1, 204681, Note_on_c, 2, 50, 127
1, 204940, Note_off_c, 2, 50, 127
1, 204941, Note_off_c, 5, 53, 127
1, 204942, Note_on_c, 2, 50, 127
1, 205204, Note_on_c, 2, 62, 127
1, 205242, Note_off_c, 2, 50, 127
1, 205335, Note_on_c, 0, 60, 127
1, 205463, Note_off_c, 2, 62, 127
1, 205464, Note_off_c, 0, 60, 127
1, 205465, Note_on_c, 2, 62, 127
1, 205465, Note_on_c, 11, 58, 127
1, 205595, Note_off_c, 11, 58, 127
1, 205596, Note_on_c, 10, 57, 127
1, 205726, Note_off_c, 10, 57, 127
1, 205727, Note_on_c, 4, 64, 127
1, 205727, Note_on_c, 7, 55, 127
1, 205987, Note_off_c, 7, 55, 127
1, 205987, Note_off_c, 4, 64, 127
1, 205988, Note_on_c, 5, 65, 127
1, 205988, Note_on_c, 5, 53, 127
1, 206118, Note_off_c, 5, 53, 127
1, 206118, Note_off_c, 5, 65, 127
1, 206119, Note_on_c, 7, 67, 127
1, 206119, Note_on_c, 4, 52, 127
1, 206249, Note_off_c, 4, 52, 127
1, 206249, Note_off_c, 7, 67, 127
1, 206249, Note_off_c, 2, 62, 127
1, 206250, Note_on_c, 10, 69, 127
1, 206250, Note_on_c, 1, 61, 127
1, 206250, Note_on_c, 10, 57, 127
1, 206510, Note_off_c, 10, 57, 127
1, 206510, Note_off_c, 10, 69, 127
1, 206511, Note_on_c, 7, 67, 127
1, 206511, Note_on_c, 10, 45, 127
1, 206771, Note_off_c, 10, 45, 127
1, 206771, Note_off_c, 7, 67, 127
1, 206771, Note_off_c, 1, 61, 127
1, 206772, Note_on_c, 5, 65, 127
1, 206772, Note_on_c, 2, 62, 127
1, 206772, Note_on_c, 2, 50, 127
1, 207031, Note_off_c, 2, 62, 127
1, 207032, Note_off_c, 2, 50, 127
1, 207032, Note_off_c, 5, 65, 127
1, 207033, Note_on_c, 2, 62, 127
1, 207033, Note_on_c, 4, 52, 127
1, 207292, Note_off_c, 2, 62, 127
1, 207293, Note_off_c, 4, 52, 127
1, 207294, Note_on_c, 5, 53, 127
1, 207425, Note_on_c, 10, 69, 127
1, 207555, Note_off_c, 10, 69, 127
1, 207555, Note_off_c, 5, 53, 127
1, 207556, Note_on_c, 2, 74, 127
1, 207556, Note_on_c, 2, 50, 127
1, 207686, Note_off_c, 2, 74, 127
1, 207687, Note_on_c, 10, 69, 127
1, 207817, Note_off_c, 10, 69, 127
1, 207817, Note_off_c, 2, 50, 127
1, 207818, Note_on_c, 11, 70, 127
1, 207818, Note_on_c, 7, 55, 127
1, 207949, Note_on_c, 7, 67, 127
1, 208079, Note_off_c, 7, 67, 127
1, 208079, Note_off_c, 7, 55, 127
1, 208080, Note_on_c, 2, 62, 127
1, 208080, Note_on_c, 5, 53, 127
1, 208210, Note_off_c, 2, 62, 127
1, 208211, Note_on_c, 7, 67, 127
1, 208336, Note_off_c, 11, 70, 127
1, 208340, Note_off_c, 7, 67, 127
1, 208340, Note_off_c, 5, 53, 127
1, 208341, Note_on_c, 0, 60, 127
1, 208341, Note_on_c, 4, 52, 127
1, 208472, Note_on_c, 7, 67, 127
1, 208602, Note_off_c, 7, 67, 127
1, 208602, Note_off_c, 4, 52, 127
1, 208603, Note_on_c, 0, 72, 127
1, 208603, Note_on_c, 0, 48, 127
1, 208733, Note_off_c, 0, 72, 127
1, 208734, Note_on_c, 7, 67, 127
1, 208859, Note_off_c, 0, 60, 127
1, 208863, Note_off_c, 7, 67, 127
1, 208863, Note_off_c, 0, 48, 127
1, 208864, Note_on_c, 10, 69, 127
1, 208864, Note_on_c, 5, 53, 127
1, 208995, Note_on_c, 5, 65, 127
1, 209125, Note_off_c, 5, 65, 127
1, 209125, Note_off_c, 5, 53, 127
1, 209126, Note_on_c, 0, 60, 127
1, 209126, Note_on_c, 4, 52, 127
1, 209256, Note_off_c, 0, 60, 127
1, 209257, Note_on_c, 5, 65, 127
1, 209382, Note_off_c, 10, 69, 127
1, 209386, Note_off_c, 5, 65, 127
1, 209386, Note_off_c, 4, 52, 127
1, 209387, Note_on_c, 11, 58, 127
1, 209387, Note_on_c, 2, 50, 127
1, 209518, Note_on_c, 5, 65, 127
1, 209648, Note_off_c, 5, 65, 127
1, 209648, Note_off_c, 2, 50, 127
1, 209649, Note_on_c, 11, 70, 127
1, 209649, Note_on_c, 11, 46, 127
1, 209779, Note_off_c, 11, 70, 127
1, 209780, Note_on_c, 5, 65, 127
1, 209905, Note_off_c, 11, 58, 127
1, 209909, Note_off_c, 5, 65, 127
1, 209909, Note_off_c, 11, 46, 127
1, 209910, Note_on_c, 7, 67, 127
1, 209910, Note_on_c, 4, 52, 127
1, 210041, Note_on_c, 4, 64, 127
1, 210171, Note_off_c, 4, 64, 127
1, 210171, Note_off_c, 4, 52, 127
1, 210172, Note_on_c, 11, 58, 127
1, 210172, Note_on_c, 2, 50, 127
1, 210302, Note_off_c, 11, 58, 127
1, 210303, Note_on_c, 4, 64, 127
1, 210428, Note_off_c, 7, 67, 127
1, 210432, Note_off_c, 4, 64, 127
1, 210432, Note_off_c, 2, 50, 127
1, 210433, Note_on_c, 10, 57, 127
1, 210433, Note_on_c, 1, 49, 127
1, 210564, Note_on_c, 4, 64, 127
1, 210694, Note_off_c, 4, 64, 127
1, 210694, Note_off_c, 1, 49, 127
1, 210695, Note_on_c, 10, 69, 127
1, 210695, Note_on_c, 10, 45, 127
1, 210825, Note_off_c, 10, 69, 127
1, 210826, Note_on_c, 4, 64, 127
1, 210951, Note_off_c, 10, 57, 127
1, 210955, Note_off_c, 4, 64, 127
1, 210955, Note_off_c, 10, 45, 127
1, 210956, Note_on_c, 5, 65, 127
1, 210956, Note_on_c, 2, 50, 127
1, 211087, Note_on_c, 2, 62, 127
1, 211217, Note_off_c, 2, 62, 127
1, 211218, Note_on_c, 10, 57, 127
1, 211348, Note_off_c, 10, 57, 127
1, 211349, Note_on_c, 2, 62, 127
1, 211474, Note_off_c, 2, 50, 127
1, 211478, Note_off_c, 2, 62, 127
1, 211478, Note_off_c, 5, 65, 127
1, 211479, Note_on_c, 2, 74, 127
1, 211479, Note_on_c, 5, 53, 127
1, 211741, Note_on_c, 11, 46, 127
1, 211872, Note_on_c, 2, 62, 127
1, 212002, Note_off_c, 2, 62, 127
1, 212002, Note_off_c, 11, 46, 127
1, 212002, Note_off_c, 5, 53, 127
1, 212003, Note_on_c, 4, 64, 127
1, 212003, Note_on_c, 4, 52, 127
1, 212003, Note_on_c, 7, 43, 127
1, 212263, Note_off_c, 7, 43, 127
1, 212263, Note_off_c, 4, 64, 127
1, 212264, Note_on_c, 5, 65, 127
1, 212264, Note_on_c, 4, 40, 127
1, 212394, Note_off_c, 5, 65, 127
1, 212395, Note_on_c, 7, 67, 127
1, 212525, Note_off_c, 7, 67, 127
1, 212525, Note_off_c, 4, 40, 127
1, 212525, Note_off_c, 2, 74, 127
1, 212526, Note_on_c, 1, 73, 127
1, 212526, Note_on_c, 10, 69, 127
1, 212526, Note_on_c, 10, 45, 127
1, 212786, Note_off_c, 10, 69, 127
1, 212787, Note_on_c, 7, 67, 127
1, 213047, Note_off_c, 7, 67, 127
1, 213047, Note_off_c, 10, 45, 127
1, 213047, Note_off_c, 1, 73, 127
1, 213047, Note_off_c, 4, 52, 127
1, 213048, Note_on_c, 2, 74, 127
1, 213048, Note_on_c, 5, 65, 127
1, 213048, Note_on_c, 2, 50, 127
1, 213048, Note_on_c, 2, 38, 127
1, 213308, Note_off_c, 5, 65, 127
1, 213309, Note_on_c, 2, 62, 127
1, 213565, Note_off_c, 2, 38, 127
1, 213565, Note_off_c, 2, 50, 127
1, 213565, Note_off_c, 2, 74, 127
1, 213569, Note_off_c, 2, 62, 127
1, 213570, Note_on_c, 2, 74, 127
1, 213701, Note_on_c, 0, 72, 127
1, 213831, Note_off_c, 0, 72, 127
1, 213832, Note_on_c, 5, 77, 127
1, 213832, Note_on_c, 11, 70, 127
1, 213962, Note_off_c, 11, 70, 127
1, 213963, Note_on_c, 10, 69, 127
1, 214093, Note_off_c, 10, 69, 127
1, 214093, Note_off_c, 5, 77, 127
1, 214094, Note_on_c, 4, 76, 127
1, 214094, Note_on_c, 7, 67, 127
1, 214354, Note_off_c, 7, 67, 127
1, 214354, Note_off_c, 4, 76, 127
1, 214355, Note_on_c, 5, 77, 127
1, 214355, Note_on_c, 5, 65, 127
1, 214485, Note_off_c, 5, 65, 127
1, 214485, Note_off_c, 5, 77, 127
1, 214486, Note_on_c, 7, 79, 127
1, 214486, Note_on_c, 4, 64, 127
1, 214616, Note_off_c, 4, 64, 127
1, 214616, Note_off_c, 7, 79, 127
1, 214616, Note_off_c, 2, 74, 127
1, 214617, Note_on_c, 10, 81, 127
1, 214617, Note_on_c, 0, 72, 127
1, 214617, Note_on_c, 10, 69, 127
1, 214747, Note_off_c, 10, 69, 127
1, 214748, Note_on_c, 4, 64, 127
1, 214878, Note_off_c, 4, 64, 127
1, 214878, Note_off_c, 10, 81, 127
1, 214879, Note_on_c, 10, 69, 127
1, 215010, Note_on_c, 7, 67, 127
1, 215138, Note_off_c, 10, 69, 127
1, 215139, Note_off_c, 7, 67, 127
1, 215140, Note_on_c, 2, 74, 127
1, 215140, Note_on_c, 5, 65, 127
1, 215400, Note_off_c, 5, 65, 127
1, 215400, Note_off_c, 2, 74, 127
1, 215401, Note_on_c, 4, 76, 127
1, 215401, Note_on_c, 4, 64, 127
1, 215531, Note_off_c, 4, 64, 127
1, 215531, Note_off_c, 4, 76, 127
1, 215532, Note_on_c, 5, 77, 127
1, 215532, Note_on_c, 2, 62, 127
1, 215662, Note_off_c, 2, 62, 127
1, 215662, Note_off_c, 5, 77, 127
1, 215662, Note_off_c, 0, 72, 127
1, 215663, Note_on_c, 7, 79, 127
1, 215663, Note_on_c, 12, 71, 127
1, 215663, Note_on_c, 4, 64, 127
1, 215793, Note_off_c, 4, 64, 127
1, 215794, Note_on_c, 5, 65, 127
1, 215924, Note_off_c, 5, 65, 127
1, 215925, Note_on_c, 7, 67, 127
1, 216055, Note_off_c, 7, 67, 127
1, 216056, Note_on_c, 12, 59, 127
1, 216186, Note_off_c, 12, 59, 127
1, 216186, Note_off_c, 12, 71, 127
1, 216187, Note_on_c, 10, 69, 127
1, 216187, Note_on_c, 1, 61, 127
1, 216317, Note_off_c, 1, 61, 127
1, 216318, Note_on_c, 10, 57, 127
1, 216448, Note_off_c, 10, 57, 127
1, 216449, Note_on_c, 12, 59, 127
1, 216579, Note_off_c, 12, 59, 127
1, 216580, Note_on_c, 1, 61, 127
1, 216710, Note_off_c, 1, 61, 127
1, 216710, Note_off_c, 7, 79, 127
1, 216711, Note_on_c, 5, 77, 127
1, 216711, Note_on_c, 2, 62, 127
1, 216841, Note_off_c, 2, 62, 127
1, 216842, Note_on_c, 4, 64, 127
1, 216972, Note_off_c, 4, 64, 127
1, 216973, Note_on_c, 5, 65, 127
1, 217103, Note_off_c, 5, 65, 127
1, 217104, Note_on_c, 10, 57, 127
1, 217234, Note_off_c, 10, 57, 127
1, 217234, Note_off_c, 10, 69, 127
1, 217235, Note_on_c, 7, 67, 127
1, 217235, Note_on_c, 11, 58, 127
1, 217365, Note_off_c, 11, 58, 127
1, 217366, Note_on_c, 7, 55, 127
1, 217496, Note_off_c, 7, 55, 127
1, 217497, Note_on_c, 10, 57, 127
1, 217627, Note_off_c, 10, 57, 127
1, 217628, Note_on_c, 11, 58, 127
1, 217758, Note_off_c, 11, 58, 127
1, 217758, Note_off_c, 5, 77, 127
1, 217759, Note_on_c, 4, 76, 127
1, 217759, Note_on_c, 0, 60, 127
1, 217889, Note_off_c, 0, 60, 127
1, 217890, Note_on_c, 2, 62, 127
1, 218020, Note_off_c, 2, 62, 127
1, 218021, Note_on_c, 4, 64, 127
1, 218151, Note_off_c, 4, 64, 127
1, 218152, Note_on_c, 7, 55, 127
1, 218282, Note_off_c, 7, 55, 127
1, 218282, Note_off_c, 7, 67, 127
1, 218283, Note_on_c, 5, 65, 127
1, 218283, Note_on_c, 10, 57, 127
1, 218413, Note_off_c, 10, 57, 127
1, 218414, Note_on_c, 5, 53, 127
1, 218544, Note_off_c, 5, 53, 127
1, 218545, Note_on_c, 7, 55, 127
1, 218675, Note_off_c, 7, 55, 127
1, 218676, Note_on_c, 10, 57, 127
1, 218806, Note_off_c, 10, 57, 127
1, 218806, Note_off_c, 4, 76, 127
1, 218807, Note_on_c, 2, 74, 127
1, 218807, Note_on_c, 11, 58, 127
1, 218937, Note_off_c, 11, 58, 127
1, 218938, Note_on_c, 0, 60, 127
1, 219068, Note_off_c, 0, 60, 127
1, 219069, Note_on_c, 2, 62, 127
1, 219199, Note_off_c, 2, 62, 127
1, 219200, Note_on_c, 5, 53, 127
1, 219330, Note_off_c, 5, 53, 127
1, 219330, Note_off_c, 5, 65, 127
1, 219331, Note_on_c, 4, 64, 127
1, 219331, Note_on_c, 7, 55, 127
1, 219461, Note_off_c, 7, 55, 127
1, 219462, Note_on_c, 4, 52, 127
1, 219592, Note_off_c, 4, 52, 127
1, 219593, Note_on_c, 5, 53, 127
1, 219723, Note_off_c, 5, 53, 127
1, 219724, Note_on_c, 7, 55, 127
1, 219854, Note_off_c, 7, 55, 127
1, 219854, Note_off_c, 2, 74, 127
1, 219855, Note_on_c, 0, 72, 127
1, 219855, Note_on_c, 10, 57, 127
1, 219985, Note_off_c, 10, 57, 127
1, 219986, Note_on_c, 12, 59, 127
1, 220116, Note_off_c, 12, 59, 127
1, 220117, Note_on_c, 0, 60, 127
1, 220247, Note_off_c, 0, 60, 127
1, 220248, Note_on_c, 4, 52, 127
1, 220378, Note_off_c, 4, 52, 127
1, 220378, Note_off_c, 4, 64, 127
1, 220379, Note_on_c, 2, 62, 127
1, 220379, Note_on_c, 6, 54, 127
1, 220509, Note_off_c, 6, 54, 127
1, 220510, Note_on_c, 2, 50, 127
1, 220640, Note_off_c, 2, 50, 127
1, 220641, Note_on_c, 4, 52, 127
1, 220771, Note_off_c, 4, 52, 127
1, 220772, Note_on_c, 6, 54, 127
1, 220902, Note_off_c, 6, 54, 127
1, 220902, Note_off_c, 0, 72, 127
1, 220903, Note_on_c, 11, 70, 127
1, 220903, Note_on_c, 7, 55, 127
1, 221033, Note_off_c, 2, 62, 127
1, 221034, Note_on_c, 5, 65, 127
1, 221164, Note_off_c, 5, 65, 127
1, 221165, Note_on_c, 4, 64, 127
1, 221295, Note_off_c, 4, 64, 127
1, 221296, Note_on_c, 2, 62, 127
1, 221426, Note_off_c, 2, 62, 127
1, 221426, Note_off_c, 11, 70, 127
1, 221427, Note_on_c, 10, 69, 127
1, 221427, Note_on_c, 1, 61, 127
1, 221557, Note_off_c, 7, 55, 127
1, 221558, Note_on_c, 11, 58, 127
1, 221688, Note_off_c, 11, 58, 127
1, 221689, Note_on_c, 10, 57, 127
1, 221819, Note_off_c, 10, 57, 127
1, 221820, Note_on_c, 7, 55, 127
1, 221950, Note_off_c, 7, 55, 127
1, 221950, Note_off_c, 1, 61, 127
1, 221951, Note_on_c, 2, 62, 127
1, 221951, Note_on_c, 5, 53, 127
1, 222081, Note_off_c, 5, 53, 127
1, 222082, Note_on_c, 4, 52, 127
1, 222212, Note_off_c, 4, 52, 127
1, 222212, Note_off_c, 2, 62, 127
1, 222213, Note_on_c, 5, 65, 127
1, 222213, Note_on_c, 2, 50, 127
1, 222343, Note_off_c, 2, 50, 127
1, 222343, Note_off_c, 5, 65, 127
1, 222344, Note_on_c, 4, 64, 127
1, 222344, Note_on_c, 0, 48, 127
1, 222474, Note_off_c, 0, 48, 127
1, 222474, Note_off_c, 4, 64, 127
1, 222475, Note_on_c, 2, 62, 127
1, 222475, Note_on_c, 12, 47, 127
1, 222735, Note_off_c, 10, 69, 127
1, 222736, Note_on_c, 7, 67, 127
1, 222866, Note_off_c, 7, 67, 127
1, 222867, Note_on_c, 5, 65, 127
1, 222997, Note_off_c, 5, 65, 127
1, 222998, Note_on_c, 7, 67, 127
1, 223129, Note_off_c, 12, 47, 127
1, 223259, Note_off_c, 2, 62, 127
1, 223260, Note_on_c, 4, 64, 127
1, 223260, Note_on_c, 1, 49, 127
1, 223519, Note_off_c, 4, 64, 127
1, 223520, Note_off_c, 1, 49, 127
1, 223521, Note_on_c, 10, 57, 127
1, 223521, Note_on_c, 2, 50, 127
1, 223781, Note_off_c, 7, 67, 127
1, 223782, Note_on_c, 5, 65, 127
1, 223912, Note_off_c, 5, 65, 127
1, 223913, Note_on_c, 4, 64, 127
1, 224043, Note_off_c, 4, 64, 127
1, 224044, Note_on_c, 5, 65, 127
1, 224175, Note_off_c, 2, 50, 127
1, 224305, Note_off_c, 10, 57, 127
1, 224306, Note_on_c, 2, 62, 127
1, 224306, Note_on_c, 2, 50, 127
1, 224566, Note_off_c, 2, 50, 127
1, 224566, Note_off_c, 2, 62, 127
1, 224567, Note_on_c, 7, 55, 127
1, 224567, Note_on_c, 4, 52, 127
1, 224827, Note_off_c, 5, 65, 127
1, 224828, Note_on_c, 4, 64, 127
1, 224958, Note_off_c, 4, 64, 127
1, 224959, Note_on_c, 2, 62, 127
1, 225089, Note_off_c, 2, 62, 127
1, 225090, Note_on_c, 4, 64, 127
1, 225221, Note_off_c, 4, 52, 127
1, 225351, Note_off_c, 7, 55, 127
1, 225352, Note_on_c, 10, 57, 127
1, 225352, Note_on_c, 1, 49, 127
1, 225612, Note_off_c, 1, 49, 127
1, 225612, Note_off_c, 10, 57, 127
1, 225613, Note_on_c, 10, 57, 127
1, 225613, Note_on_c, 5, 53, 127
1, 225613, Note_on_c, 2, 50, 127
1, 225873, Note_off_c, 4, 64, 127
1, 225874, Note_on_c, 2, 62, 127
1, 226004, Note_off_c, 2, 62, 127
1, 226005, Note_on_c, 1, 61, 127
1, 226135, Note_off_c, 1, 61, 127
1, 226136, Note_on_c, 2, 62, 127
1, 226266, Note_off_c, 2, 62, 127
1, 226267, Note_off_c, 2, 50, 127
1, 226267, Note_off_c, 5, 53, 127
1, 226267, Note_on_c, 10, 69, 127
1, 226397, Note_off_c, 10, 69, 127
1, 226397, Note_off_c, 10, 57, 127
1, 226398, Note_on_c, 2, 74, 127
1, 226398, Note_on_c, 10, 57, 127
1, 226398, Note_on_c, 6, 54, 127
1, 226528, Note_off_c, 2, 74, 127
1, 226529, Note_on_c, 0, 72, 127
1, 226657, Note_off_c, 10, 57, 127
1, 226658, Note_off_c, 0, 72, 127
1, 226658, Note_off_c, 6, 54, 127
1, 226659, Note_on_c, 11, 70, 127
1, 226659, Note_on_c, 7, 55, 127
1, 226789, Note_off_c, 11, 70, 127
1, 226790, Note_on_c, 10, 69, 127
1, 226920, Note_off_c, 10, 69, 127
1, 226921, Note_on_c, 7, 67, 127
1, 227051, Note_off_c, 7, 67, 127
1, 227052, Note_on_c, 5, 65, 127
1, 227182, Note_off_c, 5, 65, 127
1, 227183, Note_on_c, 4, 64, 127
1, 227314, Note_off_c, 7, 55, 127
1, 227314, Note_on_c, 12, 71, 127
1, 227379, Note_off_c, 4, 64, 127
1, 227443, Note_off_c, 12, 71, 127
1, 227444, Note_on_c, 4, 76, 127
1, 227444, Note_on_c, 12, 59, 127
1, 227444, Note_on_c, 8, 56, 127
1, 227574, Note_off_c, 4, 76, 127
1, 227575, Note_on_c, 2, 74, 127
1, 227703, Note_off_c, 12, 59, 127
1, 227704, Note_off_c, 2, 74, 127
1, 227704, Note_off_c, 8, 56, 127
1, 227705, Note_on_c, 1, 73, 127
1, 227705, Note_on_c, 10, 57, 127
1, 227835, Note_off_c, 1, 73, 127
1, 227836, Note_on_c, 12, 71, 127
1, 227966, Note_off_c, 12, 71, 127
1, 227967, Note_on_c, 10, 69, 127
1, 228097, Note_off_c, 10, 69, 127
1, 228098, Note_on_c, 7, 67, 127
1, 228228, Note_off_c, 7, 67, 127
1, 228229, Note_on_c, 5, 65, 127
1, 228360, Note_off_c, 10, 57, 127
1, 228360, Note_on_c, 0, 72, 127
1, 228425, Note_off_c, 5, 65, 127
1, 228489, Note_off_c, 0, 72, 127
1, 228490, Note_on_c, 5, 77, 127
1, 228490, Note_on_c, 0, 60, 127
1, 228490, Note_on_c, 10, 57, 127
1, 228620, Note_off_c, 5, 77, 127
1, 228621, Note_on_c, 4, 76, 127
1, 228751, Note_off_c, 4, 76, 127
1, 228751, Note_off_c, 10, 57, 127
1, 228751, Note_off_c, 0, 60, 127
1, 228752, Note_on_c, 2, 74, 127
1, 228752, Note_on_c, 11, 58, 127
1, 228882, Note_off_c, 2, 74, 127
1, 228883, Note_on_c, 0, 72, 127
1, 229013, Note_off_c, 0, 72, 127
1, 229014, Note_on_c, 11, 70, 127
1, 229144, Note_off_c, 11, 70, 127
1, 229145, Note_on_c, 10, 69, 127
1, 229275, Note_off_c, 10, 69, 127
1, 229276, Note_on_c, 7, 67, 127
1, 229407, Note_off_c, 11, 58, 127
1, 229407, Note_on_c, 2, 74, 127
1, 229472, Note_off_c, 7, 67, 127
1, 229536, Note_off_c, 2, 74, 127
1, 229537, Note_on_c, 7, 79, 127
1, 229537, Note_on_c, 2, 62, 127
1, 229537, Note_on_c, 12, 59, 127
1, 229667, Note_off_c, 7, 79, 127
1, 229668, Note_on_c, 5, 77, 127
1, 229796, Note_off_c, 2, 62, 127
1, 229797, Note_off_c, 5, 77, 127
1, 229797, Note_off_c, 12, 59, 127
1, 229798, Note_on_c, 4, 76, 127
1, 229798, Note_on_c, 0, 60, 127
1, 229928, Note_off_c, 4, 76, 127
1, 229929, Note_on_c, 2, 74, 127
1, 230059, Note_off_c, 2, 74, 127
1, 230060, Note_on_c, 0, 72, 127
1, 230190, Note_off_c, 0, 72, 127
1, 230191, Note_on_c, 11, 70, 127
1, 230321, Note_off_c, 11, 70, 127
1, 230322, Note_on_c, 10, 69, 127
1, 230453, Note_off_c, 0, 60, 127
1, 230453, Note_on_c, 4, 76, 127
1, 230518, Note_off_c, 10, 69, 127
1, 230582, Note_off_c, 4, 76, 127
1, 230583, Note_on_c, 10, 81, 127
1, 230583, Note_on_c, 4, 64, 127
1, 230583, Note_on_c, 1, 61, 127
1, 230713, Note_off_c, 10, 81, 127
1, 230714, Note_on_c, 7, 79, 127
1, 230842, Note_off_c, 4, 64, 127
1, 230843, Note_off_c, 7, 79, 127
1, 230843, Note_off_c, 1, 61, 127
1, 230844, Note_on_c, 5, 77, 127
1, 230844, Note_on_c, 2, 62, 127
1, 230991, Note_on_c, 4, 64, 127
1, 231121, Note_off_c, 4, 64, 127
1, 231128, Note_on_c, 5, 65, 127
1, 231258, Note_off_c, 5, 65, 127
1, 231259, Note_on_c, 7, 67, 127
1, 231363, Note_off_c, 5, 77, 127
1, 231389, Note_off_c, 7, 67, 127
1, 231390, Note_on_c, 10, 69, 127
1, 231521, Note_on_c, 12, 71, 127
1, 231651, Note_off_c, 12, 71, 127
1, 231652, Note_on_c, 1, 73, 127
1, 231782, Note_off_c, 1, 73, 127
1, 231783, Note_on_c, 2, 74, 127
1, 231891, Note_off_c, 2, 62, 127
1, 231909, Note_off_c, 10, 69, 127
1, 231914, Note_on_c, 8, 56, 127
1, 231947, Note_off_c, 2, 74, 127
1, 232062, Note_on_c, 1, 61, 127
1, 232192, Note_off_c, 1, 61, 127
1, 232199, Note_on_c, 2, 62, 127
1, 232329, Note_off_c, 2, 62, 127
1, 232330, Note_on_c, 4, 64, 127
1, 232460, Note_off_c, 4, 64, 127
1, 232461, Note_on_c, 5, 65, 127
1, 232592, Note_on_c, 12, 71, 127
1, 232722, Note_off_c, 12, 71, 127
1, 232723, Note_on_c, 1, 73, 127
1, 232853, Note_off_c, 1, 73, 127
1, 232854, Note_on_c, 2, 74, 127
1, 232962, Note_off_c, 8, 56, 127
1, 232980, Note_off_c, 5, 65, 127
1, 232984, Note_off_c, 2, 74, 127
1, 232985, Note_on_c, 1, 73, 127
1, 232985, Note_on_c, 10, 57, 127
1, 233138, Note_on_c, 4, 64, 127
1, 233268, Note_off_c, 4, 64, 127
1, 233269, Note_on_c, 10, 69, 127
1, 233399, Note_off_c, 10, 69, 127
1, 233400, Note_on_c, 7, 67, 127
1, 233504, Note_off_c, 1, 73, 127
1, 233530, Note_off_c, 7, 67, 127
1, 233531, Note_on_c, 2, 62, 127
1, 233684, Note_on_c, 10, 69, 127
1, 233814, Note_off_c, 10, 69, 127
1, 233815, Note_on_c, 12, 71, 127
1, 233945, Note_off_c, 12, 71, 127
1, 233946, Note_on_c, 1, 73, 127
1, 234076, Note_off_c, 1, 73, 127
1, 234077, Note_on_c, 2, 74, 127
1, 234207, Note_off_c, 2, 74, 127
1, 234208, Note_on_c, 4, 76, 127
1, 234316, Note_off_c, 2, 62, 127
1, 234338, Note_off_c, 4, 76, 127
1, 234339, Note_on_c, 5, 77, 127
1, 234339, Note_on_c, 2, 62, 127
1, 234469, Note_off_c, 5, 77, 127
1, 234470, Note_on_c, 2, 74, 127
1, 234600, Note_off_c, 2, 74, 127
1, 234600, Note_off_c, 2, 62, 127
1, 234601, Note_on_c, 7, 79, 127
1, 234601, Note_on_c, 4, 64, 127
1, 234732, Note_on_c, 12, 71, 127
1, 234860, Note_off_c, 7, 79, 127
1, 234861, Note_off_c, 12, 71, 127
1, 234862, Note_on_c, 1, 73, 127
1, 234993, Note_on_c, 7, 79, 127
1, 235058, Note_off_c, 1, 73, 127
1, 235078, Note_off_c, 10, 57, 127
1, 235122, Note_off_c, 4, 64, 127
1, 235132, Note_off_c, 7, 79, 127
1, 235135, Note_on_c, 5, 77, 127
1, 235135, Note_on_c, 2, 62, 127
1, 235427, Note_off_c, 5, 77, 127
1, 235427, Note_on_c, 10, 69, 127
1, 235653, Note_off_c, 2, 62, 127
1, 235680, Note_off_c, 10, 69, 127
1, 235680, Note_on_c, 2, 74, 127
1, 235942, Note_on_c, 2, 38, 127
1, 235942, Note_on_c, 10, 69, 127
1, 235942, Note_on_c, 5, 65, 127
1, 236202, Note_off_c, 5, 65, 127
1, 236202, Note_off_c, 10, 69, 127
1, 236202, Note_off_c, 2, 38, 127
1, 236203, Note_on_c, 4, 40, 127
1, 236203, Note_on_c, 7, 67, 127
1, 236203, Note_on_c, 4, 64, 127
1, 236463, Note_off_c, 4, 40, 127
1, 236464, Note_on_c, 5, 41, 127
1, 236594, Note_off_c, 5, 41, 127
1, 236595, Note_on_c, 7, 43, 127
1, 236725, Note_off_c, 7, 43, 127
1, 236725, Note_off_c, 4, 64, 127
1, 236725, Note_off_c, 7, 67, 127
1, 236725, Note_off_c, 2, 74, 127
1, 236726, Note_on_c, 10, 45, 127
1, 236726, Note_on_c, 4, 64, 127
1, 236726, Note_on_c, 1, 73, 127
1, 236986, Note_off_c, 10, 45, 127
1, 236987, Note_on_c, 7, 43, 127
1, 237247, Note_off_c, 7, 43, 127
1, 237247, Note_off_c, 1, 73, 127
1, 237247, Note_off_c, 4, 64, 127
1, 237248, Note_on_c, 5, 41, 127
1, 237248, Note_on_c, 10, 69, 127
1, 237248, Note_on_c, 2, 62, 127
1, 237248, Note_on_c, 2, 74, 127
1, 237507, Note_off_c, 2, 62, 127
1, 237507, Note_off_c, 10, 69, 127
1, 237508, Note_off_c, 5, 41, 127
1, 237509, Note_on_c, 2, 38, 127
1, 237765, Note_off_c, 2, 74, 127
1, 237769, Note_off_c, 2, 38, 127
1, 237770, Note_on_c, 2, 50, 127
1, 237770, Note_on_c, 5, 53, 127
1, 237770, Note_on_c, 10, 57, 127
1, 238032, Note_on_c, 2, 62, 127
1, 238292, Note_off_c, 2, 62, 127
1, 238292, Note_off_c, 10, 57, 127
1, 238292, Note_off_c, 5, 53, 127
1, 238293, Note_on_c, 7, 55, 127
1, 238293, Note_on_c, 11, 58, 127
1, 238293, Note_on_c, 4, 64, 127
1, 238553, Note_off_c, 4, 64, 127
1, 238554, Note_on_c, 5, 65, 127
1, 238684, Note_off_c, 5, 65, 127
1, 238685, Note_on_c, 7, 67, 127
1, 238815, Note_off_c, 7, 67, 127
1, 238815, Note_off_c, 11, 58, 127
1, 238815, Note_off_c, 7, 55, 127
1, 238815, Note_off_c, 2, 50, 127
1, 238816, Note_on_c, 1, 49, 127
1, 238816, Note_on_c, 4, 52, 127
1, 238816, Note_on_c, 10, 57, 127
1, 238816, Note_on_c, 10, 69, 127
1, 239076, Note_off_c, 10, 69, 127
1, 239077, Note_on_c, 7, 67, 127
1, 239337, Note_off_c, 7, 67, 127
1, 239337, Note_off_c, 10, 57, 127
1, 239337, Note_off_c, 4, 52, 127
1, 239337, Note_off_c, 1, 49, 127
1, 239338, Note_on_c, 2, 50, 127
1, 239338, Note_on_c, 10, 57, 127
1, 239338, Note_on_c, 5, 65, 127
1, 239598, Note_off_c, 5, 65, 127
1, 239599, Note_on_c, 2, 62, 127
1, 239855, Note_off_c, 10, 57, 127
1, 239855, Note_off_c, 2, 50, 127
1, 239859, Note_off_c, 2, 62, 127
1, 239870, Note_on_c, 11, 70, 127
1, 240140, Note_on_c, 2, 62, 127
1, 240400, Note_off_c, 2, 62, 127
1, 240405, Note_on_c, 0, 60, 127
1, 240665, Note_off_c, 0, 60, 127
1, 240666, Note_on_c, 2, 62, 127
1, 240796, Note_off_c, 2, 62, 127
1, 240797, Note_on_c, 4, 64, 127
1, 240914, Note_off_c, 11, 70, 127
1, 240926, Note_off_c, 4, 64, 127
1, 240927, Note_on_c, 10, 69, 127
1, 240927, Note_on_c, 5, 65, 127
1, 241204, Note_on_c, 10, 57, 127
1, 241464, Note_off_c, 10, 57, 127
1, 241472, Note_on_c, 12, 59, 127
1, 241731, Note_off_c, 12, 59, 127
1, 241734, Note_on_c, 1, 61, 127
1, 241864, Note_off_c, 1, 61, 127
1, 241865, Note_on_c, 2, 62, 127
1, 241973, Note_off_c, 5, 65, 127
1, 241973, Note_off_c, 10, 69, 127
1, 241995, Note_off_c, 2, 62, 127
1, 241996, Note_on_c, 4, 64, 127
1, 241996, Note_on_c, 7, 67, 127
1, 242258, Note_on_c, 7, 43, 127
1, 242258, Note_on_c, 12, 59, 127
1, 242518, Note_off_c, 12, 59, 127
1, 242518, Note_off_c, 7, 43, 127
1, 242519, Note_on_c, 10, 45, 127
1, 242519, Note_on_c, 1, 61, 127
1, 242779, Note_off_c, 10, 45, 127
1, 242780, Note_on_c, 12, 47, 127
1, 242910, Note_off_c, 12, 47, 127
1, 242911, Note_on_c, 1, 49, 127
1, 243041, Note_off_c, 1, 49, 127
1, 243041, Note_off_c, 1, 61, 127
1, 243041, Note_off_c, 7, 67, 127
1, 243041, Note_off_c, 4, 64, 127
1, 243042, Note_on_c, 2, 50, 127
1, 243042, Note_on_c, 2, 62, 127
1, 243042, Note_on_c, 10, 57, 127
1, 243042, Note_on_c, 5, 65, 127
1, 243301, Note_off_c, 10, 57, 127
1, 243304, Note_on_c, 5, 53, 127
1, 243424, Note_off_c, 2, 50, 127
1, 243564, Note_off_c, 5, 53, 127
1, 243565, Note_on_c, 7, 55, 127
1, 243825, Note_off_c, 7, 55, 127
1, 243826, Note_on_c, 10, 57, 127
1, 243956, Note_off_c, 10, 57, 127
1, 243957, Note_on_c, 11, 58, 127
1, 244087, Note_off_c, 5, 65, 127
1, 244087, Note_off_c, 2, 62, 127
1, 244088, Note_on_c, 0, 60, 127
1, 244088, Note_on_c, 4, 64, 127
1, 244348, Note_off_c, 11, 58, 127
1, 244349, Note_on_c, 4, 52, 127
1, 244609, Note_off_c, 4, 52, 127
1, 244610, Note_on_c, 5, 53, 127
1, 244870, Note_off_c, 5, 53, 127
1, 244871, Note_on_c, 7, 55, 127
1, 245001, Note_off_c, 7, 55, 127
1, 245002, Note_on_c, 10, 57, 127
1, 245132, Note_off_c, 10, 57, 127
1, 245132, Note_off_c, 4, 64, 127
1, 245132, Note_off_c, 0, 60, 127
1, 245133, Note_on_c, 11, 58, 127
1, 245133, Note_on_c, 2, 62, 127
1, 245395, Note_on_c, 2, 38, 127
1, 245395, Note_on_c, 5, 53, 127
1, 245655, Note_off_c, 5, 53, 127
1, 245655, Note_off_c, 2, 38, 127
1, 245656, Note_on_c, 4, 40, 127
1, 245656, Note_on_c, 7, 55, 127
1, 245916, Note_off_c, 4, 40, 127
1, 245917, Note_on_c, 5, 41, 127
1, 246047, Note_off_c, 5, 41, 127
1, 246048, Note_on_c, 7, 43, 127
1, 246178, Note_off_c, 7, 43, 127
1, 246178, Note_off_c, 7, 55, 127
1, 246178, Note_off_c, 2, 62, 127
1, 246178, Note_off_c, 11, 58, 127
1, 246179, Note_on_c, 10, 45, 127
1, 246179, Note_on_c, 4, 52, 127
1, 246179, Note_on_c, 10, 57, 127
1, 246179, Note_on_c, 1, 61, 127
1, 246439, Note_off_c, 10, 45, 127
1, 246440, Note_on_c, 7, 43, 127
1, 246700, Note_off_c, 7, 43, 127
1, 246700, Note_off_c, 1, 61, 127
1, 246700, Note_off_c, 10, 57, 127
1, 246700, Note_off_c, 4, 52, 127
1, 246701, Note_on_c, 5, 41, 127
1, 246701, Note_on_c, 2, 50, 127
1, 246701, Note_on_c, 10, 57, 127
1, 246701, Note_on_c, 2, 62, 127
1, 246961, Note_off_c, 5, 41, 127
1, 246962, Note_on_c, 2, 38, 127
1, 247218, Note_off_c, 2, 62, 127
1, 247218, Note_off_c, 10, 57, 127
1, 247233, Note_off_c, 2, 38, 127
1, 247233, Note_off_c, 2, 50, 127
1, 247234, Note_on_c, 11, 46, 127
1, 247383, Note_off_c, 11, 46, 127
1, 247387, Note_on_c, 0, 48, 127
1, 247517, Note_off_c, 0, 48, 127
1, 247518, Note_on_c, 11, 46, 127
1, 247648, Note_off_c, 11, 46, 127
1, 247649, Note_on_c, 10, 45, 127
1, 247779, Note_off_c, 10, 45, 127
1, 247780, Note_on_c, 8, 44, 127
1, 247911, Note_on_c, 2, 62, 127
1, 248041, Note_off_c, 2, 62, 127
1, 248042, Note_on_c, 4, 64, 127
1, 248172, Note_off_c, 4, 64, 127
1, 248173, Note_on_c, 1, 61, 127
1, 248303, Note_off_c, 1, 61, 127
1, 248304, Note_on_c, 2, 62, 127
1, 248435, Note_on_c, 4, 52, 127
1, 248565, Note_off_c, 4, 52, 127
1, 248566, Note_on_c, 5, 53, 127
1, 248696, Note_off_c, 5, 53, 127
1, 248697, Note_on_c, 2, 50, 127
1, 248822, Note_off_c, 2, 62, 127
1, 248826, Note_off_c, 2, 50, 127
1, 248827, Note_on_c, 4, 52, 127
1, 248958, Note_on_c, 2, 62, 127
1, 249088, Note_off_c, 2, 62, 127
1, 249089, Note_on_c, 4, 64, 127
1, 249219, Note_off_c, 4, 64, 127
1, 249220, Note_on_c, 1, 61, 127
1, 249345, Note_off_c, 4, 52, 127
1, 249349, Note_off_c, 1, 61, 127
1, 249350, Note_on_c, 2, 62, 127
1, 249481, Note_on_c, 5, 53, 127
1, 249611, Note_off_c, 5, 53, 127
1, 249612, Note_on_c, 2, 50, 127
1, 249742, Note_off_c, 2, 50, 127
1, 249743, Note_on_c, 4, 52, 127
1, 249866, Note_off_c, 8, 44, 127
1, 249869, Note_off_c, 2, 62, 127
1, 249873, Note_off_c, 4, 52, 127
1, 249874, Note_on_c, 5, 53, 127
1, 249874, Note_on_c, 10, 45, 127
1, 250005, Note_on_c, 2, 62, 127
1, 250135, Note_off_c, 2, 62, 127
1, 250136, Note_on_c, 4, 64, 127
1, 250266, Note_off_c, 4, 64, 127
1, 250267, Note_on_c, 1, 61, 127
1, 250392, Note_off_c, 5, 53, 127
1, 250396, Note_off_c, 1, 61, 127
1, 250397, Note_on_c, 2, 62, 127
1, 250528, Note_on_c, 5, 53, 127
1, 250658, Note_off_c, 5, 53, 127
1, 250659, Note_on_c, 7, 55, 127
1, 250789, Note_off_c, 7, 55, 127
1, 250790, Note_on_c, 4, 52, 127
1, 250915, Note_off_c, 2, 62, 127
1, 250919, Note_off_c, 4, 52, 127
1, 250920, Note_on_c, 5, 53, 127
1, 251051, Note_on_c, 2, 62, 127
1, 251181, Note_off_c, 2, 62, 127
1, 251182, Note_on_c, 4, 64, 127
1, 251312, Note_off_c, 4, 64, 127
1, 251313, Note_on_c, 1, 61, 127
1, 251438, Note_off_c, 5, 53, 127
1, 251442, Note_off_c, 1, 61, 127
1, 251443, Note_on_c, 2, 62, 127
1, 251574, Note_on_c, 7, 55, 127
1, 251704, Note_off_c, 7, 55, 127
1, 251705, Note_on_c, 4, 52, 127
1, 251835, Note_off_c, 4, 52, 127
1, 251836, Note_on_c, 5, 53, 127
1, 251961, Note_off_c, 2, 62, 127
1, 251965, Note_off_c, 5, 53, 127
1, 251965, Note_off_c, 10, 45, 127
1, 251966, Note_on_c, 7, 55, 127
1, 251966, Note_on_c, 11, 46, 127
1, 252097, Note_on_c, 2, 62, 127
1, 252227, Note_off_c, 2, 62, 127
1, 252228, Note_on_c, 4, 64, 127
1, 252358, Note_off_c, 4, 64, 127
1, 252359, Note_on_c, 1, 61, 127
1, 252484, Note_off_c, 7, 55, 127
1, 252488, Note_off_c, 1, 61, 127
1, 252489, Note_on_c, 2, 62, 127
1, 252620, Note_on_c, 4, 52, 127
1, 252750, Note_off_c, 4, 52, 127
1, 252751, Note_on_c, 5, 53, 127
1, 252881, Note_off_c, 5, 53, 127
1, 252882, Note_on_c, 1, 49, 127
1, 253012, Note_off_c, 1, 49, 127
1, 253012, Note_off_c, 11, 46, 127
1, 253013, Note_on_c, 12, 47, 127
1, 253013, Note_on_c, 2, 50, 127
1, 253144, Note_on_c, 10, 57, 127
1, 253274, Note_off_c, 10, 57, 127
1, 253275, Note_on_c, 12, 59, 127
1, 253405, Note_off_c, 12, 59, 127
1, 253406, Note_on_c, 6, 54, 127
1, 253536, Note_off_c, 6, 54, 127
1, 253536, Note_off_c, 2, 62, 127
1, 253537, Note_on_c, 8, 56, 127
1, 253668, Note_on_c, 1, 61, 127
1, 253798, Note_off_c, 1, 61, 127
1, 253799, Note_on_c, 2, 62, 127
1, 253929, Note_off_c, 2, 62, 127
1, 253930, Note_on_c, 12, 59, 127
1, 254060, Note_off_c, 12, 59, 127
1, 254060, Note_off_c, 2, 50, 127
1, 254060, Note_off_c, 12, 47, 127
1, 254061, Note_on_c, 1, 61, 127
1, 254061, Note_on_c, 10, 45, 127
1, 254061, Note_on_c, 4, 52, 127
1, 254137, Note_off_c, 8, 56, 127
1, 254219, Note_on_c, 7, 55, 127
1, 254349, Note_off_c, 7, 55, 127
1, 254356, Note_on_c, 10, 57, 127
1, 254443, Note_off_c, 4, 52, 127
1, 254485, Note_off_c, 10, 57, 127
1, 254486, Note_on_c, 4, 52, 127
1, 254616, Note_off_c, 4, 52, 127
1, 254617, Note_on_c, 5, 53, 127
1, 254661, Note_off_c, 1, 61, 127
1, 254748, Note_on_c, 12, 59, 127
1, 254878, Note_off_c, 12, 59, 127
1, 254879, Note_on_c, 1, 61, 127
1, 255009, Note_off_c, 1, 61, 127
1, 255010, Note_on_c, 10, 57, 127
1, 255107, Note_off_c, 10, 45, 127
1, 255140, Note_off_c, 10, 57, 127
1, 255141, Note_on_c, 2, 62, 127
1, 255217, Note_off_c, 5, 53, 127
1, 255272, Note_on_c, 4, 52, 127
1, 255402, Note_off_c, 4, 52, 127
1, 255403, Note_on_c, 5, 53, 127
1, 255533, Note_off_c, 5, 53, 127
1, 255534, Note_on_c, 2, 50, 127
1, 255664, Note_off_c, 2, 50, 127
1, 255665, Note_on_c, 10, 57, 127
1, 255741, Note_off_c, 2, 62, 127
1, 255796, Note_on_c, 4, 64, 127
1, 255926, Note_off_c, 4, 64, 127
1, 255927, Note_on_c, 5, 65, 127
1, 256057, Note_off_c, 5, 65, 127
1, 256058, Note_on_c, 2, 62, 127
1, 256188, Note_off_c, 2, 62, 127
1, 256189, Note_on_c, 10, 69, 127
1, 256265, Note_off_c, 10, 57, 127
1, 256320, Note_on_c, 12, 59, 127
1, 256450, Note_off_c, 12, 59, 127
1, 256451, Note_on_c, 1, 61, 127
1, 256581, Note_off_c, 1, 61, 127
1, 256582, Note_on_c, 10, 57, 127
1, 256712, Note_off_c, 10, 57, 127
1, 256713, Note_on_c, 2, 62, 127
1, 256789, Note_off_c, 10, 69, 127
1, 256844, Note_on_c, 12, 71, 127
1, 256974, Note_off_c, 12, 71, 127
1, 256975, Note_on_c, 1, 73, 127
1, 257105, Note_off_c, 1, 73, 127
1, 257106, Note_on_c, 10, 69, 127
1, 257236, Note_off_c, 10, 69, 127
1, 257237, Note_on_c, 2, 74, 127
1, 257313, Note_off_c, 2, 62, 127
1, 257368, Note_on_c, 4, 64, 127
1, 257498, Note_off_c, 4, 64, 127
1, 257499, Note_on_c, 5, 65, 127
1, 257629, Note_off_c, 5, 65, 127
1, 257630, Note_on_c, 2, 62, 127
1, 257760, Note_off_c, 2, 62, 127
1, 257761, Note_on_c, 10, 69, 127
1, 257837, Note_off_c, 2, 74, 127
1, 257892, Note_on_c, 4, 76, 127
1, 258022, Note_off_c, 4, 76, 127
1, 258023, Note_on_c, 5, 77, 127
1, 258153, Note_off_c, 5, 77, 127
1, 258154, Note_on_c, 2, 74, 127
1, 258284, Note_off_c, 2, 74, 127
1, 258285, Note_on_c, 10, 81, 127
1, 258361, Note_off_c, 10, 69, 127
1, 258416, Note_on_c, 12, 71, 127
1, 258546, Note_off_c, 12, 71, 127
1, 258547, Note_on_c, 1, 73, 127
1, 258677, Note_off_c, 1, 73, 127
1, 258678, Note_on_c, 10, 69, 127
1, 258808, Note_off_c, 10, 69, 127
1, 258809, Note_on_c, 2, 74, 127
1, 258940, Note_off_c, 10, 81, 127
1, 258940, Note_on_c, 7, 79, 127
1, 259070, Note_off_c, 7, 79, 127
1, 259071, Note_on_c, 10, 81, 127
1, 259201, Note_off_c, 10, 81, 127
1, 259202, Note_on_c, 4, 76, 127
1, 259327, Note_off_c, 2, 74, 127
1, 259331, Note_off_c, 4, 76, 127
1, 259332, Note_on_c, 5, 77, 127
1, 259463, Note_on_c, 1, 73, 127
1, 259593, Note_off_c, 1, 73, 127
1, 259594, Note_on_c, 2, 74, 127
1, 259724, Note_off_c, 2, 74, 127
1, 259725, Note_on_c, 10, 69, 127
1, 259850, Note_off_c, 5, 77, 127
1, 259854, Note_off_c, 10, 69, 127
1, 259855, Note_on_c, 11, 70, 127
1, 259986, Note_on_c, 5, 65, 127
1, 260116, Note_off_c, 5, 65, 127
1, 260117, Note_on_c, 7, 67, 127
1, 260247, Note_off_c, 7, 67, 127
1, 260248, Note_on_c, 2, 62, 127
1, 260373, Note_off_c, 11, 70, 127
1, 260377, Note_off_c, 2, 62, 127
1, 260378, Note_on_c, 4, 64, 127
1, 260509, Note_on_c, 12, 59, 127
1, 260639, Note_off_c, 12, 59, 127
1, 260640, Note_on_c, 1, 61, 127
1, 260770, Note_off_c, 1, 61, 127
1, 260771, Note_on_c, 8, 56, 127
1, 260896, Note_off_c, 4, 64, 127
1, 260900, Note_off_c, 8, 56, 127
1, 260901, Note_on_c, 10, 57, 127
1, 261032, Note_on_c, 7, 67, 127
1, 261162, Note_off_c, 7, 67, 127
1, 261163, Note_on_c, 10, 69, 127
1, 261293, Note_off_c, 10, 69, 127
1, 261294, Note_on_c, 4, 64, 127
1, 261419, Note_off_c, 10, 57, 127
1, 261423, Note_off_c, 4, 64, 127
1, 261424, Note_on_c, 5, 65, 127
1, 261555, Note_on_c, 12, 59, 127
1, 261685, Note_off_c, 12, 59, 127
1, 261686, Note_on_c, 1, 61, 127
1, 261816, Note_off_c, 1, 61, 127
1, 261817, Note_on_c, 10, 57, 127
1, 261947, Note_off_c, 10, 57, 127
1, 261947, Note_off_c, 5, 65, 127
1, 261948, Note_on_c, 2, 62, 127
1, 261948, Note_on_c, 5, 65, 127
1, 262079, Note_on_c, 4, 52, 127
1, 262209, Note_off_c, 4, 52, 127
1, 262210, Note_on_c, 5, 53, 127
1, 262340, Note_off_c, 5, 53, 127
1, 262341, Note_on_c, 2, 50, 127
1, 262471, Note_off_c, 2, 50, 127
1, 262471, Note_off_c, 5, 65, 127
1, 262471, Note_off_c, 2, 62, 127
1, 262472, Note_on_c, 10, 57, 127
1, 262472, Note_on_c, 2, 62, 127
1, 262472, Note_on_c, 5, 65, 127
1, 262603, Note_on_c, 10, 45, 127
1, 262733, Note_off_c, 10, 45, 127
1, 262734, Note_on_c, 11, 46, 127
1, 262864, Note_off_c, 11, 46, 127
1, 262865, Note_on_c, 7, 43, 127
1, 262990, Note_off_c, 2, 62, 127
1, 262990, Note_off_c, 10, 57, 127
1, 262994, Note_off_c, 7, 43, 127
1, 262994, Note_off_c, 5, 65, 127
1, 262995, Note_on_c, 10, 45, 127
1, 262995, Note_on_c, 4, 64, 127
1, 263126, Note_on_c, 12, 59, 127
1, 263256, Note_off_c, 12, 59, 127
1, 263257, Note_on_c, 1, 61, 127
1, 263388, Note_on_c, 7, 55, 127
1, 263513, Note_off_c, 4, 64, 127
1, 263516, Note_off_c, 1, 61, 127
1, 263517, Note_off_c, 7, 55, 127
1, 263517, Note_off_c, 10, 45, 127
1, 263518, Note_on_c, 2, 50, 127
1, 263518, Note_on_c, 6, 54, 127
1, 263682, Note_on_c, 1, 61, 127
1, 263812, Note_off_c, 1, 61, 127
1, 263813, Note_on_c, 2, 62, 127
1, 263943, Note_off_c, 2, 62, 127
1, 263944, Note_on_c, 10, 57, 127
1, 264041, Note_off_c, 6, 54, 127
1, 264074, Note_off_c, 10, 57, 127
1, 264075, Note_on_c, 11, 58, 127
1, 264075, Note_on_c, 7, 55, 127
1, 264228, Note_on_c, 4, 64, 127
1, 264358, Note_off_c, 4, 64, 127
1, 264359, Note_on_c, 6, 66, 127
1, 264489, Note_off_c, 6, 66, 127
1, 264490, Note_on_c, 2, 62, 127
1, 264621, Note_on_c, 7, 67, 127
1, 264751, Note_off_c, 7, 67, 127
1, 264774, Note_on_c, 10, 69, 127
1, 264904, Note_off_c, 10, 69, 127
1, 264905, Note_on_c, 11, 70, 127
1, 265035, Note_off_c, 11, 70, 127
1, 265036, Note_on_c, 7, 67, 127
1, 265167, Note_on_c, 2, 74, 127
1, 265297, Note_off_c, 2, 74, 127
1, 265320, Note_on_c, 4, 76, 127
1, 265450, Note_off_c, 4, 76, 127
1, 265451, Note_on_c, 6, 78, 127
1, 265581, Note_off_c, 6, 78, 127
1, 265582, Note_on_c, 2, 74, 127
1, 265688, Note_off_c, 7, 67, 127
1, 265711, Note_off_c, 2, 74, 127
1, 265712, Note_on_c, 7, 79, 127
1, 265730, Note_off_c, 2, 62, 127
1, 265881, Note_on_c, 2, 74, 127
1, 265946, Note_on_c, 11, 70, 127
1, 265967, Note_off_c, 2, 50, 127
1, 266012, Note_on_c, 7, 67, 127
1, 266069, Note_off_c, 11, 70, 127
1, 266077, Note_on_c, 11, 70, 127
1, 266094, Note_off_c, 7, 79, 127
1, 266132, Note_off_c, 2, 74, 127
1, 266142, Note_off_c, 11, 70, 127
1, 266143, Note_on_c, 2, 74, 127
1, 266162, Note_off_c, 7, 55, 127
1, 266162, Note_off_c, 11, 58, 127
1, 266207, Note_off_c, 2, 74, 127
1, 266208, Note_off_c, 7, 67, 127
1, 266208, Note_on_c, 7, 79, 127
1, 266983, Note_on_c, 7, 67, 127
1, 267008, Note_off_c, 7, 79, 127
1, 267168, Note_off_c, 7, 67, 127
1, 267169, Note_on_c, 7, 55, 127
1, 267169, Note_on_c, 4, 52, 127
1, 267169, Note_on_c, 2, 62, 127
1, 267255, Note_off_c, 2, 62, 127
1, 267256, Note_on_c, 1, 61, 127
1, 267300, Note_on_c, 2, 62, 127
1, 267311, Note_off_c, 1, 61, 127
1, 267355, Note_off_c, 2, 62, 127
1, 267358, Note_on_c, 1, 61, 127
1, 267402, Note_on_c, 2, 62, 127
1, 267413, Note_off_c, 1, 61, 127
1, 267443, Note_on_c, 1, 61, 127
1, 267457, Note_off_c, 2, 62, 127
1, 267476, Note_on_c, 2, 62, 127
1, 267498, Note_off_c, 1, 61, 127
1, 267520, Note_on_c, 1, 61, 127
1, 267531, Note_off_c, 2, 62, 127
1, 267640, Note_off_c, 1, 61, 127
1, 267651, Note_on_c, 2, 62, 127
1, 267693, Note_off_c, 4, 52, 127
1, 267693, Note_off_c, 7, 55, 127
1, 267793, Note_off_c, 2, 62, 127
1, 267804, Note_on_c, 6, 54, 127
1, 267804, Note_on_c, 2, 50, 127
1, 267804, Note_on_c, 2, 62, 127
1, 268000, Note_on_c, 10, 57, 127
1, 268130, Note_off_c, 10, 57, 127
1, 268131, Note_on_c, 11, 58, 127
1, 268261, Note_off_c, 11, 58, 127
1, 268262, Note_on_c, 7, 55, 127
1, 268322, Note_off_c, 2, 50, 127
1, 268322, Note_off_c, 6, 54, 127
1, 268392, Note_off_c, 7, 55, 127
1, 268393, Note_on_c, 10, 57, 127
1, 268524, Note_on_c, 6, 54, 127
1, 268654, Note_off_c, 6, 54, 127
1, 268655, Note_on_c, 7, 55, 127
1, 268785, Note_off_c, 7, 55, 127
1, 268786, Note_on_c, 4, 52, 127
1, 268916, Note_off_c, 4, 52, 127
1, 268917, Note_on_c, 6, 54, 127
1, 269075, Note_on_c, 1, 49, 127
1, 269217, Note_off_c, 1, 49, 127
1, 269222, Note_on_c, 2, 50, 127
1, 269372, Note_off_c, 2, 62, 127
1, 269399, Note_on_c, 10, 45, 127
1, 269434, Note_off_c, 6, 54, 127
1, 269438, Note_off_c, 10, 57, 127
1, 269617, Note_off_c, 10, 45, 127
1, 269674, Note_on_c, 2, 38, 127
1, 269739, Note_off_c, 2, 50, 127
1, 272474, Note_off_c, 2, 38, 127
1, 273785, Note_on_c, 11, 46, 127
1, 273785, Note_on_c, 2, 50, 127
1, 273785, Note_on_c, 5, 53, 127
1, 273785, Note_on_c, 11, 58, 127
1, 273785, Note_on_c, 2, 62, 127
1, 273785, Note_on_c, 5, 65, 127
1, 275094, Note_off_c, 5, 65, 127
1, 275094, Note_off_c, 2, 62, 127
1, 275356, Note_on_c, 11, 70, 127
1, 275642, Note_off_c, 11, 70, 127
1, 275645, Note_on_c, 10, 69, 127
1, 275877, Note_off_c, 11, 58, 127
1, 275877, Note_off_c, 5, 53, 127
1, 275877, Note_off_c, 2, 50, 127
1, 275877, Note_off_c, 11, 46, 127
1, 275934, Note_off_c, 10, 69, 127
1, 275937, Note_on_c, 7, 67, 127
1, 276226, Note_off_c, 7, 67, 127
1, 276229, Note_on_c, 10, 57, 127
1, 276229, Note_on_c, 0, 48, 127
1, 276229, Note_on_c, 10, 45, 127
1, 276229, Note_on_c, 6, 66, 127
1, 276229, Note_on_c, 0, 60, 127
1, 276864, Note_off_c, 0, 60, 127
1, 276864, Note_off_c, 6, 66, 127
1, 276867, Note_on_c, 7, 67, 127
1, 277014, Note_on_c, 10, 69, 127
1, 277017, Note_off_c, 7, 67, 127
1, 277162, Note_on_c, 11, 70, 127
1, 277165, Note_off_c, 10, 69, 127
1, 277310, Note_on_c, 0, 72, 127
1, 277329, Note_off_c, 11, 70, 127
1, 277465, Note_off_c, 0, 72, 127
1, 277468, Note_on_c, 2, 74, 127
1, 277623, Note_off_c, 2, 74, 127
1, 277626, Note_on_c, 3, 75, 127
1, 277801, Note_on_c, 6, 66, 127
1, 277839, Note_off_c, 3, 75, 127
1, 277973, Note_off_c, 6, 66, 127
1, 277976, Note_on_c, 7, 67, 127
1, 278148, Note_off_c, 7, 67, 127
1, 278151, Note_on_c, 10, 69, 127
1, 278249, Note_off_c, 10, 45, 127
1, 278249, Note_off_c, 0, 48, 127
1, 278249, Note_off_c, 10, 57, 127
1, 278323, Note_off_c, 10, 69, 127
1, 278326, Note_on_c, 7, 43, 127
1, 278326, Note_on_c, 7, 55, 127
1, 278326, Note_on_c, 11, 70, 127
1, 278648, Note_on_c, 6, 66, 127
1, 278902, Note_off_c, 6, 66, 127
1, 278905, Note_on_c, 7, 67, 127
1, 279161, Note_on_c, 1, 61, 127
1, 279415, Note_off_c, 1, 61, 127
1, 279418, Note_on_c, 2, 62, 127
1, 279636, Note_off_c, 7, 55, 127
1, 279636, Note_off_c, 7, 43, 127
1, 279701, Note_on_c, 10, 57, 127
1, 279930, Note_off_c, 10, 57, 127
1, 279933, Note_on_c, 11, 58, 127
1, 280162, Note_off_c, 11, 58, 127
1, 280165, Note_on_c, 0, 60, 127
1, 280394, Note_off_c, 0, 60, 127
1, 280397, Note_on_c, 6, 54, 127
1, 280454, Note_off_c, 2, 62, 127
1, 280577, Note_off_c, 6, 54, 127
1, 280580, Note_on_c, 7, 55, 127
1, 280760, Note_off_c, 7, 55, 127
1, 280763, Note_on_c, 10, 57, 127
1, 280891, Note_off_c, 11, 70, 127
1, 280943, Note_off_c, 10, 57, 127
1, 280946, Note_on_c, 2, 50, 127
1, 280998, Note_off_c, 7, 67, 127
1, 281118, Note_off_c, 2, 50, 127
1, 281121, Note_on_c, 4, 52, 127
1, 281293, Note_off_c, 4, 52, 127
1, 281296, Note_on_c, 6, 54, 127
1, 281468, Note_off_c, 6, 54, 127
1, 281471, Note_on_c, 11, 46, 127
1, 281643, Note_off_c, 11, 46, 127
1, 281646, Note_on_c, 0, 48, 127
1, 281818, Note_off_c, 0, 48, 127
1, 281821, Note_on_c, 2, 50, 127
1, 281993, Note_off_c, 2, 50, 127
1, 281996, Note_on_c, 7, 43, 127
1, 282168, Note_off_c, 7, 43, 127
1, 282171, Note_on_c, 10, 45, 127
1, 282343, Note_off_c, 10, 45, 127
1, 282346, Note_on_c, 11, 46, 127
1, 282538, Note_off_c, 11, 46, 127
1, 282553, Note_on_c, 0, 36, 127
1, 282853, Note_on_c, 12, 71, 127
1, 283068, Note_off_c, 12, 71, 127
1, 283071, Note_on_c, 0, 72, 127
1, 283276, Note_off_c, 0, 72, 127
1, 283279, Note_on_c, 2, 74, 127
1, 283494, Note_off_c, 2, 74, 127
1, 283497, Note_on_c, 3, 75, 127
1, 283715, Note_on_c, 0, 72, 127
1, 283879, Note_off_c, 3, 75, 127
1, 283931, Note_off_c, 0, 72, 127
1, 283934, Note_on_c, 11, 70, 127
1, 284149, Note_off_c, 11, 70, 127
1, 284152, Note_on_c, 8, 68, 127
1, 284367, Note_off_c, 8, 68, 127
1, 284370, Note_on_c, 7, 67, 127
1, 284408, Note_off_c, 0, 36, 127
1, 284610, Note_on_c, 5, 65, 127
1, 284697, Note_off_c, 7, 67, 127
1, 284847, Note_off_c, 5, 65, 127
1, 284850, Note_on_c, 3, 63, 127
1, 285090, Note_off_c, 3, 63, 127
1, 285090, Note_on_c, 2, 62, 127
1, 285327, Note_off_c, 2, 62, 127
1, 285330, Note_on_c, 0, 60, 127
1, 285592, Note_on_c, 11, 58, 127
1, 285851, Note_off_c, 11, 58, 127
1, 285854, Note_on_c, 10, 57, 127
1, 286113, Note_off_c, 10, 57, 127
1, 286116, Note_on_c, 7, 55, 127
1, 286203, Note_off_c, 0, 60, 127
1, 286375, Note_off_c, 7, 55, 127
1, 286378, Note_on_c, 6, 54, 127
1, 286902, Note_on_c, 3, 75, 127
1, 287161, Note_off_c, 3, 75, 127
1, 287164, Note_on_c, 0, 72, 127
1, 287423, Note_off_c, 0, 72, 127
1, 287426, Note_on_c, 0, 72, 127
1, 287688, Note_off_c, 6, 54, 127
1, 287950, Note_on_c, 10, 69, 127
1, 287950, Note_on_c, 3, 63, 127
1, 287950, Note_on_c, 6, 54, 127
1, 288190, Note_off_c, 0, 72, 127
1, 288212, Note_on_c, 0, 72, 127
1, 288471, Note_off_c, 0, 72, 127
1, 288471, Note_off_c, 6, 54, 127
1, 288471, Note_off_c, 3, 63, 127
1, 288471, Note_off_c, 10, 69, 127
1, 288474, Note_on_c, 0, 72, 127
1, 288474, Note_on_c, 10, 69, 127
1, 288474, Note_on_c, 3, 63, 127
1, 288474, Note_on_c, 6, 54, 127
1, 288733, Note_off_c, 0, 72, 127
1, 288736, Note_on_c, 0, 72, 127
1, 288995, Note_off_c, 0, 72, 127
1, 288998, Note_on_c, 3, 75, 127
1, 289257, Note_off_c, 3, 75, 127
1, 289260, Note_on_c, 0, 72, 127
1, 289519, Note_off_c, 0, 72, 127
1, 289522, Note_on_c, 0, 72, 127
1, 289784, Note_off_c, 6, 54, 127
1, 289784, Note_off_c, 3, 63, 127
1, 289784, Note_off_c, 10, 69, 127
1, 290046, Note_on_c, 10, 69, 127
1, 290046, Note_on_c, 2, 62, 127
1, 290046, Note_on_c, 6, 54, 127
1, 290286, Note_off_c, 0, 72, 127
1, 290308, Note_on_c, 0, 72, 127
1, 290564, Note_off_c, 10, 69, 127
1, 290567, Note_off_c, 0, 72, 127
1, 290567, Note_off_c, 6, 54, 127
1, 290567, Note_off_c, 2, 62, 127
1, 290570, Note_on_c, 7, 67, 127
1, 290570, Note_on_c, 11, 70, 127
1, 290570, Note_on_c, 2, 62, 127
1, 290570, Note_on_c, 7, 55, 127
1, 291006, Note_off_c, 11, 70, 127
1, 291093, Note_on_c, 2, 74, 127
1, 291352, Note_off_c, 2, 74, 127
1, 291355, Note_on_c, 11, 70, 127
1, 291614, Note_off_c, 11, 70, 127
1, 291617, Note_on_c, 11, 70, 127
1, 291879, Note_off_c, 7, 55, 127
1, 291879, Note_off_c, 2, 62, 127
1, 291879, Note_off_c, 7, 67, 127
1, 292141, Note_on_c, 7, 67, 127
1, 292141, Note_on_c, 2, 62, 127
1, 292141, Note_on_c, 7, 55, 127
1, 292381, Note_off_c, 11, 70, 127
1, 292403, Note_on_c, 11, 70, 127
1, 292662, Note_off_c, 11, 70, 127
1, 292662, Note_off_c, 7, 55, 127
1, 292662, Note_off_c, 2, 62, 127
1, 292662, Note_off_c, 7, 67, 127
1, 292665, Note_on_c, 1, 61, 127
1, 292665, Note_on_c, 11, 70, 127
1, 292665, Note_on_c, 7, 67, 127
1, 292665, Note_on_c, 4, 52, 127
1, 292924, Note_off_c, 11, 70, 127
1, 292927, Note_on_c, 11, 70, 127
1, 293186, Note_off_c, 11, 70, 127
1, 293189, Note_on_c, 1, 73, 127
1, 293448, Note_off_c, 1, 73, 127
1, 293451, Note_on_c, 11, 70, 127
1, 293710, Note_off_c, 11, 70, 127
1, 293713, Note_on_c, 11, 70, 127
1, 293975, Note_off_c, 4, 52, 127
1, 293975, Note_off_c, 7, 67, 127
1, 293975, Note_off_c, 1, 61, 127
1, 294237, Note_on_c, 7, 67, 127
1, 294237, Note_on_c, 4, 52, 127
1, 294237, Note_on_c, 0, 60, 127
1, 294477, Note_off_c, 11, 70, 127
1, 294499, Note_on_c, 8, 68, 127
1, 294755, Note_off_c, 7, 67, 127
1, 294758, Note_off_c, 8, 68, 127
1, 294758, Note_off_c, 0, 60, 127
1, 294758, Note_off_c, 4, 52, 127
1, 294761, Note_on_c, 8, 68, 127
1, 294761, Note_on_c, 0, 60, 127
1, 294761, Note_on_c, 5, 53, 127
1, 294761, Note_on_c, 5, 65, 127
1, 295285, Note_on_c, 8, 80, 127
1, 295544, Note_off_c, 8, 80, 127
1, 295547, Note_on_c, 5, 77, 127
1, 295798, Note_off_c, 8, 68, 127
1, 295806, Note_off_c, 5, 77, 127
1, 295809, Note_on_c, 5, 77, 127
1, 296071, Note_off_c, 5, 65, 127
1, 296071, Note_off_c, 5, 53, 127
1, 296071, Note_off_c, 0, 60, 127
1, 296333, Note_on_c, 0, 72, 127
1, 296333, Note_on_c, 8, 68, 127
1, 296333, Note_on_c, 5, 65, 127
1, 296573, Note_off_c, 5, 77, 127
1, 296595, Note_on_c, 5, 77, 127
1, 296851, Note_off_c, 8, 68, 127
1, 296851, Note_off_c, 0, 72, 127
1, 296854, Note_off_c, 5, 77, 127
1, 296854, Note_off_c, 5, 65, 127
1, 296857, Note_on_c, 5, 77, 127
1, 296857, Note_on_c, 8, 68, 127
1, 296857, Note_on_c, 2, 74, 127
1, 296857, Note_on_c, 12, 59, 127
1, 297116, Note_off_c, 5, 77, 127
1, 297119, Note_on_c, 5, 77, 127
1, 297378, Note_off_c, 5, 77, 127
1, 297381, Note_on_c, 8, 80, 127
1, 297640, Note_off_c, 8, 80, 127
1, 297643, Note_on_c, 5, 77, 127
1, 297902, Note_off_c, 5, 77, 127
1, 297905, Note_on_c, 5, 77, 127
1, 298167, Note_off_c, 12, 59, 127
1, 298167, Note_off_c, 2, 74, 127
1, 298167, Note_off_c, 8, 68, 127
1, 298429, Note_on_c, 2, 74, 127
1, 298429, Note_on_c, 8, 68, 127
1, 298429, Note_on_c, 12, 59, 127
1, 298669, Note_off_c, 5, 77, 127
1, 298691, Note_on_c, 3, 75, 127
1, 298947, Note_off_c, 8, 68, 127
1, 298947, Note_off_c, 2, 74, 127
1, 298950, Note_off_c, 3, 75, 127
1, 298950, Note_off_c, 12, 59, 127
1, 298953, Note_on_c, 0, 72, 127
1, 298953, Note_on_c, 7, 67, 127
1, 298953, Note_on_c, 3, 75, 127
1, 298953, Note_on_c, 0, 60, 127
1, 299417, Note_off_c, 0, 60, 127
1, 299477, Note_on_c, 3, 63, 127
1, 299736, Note_off_c, 3, 63, 127
1, 299739, Note_on_c, 0, 60, 127
1, 299998, Note_off_c, 0, 60, 127
1, 300001, Note_on_c, 0, 60, 127
1, 300263, Note_off_c, 3, 75, 127
1, 300263, Note_off_c, 7, 67, 127
1, 300263, Note_off_c, 0, 72, 127
1, 300525, Note_on_c, 0, 72, 127
1, 300525, Note_on_c, 3, 75, 127
1, 300525, Note_on_c, 7, 67, 127
1, 300784, Note_off_c, 0, 60, 127
1, 300787, Note_on_c, 0, 60, 127
1, 301046, Note_off_c, 0, 60, 127
1, 301046, Note_off_c, 7, 67, 127
1, 301046, Note_off_c, 3, 75, 127
1, 301046, Note_off_c, 0, 72, 127
1, 301049, Note_on_c, 4, 76, 127
1, 301049, Note_on_c, 1, 73, 127
1, 301049, Note_on_c, 7, 67, 127
1, 301049, Note_on_c, 11, 58, 127
1, 301308, Note_off_c, 11, 58, 127
1, 301311, Note_on_c, 11, 58, 127
1, 301570, Note_off_c, 11, 58, 127
1, 301573, Note_on_c, 1, 61, 127
1, 301832, Note_off_c, 1, 61, 127
1, 301835, Note_on_c, 11, 58, 127
1, 302094, Note_off_c, 11, 58, 127
1, 302097, Note_on_c, 11, 58, 127
1, 302359, Note_off_c, 7, 67, 127
1, 302359, Note_off_c, 1, 73, 127
1, 302359, Note_off_c, 4, 76, 127
1, 302621, Note_on_c, 7, 67, 127
1, 302621, Note_on_c, 4, 76, 127
1, 302621, Note_on_c, 0, 72, 127
1, 302880, Note_off_c, 11, 58, 127
1, 302883, Note_on_c, 8, 56, 127
1, 303142, Note_off_c, 8, 56, 127
1, 303142, Note_off_c, 0, 72, 127
1, 303142, Note_off_c, 4, 76, 127
1, 303142, Note_off_c, 7, 67, 127
1, 303145, Note_on_c, 5, 65, 127
1, 303145, Note_on_c, 5, 77, 127
1, 303145, Note_on_c, 0, 72, 127
1, 303145, Note_on_c, 8, 56, 127
1, 303404, Note_off_c, 8, 56, 127
1, 303407, Note_on_c, 8, 56, 127
1, 303666, Note_off_c, 8, 56, 127
1, 303669, Note_on_c, 0, 60, 127
1, 303928, Note_off_c, 0, 60, 127
1, 303931, Note_on_c, 8, 56, 127
1, 304190, Note_off_c, 8, 56, 127
1, 304193, Note_on_c, 8, 56, 127
1, 304455, Note_off_c, 0, 72, 127
1, 304455, Note_off_c, 5, 77, 127
1, 304455, Note_off_c, 5, 65, 127
1, 304717, Note_on_c, 0, 72, 127
1, 304717, Note_on_c, 5, 77, 127
1, 304976, Note_off_c, 8, 56, 127
1, 304979, Note_on_c, 8, 56, 127
1, 305238, Note_off_c, 8, 56, 127
1, 305238, Note_off_c, 5, 77, 127
1, 305238, Note_off_c, 0, 72, 127
1, 305241, Note_on_c, 11, 82, 127
1, 305241, Note_on_c, 11, 70, 127
1, 305241, Note_on_c, 5, 77, 127
1, 305241, Note_on_c, 6, 54, 127
1, 305500, Note_off_c, 6, 54, 127
1, 305503, Note_on_c, 6, 54, 127
1, 305762, Note_off_c, 6, 54, 127
1, 305765, Note_on_c, 11, 58, 127
1, 306024, Note_off_c, 11, 58, 127
1, 306027, Note_on_c, 6, 54, 127
1, 306286, Note_off_c, 6, 54, 127
1, 306289, Note_on_c, 6, 54, 127
1, 306551, Note_off_c, 5, 77, 127
1, 306551, Note_off_c, 11, 70, 127
1, 306551, Note_off_c, 11, 82, 127
1, 306813, Note_on_c, 11, 82, 127
1, 306813, Note_on_c, 3, 75, 127
1, 306813, Note_on_c, 11, 70, 127
1, 307072, Note_off_c, 6, 54, 127
1, 307075, Note_on_c, 5, 53, 127
1, 307334, Note_off_c, 5, 53, 127
1, 307334, Note_off_c, 11, 70, 127
1, 307334, Note_off_c, 3, 75, 127
1, 307334, Note_off_c, 11, 82, 127
1, 307337, Note_on_c, 0, 72, 127
1, 307337, Note_on_c, 10, 81, 127
1, 307337, Note_on_c, 3, 75, 127
1, 307337, Note_on_c, 5, 53, 127
1, 307801, Note_off_c, 3, 75, 127
1, 307861, Note_on_c, 6, 78, 127
1, 308120, Note_off_c, 6, 78, 127
1, 308123, Note_on_c, 3, 75, 127
1, 308382, Note_off_c, 3, 75, 127
1, 308385, Note_on_c, 3, 75, 127
1, 308647, Note_off_c, 5, 53, 127
1, 308647, Note_off_c, 10, 81, 127
1, 308647, Note_off_c, 0, 72, 127
1, 308909, Note_on_c, 10, 81, 127
1, 308909, Note_on_c, 0, 72, 127
1, 308909, Note_on_c, 5, 53, 127
1, 308909, Note_on_c, 5, 65, 127
1, 309149, Note_off_c, 3, 75, 127
1, 309171, Note_on_c, 3, 75, 127
1, 309427, Note_off_c, 0, 72, 127
1, 309427, Note_off_c, 10, 81, 127
1, 309430, Note_off_c, 3, 75, 127
1, 309430, Note_off_c, 5, 65, 127
1, 309430, Note_off_c, 5, 53, 127
1, 309433, Note_on_c, 10, 81, 127
1, 309433, Note_on_c, 3, 75, 127
1, 309433, Note_on_c, 0, 72, 127
1, 309433, Note_on_c, 5, 53, 127
1, 309433, Note_on_c, 5, 65, 127
1, 309692, Note_off_c, 3, 75, 127
1, 309695, Note_on_c, 3, 75, 127
1, 309954, Note_off_c, 3, 75, 127
1, 309957, Note_on_c, 6, 78, 127
1, 310216, Note_off_c, 6, 78, 127
1, 310219, Note_on_c, 3, 75, 127
1, 310478, Note_off_c, 3, 75, 127
1, 310481, Note_on_c, 3, 75, 127
1, 310743, Note_off_c, 5, 65, 127
1, 310743, Note_off_c, 5, 53, 127
1, 310743, Note_off_c, 0, 72, 127
1, 310743, Note_off_c, 10, 81, 127
1, 311005, Note_on_c, 10, 81, 127
1, 311005, Note_on_c, 0, 72, 127
1, 311005, Note_on_c, 5, 53, 127
1, 311005, Note_on_c, 5, 65, 127
1, 311245, Note_off_c, 3, 75, 127
1, 311267, Note_on_c, 3, 75, 127
1, 311523, Note_off_c, 0, 72, 127
1, 311523, Note_off_c, 10, 81, 127
1, 311526, Note_off_c, 3, 75, 127
1, 311526, Note_off_c, 5, 65, 127
1, 311526, Note_off_c, 5, 53, 127
1, 311529, Note_on_c, 8, 80, 127
1, 311529, Note_on_c, 2, 74, 127
1, 311529, Note_on_c, 11, 70, 127
1, 311529, Note_on_c, 5, 65, 127
1, 311529, Note_on_c, 11, 58, 127
1, 311993, Note_off_c, 8, 80, 127
1, 312053, Note_on_c, 12, 83, 127
1, 312312, Note_off_c, 12, 83, 127
1, 312315, Note_on_c, 8, 80, 127
1, 312574, Note_off_c, 8, 80, 127
1, 312577, Note_on_c, 8, 80, 127
1, 312839, Note_off_c, 11, 58, 127
1, 312839, Note_off_c, 5, 65, 127
1, 312839, Note_off_c, 11, 70, 127
1, 312839, Note_off_c, 2, 74, 127
1, 313101, Note_on_c, 11, 70, 127
1, 313101, Note_on_c, 2, 74, 127
1, 313101, Note_on_c, 5, 65, 127
1, 313101, Note_on_c, 11, 58, 127
1, 313341, Note_off_c, 8, 80, 127
1, 313363, Note_on_c, 8, 80, 127
1, 313619, Note_off_c, 2, 74, 127
1, 313619, Note_off_c, 11, 70, 127
1, 313622, Note_off_c, 8, 80, 127
1, 313622, Note_off_c, 11, 58, 127
1, 313622, Note_off_c, 5, 65, 127
1, 313625, Note_on_c, 2, 74, 127
1, 313625, Note_on_c, 11, 70, 127
1, 313625, Note_on_c, 8, 80, 127
1, 313625, Note_on_c, 5, 65, 127
1, 313625, Note_on_c, 11, 58, 127
1, 313884, Note_off_c, 8, 80, 127
1, 313887, Note_on_c, 8, 80, 127
1, 314146, Note_off_c, 8, 80, 127
1, 314149, Note_on_c, 12, 83, 127
1, 314408, Note_off_c, 12, 83, 127
1, 314411, Note_on_c, 8, 80, 127
1, 314670, Note_off_c, 8, 80, 127
1, 314673, Note_on_c, 8, 80, 127
1, 314935, Note_off_c, 11, 58, 127
1, 314935, Note_off_c, 5, 65, 127
1, 314935, Note_off_c, 11, 70, 127
1, 314935, Note_off_c, 2, 74, 127
1, 315197, Note_on_c, 2, 74, 127
1, 315197, Note_on_c, 11, 70, 127
1, 315197, Note_on_c, 5, 65, 127
1, 315197, Note_on_c, 11, 58, 127
1, 315437, Note_off_c, 8, 80, 127
1, 315459, Note_on_c, 6, 78, 127
1, 315715, Note_off_c, 11, 70, 127
1, 315715, Note_off_c, 2, 74, 127
1, 315718, Note_off_c, 6, 78, 127
1, 315718, Note_off_c, 11, 58, 127
1, 315718, Note_off_c, 5, 65, 127
1, 315721, Note_on_c, 11, 70, 127
1, 315721, Note_on_c, 3, 75, 127
1, 315721, Note_on_c, 6, 78, 127
1, 315721, Note_on_c, 3, 63, 127
1, 316185, Note_off_c, 3, 63, 127
1, 316245, Note_on_c, 6, 66, 127
1, 316504, Note_off_c, 6, 66, 127
1, 316507, Note_on_c, 3, 63, 127
1, 316766, Note_off_c, 3, 63, 127
1, 316769, Note_on_c, 3, 63, 127
1, 317031, Note_off_c, 6, 78, 127
1, 317031, Note_off_c, 3, 75, 127
1, 317031, Note_off_c, 11, 70, 127
1, 317293, Note_on_c, 6, 78, 127
1, 317293, Note_on_c, 3, 75, 127
1, 317293, Note_on_c, 11, 70, 127
1, 317552, Note_off_c, 3, 63, 127
1, 317555, Note_on_c, 3, 63, 127
1, 317814, Note_off_c, 3, 63, 127
1, 317814, Note_off_c, 11, 70, 127
1, 317814, Note_off_c, 3, 75, 127
1, 317814, Note_off_c, 6, 78, 127
1, 317817, Note_on_c, 0, 72, 127
1, 317817, Note_on_c, 6, 78, 127
1, 317817, Note_on_c, 3, 75, 127
1, 317817, Note_on_c, 0, 60, 127
1, 318076, Note_off_c, 0, 60, 127
1, 318079, Note_on_c, 0, 60, 127
1, 318338, Note_off_c, 0, 60, 127
1, 318341, Note_on_c, 3, 63, 127
1, 318600, Note_off_c, 3, 63, 127
1, 318603, Note_on_c, 0, 60, 127
1, 318862, Note_off_c, 0, 60, 127
1, 318865, Note_on_c, 0, 60, 127
1, 319127, Note_off_c, 3, 75, 127
1, 319127, Note_off_c, 6, 78, 127
1, 319127, Note_off_c, 0, 72, 127
1, 319389, Note_on_c, 3, 75, 127
1, 319389, Note_on_c, 6, 66, 127
1, 319648, Note_off_c, 0, 60, 127
1, 319651, Note_on_c, 0, 60, 127
1, 319910, Note_off_c, 0, 60, 127
1, 319910, Note_off_c, 6, 66, 127
1, 319910, Note_off_c, 3, 75, 127
1, 319913, Note_on_c, 0, 72, 127
1, 319913, Note_on_c, 6, 66, 127
1, 319913, Note_on_c, 3, 75, 127
1, 319913, Note_on_c, 10, 57, 127
1, 320377, Note_off_c, 3, 75, 127
1, 320437, Note_on_c, 6, 78, 127
1, 320696, Note_off_c, 6, 78, 127
1, 320699, Note_on_c, 3, 75, 127
1, 320958, Note_off_c, 3, 75, 127
1, 320961, Note_on_c, 3, 75, 127
1, 321223, Note_off_c, 10, 57, 127
1, 321223, Note_off_c, 6, 66, 127
1, 321223, Note_off_c, 0, 72, 127
1, 321485, Note_on_c, 0, 72, 127
1, 321485, Note_on_c, 6, 66, 127
1, 321485, Note_on_c, 10, 57, 127
1, 321725, Note_off_c, 3, 75, 127
1, 321747, Note_on_c, 3, 75, 127
1, 322003, Note_off_c, 6, 66, 127
1, 322003, Note_off_c, 0, 72, 127
1, 322006, Note_off_c, 3, 75, 127
1, 322006, Note_off_c, 10, 57, 127
1, 322009, Note_on_c, 0, 72, 127
1, 322009, Note_on_c, 6, 66, 127
1, 322009, Note_on_c, 3, 75, 127
1, 322009, Note_on_c, 10, 57, 127
1, 322268, Note_off_c, 3, 75, 127
1, 322271, Note_on_c, 3, 75, 127
1, 322530, Note_off_c, 3, 75, 127
1, 322533, Note_on_c, 6, 78, 127
1, 322792, Note_off_c, 6, 78, 127
1, 322795, Note_on_c, 3, 75, 127
1, 323054, Note_off_c, 3, 75, 127
1, 323057, Note_on_c, 3, 75, 127
1, 323319, Note_off_c, 10, 57, 127
1, 323319, Note_off_c, 6, 66, 127
1, 323319, Note_off_c, 0, 72, 127
1, 323581, Note_on_c, 0, 72, 127
1, 323581, Note_on_c, 6, 66, 127
1, 323581, Note_on_c, 10, 57, 127
1, 323821, Note_off_c, 3, 75, 127
1, 323843, Note_on_c, 1, 73, 127
1, 324099, Note_off_c, 6, 66, 127
1, 324099, Note_off_c, 0, 72, 127
1, 324102, Note_off_c, 1, 73, 127
1, 324102, Note_off_c, 10, 57, 127
1, 324105, Note_on_c, 5, 65, 127
1, 324105, Note_on_c, 11, 70, 127
1, 324105, Note_on_c, 1, 73, 127
1, 324105, Note_on_c, 11, 58, 127
1, 324569, Note_off_c, 1, 73, 127
1, 324624, Note_off_c, 11, 70, 127
1, 324629, Note_on_c, 1, 73, 127
1, 324888, Note_off_c, 1, 73, 127
1, 324891, Note_on_c, 11, 70, 127
1, 325150, Note_off_c, 11, 70, 127
1, 325153, Note_on_c, 11, 70, 127
1, 325415, Note_off_c, 11, 58, 127
1, 325415, Note_off_c, 5, 65, 127
1, 325677, Note_on_c, 5, 77, 127
1, 325677, Note_on_c, 11, 58, 127
1, 325677, Note_on_c, 1, 61, 127
1, 325917, Note_off_c, 11, 70, 127
1, 325939, Note_on_c, 11, 70, 127
1, 326195, Note_off_c, 5, 77, 127
1, 326198, Note_off_c, 11, 70, 127
1, 326198, Note_off_c, 1, 61, 127
1, 326198, Note_off_c, 11, 58, 127
1, 326201, Note_on_c, 11, 70, 127
1, 326201, Note_on_c, 7, 79, 127
1, 326201, Note_on_c, 4, 52, 127
1, 326201, Note_on_c, 1, 61, 127
1, 326460, Note_off_c, 11, 70, 127
1, 326463, Note_on_c, 11, 70, 127
1, 326722, Note_off_c, 11, 70, 127
1, 326725, Note_on_c, 1, 73, 127
1, 326984, Note_off_c, 1, 73, 127
1, 326987, Note_on_c, 11, 70, 127
1, 327246, Note_off_c, 11, 70, 127
1, 327249, Note_on_c, 11, 70, 127
1, 327511, Note_off_c, 1, 61, 127
1, 327511, Note_off_c, 4, 52, 127
1, 327511, Note_off_c, 7, 79, 127
1, 327770, Note_off_c, 11, 70, 127
1, 327773, Note_on_c, 7, 79, 127
1, 327773, Note_on_c, 11, 70, 127
1, 327773, Note_on_c, 4, 52, 127
1, 327773, Note_on_c, 0, 60, 127
1, 328032, Note_off_c, 11, 70, 127
1, 328035, Note_on_c, 8, 68, 127
1, 328291, Note_off_c, 7, 79, 127
1, 328294, Note_off_c, 8, 68, 127
1, 328294, Note_off_c, 0, 60, 127
1, 328294, Note_off_c, 4, 52, 127
1, 328297, Note_on_c, 8, 68, 127
1, 328297, Note_on_c, 7, 79, 127
1, 328297, Note_on_c, 5, 53, 127
1, 328297, Note_on_c, 0, 60, 127
1, 328818, Note_off_c, 7, 79, 127
1, 328821, Note_on_c, 5, 77, 127
1, 329080, Note_off_c, 5, 77, 127
1, 329083, Note_on_c, 3, 75, 127
1, 329334, Note_off_c, 0, 60, 127
1, 329334, Note_off_c, 5, 53, 127
1, 329334, Note_off_c, 8, 68, 127
1, 329342, Note_off_c, 3, 75, 127
1, 329345, Note_on_c, 1, 73, 127
1, 329607, Note_on_c, 5, 77, 127
1, 329672, Note_off_c, 1, 73, 127
1, 329866, Note_off_c, 5, 77, 127
1, 329869, Note_on_c, 5, 77, 127
1, 329869, Note_on_c, 8, 68, 127
1, 329869, Note_on_c, 5, 65, 127
1, 329869, Note_on_c, 5, 53, 127
1, 330128, Note_off_c, 5, 77, 127
1, 330131, Note_on_c, 1, 73, 127
1, 330387, Note_off_c, 8, 68, 127
1, 330390, Note_off_c, 1, 73, 127
1, 330390, Note_off_c, 5, 53, 127
1, 330390, Note_off_c, 5, 65, 127
1, 330393, Note_on_c, 12, 71, 127
1, 330393, Note_on_c, 7, 67, 127
1, 330393, Note_on_c, 7, 55, 127
1, 330393, Note_on_c, 5, 65, 127
1, 330652, Note_off_c, 12, 71, 127
1, 330655, Note_on_c, 2, 74, 127
1, 330914, Note_off_c, 2, 74, 127
1, 330917, Note_on_c, 2, 74, 127
1, 331157, Note_off_c, 7, 67, 127
1, 331176, Note_off_c, 2, 74, 127
1, 331179, Note_on_c, 12, 71, 127
1, 331438, Note_off_c, 12, 71, 127
1, 331441, Note_on_c, 7, 67, 127
1, 331700, Note_off_c, 7, 67, 127
1, 331703, Note_off_c, 5, 65, 127
1, 331703, Note_off_c, 7, 55, 127
1, 331703, Note_on_c, 12, 71, 127
1, 331962, Note_off_c, 12, 71, 127
1, 331965, Note_on_c, 12, 71, 127
1, 331965, Note_on_c, 7, 67, 127
1, 331965, Note_on_c, 5, 65, 127
1, 331965, Note_on_c, 7, 55, 127
1, 332224, Note_off_c, 7, 67, 127
1, 332224, Note_off_c, 12, 71, 127
1, 332227, Note_on_c, 7, 67, 127
1, 332486, Note_off_c, 7, 67, 127
1, 332486, Note_off_c, 7, 55, 127
1, 332486, Note_off_c, 5, 65, 127
1, 332489, Note_on_c, 0, 72, 127
1, 332489, Note_on_c, 7, 67, 127
1, 332489, Note_on_c, 3, 63, 127
1, 332489, Note_on_c, 7, 55, 127
1, 332745, Note_off_c, 7, 67, 127
1, 332748, Note_off_c, 3, 63, 127
1, 332751, Note_on_c, 7, 67, 127
1, 333010, Note_off_c, 7, 67, 127
1, 333013, Note_on_c, 7, 67, 127
1, 333275, Note_on_c, 3, 63, 127
1, 333531, Note_off_c, 7, 67, 127
1, 333534, Note_off_c, 3, 63, 127
1, 333537, Note_on_c, 0, 60, 127
1, 333796, Note_off_c, 0, 60, 127
1, 333799, Note_off_c, 7, 55, 127
1, 333799, Note_off_c, 0, 72, 127
1, 333799, Note_on_c, 3, 63, 127
1, 334058, Note_off_c, 3, 63, 127
1, 334061, Note_on_c, 0, 72, 127
1, 334061, Note_on_c, 7, 67, 127
1, 334061, Note_on_c, 3, 63, 127
1, 334061, Note_on_c, 7, 55, 127
1, 334320, Note_off_c, 3, 63, 127
1, 334323, Note_on_c, 0, 60, 127
1, 334579, Note_off_c, 7, 55, 127
1, 334582, Note_off_c, 0, 60, 127
1, 334582, Note_off_c, 7, 67, 127
1, 334582, Note_off_c, 0, 72, 127
1, 334585, Note_on_c, 10, 69, 127
1, 334585, Note_on_c, 0, 72, 127
1, 334585, Note_on_c, 6, 54, 127
1, 334585, Note_on_c, 10, 57, 127
1, 335049, Note_off_c, 0, 72, 127
1, 335109, Note_on_c, 3, 75, 127
1, 335368, Note_off_c, 3, 75, 127
1, 335371, Note_on_c, 0, 72, 127
1, 335622, Note_off_c, 10, 69, 127
1, 335630, Note_off_c, 0, 72, 127
1, 335633, Note_on_c, 0, 72, 127
1, 335895, Note_off_c, 10, 57, 127
1, 335895, Note_off_c, 6, 54, 127
1, 336157, Note_on_c, 10, 69, 127
1, 336157, Note_on_c, 6, 54, 127
1, 336157, Note_on_c, 3, 63, 127
1, 336397, Note_off_c, 0, 72, 127
1, 336419, Note_on_c, 0, 72, 127
1, 336675, Note_off_c, 10, 69, 127
1, 336678, Note_off_c, 0, 72, 127
1, 336678, Note_off_c, 3, 63, 127
1, 336678, Note_off_c, 6, 54, 127
1, 336681, Note_on_c, 0, 72, 127
1, 336681, Note_on_c, 10, 69, 127
1, 336681, Note_on_c, 6, 54, 127
1, 336681, Note_on_c, 3, 63, 127
1, 336940, Note_off_c, 0, 72, 127
1, 336943, Note_on_c, 0, 72, 127
1, 337202, Note_off_c, 0, 72, 127
1, 337205, Note_on_c, 3, 75, 127
1, 337464, Note_off_c, 3, 75, 127
1, 337467, Note_on_c, 0, 72, 127
1, 337726, Note_off_c, 0, 72, 127
1, 337729, Note_on_c, 0, 72, 127
1, 337991, Note_off_c, 3, 63, 127
1, 337991, Note_off_c, 6, 54, 127
1, 337991, Note_off_c, 10, 69, 127
1, 338253, Note_on_c, 10, 69, 127
1, 338253, Note_on_c, 6, 54, 127
1, 338253, Note_on_c, 2, 62, 127
1, 338493, Note_off_c, 0, 72, 127
1, 338515, Note_on_c, 11, 70, 127
1, 338771, Note_off_c, 10, 69, 127
1, 338774, Note_off_c, 11, 70, 127
1, 338774, Note_off_c, 2, 62, 127
1, 338774, Note_off_c, 6, 54, 127
1, 338777, Note_on_c, 11, 70, 127
1, 338777, Note_on_c, 7, 67, 127
1, 338777, Note_on_c, 2, 62, 127
1, 338777, Note_on_c, 7, 55, 127
1, 339241, Note_off_c, 11, 70, 127
1, 339296, Note_off_c, 7, 67, 127
1, 339301, Note_on_c, 11, 70, 127
1, 339560, Note_off_c, 11, 70, 127
1, 339563, Note_on_c, 7, 67, 127
1, 339822, Note_off_c, 7, 67, 127
1, 339825, Note_on_c, 7, 67, 127
1, 340087, Note_off_c, 7, 55, 127
1, 340087, Note_off_c, 2, 62, 127
1, 340349, Note_on_c, 2, 74, 127
1, 340349, Note_on_c, 7, 55, 127
1, 340349, Note_on_c, 11, 58, 127
1, 340589, Note_off_c, 7, 67, 127
1, 340611, Note_on_c, 7, 67, 127
1, 340867, Note_off_c, 2, 74, 127
1, 340870, Note_off_c, 7, 67, 127
1, 340870, Note_off_c, 11, 58, 127
1, 340870, Note_off_c, 7, 55, 127
1, 340873, Note_on_c, 4, 76, 127
1, 340873, Note_on_c, 7, 67, 127
1, 340873, Note_on_c, 1, 49, 127
1, 340873, Note_on_c, 11, 58, 127
1, 341132, Note_off_c, 7, 67, 127
1, 341135, Note_on_c, 7, 67, 127
1, 341394, Note_off_c, 7, 67, 127
1, 341397, Note_on_c, 11, 70, 127
1, 341656, Note_off_c, 11, 70, 127
1, 341659, Note_on_c, 7, 67, 127
1, 341918, Note_off_c, 7, 67, 127
1, 341921, Note_on_c, 7, 67, 127
1, 342183, Note_off_c, 11, 58, 127
1, 342183, Note_off_c, 1, 49, 127
1, 342183, Note_off_c, 4, 76, 127
1, 342445, Note_on_c, 4, 76, 127
1, 342445, Note_on_c, 1, 49, 127
1, 342445, Note_on_c, 10, 57, 127
1, 342685, Note_off_c, 7, 67, 127
1, 342707, Note_on_c, 7, 67, 127
1, 342963, Note_off_c, 4, 76, 127
1, 342966, Note_off_c, 7, 67, 127
1, 342966, Note_off_c, 10, 57, 127
1, 342966, Note_off_c, 1, 49, 127
1, 342969, Note_on_c, 6, 66, 127
1, 342969, Note_on_c, 10, 57, 127
1, 342969, Note_on_c, 2, 50, 127
1, 343253, Note_on_c, 2, 74, 127
1, 343512, Note_off_c, 2, 74, 127
1, 343515, Note_on_c, 3, 75, 127
1, 343774, Note_off_c, 3, 75, 127
1, 343777, Note_on_c, 2, 74, 127
1, 344006, Note_off_c, 2, 50, 127
1, 344006, Note_off_c, 10, 57, 127
1, 344006, Note_off_c, 6, 66, 127
1, 344036, Note_off_c, 2, 74, 127
1, 344039, Note_on_c, 0, 72, 127
1, 344298, Note_off_c, 0, 72, 127
1, 344301, Note_on_c, 2, 74, 127
1, 344560, Note_off_c, 2, 74, 127
1, 344563, Note_on_c, 7, 67, 127
1, 344563, Note_on_c, 11, 70, 127
1, 344563, Note_on_c, 7, 55, 127
1, 344563, Note_on_c, 3, 51, 127
1, 344822, Note_off_c, 7, 55, 127
1, 344822, Note_off_c, 11, 70, 127
1, 344825, Note_on_c, 0, 72, 127
1, 344825, Note_on_c, 10, 57, 127
1, 345081, Note_off_c, 3, 51, 127
1, 345081, Note_off_c, 7, 67, 127
1, 345084, Note_off_c, 10, 57, 127
1, 345084, Note_off_c, 0, 72, 127
1, 345087, Note_on_c, 2, 74, 127
1, 345087, Note_on_c, 7, 67, 127
1, 345087, Note_on_c, 11, 58, 127
1, 345087, Note_on_c, 2, 50, 127
1, 345346, Note_off_c, 11, 58, 127
1, 345346, Note_off_c, 7, 67, 127
1, 345349, Note_on_c, 7, 67, 127
1, 345349, Note_on_c, 11, 58, 127
1, 345608, Note_off_c, 11, 58, 127
1, 345608, Note_off_c, 7, 67, 127
1, 345611, Note_on_c, 11, 70, 127
1, 345611, Note_on_c, 2, 62, 127
1, 345870, Note_off_c, 2, 62, 127
1, 345870, Note_off_c, 11, 70, 127
1, 345873, Note_on_c, 7, 67, 127
1, 345873, Note_on_c, 11, 58, 127
1, 346132, Note_off_c, 11, 58, 127
1, 346132, Note_off_c, 7, 67, 127
1, 346135, Note_on_c, 6, 66, 127
1, 346135, Note_on_c, 10, 57, 127
1, 346397, Note_off_c, 2, 50, 127
1, 346397, Note_off_c, 2, 74, 127
1, 346678, Note_off_c, 10, 57, 127
1, 346705, Note_on_c, 10, 57, 127
1, 346705, Note_on_c, 2, 50, 127
1, 346705, Note_on_c, 2, 74, 127
1, 346899, Note_off_c, 6, 66, 127
1, 346967, Note_on_c, 6, 66, 127
1, 347210, Note_off_c, 2, 74, 127
1, 347226, Note_off_c, 6, 66, 127
1, 347226, Note_off_c, 2, 50, 127
1, 347226, Note_off_c, 10, 57, 127
1, 347229, Note_on_c, 12, 59, 127
1, 347229, Note_on_c, 8, 56, 127
1, 347229, Note_on_c, 2, 74, 127
1, 347229, Note_on_c, 5, 65, 127
1, 347472, Note_off_c, 2, 74, 127
1, 347491, Note_on_c, 2, 74, 127
1, 347750, Note_off_c, 2, 74, 127
1, 347753, Note_on_c, 5, 77, 127
1, 348012, Note_off_c, 5, 77, 127
1, 348015, Note_on_c, 2, 74, 127
1, 348274, Note_off_c, 2, 74, 127
1, 348277, Note_on_c, 2, 74, 127
1, 348539, Note_off_c, 5, 65, 127
1, 348539, Note_off_c, 8, 56, 127
1, 348539, Note_off_c, 12, 59, 127
1, 348801, Note_on_c, 12, 59, 127
1, 348801, Note_on_c, 8, 56, 127
1, 348801, Note_on_c, 4, 64, 127
1, 349041, Note_off_c, 2, 74, 127
1, 349063, Note_on_c, 2, 74, 127
1, 349319, Note_off_c, 4, 64, 127
1, 349322, Note_off_c, 2, 74, 127
1, 349322, Note_off_c, 8, 56, 127
1, 349322, Note_off_c, 12, 59, 127
1, 349325, Note_on_c, 10, 57, 127
1, 349325, Note_on_c, 0, 60, 127
1, 349325, Note_on_c, 4, 64, 127
1, 349325, Note_on_c, 0, 72, 127
1, 349584, Note_off_c, 0, 72, 127
1, 349587, Note_on_c, 0, 72, 127
1, 349846, Note_off_c, 0, 72, 127
1, 349849, Note_on_c, 4, 76, 127
1, 350108, Note_off_c, 4, 76, 127
1, 350111, Note_on_c, 0, 72, 127
1, 350370, Note_off_c, 0, 72, 127
1, 350373, Note_on_c, 0, 72, 127
1, 350635, Note_off_c, 4, 64, 127
1, 350635, Note_off_c, 0, 60, 127
1, 350635, Note_off_c, 10, 57, 127
1, 350897, Note_on_c, 0, 60, 127
1, 350897, Note_on_c, 10, 57, 127
1, 350897, Note_on_c, 4, 64, 127
1, 351137, Note_off_c, 0, 72, 127
1, 351159, Note_on_c, 0, 72, 127
1, 351415, Note_off_c, 4, 64, 127
1, 351418, Note_off_c, 0, 72, 127
1, 351418, Note_off_c, 10, 57, 127
1, 351418, Note_off_c, 0, 60, 127
1, 351421, Note_on_c, 2, 50, 127
1, 351421, Note_on_c, 2, 62, 127
1, 351421, Note_on_c, 11, 70, 127
1, 351421, Note_on_c, 5, 65, 127
1, 351680, Note_off_c, 11, 70, 127
1, 351683, Note_on_c, 11, 70, 127
1, 351942, Note_off_c, 11, 70, 127
1, 351945, Note_on_c, 2, 74, 127
1, 352204, Note_off_c, 2, 74, 127
1, 352207, Note_on_c, 11, 70, 127
1, 352466, Note_off_c, 11, 70, 127
1, 352469, Note_on_c, 11, 70, 127
1, 352728, Note_off_c, 11, 70, 127
1, 352731, Note_on_c, 2, 74, 127
1, 352990, Note_off_c, 2, 74, 127
1, 352993, Note_on_c, 2, 74, 127
1, 353252, Note_off_c, 2, 74, 127
1, 353255, Note_on_c, 11, 70, 127
1, 353481, Note_off_c, 11, 70, 127
1, 353484, Note_off_c, 5, 65, 127
1, 353489, Note_off_c, 2, 62, 127
1, 353514, Note_off_c, 2, 50, 127
1, 353517, Note_on_c, 6, 78, 127
1, 353779, Note_on_c, 10, 69, 127
1, 354035, Note_off_c, 6, 78, 127
1, 354038, Note_off_c, 10, 69, 127
1, 354041, Note_on_c, 0, 60, 127
1, 354041, Note_on_c, 6, 54, 127
1, 354041, Note_on_c, 3, 51, 127
1, 354041, Note_on_c, 0, 72, 127
1, 354300, Note_off_c, 0, 72, 127
1, 354303, Note_on_c, 10, 69, 127
1, 354562, Note_off_c, 10, 69, 127
1, 354565, Note_on_c, 10, 69, 127
1, 354805, Note_off_c, 3, 51, 127
1, 354805, Note_off_c, 6, 54, 127
1, 354805, Note_off_c, 0, 60, 127
1, 355089, Note_on_c, 12, 59, 127
1, 355089, Note_on_c, 3, 51, 127
1, 355089, Note_on_c, 6, 54, 127
1, 355348, Note_off_c, 10, 69, 127
1, 355351, Note_on_c, 10, 69, 127
1, 355610, Note_off_c, 10, 69, 127
1, 355610, Note_off_c, 6, 54, 127
1, 355610, Note_off_c, 3, 51, 127
1, 355610, Note_off_c, 12, 59, 127
1, 355613, Note_on_c, 0, 60, 127
1, 355613, Note_on_c, 4, 52, 127
1, 355613, Note_on_c, 10, 69, 127
1, 355872, Note_off_c, 10, 69, 127
1, 355872, Note_off_c, 0, 60, 127
1, 355875, Note_on_c, 0, 60, 127
1, 355875, Note_on_c, 10, 69, 127
1, 356134, Note_off_c, 10, 69, 127
1, 356134, Note_off_c, 0, 60, 127
1, 356137, Note_on_c, 4, 64, 127
1, 356137, Note_on_c, 0, 72, 127
1, 356396, Note_off_c, 0, 72, 127
1, 356396, Note_off_c, 4, 64, 127
1, 356399, Note_on_c, 0, 60, 127
1, 356399, Note_on_c, 10, 69, 127
1, 356658, Note_off_c, 10, 69, 127
1, 356658, Note_off_c, 0, 60, 127
1, 356661, Note_on_c, 12, 59, 127
1, 356661, Note_on_c, 8, 68, 127
1, 357316, Note_off_c, 8, 68, 127
1, 357444, Note_off_c, 12, 59, 127
1, 357447, Note_on_c, 12, 59, 127
1, 357447, Note_on_c, 8, 68, 127
1, 357706, Note_off_c, 8, 68, 127
1, 357706, Note_off_c, 12, 59, 127
1, 357706, Note_off_c, 4, 52, 127
1, 357709, Note_on_c, 11, 58, 127
1, 357709, Note_on_c, 2, 50, 127
1, 357709, Note_on_c, 7, 67, 127
1, 357709, Note_on_c, 4, 64, 127
1, 357968, Note_off_c, 7, 67, 127
1, 357971, Note_on_c, 7, 67, 127
1, 358230, Note_off_c, 7, 67, 127
1, 358233, Note_on_c, 11, 70, 127
1, 358492, Note_off_c, 11, 70, 127
1, 358495, Note_on_c, 7, 67, 127
1, 358754, Note_off_c, 7, 67, 127
1, 358757, Note_on_c, 7, 67, 127
1, 359019, Note_off_c, 4, 64, 127
1, 359019, Note_off_c, 2, 50, 127
1, 359019, Note_off_c, 11, 58, 127
1, 359281, Note_on_c, 2, 50, 127
1, 359281, Note_on_c, 11, 58, 127
1, 359281, Note_on_c, 4, 64, 127
1, 359521, Note_off_c, 7, 67, 127
1, 359543, Note_on_c, 7, 67, 127
1, 359799, Note_off_c, 4, 64, 127
1, 359802, Note_off_c, 7, 67, 127
1, 359802, Note_off_c, 11, 58, 127
1, 359802, Note_off_c, 2, 50, 127
1, 359805, Note_on_c, 11, 58, 127
1, 359805, Note_on_c, 1, 49, 127
1, 359805, Note_on_c, 4, 64, 127
1, 359805, Note_on_c, 7, 67, 127
1, 360064, Note_off_c, 7, 67, 127
1, 360067, Note_on_c, 7, 67, 127
1, 360326, Note_off_c, 7, 67, 127
1, 360329, Note_on_c, 11, 70, 127
1, 360588, Note_off_c, 11, 70, 127
1, 360591, Note_on_c, 7, 67, 127
1, 360850, Note_off_c, 7, 67, 127
1, 360853, Note_on_c, 7, 67, 127
1, 361115, Note_off_c, 4, 64, 127
1, 361115, Note_off_c, 1, 49, 127
1, 361115, Note_off_c, 11, 58, 127
1, 361377, Note_on_c, 10, 57, 127
1, 361377, Note_on_c, 1, 49, 127
1, 361377, Note_on_c, 4, 64, 127
1, 361617, Note_off_c, 7, 67, 127
1, 361639, Note_on_c, 7, 67, 127
1, 361895, Note_off_c, 4, 64, 127
1, 361898, Note_off_c, 7, 67, 127
1, 361898, Note_off_c, 1, 49, 127
1, 361898, Note_off_c, 10, 57, 127
1, 361923, Note_on_c, 5, 65, 127
1, 361923, Note_on_c, 2, 50, 127
1, 361923, Note_on_c, 10, 57, 127
1, 361923, Note_on_c, 2, 62, 127
1, 362605, Note_off_c, 5, 65, 127
1, 362632, Note_off_c, 2, 62, 127
1, 362722, Note_on_c, 10, 69, 127
1, 362957, Note_off_c, 10, 69, 127
1, 362965, Note_on_c, 4, 64, 127
1, 363202, Note_off_c, 4, 64, 127
1, 363205, Note_on_c, 5, 65, 127
1, 363440, Note_off_c, 5, 65, 127
1, 363443, Note_on_c, 1, 61, 127
1, 363678, Note_off_c, 1, 61, 127
1, 363681, Note_on_c, 2, 62, 127
1, 363717, Note_off_c, 10, 57, 127
1, 363916, Note_off_c, 2, 62, 127
1, 363919, Note_on_c, 10, 57, 127
1, 364018, Note_off_c, 2, 50, 127
1, 364157, Note_off_c, 10, 57, 127
1, 364160, Note_on_c, 5, 53, 127
1, 364397, Note_on_c, 7, 55, 127
1, 364400, Note_off_c, 5, 53, 127
1, 364635, Note_off_c, 7, 55, 127
1, 364635, Note_on_c, 10, 57, 127
1, 364875, Note_off_c, 10, 57, 127
1, 364875, Note_on_c, 4, 52, 127
1, 365110, Note_off_c, 4, 52, 127
1, 365113, Note_on_c, 5, 53, 127
1, 365342, Note_off_c, 5, 53, 127
1, 365350, Note_on_c, 1, 49, 127
1, 365576, Note_on_c, 2, 50, 127
1, 365584, Note_off_c, 1, 49, 127
1, 365810, Note_off_c, 2, 50, 127
1, 365810, Note_on_c, 10, 45, 127
1, 366042, Note_off_c, 10, 45, 127
1, 366058, Note_on_c, 11, 46, 127
1, 366369, Note_on_c, 2, 62, 127
1, 366601, Note_off_c, 2, 62, 127
1, 366604, Note_on_c, 5, 65, 127
1, 366841, Note_off_c, 5, 65, 127
1, 366844, Note_on_c, 3, 63, 127
1, 367079, Note_off_c, 3, 63, 127
1, 367082, Note_on_c, 2, 62, 127
1, 367096, Note_off_c, 11, 46, 127
1, 367317, Note_off_c, 2, 62, 127
1, 367320, Note_on_c, 0, 60, 127
1, 367555, Note_off_c, 0, 60, 127
1, 367560, Note_on_c, 11, 58, 127
1, 367816, Note_off_c, 11, 58, 127
1, 367824, Note_on_c, 10, 57, 127
1, 368110, Note_on_c, 8, 56, 127
1, 368110, Note_on_c, 12, 47, 127
1, 368124, Note_off_c, 10, 57, 127
1, 368696, Note_on_c, 2, 62, 127
1, 369021, Note_on_c, 12, 71, 127
1, 369023, Note_off_c, 2, 62, 127
1, 369283, Note_on_c, 2, 62, 127
1, 369539, Note_off_c, 12, 71, 127
1, 369544, Note_on_c, 5, 65, 127
1, 369678, Note_off_c, 12, 47, 127
1, 369678, Note_off_c, 8, 56, 127
1, 369801, Note_off_c, 2, 62, 127
1, 369806, Note_on_c, 2, 62, 127
1, 370062, Note_off_c, 5, 65, 127
1, 370067, Note_on_c, 5, 65, 127
1, 370067, Note_on_c, 12, 47, 127
1, 370067, Note_on_c, 8, 56, 127
1, 370323, Note_off_c, 2, 62, 127
1, 370328, Note_on_c, 2, 62, 127
1, 370584, Note_off_c, 5, 65, 127
1, 370587, Note_off_c, 8, 56, 127
1, 370587, Note_off_c, 12, 47, 127
1, 370590, Note_on_c, 5, 65, 127
1, 370590, Note_on_c, 12, 47, 127
1, 370590, Note_on_c, 8, 56, 127
1, 370846, Note_off_c, 2, 62, 127
1, 370851, Note_on_c, 1, 61, 127
1, 371110, Note_off_c, 1, 61, 127
1, 371113, Note_on_c, 2, 62, 127
1, 371369, Note_off_c, 8, 56, 127
1, 371372, Note_off_c, 2, 62, 127
1, 371375, Note_on_c, 8, 56, 127
1, 371626, Note_off_c, 5, 65, 127
1, 371637, Note_on_c, 5, 65, 127
1, 371899, Note_on_c, 1, 61, 127
1, 372158, Note_off_c, 1, 61, 127
1, 372161, Note_on_c, 2, 62, 127
1, 372412, Note_off_c, 8, 56, 127
1, 372420, Note_off_c, 2, 62, 127
1, 372423, Note_on_c, 8, 56, 127
1, 372674, Note_off_c, 5, 65, 127
1, 372682, Note_off_c, 8, 56, 127
1, 372682, Note_off_c, 12, 47, 127
1, 372685, Note_on_c, 5, 65, 127
1, 372685, Note_on_c, 12, 47, 127
1, 372685, Note_on_c, 8, 56, 127
1, 372947, Note_on_c, 2, 62, 127
1, 373203, Note_off_c, 5, 65, 127
1, 373208, Note_on_c, 5, 65, 127
1, 373464, Note_off_c, 2, 62, 127
1, 373469, Note_on_c, 2, 62, 127
1, 373725, Note_off_c, 5, 65, 127
1, 373730, Note_on_c, 5, 65, 127
1, 373986, Note_off_c, 2, 62, 127
1, 373991, Note_on_c, 1, 61, 127
1, 374250, Note_off_c, 1, 61, 127
1, 374253, Note_on_c, 2, 62, 127
1, 374512, Note_off_c, 8, 56, 127
1, 374512, Note_off_c, 12, 47, 127
1, 374515, Note_on_c, 8, 56, 127
1, 374766, Note_off_c, 5, 65, 127
1, 374774, Note_off_c, 8, 56, 127
1, 374777, Note_on_c, 10, 45, 127
1, 374777, Note_on_c, 10, 57, 127
1, 375194, Note_off_c, 2, 62, 127
1, 375197, Note_on_c, 2, 62, 127
1, 375453, Note_on_c, 5, 65, 127
1, 375698, Note_off_c, 2, 62, 127
1, 375714, Note_on_c, 2, 62, 127
1, 375954, Note_off_c, 5, 65, 127
1, 375987, Note_on_c, 12, 71, 127
1, 376317, Note_off_c, 12, 71, 127
1, 376320, Note_on_c, 6, 66, 127
1, 376574, Note_off_c, 6, 66, 127
1, 376577, Note_on_c, 8, 68, 127
1, 376752, Note_off_c, 2, 62, 127
1, 376834, Note_on_c, 2, 62, 127
1, 377085, Note_off_c, 8, 68, 127
1, 377090, Note_on_c, 10, 69, 127
1, 377379, Note_off_c, 2, 62, 127
1, 377472, Note_on_c, 2, 62, 127
1, 377753, Note_off_c, 2, 62, 127
1, 377756, Note_on_c, 4, 64, 127
1, 378064, Note_off_c, 4, 64, 127
1, 378067, Note_on_c, 12, 59, 127
1, 378348, Note_off_c, 12, 59, 127
1, 378351, Note_on_c, 1, 61, 127
1, 378632, Note_off_c, 10, 57, 127
1, 378632, Note_off_c, 10, 45, 127
1, 378659, Note_off_c, 10, 69, 127
1, 378662, Note_on_c, 8, 56, 127
1, 378992, Note_off_c, 8, 56, 127
1, 379049, Note_on_c, 10, 57, 127
1, 379387, Note_off_c, 1, 61, 127
1, 383232, Note_off_c, 10, 57, 127
1, 383596, Note_on_c, 10, 69, 127
1, 383710, Note_off_c, 10, 69, 127
1, 383726, Note_on_c, 7, 67, 127
1, 383840, Note_off_c, 7, 67, 127
1, 383851, Note_on_c, 5, 65, 127
1, 384080, Note_off_c, 5, 65, 127
1, 384081, Note_on_c, 2, 62, 127
1, 384310, Note_off_c, 2, 62, 127
1, 384311, Note_on_c, 2, 74, 127
1, 384541, Note_on_c, 2, 50, 127
1, 384770, Note_off_c, 2, 50, 127
1, 384771, Note_on_c, 4, 52, 127
1, 385000, Note_off_c, 4, 52, 127
1, 385001, Note_on_c, 10, 45, 127
1, 385230, Note_off_c, 10, 45, 127
1, 385230, Note_off_c, 2, 74, 127
1, 385231, Note_on_c, 1, 73, 127
1, 385231, Note_on_c, 10, 57, 127
1, 385460, Note_off_c, 10, 57, 127
1, 385461, Note_on_c, 7, 55, 127
1, 385690, Note_off_c, 7, 55, 127
1, 385691, Note_on_c, 10, 57, 127
1, 385920, Note_off_c, 10, 57, 127
1, 385920, Note_off_c, 1, 73, 127
1, 385921, Note_on_c, 1, 73, 127
1, 385921, Note_on_c, 4, 52, 127
1, 386150, Note_off_c, 4, 52, 127
1, 386150, Note_off_c, 1, 73, 127
1, 386151, Note_on_c, 2, 74, 127
1, 386151, Note_on_c, 5, 53, 127
1, 386380, Note_off_c, 5, 53, 127
1, 386381, Note_on_c, 10, 57, 127
1, 386495, Note_off_c, 10, 57, 127
1, 386496, Note_on_c, 7, 55, 127
1, 386610, Note_off_c, 7, 55, 127
1, 386611, Note_on_c, 5, 53, 127
1, 386840, Note_off_c, 5, 53, 127
1, 386841, Note_on_c, 2, 50, 127
1, 387070, Note_off_c, 2, 50, 127
1, 387070, Note_off_c, 2, 74, 127
1, 387071, Note_on_c, 2, 62, 127
1, 387301, Note_on_c, 2, 74, 127
1, 387530, Note_off_c, 2, 74, 127
1, 387531, Note_on_c, 4, 76, 127
1, 387760, Note_off_c, 4, 76, 127
1, 387761, Note_on_c, 10, 69, 127
1, 387990, Note_off_c, 10, 69, 127
1, 387990, Note_off_c, 2, 62, 127
1, 387991, Note_on_c, 10, 81, 127
1, 387991, Note_on_c, 1, 61, 127
1, 388220, Note_off_c, 10, 81, 127
1, 388221, Note_on_c, 7, 79, 127
1, 388450, Note_off_c, 7, 79, 127
1, 388451, Note_on_c, 10, 81, 127
1, 388680, Note_off_c, 10, 81, 127
1, 388680, Note_off_c, 1, 61, 127
1, 388681, Note_on_c, 4, 76, 127
1, 388681, Note_on_c, 1, 61, 127
1, 388910, Note_off_c, 1, 61, 127
1, 388910, Note_off_c, 4, 76, 127
1, 388911, Note_on_c, 5, 77, 127
1, 388911, Note_on_c, 2, 62, 127
1, 389140, Note_off_c, 5, 77, 127
1, 389141, Note_on_c, 10, 81, 127
1, 389255, Note_off_c, 10, 81, 127
1, 389256, Note_on_c, 7, 79, 127
1, 389370, Note_off_c, 7, 79, 127
1, 389371, Note_on_c, 5, 77, 127
1, 389486, Note_off_c, 2, 62, 127
1, 389600, Note_off_c, 5, 77, 127
1, 389601, Note_on_c, 2, 74, 127
1, 389601, Note_on_c, 2, 62, 127
1, 389715, Note_off_c, 2, 62, 127
1, 389716, Note_on_c, 0, 60, 127
1, 389830, Note_off_c, 0, 60, 127
1, 389830, Note_off_c, 2, 74, 127
1, 389831, Note_on_c, 7, 79, 127
1, 389831, Note_on_c, 12, 59, 127
1, 390060, Note_off_c, 12, 59, 127
1, 390061, Note_on_c, 7, 55, 127
1, 390287, Note_off_c, 7, 79, 127
1, 390291, Note_off_c, 7, 55, 127
1, 390292, Note_on_c, 0, 60, 127
1, 390522, Note_on_c, 7, 79, 127
1, 390636, Note_off_c, 7, 79, 127
1, 390637, Note_on_c, 5, 77, 127
1, 390751, Note_off_c, 5, 77, 127
1, 390752, Note_on_c, 4, 76, 127
1, 390867, Note_off_c, 0, 60, 127
1, 390981, Note_off_c, 4, 76, 127
1, 390982, Note_on_c, 0, 72, 127
1, 390982, Note_on_c, 0, 60, 127
1, 391096, Note_off_c, 0, 60, 127
1, 391097, Note_on_c, 11, 58, 127
1, 391211, Note_off_c, 11, 58, 127
1, 391211, Note_off_c, 0, 72, 127
1, 391212, Note_on_c, 5, 77, 127
1, 391212, Note_on_c, 10, 57, 127
1, 391441, Note_off_c, 10, 57, 127
1, 391442, Note_on_c, 5, 53, 127
1, 391668, Note_off_c, 5, 77, 127
1, 391672, Note_off_c, 5, 53, 127
1, 391673, Note_on_c, 11, 58, 127
1, 391903, Note_on_c, 2, 74, 127
1, 392132, Note_off_c, 2, 74, 127
1, 392133, Note_on_c, 7, 79, 127
1, 392248, Note_off_c, 11, 58, 127
1, 392362, Note_off_c, 7, 79, 127
1, 392363, Note_on_c, 5, 77, 127
1, 392363, Note_on_c, 7, 55, 127
1, 392592, Note_off_c, 7, 55, 127
1, 392592, Note_off_c, 5, 77, 127
1, 392593, Note_on_c, 4, 76, 127
1, 392593, Note_on_c, 0, 60, 127
1, 392822, Note_off_c, 0, 60, 127
1, 392822, Note_off_c, 4, 76, 127
1, 392823, Note_on_c, 7, 79, 127
1, 392823, Note_on_c, 11, 58, 127
1, 393052, Note_off_c, 11, 58, 127
1, 393052, Note_off_c, 7, 79, 127
1, 393053, Note_on_c, 5, 77, 127
1, 393053, Note_on_c, 10, 57, 127
1, 393282, Note_off_c, 10, 57, 127
1, 393282, Note_off_c, 5, 77, 127
1, 393283, Note_on_c, 4, 76, 127
1, 393283, Note_on_c, 0, 60, 127
1, 393512, Note_off_c, 0, 60, 127
1, 393512, Note_off_c, 4, 76, 127
1, 393513, Note_on_c, 2, 74, 127
1, 393513, Note_on_c, 11, 58, 127
1, 393742, Note_off_c, 11, 58, 127
1, 393742, Note_off_c, 2, 74, 127
1, 393743, Note_on_c, 5, 77, 127
1, 393743, Note_on_c, 10, 57, 127
1, 393972, Note_off_c, 10, 57, 127
1, 393972, Note_off_c, 5, 77, 127
1, 393973, Note_on_c, 4, 76, 127
1, 393973, Note_on_c, 7, 55, 127
1, 394202, Note_off_c, 7, 55, 127
1, 394202, Note_off_c, 4, 76, 127
1, 394203, Note_on_c, 2, 74, 127
1, 394203, Note_on_c, 11, 58, 127
1, 394432, Note_off_c, 11, 58, 127
1, 394432, Note_off_c, 2, 74, 127
1, 394433, Note_on_c, 1, 73, 127
1, 394433, Note_on_c, 10, 57, 127
1, 394662, Note_off_c, 10, 57, 127
1, 394662, Note_off_c, 1, 73, 127
1, 394663, Note_on_c, 4, 76, 127
1, 394663, Note_on_c, 7, 55, 127
1, 394892, Note_off_c, 7, 55, 127
1, 394892, Note_off_c, 4, 76, 127
1, 394893, Note_on_c, 10, 81, 127
1, 394893, Note_on_c, 5, 53, 127
1, 395122, Note_off_c, 5, 53, 127
1, 395122, Note_off_c, 10, 81, 127
1, 395123, Note_on_c, 7, 79, 127
1, 395123, Note_on_c, 10, 57, 127
1, 395352, Note_off_c, 10, 57, 127
1, 395352, Note_off_c, 7, 79, 127
1, 395353, Note_on_c, 5, 77, 127
1, 395353, Note_on_c, 2, 62, 127
1, 395582, Note_off_c, 2, 62, 127
1, 395582, Note_off_c, 5, 77, 127
1, 395583, Note_on_c, 4, 76, 127
1, 395583, Note_on_c, 0, 60, 127
1, 395697, Note_off_c, 4, 76, 127
1, 395698, Note_on_c, 5, 77, 127
1, 395812, Note_off_c, 5, 77, 127
1, 395812, Note_off_c, 0, 60, 127
1, 395813, Note_on_c, 7, 79, 127
1, 395813, Note_on_c, 11, 58, 127
1, 396042, Note_off_c, 11, 58, 127
1, 396042, Note_off_c, 7, 79, 127
1, 396043, Note_on_c, 5, 77, 127
1, 396043, Note_on_c, 10, 57, 127
1, 396157, Note_off_c, 10, 57, 127
1, 396157, Note_off_c, 5, 77, 127
1, 396158, Note_on_c, 4, 76, 127
1, 396158, Note_on_c, 7, 55, 127
1, 396272, Note_off_c, 7, 55, 127
1, 396272, Note_off_c, 4, 76, 127
1, 396273, Note_on_c, 5, 77, 127
1, 396273, Note_on_c, 10, 57, 127
1, 396502, Note_off_c, 10, 57, 127
1, 396502, Note_off_c, 5, 77, 127
1, 396503, Note_on_c, 4, 76, 127
1, 396503, Note_on_c, 7, 55, 127
1, 396617, Note_off_c, 7, 55, 127
1, 396617, Note_off_c, 4, 76, 127
1, 396618, Note_on_c, 2, 74, 127
1, 396618, Note_on_c, 5, 53, 127
1, 396732, Note_off_c, 5, 53, 127
1, 396732, Note_off_c, 2, 74, 127
1, 396733, Note_on_c, 4, 76, 127
1, 396733, Note_on_c, 7, 55, 127
1, 396962, Note_off_c, 7, 55, 127
1, 396962, Note_off_c, 4, 76, 127
1, 396963, Note_on_c, 2, 74, 127
1, 396963, Note_on_c, 5, 53, 127
1, 397077, Note_off_c, 5, 53, 127
1, 397077, Note_off_c, 2, 74, 127
1, 397078, Note_on_c, 1, 73, 127
1, 397078, Note_on_c, 4, 52, 127
1, 397192, Note_off_c, 4, 52, 127
1, 397192, Note_off_c, 1, 73, 127
1, 397193, Note_on_c, 2, 74, 127
1, 397193, Note_on_c, 5, 53, 127
1, 397422, Note_off_c, 5, 53, 127
1, 397422, Note_off_c, 2, 74, 127
1, 397423, Note_on_c, 4, 76, 127
1, 397423, Note_on_c, 4, 52, 127
1, 397537, Note_off_c, 4, 52, 127
1, 397537, Note_off_c, 4, 76, 127
1, 397538, Note_on_c, 5, 77, 127
1, 397538, Note_on_c, 2, 50, 127
1, 397652, Note_off_c, 2, 50, 127
1, 397652, Note_off_c, 5, 77, 127
1, 397653, Note_on_c, 2, 74, 127
1, 397653, Note_on_c, 10, 57, 127
1, 397882, Note_off_c, 10, 57, 127
1, 397883, Note_on_c, 7, 55, 127
1, 398112, Note_off_c, 7, 55, 127
1, 398112, Note_off_c, 2, 74, 127
1, 398113, Note_on_c, 2, 74, 127
1, 398113, Note_on_c, 10, 57, 127
1, 398189, Note_off_c, 2, 74, 127
1, 398190, Note_on_c, 1, 73, 127
1, 398266, Note_off_c, 1, 73, 127
1, 398267, Note_on_c, 2, 74, 127
1, 398343, Note_off_c, 2, 74, 127
1, 398343, Note_off_c, 10, 57, 127
1, 398344, Note_on_c, 1, 73, 127
1, 398344, Note_on_c, 10, 45, 127
1, 398488, Note_off_c, 1, 73, 127
1, 398498, Note_on_c, 2, 74, 127
1, 398574, Note_off_c, 2, 74, 127
1, 398574, Note_off_c, 10, 45, 127
1, 398575, Note_on_c, 2, 74, 127
1, 398575, Note_on_c, 2, 50, 127
1, 398805, Note_on_c, 10, 69, 127
1, 398805, Note_on_c, 2, 38, 127
1, 398919, Note_off_c, 10, 69, 127
1, 398920, Note_on_c, 7, 67, 127
1, 399030, Note_off_c, 2, 74, 127
1, 399034, Note_off_c, 7, 67, 127
1, 399035, Note_on_c, 5, 65, 127
1, 399150, Note_off_c, 2, 50, 127
1, 399260, Note_off_c, 2, 38, 127
1, 399264, Note_off_c, 5, 65, 127
1, 399265, Note_on_c, 2, 62, 127
1, 399494, Note_off_c, 2, 62, 127
1, 399495, Note_on_c, 2, 74, 127
1, 399725, Note_on_c, 2, 62, 127
1, 399954, Note_off_c, 2, 62, 127
1, 399955, Note_on_c, 4, 64, 127
1, 400184, Note_off_c, 4, 64, 127
1, 400185, Note_on_c, 10, 57, 127
1, 400414, Note_off_c, 10, 57, 127
1, 400414, Note_off_c, 2, 74, 127
1, 400415, Note_on_c, 1, 73, 127
1, 400415, Note_on_c, 10, 69, 127
1, 400644, Note_off_c, 10, 69, 127
1, 400645, Note_on_c, 7, 67, 127
1, 400874, Note_off_c, 7, 67, 127
1, 400875, Note_on_c, 10, 69, 127
1, 401104, Note_off_c, 10, 69, 127
1, 401104, Note_off_c, 1, 73, 127
1, 401105, Note_on_c, 1, 73, 127
1, 401105, Note_on_c, 4, 64, 127
1, 401334, Note_off_c, 4, 64, 127
1, 401334, Note_off_c, 1, 73, 127
1, 401335, Note_on_c, 2, 74, 127
1, 401335, Note_on_c, 5, 65, 127
1, 401564, Note_off_c, 5, 65, 127
1, 401564, Note_off_c, 2, 74, 127
1, 401565, Note_on_c, 10, 81, 127
1, 401565, Note_on_c, 2, 62, 127
1, 401679, Note_off_c, 10, 81, 127
1, 401680, Note_on_c, 7, 79, 127
1, 401794, Note_off_c, 7, 79, 127
1, 401794, Note_off_c, 2, 62, 127
1, 401795, Note_on_c, 5, 77, 127
1, 401795, Note_on_c, 2, 74, 127
1, 402024, Note_off_c, 2, 74, 127
1, 402024, Note_off_c, 5, 77, 127
1, 402025, Note_on_c, 4, 76, 127
1, 402025, Note_on_c, 0, 72, 127
1, 402254, Note_off_c, 0, 72, 127
1, 402254, Note_off_c, 4, 76, 127
1, 402255, Note_on_c, 2, 74, 127
1, 402255, Note_on_c, 12, 71, 127
1, 402484, Note_off_c, 12, 71, 127
1, 402484, Note_off_c, 2, 74, 127
1, 402485, Note_on_c, 0, 72, 127
1, 402485, Note_on_c, 10, 69, 127
1, 402713, Note_off_c, 10, 69, 127
1, 402714, Note_off_c, 0, 72, 127
1, 402715, Note_on_c, 12, 71, 127
1, 402715, Note_on_c, 8, 68, 127
1, 402945, Note_on_c, 4, 52, 127
1, 403059, Note_off_c, 4, 52, 127
1, 403060, Note_on_c, 2, 50, 127
1, 403174, Note_off_c, 2, 50, 127
1, 403174, Note_off_c, 8, 68, 127
1, 403174, Note_off_c, 12, 71, 127
1, 403175, Note_on_c, 0, 72, 127
1, 403175, Note_on_c, 10, 69, 127
1, 403175, Note_on_c, 0, 48, 127
1, 403404, Note_off_c, 0, 48, 127
1, 403405, Note_on_c, 10, 45, 127
1, 403631, Note_off_c, 0, 72, 127
1, 403635, Note_off_c, 10, 45, 127
1, 403635, Note_off_c, 10, 69, 127
1, 403636, Note_on_c, 0, 60, 127
1, 403636, Note_on_c, 10, 57, 127
1, 403866, Note_on_c, 10, 69, 127
1, 404095, Note_off_c, 10, 69, 127
1, 404095, Note_off_c, 0, 60, 127
1, 404096, Note_on_c, 12, 71, 127
1, 404096, Note_on_c, 2, 62, 127
1, 404325, Note_off_c, 12, 71, 127
1, 404326, Note_on_c, 4, 64, 127
1, 404555, Note_off_c, 4, 64, 127
1, 404555, Note_off_c, 2, 62, 127
1, 404555, Note_off_c, 10, 57, 127
1, 404556, Note_on_c, 4, 76, 127
1, 404556, Note_on_c, 12, 59, 127
1, 404556, Note_on_c, 8, 56, 127
1, 404785, Note_off_c, 4, 76, 127
1, 404786, Note_on_c, 2, 74, 127
1, 405015, Note_off_c, 2, 74, 127
1, 405016, Note_on_c, 4, 76, 127
1, 405245, Note_off_c, 4, 76, 127
1, 405245, Note_off_c, 8, 56, 127
1, 405245, Note_off_c, 12, 59, 127
1, 405246, Note_on_c, 12, 71, 127
1, 405246, Note_on_c, 12, 59, 127
1, 405246, Note_on_c, 8, 56, 127
1, 405475, Note_off_c, 8, 56, 127
1, 405475, Note_off_c, 12, 59, 127
1, 405475, Note_off_c, 12, 71, 127
1, 405476, Note_on_c, 0, 72, 127
1, 405476, Note_on_c, 10, 57, 127
1, 405706, Note_on_c, 4, 64, 127
1, 405935, Note_off_c, 4, 64, 127
1, 405935, Note_off_c, 10, 57, 127
1, 405935, Note_off_c, 0, 72, 127
1, 405936, Note_on_c, 1, 73, 127
1, 405936, Note_on_c, 10, 69, 127
1, 405936, Note_on_c, 10, 57, 127
1, 406165, Note_off_c, 10, 69, 127
1, 406166, Note_on_c, 7, 67, 127
1, 406395, Note_off_c, 7, 67, 127
1, 406396, Note_on_c, 10, 69, 127
1, 406625, Note_off_c, 10, 69, 127
1, 406625, Note_off_c, 10, 57, 127
1, 406625, Note_off_c, 1, 73, 127
1, 406626, Note_on_c, 1, 73, 127
1, 406626, Note_on_c, 4, 64, 127
1, 406626, Note_on_c, 10, 57, 127
1, 406855, Note_off_c, 10, 57, 127
1, 406855, Note_off_c, 4, 64, 127
1, 406855, Note_off_c, 1, 73, 127
1, 406856, Note_on_c, 2, 74, 127
1, 406856, Note_on_c, 5, 65, 127
1, 406856, Note_on_c, 2, 50, 127
1, 407086, Note_on_c, 10, 57, 127
1, 407200, Note_off_c, 10, 57, 127
1, 407201, Note_on_c, 7, 55, 127
1, 407311, Note_off_c, 2, 50, 127
1, 407311, Note_off_c, 5, 65, 127
1, 407311, Note_off_c, 2, 74, 127
1, 407315, Note_off_c, 7, 55, 127
1, 407316, Note_on_c, 5, 53, 127
1, 407545, Note_off_c, 5, 53, 127
1, 407546, Note_on_c, 2, 74, 127
1, 407546, Note_on_c, 2, 50, 127
1, 407660, Note_off_c, 2, 74, 127
1, 407661, Note_on_c, 0, 72, 127
1, 407775, Note_off_c, 0, 72, 127
1, 407775, Note_off_c, 2, 50, 127
1, 407776, Note_on_c, 12, 71, 127
1, 407776, Note_on_c, 5, 65, 127
1, 407776, Note_on_c, 2, 62, 127
1, 408005, Note_off_c, 12, 71, 127
1, 408006, Note_on_c, 10, 69, 127
1, 408006, Note_on_c, 2, 50, 127
1, 408232, Note_off_c, 5, 65, 127
1, 408236, Note_off_c, 2, 50, 127
1, 408236, Note_off_c, 10, 69, 127
1, 408237, Note_on_c, 8, 68, 127
1, 408237, Note_on_c, 4, 52, 127
1, 408466, Note_off_c, 4, 52, 127
1, 408467, Note_on_c, 10, 45, 127
1, 408696, Note_off_c, 10, 45, 127
1, 408696, Note_off_c, 8, 68, 127
1, 408696, Note_off_c, 2, 62, 127
1, 408697, Note_on_c, 7, 67, 127
1, 408697, Note_on_c, 1, 61, 127
1, 408697, Note_on_c, 10, 57, 127
1, 408926, Note_off_c, 10, 57, 127
1, 408927, Note_on_c, 7, 55, 127
1, 409156, Note_off_c, 7, 55, 127
1, 409157, Note_on_c, 10, 57, 127
1, 409386, Note_off_c, 10, 57, 127
1, 409386, Note_off_c, 1, 61, 127
1, 409386, Note_off_c, 7, 67, 127
1, 409387, Note_on_c, 7, 67, 127
1, 409387, Note_on_c, 1, 61, 127
1, 409387, Note_on_c, 4, 52, 127
1, 409616, Note_off_c, 4, 52, 127
1, 409616, Note_off_c, 1, 61, 127
1, 409616, Note_off_c, 7, 67, 127
1, 409617, Note_on_c, 5, 65, 127
1, 409617, Note_on_c, 2, 62, 127
1, 409617, Note_on_c, 5, 53, 127
1, 409846, Note_off_c, 5, 53, 127
1, 409847, Note_on_c, 10, 57, 127
1, 409961, Note_off_c, 10, 57, 127
1, 409962, Note_on_c, 7, 55, 127
1, 410072, Note_off_c, 2, 62, 127
1, 410072, Note_off_c, 5, 65, 127
1, 410076, Note_off_c, 7, 55, 127
1, 410077, Note_on_c, 5, 53, 127
1, 410306, Note_off_c, 5, 53, 127
1, 410307, Note_on_c, 5, 65, 127
1, 410307, Note_on_c, 2, 50, 127
1, 410536, Note_off_c, 2, 50, 127
1, 410536, Note_off_c, 5, 65, 127
1, 410537, Note_on_c, 7, 67, 127
1, 410537, Note_on_c, 2, 62, 127
1, 410537, Note_on_c, 11, 46, 127
1, 410651, Note_off_c, 7, 67, 127
1, 410652, Note_on_c, 10, 69, 127
1, 410766, Note_off_c, 10, 69, 127
1, 410766, Note_off_c, 11, 46, 127
1, 410767, Note_on_c, 5, 65, 127
1, 410767, Note_on_c, 7, 43, 127
1, 410881, Note_off_c, 5, 65, 127
1, 410882, Note_on_c, 7, 67, 127
1, 410996, Note_off_c, 7, 67, 127
1, 410996, Note_off_c, 7, 43, 127
1, 410996, Note_off_c, 2, 62, 127
1, 410997, Note_on_c, 4, 64, 127
1, 410997, Note_on_c, 2, 62, 127
1, 410997, Note_on_c, 0, 48, 127
1, 411226, Note_off_c, 0, 48, 127
1, 411227, Note_on_c, 7, 55, 127
1, 411341, Note_off_c, 7, 55, 127
1, 411342, Note_on_c, 5, 53, 127
1, 411452, Note_off_c, 2, 62, 127
1, 411452, Note_off_c, 4, 64, 127
1, 411456, Note_off_c, 5, 53, 127
1, 411457, Note_on_c, 4, 52, 127
1, 411686, Note_off_c, 4, 52, 127
1, 411687, Note_on_c, 4, 64, 127
1, 411687, Note_on_c, 0, 48, 127
1, 411916, Note_off_c, 0, 48, 127
1, 411916, Note_off_c, 4, 64, 127
1, 411917, Note_on_c, 5, 65, 127
1, 411917, Note_on_c, 0, 60, 127
1, 411917, Note_on_c, 10, 45, 127
1, 412031, Note_off_c, 5, 65, 127
1, 412032, Note_on_c, 7, 67, 127
1, 412146, Note_off_c, 7, 67, 127
1, 412146, Note_off_c, 10, 45, 127
1, 412147, Note_on_c, 4, 64, 127
1, 412147, Note_on_c, 5, 41, 127
1, 412261, Note_off_c, 4, 64, 127
1, 412262, Note_on_c, 5, 65, 127
1, 412376, Note_off_c, 5, 65, 127
1, 412376, Note_off_c, 5, 41, 127
1, 412376, Note_off_c, 0, 60, 127
1, 412377, Note_on_c, 2, 62, 127
1, 412377, Note_on_c, 0, 60, 127
1, 412377, Note_on_c, 11, 46, 127
1, 412606, Note_off_c, 11, 46, 127
1, 412607, Note_on_c, 5, 53, 127
1, 412721, Note_off_c, 5, 53, 127
1, 412722, Note_on_c, 4, 52, 127
1, 412832, Note_off_c, 0, 60, 127
1, 412832, Note_off_c, 2, 62, 127
1, 412836, Note_off_c, 4, 52, 127
1, 412837, Note_on_c, 2, 50, 127
1, 413066, Note_off_c, 2, 50, 127
1, 413067, Note_on_c, 2, 62, 127
1, 413067, Note_on_c, 11, 46, 127
1, 413296, Note_off_c, 11, 46, 127
1, 413296, Note_off_c, 2, 62, 127
1, 413297, Note_on_c, 4, 64, 127
1, 413297, Note_on_c, 11, 58, 127
1, 413297, Note_on_c, 7, 43, 127
1, 413411, Note_off_c, 4, 64, 127
1, 413412, Note_on_c, 5, 65, 127
1, 413526, Note_off_c, 5, 65, 127
1, 413526, Note_off_c, 7, 43, 127
1, 413527, Note_on_c, 2, 62, 127
1, 413527, Note_on_c, 4, 40, 127
1, 413641, Note_off_c, 2, 62, 127
1, 413642, Note_on_c, 4, 64, 127
1, 413756, Note_off_c, 4, 64, 127
1, 413756, Note_off_c, 4, 40, 127
1, 413756, Note_off_c, 11, 58, 127
1, 413757, Note_on_c, 1, 61, 127
1, 413757, Note_on_c, 10, 57, 127
1, 413757, Note_on_c, 10, 45, 127
1, 413986, Note_off_c, 10, 45, 127
1, 413987, Note_on_c, 4, 52, 127
1, 414101, Note_off_c, 4, 52, 127
1, 414102, Note_on_c, 2, 50, 127
1, 414212, Note_off_c, 10, 57, 127
1, 414212, Note_off_c, 1, 61, 127
1, 414216, Note_off_c, 2, 50, 127
1, 414217, Note_on_c, 1, 49, 127
1, 414446, Note_off_c, 1, 49, 127
1, 414447, Note_on_c, 10, 69, 127
1, 414447, Note_on_c, 10, 45, 127
1, 414561, Note_off_c, 10, 69, 127
1, 414562, Note_on_c, 7, 67, 127
1, 414676, Note_off_c, 7, 67, 127
1, 414676, Note_off_c, 10, 45, 127
1, 414677, Note_on_c, 5, 65, 127
1, 414677, Note_on_c, 2, 50, 127
1, 414906, Note_off_c, 5, 65, 127
1, 414907, Note_on_c, 2, 62, 127
1, 415136, Note_off_c, 2, 62, 127
1, 415137, Note_on_c, 11, 70, 127
1, 415252, Note_off_c, 2, 50, 127
1, 415367, Note_on_c, 2, 50, 127
1, 415481, Note_off_c, 2, 50, 127
1, 415482, Note_on_c, 0, 48, 127
1, 415592, Note_off_c, 11, 70, 127
1, 415596, Note_off_c, 0, 48, 127
1, 415597, Note_on_c, 11, 46, 127
1, 415826, Note_off_c, 11, 46, 127
1, 415827, Note_on_c, 11, 70, 127
1, 415827, Note_on_c, 7, 43, 127
1, 415941, Note_off_c, 11, 70, 127
1, 415942, Note_on_c, 10, 69, 127
1, 416056, Note_off_c, 10, 69, 127
1, 416056, Note_off_c, 7, 43, 127
1, 416057, Note_on_c, 7, 67, 127
1, 416057, Note_on_c, 0, 48, 127
1, 416286, Note_off_c, 7, 67, 127
1, 416287, Note_on_c, 4, 64, 127
1, 416516, Note_off_c, 4, 64, 127
1, 416517, Note_on_c, 10, 69, 127
1, 416632, Note_off_c, 0, 48, 127
1, 416747, Note_on_c, 0, 48, 127
1, 416861, Note_off_c, 0, 48, 127
1, 416862, Note_on_c, 11, 46, 127
1, 416972, Note_off_c, 10, 69, 127
1, 416976, Note_off_c, 11, 46, 127
1, 416977, Note_on_c, 10, 45, 127
1, 417206, Note_off_c, 10, 45, 127
1, 417207, Note_on_c, 10, 69, 127
1, 417207, Note_on_c, 5, 41, 127
1, 417321, Note_off_c, 10, 69, 127
1, 417322, Note_on_c, 7, 67, 127
1, 417436, Note_off_c, 7, 67, 127
1, 417436, Note_off_c, 5, 41, 127
1, 417437, Note_on_c, 5, 65, 127
1, 417437, Note_on_c, 11, 46, 127
1, 417666, Note_off_c, 5, 65, 127
1, 417667, Note_on_c, 2, 62, 127
1, 417896, Note_off_c, 2, 62, 127
1, 417897, Note_on_c, 7, 67, 127
1, 418012, Note_off_c, 11, 46, 127
1, 418127, Note_on_c, 11, 58, 127
1, 418241, Note_off_c, 11, 58, 127
1, 418242, Note_on_c, 10, 57, 127
1, 418352, Note_off_c, 7, 67, 127
1, 418356, Note_off_c, 10, 57, 127
1, 418357, Note_on_c, 7, 55, 127
1, 418586, Note_off_c, 7, 55, 127
1, 418587, Note_on_c, 4, 76, 127
1, 418587, Note_on_c, 4, 52, 127
1, 418701, Note_off_c, 4, 76, 127
1, 418702, Note_on_c, 2, 74, 127
1, 418816, Note_off_c, 2, 74, 127
1, 418816, Note_off_c, 4, 52, 127
1, 418817, Note_on_c, 1, 73, 127
1, 418817, Note_on_c, 10, 57, 127
1, 419046, Note_off_c, 10, 57, 127
1, 419046, Note_off_c, 1, 73, 127
1, 419047, Note_on_c, 10, 69, 127
1, 419047, Note_on_c, 7, 55, 127
1, 419276, Note_off_c, 7, 55, 127
1, 419276, Note_off_c, 10, 69, 127
1, 419277, Note_on_c, 2, 74, 127
1, 419277, Note_on_c, 5, 53, 127
1, 419506, Note_off_c, 5, 53, 127
1, 419506, Note_off_c, 2, 74, 127
1, 419507, Note_on_c, 10, 69, 127
1, 419507, Note_on_c, 10, 57, 127
1, 419621, Note_off_c, 10, 69, 127
1, 419622, Note_on_c, 7, 67, 127
1, 419736, Note_off_c, 7, 67, 127
1, 419736, Note_off_c, 10, 57, 127
1, 419737, Note_on_c, 5, 65, 127
1, 419737, Note_on_c, 2, 62, 127
1, 419966, Note_off_c, 2, 62, 127
1, 419966, Note_off_c, 5, 65, 127
1, 419967, Note_on_c, 2, 62, 127
1, 419967, Note_on_c, 0, 60, 127
1, 420196, Note_off_c, 0, 60, 127
1, 420196, Note_off_c, 2, 62, 127
1, 420197, Note_on_c, 2, 74, 127
1, 420197, Note_on_c, 11, 58, 127
1, 420426, Note_off_c, 11, 58, 127
1, 420427, Note_on_c, 2, 62, 127
1, 420427, Note_on_c, 10, 57, 127
1, 420656, Note_off_c, 10, 57, 127
1, 420656, Note_off_c, 2, 62, 127
1, 420657, Note_on_c, 4, 64, 127
1, 420657, Note_on_c, 7, 55, 127
1, 420886, Note_off_c, 4, 64, 127
1, 420887, Note_on_c, 10, 57, 127
1, 421116, Note_off_c, 10, 57, 127
1, 421116, Note_off_c, 7, 55, 127
1, 421116, Note_off_c, 2, 74, 127
1, 421117, Note_on_c, 1, 73, 127
1, 421117, Note_on_c, 10, 69, 127
1, 421117, Note_on_c, 10, 57, 127
1, 421346, Note_off_c, 10, 69, 127
1, 421347, Note_on_c, 7, 67, 127
1, 421576, Note_off_c, 7, 67, 127
1, 421577, Note_on_c, 10, 69, 127
1, 421806, Note_off_c, 10, 69, 127
1, 421806, Note_off_c, 10, 57, 127
1, 421806, Note_off_c, 1, 73, 127
1, 421807, Note_on_c, 1, 73, 127
1, 421807, Note_on_c, 4, 64, 127
1, 421807, Note_on_c, 10, 57, 127
1, 422036, Note_off_c, 10, 57, 127
1, 422036, Note_off_c, 4, 64, 127
1, 422036, Note_off_c, 1, 73, 127
1, 422037, Note_on_c, 2, 74, 127
1, 422037, Note_on_c, 5, 65, 127
1, 422037, Note_on_c, 2, 50, 127
1, 422266, Note_off_c, 5, 65, 127
1, 422267, Note_on_c, 5, 65, 127
1, 422381, Note_off_c, 5, 65, 127
1, 422382, Note_on_c, 4, 64, 127
1, 422492, Note_off_c, 2, 74, 127
1, 422496, Note_off_c, 4, 64, 127
1, 422497, Note_on_c, 2, 62, 127
1, 422726, Note_off_c, 2, 62, 127
1, 422726, Note_off_c, 2, 50, 127
1, 422727, Note_on_c, 5, 77, 127
1, 422727, Note_on_c, 0, 60, 127
1, 422841, Note_off_c, 5, 77, 127
1, 422842, Note_on_c, 4, 76, 127
1, 422956, Note_off_c, 4, 76, 127
1, 422956, Note_off_c, 0, 60, 127
1, 422957, Note_on_c, 2, 74, 127
1, 422957, Note_on_c, 12, 59, 127
1, 423186, Note_off_c, 12, 59, 127
1, 423186, Note_off_c, 2, 74, 127
1, 423187, Note_on_c, 0, 72, 127
1, 423187, Note_on_c, 10, 57, 127
1, 423416, Note_off_c, 10, 57, 127
1, 423416, Note_off_c, 0, 72, 127
1, 423417, Note_on_c, 12, 71, 127
1, 423417, Note_on_c, 8, 56, 127
1, 423646, Note_off_c, 8, 56, 127
1, 423647, Note_on_c, 4, 76, 127
1, 423647, Note_on_c, 4, 52, 127
1, 423761, Note_off_c, 4, 76, 127
1, 423762, Note_on_c, 2, 74, 127
1, 423872, Note_off_c, 12, 71, 127
1, 423876, Note_off_c, 2, 74, 127
1, 423876, Note_off_c, 4, 52, 127
1, 423877, Note_on_c, 0, 72, 127
1, 423877, Note_on_c, 10, 69, 127
1, 423877, Note_on_c, 10, 57, 127
1, 424105, Note_off_c, 10, 69, 127
1, 424106, Note_off_c, 0, 72, 127
1, 424107, Note_on_c, 10, 69, 127
1, 424336, Note_off_c, 10, 69, 127
1, 424337, Note_on_c, 10, 81, 127
1, 424566, Note_off_c, 10, 57, 127
1, 424567, Note_on_c, 0, 72, 127
1, 424567, Note_on_c, 10, 57, 127
1, 424796, Note_off_c, 10, 57, 127
1, 424796, Note_off_c, 0, 72, 127
1, 424797, Note_on_c, 2, 74, 127
1, 424797, Note_on_c, 12, 59, 127
1, 425026, Note_off_c, 12, 59, 127
1, 425026, Note_off_c, 2, 74, 127
1, 425027, Note_on_c, 0, 72, 127
1, 425027, Note_on_c, 4, 52, 127
1, 425256, Note_off_c, 4, 52, 127
1, 425256, Note_off_c, 0, 72, 127
1, 425256, Note_off_c, 10, 81, 127
1, 425257, Note_on_c, 8, 80, 127
1, 425257, Note_on_c, 12, 71, 127
1, 425257, Note_on_c, 4, 64, 127
1, 425486, Note_off_c, 4, 64, 127
1, 425487, Note_on_c, 2, 62, 127
1, 425716, Note_off_c, 2, 62, 127
1, 425717, Note_on_c, 4, 64, 127
1, 425946, Note_off_c, 4, 64, 127
1, 425946, Note_off_c, 12, 71, 127
1, 425946, Note_off_c, 8, 80, 127
1, 425947, Note_on_c, 8, 80, 127
1, 425947, Note_on_c, 12, 71, 127
1, 425947, Note_on_c, 12, 59, 127
1, 426176, Note_off_c, 12, 59, 127
1, 426176, Note_off_c, 12, 71, 127
1, 426176, Note_off_c, 8, 80, 127
1, 426177, Note_on_c, 10, 81, 127
1, 426177, Note_on_c, 10, 69, 127
1, 426177, Note_on_c, 0, 60, 127
1, 426406, Note_off_c, 0, 60, 127
1, 426407, Note_on_c, 4, 64, 127
1, 426521, Note_off_c, 4, 64, 127
1, 426522, Note_on_c, 2, 62, 127
1, 426632, Note_off_c, 10, 69, 127
1, 426632, Note_off_c, 10, 81, 127
1, 426636, Note_off_c, 2, 62, 127
1, 426637, Note_on_c, 0, 60, 127
1, 426866, Note_off_c, 0, 60, 127
1, 426867, Note_on_c, 0, 72, 127
1, 426867, Note_on_c, 10, 57, 127
1, 427096, Note_off_c, 10, 57, 127
1, 427096, Note_off_c, 0, 72, 127
1, 427097, Note_on_c, 10, 81, 127
1, 427097, Note_on_c, 2, 74, 127
1, 427097, Note_on_c, 5, 53, 127
1, 427211, Note_off_c, 2, 74, 127
1, 427212, Note_on_c, 4, 76, 127
1, 427326, Note_off_c, 4, 76, 127
1, 427326, Note_off_c, 5, 53, 127
1, 427327, Note_on_c, 0, 72, 127
1, 427327, Note_on_c, 2, 50, 127
1, 427441, Note_off_c, 0, 72, 127
1, 427442, Note_on_c, 2, 74, 127
1, 427556, Note_off_c, 2, 74, 127
1, 427556, Note_off_c, 2, 50, 127
1, 427557, Note_on_c, 12, 71, 127
1, 427557, Note_on_c, 7, 55, 127
1, 427786, Note_off_c, 7, 55, 127
1, 427787, Note_on_c, 2, 62, 127
1, 427901, Note_off_c, 2, 62, 127
1, 427902, Note_on_c, 0, 60, 127
1, 428012, Note_off_c, 12, 71, 127
1, 428016, Note_off_c, 0, 60, 127
1, 428016, Note_off_c, 10, 81, 127
1, 428017, Note_on_c, 12, 59, 127
1, 428246, Note_off_c, 12, 59, 127
1, 428247, Note_on_c, 12, 71, 127
1, 428247, Note_on_c, 7, 55, 127
1, 428476, Note_off_c, 7, 55, 127
1, 428476, Note_off_c, 12, 71, 127
1, 428477, Note_on_c, 7, 79, 127
1, 428477, Note_on_c, 0, 72, 127
1, 428477, Note_on_c, 4, 52, 127
1, 428591, Note_off_c, 0, 72, 127
1, 428592, Note_on_c, 2, 74, 127
1, 428706, Note_off_c, 2, 74, 127
1, 428706, Note_off_c, 4, 52, 127
1, 428707, Note_on_c, 12, 71, 127
1, 428707, Note_on_c, 0, 48, 127
1, 428821, Note_off_c, 12, 71, 127
1, 428822, Note_on_c, 0, 72, 127
1, 428936, Note_off_c, 0, 72, 127
1, 428936, Note_off_c, 0, 48, 127
1, 428937, Note_on_c, 10, 69, 127
1, 428937, Note_on_c, 5, 53, 127
1, 429166, Note_off_c, 5, 53, 127
1, 429167, Note_on_c, 0, 60, 127
1, 429281, Note_off_c, 0, 60, 127
1, 429282, Note_on_c, 12, 59, 127
1, 429392, Note_off_c, 10, 69, 127
1, 429396, Note_off_c, 12, 59, 127
1, 429396, Note_off_c, 7, 79, 127
1, 429397, Note_on_c, 10, 57, 127
1, 429626, Note_off_c, 10, 57, 127
1, 429627, Note_on_c, 10, 69, 127
1, 429627, Note_on_c, 5, 53, 127
1, 429856, Note_off_c, 5, 53, 127
1, 429856, Note_off_c, 10, 69, 127
1, 429857, Note_on_c, 5, 77, 127
1, 429857, Note_on_c, 12, 71, 127
1, 429857, Note_on_c, 2, 50, 127
1, 429971, Note_off_c, 12, 71, 127
1, 429972, Note_on_c, 0, 72, 127
1, 430086, Note_off_c, 0, 72, 127
1, 430086, Note_off_c, 2, 50, 127
1, 430087, Note_on_c, 10, 69, 127
1, 430087, Note_on_c, 12, 47, 127
1, 430201, Note_off_c, 10, 69, 127
1, 430202, Note_on_c, 12, 71, 127
1, 430316, Note_off_c, 12, 71, 127
1, 430316, Note_off_c, 12, 47, 127
1, 430317, Note_on_c, 8, 68, 127
1, 430317, Note_on_c, 4, 52, 127
1, 430546, Note_off_c, 4, 52, 127
1, 430547, Note_on_c, 12, 59, 127
1, 430661, Note_off_c, 12, 59, 127
1, 430662, Note_on_c, 10, 57, 127
1, 430776, Note_off_c, 10, 57, 127
1, 430776, Note_off_c, 8, 68, 127
1, 430776, Note_off_c, 5, 77, 127
1, 430777, Note_on_c, 12, 71, 127
1, 430777, Note_on_c, 8, 56, 127
1, 431006, Note_off_c, 8, 56, 127
1, 431007, Note_on_c, 4, 76, 127
1, 431007, Note_on_c, 4, 52, 127
1, 431121, Note_off_c, 4, 76, 127
1, 431122, Note_on_c, 2, 74, 127
1, 431236, Note_off_c, 2, 74, 127
1, 431236, Note_off_c, 4, 52, 127
1, 431236, Note_off_c, 12, 71, 127
1, 431237, Note_on_c, 0, 72, 127
1, 431237, Note_on_c, 4, 64, 127
1, 431237, Note_on_c, 10, 57, 127
1, 431466, Note_off_c, 10, 57, 127
1, 431466, Note_off_c, 0, 72, 127
1, 431467, Note_on_c, 12, 71, 127
1, 431467, Note_on_c, 7, 55, 127
1, 431581, Note_off_c, 12, 71, 127
1, 431582, Note_on_c, 10, 69, 127
1, 431696, Note_off_c, 10, 69, 127
1, 431696, Note_off_c, 7, 55, 127
1, 431696, Note_off_c, 4, 64, 127
1, 431697, Note_on_c, 2, 74, 127
1, 431697, Note_on_c, 10, 69, 127
1, 431697, Note_on_c, 5, 53, 127
1, 431926, Note_off_c, 5, 53, 127
1, 431926, Note_off_c, 2, 74, 127
1, 431927, Note_on_c, 0, 72, 127
1, 431927, Note_on_c, 4, 52, 127
1, 432041, Note_off_c, 4, 52, 127
1, 432041, Note_off_c, 0, 72, 127
1, 432042, Note_on_c, 12, 71, 127
1, 432042, Note_on_c, 2, 50, 127
1, 432156, Note_off_c, 2, 50, 127
1, 432156, Note_off_c, 12, 71, 127
1, 432157, Note_on_c, 4, 76, 127
1, 432157, Note_on_c, 0, 48, 127
1, 432386, Note_off_c, 0, 48, 127
1, 432386, Note_off_c, 4, 76, 127
1, 432387, Note_on_c, 2, 74, 127
1, 432387, Note_on_c, 12, 47, 127
1, 432501, Note_off_c, 12, 47, 127
1, 432501, Note_off_c, 2, 74, 127
1, 432502, Note_on_c, 0, 72, 127
1, 432502, Note_on_c, 10, 45, 127
1, 432616, Note_off_c, 10, 45, 127
1, 432616, Note_off_c, 0, 72, 127
1, 432616, Note_off_c, 10, 69, 127
1, 432617, Note_on_c, 0, 72, 127
1, 432617, Note_on_c, 8, 68, 127
1, 432617, Note_on_c, 4, 52, 127
1, 432693, Note_off_c, 0, 72, 127
1, 432694, Note_on_c, 12, 71, 127
1, 432770, Note_off_c, 12, 71, 127
1, 432771, Note_on_c, 0, 72, 127
1, 432847, Note_off_c, 0, 72, 127
1, 432848, Note_on_c, 12, 71, 127
1, 432962, Note_off_c, 12, 71, 127
1, 432963, Note_on_c, 10, 69, 127
1, 433025, Note_off_c, 8, 68, 127
1, 433077, Note_off_c, 10, 69, 127
1, 433077, Note_off_c, 4, 52, 127
1, 433078, Note_on_c, 10, 69, 127
1, 433078, Note_on_c, 10, 57, 127
1, 433307, Note_off_c, 10, 57, 127
1, 433308, Note_on_c, 4, 64, 127
1, 433422, Note_off_c, 4, 64, 127
1, 433423, Note_on_c, 2, 62, 127
1, 433537, Note_off_c, 2, 62, 127
1, 433538, Note_on_c, 0, 60, 127
1, 433653, Note_off_c, 10, 69, 127
1, 433767, Note_off_c, 0, 60, 127
1, 433768, Note_on_c, 10, 57, 127
1, 433996, Note_off_c, 10, 57, 127
1, 433998, Note_on_c, 10, 69, 127
1, 434228, Note_on_c, 0, 72, 127
1, 434228, Note_on_c, 10, 45, 127
1, 434457, Note_off_c, 10, 45, 127
1, 434457, Note_off_c, 0, 72, 127
1, 434457, Note_off_c, 10, 69, 127
1, 434458, Note_on_c, 2, 74, 127
1, 434458, Note_on_c, 10, 69, 127
1, 434458, Note_on_c, 12, 47, 127
1, 434687, Note_off_c, 12, 47, 127
1, 434688, Note_on_c, 4, 40, 127
1, 434917, Note_off_c, 4, 40, 127
1, 434917, Note_off_c, 10, 69, 127
1, 434917, Note_off_c, 2, 74, 127
1, 434918, Note_on_c, 12, 71, 127
1, 434918, Note_on_c, 8, 68, 127
1, 434918, Note_on_c, 4, 52, 127
1, 435147, Note_off_c, 4, 52, 127
1, 435148, Note_on_c, 2, 50, 127
1, 435377, Note_off_c, 2, 50, 127
1, 435378, Note_on_c, 4, 52, 127
1, 435577, Note_off_c, 8, 68, 127
1, 435577, Note_off_c, 12, 71, 127
1, 435607, Note_off_c, 4, 52, 127
1, 435608, Note_on_c, 4, 76, 127
1, 435608, Note_on_c, 8, 68, 127
1, 435608, Note_on_c, 12, 47, 127
1, 435837, Note_off_c, 12, 47, 127
1, 435837, Note_off_c, 8, 68, 127
1, 435837, Note_off_c, 4, 76, 127
1, 435838, Note_on_c, 10, 69, 127
1, 435838, Note_on_c, 7, 67, 127
1, 435838, Note_on_c, 1, 49, 127
1, 436067, Note_off_c, 1, 49, 127
1, 436068, Note_on_c, 4, 52, 127
1, 436182, Note_off_c, 4, 52, 127
1, 436183, Note_on_c, 2, 50, 127
1, 436297, Note_off_c, 2, 50, 127
1, 436298, Note_on_c, 1, 49, 127
1, 436497, Note_off_c, 7, 67, 127
1, 436497, Note_off_c, 10, 69, 127
1, 436527, Note_off_c, 1, 49, 127
1, 436528, Note_on_c, 10, 69, 127
1, 436528, Note_on_c, 7, 67, 127
1, 436528, Note_on_c, 10, 45, 127
1, 436757, Note_off_c, 10, 45, 127
1, 436757, Note_off_c, 7, 67, 127
1, 436757, Note_off_c, 10, 69, 127
1, 436758, Note_on_c, 10, 69, 127
1, 436758, Note_on_c, 5, 65, 127
1, 436758, Note_on_c, 2, 50, 127
1, 436872, Note_off_c, 2, 50, 127
1, 436873, Note_on_c, 4, 52, 127
1, 436987, Note_off_c, 4, 52, 127
1, 436987, Note_off_c, 10, 69, 127
1, 436988, Note_on_c, 2, 74, 127
1, 436988, Note_on_c, 0, 48, 127
1, 437102, Note_off_c, 0, 48, 127
1, 437103, Note_on_c, 2, 50, 127
1, 437217, Note_off_c, 2, 50, 127
1, 437217, Note_off_c, 2, 74, 127
1, 437217, Note_off_c, 5, 65, 127
1, 437218, Note_on_c, 7, 67, 127
1, 437218, Note_on_c, 5, 65, 127
1, 437218, Note_on_c, 12, 47, 127
1, 437447, Note_off_c, 12, 47, 127
1, 437448, Note_on_c, 2, 50, 127
1, 437562, Note_off_c, 2, 50, 127
1, 437563, Note_on_c, 0, 48, 127
1, 437677, Note_off_c, 0, 48, 127
1, 437678, Note_on_c, 12, 47, 127
1, 437853, Note_off_c, 5, 65, 127
1, 437853, Note_off_c, 7, 67, 127
1, 437907, Note_off_c, 12, 47, 127
1, 437908, Note_on_c, 7, 67, 127
1, 437908, Note_on_c, 5, 65, 127
1, 437908, Note_on_c, 7, 43, 127
1, 438137, Note_off_c, 7, 43, 127
1, 438137, Note_off_c, 5, 65, 127
1, 438137, Note_off_c, 7, 67, 127
1, 438138, Note_on_c, 7, 67, 127
1, 438138, Note_on_c, 4, 64, 127
1, 438138, Note_on_c, 0, 48, 127
1, 438252, Note_off_c, 0, 48, 127
1, 438253, Note_on_c, 2, 50, 127
1, 438367, Note_off_c, 2, 50, 127
1, 438367, Note_off_c, 7, 67, 127
1, 438368, Note_on_c, 0, 72, 127
1, 438368, Note_on_c, 11, 46, 127
1, 438482, Note_off_c, 11, 46, 127
1, 438483, Note_on_c, 0, 48, 127
1, 438597, Note_off_c, 0, 48, 127
1, 438597, Note_off_c, 0, 72, 127
1, 438597, Note_off_c, 4, 64, 127
1, 438598, Note_on_c, 5, 65, 127
1, 438598, Note_on_c, 4, 64, 127
1, 438598, Note_on_c, 10, 45, 127
1, 438827, Note_off_c, 10, 45, 127
1, 438828, Note_on_c, 0, 48, 127
1, 438942, Note_off_c, 0, 48, 127
1, 438943, Note_on_c, 11, 46, 127
1, 439057, Note_off_c, 11, 46, 127
1, 439058, Note_on_c, 10, 45, 127
1, 439221, Note_off_c, 4, 64, 127
1, 439221, Note_off_c, 5, 65, 127
1, 439287, Note_off_c, 10, 45, 127
1, 439288, Note_on_c, 5, 65, 127
1, 439288, Note_on_c, 4, 64, 127
1, 439288, Note_on_c, 5, 41, 127
1, 439517, Note_off_c, 5, 41, 127
1, 439517, Note_off_c, 4, 64, 127
1, 439517, Note_off_c, 5, 65, 127
1, 439518, Note_on_c, 5, 65, 127
1, 439518, Note_on_c, 2, 62, 127
1, 439518, Note_on_c, 11, 46, 127
1, 439632, Note_off_c, 11, 46, 127
1, 439633, Note_on_c, 0, 48, 127
1, 439747, Note_off_c, 0, 48, 127
1, 439747, Note_off_c, 5, 65, 127
1, 439748, Note_on_c, 11, 70, 127
1, 439748, Note_on_c, 10, 45, 127
1, 439862, Note_off_c, 10, 45, 127
1, 439863, Note_on_c, 11, 46, 127
1, 439977, Note_off_c, 11, 46, 127
1, 439977, Note_off_c, 11, 70, 127
1, 439977, Note_off_c, 2, 62, 127
1, 439978, Note_on_c, 4, 64, 127
1, 439978, Note_on_c, 2, 62, 127
1, 439978, Note_on_c, 8, 44, 127
1, 440207, Note_off_c, 8, 44, 127
1, 440208, Note_on_c, 12, 59, 127
1, 440322, Note_off_c, 12, 59, 127
1, 440323, Note_on_c, 10, 57, 127
1, 440437, Note_off_c, 10, 57, 127
1, 440438, Note_on_c, 8, 56, 127
1, 440613, Note_off_c, 2, 62, 127
1, 440613, Note_off_c, 4, 64, 127
1, 440667, Note_off_c, 8, 56, 127
1, 440668, Note_on_c, 4, 64, 127
1, 440668, Note_on_c, 2, 62, 127
1, 440668, Note_on_c, 4, 52, 127
1, 440897, Note_off_c, 4, 52, 127
1, 440897, Note_off_c, 2, 62, 127
1, 440897, Note_off_c, 4, 64, 127
1, 440898, Note_on_c, 4, 64, 127
1, 440898, Note_on_c, 0, 60, 127
1, 440898, Note_on_c, 10, 57, 127
1, 441127, Note_off_c, 10, 57, 127
1, 441127, Note_off_c, 4, 64, 127
1, 441128, Note_on_c, 10, 69, 127
1, 441128, Note_on_c, 10, 45, 127
1, 441242, Note_off_c, 10, 69, 127
1, 441243, Note_on_c, 7, 67, 127
1, 441357, Note_off_c, 7, 67, 127
1, 441357, Note_off_c, 10, 45, 127
1, 441358, Note_on_c, 5, 65, 127
1, 441358, Note_on_c, 2, 50, 127
1, 441587, Note_off_c, 5, 65, 127
1, 441587, Note_off_c, 0, 60, 127
1, 441588, Note_on_c, 4, 64, 127
1, 441588, Note_on_c, 12, 59, 127
1, 441702, Note_off_c, 4, 64, 127
1, 441703, Note_on_c, 2, 62, 127
1, 441817, Note_off_c, 2, 62, 127
1, 441817, Note_off_c, 2, 50, 127
1, 441818, Note_on_c, 4, 64, 127
1, 441818, Note_on_c, 0, 48, 127
1, 442047, Note_off_c, 4, 64, 127
1, 442047, Note_off_c, 12, 59, 127
1, 442048, Note_on_c, 2, 62, 127
1, 442048, Note_on_c, 10, 57, 127
1, 442162, Note_off_c, 2, 62, 127
1, 442163, Note_on_c, 0, 60, 127
1, 442277, Note_off_c, 0, 60, 127
1, 442277, Note_off_c, 0, 48, 127
1, 442278, Note_on_c, 2, 62, 127
1, 442278, Note_on_c, 12, 47, 127
1, 442507, Note_off_c, 2, 62, 127
1, 442507, Note_off_c, 10, 57, 127
1, 442508, Note_on_c, 0, 60, 127
1, 442508, Note_on_c, 8, 56, 127
1, 442622, Note_off_c, 0, 60, 127
1, 442623, Note_on_c, 12, 59, 127
1, 442737, Note_off_c, 12, 59, 127
1, 442737, Note_off_c, 8, 56, 127
1, 442737, Note_off_c, 12, 47, 127
1, 442738, Note_on_c, 0, 60, 127
1, 442738, Note_on_c, 10, 57, 127
1, 442738, Note_on_c, 10, 45, 127
1, 442967, Note_off_c, 10, 45, 127
1, 442968, Note_on_c, 5, 53, 127
1, 443082, Note_off_c, 5, 53, 127
1, 443083, Note_on_c, 4, 52, 127
1, 443193, Note_off_c, 10, 57, 127
1, 443193, Note_off_c, 0, 60, 127
1, 443197, Note_off_c, 4, 52, 127
1, 443198, Note_on_c, 2, 50, 127
1, 443427, Note_off_c, 2, 50, 127
1, 443428, Note_on_c, 12, 59, 127
1, 443428, Note_on_c, 0, 60, 127
1, 443428, Note_on_c, 12, 47, 127
1, 443657, Note_off_c, 12, 47, 127
1, 443657, Note_off_c, 0, 60, 127
1, 443657, Note_off_c, 12, 59, 127
1, 443658, Note_on_c, 0, 60, 127
1, 443658, Note_on_c, 8, 56, 127
1, 443658, Note_on_c, 4, 52, 127
1, 443734, Note_off_c, 0, 60, 127
1, 443735, Note_on_c, 12, 59, 127
1, 443811, Note_off_c, 12, 59, 127
1, 443812, Note_on_c, 0, 60, 127
1, 443888, Note_off_c, 0, 60, 127
1, 443888, Note_off_c, 4, 52, 127
1, 443889, Note_on_c, 12, 59, 127
1, 443889, Note_on_c, 4, 40, 127
1, 443995, Note_off_c, 8, 56, 127
1, 444003, Note_off_c, 12, 59, 127
1, 444004, Note_on_c, 10, 57, 127
1, 444118, Note_off_c, 10, 57, 127
1, 444118, Note_off_c, 4, 40, 127
1, 444119, Note_on_c, 10, 57, 127
1, 444119, Note_on_c, 10, 45, 127
1, 444349, Note_on_c, 4, 76, 127
1, 444463, Note_off_c, 4, 76, 127
1, 444464, Note_on_c, 2, 74, 127
1, 444574, Note_off_c, 10, 57, 127
1, 444578, Note_off_c, 2, 74, 127
1, 444579, Note_on_c, 1, 73, 127
1, 444808, Note_off_c, 1, 73, 127
1, 444808, Note_off_c, 10, 45, 127
1, 444809, Note_on_c, 10, 69, 127
1, 444809, Note_on_c, 4, 64, 127
1, 444923, Note_off_c, 4, 64, 127
1, 444924, Note_on_c, 2, 62, 127
1, 445038, Note_off_c, 2, 62, 127
1, 445038, Note_off_c, 10, 69, 127
1, 445039, Note_on_c, 10, 81, 127
1, 445039, Note_on_c, 1, 61, 127
1, 445153, Note_off_c, 10, 81, 127
1, 445154, Note_on_c, 11, 82, 127
1, 445268, Note_off_c, 11, 82, 127
1, 445268, Note_off_c, 1, 61, 127
1, 445269, Note_on_c, 7, 79, 127
1, 445269, Note_on_c, 10, 57, 127
1, 445383, Note_off_c, 7, 79, 127
1, 445384, Note_on_c, 10, 81, 127
1, 445498, Note_off_c, 10, 81, 127
1, 445498, Note_off_c, 10, 57, 127
1, 445499, Note_on_c, 5, 77, 127
1, 445499, Note_on_c, 2, 62, 127
1, 445729, Note_on_c, 10, 69, 127
1, 445843, Note_off_c, 10, 69, 127
1, 445844, Note_on_c, 7, 67, 127
1, 445954, Note_off_c, 2, 62, 127
1, 445958, Note_off_c, 7, 67, 127
1, 445959, Note_on_c, 5, 65, 127
1, 446188, Note_off_c, 5, 65, 127
1, 446188, Note_off_c, 5, 77, 127
1, 446189, Note_on_c, 10, 81, 127
1, 446189, Note_on_c, 2, 62, 127
1, 446303, Note_off_c, 10, 81, 127
1, 446304, Note_on_c, 7, 79, 127
1, 446418, Note_off_c, 7, 79, 127
1, 446418, Note_off_c, 2, 62, 127
1, 446419, Note_on_c, 5, 77, 127
1, 446419, Note_on_c, 2, 74, 127
1, 446648, Note_off_c, 5, 77, 127
1, 446649, Note_on_c, 11, 82, 127
1, 446649, Note_on_c, 2, 62, 127
1, 446878, Note_off_c, 2, 62, 127
1, 446878, Note_off_c, 11, 82, 127
1, 446879, Note_on_c, 7, 79, 127
1, 446879, Note_on_c, 4, 64, 127
1, 447108, Note_off_c, 4, 64, 127
1, 447109, Note_on_c, 10, 57, 127
1, 447338, Note_off_c, 10, 57, 127
1, 447338, Note_off_c, 7, 79, 127
1, 447338, Note_off_c, 2, 74, 127
1, 447339, Note_on_c, 4, 76, 127
1, 447339, Note_on_c, 1, 73, 127
1, 447339, Note_on_c, 10, 69, 127
1, 447568, Note_off_c, 10, 69, 127
1, 447569, Note_on_c, 7, 67, 127
1, 447798, Note_off_c, 7, 67, 127
1, 447799, Note_on_c, 10, 69, 127
1, 448028, Note_off_c, 10, 69, 127
1, 448028, Note_off_c, 1, 73, 127
1, 448028, Note_off_c, 4, 76, 127
1, 448029, Note_on_c, 4, 76, 127
1, 448029, Note_on_c, 1, 73, 127
1, 448029, Note_on_c, 4, 64, 127
1, 448258, Note_off_c, 4, 64, 127
1, 448258, Note_off_c, 1, 73, 127
1, 448258, Note_off_c, 4, 76, 127
1, 448259, Note_on_c, 2, 74, 127
1, 448259, Note_on_c, 5, 65, 127
1, 448488, Note_off_c, 5, 65, 127
1, 448489, Note_on_c, 10, 81, 127
1, 448489, Note_on_c, 4, 64, 127
1, 448603, Note_off_c, 10, 81, 127
1, 448604, Note_on_c, 7, 79, 127
1, 448714, Note_off_c, 2, 74, 127
1, 448718, Note_off_c, 7, 79, 127
1, 448718, Note_off_c, 4, 64, 127
1, 448719, Note_on_c, 5, 77, 127
1, 448719, Note_on_c, 2, 62, 127
1, 448948, Note_off_c, 2, 62, 127
1, 448949, Note_on_c, 12, 71, 127
1, 448949, Note_on_c, 0, 60, 127
1, 449063, Note_off_c, 12, 71, 127
1, 449064, Note_on_c, 10, 69, 127
1, 449174, Note_off_c, 5, 77, 127
1, 449178, Note_off_c, 10, 69, 127
1, 449178, Note_off_c, 0, 60, 127
1, 449179, Note_on_c, 7, 67, 127
1, 449179, Note_on_c, 12, 59, 127
1, 449408, Note_off_c, 12, 59, 127
1, 449409, Note_on_c, 7, 79, 127
1, 449409, Note_on_c, 7, 55, 127
1, 449523, Note_off_c, 7, 79, 127
1, 449524, Note_on_c, 5, 77, 127
1, 449634, Note_off_c, 7, 67, 127
1, 449638, Note_off_c, 5, 77, 127
1, 449638, Note_off_c, 7, 55, 127
1, 449639, Note_on_c, 4, 76, 127
1, 449639, Note_on_c, 0, 60, 127
1, 449868, Note_off_c, 0, 60, 127
1, 449869, Note_on_c, 7, 67, 127
1, 449869, Note_on_c, 4, 64, 127
1, 449983, Note_off_c, 4, 64, 127
1, 449983, Note_off_c, 7, 67, 127
1, 449984, Note_on_c, 5, 65, 127
1, 449984, Note_on_c, 2, 62, 127
1, 450094, Note_off_c, 4, 76, 127
1, 450098, Note_off_c, 2, 62, 127
1, 450098, Note_off_c, 5, 65, 127
1, 450099, Note_on_c, 4, 64, 127
1, 450099, Note_on_c, 0, 60, 127
1, 450328, Note_off_c, 0, 60, 127
1, 450328, Note_off_c, 4, 64, 127
1, 450329, Note_on_c, 10, 69, 127
1, 450329, Note_on_c, 2, 62, 127
1, 450329, Note_on_c, 11, 58, 127
1, 450443, Note_off_c, 10, 69, 127
1, 450444, Note_on_c, 7, 67, 127
1, 450558, Note_off_c, 7, 67, 127
1, 450558, Note_off_c, 11, 58, 127
1, 450558, Note_off_c, 2, 62, 127
1, 450559, Note_on_c, 5, 65, 127
1, 450559, Note_on_c, 0, 60, 127
1, 450559, Note_on_c, 10, 57, 127
1, 450788, Note_off_c, 10, 57, 127
1, 450788, Note_off_c, 5, 65, 127
1, 450789, Note_on_c, 5, 77, 127
1, 450789, Note_on_c, 5, 53, 127
1, 450903, Note_off_c, 5, 77, 127
1, 450904, Note_on_c, 4, 76, 127
1, 451014, Note_off_c, 0, 60, 127
1, 451018, Note_off_c, 4, 76, 127
1, 451018, Note_off_c, 5, 53, 127
1, 451019, Note_on_c, 2, 74, 127
1, 451019, Note_on_c, 11, 58, 127
1, 451248, Note_off_c, 11, 58, 127
1, 451248, Note_off_c, 2, 74, 127
1, 451249, Note_on_c, 5, 77, 127
1, 451249, Note_on_c, 2, 62, 127
1, 451363, Note_off_c, 2, 62, 127
1, 451363, Note_off_c, 5, 77, 127
1, 451364, Note_on_c, 4, 76, 127
1, 451364, Note_on_c, 0, 60, 127
1, 451478, Note_off_c, 0, 60, 127
1, 451478, Note_off_c, 4, 76, 127
1, 451479, Note_on_c, 2, 74, 127
1, 451479, Note_on_c, 11, 58, 127
1, 451708, Note_off_c, 11, 58, 127
1, 451709, Note_on_c, 7, 67, 127
1, 451709, Note_on_c, 10, 57, 127
1, 451823, Note_off_c, 7, 67, 127
1, 451824, Note_on_c, 5, 65, 127
1, 451934, Note_off_c, 2, 74, 127
1, 451938, Note_off_c, 5, 65, 127
1, 451938, Note_off_c, 10, 57, 127
1, 451939, Note_on_c, 4, 64, 127
1, 451939, Note_on_c, 7, 55, 127
1, 452168, Note_off_c, 7, 55, 127
1, 452169, Note_on_c, 4, 76, 127
1, 452169, Note_on_c, 4, 52, 127
1, 452283, Note_off_c, 4, 76, 127
1, 452284, Note_on_c, 2, 74, 127
1, 452394, Note_off_c, 4, 64, 127
1, 452398, Note_off_c, 2, 74, 127
1, 452398, Note_off_c, 4, 52, 127
1, 452399, Note_on_c, 0, 72, 127
1, 452399, Note_on_c, 10, 57, 127
1, 452628, Note_off_c, 10, 57, 127
1, 452629, Note_on_c, 4, 64, 127
1, 452629, Note_on_c, 0, 60, 127
1, 452743, Note_off_c, 0, 60, 127
1, 452743, Note_off_c, 4, 64, 127
1, 452744, Note_on_c, 2, 62, 127
1, 452744, Note_on_c, 12, 59, 127
1, 452854, Note_off_c, 0, 72, 127
1, 452858, Note_off_c, 12, 59, 127
1, 452858, Note_off_c, 2, 62, 127
1, 452859, Note_on_c, 0, 60, 127
1, 452859, Note_on_c, 10, 57, 127
1, 453088, Note_off_c, 10, 57, 127
1, 453088, Note_off_c, 0, 60, 127
1, 453089, Note_on_c, 5, 65, 127
1, 453089, Note_on_c, 11, 58, 127
1, 453089, Note_on_c, 7, 55, 127
1, 453203, Note_off_c, 5, 65, 127
1, 453204, Note_on_c, 3, 63, 127
1, 453318, Note_off_c, 3, 63, 127
1, 453318, Note_off_c, 7, 55, 127
1, 453318, Note_off_c, 11, 58, 127
1, 453319, Note_on_c, 2, 62, 127
1, 453319, Note_on_c, 10, 57, 127
1, 453319, Note_on_c, 6, 54, 127
1, 453548, Note_off_c, 6, 54, 127
1, 453548, Note_off_c, 2, 62, 127
1, 453549, Note_on_c, 2, 74, 127
1, 453549, Note_on_c, 2, 50, 127
1, 453663, Note_off_c, 2, 74, 127
1, 453664, Note_on_c, 0, 72, 127
1, 453778, Note_off_c, 0, 72, 127
1, 453778, Note_off_c, 2, 50, 127
1, 453778, Note_off_c, 10, 57, 127
1, 453779, Note_on_c, 11, 70, 127
1, 453779, Note_on_c, 11, 58, 127
1, 453779, Note_on_c, 7, 55, 127
1, 454008, Note_off_c, 7, 55, 127
1, 454008, Note_off_c, 11, 58, 127
1, 454008, Note_off_c, 11, 70, 127
1, 454009, Note_on_c, 10, 69, 127
1, 454009, Note_on_c, 0, 60, 127
1, 454009, Note_on_c, 10, 57, 127
1, 454123, Note_off_c, 10, 69, 127
1, 454124, Note_on_c, 7, 67, 127
1, 454238, Note_off_c, 7, 67, 127
1, 454238, Note_off_c, 10, 57, 127
1, 454238, Note_off_c, 0, 60, 127
1, 454239, Note_on_c, 5, 65, 127
1, 454239, Note_on_c, 2, 62, 127
1, 454239, Note_on_c, 11, 58, 127
1, 454353, Note_off_c, 5, 65, 127
1, 454354, Note_on_c, 10, 69, 127
1, 454468, Note_off_c, 10, 69, 127
1, 454468, Note_off_c, 11, 58, 127
1, 454469, Note_on_c, 11, 70, 127
1, 454469, Note_on_c, 5, 53, 127
1, 454583, Note_off_c, 11, 70, 127
1, 454584, Note_on_c, 10, 69, 127
1, 454698, Note_off_c, 10, 69, 127
1, 454698, Note_off_c, 5, 53, 127
1, 454699, Note_on_c, 7, 67, 127
1, 454699, Note_on_c, 7, 55, 127
1, 454813, Note_off_c, 7, 67, 127
1, 454814, Note_on_c, 5, 65, 127
1, 454928, Note_off_c, 5, 65, 127
1, 454928, Note_off_c, 7, 55, 127
1, 454928, Note_off_c, 2, 62, 127
1, 454929, Note_on_c, 7, 67, 127
1, 454929, Note_on_c, 1, 61, 127
1, 454929, Note_on_c, 10, 57, 127
1, 455043, Note_off_c, 1, 61, 127
1, 455043, Note_off_c, 7, 67, 127
1, 455044, Note_on_c, 4, 64, 127
1, 455158, Note_off_c, 4, 64, 127
1, 455158, Note_off_c, 10, 57, 127
1, 455159, Note_on_c, 5, 65, 127
1, 455159, Note_on_c, 2, 62, 127
1, 455159, Note_on_c, 2, 50, 127
1, 455388, Note_off_c, 2, 50, 127
1, 455389, Note_on_c, 11, 58, 127
1, 455503, Note_off_c, 11, 58, 127
1, 455504, Note_on_c, 10, 57, 127
1, 455618, Note_off_c, 10, 57, 127
1, 455618, Note_off_c, 2, 62, 127
1, 455618, Note_off_c, 5, 65, 127
1, 455619, Note_on_c, 4, 64, 127
1, 455619, Note_on_c, 2, 62, 127
1, 455619, Note_on_c, 7, 55, 127
1, 455848, Note_off_c, 7, 55, 127
1, 455849, Note_on_c, 4, 52, 127
1, 456078, Note_off_c, 4, 52, 127
1, 456079, Note_on_c, 10, 57, 127
1, 456308, Note_off_c, 10, 57, 127
1, 456308, Note_off_c, 2, 62, 127
1, 456308, Note_off_c, 4, 64, 127
1, 456309, Note_on_c, 4, 64, 127
1, 456309, Note_on_c, 1, 61, 127
1, 456309, Note_on_c, 10, 45, 127
1, 456538, Note_off_c, 10, 45, 127
1, 456538, Note_off_c, 1, 61, 127
1, 456538, Note_off_c, 4, 64, 127
1, 456539, Note_on_c, 2, 62, 127
1, 456539, Note_on_c, 2, 50, 127
1, 456769, Note_on_c, 10, 45, 127
1, 456883, Note_off_c, 10, 45, 127
1, 456884, Note_on_c, 7, 43, 127
1, 456994, Note_off_c, 2, 50, 127
1, 456994, Note_off_c, 2, 62, 127
1, 456998, Note_off_c, 7, 43, 127
1, 456999, Note_on_c, 5, 41, 127
1, 457228, Note_off_c, 5, 41, 127
1, 457229, Note_on_c, 2, 38, 127
1, 457458, Note_off_c, 2, 38, 127
1, 457459, Note_on_c, 2, 50, 127
1, 457689, Note_on_c, 2, 62, 127
1, 457918, Note_off_c, 2, 62, 127
1, 457919, Note_on_c, 4, 64, 127
1, 458148, Note_off_c, 4, 64, 127
1, 458149, Note_on_c, 10, 57, 127
1, 458378, Note_off_c, 10, 57, 127
1, 458378, Note_off_c, 2, 50, 127
1, 458379, Note_on_c, 10, 69, 127
1, 458379, Note_on_c, 1, 49, 127
1, 458608, Note_off_c, 10, 69, 127
1, 458609, Note_on_c, 7, 67, 127
1, 458838, Note_off_c, 7, 67, 127
1, 458839, Note_on_c, 10, 69, 127
1, 459068, Note_off_c, 10, 69, 127
1, 459068, Note_off_c, 1, 49, 127
1, 459069, Note_on_c, 4, 64, 127
1, 459069, Note_on_c, 1, 49, 127
1, 459298, Note_off_c, 1, 49, 127
1, 459298, Note_off_c, 4, 64, 127
1, 459299, Note_on_c, 5, 65, 127
1, 459299, Note_on_c, 2, 50, 127
1, 459528, Note_off_c, 5, 65, 127
1, 459529, Note_on_c, 10, 69, 127
1, 459643, Note_off_c, 10, 69, 127
1, 459644, Note_on_c, 7, 67, 127
1, 459758, Note_off_c, 7, 67, 127
1, 459759, Note_on_c, 5, 65, 127
1, 459874, Note_off_c, 2, 50, 127
1, 459988, Note_off_c, 5, 65, 127
1, 459989, Note_on_c, 2, 62, 127
1, 459989, Note_on_c, 2, 50, 127
1, 460103, Note_off_c, 2, 50, 127
1, 460104, Note_on_c, 0, 48, 127
1, 460218, Note_off_c, 0, 48, 127
1, 460218, Note_off_c, 2, 62, 127
1, 460219, Note_on_c, 7, 67, 127
1, 460219, Note_on_c, 11, 46, 127
1, 460333, Note_off_c, 7, 67, 127
1, 460334, Note_on_c, 10, 69, 127
1, 460448, Note_off_c, 10, 69, 127
1, 460448, Note_off_c, 11, 46, 127
1, 460449, Note_on_c, 5, 65, 127
1, 460449, Note_on_c, 7, 43, 127
1, 460563, Note_off_c, 5, 65, 127
1, 460564, Note_on_c, 7, 67, 127
1, 460678, Note_off_c, 7, 67, 127
1, 460678, Note_off_c, 7, 43, 127
1, 460679, Note_on_c, 4, 64, 127
1, 460679, Note_on_c, 0, 48, 127
1, 460793, Note_off_c, 0, 48, 127
1, 460794, Note_on_c, 2, 50, 127
1, 460908, Note_off_c, 2, 50, 127
1, 460908, Note_off_c, 4, 64, 127
1, 460909, Note_on_c, 7, 67, 127
1, 460909, Note_on_c, 11, 46, 127
1, 461023, Note_off_c, 11, 46, 127
1, 461024, Note_on_c, 0, 48, 127
1, 461138, Note_off_c, 0, 48, 127
1, 461138, Note_off_c, 7, 67, 127
1, 461139, Note_on_c, 5, 65, 127
1, 461139, Note_on_c, 10, 45, 127
1, 461253, Note_off_c, 5, 65, 127
1, 461254, Note_on_c, 7, 67, 127
1, 461368, Note_off_c, 7, 67, 127
1, 461368, Note_off_c, 10, 45, 127
1, 461369, Note_on_c, 4, 64, 127
1, 461369, Note_on_c, 0, 48, 127
1, 461483, Note_off_c, 4, 64, 127
1, 461484, Note_on_c, 5, 65, 127
1, 461598, Note_off_c, 5, 65, 127
1, 461598, Note_off_c, 0, 48, 127
1, 461599, Note_on_c, 2, 62, 127
1, 461599, Note_on_c, 11, 46, 127
1, 461713, Note_off_c, 11, 46, 127
1, 461714, Note_on_c, 0, 48, 127
1, 461828, Note_off_c, 0, 48, 127
1, 461828, Note_off_c, 2, 62, 127
1, 461829, Note_on_c, 5, 65, 127
1, 461829, Note_on_c, 10, 45, 127
1, 461943, Note_off_c, 10, 45, 127
1, 461944, Note_on_c, 11, 46, 127
1, 462058, Note_off_c, 11, 46, 127
1, 462058, Note_off_c, 5, 65, 127
1, 462059, Note_on_c, 4, 64, 127
1, 462059, Note_on_c, 8, 44, 127
1, 462173, Note_off_c, 4, 64, 127
1, 462174, Note_on_c, 5, 65, 127
1, 462288, Note_off_c, 5, 65, 127
1, 462288, Note_off_c, 8, 44, 127
1, 462289, Note_on_c, 2, 62, 127
1, 462289, Note_on_c, 12, 47, 127
1, 462403, Note_off_c, 2, 62, 127
1, 462404, Note_on_c, 4, 64, 127
1, 462518, Note_off_c, 4, 64, 127
1, 462518, Note_off_c, 12, 47, 127
1, 462519, Note_on_c, 0, 60, 127
1, 462519, Note_on_c, 10, 45, 127
1, 462633, Note_off_c, 0, 60, 127
1, 462634, Note_on_c, 2, 62, 127
1, 462748, Note_off_c, 2, 62, 127
1, 462748, Note_off_c, 10, 45, 127
1, 462749, Note_on_c, 12, 59, 127
1, 462749, Note_on_c, 7, 43, 127
1, 462863, Note_off_c, 12, 59, 127
1, 462864, Note_on_c, 0, 60, 127
1, 462978, Note_off_c, 0, 60, 127
1, 462978, Note_off_c, 7, 43, 127
1, 462979, Note_on_c, 2, 62, 127
1, 462979, Note_on_c, 5, 41, 127
1, 463093, Note_off_c, 2, 62, 127
1, 463094, Note_on_c, 0, 60, 127
1, 463208, Note_off_c, 0, 60, 127
1, 463208, Note_off_c, 5, 41, 127
1, 463209, Note_on_c, 12, 59, 127
1, 463209, Note_on_c, 2, 38, 127
1, 463323, Note_off_c, 12, 59, 127
1, 463324, Note_on_c, 10, 57, 127
1, 463438, Note_off_c, 10, 57, 127
1, 463438, Note_off_c, 2, 38, 127
1, 463439, Note_on_c, 8, 56, 127
1, 463439, Note_on_c, 4, 40, 127
1, 463669, Note_on_c, 4, 52, 127
1, 463783, Note_off_c, 4, 52, 127
1, 463784, Note_on_c, 2, 50, 127
1, 463898, Note_off_c, 2, 50, 127
1, 463898, Note_off_c, 4, 40, 127
1, 463898, Note_off_c, 8, 56, 127
1, 463899, Note_on_c, 10, 57, 127
1, 463899, Note_on_c, 0, 48, 127
1, 463899, Note_on_c, 5, 41, 127
1, 464128, Note_off_c, 0, 48, 127
1, 464129, Note_on_c, 10, 45, 127
1, 464355, Note_off_c, 10, 57, 127
1, 464359, Note_off_c, 10, 45, 127
1, 464360, Note_on_c, 10, 57, 127
1, 464589, Note_off_c, 5, 41, 127
1, 464590, Note_on_c, 10, 69, 127
1, 464590, Note_on_c, 4, 64, 127
1, 464590, Note_on_c, 0, 48, 127
1, 464819, Note_off_c, 0, 48, 127
1, 464819, Note_off_c, 4, 64, 127
1, 464819, Note_off_c, 10, 69, 127
1, 464820, Note_on_c, 12, 71, 127
1, 464820, Note_on_c, 5, 65, 127
1, 464820, Note_on_c, 2, 50, 127
1, 465049, Note_off_c, 12, 71, 127
1, 465050, Note_on_c, 4, 64, 127
1, 465279, Note_off_c, 4, 64, 127
1, 465279, Note_off_c, 2, 50, 127
1, 465279, Note_off_c, 5, 65, 127
1, 465279, Note_off_c, 10, 57, 127
1, 465280, Note_on_c, 4, 76, 127
1, 465280, Note_on_c, 4, 64, 127
1, 465280, Note_on_c, 8, 56, 127
1, 465280, Note_on_c, 4, 52, 127
1, 465509, Note_off_c, 4, 76, 127
1, 465510, Note_on_c, 2, 74, 127
1, 465739, Note_off_c, 2, 74, 127
1, 465740, Note_on_c, 4, 76, 127
1, 465969, Note_off_c, 4, 76, 127
1, 465969, Note_off_c, 4, 52, 127
1, 465969, Note_off_c, 8, 56, 127
1, 465969, Note_off_c, 4, 64, 127
1, 465970, Note_on_c, 12, 71, 127
1, 465970, Note_on_c, 4, 64, 127
1, 465970, Note_on_c, 8, 56, 127
1, 465970, Note_on_c, 4, 52, 127
1, 466198, Note_off_c, 4, 64, 127
1, 466199, Note_off_c, 4, 52, 127
1, 466199, Note_off_c, 8, 56, 127
1, 466199, Note_off_c, 12, 71, 127
1, 466200, Note_on_c, 0, 72, 127
1, 466200, Note_on_c, 10, 57, 127
1, 466200, Note_on_c, 10, 45, 127
1, 466430, Note_on_c, 4, 64, 127
1, 466544, Note_off_c, 4, 64, 127
1, 466545, Note_on_c, 2, 62, 127
1, 466655, Note_off_c, 0, 72, 127
1, 466659, Note_off_c, 2, 62, 127
1, 466660, Note_on_c, 0, 60, 127
1, 466775, Note_off_c, 10, 45, 127
1, 466775, Note_off_c, 10, 57, 127
1, 466889, Note_off_c, 0, 60, 127
1, 466890, Note_on_c, 4, 76, 127
1, 466890, Note_on_c, 10, 57, 127
1, 467004, Note_off_c, 4, 76, 127
1, 467005, Note_on_c, 2, 74, 127
1, 467119, Note_off_c, 2, 74, 127
1, 467119, Note_off_c, 10, 57, 127
1, 467120, Note_on_c, 0, 72, 127
1, 467120, Note_on_c, 10, 69, 127
1, 467349, Note_off_c, 0, 72, 127
1, 467350, Note_on_c, 5, 77, 127
1, 467350, Note_on_c, 10, 57, 127
1, 467579, Note_off_c, 10, 57, 127
1, 467579, Note_off_c, 5, 77, 127
1, 467580, Note_on_c, 2, 74, 127
1, 467580, Note_on_c, 12, 59, 127
1, 467809, Note_off_c, 12, 59, 127
1, 467810, Note_on_c, 4, 52, 127
1, 468039, Note_off_c, 4, 52, 127
1, 468039, Note_off_c, 2, 74, 127
1, 468039, Note_off_c, 10, 69, 127
1, 468040, Note_on_c, 12, 71, 127
1, 468040, Note_on_c, 8, 68, 127
1, 468040, Note_on_c, 4, 64, 127
1, 468269, Note_off_c, 4, 64, 127
1, 468270, Note_on_c, 2, 62, 127
1, 468499, Note_off_c, 2, 62, 127
1, 468500, Note_on_c, 4, 64, 127
1, 468729, Note_off_c, 4, 64, 127
1, 468729, Note_off_c, 8, 68, 127
1, 468729, Note_off_c, 12, 71, 127
1, 468730, Note_on_c, 12, 71, 127
1, 468730, Note_on_c, 8, 68, 127
1, 468730, Note_on_c, 12, 59, 127
1, 468959, Note_off_c, 12, 59, 127
1, 468959, Note_off_c, 8, 68, 127
1, 468959, Note_off_c, 12, 71, 127
1, 468960, Note_on_c, 4, 76, 127
1, 468960, Note_on_c, 7, 67, 127
1, 468960, Note_on_c, 1, 61, 127
1, 469189, Note_off_c, 1, 61, 127
1, 469189, Note_off_c, 4, 76, 127
1, 469190, Note_on_c, 10, 69, 127
1, 469190, Note_on_c, 4, 64, 127
1, 469304, Note_off_c, 4, 64, 127
1, 469305, Note_on_c, 2, 62, 127
1, 469419, Note_off_c, 2, 62, 127
1, 469419, Note_off_c, 10, 69, 127
1, 469420, Note_on_c, 10, 69, 127
1, 469420, Note_on_c, 1, 61, 127
1, 469649, Note_off_c, 1, 61, 127
1, 469649, Note_off_c, 7, 67, 127
1, 469650, Note_on_c, 7, 67, 127
1, 469650, Note_on_c, 10, 57, 127
1, 469879, Note_off_c, 10, 57, 127
1, 469879, Note_off_c, 7, 67, 127
1, 469880, Note_on_c, 6, 66, 127
1, 469880, Note_on_c, 2, 62, 127
1, 469994, Note_off_c, 2, 62, 127
1, 469995, Note_on_c, 4, 64, 127
1, 470109, Note_off_c, 4, 64, 127
1, 470109, Note_off_c, 10, 69, 127
1, 470110, Note_on_c, 10, 69, 127
1, 470110, Note_on_c, 0, 60, 127
1, 470224, Note_off_c, 0, 60, 127
1, 470225, Note_on_c, 2, 62, 127
1, 470339, Note_off_c, 2, 62, 127
1, 470339, Note_off_c, 10, 69, 127
1, 470339, Note_off_c, 6, 66, 127
1, 470340, Note_on_c, 2, 74, 127
1, 470340, Note_on_c, 5, 65, 127
1, 470340, Note_on_c, 12, 59, 127
1, 470569, Note_off_c, 12, 59, 127
1, 470569, Note_off_c, 2, 74, 127
1, 470570, Note_on_c, 7, 67, 127
1, 470570, Note_on_c, 2, 62, 127
1, 470684, Note_off_c, 2, 62, 127
1, 470685, Note_on_c, 0, 60, 127
1, 470799, Note_off_c, 0, 60, 127
1, 470799, Note_off_c, 7, 67, 127
1, 470800, Note_on_c, 7, 67, 127
1, 470800, Note_on_c, 12, 59, 127
1, 471029, Note_off_c, 12, 59, 127
1, 471029, Note_off_c, 5, 65, 127
1, 471030, Note_on_c, 5, 65, 127
1, 471030, Note_on_c, 7, 55, 127
1, 471259, Note_off_c, 7, 55, 127
1, 471259, Note_off_c, 5, 65, 127
1, 471260, Note_on_c, 4, 64, 127
1, 471260, Note_on_c, 0, 60, 127
1, 471374, Note_off_c, 0, 60, 127
1, 471375, Note_on_c, 2, 62, 127
1, 471489, Note_off_c, 2, 62, 127
1, 471489, Note_off_c, 7, 67, 127
1, 471490, Note_on_c, 7, 67, 127
1, 471490, Note_on_c, 11, 58, 127
1, 471604, Note_off_c, 11, 58, 127
1, 471605, Note_on_c, 0, 60, 127
1, 471719, Note_off_c, 0, 60, 127
1, 471719, Note_off_c, 7, 67, 127
1, 471719, Note_off_c, 4, 64, 127
1, 471720, Note_on_c, 0, 72, 127
1, 471720, Note_on_c, 3, 63, 127
1, 471720, Note_on_c, 10, 57, 127
1, 471949, Note_off_c, 10, 57, 127
1, 471949, Note_off_c, 0, 72, 127
1, 471950, Note_on_c, 5, 65, 127
1, 471950, Note_on_c, 0, 60, 127
1, 472064, Note_off_c, 0, 60, 127
1, 472065, Note_on_c, 11, 58, 127
1, 472179, Note_off_c, 11, 58, 127
1, 472179, Note_off_c, 5, 65, 127
1, 472180, Note_on_c, 5, 65, 127
1, 472180, Note_on_c, 10, 57, 127
1, 472409, Note_off_c, 10, 57, 127
1, 472409, Note_off_c, 3, 63, 127
1, 472410, Note_on_c, 3, 63, 127
1, 472410, Note_on_c, 5, 53, 127
1, 472639, Note_off_c, 5, 53, 127
1, 472639, Note_off_c, 3, 63, 127
1, 472640, Note_on_c, 2, 62, 127
1, 472640, Note_on_c, 11, 58, 127
1, 472754, Note_off_c, 11, 58, 127
1, 472755, Note_on_c, 0, 60, 127
1, 472869, Note_off_c, 0, 60, 127
1, 472869, Note_off_c, 5, 65, 127
1, 472870, Note_on_c, 5, 65, 127
1, 472870, Note_on_c, 10, 57, 127
1, 472984, Note_off_c, 10, 57, 127
1, 472985, Note_on_c, 11, 58, 127
1, 473099, Note_off_c, 11, 58, 127
1, 473099, Note_off_c, 5, 65, 127
1, 473099, Note_off_c, 2, 62, 127
1, 473100, Note_on_c, 11, 70, 127
1, 473100, Note_on_c, 2, 62, 127
1, 473100, Note_on_c, 7, 55, 127
1, 473329, Note_off_c, 7, 55, 127
1, 473329, Note_off_c, 11, 70, 127
1, 473330, Note_on_c, 4, 64, 127
1, 473330, Note_on_c, 11, 58, 127
1, 473444, Note_off_c, 11, 58, 127
1, 473445, Note_on_c, 10, 57, 127
1, 473559, Note_off_c, 10, 57, 127
1, 473559, Note_off_c, 4, 64, 127
1, 473560, Note_on_c, 4, 64, 127
1, 473560, Note_on_c, 7, 55, 127
1, 473789, Note_off_c, 7, 55, 127
1, 473789, Note_off_c, 2, 62, 127
1, 473790, Note_on_c, 2, 62, 127
1, 473790, Note_on_c, 4, 52, 127
1, 474019, Note_off_c, 4, 52, 127
1, 474019, Note_off_c, 2, 62, 127
1, 474020, Note_on_c, 1, 61, 127
1, 474020, Note_on_c, 10, 57, 127
1, 474134, Note_off_c, 10, 57, 127
1, 474135, Note_on_c, 11, 58, 127
1, 474249, Note_off_c, 11, 58, 127
1, 474249, Note_off_c, 4, 64, 127
1, 474250, Note_on_c, 4, 64, 127
1, 474250, Note_on_c, 7, 55, 127
1, 474364, Note_off_c, 7, 55, 127
1, 474365, Note_on_c, 10, 57, 127
1, 474479, Note_off_c, 10, 57, 127
1, 474479, Note_off_c, 4, 64, 127
1, 474479, Note_off_c, 1, 61, 127
1, 474480, Note_on_c, 10, 69, 127
1, 474480, Note_on_c, 0, 60, 127
1, 474480, Note_on_c, 6, 54, 127
1, 474709, Note_off_c, 6, 54, 127
1, 474709, Note_off_c, 10, 69, 127
1, 474710, Note_on_c, 2, 62, 127
1, 474710, Note_on_c, 10, 57, 127
1, 474824, Note_off_c, 10, 57, 127
1, 474825, Note_on_c, 7, 55, 127
1, 474939, Note_off_c, 7, 55, 127
1, 474939, Note_off_c, 2, 62, 127
1, 474940, Note_on_c, 2, 62, 127
1, 474940, Note_on_c, 6, 54, 127
1, 475169, Note_off_c, 6, 54, 127
1, 475169, Note_off_c, 0, 60, 127
1, 475170, Note_on_c, 0, 60, 127
1, 475170, Note_on_c, 2, 50, 127
1, 475399, Note_off_c, 2, 50, 127
1, 475399, Note_off_c, 0, 60, 127
1, 475400, Note_on_c, 12, 59, 127
1, 475400, Note_on_c, 7, 55, 127
1, 475514, Note_off_c, 7, 55, 127
1, 475515, Note_on_c, 10, 57, 127
1, 475629, Note_off_c, 10, 57, 127
1, 475629, Note_off_c, 2, 62, 127
1, 475630, Note_on_c, 2, 62, 127
1, 475630, Note_on_c, 5, 53, 127
1, 475744, Note_off_c, 5, 53, 127
1, 475745, Note_on_c, 7, 55, 127
1, 475855, Note_off_c, 12, 59, 127
1, 475859, Note_off_c, 7, 55, 127
1, 475859, Note_off_c, 2, 62, 127
1, 475860, Note_on_c, 7, 67, 127
1, 475860, Note_on_c, 4, 52, 127
1, 475974, Note_off_c, 4, 52, 127
1, 475975, Note_on_c, 5, 53, 127
1, 476089, Note_off_c, 5, 53, 127
1, 476090, Note_on_c, 11, 58, 127
1, 476090, Note_on_c, 2, 50, 127
1, 476204, Note_off_c, 2, 50, 127
1, 476205, Note_on_c, 4, 52, 127
1, 476319, Note_off_c, 4, 52, 127
1, 476319, Note_off_c, 11, 58, 127
1, 476320, Note_on_c, 10, 57, 127
1, 476320, Note_on_c, 1, 49, 127
1, 476434, Note_off_c, 1, 49, 127
1, 476435, Note_on_c, 2, 50, 127
1, 476549, Note_off_c, 2, 50, 127
1, 476549, Note_off_c, 7, 67, 127
1, 476550, Note_on_c, 7, 67, 127
1, 476550, Note_on_c, 12, 47, 127
1, 476664, Note_off_c, 12, 47, 127
1, 476665, Note_on_c, 1, 49, 127
1, 476779, Note_off_c, 1, 49, 127
1, 476779, Note_off_c, 7, 67, 127
1, 476780, Note_on_c, 5, 65, 127
1, 476780, Note_on_c, 2, 50, 127
1, 476894, Note_off_c, 2, 50, 127
1, 476895, Note_on_c, 4, 52, 127
1, 477009, Note_off_c, 4, 52, 127
1, 477009, Note_off_c, 10, 57, 127
1, 477010, Note_on_c, 2, 62, 127
1, 477010, Note_on_c, 5, 53, 127
1, 477124, Note_off_c, 5, 53, 127
1, 477125, Note_on_c, 2, 50, 127
1, 477239, Note_off_c, 2, 50, 127
1, 477239, Note_off_c, 5, 65, 127
1, 477240, Note_on_c, 4, 64, 127
1, 477240, Note_on_c, 7, 55, 127
1, 477469, Note_off_c, 7, 55, 127
1, 477469, Note_off_c, 4, 64, 127
1, 477470, Note_on_c, 7, 67, 127
1, 477470, Note_on_c, 4, 52, 127
1, 477584, Note_off_c, 7, 67, 127
1, 477585, Note_on_c, 5, 65, 127
1, 477699, Note_off_c, 5, 65, 127
1, 477699, Note_off_c, 4, 52, 127
1, 477699, Note_off_c, 2, 62, 127
1, 477700, Note_on_c, 4, 64, 127
1, 477700, Note_on_c, 10, 57, 127
1, 477929, Note_off_c, 10, 57, 127
1, 477929, Note_off_c, 4, 64, 127
1, 477930, Note_on_c, 11, 70, 127
1, 477930, Note_on_c, 2, 62, 127
1, 477930, Note_on_c, 7, 55, 127
1, 478159, Note_off_c, 7, 55, 127
1, 478159, Note_off_c, 2, 62, 127
1, 478159, Note_off_c, 11, 70, 127
1, 478160, Note_on_c, 4, 64, 127
1, 478160, Note_on_c, 1, 61, 127
1, 478160, Note_on_c, 10, 57, 127
1, 478274, Note_off_c, 4, 64, 127
1, 478275, Note_on_c, 6, 66, 127
1, 478389, Note_off_c, 6, 66, 127
1, 478389, Note_off_c, 10, 57, 127
1, 478390, Note_on_c, 7, 67, 127
1, 478390, Note_on_c, 10, 45, 127
1, 478504, Note_off_c, 7, 67, 127
1, 478505, Note_on_c, 4, 64, 127
1, 478619, Note_off_c, 4, 64, 127
1, 478619, Note_off_c, 10, 45, 127
1, 478619, Note_off_c, 1, 61, 127
1, 478620, Note_on_c, 6, 66, 127
1, 478620, Note_on_c, 0, 60, 127
1, 478620, Note_on_c, 2, 50, 127
1, 478849, Note_off_c, 2, 50, 127
1, 478849, Note_off_c, 0, 60, 127
1, 478850, Note_on_c, 10, 57, 127
1, 478850, Note_on_c, 2, 50, 127
1, 478964, Note_off_c, 2, 50, 127
1, 478965, Note_on_c, 0, 48, 127
1, 479079, Note_off_c, 0, 48, 127
1, 479079, Note_off_c, 10, 57, 127
1, 479079, Note_off_c, 6, 66, 127
1, 479080, Note_on_c, 7, 67, 127
1, 479080, Note_on_c, 2, 62, 127
1, 479080, Note_on_c, 11, 58, 127
1, 479080, Note_on_c, 11, 46, 127
1, 479309, Note_off_c, 11, 46, 127
1, 479310, Note_on_c, 7, 43, 127
1, 479536, Note_off_c, 7, 67, 127
1, 479540, Note_off_c, 7, 43, 127
1, 479540, Note_off_c, 11, 58, 127
1, 479540, Note_off_c, 2, 62, 127
1, 479541, Note_on_c, 11, 58, 127
1, 479541, Note_on_c, 3, 63, 127
1, 479541, Note_on_c, 7, 55, 127
1, 479770, Note_off_c, 3, 63, 127
1, 479770, Note_off_c, 11, 58, 127
1, 479771, Note_on_c, 7, 67, 127
1, 479771, Note_on_c, 2, 62, 127
1, 480000, Note_off_c, 2, 62, 127
1, 480000, Note_off_c, 7, 67, 127
1, 480001, Note_on_c, 10, 69, 127
1, 480001, Note_on_c, 0, 60, 127
1, 480230, Note_off_c, 10, 69, 127
1, 480231, Note_on_c, 2, 62, 127
1, 480460, Note_off_c, 2, 62, 127
1, 480460, Note_off_c, 0, 60, 127
1, 480460, Note_off_c, 7, 55, 127
1, 480461, Note_on_c, 2, 74, 127
1, 480461, Note_on_c, 2, 62, 127
1, 480461, Note_on_c, 10, 57, 127
1, 480461, Note_on_c, 6, 54, 127
1, 480690, Note_off_c, 2, 74, 127
1, 480691, Note_on_c, 0, 72, 127
1, 480920, Note_off_c, 0, 72, 127
1, 480921, Note_on_c, 2, 74, 127
1, 481150, Note_off_c, 2, 74, 127
1, 481150, Note_off_c, 6, 54, 127
1, 481150, Note_off_c, 10, 57, 127
1, 481150, Note_off_c, 2, 62, 127
1, 481151, Note_on_c, 10, 69, 127
1, 481151, Note_on_c, 2, 62, 127
1, 481151, Note_on_c, 10, 57, 127
1, 481151, Note_on_c, 6, 54, 127
1, 481380, Note_off_c, 6, 54, 127
1, 481380, Note_off_c, 10, 57, 127
1, 481380, Note_off_c, 2, 62, 127
1, 481380, Note_off_c, 10, 69, 127
1, 481381, Note_on_c, 11, 70, 127
1, 481381, Note_on_c, 2, 62, 127
1, 481381, Note_on_c, 7, 55, 127
1, 481610, Note_off_c, 11, 70, 127
1, 481611, Note_on_c, 2, 74, 127
1, 481725, Note_off_c, 2, 74, 127
1, 481726, Note_on_c, 0, 72, 127
1, 481836, Note_off_c, 7, 55, 127
1, 481836, Note_off_c, 2, 62, 127
1, 481840, Note_off_c, 0, 72, 127
1, 481841, Note_on_c, 11, 70, 127
1, 482070, Note_off_c, 11, 70, 127
1, 482071, Note_on_c, 7, 67, 127
1, 482300, Note_off_c, 7, 67, 127
1, 482301, Note_on_c, 7, 79, 127
1, 482531, Note_on_c, 7, 67, 127
1, 482760, Note_off_c, 7, 67, 127
1, 482761, Note_on_c, 10, 69, 127
1, 482990, Note_off_c, 10, 69, 127
1, 482991, Note_on_c, 2, 62, 127
1, 483220, Note_off_c, 2, 62, 127
1, 483220, Note_off_c, 7, 79, 127
1, 483221, Note_on_c, 6, 78, 127
1, 483221, Note_on_c, 2, 74, 127
1, 483450, Note_off_c, 2, 74, 127
1, 483451, Note_on_c, 0, 72, 127
1, 483680, Note_off_c, 0, 72, 127
1, 483681, Note_on_c, 2, 74, 127
1, 483910, Note_off_c, 2, 74, 127
1, 483910, Note_off_c, 6, 78, 127
1, 483911, Note_on_c, 6, 78, 127
1, 483911, Note_on_c, 10, 69, 127
1, 484140, Note_off_c, 10, 69, 127
1, 484140, Note_off_c, 6, 78, 127
1, 484141, Note_on_c, 7, 79, 127
1, 484141, Note_on_c, 11, 70, 127
1, 484371, Note_on_c, 2, 62, 127
1, 484485, Note_off_c, 2, 62, 127
1, 484486, Note_on_c, 0, 60, 127
1, 484596, Note_off_c, 11, 70, 127
1, 484600, Note_off_c, 0, 60, 127
1, 484601, Note_on_c, 11, 58, 127
1, 484830, Note_off_c, 11, 58, 127
1, 484830, Note_off_c, 7, 79, 127
1, 484831, Note_on_c, 2, 74, 127
1, 484831, Note_on_c, 7, 55, 127
1, 485059, Note_off_c, 7, 55, 127
1, 485060, Note_off_c, 2, 74, 127
1, 485061, Note_on_c, 3, 75, 127
1, 485061, Note_on_c, 11, 70, 127
1, 485061, Note_on_c, 7, 67, 127
1, 485290, Note_off_c, 3, 75, 127
1, 485291, Note_on_c, 2, 74, 127
1, 485291, Note_on_c, 7, 55, 127
1, 485520, Note_off_c, 7, 55, 127
1, 485520, Note_off_c, 2, 74, 127
1, 485520, Note_off_c, 7, 67, 127
1, 485520, Note_off_c, 11, 70, 127
1, 485521, Note_on_c, 0, 72, 127
1, 485521, Note_on_c, 7, 67, 127
1, 485521, Note_on_c, 10, 69, 127
1, 485521, Note_on_c, 10, 57, 127
1, 485750, Note_off_c, 10, 57, 127
1, 485751, Note_on_c, 2, 50, 127
1, 485980, Note_off_c, 2, 50, 127
1, 485980, Note_off_c, 10, 69, 127
1, 485980, Note_off_c, 7, 67, 127
1, 485980, Note_off_c, 0, 72, 127
1, 485981, Note_on_c, 0, 72, 127
1, 485981, Note_on_c, 10, 69, 127
1, 485981, Note_on_c, 6, 66, 127
1, 485981, Note_on_c, 2, 62, 127
1, 486210, Note_off_c, 2, 62, 127
1, 486211, Note_on_c, 0, 60, 127
1, 486440, Note_off_c, 0, 60, 127
1, 486441, Note_on_c, 2, 62, 127
1, 486670, Note_off_c, 2, 62, 127
1, 486670, Note_off_c, 6, 66, 127
1, 486670, Note_off_c, 10, 69, 127
1, 486670, Note_off_c, 0, 72, 127
1, 486671, Note_on_c, 0, 72, 127
1, 486671, Note_on_c, 10, 69, 127
1, 486671, Note_on_c, 6, 66, 127
1, 486671, Note_on_c, 10, 57, 127
1, 486900, Note_off_c, 10, 57, 127
1, 486901, Note_on_c, 11, 58, 127
1, 486935, Note_off_c, 6, 66, 127
1, 486935, Note_off_c, 10, 69, 127
1, 486935, Note_off_c, 0, 72, 127
1, 487132, Note_on_c, 2, 62, 127
1, 487362, Note_on_c, 7, 67, 127
1, 487362, Note_on_c, 11, 70, 127
1, 487591, Note_off_c, 11, 58, 127
1, 487592, Note_on_c, 11, 58, 127
1, 487706, Note_off_c, 11, 58, 127
1, 487707, Note_on_c, 10, 57, 127
1, 487817, Note_off_c, 11, 70, 127
1, 487817, Note_off_c, 7, 67, 127
1, 487821, Note_off_c, 10, 57, 127
1, 487821, Note_off_c, 2, 62, 127
1, 487822, Note_on_c, 7, 55, 127
1, 488051, Note_off_c, 7, 55, 127
1, 488052, Note_on_c, 11, 58, 127
1, 488281, Note_off_c, 11, 58, 127
1, 488282, Note_on_c, 3, 51, 127
1, 488512, Note_on_c, 0, 60, 127
1, 488741, Note_off_c, 3, 51, 127
1, 488742, Note_on_c, 10, 69, 127
1, 488742, Note_on_c, 5, 65, 127
1, 488742, Note_on_c, 5, 53, 127
1, 488971, Note_off_c, 5, 53, 127
1, 488972, Note_on_c, 10, 57, 127
1, 489086, Note_off_c, 10, 57, 127
1, 489087, Note_on_c, 7, 55, 127
1, 489197, Note_off_c, 5, 65, 127
1, 489197, Note_off_c, 10, 69, 127
1, 489201, Note_off_c, 7, 55, 127
1, 489201, Note_off_c, 0, 60, 127
1, 489202, Note_on_c, 5, 53, 127
1, 489431, Note_off_c, 5, 53, 127
1, 489432, Note_on_c, 10, 57, 127
1, 489661, Note_off_c, 10, 57, 127
1, 489662, Note_on_c, 2, 50, 127
1, 489892, Note_on_c, 11, 58, 127
1, 490121, Note_off_c, 2, 50, 127
1, 490122, Note_on_c, 7, 67, 127
1, 490122, Note_on_c, 3, 63, 127
1, 490122, Note_on_c, 3, 51, 127
1, 490351, Note_off_c, 3, 51, 127
1, 490352, Note_on_c, 7, 55, 127
1, 490466, Note_off_c, 7, 55, 127
1, 490467, Note_on_c, 5, 53, 127
1, 490577, Note_off_c, 3, 63, 127
1, 490577, Note_off_c, 7, 67, 127
1, 490581, Note_off_c, 5, 53, 127
1, 490581, Note_off_c, 11, 58, 127
1, 490582, Note_on_c, 3, 51, 127
1, 490811, Note_off_c, 3, 51, 127
1, 490812, Note_on_c, 7, 55, 127
1, 491041, Note_off_c, 7, 55, 127
1, 491042, Note_on_c, 0, 48, 127
1, 491271, Note_off_c, 0, 48, 127
1, 491272, Note_on_c, 3, 51, 127
1, 491386, Note_off_c, 3, 51, 127
1, 491387, Note_on_c, 2, 50, 127
1, 491501, Note_off_c, 2, 50, 127
1, 491502, Note_on_c, 3, 63, 127
1, 491502, Note_on_c, 7, 67, 127
1, 491502, Note_on_c, 10, 57, 127
1, 491502, Note_on_c, 0, 48, 127
1, 491731, Note_off_c, 0, 48, 127
1, 491732, Note_on_c, 3, 51, 127
1, 491961, Note_off_c, 3, 51, 127
1, 491962, Note_on_c, 10, 45, 127
1, 492077, Note_off_c, 10, 57, 127
1, 492077, Note_off_c, 7, 67, 127
1, 492077, Note_off_c, 3, 63, 127
1, 492191, Note_off_c, 10, 45, 127
1, 492192, Note_on_c, 6, 66, 127
1, 492192, Note_on_c, 2, 62, 127
1, 492192, Note_on_c, 0, 60, 127
1, 492192, Note_on_c, 2, 50, 127
1, 492421, Note_off_c, 2, 50, 127
1, 492421, Note_off_c, 0, 60, 127
1, 492421, Note_off_c, 2, 62, 127
1, 492421, Note_off_c, 6, 66, 127
1, 492422, Note_on_c, 7, 67, 127
1, 492422, Note_on_c, 2, 62, 127
1, 492422, Note_on_c, 11, 58, 127
1, 492422, Note_on_c, 7, 43, 127
1, 492650, Note_off_c, 11, 58, 127
1, 492651, Note_off_c, 7, 43, 127
1, 492652, Note_on_c, 11, 58, 127
1, 492766, Note_off_c, 11, 58, 127
1, 492767, Note_on_c, 10, 57, 127
1, 492881, Note_off_c, 10, 57, 127
1, 492881, Note_off_c, 2, 62, 127
1, 492881, Note_off_c, 7, 67, 127
1, 492882, Note_on_c, 7, 67, 127
1, 492882, Note_on_c, 11, 58, 127
1, 492882, Note_on_c, 2, 62, 127
1, 492882, Note_on_c, 7, 55, 127
1, 493110, Note_off_c, 11, 58, 127
1, 493111, Note_off_c, 7, 55, 127
1, 493112, Note_on_c, 11, 58, 127
1, 493338, Note_off_c, 7, 67, 127
1, 493343, Note_on_c, 4, 52, 127
1, 493569, Note_off_c, 11, 58, 127
1, 493573, Note_off_c, 4, 52, 127
1, 493573, Note_off_c, 2, 62, 127
1, 493574, Note_on_c, 4, 64, 127
1, 493574, Note_on_c, 7, 67, 127
1, 493574, Note_on_c, 7, 55, 127
1, 493574, Note_on_c, 0, 60, 127
1, 493803, Note_off_c, 0, 60, 127
1, 493803, Note_off_c, 7, 55, 127
1, 493803, Note_off_c, 7, 67, 127
1, 493803, Note_off_c, 4, 64, 127
1, 493804, Note_on_c, 4, 64, 127
1, 493804, Note_on_c, 7, 67, 127
1, 493804, Note_on_c, 10, 57, 127
1, 493804, Note_on_c, 1, 49, 127
1, 494033, Note_off_c, 1, 49, 127
1, 494034, Note_on_c, 4, 52, 127
1, 494148, Note_off_c, 4, 52, 127
1, 494149, Note_on_c, 2, 50, 127
1, 494263, Note_off_c, 2, 50, 127
1, 494263, Note_off_c, 10, 57, 127
1, 494263, Note_off_c, 7, 67, 127
1, 494263, Note_off_c, 4, 64, 127
1, 494264, Note_on_c, 4, 64, 127
1, 494264, Note_on_c, 7, 67, 127
1, 494264, Note_on_c, 10, 57, 127
1, 494264, Note_on_c, 1, 49, 127
1, 494493, Note_off_c, 1, 49, 127
1, 494494, Note_on_c, 4, 52, 127
1, 494723, Note_off_c, 4, 52, 127
1, 494724, Note_on_c, 10, 45, 127
1, 494839, Note_off_c, 10, 57, 127
1, 494839, Note_off_c, 7, 67, 127
1, 494839, Note_off_c, 4, 64, 127
1, 494953, Note_off_c, 10, 45, 127
1, 494954, Note_on_c, 4, 64, 127
1, 494954, Note_on_c, 7, 67, 127
1, 494954, Note_on_c, 10, 57, 127
1, 494954, Note_on_c, 1, 49, 127
1, 495183, Note_off_c, 1, 49, 127
1, 495183, Note_off_c, 10, 57, 127
1, 495183, Note_off_c, 7, 67, 127
1, 495183, Note_off_c, 4, 64, 127
1, 495184, Note_on_c, 7, 67, 127
1, 495184, Note_on_c, 1, 61, 127
1, 495184, Note_on_c, 10, 57, 127
1, 495184, Note_on_c, 5, 41, 127
1, 495413, Note_off_c, 5, 41, 127
1, 495414, Note_on_c, 4, 52, 127
1, 495528, Note_off_c, 4, 52, 127
1, 495529, Note_on_c, 2, 50, 127
1, 495643, Note_off_c, 2, 50, 127
1, 495643, Note_off_c, 10, 57, 127
1, 495643, Note_off_c, 1, 61, 127
1, 495643, Note_off_c, 7, 67, 127
1, 495644, Note_on_c, 4, 64, 127
1, 495644, Note_on_c, 7, 67, 127
1, 495644, Note_on_c, 10, 57, 127
1, 495644, Note_on_c, 1, 49, 127
1, 495873, Note_off_c, 1, 49, 127
1, 495874, Note_on_c, 10, 45, 127
1, 496103, Note_off_c, 10, 45, 127
1, 496104, Note_on_c, 2, 50, 127
1, 496219, Note_off_c, 10, 57, 127
1, 496219, Note_off_c, 7, 67, 127
1, 496219, Note_off_c, 4, 64, 127
1, 496333, Note_off_c, 2, 50, 127
1, 496334, Note_on_c, 2, 62, 127
1, 496334, Note_on_c, 5, 65, 127
1, 496334, Note_on_c, 10, 57, 127
1, 496334, Note_on_c, 5, 41, 127
1, 496563, Note_off_c, 5, 41, 127
1, 496563, Note_off_c, 10, 57, 127
1, 496563, Note_off_c, 5, 65, 127
1, 496563, Note_off_c, 2, 62, 127
1, 496564, Note_on_c, 4, 64, 127
1, 496564, Note_on_c, 2, 62, 127
1, 496564, Note_on_c, 11, 58, 127
1, 496564, Note_on_c, 7, 43, 127
1, 496793, Note_off_c, 7, 43, 127
1, 496794, Note_on_c, 11, 46, 127
1, 496908, Note_off_c, 11, 46, 127
1, 496909, Note_on_c, 10, 45, 127
1, 497023, Note_off_c, 10, 45, 127
1, 497023, Note_off_c, 11, 58, 127
1, 497023, Note_off_c, 2, 62, 127
1, 497023, Note_off_c, 4, 64, 127
1, 497024, Note_on_c, 4, 64, 127
1, 497024, Note_on_c, 2, 62, 127
1, 497024, Note_on_c, 11, 58, 127
1, 497024, Note_on_c, 7, 43, 127
1, 497253, Note_off_c, 7, 43, 127
1, 497254, Note_on_c, 11, 46, 127
1, 497483, Note_off_c, 11, 46, 127
1, 497484, Note_on_c, 4, 40, 127
1, 497599, Note_off_c, 11, 58, 127
1, 497599, Note_off_c, 2, 62, 127
1, 497599, Note_off_c, 4, 64, 127
1, 497713, Note_off_c, 4, 40, 127
1, 497714, Note_on_c, 1, 61, 127
1, 497714, Note_on_c, 4, 64, 127
1, 497714, Note_on_c, 10, 57, 127
1, 497714, Note_on_c, 10, 45, 127
1, 497943, Note_off_c, 10, 45, 127
1, 497943, Note_off_c, 10, 57, 127
1, 497943, Note_off_c, 4, 64, 127
1, 497943, Note_off_c, 1, 61, 127
1, 497944, Note_on_c, 5, 65, 127
1, 497944, Note_on_c, 2, 62, 127
1, 497944, Note_on_c, 10, 57, 127
1, 497944, Note_on_c, 2, 38, 127
1, 498172, Note_off_c, 10, 57, 127
1, 498173, Note_off_c, 2, 38, 127
1, 498174, Note_on_c, 10, 57, 127
1, 498288, Note_off_c, 10, 57, 127
1, 498289, Note_on_c, 7, 55, 127
1, 498399, Note_off_c, 2, 62, 127
1, 498399, Note_off_c, 5, 65, 127
1, 498403, Note_off_c, 7, 55, 127
1, 498404, Note_on_c, 5, 53, 127
1, 498633, Note_off_c, 5, 53, 127
1, 498634, Note_on_c, 2, 50, 127
1, 498863, Note_off_c, 2, 50, 127
1, 498864, Note_on_c, 2, 62, 127
1, 499094, Note_on_c, 2, 74, 127
1, 499323, Note_off_c, 2, 74, 127
1, 499324, Note_on_c, 4, 76, 127
1, 499553, Note_off_c, 4, 76, 127
1, 499554, Note_on_c, 10, 69, 127
1, 499783, Note_off_c, 10, 69, 127
1, 499783, Note_off_c, 2, 62, 127
1, 499784, Note_on_c, 10, 81, 127
1, 499784, Note_on_c, 1, 61, 127
1, 500013, Note_off_c, 10, 81, 127
1, 500014, Note_on_c, 7, 79, 127
1, 500243, Note_off_c, 7, 79, 127
1, 500244, Note_on_c, 10, 81, 127
1, 500473, Note_off_c, 10, 81, 127
1, 500473, Note_off_c, 1, 61, 127
1, 500474, Note_on_c, 4, 76, 127
1, 500474, Note_on_c, 1, 61, 127
1, 500703, Note_off_c, 1, 61, 127
1, 500703, Note_off_c, 4, 76, 127
1, 500704, Note_on_c, 5, 77, 127
1, 500704, Note_on_c, 2, 62, 127
1, 500933, Note_off_c, 5, 77, 127
1, 500934, Note_on_c, 10, 69, 127
1, 501048, Note_off_c, 10, 69, 127
1, 501049, Note_on_c, 7, 67, 127
1, 501163, Note_off_c, 7, 67, 127
1, 501164, Note_on_c, 5, 65, 127
1, 501279, Note_off_c, 2, 62, 127
1, 501393, Note_off_c, 5, 65, 127
1, 501394, Note_on_c, 2, 62, 127
1, 501623, Note_off_c, 2, 62, 127
1, 501624, Note_on_c, 2, 74, 127
1, 501854, Note_on_c, 2, 50, 127
1, 502083, Note_off_c, 2, 50, 127
1, 502084, Note_on_c, 4, 52, 127
1, 502313, Note_off_c, 4, 52, 127
1, 502314, Note_on_c, 10, 45, 127
1, 502543, Note_off_c, 10, 45, 127
1, 502543, Note_off_c, 2, 74, 127
1, 502544, Note_on_c, 1, 73, 127
1, 502544, Note_on_c, 10, 57, 127
1, 502773, Note_off_c, 10, 57, 127
1, 502774, Note_on_c, 7, 55, 127
1, 503003, Note_off_c, 7, 55, 127
1, 503004, Note_on_c, 10, 57, 127
1, 503233, Note_off_c, 10, 57, 127
1, 503233, Note_off_c, 1, 73, 127
1, 503234, Note_on_c, 1, 73, 127
1, 503234, Note_on_c, 4, 52, 127
1, 503463, Note_off_c, 4, 52, 127
1, 503463, Note_off_c, 1, 73, 127
1, 503464, Note_on_c, 2, 74, 127
1, 503464, Note_on_c, 5, 53, 127
1, 503693, Note_off_c, 5, 53, 127
1, 503694, Note_on_c, 10, 45, 127
1, 503808, Note_off_c, 10, 45, 127
1, 503809, Note_on_c, 7, 43, 127
1, 503919, Note_off_c, 2, 74, 127
1, 503923, Note_off_c, 7, 43, 127
1, 503924, Note_on_c, 5, 41, 127
1, 504153, Note_off_c, 5, 41, 127
1, 504154, Note_on_c, 2, 38, 127
1, 504383, Note_off_c, 2, 38, 127
1, 504384, Note_on_c, 2, 50, 127
1, 504614, Note_on_c, 2, 62, 127
1, 504843, Note_off_c, 2, 62, 127
1, 504844, Note_on_c, 4, 64, 127
1, 505073, Note_off_c, 4, 64, 127
1, 505074, Note_on_c, 10, 57, 127
1, 505303, Note_off_c, 10, 57, 127
1, 505303, Note_off_c, 2, 50, 127
1, 505304, Note_on_c, 10, 69, 127
1, 505304, Note_on_c, 1, 49, 127
1, 505533, Note_off_c, 10, 69, 127
1, 505534, Note_on_c, 7, 67, 127
1, 505763, Note_off_c, 7, 67, 127
1, 505764, Note_on_c, 10, 69, 127
1, 505993, Note_off_c, 10, 69, 127
1, 505993, Note_off_c, 1, 49, 127
1, 505994, Note_on_c, 4, 64, 127
1, 505994, Note_on_c, 1, 49, 127
1, 506223, Note_off_c, 1, 49, 127
1, 506223, Note_off_c, 4, 64, 127
1, 506224, Note_on_c, 5, 65, 127
1, 506224, Note_on_c, 2, 50, 127
1, 506453, Note_off_c, 5, 65, 127
1, 506454, Note_on_c, 10, 69, 127
1, 506568, Note_off_c, 10, 69, 127
1, 506569, Note_on_c, 7, 67, 127
1, 506683, Note_off_c, 7, 67, 127
1, 506684, Note_on_c, 5, 65, 127
1, 506799, Note_off_c, 2, 50, 127
1, 506913, Note_off_c, 5, 65, 127
1, 506914, Note_on_c, 2, 62, 127
1, 506914, Note_on_c, 2, 50, 127
1, 507028, Note_off_c, 2, 50, 127
1, 507029, Note_on_c, 0, 48, 127
1, 507143, Note_off_c, 0, 48, 127
1, 507143, Note_off_c, 2, 62, 127
1, 507144, Note_on_c, 7, 67, 127
1, 507144, Note_on_c, 11, 46, 127
1, 507373, Note_off_c, 11, 46, 127
1, 507374, Note_on_c, 7, 43, 127
1, 507600, Note_off_c, 7, 67, 127
1, 507604, Note_off_c, 7, 43, 127
1, 507605, Note_on_c, 0, 48, 127
1, 507835, Note_on_c, 7, 79, 127
1, 507949, Note_off_c, 7, 79, 127
1, 507950, Note_on_c, 5, 77, 127
1, 508064, Note_off_c, 5, 77, 127
1, 508065, Note_on_c, 4, 76, 127
1, 508180, Note_off_c, 0, 48, 127
1, 508294, Note_off_c, 4, 76, 127
1, 508295, Note_on_c, 0, 72, 127
1, 508295, Note_on_c, 0, 60, 127
1, 508409, Note_off_c, 0, 60, 127
1, 508410, Note_on_c, 11, 58, 127
1, 508524, Note_off_c, 11, 58, 127
1, 508524, Note_off_c, 0, 72, 127
1, 508525, Note_on_c, 5, 77, 127
1, 508525, Note_on_c, 10, 57, 127
1, 508754, Note_off_c, 10, 57, 127
1, 508755, Note_on_c, 5, 53, 127
1, 508981, Note_off_c, 5, 77, 127
1, 508985, Note_off_c, 5, 53, 127
1, 508986, Note_on_c, 11, 58, 127
1, 509216, Note_on_c, 2, 74, 127
1, 509445, Note_off_c, 2, 74, 127
1, 509446, Note_on_c, 7, 79, 127
1, 509675, Note_off_c, 7, 79, 127
1, 509675, Note_off_c, 11, 58, 127
1, 509676, Note_on_c, 5, 77, 127
1, 509676, Note_on_c, 10, 57, 127
1, 509905, Note_off_c, 10, 57, 127
1, 509905, Note_off_c, 5, 77, 127
1, 509906, Note_on_c, 4, 76, 127
1, 509906, Note_on_c, 7, 55, 127
1, 510135, Note_off_c, 7, 55, 127
1, 510135, Note_off_c, 4, 76, 127
1, 510136, Note_on_c, 2, 74, 127
1, 510136, Note_on_c, 11, 58, 127
1, 510365, Note_off_c, 11, 58, 127
1, 510365, Note_off_c, 2, 74, 127
1, 510366, Note_on_c, 1, 73, 127
1, 510366, Note_on_c, 10, 57, 127
1, 510595, Note_off_c, 10, 57, 127
1, 510595, Note_off_c, 1, 73, 127
1, 510596, Note_on_c, 11, 82, 127
1, 510596, Note_on_c, 7, 55, 127
1, 510825, Note_off_c, 7, 55, 127
1, 510825, Note_off_c, 11, 82, 127
1, 510826, Note_on_c, 10, 81, 127
1, 510826, Note_on_c, 5, 53, 127
1, 511055, Note_off_c, 5, 53, 127
1, 511055, Note_off_c, 10, 81, 127
1, 511056, Note_on_c, 7, 79, 127
1, 511056, Note_on_c, 4, 52, 127
1, 511285, Note_off_c, 4, 52, 127
1, 511285, Note_off_c, 7, 79, 127
1, 511286, Note_on_c, 5, 77, 127
1, 511286, Note_on_c, 2, 50, 127
1, 511515, Note_off_c, 2, 50, 127
1, 511515, Note_off_c, 5, 77, 127
1, 511516, Note_on_c, 4, 76, 127
1, 511516, Note_on_c, 0, 48, 127
1, 511745, Note_off_c, 0, 48, 127
1, 511745, Note_off_c, 4, 76, 127
1, 511746, Note_on_c, 2, 74, 127
1, 511746, Note_on_c, 11, 46, 127
1, 511975, Note_off_c, 11, 46, 127
1, 511975, Note_off_c, 2, 74, 127
1, 511976, Note_on_c, 4, 76, 127
1, 511976, Note_on_c, 10, 45, 127
1, 512090, Note_off_c, 10, 45, 127
1, 512091, Note_on_c, 7, 43, 127
1, 512205, Note_off_c, 7, 43, 127
1, 512205, Note_off_c, 4, 76, 127
1, 512206, Note_on_c, 10, 69, 127
1, 512206, Note_on_c, 10, 45, 127
1, 512435, Note_off_c, 10, 45, 127
1, 512435, Note_off_c, 10, 69, 127
1, 512436, Note_on_c, 5, 77, 127
1, 512436, Note_on_c, 7, 43, 127
1, 512550, Note_off_c, 7, 43, 127
1, 512551, Note_on_c, 5, 41, 127
1, 512665, Note_off_c, 5, 41, 127
1, 512665, Note_off_c, 5, 77, 127
1, 512666, Note_on_c, 5, 77, 127
1, 512666, Note_on_c, 7, 43, 127
1, 512742, Note_off_c, 5, 77, 127
1, 512743, Note_on_c, 4, 76, 127
1, 512819, Note_off_c, 4, 76, 127
1, 512820, Note_on_c, 5, 77, 127
1, 512896, Note_off_c, 5, 77, 127
1, 512896, Note_off_c, 7, 43, 127
1, 512897, Note_on_c, 4, 76, 127
1, 512897, Note_on_c, 10, 45, 127
1, 513011, Note_off_c, 4, 76, 127
1, 513012, Note_on_c, 2, 74, 127
1, 513126, Note_off_c, 2, 74, 127
1, 513126, Note_off_c, 10, 45, 127
1, 513127, Note_on_c, 2, 74, 127
1, 513127, Note_on_c, 2, 38, 127
1, 513356, Note_off_c, 2, 74, 127
1, 513357, Note_on_c, 10, 81, 127
1, 513471, Note_off_c, 10, 81, 127
1, 513472, Note_on_c, 7, 79, 127
1, 513586, Note_off_c, 7, 79, 127
1, 513587, Note_on_c, 5, 77, 127
1, 513702, Note_off_c, 2, 38, 127
1, 513816, Note_off_c, 5, 77, 127
1, 513817, Note_on_c, 2, 74, 127
1, 513817, Note_on_c, 10, 69, 127
1, 513817, Note_on_c, 5, 65, 127
1, 513817, Note_on_c, 2, 62, 127
1, 514046, Note_off_c, 2, 62, 127
1, 514046, Note_off_c, 5, 65, 127
1, 514046, Note_off_c, 10, 69, 127
1, 514046, Note_off_c, 2, 74, 127
1, 514047, Note_on_c, 7, 79, 127
1, 514047, Note_on_c, 2, 62, 127
1, 514047, Note_on_c, 7, 67, 127
1, 514047, Note_on_c, 11, 58, 127
1, 514161, Note_off_c, 7, 79, 127
1, 514162, Note_on_c, 10, 81, 127
1, 514276, Note_off_c, 10, 81, 127
1, 514276, Note_off_c, 11, 58, 127
1, 514277, Note_on_c, 5, 77, 127
1, 514277, Note_on_c, 7, 55, 127
1, 514391, Note_off_c, 5, 77, 127
1, 514392, Note_on_c, 7, 79, 127
1, 514506, Note_off_c, 7, 79, 127
1, 514506, Note_off_c, 7, 55, 127
1, 514506, Note_off_c, 7, 67, 127
1, 514506, Note_off_c, 2, 62, 127
1, 514507, Note_on_c, 4, 76, 127
1, 514507, Note_on_c, 7, 67, 127
1, 514507, Note_on_c, 0, 60, 127
1, 514736, Note_off_c, 4, 76, 127
1, 514737, Note_on_c, 7, 79, 127
1, 514851, Note_off_c, 7, 79, 127
1, 514852, Note_on_c, 5, 77, 127
1, 514966, Note_off_c, 5, 77, 127
1, 514967, Note_on_c, 4, 76, 127
1, 515082, Note_off_c, 0, 60, 127
1, 515082, Note_off_c, 7, 67, 127
1, 515196, Note_off_c, 4, 76, 127
1, 515197, Note_on_c, 0, 72, 127
1, 515197, Note_on_c, 4, 64, 127
1, 515197, Note_on_c, 7, 67, 127
1, 515197, Note_on_c, 0, 60, 127
1, 515426, Note_off_c, 0, 60, 127
1, 515426, Note_off_c, 7, 67, 127
1, 515426, Note_off_c, 4, 64, 127
1, 515426, Note_off_c, 0, 72, 127
1, 515427, Note_on_c, 5, 77, 127
1, 515427, Note_on_c, 0, 60, 127
1, 515427, Note_on_c, 5, 65, 127
1, 515427, Note_on_c, 10, 57, 127
1, 515541, Note_off_c, 5, 77, 127
1, 515542, Note_on_c, 7, 79, 127
1, 515656, Note_off_c, 7, 79, 127
1, 515656, Note_off_c, 10, 57, 127
1, 515657, Note_on_c, 4, 76, 127
1, 515657, Note_on_c, 5, 53, 127
1, 515771, Note_off_c, 4, 76, 127
1, 515772, Note_on_c, 5, 77, 127
1, 515886, Note_off_c, 5, 77, 127
1, 515886, Note_off_c, 5, 53, 127
1, 515886, Note_off_c, 5, 65, 127
1, 515886, Note_off_c, 0, 60, 127
1, 515887, Note_on_c, 2, 74, 127
1, 515887, Note_on_c, 5, 65, 127
1, 515887, Note_on_c, 11, 58, 127
1, 516116, Note_off_c, 2, 74, 127
1, 516117, Note_on_c, 5, 77, 127
1, 516231, Note_off_c, 5, 77, 127
1, 516232, Note_on_c, 3, 75, 127
1, 516346, Note_off_c, 3, 75, 127
1, 516347, Note_on_c, 2, 74, 127
1, 516462, Note_off_c, 11, 58, 127
1, 516462, Note_off_c, 5, 65, 127
1, 516576, Note_off_c, 2, 74, 127
1, 516577, Note_on_c, 11, 70, 127
1, 516577, Note_on_c, 11, 58, 127
1, 516691, Note_off_c, 11, 58, 127
1, 516692, Note_on_c, 10, 57, 127
1, 516806, Note_off_c, 10, 57, 127
1, 516806, Note_off_c, 11, 70, 127
1, 516807, Note_on_c, 3, 75, 127
1, 516807, Note_on_c, 7, 55, 127
1, 517036, Note_off_c, 7, 55, 127
1, 517037, Note_on_c, 0, 60, 127
1, 517266, Note_off_c, 0, 60, 127
1, 517267, Note_on_c, 6, 54, 127
1, 517496, Note_off_c, 3, 75, 127
1, 517497, Note_on_c, 2, 74, 127
1, 517611, Note_off_c, 2, 74, 127
1, 517612, Note_on_c, 0, 72, 127
1, 517726, Note_off_c, 0, 72, 127
1, 517726, Note_off_c, 6, 54, 127
1, 517727, Note_on_c, 11, 70, 127
1, 517727, Note_on_c, 7, 55, 127
1, 517956, Note_off_c, 7, 55, 127
1, 517956, Note_off_c, 11, 70, 127
1, 517957, Note_on_c, 11, 82, 127
1, 517957, Note_on_c, 7, 67, 127
1, 518186, Note_off_c, 7, 67, 127
1, 518186, Note_off_c, 11, 82, 127
1, 518187, Note_on_c, 10, 81, 127
1, 518187, Note_on_c, 0, 60, 127
1, 518301, Note_off_c, 10, 81, 127
1, 518302, Note_on_c, 11, 82, 127
1, 518416, Note_off_c, 11, 82, 127
1, 518416, Note_off_c, 0, 60, 127
1, 518417, Note_on_c, 7, 79, 127
1, 518417, Note_on_c, 3, 63, 127
1, 518531, Note_off_c, 7, 79, 127
1, 518532, Note_on_c, 10, 81, 127
1, 518646, Note_off_c, 10, 81, 127
1, 518646, Note_off_c, 3, 63, 127
1, 518647, Note_on_c, 6, 78, 127
1, 518647, Note_on_c, 2, 62, 127
1, 518876, Note_off_c, 6, 78, 127
1, 518877, Note_on_c, 10, 81, 127
1, 518991, Note_off_c, 10, 81, 127
1, 518992, Note_on_c, 7, 79, 127
1, 519106, Note_off_c, 7, 79, 127
1, 519107, Note_on_c, 6, 78, 127
1, 519222, Note_off_c, 2, 62, 127
1, 519336, Note_off_c, 6, 78, 127
1, 519337, Note_on_c, 2, 74, 127
1, 519337, Note_on_c, 6, 66, 127
1, 519337, Note_on_c, 2, 62, 127
1, 519566, Note_off_c, 2, 62, 127
1, 519566, Note_off_c, 6, 66, 127
1, 519566, Note_off_c, 2, 74, 127
1, 519567, Note_on_c, 7, 79, 127
1, 519567, Note_on_c, 7, 67, 127
1, 519567, Note_on_c, 12, 59, 127
1, 519796, Note_off_c, 12, 59, 127
1, 519797, Note_on_c, 7, 55, 127
1, 520026, Note_off_c, 7, 55, 127
1, 520026, Note_off_c, 7, 67, 127
1, 520026, Note_off_c, 7, 79, 127
1, 520027, Note_on_c, 3, 75, 127
1, 520027, Note_on_c, 7, 67, 127
1, 520027, Note_on_c, 0, 60, 127
1, 520257, Note_on_c, 7, 79, 127
1, 520371, Note_off_c, 7, 79, 127
1, 520372, Note_on_c, 6, 78, 127
1, 520486, Note_off_c, 6, 78, 127
1, 520487, Note_on_c, 7, 79, 127
1, 520602, Note_off_c, 0, 60, 127
1, 520602, Note_off_c, 7, 67, 127
1, 520650, Note_off_c, 3, 75, 127
1, 520717, Note_on_c, 3, 75, 127
1, 520717, Note_on_c, 7, 67, 127
1, 520717, Note_on_c, 0, 60, 127
1, 520943, Note_off_c, 7, 79, 127
1, 520947, Note_off_c, 0, 60, 127
1, 520947, Note_off_c, 7, 67, 127
1, 520947, Note_off_c, 3, 75, 127
1, 520948, Note_on_c, 2, 74, 127
1, 520948, Note_on_c, 7, 67, 127
1, 520948, Note_on_c, 12, 59, 127
1, 521177, Note_off_c, 12, 59, 127
1, 521177, Note_off_c, 7, 67, 127
1, 521177, Note_off_c, 2, 74, 127
1, 521178, Note_on_c, 12, 71, 127
1, 521178, Note_on_c, 7, 67, 127
1, 521178, Note_on_c, 7, 55, 127
1, 521407, Note_off_c, 7, 55, 127
1, 521407, Note_off_c, 7, 67, 127
1, 521407, Note_off_c, 12, 71, 127
1, 521408, Note_on_c, 3, 75, 127
1, 521408, Note_on_c, 7, 67, 127
1, 521408, Note_on_c, 0, 60, 127
1, 521638, Note_on_c, 7, 79, 127
1, 521752, Note_off_c, 7, 79, 127
1, 521753, Note_on_c, 6, 78, 127
1, 521867, Note_off_c, 6, 78, 127
1, 521868, Note_on_c, 7, 79, 127
1, 522031, Note_off_c, 0, 60, 127
1, 522031, Note_off_c, 7, 67, 127
1, 522079, Note_off_c, 3, 75, 127
1, 522098, Note_on_c, 3, 75, 127
1, 522098, Note_on_c, 7, 67, 127
1, 522098, Note_on_c, 0, 60, 127
1, 522324, Note_off_c, 7, 79, 127
1, 522328, Note_off_c, 0, 60, 127
1, 522328, Note_off_c, 7, 67, 127
1, 522328, Note_off_c, 3, 75, 127
1, 522329, Note_on_c, 7, 67, 127
1, 522329, Note_on_c, 2, 74, 127
1, 522329, Note_on_c, 12, 59, 127
1, 522558, Note_off_c, 12, 59, 127
1, 522558, Note_off_c, 2, 74, 127
1, 522558, Note_off_c, 7, 67, 127
1, 522559, Note_on_c, 7, 67, 127
1, 522559, Note_on_c, 12, 71, 127
1, 522559, Note_on_c, 7, 55, 127
1, 522788, Note_off_c, 7, 55, 127
1, 522788, Note_off_c, 12, 71, 127
1, 522788, Note_off_c, 7, 67, 127
1, 522789, Note_on_c, 7, 67, 127
1, 522789, Note_on_c, 3, 75, 127
1, 522789, Note_on_c, 0, 60, 127
1, 523019, Note_on_c, 7, 79, 127
1, 523133, Note_off_c, 7, 79, 127
1, 523134, Note_on_c, 5, 77, 127
1, 523244, Note_off_c, 3, 75, 127
1, 523248, Note_off_c, 5, 77, 127
1, 523249, Note_on_c, 3, 75, 127
1, 523364, Note_off_c, 0, 60, 127
1, 523364, Note_off_c, 7, 67, 127
1, 523478, Note_off_c, 3, 75, 127
1, 523479, Note_on_c, 7, 79, 127
1, 523479, Note_on_c, 0, 60, 127
1, 523593, Note_off_c, 0, 60, 127
1, 523594, Note_on_c, 11, 58, 127
1, 523708, Note_off_c, 11, 58, 127
1, 523708, Note_off_c, 7, 79, 127
1, 523709, Note_on_c, 0, 72, 127
1, 523709, Note_on_c, 10, 57, 127
1, 523938, Note_off_c, 10, 57, 127
1, 523938, Note_off_c, 0, 72, 127
1, 523939, Note_on_c, 3, 75, 127
1, 523939, Note_on_c, 0, 60, 127
1, 524168, Note_off_c, 0, 60, 127
1, 524169, Note_on_c, 10, 69, 127
1, 524169, Note_on_c, 6, 54, 127
1, 524275, Note_off_c, 3, 75, 127
1, 524399, Note_off_c, 10, 69, 127
1, 524400, Note_on_c, 0, 84, 127
1, 524514, Note_off_c, 0, 84, 127
1, 524515, Note_on_c, 11, 82, 127
1, 524629, Note_off_c, 11, 82, 127
1, 524630, Note_on_c, 10, 81, 127
1, 524745, Note_off_c, 6, 54, 127
1, 524859, Note_off_c, 10, 81, 127
1, 524860, Note_on_c, 0, 84, 127
1, 524860, Note_on_c, 6, 54, 127
1, 524974, Note_off_c, 6, 54, 127
1, 524975, Note_on_c, 4, 52, 127
1, 525089, Note_off_c, 4, 52, 127
1, 525089, Note_off_c, 0, 84, 127
1, 525090, Note_on_c, 6, 78, 127
1, 525090, Note_on_c, 2, 50, 127
1, 525319, Note_off_c, 2, 50, 127
1, 525319, Note_off_c, 6, 78, 127
1, 525320, Note_on_c, 10, 81, 127
1, 525320, Note_on_c, 6, 54, 127
1, 525549, Note_off_c, 6, 54, 127
1, 525549, Note_off_c, 10, 81, 127
1, 525550, Note_on_c, 2, 74, 127
1, 525550, Note_on_c, 11, 46, 127
1, 525779, Note_off_c, 2, 74, 127
1, 525780, Note_on_c, 7, 79, 127
1, 525886, Note_off_c, 11, 46, 127
1, 525894, Note_off_c, 7, 79, 127
1, 525895, Note_on_c, 5, 77, 127
1, 526009, Note_off_c, 5, 77, 127
1, 526010, Note_on_c, 3, 75, 127
1, 526010, Note_on_c, 0, 48, 127
1, 526239, Note_off_c, 3, 75, 127
1, 526240, Note_on_c, 7, 79, 127
1, 526346, Note_off_c, 0, 48, 127
1, 526470, Note_off_c, 7, 79, 127
1, 526471, Note_on_c, 2, 74, 127
1, 526471, Note_on_c, 11, 46, 127
1, 526700, Note_off_c, 2, 74, 127
1, 526701, Note_on_c, 7, 79, 127
1, 526807, Note_off_c, 11, 46, 127
1, 526931, Note_off_c, 7, 79, 127
1, 526932, Note_on_c, 0, 72, 127
1, 526932, Note_on_c, 3, 51, 127
1, 527046, Note_off_c, 0, 72, 127
1, 527047, Note_on_c, 7, 79, 127
1, 527161, Note_off_c, 7, 79, 127
1, 527162, Note_on_c, 6, 78, 127
1, 527268, Note_off_c, 3, 51, 127
1, 527276, Note_off_c, 6, 78, 127
1, 527277, Note_on_c, 7, 79, 127
1, 527391, Note_off_c, 7, 79, 127
1, 527392, Note_on_c, 11, 70, 127
1, 527392, Note_on_c, 2, 50, 127
1, 527506, Note_off_c, 11, 70, 127
1, 527507, Note_on_c, 7, 79, 127
1, 527621, Note_off_c, 7, 79, 127
1, 527622, Note_on_c, 6, 78, 127
1, 527728, Note_off_c, 2, 50, 127
1, 527736, Note_off_c, 6, 78, 127
1, 527737, Note_on_c, 7, 79, 127
1, 527851, Note_off_c, 7, 79, 127
1, 527852, Note_on_c, 10, 69, 127
1, 527852, Note_on_c, 0, 48, 127
1, 527966, Note_off_c, 10, 69, 127
1, 527967, Note_on_c, 7, 79, 127
1, 528081, Note_off_c, 7, 79, 127
1, 528082, Note_on_c, 6, 78, 127
1, 528188, Note_off_c, 0, 48, 127
1, 528196, Note_off_c, 6, 78, 127
1, 528197, Note_on_c, 7, 79, 127
1, 528311, Note_off_c, 7, 79, 127
1, 528312, Note_on_c, 11, 70, 127
1, 528312, Note_on_c, 2, 50, 127
1, 528541, Note_off_c, 2, 50, 127
1, 528541, Note_off_c, 11, 70, 127
1, 528542, Note_on_c, 7, 79, 127
1, 528542, Note_on_c, 3, 51, 127
1, 528656, Note_off_c, 3, 51, 127
1, 528657, Note_on_c, 2, 50, 127
1, 528771, Note_off_c, 2, 50, 127
1, 528771, Note_off_c, 7, 79, 127
1, 528772, Note_on_c, 7, 79, 127
1, 528772, Note_on_c, 0, 48, 127
1, 529001, Note_off_c, 0, 48, 127
1, 529002, Note_on_c, 3, 51, 127
1, 529231, Note_off_c, 3, 51, 127
1, 529231, Note_off_c, 7, 79, 127
1, 529232, Note_on_c, 7, 79, 127
1, 529232, Note_on_c, 10, 45, 127
1, 529308, Note_off_c, 7, 79, 127
1, 529309, Note_on_c, 6, 78, 127
1, 529385, Note_off_c, 6, 78, 127
1, 529386, Note_on_c, 7, 79, 127
1, 529462, Note_off_c, 7, 79, 127
1, 529462, Note_off_c, 10, 45, 127
1, 529463, Note_on_c, 6, 78, 127
1, 529463, Note_on_c, 2, 50, 127
1, 529577, Note_off_c, 6, 78, 127
1, 529578, Note_on_c, 7, 79, 127
1, 529692, Note_off_c, 7, 79, 127
1, 529692, Note_off_c, 2, 50, 127
1, 529693, Note_on_c, 7, 79, 127
1, 529693, Note_on_c, 7, 43, 127
1, 529921, Note_off_c, 7, 79, 127
1, 529923, Note_on_c, 2, 62, 127
1, 530037, Note_off_c, 2, 62, 127
1, 530038, Note_on_c, 0, 60, 127
1, 530152, Note_off_c, 0, 60, 127
1, 530153, Note_on_c, 11, 58, 127
1, 530268, Note_off_c, 7, 43, 127
1, 530382, Note_off_c, 11, 58, 127
1, 530383, Note_on_c, 7, 55, 127
1, 530612, Note_off_c, 7, 55, 127
1, 530613, Note_on_c, 7, 67, 127
1, 530841, Note_off_c, 7, 67, 127
1, 530843, Note_on_c, 7, 67, 127
1, 531073, Note_on_c, 10, 69, 127
1, 531302, Note_off_c, 10, 69, 127
1, 531303, Note_on_c, 2, 62, 127
1, 531532, Note_off_c, 2, 62, 127
1, 531532, Note_off_c, 7, 67, 127
1, 531533, Note_on_c, 2, 74, 127
1, 531533, Note_on_c, 6, 66, 127
1, 531762, Note_off_c, 2, 74, 127
1, 531763, Note_on_c, 0, 72, 127
1, 531992, Note_off_c, 0, 72, 127
1, 531993, Note_on_c, 2, 74, 127
1, 532222, Note_off_c, 2, 74, 127
1, 532222, Note_off_c, 6, 66, 127
1, 532223, Note_on_c, 10, 69, 127
1, 532223, Note_on_c, 6, 66, 127
1, 532452, Note_off_c, 6, 66, 127
1, 532452, Note_off_c, 10, 69, 127
1, 532453, Note_on_c, 11, 70, 127
1, 532453, Note_on_c, 7, 67, 127
1, 532683, Note_on_c, 2, 62, 127
1, 532797, Note_off_c, 2, 62, 127
1, 532798, Note_on_c, 0, 60, 127
1, 532908, Note_off_c, 7, 67, 127
1, 532908, Note_off_c, 11, 70, 127
1, 532912, Note_off_c, 0, 60, 127
1, 532913, Note_on_c, 11, 58, 127
1, 533142, Note_off_c, 11, 58, 127
1, 533143, Note_on_c, 11, 70, 127
1, 533143, Note_on_c, 7, 55, 127
1, 533372, Note_off_c, 7, 55, 127
1, 533372, Note_off_c, 11, 70, 127
1, 533373, Note_on_c, 0, 72, 127
1, 533373, Note_on_c, 7, 67, 127
1, 533373, Note_on_c, 3, 51, 127
1, 533487, Note_off_c, 0, 72, 127
1, 533488, Note_on_c, 2, 74, 127
1, 533602, Note_off_c, 2, 74, 127
1, 533602, Note_off_c, 3, 51, 127
1, 533603, Note_on_c, 11, 70, 127
1, 533603, Note_on_c, 0, 48, 127
1, 533717, Note_off_c, 11, 70, 127
1, 533718, Note_on_c, 0, 72, 127
1, 533832, Note_off_c, 0, 72, 127
1, 533832, Note_off_c, 0, 48, 127
1, 533832, Note_off_c, 7, 67, 127
1, 533833, Note_on_c, 10, 69, 127
1, 533833, Note_on_c, 7, 67, 127
1, 533833, Note_on_c, 5, 53, 127
1, 534062, Note_off_c, 5, 53, 127
1, 534063, Note_on_c, 0, 60, 127
1, 534177, Note_off_c, 0, 60, 127
1, 534178, Note_on_c, 11, 58, 127
1, 534288, Note_off_c, 7, 67, 127
1, 534288, Note_off_c, 10, 69, 127
1, 534292, Note_off_c, 11, 58, 127
1, 534293, Note_on_c, 10, 57, 127
1, 534522, Note_off_c, 10, 57, 127
1, 534523, Note_on_c, 10, 69, 127
1, 534523, Note_on_c, 5, 53, 127
1, 534752, Note_off_c, 5, 53, 127
1, 534752, Note_off_c, 10, 69, 127
1, 534753, Note_on_c, 11, 70, 127
1, 534753, Note_on_c, 5, 65, 127
1, 534753, Note_on_c, 2, 50, 127
1, 534867, Note_off_c, 11, 70, 127
1, 534868, Note_on_c, 0, 72, 127
1, 534982, Note_off_c, 0, 72, 127
1, 534982, Note_off_c, 2, 50, 127
1, 534983, Note_on_c, 10, 69, 127
1, 534983, Note_on_c, 11, 46, 127
1, 535097, Note_off_c, 10, 69, 127
1, 535098, Note_on_c, 11, 70, 127
1, 535212, Note_off_c, 11, 70, 127
1, 535212, Note_off_c, 11, 46, 127
1, 535212, Note_off_c, 5, 65, 127
1, 535213, Note_on_c, 7, 67, 127
1, 535213, Note_on_c, 5, 65, 127
1, 535213, Note_on_c, 3, 51, 127
1, 535442, Note_off_c, 3, 51, 127
1, 535443, Note_on_c, 11, 58, 127
1, 535557, Note_off_c, 11, 58, 127
1, 535558, Note_on_c, 10, 57, 127
1, 535668, Note_off_c, 5, 65, 127
1, 535668, Note_off_c, 7, 67, 127
1, 535672, Note_off_c, 10, 57, 127
1, 535673, Note_on_c, 7, 55, 127
1, 535902, Note_off_c, 7, 55, 127
1, 535903, Note_on_c, 7, 67, 127
1, 535903, Note_on_c, 3, 51, 127
1, 536132, Note_off_c, 3, 51, 127
1, 536132, Note_off_c, 7, 67, 127
1, 536133, Note_on_c, 10, 69, 127
1, 536133, Note_on_c, 3, 63, 127
1, 536133, Note_on_c, 0, 48, 127
1, 536247, Note_off_c, 10, 69, 127
1, 536248, Note_on_c, 11, 70, 127
1, 536362, Note_off_c, 11, 70, 127
1, 536362, Note_off_c, 0, 48, 127
1, 536363, Note_on_c, 7, 67, 127
1, 536363, Note_on_c, 10, 45, 127
1, 536477, Note_off_c, 7, 67, 127
1, 536478, Note_on_c, 10, 69, 127
1, 536592, Note_off_c, 10, 69, 127
1, 536592, Note_off_c, 10, 45, 127
1, 536592, Note_off_c, 3, 63, 127
1, 536593, Note_on_c, 5, 65, 127
1, 536593, Note_on_c, 3, 63, 127
1, 536593, Note_on_c, 2, 50, 127
1, 536822, Note_off_c, 2, 50, 127
1, 536823, Note_on_c, 10, 57, 127
1, 536937, Note_off_c, 10, 57, 127
1, 536938, Note_on_c, 7, 55, 127
1, 537048, Note_off_c, 3, 63, 127
1, 537048, Note_off_c, 5, 65, 127
1, 537052, Note_off_c, 7, 55, 127
1, 537053, Note_on_c, 5, 53, 127
1, 537282, Note_off_c, 5, 53, 127
1, 537283, Note_on_c, 5, 65, 127
1, 537283, Note_on_c, 2, 50, 127
1, 537512, Note_off_c, 2, 50, 127
1, 537512, Note_off_c, 5, 65, 127
1, 537513, Note_on_c, 7, 67, 127
1, 537513, Note_on_c, 2, 62, 127
1, 537513, Note_on_c, 12, 47, 127
1, 537627, Note_off_c, 7, 67, 127
1, 537628, Note_on_c, 8, 68, 127
1, 537742, Note_off_c, 8, 68, 127
1, 537742, Note_off_c, 12, 47, 127
1, 537743, Note_on_c, 5, 65, 127
1, 537743, Note_on_c, 7, 43, 127
1, 537857, Note_off_c, 5, 65, 127
1, 537858, Note_on_c, 7, 67, 127
1, 537972, Note_off_c, 7, 67, 127
1, 537972, Note_off_c, 7, 43, 127
1, 537972, Note_off_c, 2, 62, 127
1, 537973, Note_on_c, 3, 63, 127
1, 537973, Note_on_c, 2, 62, 127
1, 537973, Note_on_c, 0, 48, 127
1, 538202, Note_off_c, 0, 48, 127
1, 538203, Note_on_c, 7, 55, 127
1, 538317, Note_off_c, 7, 55, 127
1, 538318, Note_on_c, 5, 53, 127
1, 538428, Note_off_c, 2, 62, 127
1, 538428, Note_off_c, 3, 63, 127
1, 538432, Note_off_c, 5, 53, 127
1, 538433, Note_on_c, 3, 51, 127
1, 538662, Note_off_c, 3, 51, 127
1, 538663, Note_on_c, 3, 63, 127
1, 538663, Note_on_c, 0, 48, 127
1, 538892, Note_off_c, 0, 48, 127
1, 538892, Note_off_c, 3, 63, 127
1, 538893, Note_on_c, 5, 65, 127
1, 538893, Note_on_c, 0, 60, 127
1, 538893, Note_on_c, 10, 45, 127
1, 539007, Note_off_c, 5, 65, 127
1, 539008, Note_on_c, 7, 67, 127
1, 539122, Note_off_c, 7, 67, 127
1, 539122, Note_off_c, 10, 45, 127
1, 539123, Note_on_c, 3, 63, 127
1, 539123, Note_on_c, 5, 41, 127
1, 539237, Note_off_c, 3, 63, 127
1, 539238, Note_on_c, 5, 65, 127
1, 539352, Note_off_c, 5, 65, 127
1, 539352, Note_off_c, 5, 41, 127
1, 539352, Note_off_c, 0, 60, 127
1, 539353, Note_on_c, 2, 62, 127
1, 539353, Note_on_c, 11, 58, 127
1, 539353, Note_on_c, 11, 46, 127
1, 539582, Note_off_c, 2, 62, 127
1, 539583, Note_on_c, 5, 65, 127
1, 539697, Note_off_c, 5, 65, 127
1, 539698, Note_on_c, 3, 63, 127
1, 539808, Note_off_c, 11, 58, 127
1, 539812, Note_off_c, 3, 63, 127
1, 539813, Note_on_c, 2, 62, 127
1, 540042, Note_off_c, 2, 62, 127
1, 540042, Note_off_c, 11, 46, 127
1, 540043, Note_on_c, 11, 58, 127
1, 540043, Note_on_c, 0, 48, 127
1, 540272, Note_off_c, 0, 48, 127
1, 540272, Note_off_c, 11, 58, 127
1, 540273, Note_on_c, 11, 70, 127
1, 540273, Note_on_c, 2, 50, 127
1, 540503, Note_on_c, 11, 58, 127
1, 540732, Note_off_c, 11, 58, 127
1, 540732, Note_off_c, 2, 50, 127
1, 540733, Note_on_c, 0, 60, 127
1, 540733, Note_on_c, 3, 51, 127
1, 540962, Note_off_c, 0, 60, 127
1, 540963, Note_on_c, 5, 53, 127
1, 541192, Note_off_c, 5, 53, 127
1, 541192, Note_off_c, 3, 51, 127
1, 541192, Note_off_c, 11, 70, 127
1, 541193, Note_on_c, 10, 69, 127
1, 541193, Note_on_c, 5, 65, 127
1, 541193, Note_on_c, 5, 53, 127
1, 541422, Note_off_c, 5, 65, 127
1, 541423, Note_on_c, 3, 63, 127
1, 541652, Note_off_c, 3, 63, 127
1, 541653, Note_on_c, 5, 65, 127
1, 541882, Note_off_c, 5, 65, 127
1, 541882, Note_off_c, 5, 53, 127
1, 541882, Note_off_c, 10, 69, 127
1, 541883, Note_on_c, 10, 69, 127
1, 541883, Note_on_c, 0, 60, 127
1, 541883, Note_on_c, 5, 53, 127
1, 542112, Note_off_c, 5, 53, 127
1, 542112, Note_off_c, 0, 60, 127
1, 542112, Note_off_c, 10, 69, 127
1, 542113, Note_on_c, 11, 70, 127
1, 542113, Note_on_c, 2, 62, 127
1, 542113, Note_on_c, 11, 58, 127
1, 542342, Note_off_c, 11, 70, 127
1, 542343, Note_on_c, 5, 77, 127
1, 542457, Note_off_c, 5, 77, 127
1, 542458, Note_on_c, 3, 75, 127
1, 542568, Note_off_c, 11, 58, 127
1, 542568, Note_off_c, 2, 62, 127
1, 542572, Note_off_c, 3, 75, 127
1, 542573, Note_on_c, 2, 74, 127
1, 542802, Note_off_c, 2, 74, 127
1, 542803, Note_on_c, 11, 70, 127
1, 543032, Note_off_c, 11, 70, 127
1, 543033, Note_on_c, 11, 82, 127
1, 543263, Note_on_c, 2, 74, 127
1, 543263, Note_on_c, 11, 58, 127
1, 543492, Note_off_c, 11, 58, 127
1, 543492, Note_off_c, 2, 74, 127
1, 543493, Note_on_c, 3, 75, 127
1, 543493, Note_on_c, 0, 72, 127
1, 543493, Note_on_c, 0, 60, 127
1, 543722, Note_off_c, 0, 60, 127
1, 543723, Note_on_c, 5, 53, 127
1, 543952, Note_off_c, 5, 53, 127
1, 543952, Note_off_c, 0, 72, 127
1, 543952, Note_off_c, 3, 75, 127
1, 543952, Note_off_c, 11, 82, 127
1, 543953, Note_on_c, 10, 81, 127
1, 543953, Note_on_c, 0, 72, 127
1, 543953, Note_on_c, 3, 75, 127
1, 543953, Note_on_c, 5, 65, 127
1, 544182, Note_off_c, 5, 65, 127
1, 544183, Note_on_c, 3, 63, 127
1, 544412, Note_off_c, 3, 63, 127
1, 544413, Note_on_c, 5, 65, 127
1, 544642, Note_off_c, 5, 65, 127
1, 544642, Note_off_c, 3, 75, 127
1, 544642, Note_off_c, 0, 72, 127
1, 544642, Note_off_c, 10, 81, 127
1, 544643, Note_on_c, 10, 81, 127
1, 544643, Note_on_c, 0, 72, 127
1, 544643, Note_on_c, 3, 75, 127
1, 544643, Note_on_c, 0, 60, 127
1, 544872, Note_off_c, 0, 60, 127
1, 544872, Note_off_c, 3, 75, 127
1, 544872, Note_off_c, 0, 72, 127
1, 544872, Note_off_c, 10, 81, 127
1, 544873, Note_on_c, 11, 82, 127
1, 544873, Note_on_c, 5, 77, 127
1, 544873, Note_on_c, 11, 70, 127
1, 544873, Note_on_c, 2, 62, 127
1, 545101, Note_off_c, 5, 77, 127
1, 545102, Note_off_c, 11, 82, 127
1, 545103, Note_on_c, 5, 77, 127
1, 545217, Note_off_c, 5, 77, 127
1, 545218, Note_on_c, 3, 75, 127
1, 545328, Note_off_c, 11, 70, 127
1, 545332, Note_off_c, 3, 75, 127
1, 545333, Note_on_c, 2, 74, 127
1, 545448, Note_off_c, 2, 62, 127
1, 545562, Note_off_c, 2, 74, 127
1, 545563, Note_on_c, 5, 77, 127
1, 545563, Note_on_c, 2, 62, 127
1, 545677, Note_off_c, 2, 62, 127
1, 545678, Note_on_c, 0, 60, 127
1, 545792, Note_off_c, 0, 60, 127
1, 545792, Note_off_c, 5, 77, 127
1, 545793, Note_on_c, 7, 79, 127
1, 545793, Note_on_c, 12, 59, 127
1, 546022, Note_off_c, 12, 59, 127
1, 546023, Note_on_c, 7, 55, 127
1, 546249, Note_off_c, 7, 79, 127
1, 546253, Note_off_c, 7, 55, 127
1, 546254, Note_on_c, 0, 60, 127
1, 546484, Note_on_c, 3, 75, 127
1, 546598, Note_off_c, 3, 75, 127
1, 546599, Note_on_c, 2, 74, 127
1, 546713, Note_off_c, 2, 74, 127
1, 546714, Note_on_c, 0, 72, 127
1, 546829, Note_off_c, 0, 60, 127
1, 546943, Note_off_c, 0, 72, 127
1, 546944, Note_on_c, 3, 75, 127
1, 546944, Note_on_c, 0, 60, 127
1, 547058, Note_off_c, 0, 60, 127
1, 547059, Note_on_c, 11, 58, 127
1, 547173, Note_off_c, 11, 58, 127
1, 547173, Note_off_c, 3, 75, 127
1, 547174, Note_on_c, 5, 77, 127
1, 547174, Note_on_c, 10, 57, 127
1, 547403, Note_off_c, 10, 57, 127
1, 547404, Note_on_c, 5, 53, 127
1, 547630, Note_off_c, 5, 77, 127
1, 547634, Note_off_c, 5, 53, 127
1, 547635, Note_on_c, 11, 58, 127
1, 547865, Note_on_c, 2, 74, 127
1, 548094, Note_off_c, 2, 74, 127
1, 548095, Note_on_c, 7, 79, 127
1, 548210, Note_off_c, 11, 58, 127
1, 548325, Note_on_c, 7, 55, 127
1, 548554, Note_off_c, 7, 55, 127
1, 548555, Note_on_c, 2, 62, 127
1, 548784, Note_off_c, 7, 79, 127
1, 548785, Note_on_c, 5, 77, 127
1, 548899, Note_off_c, 5, 77, 127
1, 548900, Note_on_c, 4, 76, 127
1, 549014, Note_off_c, 4, 76, 127
1, 549015, Note_on_c, 5, 77, 127
1, 549244, Note_off_c, 5, 77, 127
1, 549244, Note_off_c, 2, 62, 127
1, 549245, Note_on_c, 7, 79, 127
1, 549245, Note_on_c, 2, 50, 127
1, 549359, Note_off_c, 7, 79, 127
1, 549360, Note_on_c, 5, 77, 127
1, 549474, Note_off_c, 5, 77, 127
1, 549474, Note_off_c, 2, 50, 127
1, 549475, Note_on_c, 4, 76, 127
1, 549475, Note_on_c, 0, 48, 127
1, 549704, Note_off_c, 0, 48, 127
1, 549704, Note_off_c, 4, 76, 127
1, 549705, Note_on_c, 5, 77, 127
1, 549705, Note_on_c, 0, 60, 127
1, 549819, Note_off_c, 5, 77, 127
1, 549820, Note_on_c, 4, 76, 127
1, 549934, Note_off_c, 4, 76, 127
1, 549934, Note_off_c, 0, 60, 127
1, 549935, Note_on_c, 2, 74, 127
1, 549935, Note_on_c, 11, 58, 127
1, 550164, Note_off_c, 11, 58, 127
1, 550164, Note_off_c, 2, 74, 127
1, 550165, Note_on_c, 4, 76, 127
1, 550165, Note_on_c, 11, 46, 127
1, 550279, Note_off_c, 4, 76, 127
1, 550280, Note_on_c, 2, 74, 127
1, 550394, Note_off_c, 2, 74, 127
1, 550394, Note_off_c, 11, 46, 127
1, 550395, Note_on_c, 1, 73, 127
1, 550395, Note_on_c, 10, 45, 127
1, 550624, Note_off_c, 10, 45, 127
1, 550625, Note_on_c, 4, 64, 127
1, 550739, Note_off_c, 4, 64, 127
1, 550740, Note_on_c, 2, 62, 127
1, 550854, Note_off_c, 2, 62, 127
1, 550854, Note_off_c, 1, 73, 127
1, 550855, Note_on_c, 7, 79, 127
1, 550855, Note_on_c, 4, 76, 127
1, 550855, Note_on_c, 10, 69, 127
1, 550855, Note_on_c, 1, 61, 127
1, 551084, Note_off_c, 1, 61, 127
1, 551085, Note_on_c, 4, 64, 127
1, 551314, Note_off_c, 4, 64, 127
1, 551315, Note_on_c, 10, 57, 127
1, 551544, Note_off_c, 10, 57, 127
1, 551544, Note_off_c, 10, 69, 127
1, 551544, Note_off_c, 4, 76, 127
1, 551544, Note_off_c, 7, 79, 127
1, 551545, Note_on_c, 7, 79, 127
1, 551545, Note_on_c, 4, 76, 127
1, 551545, Note_on_c, 10, 69, 127
1, 551545, Note_on_c, 1, 61, 127
1, 551774, Note_off_c, 1, 61, 127
1, 551774, Note_off_c, 10, 69, 127
1, 551774, Note_off_c, 4, 76, 127
1, 551774, Note_off_c, 7, 79, 127
1, 551775, Note_on_c, 7, 79, 127
1, 551775, Note_on_c, 10, 69, 127
1, 551775, Note_on_c, 4, 76, 127
1, 551775, Note_on_c, 5, 53, 127
1, 552004, Note_off_c, 5, 53, 127
1, 552004, Note_off_c, 7, 79, 127
1, 552005, Note_on_c, 5, 77, 127
1, 552005, Note_on_c, 2, 62, 127
1, 552119, Note_off_c, 2, 62, 127
1, 552120, Note_on_c, 0, 60, 127
1, 552234, Note_off_c, 0, 60, 127
1, 552234, Note_off_c, 5, 77, 127
1, 552234, Note_off_c, 4, 76, 127
1, 552234, Note_off_c, 10, 69, 127
1, 552235, Note_on_c, 5, 77, 127
1, 552235, Note_on_c, 10, 69, 127
1, 552235, Note_on_c, 2, 74, 127
1, 552235, Note_on_c, 11, 58, 127
1, 552464, Note_off_c, 11, 58, 127
1, 552465, Note_on_c, 2, 62, 127
1, 552694, Note_off_c, 2, 62, 127
1, 552695, Note_on_c, 7, 55, 127
1, 552924, Note_off_c, 7, 55, 127
1, 552924, Note_off_c, 2, 74, 127
1, 552924, Note_off_c, 10, 69, 127
1, 552924, Note_off_c, 5, 77, 127
1, 552925, Note_on_c, 5, 77, 127
1, 552925, Note_on_c, 10, 69, 127
1, 552925, Note_on_c, 2, 74, 127
1, 552925, Note_on_c, 11, 58, 127
1, 553154, Note_off_c, 11, 58, 127
1, 553154, Note_off_c, 2, 74, 127
1, 553154, Note_off_c, 10, 69, 127
1, 553154, Note_off_c, 5, 77, 127
1, 553155, Note_on_c, 5, 77, 127
1, 553155, Note_on_c, 7, 67, 127
1, 553155, Note_on_c, 2, 74, 127
1, 553155, Note_on_c, 4, 52, 127
1, 553384, Note_off_c, 4, 52, 127
1, 553384, Note_off_c, 5, 77, 127
1, 553385, Note_on_c, 4, 76, 127
1, 553385, Note_on_c, 1, 61, 127
1, 553499, Note_off_c, 1, 61, 127
1, 553500, Note_on_c, 12, 59, 127
1, 553614, Note_off_c, 12, 59, 127
1, 553614, Note_off_c, 4, 76, 127
1, 553614, Note_off_c, 2, 74, 127
1, 553614, Note_off_c, 7, 67, 127
1, 553615, Note_on_c, 4, 76, 127
1, 553615, Note_on_c, 1, 73, 127
1, 553615, Note_on_c, 7, 67, 127
1, 553615, Note_on_c, 10, 57, 127
1, 553844, Note_off_c, 10, 57, 127
1, 553845, Note_on_c, 1, 61, 127
1, 554074, Note_off_c, 1, 61, 127
1, 554075, Note_on_c, 4, 52, 127
1, 554304, Note_off_c, 4, 52, 127
1, 554304, Note_off_c, 7, 67, 127
1, 554304, Note_off_c, 1, 73, 127
1, 554304, Note_off_c, 4, 76, 127
1, 554305, Note_on_c, 4, 76, 127
1, 554305, Note_on_c, 7, 67, 127
1, 554305, Note_on_c, 1, 73, 127
1, 554305, Note_on_c, 7, 55, 127
1, 554534, Note_off_c, 7, 55, 127
1, 554534, Note_off_c, 1, 73, 127
1, 554534, Note_off_c, 7, 67, 127
1, 554534, Note_off_c, 4, 76, 127
1, 554535, Note_on_c, 4, 76, 127
1, 554535, Note_on_c, 1, 73, 127
1, 554535, Note_on_c, 10, 69, 127
1, 554535, Note_on_c, 5, 53, 127
1, 554764, Note_off_c, 10, 69, 127
1, 554765, Note_on_c, 4, 64, 127
1, 554879, Note_off_c, 4, 64, 127
1, 554880, Note_on_c, 2, 62, 127
1, 554990, Note_off_c, 5, 53, 127
1, 554990, Note_off_c, 1, 73, 127
1, 554990, Note_off_c, 4, 76, 127
1, 554994, Note_off_c, 2, 62, 127
1, 554995, Note_on_c, 1, 61, 127
1, 555224, Note_off_c, 1, 61, 127
1, 555225, Note_on_c, 10, 81, 127
1, 555225, Note_on_c, 10, 57, 127
1, 555339, Note_off_c, 10, 81, 127
1, 555340, Note_on_c, 7, 79, 127
1, 555454, Note_off_c, 7, 79, 127
1, 555454, Note_off_c, 10, 57, 127
1, 555455, Note_on_c, 5, 77, 127
1, 555455, Note_on_c, 2, 62, 127
1, 555569, Note_off_c, 5, 77, 127
1, 555570, Note_on_c, 2, 74, 127
1, 555684, Note_off_c, 2, 74, 127
1, 555684, Note_off_c, 2, 62, 127
1, 555685, Note_on_c, 10, 69, 127
1, 555685, Note_on_c, 5, 53, 127
1, 555799, Note_off_c, 10, 69, 127
1, 555800, Note_on_c, 2, 74, 127
1, 555914, Note_off_c, 2, 74, 127
1, 555914, Note_off_c, 5, 53, 127
1, 555915, Note_on_c, 7, 79, 127
1, 555915, Note_on_c, 4, 52, 127
1, 556029, Note_off_c, 7, 79, 127
1, 556030, Note_on_c, 1, 73, 127
1, 556144, Note_off_c, 1, 73, 127
1, 556144, Note_off_c, 4, 52, 127
1, 556145, Note_on_c, 7, 67, 127
1, 556145, Note_on_c, 4, 64, 127
1, 556259, Note_off_c, 7, 67, 127
1, 556260, Note_on_c, 1, 73, 127
1, 556374, Note_off_c, 1, 73, 127
1, 556374, Note_off_c, 4, 64, 127
1, 556375, Note_on_c, 7, 79, 127
1, 556375, Note_on_c, 4, 52, 127
1, 556489, Note_off_c, 7, 79, 127
1, 556490, Note_on_c, 1, 73, 127
1, 556604, Note_off_c, 1, 73, 127
1, 556604, Note_off_c, 4, 52, 127
1, 556605, Note_on_c, 7, 67, 127
1, 556605, Note_on_c, 4, 64, 127
1, 556719, Note_off_c, 7, 67, 127
1, 556720, Note_on_c, 1, 73, 127
1, 556834, Note_off_c, 1, 73, 127
1, 556834, Note_off_c, 4, 64, 127
1, 556835, Note_on_c, 7, 79, 127
1, 556835, Note_on_c, 4, 52, 127
1, 556949, Note_off_c, 7, 79, 127
1, 556950, Note_on_c, 1, 73, 127
1, 557064, Note_off_c, 1, 73, 127
1, 557064, Note_off_c, 4, 52, 127
1, 557065, Note_on_c, 7, 67, 127
1, 557065, Note_on_c, 4, 64, 127
1, 557179, Note_off_c, 7, 67, 127
1, 557180, Note_on_c, 1, 73, 127
1, 557294, Note_off_c, 1, 73, 127
1, 557294, Note_off_c, 4, 64, 127
1, 557295, Note_on_c, 7, 79, 127
1, 557295, Note_on_c, 5, 53, 127
1, 557409, Note_off_c, 7, 79, 127
1, 557410, Note_on_c, 1, 73, 127
1, 557524, Note_off_c, 1, 73, 127
1, 557524, Note_off_c, 5, 53, 127
1, 557525, Note_on_c, 10, 69, 127
1, 557525, Note_on_c, 4, 64, 127
1, 557639, Note_off_c, 10, 69, 127
1, 557640, Note_on_c, 1, 73, 127
1, 557754, Note_off_c, 1, 73, 127
1, 557754, Note_off_c, 4, 64, 127
1, 557755, Note_on_c, 7, 79, 127
1, 557755, Note_on_c, 5, 53, 127
1, 557869, Note_off_c, 7, 79, 127
1, 557870, Note_on_c, 1, 73, 127
1, 557984, Note_off_c, 1, 73, 127
1, 557984, Note_off_c, 5, 53, 127
1, 557985, Note_on_c, 10, 69, 127
1, 557985, Note_on_c, 4, 64, 127
1, 558099, Note_off_c, 10, 69, 127
1, 558100, Note_on_c, 1, 73, 127
1, 558214, Note_off_c, 1, 73, 127
1, 558214, Note_off_c, 4, 64, 127
1, 558215, Note_on_c, 7, 79, 127
1, 558215, Note_on_c, 5, 53, 127
1, 558329, Note_off_c, 7, 79, 127
1, 558330, Note_on_c, 1, 73, 127
1, 558444, Note_off_c, 1, 73, 127
1, 558444, Note_off_c, 5, 53, 127
1, 558445, Note_on_c, 10, 69, 127
1, 558445, Note_on_c, 4, 64, 127
1, 558559, Note_off_c, 10, 69, 127
1, 558560, Note_on_c, 1, 73, 127
1, 558674, Note_off_c, 1, 73, 127
1, 558674, Note_off_c, 4, 64, 127
1, 558675, Note_on_c, 5, 77, 127
1, 558675, Note_on_c, 5, 53, 127
1, 558789, Note_off_c, 5, 77, 127
1, 558790, Note_on_c, 2, 74, 127
1, 558904, Note_off_c, 2, 74, 127
1, 558904, Note_off_c, 5, 53, 127
1, 558905, Note_on_c, 10, 69, 127
1, 558905, Note_on_c, 2, 62, 127
1, 559019, Note_off_c, 10, 69, 127
1, 559020, Note_on_c, 2, 74, 127
1, 559134, Note_off_c, 2, 74, 127
1, 559134, Note_off_c, 2, 62, 127
1, 559135, Note_on_c, 5, 77, 127
1, 559135, Note_on_c, 5, 53, 127
1, 559249, Note_off_c, 5, 77, 127
1, 559250, Note_on_c, 2, 74, 127
1, 559364, Note_off_c, 2, 74, 127
1, 559364, Note_off_c, 5, 53, 127
1, 559365, Note_on_c, 10, 69, 127
1, 559365, Note_on_c, 2, 62, 127
1, 559479, Note_off_c, 10, 69, 127
1, 559480, Note_on_c, 2, 74, 127
1, 559594, Note_off_c, 2, 74, 127
1, 559594, Note_off_c, 2, 62, 127
1, 559595, Note_on_c, 5, 77, 127
1, 559595, Note_on_c, 5, 53, 127
1, 559709, Note_off_c, 5, 77, 127
1, 559710, Note_on_c, 2, 74, 127
1, 559824, Note_off_c, 2, 74, 127
1, 559824, Note_off_c, 5, 53, 127
1, 559825, Note_on_c, 10, 69, 127
1, 559825, Note_on_c, 2, 62, 127
1, 559939, Note_off_c, 10, 69, 127
1, 559940, Note_on_c, 2, 74, 127
1, 560054, Note_off_c, 2, 74, 127
1, 560054, Note_off_c, 2, 62, 127
1, 560055, Note_on_c, 5, 77, 127
1, 560055, Note_on_c, 7, 55, 127
1, 560169, Note_off_c, 5, 77, 127
1, 560170, Note_on_c, 11, 70, 127
1, 560284, Note_off_c, 11, 70, 127
1, 560284, Note_off_c, 7, 55, 127
1, 560285, Note_on_c, 10, 69, 127
1, 560285, Note_on_c, 2, 62, 127
1, 560399, Note_off_c, 10, 69, 127
1, 560400, Note_on_c, 11, 70, 127
1, 560514, Note_off_c, 11, 70, 127
1, 560514, Note_off_c, 2, 62, 127
1, 560515, Note_on_c, 5, 77, 127
1, 560515, Note_on_c, 7, 55, 127
1, 560629, Note_off_c, 5, 77, 127
1, 560630, Note_on_c, 11, 70, 127
1, 560744, Note_off_c, 11, 70, 127
1, 560744, Note_off_c, 7, 55, 127
1, 560745, Note_on_c, 10, 69, 127
1, 560745, Note_on_c, 2, 62, 127
1, 560859, Note_off_c, 10, 69, 127
1, 560860, Note_on_c, 11, 70, 127
1, 560974, Note_off_c, 11, 70, 127
1, 560974, Note_off_c, 2, 62, 127
1, 560975, Note_on_c, 5, 77, 127
1, 560975, Note_on_c, 7, 55, 127
1, 561089, Note_off_c, 5, 77, 127
1, 561090, Note_on_c, 11, 70, 127
1, 561204, Note_off_c, 11, 70, 127
1, 561204, Note_off_c, 7, 55, 127
1, 561205, Note_on_c, 10, 69, 127
1, 561205, Note_on_c, 2, 62, 127
1, 561319, Note_off_c, 10, 69, 127
1, 561320, Note_on_c, 11, 70, 127
1, 561434, Note_off_c, 11, 70, 127
1, 561434, Note_off_c, 2, 62, 127
1, 561435, Note_on_c, 4, 76, 127
1, 561435, Note_on_c, 8, 56, 127
1, 561549, Note_off_c, 4, 76, 127
1, 561550, Note_on_c, 12, 71, 127
1, 561664, Note_off_c, 12, 71, 127
1, 561664, Note_off_c, 8, 56, 127
1, 561665, Note_on_c, 4, 64, 127
1, 561665, Note_on_c, 2, 62, 127
1, 561779, Note_off_c, 4, 64, 127
1, 561780, Note_on_c, 12, 71, 127
1, 561894, Note_off_c, 12, 71, 127
1, 561894, Note_off_c, 2, 62, 127
1, 561895, Note_on_c, 4, 76, 127
1, 561895, Note_on_c, 8, 56, 127
1, 562009, Note_off_c, 4, 76, 127
1, 562010, Note_on_c, 12, 71, 127
1, 562124, Note_off_c, 12, 71, 127
1, 562124, Note_off_c, 8, 56, 127
1, 562125, Note_on_c, 4, 64, 127
1, 562125, Note_on_c, 2, 62, 127
1, 562239, Note_off_c, 4, 64, 127
1, 562240, Note_on_c, 12, 71, 127
1, 562354, Note_off_c, 12, 71, 127
1, 562354, Note_off_c, 2, 62, 127
1, 562355, Note_on_c, 4, 76, 127
1, 562355, Note_on_c, 8, 56, 127
1, 562469, Note_off_c, 4, 76, 127
1, 562470, Note_on_c, 12, 71, 127
1, 562584, Note_off_c, 12, 71, 127
1, 562584, Note_off_c, 8, 56, 127
1, 562585, Note_on_c, 4, 64, 127
1, 562585, Note_on_c, 2, 62, 127
1, 562699, Note_off_c, 4, 64, 127
1, 562700, Note_on_c, 12, 71, 127
1, 562814, Note_off_c, 12, 71, 127
1, 562814, Note_off_c, 2, 62, 127
1, 562815, Note_on_c, 4, 64, 127
1, 562815, Note_on_c, 4, 76, 127
1, 562815, Note_on_c, 10, 69, 127
1, 562815, Note_on_c, 1, 61, 127
1, 562815, Note_on_c, 10, 57, 127
1, 563043, Note_off_c, 4, 64, 127
1, 563044, Note_off_c, 1, 61, 127
1, 563045, Note_on_c, 4, 64, 127
1, 563159, Note_off_c, 4, 64, 127
1, 563160, Note_on_c, 2, 62, 127
1, 563274, Note_off_c, 2, 62, 127
1, 563275, Note_on_c, 1, 61, 127
1, 563504, Note_off_c, 1, 61, 127
1, 563504, Note_off_c, 10, 57, 127
1, 563504, Note_off_c, 10, 69, 127
1, 563504, Note_off_c, 4, 76, 127
1, 563505, Note_on_c, 10, 57, 127
1, 563734, Note_off_c, 10, 57, 127
1, 563735, Note_on_c, 2, 62, 127
1, 563965, Note_on_c, 5, 77, 127
1, 563965, Note_on_c, 10, 69, 127
1, 563965, Note_on_c, 5, 53, 127
1, 564194, Note_off_c, 5, 53, 127
1, 564194, Note_off_c, 10, 69, 127
1, 564194, Note_off_c, 5, 77, 127
1, 564195, Note_on_c, 4, 76, 127
1, 564195, Note_on_c, 11, 70, 127
1, 564195, Note_on_c, 7, 55, 127
1, 564424, Note_off_c, 7, 55, 127
1, 564424, Note_off_c, 11, 70, 127
1, 564424, Note_off_c, 4, 76, 127
1, 564425, Note_on_c, 7, 79, 127
1, 564425, Note_on_c, 7, 67, 127
1, 564425, Note_on_c, 4, 52, 127
1, 564539, Note_off_c, 7, 79, 127
1, 564540, Note_on_c, 5, 77, 127
1, 564654, Note_off_c, 5, 77, 127
1, 564654, Note_off_c, 4, 52, 127
1, 564654, Note_off_c, 7, 67, 127
1, 564654, Note_off_c, 2, 62, 127
1, 564655, Note_on_c, 4, 76, 127
1, 564655, Note_on_c, 10, 69, 127
1, 564655, Note_on_c, 2, 62, 127
1, 564655, Note_on_c, 10, 57, 127
1, 564884, Note_off_c, 10, 57, 127
1, 564884, Note_off_c, 4, 76, 127
1, 564885, Note_on_c, 7, 79, 127
1, 564885, Note_on_c, 7, 55, 127
1, 564999, Note_off_c, 7, 79, 127
1, 565000, Note_on_c, 5, 77, 127
1, 565110, Note_off_c, 2, 62, 127
1, 565110, Note_off_c, 10, 69, 127
1, 565114, Note_off_c, 5, 77, 127
1, 565114, Note_off_c, 7, 55, 127
1, 565115, Note_on_c, 4, 76, 127
1, 565115, Note_on_c, 10, 57, 127
1, 565344, Note_off_c, 10, 57, 127
1, 565345, Note_on_c, 7, 67, 127
1, 565345, Note_on_c, 1, 61, 127
1, 565459, Note_off_c, 4, 76, 127
1, 565460, Note_on_c, 2, 74, 127
1, 565574, Note_off_c, 2, 74, 127
1, 565574, Note_off_c, 1, 61, 127
1, 565574, Note_off_c, 7, 67, 127
1, 565575, Note_on_c, 2, 74, 127
1, 565575, Note_on_c, 5, 65, 127
1, 565575, Note_on_c, 2, 50, 127
1, 565805, Note_on_c, 10, 57, 127
1, 565919, Note_off_c, 10, 57, 127
1, 565920, Note_on_c, 7, 55, 127
1, 566030, Note_off_c, 5, 65, 127
1, 566030, Note_off_c, 2, 74, 127
1, 566034, Note_off_c, 7, 55, 127
1, 566035, Note_on_c, 5, 53, 127
1, 566150, Note_off_c, 2, 50, 127
1, 566264, Note_off_c, 5, 53, 127
1, 566265, Note_on_c, 2, 50, 127
1, 566494, Note_off_c, 2, 50, 127
1, 566495, Note_on_c, 2, 62, 127
1, 566725, Note_on_c, 2, 74, 127
1, 566954, Note_off_c, 2, 74, 127
1, 566955, Note_on_c, 4, 76, 127
1, 567184, Note_off_c, 4, 76, 127
1, 567185, Note_on_c, 10, 69, 127
1, 567414, Note_off_c, 10, 69, 127
1, 567414, Note_off_c, 2, 62, 127
1, 567415, Note_on_c, 10, 81, 127
1, 567415, Note_on_c, 1, 61, 127
1, 567644, Note_off_c, 10, 81, 127
1, 567645, Note_on_c, 7, 79, 127
1, 567874, Note_off_c, 7, 79, 127
1, 567875, Note_on_c, 10, 81, 127
1, 568104, Note_off_c, 10, 81, 127
1, 568104, Note_off_c, 1, 61, 127
1, 568105, Note_on_c, 4, 76, 127
1, 568105, Note_on_c, 1, 61, 127
1, 568334, Note_off_c, 1, 61, 127
1, 568334, Note_off_c, 4, 76, 127
1, 568335, Note_on_c, 5, 77, 127
1, 568335, Note_on_c, 2, 62, 127
1, 568565, Note_on_c, 10, 69, 127
1, 568679, Note_off_c, 10, 69, 127
1, 568680, Note_on_c, 7, 67, 127
1, 568790, Note_off_c, 2, 62, 127
1, 568790, Note_off_c, 5, 77, 127
1, 568794, Note_off_c, 7, 67, 127
1, 568795, Note_on_c, 5, 65, 127
1, 569024, Note_off_c, 5, 65, 127
1, 569025, Note_on_c, 2, 62, 127
1, 569254, Note_off_c, 2, 62, 127
1, 569255, Note_on_c, 2, 74, 127
1, 569485, Note_on_c, 11, 82, 127
1, 569485, Note_on_c, 2, 62, 127
1, 569714, Note_off_c, 2, 62, 127
1, 569714, Note_off_c, 11, 82, 127
1, 569715, Note_on_c, 7, 79, 127
1, 569715, Note_on_c, 4, 64, 127
1, 569944, Note_off_c, 4, 64, 127
1, 569945, Note_on_c, 10, 57, 127
1, 570174, Note_off_c, 10, 57, 127
1, 570174, Note_off_c, 7, 79, 127
1, 570174, Note_off_c, 2, 74, 127
1, 570175, Note_on_c, 4, 76, 127
1, 570175, Note_on_c, 1, 73, 127
1, 570175, Note_on_c, 10, 69, 127
1, 570404, Note_off_c, 10, 69, 127
1, 570405, Note_on_c, 7, 67, 127
1, 570634, Note_off_c, 7, 67, 127
1, 570635, Note_on_c, 10, 69, 127
1, 570864, Note_off_c, 10, 69, 127
1, 570864, Note_off_c, 1, 73, 127
1, 570864, Note_off_c, 4, 76, 127
1, 570865, Note_on_c, 4, 76, 127
1, 570865, Note_on_c, 1, 73, 127
1, 570865, Note_on_c, 4, 64, 127
1, 571093, Note_off_c, 4, 64, 127
1, 571094, Note_off_c, 1, 73, 127
1, 571094, Note_off_c, 4, 76, 127
1, 571095, Note_on_c, 2, 74, 127
1, 571095, Note_on_c, 5, 65, 127
1, 571325, Note_on_c, 10, 45, 127
1, 571439, Note_off_c, 10, 45, 127
1, 571440, Note_on_c, 7, 43, 127
1, 571554, Note_off_c, 7, 43, 127
1, 571555, Note_on_c, 5, 41, 127
1, 571784, Note_off_c, 5, 41, 127
1, 571784, Note_off_c, 5, 65, 127
1, 571784, Note_off_c, 2, 74, 127
1, 571785, Note_on_c, 2, 38, 127
1, 572014, Note_off_c, 2, 38, 127
1, 572015, Note_on_c, 5, 53, 127
1, 572015, Note_on_c, 2, 50, 127
1, 572245, Note_on_c, 2, 62, 127
1, 572474, Note_off_c, 2, 62, 127
1, 572474, Note_off_c, 5, 53, 127
1, 572475, Note_on_c, 4, 64, 127
1, 572475, Note_on_c, 7, 55, 127
1, 572704, Note_off_c, 4, 64, 127
1, 572705, Note_on_c, 10, 57, 127
1, 572934, Note_off_c, 10, 57, 127
1, 572934, Note_off_c, 7, 55, 127
1, 572934, Note_off_c, 2, 50, 127
1, 572935, Note_on_c, 10, 69, 127
1, 572935, Note_on_c, 4, 52, 127
1, 572935, Note_on_c, 1, 49, 127
1, 573164, Note_off_c, 10, 69, 127
1, 573165, Note_on_c, 7, 67, 127
1, 573394, Note_off_c, 7, 67, 127
1, 573395, Note_on_c, 10, 69, 127
1, 573624, Note_off_c, 10, 69, 127
1, 573624, Note_off_c, 1, 49, 127
1, 573624, Note_off_c, 4, 52, 127
1, 573625, Note_on_c, 4, 64, 127
1, 573625, Note_on_c, 10, 57, 127
1, 573625, Note_on_c, 1, 49, 127
1, 573853, Note_off_c, 4, 64, 127
1, 573854, Note_off_c, 1, 49, 127
1, 573854, Note_off_c, 10, 57, 127
1, 573855, Note_on_c, 5, 65, 127
1, 573855, Note_on_c, 10, 57, 127
1, 573855, Note_on_c, 2, 50, 127
1, 574083, Note_off_c, 5, 65, 127
1, 574085, Note_on_c, 10, 81, 127
1, 574199, Note_off_c, 10, 81, 127
1, 574200, Note_on_c, 7, 79, 127
1, 574314, Note_off_c, 7, 79, 127
1, 574315, Note_on_c, 5, 77, 127
1, 574430, Note_off_c, 2, 50, 127
1, 574430, Note_off_c, 10, 57, 127
1, 574544, Note_off_c, 5, 77, 127
1, 574545, Note_on_c, 2, 74, 127
1, 574545, Note_on_c, 10, 69, 127
1, 574545, Note_on_c, 5, 65, 127
1, 574545, Note_on_c, 2, 62, 127
1, 574774, Note_off_c, 2, 62, 127
1, 574774, Note_off_c, 5, 65, 127
1, 574774, Note_off_c, 10, 69, 127
1, 574774, Note_off_c, 2, 74, 127
1, 574775, Note_on_c, 7, 79, 127
1, 574775, Note_on_c, 7, 67, 127
1, 574775, Note_on_c, 2, 62, 127
1, 574775, Note_on_c, 12, 59, 127
1, 574889, Note_off_c, 7, 79, 127
1, 574890, Note_on_c, 10, 81, 127
1, 575004, Note_off_c, 10, 81, 127
1, 575004, Note_off_c, 12, 59, 127
1, 575005, Note_on_c, 5, 77, 127
1, 575005, Note_on_c, 7, 55, 127
1, 575119, Note_off_c, 5, 77, 127
1, 575120, Note_on_c, 7, 79, 127
1, 575234, Note_off_c, 7, 79, 127
1, 575234, Note_off_c, 7, 55, 127
1, 575234, Note_off_c, 2, 62, 127
1, 575234, Note_off_c, 7, 67, 127
1, 575235, Note_on_c, 4, 76, 127
1, 575235, Note_on_c, 4, 64, 127
1, 575235, Note_on_c, 0, 60, 127
1, 575464, Note_off_c, 4, 76, 127
1, 575465, Note_on_c, 7, 79, 127
1, 575579, Note_off_c, 7, 79, 127
1, 575580, Note_on_c, 5, 77, 127
1, 575690, Note_off_c, 0, 60, 127
1, 575690, Note_off_c, 4, 64, 127
1, 575694, Note_off_c, 5, 77, 127
1, 575695, Note_on_c, 4, 76, 127
1, 575924, Note_off_c, 4, 76, 127
1, 575925, Note_on_c, 0, 72, 127
1, 575925, Note_on_c, 7, 67, 127
1, 575925, Note_on_c, 4, 64, 127
1, 575925, Note_on_c, 0, 60, 127
1, 576154, Note_off_c, 0, 60, 127
1, 576154, Note_off_c, 4, 64, 127
1, 576154, Note_off_c, 7, 67, 127
1, 576154, Note_off_c, 0, 72, 127
1, 576155, Note_on_c, 5, 77, 127
1, 576155, Note_on_c, 0, 60, 127
1, 576155, Note_on_c, 5, 65, 127
1, 576155, Note_on_c, 10, 57, 127
1, 576269, Note_off_c, 5, 77, 127
1, 576270, Note_on_c, 7, 79, 127
1, 576384, Note_off_c, 7, 79, 127
1, 576384, Note_off_c, 10, 57, 127
1, 576385, Note_on_c, 4, 76, 127
1, 576385, Note_on_c, 5, 53, 127
1, 576499, Note_off_c, 4, 76, 127
1, 576500, Note_on_c, 5, 77, 127
1, 576614, Note_off_c, 5, 77, 127
1, 576614, Note_off_c, 5, 53, 127
1, 576614, Note_off_c, 5, 65, 127
1, 576614, Note_off_c, 0, 60, 127
1, 576615, Note_on_c, 2, 74, 127
1, 576615, Note_on_c, 5, 65, 127
1, 576615, Note_on_c, 11, 58, 127
1, 576844, Note_off_c, 2, 74, 127
1, 576845, Note_on_c, 2, 74, 127
1, 576959, Note_off_c, 2, 74, 127
1, 576960, Note_on_c, 1, 73, 127
1, 577070, Note_off_c, 5, 65, 127
1, 577074, Note_off_c, 1, 73, 127
1, 577075, Note_on_c, 2, 74, 127
1, 577190, Note_off_c, 11, 58, 127
1, 577305, Note_on_c, 11, 70, 127
1, 577305, Note_on_c, 2, 62, 127
1, 577305, Note_on_c, 7, 55, 127
1, 577534, Note_off_c, 7, 55, 127
1, 577534, Note_off_c, 2, 62, 127
1, 577534, Note_off_c, 11, 70, 127
1, 577535, Note_on_c, 10, 69, 127
1, 577535, Note_on_c, 2, 62, 127
1, 577535, Note_on_c, 6, 54, 127
1, 577764, Note_off_c, 6, 54, 127
1, 577764, Note_off_c, 2, 62, 127
1, 577764, Note_off_c, 10, 69, 127
1, 577765, Note_on_c, 6, 66, 127
1, 577765, Note_on_c, 2, 62, 127
1, 577765, Note_on_c, 2, 50, 127
1, 577994, Note_off_c, 2, 50, 127
1, 577994, Note_off_c, 2, 62, 127
1, 577994, Note_off_c, 6, 66, 127
1, 577995, Note_on_c, 11, 70, 127
1, 577995, Note_on_c, 2, 62, 127
1, 577995, Note_on_c, 7, 55, 127
1, 578224, Note_off_c, 2, 74, 127
1, 578225, Note_on_c, 2, 74, 127
1, 578339, Note_off_c, 2, 74, 127
1, 578340, Note_on_c, 1, 73, 127
1, 578450, Note_off_c, 2, 62, 127
1, 578450, Note_off_c, 11, 70, 127
1, 578454, Note_off_c, 1, 73, 127
1, 578455, Note_on_c, 2, 74, 127
1, 578570, Note_off_c, 7, 55, 127
1, 578685, Note_on_c, 11, 70, 127
1, 578685, Note_on_c, 2, 62, 127
1, 578685, Note_on_c, 7, 55, 127
1, 578914, Note_off_c, 7, 55, 127
1, 578914, Note_off_c, 2, 62, 127
1, 578914, Note_off_c, 11, 70, 127
1, 578915, Note_on_c, 10, 69, 127
1, 578915, Note_on_c, 2, 62, 127
1, 578915, Note_on_c, 6, 54, 127
1, 579144, Note_off_c, 6, 54, 127
1, 579144, Note_off_c, 2, 62, 127
1, 579144, Note_off_c, 10, 69, 127
1, 579144, Note_off_c, 2, 74, 127
1, 579145, Note_on_c, 2, 62, 127
1, 579145, Note_on_c, 6, 66, 127
1, 579145, Note_on_c, 2, 50, 127
1, 579374, Note_off_c, 2, 50, 127
1, 579374, Note_off_c, 6, 66, 127
1, 579374, Note_off_c, 2, 62, 127
1, 579375, Note_on_c, 2, 62, 127
1, 579375, Note_on_c, 11, 70, 127
1, 579375, Note_on_c, 7, 55, 127
1, 579605, Note_on_c, 2, 74, 127
1, 579719, Note_off_c, 2, 74, 127
1, 579720, Note_on_c, 0, 72, 127
1, 579830, Note_off_c, 11, 70, 127
1, 579830, Note_off_c, 2, 62, 127
1, 579834, Note_off_c, 0, 72, 127
1, 579835, Note_on_c, 11, 70, 127
1, 579950, Note_off_c, 7, 55, 127
1, 580064, Note_off_c, 11, 70, 127
1, 580065, Note_on_c, 2, 74, 127
1, 580065, Note_on_c, 7, 55, 127
1, 580179, Note_off_c, 7, 55, 127
1, 580180, Note_on_c, 5, 53, 127
1, 580294, Note_off_c, 5, 53, 127
1, 580294, Note_off_c, 2, 74, 127
1, 580295, Note_on_c, 7, 67, 127
1, 580295, Note_on_c, 4, 52, 127
1, 580409, Note_off_c, 4, 52, 127
1, 580410, Note_on_c, 5, 53, 127
1, 580524, Note_off_c, 5, 53, 127
1, 580524, Note_off_c, 7, 67, 127
1, 580525, Note_on_c, 11, 70, 127
1, 580525, Note_on_c, 4, 52, 127
1, 580639, Note_off_c, 4, 52, 127
1, 580640, Note_on_c, 2, 50, 127
1, 580754, Note_off_c, 2, 50, 127
1, 580755, Note_on_c, 1, 49, 127
1, 580869, Note_off_c, 1, 49, 127
1, 580870, Note_on_c, 4, 52, 127
1, 580984, Note_off_c, 4, 52, 127
1, 580984, Note_off_c, 11, 70, 127
1, 580985, Note_on_c, 10, 69, 127
1, 580985, Note_on_c, 1, 49, 127
1, 581099, Note_off_c, 1, 49, 127
1, 581099, Note_off_c, 10, 69, 127
1, 581100, Note_on_c, 7, 67, 127
1, 581100, Note_on_c, 10, 45, 127
1, 581214, Note_off_c, 10, 45, 127
1, 581214, Note_off_c, 7, 67, 127
1, 581215, Note_on_c, 5, 65, 127
1, 581215, Note_on_c, 2, 50, 127
1, 581329, Note_off_c, 2, 50, 127
1, 581330, Note_on_c, 4, 52, 127
1, 581444, Note_off_c, 4, 52, 127
1, 581444, Note_off_c, 5, 65, 127
1, 581445, Note_on_c, 10, 69, 127
1, 581445, Note_on_c, 2, 50, 127
1, 581559, Note_off_c, 2, 50, 127
1, 581560, Note_on_c, 0, 48, 127
1, 581674, Note_off_c, 0, 48, 127
1, 581675, Note_on_c, 12, 47, 127
1, 581789, Note_off_c, 12, 47, 127
1, 581790, Note_on_c, 2, 50, 127
1, 581904, Note_off_c, 2, 50, 127
1, 581904, Note_off_c, 10, 69, 127
1, 581905, Note_on_c, 7, 67, 127
1, 581905, Note_on_c, 12, 47, 127
1, 582019, Note_off_c, 12, 47, 127
1, 582019, Note_off_c, 7, 67, 127
1, 582020, Note_on_c, 5, 65, 127
1, 582020, Note_on_c, 7, 43, 127
1, 582134, Note_off_c, 7, 43, 127
1, 582134, Note_off_c, 5, 65, 127
1, 582135, Note_on_c, 4, 64, 127
1, 582135, Note_on_c, 0, 48, 127
1, 582249, Note_off_c, 0, 48, 127
1, 582250, Note_on_c, 2, 50, 127
1, 582364, Note_off_c, 2, 50, 127
1, 582364, Note_off_c, 4, 64, 127
1, 582365, Note_on_c, 7, 67, 127
1, 582365, Note_on_c, 0, 48, 127
1, 582479, Note_off_c, 0, 48, 127
1, 582480, Note_on_c, 11, 46, 127
1, 582594, Note_off_c, 11, 46, 127
1, 582595, Note_on_c, 10, 45, 127
1, 582709, Note_off_c, 10, 45, 127
1, 582710, Note_on_c, 0, 48, 127
1, 582824, Note_off_c, 0, 48, 127
1, 582824, Note_off_c, 7, 67, 127
1, 582825, Note_on_c, 5, 65, 127
1, 582825, Note_on_c, 10, 45, 127
1, 582939, Note_off_c, 10, 45, 127
1, 582939, Note_off_c, 5, 65, 127
1, 582940, Note_on_c, 4, 64, 127
1, 582940, Note_on_c, 5, 41, 127
1, 583054, Note_off_c, 5, 41, 127
1, 583054, Note_off_c, 4, 64, 127
1, 583055, Note_on_c, 2, 62, 127
1, 583055, Note_on_c, 11, 46, 127
1, 583169, Note_off_c, 11, 46, 127
1, 583170, Note_on_c, 0, 48, 127
1, 583284, Note_off_c, 0, 48, 127
1, 583284, Note_off_c, 2, 62, 127
1, 583285, Note_on_c, 5, 65, 127
1, 583285, Note_on_c, 11, 46, 127
1, 583399, Note_off_c, 11, 46, 127
1, 583400, Note_on_c, 10, 45, 127
1, 583514, Note_off_c, 10, 45, 127
1, 583515, Note_on_c, 7, 43, 127
1, 583629, Note_off_c, 7, 43, 127
1, 583630, Note_on_c, 11, 46, 127
1, 583744, Note_off_c, 11, 46, 127
1, 583744, Note_off_c, 5, 65, 127
1, 583745, Note_on_c, 4, 64, 127
1, 583745, Note_on_c, 7, 43, 127
1, 583859, Note_off_c, 7, 43, 127
1, 583859, Note_off_c, 4, 64, 127
1, 583860, Note_on_c, 2, 62, 127
1, 583860, Note_on_c, 4, 40, 127
1, 583974, Note_off_c, 4, 40, 127
1, 583974, Note_off_c, 2, 62, 127
1, 583975, Note_on_c, 1, 61, 127
1, 583975, Note_on_c, 10, 45, 127
1, 584089, Note_off_c, 10, 45, 127
1, 584090, Note_on_c, 1, 49, 127
1, 584204, Note_off_c, 1, 49, 127
1, 584204, Note_off_c, 1, 61, 127
1, 584205, Note_on_c, 5, 65, 127
1, 584205, Note_on_c, 10, 45, 127
1, 584319, Note_off_c, 10, 45, 127
1, 584319, Note_off_c, 5, 65, 127
1, 584320, Note_on_c, 4, 64, 127
1, 584320, Note_on_c, 5, 41, 127
1, 584434, Note_off_c, 5, 41, 127
1, 584434, Note_off_c, 4, 64, 127
1, 584435, Note_on_c, 2, 62, 127
1, 584435, Note_on_c, 11, 46, 127
1, 584549, Note_off_c, 11, 46, 127
1, 584550, Note_on_c, 2, 50, 127
1, 584664, Note_off_c, 2, 50, 127
1, 584664, Note_off_c, 2, 62, 127
1, 584665, Note_on_c, 7, 67, 127
1, 584665, Note_on_c, 12, 47, 127
1, 584779, Note_off_c, 12, 47, 127
1, 584779, Note_off_c, 7, 67, 127
1, 584780, Note_on_c, 5, 65, 127
1, 584780, Note_on_c, 7, 43, 127
1, 584894, Note_off_c, 7, 43, 127
1, 584894, Note_off_c, 5, 65, 127
1, 584895, Note_on_c, 4, 64, 127
1, 584895, Note_on_c, 0, 48, 127
1, 585009, Note_off_c, 0, 48, 127
1, 585010, Note_on_c, 4, 52, 127
1, 585124, Note_off_c, 4, 52, 127
1, 585124, Note_off_c, 4, 64, 127
1, 585125, Note_on_c, 10, 69, 127
1, 585125, Note_on_c, 1, 49, 127
1, 585239, Note_off_c, 1, 49, 127
1, 585239, Note_off_c, 10, 69, 127
1, 585240, Note_on_c, 7, 67, 127
1, 585240, Note_on_c, 10, 45, 127
1, 585354, Note_off_c, 10, 45, 127
1, 585354, Note_off_c, 7, 67, 127
1, 585355, Note_on_c, 5, 65, 127
1, 585355, Note_on_c, 2, 50, 127
1, 585469, Note_off_c, 2, 50, 127
1, 585470, Note_on_c, 5, 53, 127
1, 585584, Note_off_c, 5, 53, 127
1, 585584, Note_off_c, 5, 65, 127
1, 585585, Note_on_c, 11, 70, 127
1, 585585, Note_on_c, 2, 50, 127
1, 585699, Note_off_c, 2, 50, 127
1, 585699, Note_off_c, 11, 70, 127
1, 585700, Note_on_c, 10, 69, 127
1, 585700, Note_on_c, 11, 46, 127
1, 585814, Note_off_c, 11, 46, 127
1, 585814, Note_off_c, 10, 69, 127
1, 585815, Note_on_c, 7, 67, 127
1, 585815, Note_on_c, 4, 52, 127
1, 585929, Note_off_c, 4, 52, 127
1, 585930, Note_on_c, 7, 55, 127
1, 586044, Note_off_c, 7, 55, 127
1, 586044, Note_off_c, 7, 67, 127
1, 586045, Note_on_c, 0, 72, 127
1, 586045, Note_on_c, 4, 52, 127
1, 586159, Note_off_c, 4, 52, 127
1, 586159, Note_off_c, 0, 72, 127
1, 586160, Note_on_c, 11, 70, 127
1, 586160, Note_on_c, 0, 48, 127
1, 586274, Note_off_c, 0, 48, 127
1, 586274, Note_off_c, 11, 70, 127
1, 586275, Note_on_c, 10, 69, 127
1, 586275, Note_on_c, 5, 53, 127
1, 586389, Note_off_c, 5, 53, 127
1, 586390, Note_on_c, 10, 57, 127
1, 586504, Note_off_c, 10, 57, 127
1, 586504, Note_off_c, 10, 69, 127
1, 586505, Note_on_c, 2, 74, 127
1, 586505, Note_on_c, 6, 54, 127
1, 586619, Note_off_c, 6, 54, 127
1, 586619, Note_off_c, 2, 74, 127
1, 586620, Note_on_c, 0, 72, 127
1, 586620, Note_on_c, 2, 50, 127
1, 586734, Note_off_c, 2, 50, 127
1, 586734, Note_off_c, 0, 72, 127
1, 586735, Note_on_c, 11, 70, 127
1, 586735, Note_on_c, 7, 55, 127
1, 586849, Note_off_c, 11, 70, 127
1, 586850, Note_on_c, 7, 67, 127
1, 586964, Note_off_c, 7, 67, 127
1, 586964, Note_off_c, 7, 55, 127
1, 586965, Note_on_c, 11, 82, 127
1, 586965, Note_on_c, 7, 43, 127
1, 587079, Note_off_c, 7, 43, 127
1, 587079, Note_off_c, 11, 82, 127
1, 587080, Note_on_c, 10, 81, 127
1, 587080, Note_on_c, 10, 45, 127
1, 587194, Note_off_c, 10, 45, 127
1, 587194, Note_off_c, 10, 81, 127
1, 587195, Note_on_c, 7, 79, 127
1, 587195, Note_on_c, 11, 46, 127
1, 587309, Note_off_c, 7, 79, 127
1, 587310, Note_on_c, 5, 77, 127
1, 587424, Note_off_c, 5, 77, 127
1, 587424, Note_off_c, 11, 46, 127
1, 587425, Note_on_c, 4, 76, 127
1, 587425, Note_on_c, 7, 43, 127
1, 587539, Note_off_c, 4, 76, 127
1, 587540, Note_on_c, 2, 74, 127
1, 587654, Note_off_c, 2, 74, 127
1, 587654, Note_off_c, 7, 43, 127
1, 587655, Note_on_c, 1, 73, 127
1, 587655, Note_on_c, 10, 45, 127
1, 587769, Note_off_c, 1, 73, 127
1, 587776, Note_on_c, 10, 69, 127
1, 587884, Note_off_c, 10, 45, 127
1, 587895, Note_off_c, 10, 69, 127
1, 587899, Note_on_c, 1, 61, 127
1, 587899, Note_on_c, 10, 81, 127
1, 588018, Note_off_c, 10, 81, 127
1, 588020, Note_on_c, 7, 79, 127
1, 588139, Note_off_c, 7, 79, 127
1, 588139, Note_off_c, 1, 61, 127
1, 588143, Note_on_c, 2, 62, 127
1, 588143, Note_on_c, 5, 77, 127
1, 588262, Note_off_c, 5, 77, 127
1, 588266, Note_on_c, 4, 76, 127
1, 588384, Note_off_c, 2, 62, 127
1, 588385, Note_off_c, 4, 76, 127
1, 588389, Note_on_c, 5, 53, 127
1, 588389, Note_on_c, 5, 65, 127
1, 588389, Note_on_c, 10, 69, 127
1, 588389, Note_on_c, 2, 74, 127
1, 588508, Note_off_c, 2, 74, 127
1, 588508, Note_off_c, 5, 53, 127
1, 588510, Note_on_c, 7, 55, 127
1, 588510, Note_on_c, 4, 76, 127
1, 588629, Note_off_c, 4, 76, 127
1, 588629, Note_off_c, 7, 55, 127
1, 588629, Note_off_c, 10, 69, 127
1, 588629, Note_off_c, 5, 65, 127
1, 588633, Note_on_c, 10, 57, 127
1, 588633, Note_on_c, 10, 69, 127
1, 588633, Note_on_c, 4, 64, 127
1, 588633, Note_on_c, 1, 73, 127
1, 588873, Note_off_c, 10, 57, 127
1, 588878, Note_on_c, 10, 45, 127
1, 589116, Note_off_c, 1, 73, 127
1, 589116, Note_off_c, 4, 64, 127
1, 589116, Note_off_c, 10, 69, 127
1, 589118, Note_off_c, 10, 45, 127
1, 589122, Note_on_c, 2, 50, 127
1, 589122, Note_on_c, 10, 69, 127
1, 589122, Note_on_c, 5, 65, 127
1, 589122, Note_on_c, 2, 74, 127
1, 589399, Note_off_c, 2, 74, 127
1, 589399, Note_off_c, 5, 65, 127
1, 589399, Note_off_c, 10, 69, 127
1, 589399, Note_off_c, 2, 50, 127
1, 589426, Note_on_c, 1, 61, 127
1, 589426, Note_on_c, 10, 81, 127
1, 589552, Note_off_c, 10, 81, 127
1, 589559, Note_on_c, 7, 79, 127
1, 589681, Note_off_c, 1, 61, 127
1, 589685, Note_off_c, 7, 79, 127
1, 589692, Note_on_c, 2, 62, 127
1, 589692, Note_on_c, 5, 77, 127
1, 589948, Note_off_c, 5, 77, 127
1, 589948, Note_off_c, 2, 62, 127
1, 589959, Note_on_c, 5, 53, 127
1, 589959, Note_on_c, 10, 69, 127
1, 589959, Note_on_c, 5, 65, 127
1, 589959, Note_on_c, 2, 74, 127
1, 590085, Note_off_c, 2, 74, 127
1, 590085, Note_off_c, 5, 53, 127
1, 590092, Note_on_c, 7, 55, 127
1, 590092, Note_on_c, 4, 76, 127
1, 590214, Note_off_c, 5, 65, 127
1, 590214, Note_off_c, 10, 69, 127
1, 590218, Note_off_c, 4, 76, 127
1, 590218, Note_off_c, 7, 55, 127
1, 590225, Note_on_c, 10, 57, 127
1, 590225, Note_on_c, 10, 69, 127
1, 590225, Note_on_c, 4, 64, 127
1, 590225, Note_on_c, 1, 73, 127
1, 590481, Note_off_c, 4, 64, 127
1, 590492, Note_on_c, 10, 45, 127
1, 590492, Note_on_c, 7, 67, 127
1, 590732, Note_off_c, 7, 67, 127
1, 590792, Note_off_c, 10, 57, 127
1, 590805, Note_off_c, 1, 73, 127
1, 590805, Note_off_c, 10, 69, 127
1, 590901, Note_off_c, 10, 45, 127
1, 590912, Note_on_c, 2, 38, 127
1, 590912, Note_on_c, 2, 50, 127
1, 590912, Note_on_c, 6, 66, 127
1, 590912, Note_on_c, 2, 74, 127
1, 590912, Note_on_c, 10, 69, 127
1, 593012, Note_off_c, 10, 69, 127
1, 593012, Note_off_c, 2, 74, 127
1, 593012, Note_off_c, 6, 66, 127
1, 593012, Note_off_c, 2, 50, 127
1, 593012, Note_off_c, 2, 38, 127
1, 595968, End_track
0, 0, End_of_file
