0, 0, Header, 1, 3, 384
1, 0, Start_track
1, 0, Tempo, 500000
1, 0, Time_signature, 4, 2, 24, 8
1, 423936, End_track
2, 0, Start_track
2, 0, Text_t, "harpsichord: John Sankey"
2, 0, Program_c, 0, 6
2, 0, Pitch_bend_c, 0, 8192
2, 0, Program_c, 1, 6
2, 0, Pitch_bend_c, 1, 7792
2, 0, Program_c, 2, 6
2, 0, Pitch_bend_c, 2, 7876
2, 0, Program_c, 3, 6
2, 0, Pitch_bend_c, 3, 7952
2, 0, Program_c, 4, 6
2, 0, Pitch_bend_c, 4, 7792
2, 0, Program_c, 5, 6
2, 0, Pitch_bend_c, 5, 8112
2, 0, Program_c, 6, 6
2, 0, Pitch_bend_c, 6, 7712
2, 0, Program_c, 7, 6
2, 0, Pitch_bend_c, 7, 8037
2, 0, Program_c, 8, 6
2, 0, Pitch_bend_c, 8, 7872
2, 0, Program_c, 10, 6
2, 0, Pitch_bend_c, 10, 7712
2, 0, Program_c, 11, 6
2, 0, Pitch_bend_c, 11, 8032
2, 0, Program_c, 12, 6
2, 0, Pitch_bend_c, 12, 7872
2, 0, Title_t, "Track 1"
2, 96, Note_on_c, 0, 60, 127
2, 96, Note_on_c, 0, 48, 127
2, 98, Note_on_c, 7, 67, 127
2, 98, Note_on_c, 4, 76, 127
2, 1533, Note_off_c, 0, 48, 127
2, 1535, Note_off_c, 7, 67, 127
2, 1747, Note_on_c, 7, 55, 127
2, 2009, Note_off_c, 7, 55, 127
2, 2014, Note_on_c, 10, 57, 127
2, 2032, Note_off_c, 0, 60, 127
2, 2372, Note_off_c, 10, 57, 127
2, 2374, Note_on_c, 0, 60, 127
2, 2492, Note_off_c, 0, 60, 127
2, 2494, Note_on_c, 12, 59, 127
2, 2732, Note_off_c, 12, 59, 127
2, 2734, Note_on_c, 2, 62, 127
2, 2852, Note_off_c, 2, 62, 127
2, 2854, Note_on_c, 0, 60, 127
2, 2972, Note_off_c, 0, 60, 127
2, 2974, Note_off_c, 4, 76, 127
2, 2974, Note_on_c, 0, 60, 127
2, 3694, Note_on_c, 12, 59, 127
2, 3694, Note_on_c, 7, 67, 127
2, 3734, Note_off_c, 0, 60, 127
2, 3932, Note_off_c, 7, 67, 127
2, 3932, Note_off_c, 12, 59, 127
2, 3934, Note_on_c, 0, 60, 127
2, 3934, Note_on_c, 10, 69, 127
2, 4292, Note_off_c, 10, 69, 127
2, 4292, Note_off_c, 0, 60, 127
2, 4294, Note_on_c, 4, 64, 127
2, 4294, Note_on_c, 0, 72, 127
2, 4412, Note_off_c, 0, 72, 127
2, 4412, Note_off_c, 4, 64, 127
2, 4414, Note_on_c, 2, 62, 127
2, 4414, Note_on_c, 12, 71, 127
2, 4652, Note_off_c, 12, 71, 127
2, 4652, Note_off_c, 2, 62, 127
2, 4654, Note_on_c, 5, 65, 127
2, 4654, Note_on_c, 2, 74, 127
2, 4772, Note_off_c, 2, 74, 127
2, 4772, Note_off_c, 5, 65, 127
2, 4774, Note_on_c, 4, 64, 127
2, 4774, Note_on_c, 0, 72, 127
2, 4892, Note_off_c, 0, 72, 127
2, 4892, Note_off_c, 4, 64, 127
2, 4894, Note_on_c, 4, 64, 127
2, 4894, Note_on_c, 0, 72, 127
2, 5136, Note_on_c, 7, 43, 127
2, 5374, Note_off_c, 7, 43, 127
2, 5374, Note_on_c, 10, 45, 127
2, 5544, Note_off_c, 4, 64, 127
2, 5612, Note_off_c, 10, 45, 127
2, 5614, Note_on_c, 0, 48, 127
2, 5614, Note_on_c, 2, 74, 127
2, 5732, Note_off_c, 0, 48, 127
2, 5734, Note_on_c, 12, 47, 127
2, 5852, Note_off_c, 12, 47, 127
2, 5852, Note_off_c, 2, 74, 127
2, 5854, Note_on_c, 0, 48, 127
2, 5854, Note_on_c, 4, 76, 127
2, 6212, Note_off_c, 4, 76, 127
2, 6212, Note_off_c, 0, 48, 127
2, 6214, Note_on_c, 2, 50, 127
2, 6214, Note_on_c, 7, 79, 127
2, 6332, Note_off_c, 7, 79, 127
2, 6332, Note_off_c, 2, 50, 127
2, 6334, Note_on_c, 4, 52, 127
2, 6334, Note_on_c, 5, 77, 127
2, 6459, Note_on_c, 2, 50, 127
2, 6499, Note_off_c, 4, 52, 127
2, 6571, Note_off_c, 5, 77, 127
2, 6573, Note_on_c, 10, 81, 127
2, 6575, Note_off_c, 2, 50, 127
2, 6583, Note_on_c, 0, 48, 127
2, 6691, Note_off_c, 10, 81, 127
2, 6693, Note_on_c, 7, 79, 127
2, 6698, Note_on_c, 2, 50, 127
2, 6700, Note_off_c, 0, 48, 127
2, 6810, Note_off_c, 7, 79, 127
2, 6812, Note_on_c, 4, 52, 127
2, 6812, Note_on_c, 7, 79, 127
2, 6814, Note_off_c, 2, 50, 127
2, 7052, Note_on_c, 7, 55, 127
2, 7290, Note_off_c, 7, 55, 127
2, 7292, Note_on_c, 10, 57, 127
2, 7530, Note_off_c, 10, 57, 127
2, 7530, Note_off_c, 7, 79, 127
2, 7532, Note_on_c, 0, 60, 127
2, 7532, Note_on_c, 10, 81, 127
2, 7650, Note_off_c, 0, 60, 127
2, 7652, Note_on_c, 12, 59, 127
2, 7767, Note_off_c, 0, 72, 127
2, 7769, Note_off_c, 12, 59, 127
2, 7769, Note_off_c, 10, 81, 127
2, 7787, Note_on_c, 0, 60, 127
2, 7787, Note_on_c, 7, 79, 127
2, 7898, Note_on_c, 5, 77, 127
2, 7912, Note_off_c, 7, 79, 127
2, 7992, Note_on_c, 4, 76, 127
2, 8014, Note_off_c, 5, 77, 127
2, 8086, Note_on_c, 2, 74, 127
2, 8108, Note_off_c, 4, 76, 127
2, 8180, Note_on_c, 5, 77, 127
2, 8185, Note_off_c, 2, 74, 127
2, 8257, Note_off_c, 5, 77, 127
2, 8261, Note_off_c, 0, 60, 127
2, 8279, Note_on_c, 4, 76, 127
2, 8279, Note_on_c, 7, 55, 127
2, 8517, Note_off_c, 4, 76, 127
2, 8519, Note_on_c, 2, 74, 127
2, 8637, Note_off_c, 2, 74, 127
2, 8639, Note_on_c, 0, 72, 127
2, 8725, Note_off_c, 4, 52, 127
2, 8757, Note_off_c, 0, 72, 127
2, 8759, Note_on_c, 0, 72, 127
2, 8759, Note_on_c, 10, 45, 127
2, 8999, Note_on_c, 7, 67, 127
2, 9229, Note_off_c, 7, 55, 127
2, 9237, Note_off_c, 7, 67, 127
2, 9239, Note_on_c, 10, 69, 127
2, 9239, Note_on_c, 4, 52, 127
2, 9477, Note_off_c, 10, 69, 127
2, 9479, Note_on_c, 11, 70, 127
2, 9717, Note_off_c, 11, 70, 127
2, 9719, Note_on_c, 10, 69, 127
2, 10077, Note_off_c, 10, 69, 127
2, 10079, Note_on_c, 7, 67, 127
2, 10197, Note_off_c, 7, 67, 127
2, 10197, Note_off_c, 4, 52, 127
2, 10199, Note_on_c, 5, 65, 127
2, 10199, Note_on_c, 10, 57, 127
2, 10317, Note_off_c, 5, 65, 127
2, 10319, Note_on_c, 4, 64, 127
2, 10437, Note_off_c, 4, 64, 127
2, 10439, Note_on_c, 7, 67, 127
2, 10557, Note_off_c, 7, 67, 127
2, 10559, Note_on_c, 5, 65, 127
2, 10677, Note_off_c, 5, 65, 127
2, 10677, Note_off_c, 10, 45, 127
2, 10679, Note_on_c, 5, 65, 127
2, 10679, Note_on_c, 2, 50, 127
2, 10909, Note_off_c, 0, 72, 127
2, 10919, Note_on_c, 0, 72, 127
2, 11157, Note_off_c, 0, 72, 127
2, 11159, Note_on_c, 2, 74, 127
2, 11397, Note_off_c, 2, 74, 127
2, 11399, Note_on_c, 4, 76, 127
2, 11637, Note_off_c, 4, 76, 127
2, 11639, Note_on_c, 2, 74, 127
2, 11997, Note_off_c, 2, 74, 127
2, 11999, Note_on_c, 0, 72, 127
2, 12117, Note_off_c, 0, 72, 127
2, 12119, Note_on_c, 12, 71, 127
2, 12237, Note_off_c, 12, 71, 127
2, 12239, Note_on_c, 10, 69, 127
2, 12357, Note_off_c, 10, 69, 127
2, 12359, Note_on_c, 0, 72, 127
2, 12477, Note_off_c, 0, 72, 127
2, 12479, Note_on_c, 12, 71, 127
2, 12597, Note_off_c, 12, 71, 127
2, 12597, Note_off_c, 2, 50, 127
2, 12599, Note_off_c, 10, 57, 127
2, 12599, Note_on_c, 12, 71, 127
2, 12599, Note_on_c, 7, 55, 127
2, 12829, Note_off_c, 5, 65, 127
2, 12839, Note_on_c, 5, 65, 127
2, 13077, Note_off_c, 5, 65, 127
2, 13079, Note_on_c, 7, 67, 127
2, 13317, Note_off_c, 7, 67, 127
2, 13319, Note_on_c, 10, 69, 127
2, 13557, Note_off_c, 10, 69, 127
2, 13559, Note_on_c, 7, 67, 127
2, 13917, Note_off_c, 7, 67, 127
2, 13919, Note_on_c, 2, 74, 127
2, 13919, Note_on_c, 5, 65, 127
2, 13931, Note_off_c, 12, 71, 127
2, 14036, Note_off_c, 5, 65, 127
2, 14036, Note_off_c, 2, 74, 127
2, 14038, Note_on_c, 0, 72, 127
2, 14038, Note_on_c, 4, 64, 127
2, 14156, Note_off_c, 4, 64, 127
2, 14156, Note_off_c, 0, 72, 127
2, 14158, Note_on_c, 12, 71, 127
2, 14158, Note_on_c, 2, 62, 127
2, 14276, Note_off_c, 2, 62, 127
2, 14276, Note_off_c, 12, 71, 127
2, 14278, Note_on_c, 2, 74, 127
2, 14278, Note_on_c, 5, 65, 127
2, 14396, Note_off_c, 5, 65, 127
2, 14396, Note_off_c, 2, 74, 127
2, 14398, Note_off_c, 7, 55, 127
2, 14398, Note_on_c, 4, 64, 127
2, 14398, Note_on_c, 0, 72, 127
2, 14516, Note_off_c, 0, 72, 127
2, 14516, Note_off_c, 4, 64, 127
2, 14518, Note_on_c, 0, 72, 127
2, 14518, Note_on_c, 4, 64, 127
2, 14518, Note_on_c, 0, 60, 127
2, 14756, Note_off_c, 4, 64, 127
2, 14758, Note_on_c, 4, 64, 127
2, 14996, Note_off_c, 4, 64, 127
2, 14998, Note_on_c, 7, 67, 127
2, 15218, Note_off_c, 0, 72, 127
2, 15238, Note_on_c, 0, 72, 127
2, 15473, Note_off_c, 7, 67, 127
2, 15475, Note_off_c, 0, 72, 127
2, 15477, Note_on_c, 2, 74, 127
2, 15717, Note_on_c, 5, 65, 127
2, 15955, Note_off_c, 5, 65, 127
2, 15957, Note_on_c, 12, 71, 127
2, 16177, Note_off_c, 2, 74, 127
2, 16197, Note_on_c, 2, 74, 127
2, 16432, Note_off_c, 12, 71, 127
2, 16434, Note_off_c, 2, 74, 127
2, 16436, Note_on_c, 4, 76, 127
2, 16676, Note_on_c, 7, 67, 127
2, 16916, Note_on_c, 0, 72, 127
2, 17136, Note_off_c, 4, 76, 127
2, 17156, Note_on_c, 2, 74, 127
2, 17391, Note_off_c, 0, 72, 127
2, 17393, Note_off_c, 2, 74, 127
2, 17395, Note_on_c, 4, 76, 127
2, 17505, Note_off_c, 7, 67, 127
2, 17515, Note_on_c, 7, 67, 127
2, 17633, Note_off_c, 7, 67, 127
2, 17635, Note_on_c, 10, 69, 127
2, 17753, Note_off_c, 10, 69, 127
2, 17755, Note_on_c, 12, 71, 127
2, 17873, Note_off_c, 12, 71, 127
2, 17875, Note_on_c, 0, 72, 127
2, 17993, Note_off_c, 0, 72, 127
2, 17995, Note_on_c, 12, 71, 127
2, 18113, Note_off_c, 12, 71, 127
2, 18115, Note_on_c, 2, 74, 127
2, 18233, Note_off_c, 2, 74, 127
2, 18235, Note_on_c, 8, 68, 127
2, 18340, Note_off_c, 0, 60, 127
2, 18352, Note_off_c, 8, 68, 127
2, 18354, Note_on_c, 0, 60, 127
2, 18354, Note_on_c, 10, 69, 127
2, 18459, Note_off_c, 4, 76, 127
2, 18474, Note_on_c, 4, 76, 127
2, 18592, Note_off_c, 4, 76, 127
2, 18594, Note_on_c, 6, 78, 127
2, 18712, Note_off_c, 6, 78, 127
2, 18714, Note_on_c, 8, 80, 127
2, 18832, Note_off_c, 8, 80, 127
2, 18834, Note_on_c, 10, 81, 127
2, 18952, Note_off_c, 10, 81, 127
2, 18954, Note_on_c, 12, 83, 127
2, 19072, Note_off_c, 12, 83, 127
2, 19074, Note_on_c, 0, 84, 127
2, 19192, Note_off_c, 0, 84, 127
2, 19194, Note_on_c, 12, 83, 127
2, 19312, Note_off_c, 12, 83, 127
2, 19314, Note_on_c, 10, 81, 127
2, 19432, Note_off_c, 10, 81, 127
2, 19434, Note_on_c, 7, 79, 127
2, 19552, Note_off_c, 7, 79, 127
2, 19554, Note_on_c, 6, 78, 127
2, 19672, Note_off_c, 6, 78, 127
2, 19674, Note_on_c, 7, 79, 127
2, 19792, Note_off_c, 7, 79, 127
2, 19794, Note_on_c, 4, 76, 127
2, 20032, Note_off_c, 4, 76, 127
2, 20034, Note_on_c, 7, 79, 127
2, 20152, Note_off_c, 7, 79, 127
2, 20154, Note_on_c, 6, 78, 127
2, 20272, Note_off_c, 6, 78, 127
2, 20274, Note_on_c, 6, 78, 127
2, 20389, Note_off_c, 10, 69, 127
2, 20394, Note_on_c, 12, 71, 127
2, 20512, Note_off_c, 12, 71, 127
2, 20514, Note_on_c, 0, 72, 127
2, 20632, Note_off_c, 0, 72, 127
2, 20634, Note_on_c, 12, 71, 127
2, 20752, Note_off_c, 12, 71, 127
2, 20754, Note_on_c, 10, 69, 127
2, 20872, Note_off_c, 10, 69, 127
2, 20874, Note_on_c, 7, 67, 127
2, 20992, Note_off_c, 7, 67, 127
2, 20994, Note_on_c, 6, 66, 127
2, 21112, Note_off_c, 6, 66, 127
2, 21114, Note_on_c, 4, 64, 127
2, 21232, Note_off_c, 4, 64, 127
2, 21234, Note_on_c, 2, 62, 127
2, 21244, Note_off_c, 0, 60, 127
2, 21352, Note_off_c, 2, 62, 127
2, 21354, Note_on_c, 0, 60, 127
2, 21472, Note_off_c, 0, 60, 127
2, 21474, Note_on_c, 12, 59, 127
2, 21592, Note_off_c, 12, 59, 127
2, 21594, Note_on_c, 0, 60, 127
2, 21712, Note_off_c, 0, 60, 127
2, 21714, Note_on_c, 10, 57, 127
2, 21952, Note_off_c, 10, 57, 127
2, 21954, Note_on_c, 0, 60, 127
2, 22072, Note_off_c, 0, 60, 127
2, 22074, Note_on_c, 12, 59, 127
2, 22192, Note_off_c, 12, 59, 127
2, 22192, Note_off_c, 6, 78, 127
2, 22194, Note_on_c, 12, 59, 127
2, 22314, Note_on_c, 2, 74, 127
2, 22432, Note_off_c, 2, 74, 127
2, 22434, Note_on_c, 4, 76, 127
2, 22552, Note_off_c, 4, 76, 127
2, 22554, Note_on_c, 6, 78, 127
2, 22672, Note_off_c, 6, 78, 127
2, 22674, Note_on_c, 7, 79, 127
2, 22674, Note_on_c, 2, 62, 127
2, 22792, Note_off_c, 7, 79, 127
2, 22794, Note_on_c, 10, 81, 127
2, 22912, Note_off_c, 10, 81, 127
2, 22914, Note_on_c, 12, 83, 127
2, 23032, Note_off_c, 12, 83, 127
2, 23034, Note_on_c, 10, 81, 127
2, 23152, Note_off_c, 10, 81, 127
2, 23154, Note_on_c, 7, 79, 127
2, 23154, Note_on_c, 7, 67, 127
2, 23272, Note_off_c, 7, 79, 127
2, 23274, Note_on_c, 5, 77, 127
2, 23392, Note_off_c, 5, 77, 127
2, 23394, Note_on_c, 4, 76, 127
2, 23512, Note_off_c, 4, 76, 127
2, 23514, Note_on_c, 2, 74, 127
2, 23632, Note_off_c, 2, 74, 127
2, 23634, Note_on_c, 0, 72, 127
2, 23752, Note_off_c, 0, 72, 127
2, 23754, Note_on_c, 12, 71, 127
2, 23872, Note_off_c, 12, 71, 127
2, 23874, Note_on_c, 2, 74, 127
2, 23992, Note_off_c, 2, 74, 127
2, 23994, Note_on_c, 0, 72, 127
2, 24112, Note_off_c, 0, 72, 127
2, 24112, Note_off_c, 2, 62, 127
2, 24112, Note_off_c, 12, 59, 127
2, 24114, Note_on_c, 0, 72, 127
2, 24114, Note_on_c, 10, 57, 127
2, 24219, Note_off_c, 7, 67, 127
2, 24234, Note_on_c, 10, 69, 127
2, 24352, Note_off_c, 10, 69, 127
2, 24354, Note_on_c, 7, 67, 127
2, 24472, Note_off_c, 7, 67, 127
2, 24474, Note_on_c, 5, 65, 127
2, 24592, Note_off_c, 5, 65, 127
2, 24594, Note_on_c, 4, 64, 127
2, 24712, Note_off_c, 4, 64, 127
2, 24714, Note_on_c, 2, 62, 127
2, 24832, Note_off_c, 2, 62, 127
2, 24834, Note_on_c, 0, 60, 127
2, 24952, Note_off_c, 0, 60, 127
2, 24954, Note_on_c, 12, 59, 127
2, 24972, Note_off_c, 10, 57, 127
2, 25072, Note_off_c, 12, 59, 127
2, 25074, Note_on_c, 10, 57, 127
2, 25194, Note_on_c, 12, 59, 127
2, 25312, Note_off_c, 12, 59, 127
2, 25314, Note_on_c, 0, 60, 127
2, 25432, Note_off_c, 0, 60, 127
2, 25434, Note_on_c, 2, 62, 127
2, 25552, Note_off_c, 2, 62, 127
2, 25554, Note_on_c, 4, 64, 127
2, 25672, Note_off_c, 4, 64, 127
2, 25674, Note_on_c, 6, 66, 127
2, 25792, Note_off_c, 6, 66, 127
2, 25794, Note_on_c, 7, 67, 127
2, 25912, Note_off_c, 7, 67, 127
2, 25914, Note_on_c, 10, 69, 127
2, 26024, Note_off_c, 10, 57, 127
2, 26032, Note_off_c, 10, 69, 127
2, 26034, Note_on_c, 2, 62, 127
2, 26034, Note_on_c, 6, 66, 127
2, 26379, Note_off_c, 0, 72, 127
2, 26394, Note_on_c, 2, 74, 127
2, 26512, Note_off_c, 2, 74, 127
2, 26514, Note_on_c, 0, 72, 127
2, 26632, Note_off_c, 0, 72, 127
2, 26634, Note_on_c, 12, 71, 127
2, 26752, Note_off_c, 12, 71, 127
2, 26754, Note_on_c, 10, 69, 127
2, 26872, Note_off_c, 10, 69, 127
2, 26874, Note_on_c, 12, 71, 127
2, 26992, Note_off_c, 12, 71, 127
2, 26994, Note_on_c, 0, 72, 127
2, 27096, Note_on_c, 2, 74, 127
2, 27098, Note_off_c, 0, 72, 127
2, 27198, Note_on_c, 0, 72, 127
2, 27200, Note_off_c, 2, 74, 127
2, 27302, Note_off_c, 0, 72, 127
2, 27302, Note_on_c, 2, 74, 127
2, 27402, Note_on_c, 4, 76, 127
2, 27407, Note_off_c, 2, 74, 127
2, 27472, Note_on_c, 2, 74, 127
2, 27474, Note_off_c, 4, 76, 127
2, 27589, Note_off_c, 2, 74, 127
2, 27591, Note_on_c, 0, 72, 127
2, 27709, Note_off_c, 0, 72, 127
2, 27711, Note_on_c, 12, 71, 127
2, 27829, Note_off_c, 12, 71, 127
2, 27831, Note_on_c, 0, 72, 127
2, 27949, Note_off_c, 0, 72, 127
2, 27949, Note_off_c, 6, 66, 127
2, 27949, Note_off_c, 2, 62, 127
2, 27951, Note_on_c, 12, 71, 127
2, 27951, Note_on_c, 7, 67, 127
2, 28311, Note_on_c, 7, 55, 127
2, 28429, Note_off_c, 7, 55, 127
2, 28431, Note_on_c, 5, 53, 127
2, 28549, Note_off_c, 5, 53, 127
2, 28551, Note_on_c, 4, 52, 127
2, 28669, Note_off_c, 4, 52, 127
2, 28671, Note_on_c, 2, 50, 127
2, 28789, Note_off_c, 2, 50, 127
2, 28791, Note_on_c, 4, 52, 127
2, 28909, Note_off_c, 4, 52, 127
2, 28911, Note_on_c, 5, 53, 127
2, 29029, Note_off_c, 5, 53, 127
2, 29031, Note_on_c, 7, 55, 127
2, 29149, Note_off_c, 7, 55, 127
2, 29151, Note_on_c, 5, 53, 127
2, 29226, Note_off_c, 5, 53, 127
2, 29236, Note_on_c, 5, 53, 127
2, 29311, Note_on_c, 10, 57, 127
2, 29316, Note_off_c, 5, 53, 127
2, 29391, Note_off_c, 10, 57, 127
2, 29391, Note_on_c, 7, 55, 127
2, 29509, Note_off_c, 7, 55, 127
2, 29511, Note_on_c, 5, 53, 127
2, 29629, Note_off_c, 5, 53, 127
2, 29631, Note_on_c, 4, 52, 127
2, 29749, Note_off_c, 4, 52, 127
2, 29751, Note_on_c, 5, 53, 127
2, 29869, Note_off_c, 5, 53, 127
2, 29869, Note_off_c, 7, 67, 127
2, 29869, Note_off_c, 12, 71, 127
2, 29871, Note_on_c, 4, 52, 127
2, 29991, Note_on_c, 0, 72, 127
2, 30109, Note_off_c, 0, 72, 127
2, 30111, Note_on_c, 12, 71, 127
2, 30229, Note_off_c, 12, 71, 127
2, 30231, Note_on_c, 10, 69, 127
2, 30349, Note_off_c, 10, 69, 127
2, 30351, Note_on_c, 7, 67, 127
2, 30469, Note_off_c, 7, 67, 127
2, 30471, Note_on_c, 5, 65, 127
2, 30589, Note_off_c, 5, 65, 127
2, 30591, Note_on_c, 4, 64, 127
2, 30709, Note_off_c, 4, 64, 127
2, 30711, Note_on_c, 5, 65, 127
2, 30829, Note_off_c, 5, 65, 127
2, 30831, Note_on_c, 7, 67, 127
2, 30949, Note_off_c, 7, 67, 127
2, 30951, Note_on_c, 4, 64, 127
2, 31069, Note_off_c, 4, 64, 127
2, 31071, Note_on_c, 5, 65, 127
2, 31189, Note_off_c, 5, 65, 127
2, 31191, Note_on_c, 7, 67, 127
2, 31309, Note_off_c, 7, 67, 127
2, 31311, Note_on_c, 7, 67, 127
2, 31431, Note_on_c, 0, 60, 127
2, 31661, Note_off_c, 7, 67, 127
2, 31671, Note_on_c, 11, 70, 127
2, 31781, Note_off_c, 0, 60, 127
2, 31789, Note_off_c, 11, 70, 127
2, 31789, Note_off_c, 4, 52, 127
2, 31791, Note_on_c, 10, 69, 127
2, 31791, Note_on_c, 5, 53, 127
2, 31911, Note_on_c, 10, 81, 127
2, 32029, Note_off_c, 10, 81, 127
2, 32029, Note_off_c, 10, 69, 127
2, 32031, Note_on_c, 7, 79, 127
2, 32149, Note_off_c, 7, 79, 127
2, 32151, Note_on_c, 5, 77, 127
2, 32269, Note_off_c, 5, 77, 127
2, 32271, Note_on_c, 4, 76, 127
2, 32389, Note_off_c, 4, 76, 127
2, 32391, Note_on_c, 2, 74, 127
2, 32509, Note_off_c, 2, 74, 127
2, 32511, Note_on_c, 1, 73, 127
2, 32629, Note_off_c, 1, 73, 127
2, 32631, Note_on_c, 2, 74, 127
2, 32749, Note_off_c, 2, 74, 127
2, 32749, Note_off_c, 5, 53, 127
2, 32751, Note_on_c, 4, 76, 127
2, 32751, Note_on_c, 1, 49, 127
2, 32871, Note_on_c, 1, 73, 127
2, 32989, Note_off_c, 1, 73, 127
2, 32989, Note_off_c, 4, 76, 127
2, 32991, Note_on_c, 2, 74, 127
2, 33109, Note_off_c, 2, 74, 127
2, 33111, Note_on_c, 4, 76, 127
2, 33229, Note_off_c, 4, 76, 127
2, 33231, Note_on_c, 4, 76, 127
2, 33351, Note_on_c, 10, 69, 127
2, 33591, Note_on_c, 7, 79, 127
2, 33706, Note_off_c, 4, 76, 127
2, 33708, Note_off_c, 7, 79, 127
2, 33708, Note_off_c, 1, 49, 127
2, 33710, Note_off_c, 10, 69, 127
2, 33710, Note_on_c, 6, 78, 127
2, 33710, Note_on_c, 2, 50, 127
2, 33830, Note_on_c, 2, 74, 127
2, 33948, Note_off_c, 2, 74, 127
2, 33950, Note_on_c, 0, 72, 127
2, 34068, Note_off_c, 0, 72, 127
2, 34070, Note_on_c, 12, 71, 127
2, 34188, Note_off_c, 12, 71, 127
2, 34190, Note_on_c, 10, 69, 127
2, 34308, Note_off_c, 10, 69, 127
2, 34310, Note_on_c, 7, 67, 127
2, 34428, Note_off_c, 7, 67, 127
2, 34430, Note_on_c, 6, 66, 127
2, 34548, Note_off_c, 6, 66, 127
2, 34550, Note_on_c, 7, 67, 127
2, 34660, Note_off_c, 6, 78, 127
2, 34668, Note_off_c, 7, 67, 127
2, 34670, Note_on_c, 10, 69, 127
2, 34788, Note_off_c, 10, 69, 127
2, 34790, Note_on_c, 6, 66, 127
2, 34908, Note_off_c, 6, 66, 127
2, 34910, Note_on_c, 7, 67, 127
2, 35028, Note_off_c, 7, 67, 127
2, 35030, Note_on_c, 10, 69, 127
2, 35148, Note_off_c, 10, 69, 127
2, 35150, Note_on_c, 10, 69, 127
2, 35270, Note_on_c, 2, 62, 127
2, 35510, Note_off_c, 10, 69, 127
2, 35510, Note_on_c, 0, 72, 127
2, 35628, Note_off_c, 0, 72, 127
2, 35628, Note_off_c, 2, 50, 127
2, 35630, Note_on_c, 12, 71, 127
2, 35630, Note_on_c, 7, 55, 127
2, 35745, Note_off_c, 2, 62, 127
2, 35750, Note_on_c, 7, 79, 127
2, 35868, Note_off_c, 7, 79, 127
2, 35870, Note_on_c, 5, 77, 127
2, 35988, Note_off_c, 5, 77, 127
2, 35990, Note_on_c, 4, 76, 127
2, 36108, Note_off_c, 4, 76, 127
2, 36110, Note_on_c, 2, 74, 127
2, 36228, Note_off_c, 2, 74, 127
2, 36228, Note_off_c, 12, 71, 127
2, 36230, Note_on_c, 0, 72, 127
2, 36348, Note_off_c, 0, 72, 127
2, 36350, Note_on_c, 12, 71, 127
2, 36468, Note_off_c, 12, 71, 127
2, 36470, Note_on_c, 0, 72, 127
2, 36588, Note_off_c, 0, 72, 127
2, 36590, Note_on_c, 2, 74, 127
2, 36710, Note_on_c, 12, 71, 127
2, 36828, Note_off_c, 12, 71, 127
2, 36828, Note_off_c, 2, 74, 127
2, 36830, Note_on_c, 0, 72, 127
2, 36948, Note_off_c, 0, 72, 127
2, 36950, Note_on_c, 2, 74, 127
2, 37068, Note_off_c, 2, 74, 127
2, 37070, Note_on_c, 2, 74, 127
2, 37190, Note_on_c, 7, 67, 127
2, 37420, Note_off_c, 2, 74, 127
2, 37430, Note_on_c, 5, 77, 127
2, 37548, Note_off_c, 5, 77, 127
2, 37548, Note_off_c, 7, 55, 127
2, 37550, Note_on_c, 4, 76, 127
2, 37550, Note_on_c, 0, 48, 127
2, 37772, Note_off_c, 7, 67, 127
2, 37790, Note_on_c, 7, 67, 127
2, 38012, Note_off_c, 0, 48, 127
2, 38014, Note_off_c, 7, 67, 127
2, 38029, Note_on_c, 0, 72, 127
2, 38029, Note_on_c, 10, 45, 127
2, 38249, Note_off_c, 4, 76, 127
2, 38269, Note_on_c, 10, 81, 127
2, 38469, Note_off_c, 10, 81, 127
2, 38491, Note_off_c, 10, 45, 127
2, 38509, Note_on_c, 5, 77, 127
2, 38509, Note_on_c, 2, 50, 127
2, 38729, Note_off_c, 0, 72, 127
2, 38749, Note_on_c, 10, 69, 127
2, 38971, Note_off_c, 2, 50, 127
2, 38973, Note_off_c, 10, 69, 127
2, 38988, Note_on_c, 12, 71, 127
2, 38988, Note_on_c, 7, 43, 127
2, 39208, Note_off_c, 5, 77, 127
2, 39228, Note_on_c, 2, 74, 127
2, 39428, Note_off_c, 2, 74, 127
2, 39450, Note_off_c, 7, 43, 127
2, 39468, Note_on_c, 4, 76, 127
2, 39468, Note_on_c, 0, 48, 127
2, 39688, Note_off_c, 12, 71, 127
2, 39708, Note_on_c, 8, 68, 127
2, 39930, Note_off_c, 0, 48, 127
2, 39932, Note_off_c, 8, 68, 127
2, 39947, Note_on_c, 10, 69, 127
2, 39947, Note_on_c, 5, 53, 127
2, 40167, Note_off_c, 4, 76, 127
2, 40187, Note_on_c, 5, 77, 127
2, 40387, Note_off_c, 5, 77, 127
2, 40409, Note_off_c, 5, 53, 127
2, 40427, Note_on_c, 2, 74, 127
2, 40427, Note_on_c, 12, 47, 127
2, 40647, Note_off_c, 10, 69, 127
2, 40667, Note_on_c, 6, 66, 127
2, 40889, Note_off_c, 12, 47, 127
2, 40891, Note_off_c, 6, 66, 127
2, 40906, Note_on_c, 8, 68, 127
2, 40906, Note_on_c, 4, 52, 127
2, 41126, Note_off_c, 2, 74, 127
2, 41146, Note_on_c, 12, 71, 127
2, 41346, Note_off_c, 12, 71, 127
2, 41368, Note_off_c, 4, 52, 127
2, 41380, Note_off_c, 8, 68, 127
2, 41385, Note_on_c, 0, 72, 127
2, 41385, Note_on_c, 10, 45, 127
2, 41625, Note_on_c, 4, 64, 127
2, 41847, Note_off_c, 10, 45, 127
2, 41849, Note_off_c, 4, 64, 127
2, 41864, Note_on_c, 10, 69, 127
2, 41864, Note_on_c, 10, 57, 127
2, 42084, Note_off_c, 0, 72, 127
2, 42104, Note_on_c, 2, 74, 127
2, 42304, Note_off_c, 2, 74, 127
2, 42339, Note_off_c, 10, 69, 127
2, 42344, Note_on_c, 11, 70, 127
2, 42584, Note_on_c, 2, 62, 127
2, 42809, Note_off_c, 2, 62, 127
2, 42821, Note_off_c, 10, 57, 127
2, 42823, Note_on_c, 4, 64, 127
2, 42823, Note_on_c, 7, 55, 127
2, 43043, Note_off_c, 11, 70, 127
2, 43063, Note_on_c, 11, 70, 127
2, 43285, Note_off_c, 11, 70, 127
2, 43297, Note_off_c, 4, 64, 127
2, 43299, Note_off_c, 7, 55, 127
2, 43301, Note_on_c, 5, 65, 127
2, 43301, Note_on_c, 10, 69, 127
2, 43301, Note_on_c, 5, 53, 127
2, 43419, Note_off_c, 10, 69, 127
2, 43421, Note_on_c, 11, 70, 127
2, 43539, Note_off_c, 11, 70, 127
2, 43541, Note_on_c, 0, 72, 127
2, 43659, Note_off_c, 0, 72, 127
2, 43661, Note_on_c, 2, 74, 127
2, 43779, Note_off_c, 2, 74, 127
2, 43781, Note_on_c, 0, 72, 127
2, 43899, Note_off_c, 0, 72, 127
2, 43901, Note_on_c, 11, 70, 127
2, 44019, Note_off_c, 11, 70, 127
2, 44021, Note_on_c, 10, 69, 127
2, 44126, Note_off_c, 5, 65, 127
2, 44138, Note_off_c, 10, 69, 127
2, 44140, Note_on_c, 7, 67, 127
2, 44258, Note_off_c, 7, 67, 127
2, 44260, Note_on_c, 5, 65, 127
2, 44380, Note_on_c, 7, 67, 127
2, 44498, Note_off_c, 7, 67, 127
2, 44500, Note_on_c, 10, 69, 127
2, 44618, Note_off_c, 10, 69, 127
2, 44620, Note_on_c, 11, 70, 127
2, 44738, Note_off_c, 11, 70, 127
2, 44740, Note_on_c, 10, 69, 127
2, 44858, Note_off_c, 10, 69, 127
2, 44860, Note_off_c, 5, 65, 127
2, 44860, Note_on_c, 7, 67, 127
2, 44978, Note_off_c, 7, 67, 127
2, 44980, Note_on_c, 5, 65, 127
2, 45098, Note_off_c, 5, 65, 127
2, 45100, Note_on_c, 4, 64, 127
2, 45218, Note_off_c, 4, 64, 127
2, 45218, Note_off_c, 5, 53, 127
2, 45220, Note_on_c, 0, 72, 127
2, 45220, Note_on_c, 2, 62, 127
2, 45220, Note_on_c, 6, 54, 127
2, 45338, Note_off_c, 0, 72, 127
2, 45340, Note_on_c, 2, 74, 127
2, 45458, Note_off_c, 2, 74, 127
2, 45460, Note_on_c, 4, 76, 127
2, 45578, Note_off_c, 4, 76, 127
2, 45580, Note_on_c, 5, 77, 127
2, 45698, Note_off_c, 5, 77, 127
2, 45700, Note_on_c, 4, 76, 127
2, 45818, Note_off_c, 4, 76, 127
2, 45820, Note_on_c, 2, 74, 127
2, 45938, Note_off_c, 2, 74, 127
2, 45940, Note_on_c, 0, 72, 127
2, 46058, Note_off_c, 0, 72, 127
2, 46060, Note_on_c, 12, 71, 127
2, 46178, Note_off_c, 12, 71, 127
2, 46180, Note_on_c, 10, 69, 127
2, 46298, Note_off_c, 10, 69, 127
2, 46300, Note_on_c, 12, 71, 127
2, 46418, Note_off_c, 12, 71, 127
2, 46420, Note_on_c, 0, 72, 127
2, 46538, Note_off_c, 0, 72, 127
2, 46540, Note_on_c, 2, 74, 127
2, 46658, Note_off_c, 2, 74, 127
2, 46660, Note_on_c, 0, 72, 127
2, 46778, Note_off_c, 0, 72, 127
2, 46780, Note_on_c, 12, 71, 127
2, 46898, Note_off_c, 12, 71, 127
2, 46900, Note_on_c, 10, 69, 127
2, 47018, Note_off_c, 10, 69, 127
2, 47020, Note_on_c, 7, 67, 127
2, 47138, Note_off_c, 7, 67, 127
2, 47140, Note_on_c, 6, 66, 127
2, 47258, Note_off_c, 6, 66, 127
2, 47260, Note_on_c, 7, 67, 127
2, 47378, Note_off_c, 7, 67, 127
2, 47380, Note_on_c, 10, 69, 127
2, 47498, Note_off_c, 10, 69, 127
2, 47500, Note_on_c, 12, 71, 127
2, 47618, Note_off_c, 12, 71, 127
2, 47620, Note_on_c, 10, 69, 127
2, 47738, Note_off_c, 10, 69, 127
2, 47740, Note_on_c, 7, 67, 127
2, 47858, Note_off_c, 7, 67, 127
2, 47860, Note_on_c, 6, 66, 127
2, 47970, Note_off_c, 2, 62, 127
2, 47978, Note_off_c, 6, 66, 127
2, 47980, Note_on_c, 4, 64, 127
2, 48098, Note_off_c, 4, 64, 127
2, 48100, Note_on_c, 2, 62, 127
2, 48218, Note_off_c, 2, 62, 127
2, 48220, Note_on_c, 4, 64, 127
2, 48338, Note_off_c, 4, 64, 127
2, 48340, Note_on_c, 6, 66, 127
2, 48458, Note_off_c, 6, 66, 127
2, 48460, Note_on_c, 7, 67, 127
2, 48578, Note_off_c, 7, 67, 127
2, 48580, Note_on_c, 6, 66, 127
2, 48698, Note_off_c, 6, 66, 127
2, 48700, Note_on_c, 4, 64, 127
2, 48818, Note_off_c, 4, 64, 127
2, 48820, Note_on_c, 2, 62, 127
2, 48938, Note_off_c, 2, 62, 127
2, 48940, Note_on_c, 0, 60, 127
2, 49058, Note_off_c, 0, 60, 127
2, 49058, Note_off_c, 6, 54, 127
2, 49060, Note_on_c, 12, 59, 127
2, 49060, Note_on_c, 7, 55, 127
2, 49178, Note_off_c, 12, 59, 127
2, 49180, Note_on_c, 0, 60, 127
2, 49298, Note_off_c, 0, 60, 127
2, 49300, Note_on_c, 2, 62, 127
2, 49418, Note_off_c, 2, 62, 127
2, 49420, Note_on_c, 4, 64, 127
2, 49538, Note_off_c, 4, 64, 127
2, 49540, Note_on_c, 2, 74, 127
2, 49540, Note_on_c, 2, 62, 127
2, 49658, Note_off_c, 2, 62, 127
2, 49660, Note_on_c, 0, 60, 127
2, 49778, Note_off_c, 0, 60, 127
2, 49780, Note_on_c, 12, 59, 127
2, 49898, Note_off_c, 12, 59, 127
2, 49900, Note_on_c, 10, 57, 127
2, 50010, Note_off_c, 7, 55, 127
2, 50018, Note_off_c, 10, 57, 127
2, 50018, Note_off_c, 2, 74, 127
2, 50020, Note_on_c, 12, 71, 127
2, 50020, Note_on_c, 7, 55, 127
2, 50138, Note_off_c, 7, 55, 127
2, 50140, Note_on_c, 10, 57, 127
2, 50258, Note_off_c, 10, 57, 127
2, 50260, Note_on_c, 12, 59, 127
2, 50378, Note_off_c, 12, 59, 127
2, 50380, Note_on_c, 0, 60, 127
2, 50498, Note_off_c, 0, 60, 127
2, 50500, Note_on_c, 2, 62, 127
2, 50500, Note_on_c, 12, 59, 127
2, 50618, Note_off_c, 12, 59, 127
2, 50620, Note_on_c, 10, 57, 127
2, 50738, Note_off_c, 10, 57, 127
2, 50740, Note_on_c, 7, 55, 127
2, 50858, Note_off_c, 7, 55, 127
2, 50860, Note_on_c, 5, 53, 127
2, 50970, Note_off_c, 12, 71, 127
2, 50978, Note_off_c, 5, 53, 127
2, 50978, Note_off_c, 2, 62, 127
2, 50980, Note_on_c, 7, 67, 127
2, 50980, Note_on_c, 4, 52, 127
2, 51098, Note_off_c, 4, 52, 127
2, 51100, Note_on_c, 5, 53, 127
2, 51218, Note_off_c, 5, 53, 127
2, 51220, Note_on_c, 7, 55, 127
2, 51338, Note_off_c, 7, 55, 127
2, 51340, Note_on_c, 10, 57, 127
2, 51458, Note_off_c, 10, 57, 127
2, 51460, Note_on_c, 7, 79, 127
2, 51460, Note_on_c, 7, 55, 127
2, 51578, Note_off_c, 7, 55, 127
2, 51580, Note_on_c, 5, 53, 127
2, 51698, Note_off_c, 5, 53, 127
2, 51700, Note_on_c, 4, 52, 127
2, 51818, Note_off_c, 4, 52, 127
2, 51820, Note_on_c, 2, 50, 127
2, 51930, Note_off_c, 7, 67, 127
2, 51938, Note_off_c, 2, 50, 127
2, 51938, Note_off_c, 7, 79, 127
2, 51940, Note_on_c, 4, 76, 127
2, 51940, Note_on_c, 0, 48, 127
2, 52058, Note_off_c, 0, 48, 127
2, 52060, Note_on_c, 2, 50, 127
2, 52178, Note_off_c, 2, 50, 127
2, 52180, Note_on_c, 4, 52, 127
2, 52298, Note_off_c, 4, 52, 127
2, 52300, Note_on_c, 5, 53, 127
2, 52418, Note_off_c, 5, 53, 127
2, 52420, Note_on_c, 7, 67, 127
2, 52420, Note_on_c, 4, 52, 127
2, 52538, Note_off_c, 4, 52, 127
2, 52540, Note_on_c, 2, 50, 127
2, 52658, Note_off_c, 2, 50, 127
2, 52660, Note_on_c, 0, 48, 127
2, 52778, Note_off_c, 0, 48, 127
2, 52780, Note_on_c, 12, 47, 127
2, 52898, Note_off_c, 12, 47, 127
2, 52898, Note_off_c, 7, 67, 127
2, 52900, Note_on_c, 0, 72, 127
2, 52900, Note_on_c, 10, 45, 127
2, 53018, Note_off_c, 10, 45, 127
2, 53020, Note_on_c, 12, 47, 127
2, 53138, Note_off_c, 12, 47, 127
2, 53140, Note_on_c, 0, 48, 127
2, 53258, Note_off_c, 0, 48, 127
2, 53260, Note_on_c, 2, 50, 127
2, 53378, Note_off_c, 2, 50, 127
2, 53378, Note_off_c, 4, 76, 127
2, 53380, Note_on_c, 10, 81, 127
2, 53380, Note_on_c, 0, 48, 127
2, 53498, Note_off_c, 0, 48, 127
2, 53500, Note_on_c, 12, 47, 127
2, 53618, Note_off_c, 12, 47, 127
2, 53620, Note_on_c, 10, 45, 127
2, 53738, Note_off_c, 10, 45, 127
2, 53740, Note_on_c, 7, 43, 127
2, 53858, Note_off_c, 7, 43, 127
2, 53858, Note_off_c, 10, 81, 127
2, 53860, Note_on_c, 2, 74, 127
2, 53860, Note_on_c, 5, 41, 127
2, 53978, Note_off_c, 5, 41, 127
2, 53980, Note_on_c, 7, 43, 127
2, 54098, Note_off_c, 7, 43, 127
2, 54100, Note_on_c, 10, 45, 127
2, 54218, Note_off_c, 10, 45, 127
2, 54220, Note_on_c, 12, 47, 127
2, 54338, Note_off_c, 12, 47, 127
2, 54338, Note_off_c, 0, 72, 127
2, 54340, Note_on_c, 0, 72, 127
2, 54340, Note_on_c, 10, 45, 127
2, 54458, Note_off_c, 10, 45, 127
2, 54460, Note_on_c, 7, 43, 127
2, 54578, Note_off_c, 7, 43, 127
2, 54580, Note_on_c, 5, 41, 127
2, 54698, Note_off_c, 5, 41, 127
2, 54700, Note_on_c, 4, 40, 127
2, 54818, Note_off_c, 4, 40, 127
2, 54818, Note_off_c, 0, 72, 127
2, 54820, Note_on_c, 5, 65, 127
2, 54820, Note_on_c, 2, 38, 127
2, 55060, Note_off_c, 2, 74, 127
2, 55060, Note_on_c, 4, 76, 127
2, 55298, Note_off_c, 4, 76, 127
2, 55300, Note_on_c, 2, 74, 127
2, 55538, Note_off_c, 2, 74, 127
2, 55540, Note_on_c, 4, 76, 127
2, 55658, Note_off_c, 4, 76, 127
2, 55660, Note_on_c, 5, 77, 127
2, 55778, Note_off_c, 5, 77, 127
2, 55778, Note_off_c, 2, 38, 127
2, 55780, Note_on_c, 0, 72, 127
2, 55780, Note_on_c, 7, 43, 127
2, 55940, Note_off_c, 0, 72, 127
2, 55940, Note_on_c, 12, 71, 127
2, 56020, Note_off_c, 12, 71, 127
2, 56020, Note_on_c, 0, 72, 127
2, 56100, Note_off_c, 0, 72, 127
2, 56100, Note_on_c, 12, 71, 127
2, 56180, Note_off_c, 12, 71, 127
2, 56180, Note_on_c, 0, 72, 127
2, 56260, Note_off_c, 0, 72, 127
2, 56260, Note_on_c, 12, 71, 127
2, 56500, Note_off_c, 12, 71, 127
2, 56500, Note_on_c, 0, 72, 127
2, 56738, Note_off_c, 0, 72, 127
2, 56738, Note_off_c, 7, 43, 127
2, 56740, Note_on_c, 0, 72, 127
2, 56740, Note_on_c, 0, 36, 127
2, 56970, Note_off_c, 5, 65, 127
2, 56980, Note_on_c, 5, 65, 127
2, 57218, Note_off_c, 5, 65, 127
2, 57220, Note_on_c, 4, 64, 127
2, 57440, Note_off_c, 0, 72, 127
2, 57460, Note_on_c, 11, 70, 127
2, 57698, Note_off_c, 11, 70, 127
2, 57700, Note_on_c, 10, 69, 127
2, 57920, Note_off_c, 4, 64, 127
2, 57940, Note_on_c, 7, 67, 127
2, 58178, Note_off_c, 7, 67, 127
2, 58180, Note_on_c, 5, 65, 127
2, 58418, Note_off_c, 5, 65, 127
2, 58420, Note_on_c, 4, 64, 127
2, 58658, Note_off_c, 4, 64, 127
2, 58660, Note_on_c, 5, 65, 127
2, 58900, Note_on_c, 4, 64, 127
2, 59138, Note_off_c, 4, 64, 127
2, 59140, Note_on_c, 2, 62, 127
2, 59378, Note_off_c, 2, 62, 127
2, 59380, Note_on_c, 0, 60, 127
2, 59610, Note_off_c, 5, 65, 127
2, 59618, Note_off_c, 0, 60, 127
2, 59620, Note_on_c, 12, 59, 127
2, 59620, Note_on_c, 2, 62, 127
2, 59850, Note_off_c, 10, 69, 127
2, 59860, Note_on_c, 10, 69, 127
2, 60098, Note_off_c, 10, 69, 127
2, 60116, Note_on_c, 7, 67, 127
2, 60364, Note_off_c, 7, 67, 127
2, 60372, Note_on_c, 5, 65, 127
2, 60602, Note_off_c, 2, 62, 127
2, 60602, Note_off_c, 12, 59, 127
2, 60623, Note_off_c, 5, 65, 127
2, 60644, Note_on_c, 4, 64, 127
2, 60644, Note_on_c, 0, 60, 127
2, 60644, Note_on_c, 7, 55, 127
2, 63940, Note_off_c, 0, 36, 127
2, 63974, Note_off_c, 7, 55, 127
2, 63979, Note_off_c, 0, 60, 127
2, 63979, Note_off_c, 4, 64, 127
2, 65282, Note_on_c, 4, 64, 127
2, 65424, Note_off_c, 4, 64, 127
2, 65426, Note_on_c, 5, 65, 127
2, 65568, Note_off_c, 5, 65, 127
2, 65570, Note_on_c, 7, 67, 127
2, 65856, Note_off_c, 7, 67, 127
2, 65858, Note_on_c, 7, 67, 127
2, 66144, Note_off_c, 7, 67, 127
2, 66146, Note_on_c, 7, 67, 127
2, 66432, Note_off_c, 7, 67, 127
2, 66434, Note_on_c, 7, 67, 127
2, 66576, Note_off_c, 7, 67, 127
2, 66578, Note_on_c, 10, 69, 127
2, 66720, Note_off_c, 10, 69, 127
2, 66722, Note_on_c, 7, 67, 127
2, 66864, Note_off_c, 7, 67, 127
2, 66866, Note_on_c, 5, 65, 127
2, 67008, Note_off_c, 5, 65, 127
2, 67010, Note_on_c, 4, 64, 127
2, 67152, Note_off_c, 4, 64, 127
2, 67154, Note_on_c, 2, 62, 127
2, 67296, Note_off_c, 2, 62, 127
2, 67298, Note_on_c, 0, 60, 127
2, 67440, Note_off_c, 0, 60, 127
2, 67442, Note_on_c, 7, 67, 127
2, 67584, Note_off_c, 7, 67, 127
2, 67586, Note_on_c, 5, 65, 127
2, 67728, Note_off_c, 5, 65, 127
2, 67730, Note_on_c, 7, 67, 127
2, 67872, Note_off_c, 7, 67, 127
2, 67874, Note_on_c, 10, 69, 127
2, 68016, Note_off_c, 10, 69, 127
2, 68018, Note_on_c, 7, 67, 127
2, 68160, Note_off_c, 7, 67, 127
2, 68162, Note_on_c, 5, 65, 127
2, 68304, Note_off_c, 5, 65, 127
2, 68306, Note_on_c, 4, 64, 127
2, 68448, Note_off_c, 4, 64, 127
2, 68450, Note_on_c, 2, 62, 127
2, 68592, Note_off_c, 2, 62, 127
2, 68594, Note_on_c, 10, 69, 127
2, 68736, Note_off_c, 10, 69, 127
2, 68738, Note_on_c, 7, 67, 127
2, 68880, Note_off_c, 7, 67, 127
2, 68882, Note_on_c, 10, 69, 127
2, 69024, Note_off_c, 10, 69, 127
2, 69026, Note_on_c, 12, 71, 127
2, 69168, Note_off_c, 12, 71, 127
2, 69170, Note_on_c, 10, 69, 127
2, 69312, Note_off_c, 10, 69, 127
2, 69314, Note_on_c, 7, 67, 127
2, 69456, Note_off_c, 7, 67, 127
2, 69458, Note_on_c, 5, 65, 127
2, 69600, Note_off_c, 5, 65, 127
2, 69602, Note_on_c, 4, 64, 127
2, 69744, Note_off_c, 4, 64, 127
2, 69746, Note_on_c, 12, 71, 127
2, 69888, Note_off_c, 12, 71, 127
2, 69890, Note_on_c, 10, 69, 127
2, 70032, Note_off_c, 10, 69, 127
2, 70034, Note_on_c, 12, 71, 127
2, 70176, Note_off_c, 12, 71, 127
2, 70178, Note_on_c, 0, 72, 127
2, 70464, Note_off_c, 0, 72, 127
2, 70466, Note_on_c, 12, 71, 127
2, 70608, Note_off_c, 12, 71, 127
2, 70610, Note_on_c, 10, 69, 127
2, 70752, Note_off_c, 10, 69, 127
2, 70754, Note_on_c, 7, 67, 127
2, 70896, Note_off_c, 7, 67, 127
2, 70898, Note_on_c, 10, 69, 127
2, 71040, Note_off_c, 10, 69, 127
2, 71042, Note_on_c, 5, 65, 127
2, 71042, Note_on_c, 12, 71, 127
2, 71184, Note_off_c, 5, 65, 127
2, 71186, Note_on_c, 7, 67, 127
2, 71328, Note_off_c, 7, 67, 127
2, 71328, Note_off_c, 12, 71, 127
2, 71330, Note_on_c, 4, 64, 127
2, 71330, Note_on_c, 0, 72, 127
2, 71472, Note_off_c, 4, 64, 127
2, 71474, Note_on_c, 5, 65, 127
2, 71616, Note_off_c, 5, 65, 127
2, 71616, Note_off_c, 0, 72, 127
2, 71618, Note_on_c, 2, 62, 127
2, 71618, Note_on_c, 0, 72, 127
2, 71760, Note_off_c, 2, 62, 127
2, 71762, Note_on_c, 5, 65, 127
2, 71904, Note_off_c, 5, 65, 127
2, 71904, Note_off_c, 0, 72, 127
2, 71906, Note_on_c, 4, 64, 127
2, 71906, Note_on_c, 0, 72, 127
2, 72048, Note_off_c, 4, 64, 127
2, 72050, Note_on_c, 2, 62, 127
2, 72192, Note_off_c, 2, 62, 127
2, 72192, Note_off_c, 0, 72, 127
2, 72194, Note_on_c, 4, 64, 127
2, 72194, Note_on_c, 0, 72, 127
2, 72336, Note_off_c, 0, 72, 127
2, 72336, Note_off_c, 4, 64, 127
2, 72338, Note_on_c, 0, 60, 127
2, 72338, Note_on_c, 4, 76, 127
2, 72480, Note_off_c, 4, 76, 127
2, 72480, Note_off_c, 0, 60, 127
2, 72482, Note_on_c, 7, 67, 127
2, 72482, Note_on_c, 2, 74, 127
2, 72624, Note_off_c, 2, 74, 127
2, 72626, Note_on_c, 0, 72, 127
2, 72768, Note_off_c, 0, 72, 127
2, 72768, Note_off_c, 7, 67, 127
2, 72770, Note_on_c, 7, 55, 127
2, 72770, Note_on_c, 12, 71, 127
2, 72912, Note_off_c, 12, 71, 127
2, 72914, Note_on_c, 10, 69, 127
2, 73056, Note_off_c, 10, 69, 127
2, 73058, Note_on_c, 7, 67, 127
2, 73190, Note_off_c, 7, 55, 127
2, 73200, Note_off_c, 7, 67, 127
2, 73202, Note_on_c, 2, 74, 127
2, 73344, Note_off_c, 2, 74, 127
2, 73346, Note_on_c, 12, 59, 127
2, 73346, Note_on_c, 0, 72, 127
2, 73488, Note_off_c, 0, 72, 127
2, 73490, Note_on_c, 2, 74, 127
2, 73632, Note_off_c, 2, 74, 127
2, 73632, Note_off_c, 12, 59, 127
2, 73634, Note_on_c, 0, 60, 127
2, 73634, Note_on_c, 4, 76, 127
2, 73776, Note_off_c, 4, 76, 127
2, 73778, Note_on_c, 2, 74, 127
2, 73920, Note_off_c, 2, 74, 127
2, 73922, Note_on_c, 0, 72, 127
2, 74064, Note_off_c, 0, 72, 127
2, 74066, Note_on_c, 12, 71, 127
2, 74208, Note_off_c, 12, 71, 127
2, 74210, Note_on_c, 10, 69, 127
2, 74352, Note_off_c, 10, 69, 127
2, 74354, Note_off_c, 0, 60, 127
2, 74354, Note_on_c, 4, 76, 127
2, 74496, Note_off_c, 4, 76, 127
2, 74498, Note_on_c, 0, 60, 127
2, 74498, Note_on_c, 2, 74, 127
2, 74640, Note_off_c, 2, 74, 127
2, 74642, Note_on_c, 4, 76, 127
2, 74784, Note_off_c, 4, 76, 127
2, 74784, Note_off_c, 0, 60, 127
2, 74786, Note_on_c, 2, 62, 127
2, 74786, Note_on_c, 6, 78, 127
2, 74928, Note_off_c, 6, 78, 127
2, 74930, Note_on_c, 4, 76, 127
2, 75072, Note_off_c, 4, 76, 127
2, 75074, Note_on_c, 2, 74, 127
2, 75216, Note_off_c, 2, 74, 127
2, 75218, Note_on_c, 0, 72, 127
2, 75360, Note_off_c, 0, 72, 127
2, 75362, Note_on_c, 12, 71, 127
2, 75504, Note_off_c, 12, 71, 127
2, 75506, Note_off_c, 2, 62, 127
2, 75506, Note_on_c, 6, 78, 127
2, 75648, Note_off_c, 6, 78, 127
2, 75650, Note_on_c, 2, 62, 127
2, 75650, Note_on_c, 4, 76, 127
2, 75792, Note_off_c, 4, 76, 127
2, 75794, Note_on_c, 6, 78, 127
2, 75936, Note_off_c, 6, 78, 127
2, 75936, Note_off_c, 2, 62, 127
2, 75938, Note_on_c, 4, 64, 127
2, 75938, Note_on_c, 7, 79, 127
2, 76224, Note_off_c, 7, 79, 127
2, 76226, Note_on_c, 6, 78, 127
2, 76368, Note_off_c, 6, 78, 127
2, 76370, Note_on_c, 4, 76, 127
2, 76508, Note_off_c, 4, 64, 127
2, 76512, Note_off_c, 4, 76, 127
2, 76514, Note_on_c, 2, 74, 127
2, 76656, Note_off_c, 2, 74, 127
2, 76658, Note_on_c, 4, 76, 127
2, 76800, Note_off_c, 4, 76, 127
2, 76802, Note_on_c, 4, 52, 127
2, 76802, Note_on_c, 4, 64, 127
2, 76802, Note_on_c, 0, 72, 127
2, 76944, Note_off_c, 0, 72, 127
2, 76944, Note_off_c, 4, 52, 127
2, 76946, Note_on_c, 6, 54, 127
2, 76946, Note_on_c, 2, 74, 127
2, 77088, Note_off_c, 2, 74, 127
2, 77088, Note_off_c, 6, 54, 127
2, 77088, Note_off_c, 4, 64, 127
2, 77090, Note_on_c, 7, 55, 127
2, 77090, Note_on_c, 2, 62, 127
2, 77090, Note_on_c, 12, 71, 127
2, 77232, Note_off_c, 12, 71, 127
2, 77234, Note_on_c, 0, 72, 127
2, 77376, Note_off_c, 0, 72, 127
2, 77376, Note_off_c, 2, 62, 127
2, 77376, Note_off_c, 7, 55, 127
2, 77378, Note_on_c, 7, 55, 127
2, 77378, Note_on_c, 0, 60, 127
2, 77378, Note_on_c, 10, 69, 127
2, 77520, Note_off_c, 10, 69, 127
2, 77522, Note_on_c, 0, 72, 127
2, 77664, Note_off_c, 0, 72, 127
2, 77664, Note_off_c, 0, 60, 127
2, 77664, Note_off_c, 7, 55, 127
2, 77666, Note_on_c, 7, 55, 127
2, 77666, Note_on_c, 2, 62, 127
2, 77666, Note_on_c, 12, 71, 127
2, 77808, Note_off_c, 12, 71, 127
2, 77810, Note_on_c, 10, 69, 127
2, 77952, Note_off_c, 10, 69, 127
2, 77952, Note_off_c, 7, 55, 127
2, 77954, Note_on_c, 7, 55, 127
2, 77954, Note_on_c, 12, 71, 127
2, 78096, Note_off_c, 12, 71, 127
2, 78096, Note_off_c, 7, 55, 127
2, 78098, Note_on_c, 10, 57, 127
2, 78098, Note_on_c, 7, 67, 127
2, 78236, Note_off_c, 2, 62, 127
2, 78240, Note_off_c, 7, 67, 127
2, 78240, Note_off_c, 10, 57, 127
2, 78242, Note_on_c, 7, 55, 127
2, 78242, Note_on_c, 4, 76, 127
2, 78384, Note_off_c, 7, 55, 127
2, 78386, Note_on_c, 5, 53, 127
2, 78528, Note_off_c, 5, 53, 127
2, 78530, Note_on_c, 4, 52, 127
2, 78530, Note_on_c, 7, 67, 127
2, 78672, Note_off_c, 4, 52, 127
2, 78674, Note_on_c, 2, 50, 127
2, 78816, Note_off_c, 2, 50, 127
2, 78816, Note_off_c, 7, 67, 127
2, 78818, Note_on_c, 0, 48, 127
2, 78818, Note_on_c, 0, 72, 127
2, 78960, Note_off_c, 0, 48, 127
2, 78962, Note_off_c, 4, 76, 127
2, 78962, Note_on_c, 7, 55, 127
2, 79104, Note_off_c, 7, 55, 127
2, 79106, Note_on_c, 5, 53, 127
2, 79106, Note_on_c, 4, 76, 127
2, 79248, Note_off_c, 5, 53, 127
2, 79250, Note_on_c, 7, 55, 127
2, 79392, Note_off_c, 7, 55, 127
2, 79392, Note_off_c, 4, 76, 127
2, 79394, Note_on_c, 10, 57, 127
2, 79394, Note_on_c, 5, 77, 127
2, 79536, Note_off_c, 10, 57, 127
2, 79538, Note_off_c, 0, 72, 127
2, 79538, Note_on_c, 7, 55, 127
2, 79680, Note_off_c, 7, 55, 127
2, 79682, Note_on_c, 5, 53, 127
2, 79682, Note_on_c, 10, 69, 127
2, 79824, Note_off_c, 5, 53, 127
2, 79826, Note_on_c, 4, 52, 127
2, 79968, Note_off_c, 4, 52, 127
2, 79968, Note_off_c, 10, 69, 127
2, 79970, Note_on_c, 2, 50, 127
2, 79970, Note_on_c, 2, 74, 127
2, 80112, Note_off_c, 2, 50, 127
2, 80114, Note_off_c, 5, 77, 127
2, 80114, Note_on_c, 10, 57, 127
2, 80256, Note_off_c, 10, 57, 127
2, 80258, Note_on_c, 7, 55, 127
2, 80258, Note_on_c, 5, 77, 127
2, 80400, Note_off_c, 7, 55, 127
2, 80402, Note_on_c, 10, 57, 127
2, 80544, Note_off_c, 10, 57, 127
2, 80544, Note_off_c, 5, 77, 127
2, 80546, Note_on_c, 12, 59, 127
2, 80546, Note_on_c, 7, 79, 127
2, 80688, Note_off_c, 12, 59, 127
2, 80690, Note_off_c, 2, 74, 127
2, 80690, Note_on_c, 10, 57, 127
2, 80832, Note_off_c, 10, 57, 127
2, 80834, Note_on_c, 7, 55, 127
2, 80834, Note_on_c, 12, 71, 127
2, 80976, Note_off_c, 7, 55, 127
2, 80978, Note_on_c, 5, 53, 127
2, 81120, Note_off_c, 5, 53, 127
2, 81120, Note_off_c, 12, 71, 127
2, 81122, Note_on_c, 4, 52, 127
2, 81122, Note_on_c, 4, 76, 127
2, 81264, Note_off_c, 4, 52, 127
2, 81266, Note_off_c, 7, 79, 127
2, 81266, Note_on_c, 12, 59, 127
2, 81408, Note_off_c, 12, 59, 127
2, 81410, Note_on_c, 10, 57, 127
2, 81410, Note_on_c, 7, 79, 127
2, 81552, Note_off_c, 10, 57, 127
2, 81554, Note_on_c, 12, 59, 127
2, 81696, Note_off_c, 12, 59, 127
2, 81696, Note_off_c, 7, 79, 127
2, 81698, Note_on_c, 0, 60, 127
2, 81698, Note_on_c, 10, 81, 127
2, 81984, Note_off_c, 0, 60, 127
2, 81984, Note_off_c, 4, 76, 127
2, 81986, Note_on_c, 12, 59, 127
2, 81986, Note_on_c, 5, 77, 127
2, 82128, Note_off_c, 12, 59, 127
2, 82130, Note_on_c, 10, 57, 127
2, 82272, Note_off_c, 10, 57, 127
2, 82272, Note_off_c, 5, 77, 127
2, 82274, Note_on_c, 7, 55, 127
2, 82274, Note_on_c, 12, 71, 127
2, 82416, Note_off_c, 7, 55, 127
2, 82418, Note_off_c, 10, 81, 127
2, 82418, Note_on_c, 10, 57, 127
2, 82560, Note_off_c, 10, 57, 127
2, 82562, Note_on_c, 5, 53, 127
2, 82562, Note_on_c, 2, 74, 127
2, 82704, Note_off_c, 5, 53, 127
2, 82706, Note_on_c, 7, 55, 127
2, 82844, Note_off_c, 12, 71, 127
2, 82848, Note_off_c, 7, 55, 127
2, 82848, Note_off_c, 2, 74, 127
2, 82850, Note_on_c, 4, 52, 127
2, 82850, Note_on_c, 7, 79, 127
2, 82992, Note_off_c, 4, 52, 127
2, 82994, Note_on_c, 5, 53, 127
2, 83136, Note_off_c, 5, 53, 127
2, 83138, Note_on_c, 2, 50, 127
2, 83138, Note_on_c, 12, 71, 127
2, 83280, Note_off_c, 2, 50, 127
2, 83282, Note_on_c, 5, 53, 127
2, 83424, Note_off_c, 5, 53, 127
2, 83424, Note_off_c, 12, 71, 127
2, 83426, Note_on_c, 4, 52, 127
2, 83426, Note_on_c, 0, 72, 127
2, 83568, Note_off_c, 4, 52, 127
2, 83570, Note_off_c, 7, 79, 127
2, 83570, Note_on_c, 2, 50, 127
2, 83712, Note_off_c, 2, 50, 127
2, 83712, Note_off_c, 0, 72, 127
2, 83714, Note_on_c, 4, 52, 127
2, 83714, Note_on_c, 11, 70, 127
2, 83714, Note_on_c, 7, 79, 127
2, 83856, Note_off_c, 4, 52, 127
2, 83858, Note_on_c, 0, 48, 127
2, 84000, Note_off_c, 0, 48, 127
2, 84000, Note_off_c, 7, 79, 127
2, 84000, Note_off_c, 11, 70, 127
2, 84002, Note_on_c, 5, 53, 127
2, 84002, Note_on_c, 0, 72, 127
2, 84002, Note_on_c, 10, 81, 127
2, 84144, Note_off_c, 5, 53, 127
2, 84146, Note_on_c, 7, 55, 127
2, 84288, Note_off_c, 7, 55, 127
2, 84288, Note_off_c, 10, 81, 127
2, 84290, Note_on_c, 4, 52, 127
2, 84290, Note_on_c, 7, 79, 127
2, 84432, Note_off_c, 4, 52, 127
2, 84434, Note_on_c, 7, 55, 127
2, 84576, Note_off_c, 7, 55, 127
2, 84576, Note_off_c, 7, 79, 127
2, 84576, Note_off_c, 0, 72, 127
2, 84578, Note_on_c, 5, 53, 127
2, 84578, Note_on_c, 2, 74, 127
2, 84578, Note_on_c, 5, 77, 127
2, 84720, Note_off_c, 5, 53, 127
2, 84722, Note_on_c, 4, 52, 127
2, 84864, Note_off_c, 4, 52, 127
2, 84864, Note_off_c, 5, 77, 127
2, 84864, Note_off_c, 2, 74, 127
2, 84866, Note_on_c, 5, 53, 127
2, 84866, Note_on_c, 0, 72, 127
2, 84866, Note_on_c, 4, 76, 127
2, 85008, Note_off_c, 5, 53, 127
2, 85010, Note_on_c, 2, 50, 127
2, 85152, Note_off_c, 2, 50, 127
2, 85152, Note_off_c, 4, 76, 127
2, 85152, Note_off_c, 0, 72, 127
2, 85154, Note_on_c, 7, 55, 127
2, 85154, Note_on_c, 12, 71, 127
2, 85154, Note_on_c, 2, 74, 127
2, 85296, Note_off_c, 12, 71, 127
2, 85298, Note_on_c, 0, 72, 127
2, 85440, Note_off_c, 0, 72, 127
2, 85440, Note_off_c, 7, 55, 127
2, 85442, Note_on_c, 7, 43, 127
2, 85442, Note_on_c, 10, 69, 127
2, 85584, Note_off_c, 10, 69, 127
2, 85586, Note_on_c, 0, 72, 127
2, 85724, Note_off_c, 2, 74, 127
2, 85728, Note_off_c, 0, 72, 127
2, 85728, Note_off_c, 7, 43, 127
2, 85730, Note_on_c, 7, 55, 127
2, 85730, Note_on_c, 12, 71, 127
2, 85872, Note_off_c, 12, 71, 127
2, 85874, Note_on_c, 10, 69, 127
2, 86016, Note_off_c, 10, 69, 127
2, 86016, Note_off_c, 7, 55, 127
2, 86018, Note_on_c, 5, 53, 127
2, 86018, Note_on_c, 12, 71, 127
2, 86160, Note_off_c, 12, 71, 127
2, 86162, Note_on_c, 7, 67, 127
2, 86304, Note_off_c, 7, 67, 127
2, 86304, Note_off_c, 5, 53, 127
2, 86306, Note_on_c, 4, 52, 127
2, 86306, Note_on_c, 0, 72, 127
2, 86448, Note_off_c, 4, 52, 127
2, 86450, Note_on_c, 5, 53, 127
2, 86592, Note_off_c, 5, 53, 127
2, 86594, Note_on_c, 2, 50, 127
2, 86594, Note_on_c, 0, 60, 127
2, 86736, Note_off_c, 2, 50, 127
2, 86738, Note_on_c, 5, 53, 127
2, 86876, Note_off_c, 0, 72, 127
2, 86880, Note_off_c, 5, 53, 127
2, 86882, Note_on_c, 4, 52, 127
2, 86882, Note_on_c, 0, 72, 127
2, 86984, Note_off_c, 0, 60, 127
2, 87024, Note_off_c, 4, 52, 127
2, 87026, Note_on_c, 2, 50, 127
2, 87168, Note_off_c, 2, 50, 127
2, 87168, Note_off_c, 0, 72, 127
2, 87170, Note_on_c, 4, 52, 127
2, 87170, Note_on_c, 11, 70, 127
2, 87312, Note_off_c, 4, 52, 127
2, 87314, Note_on_c, 0, 48, 127
2, 87456, Note_off_c, 0, 48, 127
2, 87456, Note_off_c, 11, 70, 127
2, 87458, Note_on_c, 5, 53, 127
2, 87458, Note_on_c, 10, 69, 127
2, 87600, Note_off_c, 10, 69, 127
2, 87602, Note_on_c, 11, 70, 127
2, 87744, Note_off_c, 11, 70, 127
2, 87744, Note_off_c, 5, 53, 127
2, 87746, Note_on_c, 4, 52, 127
2, 87746, Note_on_c, 7, 67, 127
2, 87888, Note_off_c, 7, 67, 127
2, 87890, Note_on_c, 11, 70, 127
2, 88032, Note_off_c, 11, 70, 127
2, 88032, Note_off_c, 4, 52, 127
2, 88034, Note_on_c, 5, 53, 127
2, 88034, Note_on_c, 10, 69, 127
2, 88176, Note_off_c, 10, 69, 127
2, 88178, Note_on_c, 7, 67, 127
2, 88320, Note_off_c, 7, 67, 127
2, 88320, Note_off_c, 5, 53, 127
2, 88322, Note_on_c, 0, 48, 127
2, 88322, Note_on_c, 10, 69, 127
2, 88464, Note_off_c, 10, 69, 127
2, 88466, Note_on_c, 4, 64, 127
2, 88608, Note_off_c, 4, 64, 127
2, 88608, Note_off_c, 0, 48, 127
2, 88610, Note_on_c, 2, 50, 127
2, 88610, Note_on_c, 5, 65, 127
2, 88752, Note_off_c, 5, 65, 127
2, 88754, Note_on_c, 7, 67, 127
2, 88896, Note_off_c, 7, 67, 127
2, 88896, Note_off_c, 2, 50, 127
2, 88898, Note_on_c, 0, 48, 127
2, 88898, Note_on_c, 4, 64, 127
2, 89040, Note_off_c, 4, 64, 127
2, 89042, Note_on_c, 7, 67, 127
2, 89184, Note_off_c, 7, 67, 127
2, 89184, Note_off_c, 0, 48, 127
2, 89186, Note_on_c, 2, 50, 127
2, 89186, Note_on_c, 5, 65, 127
2, 89328, Note_off_c, 5, 65, 127
2, 89330, Note_on_c, 4, 64, 127
2, 89472, Note_off_c, 4, 64, 127
2, 89472, Note_off_c, 2, 50, 127
2, 89474, Note_on_c, 10, 45, 127
2, 89474, Note_on_c, 5, 65, 127
2, 89616, Note_off_c, 5, 65, 127
2, 89618, Note_on_c, 0, 60, 127
2, 89760, Note_off_c, 0, 60, 127
2, 89760, Note_off_c, 10, 45, 127
2, 89762, Note_on_c, 12, 47, 127
2, 89762, Note_on_c, 2, 62, 127
2, 89904, Note_off_c, 2, 62, 127
2, 89906, Note_on_c, 10, 57, 127
2, 90048, Note_off_c, 10, 57, 127
2, 90050, Note_on_c, 7, 55, 127
2, 90192, Note_off_c, 7, 55, 127
2, 90194, Note_on_c, 5, 53, 127
2, 90336, Note_off_c, 5, 53, 127
2, 90336, Note_off_c, 12, 47, 127
2, 90338, Note_on_c, 0, 48, 127
2, 90338, Note_on_c, 4, 52, 127
2, 90480, Note_off_c, 4, 52, 127
2, 90482, Note_on_c, 7, 55, 127
2, 90624, Note_off_c, 7, 55, 127
2, 90626, Note_on_c, 0, 60, 127
2, 90626, Note_on_c, 4, 76, 127
2, 90768, Note_off_c, 4, 76, 127
2, 90768, Note_off_c, 0, 48, 127
2, 90770, Note_on_c, 2, 50, 127
2, 90770, Note_on_c, 5, 77, 127
2, 90912, Note_off_c, 5, 77, 127
2, 90912, Note_off_c, 2, 50, 127
2, 90914, Note_on_c, 4, 52, 127
2, 90914, Note_on_c, 7, 79, 127
2, 91056, Note_off_c, 4, 52, 127
2, 91058, Note_on_c, 5, 53, 127
2, 91200, Note_off_c, 5, 53, 127
2, 91200, Note_off_c, 7, 79, 127
2, 91202, Note_on_c, 2, 50, 127
2, 91202, Note_on_c, 7, 79, 127
2, 91344, Note_off_c, 2, 50, 127
2, 91346, Note_on_c, 5, 53, 127
2, 91488, Note_off_c, 5, 53, 127
2, 91488, Note_off_c, 7, 79, 127
2, 91490, Note_on_c, 4, 52, 127
2, 91490, Note_on_c, 7, 79, 127
2, 91632, Note_off_c, 4, 52, 127
2, 91634, Note_on_c, 2, 50, 127
2, 91776, Note_off_c, 2, 50, 127
2, 91776, Note_off_c, 7, 79, 127
2, 91778, Note_on_c, 4, 52, 127
2, 91778, Note_on_c, 7, 79, 127
2, 91920, Note_off_c, 7, 79, 127
2, 91920, Note_off_c, 4, 52, 127
2, 91922, Note_on_c, 0, 48, 127
2, 91922, Note_on_c, 10, 81, 127
2, 92064, Note_off_c, 10, 81, 127
2, 92064, Note_off_c, 0, 48, 127
2, 92066, Note_on_c, 7, 55, 127
2, 92066, Note_on_c, 7, 79, 127
2, 92208, Note_off_c, 7, 79, 127
2, 92210, Note_on_c, 5, 77, 127
2, 92352, Note_off_c, 5, 77, 127
2, 92352, Note_off_c, 0, 60, 127
2, 92354, Note_on_c, 12, 59, 127
2, 92354, Note_on_c, 4, 76, 127
2, 92496, Note_off_c, 4, 76, 127
2, 92498, Note_on_c, 2, 74, 127
2, 92639, Note_off_c, 12, 59, 127
2, 92641, Note_off_c, 2, 74, 127
2, 92641, Note_off_c, 7, 55, 127
2, 92643, Note_on_c, 10, 57, 127
2, 92643, Note_on_c, 0, 72, 127
2, 92785, Note_off_c, 0, 72, 127
2, 92787, Note_on_c, 7, 79, 127
2, 92929, Note_off_c, 7, 79, 127
2, 92931, Note_on_c, 4, 64, 127
2, 92931, Note_on_c, 5, 77, 127
2, 93073, Note_off_c, 5, 77, 127
2, 93075, Note_on_c, 7, 79, 127
2, 93217, Note_off_c, 7, 79, 127
2, 93217, Note_off_c, 4, 64, 127
2, 93219, Note_on_c, 5, 65, 127
2, 93219, Note_on_c, 10, 81, 127
2, 93361, Note_off_c, 10, 81, 127
2, 93363, Note_off_c, 10, 57, 127
2, 93363, Note_on_c, 7, 79, 127
2, 93505, Note_off_c, 7, 79, 127
2, 93507, Note_on_c, 10, 57, 127
2, 93507, Note_on_c, 5, 77, 127
2, 93649, Note_off_c, 5, 77, 127
2, 93651, Note_on_c, 4, 76, 127
2, 93793, Note_off_c, 4, 76, 127
2, 93793, Note_off_c, 10, 57, 127
2, 93795, Note_on_c, 12, 59, 127
2, 93795, Note_on_c, 2, 74, 127
2, 93937, Note_off_c, 2, 74, 127
2, 93939, Note_off_c, 5, 65, 127
2, 93939, Note_on_c, 10, 81, 127
2, 94081, Note_off_c, 10, 81, 127
2, 94083, Note_on_c, 6, 66, 127
2, 94083, Note_on_c, 7, 79, 127
2, 94225, Note_off_c, 7, 79, 127
2, 94227, Note_on_c, 10, 81, 127
2, 94369, Note_off_c, 10, 81, 127
2, 94369, Note_off_c, 6, 66, 127
2, 94371, Note_on_c, 7, 67, 127
2, 94371, Note_on_c, 12, 83, 127
2, 94513, Note_off_c, 12, 83, 127
2, 94515, Note_off_c, 12, 59, 127
2, 94515, Note_on_c, 10, 81, 127
2, 94657, Note_off_c, 10, 81, 127
2, 94659, Note_on_c, 12, 59, 127
2, 94659, Note_on_c, 7, 79, 127
2, 94801, Note_off_c, 7, 79, 127
2, 94803, Note_on_c, 5, 77, 127
2, 94945, Note_off_c, 5, 77, 127
2, 94945, Note_off_c, 12, 59, 127
2, 94947, Note_on_c, 0, 60, 127
2, 94947, Note_on_c, 4, 76, 127
2, 95089, Note_off_c, 4, 76, 127
2, 95091, Note_off_c, 7, 67, 127
2, 95091, Note_on_c, 12, 83, 127
2, 95233, Note_off_c, 12, 83, 127
2, 95235, Note_on_c, 8, 68, 127
2, 95235, Note_on_c, 10, 81, 127
2, 95377, Note_off_c, 10, 81, 127
2, 95379, Note_on_c, 12, 83, 127
2, 95521, Note_off_c, 12, 83, 127
2, 95521, Note_off_c, 8, 68, 127
2, 95523, Note_on_c, 10, 69, 127
2, 95523, Note_on_c, 0, 84, 127
2, 95667, Note_off_c, 0, 60, 127
2, 95809, Note_off_c, 0, 84, 127
2, 95811, Note_on_c, 10, 57, 127
2, 95811, Note_on_c, 12, 83, 127
2, 95953, Note_off_c, 12, 83, 127
2, 95955, Note_on_c, 10, 81, 127
2, 96097, Note_off_c, 10, 81, 127
2, 96097, Note_off_c, 10, 57, 127
2, 96097, Note_off_c, 10, 69, 127
2, 96099, Note_on_c, 12, 59, 127
2, 96099, Note_on_c, 2, 62, 127
2, 96099, Note_on_c, 7, 79, 127
2, 96241, Note_off_c, 7, 79, 127
2, 96243, Note_on_c, 10, 81, 127
2, 96385, Note_off_c, 10, 81, 127
2, 96385, Note_off_c, 12, 59, 127
2, 96387, Note_on_c, 10, 57, 127
2, 96387, Note_on_c, 5, 77, 127
2, 96529, Note_off_c, 5, 77, 127
2, 96531, Note_on_c, 7, 79, 127
2, 96673, Note_off_c, 7, 79, 127
2, 96673, Note_off_c, 10, 57, 127
2, 96675, Note_on_c, 7, 55, 127
2, 96675, Note_on_c, 4, 76, 127
2, 96817, Note_off_c, 4, 76, 127
2, 96819, Note_on_c, 5, 77, 127
2, 96961, Note_off_c, 5, 77, 127
2, 96961, Note_off_c, 7, 55, 127
2, 96963, Note_on_c, 4, 52, 127
2, 96963, Note_on_c, 2, 74, 127
2, 97105, Note_off_c, 2, 74, 127
2, 97107, Note_on_c, 5, 77, 127
2, 97249, Note_off_c, 5, 77, 127
2, 97249, Note_off_c, 4, 52, 127
2, 97249, Note_off_c, 2, 62, 127
2, 97251, Note_on_c, 10, 57, 127
2, 97251, Note_on_c, 0, 60, 127
2, 97251, Note_on_c, 4, 76, 127
2, 97393, Note_off_c, 4, 76, 127
2, 97395, Note_on_c, 2, 74, 127
2, 97537, Note_off_c, 2, 74, 127
2, 97537, Note_off_c, 10, 57, 127
2, 97539, Note_on_c, 7, 55, 127
2, 97539, Note_on_c, 4, 76, 127
2, 97681, Note_off_c, 4, 76, 127
2, 97683, Note_on_c, 0, 72, 127
2, 97825, Note_off_c, 0, 72, 127
2, 97825, Note_off_c, 7, 55, 127
2, 97827, Note_on_c, 5, 53, 127
2, 97827, Note_on_c, 2, 74, 127
2, 97969, Note_off_c, 2, 74, 127
2, 97971, Note_on_c, 4, 76, 127
2, 98113, Note_off_c, 4, 76, 127
2, 98113, Note_off_c, 5, 53, 127
2, 98115, Note_on_c, 2, 50, 127
2, 98115, Note_on_c, 0, 72, 127
2, 98257, Note_off_c, 0, 72, 127
2, 98259, Note_on_c, 4, 76, 127
2, 98401, Note_off_c, 4, 76, 127
2, 98401, Note_off_c, 2, 50, 127
2, 98401, Note_off_c, 0, 60, 127
2, 98403, Note_on_c, 7, 55, 127
2, 98403, Note_on_c, 12, 59, 127
2, 98403, Note_on_c, 2, 74, 127
2, 98545, Note_off_c, 2, 74, 127
2, 98547, Note_on_c, 0, 72, 127
2, 98689, Note_off_c, 0, 72, 127
2, 98689, Note_off_c, 7, 55, 127
2, 98691, Note_on_c, 5, 53, 127
2, 98691, Note_on_c, 2, 74, 127
2, 98833, Note_off_c, 2, 74, 127
2, 98835, Note_on_c, 7, 67, 127
2, 98977, Note_off_c, 7, 67, 127
2, 98977, Note_off_c, 5, 53, 127
2, 98977, Note_off_c, 12, 59, 127
2, 98979, Note_on_c, 4, 52, 127
2, 98979, Note_on_c, 0, 60, 127
2, 98979, Note_on_c, 0, 72, 127
2, 99121, Note_off_c, 0, 72, 127
2, 99123, Note_on_c, 12, 71, 127
2, 99265, Note_off_c, 12, 71, 127
2, 99265, Note_off_c, 4, 52, 127
2, 99267, Note_on_c, 0, 48, 127
2, 99267, Note_on_c, 0, 72, 127
2, 99409, Note_off_c, 0, 72, 127
2, 99411, Note_on_c, 7, 67, 127
2, 99549, Note_off_c, 0, 60, 127
2, 99553, Note_off_c, 7, 67, 127
2, 99553, Note_off_c, 0, 48, 127
2, 99555, Note_on_c, 12, 47, 127
2, 99555, Note_on_c, 2, 74, 127
2, 99697, Note_off_c, 2, 74, 127
2, 99699, Note_on_c, 0, 72, 127
2, 99841, Note_off_c, 0, 72, 127
2, 99841, Note_off_c, 12, 47, 127
2, 99843, Note_on_c, 7, 43, 127
2, 99843, Note_on_c, 2, 74, 127
2, 99985, Note_off_c, 2, 74, 127
2, 99987, Note_on_c, 7, 67, 127
2, 100129, Note_off_c, 7, 67, 127
2, 100129, Note_off_c, 7, 43, 127
2, 100131, Note_on_c, 0, 48, 127
2, 100131, Note_on_c, 4, 76, 127
2, 100273, Note_off_c, 0, 48, 127
2, 100275, Note_on_c, 12, 47, 127
2, 100417, Note_off_c, 12, 47, 127
2, 100417, Note_off_c, 4, 76, 127
2, 100419, Note_on_c, 0, 48, 127
2, 100419, Note_on_c, 0, 72, 127
2, 100561, Note_off_c, 0, 48, 127
2, 100563, Note_on_c, 7, 43, 127
2, 100704, Note_off_c, 0, 72, 127
2, 100706, Note_off_c, 7, 43, 127
2, 100708, Note_on_c, 2, 50, 127
2, 100850, Note_off_c, 2, 50, 127
2, 100852, Note_on_c, 0, 48, 127
2, 100994, Note_off_c, 0, 48, 127
2, 100996, Note_on_c, 2, 50, 127
2, 100996, Note_on_c, 12, 71, 127
2, 101138, Note_off_c, 2, 50, 127
2, 101140, Note_on_c, 7, 43, 127
2, 101282, Note_off_c, 7, 43, 127
2, 101282, Note_off_c, 12, 71, 127
2, 101284, Note_on_c, 4, 52, 127
2, 101284, Note_on_c, 0, 72, 127
2, 101426, Note_off_c, 0, 72, 127
2, 101428, Note_on_c, 12, 71, 127
2, 101570, Note_off_c, 12, 71, 127
2, 101570, Note_off_c, 4, 52, 127
2, 101572, Note_on_c, 0, 48, 127
2, 101572, Note_on_c, 0, 72, 127
2, 101716, Note_on_c, 7, 67, 127
2, 101752, Note_off_c, 0, 72, 127
2, 101858, Note_off_c, 7, 67, 127
2, 101858, Note_off_c, 0, 48, 127
2, 101860, Note_on_c, 12, 47, 127
2, 101860, Note_on_c, 2, 74, 127
2, 102002, Note_off_c, 2, 74, 127
2, 102004, Note_on_c, 0, 72, 127
2, 102146, Note_off_c, 0, 72, 127
2, 102146, Note_off_c, 12, 47, 127
2, 102148, Note_on_c, 7, 43, 127
2, 102148, Note_on_c, 2, 74, 127
2, 102292, Note_on_c, 7, 67, 127
2, 102328, Note_off_c, 2, 74, 127
2, 102434, Note_off_c, 7, 67, 127
2, 102434, Note_off_c, 7, 43, 127
2, 102436, Note_on_c, 0, 48, 127
2, 102436, Note_on_c, 4, 76, 127
2, 102578, Note_off_c, 4, 76, 127
2, 102580, Note_on_c, 2, 74, 127
2, 102722, Note_off_c, 2, 74, 127
2, 102722, Note_off_c, 0, 48, 127
2, 102724, Note_on_c, 0, 36, 127
2, 102724, Note_on_c, 4, 76, 127
2, 102868, Note_on_c, 7, 67, 127
2, 102934, Note_off_c, 4, 76, 127
2, 103010, Note_off_c, 7, 67, 127
2, 103010, Note_off_c, 0, 36, 127
2, 103012, Note_on_c, 2, 38, 127
2, 103012, Note_on_c, 5, 77, 127
2, 103154, Note_off_c, 5, 77, 127
2, 103156, Note_on_c, 4, 76, 127
2, 103298, Note_off_c, 4, 76, 127
2, 103298, Note_off_c, 2, 38, 127
2, 103300, Note_on_c, 2, 50, 127
2, 103300, Note_on_c, 5, 77, 127
2, 103442, Note_off_c, 5, 77, 127
2, 103444, Note_on_c, 7, 67, 127
2, 103586, Note_off_c, 7, 67, 127
2, 103586, Note_off_c, 2, 50, 127
2, 103588, Note_on_c, 4, 52, 127
2, 103588, Note_on_c, 7, 79, 127
2, 103730, Note_off_c, 7, 79, 127
2, 103732, Note_on_c, 5, 77, 127
2, 103874, Note_off_c, 5, 77, 127
2, 103874, Note_off_c, 4, 52, 127
2, 103876, Note_on_c, 0, 48, 127
2, 103876, Note_on_c, 7, 79, 127
2, 104020, Note_on_c, 7, 67, 127
2, 104161, Note_off_c, 7, 79, 127
2, 104163, Note_off_c, 7, 67, 127
2, 104163, Note_off_c, 0, 48, 127
2, 104165, Note_on_c, 5, 53, 127
2, 104165, Note_on_c, 10, 69, 127
2, 104307, Note_off_c, 5, 53, 127
2, 104309, Note_on_c, 4, 52, 127
2, 104451, Note_off_c, 4, 52, 127
2, 104451, Note_off_c, 10, 69, 127
2, 104453, Note_on_c, 5, 53, 127
2, 104453, Note_on_c, 0, 72, 127
2, 104595, Note_off_c, 5, 53, 127
2, 104597, Note_on_c, 0, 48, 127
2, 104739, Note_off_c, 0, 48, 127
2, 104739, Note_off_c, 0, 72, 127
2, 104741, Note_on_c, 2, 50, 127
2, 104741, Note_on_c, 5, 77, 127
2, 104883, Note_off_c, 5, 77, 127
2, 104885, Note_on_c, 4, 76, 127
2, 105027, Note_off_c, 4, 76, 127
2, 105027, Note_off_c, 2, 50, 127
2, 105029, Note_on_c, 12, 47, 127
2, 105029, Note_on_c, 5, 77, 127
2, 105173, Note_on_c, 5, 65, 127
2, 105314, Note_off_c, 5, 77, 127
2, 105316, Note_off_c, 5, 65, 127
2, 105316, Note_off_c, 12, 47, 127
2, 105318, Note_on_c, 4, 52, 127
2, 105318, Note_on_c, 7, 67, 127
2, 105460, Note_off_c, 4, 52, 127
2, 105462, Note_on_c, 2, 50, 127
2, 105604, Note_off_c, 2, 50, 127
2, 105604, Note_off_c, 7, 67, 127
2, 105606, Note_on_c, 4, 52, 127
2, 105606, Note_on_c, 12, 71, 127
2, 105748, Note_off_c, 4, 52, 127
2, 105750, Note_on_c, 12, 47, 127
2, 105892, Note_off_c, 12, 47, 127
2, 105892, Note_off_c, 12, 71, 127
2, 105894, Note_on_c, 0, 48, 127
2, 105894, Note_on_c, 4, 76, 127
2, 106036, Note_off_c, 4, 76, 127
2, 106038, Note_on_c, 2, 74, 127
2, 106180, Note_off_c, 2, 74, 127
2, 106180, Note_off_c, 0, 48, 127
2, 106182, Note_on_c, 10, 45, 127
2, 106182, Note_on_c, 4, 76, 127
2, 106326, Note_on_c, 4, 64, 127
2, 106467, Note_off_c, 4, 76, 127
2, 106469, Note_off_c, 4, 64, 127
2, 106469, Note_off_c, 10, 45, 127
2, 106471, Note_on_c, 2, 50, 127
2, 106471, Note_on_c, 5, 65, 127
2, 106613, Note_off_c, 2, 50, 127
2, 106615, Note_on_c, 0, 48, 127
2, 106757, Note_off_c, 0, 48, 127
2, 106757, Note_off_c, 5, 65, 127
2, 106759, Note_on_c, 2, 50, 127
2, 106759, Note_on_c, 10, 69, 127
2, 106901, Note_off_c, 2, 50, 127
2, 106903, Note_on_c, 10, 45, 127
2, 107045, Note_off_c, 10, 45, 127
2, 107045, Note_off_c, 10, 69, 127
2, 107047, Note_on_c, 12, 47, 127
2, 107047, Note_on_c, 2, 74, 127
2, 107189, Note_off_c, 2, 74, 127
2, 107191, Note_on_c, 0, 72, 127
2, 107333, Note_off_c, 0, 72, 127
2, 107333, Note_off_c, 12, 47, 127
2, 107335, Note_on_c, 7, 43, 127
2, 107335, Note_on_c, 2, 74, 127
2, 107479, Note_on_c, 2, 62, 127
2, 107620, Note_off_c, 2, 74, 127
2, 107622, Note_off_c, 2, 62, 127
2, 107622, Note_off_c, 7, 43, 127
2, 107624, Note_on_c, 0, 48, 127
2, 107624, Note_on_c, 4, 64, 127
2, 107766, Note_off_c, 0, 48, 127
2, 107768, Note_on_c, 12, 47, 127
2, 107910, Note_off_c, 12, 47, 127
2, 107910, Note_off_c, 4, 64, 127
2, 107912, Note_on_c, 0, 48, 127
2, 107912, Note_on_c, 7, 67, 127
2, 108054, Note_off_c, 0, 48, 127
2, 108056, Note_on_c, 7, 43, 127
2, 108198, Note_off_c, 7, 43, 127
2, 108198, Note_off_c, 7, 67, 127
2, 108200, Note_on_c, 10, 45, 127
2, 108200, Note_on_c, 0, 72, 127
2, 108342, Note_off_c, 0, 72, 127
2, 108344, Note_on_c, 12, 71, 127
2, 108486, Note_off_c, 12, 71, 127
2, 108486, Note_off_c, 10, 45, 127
2, 108488, Note_on_c, 0, 48, 127
2, 108488, Note_on_c, 0, 72, 127
2, 108630, Note_off_c, 0, 72, 127
2, 108632, Note_on_c, 4, 64, 127
2, 108774, Note_off_c, 4, 64, 127
2, 108774, Note_off_c, 0, 48, 127
2, 108776, Note_on_c, 2, 50, 127
2, 108776, Note_on_c, 6, 66, 127
2, 108918, Note_off_c, 6, 66, 127
2, 108920, Note_on_c, 4, 64, 127
2, 109062, Note_off_c, 4, 64, 127
2, 109062, Note_off_c, 2, 50, 127
2, 109064, Note_on_c, 0, 48, 127
2, 109064, Note_on_c, 6, 66, 127
2, 109206, Note_off_c, 6, 66, 127
2, 109208, Note_on_c, 2, 62, 127
2, 109350, Note_off_c, 2, 62, 127
2, 109350, Note_off_c, 0, 48, 127
2, 109352, Note_on_c, 12, 47, 127
2, 109352, Note_on_c, 7, 67, 127
2, 109494, Note_off_c, 7, 67, 127
2, 109496, Note_on_c, 6, 66, 127
2, 109638, Note_off_c, 6, 66, 127
2, 109638, Note_off_c, 12, 47, 127
2, 109640, Note_on_c, 7, 43, 127
2, 109640, Note_on_c, 7, 67, 127
2, 109782, Note_off_c, 7, 67, 127
2, 109784, Note_on_c, 2, 62, 127
2, 109926, Note_off_c, 2, 62, 127
2, 109926, Note_off_c, 7, 43, 127
2, 109928, Note_on_c, 6, 42, 127
2, 109928, Note_on_c, 10, 69, 127
2, 110070, Note_off_c, 10, 69, 127
2, 110072, Note_on_c, 7, 67, 127
2, 110214, Note_off_c, 7, 67, 127
2, 110214, Note_off_c, 6, 42, 127
2, 110216, Note_on_c, 2, 38, 127
2, 110216, Note_on_c, 10, 69, 127
2, 110358, Note_off_c, 10, 69, 127
2, 110360, Note_on_c, 2, 62, 127
2, 110502, Note_off_c, 2, 62, 127
2, 110502, Note_off_c, 2, 38, 127
2, 110504, Note_on_c, 7, 55, 127
2, 110504, Note_on_c, 12, 71, 127
2, 110646, Note_off_c, 7, 55, 127
2, 110648, Note_on_c, 6, 54, 127
2, 110790, Note_off_c, 6, 54, 127
2, 110790, Note_off_c, 12, 71, 127
2, 110792, Note_on_c, 7, 55, 127
2, 110792, Note_on_c, 7, 79, 127
2, 110934, Note_off_c, 7, 55, 127
2, 110936, Note_on_c, 2, 50, 127
2, 111078, Note_off_c, 2, 50, 127
2, 111078, Note_off_c, 7, 79, 127
2, 111080, Note_on_c, 10, 57, 127
2, 111080, Note_on_c, 0, 72, 127
2, 111222, Note_off_c, 10, 57, 127
2, 111224, Note_on_c, 7, 55, 127
2, 111366, Note_off_c, 7, 55, 127
2, 111366, Note_off_c, 0, 72, 127
2, 111368, Note_on_c, 10, 57, 127
2, 111368, Note_on_c, 7, 79, 127
2, 111510, Note_off_c, 7, 79, 127
2, 111510, Note_off_c, 10, 57, 127
2, 111512, Note_on_c, 2, 50, 127
2, 111512, Note_on_c, 6, 78, 127
2, 111654, Note_off_c, 6, 78, 127
2, 111654, Note_off_c, 2, 50, 127
2, 111656, Note_on_c, 12, 59, 127
2, 111656, Note_on_c, 7, 79, 127
2, 111798, Note_off_c, 12, 59, 127
2, 111800, Note_on_c, 10, 57, 127
2, 111942, Note_off_c, 10, 57, 127
2, 111942, Note_off_c, 7, 79, 127
2, 111944, Note_on_c, 12, 59, 127
2, 111944, Note_on_c, 2, 74, 127
2, 112086, Note_off_c, 12, 59, 127
2, 112088, Note_on_c, 2, 50, 127
2, 112230, Note_off_c, 2, 50, 127
2, 112230, Note_off_c, 2, 74, 127
2, 112232, Note_on_c, 0, 60, 127
2, 112232, Note_on_c, 4, 76, 127
2, 112374, Note_off_c, 0, 60, 127
2, 112376, Note_on_c, 12, 59, 127
2, 112518, Note_off_c, 12, 59, 127
2, 112518, Note_off_c, 4, 76, 127
2, 112520, Note_on_c, 0, 60, 127
2, 112520, Note_on_c, 0, 84, 127
2, 112662, Note_off_c, 0, 60, 127
2, 112664, Note_on_c, 2, 50, 127
2, 112806, Note_off_c, 2, 50, 127
2, 112806, Note_off_c, 0, 84, 127
2, 112808, Note_on_c, 2, 62, 127
2, 112808, Note_on_c, 6, 78, 127
2, 112950, Note_off_c, 6, 78, 127
2, 112952, Note_on_c, 2, 74, 127
2, 113094, Note_off_c, 2, 74, 127
2, 113094, Note_off_c, 2, 62, 127
2, 113096, Note_on_c, 12, 59, 127
2, 113096, Note_on_c, 7, 79, 127
2, 113238, Note_off_c, 7, 79, 127
2, 113238, Note_off_c, 12, 59, 127
2, 113240, Note_on_c, 10, 81, 127
2, 113240, Note_on_c, 0, 60, 127
2, 113382, Note_off_c, 0, 60, 127
2, 113382, Note_off_c, 10, 81, 127
2, 113384, Note_on_c, 2, 62, 127
2, 113384, Note_on_c, 7, 79, 127
2, 113454, Note_off_c, 7, 79, 127
2, 113456, Note_on_c, 6, 78, 127
2, 113526, Note_off_c, 6, 78, 127
2, 113528, Note_on_c, 7, 79, 127
2, 113598, Note_off_c, 7, 79, 127
2, 113600, Note_on_c, 6, 78, 127
2, 113670, Note_off_c, 6, 78, 127
2, 113670, Note_off_c, 2, 62, 127
2, 113672, Note_on_c, 2, 50, 127
2, 113672, Note_on_c, 7, 79, 127
2, 113742, Note_off_c, 7, 79, 127
2, 113744, Note_on_c, 6, 78, 127
2, 113814, Note_off_c, 6, 78, 127
2, 113816, Note_on_c, 7, 79, 127
2, 113958, Note_off_c, 7, 79, 127
2, 113958, Note_off_c, 2, 50, 127
2, 113960, Note_on_c, 7, 55, 127
2, 113960, Note_on_c, 7, 79, 127
2, 114102, Note_off_c, 7, 55, 127
2, 114104, Note_on_c, 6, 54, 127
2, 114246, Note_off_c, 6, 54, 127
2, 114248, Note_on_c, 7, 55, 127
2, 114390, Note_off_c, 7, 55, 127
2, 114392, Note_on_c, 2, 50, 127
2, 114534, Note_off_c, 2, 50, 127
2, 114536, Note_on_c, 10, 57, 127
2, 114678, Note_off_c, 10, 57, 127
2, 114680, Note_on_c, 7, 55, 127
2, 114822, Note_off_c, 7, 55, 127
2, 114824, Note_on_c, 10, 57, 127
2, 114824, Note_on_c, 12, 71, 127
2, 114966, Note_off_c, 12, 71, 127
2, 114966, Note_off_c, 10, 57, 127
2, 114968, Note_on_c, 2, 50, 127
2, 114968, Note_on_c, 0, 72, 127
2, 115110, Note_off_c, 0, 72, 127
2, 115110, Note_off_c, 2, 50, 127
2, 115112, Note_on_c, 12, 59, 127
2, 115112, Note_on_c, 2, 74, 127
2, 115254, Note_off_c, 12, 59, 127
2, 115256, Note_on_c, 0, 60, 127
2, 115398, Note_off_c, 0, 60, 127
2, 115398, Note_off_c, 2, 74, 127
2, 115400, Note_on_c, 10, 57, 127
2, 115400, Note_on_c, 2, 74, 127
2, 115542, Note_off_c, 10, 57, 127
2, 115544, Note_on_c, 0, 60, 127
2, 115686, Note_off_c, 0, 60, 127
2, 115686, Note_off_c, 2, 74, 127
2, 115688, Note_on_c, 12, 59, 127
2, 115688, Note_on_c, 2, 74, 127
2, 115760, Note_off_c, 7, 79, 127
2, 115830, Note_off_c, 12, 59, 127
2, 115832, Note_on_c, 10, 57, 127
2, 115974, Note_off_c, 10, 57, 127
2, 115974, Note_off_c, 2, 74, 127
2, 115976, Note_on_c, 12, 59, 127
2, 115976, Note_on_c, 2, 74, 127
2, 116118, Note_off_c, 2, 74, 127
2, 116118, Note_off_c, 12, 59, 127
2, 116120, Note_on_c, 7, 55, 127
2, 116120, Note_on_c, 4, 76, 127
2, 116262, Note_off_c, 4, 76, 127
2, 116262, Note_off_c, 7, 55, 127
2, 116264, Note_on_c, 12, 59, 127
2, 116264, Note_on_c, 2, 74, 127
2, 116406, Note_off_c, 2, 74, 127
2, 116408, Note_on_c, 0, 72, 127
2, 116550, Note_off_c, 0, 72, 127
2, 116550, Note_off_c, 12, 59, 127
2, 116552, Note_on_c, 2, 62, 127
2, 116552, Note_on_c, 12, 71, 127
2, 116694, Note_off_c, 12, 71, 127
2, 116696, Note_on_c, 10, 69, 127
2, 116838, Note_off_c, 10, 69, 127
2, 116838, Note_off_c, 2, 62, 127
2, 116840, Note_on_c, 12, 59, 127
2, 116840, Note_on_c, 7, 67, 127
2, 116982, Note_off_c, 7, 67, 127
2, 116984, Note_on_c, 2, 74, 127
2, 117126, Note_off_c, 2, 74, 127
2, 117126, Note_off_c, 12, 59, 127
2, 117128, Note_on_c, 7, 55, 127
2, 117128, Note_on_c, 0, 72, 127
2, 117270, Note_off_c, 0, 72, 127
2, 117272, Note_on_c, 2, 74, 127
2, 117414, Note_off_c, 2, 74, 127
2, 117414, Note_off_c, 7, 55, 127
2, 117416, Note_on_c, 0, 60, 127
2, 117416, Note_on_c, 4, 76, 127
2, 117558, Note_off_c, 4, 76, 127
2, 117560, Note_on_c, 2, 74, 127
2, 117702, Note_off_c, 2, 74, 127
2, 117702, Note_off_c, 0, 60, 127
2, 117704, Note_on_c, 4, 64, 127
2, 117704, Note_on_c, 0, 72, 127
2, 117846, Note_off_c, 0, 72, 127
2, 117848, Note_on_c, 12, 71, 127
2, 117990, Note_off_c, 12, 71, 127
2, 117990, Note_off_c, 4, 64, 127
2, 117992, Note_on_c, 0, 60, 127
2, 117992, Note_on_c, 10, 69, 127
2, 118134, Note_off_c, 10, 69, 127
2, 118136, Note_on_c, 4, 76, 127
2, 118278, Note_off_c, 4, 76, 127
2, 118278, Note_off_c, 0, 60, 127
2, 118280, Note_on_c, 10, 57, 127
2, 118280, Note_on_c, 2, 74, 127
2, 118422, Note_off_c, 2, 74, 127
2, 118424, Note_on_c, 4, 76, 127
2, 118566, Note_off_c, 4, 76, 127
2, 118566, Note_off_c, 10, 57, 127
2, 118568, Note_on_c, 2, 62, 127
2, 118568, Note_on_c, 6, 78, 127
2, 118710, Note_off_c, 6, 78, 127
2, 118712, Note_on_c, 4, 76, 127
2, 118854, Note_off_c, 4, 76, 127
2, 118854, Note_off_c, 2, 62, 127
2, 118856, Note_on_c, 6, 66, 127
2, 118856, Note_on_c, 2, 74, 127
2, 118998, Note_off_c, 2, 74, 127
2, 119000, Note_on_c, 0, 72, 127
2, 119142, Note_off_c, 0, 72, 127
2, 119142, Note_off_c, 6, 66, 127
2, 119144, Note_on_c, 2, 62, 127
2, 119144, Note_on_c, 12, 71, 127
2, 119286, Note_off_c, 12, 71, 127
2, 119288, Note_on_c, 6, 78, 127
2, 119430, Note_off_c, 6, 78, 127
2, 119430, Note_off_c, 2, 62, 127
2, 119432, Note_on_c, 12, 59, 127
2, 119432, Note_on_c, 4, 76, 127
2, 119574, Note_off_c, 4, 76, 127
2, 119576, Note_on_c, 6, 78, 127
2, 119718, Note_off_c, 6, 78, 127
2, 119718, Note_off_c, 12, 59, 127
2, 119720, Note_on_c, 4, 64, 127
2, 119720, Note_on_c, 7, 79, 127
2, 120006, Note_off_c, 7, 79, 127
2, 120008, Note_on_c, 6, 78, 127
2, 120150, Note_off_c, 6, 78, 127
2, 120152, Note_on_c, 4, 76, 127
2, 120290, Note_off_c, 4, 64, 127
2, 120294, Note_off_c, 4, 76, 127
2, 120296, Note_on_c, 2, 74, 127
2, 120438, Note_off_c, 2, 74, 127
2, 120440, Note_on_c, 4, 76, 127
2, 120582, Note_off_c, 4, 76, 127
2, 120584, Note_on_c, 6, 66, 127
2, 120584, Note_on_c, 0, 72, 127
2, 120584, Note_on_c, 10, 81, 127
2, 120726, Note_off_c, 0, 72, 127
2, 120728, Note_on_c, 2, 74, 127
2, 120870, Note_off_c, 2, 74, 127
2, 120870, Note_off_c, 10, 81, 127
2, 120870, Note_off_c, 6, 66, 127
2, 120872, Note_on_c, 7, 67, 127
2, 120872, Note_on_c, 12, 71, 127
2, 120872, Note_on_c, 12, 83, 127
2, 121158, Note_off_c, 12, 83, 127
2, 121160, Note_on_c, 10, 81, 127
2, 121302, Note_off_c, 10, 81, 127
2, 121304, Note_on_c, 7, 79, 127
2, 121446, Note_off_c, 7, 79, 127
2, 121448, Note_on_c, 6, 78, 127
2, 121590, Note_off_c, 6, 78, 127
2, 121592, Note_off_c, 12, 71, 127
2, 121592, Note_off_c, 7, 67, 127
2, 121592, Note_on_c, 7, 79, 127
2, 121734, Note_off_c, 7, 79, 127
2, 121736, Note_on_c, 10, 69, 127
2, 121736, Note_on_c, 0, 72, 127
2, 121736, Note_on_c, 4, 76, 127
2, 121878, Note_off_c, 4, 76, 127
2, 121880, Note_on_c, 6, 78, 127
2, 122022, Note_off_c, 6, 78, 127
2, 122022, Note_off_c, 0, 72, 127
2, 122022, Note_off_c, 10, 69, 127
2, 122024, Note_on_c, 12, 71, 127
2, 122024, Note_on_c, 2, 74, 127
2, 122310, Note_off_c, 12, 71, 127
2, 122312, Note_on_c, 10, 69, 127
2, 122312, Note_on_c, 0, 72, 127
2, 122454, Note_off_c, 0, 72, 127
2, 122454, Note_off_c, 10, 69, 127
2, 122456, Note_on_c, 7, 67, 127
2, 122456, Note_on_c, 12, 71, 127
2, 122598, Note_off_c, 12, 71, 127
2, 122598, Note_off_c, 7, 67, 127
2, 122600, Note_on_c, 6, 66, 127
2, 122600, Note_on_c, 10, 69, 127
2, 122742, Note_off_c, 6, 66, 127
2, 122744, Note_on_c, 7, 67, 127
2, 122886, Note_off_c, 7, 67, 127
2, 122886, Note_off_c, 10, 69, 127
2, 122886, Note_off_c, 2, 74, 127
2, 122888, Note_on_c, 4, 64, 127
2, 122888, Note_on_c, 7, 67, 127
2, 122888, Note_on_c, 0, 72, 127
2, 123030, Note_off_c, 4, 64, 127
2, 123032, Note_on_c, 6, 66, 127
2, 123174, Note_off_c, 6, 66, 127
2, 123174, Note_off_c, 7, 67, 127
2, 123176, Note_on_c, 2, 62, 127
2, 123176, Note_on_c, 6, 66, 127
2, 123318, Note_off_c, 2, 62, 127
2, 123320, Note_on_c, 4, 64, 127
2, 123462, Note_off_c, 4, 64, 127
2, 123462, Note_off_c, 0, 72, 127
2, 123464, Note_on_c, 0, 60, 127
2, 123464, Note_on_c, 0, 72, 127
2, 123606, Note_off_c, 0, 60, 127
2, 123608, Note_on_c, 4, 64, 127
2, 123750, Note_off_c, 4, 64, 127
2, 123750, Note_off_c, 0, 72, 127
2, 123752, Note_on_c, 2, 62, 127
2, 123752, Note_on_c, 12, 71, 127
2, 123894, Note_off_c, 2, 62, 127
2, 123896, Note_on_c, 0, 60, 127
2, 124038, Note_off_c, 0, 60, 127
2, 124038, Note_off_c, 6, 66, 127
2, 124040, Note_on_c, 2, 62, 127
2, 124040, Note_on_c, 6, 66, 127
2, 124182, Note_off_c, 2, 62, 127
2, 124184, Note_on_c, 12, 59, 127
2, 124326, Note_off_c, 12, 59, 127
2, 124326, Note_off_c, 6, 66, 127
2, 124328, Note_on_c, 0, 60, 127
2, 124328, Note_on_c, 4, 64, 127
2, 124470, Note_off_c, 0, 60, 127
2, 124472, Note_on_c, 2, 62, 127
2, 124614, Note_off_c, 2, 62, 127
2, 124614, Note_off_c, 12, 71, 127
2, 124616, Note_on_c, 12, 59, 127
2, 124616, Note_on_c, 12, 71, 127
2, 124758, Note_off_c, 12, 59, 127
2, 124760, Note_on_c, 2, 62, 127
2, 124902, Note_off_c, 2, 62, 127
2, 124902, Note_off_c, 12, 71, 127
2, 124904, Note_on_c, 0, 60, 127
2, 124904, Note_on_c, 10, 69, 127
2, 125046, Note_off_c, 0, 60, 127
2, 125048, Note_on_c, 12, 59, 127
2, 125190, Note_off_c, 12, 59, 127
2, 125190, Note_off_c, 4, 64, 127
2, 125192, Note_on_c, 0, 60, 127
2, 125192, Note_on_c, 4, 64, 127
2, 125334, Note_off_c, 0, 60, 127
2, 125336, Note_on_c, 10, 57, 127
2, 125478, Note_off_c, 10, 57, 127
2, 125478, Note_off_c, 4, 64, 127
2, 125480, Note_on_c, 12, 59, 127
2, 125480, Note_on_c, 2, 62, 127
2, 125622, Note_off_c, 12, 59, 127
2, 125624, Note_on_c, 0, 60, 127
2, 125766, Note_off_c, 0, 60, 127
2, 125766, Note_off_c, 10, 69, 127
2, 125768, Note_on_c, 10, 57, 127
2, 125768, Note_on_c, 10, 69, 127
2, 125910, Note_off_c, 10, 57, 127
2, 125912, Note_on_c, 0, 60, 127
2, 126054, Note_off_c, 0, 60, 127
2, 126054, Note_off_c, 10, 69, 127
2, 126056, Note_on_c, 12, 59, 127
2, 126056, Note_on_c, 7, 67, 127
2, 126198, Note_off_c, 12, 59, 127
2, 126200, Note_on_c, 10, 57, 127
2, 126342, Note_off_c, 10, 57, 127
2, 126342, Note_off_c, 2, 62, 127
2, 126344, Note_on_c, 12, 59, 127
2, 126344, Note_on_c, 2, 62, 127
2, 126486, Note_off_c, 12, 59, 127
2, 126488, Note_on_c, 7, 55, 127
2, 126630, Note_off_c, 7, 55, 127
2, 126630, Note_off_c, 2, 62, 127
2, 126632, Note_on_c, 10, 57, 127
2, 126632, Note_on_c, 0, 60, 127
2, 126774, Note_off_c, 0, 60, 127
2, 126776, Note_on_c, 2, 62, 127
2, 126918, Note_off_c, 2, 62, 127
2, 126918, Note_off_c, 10, 57, 127
2, 126920, Note_on_c, 7, 55, 127
2, 126920, Note_on_c, 12, 59, 127
2, 127062, Note_off_c, 12, 59, 127
2, 127064, Note_on_c, 2, 62, 127
2, 127206, Note_off_c, 2, 62, 127
2, 127206, Note_off_c, 7, 55, 127
2, 127206, Note_off_c, 7, 67, 127
2, 127208, Note_on_c, 10, 57, 127
2, 127208, Note_on_c, 0, 60, 127
2, 127208, Note_on_c, 6, 66, 127
2, 127350, Note_off_c, 0, 60, 127
2, 127352, Note_on_c, 12, 59, 127
2, 127494, Note_off_c, 12, 59, 127
2, 127494, Note_off_c, 10, 57, 127
2, 127496, Note_on_c, 2, 50, 127
2, 127496, Note_on_c, 0, 60, 127
2, 127638, Note_off_c, 0, 60, 127
2, 127640, Note_on_c, 10, 57, 127
2, 127782, Note_off_c, 10, 57, 127
2, 127782, Note_off_c, 2, 50, 127
2, 127782, Note_off_c, 6, 66, 127
2, 127784, Note_on_c, 7, 55, 127
2, 127784, Note_on_c, 12, 59, 127
2, 127784, Note_on_c, 7, 67, 127
2, 127926, Note_off_c, 7, 67, 127
2, 127928, Note_on_c, 10, 69, 127
2, 128070, Note_off_c, 10, 69, 127
2, 128070, Note_off_c, 12, 59, 127
2, 128072, Note_on_c, 10, 57, 127
2, 128072, Note_on_c, 6, 66, 127
2, 128214, Note_off_c, 6, 66, 127
2, 128216, Note_on_c, 10, 69, 127
2, 128354, Note_off_c, 7, 55, 127
2, 128358, Note_off_c, 10, 69, 127
2, 128358, Note_off_c, 10, 57, 127
2, 128360, Note_on_c, 12, 59, 127
2, 128360, Note_on_c, 7, 67, 127
2, 128502, Note_off_c, 7, 67, 127
2, 128504, Note_on_c, 6, 66, 127
2, 128646, Note_off_c, 6, 66, 127
2, 128646, Note_off_c, 12, 59, 127
2, 128648, Note_on_c, 1, 61, 127
2, 128648, Note_on_c, 7, 67, 127
2, 128790, Note_off_c, 7, 67, 127
2, 128792, Note_on_c, 4, 64, 127
2, 128934, Note_off_c, 4, 64, 127
2, 128934, Note_off_c, 1, 61, 127
2, 128936, Note_on_c, 2, 62, 127
2, 128936, Note_on_c, 6, 66, 127
2, 129078, Note_off_c, 2, 62, 127
2, 129080, Note_on_c, 4, 64, 127
2, 129222, Note_off_c, 4, 64, 127
2, 129222, Note_off_c, 6, 66, 127
2, 129224, Note_on_c, 0, 60, 127
2, 129224, Note_on_c, 6, 66, 127
2, 129366, Note_off_c, 0, 60, 127
2, 129368, Note_on_c, 4, 64, 127
2, 129510, Note_off_c, 4, 64, 127
2, 129510, Note_off_c, 6, 66, 127
2, 129512, Note_on_c, 2, 62, 127
2, 129512, Note_on_c, 12, 71, 127
2, 129654, Note_off_c, 2, 62, 127
2, 129656, Note_on_c, 0, 60, 127
2, 129798, Note_off_c, 0, 60, 127
2, 129800, Note_on_c, 2, 62, 127
2, 129942, Note_off_c, 2, 62, 127
2, 129944, Note_on_c, 12, 59, 127
2, 130086, Note_off_c, 12, 59, 127
2, 130088, Note_on_c, 0, 60, 127
2, 130230, Note_off_c, 0, 60, 127
2, 130232, Note_off_c, 12, 71, 127
2, 130232, Note_on_c, 2, 62, 127
2, 130374, Note_off_c, 2, 62, 127
2, 130376, Note_on_c, 12, 59, 127
2, 130376, Note_on_c, 12, 71, 127
2, 130518, Note_off_c, 12, 59, 127
2, 130520, Note_on_c, 2, 62, 127
2, 130662, Note_off_c, 2, 62, 127
2, 130662, Note_off_c, 12, 71, 127
2, 130664, Note_on_c, 0, 60, 127
2, 130664, Note_on_c, 10, 69, 127
2, 130806, Note_off_c, 0, 60, 127
2, 130808, Note_on_c, 12, 59, 127
2, 130950, Note_off_c, 12, 59, 127
2, 130952, Note_on_c, 0, 60, 127
2, 131094, Note_off_c, 0, 60, 127
2, 131096, Note_on_c, 10, 57, 127
2, 131238, Note_off_c, 10, 57, 127
2, 131240, Note_on_c, 4, 64, 127
2, 131382, Note_off_c, 4, 64, 127
2, 131384, Note_off_c, 10, 69, 127
2, 131384, Note_on_c, 5, 65, 127
2, 131526, Note_off_c, 5, 65, 127
2, 131528, Note_on_c, 2, 62, 127
2, 131528, Note_on_c, 7, 67, 127
2, 131670, Note_off_c, 2, 62, 127
2, 131672, Note_on_c, 5, 65, 127
2, 131814, Note_off_c, 5, 65, 127
2, 131814, Note_off_c, 7, 67, 127
2, 131816, Note_on_c, 4, 64, 127
2, 131816, Note_on_c, 0, 72, 127
2, 131958, Note_off_c, 4, 64, 127
2, 131960, Note_on_c, 2, 62, 127
2, 132102, Note_off_c, 2, 62, 127
2, 132104, Note_on_c, 4, 64, 127
2, 132246, Note_off_c, 4, 64, 127
2, 132248, Note_on_c, 0, 60, 127
2, 132390, Note_off_c, 0, 60, 127
2, 132392, Note_on_c, 2, 62, 127
2, 132534, Note_off_c, 2, 62, 127
2, 132536, Note_off_c, 0, 72, 127
2, 132536, Note_on_c, 4, 64, 127
2, 132678, Note_off_c, 4, 64, 127
2, 132680, Note_on_c, 0, 60, 127
2, 132680, Note_on_c, 0, 72, 127
2, 132822, Note_off_c, 0, 60, 127
2, 132824, Note_on_c, 4, 64, 127
2, 132966, Note_off_c, 4, 64, 127
2, 132966, Note_off_c, 0, 72, 127
2, 132968, Note_on_c, 2, 62, 127
2, 132968, Note_on_c, 12, 71, 127
2, 133110, Note_off_c, 2, 62, 127
2, 133112, Note_on_c, 0, 60, 127
2, 133254, Note_off_c, 0, 60, 127
2, 133256, Note_on_c, 2, 62, 127
2, 133398, Note_off_c, 2, 62, 127
2, 133400, Note_on_c, 12, 59, 127
2, 133542, Note_off_c, 12, 59, 127
2, 133544, Note_on_c, 0, 60, 127
2, 133686, Note_off_c, 0, 60, 127
2, 133688, Note_off_c, 12, 71, 127
2, 133688, Note_on_c, 2, 62, 127
2, 133830, Note_off_c, 2, 62, 127
2, 133832, Note_on_c, 12, 59, 127
2, 133832, Note_on_c, 12, 71, 127
2, 133974, Note_off_c, 12, 59, 127
2, 133976, Note_on_c, 2, 62, 127
2, 134118, Note_off_c, 2, 62, 127
2, 134118, Note_off_c, 12, 71, 127
2, 134120, Note_on_c, 0, 60, 127
2, 134120, Note_on_c, 10, 69, 127
2, 134262, Note_off_c, 0, 60, 127
2, 134264, Note_on_c, 12, 59, 127
2, 134406, Note_off_c, 12, 59, 127
2, 134406, Note_off_c, 10, 69, 127
2, 134408, Note_on_c, 0, 60, 127
2, 134408, Note_on_c, 4, 76, 127
2, 134550, Note_off_c, 0, 60, 127
2, 134552, Note_on_c, 10, 57, 127
2, 134694, Note_off_c, 10, 57, 127
2, 134696, Note_on_c, 12, 59, 127
2, 134828, Note_off_c, 4, 76, 127
2, 134838, Note_off_c, 12, 59, 127
2, 134840, Note_on_c, 0, 60, 127
2, 134982, Note_off_c, 0, 60, 127
2, 134984, Note_on_c, 10, 57, 127
2, 134984, Note_on_c, 4, 76, 127
2, 135126, Note_off_c, 10, 57, 127
2, 135128, Note_on_c, 0, 60, 127
2, 135270, Note_off_c, 0, 60, 127
2, 135270, Note_off_c, 4, 76, 127
2, 135272, Note_on_c, 12, 59, 127
2, 135272, Note_on_c, 2, 74, 127
2, 135414, Note_off_c, 12, 59, 127
2, 135416, Note_on_c, 10, 57, 127
2, 135558, Note_off_c, 10, 57, 127
2, 135558, Note_off_c, 2, 74, 127
2, 135560, Note_on_c, 12, 59, 127
2, 135560, Note_on_c, 7, 79, 127
2, 135702, Note_off_c, 12, 59, 127
2, 135704, Note_on_c, 7, 55, 127
2, 135846, Note_off_c, 7, 55, 127
2, 135848, Note_on_c, 10, 57, 127
2, 135990, Note_off_c, 10, 57, 127
2, 135992, Note_on_c, 12, 59, 127
2, 136040, Note_off_c, 7, 79, 127
2, 136134, Note_off_c, 12, 59, 127
2, 136136, Note_on_c, 7, 55, 127
2, 136136, Note_on_c, 7, 79, 127
2, 136278, Note_off_c, 7, 55, 127
2, 136280, Note_on_c, 12, 59, 127
2, 136422, Note_off_c, 12, 59, 127
2, 136422, Note_off_c, 7, 79, 127
2, 136424, Note_on_c, 10, 57, 127
2, 136424, Note_on_c, 6, 78, 127
2, 136566, Note_off_c, 10, 57, 127
2, 136568, Note_on_c, 7, 55, 127
2, 136710, Note_off_c, 7, 55, 127
2, 136710, Note_off_c, 6, 78, 127
2, 136712, Note_on_c, 10, 57, 127
2, 136712, Note_on_c, 0, 84, 127
2, 136854, Note_off_c, 10, 57, 127
2, 136856, Note_on_c, 6, 54, 127
2, 136998, Note_off_c, 6, 54, 127
2, 137000, Note_on_c, 7, 55, 127
2, 137142, Note_off_c, 7, 55, 127
2, 137144, Note_on_c, 10, 57, 127
2, 137222, Note_off_c, 0, 84, 127
2, 137286, Note_off_c, 10, 57, 127
2, 137288, Note_on_c, 6, 54, 127
2, 137288, Note_on_c, 0, 84, 127
2, 137430, Note_off_c, 6, 54, 127
2, 137432, Note_on_c, 10, 57, 127
2, 137574, Note_off_c, 10, 57, 127
2, 137574, Note_off_c, 0, 84, 127
2, 137576, Note_on_c, 7, 55, 127
2, 137576, Note_on_c, 12, 83, 127
2, 137718, Note_off_c, 7, 55, 127
2, 137720, Note_on_c, 6, 54, 127
2, 137862, Note_off_c, 6, 54, 127
2, 137862, Note_off_c, 12, 83, 127
2, 137864, Note_on_c, 7, 55, 127
2, 137864, Note_on_c, 4, 76, 127
2, 138006, Note_off_c, 7, 55, 127
2, 138008, Note_on_c, 4, 52, 127
2, 138150, Note_off_c, 4, 52, 127
2, 138152, Note_on_c, 6, 54, 127
2, 138284, Note_off_c, 4, 76, 127
2, 138294, Note_off_c, 6, 54, 127
2, 138296, Note_on_c, 7, 55, 127
2, 138438, Note_off_c, 7, 55, 127
2, 138440, Note_on_c, 4, 52, 127
2, 138440, Note_on_c, 4, 76, 127
2, 138582, Note_off_c, 4, 52, 127
2, 138584, Note_on_c, 7, 55, 127
2, 138726, Note_off_c, 7, 55, 127
2, 138726, Note_off_c, 4, 76, 127
2, 138728, Note_on_c, 6, 54, 127
2, 138728, Note_on_c, 3, 75, 127
2, 138870, Note_off_c, 6, 54, 127
2, 138872, Note_on_c, 4, 52, 127
2, 139014, Note_off_c, 4, 52, 127
2, 139014, Note_off_c, 3, 75, 127
2, 139016, Note_on_c, 6, 54, 127
2, 139016, Note_on_c, 10, 81, 127
2, 139158, Note_off_c, 6, 54, 127
2, 139160, Note_on_c, 3, 51, 127
2, 139302, Note_off_c, 3, 51, 127
2, 139304, Note_on_c, 4, 52, 127
2, 139446, Note_off_c, 10, 81, 127
2, 139448, Note_on_c, 7, 79, 127
2, 139590, Note_off_c, 7, 79, 127
2, 139590, Note_off_c, 4, 52, 127
2, 139592, Note_on_c, 12, 59, 127
2, 139592, Note_on_c, 10, 81, 127
2, 139734, Note_off_c, 10, 81, 127
2, 139736, Note_on_c, 6, 78, 127
2, 139878, Note_off_c, 6, 78, 127
2, 139878, Note_off_c, 12, 59, 127
2, 139880, Note_on_c, 4, 64, 127
2, 139880, Note_on_c, 7, 79, 127
2, 140022, Note_off_c, 7, 79, 127
2, 140024, Note_on_c, 6, 78, 127
2, 140166, Note_off_c, 6, 78, 127
2, 140166, Note_off_c, 4, 64, 127
2, 140168, Note_on_c, 7, 55, 127
2, 140168, Note_on_c, 7, 79, 127
2, 140310, Note_off_c, 7, 79, 127
2, 140312, Note_on_c, 4, 76, 127
2, 140454, Note_off_c, 4, 76, 127
2, 140454, Note_off_c, 7, 55, 127
2, 140456, Note_on_c, 10, 57, 127
2, 140456, Note_on_c, 6, 78, 127
2, 140598, Note_off_c, 6, 78, 127
2, 140600, Note_on_c, 4, 76, 127
2, 140742, Note_off_c, 4, 76, 127
2, 140742, Note_off_c, 10, 57, 127
2, 140744, Note_on_c, 12, 59, 127
2, 140744, Note_on_c, 6, 78, 127
2, 140886, Note_off_c, 6, 78, 127
2, 140888, Note_on_c, 3, 75, 127
2, 141030, Note_off_c, 3, 75, 127
2, 141030, Note_off_c, 12, 59, 127
2, 141032, Note_on_c, 0, 60, 127
2, 141032, Note_on_c, 4, 76, 127
2, 141174, Note_off_c, 4, 76, 127
2, 141176, Note_on_c, 3, 75, 127
2, 141318, Note_off_c, 3, 75, 127
2, 141318, Note_off_c, 0, 60, 127
2, 141320, Note_on_c, 7, 55, 127
2, 141320, Note_on_c, 4, 76, 127
2, 141462, Note_off_c, 4, 76, 127
2, 141464, Note_on_c, 12, 71, 127
2, 141606, Note_off_c, 12, 71, 127
2, 141606, Note_off_c, 7, 55, 127
2, 141608, Note_on_c, 10, 57, 127
2, 141608, Note_on_c, 0, 72, 127
2, 141750, Note_off_c, 0, 72, 127
2, 141752, Note_on_c, 12, 71, 127
2, 141894, Note_off_c, 12, 71, 127
2, 141894, Note_off_c, 10, 57, 127
2, 141896, Note_on_c, 6, 54, 127
2, 141896, Note_on_c, 0, 72, 127
2, 142040, Note_on_c, 4, 64, 127
2, 142182, Note_off_c, 4, 64, 127
2, 142182, Note_off_c, 6, 54, 127
2, 142184, Note_on_c, 12, 59, 127
2, 142184, Note_on_c, 3, 63, 127
2, 142316, Note_off_c, 0, 72, 127
2, 142328, Note_on_c, 6, 66, 127
2, 142469, Note_off_c, 3, 63, 127
2, 142471, Note_off_c, 6, 66, 127
2, 142471, Note_off_c, 12, 59, 127
2, 142473, Note_on_c, 3, 63, 127
2, 142473, Note_on_c, 12, 71, 127
2, 142615, Note_off_c, 12, 71, 127
2, 142617, Note_on_c, 10, 69, 127
2, 142759, Note_off_c, 10, 69, 127
2, 142759, Note_off_c, 3, 63, 127
2, 142761, Note_on_c, 4, 64, 127
2, 142761, Note_on_c, 7, 67, 127
2, 142903, Note_off_c, 7, 67, 127
2, 142905, Note_on_c, 6, 66, 127
2, 143047, Note_off_c, 6, 66, 127
2, 143049, Note_on_c, 7, 67, 127
2, 143181, Note_off_c, 4, 64, 127
2, 143191, Note_off_c, 7, 67, 127
2, 143193, Note_on_c, 4, 64, 127
2, 143337, Note_on_c, 4, 76, 127
2, 143478, Note_off_c, 4, 64, 127
2, 143480, Note_off_c, 4, 76, 127
2, 143482, Note_on_c, 3, 75, 127
2, 143624, Note_off_c, 3, 75, 127
2, 143626, Note_on_c, 7, 55, 127
2, 143626, Note_on_c, 4, 76, 127
2, 143768, Note_off_c, 4, 76, 127
2, 143768, Note_off_c, 7, 55, 127
2, 143770, Note_on_c, 10, 57, 127
2, 143770, Note_on_c, 6, 78, 127
2, 143912, Note_off_c, 6, 78, 127
2, 143912, Note_off_c, 10, 57, 127
2, 143914, Note_on_c, 12, 59, 127
2, 143914, Note_on_c, 3, 75, 127
2, 144056, Note_off_c, 3, 75, 127
2, 144058, Note_on_c, 4, 76, 127
2, 144200, Note_off_c, 4, 76, 127
2, 144200, Note_off_c, 12, 59, 127
2, 144202, Note_on_c, 12, 59, 127
2, 144202, Note_on_c, 1, 73, 127
2, 144344, Note_off_c, 1, 73, 127
2, 144346, Note_on_c, 4, 76, 127
2, 144488, Note_off_c, 4, 76, 127
2, 144488, Note_off_c, 12, 59, 127
2, 144490, Note_on_c, 12, 59, 127
2, 144490, Note_on_c, 3, 75, 127
2, 144632, Note_off_c, 3, 75, 127
2, 144634, Note_on_c, 1, 73, 127
2, 144776, Note_off_c, 1, 73, 127
2, 144776, Note_off_c, 12, 59, 127
2, 144778, Note_on_c, 12, 59, 127
2, 144778, Note_on_c, 3, 75, 127
2, 144920, Note_off_c, 3, 75, 127
2, 144920, Note_off_c, 12, 59, 127
2, 144922, Note_on_c, 0, 60, 127
2, 144922, Note_on_c, 12, 71, 127
2, 145064, Note_off_c, 12, 71, 127
2, 145064, Note_off_c, 0, 60, 127
2, 145066, Note_on_c, 12, 59, 127
2, 145066, Note_on_c, 7, 79, 127
2, 145208, Note_off_c, 12, 59, 127
2, 145210, Note_on_c, 10, 57, 127
2, 145210, Note_on_c, 6, 78, 127
2, 145352, Note_off_c, 6, 78, 127
2, 145352, Note_off_c, 10, 57, 127
2, 145354, Note_on_c, 7, 55, 127
2, 145354, Note_on_c, 4, 76, 127
2, 145496, Note_off_c, 4, 76, 127
2, 145496, Note_off_c, 7, 55, 127
2, 145498, Note_on_c, 6, 54, 127
2, 145498, Note_on_c, 3, 75, 127
2, 145636, Note_off_c, 7, 79, 127
2, 145640, Note_off_c, 3, 75, 127
2, 145640, Note_off_c, 6, 54, 127
2, 145642, Note_on_c, 4, 52, 127
2, 145642, Note_on_c, 4, 76, 127
2, 145784, Note_off_c, 4, 52, 127
2, 145786, Note_on_c, 12, 59, 127
2, 145928, Note_off_c, 12, 59, 127
2, 145930, Note_on_c, 10, 57, 127
2, 145930, Note_on_c, 8, 80, 127
2, 146072, Note_off_c, 10, 57, 127
2, 146074, Note_on_c, 12, 59, 127
2, 146216, Note_off_c, 12, 59, 127
2, 146216, Note_off_c, 8, 80, 127
2, 146218, Note_on_c, 0, 60, 127
2, 146218, Note_on_c, 10, 81, 127
2, 146360, Note_off_c, 0, 60, 127
2, 146360, Note_off_c, 4, 76, 127
2, 146362, Note_on_c, 12, 59, 127
2, 146362, Note_on_c, 7, 79, 127
2, 146504, Note_off_c, 7, 79, 127
2, 146504, Note_off_c, 12, 59, 127
2, 146506, Note_on_c, 10, 57, 127
2, 146506, Note_on_c, 6, 78, 127
2, 146648, Note_off_c, 6, 78, 127
2, 146648, Note_off_c, 10, 57, 127
2, 146650, Note_on_c, 7, 55, 127
2, 146650, Note_on_c, 4, 76, 127
2, 146788, Note_off_c, 10, 81, 127
2, 146792, Note_off_c, 4, 76, 127
2, 146792, Note_off_c, 7, 55, 127
2, 146794, Note_on_c, 6, 54, 127
2, 146794, Note_on_c, 6, 78, 127
2, 146936, Note_off_c, 6, 54, 127
2, 146938, Note_on_c, 1, 61, 127
2, 147080, Note_off_c, 1, 61, 127
2, 147082, Note_on_c, 12, 59, 127
2, 147082, Note_on_c, 11, 82, 127
2, 147224, Note_off_c, 12, 59, 127
2, 147226, Note_on_c, 1, 61, 127
2, 147368, Note_off_c, 1, 61, 127
2, 147368, Note_off_c, 11, 82, 127
2, 147370, Note_on_c, 2, 62, 127
2, 147370, Note_on_c, 12, 83, 127
2, 147512, Note_off_c, 2, 62, 127
2, 147512, Note_off_c, 6, 78, 127
2, 147514, Note_on_c, 0, 60, 127
2, 147514, Note_on_c, 10, 81, 127
2, 147656, Note_off_c, 10, 81, 127
2, 147656, Note_off_c, 0, 60, 127
2, 147658, Note_on_c, 12, 59, 127
2, 147658, Note_on_c, 7, 79, 127
2, 147800, Note_off_c, 7, 79, 127
2, 147800, Note_off_c, 12, 59, 127
2, 147802, Note_on_c, 10, 57, 127
2, 147802, Note_on_c, 6, 78, 127
2, 147940, Note_off_c, 12, 83, 127
2, 147944, Note_off_c, 6, 78, 127
2, 147944, Note_off_c, 10, 57, 127
2, 147946, Note_on_c, 7, 55, 127
2, 147946, Note_on_c, 4, 76, 127
2, 148088, Note_off_c, 7, 55, 127
2, 148090, Note_on_c, 3, 63, 127
2, 148232, Note_off_c, 3, 63, 127
2, 148232, Note_off_c, 4, 76, 127
2, 148234, Note_on_c, 1, 61, 127
2, 148234, Note_on_c, 6, 78, 127
2, 148234, Note_on_c, 10, 81, 127
2, 148376, Note_off_c, 1, 61, 127
2, 148378, Note_on_c, 3, 63, 127
2, 148520, Note_off_c, 3, 63, 127
2, 148520, Note_off_c, 10, 81, 127
2, 148520, Note_off_c, 6, 78, 127
2, 148522, Note_on_c, 4, 64, 127
2, 148522, Note_on_c, 12, 71, 127
2, 148522, Note_on_c, 7, 79, 127
2, 148808, Note_off_c, 7, 79, 127
2, 148808, Note_off_c, 4, 64, 127
2, 148810, Note_on_c, 2, 62, 127
2, 148810, Note_on_c, 6, 78, 127
2, 148952, Note_off_c, 6, 78, 127
2, 148952, Note_off_c, 2, 62, 127
2, 148954, Note_on_c, 0, 60, 127
2, 148954, Note_on_c, 4, 76, 127
2, 149096, Note_off_c, 4, 76, 127
2, 149096, Note_off_c, 0, 60, 127
2, 149098, Note_on_c, 12, 59, 127
2, 149098, Note_on_c, 3, 75, 127
2, 149240, Note_off_c, 12, 59, 127
2, 149242, Note_on_c, 0, 60, 127
2, 149384, Note_off_c, 0, 60, 127
2, 149384, Note_off_c, 3, 75, 127
2, 149386, Note_on_c, 10, 57, 127
2, 149386, Note_on_c, 6, 78, 127
2, 149528, Note_off_c, 10, 57, 127
2, 149530, Note_on_c, 12, 59, 127
2, 149672, Note_off_c, 12, 59, 127
2, 149674, Note_on_c, 7, 55, 127
2, 149816, Note_off_c, 7, 55, 127
2, 149818, Note_on_c, 10, 57, 127
2, 149960, Note_off_c, 10, 57, 127
2, 149960, Note_off_c, 6, 78, 127
2, 149962, Note_on_c, 6, 54, 127
2, 149962, Note_on_c, 4, 76, 127
2, 150104, Note_off_c, 4, 76, 127
2, 150104, Note_off_c, 6, 54, 127
2, 150106, Note_on_c, 10, 57, 127
2, 150106, Note_on_c, 3, 75, 127
2, 150248, Note_off_c, 3, 75, 127
2, 150248, Note_off_c, 10, 57, 127
2, 150250, Note_on_c, 7, 55, 127
2, 150250, Note_on_c, 4, 76, 127
2, 150392, Note_off_c, 7, 55, 127
2, 150394, Note_on_c, 6, 54, 127
2, 150536, Note_off_c, 6, 54, 127
2, 150536, Note_off_c, 4, 76, 127
2, 150538, Note_on_c, 8, 56, 127
2, 150538, Note_on_c, 2, 74, 127
2, 150680, Note_off_c, 8, 56, 127
2, 150682, Note_on_c, 4, 52, 127
2, 150824, Note_off_c, 4, 52, 127
2, 150824, Note_off_c, 2, 74, 127
2, 150826, Note_on_c, 10, 57, 127
2, 150826, Note_on_c, 0, 72, 127
2, 150968, Note_off_c, 10, 57, 127
2, 150970, Note_on_c, 12, 59, 127
2, 151112, Note_off_c, 12, 59, 127
2, 151112, Note_off_c, 12, 71, 127
2, 151114, Note_on_c, 7, 55, 127
2, 151114, Note_on_c, 10, 69, 127
2, 151256, Note_off_c, 10, 69, 127
2, 151256, Note_off_c, 7, 55, 127
2, 151258, Note_on_c, 12, 59, 127
2, 151258, Note_on_c, 8, 68, 127
2, 151400, Note_off_c, 8, 68, 127
2, 151400, Note_off_c, 12, 59, 127
2, 151402, Note_on_c, 10, 57, 127
2, 151402, Note_on_c, 10, 69, 127
2, 151544, Note_off_c, 10, 69, 127
2, 151544, Note_off_c, 10, 57, 127
2, 151546, Note_on_c, 7, 55, 127
2, 151546, Note_on_c, 4, 64, 127
2, 151688, Note_off_c, 4, 64, 127
2, 151688, Note_off_c, 7, 55, 127
2, 151688, Note_off_c, 0, 72, 127
2, 151690, Note_on_c, 10, 57, 127
2, 151690, Note_on_c, 6, 66, 127
2, 151832, Note_off_c, 10, 57, 127
2, 151834, Note_on_c, 6, 54, 127
2, 151834, Note_on_c, 10, 69, 127
2, 151976, Note_off_c, 6, 54, 127
2, 151976, Note_off_c, 6, 66, 127
2, 151978, Note_on_c, 12, 59, 127
2, 151978, Note_on_c, 3, 63, 127
2, 152120, Note_off_c, 10, 69, 127
2, 152122, Note_on_c, 10, 69, 127
2, 152264, Note_off_c, 10, 69, 127
2, 152264, Note_off_c, 3, 63, 127
2, 152264, Note_off_c, 12, 59, 127
2, 152266, Note_on_c, 10, 57, 127
2, 152266, Note_on_c, 4, 64, 127
2, 152266, Note_on_c, 7, 67, 127
2, 152408, Note_off_c, 7, 67, 127
2, 152410, Note_on_c, 10, 69, 127
2, 152552, Note_off_c, 10, 69, 127
2, 152552, Note_off_c, 10, 57, 127
2, 152554, Note_on_c, 12, 59, 127
2, 152554, Note_on_c, 7, 67, 127
2, 152612, Note_on_c, 6, 66, 127
2, 152618, Note_off_c, 7, 67, 127
2, 152670, Note_on_c, 7, 67, 127
2, 152676, Note_off_c, 6, 66, 127
2, 152728, Note_on_c, 6, 66, 127
2, 152734, Note_off_c, 7, 67, 127
2, 152840, Note_off_c, 12, 59, 127
2, 152840, Note_off_c, 4, 64, 127
2, 152842, Note_on_c, 12, 47, 127
2, 152842, Note_on_c, 3, 63, 127
2, 152983, Note_off_c, 6, 66, 127
2, 152986, Note_on_c, 4, 64, 127
2, 153128, Note_off_c, 4, 64, 127
2, 153128, Note_off_c, 3, 63, 127
2, 153128, Note_off_c, 12, 47, 127
2, 153130, Note_on_c, 4, 40, 127
2, 153130, Note_on_c, 4, 64, 127
2, 153274, Note_on_c, 3, 63, 127
2, 153415, Note_off_c, 4, 64, 127
2, 153417, Note_off_c, 3, 63, 127
2, 153417, Note_off_c, 4, 40, 127
2, 153419, Note_on_c, 4, 52, 127
2, 153419, Note_on_c, 4, 64, 127
2, 153561, Note_off_c, 4, 64, 127
2, 153563, Note_on_c, 12, 59, 127
2, 153705, Note_off_c, 12, 59, 127
2, 153705, Note_off_c, 4, 52, 127
2, 153707, Note_on_c, 3, 51, 127
2, 153707, Note_on_c, 6, 66, 127
2, 153849, Note_off_c, 6, 66, 127
2, 153851, Note_on_c, 4, 64, 127
2, 153993, Note_off_c, 4, 64, 127
2, 153993, Note_off_c, 3, 51, 127
2, 153995, Note_on_c, 12, 47, 127
2, 153995, Note_on_c, 6, 66, 127
2, 154137, Note_off_c, 6, 66, 127
2, 154139, Note_on_c, 12, 59, 127
2, 154281, Note_off_c, 12, 59, 127
2, 154281, Note_off_c, 12, 47, 127
2, 154283, Note_on_c, 4, 52, 127
2, 154283, Note_on_c, 7, 67, 127
2, 154425, Note_off_c, 4, 52, 127
2, 154427, Note_on_c, 3, 51, 127
2, 154538, Note_off_c, 7, 67, 127
2, 154570, Note_off_c, 3, 51, 127
2, 154572, Note_on_c, 4, 52, 127
2, 154572, Note_on_c, 4, 64, 127
2, 154714, Note_off_c, 4, 52, 127
2, 154716, Note_on_c, 12, 47, 127
2, 154857, Note_off_c, 4, 64, 127
2, 154859, Note_off_c, 12, 47, 127
2, 154861, Note_on_c, 6, 54, 127
2, 155003, Note_off_c, 6, 54, 127
2, 155005, Note_on_c, 4, 52, 127
2, 155147, Note_off_c, 4, 52, 127
2, 155149, Note_on_c, 6, 54, 127
2, 155149, Note_on_c, 3, 63, 127
2, 155291, Note_off_c, 6, 54, 127
2, 155293, Note_on_c, 12, 47, 127
2, 155435, Note_off_c, 12, 47, 127
2, 155435, Note_off_c, 3, 63, 127
2, 155437, Note_on_c, 7, 55, 127
2, 155437, Note_on_c, 4, 64, 127
2, 155579, Note_off_c, 4, 64, 127
2, 155581, Note_on_c, 3, 63, 127
2, 155723, Note_off_c, 3, 63, 127
2, 155723, Note_off_c, 7, 55, 127
2, 155725, Note_on_c, 4, 52, 127
2, 155725, Note_on_c, 4, 64, 127
2, 155867, Note_off_c, 4, 64, 127
2, 155869, Note_on_c, 12, 59, 127
2, 156011, Note_off_c, 12, 59, 127
2, 156011, Note_off_c, 4, 52, 127
2, 156013, Note_on_c, 3, 51, 127
2, 156013, Note_on_c, 6, 66, 127
2, 156155, Note_off_c, 6, 66, 127
2, 156157, Note_on_c, 4, 64, 127
2, 156299, Note_off_c, 4, 64, 127
2, 156299, Note_off_c, 3, 51, 127
2, 156301, Note_on_c, 12, 47, 127
2, 156301, Note_on_c, 6, 66, 127
2, 156443, Note_off_c, 6, 66, 127
2, 156445, Note_on_c, 12, 59, 127
2, 156587, Note_off_c, 12, 59, 127
2, 156587, Note_off_c, 12, 47, 127
2, 156589, Note_on_c, 4, 52, 127
2, 156589, Note_on_c, 7, 67, 127
2, 156731, Note_off_c, 7, 67, 127
2, 156733, Note_on_c, 6, 66, 127
2, 156875, Note_off_c, 6, 66, 127
2, 156875, Note_off_c, 4, 52, 127
2, 156877, Note_on_c, 4, 40, 127
2, 156877, Note_on_c, 7, 67, 127
2, 157019, Note_off_c, 7, 67, 127
2, 157021, Note_on_c, 12, 59, 127
2, 157163, Note_off_c, 4, 40, 127
2, 157165, Note_on_c, 6, 42, 127
2, 157165, Note_on_c, 10, 69, 127
2, 157174, Note_off_c, 12, 59, 127
2, 157308, Note_off_c, 10, 69, 127
2, 157310, Note_on_c, 7, 67, 127
2, 157452, Note_off_c, 7, 67, 127
2, 157452, Note_off_c, 6, 42, 127
2, 157454, Note_on_c, 6, 54, 127
2, 157454, Note_on_c, 10, 69, 127
2, 157596, Note_off_c, 10, 69, 127
2, 157598, Note_on_c, 12, 59, 127
2, 157740, Note_off_c, 12, 59, 127
2, 157740, Note_off_c, 6, 54, 127
2, 157742, Note_on_c, 7, 55, 127
2, 157742, Note_on_c, 12, 71, 127
2, 157884, Note_off_c, 12, 71, 127
2, 157886, Note_on_c, 10, 69, 127
2, 158028, Note_off_c, 10, 69, 127
2, 158028, Note_off_c, 7, 55, 127
2, 158030, Note_on_c, 4, 52, 127
2, 158030, Note_on_c, 12, 71, 127
2, 158172, Note_off_c, 12, 71, 127
2, 158174, Note_on_c, 12, 59, 127
2, 158316, Note_off_c, 12, 59, 127
2, 158316, Note_off_c, 4, 52, 127
2, 158318, Note_on_c, 10, 57, 127
2, 158318, Note_on_c, 1, 61, 127
2, 158460, Note_off_c, 1, 61, 127
2, 158462, Note_on_c, 4, 64, 127
2, 158604, Note_off_c, 4, 64, 127
2, 158604, Note_off_c, 10, 57, 127
2, 158606, Note_on_c, 7, 55, 127
2, 158606, Note_on_c, 6, 66, 127
2, 158748, Note_off_c, 6, 66, 127
2, 158750, Note_on_c, 7, 67, 127
2, 158892, Note_off_c, 7, 67, 127
2, 158892, Note_off_c, 7, 55, 127
2, 158894, Note_on_c, 6, 54, 127
2, 158894, Note_on_c, 10, 69, 127
2, 159036, Note_off_c, 10, 69, 127
2, 159038, Note_on_c, 7, 67, 127
2, 159180, Note_off_c, 7, 67, 127
2, 159180, Note_off_c, 6, 54, 127
2, 159182, Note_on_c, 4, 52, 127
2, 159182, Note_on_c, 10, 69, 127
2, 159324, Note_off_c, 10, 69, 127
2, 159326, Note_on_c, 1, 61, 127
2, 159468, Note_off_c, 1, 61, 127
2, 159468, Note_off_c, 4, 52, 127
2, 159470, Note_on_c, 6, 54, 127
2, 159470, Note_on_c, 3, 63, 127
2, 159612, Note_off_c, 3, 63, 127
2, 159614, Note_on_c, 6, 66, 127
2, 159756, Note_off_c, 6, 66, 127
2, 159756, Note_off_c, 6, 54, 127
2, 159758, Note_on_c, 12, 47, 127
2, 159758, Note_on_c, 12, 71, 127
2, 159900, Note_off_c, 12, 71, 127
2, 159902, Note_on_c, 10, 69, 127
2, 160044, Note_off_c, 10, 69, 127
2, 160044, Note_off_c, 12, 47, 127
2, 160046, Note_on_c, 4, 52, 127
2, 160046, Note_on_c, 7, 67, 127
2, 160188, Note_off_c, 4, 52, 127
2, 160190, Note_on_c, 3, 51, 127
2, 160332, Note_off_c, 3, 51, 127
2, 160332, Note_off_c, 7, 67, 127
2, 160334, Note_on_c, 4, 52, 127
2, 160334, Note_on_c, 4, 76, 127
2, 160476, Note_off_c, 4, 52, 127
2, 160478, Note_on_c, 12, 47, 127
2, 160620, Note_off_c, 12, 47, 127
2, 160620, Note_off_c, 4, 76, 127
2, 160622, Note_on_c, 6, 54, 127
2, 160622, Note_on_c, 10, 69, 127
2, 160764, Note_off_c, 6, 54, 127
2, 160766, Note_on_c, 4, 52, 127
2, 160908, Note_off_c, 4, 52, 127
2, 160908, Note_off_c, 10, 69, 127
2, 160910, Note_on_c, 6, 54, 127
2, 160910, Note_on_c, 4, 76, 127
2, 161052, Note_off_c, 4, 76, 127
2, 161052, Note_off_c, 6, 54, 127
2, 161054, Note_on_c, 12, 47, 127
2, 161054, Note_on_c, 3, 75, 127
2, 161196, Note_off_c, 3, 75, 127
2, 161196, Note_off_c, 12, 47, 127
2, 161198, Note_on_c, 7, 55, 127
2, 161198, Note_on_c, 4, 76, 127
2, 161340, Note_off_c, 7, 55, 127
2, 161342, Note_on_c, 6, 54, 127
2, 161484, Note_off_c, 6, 54, 127
2, 161484, Note_off_c, 4, 76, 127
2, 161486, Note_on_c, 7, 55, 127
2, 161486, Note_on_c, 12, 71, 127
2, 161628, Note_off_c, 7, 55, 127
2, 161630, Note_on_c, 12, 47, 127
2, 161772, Note_off_c, 12, 47, 127
2, 161772, Note_off_c, 12, 71, 127
2, 161774, Note_on_c, 10, 57, 127
2, 161774, Note_on_c, 0, 72, 127
2, 161916, Note_off_c, 0, 72, 127
2, 161916, Note_off_c, 10, 57, 127
2, 161918, Note_on_c, 7, 55, 127
2, 161918, Note_on_c, 4, 64, 127
2, 162060, Note_off_c, 4, 64, 127
2, 162060, Note_off_c, 7, 55, 127
2, 162062, Note_on_c, 10, 57, 127
2, 162062, Note_on_c, 6, 66, 127
2, 162204, Note_off_c, 6, 66, 127
2, 162204, Note_off_c, 10, 57, 127
2, 162206, Note_on_c, 12, 47, 127
2, 162206, Note_on_c, 10, 69, 127
2, 162348, Note_off_c, 10, 69, 127
2, 162348, Note_off_c, 12, 47, 127
2, 162350, Note_on_c, 12, 59, 127
2, 162350, Note_on_c, 3, 63, 127
2, 162492, Note_off_c, 3, 63, 127
2, 162494, Note_on_c, 10, 69, 127
2, 162636, Note_off_c, 10, 69, 127
2, 162636, Note_off_c, 12, 59, 127
2, 162638, Note_on_c, 0, 60, 127
2, 162638, Note_on_c, 7, 67, 127
2, 162780, Note_off_c, 7, 67, 127
2, 162782, Note_on_c, 6, 66, 127
2, 162924, Note_off_c, 6, 66, 127
2, 162924, Note_off_c, 0, 60, 127
2, 162926, Note_on_c, 10, 57, 127
2, 162926, Note_on_c, 7, 67, 127
2, 162974, Note_on_c, 6, 66, 127
2, 162980, Note_off_c, 7, 67, 127
2, 163022, Note_on_c, 7, 67, 127
2, 163028, Note_off_c, 6, 66, 127
2, 163070, Note_on_c, 6, 66, 127
2, 163070, Note_on_c, 10, 69, 127
2, 163076, Note_off_c, 7, 67, 127
2, 163212, Note_off_c, 10, 57, 127
2, 163214, Note_on_c, 12, 59, 127
2, 163214, Note_on_c, 12, 71, 127
2, 163355, Note_off_c, 10, 69, 127
2, 163357, Note_off_c, 12, 71, 127
2, 163359, Note_on_c, 0, 72, 127
2, 163491, Note_off_c, 6, 66, 127
2, 163501, Note_off_c, 0, 72, 127
2, 163501, Note_off_c, 12, 59, 127
2, 163503, Note_on_c, 8, 56, 127
2, 163503, Note_on_c, 4, 64, 127
2, 163503, Note_on_c, 2, 74, 127
2, 163789, Note_off_c, 2, 74, 127
2, 163789, Note_off_c, 8, 56, 127
2, 163791, Note_on_c, 6, 54, 127
2, 163791, Note_on_c, 2, 74, 127
2, 164077, Note_off_c, 2, 74, 127
2, 164077, Note_off_c, 6, 54, 127
2, 164077, Note_off_c, 4, 64, 127
2, 164079, Note_on_c, 4, 52, 127
2, 164079, Note_on_c, 8, 56, 127
2, 164079, Note_on_c, 2, 74, 127
2, 164365, Note_off_c, 2, 74, 127
2, 164365, Note_off_c, 4, 52, 127
2, 164367, Note_on_c, 2, 50, 127
2, 164367, Note_on_c, 2, 74, 127
2, 164509, Note_off_c, 2, 74, 127
2, 164511, Note_on_c, 5, 77, 127
2, 164653, Note_off_c, 5, 77, 127
2, 164653, Note_off_c, 2, 50, 127
2, 164655, Note_on_c, 0, 48, 127
2, 164655, Note_on_c, 4, 76, 127
2, 164797, Note_off_c, 4, 76, 127
2, 164799, Note_on_c, 2, 74, 127
2, 164941, Note_off_c, 2, 74, 127
2, 164941, Note_off_c, 8, 56, 127
2, 164943, Note_on_c, 10, 57, 127
2, 164943, Note_on_c, 0, 72, 127
2, 165085, Note_off_c, 0, 72, 127
2, 165085, Note_off_c, 10, 57, 127
2, 165087, Note_on_c, 8, 56, 127
2, 165087, Note_on_c, 12, 71, 127
2, 165229, Note_off_c, 12, 71, 127
2, 165229, Note_off_c, 8, 56, 127
2, 165231, Note_on_c, 10, 57, 127
2, 165231, Note_on_c, 10, 69, 127
2, 165315, Note_off_c, 0, 48, 127
2, 165373, Note_off_c, 10, 69, 127
2, 165375, Note_on_c, 4, 76, 127
2, 165517, Note_off_c, 4, 76, 127
2, 165519, Note_on_c, 1, 49, 127
2, 165519, Note_on_c, 2, 74, 127
2, 165661, Note_off_c, 2, 74, 127
2, 165663, Note_on_c, 4, 76, 127
2, 165805, Note_off_c, 4, 76, 127
2, 165805, Note_off_c, 1, 49, 127
2, 165807, Note_on_c, 2, 50, 127
2, 165807, Note_on_c, 5, 77, 127
2, 165949, Note_off_c, 5, 77, 127
2, 165951, Note_on_c, 4, 76, 127
2, 166093, Note_off_c, 4, 76, 127
2, 166093, Note_off_c, 10, 57, 127
2, 166095, Note_on_c, 12, 59, 127
2, 166095, Note_on_c, 2, 74, 127
2, 166237, Note_off_c, 2, 74, 127
2, 166237, Note_off_c, 12, 59, 127
2, 166239, Note_on_c, 10, 57, 127
2, 166239, Note_on_c, 0, 72, 127
2, 166381, Note_off_c, 0, 72, 127
2, 166381, Note_off_c, 10, 57, 127
2, 166383, Note_on_c, 12, 59, 127
2, 166383, Note_on_c, 12, 71, 127
2, 166467, Note_off_c, 2, 50, 127
2, 166525, Note_off_c, 12, 71, 127
2, 166527, Note_on_c, 6, 78, 127
2, 166669, Note_off_c, 6, 78, 127
2, 166671, Note_on_c, 3, 51, 127
2, 166671, Note_on_c, 4, 76, 127
2, 166813, Note_off_c, 4, 76, 127
2, 166815, Note_on_c, 6, 78, 127
2, 166957, Note_off_c, 6, 78, 127
2, 166957, Note_off_c, 3, 51, 127
2, 166959, Note_on_c, 4, 52, 127
2, 166959, Note_on_c, 7, 79, 127
2, 167101, Note_off_c, 7, 79, 127
2, 167103, Note_on_c, 5, 77, 127
2, 167245, Note_off_c, 5, 77, 127
2, 167245, Note_off_c, 12, 59, 127
2, 167247, Note_on_c, 0, 60, 127
2, 167247, Note_on_c, 4, 76, 127
2, 167389, Note_off_c, 4, 76, 127
2, 167389, Note_off_c, 0, 60, 127
2, 167391, Note_on_c, 12, 59, 127
2, 167391, Note_on_c, 2, 74, 127
2, 167533, Note_off_c, 2, 74, 127
2, 167533, Note_off_c, 12, 59, 127
2, 167535, Note_on_c, 0, 60, 127
2, 167535, Note_on_c, 0, 72, 127
2, 167619, Note_off_c, 4, 52, 127
2, 167677, Note_off_c, 0, 72, 127
2, 167679, Note_on_c, 8, 80, 127
2, 167821, Note_off_c, 8, 80, 127
2, 167823, Note_on_c, 4, 52, 127
2, 167823, Note_on_c, 6, 78, 127
2, 167965, Note_off_c, 6, 78, 127
2, 167967, Note_on_c, 8, 80, 127
2, 168109, Note_off_c, 8, 80, 127
2, 168109, Note_off_c, 4, 52, 127
2, 168111, Note_on_c, 5, 53, 127
2, 168111, Note_on_c, 10, 81, 127
2, 168397, Note_off_c, 10, 81, 127
2, 168397, Note_off_c, 5, 53, 127
2, 168397, Note_off_c, 0, 60, 127
2, 168399, Note_on_c, 6, 54, 127
2, 168399, Note_on_c, 12, 59, 127
2, 168399, Note_on_c, 7, 79, 127
2, 168541, Note_off_c, 7, 79, 127
2, 168541, Note_off_c, 12, 59, 127
2, 168543, Note_on_c, 10, 57, 127
2, 168543, Note_on_c, 6, 78, 127
2, 168685, Note_off_c, 6, 78, 127
2, 168685, Note_off_c, 10, 57, 127
2, 168685, Note_off_c, 6, 54, 127
2, 168687, Note_on_c, 7, 55, 127
2, 168687, Note_on_c, 12, 59, 127
2, 168687, Note_on_c, 4, 76, 127
2, 168829, Note_off_c, 4, 76, 127
2, 168831, Note_on_c, 5, 77, 127
2, 168973, Note_off_c, 5, 77, 127
2, 168973, Note_off_c, 7, 55, 127
2, 168975, Note_on_c, 8, 56, 127
2, 168975, Note_on_c, 2, 74, 127
2, 169117, Note_off_c, 2, 74, 127
2, 169119, Note_on_c, 4, 76, 127
2, 169257, Note_off_c, 12, 59, 127
2, 169261, Note_off_c, 4, 76, 127
2, 169261, Note_off_c, 8, 56, 127
2, 169263, Note_on_c, 10, 57, 127
2, 169263, Note_on_c, 0, 72, 127
2, 169407, Note_on_c, 10, 69, 127
2, 169549, Note_off_c, 10, 69, 127
2, 169551, Note_on_c, 7, 67, 127
2, 169693, Note_off_c, 7, 67, 127
2, 169695, Note_on_c, 5, 65, 127
2, 169837, Note_off_c, 5, 65, 127
2, 169839, Note_on_c, 4, 64, 127
2, 169981, Note_off_c, 4, 64, 127
2, 169981, Note_off_c, 0, 72, 127
2, 169983, Note_on_c, 5, 65, 127
2, 169983, Note_on_c, 2, 74, 127
2, 170125, Note_off_c, 2, 74, 127
2, 170125, Note_off_c, 5, 65, 127
2, 170127, Note_on_c, 2, 62, 127
2, 170127, Note_on_c, 12, 71, 127
2, 170269, Note_off_c, 12, 71, 127
2, 170269, Note_off_c, 2, 62, 127
2, 170271, Note_on_c, 4, 64, 127
2, 170271, Note_on_c, 0, 72, 127
2, 170413, Note_off_c, 0, 72, 127
2, 170413, Note_off_c, 4, 64, 127
2, 170415, Note_on_c, 0, 60, 127
2, 170415, Note_on_c, 10, 69, 127
2, 170557, Note_off_c, 10, 69, 127
2, 170559, Note_on_c, 4, 76, 127
2, 170701, Note_off_c, 4, 76, 127
2, 170701, Note_off_c, 0, 60, 127
2, 170703, Note_on_c, 4, 64, 127
2, 170703, Note_on_c, 2, 74, 127
2, 170845, Note_off_c, 2, 74, 127
2, 170847, Note_on_c, 0, 72, 127
2, 170989, Note_off_c, 0, 72, 127
2, 170989, Note_off_c, 4, 64, 127
2, 170989, Note_off_c, 10, 57, 127
2, 170991, Note_on_c, 2, 50, 127
2, 170991, Note_on_c, 2, 62, 127
2, 170991, Note_on_c, 12, 71, 127
2, 171133, Note_off_c, 12, 71, 127
2, 171135, Note_on_c, 0, 72, 127
2, 171277, Note_off_c, 0, 72, 127
2, 171277, Note_off_c, 2, 62, 127
2, 171279, Note_on_c, 0, 60, 127
2, 171279, Note_on_c, 10, 69, 127
2, 171421, Note_off_c, 10, 69, 127
2, 171423, Note_on_c, 12, 71, 127
2, 171565, Note_off_c, 12, 71, 127
2, 171565, Note_off_c, 0, 60, 127
2, 171567, Note_on_c, 12, 59, 127
2, 171567, Note_on_c, 8, 68, 127
2, 171651, Note_off_c, 2, 50, 127
2, 171711, Note_on_c, 5, 53, 127
2, 171853, Note_off_c, 5, 53, 127
2, 171855, Note_on_c, 4, 52, 127
2, 171997, Note_off_c, 4, 52, 127
2, 171999, Note_on_c, 2, 50, 127
2, 172141, Note_off_c, 2, 50, 127
2, 172141, Note_off_c, 8, 68, 127
2, 172141, Note_off_c, 12, 59, 127
2, 172143, Note_on_c, 0, 48, 127
2, 172143, Note_on_c, 4, 64, 127
2, 172143, Note_on_c, 10, 69, 127
2, 172285, Note_off_c, 0, 48, 127
2, 172287, Note_on_c, 2, 50, 127
2, 172429, Note_off_c, 2, 50, 127
2, 172429, Note_off_c, 10, 69, 127
2, 172431, Note_on_c, 12, 47, 127
2, 172431, Note_on_c, 7, 67, 127
2, 172573, Note_off_c, 12, 47, 127
2, 172575, Note_on_c, 0, 48, 127
2, 172717, Note_off_c, 0, 48, 127
2, 172717, Note_off_c, 7, 67, 127
2, 172719, Note_on_c, 10, 45, 127
2, 172719, Note_on_c, 5, 65, 127
2, 172861, Note_off_c, 4, 64, 127
2, 172863, Note_on_c, 4, 64, 127
2, 173005, Note_off_c, 4, 64, 127
2, 173005, Note_off_c, 10, 45, 127
2, 173007, Note_on_c, 10, 57, 127
2, 173007, Note_on_c, 2, 62, 127
2, 173149, Note_off_c, 2, 62, 127
2, 173151, Note_on_c, 0, 60, 127
2, 173293, Note_off_c, 0, 60, 127
2, 173293, Note_off_c, 10, 57, 127
2, 173295, Note_on_c, 8, 56, 127
2, 173295, Note_on_c, 12, 59, 127
2, 173379, Note_off_c, 5, 65, 127
2, 173439, Note_on_c, 7, 67, 127
2, 173581, Note_off_c, 7, 67, 127
2, 173581, Note_off_c, 8, 56, 127
2, 173583, Note_on_c, 7, 55, 127
2, 173583, Note_on_c, 4, 64, 127
2, 173725, Note_off_c, 12, 59, 127
2, 173727, Note_on_c, 0, 60, 127
2, 173869, Note_off_c, 0, 60, 127
2, 173869, Note_off_c, 7, 55, 127
2, 173871, Note_on_c, 6, 54, 127
2, 173871, Note_on_c, 10, 57, 127
2, 174013, Note_off_c, 4, 64, 127
2, 174015, Note_on_c, 2, 62, 127
2, 174157, Note_off_c, 2, 62, 127
2, 174157, Note_off_c, 6, 54, 127
2, 174159, Note_on_c, 5, 53, 127
2, 174159, Note_on_c, 4, 64, 127
2, 174301, Note_off_c, 4, 64, 127
2, 174303, Note_on_c, 5, 65, 127
2, 174445, Note_off_c, 5, 65, 127
2, 174445, Note_off_c, 5, 53, 127
2, 174445, Note_off_c, 10, 57, 127
2, 174447, Note_on_c, 4, 52, 127
2, 174447, Note_on_c, 12, 59, 127
2, 174447, Note_on_c, 7, 67, 127
2, 174589, Note_off_c, 7, 67, 127
2, 174591, Note_on_c, 5, 65, 127
2, 174733, Note_off_c, 5, 65, 127
2, 174733, Note_off_c, 12, 59, 127
2, 174735, Note_on_c, 1, 61, 127
2, 174735, Note_on_c, 10, 69, 127
2, 174877, Note_off_c, 10, 69, 127
2, 174879, Note_on_c, 7, 67, 127
2, 175017, Note_off_c, 4, 52, 127
2, 175021, Note_off_c, 7, 67, 127
2, 175021, Note_off_c, 1, 61, 127
2, 175023, Note_on_c, 2, 62, 127
2, 175023, Note_on_c, 5, 65, 127
2, 175167, Note_on_c, 2, 50, 127
2, 175309, Note_off_c, 2, 50, 127
2, 175311, Note_on_c, 4, 52, 127
2, 175453, Note_off_c, 4, 52, 127
2, 175455, Note_on_c, 5, 53, 127
2, 175597, Note_off_c, 5, 53, 127
2, 175597, Note_off_c, 5, 65, 127
2, 175599, Note_on_c, 7, 55, 127
2, 175599, Note_on_c, 4, 64, 127
2, 175741, Note_off_c, 7, 55, 127
2, 175743, Note_on_c, 5, 53, 127
2, 175885, Note_off_c, 5, 53, 127
2, 175885, Note_off_c, 2, 62, 127
2, 175887, Note_on_c, 10, 57, 127
2, 175887, Note_on_c, 1, 61, 127
2, 176029, Note_off_c, 10, 57, 127
2, 176031, Note_on_c, 7, 55, 127
2, 176173, Note_off_c, 7, 55, 127
2, 176173, Note_off_c, 1, 61, 127
2, 176173, Note_off_c, 4, 64, 127
2, 176175, Note_on_c, 5, 53, 127
2, 176175, Note_on_c, 2, 62, 127
2, 176319, Note_on_c, 10, 69, 127
2, 176461, Note_off_c, 10, 69, 127
2, 176461, Note_off_c, 5, 53, 127
2, 176463, Note_on_c, 4, 52, 127
2, 176463, Note_on_c, 12, 71, 127
2, 176605, Note_off_c, 12, 71, 127
2, 176607, Note_on_c, 1, 73, 127
2, 176745, Note_off_c, 2, 62, 127
2, 176749, Note_off_c, 1, 73, 127
2, 176749, Note_off_c, 4, 52, 127
2, 176751, Note_on_c, 5, 53, 127
2, 176751, Note_on_c, 2, 74, 127
2, 176893, Note_off_c, 2, 74, 127
2, 176895, Note_on_c, 1, 73, 127
2, 177037, Note_off_c, 1, 73, 127
2, 177037, Note_off_c, 5, 53, 127
2, 177039, Note_on_c, 7, 55, 127
2, 177039, Note_on_c, 4, 76, 127
2, 177181, Note_off_c, 4, 76, 127
2, 177183, Note_on_c, 2, 74, 127
2, 177325, Note_off_c, 2, 74, 127
2, 177325, Note_off_c, 7, 55, 127
2, 177327, Note_on_c, 10, 57, 127
2, 177327, Note_on_c, 1, 73, 127
2, 177469, Note_off_c, 10, 57, 127
2, 177471, Note_on_c, 12, 59, 127
2, 177613, Note_off_c, 12, 59, 127
2, 177613, Note_off_c, 1, 73, 127
2, 177615, Note_on_c, 7, 55, 127
2, 177615, Note_on_c, 12, 71, 127
2, 177757, Note_off_c, 12, 71, 127
2, 177757, Note_off_c, 7, 55, 127
2, 177759, Note_on_c, 10, 57, 127
2, 177759, Note_on_c, 10, 69, 127
2, 177901, Note_off_c, 10, 69, 127
2, 177901, Note_off_c, 10, 57, 127
2, 177903, Note_on_c, 5, 53, 127
2, 177903, Note_on_c, 2, 74, 127
2, 178189, Note_off_c, 5, 53, 127
2, 178191, Note_on_c, 2, 50, 127
2, 178191, Note_on_c, 5, 65, 127
2, 178333, Note_off_c, 5, 65, 127
2, 178333, Note_off_c, 2, 50, 127
2, 178335, Note_on_c, 4, 52, 127
2, 178335, Note_on_c, 7, 67, 127
2, 178477, Note_off_c, 7, 67, 127
2, 178477, Note_off_c, 4, 52, 127
2, 178479, Note_on_c, 5, 53, 127
2, 178479, Note_on_c, 10, 69, 127
2, 178621, Note_off_c, 5, 53, 127
2, 178623, Note_on_c, 7, 55, 127
2, 178765, Note_off_c, 7, 55, 127
2, 178765, Note_off_c, 10, 69, 127
2, 178767, Note_on_c, 4, 52, 127
2, 178767, Note_on_c, 10, 69, 127
2, 178909, Note_off_c, 4, 52, 127
2, 178911, Note_on_c, 7, 55, 127
2, 179053, Note_off_c, 7, 55, 127
2, 179053, Note_off_c, 10, 69, 127
2, 179055, Note_on_c, 5, 53, 127
2, 179055, Note_on_c, 10, 69, 127
2, 179197, Note_off_c, 5, 53, 127
2, 179199, Note_on_c, 4, 52, 127
2, 179341, Note_off_c, 4, 52, 127
2, 179341, Note_off_c, 10, 69, 127
2, 179343, Note_on_c, 5, 53, 127
2, 179343, Note_on_c, 10, 69, 127
2, 179485, Note_off_c, 10, 69, 127
2, 179485, Note_off_c, 5, 53, 127
2, 179487, Note_on_c, 7, 55, 127
2, 179487, Note_on_c, 11, 70, 127
2, 179629, Note_off_c, 11, 70, 127
2, 179629, Note_off_c, 7, 55, 127
2, 179631, Note_on_c, 5, 53, 127
2, 179631, Note_on_c, 10, 69, 127
2, 179773, Note_off_c, 10, 69, 127
2, 179775, Note_on_c, 7, 67, 127
2, 179917, Note_off_c, 7, 67, 127
2, 179919, Note_on_c, 5, 65, 127
2, 180061, Note_off_c, 5, 65, 127
2, 180063, Note_on_c, 4, 64, 127
2, 180198, Note_off_c, 2, 74, 127
2, 180206, Note_off_c, 4, 64, 127
2, 180206, Note_off_c, 5, 53, 127
2, 180208, Note_on_c, 2, 62, 127
2, 180352, Note_on_c, 10, 69, 127
2, 180494, Note_off_c, 10, 69, 127
2, 180496, Note_on_c, 7, 67, 127
2, 180496, Note_on_c, 6, 78, 127
2, 180638, Note_off_c, 7, 67, 127
2, 180640, Note_on_c, 10, 69, 127
2, 180782, Note_off_c, 10, 69, 127
2, 180782, Note_off_c, 6, 78, 127
2, 180782, Note_off_c, 2, 62, 127
2, 180784, Note_on_c, 7, 55, 127
2, 180784, Note_on_c, 11, 70, 127
2, 180784, Note_on_c, 7, 79, 127
2, 180926, Note_off_c, 11, 70, 127
2, 180928, Note_on_c, 10, 69, 127
2, 181070, Note_off_c, 10, 69, 127
2, 181072, Note_on_c, 7, 67, 127
2, 181214, Note_off_c, 7, 67, 127
2, 181216, Note_on_c, 5, 65, 127
2, 181358, Note_off_c, 5, 65, 127
2, 181358, Note_off_c, 7, 55, 127
2, 181360, Note_on_c, 4, 64, 127
2, 181504, Note_off_c, 7, 79, 127
2, 181504, Note_on_c, 12, 71, 127
2, 181646, Note_off_c, 12, 71, 127
2, 181648, Note_on_c, 10, 69, 127
2, 181648, Note_on_c, 8, 80, 127
2, 181790, Note_off_c, 10, 69, 127
2, 181792, Note_on_c, 12, 71, 127
2, 181934, Note_off_c, 12, 71, 127
2, 181934, Note_off_c, 8, 80, 127
2, 181934, Note_off_c, 4, 64, 127
2, 181936, Note_on_c, 10, 57, 127
2, 181936, Note_on_c, 0, 72, 127
2, 181936, Note_on_c, 10, 81, 127
2, 182078, Note_off_c, 0, 72, 127
2, 182080, Note_on_c, 11, 70, 127
2, 182222, Note_off_c, 11, 70, 127
2, 182224, Note_on_c, 10, 69, 127
2, 182366, Note_off_c, 10, 69, 127
2, 182368, Note_on_c, 7, 67, 127
2, 182510, Note_off_c, 7, 67, 127
2, 182510, Note_off_c, 10, 57, 127
2, 182512, Note_on_c, 5, 65, 127
2, 182656, Note_off_c, 10, 81, 127
2, 182656, Note_on_c, 1, 73, 127
2, 182798, Note_off_c, 1, 73, 127
2, 182800, Note_on_c, 12, 71, 127
2, 182800, Note_on_c, 7, 79, 127
2, 182942, Note_off_c, 12, 71, 127
2, 182944, Note_on_c, 1, 73, 127
2, 183086, Note_off_c, 1, 73, 127
2, 183086, Note_off_c, 7, 79, 127
2, 183086, Note_off_c, 5, 65, 127
2, 183088, Note_on_c, 11, 58, 127
2, 183088, Note_on_c, 2, 74, 127
2, 183088, Note_on_c, 5, 77, 127
2, 183230, Note_off_c, 11, 58, 127
2, 183232, Note_on_c, 11, 70, 127
2, 183374, Note_off_c, 11, 70, 127
2, 183374, Note_off_c, 2, 74, 127
2, 183376, Note_on_c, 10, 69, 127
2, 183376, Note_on_c, 0, 72, 127
2, 183518, Note_off_c, 0, 72, 127
2, 183518, Note_off_c, 10, 69, 127
2, 183520, Note_on_c, 7, 67, 127
2, 183520, Note_on_c, 11, 70, 127
2, 183662, Note_off_c, 11, 70, 127
2, 183662, Note_off_c, 7, 67, 127
2, 183664, Note_on_c, 5, 65, 127
2, 183664, Note_on_c, 10, 69, 127
2, 183806, Note_off_c, 5, 77, 127
2, 183808, Note_on_c, 5, 77, 127
2, 183950, Note_off_c, 5, 77, 127
2, 183952, Note_on_c, 4, 76, 127
2, 184094, Note_off_c, 4, 76, 127
2, 184096, Note_on_c, 2, 74, 127
2, 184238, Note_off_c, 2, 74, 127
2, 184240, Note_on_c, 1, 73, 127
2, 184382, Note_off_c, 5, 65, 127
2, 184384, Note_on_c, 5, 53, 127
2, 184526, Note_off_c, 5, 53, 127
2, 184526, Note_off_c, 10, 69, 127
2, 184528, Note_on_c, 7, 55, 127
2, 184528, Note_on_c, 7, 67, 127
2, 184670, Note_off_c, 7, 67, 127
2, 184670, Note_off_c, 7, 55, 127
2, 184672, Note_on_c, 10, 57, 127
2, 184672, Note_on_c, 5, 65, 127
2, 184814, Note_off_c, 5, 65, 127
2, 184814, Note_off_c, 10, 57, 127
2, 184816, Note_on_c, 11, 58, 127
2, 184816, Note_on_c, 4, 64, 127
2, 184958, Note_off_c, 1, 73, 127
2, 184960, Note_on_c, 1, 73, 127
2, 185101, Note_off_c, 11, 58, 127
2, 185103, Note_off_c, 1, 73, 127
2, 185105, Note_on_c, 2, 74, 127
2, 185105, Note_on_c, 10, 57, 127
2, 185247, Note_off_c, 10, 57, 127
2, 185247, Note_off_c, 2, 74, 127
2, 185249, Note_on_c, 4, 76, 127
2, 185249, Note_on_c, 7, 55, 127
2, 185391, Note_off_c, 7, 55, 127
2, 185391, Note_off_c, 4, 64, 127
2, 185393, Note_on_c, 10, 57, 127
2, 185393, Note_on_c, 5, 65, 127
2, 185535, Note_off_c, 4, 76, 127
2, 185537, Note_on_c, 10, 69, 127
2, 185679, Note_off_c, 10, 69, 127
2, 185681, Note_on_c, 12, 71, 127
2, 185823, Note_off_c, 12, 71, 127
2, 185825, Note_on_c, 1, 73, 127
2, 185967, Note_off_c, 1, 73, 127
2, 185969, Note_on_c, 2, 74, 127
2, 186111, Note_off_c, 2, 74, 127
2, 186111, Note_off_c, 5, 65, 127
2, 186113, Note_on_c, 5, 65, 127
2, 186113, Note_on_c, 2, 74, 127
2, 186255, Note_off_c, 2, 74, 127
2, 186255, Note_off_c, 5, 65, 127
2, 186257, Note_on_c, 4, 64, 127
2, 186257, Note_on_c, 4, 76, 127
2, 186399, Note_off_c, 4, 76, 127
2, 186399, Note_off_c, 4, 64, 127
2, 186401, Note_on_c, 2, 62, 127
2, 186401, Note_on_c, 5, 77, 127
2, 186543, Note_off_c, 5, 77, 127
2, 186543, Note_off_c, 2, 62, 127
2, 186545, Note_on_c, 4, 64, 127
2, 186545, Note_on_c, 7, 79, 127
2, 186687, Note_off_c, 7, 79, 127
2, 186689, Note_on_c, 12, 71, 127
2, 186831, Note_off_c, 12, 71, 127
2, 186831, Note_off_c, 10, 57, 127
2, 186833, Note_on_c, 7, 55, 127
2, 186833, Note_on_c, 1, 73, 127
2, 186975, Note_off_c, 1, 73, 127
2, 186977, Note_on_c, 2, 74, 127
2, 187119, Note_off_c, 2, 74, 127
2, 187119, Note_off_c, 7, 55, 127
2, 187121, Note_on_c, 10, 57, 127
2, 187121, Note_on_c, 1, 73, 127
2, 187263, Note_off_c, 1, 73, 127
2, 187263, Note_off_c, 4, 64, 127
2, 187265, Note_on_c, 4, 64, 127
2, 187265, Note_on_c, 7, 79, 127
2, 187407, Note_off_c, 7, 79, 127
2, 187407, Note_off_c, 4, 64, 127
2, 187409, Note_on_c, 2, 62, 127
2, 187409, Note_on_c, 5, 77, 127
2, 187551, Note_off_c, 5, 77, 127
2, 187551, Note_off_c, 2, 62, 127
2, 187553, Note_on_c, 1, 61, 127
2, 187553, Note_on_c, 4, 76, 127
2, 187695, Note_off_c, 4, 76, 127
2, 187695, Note_off_c, 1, 61, 127
2, 187695, Note_off_c, 10, 57, 127
2, 187697, Note_on_c, 2, 50, 127
2, 187697, Note_on_c, 2, 62, 127
2, 187697, Note_on_c, 5, 77, 127
2, 187839, Note_off_c, 2, 62, 127
2, 187841, Note_on_c, 1, 61, 127
2, 187983, Note_off_c, 1, 61, 127
2, 187983, Note_off_c, 5, 77, 127
2, 187985, Note_on_c, 2, 62, 127
2, 187985, Note_on_c, 2, 74, 127
2, 188127, Note_off_c, 2, 62, 127
2, 188129, Note_on_c, 10, 57, 127
2, 188267, Note_off_c, 2, 50, 127
2, 188271, Note_off_c, 10, 57, 127
2, 188273, Note_on_c, 4, 64, 127
2, 188405, Note_off_c, 2, 74, 127
2, 188415, Note_off_c, 4, 64, 127
2, 188417, Note_on_c, 2, 62, 127
2, 188559, Note_off_c, 2, 62, 127
2, 188561, Note_on_c, 4, 64, 127
2, 188561, Note_on_c, 1, 73, 127
2, 188703, Note_off_c, 4, 64, 127
2, 188705, Note_on_c, 10, 57, 127
2, 188847, Note_off_c, 10, 57, 127
2, 188847, Note_off_c, 1, 73, 127
2, 188849, Note_on_c, 5, 65, 127
2, 188849, Note_on_c, 2, 74, 127
2, 188991, Note_off_c, 2, 74, 127
2, 188993, Note_on_c, 1, 73, 127
2, 189135, Note_off_c, 1, 73, 127
2, 189135, Note_off_c, 5, 65, 127
2, 189137, Note_on_c, 2, 62, 127
2, 189137, Note_on_c, 2, 74, 127
2, 189279, Note_off_c, 2, 74, 127
2, 189281, Note_on_c, 10, 69, 127
2, 189423, Note_off_c, 10, 69, 127
2, 189423, Note_off_c, 2, 62, 127
2, 189425, Note_on_c, 1, 61, 127
2, 189425, Note_on_c, 4, 76, 127
2, 189567, Note_off_c, 4, 76, 127
2, 189569, Note_on_c, 2, 74, 127
2, 189711, Note_off_c, 2, 74, 127
2, 189711, Note_off_c, 1, 61, 127
2, 189713, Note_on_c, 10, 57, 127
2, 189713, Note_on_c, 4, 76, 127
2, 189855, Note_off_c, 4, 76, 127
2, 189857, Note_on_c, 10, 69, 127
2, 189999, Note_off_c, 10, 69, 127
2, 189999, Note_off_c, 10, 57, 127
2, 190001, Note_on_c, 2, 62, 127
2, 190001, Note_on_c, 5, 77, 127
2, 190143, Note_off_c, 2, 62, 127
2, 190145, Note_on_c, 1, 61, 127
2, 190287, Note_off_c, 1, 61, 127
2, 190287, Note_off_c, 5, 77, 127
2, 190289, Note_on_c, 2, 62, 127
2, 190289, Note_on_c, 2, 74, 127
2, 190431, Note_off_c, 2, 62, 127
2, 190433, Note_on_c, 10, 57, 127
2, 190575, Note_off_c, 10, 57, 127
2, 190575, Note_off_c, 2, 74, 127
2, 190577, Note_on_c, 4, 64, 127
2, 190577, Note_on_c, 1, 73, 127
2, 190719, Note_off_c, 4, 64, 127
2, 190721, Note_on_c, 2, 62, 127
2, 190863, Note_off_c, 2, 62, 127
2, 190863, Note_off_c, 1, 73, 127
2, 190865, Note_on_c, 4, 64, 127
2, 190865, Note_on_c, 11, 82, 127
2, 191007, Note_off_c, 4, 64, 127
2, 191009, Note_on_c, 10, 57, 127
2, 191151, Note_off_c, 10, 57, 127
2, 191151, Note_off_c, 11, 82, 127
2, 191153, Note_on_c, 5, 65, 127
2, 191153, Note_on_c, 10, 81, 127
2, 191295, Note_off_c, 5, 65, 127
2, 191297, Note_on_c, 4, 64, 127
2, 191439, Note_off_c, 4, 64, 127
2, 191439, Note_off_c, 10, 81, 127
2, 191441, Note_on_c, 5, 65, 127
2, 191441, Note_on_c, 2, 74, 127
2, 191583, Note_off_c, 5, 65, 127
2, 191585, Note_on_c, 10, 57, 127
2, 191727, Note_off_c, 10, 57, 127
2, 191727, Note_off_c, 2, 74, 127
2, 191729, Note_on_c, 7, 67, 127
2, 191729, Note_on_c, 3, 75, 127
2, 191871, Note_off_c, 7, 67, 127
2, 191873, Note_on_c, 5, 65, 127
2, 192015, Note_off_c, 5, 65, 127
2, 192015, Note_off_c, 3, 75, 127
2, 192017, Note_on_c, 7, 67, 127
2, 192017, Note_on_c, 7, 79, 127
2, 192159, Note_off_c, 7, 67, 127
2, 192161, Note_on_c, 10, 57, 127
2, 192303, Note_off_c, 10, 57, 127
2, 192305, Note_on_c, 10, 69, 127
2, 192447, Note_off_c, 7, 79, 127
2, 192449, Note_on_c, 1, 73, 127
2, 192591, Note_off_c, 1, 73, 127
2, 192593, Note_on_c, 2, 74, 127
2, 192735, Note_off_c, 2, 74, 127
2, 192737, Note_on_c, 4, 76, 127
2, 192875, Note_off_c, 10, 69, 127
2, 192879, Note_off_c, 4, 76, 127
2, 192881, Note_on_c, 10, 69, 127
2, 193025, Note_on_c, 7, 67, 127
2, 193167, Note_off_c, 7, 67, 127
2, 193167, Note_off_c, 10, 69, 127
2, 193169, Note_on_c, 5, 65, 127
2, 193169, Note_on_c, 12, 71, 127
2, 193311, Note_off_c, 12, 71, 127
2, 193311, Note_off_c, 5, 65, 127
2, 193313, Note_on_c, 4, 64, 127
2, 193313, Note_on_c, 1, 73, 127
2, 193455, Note_off_c, 1, 73, 127
2, 193455, Note_off_c, 4, 64, 127
2, 193457, Note_on_c, 5, 65, 127
2, 193457, Note_on_c, 2, 74, 127
2, 193599, Note_off_c, 2, 74, 127
2, 193601, Note_on_c, 1, 73, 127
2, 193743, Note_off_c, 1, 73, 127
2, 193743, Note_off_c, 5, 65, 127
2, 193745, Note_on_c, 2, 62, 127
2, 193745, Note_on_c, 2, 74, 127
2, 193887, Note_off_c, 2, 74, 127
2, 193889, Note_on_c, 10, 69, 127
2, 194031, Note_off_c, 10, 69, 127
2, 194031, Note_off_c, 2, 62, 127
2, 194033, Note_on_c, 1, 61, 127
2, 194033, Note_on_c, 4, 76, 127
2, 194175, Note_off_c, 4, 76, 127
2, 194177, Note_on_c, 2, 74, 127
2, 194319, Note_off_c, 2, 74, 127
2, 194319, Note_off_c, 1, 61, 127
2, 194321, Note_on_c, 10, 57, 127
2, 194321, Note_on_c, 4, 76, 127
2, 194463, Note_off_c, 4, 76, 127
2, 194465, Note_on_c, 10, 69, 127
2, 194607, Note_off_c, 10, 69, 127
2, 194607, Note_off_c, 10, 57, 127
2, 194609, Note_on_c, 2, 62, 127
2, 194609, Note_on_c, 5, 77, 127
2, 194751, Note_off_c, 5, 77, 127
2, 194753, Note_on_c, 4, 76, 127
2, 194895, Note_off_c, 4, 76, 127
2, 194895, Note_off_c, 2, 62, 127
2, 194897, Note_on_c, 2, 50, 127
2, 194897, Note_on_c, 5, 77, 127
2, 195039, Note_off_c, 5, 77, 127
2, 195041, Note_on_c, 10, 69, 127
2, 195183, Note_off_c, 10, 69, 127
2, 195183, Note_off_c, 2, 50, 127
2, 195185, Note_on_c, 4, 52, 127
2, 195185, Note_on_c, 7, 79, 127
2, 195327, Note_off_c, 7, 79, 127
2, 195329, Note_on_c, 5, 77, 127
2, 195471, Note_off_c, 5, 77, 127
2, 195471, Note_off_c, 4, 52, 127
2, 195473, Note_on_c, 4, 64, 127
2, 195473, Note_on_c, 7, 79, 127
2, 195615, Note_off_c, 7, 79, 127
2, 195617, Note_on_c, 10, 69, 127
2, 195759, Note_off_c, 10, 69, 127
2, 195759, Note_off_c, 4, 64, 127
2, 195761, Note_on_c, 5, 65, 127
2, 195761, Note_on_c, 10, 81, 127
2, 195903, Note_off_c, 10, 81, 127
2, 195905, Note_on_c, 7, 79, 127
2, 196047, Note_off_c, 7, 79, 127
2, 196047, Note_off_c, 5, 65, 127
2, 196049, Note_on_c, 5, 53, 127
2, 196049, Note_on_c, 10, 81, 127
2, 196193, Note_on_c, 10, 69, 127
2, 196334, Note_off_c, 10, 81, 127
2, 196336, Note_off_c, 10, 69, 127
2, 196336, Note_off_c, 5, 53, 127
2, 196338, Note_on_c, 7, 55, 127
2, 196338, Note_on_c, 11, 70, 127
2, 196480, Note_off_c, 11, 70, 127
2, 196482, Note_on_c, 10, 69, 127
2, 196624, Note_off_c, 10, 69, 127
2, 196624, Note_off_c, 7, 55, 127
2, 196626, Note_on_c, 7, 67, 127
2, 196626, Note_on_c, 11, 70, 127
2, 196768, Note_off_c, 11, 70, 127
2, 196768, Note_off_c, 7, 67, 127
2, 196770, Note_on_c, 5, 65, 127
2, 196770, Note_on_c, 2, 74, 127
2, 196912, Note_off_c, 2, 74, 127
2, 196912, Note_off_c, 5, 65, 127
2, 196914, Note_on_c, 4, 64, 127
2, 196914, Note_on_c, 7, 79, 127
2, 197056, Note_off_c, 7, 79, 127
2, 197058, Note_on_c, 5, 77, 127
2, 197200, Note_off_c, 5, 77, 127
2, 197200, Note_off_c, 4, 64, 127
2, 197202, Note_on_c, 4, 52, 127
2, 197202, Note_on_c, 7, 79, 127
2, 197346, Note_on_c, 7, 67, 127
2, 197487, Note_off_c, 7, 79, 127
2, 197489, Note_off_c, 7, 67, 127
2, 197489, Note_off_c, 4, 52, 127
2, 197491, Note_on_c, 5, 53, 127
2, 197491, Note_on_c, 10, 69, 127
2, 197633, Note_off_c, 10, 69, 127
2, 197635, Note_on_c, 7, 67, 127
2, 197777, Note_off_c, 7, 67, 127
2, 197777, Note_off_c, 5, 53, 127
2, 197779, Note_on_c, 5, 65, 127
2, 197779, Note_on_c, 10, 69, 127
2, 197921, Note_off_c, 10, 69, 127
2, 197921, Note_off_c, 5, 65, 127
2, 197923, Note_on_c, 4, 64, 127
2, 197923, Note_on_c, 0, 72, 127
2, 198065, Note_off_c, 0, 72, 127
2, 198065, Note_off_c, 4, 64, 127
2, 198067, Note_on_c, 2, 62, 127
2, 198067, Note_on_c, 5, 77, 127
2, 198209, Note_off_c, 5, 77, 127
2, 198211, Note_on_c, 4, 76, 127
2, 198353, Note_off_c, 4, 76, 127
2, 198353, Note_off_c, 2, 62, 127
2, 198355, Note_on_c, 2, 50, 127
2, 198355, Note_on_c, 5, 77, 127
2, 198499, Note_on_c, 5, 65, 127
2, 198640, Note_off_c, 5, 77, 127
2, 198642, Note_off_c, 5, 65, 127
2, 198642, Note_off_c, 2, 50, 127
2, 198644, Note_on_c, 4, 52, 127
2, 198644, Note_on_c, 7, 67, 127
2, 198786, Note_off_c, 7, 67, 127
2, 198788, Note_on_c, 5, 65, 127
2, 198930, Note_off_c, 5, 65, 127
2, 198930, Note_off_c, 4, 52, 127
2, 198932, Note_on_c, 4, 64, 127
2, 198932, Note_on_c, 7, 67, 127
2, 199074, Note_off_c, 7, 67, 127
2, 199074, Note_off_c, 4, 64, 127
2, 199076, Note_on_c, 2, 62, 127
2, 199076, Note_on_c, 12, 71, 127
2, 199218, Note_off_c, 12, 71, 127
2, 199218, Note_off_c, 2, 62, 127
2, 199220, Note_on_c, 1, 61, 127
2, 199220, Note_on_c, 4, 76, 127
2, 199362, Note_off_c, 4, 76, 127
2, 199364, Note_on_c, 2, 74, 127
2, 199506, Note_off_c, 2, 74, 127
2, 199506, Note_off_c, 1, 61, 127
2, 199508, Note_on_c, 10, 57, 127
2, 199508, Note_on_c, 4, 76, 127
2, 199652, Note_on_c, 4, 64, 127
2, 199793, Note_off_c, 4, 76, 127
2, 199795, Note_off_c, 4, 64, 127
2, 199795, Note_off_c, 10, 57, 127
2, 199797, Note_on_c, 2, 62, 127
2, 199797, Note_on_c, 5, 65, 127
2, 199939, Note_off_c, 5, 65, 127
2, 199941, Note_on_c, 4, 64, 127
2, 200083, Note_off_c, 4, 64, 127
2, 200083, Note_off_c, 2, 62, 127
2, 200085, Note_on_c, 0, 60, 127
2, 200085, Note_on_c, 5, 65, 127
2, 200227, Note_off_c, 5, 65, 127
2, 200229, Note_on_c, 10, 69, 127
2, 200371, Note_off_c, 10, 69, 127
2, 200371, Note_off_c, 0, 60, 127
2, 200373, Note_on_c, 11, 58, 127
2, 200373, Note_on_c, 2, 74, 127
2, 200515, Note_off_c, 2, 74, 127
2, 200517, Note_on_c, 0, 72, 127
2, 200659, Note_off_c, 0, 72, 127
2, 200659, Note_off_c, 11, 58, 127
2, 200661, Note_on_c, 7, 55, 127
2, 200661, Note_on_c, 2, 74, 127
2, 200803, Note_off_c, 2, 74, 127
2, 200805, Note_on_c, 11, 70, 127
2, 200947, Note_off_c, 11, 70, 127
2, 200947, Note_off_c, 7, 55, 127
2, 200949, Note_on_c, 0, 60, 127
2, 200949, Note_on_c, 4, 76, 127
2, 201091, Note_off_c, 4, 76, 127
2, 201093, Note_on_c, 2, 74, 127
2, 201235, Note_off_c, 2, 74, 127
2, 201235, Note_off_c, 0, 60, 127
2, 201237, Note_on_c, 0, 48, 127
2, 201237, Note_on_c, 4, 76, 127
2, 201379, Note_off_c, 4, 76, 127
2, 201381, Note_on_c, 11, 70, 127
2, 201523, Note_off_c, 11, 70, 127
2, 201523, Note_off_c, 0, 48, 127
2, 201525, Note_on_c, 2, 50, 127
2, 201525, Note_on_c, 5, 77, 127
2, 201667, Note_off_c, 5, 77, 127
2, 201669, Note_on_c, 4, 76, 127
2, 201811, Note_off_c, 4, 76, 127
2, 201811, Note_off_c, 2, 50, 127
2, 201813, Note_on_c, 2, 62, 127
2, 201813, Note_on_c, 5, 77, 127
2, 201955, Note_off_c, 5, 77, 127
2, 201957, Note_on_c, 11, 70, 127
2, 202099, Note_off_c, 11, 70, 127
2, 202099, Note_off_c, 2, 62, 127
2, 202101, Note_on_c, 4, 64, 127
2, 202101, Note_on_c, 7, 79, 127
2, 202243, Note_off_c, 7, 79, 127
2, 202245, Note_on_c, 5, 77, 127
2, 202387, Note_off_c, 5, 77, 127
2, 202387, Note_off_c, 4, 64, 127
2, 202389, Note_on_c, 4, 52, 127
2, 202389, Note_on_c, 7, 79, 127
2, 202531, Note_off_c, 7, 79, 127
2, 202533, Note_on_c, 11, 70, 127
2, 202675, Note_off_c, 11, 70, 127
2, 202675, Note_off_c, 4, 52, 127
2, 202677, Note_on_c, 5, 53, 127
2, 202677, Note_on_c, 10, 69, 127
2, 202819, Note_off_c, 10, 69, 127
2, 202821, Note_on_c, 7, 67, 127
2, 202963, Note_off_c, 7, 67, 127
2, 202963, Note_off_c, 5, 53, 127
2, 202965, Note_on_c, 5, 65, 127
2, 202965, Note_on_c, 10, 69, 127
2, 203107, Note_off_c, 10, 69, 127
2, 203107, Note_off_c, 5, 65, 127
2, 203109, Note_on_c, 4, 64, 127
2, 203109, Note_on_c, 0, 72, 127
2, 203251, Note_off_c, 0, 72, 127
2, 203251, Note_off_c, 4, 64, 127
2, 203253, Note_on_c, 2, 62, 127
2, 203253, Note_on_c, 5, 77, 127
2, 203395, Note_off_c, 5, 77, 127
2, 203397, Note_on_c, 4, 76, 127
2, 203539, Note_off_c, 4, 76, 127
2, 203539, Note_off_c, 2, 62, 127
2, 203541, Note_on_c, 0, 60, 127
2, 203541, Note_on_c, 5, 77, 127
2, 203683, Note_off_c, 5, 77, 127
2, 203685, Note_on_c, 10, 69, 127
2, 203827, Note_off_c, 10, 69, 127
2, 203827, Note_off_c, 0, 60, 127
2, 203829, Note_on_c, 11, 58, 127
2, 203829, Note_on_c, 7, 67, 127
2, 203971, Note_off_c, 7, 67, 127
2, 203973, Note_on_c, 5, 65, 127
2, 204115, Note_off_c, 5, 65, 127
2, 204115, Note_off_c, 11, 58, 127
2, 204117, Note_on_c, 7, 55, 127
2, 204117, Note_on_c, 7, 67, 127
2, 204259, Note_off_c, 7, 67, 127
2, 204261, Note_on_c, 11, 70, 127
2, 204403, Note_off_c, 11, 70, 127
2, 204403, Note_off_c, 7, 55, 127
2, 204405, Note_on_c, 0, 60, 127
2, 204405, Note_on_c, 3, 75, 127
2, 204547, Note_off_c, 3, 75, 127
2, 204549, Note_on_c, 2, 74, 127
2, 204691, Note_off_c, 2, 74, 127
2, 204691, Note_off_c, 0, 60, 127
2, 204693, Note_on_c, 11, 58, 127
2, 204693, Note_on_c, 3, 75, 127
2, 204835, Note_off_c, 3, 75, 127
2, 204837, Note_on_c, 7, 67, 127
2, 204979, Note_off_c, 7, 67, 127
2, 204979, Note_off_c, 11, 58, 127
2, 204981, Note_on_c, 10, 57, 127
2, 204981, Note_on_c, 5, 65, 127
2, 205123, Note_off_c, 5, 65, 127
2, 205125, Note_on_c, 4, 64, 127
2, 205267, Note_off_c, 4, 64, 127
2, 205269, Note_on_c, 5, 65, 127
2, 205411, Note_off_c, 5, 65, 127
2, 205413, Note_on_c, 0, 60, 127
2, 205557, Note_on_c, 10, 69, 127
2, 205699, Note_off_c, 0, 60, 127
2, 205701, Note_on_c, 0, 60, 127
2, 205843, Note_off_c, 0, 60, 127
2, 205843, Note_off_c, 10, 57, 127
2, 205845, Note_on_c, 10, 45, 127
2, 205845, Note_on_c, 5, 65, 127
2, 205987, Note_off_c, 10, 45, 127
2, 205987, Note_off_c, 10, 69, 127
2, 205989, Note_on_c, 11, 46, 127
2, 205989, Note_on_c, 10, 69, 127
2, 206131, Note_off_c, 10, 69, 127
2, 206131, Note_off_c, 11, 46, 127
2, 206133, Note_on_c, 0, 48, 127
2, 206133, Note_on_c, 7, 67, 127
2, 206275, Note_off_c, 5, 65, 127
2, 206277, Note_on_c, 5, 65, 127
2, 206419, Note_off_c, 5, 65, 127
2, 206419, Note_off_c, 0, 48, 127
2, 206421, Note_on_c, 0, 48, 127
2, 206421, Note_on_c, 4, 64, 127
2, 206563, Note_off_c, 4, 64, 127
2, 206565, Note_on_c, 2, 62, 127
2, 206707, Note_off_c, 2, 62, 127
2, 206707, Note_off_c, 0, 48, 127
2, 206709, Note_on_c, 0, 48, 127
2, 206709, Note_on_c, 4, 64, 127
2, 206851, Note_off_c, 7, 67, 127
2, 206853, Note_on_c, 7, 67, 127
2, 206995, Note_off_c, 7, 67, 127
2, 206995, Note_off_c, 0, 48, 127
2, 206997, Note_on_c, 0, 48, 127
2, 206997, Note_on_c, 10, 69, 127
2, 207139, Note_off_c, 10, 69, 127
2, 207139, Note_off_c, 0, 48, 127
2, 207141, Note_on_c, 2, 50, 127
2, 207141, Note_on_c, 11, 70, 127
2, 207283, Note_off_c, 11, 70, 127
2, 207283, Note_off_c, 2, 50, 127
2, 207285, Note_on_c, 0, 48, 127
2, 207285, Note_on_c, 0, 72, 127
2, 207427, Note_off_c, 0, 48, 127
2, 207427, Note_off_c, 4, 64, 127
2, 207429, Note_on_c, 11, 46, 127
2, 207429, Note_on_c, 4, 64, 127
2, 207571, Note_off_c, 4, 64, 127
2, 207571, Note_off_c, 11, 46, 127
2, 207573, Note_on_c, 10, 45, 127
2, 207573, Note_on_c, 5, 65, 127
2, 207715, Note_off_c, 5, 65, 127
2, 207715, Note_off_c, 10, 45, 127
2, 207717, Note_on_c, 7, 43, 127
2, 207717, Note_on_c, 7, 67, 127
2, 207859, Note_off_c, 7, 67, 127
2, 207859, Note_off_c, 7, 43, 127
2, 207861, Note_on_c, 5, 41, 127
2, 207861, Note_on_c, 10, 69, 127
2, 208003, Note_off_c, 5, 41, 127
2, 208005, Note_on_c, 0, 48, 127
2, 208147, Note_off_c, 0, 48, 127
2, 208147, Note_off_c, 0, 72, 127
2, 208149, Note_on_c, 11, 46, 127
2, 208149, Note_on_c, 2, 74, 127
2, 208291, Note_off_c, 2, 74, 127
2, 208291, Note_off_c, 11, 46, 127
2, 208293, Note_on_c, 0, 48, 127
2, 208293, Note_on_c, 4, 76, 127
2, 208435, Note_off_c, 4, 76, 127
2, 208435, Note_off_c, 0, 48, 127
2, 208437, Note_on_c, 2, 50, 127
2, 208437, Note_on_c, 5, 77, 127
2, 208579, Note_off_c, 2, 50, 127
2, 208581, Note_on_c, 0, 48, 127
2, 208723, Note_off_c, 0, 48, 127
2, 208723, Note_off_c, 10, 69, 127
2, 208725, Note_on_c, 11, 46, 127
2, 208725, Note_on_c, 7, 67, 127
2, 208867, Note_off_c, 7, 67, 127
2, 208867, Note_off_c, 11, 46, 127
2, 208869, Note_on_c, 10, 45, 127
2, 208869, Note_on_c, 10, 69, 127
2, 209011, Note_off_c, 10, 69, 127
2, 209011, Note_off_c, 10, 45, 127
2, 209013, Note_on_c, 7, 43, 127
2, 209013, Note_on_c, 11, 70, 127
2, 209155, Note_off_c, 7, 43, 127
2, 209157, Note_on_c, 2, 50, 127
2, 209299, Note_off_c, 2, 50, 127
2, 209299, Note_off_c, 5, 77, 127
2, 209301, Note_on_c, 0, 48, 127
2, 209301, Note_on_c, 4, 76, 127
2, 209443, Note_off_c, 4, 76, 127
2, 209443, Note_off_c, 0, 48, 127
2, 209445, Note_on_c, 2, 50, 127
2, 209445, Note_on_c, 5, 77, 127
2, 209587, Note_off_c, 5, 77, 127
2, 209587, Note_off_c, 2, 50, 127
2, 209589, Note_on_c, 4, 52, 127
2, 209589, Note_on_c, 7, 79, 127
2, 209731, Note_off_c, 4, 52, 127
2, 209733, Note_on_c, 2, 50, 127
2, 209875, Note_off_c, 2, 50, 127
2, 209875, Note_off_c, 11, 70, 127
2, 209877, Note_on_c, 0, 48, 127
2, 209877, Note_on_c, 10, 69, 127
2, 210019, Note_off_c, 10, 69, 127
2, 210019, Note_off_c, 0, 48, 127
2, 210021, Note_on_c, 11, 46, 127
2, 210021, Note_on_c, 11, 70, 127
2, 210163, Note_off_c, 11, 70, 127
2, 210163, Note_off_c, 11, 46, 127
2, 210165, Note_on_c, 10, 45, 127
2, 210165, Note_on_c, 0, 72, 127
2, 210307, Note_off_c, 10, 45, 127
2, 210309, Note_on_c, 4, 52, 127
2, 210451, Note_off_c, 4, 52, 127
2, 210451, Note_off_c, 7, 79, 127
2, 210453, Note_on_c, 2, 50, 127
2, 210453, Note_on_c, 5, 77, 127
2, 210595, Note_off_c, 5, 77, 127
2, 210595, Note_off_c, 2, 50, 127
2, 210597, Note_on_c, 4, 52, 127
2, 210597, Note_on_c, 7, 79, 127
2, 210739, Note_off_c, 7, 79, 127
2, 210739, Note_off_c, 4, 52, 127
2, 210741, Note_on_c, 5, 53, 127
2, 210741, Note_on_c, 10, 81, 127
2, 211027, Note_off_c, 10, 81, 127
2, 211027, Note_off_c, 5, 53, 127
2, 211029, Note_on_c, 4, 52, 127
2, 211029, Note_on_c, 7, 79, 127
2, 211171, Note_off_c, 7, 79, 127
2, 211171, Note_off_c, 4, 52, 127
2, 211173, Note_on_c, 2, 50, 127
2, 211173, Note_on_c, 5, 77, 127
2, 211315, Note_off_c, 5, 77, 127
2, 211315, Note_off_c, 2, 50, 127
2, 211317, Note_on_c, 0, 48, 127
2, 211317, Note_on_c, 4, 76, 127
2, 211459, Note_off_c, 0, 48, 127
2, 211461, Note_on_c, 2, 50, 127
2, 211603, Note_off_c, 2, 50, 127
2, 211603, Note_off_c, 4, 76, 127
2, 211603, Note_off_c, 0, 72, 127
2, 211605, Note_on_c, 11, 46, 127
2, 211605, Note_on_c, 7, 67, 127
2, 211605, Note_on_c, 2, 74, 127
2, 211747, Note_off_c, 11, 46, 127
2, 211749, Note_on_c, 0, 48, 127
2, 211891, Note_off_c, 0, 48, 127
2, 211891, Note_off_c, 2, 74, 127
2, 211893, Note_on_c, 10, 45, 127
2, 211893, Note_on_c, 0, 72, 127
2, 212035, Note_off_c, 10, 45, 127
2, 212035, Note_off_c, 7, 67, 127
2, 212037, Note_on_c, 11, 46, 127
2, 212037, Note_on_c, 5, 65, 127
2, 212179, Note_off_c, 5, 65, 127
2, 212179, Note_off_c, 11, 46, 127
2, 212181, Note_on_c, 7, 43, 127
2, 212181, Note_on_c, 7, 67, 127
2, 212323, Note_off_c, 7, 67, 127
2, 212323, Note_off_c, 7, 43, 127
2, 212325, Note_on_c, 11, 46, 127
2, 212325, Note_on_c, 4, 64, 127
2, 212467, Note_off_c, 4, 64, 127
2, 212467, Note_off_c, 11, 46, 127
2, 212469, Note_on_c, 10, 45, 127
2, 212469, Note_on_c, 5, 65, 127
2, 212611, Note_off_c, 10, 45, 127
2, 212611, Note_off_c, 0, 72, 127
2, 212613, Note_on_c, 7, 43, 127
2, 212613, Note_on_c, 11, 70, 127
2, 212755, Note_off_c, 11, 70, 127
2, 212755, Note_off_c, 7, 43, 127
2, 212757, Note_on_c, 10, 45, 127
2, 212757, Note_on_c, 0, 72, 127
2, 212899, Note_off_c, 0, 72, 127
2, 212899, Note_off_c, 10, 45, 127
2, 212901, Note_on_c, 5, 41, 127
2, 212901, Note_on_c, 10, 69, 127
2, 213043, Note_off_c, 10, 69, 127
2, 213043, Note_off_c, 5, 41, 127
2, 213045, Note_on_c, 7, 43, 127
2, 213045, Note_on_c, 11, 70, 127
2, 213187, Note_off_c, 7, 43, 127
2, 213187, Note_off_c, 5, 65, 127
2, 213189, Note_on_c, 10, 45, 127
2, 213189, Note_on_c, 4, 64, 127
2, 213331, Note_off_c, 4, 64, 127
2, 213331, Note_off_c, 10, 45, 127
2, 213333, Note_on_c, 5, 41, 127
2, 213333, Note_on_c, 5, 65, 127
2, 213475, Note_off_c, 5, 65, 127
2, 213475, Note_off_c, 5, 41, 127
2, 213477, Note_on_c, 10, 45, 127
2, 213477, Note_on_c, 2, 62, 127
2, 213619, Note_off_c, 2, 62, 127
2, 213619, Note_off_c, 10, 45, 127
2, 213621, Note_on_c, 7, 43, 127
2, 213621, Note_on_c, 4, 64, 127
2, 213763, Note_off_c, 7, 43, 127
2, 213763, Note_off_c, 11, 70, 127
2, 213765, Note_on_c, 5, 41, 127
2, 213765, Note_on_c, 10, 69, 127
2, 213907, Note_off_c, 10, 69, 127
2, 213907, Note_off_c, 5, 41, 127
2, 213909, Note_on_c, 7, 43, 127
2, 213909, Note_on_c, 11, 70, 127
2, 214051, Note_off_c, 11, 70, 127
2, 214051, Note_off_c, 7, 43, 127
2, 214053, Note_on_c, 0, 36, 127
2, 214053, Note_on_c, 7, 67, 127
2, 214195, Note_off_c, 7, 67, 127
2, 214195, Note_off_c, 0, 36, 127
2, 214195, Note_off_c, 4, 64, 127
2, 214197, Note_on_c, 5, 41, 127
2, 214197, Note_on_c, 5, 65, 127
2, 214197, Note_on_c, 10, 69, 127
2, 214339, Note_off_c, 5, 65, 127
2, 214341, Note_on_c, 0, 60, 127
2, 214483, Note_off_c, 0, 60, 127
2, 214485, Note_on_c, 2, 62, 127
2, 214627, Note_off_c, 2, 62, 127
2, 214629, Note_on_c, 4, 64, 127
2, 214771, Note_off_c, 4, 64, 127
2, 214773, Note_on_c, 5, 65, 127
2, 214857, Note_off_c, 5, 41, 127
2, 214915, Note_off_c, 5, 65, 127
2, 214917, Note_on_c, 7, 67, 127
2, 215059, Note_off_c, 7, 67, 127
2, 215061, Note_on_c, 5, 53, 127
2, 215061, Note_on_c, 4, 64, 127
2, 215203, Note_off_c, 4, 64, 127
2, 215205, Note_on_c, 5, 65, 127
2, 215347, Note_off_c, 5, 65, 127
2, 215347, Note_off_c, 10, 69, 127
2, 215349, Note_on_c, 7, 67, 127
2, 215349, Note_on_c, 12, 71, 127
2, 215491, Note_off_c, 5, 53, 127
2, 215493, Note_on_c, 5, 53, 127
2, 215635, Note_off_c, 5, 53, 127
2, 215635, Note_off_c, 7, 67, 127
2, 215637, Note_on_c, 4, 52, 127
2, 215637, Note_on_c, 7, 67, 127
2, 215779, Note_off_c, 4, 52, 127
2, 215781, Note_on_c, 2, 50, 127
2, 215923, Note_off_c, 2, 50, 127
2, 215923, Note_off_c, 7, 67, 127
2, 215923, Note_off_c, 12, 71, 127
2, 215925, Note_on_c, 4, 52, 127
2, 215925, Note_on_c, 7, 67, 127
2, 215925, Note_on_c, 0, 72, 127
2, 216067, Note_off_c, 4, 52, 127
2, 216069, Note_on_c, 2, 50, 127
2, 216211, Note_off_c, 2, 50, 127
2, 216211, Note_off_c, 7, 67, 127
2, 216213, Note_on_c, 4, 52, 127
2, 216213, Note_on_c, 7, 67, 127
2, 216355, Note_off_c, 7, 67, 127
2, 216355, Note_off_c, 4, 52, 127
2, 216357, Note_on_c, 0, 48, 127
2, 216357, Note_on_c, 10, 69, 127
2, 216499, Note_off_c, 10, 69, 127
2, 216499, Note_off_c, 0, 48, 127
2, 216499, Note_off_c, 0, 72, 127
2, 216501, Note_on_c, 7, 55, 127
2, 216501, Note_on_c, 7, 67, 127
2, 216501, Note_on_c, 12, 71, 127
2, 216643, Note_off_c, 7, 67, 127
2, 216645, Note_on_c, 5, 65, 127
2, 216787, Note_off_c, 5, 65, 127
2, 216787, Note_off_c, 7, 55, 127
2, 216789, Note_on_c, 7, 43, 127
2, 216789, Note_on_c, 4, 64, 127
2, 216931, Note_off_c, 4, 64, 127
2, 216933, Note_on_c, 2, 62, 127
2, 217075, Note_off_c, 2, 62, 127
2, 217075, Note_off_c, 12, 71, 127
2, 217077, Note_on_c, 0, 60, 127
2, 217077, Note_on_c, 11, 70, 127
2, 217119, Note_off_c, 7, 43, 127
2, 217219, Note_off_c, 0, 60, 127
2, 217221, Note_on_c, 7, 67, 127
2, 217363, Note_off_c, 7, 67, 127
2, 217365, Note_on_c, 4, 52, 127
2, 217365, Note_on_c, 5, 65, 127
2, 217507, Note_off_c, 5, 65, 127
2, 217509, Note_on_c, 7, 67, 127
2, 217651, Note_off_c, 7, 67, 127
2, 217651, Note_off_c, 4, 52, 127
2, 217651, Note_off_c, 11, 70, 127
2, 217653, Note_on_c, 5, 53, 127
2, 217653, Note_on_c, 10, 69, 127
2, 217797, Note_on_c, 7, 67, 127
2, 217939, Note_off_c, 7, 67, 127
2, 217941, Note_on_c, 5, 65, 127
2, 218083, Note_off_c, 5, 65, 127
2, 218085, Note_on_c, 4, 64, 127
2, 218227, Note_off_c, 4, 64, 127
2, 218227, Note_off_c, 10, 69, 127
2, 218229, Note_on_c, 2, 62, 127
2, 218229, Note_on_c, 0, 72, 127
2, 218371, Note_off_c, 2, 62, 127
2, 218373, Note_off_c, 5, 53, 127
2, 218373, Note_on_c, 10, 69, 127
2, 218515, Note_off_c, 10, 69, 127
2, 218517, Note_on_c, 6, 54, 127
2, 218517, Note_on_c, 7, 67, 127
2, 218659, Note_off_c, 7, 67, 127
2, 218661, Note_on_c, 10, 69, 127
2, 218803, Note_off_c, 10, 69, 127
2, 218803, Note_off_c, 6, 54, 127
2, 218803, Note_off_c, 0, 72, 127
2, 218805, Note_on_c, 7, 55, 127
2, 218805, Note_on_c, 12, 71, 127
2, 218949, Note_on_c, 10, 69, 127
2, 219091, Note_off_c, 10, 69, 127
2, 219093, Note_on_c, 7, 67, 127
2, 219235, Note_off_c, 7, 67, 127
2, 219237, Note_on_c, 5, 65, 127
2, 219379, Note_off_c, 5, 65, 127
2, 219379, Note_off_c, 12, 71, 127
2, 219381, Note_on_c, 4, 64, 127
2, 219381, Note_on_c, 2, 74, 127
2, 219523, Note_off_c, 4, 64, 127
2, 219525, Note_off_c, 7, 55, 127
2, 219525, Note_on_c, 12, 71, 127
2, 219667, Note_off_c, 12, 71, 127
2, 219669, Note_on_c, 8, 56, 127
2, 219669, Note_on_c, 10, 69, 127
2, 219811, Note_off_c, 10, 69, 127
2, 219813, Note_on_c, 12, 71, 127
2, 219955, Note_off_c, 12, 71, 127
2, 219955, Note_off_c, 8, 56, 127
2, 219955, Note_off_c, 2, 74, 127
2, 219957, Note_on_c, 10, 57, 127
2, 219957, Note_on_c, 0, 72, 127
2, 220243, Note_off_c, 10, 57, 127
2, 220245, Note_on_c, 7, 55, 127
2, 220245, Note_on_c, 12, 71, 127
2, 220387, Note_off_c, 12, 71, 127
2, 220387, Note_off_c, 7, 55, 127
2, 220389, Note_on_c, 5, 53, 127
2, 220389, Note_on_c, 10, 69, 127
2, 220531, Note_off_c, 10, 69, 127
2, 220531, Note_off_c, 5, 53, 127
2, 220533, Note_on_c, 4, 52, 127
2, 220533, Note_on_c, 7, 67, 127
2, 220675, Note_off_c, 7, 67, 127
2, 220675, Note_off_c, 4, 52, 127
2, 220677, Note_on_c, 5, 53, 127
2, 220677, Note_on_c, 10, 69, 127
2, 220819, Note_off_c, 10, 69, 127
2, 220819, Note_off_c, 5, 53, 127
2, 220821, Note_on_c, 2, 50, 127
2, 220821, Note_on_c, 5, 65, 127
2, 220963, Note_off_c, 5, 65, 127
2, 220963, Note_off_c, 2, 50, 127
2, 220965, Note_on_c, 4, 52, 127
2, 220965, Note_on_c, 7, 67, 127
2, 221107, Note_off_c, 7, 67, 127
2, 221107, Note_off_c, 4, 52, 127
2, 221109, Note_on_c, 5, 53, 127
2, 221109, Note_on_c, 10, 69, 127
2, 221251, Note_off_c, 5, 53, 127
2, 221251, Note_off_c, 0, 72, 127
2, 221253, Note_on_c, 4, 64, 127
2, 221253, Note_on_c, 0, 72, 127
2, 221395, Note_off_c, 0, 72, 127
2, 221395, Note_off_c, 4, 64, 127
2, 221397, Note_on_c, 2, 62, 127
2, 221397, Note_on_c, 2, 74, 127
2, 221539, Note_off_c, 2, 74, 127
2, 221539, Note_off_c, 2, 62, 127
2, 221541, Note_on_c, 0, 60, 127
2, 221541, Note_on_c, 4, 76, 127
2, 221683, Note_off_c, 4, 76, 127
2, 221683, Note_off_c, 0, 60, 127
2, 221683, Note_off_c, 10, 69, 127
2, 221685, Note_on_c, 12, 59, 127
2, 221685, Note_on_c, 7, 67, 127
2, 221685, Note_on_c, 5, 77, 127
2, 221827, Note_off_c, 5, 77, 127
2, 221827, Note_off_c, 12, 59, 127
2, 221829, Note_on_c, 0, 60, 127
2, 221829, Note_on_c, 4, 76, 127
2, 221971, Note_off_c, 4, 76, 127
2, 221971, Note_off_c, 0, 60, 127
2, 221973, Note_on_c, 10, 57, 127
2, 221973, Note_on_c, 7, 79, 127
2, 222115, Note_off_c, 7, 79, 127
2, 222115, Note_off_c, 10, 57, 127
2, 222117, Note_on_c, 12, 59, 127
2, 222117, Note_on_c, 5, 77, 127
2, 222259, Note_off_c, 5, 77, 127
2, 222259, Note_off_c, 12, 59, 127
2, 222261, Note_on_c, 0, 60, 127
2, 222261, Note_on_c, 4, 76, 127
2, 222403, Note_off_c, 7, 67, 127
2, 222405, Note_on_c, 7, 67, 127
2, 222547, Note_off_c, 7, 67, 127
2, 222547, Note_off_c, 0, 60, 127
2, 222549, Note_on_c, 12, 59, 127
2, 222549, Note_on_c, 10, 69, 127
2, 222691, Note_off_c, 10, 69, 127
2, 222693, Note_on_c, 12, 71, 127
2, 222835, Note_off_c, 12, 71, 127
2, 222835, Note_off_c, 12, 59, 127
2, 222837, Note_on_c, 10, 57, 127
2, 222837, Note_on_c, 0, 72, 127
2, 222979, Note_off_c, 0, 72, 127
2, 222981, Note_on_c, 12, 71, 127
2, 223123, Note_off_c, 12, 71, 127
2, 223123, Note_off_c, 10, 57, 127
2, 223123, Note_off_c, 4, 76, 127
2, 223125, Note_on_c, 2, 62, 127
2, 223125, Note_on_c, 2, 74, 127
2, 223125, Note_on_c, 6, 78, 127
2, 223267, Note_off_c, 2, 74, 127
2, 223269, Note_on_c, 0, 72, 127
2, 223411, Note_off_c, 0, 72, 127
2, 223411, Note_off_c, 6, 78, 127
2, 223411, Note_off_c, 2, 62, 127
2, 223413, Note_on_c, 7, 67, 127
2, 223413, Note_on_c, 12, 71, 127
2, 223413, Note_on_c, 7, 79, 127
2, 223555, Note_off_c, 7, 79, 127
2, 223557, Note_on_c, 10, 81, 127
2, 223699, Note_off_c, 10, 81, 127
2, 223699, Note_off_c, 12, 71, 127
2, 223701, Note_on_c, 10, 69, 127
2, 223701, Note_on_c, 6, 78, 127
2, 223843, Note_off_c, 6, 78, 127
2, 223845, Note_on_c, 10, 81, 127
2, 223987, Note_off_c, 10, 81, 127
2, 223987, Note_off_c, 10, 69, 127
2, 223989, Note_on_c, 12, 71, 127
2, 223989, Note_on_c, 7, 79, 127
2, 224131, Note_off_c, 7, 79, 127
2, 224133, Note_on_c, 5, 77, 127
2, 224275, Note_off_c, 5, 77, 127
2, 224277, Note_on_c, 7, 79, 127
2, 224419, Note_off_c, 7, 79, 127
2, 224419, Note_off_c, 12, 71, 127
2, 224421, Note_on_c, 0, 72, 127
2, 224421, Note_on_c, 4, 76, 127
2, 224563, Note_off_c, 4, 76, 127
2, 224563, Note_off_c, 0, 72, 127
2, 224565, Note_on_c, 2, 74, 127
2, 224565, Note_on_c, 5, 77, 127
2, 224707, Note_off_c, 5, 77, 127
2, 224707, Note_off_c, 2, 74, 127
2, 224709, Note_on_c, 4, 76, 127
2, 224709, Note_on_c, 7, 79, 127
2, 224851, Note_off_c, 7, 79, 127
2, 224851, Note_off_c, 4, 76, 127
2, 224853, Note_on_c, 0, 72, 127
2, 224853, Note_on_c, 4, 76, 127
2, 224995, Note_off_c, 4, 76, 127
2, 224995, Note_off_c, 0, 72, 127
2, 224997, Note_on_c, 4, 76, 127
2, 224997, Note_on_c, 7, 79, 127
2, 225139, Note_off_c, 7, 79, 127
2, 225139, Note_off_c, 4, 76, 127
2, 225141, Note_on_c, 2, 74, 127
2, 225141, Note_on_c, 5, 77, 127
2, 225283, Note_off_c, 5, 77, 127
2, 225283, Note_off_c, 2, 74, 127
2, 225285, Note_on_c, 0, 72, 127
2, 225285, Note_on_c, 4, 76, 127
2, 225427, Note_off_c, 4, 76, 127
2, 225427, Note_off_c, 0, 72, 127
2, 225429, Note_on_c, 2, 74, 127
2, 225429, Note_on_c, 5, 77, 127
2, 225571, Note_off_c, 5, 77, 127
2, 225571, Note_off_c, 2, 74, 127
2, 225573, Note_on_c, 12, 71, 127
2, 225573, Note_on_c, 2, 74, 127
2, 225708, Note_off_c, 7, 67, 127
2, 225716, Note_off_c, 2, 74, 127
2, 225716, Note_off_c, 12, 71, 127
2, 225718, Note_on_c, 0, 72, 127
2, 225718, Note_on_c, 4, 76, 127
2, 225718, Note_on_c, 7, 67, 127
2, 225860, Note_off_c, 4, 76, 127
2, 225860, Note_off_c, 0, 72, 127
2, 225862, Note_on_c, 2, 74, 127
2, 225862, Note_on_c, 5, 77, 127
2, 226004, Note_off_c, 5, 77, 127
2, 226004, Note_off_c, 2, 74, 127
2, 226006, Note_on_c, 12, 71, 127
2, 226006, Note_on_c, 2, 74, 127
2, 226148, Note_off_c, 2, 74, 127
2, 226148, Note_off_c, 12, 71, 127
2, 226150, Note_on_c, 2, 74, 127
2, 226150, Note_on_c, 5, 77, 127
2, 226292, Note_off_c, 5, 77, 127
2, 226292, Note_off_c, 2, 74, 127
2, 226294, Note_on_c, 0, 72, 127
2, 226294, Note_on_c, 4, 76, 127
2, 226436, Note_off_c, 4, 76, 127
2, 226436, Note_off_c, 0, 72, 127
2, 226438, Note_on_c, 12, 71, 127
2, 226438, Note_on_c, 2, 74, 127
2, 226580, Note_off_c, 2, 74, 127
2, 226580, Note_off_c, 12, 71, 127
2, 226582, Note_on_c, 0, 72, 127
2, 226582, Note_on_c, 4, 76, 127
2, 226723, Note_off_c, 7, 67, 127
2, 226725, Note_off_c, 4, 76, 127
2, 226725, Note_off_c, 0, 72, 127
2, 226727, Note_on_c, 10, 69, 127
2, 226727, Note_on_c, 6, 78, 127
2, 226869, Note_off_c, 6, 78, 127
2, 226869, Note_off_c, 10, 69, 127
2, 226871, Note_on_c, 12, 71, 127
2, 226871, Note_on_c, 7, 79, 127
2, 227015, Note_on_c, 10, 69, 127
2, 227157, Note_off_c, 10, 69, 127
2, 227157, Note_off_c, 7, 79, 127
2, 227159, Note_on_c, 5, 65, 127
2, 227159, Note_on_c, 2, 74, 127
2, 227301, Note_off_c, 5, 65, 127
2, 227303, Note_on_c, 10, 69, 127
2, 227445, Note_off_c, 10, 69, 127
2, 227445, Note_off_c, 2, 74, 127
2, 227447, Note_on_c, 7, 67, 127
2, 227447, Note_on_c, 4, 76, 127
2, 227589, Note_off_c, 7, 67, 127
2, 227591, Note_on_c, 5, 65, 127
2, 227733, Note_off_c, 5, 65, 127
2, 227733, Note_off_c, 12, 71, 127
2, 227735, Note_on_c, 7, 67, 127
2, 227735, Note_on_c, 0, 72, 127
2, 227877, Note_off_c, 7, 67, 127
2, 227879, Note_on_c, 4, 64, 127
2, 228021, Note_off_c, 4, 64, 127
2, 228021, Note_off_c, 0, 72, 127
2, 228023, Note_on_c, 5, 65, 127
2, 228023, Note_on_c, 10, 69, 127
2, 228165, Note_off_c, 5, 65, 127
2, 228167, Note_on_c, 7, 67, 127
2, 228309, Note_off_c, 7, 67, 127
2, 228309, Note_off_c, 4, 76, 127
2, 228311, Note_on_c, 4, 64, 127
2, 228311, Note_on_c, 4, 76, 127
2, 228453, Note_off_c, 4, 64, 127
2, 228455, Note_on_c, 7, 67, 127
2, 228597, Note_off_c, 7, 67, 127
2, 228597, Note_off_c, 4, 76, 127
2, 228599, Note_on_c, 5, 65, 127
2, 228599, Note_on_c, 2, 74, 127
2, 228741, Note_off_c, 5, 65, 127
2, 228743, Note_on_c, 4, 64, 127
2, 228885, Note_off_c, 4, 64, 127
2, 228885, Note_off_c, 10, 69, 127
2, 228887, Note_on_c, 5, 65, 127
2, 228887, Note_on_c, 12, 71, 127
2, 229029, Note_off_c, 5, 65, 127
2, 229031, Note_on_c, 2, 62, 127
2, 229173, Note_off_c, 2, 62, 127
2, 229173, Note_off_c, 12, 71, 127
2, 229175, Note_on_c, 4, 64, 127
2, 229175, Note_on_c, 7, 67, 127
2, 229317, Note_off_c, 7, 67, 127
2, 229317, Note_off_c, 4, 64, 127
2, 229319, Note_on_c, 5, 65, 127
2, 229319, Note_on_c, 10, 69, 127
2, 229461, Note_off_c, 10, 69, 127
2, 229461, Note_off_c, 5, 65, 127
2, 229463, Note_on_c, 2, 62, 127
2, 229463, Note_on_c, 5, 65, 127
2, 229605, Note_off_c, 5, 65, 127
2, 229605, Note_off_c, 2, 62, 127
2, 229607, Note_on_c, 5, 65, 127
2, 229607, Note_on_c, 10, 69, 127
2, 229749, Note_off_c, 10, 69, 127
2, 229749, Note_off_c, 5, 65, 127
2, 229749, Note_off_c, 2, 74, 127
2, 229751, Note_on_c, 4, 64, 127
2, 229751, Note_on_c, 7, 67, 127
2, 229751, Note_on_c, 0, 72, 127
2, 229893, Note_off_c, 7, 67, 127
2, 229893, Note_off_c, 4, 64, 127
2, 229895, Note_on_c, 2, 62, 127
2, 229895, Note_on_c, 5, 65, 127
2, 230037, Note_off_c, 5, 65, 127
2, 230037, Note_off_c, 2, 62, 127
2, 230039, Note_on_c, 4, 64, 127
2, 230039, Note_on_c, 7, 67, 127
2, 230181, Note_off_c, 7, 67, 127
2, 230181, Note_off_c, 4, 64, 127
2, 230183, Note_on_c, 0, 60, 127
2, 230183, Note_on_c, 4, 64, 127
2, 230325, Note_off_c, 4, 64, 127
2, 230325, Note_off_c, 0, 60, 127
2, 230327, Note_on_c, 2, 62, 127
2, 230327, Note_on_c, 5, 65, 127
2, 230469, Note_off_c, 5, 65, 127
2, 230471, Note_on_c, 7, 67, 127
2, 230613, Note_off_c, 7, 67, 127
2, 230613, Note_off_c, 2, 62, 127
2, 230615, Note_on_c, 0, 60, 127
2, 230615, Note_on_c, 4, 64, 127
2, 230757, Note_off_c, 4, 64, 127
2, 230759, Note_on_c, 7, 67, 127
2, 230901, Note_off_c, 7, 67, 127
2, 230901, Note_off_c, 0, 60, 127
2, 230901, Note_off_c, 0, 72, 127
2, 230903, Note_on_c, 2, 62, 127
2, 230903, Note_on_c, 5, 65, 127
2, 230903, Note_on_c, 12, 71, 127
2, 231045, Note_off_c, 5, 65, 127
2, 231047, Note_on_c, 4, 64, 127
2, 231189, Note_off_c, 4, 64, 127
2, 231189, Note_off_c, 2, 62, 127
2, 231191, Note_on_c, 7, 55, 127
2, 231191, Note_on_c, 5, 65, 127
2, 231333, Note_off_c, 5, 65, 127
2, 231335, Note_on_c, 2, 62, 127
2, 231477, Note_off_c, 2, 62, 127
2, 231477, Note_off_c, 7, 55, 127
2, 231477, Note_off_c, 12, 71, 127
2, 231479, Note_on_c, 0, 60, 127
2, 231479, Note_on_c, 4, 64, 127
2, 231479, Note_on_c, 0, 72, 127
2, 231621, Note_off_c, 0, 60, 127
2, 231623, Note_on_c, 12, 59, 127
2, 231765, Note_off_c, 12, 59, 127
2, 231765, Note_off_c, 0, 72, 127
2, 231767, Note_on_c, 0, 60, 127
2, 231767, Note_on_c, 7, 67, 127
2, 231909, Note_off_c, 0, 60, 127
2, 231911, Note_on_c, 7, 55, 127
2, 232049, Note_off_c, 4, 64, 127
2, 232053, Note_off_c, 7, 55, 127
2, 232055, Note_on_c, 2, 62, 127
2, 232187, Note_off_c, 7, 67, 127
2, 232197, Note_off_c, 2, 62, 127
2, 232199, Note_on_c, 0, 60, 127
2, 232341, Note_off_c, 0, 60, 127
2, 232343, Note_on_c, 2, 62, 127
2, 232343, Note_on_c, 12, 71, 127
2, 232485, Note_off_c, 2, 62, 127
2, 232487, Note_on_c, 7, 55, 127
2, 232629, Note_off_c, 7, 55, 127
2, 232629, Note_off_c, 12, 71, 127
2, 232631, Note_on_c, 4, 64, 127
2, 232631, Note_on_c, 0, 72, 127
2, 232773, Note_off_c, 0, 72, 127
2, 232775, Note_on_c, 12, 71, 127
2, 232917, Note_off_c, 12, 71, 127
2, 232917, Note_off_c, 4, 64, 127
2, 232919, Note_on_c, 0, 60, 127
2, 232919, Note_on_c, 0, 72, 127
2, 233061, Note_off_c, 0, 72, 127
2, 233063, Note_on_c, 7, 67, 127
2, 233204, Note_off_c, 0, 60, 127
2, 233206, Note_off_c, 7, 67, 127
2, 233208, Note_on_c, 2, 74, 127
2, 233350, Note_off_c, 2, 74, 127
2, 233352, Note_on_c, 0, 72, 127
2, 233494, Note_off_c, 0, 72, 127
2, 233496, Note_on_c, 7, 55, 127
2, 233496, Note_on_c, 2, 74, 127
2, 233638, Note_off_c, 2, 74, 127
2, 233640, Note_on_c, 7, 67, 127
2, 233782, Note_off_c, 7, 67, 127
2, 233782, Note_off_c, 7, 55, 127
2, 233784, Note_on_c, 0, 60, 127
2, 233784, Note_on_c, 4, 76, 127
2, 233926, Note_off_c, 0, 60, 127
2, 233928, Note_on_c, 2, 62, 127
2, 234070, Note_off_c, 2, 62, 127
2, 234072, Note_on_c, 11, 58, 127
2, 234072, Note_on_c, 4, 64, 127
2, 234214, Note_off_c, 11, 58, 127
2, 234216, Note_on_c, 2, 62, 127
2, 234358, Note_off_c, 2, 62, 127
2, 234358, Note_off_c, 4, 64, 127
2, 234360, Note_on_c, 0, 60, 127
2, 234360, Note_on_c, 10, 69, 127
2, 234502, Note_off_c, 0, 60, 127
2, 234504, Note_on_c, 11, 58, 127
2, 234646, Note_off_c, 11, 58, 127
2, 234646, Note_off_c, 4, 76, 127
2, 234648, Note_on_c, 0, 60, 127
2, 234648, Note_on_c, 10, 81, 127
2, 234790, Note_off_c, 0, 60, 127
2, 234792, Note_on_c, 10, 57, 127
2, 234934, Note_off_c, 10, 57, 127
2, 234934, Note_off_c, 10, 81, 127
2, 234936, Note_on_c, 11, 58, 127
2, 234936, Note_on_c, 2, 74, 127
2, 235078, Note_off_c, 11, 58, 127
2, 235080, Note_on_c, 0, 60, 127
2, 235222, Note_off_c, 0, 60, 127
2, 235222, Note_off_c, 10, 69, 127
2, 235224, Note_on_c, 10, 57, 127
2, 235224, Note_on_c, 2, 62, 127
2, 235366, Note_off_c, 10, 57, 127
2, 235368, Note_on_c, 0, 60, 127
2, 235510, Note_off_c, 0, 60, 127
2, 235510, Note_off_c, 2, 62, 127
2, 235512, Note_on_c, 11, 58, 127
2, 235512, Note_on_c, 7, 67, 127
2, 235654, Note_off_c, 11, 58, 127
2, 235656, Note_on_c, 10, 57, 127
2, 235798, Note_off_c, 10, 57, 127
2, 235798, Note_off_c, 2, 74, 127
2, 235800, Note_on_c, 11, 58, 127
2, 235800, Note_on_c, 7, 79, 127
2, 235942, Note_off_c, 11, 58, 127
2, 235944, Note_on_c, 7, 55, 127
2, 236086, Note_off_c, 7, 55, 127
2, 236086, Note_off_c, 7, 79, 127
2, 236088, Note_on_c, 10, 57, 127
2, 236088, Note_on_c, 0, 72, 127
2, 236230, Note_off_c, 10, 57, 127
2, 236232, Note_on_c, 11, 58, 127
2, 236374, Note_off_c, 11, 58, 127
2, 236374, Note_off_c, 7, 67, 127
2, 236376, Note_on_c, 7, 55, 127
2, 236376, Note_on_c, 0, 60, 127
2, 236518, Note_off_c, 7, 55, 127
2, 236520, Note_on_c, 11, 58, 127
2, 236662, Note_off_c, 11, 58, 127
2, 236662, Note_off_c, 0, 60, 127
2, 236664, Note_on_c, 10, 57, 127
2, 236664, Note_on_c, 5, 65, 127
2, 236806, Note_off_c, 10, 57, 127
2, 236808, Note_on_c, 7, 55, 127
2, 236950, Note_off_c, 7, 55, 127
2, 236950, Note_off_c, 0, 72, 127
2, 236952, Note_on_c, 10, 57, 127
2, 236952, Note_on_c, 5, 77, 127
2, 237094, Note_off_c, 10, 57, 127
2, 237096, Note_on_c, 5, 53, 127
2, 237238, Note_off_c, 5, 53, 127
2, 237238, Note_off_c, 5, 77, 127
2, 237240, Note_on_c, 7, 55, 127
2, 237240, Note_on_c, 11, 70, 127
2, 237382, Note_off_c, 11, 70, 127
2, 237384, Note_on_c, 0, 72, 127
2, 237526, Note_off_c, 0, 72, 127
2, 237526, Note_off_c, 7, 55, 127
2, 237528, Note_on_c, 5, 53, 127
2, 237528, Note_on_c, 10, 69, 127
2, 237670, Note_off_c, 10, 69, 127
2, 237672, Note_on_c, 0, 72, 127
2, 237814, Note_off_c, 0, 72, 127
2, 237814, Note_off_c, 5, 53, 127
2, 237814, Note_off_c, 5, 65, 127
2, 237816, Note_on_c, 7, 55, 127
2, 237816, Note_on_c, 4, 64, 127
2, 237816, Note_on_c, 11, 70, 127
2, 237958, Note_off_c, 11, 70, 127
2, 237960, Note_on_c, 10, 69, 127
2, 238102, Note_off_c, 10, 69, 127
2, 238102, Note_off_c, 7, 55, 127
2, 238104, Note_on_c, 0, 48, 127
2, 238104, Note_on_c, 11, 70, 127
2, 238246, Note_off_c, 11, 70, 127
2, 238248, Note_on_c, 7, 67, 127
2, 238390, Note_off_c, 7, 67, 127
2, 238390, Note_off_c, 0, 48, 127
2, 238390, Note_off_c, 4, 64, 127
2, 238392, Note_on_c, 5, 53, 127
2, 238392, Note_on_c, 5, 65, 127
2, 238392, Note_on_c, 10, 69, 127
2, 238534, Note_off_c, 5, 53, 127
2, 238536, Note_on_c, 4, 52, 127
2, 238678, Note_off_c, 4, 52, 127
2, 238680, Note_on_c, 5, 53, 127
2, 238822, Note_off_c, 5, 53, 127
2, 238824, Note_on_c, 0, 48, 127
2, 238902, Note_off_c, 10, 69, 127
2, 238932, Note_off_c, 5, 65, 127
2, 238966, Note_off_c, 0, 48, 127
2, 238968, Note_on_c, 7, 55, 127
2, 239110, Note_off_c, 7, 55, 127
2, 239112, Note_on_c, 5, 53, 127
2, 239254, Note_off_c, 5, 53, 127
2, 239256, Note_on_c, 7, 55, 127
2, 239256, Note_on_c, 4, 64, 127
2, 239398, Note_off_c, 7, 55, 127
2, 239400, Note_on_c, 0, 48, 127
2, 239542, Note_off_c, 0, 48, 127
2, 239542, Note_off_c, 4, 64, 127
2, 239544, Note_on_c, 10, 57, 127
2, 239544, Note_on_c, 5, 65, 127
2, 239686, Note_off_c, 5, 65, 127
2, 239688, Note_on_c, 4, 64, 127
2, 239830, Note_off_c, 4, 64, 127
2, 239830, Note_off_c, 10, 57, 127
2, 239832, Note_on_c, 5, 53, 127
2, 239832, Note_on_c, 5, 65, 127
2, 239974, Note_off_c, 5, 65, 127
2, 239976, Note_on_c, 0, 60, 127
2, 240118, Note_off_c, 0, 60, 127
2, 240120, Note_on_c, 7, 67, 127
2, 240212, Note_off_c, 5, 53, 127
2, 240262, Note_off_c, 7, 67, 127
2, 240264, Note_on_c, 5, 65, 127
2, 240406, Note_off_c, 5, 65, 127
2, 240408, Note_on_c, 0, 48, 127
2, 240408, Note_on_c, 7, 67, 127
2, 240550, Note_off_c, 7, 67, 127
2, 240552, Note_on_c, 0, 60, 127
2, 240694, Note_off_c, 0, 60, 127
2, 240694, Note_off_c, 0, 48, 127
2, 240696, Note_on_c, 5, 53, 127
2, 240696, Note_on_c, 10, 69, 127
2, 240838, Note_off_c, 10, 69, 127
2, 240838, Note_off_c, 5, 53, 127
2, 240840, Note_on_c, 4, 52, 127
2, 240840, Note_on_c, 7, 67, 127
2, 240982, Note_off_c, 7, 67, 127
2, 240982, Note_off_c, 4, 52, 127
2, 240984, Note_on_c, 5, 53, 127
2, 240984, Note_on_c, 10, 69, 127
2, 241126, Note_off_c, 10, 69, 127
2, 241126, Note_off_c, 5, 53, 127
2, 241128, Note_on_c, 0, 48, 127
2, 241128, Note_on_c, 5, 65, 127
2, 241270, Note_off_c, 5, 65, 127
2, 241270, Note_off_c, 0, 48, 127
2, 241272, Note_on_c, 7, 55, 127
2, 241272, Note_on_c, 11, 70, 127
2, 241414, Note_off_c, 11, 70, 127
2, 241414, Note_off_c, 7, 55, 127
2, 241416, Note_on_c, 5, 53, 127
2, 241416, Note_on_c, 10, 69, 127
2, 241558, Note_off_c, 10, 69, 127
2, 241558, Note_off_c, 5, 53, 127
2, 241560, Note_on_c, 7, 55, 127
2, 241560, Note_on_c, 11, 70, 127
2, 241702, Note_off_c, 11, 70, 127
2, 241702, Note_off_c, 7, 55, 127
2, 241704, Note_on_c, 0, 48, 127
2, 241704, Note_on_c, 7, 67, 127
2, 241846, Note_off_c, 7, 67, 127
2, 241846, Note_off_c, 0, 48, 127
2, 241848, Note_on_c, 10, 57, 127
2, 241848, Note_on_c, 0, 72, 127
2, 241990, Note_off_c, 0, 72, 127
2, 241990, Note_off_c, 10, 57, 127
2, 241992, Note_on_c, 7, 55, 127
2, 241992, Note_on_c, 11, 70, 127
2, 242134, Note_off_c, 11, 70, 127
2, 242134, Note_off_c, 7, 55, 127
2, 242136, Note_on_c, 10, 57, 127
2, 242136, Note_on_c, 0, 72, 127
2, 242278, Note_off_c, 0, 72, 127
2, 242278, Note_off_c, 10, 57, 127
2, 242280, Note_on_c, 4, 52, 127
2, 242280, Note_on_c, 0, 60, 127
2, 242422, Note_off_c, 0, 60, 127
2, 242422, Note_off_c, 4, 52, 127
2, 242424, Note_on_c, 5, 53, 127
2, 242424, Note_on_c, 2, 62, 127
2, 242566, Note_off_c, 2, 62, 127
2, 242566, Note_off_c, 5, 53, 127
2, 242568, Note_on_c, 4, 52, 127
2, 242568, Note_on_c, 5, 65, 127
2, 242710, Note_off_c, 5, 65, 127
2, 242710, Note_off_c, 4, 52, 127
2, 242712, Note_on_c, 5, 53, 127
2, 242712, Note_on_c, 10, 69, 127
2, 242854, Note_off_c, 10, 69, 127
2, 242854, Note_off_c, 5, 53, 127
2, 242856, Note_on_c, 2, 50, 127
2, 242856, Note_on_c, 0, 72, 127
2, 242998, Note_off_c, 0, 72, 127
2, 242998, Note_off_c, 2, 50, 127
2, 243000, Note_on_c, 7, 55, 127
2, 243000, Note_on_c, 11, 70, 127
2, 243142, Note_off_c, 11, 70, 127
2, 243142, Note_off_c, 7, 55, 127
2, 243144, Note_on_c, 5, 53, 127
2, 243144, Note_on_c, 10, 69, 127
2, 243286, Note_off_c, 10, 69, 127
2, 243286, Note_off_c, 5, 53, 127
2, 243288, Note_on_c, 7, 55, 127
2, 243288, Note_on_c, 11, 70, 127
2, 243430, Note_off_c, 11, 70, 127
2, 243430, Note_off_c, 7, 55, 127
2, 243432, Note_on_c, 2, 50, 127
2, 243432, Note_on_c, 11, 58, 127
2, 243574, Note_off_c, 11, 58, 127
2, 243574, Note_off_c, 2, 50, 127
2, 243576, Note_on_c, 4, 52, 127
2, 243576, Note_on_c, 0, 60, 127
2, 243718, Note_off_c, 0, 60, 127
2, 243718, Note_off_c, 4, 52, 127
2, 243720, Note_on_c, 2, 50, 127
2, 243720, Note_on_c, 4, 64, 127
2, 243862, Note_off_c, 4, 64, 127
2, 243862, Note_off_c, 2, 50, 127
2, 243864, Note_on_c, 4, 52, 127
2, 243864, Note_on_c, 7, 67, 127
2, 244006, Note_off_c, 7, 67, 127
2, 244006, Note_off_c, 4, 52, 127
2, 244008, Note_on_c, 0, 48, 127
2, 244008, Note_on_c, 11, 70, 127
2, 244150, Note_off_c, 11, 70, 127
2, 244150, Note_off_c, 0, 48, 127
2, 244152, Note_on_c, 5, 53, 127
2, 244152, Note_on_c, 10, 69, 127
2, 244294, Note_off_c, 5, 53, 127
2, 244296, Note_on_c, 4, 52, 127
2, 244438, Note_off_c, 4, 52, 127
2, 244438, Note_off_c, 10, 69, 127
2, 244440, Note_on_c, 5, 53, 127
2, 244440, Note_on_c, 10, 57, 127
2, 244582, Note_off_c, 5, 53, 127
2, 244584, Note_on_c, 5, 41, 127
2, 244726, Note_off_c, 5, 41, 127
2, 244726, Note_off_c, 10, 57, 127
2, 244728, Note_on_c, 7, 43, 127
2, 244728, Note_on_c, 11, 58, 127
2, 244870, Note_off_c, 7, 43, 127
2, 244872, Note_on_c, 11, 46, 127
2, 245014, Note_off_c, 11, 46, 127
2, 245014, Note_off_c, 11, 58, 127
2, 245016, Note_on_c, 2, 50, 127
2, 245016, Note_on_c, 10, 69, 127
2, 245158, Note_off_c, 2, 50, 127
2, 245160, Note_on_c, 5, 53, 127
2, 245302, Note_off_c, 5, 53, 127
2, 245302, Note_off_c, 10, 69, 127
2, 245304, Note_on_c, 4, 52, 127
2, 245304, Note_on_c, 7, 67, 127
2, 245446, Note_off_c, 4, 52, 127
2, 245448, Note_on_c, 2, 50, 127
2, 245590, Note_off_c, 2, 50, 127
2, 245590, Note_off_c, 7, 67, 127
2, 245592, Note_on_c, 4, 52, 127
2, 245592, Note_on_c, 7, 55, 127
2, 245734, Note_off_c, 4, 52, 127
2, 245736, Note_on_c, 4, 40, 127
2, 245878, Note_off_c, 4, 40, 127
2, 245878, Note_off_c, 7, 55, 127
2, 245880, Note_on_c, 5, 41, 127
2, 245880, Note_on_c, 10, 57, 127
2, 246022, Note_off_c, 5, 41, 127
2, 246024, Note_on_c, 10, 45, 127
2, 246166, Note_off_c, 10, 45, 127
2, 246166, Note_off_c, 10, 57, 127
2, 246168, Note_on_c, 0, 48, 127
2, 246168, Note_on_c, 7, 67, 127
2, 246310, Note_off_c, 0, 48, 127
2, 246312, Note_on_c, 4, 52, 127
2, 246454, Note_off_c, 4, 52, 127
2, 246454, Note_off_c, 7, 67, 127
2, 246456, Note_on_c, 2, 50, 127
2, 246456, Note_on_c, 5, 65, 127
2, 246598, Note_off_c, 2, 50, 127
2, 246600, Note_on_c, 0, 48, 127
2, 246742, Note_off_c, 0, 48, 127
2, 246742, Note_off_c, 5, 65, 127
2, 246744, Note_on_c, 2, 50, 127
2, 246744, Note_on_c, 5, 53, 127
2, 246886, Note_off_c, 2, 50, 127
2, 246888, Note_on_c, 2, 38, 127
2, 247030, Note_off_c, 2, 38, 127
2, 247030, Note_off_c, 5, 53, 127
2, 247032, Note_on_c, 4, 40, 127
2, 247032, Note_on_c, 7, 55, 127
2, 247174, Note_off_c, 4, 40, 127
2, 247176, Note_on_c, 7, 43, 127
2, 247318, Note_off_c, 7, 43, 127
2, 247318, Note_off_c, 7, 55, 127
2, 247320, Note_on_c, 12, 47, 127
2, 247320, Note_on_c, 5, 65, 127
2, 247462, Note_off_c, 12, 47, 127
2, 247464, Note_on_c, 2, 50, 127
2, 247606, Note_off_c, 2, 50, 127
2, 247606, Note_off_c, 5, 65, 127
2, 247608, Note_on_c, 0, 48, 127
2, 247608, Note_on_c, 4, 64, 127
2, 247750, Note_off_c, 4, 64, 127
2, 247750, Note_off_c, 0, 48, 127
2, 247752, Note_on_c, 12, 47, 127
2, 247752, Note_on_c, 2, 62, 127
2, 247894, Note_off_c, 2, 62, 127
2, 247894, Note_off_c, 12, 47, 127
2, 247896, Note_on_c, 0, 48, 127
2, 247896, Note_on_c, 4, 64, 127
2, 248038, Note_off_c, 4, 64, 127
2, 248038, Note_off_c, 0, 48, 127
2, 248040, Note_on_c, 4, 40, 127
2, 248040, Note_on_c, 7, 55, 127
2, 248182, Note_off_c, 7, 55, 127
2, 248182, Note_off_c, 4, 40, 127
2, 248184, Note_on_c, 5, 41, 127
2, 248184, Note_on_c, 10, 57, 127
2, 248326, Note_off_c, 10, 57, 127
2, 248326, Note_off_c, 5, 41, 127
2, 248328, Note_on_c, 4, 40, 127
2, 248328, Note_on_c, 4, 64, 127
2, 248470, Note_off_c, 4, 64, 127
2, 248470, Note_off_c, 4, 40, 127
2, 248472, Note_on_c, 5, 41, 127
2, 248472, Note_on_c, 2, 62, 127
2, 248614, Note_off_c, 2, 62, 127
2, 248614, Note_off_c, 5, 41, 127
2, 248616, Note_on_c, 2, 38, 127
2, 248616, Note_on_c, 0, 60, 127
2, 248758, Note_off_c, 0, 60, 127
2, 248758, Note_off_c, 2, 38, 127
2, 248760, Note_on_c, 7, 43, 127
2, 248760, Note_on_c, 12, 59, 127
2, 248902, Note_off_c, 12, 59, 127
2, 248904, Note_on_c, 10, 57, 127
2, 249046, Note_off_c, 10, 57, 127
2, 249046, Note_off_c, 7, 43, 127
2, 249048, Note_on_c, 7, 55, 127
2, 249048, Note_on_c, 12, 59, 127
2, 249190, Note_off_c, 12, 59, 127
2, 249190, Note_off_c, 7, 55, 127
2, 249192, Note_on_c, 5, 53, 127
2, 249192, Note_on_c, 7, 55, 127
2, 249334, Note_off_c, 7, 55, 127
2, 249334, Note_off_c, 5, 53, 127
2, 249336, Note_on_c, 4, 52, 127
2, 249336, Note_on_c, 0, 60, 127
2, 249478, Note_off_c, 0, 60, 127
2, 249480, Note_on_c, 12, 59, 127
2, 249622, Note_off_c, 12, 59, 127
2, 249622, Note_off_c, 4, 52, 127
2, 249624, Note_on_c, 0, 48, 127
2, 249624, Note_on_c, 0, 60, 127
2, 249766, Note_off_c, 0, 60, 127
2, 249768, Note_on_c, 7, 55, 127
2, 249910, Note_off_c, 7, 55, 127
2, 249910, Note_off_c, 0, 48, 127
2, 249912, Note_on_c, 5, 53, 127
2, 249912, Note_on_c, 10, 57, 127
2, 250054, Note_off_c, 10, 57, 127
2, 250056, Note_on_c, 7, 55, 127
2, 250198, Note_off_c, 7, 55, 127
2, 250200, Note_on_c, 10, 57, 127
2, 250342, Note_off_c, 10, 57, 127
2, 250342, Note_off_c, 5, 53, 127
2, 250344, Note_on_c, 4, 52, 127
2, 250344, Note_on_c, 0, 60, 127
2, 250486, Note_off_c, 0, 60, 127
2, 250486, Note_off_c, 4, 52, 127
2, 250488, Note_on_c, 5, 53, 127
2, 250488, Note_on_c, 2, 62, 127
2, 250630, Note_off_c, 2, 62, 127
2, 250632, Note_on_c, 0, 60, 127
2, 250774, Note_off_c, 0, 60, 127
2, 250774, Note_off_c, 5, 53, 127
2, 250776, Note_on_c, 2, 50, 127
2, 250776, Note_on_c, 2, 62, 127
2, 250918, Note_off_c, 2, 62, 127
2, 250920, Note_on_c, 10, 57, 127
2, 251062, Note_off_c, 10, 57, 127
2, 251062, Note_off_c, 2, 50, 127
2, 251064, Note_on_c, 7, 55, 127
2, 251064, Note_on_c, 12, 59, 127
2, 251206, Note_off_c, 12, 59, 127
2, 251208, Note_on_c, 10, 57, 127
2, 251350, Note_off_c, 10, 57, 127
2, 251352, Note_on_c, 12, 59, 127
2, 251494, Note_off_c, 12, 59, 127
2, 251494, Note_off_c, 7, 55, 127
2, 251496, Note_on_c, 5, 53, 127
2, 251496, Note_on_c, 2, 62, 127
2, 251638, Note_off_c, 2, 62, 127
2, 251638, Note_off_c, 5, 53, 127
2, 251640, Note_on_c, 7, 55, 127
2, 251640, Note_on_c, 4, 64, 127
2, 251782, Note_off_c, 4, 64, 127
2, 251784, Note_on_c, 2, 62, 127
2, 251926, Note_off_c, 2, 62, 127
2, 251926, Note_off_c, 7, 55, 127
2, 251928, Note_on_c, 4, 52, 127
2, 251928, Note_on_c, 4, 64, 127
2, 252070, Note_off_c, 4, 64, 127
2, 252072, Note_on_c, 12, 59, 127
2, 252214, Note_off_c, 12, 59, 127
2, 252214, Note_off_c, 4, 52, 127
2, 252216, Note_on_c, 10, 57, 127
2, 252216, Note_on_c, 0, 60, 127
2, 252358, Note_off_c, 0, 60, 127
2, 252360, Note_on_c, 12, 59, 127
2, 252502, Note_off_c, 12, 59, 127
2, 252504, Note_on_c, 0, 60, 127
2, 252646, Note_off_c, 0, 60, 127
2, 252646, Note_off_c, 10, 57, 127
2, 252648, Note_on_c, 7, 55, 127
2, 252648, Note_on_c, 4, 64, 127
2, 252790, Note_off_c, 4, 64, 127
2, 252790, Note_off_c, 7, 55, 127
2, 252792, Note_on_c, 10, 57, 127
2, 252792, Note_on_c, 5, 65, 127
2, 252934, Note_off_c, 5, 65, 127
2, 252936, Note_on_c, 4, 64, 127
2, 253078, Note_off_c, 4, 64, 127
2, 253078, Note_off_c, 10, 57, 127
2, 253080, Note_on_c, 5, 53, 127
2, 253080, Note_on_c, 5, 65, 127
2, 253222, Note_off_c, 5, 65, 127
2, 253224, Note_on_c, 0, 60, 127
2, 253366, Note_off_c, 0, 60, 127
2, 253366, Note_off_c, 5, 53, 127
2, 253368, Note_on_c, 12, 59, 127
2, 253368, Note_on_c, 2, 62, 127
2, 253510, Note_off_c, 2, 62, 127
2, 253512, Note_on_c, 0, 60, 127
2, 253654, Note_off_c, 0, 60, 127
2, 253656, Note_on_c, 2, 62, 127
2, 253798, Note_off_c, 2, 62, 127
2, 253798, Note_off_c, 12, 59, 127
2, 253800, Note_on_c, 10, 57, 127
2, 253800, Note_on_c, 5, 65, 127
2, 253942, Note_off_c, 5, 65, 127
2, 253942, Note_off_c, 10, 57, 127
2, 253944, Note_on_c, 12, 59, 127
2, 253944, Note_on_c, 7, 67, 127
2, 254086, Note_off_c, 7, 67, 127
2, 254088, Note_on_c, 5, 65, 127
2, 254230, Note_off_c, 5, 65, 127
2, 254230, Note_off_c, 12, 59, 127
2, 254232, Note_on_c, 7, 55, 127
2, 254232, Note_on_c, 7, 67, 127
2, 254374, Note_off_c, 7, 67, 127
2, 254376, Note_on_c, 2, 62, 127
2, 254518, Note_off_c, 2, 62, 127
2, 254518, Note_off_c, 7, 55, 127
2, 254520, Note_on_c, 0, 60, 127
2, 254520, Note_on_c, 4, 64, 127
2, 254662, Note_off_c, 0, 60, 127
2, 254664, Note_on_c, 12, 59, 127
2, 254806, Note_off_c, 12, 59, 127
2, 254806, Note_off_c, 4, 64, 127
2, 254808, Note_on_c, 0, 60, 127
2, 254808, Note_on_c, 0, 72, 127
2, 254950, Note_off_c, 0, 60, 127
2, 254952, Note_on_c, 7, 55, 127
2, 255094, Note_off_c, 7, 55, 127
2, 255094, Note_off_c, 0, 72, 127
2, 255096, Note_on_c, 2, 62, 127
2, 255096, Note_on_c, 5, 65, 127
2, 255238, Note_off_c, 2, 62, 127
2, 255240, Note_on_c, 0, 60, 127
2, 255382, Note_off_c, 0, 60, 127
2, 255382, Note_off_c, 5, 65, 127
2, 255384, Note_on_c, 2, 62, 127
2, 255384, Note_on_c, 0, 72, 127
2, 255526, Note_off_c, 2, 62, 127
2, 255528, Note_on_c, 7, 55, 127
2, 255670, Note_off_c, 7, 55, 127
2, 255670, Note_off_c, 0, 72, 127
2, 255672, Note_on_c, 4, 64, 127
2, 255672, Note_on_c, 7, 67, 127
2, 255814, Note_off_c, 4, 64, 127
2, 255816, Note_on_c, 2, 62, 127
2, 255958, Note_off_c, 2, 62, 127
2, 255958, Note_off_c, 7, 67, 127
2, 255960, Note_on_c, 4, 64, 127
2, 255960, Note_on_c, 0, 72, 127
2, 256102, Note_off_c, 4, 64, 127
2, 256104, Note_on_c, 7, 55, 127
2, 256246, Note_off_c, 7, 55, 127
2, 256246, Note_off_c, 0, 72, 127
2, 256248, Note_on_c, 5, 65, 127
2, 256248, Note_on_c, 10, 69, 127
2, 256390, Note_off_c, 5, 65, 127
2, 256392, Note_on_c, 4, 64, 127
2, 256534, Note_off_c, 4, 64, 127
2, 256534, Note_off_c, 10, 69, 127
2, 256536, Note_on_c, 5, 65, 127
2, 256536, Note_on_c, 2, 74, 127
2, 256678, Note_off_c, 5, 65, 127
2, 256680, Note_on_c, 7, 55, 127
2, 256822, Note_off_c, 7, 55, 127
2, 256824, Note_on_c, 4, 64, 127
2, 256966, Note_off_c, 2, 74, 127
2, 256968, Note_on_c, 7, 67, 127
2, 257110, Note_off_c, 7, 67, 127
2, 257112, Note_on_c, 10, 69, 127
2, 257254, Note_off_c, 10, 69, 127
2, 257256, Note_on_c, 12, 71, 127
2, 257398, Note_off_c, 12, 71, 127
2, 257400, Note_on_c, 0, 72, 127
2, 257544, Note_on_c, 2, 74, 127
2, 257686, Note_off_c, 2, 74, 127
2, 257688, Note_on_c, 4, 76, 127
2, 257830, Note_off_c, 4, 76, 127
2, 257832, Note_on_c, 5, 77, 127
2, 257974, Note_off_c, 5, 77, 127
2, 257974, Note_off_c, 4, 64, 127
2, 257976, Note_on_c, 4, 64, 127
2, 257976, Note_on_c, 7, 79, 127
2, 258120, Note_off_c, 0, 72, 127
2, 258120, Note_on_c, 10, 69, 127
2, 258262, Note_off_c, 10, 69, 127
2, 258262, Note_off_c, 7, 79, 127
2, 258264, Note_on_c, 7, 67, 127
2, 258264, Note_on_c, 7, 79, 127
2, 258396, Note_off_c, 4, 64, 127
2, 258406, Note_off_c, 7, 67, 127
2, 258408, Note_on_c, 5, 65, 127
2, 258550, Note_off_c, 5, 65, 127
2, 258550, Note_off_c, 7, 79, 127
2, 258552, Note_on_c, 4, 64, 127
2, 258552, Note_on_c, 7, 79, 127
2, 258696, Note_on_c, 2, 62, 127
2, 258838, Note_off_c, 2, 62, 127
2, 258838, Note_off_c, 7, 79, 127
2, 258840, Note_on_c, 0, 60, 127
2, 258840, Note_on_c, 7, 79, 127
2, 258982, Note_off_c, 7, 79, 127
2, 258982, Note_off_c, 0, 60, 127
2, 258984, Note_on_c, 12, 59, 127
2, 258984, Note_on_c, 10, 81, 127
2, 259126, Note_off_c, 10, 81, 127
2, 259126, Note_off_c, 12, 59, 127
2, 259128, Note_on_c, 0, 60, 127
2, 259128, Note_on_c, 7, 79, 127
2, 259270, Note_off_c, 7, 79, 127
2, 259272, Note_on_c, 5, 77, 127
2, 259414, Note_off_c, 5, 77, 127
2, 259414, Note_off_c, 0, 60, 127
2, 259414, Note_off_c, 4, 64, 127
2, 259416, Note_on_c, 7, 55, 127
2, 259416, Note_on_c, 12, 59, 127
2, 259416, Note_on_c, 4, 76, 127
2, 259558, Note_off_c, 4, 76, 127
2, 259560, Note_on_c, 2, 74, 127
2, 259702, Note_off_c, 2, 74, 127
2, 259702, Note_off_c, 12, 59, 127
2, 259702, Note_off_c, 7, 55, 127
2, 259704, Note_on_c, 10, 57, 127
2, 259704, Note_on_c, 0, 60, 127
2, 259704, Note_on_c, 0, 72, 127
2, 259846, Note_off_c, 0, 72, 127
2, 259848, Note_on_c, 7, 79, 127
2, 259990, Note_off_c, 7, 79, 127
2, 259990, Note_off_c, 10, 57, 127
2, 259992, Note_on_c, 4, 52, 127
2, 259992, Note_on_c, 5, 77, 127
2, 260134, Note_off_c, 5, 77, 127
2, 260136, Note_on_c, 7, 79, 127
2, 260278, Note_off_c, 7, 79, 127
2, 260278, Note_off_c, 4, 52, 127
2, 260280, Note_on_c, 5, 53, 127
2, 260280, Note_on_c, 10, 81, 127
2, 260422, Note_off_c, 10, 81, 127
2, 260424, Note_on_c, 7, 79, 127
2, 260566, Note_off_c, 7, 79, 127
2, 260566, Note_off_c, 0, 60, 127
2, 260568, Note_on_c, 10, 57, 127
2, 260568, Note_on_c, 5, 77, 127
2, 260710, Note_off_c, 5, 77, 127
2, 260712, Note_on_c, 4, 76, 127
2, 260854, Note_off_c, 4, 76, 127
2, 260854, Note_off_c, 10, 57, 127
2, 260856, Note_on_c, 2, 62, 127
2, 260856, Note_on_c, 2, 74, 127
2, 260998, Note_off_c, 2, 74, 127
2, 261000, Note_off_c, 5, 53, 127
2, 261000, Note_on_c, 10, 81, 127
2, 261142, Note_off_c, 10, 81, 127
2, 261144, Note_on_c, 6, 54, 127
2, 261144, Note_on_c, 7, 79, 127
2, 261286, Note_off_c, 7, 79, 127
2, 261288, Note_on_c, 10, 81, 127
2, 261430, Note_off_c, 10, 81, 127
2, 261430, Note_off_c, 6, 54, 127
2, 261432, Note_on_c, 7, 55, 127
2, 261432, Note_on_c, 12, 83, 127
2, 261574, Note_off_c, 12, 83, 127
2, 261576, Note_on_c, 10, 81, 127
2, 261718, Note_off_c, 10, 81, 127
2, 261718, Note_off_c, 2, 62, 127
2, 261720, Note_on_c, 12, 59, 127
2, 261720, Note_on_c, 7, 79, 127
2, 261862, Note_off_c, 7, 79, 127
2, 261864, Note_on_c, 5, 77, 127
2, 262006, Note_off_c, 5, 77, 127
2, 262006, Note_off_c, 12, 59, 127
2, 262008, Note_on_c, 4, 64, 127
2, 262008, Note_on_c, 4, 76, 127
2, 262150, Note_off_c, 4, 76, 127
2, 262152, Note_off_c, 7, 55, 127
2, 262152, Note_on_c, 12, 83, 127
2, 262294, Note_off_c, 12, 83, 127
2, 262296, Note_on_c, 8, 56, 127
2, 262296, Note_on_c, 10, 81, 127
2, 262438, Note_off_c, 10, 81, 127
2, 262440, Note_on_c, 12, 83, 127
2, 262582, Note_off_c, 12, 83, 127
2, 262582, Note_off_c, 8, 56, 127
2, 262584, Note_on_c, 10, 57, 127
2, 262584, Note_on_c, 0, 84, 127
2, 262870, Note_off_c, 0, 84, 127
2, 262870, Note_off_c, 4, 64, 127
2, 262872, Note_on_c, 0, 60, 127
2, 262872, Note_on_c, 12, 83, 127
2, 263014, Note_off_c, 12, 83, 127
2, 263016, Note_on_c, 10, 81, 127
2, 263158, Note_off_c, 10, 81, 127
2, 263158, Note_off_c, 0, 60, 127
2, 263158, Note_off_c, 10, 57, 127
2, 263160, Note_on_c, 12, 59, 127
2, 263160, Note_on_c, 2, 62, 127
2, 263160, Note_on_c, 7, 79, 127
2, 263302, Note_off_c, 7, 79, 127
2, 263304, Note_on_c, 10, 81, 127
2, 263446, Note_off_c, 10, 81, 127
2, 263446, Note_off_c, 12, 59, 127
2, 263448, Note_on_c, 7, 55, 127
2, 263448, Note_on_c, 5, 77, 127
2, 263590, Note_off_c, 5, 77, 127
2, 263592, Note_on_c, 7, 79, 127
2, 263734, Note_off_c, 7, 79, 127
2, 263734, Note_off_c, 7, 55, 127
2, 263736, Note_on_c, 0, 60, 127
2, 263736, Note_on_c, 4, 76, 127
2, 263878, Note_off_c, 4, 76, 127
2, 263880, Note_on_c, 5, 77, 127
2, 264022, Note_off_c, 5, 77, 127
2, 264022, Note_off_c, 0, 60, 127
2, 264024, Note_on_c, 12, 59, 127
2, 264024, Note_on_c, 2, 74, 127
2, 264166, Note_off_c, 2, 74, 127
2, 264168, Note_on_c, 5, 77, 127
2, 264310, Note_off_c, 5, 77, 127
2, 264310, Note_off_c, 12, 59, 127
2, 264310, Note_off_c, 2, 62, 127
2, 264312, Note_on_c, 10, 57, 127
2, 264312, Note_on_c, 0, 60, 127
2, 264312, Note_on_c, 4, 76, 127
2, 264454, Note_off_c, 4, 76, 127
2, 264456, Note_on_c, 2, 74, 127
2, 264598, Note_off_c, 2, 74, 127
2, 264598, Note_off_c, 10, 57, 127
2, 264600, Note_on_c, 7, 55, 127
2, 264600, Note_on_c, 4, 76, 127
2, 264742, Note_off_c, 4, 76, 127
2, 264744, Note_on_c, 0, 72, 127
2, 264886, Note_off_c, 0, 72, 127
2, 264886, Note_off_c, 7, 55, 127
2, 264888, Note_on_c, 5, 53, 127
2, 264888, Note_on_c, 2, 74, 127
2, 265030, Note_off_c, 2, 74, 127
2, 265032, Note_on_c, 4, 76, 127
2, 265174, Note_off_c, 4, 76, 127
2, 265174, Note_off_c, 5, 53, 127
2, 265176, Note_on_c, 2, 50, 127
2, 265176, Note_on_c, 0, 72, 127
2, 265318, Note_off_c, 0, 72, 127
2, 265320, Note_on_c, 4, 76, 127
2, 265462, Note_off_c, 4, 76, 127
2, 265462, Note_off_c, 2, 50, 127
2, 265462, Note_off_c, 0, 60, 127
2, 265464, Note_on_c, 7, 55, 127
2, 265464, Note_on_c, 12, 59, 127
2, 265464, Note_on_c, 2, 74, 127
2, 265606, Note_off_c, 2, 74, 127
2, 265608, Note_on_c, 0, 72, 127
2, 265750, Note_off_c, 0, 72, 127
2, 265750, Note_off_c, 7, 55, 127
2, 265752, Note_on_c, 5, 53, 127
2, 265752, Note_on_c, 2, 74, 127
2, 265894, Note_off_c, 2, 74, 127
2, 265896, Note_on_c, 12, 71, 127
2, 266038, Note_off_c, 12, 71, 127
2, 266038, Note_off_c, 5, 53, 127
2, 266038, Note_off_c, 12, 59, 127
2, 266040, Note_on_c, 4, 52, 127
2, 266040, Note_on_c, 0, 60, 127
2, 266040, Note_on_c, 0, 72, 127
2, 266182, Note_off_c, 0, 72, 127
2, 266184, Note_on_c, 2, 74, 127
2, 266326, Note_off_c, 2, 74, 127
2, 266328, Note_on_c, 12, 71, 127
2, 266470, Note_off_c, 12, 71, 127
2, 266472, Note_on_c, 2, 74, 127
2, 266610, Note_off_c, 0, 60, 127
2, 266614, Note_off_c, 2, 74, 127
2, 266616, Note_on_c, 0, 72, 127
2, 266758, Note_off_c, 0, 72, 127
2, 266760, Note_off_c, 4, 52, 127
2, 266760, Note_on_c, 12, 71, 127
2, 266902, Note_off_c, 12, 71, 127
2, 266904, Note_on_c, 4, 40, 127
2, 266904, Note_on_c, 0, 72, 127
2, 267046, Note_off_c, 0, 72, 127
2, 267046, Note_off_c, 4, 40, 127
2, 267048, Note_on_c, 5, 41, 127
2, 267048, Note_on_c, 10, 69, 127
2, 267190, Note_off_c, 10, 69, 127
2, 267190, Note_off_c, 5, 41, 127
2, 267192, Note_on_c, 7, 43, 127
2, 267192, Note_on_c, 12, 71, 127
2, 267334, Note_off_c, 12, 71, 127
2, 267336, Note_on_c, 0, 72, 127
2, 267478, Note_off_c, 0, 72, 127
2, 267478, Note_off_c, 7, 43, 127
2, 267480, Note_on_c, 7, 43, 127
2, 267480, Note_on_c, 10, 69, 127
2, 267622, Note_off_c, 10, 69, 127
2, 267624, Note_on_c, 0, 72, 127
2, 267766, Note_off_c, 0, 72, 127
2, 267766, Note_off_c, 7, 43, 127
2, 267768, Note_on_c, 7, 43, 127
2, 267768, Note_on_c, 12, 71, 127
2, 267910, Note_off_c, 12, 71, 127
2, 267912, Note_on_c, 10, 69, 127
2, 268054, Note_off_c, 10, 69, 127
2, 268054, Note_off_c, 7, 43, 127
2, 268056, Note_on_c, 7, 43, 127
2, 268056, Note_on_c, 12, 71, 127
2, 268198, Note_off_c, 12, 71, 127
2, 268198, Note_off_c, 7, 43, 127
2, 268200, Note_on_c, 10, 45, 127
2, 268200, Note_on_c, 7, 67, 127
2, 268342, Note_off_c, 7, 67, 127
2, 268342, Note_off_c, 10, 45, 127
2, 268344, Note_on_c, 7, 43, 127
2, 268344, Note_on_c, 4, 76, 127
2, 268486, Note_off_c, 7, 43, 127
2, 268488, Note_on_c, 5, 41, 127
2, 268488, Note_on_c, 7, 67, 127
2, 268630, Note_off_c, 7, 67, 127
2, 268630, Note_off_c, 5, 41, 127
2, 268632, Note_on_c, 4, 40, 127
2, 268632, Note_on_c, 10, 69, 127
2, 268774, Note_off_c, 10, 69, 127
2, 268774, Note_off_c, 4, 40, 127
2, 268776, Note_on_c, 2, 38, 127
2, 268776, Note_on_c, 12, 71, 127
2, 268914, Note_off_c, 4, 76, 127
2, 268918, Note_off_c, 12, 71, 127
2, 268918, Note_off_c, 2, 38, 127
2, 268920, Note_on_c, 0, 36, 127
2, 268920, Note_on_c, 0, 72, 127
2, 269062, Note_off_c, 0, 36, 127
2, 269064, Note_on_c, 7, 43, 127
2, 269064, Note_on_c, 4, 76, 127
2, 269206, Note_off_c, 4, 76, 127
2, 269206, Note_off_c, 7, 43, 127
2, 269208, Note_on_c, 5, 41, 127
2, 269208, Note_on_c, 2, 74, 127
2, 269350, Note_off_c, 2, 74, 127
2, 269350, Note_off_c, 5, 41, 127
2, 269352, Note_on_c, 7, 43, 127
2, 269352, Note_on_c, 4, 76, 127
2, 269490, Note_off_c, 0, 72, 127
2, 269494, Note_off_c, 4, 76, 127
2, 269494, Note_off_c, 7, 43, 127
2, 269496, Note_on_c, 10, 45, 127
2, 269496, Note_on_c, 5, 77, 127
2, 269638, Note_off_c, 10, 45, 127
2, 269640, Note_on_c, 7, 43, 127
2, 269640, Note_on_c, 10, 69, 127
2, 269782, Note_off_c, 10, 69, 127
2, 269782, Note_off_c, 7, 43, 127
2, 269784, Note_on_c, 5, 41, 127
2, 269784, Note_on_c, 12, 71, 127
2, 269926, Note_off_c, 12, 71, 127
2, 269926, Note_off_c, 5, 41, 127
2, 269928, Note_on_c, 4, 40, 127
2, 269928, Note_on_c, 0, 72, 127
2, 270066, Note_off_c, 5, 77, 127
2, 270070, Note_off_c, 0, 72, 127
2, 270070, Note_off_c, 4, 40, 127
2, 270072, Note_on_c, 2, 38, 127
2, 270072, Note_on_c, 2, 74, 127
2, 270214, Note_off_c, 2, 38, 127
2, 270216, Note_on_c, 10, 45, 127
2, 270216, Note_on_c, 6, 78, 127
2, 270358, Note_off_c, 6, 78, 127
2, 270358, Note_off_c, 10, 45, 127
2, 270360, Note_on_c, 7, 43, 127
2, 270360, Note_on_c, 4, 76, 127
2, 270502, Note_off_c, 4, 76, 127
2, 270502, Note_off_c, 7, 43, 127
2, 270504, Note_on_c, 10, 45, 127
2, 270504, Note_on_c, 6, 78, 127
2, 270642, Note_off_c, 2, 74, 127
2, 270646, Note_off_c, 6, 78, 127
2, 270646, Note_off_c, 10, 45, 127
2, 270648, Note_on_c, 12, 47, 127
2, 270648, Note_on_c, 7, 79, 127
2, 270790, Note_off_c, 12, 47, 127
2, 270792, Note_on_c, 10, 45, 127
2, 270792, Note_on_c, 12, 71, 127
2, 270934, Note_off_c, 12, 71, 127
2, 270934, Note_off_c, 10, 45, 127
2, 270936, Note_on_c, 7, 43, 127
2, 270936, Note_on_c, 0, 72, 127
2, 271078, Note_off_c, 0, 72, 127
2, 271078, Note_off_c, 7, 43, 127
2, 271080, Note_on_c, 5, 41, 127
2, 271080, Note_on_c, 2, 74, 127
2, 271218, Note_off_c, 7, 79, 127
2, 271222, Note_off_c, 2, 74, 127
2, 271222, Note_off_c, 5, 41, 127
2, 271224, Note_on_c, 4, 40, 127
2, 271224, Note_on_c, 4, 76, 127
2, 271366, Note_off_c, 4, 40, 127
2, 271368, Note_on_c, 12, 47, 127
2, 271368, Note_on_c, 7, 79, 127
2, 271510, Note_off_c, 7, 79, 127
2, 271510, Note_off_c, 12, 47, 127
2, 271512, Note_on_c, 10, 45, 127
2, 271512, Note_on_c, 5, 77, 127
2, 271654, Note_off_c, 5, 77, 127
2, 271654, Note_off_c, 10, 45, 127
2, 271656, Note_on_c, 12, 47, 127
2, 271656, Note_on_c, 7, 79, 127
2, 271794, Note_off_c, 4, 76, 127
2, 271798, Note_off_c, 7, 79, 127
2, 271798, Note_off_c, 12, 47, 127
2, 271800, Note_on_c, 0, 48, 127
2, 271800, Note_on_c, 10, 81, 127
2, 271944, Note_on_c, 2, 74, 127
2, 272086, Note_off_c, 2, 74, 127
2, 272086, Note_off_c, 0, 48, 127
2, 272088, Note_on_c, 12, 47, 127
2, 272088, Note_on_c, 4, 76, 127
2, 272230, Note_off_c, 4, 76, 127
2, 272230, Note_off_c, 12, 47, 127
2, 272232, Note_on_c, 10, 45, 127
2, 272232, Note_on_c, 5, 77, 127
2, 272370, Note_off_c, 10, 81, 127
2, 272374, Note_off_c, 5, 77, 127
2, 272374, Note_off_c, 10, 45, 127
2, 272376, Note_on_c, 7, 43, 127
2, 272376, Note_on_c, 7, 79, 127
2, 272518, Note_off_c, 7, 43, 127
2, 272520, Note_on_c, 10, 45, 127
2, 272520, Note_on_c, 12, 83, 127
2, 272662, Note_off_c, 12, 83, 127
2, 272662, Note_off_c, 10, 45, 127
2, 272664, Note_on_c, 5, 41, 127
2, 272664, Note_on_c, 10, 81, 127
2, 272806, Note_off_c, 10, 81, 127
2, 272806, Note_off_c, 5, 41, 127
2, 272808, Note_on_c, 7, 43, 127
2, 272808, Note_on_c, 12, 83, 127
2, 272950, Note_off_c, 12, 83, 127
2, 272950, Note_off_c, 7, 43, 127
2, 272952, Note_on_c, 4, 40, 127
2, 272952, Note_on_c, 0, 84, 127
2, 273094, Note_off_c, 4, 40, 127
2, 273096, Note_on_c, 4, 52, 127
2, 273238, Note_off_c, 4, 52, 127
2, 273238, Note_off_c, 0, 84, 127
2, 273240, Note_on_c, 2, 50, 127
2, 273240, Note_on_c, 12, 83, 127
2, 273382, Note_off_c, 12, 83, 127
2, 273382, Note_off_c, 2, 50, 127
2, 273384, Note_on_c, 0, 48, 127
2, 273384, Note_on_c, 10, 81, 127
2, 273526, Note_off_c, 10, 81, 127
2, 273526, Note_off_c, 0, 48, 127
2, 273526, Note_off_c, 7, 79, 127
2, 273528, Note_on_c, 12, 47, 127
2, 273528, Note_on_c, 7, 79, 127
2, 273670, Note_off_c, 7, 79, 127
2, 273670, Note_off_c, 12, 47, 127
2, 273672, Note_on_c, 0, 48, 127
2, 273672, Note_on_c, 10, 81, 127
2, 273814, Note_off_c, 10, 81, 127
2, 273814, Note_off_c, 0, 48, 127
2, 273816, Note_on_c, 10, 45, 127
2, 273816, Note_on_c, 5, 77, 127
2, 273958, Note_off_c, 5, 77, 127
2, 273958, Note_off_c, 10, 45, 127
2, 273960, Note_on_c, 12, 47, 127
2, 273960, Note_on_c, 7, 79, 127
2, 274102, Note_off_c, 7, 79, 127
2, 274102, Note_off_c, 12, 47, 127
2, 274104, Note_on_c, 0, 48, 127
2, 274104, Note_on_c, 4, 76, 127
2, 274248, Note_on_c, 2, 74, 127
2, 274390, Note_off_c, 2, 74, 127
2, 274392, Note_on_c, 0, 72, 127
2, 274534, Note_off_c, 0, 72, 127
2, 274536, Note_on_c, 11, 70, 127
2, 274678, Note_off_c, 11, 70, 127
2, 274680, Note_on_c, 10, 69, 127
2, 274822, Note_off_c, 10, 69, 127
2, 274824, Note_off_c, 0, 48, 127
2, 274824, Note_on_c, 11, 70, 127
2, 274966, Note_off_c, 11, 70, 127
2, 274968, Note_on_c, 0, 48, 127
2, 274968, Note_on_c, 7, 67, 127
2, 275110, Note_off_c, 7, 67, 127
2, 275112, Note_on_c, 11, 70, 127
2, 275254, Note_off_c, 11, 70, 127
2, 275254, Note_off_c, 0, 48, 127
2, 275256, Note_on_c, 5, 53, 127
2, 275256, Note_on_c, 10, 69, 127
2, 275398, Note_off_c, 4, 76, 127
2, 275400, Note_on_c, 7, 79, 127
2, 275542, Note_off_c, 7, 79, 127
2, 275542, Note_off_c, 5, 53, 127
2, 275544, Note_on_c, 4, 52, 127
2, 275544, Note_on_c, 5, 77, 127
2, 275686, Note_off_c, 5, 77, 127
2, 275688, Note_on_c, 4, 76, 127
2, 275830, Note_off_c, 4, 76, 127
2, 275830, Note_off_c, 4, 52, 127
2, 275832, Note_on_c, 5, 53, 127
2, 275832, Note_on_c, 2, 74, 127
2, 275974, Note_off_c, 2, 74, 127
2, 275976, Note_on_c, 4, 76, 127
2, 276118, Note_off_c, 4, 76, 127
2, 276118, Note_off_c, 5, 53, 127
2, 276120, Note_on_c, 2, 50, 127
2, 276120, Note_on_c, 0, 72, 127
2, 276262, Note_off_c, 0, 72, 127
2, 276264, Note_on_c, 2, 74, 127
2, 276406, Note_off_c, 2, 74, 127
2, 276406, Note_off_c, 2, 50, 127
2, 276408, Note_on_c, 7, 55, 127
2, 276408, Note_on_c, 12, 71, 127
2, 276550, Note_off_c, 10, 69, 127
2, 276552, Note_on_c, 10, 69, 127
2, 276694, Note_off_c, 10, 69, 127
2, 276696, Note_on_c, 7, 67, 127
2, 276838, Note_off_c, 7, 67, 127
2, 276840, Note_on_c, 5, 65, 127
2, 276982, Note_off_c, 5, 65, 127
2, 276984, Note_on_c, 4, 64, 127
2, 277126, Note_off_c, 4, 64, 127
2, 277128, Note_on_c, 5, 65, 127
2, 277270, Note_off_c, 5, 65, 127
2, 277272, Note_on_c, 2, 62, 127
2, 277414, Note_off_c, 2, 62, 127
2, 277416, Note_on_c, 5, 65, 127
2, 277558, Note_off_c, 5, 65, 127
2, 277560, Note_on_c, 3, 63, 127
2, 277702, Note_off_c, 12, 71, 127
2, 277704, Note_on_c, 2, 74, 127
2, 277846, Note_off_c, 2, 74, 127
2, 277848, Note_on_c, 0, 72, 127
2, 277990, Note_off_c, 0, 72, 127
2, 277992, Note_on_c, 11, 70, 127
2, 278134, Note_off_c, 11, 70, 127
2, 278136, Note_on_c, 10, 69, 127
2, 278278, Note_off_c, 10, 69, 127
2, 278280, Note_on_c, 11, 70, 127
2, 278422, Note_off_c, 11, 70, 127
2, 278424, Note_on_c, 7, 67, 127
2, 278566, Note_off_c, 7, 67, 127
2, 278568, Note_on_c, 10, 69, 127
2, 278710, Note_off_c, 10, 69, 127
2, 278712, Note_on_c, 6, 66, 127
2, 278854, Note_off_c, 3, 63, 127
2, 278856, Note_on_c, 3, 63, 127
2, 278998, Note_off_c, 3, 63, 127
2, 279000, Note_on_c, 2, 62, 127
2, 279142, Note_off_c, 2, 62, 127
2, 279144, Note_on_c, 0, 60, 127
2, 279286, Note_off_c, 0, 60, 127
2, 279288, Note_on_c, 12, 59, 127
2, 279430, Note_off_c, 6, 66, 127
2, 279432, Note_on_c, 7, 67, 127
2, 279574, Note_off_c, 7, 67, 127
2, 279574, Note_off_c, 12, 59, 127
2, 279576, Note_on_c, 10, 57, 127
2, 279576, Note_on_c, 6, 66, 127
2, 279718, Note_off_c, 6, 66, 127
2, 279718, Note_off_c, 10, 57, 127
2, 279720, Note_on_c, 0, 60, 127
2, 279720, Note_on_c, 10, 69, 127
2, 279862, Note_off_c, 10, 69, 127
2, 279862, Note_off_c, 0, 60, 127
2, 279864, Note_on_c, 12, 59, 127
2, 279864, Note_on_c, 7, 67, 127
2, 280006, Note_off_c, 7, 55, 127
2, 280008, Note_on_c, 10, 57, 127
2, 280150, Note_off_c, 10, 57, 127
2, 280150, Note_off_c, 7, 67, 127
2, 280150, Note_off_c, 12, 59, 127
2, 280152, Note_on_c, 7, 55, 127
2, 280152, Note_on_c, 12, 59, 127
2, 280152, Note_on_c, 7, 67, 127
2, 280294, Note_off_c, 7, 55, 127
2, 280296, Note_on_c, 5, 53, 127
2, 280438, Note_off_c, 5, 53, 127
2, 280438, Note_off_c, 7, 67, 127
2, 280438, Note_off_c, 12, 59, 127
2, 280440, Note_on_c, 4, 52, 127
2, 280440, Note_on_c, 0, 60, 127
2, 280440, Note_on_c, 10, 69, 127
2, 280582, Note_off_c, 4, 52, 127
2, 280584, Note_on_c, 5, 53, 127
2, 280726, Note_off_c, 5, 53, 127
2, 280726, Note_off_c, 10, 69, 127
2, 280726, Note_off_c, 0, 60, 127
2, 280728, Note_on_c, 2, 50, 127
2, 280728, Note_on_c, 2, 62, 127
2, 280728, Note_on_c, 12, 71, 127
2, 280870, Note_off_c, 2, 50, 127
2, 280872, Note_on_c, 5, 53, 127
2, 281014, Note_off_c, 5, 53, 127
2, 281014, Note_off_c, 12, 71, 127
2, 281014, Note_off_c, 2, 62, 127
2, 281016, Note_on_c, 4, 52, 127
2, 281016, Note_on_c, 4, 64, 127
2, 281016, Note_on_c, 0, 72, 127
2, 281158, Note_off_c, 4, 52, 127
2, 281160, Note_on_c, 2, 50, 127
2, 281302, Note_off_c, 2, 50, 127
2, 281302, Note_off_c, 0, 72, 127
2, 281302, Note_off_c, 4, 64, 127
2, 281304, Note_on_c, 0, 48, 127
2, 281304, Note_on_c, 4, 64, 127
2, 281304, Note_on_c, 0, 72, 127
2, 281446, Note_off_c, 0, 48, 127
2, 281448, Note_on_c, 11, 46, 127
2, 281590, Note_off_c, 11, 46, 127
2, 281590, Note_off_c, 0, 72, 127
2, 281590, Note_off_c, 4, 64, 127
2, 281592, Note_on_c, 10, 45, 127
2, 281592, Note_on_c, 5, 65, 127
2, 281592, Note_on_c, 2, 74, 127
2, 281734, Note_off_c, 10, 45, 127
2, 281736, Note_on_c, 11, 46, 127
2, 281878, Note_off_c, 11, 46, 127
2, 281878, Note_off_c, 2, 74, 127
2, 281878, Note_off_c, 5, 65, 127
2, 281880, Note_on_c, 7, 43, 127
2, 281880, Note_on_c, 7, 67, 127
2, 281880, Note_on_c, 4, 76, 127
2, 282022, Note_off_c, 7, 43, 127
2, 282024, Note_on_c, 10, 45, 127
2, 282166, Note_off_c, 10, 45, 127
2, 282166, Note_off_c, 4, 76, 127
2, 282166, Note_off_c, 7, 67, 127
2, 282168, Note_on_c, 5, 41, 127
2, 282168, Note_on_c, 10, 69, 127
2, 282168, Note_on_c, 5, 77, 127
2, 282310, Note_off_c, 5, 41, 127
2, 282312, Note_on_c, 7, 43, 127
2, 282454, Note_off_c, 7, 43, 127
2, 282454, Note_off_c, 5, 77, 127
2, 282454, Note_off_c, 10, 69, 127
2, 282456, Note_on_c, 5, 41, 127
2, 282456, Note_on_c, 0, 72, 127
2, 282456, Note_on_c, 10, 81, 127
2, 282598, Note_off_c, 5, 41, 127
2, 282600, Note_on_c, 4, 40, 127
2, 282742, Note_off_c, 4, 40, 127
2, 282742, Note_off_c, 10, 81, 127
2, 282742, Note_off_c, 0, 72, 127
2, 282744, Note_on_c, 2, 38, 127
2, 282744, Note_on_c, 2, 74, 127
2, 282744, Note_on_c, 12, 83, 127
2, 282886, Note_off_c, 2, 38, 127
2, 282888, Note_on_c, 4, 40, 127
2, 283030, Note_off_c, 4, 40, 127
2, 283030, Note_off_c, 12, 83, 127
2, 283030, Note_off_c, 2, 74, 127
2, 283032, Note_on_c, 0, 36, 127
2, 283032, Note_on_c, 4, 76, 127
2, 283032, Note_on_c, 0, 84, 127
2, 283174, Note_off_c, 0, 36, 127
2, 283176, Note_on_c, 4, 40, 127
2, 283318, Note_off_c, 4, 40, 127
2, 283318, Note_off_c, 4, 76, 127
2, 283320, Note_on_c, 2, 38, 127
2, 283320, Note_on_c, 5, 77, 127
2, 283462, Note_off_c, 5, 77, 127
2, 283464, Note_on_c, 4, 76, 127
2, 283606, Note_off_c, 4, 76, 127
2, 283606, Note_off_c, 2, 38, 127
2, 283606, Note_off_c, 0, 84, 127
2, 283608, Note_on_c, 7, 43, 127
2, 283608, Note_on_c, 5, 77, 127
2, 283608, Note_on_c, 12, 83, 127
2, 283750, Note_off_c, 5, 77, 127
2, 283750, Note_off_c, 7, 43, 127
2, 283752, Note_on_c, 5, 41, 127
2, 283752, Note_on_c, 2, 74, 127
2, 283894, Note_off_c, 2, 74, 127
2, 283894, Note_off_c, 5, 41, 127
2, 283894, Note_off_c, 12, 83, 127
2, 283896, Note_on_c, 4, 40, 127
2, 283896, Note_on_c, 7, 79, 127
2, 283896, Note_on_c, 0, 84, 127
2, 284038, Note_off_c, 4, 40, 127
2, 284040, Note_on_c, 5, 41, 127
2, 284182, Note_off_c, 5, 41, 127
2, 284182, Note_off_c, 0, 84, 127
2, 284182, Note_off_c, 7, 79, 127
2, 284184, Note_on_c, 2, 38, 127
2, 284184, Note_on_c, 2, 74, 127
2, 284184, Note_on_c, 5, 77, 127
2, 284326, Note_off_c, 2, 38, 127
2, 284328, Note_on_c, 5, 41, 127
2, 284470, Note_off_c, 5, 41, 127
2, 284470, Note_off_c, 5, 77, 127
2, 284472, Note_on_c, 4, 40, 127
2, 284472, Note_on_c, 7, 79, 127
2, 284614, Note_off_c, 4, 40, 127
2, 284616, Note_on_c, 2, 38, 127
2, 284758, Note_off_c, 2, 38, 127
2, 284758, Note_off_c, 2, 74, 127
2, 284760, Note_on_c, 4, 40, 127
2, 284760, Note_on_c, 0, 72, 127
2, 284902, Note_off_c, 4, 40, 127
2, 284902, Note_off_c, 7, 79, 127
2, 284904, Note_on_c, 0, 36, 127
2, 284904, Note_on_c, 10, 81, 127
2, 285046, Note_off_c, 10, 81, 127
2, 285046, Note_off_c, 0, 36, 127
2, 285048, Note_on_c, 7, 43, 127
2, 285048, Note_on_c, 4, 76, 127
2, 285342, Note_off_c, 4, 76, 127
2, 285342, Note_off_c, 7, 43, 127
2, 285342, Note_off_c, 0, 72, 127
2, 285344, Note_on_c, 7, 43, 127
2, 285344, Note_on_c, 12, 71, 127
2, 285344, Note_on_c, 2, 74, 127
2, 285490, Note_off_c, 2, 74, 127
2, 285490, Note_off_c, 12, 71, 127
2, 285492, Note_on_c, 0, 72, 127
2, 285638, Note_off_c, 7, 43, 127
2, 285640, Note_on_c, 0, 36, 127
2, 285712, Note_off_c, 0, 72, 127
2, 285794, Note_on_c, 0, 72, 127
2, 285946, Note_off_c, 0, 72, 127
2, 285948, Note_on_c, 12, 71, 127
2, 286100, Note_off_c, 12, 71, 127
2, 286102, Note_on_c, 10, 69, 127
2, 286254, Note_off_c, 10, 69, 127
2, 286256, Note_on_c, 7, 67, 127
2, 286408, Note_off_c, 7, 67, 127
2, 286410, Note_on_c, 10, 69, 127
2, 286562, Note_off_c, 10, 69, 127
2, 286564, Note_on_c, 5, 65, 127
2, 286716, Note_off_c, 5, 65, 127
2, 286718, Note_on_c, 7, 67, 127
2, 286872, Note_on_c, 4, 64, 127
2, 286890, Note_off_c, 7, 67, 127
2, 287026, Note_on_c, 7, 67, 127
2, 287194, Note_off_c, 7, 67, 127
2, 287196, Note_on_c, 10, 69, 127
2, 287355, Note_off_c, 10, 69, 127
2, 287366, Note_on_c, 12, 71, 127
2, 287575, Note_off_c, 12, 71, 127
2, 287576, Note_on_c, 0, 72, 127
2, 287872, Note_off_c, 4, 64, 127
2, 288220, Note_on_c, 0, 60, 127
2, 289140, Note_off_c, 0, 36, 127
2, 289576, Note_off_c, 0, 72, 127
2, 289820, Note_off_c, 0, 60, 127
2, 291983, Note_on_c, 7, 55, 127
2, 291983, Note_on_c, 0, 48, 127
2, 291983, Note_on_c, 4, 52, 127
2, 292726, Note_on_c, 0, 72, 127
2, 293268, Note_off_c, 0, 72, 127
2, 293283, Note_on_c, 2, 74, 127
2, 293345, Note_off_c, 2, 74, 127
2, 293345, Note_on_c, 4, 76, 127
2, 293407, Note_off_c, 4, 76, 127
2, 293407, Note_on_c, 5, 77, 127
2, 293469, Note_off_c, 5, 77, 127
2, 293469, Note_on_c, 4, 76, 127
2, 294005, Note_off_c, 4, 76, 127
2, 294009, Note_on_c, 5, 77, 127
2, 294077, Note_on_c, 4, 76, 127
2, 294079, Note_off_c, 5, 77, 127
2, 294145, Note_on_c, 2, 74, 127
2, 294147, Note_off_c, 4, 76, 127
2, 294213, Note_on_c, 0, 72, 127
2, 294215, Note_off_c, 2, 74, 127
2, 294304, Note_off_c, 0, 72, 127
2, 294318, Note_on_c, 12, 71, 127
2, 294405, Note_on_c, 0, 72, 127
2, 294409, Note_off_c, 12, 71, 127
2, 294492, Note_on_c, 2, 74, 127
2, 294496, Note_off_c, 0, 72, 127
2, 294583, Note_off_c, 2, 74, 127
2, 294585, Note_on_c, 4, 76, 127
2, 294676, Note_off_c, 4, 76, 127
2, 294684, Note_on_c, 5, 77, 127
2, 294765, Note_on_c, 7, 79, 127
2, 294775, Note_off_c, 5, 77, 127
2, 294821, Note_on_c, 10, 81, 127
2, 294825, Note_off_c, 7, 79, 127
2, 294881, Note_off_c, 10, 81, 127
2, 294889, Note_on_c, 5, 77, 127
2, 294949, Note_off_c, 5, 77, 127
2, 294955, Note_off_c, 7, 55, 127
2, 294957, Note_on_c, 7, 79, 127
2, 294957, Note_on_c, 0, 60, 127
2, 295420, Note_off_c, 7, 79, 127
2, 295422, Note_on_c, 10, 81, 127
2, 295513, Note_off_c, 10, 81, 127
2, 295515, Note_on_c, 7, 79, 127
2, 295606, Note_off_c, 7, 79, 127
2, 295608, Note_on_c, 5, 77, 127
2, 295699, Note_off_c, 5, 77, 127
2, 295701, Note_on_c, 4, 76, 127
2, 295792, Note_off_c, 4, 76, 127
2, 295794, Note_on_c, 2, 74, 127
2, 295885, Note_off_c, 2, 74, 127
2, 295887, Note_on_c, 4, 76, 127
2, 295978, Note_off_c, 4, 76, 127
2, 295980, Note_on_c, 5, 77, 127
2, 296071, Note_off_c, 5, 77, 127
2, 296073, Note_on_c, 7, 79, 127
2, 296164, Note_off_c, 7, 79, 127
2, 296166, Note_on_c, 10, 81, 127
2, 296257, Note_off_c, 10, 81, 127
2, 296259, Note_on_c, 12, 83, 127
2, 296319, Note_off_c, 12, 83, 127
2, 296321, Note_on_c, 10, 81, 127
2, 296381, Note_off_c, 10, 81, 127
2, 296383, Note_on_c, 7, 79, 127
2, 296443, Note_off_c, 7, 79, 127
2, 296445, Note_on_c, 0, 84, 127
2, 296908, Note_off_c, 0, 84, 127
2, 296910, Note_on_c, 0, 84, 127
2, 297001, Note_off_c, 0, 84, 127
2, 297003, Note_on_c, 12, 83, 127
2, 297094, Note_off_c, 12, 83, 127
2, 297096, Note_on_c, 10, 81, 127
2, 297187, Note_off_c, 10, 81, 127
2, 297189, Note_on_c, 7, 79, 127
2, 297280, Note_off_c, 7, 79, 127
2, 297282, Note_on_c, 5, 77, 127
2, 297373, Note_off_c, 5, 77, 127
2, 297375, Note_on_c, 4, 76, 127
2, 297466, Note_off_c, 4, 76, 127
2, 297468, Note_on_c, 2, 74, 127
2, 297559, Note_off_c, 2, 74, 127
2, 297561, Note_on_c, 0, 72, 127
2, 297652, Note_off_c, 0, 72, 127
2, 297654, Note_on_c, 12, 71, 127
2, 297745, Note_off_c, 12, 71, 127
2, 297747, Note_on_c, 10, 69, 127
2, 297807, Note_off_c, 10, 69, 127
2, 297809, Note_on_c, 12, 71, 127
2, 297869, Note_off_c, 12, 71, 127
2, 297871, Note_on_c, 7, 67, 127
2, 297921, Note_off_c, 4, 52, 127
2, 297923, Note_off_c, 0, 48, 127
2, 297931, Note_off_c, 7, 67, 127
2, 297931, Note_off_c, 0, 60, 127
2, 297933, Note_on_c, 5, 77, 127
2, 297933, Note_on_c, 10, 57, 127
2, 297933, Note_on_c, 0, 60, 127
2, 297933, Note_on_c, 2, 50, 127
2, 298396, Note_off_c, 5, 77, 127
2, 298398, Note_on_c, 7, 79, 127
2, 298489, Note_off_c, 7, 79, 127
2, 298491, Note_on_c, 10, 81, 127
2, 298582, Note_off_c, 10, 81, 127
2, 298584, Note_on_c, 7, 79, 127
2, 298675, Note_off_c, 7, 79, 127
2, 298677, Note_on_c, 5, 77, 127
2, 298768, Note_off_c, 5, 77, 127
2, 298770, Note_on_c, 4, 76, 127
2, 298861, Note_off_c, 4, 76, 127
2, 298863, Note_on_c, 2, 74, 127
2, 298954, Note_off_c, 2, 74, 127
2, 298956, Note_on_c, 4, 76, 127
2, 299047, Note_off_c, 4, 76, 127
2, 299049, Note_on_c, 2, 74, 127
2, 299140, Note_off_c, 2, 74, 127
2, 299142, Note_on_c, 0, 72, 127
2, 299233, Note_off_c, 0, 72, 127
2, 299235, Note_on_c, 12, 71, 127
2, 299326, Note_off_c, 12, 71, 127
2, 299328, Note_on_c, 0, 72, 127
2, 299419, Note_off_c, 0, 72, 127
2, 299419, Note_off_c, 0, 60, 127
2, 299419, Note_off_c, 10, 57, 127
2, 299421, Note_on_c, 12, 71, 127
2, 299421, Note_on_c, 5, 53, 127
2, 299884, Note_off_c, 12, 71, 127
2, 299886, Note_on_c, 0, 72, 127
2, 299977, Note_off_c, 0, 72, 127
2, 299979, Note_on_c, 2, 74, 127
2, 300070, Note_off_c, 2, 74, 127
2, 300072, Note_on_c, 4, 76, 127
2, 300163, Note_off_c, 4, 76, 127
2, 300165, Note_on_c, 5, 77, 127
2, 300165, Note_on_c, 12, 59, 127
2, 300256, Note_off_c, 5, 77, 127
2, 300258, Note_on_c, 4, 76, 127
2, 300349, Note_off_c, 4, 76, 127
2, 300351, Note_on_c, 2, 74, 127
2, 300442, Note_off_c, 2, 74, 127
2, 300444, Note_on_c, 0, 72, 127
2, 300535, Note_off_c, 0, 72, 127
2, 300537, Note_on_c, 12, 71, 127
2, 300628, Note_off_c, 12, 71, 127
2, 300630, Note_on_c, 10, 69, 127
2, 300721, Note_off_c, 10, 69, 127
2, 300723, Note_on_c, 7, 67, 127
2, 300783, Note_off_c, 7, 67, 127
2, 300785, Note_on_c, 10, 69, 127
2, 300845, Note_off_c, 10, 69, 127
2, 300847, Note_on_c, 5, 65, 127
2, 300897, Note_off_c, 2, 50, 127
2, 300907, Note_off_c, 5, 65, 127
2, 300907, Note_off_c, 12, 59, 127
2, 300907, Note_off_c, 5, 53, 127
2, 300909, Note_on_c, 4, 64, 127
2, 300909, Note_on_c, 7, 55, 127
2, 300909, Note_on_c, 0, 60, 127
2, 300909, Note_on_c, 0, 48, 127
2, 301093, Note_off_c, 0, 48, 127
2, 301093, Note_off_c, 0, 60, 127
2, 301093, Note_off_c, 7, 55, 127
2, 301095, Note_on_c, 10, 57, 127
2, 301279, Note_off_c, 10, 57, 127
2, 301281, Note_on_c, 7, 55, 127
2, 301465, Note_off_c, 7, 55, 127
2, 301467, Note_on_c, 5, 53, 127
2, 301651, Note_off_c, 5, 53, 127
2, 301653, Note_on_c, 4, 52, 127
2, 301837, Note_off_c, 4, 52, 127
2, 301837, Note_off_c, 4, 64, 127
2, 301839, Note_on_c, 4, 64, 127
2, 301839, Note_on_c, 2, 50, 127
2, 302023, Note_off_c, 2, 50, 127
2, 302023, Note_off_c, 4, 64, 127
2, 302025, Note_on_c, 6, 66, 127
2, 302025, Note_on_c, 0, 48, 127
2, 302209, Note_off_c, 0, 48, 127
2, 302209, Note_off_c, 6, 66, 127
2, 302211, Note_on_c, 10, 69, 127
2, 302211, Note_on_c, 12, 47, 127
2, 302302, Note_off_c, 10, 69, 127
2, 302304, Note_on_c, 8, 68, 127
2, 302395, Note_off_c, 8, 68, 127
2, 302395, Note_off_c, 12, 47, 127
2, 302397, Note_on_c, 10, 69, 127
2, 302397, Note_on_c, 0, 48, 127
2, 302583, Note_on_c, 4, 52, 127
2, 302769, Note_on_c, 10, 57, 127
2, 302860, Note_off_c, 10, 69, 127
2, 302862, Note_on_c, 4, 64, 127
2, 302953, Note_off_c, 4, 64, 127
2, 302955, Note_on_c, 6, 66, 127
2, 303046, Note_off_c, 6, 66, 127
2, 303048, Note_on_c, 8, 68, 127
2, 303139, Note_off_c, 8, 68, 127
2, 303141, Note_on_c, 10, 69, 127
2, 303232, Note_off_c, 10, 69, 127
2, 303234, Note_on_c, 12, 71, 127
2, 303325, Note_off_c, 12, 71, 127
2, 303327, Note_on_c, 0, 72, 127
2, 303418, Note_off_c, 0, 72, 127
2, 303420, Note_on_c, 2, 74, 127
2, 303511, Note_off_c, 2, 74, 127
2, 303513, Note_on_c, 4, 76, 127
2, 303604, Note_off_c, 4, 76, 127
2, 303606, Note_on_c, 6, 78, 127
2, 303697, Note_off_c, 6, 78, 127
2, 303699, Note_on_c, 8, 80, 127
2, 303790, Note_off_c, 8, 80, 127
2, 303792, Note_on_c, 10, 81, 127
2, 303881, Note_off_c, 4, 52, 127
2, 303883, Note_off_c, 10, 81, 127
2, 303883, Note_off_c, 10, 57, 127
2, 303885, Note_on_c, 6, 66, 127
2, 303885, Note_on_c, 10, 57, 127
2, 303885, Note_on_c, 2, 50, 127
2, 304348, Note_off_c, 6, 66, 127
2, 304350, Note_on_c, 7, 67, 127
2, 304441, Note_off_c, 7, 67, 127
2, 304443, Note_on_c, 6, 66, 127
2, 304534, Note_off_c, 6, 66, 127
2, 304536, Note_on_c, 4, 64, 127
2, 304627, Note_off_c, 4, 64, 127
2, 304629, Note_on_c, 2, 62, 127
2, 304720, Note_off_c, 2, 62, 127
2, 304722, Note_on_c, 4, 64, 127
2, 304813, Note_off_c, 4, 64, 127
2, 304815, Note_on_c, 6, 66, 127
2, 304906, Note_off_c, 6, 66, 127
2, 304908, Note_on_c, 7, 67, 127
2, 304999, Note_off_c, 7, 67, 127
2, 305001, Note_on_c, 10, 69, 127
2, 305092, Note_off_c, 10, 69, 127
2, 305094, Note_on_c, 12, 71, 127
2, 305185, Note_off_c, 12, 71, 127
2, 305187, Note_on_c, 0, 72, 127
2, 305278, Note_off_c, 0, 72, 127
2, 305280, Note_on_c, 2, 74, 127
2, 305361, Note_off_c, 0, 48, 127
2, 305371, Note_off_c, 2, 74, 127
2, 305371, Note_off_c, 2, 50, 127
2, 305371, Note_off_c, 10, 57, 127
2, 305373, Note_on_c, 7, 67, 127
2, 305373, Note_on_c, 7, 55, 127
2, 305373, Note_on_c, 2, 50, 127
2, 305373, Note_on_c, 12, 47, 127
2, 305836, Note_off_c, 7, 67, 127
2, 305838, Note_on_c, 2, 62, 127
2, 305929, Note_off_c, 2, 62, 127
2, 305931, Note_on_c, 4, 64, 127
2, 306022, Note_off_c, 4, 64, 127
2, 306024, Note_on_c, 6, 66, 127
2, 306115, Note_off_c, 6, 66, 127
2, 306117, Note_on_c, 7, 67, 127
2, 306208, Note_off_c, 7, 67, 127
2, 306210, Note_on_c, 10, 69, 127
2, 306301, Note_off_c, 10, 69, 127
2, 306303, Note_on_c, 12, 71, 127
2, 306394, Note_off_c, 12, 71, 127
2, 306396, Note_on_c, 0, 72, 127
2, 306487, Note_off_c, 0, 72, 127
2, 306489, Note_on_c, 2, 74, 127
2, 306580, Note_off_c, 2, 74, 127
2, 306582, Note_on_c, 4, 76, 127
2, 306673, Note_off_c, 4, 76, 127
2, 306675, Note_on_c, 6, 78, 127
2, 306766, Note_off_c, 6, 78, 127
2, 306768, Note_on_c, 7, 79, 127
2, 306859, Note_off_c, 7, 79, 127
2, 306859, Note_off_c, 12, 47, 127
2, 306859, Note_off_c, 2, 50, 127
2, 306861, Note_on_c, 0, 72, 127
2, 306861, Note_on_c, 10, 45, 127
2, 306861, Note_on_c, 4, 52, 127
2, 307324, Note_off_c, 0, 72, 127
2, 307326, Note_on_c, 12, 71, 127
2, 307417, Note_off_c, 12, 71, 127
2, 307419, Note_on_c, 10, 69, 127
2, 307510, Note_off_c, 10, 69, 127
2, 307512, Note_on_c, 12, 71, 127
2, 307603, Note_off_c, 12, 71, 127
2, 307605, Note_on_c, 0, 72, 127
2, 307696, Note_off_c, 0, 72, 127
2, 307698, Note_on_c, 2, 74, 127
2, 307789, Note_off_c, 2, 74, 127
2, 307791, Note_on_c, 4, 76, 127
2, 307882, Note_off_c, 4, 76, 127
2, 307884, Note_on_c, 6, 78, 127
2, 307975, Note_off_c, 6, 78, 127
2, 307977, Note_on_c, 7, 79, 127
2, 308068, Note_off_c, 7, 79, 127
2, 308070, Note_on_c, 10, 81, 127
2, 308161, Note_off_c, 10, 81, 127
2, 308163, Note_on_c, 12, 83, 127
2, 308254, Note_off_c, 12, 83, 127
2, 308256, Note_on_c, 0, 84, 127
2, 308337, Note_off_c, 7, 55, 127
2, 308347, Note_off_c, 0, 84, 127
2, 308347, Note_off_c, 4, 52, 127
2, 308347, Note_off_c, 10, 45, 127
2, 308349, Note_on_c, 6, 78, 127
2, 308349, Note_on_c, 0, 60, 127
2, 308349, Note_on_c, 10, 57, 127
2, 308626, Note_off_c, 6, 78, 127
2, 308628, Note_on_c, 4, 76, 127
2, 308719, Note_off_c, 4, 76, 127
2, 308721, Note_on_c, 2, 74, 127
2, 308812, Note_off_c, 2, 74, 127
2, 308814, Note_on_c, 0, 72, 127
2, 308905, Note_off_c, 0, 72, 127
2, 308907, Note_on_c, 4, 76, 127
2, 308998, Note_off_c, 4, 76, 127
2, 309000, Note_on_c, 2, 74, 127
2, 309091, Note_off_c, 2, 74, 127
2, 309093, Note_on_c, 0, 72, 127
2, 309093, Note_on_c, 2, 50, 127
2, 309184, Note_off_c, 0, 72, 127
2, 309186, Note_on_c, 12, 71, 127
2, 309277, Note_off_c, 12, 71, 127
2, 309279, Note_on_c, 10, 69, 127
2, 309370, Note_off_c, 10, 69, 127
2, 309372, Note_on_c, 0, 72, 127
2, 309463, Note_off_c, 0, 72, 127
2, 309465, Note_on_c, 12, 71, 127
2, 309546, Note_off_c, 12, 71, 127
2, 309546, Note_on_c, 10, 69, 127
2, 309627, Note_off_c, 10, 69, 127
2, 309627, Note_on_c, 7, 67, 127
2, 309708, Note_off_c, 7, 67, 127
2, 309708, Note_on_c, 10, 69, 127
2, 309768, Note_off_c, 10, 69, 127
2, 309772, Note_on_c, 6, 66, 127
2, 309832, Note_off_c, 6, 66, 127
2, 309834, Note_off_c, 2, 50, 127
2, 309834, Note_off_c, 10, 57, 127
2, 309836, Note_on_c, 7, 67, 127
2, 309836, Note_on_c, 7, 55, 127
2, 310014, Note_off_c, 0, 60, 127
2, 310022, Note_on_c, 0, 60, 127
2, 310206, Note_off_c, 0, 60, 127
2, 310208, Note_on_c, 12, 59, 127
2, 310378, Note_off_c, 7, 55, 127
2, 310392, Note_off_c, 7, 67, 127
2, 310394, Note_on_c, 2, 62, 127
2, 310394, Note_on_c, 5, 53, 127
2, 310578, Note_off_c, 5, 53, 127
2, 310578, Note_off_c, 2, 62, 127
2, 310580, Note_on_c, 7, 67, 127
2, 310580, Note_on_c, 4, 52, 127
2, 310750, Note_off_c, 12, 59, 127
2, 310765, Note_on_c, 10, 57, 127
2, 310949, Note_off_c, 10, 57, 127
2, 310951, Note_on_c, 7, 55, 127
2, 311121, Note_off_c, 4, 52, 127
2, 311135, Note_off_c, 7, 67, 127
2, 311137, Note_on_c, 5, 65, 127
2, 311137, Note_on_c, 2, 50, 127
2, 311321, Note_off_c, 2, 50, 127
2, 311321, Note_off_c, 5, 65, 127
2, 311323, Note_on_c, 4, 64, 127
2, 311323, Note_on_c, 0, 48, 127
2, 311493, Note_off_c, 7, 55, 127
2, 311508, Note_on_c, 5, 53, 127
2, 311692, Note_off_c, 5, 53, 127
2, 311694, Note_on_c, 4, 52, 127
2, 311864, Note_off_c, 0, 48, 127
2, 311878, Note_off_c, 4, 64, 127
2, 311880, Note_on_c, 2, 62, 127
2, 311880, Note_on_c, 12, 47, 127
2, 312064, Note_off_c, 12, 47, 127
2, 312064, Note_off_c, 2, 62, 127
2, 312066, Note_on_c, 0, 60, 127
2, 312066, Note_on_c, 10, 45, 127
2, 312236, Note_off_c, 4, 52, 127
2, 312251, Note_on_c, 7, 55, 127
2, 312433, Note_off_c, 10, 45, 127
2, 312435, Note_off_c, 7, 55, 127
2, 312437, Note_on_c, 2, 50, 127
2, 312437, Note_on_c, 6, 54, 127
2, 312621, Note_off_c, 0, 60, 127
2, 312623, Note_on_c, 12, 59, 127
2, 312807, Note_off_c, 12, 59, 127
2, 312807, Note_off_c, 6, 54, 127
2, 312807, Note_off_c, 2, 50, 127
2, 312809, Note_on_c, 7, 79, 127
2, 312809, Note_on_c, 12, 59, 127
2, 312809, Note_on_c, 7, 55, 127
2, 312993, Note_off_c, 7, 79, 127
2, 312995, Note_on_c, 10, 81, 127
2, 313179, Note_off_c, 10, 81, 127
2, 313181, Note_on_c, 12, 83, 127
2, 313365, Note_off_c, 12, 83, 127
2, 313367, Note_on_c, 2, 74, 127
2, 313551, Note_off_c, 2, 74, 127
2, 313553, Note_on_c, 7, 79, 127
2, 313737, Note_off_c, 7, 79, 127
2, 313739, Note_on_c, 12, 71, 127
2, 313923, Note_off_c, 12, 71, 127
2, 313923, Note_off_c, 7, 55, 127
2, 313923, Note_off_c, 12, 59, 127
2, 313925, Note_on_c, 2, 74, 127
2, 313925, Note_on_c, 6, 54, 127
2, 313925, Note_on_c, 10, 57, 127
2, 314109, Note_off_c, 2, 74, 127
2, 314111, Note_on_c, 10, 69, 127
2, 314295, Note_off_c, 10, 69, 127
2, 314295, Note_off_c, 10, 57, 127
2, 314295, Note_off_c, 6, 54, 127
2, 314297, Note_on_c, 12, 71, 127
2, 314297, Note_on_c, 7, 55, 127
2, 314481, Note_off_c, 12, 71, 127
2, 314483, Note_on_c, 0, 72, 127
2, 314667, Note_off_c, 0, 72, 127
2, 314669, Note_on_c, 2, 74, 127
2, 314669, Note_on_c, 7, 43, 127
2, 314853, Note_off_c, 2, 74, 127
2, 314855, Note_on_c, 7, 67, 127
2, 315039, Note_off_c, 7, 67, 127
2, 315041, Note_on_c, 12, 71, 127
2, 315225, Note_off_c, 12, 71, 127
2, 315225, Note_off_c, 7, 43, 127
2, 315227, Note_on_c, 6, 66, 127
2, 315227, Note_on_c, 10, 57, 127
2, 315411, Note_off_c, 10, 57, 127
2, 315411, Note_off_c, 6, 66, 127
2, 315413, Note_on_c, 7, 67, 127
2, 315413, Note_on_c, 12, 59, 127
2, 315597, Note_off_c, 12, 59, 127
2, 315597, Note_off_c, 7, 67, 127
2, 315599, Note_on_c, 10, 69, 127
2, 315599, Note_on_c, 0, 60, 127
2, 315783, Note_off_c, 0, 60, 127
2, 315783, Note_off_c, 10, 69, 127
2, 315785, Note_on_c, 12, 71, 127
2, 315785, Note_on_c, 2, 62, 127
2, 315969, Note_off_c, 12, 71, 127
2, 315971, Note_on_c, 7, 67, 127
2, 316155, Note_off_c, 7, 67, 127
2, 316155, Note_off_c, 2, 62, 127
2, 316157, Note_off_c, 7, 55, 127
2, 316157, Note_on_c, 2, 62, 127
2, 316157, Note_on_c, 7, 55, 127
2, 316341, Note_off_c, 2, 62, 127
2, 316343, Note_on_c, 12, 59, 127
2, 316527, Note_off_c, 12, 59, 127
2, 316529, Note_on_c, 7, 43, 127
2, 316715, Note_on_c, 2, 62, 127
2, 316893, Note_off_c, 7, 55, 127
2, 316899, Note_off_c, 2, 62, 127
2, 316899, Note_off_c, 7, 43, 127
2, 316901, Note_on_c, 4, 64, 127
2, 316901, Note_on_c, 6, 54, 127
2, 317085, Note_off_c, 4, 64, 127
2, 317087, Note_on_c, 6, 66, 127
2, 317271, Note_off_c, 6, 66, 127
2, 317271, Note_off_c, 6, 54, 127
2, 317273, Note_on_c, 7, 67, 127
2, 317273, Note_on_c, 7, 55, 127
2, 317273, Note_on_c, 4, 52, 127
2, 317457, Note_off_c, 7, 67, 127
2, 317459, Note_on_c, 10, 69, 127
2, 317643, Note_off_c, 10, 69, 127
2, 317645, Note_on_c, 12, 71, 127
2, 317829, Note_off_c, 12, 71, 127
2, 317831, Note_on_c, 0, 72, 127
2, 318015, Note_off_c, 0, 72, 127
2, 318015, Note_off_c, 4, 52, 127
2, 318017, Note_on_c, 2, 74, 127
2, 318017, Note_on_c, 12, 47, 127
2, 318201, Note_off_c, 2, 74, 127
2, 318203, Note_on_c, 4, 76, 127
2, 318387, Note_off_c, 4, 76, 127
2, 318389, Note_on_c, 5, 77, 127
2, 318573, Note_off_c, 5, 77, 127
2, 318575, Note_on_c, 7, 79, 127
2, 318759, Note_off_c, 7, 79, 127
2, 318759, Note_off_c, 12, 47, 127
2, 318759, Note_off_c, 7, 55, 127
2, 318761, Note_on_c, 4, 76, 127
2, 318761, Note_on_c, 0, 48, 127
2, 318761, Note_on_c, 7, 55, 127
2, 318945, Note_off_c, 4, 76, 127
2, 318947, Note_on_c, 0, 84, 127
2, 319131, Note_off_c, 0, 84, 127
2, 319133, Note_on_c, 12, 83, 127
2, 319133, Note_on_c, 2, 50, 127
2, 319317, Note_off_c, 12, 83, 127
2, 319319, Note_on_c, 10, 81, 127
2, 319503, Note_off_c, 10, 81, 127
2, 319503, Note_off_c, 2, 50, 127
2, 319505, Note_on_c, 7, 79, 127
2, 319505, Note_on_c, 4, 52, 127
2, 319689, Note_off_c, 7, 79, 127
2, 319691, Note_on_c, 0, 84, 127
2, 319875, Note_off_c, 0, 84, 127
2, 319875, Note_off_c, 4, 52, 127
2, 319875, Note_off_c, 7, 55, 127
2, 319875, Note_off_c, 0, 48, 127
2, 319877, Note_on_c, 4, 76, 127
2, 319877, Note_on_c, 7, 55, 127
2, 319877, Note_on_c, 0, 60, 127
2, 319877, Note_on_c, 0, 48, 127
2, 320061, Note_off_c, 0, 48, 127
2, 320061, Note_off_c, 4, 76, 127
2, 320063, Note_on_c, 5, 77, 127
2, 320063, Note_on_c, 2, 50, 127
2, 320245, Note_off_c, 7, 55, 127
2, 320247, Note_off_c, 2, 50, 127
2, 320247, Note_off_c, 5, 77, 127
2, 320249, Note_on_c, 7, 79, 127
2, 320249, Note_on_c, 4, 52, 127
2, 320433, Note_off_c, 7, 79, 127
2, 320435, Note_on_c, 4, 76, 127
2, 320613, Note_off_c, 0, 60, 127
2, 320619, Note_off_c, 4, 76, 127
2, 320619, Note_off_c, 4, 52, 127
2, 320621, Note_on_c, 5, 77, 127
2, 320621, Note_on_c, 12, 59, 127
2, 320621, Note_on_c, 2, 50, 127
2, 320805, Note_off_c, 5, 77, 127
2, 320807, Note_on_c, 2, 74, 127
2, 320991, Note_off_c, 2, 74, 127
2, 320991, Note_off_c, 2, 50, 127
2, 320991, Note_off_c, 12, 59, 127
2, 320993, Note_on_c, 4, 76, 127
2, 320993, Note_on_c, 0, 60, 127
2, 321177, Note_off_c, 4, 76, 127
2, 321179, Note_on_c, 7, 79, 127
2, 321179, Note_on_c, 0, 48, 127
2, 321363, Note_off_c, 0, 48, 127
2, 321363, Note_off_c, 7, 79, 127
2, 321365, Note_on_c, 0, 72, 127
2, 321365, Note_on_c, 4, 52, 127
2, 321549, Note_off_c, 4, 52, 127
2, 321549, Note_off_c, 0, 72, 127
2, 321551, Note_on_c, 2, 74, 127
2, 321551, Note_on_c, 7, 55, 127
2, 321729, Note_off_c, 0, 60, 127
2, 321735, Note_off_c, 7, 55, 127
2, 321735, Note_off_c, 2, 74, 127
2, 321737, Note_on_c, 4, 76, 127
2, 321737, Note_on_c, 0, 60, 127
2, 321921, Note_off_c, 4, 76, 127
2, 321923, Note_on_c, 0, 72, 127
2, 322107, Note_off_c, 0, 72, 127
2, 322107, Note_off_c, 0, 60, 127
2, 322109, Note_on_c, 2, 74, 127
2, 322109, Note_on_c, 7, 55, 127
2, 322293, Note_off_c, 2, 74, 127
2, 322295, Note_on_c, 12, 71, 127
2, 322479, Note_off_c, 12, 71, 127
2, 322479, Note_off_c, 7, 55, 127
2, 322481, Note_on_c, 0, 72, 127
2, 322481, Note_on_c, 10, 57, 127
2, 322665, Note_off_c, 10, 57, 127
2, 322665, Note_off_c, 0, 72, 127
2, 322667, Note_on_c, 4, 76, 127
2, 322667, Note_on_c, 10, 45, 127
2, 322851, Note_off_c, 10, 45, 127
2, 322851, Note_off_c, 4, 76, 127
2, 322853, Note_on_c, 10, 69, 127
2, 322853, Note_on_c, 0, 48, 127
2, 323037, Note_off_c, 0, 48, 127
2, 323037, Note_off_c, 10, 69, 127
2, 323039, Note_on_c, 0, 72, 127
2, 323039, Note_on_c, 4, 52, 127
2, 323223, Note_off_c, 4, 52, 127
2, 323223, Note_off_c, 0, 72, 127
2, 323225, Note_on_c, 4, 64, 127
2, 323225, Note_on_c, 10, 57, 127
2, 323409, Note_off_c, 4, 64, 127
2, 323411, Note_on_c, 10, 69, 127
2, 323595, Note_off_c, 10, 69, 127
2, 323597, Note_on_c, 0, 60, 127
2, 323597, Note_on_c, 10, 45, 127
2, 323781, Note_off_c, 0, 60, 127
2, 323783, Note_on_c, 4, 64, 127
2, 323967, Note_off_c, 4, 64, 127
2, 323967, Note_off_c, 10, 45, 127
2, 323969, Note_on_c, 5, 65, 127
2, 323969, Note_on_c, 2, 50, 127
2, 324153, Note_off_c, 2, 50, 127
2, 324153, Note_off_c, 5, 65, 127
2, 324155, Note_on_c, 10, 69, 127
2, 324155, Note_on_c, 5, 53, 127
2, 324339, Note_off_c, 5, 53, 127
2, 324339, Note_off_c, 10, 69, 127
2, 324339, Note_off_c, 10, 57, 127
2, 324341, Note_on_c, 7, 67, 127
2, 324341, Note_on_c, 4, 52, 127
2, 324341, Note_on_c, 0, 60, 127
2, 324525, Note_off_c, 4, 52, 127
2, 324525, Note_off_c, 7, 67, 127
2, 324527, Note_on_c, 11, 70, 127
2, 324527, Note_on_c, 7, 55, 127
2, 324709, Note_off_c, 0, 60, 127
2, 324711, Note_off_c, 7, 55, 127
2, 324711, Note_off_c, 11, 70, 127
2, 324713, Note_on_c, 10, 69, 127
2, 324713, Note_on_c, 5, 53, 127
2, 324897, Note_off_c, 10, 69, 127
2, 324899, Note_on_c, 10, 81, 127
2, 324899, Note_on_c, 5, 41, 127
2, 325083, Note_off_c, 5, 41, 127
2, 325083, Note_off_c, 10, 81, 127
2, 325085, Note_on_c, 5, 77, 127
2, 325085, Note_on_c, 10, 45, 127
2, 325269, Note_off_c, 10, 45, 127
2, 325269, Note_off_c, 5, 77, 127
2, 325271, Note_on_c, 7, 79, 127
2, 325271, Note_on_c, 0, 48, 127
2, 325449, Note_off_c, 5, 53, 127
2, 325455, Note_off_c, 0, 48, 127
2, 325455, Note_off_c, 7, 79, 127
2, 325457, Note_on_c, 10, 81, 127
2, 325457, Note_on_c, 5, 53, 127
2, 325641, Note_off_c, 10, 81, 127
2, 325643, Note_on_c, 4, 76, 127
2, 325827, Note_off_c, 4, 76, 127
2, 325827, Note_off_c, 5, 53, 127
2, 325829, Note_on_c, 5, 77, 127
2, 325829, Note_on_c, 10, 45, 127
2, 326013, Note_off_c, 5, 77, 127
2, 326015, Note_on_c, 0, 72, 127
2, 326199, Note_off_c, 0, 72, 127
2, 326199, Note_off_c, 10, 45, 127
2, 326201, Note_on_c, 2, 74, 127
2, 326201, Note_on_c, 12, 47, 127
2, 326385, Note_off_c, 12, 47, 127
2, 326385, Note_off_c, 2, 74, 127
2, 326387, Note_on_c, 7, 79, 127
2, 326387, Note_on_c, 4, 52, 127
2, 326571, Note_off_c, 4, 52, 127
2, 326571, Note_off_c, 7, 79, 127
2, 326573, Note_on_c, 12, 71, 127
2, 326573, Note_on_c, 2, 50, 127
2, 326757, Note_off_c, 2, 50, 127
2, 326757, Note_off_c, 12, 71, 127
2, 326759, Note_on_c, 0, 72, 127
2, 326759, Note_on_c, 0, 48, 127
2, 326943, Note_off_c, 0, 48, 127
2, 326943, Note_off_c, 0, 72, 127
2, 326945, Note_on_c, 2, 74, 127
2, 326945, Note_on_c, 12, 47, 127
2, 327129, Note_off_c, 2, 74, 127
2, 327131, Note_on_c, 12, 71, 127
2, 327131, Note_on_c, 7, 55, 127
2, 327313, Note_off_c, 12, 47, 127
2, 327315, Note_off_c, 12, 71, 127
2, 327317, Note_on_c, 0, 72, 127
2, 327317, Note_on_c, 10, 45, 127
2, 327499, Note_off_c, 7, 55, 127
2, 327501, Note_off_c, 0, 72, 127
2, 327503, Note_on_c, 10, 69, 127
2, 327503, Note_on_c, 6, 54, 127
2, 327685, Note_off_c, 10, 45, 127
2, 327687, Note_off_c, 6, 54, 127
2, 327687, Note_off_c, 10, 69, 127
2, 327689, Note_on_c, 12, 71, 127
2, 327689, Note_on_c, 7, 43, 127
2, 327873, Note_off_c, 7, 43, 127
2, 327873, Note_off_c, 12, 71, 127
2, 327875, Note_on_c, 12, 83, 127
2, 327875, Note_on_c, 2, 50, 127
2, 328059, Note_off_c, 2, 50, 127
2, 328059, Note_off_c, 12, 83, 127
2, 328061, Note_on_c, 4, 76, 127
2, 328061, Note_on_c, 7, 55, 127
2, 328245, Note_off_c, 7, 55, 127
2, 328245, Note_off_c, 4, 76, 127
2, 328247, Note_on_c, 5, 77, 127
2, 328247, Note_on_c, 5, 53, 127
2, 328431, Note_off_c, 5, 53, 127
2, 328431, Note_off_c, 5, 77, 127
2, 328433, Note_on_c, 7, 79, 127
2, 328433, Note_on_c, 4, 52, 127
2, 328617, Note_off_c, 7, 79, 127
2, 328619, Note_on_c, 4, 76, 127
2, 328619, Note_on_c, 0, 60, 127
2, 328801, Note_off_c, 4, 52, 127
2, 328803, Note_off_c, 4, 76, 127
2, 328805, Note_on_c, 5, 77, 127
2, 328805, Note_on_c, 2, 50, 127
2, 328987, Note_off_c, 0, 60, 127
2, 328989, Note_off_c, 5, 77, 127
2, 328991, Note_on_c, 2, 74, 127
2, 328991, Note_on_c, 12, 59, 127
2, 329173, Note_off_c, 2, 50, 127
2, 329175, Note_off_c, 2, 74, 127
2, 329177, Note_on_c, 4, 76, 127
2, 329177, Note_on_c, 0, 48, 127
2, 329359, Note_off_c, 12, 59, 127
2, 329361, Note_off_c, 4, 76, 127
2, 329363, Note_on_c, 10, 81, 127
2, 329363, Note_on_c, 10, 57, 127
2, 329545, Note_off_c, 0, 48, 127
2, 329547, Note_off_c, 10, 81, 127
2, 329549, Note_on_c, 12, 71, 127
2, 329549, Note_on_c, 5, 53, 127
2, 329731, Note_off_c, 10, 57, 127
2, 329733, Note_off_c, 12, 71, 127
2, 329735, Note_on_c, 0, 72, 127
2, 329735, Note_on_c, 10, 57, 127
2, 329917, Note_off_c, 5, 53, 127
2, 329919, Note_off_c, 0, 72, 127
2, 329921, Note_on_c, 2, 74, 127
2, 329921, Note_on_c, 12, 47, 127
2, 330103, Note_off_c, 10, 57, 127
2, 330105, Note_off_c, 2, 74, 127
2, 330107, Note_on_c, 12, 71, 127
2, 330107, Note_on_c, 10, 57, 127
2, 330291, Note_off_c, 10, 57, 127
2, 330291, Note_off_c, 12, 71, 127
2, 330293, Note_on_c, 4, 76, 127
2, 330293, Note_on_c, 8, 56, 127
2, 330463, Note_off_c, 12, 47, 127
2, 330477, Note_off_c, 4, 76, 127
2, 330479, Note_on_c, 12, 71, 127
2, 330479, Note_on_c, 4, 52, 127
2, 330661, Note_off_c, 8, 56, 127
2, 330663, Note_off_c, 4, 52, 127
2, 330663, Note_off_c, 12, 71, 127
2, 330665, Note_on_c, 0, 72, 127
2, 330665, Note_on_c, 10, 57, 127
2, 330849, Note_off_c, 0, 72, 127
2, 330851, Note_on_c, 2, 74, 127
2, 331035, Note_off_c, 2, 74, 127
2, 331037, Note_on_c, 0, 72, 127
2, 331037, Note_on_c, 10, 45, 127
2, 331207, Note_off_c, 10, 57, 127
2, 331221, Note_off_c, 0, 72, 127
2, 331223, Note_on_c, 12, 71, 127
2, 331407, Note_off_c, 12, 71, 127
2, 331409, Note_on_c, 10, 69, 127
2, 331579, Note_off_c, 10, 45, 127
2, 331593, Note_off_c, 10, 69, 127
2, 331595, Note_on_c, 5, 77, 127
2, 331779, Note_off_c, 5, 77, 127
2, 331781, Note_on_c, 4, 76, 127
2, 331781, Note_on_c, 10, 57, 127
2, 331965, Note_off_c, 4, 76, 127
2, 331967, Note_on_c, 5, 77, 127
2, 332151, Note_off_c, 5, 77, 127
2, 332151, Note_off_c, 10, 57, 127
2, 332153, Note_on_c, 2, 74, 127
2, 332153, Note_on_c, 12, 59, 127
2, 332337, Note_off_c, 2, 74, 127
2, 332339, Note_on_c, 0, 72, 127
2, 332523, Note_off_c, 0, 72, 127
2, 332525, Note_on_c, 12, 71, 127
2, 332525, Note_on_c, 12, 47, 127
2, 332695, Note_off_c, 12, 59, 127
2, 332709, Note_off_c, 12, 71, 127
2, 332711, Note_on_c, 10, 69, 127
2, 332895, Note_off_c, 10, 69, 127
2, 332897, Note_on_c, 7, 67, 127
2, 333067, Note_off_c, 12, 47, 127
2, 333081, Note_off_c, 7, 67, 127
2, 333083, Note_on_c, 7, 79, 127
2, 333267, Note_off_c, 7, 79, 127
2, 333269, Note_on_c, 5, 77, 127
2, 333269, Note_on_c, 12, 59, 127
2, 333453, Note_off_c, 5, 77, 127
2, 333455, Note_on_c, 7, 79, 127
2, 333639, Note_off_c, 7, 79, 127
2, 333639, Note_off_c, 12, 59, 127
2, 333641, Note_on_c, 4, 76, 127
2, 333641, Note_on_c, 0, 60, 127
2, 333825, Note_off_c, 4, 76, 127
2, 333827, Note_on_c, 2, 74, 127
2, 334011, Note_off_c, 2, 74, 127
2, 334013, Note_on_c, 0, 72, 127
2, 334013, Note_on_c, 0, 48, 127
2, 334183, Note_off_c, 0, 60, 127
2, 334197, Note_off_c, 0, 72, 127
2, 334199, Note_on_c, 12, 71, 127
2, 334383, Note_off_c, 12, 71, 127
2, 334385, Note_on_c, 10, 69, 127
2, 334555, Note_off_c, 0, 48, 127
2, 334569, Note_off_c, 10, 69, 127
2, 334571, Note_on_c, 10, 81, 127
2, 334755, Note_off_c, 10, 81, 127
2, 334757, Note_on_c, 7, 79, 127
2, 334757, Note_on_c, 0, 60, 127
2, 334941, Note_off_c, 7, 79, 127
2, 334943, Note_on_c, 10, 81, 127
2, 335127, Note_off_c, 10, 81, 127
2, 335127, Note_off_c, 0, 60, 127
2, 335129, Note_on_c, 5, 77, 127
2, 335129, Note_on_c, 2, 62, 127
2, 335313, Note_off_c, 5, 77, 127
2, 335315, Note_on_c, 4, 76, 127
2, 335499, Note_off_c, 4, 76, 127
2, 335499, Note_off_c, 2, 62, 127
2, 335501, Note_on_c, 2, 74, 127
2, 335501, Note_on_c, 5, 53, 127
2, 335685, Note_off_c, 2, 74, 127
2, 335687, Note_on_c, 0, 72, 127
2, 335871, Note_off_c, 0, 72, 127
2, 335871, Note_off_c, 5, 53, 127
2, 335873, Note_on_c, 12, 71, 127
2, 335873, Note_on_c, 7, 55, 127
2, 336057, Note_off_c, 12, 71, 127
2, 336059, Note_on_c, 7, 79, 127
2, 336243, Note_off_c, 7, 79, 127
2, 336243, Note_off_c, 7, 55, 127
2, 336245, Note_on_c, 5, 77, 127
2, 336245, Note_on_c, 12, 59, 127
2, 336429, Note_off_c, 5, 77, 127
2, 336431, Note_on_c, 7, 79, 127
2, 336615, Note_off_c, 7, 79, 127
2, 336615, Note_off_c, 12, 59, 127
2, 336617, Note_on_c, 4, 76, 127
2, 336617, Note_on_c, 0, 60, 127
2, 336801, Note_off_c, 0, 60, 127
2, 336801, Note_off_c, 4, 76, 127
2, 336803, Note_on_c, 5, 77, 127
2, 336803, Note_on_c, 7, 55, 127
2, 336987, Note_off_c, 7, 55, 127
2, 336987, Note_off_c, 5, 77, 127
2, 336989, Note_on_c, 7, 79, 127
2, 336989, Note_on_c, 4, 52, 127
2, 337173, Note_off_c, 4, 52, 127
2, 337173, Note_off_c, 7, 79, 127
2, 337175, Note_on_c, 5, 77, 127
2, 337175, Note_on_c, 7, 55, 127
2, 337359, Note_off_c, 7, 55, 127
2, 337359, Note_off_c, 5, 77, 127
2, 337361, Note_on_c, 4, 76, 127
2, 337361, Note_on_c, 0, 48, 127
2, 337545, Note_off_c, 4, 76, 127
2, 337547, Note_on_c, 5, 77, 127
2, 337713, Note_off_c, 0, 48, 127
2, 337730, Note_off_c, 5, 77, 127
2, 337732, Note_on_c, 4, 76, 127
2, 337732, Note_on_c, 7, 55, 127
2, 337916, Note_off_c, 4, 76, 127
2, 337918, Note_on_c, 2, 74, 127
2, 338086, Note_off_c, 7, 55, 127
2, 338101, Note_off_c, 2, 74, 127
2, 338103, Note_on_c, 4, 76, 127
2, 338103, Note_on_c, 0, 60, 127
2, 338287, Note_off_c, 4, 76, 127
2, 338289, Note_on_c, 0, 72, 127
2, 338473, Note_off_c, 0, 72, 127
2, 338473, Note_off_c, 0, 60, 127
2, 338475, Note_on_c, 7, 67, 127
2, 338475, Note_on_c, 4, 64, 127
2, 338659, Note_off_c, 4, 64, 127
2, 338659, Note_off_c, 7, 67, 127
2, 338661, Note_on_c, 0, 72, 127
2, 338661, Note_on_c, 2, 62, 127
2, 338845, Note_off_c, 2, 62, 127
2, 338845, Note_off_c, 0, 72, 127
2, 338847, Note_on_c, 4, 76, 127
2, 338847, Note_on_c, 0, 60, 127
2, 339031, Note_off_c, 4, 76, 127
2, 339033, Note_on_c, 5, 77, 127
2, 339217, Note_off_c, 5, 77, 127
2, 339217, Note_off_c, 0, 60, 127
2, 339219, Note_on_c, 4, 76, 127
2, 339219, Note_on_c, 12, 59, 127
2, 339403, Note_off_c, 4, 76, 127
2, 339405, Note_on_c, 2, 74, 127
2, 339589, Note_off_c, 2, 74, 127
2, 339589, Note_off_c, 12, 59, 127
2, 339591, Note_on_c, 4, 76, 127
2, 339591, Note_on_c, 10, 57, 127
2, 339775, Note_off_c, 4, 76, 127
2, 339777, Note_on_c, 0, 72, 127
2, 339961, Note_off_c, 0, 72, 127
2, 339961, Note_off_c, 10, 57, 127
2, 339963, Note_on_c, 7, 67, 127
2, 339963, Note_on_c, 0, 60, 127
2, 340147, Note_off_c, 0, 60, 127
2, 340147, Note_off_c, 7, 67, 127
2, 340149, Note_on_c, 0, 72, 127
2, 340149, Note_on_c, 12, 59, 127
2, 340333, Note_off_c, 12, 59, 127
2, 340333, Note_off_c, 0, 72, 127
2, 340335, Note_on_c, 4, 76, 127
2, 340335, Note_on_c, 10, 57, 127
2, 340519, Note_off_c, 4, 76, 127
2, 340521, Note_on_c, 5, 77, 127
2, 340705, Note_off_c, 5, 77, 127
2, 340705, Note_off_c, 10, 57, 127
2, 340707, Note_on_c, 4, 76, 127
2, 340707, Note_on_c, 7, 55, 127
2, 340891, Note_off_c, 4, 76, 127
2, 340893, Note_on_c, 2, 74, 127
2, 341077, Note_off_c, 2, 74, 127
2, 341077, Note_off_c, 7, 55, 127
2, 341079, Note_on_c, 4, 76, 127
2, 341079, Note_on_c, 5, 53, 127
2, 341263, Note_off_c, 4, 76, 127
2, 341265, Note_on_c, 0, 72, 127
2, 341449, Note_off_c, 0, 72, 127
2, 341449, Note_off_c, 5, 53, 127
2, 341451, Note_on_c, 7, 67, 127
2, 341451, Note_on_c, 4, 52, 127
2, 341635, Note_off_c, 4, 52, 127
2, 341635, Note_off_c, 7, 67, 127
2, 341637, Note_on_c, 0, 72, 127
2, 341637, Note_on_c, 5, 53, 127
2, 341821, Note_off_c, 5, 53, 127
2, 341821, Note_off_c, 0, 72, 127
2, 341823, Note_on_c, 4, 76, 127
2, 341823, Note_on_c, 7, 55, 127
2, 342007, Note_off_c, 4, 76, 127
2, 342009, Note_on_c, 5, 77, 127
2, 342193, Note_off_c, 5, 77, 127
2, 342193, Note_off_c, 7, 55, 127
2, 342195, Note_on_c, 4, 76, 127
2, 342195, Note_on_c, 7, 43, 127
2, 342379, Note_off_c, 4, 76, 127
2, 342381, Note_on_c, 2, 74, 127
2, 342565, Note_off_c, 2, 74, 127
2, 342565, Note_off_c, 7, 43, 127
2, 342567, Note_on_c, 0, 72, 127
2, 342567, Note_on_c, 0, 48, 127
2, 342751, Note_off_c, 0, 72, 127
2, 342753, Note_on_c, 7, 67, 127
2, 342937, Note_off_c, 7, 67, 127
2, 342939, Note_on_c, 4, 64, 127
2, 342939, Note_on_c, 4, 52, 127
2, 343123, Note_off_c, 4, 64, 127
2, 343125, Note_on_c, 7, 67, 127
2, 343309, Note_off_c, 7, 67, 127
2, 343311, Note_on_c, 0, 72, 127
2, 343311, Note_on_c, 7, 55, 127
2, 343495, Note_off_c, 0, 72, 127
2, 343497, Note_on_c, 2, 74, 127
2, 343681, Note_off_c, 2, 74, 127
2, 343681, Note_off_c, 0, 48, 127
2, 343683, Note_on_c, 0, 72, 127
2, 343683, Note_on_c, 12, 47, 127
2, 343867, Note_off_c, 0, 72, 127
2, 343869, Note_on_c, 12, 71, 127
2, 344047, Note_off_c, 7, 55, 127
2, 344053, Note_off_c, 12, 71, 127
2, 344053, Note_off_c, 12, 47, 127
2, 344053, Note_off_c, 4, 52, 127
2, 344055, Note_on_c, 0, 72, 127
2, 344055, Note_on_c, 10, 45, 127
2, 344239, Note_off_c, 0, 72, 127
2, 344241, Note_on_c, 7, 67, 127
2, 344425, Note_off_c, 7, 67, 127
2, 344427, Note_on_c, 4, 64, 127
2, 344427, Note_on_c, 0, 48, 127
2, 344611, Note_off_c, 4, 64, 127
2, 344613, Note_on_c, 7, 67, 127
2, 344797, Note_off_c, 7, 67, 127
2, 344799, Note_on_c, 0, 72, 127
2, 344799, Note_on_c, 4, 52, 127
2, 344983, Note_off_c, 0, 72, 127
2, 344985, Note_on_c, 2, 74, 127
2, 345169, Note_off_c, 2, 74, 127
2, 345169, Note_off_c, 10, 45, 127
2, 345171, Note_on_c, 0, 72, 127
2, 345171, Note_on_c, 7, 43, 127
2, 345355, Note_off_c, 0, 72, 127
2, 345357, Note_on_c, 12, 71, 127
2, 345535, Note_off_c, 4, 52, 127
2, 345541, Note_off_c, 12, 71, 127
2, 345541, Note_off_c, 7, 43, 127
2, 345541, Note_off_c, 0, 48, 127
2, 345543, Note_on_c, 0, 72, 127
2, 345543, Note_on_c, 5, 41, 127
2, 345727, Note_off_c, 0, 72, 127
2, 345729, Note_on_c, 7, 67, 127
2, 345913, Note_off_c, 7, 67, 127
2, 345915, Note_on_c, 4, 64, 127
2, 345915, Note_on_c, 0, 48, 127
2, 346099, Note_off_c, 4, 64, 127
2, 346101, Note_on_c, 7, 67, 127
2, 346285, Note_off_c, 7, 67, 127
2, 346287, Note_on_c, 0, 72, 127
2, 346287, Note_on_c, 4, 52, 127
2, 346471, Note_off_c, 0, 72, 127
2, 346473, Note_on_c, 2, 74, 127
2, 346657, Note_off_c, 2, 74, 127
2, 346657, Note_off_c, 5, 41, 127
2, 346659, Note_on_c, 0, 72, 127
2, 346659, Note_on_c, 4, 40, 127
2, 346843, Note_off_c, 0, 72, 127
2, 346845, Note_on_c, 12, 71, 127
2, 347023, Note_off_c, 4, 52, 127
2, 347029, Note_off_c, 12, 71, 127
2, 347029, Note_off_c, 4, 40, 127
2, 347029, Note_off_c, 0, 48, 127
2, 347031, Note_on_c, 0, 72, 127
2, 347031, Note_on_c, 5, 41, 127
2, 347215, Note_off_c, 0, 72, 127
2, 347217, Note_on_c, 7, 67, 127
2, 347401, Note_off_c, 7, 67, 127
2, 347403, Note_on_c, 4, 64, 127
2, 347403, Note_on_c, 0, 48, 127
2, 347587, Note_off_c, 4, 64, 127
2, 347589, Note_on_c, 7, 67, 127
2, 347773, Note_off_c, 7, 67, 127
2, 347775, Note_on_c, 0, 72, 127
2, 347775, Note_on_c, 4, 52, 127
2, 347959, Note_off_c, 0, 72, 127
2, 347961, Note_on_c, 2, 74, 127
2, 348145, Note_off_c, 2, 74, 127
2, 348145, Note_off_c, 5, 41, 127
2, 348147, Note_on_c, 0, 72, 127
2, 348147, Note_on_c, 7, 43, 127
2, 348331, Note_off_c, 0, 72, 127
2, 348333, Note_on_c, 12, 71, 127
2, 348511, Note_off_c, 4, 52, 127
2, 348517, Note_off_c, 12, 71, 127
2, 348517, Note_off_c, 7, 43, 127
2, 348517, Note_off_c, 0, 48, 127
2, 348519, Note_on_c, 0, 72, 127
2, 348519, Note_on_c, 0, 36, 127
2, 348767, Note_on_c, 7, 67, 127
2, 349015, Note_on_c, 4, 64, 127
2, 349263, Note_on_c, 0, 60, 127
2, 349511, Note_off_c, 0, 36, 127
2, 349573, Note_on_c, 0, 48, 127
2, 350038, Note_off_c, 0, 60, 127
2, 350177, Note_off_c, 4, 64, 127
2, 350316, Note_off_c, 7, 67, 127
2, 350746, Note_off_c, 0, 72, 127
2, 351058, Note_off_c, 0, 48, 127
2, 353583, Note_on_c, 12, 71, 127
2, 353583, Note_on_c, 5, 53, 127
2, 353746, Note_off_c, 5, 53, 127
2, 353746, Note_off_c, 12, 71, 127
2, 353748, Note_on_c, 0, 72, 127
2, 353748, Note_on_c, 4, 52, 127
2, 353911, Note_off_c, 4, 52, 127
2, 353911, Note_off_c, 0, 72, 127
2, 353913, Note_on_c, 2, 74, 127
2, 353913, Note_on_c, 2, 50, 127
2, 354076, Note_off_c, 2, 50, 127
2, 354076, Note_off_c, 2, 74, 127
2, 354078, Note_on_c, 7, 67, 127
2, 354078, Note_on_c, 0, 72, 127
2, 354078, Note_on_c, 4, 76, 127
2, 354078, Note_on_c, 0, 48, 127
2, 354241, Note_off_c, 0, 48, 127
2, 354243, Note_on_c, 0, 60, 127
2, 354406, Note_off_c, 0, 60, 127
2, 354408, Note_on_c, 12, 59, 127
2, 354571, Note_off_c, 12, 59, 127
2, 354573, Note_on_c, 10, 57, 127
2, 354736, Note_off_c, 10, 57, 127
2, 354738, Note_on_c, 7, 55, 127
2, 354901, Note_off_c, 7, 55, 127
2, 354903, Note_on_c, 10, 57, 127
2, 355066, Note_off_c, 10, 57, 127
2, 355068, Note_on_c, 7, 55, 127
2, 355231, Note_off_c, 7, 55, 127
2, 355233, Note_on_c, 5, 53, 127
2, 355396, Note_off_c, 5, 53, 127
2, 355398, Note_on_c, 4, 52, 127
2, 355561, Note_off_c, 4, 76, 127
2, 355561, Note_off_c, 0, 72, 127
2, 355561, Note_off_c, 7, 67, 127
2, 355563, Note_on_c, 7, 79, 127
2, 355726, Note_off_c, 7, 79, 127
2, 355728, Note_on_c, 5, 77, 127
2, 355728, Note_on_c, 7, 55, 127
2, 355891, Note_off_c, 5, 77, 127
2, 355893, Note_on_c, 4, 76, 127
2, 356051, Note_off_c, 4, 52, 127
2, 356056, Note_off_c, 4, 76, 127
2, 356056, Note_off_c, 7, 55, 127
2, 356058, Note_on_c, 2, 74, 127
2, 356058, Note_on_c, 10, 57, 127
2, 356058, Note_on_c, 5, 53, 127
2, 356221, Note_off_c, 2, 74, 127
2, 356223, Note_on_c, 4, 76, 127
2, 356386, Note_off_c, 4, 76, 127
2, 356386, Note_off_c, 5, 53, 127
2, 356388, Note_on_c, 2, 74, 127
2, 356388, Note_on_c, 2, 62, 127
2, 356388, Note_on_c, 6, 54, 127
2, 356551, Note_off_c, 2, 74, 127
2, 356553, Note_on_c, 0, 72, 127
2, 356711, Note_off_c, 10, 57, 127
2, 356714, Note_off_c, 2, 62, 127
2, 356716, Note_off_c, 0, 72, 127
2, 356716, Note_off_c, 6, 54, 127
2, 356718, Note_on_c, 12, 71, 127
2, 356718, Note_on_c, 7, 55, 127
2, 356881, Note_off_c, 12, 71, 127
2, 356883, Note_on_c, 2, 74, 127
2, 357046, Note_off_c, 2, 74, 127
2, 357048, Note_on_c, 0, 72, 127
2, 357048, Note_on_c, 10, 57, 127
2, 357211, Note_off_c, 0, 72, 127
2, 357213, Note_on_c, 4, 76, 127
2, 357376, Note_off_c, 4, 76, 127
2, 357376, Note_off_c, 10, 57, 127
2, 357378, Note_on_c, 2, 74, 127
2, 357378, Note_on_c, 12, 59, 127
2, 357541, Note_off_c, 12, 59, 127
2, 357541, Note_off_c, 2, 74, 127
2, 357543, Note_on_c, 4, 76, 127
2, 357543, Note_on_c, 0, 60, 127
2, 357706, Note_off_c, 0, 60, 127
2, 357706, Note_off_c, 4, 76, 127
2, 357706, Note_off_c, 7, 55, 127
2, 357708, Note_on_c, 5, 77, 127
2, 357708, Note_on_c, 7, 55, 127
2, 357708, Note_on_c, 2, 62, 127
2, 357871, Note_off_c, 2, 62, 127
2, 357871, Note_off_c, 5, 77, 127
2, 357873, Note_on_c, 7, 79, 127
2, 357873, Note_on_c, 12, 59, 127
2, 358034, Note_off_c, 7, 55, 127
2, 358036, Note_off_c, 12, 59, 127
2, 358036, Note_off_c, 7, 79, 127
2, 358038, Note_on_c, 4, 76, 127
2, 358038, Note_on_c, 10, 57, 127
2, 358038, Note_on_c, 0, 60, 127
2, 358201, Note_off_c, 0, 60, 127
2, 358203, Note_on_c, 2, 74, 127
2, 358203, Note_on_c, 4, 64, 127
2, 358366, Note_off_c, 4, 64, 127
2, 358366, Note_off_c, 2, 74, 127
2, 358368, Note_on_c, 0, 72, 127
2, 358368, Note_on_c, 6, 66, 127
2, 358531, Note_off_c, 6, 66, 127
2, 358531, Note_off_c, 0, 72, 127
2, 358533, Note_on_c, 12, 71, 127
2, 358533, Note_on_c, 8, 68, 127
2, 358696, Note_off_c, 8, 68, 127
2, 358696, Note_off_c, 12, 71, 127
2, 358698, Note_on_c, 0, 72, 127
2, 358698, Note_on_c, 10, 69, 127
2, 358863, Note_off_c, 4, 76, 127
2, 358863, Note_on_c, 6, 78, 127
2, 359026, Note_off_c, 6, 78, 127
2, 359026, Note_off_c, 10, 57, 127
2, 359028, Note_on_c, 4, 76, 127
2, 359028, Note_on_c, 10, 57, 127
2, 359191, Note_off_c, 4, 76, 127
2, 359193, Note_on_c, 6, 78, 127
2, 359351, Note_off_c, 10, 69, 127
2, 359351, Note_off_c, 0, 72, 127
2, 359356, Note_off_c, 6, 78, 127
2, 359356, Note_off_c, 10, 57, 127
2, 359358, Note_on_c, 7, 79, 127
2, 359358, Note_on_c, 12, 59, 127
2, 359523, Note_on_c, 2, 62, 127
2, 359686, Note_off_c, 2, 62, 127
2, 359688, Note_on_c, 0, 60, 127
2, 359851, Note_off_c, 0, 60, 127
2, 359853, Note_on_c, 2, 62, 127
2, 360011, Note_off_c, 12, 59, 127
2, 360016, Note_off_c, 2, 62, 127
2, 360018, Note_on_c, 0, 60, 127
2, 360018, Note_on_c, 4, 64, 127
2, 360181, Note_off_c, 7, 79, 127
2, 360183, Note_on_c, 10, 81, 127
2, 360346, Note_off_c, 10, 81, 127
2, 360348, Note_on_c, 7, 79, 127
2, 360511, Note_off_c, 7, 79, 127
2, 360513, Note_on_c, 10, 81, 127
2, 360676, Note_off_c, 10, 81, 127
2, 360676, Note_off_c, 4, 64, 127
2, 360678, Note_on_c, 6, 78, 127
2, 360678, Note_on_c, 2, 62, 127
2, 360841, Note_off_c, 6, 78, 127
2, 360843, Note_off_c, 0, 60, 127
2, 360843, Note_on_c, 2, 74, 127
2, 360843, Note_on_c, 12, 59, 127
2, 361006, Note_off_c, 12, 59, 127
2, 361006, Note_off_c, 2, 74, 127
2, 361008, Note_on_c, 4, 76, 127
2, 361008, Note_on_c, 0, 60, 127
2, 361171, Note_off_c, 0, 60, 127
2, 361171, Note_off_c, 4, 76, 127
2, 361173, Note_on_c, 6, 78, 127
2, 361173, Note_on_c, 10, 57, 127
2, 361336, Note_off_c, 10, 57, 127
2, 361336, Note_off_c, 6, 78, 127
2, 361338, Note_on_c, 7, 79, 127
2, 361338, Note_on_c, 12, 59, 127
2, 361503, Note_off_c, 2, 62, 127
2, 361503, Note_on_c, 2, 62, 127
2, 361666, Note_off_c, 2, 62, 127
2, 361668, Note_on_c, 0, 60, 127
2, 361831, Note_off_c, 0, 60, 127
2, 361833, Note_on_c, 2, 62, 127
2, 361991, Note_off_c, 12, 59, 127
2, 361996, Note_off_c, 2, 62, 127
2, 361998, Note_on_c, 0, 60, 127
2, 361998, Note_on_c, 4, 64, 127
2, 362161, Note_off_c, 7, 79, 127
2, 362163, Note_on_c, 10, 81, 127
2, 362326, Note_off_c, 10, 81, 127
2, 362328, Note_on_c, 7, 79, 127
2, 362491, Note_off_c, 4, 64, 127
2, 362491, Note_off_c, 0, 60, 127
2, 362493, Note_on_c, 2, 62, 127
2, 362493, Note_on_c, 12, 59, 127
2, 362656, Note_off_c, 12, 59, 127
2, 362656, Note_off_c, 2, 62, 127
2, 362658, Note_on_c, 0, 60, 127
2, 362658, Note_on_c, 10, 57, 127
2, 362821, Note_off_c, 7, 79, 127
2, 362823, Note_on_c, 10, 81, 127
2, 362986, Note_off_c, 10, 81, 127
2, 362986, Note_off_c, 10, 57, 127
2, 362988, Note_on_c, 7, 79, 127
2, 362988, Note_on_c, 2, 50, 127
2, 363151, Note_off_c, 7, 79, 127
2, 363153, Note_on_c, 6, 78, 127
2, 363311, Note_off_c, 0, 60, 127
2, 363316, Note_off_c, 6, 78, 127
2, 363316, Note_off_c, 2, 50, 127
2, 363318, Note_on_c, 7, 79, 127
2, 363318, Note_on_c, 7, 55, 127
2, 363318, Note_on_c, 12, 59, 127
2, 363481, Note_off_c, 7, 55, 127
2, 363483, Note_on_c, 10, 57, 127
2, 363646, Note_off_c, 10, 57, 127
2, 363648, Note_on_c, 7, 55, 127
2, 363811, Note_off_c, 7, 55, 127
2, 363813, Note_on_c, 5, 53, 127
2, 363971, Note_off_c, 12, 59, 127
2, 363976, Note_off_c, 5, 53, 127
2, 363978, Note_on_c, 0, 60, 127
2, 363978, Note_on_c, 4, 52, 127
2, 364141, Note_off_c, 7, 79, 127
2, 364143, Note_on_c, 7, 79, 127
2, 364306, Note_off_c, 7, 79, 127
2, 364306, Note_off_c, 4, 52, 127
2, 364308, Note_on_c, 5, 77, 127
2, 364308, Note_on_c, 0, 48, 127
2, 364471, Note_off_c, 5, 77, 127
2, 364473, Note_on_c, 4, 76, 127
2, 364636, Note_off_c, 4, 76, 127
2, 364636, Note_off_c, 0, 48, 127
2, 364638, Note_on_c, 2, 74, 127
2, 364638, Note_on_c, 7, 55, 127
2, 364965, Note_off_c, 0, 60, 127
2, 364967, Note_on_c, 12, 59, 127
2, 365130, Note_off_c, 2, 74, 127
2, 365132, Note_on_c, 4, 76, 127
2, 365295, Note_off_c, 4, 76, 127
2, 365295, Note_off_c, 12, 59, 127
2, 365297, Note_on_c, 2, 74, 127
2, 365297, Note_on_c, 10, 57, 127
2, 365460, Note_off_c, 2, 74, 127
2, 365462, Note_on_c, 4, 76, 127
2, 365625, Note_off_c, 4, 76, 127
2, 365625, Note_off_c, 7, 55, 127
2, 365627, Note_on_c, 0, 72, 127
2, 365627, Note_on_c, 6, 54, 127
2, 365790, Note_off_c, 0, 72, 127
2, 365792, Note_on_c, 2, 74, 127
2, 365950, Note_off_c, 10, 57, 127
2, 365955, Note_off_c, 2, 74, 127
2, 365955, Note_off_c, 6, 54, 127
2, 365957, Note_on_c, 12, 71, 127
2, 365957, Note_on_c, 7, 55, 127
2, 366122, Note_on_c, 2, 62, 127
2, 366287, Note_on_c, 7, 67, 127
2, 366438, Note_off_c, 12, 71, 127
2, 366452, Note_on_c, 0, 72, 127
2, 366615, Note_off_c, 0, 72, 127
2, 366617, Note_on_c, 12, 71, 127
2, 366780, Note_off_c, 12, 71, 127
2, 366782, Note_on_c, 0, 72, 127
2, 366945, Note_off_c, 0, 72, 127
2, 366945, Note_off_c, 2, 62, 127
2, 366945, Note_off_c, 7, 55, 127
2, 366947, Note_on_c, 2, 74, 127
2, 366947, Note_on_c, 7, 43, 127
2, 367112, Note_off_c, 7, 67, 127
2, 367112, Note_on_c, 5, 65, 127
2, 367273, Note_off_c, 2, 74, 127
2, 367275, Note_off_c, 5, 65, 127
2, 367275, Note_off_c, 7, 43, 127
2, 367277, Note_on_c, 0, 72, 127
2, 367277, Note_on_c, 4, 64, 127
2, 367277, Note_on_c, 10, 45, 127
2, 367440, Note_off_c, 4, 64, 127
2, 367442, Note_on_c, 5, 65, 127
2, 367605, Note_off_c, 5, 65, 127
2, 367607, Note_on_c, 2, 62, 127
2, 367770, Note_off_c, 2, 62, 127
2, 367772, Note_on_c, 4, 64, 127
2, 367935, Note_off_c, 4, 64, 127
2, 367937, Note_on_c, 5, 65, 127
2, 368102, Note_off_c, 0, 72, 127
2, 368102, Note_on_c, 0, 72, 127
2, 368265, Note_off_c, 0, 72, 127
2, 368265, Note_off_c, 10, 45, 127
2, 368267, Note_on_c, 12, 71, 127
2, 368267, Note_on_c, 10, 57, 127
2, 368430, Note_off_c, 12, 71, 127
2, 368432, Note_on_c, 0, 72, 127
2, 368590, Note_off_c, 5, 65, 127
2, 368595, Note_off_c, 0, 72, 127
2, 368595, Note_off_c, 10, 57, 127
2, 368597, Note_on_c, 2, 74, 127
2, 368597, Note_on_c, 12, 59, 127
2, 368762, Note_on_c, 6, 66, 127
2, 368925, Note_off_c, 6, 66, 127
2, 368927, Note_on_c, 4, 64, 127
2, 369090, Note_off_c, 4, 64, 127
2, 369092, Note_on_c, 6, 66, 127
2, 369255, Note_off_c, 6, 66, 127
2, 369257, Note_on_c, 7, 67, 127
2, 369422, Note_off_c, 2, 74, 127
2, 369422, Note_on_c, 2, 74, 127
2, 369585, Note_off_c, 2, 74, 127
2, 369585, Note_off_c, 12, 59, 127
2, 369587, Note_on_c, 0, 72, 127
2, 369587, Note_on_c, 12, 47, 127
2, 369750, Note_off_c, 0, 72, 127
2, 369752, Note_on_c, 2, 74, 127
2, 369915, Note_off_c, 2, 74, 127
2, 369915, Note_off_c, 12, 47, 127
2, 369917, Note_on_c, 4, 76, 127
2, 369917, Note_on_c, 0, 48, 127
2, 370082, Note_off_c, 7, 67, 127
2, 370082, Note_on_c, 7, 67, 127
2, 370245, Note_off_c, 7, 67, 127
2, 370247, Note_on_c, 5, 65, 127
2, 370410, Note_off_c, 5, 65, 127
2, 370412, Note_on_c, 7, 67, 127
2, 370575, Note_off_c, 7, 67, 127
2, 370577, Note_on_c, 10, 69, 127
2, 370742, Note_off_c, 4, 76, 127
2, 370742, Note_on_c, 4, 76, 127
2, 370905, Note_off_c, 4, 76, 127
2, 370905, Note_off_c, 0, 48, 127
2, 370907, Note_on_c, 2, 74, 127
2, 370907, Note_on_c, 0, 60, 127
2, 371070, Note_off_c, 2, 74, 127
2, 371072, Note_on_c, 4, 76, 127
2, 371235, Note_off_c, 4, 76, 127
2, 371235, Note_off_c, 0, 60, 127
2, 371237, Note_on_c, 5, 77, 127
2, 371237, Note_on_c, 2, 62, 127
2, 371402, Note_off_c, 10, 69, 127
2, 371402, Note_on_c, 10, 69, 127
2, 371565, Note_off_c, 10, 69, 127
2, 371567, Note_on_c, 7, 67, 127
2, 371730, Note_off_c, 7, 67, 127
2, 371732, Note_on_c, 10, 69, 127
2, 371895, Note_off_c, 10, 69, 127
2, 371897, Note_on_c, 12, 71, 127
2, 371987, Note_off_c, 5, 77, 127
2, 372062, Note_on_c, 6, 78, 127
2, 372225, Note_off_c, 6, 78, 127
2, 372225, Note_off_c, 2, 62, 127
2, 372227, Note_on_c, 4, 76, 127
2, 372227, Note_on_c, 2, 50, 127
2, 372390, Note_off_c, 4, 76, 127
2, 372392, Note_on_c, 6, 78, 127
2, 372555, Note_off_c, 6, 78, 127
2, 372555, Note_off_c, 2, 50, 127
2, 372557, Note_on_c, 7, 79, 127
2, 372557, Note_on_c, 4, 52, 127
2, 372722, Note_off_c, 12, 71, 127
2, 372722, Note_on_c, 12, 71, 127
2, 372885, Note_off_c, 12, 71, 127
2, 372887, Note_on_c, 10, 69, 127
2, 373050, Note_off_c, 10, 69, 127
2, 373052, Note_on_c, 12, 71, 127
2, 373215, Note_off_c, 12, 71, 127
2, 373217, Note_on_c, 0, 72, 127
2, 373382, Note_off_c, 7, 79, 127
2, 373382, Note_on_c, 7, 79, 127
2, 373545, Note_off_c, 7, 79, 127
2, 373545, Note_off_c, 4, 52, 127
2, 373547, Note_on_c, 5, 77, 127
2, 373547, Note_on_c, 4, 64, 127
2, 373710, Note_off_c, 5, 77, 127
2, 373712, Note_on_c, 7, 79, 127
2, 373875, Note_off_c, 7, 79, 127
2, 373875, Note_off_c, 4, 64, 127
2, 373877, Note_on_c, 10, 81, 127
2, 373877, Note_on_c, 5, 65, 127
2, 374042, Note_off_c, 0, 72, 127
2, 374042, Note_on_c, 0, 72, 127
2, 374205, Note_off_c, 0, 72, 127
2, 374207, Note_on_c, 12, 71, 127
2, 374370, Note_off_c, 12, 71, 127
2, 374372, Note_on_c, 0, 72, 127
2, 374535, Note_off_c, 0, 72, 127
2, 374537, Note_on_c, 2, 74, 127
2, 374702, Note_off_c, 10, 81, 127
2, 374702, Note_on_c, 7, 79, 127
2, 374865, Note_off_c, 7, 79, 127
2, 374865, Note_off_c, 5, 65, 127
2, 374867, Note_on_c, 5, 77, 127
2, 374867, Note_on_c, 2, 62, 127
2, 375018, Note_off_c, 2, 74, 127
2, 375030, Note_off_c, 5, 77, 127
2, 375032, Note_on_c, 0, 72, 127
2, 375032, Note_on_c, 4, 76, 127
2, 375195, Note_off_c, 4, 76, 127
2, 375195, Note_off_c, 0, 72, 127
2, 375195, Note_off_c, 2, 62, 127
2, 375197, Note_on_c, 12, 71, 127
2, 375197, Note_on_c, 2, 74, 127
2, 375197, Note_on_c, 7, 67, 127
2, 375360, Note_off_c, 2, 74, 127
2, 375360, Note_off_c, 12, 71, 127
2, 375362, Note_on_c, 0, 72, 127
2, 375362, Note_on_c, 4, 76, 127
2, 375525, Note_off_c, 4, 76, 127
2, 375525, Note_off_c, 0, 72, 127
2, 375527, Note_on_c, 0, 72, 127
2, 375527, Note_on_c, 10, 69, 127
2, 375690, Note_off_c, 10, 69, 127
2, 375690, Note_off_c, 0, 72, 127
2, 375692, Note_on_c, 2, 74, 127
2, 375692, Note_on_c, 12, 71, 127
2, 375850, Note_off_c, 7, 67, 127
2, 375855, Note_off_c, 12, 71, 127
2, 375855, Note_off_c, 2, 74, 127
2, 375857, Note_on_c, 7, 67, 127
2, 375857, Note_on_c, 12, 71, 127
2, 376020, Note_off_c, 12, 71, 127
2, 376020, Note_off_c, 7, 67, 127
2, 376022, Note_on_c, 0, 72, 127
2, 376022, Note_on_c, 10, 69, 127
2, 376185, Note_off_c, 10, 69, 127
2, 376185, Note_off_c, 0, 72, 127
2, 376187, Note_on_c, 2, 74, 127
2, 376187, Note_on_c, 5, 65, 127
2, 376350, Note_off_c, 5, 65, 127
2, 376350, Note_off_c, 2, 74, 127
2, 376352, Note_on_c, 7, 67, 127
2, 376352, Note_on_c, 4, 76, 127
2, 376515, Note_off_c, 4, 76, 127
2, 376515, Note_off_c, 7, 67, 127
2, 376517, Note_on_c, 4, 64, 127
2, 376517, Note_on_c, 7, 67, 127
2, 376517, Note_on_c, 7, 55, 127
2, 376680, Note_off_c, 7, 67, 127
2, 376682, Note_on_c, 2, 74, 127
2, 376845, Note_off_c, 2, 74, 127
2, 376847, Note_on_c, 0, 72, 127
2, 377010, Note_off_c, 0, 72, 127
2, 377012, Note_on_c, 12, 71, 127
2, 377175, Note_off_c, 12, 71, 127
2, 377177, Note_on_c, 0, 72, 127
2, 377342, Note_off_c, 4, 64, 127
2, 377342, Note_on_c, 5, 65, 127
2, 377503, Note_off_c, 0, 72, 127
2, 377505, Note_off_c, 5, 65, 127
2, 377507, Note_on_c, 2, 62, 127
2, 377507, Note_on_c, 12, 71, 127
2, 377670, Note_off_c, 12, 71, 127
2, 377670, Note_off_c, 2, 62, 127
2, 377672, Note_on_c, 0, 60, 127
2, 377672, Note_on_c, 10, 69, 127
2, 377835, Note_off_c, 10, 69, 127
2, 377835, Note_off_c, 0, 60, 127
2, 377837, Note_on_c, 2, 62, 127
2, 377837, Note_on_c, 12, 71, 127
2, 378000, Note_off_c, 12, 71, 127
2, 378000, Note_off_c, 2, 62, 127
2, 378002, Note_on_c, 0, 72, 127
2, 378002, Note_on_c, 4, 64, 127
2, 378165, Note_off_c, 4, 64, 127
2, 378165, Note_off_c, 0, 72, 127
2, 378167, Note_on_c, 10, 69, 127
2, 378167, Note_on_c, 0, 60, 127
2, 378330, Note_off_c, 0, 60, 127
2, 378330, Note_off_c, 10, 69, 127
2, 378332, Note_on_c, 12, 71, 127
2, 378332, Note_on_c, 2, 62, 127
2, 378495, Note_off_c, 2, 62, 127
2, 378495, Note_off_c, 12, 71, 127
2, 378497, Note_on_c, 7, 67, 127
2, 378497, Note_on_c, 12, 59, 127
2, 378660, Note_off_c, 12, 59, 127
2, 378660, Note_off_c, 7, 67, 127
2, 378662, Note_on_c, 10, 69, 127
2, 378662, Note_on_c, 0, 60, 127
2, 378825, Note_off_c, 0, 60, 127
2, 378825, Note_off_c, 10, 69, 127
2, 378827, Note_on_c, 6, 66, 127
2, 378827, Note_on_c, 10, 57, 127
2, 378990, Note_off_c, 10, 57, 127
2, 378990, Note_off_c, 6, 66, 127
2, 378992, Note_on_c, 10, 69, 127
2, 378992, Note_on_c, 0, 60, 127
2, 379146, Note_off_c, 7, 55, 127
2, 379155, Note_off_c, 0, 60, 127
2, 379155, Note_off_c, 10, 69, 127
2, 379157, Note_on_c, 7, 67, 127
2, 379157, Note_on_c, 12, 59, 127
2, 379322, Note_on_c, 7, 55, 127
2, 379485, Note_off_c, 7, 55, 127
2, 379487, Note_on_c, 6, 54, 127
2, 379650, Note_off_c, 6, 54, 127
2, 379652, Note_on_c, 4, 52, 127
2, 379815, Note_off_c, 4, 52, 127
2, 379817, Note_on_c, 2, 50, 127
2, 379980, Note_off_c, 2, 50, 127
2, 379982, Note_on_c, 4, 52, 127
2, 380145, Note_off_c, 4, 52, 127
2, 380145, Note_off_c, 12, 59, 127
2, 380147, Note_on_c, 0, 48, 127
2, 380147, Note_on_c, 0, 60, 127
2, 380310, Note_off_c, 0, 48, 127
2, 380312, Note_on_c, 2, 50, 127
2, 380473, Note_off_c, 0, 60, 127
2, 380475, Note_off_c, 2, 50, 127
2, 380477, Note_on_c, 2, 62, 127
2, 380477, Note_on_c, 12, 47, 127
2, 380640, Note_off_c, 7, 67, 127
2, 380642, Note_on_c, 12, 71, 127
2, 380805, Note_off_c, 12, 71, 127
2, 380807, Note_on_c, 0, 72, 127
2, 380970, Note_off_c, 0, 72, 127
2, 380972, Note_on_c, 2, 74, 127
2, 381135, Note_off_c, 2, 74, 127
2, 381137, Note_on_c, 7, 67, 127
2, 381300, Note_off_c, 12, 47, 127
2, 381302, Note_on_c, 12, 47, 127
2, 381465, Note_off_c, 12, 47, 127
2, 381465, Note_off_c, 7, 67, 127
2, 381465, Note_off_c, 2, 62, 127
2, 381467, Note_on_c, 2, 62, 127
2, 381467, Note_on_c, 6, 66, 127
2, 381467, Note_on_c, 0, 48, 127
2, 381467, Note_on_c, 10, 57, 127
2, 381630, Note_off_c, 0, 48, 127
2, 381632, Note_on_c, 2, 50, 127
2, 381793, Note_off_c, 10, 57, 127
2, 381795, Note_off_c, 2, 50, 127
2, 381795, Note_off_c, 6, 66, 127
2, 381795, Note_off_c, 2, 62, 127
2, 381797, Note_on_c, 2, 62, 127
2, 381797, Note_on_c, 7, 67, 127
2, 381797, Note_on_c, 12, 59, 127
2, 381797, Note_on_c, 7, 43, 127
2, 382618, Note_off_c, 7, 43, 127
2, 382618, Note_off_c, 12, 59, 127
2, 382618, Note_off_c, 7, 67, 127
2, 382618, Note_off_c, 2, 62, 127
2, 382620, Note_on_c, 7, 79, 127
2, 382620, Note_on_c, 12, 59, 127
2, 382783, Note_off_c, 12, 59, 127
2, 382783, Note_off_c, 7, 79, 127
2, 382785, Note_on_c, 4, 76, 127
2, 382785, Note_on_c, 0, 60, 127
2, 382948, Note_off_c, 0, 60, 127
2, 382948, Note_off_c, 4, 76, 127
2, 382950, Note_on_c, 6, 78, 127
2, 382950, Note_on_c, 10, 57, 127
2, 383113, Note_off_c, 10, 57, 127
2, 383113, Note_off_c, 6, 78, 127
2, 383115, Note_on_c, 7, 79, 127
2, 383115, Note_on_c, 7, 55, 127
2, 383280, Note_on_c, 12, 59, 127
2, 383443, Note_off_c, 12, 59, 127
2, 383445, Note_on_c, 10, 57, 127
2, 383608, Note_off_c, 10, 57, 127
2, 383608, Note_off_c, 7, 79, 127
2, 383610, Note_on_c, 5, 77, 127
2, 383610, Note_on_c, 12, 59, 127
2, 383773, Note_off_c, 12, 59, 127
2, 383773, Note_off_c, 5, 77, 127
2, 383775, Note_on_c, 4, 76, 127
2, 383775, Note_on_c, 0, 60, 127
2, 383938, Note_off_c, 4, 76, 127
2, 383940, Note_on_c, 4, 76, 127
2, 384103, Note_off_c, 4, 76, 127
2, 384103, Note_off_c, 0, 60, 127
2, 384105, Note_on_c, 2, 74, 127
2, 384105, Note_on_c, 12, 59, 127
2, 384268, Note_off_c, 12, 59, 127
2, 384268, Note_off_c, 2, 74, 127
2, 384270, Note_on_c, 0, 72, 127
2, 384270, Note_on_c, 0, 60, 127
2, 384433, Note_off_c, 0, 60, 127
2, 384433, Note_off_c, 0, 72, 127
2, 384435, Note_on_c, 12, 71, 127
2, 384435, Note_on_c, 2, 62, 127
2, 384598, Note_off_c, 2, 62, 127
2, 384598, Note_off_c, 12, 71, 127
2, 384600, Note_on_c, 0, 72, 127
2, 384600, Note_on_c, 4, 64, 127
2, 384763, Note_off_c, 4, 64, 127
2, 384763, Note_off_c, 0, 72, 127
2, 384765, Note_on_c, 12, 71, 127
2, 384765, Note_on_c, 2, 62, 127
2, 384928, Note_off_c, 2, 62, 127
2, 384928, Note_off_c, 12, 71, 127
2, 384930, Note_on_c, 10, 69, 127
2, 384930, Note_on_c, 0, 60, 127
2, 385093, Note_off_c, 0, 60, 127
2, 385093, Note_off_c, 10, 69, 127
2, 385095, Note_on_c, 7, 67, 127
2, 385095, Note_on_c, 12, 59, 127
2, 385258, Note_off_c, 12, 59, 127
2, 385258, Note_off_c, 7, 67, 127
2, 385260, Note_on_c, 10, 69, 127
2, 385260, Note_on_c, 0, 60, 127
2, 385423, Note_off_c, 0, 60, 127
2, 385423, Note_off_c, 10, 69, 127
2, 385425, Note_on_c, 7, 67, 127
2, 385425, Note_on_c, 12, 59, 127
2, 385588, Note_off_c, 12, 59, 127
2, 385588, Note_off_c, 7, 67, 127
2, 385590, Note_on_c, 6, 66, 127
2, 385590, Note_on_c, 10, 57, 127
2, 385744, Note_off_c, 7, 55, 127
2, 385753, Note_off_c, 10, 57, 127
2, 385753, Note_off_c, 6, 66, 127
2, 385755, Note_on_c, 7, 67, 127
2, 385755, Note_on_c, 12, 59, 127
2, 385918, Note_off_c, 7, 67, 127
2, 385920, Note_on_c, 10, 69, 127
2, 386083, Note_off_c, 10, 69, 127
2, 386083, Note_off_c, 12, 59, 127
2, 386085, Note_on_c, 12, 71, 127
2, 386085, Note_on_c, 2, 62, 127
2, 386248, Note_off_c, 12, 71, 127
2, 386250, Note_on_c, 0, 72, 127
2, 386250, Note_on_c, 10, 57, 127
2, 386413, Note_off_c, 10, 57, 127
2, 386413, Note_off_c, 0, 72, 127
2, 386415, Note_on_c, 2, 74, 127
2, 386415, Note_on_c, 12, 59, 127
2, 386578, Note_off_c, 2, 74, 127
2, 386580, Note_on_c, 4, 76, 127
2, 386743, Note_off_c, 4, 76, 127
2, 386743, Note_off_c, 12, 59, 127
2, 386745, Note_on_c, 5, 77, 127
2, 386745, Note_on_c, 7, 55, 127
2, 386908, Note_off_c, 5, 77, 127
2, 386910, Note_on_c, 7, 79, 127
2, 387073, Note_off_c, 7, 79, 127
2, 387073, Note_off_c, 7, 55, 127
2, 387073, Note_off_c, 2, 62, 127
2, 387075, Note_on_c, 0, 72, 127
2, 387075, Note_on_c, 4, 76, 127
2, 387075, Note_on_c, 7, 67, 127
2, 387075, Note_on_c, 0, 48, 127
2, 387238, Note_off_c, 0, 48, 127
2, 387240, Note_on_c, 2, 50, 127
2, 387403, Note_off_c, 2, 50, 127
2, 387405, Note_on_c, 4, 52, 127
2, 387568, Note_off_c, 4, 52, 127
2, 387570, Note_on_c, 5, 53, 127
2, 387733, Note_off_c, 5, 53, 127
2, 387735, Note_on_c, 7, 55, 127
2, 387898, Note_off_c, 7, 55, 127
2, 387900, Note_on_c, 10, 57, 127
2, 388063, Note_off_c, 10, 57, 127
2, 388065, Note_on_c, 12, 59, 127
2, 388228, Note_off_c, 12, 59, 127
2, 388230, Note_on_c, 0, 60, 127
2, 388393, Note_off_c, 7, 67, 127
2, 388393, Note_off_c, 4, 76, 127
2, 388393, Note_off_c, 0, 72, 127
2, 388395, Note_on_c, 2, 74, 127
2, 388395, Note_on_c, 6, 66, 127
2, 388558, Note_off_c, 6, 66, 127
2, 388560, Note_on_c, 2, 62, 127
2, 388723, Note_off_c, 2, 62, 127
2, 388725, Note_on_c, 4, 64, 127
2, 388888, Note_off_c, 4, 64, 127
2, 388890, Note_on_c, 6, 66, 127
2, 389053, Note_off_c, 6, 66, 127
2, 389053, Note_off_c, 0, 60, 127
2, 389055, Note_on_c, 7, 67, 127
2, 389055, Note_on_c, 12, 59, 127
2, 389218, Note_off_c, 7, 67, 127
2, 389220, Note_on_c, 10, 69, 127
2, 389383, Note_off_c, 10, 69, 127
2, 389383, Note_off_c, 12, 59, 127
2, 389385, Note_on_c, 12, 71, 127
2, 389385, Note_on_c, 10, 57, 127
2, 389548, Note_off_c, 12, 71, 127
2, 389550, Note_on_c, 0, 72, 127
2, 389713, Note_off_c, 0, 72, 127
2, 389713, Note_off_c, 10, 57, 127
2, 389715, Note_on_c, 7, 67, 127
2, 389715, Note_on_c, 12, 59, 127
2, 389873, Note_off_c, 2, 74, 127
2, 389880, Note_on_c, 4, 76, 127
2, 390043, Note_off_c, 4, 76, 127
2, 390045, Note_on_c, 2, 74, 127
2, 390208, Note_off_c, 2, 74, 127
2, 390208, Note_off_c, 12, 59, 127
2, 390210, Note_on_c, 0, 72, 127
2, 390210, Note_on_c, 10, 57, 127
2, 390373, Note_off_c, 10, 57, 127
2, 390373, Note_off_c, 0, 72, 127
2, 390375, Note_on_c, 12, 71, 127
2, 390375, Note_on_c, 7, 55, 127
2, 390538, Note_off_c, 12, 71, 127
2, 390540, Note_on_c, 0, 72, 127
2, 390703, Note_off_c, 0, 72, 127
2, 390705, Note_on_c, 2, 74, 127
2, 390866, Note_off_c, 7, 67, 127
2, 390869, Note_on_c, 5, 65, 127
2, 391030, Note_off_c, 2, 74, 127
2, 391032, Note_off_c, 5, 65, 127
2, 391032, Note_off_c, 7, 55, 127
2, 391034, Note_on_c, 4, 64, 127
2, 391034, Note_on_c, 0, 72, 127
2, 391034, Note_on_c, 10, 57, 127
2, 391197, Note_off_c, 0, 72, 127
2, 391199, Note_on_c, 2, 74, 127
2, 391362, Note_off_c, 2, 74, 127
2, 391364, Note_on_c, 12, 71, 127
2, 391527, Note_off_c, 12, 71, 127
2, 391529, Note_on_c, 0, 72, 127
2, 391687, Note_off_c, 4, 64, 127
2, 391692, Note_off_c, 0, 72, 127
2, 391694, Note_on_c, 10, 69, 127
2, 391859, Note_on_c, 5, 65, 127
2, 392020, Note_off_c, 10, 69, 127
2, 392022, Note_off_c, 5, 65, 127
2, 392024, Note_on_c, 0, 72, 127
2, 392024, Note_on_c, 4, 64, 127
2, 392187, Note_off_c, 4, 64, 127
2, 392189, Note_on_c, 5, 65, 127
2, 392350, Note_off_c, 0, 72, 127
2, 392352, Note_off_c, 5, 65, 127
2, 392352, Note_off_c, 10, 57, 127
2, 392354, Note_on_c, 2, 62, 127
2, 392354, Note_on_c, 12, 59, 127
2, 392519, Note_on_c, 2, 74, 127
2, 392680, Note_off_c, 2, 62, 127
2, 392682, Note_off_c, 2, 74, 127
2, 392684, Note_on_c, 6, 66, 127
2, 392684, Note_on_c, 0, 72, 127
2, 392847, Note_off_c, 0, 72, 127
2, 392849, Note_on_c, 2, 74, 127
2, 393010, Note_off_c, 6, 66, 127
2, 393012, Note_off_c, 2, 74, 127
2, 393014, Note_on_c, 12, 71, 127
2, 393179, Note_on_c, 7, 67, 127
2, 393340, Note_off_c, 12, 71, 127
2, 393342, Note_off_c, 7, 67, 127
2, 393344, Note_on_c, 5, 65, 127
2, 393344, Note_on_c, 2, 74, 127
2, 393507, Note_off_c, 5, 65, 127
2, 393509, Note_on_c, 7, 67, 127
2, 393670, Note_off_c, 2, 74, 127
2, 393672, Note_off_c, 7, 67, 127
2, 393672, Note_off_c, 12, 59, 127
2, 393674, Note_on_c, 4, 64, 127
2, 393674, Note_on_c, 0, 60, 127
2, 393839, Note_on_c, 4, 76, 127
2, 394000, Note_off_c, 4, 64, 127
2, 394002, Note_off_c, 4, 76, 127
2, 394004, Note_on_c, 7, 67, 127
2, 394004, Note_on_c, 2, 74, 127
2, 394167, Note_off_c, 2, 74, 127
2, 394169, Note_on_c, 4, 76, 127
2, 394330, Note_off_c, 7, 67, 127
2, 394332, Note_off_c, 4, 76, 127
2, 394334, Note_on_c, 0, 72, 127
2, 394499, Note_on_c, 10, 69, 127
2, 394660, Note_off_c, 0, 72, 127
2, 394662, Note_off_c, 10, 69, 127
2, 394664, Note_on_c, 7, 67, 127
2, 394664, Note_on_c, 4, 76, 127
2, 394827, Note_off_c, 7, 67, 127
2, 394829, Note_on_c, 10, 69, 127
2, 394990, Note_off_c, 4, 76, 127
2, 394992, Note_off_c, 10, 69, 127
2, 394992, Note_off_c, 0, 60, 127
2, 394994, Note_on_c, 5, 65, 127
2, 394994, Note_on_c, 2, 62, 127
2, 395159, Note_on_c, 5, 77, 127
2, 395320, Note_off_c, 5, 65, 127
2, 395322, Note_off_c, 5, 77, 127
2, 395324, Note_on_c, 10, 69, 127
2, 395324, Note_on_c, 4, 76, 127
2, 395487, Note_off_c, 4, 76, 127
2, 395489, Note_on_c, 5, 77, 127
2, 395650, Note_off_c, 10, 69, 127
2, 395652, Note_off_c, 5, 77, 127
2, 395654, Note_on_c, 2, 74, 127
2, 395819, Note_on_c, 12, 71, 127
2, 395980, Note_off_c, 2, 74, 127
2, 395982, Note_off_c, 12, 71, 127
2, 395984, Note_on_c, 10, 69, 127
2, 395984, Note_on_c, 5, 77, 127
2, 396147, Note_off_c, 10, 69, 127
2, 396149, Note_on_c, 12, 71, 127
2, 396310, Note_off_c, 5, 77, 127
2, 396312, Note_off_c, 12, 71, 127
2, 396312, Note_off_c, 2, 62, 127
2, 396314, Note_on_c, 7, 67, 127
2, 396314, Note_on_c, 4, 64, 127
2, 396479, Note_on_c, 7, 79, 127
2, 396640, Note_off_c, 7, 67, 127
2, 396642, Note_off_c, 7, 79, 127
2, 396644, Note_on_c, 5, 77, 127
2, 396644, Note_on_c, 12, 71, 127
2, 396807, Note_off_c, 5, 77, 127
2, 396809, Note_on_c, 7, 79, 127
2, 396970, Note_off_c, 12, 71, 127
2, 396972, Note_off_c, 7, 79, 127
2, 396974, Note_on_c, 4, 76, 127
2, 397139, Note_on_c, 0, 72, 127
2, 397300, Note_off_c, 4, 76, 127
2, 397302, Note_off_c, 0, 72, 127
2, 397304, Note_on_c, 12, 71, 127
2, 397304, Note_on_c, 7, 79, 127
2, 397467, Note_off_c, 12, 71, 127
2, 397469, Note_on_c, 0, 72, 127
2, 397630, Note_off_c, 7, 79, 127
2, 397632, Note_off_c, 0, 72, 127
2, 397632, Note_off_c, 4, 64, 127
2, 397634, Note_on_c, 10, 69, 127
2, 397634, Note_on_c, 5, 65, 127
2, 397799, Note_on_c, 10, 81, 127
2, 397960, Note_off_c, 10, 69, 127
2, 397962, Note_off_c, 10, 81, 127
2, 397964, Note_on_c, 7, 79, 127
2, 397964, Note_on_c, 0, 72, 127
2, 398127, Note_off_c, 7, 79, 127
2, 398129, Note_on_c, 10, 81, 127
2, 398290, Note_off_c, 0, 72, 127
2, 398292, Note_off_c, 10, 81, 127
2, 398294, Note_on_c, 2, 74, 127
2, 398294, Note_on_c, 5, 77, 127
2, 398457, Note_off_c, 5, 77, 127
2, 398459, Note_on_c, 4, 76, 127
2, 398620, Note_off_c, 2, 74, 127
2, 398622, Note_off_c, 4, 76, 127
2, 398622, Note_off_c, 5, 65, 127
2, 398624, Note_on_c, 10, 69, 127
2, 398624, Note_on_c, 2, 74, 127
2, 398624, Note_on_c, 6, 66, 127
2, 398787, Note_off_c, 2, 74, 127
2, 398789, Note_on_c, 0, 72, 127
2, 398950, Note_off_c, 10, 69, 127
2, 398952, Note_off_c, 0, 72, 127
2, 398952, Note_off_c, 6, 66, 127
2, 398954, Note_on_c, 12, 71, 127
2, 398954, Note_on_c, 7, 67, 127
2, 399119, Note_on_c, 0, 72, 127
2, 399282, Note_off_c, 0, 72, 127
2, 399284, Note_on_c, 2, 74, 127
2, 399435, Note_off_c, 12, 71, 127
2, 399447, Note_off_c, 7, 67, 127
2, 399449, Note_on_c, 12, 71, 127
2, 399449, Note_on_c, 5, 65, 127
2, 399610, Note_off_c, 2, 74, 127
2, 399612, Note_off_c, 5, 65, 127
2, 399612, Note_off_c, 12, 71, 127
2, 399614, Note_on_c, 4, 76, 127
2, 399614, Note_on_c, 0, 72, 127
2, 399614, Note_on_c, 4, 64, 127
2, 399777, Note_off_c, 4, 76, 127
2, 399779, Note_on_c, 5, 77, 127
2, 399942, Note_off_c, 5, 77, 127
2, 399944, Note_on_c, 7, 79, 127
2, 400095, Note_off_c, 0, 72, 127
2, 400107, Note_off_c, 4, 64, 127
2, 400109, Note_on_c, 4, 76, 127
2, 400109, Note_on_c, 2, 62, 127
2, 400270, Note_off_c, 7, 79, 127
2, 400272, Note_off_c, 2, 62, 127
2, 400272, Note_off_c, 4, 76, 127
2, 400274, Note_on_c, 6, 78, 127
2, 400274, Note_on_c, 0, 60, 127
2, 400439, Note_on_c, 10, 81, 127
2, 400600, Note_off_c, 6, 78, 127
2, 400602, Note_off_c, 0, 60, 127
2, 400604, Note_on_c, 7, 79, 127
2, 400604, Note_on_c, 12, 59, 127
2, 400765, Note_off_c, 10, 81, 127
2, 400768, Note_on_c, 12, 83, 127
2, 400931, Note_off_c, 12, 83, 127
2, 400931, Note_off_c, 12, 59, 127
2, 400933, Note_on_c, 0, 84, 127
2, 400933, Note_on_c, 10, 57, 127
2, 401084, Note_off_c, 7, 79, 127
2, 401098, Note_on_c, 6, 78, 127
2, 401259, Note_off_c, 0, 84, 127
2, 401261, Note_off_c, 6, 78, 127
2, 401261, Note_off_c, 10, 57, 127
2, 401263, Note_on_c, 7, 79, 127
2, 401263, Note_on_c, 12, 83, 127
2, 401263, Note_on_c, 7, 55, 127
2, 401426, Note_off_c, 7, 79, 127
2, 401428, Note_on_c, 4, 76, 127
2, 401589, Note_off_c, 12, 83, 127
2, 401591, Note_off_c, 4, 76, 127
2, 401591, Note_off_c, 7, 55, 127
2, 401593, Note_on_c, 10, 81, 127
2, 401593, Note_on_c, 6, 78, 127
2, 401593, Note_on_c, 2, 62, 127
2, 401756, Note_off_c, 10, 81, 127
2, 401758, Note_on_c, 0, 84, 127
2, 401921, Note_off_c, 0, 84, 127
2, 401921, Note_off_c, 2, 62, 127
2, 401923, Note_on_c, 12, 83, 127
2, 401923, Note_on_c, 2, 50, 127
2, 402086, Note_off_c, 12, 83, 127
2, 402088, Note_on_c, 10, 81, 127
2, 402246, Note_off_c, 6, 78, 127
2, 402251, Note_off_c, 10, 81, 127
2, 402251, Note_off_c, 2, 50, 127
2, 402253, Note_on_c, 7, 79, 127
2, 402253, Note_on_c, 4, 52, 127
2, 402418, Note_on_c, 10, 81, 127
2, 402581, Note_off_c, 10, 81, 127
2, 402581, Note_off_c, 4, 52, 127
2, 402583, Note_on_c, 12, 83, 127
2, 402583, Note_on_c, 2, 50, 127
2, 402746, Note_off_c, 12, 83, 127
2, 402748, Note_on_c, 0, 84, 127
2, 402911, Note_off_c, 0, 84, 127
2, 402911, Note_off_c, 2, 50, 127
2, 402913, Note_on_c, 10, 81, 127
2, 402913, Note_on_c, 0, 48, 127
2, 403078, Note_off_c, 7, 79, 127
2, 403078, Note_on_c, 7, 79, 127
2, 403241, Note_off_c, 7, 79, 127
2, 403241, Note_off_c, 0, 48, 127
2, 403243, Note_on_c, 6, 78, 127
2, 403243, Note_on_c, 10, 45, 127
2, 403394, Note_off_c, 10, 81, 127
2, 403406, Note_off_c, 6, 78, 127
2, 403408, Note_on_c, 7, 79, 127
2, 403408, Note_on_c, 4, 76, 127
2, 403571, Note_off_c, 4, 76, 127
2, 403571, Note_off_c, 7, 79, 127
2, 403571, Note_off_c, 10, 45, 127
2, 403573, Note_on_c, 2, 74, 127
2, 403573, Note_on_c, 6, 78, 127
2, 403573, Note_on_c, 2, 50, 127
2, 403736, Note_off_c, 2, 74, 127
2, 403738, Note_on_c, 4, 76, 127
2, 403901, Note_off_c, 4, 76, 127
2, 403901, Note_off_c, 2, 50, 127
2, 403903, Note_on_c, 2, 74, 127
2, 403903, Note_on_c, 2, 38, 127
2, 404066, Note_off_c, 2, 74, 127
2, 404068, Note_on_c, 0, 72, 127
2, 404226, Note_off_c, 6, 78, 127
2, 404231, Note_off_c, 0, 72, 127
2, 404231, Note_off_c, 2, 38, 127
2, 404233, Note_on_c, 12, 71, 127
2, 404233, Note_on_c, 7, 79, 127
2, 404233, Note_on_c, 7, 43, 127
2, 404396, Note_off_c, 7, 79, 127
2, 404398, Note_on_c, 10, 81, 127
2, 404561, Note_off_c, 10, 81, 127
2, 404563, Note_on_c, 12, 83, 127
2, 404726, Note_off_c, 12, 83, 127
2, 404728, Note_on_c, 10, 81, 127
2, 404891, Note_off_c, 10, 81, 127
2, 404893, Note_on_c, 7, 79, 127
2, 405056, Note_off_c, 7, 79, 127
2, 405058, Note_on_c, 10, 81, 127
2, 405221, Note_off_c, 10, 81, 127
2, 405221, Note_off_c, 7, 43, 127
2, 405223, Note_on_c, 5, 77, 127
2, 405223, Note_on_c, 7, 55, 127
2, 405386, Note_off_c, 5, 77, 127
2, 405388, Note_on_c, 7, 79, 127
2, 405551, Note_off_c, 7, 79, 127
2, 405551, Note_off_c, 7, 55, 127
2, 405551, Note_off_c, 12, 71, 127
2, 405553, Note_on_c, 4, 76, 127
2, 405553, Note_on_c, 0, 72, 127
2, 405553, Note_on_c, 0, 60, 127
2, 405716, Note_off_c, 0, 60, 127
2, 405718, Note_on_c, 2, 62, 127
2, 405881, Note_off_c, 2, 62, 127
2, 405881, Note_off_c, 4, 76, 127
2, 405883, Note_on_c, 7, 79, 127
2, 405883, Note_on_c, 4, 64, 127
2, 406046, Note_off_c, 4, 64, 127
2, 406046, Note_off_c, 7, 79, 127
2, 406048, Note_on_c, 5, 77, 127
2, 406048, Note_on_c, 2, 62, 127
2, 406211, Note_off_c, 2, 62, 127
2, 406211, Note_off_c, 5, 77, 127
2, 406213, Note_on_c, 4, 76, 127
2, 406213, Note_on_c, 0, 60, 127
2, 406376, Note_off_c, 0, 60, 127
2, 406376, Note_off_c, 4, 76, 127
2, 406378, Note_on_c, 5, 77, 127
2, 406378, Note_on_c, 2, 62, 127
2, 406541, Note_off_c, 2, 62, 127
2, 406541, Note_off_c, 5, 77, 127
2, 406543, Note_on_c, 2, 74, 127
2, 406543, Note_on_c, 12, 59, 127
2, 406706, Note_off_c, 12, 59, 127
2, 406706, Note_off_c, 2, 74, 127
2, 406708, Note_on_c, 4, 76, 127
2, 406708, Note_on_c, 0, 60, 127
2, 406871, Note_off_c, 0, 60, 127
2, 406871, Note_off_c, 0, 72, 127
2, 406873, Note_on_c, 0, 72, 127
2, 406873, Note_on_c, 10, 57, 127
2, 407039, Note_off_c, 4, 76, 127
2, 407041, Note_off_c, 0, 72, 127
2, 407043, Note_on_c, 2, 74, 127
2, 407043, Note_on_c, 5, 77, 127
2, 407211, Note_off_c, 5, 77, 127
2, 407211, Note_off_c, 2, 74, 127
2, 407213, Note_on_c, 0, 72, 127
2, 407213, Note_on_c, 4, 76, 127
2, 407381, Note_off_c, 10, 57, 127
2, 407383, Note_on_c, 12, 59, 127
2, 407551, Note_off_c, 12, 59, 127
2, 407553, Note_on_c, 0, 60, 127
2, 407721, Note_off_c, 4, 76, 127
2, 407721, Note_off_c, 0, 72, 127
2, 407723, Note_on_c, 2, 74, 127
2, 407723, Note_on_c, 5, 77, 127
2, 407891, Note_off_c, 5, 77, 127
2, 407891, Note_off_c, 2, 74, 127
2, 407893, Note_on_c, 4, 76, 127
2, 407893, Note_on_c, 0, 72, 127
2, 408061, Note_off_c, 0, 60, 127
2, 408063, Note_on_c, 2, 62, 127
2, 408231, Note_off_c, 2, 62, 127
2, 408233, Note_on_c, 4, 64, 127
2, 408401, Note_off_c, 0, 72, 127
2, 408401, Note_off_c, 4, 76, 127
2, 408403, Note_on_c, 2, 74, 127
2, 408403, Note_on_c, 5, 77, 127
2, 408571, Note_off_c, 5, 77, 127
2, 408571, Note_off_c, 2, 74, 127
2, 408573, Note_on_c, 0, 72, 127
2, 408573, Note_on_c, 4, 76, 127
2, 408741, Note_off_c, 4, 64, 127
2, 408743, Note_on_c, 5, 65, 127
2, 408911, Note_off_c, 5, 65, 127
2, 408913, Note_on_c, 7, 67, 127
2, 409081, Note_off_c, 4, 76, 127
2, 409083, Note_on_c, 5, 77, 127
2, 409245, Note_off_c, 0, 72, 127
2, 409250, Note_off_c, 5, 77, 127
2, 409250, Note_off_c, 7, 67, 127
2, 409252, Note_on_c, 12, 71, 127
2, 409252, Note_on_c, 4, 76, 127
2, 409252, Note_on_c, 7, 55, 127
2, 409420, Note_off_c, 4, 76, 127
2, 409422, Note_on_c, 2, 74, 127
2, 409588, Note_off_c, 12, 71, 127
2, 409590, Note_off_c, 2, 74, 127
2, 409590, Note_off_c, 7, 55, 127
2, 409592, Note_on_c, 0, 72, 127
2, 409592, Note_on_c, 10, 57, 127
2, 409769, Note_on_c, 10, 69, 127
2, 409943, Note_off_c, 0, 72, 127
2, 409945, Note_off_c, 10, 69, 127
2, 409945, Note_off_c, 10, 57, 127
2, 409947, Note_on_c, 7, 67, 127
2, 409947, Note_on_c, 2, 74, 127
2, 409947, Note_on_c, 12, 59, 127
2, 410122, Note_off_c, 7, 67, 127
2, 410124, Note_on_c, 5, 65, 127
2, 410298, Note_off_c, 2, 74, 127
2, 410300, Note_off_c, 5, 65, 127
2, 410300, Note_off_c, 12, 59, 127
2, 410302, Note_on_c, 4, 64, 127
2, 410302, Note_on_c, 7, 67, 127
2, 410302, Note_on_c, 0, 60, 127
2, 410477, Note_off_c, 7, 67, 127
2, 410479, Note_on_c, 0, 72, 127
2, 410653, Note_off_c, 4, 64, 127
2, 410655, Note_off_c, 0, 72, 127
2, 410655, Note_off_c, 0, 60, 127
2, 410657, Note_on_c, 10, 69, 127
2, 410657, Note_on_c, 4, 52, 127
2, 410657, Note_on_c, 7, 55, 127
2, 410773, Note_off_c, 10, 69, 127
2, 410775, Note_on_c, 12, 71, 127
2, 410891, Note_off_c, 12, 71, 127
2, 410893, Note_on_c, 0, 72, 127
2, 411009, Note_off_c, 0, 72, 127
2, 411009, Note_off_c, 7, 55, 127
2, 411009, Note_off_c, 4, 52, 127
2, 411011, Note_on_c, 12, 71, 127
2, 411011, Note_on_c, 5, 53, 127
2, 411011, Note_on_c, 10, 57, 127
2, 411127, Note_off_c, 12, 71, 127
2, 411129, Note_on_c, 0, 72, 127
2, 411245, Note_off_c, 0, 72, 127
2, 411247, Note_on_c, 2, 74, 127
2, 411363, Note_off_c, 2, 74, 127
2, 411363, Note_off_c, 10, 57, 127
2, 411363, Note_off_c, 5, 53, 127
2, 411365, Note_on_c, 0, 72, 127
2, 411365, Note_on_c, 12, 59, 127
2, 411365, Note_on_c, 7, 55, 127
2, 411481, Note_off_c, 0, 72, 127
2, 411483, Note_on_c, 2, 74, 127
2, 411599, Note_off_c, 2, 74, 127
2, 411601, Note_on_c, 4, 76, 127
2, 411717, Note_off_c, 4, 76, 127
2, 411717, Note_off_c, 7, 55, 127
2, 411717, Note_off_c, 12, 59, 127
2, 411719, Note_on_c, 2, 74, 127
2, 411719, Note_on_c, 0, 60, 127
2, 411719, Note_on_c, 10, 57, 127
2, 411835, Note_off_c, 2, 74, 127
2, 411837, Note_on_c, 4, 76, 127
2, 411953, Note_off_c, 4, 76, 127
2, 411955, Note_on_c, 5, 77, 127
2, 412071, Note_off_c, 5, 77, 127
2, 412071, Note_off_c, 10, 57, 127
2, 412071, Note_off_c, 0, 60, 127
2, 412073, Note_on_c, 4, 76, 127
2, 412073, Note_on_c, 12, 59, 127
2, 412073, Note_on_c, 2, 62, 127
2, 412189, Note_off_c, 4, 76, 127
2, 412191, Note_on_c, 5, 77, 127
2, 412307, Note_off_c, 5, 77, 127
2, 412309, Note_on_c, 7, 79, 127
2, 412425, Note_off_c, 7, 79, 127
2, 412425, Note_off_c, 2, 62, 127
2, 412425, Note_off_c, 12, 59, 127
2, 412427, Note_on_c, 5, 77, 127
2, 412427, Note_on_c, 0, 60, 127
2, 412427, Note_on_c, 4, 64, 127
2, 412543, Note_off_c, 5, 77, 127
2, 412545, Note_on_c, 7, 79, 127
2, 412661, Note_off_c, 7, 79, 127
2, 412663, Note_on_c, 10, 81, 127
2, 412779, Note_off_c, 10, 81, 127
2, 412779, Note_off_c, 4, 64, 127
2, 412779, Note_off_c, 0, 60, 127
2, 412781, Note_on_c, 7, 79, 127
2, 412781, Note_on_c, 2, 62, 127
2, 412781, Note_on_c, 5, 65, 127
2, 412897, Note_off_c, 7, 79, 127
2, 412899, Note_on_c, 10, 81, 127
2, 413015, Note_off_c, 10, 81, 127
2, 413017, Note_on_c, 5, 77, 127
2, 413133, Note_off_c, 5, 77, 127
2, 413133, Note_off_c, 5, 65, 127
2, 413133, Note_off_c, 2, 62, 127
2, 413135, Note_on_c, 4, 76, 127
2, 413135, Note_on_c, 0, 60, 127
2, 413312, Note_on_c, 0, 72, 127
2, 413312, Note_on_c, 10, 57, 127
2, 413487, Note_off_c, 10, 57, 127
2, 413487, Note_off_c, 0, 72, 127
2, 413489, Note_on_c, 12, 71, 127
2, 413489, Note_on_c, 7, 55, 127
2, 413664, Note_off_c, 7, 55, 127
2, 413664, Note_off_c, 12, 71, 127
2, 413666, Note_on_c, 10, 69, 127
2, 413666, Note_on_c, 5, 53, 127
2, 413841, Note_off_c, 5, 53, 127
2, 413841, Note_off_c, 10, 69, 127
2, 413843, Note_on_c, 7, 67, 127
2, 413843, Note_on_c, 4, 52, 127
2, 414020, Note_off_c, 4, 76, 127
2, 414020, Note_on_c, 4, 76, 127
2, 414194, Note_off_c, 7, 67, 127
2, 414196, Note_off_c, 4, 76, 127
2, 414196, Note_off_c, 4, 52, 127
2, 414196, Note_off_c, 0, 60, 127
2, 414198, Note_on_c, 10, 69, 127
2, 414198, Note_on_c, 2, 74, 127
2, 414198, Note_on_c, 5, 65, 127
2, 414198, Note_on_c, 5, 53, 127
2, 414373, Note_off_c, 5, 65, 127
2, 414373, Note_off_c, 2, 74, 127
2, 414375, Note_on_c, 0, 72, 127
2, 414375, Note_on_c, 4, 64, 127
2, 414549, Note_off_c, 5, 53, 127
2, 414549, Note_off_c, 10, 69, 127
2, 414551, Note_off_c, 4, 64, 127
2, 414551, Note_off_c, 0, 72, 127
2, 414553, Note_on_c, 12, 71, 127
2, 414553, Note_on_c, 7, 55, 127
2, 414553, Note_on_c, 2, 62, 127
2, 414730, Note_on_c, 10, 69, 127
2, 414905, Note_off_c, 10, 69, 127
2, 414905, Note_off_c, 7, 55, 127
2, 414907, Note_on_c, 7, 67, 127
2, 414907, Note_on_c, 7, 43, 127
2, 415082, Note_off_c, 7, 67, 127
2, 415084, Note_on_c, 5, 65, 127
2, 415254, Note_off_c, 2, 62, 127
2, 415254, Note_off_c, 12, 71, 127
2, 415260, Note_off_c, 5, 65, 127
2, 415260, Note_off_c, 7, 43, 127
2, 415278, Note_on_c, 0, 48, 127
2, 415278, Note_on_c, 4, 64, 127
2, 415470, Note_on_c, 7, 67, 127
2, 415660, Note_off_c, 7, 67, 127
2, 415662, Note_on_c, 10, 69, 127
2, 415852, Note_off_c, 10, 69, 127
2, 415854, Note_on_c, 12, 71, 127
2, 416044, Note_off_c, 12, 71, 127
2, 416046, Note_on_c, 0, 72, 127
2, 416245, Note_on_c, 4, 40, 127
2, 416274, Note_off_c, 0, 48, 127
2, 416469, Note_off_c, 4, 40, 127
2, 416478, Note_off_c, 0, 72, 127
2, 416478, Note_off_c, 4, 64, 127
2, 416498, Note_on_c, 5, 41, 127
2, 416498, Note_on_c, 7, 67, 127
2, 416498, Note_on_c, 2, 62, 127
2, 416498, Note_on_c, 12, 71, 127
2, 416722, Note_off_c, 5, 41, 127
2, 416767, Note_on_c, 7, 43, 127
2, 416959, Note_off_c, 12, 71, 127
2, 416959, Note_off_c, 2, 62, 127
2, 416959, Note_off_c, 7, 67, 127
2, 417009, Note_off_c, 7, 43, 127
2, 417038, Note_on_c, 7, 67, 127
2, 417038, Note_on_c, 0, 72, 127
2, 417038, Note_on_c, 4, 64, 127
2, 417038, Note_on_c, 0, 36, 127
2, 418772, Note_off_c, 0, 36, 127
2, 418772, Note_off_c, 4, 64, 127
2, 418772, Note_off_c, 0, 72, 127
2, 418772, Note_off_c, 7, 67, 127
2, 423936, End_track
3, 0, Start_track
3, 0, Title_t, "MIDI"
3, 1536, End_track
0, 0, End_of_file
