0, 0, Header, 0, 1, 384
1, 0, Start_track
1, 0, Copyright_t, "(C) John Sankey 1998"
1, 0, Program_c, 0, 6
1, 0, Pitch_bend_c, 0, 8192
1, 0, Program_c, 1, 6
1, 0, Pitch_bend_c, 1, 7792
1, 0, Program_c, 2, 6
1, 0, Pitch_bend_c, 2, 7876
1, 0, Program_c, 3, 6
1, 0, Pitch_bend_c, 3, 7952
1, 0, Program_c, 4, 6
1, 0, Pitch_bend_c, 4, 7792
1, 0, Program_c, 5, 6
1, 0, Pitch_bend_c, 5, 8112
1, 0, Program_c, 6, 6
1, 0, Pitch_bend_c, 6, 7712
1, 0, Program_c, 7, 6
1, 0, Pitch_bend_c, 7, 8037
1, 0, Program_c, 8, 6
1, 0, Pitch_bend_c, 8, 7872
1, 0, Program_c, 10, 6
1, 0, Pitch_bend_c, 10, 7712
1, 0, Program_c, 11, 6
1, 0, Pitch_bend_c, 11, 8032
1, 0, Program_c, 12, 6
1, 0, Pitch_bend_c, 12, 7872
1, 0, Tempo, 500000
1, 48, Note_on_c, 7, 43, 127
1, 48, Note_on_c, 7, 55, 127
1, 319, Note_on_c, 7, 67, 127
1, 319, Note_on_c, 11, 58, 127
1, 589, Note_off_c, 11, 58, 127
1, 589, Note_off_c, 7, 67, 127
1, 590, Note_on_c, 10, 69, 127
1, 590, Note_on_c, 0, 60, 127
1, 860, Note_off_c, 0, 60, 127
1, 860, Note_off_c, 10, 69, 127
1, 860, Note_off_c, 7, 55, 127
1, 860, Note_off_c, 7, 43, 127
1, 861, Note_on_c, 7, 55, 127
1, 861, Note_on_c, 11, 70, 127
1, 861, Note_on_c, 2, 62, 127
1, 1131, Note_off_c, 11, 70, 127
1, 1131, Note_off_c, 7, 55, 127
1, 1132, Note_on_c, 10, 57, 127
1, 1132, Note_on_c, 10, 69, 127
1, 1402, Note_off_c, 10, 69, 127
1, 1402, Note_off_c, 10, 57, 127
1, 1403, Note_on_c, 11, 58, 127
1, 1403, Note_on_c, 7, 67, 127
1, 1673, Note_off_c, 7, 67, 127
1, 1673, Note_off_c, 11, 58, 127
1, 1673, Note_off_c, 2, 62, 127
1, 1674, Note_on_c, 6, 54, 127
1, 1674, Note_on_c, 10, 57, 127
1, 1674, Note_on_c, 2, 62, 127
1, 1674, Note_on_c, 2, 74, 127
1, 1944, Note_off_c, 2, 74, 127
1, 1945, Note_on_c, 10, 69, 127
1, 2215, Note_off_c, 10, 69, 127
1, 2216, Note_on_c, 2, 74, 127
1, 2486, Note_off_c, 2, 74, 127
1, 2486, Note_off_c, 2, 62, 127
1, 2486, Note_off_c, 10, 57, 127
1, 2486, Note_off_c, 6, 54, 127
1, 2487, Note_on_c, 6, 54, 127
1, 2487, Note_on_c, 2, 50, 127
1, 2487, Note_on_c, 10, 57, 127
1, 2487, Note_on_c, 2, 74, 127
1, 2757, Note_off_c, 2, 74, 127
1, 2758, Note_on_c, 6, 66, 127
1, 3028, Note_off_c, 6, 66, 127
1, 3029, Note_on_c, 2, 74, 127
1, 3299, Note_off_c, 2, 74, 127
1, 3299, Note_off_c, 10, 57, 127
1, 3299, Note_off_c, 2, 50, 127
1, 3299, Note_off_c, 6, 54, 127
1, 3300, Note_on_c, 7, 43, 127
1, 3300, Note_on_c, 7, 55, 127
1, 3300, Note_on_c, 11, 70, 127
1, 3570, Note_off_c, 11, 70, 127
1, 3571, Note_on_c, 7, 67, 127
1, 3571, Note_on_c, 11, 58, 127
1, 3841, Note_off_c, 11, 58, 127
1, 3841, Note_off_c, 7, 67, 127
1, 3842, Note_on_c, 10, 69, 127
1, 3842, Note_on_c, 0, 60, 127
1, 4112, Note_off_c, 0, 60, 127
1, 4112, Note_off_c, 10, 69, 127
1, 4112, Note_off_c, 7, 55, 127
1, 4112, Note_off_c, 7, 43, 127
1, 4113, Note_on_c, 7, 55, 127
1, 4113, Note_on_c, 2, 62, 127
1, 4113, Note_on_c, 11, 70, 127
1, 4383, Note_off_c, 11, 70, 127
1, 4383, Note_off_c, 7, 55, 127
1, 4384, Note_on_c, 10, 57, 127
1, 4384, Note_on_c, 10, 69, 127
1, 4654, Note_off_c, 10, 69, 127
1, 4654, Note_off_c, 10, 57, 127
1, 4655, Note_on_c, 11, 58, 127
1, 4655, Note_on_c, 7, 67, 127
1, 4925, Note_off_c, 7, 67, 127
1, 4925, Note_off_c, 11, 58, 127
1, 4925, Note_off_c, 2, 62, 127
1, 4926, Note_on_c, 10, 57, 127
1, 4926, Note_on_c, 6, 54, 127
1, 4926, Note_on_c, 2, 74, 127
1, 5196, Note_off_c, 6, 54, 127
1, 5196, Note_off_c, 10, 57, 127
1, 5197, Note_on_c, 6, 54, 127
1, 5197, Note_on_c, 2, 50, 127
1, 5467, Note_off_c, 2, 50, 127
1, 5467, Note_off_c, 6, 54, 127
1, 5467, Note_off_c, 2, 74, 127
1, 5468, Note_on_c, 7, 55, 127
1, 5468, Note_on_c, 4, 52, 127
1, 5468, Note_on_c, 2, 62, 127
1, 5736, Note_off_c, 2, 62, 127
1, 5737, Note_off_c, 4, 52, 127
1, 5737, Note_off_c, 7, 55, 127
1, 5738, Note_on_c, 6, 54, 127
1, 5738, Note_on_c, 10, 57, 127
1, 6008, Note_off_c, 10, 57, 127
1, 6008, Note_off_c, 6, 54, 127
1, 6009, Note_on_c, 7, 55, 127
1, 6009, Note_on_c, 4, 52, 127
1, 6009, Note_on_c, 2, 74, 127
1, 6279, Note_off_c, 2, 74, 127
1, 6279, Note_off_c, 4, 52, 127
1, 6279, Note_off_c, 7, 55, 127
1, 6280, Note_on_c, 6, 54, 127
1, 6280, Note_on_c, 2, 50, 127
1, 6280, Note_on_c, 2, 74, 127
1, 6550, Note_off_c, 2, 74, 127
1, 6550, Note_off_c, 2, 50, 127
1, 6550, Note_off_c, 6, 54, 127
1, 6551, Note_on_c, 3, 51, 127
1, 6551, Note_on_c, 7, 79, 127
1, 6685, Note_off_c, 3, 51, 127
1, 6686, Note_on_c, 7, 55, 127
1, 6820, Note_off_c, 7, 55, 127
1, 6820, Note_off_c, 7, 79, 127
1, 6821, Note_on_c, 0, 60, 127
1, 6821, Note_on_c, 0, 72, 127
1, 6955, Note_off_c, 0, 60, 127
1, 6956, Note_on_c, 11, 58, 127
1, 7090, Note_off_c, 11, 58, 127
1, 7090, Note_off_c, 0, 72, 127
1, 7091, Note_on_c, 0, 60, 127
1, 7091, Note_on_c, 0, 72, 127
1, 7225, Note_off_c, 0, 60, 127
1, 7226, Note_on_c, 3, 51, 127
1, 7360, Note_off_c, 3, 51, 127
1, 7360, Note_off_c, 0, 72, 127
1, 7361, Note_on_c, 2, 50, 127
1, 7361, Note_on_c, 5, 77, 127
1, 7495, Note_off_c, 2, 50, 127
1, 7496, Note_on_c, 5, 53, 127
1, 7630, Note_off_c, 5, 53, 127
1, 7630, Note_off_c, 5, 77, 127
1, 7631, Note_on_c, 11, 58, 127
1, 7631, Note_on_c, 11, 70, 127
1, 7765, Note_off_c, 11, 58, 127
1, 7766, Note_on_c, 10, 57, 127
1, 7900, Note_off_c, 10, 57, 127
1, 7900, Note_off_c, 11, 70, 127
1, 7901, Note_on_c, 11, 58, 127
1, 7901, Note_on_c, 11, 70, 127
1, 8035, Note_off_c, 11, 58, 127
1, 8036, Note_on_c, 2, 50, 127
1, 8170, Note_off_c, 2, 50, 127
1, 8170, Note_off_c, 11, 70, 127
1, 8171, Note_on_c, 0, 48, 127
1, 8171, Note_on_c, 3, 75, 127
1, 8305, Note_off_c, 0, 48, 127
1, 8306, Note_on_c, 3, 51, 127
1, 8440, Note_off_c, 3, 51, 127
1, 8440, Note_off_c, 3, 75, 127
1, 8441, Note_on_c, 10, 57, 127
1, 8441, Note_on_c, 0, 72, 127
1, 8575, Note_off_c, 10, 57, 127
1, 8576, Note_on_c, 7, 55, 127
1, 8710, Note_off_c, 7, 55, 127
1, 8710, Note_off_c, 0, 72, 127
1, 8711, Note_on_c, 10, 57, 127
1, 8711, Note_on_c, 2, 74, 127
1, 8845, Note_off_c, 10, 57, 127
1, 8846, Note_on_c, 0, 48, 127
1, 8980, Note_off_c, 0, 48, 127
1, 8980, Note_off_c, 2, 74, 127
1, 8981, Note_on_c, 11, 46, 127
1, 8981, Note_on_c, 3, 75, 127
1, 9115, Note_off_c, 11, 46, 127
1, 9116, Note_on_c, 2, 50, 127
1, 9250, Note_off_c, 2, 50, 127
1, 9250, Note_off_c, 3, 75, 127
1, 9251, Note_on_c, 7, 55, 127
1, 9251, Note_on_c, 0, 72, 127
1, 9385, Note_off_c, 7, 55, 127
1, 9386, Note_on_c, 5, 53, 127
1, 9520, Note_off_c, 5, 53, 127
1, 9520, Note_off_c, 0, 72, 127
1, 9521, Note_on_c, 7, 55, 127
1, 9521, Note_on_c, 2, 74, 127
1, 9655, Note_off_c, 7, 55, 127
1, 9656, Note_on_c, 11, 46, 127
1, 9790, Note_off_c, 11, 46, 127
1, 9790, Note_off_c, 2, 74, 127
1, 9791, Note_on_c, 10, 45, 127
1, 9791, Note_on_c, 3, 75, 127
1, 9925, Note_off_c, 10, 45, 127
1, 9926, Note_on_c, 0, 48, 127
1, 10060, Note_off_c, 0, 48, 127
1, 10060, Note_off_c, 3, 75, 127
1, 10061, Note_on_c, 5, 53, 127
1, 10061, Note_on_c, 0, 72, 127
1, 10195, Note_off_c, 5, 53, 127
1, 10196, Note_on_c, 3, 51, 127
1, 10330, Note_off_c, 3, 51, 127
1, 10330, Note_off_c, 0, 72, 127
1, 10331, Note_on_c, 5, 53, 127
1, 10331, Note_on_c, 2, 74, 127
1, 10465, Note_off_c, 5, 53, 127
1, 10466, Note_on_c, 10, 45, 127
1, 10600, Note_off_c, 10, 45, 127
1, 10600, Note_off_c, 2, 74, 127
1, 10601, Note_on_c, 7, 43, 127
1, 10601, Note_on_c, 3, 75, 127
1, 10735, Note_off_c, 7, 43, 127
1, 10736, Note_on_c, 11, 46, 127
1, 10870, Note_off_c, 11, 46, 127
1, 10870, Note_off_c, 3, 75, 127
1, 10871, Note_on_c, 3, 51, 127
1, 10871, Note_on_c, 0, 72, 127
1, 11005, Note_off_c, 3, 51, 127
1, 11006, Note_on_c, 2, 50, 127
1, 11140, Note_off_c, 2, 50, 127
1, 11140, Note_off_c, 0, 72, 127
1, 11141, Note_on_c, 3, 51, 127
1, 11141, Note_on_c, 2, 74, 127
1, 11275, Note_off_c, 3, 51, 127
1, 11276, Note_on_c, 7, 43, 127
1, 11410, Note_off_c, 7, 43, 127
1, 11410, Note_off_c, 2, 74, 127
1, 11411, Note_on_c, 5, 41, 127
1, 11411, Note_on_c, 3, 75, 127
1, 11681, Note_off_c, 5, 41, 127
1, 11682, Note_on_c, 5, 53, 127
1, 11682, Note_on_c, 5, 65, 127
1, 11682, Note_on_c, 10, 69, 127
1, 11952, Note_off_c, 10, 69, 127
1, 11952, Note_off_c, 5, 53, 127
1, 11953, Note_on_c, 7, 55, 127
1, 11953, Note_on_c, 11, 70, 127
1, 12223, Note_off_c, 11, 70, 127
1, 12223, Note_off_c, 7, 55, 127
1, 12224, Note_on_c, 10, 57, 127
1, 12224, Note_on_c, 0, 72, 127
1, 12494, Note_off_c, 0, 72, 127
1, 12494, Note_off_c, 3, 75, 127
1, 12495, Note_on_c, 11, 70, 127
1, 12495, Note_on_c, 2, 74, 127
1, 12765, Note_off_c, 2, 74, 127
1, 12765, Note_off_c, 11, 70, 127
1, 12765, Note_off_c, 10, 57, 127
1, 12766, Note_on_c, 5, 53, 127
1, 12766, Note_on_c, 0, 72, 127
1, 12766, Note_on_c, 10, 69, 127
1, 13036, Note_off_c, 10, 69, 127
1, 13036, Note_off_c, 0, 72, 127
1, 13036, Note_off_c, 5, 53, 127
1, 13037, Note_on_c, 11, 58, 127
1, 13037, Note_on_c, 11, 70, 127
1, 13037, Note_on_c, 2, 74, 127
1, 13305, Note_off_c, 5, 65, 127
1, 13306, Note_off_c, 2, 74, 127
1, 13306, Note_off_c, 11, 70, 127
1, 13307, Note_on_c, 3, 63, 127
1, 13307, Note_on_c, 0, 72, 127
1, 13307, Note_on_c, 10, 69, 127
1, 13572, Note_off_c, 11, 58, 127
1, 13576, Note_off_c, 10, 69, 127
1, 13576, Note_off_c, 0, 72, 127
1, 13576, Note_off_c, 3, 63, 127
1, 13577, Note_on_c, 7, 55, 127
1, 13577, Note_on_c, 2, 62, 127
1, 13577, Note_on_c, 7, 67, 127
1, 13577, Note_on_c, 11, 70, 127
1, 13847, Note_off_c, 11, 70, 127
1, 13847, Note_off_c, 7, 67, 127
1, 13847, Note_off_c, 2, 62, 127
1, 13847, Note_off_c, 7, 55, 127
1, 13848, Note_on_c, 5, 53, 127
1, 13848, Note_on_c, 0, 60, 127
1, 13848, Note_on_c, 5, 65, 127
1, 14119, Note_on_c, 11, 70, 127
1, 14384, Note_off_c, 5, 65, 127
1, 14388, Note_off_c, 11, 70, 127
1, 14388, Note_off_c, 0, 60, 127
1, 14388, Note_off_c, 5, 53, 127
1, 14389, Note_on_c, 5, 53, 127
1, 14389, Note_on_c, 5, 41, 127
1, 14389, Note_on_c, 10, 69, 127
1, 14389, Note_on_c, 3, 63, 127
1, 14659, Note_off_c, 3, 63, 127
1, 14659, Note_off_c, 10, 69, 127
1, 14659, Note_off_c, 5, 41, 127
1, 14659, Note_off_c, 5, 53, 127
1, 14660, Note_on_c, 11, 46, 127
1, 14660, Note_on_c, 11, 70, 127
1, 14660, Note_on_c, 2, 62, 127
1, 14930, Note_off_c, 2, 62, 127
1, 14930, Note_off_c, 11, 46, 127
1, 14931, Note_on_c, 11, 58, 127
1, 14931, Note_on_c, 2, 62, 127
1, 15196, Note_off_c, 11, 70, 127
1, 15200, Note_off_c, 2, 62, 127
1, 15200, Note_off_c, 11, 58, 127
1, 15201, Note_on_c, 0, 60, 127
1, 15201, Note_on_c, 3, 63, 127
1, 15471, Note_off_c, 3, 63, 127
1, 15471, Note_off_c, 0, 60, 127
1, 15472, Note_on_c, 2, 62, 127
1, 15472, Note_on_c, 5, 65, 127
1, 15742, Note_off_c, 5, 65, 127
1, 15742, Note_off_c, 2, 62, 127
1, 15743, Note_on_c, 0, 60, 127
1, 15743, Note_on_c, 3, 63, 127
1, 15743, Note_on_c, 2, 74, 127
1, 16013, Note_off_c, 2, 74, 127
1, 16013, Note_off_c, 3, 63, 127
1, 16013, Note_off_c, 0, 60, 127
1, 16014, Note_on_c, 11, 58, 127
1, 16014, Note_on_c, 2, 62, 127
1, 16014, Note_on_c, 2, 74, 127
1, 16284, Note_off_c, 2, 74, 127
1, 16284, Note_off_c, 2, 62, 127
1, 16284, Note_off_c, 11, 58, 127
1, 16285, Note_on_c, 3, 51, 127
1, 16285, Note_on_c, 7, 79, 127
1, 16419, Note_off_c, 3, 51, 127
1, 16420, Note_on_c, 7, 55, 127
1, 16554, Note_off_c, 7, 55, 127
1, 16554, Note_off_c, 7, 79, 127
1, 16555, Note_on_c, 0, 60, 127
1, 16555, Note_on_c, 0, 72, 127
1, 16689, Note_off_c, 0, 60, 127
1, 16690, Note_on_c, 11, 58, 127
1, 16824, Note_off_c, 11, 58, 127
1, 16824, Note_off_c, 0, 72, 127
1, 16825, Note_on_c, 0, 60, 127
1, 16825, Note_on_c, 0, 72, 127
1, 16959, Note_off_c, 0, 60, 127
1, 16960, Note_on_c, 3, 51, 127
1, 17094, Note_off_c, 3, 51, 127
1, 17094, Note_off_c, 0, 72, 127
1, 17095, Note_on_c, 2, 50, 127
1, 17095, Note_on_c, 5, 77, 127
1, 17229, Note_off_c, 2, 50, 127
1, 17230, Note_on_c, 5, 53, 127
1, 17364, Note_off_c, 5, 53, 127
1, 17364, Note_off_c, 5, 77, 127
1, 17365, Note_on_c, 11, 58, 127
1, 17365, Note_on_c, 11, 70, 127
1, 17499, Note_off_c, 11, 58, 127
1, 17500, Note_on_c, 10, 57, 127
1, 17634, Note_off_c, 10, 57, 127
1, 17634, Note_off_c, 11, 70, 127
1, 17635, Note_on_c, 11, 58, 127
1, 17635, Note_on_c, 11, 70, 127
1, 17769, Note_off_c, 11, 58, 127
1, 17770, Note_on_c, 2, 50, 127
1, 17904, Note_off_c, 2, 50, 127
1, 17904, Note_off_c, 11, 70, 127
1, 17905, Note_on_c, 0, 48, 127
1, 17905, Note_on_c, 3, 75, 127
1, 18039, Note_off_c, 0, 48, 127
1, 18040, Note_on_c, 3, 51, 127
1, 18174, Note_off_c, 3, 51, 127
1, 18174, Note_off_c, 3, 75, 127
1, 18175, Note_on_c, 10, 57, 127
1, 18175, Note_on_c, 10, 69, 127
1, 18309, Note_off_c, 10, 57, 127
1, 18310, Note_on_c, 7, 55, 127
1, 18444, Note_off_c, 7, 55, 127
1, 18444, Note_off_c, 10, 69, 127
1, 18445, Note_on_c, 10, 57, 127
1, 18445, Note_on_c, 10, 69, 127
1, 18579, Note_off_c, 10, 57, 127
1, 18580, Note_on_c, 0, 48, 127
1, 18714, Note_off_c, 0, 48, 127
1, 18714, Note_off_c, 10, 69, 127
1, 18715, Note_on_c, 11, 46, 127
1, 18715, Note_on_c, 2, 74, 127
1, 18849, Note_off_c, 11, 46, 127
1, 18850, Note_on_c, 2, 50, 127
1, 18984, Note_off_c, 2, 50, 127
1, 18984, Note_off_c, 2, 74, 127
1, 18985, Note_on_c, 7, 55, 127
1, 18985, Note_on_c, 7, 67, 127
1, 19119, Note_off_c, 7, 55, 127
1, 19120, Note_on_c, 6, 54, 127
1, 19254, Note_off_c, 6, 54, 127
1, 19254, Note_off_c, 7, 67, 127
1, 19255, Note_on_c, 7, 55, 127
1, 19255, Note_on_c, 7, 67, 127
1, 19389, Note_off_c, 7, 55, 127
1, 19390, Note_on_c, 11, 46, 127
1, 19524, Note_off_c, 11, 46, 127
1, 19524, Note_off_c, 7, 67, 127
1, 19525, Note_on_c, 10, 45, 127
1, 19525, Note_on_c, 0, 72, 127
1, 19659, Note_off_c, 10, 45, 127
1, 19660, Note_on_c, 0, 48, 127
1, 19794, Note_off_c, 0, 48, 127
1, 19794, Note_off_c, 0, 72, 127
1, 19795, Note_on_c, 6, 54, 127
1, 19795, Note_on_c, 10, 69, 127
1, 19929, Note_off_c, 6, 54, 127
1, 19930, Note_on_c, 4, 52, 127
1, 20064, Note_off_c, 4, 52, 127
1, 20064, Note_off_c, 10, 69, 127
1, 20065, Note_on_c, 6, 54, 127
1, 20065, Note_on_c, 11, 70, 127
1, 20199, Note_off_c, 6, 54, 127
1, 20200, Note_on_c, 10, 45, 127
1, 20334, Note_off_c, 10, 45, 127
1, 20334, Note_off_c, 11, 70, 127
1, 20335, Note_on_c, 7, 43, 127
1, 20335, Note_on_c, 0, 72, 127
1, 20469, Note_off_c, 7, 43, 127
1, 20470, Note_on_c, 11, 46, 127
1, 20604, Note_off_c, 11, 46, 127
1, 20604, Note_off_c, 0, 72, 127
1, 20605, Note_on_c, 3, 51, 127
1, 20605, Note_on_c, 10, 69, 127
1, 20739, Note_off_c, 3, 51, 127
1, 20740, Note_on_c, 2, 50, 127
1, 20874, Note_off_c, 2, 50, 127
1, 20874, Note_off_c, 10, 69, 127
1, 20875, Note_on_c, 3, 51, 127
1, 20875, Note_on_c, 11, 70, 127
1, 21009, Note_off_c, 3, 51, 127
1, 21010, Note_on_c, 7, 43, 127
1, 21144, Note_off_c, 7, 43, 127
1, 21144, Note_off_c, 11, 70, 127
1, 21145, Note_on_c, 6, 42, 127
1, 21145, Note_on_c, 0, 72, 127
1, 21279, Note_off_c, 6, 42, 127
1, 21280, Note_on_c, 10, 45, 127
1, 21414, Note_off_c, 10, 45, 127
1, 21415, Note_on_c, 2, 50, 127
1, 21415, Note_on_c, 10, 69, 127
1, 21483, Note_off_c, 0, 72, 127
1, 21549, Note_off_c, 2, 50, 127
1, 21550, Note_on_c, 0, 48, 127
1, 21684, Note_off_c, 0, 48, 127
1, 21684, Note_off_c, 10, 69, 127
1, 21685, Note_on_c, 2, 50, 127
1, 21685, Note_on_c, 11, 70, 127
1, 21819, Note_off_c, 2, 50, 127
1, 21820, Note_on_c, 6, 42, 127
1, 21954, Note_off_c, 6, 42, 127
1, 21954, Note_off_c, 11, 70, 127
1, 21955, Note_on_c, 4, 40, 127
1, 21955, Note_on_c, 0, 72, 127
1, 22089, Note_off_c, 4, 40, 127
1, 22090, Note_on_c, 7, 43, 127
1, 22224, Note_off_c, 7, 43, 127
1, 22225, Note_on_c, 0, 48, 127
1, 22225, Note_on_c, 10, 69, 127
1, 22359, Note_off_c, 0, 48, 127
1, 22360, Note_on_c, 11, 46, 127
1, 22490, Note_off_c, 0, 72, 127
1, 22494, Note_off_c, 11, 46, 127
1, 22494, Note_off_c, 10, 69, 127
1, 22495, Note_on_c, 0, 48, 127
1, 22495, Note_on_c, 11, 70, 127
1, 22629, Note_off_c, 0, 48, 127
1, 22630, Note_on_c, 4, 40, 127
1, 22764, Note_off_c, 4, 40, 127
1, 22764, Note_off_c, 11, 70, 127
1, 22765, Note_on_c, 2, 38, 127
1, 22765, Note_on_c, 0, 72, 127
1, 23035, Note_off_c, 2, 38, 127
1, 23036, Note_on_c, 6, 54, 127
1, 23036, Note_on_c, 2, 50, 127
1, 23036, Note_on_c, 2, 62, 127
1, 23306, Note_off_c, 2, 50, 127
1, 23306, Note_off_c, 6, 54, 127
1, 23307, Note_on_c, 4, 52, 127
1, 23307, Note_on_c, 7, 55, 127
1, 23577, Note_off_c, 7, 55, 127
1, 23577, Note_off_c, 4, 52, 127
1, 23578, Note_on_c, 10, 57, 127
1, 23578, Note_on_c, 6, 54, 127
1, 23848, Note_off_c, 10, 57, 127
1, 23848, Note_off_c, 0, 72, 127
1, 23849, Note_on_c, 7, 55, 127
1, 23849, Note_on_c, 11, 70, 127
1, 24114, Note_off_c, 6, 54, 127
1, 24118, Note_off_c, 11, 70, 127
1, 24118, Note_off_c, 7, 55, 127
1, 24119, Note_on_c, 2, 50, 127
1, 24119, Note_on_c, 6, 54, 127
1, 24119, Note_on_c, 10, 69, 127
1, 24389, Note_off_c, 10, 69, 127
1, 24389, Note_off_c, 6, 54, 127
1, 24389, Note_off_c, 2, 50, 127
1, 24390, Note_on_c, 7, 55, 127
1, 24390, Note_on_c, 7, 43, 127
1, 24390, Note_on_c, 11, 70, 127
1, 24658, Note_off_c, 2, 62, 127
1, 24659, Note_off_c, 11, 70, 127
1, 24660, Note_on_c, 10, 69, 127
1, 24660, Note_on_c, 0, 60, 127
1, 24930, Note_off_c, 0, 60, 127
1, 24930, Note_off_c, 10, 69, 127
1, 24930, Note_off_c, 7, 43, 127
1, 24931, Note_on_c, 0, 48, 127
1, 24931, Note_on_c, 11, 58, 127
1, 24931, Note_on_c, 7, 67, 127
1, 25201, Note_off_c, 7, 67, 127
1, 25201, Note_off_c, 11, 58, 127
1, 25201, Note_off_c, 0, 48, 127
1, 25201, Note_off_c, 7, 55, 127
1, 25202, Note_on_c, 2, 50, 127
1, 25202, Note_on_c, 11, 58, 127
1, 25202, Note_on_c, 2, 74, 127
1, 25472, Note_off_c, 2, 50, 127
1, 25473, Note_on_c, 0, 48, 127
1, 25473, Note_on_c, 7, 79, 127
1, 25597, Note_off_c, 2, 74, 127
1, 25597, Note_off_c, 11, 58, 127
1, 25742, Note_off_c, 7, 79, 127
1, 25742, Note_off_c, 0, 48, 127
1, 25748, Note_on_c, 6, 78, 127
1, 25748, Note_on_c, 0, 72, 127
1, 25748, Note_on_c, 10, 57, 127
1, 25748, Note_on_c, 2, 50, 127
1, 25995, Note_off_c, 6, 78, 127
1, 26003, Note_off_c, 2, 50, 127
1, 26003, Note_off_c, 10, 57, 127
1, 26024, Note_off_c, 0, 72, 127
1, 26030, Note_on_c, 0, 72, 127
1, 26030, Note_on_c, 4, 40, 127
1, 26300, Note_off_c, 4, 40, 127
1, 26301, Note_on_c, 6, 66, 127
1, 26301, Note_on_c, 2, 50, 127
1, 26571, Note_off_c, 2, 50, 127
1, 26571, Note_off_c, 6, 66, 127
1, 26572, Note_on_c, 7, 67, 127
1, 26572, Note_on_c, 4, 52, 127
1, 26842, Note_off_c, 4, 52, 127
1, 26842, Note_off_c, 7, 67, 127
1, 26843, Note_on_c, 10, 69, 127
1, 26843, Note_on_c, 6, 54, 127
1, 27113, Note_off_c, 6, 54, 127
1, 27113, Note_off_c, 10, 69, 127
1, 27113, Note_off_c, 0, 72, 127
1, 27114, Note_on_c, 7, 67, 127
1, 27114, Note_on_c, 11, 70, 127
1, 27114, Note_on_c, 4, 40, 127
1, 27384, Note_off_c, 4, 40, 127
1, 27384, Note_off_c, 11, 70, 127
1, 27384, Note_off_c, 7, 67, 127
1, 27385, Note_on_c, 10, 69, 127
1, 27385, Note_on_c, 6, 42, 127
1, 27655, Note_off_c, 6, 42, 127
1, 27655, Note_off_c, 10, 69, 127
1, 27656, Note_on_c, 11, 70, 127
1, 27656, Note_on_c, 2, 62, 127
1, 27656, Note_on_c, 7, 43, 127
1, 27926, Note_off_c, 2, 62, 127
1, 27926, Note_off_c, 11, 70, 127
1, 27927, Note_on_c, 10, 69, 127
1, 27927, Note_on_c, 0, 60, 127
1, 28197, Note_off_c, 0, 60, 127
1, 28197, Note_off_c, 10, 69, 127
1, 28197, Note_off_c, 7, 43, 127
1, 28198, Note_on_c, 7, 67, 127
1, 28198, Note_on_c, 11, 58, 127
1, 28198, Note_on_c, 0, 48, 127
1, 28468, Note_off_c, 0, 48, 127
1, 28468, Note_off_c, 11, 58, 127
1, 28468, Note_off_c, 7, 67, 127
1, 28469, Note_on_c, 2, 74, 127
1, 28469, Note_on_c, 10, 57, 127
1, 28469, Note_on_c, 2, 50, 127
1, 28739, Note_off_c, 2, 50, 127
1, 28739, Note_off_c, 2, 74, 127
1, 28740, Note_on_c, 7, 79, 127
1, 28740, Note_on_c, 0, 48, 127
1, 29005, Note_off_c, 10, 57, 127
1, 29009, Note_off_c, 0, 48, 127
1, 29009, Note_off_c, 7, 79, 127
1, 29016, Note_on_c, 10, 57, 127
1, 29016, Note_on_c, 2, 50, 127
1, 29016, Note_on_c, 6, 78, 127
1, 29286, Note_off_c, 10, 57, 127
1, 29296, Note_off_c, 2, 50, 127
1, 29321, Note_on_c, 11, 82, 127
1, 29321, Note_on_c, 7, 55, 127
1, 29321, Note_on_c, 7, 43, 127
1, 29332, Note_off_c, 6, 78, 127
1, 29591, Note_off_c, 7, 43, 127
1, 29591, Note_off_c, 11, 82, 127
1, 29592, Note_on_c, 7, 79, 127
1, 29592, Note_on_c, 3, 51, 127
1, 29857, Note_off_c, 7, 55, 127
1, 29861, Note_off_c, 3, 51, 127
1, 29861, Note_off_c, 7, 79, 127
1, 29862, Note_on_c, 10, 81, 127
1, 29862, Note_on_c, 0, 48, 127
1, 29862, Note_on_c, 0, 60, 127
1, 30132, Note_off_c, 0, 60, 127
1, 30132, Note_off_c, 0, 48, 127
1, 30132, Note_off_c, 10, 81, 127
1, 30133, Note_on_c, 2, 74, 127
1, 30133, Note_on_c, 2, 50, 127
1, 30133, Note_on_c, 11, 58, 127
1, 30403, Note_off_c, 11, 58, 127
1, 30403, Note_off_c, 2, 50, 127
1, 30404, Note_on_c, 7, 79, 127
1, 30404, Note_on_c, 10, 57, 127
1, 30404, Note_on_c, 0, 48, 127
1, 30669, Note_off_c, 2, 74, 127
1, 30673, Note_off_c, 0, 48, 127
1, 30673, Note_off_c, 10, 57, 127
1, 30673, Note_off_c, 7, 79, 127
1, 30674, Note_on_c, 6, 78, 127
1, 30674, Note_on_c, 0, 72, 127
1, 30674, Note_on_c, 2, 50, 127
1, 30674, Note_on_c, 10, 57, 127
1, 30944, Note_off_c, 10, 57, 127
1, 30944, Note_off_c, 2, 50, 127
1, 30944, Note_off_c, 0, 72, 127
1, 30944, Note_off_c, 6, 78, 127
1, 30953, Note_on_c, 7, 79, 127
1, 30953, Note_on_c, 11, 70, 127
1, 30953, Note_on_c, 7, 43, 127
1, 31224, Note_on_c, 11, 46, 127
1, 31494, Note_off_c, 11, 46, 127
1, 31495, Note_on_c, 2, 50, 127
1, 31765, Note_off_c, 2, 50, 127
1, 31765, Note_off_c, 11, 70, 127
1, 31765, Note_off_c, 7, 79, 127
1, 31766, Note_on_c, 7, 67, 127
1, 31766, Note_on_c, 11, 58, 127
1, 31766, Note_on_c, 2, 62, 127
1, 31766, Note_on_c, 7, 55, 127
1, 32034, Note_off_c, 11, 58, 127
1, 32035, Note_off_c, 7, 55, 127
1, 32036, Note_on_c, 11, 58, 127
1, 32301, Note_off_c, 2, 62, 127
1, 32305, Note_off_c, 11, 58, 127
1, 32306, Note_off_c, 7, 43, 127
1, 32306, Note_on_c, 2, 62, 127
1, 32576, Note_off_c, 2, 62, 127
1, 32576, Note_off_c, 7, 67, 127
1, 32577, Note_on_c, 2, 74, 127
1, 32577, Note_on_c, 7, 67, 127
1, 32711, Note_off_c, 2, 74, 127
1, 32712, Note_on_c, 7, 79, 127
1, 32846, Note_off_c, 7, 79, 127
1, 32846, Note_off_c, 7, 67, 127
1, 32847, Note_on_c, 6, 78, 127
1, 32847, Note_on_c, 11, 70, 127
1, 32981, Note_off_c, 6, 78, 127
1, 32982, Note_on_c, 7, 79, 127
1, 33116, Note_off_c, 7, 79, 127
1, 33116, Note_off_c, 11, 70, 127
1, 33117, Note_on_c, 2, 74, 127
1, 33117, Note_on_c, 7, 67, 127
1, 33251, Note_off_c, 2, 74, 127
1, 33252, Note_on_c, 7, 79, 127
1, 33386, Note_off_c, 7, 79, 127
1, 33386, Note_off_c, 7, 67, 127
1, 33387, Note_on_c, 11, 70, 127
1, 33387, Note_on_c, 2, 62, 127
1, 33521, Note_off_c, 11, 70, 127
1, 33522, Note_on_c, 2, 74, 127
1, 33656, Note_off_c, 2, 74, 127
1, 33656, Note_off_c, 2, 62, 127
1, 33657, Note_on_c, 0, 72, 127
1, 33657, Note_on_c, 7, 67, 127
1, 33791, Note_off_c, 0, 72, 127
1, 33792, Note_on_c, 2, 74, 127
1, 33926, Note_off_c, 2, 74, 127
1, 33926, Note_off_c, 7, 67, 127
1, 33927, Note_on_c, 11, 70, 127
1, 33927, Note_on_c, 2, 62, 127
1, 34061, Note_off_c, 11, 70, 127
1, 34062, Note_on_c, 2, 74, 127
1, 34196, Note_off_c, 2, 74, 127
1, 34196, Note_off_c, 2, 62, 127
1, 34197, Note_on_c, 7, 67, 127
1, 34197, Note_on_c, 11, 58, 127
1, 34331, Note_off_c, 7, 67, 127
1, 34332, Note_on_c, 11, 70, 127
1, 34466, Note_off_c, 11, 70, 127
1, 34466, Note_off_c, 11, 58, 127
1, 34467, Note_on_c, 10, 69, 127
1, 34467, Note_on_c, 2, 62, 127
1, 34601, Note_off_c, 10, 69, 127
1, 34602, Note_on_c, 11, 70, 127
1, 34736, Note_off_c, 11, 70, 127
1, 34736, Note_off_c, 2, 62, 127
1, 34737, Note_on_c, 7, 67, 127
1, 34737, Note_on_c, 11, 58, 127
1, 34871, Note_off_c, 7, 67, 127
1, 34872, Note_on_c, 11, 70, 127
1, 35006, Note_off_c, 11, 70, 127
1, 35006, Note_off_c, 11, 58, 127
1, 35007, Note_on_c, 2, 62, 127
1, 35007, Note_on_c, 7, 55, 127
1, 35141, Note_off_c, 2, 62, 127
1, 35142, Note_on_c, 7, 67, 127
1, 35276, Note_off_c, 7, 67, 127
1, 35276, Note_off_c, 7, 55, 127
1, 35277, Note_on_c, 6, 66, 127
1, 35277, Note_on_c, 11, 58, 127
1, 35411, Note_off_c, 6, 66, 127
1, 35412, Note_on_c, 7, 67, 127
1, 35546, Note_off_c, 7, 67, 127
1, 35546, Note_off_c, 11, 58, 127
1, 35547, Note_on_c, 2, 62, 127
1, 35547, Note_on_c, 7, 55, 127
1, 35681, Note_off_c, 2, 62, 127
1, 35682, Note_on_c, 7, 67, 127
1, 35816, Note_off_c, 7, 67, 127
1, 35816, Note_off_c, 7, 55, 127
1, 35817, Note_on_c, 11, 58, 127
1, 35817, Note_on_c, 2, 50, 127
1, 35951, Note_off_c, 11, 58, 127
1, 35952, Note_on_c, 2, 62, 127
1, 36086, Note_off_c, 2, 62, 127
1, 36086, Note_off_c, 2, 50, 127
1, 36087, Note_on_c, 0, 60, 127
1, 36087, Note_on_c, 7, 55, 127
1, 36221, Note_off_c, 0, 60, 127
1, 36222, Note_on_c, 2, 62, 127
1, 36356, Note_off_c, 2, 62, 127
1, 36356, Note_off_c, 7, 55, 127
1, 36357, Note_on_c, 11, 58, 127
1, 36357, Note_on_c, 2, 50, 127
1, 36491, Note_off_c, 11, 58, 127
1, 36492, Note_on_c, 2, 62, 127
1, 36626, Note_off_c, 2, 62, 127
1, 36626, Note_off_c, 2, 50, 127
1, 36627, Note_on_c, 7, 55, 127
1, 36627, Note_on_c, 11, 46, 127
1, 36761, Note_off_c, 11, 46, 127
1, 36762, Note_on_c, 0, 48, 127
1, 36896, Note_off_c, 0, 48, 127
1, 36896, Note_off_c, 7, 55, 127
1, 36897, Note_on_c, 7, 67, 127
1, 36897, Note_on_c, 2, 62, 127
1, 36897, Note_on_c, 2, 50, 127
1, 36897, Note_on_c, 11, 58, 127
1, 37031, Note_off_c, 2, 50, 127
1, 37032, Note_on_c, 11, 46, 127
1, 37165, Note_off_c, 11, 58, 127
1, 37166, Note_off_c, 11, 46, 127
1, 37166, Note_off_c, 2, 62, 127
1, 37166, Note_off_c, 7, 67, 127
1, 37167, Note_on_c, 6, 66, 127
1, 37167, Note_on_c, 10, 69, 127
1, 37167, Note_on_c, 0, 60, 127
1, 37167, Note_on_c, 11, 46, 127
1, 37301, Note_off_c, 11, 46, 127
1, 37302, Note_on_c, 10, 45, 127
1, 37435, Note_off_c, 0, 60, 127
1, 37436, Note_off_c, 10, 45, 127
1, 37436, Note_off_c, 10, 69, 127
1, 37436, Note_off_c, 6, 66, 127
1, 37437, Note_on_c, 7, 67, 127
1, 37437, Note_on_c, 11, 70, 127
1, 37437, Note_on_c, 2, 62, 127
1, 37437, Note_on_c, 7, 43, 127
1, 37707, Note_off_c, 2, 62, 127
1, 37707, Note_off_c, 11, 70, 127
1, 37708, Note_on_c, 10, 69, 127
1, 37708, Note_on_c, 0, 60, 127
1, 37973, Note_off_c, 7, 43, 127
1, 37973, Note_off_c, 7, 67, 127
1, 37977, Note_off_c, 0, 60, 127
1, 37977, Note_off_c, 10, 69, 127
1, 37978, Note_on_c, 7, 67, 127
1, 37978, Note_on_c, 2, 62, 127
1, 37978, Note_on_c, 11, 58, 127
1, 37978, Note_on_c, 7, 55, 127
1, 38248, Note_off_c, 7, 55, 127
1, 38248, Note_off_c, 11, 58, 127
1, 38248, Note_off_c, 2, 62, 127
1, 38248, Note_off_c, 7, 67, 127
1, 38249, Note_on_c, 2, 74, 127
1, 38249, Note_on_c, 2, 62, 127
1, 38249, Note_on_c, 10, 57, 127
1, 38249, Note_on_c, 6, 54, 127
1, 38519, Note_off_c, 2, 74, 127
1, 38520, Note_on_c, 10, 69, 127
1, 38790, Note_off_c, 10, 69, 127
1, 38791, Note_on_c, 2, 74, 127
1, 39061, Note_off_c, 2, 74, 127
1, 39061, Note_off_c, 6, 54, 127
1, 39061, Note_off_c, 10, 57, 127
1, 39061, Note_off_c, 2, 62, 127
1, 39062, Note_on_c, 2, 74, 127
1, 39062, Note_on_c, 10, 57, 127
1, 39062, Note_on_c, 2, 50, 127
1, 39062, Note_on_c, 6, 54, 127
1, 39332, Note_off_c, 2, 74, 127
1, 39333, Note_on_c, 6, 66, 127
1, 39603, Note_off_c, 6, 66, 127
1, 39604, Note_on_c, 2, 74, 127
1, 39874, Note_off_c, 2, 74, 127
1, 39874, Note_off_c, 6, 54, 127
1, 39874, Note_off_c, 2, 50, 127
1, 39874, Note_off_c, 10, 57, 127
1, 39875, Note_on_c, 11, 70, 127
1, 39875, Note_on_c, 7, 43, 127
1, 40009, Note_off_c, 11, 70, 127
1, 40010, Note_on_c, 2, 62, 127
1, 40144, Note_off_c, 2, 62, 127
1, 40144, Note_off_c, 7, 43, 127
1, 40145, Note_on_c, 4, 64, 127
1, 40145, Note_on_c, 2, 50, 127
1, 40279, Note_off_c, 4, 64, 127
1, 40280, Note_on_c, 6, 66, 127
1, 40414, Note_off_c, 6, 66, 127
1, 40414, Note_off_c, 2, 50, 127
1, 40415, Note_on_c, 7, 67, 127
1, 40415, Note_on_c, 11, 46, 127
1, 40549, Note_off_c, 7, 67, 127
1, 40550, Note_on_c, 10, 69, 127
1, 40684, Note_off_c, 10, 69, 127
1, 40684, Note_off_c, 11, 46, 127
1, 40685, Note_on_c, 11, 70, 127
1, 40685, Note_on_c, 7, 43, 127
1, 40819, Note_off_c, 11, 70, 127
1, 40820, Note_on_c, 10, 69, 127
1, 40954, Note_off_c, 10, 69, 127
1, 40954, Note_off_c, 7, 43, 127
1, 40955, Note_on_c, 7, 67, 127
1, 40955, Note_on_c, 11, 46, 127
1, 41089, Note_off_c, 7, 67, 127
1, 41090, Note_on_c, 10, 69, 127
1, 41224, Note_off_c, 10, 69, 127
1, 41224, Note_off_c, 11, 46, 127
1, 41225, Note_on_c, 11, 70, 127
1, 41225, Note_on_c, 7, 43, 127
1, 41359, Note_off_c, 11, 70, 127
1, 41360, Note_on_c, 0, 72, 127
1, 41494, Note_off_c, 0, 72, 127
1, 41494, Note_off_c, 7, 43, 127
1, 41495, Note_on_c, 2, 74, 127
1, 41495, Note_on_c, 6, 42, 127
1, 41629, Note_off_c, 2, 74, 127
1, 41630, Note_on_c, 6, 78, 127
1, 41764, Note_off_c, 6, 78, 127
1, 41764, Note_off_c, 6, 42, 127
1, 41765, Note_on_c, 10, 81, 127
1, 41765, Note_on_c, 2, 38, 127
1, 41899, Note_off_c, 10, 81, 127
1, 41900, Note_on_c, 6, 78, 127
1, 42034, Note_off_c, 6, 78, 127
1, 42034, Note_off_c, 2, 38, 127
1, 42035, Note_on_c, 2, 74, 127
1, 42035, Note_on_c, 4, 40, 127
1, 42169, Note_off_c, 2, 74, 127
1, 42170, Note_on_c, 10, 69, 127
1, 42304, Note_off_c, 10, 69, 127
1, 42304, Note_off_c, 4, 40, 127
1, 42305, Note_on_c, 0, 72, 127
1, 42305, Note_on_c, 6, 42, 127
1, 42439, Note_off_c, 0, 72, 127
1, 42440, Note_on_c, 6, 78, 127
1, 42574, Note_off_c, 6, 78, 127
1, 42574, Note_off_c, 6, 42, 127
1, 42575, Note_on_c, 10, 81, 127
1, 42575, Note_on_c, 4, 40, 127
1, 42709, Note_off_c, 10, 81, 127
1, 42710, Note_on_c, 6, 78, 127
1, 42844, Note_off_c, 6, 78, 127
1, 42844, Note_off_c, 4, 40, 127
1, 42845, Note_on_c, 0, 72, 127
1, 42845, Note_on_c, 2, 38, 127
1, 42979, Note_off_c, 0, 72, 127
1, 42980, Note_on_c, 10, 69, 127
1, 43114, Note_off_c, 10, 69, 127
1, 43114, Note_off_c, 2, 38, 127
1, 43115, Note_on_c, 11, 70, 127
1, 43115, Note_on_c, 7, 43, 127
1, 43385, Note_off_c, 7, 43, 127
1, 43385, Note_off_c, 11, 70, 127
1, 43386, Note_on_c, 11, 70, 127
1, 43386, Note_on_c, 7, 55, 127
1, 43656, Note_off_c, 7, 55, 127
1, 43656, Note_off_c, 11, 70, 127
1, 43657, Note_on_c, 0, 72, 127
1, 43657, Note_on_c, 10, 57, 127
1, 43927, Note_off_c, 10, 57, 127
1, 43927, Note_off_c, 0, 72, 127
1, 43928, Note_on_c, 2, 74, 127
1, 43928, Note_on_c, 11, 58, 127
1, 44198, Note_off_c, 11, 58, 127
1, 44198, Note_off_c, 2, 74, 127
1, 44199, Note_on_c, 0, 72, 127
1, 44199, Note_on_c, 10, 57, 127
1, 44469, Note_off_c, 10, 57, 127
1, 44469, Note_off_c, 0, 72, 127
1, 44470, Note_on_c, 11, 70, 127
1, 44470, Note_on_c, 7, 55, 127
1, 44740, Note_off_c, 7, 55, 127
1, 44740, Note_off_c, 11, 70, 127
1, 44741, Note_on_c, 5, 77, 127
1, 44741, Note_on_c, 10, 57, 127
1, 44741, Note_on_c, 0, 60, 127
1, 44741, Note_on_c, 5, 65, 127
1, 45011, Note_off_c, 5, 77, 127
1, 45012, Note_on_c, 0, 72, 127
1, 45282, Note_off_c, 0, 72, 127
1, 45283, Note_on_c, 5, 77, 127
1, 45553, Note_off_c, 5, 77, 127
1, 45553, Note_off_c, 5, 65, 127
1, 45553, Note_off_c, 0, 60, 127
1, 45553, Note_off_c, 10, 57, 127
1, 45554, Note_on_c, 5, 77, 127
1, 45554, Note_on_c, 5, 53, 127
1, 45554, Note_on_c, 0, 48, 127
1, 45554, Note_on_c, 10, 45, 127
1, 45824, Note_off_c, 5, 77, 127
1, 45825, Note_on_c, 10, 69, 127
1, 46095, Note_off_c, 10, 69, 127
1, 46096, Note_on_c, 5, 77, 127
1, 46366, Note_off_c, 5, 77, 127
1, 46366, Note_off_c, 10, 45, 127
1, 46366, Note_off_c, 0, 48, 127
1, 46366, Note_off_c, 5, 53, 127
1, 46367, Note_on_c, 2, 74, 127
1, 46367, Note_on_c, 11, 46, 127
1, 46501, Note_off_c, 2, 74, 127
1, 46502, Note_on_c, 5, 65, 127
1, 46636, Note_off_c, 5, 65, 127
1, 46636, Note_off_c, 11, 46, 127
1, 46637, Note_on_c, 7, 67, 127
1, 46637, Note_on_c, 5, 53, 127
1, 46771, Note_off_c, 7, 67, 127
1, 46772, Note_on_c, 10, 69, 127
1, 46906, Note_off_c, 10, 69, 127
1, 46906, Note_off_c, 5, 53, 127
1, 46907, Note_on_c, 11, 70, 127
1, 46907, Note_on_c, 2, 50, 127
1, 47041, Note_off_c, 11, 70, 127
1, 47042, Note_on_c, 0, 72, 127
1, 47176, Note_off_c, 0, 72, 127
1, 47176, Note_off_c, 2, 50, 127
1, 47177, Note_on_c, 2, 74, 127
1, 47177, Note_on_c, 11, 46, 127
1, 47311, Note_off_c, 2, 74, 127
1, 47312, Note_on_c, 0, 72, 127
1, 47446, Note_off_c, 0, 72, 127
1, 47446, Note_off_c, 11, 46, 127
1, 47447, Note_on_c, 11, 70, 127
1, 47447, Note_on_c, 2, 50, 127
1, 47581, Note_off_c, 11, 70, 127
1, 47582, Note_on_c, 0, 72, 127
1, 47716, Note_off_c, 0, 72, 127
1, 47716, Note_off_c, 2, 50, 127
1, 47717, Note_on_c, 2, 74, 127
1, 47717, Note_on_c, 11, 46, 127
1, 47851, Note_off_c, 2, 74, 127
1, 47852, Note_on_c, 3, 75, 127
1, 47986, Note_off_c, 3, 75, 127
1, 47986, Note_off_c, 11, 46, 127
1, 47987, Note_on_c, 5, 77, 127
1, 47987, Note_on_c, 10, 45, 127
1, 48121, Note_off_c, 5, 77, 127
1, 48122, Note_on_c, 10, 81, 127
1, 48256, Note_off_c, 10, 81, 127
1, 48256, Note_off_c, 10, 45, 127
1, 48257, Note_on_c, 0, 84, 127
1, 48257, Note_on_c, 5, 41, 127
1, 48391, Note_off_c, 0, 84, 127
1, 48392, Note_on_c, 10, 81, 127
1, 48526, Note_off_c, 10, 81, 127
1, 48526, Note_off_c, 5, 41, 127
1, 48527, Note_on_c, 5, 77, 127
1, 48527, Note_on_c, 7, 43, 127
1, 48661, Note_off_c, 5, 77, 127
1, 48662, Note_on_c, 0, 72, 127
1, 48796, Note_off_c, 0, 72, 127
1, 48796, Note_off_c, 7, 43, 127
1, 48797, Note_on_c, 3, 75, 127
1, 48797, Note_on_c, 10, 45, 127
1, 48931, Note_off_c, 3, 75, 127
1, 48932, Note_on_c, 10, 81, 127
1, 49066, Note_off_c, 10, 81, 127
1, 49066, Note_off_c, 10, 45, 127
1, 49067, Note_on_c, 0, 84, 127
1, 49067, Note_on_c, 7, 43, 127
1, 49201, Note_off_c, 0, 84, 127
1, 49202, Note_on_c, 10, 81, 127
1, 49336, Note_off_c, 10, 81, 127
1, 49336, Note_off_c, 7, 43, 127
1, 49337, Note_on_c, 3, 75, 127
1, 49337, Note_on_c, 5, 41, 127
1, 49471, Note_off_c, 3, 75, 127
1, 49472, Note_on_c, 0, 72, 127
1, 49606, Note_off_c, 0, 72, 127
1, 49606, Note_off_c, 5, 41, 127
1, 49607, Note_on_c, 2, 74, 127
1, 49607, Note_on_c, 11, 46, 127
1, 49741, Note_off_c, 11, 46, 127
1, 49742, Note_on_c, 11, 58, 127
1, 49876, Note_off_c, 11, 58, 127
1, 49877, Note_on_c, 10, 57, 127
1, 50011, Note_off_c, 10, 57, 127
1, 50012, Note_on_c, 11, 58, 127
1, 50142, Note_off_c, 2, 74, 127
1, 50146, Note_off_c, 11, 58, 127
1, 50147, Note_on_c, 5, 53, 127
1, 50281, Note_off_c, 5, 53, 127
1, 50282, Note_on_c, 11, 58, 127
1, 50416, Note_off_c, 11, 58, 127
1, 50417, Note_on_c, 2, 50, 127
1, 50688, Note_on_c, 11, 82, 127
1, 50822, Note_off_c, 11, 82, 127
1, 50823, Note_on_c, 5, 77, 127
1, 50957, Note_off_c, 5, 77, 127
1, 50958, Note_on_c, 2, 74, 127
1, 51092, Note_off_c, 2, 74, 127
1, 51093, Note_on_c, 11, 70, 127
1, 51227, Note_off_c, 11, 70, 127
1, 51227, Note_off_c, 2, 50, 127
1, 51228, Note_on_c, 5, 77, 127
1, 51364, Note_on_c, 5, 53, 127
1, 51498, Note_off_c, 5, 53, 127
1, 51499, Note_on_c, 3, 51, 127
1, 51633, Note_off_c, 3, 51, 127
1, 51634, Note_on_c, 5, 53, 127
1, 51764, Note_off_c, 5, 77, 127
1, 51768, Note_off_c, 5, 53, 127
1, 51769, Note_on_c, 2, 50, 127
1, 51903, Note_off_c, 2, 50, 127
1, 51904, Note_on_c, 5, 53, 127
1, 52038, Note_off_c, 5, 53, 127
1, 52039, Note_on_c, 11, 46, 127
1, 52309, Note_off_c, 11, 46, 127
1, 52310, Note_on_c, 11, 82, 127
1, 52310, Note_on_c, 2, 50, 127
1, 52444, Note_off_c, 11, 82, 127
1, 52445, Note_on_c, 5, 77, 127
1, 52579, Note_off_c, 5, 77, 127
1, 52579, Note_off_c, 2, 50, 127
1, 52580, Note_on_c, 2, 74, 127
1, 52580, Note_on_c, 11, 46, 127
1, 52714, Note_off_c, 2, 74, 127
1, 52715, Note_on_c, 11, 70, 127
1, 52849, Note_off_c, 11, 70, 127
1, 52849, Note_off_c, 11, 46, 127
1, 52850, Note_on_c, 7, 79, 127
1, 52850, Note_on_c, 3, 51, 127
1, 53120, Note_off_c, 3, 51, 127
1, 53120, Note_off_c, 7, 79, 127
1, 53121, Note_on_c, 3, 75, 127
1, 53121, Note_on_c, 7, 55, 127
1, 53255, Note_off_c, 3, 75, 127
1, 53256, Note_on_c, 0, 72, 127
1, 53390, Note_off_c, 0, 72, 127
1, 53390, Note_off_c, 7, 55, 127
1, 53391, Note_on_c, 7, 67, 127
1, 53391, Note_on_c, 3, 51, 127
1, 53525, Note_off_c, 7, 67, 127
1, 53526, Note_on_c, 3, 63, 127
1, 53660, Note_off_c, 3, 63, 127
1, 53660, Note_off_c, 3, 51, 127
1, 53661, Note_on_c, 10, 69, 127
1, 53661, Note_on_c, 5, 53, 127
1, 53931, Note_off_c, 5, 53, 127
1, 53931, Note_off_c, 10, 69, 127
1, 53932, Note_on_c, 5, 77, 127
1, 53932, Note_on_c, 10, 57, 127
1, 54066, Note_off_c, 5, 77, 127
1, 54067, Note_on_c, 0, 72, 127
1, 54201, Note_off_c, 0, 72, 127
1, 54201, Note_off_c, 10, 57, 127
1, 54202, Note_on_c, 10, 69, 127
1, 54202, Note_on_c, 5, 53, 127
1, 54336, Note_off_c, 10, 69, 127
1, 54337, Note_on_c, 5, 65, 127
1, 54471, Note_off_c, 5, 65, 127
1, 54471, Note_off_c, 5, 53, 127
1, 54472, Note_on_c, 11, 70, 127
1, 54472, Note_on_c, 7, 55, 127
1, 54742, Note_off_c, 7, 55, 127
1, 54742, Note_off_c, 11, 70, 127
1, 54743, Note_on_c, 7, 79, 127
1, 54743, Note_on_c, 11, 58, 127
1, 54877, Note_off_c, 7, 79, 127
1, 54878, Note_on_c, 2, 74, 127
1, 55012, Note_off_c, 2, 74, 127
1, 55012, Note_off_c, 11, 58, 127
1, 55013, Note_on_c, 11, 70, 127
1, 55013, Note_on_c, 7, 55, 127
1, 55147, Note_off_c, 11, 70, 127
1, 55148, Note_on_c, 7, 67, 127
1, 55282, Note_off_c, 7, 67, 127
1, 55282, Note_off_c, 7, 55, 127
1, 55283, Note_on_c, 0, 72, 127
1, 55283, Note_on_c, 10, 57, 127
1, 55553, Note_off_c, 10, 57, 127
1, 55553, Note_off_c, 0, 72, 127
1, 55554, Note_on_c, 10, 81, 127
1, 55554, Note_on_c, 0, 60, 127
1, 55688, Note_off_c, 10, 81, 127
1, 55689, Note_on_c, 5, 77, 127
1, 55823, Note_off_c, 5, 77, 127
1, 55823, Note_off_c, 0, 60, 127
1, 55824, Note_on_c, 0, 72, 127
1, 55824, Note_on_c, 10, 57, 127
1, 55958, Note_off_c, 0, 72, 127
1, 55959, Note_on_c, 10, 69, 127
1, 56093, Note_off_c, 10, 69, 127
1, 56093, Note_off_c, 10, 57, 127
1, 56094, Note_on_c, 2, 74, 127
1, 56094, Note_on_c, 11, 58, 127
1, 56228, Note_off_c, 2, 74, 127
1, 56229, Note_on_c, 3, 75, 127
1, 56363, Note_off_c, 3, 75, 127
1, 56363, Note_off_c, 11, 58, 127
1, 56364, Note_on_c, 2, 74, 127
1, 56364, Note_on_c, 11, 46, 127
1, 56498, Note_off_c, 11, 46, 127
1, 56498, Note_off_c, 2, 74, 127
1, 56499, Note_on_c, 3, 75, 127
1, 56499, Note_on_c, 0, 48, 127
1, 56633, Note_off_c, 0, 48, 127
1, 56633, Note_off_c, 3, 75, 127
1, 56634, Note_on_c, 5, 77, 127
1, 56634, Note_on_c, 2, 50, 127
1, 56768, Note_off_c, 2, 50, 127
1, 56769, Note_on_c, 3, 51, 127
1, 56903, Note_off_c, 3, 51, 127
1, 56903, Note_off_c, 5, 77, 127
1, 56904, Note_on_c, 5, 65, 127
1, 56904, Note_on_c, 5, 53, 127
1, 57038, Note_off_c, 5, 53, 127
1, 57039, Note_on_c, 3, 51, 127
1, 57173, Note_off_c, 3, 51, 127
1, 57173, Note_off_c, 5, 65, 127
1, 57174, Note_on_c, 11, 70, 127
1, 57174, Note_on_c, 2, 50, 127
1, 57308, Note_off_c, 2, 50, 127
1, 57309, Note_on_c, 3, 51, 127
1, 57443, Note_off_c, 3, 51, 127
1, 57443, Note_off_c, 11, 70, 127
1, 57444, Note_on_c, 10, 69, 127
1, 57444, Note_on_c, 5, 53, 127
1, 57714, Note_off_c, 5, 53, 127
1, 57714, Note_off_c, 10, 69, 127
1, 57715, Note_on_c, 11, 70, 127
1, 57715, Note_on_c, 11, 46, 127
1, 57851, Note_on_c, 11, 82, 127
1, 57984, Note_off_c, 11, 70, 127
1, 57985, Note_off_c, 11, 82, 127
1, 57985, Note_off_c, 11, 46, 127
1, 57986, Note_on_c, 10, 81, 127
1, 57986, Note_on_c, 2, 74, 127
1, 58120, Note_off_c, 10, 81, 127
1, 58121, Note_on_c, 11, 82, 127
1, 58255, Note_off_c, 11, 82, 127
1, 58255, Note_off_c, 2, 74, 127
1, 58256, Note_on_c, 5, 77, 127
1, 58256, Note_on_c, 11, 70, 127
1, 58390, Note_off_c, 5, 77, 127
1, 58391, Note_on_c, 11, 82, 127
1, 58525, Note_off_c, 11, 82, 127
1, 58525, Note_off_c, 11, 70, 127
1, 58526, Note_on_c, 2, 74, 127
1, 58526, Note_on_c, 5, 65, 127
1, 58662, Note_on_c, 5, 77, 127
1, 58730, Note_off_c, 2, 74, 127
1, 58796, Note_off_c, 5, 77, 127
1, 58796, Note_off_c, 5, 65, 127
1, 58797, Note_on_c, 3, 75, 127
1, 58797, Note_on_c, 11, 70, 127
1, 58931, Note_off_c, 3, 75, 127
1, 58932, Note_on_c, 5, 77, 127
1, 59066, Note_off_c, 5, 77, 127
1, 59066, Note_off_c, 11, 70, 127
1, 59067, Note_on_c, 2, 74, 127
1, 59067, Note_on_c, 5, 65, 127
1, 59201, Note_off_c, 2, 74, 127
1, 59202, Note_on_c, 5, 77, 127
1, 59336, Note_off_c, 5, 77, 127
1, 59336, Note_off_c, 5, 65, 127
1, 59337, Note_on_c, 11, 70, 127
1, 59337, Note_on_c, 2, 62, 127
1, 59473, Note_on_c, 2, 74, 127
1, 59541, Note_off_c, 11, 70, 127
1, 59607, Note_off_c, 2, 74, 127
1, 59607, Note_off_c, 2, 62, 127
1, 59608, Note_on_c, 0, 72, 127
1, 59608, Note_on_c, 5, 65, 127
1, 59742, Note_off_c, 0, 72, 127
1, 59743, Note_on_c, 2, 74, 127
1, 59877, Note_off_c, 2, 74, 127
1, 59877, Note_off_c, 5, 65, 127
1, 59878, Note_on_c, 11, 70, 127
1, 59878, Note_on_c, 2, 62, 127
1, 60012, Note_off_c, 11, 70, 127
1, 60013, Note_on_c, 2, 74, 127
1, 60147, Note_off_c, 2, 74, 127
1, 60147, Note_off_c, 2, 62, 127
1, 60148, Note_on_c, 5, 65, 127
1, 60148, Note_on_c, 11, 58, 127
1, 60284, Note_on_c, 11, 70, 127
1, 60352, Note_off_c, 5, 65, 127
1, 60418, Note_off_c, 11, 70, 127
1, 60418, Note_off_c, 11, 58, 127
1, 60419, Note_on_c, 10, 69, 127
1, 60419, Note_on_c, 2, 62, 127
1, 60553, Note_off_c, 10, 69, 127
1, 60554, Note_on_c, 11, 70, 127
1, 60688, Note_off_c, 11, 70, 127
1, 60688, Note_off_c, 2, 62, 127
1, 60689, Note_on_c, 5, 65, 127
1, 60689, Note_on_c, 11, 58, 127
1, 60823, Note_off_c, 5, 65, 127
1, 60824, Note_on_c, 11, 70, 127
1, 60958, Note_off_c, 11, 70, 127
1, 60958, Note_off_c, 11, 58, 127
1, 60959, Note_on_c, 2, 62, 127
1, 60959, Note_on_c, 5, 53, 127
1, 61095, Note_on_c, 5, 65, 127
1, 61163, Note_off_c, 2, 62, 127
1, 61229, Note_off_c, 5, 65, 127
1, 61229, Note_off_c, 5, 53, 127
1, 61230, Note_on_c, 3, 63, 127
1, 61230, Note_on_c, 11, 58, 127
1, 61364, Note_off_c, 3, 63, 127
1, 61365, Note_on_c, 5, 65, 127
1, 61499, Note_off_c, 5, 65, 127
1, 61499, Note_off_c, 11, 58, 127
1, 61500, Note_on_c, 2, 62, 127
1, 61500, Note_on_c, 5, 53, 127
1, 61634, Note_off_c, 2, 62, 127
1, 61635, Note_on_c, 5, 65, 127
1, 61769, Note_off_c, 5, 65, 127
1, 61769, Note_off_c, 5, 53, 127
1, 61770, Note_on_c, 11, 58, 127
1, 61770, Note_on_c, 2, 50, 127
1, 61904, Note_off_c, 2, 50, 127
1, 61905, Note_on_c, 3, 51, 127
1, 62039, Note_off_c, 3, 51, 127
1, 62039, Note_off_c, 11, 58, 127
1, 62040, Note_on_c, 11, 70, 127
1, 62040, Note_on_c, 5, 65, 127
1, 62040, Note_on_c, 2, 62, 127
1, 62040, Note_on_c, 5, 53, 127
1, 62174, Note_off_c, 5, 53, 127
1, 62175, Note_on_c, 3, 51, 127
1, 62308, Note_off_c, 2, 62, 127
1, 62309, Note_off_c, 3, 51, 127
1, 62309, Note_off_c, 5, 65, 127
1, 62309, Note_off_c, 11, 70, 127
1, 62310, Note_on_c, 3, 63, 127
1, 62310, Note_on_c, 10, 69, 127
1, 62310, Note_on_c, 0, 72, 127
1, 62310, Note_on_c, 2, 50, 127
1, 62444, Note_off_c, 2, 50, 127
1, 62445, Note_on_c, 0, 48, 127
1, 62579, Note_off_c, 0, 48, 127
1, 62579, Note_off_c, 0, 72, 127
1, 62579, Note_off_c, 10, 69, 127
1, 62579, Note_off_c, 3, 63, 127
1, 62580, Note_on_c, 5, 65, 127
1, 62580, Note_on_c, 11, 70, 127
1, 62580, Note_on_c, 2, 74, 127
1, 62580, Note_on_c, 11, 46, 127
1, 62850, Note_off_c, 2, 74, 127
1, 62850, Note_off_c, 11, 70, 127
1, 62850, Note_off_c, 5, 65, 127
1, 62851, Note_on_c, 3, 63, 127
1, 62851, Note_on_c, 0, 72, 127
1, 63121, Note_off_c, 0, 72, 127
1, 63121, Note_off_c, 3, 63, 127
1, 63121, Note_off_c, 11, 46, 127
1, 63122, Note_on_c, 5, 65, 127
1, 63122, Note_on_c, 11, 70, 127
1, 63122, Note_on_c, 11, 58, 127
1, 63122, Note_on_c, 2, 62, 127
1, 63392, Note_off_c, 2, 62, 127
1, 63392, Note_off_c, 11, 58, 127
1, 63392, Note_off_c, 11, 70, 127
1, 63392, Note_off_c, 5, 65, 127
1, 63393, Note_on_c, 5, 65, 127
1, 63393, Note_on_c, 5, 77, 127
1, 63393, Note_on_c, 0, 60, 127
1, 63393, Note_on_c, 10, 57, 127
1, 63663, Note_off_c, 5, 77, 127
1, 63664, Note_on_c, 0, 72, 127
1, 63934, Note_off_c, 0, 72, 127
1, 63935, Note_on_c, 5, 77, 127
1, 64205, Note_off_c, 5, 77, 127
1, 64205, Note_off_c, 10, 57, 127
1, 64205, Note_off_c, 0, 60, 127
1, 64205, Note_off_c, 5, 65, 127
1, 64206, Note_on_c, 5, 77, 127
1, 64206, Note_on_c, 0, 60, 127
1, 64206, Note_on_c, 5, 53, 127
1, 64206, Note_on_c, 10, 57, 127
1, 64476, Note_off_c, 5, 77, 127
1, 64477, Note_on_c, 10, 69, 127
1, 64747, Note_off_c, 10, 69, 127
1, 64748, Note_on_c, 5, 77, 127
1, 65018, Note_off_c, 5, 77, 127
1, 65018, Note_off_c, 10, 57, 127
1, 65018, Note_off_c, 5, 53, 127
1, 65018, Note_off_c, 0, 60, 127
1, 65019, Note_on_c, 2, 74, 127
1, 65019, Note_on_c, 11, 46, 127
1, 65153, Note_off_c, 11, 46, 127
1, 65154, Note_on_c, 2, 50, 127
1, 65288, Note_off_c, 2, 50, 127
1, 65289, Note_on_c, 0, 48, 127
1, 65423, Note_off_c, 0, 48, 127
1, 65424, Note_on_c, 2, 50, 127
1, 65554, Note_off_c, 2, 74, 127
1, 65558, Note_off_c, 2, 50, 127
1, 65559, Note_on_c, 8, 44, 127
1, 65693, Note_off_c, 8, 44, 127
1, 65694, Note_on_c, 2, 50, 127
1, 65828, Note_off_c, 2, 50, 127
1, 65829, Note_on_c, 7, 43, 127
1, 66100, Note_on_c, 3, 75, 127
1, 66234, Note_off_c, 3, 75, 127
1, 66235, Note_on_c, 11, 70, 127
1, 66369, Note_off_c, 11, 70, 127
1, 66370, Note_on_c, 7, 67, 127
1, 66504, Note_off_c, 7, 67, 127
1, 66505, Note_on_c, 3, 63, 127
1, 66639, Note_off_c, 3, 63, 127
1, 66639, Note_off_c, 7, 43, 127
1, 66640, Note_on_c, 11, 70, 127
1, 66776, Note_on_c, 11, 46, 127
1, 66910, Note_off_c, 11, 46, 127
1, 66911, Note_on_c, 8, 44, 127
1, 67045, Note_off_c, 8, 44, 127
1, 67046, Note_on_c, 11, 46, 127
1, 67176, Note_off_c, 11, 70, 127
1, 67180, Note_off_c, 11, 46, 127
1, 67181, Note_on_c, 7, 43, 127
1, 67315, Note_off_c, 7, 43, 127
1, 67316, Note_on_c, 11, 46, 127
1, 67450, Note_off_c, 11, 46, 127
1, 67451, Note_on_c, 3, 39, 127
1, 67722, Note_on_c, 3, 75, 127
1, 67856, Note_off_c, 3, 75, 127
1, 67857, Note_on_c, 11, 70, 127
1, 67991, Note_off_c, 11, 70, 127
1, 67992, Note_on_c, 7, 67, 127
1, 68126, Note_off_c, 7, 67, 127
1, 68127, Note_off_c, 3, 39, 127
1, 68127, Note_on_c, 3, 63, 127
1, 68261, Note_off_c, 3, 63, 127
1, 68262, Note_on_c, 0, 72, 127
1, 68398, Note_on_c, 4, 52, 127
1, 68532, Note_off_c, 4, 52, 127
1, 68533, Note_on_c, 2, 50, 127
1, 68667, Note_off_c, 2, 50, 127
1, 68668, Note_on_c, 4, 52, 127
1, 68802, Note_off_c, 4, 52, 127
1, 68803, Note_on_c, 0, 48, 127
1, 68937, Note_off_c, 0, 48, 127
1, 68938, Note_off_c, 0, 72, 127
1, 68938, Note_on_c, 4, 52, 127
1, 69072, Note_off_c, 4, 52, 127
1, 69073, Note_on_c, 10, 45, 127
1, 69344, Note_on_c, 5, 77, 127
1, 69478, Note_off_c, 5, 77, 127
1, 69479, Note_on_c, 0, 72, 127
1, 69613, Note_off_c, 0, 72, 127
1, 69614, Note_on_c, 10, 69, 127
1, 69748, Note_off_c, 10, 69, 127
1, 69749, Note_off_c, 10, 45, 127
1, 69749, Note_on_c, 5, 65, 127
1, 69883, Note_off_c, 5, 65, 127
1, 69884, Note_on_c, 0, 72, 127
1, 70020, Note_on_c, 0, 48, 127
1, 70154, Note_off_c, 0, 48, 127
1, 70155, Note_on_c, 11, 46, 127
1, 70289, Note_off_c, 11, 46, 127
1, 70290, Note_on_c, 0, 48, 127
1, 70424, Note_off_c, 0, 48, 127
1, 70425, Note_on_c, 10, 45, 127
1, 70559, Note_off_c, 10, 45, 127
1, 70560, Note_on_c, 0, 48, 127
1, 70694, Note_off_c, 0, 48, 127
1, 70694, Note_off_c, 0, 72, 127
1, 70695, Note_on_c, 5, 41, 127
1, 70965, Note_off_c, 5, 41, 127
1, 70966, Note_on_c, 5, 77, 127
1, 70966, Note_on_c, 7, 43, 127
1, 71100, Note_off_c, 5, 77, 127
1, 71101, Note_on_c, 0, 72, 127
1, 71235, Note_off_c, 0, 72, 127
1, 71235, Note_off_c, 7, 43, 127
1, 71236, Note_on_c, 10, 69, 127
1, 71236, Note_on_c, 10, 45, 127
1, 71370, Note_off_c, 10, 69, 127
1, 71371, Note_on_c, 5, 65, 127
1, 71505, Note_off_c, 5, 65, 127
1, 71505, Note_off_c, 10, 45, 127
1, 71506, Note_on_c, 2, 74, 127
1, 71506, Note_on_c, 11, 46, 127
1, 71776, Note_off_c, 11, 46, 127
1, 71776, Note_off_c, 2, 74, 127
1, 71777, Note_on_c, 7, 79, 127
1, 71777, Note_on_c, 10, 45, 127
1, 71911, Note_off_c, 7, 79, 127
1, 71912, Note_on_c, 2, 74, 127
1, 72046, Note_off_c, 2, 74, 127
1, 72046, Note_off_c, 10, 45, 127
1, 72047, Note_on_c, 11, 70, 127
1, 72047, Note_on_c, 7, 43, 127
1, 72181, Note_off_c, 11, 70, 127
1, 72182, Note_on_c, 7, 67, 127
1, 72316, Note_off_c, 7, 67, 127
1, 72316, Note_off_c, 7, 43, 127
1, 72317, Note_on_c, 4, 76, 127
1, 72317, Note_on_c, 0, 48, 127
1, 72451, Note_off_c, 4, 76, 127
1, 72452, Note_on_c, 0, 72, 127
1, 72586, Note_off_c, 0, 72, 127
1, 72586, Note_off_c, 0, 48, 127
1, 72587, Note_on_c, 2, 74, 127
1, 72587, Note_on_c, 10, 45, 127
1, 72721, Note_off_c, 2, 74, 127
1, 72722, Note_on_c, 4, 76, 127
1, 72856, Note_off_c, 4, 76, 127
1, 72856, Note_off_c, 10, 45, 127
1, 72857, Note_on_c, 5, 77, 127
1, 72857, Note_on_c, 2, 50, 127
1, 72991, Note_off_c, 5, 77, 127
1, 72992, Note_on_c, 4, 76, 127
1, 73126, Note_off_c, 4, 76, 127
1, 73126, Note_off_c, 2, 50, 127
1, 73127, Note_on_c, 5, 77, 127
1, 73127, Note_on_c, 11, 46, 127
1, 73261, Note_off_c, 5, 77, 127
1, 73262, Note_on_c, 7, 79, 127
1, 73396, Note_off_c, 7, 79, 127
1, 73396, Note_off_c, 11, 46, 127
1, 73397, Note_on_c, 10, 81, 127
1, 73397, Note_on_c, 0, 48, 127
1, 73665, Note_off_c, 10, 81, 127
1, 73666, Note_off_c, 0, 48, 127
1, 73667, Note_on_c, 0, 36, 127
1, 73689, Note_on_c, 7, 79, 127
1, 73772, Note_on_c, 5, 77, 127
1, 73778, Note_off_c, 7, 79, 127
1, 73854, Note_on_c, 7, 79, 127
1, 73861, Note_off_c, 5, 77, 127
1, 73935, Note_off_c, 0, 36, 127
1, 73936, Note_on_c, 10, 81, 127
1, 73936, Note_on_c, 5, 41, 127
1, 73940, Note_off_c, 7, 79, 127
1, 74070, Note_off_c, 10, 81, 127
1, 74071, Note_on_c, 5, 77, 127
1, 74205, Note_off_c, 5, 77, 127
1, 74205, Note_off_c, 5, 41, 127
1, 74206, Note_on_c, 2, 74, 127
1, 74206, Note_on_c, 4, 40, 127
1, 74340, Note_off_c, 2, 74, 127
1, 74341, Note_on_c, 5, 77, 127
1, 74475, Note_off_c, 5, 77, 127
1, 74475, Note_off_c, 4, 40, 127
1, 74476, Note_on_c, 2, 74, 127
1, 74476, Note_on_c, 5, 41, 127
1, 74610, Note_off_c, 2, 74, 127
1, 74611, Note_on_c, 10, 69, 127
1, 74745, Note_off_c, 10, 69, 127
1, 74745, Note_off_c, 5, 41, 127
1, 74746, Note_on_c, 11, 70, 127
1, 74746, Note_on_c, 7, 43, 127
1, 75016, Note_off_c, 7, 43, 127
1, 75016, Note_off_c, 11, 70, 127
1, 75017, Note_on_c, 7, 79, 127
1, 75017, Note_on_c, 5, 41, 127
1, 75151, Note_off_c, 7, 79, 127
1, 75152, Note_on_c, 2, 74, 127
1, 75286, Note_off_c, 2, 74, 127
1, 75286, Note_off_c, 5, 41, 127
1, 75287, Note_on_c, 12, 71, 127
1, 75287, Note_on_c, 4, 40, 127
1, 75421, Note_off_c, 12, 71, 127
1, 75422, Note_on_c, 7, 67, 127
1, 75556, Note_off_c, 7, 67, 127
1, 75556, Note_off_c, 4, 40, 127
1, 75557, Note_on_c, 1, 73, 127
1, 75557, Note_on_c, 10, 45, 127
1, 75830, Note_off_c, 10, 45, 127
1, 75830, Note_off_c, 1, 73, 127
1, 75831, Note_on_c, 2, 74, 127
1, 75831, Note_on_c, 5, 53, 127
1, 75967, Note_off_c, 5, 53, 127
1, 75968, Note_on_c, 10, 57, 127
1, 76104, Note_off_c, 10, 57, 127
1, 76105, Note_on_c, 5, 65, 127
1, 76105, Note_on_c, 10, 69, 127
1, 76105, Note_on_c, 5, 53, 127
1, 76241, Note_off_c, 5, 53, 127
1, 76242, Note_on_c, 2, 50, 127
1, 76378, Note_off_c, 2, 50, 127
1, 76378, Note_off_c, 10, 69, 127
1, 76378, Note_off_c, 5, 65, 127
1, 76379, Note_on_c, 11, 70, 127
1, 76379, Note_on_c, 7, 67, 127
1, 76379, Note_on_c, 7, 43, 127
1, 76652, Note_off_c, 7, 43, 127
1, 76652, Note_off_c, 2, 74, 127
1, 76653, Note_on_c, 4, 76, 127
1, 76653, Note_on_c, 7, 55, 127
1, 76789, Note_off_c, 7, 55, 127
1, 76790, Note_on_c, 11, 58, 127
1, 76921, Note_off_c, 7, 67, 127
1, 76921, Note_off_c, 11, 70, 127
1, 76925, Note_off_c, 11, 58, 127
1, 76926, Note_on_c, 7, 67, 127
1, 76926, Note_on_c, 11, 70, 127
1, 76926, Note_on_c, 7, 55, 127
1, 77062, Note_off_c, 7, 55, 127
1, 77063, Note_on_c, 4, 52, 127
1, 77199, Note_off_c, 4, 52, 127
1, 77199, Note_off_c, 11, 70, 127
1, 77199, Note_off_c, 7, 67, 127
1, 77200, Note_on_c, 0, 72, 127
1, 77200, Note_on_c, 10, 69, 127
1, 77200, Note_on_c, 10, 45, 127
1, 77473, Note_off_c, 10, 45, 127
1, 77473, Note_off_c, 4, 76, 127
1, 77474, Note_on_c, 5, 77, 127
1, 77474, Note_on_c, 10, 57, 127
1, 77610, Note_off_c, 10, 57, 127
1, 77611, Note_on_c, 0, 60, 127
1, 77742, Note_off_c, 10, 69, 127
1, 77742, Note_off_c, 0, 72, 127
1, 77746, Note_off_c, 0, 60, 127
1, 77747, Note_on_c, 0, 72, 127
1, 77747, Note_on_c, 10, 69, 127
1, 77747, Note_on_c, 10, 57, 127
1, 77883, Note_off_c, 10, 57, 127
1, 77884, Note_on_c, 5, 53, 127
1, 78020, Note_off_c, 5, 53, 127
1, 78020, Note_off_c, 10, 69, 127
1, 78020, Note_off_c, 0, 72, 127
1, 78021, Note_on_c, 11, 70, 127
1, 78021, Note_on_c, 2, 74, 127
1, 78021, Note_on_c, 11, 46, 127
1, 78294, Note_off_c, 11, 46, 127
1, 78294, Note_off_c, 5, 77, 127
1, 78295, Note_on_c, 7, 79, 127
1, 78295, Note_on_c, 11, 58, 127
1, 78431, Note_off_c, 11, 58, 127
1, 78432, Note_on_c, 2, 62, 127
1, 78563, Note_off_c, 2, 74, 127
1, 78563, Note_off_c, 11, 70, 127
1, 78567, Note_off_c, 2, 62, 127
1, 78568, Note_on_c, 11, 70, 127
1, 78568, Note_on_c, 2, 74, 127
1, 78568, Note_on_c, 11, 58, 127
1, 78704, Note_off_c, 11, 58, 127
1, 78705, Note_on_c, 7, 55, 127
1, 78841, Note_off_c, 7, 55, 127
1, 78841, Note_off_c, 2, 74, 127
1, 78841, Note_off_c, 11, 70, 127
1, 78842, Note_on_c, 10, 69, 127
1, 78842, Note_on_c, 4, 76, 127
1, 78842, Note_on_c, 1, 49, 127
1, 79115, Note_off_c, 4, 76, 127
1, 79115, Note_off_c, 7, 79, 127
1, 79116, Note_on_c, 5, 77, 127
1, 79116, Note_on_c, 7, 55, 127
1, 79252, Note_off_c, 5, 77, 127
1, 79253, Note_on_c, 4, 76, 127
1, 79384, Note_off_c, 1, 49, 127
1, 79384, Note_off_c, 10, 69, 127
1, 79388, Note_off_c, 4, 76, 127
1, 79388, Note_off_c, 7, 55, 127
1, 79389, Note_on_c, 10, 81, 127
1, 79389, Note_on_c, 2, 50, 127
1, 79389, Note_on_c, 5, 53, 127
1, 79662, Note_off_c, 5, 53, 127
1, 79662, Note_off_c, 2, 50, 127
1, 79662, Note_off_c, 10, 81, 127
1, 79663, Note_on_c, 11, 82, 127
1, 79663, Note_on_c, 7, 43, 127
1, 79663, Note_on_c, 4, 52, 127
1, 79799, Note_off_c, 4, 52, 127
1, 79800, Note_on_c, 2, 50, 127
1, 79934, Note_off_c, 7, 43, 127
1, 79935, Note_off_c, 11, 82, 127
1, 79936, Note_on_c, 5, 77, 127
1, 79936, Note_on_c, 10, 45, 127
1, 80026, Note_off_c, 5, 77, 127
1, 80027, Note_on_c, 4, 76, 127
1, 80117, Note_off_c, 4, 76, 127
1, 80118, Note_on_c, 5, 77, 127
1, 80198, Note_off_c, 2, 50, 127
1, 80208, Note_off_c, 5, 77, 127
1, 80209, Note_on_c, 4, 76, 127
1, 80209, Note_on_c, 1, 49, 127
1, 80345, Note_off_c, 4, 76, 127
1, 80346, Note_on_c, 2, 74, 127
1, 80477, Note_off_c, 10, 45, 127
1, 80481, Note_off_c, 2, 74, 127
1, 80481, Note_off_c, 1, 49, 127
1, 80482, Note_on_c, 2, 74, 127
1, 80482, Note_on_c, 2, 50, 127
1, 80482, Note_on_c, 2, 38, 127
1, 80716, Note_off_c, 2, 74, 127
1, 80761, Note_off_c, 2, 38, 127
1, 80761, Note_off_c, 2, 50, 127
1, 80778, Note_on_c, 7, 55, 127
1, 80778, Note_on_c, 3, 75, 127
1, 80917, Note_off_c, 7, 55, 127
1, 80918, Note_on_c, 11, 58, 127
1, 81057, Note_off_c, 11, 58, 127
1, 81058, Note_on_c, 7, 55, 127
1, 81058, Note_on_c, 11, 70, 127
1, 81058, Note_on_c, 7, 67, 127
1, 81197, Note_off_c, 7, 55, 127
1, 81198, Note_on_c, 3, 51, 127
1, 81337, Note_off_c, 3, 51, 127
1, 81337, Note_off_c, 7, 67, 127
1, 81337, Note_off_c, 11, 70, 127
1, 81338, Note_on_c, 8, 44, 127
1, 81338, Note_on_c, 0, 72, 127
1, 81338, Note_on_c, 8, 68, 127
1, 81618, Note_off_c, 8, 44, 127
1, 81618, Note_off_c, 3, 75, 127
1, 81619, Note_on_c, 8, 56, 127
1, 81619, Note_on_c, 5, 77, 127
1, 81748, Note_off_c, 8, 68, 127
1, 81748, Note_off_c, 0, 72, 127
1, 81758, Note_off_c, 8, 56, 127
1, 81759, Note_on_c, 0, 60, 127
1, 81898, Note_off_c, 0, 60, 127
1, 81899, Note_on_c, 8, 56, 127
1, 81899, Note_on_c, 0, 72, 127
1, 81899, Note_on_c, 8, 68, 127
1, 82038, Note_off_c, 8, 56, 127
1, 82039, Note_on_c, 5, 53, 127
1, 82178, Note_off_c, 5, 53, 127
1, 82178, Note_off_c, 8, 68, 127
1, 82178, Note_off_c, 0, 72, 127
1, 82179, Note_on_c, 12, 47, 127
1, 82179, Note_on_c, 2, 74, 127
1, 82179, Note_on_c, 7, 67, 127
1, 82459, Note_off_c, 2, 74, 127
1, 82459, Note_off_c, 5, 77, 127
1, 82460, Note_on_c, 5, 53, 127
1, 82460, Note_on_c, 3, 75, 127
1, 82589, Note_off_c, 7, 67, 127
1, 82599, Note_off_c, 3, 75, 127
1, 82600, Note_on_c, 2, 74, 127
1, 82735, Note_off_c, 12, 47, 127
1, 82739, Note_off_c, 2, 74, 127
1, 82739, Note_off_c, 5, 53, 127
1, 82740, Note_on_c, 0, 48, 127
1, 82740, Note_on_c, 3, 51, 127
1, 82740, Note_on_c, 7, 79, 127
1, 83020, Note_off_c, 7, 79, 127
1, 83020, Note_off_c, 3, 51, 127
1, 83020, Note_off_c, 0, 48, 127
1, 83021, Note_on_c, 5, 41, 127
1, 83021, Note_on_c, 2, 50, 127
1, 83021, Note_on_c, 8, 80, 127
1, 83160, Note_off_c, 2, 50, 127
1, 83161, Note_on_c, 0, 48, 127
1, 83299, Note_off_c, 5, 41, 127
1, 83300, Note_off_c, 8, 80, 127
1, 83301, Note_on_c, 7, 43, 127
1, 83301, Note_on_c, 2, 74, 127
1, 83411, Note_on_c, 0, 72, 127
1, 83417, Note_off_c, 2, 74, 127
1, 83521, Note_on_c, 2, 74, 127
1, 83527, Note_off_c, 0, 72, 127
1, 83571, Note_off_c, 0, 48, 127
1, 83583, Note_on_c, 12, 47, 127
1, 83723, Note_on_c, 0, 72, 127
1, 83726, Note_off_c, 2, 74, 127
1, 83858, Note_off_c, 7, 43, 127
1, 83862, Note_off_c, 0, 72, 127
1, 83862, Note_off_c, 12, 47, 127
1, 83863, Note_on_c, 0, 36, 127
1, 83863, Note_on_c, 0, 48, 127
1, 83863, Note_on_c, 0, 72, 127
1, 84000, Note_off_c, 0, 72, 127
1, 84001, Note_on_c, 0, 84, 127
1, 84138, Note_off_c, 0, 84, 127
1, 84138, Note_off_c, 0, 48, 127
1, 84138, Note_off_c, 0, 36, 127
1, 84139, Note_on_c, 3, 75, 127
1, 84139, Note_on_c, 12, 83, 127
1, 84276, Note_off_c, 12, 83, 127
1, 84277, Note_on_c, 0, 84, 127
1, 84414, Note_off_c, 0, 84, 127
1, 84414, Note_off_c, 3, 75, 127
1, 84415, Note_on_c, 0, 72, 127
1, 84415, Note_on_c, 7, 79, 127
1, 84552, Note_off_c, 7, 79, 127
1, 84553, Note_on_c, 0, 84, 127
1, 84690, Note_off_c, 0, 84, 127
1, 84690, Note_off_c, 0, 72, 127
1, 84691, Note_on_c, 7, 67, 127
1, 84691, Note_on_c, 3, 75, 127
1, 84828, Note_off_c, 3, 75, 127
1, 84829, Note_on_c, 7, 79, 127
1, 84966, Note_off_c, 7, 79, 127
1, 84966, Note_off_c, 7, 67, 127
1, 84967, Note_on_c, 0, 72, 127
1, 84967, Note_on_c, 5, 77, 127
1, 85104, Note_off_c, 5, 77, 127
1, 85105, Note_on_c, 7, 79, 127
1, 85242, Note_off_c, 7, 79, 127
1, 85242, Note_off_c, 0, 72, 127
1, 85243, Note_on_c, 7, 67, 127
1, 85243, Note_on_c, 3, 75, 127
1, 85380, Note_off_c, 3, 75, 127
1, 85381, Note_on_c, 7, 79, 127
1, 85518, Note_off_c, 7, 79, 127
1, 85518, Note_off_c, 7, 67, 127
1, 85519, Note_on_c, 3, 63, 127
1, 85519, Note_on_c, 0, 72, 127
1, 85656, Note_off_c, 0, 72, 127
1, 85657, Note_on_c, 3, 75, 127
1, 85794, Note_off_c, 3, 75, 127
1, 85794, Note_off_c, 3, 63, 127
1, 85795, Note_on_c, 7, 67, 127
1, 85795, Note_on_c, 2, 74, 127
1, 85932, Note_off_c, 2, 74, 127
1, 85933, Note_on_c, 3, 75, 127
1, 86070, Note_off_c, 3, 75, 127
1, 86070, Note_off_c, 7, 67, 127
1, 86071, Note_on_c, 3, 63, 127
1, 86071, Note_on_c, 0, 72, 127
1, 86208, Note_off_c, 0, 72, 127
1, 86209, Note_on_c, 3, 75, 127
1, 86346, Note_off_c, 3, 75, 127
1, 86346, Note_off_c, 3, 63, 127
1, 86347, Note_on_c, 0, 60, 127
1, 86347, Note_on_c, 7, 67, 127
1, 86484, Note_off_c, 7, 67, 127
1, 86485, Note_on_c, 0, 72, 127
1, 86622, Note_off_c, 0, 72, 127
1, 86622, Note_off_c, 0, 60, 127
1, 86623, Note_on_c, 3, 63, 127
1, 86623, Note_on_c, 12, 71, 127
1, 86760, Note_off_c, 12, 71, 127
1, 86761, Note_on_c, 0, 72, 127
1, 86898, Note_off_c, 0, 72, 127
1, 86898, Note_off_c, 3, 63, 127
1, 86899, Note_on_c, 0, 60, 127
1, 86899, Note_on_c, 7, 67, 127
1, 87036, Note_off_c, 7, 67, 127
1, 87037, Note_on_c, 0, 72, 127
1, 87174, Note_off_c, 0, 72, 127
1, 87174, Note_off_c, 0, 60, 127
1, 87175, Note_on_c, 7, 55, 127
1, 87175, Note_on_c, 3, 63, 127
1, 87312, Note_off_c, 3, 63, 127
1, 87313, Note_on_c, 7, 67, 127
1, 87450, Note_off_c, 7, 67, 127
1, 87450, Note_off_c, 7, 55, 127
1, 87451, Note_on_c, 0, 60, 127
1, 87451, Note_on_c, 5, 65, 127
1, 87588, Note_off_c, 5, 65, 127
1, 87589, Note_on_c, 7, 67, 127
1, 87726, Note_off_c, 7, 67, 127
1, 87726, Note_off_c, 0, 60, 127
1, 87727, Note_on_c, 7, 55, 127
1, 87727, Note_on_c, 3, 63, 127
1, 87864, Note_off_c, 3, 63, 127
1, 87865, Note_on_c, 7, 67, 127
1, 88002, Note_off_c, 7, 67, 127
1, 88002, Note_off_c, 7, 55, 127
1, 88003, Note_on_c, 3, 51, 127
1, 88003, Note_on_c, 0, 60, 127
1, 88137, Note_off_c, 3, 51, 127
1, 88138, Note_on_c, 5, 53, 127
1, 88272, Note_off_c, 5, 53, 127
1, 88272, Note_off_c, 0, 60, 127
1, 88273, Note_on_c, 3, 63, 127
1, 88273, Note_on_c, 7, 55, 127
1, 88273, Note_on_c, 7, 67, 127
1, 88273, Note_on_c, 0, 72, 127
1, 88407, Note_off_c, 7, 55, 127
1, 88408, Note_on_c, 5, 53, 127
1, 88541, Note_off_c, 3, 63, 127
1, 88542, Note_off_c, 5, 53, 127
1, 88542, Note_off_c, 0, 72, 127
1, 88542, Note_off_c, 7, 67, 127
1, 88543, Note_on_c, 3, 51, 127
1, 88543, Note_on_c, 12, 71, 127
1, 88543, Note_on_c, 2, 74, 127
1, 88543, Note_on_c, 5, 65, 127
1, 88677, Note_off_c, 3, 51, 127
1, 88678, Note_on_c, 2, 50, 127
1, 88812, Note_off_c, 2, 50, 127
1, 88812, Note_off_c, 5, 65, 127
1, 88812, Note_off_c, 2, 74, 127
1, 88812, Note_off_c, 12, 71, 127
1, 88813, Note_on_c, 0, 48, 127
1, 88813, Note_on_c, 3, 75, 127
1, 88813, Note_on_c, 0, 72, 127
1, 88813, Note_on_c, 7, 67, 127
1, 89083, Note_off_c, 7, 67, 127
1, 89083, Note_off_c, 0, 72, 127
1, 89083, Note_off_c, 3, 75, 127
1, 89084, Note_on_c, 2, 74, 127
1, 89084, Note_on_c, 5, 65, 127
1, 89354, Note_off_c, 5, 65, 127
1, 89354, Note_off_c, 2, 74, 127
1, 89354, Note_off_c, 0, 48, 127
1, 89355, Note_on_c, 3, 63, 127
1, 89355, Note_on_c, 0, 60, 127
1, 89355, Note_on_c, 7, 67, 127
1, 89355, Note_on_c, 0, 72, 127
1, 89625, Note_off_c, 0, 72, 127
1, 89625, Note_off_c, 7, 67, 127
1, 89625, Note_off_c, 0, 60, 127
1, 89625, Note_off_c, 3, 63, 127
1, 89626, Note_on_c, 2, 62, 127
1, 89626, Note_on_c, 12, 59, 127
1, 89626, Note_on_c, 7, 67, 127
1, 89626, Note_on_c, 7, 79, 127
1, 89896, Note_off_c, 7, 79, 127
1, 89897, Note_on_c, 2, 74, 127
1, 90167, Note_off_c, 2, 74, 127
1, 90168, Note_on_c, 7, 79, 127
1, 90438, Note_off_c, 7, 79, 127
1, 90438, Note_off_c, 7, 67, 127
1, 90438, Note_off_c, 12, 59, 127
1, 90438, Note_off_c, 2, 62, 127
1, 90439, Note_on_c, 7, 55, 127
1, 90439, Note_on_c, 2, 62, 127
1, 90439, Note_on_c, 12, 59, 127
1, 90439, Note_on_c, 7, 79, 127
1, 90709, Note_off_c, 7, 79, 127
1, 90710, Note_on_c, 12, 71, 127
1, 90980, Note_off_c, 12, 71, 127
1, 90981, Note_on_c, 7, 79, 127
1, 91251, Note_off_c, 7, 79, 127
1, 91251, Note_off_c, 12, 59, 127
1, 91251, Note_off_c, 2, 62, 127
1, 91251, Note_off_c, 7, 55, 127
1, 91252, Note_on_c, 0, 48, 127
1, 91252, Note_on_c, 3, 75, 127
1, 91386, Note_off_c, 3, 75, 127
1, 91387, Note_on_c, 7, 55, 127
1, 91521, Note_off_c, 7, 55, 127
1, 91521, Note_off_c, 0, 48, 127
1, 91522, Note_on_c, 7, 55, 127
1, 91522, Note_on_c, 10, 57, 127
1, 91656, Note_off_c, 10, 57, 127
1, 91657, Note_on_c, 12, 59, 127
1, 91791, Note_off_c, 12, 59, 127
1, 91791, Note_off_c, 7, 55, 127
1, 91792, Note_on_c, 3, 51, 127
1, 91792, Note_on_c, 0, 60, 127
1, 91926, Note_off_c, 0, 60, 127
1, 91927, Note_on_c, 2, 62, 127
1, 92061, Note_off_c, 2, 62, 127
1, 92061, Note_off_c, 3, 51, 127
1, 92062, Note_on_c, 0, 48, 127
1, 92062, Note_on_c, 3, 63, 127
1, 92196, Note_off_c, 3, 63, 127
1, 92197, Note_on_c, 2, 62, 127
1, 92331, Note_off_c, 2, 62, 127
1, 92331, Note_off_c, 0, 48, 127
1, 92332, Note_on_c, 3, 51, 127
1, 92332, Note_on_c, 0, 60, 127
1, 92466, Note_off_c, 0, 60, 127
1, 92467, Note_on_c, 2, 62, 127
1, 92601, Note_off_c, 2, 62, 127
1, 92601, Note_off_c, 3, 51, 127
1, 92602, Note_on_c, 0, 48, 127
1, 92602, Note_on_c, 3, 63, 127
1, 92736, Note_off_c, 3, 63, 127
1, 92737, Note_on_c, 5, 65, 127
1, 92871, Note_off_c, 5, 65, 127
1, 92871, Note_off_c, 0, 48, 127
1, 92872, Note_on_c, 12, 47, 127
1, 92872, Note_on_c, 7, 67, 127
1, 93006, Note_off_c, 7, 67, 127
1, 93007, Note_on_c, 12, 71, 127
1, 93141, Note_off_c, 12, 71, 127
1, 93141, Note_off_c, 12, 47, 127
1, 93142, Note_on_c, 7, 43, 127
1, 93142, Note_on_c, 2, 74, 127
1, 93276, Note_off_c, 2, 74, 127
1, 93277, Note_on_c, 12, 71, 127
1, 93411, Note_off_c, 12, 71, 127
1, 93411, Note_off_c, 7, 43, 127
1, 93412, Note_on_c, 10, 45, 127
1, 93412, Note_on_c, 7, 67, 127
1, 93546, Note_off_c, 7, 67, 127
1, 93547, Note_on_c, 2, 62, 127
1, 93681, Note_off_c, 2, 62, 127
1, 93681, Note_off_c, 10, 45, 127
1, 93682, Note_on_c, 12, 47, 127
1, 93682, Note_on_c, 5, 65, 127
1, 93816, Note_off_c, 5, 65, 127
1, 93817, Note_on_c, 12, 71, 127
1, 93951, Note_off_c, 12, 71, 127
1, 93951, Note_off_c, 12, 47, 127
1, 93952, Note_on_c, 10, 45, 127
1, 93952, Note_on_c, 2, 74, 127
1, 94086, Note_off_c, 2, 74, 127
1, 94087, Note_on_c, 12, 71, 127
1, 94221, Note_off_c, 12, 71, 127
1, 94221, Note_off_c, 10, 45, 127
1, 94222, Note_on_c, 7, 43, 127
1, 94222, Note_on_c, 5, 65, 127
1, 94356, Note_off_c, 5, 65, 127
1, 94357, Note_on_c, 2, 62, 127
1, 94491, Note_off_c, 2, 62, 127
1, 94491, Note_off_c, 7, 43, 127
1, 94492, Note_on_c, 0, 48, 127
1, 94492, Note_on_c, 3, 63, 127
1, 94762, Note_off_c, 3, 63, 127
1, 94763, Note_on_c, 3, 63, 127
1, 94763, Note_on_c, 0, 72, 127
1, 95033, Note_off_c, 0, 72, 127
1, 95033, Note_off_c, 3, 63, 127
1, 95034, Note_on_c, 5, 65, 127
1, 95034, Note_on_c, 2, 74, 127
1, 95304, Note_off_c, 2, 74, 127
1, 95304, Note_off_c, 5, 65, 127
1, 95304, Note_off_c, 0, 48, 127
1, 95305, Note_on_c, 0, 60, 127
1, 95305, Note_on_c, 7, 67, 127
1, 95305, Note_on_c, 3, 75, 127
1, 95575, Note_off_c, 3, 75, 127
1, 95575, Note_off_c, 0, 60, 127
1, 95576, Note_on_c, 2, 62, 127
1, 95576, Note_on_c, 2, 74, 127
1, 95841, Note_off_c, 7, 67, 127
1, 95845, Note_off_c, 2, 74, 127
1, 95845, Note_off_c, 2, 62, 127
1, 95846, Note_on_c, 3, 63, 127
1, 95846, Note_on_c, 0, 72, 127
1, 95846, Note_on_c, 7, 67, 127
1, 96116, Note_off_c, 7, 67, 127
1, 96116, Note_off_c, 0, 72, 127
1, 96116, Note_off_c, 3, 63, 127
1, 96117, Note_on_c, 12, 59, 127
1, 96117, Note_on_c, 2, 62, 127
1, 96117, Note_on_c, 7, 79, 127
1, 96117, Note_on_c, 7, 67, 127
1, 96387, Note_off_c, 7, 79, 127
1, 96388, Note_on_c, 2, 74, 127
1, 96658, Note_off_c, 2, 74, 127
1, 96659, Note_on_c, 7, 79, 127
1, 96929, Note_off_c, 7, 79, 127
1, 96929, Note_off_c, 7, 67, 127
1, 96929, Note_off_c, 2, 62, 127
1, 96929, Note_off_c, 12, 59, 127
1, 96930, Note_on_c, 12, 59, 127
1, 96930, Note_on_c, 7, 55, 127
1, 96930, Note_on_c, 2, 62, 127
1, 96930, Note_on_c, 7, 79, 127
1, 97200, Note_off_c, 7, 79, 127
1, 97201, Note_on_c, 12, 71, 127
1, 97471, Note_off_c, 12, 71, 127
1, 97472, Note_on_c, 7, 79, 127
1, 97742, Note_off_c, 7, 79, 127
1, 97742, Note_off_c, 2, 62, 127
1, 97742, Note_off_c, 7, 55, 127
1, 97742, Note_off_c, 12, 59, 127
1, 97743, Note_on_c, 0, 48, 127
1, 97743, Note_on_c, 7, 55, 127
1, 97743, Note_on_c, 3, 75, 127
1, 98013, Note_off_c, 3, 75, 127
1, 98014, Note_on_c, 0, 72, 127
1, 98014, Note_on_c, 3, 63, 127
1, 98284, Note_off_c, 3, 63, 127
1, 98284, Note_off_c, 0, 72, 127
1, 98285, Note_on_c, 5, 65, 127
1, 98285, Note_on_c, 2, 74, 127
1, 98555, Note_off_c, 2, 74, 127
1, 98555, Note_off_c, 5, 65, 127
1, 98555, Note_off_c, 7, 55, 127
1, 98555, Note_off_c, 0, 48, 127
1, 98556, Note_on_c, 0, 60, 127
1, 98556, Note_on_c, 3, 75, 127
1, 98556, Note_on_c, 7, 67, 127
1, 98826, Note_off_c, 3, 75, 127
1, 98826, Note_off_c, 0, 60, 127
1, 98827, Note_on_c, 2, 62, 127
1, 98827, Note_on_c, 2, 74, 127
1, 99097, Note_off_c, 2, 74, 127
1, 99097, Note_off_c, 2, 62, 127
1, 99098, Note_on_c, 3, 63, 127
1, 99098, Note_on_c, 0, 72, 127
1, 99368, Note_off_c, 0, 72, 127
1, 99368, Note_off_c, 3, 63, 127
1, 99369, Note_on_c, 2, 62, 127
1, 99369, Note_on_c, 12, 59, 127
1, 99369, Note_on_c, 7, 79, 127
1, 99639, Note_off_c, 12, 59, 127
1, 99639, Note_off_c, 2, 62, 127
1, 99640, Note_on_c, 12, 59, 127
1, 99640, Note_on_c, 7, 55, 127
1, 99900, Note_off_c, 7, 67, 127
1, 99910, Note_off_c, 7, 55, 127
1, 99910, Note_off_c, 12, 59, 127
1, 99910, Note_off_c, 7, 79, 127
1, 99911, Note_on_c, 10, 57, 127
1, 99911, Note_on_c, 0, 60, 127
1, 99911, Note_on_c, 7, 67, 127
1, 100181, Note_off_c, 0, 60, 127
1, 100181, Note_off_c, 10, 57, 127
1, 100182, Note_on_c, 2, 62, 127
1, 100182, Note_on_c, 12, 59, 127
1, 100452, Note_off_c, 12, 59, 127
1, 100452, Note_off_c, 2, 62, 127
1, 100452, Note_off_c, 7, 67, 127
1, 100453, Note_on_c, 10, 57, 127
1, 100453, Note_on_c, 0, 60, 127
1, 100453, Note_on_c, 7, 79, 127
1, 100723, Note_off_c, 7, 79, 127
1, 100723, Note_off_c, 0, 60, 127
1, 100723, Note_off_c, 10, 57, 127
1, 100724, Note_on_c, 12, 59, 127
1, 100724, Note_on_c, 7, 55, 127
1, 100724, Note_on_c, 7, 79, 127
1, 100994, Note_off_c, 7, 79, 127
1, 100994, Note_off_c, 7, 55, 127
1, 100994, Note_off_c, 12, 59, 127
1, 100995, Note_on_c, 8, 56, 127
1, 100995, Note_on_c, 0, 84, 127
1, 101129, Note_off_c, 8, 56, 127
1, 101130, Note_on_c, 0, 60, 127
1, 101264, Note_off_c, 0, 60, 127
1, 101264, Note_off_c, 0, 84, 127
1, 101265, Note_on_c, 5, 65, 127
1, 101265, Note_on_c, 5, 77, 127
1, 101399, Note_off_c, 5, 65, 127
1, 101400, Note_on_c, 3, 63, 127
1, 101534, Note_off_c, 3, 63, 127
1, 101534, Note_off_c, 5, 77, 127
1, 101535, Note_on_c, 5, 65, 127
1, 101535, Note_on_c, 5, 77, 127
1, 101669, Note_off_c, 5, 65, 127
1, 101670, Note_on_c, 8, 56, 127
1, 101804, Note_off_c, 8, 56, 127
1, 101804, Note_off_c, 5, 77, 127
1, 101805, Note_on_c, 7, 55, 127
1, 101805, Note_on_c, 11, 82, 127
1, 101939, Note_off_c, 7, 55, 127
1, 101940, Note_on_c, 11, 58, 127
1, 102074, Note_off_c, 11, 58, 127
1, 102074, Note_off_c, 11, 82, 127
1, 102075, Note_on_c, 3, 63, 127
1, 102075, Note_on_c, 3, 75, 127
1, 102209, Note_off_c, 3, 63, 127
1, 102210, Note_on_c, 2, 62, 127
1, 102344, Note_off_c, 2, 62, 127
1, 102344, Note_off_c, 3, 75, 127
1, 102345, Note_on_c, 3, 63, 127
1, 102345, Note_on_c, 3, 75, 127
1, 102479, Note_off_c, 3, 63, 127
1, 102480, Note_on_c, 7, 55, 127
1, 102614, Note_off_c, 7, 55, 127
1, 102614, Note_off_c, 3, 75, 127
1, 102615, Note_on_c, 5, 53, 127
1, 102615, Note_on_c, 8, 80, 127
1, 102749, Note_off_c, 5, 53, 127
1, 102750, Note_on_c, 8, 56, 127
1, 102884, Note_off_c, 8, 56, 127
1, 102884, Note_off_c, 8, 80, 127
1, 102885, Note_on_c, 2, 62, 127
1, 102885, Note_on_c, 5, 77, 127
1, 103019, Note_off_c, 2, 62, 127
1, 103020, Note_on_c, 0, 60, 127
1, 103154, Note_off_c, 0, 60, 127
1, 103154, Note_off_c, 5, 77, 127
1, 103155, Note_on_c, 2, 62, 127
1, 103155, Note_on_c, 7, 79, 127
1, 103289, Note_off_c, 2, 62, 127
1, 103290, Note_on_c, 5, 53, 127
1, 103424, Note_off_c, 5, 53, 127
1, 103424, Note_off_c, 7, 79, 127
1, 103425, Note_on_c, 3, 51, 127
1, 103425, Note_on_c, 8, 80, 127
1, 103559, Note_off_c, 3, 51, 127
1, 103560, Note_on_c, 7, 55, 127
1, 103694, Note_off_c, 7, 55, 127
1, 103694, Note_off_c, 8, 80, 127
1, 103695, Note_on_c, 0, 60, 127
1, 103695, Note_on_c, 5, 77, 127
1, 103829, Note_off_c, 0, 60, 127
1, 103830, Note_on_c, 11, 58, 127
1, 103964, Note_off_c, 11, 58, 127
1, 103964, Note_off_c, 5, 77, 127
1, 103965, Note_on_c, 0, 60, 127
1, 103965, Note_on_c, 7, 79, 127
1, 104099, Note_off_c, 0, 60, 127
1, 104100, Note_on_c, 3, 51, 127
1, 104234, Note_off_c, 3, 51, 127
1, 104234, Note_off_c, 7, 79, 127
1, 104235, Note_on_c, 2, 50, 127
1, 104235, Note_on_c, 8, 80, 127
1, 104369, Note_off_c, 2, 50, 127
1, 104370, Note_on_c, 5, 53, 127
1, 104504, Note_off_c, 5, 53, 127
1, 104504, Note_off_c, 8, 80, 127
1, 104505, Note_on_c, 11, 58, 127
1, 104505, Note_on_c, 5, 77, 127
1, 104639, Note_off_c, 11, 58, 127
1, 104640, Note_on_c, 8, 56, 127
1, 104774, Note_off_c, 8, 56, 127
1, 104774, Note_off_c, 5, 77, 127
1, 104775, Note_on_c, 11, 58, 127
1, 104775, Note_on_c, 7, 79, 127
1, 104909, Note_off_c, 11, 58, 127
1, 104910, Note_on_c, 2, 50, 127
1, 105044, Note_off_c, 2, 50, 127
1, 105044, Note_off_c, 7, 79, 127
1, 105045, Note_on_c, 0, 48, 127
1, 105045, Note_on_c, 8, 80, 127
1, 105179, Note_off_c, 0, 48, 127
1, 105180, Note_on_c, 3, 51, 127
1, 105314, Note_off_c, 3, 51, 127
1, 105314, Note_off_c, 8, 80, 127
1, 105315, Note_on_c, 8, 56, 127
1, 105315, Note_on_c, 5, 77, 127
1, 105449, Note_off_c, 8, 56, 127
1, 105450, Note_on_c, 7, 55, 127
1, 105584, Note_off_c, 7, 55, 127
1, 105584, Note_off_c, 5, 77, 127
1, 105585, Note_on_c, 8, 56, 127
1, 105585, Note_on_c, 7, 79, 127
1, 105719, Note_off_c, 8, 56, 127
1, 105720, Note_on_c, 0, 48, 127
1, 105854, Note_off_c, 0, 48, 127
1, 105854, Note_off_c, 7, 79, 127
1, 105855, Note_on_c, 11, 46, 127
1, 105855, Note_on_c, 8, 80, 127
1, 106125, Note_off_c, 11, 46, 127
1, 106126, Note_on_c, 11, 58, 127
1, 106126, Note_on_c, 11, 70, 127
1, 106126, Note_on_c, 2, 74, 127
1, 106396, Note_off_c, 2, 74, 127
1, 106396, Note_off_c, 11, 58, 127
1, 106397, Note_on_c, 0, 60, 127
1, 106397, Note_on_c, 3, 75, 127
1, 106667, Note_off_c, 3, 75, 127
1, 106667, Note_off_c, 0, 60, 127
1, 106668, Note_on_c, 2, 62, 127
1, 106668, Note_on_c, 5, 77, 127
1, 106938, Note_off_c, 5, 77, 127
1, 106938, Note_off_c, 8, 80, 127
1, 106939, Note_on_c, 3, 75, 127
1, 106939, Note_on_c, 7, 79, 127
1, 107209, Note_off_c, 7, 79, 127
1, 107209, Note_off_c, 3, 75, 127
1, 107209, Note_off_c, 2, 62, 127
1, 107210, Note_on_c, 11, 58, 127
1, 107210, Note_on_c, 5, 77, 127
1, 107210, Note_on_c, 2, 74, 127
1, 107480, Note_off_c, 2, 74, 127
1, 107480, Note_off_c, 5, 77, 127
1, 107480, Note_off_c, 11, 58, 127
1, 107481, Note_on_c, 3, 63, 127
1, 107481, Note_on_c, 3, 75, 127
1, 107481, Note_on_c, 7, 79, 127
1, 107749, Note_off_c, 11, 70, 127
1, 107750, Note_off_c, 7, 79, 127
1, 107750, Note_off_c, 3, 75, 127
1, 107751, Note_on_c, 8, 68, 127
1, 107751, Note_on_c, 2, 74, 127
1, 107751, Note_on_c, 5, 77, 127
1, 108016, Note_off_c, 3, 63, 127
1, 108020, Note_off_c, 5, 77, 127
1, 108020, Note_off_c, 2, 74, 127
1, 108020, Note_off_c, 8, 68, 127
1, 108021, Note_on_c, 8, 56, 127
1, 108021, Note_on_c, 7, 67, 127
1, 108021, Note_on_c, 3, 75, 127
1, 108021, Note_on_c, 0, 72, 127
1, 108291, Note_off_c, 0, 72, 127
1, 108291, Note_off_c, 3, 75, 127
1, 108291, Note_off_c, 7, 67, 127
1, 108291, Note_off_c, 8, 56, 127
1, 108292, Note_on_c, 11, 58, 127
1, 108292, Note_on_c, 5, 65, 127
1, 108292, Note_on_c, 11, 70, 127
1, 108563, Note_on_c, 3, 75, 127
1, 108828, Note_off_c, 11, 70, 127
1, 108832, Note_off_c, 3, 75, 127
1, 108832, Note_off_c, 5, 65, 127
1, 108832, Note_off_c, 11, 58, 127
1, 108833, Note_on_c, 11, 58, 127
1, 108833, Note_on_c, 11, 46, 127
1, 108833, Note_on_c, 8, 68, 127
1, 108833, Note_on_c, 2, 74, 127
1, 109103, Note_off_c, 2, 74, 127
1, 109103, Note_off_c, 8, 68, 127
1, 109103, Note_off_c, 11, 46, 127
1, 109103, Note_off_c, 11, 58, 127
1, 109104, Note_on_c, 3, 51, 127
1, 109104, Note_on_c, 3, 75, 127
1, 109104, Note_on_c, 7, 67, 127
1, 109238, Note_off_c, 7, 67, 127
1, 109239, Note_on_c, 7, 79, 127
1, 109372, Note_off_c, 3, 75, 127
1, 109373, Note_off_c, 7, 79, 127
1, 109373, Note_off_c, 3, 51, 127
1, 109374, Note_on_c, 11, 70, 127
1, 109374, Note_on_c, 5, 77, 127
1, 109508, Note_off_c, 5, 77, 127
1, 109509, Note_on_c, 7, 79, 127
1, 109643, Note_off_c, 7, 79, 127
1, 109643, Note_off_c, 11, 70, 127
1, 109644, Note_on_c, 7, 67, 127
1, 109644, Note_on_c, 3, 75, 127
1, 109780, Note_on_c, 7, 79, 127
1, 109814, Note_off_c, 3, 75, 127
1, 109914, Note_off_c, 7, 79, 127
1, 109914, Note_off_c, 7, 67, 127
1, 109915, Note_on_c, 3, 63, 127
1, 109915, Note_on_c, 0, 72, 127
1, 110051, Note_on_c, 3, 75, 127
1, 110184, Note_off_c, 0, 72, 127
1, 110185, Note_off_c, 3, 75, 127
1, 110185, Note_off_c, 3, 63, 127
1, 110186, Note_on_c, 7, 67, 127
1, 110186, Note_on_c, 2, 74, 127
1, 110320, Note_off_c, 2, 74, 127
1, 110321, Note_on_c, 3, 75, 127
1, 110455, Note_off_c, 3, 75, 127
1, 110455, Note_off_c, 7, 67, 127
1, 110456, Note_on_c, 3, 63, 127
1, 110456, Note_on_c, 0, 72, 127
1, 110592, Note_on_c, 3, 75, 127
1, 110626, Note_off_c, 0, 72, 127
1, 110726, Note_off_c, 3, 75, 127
1, 110726, Note_off_c, 3, 63, 127
1, 110727, Note_on_c, 0, 60, 127
1, 110727, Note_on_c, 10, 69, 127
1, 110863, Note_on_c, 0, 72, 127
1, 110996, Note_off_c, 10, 69, 127
1, 110997, Note_off_c, 0, 72, 127
1, 110997, Note_off_c, 0, 60, 127
1, 110998, Note_on_c, 3, 63, 127
1, 110998, Note_on_c, 11, 70, 127
1, 111132, Note_off_c, 11, 70, 127
1, 111133, Note_on_c, 0, 72, 127
1, 111267, Note_off_c, 0, 72, 127
1, 111267, Note_off_c, 3, 63, 127
1, 111268, Note_on_c, 0, 60, 127
1, 111268, Note_on_c, 10, 69, 127
1, 111404, Note_on_c, 0, 72, 127
1, 111438, Note_off_c, 10, 69, 127
1, 111538, Note_off_c, 0, 72, 127
1, 111538, Note_off_c, 0, 60, 127
1, 111539, Note_on_c, 10, 57, 127
1, 111539, Note_on_c, 6, 66, 127
1, 111675, Note_on_c, 10, 69, 127
1, 111808, Note_off_c, 6, 66, 127
1, 111809, Note_off_c, 10, 69, 127
1, 111809, Note_off_c, 10, 57, 127
1, 111810, Note_on_c, 0, 60, 127
1, 111810, Note_on_c, 7, 67, 127
1, 111944, Note_off_c, 7, 67, 127
1, 111945, Note_on_c, 10, 69, 127
1, 112079, Note_off_c, 10, 69, 127
1, 112079, Note_off_c, 0, 60, 127
1, 112080, Note_on_c, 10, 57, 127
1, 112080, Note_on_c, 6, 66, 127
1, 112216, Note_on_c, 10, 69, 127
1, 112250, Note_off_c, 6, 66, 127
1, 112350, Note_off_c, 10, 69, 127
1, 112350, Note_off_c, 10, 57, 127
1, 112351, Note_on_c, 11, 58, 127
1, 112351, Note_on_c, 2, 62, 127
1, 112485, Note_off_c, 11, 58, 127
1, 112486, Note_on_c, 10, 57, 127
1, 112620, Note_off_c, 10, 57, 127
1, 112620, Note_off_c, 2, 62, 127
1, 112621, Note_on_c, 11, 58, 127
1, 112621, Note_on_c, 7, 67, 127
1, 112621, Note_on_c, 2, 62, 127
1, 112757, Note_on_c, 0, 60, 127
1, 112890, Note_off_c, 11, 58, 127
1, 112891, Note_off_c, 0, 60, 127
1, 112891, Note_off_c, 2, 62, 127
1, 112891, Note_off_c, 7, 67, 127
1, 112892, Note_on_c, 0, 60, 127
1, 112892, Note_on_c, 11, 58, 127
1, 112892, Note_on_c, 10, 69, 127
1, 112892, Note_on_c, 6, 66, 127
1, 113026, Note_off_c, 11, 58, 127
1, 113027, Note_on_c, 10, 57, 127
1, 113160, Note_off_c, 0, 60, 127
1, 113161, Note_off_c, 10, 57, 127
1, 113161, Note_off_c, 6, 66, 127
1, 113161, Note_off_c, 10, 69, 127
1, 113162, Note_on_c, 2, 62, 127
1, 113162, Note_on_c, 7, 55, 127
1, 113162, Note_on_c, 7, 67, 127
1, 113162, Note_on_c, 11, 70, 127
1, 113432, Note_off_c, 11, 70, 127
1, 113432, Note_off_c, 7, 67, 127
1, 113432, Note_off_c, 2, 62, 127
1, 113433, Note_on_c, 0, 60, 127
1, 113433, Note_on_c, 10, 69, 127
1, 113698, Note_off_c, 7, 55, 127
1, 113702, Note_off_c, 10, 69, 127
1, 113702, Note_off_c, 0, 60, 127
1, 113703, Note_on_c, 11, 58, 127
1, 113703, Note_on_c, 7, 55, 127
1, 113703, Note_on_c, 7, 67, 127
1, 113703, Note_on_c, 2, 62, 127
1, 113973, Note_off_c, 2, 62, 127
1, 113973, Note_off_c, 7, 67, 127
1, 113973, Note_off_c, 7, 55, 127
1, 113973, Note_off_c, 11, 58, 127
1, 113974, Note_on_c, 6, 54, 127
1, 113974, Note_on_c, 10, 57, 127
1, 113974, Note_on_c, 2, 62, 127
1, 113974, Note_on_c, 2, 74, 127
1, 114108, Note_off_c, 2, 74, 127
1, 114109, Note_on_c, 6, 78, 127
1, 114243, Note_off_c, 6, 78, 127
1, 114243, Note_off_c, 2, 62, 127
1, 114243, Note_off_c, 10, 57, 127
1, 114243, Note_off_c, 6, 54, 127
1, 114244, Note_on_c, 2, 50, 127
1, 114244, Note_on_c, 10, 81, 127
1, 114378, Note_off_c, 10, 81, 127
1, 114379, Note_on_c, 6, 78, 127
1, 114513, Note_off_c, 6, 78, 127
1, 114513, Note_off_c, 2, 50, 127
1, 114514, Note_on_c, 4, 52, 127
1, 114514, Note_on_c, 2, 74, 127
1, 114648, Note_off_c, 2, 74, 127
1, 114649, Note_on_c, 10, 69, 127
1, 114783, Note_off_c, 10, 69, 127
1, 114783, Note_off_c, 4, 52, 127
1, 114784, Note_on_c, 6, 54, 127
1, 114784, Note_on_c, 0, 72, 127
1, 114918, Note_off_c, 0, 72, 127
1, 114919, Note_on_c, 6, 78, 127
1, 115053, Note_off_c, 6, 78, 127
1, 115053, Note_off_c, 6, 54, 127
1, 115054, Note_on_c, 4, 52, 127
1, 115054, Note_on_c, 10, 81, 127
1, 115188, Note_off_c, 10, 81, 127
1, 115189, Note_on_c, 6, 78, 127
1, 115323, Note_off_c, 6, 78, 127
1, 115323, Note_off_c, 4, 52, 127
1, 115324, Note_on_c, 2, 50, 127
1, 115324, Note_on_c, 0, 72, 127
1, 115458, Note_off_c, 0, 72, 127
1, 115459, Note_on_c, 10, 69, 127
1, 115593, Note_off_c, 10, 69, 127
1, 115593, Note_off_c, 2, 50, 127
1, 115594, Note_on_c, 7, 55, 127
1, 115594, Note_on_c, 7, 67, 127
1, 115728, Note_off_c, 7, 67, 127
1, 115729, Note_on_c, 12, 71, 127
1, 115863, Note_off_c, 12, 71, 127
1, 115863, Note_off_c, 7, 55, 127
1, 115864, Note_on_c, 7, 43, 127
1, 115864, Note_on_c, 2, 74, 127
1, 115998, Note_off_c, 2, 74, 127
1, 115999, Note_on_c, 12, 71, 127
1, 116133, Note_off_c, 12, 71, 127
1, 116133, Note_off_c, 7, 43, 127
1, 116134, Note_on_c, 10, 45, 127
1, 116134, Note_on_c, 7, 67, 127
1, 116268, Note_off_c, 7, 67, 127
1, 116269, Note_on_c, 2, 62, 127
1, 116403, Note_off_c, 2, 62, 127
1, 116403, Note_off_c, 10, 45, 127
1, 116404, Note_on_c, 12, 47, 127
1, 116404, Note_on_c, 5, 65, 127
1, 116538, Note_off_c, 5, 65, 127
1, 116539, Note_on_c, 12, 71, 127
1, 116673, Note_off_c, 12, 71, 127
1, 116673, Note_off_c, 12, 47, 127
1, 116674, Note_on_c, 10, 45, 127
1, 116674, Note_on_c, 2, 74, 127
1, 116808, Note_off_c, 2, 74, 127
1, 116809, Note_on_c, 12, 71, 127
1, 116943, Note_off_c, 12, 71, 127
1, 116943, Note_off_c, 10, 45, 127
1, 116944, Note_on_c, 7, 43, 127
1, 116944, Note_on_c, 5, 65, 127
1, 117078, Note_off_c, 5, 65, 127
1, 117079, Note_on_c, 2, 62, 127
1, 117199, Note_off_c, 2, 62, 127
1, 117213, Note_off_c, 7, 43, 127
1, 117214, Note_on_c, 0, 48, 127
1, 117214, Note_on_c, 0, 72, 127
1, 117348, Note_off_c, 0, 72, 127
1, 117349, Note_on_c, 4, 76, 127
1, 117483, Note_off_c, 4, 76, 127
1, 117483, Note_off_c, 0, 48, 127
1, 117484, Note_on_c, 0, 48, 127
1, 117484, Note_on_c, 7, 79, 127
1, 117618, Note_off_c, 7, 79, 127
1, 117619, Note_on_c, 4, 76, 127
1, 117753, Note_off_c, 4, 76, 127
1, 117753, Note_off_c, 0, 48, 127
1, 117754, Note_on_c, 2, 50, 127
1, 117754, Note_on_c, 0, 72, 127
1, 117888, Note_off_c, 0, 72, 127
1, 117889, Note_on_c, 7, 67, 127
1, 118023, Note_off_c, 7, 67, 127
1, 118023, Note_off_c, 2, 50, 127
1, 118024, Note_on_c, 4, 52, 127
1, 118024, Note_on_c, 11, 70, 127
1, 118158, Note_off_c, 11, 70, 127
1, 118159, Note_on_c, 4, 76, 127
1, 118293, Note_off_c, 4, 76, 127
1, 118293, Note_off_c, 4, 52, 127
1, 118294, Note_on_c, 2, 50, 127
1, 118294, Note_on_c, 7, 79, 127
1, 118428, Note_off_c, 7, 79, 127
1, 118429, Note_on_c, 4, 76, 127
1, 118563, Note_off_c, 4, 76, 127
1, 118563, Note_off_c, 2, 50, 127
1, 118564, Note_on_c, 0, 48, 127
1, 118564, Note_on_c, 11, 70, 127
1, 118698, Note_off_c, 11, 70, 127
1, 118699, Note_on_c, 7, 67, 127
1, 118833, Note_off_c, 7, 67, 127
1, 118833, Note_off_c, 0, 48, 127
1, 118834, Note_on_c, 5, 53, 127
1, 118834, Note_on_c, 5, 65, 127
1, 118968, Note_off_c, 5, 65, 127
1, 118969, Note_on_c, 10, 69, 127
1, 119103, Note_off_c, 10, 69, 127
1, 119103, Note_off_c, 5, 53, 127
1, 119104, Note_on_c, 5, 41, 127
1, 119104, Note_on_c, 0, 72, 127
1, 119238, Note_off_c, 0, 72, 127
1, 119239, Note_on_c, 10, 69, 127
1, 119373, Note_off_c, 10, 69, 127
1, 119373, Note_off_c, 5, 41, 127
1, 119374, Note_on_c, 7, 43, 127
1, 119374, Note_on_c, 5, 65, 127
1, 119508, Note_off_c, 5, 65, 127
1, 119509, Note_on_c, 0, 60, 127
1, 119643, Note_off_c, 0, 60, 127
1, 119643, Note_off_c, 7, 43, 127
1, 119644, Note_on_c, 10, 45, 127
1, 119644, Note_on_c, 3, 63, 127
1, 119778, Note_off_c, 3, 63, 127
1, 119779, Note_on_c, 10, 69, 127
1, 119913, Note_off_c, 10, 69, 127
1, 119913, Note_off_c, 10, 45, 127
1, 119914, Note_on_c, 7, 43, 127
1, 119914, Note_on_c, 0, 72, 127
1, 120048, Note_off_c, 0, 72, 127
1, 120049, Note_on_c, 10, 69, 127
1, 120183, Note_off_c, 10, 69, 127
1, 120183, Note_off_c, 7, 43, 127
1, 120184, Note_on_c, 5, 41, 127
1, 120184, Note_on_c, 3, 63, 127
1, 120318, Note_off_c, 3, 63, 127
1, 120319, Note_on_c, 0, 60, 127
1, 120453, Note_off_c, 0, 60, 127
1, 120453, Note_off_c, 5, 41, 127
1, 120454, Note_on_c, 11, 46, 127
1, 120454, Note_on_c, 2, 62, 127
1, 120724, Note_off_c, 11, 46, 127
1, 120725, Note_on_c, 11, 46, 127
1, 120725, Note_on_c, 7, 67, 127
1, 120859, Note_off_c, 11, 46, 127
1, 120860, Note_on_c, 2, 50, 127
1, 120990, Note_off_c, 2, 62, 127
1, 120994, Note_off_c, 2, 50, 127
1, 120995, Note_on_c, 11, 46, 127
1, 120995, Note_on_c, 2, 62, 127
1, 120995, Note_on_c, 11, 58, 127
1, 121129, Note_off_c, 11, 46, 127
1, 121130, Note_on_c, 7, 43, 127
1, 121264, Note_off_c, 7, 43, 127
1, 121264, Note_off_c, 11, 58, 127
1, 121264, Note_off_c, 2, 62, 127
1, 121265, Note_on_c, 0, 36, 127
1, 121265, Note_on_c, 0, 60, 127
1, 121265, Note_on_c, 4, 64, 127
1, 121535, Note_off_c, 0, 36, 127
1, 121535, Note_off_c, 7, 67, 127
1, 121536, Note_on_c, 0, 48, 127
1, 121536, Note_on_c, 10, 69, 127
1, 121670, Note_off_c, 0, 48, 127
1, 121671, Note_on_c, 4, 52, 127
1, 121801, Note_off_c, 4, 64, 127
1, 121801, Note_off_c, 0, 60, 127
1, 121805, Note_off_c, 4, 52, 127
1, 121806, Note_on_c, 0, 48, 127
1, 121806, Note_on_c, 4, 64, 127
1, 121806, Note_on_c, 0, 60, 127
1, 121940, Note_off_c, 0, 48, 127
1, 121941, Note_on_c, 10, 45, 127
1, 122075, Note_off_c, 10, 45, 127
1, 122075, Note_off_c, 0, 60, 127
1, 122075, Note_off_c, 4, 64, 127
1, 122076, Note_on_c, 2, 38, 127
1, 122076, Note_on_c, 2, 62, 127
1, 122076, Note_on_c, 6, 66, 127
1, 122346, Note_off_c, 2, 38, 127
1, 122346, Note_off_c, 10, 69, 127
1, 122347, Note_on_c, 2, 50, 127
1, 122347, Note_on_c, 11, 70, 127
1, 122481, Note_off_c, 2, 50, 127
1, 122482, Note_on_c, 6, 54, 127
1, 122612, Note_off_c, 6, 66, 127
1, 122612, Note_off_c, 2, 62, 127
1, 122616, Note_off_c, 6, 54, 127
1, 122617, Note_on_c, 2, 50, 127
1, 122617, Note_on_c, 2, 62, 127
1, 122617, Note_on_c, 6, 66, 127
1, 122751, Note_off_c, 2, 50, 127
1, 122752, Note_on_c, 11, 46, 127
1, 122886, Note_off_c, 11, 46, 127
1, 122886, Note_off_c, 6, 66, 127
1, 122886, Note_off_c, 2, 62, 127
1, 122887, Note_on_c, 3, 39, 127
1, 122887, Note_on_c, 7, 67, 127
1, 122887, Note_on_c, 3, 63, 127
1, 123157, Note_off_c, 3, 39, 127
1, 123157, Note_off_c, 11, 70, 127
1, 123158, Note_on_c, 3, 51, 127
1, 123158, Note_on_c, 0, 72, 127
1, 123292, Note_off_c, 3, 51, 127
1, 123293, Note_on_c, 7, 55, 127
1, 123423, Note_off_c, 3, 63, 127
1, 123423, Note_off_c, 7, 67, 127
1, 123427, Note_off_c, 7, 55, 127
1, 123428, Note_on_c, 3, 51, 127
1, 123428, Note_on_c, 7, 67, 127
1, 123428, Note_on_c, 3, 63, 127
1, 123562, Note_off_c, 3, 51, 127
1, 123563, Note_on_c, 0, 48, 127
1, 123697, Note_off_c, 0, 48, 127
1, 123697, Note_off_c, 3, 63, 127
1, 123697, Note_off_c, 7, 67, 127
1, 123698, Note_on_c, 6, 42, 127
1, 123698, Note_on_c, 2, 62, 127
1, 123698, Note_on_c, 10, 69, 127
1, 123968, Note_off_c, 10, 69, 127
1, 123968, Note_off_c, 6, 42, 127
1, 123968, Note_off_c, 0, 72, 127
1, 123969, Note_on_c, 0, 48, 127
1, 123969, Note_on_c, 6, 54, 127
1, 123969, Note_on_c, 11, 70, 127
1, 124103, Note_off_c, 11, 70, 127
1, 124104, Note_on_c, 10, 69, 127
1, 124234, Note_off_c, 2, 62, 127
1, 124238, Note_off_c, 10, 69, 127
1, 124238, Note_off_c, 6, 54, 127
1, 124238, Note_off_c, 0, 48, 127
1, 124239, Note_on_c, 7, 55, 127
1, 124239, Note_on_c, 11, 46, 127
1, 124239, Note_on_c, 2, 74, 127
1, 124509, Note_off_c, 2, 74, 127
1, 124509, Note_off_c, 11, 46, 127
1, 124510, Note_on_c, 0, 48, 127
1, 124510, Note_on_c, 3, 75, 127
1, 124780, Note_off_c, 3, 75, 127
1, 124780, Note_off_c, 0, 48, 127
1, 124781, Note_on_c, 2, 50, 127
1, 124781, Note_on_c, 11, 70, 127
1, 124870, Note_off_c, 11, 70, 127
1, 124871, Note_on_c, 10, 69, 127
1, 124960, Note_off_c, 10, 69, 127
1, 124961, Note_on_c, 11, 70, 127
1, 125050, Note_off_c, 11, 70, 127
1, 125050, Note_off_c, 7, 55, 127
1, 125051, Note_on_c, 6, 54, 127
1, 125051, Note_on_c, 10, 69, 127
1, 125140, Note_off_c, 10, 69, 127
1, 125141, Note_on_c, 7, 67, 127
1, 125230, Note_off_c, 7, 67, 127
1, 125231, Note_on_c, 10, 69, 127
1, 125316, Note_off_c, 2, 50, 127
1, 125320, Note_off_c, 10, 69, 127
1, 125320, Note_off_c, 6, 54, 127
1, 125321, Note_on_c, 7, 43, 127
1, 125321, Note_on_c, 7, 55, 127
1, 125321, Note_on_c, 7, 67, 127
1, 125567, Note_off_c, 7, 67, 127
1, 125615, Note_off_c, 7, 55, 127
1, 125615, Note_off_c, 7, 43, 127
1, 125617, Note_on_c, 0, 48, 127
1, 125617, Note_on_c, 8, 68, 127
1, 125763, Note_off_c, 0, 48, 127
1, 125765, Note_on_c, 3, 51, 127
1, 125911, Note_off_c, 3, 51, 127
1, 125911, Note_off_c, 8, 68, 127
1, 125913, Note_on_c, 0, 48, 127
1, 125913, Note_on_c, 3, 63, 127
1, 125913, Note_on_c, 0, 60, 127
1, 126059, Note_off_c, 0, 48, 127
1, 126061, Note_on_c, 8, 44, 127
1, 126207, Note_off_c, 8, 44, 127
1, 126207, Note_off_c, 0, 60, 127
1, 126207, Note_off_c, 3, 63, 127
1, 126209, Note_on_c, 0, 36, 127
1, 126209, Note_on_c, 0, 60, 127
1, 126209, Note_on_c, 8, 56, 127
1, 126519, Note_off_c, 8, 56, 127
1, 126519, Note_off_c, 0, 60, 127
1, 126519, Note_off_c, 0, 36, 127
1, 126521, Note_on_c, 0, 48, 127
1, 126521, Note_on_c, 8, 68, 127
1, 126675, Note_off_c, 0, 48, 127
1, 126677, Note_on_c, 3, 51, 127
1, 126831, Note_off_c, 3, 51, 127
1, 126831, Note_off_c, 8, 68, 127
1, 126833, Note_on_c, 0, 48, 127
1, 126833, Note_on_c, 3, 63, 127
1, 126833, Note_on_c, 8, 68, 127
1, 126987, Note_off_c, 0, 48, 127
1, 126995, Note_on_c, 8, 44, 127
1, 127143, Note_off_c, 8, 68, 127
1, 127143, Note_off_c, 3, 63, 127
1, 127178, Note_off_c, 8, 44, 127
1, 127193, Note_on_c, 2, 74, 127
1, 127193, Note_on_c, 6, 78, 127
1, 127193, Note_on_c, 10, 69, 127
1, 127193, Note_on_c, 0, 36, 127
1, 127520, Note_off_c, 0, 36, 127
1, 127520, Note_off_c, 10, 69, 127
1, 127520, Note_off_c, 6, 78, 127
1, 127520, Note_off_c, 2, 74, 127
1, 127522, Note_on_c, 4, 76, 127
1, 127522, Note_on_c, 6, 54, 127
1, 127522, Note_on_c, 0, 48, 127
1, 127685, Note_off_c, 4, 76, 127
1, 127687, Note_on_c, 2, 74, 127
1, 127850, Note_off_c, 2, 74, 127
1, 127850, Note_off_c, 0, 48, 127
1, 127850, Note_off_c, 6, 54, 127
1, 127852, Note_on_c, 7, 79, 127
1, 127852, Note_on_c, 7, 55, 127
1, 127852, Note_on_c, 11, 46, 127
1, 128179, Note_off_c, 11, 46, 127
1, 128179, Note_off_c, 7, 79, 127
1, 128181, Note_on_c, 10, 69, 127
1, 128181, Note_on_c, 0, 48, 127
1, 128508, Note_off_c, 0, 48, 127
1, 128508, Note_off_c, 10, 69, 127
1, 128510, Note_on_c, 11, 70, 127
1, 128510, Note_on_c, 2, 50, 127
1, 128673, Note_off_c, 11, 70, 127
1, 128675, Note_on_c, 10, 69, 127
1, 128838, Note_off_c, 7, 55, 127
1, 128840, Note_on_c, 6, 54, 127
1, 129003, Note_off_c, 10, 69, 127
1, 129005, Note_on_c, 7, 67, 127
1, 129163, Note_off_c, 2, 50, 127
1, 129168, Note_off_c, 7, 67, 127
1, 129168, Note_off_c, 6, 54, 127
1, 129170, Note_on_c, 7, 67, 127
1, 129170, Note_on_c, 7, 55, 127
1, 129170, Note_on_c, 7, 43, 127
1, 129309, Note_off_c, 7, 67, 127
1, 129310, Note_on_c, 7, 79, 127
1, 129449, Note_off_c, 7, 79, 127
1, 129449, Note_off_c, 7, 43, 127
1, 129449, Note_off_c, 7, 55, 127
1, 129450, Note_on_c, 6, 78, 127
1, 129450, Note_on_c, 11, 70, 127
1, 129589, Note_off_c, 6, 78, 127
1, 129590, Note_on_c, 7, 79, 127
1, 129729, Note_off_c, 7, 79, 127
1, 129729, Note_off_c, 11, 70, 127
1, 129730, Note_on_c, 2, 74, 127
1, 129730, Note_on_c, 7, 67, 127
1, 129869, Note_off_c, 2, 74, 127
1, 129870, Note_on_c, 7, 79, 127
1, 130009, Note_off_c, 7, 79, 127
1, 130009, Note_off_c, 7, 67, 127
1, 130010, Note_on_c, 11, 70, 127
1, 130010, Note_on_c, 2, 62, 127
1, 130149, Note_off_c, 2, 62, 127
1, 130149, Note_off_c, 11, 70, 127
1, 130150, Note_on_c, 2, 74, 127
1, 130150, Note_on_c, 7, 67, 127
1, 130289, Note_off_c, 7, 67, 127
1, 130289, Note_off_c, 2, 74, 127
1, 130290, Note_on_c, 0, 72, 127
1, 130290, Note_on_c, 6, 66, 127
1, 130429, Note_off_c, 6, 66, 127
1, 130429, Note_off_c, 0, 72, 127
1, 130430, Note_on_c, 2, 74, 127
1, 130430, Note_on_c, 7, 67, 127
1, 130569, Note_off_c, 7, 67, 127
1, 130569, Note_off_c, 2, 74, 127
1, 130570, Note_on_c, 11, 70, 127
1, 130570, Note_on_c, 2, 62, 127
1, 130709, Note_off_c, 2, 62, 127
1, 130709, Note_off_c, 11, 70, 127
1, 130710, Note_on_c, 2, 74, 127
1, 130710, Note_on_c, 7, 67, 127
1, 130849, Note_off_c, 7, 67, 127
1, 130849, Note_off_c, 2, 74, 127
1, 130850, Note_on_c, 7, 67, 127
1, 130850, Note_on_c, 11, 58, 127
1, 130989, Note_off_c, 11, 58, 127
1, 130989, Note_off_c, 7, 67, 127
1, 130990, Note_on_c, 11, 70, 127
1, 130990, Note_on_c, 2, 62, 127
1, 131129, Note_off_c, 2, 62, 127
1, 131129, Note_off_c, 11, 70, 127
1, 131130, Note_on_c, 10, 69, 127
1, 131130, Note_on_c, 0, 60, 127
1, 131269, Note_off_c, 0, 60, 127
1, 131269, Note_off_c, 10, 69, 127
1, 131270, Note_on_c, 11, 70, 127
1, 131270, Note_on_c, 2, 62, 127
1, 131409, Note_off_c, 2, 62, 127
1, 131409, Note_off_c, 11, 70, 127
1, 131410, Note_on_c, 7, 67, 127
1, 131410, Note_on_c, 11, 58, 127
1, 131549, Note_off_c, 11, 58, 127
1, 131549, Note_off_c, 7, 67, 127
1, 131550, Note_on_c, 11, 70, 127
1, 131550, Note_on_c, 2, 62, 127
1, 131689, Note_off_c, 2, 62, 127
1, 131689, Note_off_c, 11, 70, 127
1, 131690, Note_on_c, 2, 62, 127
1, 131690, Note_on_c, 7, 55, 127
1, 131829, Note_off_c, 7, 55, 127
1, 131829, Note_off_c, 2, 62, 127
1, 131830, Note_on_c, 7, 67, 127
1, 131830, Note_on_c, 11, 58, 127
1, 131969, Note_off_c, 11, 58, 127
1, 131969, Note_off_c, 7, 67, 127
1, 131970, Note_on_c, 6, 66, 127
1, 131970, Note_on_c, 10, 57, 127
1, 132109, Note_off_c, 10, 57, 127
1, 132109, Note_off_c, 6, 66, 127
1, 132110, Note_on_c, 7, 67, 127
1, 132110, Note_on_c, 11, 58, 127
1, 132249, Note_off_c, 11, 58, 127
1, 132249, Note_off_c, 7, 67, 127
1, 132250, Note_on_c, 2, 62, 127
1, 132250, Note_on_c, 7, 55, 127
1, 132389, Note_off_c, 7, 55, 127
1, 132389, Note_off_c, 2, 62, 127
1, 132390, Note_on_c, 7, 67, 127
1, 132390, Note_on_c, 11, 58, 127
1, 132529, Note_off_c, 11, 58, 127
1, 132529, Note_off_c, 7, 67, 127
1, 132530, Note_on_c, 11, 58, 127
1, 132530, Note_on_c, 2, 50, 127
1, 132669, Note_off_c, 2, 50, 127
1, 132669, Note_off_c, 11, 58, 127
1, 132670, Note_on_c, 2, 62, 127
1, 132670, Note_on_c, 7, 55, 127
1, 132809, Note_off_c, 7, 55, 127
1, 132809, Note_off_c, 2, 62, 127
1, 132810, Note_on_c, 0, 60, 127
1, 132810, Note_on_c, 6, 54, 127
1, 132949, Note_off_c, 6, 54, 127
1, 132949, Note_off_c, 0, 60, 127
1, 132950, Note_on_c, 2, 62, 127
1, 132950, Note_on_c, 7, 55, 127
1, 133089, Note_off_c, 7, 55, 127
1, 133089, Note_off_c, 2, 62, 127
1, 133090, Note_on_c, 11, 58, 127
1, 133090, Note_on_c, 11, 46, 127
1, 133229, Note_off_c, 11, 46, 127
1, 133229, Note_off_c, 11, 58, 127
1, 133230, Note_on_c, 2, 62, 127
1, 133230, Note_on_c, 2, 50, 127
1, 133369, Note_off_c, 2, 50, 127
1, 133369, Note_off_c, 2, 62, 127
1, 133418, Note_on_c, 7, 55, 127
1, 133418, Note_on_c, 7, 43, 127
1, 135718, Note_off_c, 7, 43, 127
1, 135718, Note_off_c, 7, 55, 127
1, 138443, Note_on_c, 0, 48, 127
1, 138443, Note_on_c, 0, 72, 127
1, 138838, Note_off_c, 0, 48, 127
1, 138840, Note_on_c, 3, 51, 127
1, 139037, Note_off_c, 3, 51, 127
1, 139039, Note_on_c, 2, 50, 127
1, 139236, Note_off_c, 2, 50, 127
1, 139238, Note_on_c, 0, 48, 127
1, 139633, Note_off_c, 0, 72, 127
1, 139635, Note_on_c, 7, 79, 127
1, 139817, Note_off_c, 0, 48, 127
1, 139831, Note_off_c, 7, 79, 127
1, 139833, Note_on_c, 0, 72, 127
1, 140030, Note_off_c, 0, 72, 127
1, 140032, Note_on_c, 2, 50, 127
1, 140032, Note_on_c, 12, 71, 127
1, 140427, Note_off_c, 2, 50, 127
1, 140429, Note_on_c, 5, 53, 127
1, 140626, Note_off_c, 5, 53, 127
1, 140628, Note_on_c, 3, 51, 127
1, 140818, Note_off_c, 12, 71, 127
1, 140824, Note_off_c, 3, 51, 127
1, 140826, Note_on_c, 2, 50, 127
1, 141223, Note_on_c, 7, 67, 127
1, 141405, Note_off_c, 2, 50, 127
1, 141618, Note_off_c, 7, 67, 127
1, 141620, Note_on_c, 7, 43, 127
1, 141620, Note_on_c, 5, 77, 127
1, 142015, Note_off_c, 7, 43, 127
1, 142017, Note_on_c, 12, 47, 127
1, 142214, Note_off_c, 12, 47, 127
1, 142216, Note_on_c, 10, 45, 127
1, 142413, Note_off_c, 10, 45, 127
1, 142415, Note_on_c, 7, 43, 127
1, 142738, Note_off_c, 5, 77, 127
1, 142812, Note_on_c, 8, 80, 127
1, 142994, Note_off_c, 7, 43, 127
1, 143008, Note_off_c, 8, 80, 127
1, 143010, Note_on_c, 7, 79, 127
1, 143207, Note_off_c, 7, 79, 127
1, 143209, Note_on_c, 0, 48, 127
1, 143209, Note_on_c, 3, 75, 127
1, 143406, Note_off_c, 3, 75, 127
1, 143408, Note_on_c, 2, 74, 127
1, 143605, Note_off_c, 2, 74, 127
1, 143605, Note_off_c, 0, 48, 127
1, 143607, Note_on_c, 3, 51, 127
1, 143607, Note_on_c, 0, 72, 127
1, 143804, Note_off_c, 3, 51, 127
1, 143806, Note_on_c, 2, 50, 127
1, 144000, Note_off_c, 0, 72, 127
1, 144002, Note_off_c, 2, 50, 127
1, 144004, Note_on_c, 0, 48, 127
1, 144401, Note_on_c, 8, 80, 127
1, 144583, Note_off_c, 0, 48, 127
1, 144796, Note_off_c, 8, 80, 127
1, 144798, Note_on_c, 2, 50, 127
1, 144798, Note_on_c, 8, 80, 127
1, 145193, Note_off_c, 2, 50, 127
1, 145195, Note_on_c, 5, 53, 127
1, 145392, Note_off_c, 5, 53, 127
1, 145394, Note_on_c, 3, 51, 127
1, 145591, Note_off_c, 3, 51, 127
1, 145593, Note_on_c, 2, 50, 127
1, 145790, Note_off_c, 8, 80, 127
1, 145792, Note_on_c, 7, 79, 127
1, 145989, Note_off_c, 7, 79, 127
1, 145991, Note_on_c, 8, 80, 127
1, 146173, Note_off_c, 2, 50, 127
1, 146187, Note_off_c, 8, 80, 127
1, 146189, Note_on_c, 11, 82, 127
1, 146386, Note_off_c, 11, 82, 127
1, 146388, Note_on_c, 3, 51, 127
1, 146388, Note_on_c, 7, 79, 127
1, 146783, Note_off_c, 7, 79, 127
1, 146783, Note_off_c, 3, 51, 127
1, 146785, Note_on_c, 7, 55, 127
1, 146785, Note_on_c, 11, 82, 127
1, 146982, Note_off_c, 11, 82, 127
1, 146982, Note_off_c, 7, 55, 127
1, 146984, Note_on_c, 5, 53, 127
1, 146984, Note_on_c, 8, 80, 127
1, 147181, Note_off_c, 8, 80, 127
1, 147181, Note_off_c, 5, 53, 127
1, 147183, Note_on_c, 3, 51, 127
1, 147183, Note_on_c, 7, 79, 127
1, 147380, Note_off_c, 7, 79, 127
1, 147382, Note_on_c, 2, 74, 127
1, 147579, Note_off_c, 2, 74, 127
1, 147581, Note_on_c, 3, 75, 127
1, 147763, Note_off_c, 3, 51, 127
1, 147777, Note_off_c, 3, 75, 127
1, 147779, Note_on_c, 11, 70, 127
1, 147976, Note_off_c, 11, 70, 127
1, 147978, Note_on_c, 3, 51, 127
1, 147978, Note_on_c, 7, 79, 127
1, 148373, Note_off_c, 7, 79, 127
1, 148373, Note_off_c, 3, 51, 127
1, 148375, Note_on_c, 7, 55, 127
1, 148375, Note_on_c, 11, 82, 127
1, 148572, Note_off_c, 11, 82, 127
1, 148572, Note_off_c, 7, 55, 127
1, 148574, Note_on_c, 5, 53, 127
1, 148574, Note_on_c, 8, 80, 127
1, 148771, Note_off_c, 8, 80, 127
1, 148771, Note_off_c, 5, 53, 127
1, 148773, Note_on_c, 3, 51, 127
1, 148773, Note_on_c, 7, 79, 127
1, 148970, Note_off_c, 7, 79, 127
1, 148972, Note_on_c, 2, 74, 127
1, 149169, Note_off_c, 2, 74, 127
1, 149171, Note_on_c, 3, 75, 127
1, 149353, Note_off_c, 3, 51, 127
1, 149367, Note_off_c, 3, 75, 127
1, 149374, Note_on_c, 11, 70, 127
1, 149571, Note_off_c, 11, 70, 127
1, 149584, Note_on_c, 1, 73, 127
1, 149584, Note_on_c, 4, 52, 127
1, 149979, Note_off_c, 4, 52, 127
1, 149981, Note_on_c, 7, 55, 127
1, 150178, Note_off_c, 7, 55, 127
1, 150180, Note_on_c, 5, 53, 127
1, 150377, Note_off_c, 5, 53, 127
1, 150379, Note_on_c, 4, 52, 127
1, 150774, Note_off_c, 1, 73, 127
1, 150776, Note_on_c, 0, 72, 127
1, 150958, Note_off_c, 4, 52, 127
1, 150972, Note_off_c, 0, 72, 127
1, 150974, Note_on_c, 11, 70, 127
1, 151171, Note_off_c, 11, 70, 127
1, 151173, Note_on_c, 8, 68, 127
1, 151173, Note_on_c, 5, 53, 127
1, 151568, Note_off_c, 5, 53, 127
1, 151568, Note_off_c, 8, 68, 127
1, 151570, Note_on_c, 0, 72, 127
1, 151570, Note_on_c, 8, 56, 127
1, 151767, Note_off_c, 8, 56, 127
1, 151767, Note_off_c, 0, 72, 127
1, 151769, Note_on_c, 11, 70, 127
1, 151769, Note_on_c, 7, 55, 127
1, 151966, Note_off_c, 7, 55, 127
1, 151966, Note_off_c, 11, 70, 127
1, 151968, Note_on_c, 8, 68, 127
1, 151968, Note_on_c, 5, 53, 127
1, 152165, Note_off_c, 8, 68, 127
1, 152167, Note_on_c, 4, 64, 127
1, 152364, Note_off_c, 4, 64, 127
1, 152366, Note_on_c, 5, 65, 127
1, 152548, Note_off_c, 5, 53, 127
1, 152562, Note_off_c, 5, 65, 127
1, 152564, Note_on_c, 0, 60, 127
1, 152761, Note_off_c, 0, 60, 127
1, 152763, Note_on_c, 3, 75, 127
1, 152763, Note_on_c, 6, 54, 127
1, 153158, Note_off_c, 6, 54, 127
1, 153160, Note_on_c, 10, 57, 127
1, 153357, Note_off_c, 10, 57, 127
1, 153359, Note_on_c, 7, 55, 127
1, 153556, Note_off_c, 7, 55, 127
1, 153558, Note_on_c, 6, 54, 127
1, 153953, Note_off_c, 3, 75, 127
1, 153955, Note_on_c, 2, 74, 127
1, 154137, Note_off_c, 6, 54, 127
1, 154151, Note_off_c, 2, 74, 127
1, 154153, Note_on_c, 0, 72, 127
1, 154350, Note_off_c, 0, 72, 127
1, 154352, Note_on_c, 11, 70, 127
1, 154352, Note_on_c, 7, 55, 127
1, 154747, Note_off_c, 7, 55, 127
1, 154747, Note_off_c, 11, 70, 127
1, 154749, Note_on_c, 7, 79, 127
1, 154749, Note_on_c, 11, 58, 127
1, 154946, Note_off_c, 11, 58, 127
1, 154946, Note_off_c, 7, 79, 127
1, 154948, Note_on_c, 6, 78, 127
1, 154948, Note_on_c, 10, 57, 127
1, 155145, Note_off_c, 10, 57, 127
1, 155145, Note_off_c, 6, 78, 127
1, 155147, Note_on_c, 7, 79, 127
1, 155147, Note_on_c, 7, 55, 127
1, 155542, Note_off_c, 7, 79, 127
1, 155544, Note_on_c, 0, 72, 127
1, 155726, Note_off_c, 7, 55, 127
1, 155740, Note_off_c, 0, 72, 127
1, 155742, Note_on_c, 11, 70, 127
1, 155939, Note_off_c, 11, 70, 127
1, 155941, Note_on_c, 0, 72, 127
1, 155941, Note_on_c, 10, 57, 127
1, 156336, Note_off_c, 10, 57, 127
1, 156336, Note_off_c, 0, 72, 127
1, 156338, Note_on_c, 10, 81, 127
1, 156338, Note_on_c, 0, 60, 127
1, 156535, Note_off_c, 0, 60, 127
1, 156535, Note_off_c, 10, 81, 127
1, 156537, Note_on_c, 7, 79, 127
1, 156537, Note_on_c, 11, 58, 127
1, 156734, Note_off_c, 11, 58, 127
1, 156734, Note_off_c, 7, 79, 127
1, 156736, Note_on_c, 10, 81, 127
1, 156736, Note_on_c, 10, 57, 127
1, 157131, Note_off_c, 10, 81, 127
1, 157133, Note_on_c, 2, 74, 127
1, 157315, Note_off_c, 10, 57, 127
1, 157329, Note_off_c, 2, 74, 127
1, 157331, Note_on_c, 0, 72, 127
1, 157528, Note_off_c, 0, 72, 127
1, 157530, Note_on_c, 11, 70, 127
1, 157530, Note_on_c, 7, 43, 127
1, 157925, Note_off_c, 7, 43, 127
1, 157927, Note_on_c, 11, 46, 127
1, 158124, Note_off_c, 11, 46, 127
1, 158126, Note_on_c, 10, 45, 127
1, 158323, Note_off_c, 10, 45, 127
1, 158325, Note_on_c, 7, 43, 127
1, 158524, Note_off_c, 11, 70, 127
1, 158723, Note_on_c, 2, 74, 127
1, 158905, Note_off_c, 7, 43, 127
1, 158919, Note_off_c, 2, 74, 127
1, 158921, Note_on_c, 7, 67, 127
1, 159118, Note_off_c, 7, 67, 127
1, 159120, Note_on_c, 6, 66, 127
1, 159120, Note_on_c, 10, 45, 127
1, 159515, Note_off_c, 10, 45, 127
1, 159517, Note_on_c, 0, 48, 127
1, 159714, Note_off_c, 0, 48, 127
1, 159716, Note_on_c, 11, 46, 127
1, 159913, Note_off_c, 11, 46, 127
1, 159915, Note_on_c, 10, 45, 127
1, 160114, Note_off_c, 6, 66, 127
1, 160313, Note_on_c, 2, 62, 127
1, 160495, Note_off_c, 10, 45, 127
1, 160708, Note_off_c, 2, 62, 127
1, 160710, Note_on_c, 0, 72, 127
1, 160710, Note_on_c, 2, 38, 127
1, 161105, Note_off_c, 2, 38, 127
1, 161107, Note_on_c, 6, 42, 127
1, 161304, Note_off_c, 6, 42, 127
1, 161306, Note_on_c, 4, 40, 127
1, 161503, Note_off_c, 4, 40, 127
1, 161505, Note_on_c, 2, 38, 127
1, 161704, Note_off_c, 0, 72, 127
1, 161903, Note_on_c, 3, 75, 127
1, 162085, Note_off_c, 2, 38, 127
1, 162099, Note_off_c, 3, 75, 127
1, 162101, Note_on_c, 2, 74, 127
1, 162298, Note_off_c, 2, 74, 127
1, 162300, Note_on_c, 11, 70, 127
1, 162300, Note_on_c, 7, 43, 127
1, 162695, Note_off_c, 7, 43, 127
1, 162697, Note_on_c, 0, 48, 127
1, 162894, Note_off_c, 11, 70, 127
1, 162896, Note_on_c, 10, 69, 127
1, 163093, Note_off_c, 10, 69, 127
1, 163093, Note_off_c, 0, 48, 127
1, 163095, Note_on_c, 11, 70, 127
1, 163095, Note_on_c, 2, 50, 127
1, 163178, Note_off_c, 11, 70, 127
1, 163178, Note_on_c, 10, 69, 127
1, 163261, Note_off_c, 10, 69, 127
1, 163261, Note_on_c, 11, 70, 127
1, 163344, Note_off_c, 11, 70, 127
1, 163344, Note_on_c, 10, 69, 127
1, 163493, Note_on_c, 2, 38, 127
1, 163675, Note_off_c, 2, 50, 127
1, 163679, Note_off_c, 10, 69, 127
1, 163691, Note_on_c, 7, 67, 127
1, 163888, Note_off_c, 7, 67, 127
1, 163888, Note_off_c, 2, 38, 127
1, 163890, Note_on_c, 7, 67, 127
1, 163890, Note_on_c, 7, 43, 127
1, 164292, Note_off_c, 7, 43, 127
1, 164294, Note_on_c, 11, 46, 127
1, 164479, Note_off_c, 7, 67, 127
1, 164494, Note_off_c, 11, 46, 127
1, 164501, Note_on_c, 8, 44, 127
1, 164701, Note_off_c, 8, 44, 127
1, 164706, Note_on_c, 1, 73, 127
1, 164706, Note_on_c, 7, 43, 127
1, 165108, Note_off_c, 1, 73, 127
1, 165110, Note_on_c, 1, 73, 127
1, 165295, Note_off_c, 7, 43, 127
1, 165512, Note_off_c, 1, 73, 127
1, 165514, Note_on_c, 1, 73, 127
1, 165514, Note_on_c, 10, 45, 127
1, 165781, Note_off_c, 1, 73, 127
1, 165783, Note_on_c, 0, 72, 127
1, 165916, Note_off_c, 10, 45, 127
1, 165918, Note_on_c, 0, 48, 127
1, 166051, Note_off_c, 0, 72, 127
1, 166053, Note_on_c, 0, 72, 127
1, 166118, Note_off_c, 0, 48, 127
1, 166120, Note_on_c, 11, 46, 127
1, 166320, Note_off_c, 11, 46, 127
1, 166322, Note_on_c, 10, 45, 127
1, 166695, Note_off_c, 0, 72, 127
1, 166712, Note_on_c, 0, 72, 127
1, 166912, Note_off_c, 10, 45, 127
1, 167116, Note_off_c, 0, 72, 127
1, 167131, Note_on_c, 0, 72, 127
1, 167131, Note_on_c, 11, 46, 127
1, 167331, Note_off_c, 0, 72, 127
1, 167333, Note_on_c, 11, 70, 127
1, 167533, Note_off_c, 11, 70, 127
1, 167533, Note_off_c, 11, 46, 127
1, 167535, Note_on_c, 11, 70, 127
1, 167535, Note_on_c, 1, 49, 127
1, 167735, Note_off_c, 1, 49, 127
1, 167737, Note_on_c, 0, 48, 127
1, 167937, Note_off_c, 0, 48, 127
1, 167937, Note_off_c, 11, 70, 127
1, 167939, Note_on_c, 5, 77, 127
1, 167939, Note_on_c, 11, 46, 127
1, 168341, Note_off_c, 5, 77, 127
1, 168343, Note_on_c, 11, 82, 127
1, 168528, Note_off_c, 11, 46, 127
1, 168543, Note_off_c, 11, 82, 127
1, 168545, Note_on_c, 5, 77, 127
1, 168745, Note_off_c, 5, 77, 127
1, 168747, Note_on_c, 6, 78, 127
1, 168747, Note_on_c, 3, 51, 127
1, 169156, Note_off_c, 3, 51, 127
1, 169158, Note_on_c, 6, 54, 127
1, 169362, Note_off_c, 6, 54, 127
1, 169364, Note_on_c, 5, 53, 127
1, 169568, Note_off_c, 5, 53, 127
1, 169570, Note_on_c, 3, 51, 127
1, 169774, Note_off_c, 6, 78, 127
1, 169776, Note_on_c, 3, 75, 127
1, 169980, Note_off_c, 3, 75, 127
1, 169982, Note_on_c, 5, 77, 127
1, 170171, Note_off_c, 3, 51, 127
1, 170186, Note_off_c, 5, 77, 127
1, 170188, Note_on_c, 6, 78, 127
1, 170392, Note_off_c, 6, 78, 127
1, 170394, Note_on_c, 10, 69, 127
1, 170394, Note_on_c, 5, 53, 127
1, 170598, Note_off_c, 10, 69, 127
1, 170600, Note_on_c, 3, 75, 127
1, 170804, Note_off_c, 3, 75, 127
1, 170804, Note_off_c, 5, 53, 127
1, 170806, Note_on_c, 1, 73, 127
1, 170806, Note_on_c, 11, 46, 127
1, 171010, Note_off_c, 1, 73, 127
1, 171012, Note_on_c, 0, 72, 127
1, 171216, Note_off_c, 0, 72, 127
1, 171216, Note_off_c, 11, 46, 127
1, 171218, Note_on_c, 1, 73, 127
1, 171218, Note_on_c, 5, 53, 127
1, 171347, Note_off_c, 1, 73, 127
1, 171347, Note_on_c, 0, 72, 127
1, 171418, Note_on_c, 1, 73, 127
1, 171433, Note_off_c, 0, 72, 127
1, 171489, Note_on_c, 0, 72, 127
1, 171504, Note_off_c, 1, 73, 127
1, 171560, Note_on_c, 1, 73, 127
1, 171575, Note_off_c, 0, 72, 127
1, 171631, Note_on_c, 0, 72, 127
1, 171631, Note_on_c, 5, 41, 127
1, 171646, Note_off_c, 1, 73, 127
1, 171820, Note_off_c, 5, 53, 127
1, 171829, Note_off_c, 0, 72, 127
1, 171838, Note_on_c, 11, 70, 127
1, 172042, Note_off_c, 11, 70, 127
1, 172042, Note_off_c, 5, 41, 127
1, 172044, Note_on_c, 11, 70, 127
1, 172044, Note_on_c, 11, 46, 127
1, 172439, Note_off_c, 11, 46, 127
1, 172439, Note_off_c, 11, 70, 127
1, 172457, Note_on_c, 2, 50, 127
1, 172457, Note_on_c, 5, 77, 127
1, 172654, Note_off_c, 5, 77, 127
1, 172654, Note_off_c, 2, 50, 127
1, 172656, Note_on_c, 0, 48, 127
1, 172656, Note_on_c, 3, 75, 127
1, 172853, Note_off_c, 3, 75, 127
1, 172853, Note_off_c, 0, 48, 127
1, 172855, Note_on_c, 11, 46, 127
1, 172855, Note_on_c, 2, 74, 127
1, 173052, Note_off_c, 2, 74, 127
1, 173054, Note_on_c, 10, 69, 127
1, 173251, Note_off_c, 10, 69, 127
1, 173253, Note_on_c, 11, 70, 127
1, 173435, Note_off_c, 11, 46, 127
1, 173449, Note_off_c, 11, 70, 127
1, 173451, Note_on_c, 5, 65, 127
1, 173648, Note_off_c, 5, 65, 127
1, 173650, Note_on_c, 11, 46, 127
1, 173650, Note_on_c, 2, 74, 127
1, 174045, Note_off_c, 2, 74, 127
1, 174045, Note_off_c, 11, 46, 127
1, 174047, Note_on_c, 2, 50, 127
1, 174047, Note_on_c, 5, 77, 127
1, 174244, Note_off_c, 5, 77, 127
1, 174244, Note_off_c, 2, 50, 127
1, 174246, Note_on_c, 0, 48, 127
1, 174246, Note_on_c, 3, 75, 127
1, 174443, Note_off_c, 3, 75, 127
1, 174443, Note_off_c, 0, 48, 127
1, 174445, Note_on_c, 11, 46, 127
1, 174445, Note_on_c, 2, 74, 127
1, 174642, Note_off_c, 2, 74, 127
1, 174644, Note_on_c, 10, 69, 127
1, 174841, Note_off_c, 10, 69, 127
1, 174843, Note_on_c, 11, 70, 127
1, 175025, Note_off_c, 11, 46, 127
1, 175039, Note_off_c, 11, 70, 127
1, 175041, Note_on_c, 5, 65, 127
1, 175238, Note_off_c, 5, 65, 127
1, 175240, Note_on_c, 12, 47, 127
1, 175240, Note_on_c, 8, 80, 127
1, 175635, Note_off_c, 12, 47, 127
1, 175637, Note_on_c, 2, 50, 127
1, 175834, Note_off_c, 2, 50, 127
1, 175836, Note_on_c, 0, 48, 127
1, 176033, Note_off_c, 0, 48, 127
1, 176035, Note_on_c, 12, 47, 127
1, 176234, Note_off_c, 8, 80, 127
1, 176433, Note_on_c, 7, 79, 127
1, 176615, Note_off_c, 12, 47, 127
1, 176629, Note_off_c, 7, 79, 127
1, 176631, Note_on_c, 5, 77, 127
1, 176828, Note_off_c, 5, 77, 127
1, 176830, Note_on_c, 0, 48, 127
1, 176830, Note_on_c, 3, 75, 127
1, 177225, Note_off_c, 3, 75, 127
1, 177225, Note_off_c, 0, 48, 127
1, 177227, Note_on_c, 3, 51, 127
1, 177227, Note_on_c, 7, 79, 127
1, 177424, Note_off_c, 7, 79, 127
1, 177424, Note_off_c, 3, 51, 127
1, 177426, Note_on_c, 2, 50, 127
1, 177426, Note_on_c, 5, 77, 127
1, 177623, Note_off_c, 5, 77, 127
1, 177623, Note_off_c, 2, 50, 127
1, 177625, Note_on_c, 0, 48, 127
1, 177625, Note_on_c, 3, 75, 127
1, 177822, Note_off_c, 3, 75, 127
1, 177824, Note_on_c, 12, 71, 127
1, 178021, Note_off_c, 12, 71, 127
1, 178023, Note_on_c, 0, 72, 127
1, 178205, Note_off_c, 0, 48, 127
1, 178219, Note_off_c, 0, 72, 127
1, 178221, Note_on_c, 7, 67, 127
1, 178418, Note_off_c, 7, 67, 127
1, 178420, Note_on_c, 0, 48, 127
1, 178420, Note_on_c, 3, 75, 127
1, 178815, Note_off_c, 3, 75, 127
1, 178815, Note_off_c, 0, 48, 127
1, 178817, Note_on_c, 3, 51, 127
1, 178817, Note_on_c, 7, 79, 127
1, 179014, Note_off_c, 7, 79, 127
1, 179014, Note_off_c, 3, 51, 127
1, 179016, Note_on_c, 2, 50, 127
1, 179016, Note_on_c, 5, 77, 127
1, 179213, Note_off_c, 5, 77, 127
1, 179213, Note_off_c, 2, 50, 127
1, 179215, Note_on_c, 0, 48, 127
1, 179215, Note_on_c, 3, 75, 127
1, 179412, Note_off_c, 3, 75, 127
1, 179414, Note_on_c, 12, 71, 127
1, 179611, Note_off_c, 12, 71, 127
1, 179613, Note_on_c, 0, 72, 127
1, 179795, Note_off_c, 0, 48, 127
1, 179809, Note_off_c, 0, 72, 127
1, 179811, Note_on_c, 7, 67, 127
1, 180008, Note_off_c, 7, 67, 127
1, 180010, Note_on_c, 0, 48, 127
1, 180010, Note_on_c, 6, 78, 127
1, 180405, Note_off_c, 0, 48, 127
1, 180407, Note_on_c, 3, 51, 127
1, 180604, Note_off_c, 3, 51, 127
1, 180606, Note_on_c, 2, 50, 127
1, 180796, Note_off_c, 6, 78, 127
1, 180802, Note_off_c, 2, 50, 127
1, 180804, Note_on_c, 0, 48, 127
1, 181003, Note_on_c, 2, 74, 127
1, 181200, Note_off_c, 2, 74, 127
1, 181202, Note_on_c, 7, 79, 127
1, 181384, Note_off_c, 0, 48, 127
1, 181398, Note_off_c, 7, 79, 127
1, 181400, Note_on_c, 6, 78, 127
1, 181597, Note_off_c, 6, 78, 127
1, 181599, Note_on_c, 12, 47, 127
1, 181599, Note_on_c, 7, 79, 127
1, 181796, Note_off_c, 7, 79, 127
1, 181798, Note_on_c, 7, 67, 127
1, 181995, Note_off_c, 7, 67, 127
1, 181995, Note_off_c, 12, 47, 127
1, 181997, Note_on_c, 0, 48, 127
1, 181997, Note_on_c, 0, 72, 127
1, 182194, Note_off_c, 0, 72, 127
1, 182196, Note_on_c, 2, 74, 127
1, 182393, Note_off_c, 2, 74, 127
1, 182393, Note_off_c, 0, 48, 127
1, 182395, Note_on_c, 7, 55, 127
1, 182395, Note_on_c, 2, 74, 127
1, 182492, Note_off_c, 2, 74, 127
1, 182494, Note_on_c, 0, 72, 127
1, 182591, Note_off_c, 0, 72, 127
1, 182593, Note_on_c, 2, 74, 127
1, 182792, Note_on_c, 7, 43, 127
1, 182974, Note_off_c, 7, 55, 127
1, 182986, Note_off_c, 2, 74, 127
1, 182990, Note_on_c, 0, 72, 127
1, 183187, Note_off_c, 0, 72, 127
1, 183187, Note_off_c, 7, 43, 127
1, 183189, Note_on_c, 0, 48, 127
1, 183189, Note_on_c, 0, 72, 127
1, 183591, Note_off_c, 0, 48, 127
1, 183593, Note_on_c, 3, 51, 127
1, 183793, Note_off_c, 3, 51, 127
1, 183795, Note_on_c, 2, 50, 127
1, 183989, Note_off_c, 0, 72, 127
1, 183995, Note_off_c, 2, 50, 127
1, 183997, Note_on_c, 0, 48, 127
1, 184199, Note_on_c, 2, 74, 127
1, 184399, Note_off_c, 2, 74, 127
1, 184401, Note_on_c, 3, 75, 127
1, 184586, Note_off_c, 0, 48, 127
1, 184601, Note_off_c, 3, 75, 127
1, 184603, Note_on_c, 5, 77, 127
1, 184803, Note_off_c, 5, 77, 127
1, 184805, Note_on_c, 12, 47, 127
1, 184805, Note_on_c, 7, 79, 127
1, 185207, Note_off_c, 12, 47, 127
1, 185209, Note_on_c, 2, 50, 127
1, 185409, Note_off_c, 2, 50, 127
1, 185411, Note_on_c, 0, 48, 127
1, 185611, Note_off_c, 0, 48, 127
1, 185613, Note_on_c, 12, 47, 127
1, 185813, Note_off_c, 7, 79, 127
1, 185815, Note_on_c, 5, 77, 127
1, 186015, Note_off_c, 5, 77, 127
1, 186017, Note_on_c, 7, 79, 127
1, 186202, Note_off_c, 12, 47, 127
1, 186217, Note_off_c, 7, 79, 127
1, 186219, Note_on_c, 8, 80, 127
1, 186419, Note_off_c, 8, 80, 127
1, 186421, Note_on_c, 0, 48, 127
1, 186421, Note_on_c, 7, 79, 127
1, 186823, Note_off_c, 0, 48, 127
1, 186825, Note_on_c, 3, 51, 127
1, 187025, Note_off_c, 3, 51, 127
1, 187027, Note_on_c, 2, 50, 127
1, 187227, Note_off_c, 2, 50, 127
1, 187229, Note_on_c, 0, 48, 127
1, 187429, Note_off_c, 7, 79, 127
1, 187431, Note_on_c, 5, 77, 127
1, 187631, Note_off_c, 5, 77, 127
1, 187633, Note_on_c, 7, 79, 127
1, 187818, Note_off_c, 0, 48, 127
1, 187833, Note_off_c, 7, 79, 127
1, 187835, Note_on_c, 8, 80, 127
1, 188035, Note_off_c, 8, 80, 127
1, 188037, Note_on_c, 0, 48, 127
1, 188037, Note_on_c, 7, 79, 127
1, 188439, Note_off_c, 0, 48, 127
1, 188441, Note_on_c, 3, 51, 127
1, 188641, Note_off_c, 3, 51, 127
1, 188641, Note_off_c, 7, 79, 127
1, 188643, Note_on_c, 2, 50, 127
1, 188643, Note_on_c, 2, 74, 127
1, 188843, Note_off_c, 2, 74, 127
1, 188843, Note_off_c, 2, 50, 127
1, 188845, Note_on_c, 0, 48, 127
1, 188845, Note_on_c, 3, 75, 127
1, 189045, Note_off_c, 3, 75, 127
1, 189047, Note_on_c, 12, 71, 127
1, 189247, Note_off_c, 12, 71, 127
1, 189249, Note_on_c, 0, 72, 127
1, 189434, Note_off_c, 0, 48, 127
1, 189449, Note_off_c, 0, 72, 127
1, 189451, Note_on_c, 7, 67, 127
1, 189651, Note_off_c, 7, 67, 127
1, 189653, Note_on_c, 2, 50, 127
1, 189653, Note_on_c, 12, 59, 127
1, 190062, Note_off_c, 2, 50, 127
1, 190064, Note_on_c, 5, 53, 127
1, 190268, Note_off_c, 5, 53, 127
1, 190270, Note_on_c, 3, 51, 127
1, 190467, Note_off_c, 12, 59, 127
1, 190473, Note_off_c, 3, 51, 127
1, 190475, Note_on_c, 2, 50, 127
1, 190681, Note_on_c, 5, 65, 127
1, 190885, Note_off_c, 5, 65, 127
1, 190887, Note_on_c, 3, 63, 127
1, 191076, Note_off_c, 2, 50, 127
1, 191091, Note_off_c, 3, 63, 127
1, 191093, Note_on_c, 2, 62, 127
1, 191297, Note_off_c, 2, 62, 127
1, 191299, Note_on_c, 3, 51, 127
1, 191299, Note_on_c, 7, 67, 127
1, 191731, Note_off_c, 3, 51, 127
1, 191733, Note_on_c, 5, 53, 127
1, 191948, Note_off_c, 7, 67, 127
1, 191950, Note_on_c, 0, 72, 127
1, 192165, Note_off_c, 0, 72, 127
1, 192165, Note_off_c, 5, 53, 127
1, 192167, Note_on_c, 7, 55, 127
1, 192167, Note_on_c, 3, 63, 127
1, 192395, Note_off_c, 3, 63, 127
1, 192397, Note_on_c, 2, 62, 127
1, 192510, Note_off_c, 2, 62, 127
1, 192512, Note_on_c, 3, 63, 127
1, 192625, Note_off_c, 3, 63, 127
1, 192627, Note_on_c, 7, 43, 127
1, 192627, Note_on_c, 2, 62, 127
1, 192838, Note_off_c, 7, 55, 127
1, 192855, Note_off_c, 2, 62, 127
1, 192857, Note_on_c, 0, 60, 127
1, 193085, Note_off_c, 0, 60, 127
1, 193085, Note_off_c, 7, 43, 127
1, 193103, Note_on_c, 0, 60, 127
1, 193103, Note_on_c, 0, 48, 127
1, 196003, Note_off_c, 0, 48, 127
1, 196003, Note_off_c, 0, 60, 127
1, 198510, Note_on_c, 7, 67, 127
1, 198647, Note_off_c, 7, 67, 127
1, 198652, Note_on_c, 10, 69, 127
1, 198789, Note_off_c, 10, 69, 127
1, 198794, Note_on_c, 7, 67, 127
1, 198794, Note_on_c, 11, 70, 127
1, 199070, Note_off_c, 11, 70, 127
1, 199071, Note_on_c, 10, 69, 127
1, 199208, Note_off_c, 10, 69, 127
1, 199209, Note_on_c, 11, 70, 127
1, 199346, Note_off_c, 11, 70, 127
1, 199347, Note_on_c, 0, 72, 127
1, 199623, Note_off_c, 0, 72, 127
1, 199624, Note_on_c, 11, 70, 127
1, 199761, Note_off_c, 11, 70, 127
1, 199762, Note_on_c, 0, 72, 127
1, 199899, Note_off_c, 0, 72, 127
1, 199899, Note_off_c, 7, 67, 127
1, 199900, Note_on_c, 2, 74, 127
1, 199900, Note_on_c, 6, 66, 127
1, 200176, Note_off_c, 2, 74, 127
1, 200177, Note_on_c, 0, 72, 127
1, 200314, Note_off_c, 0, 72, 127
1, 200315, Note_on_c, 2, 74, 127
1, 200448, Note_off_c, 6, 66, 127
1, 200452, Note_off_c, 2, 74, 127
1, 200453, Note_on_c, 7, 67, 127
1, 200453, Note_on_c, 11, 70, 127
1, 200729, Note_off_c, 11, 70, 127
1, 200729, Note_off_c, 7, 67, 127
1, 200730, Note_on_c, 7, 67, 127
1, 200730, Note_on_c, 7, 55, 127
1, 200867, Note_off_c, 7, 55, 127
1, 200868, Note_on_c, 10, 57, 127
1, 201005, Note_off_c, 10, 57, 127
1, 201005, Note_off_c, 7, 67, 127
1, 201006, Note_on_c, 7, 79, 127
1, 201006, Note_on_c, 2, 74, 127
1, 201006, Note_on_c, 11, 70, 127
1, 201006, Note_on_c, 11, 58, 127
1, 201282, Note_off_c, 11, 58, 127
1, 201282, Note_off_c, 11, 70, 127
1, 201282, Note_off_c, 2, 74, 127
1, 201283, Note_on_c, 11, 70, 127
1, 201283, Note_on_c, 2, 74, 127
1, 201283, Note_on_c, 10, 57, 127
1, 201420, Note_off_c, 10, 57, 127
1, 201421, Note_on_c, 11, 58, 127
1, 201558, Note_off_c, 11, 58, 127
1, 201558, Note_off_c, 2, 74, 127
1, 201558, Note_off_c, 11, 70, 127
1, 201559, Note_on_c, 3, 75, 127
1, 201559, Note_on_c, 10, 69, 127
1, 201559, Note_on_c, 0, 60, 127
1, 201835, Note_off_c, 0, 60, 127
1, 201835, Note_off_c, 10, 69, 127
1, 201835, Note_off_c, 3, 75, 127
1, 201836, Note_on_c, 10, 69, 127
1, 201836, Note_on_c, 3, 75, 127
1, 201836, Note_on_c, 11, 58, 127
1, 201973, Note_off_c, 11, 58, 127
1, 201974, Note_on_c, 0, 60, 127
1, 202111, Note_off_c, 0, 60, 127
1, 202111, Note_off_c, 3, 75, 127
1, 202111, Note_off_c, 10, 69, 127
1, 202111, Note_off_c, 7, 79, 127
1, 202112, Note_on_c, 10, 69, 127
1, 202112, Note_on_c, 2, 74, 127
1, 202112, Note_on_c, 6, 78, 127
1, 202112, Note_on_c, 2, 62, 127
1, 202388, Note_off_c, 2, 62, 127
1, 202388, Note_off_c, 2, 74, 127
1, 202388, Note_off_c, 10, 69, 127
1, 202389, Note_on_c, 10, 69, 127
1, 202389, Note_on_c, 2, 74, 127
1, 202389, Note_on_c, 0, 60, 127
1, 202526, Note_off_c, 0, 60, 127
1, 202527, Note_on_c, 2, 62, 127
1, 202660, Note_off_c, 6, 78, 127
1, 202664, Note_off_c, 2, 62, 127
1, 202664, Note_off_c, 2, 74, 127
1, 202664, Note_off_c, 10, 69, 127
1, 202665, Note_on_c, 2, 74, 127
1, 202665, Note_on_c, 7, 79, 127
1, 202665, Note_on_c, 7, 67, 127
1, 202665, Note_on_c, 2, 62, 127
1, 202665, Note_on_c, 11, 58, 127
1, 202941, Note_off_c, 11, 58, 127
1, 202941, Note_off_c, 2, 62, 127
1, 202941, Note_off_c, 7, 67, 127
1, 202941, Note_off_c, 7, 79, 127
1, 202941, Note_off_c, 2, 74, 127
1, 202942, Note_on_c, 11, 82, 127
1, 202942, Note_on_c, 7, 55, 127
1, 203079, Note_off_c, 11, 82, 127
1, 203080, Note_on_c, 10, 81, 127
1, 203217, Note_off_c, 10, 81, 127
1, 203217, Note_off_c, 7, 55, 127
1, 203218, Note_on_c, 7, 79, 127
1, 203218, Note_on_c, 4, 64, 127
1, 203218, Note_on_c, 0, 60, 127
1, 203494, Note_off_c, 0, 60, 127
1, 203494, Note_off_c, 7, 79, 127
1, 203495, Note_on_c, 5, 77, 127
1, 203495, Note_on_c, 7, 55, 127
1, 203632, Note_off_c, 5, 77, 127
1, 203633, Note_on_c, 4, 76, 127
1, 203770, Note_off_c, 4, 76, 127
1, 203770, Note_off_c, 7, 55, 127
1, 203771, Note_on_c, 5, 77, 127
1, 203771, Note_on_c, 10, 57, 127
1, 204047, Note_off_c, 10, 57, 127
1, 204047, Note_off_c, 5, 77, 127
1, 204047, Note_off_c, 4, 64, 127
1, 204048, Note_on_c, 10, 81, 127
1, 204048, Note_on_c, 5, 53, 127
1, 204185, Note_off_c, 10, 81, 127
1, 204186, Note_on_c, 7, 79, 127
1, 204323, Note_off_c, 7, 79, 127
1, 204323, Note_off_c, 5, 53, 127
1, 204324, Note_on_c, 5, 77, 127
1, 204324, Note_on_c, 2, 62, 127
1, 204324, Note_on_c, 11, 58, 127
1, 204600, Note_off_c, 11, 58, 127
1, 204600, Note_off_c, 5, 77, 127
1, 204601, Note_on_c, 4, 76, 127
1, 204601, Note_on_c, 5, 53, 127
1, 204738, Note_off_c, 4, 76, 127
1, 204739, Note_on_c, 2, 74, 127
1, 204876, Note_off_c, 2, 74, 127
1, 204876, Note_off_c, 5, 53, 127
1, 204877, Note_on_c, 4, 76, 127
1, 204877, Note_on_c, 7, 55, 127
1, 205153, Note_off_c, 7, 55, 127
1, 205153, Note_off_c, 4, 76, 127
1, 205153, Note_off_c, 2, 62, 127
1, 205154, Note_on_c, 7, 79, 127
1, 205154, Note_on_c, 4, 52, 127
1, 205291, Note_off_c, 7, 79, 127
1, 205292, Note_on_c, 5, 77, 127
1, 205429, Note_off_c, 5, 77, 127
1, 205429, Note_off_c, 4, 52, 127
1, 205430, Note_on_c, 4, 76, 127
1, 205430, Note_on_c, 1, 61, 127
1, 205430, Note_on_c, 10, 57, 127
1, 205706, Note_off_c, 10, 57, 127
1, 205706, Note_off_c, 1, 61, 127
1, 205706, Note_off_c, 4, 76, 127
1, 205707, Note_on_c, 2, 74, 127
1, 205707, Note_on_c, 4, 64, 127
1, 205707, Note_on_c, 4, 52, 127
1, 205844, Note_off_c, 2, 74, 127
1, 205845, Note_on_c, 1, 73, 127
1, 205982, Note_off_c, 1, 73, 127
1, 205982, Note_off_c, 4, 52, 127
1, 205982, Note_off_c, 4, 64, 127
1, 205983, Note_on_c, 2, 74, 127
1, 205983, Note_on_c, 5, 53, 127
1, 205983, Note_on_c, 10, 57, 127
1, 206259, Note_off_c, 5, 53, 127
1, 206259, Note_off_c, 2, 74, 127
1, 206260, Note_on_c, 2, 62, 127
1, 206260, Note_on_c, 2, 50, 127
1, 206397, Note_off_c, 2, 62, 127
1, 206398, Note_on_c, 4, 64, 127
1, 206531, Note_off_c, 10, 57, 127
1, 206535, Note_off_c, 4, 64, 127
1, 206535, Note_off_c, 2, 50, 127
1, 206536, Note_on_c, 5, 65, 127
1, 206536, Note_on_c, 2, 62, 127
1, 206812, Note_off_c, 5, 65, 127
1, 206813, Note_on_c, 4, 64, 127
1, 206950, Note_off_c, 4, 64, 127
1, 206951, Note_on_c, 5, 65, 127
1, 207088, Note_off_c, 5, 65, 127
1, 207089, Note_on_c, 7, 67, 127
1, 207365, Note_off_c, 7, 67, 127
1, 207366, Note_on_c, 5, 65, 127
1, 207503, Note_off_c, 5, 65, 127
1, 207504, Note_on_c, 7, 67, 127
1, 207641, Note_off_c, 7, 67, 127
1, 207641, Note_off_c, 2, 62, 127
1, 207642, Note_on_c, 10, 69, 127
1, 207642, Note_on_c, 1, 61, 127
1, 207918, Note_off_c, 10, 69, 127
1, 207919, Note_on_c, 7, 67, 127
1, 208056, Note_off_c, 7, 67, 127
1, 208057, Note_on_c, 10, 69, 127
1, 208194, Note_off_c, 10, 69, 127
1, 208194, Note_off_c, 1, 61, 127
1, 208195, Note_on_c, 5, 65, 127
1, 208195, Note_on_c, 2, 62, 127
1, 208471, Note_off_c, 2, 62, 127
1, 208471, Note_off_c, 5, 65, 127
1, 208472, Note_on_c, 2, 62, 127
1, 208472, Note_on_c, 2, 50, 127
1, 208609, Note_off_c, 2, 50, 127
1, 208610, Note_on_c, 4, 52, 127
1, 208747, Note_off_c, 4, 52, 127
1, 208747, Note_off_c, 2, 62, 127
1, 208748, Note_on_c, 10, 69, 127
1, 208748, Note_on_c, 5, 65, 127
1, 208748, Note_on_c, 2, 74, 127
1, 208748, Note_on_c, 5, 53, 127
1, 209024, Note_off_c, 5, 53, 127
1, 209024, Note_off_c, 5, 65, 127
1, 209024, Note_off_c, 10, 69, 127
1, 209025, Note_on_c, 5, 65, 127
1, 209025, Note_on_c, 10, 69, 127
1, 209025, Note_on_c, 4, 52, 127
1, 209162, Note_off_c, 4, 52, 127
1, 209163, Note_on_c, 5, 53, 127
1, 209296, Note_off_c, 2, 74, 127
1, 209300, Note_off_c, 5, 53, 127
1, 209300, Note_off_c, 10, 69, 127
1, 209300, Note_off_c, 5, 65, 127
1, 209301, Note_on_c, 2, 74, 127
1, 209301, Note_on_c, 4, 64, 127
1, 209301, Note_on_c, 11, 70, 127
1, 209301, Note_on_c, 7, 55, 127
1, 209577, Note_off_c, 7, 55, 127
1, 209577, Note_off_c, 11, 70, 127
1, 209577, Note_off_c, 4, 64, 127
1, 209578, Note_on_c, 4, 64, 127
1, 209578, Note_on_c, 11, 70, 127
1, 209578, Note_on_c, 5, 53, 127
1, 209715, Note_off_c, 5, 53, 127
1, 209716, Note_on_c, 7, 55, 127
1, 209849, Note_off_c, 2, 74, 127
1, 209853, Note_off_c, 7, 55, 127
1, 209853, Note_off_c, 11, 70, 127
1, 209853, Note_off_c, 4, 64, 127
1, 209854, Note_on_c, 1, 73, 127
1, 209854, Note_on_c, 4, 64, 127
1, 209854, Note_on_c, 10, 69, 127
1, 209854, Note_on_c, 10, 57, 127
1, 210130, Note_off_c, 10, 57, 127
1, 210130, Note_off_c, 10, 69, 127
1, 210130, Note_off_c, 4, 64, 127
1, 210131, Note_on_c, 10, 69, 127
1, 210131, Note_on_c, 4, 64, 127
1, 210131, Note_on_c, 7, 55, 127
1, 210268, Note_off_c, 7, 55, 127
1, 210269, Note_on_c, 10, 57, 127
1, 210402, Note_off_c, 1, 73, 127
1, 210406, Note_off_c, 10, 57, 127
1, 210406, Note_off_c, 4, 64, 127
1, 210406, Note_off_c, 10, 69, 127
1, 210407, Note_on_c, 2, 62, 127
1, 210407, Note_on_c, 2, 74, 127
1, 210407, Note_on_c, 10, 69, 127
1, 210407, Note_on_c, 10, 57, 127
1, 210407, Note_on_c, 5, 53, 127
1, 210683, Note_off_c, 5, 53, 127
1, 210683, Note_off_c, 10, 69, 127
1, 210683, Note_off_c, 2, 74, 127
1, 210683, Note_off_c, 2, 62, 127
1, 210684, Note_on_c, 5, 77, 127
1, 210684, Note_on_c, 2, 50, 127
1, 210821, Note_off_c, 5, 77, 127
1, 210822, Note_on_c, 3, 75, 127
1, 210955, Note_off_c, 10, 57, 127
1, 210959, Note_off_c, 3, 75, 127
1, 210959, Note_off_c, 2, 50, 127
1, 210960, Note_on_c, 2, 74, 127
1, 210960, Note_on_c, 7, 55, 127
1, 211236, Note_off_c, 2, 74, 127
1, 211237, Note_on_c, 0, 72, 127
1, 211237, Note_on_c, 2, 50, 127
1, 211374, Note_off_c, 0, 72, 127
1, 211375, Note_on_c, 12, 71, 127
1, 211512, Note_off_c, 12, 71, 127
1, 211512, Note_off_c, 2, 50, 127
1, 211513, Note_on_c, 0, 72, 127
1, 211513, Note_on_c, 3, 51, 127
1, 211789, Note_off_c, 3, 51, 127
1, 211789, Note_off_c, 0, 72, 127
1, 211789, Note_off_c, 7, 55, 127
1, 211790, Note_on_c, 3, 75, 127
1, 211790, Note_on_c, 0, 48, 127
1, 211927, Note_off_c, 3, 75, 127
1, 211928, Note_on_c, 2, 74, 127
1, 212065, Note_off_c, 2, 74, 127
1, 212065, Note_off_c, 0, 48, 127
1, 212066, Note_on_c, 0, 72, 127
1, 212066, Note_on_c, 10, 57, 127
1, 212066, Note_on_c, 5, 53, 127
1, 212342, Note_off_c, 5, 53, 127
1, 212342, Note_off_c, 0, 72, 127
1, 212343, Note_on_c, 11, 70, 127
1, 212343, Note_on_c, 0, 48, 127
1, 212480, Note_off_c, 11, 70, 127
1, 212481, Note_on_c, 10, 69, 127
1, 212618, Note_off_c, 10, 69, 127
1, 212618, Note_off_c, 0, 48, 127
1, 212619, Note_on_c, 11, 70, 127
1, 212619, Note_on_c, 2, 50, 127
1, 212895, Note_off_c, 2, 50, 127
1, 212895, Note_off_c, 11, 70, 127
1, 212895, Note_off_c, 10, 57, 127
1, 212896, Note_on_c, 2, 74, 127
1, 212896, Note_on_c, 11, 46, 127
1, 213033, Note_off_c, 2, 74, 127
1, 213034, Note_on_c, 0, 72, 127
1, 213171, Note_off_c, 0, 72, 127
1, 213171, Note_off_c, 11, 46, 127
1, 213172, Note_on_c, 11, 70, 127
1, 213172, Note_on_c, 3, 51, 127
1, 213172, Note_on_c, 7, 55, 127
1, 213448, Note_off_c, 3, 51, 127
1, 213448, Note_off_c, 11, 70, 127
1, 213449, Note_on_c, 10, 69, 127
1, 213449, Note_on_c, 11, 46, 127
1, 213586, Note_off_c, 10, 69, 127
1, 213587, Note_on_c, 7, 67, 127
1, 213724, Note_off_c, 7, 67, 127
1, 213724, Note_off_c, 11, 46, 127
1, 213725, Note_on_c, 10, 69, 127
1, 213725, Note_on_c, 0, 48, 127
1, 214001, Note_off_c, 0, 48, 127
1, 214001, Note_off_c, 10, 69, 127
1, 214001, Note_off_c, 7, 55, 127
1, 214002, Note_on_c, 0, 72, 127
1, 214002, Note_on_c, 10, 45, 127
1, 214139, Note_off_c, 0, 72, 127
1, 214140, Note_on_c, 11, 70, 127
1, 214277, Note_off_c, 11, 70, 127
1, 214277, Note_off_c, 10, 45, 127
1, 214278, Note_on_c, 10, 69, 127
1, 214278, Note_on_c, 6, 54, 127
1, 214278, Note_on_c, 2, 50, 127
1, 214554, Note_off_c, 2, 50, 127
1, 214554, Note_off_c, 6, 54, 127
1, 214554, Note_off_c, 10, 69, 127
1, 214555, Note_on_c, 7, 67, 127
1, 214555, Note_on_c, 10, 45, 127
1, 214555, Note_on_c, 10, 57, 127
1, 214692, Note_off_c, 7, 67, 127
1, 214693, Note_on_c, 6, 66, 127
1, 214830, Note_off_c, 6, 66, 127
1, 214830, Note_off_c, 10, 57, 127
1, 214830, Note_off_c, 10, 45, 127
1, 214831, Note_on_c, 7, 67, 127
1, 214831, Note_on_c, 2, 50, 127
1, 214831, Note_on_c, 11, 46, 127
1, 215107, Note_off_c, 11, 46, 127
1, 215107, Note_off_c, 2, 50, 127
1, 215107, Note_off_c, 7, 67, 127
1, 215108, Note_on_c, 7, 67, 127
1, 215108, Note_on_c, 7, 55, 127
1, 215108, Note_on_c, 7, 43, 127
1, 215245, Note_off_c, 7, 43, 127
1, 215245, Note_off_c, 7, 55, 127
1, 215245, Note_off_c, 7, 67, 127
1, 215246, Note_on_c, 10, 69, 127
1, 215246, Note_on_c, 10, 57, 127
1, 215383, Note_off_c, 10, 57, 127
1, 215383, Note_off_c, 10, 69, 127
1, 215384, Note_on_c, 11, 70, 127
1, 215384, Note_on_c, 11, 58, 127
1, 215660, Note_off_c, 11, 58, 127
1, 215660, Note_off_c, 11, 70, 127
1, 215661, Note_on_c, 10, 69, 127
1, 215661, Note_on_c, 10, 57, 127
1, 215798, Note_off_c, 10, 57, 127
1, 215798, Note_off_c, 10, 69, 127
1, 215799, Note_on_c, 11, 70, 127
1, 215799, Note_on_c, 11, 58, 127
1, 215936, Note_off_c, 11, 58, 127
1, 215936, Note_off_c, 11, 70, 127
1, 215937, Note_on_c, 0, 72, 127
1, 215937, Note_on_c, 0, 60, 127
1, 216213, Note_off_c, 0, 60, 127
1, 216213, Note_off_c, 0, 72, 127
1, 216214, Note_on_c, 11, 70, 127
1, 216214, Note_on_c, 11, 58, 127
1, 216351, Note_off_c, 11, 58, 127
1, 216351, Note_off_c, 11, 70, 127
1, 216352, Note_on_c, 0, 72, 127
1, 216352, Note_on_c, 0, 60, 127
1, 216489, Note_off_c, 0, 60, 127
1, 216489, Note_off_c, 0, 72, 127
1, 216490, Note_on_c, 2, 74, 127
1, 216490, Note_on_c, 2, 62, 127
1, 216766, Note_off_c, 2, 62, 127
1, 216766, Note_off_c, 2, 74, 127
1, 216767, Note_on_c, 0, 72, 127
1, 216767, Note_on_c, 0, 60, 127
1, 216904, Note_off_c, 0, 60, 127
1, 216904, Note_off_c, 0, 72, 127
1, 216905, Note_on_c, 2, 74, 127
1, 216905, Note_on_c, 2, 62, 127
1, 217042, Note_off_c, 2, 62, 127
1, 217042, Note_off_c, 2, 74, 127
1, 217043, Note_on_c, 11, 70, 127
1, 217043, Note_on_c, 11, 58, 127
1, 217319, Note_off_c, 11, 58, 127
1, 217319, Note_off_c, 11, 70, 127
1, 217320, Note_on_c, 7, 67, 127
1, 217320, Note_on_c, 7, 43, 127
1, 217457, Note_off_c, 7, 43, 127
1, 217458, Note_on_c, 10, 45, 127
1, 217594, Note_off_c, 7, 67, 127
1, 217595, Note_off_c, 10, 45, 127
1, 217596, Note_on_c, 11, 46, 127
1, 217872, Note_off_c, 11, 46, 127
1, 217873, Note_on_c, 10, 45, 127
1, 218010, Note_off_c, 10, 45, 127
1, 218011, Note_on_c, 11, 46, 127
1, 218148, Note_off_c, 11, 46, 127
1, 218149, Note_on_c, 0, 48, 127
1, 218425, Note_off_c, 0, 48, 127
1, 218426, Note_on_c, 11, 46, 127
1, 218563, Note_off_c, 11, 46, 127
1, 218564, Note_on_c, 0, 48, 127
1, 218701, Note_off_c, 0, 48, 127
1, 218702, Note_on_c, 2, 74, 127
1, 218702, Note_on_c, 2, 50, 127
1, 218978, Note_off_c, 2, 50, 127
1, 218978, Note_off_c, 2, 74, 127
1, 218979, Note_on_c, 10, 69, 127
1, 218979, Note_on_c, 0, 72, 127
1, 218979, Note_on_c, 2, 74, 127
1, 218979, Note_on_c, 6, 78, 127
1, 218979, Note_on_c, 2, 38, 127
1, 219255, Note_off_c, 2, 38, 127
1, 219255, Note_off_c, 6, 78, 127
1, 219255, Note_off_c, 2, 74, 127
1, 219255, Note_off_c, 0, 72, 127
1, 219255, Note_off_c, 10, 69, 127
1, 219272, Note_on_c, 7, 43, 127
1, 219272, Note_on_c, 11, 70, 127
1, 219272, Note_on_c, 2, 74, 127
1, 219272, Note_on_c, 7, 79, 127
1, 219272, Note_on_c, 7, 67, 127
1, 219826, Note_off_c, 7, 67, 127
1, 219826, Note_off_c, 7, 79, 127
1, 219826, Note_off_c, 2, 74, 127
1, 219826, Note_off_c, 11, 70, 127
1, 219826, Note_off_c, 7, 43, 127
1, 219859, Note_on_c, 7, 55, 127
1, 219859, Note_on_c, 7, 67, 127
1, 220135, Note_off_c, 7, 55, 127
1, 220136, Note_on_c, 2, 50, 127
1, 220273, Note_off_c, 7, 67, 127
1, 220274, Note_on_c, 10, 69, 127
1, 220411, Note_off_c, 10, 69, 127
1, 220411, Note_off_c, 2, 50, 127
1, 220412, Note_on_c, 7, 55, 127
1, 220412, Note_on_c, 11, 70, 127
1, 220688, Note_off_c, 7, 55, 127
1, 220689, Note_on_c, 6, 54, 127
1, 220826, Note_off_c, 11, 70, 127
1, 220827, Note_on_c, 10, 69, 127
1, 220964, Note_off_c, 10, 69, 127
1, 220964, Note_off_c, 6, 54, 127
1, 220965, Note_on_c, 7, 55, 127
1, 220965, Note_on_c, 11, 70, 127
1, 221241, Note_off_c, 11, 70, 127
1, 221241, Note_off_c, 7, 55, 127
1, 221242, Note_on_c, 3, 51, 127
1, 221242, Note_on_c, 0, 72, 127
1, 221518, Note_off_c, 0, 72, 127
1, 221518, Note_off_c, 3, 51, 127
1, 221519, Note_on_c, 2, 50, 127
1, 221519, Note_on_c, 2, 74, 127
1, 221795, Note_off_c, 2, 74, 127
1, 221795, Note_off_c, 2, 50, 127
1, 221796, Note_on_c, 3, 51, 127
1, 221796, Note_on_c, 7, 67, 127
1, 222072, Note_off_c, 7, 67, 127
1, 222072, Note_off_c, 3, 51, 127
1, 222073, Note_on_c, 11, 46, 127
1, 222073, Note_on_c, 7, 79, 127
1, 222349, Note_off_c, 7, 79, 127
1, 222349, Note_off_c, 11, 46, 127
1, 222350, Note_on_c, 12, 47, 127
1, 222350, Note_on_c, 5, 77, 127
1, 222626, Note_off_c, 5, 77, 127
1, 222626, Note_off_c, 12, 47, 127
1, 222627, Note_on_c, 0, 48, 127
1, 222627, Note_on_c, 3, 75, 127
1, 222903, Note_off_c, 3, 75, 127
1, 222903, Note_off_c, 0, 48, 127
1, 222904, Note_on_c, 2, 50, 127
1, 222904, Note_on_c, 2, 74, 127
1, 223041, Note_off_c, 2, 74, 127
1, 223042, Note_on_c, 0, 72, 127
1, 223179, Note_off_c, 0, 72, 127
1, 223179, Note_off_c, 2, 50, 127
1, 223180, Note_on_c, 3, 51, 127
1, 223180, Note_on_c, 11, 70, 127
1, 223456, Note_off_c, 11, 70, 127
1, 223457, Note_on_c, 0, 72, 127
1, 223733, Note_off_c, 0, 72, 127
1, 223733, Note_off_c, 3, 51, 127
1, 223734, Note_on_c, 2, 50, 127
1, 223734, Note_on_c, 2, 74, 127
1, 224009, Note_off_c, 2, 74, 127
1, 224010, Note_off_c, 2, 50, 127
1, 224011, Note_on_c, 2, 62, 127
1, 224011, Note_on_c, 6, 66, 127
1, 224011, Note_on_c, 2, 74, 127
1, 224148, Note_off_c, 6, 66, 127
1, 224149, Note_on_c, 7, 67, 127
1, 224149, Note_on_c, 4, 76, 127
1, 224285, Note_off_c, 2, 62, 127
1, 224286, Note_off_c, 4, 76, 127
1, 224286, Note_off_c, 7, 67, 127
1, 224287, Note_on_c, 2, 62, 127
1, 224287, Note_on_c, 10, 69, 127
1, 224287, Note_on_c, 6, 78, 127
1, 224563, Note_off_c, 6, 78, 127
1, 224563, Note_off_c, 2, 62, 127
1, 224564, Note_on_c, 0, 60, 127
1, 224564, Note_on_c, 4, 76, 127
1, 224701, Note_off_c, 4, 76, 127
1, 224702, Note_on_c, 6, 78, 127
1, 224835, Note_off_c, 10, 69, 127
1, 224839, Note_off_c, 6, 78, 127
1, 224839, Note_off_c, 0, 60, 127
1, 224840, Note_on_c, 12, 59, 127
1, 224840, Note_on_c, 2, 62, 127
1, 224840, Note_on_c, 7, 79, 127
1, 225116, Note_off_c, 2, 74, 127
1, 225117, Note_on_c, 2, 74, 127
1, 225244, Note_off_c, 7, 79, 127
1, 225254, Note_off_c, 2, 74, 127
1, 225255, Note_on_c, 3, 75, 127
1, 225388, Note_off_c, 2, 62, 127
1, 225388, Note_off_c, 12, 59, 127
1, 225392, Note_off_c, 3, 75, 127
1, 225393, Note_on_c, 5, 77, 127
1, 225669, Note_off_c, 5, 77, 127
1, 225670, Note_on_c, 3, 75, 127
1, 225807, Note_off_c, 3, 75, 127
1, 225808, Note_on_c, 2, 74, 127
1, 225945, Note_off_c, 2, 74, 127
1, 225946, Note_on_c, 3, 75, 127
1, 226224, Note_on_c, 3, 63, 127
1, 226224, Note_on_c, 0, 60, 127
1, 226224, Note_on_c, 0, 72, 127
1, 226361, Note_off_c, 0, 72, 127
1, 226361, Note_off_c, 3, 63, 127
1, 226362, Note_on_c, 5, 65, 127
1, 226362, Note_on_c, 2, 74, 127
1, 226495, Note_off_c, 3, 75, 127
1, 226498, Note_off_c, 0, 60, 127
1, 226499, Note_off_c, 2, 74, 127
1, 226499, Note_off_c, 5, 65, 127
1, 226500, Note_on_c, 0, 60, 127
1, 226500, Note_on_c, 7, 67, 127
1, 226500, Note_on_c, 3, 75, 127
1, 226776, Note_off_c, 3, 75, 127
1, 226776, Note_off_c, 0, 60, 127
1, 226777, Note_on_c, 11, 58, 127
1, 226777, Note_on_c, 2, 74, 127
1, 226914, Note_off_c, 2, 74, 127
1, 226915, Note_on_c, 3, 75, 127
1, 227048, Note_off_c, 7, 67, 127
1, 227052, Note_off_c, 3, 75, 127
1, 227052, Note_off_c, 11, 58, 127
1, 227053, Note_on_c, 10, 57, 127
1, 227053, Note_on_c, 0, 60, 127
1, 227053, Note_on_c, 5, 77, 127
1, 227331, Note_on_c, 0, 72, 127
1, 227458, Note_off_c, 5, 77, 127
1, 227468, Note_off_c, 0, 72, 127
1, 227469, Note_on_c, 2, 74, 127
1, 227602, Note_off_c, 0, 60, 127
1, 227602, Note_off_c, 10, 57, 127
1, 227606, Note_off_c, 2, 74, 127
1, 227607, Note_on_c, 3, 75, 127
1, 227883, Note_off_c, 3, 75, 127
1, 227884, Note_on_c, 2, 74, 127
1, 228021, Note_off_c, 2, 74, 127
1, 228022, Note_on_c, 0, 72, 127
1, 228159, Note_off_c, 0, 72, 127
1, 228160, Note_on_c, 2, 74, 127
1, 228438, Note_on_c, 2, 62, 127
1, 228438, Note_on_c, 11, 58, 127
1, 228438, Note_on_c, 11, 70, 127
1, 228575, Note_off_c, 11, 70, 127
1, 228575, Note_off_c, 2, 62, 127
1, 228576, Note_on_c, 3, 63, 127
1, 228576, Note_on_c, 0, 72, 127
1, 228709, Note_off_c, 2, 74, 127
1, 228712, Note_off_c, 11, 58, 127
1, 228713, Note_off_c, 0, 72, 127
1, 228713, Note_off_c, 3, 63, 127
1, 228714, Note_on_c, 11, 58, 127
1, 228714, Note_on_c, 5, 65, 127
1, 228714, Note_on_c, 2, 74, 127
1, 228990, Note_off_c, 2, 74, 127
1, 228990, Note_off_c, 11, 58, 127
1, 228991, Note_on_c, 10, 57, 127
1, 228991, Note_on_c, 0, 72, 127
1, 229128, Note_off_c, 0, 72, 127
1, 229129, Note_on_c, 2, 74, 127
1, 229262, Note_off_c, 5, 65, 127
1, 229266, Note_off_c, 10, 57, 127
1, 229267, Note_on_c, 11, 58, 127
1, 229267, Note_on_c, 7, 55, 127
1, 229267, Note_on_c, 3, 63, 127
1, 229404, Note_off_c, 2, 74, 127
1, 229405, Note_on_c, 0, 72, 127
1, 229542, Note_off_c, 0, 72, 127
1, 229543, Note_on_c, 2, 74, 127
1, 229680, Note_off_c, 2, 74, 127
1, 229680, Note_off_c, 3, 63, 127
1, 229680, Note_off_c, 7, 55, 127
1, 229680, Note_off_c, 11, 58, 127
1, 229681, Note_on_c, 7, 55, 127
1, 229681, Note_on_c, 3, 63, 127
1, 229681, Note_on_c, 11, 58, 127
1, 229681, Note_on_c, 11, 70, 127
1, 229818, Note_off_c, 11, 70, 127
1, 229818, Note_off_c, 11, 58, 127
1, 229818, Note_off_c, 3, 63, 127
1, 229818, Note_off_c, 7, 55, 127
1, 229819, Note_on_c, 5, 53, 127
1, 229819, Note_on_c, 10, 57, 127
1, 229819, Note_on_c, 2, 62, 127
1, 229819, Note_on_c, 5, 77, 127
1, 229956, Note_off_c, 5, 77, 127
1, 229957, Note_on_c, 3, 75, 127
1, 230094, Note_off_c, 3, 75, 127
1, 230095, Note_on_c, 5, 77, 127
1, 230232, Note_off_c, 5, 77, 127
1, 230232, Note_off_c, 2, 62, 127
1, 230232, Note_off_c, 10, 57, 127
1, 230232, Note_off_c, 5, 53, 127
1, 230233, Note_on_c, 5, 53, 127
1, 230233, Note_on_c, 10, 57, 127
1, 230233, Note_on_c, 2, 62, 127
1, 230233, Note_on_c, 10, 69, 127
1, 230370, Note_off_c, 10, 69, 127
1, 230370, Note_off_c, 2, 62, 127
1, 230370, Note_off_c, 10, 57, 127
1, 230370, Note_off_c, 5, 53, 127
1, 230371, Note_on_c, 7, 55, 127
1, 230371, Note_on_c, 3, 51, 127
1, 230371, Note_on_c, 2, 62, 127
1, 230371, Note_on_c, 11, 70, 127
1, 230508, Note_off_c, 11, 70, 127
1, 230509, Note_on_c, 10, 69, 127
1, 230646, Note_off_c, 10, 69, 127
1, 230647, Note_on_c, 11, 70, 127
1, 230784, Note_off_c, 11, 70, 127
1, 230784, Note_off_c, 2, 62, 127
1, 230784, Note_off_c, 3, 51, 127
1, 230784, Note_off_c, 7, 55, 127
1, 230785, Note_on_c, 3, 51, 127
1, 230785, Note_on_c, 7, 55, 127
1, 230785, Note_on_c, 0, 60, 127
1, 230785, Note_on_c, 7, 67, 127
1, 230922, Note_off_c, 7, 67, 127
1, 230922, Note_off_c, 0, 60, 127
1, 230922, Note_off_c, 7, 55, 127
1, 230922, Note_off_c, 3, 51, 127
1, 230923, Note_on_c, 5, 53, 127
1, 230923, Note_on_c, 0, 60, 127
1, 230923, Note_on_c, 2, 50, 127
1, 230923, Note_on_c, 2, 74, 127
1, 231060, Note_off_c, 2, 74, 127
1, 231061, Note_on_c, 0, 72, 127
1, 231198, Note_off_c, 0, 72, 127
1, 231199, Note_on_c, 2, 74, 127
1, 231336, Note_off_c, 2, 74, 127
1, 231336, Note_off_c, 2, 50, 127
1, 231336, Note_off_c, 0, 60, 127
1, 231336, Note_off_c, 5, 53, 127
1, 231337, Note_on_c, 11, 58, 127
1, 231337, Note_on_c, 5, 53, 127
1, 231337, Note_on_c, 2, 50, 127
1, 231337, Note_on_c, 5, 65, 127
1, 231474, Note_off_c, 5, 65, 127
1, 231474, Note_off_c, 2, 50, 127
1, 231474, Note_off_c, 5, 53, 127
1, 231474, Note_off_c, 11, 58, 127
1, 231475, Note_on_c, 3, 51, 127
1, 231475, Note_on_c, 0, 48, 127
1, 231475, Note_on_c, 0, 60, 127
1, 231475, Note_on_c, 10, 69, 127
1, 231612, Note_off_c, 10, 69, 127
1, 231613, Note_on_c, 7, 67, 127
1, 231750, Note_off_c, 7, 67, 127
1, 231751, Note_on_c, 10, 69, 127
1, 231888, Note_off_c, 10, 69, 127
1, 231888, Note_off_c, 0, 60, 127
1, 231888, Note_off_c, 0, 48, 127
1, 231888, Note_off_c, 3, 51, 127
1, 231889, Note_on_c, 0, 60, 127
1, 231889, Note_on_c, 0, 48, 127
1, 231889, Note_on_c, 3, 51, 127
1, 231889, Note_on_c, 3, 63, 127
1, 232026, Note_off_c, 3, 63, 127
1, 232026, Note_off_c, 3, 51, 127
1, 232026, Note_off_c, 0, 48, 127
1, 232026, Note_off_c, 0, 60, 127
1, 232027, Note_on_c, 2, 50, 127
1, 232027, Note_on_c, 5, 53, 127
1, 232027, Note_on_c, 11, 46, 127
1, 232027, Note_on_c, 11, 70, 127
1, 232164, Note_off_c, 11, 70, 127
1, 232165, Note_on_c, 10, 69, 127
1, 232302, Note_off_c, 10, 69, 127
1, 232303, Note_on_c, 11, 70, 127
1, 232440, Note_off_c, 11, 70, 127
1, 232440, Note_off_c, 11, 46, 127
1, 232440, Note_off_c, 5, 53, 127
1, 232440, Note_off_c, 2, 50, 127
1, 232441, Note_on_c, 2, 50, 127
1, 232441, Note_on_c, 11, 46, 127
1, 232441, Note_on_c, 5, 53, 127
1, 232441, Note_on_c, 2, 62, 127
1, 232578, Note_off_c, 2, 62, 127
1, 232578, Note_off_c, 5, 53, 127
1, 232578, Note_off_c, 11, 46, 127
1, 232578, Note_off_c, 2, 50, 127
1, 232579, Note_on_c, 5, 41, 127
1, 232579, Note_on_c, 0, 60, 127
1, 232579, Note_on_c, 5, 65, 127
1, 232579, Note_on_c, 10, 69, 127
1, 232854, Note_off_c, 5, 41, 127
1, 232855, Note_off_c, 5, 65, 127
1, 232855, Note_off_c, 0, 60, 127
1, 232884, Note_off_c, 10, 69, 127
1, 232884, Note_on_c, 11, 70, 127
1, 233021, Note_off_c, 11, 70, 127
1, 233024, Note_on_c, 0, 72, 127
1, 233161, Note_off_c, 0, 72, 127
1, 233164, Note_on_c, 2, 74, 127
1, 233164, Note_on_c, 11, 70, 127
1, 233440, Note_off_c, 2, 74, 127
1, 233441, Note_on_c, 0, 72, 127
1, 233578, Note_off_c, 0, 72, 127
1, 233579, Note_on_c, 2, 74, 127
1, 233716, Note_off_c, 2, 74, 127
1, 233717, Note_on_c, 3, 75, 127
1, 233993, Note_off_c, 3, 75, 127
1, 233994, Note_on_c, 2, 74, 127
1, 234131, Note_off_c, 2, 74, 127
1, 234132, Note_on_c, 3, 75, 127
1, 234269, Note_off_c, 3, 75, 127
1, 234269, Note_off_c, 11, 70, 127
1, 234270, Note_on_c, 5, 77, 127
1, 234270, Note_on_c, 10, 69, 127
1, 234546, Note_off_c, 5, 77, 127
1, 234547, Note_on_c, 3, 75, 127
1, 234684, Note_off_c, 3, 75, 127
1, 234685, Note_on_c, 5, 77, 127
1, 234818, Note_off_c, 10, 69, 127
1, 234822, Note_off_c, 5, 77, 127
1, 234823, Note_on_c, 2, 74, 127
1, 234823, Note_on_c, 11, 70, 127
1, 235099, Note_off_c, 11, 70, 127
1, 235099, Note_off_c, 2, 74, 127
1, 235100, Note_on_c, 11, 58, 127
1, 235100, Note_on_c, 11, 70, 127
1, 235237, Note_off_c, 11, 58, 127
1, 235238, Note_on_c, 0, 60, 127
1, 235375, Note_off_c, 0, 60, 127
1, 235375, Note_off_c, 11, 70, 127
1, 235376, Note_on_c, 2, 62, 127
1, 235376, Note_on_c, 11, 82, 127
1, 235652, Note_off_c, 2, 62, 127
1, 235653, Note_on_c, 0, 60, 127
1, 235653, Note_on_c, 11, 70, 127
1, 235790, Note_off_c, 0, 60, 127
1, 235791, Note_on_c, 2, 62, 127
1, 235928, Note_off_c, 2, 62, 127
1, 235928, Note_off_c, 11, 70, 127
1, 235929, Note_on_c, 3, 63, 127
1, 235929, Note_on_c, 0, 72, 127
1, 236205, Note_off_c, 3, 63, 127
1, 236205, Note_off_c, 11, 82, 127
1, 236206, Note_on_c, 2, 62, 127
1, 236206, Note_on_c, 11, 82, 127
1, 236343, Note_off_c, 2, 62, 127
1, 236344, Note_on_c, 3, 63, 127
1, 236477, Note_off_c, 0, 72, 127
1, 236481, Note_off_c, 3, 63, 127
1, 236482, Note_on_c, 5, 65, 127
1, 236482, Note_on_c, 0, 72, 127
1, 236754, Note_off_c, 11, 82, 127
1, 236758, Note_off_c, 5, 65, 127
1, 236759, Note_on_c, 3, 63, 127
1, 236759, Note_on_c, 10, 81, 127
1, 236896, Note_off_c, 3, 63, 127
1, 236897, Note_on_c, 5, 65, 127
1, 237030, Note_off_c, 0, 72, 127
1, 237034, Note_off_c, 5, 65, 127
1, 237034, Note_off_c, 10, 81, 127
1, 237035, Note_on_c, 2, 62, 127
1, 237035, Note_on_c, 11, 70, 127
1, 237035, Note_on_c, 11, 82, 127
1, 237311, Note_off_c, 11, 82, 127
1, 237311, Note_off_c, 11, 70, 127
1, 237311, Note_off_c, 2, 62, 127
1, 237312, Note_on_c, 11, 46, 127
1, 237312, Note_on_c, 2, 74, 127
1, 237449, Note_off_c, 2, 74, 127
1, 237449, Note_off_c, 11, 46, 127
1, 237450, Note_on_c, 0, 48, 127
1, 237450, Note_on_c, 3, 75, 127
1, 237587, Note_off_c, 3, 75, 127
1, 237587, Note_off_c, 0, 48, 127
1, 237588, Note_on_c, 2, 50, 127
1, 237588, Note_on_c, 5, 77, 127
1, 237864, Note_off_c, 5, 77, 127
1, 237864, Note_off_c, 2, 50, 127
1, 237865, Note_on_c, 0, 48, 127
1, 237865, Note_on_c, 3, 75, 127
1, 238002, Note_off_c, 3, 75, 127
1, 238002, Note_off_c, 0, 48, 127
1, 238003, Note_on_c, 2, 50, 127
1, 238003, Note_on_c, 5, 77, 127
1, 238140, Note_off_c, 5, 77, 127
1, 238140, Note_off_c, 2, 50, 127
1, 238141, Note_on_c, 3, 51, 127
1, 238141, Note_on_c, 7, 79, 127
1, 238417, Note_off_c, 7, 79, 127
1, 238417, Note_off_c, 3, 51, 127
1, 238418, Note_on_c, 2, 50, 127
1, 238418, Note_on_c, 5, 77, 127
1, 238555, Note_off_c, 5, 77, 127
1, 238555, Note_off_c, 2, 50, 127
1, 238556, Note_on_c, 3, 51, 127
1, 238556, Note_on_c, 7, 79, 127
1, 238693, Note_off_c, 7, 79, 127
1, 238693, Note_off_c, 3, 51, 127
1, 238694, Note_on_c, 5, 53, 127
1, 238694, Note_on_c, 10, 81, 127
1, 238970, Note_off_c, 10, 81, 127
1, 238970, Note_off_c, 5, 53, 127
1, 238971, Note_on_c, 3, 51, 127
1, 238971, Note_on_c, 7, 79, 127
1, 239108, Note_off_c, 7, 79, 127
1, 239108, Note_off_c, 3, 51, 127
1, 239109, Note_on_c, 5, 53, 127
1, 239109, Note_on_c, 10, 81, 127
1, 239246, Note_off_c, 10, 81, 127
1, 239246, Note_off_c, 5, 53, 127
1, 239247, Note_on_c, 2, 50, 127
1, 239247, Note_on_c, 11, 82, 127
1, 239523, Note_off_c, 11, 82, 127
1, 239523, Note_off_c, 2, 50, 127
1, 239524, Note_on_c, 11, 46, 127
1, 239524, Note_on_c, 5, 65, 127
1, 239524, Note_on_c, 11, 70, 127
1, 239524, Note_on_c, 2, 62, 127
1, 239800, Note_off_c, 2, 62, 127
1, 239800, Note_off_c, 11, 70, 127
1, 239800, Note_off_c, 5, 65, 127
1, 239800, Note_off_c, 11, 46, 127
1, 239801, Note_on_c, 3, 39, 127
1, 239801, Note_on_c, 0, 72, 127
1, 239801, Note_on_c, 3, 63, 127
1, 239801, Note_on_c, 7, 67, 127
1, 240077, Note_off_c, 7, 67, 127
1, 240077, Note_off_c, 3, 63, 127
1, 240077, Note_off_c, 0, 72, 127
1, 240077, Note_off_c, 3, 39, 127
1, 240078, Note_on_c, 5, 41, 127
1, 240078, Note_on_c, 5, 65, 127
1, 240078, Note_on_c, 10, 69, 127
1, 240078, Note_on_c, 0, 60, 127
1, 240354, Note_off_c, 0, 60, 127
1, 240354, Note_off_c, 10, 69, 127
1, 240354, Note_off_c, 5, 65, 127
1, 240354, Note_off_c, 5, 41, 127
1, 240355, Note_on_c, 11, 46, 127
1, 240355, Note_on_c, 2, 62, 127
1, 240355, Note_on_c, 5, 65, 127
1, 240355, Note_on_c, 11, 70, 127
1, 240909, Note_off_c, 11, 70, 127
1, 240909, Note_off_c, 5, 65, 127
1, 240909, Note_off_c, 2, 62, 127
1, 240909, Note_off_c, 11, 46, 127
1, 240942, Note_on_c, 3, 51, 127
1, 240942, Note_on_c, 7, 67, 127
1, 241218, Note_off_c, 7, 67, 127
1, 241218, Note_off_c, 3, 51, 127
1, 241219, Note_on_c, 2, 50, 127
1, 241219, Note_on_c, 10, 69, 127
1, 241495, Note_off_c, 10, 69, 127
1, 241495, Note_off_c, 2, 50, 127
1, 241496, Note_on_c, 7, 55, 127
1, 241496, Note_on_c, 11, 70, 127
1, 241772, Note_off_c, 7, 55, 127
1, 241773, Note_on_c, 6, 54, 127
1, 241910, Note_off_c, 11, 70, 127
1, 241911, Note_on_c, 10, 69, 127
1, 242048, Note_off_c, 10, 69, 127
1, 242048, Note_off_c, 6, 54, 127
1, 242049, Note_on_c, 7, 55, 127
1, 242049, Note_on_c, 11, 70, 127
1, 242325, Note_off_c, 11, 70, 127
1, 242325, Note_off_c, 7, 55, 127
1, 242326, Note_on_c, 3, 51, 127
1, 242326, Note_on_c, 0, 72, 127
1, 242602, Note_off_c, 0, 72, 127
1, 242602, Note_off_c, 3, 51, 127
1, 242603, Note_on_c, 2, 50, 127
1, 242603, Note_on_c, 2, 74, 127
1, 242879, Note_off_c, 2, 74, 127
1, 242879, Note_off_c, 2, 50, 127
1, 242880, Note_on_c, 3, 51, 127
1, 242880, Note_on_c, 7, 67, 127
1, 243156, Note_off_c, 7, 67, 127
1, 243156, Note_off_c, 3, 51, 127
1, 243157, Note_on_c, 11, 46, 127
1, 243157, Note_on_c, 7, 79, 127
1, 243433, Note_off_c, 7, 79, 127
1, 243433, Note_off_c, 11, 46, 127
1, 243434, Note_on_c, 12, 47, 127
1, 243434, Note_on_c, 5, 77, 127
1, 243710, Note_off_c, 5, 77, 127
1, 243710, Note_off_c, 12, 47, 127
1, 243711, Note_on_c, 0, 48, 127
1, 243711, Note_on_c, 3, 75, 127
1, 243987, Note_off_c, 3, 75, 127
1, 243987, Note_off_c, 0, 48, 127
1, 243988, Note_on_c, 2, 50, 127
1, 243988, Note_on_c, 2, 74, 127
1, 244125, Note_off_c, 2, 74, 127
1, 244126, Note_on_c, 0, 72, 127
1, 244263, Note_off_c, 0, 72, 127
1, 244263, Note_off_c, 2, 50, 127
1, 244264, Note_on_c, 3, 51, 127
1, 244264, Note_on_c, 11, 70, 127
1, 244540, Note_off_c, 11, 70, 127
1, 244541, Note_on_c, 0, 72, 127
1, 244817, Note_off_c, 0, 72, 127
1, 244817, Note_off_c, 3, 51, 127
1, 244818, Note_on_c, 2, 50, 127
1, 244818, Note_on_c, 2, 74, 127
1, 245094, Note_off_c, 2, 74, 127
1, 245094, Note_off_c, 2, 50, 127
1, 245095, Note_on_c, 6, 66, 127
1, 245095, Note_on_c, 2, 62, 127
1, 245095, Note_on_c, 2, 74, 127
1, 245232, Note_off_c, 6, 66, 127
1, 245233, Note_on_c, 7, 67, 127
1, 245233, Note_on_c, 4, 76, 127
1, 245369, Note_off_c, 2, 62, 127
1, 245370, Note_off_c, 4, 76, 127
1, 245370, Note_off_c, 7, 67, 127
1, 245371, Note_on_c, 10, 69, 127
1, 245371, Note_on_c, 2, 62, 127
1, 245371, Note_on_c, 6, 78, 127
1, 245647, Note_off_c, 6, 78, 127
1, 245647, Note_off_c, 2, 62, 127
1, 245648, Note_on_c, 0, 60, 127
1, 245648, Note_on_c, 4, 76, 127
1, 245785, Note_off_c, 4, 76, 127
1, 245786, Note_on_c, 6, 78, 127
1, 245919, Note_off_c, 10, 69, 127
1, 245923, Note_off_c, 6, 78, 127
1, 245923, Note_off_c, 0, 60, 127
1, 245924, Note_on_c, 2, 62, 127
1, 245924, Note_on_c, 12, 59, 127
1, 245924, Note_on_c, 7, 79, 127
1, 246200, Note_off_c, 7, 79, 127
1, 246200, Note_off_c, 2, 74, 127
1, 246201, Note_on_c, 2, 74, 127
1, 246338, Note_off_c, 2, 74, 127
1, 246339, Note_on_c, 3, 75, 127
1, 246472, Note_off_c, 12, 59, 127
1, 246472, Note_off_c, 2, 62, 127
1, 246476, Note_off_c, 3, 75, 127
1, 246477, Note_on_c, 5, 77, 127
1, 246753, Note_off_c, 5, 77, 127
1, 246754, Note_on_c, 3, 75, 127
1, 246891, Note_off_c, 3, 75, 127
1, 246892, Note_on_c, 2, 74, 127
1, 247029, Note_off_c, 2, 74, 127
1, 247030, Note_on_c, 3, 75, 127
1, 247308, Note_on_c, 3, 63, 127
1, 247308, Note_on_c, 0, 60, 127
1, 247308, Note_on_c, 0, 72, 127
1, 247445, Note_off_c, 0, 72, 127
1, 247445, Note_off_c, 3, 63, 127
1, 247446, Note_on_c, 5, 65, 127
1, 247446, Note_on_c, 2, 74, 127
1, 247579, Note_off_c, 3, 75, 127
1, 247582, Note_off_c, 0, 60, 127
1, 247583, Note_off_c, 2, 74, 127
1, 247583, Note_off_c, 5, 65, 127
1, 247584, Note_on_c, 0, 60, 127
1, 247584, Note_on_c, 7, 67, 127
1, 247584, Note_on_c, 3, 75, 127
1, 247860, Note_off_c, 3, 75, 127
1, 247860, Note_off_c, 0, 60, 127
1, 247861, Note_on_c, 11, 58, 127
1, 247861, Note_on_c, 2, 74, 127
1, 247998, Note_off_c, 2, 74, 127
1, 247999, Note_on_c, 3, 75, 127
1, 248132, Note_off_c, 7, 67, 127
1, 248136, Note_off_c, 3, 75, 127
1, 248136, Note_off_c, 11, 58, 127
1, 248137, Note_on_c, 8, 56, 127
1, 248137, Note_on_c, 0, 60, 127
1, 248137, Note_on_c, 5, 65, 127
1, 248415, Note_on_c, 8, 80, 127
1, 248552, Note_off_c, 8, 80, 127
1, 248553, Note_on_c, 7, 79, 127
1, 248690, Note_off_c, 7, 79, 127
1, 248691, Note_on_c, 5, 77, 127
1, 248828, Note_off_c, 5, 77, 127
1, 248829, Note_off_c, 5, 65, 127
1, 248829, Note_off_c, 0, 60, 127
1, 248829, Note_off_c, 8, 56, 127
1, 248829, Note_on_c, 3, 75, 127
1, 248966, Note_off_c, 3, 75, 127
1, 248967, Note_on_c, 5, 53, 127
1, 248967, Note_on_c, 8, 56, 127
1, 248967, Note_on_c, 2, 62, 127
1, 248967, Note_on_c, 2, 74, 127
1, 249104, Note_off_c, 2, 74, 127
1, 249105, Note_on_c, 0, 72, 127
1, 249242, Note_off_c, 0, 72, 127
1, 249242, Note_off_c, 2, 62, 127
1, 249242, Note_off_c, 8, 56, 127
1, 249242, Note_off_c, 5, 53, 127
1, 249243, Note_on_c, 7, 55, 127
1, 249243, Note_on_c, 2, 62, 127
1, 249243, Note_on_c, 12, 71, 127
1, 249519, Note_off_c, 12, 71, 127
1, 249520, Note_on_c, 10, 69, 127
1, 249657, Note_off_c, 10, 69, 127
1, 249658, Note_on_c, 7, 67, 127
1, 249791, Note_off_c, 2, 62, 127
1, 249791, Note_off_c, 7, 55, 127
1, 249795, Note_off_c, 7, 67, 127
1, 249796, Note_on_c, 0, 72, 127
1, 250074, Note_on_c, 4, 52, 127
1, 250074, Note_on_c, 7, 55, 127
1, 250074, Note_on_c, 0, 60, 127
1, 250350, Note_off_c, 0, 60, 127
1, 250350, Note_off_c, 7, 55, 127
1, 250350, Note_off_c, 4, 52, 127
1, 250351, Note_on_c, 8, 56, 127
1, 250351, Note_on_c, 5, 53, 127
1, 250351, Note_on_c, 0, 60, 127
1, 250627, Note_off_c, 0, 72, 127
1, 250628, Note_on_c, 0, 72, 127
1, 250719, Note_off_c, 0, 72, 127
1, 250720, Note_on_c, 2, 74, 127
1, 250811, Note_off_c, 2, 74, 127
1, 250812, Note_on_c, 3, 75, 127
1, 250899, Note_off_c, 0, 60, 127
1, 250899, Note_off_c, 5, 53, 127
1, 250899, Note_off_c, 8, 56, 127
1, 250903, Note_off_c, 3, 75, 127
1, 250904, Note_on_c, 2, 74, 127
1, 251182, Note_on_c, 6, 54, 127
1, 251182, Note_on_c, 10, 57, 127
1, 251182, Note_on_c, 2, 62, 127
1, 251458, Note_off_c, 2, 62, 127
1, 251458, Note_off_c, 10, 57, 127
1, 251458, Note_off_c, 6, 54, 127
1, 251459, Note_on_c, 2, 62, 127
1, 251459, Note_on_c, 7, 55, 127
1, 251459, Note_on_c, 12, 59, 127
1, 251735, Note_off_c, 2, 74, 127
1, 251736, Note_on_c, 2, 74, 127
1, 252008, Note_off_c, 12, 59, 127
1, 252008, Note_off_c, 7, 55, 127
1, 252008, Note_off_c, 2, 62, 127
1, 252012, Note_off_c, 2, 74, 127
1, 252013, Note_on_c, 3, 75, 127
1, 252291, Note_on_c, 2, 62, 127
1, 252291, Note_on_c, 12, 59, 127
1, 252291, Note_on_c, 7, 55, 127
1, 252567, Note_off_c, 7, 55, 127
1, 252567, Note_off_c, 12, 59, 127
1, 252567, Note_off_c, 2, 62, 127
1, 252568, Note_on_c, 8, 56, 127
1, 252568, Note_on_c, 0, 60, 127
1, 252844, Note_off_c, 3, 75, 127
1, 252845, Note_on_c, 3, 75, 127
1, 252936, Note_off_c, 3, 75, 127
1, 252937, Note_on_c, 2, 74, 127
1, 253028, Note_off_c, 2, 74, 127
1, 253029, Note_on_c, 0, 72, 127
1, 253116, Note_off_c, 0, 60, 127
1, 253116, Note_off_c, 8, 56, 127
1, 253120, Note_off_c, 0, 72, 127
1, 253121, Note_on_c, 5, 77, 127
1, 253399, Note_on_c, 8, 56, 127
1, 253399, Note_on_c, 5, 53, 127
1, 253399, Note_on_c, 2, 62, 127
1, 253675, Note_off_c, 2, 62, 127
1, 253675, Note_off_c, 5, 53, 127
1, 253675, Note_off_c, 8, 56, 127
1, 253676, Note_on_c, 12, 59, 127
1, 253676, Note_on_c, 7, 55, 127
1, 253952, Note_off_c, 5, 77, 127
1, 253953, Note_on_c, 12, 71, 127
1, 254090, Note_off_c, 12, 71, 127
1, 254091, Note_on_c, 0, 72, 127
1, 254228, Note_off_c, 0, 72, 127
1, 254228, Note_off_c, 7, 55, 127
1, 254228, Note_off_c, 12, 59, 127
1, 254229, Note_on_c, 12, 47, 127
1, 254229, Note_on_c, 2, 74, 127
1, 254366, Note_off_c, 2, 74, 127
1, 254367, Note_on_c, 3, 75, 127
1, 254504, Note_off_c, 3, 75, 127
1, 254504, Note_off_c, 12, 47, 127
1, 254505, Note_on_c, 7, 43, 127
1, 254505, Note_on_c, 5, 77, 127
1, 254642, Note_off_c, 5, 77, 127
1, 254643, Note_on_c, 2, 74, 127
1, 254780, Note_off_c, 2, 74, 127
1, 254780, Note_off_c, 7, 43, 127
1, 254781, Note_on_c, 0, 48, 127
1, 254781, Note_on_c, 3, 75, 127
1, 255057, Note_off_c, 3, 75, 127
1, 255057, Note_off_c, 0, 48, 127
1, 255058, Note_on_c, 3, 51, 127
1, 255058, Note_on_c, 7, 79, 127
1, 255334, Note_off_c, 7, 79, 127
1, 255334, Note_off_c, 3, 51, 127
1, 255335, Note_on_c, 7, 55, 127
1, 255335, Note_on_c, 3, 75, 127
1, 255611, Note_off_c, 3, 75, 127
1, 255611, Note_off_c, 7, 55, 127
1, 255612, Note_on_c, 7, 43, 127
1, 255612, Note_on_c, 2, 74, 127
1, 255749, Note_off_c, 2, 74, 127
1, 255750, Note_on_c, 0, 72, 127
1, 255887, Note_off_c, 0, 72, 127
1, 255887, Note_off_c, 7, 43, 127
1, 255888, Note_on_c, 0, 48, 127
1, 255888, Note_on_c, 0, 72, 127
1, 256164, Note_off_c, 0, 72, 127
1, 256164, Note_off_c, 0, 48, 127
1, 256165, Note_on_c, 0, 48, 127
1, 256165, Note_on_c, 0, 60, 127
1, 256302, Note_off_c, 0, 60, 127
1, 256302, Note_off_c, 0, 48, 127
1, 256303, Note_on_c, 2, 50, 127
1, 256303, Note_on_c, 2, 62, 127
1, 256440, Note_off_c, 2, 62, 127
1, 256440, Note_off_c, 2, 50, 127
1, 256441, Note_on_c, 3, 51, 127
1, 256441, Note_on_c, 3, 63, 127
1, 256717, Note_off_c, 3, 63, 127
1, 256717, Note_off_c, 3, 51, 127
1, 256718, Note_on_c, 2, 50, 127
1, 256718, Note_on_c, 2, 62, 127
1, 256855, Note_off_c, 2, 62, 127
1, 256855, Note_off_c, 2, 50, 127
1, 256856, Note_on_c, 3, 51, 127
1, 256856, Note_on_c, 3, 63, 127
1, 256993, Note_off_c, 3, 63, 127
1, 256993, Note_off_c, 3, 51, 127
1, 256994, Note_on_c, 5, 53, 127
1, 256994, Note_on_c, 5, 65, 127
1, 257270, Note_off_c, 5, 65, 127
1, 257270, Note_off_c, 5, 53, 127
1, 257271, Note_on_c, 3, 51, 127
1, 257271, Note_on_c, 3, 63, 127
1, 257408, Note_off_c, 3, 63, 127
1, 257408, Note_off_c, 3, 51, 127
1, 257409, Note_on_c, 5, 53, 127
1, 257409, Note_on_c, 5, 65, 127
1, 257546, Note_off_c, 5, 65, 127
1, 257546, Note_off_c, 5, 53, 127
1, 257547, Note_on_c, 7, 55, 127
1, 257547, Note_on_c, 7, 67, 127
1, 257823, Note_off_c, 7, 67, 127
1, 257823, Note_off_c, 7, 55, 127
1, 257824, Note_on_c, 5, 53, 127
1, 257824, Note_on_c, 5, 65, 127
1, 257961, Note_off_c, 5, 65, 127
1, 257961, Note_off_c, 5, 53, 127
1, 257962, Note_on_c, 7, 55, 127
1, 257962, Note_on_c, 7, 67, 127
1, 258099, Note_off_c, 7, 67, 127
1, 258099, Note_off_c, 7, 55, 127
1, 258100, Note_on_c, 3, 51, 127
1, 258100, Note_on_c, 3, 63, 127
1, 258376, Note_off_c, 3, 63, 127
1, 258376, Note_off_c, 3, 51, 127
1, 258377, Note_on_c, 0, 48, 127
1, 258377, Note_on_c, 0, 72, 127
1, 258377, Note_on_c, 7, 79, 127
1, 258653, Note_off_c, 7, 79, 127
1, 258653, Note_off_c, 0, 72, 127
1, 258653, Note_off_c, 0, 48, 127
1, 258654, Note_on_c, 7, 55, 127
1, 258654, Note_on_c, 3, 75, 127
1, 258654, Note_on_c, 0, 72, 127
1, 258930, Note_off_c, 0, 72, 127
1, 258930, Note_off_c, 3, 75, 127
1, 258930, Note_off_c, 7, 55, 127
1, 258931, Note_on_c, 7, 43, 127
1, 258931, Note_on_c, 2, 74, 127
1, 258931, Note_on_c, 12, 71, 127
1, 259068, Note_off_c, 12, 71, 127
1, 259068, Note_off_c, 2, 74, 127
1, 259069, Note_on_c, 0, 72, 127
1, 259206, Note_off_c, 0, 72, 127
1, 259206, Note_off_c, 7, 43, 127
1, 259215, Note_on_c, 0, 48, 127
1, 259215, Note_on_c, 0, 72, 127
1, 259491, Note_off_c, 0, 72, 127
1, 259491, Note_off_c, 0, 48, 127
1, 259500, Note_on_c, 0, 60, 127
1, 259500, Note_on_c, 3, 51, 127
1, 259637, Note_off_c, 3, 51, 127
1, 259637, Note_off_c, 0, 60, 127
1, 259638, Note_on_c, 2, 62, 127
1, 259638, Note_on_c, 5, 53, 127
1, 259775, Note_off_c, 5, 53, 127
1, 259775, Note_off_c, 2, 62, 127
1, 259776, Note_on_c, 3, 63, 127
1, 259776, Note_on_c, 7, 55, 127
1, 259913, Note_off_c, 3, 63, 127
1, 259914, Note_on_c, 7, 67, 127
1, 260051, Note_off_c, 7, 67, 127
1, 260051, Note_off_c, 7, 55, 127
1, 260052, Note_on_c, 3, 63, 127
1, 260052, Note_on_c, 0, 48, 127
1, 260189, Note_off_c, 3, 63, 127
1, 260190, Note_on_c, 0, 60, 127
1, 260327, Note_off_c, 0, 60, 127
1, 260327, Note_off_c, 0, 48, 127
1, 260328, Note_on_c, 5, 65, 127
1, 260328, Note_on_c, 2, 50, 127
1, 260604, Note_off_c, 2, 50, 127
1, 260604, Note_off_c, 5, 65, 127
1, 260605, Note_on_c, 2, 62, 127
1, 260605, Note_on_c, 5, 53, 127
1, 260742, Note_off_c, 5, 53, 127
1, 260742, Note_off_c, 2, 62, 127
1, 260743, Note_on_c, 3, 63, 127
1, 260743, Note_on_c, 7, 55, 127
1, 260880, Note_off_c, 7, 55, 127
1, 260880, Note_off_c, 3, 63, 127
1, 260881, Note_on_c, 5, 65, 127
1, 260881, Note_on_c, 8, 56, 127
1, 261018, Note_off_c, 5, 65, 127
1, 261019, Note_on_c, 8, 68, 127
1, 261156, Note_off_c, 8, 68, 127
1, 261156, Note_off_c, 8, 56, 127
1, 261157, Note_on_c, 5, 65, 127
1, 261157, Note_on_c, 2, 50, 127
1, 261294, Note_off_c, 5, 65, 127
1, 261295, Note_on_c, 2, 62, 127
1, 261432, Note_off_c, 2, 62, 127
1, 261432, Note_off_c, 2, 50, 127
1, 261433, Note_on_c, 7, 67, 127
1, 261433, Note_on_c, 3, 51, 127
1, 261709, Note_off_c, 7, 67, 127
1, 261710, Note_on_c, 3, 63, 127
1, 261847, Note_off_c, 3, 63, 127
1, 261848, Note_on_c, 5, 65, 127
1, 261981, Note_off_c, 3, 51, 127
1, 261985, Note_off_c, 5, 65, 127
1, 261986, Note_on_c, 7, 67, 127
1, 262123, Note_off_c, 7, 67, 127
1, 262124, Note_on_c, 0, 72, 127
1, 262261, Note_off_c, 0, 72, 127
1, 262262, Note_on_c, 7, 67, 127
1, 262399, Note_off_c, 7, 67, 127
1, 262400, Note_on_c, 3, 63, 127
1, 262537, Note_off_c, 3, 63, 127
1, 262538, Note_on_c, 0, 60, 127
1, 262814, Note_off_c, 0, 60, 127
1, 262815, Note_on_c, 0, 72, 127
1, 262952, Note_off_c, 0, 72, 127
1, 262953, Note_on_c, 2, 74, 127
1, 263090, Note_off_c, 2, 74, 127
1, 263091, Note_on_c, 3, 75, 127
1, 263091, Note_on_c, 0, 72, 127
1, 263367, Note_off_c, 3, 75, 127
1, 263368, Note_on_c, 2, 74, 127
1, 263505, Note_off_c, 2, 74, 127
1, 263506, Note_on_c, 3, 75, 127
1, 263643, Note_off_c, 3, 75, 127
1, 263644, Note_on_c, 5, 77, 127
1, 263920, Note_off_c, 5, 77, 127
1, 263921, Note_on_c, 3, 75, 127
1, 264058, Note_off_c, 3, 75, 127
1, 264059, Note_on_c, 5, 77, 127
1, 264196, Note_off_c, 5, 77, 127
1, 264196, Note_off_c, 0, 72, 127
1, 264197, Note_on_c, 12, 71, 127
1, 264197, Note_on_c, 7, 79, 127
1, 264473, Note_off_c, 7, 79, 127
1, 264474, Note_on_c, 5, 77, 127
1, 264611, Note_off_c, 5, 77, 127
1, 264612, Note_on_c, 7, 79, 127
1, 264745, Note_off_c, 12, 71, 127
1, 264749, Note_off_c, 7, 79, 127
1, 264750, Note_on_c, 3, 75, 127
1, 264750, Note_on_c, 0, 72, 127
1, 265026, Note_off_c, 3, 75, 127
1, 265027, Note_on_c, 7, 79, 127
1, 265027, Note_on_c, 3, 51, 127
1, 265164, Note_off_c, 3, 51, 127
1, 265165, Note_on_c, 5, 53, 127
1, 265302, Note_off_c, 5, 53, 127
1, 265302, Note_off_c, 7, 79, 127
1, 265303, Note_on_c, 3, 75, 127
1, 265303, Note_on_c, 7, 55, 127
1, 265579, Note_off_c, 3, 75, 127
1, 265579, Note_off_c, 0, 72, 127
1, 265580, Note_on_c, 2, 74, 127
1, 265580, Note_on_c, 12, 71, 127
1, 265580, Note_on_c, 7, 43, 127
1, 265717, Note_off_c, 12, 71, 127
1, 265717, Note_off_c, 2, 74, 127
1, 265718, Note_on_c, 0, 72, 127
1, 265851, Note_off_c, 7, 55, 127
1, 265855, Note_off_c, 0, 72, 127
1, 265855, Note_off_c, 7, 43, 127
1, 265856, Note_on_c, 0, 72, 127
1, 265856, Note_on_c, 0, 48, 127
1, 265856, Note_on_c, 3, 51, 127
1, 265995, Note_on_c, 3, 75, 127
1, 266132, Note_off_c, 3, 75, 127
1, 266132, Note_off_c, 3, 51, 127
1, 266133, Note_on_c, 3, 75, 127
1, 266133, Note_on_c, 7, 55, 127
1, 266270, Note_off_c, 3, 75, 127
1, 266271, Note_on_c, 7, 79, 127
1, 266404, Note_off_c, 0, 72, 127
1, 266408, Note_off_c, 7, 79, 127
1, 266408, Note_off_c, 7, 55, 127
1, 266409, Note_on_c, 7, 79, 127
1, 266409, Note_on_c, 0, 60, 127
1, 266546, Note_off_c, 7, 79, 127
1, 266547, Note_on_c, 11, 70, 127
1, 266684, Note_off_c, 11, 70, 127
1, 266684, Note_off_c, 0, 48, 127
1, 266685, Note_on_c, 11, 70, 127
1, 266685, Note_on_c, 4, 52, 127
1, 266822, Note_off_c, 11, 70, 127
1, 266823, Note_on_c, 0, 72, 127
1, 266960, Note_off_c, 0, 72, 127
1, 266960, Note_off_c, 4, 52, 127
1, 266961, Note_on_c, 10, 69, 127
1, 266961, Note_on_c, 5, 53, 127
1, 267098, Note_off_c, 10, 69, 127
1, 267099, Note_on_c, 0, 72, 127
1, 267236, Note_off_c, 0, 72, 127
1, 267237, Note_on_c, 5, 65, 127
1, 267374, Note_off_c, 5, 65, 127
1, 267375, Note_on_c, 10, 69, 127
1, 267508, Note_off_c, 5, 53, 127
1, 267512, Note_off_c, 10, 69, 127
1, 267512, Note_off_c, 0, 60, 127
1, 267513, Note_on_c, 0, 72, 127
1, 267650, Note_off_c, 0, 72, 127
1, 267651, Note_on_c, 5, 77, 127
1, 267788, Note_off_c, 5, 77, 127
1, 267789, Note_on_c, 10, 69, 127
1, 267926, Note_off_c, 10, 69, 127
1, 267927, Note_on_c, 0, 72, 127
1, 268064, Note_off_c, 0, 72, 127
1, 268065, Note_on_c, 5, 65, 127
1, 268065, Note_on_c, 5, 53, 127
1, 268202, Note_off_c, 5, 65, 127
1, 268203, Note_on_c, 5, 77, 127
1, 268340, Note_off_c, 5, 77, 127
1, 268341, Note_on_c, 5, 77, 127
1, 268341, Note_on_c, 10, 57, 127
1, 268478, Note_off_c, 5, 77, 127
1, 268479, Note_on_c, 10, 81, 127
1, 268616, Note_off_c, 10, 81, 127
1, 268616, Note_off_c, 10, 57, 127
1, 268617, Note_on_c, 0, 72, 127
1, 268617, Note_on_c, 2, 62, 127
1, 268754, Note_off_c, 0, 72, 127
1, 268755, Note_on_c, 0, 72, 127
1, 268892, Note_off_c, 0, 72, 127
1, 268892, Note_off_c, 5, 53, 127
1, 268893, Note_on_c, 0, 72, 127
1, 268893, Note_on_c, 6, 54, 127
1, 269030, Note_off_c, 0, 72, 127
1, 269031, Note_on_c, 2, 74, 127
1, 269168, Note_off_c, 2, 74, 127
1, 269168, Note_off_c, 6, 54, 127
1, 269169, Note_on_c, 11, 70, 127
1, 269169, Note_on_c, 7, 55, 127
1, 269306, Note_off_c, 11, 70, 127
1, 269307, Note_on_c, 2, 74, 127
1, 269444, Note_off_c, 2, 74, 127
1, 269445, Note_on_c, 7, 67, 127
1, 269582, Note_off_c, 7, 67, 127
1, 269583, Note_on_c, 11, 70, 127
1, 269716, Note_off_c, 7, 55, 127
1, 269720, Note_off_c, 11, 70, 127
1, 269720, Note_off_c, 2, 62, 127
1, 269721, Note_on_c, 2, 74, 127
1, 269858, Note_off_c, 2, 74, 127
1, 269859, Note_on_c, 7, 79, 127
1, 269996, Note_off_c, 7, 79, 127
1, 269997, Note_on_c, 11, 70, 127
1, 270134, Note_off_c, 11, 70, 127
1, 270135, Note_on_c, 2, 74, 127
1, 270272, Note_off_c, 2, 74, 127
1, 270273, Note_on_c, 7, 67, 127
1, 270273, Note_on_c, 7, 55, 127
1, 270410, Note_off_c, 7, 67, 127
1, 270411, Note_on_c, 7, 79, 127
1, 270548, Note_off_c, 7, 79, 127
1, 270549, Note_on_c, 7, 79, 127
1, 270549, Note_on_c, 11, 58, 127
1, 270686, Note_off_c, 7, 79, 127
1, 270687, Note_on_c, 11, 82, 127
1, 270824, Note_off_c, 11, 82, 127
1, 270824, Note_off_c, 11, 58, 127
1, 270825, Note_on_c, 11, 82, 127
1, 270825, Note_on_c, 4, 64, 127
1, 270962, Note_off_c, 11, 82, 127
1, 270963, Note_on_c, 4, 76, 127
1, 271100, Note_off_c, 4, 76, 127
1, 271100, Note_off_c, 7, 55, 127
1, 271101, Note_on_c, 4, 76, 127
1, 271101, Note_on_c, 7, 55, 127
1, 271238, Note_off_c, 4, 76, 127
1, 271239, Note_on_c, 7, 79, 127
1, 271376, Note_off_c, 7, 79, 127
1, 271376, Note_off_c, 7, 55, 127
1, 271377, Note_on_c, 1, 73, 127
1, 271377, Note_on_c, 10, 57, 127
1, 271514, Note_off_c, 1, 73, 127
1, 271515, Note_on_c, 4, 76, 127
1, 271652, Note_off_c, 4, 76, 127
1, 271652, Note_off_c, 4, 64, 127
1, 271653, Note_on_c, 10, 69, 127
1, 271653, Note_on_c, 2, 62, 127
1, 271790, Note_off_c, 10, 69, 127
1, 271791, Note_on_c, 1, 73, 127
1, 271928, Note_off_c, 1, 73, 127
1, 271928, Note_off_c, 2, 62, 127
1, 271929, Note_on_c, 4, 76, 127
1, 271929, Note_on_c, 1, 61, 127
1, 272066, Note_off_c, 4, 76, 127
1, 272067, Note_on_c, 10, 81, 127
1, 272204, Note_off_c, 10, 81, 127
1, 272204, Note_off_c, 10, 57, 127
1, 272205, Note_on_c, 1, 73, 127
1, 272205, Note_on_c, 7, 55, 127
1, 272342, Note_off_c, 1, 73, 127
1, 272343, Note_on_c, 4, 76, 127
1, 272476, Note_off_c, 1, 61, 127
1, 272480, Note_off_c, 4, 76, 127
1, 272480, Note_off_c, 7, 55, 127
1, 272481, Note_on_c, 10, 69, 127
1, 272481, Note_on_c, 2, 62, 127
1, 272481, Note_on_c, 5, 53, 127
1, 272757, Note_off_c, 5, 53, 127
1, 272757, Note_off_c, 10, 69, 127
1, 272758, Note_on_c, 2, 74, 127
1, 272758, Note_on_c, 10, 81, 127
1, 272758, Note_on_c, 2, 50, 127
1, 273030, Note_off_c, 2, 62, 127
1, 273034, Note_off_c, 2, 50, 127
1, 273034, Note_off_c, 10, 81, 127
1, 273034, Note_off_c, 2, 74, 127
1, 273035, Note_on_c, 5, 77, 127
1, 273035, Note_on_c, 2, 74, 127
1, 273035, Note_on_c, 10, 57, 127
1, 273311, Note_off_c, 2, 74, 127
1, 273311, Note_off_c, 5, 77, 127
1, 273312, Note_on_c, 4, 76, 127
1, 273312, Note_on_c, 1, 73, 127
1, 273312, Note_on_c, 10, 45, 127
1, 273449, Note_off_c, 1, 73, 127
1, 273449, Note_off_c, 4, 76, 127
1, 273450, Note_on_c, 2, 74, 127
1, 273583, Note_off_c, 10, 57, 127
1, 273587, Note_off_c, 2, 74, 127
1, 273587, Note_off_c, 10, 45, 127
1, 273588, Note_on_c, 2, 74, 127
1, 273588, Note_on_c, 2, 50, 127
1, 273864, Note_off_c, 2, 74, 127
1, 273865, Note_on_c, 2, 62, 127
1, 273992, Note_off_c, 2, 50, 127
1, 274002, Note_off_c, 2, 62, 127
1, 274003, Note_on_c, 4, 64, 127
1, 274140, Note_off_c, 4, 64, 127
1, 274141, Note_on_c, 5, 65, 127
1, 274141, Note_on_c, 2, 62, 127
1, 274417, Note_off_c, 5, 65, 127
1, 274418, Note_on_c, 4, 64, 127
1, 274555, Note_off_c, 4, 64, 127
1, 274556, Note_on_c, 5, 65, 127
1, 274693, Note_off_c, 5, 65, 127
1, 274694, Note_on_c, 7, 67, 127
1, 274970, Note_off_c, 7, 67, 127
1, 274971, Note_on_c, 5, 65, 127
1, 275108, Note_off_c, 5, 65, 127
1, 275109, Note_on_c, 7, 67, 127
1, 275246, Note_off_c, 7, 67, 127
1, 275246, Note_off_c, 2, 62, 127
1, 275247, Note_on_c, 10, 69, 127
1, 275247, Note_on_c, 1, 61, 127
1, 275523, Note_off_c, 10, 69, 127
1, 275524, Note_on_c, 7, 67, 127
1, 275661, Note_off_c, 7, 67, 127
1, 275662, Note_on_c, 10, 69, 127
1, 275799, Note_off_c, 10, 69, 127
1, 275799, Note_off_c, 1, 61, 127
1, 275800, Note_on_c, 5, 65, 127
1, 275800, Note_on_c, 2, 62, 127
1, 276076, Note_off_c, 2, 62, 127
1, 276077, Note_on_c, 2, 74, 127
1, 276077, Note_on_c, 11, 70, 127
1, 276077, Note_on_c, 11, 58, 127
1, 276349, Note_off_c, 5, 65, 127
1, 276353, Note_off_c, 11, 58, 127
1, 276354, Note_on_c, 4, 64, 127
1, 276354, Note_on_c, 7, 55, 127
1, 276568, Note_off_c, 11, 70, 127
1, 276568, Note_off_c, 2, 74, 127
1, 276630, Note_off_c, 7, 55, 127
1, 276631, Note_on_c, 10, 69, 127
1, 276631, Note_on_c, 1, 73, 127
1, 276631, Note_on_c, 10, 57, 127
1, 276903, Note_off_c, 4, 64, 127
1, 276907, Note_off_c, 10, 57, 127
1, 276907, Note_off_c, 1, 73, 127
1, 276907, Note_off_c, 10, 69, 127
1, 276908, Note_on_c, 2, 74, 127
1, 276908, Note_on_c, 5, 65, 127
1, 276908, Note_on_c, 10, 69, 127
1, 276908, Note_on_c, 2, 50, 127
1, 277462, Note_off_c, 2, 50, 127
1, 277462, Note_off_c, 10, 69, 127
1, 277462, Note_off_c, 5, 65, 127
1, 277462, Note_off_c, 2, 74, 127
1, 277495, Note_on_c, 11, 70, 127
1, 277495, Note_on_c, 2, 74, 127
1, 277495, Note_on_c, 11, 58, 127
1, 277771, Note_off_c, 11, 58, 127
1, 277771, Note_off_c, 2, 74, 127
1, 277771, Note_off_c, 11, 70, 127
1, 277772, Note_on_c, 3, 75, 127
1, 277772, Note_on_c, 0, 72, 127
1, 277772, Note_on_c, 11, 58, 127
1, 278048, Note_off_c, 11, 58, 127
1, 278048, Note_off_c, 0, 72, 127
1, 278048, Note_off_c, 3, 75, 127
1, 278049, Note_on_c, 2, 74, 127
1, 278049, Note_on_c, 5, 77, 127
1, 278049, Note_on_c, 11, 58, 127
1, 278325, Note_off_c, 11, 58, 127
1, 278326, Note_on_c, 11, 58, 127
1, 278463, Note_off_c, 5, 77, 127
1, 278463, Note_off_c, 2, 74, 127
1, 278464, Note_on_c, 7, 79, 127
1, 278601, Note_off_c, 7, 79, 127
1, 278601, Note_off_c, 11, 58, 127
1, 278602, Note_on_c, 5, 77, 127
1, 278602, Note_on_c, 2, 74, 127
1, 278602, Note_on_c, 11, 58, 127
1, 278878, Note_off_c, 11, 58, 127
1, 278878, Note_off_c, 2, 74, 127
1, 278878, Note_off_c, 5, 77, 127
1, 278879, Note_on_c, 7, 79, 127
1, 278879, Note_on_c, 0, 72, 127
1, 278879, Note_on_c, 11, 58, 127
1, 279016, Note_off_c, 0, 72, 127
1, 279016, Note_off_c, 7, 79, 127
1, 279017, Note_on_c, 3, 75, 127
1, 279154, Note_off_c, 3, 75, 127
1, 279154, Note_off_c, 11, 58, 127
1, 279155, Note_on_c, 5, 77, 127
1, 279155, Note_on_c, 2, 74, 127
1, 279155, Note_on_c, 11, 58, 127
1, 279431, Note_off_c, 2, 74, 127
1, 279431, Note_off_c, 5, 77, 127
1, 279432, Note_on_c, 11, 70, 127
1, 279432, Note_on_c, 0, 72, 127
1, 279708, Note_off_c, 0, 72, 127
1, 279708, Note_off_c, 11, 70, 127
1, 279708, Note_off_c, 11, 58, 127
1, 279709, Note_on_c, 2, 74, 127
1, 279709, Note_on_c, 11, 70, 127
1, 279709, Note_on_c, 11, 58, 127
1, 279985, Note_off_c, 11, 58, 127
1, 279985, Note_off_c, 11, 70, 127
1, 279985, Note_off_c, 2, 74, 127
1, 279986, Note_on_c, 0, 72, 127
1, 279986, Note_on_c, 3, 75, 127
1, 279986, Note_on_c, 11, 58, 127
1, 280262, Note_off_c, 11, 58, 127
1, 280262, Note_off_c, 3, 75, 127
1, 280262, Note_off_c, 0, 72, 127
1, 280263, Note_on_c, 5, 77, 127
1, 280263, Note_on_c, 2, 74, 127
1, 280263, Note_on_c, 11, 58, 127
1, 280539, Note_off_c, 11, 58, 127
1, 280540, Note_on_c, 11, 58, 127
1, 280677, Note_off_c, 2, 74, 127
1, 280677, Note_off_c, 5, 77, 127
1, 280678, Note_on_c, 7, 79, 127
1, 280815, Note_off_c, 7, 79, 127
1, 280815, Note_off_c, 11, 58, 127
1, 280816, Note_on_c, 2, 74, 127
1, 280816, Note_on_c, 5, 77, 127
1, 280816, Note_on_c, 11, 58, 127
1, 281092, Note_off_c, 11, 58, 127
1, 281092, Note_off_c, 5, 77, 127
1, 281092, Note_off_c, 2, 74, 127
1, 281093, Note_on_c, 0, 72, 127
1, 281093, Note_on_c, 7, 79, 127
1, 281093, Note_on_c, 11, 58, 127
1, 281230, Note_off_c, 7, 79, 127
1, 281230, Note_off_c, 0, 72, 127
1, 281231, Note_on_c, 3, 75, 127
1, 281368, Note_off_c, 3, 75, 127
1, 281368, Note_off_c, 11, 58, 127
1, 281369, Note_on_c, 2, 74, 127
1, 281369, Note_on_c, 5, 77, 127
1, 281369, Note_on_c, 11, 58, 127
1, 281645, Note_off_c, 5, 77, 127
1, 281645, Note_off_c, 2, 74, 127
1, 281646, Note_on_c, 11, 70, 127
1, 281922, Note_off_c, 11, 70, 127
1, 281922, Note_off_c, 11, 58, 127
1, 281923, Note_on_c, 2, 74, 127
1, 281923, Note_on_c, 11, 82, 127
1, 281923, Note_on_c, 11, 58, 127
1, 282199, Note_off_c, 11, 58, 127
1, 282199, Note_off_c, 11, 82, 127
1, 282199, Note_off_c, 2, 74, 127
1, 282200, Note_on_c, 0, 72, 127
1, 282200, Note_on_c, 10, 81, 127
1, 282200, Note_on_c, 11, 58, 127
1, 282476, Note_off_c, 11, 58, 127
1, 282476, Note_off_c, 10, 81, 127
1, 282476, Note_off_c, 0, 72, 127
1, 282477, Note_on_c, 7, 79, 127
1, 282477, Note_on_c, 11, 70, 127
1, 282477, Note_on_c, 3, 63, 127
1, 282753, Note_off_c, 3, 63, 127
1, 282754, Note_on_c, 3, 63, 127
1, 282891, Note_off_c, 11, 70, 127
1, 282891, Note_off_c, 7, 79, 127
1, 282892, Note_on_c, 10, 81, 127
1, 283029, Note_off_c, 10, 81, 127
1, 283029, Note_off_c, 3, 63, 127
1, 283030, Note_on_c, 0, 72, 127
1, 283030, Note_on_c, 10, 81, 127
1, 283030, Note_on_c, 0, 60, 127
1, 283306, Note_off_c, 0, 60, 127
1, 283306, Note_off_c, 0, 72, 127
1, 283307, Note_on_c, 11, 70, 127
1, 283307, Note_on_c, 0, 60, 127
1, 283434, Note_off_c, 10, 81, 127
1, 283446, Note_on_c, 7, 79, 127
1, 283582, Note_off_c, 11, 70, 127
1, 283583, Note_off_c, 7, 79, 127
1, 283583, Note_off_c, 0, 60, 127
1, 283584, Note_on_c, 6, 78, 127
1, 283584, Note_on_c, 10, 69, 127
1, 283584, Note_on_c, 2, 62, 127
1, 283860, Note_off_c, 2, 62, 127
1, 283860, Note_off_c, 10, 69, 127
1, 283860, Note_off_c, 6, 78, 127
1, 283861, Note_on_c, 6, 78, 127
1, 283861, Note_on_c, 2, 50, 127
1, 283998, Note_off_c, 2, 50, 127
1, 283998, Note_off_c, 6, 78, 127
1, 283999, Note_on_c, 7, 79, 127
1, 283999, Note_on_c, 4, 52, 127
1, 284136, Note_off_c, 4, 52, 127
1, 284136, Note_off_c, 7, 79, 127
1, 284137, Note_on_c, 10, 81, 127
1, 284137, Note_on_c, 6, 54, 127
1, 284413, Note_off_c, 6, 54, 127
1, 284413, Note_off_c, 10, 81, 127
1, 284414, Note_on_c, 7, 79, 127
1, 284414, Note_on_c, 4, 52, 127
1, 284551, Note_off_c, 4, 52, 127
1, 284551, Note_off_c, 7, 79, 127
1, 284552, Note_on_c, 10, 81, 127
1, 284552, Note_on_c, 6, 54, 127
1, 284689, Note_off_c, 6, 54, 127
1, 284689, Note_off_c, 10, 81, 127
1, 284690, Note_on_c, 11, 82, 127
1, 284690, Note_on_c, 7, 55, 127
1, 284966, Note_off_c, 11, 82, 127
1, 284967, Note_on_c, 7, 67, 127
1, 284967, Note_on_c, 11, 58, 127
1, 285104, Note_off_c, 11, 58, 127
1, 285104, Note_off_c, 7, 67, 127
1, 285105, Note_on_c, 10, 69, 127
1, 285105, Note_on_c, 0, 60, 127
1, 285238, Note_off_c, 7, 55, 127
1, 285242, Note_off_c, 0, 60, 127
1, 285242, Note_off_c, 10, 69, 127
1, 285243, Note_on_c, 11, 70, 127
1, 285243, Note_on_c, 2, 62, 127
1, 285519, Note_off_c, 2, 62, 127
1, 285519, Note_off_c, 11, 70, 127
1, 285520, Note_on_c, 10, 69, 127
1, 285520, Note_on_c, 0, 60, 127
1, 285657, Note_off_c, 0, 60, 127
1, 285657, Note_off_c, 10, 69, 127
1, 285658, Note_on_c, 11, 70, 127
1, 285658, Note_on_c, 2, 62, 127
1, 285795, Note_off_c, 2, 62, 127
1, 285795, Note_off_c, 11, 70, 127
1, 285796, Note_on_c, 0, 72, 127
1, 285796, Note_on_c, 3, 63, 127
1, 286072, Note_off_c, 3, 63, 127
1, 286072, Note_off_c, 0, 72, 127
1, 286073, Note_on_c, 3, 75, 127
1, 286073, Note_on_c, 0, 60, 127
1, 286210, Note_off_c, 0, 60, 127
1, 286210, Note_off_c, 3, 75, 127
1, 286211, Note_on_c, 2, 74, 127
1, 286211, Note_on_c, 11, 58, 127
1, 286348, Note_off_c, 11, 58, 127
1, 286348, Note_off_c, 2, 74, 127
1, 286349, Note_on_c, 0, 72, 127
1, 286349, Note_on_c, 10, 57, 127
1, 286625, Note_off_c, 10, 57, 127
1, 286625, Note_off_c, 0, 72, 127
1, 286626, Note_on_c, 11, 70, 127
1, 286626, Note_on_c, 7, 55, 127
1, 286763, Note_off_c, 7, 55, 127
1, 286763, Note_off_c, 11, 70, 127
1, 286764, Note_on_c, 10, 69, 127
1, 286764, Note_on_c, 5, 53, 127
1, 286901, Note_off_c, 5, 53, 127
1, 286901, Note_off_c, 10, 69, 127
1, 286902, Note_on_c, 2, 74, 127
1, 286902, Note_on_c, 11, 58, 127
1, 287180, Note_on_c, 11, 70, 127
1, 287180, Note_on_c, 2, 62, 127
1, 287317, Note_off_c, 2, 62, 127
1, 287317, Note_off_c, 11, 70, 127
1, 287318, Note_on_c, 10, 69, 127
1, 287318, Note_on_c, 0, 60, 127
1, 287451, Note_off_c, 11, 58, 127
1, 287451, Note_off_c, 2, 74, 127
1, 287455, Note_off_c, 0, 60, 127
1, 287455, Note_off_c, 10, 69, 127
1, 287456, Note_on_c, 7, 67, 127
1, 287456, Note_on_c, 11, 58, 127
1, 287732, Note_off_c, 11, 58, 127
1, 287732, Note_off_c, 7, 67, 127
1, 287733, Note_on_c, 5, 65, 127
1, 287733, Note_on_c, 10, 57, 127
1, 287870, Note_off_c, 10, 57, 127
1, 287870, Note_off_c, 5, 65, 127
1, 287871, Note_on_c, 4, 64, 127
1, 287871, Note_on_c, 7, 55, 127
1, 288008, Note_off_c, 7, 55, 127
1, 288008, Note_off_c, 4, 64, 127
1, 288009, Note_on_c, 10, 69, 127
1, 288009, Note_on_c, 0, 60, 127
1, 288285, Note_off_c, 0, 60, 127
1, 288285, Note_off_c, 10, 69, 127
1, 288286, Note_on_c, 0, 72, 127
1, 288286, Note_on_c, 10, 57, 127
1, 288423, Note_off_c, 10, 57, 127
1, 288423, Note_off_c, 0, 72, 127
1, 288424, Note_on_c, 11, 70, 127
1, 288424, Note_on_c, 7, 55, 127
1, 288561, Note_off_c, 7, 55, 127
1, 288561, Note_off_c, 11, 70, 127
1, 288562, Note_on_c, 10, 69, 127
1, 288562, Note_on_c, 6, 54, 127
1, 288838, Note_off_c, 6, 54, 127
1, 288838, Note_off_c, 10, 69, 127
1, 288839, Note_on_c, 7, 67, 127
1, 288839, Note_on_c, 4, 52, 127
1, 288976, Note_off_c, 4, 52, 127
1, 288976, Note_off_c, 7, 67, 127
1, 288977, Note_on_c, 6, 66, 127
1, 288977, Note_on_c, 2, 50, 127
1, 289114, Note_off_c, 2, 50, 127
1, 289114, Note_off_c, 6, 66, 127
1, 289115, Note_on_c, 7, 67, 127
1, 289115, Note_on_c, 7, 55, 127
1, 289252, Note_off_c, 7, 67, 127
1, 289253, Note_on_c, 11, 70, 127
1, 289390, Note_off_c, 11, 70, 127
1, 289390, Note_off_c, 7, 55, 127
1, 289391, Note_on_c, 11, 70, 127
1, 289391, Note_on_c, 2, 50, 127
1, 289528, Note_off_c, 11, 70, 127
1, 289529, Note_on_c, 2, 74, 127
1, 289666, Note_off_c, 2, 74, 127
1, 289666, Note_off_c, 2, 50, 127
1, 289667, Note_on_c, 2, 74, 127
1, 289667, Note_on_c, 12, 47, 127
1, 289804, Note_off_c, 2, 74, 127
1, 289805, Note_on_c, 5, 65, 127
1, 289942, Note_off_c, 5, 65, 127
1, 289942, Note_off_c, 12, 47, 127
1, 289943, Note_on_c, 5, 65, 127
1, 289943, Note_on_c, 7, 43, 127
1, 290080, Note_off_c, 5, 65, 127
1, 290081, Note_on_c, 7, 67, 127
1, 290218, Note_off_c, 7, 67, 127
1, 290218, Note_off_c, 7, 43, 127
1, 290219, Note_on_c, 3, 63, 127
1, 290219, Note_on_c, 0, 48, 127
1, 290356, Note_off_c, 3, 63, 127
1, 290357, Note_on_c, 7, 67, 127
1, 290494, Note_off_c, 7, 67, 127
1, 290494, Note_off_c, 0, 48, 127
1, 290495, Note_on_c, 0, 60, 127
1, 290495, Note_on_c, 0, 36, 127
1, 290632, Note_off_c, 0, 60, 127
1, 290633, Note_on_c, 3, 63, 127
1, 290769, Note_off_c, 0, 36, 127
1, 290770, Note_off_c, 3, 63, 127
1, 290771, Note_on_c, 7, 67, 127
1, 290908, Note_off_c, 7, 67, 127
1, 290909, Note_on_c, 0, 72, 127
1, 291046, Note_off_c, 0, 72, 127
1, 291047, Note_on_c, 3, 63, 127
1, 291184, Note_off_c, 3, 63, 127
1, 291185, Note_on_c, 7, 67, 127
1, 291322, Note_off_c, 7, 67, 127
1, 291323, Note_on_c, 0, 60, 127
1, 291323, Note_on_c, 10, 57, 127
1, 291460, Note_off_c, 0, 60, 127
1, 291461, Note_on_c, 0, 72, 127
1, 291598, Note_off_c, 0, 72, 127
1, 291598, Note_off_c, 10, 57, 127
1, 291599, Note_on_c, 0, 72, 127
1, 291599, Note_on_c, 4, 52, 127
1, 291736, Note_off_c, 0, 72, 127
1, 291737, Note_on_c, 4, 76, 127
1, 291874, Note_off_c, 4, 76, 127
1, 291874, Note_off_c, 4, 52, 127
1, 291875, Note_on_c, 4, 76, 127
1, 291875, Note_on_c, 1, 49, 127
1, 292012, Note_off_c, 4, 76, 127
1, 292013, Note_on_c, 7, 67, 127
1, 292150, Note_off_c, 7, 67, 127
1, 292150, Note_off_c, 1, 49, 127
1, 292151, Note_on_c, 7, 67, 127
1, 292151, Note_on_c, 10, 45, 127
1, 292288, Note_off_c, 7, 67, 127
1, 292289, Note_on_c, 10, 69, 127
1, 292426, Note_off_c, 10, 69, 127
1, 292426, Note_off_c, 10, 45, 127
1, 292427, Note_on_c, 6, 66, 127
1, 292427, Note_on_c, 2, 50, 127
1, 292564, Note_off_c, 6, 66, 127
1, 292565, Note_on_c, 10, 69, 127
1, 292702, Note_off_c, 10, 69, 127
1, 292702, Note_off_c, 2, 50, 127
1, 292703, Note_on_c, 2, 62, 127
1, 292703, Note_on_c, 2, 38, 127
1, 292840, Note_off_c, 2, 62, 127
1, 292841, Note_on_c, 6, 66, 127
1, 292977, Note_off_c, 2, 38, 127
1, 292978, Note_off_c, 6, 66, 127
1, 292979, Note_on_c, 10, 69, 127
1, 293116, Note_off_c, 10, 69, 127
1, 293117, Note_on_c, 2, 74, 127
1, 293254, Note_off_c, 2, 74, 127
1, 293255, Note_on_c, 6, 66, 127
1, 293392, Note_off_c, 6, 66, 127
1, 293393, Note_on_c, 10, 69, 127
1, 293530, Note_off_c, 10, 69, 127
1, 293531, Note_on_c, 2, 62, 127
1, 293670, Note_on_c, 6, 78, 127
1, 293807, Note_off_c, 6, 78, 127
1, 293807, Note_off_c, 2, 62, 127
1, 293808, Note_on_c, 6, 78, 127
1, 293808, Note_on_c, 10, 57, 127
1, 293945, Note_off_c, 6, 78, 127
1, 293946, Note_on_c, 10, 81, 127
1, 294083, Note_off_c, 10, 81, 127
1, 294083, Note_off_c, 10, 57, 127
1, 294084, Note_on_c, 10, 81, 127
1, 294084, Note_on_c, 6, 54, 127
1, 294221, Note_off_c, 10, 81, 127
1, 294222, Note_on_c, 2, 74, 127
1, 294359, Note_off_c, 2, 74, 127
1, 294359, Note_off_c, 6, 54, 127
1, 294360, Note_on_c, 0, 72, 127
1, 294360, Note_on_c, 2, 50, 127
1, 294497, Note_off_c, 0, 72, 127
1, 294498, Note_on_c, 2, 74, 127
1, 294635, Note_off_c, 2, 74, 127
1, 294635, Note_off_c, 2, 50, 127
1, 294636, Note_on_c, 11, 70, 127
1, 294636, Note_on_c, 7, 55, 127
1, 294773, Note_off_c, 11, 70, 127
1, 294774, Note_on_c, 2, 74, 127
1, 294911, Note_off_c, 2, 74, 127
1, 294911, Note_off_c, 7, 55, 127
1, 294912, Note_on_c, 7, 67, 127
1, 294912, Note_on_c, 7, 43, 127
1, 295049, Note_off_c, 7, 67, 127
1, 295050, Note_on_c, 11, 70, 127
1, 295186, Note_off_c, 7, 43, 127
1, 295187, Note_off_c, 11, 70, 127
1, 295188, Note_on_c, 2, 74, 127
1, 295325, Note_off_c, 2, 74, 127
1, 295326, Note_on_c, 7, 79, 127
1, 295463, Note_off_c, 7, 79, 127
1, 295464, Note_on_c, 11, 70, 127
1, 295601, Note_off_c, 11, 70, 127
1, 295602, Note_on_c, 2, 74, 127
1, 295739, Note_off_c, 2, 74, 127
1, 295740, Note_on_c, 7, 67, 127
1, 295877, Note_off_c, 7, 67, 127
1, 295878, Note_on_c, 11, 70, 127
1, 296015, Note_off_c, 11, 70, 127
1, 296016, Note_on_c, 2, 74, 127
1, 296153, Note_off_c, 2, 74, 127
1, 296154, Note_on_c, 7, 79, 127
1, 296291, Note_off_c, 7, 79, 127
1, 296292, Note_on_c, 11, 82, 127
1, 296292, Note_on_c, 7, 55, 127
1, 296429, Note_off_c, 7, 55, 127
1, 296430, Note_on_c, 11, 58, 127
1, 296567, Note_off_c, 11, 58, 127
1, 296568, Note_on_c, 7, 79, 127
1, 296568, Note_on_c, 2, 62, 127
1, 296705, Note_off_c, 2, 62, 127
1, 296705, Note_off_c, 7, 79, 127
1, 296706, Note_on_c, 5, 77, 127
1, 296706, Note_on_c, 7, 67, 127
1, 296843, Note_off_c, 7, 67, 127
1, 296843, Note_off_c, 5, 77, 127
1, 296844, Note_on_c, 3, 75, 127
1, 296844, Note_on_c, 0, 48, 127
1, 296981, Note_off_c, 0, 48, 127
1, 296982, Note_on_c, 3, 51, 127
1, 297119, Note_off_c, 3, 51, 127
1, 297119, Note_off_c, 11, 82, 127
1, 297120, Note_on_c, 0, 84, 127
1, 297120, Note_on_c, 7, 55, 127
1, 297257, Note_off_c, 7, 55, 127
1, 297257, Note_off_c, 0, 84, 127
1, 297258, Note_on_c, 11, 82, 127
1, 297258, Note_on_c, 0, 60, 127
1, 297395, Note_off_c, 0, 60, 127
1, 297395, Note_off_c, 11, 82, 127
1, 297396, Note_on_c, 10, 81, 127
1, 297396, Note_on_c, 5, 53, 127
1, 297533, Note_off_c, 5, 53, 127
1, 297534, Note_on_c, 10, 57, 127
1, 297671, Note_off_c, 10, 57, 127
1, 297671, Note_off_c, 3, 75, 127
1, 297672, Note_on_c, 5, 77, 127
1, 297672, Note_on_c, 0, 60, 127
1, 297809, Note_off_c, 0, 60, 127
1, 297809, Note_off_c, 5, 77, 127
1, 297810, Note_on_c, 3, 75, 127
1, 297810, Note_on_c, 5, 65, 127
1, 297947, Note_off_c, 5, 65, 127
1, 297947, Note_off_c, 3, 75, 127
1, 297948, Note_on_c, 2, 74, 127
1, 297948, Note_on_c, 11, 46, 127
1, 298085, Note_off_c, 11, 46, 127
1, 298086, Note_on_c, 2, 50, 127
1, 298223, Note_off_c, 2, 50, 127
1, 298223, Note_off_c, 10, 81, 127
1, 298224, Note_on_c, 11, 82, 127
1, 298224, Note_on_c, 5, 53, 127
1, 298361, Note_off_c, 5, 53, 127
1, 298361, Note_off_c, 11, 82, 127
1, 298362, Note_on_c, 10, 81, 127
1, 298362, Note_on_c, 11, 58, 127
1, 298499, Note_off_c, 11, 58, 127
1, 298499, Note_off_c, 10, 81, 127
1, 298500, Note_on_c, 7, 79, 127
1, 298500, Note_on_c, 3, 51, 127
1, 298637, Note_off_c, 3, 51, 127
1, 298638, Note_on_c, 7, 55, 127
1, 298775, Note_off_c, 7, 55, 127
1, 298775, Note_off_c, 2, 74, 127
1, 298776, Note_on_c, 3, 75, 127
1, 298776, Note_on_c, 11, 58, 127
1, 298913, Note_off_c, 11, 58, 127
1, 298913, Note_off_c, 3, 75, 127
1, 298914, Note_on_c, 2, 74, 127
1, 298914, Note_on_c, 3, 63, 127
1, 299051, Note_off_c, 3, 63, 127
1, 299051, Note_off_c, 2, 74, 127
1, 299052, Note_on_c, 0, 72, 127
1, 299052, Note_on_c, 10, 45, 127
1, 299189, Note_off_c, 10, 45, 127
1, 299190, Note_on_c, 0, 48, 127
1, 299327, Note_off_c, 0, 48, 127
1, 299327, Note_off_c, 7, 79, 127
1, 299328, Note_on_c, 10, 81, 127
1, 299328, Note_on_c, 3, 51, 127
1, 299465, Note_off_c, 3, 51, 127
1, 299465, Note_off_c, 10, 81, 127
1, 299466, Note_on_c, 7, 79, 127
1, 299466, Note_on_c, 10, 57, 127
1, 299603, Note_off_c, 10, 57, 127
1, 299603, Note_off_c, 7, 79, 127
1, 299604, Note_on_c, 6, 78, 127
1, 299604, Note_on_c, 2, 50, 127
1, 299741, Note_off_c, 2, 50, 127
1, 299742, Note_on_c, 6, 54, 127
1, 299879, Note_off_c, 6, 54, 127
1, 299879, Note_off_c, 0, 72, 127
1, 299880, Note_on_c, 2, 74, 127
1, 299880, Note_on_c, 10, 57, 127
1, 300017, Note_off_c, 10, 57, 127
1, 300017, Note_off_c, 2, 74, 127
1, 300018, Note_on_c, 0, 72, 127
1, 300018, Note_on_c, 2, 62, 127
1, 300134, Note_off_c, 2, 62, 127
1, 300151, Note_off_c, 6, 78, 127
1, 300155, Note_off_c, 0, 72, 127
1, 300156, Note_on_c, 7, 79, 127
1, 300156, Note_on_c, 11, 70, 127
1, 300156, Note_on_c, 7, 43, 127
1, 300432, Note_off_c, 11, 70, 127
1, 300432, Note_off_c, 7, 79, 127
1, 300433, Note_on_c, 7, 67, 127
1, 300570, Note_off_c, 7, 67, 127
1, 300571, Note_on_c, 10, 69, 127
1, 300704, Note_off_c, 7, 43, 127
1, 300708, Note_off_c, 10, 69, 127
1, 300709, Note_on_c, 11, 70, 127
1, 300709, Note_on_c, 7, 67, 127
1, 300985, Note_off_c, 11, 70, 127
1, 300986, Note_on_c, 10, 69, 127
1, 301123, Note_off_c, 10, 69, 127
1, 301124, Note_on_c, 11, 70, 127
1, 301261, Note_off_c, 11, 70, 127
1, 301262, Note_on_c, 0, 72, 127
1, 301538, Note_off_c, 0, 72, 127
1, 301539, Note_on_c, 11, 70, 127
1, 301676, Note_off_c, 11, 70, 127
1, 301677, Note_on_c, 0, 72, 127
1, 301814, Note_off_c, 0, 72, 127
1, 301814, Note_off_c, 7, 67, 127
1, 301815, Note_on_c, 6, 66, 127
1, 301815, Note_on_c, 2, 74, 127
1, 302091, Note_off_c, 2, 74, 127
1, 302092, Note_on_c, 0, 72, 127
1, 302229, Note_off_c, 0, 72, 127
1, 302230, Note_on_c, 2, 74, 127
1, 302363, Note_off_c, 6, 66, 127
1, 302367, Note_off_c, 2, 74, 127
1, 302368, Note_on_c, 7, 67, 127
1, 302368, Note_on_c, 11, 70, 127
1, 302644, Note_off_c, 11, 70, 127
1, 302644, Note_off_c, 7, 67, 127
1, 302645, Note_on_c, 7, 67, 127
1, 302645, Note_on_c, 7, 55, 127
1, 302782, Note_off_c, 7, 55, 127
1, 302783, Note_on_c, 10, 57, 127
1, 302920, Note_off_c, 10, 57, 127
1, 302920, Note_off_c, 7, 67, 127
1, 302921, Note_on_c, 2, 74, 127
1, 302921, Note_on_c, 7, 79, 127
1, 302921, Note_on_c, 11, 70, 127
1, 302921, Note_on_c, 11, 58, 127
1, 303197, Note_off_c, 11, 58, 127
1, 303197, Note_off_c, 11, 70, 127
1, 303197, Note_off_c, 2, 74, 127
1, 303198, Note_on_c, 11, 70, 127
1, 303198, Note_on_c, 2, 74, 127
1, 303198, Note_on_c, 10, 57, 127
1, 303335, Note_off_c, 10, 57, 127
1, 303336, Note_on_c, 11, 58, 127
1, 303473, Note_off_c, 11, 58, 127
1, 303473, Note_off_c, 2, 74, 127
1, 303473, Note_off_c, 11, 70, 127
1, 303474, Note_on_c, 10, 69, 127
1, 303474, Note_on_c, 3, 75, 127
1, 303474, Note_on_c, 0, 60, 127
1, 303750, Note_off_c, 0, 60, 127
1, 303750, Note_off_c, 3, 75, 127
1, 303750, Note_off_c, 10, 69, 127
1, 303751, Note_on_c, 3, 75, 127
1, 303751, Note_on_c, 10, 69, 127
1, 303751, Note_on_c, 11, 58, 127
1, 303888, Note_off_c, 11, 58, 127
1, 303889, Note_on_c, 0, 60, 127
1, 304026, Note_off_c, 0, 60, 127
1, 304026, Note_off_c, 10, 69, 127
1, 304026, Note_off_c, 3, 75, 127
1, 304026, Note_off_c, 7, 79, 127
1, 304027, Note_on_c, 10, 69, 127
1, 304027, Note_on_c, 6, 78, 127
1, 304027, Note_on_c, 2, 74, 127
1, 304027, Note_on_c, 2, 62, 127
1, 304303, Note_off_c, 2, 62, 127
1, 304303, Note_off_c, 2, 74, 127
1, 304303, Note_off_c, 10, 69, 127
1, 304304, Note_on_c, 10, 69, 127
1, 304304, Note_on_c, 2, 74, 127
1, 304304, Note_on_c, 0, 60, 127
1, 304441, Note_off_c, 0, 60, 127
1, 304442, Note_on_c, 2, 62, 127
1, 304575, Note_off_c, 6, 78, 127
1, 304579, Note_off_c, 2, 62, 127
1, 304579, Note_off_c, 2, 74, 127
1, 304579, Note_off_c, 10, 69, 127
1, 304580, Note_on_c, 7, 67, 127
1, 304580, Note_on_c, 2, 74, 127
1, 304580, Note_on_c, 7, 79, 127
1, 304580, Note_on_c, 2, 62, 127
1, 304580, Note_on_c, 11, 58, 127
1, 304856, Note_off_c, 11, 58, 127
1, 304856, Note_off_c, 7, 79, 127
1, 304856, Note_off_c, 2, 74, 127
1, 304856, Note_off_c, 7, 67, 127
1, 304857, Note_on_c, 11, 82, 127
1, 304857, Note_on_c, 7, 55, 127
1, 304984, Note_off_c, 2, 62, 127
1, 304994, Note_off_c, 11, 82, 127
1, 304995, Note_on_c, 10, 81, 127
1, 305132, Note_off_c, 10, 81, 127
1, 305132, Note_off_c, 7, 55, 127
1, 305133, Note_on_c, 7, 79, 127
1, 305133, Note_on_c, 4, 64, 127
1, 305133, Note_on_c, 0, 60, 127
1, 305409, Note_off_c, 0, 60, 127
1, 305409, Note_off_c, 7, 79, 127
1, 305410, Note_on_c, 5, 77, 127
1, 305410, Note_on_c, 7, 55, 127
1, 305547, Note_off_c, 5, 77, 127
1, 305548, Note_on_c, 4, 76, 127
1, 305685, Note_off_c, 4, 76, 127
1, 305685, Note_off_c, 7, 55, 127
1, 305686, Note_on_c, 5, 77, 127
1, 305686, Note_on_c, 10, 57, 127
1, 305962, Note_off_c, 10, 57, 127
1, 305962, Note_off_c, 5, 77, 127
1, 305962, Note_off_c, 4, 64, 127
1, 305963, Note_on_c, 10, 81, 127
1, 305963, Note_on_c, 5, 53, 127
1, 306100, Note_off_c, 10, 81, 127
1, 306101, Note_on_c, 7, 79, 127
1, 306238, Note_off_c, 7, 79, 127
1, 306238, Note_off_c, 5, 53, 127
1, 306239, Note_on_c, 5, 77, 127
1, 306239, Note_on_c, 2, 62, 127
1, 306239, Note_on_c, 11, 58, 127
1, 306515, Note_off_c, 11, 58, 127
1, 306515, Note_off_c, 5, 77, 127
1, 306516, Note_on_c, 4, 76, 127
1, 306516, Note_on_c, 5, 53, 127
1, 306653, Note_off_c, 4, 76, 127
1, 306654, Note_on_c, 2, 74, 127
1, 306791, Note_off_c, 2, 74, 127
1, 306791, Note_off_c, 5, 53, 127
1, 306792, Note_on_c, 4, 76, 127
1, 306792, Note_on_c, 7, 55, 127
1, 307068, Note_off_c, 7, 55, 127
1, 307068, Note_off_c, 4, 76, 127
1, 307068, Note_off_c, 2, 62, 127
1, 307069, Note_on_c, 7, 79, 127
1, 307069, Note_on_c, 4, 52, 127
1, 307206, Note_off_c, 7, 79, 127
1, 307207, Note_on_c, 5, 77, 127
1, 307344, Note_off_c, 5, 77, 127
1, 307344, Note_off_c, 4, 52, 127
1, 307345, Note_on_c, 4, 76, 127
1, 307345, Note_on_c, 10, 57, 127
1, 307345, Note_on_c, 1, 61, 127
1, 307621, Note_off_c, 1, 61, 127
1, 307621, Note_off_c, 10, 57, 127
1, 307621, Note_off_c, 4, 76, 127
1, 307622, Note_on_c, 2, 74, 127
1, 307622, Note_on_c, 4, 52, 127
1, 307622, Note_on_c, 4, 64, 127
1, 307759, Note_off_c, 2, 74, 127
1, 307760, Note_on_c, 1, 73, 127
1, 307897, Note_off_c, 1, 73, 127
1, 307897, Note_off_c, 4, 64, 127
1, 307897, Note_off_c, 4, 52, 127
1, 307898, Note_on_c, 2, 74, 127
1, 307898, Note_on_c, 10, 57, 127
1, 307898, Note_on_c, 5, 53, 127
1, 308174, Note_off_c, 5, 53, 127
1, 308174, Note_off_c, 2, 74, 127
1, 308175, Note_on_c, 2, 62, 127
1, 308175, Note_on_c, 2, 50, 127
1, 308312, Note_off_c, 2, 62, 127
1, 308313, Note_on_c, 4, 64, 127
1, 308446, Note_off_c, 10, 57, 127
1, 308450, Note_off_c, 4, 64, 127
1, 308450, Note_off_c, 2, 50, 127
1, 308451, Note_on_c, 5, 65, 127
1, 308451, Note_on_c, 2, 62, 127
1, 308727, Note_off_c, 5, 65, 127
1, 308728, Note_on_c, 4, 64, 127
1, 308865, Note_off_c, 4, 64, 127
1, 308866, Note_on_c, 5, 65, 127
1, 309003, Note_off_c, 5, 65, 127
1, 309004, Note_on_c, 7, 67, 127
1, 309280, Note_off_c, 7, 67, 127
1, 309281, Note_on_c, 5, 65, 127
1, 309418, Note_off_c, 5, 65, 127
1, 309419, Note_on_c, 7, 67, 127
1, 309556, Note_off_c, 7, 67, 127
1, 309556, Note_off_c, 2, 62, 127
1, 309557, Note_on_c, 10, 69, 127
1, 309557, Note_on_c, 1, 61, 127
1, 309833, Note_off_c, 10, 69, 127
1, 309834, Note_on_c, 7, 67, 127
1, 309971, Note_off_c, 7, 67, 127
1, 309972, Note_on_c, 10, 69, 127
1, 310109, Note_off_c, 10, 69, 127
1, 310109, Note_off_c, 1, 61, 127
1, 310110, Note_on_c, 5, 65, 127
1, 310110, Note_on_c, 2, 62, 127
1, 310385, Note_off_c, 2, 62, 127
1, 310388, Note_on_c, 2, 62, 127
1, 310388, Note_on_c, 2, 50, 127
1, 310515, Note_off_c, 5, 65, 127
1, 310525, Note_off_c, 2, 50, 127
1, 310526, Note_on_c, 4, 52, 127
1, 310663, Note_off_c, 4, 52, 127
1, 310663, Note_off_c, 2, 62, 127
1, 310664, Note_on_c, 2, 74, 127
1, 310664, Note_on_c, 10, 69, 127
1, 310664, Note_on_c, 5, 65, 127
1, 310664, Note_on_c, 5, 53, 127
1, 310940, Note_off_c, 5, 53, 127
1, 310940, Note_off_c, 5, 65, 127
1, 310940, Note_off_c, 10, 69, 127
1, 310941, Note_on_c, 5, 65, 127
1, 310941, Note_on_c, 10, 69, 127
1, 310941, Note_on_c, 4, 52, 127
1, 311078, Note_off_c, 4, 52, 127
1, 311079, Note_on_c, 5, 53, 127
1, 311216, Note_off_c, 5, 53, 127
1, 311216, Note_off_c, 10, 69, 127
1, 311216, Note_off_c, 5, 65, 127
1, 311217, Note_on_c, 4, 64, 127
1, 311217, Note_on_c, 11, 70, 127
1, 311217, Note_on_c, 7, 55, 127
1, 311493, Note_off_c, 7, 55, 127
1, 311493, Note_off_c, 11, 70, 127
1, 311493, Note_off_c, 4, 64, 127
1, 311494, Note_on_c, 4, 64, 127
1, 311494, Note_on_c, 11, 70, 127
1, 311494, Note_on_c, 5, 53, 127
1, 311631, Note_off_c, 5, 53, 127
1, 311632, Note_on_c, 7, 55, 127
1, 311769, Note_off_c, 7, 55, 127
1, 311769, Note_off_c, 11, 70, 127
1, 311769, Note_off_c, 4, 64, 127
1, 311769, Note_off_c, 2, 74, 127
1, 311770, Note_on_c, 10, 69, 127
1, 311770, Note_on_c, 1, 73, 127
1, 311770, Note_on_c, 4, 64, 127
1, 311770, Note_on_c, 10, 57, 127
1, 312046, Note_off_c, 10, 57, 127
1, 312046, Note_off_c, 4, 64, 127
1, 312046, Note_off_c, 10, 69, 127
1, 312047, Note_on_c, 4, 64, 127
1, 312047, Note_on_c, 10, 69, 127
1, 312047, Note_on_c, 7, 55, 127
1, 312184, Note_off_c, 7, 55, 127
1, 312185, Note_on_c, 10, 57, 127
1, 312318, Note_off_c, 1, 73, 127
1, 312322, Note_off_c, 10, 57, 127
1, 312322, Note_off_c, 10, 69, 127
1, 312322, Note_off_c, 4, 64, 127
1, 312323, Note_on_c, 2, 62, 127
1, 312323, Note_on_c, 2, 74, 127
1, 312323, Note_on_c, 10, 69, 127
1, 312323, Note_on_c, 5, 53, 127
1, 312323, Note_on_c, 10, 57, 127
1, 312599, Note_off_c, 5, 53, 127
1, 312599, Note_off_c, 10, 69, 127
1, 312599, Note_off_c, 2, 74, 127
1, 312599, Note_off_c, 2, 62, 127
1, 312600, Note_on_c, 5, 77, 127
1, 312600, Note_on_c, 2, 50, 127
1, 312737, Note_off_c, 5, 77, 127
1, 312738, Note_on_c, 3, 75, 127
1, 312871, Note_off_c, 10, 57, 127
1, 312875, Note_off_c, 3, 75, 127
1, 312875, Note_off_c, 2, 50, 127
1, 312876, Note_on_c, 2, 74, 127
1, 312876, Note_on_c, 7, 55, 127
1, 313152, Note_off_c, 2, 74, 127
1, 313153, Note_on_c, 0, 72, 127
1, 313153, Note_on_c, 2, 50, 127
1, 313290, Note_off_c, 0, 72, 127
1, 313291, Note_on_c, 12, 71, 127
1, 313428, Note_off_c, 12, 71, 127
1, 313428, Note_off_c, 2, 50, 127
1, 313429, Note_on_c, 0, 72, 127
1, 313429, Note_on_c, 3, 51, 127
1, 313705, Note_off_c, 3, 51, 127
1, 313705, Note_off_c, 0, 72, 127
1, 313705, Note_off_c, 7, 55, 127
1, 313706, Note_on_c, 3, 75, 127
1, 313706, Note_on_c, 0, 48, 127
1, 313843, Note_off_c, 3, 75, 127
1, 313844, Note_on_c, 2, 74, 127
1, 313981, Note_off_c, 2, 74, 127
1, 313981, Note_off_c, 0, 48, 127
1, 313982, Note_on_c, 0, 72, 127
1, 313982, Note_on_c, 5, 53, 127
1, 313982, Note_on_c, 10, 57, 127
1, 314258, Note_off_c, 5, 53, 127
1, 314258, Note_off_c, 0, 72, 127
1, 314259, Note_on_c, 11, 70, 127
1, 314259, Note_on_c, 0, 48, 127
1, 314396, Note_off_c, 11, 70, 127
1, 314397, Note_on_c, 10, 69, 127
1, 314534, Note_off_c, 10, 69, 127
1, 314534, Note_off_c, 0, 48, 127
1, 314535, Note_on_c, 11, 70, 127
1, 314535, Note_on_c, 2, 50, 127
1, 314811, Note_off_c, 2, 50, 127
1, 314811, Note_off_c, 11, 70, 127
1, 314811, Note_off_c, 10, 57, 127
1, 314812, Note_on_c, 2, 74, 127
1, 314812, Note_on_c, 11, 46, 127
1, 314949, Note_off_c, 2, 74, 127
1, 314950, Note_on_c, 0, 72, 127
1, 315087, Note_off_c, 0, 72, 127
1, 315087, Note_off_c, 11, 46, 127
1, 315088, Note_on_c, 11, 70, 127
1, 315088, Note_on_c, 7, 55, 127
1, 315088, Note_on_c, 3, 51, 127
1, 315364, Note_off_c, 3, 51, 127
1, 315364, Note_off_c, 11, 70, 127
1, 315365, Note_on_c, 10, 69, 127
1, 315365, Note_on_c, 11, 46, 127
1, 315502, Note_off_c, 10, 69, 127
1, 315503, Note_on_c, 7, 67, 127
1, 315640, Note_off_c, 7, 67, 127
1, 315640, Note_off_c, 11, 46, 127
1, 315641, Note_on_c, 10, 69, 127
1, 315641, Note_on_c, 0, 48, 127
1, 315917, Note_off_c, 0, 48, 127
1, 315917, Note_off_c, 10, 69, 127
1, 315917, Note_off_c, 7, 55, 127
1, 315918, Note_on_c, 0, 72, 127
1, 315918, Note_on_c, 10, 45, 127
1, 316055, Note_off_c, 0, 72, 127
1, 316056, Note_on_c, 11, 70, 127
1, 316193, Note_off_c, 11, 70, 127
1, 316193, Note_off_c, 10, 45, 127
1, 316194, Note_on_c, 10, 69, 127
1, 316194, Note_on_c, 6, 54, 127
1, 316194, Note_on_c, 2, 50, 127
1, 316470, Note_off_c, 2, 50, 127
1, 316470, Note_off_c, 6, 54, 127
1, 316470, Note_off_c, 10, 69, 127
1, 316471, Note_on_c, 7, 67, 127
1, 316471, Note_on_c, 10, 57, 127
1, 316471, Note_on_c, 10, 45, 127
1, 316608, Note_off_c, 7, 67, 127
1, 316609, Note_on_c, 6, 66, 127
1, 316746, Note_off_c, 6, 66, 127
1, 316746, Note_off_c, 10, 45, 127
1, 316746, Note_off_c, 10, 57, 127
1, 316747, Note_on_c, 7, 67, 127
1, 316747, Note_on_c, 2, 50, 127
1, 316747, Note_on_c, 11, 46, 127
1, 317027, Note_off_c, 11, 46, 127
1, 317027, Note_off_c, 2, 50, 127
1, 317027, Note_off_c, 7, 67, 127
1, 317044, Note_on_c, 7, 43, 127
1, 317044, Note_on_c, 7, 55, 127
1, 317044, Note_on_c, 7, 67, 127
1, 317183, Note_off_c, 7, 67, 127
1, 317183, Note_off_c, 7, 55, 127
1, 317183, Note_off_c, 7, 43, 127
1, 317184, Note_on_c, 10, 57, 127
1, 317184, Note_on_c, 10, 69, 127
1, 317323, Note_off_c, 10, 69, 127
1, 317323, Note_off_c, 10, 57, 127
1, 317324, Note_on_c, 11, 58, 127
1, 317324, Note_on_c, 11, 70, 127
1, 317604, Note_off_c, 11, 70, 127
1, 317604, Note_off_c, 11, 58, 127
1, 317605, Note_on_c, 10, 57, 127
1, 317605, Note_on_c, 10, 69, 127
1, 317744, Note_off_c, 10, 69, 127
1, 317744, Note_off_c, 10, 57, 127
1, 317745, Note_on_c, 11, 58, 127
1, 317745, Note_on_c, 11, 70, 127
1, 317884, Note_off_c, 11, 70, 127
1, 317884, Note_off_c, 11, 58, 127
1, 317885, Note_on_c, 0, 60, 127
1, 317885, Note_on_c, 0, 72, 127
1, 318165, Note_off_c, 0, 72, 127
1, 318165, Note_off_c, 0, 60, 127
1, 318166, Note_on_c, 11, 58, 127
1, 318166, Note_on_c, 11, 70, 127
1, 318305, Note_off_c, 11, 70, 127
1, 318305, Note_off_c, 11, 58, 127
1, 318306, Note_on_c, 0, 60, 127
1, 318306, Note_on_c, 0, 72, 127
1, 318445, Note_off_c, 0, 72, 127
1, 318445, Note_off_c, 0, 60, 127
1, 318446, Note_on_c, 2, 62, 127
1, 318446, Note_on_c, 2, 74, 127
1, 318726, Note_off_c, 2, 74, 127
1, 318726, Note_off_c, 2, 62, 127
1, 318727, Note_on_c, 0, 60, 127
1, 318727, Note_on_c, 0, 72, 127
1, 318866, Note_off_c, 0, 72, 127
1, 318866, Note_off_c, 0, 60, 127
1, 318867, Note_on_c, 2, 62, 127
1, 318867, Note_on_c, 2, 74, 127
1, 319006, Note_off_c, 2, 74, 127
1, 319006, Note_off_c, 2, 62, 127
1, 319007, Note_on_c, 11, 58, 127
1, 319007, Note_on_c, 11, 70, 127
1, 319247, Note_off_c, 11, 70, 127
1, 319293, Note_off_c, 11, 58, 127
1, 319295, Note_on_c, 7, 43, 127
1, 319295, Note_on_c, 7, 67, 127
1, 319437, Note_off_c, 7, 43, 127
1, 319439, Note_on_c, 10, 45, 127
1, 319580, Note_off_c, 7, 67, 127
1, 319582, Note_off_c, 10, 45, 127
1, 319584, Note_on_c, 11, 46, 127
1, 319870, Note_off_c, 11, 46, 127
1, 319872, Note_on_c, 10, 45, 127
1, 320014, Note_off_c, 10, 45, 127
1, 320016, Note_on_c, 11, 46, 127
1, 320158, Note_off_c, 11, 46, 127
1, 320160, Note_on_c, 0, 48, 127
1, 320446, Note_off_c, 0, 48, 127
1, 320448, Note_on_c, 11, 46, 127
1, 320590, Note_off_c, 11, 46, 127
1, 320592, Note_on_c, 0, 48, 127
1, 320734, Note_off_c, 0, 48, 127
1, 320736, Note_on_c, 2, 50, 127
1, 320736, Note_on_c, 2, 74, 127
1, 321063, Note_off_c, 2, 74, 127
1, 321081, Note_on_c, 10, 69, 127
1, 321081, Note_on_c, 0, 72, 127
1, 321081, Note_on_c, 2, 74, 127
1, 321081, Note_on_c, 6, 78, 127
1, 321081, Note_on_c, 2, 38, 127
1, 321441, Note_off_c, 2, 50, 127
1, 321463, Note_off_c, 2, 38, 127
1, 321463, Note_off_c, 6, 78, 127
1, 321463, Note_off_c, 2, 74, 127
1, 321463, Note_off_c, 0, 72, 127
1, 321463, Note_off_c, 10, 69, 127
1, 321497, Note_on_c, 2, 74, 127
1, 321497, Note_on_c, 7, 67, 127
1, 321497, Note_on_c, 11, 70, 127
1, 321497, Note_on_c, 7, 79, 127
1, 321497, Note_on_c, 7, 43, 127
1, 323029, Note_off_c, 7, 43, 127
1, 323029, Note_off_c, 7, 79, 127
1, 323029, Note_off_c, 11, 70, 127
1, 323029, Note_off_c, 7, 67, 127
1, 323029, Note_off_c, 2, 74, 127
1, 328704, End_track
0, 0, End_of_file
