0, 0, Header, 0, 1, 384
1, 0, Start_track
1, 0, Copyright_t, "(C) John Sankey 1998"
1, 0, Program_c, 0, 6
1, 0, Pitch_bend_c, 0, 8192
1, 0, Program_c, 1, 6
1, 0, Pitch_bend_c, 1, 7792
1, 0, Program_c, 2, 6
1, 0, Pitch_bend_c, 2, 7876
1, 0, Program_c, 3, 6
1, 0, Pitch_bend_c, 3, 7952
1, 0, Program_c, 4, 6
1, 0, Pitch_bend_c, 4, 7792
1, 0, Program_c, 5, 6
1, 0, Pitch_bend_c, 5, 8112
1, 0, Program_c, 6, 6
1, 0, Pitch_bend_c, 6, 7712
1, 0, Program_c, 7, 6
1, 0, Pitch_bend_c, 7, 8037
1, 0, Program_c, 8, 6
1, 0, Pitch_bend_c, 8, 7872
1, 0, Program_c, 10, 6
1, 0, Pitch_bend_c, 10, 7712
1, 0, Program_c, 11, 6
1, 0, Pitch_bend_c, 11, 8032
1, 0, Program_c, 12, 6
1, 0, Pitch_bend_c, 12, 7872
1, 0, Tempo, 500000
1, 50, Note_on_c, 5, 53, 127
1, 50, Note_on_c, 0, 48, 127
1, 50, Note_on_c, 10, 45, 127
1, 50, Note_on_c, 5, 41, 127
1, 316, Note_on_c, 5, 77, 127
1, 581, Note_on_c, 10, 69, 127
1, 581, Note_on_c, 5, 65, 127
1, 827, Note_off_c, 5, 77, 127
1, 829, Note_off_c, 5, 65, 127
1, 829, Note_off_c, 10, 69, 127
1, 848, Note_on_c, 11, 70, 127
1, 848, Note_on_c, 7, 67, 127
1, 1095, Note_off_c, 7, 67, 127
1, 1095, Note_off_c, 11, 70, 127
1, 1111, Note_off_c, 5, 41, 127
1, 1111, Note_off_c, 10, 45, 127
1, 1111, Note_off_c, 0, 48, 127
1, 1111, Note_off_c, 5, 53, 127
1, 1114, Note_on_c, 10, 69, 127
1, 1114, Note_on_c, 0, 72, 127
1, 1379, Note_on_c, 5, 65, 127
1, 1642, Note_off_c, 5, 65, 127
1, 1643, Note_off_c, 0, 72, 127
1, 1643, Note_off_c, 10, 69, 127
1, 1645, Note_on_c, 11, 70, 127
1, 1645, Note_on_c, 2, 74, 127
1, 1645, Note_on_c, 2, 62, 127
1, 1908, Note_off_c, 2, 62, 127
1, 1911, Note_on_c, 11, 58, 127
1, 2127, Note_off_c, 2, 74, 127
1, 2127, Note_off_c, 11, 70, 127
1, 2173, Note_off_c, 11, 58, 127
1, 2176, Note_on_c, 0, 72, 127
1, 2176, Note_on_c, 5, 65, 127
1, 2176, Note_on_c, 10, 69, 127
1, 2439, Note_off_c, 0, 72, 127
1, 2442, Note_on_c, 5, 77, 127
1, 2442, Note_on_c, 5, 53, 127
1, 2701, Note_off_c, 10, 69, 127
1, 2705, Note_off_c, 5, 53, 127
1, 2707, Note_on_c, 11, 70, 127
1, 2707, Note_on_c, 2, 50, 127
1, 2967, Note_off_c, 5, 77, 127
1, 2970, Note_off_c, 2, 50, 127
1, 2973, Note_on_c, 3, 75, 127
1, 2973, Note_on_c, 11, 46, 127
1, 3103, Note_off_c, 3, 75, 127
1, 3105, Note_on_c, 2, 74, 127
1, 3231, Note_off_c, 11, 70, 127
1, 3235, Note_off_c, 2, 74, 127
1, 3235, Note_off_c, 11, 46, 127
1, 3235, Note_off_c, 5, 65, 127
1, 3238, Note_on_c, 2, 74, 127
1, 3238, Note_on_c, 5, 65, 127
1, 3238, Note_on_c, 11, 70, 127
1, 3238, Note_on_c, 5, 53, 127
1, 3472, Note_off_c, 11, 70, 127
1, 3472, Note_off_c, 5, 65, 127
1, 3472, Note_off_c, 2, 74, 127
1, 3503, Note_on_c, 5, 65, 127
1, 3503, Note_on_c, 10, 69, 127
1, 3503, Note_on_c, 0, 72, 127
1, 3503, Note_on_c, 5, 41, 127
1, 3889, Note_off_c, 5, 41, 127
1, 3901, Note_off_c, 5, 53, 127
1, 4028, Note_off_c, 0, 72, 127
1, 4028, Note_off_c, 10, 69, 127
1, 4028, Note_off_c, 5, 65, 127
1, 4351, Note_on_c, 7, 55, 127
1, 4351, Note_on_c, 0, 60, 127
1, 4351, Note_on_c, 0, 48, 127
1, 4351, Note_on_c, 4, 52, 127
1, 4616, Note_on_c, 0, 84, 127
1, 4882, Note_on_c, 4, 76, 127
1, 4882, Note_on_c, 0, 72, 127
1, 5127, Note_off_c, 0, 84, 127
1, 5130, Note_off_c, 0, 72, 127
1, 5130, Note_off_c, 4, 76, 127
1, 5146, Note_off_c, 4, 52, 127
1, 5146, Note_off_c, 0, 48, 127
1, 5146, Note_off_c, 0, 60, 127
1, 5146, Note_off_c, 7, 55, 127
1, 5149, Note_on_c, 5, 77, 127
1, 5149, Note_on_c, 2, 74, 127
1, 5396, Note_off_c, 2, 74, 127
1, 5396, Note_off_c, 5, 77, 127
1, 5414, Note_on_c, 4, 76, 127
1, 5414, Note_on_c, 7, 79, 127
1, 5680, Note_on_c, 0, 72, 127
1, 5943, Note_off_c, 0, 72, 127
1, 5943, Note_off_c, 7, 79, 127
1, 5943, Note_off_c, 4, 76, 127
1, 5946, Note_on_c, 5, 77, 127
1, 5946, Note_on_c, 10, 81, 127
1, 5946, Note_on_c, 10, 69, 127
1, 6209, Note_off_c, 10, 69, 127
1, 6211, Note_on_c, 5, 65, 127
1, 6449, Note_off_c, 10, 81, 127
1, 6449, Note_off_c, 5, 77, 127
1, 6473, Note_off_c, 5, 65, 127
1, 6477, Note_on_c, 4, 76, 127
1, 6477, Note_on_c, 7, 79, 127
1, 6477, Note_on_c, 0, 72, 127
1, 6740, Note_off_c, 7, 79, 127
1, 6740, Note_off_c, 4, 76, 127
1, 6743, Note_on_c, 0, 84, 127
1, 6743, Note_on_c, 0, 60, 127
1, 7006, Note_off_c, 0, 60, 127
1, 7008, Note_on_c, 5, 77, 127
1, 7008, Note_on_c, 10, 57, 127
1, 7268, Note_off_c, 0, 84, 127
1, 7271, Note_off_c, 10, 57, 127
1, 7274, Note_on_c, 11, 82, 127
1, 7274, Note_on_c, 5, 53, 127
1, 7404, Note_off_c, 11, 82, 127
1, 7406, Note_on_c, 10, 81, 127
1, 7532, Note_off_c, 5, 77, 127
1, 7536, Note_off_c, 10, 81, 127
1, 7536, Note_off_c, 5, 53, 127
1, 7536, Note_off_c, 0, 72, 127
1, 7539, Note_on_c, 10, 81, 127
1, 7539, Note_on_c, 0, 72, 127
1, 7539, Note_on_c, 5, 77, 127
1, 7539, Note_on_c, 0, 60, 127
1, 7794, Note_off_c, 5, 77, 127
1, 7794, Note_off_c, 10, 81, 127
1, 7804, Note_on_c, 7, 79, 127
1, 7804, Note_on_c, 4, 76, 127
1, 7804, Note_on_c, 0, 48, 127
1, 8064, Note_off_c, 0, 60, 127
1, 8064, Note_off_c, 0, 72, 127
1, 8066, Note_off_c, 4, 76, 127
1, 8066, Note_off_c, 7, 79, 127
1, 8220, Note_on_c, 0, 72, 127
1, 8329, Note_off_c, 0, 48, 127
1, 8350, Note_off_c, 0, 72, 127
1, 8352, Note_on_c, 11, 70, 127
1, 8482, Note_off_c, 11, 70, 127
1, 8485, Note_on_c, 10, 69, 127
1, 8615, Note_off_c, 10, 69, 127
1, 8617, Note_on_c, 4, 52, 127
1, 8617, Note_on_c, 7, 55, 127
1, 8617, Note_on_c, 0, 60, 127
1, 8617, Note_on_c, 11, 70, 127
1, 8864, Note_off_c, 11, 70, 127
1, 8883, Note_on_c, 7, 79, 127
1, 9146, Note_off_c, 0, 60, 127
1, 9146, Note_off_c, 7, 55, 127
1, 9146, Note_off_c, 4, 52, 127
1, 9148, Note_on_c, 0, 48, 127
1, 9148, Note_on_c, 7, 55, 127
1, 9148, Note_on_c, 4, 52, 127
1, 9148, Note_on_c, 0, 60, 127
1, 9278, Note_off_c, 7, 79, 127
1, 9280, Note_on_c, 11, 70, 127
1, 9410, Note_off_c, 11, 70, 127
1, 9413, Note_on_c, 10, 69, 127
1, 9543, Note_off_c, 10, 69, 127
1, 9545, Note_on_c, 7, 67, 127
1, 9675, Note_off_c, 7, 67, 127
1, 9675, Note_off_c, 4, 52, 127
1, 9675, Note_off_c, 7, 55, 127
1, 9675, Note_off_c, 0, 48, 127
1, 9677, Note_on_c, 5, 53, 127
1, 9677, Note_on_c, 10, 69, 127
1, 9807, Note_off_c, 10, 69, 127
1, 9810, Note_on_c, 7, 67, 127
1, 9939, Note_off_c, 0, 60, 127
1, 9940, Note_off_c, 7, 67, 127
1, 9942, Note_on_c, 10, 57, 127
1, 9942, Note_on_c, 5, 65, 127
1, 10072, Note_off_c, 5, 65, 127
1, 10074, Note_on_c, 7, 67, 127
1, 10199, Note_off_c, 5, 53, 127
1, 10204, Note_off_c, 7, 67, 127
1, 10204, Note_off_c, 10, 57, 127
1, 10207, Note_on_c, 0, 60, 127
1, 10207, Note_on_c, 10, 69, 127
1, 10337, Note_off_c, 10, 69, 127
1, 10339, Note_on_c, 11, 70, 127
1, 10469, Note_off_c, 11, 70, 127
1, 10469, Note_off_c, 0, 60, 127
1, 10471, Note_on_c, 5, 65, 127
1, 10471, Note_on_c, 0, 72, 127
1, 10601, Note_off_c, 0, 72, 127
1, 10603, Note_on_c, 2, 74, 127
1, 10705, Note_off_c, 5, 65, 127
1, 10734, Note_off_c, 2, 74, 127
1, 10737, Note_on_c, 0, 60, 127
1, 10737, Note_on_c, 10, 57, 127
1, 10737, Note_on_c, 5, 65, 127
1, 10737, Note_on_c, 3, 75, 127
1, 10984, Note_off_c, 3, 75, 127
1, 11002, Note_on_c, 0, 84, 127
1, 11266, Note_off_c, 5, 65, 127
1, 11266, Note_off_c, 10, 57, 127
1, 11266, Note_off_c, 0, 60, 127
1, 11268, Note_on_c, 10, 57, 127
1, 11268, Note_on_c, 5, 53, 127
1, 11268, Note_on_c, 5, 65, 127
1, 11268, Note_on_c, 0, 60, 127
1, 11397, Note_off_c, 0, 84, 127
1, 11400, Note_on_c, 3, 75, 127
1, 11530, Note_off_c, 3, 75, 127
1, 11533, Note_on_c, 2, 74, 127
1, 11663, Note_off_c, 2, 74, 127
1, 11665, Note_on_c, 0, 72, 127
1, 11795, Note_off_c, 0, 72, 127
1, 11795, Note_off_c, 0, 60, 127
1, 11795, Note_off_c, 5, 53, 127
1, 11795, Note_off_c, 10, 57, 127
1, 11797, Note_on_c, 11, 58, 127
1, 11797, Note_on_c, 2, 74, 127
1, 11927, Note_off_c, 2, 74, 127
1, 11930, Note_on_c, 0, 72, 127
1, 12059, Note_off_c, 5, 65, 127
1, 12060, Note_off_c, 0, 72, 127
1, 12062, Note_on_c, 2, 62, 127
1, 12062, Note_on_c, 11, 70, 127
1, 12192, Note_off_c, 11, 70, 127
1, 12194, Note_on_c, 0, 72, 127
1, 12319, Note_off_c, 11, 58, 127
1, 12324, Note_off_c, 0, 72, 127
1, 12324, Note_off_c, 2, 62, 127
1, 12327, Note_on_c, 5, 65, 127
1, 12327, Note_on_c, 2, 74, 127
1, 12457, Note_off_c, 2, 74, 127
1, 12459, Note_on_c, 4, 76, 127
1, 12589, Note_off_c, 4, 76, 127
1, 12589, Note_off_c, 5, 65, 127
1, 12591, Note_on_c, 11, 70, 127
1, 12591, Note_on_c, 5, 77, 127
1, 12721, Note_off_c, 5, 77, 127
1, 12723, Note_on_c, 7, 79, 127
1, 12825, Note_off_c, 11, 70, 127
1, 12854, Note_off_c, 7, 79, 127
1, 12857, Note_on_c, 5, 65, 127
1, 12857, Note_on_c, 2, 62, 127
1, 12857, Note_on_c, 12, 71, 127
1, 12857, Note_on_c, 8, 80, 127
1, 12943, Note_off_c, 8, 80, 127
1, 12945, Note_on_c, 7, 79, 127
1, 13031, Note_off_c, 7, 79, 127
1, 13033, Note_on_c, 5, 77, 127
1, 13119, Note_off_c, 5, 77, 127
1, 13121, Note_on_c, 7, 79, 127
1, 13385, Note_off_c, 12, 71, 127
1, 13385, Note_off_c, 2, 62, 127
1, 13385, Note_off_c, 5, 65, 127
1, 13387, Note_on_c, 12, 59, 127
1, 13387, Note_on_c, 2, 62, 127
1, 13387, Note_on_c, 7, 67, 127
1, 13438, Note_off_c, 7, 79, 127
1, 13475, Note_on_c, 5, 77, 127
1, 13561, Note_off_c, 5, 77, 127
1, 13563, Note_on_c, 4, 76, 127
1, 13649, Note_off_c, 4, 76, 127
1, 13652, Note_on_c, 5, 77, 127
1, 13915, Note_off_c, 7, 67, 127
1, 13915, Note_off_c, 2, 62, 127
1, 13915, Note_off_c, 12, 59, 127
1, 13917, Note_on_c, 7, 55, 127
1, 13917, Note_on_c, 2, 62, 127
1, 13917, Note_on_c, 12, 59, 127
1, 13969, Note_off_c, 5, 77, 127
1, 14005, Note_on_c, 4, 76, 127
1, 14091, Note_off_c, 4, 76, 127
1, 14094, Note_on_c, 2, 74, 127
1, 14180, Note_off_c, 2, 74, 127
1, 14182, Note_on_c, 4, 76, 127
1, 14445, Note_off_c, 12, 59, 127
1, 14445, Note_off_c, 2, 62, 127
1, 14445, Note_off_c, 7, 55, 127
1, 14448, Note_on_c, 0, 48, 127
1, 14448, Note_on_c, 0, 60, 127
1, 14448, Note_on_c, 7, 55, 127
1, 14577, Note_off_c, 4, 76, 127
1, 14580, Note_on_c, 7, 79, 127
1, 14710, Note_off_c, 7, 79, 127
1, 14712, Note_on_c, 4, 76, 127
1, 14842, Note_off_c, 4, 76, 127
1, 14844, Note_on_c, 0, 72, 127
1, 14970, Note_off_c, 7, 55, 127
1, 14970, Note_off_c, 0, 48, 127
1, 14974, Note_off_c, 0, 72, 127
1, 14977, Note_on_c, 11, 70, 127
1, 15109, Note_off_c, 0, 60, 127
1, 15110, Note_on_c, 7, 79, 127
1, 15239, Note_off_c, 11, 70, 127
1, 15240, Note_off_c, 7, 79, 127
1, 15242, Note_on_c, 0, 60, 127
1, 15242, Note_on_c, 4, 76, 127
1, 15372, Note_off_c, 4, 76, 127
1, 15372, Note_off_c, 0, 60, 127
1, 15375, Note_on_c, 2, 62, 127
1, 15375, Note_on_c, 0, 72, 127
1, 15505, Note_off_c, 0, 72, 127
1, 15505, Note_off_c, 2, 62, 127
1, 15507, Note_on_c, 4, 64, 127
1, 15507, Note_on_c, 11, 70, 127
1, 15637, Note_off_c, 11, 70, 127
1, 15639, Note_on_c, 7, 79, 127
1, 15769, Note_off_c, 7, 79, 127
1, 15769, Note_off_c, 4, 64, 127
1, 15772, Note_on_c, 7, 67, 127
1, 15772, Note_on_c, 4, 76, 127
1, 15902, Note_off_c, 4, 76, 127
1, 15904, Note_on_c, 0, 72, 127
1, 16034, Note_off_c, 0, 72, 127
1, 16034, Note_off_c, 7, 67, 127
1, 16036, Note_on_c, 4, 64, 127
1, 16036, Note_on_c, 11, 70, 127
1, 16166, Note_off_c, 11, 70, 127
1, 16168, Note_on_c, 7, 79, 127
1, 16298, Note_off_c, 7, 79, 127
1, 16298, Note_off_c, 4, 64, 127
1, 16301, Note_on_c, 0, 60, 127
1, 16301, Note_on_c, 4, 76, 127
1, 16431, Note_off_c, 4, 76, 127
1, 16433, Note_on_c, 0, 72, 127
1, 16563, Note_off_c, 0, 72, 127
1, 16563, Note_off_c, 0, 60, 127
1, 16565, Note_on_c, 0, 48, 127
1, 16565, Note_on_c, 11, 70, 127
1, 16699, Note_on_c, 7, 79, 127
1, 16827, Note_off_c, 11, 70, 127
1, 16829, Note_off_c, 7, 79, 127
1, 16831, Note_on_c, 4, 76, 127
1, 16961, Note_off_c, 4, 76, 127
1, 16963, Note_on_c, 0, 72, 127
1, 17089, Note_off_c, 0, 48, 127
1, 17093, Note_off_c, 0, 72, 127
1, 17096, Note_on_c, 10, 69, 127
1, 17226, Note_off_c, 10, 69, 127
1, 17228, Note_on_c, 0, 60, 127
1, 17228, Note_on_c, 10, 81, 127
1, 17358, Note_off_c, 10, 81, 127
1, 17358, Note_off_c, 0, 60, 127
1, 17360, Note_on_c, 2, 62, 127
1, 17360, Note_on_c, 5, 77, 127
1, 17490, Note_off_c, 5, 77, 127
1, 17490, Note_off_c, 2, 62, 127
1, 17493, Note_on_c, 4, 64, 127
1, 17493, Note_on_c, 1, 73, 127
1, 17623, Note_off_c, 1, 73, 127
1, 17623, Note_off_c, 4, 64, 127
1, 17625, Note_on_c, 5, 65, 127
1, 17625, Note_on_c, 0, 72, 127
1, 17755, Note_off_c, 0, 72, 127
1, 17757, Note_on_c, 10, 81, 127
1, 17887, Note_off_c, 10, 81, 127
1, 17887, Note_off_c, 5, 65, 127
1, 17889, Note_on_c, 10, 69, 127
1, 17889, Note_on_c, 5, 77, 127
1, 18019, Note_off_c, 5, 77, 127
1, 18022, Note_on_c, 1, 73, 127
1, 18151, Note_off_c, 10, 69, 127
1, 18152, Note_off_c, 1, 73, 127
1, 18154, Note_on_c, 5, 65, 127
1, 18154, Note_on_c, 0, 72, 127
1, 18284, Note_off_c, 0, 72, 127
1, 18286, Note_on_c, 10, 81, 127
1, 18416, Note_off_c, 10, 81, 127
1, 18416, Note_off_c, 5, 65, 127
1, 18419, Note_on_c, 0, 60, 127
1, 18419, Note_on_c, 5, 77, 127
1, 18549, Note_off_c, 5, 77, 127
1, 18551, Note_on_c, 1, 73, 127
1, 18681, Note_off_c, 1, 73, 127
1, 18681, Note_off_c, 0, 60, 127
1, 18683, Note_on_c, 0, 48, 127
1, 18683, Note_on_c, 0, 72, 127
1, 18817, Note_on_c, 10, 81, 127
1, 18945, Note_off_c, 0, 72, 127
1, 18947, Note_off_c, 10, 81, 127
1, 18949, Note_on_c, 5, 77, 127
1, 19079, Note_off_c, 5, 77, 127
1, 19081, Note_on_c, 3, 75, 127
1, 19207, Note_off_c, 0, 48, 127
1, 19211, Note_off_c, 3, 75, 127
1, 19213, Note_on_c, 2, 74, 127
1, 19343, Note_off_c, 2, 74, 127
1, 19346, Note_on_c, 12, 83, 127
1, 19476, Note_off_c, 12, 83, 127
1, 19478, Note_on_c, 2, 62, 127
1, 19478, Note_on_c, 8, 80, 127
1, 19608, Note_off_c, 8, 80, 127
1, 19608, Note_off_c, 2, 62, 127
1, 19610, Note_on_c, 4, 64, 127
1, 19610, Note_on_c, 5, 77, 127
1, 19740, Note_off_c, 5, 77, 127
1, 19740, Note_off_c, 4, 64, 127
1, 19743, Note_on_c, 5, 65, 127
1, 19743, Note_on_c, 2, 74, 127
1, 19873, Note_off_c, 2, 74, 127
1, 19875, Note_on_c, 12, 83, 127
1, 20005, Note_off_c, 12, 83, 127
1, 20005, Note_off_c, 5, 65, 127
1, 20007, Note_on_c, 2, 62, 127
1, 20007, Note_on_c, 8, 80, 127
1, 20137, Note_off_c, 8, 80, 127
1, 20137, Note_off_c, 2, 62, 127
1, 20140, Note_on_c, 4, 64, 127
1, 20140, Note_on_c, 5, 77, 127
1, 20270, Note_off_c, 5, 77, 127
1, 20270, Note_off_c, 4, 64, 127
1, 20272, Note_on_c, 5, 65, 127
1, 20272, Note_on_c, 2, 74, 127
1, 20405, Note_on_c, 12, 83, 127
1, 20437, Note_off_c, 2, 74, 127
1, 20536, Note_off_c, 12, 83, 127
1, 20536, Note_off_c, 5, 65, 127
1, 20539, Note_on_c, 2, 62, 127
1, 20539, Note_on_c, 8, 80, 127
1, 20669, Note_off_c, 8, 80, 127
1, 20671, Note_on_c, 5, 77, 127
1, 20801, Note_off_c, 5, 77, 127
1, 20801, Note_off_c, 2, 62, 127
1, 20803, Note_on_c, 7, 55, 127
1, 20803, Note_on_c, 2, 74, 127
1, 20933, Note_off_c, 2, 74, 127
1, 20935, Note_on_c, 12, 83, 127
1, 21065, Note_off_c, 12, 83, 127
1, 21065, Note_off_c, 7, 55, 127
1, 21068, Note_on_c, 12, 59, 127
1, 21068, Note_on_c, 8, 80, 127
1, 21198, Note_off_c, 8, 80, 127
1, 21200, Note_on_c, 5, 77, 127
1, 21330, Note_off_c, 5, 77, 127
1, 21330, Note_off_c, 12, 59, 127
1, 21332, Note_on_c, 0, 60, 127
1, 21332, Note_on_c, 4, 76, 127
1, 21466, Note_on_c, 0, 84, 127
1, 21594, Note_off_c, 4, 76, 127
1, 21596, Note_off_c, 0, 84, 127
1, 21598, Note_on_c, 0, 48, 127
1, 21598, Note_on_c, 7, 79, 127
1, 21718, Note_off_c, 0, 60, 127
1, 21728, Note_off_c, 7, 79, 127
1, 21728, Note_off_c, 0, 48, 127
1, 21730, Note_on_c, 2, 50, 127
1, 21730, Note_on_c, 4, 76, 127
1, 21860, Note_off_c, 4, 76, 127
1, 21860, Note_off_c, 2, 50, 127
1, 21863, Note_on_c, 4, 52, 127
1, 21863, Note_on_c, 0, 72, 127
1, 21993, Note_off_c, 0, 72, 127
1, 21995, Note_on_c, 4, 76, 127
1, 22125, Note_off_c, 4, 76, 127
1, 22125, Note_off_c, 4, 52, 127
1, 22127, Note_on_c, 7, 55, 127
1, 22127, Note_on_c, 2, 74, 127
1, 22257, Note_off_c, 2, 74, 127
1, 22260, Note_on_c, 5, 77, 127
1, 22389, Note_off_c, 7, 55, 127
1, 22390, Note_off_c, 5, 77, 127
1, 22392, Note_on_c, 0, 60, 127
1, 22392, Note_on_c, 4, 76, 127
1, 22525, Note_on_c, 7, 79, 127
1, 22590, Note_off_c, 4, 76, 127
1, 22655, Note_off_c, 7, 79, 127
1, 22657, Note_on_c, 0, 48, 127
1, 22657, Note_on_c, 4, 76, 127
1, 22695, Note_off_c, 0, 60, 127
1, 22787, Note_off_c, 4, 76, 127
1, 22787, Note_off_c, 0, 48, 127
1, 22790, Note_on_c, 2, 50, 127
1, 22790, Note_on_c, 0, 72, 127
1, 22920, Note_off_c, 0, 72, 127
1, 22920, Note_off_c, 2, 50, 127
1, 22922, Note_on_c, 4, 52, 127
1, 22922, Note_on_c, 7, 67, 127
1, 23052, Note_off_c, 7, 67, 127
1, 23054, Note_on_c, 11, 70, 127
1, 23184, Note_off_c, 11, 70, 127
1, 23184, Note_off_c, 4, 52, 127
1, 23187, Note_on_c, 5, 53, 127
1, 23187, Note_on_c, 10, 69, 127
1, 23317, Note_off_c, 10, 69, 127
1, 23319, Note_on_c, 0, 72, 127
1, 23449, Note_off_c, 0, 72, 127
1, 23449, Note_off_c, 5, 53, 127
1, 23451, Note_on_c, 7, 55, 127
1, 23451, Note_on_c, 11, 70, 127
1, 23585, Note_on_c, 2, 74, 127
1, 23649, Note_off_c, 11, 70, 127
1, 23714, Note_off_c, 7, 55, 127
1, 23715, Note_off_c, 2, 74, 127
1, 23717, Note_on_c, 0, 48, 127
1, 23717, Note_on_c, 11, 70, 127
1, 23847, Note_off_c, 11, 70, 127
1, 23847, Note_off_c, 0, 48, 127
1, 23849, Note_on_c, 4, 52, 127
1, 23849, Note_on_c, 7, 67, 127
1, 23979, Note_off_c, 7, 67, 127
1, 23979, Note_off_c, 4, 52, 127
1, 23982, Note_on_c, 7, 55, 127
1, 23982, Note_on_c, 4, 64, 127
1, 24112, Note_off_c, 4, 64, 127
1, 24114, Note_on_c, 7, 67, 127
1, 24244, Note_off_c, 7, 67, 127
1, 24244, Note_off_c, 7, 55, 127
1, 24246, Note_on_c, 10, 57, 127
1, 24246, Note_on_c, 5, 65, 127
1, 24376, Note_off_c, 5, 65, 127
1, 24378, Note_on_c, 10, 69, 127
1, 24508, Note_off_c, 10, 69, 127
1, 24508, Note_off_c, 10, 57, 127
1, 24511, Note_on_c, 11, 58, 127
1, 24511, Note_on_c, 7, 67, 127
1, 24644, Note_on_c, 11, 70, 127
1, 24709, Note_off_c, 7, 67, 127
1, 24774, Note_off_c, 11, 70, 127
1, 24774, Note_off_c, 11, 58, 127
1, 24776, Note_on_c, 0, 48, 127
1, 24776, Note_on_c, 7, 67, 127
1, 24906, Note_off_c, 7, 67, 127
1, 24906, Note_off_c, 0, 48, 127
1, 24909, Note_on_c, 2, 50, 127
1, 24909, Note_on_c, 4, 64, 127
1, 25039, Note_off_c, 4, 64, 127
1, 25039, Note_off_c, 2, 50, 127
1, 25041, Note_on_c, 4, 52, 127
1, 25041, Note_on_c, 0, 60, 127
1, 25171, Note_off_c, 0, 60, 127
1, 25173, Note_on_c, 11, 70, 127
1, 25303, Note_off_c, 11, 70, 127
1, 25303, Note_off_c, 4, 52, 127
1, 25306, Note_on_c, 0, 48, 127
1, 25306, Note_on_c, 10, 69, 127
1, 25436, Note_off_c, 10, 69, 127
1, 25438, Note_on_c, 7, 67, 127
1, 25568, Note_off_c, 7, 67, 127
1, 25568, Note_off_c, 0, 48, 127
1, 25570, Note_on_c, 5, 53, 127
1, 25570, Note_on_c, 10, 69, 127
1, 25700, Note_off_c, 10, 69, 127
1, 25700, Note_off_c, 5, 53, 127
1, 25702, Note_on_c, 10, 57, 127
1, 25702, Note_on_c, 5, 65, 127
1, 25832, Note_off_c, 5, 65, 127
1, 25832, Note_off_c, 10, 57, 127
1, 25835, Note_on_c, 7, 55, 127
1, 25835, Note_on_c, 7, 67, 127
1, 25965, Note_off_c, 7, 67, 127
1, 25965, Note_off_c, 7, 55, 127
1, 25967, Note_on_c, 5, 53, 127
1, 25967, Note_on_c, 10, 69, 127
1, 26097, Note_off_c, 10, 69, 127
1, 26097, Note_off_c, 5, 53, 127
1, 26099, Note_on_c, 4, 52, 127
1, 26099, Note_on_c, 11, 70, 127
1, 26229, Note_off_c, 11, 70, 127
1, 26229, Note_off_c, 4, 52, 127
1, 26232, Note_on_c, 2, 50, 127
1, 26232, Note_on_c, 0, 72, 127
1, 26362, Note_off_c, 0, 72, 127
1, 26362, Note_off_c, 2, 50, 127
1, 26364, Note_on_c, 0, 48, 127
1, 26364, Note_on_c, 2, 74, 127
1, 26494, Note_off_c, 2, 74, 127
1, 26494, Note_off_c, 0, 48, 127
1, 26496, Note_on_c, 11, 46, 127
1, 26496, Note_on_c, 4, 76, 127
1, 26626, Note_off_c, 4, 76, 127
1, 26626, Note_off_c, 11, 46, 127
1, 26629, Note_on_c, 10, 45, 127
1, 26629, Note_on_c, 5, 77, 127
1, 26759, Note_off_c, 5, 77, 127
1, 26759, Note_off_c, 10, 45, 127
1, 26761, Note_on_c, 0, 48, 127
1, 26761, Note_on_c, 4, 76, 127
1, 26891, Note_off_c, 4, 76, 127
1, 26891, Note_off_c, 0, 48, 127
1, 26893, Note_on_c, 2, 50, 127
1, 26893, Note_on_c, 2, 74, 127
1, 27023, Note_off_c, 2, 74, 127
1, 27023, Note_off_c, 2, 50, 127
1, 27025, Note_on_c, 4, 52, 127
1, 27025, Note_on_c, 0, 72, 127
1, 27155, Note_off_c, 0, 72, 127
1, 27155, Note_off_c, 4, 52, 127
1, 27158, Note_on_c, 5, 53, 127
1, 27158, Note_on_c, 0, 84, 127
1, 27288, Note_off_c, 5, 53, 127
1, 27290, Note_on_c, 7, 55, 127
1, 27420, Note_off_c, 7, 55, 127
1, 27420, Note_off_c, 0, 84, 127
1, 27422, Note_on_c, 10, 57, 127
1, 27422, Note_on_c, 5, 77, 127
1, 27422, Note_on_c, 0, 72, 127
1, 27422, Note_on_c, 10, 69, 127
1, 27552, Note_off_c, 10, 57, 127
1, 27555, Note_on_c, 11, 58, 127
1, 27669, Note_off_c, 10, 69, 127
1, 27669, Note_off_c, 0, 72, 127
1, 27669, Note_off_c, 5, 77, 127
1, 27686, Note_off_c, 11, 58, 127
1, 27688, Note_on_c, 0, 60, 127
1, 27688, Note_on_c, 0, 72, 127
1, 27688, Note_on_c, 10, 69, 127
1, 27688, Note_on_c, 5, 77, 127
1, 28157, Note_off_c, 5, 77, 127
1, 28157, Note_off_c, 10, 69, 127
1, 28157, Note_off_c, 0, 72, 127
1, 28217, Note_off_c, 0, 60, 127
1, 28219, Note_on_c, 0, 48, 127
1, 28219, Note_on_c, 0, 72, 127
1, 28219, Note_on_c, 7, 67, 127
1, 28219, Note_on_c, 5, 77, 127
1, 28283, Note_off_c, 5, 77, 127
1, 28285, Note_on_c, 4, 76, 127
1, 28349, Note_off_c, 4, 76, 127
1, 28352, Note_on_c, 5, 77, 127
1, 28416, Note_off_c, 5, 77, 127
1, 28418, Note_on_c, 4, 76, 127
1, 28482, Note_off_c, 4, 76, 127
1, 28484, Note_on_c, 5, 77, 127
1, 28548, Note_off_c, 5, 77, 127
1, 28550, Note_on_c, 4, 76, 127
1, 28604, Note_off_c, 0, 72, 127
1, 28747, Note_off_c, 7, 67, 127
1, 28747, Note_off_c, 0, 48, 127
1, 28748, Note_off_c, 4, 76, 127
1, 28750, Note_on_c, 2, 50, 127
1, 28750, Note_on_c, 5, 65, 127
1, 28883, Note_on_c, 5, 77, 127
1, 29016, Note_on_c, 12, 71, 127
1, 29137, Note_off_c, 5, 65, 127
1, 29145, Note_off_c, 5, 77, 127
1, 29361, Note_off_c, 12, 71, 127
1, 29432, Note_on_c, 2, 74, 127
1, 29545, Note_off_c, 2, 50, 127
1, 29562, Note_off_c, 2, 74, 127
1, 29564, Note_on_c, 0, 72, 127
1, 29564, Note_on_c, 4, 52, 127
1, 29694, Note_off_c, 0, 72, 127
1, 29697, Note_on_c, 11, 70, 127
1, 29826, Note_off_c, 4, 52, 127
1, 29827, Note_off_c, 11, 70, 127
1, 29829, Note_on_c, 10, 69, 127
1, 29829, Note_on_c, 5, 53, 127
1, 29962, Note_on_c, 0, 72, 127
1, 30092, Note_off_c, 0, 72, 127
1, 30092, Note_off_c, 5, 53, 127
1, 30095, Note_on_c, 5, 77, 127
1, 30095, Note_on_c, 10, 45, 127
1, 30215, Note_off_c, 10, 69, 127
1, 30228, Note_on_c, 10, 69, 127
1, 30358, Note_off_c, 10, 69, 127
1, 30358, Note_off_c, 10, 45, 127
1, 30360, Note_on_c, 7, 67, 127
1, 30360, Note_on_c, 11, 46, 127
1, 30592, Note_off_c, 5, 77, 127
1, 30605, Note_off_c, 7, 67, 127
1, 30615, Note_off_c, 11, 46, 127
1, 30626, Note_on_c, 0, 72, 127
1, 30626, Note_on_c, 4, 76, 127
1, 30626, Note_on_c, 11, 70, 127
1, 30626, Note_on_c, 0, 48, 127
1, 30860, Note_off_c, 11, 70, 127
1, 30860, Note_off_c, 4, 76, 127
1, 30860, Note_off_c, 0, 72, 127
1, 30881, Note_off_c, 0, 48, 127
1, 30900, Note_on_c, 0, 72, 127
1, 30900, Note_on_c, 5, 77, 127
1, 30900, Note_on_c, 5, 65, 127
1, 30900, Note_on_c, 10, 69, 127
1, 30900, Note_on_c, 5, 41, 127
1, 31168, Note_off_c, 5, 41, 127
1, 31198, Note_off_c, 10, 69, 127
1, 31198, Note_off_c, 5, 65, 127
1, 31204, Note_on_c, 10, 69, 127
1, 31204, Note_on_c, 5, 65, 127
1, 31481, Note_off_c, 5, 65, 127
1, 31481, Note_off_c, 10, 69, 127
1, 31493, Note_on_c, 5, 65, 127
1, 31493, Note_on_c, 10, 69, 127
1, 31603, Note_off_c, 5, 77, 127
1, 31603, Note_off_c, 0, 72, 127
1, 31759, Note_off_c, 10, 69, 127
1, 31759, Note_off_c, 5, 65, 127
1, 31764, Note_on_c, 5, 65, 127
1, 31764, Note_on_c, 10, 69, 127
1, 31764, Note_on_c, 0, 72, 127
1, 32033, Note_off_c, 0, 72, 127
1, 32033, Note_off_c, 10, 69, 127
1, 32033, Note_off_c, 5, 65, 127
1, 32036, Note_on_c, 5, 65, 127
1, 32036, Note_on_c, 11, 70, 127
1, 32036, Note_on_c, 2, 74, 127
1, 32169, Note_off_c, 2, 74, 127
1, 32172, Note_on_c, 0, 72, 127
1, 32304, Note_off_c, 11, 70, 127
1, 32304, Note_off_c, 5, 65, 127
1, 32305, Note_off_c, 0, 72, 127
1, 32307, Note_on_c, 11, 70, 127
1, 32307, Note_on_c, 5, 65, 127
1, 32307, Note_on_c, 2, 74, 127
1, 32576, Note_off_c, 5, 65, 127
1, 32576, Note_off_c, 11, 70, 127
1, 32579, Note_on_c, 11, 70, 127
1, 32579, Note_on_c, 5, 65, 127
1, 32712, Note_off_c, 2, 74, 127
1, 32714, Note_on_c, 5, 77, 127
1, 32847, Note_off_c, 5, 77, 127
1, 32847, Note_off_c, 5, 65, 127
1, 32847, Note_off_c, 11, 70, 127
1, 32850, Note_on_c, 11, 70, 127
1, 32850, Note_on_c, 5, 65, 127
1, 32850, Note_on_c, 3, 75, 127
1, 32983, Note_off_c, 3, 75, 127
1, 32985, Note_on_c, 2, 74, 127
1, 33118, Note_off_c, 2, 74, 127
1, 33118, Note_off_c, 5, 65, 127
1, 33118, Note_off_c, 11, 70, 127
1, 33121, Note_on_c, 5, 65, 127
1, 33121, Note_on_c, 11, 70, 127
1, 33121, Note_on_c, 0, 72, 127
1, 33254, Note_off_c, 0, 72, 127
1, 33256, Note_on_c, 4, 76, 127
1, 33389, Note_off_c, 4, 76, 127
1, 33389, Note_off_c, 11, 70, 127
1, 33389, Note_off_c, 5, 65, 127
1, 33392, Note_on_c, 11, 70, 127
1, 33392, Note_on_c, 5, 65, 127
1, 33392, Note_on_c, 5, 77, 127
1, 33661, Note_off_c, 5, 65, 127
1, 33661, Note_off_c, 11, 70, 127
1, 33664, Note_on_c, 10, 69, 127
1, 33664, Note_on_c, 5, 65, 127
1, 33797, Note_off_c, 5, 77, 127
1, 33799, Note_on_c, 4, 76, 127
1, 33932, Note_off_c, 4, 76, 127
1, 33932, Note_off_c, 5, 65, 127
1, 33932, Note_off_c, 10, 69, 127
1, 33934, Note_on_c, 5, 65, 127
1, 33934, Note_on_c, 10, 69, 127
1, 33934, Note_on_c, 2, 74, 127
1, 34067, Note_off_c, 2, 74, 127
1, 34070, Note_on_c, 0, 72, 127
1, 34202, Note_off_c, 10, 69, 127
1, 34202, Note_off_c, 5, 65, 127
1, 34203, Note_off_c, 0, 72, 127
1, 34205, Note_on_c, 5, 65, 127
1, 34205, Note_on_c, 7, 67, 127
1, 34205, Note_on_c, 11, 70, 127
1, 34338, Note_off_c, 11, 70, 127
1, 34341, Note_on_c, 10, 69, 127
1, 34473, Note_off_c, 7, 67, 127
1, 34473, Note_off_c, 5, 65, 127
1, 34474, Note_off_c, 10, 69, 127
1, 34476, Note_on_c, 7, 67, 127
1, 34476, Note_on_c, 5, 65, 127
1, 34476, Note_on_c, 11, 70, 127
1, 34609, Note_off_c, 11, 70, 127
1, 34612, Note_on_c, 2, 74, 127
1, 34744, Note_off_c, 5, 65, 127
1, 34744, Note_off_c, 7, 67, 127
1, 34745, Note_off_c, 2, 74, 127
1, 34747, Note_on_c, 4, 64, 127
1, 34747, Note_on_c, 7, 67, 127
1, 34747, Note_on_c, 7, 79, 127
1, 34998, Note_off_c, 7, 79, 127
1, 35014, Note_off_c, 7, 67, 127
1, 35014, Note_off_c, 4, 64, 127
1, 35019, Note_on_c, 4, 64, 127
1, 35019, Note_on_c, 7, 67, 127
1, 35019, Note_on_c, 11, 70, 127
1, 35288, Note_off_c, 11, 70, 127
1, 35288, Note_off_c, 7, 67, 127
1, 35288, Note_off_c, 4, 64, 127
1, 35291, Note_on_c, 5, 65, 127
1, 35291, Note_on_c, 7, 67, 127
1, 35291, Note_on_c, 0, 72, 127
1, 35356, Note_off_c, 0, 72, 127
1, 35358, Note_on_c, 11, 70, 127
1, 35423, Note_off_c, 11, 70, 127
1, 35425, Note_on_c, 0, 72, 127
1, 35490, Note_off_c, 0, 72, 127
1, 35493, Note_on_c, 11, 70, 127
1, 35557, Note_off_c, 7, 67, 127
1, 35557, Note_off_c, 5, 65, 127
1, 35558, Note_off_c, 11, 70, 127
1, 35560, Note_on_c, 5, 53, 127
1, 35560, Note_on_c, 5, 65, 127
1, 35560, Note_on_c, 10, 69, 127
1, 35693, Note_off_c, 5, 53, 127
1, 35695, Note_on_c, 7, 55, 127
1, 35827, Note_off_c, 5, 65, 127
1, 35828, Note_off_c, 7, 55, 127
1, 35831, Note_on_c, 10, 57, 127
1, 35954, Note_off_c, 10, 69, 127
1, 36100, Note_off_c, 10, 57, 127
1, 36103, Note_on_c, 5, 53, 127
1, 36103, Note_on_c, 5, 65, 127
1, 36103, Note_on_c, 10, 69, 127
1, 36372, Note_off_c, 10, 69, 127
1, 36372, Note_off_c, 5, 65, 127
1, 36372, Note_off_c, 5, 53, 127
1, 36375, Note_on_c, 0, 60, 127
1, 36375, Note_on_c, 5, 65, 127
1, 36375, Note_on_c, 7, 67, 127
1, 36508, Note_off_c, 7, 67, 127
1, 36510, Note_on_c, 11, 70, 127
1, 36643, Note_off_c, 11, 70, 127
1, 36643, Note_off_c, 5, 65, 127
1, 36643, Note_off_c, 0, 60, 127
1, 36646, Note_on_c, 4, 64, 127
1, 36646, Note_on_c, 0, 60, 127
1, 36646, Note_on_c, 11, 70, 127
1, 36779, Note_off_c, 11, 70, 127
1, 36781, Note_on_c, 10, 69, 127
1, 36914, Note_off_c, 10, 69, 127
1, 36914, Note_off_c, 0, 60, 127
1, 36914, Note_off_c, 4, 64, 127
1, 36916, Note_on_c, 0, 60, 127
1, 36916, Note_on_c, 5, 65, 127
1, 36916, Note_on_c, 10, 69, 127
1, 37049, Note_off_c, 10, 69, 127
1, 37052, Note_on_c, 5, 77, 127
1, 37184, Note_off_c, 5, 65, 127
1, 37184, Note_off_c, 0, 60, 127
1, 37185, Note_off_c, 5, 77, 127
1, 37187, Note_on_c, 10, 69, 127
1, 37187, Note_on_c, 0, 60, 127
1, 37187, Note_on_c, 5, 77, 127
1, 37320, Note_off_c, 5, 77, 127
1, 37323, Note_on_c, 4, 76, 127
1, 37455, Note_off_c, 0, 60, 127
1, 37455, Note_off_c, 10, 69, 127
1, 37456, Note_off_c, 4, 76, 127
1, 37458, Note_on_c, 7, 67, 127
1, 37458, Note_on_c, 0, 60, 127
1, 37458, Note_on_c, 4, 76, 127
1, 37591, Note_off_c, 4, 76, 127
1, 37594, Note_on_c, 2, 74, 127
1, 37726, Note_off_c, 0, 60, 127
1, 37726, Note_off_c, 7, 67, 127
1, 37727, Note_off_c, 2, 74, 127
1, 37729, Note_on_c, 0, 60, 127
1, 37729, Note_on_c, 5, 65, 127
1, 37729, Note_on_c, 2, 74, 127
1, 37862, Note_off_c, 2, 74, 127
1, 37865, Note_on_c, 0, 72, 127
1, 37997, Note_off_c, 5, 65, 127
1, 37997, Note_off_c, 0, 60, 127
1, 37998, Note_off_c, 0, 72, 127
1, 38000, Note_on_c, 0, 60, 127
1, 38000, Note_on_c, 4, 64, 127
1, 38000, Note_on_c, 0, 72, 127
1, 38133, Note_off_c, 0, 72, 127
1, 38136, Note_on_c, 11, 70, 127
1, 38268, Note_off_c, 4, 64, 127
1, 38268, Note_off_c, 0, 60, 127
1, 38269, Note_off_c, 11, 70, 127
1, 38271, Note_on_c, 0, 60, 127
1, 38271, Note_on_c, 5, 65, 127
1, 38271, Note_on_c, 11, 70, 127
1, 38404, Note_off_c, 11, 70, 127
1, 38406, Note_on_c, 10, 69, 127
1, 38539, Note_off_c, 10, 69, 127
1, 38539, Note_off_c, 5, 65, 127
1, 38539, Note_off_c, 0, 60, 127
1, 38550, Note_on_c, 5, 65, 127
1, 38550, Note_on_c, 0, 60, 127
1, 38550, Note_on_c, 7, 67, 127
1, 38685, Note_off_c, 7, 67, 127
1, 38688, Note_on_c, 11, 70, 127
1, 38823, Note_off_c, 11, 70, 127
1, 38823, Note_off_c, 0, 60, 127
1, 38823, Note_off_c, 5, 65, 127
1, 38825, Note_on_c, 4, 64, 127
1, 38825, Note_on_c, 0, 60, 127
1, 38825, Note_on_c, 0, 72, 127
1, 38891, Note_off_c, 0, 72, 127
1, 38894, Note_on_c, 11, 70, 127
1, 38960, Note_off_c, 11, 70, 127
1, 38962, Note_on_c, 10, 69, 127
1, 39097, Note_off_c, 10, 69, 127
1, 39097, Note_off_c, 0, 60, 127
1, 39097, Note_off_c, 4, 64, 127
1, 39099, Note_on_c, 0, 60, 127
1, 39099, Note_on_c, 5, 65, 127
1, 39099, Note_on_c, 10, 69, 127
1, 39234, Note_off_c, 10, 69, 127
1, 39237, Note_on_c, 5, 77, 127
1, 39372, Note_off_c, 5, 77, 127
1, 39372, Note_off_c, 5, 65, 127
1, 39372, Note_off_c, 0, 60, 127
1, 39375, Note_on_c, 0, 60, 127
1, 39375, Note_on_c, 10, 69, 127
1, 39375, Note_on_c, 7, 79, 127
1, 39464, Note_off_c, 7, 79, 127
1, 39466, Note_on_c, 5, 77, 127
1, 39555, Note_off_c, 5, 77, 127
1, 39557, Note_on_c, 4, 76, 127
1, 39646, Note_off_c, 4, 76, 127
1, 39647, Note_off_c, 10, 69, 127
1, 39647, Note_off_c, 0, 60, 127
1, 39649, Note_on_c, 7, 67, 127
1, 39649, Note_on_c, 0, 60, 127
1, 39649, Note_on_c, 5, 77, 127
1, 39738, Note_off_c, 5, 77, 127
1, 39740, Note_on_c, 4, 76, 127
1, 39829, Note_off_c, 4, 76, 127
1, 39831, Note_on_c, 2, 74, 127
1, 39920, Note_off_c, 2, 74, 127
1, 39921, Note_off_c, 0, 60, 127
1, 39921, Note_off_c, 7, 67, 127
1, 39923, Note_on_c, 5, 65, 127
1, 39923, Note_on_c, 0, 60, 127
1, 39923, Note_on_c, 4, 76, 127
1, 40012, Note_off_c, 4, 76, 127
1, 40014, Note_on_c, 2, 74, 127
1, 40103, Note_off_c, 2, 74, 127
1, 40105, Note_on_c, 0, 72, 127
1, 40194, Note_off_c, 0, 72, 127
1, 40195, Note_off_c, 0, 60, 127
1, 40195, Note_off_c, 5, 65, 127
1, 40197, Note_on_c, 4, 64, 127
1, 40197, Note_on_c, 0, 60, 127
1, 40197, Note_on_c, 2, 74, 127
1, 40286, Note_off_c, 2, 74, 127
1, 40288, Note_on_c, 0, 72, 127
1, 40377, Note_off_c, 0, 72, 127
1, 40379, Note_on_c, 11, 70, 127
1, 40468, Note_off_c, 11, 70, 127
1, 40469, Note_off_c, 0, 60, 127
1, 40469, Note_off_c, 4, 64, 127
1, 40471, Note_on_c, 0, 60, 127
1, 40471, Note_on_c, 7, 67, 127
1, 40471, Note_on_c, 0, 72, 127
1, 40560, Note_off_c, 0, 72, 127
1, 40562, Note_on_c, 11, 70, 127
1, 40651, Note_off_c, 11, 70, 127
1, 40653, Note_on_c, 10, 69, 127
1, 40742, Note_off_c, 10, 69, 127
1, 40743, Note_off_c, 7, 67, 127
1, 40743, Note_off_c, 0, 60, 127
1, 40753, Note_on_c, 5, 65, 127
1, 40753, Note_on_c, 0, 60, 127
1, 40753, Note_on_c, 11, 70, 127
1, 40841, Note_off_c, 11, 70, 127
1, 40843, Note_on_c, 10, 69, 127
1, 40931, Note_off_c, 10, 69, 127
1, 40934, Note_on_c, 7, 67, 127
1, 41021, Note_off_c, 0, 60, 127
1, 41021, Note_off_c, 5, 65, 127
1, 41022, Note_off_c, 7, 67, 127
1, 41024, Note_on_c, 5, 65, 127
1, 41024, Note_on_c, 0, 60, 127
1, 41024, Note_on_c, 10, 69, 127
1, 41293, Note_off_c, 0, 60, 127
1, 41293, Note_off_c, 5, 65, 127
1, 41296, Note_on_c, 0, 60, 127
1, 41296, Note_on_c, 5, 65, 127
1, 41429, Note_off_c, 10, 69, 127
1, 41431, Note_on_c, 0, 72, 127
1, 41564, Note_off_c, 0, 72, 127
1, 41564, Note_off_c, 5, 65, 127
1, 41564, Note_off_c, 0, 60, 127
1, 41567, Note_on_c, 0, 60, 127
1, 41567, Note_on_c, 5, 65, 127
1, 41567, Note_on_c, 11, 70, 127
1, 41700, Note_off_c, 11, 70, 127
1, 41702, Note_on_c, 10, 69, 127
1, 41835, Note_off_c, 10, 69, 127
1, 41835, Note_off_c, 5, 65, 127
1, 41835, Note_off_c, 0, 60, 127
1, 41838, Note_on_c, 5, 65, 127
1, 41838, Note_on_c, 0, 60, 127
1, 41838, Note_on_c, 7, 67, 127
1, 41971, Note_off_c, 7, 67, 127
1, 41973, Note_on_c, 12, 71, 127
1, 42106, Note_off_c, 12, 71, 127
1, 42106, Note_off_c, 0, 60, 127
1, 42106, Note_off_c, 5, 65, 127
1, 42109, Note_on_c, 5, 65, 127
1, 42109, Note_on_c, 0, 60, 127
1, 42109, Note_on_c, 0, 72, 127
1, 42378, Note_off_c, 0, 60, 127
1, 42378, Note_off_c, 5, 65, 127
1, 42381, Note_on_c, 4, 64, 127
1, 42381, Note_on_c, 0, 60, 127
1, 42514, Note_off_c, 0, 72, 127
1, 42516, Note_on_c, 12, 71, 127
1, 42649, Note_off_c, 12, 71, 127
1, 42649, Note_off_c, 0, 60, 127
1, 42649, Note_off_c, 4, 64, 127
1, 42652, Note_on_c, 4, 64, 127
1, 42652, Note_on_c, 0, 60, 127
1, 42652, Note_on_c, 10, 69, 127
1, 42785, Note_off_c, 10, 69, 127
1, 42787, Note_on_c, 7, 67, 127
1, 42920, Note_off_c, 7, 67, 127
1, 42920, Note_off_c, 0, 60, 127
1, 42920, Note_off_c, 4, 64, 127
1, 42922, Note_on_c, 2, 62, 127
1, 42922, Note_on_c, 0, 60, 127
1, 42922, Note_on_c, 5, 65, 127
1, 43055, Note_off_c, 5, 65, 127
1, 43058, Note_on_c, 4, 64, 127
1, 43190, Note_off_c, 0, 60, 127
1, 43190, Note_off_c, 2, 62, 127
1, 43191, Note_off_c, 4, 64, 127
1, 43193, Note_on_c, 2, 62, 127
1, 43193, Note_on_c, 0, 60, 127
1, 43193, Note_on_c, 5, 65, 127
1, 43326, Note_off_c, 5, 65, 127
1, 43329, Note_on_c, 10, 69, 127
1, 43461, Note_off_c, 0, 60, 127
1, 43461, Note_off_c, 2, 62, 127
1, 43462, Note_off_c, 10, 69, 127
1, 43464, Note_on_c, 2, 62, 127
1, 43464, Note_on_c, 12, 59, 127
1, 43464, Note_on_c, 2, 74, 127
1, 43733, Note_off_c, 2, 74, 127
1, 43733, Note_off_c, 12, 59, 127
1, 43733, Note_off_c, 2, 62, 127
1, 43736, Note_on_c, 12, 59, 127
1, 43736, Note_on_c, 2, 62, 127
1, 43736, Note_on_c, 5, 65, 127
1, 44005, Note_off_c, 5, 65, 127
1, 44005, Note_off_c, 2, 62, 127
1, 44005, Note_off_c, 12, 59, 127
1, 44008, Note_on_c, 0, 60, 127
1, 44008, Note_on_c, 2, 62, 127
1, 44008, Note_on_c, 7, 67, 127
1, 44073, Note_off_c, 7, 67, 127
1, 44075, Note_on_c, 5, 65, 127
1, 44140, Note_off_c, 5, 65, 127
1, 44143, Note_on_c, 7, 67, 127
1, 44208, Note_off_c, 7, 67, 127
1, 44210, Note_on_c, 5, 65, 127
1, 44274, Note_off_c, 2, 62, 127
1, 44274, Note_off_c, 0, 60, 127
1, 44275, Note_off_c, 5, 65, 127
1, 44277, Note_on_c, 0, 48, 127
1, 44277, Note_on_c, 0, 60, 127
1, 44277, Note_on_c, 4, 64, 127
1, 44410, Note_off_c, 0, 48, 127
1, 44412, Note_on_c, 2, 50, 127
1, 44544, Note_off_c, 4, 64, 127
1, 44544, Note_off_c, 0, 60, 127
1, 44545, Note_off_c, 2, 50, 127
1, 44548, Note_on_c, 4, 52, 127
1, 44683, Note_on_c, 0, 72, 127
1, 44816, Note_off_c, 0, 72, 127
1, 44816, Note_off_c, 4, 52, 127
1, 44819, Note_on_c, 0, 48, 127
1, 44819, Note_on_c, 2, 74, 127
1, 44952, Note_off_c, 2, 74, 127
1, 44954, Note_on_c, 4, 76, 127
1, 45087, Note_off_c, 4, 76, 127
1, 45087, Note_off_c, 0, 48, 127
1, 45090, Note_on_c, 5, 53, 127
1, 45090, Note_on_c, 10, 69, 127
1, 45223, Note_off_c, 10, 69, 127
1, 45225, Note_on_c, 7, 55, 127
1, 45225, Note_on_c, 4, 64, 127
1, 45358, Note_off_c, 4, 64, 127
1, 45358, Note_off_c, 7, 55, 127
1, 45361, Note_on_c, 10, 57, 127
1, 45361, Note_on_c, 5, 65, 127
1, 45494, Note_off_c, 5, 65, 127
1, 45494, Note_off_c, 10, 57, 127
1, 45496, Note_on_c, 0, 60, 127
1, 45496, Note_on_c, 10, 69, 127
1, 45625, Note_off_c, 5, 53, 127
1, 45629, Note_off_c, 10, 69, 127
1, 45629, Note_off_c, 0, 60, 127
1, 45631, Note_on_c, 5, 65, 127
1, 45631, Note_on_c, 2, 74, 127
1, 45764, Note_off_c, 2, 74, 127
1, 45767, Note_on_c, 2, 74, 127
1, 45899, Note_off_c, 5, 65, 127
1, 45900, Note_off_c, 2, 74, 127
1, 45902, Note_on_c, 2, 50, 127
1, 45902, Note_on_c, 4, 76, 127
1, 46035, Note_off_c, 4, 76, 127
1, 46038, Note_on_c, 5, 77, 127
1, 46170, Note_off_c, 2, 50, 127
1, 46171, Note_off_c, 5, 77, 127
1, 46173, Note_on_c, 7, 55, 127
1, 46173, Note_on_c, 12, 71, 127
1, 46306, Note_off_c, 12, 71, 127
1, 46309, Note_on_c, 10, 57, 127
1, 46309, Note_on_c, 6, 66, 127
1, 46442, Note_off_c, 6, 66, 127
1, 46442, Note_off_c, 10, 57, 127
1, 46444, Note_on_c, 12, 59, 127
1, 46444, Note_on_c, 7, 67, 127
1, 46577, Note_off_c, 7, 67, 127
1, 46577, Note_off_c, 12, 59, 127
1, 46580, Note_on_c, 2, 62, 127
1, 46580, Note_on_c, 12, 71, 127
1, 46708, Note_off_c, 7, 55, 127
1, 46713, Note_off_c, 12, 71, 127
1, 46713, Note_off_c, 2, 62, 127
1, 46715, Note_on_c, 7, 67, 127
1, 46715, Note_on_c, 4, 76, 127
1, 46848, Note_off_c, 4, 76, 127
1, 46851, Note_on_c, 4, 76, 127
1, 46983, Note_off_c, 7, 67, 127
1, 46984, Note_off_c, 4, 76, 127
1, 46986, Note_on_c, 4, 52, 127
1, 46986, Note_on_c, 5, 77, 127
1, 47119, Note_off_c, 5, 77, 127
1, 47121, Note_on_c, 7, 79, 127
1, 47254, Note_off_c, 7, 79, 127
1, 47254, Note_off_c, 4, 52, 127
1, 47257, Note_on_c, 10, 57, 127
1, 47257, Note_on_c, 0, 72, 127
1, 47390, Note_off_c, 0, 72, 127
1, 47392, Note_on_c, 12, 59, 127
1, 47392, Note_on_c, 8, 68, 127
1, 47525, Note_off_c, 8, 68, 127
1, 47525, Note_off_c, 12, 59, 127
1, 47528, Note_on_c, 0, 60, 127
1, 47528, Note_on_c, 10, 69, 127
1, 47661, Note_off_c, 10, 69, 127
1, 47661, Note_off_c, 0, 60, 127
1, 47663, Note_on_c, 4, 64, 127
1, 47663, Note_on_c, 0, 72, 127
1, 47792, Note_off_c, 10, 57, 127
1, 47796, Note_off_c, 0, 72, 127
1, 47796, Note_off_c, 4, 64, 127
1, 47799, Note_on_c, 10, 69, 127
1, 47799, Note_on_c, 6, 78, 127
1, 47932, Note_off_c, 6, 78, 127
1, 47934, Note_on_c, 6, 78, 127
1, 48067, Note_off_c, 6, 78, 127
1, 48067, Note_off_c, 10, 69, 127
1, 48070, Note_on_c, 10, 57, 127
1, 48070, Note_on_c, 0, 60, 127
1, 48070, Note_on_c, 7, 79, 127
1, 48203, Note_off_c, 7, 79, 127
1, 48205, Note_on_c, 10, 81, 127
1, 48338, Note_off_c, 10, 81, 127
1, 48338, Note_off_c, 0, 60, 127
1, 48338, Note_off_c, 10, 57, 127
1, 48349, Note_on_c, 2, 62, 127
1, 48349, Note_on_c, 12, 59, 127
1, 48349, Note_on_c, 10, 81, 127
1, 48414, Note_off_c, 10, 81, 127
1, 48416, Note_on_c, 7, 79, 127
1, 48481, Note_off_c, 7, 79, 127
1, 48483, Note_on_c, 6, 78, 127
1, 48616, Note_off_c, 6, 78, 127
1, 48616, Note_off_c, 12, 59, 127
1, 48616, Note_off_c, 2, 62, 127
1, 48619, Note_on_c, 12, 59, 127
1, 48619, Note_on_c, 7, 55, 127
1, 48619, Note_on_c, 7, 79, 127
1, 48888, Note_off_c, 7, 55, 127
1, 48888, Note_off_c, 12, 59, 127
1, 48891, Note_on_c, 12, 59, 127
1, 48891, Note_on_c, 2, 62, 127
1, 49024, Note_off_c, 7, 79, 127
1, 49026, Note_on_c, 7, 67, 127
1, 49159, Note_off_c, 7, 67, 127
1, 49159, Note_off_c, 2, 62, 127
1, 49159, Note_off_c, 12, 59, 127
1, 49162, Note_on_c, 5, 65, 127
1, 49162, Note_on_c, 2, 62, 127
1, 49162, Note_on_c, 12, 71, 127
1, 49295, Note_off_c, 12, 71, 127
1, 49297, Note_on_c, 2, 74, 127
1, 49430, Note_off_c, 2, 74, 127
1, 49430, Note_off_c, 2, 62, 127
1, 49430, Note_off_c, 5, 65, 127
1, 49432, Note_on_c, 2, 62, 127
1, 49432, Note_on_c, 12, 59, 127
1, 49432, Note_on_c, 7, 79, 127
1, 49497, Note_off_c, 7, 79, 127
1, 49500, Note_on_c, 5, 77, 127
1, 49565, Note_off_c, 5, 77, 127
1, 49567, Note_on_c, 4, 76, 127
1, 49699, Note_off_c, 12, 59, 127
1, 49699, Note_off_c, 2, 62, 127
1, 49700, Note_off_c, 4, 76, 127
1, 49702, Note_on_c, 7, 55, 127
1, 49702, Note_on_c, 12, 59, 127
1, 49702, Note_on_c, 5, 77, 127
1, 49971, Note_off_c, 12, 59, 127
1, 49971, Note_off_c, 7, 55, 127
1, 49974, Note_on_c, 12, 59, 127
1, 49974, Note_on_c, 2, 62, 127
1, 50107, Note_off_c, 5, 77, 127
1, 50110, Note_on_c, 7, 67, 127
1, 50242, Note_off_c, 2, 62, 127
1, 50242, Note_off_c, 12, 59, 127
1, 50243, Note_off_c, 7, 67, 127
1, 50245, Note_on_c, 2, 62, 127
1, 50245, Note_on_c, 5, 65, 127
1, 50245, Note_on_c, 12, 71, 127
1, 50378, Note_off_c, 12, 71, 127
1, 50381, Note_on_c, 2, 74, 127
1, 50513, Note_off_c, 5, 65, 127
1, 50513, Note_off_c, 2, 62, 127
1, 50514, Note_off_c, 2, 74, 127
1, 50516, Note_on_c, 7, 67, 127
1, 50516, Note_on_c, 0, 60, 127
1, 50516, Note_on_c, 5, 77, 127
1, 50581, Note_off_c, 5, 77, 127
1, 50583, Note_on_c, 4, 76, 127
1, 50648, Note_off_c, 4, 76, 127
1, 50648, Note_off_c, 7, 67, 127
1, 50650, Note_on_c, 5, 65, 127
1, 50650, Note_on_c, 2, 74, 127
1, 50783, Note_off_c, 2, 74, 127
1, 50783, Note_off_c, 5, 65, 127
1, 50786, Note_on_c, 4, 64, 127
1, 50786, Note_on_c, 4, 76, 127
1, 50909, Note_off_c, 0, 60, 127
1, 50919, Note_off_c, 4, 64, 127
1, 50921, Note_on_c, 2, 62, 127
1, 51054, Note_off_c, 2, 62, 127
1, 51057, Note_on_c, 0, 60, 127
1, 51190, Note_off_c, 0, 60, 127
1, 51190, Note_off_c, 4, 76, 127
1, 51192, Note_on_c, 12, 59, 127
1, 51192, Note_on_c, 7, 67, 127
1, 51325, Note_off_c, 7, 67, 127
1, 51325, Note_off_c, 12, 59, 127
1, 51328, Note_on_c, 10, 57, 127
1, 51328, Note_on_c, 0, 72, 127
1, 51461, Note_off_c, 0, 72, 127
1, 51461, Note_off_c, 10, 57, 127
1, 51463, Note_on_c, 7, 55, 127
1, 51463, Note_on_c, 2, 74, 127
1, 51596, Note_off_c, 2, 74, 127
1, 51596, Note_off_c, 7, 55, 127
1, 51599, Note_on_c, 6, 54, 127
1, 51599, Note_on_c, 3, 75, 127
1, 51732, Note_off_c, 6, 54, 127
1, 51734, Note_on_c, 4, 52, 127
1, 51734, Note_on_c, 0, 72, 127
1, 51801, Note_off_c, 3, 75, 127
1, 51867, Note_off_c, 0, 72, 127
1, 51867, Note_off_c, 4, 52, 127
1, 51870, Note_on_c, 2, 50, 127
1, 51870, Note_on_c, 12, 71, 127
1, 52003, Note_off_c, 12, 71, 127
1, 52003, Note_off_c, 2, 50, 127
1, 52005, Note_on_c, 0, 48, 127
1, 52005, Note_on_c, 0, 72, 127
1, 52138, Note_off_c, 0, 72, 127
1, 52138, Note_off_c, 0, 48, 127
1, 52140, Note_on_c, 12, 47, 127
1, 52140, Note_on_c, 6, 78, 127
1, 52273, Note_off_c, 6, 78, 127
1, 52273, Note_off_c, 12, 47, 127
1, 52276, Note_on_c, 10, 45, 127
1, 52276, Note_on_c, 0, 72, 127
1, 52409, Note_off_c, 0, 72, 127
1, 52409, Note_off_c, 10, 45, 127
1, 52411, Note_on_c, 7, 43, 127
1, 52411, Note_on_c, 10, 81, 127
1, 52544, Note_off_c, 10, 81, 127
1, 52544, Note_off_c, 7, 43, 127
1, 52547, Note_on_c, 6, 42, 127
1, 52547, Note_on_c, 0, 72, 127
1, 52680, Note_off_c, 0, 72, 127
1, 52680, Note_off_c, 6, 42, 127
1, 52682, Note_on_c, 7, 43, 127
1, 52682, Note_on_c, 12, 71, 127
1, 52818, Note_on_c, 5, 65, 127
1, 52884, Note_off_c, 12, 71, 127
1, 52951, Note_off_c, 5, 65, 127
1, 52953, Note_on_c, 2, 50, 127
1, 52953, Note_on_c, 4, 64, 127
1, 53086, Note_off_c, 4, 64, 127
1, 53089, Note_on_c, 5, 65, 127
1, 53217, Note_off_c, 7, 43, 127
1, 53221, Note_off_c, 2, 50, 127
1, 53222, Note_off_c, 5, 65, 127
1, 53224, Note_on_c, 7, 55, 127
1, 53224, Note_on_c, 12, 71, 127
1, 53357, Note_off_c, 12, 71, 127
1, 53359, Note_on_c, 5, 65, 127
1, 53492, Note_off_c, 5, 65, 127
1, 53495, Note_on_c, 12, 47, 127
1, 53495, Note_on_c, 2, 74, 127
1, 53628, Note_off_c, 2, 74, 127
1, 53630, Note_on_c, 5, 65, 127
1, 53763, Note_off_c, 5, 65, 127
1, 53763, Note_off_c, 12, 47, 127
1, 53766, Note_on_c, 0, 48, 127
1, 53766, Note_on_c, 4, 64, 127
1, 53903, Note_on_c, 7, 67, 127
1, 54036, Note_off_c, 4, 64, 127
1, 54037, Note_off_c, 7, 67, 127
1, 54037, Note_off_c, 7, 55, 127
1, 54038, Note_off_c, 0, 48, 127
1, 54040, Note_on_c, 4, 40, 127
1, 54040, Note_on_c, 0, 48, 127
1, 54040, Note_on_c, 0, 72, 127
1, 54175, Note_off_c, 0, 72, 127
1, 54177, Note_on_c, 7, 79, 127
1, 54312, Note_off_c, 7, 79, 127
1, 54313, Note_off_c, 4, 40, 127
1, 54315, Note_on_c, 5, 41, 127
1, 54315, Note_on_c, 5, 77, 127
1, 54450, Note_off_c, 5, 77, 127
1, 54453, Note_on_c, 4, 76, 127
1, 54582, Note_off_c, 0, 48, 127
1, 54587, Note_off_c, 4, 76, 127
1, 54587, Note_off_c, 5, 41, 127
1, 54589, Note_on_c, 12, 47, 127
1, 54589, Note_on_c, 7, 43, 127
1, 54589, Note_on_c, 2, 74, 127
1, 54724, Note_off_c, 2, 74, 127
1, 54727, Note_on_c, 0, 72, 127
1, 54862, Note_off_c, 0, 72, 127
1, 54862, Note_off_c, 7, 43, 127
1, 54862, Note_off_c, 12, 47, 127
1, 54864, Note_on_c, 0, 48, 127
1, 54864, Note_on_c, 0, 72, 127
1, 54939, Note_off_c, 0, 72, 127
1, 54941, Note_on_c, 12, 71, 127
1, 55006, Note_off_c, 12, 71, 127
1, 55015, Note_on_c, 0, 72, 127
1, 55015, Note_on_c, 0, 60, 127
1, 55065, Note_off_c, 0, 48, 127
1, 55148, Note_off_c, 0, 60, 127
1, 55151, Note_on_c, 12, 59, 127
1, 55284, Note_off_c, 12, 59, 127
1, 55286, Note_on_c, 10, 57, 127
1, 55419, Note_off_c, 10, 57, 127
1, 55422, Note_on_c, 7, 55, 127
1, 55550, Note_off_c, 0, 72, 127
1, 55555, Note_off_c, 7, 55, 127
1, 55557, Note_on_c, 5, 53, 127
1, 55690, Note_off_c, 5, 53, 127
1, 55693, Note_on_c, 4, 52, 127
1, 55826, Note_off_c, 4, 52, 127
1, 55828, Note_on_c, 2, 50, 127
1, 55961, Note_off_c, 2, 50, 127
1, 55963, Note_on_c, 0, 48, 127
1, 56096, Note_off_c, 0, 48, 127
1, 56099, Note_on_c, 0, 48, 127
1, 56232, Note_off_c, 0, 48, 127
1, 56234, Note_on_c, 0, 72, 127
1, 56234, Note_on_c, 12, 47, 127
1, 56367, Note_off_c, 12, 47, 127
1, 56370, Note_on_c, 10, 45, 127
1, 56502, Note_off_c, 0, 72, 127
1, 56503, Note_off_c, 10, 45, 127
1, 56505, Note_on_c, 4, 64, 127
1, 56505, Note_on_c, 0, 60, 127
1, 56505, Note_on_c, 7, 43, 127
1, 56638, Note_off_c, 7, 43, 127
1, 56641, Note_on_c, 5, 41, 127
1, 56765, Note_off_c, 0, 60, 127
1, 56765, Note_off_c, 4, 64, 127
1, 56774, Note_off_c, 5, 41, 127
1, 56776, Note_on_c, 5, 65, 127
1, 56776, Note_on_c, 2, 62, 127
1, 56776, Note_on_c, 4, 40, 127
1, 56909, Note_off_c, 4, 40, 127
1, 56912, Note_on_c, 2, 38, 127
1, 57036, Note_off_c, 2, 62, 127
1, 57036, Note_off_c, 5, 65, 127
1, 57045, Note_off_c, 2, 38, 127
1, 57047, Note_on_c, 4, 64, 127
1, 57047, Note_on_c, 7, 67, 127
1, 57047, Note_on_c, 0, 36, 127
1, 57235, Note_off_c, 0, 36, 127
1, 57319, Note_on_c, 0, 60, 127
1, 57588, Note_off_c, 0, 60, 127
1, 57588, Note_off_c, 7, 67, 127
1, 57588, Note_off_c, 4, 64, 127
1, 57591, Note_on_c, 5, 65, 127
1, 57591, Note_on_c, 10, 69, 127
1, 57591, Note_on_c, 10, 57, 127
1, 57860, Note_off_c, 10, 57, 127
1, 57863, Note_on_c, 5, 53, 127
1, 58132, Note_off_c, 5, 53, 127
1, 58132, Note_off_c, 10, 69, 127
1, 58132, Note_off_c, 5, 65, 127
1, 58135, Note_on_c, 7, 67, 127
1, 58135, Note_on_c, 4, 64, 127
1, 58135, Note_on_c, 0, 48, 127
1, 58268, Note_off_c, 7, 67, 127
1, 58270, Note_on_c, 10, 69, 127
1, 58403, Note_off_c, 10, 69, 127
1, 58406, Note_on_c, 11, 70, 127
1, 58406, Note_on_c, 7, 43, 127
1, 58675, Note_off_c, 7, 43, 127
1, 58678, Note_on_c, 4, 40, 127
1, 58947, Note_off_c, 4, 40, 127
1, 58947, Note_off_c, 11, 70, 127
1, 58950, Note_on_c, 10, 69, 127
1, 58950, Note_on_c, 0, 36, 127
1, 59083, Note_off_c, 10, 69, 127
1, 59085, Note_on_c, 7, 67, 127
1, 59218, Note_off_c, 7, 67, 127
1, 59218, Note_off_c, 0, 36, 127
1, 59218, Note_off_c, 0, 48, 127
1, 59218, Note_off_c, 4, 64, 127
1, 59221, Note_on_c, 10, 69, 127
1, 59221, Note_on_c, 5, 41, 127
1, 59356, Note_on_c, 5, 65, 127
1, 59489, Note_off_c, 5, 65, 127
1, 59491, Note_on_c, 4, 64, 127
1, 59624, Note_off_c, 4, 64, 127
1, 59627, Note_on_c, 2, 62, 127
1, 59756, Note_off_c, 10, 69, 127
1, 59760, Note_off_c, 2, 62, 127
1, 59762, Note_on_c, 0, 60, 127
1, 59895, Note_off_c, 0, 60, 127
1, 59896, Note_off_c, 5, 41, 127
1, 59898, Note_on_c, 11, 58, 127
1, 60031, Note_off_c, 11, 58, 127
1, 60033, Note_on_c, 10, 57, 127
1, 60166, Note_off_c, 10, 57, 127
1, 60169, Note_on_c, 7, 55, 127
1, 60302, Note_off_c, 7, 55, 127
1, 60304, Note_on_c, 5, 53, 127
1, 60437, Note_off_c, 5, 53, 127
1, 60440, Note_on_c, 5, 53, 127
1, 60573, Note_off_c, 5, 53, 127
1, 60575, Note_on_c, 5, 77, 127
1, 60575, Note_on_c, 4, 52, 127
1, 60708, Note_off_c, 4, 52, 127
1, 60711, Note_on_c, 2, 50, 127
1, 60843, Note_off_c, 5, 77, 127
1, 60844, Note_off_c, 2, 50, 127
1, 60846, Note_on_c, 5, 65, 127
1, 60846, Note_on_c, 10, 69, 127
1, 60846, Note_on_c, 0, 48, 127
1, 60979, Note_off_c, 0, 48, 127
1, 60981, Note_on_c, 11, 46, 127
1, 61106, Note_off_c, 10, 69, 127
1, 61106, Note_off_c, 5, 65, 127
1, 61114, Note_off_c, 11, 46, 127
1, 61117, Note_on_c, 7, 67, 127
1, 61117, Note_on_c, 11, 70, 127
1, 61117, Note_on_c, 10, 45, 127
1, 61250, Note_off_c, 10, 45, 127
1, 61252, Note_on_c, 7, 43, 127
1, 61377, Note_off_c, 11, 70, 127
1, 61377, Note_off_c, 7, 67, 127
1, 61385, Note_off_c, 7, 43, 127
1, 61388, Note_on_c, 10, 69, 127
1, 61388, Note_on_c, 0, 72, 127
1, 61388, Note_on_c, 5, 41, 127
1, 61618, Note_off_c, 5, 41, 127
1, 61660, Note_on_c, 5, 65, 127
1, 61929, Note_off_c, 5, 65, 127
1, 61929, Note_off_c, 0, 72, 127
1, 61929, Note_off_c, 10, 69, 127
1, 61932, Note_on_c, 11, 70, 127
1, 61932, Note_on_c, 2, 74, 127
1, 61932, Note_on_c, 2, 62, 127
1, 62201, Note_off_c, 2, 62, 127
1, 62204, Note_on_c, 11, 58, 127
1, 62473, Note_off_c, 11, 58, 127
1, 62473, Note_off_c, 2, 74, 127
1, 62473, Note_off_c, 11, 70, 127
1, 62476, Note_on_c, 10, 69, 127
1, 62476, Note_on_c, 0, 72, 127
1, 62476, Note_on_c, 5, 53, 127
1, 62609, Note_off_c, 0, 72, 127
1, 62611, Note_on_c, 2, 74, 127
1, 62744, Note_off_c, 2, 74, 127
1, 62746, Note_on_c, 3, 75, 127
1, 62746, Note_on_c, 0, 48, 127
1, 63015, Note_off_c, 0, 48, 127
1, 63018, Note_on_c, 10, 45, 127
1, 63287, Note_off_c, 10, 45, 127
1, 63287, Note_off_c, 3, 75, 127
1, 63290, Note_on_c, 2, 74, 127
1, 63290, Note_on_c, 5, 41, 127
1, 63423, Note_off_c, 2, 74, 127
1, 63426, Note_on_c, 0, 72, 127
1, 63558, Note_off_c, 5, 41, 127
1, 63559, Note_off_c, 0, 72, 127
1, 63559, Note_off_c, 5, 53, 127
1, 63559, Note_off_c, 10, 69, 127
1, 63561, Note_on_c, 2, 74, 127
1, 63561, Note_on_c, 11, 46, 127
1, 63697, Note_on_c, 11, 70, 127
1, 63830, Note_off_c, 11, 70, 127
1, 63832, Note_on_c, 10, 69, 127
1, 63965, Note_off_c, 10, 69, 127
1, 63968, Note_on_c, 7, 67, 127
1, 64096, Note_off_c, 11, 46, 127
1, 64096, Note_off_c, 2, 74, 127
1, 64101, Note_off_c, 7, 67, 127
1, 64103, Note_on_c, 5, 65, 127
1, 64236, Note_off_c, 5, 65, 127
1, 64239, Note_on_c, 3, 63, 127
1, 64372, Note_off_c, 3, 63, 127
1, 64374, Note_on_c, 2, 62, 127
1, 64507, Note_off_c, 2, 62, 127
1, 64509, Note_on_c, 0, 60, 127
1, 64642, Note_off_c, 0, 60, 127
1, 64645, Note_on_c, 11, 58, 127
1, 64780, Note_on_c, 2, 74, 127
1, 64875, Note_off_c, 11, 58, 127
1, 64913, Note_off_c, 2, 74, 127
1, 64916, Note_on_c, 1, 73, 127
1, 64916, Note_on_c, 7, 67, 127
1, 65049, Note_off_c, 1, 73, 127
1, 65051, Note_on_c, 2, 74, 127
1, 65184, Note_off_c, 2, 74, 127
1, 65187, Note_on_c, 11, 82, 127
1, 65320, Note_off_c, 7, 67, 127
1, 65322, Note_on_c, 11, 58, 127
1, 65426, Note_off_c, 11, 82, 127
1, 65455, Note_off_c, 11, 58, 127
1, 65458, Note_on_c, 2, 74, 127
1, 65458, Note_on_c, 10, 57, 127
1, 65591, Note_off_c, 10, 57, 127
1, 65593, Note_on_c, 7, 55, 127
1, 65726, Note_off_c, 7, 55, 127
1, 65728, Note_on_c, 10, 57, 127
1, 65862, Note_off_c, 2, 74, 127
1, 65864, Note_on_c, 1, 73, 127
1, 65958, Note_off_c, 10, 57, 127
1, 65997, Note_off_c, 1, 73, 127
1, 65999, Note_on_c, 12, 71, 127
1, 65999, Note_on_c, 5, 65, 127
1, 66132, Note_off_c, 12, 71, 127
1, 66135, Note_on_c, 1, 73, 127
1, 66268, Note_off_c, 1, 73, 127
1, 66270, Note_on_c, 10, 81, 127
1, 66403, Note_off_c, 5, 65, 127
1, 66406, Note_on_c, 10, 57, 127
1, 66509, Note_off_c, 10, 81, 127
1, 66539, Note_off_c, 10, 57, 127
1, 66541, Note_on_c, 0, 72, 127
1, 66541, Note_on_c, 7, 55, 127
1, 66674, Note_off_c, 7, 55, 127
1, 66677, Note_on_c, 5, 53, 127
1, 66810, Note_off_c, 5, 53, 127
1, 66812, Note_on_c, 7, 55, 127
1, 66945, Note_off_c, 0, 72, 127
1, 66948, Note_on_c, 12, 71, 127
1, 67042, Note_off_c, 7, 55, 127
1, 67081, Note_off_c, 12, 71, 127
1, 67083, Note_on_c, 10, 69, 127
1, 67083, Note_on_c, 4, 64, 127
1, 67216, Note_off_c, 10, 69, 127
1, 67218, Note_on_c, 12, 71, 127
1, 67351, Note_off_c, 12, 71, 127
1, 67354, Note_on_c, 7, 79, 127
1, 67487, Note_off_c, 4, 64, 127
1, 67489, Note_on_c, 2, 62, 127
1, 67607, Note_off_c, 7, 79, 127
1, 67622, Note_off_c, 2, 62, 127
1, 67625, Note_on_c, 11, 70, 127
1, 67625, Note_on_c, 1, 61, 127
1, 67758, Note_off_c, 1, 61, 127
1, 67760, Note_on_c, 2, 62, 127
1, 67893, Note_off_c, 2, 62, 127
1, 67893, Note_off_c, 11, 70, 127
1, 67896, Note_on_c, 0, 72, 127
1, 67896, Note_on_c, 7, 55, 127
1, 67961, Note_off_c, 0, 72, 127
1, 67963, Note_on_c, 11, 70, 127
1, 68028, Note_off_c, 11, 70, 127
1, 68028, Note_off_c, 7, 55, 127
1, 68030, Note_on_c, 0, 72, 127
1, 68030, Note_on_c, 2, 62, 127
1, 68095, Note_off_c, 0, 72, 127
1, 68097, Note_on_c, 11, 70, 127
1, 68162, Note_off_c, 11, 70, 127
1, 68162, Note_off_c, 2, 62, 127
1, 68164, Note_on_c, 10, 69, 127
1, 68164, Note_on_c, 1, 61, 127
1, 68297, Note_off_c, 1, 61, 127
1, 68300, Note_on_c, 4, 64, 127
1, 68433, Note_off_c, 4, 64, 127
1, 68435, Note_on_c, 10, 57, 127
1, 68568, Note_off_c, 10, 57, 127
1, 68571, Note_on_c, 7, 55, 127
1, 68704, Note_off_c, 7, 55, 127
1, 68706, Note_on_c, 5, 53, 127
1, 68839, Note_off_c, 5, 53, 127
1, 68840, Note_off_c, 10, 69, 127
1, 68842, Note_on_c, 4, 52, 127
1, 68975, Note_off_c, 4, 52, 127
1, 68977, Note_on_c, 5, 53, 127
1, 69113, Note_on_c, 2, 74, 127
1, 69245, Note_off_c, 5, 53, 127
1, 69246, Note_off_c, 2, 74, 127
1, 69248, Note_on_c, 11, 70, 127
1, 69248, Note_on_c, 7, 55, 127
1, 69381, Note_off_c, 11, 70, 127
1, 69384, Note_on_c, 7, 67, 127
1, 69516, Note_off_c, 7, 55, 127
1, 69517, Note_off_c, 7, 67, 127
1, 69519, Note_on_c, 10, 69, 127
1, 69519, Note_on_c, 5, 53, 127
1, 69654, Note_on_c, 2, 74, 127
1, 69721, Note_off_c, 10, 69, 127
1, 69787, Note_off_c, 2, 74, 127
1, 69787, Note_off_c, 5, 53, 127
1, 69790, Note_on_c, 7, 67, 127
1, 69790, Note_on_c, 4, 52, 127
1, 69923, Note_off_c, 7, 67, 127
1, 69925, Note_on_c, 4, 64, 127
1, 70058, Note_off_c, 4, 64, 127
1, 70058, Note_off_c, 4, 52, 127
1, 70061, Note_on_c, 5, 65, 127
1, 70061, Note_on_c, 2, 50, 127
1, 70196, Note_on_c, 2, 74, 127
1, 70229, Note_off_c, 5, 65, 127
1, 70329, Note_off_c, 2, 74, 127
1, 70329, Note_off_c, 2, 50, 127
1, 70332, Note_on_c, 7, 67, 127
1, 70332, Note_on_c, 11, 58, 127
1, 70465, Note_off_c, 7, 67, 127
1, 70467, Note_on_c, 4, 64, 127
1, 70600, Note_off_c, 4, 64, 127
1, 70600, Note_off_c, 11, 58, 127
1, 70603, Note_on_c, 5, 65, 127
1, 70603, Note_on_c, 10, 57, 127
1, 70738, Note_on_c, 2, 74, 127
1, 70771, Note_off_c, 5, 65, 127
1, 70871, Note_off_c, 2, 74, 127
1, 70871, Note_off_c, 10, 57, 127
1, 70873, Note_on_c, 4, 64, 127
1, 70873, Note_on_c, 7, 55, 127
1, 71006, Note_off_c, 4, 64, 127
1, 71009, Note_on_c, 1, 61, 127
1, 71141, Note_off_c, 7, 55, 127
1, 71142, Note_off_c, 1, 61, 127
1, 71144, Note_on_c, 2, 62, 127
1, 71144, Note_on_c, 5, 53, 127
1, 71280, Note_on_c, 2, 74, 127
1, 71411, Note_off_c, 2, 62, 127
1, 71412, Note_off_c, 5, 53, 127
1, 71413, Note_off_c, 2, 74, 127
1, 71415, Note_on_c, 11, 70, 127
1, 71415, Note_on_c, 7, 55, 127
1, 71503, Note_off_c, 11, 70, 127
1, 71506, Note_on_c, 10, 69, 127
1, 71594, Note_off_c, 10, 69, 127
1, 71596, Note_on_c, 7, 67, 127
1, 71683, Note_off_c, 7, 55, 127
1, 71684, Note_off_c, 7, 67, 127
1, 71686, Note_on_c, 10, 69, 127
1, 71686, Note_on_c, 5, 53, 127
1, 71822, Note_on_c, 2, 74, 127
1, 71888, Note_off_c, 10, 69, 127
1, 71954, Note_off_c, 5, 53, 127
1, 71955, Note_off_c, 2, 74, 127
1, 71957, Note_on_c, 7, 67, 127
1, 71957, Note_on_c, 4, 52, 127
1, 72045, Note_off_c, 7, 67, 127
1, 72047, Note_on_c, 5, 65, 127
1, 72135, Note_off_c, 5, 65, 127
1, 72138, Note_on_c, 4, 64, 127
1, 72225, Note_off_c, 4, 52, 127
1, 72226, Note_off_c, 4, 64, 127
1, 72228, Note_on_c, 5, 65, 127
1, 72228, Note_on_c, 2, 50, 127
1, 72363, Note_on_c, 2, 74, 127
1, 72396, Note_off_c, 5, 65, 127
1, 72496, Note_off_c, 2, 74, 127
1, 72496, Note_off_c, 2, 50, 127
1, 72499, Note_on_c, 7, 67, 127
1, 72499, Note_on_c, 11, 58, 127
1, 72587, Note_off_c, 7, 67, 127
1, 72589, Note_on_c, 5, 65, 127
1, 72677, Note_off_c, 5, 65, 127
1, 72679, Note_on_c, 4, 64, 127
1, 72767, Note_off_c, 4, 64, 127
1, 72767, Note_off_c, 11, 58, 127
1, 72770, Note_on_c, 5, 65, 127
1, 72770, Note_on_c, 10, 57, 127
1, 72905, Note_on_c, 2, 74, 127
1, 72938, Note_off_c, 5, 65, 127
1, 73038, Note_off_c, 2, 74, 127
1, 73038, Note_off_c, 10, 57, 127
1, 73041, Note_on_c, 4, 64, 127
1, 73041, Note_on_c, 7, 55, 127
1, 73129, Note_off_c, 4, 64, 127
1, 73131, Note_on_c, 2, 62, 127
1, 73219, Note_off_c, 2, 62, 127
1, 73221, Note_on_c, 1, 61, 127
1, 73309, Note_off_c, 1, 61, 127
1, 73309, Note_off_c, 7, 55, 127
1, 73312, Note_on_c, 2, 62, 127
1, 73312, Note_on_c, 5, 53, 127
1, 73445, Note_off_c, 5, 53, 127
1, 73447, Note_on_c, 1, 61, 127
1, 73551, Note_off_c, 2, 62, 127
1, 73580, Note_off_c, 1, 61, 127
1, 73582, Note_on_c, 10, 81, 127
1, 73582, Note_on_c, 5, 77, 127
1, 73582, Note_on_c, 2, 62, 127
1, 73715, Note_off_c, 2, 62, 127
1, 73718, Note_on_c, 4, 64, 127
1, 73835, Note_off_c, 5, 77, 127
1, 73835, Note_off_c, 10, 81, 127
1, 73851, Note_off_c, 4, 64, 127
1, 73853, Note_on_c, 11, 82, 127
1, 73853, Note_on_c, 7, 79, 127
1, 73853, Note_on_c, 2, 62, 127
1, 73986, Note_off_c, 2, 62, 127
1, 73989, Note_on_c, 1, 61, 127
1, 74121, Note_off_c, 7, 79, 127
1, 74121, Note_off_c, 11, 82, 127
1, 74122, Note_off_c, 1, 61, 127
1, 74124, Note_on_c, 10, 81, 127
1, 74124, Note_on_c, 5, 77, 127
1, 74124, Note_on_c, 2, 62, 127
1, 74257, Note_off_c, 2, 62, 127
1, 74260, Note_on_c, 5, 53, 127
1, 74348, Note_off_c, 5, 77, 127
1, 74348, Note_off_c, 10, 81, 127
1, 74395, Note_on_c, 4, 64, 127
1, 74395, Note_on_c, 7, 55, 127
1, 74398, Note_off_c, 5, 53, 127
1, 74528, Note_off_c, 7, 55, 127
1, 74531, Note_on_c, 1, 61, 127
1, 74664, Note_off_c, 1, 61, 127
1, 74666, Note_on_c, 7, 79, 127
1, 74666, Note_on_c, 4, 76, 127
1, 74666, Note_on_c, 2, 62, 127
1, 74789, Note_off_c, 4, 64, 127
1, 74799, Note_off_c, 2, 62, 127
1, 74802, Note_on_c, 4, 64, 127
1, 74919, Note_off_c, 4, 76, 127
1, 74919, Note_off_c, 7, 79, 127
1, 74935, Note_off_c, 4, 64, 127
1, 74937, Note_on_c, 10, 81, 127
1, 74937, Note_on_c, 5, 77, 127
1, 74937, Note_on_c, 2, 62, 127
1, 75070, Note_off_c, 2, 62, 127
1, 75072, Note_on_c, 1, 61, 127
1, 75205, Note_off_c, 1, 61, 127
1, 75205, Note_off_c, 5, 77, 127
1, 75205, Note_off_c, 10, 81, 127
1, 75208, Note_on_c, 7, 79, 127
1, 75208, Note_on_c, 4, 76, 127
1, 75208, Note_on_c, 2, 62, 127
1, 75341, Note_off_c, 2, 62, 127
1, 75343, Note_on_c, 7, 55, 127
1, 75432, Note_off_c, 4, 76, 127
1, 75432, Note_off_c, 7, 79, 127
1, 75479, Note_on_c, 5, 65, 127
1, 75479, Note_on_c, 10, 57, 127
1, 75481, Note_off_c, 7, 55, 127
1, 75612, Note_off_c, 10, 57, 127
1, 75614, Note_on_c, 1, 61, 127
1, 75747, Note_off_c, 1, 61, 127
1, 75750, Note_on_c, 5, 77, 127
1, 75750, Note_on_c, 2, 74, 127
1, 75750, Note_on_c, 2, 62, 127
1, 75873, Note_off_c, 5, 65, 127
1, 75883, Note_off_c, 2, 62, 127
1, 75885, Note_on_c, 4, 64, 127
1, 76003, Note_off_c, 2, 74, 127
1, 76003, Note_off_c, 5, 77, 127
1, 76018, Note_off_c, 4, 64, 127
1, 76021, Note_on_c, 4, 76, 127
1, 76021, Note_on_c, 7, 79, 127
1, 76021, Note_on_c, 2, 62, 127
1, 76154, Note_off_c, 2, 62, 127
1, 76156, Note_on_c, 1, 61, 127
1, 76289, Note_off_c, 1, 61, 127
1, 76289, Note_off_c, 7, 79, 127
1, 76289, Note_off_c, 4, 76, 127
1, 76291, Note_on_c, 5, 77, 127
1, 76291, Note_on_c, 2, 74, 127
1, 76291, Note_on_c, 2, 62, 127
1, 76424, Note_off_c, 2, 62, 127
1, 76427, Note_on_c, 10, 57, 127
1, 76515, Note_off_c, 2, 74, 127
1, 76515, Note_off_c, 5, 77, 127
1, 76562, Note_on_c, 7, 67, 127
1, 76562, Note_on_c, 11, 58, 127
1, 76565, Note_off_c, 10, 57, 127
1, 76695, Note_off_c, 11, 58, 127
1, 76698, Note_on_c, 1, 61, 127
1, 76830, Note_off_c, 7, 67, 127
1, 76831, Note_off_c, 1, 61, 127
1, 76833, Note_on_c, 2, 74, 127
1, 76833, Note_on_c, 5, 77, 127
1, 76833, Note_on_c, 2, 62, 127
1, 76966, Note_off_c, 2, 62, 127
1, 76969, Note_on_c, 4, 64, 127
1, 77086, Note_off_c, 5, 77, 127
1, 77086, Note_off_c, 2, 74, 127
1, 77102, Note_off_c, 4, 64, 127
1, 77104, Note_on_c, 7, 79, 127
1, 77104, Note_on_c, 4, 76, 127
1, 77104, Note_on_c, 2, 62, 127
1, 77237, Note_off_c, 2, 62, 127
1, 77240, Note_on_c, 1, 61, 127
1, 77372, Note_off_c, 4, 76, 127
1, 77372, Note_off_c, 7, 79, 127
1, 77373, Note_off_c, 1, 61, 127
1, 77375, Note_on_c, 5, 77, 127
1, 77375, Note_on_c, 2, 74, 127
1, 77375, Note_on_c, 2, 62, 127
1, 77508, Note_off_c, 2, 62, 127
1, 77511, Note_on_c, 5, 65, 127
1, 77644, Note_off_c, 5, 65, 127
1, 77646, Note_on_c, 8, 68, 127
1, 77646, Note_on_c, 12, 59, 127
1, 77646, Note_on_c, 2, 62, 127
1, 77734, Note_off_c, 2, 74, 127
1, 77734, Note_off_c, 5, 77, 127
1, 77736, Note_on_c, 4, 76, 127
1, 77824, Note_off_c, 4, 76, 127
1, 77827, Note_on_c, 2, 74, 127
1, 77915, Note_off_c, 2, 74, 127
1, 77917, Note_on_c, 4, 76, 127
1, 78186, Note_off_c, 2, 62, 127
1, 78186, Note_off_c, 12, 59, 127
1, 78186, Note_off_c, 8, 68, 127
1, 78189, Note_on_c, 8, 56, 127
1, 78189, Note_on_c, 12, 59, 127
1, 78189, Note_on_c, 4, 64, 127
1, 78256, Note_off_c, 4, 76, 127
1, 78280, Note_on_c, 2, 74, 127
1, 78368, Note_off_c, 2, 74, 127
1, 78370, Note_on_c, 1, 73, 127
1, 78458, Note_off_c, 1, 73, 127
1, 78461, Note_on_c, 2, 74, 127
1, 78730, Note_off_c, 4, 64, 127
1, 78730, Note_off_c, 12, 59, 127
1, 78730, Note_off_c, 8, 56, 127
1, 78733, Note_on_c, 4, 52, 127
1, 78733, Note_on_c, 12, 59, 127
1, 78733, Note_on_c, 8, 56, 127
1, 78800, Note_off_c, 2, 74, 127
1, 78824, Note_on_c, 1, 73, 127
1, 78912, Note_off_c, 1, 73, 127
1, 78914, Note_on_c, 12, 71, 127
1, 79002, Note_off_c, 12, 71, 127
1, 79005, Note_on_c, 1, 73, 127
1, 79274, Note_off_c, 8, 56, 127
1, 79274, Note_off_c, 12, 59, 127
1, 79274, Note_off_c, 4, 52, 127
1, 79277, Note_on_c, 10, 57, 127
1, 79277, Note_on_c, 4, 52, 127
1, 79277, Note_on_c, 10, 45, 127
1, 79429, Note_on_c, 4, 76, 127
1, 79457, Note_off_c, 1, 73, 127
1, 79562, Note_off_c, 4, 76, 127
1, 79564, Note_on_c, 1, 73, 127
1, 79697, Note_off_c, 1, 73, 127
1, 79700, Note_on_c, 10, 69, 127
1, 79833, Note_off_c, 10, 69, 127
1, 79835, Note_on_c, 7, 67, 127
1, 79953, Note_off_c, 10, 45, 127
1, 79953, Note_off_c, 4, 52, 127
1, 79971, Note_on_c, 4, 76, 127
1, 80087, Note_off_c, 10, 57, 127
1, 80102, Note_off_c, 7, 67, 127
1, 80104, Note_off_c, 4, 76, 127
1, 80106, Note_on_c, 10, 57, 127
1, 80106, Note_on_c, 1, 73, 127
1, 80239, Note_off_c, 1, 73, 127
1, 80239, Note_off_c, 10, 57, 127
1, 80242, Note_on_c, 12, 59, 127
1, 80242, Note_on_c, 10, 69, 127
1, 80375, Note_off_c, 10, 69, 127
1, 80375, Note_off_c, 12, 59, 127
1, 80377, Note_on_c, 1, 61, 127
1, 80377, Note_on_c, 7, 67, 127
1, 80512, Note_on_c, 4, 76, 127
1, 80644, Note_off_c, 7, 67, 127
1, 80645, Note_off_c, 4, 76, 127
1, 80645, Note_off_c, 1, 61, 127
1, 80648, Note_on_c, 4, 64, 127
1, 80648, Note_on_c, 1, 73, 127
1, 80781, Note_off_c, 1, 73, 127
1, 80783, Note_on_c, 10, 69, 127
1, 80916, Note_off_c, 10, 69, 127
1, 80916, Note_off_c, 4, 64, 127
1, 80919, Note_on_c, 1, 61, 127
1, 80919, Note_on_c, 7, 67, 127
1, 81054, Note_on_c, 4, 76, 127
1, 81186, Note_off_c, 7, 67, 127
1, 81187, Note_off_c, 4, 76, 127
1, 81187, Note_off_c, 1, 61, 127
1, 81190, Note_on_c, 10, 57, 127
1, 81190, Note_on_c, 1, 73, 127
1, 81323, Note_off_c, 1, 73, 127
1, 81325, Note_on_c, 10, 69, 127
1, 81458, Note_off_c, 10, 69, 127
1, 81458, Note_off_c, 10, 57, 127
1, 81461, Note_on_c, 10, 45, 127
1, 81461, Note_on_c, 7, 67, 127
1, 81596, Note_on_c, 4, 76, 127
1, 81729, Note_off_c, 4, 76, 127
1, 81732, Note_on_c, 1, 73, 127
1, 81855, Note_off_c, 7, 67, 127
1, 81865, Note_off_c, 1, 73, 127
1, 81867, Note_on_c, 10, 69, 127
1, 81996, Note_off_c, 10, 45, 127
1, 82000, Note_off_c, 10, 69, 127
1, 82002, Note_on_c, 5, 65, 127
1, 82138, Note_on_c, 10, 57, 127
1, 82138, Note_on_c, 5, 77, 127
1, 82269, Note_off_c, 5, 65, 127
1, 82271, Note_off_c, 5, 77, 127
1, 82271, Note_off_c, 10, 57, 127
1, 82273, Note_on_c, 12, 59, 127
1, 82273, Note_on_c, 2, 74, 127
1, 82406, Note_off_c, 2, 74, 127
1, 82406, Note_off_c, 12, 59, 127
1, 82409, Note_on_c, 1, 61, 127
1, 82409, Note_on_c, 11, 70, 127
1, 82542, Note_off_c, 11, 70, 127
1, 82542, Note_off_c, 1, 61, 127
1, 82544, Note_on_c, 2, 62, 127
1, 82544, Note_on_c, 10, 69, 127
1, 82677, Note_off_c, 10, 69, 127
1, 82680, Note_on_c, 5, 77, 127
1, 82812, Note_off_c, 2, 62, 127
1, 82813, Note_off_c, 5, 77, 127
1, 82815, Note_on_c, 5, 65, 127
1, 82815, Note_on_c, 2, 74, 127
1, 82948, Note_off_c, 2, 74, 127
1, 82951, Note_on_c, 11, 70, 127
1, 83083, Note_off_c, 5, 65, 127
1, 83084, Note_off_c, 11, 70, 127
1, 83086, Note_on_c, 2, 62, 127
1, 83086, Note_on_c, 10, 69, 127
1, 83219, Note_off_c, 10, 69, 127
1, 83221, Note_on_c, 5, 77, 127
1, 83354, Note_off_c, 5, 77, 127
1, 83354, Note_off_c, 2, 62, 127
1, 83357, Note_on_c, 10, 57, 127
1, 83357, Note_on_c, 2, 74, 127
1, 83490, Note_off_c, 2, 74, 127
1, 83492, Note_on_c, 11, 70, 127
1, 83625, Note_off_c, 11, 70, 127
1, 83625, Note_off_c, 10, 57, 127
1, 83628, Note_on_c, 10, 45, 127
1, 83628, Note_on_c, 10, 69, 127
1, 83763, Note_on_c, 5, 77, 127
1, 83896, Note_off_c, 5, 77, 127
1, 83899, Note_on_c, 2, 74, 127
1, 84022, Note_off_c, 10, 69, 127
1, 84032, Note_off_c, 2, 74, 127
1, 84034, Note_on_c, 0, 72, 127
1, 84163, Note_off_c, 10, 45, 127
1, 84167, Note_off_c, 0, 72, 127
1, 84170, Note_on_c, 12, 71, 127
1, 84303, Note_off_c, 12, 71, 127
1, 84305, Note_on_c, 8, 80, 127
1, 84438, Note_off_c, 8, 80, 127
1, 84441, Note_on_c, 12, 59, 127
1, 84441, Note_on_c, 5, 77, 127
1, 84574, Note_off_c, 5, 77, 127
1, 84574, Note_off_c, 12, 59, 127
1, 84576, Note_on_c, 1, 61, 127
1, 84576, Note_on_c, 2, 74, 127
1, 84709, Note_off_c, 2, 74, 127
1, 84709, Note_off_c, 1, 61, 127
1, 84711, Note_on_c, 2, 62, 127
1, 84711, Note_on_c, 12, 71, 127
1, 84847, Note_on_c, 8, 80, 127
1, 84913, Note_off_c, 12, 71, 127
1, 84979, Note_off_c, 2, 62, 127
1, 84980, Note_off_c, 8, 80, 127
1, 84982, Note_on_c, 12, 59, 127
1, 84982, Note_on_c, 5, 77, 127
1, 85115, Note_off_c, 5, 77, 127
1, 85115, Note_off_c, 12, 59, 127
1, 85118, Note_on_c, 1, 61, 127
1, 85118, Note_on_c, 2, 74, 127
1, 85251, Note_off_c, 2, 74, 127
1, 85251, Note_off_c, 1, 61, 127
1, 85253, Note_on_c, 2, 62, 127
1, 85253, Note_on_c, 12, 71, 127
1, 85389, Note_on_c, 8, 80, 127
1, 85455, Note_off_c, 12, 71, 127
1, 85521, Note_off_c, 2, 62, 127
1, 85522, Note_off_c, 8, 80, 127
1, 85524, Note_on_c, 12, 59, 127
1, 85524, Note_on_c, 5, 77, 127
1, 85657, Note_off_c, 5, 77, 127
1, 85660, Note_on_c, 2, 74, 127
1, 85792, Note_off_c, 12, 59, 127
1, 85793, Note_off_c, 2, 74, 127
1, 85795, Note_on_c, 4, 52, 127
1, 85795, Note_on_c, 12, 71, 127
1, 85928, Note_off_c, 12, 71, 127
1, 85930, Note_on_c, 8, 80, 127
1, 86063, Note_off_c, 8, 80, 127
1, 86063, Note_off_c, 4, 52, 127
1, 86066, Note_on_c, 8, 56, 127
1, 86066, Note_on_c, 5, 77, 127
1, 86199, Note_off_c, 5, 77, 127
1, 86201, Note_on_c, 2, 74, 127
1, 86334, Note_off_c, 2, 74, 127
1, 86334, Note_off_c, 8, 56, 127
1, 86337, Note_on_c, 10, 57, 127
1, 86337, Note_on_c, 1, 73, 127
1, 86472, Note_on_c, 10, 81, 127
1, 86539, Note_off_c, 1, 73, 127
1, 86605, Note_off_c, 10, 81, 127
1, 86605, Note_off_c, 10, 57, 127
1, 86608, Note_on_c, 10, 45, 127
1, 86608, Note_on_c, 4, 76, 127
1, 86741, Note_off_c, 4, 76, 127
1, 86741, Note_off_c, 10, 45, 127
1, 86743, Note_on_c, 12, 47, 127
1, 86743, Note_on_c, 1, 73, 127
1, 86876, Note_off_c, 1, 73, 127
1, 86876, Note_off_c, 12, 47, 127
1, 86879, Note_on_c, 1, 49, 127
1, 86879, Note_on_c, 10, 69, 127
1, 87012, Note_off_c, 10, 69, 127
1, 87014, Note_on_c, 1, 73, 127
1, 87147, Note_off_c, 1, 73, 127
1, 87147, Note_off_c, 1, 49, 127
1, 87150, Note_on_c, 4, 52, 127
1, 87150, Note_on_c, 12, 71, 127
1, 87283, Note_off_c, 12, 71, 127
1, 87285, Note_on_c, 2, 74, 127
1, 87418, Note_off_c, 2, 74, 127
1, 87418, Note_off_c, 4, 52, 127
1, 87420, Note_on_c, 10, 57, 127
1, 87420, Note_on_c, 1, 73, 127
1, 87556, Note_on_c, 4, 76, 127
1, 87622, Note_off_c, 1, 73, 127
1, 87688, Note_off_c, 10, 57, 127
1, 87689, Note_off_c, 4, 76, 127
1, 87691, Note_on_c, 10, 45, 127
1, 87691, Note_on_c, 1, 73, 127
1, 87824, Note_off_c, 1, 73, 127
1, 87824, Note_off_c, 10, 45, 127
1, 87827, Note_on_c, 12, 47, 127
1, 87827, Note_on_c, 10, 69, 127
1, 87960, Note_off_c, 10, 69, 127
1, 87960, Note_off_c, 12, 47, 127
1, 87962, Note_on_c, 1, 49, 127
1, 87962, Note_on_c, 4, 64, 127
1, 88095, Note_off_c, 4, 64, 127
1, 88098, Note_on_c, 7, 67, 127
1, 88230, Note_off_c, 1, 49, 127
1, 88231, Note_off_c, 7, 67, 127
1, 88233, Note_on_c, 2, 50, 127
1, 88233, Note_on_c, 5, 65, 127
1, 88366, Note_off_c, 5, 65, 127
1, 88369, Note_on_c, 10, 69, 127
1, 88501, Note_off_c, 2, 50, 127
1, 88502, Note_off_c, 10, 69, 127
1, 88504, Note_on_c, 4, 52, 127
1, 88504, Note_on_c, 7, 67, 127
1, 88639, Note_on_c, 11, 70, 127
1, 88672, Note_off_c, 7, 67, 127
1, 88772, Note_off_c, 11, 70, 127
1, 88772, Note_off_c, 4, 52, 127
1, 88775, Note_on_c, 10, 45, 127
1, 88775, Note_on_c, 7, 67, 127
1, 88908, Note_off_c, 7, 67, 127
1, 88908, Note_off_c, 10, 45, 127
1, 88910, Note_on_c, 1, 49, 127
1, 88910, Note_on_c, 4, 64, 127
1, 89043, Note_off_c, 4, 64, 127
1, 89043, Note_off_c, 1, 49, 127
1, 89046, Note_on_c, 4, 52, 127
1, 89046, Note_on_c, 1, 61, 127
1, 89179, Note_off_c, 1, 61, 127
1, 89181, Note_on_c, 4, 64, 127
1, 89314, Note_off_c, 4, 64, 127
1, 89314, Note_off_c, 4, 52, 127
1, 89317, Note_on_c, 5, 53, 127
1, 89317, Note_on_c, 2, 62, 127
1, 89450, Note_off_c, 2, 62, 127
1, 89452, Note_on_c, 5, 65, 127
1, 89585, Note_off_c, 5, 65, 127
1, 89585, Note_off_c, 5, 53, 127
1, 89588, Note_on_c, 7, 55, 127
1, 89588, Note_on_c, 4, 64, 127
1, 89723, Note_on_c, 7, 67, 127
1, 89790, Note_off_c, 4, 64, 127
1, 89856, Note_off_c, 7, 67, 127
1, 89856, Note_off_c, 7, 55, 127
1, 89859, Note_on_c, 10, 45, 127
1, 89859, Note_on_c, 4, 64, 127
1, 89992, Note_off_c, 4, 64, 127
1, 89992, Note_off_c, 10, 45, 127
1, 89994, Note_on_c, 12, 47, 127
1, 89994, Note_on_c, 1, 61, 127
1, 90127, Note_off_c, 1, 61, 127
1, 90127, Note_off_c, 12, 47, 127
1, 90129, Note_on_c, 1, 49, 127
1, 90129, Note_on_c, 10, 57, 127
1, 90262, Note_off_c, 10, 57, 127
1, 90265, Note_on_c, 7, 67, 127
1, 90397, Note_off_c, 1, 49, 127
1, 90398, Note_off_c, 7, 67, 127
1, 90400, Note_on_c, 10, 45, 127
1, 90400, Note_on_c, 5, 65, 127
1, 90533, Note_off_c, 5, 65, 127
1, 90536, Note_on_c, 4, 64, 127
1, 90668, Note_off_c, 10, 45, 127
1, 90669, Note_off_c, 4, 64, 127
1, 90671, Note_on_c, 2, 50, 127
1, 90671, Note_on_c, 5, 65, 127
1, 90804, Note_off_c, 5, 65, 127
1, 90804, Note_off_c, 2, 50, 127
1, 90807, Note_on_c, 5, 53, 127
1, 90807, Note_on_c, 2, 62, 127
1, 90940, Note_off_c, 2, 62, 127
1, 90940, Note_off_c, 5, 53, 127
1, 90942, Note_on_c, 4, 52, 127
1, 90942, Note_on_c, 4, 64, 127
1, 91075, Note_off_c, 4, 64, 127
1, 91075, Note_off_c, 4, 52, 127
1, 91078, Note_on_c, 2, 50, 127
1, 91078, Note_on_c, 5, 65, 127
1, 91211, Note_off_c, 5, 65, 127
1, 91211, Note_off_c, 2, 50, 127
1, 91213, Note_on_c, 1, 49, 127
1, 91213, Note_on_c, 7, 67, 127
1, 91346, Note_off_c, 7, 67, 127
1, 91346, Note_off_c, 1, 49, 127
1, 91348, Note_on_c, 12, 47, 127
1, 91348, Note_on_c, 10, 69, 127
1, 91481, Note_off_c, 10, 69, 127
1, 91481, Note_off_c, 12, 47, 127
1, 91484, Note_on_c, 10, 45, 127
1, 91484, Note_on_c, 12, 71, 127
1, 91617, Note_off_c, 12, 71, 127
1, 91617, Note_off_c, 10, 45, 127
1, 91619, Note_on_c, 7, 43, 127
1, 91619, Note_on_c, 1, 73, 127
1, 91752, Note_off_c, 1, 73, 127
1, 91752, Note_off_c, 7, 43, 127
1, 91755, Note_on_c, 5, 41, 127
1, 91755, Note_on_c, 2, 74, 127
1, 91888, Note_off_c, 2, 74, 127
1, 91888, Note_off_c, 5, 41, 127
1, 91890, Note_on_c, 10, 45, 127
1, 91890, Note_on_c, 1, 73, 127
1, 92023, Note_off_c, 1, 73, 127
1, 92023, Note_off_c, 10, 45, 127
1, 92026, Note_on_c, 12, 47, 127
1, 92026, Note_on_c, 12, 71, 127
1, 92159, Note_off_c, 12, 71, 127
1, 92159, Note_off_c, 12, 47, 127
1, 92161, Note_on_c, 1, 49, 127
1, 92161, Note_on_c, 10, 69, 127
1, 92294, Note_off_c, 1, 49, 127
1, 92297, Note_on_c, 2, 50, 127
1, 92297, Note_on_c, 10, 81, 127
1, 92430, Note_off_c, 2, 50, 127
1, 92432, Note_on_c, 4, 52, 127
1, 92555, Note_off_c, 10, 69, 127
1, 92565, Note_off_c, 4, 52, 127
1, 92565, Note_off_c, 10, 81, 127
1, 92568, Note_on_c, 5, 53, 127
1, 92568, Note_on_c, 2, 74, 127
1, 92568, Note_on_c, 10, 69, 127
1, 92701, Note_off_c, 5, 53, 127
1, 92703, Note_on_c, 7, 55, 127
1, 92836, Note_off_c, 7, 55, 127
1, 92836, Note_off_c, 10, 69, 127
1, 92836, Note_off_c, 2, 74, 127
1, 92838, Note_on_c, 10, 57, 127
1, 92838, Note_on_c, 10, 69, 127
1, 92838, Note_on_c, 5, 77, 127
1, 92838, Note_on_c, 2, 74, 127
1, 93346, Note_off_c, 2, 74, 127
1, 93346, Note_off_c, 5, 77, 127
1, 93346, Note_off_c, 10, 69, 127
1, 93381, Note_on_c, 10, 45, 127
1, 93381, Note_on_c, 7, 67, 127
1, 93381, Note_on_c, 1, 73, 127
1, 93381, Note_on_c, 5, 77, 127
1, 93445, Note_off_c, 5, 77, 127
1, 93450, Note_on_c, 4, 76, 127
1, 93514, Note_off_c, 4, 76, 127
1, 93518, Note_on_c, 5, 77, 127
1, 93582, Note_off_c, 5, 77, 127
1, 93586, Note_on_c, 4, 76, 127
1, 93913, Note_off_c, 4, 76, 127
1, 93918, Note_off_c, 1, 73, 127
1, 93922, Note_off_c, 7, 67, 127
1, 93922, Note_off_c, 10, 45, 127
1, 93922, Note_off_c, 10, 57, 127
1, 93925, Note_on_c, 11, 46, 127
1, 93925, Note_on_c, 5, 65, 127
1, 94061, Note_on_c, 2, 74, 127
1, 94196, Note_on_c, 8, 68, 127
1, 94319, Note_off_c, 5, 65, 127
1, 94455, Note_off_c, 2, 74, 127
1, 94460, Note_off_c, 11, 46, 127
1, 94577, Note_off_c, 8, 68, 127
1, 94603, Note_on_c, 11, 70, 127
1, 94736, Note_off_c, 11, 70, 127
1, 94739, Note_on_c, 1, 49, 127
1, 94739, Note_on_c, 10, 69, 127
1, 94872, Note_off_c, 10, 69, 127
1, 94874, Note_on_c, 7, 67, 127
1, 95007, Note_off_c, 7, 67, 127
1, 95007, Note_off_c, 1, 49, 127
1, 95010, Note_on_c, 2, 50, 127
1, 95010, Note_on_c, 5, 65, 127
1, 95147, Note_on_c, 10, 69, 127
1, 95282, Note_off_c, 10, 69, 127
1, 95283, Note_off_c, 2, 50, 127
1, 95285, Note_on_c, 5, 41, 127
1, 95285, Note_on_c, 2, 74, 127
1, 95410, Note_off_c, 5, 65, 127
1, 95422, Note_on_c, 5, 65, 127
1, 95557, Note_off_c, 5, 65, 127
1, 95558, Note_off_c, 5, 41, 127
1, 95560, Note_on_c, 7, 43, 127
1, 95560, Note_on_c, 4, 64, 127
1, 95827, Note_off_c, 2, 74, 127
1, 95832, Note_off_c, 7, 43, 127
1, 95834, Note_on_c, 10, 45, 127
1, 95834, Note_on_c, 1, 73, 127
1, 95834, Note_on_c, 10, 69, 127
1, 95834, Note_on_c, 7, 67, 127
1, 96101, Note_off_c, 4, 64, 127
1, 96106, Note_off_c, 7, 67, 127
1, 96106, Note_off_c, 10, 69, 127
1, 96106, Note_off_c, 1, 73, 127
1, 96106, Note_off_c, 10, 45, 127
1, 96108, Note_on_c, 2, 38, 127
1, 96108, Note_on_c, 2, 62, 127
1, 96108, Note_on_c, 10, 69, 127
1, 96108, Note_on_c, 5, 65, 127
1, 96108, Note_on_c, 2, 74, 127
1, 96377, Note_off_c, 2, 38, 127
1, 96380, Note_on_c, 2, 50, 127
1, 96513, Note_off_c, 2, 50, 127
1, 96516, Note_on_c, 4, 52, 127
1, 96649, Note_off_c, 4, 52, 127
1, 96651, Note_on_c, 5, 53, 127
1, 96784, Note_off_c, 5, 53, 127
1, 96785, Note_off_c, 2, 74, 127
1, 96785, Note_off_c, 5, 65, 127
1, 96785, Note_off_c, 10, 69, 127
1, 96785, Note_off_c, 2, 62, 127
1, 96786, Note_on_c, 7, 55, 127
1, 96919, Note_off_c, 7, 55, 127
1, 96922, Note_on_c, 10, 57, 127
1, 96922, Note_on_c, 10, 69, 127
1, 97055, Note_off_c, 10, 57, 127
1, 97057, Note_on_c, 12, 59, 127
1, 97190, Note_off_c, 12, 59, 127
1, 97190, Note_off_c, 10, 69, 127
1, 97193, Note_on_c, 1, 61, 127
1, 97193, Note_on_c, 4, 64, 127
1, 97193, Note_on_c, 11, 70, 127
1, 97258, Note_off_c, 11, 70, 127
1, 97260, Note_on_c, 10, 69, 127
1, 97325, Note_off_c, 10, 69, 127
1, 97327, Note_on_c, 8, 68, 127
1, 97460, Note_off_c, 8, 68, 127
1, 97460, Note_off_c, 4, 64, 127
1, 97460, Note_off_c, 1, 61, 127
1, 97463, Note_on_c, 10, 57, 127
1, 97463, Note_on_c, 10, 69, 127
1, 97732, Note_off_c, 10, 69, 127
1, 97732, Note_off_c, 10, 57, 127
1, 97735, Note_on_c, 2, 62, 127
1, 97735, Note_on_c, 5, 65, 127
1, 97735, Note_on_c, 11, 70, 127
1, 97800, Note_off_c, 11, 70, 127
1, 97802, Note_on_c, 10, 69, 127
1, 97867, Note_off_c, 10, 69, 127
1, 97869, Note_on_c, 8, 68, 127
1, 98002, Note_off_c, 8, 68, 127
1, 98002, Note_off_c, 5, 65, 127
1, 98002, Note_off_c, 2, 62, 127
1, 98004, Note_on_c, 10, 57, 127
1, 98004, Note_on_c, 10, 69, 127
1, 98273, Note_off_c, 10, 57, 127
1, 98276, Note_on_c, 1, 61, 127
1, 98276, Note_on_c, 4, 64, 127
1, 98409, Note_off_c, 10, 69, 127
1, 98412, Note_on_c, 12, 71, 127
1, 98544, Note_off_c, 4, 64, 127
1, 98544, Note_off_c, 1, 61, 127
1, 98545, Note_off_c, 12, 71, 127
1, 98547, Note_on_c, 10, 57, 127
1, 98547, Note_on_c, 1, 73, 127
1, 98680, Note_off_c, 1, 73, 127
1, 98680, Note_off_c, 10, 57, 127
1, 98683, Note_on_c, 12, 59, 127
1, 98683, Note_on_c, 2, 74, 127
1, 98816, Note_off_c, 2, 74, 127
1, 98816, Note_off_c, 12, 59, 127
1, 98818, Note_on_c, 1, 61, 127
1, 98818, Note_on_c, 4, 76, 127
1, 98951, Note_off_c, 1, 61, 127
1, 98954, Note_on_c, 2, 62, 127
1, 99057, Note_off_c, 4, 76, 127
1, 99087, Note_off_c, 2, 62, 127
1, 99089, Note_on_c, 4, 64, 127
1, 99089, Note_on_c, 10, 69, 127
1, 99222, Note_off_c, 4, 64, 127
1, 99225, Note_on_c, 1, 61, 127
1, 99313, Note_off_c, 10, 69, 127
1, 99358, Note_off_c, 1, 61, 127
1, 99360, Note_on_c, 5, 65, 127
1, 99360, Note_on_c, 2, 62, 127
1, 99360, Note_on_c, 11, 70, 127
1, 99425, Note_off_c, 11, 70, 127
1, 99427, Note_on_c, 10, 69, 127
1, 99492, Note_off_c, 10, 69, 127
1, 99494, Note_on_c, 8, 68, 127
1, 99627, Note_off_c, 8, 68, 127
1, 99630, Note_on_c, 10, 57, 127
1, 99630, Note_on_c, 10, 69, 127
1, 99654, Note_off_c, 2, 62, 127
1, 99654, Note_off_c, 5, 65, 127
1, 99883, Note_off_c, 10, 69, 127
1, 99898, Note_off_c, 10, 57, 127
1, 99901, Note_on_c, 4, 64, 127
1, 99901, Note_on_c, 1, 61, 127
1, 99901, Note_on_c, 11, 70, 127
1, 99966, Note_off_c, 11, 70, 127
1, 99968, Note_on_c, 10, 69, 127
1, 100033, Note_off_c, 10, 69, 127
1, 100035, Note_on_c, 8, 68, 127
1, 100168, Note_off_c, 8, 68, 127
1, 100171, Note_on_c, 10, 57, 127
1, 100171, Note_on_c, 10, 69, 127
1, 100195, Note_off_c, 1, 61, 127
1, 100195, Note_off_c, 4, 64, 127
1, 100439, Note_off_c, 10, 57, 127
1, 100441, Note_on_c, 5, 65, 127
1, 100441, Note_on_c, 2, 62, 127
1, 100551, Note_off_c, 10, 69, 127
1, 100574, Note_off_c, 5, 65, 127
1, 100577, Note_on_c, 7, 67, 127
1, 100577, Note_on_c, 1, 73, 127
1, 100708, Note_off_c, 2, 62, 127
1, 100710, Note_off_c, 1, 73, 127
1, 100710, Note_off_c, 7, 67, 127
1, 100712, Note_on_c, 5, 65, 127
1, 100712, Note_on_c, 2, 74, 127
1, 100845, Note_off_c, 2, 74, 127
1, 100845, Note_off_c, 5, 65, 127
1, 100848, Note_on_c, 4, 64, 127
1, 100848, Note_on_c, 4, 76, 127
1, 100981, Note_off_c, 4, 76, 127
1, 100981, Note_off_c, 4, 64, 127
1, 100983, Note_on_c, 2, 62, 127
1, 100983, Note_on_c, 5, 77, 127
1, 101116, Note_off_c, 2, 62, 127
1, 101119, Note_on_c, 4, 64, 127
1, 101236, Note_off_c, 5, 77, 127
1, 101252, Note_off_c, 4, 64, 127
1, 101254, Note_on_c, 5, 65, 127
1, 101254, Note_on_c, 10, 69, 127
1, 101387, Note_off_c, 5, 65, 127
1, 101390, Note_on_c, 2, 62, 127
1, 101465, Note_off_c, 10, 69, 127
1, 101523, Note_off_c, 2, 62, 127
1, 101525, Note_on_c, 4, 64, 127
1, 101525, Note_on_c, 7, 67, 127
1, 101525, Note_on_c, 11, 70, 127
1, 101590, Note_off_c, 11, 70, 127
1, 101592, Note_on_c, 10, 69, 127
1, 101657, Note_off_c, 10, 69, 127
1, 101659, Note_on_c, 8, 68, 127
1, 101792, Note_off_c, 8, 68, 127
1, 101795, Note_on_c, 10, 57, 127
1, 101795, Note_on_c, 10, 69, 127
1, 101862, Note_off_c, 7, 67, 127
1, 101862, Note_off_c, 4, 64, 127
1, 102062, Note_off_c, 10, 57, 127
1, 102063, Note_off_c, 10, 69, 127
1, 102066, Note_on_c, 5, 65, 127
1, 102066, Note_on_c, 2, 62, 127
1, 102066, Note_on_c, 11, 70, 127
1, 102131, Note_off_c, 11, 70, 127
1, 102133, Note_on_c, 10, 69, 127
1, 102198, Note_off_c, 10, 69, 127
1, 102200, Note_on_c, 8, 68, 127
1, 102333, Note_off_c, 8, 68, 127
1, 102336, Note_on_c, 10, 57, 127
1, 102336, Note_on_c, 10, 69, 127
1, 102403, Note_off_c, 2, 62, 127
1, 102403, Note_off_c, 5, 65, 127
1, 102603, Note_off_c, 10, 57, 127
1, 102608, Note_on_c, 1, 61, 127
1, 102608, Note_on_c, 4, 64, 127
1, 102717, Note_off_c, 10, 69, 127
1, 102741, Note_off_c, 1, 61, 127
1, 102743, Note_on_c, 2, 62, 127
1, 102743, Note_on_c, 1, 73, 127
1, 102810, Note_off_c, 4, 64, 127
1, 102876, Note_off_c, 1, 73, 127
1, 102876, Note_off_c, 2, 62, 127
1, 102879, Note_on_c, 1, 61, 127
1, 102879, Note_on_c, 4, 76, 127
1, 103012, Note_off_c, 4, 76, 127
1, 103012, Note_off_c, 1, 61, 127
1, 103014, Note_on_c, 12, 59, 127
1, 103014, Note_on_c, 5, 77, 127
1, 103147, Note_off_c, 5, 77, 127
1, 103147, Note_off_c, 12, 59, 127
1, 103149, Note_on_c, 10, 57, 127
1, 103149, Note_on_c, 7, 79, 127
1, 103282, Note_off_c, 10, 57, 127
1, 103285, Note_on_c, 7, 55, 127
1, 103402, Note_off_c, 7, 79, 127
1, 103418, Note_off_c, 7, 55, 127
1, 103420, Note_on_c, 5, 53, 127
1, 103420, Note_on_c, 10, 69, 127
1, 103553, Note_off_c, 5, 53, 127
1, 103556, Note_on_c, 4, 52, 127
1, 103689, Note_off_c, 4, 52, 127
1, 103691, Note_on_c, 2, 50, 127
1, 103824, Note_off_c, 2, 50, 127
1, 103824, Note_off_c, 10, 69, 127
1, 103827, Note_on_c, 2, 62, 127
1, 103827, Note_on_c, 7, 79, 127
1, 103960, Note_off_c, 7, 79, 127
1, 103960, Note_off_c, 2, 62, 127
1, 103962, Note_on_c, 4, 64, 127
1, 103962, Note_on_c, 5, 77, 127
1, 104095, Note_off_c, 5, 77, 127
1, 104095, Note_off_c, 4, 64, 127
1, 104098, Note_on_c, 5, 65, 127
1, 104098, Note_on_c, 4, 76, 127
1, 104163, Note_off_c, 4, 76, 127
1, 104165, Note_on_c, 2, 74, 127
1, 104230, Note_off_c, 2, 74, 127
1, 104230, Note_off_c, 5, 65, 127
1, 104232, Note_on_c, 7, 55, 127
1, 104232, Note_on_c, 11, 82, 127
1, 104365, Note_off_c, 7, 55, 127
1, 104367, Note_on_c, 5, 65, 127
1, 104456, Note_off_c, 11, 82, 127
1, 104500, Note_off_c, 5, 65, 127
1, 104503, Note_on_c, 4, 64, 127
1, 104503, Note_on_c, 7, 67, 127
1, 104636, Note_off_c, 4, 64, 127
1, 104638, Note_on_c, 2, 62, 127
1, 104771, Note_off_c, 2, 62, 127
1, 104774, Note_on_c, 0, 48, 127
1, 104907, Note_off_c, 0, 48, 127
1, 104907, Note_off_c, 7, 67, 127
1, 104909, Note_on_c, 0, 60, 127
1, 104909, Note_on_c, 5, 77, 127
1, 105042, Note_off_c, 5, 77, 127
1, 105042, Note_off_c, 0, 60, 127
1, 105045, Note_on_c, 2, 62, 127
1, 105045, Note_on_c, 4, 76, 127
1, 105170, Note_on_c, 2, 74, 127
1, 105172, Note_off_c, 4, 76, 127
1, 105179, Note_off_c, 2, 62, 127
1, 105181, Note_on_c, 4, 64, 127
1, 105242, Note_off_c, 2, 74, 127
1, 105243, Note_on_c, 0, 72, 127
1, 105314, Note_off_c, 4, 64, 127
1, 105315, Note_off_c, 0, 72, 127
1, 105317, Note_on_c, 5, 53, 127
1, 105317, Note_on_c, 10, 81, 127
1, 105450, Note_off_c, 5, 53, 127
1, 105452, Note_on_c, 3, 63, 127
1, 105541, Note_off_c, 10, 81, 127
1, 105585, Note_off_c, 3, 63, 127
1, 105588, Note_on_c, 2, 62, 127
1, 105588, Note_on_c, 5, 65, 127
1, 105721, Note_off_c, 2, 62, 127
1, 105723, Note_on_c, 0, 60, 127
1, 105856, Note_off_c, 0, 60, 127
1, 105858, Note_on_c, 11, 46, 127
1, 105993, Note_off_c, 11, 46, 127
1, 105994, Note_off_c, 5, 65, 127
1, 105996, Note_on_c, 11, 58, 127
1, 105996, Note_on_c, 3, 75, 127
1, 106131, Note_off_c, 3, 75, 127
1, 106131, Note_off_c, 11, 58, 127
1, 106134, Note_on_c, 0, 60, 127
1, 106134, Note_on_c, 2, 74, 127
1, 106254, Note_on_c, 0, 72, 127
1, 106259, Note_off_c, 2, 74, 127
1, 106269, Note_off_c, 0, 60, 127
1, 106271, Note_on_c, 2, 62, 127
1, 106327, Note_off_c, 0, 72, 127
1, 106331, Note_on_c, 11, 70, 127
1, 106403, Note_off_c, 11, 70, 127
1, 106405, Note_off_c, 2, 62, 127
1, 106408, Note_on_c, 3, 51, 127
1, 106408, Note_on_c, 7, 79, 127
1, 106543, Note_off_c, 7, 79, 127
1, 106545, Note_on_c, 2, 74, 127
1, 106680, Note_off_c, 2, 74, 127
1, 106681, Note_off_c, 3, 51, 127
1, 106683, Note_on_c, 10, 57, 127
1, 106683, Note_on_c, 0, 72, 127
1, 106809, Note_off_c, 0, 72, 127
1, 106811, Note_on_c, 11, 70, 127
1, 106880, Note_off_c, 11, 70, 127
1, 106883, Note_on_c, 10, 69, 127
1, 106952, Note_off_c, 10, 69, 127
1, 106953, Note_off_c, 10, 57, 127
1, 106956, Note_on_c, 2, 50, 127
1, 106956, Note_on_c, 5, 77, 127
1, 107091, Note_off_c, 5, 77, 127
1, 107093, Note_on_c, 0, 72, 127
1, 107228, Note_off_c, 0, 72, 127
1, 107229, Note_off_c, 2, 50, 127
1, 107231, Note_on_c, 7, 55, 127
1, 107231, Note_on_c, 11, 70, 127
1, 107341, Note_off_c, 11, 70, 127
1, 107343, Note_on_c, 10, 69, 127
1, 107421, Note_off_c, 10, 69, 127
1, 107424, Note_on_c, 7, 67, 127
1, 107502, Note_off_c, 7, 67, 127
1, 107503, Note_off_c, 7, 55, 127
1, 107505, Note_on_c, 0, 48, 127
1, 107505, Note_on_c, 3, 75, 127
1, 107640, Note_off_c, 3, 75, 127
1, 107642, Note_on_c, 11, 70, 127
1, 107777, Note_off_c, 11, 70, 127
1, 107778, Note_off_c, 0, 48, 127
1, 107780, Note_on_c, 5, 53, 127
1, 107780, Note_on_c, 10, 69, 127
1, 107869, Note_off_c, 10, 69, 127
1, 107871, Note_on_c, 7, 67, 127
1, 107960, Note_off_c, 7, 67, 127
1, 107963, Note_on_c, 5, 65, 127
1, 108052, Note_off_c, 5, 65, 127
1, 108052, Note_off_c, 5, 53, 127
1, 108054, Note_on_c, 11, 46, 127
1, 108054, Note_on_c, 2, 74, 127
1, 108187, Note_off_c, 2, 74, 127
1, 108189, Note_on_c, 10, 69, 127
1, 108322, Note_off_c, 10, 69, 127
1, 108322, Note_off_c, 11, 46, 127
1, 108325, Note_on_c, 2, 50, 127
1, 108325, Note_on_c, 11, 70, 127
1, 108458, Note_off_c, 11, 70, 127
1, 108460, Note_on_c, 2, 74, 127
1, 108593, Note_off_c, 2, 74, 127
1, 108593, Note_off_c, 2, 50, 127
1, 108596, Note_on_c, 7, 55, 127
1, 108596, Note_on_c, 3, 63, 127
1, 108729, Note_off_c, 3, 63, 127
1, 108731, Note_on_c, 2, 74, 127
1, 108864, Note_off_c, 2, 74, 127
1, 108864, Note_off_c, 7, 55, 127
1, 108867, Note_on_c, 3, 51, 127
1, 108867, Note_on_c, 0, 72, 127
1, 109000, Note_off_c, 0, 72, 127
1, 109002, Note_on_c, 11, 70, 127
1, 109135, Note_off_c, 11, 70, 127
1, 109135, Note_off_c, 3, 51, 127
1, 109138, Note_on_c, 5, 53, 127
1, 109138, Note_on_c, 10, 69, 127
1, 109271, Note_off_c, 10, 69, 127
1, 109273, Note_on_c, 7, 67, 127
1, 109406, Note_off_c, 7, 67, 127
1, 109406, Note_off_c, 5, 53, 127
1, 109408, Note_on_c, 0, 48, 127
1, 109408, Note_on_c, 10, 69, 127
1, 109541, Note_off_c, 10, 69, 127
1, 109544, Note_on_c, 0, 72, 127
1, 109676, Note_off_c, 0, 48, 127
1, 109677, Note_off_c, 0, 72, 127
1, 109679, Note_on_c, 10, 45, 127
1, 109679, Note_on_c, 5, 65, 127
1, 109812, Note_off_c, 5, 65, 127
1, 109815, Note_on_c, 3, 75, 127
1, 109947, Note_off_c, 10, 45, 127
1, 109948, Note_off_c, 3, 75, 127
1, 109950, Note_on_c, 5, 41, 127
1, 109950, Note_on_c, 2, 74, 127
1, 110083, Note_off_c, 2, 74, 127
1, 110086, Note_on_c, 0, 72, 127
1, 110218, Note_off_c, 5, 41, 127
1, 110219, Note_off_c, 0, 72, 127
1, 110221, Note_on_c, 11, 46, 127
1, 110221, Note_on_c, 2, 74, 127
1, 110516, Note_on_c, 11, 82, 127
1, 110516, Note_on_c, 11, 34, 127
1, 110757, Note_off_c, 2, 74, 127
1, 110784, Note_off_c, 11, 82, 127
1, 110789, Note_on_c, 11, 70, 127
1, 110789, Note_on_c, 2, 74, 127
1, 111058, Note_off_c, 2, 74, 127
1, 111058, Note_off_c, 11, 70, 127
1, 111061, Note_on_c, 3, 75, 127
1, 111061, Note_on_c, 0, 72, 127
1, 111328, Note_off_c, 11, 34, 127
1, 111330, Note_off_c, 0, 72, 127
1, 111330, Note_off_c, 3, 75, 127
1, 111333, Note_off_c, 11, 46, 127
1, 111333, Note_on_c, 2, 74, 127
1, 111333, Note_on_c, 5, 77, 127
1, 111605, Note_on_c, 11, 70, 127
1, 111874, Note_off_c, 11, 70, 127
1, 111874, Note_off_c, 5, 77, 127
1, 111874, Note_off_c, 2, 74, 127
1, 111877, Note_on_c, 7, 79, 127
1, 111877, Note_on_c, 3, 75, 127
1, 111877, Note_on_c, 7, 67, 127
1, 112146, Note_off_c, 7, 67, 127
1, 112149, Note_on_c, 3, 63, 127
1, 112401, Note_off_c, 3, 75, 127
1, 112401, Note_off_c, 7, 79, 127
1, 112416, Note_off_c, 3, 63, 127
1, 112420, Note_on_c, 5, 77, 127
1, 112420, Note_on_c, 11, 70, 127
1, 112420, Note_on_c, 2, 74, 127
1, 112689, Note_off_c, 5, 77, 127
1, 112692, Note_on_c, 11, 82, 127
1, 112692, Note_on_c, 11, 58, 127
1, 112956, Note_off_c, 2, 74, 127
1, 112960, Note_off_c, 11, 58, 127
1, 112963, Note_on_c, 3, 75, 127
1, 112963, Note_on_c, 7, 55, 127
1, 113227, Note_off_c, 11, 82, 127
1, 113231, Note_off_c, 7, 55, 127
1, 113234, Note_on_c, 8, 80, 127
1, 113234, Note_on_c, 3, 51, 127
1, 113367, Note_off_c, 8, 80, 127
1, 113369, Note_on_c, 7, 79, 127
1, 113498, Note_off_c, 3, 75, 127
1, 113502, Note_off_c, 7, 79, 127
1, 113502, Note_off_c, 3, 51, 127
1, 113513, Note_on_c, 11, 58, 127
1, 113513, Note_on_c, 7, 79, 127
1, 113513, Note_on_c, 3, 75, 127
1, 113646, Note_off_c, 11, 58, 127
1, 113648, Note_on_c, 0, 60, 127
1, 113781, Note_off_c, 0, 60, 127
1, 113781, Note_off_c, 3, 75, 127
1, 113781, Note_off_c, 7, 79, 127
1, 113784, Note_on_c, 2, 62, 127
1, 113784, Note_on_c, 5, 77, 127
1, 113784, Note_on_c, 2, 74, 127
1, 113917, Note_off_c, 2, 62, 127
1, 113919, Note_on_c, 0, 60, 127
1, 114043, Note_off_c, 11, 70, 127
1, 114052, Note_off_c, 0, 60, 127
1, 114052, Note_off_c, 2, 74, 127
1, 114052, Note_off_c, 5, 77, 127
1, 114055, Note_on_c, 11, 58, 127
1, 114055, Note_on_c, 7, 67, 127
1, 114188, Note_off_c, 11, 58, 127
1, 114190, Note_on_c, 10, 57, 127
1, 114323, Note_off_c, 10, 57, 127
1, 114326, Note_on_c, 11, 58, 127
1, 114326, Note_on_c, 2, 74, 127
1, 114326, Note_on_c, 5, 77, 127
1, 114459, Note_off_c, 11, 58, 127
1, 114461, Note_on_c, 7, 55, 127
1, 114594, Note_off_c, 7, 55, 127
1, 114594, Note_off_c, 5, 77, 127
1, 114594, Note_off_c, 2, 74, 127
1, 114597, Note_on_c, 0, 48, 127
1, 114597, Note_on_c, 5, 77, 127
1, 114597, Note_on_c, 2, 74, 127
1, 114730, Note_off_c, 0, 48, 127
1, 114732, Note_on_c, 7, 55, 127
1, 114865, Note_off_c, 7, 55, 127
1, 114865, Note_off_c, 2, 74, 127
1, 114865, Note_off_c, 5, 77, 127
1, 114867, Note_on_c, 0, 60, 127
1, 114867, Note_on_c, 0, 72, 127
1, 114867, Note_on_c, 3, 75, 127
1, 115000, Note_off_c, 0, 60, 127
1, 115003, Note_on_c, 11, 58, 127
1, 115136, Note_off_c, 11, 58, 127
1, 115136, Note_off_c, 7, 67, 127
1, 115138, Note_on_c, 10, 57, 127
1, 115138, Note_on_c, 5, 65, 127
1, 115176, Note_off_c, 3, 75, 127
1, 115176, Note_off_c, 0, 72, 127
1, 115271, Note_off_c, 10, 57, 127
1, 115274, Note_on_c, 7, 55, 127
1, 115407, Note_off_c, 7, 55, 127
1, 115409, Note_on_c, 10, 57, 127
1, 115409, Note_on_c, 0, 72, 127
1, 115409, Note_on_c, 3, 75, 127
1, 115542, Note_off_c, 10, 57, 127
1, 115545, Note_on_c, 5, 53, 127
1, 115677, Note_off_c, 3, 75, 127
1, 115677, Note_off_c, 0, 72, 127
1, 115678, Note_off_c, 5, 53, 127
1, 115680, Note_on_c, 11, 46, 127
1, 115680, Note_on_c, 0, 72, 127
1, 115680, Note_on_c, 3, 75, 127
1, 115813, Note_off_c, 11, 46, 127
1, 115816, Note_on_c, 5, 53, 127
1, 115948, Note_off_c, 3, 75, 127
1, 115948, Note_off_c, 0, 72, 127
1, 115949, Note_off_c, 5, 53, 127
1, 115951, Note_on_c, 11, 58, 127
1, 115951, Note_on_c, 2, 74, 127
1, 115951, Note_on_c, 11, 70, 127
1, 116084, Note_off_c, 11, 58, 127
1, 116086, Note_on_c, 10, 57, 127
1, 116219, Note_off_c, 10, 57, 127
1, 116219, Note_off_c, 5, 65, 127
1, 116222, Note_on_c, 7, 55, 127
1, 116222, Note_on_c, 3, 63, 127
1, 116345, Note_off_c, 11, 70, 127
1, 116345, Note_off_c, 2, 74, 127
1, 116355, Note_off_c, 7, 55, 127
1, 116357, Note_on_c, 5, 53, 127
1, 116490, Note_off_c, 5, 53, 127
1, 116493, Note_on_c, 7, 55, 127
1, 116493, Note_on_c, 2, 74, 127
1, 116493, Note_on_c, 11, 70, 127
1, 116626, Note_off_c, 7, 55, 127
1, 116628, Note_on_c, 3, 51, 127
1, 116761, Note_off_c, 3, 51, 127
1, 116761, Note_off_c, 11, 70, 127
1, 116761, Note_off_c, 2, 74, 127
1, 116764, Note_on_c, 10, 45, 127
1, 116764, Note_on_c, 2, 74, 127
1, 116764, Note_on_c, 11, 70, 127
1, 116897, Note_off_c, 10, 45, 127
1, 116899, Note_on_c, 0, 48, 127
1, 117032, Note_off_c, 0, 48, 127
1, 117032, Note_off_c, 11, 70, 127
1, 117032, Note_off_c, 2, 74, 127
1, 117035, Note_on_c, 10, 57, 127
1, 117035, Note_on_c, 10, 69, 127
1, 117035, Note_on_c, 0, 72, 127
1, 117168, Note_off_c, 10, 57, 127
1, 117170, Note_on_c, 7, 55, 127
1, 117303, Note_off_c, 7, 55, 127
1, 117303, Note_off_c, 3, 63, 127
1, 117306, Note_on_c, 6, 54, 127
1, 117306, Note_on_c, 2, 62, 127
1, 117439, Note_off_c, 6, 54, 127
1, 117441, Note_on_c, 4, 52, 127
1, 117513, Note_off_c, 0, 72, 127
1, 117513, Note_off_c, 10, 69, 127
1, 117574, Note_off_c, 4, 52, 127
1, 117576, Note_on_c, 6, 54, 127
1, 117576, Note_on_c, 0, 72, 127
1, 117576, Note_on_c, 10, 69, 127
1, 117709, Note_off_c, 6, 54, 127
1, 117712, Note_on_c, 2, 50, 127
1, 117844, Note_off_c, 10, 69, 127
1, 117844, Note_off_c, 0, 72, 127
1, 117845, Note_off_c, 2, 50, 127
1, 117847, Note_on_c, 7, 43, 127
1, 117847, Note_on_c, 0, 72, 127
1, 117847, Note_on_c, 10, 69, 127
1, 117982, Note_off_c, 7, 43, 127
1, 117985, Note_on_c, 2, 50, 127
1, 118120, Note_off_c, 2, 50, 127
1, 118120, Note_off_c, 10, 69, 127
1, 118120, Note_off_c, 0, 72, 127
1, 118122, Note_on_c, 7, 55, 127
1, 118122, Note_on_c, 7, 67, 127
1, 118122, Note_on_c, 11, 70, 127
1, 118257, Note_off_c, 7, 55, 127
1, 118260, Note_on_c, 10, 57, 127
1, 118387, Note_off_c, 11, 70, 127
1, 118387, Note_off_c, 7, 67, 127
1, 118392, Note_off_c, 2, 62, 127
1, 118395, Note_off_c, 10, 57, 127
1, 118398, Note_on_c, 11, 82, 127
1, 118398, Note_on_c, 7, 55, 127
1, 118533, Note_off_c, 7, 55, 127
1, 118535, Note_on_c, 2, 74, 127
1, 118535, Note_on_c, 5, 53, 127
1, 118670, Note_off_c, 5, 53, 127
1, 118670, Note_off_c, 2, 74, 127
1, 118673, Note_on_c, 7, 79, 127
1, 118673, Note_on_c, 3, 51, 127
1, 118808, Note_off_c, 3, 51, 127
1, 118808, Note_off_c, 7, 79, 127
1, 118811, Note_on_c, 5, 77, 127
1, 118811, Note_on_c, 2, 50, 127
1, 118946, Note_off_c, 2, 50, 127
1, 118946, Note_off_c, 5, 77, 127
1, 118948, Note_on_c, 3, 75, 127
1, 118948, Note_on_c, 0, 48, 127
1, 119082, Note_on_c, 7, 55, 127
1, 119083, Note_off_c, 0, 48, 127
1, 119215, Note_on_c, 0, 60, 127
1, 119215, Note_on_c, 10, 81, 127
1, 119217, Note_off_c, 7, 55, 127
1, 119221, Note_off_c, 11, 82, 127
1, 119350, Note_off_c, 10, 81, 127
1, 119350, Note_off_c, 0, 60, 127
1, 119353, Note_on_c, 2, 62, 127
1, 119353, Note_on_c, 7, 79, 127
1, 119487, Note_off_c, 7, 79, 127
1, 119487, Note_off_c, 2, 62, 127
1, 119488, Note_off_c, 3, 75, 127
1, 119489, Note_on_c, 0, 60, 127
1, 119489, Note_on_c, 10, 81, 127
1, 119624, Note_off_c, 10, 81, 127
1, 119624, Note_off_c, 0, 60, 127
1, 119627, Note_on_c, 11, 58, 127
1, 119627, Note_on_c, 6, 78, 127
1, 119762, Note_off_c, 6, 78, 127
1, 119762, Note_off_c, 11, 58, 127
1, 119764, Note_on_c, 10, 57, 127
1, 119764, Note_on_c, 7, 79, 127
1, 119899, Note_off_c, 7, 79, 127
1, 119899, Note_off_c, 10, 57, 127
1, 119902, Note_on_c, 7, 55, 127
1, 119902, Note_on_c, 10, 81, 127
1, 120037, Note_off_c, 10, 81, 127
1, 120037, Note_off_c, 7, 55, 127
1, 120048, Note_on_c, 6, 54, 127
1, 120048, Note_on_c, 0, 72, 127
1, 120131, Note_off_c, 0, 72, 127
1, 120131, Note_on_c, 2, 74, 127
1, 120182, Note_off_c, 6, 54, 127
1, 120184, Note_on_c, 2, 62, 127
1, 120212, Note_off_c, 2, 74, 127
1, 120213, Note_on_c, 3, 75, 127
1, 120284, Note_off_c, 3, 75, 127
1, 120284, Note_on_c, 2, 74, 127
1, 120318, Note_off_c, 2, 62, 127
1, 120321, Note_on_c, 1, 61, 127
1, 120355, Note_off_c, 2, 74, 127
1, 120356, Note_on_c, 3, 75, 127
1, 120416, Note_off_c, 3, 75, 127
1, 120416, Note_on_c, 2, 74, 127
1, 120455, Note_off_c, 1, 61, 127
1, 120457, Note_on_c, 2, 62, 127
1, 120475, Note_off_c, 2, 74, 127
1, 120476, Note_on_c, 3, 75, 127
1, 120536, Note_off_c, 3, 75, 127
1, 120537, Note_on_c, 2, 74, 127
1, 120591, Note_off_c, 2, 62, 127
1, 120594, Note_on_c, 2, 50, 127
1, 120596, Note_off_c, 2, 74, 127
1, 120597, Note_on_c, 3, 75, 127
1, 120656, Note_off_c, 3, 75, 127
1, 120657, Note_on_c, 2, 74, 127
1, 120716, Note_off_c, 2, 74, 127
1, 120717, Note_on_c, 3, 75, 127
1, 120728, Note_off_c, 2, 50, 127
1, 120730, Note_on_c, 6, 54, 127
1, 120774, Note_off_c, 3, 75, 127
1, 120774, Note_on_c, 2, 74, 127
1, 120834, Note_off_c, 2, 74, 127
1, 120835, Note_on_c, 3, 75, 127
1, 120863, Note_off_c, 6, 54, 127
1, 120866, Note_on_c, 4, 52, 127
1, 120893, Note_off_c, 3, 75, 127
1, 120894, Note_on_c, 2, 74, 127
1, 120953, Note_off_c, 2, 74, 127
1, 120954, Note_on_c, 3, 75, 127
1, 121000, Note_off_c, 4, 52, 127
1, 121002, Note_on_c, 7, 55, 127
1, 121013, Note_off_c, 3, 75, 127
1, 121014, Note_on_c, 2, 74, 127
1, 121073, Note_off_c, 2, 74, 127
1, 121074, Note_on_c, 3, 75, 127
1, 121130, Note_off_c, 3, 75, 127
1, 121130, Note_on_c, 2, 74, 127
1, 121135, Note_off_c, 7, 55, 127
1, 121138, Note_on_c, 6, 54, 127
1, 121188, Note_off_c, 2, 74, 127
1, 121189, Note_on_c, 3, 75, 127
1, 121248, Note_off_c, 3, 75, 127
1, 121249, Note_on_c, 2, 74, 127
1, 121272, Note_off_c, 6, 54, 127
1, 121274, Note_on_c, 10, 57, 127
1, 121308, Note_off_c, 2, 74, 127
1, 121309, Note_on_c, 3, 75, 127
1, 121367, Note_off_c, 3, 75, 127
1, 121368, Note_on_c, 2, 74, 127
1, 121409, Note_off_c, 10, 57, 127
1, 121412, Note_on_c, 2, 50, 127
1, 121427, Note_off_c, 2, 74, 127
1, 121428, Note_on_c, 3, 75, 127
1, 121484, Note_off_c, 3, 75, 127
1, 121484, Note_on_c, 2, 74, 127
1, 121544, Note_off_c, 2, 74, 127
1, 121545, Note_off_c, 2, 50, 127
1, 121545, Note_on_c, 3, 75, 127
1, 121547, Note_on_c, 6, 54, 127
1, 121601, Note_off_c, 3, 75, 127
1, 121602, Note_on_c, 2, 74, 127
1, 121661, Note_off_c, 2, 74, 127
1, 121662, Note_on_c, 3, 75, 127
1, 121681, Note_off_c, 6, 54, 127
1, 121684, Note_on_c, 7, 55, 127
1, 121719, Note_off_c, 3, 75, 127
1, 121719, Note_on_c, 2, 74, 127
1, 121777, Note_off_c, 2, 74, 127
1, 121778, Note_on_c, 3, 75, 127
1, 121818, Note_off_c, 7, 55, 127
1, 121820, Note_on_c, 11, 58, 127
1, 121835, Note_off_c, 3, 75, 127
1, 121836, Note_on_c, 2, 74, 127
1, 121894, Note_off_c, 2, 74, 127
1, 121895, Note_on_c, 3, 75, 127
1, 121953, Note_off_c, 3, 75, 127
1, 121954, Note_off_c, 11, 58, 127
1, 121954, Note_on_c, 2, 74, 127
1, 121957, Note_on_c, 2, 50, 127
1, 122012, Note_off_c, 2, 74, 127
1, 122012, Note_on_c, 3, 75, 127
1, 122067, Note_off_c, 3, 75, 127
1, 122068, Note_on_c, 2, 74, 127
1, 122091, Note_off_c, 2, 50, 127
1, 122093, Note_on_c, 7, 55, 127
1, 122127, Note_off_c, 2, 74, 127
1, 122128, Note_on_c, 3, 75, 127
1, 122184, Note_off_c, 3, 75, 127
1, 122185, Note_on_c, 2, 74, 127
1, 122227, Note_off_c, 7, 55, 127
1, 122230, Note_on_c, 10, 57, 127
1, 122241, Note_off_c, 2, 74, 127
1, 122241, Note_on_c, 3, 75, 127
1, 122299, Note_off_c, 3, 75, 127
1, 122300, Note_on_c, 2, 74, 127
1, 122356, Note_off_c, 2, 74, 127
1, 122357, Note_on_c, 3, 75, 127
1, 122364, Note_off_c, 10, 57, 127
1, 122366, Note_on_c, 0, 60, 127
1, 122413, Note_off_c, 3, 75, 127
1, 122414, Note_on_c, 2, 74, 127
1, 122472, Note_off_c, 2, 74, 127
1, 122472, Note_on_c, 3, 75, 127
1, 122500, Note_off_c, 0, 60, 127
1, 122503, Note_on_c, 10, 57, 127
1, 122526, Note_off_c, 3, 75, 127
1, 122527, Note_on_c, 2, 74, 127
1, 122586, Note_off_c, 2, 74, 127
1, 122587, Note_on_c, 3, 75, 127
1, 122637, Note_off_c, 10, 57, 127
1, 122639, Note_on_c, 6, 54, 127
1, 122643, Note_off_c, 3, 75, 127
1, 122643, Note_on_c, 2, 74, 127
1, 122699, Note_off_c, 2, 74, 127
1, 122700, Note_on_c, 3, 75, 127
1, 122756, Note_off_c, 3, 75, 127
1, 122757, Note_on_c, 2, 74, 127
1, 122772, Note_off_c, 6, 54, 127
1, 122775, Note_on_c, 2, 50, 127
1, 122813, Note_off_c, 2, 74, 127
1, 122814, Note_on_c, 3, 75, 127
1, 122870, Note_off_c, 3, 75, 127
1, 122870, Note_on_c, 2, 74, 127
1, 122909, Note_off_c, 2, 50, 127
1, 122911, Note_on_c, 0, 60, 127
1, 122926, Note_off_c, 2, 74, 127
1, 122927, Note_on_c, 3, 75, 127
1, 122985, Note_off_c, 3, 75, 127
1, 122986, Note_on_c, 2, 74, 127
1, 123044, Note_off_c, 2, 74, 127
1, 123045, Note_off_c, 0, 60, 127
1, 123045, Note_on_c, 3, 75, 127
1, 123048, Note_on_c, 11, 58, 127
1, 123099, Note_off_c, 3, 75, 127
1, 123099, Note_on_c, 2, 74, 127
1, 123157, Note_off_c, 2, 74, 127
1, 123158, Note_on_c, 3, 75, 127
1, 123182, Note_off_c, 11, 58, 127
1, 123184, Note_on_c, 10, 57, 127
1, 123214, Note_off_c, 3, 75, 127
1, 123215, Note_on_c, 2, 74, 127
1, 123268, Note_off_c, 2, 74, 127
1, 123268, Note_on_c, 3, 75, 127
1, 123318, Note_off_c, 10, 57, 127
1, 123319, Note_off_c, 3, 75, 127
1, 123321, Note_on_c, 11, 58, 127
1, 123321, Note_on_c, 2, 74, 127
1, 123456, Note_off_c, 11, 58, 127
1, 123462, Note_on_c, 2, 62, 127
1, 123597, Note_off_c, 2, 62, 127
1, 123604, Note_on_c, 11, 58, 127
1, 123604, Note_on_c, 7, 67, 127
1, 123662, Note_off_c, 2, 74, 127
1, 123738, Note_off_c, 11, 58, 127
1, 123741, Note_on_c, 7, 55, 127
1, 123876, Note_off_c, 7, 55, 127
1, 123876, Note_off_c, 7, 67, 127
1, 123878, Note_on_c, 2, 50, 127
1, 123878, Note_on_c, 11, 70, 127
1, 124013, Note_off_c, 2, 50, 127
1, 124016, Note_on_c, 5, 53, 127
1, 124151, Note_off_c, 5, 53, 127
1, 124151, Note_off_c, 11, 70, 127
1, 124153, Note_on_c, 4, 52, 127
1, 124153, Note_on_c, 2, 74, 127
1, 124288, Note_off_c, 4, 52, 127
1, 124291, Note_on_c, 2, 50, 127
1, 124426, Note_off_c, 2, 50, 127
1, 124426, Note_off_c, 2, 74, 127
1, 124428, Note_on_c, 4, 52, 127
1, 124430, Note_on_c, 12, 71, 127
1, 124516, Note_off_c, 12, 71, 127
1, 124516, Note_on_c, 0, 72, 127
1, 124562, Note_off_c, 4, 52, 127
1, 124565, Note_on_c, 0, 60, 127
1, 124601, Note_off_c, 0, 72, 127
1, 124601, Note_on_c, 2, 74, 127
1, 124675, Note_off_c, 2, 74, 127
1, 124675, Note_on_c, 0, 72, 127
1, 124699, Note_off_c, 0, 60, 127
1, 124701, Note_on_c, 12, 59, 127
1, 124748, Note_off_c, 0, 72, 127
1, 124749, Note_on_c, 2, 74, 127
1, 124813, Note_off_c, 2, 74, 127
1, 124813, Note_on_c, 0, 72, 127
1, 124835, Note_off_c, 12, 59, 127
1, 124838, Note_on_c, 0, 60, 127
1, 124875, Note_off_c, 0, 72, 127
1, 124875, Note_on_c, 2, 74, 127
1, 124938, Note_off_c, 2, 74, 127
1, 124938, Note_on_c, 0, 72, 127
1, 124972, Note_off_c, 0, 60, 127
1, 124974, Note_on_c, 0, 48, 127
1, 125001, Note_off_c, 0, 72, 127
1, 125001, Note_on_c, 2, 74, 127
1, 125064, Note_off_c, 2, 74, 127
1, 125064, Note_on_c, 0, 72, 127
1, 125109, Note_off_c, 0, 48, 127
1, 125112, Note_on_c, 4, 52, 127
1, 125124, Note_off_c, 0, 72, 127
1, 125125, Note_on_c, 2, 74, 127
1, 125185, Note_off_c, 2, 74, 127
1, 125186, Note_on_c, 0, 72, 127
1, 125245, Note_off_c, 4, 52, 127
1, 125247, Note_on_c, 2, 50, 127
1, 125249, Note_off_c, 0, 72, 127
1, 125249, Note_on_c, 2, 74, 127
1, 125309, Note_off_c, 2, 74, 127
1, 125309, Note_on_c, 0, 72, 127
1, 125372, Note_off_c, 0, 72, 127
1, 125372, Note_on_c, 2, 74, 127
1, 125380, Note_off_c, 2, 50, 127
1, 125383, Note_on_c, 5, 53, 127
1, 125434, Note_off_c, 2, 74, 127
1, 125434, Note_on_c, 0, 72, 127
1, 125494, Note_off_c, 0, 72, 127
1, 125495, Note_on_c, 2, 74, 127
1, 125516, Note_off_c, 5, 53, 127
1, 125518, Note_on_c, 4, 52, 127
1, 125553, Note_off_c, 2, 74, 127
1, 125554, Note_on_c, 0, 72, 127
1, 125617, Note_off_c, 0, 72, 127
1, 125617, Note_on_c, 2, 74, 127
1, 125652, Note_off_c, 4, 52, 127
1, 125655, Note_on_c, 7, 55, 127
1, 125677, Note_off_c, 2, 74, 127
1, 125678, Note_on_c, 0, 72, 127
1, 125741, Note_off_c, 0, 72, 127
1, 125741, Note_on_c, 2, 74, 127
1, 125789, Note_off_c, 7, 55, 127
1, 125791, Note_on_c, 0, 48, 127
1, 125801, Note_off_c, 2, 74, 127
1, 125802, Note_on_c, 0, 72, 127
1, 125862, Note_off_c, 0, 72, 127
1, 125863, Note_on_c, 2, 74, 127
1, 125922, Note_off_c, 2, 74, 127
1, 125923, Note_on_c, 0, 72, 127
1, 125925, Note_off_c, 0, 48, 127
1, 125928, Note_on_c, 4, 52, 127
1, 125987, Note_off_c, 0, 72, 127
1, 125987, Note_on_c, 2, 74, 127
1, 126045, Note_off_c, 2, 74, 127
1, 126045, Note_on_c, 0, 72, 127
1, 126062, Note_off_c, 4, 52, 127
1, 126064, Note_on_c, 5, 53, 127
1, 126107, Note_off_c, 0, 72, 127
1, 126107, Note_on_c, 2, 74, 127
1, 126167, Note_off_c, 2, 74, 127
1, 126168, Note_on_c, 0, 72, 127
1, 126198, Note_off_c, 5, 53, 127
1, 126201, Note_on_c, 10, 57, 127
1, 126227, Note_off_c, 0, 72, 127
1, 126228, Note_on_c, 2, 74, 127
1, 126288, Note_off_c, 2, 74, 127
1, 126289, Note_on_c, 0, 72, 127
1, 126335, Note_off_c, 10, 57, 127
1, 126337, Note_on_c, 0, 48, 127
1, 126349, Note_off_c, 0, 72, 127
1, 126350, Note_on_c, 2, 74, 127
1, 126409, Note_off_c, 2, 74, 127
1, 126410, Note_on_c, 0, 72, 127
1, 126471, Note_off_c, 0, 48, 127
1, 126473, Note_off_c, 0, 72, 127
1, 126473, Note_on_c, 2, 74, 127
1, 126474, Note_on_c, 5, 53, 127
1, 126529, Note_off_c, 2, 74, 127
1, 126530, Note_on_c, 0, 72, 127
1, 126593, Note_off_c, 0, 72, 127
1, 126593, Note_on_c, 2, 74, 127
1, 126608, Note_off_c, 5, 53, 127
1, 126610, Note_on_c, 7, 55, 127
1, 126650, Note_on_c, 0, 72, 127
1, 126652, Note_off_c, 2, 74, 127
1, 126708, Note_off_c, 0, 72, 127
1, 126709, Note_on_c, 2, 74, 127
1, 126744, Note_off_c, 7, 55, 127
1, 126747, Note_on_c, 11, 58, 127
1, 126768, Note_on_c, 0, 72, 127
1, 126769, Note_off_c, 2, 74, 127
1, 126828, Note_off_c, 0, 72, 127
1, 126829, Note_on_c, 2, 74, 127
1, 126881, Note_off_c, 11, 58, 127
1, 126883, Note_on_c, 7, 55, 127
1, 126886, Note_off_c, 2, 74, 127
1, 126887, Note_on_c, 0, 72, 127
1, 126946, Note_on_c, 2, 74, 127
1, 126949, Note_off_c, 0, 72, 127
1, 127003, Note_off_c, 2, 74, 127
1, 127004, Note_on_c, 0, 72, 127
1, 127018, Note_off_c, 7, 55, 127
1, 127021, Note_on_c, 4, 52, 127
1, 127065, Note_on_c, 2, 74, 127
1, 127067, Note_off_c, 0, 72, 127
1, 127125, Note_off_c, 2, 74, 127
1, 127126, Note_on_c, 0, 72, 127
1, 127156, Note_off_c, 4, 52, 127
1, 127158, Note_on_c, 0, 48, 127
1, 127183, Note_on_c, 2, 74, 127
1, 127184, Note_off_c, 0, 72, 127
1, 127243, Note_off_c, 2, 74, 127
1, 127244, Note_on_c, 0, 72, 127
1, 127293, Note_off_c, 0, 48, 127
1, 127296, Note_on_c, 11, 58, 127
1, 127301, Note_off_c, 0, 72, 127
1, 127301, Note_on_c, 2, 74, 127
1, 127360, Note_on_c, 0, 72, 127
1, 127361, Note_off_c, 2, 74, 127
1, 127420, Note_off_c, 0, 72, 127
1, 127421, Note_on_c, 2, 74, 127
1, 127431, Note_off_c, 11, 58, 127
1, 127434, Note_on_c, 10, 57, 127
1, 127480, Note_on_c, 0, 72, 127
1, 127481, Note_off_c, 2, 74, 127
1, 127542, Note_off_c, 0, 72, 127
1, 127542, Note_on_c, 2, 74, 127
1, 127569, Note_off_c, 10, 57, 127
1, 127571, Note_on_c, 7, 55, 127
1, 127598, Note_off_c, 2, 74, 127
1, 127598, Note_on_c, 0, 72, 127
1, 127652, Note_on_c, 2, 74, 127
1, 127653, Note_off_c, 0, 72, 127
1, 127705, Note_off_c, 2, 74, 127
1, 127705, Note_off_c, 7, 55, 127
1, 127708, Note_on_c, 0, 72, 127
1, 127708, Note_on_c, 10, 57, 127
1, 127842, Note_off_c, 10, 57, 127
1, 127844, Note_on_c, 0, 60, 127
1, 127978, Note_off_c, 0, 60, 127
1, 127978, Note_off_c, 0, 72, 127
1, 127981, Note_on_c, 5, 65, 127
1, 127981, Note_on_c, 10, 57, 127
1, 128115, Note_off_c, 10, 57, 127
1, 128118, Note_on_c, 5, 53, 127
1, 128207, Note_off_c, 5, 65, 127
1, 128252, Note_off_c, 5, 53, 127
1, 128254, Note_on_c, 10, 69, 127
1, 128254, Note_on_c, 0, 48, 127
1, 128388, Note_off_c, 0, 48, 127
1, 128391, Note_on_c, 3, 51, 127
1, 128480, Note_off_c, 10, 69, 127
1, 128525, Note_off_c, 3, 51, 127
1, 128528, Note_on_c, 0, 72, 127
1, 128528, Note_on_c, 2, 50, 127
1, 128662, Note_off_c, 2, 50, 127
1, 128665, Note_on_c, 0, 48, 127
1, 128754, Note_off_c, 0, 72, 127
1, 128799, Note_off_c, 0, 48, 127
1, 128801, Note_on_c, 5, 77, 127
1, 128801, Note_on_c, 2, 50, 127
1, 128935, Note_off_c, 2, 50, 127
1, 128939, Note_on_c, 5, 53, 127
1, 129073, Note_off_c, 5, 53, 127
1, 129075, Note_on_c, 5, 65, 127
1, 129075, Note_on_c, 2, 50, 127
1, 129209, Note_off_c, 2, 50, 127
1, 129212, Note_on_c, 11, 46, 127
1, 129316, Note_off_c, 5, 65, 127
1, 129341, Note_off_c, 5, 77, 127
1, 129346, Note_off_c, 11, 46, 127
1, 129349, Note_on_c, 11, 70, 127
1, 129349, Note_on_c, 7, 43, 127
1, 129483, Note_off_c, 7, 43, 127
1, 129485, Note_on_c, 11, 46, 127
1, 129619, Note_off_c, 11, 46, 127
1, 129622, Note_on_c, 2, 62, 127
1, 129622, Note_on_c, 10, 45, 127
1, 129756, Note_off_c, 10, 45, 127
1, 129759, Note_on_c, 7, 43, 127
1, 129863, Note_off_c, 2, 62, 127
1, 129893, Note_off_c, 7, 43, 127
1, 129896, Note_on_c, 4, 64, 127
1, 129896, Note_on_c, 0, 48, 127
1, 130030, Note_off_c, 0, 48, 127
1, 130030, Note_off_c, 4, 64, 127
1, 130033, Note_on_c, 7, 67, 127
1, 130033, Note_on_c, 4, 52, 127
1, 130167, Note_off_c, 4, 52, 127
1, 130167, Note_off_c, 7, 67, 127
1, 130170, Note_on_c, 4, 64, 127
1, 130170, Note_on_c, 0, 48, 127
1, 130304, Note_off_c, 0, 48, 127
1, 130304, Note_off_c, 4, 64, 127
1, 130306, Note_on_c, 0, 60, 127
1, 130306, Note_on_c, 10, 45, 127
1, 130398, Note_off_c, 11, 70, 127
1, 130440, Note_off_c, 10, 45, 127
1, 130440, Note_off_c, 0, 60, 127
1, 130444, Note_on_c, 10, 69, 127
1, 130444, Note_on_c, 5, 41, 127
1, 130578, Note_off_c, 5, 41, 127
1, 130580, Note_on_c, 10, 45, 127
1, 130714, Note_off_c, 10, 45, 127
1, 130717, Note_on_c, 0, 60, 127
1, 130717, Note_on_c, 7, 43, 127
1, 130851, Note_off_c, 7, 43, 127
1, 130854, Note_on_c, 5, 41, 127
1, 130987, Note_off_c, 0, 60, 127
1, 130988, Note_off_c, 5, 41, 127
1, 130991, Note_on_c, 2, 62, 127
1, 130991, Note_on_c, 11, 46, 127
1, 131124, Note_off_c, 2, 62, 127
1, 131127, Note_on_c, 5, 65, 127
1, 131259, Note_off_c, 11, 46, 127
1, 131260, Note_off_c, 5, 65, 127
1, 131262, Note_on_c, 2, 62, 127
1, 131262, Note_on_c, 0, 48, 127
1, 131395, Note_off_c, 2, 62, 127
1, 131398, Note_on_c, 0, 60, 127
1, 131530, Note_off_c, 0, 48, 127
1, 131531, Note_off_c, 0, 60, 127
1, 131533, Note_on_c, 11, 58, 127
1, 131533, Note_on_c, 2, 50, 127
1, 131625, Note_off_c, 10, 69, 127
1, 131670, Note_on_c, 10, 69, 127
1, 131802, Note_off_c, 2, 50, 127
1, 131803, Note_off_c, 10, 69, 127
1, 131805, Note_on_c, 7, 67, 127
1, 131805, Note_on_c, 11, 46, 127
1, 131938, Note_off_c, 7, 67, 127
1, 131941, Note_on_c, 5, 65, 127
1, 132073, Note_off_c, 11, 46, 127
1, 132074, Note_off_c, 5, 65, 127
1, 132076, Note_on_c, 4, 64, 127
1, 132076, Note_on_c, 0, 48, 127
1, 132209, Note_off_c, 4, 64, 127
1, 132212, Note_on_c, 7, 67, 127
1, 132344, Note_off_c, 0, 48, 127
1, 132345, Note_off_c, 7, 67, 127
1, 132347, Note_on_c, 4, 64, 127
1, 132347, Note_on_c, 2, 50, 127
1, 132480, Note_off_c, 4, 64, 127
1, 132482, Note_on_c, 2, 62, 127
1, 132615, Note_off_c, 2, 62, 127
1, 132615, Note_off_c, 2, 50, 127
1, 132618, Note_on_c, 0, 60, 127
1, 132618, Note_on_c, 4, 52, 127
1, 132746, Note_off_c, 11, 58, 127
1, 132753, Note_on_c, 11, 58, 127
1, 132886, Note_off_c, 11, 58, 127
1, 132886, Note_off_c, 4, 52, 127
1, 132889, Note_on_c, 10, 57, 127
1, 132889, Note_on_c, 0, 48, 127
1, 133022, Note_off_c, 10, 57, 127
1, 133024, Note_on_c, 7, 55, 127
1, 133157, Note_off_c, 7, 55, 127
1, 133157, Note_off_c, 0, 48, 127
1, 133160, Note_on_c, 10, 57, 127
1, 133160, Note_on_c, 0, 36, 127
1, 133280, Note_off_c, 0, 60, 127
1, 133304, Note_on_c, 0, 60, 127
1, 133427, Note_off_c, 0, 36, 127
1, 133437, Note_off_c, 0, 60, 127
1, 133439, Note_on_c, 5, 65, 127
1, 133439, Note_on_c, 10, 45, 127
1, 133572, Note_off_c, 5, 65, 127
1, 133574, Note_on_c, 4, 64, 127
1, 133707, Note_off_c, 4, 64, 127
1, 133707, Note_off_c, 10, 45, 127
1, 133710, Note_on_c, 2, 62, 127
1, 133710, Note_on_c, 11, 46, 127
1, 133836, Note_off_c, 10, 57, 127
1, 133843, Note_off_c, 2, 62, 127
1, 133845, Note_on_c, 0, 60, 127
1, 133978, Note_off_c, 0, 60, 127
1, 133978, Note_off_c, 11, 46, 127
1, 133981, Note_on_c, 11, 58, 127
1, 133981, Note_on_c, 2, 50, 127
1, 134114, Note_off_c, 11, 58, 127
1, 134116, Note_on_c, 10, 57, 127
1, 134241, Note_off_c, 2, 50, 127
1, 134249, Note_off_c, 10, 57, 127
1, 134252, Note_on_c, 11, 58, 127
1, 134252, Note_on_c, 0, 36, 127
1, 134396, Note_on_c, 4, 64, 127
1, 134529, Note_off_c, 4, 64, 127
1, 134531, Note_on_c, 7, 67, 127
1, 134531, Note_on_c, 11, 46, 127
1, 134646, Note_off_c, 11, 58, 127
1, 134664, Note_off_c, 7, 67, 127
1, 134666, Note_on_c, 5, 65, 127
1, 134730, Note_off_c, 0, 36, 127
1, 134799, Note_off_c, 5, 65, 127
1, 134799, Note_off_c, 11, 46, 127
1, 134802, Note_on_c, 4, 64, 127
1, 134802, Note_on_c, 0, 48, 127
1, 134935, Note_off_c, 4, 64, 127
1, 134937, Note_on_c, 2, 62, 127
1, 135070, Note_off_c, 2, 62, 127
1, 135070, Note_off_c, 0, 48, 127
1, 135073, Note_on_c, 0, 60, 127
1, 135073, Note_on_c, 4, 52, 127
1, 135206, Note_off_c, 0, 60, 127
1, 135208, Note_on_c, 11, 58, 127
1, 135326, Note_off_c, 4, 52, 127
1, 135341, Note_off_c, 11, 58, 127
1, 135344, Note_on_c, 0, 60, 127
1, 135344, Note_on_c, 0, 36, 127
1, 135488, Note_on_c, 5, 65, 127
1, 135547, Note_off_c, 0, 60, 127
1, 135621, Note_off_c, 5, 65, 127
1, 135623, Note_on_c, 10, 69, 127
1, 135623, Note_on_c, 0, 48, 127
1, 135756, Note_off_c, 10, 69, 127
1, 135758, Note_on_c, 7, 67, 127
1, 135851, Note_off_c, 0, 36, 127
1, 135891, Note_off_c, 7, 67, 127
1, 135891, Note_off_c, 0, 48, 127
1, 135894, Note_on_c, 5, 65, 127
1, 135894, Note_on_c, 2, 50, 127
1, 136027, Note_off_c, 5, 65, 127
1, 136029, Note_on_c, 4, 64, 127
1, 136162, Note_off_c, 4, 64, 127
1, 136162, Note_off_c, 2, 50, 127
1, 136165, Note_on_c, 2, 62, 127
1, 136165, Note_on_c, 5, 53, 127
1, 136298, Note_off_c, 2, 62, 127
1, 136300, Note_on_c, 0, 60, 127
1, 136411, Note_off_c, 5, 53, 127
1, 136434, Note_off_c, 0, 60, 127
1, 136437, Note_on_c, 2, 62, 127
1, 136437, Note_on_c, 0, 36, 127
1, 136579, Note_off_c, 2, 62, 127
1, 136581, Note_on_c, 5, 65, 127
1, 136714, Note_off_c, 5, 65, 127
1, 136716, Note_on_c, 11, 70, 127
1, 136716, Note_on_c, 2, 50, 127
1, 136849, Note_off_c, 11, 70, 127
1, 136851, Note_on_c, 10, 69, 127
1, 136972, Note_off_c, 0, 36, 127
1, 136984, Note_off_c, 10, 69, 127
1, 136984, Note_off_c, 2, 50, 127
1, 136987, Note_on_c, 7, 67, 127
1, 136987, Note_on_c, 4, 52, 127
1, 137120, Note_off_c, 7, 67, 127
1, 137122, Note_on_c, 5, 65, 127
1, 137255, Note_off_c, 5, 65, 127
1, 137255, Note_off_c, 4, 52, 127
1, 137258, Note_on_c, 4, 64, 127
1, 137258, Note_on_c, 7, 55, 127
1, 137391, Note_off_c, 4, 64, 127
1, 137393, Note_on_c, 2, 62, 127
1, 137497, Note_off_c, 7, 55, 127
1, 137526, Note_off_c, 2, 62, 127
1, 137529, Note_on_c, 4, 64, 127
1, 137529, Note_on_c, 0, 36, 127
1, 137681, Note_on_c, 0, 60, 127
1, 137796, Note_off_c, 4, 64, 127
1, 137814, Note_off_c, 0, 60, 127
1, 137816, Note_on_c, 4, 64, 127
1, 137949, Note_off_c, 4, 64, 127
1, 137952, Note_on_c, 7, 67, 127
1, 138085, Note_off_c, 7, 67, 127
1, 138087, Note_on_c, 11, 70, 127
1, 138205, Note_off_c, 0, 36, 127
1, 138220, Note_off_c, 11, 70, 127
1, 138223, Note_on_c, 0, 72, 127
1, 138356, Note_off_c, 0, 72, 127
1, 138358, Note_on_c, 4, 76, 127
1, 138491, Note_off_c, 4, 76, 127
1, 138494, Note_on_c, 7, 79, 127
1, 138627, Note_off_c, 7, 79, 127
1, 138629, Note_on_c, 10, 81, 127
1, 138901, Note_off_c, 10, 81, 127
1, 138903, Note_on_c, 5, 65, 127
1, 138903, Note_on_c, 10, 69, 127
1, 138903, Note_on_c, 2, 74, 127
1, 139175, Note_off_c, 2, 74, 127
1, 139175, Note_off_c, 10, 69, 127
1, 139175, Note_off_c, 5, 65, 127
1, 139177, Note_on_c, 5, 65, 127
1, 139177, Note_on_c, 10, 69, 127
1, 139177, Note_on_c, 4, 76, 127
1, 139312, Note_off_c, 4, 76, 127
1, 139315, Note_on_c, 2, 74, 127
1, 139450, Note_off_c, 2, 74, 127
1, 139450, Note_off_c, 10, 69, 127
1, 139450, Note_off_c, 5, 65, 127
1, 139452, Note_on_c, 5, 65, 127
1, 139452, Note_on_c, 10, 69, 127
1, 139452, Note_on_c, 1, 73, 127
1, 139587, Note_off_c, 1, 73, 127
1, 139590, Note_on_c, 2, 74, 127
1, 139725, Note_off_c, 10, 69, 127
1, 139725, Note_off_c, 5, 65, 127
1, 139727, Note_on_c, 7, 67, 127
1, 139727, Note_on_c, 4, 64, 127
1, 139863, Note_off_c, 2, 74, 127
1, 139865, Note_on_c, 7, 79, 127
1, 140000, Note_off_c, 7, 79, 127
1, 140000, Note_off_c, 4, 64, 127
1, 140000, Note_off_c, 7, 67, 127
1, 140003, Note_on_c, 7, 67, 127
1, 140003, Note_on_c, 4, 64, 127
1, 140003, Note_on_c, 2, 74, 127
1, 140138, Note_off_c, 2, 74, 127
1, 140140, Note_on_c, 12, 71, 127
1, 140275, Note_off_c, 12, 71, 127
1, 140276, Note_off_c, 4, 64, 127
1, 140276, Note_off_c, 7, 67, 127
1, 140278, Note_on_c, 7, 67, 127
1, 140278, Note_on_c, 4, 64, 127
1, 140278, Note_on_c, 0, 72, 127
1, 140411, Note_off_c, 0, 72, 127
1, 140415, Note_on_c, 12, 71, 127
1, 140550, Note_off_c, 12, 71, 127
1, 140551, Note_off_c, 4, 64, 127
1, 140551, Note_off_c, 7, 67, 127
1, 140553, Note_on_c, 7, 67, 127
1, 140553, Note_on_c, 4, 64, 127
1, 140553, Note_on_c, 0, 72, 127
1, 140688, Note_off_c, 0, 72, 127
1, 140690, Note_on_c, 4, 76, 127
1, 140825, Note_off_c, 4, 76, 127
1, 140828, Note_on_c, 5, 77, 127
1, 140953, Note_off_c, 4, 64, 127
1, 140953, Note_off_c, 7, 67, 127
1, 141100, Note_off_c, 5, 77, 127
1, 141102, Note_on_c, 5, 65, 127
1, 141102, Note_on_c, 2, 62, 127
1, 141102, Note_on_c, 11, 70, 127
1, 141374, Note_off_c, 11, 70, 127
1, 141374, Note_off_c, 2, 62, 127
1, 141374, Note_off_c, 5, 65, 127
1, 141376, Note_on_c, 5, 65, 127
1, 141376, Note_on_c, 2, 62, 127
1, 141376, Note_on_c, 0, 72, 127
1, 141511, Note_off_c, 0, 72, 127
1, 141513, Note_on_c, 11, 70, 127
1, 141648, Note_off_c, 11, 70, 127
1, 141649, Note_off_c, 2, 62, 127
1, 141649, Note_off_c, 5, 65, 127
1, 141651, Note_on_c, 5, 65, 127
1, 141651, Note_on_c, 2, 62, 127
1, 141651, Note_on_c, 10, 69, 127
1, 141786, Note_off_c, 10, 69, 127
1, 141789, Note_on_c, 11, 70, 127
1, 141924, Note_off_c, 2, 62, 127
1, 141924, Note_off_c, 5, 65, 127
1, 141926, Note_on_c, 0, 60, 127
1, 141926, Note_on_c, 3, 63, 127
1, 142062, Note_off_c, 11, 70, 127
1, 142064, Note_on_c, 3, 75, 127
1, 142199, Note_off_c, 3, 75, 127
1, 142199, Note_off_c, 3, 63, 127
1, 142199, Note_off_c, 0, 60, 127
1, 142201, Note_on_c, 3, 63, 127
1, 142201, Note_on_c, 0, 60, 127
1, 142201, Note_on_c, 11, 70, 127
1, 142336, Note_off_c, 11, 70, 127
1, 142339, Note_on_c, 7, 67, 127
1, 142474, Note_off_c, 7, 67, 127
1, 142474, Note_off_c, 0, 60, 127
1, 142474, Note_off_c, 3, 63, 127
1, 142476, Note_on_c, 3, 63, 127
1, 142476, Note_on_c, 0, 60, 127
1, 142476, Note_on_c, 10, 69, 127
1, 142611, Note_off_c, 10, 69, 127
1, 142614, Note_on_c, 7, 67, 127
1, 142749, Note_off_c, 7, 67, 127
1, 142749, Note_off_c, 0, 60, 127
1, 142749, Note_off_c, 3, 63, 127
1, 142751, Note_on_c, 0, 60, 127
1, 142751, Note_on_c, 3, 63, 127
1, 142751, Note_on_c, 10, 69, 127
1, 142886, Note_off_c, 10, 69, 127
1, 142889, Note_on_c, 0, 72, 127
1, 143024, Note_off_c, 0, 72, 127
1, 143027, Note_on_c, 2, 74, 127
1, 143151, Note_off_c, 3, 63, 127
1, 143151, Note_off_c, 0, 60, 127
1, 143299, Note_off_c, 2, 74, 127
1, 143301, Note_on_c, 11, 58, 127
1, 143301, Note_on_c, 2, 62, 127
1, 143301, Note_on_c, 7, 67, 127
1, 143573, Note_off_c, 7, 67, 127
1, 143573, Note_off_c, 2, 62, 127
1, 143573, Note_off_c, 11, 58, 127
1, 143575, Note_on_c, 2, 62, 127
1, 143575, Note_on_c, 11, 58, 127
1, 143575, Note_on_c, 10, 69, 127
1, 143710, Note_off_c, 10, 69, 127
1, 143712, Note_on_c, 7, 67, 127
1, 143847, Note_off_c, 7, 67, 127
1, 143848, Note_off_c, 11, 58, 127
1, 143848, Note_off_c, 2, 62, 127
1, 143850, Note_on_c, 2, 62, 127
1, 143850, Note_on_c, 11, 58, 127
1, 143850, Note_on_c, 6, 66, 127
1, 143985, Note_off_c, 6, 66, 127
1, 143987, Note_on_c, 7, 67, 127
1, 144123, Note_off_c, 11, 58, 127
1, 144123, Note_off_c, 2, 62, 127
1, 144125, Note_on_c, 0, 60, 127
1, 144125, Note_on_c, 10, 57, 127
1, 144260, Note_off_c, 7, 67, 127
1, 144262, Note_on_c, 0, 72, 127
1, 144397, Note_off_c, 0, 72, 127
1, 144398, Note_off_c, 10, 57, 127
1, 144398, Note_off_c, 0, 60, 127
1, 144400, Note_on_c, 0, 60, 127
1, 144400, Note_on_c, 10, 57, 127
1, 144400, Note_on_c, 7, 67, 127
1, 144535, Note_off_c, 7, 67, 127
1, 144537, Note_on_c, 4, 64, 127
1, 144672, Note_off_c, 4, 64, 127
1, 144673, Note_off_c, 10, 57, 127
1, 144673, Note_off_c, 0, 60, 127
1, 144675, Note_on_c, 0, 60, 127
1, 144675, Note_on_c, 10, 57, 127
1, 144675, Note_on_c, 7, 67, 127
1, 144745, Note_off_c, 7, 67, 127
1, 144747, Note_on_c, 5, 65, 127
1, 144817, Note_off_c, 5, 65, 127
1, 144820, Note_on_c, 4, 64, 127
1, 144945, Note_off_c, 10, 57, 127
1, 144945, Note_off_c, 0, 60, 127
1, 144946, Note_off_c, 4, 64, 127
1, 144948, Note_on_c, 0, 60, 127
1, 144948, Note_on_c, 10, 57, 127
1, 144948, Note_on_c, 5, 65, 127
1, 145083, Note_off_c, 5, 65, 127
1, 145086, Note_on_c, 10, 69, 127
1, 145218, Note_off_c, 10, 57, 127
1, 145218, Note_off_c, 0, 60, 127
1, 145220, Note_off_c, 10, 69, 127
1, 145230, Note_on_c, 10, 69, 127
1, 145299, Note_on_c, 11, 70, 127
1, 145307, Note_off_c, 10, 69, 127
1, 145366, Note_off_c, 11, 70, 127
1, 145368, Note_on_c, 2, 62, 127
1, 145368, Note_on_c, 0, 72, 127
1, 145434, Note_off_c, 0, 72, 127
1, 145436, Note_on_c, 11, 70, 127
1, 145502, Note_off_c, 11, 70, 127
1, 145502, Note_off_c, 2, 62, 127
1, 145505, Note_on_c, 4, 64, 127
1, 145505, Note_on_c, 0, 72, 127
1, 145571, Note_off_c, 0, 72, 127
1, 145573, Note_on_c, 11, 70, 127
1, 145639, Note_off_c, 11, 70, 127
1, 145639, Note_off_c, 4, 64, 127
1, 145641, Note_on_c, 5, 65, 127
1, 145641, Note_on_c, 0, 72, 127
1, 145707, Note_off_c, 0, 72, 127
1, 145709, Note_on_c, 11, 70, 127
1, 145775, Note_off_c, 11, 70, 127
1, 145775, Note_off_c, 5, 65, 127
1, 145778, Note_on_c, 7, 55, 127
1, 145778, Note_on_c, 0, 72, 127
1, 145844, Note_off_c, 0, 72, 127
1, 145846, Note_on_c, 11, 70, 127
1, 145912, Note_off_c, 11, 70, 127
1, 145912, Note_off_c, 7, 55, 127
1, 145914, Note_on_c, 4, 64, 127
1, 145914, Note_on_c, 0, 72, 127
1, 145980, Note_off_c, 0, 72, 127
1, 145982, Note_on_c, 11, 70, 127
1, 146048, Note_off_c, 11, 70, 127
1, 146048, Note_off_c, 4, 64, 127
1, 146051, Note_on_c, 5, 53, 127
1, 146051, Note_on_c, 0, 72, 127
1, 146117, Note_off_c, 0, 72, 127
1, 146119, Note_on_c, 11, 70, 127
1, 146185, Note_off_c, 5, 53, 127
1, 146187, Note_on_c, 2, 62, 127
1, 146322, Note_off_c, 2, 62, 127
1, 146325, Note_on_c, 4, 52, 127
1, 146460, Note_off_c, 4, 52, 127
1, 146460, Note_off_c, 11, 70, 127
1, 146462, Note_on_c, 7, 55, 127
1, 146462, Note_on_c, 7, 79, 127
1, 146597, Note_off_c, 7, 79, 127
1, 146597, Note_off_c, 7, 55, 127
1, 146600, Note_on_c, 0, 60, 127
1, 146600, Note_on_c, 4, 76, 127
1, 146735, Note_off_c, 4, 76, 127
1, 146737, Note_on_c, 0, 72, 127
1, 146872, Note_off_c, 0, 72, 127
1, 146875, Note_on_c, 11, 70, 127
1, 147010, Note_off_c, 11, 70, 127
1, 147012, Note_on_c, 7, 79, 127
1, 147147, Note_off_c, 7, 79, 127
1, 147150, Note_on_c, 4, 76, 127
1, 147285, Note_off_c, 4, 76, 127
1, 147286, Note_off_c, 0, 60, 127
1, 147287, Note_on_c, 0, 72, 127
1, 147422, Note_off_c, 0, 72, 127
1, 147425, Note_on_c, 10, 69, 127
1, 147491, Note_off_c, 10, 69, 127
1, 147493, Note_on_c, 11, 70, 127
1, 147559, Note_off_c, 11, 70, 127
1, 147561, Note_on_c, 7, 55, 127
1, 147561, Note_on_c, 0, 72, 127
1, 147627, Note_off_c, 0, 72, 127
1, 147630, Note_on_c, 11, 70, 127
1, 147695, Note_off_c, 7, 55, 127
1, 147696, Note_off_c, 11, 70, 127
1, 147698, Note_on_c, 5, 53, 127
1, 147698, Note_on_c, 0, 72, 127
1, 147764, Note_off_c, 0, 72, 127
1, 147765, Note_on_c, 11, 70, 127
1, 147831, Note_off_c, 11, 70, 127
1, 147832, Note_off_c, 5, 53, 127
1, 147832, Note_on_c, 0, 72, 127
1, 147834, Note_on_c, 4, 52, 127
1, 147897, Note_off_c, 0, 72, 127
1, 147899, Note_on_c, 11, 70, 127
1, 147965, Note_off_c, 11, 70, 127
1, 147965, Note_on_c, 0, 72, 127
1, 147968, Note_off_c, 4, 52, 127
1, 147971, Note_on_c, 0, 60, 127
1, 148030, Note_off_c, 0, 72, 127
1, 148030, Note_on_c, 11, 70, 127
1, 148095, Note_off_c, 11, 70, 127
1, 148095, Note_on_c, 0, 72, 127
1, 148105, Note_off_c, 0, 60, 127
1, 148107, Note_on_c, 4, 52, 127
1, 148160, Note_off_c, 0, 72, 127
1, 148160, Note_on_c, 11, 70, 127
1, 148224, Note_on_c, 0, 72, 127
1, 148226, Note_off_c, 11, 70, 127
1, 148241, Note_off_c, 4, 52, 127
1, 148244, Note_on_c, 2, 62, 127
1, 148288, Note_on_c, 11, 70, 127
1, 148290, Note_off_c, 0, 72, 127
1, 148353, Note_on_c, 0, 72, 127
1, 148355, Note_off_c, 11, 70, 127
1, 148379, Note_off_c, 2, 62, 127
1, 148382, Note_on_c, 2, 50, 127
1, 148417, Note_on_c, 11, 70, 127
1, 148419, Note_off_c, 0, 72, 127
1, 148517, Note_off_c, 2, 50, 127
1, 148519, Note_on_c, 4, 64, 127
1, 148601, Note_off_c, 11, 70, 127
1, 148656, Note_on_c, 7, 79, 127
1, 148791, Note_off_c, 7, 79, 127
1, 148791, Note_off_c, 4, 64, 127
1, 148793, Note_on_c, 0, 48, 127
1, 148793, Note_on_c, 4, 76, 127
1, 148928, Note_off_c, 4, 76, 127
1, 148931, Note_on_c, 0, 72, 127
1, 149066, Note_off_c, 0, 72, 127
1, 149068, Note_on_c, 11, 70, 127
1, 149193, Note_off_c, 0, 48, 127
1, 149203, Note_off_c, 11, 70, 127
1, 149206, Note_on_c, 7, 79, 127
1, 149341, Note_off_c, 7, 79, 127
1, 149343, Note_on_c, 4, 76, 127
1, 149478, Note_off_c, 4, 76, 127
1, 149481, Note_on_c, 0, 72, 127
1, 149616, Note_off_c, 0, 72, 127
1, 149622, Note_on_c, 10, 69, 127
1, 149771, Note_on_c, 5, 65, 127
1, 149890, Note_off_c, 10, 69, 127
1, 149904, Note_off_c, 5, 65, 127
1, 149906, Note_on_c, 5, 77, 127
1, 149906, Note_on_c, 4, 64, 127
1, 150039, Note_off_c, 4, 64, 127
1, 150042, Note_on_c, 2, 62, 127
1, 150145, Note_off_c, 5, 77, 127
1, 150175, Note_off_c, 2, 62, 127
1, 150177, Note_on_c, 10, 69, 127
1, 150177, Note_on_c, 5, 65, 127
1, 150177, Note_on_c, 0, 60, 127
1, 150310, Note_off_c, 0, 60, 127
1, 150312, Note_on_c, 11, 58, 127
1, 150416, Note_off_c, 5, 65, 127
1, 150416, Note_off_c, 10, 69, 127
1, 150445, Note_off_c, 11, 58, 127
1, 150448, Note_on_c, 11, 70, 127
1, 150448, Note_on_c, 7, 67, 127
1, 150448, Note_on_c, 10, 57, 127
1, 150581, Note_off_c, 10, 57, 127
1, 150583, Note_on_c, 7, 55, 127
1, 150687, Note_off_c, 7, 67, 127
1, 150687, Note_off_c, 11, 70, 127
1, 150716, Note_off_c, 7, 55, 127
1, 150719, Note_on_c, 10, 69, 127
1, 150719, Note_on_c, 0, 72, 127
1, 150719, Note_on_c, 5, 53, 127
1, 150852, Note_off_c, 5, 53, 127
1, 150854, Note_on_c, 5, 53, 127
1, 150987, Note_off_c, 5, 53, 127
1, 150990, Note_on_c, 3, 51, 127
1, 151123, Note_off_c, 3, 51, 127
1, 151125, Note_on_c, 2, 50, 127
1, 151258, Note_off_c, 2, 50, 127
1, 151258, Note_off_c, 0, 72, 127
1, 151258, Note_off_c, 10, 69, 127
1, 151261, Note_on_c, 2, 74, 127
1, 151261, Note_on_c, 11, 70, 127
1, 151261, Note_on_c, 0, 48, 127
1, 151394, Note_off_c, 0, 48, 127
1, 151396, Note_on_c, 11, 46, 127
1, 151529, Note_off_c, 11, 46, 127
1, 151532, Note_on_c, 10, 45, 127
1, 151665, Note_off_c, 10, 45, 127
1, 151667, Note_on_c, 7, 43, 127
1, 151800, Note_off_c, 7, 43, 127
1, 151802, Note_on_c, 5, 41, 127
1, 151935, Note_off_c, 5, 41, 127
1, 151937, Note_off_c, 2, 74, 127
1, 151938, Note_on_c, 5, 53, 127
1, 152050, Note_off_c, 11, 70, 127
1, 152071, Note_off_c, 5, 53, 127
1, 152073, Note_on_c, 10, 69, 127
1, 152073, Note_on_c, 0, 72, 127
1, 152073, Note_on_c, 0, 48, 127
1, 152206, Note_off_c, 0, 48, 127
1, 152206, Note_off_c, 0, 72, 127
1, 152209, Note_on_c, 2, 74, 127
1, 152209, Note_on_c, 10, 45, 127
1, 152342, Note_off_c, 10, 45, 127
1, 152342, Note_off_c, 2, 74, 127
1, 152344, Note_on_c, 3, 75, 127
1, 152344, Note_on_c, 5, 41, 127
1, 152467, Note_off_c, 10, 69, 127
1, 152477, Note_off_c, 5, 41, 127
1, 152480, Note_on_c, 5, 53, 127
1, 152612, Note_off_c, 3, 75, 127
1, 152613, Note_off_c, 5, 53, 127
1, 152615, Note_on_c, 2, 74, 127
1, 152615, Note_on_c, 3, 51, 127
1, 152748, Note_off_c, 3, 51, 127
1, 152748, Note_off_c, 2, 74, 127
1, 152751, Note_on_c, 0, 72, 127
1, 152751, Note_on_c, 5, 53, 127
1, 152884, Note_off_c, 5, 53, 127
1, 152884, Note_off_c, 0, 72, 127
1, 152886, Note_on_c, 11, 70, 127
1, 152886, Note_on_c, 2, 74, 127
1, 152886, Note_on_c, 11, 46, 127
1, 153019, Note_off_c, 11, 46, 127
1, 153021, Note_on_c, 2, 50, 127
1, 153154, Note_off_c, 2, 50, 127
1, 153157, Note_on_c, 5, 53, 127
1, 153280, Note_off_c, 11, 70, 127
1, 153290, Note_off_c, 5, 53, 127
1, 153292, Note_on_c, 10, 57, 127
1, 153421, Note_off_c, 2, 74, 127
1, 153425, Note_off_c, 10, 57, 127
1, 153428, Note_on_c, 11, 58, 127
1, 153561, Note_off_c, 11, 58, 127
1, 153563, Note_on_c, 2, 62, 127
1, 153696, Note_off_c, 2, 62, 127
1, 153699, Note_on_c, 5, 65, 127
1, 153832, Note_off_c, 5, 65, 127
1, 153834, Note_on_c, 10, 69, 127
1, 153967, Note_off_c, 10, 69, 127
1, 153970, Note_on_c, 7, 67, 127
1, 154103, Note_off_c, 7, 67, 127
1, 154113, Note_on_c, 7, 67, 127
1, 154246, Note_off_c, 7, 67, 127
1, 154249, Note_on_c, 7, 79, 127
1, 154249, Note_on_c, 5, 65, 127
1, 154382, Note_off_c, 5, 65, 127
1, 154384, Note_on_c, 4, 64, 127
1, 154517, Note_off_c, 4, 64, 127
1, 154517, Note_off_c, 7, 79, 127
1, 154520, Note_on_c, 12, 71, 127
1, 154520, Note_on_c, 7, 67, 127
1, 154520, Note_on_c, 2, 62, 127
1, 154653, Note_off_c, 2, 62, 127
1, 154655, Note_on_c, 0, 60, 127
1, 154759, Note_off_c, 7, 67, 127
1, 154759, Note_off_c, 12, 71, 127
1, 154788, Note_off_c, 0, 60, 127
1, 154791, Note_on_c, 10, 69, 127
1, 154791, Note_on_c, 0, 72, 127
1, 154791, Note_on_c, 12, 59, 127
1, 154924, Note_off_c, 12, 59, 127
1, 154926, Note_on_c, 10, 57, 127
1, 155030, Note_off_c, 0, 72, 127
1, 155030, Note_off_c, 10, 69, 127
1, 155059, Note_off_c, 10, 57, 127
1, 155062, Note_on_c, 12, 71, 127
1, 155062, Note_on_c, 2, 74, 127
1, 155062, Note_on_c, 7, 55, 127
1, 155195, Note_off_c, 7, 55, 127
1, 155197, Note_on_c, 7, 55, 127
1, 155330, Note_off_c, 7, 55, 127
1, 155333, Note_on_c, 5, 53, 127
1, 155466, Note_off_c, 5, 53, 127
1, 155468, Note_on_c, 4, 52, 127
1, 155601, Note_off_c, 4, 52, 127
1, 155601, Note_off_c, 2, 74, 127
1, 155601, Note_off_c, 12, 71, 127
1, 155603, Note_on_c, 0, 72, 127
1, 155603, Note_on_c, 4, 76, 127
1, 155603, Note_on_c, 2, 50, 127
1, 155736, Note_off_c, 2, 50, 127
1, 155739, Note_on_c, 0, 48, 127
1, 155872, Note_off_c, 0, 48, 127
1, 155874, Note_on_c, 12, 47, 127
1, 156007, Note_off_c, 12, 47, 127
1, 156010, Note_on_c, 10, 45, 127
1, 156138, Note_off_c, 4, 76, 127
1, 156143, Note_off_c, 10, 45, 127
1, 156145, Note_on_c, 7, 43, 127
1, 156278, Note_off_c, 7, 43, 127
1, 156281, Note_on_c, 7, 55, 127
1, 156391, Note_off_c, 0, 72, 127
1, 156415, Note_off_c, 7, 55, 127
1, 156417, Note_on_c, 2, 74, 127
1, 156417, Note_on_c, 12, 71, 127
1, 156417, Note_on_c, 2, 50, 127
1, 156550, Note_off_c, 2, 50, 127
1, 156550, Note_off_c, 2, 74, 127
1, 156553, Note_on_c, 4, 76, 127
1, 156553, Note_on_c, 12, 47, 127
1, 156686, Note_off_c, 12, 47, 127
1, 156686, Note_off_c, 4, 76, 127
1, 156688, Note_on_c, 5, 77, 127
1, 156688, Note_on_c, 7, 43, 127
1, 156821, Note_off_c, 7, 43, 127
1, 156824, Note_on_c, 7, 55, 127
1, 156956, Note_off_c, 5, 77, 127
1, 156957, Note_off_c, 7, 55, 127
1, 156959, Note_on_c, 4, 76, 127
1, 156959, Note_on_c, 5, 53, 127
1, 157092, Note_off_c, 5, 53, 127
1, 157092, Note_off_c, 4, 76, 127
1, 157094, Note_on_c, 2, 74, 127
1, 157094, Note_on_c, 7, 55, 127
1, 157227, Note_off_c, 7, 55, 127
1, 157227, Note_off_c, 2, 74, 127
1, 157227, Note_off_c, 12, 71, 127
1, 157230, Note_on_c, 0, 72, 127
1, 157230, Note_on_c, 4, 76, 127
1, 157230, Note_on_c, 0, 48, 127
1, 157363, Note_off_c, 0, 48, 127
1, 157365, Note_on_c, 7, 55, 127
1, 157498, Note_off_c, 7, 55, 127
1, 157501, Note_on_c, 10, 57, 127
1, 157634, Note_off_c, 10, 57, 127
1, 157636, Note_on_c, 12, 59, 127
1, 157769, Note_off_c, 12, 59, 127
1, 157772, Note_on_c, 0, 60, 127
1, 157905, Note_off_c, 0, 60, 127
1, 157906, Note_off_c, 4, 76, 127
1, 157906, Note_off_c, 0, 72, 127
1, 157907, Note_on_c, 7, 55, 127
1, 158040, Note_off_c, 7, 55, 127
1, 158043, Note_on_c, 0, 72, 127
1, 158043, Note_on_c, 0, 60, 127
1, 158176, Note_off_c, 0, 60, 127
1, 158178, Note_on_c, 2, 62, 127
1, 158311, Note_off_c, 2, 62, 127
1, 158311, Note_off_c, 0, 72, 127
1, 158313, Note_on_c, 2, 74, 127
1, 158313, Note_on_c, 7, 67, 127
1, 158313, Note_on_c, 4, 64, 127
1, 158378, Note_off_c, 2, 74, 127
1, 158381, Note_on_c, 0, 72, 127
1, 158446, Note_off_c, 0, 72, 127
1, 158448, Note_on_c, 12, 71, 127
1, 158580, Note_off_c, 4, 64, 127
1, 158580, Note_off_c, 7, 67, 127
1, 158581, Note_off_c, 12, 71, 127
1, 158583, Note_on_c, 0, 72, 127
1, 158583, Note_on_c, 0, 60, 127
1, 158822, Note_off_c, 0, 72, 127
1, 158851, Note_off_c, 0, 60, 127
1, 158854, Note_on_c, 2, 74, 127
1, 158854, Note_on_c, 10, 69, 127
1, 158854, Note_on_c, 5, 65, 127
1, 158919, Note_off_c, 2, 74, 127
1, 158921, Note_on_c, 0, 72, 127
1, 158986, Note_off_c, 0, 72, 127
1, 158989, Note_on_c, 12, 71, 127
1, 159121, Note_off_c, 5, 65, 127
1, 159121, Note_off_c, 10, 69, 127
1, 159122, Note_off_c, 12, 71, 127
1, 159124, Note_on_c, 0, 72, 127
1, 159124, Note_on_c, 0, 60, 127
1, 159393, Note_off_c, 0, 60, 127
1, 159396, Note_on_c, 4, 64, 127
1, 159396, Note_on_c, 7, 67, 127
1, 159507, Note_off_c, 0, 72, 127
1, 159533, Note_on_c, 2, 74, 127
1, 159665, Note_off_c, 7, 67, 127
1, 159665, Note_off_c, 4, 64, 127
1, 159666, Note_off_c, 2, 74, 127
1, 159668, Note_on_c, 4, 76, 127
1, 159668, Note_on_c, 0, 60, 127
1, 159801, Note_off_c, 0, 60, 127
1, 159801, Note_off_c, 4, 76, 127
1, 159803, Note_on_c, 5, 77, 127
1, 159803, Note_on_c, 2, 62, 127
1, 159936, Note_off_c, 2, 62, 127
1, 159936, Note_off_c, 5, 77, 127
1, 159939, Note_on_c, 7, 79, 127
1, 159939, Note_on_c, 4, 64, 127
1, 160072, Note_off_c, 4, 64, 127
1, 160074, Note_on_c, 5, 65, 127
1, 160141, Note_off_c, 7, 79, 127
1, 160207, Note_off_c, 5, 65, 127
1, 160210, Note_on_c, 0, 72, 127
1, 160210, Note_on_c, 7, 67, 127
1, 160343, Note_off_c, 7, 67, 127
1, 160345, Note_on_c, 4, 64, 127
1, 160428, Note_off_c, 0, 72, 127
1, 160479, Note_off_c, 4, 64, 127
1, 160482, Note_on_c, 2, 74, 127
1, 160482, Note_on_c, 10, 69, 127
1, 160482, Note_on_c, 5, 65, 127
1, 160547, Note_off_c, 2, 74, 127
1, 160549, Note_on_c, 0, 72, 127
1, 160614, Note_off_c, 0, 72, 127
1, 160616, Note_on_c, 12, 71, 127
1, 160749, Note_off_c, 12, 71, 127
1, 160752, Note_on_c, 0, 72, 127
1, 160752, Note_on_c, 0, 60, 127
1, 160776, Note_off_c, 5, 65, 127
1, 160776, Note_off_c, 10, 69, 127
1, 160991, Note_off_c, 0, 72, 127
1, 161020, Note_off_c, 0, 60, 127
1, 161022, Note_on_c, 2, 74, 127
1, 161022, Note_on_c, 4, 64, 127
1, 161022, Note_on_c, 7, 67, 127
1, 161087, Note_off_c, 2, 74, 127
1, 161090, Note_on_c, 0, 72, 127
1, 161155, Note_off_c, 0, 72, 127
1, 161157, Note_on_c, 12, 71, 127
1, 161290, Note_off_c, 12, 71, 127
1, 161292, Note_on_c, 0, 72, 127
1, 161292, Note_on_c, 0, 60, 127
1, 161316, Note_off_c, 7, 67, 127
1, 161316, Note_off_c, 4, 64, 127
1, 161560, Note_off_c, 0, 60, 127
1, 161563, Note_on_c, 10, 69, 127
1, 161563, Note_on_c, 5, 65, 127
1, 161696, Note_off_c, 10, 69, 127
1, 161696, Note_off_c, 0, 72, 127
1, 161699, Note_on_c, 4, 76, 127
1, 161699, Note_on_c, 11, 70, 127
1, 161830, Note_off_c, 5, 65, 127
1, 161832, Note_off_c, 11, 70, 127
1, 161832, Note_off_c, 4, 76, 127
1, 161834, Note_on_c, 5, 77, 127
1, 161834, Note_on_c, 10, 69, 127
1, 161967, Note_off_c, 10, 69, 127
1, 161967, Note_off_c, 5, 77, 127
1, 161970, Note_on_c, 7, 79, 127
1, 161970, Note_on_c, 7, 67, 127
1, 162103, Note_off_c, 7, 67, 127
1, 162103, Note_off_c, 7, 79, 127
1, 162105, Note_on_c, 10, 81, 127
1, 162105, Note_on_c, 5, 65, 127
1, 162238, Note_off_c, 5, 65, 127
1, 162240, Note_on_c, 7, 67, 127
1, 162344, Note_off_c, 10, 81, 127
1, 162373, Note_off_c, 7, 67, 127
1, 162376, Note_on_c, 0, 72, 127
1, 162376, Note_on_c, 10, 69, 127
1, 162509, Note_off_c, 10, 69, 127
1, 162511, Note_on_c, 5, 65, 127
1, 162615, Note_off_c, 0, 72, 127
1, 162644, Note_off_c, 5, 65, 127
1, 162647, Note_on_c, 2, 74, 127
1, 162647, Note_on_c, 11, 70, 127
1, 162647, Note_on_c, 7, 67, 127
1, 162712, Note_off_c, 2, 74, 127
1, 162714, Note_on_c, 0, 72, 127
1, 162779, Note_off_c, 0, 72, 127
1, 162781, Note_on_c, 12, 71, 127
1, 162914, Note_off_c, 12, 71, 127
1, 162917, Note_on_c, 0, 72, 127
1, 162917, Note_on_c, 0, 60, 127
1, 162955, Note_off_c, 7, 67, 127
1, 162955, Note_off_c, 11, 70, 127
1, 163178, Note_off_c, 0, 72, 127
1, 163186, Note_off_c, 0, 60, 127
1, 163189, Note_on_c, 2, 74, 127
1, 163189, Note_on_c, 10, 69, 127
1, 163189, Note_on_c, 5, 65, 127
1, 163254, Note_off_c, 2, 74, 127
1, 163256, Note_on_c, 0, 72, 127
1, 163321, Note_off_c, 0, 72, 127
1, 163323, Note_on_c, 12, 71, 127
1, 163456, Note_off_c, 12, 71, 127
1, 163458, Note_on_c, 0, 72, 127
1, 163458, Note_on_c, 0, 60, 127
1, 163497, Note_off_c, 5, 65, 127
1, 163497, Note_off_c, 10, 69, 127
1, 163727, Note_off_c, 0, 60, 127
1, 163730, Note_on_c, 7, 67, 127
1, 163730, Note_on_c, 4, 64, 127
1, 163863, Note_off_c, 7, 67, 127
1, 163863, Note_off_c, 0, 72, 127
1, 163866, Note_on_c, 4, 76, 127
1, 163866, Note_on_c, 5, 65, 127
1, 163898, Note_off_c, 4, 64, 127
1, 163999, Note_off_c, 5, 65, 127
1, 163999, Note_off_c, 4, 76, 127
1, 164001, Note_on_c, 7, 79, 127
1, 164001, Note_on_c, 4, 64, 127
1, 164134, Note_off_c, 4, 64, 127
1, 164134, Note_off_c, 7, 79, 127
1, 164137, Note_on_c, 10, 81, 127
1, 164137, Note_on_c, 2, 62, 127
1, 164270, Note_off_c, 2, 62, 127
1, 164270, Note_off_c, 10, 81, 127
1, 164272, Note_on_c, 11, 82, 127
1, 164272, Note_on_c, 0, 60, 127
1, 164405, Note_off_c, 0, 60, 127
1, 164408, Note_on_c, 11, 58, 127
1, 164496, Note_off_c, 11, 82, 127
1, 164541, Note_off_c, 11, 58, 127
1, 164543, Note_on_c, 0, 72, 127
1, 164543, Note_on_c, 10, 57, 127
1, 164676, Note_off_c, 10, 57, 127
1, 164679, Note_on_c, 7, 55, 127
1, 164812, Note_off_c, 7, 55, 127
1, 164814, Note_on_c, 5, 53, 127
1, 164947, Note_off_c, 5, 53, 127
1, 164947, Note_off_c, 0, 72, 127
1, 164949, Note_on_c, 11, 82, 127
1, 164949, Note_on_c, 7, 55, 127
1, 165082, Note_off_c, 7, 55, 127
1, 165082, Note_off_c, 11, 82, 127
1, 165085, Note_on_c, 10, 81, 127
1, 165085, Note_on_c, 5, 53, 127
1, 165186, Note_off_c, 10, 81, 127
1, 165189, Note_on_c, 7, 79, 127
1, 165217, Note_off_c, 5, 53, 127
1, 165219, Note_on_c, 3, 51, 127
1, 165269, Note_off_c, 7, 79, 127
1, 165272, Note_on_c, 5, 77, 127
1, 165352, Note_off_c, 5, 77, 127
1, 165352, Note_off_c, 3, 51, 127
1, 165355, Note_on_c, 0, 84, 127
1, 165355, Note_on_c, 2, 50, 127
1, 165488, Note_off_c, 2, 50, 127
1, 165490, Note_on_c, 0, 48, 127
1, 165623, Note_off_c, 0, 48, 127
1, 165623, Note_off_c, 0, 84, 127
1, 165626, Note_on_c, 3, 75, 127
1, 165626, Note_on_c, 11, 46, 127
1, 165759, Note_off_c, 11, 46, 127
1, 165761, Note_on_c, 10, 45, 127
1, 165894, Note_off_c, 10, 45, 127
1, 165897, Note_on_c, 11, 46, 127
1, 165964, Note_off_c, 3, 75, 127
1, 166030, Note_off_c, 11, 46, 127
1, 166032, Note_on_c, 2, 74, 127
1, 166032, Note_on_c, 5, 53, 127
1, 166097, Note_off_c, 2, 74, 127
1, 166099, Note_on_c, 0, 72, 127
1, 166164, Note_off_c, 0, 72, 127
1, 166164, Note_off_c, 5, 53, 127
1, 166166, Note_on_c, 2, 74, 127
1, 166166, Note_on_c, 11, 58, 127
1, 166254, Note_off_c, 2, 74, 127
1, 166257, Note_on_c, 0, 72, 127
1, 166345, Note_off_c, 0, 72, 127
1, 166347, Note_on_c, 11, 70, 127
1, 166435, Note_off_c, 11, 70, 127
1, 166437, Note_on_c, 7, 79, 127
1, 166570, Note_off_c, 11, 58, 127
1, 166573, Note_on_c, 7, 55, 127
1, 166705, Note_off_c, 7, 79, 127
1, 166706, Note_off_c, 7, 55, 127
1, 166708, Note_on_c, 11, 70, 127
1, 166708, Note_on_c, 5, 53, 127
1, 166841, Note_off_c, 5, 53, 127
1, 166844, Note_on_c, 4, 52, 127
1, 166977, Note_off_c, 4, 52, 127
1, 166979, Note_on_c, 5, 53, 127
1, 167074, Note_off_c, 11, 70, 127
1, 167112, Note_off_c, 5, 53, 127
1, 167115, Note_on_c, 10, 69, 127
1, 167115, Note_on_c, 10, 57, 127
1, 167180, Note_off_c, 10, 69, 127
1, 167182, Note_on_c, 7, 67, 127
1, 167247, Note_off_c, 7, 67, 127
1, 167247, Note_off_c, 10, 57, 127
1, 167249, Note_on_c, 10, 69, 127
1, 167249, Note_on_c, 0, 60, 127
1, 167337, Note_off_c, 10, 69, 127
1, 167339, Note_on_c, 7, 67, 127
1, 167427, Note_off_c, 7, 67, 127
1, 167430, Note_on_c, 5, 65, 127
1, 167518, Note_off_c, 5, 65, 127
1, 167520, Note_on_c, 2, 74, 127
1, 167653, Note_off_c, 0, 60, 127
1, 167655, Note_on_c, 12, 59, 127
1, 167788, Note_off_c, 12, 59, 127
1, 167788, Note_off_c, 2, 74, 127
1, 167791, Note_on_c, 5, 65, 127
1, 167791, Note_on_c, 10, 57, 127
1, 167924, Note_off_c, 10, 57, 127
1, 167926, Note_on_c, 12, 59, 127
1, 168059, Note_off_c, 12, 59, 127
1, 168059, Note_off_c, 5, 65, 127
1, 168062, Note_on_c, 7, 67, 127
1, 168062, Note_on_c, 0, 60, 127
1, 168127, Note_off_c, 7, 67, 127
1, 168129, Note_on_c, 5, 65, 127
1, 168194, Note_off_c, 5, 65, 127
1, 168194, Note_off_c, 0, 60, 127
1, 168196, Note_on_c, 7, 67, 127
1, 168196, Note_on_c, 7, 55, 127
1, 168261, Note_off_c, 7, 67, 127
1, 168263, Note_on_c, 5, 65, 127
1, 168328, Note_off_c, 5, 65, 127
1, 168328, Note_off_c, 7, 55, 127
1, 168330, Note_on_c, 4, 64, 127
1, 168330, Note_on_c, 0, 60, 127
1, 168463, Note_off_c, 0, 60, 127
1, 168466, Note_on_c, 2, 62, 127
1, 168583, Note_off_c, 4, 64, 127
1, 168599, Note_off_c, 2, 62, 127
1, 168601, Note_on_c, 4, 64, 127
1, 168734, Note_off_c, 4, 64, 127
1, 168737, Note_on_c, 0, 60, 127
1, 168870, Note_off_c, 0, 60, 127
1, 168872, Note_on_c, 11, 82, 127
1, 168872, Note_on_c, 2, 62, 127
1, 169005, Note_off_c, 2, 62, 127
1, 169008, Note_on_c, 4, 64, 127
1, 169140, Note_off_c, 11, 82, 127
1, 169141, Note_off_c, 4, 64, 127
1, 169143, Note_on_c, 10, 81, 127
1, 169143, Note_on_c, 5, 65, 127
1, 169278, Note_off_c, 10, 81, 127
1, 169281, Note_on_c, 11, 82, 127
1, 169416, Note_off_c, 11, 82, 127
1, 169416, Note_off_c, 5, 65, 127
1, 169418, Note_on_c, 0, 84, 127
1, 169418, Note_on_c, 10, 57, 127
1, 169553, Note_off_c, 0, 84, 127
1, 169556, Note_on_c, 5, 77, 127
1, 169691, Note_off_c, 5, 77, 127
1, 169691, Note_off_c, 10, 57, 127
1, 169693, Note_on_c, 10, 81, 127
1, 169693, Note_on_c, 11, 58, 127
1, 169828, Note_off_c, 10, 81, 127
1, 169831, Note_on_c, 7, 79, 127
1, 169966, Note_off_c, 7, 79, 127
1, 169966, Note_off_c, 11, 58, 127
1, 169968, Note_on_c, 5, 77, 127
1, 169968, Note_on_c, 0, 60, 127
1, 170103, Note_off_c, 5, 77, 127
1, 170106, Note_on_c, 4, 76, 127
1, 170241, Note_off_c, 4, 76, 127
1, 170241, Note_off_c, 0, 60, 127
1, 170244, Note_on_c, 5, 77, 127
1, 170244, Note_on_c, 2, 62, 127
1, 170381, Note_on_c, 0, 72, 127
1, 170448, Note_off_c, 5, 77, 127
1, 170515, Note_off_c, 0, 72, 127
1, 170516, Note_off_c, 2, 62, 127
1, 170518, Note_on_c, 2, 74, 127
1, 170518, Note_on_c, 11, 58, 127
1, 170653, Note_off_c, 2, 74, 127
1, 170655, Note_on_c, 5, 77, 127
1, 170790, Note_off_c, 5, 77, 127
1, 170791, Note_off_c, 11, 58, 127
1, 170793, Note_on_c, 11, 70, 127
1, 170793, Note_on_c, 5, 53, 127
1, 170928, Note_off_c, 11, 70, 127
1, 170930, Note_on_c, 10, 69, 127
1, 171065, Note_off_c, 10, 69, 127
1, 171066, Note_off_c, 5, 53, 127
1, 171068, Note_on_c, 11, 70, 127
1, 171068, Note_on_c, 2, 62, 127
1, 171203, Note_off_c, 11, 70, 127
1, 171205, Note_on_c, 2, 74, 127
1, 171340, Note_off_c, 2, 74, 127
1, 171341, Note_off_c, 2, 62, 127
1, 171343, Note_on_c, 5, 77, 127
1, 171343, Note_on_c, 0, 60, 127
1, 171480, Note_on_c, 11, 70, 127
1, 171547, Note_off_c, 5, 77, 127
1, 171614, Note_off_c, 11, 70, 127
1, 171615, Note_off_c, 0, 60, 127
1, 171617, Note_on_c, 0, 72, 127
1, 171617, Note_on_c, 10, 57, 127
1, 171752, Note_off_c, 0, 72, 127
1, 171755, Note_on_c, 5, 77, 127
1, 171890, Note_off_c, 5, 77, 127
1, 171890, Note_off_c, 10, 57, 127
1, 171892, Note_on_c, 10, 69, 127
1, 171892, Note_on_c, 5, 53, 127
1, 172027, Note_off_c, 10, 69, 127
1, 172030, Note_on_c, 7, 67, 127
1, 172165, Note_off_c, 7, 67, 127
1, 172165, Note_off_c, 5, 53, 127
1, 172167, Note_on_c, 10, 69, 127
1, 172167, Note_on_c, 0, 60, 127
1, 172302, Note_off_c, 10, 69, 127
1, 172305, Note_on_c, 0, 72, 127
1, 172440, Note_off_c, 0, 60, 127
1, 172451, Note_on_c, 5, 77, 127
1, 172451, Note_on_c, 12, 59, 127
1, 172453, Note_off_c, 0, 72, 127
1, 172588, Note_on_c, 10, 69, 127
1, 172655, Note_off_c, 5, 77, 127
1, 172722, Note_off_c, 10, 69, 127
1, 172723, Note_off_c, 12, 59, 127
1, 172725, Note_on_c, 12, 71, 127
1, 172725, Note_on_c, 2, 62, 127
1, 172860, Note_off_c, 12, 71, 127
1, 172862, Note_on_c, 5, 77, 127
1, 172997, Note_off_c, 5, 77, 127
1, 172998, Note_off_c, 2, 62, 127
1, 173000, Note_on_c, 7, 67, 127
1, 173000, Note_on_c, 12, 59, 127
1, 173135, Note_off_c, 7, 67, 127
1, 173137, Note_on_c, 5, 65, 127
1, 173272, Note_off_c, 5, 65, 127
1, 173273, Note_off_c, 12, 59, 127
1, 173275, Note_on_c, 7, 67, 127
1, 173275, Note_on_c, 7, 55, 127
1, 173412, Note_on_c, 5, 77, 127
1, 173446, Note_off_c, 7, 67, 127
1, 173547, Note_off_c, 5, 77, 127
1, 173548, Note_off_c, 7, 55, 127
1, 173550, Note_on_c, 4, 76, 127
1, 173550, Note_on_c, 0, 60, 127
1, 173685, Note_off_c, 4, 76, 127
1, 173688, Note_on_c, 5, 77, 127
1, 173823, Note_off_c, 5, 77, 127
1, 173825, Note_on_c, 7, 79, 127
1, 173825, Note_on_c, 0, 48, 127
1, 173960, Note_off_c, 7, 79, 127
1, 173963, Note_on_c, 5, 77, 127
1, 174092, Note_off_c, 0, 60, 127
1, 174097, Note_off_c, 5, 77, 127
1, 174097, Note_off_c, 0, 48, 127
1, 174099, Note_on_c, 4, 76, 127
1, 174099, Note_on_c, 2, 50, 127
1, 174234, Note_off_c, 4, 76, 127
1, 174237, Note_on_c, 2, 74, 127
1, 174372, Note_off_c, 2, 74, 127
1, 174372, Note_off_c, 2, 50, 127
1, 174374, Note_on_c, 0, 72, 127
1, 174374, Note_on_c, 4, 52, 127
1, 174509, Note_off_c, 0, 72, 127
1, 174512, Note_on_c, 11, 70, 127
1, 174647, Note_off_c, 11, 70, 127
1, 174647, Note_off_c, 4, 52, 127
1, 174649, Note_on_c, 10, 69, 127
1, 174649, Note_on_c, 5, 53, 127
1, 174795, Note_off_c, 10, 69, 127
1, 174795, Note_on_c, 11, 70, 127
1, 174922, Note_off_c, 5, 53, 127
1, 174930, Note_off_c, 11, 70, 127
1, 174933, Note_on_c, 0, 72, 127
1, 174933, Note_on_c, 10, 45, 127
1, 175068, Note_off_c, 0, 72, 127
1, 175070, Note_on_c, 5, 65, 127
1, 175205, Note_off_c, 5, 65, 127
1, 175206, Note_off_c, 10, 45, 127
1, 175208, Note_on_c, 10, 69, 127
1, 175208, Note_on_c, 11, 46, 127
1, 175343, Note_off_c, 10, 69, 127
1, 175346, Note_on_c, 7, 67, 127
1, 175481, Note_off_c, 7, 67, 127
1, 175481, Note_off_c, 11, 46, 127
1, 175483, Note_on_c, 5, 65, 127
1, 175483, Note_on_c, 0, 48, 127
1, 175618, Note_off_c, 5, 65, 127
1, 175621, Note_on_c, 4, 64, 127
1, 175756, Note_off_c, 4, 64, 127
1, 175756, Note_off_c, 0, 48, 127
1, 175767, Note_on_c, 5, 65, 127
1, 175767, Note_on_c, 0, 48, 127
1, 175767, Note_on_c, 5, 53, 127
1, 175767, Note_on_c, 10, 45, 127
1, 175767, Note_on_c, 5, 41, 127
1, 176036, Note_off_c, 5, 65, 127
1, 176039, Note_on_c, 5, 77, 127
1, 176308, Note_off_c, 5, 77, 127
1, 176310, Note_on_c, 5, 65, 127
1, 176310, Note_on_c, 10, 69, 127
1, 176579, Note_off_c, 10, 69, 127
1, 176579, Note_off_c, 5, 65, 127
1, 176582, Note_on_c, 7, 67, 127
1, 176582, Note_on_c, 11, 70, 127
1, 176851, Note_off_c, 11, 70, 127
1, 176851, Note_off_c, 7, 67, 127
1, 176852, Note_off_c, 5, 41, 127
1, 176852, Note_off_c, 10, 45, 127
1, 176852, Note_off_c, 5, 53, 127
1, 176852, Note_off_c, 0, 48, 127
1, 176854, Note_on_c, 10, 69, 127
1, 176854, Note_on_c, 0, 72, 127
1, 177126, Note_on_c, 5, 65, 127
1, 177395, Note_off_c, 5, 65, 127
1, 177395, Note_off_c, 0, 72, 127
1, 177395, Note_off_c, 10, 69, 127
1, 177398, Note_on_c, 2, 74, 127
1, 177398, Note_on_c, 11, 70, 127
1, 177398, Note_on_c, 2, 62, 127
1, 177667, Note_off_c, 2, 62, 127
1, 177670, Note_on_c, 11, 58, 127
1, 177937, Note_off_c, 11, 58, 127
1, 177938, Note_off_c, 11, 70, 127
1, 177938, Note_off_c, 2, 74, 127
1, 177941, Note_on_c, 5, 65, 127
1, 177941, Note_on_c, 0, 72, 127
1, 177941, Note_on_c, 10, 69, 127
1, 178210, Note_off_c, 0, 72, 127
1, 178213, Note_on_c, 5, 77, 127
1, 178213, Note_on_c, 5, 53, 127
1, 178477, Note_off_c, 10, 69, 127
1, 178481, Note_off_c, 5, 53, 127
1, 178484, Note_on_c, 11, 70, 127
1, 178484, Note_on_c, 2, 50, 127
1, 178748, Note_off_c, 5, 77, 127
1, 178752, Note_off_c, 2, 50, 127
1, 178755, Note_on_c, 3, 75, 127
1, 178755, Note_on_c, 11, 46, 127
1, 178888, Note_off_c, 3, 75, 127
1, 178890, Note_on_c, 2, 74, 127
1, 179019, Note_off_c, 11, 70, 127
1, 179023, Note_off_c, 2, 74, 127
1, 179023, Note_off_c, 11, 46, 127
1, 179023, Note_off_c, 5, 65, 127
1, 179026, Note_on_c, 5, 65, 127
1, 179026, Note_on_c, 11, 70, 127
1, 179026, Note_on_c, 2, 74, 127
1, 179026, Note_on_c, 5, 53, 127
1, 179286, Note_off_c, 2, 74, 127
1, 179286, Note_off_c, 11, 70, 127
1, 179297, Note_on_c, 10, 69, 127
1, 179297, Note_on_c, 0, 72, 127
1, 179297, Note_on_c, 5, 41, 127
1, 179833, Note_off_c, 5, 41, 127
1, 179833, Note_off_c, 0, 72, 127
1, 179833, Note_off_c, 10, 69, 127
1, 179837, Note_off_c, 5, 53, 127
1, 179837, Note_off_c, 5, 65, 127
1, 180128, Note_on_c, 4, 52, 127
1, 180128, Note_on_c, 0, 48, 127
1, 180128, Note_on_c, 7, 55, 127
1, 180128, Note_on_c, 0, 60, 127
1, 180400, Note_on_c, 0, 84, 127
1, 180669, Note_off_c, 0, 84, 127
1, 180672, Note_on_c, 0, 72, 127
1, 180672, Note_on_c, 4, 76, 127
1, 180941, Note_off_c, 4, 76, 127
1, 180941, Note_off_c, 0, 72, 127
1, 180944, Note_on_c, 5, 77, 127
1, 180944, Note_on_c, 2, 74, 127
1, 181213, Note_off_c, 2, 74, 127
1, 181213, Note_off_c, 5, 77, 127
1, 181213, Note_off_c, 0, 60, 127
1, 181213, Note_off_c, 7, 55, 127
1, 181213, Note_off_c, 0, 48, 127
1, 181213, Note_off_c, 4, 52, 127
1, 181216, Note_on_c, 4, 76, 127
1, 181216, Note_on_c, 7, 79, 127
1, 181488, Note_on_c, 0, 72, 127
1, 181757, Note_off_c, 0, 72, 127
1, 181757, Note_off_c, 7, 79, 127
1, 181757, Note_off_c, 4, 76, 127
1, 181760, Note_on_c, 10, 69, 127
1, 181760, Note_on_c, 5, 77, 127
1, 181760, Note_on_c, 10, 81, 127
1, 182029, Note_off_c, 10, 69, 127
1, 182032, Note_on_c, 5, 65, 127
1, 182299, Note_off_c, 5, 65, 127
1, 182300, Note_off_c, 10, 81, 127
1, 182300, Note_off_c, 5, 77, 127
1, 182303, Note_on_c, 7, 79, 127
1, 182303, Note_on_c, 0, 72, 127
1, 182303, Note_on_c, 4, 76, 127
1, 182572, Note_off_c, 7, 79, 127
1, 182575, Note_on_c, 0, 60, 127
1, 182575, Note_on_c, 0, 84, 127
1, 182839, Note_off_c, 4, 76, 127
1, 182843, Note_off_c, 0, 60, 127
1, 182846, Note_on_c, 10, 57, 127
1, 182846, Note_on_c, 5, 77, 127
1, 183110, Note_off_c, 0, 84, 127
1, 183114, Note_off_c, 10, 57, 127
1, 183117, Note_on_c, 5, 53, 127
1, 183117, Note_on_c, 11, 82, 127
1, 183250, Note_off_c, 11, 82, 127
1, 183252, Note_on_c, 10, 81, 127
1, 183381, Note_off_c, 5, 77, 127
1, 183385, Note_off_c, 10, 81, 127
1, 183385, Note_off_c, 5, 53, 127
1, 183385, Note_off_c, 0, 72, 127
1, 183387, Note_on_c, 0, 60, 127
1, 183387, Note_on_c, 0, 72, 127
1, 183387, Note_on_c, 5, 77, 127
1, 183387, Note_on_c, 10, 81, 127
1, 183647, Note_off_c, 10, 81, 127
1, 183647, Note_off_c, 5, 77, 127
1, 183658, Note_on_c, 0, 48, 127
1, 183658, Note_on_c, 4, 76, 127
1, 183658, Note_on_c, 7, 79, 127
1, 183925, Note_off_c, 7, 79, 127
1, 183925, Note_off_c, 4, 76, 127
1, 184035, Note_off_c, 0, 72, 127
1, 184083, Note_on_c, 0, 72, 127
1, 184194, Note_off_c, 0, 48, 127
1, 184198, Note_off_c, 0, 60, 127
1, 184216, Note_off_c, 0, 72, 127
1, 184218, Note_on_c, 11, 70, 127
1, 184351, Note_off_c, 11, 70, 127
1, 184353, Note_on_c, 10, 69, 127
1, 184486, Note_off_c, 10, 69, 127
1, 184489, Note_on_c, 11, 70, 127
1, 184489, Note_on_c, 0, 60, 127
1, 184489, Note_on_c, 7, 55, 127
1, 184489, Note_on_c, 4, 52, 127
1, 184758, Note_off_c, 11, 70, 127
1, 184761, Note_on_c, 7, 79, 127
1, 185030, Note_off_c, 4, 52, 127
1, 185030, Note_off_c, 7, 55, 127
1, 185030, Note_off_c, 0, 60, 127
1, 185033, Note_on_c, 0, 60, 127
1, 185033, Note_on_c, 7, 55, 127
1, 185033, Note_on_c, 0, 48, 127
1, 185033, Note_on_c, 4, 52, 127
1, 185166, Note_off_c, 7, 79, 127
1, 185168, Note_on_c, 11, 70, 127
1, 185301, Note_off_c, 11, 70, 127
1, 185304, Note_on_c, 10, 69, 127
1, 185437, Note_off_c, 10, 69, 127
1, 185439, Note_on_c, 7, 67, 127
1, 185572, Note_off_c, 7, 67, 127
1, 185572, Note_off_c, 4, 52, 127
1, 185572, Note_off_c, 0, 48, 127
1, 185572, Note_off_c, 7, 55, 127
1, 185575, Note_on_c, 10, 69, 127
1, 185575, Note_on_c, 5, 53, 127
1, 185708, Note_off_c, 10, 69, 127
1, 185710, Note_on_c, 7, 67, 127
1, 185843, Note_off_c, 7, 67, 127
1, 185843, Note_off_c, 0, 60, 127
1, 185846, Note_on_c, 5, 65, 127
1, 185846, Note_on_c, 10, 57, 127
1, 185979, Note_off_c, 5, 65, 127
1, 185981, Note_on_c, 7, 67, 127
1, 186110, Note_off_c, 5, 53, 127
1, 186114, Note_off_c, 7, 67, 127
1, 186114, Note_off_c, 10, 57, 127
1, 186116, Note_on_c, 10, 69, 127
1, 186116, Note_on_c, 0, 60, 127
1, 186249, Note_off_c, 10, 69, 127
1, 186252, Note_on_c, 11, 70, 127
1, 186385, Note_off_c, 11, 70, 127
1, 186387, Note_on_c, 0, 72, 127
1, 186387, Note_on_c, 5, 65, 127
1, 186520, Note_off_c, 0, 72, 127
1, 186523, Note_on_c, 2, 74, 127
1, 186655, Note_off_c, 5, 65, 127
1, 186656, Note_off_c, 2, 74, 127
1, 186658, Note_on_c, 3, 75, 127
1, 186658, Note_on_c, 5, 65, 127
1, 186658, Note_on_c, 10, 57, 127
1, 186927, Note_off_c, 3, 75, 127
1, 186930, Note_on_c, 0, 84, 127
1, 187199, Note_off_c, 10, 57, 127
1, 187199, Note_off_c, 5, 65, 127
1, 187199, Note_off_c, 0, 60, 127
1, 187202, Note_on_c, 5, 65, 127
1, 187202, Note_on_c, 0, 60, 127
1, 187202, Note_on_c, 5, 53, 127
1, 187202, Note_on_c, 10, 57, 127
1, 187335, Note_off_c, 0, 84, 127
1, 187338, Note_on_c, 3, 75, 127
1, 187471, Note_off_c, 3, 75, 127
1, 187473, Note_on_c, 2, 74, 127
1, 187606, Note_off_c, 2, 74, 127
1, 187608, Note_on_c, 0, 72, 127
1, 187741, Note_off_c, 0, 72, 127
1, 187741, Note_off_c, 10, 57, 127
1, 187741, Note_off_c, 5, 53, 127
1, 187741, Note_off_c, 0, 60, 127
1, 187744, Note_on_c, 2, 74, 127
1, 187744, Note_on_c, 11, 58, 127
1, 187877, Note_off_c, 2, 74, 127
1, 187879, Note_on_c, 0, 72, 127
1, 188012, Note_off_c, 0, 72, 127
1, 188012, Note_off_c, 5, 65, 127
1, 188015, Note_on_c, 11, 70, 127
1, 188015, Note_on_c, 2, 62, 127
1, 188148, Note_off_c, 11, 70, 127
1, 188150, Note_on_c, 0, 72, 127
1, 188279, Note_off_c, 11, 58, 127
1, 188283, Note_off_c, 0, 72, 127
1, 188283, Note_off_c, 2, 62, 127
1, 188286, Note_on_c, 2, 74, 127
1, 188286, Note_on_c, 5, 65, 127
1, 188419, Note_off_c, 2, 74, 127
1, 188421, Note_on_c, 4, 76, 127
1, 188554, Note_off_c, 4, 76, 127
1, 188554, Note_off_c, 5, 65, 127
1, 188557, Note_on_c, 5, 77, 127
1, 188557, Note_on_c, 11, 70, 127
1, 188690, Note_off_c, 5, 77, 127
1, 188692, Note_on_c, 7, 79, 127
1, 188825, Note_off_c, 7, 79, 127
1, 188825, Note_off_c, 11, 70, 127
1, 188828, Note_on_c, 8, 80, 127
1, 188828, Note_on_c, 12, 71, 127
1, 188828, Note_on_c, 2, 62, 127
1, 188828, Note_on_c, 5, 65, 127
1, 188961, Note_off_c, 8, 80, 127
1, 188963, Note_on_c, 7, 79, 127
1, 189028, Note_off_c, 7, 79, 127
1, 189030, Note_on_c, 5, 77, 127
1, 189095, Note_off_c, 5, 77, 127
1, 189097, Note_on_c, 7, 79, 127
1, 189367, Note_off_c, 5, 65, 127
1, 189367, Note_off_c, 2, 62, 127
1, 189367, Note_off_c, 12, 71, 127
1, 189369, Note_on_c, 7, 67, 127
1, 189369, Note_on_c, 12, 59, 127
1, 189369, Note_on_c, 2, 62, 127
1, 189457, Note_off_c, 7, 79, 127
1, 189460, Note_on_c, 5, 77, 127
1, 189548, Note_off_c, 5, 77, 127
1, 189550, Note_on_c, 4, 76, 127
1, 189638, Note_off_c, 4, 76, 127
1, 189640, Note_on_c, 5, 77, 127
1, 189909, Note_off_c, 2, 62, 127
1, 189909, Note_off_c, 12, 59, 127
1, 189909, Note_off_c, 7, 67, 127
1, 189912, Note_on_c, 2, 62, 127
1, 189912, Note_on_c, 12, 59, 127
1, 189912, Note_on_c, 7, 55, 127
1, 190000, Note_off_c, 5, 77, 127
1, 190002, Note_on_c, 4, 76, 127
1, 190090, Note_off_c, 4, 76, 127
1, 190093, Note_on_c, 2, 74, 127
1, 190181, Note_off_c, 2, 74, 127
1, 190183, Note_on_c, 4, 76, 127
1, 190452, Note_off_c, 7, 55, 127
1, 190452, Note_off_c, 12, 59, 127
1, 190452, Note_off_c, 2, 62, 127
1, 190455, Note_on_c, 0, 60, 127
1, 190455, Note_on_c, 0, 48, 127
1, 190455, Note_on_c, 7, 55, 127
1, 190588, Note_off_c, 4, 76, 127
1, 190590, Note_on_c, 7, 79, 127
1, 190723, Note_off_c, 7, 79, 127
1, 190726, Note_on_c, 4, 76, 127
1, 190859, Note_off_c, 4, 76, 127
1, 190861, Note_on_c, 0, 72, 127
1, 190994, Note_off_c, 0, 72, 127
1, 190997, Note_on_c, 11, 70, 127
1, 191132, Note_on_c, 7, 79, 127
1, 191264, Note_off_c, 11, 70, 127
1, 191265, Note_off_c, 7, 79, 127
1, 191265, Note_off_c, 7, 55, 127
1, 191265, Note_off_c, 0, 48, 127
1, 191265, Note_off_c, 0, 60, 127
1, 191268, Note_on_c, 4, 76, 127
1, 191268, Note_on_c, 0, 60, 127
1, 191401, Note_off_c, 0, 60, 127
1, 191401, Note_off_c, 4, 76, 127
1, 191403, Note_on_c, 0, 72, 127
1, 191403, Note_on_c, 2, 62, 127
1, 191536, Note_off_c, 2, 62, 127
1, 191536, Note_off_c, 0, 72, 127
1, 191539, Note_on_c, 11, 70, 127
1, 191539, Note_on_c, 4, 64, 127
1, 191672, Note_off_c, 11, 70, 127
1, 191674, Note_on_c, 7, 79, 127
1, 191807, Note_off_c, 7, 79, 127
1, 191807, Note_off_c, 4, 64, 127
1, 191810, Note_on_c, 4, 76, 127
1, 191810, Note_on_c, 7, 67, 127
1, 191943, Note_off_c, 4, 76, 127
1, 191945, Note_on_c, 0, 72, 127
1, 192078, Note_off_c, 0, 72, 127
1, 192078, Note_off_c, 7, 67, 127
1, 192080, Note_on_c, 11, 70, 127
1, 192080, Note_on_c, 4, 64, 127
1, 192213, Note_off_c, 11, 70, 127
1, 192216, Note_on_c, 7, 79, 127
1, 192348, Note_off_c, 4, 64, 127
1, 192349, Note_off_c, 7, 79, 127
1, 192351, Note_on_c, 4, 76, 127
1, 192351, Note_on_c, 0, 60, 127
1, 192484, Note_off_c, 4, 76, 127
1, 192487, Note_on_c, 0, 72, 127
1, 192620, Note_off_c, 0, 72, 127
1, 192622, Note_on_c, 11, 70, 127
1, 192622, Note_on_c, 0, 48, 127
1, 192755, Note_off_c, 11, 70, 127
1, 192758, Note_on_c, 7, 79, 127
1, 192891, Note_off_c, 7, 79, 127
1, 192893, Note_on_c, 4, 76, 127
1, 193026, Note_off_c, 4, 76, 127
1, 193029, Note_on_c, 11, 70, 127
1, 193161, Note_off_c, 0, 60, 127
1, 193162, Note_off_c, 11, 70, 127
1, 193164, Note_on_c, 10, 69, 127
1, 193297, Note_off_c, 10, 69, 127
1, 193297, Note_off_c, 0, 48, 127
1, 193299, Note_on_c, 10, 81, 127
1, 193299, Note_on_c, 0, 60, 127
1, 193432, Note_off_c, 0, 60, 127
1, 193432, Note_off_c, 10, 81, 127
1, 193435, Note_on_c, 5, 77, 127
1, 193435, Note_on_c, 2, 62, 127
1, 193568, Note_off_c, 2, 62, 127
1, 193568, Note_off_c, 5, 77, 127
1, 193570, Note_on_c, 1, 73, 127
1, 193570, Note_on_c, 4, 64, 127
1, 193703, Note_off_c, 4, 64, 127
1, 193703, Note_off_c, 1, 73, 127
1, 193706, Note_on_c, 0, 72, 127
1, 193706, Note_on_c, 5, 65, 127
1, 193839, Note_off_c, 0, 72, 127
1, 193841, Note_on_c, 10, 81, 127
1, 193974, Note_off_c, 10, 81, 127
1, 193974, Note_off_c, 5, 65, 127
1, 193977, Note_on_c, 5, 77, 127
1, 193977, Note_on_c, 10, 69, 127
1, 194110, Note_off_c, 5, 77, 127
1, 194112, Note_on_c, 1, 73, 127
1, 194245, Note_off_c, 1, 73, 127
1, 194245, Note_off_c, 10, 69, 127
1, 194248, Note_on_c, 0, 72, 127
1, 194248, Note_on_c, 5, 65, 127
1, 194381, Note_off_c, 0, 72, 127
1, 194383, Note_on_c, 10, 81, 127
1, 194516, Note_off_c, 10, 81, 127
1, 194516, Note_off_c, 5, 65, 127
1, 194519, Note_on_c, 5, 77, 127
1, 194519, Note_on_c, 0, 60, 127
1, 194652, Note_off_c, 5, 77, 127
1, 194654, Note_on_c, 1, 73, 127
1, 194787, Note_off_c, 1, 73, 127
1, 194789, Note_on_c, 0, 72, 127
1, 194789, Note_on_c, 0, 48, 127
1, 194922, Note_off_c, 0, 72, 127
1, 194925, Note_on_c, 10, 81, 127
1, 195058, Note_off_c, 10, 81, 127
1, 195060, Note_on_c, 5, 77, 127
1, 195193, Note_off_c, 5, 77, 127
1, 195196, Note_on_c, 3, 75, 127
1, 195329, Note_off_c, 3, 75, 127
1, 195329, Note_off_c, 0, 60, 127
1, 195331, Note_on_c, 2, 74, 127
1, 195464, Note_off_c, 2, 74, 127
1, 195465, Note_off_c, 0, 48, 127
1, 195467, Note_on_c, 12, 83, 127
1, 195600, Note_off_c, 12, 83, 127
1, 195602, Note_on_c, 8, 80, 127
1, 195602, Note_on_c, 2, 62, 127
1, 195735, Note_off_c, 2, 62, 127
1, 195735, Note_off_c, 8, 80, 127
1, 195738, Note_on_c, 5, 77, 127
1, 195738, Note_on_c, 4, 64, 127
1, 195871, Note_off_c, 4, 64, 127
1, 195871, Note_off_c, 5, 77, 127
1, 195873, Note_on_c, 2, 74, 127
1, 195873, Note_on_c, 5, 65, 127
1, 196006, Note_off_c, 2, 74, 127
1, 196008, Note_on_c, 12, 83, 127
1, 196141, Note_off_c, 12, 83, 127
1, 196141, Note_off_c, 5, 65, 127
1, 196144, Note_on_c, 8, 80, 127
1, 196144, Note_on_c, 2, 62, 127
1, 196277, Note_off_c, 2, 62, 127
1, 196277, Note_off_c, 8, 80, 127
1, 196279, Note_on_c, 5, 77, 127
1, 196279, Note_on_c, 4, 64, 127
1, 196412, Note_off_c, 4, 64, 127
1, 196412, Note_off_c, 5, 77, 127
1, 196415, Note_on_c, 2, 74, 127
1, 196415, Note_on_c, 5, 65, 127
1, 196548, Note_off_c, 2, 74, 127
1, 196550, Note_on_c, 12, 83, 127
1, 196683, Note_off_c, 12, 83, 127
1, 196683, Note_off_c, 5, 65, 127
1, 196686, Note_on_c, 8, 80, 127
1, 196686, Note_on_c, 2, 62, 127
1, 196819, Note_off_c, 8, 80, 127
1, 196821, Note_on_c, 5, 77, 127
1, 196954, Note_off_c, 5, 77, 127
1, 196954, Note_off_c, 2, 62, 127
1, 196957, Note_on_c, 2, 74, 127
1, 196957, Note_on_c, 7, 55, 127
1, 197090, Note_off_c, 2, 74, 127
1, 197092, Note_on_c, 12, 83, 127
1, 197225, Note_off_c, 12, 83, 127
1, 197225, Note_off_c, 7, 55, 127
1, 197228, Note_on_c, 8, 80, 127
1, 197228, Note_on_c, 12, 59, 127
1, 197361, Note_off_c, 8, 80, 127
1, 197363, Note_on_c, 5, 77, 127
1, 197496, Note_off_c, 5, 77, 127
1, 197496, Note_off_c, 12, 59, 127
1, 197498, Note_on_c, 4, 76, 127
1, 197498, Note_on_c, 0, 60, 127
1, 197634, Note_on_c, 0, 84, 127
1, 197766, Note_off_c, 0, 84, 127
1, 197768, Note_off_c, 4, 76, 127
1, 197769, Note_on_c, 0, 48, 127
1, 197769, Note_on_c, 7, 79, 127
1, 197770, Note_off_c, 0, 60, 127
1, 197902, Note_off_c, 7, 79, 127
1, 197902, Note_off_c, 0, 48, 127
1, 197906, Note_on_c, 2, 50, 127
1, 197906, Note_on_c, 4, 76, 127
1, 198039, Note_off_c, 4, 76, 127
1, 198039, Note_off_c, 2, 50, 127
1, 198042, Note_on_c, 4, 52, 127
1, 198042, Note_on_c, 0, 72, 127
1, 198175, Note_off_c, 0, 72, 127
1, 198178, Note_on_c, 4, 76, 127
1, 198311, Note_off_c, 4, 76, 127
1, 198312, Note_off_c, 4, 52, 127
1, 198314, Note_on_c, 7, 55, 127
1, 198314, Note_on_c, 2, 74, 127
1, 198447, Note_off_c, 2, 74, 127
1, 198450, Note_on_c, 5, 77, 127
1, 198583, Note_off_c, 5, 77, 127
1, 198584, Note_off_c, 7, 55, 127
1, 198587, Note_on_c, 0, 60, 127
1, 198587, Note_on_c, 4, 76, 127
1, 198722, Note_on_c, 7, 79, 127
1, 198811, Note_off_c, 4, 76, 127
1, 198854, Note_off_c, 7, 79, 127
1, 198856, Note_off_c, 0, 60, 127
1, 198858, Note_on_c, 0, 48, 127
1, 198858, Note_on_c, 4, 76, 127
1, 198991, Note_off_c, 4, 76, 127
1, 198991, Note_off_c, 0, 48, 127
1, 198994, Note_on_c, 2, 50, 127
1, 198994, Note_on_c, 0, 72, 127
1, 199127, Note_off_c, 0, 72, 127
1, 199127, Note_off_c, 2, 50, 127
1, 199130, Note_on_c, 4, 52, 127
1, 199130, Note_on_c, 7, 67, 127
1, 199263, Note_off_c, 7, 67, 127
1, 199266, Note_on_c, 11, 70, 127
1, 199399, Note_off_c, 11, 70, 127
1, 199400, Note_off_c, 4, 52, 127
1, 199403, Note_on_c, 5, 53, 127
1, 199403, Note_on_c, 10, 69, 127
1, 199536, Note_off_c, 10, 69, 127
1, 199539, Note_on_c, 0, 72, 127
1, 199672, Note_off_c, 0, 72, 127
1, 199673, Note_off_c, 5, 53, 127
1, 199675, Note_on_c, 7, 55, 127
1, 199675, Note_on_c, 11, 70, 127
1, 199811, Note_on_c, 2, 74, 127
1, 199876, Note_off_c, 11, 70, 127
1, 199943, Note_off_c, 2, 74, 127
1, 199944, Note_off_c, 7, 55, 127
1, 199946, Note_on_c, 0, 48, 127
1, 199946, Note_on_c, 11, 70, 127
1, 200079, Note_off_c, 11, 70, 127
1, 200079, Note_off_c, 0, 48, 127
1, 200083, Note_on_c, 4, 52, 127
1, 200083, Note_on_c, 7, 67, 127
1, 200216, Note_off_c, 7, 67, 127
1, 200216, Note_off_c, 4, 52, 127
1, 200218, Note_on_c, 7, 55, 127
1, 200218, Note_on_c, 4, 64, 127
1, 200351, Note_off_c, 4, 64, 127
1, 200355, Note_on_c, 7, 67, 127
1, 200488, Note_off_c, 7, 67, 127
1, 200488, Note_off_c, 7, 55, 127
1, 200491, Note_on_c, 10, 57, 127
1, 200491, Note_on_c, 5, 65, 127
1, 200624, Note_off_c, 5, 65, 127
1, 200627, Note_on_c, 10, 69, 127
1, 200760, Note_off_c, 10, 69, 127
1, 200761, Note_off_c, 10, 57, 127
1, 200763, Note_on_c, 11, 58, 127
1, 200763, Note_on_c, 7, 67, 127
1, 200900, Note_on_c, 11, 70, 127
1, 200932, Note_off_c, 7, 67, 127
1, 201033, Note_off_c, 11, 70, 127
1, 201033, Note_off_c, 11, 58, 127
1, 201036, Note_on_c, 0, 48, 127
1, 201036, Note_on_c, 7, 67, 127
1, 201169, Note_off_c, 7, 67, 127
1, 201169, Note_off_c, 0, 48, 127
1, 201172, Note_on_c, 2, 50, 127
1, 201172, Note_on_c, 4, 64, 127
1, 201305, Note_off_c, 4, 64, 127
1, 201305, Note_off_c, 2, 50, 127
1, 201309, Note_on_c, 4, 52, 127
1, 201309, Note_on_c, 0, 60, 127
1, 201442, Note_off_c, 0, 60, 127
1, 201444, Note_on_c, 11, 70, 127
1, 201577, Note_off_c, 11, 70, 127
1, 201579, Note_off_c, 4, 52, 127
1, 201581, Note_on_c, 0, 48, 127
1, 201581, Note_on_c, 10, 69, 127
1, 201714, Note_off_c, 10, 69, 127
1, 201716, Note_on_c, 7, 67, 127
1, 201849, Note_off_c, 7, 67, 127
1, 201851, Note_off_c, 0, 48, 127
1, 201853, Note_on_c, 5, 53, 127
1, 201853, Note_on_c, 10, 69, 127
1, 201987, Note_off_c, 10, 69, 127
1, 201987, Note_off_c, 5, 53, 127
1, 201990, Note_on_c, 10, 57, 127
1, 201990, Note_on_c, 5, 65, 127
1, 202124, Note_off_c, 5, 65, 127
1, 202124, Note_off_c, 10, 57, 127
1, 202127, Note_on_c, 7, 55, 127
1, 202127, Note_on_c, 7, 67, 127
1, 202261, Note_off_c, 7, 67, 127
1, 202261, Note_off_c, 7, 55, 127
1, 202265, Note_on_c, 5, 53, 127
1, 202265, Note_on_c, 10, 69, 127
1, 202399, Note_off_c, 10, 69, 127
1, 202399, Note_off_c, 5, 53, 127
1, 202402, Note_on_c, 4, 52, 127
1, 202402, Note_on_c, 11, 70, 127
1, 202536, Note_off_c, 11, 70, 127
1, 202536, Note_off_c, 4, 52, 127
1, 202539, Note_on_c, 2, 50, 127
1, 202539, Note_on_c, 0, 72, 127
1, 202673, Note_off_c, 0, 72, 127
1, 202673, Note_off_c, 2, 50, 127
1, 202676, Note_on_c, 0, 48, 127
1, 202676, Note_on_c, 2, 74, 127
1, 202810, Note_off_c, 2, 74, 127
1, 202810, Note_off_c, 0, 48, 127
1, 202813, Note_on_c, 11, 46, 127
1, 202813, Note_on_c, 4, 76, 127
1, 202947, Note_off_c, 4, 76, 127
1, 202947, Note_off_c, 11, 46, 127
1, 202951, Note_on_c, 10, 45, 127
1, 202951, Note_on_c, 5, 77, 127
1, 203085, Note_off_c, 5, 77, 127
1, 203085, Note_off_c, 10, 45, 127
1, 203088, Note_on_c, 0, 48, 127
1, 203088, Note_on_c, 4, 76, 127
1, 203222, Note_off_c, 4, 76, 127
1, 203222, Note_off_c, 0, 48, 127
1, 203225, Note_on_c, 2, 50, 127
1, 203225, Note_on_c, 2, 74, 127
1, 203359, Note_off_c, 2, 74, 127
1, 203359, Note_off_c, 2, 50, 127
1, 203362, Note_on_c, 4, 52, 127
1, 203362, Note_on_c, 0, 72, 127
1, 203496, Note_off_c, 0, 72, 127
1, 203496, Note_off_c, 4, 52, 127
1, 203500, Note_on_c, 5, 53, 127
1, 203500, Note_on_c, 0, 84, 127
1, 203634, Note_off_c, 5, 53, 127
1, 203637, Note_on_c, 7, 55, 127
1, 203771, Note_off_c, 7, 55, 127
1, 203772, Note_off_c, 0, 84, 127
1, 203774, Note_on_c, 10, 57, 127
1, 203774, Note_on_c, 0, 72, 127
1, 203774, Note_on_c, 10, 69, 127
1, 203774, Note_on_c, 5, 77, 127
1, 203908, Note_off_c, 10, 57, 127
1, 203911, Note_on_c, 11, 58, 127
1, 204045, Note_off_c, 11, 58, 127
1, 204046, Note_off_c, 5, 77, 127
1, 204046, Note_off_c, 10, 69, 127
1, 204046, Note_off_c, 0, 72, 127
1, 204048, Note_on_c, 0, 60, 127
1, 204048, Note_on_c, 5, 77, 127
1, 204048, Note_on_c, 10, 69, 127
1, 204048, Note_on_c, 0, 72, 127
1, 204601, Note_off_c, 0, 72, 127
1, 204601, Note_off_c, 10, 69, 127
1, 204601, Note_off_c, 5, 77, 127
1, 204601, Note_off_c, 0, 60, 127
1, 204605, Note_on_c, 0, 48, 127
1, 204605, Note_on_c, 0, 72, 127
1, 204605, Note_on_c, 4, 76, 127
1, 204605, Note_on_c, 7, 67, 127
1, 205158, Note_off_c, 7, 67, 127
1, 205158, Note_off_c, 0, 48, 127
1, 205161, Note_on_c, 2, 50, 127
1, 205161, Note_on_c, 5, 65, 127
1, 205299, Note_off_c, 4, 76, 127
1, 205301, Note_on_c, 5, 77, 127
1, 205437, Note_off_c, 5, 77, 127
1, 205437, Note_off_c, 0, 72, 127
1, 205439, Note_on_c, 12, 71, 127
1, 205710, Note_off_c, 5, 65, 127
1, 205834, Note_off_c, 12, 71, 127
1, 205873, Note_on_c, 2, 74, 127
1, 205993, Note_off_c, 2, 50, 127
1, 206013, Note_off_c, 2, 74, 127
1, 206016, Note_on_c, 4, 52, 127
1, 206016, Note_on_c, 0, 72, 127
1, 206156, Note_off_c, 0, 72, 127
1, 206160, Note_on_c, 11, 70, 127
1, 206300, Note_off_c, 11, 70, 127
1, 206300, Note_off_c, 4, 52, 127
1, 206303, Note_on_c, 5, 53, 127
1, 206303, Note_on_c, 10, 69, 127
1, 206458, Note_on_c, 0, 72, 127
1, 206606, Note_off_c, 5, 53, 127
1, 206608, Note_off_c, 0, 72, 127
1, 206611, Note_on_c, 10, 45, 127
1, 206611, Note_on_c, 5, 77, 127
1, 206751, Note_off_c, 10, 69, 127
1, 206766, Note_on_c, 10, 69, 127
1, 206914, Note_off_c, 10, 45, 127
1, 206916, Note_off_c, 10, 69, 127
1, 206919, Note_on_c, 11, 46, 127
1, 206919, Note_on_c, 7, 67, 127
1, 207288, Note_off_c, 5, 77, 127
1, 207295, Note_off_c, 11, 46, 127
1, 207301, Note_on_c, 0, 48, 127
1, 207301, Note_on_c, 0, 72, 127
1, 207301, Note_on_c, 11, 70, 127
1, 207301, Note_on_c, 4, 76, 127
1, 207669, Note_off_c, 7, 67, 127
1, 207677, Note_off_c, 4, 76, 127
1, 207677, Note_off_c, 11, 70, 127
1, 207677, Note_off_c, 0, 72, 127
1, 207731, Note_on_c, 10, 69, 127
1, 207731, Note_on_c, 0, 72, 127
1, 207731, Note_on_c, 5, 77, 127
1, 207731, Note_on_c, 5, 65, 127
1, 207731, Note_on_c, 5, 53, 127
1, 207731, Note_on_c, 5, 41, 127
1, 210419, Note_off_c, 5, 41, 127
1, 210419, Note_off_c, 5, 53, 127
1, 210419, Note_off_c, 5, 65, 127
1, 210419, Note_off_c, 5, 77, 127
1, 210419, Note_off_c, 0, 72, 127
1, 210419, Note_off_c, 10, 69, 127
1, 210419, Note_off_c, 0, 48, 127
1, 214620, Note_on_c, 2, 62, 110
1, 214620, Note_on_c, 5, 65, 110
1, 215158, Note_on_c, 2, 50, 127
1, 215684, Note_off_c, 2, 50, 127
1, 215695, Note_on_c, 2, 50, 127
1, 215964, Note_off_c, 5, 65, 110
1, 215964, Note_off_c, 2, 62, 110
1, 216233, Note_on_c, 5, 65, 110
1, 216233, Note_on_c, 2, 62, 110
1, 216767, Note_off_c, 2, 62, 110
1, 216767, Note_off_c, 5, 65, 110
1, 216770, Note_on_c, 7, 67, 110
1, 216770, Note_on_c, 4, 64, 110
1, 217304, Note_off_c, 4, 64, 110
1, 217304, Note_off_c, 7, 67, 110
1, 217308, Note_on_c, 10, 69, 110
1, 217308, Note_on_c, 5, 65, 110
1, 217842, Note_off_c, 5, 65, 110
1, 217842, Note_off_c, 10, 69, 110
1, 217846, Note_on_c, 11, 70, 110
1, 217846, Note_on_c, 7, 67, 110
1, 218354, Note_off_c, 2, 50, 127
1, 218383, Note_on_c, 2, 50, 127
1, 218909, Note_off_c, 2, 50, 127
1, 218921, Note_on_c, 2, 50, 127
1, 219190, Note_off_c, 7, 67, 110
1, 219190, Note_off_c, 11, 70, 110
1, 219458, Note_on_c, 5, 65, 110
1, 219458, Note_on_c, 10, 69, 110
1, 219992, Note_off_c, 10, 69, 110
1, 219992, Note_off_c, 5, 65, 110
1, 219996, Note_on_c, 4, 64, 110
1, 219996, Note_on_c, 7, 67, 110
1, 220530, Note_off_c, 7, 67, 110
1, 220530, Note_off_c, 4, 64, 110
1, 220534, Note_on_c, 2, 62, 110
1, 220534, Note_on_c, 5, 65, 110
1, 221068, Note_off_c, 5, 65, 110
1, 221068, Note_off_c, 2, 62, 110
1, 221071, Note_on_c, 1, 61, 110
1, 221071, Note_on_c, 4, 64, 110
1, 221580, Note_off_c, 2, 50, 127
1, 221609, Note_on_c, 2, 50, 127
1, 222135, Note_off_c, 2, 50, 127
1, 222146, Note_on_c, 2, 50, 127
1, 222415, Note_off_c, 4, 64, 110
1, 222415, Note_off_c, 1, 61, 110
1, 222684, Note_on_c, 4, 64, 110
1, 222684, Note_on_c, 7, 67, 110
1, 223218, Note_off_c, 7, 67, 110
1, 223218, Note_off_c, 4, 64, 110
1, 223222, Note_on_c, 5, 65, 110
1, 223222, Note_on_c, 2, 62, 110
1, 223756, Note_off_c, 2, 62, 110
1, 223756, Note_off_c, 5, 65, 110
1, 223759, Note_on_c, 4, 64, 110
1, 223759, Note_on_c, 1, 61, 110
1, 224293, Note_off_c, 1, 61, 110
1, 224293, Note_off_c, 4, 64, 110
1, 224297, Note_on_c, 5, 65, 110
1, 224297, Note_on_c, 2, 62, 110
1, 224297, Note_on_c, 10, 81, 127
1, 224562, Note_off_c, 10, 81, 127
1, 224566, Note_on_c, 7, 79, 127
1, 224805, Note_off_c, 2, 50, 127
1, 224831, Note_off_c, 7, 79, 127
1, 224834, Note_on_c, 2, 50, 127
1, 224834, Note_on_c, 10, 81, 127
1, 225360, Note_off_c, 2, 50, 127
1, 225372, Note_on_c, 2, 50, 127
1, 225641, Note_off_c, 2, 62, 110
1, 225641, Note_off_c, 5, 65, 110
1, 225643, Note_off_c, 10, 81, 127
1, 225647, Note_on_c, 7, 79, 127
1, 225907, Note_off_c, 7, 79, 127
1, 225911, Note_on_c, 5, 65, 110
1, 225911, Note_on_c, 2, 62, 110
1, 225911, Note_on_c, 5, 77, 127
1, 226182, Note_off_c, 5, 77, 127
1, 226186, Note_on_c, 4, 76, 127
1, 226446, Note_off_c, 4, 76, 127
1, 226446, Note_off_c, 2, 62, 110
1, 226446, Note_off_c, 5, 65, 110
1, 226449, Note_on_c, 7, 67, 110
1, 226449, Note_on_c, 4, 64, 110
1, 226449, Note_on_c, 2, 74, 127
1, 226720, Note_off_c, 2, 74, 127
1, 226724, Note_on_c, 1, 73, 127
1, 226984, Note_off_c, 1, 73, 127
1, 226984, Note_off_c, 4, 64, 110
1, 226984, Note_off_c, 7, 67, 110
1, 226988, Note_on_c, 5, 65, 110
1, 226988, Note_on_c, 10, 69, 110
1, 226988, Note_on_c, 2, 74, 127
1, 227259, Note_off_c, 2, 74, 127
1, 227263, Note_on_c, 5, 77, 127
1, 227523, Note_off_c, 5, 77, 127
1, 227523, Note_off_c, 10, 69, 110
1, 227523, Note_off_c, 5, 65, 110
1, 227527, Note_on_c, 7, 67, 110
1, 227527, Note_on_c, 11, 70, 110
1, 227527, Note_on_c, 5, 77, 127
1, 227691, Note_off_c, 5, 77, 127
1, 227695, Note_on_c, 4, 76, 127
1, 227859, Note_off_c, 4, 76, 127
1, 227863, Note_on_c, 2, 74, 127
1, 228035, Note_off_c, 2, 50, 127
1, 228061, Note_off_c, 2, 74, 127
1, 228064, Note_on_c, 2, 50, 127
1, 228064, Note_on_c, 4, 76, 127
1, 228590, Note_off_c, 2, 50, 127
1, 228602, Note_on_c, 2, 50, 127
1, 228871, Note_off_c, 11, 70, 110
1, 228871, Note_off_c, 7, 67, 110
1, 228873, Note_off_c, 4, 76, 127
1, 228877, Note_on_c, 7, 79, 127
1, 229137, Note_off_c, 7, 79, 127
1, 229141, Note_on_c, 5, 65, 110
1, 229141, Note_on_c, 10, 69, 110
1, 229141, Note_on_c, 10, 81, 127
1, 229412, Note_off_c, 10, 81, 127
1, 229416, Note_on_c, 11, 82, 127
1, 229676, Note_off_c, 10, 69, 110
1, 229676, Note_off_c, 5, 65, 110
1, 229679, Note_on_c, 7, 67, 110
1, 229679, Note_on_c, 4, 64, 110
1, 229951, Note_off_c, 11, 82, 127
1, 229954, Note_on_c, 1, 73, 127
1, 230214, Note_off_c, 1, 73, 127
1, 230214, Note_off_c, 4, 64, 110
1, 230214, Note_off_c, 7, 67, 110
1, 230218, Note_on_c, 5, 65, 110
1, 230218, Note_on_c, 2, 62, 110
1, 230218, Note_on_c, 2, 74, 127
1, 230489, Note_off_c, 2, 74, 127
1, 230493, Note_on_c, 4, 76, 127
1, 230753, Note_off_c, 4, 76, 127
1, 230753, Note_off_c, 2, 62, 110
1, 230753, Note_off_c, 5, 65, 110
1, 230756, Note_on_c, 1, 61, 110
1, 230756, Note_on_c, 4, 64, 110
1, 230756, Note_on_c, 10, 69, 127
1, 230932, Note_off_c, 10, 69, 127
1, 230936, Note_on_c, 7, 67, 127
1, 231112, Note_off_c, 7, 67, 127
1, 231116, Note_on_c, 5, 65, 127
1, 231266, Note_off_c, 2, 50, 127
1, 231292, Note_off_c, 5, 65, 127
1, 231295, Note_on_c, 2, 50, 127
1, 231295, Note_on_c, 7, 67, 127
1, 231821, Note_off_c, 2, 50, 127
1, 231833, Note_on_c, 2, 50, 127
1, 232101, Note_off_c, 4, 64, 110
1, 232101, Note_off_c, 1, 61, 110
1, 232104, Note_off_c, 7, 67, 127
1, 232108, Note_on_c, 10, 69, 127
1, 232368, Note_off_c, 10, 69, 127
1, 232371, Note_on_c, 4, 64, 110
1, 232371, Note_on_c, 7, 67, 110
1, 232371, Note_on_c, 11, 70, 127
1, 232642, Note_off_c, 11, 70, 127
1, 232646, Note_on_c, 1, 73, 127
1, 232906, Note_off_c, 7, 67, 110
1, 232906, Note_off_c, 4, 64, 110
1, 232910, Note_on_c, 5, 65, 110
1, 232910, Note_on_c, 2, 62, 110
1, 233175, Note_off_c, 1, 73, 127
1, 233179, Note_on_c, 2, 74, 127
1, 233444, Note_off_c, 2, 62, 110
1, 233444, Note_off_c, 5, 65, 110
1, 233448, Note_on_c, 4, 64, 110
1, 233448, Note_on_c, 1, 61, 110
1, 233708, Note_off_c, 2, 74, 127
1, 233711, Note_on_c, 4, 76, 127
1, 233983, Note_off_c, 1, 61, 110
1, 233983, Note_off_c, 4, 64, 110
1, 233986, Note_on_c, 2, 62, 110
1, 233986, Note_on_c, 5, 65, 110
1, 234173, Note_off_c, 4, 76, 127
1, 234261, Note_on_c, 7, 67, 127
1, 234491, Note_off_c, 5, 65, 110
1, 234496, Note_off_c, 2, 50, 127
1, 234521, Note_off_c, 7, 67, 127
1, 234525, Note_on_c, 2, 50, 127
1, 234525, Note_on_c, 5, 65, 127
1, 234796, Note_off_c, 5, 65, 127
1, 234800, Note_on_c, 4, 64, 127
1, 235048, Note_off_c, 2, 50, 127
1, 235060, Note_off_c, 4, 64, 127
1, 235064, Note_on_c, 2, 50, 127
1, 235064, Note_on_c, 5, 65, 127
1, 235332, Note_off_c, 2, 62, 110
1, 235344, Note_off_c, 5, 65, 127
1, 235347, Note_on_c, 11, 70, 127
1, 235587, Note_off_c, 2, 50, 127
1, 235599, Note_off_c, 11, 70, 127
1, 235602, Note_on_c, 7, 55, 110
1, 235602, Note_on_c, 4, 64, 110
1, 235602, Note_on_c, 10, 69, 127
1, 235741, Note_off_c, 10, 69, 127
1, 235745, Note_on_c, 11, 70, 127
1, 235874, Note_off_c, 11, 70, 127
1, 235877, Note_on_c, 10, 69, 127
1, 236006, Note_off_c, 10, 69, 127
1, 236010, Note_on_c, 7, 67, 127
1, 236138, Note_off_c, 4, 64, 110
1, 236138, Note_off_c, 7, 55, 110
1, 236139, Note_off_c, 7, 67, 127
1, 236142, Note_on_c, 5, 53, 110
1, 236142, Note_on_c, 2, 62, 110
1, 236142, Note_on_c, 10, 69, 127
1, 236407, Note_off_c, 10, 69, 127
1, 236411, Note_on_c, 12, 71, 127
1, 236542, Note_off_c, 12, 71, 127
1, 236545, Note_on_c, 1, 73, 127
1, 236676, Note_off_c, 1, 73, 127
1, 236676, Note_off_c, 2, 62, 110
1, 236676, Note_off_c, 5, 53, 110
1, 236680, Note_on_c, 4, 52, 110
1, 236680, Note_on_c, 1, 61, 110
1, 236680, Note_on_c, 2, 74, 127
1, 236811, Note_off_c, 2, 74, 127
1, 236814, Note_on_c, 4, 76, 127
1, 236945, Note_off_c, 4, 76, 127
1, 236948, Note_on_c, 5, 77, 127
1, 237079, Note_off_c, 5, 77, 127
1, 237083, Note_on_c, 7, 79, 127
1, 237214, Note_off_c, 7, 79, 127
1, 237214, Note_off_c, 1, 61, 110
1, 237214, Note_off_c, 4, 52, 110
1, 237217, Note_on_c, 2, 50, 110
1, 237217, Note_on_c, 2, 62, 110
1, 237217, Note_on_c, 5, 77, 127
1, 237373, Note_off_c, 5, 77, 127
1, 237377, Note_on_c, 4, 76, 127
1, 237499, Note_off_c, 4, 76, 127
1, 237503, Note_on_c, 2, 74, 127
1, 237625, Note_off_c, 2, 74, 127
1, 237629, Note_on_c, 4, 76, 127
1, 237749, Note_off_c, 2, 62, 110
1, 237752, Note_off_c, 4, 76, 127
1, 237756, Note_on_c, 2, 38, 127
1, 237756, Note_on_c, 5, 77, 127
1, 238021, Note_off_c, 5, 77, 127
1, 238025, Note_on_c, 2, 74, 127
1, 238282, Note_off_c, 2, 38, 127
1, 238290, Note_off_c, 2, 74, 127
1, 238293, Note_on_c, 2, 38, 127
1, 238293, Note_on_c, 0, 72, 127
1, 238562, Note_off_c, 2, 50, 110
1, 238831, Note_on_c, 2, 62, 110
1, 238831, Note_on_c, 5, 65, 110
1, 239077, Note_off_c, 2, 38, 127
1, 239097, Note_off_c, 0, 72, 127
1, 239101, Note_on_c, 11, 70, 127
1, 239366, Note_off_c, 5, 65, 110
1, 239366, Note_off_c, 2, 62, 110
1, 239370, Note_on_c, 4, 64, 110
1, 239370, Note_on_c, 0, 60, 110
1, 239904, Note_off_c, 0, 60, 110
1, 239904, Note_off_c, 4, 64, 110
1, 239907, Note_on_c, 11, 58, 110
1, 239907, Note_on_c, 2, 62, 110
1, 240173, Note_off_c, 11, 70, 127
1, 240176, Note_on_c, 11, 70, 127
1, 240441, Note_off_c, 2, 62, 110
1, 240441, Note_off_c, 11, 58, 110
1, 240445, Note_on_c, 4, 64, 110
1, 240445, Note_on_c, 0, 60, 110
1, 240710, Note_off_c, 11, 70, 127
1, 240714, Note_on_c, 10, 69, 127
1, 240845, Note_off_c, 10, 69, 127
1, 240848, Note_on_c, 7, 67, 127
1, 240949, Note_off_c, 4, 64, 110
1, 240979, Note_off_c, 7, 67, 127
1, 240982, Note_on_c, 0, 48, 127
1, 240982, Note_on_c, 5, 65, 127
1, 241113, Note_off_c, 5, 65, 127
1, 241117, Note_on_c, 7, 67, 127
1, 241248, Note_off_c, 7, 67, 127
1, 241251, Note_on_c, 4, 64, 127
1, 241508, Note_off_c, 0, 48, 127
1, 241516, Note_off_c, 4, 64, 127
1, 241520, Note_on_c, 0, 48, 127
1, 241520, Note_on_c, 4, 64, 127
1, 241789, Note_off_c, 0, 60, 110
1, 242049, Note_off_c, 4, 64, 127
1, 242058, Note_on_c, 0, 60, 110
1, 242058, Note_on_c, 4, 64, 110
1, 242326, Note_on_c, 10, 69, 127
1, 242583, Note_off_c, 0, 48, 127
1, 242592, Note_off_c, 4, 64, 110
1, 242592, Note_off_c, 0, 60, 110
1, 242595, Note_on_c, 2, 62, 110
1, 242595, Note_on_c, 11, 58, 110
1, 243129, Note_off_c, 11, 58, 110
1, 243129, Note_off_c, 2, 62, 110
1, 243133, Note_on_c, 1, 61, 110
1, 243133, Note_on_c, 10, 57, 110
1, 243667, Note_off_c, 10, 57, 110
1, 243667, Note_off_c, 1, 61, 110
1, 243670, Note_on_c, 2, 62, 110
1, 243670, Note_on_c, 11, 58, 110
1, 243848, Note_off_c, 10, 69, 127
1, 243939, Note_on_c, 12, 71, 127
1, 244070, Note_off_c, 12, 71, 127
1, 244074, Note_on_c, 1, 73, 127
1, 244205, Note_off_c, 1, 73, 127
1, 244208, Note_on_c, 11, 46, 127
1, 244208, Note_on_c, 2, 74, 127
1, 244339, Note_off_c, 2, 74, 127
1, 244342, Note_on_c, 1, 73, 127
1, 244473, Note_off_c, 1, 73, 127
1, 244477, Note_on_c, 12, 71, 127
1, 244608, Note_off_c, 12, 71, 127
1, 244611, Note_on_c, 10, 69, 127
1, 244734, Note_off_c, 11, 46, 127
1, 244742, Note_off_c, 10, 69, 127
1, 244746, Note_on_c, 11, 46, 127
1, 244746, Note_on_c, 2, 74, 127
1, 245011, Note_off_c, 2, 74, 127
1, 245014, Note_off_c, 11, 58, 110
1, 245014, Note_off_c, 2, 62, 110
1, 245014, Note_on_c, 11, 70, 127
1, 245282, Note_off_c, 11, 70, 127
1, 245283, Note_on_c, 11, 58, 110
1, 245283, Note_on_c, 2, 62, 110
1, 245286, Note_on_c, 10, 69, 127
1, 245437, Note_off_c, 10, 69, 127
1, 245441, Note_on_c, 11, 70, 127
1, 245567, Note_off_c, 11, 70, 127
1, 245570, Note_on_c, 10, 69, 127
1, 245692, Note_off_c, 10, 69, 127
1, 245696, Note_on_c, 7, 67, 127
1, 245810, Note_off_c, 11, 46, 127
1, 245818, Note_off_c, 2, 62, 110
1, 245818, Note_off_c, 11, 58, 110
1, 245822, Note_on_c, 1, 61, 110
1, 245822, Note_on_c, 10, 57, 110
1, 246037, Note_off_c, 7, 67, 127
1, 246040, Note_on_c, 10, 69, 127
1, 246143, Note_off_c, 10, 69, 127
1, 246147, Note_on_c, 7, 67, 127
1, 246250, Note_off_c, 7, 67, 127
1, 246254, Note_on_c, 5, 65, 127
1, 246357, Note_off_c, 5, 65, 127
1, 246358, Note_off_c, 10, 57, 110
1, 246358, Note_off_c, 1, 61, 110
1, 246362, Note_on_c, 7, 55, 110
1, 246362, Note_on_c, 12, 59, 110
1, 246362, Note_on_c, 7, 67, 127
1, 246762, Note_off_c, 7, 67, 127
1, 246765, Note_on_c, 7, 67, 127
1, 246896, Note_off_c, 7, 67, 127
1, 246896, Note_off_c, 12, 59, 110
1, 246896, Note_off_c, 7, 55, 110
1, 246899, Note_on_c, 1, 61, 110
1, 246899, Note_on_c, 10, 57, 110
1, 246899, Note_on_c, 7, 67, 127
1, 247433, Note_off_c, 7, 67, 127
1, 247437, Note_on_c, 10, 45, 127
1, 247437, Note_on_c, 1, 73, 127
1, 247582, Note_off_c, 1, 73, 127
1, 247586, Note_on_c, 2, 74, 127
1, 247731, Note_off_c, 2, 74, 127
1, 247735, Note_on_c, 4, 76, 127
1, 247965, Note_off_c, 10, 45, 127
1, 247976, Note_on_c, 10, 45, 127
1, 248107, Note_off_c, 4, 76, 127
1, 248111, Note_on_c, 2, 74, 127
1, 248242, Note_off_c, 2, 74, 127
1, 248245, Note_off_c, 10, 57, 110
1, 248245, Note_off_c, 1, 61, 110
1, 248245, Note_on_c, 1, 73, 127
1, 248376, Note_off_c, 1, 73, 127
1, 248380, Note_on_c, 2, 74, 127
1, 248511, Note_off_c, 2, 74, 127
1, 248514, Note_on_c, 1, 61, 110
1, 248514, Note_on_c, 10, 57, 110
1, 248514, Note_on_c, 4, 76, 127
1, 248645, Note_off_c, 4, 76, 127
1, 248648, Note_on_c, 2, 74, 127
1, 248779, Note_off_c, 2, 74, 127
1, 248783, Note_on_c, 1, 73, 127
1, 248914, Note_off_c, 1, 73, 127
1, 248917, Note_on_c, 12, 71, 127
1, 249048, Note_off_c, 12, 71, 127
1, 249048, Note_off_c, 10, 57, 110
1, 249048, Note_off_c, 1, 61, 110
1, 249052, Note_on_c, 2, 62, 110
1, 249052, Note_on_c, 12, 59, 110
1, 249052, Note_on_c, 10, 69, 127
1, 249317, Note_off_c, 10, 69, 127
1, 249320, Note_on_c, 7, 67, 127
1, 249585, Note_off_c, 10, 45, 127
1, 249586, Note_off_c, 12, 59, 110
1, 249586, Note_off_c, 2, 62, 110
1, 249589, Note_on_c, 1, 61, 110
1, 249589, Note_on_c, 4, 64, 110
1, 249720, Note_off_c, 7, 67, 127
1, 249724, Note_on_c, 11, 70, 127
1, 249855, Note_off_c, 11, 70, 127
1, 249858, Note_on_c, 10, 69, 127
1, 249989, Note_off_c, 10, 69, 127
1, 249992, Note_on_c, 7, 67, 127
1, 250123, Note_off_c, 7, 67, 127
1, 250123, Note_off_c, 4, 64, 110
1, 250123, Note_off_c, 1, 61, 110
1, 250127, Note_on_c, 2, 62, 110
1, 250127, Note_on_c, 5, 65, 127
1, 250258, Note_off_c, 5, 65, 127
1, 250261, Note_on_c, 7, 67, 127
1, 250392, Note_off_c, 7, 67, 127
1, 250396, Note_on_c, 5, 65, 127
1, 250527, Note_off_c, 5, 65, 127
1, 250530, Note_on_c, 4, 64, 127
1, 250661, Note_off_c, 4, 64, 127
1, 250664, Note_on_c, 2, 50, 127
1, 250664, Note_on_c, 5, 65, 127
1, 250795, Note_off_c, 5, 65, 127
1, 250799, Note_on_c, 10, 69, 127
1, 250930, Note_off_c, 10, 69, 127
1, 250933, Note_on_c, 1, 61, 127
1, 251190, Note_off_c, 2, 50, 127
1, 251198, Note_off_c, 1, 61, 127
1, 251202, Note_on_c, 2, 50, 127
1, 251202, Note_on_c, 1, 61, 127
1, 251471, Note_off_c, 2, 62, 110
1, 251736, Note_off_c, 1, 61, 127
1, 251740, Note_on_c, 5, 65, 110
1, 251740, Note_on_c, 2, 62, 127
1, 252274, Note_off_c, 5, 65, 110
1, 252280, Note_on_c, 4, 64, 110
1, 252280, Note_on_c, 7, 67, 110
1, 252811, Note_off_c, 2, 50, 127
1, 252812, Note_off_c, 2, 62, 127
1, 252820, Note_off_c, 7, 67, 110
1, 252820, Note_off_c, 4, 64, 110
1, 252823, Note_on_c, 5, 65, 110
1, 252823, Note_on_c, 10, 69, 110
1, 252823, Note_on_c, 2, 74, 127
1, 253357, Note_off_c, 10, 69, 110
1, 253357, Note_off_c, 5, 65, 110
1, 253361, Note_on_c, 11, 70, 110
1, 253361, Note_on_c, 7, 67, 110
1, 253626, Note_off_c, 2, 74, 127
1, 253630, Note_on_c, 0, 72, 127
1, 253893, Note_off_c, 11, 70, 110
1, 253896, Note_off_c, 0, 72, 127
1, 253900, Note_on_c, 7, 55, 127
1, 253900, Note_on_c, 0, 72, 127
1, 254059, Note_off_c, 0, 72, 127
1, 254062, Note_on_c, 11, 70, 127
1, 254221, Note_off_c, 11, 70, 127
1, 254225, Note_on_c, 10, 69, 127
1, 254427, Note_off_c, 7, 55, 127
1, 254435, Note_off_c, 10, 69, 127
1, 254438, Note_on_c, 7, 55, 127
1, 254438, Note_on_c, 11, 70, 127
1, 254703, Note_off_c, 11, 70, 127
1, 254707, Note_off_c, 7, 67, 110
1, 254707, Note_on_c, 7, 67, 127
1, 254972, Note_off_c, 7, 67, 127
1, 254976, Note_on_c, 5, 65, 110
1, 254976, Note_on_c, 10, 69, 110
1, 254976, Note_on_c, 11, 70, 127
1, 255241, Note_off_c, 11, 70, 127
1, 255245, Note_on_c, 2, 74, 127
1, 255510, Note_off_c, 2, 74, 127
1, 255510, Note_off_c, 10, 69, 110
1, 255510, Note_off_c, 5, 65, 110
1, 255513, Note_on_c, 4, 64, 110
1, 255513, Note_on_c, 7, 67, 110
1, 255513, Note_on_c, 7, 79, 127
1, 255778, Note_off_c, 7, 79, 127
1, 255782, Note_on_c, 2, 74, 127
1, 256047, Note_off_c, 2, 74, 127
1, 256047, Note_off_c, 7, 67, 110
1, 256047, Note_off_c, 4, 64, 110
1, 256047, Note_off_c, 7, 55, 127
1, 256051, Note_on_c, 5, 65, 110
1, 256051, Note_on_c, 2, 62, 110
1, 256051, Note_on_c, 7, 79, 127
1, 256196, Note_off_c, 7, 79, 127
1, 256200, Note_on_c, 10, 81, 127
1, 256345, Note_off_c, 10, 81, 127
1, 256349, Note_on_c, 11, 82, 127
1, 256587, Note_off_c, 2, 62, 110
1, 256587, Note_off_c, 5, 65, 110
1, 256591, Note_on_c, 4, 64, 110
1, 256591, Note_on_c, 0, 60, 110
1, 256721, Note_off_c, 11, 82, 127
1, 256725, Note_on_c, 0, 84, 127
1, 256856, Note_off_c, 0, 84, 127
1, 256859, Note_on_c, 11, 82, 127
1, 256990, Note_off_c, 11, 82, 127
1, 256994, Note_on_c, 10, 81, 127
1, 257125, Note_off_c, 10, 81, 127
1, 257128, Note_on_c, 0, 48, 127
1, 257128, Note_on_c, 11, 82, 127
1, 257259, Note_off_c, 11, 82, 127
1, 257263, Note_on_c, 7, 79, 127
1, 257394, Note_off_c, 7, 79, 127
1, 257397, Note_on_c, 10, 81, 127
1, 257528, Note_off_c, 10, 81, 127
1, 257531, Note_on_c, 11, 82, 127
1, 257654, Note_off_c, 0, 48, 127
1, 257662, Note_off_c, 11, 82, 127
1, 257666, Note_on_c, 0, 48, 127
1, 257666, Note_on_c, 5, 77, 127
1, 257935, Note_off_c, 0, 60, 110
1, 257935, Note_off_c, 4, 64, 110
1, 258203, Note_on_c, 4, 64, 110
1, 258203, Note_on_c, 0, 60, 110
1, 258469, Note_off_c, 5, 77, 127
1, 258472, Note_on_c, 4, 76, 127
1, 258737, Note_off_c, 0, 60, 110
1, 258737, Note_off_c, 4, 64, 110
1, 258741, Note_on_c, 5, 65, 110
1, 258741, Note_on_c, 2, 62, 110
1, 259103, Note_off_c, 4, 76, 127
1, 259275, Note_off_c, 2, 62, 110
1, 259275, Note_off_c, 5, 65, 110
1, 259275, Note_off_c, 0, 48, 127
1, 259279, Note_on_c, 4, 64, 110
1, 259279, Note_on_c, 7, 67, 110
1, 259279, Note_on_c, 0, 72, 127
1, 259416, Note_off_c, 0, 72, 127
1, 259419, Note_on_c, 2, 74, 127
1, 259556, Note_off_c, 2, 74, 127
1, 259560, Note_on_c, 4, 76, 127
1, 259815, Note_off_c, 7, 67, 110
1, 259815, Note_off_c, 4, 64, 110
1, 259818, Note_on_c, 5, 65, 110
1, 259818, Note_on_c, 10, 69, 110
1, 259949, Note_off_c, 4, 76, 127
1, 259953, Note_on_c, 11, 70, 127
1, 260084, Note_off_c, 11, 70, 127
1, 260087, Note_on_c, 0, 72, 127
1, 260218, Note_off_c, 0, 72, 127
1, 260222, Note_on_c, 2, 74, 127
1, 260353, Note_off_c, 2, 74, 127
1, 260356, Note_on_c, 5, 53, 127
1, 260356, Note_on_c, 0, 72, 127
1, 260487, Note_off_c, 0, 72, 127
1, 260490, Note_on_c, 11, 70, 127
1, 260602, Note_off_c, 10, 69, 110
1, 260622, Note_off_c, 11, 70, 127
1, 260626, Note_on_c, 10, 69, 127
1, 260757, Note_off_c, 10, 69, 127
1, 260760, Note_on_c, 7, 67, 127
1, 260883, Note_off_c, 5, 53, 127
1, 260891, Note_off_c, 7, 67, 127
1, 260895, Note_on_c, 5, 53, 127
1, 260895, Note_on_c, 10, 69, 127
1, 260995, Note_off_c, 5, 65, 110
1, 261034, Note_off_c, 10, 69, 127
1, 261037, Note_on_c, 5, 65, 127
1, 261166, Note_off_c, 5, 65, 127
1, 261170, Note_on_c, 7, 67, 127
1, 261299, Note_off_c, 7, 67, 127
1, 261302, Note_on_c, 10, 69, 127
1, 261431, Note_off_c, 10, 69, 127
1, 261434, Note_on_c, 7, 67, 110
1, 261434, Note_on_c, 4, 64, 110
1, 261434, Note_on_c, 11, 70, 127
1, 261573, Note_off_c, 11, 70, 127
1, 261577, Note_on_c, 0, 72, 127
1, 261706, Note_off_c, 0, 72, 127
1, 261709, Note_on_c, 2, 74, 127
1, 261838, Note_off_c, 2, 74, 127
1, 261842, Note_on_c, 4, 76, 127
1, 261962, Note_off_c, 5, 53, 127
1, 261970, Note_off_c, 4, 64, 110
1, 261970, Note_off_c, 7, 67, 110
1, 261971, Note_off_c, 4, 76, 127
1, 261974, Note_on_c, 5, 65, 110
1, 261974, Note_on_c, 2, 62, 110
1, 261974, Note_on_c, 5, 77, 127
1, 262134, Note_off_c, 5, 77, 127
1, 262134, Note_on_c, 3, 75, 127
1, 262260, Note_off_c, 3, 75, 127
1, 262263, Note_on_c, 2, 74, 127
1, 262389, Note_off_c, 2, 74, 127
1, 262392, Note_on_c, 0, 72, 127
1, 262516, Note_off_c, 2, 62, 110
1, 262516, Note_off_c, 5, 65, 110
1, 262518, Note_off_c, 0, 72, 127
1, 262521, Note_on_c, 3, 63, 110
1, 262521, Note_on_c, 0, 60, 110
1, 262521, Note_on_c, 10, 81, 127
1, 262652, Note_off_c, 10, 81, 127
1, 262655, Note_on_c, 7, 79, 127
1, 262786, Note_off_c, 7, 79, 127
1, 262790, Note_on_c, 10, 81, 127
1, 263055, Note_off_c, 0, 60, 110
1, 263055, Note_off_c, 3, 63, 110
1, 263059, Note_on_c, 2, 62, 110
1, 263059, Note_on_c, 11, 58, 110
1, 263324, Note_off_c, 10, 81, 127
1, 263327, Note_on_c, 2, 74, 127
1, 263592, Note_off_c, 2, 74, 127
1, 263596, Note_on_c, 11, 46, 127
1, 263596, Note_on_c, 3, 75, 127
1, 263696, Note_off_c, 3, 75, 127
1, 263700, Note_on_c, 2, 74, 127
1, 263800, Note_off_c, 2, 74, 127
1, 263804, Note_on_c, 3, 75, 127
1, 263904, Note_off_c, 3, 75, 127
1, 263908, Note_on_c, 2, 74, 127
1, 264008, Note_off_c, 2, 74, 127
1, 264012, Note_on_c, 0, 72, 127
1, 264124, Note_off_c, 11, 46, 127
1, 264132, Note_off_c, 0, 72, 127
1, 264136, Note_on_c, 11, 46, 127
1, 264136, Note_on_c, 2, 74, 127
1, 264405, Note_off_c, 11, 58, 110
1, 264405, Note_off_c, 2, 62, 110
1, 264674, Note_on_c, 2, 62, 110
1, 264674, Note_on_c, 11, 58, 110
1, 265199, Note_off_c, 11, 46, 127
1, 265208, Note_off_c, 11, 58, 110
1, 265208, Note_off_c, 2, 62, 110
1, 265208, Note_off_c, 2, 74, 127
1, 265211, Note_on_c, 0, 60, 110
1, 265211, Note_on_c, 10, 57, 110
1, 265211, Note_on_c, 7, 79, 127
1, 265745, Note_off_c, 10, 57, 110
1, 265745, Note_off_c, 0, 60, 110
1, 265749, Note_on_c, 11, 58, 110
1, 265749, Note_on_c, 7, 55, 110
1, 266283, Note_off_c, 7, 55, 110
1, 266283, Note_off_c, 11, 58, 110
1, 266286, Note_on_c, 0, 60, 110
1, 266286, Note_on_c, 10, 57, 110
1, 266366, Note_off_c, 7, 79, 127
1, 266421, Note_on_c, 11, 82, 127
1, 266552, Note_off_c, 11, 82, 127
1, 266555, Note_on_c, 10, 81, 127
1, 266686, Note_off_c, 10, 81, 127
1, 266690, Note_on_c, 7, 79, 127
1, 266821, Note_off_c, 7, 79, 127
1, 266824, Note_on_c, 10, 45, 127
1, 266824, Note_on_c, 5, 77, 127
1, 266955, Note_off_c, 5, 77, 127
1, 266958, Note_on_c, 4, 76, 127
1, 267089, Note_off_c, 4, 76, 127
1, 267093, Note_on_c, 2, 74, 127
1, 267224, Note_off_c, 2, 74, 127
1, 267227, Note_on_c, 0, 72, 127
1, 267350, Note_off_c, 10, 45, 127
1, 267358, Note_off_c, 0, 72, 127
1, 267362, Note_on_c, 10, 45, 127
1, 267362, Note_on_c, 0, 72, 127
1, 267630, Note_off_c, 10, 57, 110
1, 267630, Note_off_c, 0, 60, 110
1, 267659, Note_off_c, 0, 72, 127
1, 267662, Note_on_c, 5, 77, 127
1, 267900, Note_on_c, 10, 57, 110
1, 267900, Note_on_c, 0, 60, 110
1, 268166, Note_off_c, 5, 77, 127
1, 268169, Note_on_c, 5, 77, 127
1, 268426, Note_off_c, 10, 45, 127
1, 268434, Note_off_c, 5, 77, 127
1, 268434, Note_off_c, 0, 60, 110
1, 268434, Note_off_c, 10, 57, 110
1, 268438, Note_on_c, 11, 58, 110
1, 268438, Note_on_c, 7, 55, 110
1, 268438, Note_on_c, 4, 76, 127
1, 268575, Note_off_c, 4, 76, 127
1, 268579, Note_on_c, 5, 77, 127
1, 268682, Note_off_c, 5, 77, 127
1, 268686, Note_on_c, 7, 79, 127
1, 268789, Note_off_c, 7, 79, 127
1, 268793, Note_on_c, 5, 77, 127
1, 268890, Note_off_c, 5, 77, 127
1, 268894, Note_on_c, 7, 79, 127
1, 268974, Note_off_c, 7, 79, 127
1, 268974, Note_off_c, 7, 55, 110
1, 268974, Note_off_c, 11, 58, 110
1, 268978, Note_on_c, 5, 53, 110
1, 268978, Note_on_c, 10, 57, 110
1, 268978, Note_on_c, 5, 77, 127
1, 269058, Note_off_c, 5, 77, 127
1, 269062, Note_on_c, 7, 79, 127
1, 269142, Note_off_c, 7, 79, 127
1, 269146, Note_on_c, 5, 77, 127
1, 269226, Note_off_c, 5, 77, 127
1, 269230, Note_on_c, 7, 79, 127
1, 269327, Note_off_c, 7, 79, 127
1, 269330, Note_on_c, 5, 77, 127
1, 269420, Note_off_c, 5, 77, 127
1, 269424, Note_on_c, 4, 76, 127
1, 269514, Note_off_c, 4, 76, 127
1, 269514, Note_off_c, 10, 57, 110
1, 269514, Note_off_c, 5, 53, 110
1, 269517, Note_on_c, 7, 55, 110
1, 269517, Note_on_c, 11, 58, 110
1, 269517, Note_on_c, 5, 77, 127
1, 269648, Note_off_c, 5, 77, 127
1, 269652, Note_on_c, 4, 76, 127
1, 269783, Note_off_c, 4, 76, 127
1, 269786, Note_on_c, 2, 74, 127
1, 269917, Note_off_c, 2, 74, 127
1, 269920, Note_on_c, 4, 76, 127
1, 270051, Note_off_c, 4, 76, 127
1, 270055, Note_on_c, 7, 43, 127
1, 270055, Note_on_c, 5, 77, 127
1, 270320, Note_off_c, 5, 77, 127
1, 270324, Note_on_c, 2, 74, 127
1, 270581, Note_off_c, 7, 43, 127
1, 270589, Note_off_c, 2, 74, 127
1, 270592, Note_on_c, 7, 43, 127
1, 270592, Note_on_c, 0, 72, 127
1, 270751, Note_off_c, 0, 72, 127
1, 270755, Note_on_c, 11, 70, 127
1, 270861, Note_off_c, 11, 58, 110
1, 270861, Note_off_c, 7, 55, 110
1, 270914, Note_off_c, 11, 70, 127
1, 270918, Note_on_c, 10, 69, 127
1, 271128, Note_off_c, 10, 69, 127
1, 271131, Note_on_c, 5, 53, 110
1, 271131, Note_on_c, 10, 57, 110
1, 271131, Note_on_c, 11, 70, 127
1, 271213, Note_on_c, 10, 69, 127
1, 271215, Note_off_c, 11, 70, 127
1, 271295, Note_on_c, 11, 70, 127
1, 271297, Note_off_c, 10, 69, 127
1, 271667, Note_off_c, 10, 57, 110
1, 271667, Note_off_c, 5, 53, 110
1, 271671, Note_on_c, 7, 55, 110
1, 271671, Note_on_c, 4, 52, 110
1, 271963, Note_off_c, 11, 70, 127
1, 271979, Note_on_c, 0, 72, 127
1, 272059, Note_off_c, 0, 72, 127
1, 272063, Note_on_c, 11, 70, 127
1, 272143, Note_off_c, 11, 70, 127
1, 272147, Note_on_c, 10, 69, 127
1, 272205, Note_off_c, 7, 43, 127
1, 272206, Note_off_c, 4, 52, 110
1, 272206, Note_off_c, 7, 55, 110
1, 272209, Note_on_c, 5, 53, 110
1, 272209, Note_on_c, 2, 50, 110
1, 272228, Note_off_c, 10, 69, 127
1, 272233, Note_on_c, 11, 70, 127
1, 272639, Note_off_c, 11, 70, 127
1, 272642, Note_on_c, 11, 70, 127
1, 272745, Note_off_c, 11, 70, 127
1, 272745, Note_off_c, 2, 50, 110
1, 272745, Note_off_c, 5, 53, 110
1, 272749, Note_on_c, 4, 52, 110
1, 272749, Note_on_c, 0, 48, 110
1, 272749, Note_on_c, 11, 70, 127
1, 273286, Note_off_c, 11, 70, 127
1, 273287, Note_on_c, 0, 36, 127
1, 273290, Note_on_c, 7, 79, 127
1, 273814, Note_off_c, 0, 36, 127
1, 273825, Note_on_c, 0, 36, 127
1, 273956, Note_off_c, 7, 79, 127
1, 273960, Note_on_c, 5, 77, 127
1, 274091, Note_off_c, 5, 77, 127
1, 274094, Note_off_c, 0, 48, 110
1, 274094, Note_off_c, 4, 52, 110
1, 274094, Note_on_c, 4, 76, 127
1, 274225, Note_off_c, 4, 76, 127
1, 274229, Note_on_c, 5, 77, 127
1, 274360, Note_off_c, 5, 77, 127
1, 274363, Note_on_c, 0, 48, 110
1, 274363, Note_on_c, 4, 52, 110
1, 274363, Note_on_c, 7, 79, 127
1, 274502, Note_off_c, 7, 79, 127
1, 274506, Note_on_c, 5, 77, 127
1, 274635, Note_off_c, 5, 77, 127
1, 274638, Note_on_c, 4, 76, 127
1, 274767, Note_off_c, 4, 76, 127
1, 274770, Note_on_c, 2, 74, 127
1, 274899, Note_off_c, 2, 74, 127
1, 274899, Note_off_c, 4, 52, 110
1, 274899, Note_off_c, 0, 48, 110
1, 274903, Note_on_c, 5, 53, 110
1, 274903, Note_on_c, 2, 50, 110
1, 274903, Note_on_c, 0, 72, 127
1, 275180, Note_off_c, 0, 72, 127
1, 275183, Note_on_c, 11, 70, 127
1, 275309, Note_off_c, 11, 70, 127
1, 275312, Note_on_c, 10, 69, 127
1, 275438, Note_off_c, 10, 69, 127
1, 275438, Note_off_c, 2, 50, 110
1, 275438, Note_off_c, 5, 53, 110
1, 275441, Note_on_c, 4, 52, 110
1, 275441, Note_on_c, 7, 55, 110
1, 275441, Note_on_c, 11, 70, 127
1, 275864, Note_off_c, 11, 70, 127
1, 275868, Note_on_c, 7, 79, 127
1, 275976, Note_off_c, 7, 55, 110
1, 275976, Note_off_c, 4, 52, 110
1, 275977, Note_off_c, 7, 79, 127
1, 275980, Note_on_c, 5, 53, 110
1, 275980, Note_on_c, 10, 57, 110
1, 275980, Note_on_c, 11, 70, 127
1, 276245, Note_off_c, 11, 70, 127
1, 276249, Note_on_c, 10, 69, 127
1, 276488, Note_off_c, 0, 36, 127
1, 276514, Note_off_c, 10, 69, 127
1, 276518, Note_on_c, 0, 36, 127
1, 276518, Note_on_c, 10, 81, 127
1, 276649, Note_off_c, 10, 81, 127
1, 276652, Note_on_c, 7, 79, 127
1, 276783, Note_off_c, 7, 79, 127
1, 276786, Note_on_c, 10, 81, 127
1, 277044, Note_off_c, 0, 36, 127
1, 277055, Note_on_c, 0, 36, 127
1, 277186, Note_off_c, 10, 81, 127
1, 277190, Note_on_c, 7, 79, 127
1, 277321, Note_off_c, 7, 79, 127
1, 277324, Note_off_c, 10, 57, 110
1, 277324, Note_off_c, 5, 53, 110
1, 277324, Note_on_c, 5, 77, 127
1, 277455, Note_off_c, 5, 77, 127
1, 277458, Note_on_c, 7, 79, 127
1, 277589, Note_off_c, 7, 79, 127
1, 277593, Note_on_c, 5, 53, 110
1, 277593, Note_on_c, 2, 50, 110
1, 277593, Note_on_c, 10, 81, 127
1, 277752, Note_off_c, 10, 81, 127
1, 277758, Note_on_c, 7, 79, 127
1, 277890, Note_off_c, 7, 79, 127
1, 277891, Note_on_c, 5, 77, 127
1, 278020, Note_off_c, 5, 77, 127
1, 278023, Note_on_c, 4, 76, 127
1, 278129, Note_off_c, 4, 76, 127
1, 278129, Note_off_c, 2, 50, 110
1, 278129, Note_off_c, 5, 53, 110
1, 278132, Note_on_c, 7, 55, 110
1, 278132, Note_on_c, 4, 52, 110
1, 278132, Note_on_c, 2, 74, 127
1, 278277, Note_off_c, 2, 74, 127
1, 278282, Note_on_c, 0, 72, 127
1, 278411, Note_off_c, 0, 72, 127
1, 278414, Note_on_c, 11, 70, 127
1, 278543, Note_off_c, 11, 70, 127
1, 278546, Note_on_c, 10, 69, 127
1, 278668, Note_off_c, 10, 69, 127
1, 278668, Note_off_c, 4, 52, 110
1, 278668, Note_off_c, 7, 55, 110
1, 278672, Note_on_c, 10, 57, 110
1, 278672, Note_on_c, 5, 53, 110
1, 278672, Note_on_c, 7, 67, 127
1, 278811, Note_off_c, 7, 67, 127
1, 278815, Note_on_c, 5, 65, 127
1, 278944, Note_off_c, 5, 65, 127
1, 278947, Note_on_c, 4, 64, 127
1, 279076, Note_off_c, 4, 64, 127
1, 279080, Note_on_c, 5, 65, 127
1, 279206, Note_off_c, 5, 65, 127
1, 279208, Note_off_c, 5, 53, 110
1, 279208, Note_off_c, 10, 57, 110
1, 279212, Note_on_c, 11, 58, 110
1, 279212, Note_on_c, 7, 55, 110
1, 279212, Note_on_c, 5, 65, 127
1, 279500, Note_off_c, 5, 65, 127
1, 279504, Note_on_c, 4, 64, 127
1, 279722, Note_off_c, 0, 36, 127
1, 279751, Note_on_c, 0, 36, 127
1, 279882, Note_off_c, 4, 64, 127
1, 279885, Note_on_c, 7, 67, 127
1, 280016, Note_off_c, 7, 67, 127
1, 280019, Note_on_c, 5, 65, 127
1, 280150, Note_off_c, 5, 65, 127
1, 280154, Note_on_c, 4, 64, 127
1, 280277, Note_off_c, 0, 36, 127
1, 280285, Note_off_c, 4, 64, 127
1, 280288, Note_on_c, 0, 36, 127
1, 280288, Note_on_c, 11, 70, 127
1, 280436, Note_off_c, 11, 70, 127
1, 280439, Note_on_c, 0, 72, 127
1, 280557, Note_off_c, 7, 55, 110
1, 280557, Note_off_c, 11, 58, 110
1, 280565, Note_off_c, 0, 72, 127
1, 280568, Note_on_c, 11, 70, 127
1, 280694, Note_off_c, 11, 70, 127
1, 280698, Note_on_c, 10, 69, 127
1, 280824, Note_off_c, 10, 69, 127
1, 280827, Note_on_c, 7, 55, 110
1, 280827, Note_on_c, 4, 52, 110
1, 280827, Note_on_c, 11, 70, 127
1, 281092, Note_off_c, 11, 70, 127
1, 281096, Note_on_c, 0, 72, 127
1, 281361, Note_off_c, 4, 52, 110
1, 281361, Note_off_c, 7, 55, 110
1, 281364, Note_on_c, 10, 57, 110
1, 281364, Note_on_c, 5, 53, 110
1, 281630, Note_off_c, 0, 72, 127
1, 281633, Note_on_c, 2, 74, 127
1, 281898, Note_off_c, 5, 53, 110
1, 281898, Note_off_c, 10, 57, 110
1, 281902, Note_on_c, 11, 58, 110
1, 281902, Note_on_c, 7, 55, 110
1, 282167, Note_off_c, 2, 74, 127
1, 282171, Note_on_c, 4, 76, 127
1, 282436, Note_off_c, 7, 55, 110
1, 282436, Note_off_c, 11, 58, 110
1, 282440, Note_on_c, 0, 60, 110
1, 282440, Note_on_c, 10, 57, 110
1, 282571, Note_off_c, 4, 76, 127
1, 282574, Note_on_c, 7, 79, 127
1, 282705, Note_off_c, 7, 79, 127
1, 282708, Note_on_c, 5, 77, 127
1, 282839, Note_off_c, 5, 77, 127
1, 282843, Note_on_c, 4, 76, 127
1, 282948, Note_off_c, 0, 36, 127
1, 282974, Note_off_c, 4, 76, 127
1, 282977, Note_on_c, 0, 36, 127
1, 282977, Note_on_c, 5, 77, 127
1, 283116, Note_off_c, 5, 77, 127
1, 283120, Note_on_c, 0, 72, 127
1, 283249, Note_off_c, 0, 72, 127
1, 283252, Note_on_c, 2, 74, 127
1, 283381, Note_off_c, 2, 74, 127
1, 283385, Note_on_c, 4, 76, 127
1, 283505, Note_off_c, 0, 36, 127
1, 283514, Note_off_c, 4, 76, 127
1, 283517, Note_on_c, 0, 36, 127
1, 283517, Note_on_c, 5, 77, 127
1, 283656, Note_off_c, 5, 77, 127
1, 283660, Note_on_c, 4, 76, 127
1, 283786, Note_off_c, 10, 57, 110
1, 283786, Note_off_c, 0, 60, 110
1, 283789, Note_off_c, 4, 76, 127
1, 283792, Note_on_c, 5, 77, 127
1, 283921, Note_off_c, 5, 77, 127
1, 283924, Note_on_c, 7, 79, 127
1, 284053, Note_off_c, 7, 79, 127
1, 284057, Note_on_c, 10, 57, 110
1, 284057, Note_on_c, 0, 60, 110
1, 284057, Note_on_c, 5, 77, 127
1, 284196, Note_off_c, 5, 77, 127
1, 284199, Note_on_c, 7, 79, 127
1, 284328, Note_off_c, 7, 79, 127
1, 284332, Note_on_c, 10, 81, 127
1, 284461, Note_off_c, 10, 81, 127
1, 284464, Note_on_c, 7, 79, 127
1, 284593, Note_off_c, 7, 79, 127
1, 284593, Note_off_c, 0, 60, 110
1, 284593, Note_off_c, 10, 57, 110
1, 284596, Note_on_c, 7, 55, 110
1, 284596, Note_on_c, 11, 58, 110
1, 284596, Note_on_c, 10, 81, 127
1, 284727, Note_off_c, 10, 81, 127
1, 284731, Note_on_c, 11, 82, 127
1, 284862, Note_off_c, 11, 82, 127
1, 284865, Note_on_c, 10, 81, 127
1, 284996, Note_off_c, 10, 81, 127
1, 284999, Note_on_c, 11, 82, 127
1, 285130, Note_off_c, 11, 82, 127
1, 285130, Note_off_c, 11, 58, 110
1, 285130, Note_off_c, 7, 55, 110
1, 285134, Note_on_c, 5, 53, 110
1, 285134, Note_on_c, 10, 57, 110
1, 285134, Note_on_c, 0, 84, 127
1, 285290, Note_off_c, 0, 84, 127
1, 285293, Note_on_c, 10, 81, 127
1, 285415, Note_off_c, 10, 81, 127
1, 285419, Note_on_c, 11, 82, 127
1, 285541, Note_off_c, 11, 82, 127
1, 285545, Note_on_c, 0, 84, 127
1, 285667, Note_off_c, 0, 84, 127
1, 285668, Note_off_c, 10, 57, 110
1, 285668, Note_off_c, 5, 53, 110
1, 285671, Note_on_c, 7, 55, 110
1, 285671, Note_on_c, 11, 58, 110
1, 285671, Note_on_c, 0, 84, 127
1, 285936, Note_off_c, 0, 84, 127
1, 285940, Note_on_c, 5, 77, 127
1, 286180, Note_off_c, 0, 36, 127
1, 286209, Note_on_c, 0, 36, 127
1, 286474, Note_off_c, 5, 77, 127
1, 286478, Note_on_c, 4, 76, 127
1, 286735, Note_off_c, 0, 36, 127
1, 286747, Note_on_c, 0, 36, 127
1, 286878, Note_off_c, 4, 76, 127
1, 286881, Note_on_c, 2, 74, 127
1, 287012, Note_off_c, 2, 74, 127
1, 287015, Note_off_c, 11, 58, 110
1, 287015, Note_off_c, 7, 55, 110
1, 287015, Note_on_c, 4, 76, 127
1, 287146, Note_off_c, 4, 76, 127
1, 287150, Note_on_c, 5, 77, 127
1, 287281, Note_off_c, 5, 77, 127
1, 287284, Note_on_c, 11, 58, 110
1, 287284, Note_on_c, 7, 55, 110
1, 287284, Note_on_c, 4, 76, 127
1, 287423, Note_off_c, 4, 76, 127
1, 287427, Note_on_c, 7, 79, 127
1, 287556, Note_off_c, 7, 79, 127
1, 287559, Note_on_c, 5, 77, 127
1, 287688, Note_off_c, 5, 77, 127
1, 287692, Note_on_c, 4, 76, 127
1, 287820, Note_off_c, 7, 55, 110
1, 287820, Note_off_c, 11, 58, 110
1, 287821, Note_off_c, 4, 76, 127
1, 287824, Note_on_c, 10, 57, 110
1, 287824, Note_on_c, 5, 53, 110
1, 287824, Note_on_c, 2, 74, 127
1, 287963, Note_off_c, 2, 74, 127
1, 287967, Note_on_c, 0, 72, 127
1, 288096, Note_off_c, 0, 72, 127
1, 288099, Note_on_c, 11, 70, 127
1, 288228, Note_off_c, 11, 70, 127
1, 288231, Note_on_c, 10, 69, 127
1, 288360, Note_off_c, 10, 69, 127
1, 288360, Note_off_c, 5, 53, 110
1, 288360, Note_off_c, 10, 57, 110
1, 288364, Note_on_c, 4, 52, 110
1, 288364, Note_on_c, 7, 55, 110
1, 288364, Note_on_c, 11, 70, 127
1, 288624, Note_off_c, 11, 70, 127
1, 288627, Note_on_c, 7, 79, 127
1, 288899, Note_off_c, 7, 55, 110
1, 288899, Note_off_c, 4, 52, 110
1, 288902, Note_on_c, 5, 53, 110
1, 288902, Note_on_c, 10, 57, 110
1, 289033, Note_off_c, 7, 79, 127
1, 289037, Note_on_c, 5, 77, 127
1, 289168, Note_off_c, 5, 77, 127
1, 289171, Note_on_c, 4, 76, 127
1, 289302, Note_off_c, 4, 76, 127
1, 289306, Note_on_c, 7, 79, 127
1, 289411, Note_off_c, 0, 36, 127
1, 289437, Note_off_c, 7, 79, 127
1, 289440, Note_on_c, 0, 36, 127
1, 289440, Note_on_c, 5, 77, 127
1, 289571, Note_off_c, 5, 77, 127
1, 289574, Note_on_c, 4, 76, 127
1, 289705, Note_off_c, 4, 76, 127
1, 289709, Note_on_c, 2, 74, 127
1, 289840, Note_off_c, 2, 74, 127
1, 289843, Note_on_c, 5, 77, 127
1, 289966, Note_off_c, 0, 36, 127
1, 289974, Note_off_c, 5, 77, 127
1, 289978, Note_on_c, 0, 36, 127
1, 289978, Note_on_c, 4, 76, 127
1, 290109, Note_off_c, 4, 76, 127
1, 290112, Note_on_c, 2, 74, 127
1, 290243, Note_off_c, 2, 74, 127
1, 290246, Note_off_c, 10, 57, 110
1, 290246, Note_off_c, 5, 53, 110
1, 290246, Note_on_c, 0, 72, 127
1, 290377, Note_off_c, 0, 72, 127
1, 290381, Note_on_c, 4, 76, 127
1, 290512, Note_off_c, 4, 76, 127
1, 290515, Note_on_c, 10, 57, 110
1, 290515, Note_on_c, 5, 53, 110
1, 290515, Note_on_c, 2, 74, 127
1, 290654, Note_off_c, 2, 74, 127
1, 290658, Note_on_c, 0, 72, 127
1, 290787, Note_off_c, 0, 72, 127
1, 290790, Note_on_c, 11, 70, 127
1, 290919, Note_off_c, 11, 70, 127
1, 290923, Note_on_c, 2, 74, 127
1, 291051, Note_off_c, 5, 53, 110
1, 291051, Note_off_c, 10, 57, 110
1, 291052, Note_off_c, 2, 74, 127
1, 291055, Note_on_c, 4, 52, 110
1, 291055, Note_on_c, 7, 55, 110
1, 291055, Note_on_c, 0, 72, 127
1, 291203, Note_off_c, 0, 72, 127
1, 291206, Note_on_c, 11, 70, 127
1, 291332, Note_off_c, 11, 70, 127
1, 291335, Note_on_c, 10, 69, 127
1, 291461, Note_off_c, 10, 69, 127
1, 291464, Note_on_c, 0, 72, 127
1, 291590, Note_off_c, 0, 72, 127
1, 291590, Note_off_c, 7, 55, 110
1, 291590, Note_off_c, 4, 52, 110
1, 291593, Note_on_c, 5, 53, 110
1, 291593, Note_on_c, 2, 50, 110
1, 291593, Note_on_c, 11, 70, 127
1, 291749, Note_off_c, 11, 70, 127
1, 291753, Note_on_c, 10, 69, 127
1, 291875, Note_off_c, 10, 69, 127
1, 291879, Note_on_c, 7, 67, 127
1, 292001, Note_off_c, 7, 67, 127
1, 292005, Note_on_c, 11, 70, 127
1, 292127, Note_off_c, 11, 70, 127
1, 292127, Note_off_c, 2, 50, 110
1, 292127, Note_off_c, 5, 53, 110
1, 292131, Note_on_c, 4, 52, 110
1, 292131, Note_on_c, 7, 55, 110
1, 292131, Note_on_c, 11, 70, 127
1, 292396, Note_off_c, 11, 70, 127
1, 292400, Note_on_c, 0, 60, 127
1, 292640, Note_off_c, 0, 36, 127
1, 292669, Note_on_c, 0, 36, 127
1, 292934, Note_off_c, 0, 60, 127
1, 292937, Note_on_c, 4, 64, 127
1, 293195, Note_off_c, 0, 36, 127
1, 293202, Note_off_c, 4, 64, 127
1, 293206, Note_on_c, 0, 36, 127
1, 293206, Note_on_c, 7, 67, 127
1, 293471, Note_off_c, 7, 67, 127
1, 293475, Note_off_c, 7, 55, 110
1, 293475, Note_off_c, 4, 52, 110
1, 293475, Note_on_c, 11, 70, 127
1, 293740, Note_off_c, 11, 70, 127
1, 293744, Note_on_c, 4, 52, 110
1, 293744, Note_on_c, 7, 55, 110
1, 293744, Note_on_c, 2, 74, 127
1, 293990, Note_off_c, 0, 36, 127
1, 294010, Note_off_c, 2, 74, 127
1, 294014, Note_on_c, 0, 72, 127
1, 294279, Note_off_c, 7, 55, 110
1, 294279, Note_off_c, 4, 52, 110
1, 294283, Note_on_c, 5, 53, 110
1, 294283, Note_on_c, 10, 57, 110
1, 294526, Note_off_c, 0, 72, 127
1, 294529, Note_on_c, 11, 70, 127
1, 294624, Note_off_c, 11, 70, 127
1, 294628, Note_on_c, 10, 69, 127
1, 294723, Note_off_c, 10, 69, 127
1, 294727, Note_on_c, 7, 67, 127
1, 294819, Note_off_c, 10, 57, 110
1, 294819, Note_off_c, 5, 53, 110
1, 294822, Note_off_c, 7, 67, 127
1, 294822, Note_on_c, 4, 52, 110
1, 294822, Note_on_c, 0, 48, 110
1, 294825, Note_on_c, 10, 69, 127
1, 295110, Note_off_c, 10, 69, 127
1, 295114, Note_on_c, 0, 72, 127
1, 295357, Note_off_c, 0, 48, 110
1, 295357, Note_off_c, 4, 52, 110
1, 295361, Note_on_c, 5, 53, 110
1, 295361, Note_on_c, 2, 50, 110
1, 295584, Note_off_c, 0, 72, 127
1, 295588, Note_on_c, 7, 67, 127
1, 295688, Note_off_c, 7, 67, 127
1, 295692, Note_on_c, 5, 65, 127
1, 295792, Note_off_c, 5, 65, 127
1, 295796, Note_on_c, 4, 64, 127
1, 295896, Note_off_c, 4, 64, 127
1, 295896, Note_off_c, 2, 50, 110
1, 295900, Note_on_c, 11, 46, 110
1, 295900, Note_on_c, 5, 65, 127
1, 296165, Note_off_c, 5, 65, 127
1, 296168, Note_on_c, 2, 74, 127
1, 296433, Note_off_c, 2, 74, 127
1, 296434, Note_off_c, 11, 46, 110
1, 296437, Note_on_c, 0, 48, 110
1, 296437, Note_on_c, 10, 69, 127
1, 296706, Note_off_c, 5, 53, 110
1, 296837, Note_off_c, 10, 69, 127
1, 296840, Note_on_c, 11, 70, 127
1, 296971, Note_off_c, 11, 70, 127
1, 296975, Note_on_c, 4, 52, 110
1, 296975, Note_on_c, 10, 69, 127
1, 297106, Note_off_c, 10, 69, 127
1, 297109, Note_on_c, 7, 67, 127
1, 297240, Note_off_c, 7, 67, 127
1, 297240, Note_off_c, 4, 52, 110
1, 297244, Note_on_c, 2, 50, 110
1, 297244, Note_on_c, 5, 65, 127
1, 297375, Note_off_c, 5, 65, 127
1, 297378, Note_on_c, 7, 67, 127
1, 297509, Note_off_c, 7, 67, 127
1, 297509, Note_off_c, 2, 50, 110
1, 297512, Note_on_c, 4, 52, 110
1, 297512, Note_on_c, 5, 65, 127
1, 297604, Note_off_c, 5, 65, 127
1, 297611, Note_on_c, 7, 67, 127
1, 297698, Note_off_c, 7, 67, 127
1, 297701, Note_on_c, 10, 69, 127
1, 297788, Note_off_c, 10, 69, 127
1, 297792, Note_on_c, 7, 67, 127
1, 297879, Note_off_c, 7, 67, 127
1, 297882, Note_on_c, 10, 69, 127
1, 297969, Note_off_c, 10, 69, 127
1, 297972, Note_on_c, 7, 67, 127
1, 298050, Note_off_c, 4, 52, 110
1, 298059, Note_off_c, 7, 67, 127
1, 298063, Note_on_c, 11, 58, 110
1, 298063, Note_on_c, 10, 69, 127
1, 298150, Note_off_c, 10, 69, 127
1, 298153, Note_on_c, 7, 67, 127
1, 298240, Note_off_c, 7, 67, 127
1, 298243, Note_on_c, 10, 69, 127
1, 298330, Note_off_c, 10, 69, 127
1, 298333, Note_on_c, 7, 67, 127
1, 298420, Note_off_c, 7, 67, 127
1, 298424, Note_on_c, 5, 65, 127
1, 298511, Note_off_c, 5, 65, 127
1, 298514, Note_on_c, 7, 67, 127
1, 298592, Note_off_c, 0, 48, 110
1, 298601, Note_off_c, 7, 67, 127
1, 298601, Note_off_c, 11, 58, 110
1, 298604, Note_on_c, 5, 53, 110
1, 298604, Note_on_c, 10, 57, 110
1, 298604, Note_on_c, 5, 65, 127
1, 299176, Note_on_c, 5, 41, 127
1, 299667, Note_off_c, 10, 57, 110
1, 299667, Note_off_c, 5, 53, 110
1, 299702, Note_off_c, 5, 41, 127
1, 299713, Note_on_c, 5, 41, 127
1, 300245, Note_off_c, 5, 41, 127
1, 300268, Note_on_c, 10, 57, 110
1, 300268, Note_on_c, 7, 55, 110
1, 300802, Note_off_c, 7, 55, 110
1, 300802, Note_off_c, 10, 57, 110
1, 300805, Note_on_c, 12, 59, 110
1, 300805, Note_on_c, 5, 53, 110
1, 301339, Note_off_c, 5, 53, 110
1, 301339, Note_off_c, 12, 59, 110
1, 301343, Note_on_c, 1, 61, 110
1, 301343, Note_on_c, 4, 52, 110
1, 301877, Note_off_c, 4, 52, 110
1, 301877, Note_off_c, 1, 61, 110
1, 301880, Note_on_c, 2, 62, 110
1, 301880, Note_on_c, 2, 50, 110
1, 302412, Note_off_c, 2, 62, 110
1, 302418, Note_on_c, 2, 38, 127
1, 302901, Note_off_c, 5, 65, 127
1, 302944, Note_off_c, 2, 38, 127
1, 302956, Note_on_c, 5, 77, 127
1, 302956, Note_on_c, 2, 38, 127
1, 303221, Note_off_c, 5, 77, 127
1, 303224, Note_off_c, 2, 50, 110
1, 303224, Note_on_c, 4, 76, 127
1, 303489, Note_off_c, 4, 76, 127
1, 303493, Note_on_c, 5, 77, 127
1, 303493, Note_on_c, 2, 62, 110
1, 303493, Note_on_c, 5, 65, 110
1, 304027, Note_off_c, 5, 65, 110
1, 304027, Note_off_c, 2, 62, 110
1, 304031, Note_on_c, 4, 64, 110
1, 304031, Note_on_c, 7, 67, 110
1, 304300, Note_off_c, 2, 38, 127
1, 304565, Note_off_c, 7, 67, 110
1, 304565, Note_off_c, 4, 64, 110
1, 304568, Note_on_c, 5, 65, 110
1, 304568, Note_on_c, 10, 69, 110
1, 305102, Note_off_c, 10, 69, 110
1, 305102, Note_off_c, 5, 65, 110
1, 305106, Note_on_c, 7, 67, 110
1, 305106, Note_on_c, 11, 70, 110
1, 305344, Note_off_c, 5, 77, 127
1, 305347, Note_on_c, 4, 76, 127
1, 305492, Note_off_c, 4, 76, 127
1, 305497, Note_on_c, 2, 74, 127
1, 305642, Note_off_c, 2, 74, 127
1, 305646, Note_on_c, 1, 73, 127
1, 305646, Note_on_c, 2, 50, 127
1, 305940, Note_off_c, 1, 73, 127
1, 305943, Note_on_c, 2, 74, 127
1, 306172, Note_off_c, 7, 67, 110
1, 306173, Note_off_c, 2, 50, 127
1, 306181, Note_off_c, 2, 74, 127
1, 306184, Note_on_c, 7, 67, 127
1, 306184, Note_on_c, 2, 50, 127
1, 306449, Note_off_c, 7, 67, 127
1, 306453, Note_off_c, 11, 70, 110
1, 306453, Note_on_c, 10, 69, 127
1, 306718, Note_off_c, 10, 69, 127
1, 306722, Note_on_c, 11, 70, 127
1, 306722, Note_on_c, 5, 65, 110
1, 306722, Note_on_c, 10, 69, 110
1, 307256, Note_off_c, 10, 69, 110
1, 307256, Note_off_c, 5, 65, 110
1, 307259, Note_on_c, 4, 64, 110
1, 307259, Note_on_c, 7, 67, 110
1, 307424, Note_off_c, 11, 70, 127
1, 307427, Note_on_c, 0, 72, 127
1, 307547, Note_off_c, 0, 72, 127
1, 307551, Note_on_c, 11, 70, 127
1, 307671, Note_off_c, 11, 70, 127
1, 307675, Note_on_c, 10, 69, 127
1, 307795, Note_off_c, 10, 69, 127
1, 307795, Note_off_c, 7, 67, 110
1, 307795, Note_off_c, 4, 64, 110
1, 307799, Note_on_c, 11, 70, 127
1, 307799, Note_on_c, 5, 65, 110
1, 307799, Note_on_c, 2, 62, 110
1, 307938, Note_off_c, 11, 70, 127
1, 307942, Note_on_c, 0, 72, 127
1, 308071, Note_off_c, 0, 72, 127
1, 308074, Note_on_c, 11, 70, 127
1, 308203, Note_off_c, 11, 70, 127
1, 308207, Note_on_c, 10, 69, 127
1, 308335, Note_off_c, 2, 62, 110
1, 308335, Note_off_c, 5, 65, 110
1, 308336, Note_off_c, 10, 69, 127
1, 308339, Note_on_c, 11, 70, 127
1, 308339, Note_on_c, 1, 61, 110
1, 308339, Note_on_c, 4, 64, 110
1, 308604, Note_off_c, 11, 70, 127
1, 308608, Note_on_c, 7, 79, 127
1, 308847, Note_off_c, 2, 50, 127
1, 308876, Note_on_c, 2, 50, 127
1, 309142, Note_off_c, 7, 79, 127
1, 309145, Note_on_c, 1, 73, 127
1, 309402, Note_off_c, 2, 50, 127
1, 309414, Note_on_c, 2, 50, 127
1, 309679, Note_off_c, 1, 73, 127
1, 309683, Note_off_c, 4, 64, 110
1, 309683, Note_off_c, 1, 61, 110
1, 309683, Note_on_c, 4, 76, 127
1, 309952, Note_on_c, 4, 64, 110
1, 309952, Note_on_c, 7, 67, 110
1, 310217, Note_off_c, 4, 76, 127
1, 310220, Note_on_c, 7, 79, 127
1, 310486, Note_off_c, 7, 67, 110
1, 310486, Note_off_c, 4, 64, 110
1, 310489, Note_on_c, 5, 65, 110
1, 310489, Note_on_c, 2, 62, 110
1, 310754, Note_off_c, 7, 79, 127
1, 310758, Note_on_c, 11, 82, 127
1, 311023, Note_off_c, 2, 62, 110
1, 311023, Note_off_c, 5, 65, 110
1, 311027, Note_on_c, 1, 61, 110
1, 311027, Note_on_c, 4, 64, 110
1, 311292, Note_off_c, 11, 82, 127
1, 311296, Note_on_c, 10, 81, 127
1, 311561, Note_off_c, 4, 64, 110
1, 311561, Note_off_c, 1, 61, 110
1, 311564, Note_on_c, 5, 65, 110
1, 311564, Note_on_c, 2, 62, 110
1, 311670, Note_off_c, 10, 81, 127
1, 311674, Note_on_c, 7, 79, 127
1, 311813, Note_off_c, 7, 79, 127
1, 311816, Note_on_c, 5, 77, 127
1, 311955, Note_off_c, 5, 77, 127
1, 311959, Note_on_c, 4, 76, 127
1, 312073, Note_off_c, 2, 50, 127
1, 312098, Note_off_c, 4, 76, 127
1, 312102, Note_on_c, 5, 77, 127
1, 312102, Note_on_c, 2, 50, 127
1, 312382, Note_off_c, 5, 77, 127
1, 312386, Note_on_c, 2, 74, 127
1, 312629, Note_off_c, 2, 50, 127
1, 312641, Note_on_c, 2, 50, 127
1, 312772, Note_off_c, 2, 74, 127
1, 312775, Note_on_c, 1, 73, 127
1, 312906, Note_off_c, 1, 73, 127
1, 312909, Note_off_c, 2, 62, 110
1, 312909, Note_off_c, 5, 65, 110
1, 312910, Note_on_c, 2, 74, 127
1, 313041, Note_off_c, 2, 74, 127
1, 313044, Note_on_c, 4, 76, 127
1, 313175, Note_off_c, 4, 76, 127
1, 313178, Note_on_c, 2, 74, 127
1, 313178, Note_on_c, 5, 65, 110
1, 313178, Note_on_c, 2, 62, 110
1, 313320, Note_off_c, 2, 74, 127
1, 313324, Note_on_c, 1, 73, 127
1, 313461, Note_off_c, 1, 73, 127
1, 313465, Note_on_c, 12, 71, 127
1, 313602, Note_off_c, 12, 71, 127
1, 313606, Note_on_c, 10, 69, 127
1, 313714, Note_off_c, 2, 62, 110
1, 313714, Note_off_c, 5, 65, 110
1, 313718, Note_on_c, 4, 64, 110
1, 313718, Note_on_c, 7, 67, 110
1, 313984, Note_off_c, 10, 69, 127
1, 313987, Note_on_c, 2, 74, 127
1, 314252, Note_off_c, 7, 67, 110
1, 314252, Note_off_c, 4, 64, 110
1, 314252, Note_off_c, 2, 50, 127
1, 314256, Note_on_c, 10, 69, 110
1, 314256, Note_on_c, 5, 65, 110
1, 314521, Note_off_c, 2, 74, 127
1, 314524, Note_on_c, 5, 77, 127
1, 314790, Note_off_c, 5, 65, 110
1, 314790, Note_off_c, 10, 69, 110
1, 314793, Note_on_c, 7, 67, 110
1, 314793, Note_on_c, 11, 70, 110
1, 314957, Note_off_c, 5, 77, 127
1, 314961, Note_on_c, 7, 79, 127
1, 315081, Note_off_c, 7, 79, 127
1, 315085, Note_on_c, 5, 77, 127
1, 315205, Note_off_c, 5, 77, 127
1, 315209, Note_on_c, 4, 76, 127
1, 315329, Note_off_c, 4, 76, 127
1, 315333, Note_on_c, 5, 77, 127
1, 315333, Note_on_c, 7, 43, 127
1, 315623, Note_off_c, 5, 77, 127
1, 315627, Note_on_c, 11, 82, 127
1, 315858, Note_off_c, 11, 70, 110
1, 315858, Note_off_c, 7, 67, 110
1, 315859, Note_off_c, 7, 43, 127
1, 315871, Note_on_c, 7, 43, 127
1, 316136, Note_off_c, 11, 82, 127
1, 316139, Note_on_c, 10, 81, 127
1, 316408, Note_on_c, 7, 55, 110
1, 316408, Note_on_c, 11, 58, 110
1, 316673, Note_off_c, 10, 81, 127
1, 316677, Note_on_c, 7, 79, 127
1, 316942, Note_off_c, 11, 58, 110
1, 316942, Note_off_c, 7, 55, 110
1, 316946, Note_on_c, 0, 60, 110
1, 316946, Note_on_c, 10, 57, 110
1, 317211, Note_off_c, 7, 79, 127
1, 317215, Note_on_c, 5, 77, 127
1, 317346, Note_off_c, 5, 77, 127
1, 317349, Note_on_c, 4, 76, 127
1, 317480, Note_off_c, 4, 76, 127
1, 317480, Note_off_c, 10, 57, 110
1, 317480, Note_off_c, 0, 60, 110
1, 317480, Note_off_c, 7, 43, 127
1, 317483, Note_on_c, 2, 74, 127
1, 317483, Note_on_c, 11, 58, 110
1, 317483, Note_on_c, 2, 62, 110
1, 317614, Note_off_c, 2, 74, 127
1, 317618, Note_on_c, 0, 72, 127
1, 317749, Note_off_c, 0, 72, 127
1, 317752, Note_on_c, 11, 70, 127
1, 317883, Note_off_c, 11, 70, 127
1, 317887, Note_on_c, 10, 69, 127
1, 318017, Note_off_c, 2, 62, 110
1, 318017, Note_off_c, 11, 58, 110
1, 318018, Note_off_c, 10, 69, 127
1, 318021, Note_on_c, 7, 67, 127
1, 318021, Note_on_c, 0, 60, 110
1, 318021, Note_on_c, 4, 64, 110
1, 318163, Note_off_c, 7, 67, 127
1, 318167, Note_on_c, 12, 71, 127
1, 318304, Note_off_c, 12, 71, 127
1, 318308, Note_on_c, 2, 74, 127
1, 318445, Note_off_c, 2, 74, 127
1, 318448, Note_on_c, 5, 77, 127
1, 318561, Note_on_c, 0, 48, 127
1, 318826, Note_off_c, 5, 77, 127
1, 318829, Note_on_c, 4, 76, 127
1, 319087, Note_off_c, 0, 48, 127
1, 319098, Note_on_c, 0, 48, 127
1, 319229, Note_off_c, 4, 76, 127
1, 319233, Note_on_c, 2, 74, 127
1, 319364, Note_off_c, 2, 74, 127
1, 319367, Note_off_c, 4, 64, 110
1, 319367, Note_off_c, 0, 60, 110
1, 319367, Note_on_c, 0, 72, 127
1, 319498, Note_off_c, 0, 72, 127
1, 319501, Note_on_c, 12, 71, 127
1, 319632, Note_off_c, 12, 71, 127
1, 319636, Note_on_c, 0, 72, 127
1, 319636, Note_on_c, 0, 60, 110
1, 319636, Note_on_c, 4, 64, 110
1, 319901, Note_off_c, 0, 72, 127
1, 319905, Note_on_c, 7, 67, 127
1, 320170, Note_off_c, 4, 64, 110
1, 320170, Note_off_c, 0, 60, 110
1, 320173, Note_on_c, 2, 62, 110
1, 320173, Note_on_c, 5, 65, 110
1, 320439, Note_off_c, 7, 67, 127
1, 320442, Note_on_c, 0, 72, 127
1, 320707, Note_off_c, 5, 65, 110
1, 320707, Note_off_c, 2, 62, 110
1, 320707, Note_off_c, 0, 48, 127
1, 320711, Note_on_c, 4, 64, 110
1, 320711, Note_on_c, 7, 67, 110
1, 320976, Note_off_c, 0, 72, 127
1, 320980, Note_on_c, 4, 76, 127
1, 321245, Note_off_c, 7, 67, 110
1, 321245, Note_off_c, 4, 64, 110
1, 321249, Note_on_c, 10, 69, 110
1, 321249, Note_on_c, 5, 65, 110
1, 321413, Note_off_c, 4, 76, 127
1, 321417, Note_on_c, 5, 77, 127
1, 321537, Note_off_c, 5, 77, 127
1, 321541, Note_on_c, 3, 75, 127
1, 321661, Note_off_c, 3, 75, 127
1, 321664, Note_on_c, 2, 74, 127
1, 321784, Note_off_c, 2, 74, 127
1, 321788, Note_on_c, 3, 75, 127
1, 321788, Note_on_c, 5, 41, 127
1, 322053, Note_off_c, 3, 75, 127
1, 322057, Note_on_c, 0, 84, 127
1, 322314, Note_off_c, 5, 41, 127
1, 322326, Note_on_c, 5, 41, 127
1, 322457, Note_off_c, 0, 84, 127
1, 322460, Note_on_c, 11, 82, 127
1, 322595, Note_off_c, 5, 65, 110
1, 322595, Note_off_c, 10, 69, 110
1, 322619, Note_off_c, 11, 82, 127
1, 322623, Note_on_c, 10, 81, 127
1, 322864, Note_on_c, 5, 53, 110
1, 322864, Note_on_c, 10, 57, 110
1, 322994, Note_off_c, 10, 81, 127
1, 322998, Note_on_c, 7, 79, 127
1, 323157, Note_off_c, 7, 79, 127
1, 323161, Note_on_c, 5, 77, 127
1, 323399, Note_off_c, 10, 57, 110
1, 323399, Note_off_c, 5, 53, 110
1, 323402, Note_on_c, 7, 55, 110
1, 323402, Note_on_c, 11, 58, 110
1, 323533, Note_off_c, 5, 77, 127
1, 323537, Note_on_c, 3, 75, 127
1, 323668, Note_off_c, 3, 75, 127
1, 323671, Note_on_c, 2, 74, 127
1, 323802, Note_off_c, 2, 74, 127
1, 323805, Note_on_c, 3, 75, 127
1, 323936, Note_off_c, 3, 75, 127
1, 323936, Note_off_c, 11, 58, 110
1, 323936, Note_off_c, 7, 55, 110
1, 323936, Note_off_c, 5, 41, 127
1, 323940, Note_on_c, 5, 77, 127
1, 323940, Note_on_c, 10, 57, 110
1, 323940, Note_on_c, 0, 60, 110
1, 324071, Note_off_c, 5, 77, 127
1, 324074, Note_on_c, 3, 75, 127
1, 324205, Note_off_c, 3, 75, 127
1, 324209, Note_on_c, 2, 74, 127
1, 324340, Note_off_c, 2, 74, 127
1, 324343, Note_on_c, 3, 75, 127
1, 324474, Note_off_c, 3, 75, 127
1, 324474, Note_off_c, 0, 60, 110
1, 324474, Note_off_c, 10, 57, 110
1, 324477, Note_on_c, 5, 65, 127
1, 324477, Note_on_c, 2, 62, 110
1, 324477, Note_on_c, 11, 58, 110
1, 324625, Note_off_c, 5, 65, 127
1, 324629, Note_on_c, 10, 69, 127
1, 324755, Note_off_c, 10, 69, 127
1, 324758, Note_on_c, 7, 67, 127
1, 324884, Note_off_c, 7, 67, 127
1, 324887, Note_on_c, 5, 65, 127
1, 325013, Note_off_c, 5, 65, 127
1, 325016, Note_on_c, 0, 72, 127
1, 325016, Note_on_c, 11, 46, 127
1, 325147, Note_off_c, 0, 72, 127
1, 325150, Note_on_c, 11, 70, 127
1, 325281, Note_off_c, 11, 70, 127
1, 325285, Note_on_c, 10, 69, 127
1, 325416, Note_off_c, 10, 69, 127
1, 325419, Note_on_c, 3, 75, 127
1, 325542, Note_off_c, 11, 46, 127
1, 325550, Note_off_c, 3, 75, 127
1, 325554, Note_on_c, 2, 74, 127
1, 325554, Note_on_c, 11, 46, 127
1, 325730, Note_off_c, 2, 74, 127
1, 325733, Note_on_c, 1, 73, 127
1, 325822, Note_off_c, 11, 58, 110
1, 325822, Note_off_c, 2, 62, 110
1, 325909, Note_off_c, 1, 73, 127
1, 325913, Note_on_c, 2, 74, 127
1, 326092, Note_on_c, 10, 57, 110
1, 326092, Note_on_c, 0, 60, 110
1, 326618, Note_off_c, 11, 46, 127
1, 326626, Note_off_c, 0, 60, 110
1, 326626, Note_off_c, 10, 57, 110
1, 326630, Note_on_c, 7, 55, 110
1, 326630, Note_on_c, 11, 58, 110
1, 326761, Note_off_c, 2, 74, 127
1, 326764, Note_on_c, 2, 62, 127
1, 326895, Note_off_c, 2, 62, 127
1, 326899, Note_on_c, 1, 61, 127
1, 327030, Note_off_c, 1, 61, 127
1, 327033, Note_on_c, 2, 62, 127
1, 327164, Note_off_c, 2, 62, 127
1, 327164, Note_off_c, 11, 58, 110
1, 327164, Note_off_c, 7, 55, 110
1, 327167, Note_on_c, 4, 64, 127
1, 327167, Note_on_c, 5, 53, 110
1, 327167, Note_on_c, 10, 57, 110
1, 327298, Note_off_c, 4, 64, 127
1, 327302, Note_on_c, 5, 65, 127
1, 327433, Note_off_c, 5, 65, 127
1, 327436, Note_on_c, 7, 67, 127
1, 327567, Note_off_c, 7, 67, 127
1, 327571, Note_on_c, 10, 69, 127
1, 327701, Note_off_c, 10, 57, 110
1, 327701, Note_off_c, 5, 53, 110
1, 327702, Note_off_c, 10, 69, 127
1, 327705, Note_on_c, 11, 70, 127
1, 327705, Note_on_c, 4, 52, 110
1, 327705, Note_on_c, 7, 55, 110
1, 327869, Note_off_c, 11, 70, 127
1, 327873, Note_on_c, 2, 74, 127
1, 327993, Note_off_c, 2, 74, 127
1, 327997, Note_on_c, 11, 70, 127
1, 328117, Note_off_c, 11, 70, 127
1, 328121, Note_on_c, 10, 69, 127
1, 328241, Note_off_c, 10, 69, 127
1, 328245, Note_on_c, 11, 70, 127
1, 328245, Note_on_c, 4, 40, 127
1, 328384, Note_off_c, 11, 70, 127
1, 328388, Note_on_c, 2, 74, 127
1, 328517, Note_off_c, 2, 74, 127
1, 328520, Note_on_c, 11, 70, 127
1, 328649, Note_off_c, 11, 70, 127
1, 328652, Note_on_c, 10, 69, 127
1, 328773, Note_off_c, 4, 40, 127
1, 328781, Note_off_c, 10, 69, 127
1, 328784, Note_on_c, 7, 67, 127
1, 328784, Note_on_c, 4, 40, 127
1, 328971, Note_off_c, 7, 67, 127
1, 328983, Note_on_c, 6, 66, 127
1, 329054, Note_off_c, 7, 55, 110
1, 329054, Note_off_c, 4, 52, 110
1, 329170, Note_off_c, 6, 66, 127
1, 329177, Note_on_c, 7, 67, 127
1, 329323, Note_on_c, 2, 50, 110
1, 329323, Note_on_c, 5, 53, 110
1, 329857, Note_off_c, 5, 53, 110
1, 329857, Note_off_c, 2, 50, 110
1, 329861, Note_on_c, 4, 52, 110
1, 329861, Note_on_c, 1, 49, 110
1, 329981, Note_off_c, 7, 67, 127
1, 329995, Note_on_c, 11, 70, 127
1, 330126, Note_off_c, 11, 70, 127
1, 330130, Note_on_c, 7, 67, 127
1, 330261, Note_off_c, 7, 67, 127
1, 330264, Note_on_c, 6, 66, 127
1, 330394, Note_off_c, 4, 40, 127
1, 330395, Note_off_c, 6, 66, 127
1, 330395, Note_off_c, 1, 49, 110
1, 330395, Note_off_c, 4, 52, 110
1, 330398, Note_on_c, 7, 67, 127
1, 330398, Note_on_c, 12, 47, 110
1, 330398, Note_on_c, 2, 50, 110
1, 330529, Note_off_c, 7, 67, 127
1, 330533, Note_on_c, 4, 76, 127
1, 330664, Note_off_c, 4, 76, 127
1, 330667, Note_on_c, 7, 67, 127
1, 330798, Note_off_c, 7, 67, 127
1, 330802, Note_on_c, 5, 65, 127
1, 330932, Note_off_c, 2, 50, 110
1, 330932, Note_off_c, 12, 47, 110
1, 330933, Note_off_c, 5, 65, 127
1, 330936, Note_on_c, 7, 67, 127
1, 330936, Note_on_c, 1, 49, 110
1, 330936, Note_on_c, 10, 45, 110
1, 331201, Note_off_c, 7, 67, 127
1, 331205, Note_on_c, 11, 70, 127
1, 331470, Note_off_c, 11, 70, 127
1, 331474, Note_on_c, 1, 73, 127
1, 331474, Note_on_c, 10, 33, 127
1, 331764, Note_off_c, 1, 73, 127
1, 331768, Note_on_c, 4, 76, 127
1, 332000, Note_off_c, 10, 33, 127
1, 332011, Note_on_c, 10, 33, 127
1, 332142, Note_off_c, 4, 76, 127
1, 332146, Note_on_c, 2, 74, 127
1, 332277, Note_off_c, 2, 74, 127
1, 332280, Note_off_c, 10, 45, 110
1, 332280, Note_off_c, 1, 49, 110
1, 332280, Note_on_c, 1, 73, 127
1, 332411, Note_off_c, 1, 73, 127
1, 332414, Note_on_c, 2, 74, 127
1, 332545, Note_off_c, 2, 74, 127
1, 332549, Note_on_c, 4, 76, 127
1, 332549, Note_on_c, 10, 45, 110
1, 332549, Note_on_c, 1, 49, 110
1, 332680, Note_off_c, 4, 76, 127
1, 332683, Note_on_c, 2, 74, 127
1, 332814, Note_off_c, 2, 74, 127
1, 332818, Note_on_c, 1, 73, 127
1, 332949, Note_off_c, 1, 73, 127
1, 332952, Note_on_c, 12, 71, 127
1, 333083, Note_off_c, 12, 71, 127
1, 333083, Note_off_c, 1, 49, 110
1, 333083, Note_off_c, 10, 45, 110
1, 333086, Note_on_c, 10, 69, 127
1, 333086, Note_on_c, 12, 47, 110
1, 333086, Note_on_c, 2, 50, 110
1, 333380, Note_off_c, 10, 69, 127
1, 333383, Note_on_c, 7, 67, 127
1, 333500, Note_off_c, 7, 67, 127
1, 333504, Note_on_c, 5, 65, 127
1, 333621, Note_off_c, 5, 65, 127
1, 333621, Note_off_c, 2, 50, 110
1, 333621, Note_off_c, 12, 47, 110
1, 333625, Note_on_c, 7, 67, 127
1, 333625, Note_on_c, 4, 52, 110
1, 333625, Note_on_c, 1, 49, 110
1, 334045, Note_off_c, 7, 67, 127
1, 334048, Note_on_c, 4, 76, 127
1, 334160, Note_off_c, 4, 76, 127
1, 334160, Note_off_c, 1, 49, 110
1, 334160, Note_off_c, 4, 52, 110
1, 334164, Note_on_c, 7, 67, 127
1, 334164, Note_on_c, 5, 53, 110
1, 334164, Note_on_c, 2, 50, 110
1, 334429, Note_off_c, 7, 67, 127
1, 334432, Note_on_c, 5, 65, 127
1, 334672, Note_off_c, 10, 33, 127
1, 334701, Note_on_c, 5, 77, 127
1, 334701, Note_on_c, 10, 33, 127
1, 334726, Note_off_c, 5, 65, 127
1, 334832, Note_off_c, 5, 77, 127
1, 334836, Note_on_c, 4, 76, 127
1, 334967, Note_off_c, 4, 76, 127
1, 334970, Note_on_c, 5, 77, 127
1, 335227, Note_off_c, 10, 33, 127
1, 335239, Note_on_c, 10, 33, 127
1, 335370, Note_off_c, 5, 77, 127
1, 335373, Note_on_c, 4, 76, 127
1, 335504, Note_off_c, 4, 76, 127
1, 335508, Note_off_c, 2, 50, 110
1, 335508, Note_off_c, 5, 53, 110
1, 335508, Note_on_c, 2, 74, 127
1, 335639, Note_off_c, 2, 74, 127
1, 335642, Note_on_c, 4, 76, 127
1, 335773, Note_off_c, 4, 76, 127
1, 335776, Note_on_c, 5, 77, 127
1, 335776, Note_on_c, 12, 47, 110
1, 335776, Note_on_c, 2, 50, 110
1, 335907, Note_off_c, 5, 77, 127
1, 335911, Note_on_c, 4, 76, 127
1, 336042, Note_off_c, 4, 76, 127
1, 336045, Note_on_c, 2, 74, 127
1, 336176, Note_off_c, 2, 74, 127
1, 336180, Note_on_c, 0, 72, 127
1, 336310, Note_off_c, 2, 50, 110
1, 336310, Note_off_c, 12, 47, 110
1, 336311, Note_off_c, 0, 72, 127
1, 336314, Note_on_c, 11, 70, 127
1, 336314, Note_on_c, 4, 52, 110
1, 336314, Note_on_c, 1, 49, 110
1, 336608, Note_off_c, 11, 70, 127
1, 336611, Note_on_c, 10, 69, 127
1, 336728, Note_off_c, 10, 69, 127
1, 336732, Note_on_c, 7, 67, 127
1, 336849, Note_off_c, 7, 67, 127
1, 336849, Note_off_c, 1, 49, 110
1, 336849, Note_off_c, 4, 52, 110
1, 336853, Note_on_c, 10, 69, 127
1, 336853, Note_on_c, 2, 50, 110
1, 336853, Note_on_c, 5, 53, 110
1, 337273, Note_off_c, 10, 69, 127
1, 337276, Note_on_c, 5, 77, 127
1, 337388, Note_off_c, 5, 77, 127
1, 337388, Note_off_c, 5, 53, 110
1, 337388, Note_off_c, 2, 50, 110
1, 337391, Note_on_c, 10, 69, 127
1, 337391, Note_on_c, 7, 55, 110
1, 337391, Note_on_c, 4, 52, 110
1, 337656, Note_off_c, 10, 69, 127
1, 337660, Note_on_c, 7, 67, 127
1, 337900, Note_off_c, 10, 33, 127
1, 337925, Note_off_c, 7, 67, 127
1, 337929, Note_on_c, 4, 76, 127
1, 337929, Note_on_c, 10, 33, 127
1, 338074, Note_off_c, 4, 76, 127
1, 338078, Note_on_c, 5, 77, 127
1, 338223, Note_off_c, 5, 77, 127
1, 338227, Note_on_c, 7, 79, 127
1, 338457, Note_off_c, 10, 33, 127
1, 338469, Note_on_c, 10, 33, 127
1, 338599, Note_off_c, 7, 79, 127
1, 338603, Note_on_c, 5, 77, 127
1, 338734, Note_off_c, 5, 77, 127
1, 338737, Note_off_c, 4, 52, 110
1, 338737, Note_off_c, 7, 55, 110
1, 338737, Note_on_c, 4, 76, 127
1, 338868, Note_off_c, 4, 76, 127
1, 338872, Note_on_c, 5, 77, 127
1, 339003, Note_off_c, 5, 77, 127
1, 339006, Note_on_c, 7, 79, 127
1, 339006, Note_on_c, 1, 49, 110
1, 339006, Note_on_c, 4, 52, 110
1, 339154, Note_off_c, 7, 79, 127
1, 339157, Note_on_c, 5, 77, 127
1, 339283, Note_off_c, 5, 77, 127
1, 339287, Note_on_c, 4, 76, 127
1, 339413, Note_off_c, 4, 76, 127
1, 339416, Note_on_c, 2, 74, 127
1, 339541, Note_off_c, 4, 52, 110
1, 339541, Note_off_c, 1, 49, 110
1, 339542, Note_off_c, 2, 74, 127
1, 339545, Note_on_c, 1, 73, 127
1, 339545, Note_on_c, 5, 53, 110
1, 339545, Note_on_c, 2, 50, 110
1, 339810, Note_off_c, 1, 73, 127
1, 339814, Note_on_c, 11, 70, 127
1, 339945, Note_off_c, 11, 70, 127
1, 339948, Note_on_c, 10, 69, 127
1, 340079, Note_off_c, 10, 69, 127
1, 340079, Note_off_c, 2, 50, 110
1, 340079, Note_off_c, 5, 53, 110
1, 340082, Note_on_c, 11, 70, 127
1, 340082, Note_on_c, 7, 55, 110
1, 340082, Note_on_c, 4, 52, 110
1, 340482, Note_off_c, 11, 70, 127
1, 340486, Note_on_c, 7, 79, 127
1, 340616, Note_off_c, 4, 52, 110
1, 340616, Note_off_c, 7, 55, 110
1, 340617, Note_off_c, 7, 79, 127
1, 340620, Note_on_c, 11, 70, 127
1, 340620, Note_on_c, 5, 53, 110
1, 340620, Note_on_c, 10, 57, 110
1, 340891, Note_off_c, 11, 70, 127
1, 340895, Note_on_c, 10, 69, 127
1, 341142, Note_off_c, 10, 33, 127
1, 341170, Note_on_c, 10, 33, 127
1, 341442, Note_off_c, 10, 69, 127
1, 341445, Note_on_c, 1, 73, 127
1, 341708, Note_off_c, 10, 33, 127
1, 341720, Note_on_c, 10, 33, 127
1, 341992, Note_off_c, 1, 73, 127
1, 341995, Note_off_c, 10, 57, 110
1, 341995, Note_off_c, 5, 53, 110
1, 341996, Note_on_c, 2, 74, 127
1, 342271, Note_on_c, 5, 53, 110
1, 342271, Note_on_c, 10, 57, 110
1, 342543, Note_off_c, 2, 74, 127
1, 342546, Note_on_c, 4, 76, 127
1, 342680, Note_off_c, 4, 76, 127
1, 342683, Note_on_c, 5, 77, 127
1, 342817, Note_off_c, 5, 77, 127
1, 342818, Note_off_c, 10, 57, 110
1, 342818, Note_off_c, 5, 53, 110
1, 342821, Note_on_c, 7, 79, 127
1, 342821, Note_on_c, 7, 55, 110
1, 342821, Note_on_c, 4, 52, 110
1, 342973, Note_off_c, 7, 79, 127
1, 342976, Note_on_c, 10, 81, 127
1, 343105, Note_off_c, 10, 81, 127
1, 343109, Note_on_c, 11, 82, 127
1, 343238, Note_off_c, 11, 82, 127
1, 343241, Note_on_c, 10, 81, 127
1, 343370, Note_off_c, 10, 81, 127
1, 343370, Note_off_c, 4, 52, 110
1, 343370, Note_off_c, 7, 55, 110
1, 343373, Note_on_c, 11, 82, 127
1, 343373, Note_on_c, 2, 50, 110
1, 343373, Note_on_c, 5, 53, 110
1, 343797, Note_off_c, 11, 82, 127
1, 343801, Note_on_c, 11, 82, 127
1, 343921, Note_off_c, 11, 82, 127
1, 343921, Note_off_c, 5, 53, 110
1, 343921, Note_off_c, 2, 50, 110
1, 343924, Note_on_c, 11, 82, 127
1, 343924, Note_on_c, 7, 55, 110
1, 343924, Note_on_c, 4, 52, 110
1, 344210, Note_off_c, 11, 82, 127
1, 344214, Note_on_c, 1, 73, 127
1, 344445, Note_off_c, 10, 33, 127
1, 344475, Note_on_c, 10, 33, 127
1, 344746, Note_off_c, 1, 73, 127
1, 344750, Note_on_c, 2, 74, 127
1, 344884, Note_off_c, 2, 74, 127
1, 344887, Note_on_c, 4, 76, 127
1, 345013, Note_off_c, 10, 33, 127
1, 345021, Note_off_c, 4, 76, 127
1, 345025, Note_on_c, 4, 76, 127
1, 345025, Note_on_c, 10, 33, 127
1, 345299, Note_off_c, 4, 52, 110
1, 345299, Note_off_c, 7, 55, 110
1, 345311, Note_off_c, 4, 76, 127
1, 345315, Note_on_c, 7, 67, 127
1, 345575, Note_on_c, 7, 55, 110
1, 345575, Note_on_c, 4, 52, 110
1, 345847, Note_off_c, 7, 67, 127
1, 345850, Note_on_c, 10, 69, 127
1, 346012, Note_off_c, 10, 69, 127
1, 346016, Note_on_c, 11, 70, 127
1, 346122, Note_off_c, 4, 52, 110
1, 346122, Note_off_c, 7, 55, 110
1, 346125, Note_on_c, 5, 53, 110
1, 346125, Note_on_c, 2, 50, 110
1, 346251, Note_off_c, 11, 70, 127
1, 346254, Note_on_c, 4, 76, 127
1, 346391, Note_off_c, 4, 76, 127
1, 346395, Note_on_c, 5, 77, 127
1, 346532, Note_off_c, 5, 77, 127
1, 346536, Note_on_c, 7, 79, 127
1, 346673, Note_off_c, 2, 50, 110
1, 346673, Note_off_c, 5, 53, 110
1, 346676, Note_on_c, 4, 52, 110
1, 346676, Note_on_c, 1, 49, 110
1, 346948, Note_off_c, 7, 79, 127
1, 346952, Note_on_c, 11, 70, 127
1, 347223, Note_off_c, 11, 70, 127
1, 347223, Note_off_c, 1, 49, 110
1, 347223, Note_off_c, 4, 52, 110
1, 347227, Note_on_c, 10, 69, 127
1, 347227, Note_on_c, 5, 53, 110
1, 347227, Note_on_c, 2, 50, 110
1, 347376, Note_off_c, 10, 69, 127
1, 347379, Note_on_c, 2, 74, 127
1, 347528, Note_off_c, 2, 74, 127
1, 347531, Note_on_c, 4, 76, 127
1, 347680, Note_off_c, 4, 76, 127
1, 347683, Note_on_c, 5, 77, 127
1, 347749, Note_off_c, 10, 33, 127
1, 347778, Note_on_c, 10, 33, 127
1, 348049, Note_off_c, 5, 77, 127
1, 348053, Note_on_c, 8, 68, 127
1, 348316, Note_off_c, 10, 33, 127
1, 348328, Note_on_c, 10, 33, 127
1, 348462, Note_off_c, 8, 68, 127
1, 348466, Note_on_c, 12, 71, 127
1, 348600, Note_off_c, 12, 71, 127
1, 348603, Note_off_c, 2, 50, 110
1, 348603, Note_off_c, 5, 53, 110
1, 348603, Note_on_c, 10, 69, 127
1, 348737, Note_off_c, 10, 69, 127
1, 348741, Note_on_c, 8, 68, 127
1, 348875, Note_off_c, 8, 68, 127
1, 348878, Note_on_c, 10, 69, 127
1, 348878, Note_on_c, 5, 53, 110
1, 348878, Note_on_c, 2, 50, 110
1, 349012, Note_off_c, 10, 69, 127
1, 349016, Note_on_c, 12, 71, 127
1, 349150, Note_off_c, 12, 71, 127
1, 349153, Note_on_c, 1, 73, 127
1, 349287, Note_off_c, 1, 73, 127
1, 349291, Note_on_c, 2, 74, 127
1, 349425, Note_off_c, 2, 74, 127
1, 349425, Note_off_c, 2, 50, 110
1, 349425, Note_off_c, 5, 53, 110
1, 349429, Note_on_c, 4, 76, 127
1, 349429, Note_on_c, 4, 52, 110
1, 349429, Note_on_c, 1, 49, 110
1, 349563, Note_off_c, 4, 76, 127
1, 349566, Note_on_c, 11, 70, 127
1, 349700, Note_off_c, 11, 70, 127
1, 349704, Note_on_c, 10, 69, 127
1, 349838, Note_off_c, 10, 69, 127
1, 349841, Note_on_c, 7, 67, 127
1, 349975, Note_off_c, 7, 67, 127
1, 349976, Note_off_c, 1, 49, 110
1, 349976, Note_off_c, 4, 52, 110
1, 349979, Note_on_c, 10, 69, 127
1, 349979, Note_on_c, 12, 47, 110
1, 349979, Note_on_c, 2, 50, 110
1, 350113, Note_off_c, 10, 69, 127
1, 350116, Note_on_c, 7, 67, 127
1, 350250, Note_off_c, 7, 67, 127
1, 350254, Note_on_c, 6, 66, 127
1, 350388, Note_off_c, 6, 66, 127
1, 350391, Note_on_c, 7, 67, 127
1, 350525, Note_off_c, 7, 67, 127
1, 350526, Note_off_c, 2, 50, 110
1, 350526, Note_off_c, 12, 47, 110
1, 350529, Note_on_c, 7, 67, 127
1, 350529, Note_on_c, 4, 52, 110
1, 350529, Note_on_c, 1, 49, 110
1, 350745, Note_off_c, 7, 67, 127
1, 350749, Note_on_c, 10, 69, 127
1, 350863, Note_off_c, 10, 69, 127
1, 350867, Note_on_c, 7, 67, 127
1, 350976, Note_off_c, 7, 67, 127
1, 350979, Note_on_c, 5, 65, 127
1, 351050, Note_off_c, 10, 33, 127
1, 351085, Note_off_c, 5, 65, 127
1, 351089, Note_on_c, 7, 67, 127
1, 351089, Note_on_c, 10, 33, 127
1, 351627, Note_off_c, 10, 33, 127
1, 351639, Note_on_c, 10, 33, 127
1, 351773, Note_off_c, 7, 67, 127
1, 351776, Note_on_c, 10, 69, 127
1, 351905, Note_off_c, 1, 49, 110
1, 351905, Note_off_c, 4, 52, 110
1, 351910, Note_off_c, 10, 69, 127
1, 351914, Note_on_c, 1, 73, 127
1, 352048, Note_off_c, 1, 73, 127
1, 352051, Note_on_c, 4, 76, 127
1, 352182, Note_off_c, 10, 33, 127
1, 352185, Note_off_c, 4, 76, 127
1, 352189, Note_on_c, 7, 79, 127
1, 352189, Note_on_c, 1, 49, 110
1, 352189, Note_on_c, 4, 52, 110
1, 352351, Note_off_c, 7, 79, 127
1, 352355, Note_on_c, 11, 82, 127
1, 352517, Note_off_c, 11, 82, 127
1, 352521, Note_on_c, 10, 81, 127
1, 352736, Note_off_c, 4, 52, 110
1, 352736, Note_off_c, 1, 49, 110
1, 352739, Note_on_c, 5, 53, 110
1, 352739, Note_on_c, 2, 50, 110
1, 352943, Note_off_c, 10, 81, 127
1, 352946, Note_on_c, 7, 79, 127
1, 353057, Note_off_c, 7, 79, 127
1, 353060, Note_on_c, 5, 77, 127
1, 353171, Note_off_c, 5, 77, 127
1, 353175, Note_on_c, 4, 76, 127
1, 353286, Note_off_c, 4, 76, 127
1, 353286, Note_off_c, 2, 50, 110
1, 353286, Note_off_c, 5, 53, 110
1, 353289, Note_on_c, 5, 77, 127
1, 353289, Note_on_c, 10, 45, 110
1, 353289, Note_on_c, 1, 49, 110
1, 353560, Note_off_c, 5, 77, 127
1, 353564, Note_on_c, 10, 81, 127
1, 353836, Note_off_c, 1, 49, 110
1, 353836, Note_off_c, 10, 45, 110
1, 353840, Note_on_c, 11, 46, 110
1, 353840, Note_on_c, 2, 50, 110
1, 354068, Note_off_c, 10, 81, 127
1, 354072, Note_on_c, 4, 76, 127
1, 354174, Note_off_c, 4, 76, 127
1, 354178, Note_on_c, 2, 74, 127
1, 354280, Note_off_c, 2, 74, 127
1, 354284, Note_on_c, 1, 73, 127
1, 354386, Note_off_c, 1, 73, 127
1, 354387, Note_off_c, 11, 46, 110
1, 354390, Note_on_c, 2, 74, 127
1, 354390, Note_on_c, 7, 43, 110
1, 354681, Note_off_c, 2, 74, 127
1, 354685, Note_on_c, 11, 82, 127
1, 354937, Note_off_c, 11, 82, 127
1, 354937, Note_off_c, 7, 43, 110
1, 354940, Note_on_c, 5, 77, 127
1, 354940, Note_on_c, 10, 45, 110
1, 355215, Note_off_c, 2, 50, 110
1, 355349, Note_off_c, 5, 77, 127
1, 355353, Note_on_c, 7, 79, 127
1, 355487, Note_off_c, 7, 79, 127
1, 355490, Note_on_c, 5, 77, 127
1, 355490, Note_on_c, 1, 49, 110
1, 355624, Note_off_c, 5, 77, 127
1, 355628, Note_on_c, 4, 76, 127
1, 355761, Note_off_c, 1, 49, 110
1, 355762, Note_off_c, 4, 76, 127
1, 355765, Note_on_c, 2, 74, 127
1, 355765, Note_on_c, 12, 47, 110
1, 355899, Note_off_c, 2, 74, 127
1, 355903, Note_on_c, 4, 76, 127
1, 356036, Note_off_c, 12, 47, 110
1, 356037, Note_off_c, 4, 76, 127
1, 356040, Note_on_c, 2, 74, 127
1, 356040, Note_on_c, 1, 49, 110
1, 356177, Note_off_c, 2, 74, 127
1, 356181, Note_on_c, 4, 76, 127
1, 356272, Note_off_c, 4, 76, 127
1, 356276, Note_on_c, 5, 77, 127
1, 356362, Note_off_c, 5, 77, 127
1, 356365, Note_on_c, 4, 76, 127
1, 356444, Note_off_c, 4, 76, 127
1, 356448, Note_on_c, 5, 77, 127
1, 356527, Note_off_c, 5, 77, 127
1, 356531, Note_on_c, 4, 76, 127
1, 356588, Note_off_c, 1, 49, 110
1, 356592, Note_on_c, 7, 55, 110
1, 356611, Note_off_c, 4, 76, 127
1, 356615, Note_on_c, 5, 77, 127
1, 356694, Note_off_c, 5, 77, 127
1, 356698, Note_on_c, 4, 76, 127
1, 356777, Note_off_c, 4, 76, 127
1, 356781, Note_on_c, 5, 77, 127
1, 356860, Note_off_c, 5, 77, 127
1, 356864, Note_on_c, 4, 76, 127
1, 356943, Note_off_c, 4, 76, 127
1, 356947, Note_on_c, 2, 74, 127
1, 357041, Note_off_c, 2, 74, 127
1, 357044, Note_on_c, 4, 76, 127
1, 357138, Note_off_c, 4, 76, 127
1, 357138, Note_off_c, 10, 45, 110
1, 357139, Note_off_c, 7, 55, 110
1, 357142, Note_on_c, 2, 74, 127
1, 357142, Note_on_c, 6, 54, 110
1, 357142, Note_on_c, 2, 50, 110
1, 357730, Note_on_c, 2, 38, 127
1, 357730, Note_on_c, 0, 72, 127
1, 357731, Note_off_c, 2, 74, 127
1, 357867, Note_off_c, 0, 72, 127
1, 357871, Note_on_c, 2, 74, 127
1, 358008, Note_off_c, 2, 74, 127
1, 358011, Note_on_c, 3, 75, 127
1, 358281, Note_off_c, 2, 38, 127
1, 358293, Note_on_c, 2, 38, 127
1, 358429, Note_off_c, 3, 75, 127
1, 358433, Note_on_c, 2, 74, 127
1, 358549, Note_off_c, 2, 50, 110
1, 358549, Note_off_c, 6, 54, 110
1, 358570, Note_off_c, 2, 74, 127
1, 358574, Note_on_c, 0, 72, 127
1, 358855, Note_on_c, 6, 54, 110
1, 358855, Note_on_c, 2, 50, 110
1, 358992, Note_off_c, 0, 72, 127
1, 358996, Note_on_c, 11, 70, 127
1, 359133, Note_off_c, 11, 70, 127
1, 359137, Note_on_c, 10, 69, 127
1, 359414, Note_off_c, 2, 50, 110
1, 359414, Note_off_c, 6, 54, 110
1, 359418, Note_on_c, 7, 55, 110
1, 359418, Note_on_c, 4, 52, 110
1, 359555, Note_off_c, 10, 69, 127
1, 359559, Note_on_c, 7, 67, 127
1, 359696, Note_off_c, 7, 67, 127
1, 359700, Note_on_c, 6, 66, 127
1, 359837, Note_off_c, 6, 66, 127
1, 359840, Note_on_c, 4, 64, 127
1, 359977, Note_off_c, 4, 64, 127
1, 359977, Note_off_c, 4, 52, 110
1, 359977, Note_off_c, 7, 55, 110
1, 359981, Note_on_c, 6, 54, 110
1, 359981, Note_on_c, 10, 57, 110
1, 359981, Note_on_c, 2, 62, 127
1, 360162, Note_off_c, 2, 62, 127
1, 360166, Note_on_c, 0, 60, 127
1, 360347, Note_off_c, 0, 60, 127
1, 360351, Note_on_c, 2, 62, 127
1, 360540, Note_off_c, 10, 57, 110
1, 360540, Note_off_c, 6, 54, 110
1, 360544, Note_on_c, 7, 55, 110
1, 360544, Note_on_c, 11, 58, 110
1, 360828, Note_off_c, 2, 62, 127
1, 360832, Note_on_c, 4, 64, 127
1, 360972, Note_off_c, 4, 64, 127
1, 360975, Note_on_c, 6, 66, 127
1, 361090, Note_off_c, 2, 38, 127
1, 361116, Note_off_c, 6, 66, 127
1, 361120, Note_on_c, 2, 38, 127
1, 361120, Note_on_c, 7, 67, 127
1, 361260, Note_off_c, 7, 67, 127
1, 361264, Note_on_c, 2, 62, 127
1, 361404, Note_off_c, 2, 62, 127
1, 361408, Note_on_c, 7, 67, 127
1, 361548, Note_off_c, 7, 67, 127
1, 361552, Note_on_c, 10, 69, 127
1, 361683, Note_off_c, 2, 38, 127
1, 361693, Note_off_c, 10, 69, 127
1, 361697, Note_on_c, 2, 38, 127
1, 361697, Note_on_c, 11, 70, 127
1, 361837, Note_off_c, 11, 70, 127
1, 361841, Note_on_c, 7, 67, 127
1, 361981, Note_off_c, 7, 67, 127
1, 361984, Note_off_c, 11, 58, 110
1, 361984, Note_off_c, 7, 55, 110
1, 361984, Note_on_c, 11, 70, 127
1, 362124, Note_off_c, 11, 70, 127
1, 362128, Note_on_c, 0, 72, 127
1, 362268, Note_off_c, 0, 72, 127
1, 362272, Note_on_c, 5, 53, 110
1, 362272, Note_on_c, 10, 57, 110
1, 362272, Note_on_c, 2, 74, 127
1, 362412, Note_off_c, 2, 74, 127
1, 362416, Note_on_c, 10, 69, 127
1, 362556, Note_off_c, 10, 69, 127
1, 362560, Note_on_c, 1, 73, 127
1, 362700, Note_off_c, 1, 73, 127
1, 362704, Note_on_c, 2, 74, 127
1, 362844, Note_off_c, 2, 74, 127
1, 362844, Note_off_c, 10, 57, 110
1, 362844, Note_off_c, 5, 53, 110
1, 362848, Note_on_c, 7, 55, 110
1, 362848, Note_on_c, 4, 52, 110
1, 362848, Note_on_c, 4, 76, 127
1, 362988, Note_off_c, 4, 76, 127
1, 362991, Note_on_c, 5, 77, 127
1, 363131, Note_off_c, 5, 77, 127
1, 363135, Note_on_c, 7, 79, 127
1, 363275, Note_off_c, 7, 79, 127
1, 363279, Note_on_c, 10, 81, 127
1, 363419, Note_off_c, 10, 81, 127
1, 363420, Note_off_c, 4, 52, 110
1, 363420, Note_off_c, 7, 55, 110
1, 363423, Note_on_c, 5, 53, 110
1, 363423, Note_on_c, 2, 50, 110
1, 363423, Note_on_c, 11, 82, 127
1, 363602, Note_off_c, 11, 82, 127
1, 363606, Note_on_c, 2, 74, 127
1, 363732, Note_off_c, 2, 74, 127
1, 363735, Note_on_c, 1, 73, 127
1, 363861, Note_off_c, 1, 73, 127
1, 363864, Note_on_c, 2, 74, 127
1, 363996, Note_off_c, 2, 74, 127
1, 363996, Note_off_c, 2, 50, 110
1, 363996, Note_off_c, 5, 53, 110
1, 363999, Note_on_c, 7, 55, 110
1, 363999, Note_on_c, 4, 52, 110
1, 363999, Note_on_c, 2, 74, 127
1, 364314, Note_off_c, 2, 74, 127
1, 364318, Note_on_c, 7, 67, 127
1, 364545, Note_off_c, 2, 38, 127
1, 364576, Note_on_c, 2, 38, 127
1, 364825, Note_off_c, 7, 67, 127
1, 364828, Note_on_c, 10, 69, 127
1, 364933, Note_off_c, 10, 69, 127
1, 364936, Note_on_c, 7, 67, 127
1, 365041, Note_off_c, 7, 67, 127
1, 365044, Note_on_c, 5, 65, 127
1, 365139, Note_off_c, 2, 38, 127
1, 365149, Note_off_c, 5, 65, 127
1, 365152, Note_on_c, 2, 38, 127
1, 365152, Note_on_c, 7, 67, 127
1, 365436, Note_off_c, 7, 67, 127
1, 365439, Note_off_c, 4, 52, 110
1, 365439, Note_off_c, 7, 55, 110
1, 365440, Note_on_c, 1, 73, 127
1, 365580, Note_off_c, 1, 73, 127
1, 365584, Note_on_c, 2, 74, 127
1, 365724, Note_off_c, 2, 74, 127
1, 365728, Note_on_c, 1, 49, 110
1, 365728, Note_on_c, 4, 52, 110
1, 365728, Note_on_c, 4, 76, 127
1, 366046, Note_off_c, 4, 76, 127
1, 366049, Note_on_c, 7, 67, 127
1, 366291, Note_off_c, 2, 38, 127
1, 366301, Note_off_c, 7, 67, 127
1, 366301, Note_off_c, 4, 52, 110
1, 366301, Note_off_c, 1, 49, 110
1, 366304, Note_on_c, 5, 53, 110
1, 366304, Note_on_c, 2, 50, 110
1, 366304, Note_on_c, 5, 65, 127
1, 366448, Note_off_c, 5, 65, 127
1, 366452, Note_on_c, 10, 69, 127
1, 366596, Note_off_c, 10, 69, 127
1, 366600, Note_on_c, 12, 71, 127
1, 366744, Note_off_c, 12, 71, 127
1, 366748, Note_on_c, 1, 73, 127
1, 366892, Note_off_c, 1, 73, 127
1, 366893, Note_off_c, 2, 50, 110
1, 366893, Note_off_c, 5, 53, 110
1, 366896, Note_on_c, 5, 53, 110
1, 366896, Note_on_c, 10, 57, 110
1, 366896, Note_on_c, 2, 74, 127
1, 367218, Note_off_c, 2, 74, 127
1, 367222, Note_on_c, 11, 70, 127
1, 367482, Note_off_c, 10, 57, 110
1, 367482, Note_off_c, 5, 53, 110
1, 367483, Note_off_c, 11, 70, 127
1, 367486, Note_on_c, 12, 47, 110
1, 367486, Note_on_c, 2, 50, 110
1, 367486, Note_on_c, 8, 68, 127
1, 367814, Note_off_c, 8, 68, 127
1, 367818, Note_on_c, 10, 69, 127
1, 368072, Note_off_c, 12, 47, 110
1, 368077, Note_on_c, 11, 46, 110
1, 368266, Note_off_c, 10, 69, 127
1, 368270, Note_on_c, 2, 62, 127
1, 368399, Note_off_c, 2, 62, 127
1, 368402, Note_on_c, 7, 67, 127
1, 368531, Note_off_c, 7, 67, 127
1, 368534, Note_on_c, 4, 64, 127
1, 368663, Note_off_c, 4, 64, 127
1, 368663, Note_off_c, 11, 46, 110
1, 368667, Note_on_c, 10, 45, 110
1, 368667, Note_on_c, 5, 65, 127
1, 369129, Note_off_c, 5, 65, 127
1, 369132, Note_on_c, 7, 67, 127
1, 369284, Note_off_c, 7, 67, 127
1, 369284, Note_off_c, 10, 45, 110
1, 369287, Note_on_c, 8, 44, 110
1, 369287, Note_on_c, 5, 65, 127
1, 369439, Note_off_c, 5, 65, 127
1, 369443, Note_on_c, 4, 64, 127
1, 369595, Note_off_c, 4, 64, 127
1, 369598, Note_on_c, 2, 62, 127
1, 369750, Note_off_c, 2, 62, 127
1, 369753, Note_on_c, 1, 61, 127
1, 369905, Note_off_c, 1, 61, 127
1, 369905, Note_off_c, 8, 44, 110
1, 369905, Note_off_c, 2, 50, 110
1, 369909, Note_on_c, 10, 45, 110
1, 369909, Note_on_c, 2, 62, 127
1, 370100, Note_off_c, 2, 62, 127
1, 370103, Note_on_c, 4, 64, 127
1, 370229, Note_off_c, 4, 64, 127
1, 370232, Note_on_c, 5, 65, 127
1, 370358, Note_off_c, 5, 65, 127
1, 370361, Note_on_c, 4, 64, 127
1, 370487, Note_off_c, 4, 64, 127
1, 370490, Note_on_c, 5, 65, 127
1, 370529, Note_on_c, 1, 49, 110
1, 370616, Note_off_c, 5, 65, 127
1, 370620, Note_on_c, 4, 64, 127
1, 370733, Note_off_c, 4, 64, 127
1, 370736, Note_on_c, 5, 65, 127
1, 370835, Note_off_c, 5, 65, 127
1, 370835, Note_off_c, 1, 49, 110
1, 370839, Note_on_c, 7, 55, 110
1, 370839, Note_on_c, 4, 64, 127
1, 370938, Note_off_c, 4, 64, 127
1, 370942, Note_on_c, 2, 62, 127
1, 371041, Note_off_c, 2, 62, 127
1, 371045, Note_on_c, 4, 64, 127
1, 371135, Note_off_c, 10, 45, 110
1, 371144, Note_off_c, 4, 64, 127
1, 371148, Note_on_c, 2, 50, 110
1, 371148, Note_on_c, 2, 62, 127
1, 371872, Note_off_c, 7, 55, 110
1, 371904, Note_on_c, 6, 54, 110
1, 372660, Note_on_c, 2, 38, 127
1, 373400, Note_off_c, 6, 54, 110
1, 375348, Note_off_c, 2, 62, 127
1, 375676, Note_off_c, 2, 50, 110
1, 375810, Note_off_c, 2, 38, 127
1, 379502, Note_on_c, 10, 57, 127
1, 379502, Note_on_c, 5, 53, 127
1, 379502, Note_on_c, 5, 77, 127
1, 379768, Note_off_c, 5, 77, 127
1, 379770, Note_on_c, 5, 65, 127
1, 380036, Note_off_c, 5, 53, 127
1, 380036, Note_off_c, 10, 57, 127
1, 380038, Note_on_c, 4, 52, 127
1, 380038, Note_on_c, 0, 60, 127
1, 380304, Note_off_c, 5, 65, 127
1, 380306, Note_on_c, 7, 67, 127
1, 380438, Note_off_c, 7, 67, 127
1, 380440, Note_on_c, 10, 69, 127
1, 380572, Note_off_c, 10, 69, 127
1, 380572, Note_off_c, 0, 60, 127
1, 380572, Note_off_c, 4, 52, 127
1, 380574, Note_on_c, 2, 50, 127
1, 380574, Note_on_c, 5, 53, 127
1, 380574, Note_on_c, 11, 70, 127
1, 380706, Note_off_c, 11, 70, 127
1, 380708, Note_on_c, 0, 72, 127
1, 380840, Note_off_c, 0, 72, 127
1, 380840, Note_off_c, 5, 53, 127
1, 380842, Note_on_c, 11, 58, 127
1, 380842, Note_on_c, 2, 74, 127
1, 380974, Note_off_c, 2, 74, 127
1, 380976, Note_on_c, 4, 76, 127
1, 381104, Note_off_c, 2, 50, 127
1, 381107, Note_off_c, 4, 76, 127
1, 381107, Note_off_c, 11, 58, 127
1, 381109, Note_on_c, 0, 48, 127
1, 381109, Note_on_c, 10, 57, 127
1, 381109, Note_on_c, 5, 77, 127
1, 381241, Note_off_c, 5, 77, 127
1, 381243, Note_on_c, 7, 79, 127
1, 381375, Note_off_c, 7, 79, 127
1, 381375, Note_off_c, 10, 57, 127
1, 381375, Note_off_c, 0, 48, 127
1, 381377, Note_on_c, 11, 46, 127
1, 381377, Note_on_c, 7, 55, 127
1, 381377, Note_on_c, 10, 81, 127
1, 381509, Note_off_c, 10, 81, 127
1, 381511, Note_on_c, 11, 82, 127
1, 381643, Note_off_c, 11, 82, 127
1, 381643, Note_off_c, 7, 55, 127
1, 381643, Note_off_c, 11, 46, 127
1, 381645, Note_on_c, 10, 45, 127
1, 381645, Note_on_c, 5, 53, 127
1, 381645, Note_on_c, 0, 84, 127
1, 381777, Note_off_c, 5, 53, 127
1, 381777, Note_off_c, 10, 45, 127
1, 381779, Note_on_c, 5, 41, 127
1, 381911, Note_off_c, 5, 41, 127
1, 381911, Note_off_c, 0, 84, 127
1, 381913, Note_on_c, 7, 43, 127
1, 381913, Note_on_c, 5, 77, 127
1, 381913, Note_on_c, 10, 81, 127
1, 381913, Note_on_c, 0, 84, 127
1, 382045, Note_off_c, 7, 43, 127
1, 382047, Note_on_c, 10, 45, 127
1, 382179, Note_off_c, 10, 45, 127
1, 382179, Note_off_c, 0, 84, 127
1, 382179, Note_off_c, 10, 81, 127
1, 382179, Note_off_c, 5, 77, 127
1, 382181, Note_on_c, 11, 46, 127
1, 382181, Note_on_c, 0, 84, 127
1, 382181, Note_on_c, 4, 76, 127
1, 382181, Note_on_c, 7, 79, 127
1, 382313, Note_off_c, 11, 46, 127
1, 382315, Note_on_c, 0, 48, 127
1, 382447, Note_off_c, 0, 48, 127
1, 382447, Note_off_c, 7, 79, 127
1, 382447, Note_off_c, 4, 76, 127
1, 382447, Note_off_c, 0, 84, 127
1, 382449, Note_on_c, 2, 50, 127
1, 382449, Note_on_c, 0, 72, 127
1, 382449, Note_on_c, 7, 79, 127
1, 382449, Note_on_c, 11, 82, 127
1, 382581, Note_off_c, 2, 50, 127
1, 382583, Note_on_c, 4, 52, 127
1, 382715, Note_off_c, 4, 52, 127
1, 382715, Note_off_c, 11, 82, 127
1, 382715, Note_off_c, 7, 79, 127
1, 382715, Note_off_c, 0, 72, 127
1, 382717, Note_on_c, 5, 53, 127
1, 382717, Note_on_c, 5, 77, 127
1, 382717, Note_on_c, 0, 72, 127
1, 382717, Note_on_c, 10, 81, 127
1, 382849, Note_off_c, 5, 53, 127
1, 382851, Note_on_c, 7, 55, 127
1, 382983, Note_off_c, 7, 55, 127
1, 382985, Note_on_c, 10, 57, 127
1, 383117, Note_off_c, 10, 57, 127
1, 383119, Note_on_c, 11, 58, 127
1, 383251, Note_off_c, 11, 58, 127
1, 383251, Note_off_c, 10, 81, 127
1, 383251, Note_off_c, 0, 72, 127
1, 383251, Note_off_c, 5, 77, 127
1, 383253, Note_on_c, 0, 60, 127
1, 383253, Note_on_c, 4, 76, 127
1, 383253, Note_on_c, 0, 72, 127
1, 383253, Note_on_c, 7, 79, 127
1, 383385, Note_off_c, 0, 60, 127
1, 383387, Note_on_c, 2, 62, 127
1, 383519, Note_off_c, 2, 62, 127
1, 383521, Note_on_c, 4, 64, 127
1, 383653, Note_off_c, 4, 64, 127
1, 383655, Note_on_c, 0, 60, 127
1, 383787, Note_off_c, 0, 60, 127
1, 383787, Note_off_c, 7, 79, 127
1, 383787, Note_off_c, 0, 72, 127
1, 383787, Note_off_c, 4, 76, 127
1, 383789, Note_on_c, 5, 65, 127
1, 383789, Note_on_c, 10, 81, 127
1, 383923, Note_on_c, 5, 77, 127
1, 384055, Note_off_c, 5, 77, 127
1, 384055, Note_off_c, 5, 65, 127
1, 384057, Note_on_c, 5, 53, 127
1, 384057, Note_on_c, 4, 76, 127
1, 384189, Note_off_c, 4, 76, 127
1, 384191, Note_on_c, 2, 74, 127
1, 384319, Note_off_c, 10, 81, 127
1, 384322, Note_off_c, 2, 74, 127
1, 384322, Note_off_c, 5, 53, 127
1, 384324, Note_on_c, 4, 52, 127
1, 384324, Note_on_c, 0, 72, 127
1, 384458, Note_on_c, 7, 79, 127
1, 384589, Note_off_c, 0, 72, 127
1, 384590, Note_off_c, 7, 79, 127
1, 384590, Note_off_c, 4, 52, 127
1, 384592, Note_on_c, 10, 57, 127
1, 384592, Note_on_c, 4, 76, 127
1, 384724, Note_off_c, 4, 76, 127
1, 384726, Note_on_c, 0, 72, 127
1, 384858, Note_off_c, 0, 72, 127
1, 384858, Note_off_c, 10, 57, 127
1, 384860, Note_on_c, 2, 62, 127
1, 384860, Note_on_c, 5, 77, 127
1, 384994, Note_on_c, 2, 74, 127
1, 385126, Note_off_c, 2, 74, 127
1, 385126, Note_off_c, 2, 62, 127
1, 385128, Note_on_c, 2, 50, 127
1, 385128, Note_on_c, 0, 72, 127
1, 385261, Note_off_c, 0, 72, 127
1, 385262, Note_on_c, 11, 70, 127
1, 385390, Note_off_c, 5, 77, 127
1, 385393, Note_off_c, 11, 70, 127
1, 385393, Note_off_c, 2, 50, 127
1, 385395, Note_on_c, 0, 48, 127
1, 385395, Note_on_c, 10, 69, 127
1, 385529, Note_on_c, 3, 75, 127
1, 385660, Note_off_c, 10, 69, 127
1, 385661, Note_off_c, 3, 75, 127
1, 385661, Note_off_c, 0, 48, 127
1, 385663, Note_on_c, 5, 53, 127
1, 385663, Note_on_c, 0, 72, 127
1, 385795, Note_off_c, 0, 72, 127
1, 385797, Note_on_c, 10, 69, 127
1, 385929, Note_off_c, 10, 69, 127
1, 385929, Note_off_c, 5, 53, 127
1, 385931, Note_on_c, 11, 58, 127
1, 385931, Note_on_c, 2, 74, 127
1, 386065, Note_on_c, 11, 70, 127
1, 386197, Note_off_c, 11, 70, 127
1, 386197, Note_off_c, 11, 58, 127
1, 386199, Note_on_c, 11, 46, 127
1, 386199, Note_on_c, 10, 69, 127
1, 386331, Note_off_c, 10, 69, 127
1, 386333, Note_on_c, 7, 67, 127
1, 386461, Note_off_c, 2, 74, 127
1, 386464, Note_off_c, 7, 67, 127
1, 386464, Note_off_c, 11, 46, 127
1, 386466, Note_on_c, 10, 45, 127
1, 386466, Note_on_c, 5, 65, 127
1, 386600, Note_on_c, 0, 72, 127
1, 386731, Note_off_c, 5, 65, 127
1, 386732, Note_off_c, 0, 72, 127
1, 386732, Note_off_c, 10, 45, 127
1, 386734, Note_on_c, 2, 50, 127
1, 386734, Note_on_c, 10, 69, 127
1, 386866, Note_off_c, 10, 69, 127
1, 386868, Note_on_c, 5, 65, 127
1, 387000, Note_off_c, 5, 65, 127
1, 387000, Note_off_c, 2, 50, 127
1, 387002, Note_on_c, 7, 43, 127
1, 387002, Note_on_c, 11, 70, 127
1, 387136, Note_on_c, 5, 65, 127
1, 387268, Note_off_c, 5, 65, 127
1, 387268, Note_off_c, 7, 43, 127
1, 387270, Note_on_c, 7, 55, 127
1, 387270, Note_on_c, 4, 64, 127
1, 387402, Note_off_c, 4, 64, 127
1, 387402, Note_off_c, 7, 55, 127
1, 387404, Note_on_c, 10, 57, 127
1, 387404, Note_on_c, 2, 62, 127
1, 387532, Note_off_c, 11, 70, 127
1, 387535, Note_off_c, 2, 62, 127
1, 387535, Note_off_c, 10, 57, 127
1, 387537, Note_on_c, 7, 55, 127
1, 387537, Note_on_c, 4, 64, 127
1, 387671, Note_on_c, 11, 70, 127
1, 387802, Note_off_c, 4, 64, 127
1, 387803, Note_off_c, 11, 70, 127
1, 387803, Note_off_c, 7, 55, 127
1, 387805, Note_on_c, 5, 53, 127
1, 387805, Note_on_c, 7, 67, 127
1, 387937, Note_off_c, 7, 67, 127
1, 387939, Note_on_c, 4, 64, 127
1, 388071, Note_off_c, 4, 64, 127
1, 388071, Note_off_c, 5, 53, 127
1, 388073, Note_on_c, 4, 52, 127
1, 388073, Note_on_c, 0, 60, 127
1, 388205, Note_off_c, 0, 60, 127
1, 388207, Note_on_c, 2, 62, 127
1, 388339, Note_off_c, 2, 62, 127
1, 388339, Note_off_c, 4, 52, 127
1, 388341, Note_on_c, 7, 55, 127
1, 388341, Note_on_c, 4, 64, 127
1, 388473, Note_off_c, 4, 64, 127
1, 388475, Note_on_c, 11, 70, 127
1, 388607, Note_off_c, 11, 70, 127
1, 388607, Note_off_c, 7, 55, 127
1, 388609, Note_on_c, 5, 53, 127
1, 388609, Note_on_c, 10, 69, 127
1, 388741, Note_off_c, 10, 69, 127
1, 388743, Note_on_c, 11, 70, 127
1, 388875, Note_off_c, 11, 70, 127
1, 388875, Note_off_c, 5, 53, 127
1, 388877, Note_on_c, 10, 57, 127
1, 388877, Note_on_c, 0, 72, 127
1, 389009, Note_off_c, 0, 72, 127
1, 389011, Note_on_c, 5, 77, 127
1, 389143, Note_off_c, 5, 77, 127
1, 389143, Note_off_c, 10, 57, 127
1, 389145, Note_on_c, 7, 55, 127
1, 389145, Note_on_c, 4, 76, 127
1, 389277, Note_off_c, 4, 76, 127
1, 389279, Note_on_c, 5, 77, 127
1, 389411, Note_off_c, 5, 77, 127
1, 389411, Note_off_c, 7, 55, 127
1, 389413, Note_on_c, 0, 48, 127
1, 389413, Note_on_c, 7, 79, 127
1, 389545, Note_off_c, 7, 79, 127
1, 389547, Note_on_c, 11, 82, 127
1, 389679, Note_off_c, 11, 82, 127
1, 389679, Note_off_c, 0, 48, 127
1, 389681, Note_on_c, 5, 53, 127
1, 389681, Note_on_c, 10, 81, 127
1, 389813, Note_off_c, 10, 81, 127
1, 389815, Note_on_c, 11, 82, 127
1, 389947, Note_off_c, 11, 82, 127
1, 389947, Note_off_c, 5, 53, 127
1, 389949, Note_on_c, 10, 45, 127
1, 389949, Note_on_c, 0, 84, 127
1, 390081, Note_off_c, 0, 84, 127
1, 390083, Note_on_c, 3, 75, 127
1, 390215, Note_off_c, 3, 75, 127
1, 390215, Note_off_c, 10, 45, 127
1, 390217, Note_on_c, 11, 46, 127
1, 390217, Note_on_c, 2, 74, 127
1, 390349, Note_off_c, 2, 74, 127
1, 390351, Note_on_c, 4, 76, 127
1, 390483, Note_off_c, 4, 76, 127
1, 390483, Note_off_c, 11, 46, 127
1, 390485, Note_on_c, 2, 50, 127
1, 390485, Note_on_c, 5, 77, 127
1, 390617, Note_off_c, 5, 77, 127
1, 390619, Note_on_c, 0, 84, 127
1, 390751, Note_off_c, 0, 84, 127
1, 390751, Note_off_c, 2, 50, 127
1, 390753, Note_on_c, 7, 43, 127
1, 390753, Note_on_c, 11, 82, 127
1, 390885, Note_off_c, 11, 82, 127
1, 390887, Note_on_c, 10, 81, 127
1, 391019, Note_off_c, 10, 81, 127
1, 391019, Note_off_c, 7, 43, 127
1, 391021, Note_on_c, 11, 46, 127
1, 391021, Note_on_c, 7, 79, 127
1, 391153, Note_off_c, 7, 79, 127
1, 391155, Note_on_c, 5, 77, 127
1, 391287, Note_off_c, 5, 77, 127
1, 391287, Note_off_c, 11, 46, 127
1, 391289, Note_on_c, 0, 48, 127
1, 391289, Note_on_c, 4, 76, 127
1, 391421, Note_off_c, 4, 76, 127
1, 391421, Note_off_c, 0, 48, 127
1, 391423, Note_on_c, 2, 50, 127
1, 391423, Note_on_c, 5, 77, 127
1, 391555, Note_off_c, 5, 77, 127
1, 391555, Note_off_c, 2, 50, 127
1, 391557, Note_on_c, 4, 52, 127
1, 391557, Note_on_c, 7, 79, 127
1, 391689, Note_off_c, 7, 79, 127
1, 391689, Note_off_c, 4, 52, 127
1, 391691, Note_on_c, 5, 53, 127
1, 391691, Note_on_c, 4, 76, 127
1, 391823, Note_off_c, 4, 76, 127
1, 391823, Note_off_c, 5, 53, 127
1, 391825, Note_on_c, 7, 55, 127
1, 391825, Note_on_c, 0, 72, 127
1, 391957, Note_off_c, 7, 55, 127
1, 391959, Note_on_c, 10, 57, 127
1, 392091, Note_off_c, 10, 57, 127
1, 392093, Note_on_c, 11, 58, 127
1, 392225, Note_off_c, 11, 58, 127
1, 392227, Note_on_c, 7, 55, 127
1, 392305, Note_off_c, 0, 72, 127
1, 392359, Note_off_c, 7, 55, 127
1, 392369, Note_on_c, 10, 57, 127
1, 392369, Note_on_c, 5, 53, 127
1, 392369, Note_on_c, 5, 77, 127
1, 392635, Note_off_c, 5, 77, 127
1, 392637, Note_on_c, 5, 65, 127
1, 392903, Note_off_c, 5, 53, 127
1, 392903, Note_off_c, 10, 57, 127
1, 392905, Note_on_c, 0, 60, 127
1, 392905, Note_on_c, 4, 52, 127
1, 393171, Note_off_c, 5, 65, 127
1, 393173, Note_on_c, 7, 67, 127
1, 393305, Note_off_c, 7, 67, 127
1, 393307, Note_on_c, 10, 69, 127
1, 393439, Note_off_c, 10, 69, 127
1, 393439, Note_off_c, 4, 52, 127
1, 393439, Note_off_c, 0, 60, 127
1, 393441, Note_on_c, 5, 53, 127
1, 393441, Note_on_c, 2, 50, 127
1, 393441, Note_on_c, 11, 70, 127
1, 393573, Note_off_c, 11, 70, 127
1, 393575, Note_on_c, 0, 72, 127
1, 393707, Note_off_c, 0, 72, 127
1, 393707, Note_off_c, 5, 53, 127
1, 393709, Note_on_c, 11, 58, 127
1, 393709, Note_on_c, 2, 74, 127
1, 393841, Note_off_c, 2, 74, 127
1, 393843, Note_on_c, 4, 76, 127
1, 393971, Note_off_c, 2, 50, 127
1, 393974, Note_off_c, 4, 76, 127
1, 393974, Note_off_c, 11, 58, 127
1, 393976, Note_on_c, 0, 48, 127
1, 393976, Note_on_c, 10, 57, 127
1, 393976, Note_on_c, 5, 77, 127
1, 394108, Note_off_c, 5, 77, 127
1, 394110, Note_on_c, 7, 79, 127
1, 394242, Note_off_c, 7, 79, 127
1, 394242, Note_off_c, 10, 57, 127
1, 394242, Note_off_c, 0, 48, 127
1, 394244, Note_on_c, 11, 46, 127
1, 394244, Note_on_c, 7, 55, 127
1, 394244, Note_on_c, 10, 81, 127
1, 394376, Note_off_c, 10, 81, 127
1, 394378, Note_on_c, 11, 82, 127
1, 394510, Note_off_c, 11, 82, 127
1, 394510, Note_off_c, 7, 55, 127
1, 394510, Note_off_c, 11, 46, 127
1, 394512, Note_on_c, 5, 53, 127
1, 394512, Note_on_c, 10, 45, 127
1, 394512, Note_on_c, 0, 84, 127
1, 394644, Note_off_c, 10, 45, 127
1, 394644, Note_off_c, 5, 53, 127
1, 394646, Note_on_c, 5, 41, 127
1, 394778, Note_off_c, 5, 41, 127
1, 394778, Note_off_c, 0, 84, 127
1, 394780, Note_on_c, 7, 43, 127
1, 394780, Note_on_c, 5, 77, 127
1, 394780, Note_on_c, 0, 84, 127
1, 394780, Note_on_c, 10, 81, 127
1, 394912, Note_off_c, 7, 43, 127
1, 394914, Note_on_c, 10, 45, 127
1, 395046, Note_off_c, 10, 45, 127
1, 395046, Note_off_c, 10, 81, 127
1, 395046, Note_off_c, 0, 84, 127
1, 395046, Note_off_c, 5, 77, 127
1, 395048, Note_on_c, 11, 46, 127
1, 395048, Note_on_c, 4, 76, 127
1, 395048, Note_on_c, 0, 84, 127
1, 395048, Note_on_c, 7, 79, 127
1, 395180, Note_off_c, 11, 46, 127
1, 395182, Note_on_c, 0, 48, 127
1, 395314, Note_off_c, 0, 48, 127
1, 395314, Note_off_c, 7, 79, 127
1, 395314, Note_off_c, 0, 84, 127
1, 395314, Note_off_c, 4, 76, 127
1, 395316, Note_on_c, 2, 50, 127
1, 395316, Note_on_c, 0, 72, 127
1, 395316, Note_on_c, 7, 79, 127
1, 395316, Note_on_c, 11, 82, 127
1, 395448, Note_off_c, 2, 50, 127
1, 395450, Note_on_c, 4, 52, 127
1, 395582, Note_off_c, 4, 52, 127
1, 395582, Note_off_c, 11, 82, 127
1, 395582, Note_off_c, 7, 79, 127
1, 395582, Note_off_c, 0, 72, 127
1, 395584, Note_on_c, 5, 53, 127
1, 395584, Note_on_c, 5, 77, 127
1, 395584, Note_on_c, 0, 72, 127
1, 395584, Note_on_c, 10, 81, 127
1, 395716, Note_off_c, 5, 53, 127
1, 395718, Note_on_c, 7, 55, 127
1, 395850, Note_off_c, 7, 55, 127
1, 395852, Note_on_c, 10, 57, 127
1, 395984, Note_off_c, 10, 57, 127
1, 395986, Note_on_c, 11, 58, 127
1, 396118, Note_off_c, 11, 58, 127
1, 396118, Note_off_c, 10, 81, 127
1, 396118, Note_off_c, 0, 72, 127
1, 396118, Note_off_c, 5, 77, 127
1, 396120, Note_on_c, 0, 60, 127
1, 396120, Note_on_c, 4, 76, 127
1, 396120, Note_on_c, 0, 72, 127
1, 396120, Note_on_c, 7, 79, 127
1, 396252, Note_off_c, 0, 60, 127
1, 396254, Note_on_c, 2, 62, 127
1, 396386, Note_off_c, 2, 62, 127
1, 396388, Note_on_c, 4, 64, 127
1, 396520, Note_off_c, 4, 64, 127
1, 396522, Note_on_c, 0, 60, 127
1, 396600, Note_off_c, 7, 79, 127
1, 396600, Note_off_c, 0, 72, 127
1, 396600, Note_off_c, 4, 76, 127
1, 396654, Note_off_c, 0, 60, 127
1, 396656, Note_on_c, 2, 62, 127
1, 396656, Note_on_c, 11, 82, 127
1, 396790, Note_on_c, 5, 77, 127
1, 396922, Note_off_c, 5, 77, 127
1, 396922, Note_off_c, 2, 62, 127
1, 396924, Note_on_c, 2, 50, 127
1, 396924, Note_on_c, 4, 76, 127
1, 397056, Note_off_c, 4, 76, 127
1, 397058, Note_on_c, 5, 77, 127
1, 397186, Note_off_c, 11, 82, 127
1, 397189, Note_off_c, 5, 77, 127
1, 397189, Note_off_c, 2, 50, 127
1, 397191, Note_on_c, 2, 62, 127
1, 397191, Note_on_c, 11, 82, 127
1, 397325, Note_on_c, 5, 77, 127
1, 397456, Note_off_c, 11, 82, 127
1, 397457, Note_off_c, 2, 62, 127
1, 397459, Note_on_c, 0, 60, 127
1, 397459, Note_on_c, 10, 81, 127
1, 397590, Note_off_c, 5, 77, 127
1, 397593, Note_on_c, 5, 77, 127
1, 397724, Note_off_c, 10, 81, 127
1, 397725, Note_off_c, 5, 77, 127
1, 397725, Note_off_c, 0, 60, 127
1, 397727, Note_on_c, 11, 58, 127
1, 397727, Note_on_c, 7, 79, 127
1, 397861, Note_on_c, 5, 77, 127
1, 397993, Note_off_c, 5, 77, 127
1, 397993, Note_off_c, 11, 58, 127
1, 397995, Note_on_c, 11, 46, 127
1, 397995, Note_on_c, 4, 76, 127
1, 398127, Note_off_c, 4, 76, 127
1, 398129, Note_on_c, 5, 77, 127
1, 398257, Note_off_c, 7, 79, 127
1, 398260, Note_off_c, 5, 77, 127
1, 398260, Note_off_c, 11, 46, 127
1, 398262, Note_on_c, 11, 58, 127
1, 398262, Note_on_c, 7, 79, 127
1, 398396, Note_on_c, 5, 77, 127
1, 398527, Note_off_c, 7, 79, 127
1, 398528, Note_off_c, 11, 58, 127
1, 398530, Note_on_c, 0, 60, 127
1, 398530, Note_on_c, 10, 81, 127
1, 398661, Note_off_c, 5, 77, 127
1, 398664, Note_on_c, 5, 77, 127
1, 398795, Note_off_c, 10, 81, 127
1, 398796, Note_off_c, 5, 77, 127
1, 398796, Note_off_c, 0, 60, 127
1, 398798, Note_on_c, 2, 62, 127
1, 398798, Note_on_c, 11, 82, 127
1, 398932, Note_on_c, 5, 77, 127
1, 399064, Note_off_c, 5, 77, 127
1, 399064, Note_off_c, 2, 62, 127
1, 399066, Note_on_c, 2, 50, 127
1, 399066, Note_on_c, 4, 76, 127
1, 399198, Note_off_c, 4, 76, 127
1, 399200, Note_on_c, 5, 77, 127
1, 399328, Note_off_c, 11, 82, 127
1, 399331, Note_off_c, 5, 77, 127
1, 399331, Note_off_c, 2, 50, 127
1, 399333, Note_on_c, 2, 62, 127
1, 399333, Note_on_c, 11, 82, 127
1, 399467, Note_on_c, 5, 77, 127
1, 399598, Note_off_c, 11, 82, 127
1, 399599, Note_off_c, 2, 62, 127
1, 399601, Note_on_c, 0, 60, 127
1, 399601, Note_on_c, 10, 81, 127
1, 399732, Note_off_c, 5, 77, 127
1, 399735, Note_on_c, 5, 77, 127
1, 399866, Note_off_c, 10, 81, 127
1, 399867, Note_off_c, 5, 77, 127
1, 399867, Note_off_c, 0, 60, 127
1, 399869, Note_on_c, 11, 58, 127
1, 399869, Note_on_c, 7, 79, 127
1, 400003, Note_on_c, 5, 77, 127
1, 400135, Note_off_c, 5, 77, 127
1, 400135, Note_off_c, 11, 58, 127
1, 400137, Note_on_c, 11, 46, 127
1, 400137, Note_on_c, 4, 76, 127
1, 400269, Note_off_c, 4, 76, 127
1, 400271, Note_on_c, 5, 77, 127
1, 400399, Note_off_c, 7, 79, 127
1, 400402, Note_off_c, 5, 77, 127
1, 400402, Note_off_c, 11, 46, 127
1, 400404, Note_on_c, 11, 58, 127
1, 400404, Note_on_c, 7, 79, 127
1, 400538, Note_on_c, 5, 77, 127
1, 400669, Note_off_c, 7, 79, 127
1, 400670, Note_off_c, 11, 58, 127
1, 400672, Note_on_c, 0, 60, 127
1, 400672, Note_on_c, 10, 81, 127
1, 400803, Note_off_c, 5, 77, 127
1, 400806, Note_on_c, 5, 77, 127
1, 400937, Note_off_c, 10, 81, 127
1, 400938, Note_off_c, 5, 77, 127
1, 400938, Note_off_c, 0, 60, 127
1, 400940, Note_on_c, 2, 62, 127
1, 400940, Note_on_c, 11, 82, 127
1, 401074, Note_on_c, 5, 77, 127
1, 401205, Note_off_c, 11, 82, 127
1, 401206, Note_off_c, 2, 62, 127
1, 401208, Note_on_c, 0, 60, 127
1, 401208, Note_on_c, 10, 81, 127
1, 401339, Note_off_c, 5, 77, 127
1, 401342, Note_on_c, 5, 77, 127
1, 401473, Note_off_c, 10, 81, 127
1, 401474, Note_off_c, 5, 77, 127
1, 401474, Note_off_c, 0, 60, 127
1, 401476, Note_on_c, 11, 58, 127
1, 401476, Note_on_c, 7, 79, 127
1, 401610, Note_on_c, 5, 77, 127
1, 401742, Note_off_c, 5, 77, 127
1, 401742, Note_off_c, 11, 58, 127
1, 401744, Note_on_c, 7, 55, 127
1, 401744, Note_on_c, 4, 76, 127
1, 401876, Note_off_c, 4, 76, 127
1, 401877, Note_off_c, 7, 79, 127
1, 401878, Note_on_c, 2, 74, 127
1, 402010, Note_off_c, 2, 74, 127
1, 402010, Note_off_c, 7, 55, 127
1, 402012, Note_on_c, 4, 52, 127
1, 402012, Note_on_c, 0, 72, 127
1, 402146, Note_on_c, 7, 67, 127
1, 402277, Note_off_c, 0, 72, 127
1, 402278, Note_off_c, 4, 52, 127
1, 402280, Note_on_c, 0, 48, 127
1, 402280, Note_on_c, 11, 70, 127
1, 402411, Note_off_c, 7, 67, 127
1, 402414, Note_on_c, 7, 67, 127
1, 402545, Note_off_c, 11, 70, 127
1, 402546, Note_off_c, 7, 67, 127
1, 402546, Note_off_c, 0, 48, 127
1, 402548, Note_on_c, 5, 53, 127
1, 402548, Note_on_c, 10, 69, 127
1, 402682, Note_on_c, 7, 67, 127
1, 402814, Note_off_c, 7, 67, 127
1, 402814, Note_off_c, 5, 53, 127
1, 402816, Note_on_c, 0, 48, 127
1, 402816, Note_on_c, 5, 65, 127
1, 402948, Note_off_c, 5, 65, 127
1, 402950, Note_on_c, 4, 64, 127
1, 403078, Note_off_c, 10, 69, 127
1, 403081, Note_off_c, 4, 64, 127
1, 403081, Note_off_c, 0, 48, 127
1, 403083, Note_on_c, 10, 45, 127
1, 403083, Note_on_c, 5, 65, 127
1, 403215, Note_off_c, 10, 45, 127
1, 403217, Note_on_c, 7, 43, 127
1, 403349, Note_off_c, 7, 43, 127
1, 403349, Note_off_c, 5, 65, 127
1, 403351, Note_on_c, 10, 45, 127
1, 403351, Note_on_c, 0, 60, 127
1, 403351, Note_on_c, 0, 72, 127
1, 403351, Note_on_c, 5, 65, 127
1, 403483, Note_off_c, 10, 45, 127
1, 403485, Note_on_c, 11, 46, 127
1, 403617, Note_off_c, 11, 46, 127
1, 403617, Note_off_c, 5, 65, 127
1, 403617, Note_off_c, 0, 72, 127
1, 403617, Note_off_c, 0, 60, 127
1, 403619, Note_on_c, 0, 48, 127
1, 403619, Note_on_c, 0, 60, 127
1, 403619, Note_on_c, 5, 65, 127
1, 403619, Note_on_c, 10, 69, 127
1, 403885, Note_off_c, 10, 69, 127
1, 403885, Note_off_c, 5, 65, 127
1, 403885, Note_off_c, 0, 60, 127
1, 403885, Note_off_c, 0, 48, 127
1, 403887, Note_on_c, 0, 36, 127
1, 403887, Note_on_c, 11, 58, 127
1, 403887, Note_on_c, 7, 67, 127
1, 403887, Note_on_c, 4, 64, 127
1, 404019, Note_off_c, 7, 67, 127
1, 404021, Note_on_c, 5, 65, 127
1, 404152, Note_off_c, 4, 64, 127
1, 404152, Note_off_c, 11, 58, 127
1, 404153, Note_off_c, 5, 65, 127
1, 404153, Note_off_c, 0, 36, 127
1, 404155, Note_on_c, 5, 41, 127
1, 404155, Note_on_c, 5, 65, 127
1, 404155, Note_on_c, 0, 60, 127
1, 404155, Note_on_c, 10, 57, 127
1, 404421, Note_off_c, 5, 41, 127
1, 404423, Note_on_c, 7, 43, 127
1, 404555, Note_off_c, 7, 43, 127
1, 404557, Note_on_c, 10, 45, 127
1, 404689, Note_off_c, 10, 45, 127
1, 404691, Note_on_c, 11, 46, 127
1, 404823, Note_off_c, 11, 46, 127
1, 404825, Note_on_c, 0, 48, 127
1, 404888, Note_off_c, 10, 57, 127
1, 404923, Note_off_c, 0, 60, 127
1, 404957, Note_off_c, 0, 48, 127
1, 404958, Note_off_c, 5, 65, 127
1, 404959, Note_on_c, 2, 50, 127
1, 405091, Note_off_c, 2, 50, 127
1, 405093, Note_on_c, 4, 52, 127
1, 405225, Note_off_c, 4, 52, 127
1, 405227, Note_on_c, 5, 53, 127
1, 405361, Note_on_c, 10, 69, 127
1, 405493, Note_off_c, 10, 69, 127
1, 405493, Note_off_c, 5, 53, 127
1, 405495, Note_on_c, 10, 57, 127
1, 405495, Note_on_c, 11, 70, 127
1, 405627, Note_off_c, 11, 70, 127
1, 405629, Note_on_c, 0, 72, 127
1, 405761, Note_off_c, 0, 72, 127
1, 405761, Note_off_c, 10, 57, 127
1, 405763, Note_on_c, 0, 60, 127
1, 405763, Note_on_c, 11, 70, 127
1, 405895, Note_off_c, 11, 70, 127
1, 405897, Note_on_c, 10, 69, 127
1, 406029, Note_off_c, 10, 69, 127
1, 406029, Note_off_c, 0, 60, 127
1, 406031, Note_on_c, 10, 57, 127
1, 406031, Note_on_c, 7, 67, 127
1, 406163, Note_off_c, 7, 67, 127
1, 406165, Note_on_c, 5, 65, 127
1, 406297, Note_off_c, 5, 65, 127
1, 406297, Note_off_c, 10, 57, 127
1, 406299, Note_on_c, 5, 53, 127
1, 406299, Note_on_c, 3, 75, 127
1, 406431, Note_off_c, 3, 75, 127
1, 406433, Note_on_c, 0, 72, 127
1, 406565, Note_off_c, 0, 72, 127
1, 406565, Note_off_c, 5, 53, 127
1, 406567, Note_on_c, 11, 58, 127
1, 406567, Note_on_c, 2, 74, 127
1, 406699, Note_off_c, 11, 58, 127
1, 406701, Note_on_c, 0, 60, 127
1, 406833, Note_off_c, 0, 60, 127
1, 406835, Note_on_c, 2, 62, 127
1, 406967, Note_off_c, 2, 74, 127
1, 406969, Note_on_c, 11, 70, 127
1, 407101, Note_off_c, 11, 70, 127
1, 407101, Note_off_c, 2, 62, 127
1, 407103, Note_on_c, 5, 53, 127
1, 407103, Note_on_c, 10, 69, 127
1, 407235, Note_off_c, 10, 69, 127
1, 407237, Note_on_c, 11, 70, 127
1, 407369, Note_off_c, 11, 70, 127
1, 407369, Note_off_c, 5, 53, 127
1, 407371, Note_on_c, 7, 55, 127
1, 407371, Note_on_c, 4, 76, 127
1, 407503, Note_off_c, 4, 76, 127
1, 407505, Note_on_c, 11, 70, 127
1, 407637, Note_off_c, 11, 70, 127
1, 407637, Note_off_c, 7, 55, 127
1, 407639, Note_on_c, 11, 58, 127
1, 407639, Note_on_c, 5, 77, 127
1, 407771, Note_off_c, 5, 77, 127
1, 407773, Note_on_c, 11, 70, 127
1, 407905, Note_off_c, 11, 70, 127
1, 407905, Note_off_c, 11, 58, 127
1, 407907, Note_on_c, 4, 64, 127
1, 407907, Note_on_c, 7, 79, 127
1, 408039, Note_off_c, 7, 79, 127
1, 408041, Note_on_c, 11, 70, 127
1, 408173, Note_off_c, 11, 70, 127
1, 408173, Note_off_c, 4, 64, 127
1, 408175, Note_on_c, 0, 60, 127
1, 408175, Note_on_c, 10, 69, 127
1, 408307, Note_off_c, 10, 69, 127
1, 408309, Note_on_c, 7, 67, 127
1, 408441, Note_off_c, 7, 67, 127
1, 408441, Note_off_c, 0, 60, 127
1, 408443, Note_on_c, 5, 65, 127
1, 408443, Note_on_c, 10, 69, 127
1, 408575, Note_off_c, 10, 69, 127
1, 408577, Note_on_c, 0, 72, 127
1, 408709, Note_off_c, 0, 72, 127
1, 408709, Note_off_c, 5, 65, 127
1, 408711, Note_on_c, 0, 60, 127
1, 408711, Note_on_c, 11, 70, 127
1, 408843, Note_off_c, 11, 70, 127
1, 408845, Note_on_c, 10, 69, 127
1, 408977, Note_off_c, 10, 69, 127
1, 408977, Note_off_c, 0, 60, 127
1, 408979, Note_on_c, 10, 57, 127
1, 408979, Note_on_c, 11, 70, 127
1, 409111, Note_off_c, 11, 70, 127
1, 409113, Note_on_c, 10, 69, 127
1, 409245, Note_off_c, 10, 69, 127
1, 409245, Note_off_c, 10, 57, 127
1, 409247, Note_on_c, 0, 60, 127
1, 409247, Note_on_c, 7, 67, 127
1, 409379, Note_off_c, 7, 67, 127
1, 409381, Note_on_c, 10, 69, 127
1, 409513, Note_off_c, 10, 69, 127
1, 409513, Note_off_c, 0, 60, 127
1, 409515, Note_on_c, 5, 53, 127
1, 409515, Note_on_c, 5, 65, 127
1, 409647, Note_off_c, 5, 53, 127
1, 409649, Note_on_c, 10, 57, 127
1, 409781, Note_off_c, 10, 57, 127
1, 409781, Note_off_c, 5, 65, 127
1, 409783, Note_on_c, 11, 58, 127
1, 409783, Note_on_c, 10, 69, 127
1, 409915, Note_off_c, 11, 58, 127
1, 409917, Note_on_c, 0, 60, 127
1, 410049, Note_off_c, 0, 60, 127
1, 410049, Note_off_c, 10, 69, 127
1, 410051, Note_on_c, 11, 58, 127
1, 410051, Note_on_c, 0, 72, 127
1, 410183, Note_off_c, 11, 58, 127
1, 410185, Note_on_c, 10, 57, 127
1, 410317, Note_off_c, 10, 57, 127
1, 410317, Note_off_c, 0, 72, 127
1, 410319, Note_on_c, 7, 55, 127
1, 410319, Note_on_c, 10, 69, 127
1, 410451, Note_off_c, 7, 55, 127
1, 410453, Note_on_c, 5, 53, 127
1, 410585, Note_off_c, 5, 53, 127
1, 410585, Note_off_c, 10, 69, 127
1, 410587, Note_on_c, 3, 63, 127
1, 410587, Note_on_c, 5, 65, 127
1, 410719, Note_off_c, 3, 63, 127
1, 410721, Note_on_c, 0, 60, 127
1, 410853, Note_off_c, 0, 60, 127
1, 410853, Note_off_c, 5, 65, 127
1, 410855, Note_on_c, 2, 62, 127
1, 410855, Note_on_c, 11, 70, 127
1, 410987, Note_off_c, 11, 70, 127
1, 410989, Note_on_c, 0, 72, 127
1, 411121, Note_off_c, 0, 72, 127
1, 411123, Note_on_c, 2, 74, 127
1, 411255, Note_off_c, 2, 62, 127
1, 411257, Note_on_c, 11, 58, 127
1, 411389, Note_off_c, 11, 58, 127
1, 411389, Note_off_c, 2, 74, 127
1, 411391, Note_on_c, 10, 57, 127
1, 411391, Note_on_c, 5, 65, 127
1, 411523, Note_off_c, 10, 57, 127
1, 411525, Note_on_c, 11, 58, 127
1, 411657, Note_off_c, 11, 58, 127
1, 411657, Note_off_c, 5, 65, 127
1, 411659, Note_on_c, 4, 64, 127
1, 411659, Note_on_c, 7, 67, 127
1, 411791, Note_off_c, 4, 64, 127
1, 411793, Note_on_c, 11, 58, 127
1, 411925, Note_off_c, 11, 58, 127
1, 411925, Note_off_c, 7, 67, 127
1, 411927, Note_on_c, 5, 65, 127
1, 411927, Note_on_c, 11, 70, 127
1, 412059, Note_off_c, 5, 65, 127
1, 412061, Note_on_c, 11, 58, 127
1, 412193, Note_off_c, 11, 58, 127
1, 412193, Note_off_c, 11, 70, 127
1, 412195, Note_on_c, 7, 67, 127
1, 412195, Note_on_c, 4, 76, 127
1, 412327, Note_off_c, 7, 67, 127
1, 412329, Note_on_c, 11, 58, 127
1, 412461, Note_off_c, 11, 58, 127
1, 412461, Note_off_c, 4, 76, 127
1, 412463, Note_on_c, 10, 57, 127
1, 412463, Note_on_c, 0, 72, 127
1, 412595, Note_off_c, 10, 57, 127
1, 412597, Note_on_c, 7, 55, 127
1, 412729, Note_off_c, 7, 55, 127
1, 412729, Note_off_c, 0, 72, 127
1, 412731, Note_on_c, 10, 57, 127
1, 412731, Note_on_c, 5, 77, 127
1, 412863, Note_off_c, 5, 77, 127
1, 412863, Note_off_c, 10, 57, 127
1, 412865, Note_on_c, 0, 60, 127
1, 412865, Note_on_c, 4, 76, 127
1, 412997, Note_off_c, 4, 76, 127
1, 412997, Note_off_c, 0, 60, 127
1, 412999, Note_on_c, 11, 58, 127
1, 412999, Note_on_c, 5, 77, 127
1, 413131, Note_off_c, 11, 58, 127
1, 413133, Note_on_c, 10, 57, 127
1, 413265, Note_off_c, 10, 57, 127
1, 413267, Note_on_c, 11, 58, 127
1, 413334, Note_off_c, 5, 77, 127
1, 413399, Note_off_c, 11, 58, 127
1, 413401, Note_on_c, 10, 57, 127
1, 413401, Note_on_c, 0, 72, 127
1, 413533, Note_off_c, 0, 72, 127
1, 413533, Note_off_c, 10, 57, 127
1, 413535, Note_on_c, 7, 55, 127
1, 413535, Note_on_c, 11, 70, 127
1, 413667, Note_off_c, 11, 70, 127
1, 413667, Note_off_c, 7, 55, 127
1, 413669, Note_on_c, 10, 57, 127
1, 413669, Note_on_c, 0, 72, 127
1, 413801, Note_off_c, 0, 72, 127
1, 413801, Note_off_c, 10, 57, 127
1, 413803, Note_on_c, 5, 53, 127
1, 413803, Note_on_c, 10, 81, 127
1, 413935, Note_off_c, 10, 81, 127
1, 413937, Note_on_c, 11, 82, 127
1, 414069, Note_off_c, 11, 82, 127
1, 414069, Note_off_c, 5, 53, 127
1, 414071, Note_on_c, 10, 57, 127
1, 414071, Note_on_c, 10, 81, 127
1, 414203, Note_off_c, 10, 81, 127
1, 414205, Note_on_c, 7, 79, 127
1, 414337, Note_off_c, 7, 79, 127
1, 414337, Note_off_c, 10, 57, 127
1, 414339, Note_on_c, 0, 60, 127
1, 414339, Note_on_c, 5, 77, 127
1, 414471, Note_off_c, 5, 77, 127
1, 414473, Note_on_c, 4, 76, 127
1, 414605, Note_off_c, 4, 76, 127
1, 414605, Note_off_c, 0, 60, 127
1, 414607, Note_on_c, 5, 65, 127
1, 414607, Note_on_c, 2, 74, 127
1, 414739, Note_off_c, 2, 74, 127
1, 414741, Note_on_c, 0, 72, 127
1, 414873, Note_off_c, 0, 72, 127
1, 414875, Note_on_c, 12, 71, 127
1, 415007, Note_off_c, 5, 65, 127
1, 415009, Note_on_c, 4, 64, 127
1, 415009, Note_on_c, 7, 79, 127
1, 415015, Note_off_c, 12, 71, 127
1, 415141, Note_off_c, 7, 79, 127
1, 415141, Note_off_c, 4, 64, 127
1, 415143, Note_on_c, 2, 62, 127
1, 415143, Note_on_c, 12, 71, 127
1, 415275, Note_off_c, 12, 71, 127
1, 415275, Note_off_c, 2, 62, 127
1, 415277, Note_on_c, 0, 60, 127
1, 415277, Note_on_c, 10, 69, 127
1, 415409, Note_off_c, 10, 69, 127
1, 415409, Note_off_c, 0, 60, 127
1, 415411, Note_on_c, 12, 59, 127
1, 415411, Note_on_c, 7, 67, 127
1, 415543, Note_off_c, 7, 67, 127
1, 415543, Note_off_c, 12, 59, 127
1, 415545, Note_on_c, 10, 57, 127
1, 415545, Note_on_c, 2, 74, 127
1, 415677, Note_off_c, 2, 74, 127
1, 415677, Note_off_c, 10, 57, 127
1, 415679, Note_on_c, 7, 55, 127
1, 415679, Note_on_c, 4, 76, 127
1, 415811, Note_off_c, 4, 76, 127
1, 415811, Note_off_c, 7, 55, 127
1, 415813, Note_on_c, 5, 53, 127
1, 415813, Note_on_c, 5, 77, 127
1, 415945, Note_off_c, 5, 77, 127
1, 415945, Note_off_c, 5, 53, 127
1, 415947, Note_on_c, 4, 52, 127
1, 415947, Note_on_c, 7, 79, 127
1, 416079, Note_off_c, 7, 79, 127
1, 416081, Note_on_c, 10, 81, 127
1, 416213, Note_off_c, 10, 81, 127
1, 416213, Note_off_c, 4, 52, 127
1, 416215, Note_on_c, 7, 55, 127
1, 416215, Note_on_c, 7, 79, 127
1, 416347, Note_off_c, 7, 79, 127
1, 416349, Note_on_c, 5, 77, 127
1, 416481, Note_off_c, 5, 77, 127
1, 416481, Note_off_c, 7, 55, 127
1, 416483, Note_on_c, 0, 60, 127
1, 416483, Note_on_c, 4, 76, 127
1, 416615, Note_off_c, 4, 76, 127
1, 416617, Note_on_c, 2, 74, 127
1, 416749, Note_off_c, 2, 74, 127
1, 416749, Note_off_c, 0, 60, 127
1, 416751, Note_on_c, 4, 64, 127
1, 416751, Note_on_c, 0, 72, 127
1, 416883, Note_off_c, 0, 72, 127
1, 416885, Note_on_c, 12, 71, 127
1, 417017, Note_off_c, 12, 71, 127
1, 417019, Note_on_c, 10, 69, 127
1, 417151, Note_off_c, 4, 64, 127
1, 417153, Note_on_c, 2, 62, 127
1, 417153, Note_on_c, 5, 77, 127
1, 417169, Note_off_c, 10, 69, 127
1, 417285, Note_off_c, 5, 77, 127
1, 417285, Note_off_c, 2, 62, 127
1, 417287, Note_on_c, 0, 60, 127
1, 417287, Note_on_c, 10, 69, 127
1, 417419, Note_off_c, 10, 69, 127
1, 417419, Note_off_c, 0, 60, 127
1, 417421, Note_on_c, 12, 59, 127
1, 417421, Note_on_c, 7, 67, 127
1, 417553, Note_off_c, 7, 67, 127
1, 417553, Note_off_c, 12, 59, 127
1, 417555, Note_on_c, 10, 57, 127
1, 417555, Note_on_c, 5, 65, 127
1, 417687, Note_off_c, 5, 65, 127
1, 417687, Note_off_c, 10, 57, 127
1, 417689, Note_on_c, 7, 55, 127
1, 417689, Note_on_c, 0, 72, 127
1, 417821, Note_off_c, 0, 72, 127
1, 417821, Note_off_c, 7, 55, 127
1, 417823, Note_on_c, 5, 53, 127
1, 417823, Note_on_c, 2, 74, 127
1, 417955, Note_off_c, 2, 74, 127
1, 417955, Note_off_c, 5, 53, 127
1, 417957, Note_on_c, 4, 52, 127
1, 417957, Note_on_c, 4, 76, 127
1, 418089, Note_off_c, 4, 76, 127
1, 418089, Note_off_c, 4, 52, 127
1, 418091, Note_on_c, 2, 50, 127
1, 418091, Note_on_c, 5, 77, 127
1, 418223, Note_off_c, 5, 77, 127
1, 418225, Note_on_c, 7, 79, 127
1, 418357, Note_off_c, 7, 79, 127
1, 418357, Note_off_c, 2, 50, 127
1, 418359, Note_on_c, 5, 53, 127
1, 418359, Note_on_c, 5, 77, 127
1, 418491, Note_off_c, 5, 77, 127
1, 418493, Note_on_c, 4, 76, 127
1, 418625, Note_off_c, 4, 76, 127
1, 418625, Note_off_c, 5, 53, 127
1, 418627, Note_on_c, 10, 57, 127
1, 418627, Note_on_c, 2, 74, 127
1, 418759, Note_off_c, 2, 74, 127
1, 418761, Note_on_c, 0, 72, 127
1, 418893, Note_off_c, 0, 72, 127
1, 418893, Note_off_c, 10, 57, 127
1, 418895, Note_on_c, 0, 60, 127
1, 418895, Note_on_c, 12, 71, 127
1, 419027, Note_off_c, 12, 71, 127
1, 419029, Note_on_c, 10, 69, 127
1, 419161, Note_off_c, 10, 69, 127
1, 419161, Note_off_c, 0, 60, 127
1, 419163, Note_on_c, 7, 67, 127
1, 419297, Note_on_c, 5, 77, 127
1, 419353, Note_off_c, 7, 67, 127
1, 419429, Note_off_c, 5, 77, 127
1, 419431, Note_on_c, 12, 59, 127
1, 419431, Note_on_c, 7, 67, 127
1, 419563, Note_off_c, 7, 67, 127
1, 419563, Note_off_c, 12, 59, 127
1, 419565, Note_on_c, 10, 57, 127
1, 419565, Note_on_c, 5, 65, 127
1, 419697, Note_off_c, 5, 65, 127
1, 419697, Note_off_c, 10, 57, 127
1, 419699, Note_on_c, 12, 59, 127
1, 419699, Note_on_c, 7, 67, 127
1, 419831, Note_off_c, 7, 67, 127
1, 419833, Note_on_c, 5, 77, 127
1, 419965, Note_off_c, 5, 77, 127
1, 419965, Note_off_c, 12, 59, 127
1, 419967, Note_on_c, 0, 60, 127
1, 419967, Note_on_c, 10, 69, 127
1, 420099, Note_off_c, 10, 69, 127
1, 420101, Note_on_c, 5, 77, 127
1, 420233, Note_off_c, 5, 77, 127
1, 420233, Note_off_c, 0, 60, 127
1, 420235, Note_on_c, 2, 62, 127
1, 420235, Note_on_c, 12, 71, 127
1, 420367, Note_off_c, 12, 71, 127
1, 420369, Note_on_c, 5, 77, 127
1, 420501, Note_off_c, 5, 77, 127
1, 420501, Note_off_c, 2, 62, 127
1, 420503, Note_on_c, 7, 55, 127
1, 420503, Note_on_c, 12, 71, 127
1, 420635, Note_off_c, 12, 71, 127
1, 420635, Note_off_c, 7, 55, 127
1, 420637, Note_on_c, 5, 53, 127
1, 420637, Note_on_c, 10, 69, 127
1, 420769, Note_off_c, 10, 69, 127
1, 420769, Note_off_c, 5, 53, 127
1, 420771, Note_on_c, 7, 55, 127
1, 420771, Note_on_c, 12, 71, 127
1, 420903, Note_off_c, 12, 71, 127
1, 420905, Note_on_c, 5, 77, 127
1, 421037, Note_off_c, 5, 77, 127
1, 421037, Note_off_c, 7, 55, 127
1, 421039, Note_on_c, 10, 57, 127
1, 421039, Note_on_c, 0, 72, 127
1, 421171, Note_off_c, 0, 72, 127
1, 421173, Note_on_c, 5, 77, 127
1, 421305, Note_off_c, 5, 77, 127
1, 421305, Note_off_c, 10, 57, 127
1, 421307, Note_on_c, 12, 59, 127
1, 421307, Note_on_c, 2, 74, 127
1, 421441, Note_on_c, 5, 77, 127
1, 421449, Note_off_c, 2, 74, 127
1, 421573, Note_off_c, 5, 77, 127
1, 421573, Note_off_c, 12, 59, 127
1, 421575, Note_on_c, 12, 59, 127
1, 421575, Note_on_c, 2, 74, 127
1, 421707, Note_off_c, 2, 74, 127
1, 421707, Note_off_c, 12, 59, 127
1, 421709, Note_on_c, 10, 57, 127
1, 421709, Note_on_c, 0, 72, 127
1, 421841, Note_off_c, 0, 72, 127
1, 421841, Note_off_c, 10, 57, 127
1, 421843, Note_on_c, 12, 59, 127
1, 421843, Note_on_c, 2, 74, 127
1, 421977, Note_on_c, 5, 77, 127
1, 421985, Note_off_c, 2, 74, 127
1, 422109, Note_off_c, 5, 77, 127
1, 422109, Note_off_c, 12, 59, 127
1, 422111, Note_on_c, 0, 60, 127
1, 422111, Note_on_c, 0, 72, 127
1, 422245, Note_on_c, 5, 77, 127
1, 422253, Note_off_c, 0, 72, 127
1, 422377, Note_off_c, 5, 77, 127
1, 422377, Note_off_c, 0, 60, 127
1, 422379, Note_on_c, 2, 62, 127
1, 422379, Note_on_c, 12, 71, 127
1, 422513, Note_on_c, 5, 77, 127
1, 422529, Note_off_c, 12, 71, 127
1, 422645, Note_off_c, 5, 77, 127
1, 422645, Note_off_c, 2, 62, 127
1, 422647, Note_on_c, 7, 55, 127
1, 422647, Note_on_c, 12, 71, 127
1, 422779, Note_off_c, 12, 71, 127
1, 422779, Note_off_c, 7, 55, 127
1, 422781, Note_on_c, 5, 53, 127
1, 422781, Note_on_c, 10, 69, 127
1, 422913, Note_off_c, 10, 69, 127
1, 422913, Note_off_c, 5, 53, 127
1, 422915, Note_on_c, 7, 55, 127
1, 422915, Note_on_c, 12, 71, 127
1, 423049, Note_on_c, 5, 77, 127
1, 423065, Note_off_c, 12, 71, 127
1, 423181, Note_off_c, 5, 77, 127
1, 423181, Note_off_c, 7, 55, 127
1, 423183, Note_on_c, 10, 57, 127
1, 423183, Note_on_c, 10, 69, 127
1, 423317, Note_on_c, 5, 77, 127
1, 423333, Note_off_c, 10, 69, 127
1, 423449, Note_off_c, 5, 77, 127
1, 423449, Note_off_c, 10, 57, 127
1, 423451, Note_on_c, 12, 59, 127
1, 423451, Note_on_c, 7, 67, 127
1, 423585, Note_on_c, 5, 77, 127
1, 423601, Note_off_c, 7, 67, 127
1, 423717, Note_off_c, 5, 77, 127
1, 423717, Note_off_c, 12, 59, 127
1, 423719, Note_on_c, 12, 59, 127
1, 423719, Note_on_c, 7, 67, 127
1, 423851, Note_off_c, 7, 67, 127
1, 423851, Note_off_c, 12, 59, 127
1, 423853, Note_on_c, 10, 57, 127
1, 423853, Note_on_c, 5, 65, 127
1, 423985, Note_off_c, 5, 65, 127
1, 423985, Note_off_c, 10, 57, 127
1, 423987, Note_on_c, 12, 59, 127
1, 423987, Note_on_c, 7, 67, 127
1, 424121, Note_on_c, 5, 77, 127
1, 424137, Note_off_c, 7, 67, 127
1, 424253, Note_off_c, 5, 77, 127
1, 424253, Note_off_c, 12, 59, 127
1, 424255, Note_on_c, 0, 60, 127
1, 424255, Note_on_c, 10, 69, 127
1, 424389, Note_on_c, 5, 77, 127
1, 424405, Note_off_c, 10, 69, 127
1, 424521, Note_off_c, 5, 77, 127
1, 424521, Note_off_c, 0, 60, 127
1, 424523, Note_on_c, 2, 62, 127
1, 424523, Note_on_c, 12, 71, 127
1, 424657, Note_on_c, 5, 77, 127
1, 424683, Note_off_c, 12, 71, 127
1, 424789, Note_off_c, 5, 77, 127
1, 424789, Note_off_c, 2, 62, 127
1, 424791, Note_on_c, 7, 55, 127
1, 424791, Note_on_c, 12, 71, 127
1, 424923, Note_off_c, 12, 71, 127
1, 424923, Note_off_c, 7, 55, 127
1, 424925, Note_on_c, 5, 53, 127
1, 424925, Note_on_c, 10, 69, 127
1, 425057, Note_off_c, 10, 69, 127
1, 425057, Note_off_c, 5, 53, 127
1, 425059, Note_on_c, 7, 55, 127
1, 425059, Note_on_c, 12, 71, 127
1, 425193, Note_on_c, 5, 77, 127
1, 425209, Note_off_c, 12, 71, 127
1, 425325, Note_off_c, 5, 77, 127
1, 425325, Note_off_c, 7, 55, 127
1, 425327, Note_on_c, 10, 57, 127
1, 425327, Note_on_c, 0, 72, 127
1, 425461, Note_on_c, 5, 77, 127
1, 425477, Note_off_c, 0, 72, 127
1, 425593, Note_off_c, 5, 77, 127
1, 425593, Note_off_c, 10, 57, 127
1, 425595, Note_on_c, 12, 59, 127
1, 425595, Note_on_c, 2, 74, 127
1, 425727, Note_off_c, 2, 74, 127
1, 425727, Note_off_c, 12, 59, 127
1, 425729, Note_on_c, 2, 62, 127
1, 425729, Note_on_c, 5, 77, 127
1, 425861, Note_off_c, 5, 77, 127
1, 425861, Note_off_c, 2, 62, 127
1, 425863, Note_on_c, 12, 59, 127
1, 425863, Note_on_c, 2, 74, 127
1, 425995, Note_off_c, 2, 74, 127
1, 425995, Note_off_c, 12, 59, 127
1, 425997, Note_on_c, 10, 57, 127
1, 425997, Note_on_c, 0, 72, 127
1, 426129, Note_off_c, 0, 72, 127
1, 426129, Note_off_c, 10, 57, 127
1, 426131, Note_on_c, 7, 55, 127
1, 426131, Note_on_c, 12, 71, 127
1, 426263, Note_off_c, 12, 71, 127
1, 426263, Note_off_c, 7, 55, 127
1, 426265, Note_on_c, 5, 53, 127
1, 426265, Note_on_c, 10, 69, 127
1, 426397, Note_off_c, 10, 69, 127
1, 426397, Note_off_c, 5, 53, 127
1, 426399, Note_on_c, 4, 52, 127
1, 426399, Note_on_c, 7, 67, 127
1, 426531, Note_off_c, 7, 67, 127
1, 426531, Note_off_c, 4, 52, 127
1, 426533, Note_on_c, 2, 50, 127
1, 426533, Note_on_c, 5, 65, 127
1, 426652, Note_off_c, 5, 65, 127
1, 426665, Note_off_c, 2, 50, 127
1, 426675, Note_on_c, 0, 48, 127
1, 426675, Note_on_c, 4, 64, 127
1, 426807, Note_off_c, 4, 64, 127
1, 426809, Note_on_c, 7, 67, 127
1, 426941, Note_off_c, 7, 67, 127
1, 426941, Note_off_c, 0, 48, 127
1, 426943, Note_on_c, 4, 52, 127
1, 426943, Note_on_c, 5, 65, 127
1, 427075, Note_off_c, 5, 65, 127
1, 427077, Note_on_c, 4, 64, 127
1, 427209, Note_off_c, 4, 64, 127
1, 427209, Note_off_c, 4, 52, 127
1, 427211, Note_on_c, 7, 55, 127
1, 427211, Note_on_c, 5, 65, 127
1, 427343, Note_off_c, 5, 65, 127
1, 427345, Note_on_c, 4, 64, 127
1, 427477, Note_off_c, 4, 64, 127
1, 427477, Note_off_c, 7, 55, 127
1, 427479, Note_on_c, 4, 52, 127
1, 427479, Note_on_c, 2, 62, 127
1, 427611, Note_off_c, 2, 62, 127
1, 427613, Note_on_c, 0, 60, 127
1, 427745, Note_off_c, 0, 60, 127
1, 427745, Note_off_c, 4, 52, 127
1, 427747, Note_on_c, 0, 48, 127
1, 427747, Note_on_c, 11, 70, 127
1, 427879, Note_off_c, 11, 70, 127
1, 427881, Note_on_c, 7, 67, 127
1, 428013, Note_off_c, 7, 67, 127
1, 428013, Note_off_c, 0, 48, 127
1, 428015, Note_on_c, 5, 53, 127
1, 428015, Note_on_c, 10, 69, 127
1, 428147, Note_off_c, 5, 53, 127
1, 428149, Note_on_c, 7, 55, 127
1, 428281, Note_off_c, 7, 55, 127
1, 428283, Note_on_c, 10, 57, 127
1, 428415, Note_off_c, 10, 69, 127
1, 428417, Note_on_c, 5, 65, 127
1, 428549, Note_off_c, 5, 65, 127
1, 428549, Note_off_c, 10, 57, 127
1, 428551, Note_on_c, 0, 48, 127
1, 428551, Note_on_c, 4, 64, 127
1, 428683, Note_off_c, 4, 64, 127
1, 428685, Note_on_c, 5, 65, 127
1, 428817, Note_off_c, 5, 65, 127
1, 428817, Note_off_c, 0, 48, 127
1, 428819, Note_on_c, 2, 50, 127
1, 428819, Note_on_c, 12, 71, 127
1, 428951, Note_off_c, 12, 71, 127
1, 428953, Note_on_c, 5, 65, 127
1, 429085, Note_off_c, 5, 65, 127
1, 429085, Note_off_c, 2, 50, 127
1, 429087, Note_on_c, 5, 53, 127
1, 429087, Note_on_c, 0, 72, 127
1, 429219, Note_off_c, 0, 72, 127
1, 429221, Note_on_c, 5, 65, 127
1, 429353, Note_off_c, 5, 65, 127
1, 429353, Note_off_c, 5, 53, 127
1, 429355, Note_on_c, 12, 59, 127
1, 429355, Note_on_c, 2, 74, 127
1, 429487, Note_off_c, 2, 74, 127
1, 429489, Note_on_c, 5, 65, 127
1, 429621, Note_off_c, 5, 65, 127
1, 429621, Note_off_c, 12, 59, 127
1, 429623, Note_on_c, 7, 55, 127
1, 429623, Note_on_c, 4, 64, 127
1, 429755, Note_off_c, 4, 64, 127
1, 429757, Note_on_c, 2, 62, 127
1, 429889, Note_off_c, 2, 62, 127
1, 429889, Note_off_c, 7, 55, 127
1, 429891, Note_on_c, 0, 60, 127
1, 429891, Note_on_c, 4, 64, 127
1, 430023, Note_off_c, 4, 64, 127
1, 430025, Note_on_c, 7, 67, 127
1, 430157, Note_off_c, 7, 67, 127
1, 430157, Note_off_c, 0, 60, 127
1, 430159, Note_on_c, 7, 55, 127
1, 430159, Note_on_c, 5, 65, 127
1, 430291, Note_off_c, 5, 65, 127
1, 430293, Note_on_c, 4, 64, 127
1, 430425, Note_off_c, 4, 64, 127
1, 430425, Note_off_c, 7, 55, 127
1, 430427, Note_on_c, 4, 52, 127
1, 430427, Note_on_c, 5, 65, 127
1, 430559, Note_off_c, 5, 65, 127
1, 430561, Note_on_c, 4, 64, 127
1, 430693, Note_off_c, 4, 64, 127
1, 430693, Note_off_c, 4, 52, 127
1, 430695, Note_on_c, 7, 55, 127
1, 430695, Note_on_c, 2, 62, 127
1, 430827, Note_off_c, 2, 62, 127
1, 430829, Note_on_c, 4, 64, 127
1, 430961, Note_off_c, 4, 64, 127
1, 430961, Note_off_c, 7, 55, 127
1, 430963, Note_on_c, 0, 48, 127
1, 430963, Note_on_c, 0, 60, 127
1, 431095, Note_off_c, 0, 48, 127
1, 431097, Note_on_c, 4, 52, 127
1, 431229, Note_off_c, 4, 52, 127
1, 431229, Note_off_c, 0, 60, 127
1, 431231, Note_on_c, 5, 53, 127
1, 431231, Note_on_c, 4, 64, 127
1, 431363, Note_off_c, 5, 53, 127
1, 431365, Note_on_c, 7, 55, 127
1, 431497, Note_off_c, 7, 55, 127
1, 431497, Note_off_c, 4, 64, 127
1, 431499, Note_on_c, 5, 53, 127
1, 431499, Note_on_c, 7, 67, 127
1, 431631, Note_off_c, 5, 53, 127
1, 431633, Note_on_c, 4, 52, 127
1, 431765, Note_off_c, 4, 52, 127
1, 431765, Note_off_c, 7, 67, 127
1, 431767, Note_on_c, 2, 50, 127
1, 431767, Note_on_c, 4, 64, 127
1, 431899, Note_off_c, 2, 50, 127
1, 431901, Note_on_c, 0, 48, 127
1, 432033, Note_off_c, 0, 48, 127
1, 432033, Note_off_c, 4, 64, 127
1, 432035, Note_on_c, 11, 58, 127
1, 432035, Note_on_c, 0, 60, 127
1, 432167, Note_off_c, 11, 58, 127
1, 432169, Note_on_c, 7, 55, 127
1, 432301, Note_off_c, 7, 55, 127
1, 432301, Note_off_c, 0, 60, 127
1, 432303, Note_on_c, 10, 57, 127
1, 432303, Note_on_c, 5, 65, 127
1, 432435, Note_off_c, 5, 65, 127
1, 432437, Note_on_c, 7, 67, 127
1, 432569, Note_off_c, 7, 67, 127
1, 432571, Note_on_c, 10, 69, 127
1, 432703, Note_off_c, 10, 57, 127
1, 432705, Note_on_c, 5, 53, 127
1, 432837, Note_off_c, 5, 53, 127
1, 432837, Note_off_c, 10, 69, 127
1, 432839, Note_on_c, 4, 52, 127
1, 432839, Note_on_c, 0, 60, 127
1, 432971, Note_off_c, 4, 52, 127
1, 432973, Note_on_c, 5, 53, 127
1, 433105, Note_off_c, 5, 53, 127
1, 433105, Note_off_c, 0, 60, 127
1, 433107, Note_on_c, 12, 59, 127
1, 433107, Note_on_c, 2, 62, 127
1, 433239, Note_off_c, 12, 59, 127
1, 433241, Note_on_c, 5, 53, 127
1, 433373, Note_off_c, 5, 53, 127
1, 433373, Note_off_c, 2, 62, 127
1, 433375, Note_on_c, 0, 60, 127
1, 433375, Note_on_c, 5, 65, 127
1, 433507, Note_off_c, 0, 60, 127
1, 433509, Note_on_c, 5, 53, 127
1, 433641, Note_off_c, 5, 53, 127
1, 433641, Note_off_c, 5, 65, 127
1, 433643, Note_on_c, 2, 62, 127
1, 433643, Note_on_c, 12, 71, 127
1, 433775, Note_off_c, 2, 62, 127
1, 433777, Note_on_c, 5, 53, 127
1, 433909, Note_off_c, 5, 53, 127
1, 433909, Note_off_c, 12, 71, 127
1, 433911, Note_on_c, 4, 52, 127
1, 433911, Note_on_c, 7, 67, 127
1, 434043, Note_off_c, 4, 52, 127
1, 434045, Note_on_c, 2, 50, 127
1, 434177, Note_off_c, 2, 50, 127
1, 434177, Note_off_c, 7, 67, 127
1, 434179, Note_on_c, 4, 52, 127
1, 434179, Note_on_c, 0, 72, 127
1, 434311, Note_off_c, 4, 52, 127
1, 434313, Note_on_c, 7, 55, 127
1, 434445, Note_off_c, 7, 55, 127
1, 434445, Note_off_c, 0, 72, 127
1, 434447, Note_on_c, 5, 53, 127
1, 434447, Note_on_c, 7, 67, 127
1, 434579, Note_off_c, 5, 53, 127
1, 434581, Note_on_c, 4, 52, 127
1, 434713, Note_off_c, 4, 52, 127
1, 434713, Note_off_c, 7, 67, 127
1, 434715, Note_on_c, 5, 53, 127
1, 434715, Note_on_c, 7, 79, 127
1, 434847, Note_off_c, 5, 53, 127
1, 434849, Note_on_c, 4, 52, 127
1, 434981, Note_off_c, 4, 52, 127
1, 434981, Note_off_c, 7, 79, 127
1, 434983, Note_on_c, 2, 50, 127
1, 434983, Note_on_c, 5, 77, 127
1, 435115, Note_off_c, 2, 50, 127
1, 435117, Note_on_c, 4, 52, 127
1, 435249, Note_off_c, 4, 52, 127
1, 435249, Note_off_c, 5, 77, 127
1, 435251, Note_on_c, 0, 48, 127
1, 435251, Note_on_c, 4, 76, 127
1, 435385, Note_on_c, 0, 72, 127
1, 435517, Note_off_c, 0, 72, 127
1, 435517, Note_off_c, 0, 48, 127
1, 435519, Note_on_c, 4, 52, 127
1, 435519, Note_on_c, 11, 70, 127
1, 435651, Note_off_c, 11, 70, 127
1, 435653, Note_on_c, 10, 69, 127
1, 435785, Note_off_c, 10, 69, 127
1, 435785, Note_off_c, 4, 52, 127
1, 435787, Note_on_c, 7, 55, 127
1, 435787, Note_on_c, 11, 70, 127
1, 435919, Note_off_c, 11, 70, 127
1, 435921, Note_on_c, 10, 69, 127
1, 436053, Note_off_c, 10, 69, 127
1, 436053, Note_off_c, 7, 55, 127
1, 436055, Note_on_c, 11, 58, 127
1, 436055, Note_on_c, 7, 67, 127
1, 436187, Note_off_c, 7, 67, 127
1, 436189, Note_on_c, 10, 69, 127
1, 436319, Note_off_c, 4, 76, 127
1, 436321, Note_off_c, 10, 69, 127
1, 436321, Note_off_c, 11, 58, 127
1, 436323, Note_on_c, 10, 57, 127
1, 436323, Note_on_c, 5, 65, 127
1, 436457, Note_on_c, 7, 79, 127
1, 436588, Note_off_c, 5, 65, 127
1, 436589, Note_off_c, 7, 79, 127
1, 436589, Note_off_c, 10, 57, 127
1, 436591, Note_on_c, 0, 60, 127
1, 436591, Note_on_c, 5, 77, 127
1, 436723, Note_off_c, 5, 77, 127
1, 436725, Note_on_c, 4, 76, 127
1, 436857, Note_off_c, 4, 76, 127
1, 436857, Note_off_c, 0, 60, 127
1, 436859, Note_on_c, 10, 57, 127
1, 436859, Note_on_c, 7, 79, 127
1, 436991, Note_off_c, 7, 79, 127
1, 436993, Note_on_c, 5, 77, 127
1, 437125, Note_off_c, 5, 77, 127
1, 437125, Note_off_c, 10, 57, 127
1, 437127, Note_on_c, 5, 53, 127
1, 437127, Note_on_c, 4, 76, 127
1, 437259, Note_off_c, 4, 76, 127
1, 437261, Note_on_c, 5, 77, 127
1, 437393, Note_off_c, 5, 77, 127
1, 437393, Note_off_c, 5, 53, 127
1, 437395, Note_on_c, 12, 47, 127
1, 437395, Note_on_c, 2, 74, 127
1, 437529, Note_on_c, 10, 69, 127
1, 437661, Note_off_c, 10, 69, 127
1, 437661, Note_off_c, 12, 47, 127
1, 437663, Note_on_c, 2, 50, 127
1, 437663, Note_on_c, 7, 67, 127
1, 437795, Note_off_c, 7, 67, 127
1, 437797, Note_on_c, 5, 65, 127
1, 437929, Note_off_c, 5, 65, 127
1, 437929, Note_off_c, 2, 50, 127
1, 437931, Note_on_c, 5, 53, 127
1, 437931, Note_on_c, 10, 69, 127
1, 438063, Note_off_c, 10, 69, 127
1, 438065, Note_on_c, 7, 67, 127
1, 438197, Note_off_c, 7, 67, 127
1, 438197, Note_off_c, 5, 53, 127
1, 438199, Note_on_c, 10, 57, 127
1, 438199, Note_on_c, 5, 65, 127
1, 438331, Note_off_c, 5, 65, 127
1, 438333, Note_on_c, 7, 67, 127
1, 438463, Note_off_c, 2, 74, 127
1, 438465, Note_off_c, 7, 67, 127
1, 438465, Note_off_c, 10, 57, 127
1, 438467, Note_on_c, 7, 55, 127
1, 438467, Note_on_c, 4, 64, 127
1, 438601, Note_on_c, 5, 77, 127
1, 438732, Note_off_c, 4, 64, 127
1, 438733, Note_off_c, 5, 77, 127
1, 438733, Note_off_c, 7, 55, 127
1, 438735, Note_on_c, 12, 59, 127
1, 438735, Note_on_c, 4, 76, 127
1, 438867, Note_off_c, 4, 76, 127
1, 438869, Note_on_c, 2, 74, 127
1, 439001, Note_off_c, 2, 74, 127
1, 439001, Note_off_c, 12, 59, 127
1, 439003, Note_on_c, 7, 55, 127
1, 439003, Note_on_c, 5, 77, 127
1, 439135, Note_off_c, 5, 77, 127
1, 439137, Note_on_c, 4, 76, 127
1, 439269, Note_off_c, 4, 76, 127
1, 439269, Note_off_c, 7, 55, 127
1, 439271, Note_on_c, 4, 52, 127
1, 439271, Note_on_c, 2, 74, 127
1, 439403, Note_off_c, 2, 74, 127
1, 439405, Note_on_c, 4, 76, 127
1, 439537, Note_off_c, 4, 76, 127
1, 439537, Note_off_c, 4, 52, 127
1, 439539, Note_on_c, 10, 45, 127
1, 439539, Note_on_c, 0, 72, 127
1, 439673, Note_on_c, 7, 67, 127
1, 439805, Note_off_c, 7, 67, 127
1, 439805, Note_off_c, 10, 45, 127
1, 439807, Note_on_c, 0, 48, 127
1, 439807, Note_on_c, 5, 65, 127
1, 439939, Note_off_c, 5, 65, 127
1, 439941, Note_on_c, 4, 64, 127
1, 440073, Note_off_c, 4, 64, 127
1, 440073, Note_off_c, 0, 48, 127
1, 440075, Note_on_c, 4, 52, 127
1, 440075, Note_on_c, 7, 67, 127
1, 440207, Note_off_c, 7, 67, 127
1, 440209, Note_on_c, 5, 65, 127
1, 440341, Note_off_c, 5, 65, 127
1, 440341, Note_off_c, 4, 52, 127
1, 440343, Note_on_c, 7, 55, 127
1, 440343, Note_on_c, 4, 64, 127
1, 440475, Note_off_c, 4, 64, 127
1, 440477, Note_on_c, 5, 65, 127
1, 440607, Note_off_c, 0, 72, 127
1, 440609, Note_off_c, 5, 65, 127
1, 440609, Note_off_c, 7, 55, 127
1, 440611, Note_on_c, 5, 53, 127
1, 440611, Note_on_c, 2, 62, 127
1, 440745, Note_on_c, 4, 76, 127
1, 440876, Note_off_c, 2, 62, 127
1, 440877, Note_off_c, 4, 76, 127
1, 440877, Note_off_c, 5, 53, 127
1, 440879, Note_on_c, 10, 57, 127
1, 440879, Note_on_c, 2, 74, 127
1, 441011, Note_off_c, 2, 74, 127
1, 441013, Note_on_c, 0, 72, 127
1, 441145, Note_off_c, 0, 72, 127
1, 441145, Note_off_c, 10, 57, 127
1, 441147, Note_on_c, 5, 53, 127
1, 441147, Note_on_c, 4, 76, 127
1, 441279, Note_off_c, 4, 76, 127
1, 441281, Note_on_c, 2, 74, 127
1, 441413, Note_off_c, 2, 74, 127
1, 441413, Note_off_c, 5, 53, 127
1, 441415, Note_on_c, 2, 50, 127
1, 441415, Note_on_c, 0, 72, 127
1, 441547, Note_off_c, 0, 72, 127
1, 441549, Note_on_c, 2, 74, 127
1, 441681, Note_off_c, 2, 74, 127
1, 441681, Note_off_c, 2, 50, 127
1, 441683, Note_on_c, 7, 43, 127
1, 441683, Note_on_c, 12, 71, 127
1, 441815, Note_off_c, 7, 43, 127
1, 441817, Note_on_c, 7, 55, 127
1, 441949, Note_off_c, 7, 55, 127
1, 441951, Note_on_c, 5, 53, 127
1, 441951, Note_on_c, 2, 62, 127
1, 442083, Note_off_c, 5, 53, 127
1, 442085, Note_on_c, 4, 52, 127
1, 442217, Note_off_c, 4, 52, 127
1, 442217, Note_off_c, 2, 62, 127
1, 442219, Note_on_c, 5, 53, 127
1, 442219, Note_on_c, 7, 67, 127
1, 442351, Note_off_c, 5, 53, 127
1, 442353, Note_on_c, 4, 52, 127
1, 442485, Note_off_c, 4, 52, 127
1, 442486, Note_off_c, 12, 71, 127
1, 442487, Note_on_c, 2, 50, 127
1, 442487, Note_on_c, 12, 71, 127
1, 442619, Note_off_c, 2, 50, 127
1, 442621, Note_on_c, 4, 52, 127
1, 442753, Note_off_c, 4, 52, 127
1, 442753, Note_off_c, 12, 71, 127
1, 442755, Note_on_c, 7, 43, 127
1, 442755, Note_on_c, 0, 72, 127
1, 442887, Note_off_c, 7, 43, 127
1, 442889, Note_on_c, 5, 53, 127
1, 443021, Note_off_c, 5, 53, 127
1, 443022, Note_off_c, 7, 67, 127
1, 443023, Note_on_c, 4, 52, 127
1, 443023, Note_on_c, 7, 67, 127
1, 443155, Note_off_c, 4, 52, 127
1, 443157, Note_on_c, 2, 50, 127
1, 443285, Note_off_c, 0, 72, 127
1, 443288, Note_off_c, 2, 50, 127
1, 443288, Note_off_c, 7, 67, 127
1, 443290, Note_on_c, 4, 52, 127
1, 443290, Note_on_c, 0, 72, 127
1, 443422, Note_off_c, 4, 52, 127
1, 443424, Note_on_c, 2, 50, 127
1, 443556, Note_off_c, 2, 50, 127
1, 443558, Note_on_c, 0, 48, 127
1, 443558, Note_on_c, 4, 76, 127
1, 443690, Note_off_c, 0, 48, 127
1, 443692, Note_on_c, 2, 50, 127
1, 443824, Note_off_c, 2, 50, 127
1, 443824, Note_off_c, 4, 76, 127
1, 443826, Note_on_c, 7, 43, 127
1, 443826, Note_on_c, 5, 77, 127
1, 443958, Note_off_c, 7, 43, 127
1, 443960, Note_on_c, 4, 52, 127
1, 444092, Note_off_c, 4, 52, 127
1, 444093, Note_off_c, 0, 72, 127
1, 444094, Note_on_c, 2, 50, 127
1, 444094, Note_on_c, 12, 71, 127
1, 444226, Note_off_c, 12, 71, 127
1, 444226, Note_off_c, 2, 50, 127
1, 444228, Note_on_c, 0, 48, 127
1, 444228, Note_on_c, 10, 69, 127
1, 444360, Note_off_c, 10, 69, 127
1, 444360, Note_off_c, 0, 48, 127
1, 444362, Note_on_c, 2, 50, 127
1, 444362, Note_on_c, 12, 71, 127
1, 444494, Note_off_c, 2, 50, 127
1, 444496, Note_on_c, 0, 48, 127
1, 444628, Note_off_c, 0, 48, 127
1, 444629, Note_off_c, 5, 77, 127
1, 444630, Note_on_c, 12, 47, 127
1, 444630, Note_on_c, 2, 74, 127
1, 444762, Note_off_c, 12, 47, 127
1, 444764, Note_on_c, 0, 48, 127
1, 444896, Note_off_c, 0, 48, 127
1, 444896, Note_off_c, 2, 74, 127
1, 444898, Note_on_c, 7, 43, 127
1, 444898, Note_on_c, 4, 76, 127
1, 445030, Note_off_c, 7, 43, 127
1, 445032, Note_on_c, 2, 50, 127
1, 445164, Note_off_c, 2, 50, 127
1, 445165, Note_off_c, 12, 71, 127
1, 445166, Note_on_c, 0, 48, 127
1, 445166, Note_on_c, 10, 69, 127
1, 445298, Note_off_c, 10, 69, 127
1, 445298, Note_off_c, 0, 48, 127
1, 445300, Note_on_c, 12, 47, 127
1, 445300, Note_on_c, 7, 67, 127
1, 445432, Note_off_c, 7, 67, 127
1, 445432, Note_off_c, 12, 47, 127
1, 445434, Note_on_c, 0, 48, 127
1, 445434, Note_on_c, 10, 69, 127
1, 445566, Note_off_c, 0, 48, 127
1, 445568, Note_on_c, 12, 47, 127
1, 445700, Note_off_c, 12, 47, 127
1, 445700, Note_off_c, 10, 69, 127
1, 445701, Note_off_c, 4, 76, 127
1, 445702, Note_on_c, 10, 45, 127
1, 445702, Note_on_c, 6, 78, 127
1, 445702, Note_on_c, 0, 72, 127
1, 445834, Note_off_c, 10, 45, 127
1, 445836, Note_on_c, 12, 47, 127
1, 445968, Note_off_c, 12, 47, 127
1, 445968, Note_off_c, 6, 78, 127
1, 445970, Note_on_c, 7, 43, 127
1, 445970, Note_on_c, 7, 79, 127
1, 446100, Note_off_c, 0, 72, 127
1, 446102, Note_off_c, 7, 43, 127
1, 446104, Note_on_c, 0, 48, 127
1, 446104, Note_on_c, 4, 76, 127
1, 446236, Note_off_c, 4, 76, 127
1, 446236, Note_off_c, 0, 48, 127
1, 446238, Note_on_c, 12, 47, 127
1, 446238, Note_on_c, 2, 74, 127
1, 446370, Note_off_c, 2, 74, 127
1, 446370, Note_off_c, 12, 47, 127
1, 446372, Note_on_c, 10, 45, 127
1, 446372, Note_on_c, 0, 72, 127
1, 446504, Note_off_c, 0, 72, 127
1, 446504, Note_off_c, 10, 45, 127
1, 446506, Note_on_c, 12, 47, 127
1, 446506, Note_on_c, 2, 74, 127
1, 446638, Note_off_c, 2, 74, 127
1, 446638, Note_off_c, 12, 47, 127
1, 446640, Note_on_c, 10, 45, 127
1, 446640, Note_on_c, 0, 72, 127
1, 446772, Note_off_c, 0, 72, 127
1, 446772, Note_off_c, 10, 45, 127
1, 446774, Note_on_c, 7, 43, 127
1, 446774, Note_on_c, 12, 71, 127
1, 446906, Note_off_c, 12, 71, 127
1, 446906, Note_off_c, 7, 43, 127
1, 446908, Note_on_c, 10, 45, 127
1, 446908, Note_on_c, 10, 69, 127
1, 447038, Note_off_c, 7, 79, 127
1, 447040, Note_off_c, 10, 69, 127
1, 447040, Note_off_c, 10, 45, 127
1, 447042, Note_on_c, 12, 47, 127
1, 447042, Note_on_c, 7, 67, 127
1, 447174, Note_off_c, 7, 67, 127
1, 447174, Note_off_c, 12, 47, 127
1, 447176, Note_on_c, 0, 48, 127
1, 447176, Note_on_c, 10, 69, 127
1, 447308, Note_off_c, 10, 69, 127
1, 447308, Note_off_c, 0, 48, 127
1, 447310, Note_on_c, 2, 50, 127
1, 447310, Note_on_c, 12, 71, 127
1, 447442, Note_off_c, 12, 71, 127
1, 447442, Note_off_c, 2, 50, 127
1, 447444, Note_on_c, 4, 52, 127
1, 447444, Note_on_c, 0, 72, 127
1, 447576, Note_off_c, 0, 72, 127
1, 447576, Note_off_c, 4, 52, 127
1, 447578, Note_on_c, 5, 53, 127
1, 447578, Note_on_c, 2, 74, 127
1, 447710, Note_off_c, 2, 74, 127
1, 447710, Note_off_c, 5, 53, 127
1, 447712, Note_on_c, 7, 55, 127
1, 447712, Note_on_c, 4, 76, 127
1, 447844, Note_off_c, 4, 76, 127
1, 447844, Note_off_c, 7, 55, 127
1, 447846, Note_on_c, 10, 57, 127
1, 447846, Note_on_c, 5, 77, 127
1, 447978, Note_off_c, 5, 77, 127
1, 447978, Note_off_c, 10, 57, 127
1, 447980, Note_on_c, 12, 59, 127
1, 447980, Note_on_c, 2, 74, 127
1, 448112, Note_off_c, 2, 74, 127
1, 448112, Note_off_c, 12, 59, 127
1, 448114, Note_on_c, 0, 60, 127
1, 448114, Note_on_c, 4, 76, 127
1, 448379, Note_off_c, 0, 60, 127
1, 448380, Note_off_c, 4, 76, 127
1, 448390, Note_on_c, 0, 60, 127
1, 448658, Note_on_c, 12, 59, 127
1, 448924, Note_off_c, 0, 60, 127
1, 448926, Note_on_c, 2, 62, 127
1, 449058, Note_off_c, 2, 62, 127
1, 449060, Note_on_c, 4, 64, 127
1, 449192, Note_off_c, 4, 64, 127
1, 449193, Note_off_c, 12, 59, 127
1, 449194, Note_on_c, 10, 57, 127
1, 449194, Note_on_c, 5, 65, 127
1, 449326, Note_off_c, 5, 65, 127
1, 449328, Note_on_c, 7, 67, 127
1, 449460, Note_off_c, 7, 67, 127
1, 449462, Note_on_c, 5, 65, 127
1, 449462, Note_on_c, 10, 69, 127
1, 449594, Note_off_c, 10, 69, 127
1, 449596, Note_on_c, 12, 71, 127
1, 449724, Note_off_c, 10, 57, 127
1, 449727, Note_off_c, 12, 71, 127
1, 449727, Note_off_c, 5, 65, 127
1, 449729, Note_on_c, 7, 55, 127
1, 449729, Note_on_c, 4, 64, 127
1, 449729, Note_on_c, 0, 72, 127
1, 449861, Note_off_c, 0, 72, 127
1, 449863, Note_on_c, 2, 74, 127
1, 449995, Note_off_c, 2, 74, 127
1, 449995, Note_off_c, 4, 64, 127
1, 449995, Note_off_c, 7, 55, 127
1, 449997, Note_on_c, 5, 53, 127
1, 449997, Note_on_c, 2, 62, 127
1, 449997, Note_on_c, 4, 76, 127
1, 450129, Note_off_c, 4, 76, 127
1, 450131, Note_on_c, 5, 77, 127
1, 450263, Note_off_c, 5, 77, 127
1, 450263, Note_off_c, 2, 62, 127
1, 450263, Note_off_c, 5, 53, 127
1, 450265, Note_on_c, 0, 60, 127
1, 450265, Note_on_c, 4, 52, 127
1, 450265, Note_on_c, 7, 79, 127
1, 450385, Note_off_c, 4, 52, 127
1, 450397, Note_off_c, 0, 60, 127
1, 450399, Note_on_c, 0, 36, 127
1, 450531, Note_off_c, 0, 36, 127
1, 450531, Note_off_c, 7, 79, 127
1, 450533, Note_on_c, 2, 38, 127
1, 450533, Note_on_c, 0, 72, 127
1, 450533, Note_on_c, 4, 76, 127
1, 450533, Note_on_c, 7, 79, 127
1, 450665, Note_off_c, 2, 38, 127
1, 450667, Note_on_c, 4, 40, 127
1, 450799, Note_off_c, 4, 40, 127
1, 450799, Note_off_c, 7, 79, 127
1, 450799, Note_off_c, 4, 76, 127
1, 450799, Note_off_c, 0, 72, 127
1, 450801, Note_on_c, 5, 41, 127
1, 450801, Note_on_c, 12, 71, 127
1, 450801, Note_on_c, 2, 74, 127
1, 450801, Note_on_c, 7, 79, 127
1, 450933, Note_off_c, 5, 41, 127
1, 450935, Note_on_c, 7, 43, 127
1, 451067, Note_off_c, 7, 43, 127
1, 451067, Note_off_c, 7, 79, 127
1, 451067, Note_off_c, 2, 74, 127
1, 451067, Note_off_c, 12, 71, 127
1, 451069, Note_on_c, 10, 45, 127
1, 451069, Note_on_c, 7, 67, 127
1, 451069, Note_on_c, 2, 74, 127
1, 451069, Note_on_c, 5, 77, 127
1, 451201, Note_off_c, 10, 45, 127
1, 451203, Note_on_c, 12, 47, 127
1, 451335, Note_off_c, 12, 47, 127
1, 451335, Note_off_c, 5, 77, 127
1, 451335, Note_off_c, 2, 74, 127
1, 451335, Note_off_c, 7, 67, 127
1, 451337, Note_on_c, 0, 48, 127
1, 451337, Note_on_c, 0, 72, 127
1, 451337, Note_on_c, 7, 67, 127
1, 451337, Note_on_c, 4, 76, 127
1, 451469, Note_off_c, 0, 48, 127
1, 451471, Note_on_c, 2, 50, 127
1, 451603, Note_off_c, 2, 50, 127
1, 451605, Note_on_c, 4, 52, 127
1, 451737, Note_off_c, 4, 52, 127
1, 451739, Note_on_c, 5, 53, 127
1, 451871, Note_off_c, 5, 53, 127
1, 451871, Note_off_c, 4, 76, 127
1, 451871, Note_off_c, 7, 67, 127
1, 451871, Note_off_c, 0, 72, 127
1, 451873, Note_on_c, 7, 55, 127
1, 451873, Note_on_c, 7, 67, 127
1, 451873, Note_on_c, 12, 71, 127
1, 451873, Note_on_c, 2, 74, 127
1, 452005, Note_off_c, 7, 55, 127
1, 452007, Note_on_c, 10, 57, 127
1, 452139, Note_off_c, 10, 57, 127
1, 452141, Note_on_c, 12, 59, 127
1, 452273, Note_off_c, 12, 59, 127
1, 452275, Note_on_c, 7, 55, 127
1, 452407, Note_off_c, 7, 55, 127
1, 452407, Note_off_c, 2, 74, 127
1, 452407, Note_off_c, 12, 71, 127
1, 452407, Note_off_c, 7, 67, 127
1, 452409, Note_on_c, 10, 57, 127
1, 452409, Note_on_c, 5, 77, 127
1, 452543, Note_on_c, 0, 72, 127
1, 452675, Note_off_c, 0, 72, 127
1, 452677, Note_on_c, 10, 45, 127
1, 452677, Note_on_c, 12, 71, 127
1, 452809, Note_off_c, 12, 71, 127
1, 452811, Note_on_c, 0, 72, 127
1, 452939, Note_off_c, 5, 77, 127
1, 452939, Note_off_c, 10, 57, 127
1, 452942, Note_off_c, 0, 72, 127
1, 452942, Note_off_c, 10, 45, 127
1, 452944, Note_on_c, 10, 57, 127
1, 452944, Note_on_c, 5, 77, 127
1, 453078, Note_on_c, 0, 72, 127
1, 453209, Note_off_c, 5, 77, 127
1, 453210, Note_off_c, 10, 57, 127
1, 453212, Note_on_c, 7, 55, 127
1, 453212, Note_on_c, 4, 76, 127
1, 453343, Note_off_c, 0, 72, 127
1, 453346, Note_on_c, 0, 72, 127
1, 453477, Note_off_c, 4, 76, 127
1, 453478, Note_off_c, 0, 72, 127
1, 453478, Note_off_c, 7, 55, 127
1, 453480, Note_on_c, 5, 53, 127
1, 453480, Note_on_c, 2, 74, 127
1, 453614, Note_on_c, 0, 72, 127
1, 453746, Note_off_c, 0, 72, 127
1, 453748, Note_on_c, 5, 41, 127
1, 453748, Note_on_c, 12, 71, 127
1, 453880, Note_off_c, 12, 71, 127
1, 453882, Note_on_c, 0, 72, 127
1, 454010, Note_off_c, 2, 74, 127
1, 454010, Note_off_c, 5, 53, 127
1, 454013, Note_off_c, 0, 72, 127
1, 454013, Note_off_c, 5, 41, 127
1, 454015, Note_on_c, 5, 53, 127
1, 454015, Note_on_c, 2, 74, 127
1, 454149, Note_on_c, 0, 72, 127
1, 454280, Note_off_c, 2, 74, 127
1, 454281, Note_off_c, 5, 53, 127
1, 454283, Note_on_c, 7, 55, 127
1, 454283, Note_on_c, 4, 76, 127
1, 454414, Note_off_c, 0, 72, 127
1, 454417, Note_on_c, 0, 72, 127
1, 454548, Note_off_c, 4, 76, 127
1, 454549, Note_off_c, 0, 72, 127
1, 454549, Note_off_c, 7, 55, 127
1, 454551, Note_on_c, 10, 57, 127
1, 454551, Note_on_c, 5, 77, 127
1, 454685, Note_on_c, 0, 72, 127
1, 454817, Note_off_c, 0, 72, 127
1, 454817, Note_off_c, 10, 57, 127
1, 454819, Note_on_c, 10, 45, 127
1, 454819, Note_on_c, 12, 71, 127
1, 454951, Note_off_c, 12, 71, 127
1, 454953, Note_on_c, 0, 72, 127
1, 455081, Note_off_c, 5, 77, 127
1, 455084, Note_off_c, 0, 72, 127
1, 455084, Note_off_c, 10, 45, 127
1, 455086, Note_on_c, 10, 57, 127
1, 455086, Note_on_c, 5, 77, 127
1, 455220, Note_on_c, 0, 72, 127
1, 455351, Note_off_c, 5, 77, 127
1, 455352, Note_off_c, 10, 57, 127
1, 455354, Note_on_c, 7, 55, 127
1, 455354, Note_on_c, 4, 76, 127
1, 455485, Note_off_c, 0, 72, 127
1, 455488, Note_on_c, 0, 72, 127
1, 455619, Note_off_c, 4, 76, 127
1, 455620, Note_off_c, 0, 72, 127
1, 455620, Note_off_c, 7, 55, 127
1, 455622, Note_on_c, 5, 53, 127
1, 455622, Note_on_c, 2, 74, 127
1, 455756, Note_on_c, 0, 72, 127
1, 455888, Note_off_c, 0, 72, 127
1, 455888, Note_off_c, 5, 53, 127
1, 455890, Note_on_c, 5, 41, 127
1, 455890, Note_on_c, 12, 71, 127
1, 456022, Note_off_c, 12, 71, 127
1, 456024, Note_on_c, 0, 72, 127
1, 456152, Note_off_c, 2, 74, 127
1, 456155, Note_off_c, 0, 72, 127
1, 456155, Note_off_c, 5, 41, 127
1, 456157, Note_on_c, 5, 53, 127
1, 456157, Note_on_c, 2, 74, 127
1, 456291, Note_on_c, 0, 72, 127
1, 456422, Note_off_c, 2, 74, 127
1, 456423, Note_off_c, 5, 53, 127
1, 456425, Note_on_c, 7, 55, 127
1, 456425, Note_on_c, 4, 76, 127
1, 456556, Note_off_c, 0, 72, 127
1, 456559, Note_on_c, 0, 72, 127
1, 456690, Note_off_c, 4, 76, 127
1, 456691, Note_off_c, 0, 72, 127
1, 456691, Note_off_c, 7, 55, 127
1, 456693, Note_on_c, 10, 57, 127
1, 456693, Note_on_c, 5, 77, 127
1, 456827, Note_on_c, 0, 72, 127
1, 456958, Note_off_c, 5, 77, 127
1, 456959, Note_off_c, 10, 57, 127
1, 456961, Note_on_c, 7, 55, 127
1, 456961, Note_on_c, 4, 76, 127
1, 457092, Note_off_c, 0, 72, 127
1, 457095, Note_on_c, 0, 72, 127
1, 457226, Note_off_c, 4, 76, 127
1, 457227, Note_off_c, 0, 72, 127
1, 457227, Note_off_c, 7, 55, 127
1, 457229, Note_on_c, 5, 53, 127
1, 457229, Note_on_c, 2, 74, 127
1, 457363, Note_on_c, 0, 72, 127
1, 457495, Note_off_c, 0, 72, 127
1, 457495, Note_off_c, 5, 53, 127
1, 457497, Note_on_c, 2, 50, 127
1, 457497, Note_on_c, 12, 71, 127
1, 457629, Note_off_c, 12, 71, 127
1, 457631, Note_on_c, 10, 69, 127
1, 457759, Note_off_c, 2, 74, 127
1, 457762, Note_off_c, 10, 69, 127
1, 457762, Note_off_c, 2, 50, 127
1, 457764, Note_on_c, 12, 47, 127
1, 457764, Note_on_c, 7, 67, 127
1, 457898, Note_on_c, 2, 74, 127
1, 458029, Note_off_c, 7, 67, 127
1, 458030, Note_off_c, 12, 47, 127
1, 458032, Note_on_c, 7, 43, 127
1, 458032, Note_on_c, 5, 65, 127
1, 458163, Note_off_c, 2, 74, 127
1, 458166, Note_on_c, 2, 74, 127
1, 458297, Note_off_c, 5, 65, 127
1, 458298, Note_off_c, 2, 74, 127
1, 458298, Note_off_c, 7, 43, 127
1, 458300, Note_on_c, 0, 48, 127
1, 458300, Note_on_c, 4, 64, 127
1, 458432, Note_off_c, 0, 48, 127
1, 458434, Note_on_c, 2, 50, 127
1, 458434, Note_on_c, 2, 74, 127
1, 458566, Note_off_c, 2, 74, 127
1, 458566, Note_off_c, 2, 50, 127
1, 458568, Note_on_c, 4, 52, 127
1, 458568, Note_on_c, 0, 72, 127
1, 458700, Note_off_c, 0, 72, 127
1, 458700, Note_off_c, 4, 52, 127
1, 458702, Note_on_c, 5, 53, 127
1, 458702, Note_on_c, 12, 71, 127
1, 458834, Note_off_c, 12, 71, 127
1, 458834, Note_off_c, 5, 53, 127
1, 458836, Note_on_c, 7, 55, 127
1, 458836, Note_on_c, 0, 72, 127
1, 458968, Note_off_c, 7, 55, 127
1, 458970, Note_on_c, 5, 53, 127
1, 459102, Note_off_c, 5, 53, 127
1, 459102, Note_off_c, 0, 72, 127
1, 459103, Note_off_c, 4, 64, 127
1, 459104, Note_on_c, 4, 52, 127
1, 459104, Note_on_c, 0, 72, 127
1, 459104, Note_on_c, 7, 67, 127
1, 459104, Note_on_c, 7, 79, 127
1, 459236, Note_off_c, 4, 52, 127
1, 459238, Note_on_c, 5, 53, 127
1, 459370, Note_off_c, 5, 53, 127
1, 459370, Note_off_c, 7, 79, 127
1, 459370, Note_off_c, 7, 67, 127
1, 459370, Note_off_c, 0, 72, 127
1, 459372, Note_on_c, 7, 55, 127
1, 459372, Note_on_c, 7, 67, 127
1, 459372, Note_on_c, 0, 72, 127
1, 459372, Note_on_c, 4, 76, 127
1, 459638, Note_off_c, 4, 76, 127
1, 459638, Note_off_c, 0, 72, 127
1, 459638, Note_off_c, 7, 67, 127
1, 459638, Note_off_c, 7, 55, 127
1, 459640, Note_on_c, 7, 43, 127
1, 459640, Note_on_c, 5, 65, 127
1, 459640, Note_on_c, 2, 74, 127
1, 459640, Note_on_c, 12, 71, 127
1, 459772, Note_off_c, 12, 71, 127
1, 459772, Note_off_c, 2, 74, 127
1, 459774, Note_on_c, 0, 72, 127
1, 459905, Note_off_c, 5, 65, 127
1, 459906, Note_off_c, 0, 72, 127
1, 459906, Note_off_c, 7, 43, 127
1, 459908, Note_on_c, 0, 36, 127
1, 459908, Note_on_c, 7, 67, 127
1, 459908, Note_on_c, 4, 64, 127
1, 459908, Note_on_c, 0, 72, 127
1, 460040, Note_off_c, 0, 36, 127
1, 460042, Note_on_c, 0, 48, 127
1, 460174, Note_off_c, 0, 48, 127
1, 460176, Note_on_c, 2, 50, 127
1, 460308, Note_off_c, 2, 50, 127
1, 460310, Note_on_c, 4, 52, 127
1, 460442, Note_off_c, 4, 52, 127
1, 460444, Note_on_c, 5, 53, 127
1, 460576, Note_off_c, 5, 53, 127
1, 460578, Note_on_c, 7, 55, 127
1, 460710, Note_off_c, 7, 55, 127
1, 460711, Note_off_c, 0, 72, 127
1, 460711, Note_off_c, 4, 64, 127
1, 460711, Note_off_c, 7, 67, 127
1, 460712, Note_on_c, 10, 57, 127
1, 460844, Note_off_c, 10, 57, 127
1, 460846, Note_on_c, 12, 59, 127
1, 460978, Note_off_c, 12, 59, 127
1, 460988, Note_on_c, 0, 60, 127
1, 460988, Note_on_c, 7, 67, 127
1, 461120, Note_off_c, 7, 67, 127
1, 461122, Note_on_c, 4, 64, 127
1, 461254, Note_off_c, 4, 64, 127
1, 461254, Note_off_c, 0, 60, 127
1, 461256, Note_on_c, 7, 55, 127
1, 461256, Note_on_c, 0, 60, 127
1, 461388, Note_off_c, 0, 60, 127
1, 461390, Note_on_c, 4, 64, 127
1, 461522, Note_off_c, 4, 64, 127
1, 461522, Note_off_c, 7, 55, 127
1, 461524, Note_on_c, 4, 52, 127
1, 461524, Note_on_c, 7, 67, 127
1, 461656, Note_off_c, 7, 67, 127
1, 461658, Note_on_c, 4, 64, 127
1, 461790, Note_off_c, 4, 64, 127
1, 461790, Note_off_c, 4, 52, 127
1, 461792, Note_on_c, 0, 48, 127
1, 461792, Note_on_c, 11, 70, 127
1, 461924, Note_off_c, 11, 70, 127
1, 461926, Note_on_c, 4, 64, 127
1, 462058, Note_off_c, 4, 64, 127
1, 462058, Note_off_c, 0, 48, 127
1, 462060, Note_on_c, 0, 60, 127
1, 462060, Note_on_c, 10, 69, 127
1, 462192, Note_off_c, 10, 69, 127
1, 462194, Note_on_c, 5, 65, 127
1, 462326, Note_off_c, 5, 65, 127
1, 462326, Note_off_c, 0, 60, 127
1, 462328, Note_on_c, 10, 57, 127
1, 462328, Note_on_c, 0, 60, 127
1, 462460, Note_off_c, 0, 60, 127
1, 462462, Note_on_c, 5, 65, 127
1, 462594, Note_off_c, 5, 65, 127
1, 462594, Note_off_c, 10, 57, 127
1, 462596, Note_on_c, 5, 53, 127
1, 462596, Note_on_c, 10, 69, 127
1, 462728, Note_off_c, 10, 69, 127
1, 462730, Note_on_c, 5, 65, 127
1, 462862, Note_off_c, 5, 65, 127
1, 462862, Note_off_c, 5, 53, 127
1, 462864, Note_on_c, 0, 48, 127
1, 462864, Note_on_c, 0, 72, 127
1, 462996, Note_off_c, 0, 72, 127
1, 462998, Note_on_c, 5, 65, 127
1, 463130, Note_off_c, 5, 65, 127
1, 463130, Note_off_c, 0, 48, 127
1, 463132, Note_on_c, 0, 60, 127
1, 463132, Note_on_c, 7, 67, 127
1, 463264, Note_off_c, 7, 67, 127
1, 463266, Note_on_c, 4, 64, 127
1, 463398, Note_off_c, 4, 64, 127
1, 463398, Note_off_c, 0, 60, 127
1, 463400, Note_on_c, 7, 55, 127
1, 463400, Note_on_c, 0, 60, 127
1, 463532, Note_off_c, 0, 60, 127
1, 463534, Note_on_c, 4, 64, 127
1, 463666, Note_off_c, 4, 64, 127
1, 463666, Note_off_c, 7, 55, 127
1, 463668, Note_on_c, 4, 52, 127
1, 463668, Note_on_c, 7, 67, 127
1, 463800, Note_off_c, 7, 67, 127
1, 463802, Note_on_c, 4, 64, 127
1, 463934, Note_off_c, 4, 64, 127
1, 463934, Note_off_c, 4, 52, 127
1, 463936, Note_on_c, 0, 48, 127
1, 463936, Note_on_c, 11, 70, 127
1, 464068, Note_off_c, 11, 70, 127
1, 464070, Note_on_c, 4, 64, 127
1, 464202, Note_off_c, 4, 64, 127
1, 464202, Note_off_c, 0, 48, 127
1, 464204, Note_on_c, 5, 53, 127
1, 464204, Note_on_c, 10, 69, 127
1, 464336, Note_off_c, 10, 69, 127
1, 464336, Note_off_c, 5, 53, 127
1, 464338, Note_on_c, 0, 48, 127
1, 464338, Note_on_c, 5, 65, 127
1, 464470, Note_off_c, 5, 65, 127
1, 464470, Note_off_c, 0, 48, 127
1, 464472, Note_on_c, 10, 45, 127
1, 464472, Note_on_c, 0, 60, 127
1, 464604, Note_off_c, 0, 60, 127
1, 464604, Note_off_c, 10, 45, 127
1, 464606, Note_on_c, 0, 48, 127
1, 464606, Note_on_c, 5, 65, 127
1, 464738, Note_off_c, 5, 65, 127
1, 464738, Note_off_c, 0, 48, 127
1, 464740, Note_on_c, 5, 41, 127
1, 464740, Note_on_c, 10, 69, 127
1, 464872, Note_off_c, 10, 69, 127
1, 464874, Note_on_c, 5, 65, 127
1, 465006, Note_off_c, 5, 65, 127
1, 465008, Note_on_c, 11, 70, 127
1, 465140, Note_off_c, 11, 70, 127
1, 465142, Note_on_c, 5, 65, 127
1, 465274, Note_off_c, 5, 65, 127
1, 465274, Note_off_c, 5, 41, 127
1, 465276, Note_on_c, 5, 53, 127
1, 465276, Note_on_c, 0, 72, 127
1, 465410, Note_on_c, 10, 69, 127
1, 465541, Note_off_c, 0, 72, 127
1, 465542, Note_off_c, 10, 69, 127
1, 465542, Note_off_c, 5, 53, 127
1, 465544, Note_on_c, 0, 48, 127
1, 465544, Note_on_c, 5, 65, 127
1, 465676, Note_off_c, 5, 65, 127
1, 465678, Note_on_c, 10, 69, 127
1, 465810, Note_off_c, 10, 69, 127
1, 465810, Note_off_c, 0, 48, 127
1, 465812, Note_on_c, 10, 45, 127
1, 465812, Note_on_c, 0, 72, 127
1, 465944, Note_off_c, 0, 72, 127
1, 465946, Note_on_c, 10, 69, 127
1, 466078, Note_off_c, 10, 69, 127
1, 466078, Note_off_c, 10, 45, 127
1, 466080, Note_on_c, 5, 41, 127
1, 466080, Note_on_c, 3, 75, 127
1, 466212, Note_off_c, 3, 75, 127
1, 466214, Note_on_c, 10, 69, 127
1, 466346, Note_off_c, 10, 69, 127
1, 466346, Note_off_c, 5, 41, 127
1, 466348, Note_on_c, 5, 53, 127
1, 466348, Note_on_c, 2, 74, 127
1, 466482, Note_on_c, 11, 70, 127
1, 466613, Note_off_c, 2, 74, 127
1, 466614, Note_off_c, 11, 70, 127
1, 466614, Note_off_c, 5, 53, 127
1, 466616, Note_on_c, 2, 50, 127
1, 466616, Note_on_c, 5, 65, 127
1, 466748, Note_off_c, 5, 65, 127
1, 466750, Note_on_c, 11, 70, 127
1, 466882, Note_off_c, 11, 70, 127
1, 466882, Note_off_c, 2, 50, 127
1, 466884, Note_on_c, 11, 46, 127
1, 466884, Note_on_c, 2, 74, 127
1, 467016, Note_off_c, 2, 74, 127
1, 467018, Note_on_c, 11, 70, 127
1, 467150, Note_off_c, 11, 70, 127
1, 467150, Note_off_c, 11, 46, 127
1, 467152, Note_on_c, 5, 41, 127
1, 467152, Note_on_c, 5, 77, 127
1, 467284, Note_off_c, 5, 77, 127
1, 467286, Note_on_c, 11, 70, 127
1, 467418, Note_off_c, 11, 70, 127
1, 467418, Note_off_c, 5, 41, 127
1, 467420, Note_on_c, 5, 53, 127
1, 467420, Note_on_c, 0, 72, 127
1, 467554, Note_on_c, 10, 69, 127
1, 467685, Note_off_c, 0, 72, 127
1, 467686, Note_off_c, 10, 69, 127
1, 467686, Note_off_c, 5, 53, 127
1, 467688, Note_on_c, 0, 48, 127
1, 467688, Note_on_c, 5, 65, 127
1, 467820, Note_off_c, 5, 65, 127
1, 467822, Note_on_c, 10, 69, 127
1, 467954, Note_off_c, 10, 69, 127
1, 467954, Note_off_c, 0, 48, 127
1, 467956, Note_on_c, 10, 45, 127
1, 467956, Note_on_c, 0, 72, 127
1, 468088, Note_off_c, 0, 72, 127
1, 468090, Note_on_c, 10, 69, 127
1, 468222, Note_off_c, 10, 69, 127
1, 468222, Note_off_c, 10, 45, 127
1, 468224, Note_on_c, 5, 41, 127
1, 468224, Note_on_c, 3, 75, 127
1, 468356, Note_off_c, 3, 75, 127
1, 468358, Note_on_c, 10, 69, 127
1, 468490, Note_off_c, 10, 69, 127
1, 468490, Note_off_c, 5, 41, 127
1, 468492, Note_on_c, 11, 46, 127
1, 468492, Note_on_c, 2, 74, 127
1, 468624, Note_off_c, 2, 74, 127
1, 468624, Note_off_c, 11, 46, 127
1, 468626, Note_on_c, 5, 41, 127
1, 468626, Note_on_c, 11, 70, 127
1, 468758, Note_off_c, 11, 70, 127
1, 468758, Note_off_c, 5, 41, 127
1, 468760, Note_on_c, 2, 38, 127
1, 468760, Note_on_c, 5, 65, 127
1, 468892, Note_off_c, 5, 65, 127
1, 468892, Note_off_c, 2, 38, 127
1, 468894, Note_on_c, 5, 41, 127
1, 468894, Note_on_c, 11, 70, 127
1, 469026, Note_off_c, 11, 70, 127
1, 469026, Note_off_c, 5, 41, 127
1, 469028, Note_on_c, 11, 34, 127
1, 469028, Note_on_c, 2, 74, 127
1, 469162, Note_on_c, 11, 70, 127
1, 469178, Note_off_c, 2, 74, 127
1, 469294, Note_off_c, 11, 70, 127
1, 469296, Note_on_c, 5, 77, 127
1, 469429, Note_off_c, 11, 34, 127
1, 469430, Note_on_c, 11, 70, 127
1, 469446, Note_off_c, 5, 77, 127
1, 469562, Note_off_c, 11, 70, 127
1, 469564, Note_on_c, 4, 52, 127
1, 469564, Note_on_c, 7, 79, 127
1, 469698, Note_on_c, 1, 73, 127
1, 469744, Note_off_c, 7, 79, 127
1, 469830, Note_off_c, 1, 73, 127
1, 469830, Note_off_c, 4, 52, 127
1, 469832, Note_on_c, 7, 55, 127
1, 469832, Note_on_c, 11, 70, 127
1, 469964, Note_off_c, 11, 70, 127
1, 469964, Note_off_c, 7, 55, 127
1, 469966, Note_on_c, 5, 53, 127
1, 469966, Note_on_c, 1, 73, 127
1, 470098, Note_off_c, 1, 73, 127
1, 470098, Note_off_c, 5, 53, 127
1, 470100, Note_on_c, 4, 52, 127
1, 470100, Note_on_c, 7, 79, 127
1, 470232, Note_off_c, 7, 79, 127
1, 470234, Note_on_c, 1, 73, 127
1, 470366, Note_off_c, 1, 73, 127
1, 470366, Note_off_c, 4, 52, 127
1, 470368, Note_on_c, 2, 50, 127
1, 470368, Note_on_c, 7, 79, 127
1, 470500, Note_off_c, 7, 79, 127
1, 470502, Note_on_c, 2, 74, 127
1, 470634, Note_off_c, 2, 74, 127
1, 470634, Note_off_c, 2, 50, 127
1, 470636, Note_on_c, 1, 49, 127
1, 470636, Note_on_c, 7, 79, 127
1, 470768, Note_off_c, 1, 49, 127
1, 470770, Note_on_c, 2, 50, 127
1, 470770, Note_on_c, 4, 76, 127
1, 470786, Note_off_c, 7, 79, 127
1, 470902, Note_off_c, 4, 76, 127
1, 470902, Note_off_c, 2, 50, 127
1, 470904, Note_on_c, 1, 49, 127
1, 470904, Note_on_c, 10, 69, 127
1, 471036, Note_off_c, 10, 69, 127
1, 471036, Note_off_c, 1, 49, 127
1, 471038, Note_on_c, 12, 47, 127
1, 471038, Note_on_c, 4, 76, 127
1, 471170, Note_off_c, 4, 76, 127
1, 471170, Note_off_c, 12, 47, 127
1, 471172, Note_on_c, 10, 45, 127
1, 471172, Note_on_c, 7, 79, 127
1, 471304, Note_off_c, 7, 79, 127
1, 471304, Note_off_c, 10, 45, 127
1, 471306, Note_on_c, 12, 47, 127
1, 471306, Note_on_c, 4, 76, 127
1, 471438, Note_off_c, 4, 76, 127
1, 471438, Note_off_c, 12, 47, 127
1, 471440, Note_on_c, 1, 49, 127
1, 471440, Note_on_c, 7, 79, 127
1, 471572, Note_off_c, 7, 79, 127
1, 471572, Note_off_c, 1, 49, 127
1, 471574, Note_on_c, 2, 50, 127
1, 471574, Note_on_c, 2, 74, 127
1, 471706, Note_off_c, 2, 74, 127
1, 471706, Note_off_c, 2, 50, 127
1, 471708, Note_on_c, 4, 52, 127
1, 471708, Note_on_c, 7, 79, 127
1, 471842, Note_on_c, 1, 73, 127
1, 471858, Note_off_c, 7, 79, 127
1, 471974, Note_off_c, 1, 73, 127
1, 471974, Note_off_c, 4, 52, 127
1, 471976, Note_on_c, 7, 55, 127
1, 471976, Note_on_c, 11, 70, 127
1, 472108, Note_off_c, 11, 70, 127
1, 472108, Note_off_c, 7, 55, 127
1, 472110, Note_on_c, 5, 53, 127
1, 472110, Note_on_c, 1, 73, 127
1, 472242, Note_off_c, 1, 73, 127
1, 472242, Note_off_c, 5, 53, 127
1, 472244, Note_on_c, 4, 52, 127
1, 472244, Note_on_c, 7, 79, 127
1, 472376, Note_off_c, 7, 79, 127
1, 472378, Note_on_c, 1, 73, 127
1, 472510, Note_off_c, 1, 73, 127
1, 472510, Note_off_c, 4, 52, 127
1, 472512, Note_on_c, 2, 50, 127
1, 472512, Note_on_c, 7, 79, 127
1, 472644, Note_off_c, 7, 79, 127
1, 472646, Note_on_c, 2, 74, 127
1, 472778, Note_off_c, 2, 74, 127
1, 472778, Note_off_c, 2, 50, 127
1, 472780, Note_on_c, 1, 49, 127
1, 472780, Note_on_c, 7, 79, 127
1, 472912, Note_off_c, 1, 49, 127
1, 472914, Note_on_c, 2, 50, 127
1, 472914, Note_on_c, 4, 76, 127
1, 472930, Note_off_c, 7, 79, 127
1, 473046, Note_off_c, 4, 76, 127
1, 473046, Note_off_c, 2, 50, 127
1, 473048, Note_on_c, 1, 49, 127
1, 473048, Note_on_c, 10, 69, 127
1, 473180, Note_off_c, 10, 69, 127
1, 473180, Note_off_c, 1, 49, 127
1, 473182, Note_on_c, 12, 47, 127
1, 473182, Note_on_c, 4, 76, 127
1, 473314, Note_off_c, 4, 76, 127
1, 473314, Note_off_c, 12, 47, 127
1, 473316, Note_on_c, 10, 45, 127
1, 473316, Note_on_c, 7, 79, 127
1, 473448, Note_off_c, 7, 79, 127
1, 473448, Note_off_c, 10, 45, 127
1, 473450, Note_on_c, 12, 47, 127
1, 473450, Note_on_c, 4, 76, 127
1, 473582, Note_off_c, 4, 76, 127
1, 473582, Note_off_c, 12, 47, 127
1, 473584, Note_on_c, 1, 49, 127
1, 473584, Note_on_c, 7, 79, 127
1, 473716, Note_off_c, 7, 79, 127
1, 473716, Note_off_c, 1, 49, 127
1, 473718, Note_on_c, 2, 50, 127
1, 473718, Note_on_c, 2, 74, 127
1, 473850, Note_off_c, 2, 74, 127
1, 473850, Note_off_c, 2, 50, 127
1, 473852, Note_on_c, 4, 52, 127
1, 473852, Note_on_c, 7, 79, 127
1, 473984, Note_off_c, 7, 79, 127
1, 473984, Note_off_c, 4, 52, 127
1, 473986, Note_on_c, 5, 53, 127
1, 473986, Note_on_c, 1, 73, 127
1, 474118, Note_off_c, 1, 73, 127
1, 474118, Note_off_c, 5, 53, 127
1, 474120, Note_on_c, 7, 55, 127
1, 474120, Note_on_c, 11, 70, 127
1, 474252, Note_off_c, 11, 70, 127
1, 474252, Note_off_c, 7, 55, 127
1, 474254, Note_on_c, 10, 57, 127
1, 474254, Note_on_c, 1, 73, 127
1, 474386, Note_off_c, 1, 73, 127
1, 474386, Note_off_c, 10, 57, 127
1, 474388, Note_on_c, 11, 58, 127
1, 474388, Note_on_c, 7, 79, 127
1, 474520, Note_off_c, 7, 79, 127
1, 474522, Note_on_c, 1, 73, 127
1, 474654, Note_off_c, 1, 73, 127
1, 474654, Note_off_c, 11, 58, 127
1, 474656, Note_on_c, 2, 50, 127
1, 474656, Note_on_c, 7, 79, 127
1, 474788, Note_off_c, 7, 79, 127
1, 474790, Note_on_c, 2, 74, 127
1, 474922, Note_off_c, 2, 74, 127
1, 474922, Note_off_c, 2, 50, 127
1, 474924, Note_on_c, 1, 49, 127
1, 474924, Note_on_c, 7, 79, 127
1, 475056, Note_off_c, 7, 79, 127
1, 475056, Note_off_c, 1, 49, 127
1, 475058, Note_on_c, 10, 45, 127
1, 475058, Note_on_c, 5, 77, 127
1, 475190, Note_off_c, 5, 77, 127
1, 475190, Note_off_c, 10, 45, 127
1, 475192, Note_on_c, 12, 47, 127
1, 475192, Note_on_c, 7, 79, 127
1, 475324, Note_off_c, 7, 79, 127
1, 475324, Note_off_c, 12, 47, 127
1, 475326, Note_on_c, 1, 49, 127
1, 475326, Note_on_c, 4, 76, 127
1, 475458, Note_off_c, 4, 76, 127
1, 475458, Note_off_c, 1, 49, 127
1, 475460, Note_on_c, 2, 50, 127
1, 475460, Note_on_c, 5, 77, 127
1, 475592, Note_off_c, 5, 77, 127
1, 475592, Note_off_c, 2, 50, 127
1, 475594, Note_on_c, 4, 52, 127
1, 475594, Note_on_c, 4, 76, 127
1, 475726, Note_off_c, 4, 76, 127
1, 475726, Note_off_c, 4, 52, 127
1, 475728, Note_on_c, 5, 53, 127
1, 475728, Note_on_c, 2, 74, 127
1, 475860, Note_off_c, 2, 74, 127
1, 475860, Note_off_c, 5, 53, 127
1, 475862, Note_on_c, 7, 55, 127
1, 475862, Note_on_c, 4, 76, 127
1, 475994, Note_off_c, 4, 76, 127
1, 475994, Note_off_c, 7, 55, 127
1, 475996, Note_on_c, 10, 57, 127
1, 475996, Note_on_c, 5, 77, 127
1, 476128, Note_off_c, 5, 77, 127
1, 476128, Note_off_c, 10, 57, 127
1, 476130, Note_on_c, 7, 55, 127
1, 476130, Note_on_c, 7, 79, 127
1, 476262, Note_off_c, 7, 79, 127
1, 476262, Note_off_c, 7, 55, 127
1, 476264, Note_on_c, 5, 53, 127
1, 476264, Note_on_c, 10, 81, 127
1, 476396, Note_off_c, 5, 53, 127
1, 476398, Note_on_c, 7, 55, 127
1, 476530, Note_off_c, 7, 55, 127
1, 476530, Note_off_c, 10, 81, 127
1, 476532, Note_on_c, 10, 57, 127
1, 476532, Note_on_c, 10, 69, 127
1, 476762, Note_off_c, 10, 69, 127
1, 476798, Note_off_c, 10, 57, 127
1, 476800, Note_on_c, 10, 45, 127
1, 476800, Note_on_c, 1, 73, 127
1, 477030, Note_off_c, 1, 73, 127
1, 477066, Note_off_c, 10, 45, 127
1, 477068, Note_on_c, 2, 38, 127
1, 477068, Note_on_c, 2, 74, 127
1, 477200, Note_off_c, 2, 38, 127
1, 477202, Note_on_c, 2, 50, 127
1, 477333, Note_off_c, 2, 74, 127
1, 477334, Note_off_c, 2, 50, 127
1, 477336, Note_on_c, 4, 52, 127
1, 477336, Note_on_c, 0, 72, 127
1, 477468, Note_off_c, 0, 72, 127
1, 477468, Note_off_c, 4, 52, 127
1, 477470, Note_on_c, 5, 53, 127
1, 477470, Note_on_c, 11, 70, 127
1, 477602, Note_off_c, 11, 70, 127
1, 477602, Note_off_c, 5, 53, 127
1, 477604, Note_on_c, 7, 55, 127
1, 477604, Note_on_c, 10, 69, 127
1, 477736, Note_off_c, 10, 69, 127
1, 477736, Note_off_c, 7, 55, 127
1, 477738, Note_on_c, 10, 57, 127
1, 477738, Note_on_c, 7, 67, 127
1, 477870, Note_off_c, 7, 67, 127
1, 477870, Note_off_c, 10, 57, 127
1, 477872, Note_on_c, 12, 59, 127
1, 477872, Note_on_c, 5, 65, 127
1, 478004, Note_off_c, 5, 65, 127
1, 478004, Note_off_c, 12, 59, 127
1, 478006, Note_on_c, 1, 61, 127
1, 478006, Note_on_c, 4, 64, 127
1, 478126, Note_off_c, 4, 64, 127
1, 478138, Note_off_c, 1, 61, 127
1, 478148, Note_on_c, 2, 62, 127
1, 478282, Note_on_c, 4, 64, 127
1, 478414, Note_off_c, 4, 64, 127
1, 478414, Note_off_c, 2, 62, 127
1, 478416, Note_on_c, 2, 38, 127
1, 478416, Note_on_c, 5, 65, 127
1, 478548, Note_off_c, 5, 65, 127
1, 478550, Note_on_c, 7, 67, 127
1, 478682, Note_off_c, 7, 67, 127
1, 478684, Note_on_c, 10, 69, 127
1, 478816, Note_off_c, 10, 69, 127
1, 478818, Note_on_c, 12, 71, 127
1, 478950, Note_off_c, 12, 71, 127
1, 478950, Note_off_c, 2, 38, 127
1, 478952, Note_on_c, 4, 40, 127
1, 478952, Note_on_c, 1, 73, 127
1, 479084, Note_off_c, 1, 73, 127
1, 479084, Note_off_c, 4, 40, 127
1, 479086, Note_on_c, 5, 41, 127
1, 479086, Note_on_c, 2, 74, 127
1, 479218, Note_off_c, 2, 74, 127
1, 479218, Note_off_c, 5, 41, 127
1, 479220, Note_on_c, 7, 43, 127
1, 479220, Note_on_c, 4, 76, 127
1, 479352, Note_off_c, 4, 76, 127
1, 479352, Note_off_c, 7, 43, 127
1, 479354, Note_on_c, 10, 45, 127
1, 479354, Note_on_c, 5, 77, 127
1, 479486, Note_off_c, 5, 77, 127
1, 479486, Note_off_c, 10, 45, 127
1, 479488, Note_on_c, 12, 47, 127
1, 479488, Note_on_c, 7, 79, 127
1, 479620, Note_off_c, 7, 79, 127
1, 479620, Note_off_c, 12, 47, 127
1, 479622, Note_on_c, 1, 49, 127
1, 479622, Note_on_c, 4, 76, 127
1, 479754, Note_off_c, 4, 76, 127
1, 479754, Note_off_c, 1, 49, 127
1, 479756, Note_on_c, 2, 50, 127
1, 479756, Note_on_c, 5, 77, 127
1, 479888, Note_off_c, 5, 77, 127
1, 479888, Note_off_c, 2, 50, 127
1, 479890, Note_on_c, 4, 52, 127
1, 479890, Note_on_c, 4, 76, 127
1, 480022, Note_off_c, 4, 76, 127
1, 480022, Note_off_c, 4, 52, 127
1, 480024, Note_on_c, 5, 53, 127
1, 480024, Note_on_c, 2, 74, 127
1, 480156, Note_off_c, 2, 74, 127
1, 480156, Note_off_c, 5, 53, 127
1, 480158, Note_on_c, 7, 55, 127
1, 480158, Note_on_c, 4, 76, 127
1, 480290, Note_off_c, 4, 76, 127
1, 480290, Note_off_c, 7, 55, 127
1, 480292, Note_on_c, 10, 57, 127
1, 480292, Note_on_c, 5, 77, 127
1, 480424, Note_off_c, 5, 77, 127
1, 480426, Note_on_c, 2, 74, 127
1, 480558, Note_off_c, 2, 74, 127
1, 480558, Note_off_c, 10, 57, 127
1, 480560, Note_on_c, 10, 57, 127
1, 480560, Note_on_c, 1, 73, 127
1, 480692, Note_off_c, 1, 73, 127
1, 480694, Note_on_c, 12, 71, 127
1, 480826, Note_off_c, 12, 71, 127
1, 480826, Note_off_c, 10, 57, 127
1, 480828, Note_on_c, 10, 57, 127
1, 480828, Note_on_c, 1, 73, 127
1, 480960, Note_off_c, 1, 73, 127
1, 480962, Note_on_c, 2, 74, 127
1, 481094, Note_off_c, 2, 74, 127
1, 481094, Note_off_c, 10, 57, 127
1, 481096, Note_on_c, 7, 55, 127
1, 481096, Note_on_c, 4, 76, 127
1, 481228, Note_off_c, 4, 76, 127
1, 481230, Note_on_c, 1, 73, 127
1, 481362, Note_off_c, 1, 73, 127
1, 481362, Note_off_c, 7, 55, 127
1, 481364, Note_on_c, 7, 55, 127
1, 481364, Note_on_c, 2, 74, 127
1, 481429, Note_off_c, 7, 55, 127
1, 481431, Note_on_c, 5, 53, 127
1, 481496, Note_off_c, 2, 74, 127
1, 481498, Note_on_c, 4, 52, 127
1, 481498, Note_on_c, 10, 69, 127
1, 481501, Note_off_c, 5, 53, 127
1, 481565, Note_on_c, 5, 53, 127
1, 481568, Note_off_c, 4, 52, 127
1, 481630, Note_off_c, 10, 69, 127
1, 481632, Note_on_c, 7, 55, 127
1, 481632, Note_on_c, 7, 67, 127
1, 481635, Note_off_c, 5, 53, 127
1, 481699, Note_on_c, 5, 53, 127
1, 481702, Note_off_c, 7, 55, 127
1, 481764, Note_off_c, 7, 67, 127
1, 481766, Note_on_c, 7, 55, 127
1, 481766, Note_on_c, 5, 65, 127
1, 481769, Note_off_c, 5, 53, 127
1, 481833, Note_on_c, 5, 53, 127
1, 481836, Note_off_c, 7, 55, 127
1, 481898, Note_off_c, 5, 65, 127
1, 481900, Note_on_c, 4, 52, 127
1, 481900, Note_on_c, 7, 67, 127
1, 481903, Note_off_c, 5, 53, 127
1, 482032, Note_off_c, 7, 67, 127
1, 482034, Note_on_c, 10, 69, 127
1, 482166, Note_off_c, 10, 69, 127
1, 482168, Note_on_c, 11, 70, 127
1, 482300, Note_off_c, 11, 70, 127
1, 482302, Note_on_c, 10, 69, 127
1, 482367, Note_off_c, 4, 52, 127
1, 482434, Note_off_c, 10, 69, 127
1, 482436, Note_on_c, 7, 55, 127
1, 482436, Note_on_c, 11, 70, 127
1, 482568, Note_off_c, 7, 55, 127
1, 482570, Note_on_c, 2, 50, 127
1, 482702, Note_off_c, 2, 50, 127
1, 482704, Note_on_c, 1, 49, 127
1, 482704, Note_on_c, 5, 77, 127
1, 482704, Note_on_c, 2, 74, 127
1, 482836, Note_off_c, 1, 49, 127
1, 482838, Note_on_c, 2, 50, 127
1, 482970, Note_off_c, 2, 50, 127
1, 482970, Note_off_c, 2, 74, 127
1, 482970, Note_off_c, 5, 77, 127
1, 482972, Note_on_c, 7, 55, 127
1, 482972, Note_on_c, 1, 73, 127
1, 482972, Note_on_c, 4, 76, 127
1, 483104, Note_off_c, 7, 55, 127
1, 483106, Note_on_c, 2, 50, 127
1, 483238, Note_off_c, 2, 50, 127
1, 483238, Note_off_c, 4, 76, 127
1, 483238, Note_off_c, 1, 73, 127
1, 483240, Note_on_c, 5, 53, 127
1, 483240, Note_on_c, 2, 74, 127
1, 483240, Note_on_c, 5, 77, 127
1, 483372, Note_off_c, 5, 53, 127
1, 483374, Note_on_c, 2, 50, 127
1, 483504, Note_off_c, 11, 70, 127
1, 483506, Note_off_c, 2, 50, 127
1, 483506, Note_off_c, 5, 77, 127
1, 483506, Note_off_c, 2, 74, 127
1, 483508, Note_on_c, 4, 52, 127
1, 483508, Note_on_c, 10, 69, 127
1, 483640, Note_off_c, 4, 52, 127
1, 483642, Note_on_c, 2, 50, 127
1, 483774, Note_off_c, 2, 50, 127
1, 483776, Note_on_c, 1, 49, 127
1, 483776, Note_on_c, 5, 77, 127
1, 483776, Note_on_c, 2, 74, 127
1, 483908, Note_off_c, 1, 49, 127
1, 483910, Note_on_c, 2, 50, 127
1, 484042, Note_off_c, 2, 50, 127
1, 484042, Note_off_c, 2, 74, 127
1, 484042, Note_off_c, 5, 77, 127
1, 484044, Note_on_c, 4, 52, 127
1, 484044, Note_on_c, 1, 73, 127
1, 484044, Note_on_c, 7, 79, 127
1, 484176, Note_off_c, 4, 52, 127
1, 484178, Note_on_c, 2, 50, 127
1, 484310, Note_off_c, 2, 50, 127
1, 484310, Note_off_c, 7, 79, 127
1, 484310, Note_off_c, 1, 73, 127
1, 484312, Note_on_c, 5, 53, 127
1, 484312, Note_on_c, 2, 74, 127
1, 484312, Note_on_c, 5, 77, 127
1, 484444, Note_off_c, 5, 53, 127
1, 484446, Note_on_c, 2, 50, 127
1, 484576, Note_off_c, 10, 69, 127
1, 484578, Note_off_c, 2, 50, 127
1, 484578, Note_off_c, 5, 77, 127
1, 484578, Note_off_c, 2, 74, 127
1, 484580, Note_on_c, 7, 55, 127
1, 484580, Note_on_c, 11, 70, 127
1, 484712, Note_off_c, 7, 55, 127
1, 484714, Note_on_c, 2, 50, 127
1, 484846, Note_off_c, 2, 50, 127
1, 484848, Note_on_c, 1, 49, 127
1, 484848, Note_on_c, 2, 74, 127
1, 484848, Note_on_c, 5, 77, 127
1, 484980, Note_off_c, 1, 49, 127
1, 484982, Note_on_c, 2, 50, 127
1, 485114, Note_off_c, 2, 50, 127
1, 485114, Note_off_c, 5, 77, 127
1, 485114, Note_off_c, 2, 74, 127
1, 485116, Note_on_c, 7, 55, 127
1, 485116, Note_on_c, 1, 73, 127
1, 485116, Note_on_c, 4, 76, 127
1, 485248, Note_off_c, 7, 55, 127
1, 485250, Note_on_c, 2, 50, 127
1, 485382, Note_off_c, 2, 50, 127
1, 485382, Note_off_c, 4, 76, 127
1, 485382, Note_off_c, 1, 73, 127
1, 485384, Note_on_c, 5, 53, 127
1, 485384, Note_on_c, 5, 77, 127
1, 485384, Note_on_c, 2, 74, 127
1, 485516, Note_off_c, 5, 53, 127
1, 485518, Note_on_c, 2, 50, 127
1, 485648, Note_off_c, 11, 70, 127
1, 485650, Note_off_c, 2, 50, 127
1, 485650, Note_off_c, 2, 74, 127
1, 485650, Note_off_c, 5, 77, 127
1, 485652, Note_on_c, 4, 52, 127
1, 485652, Note_on_c, 10, 69, 127
1, 485784, Note_off_c, 4, 52, 127
1, 485786, Note_on_c, 2, 50, 127
1, 485918, Note_off_c, 2, 50, 127
1, 485920, Note_on_c, 1, 49, 127
1, 485920, Note_on_c, 5, 77, 127
1, 485920, Note_on_c, 2, 74, 127
1, 486052, Note_off_c, 1, 49, 127
1, 486054, Note_on_c, 2, 50, 127
1, 486186, Note_off_c, 2, 50, 127
1, 486186, Note_off_c, 2, 74, 127
1, 486186, Note_off_c, 5, 77, 127
1, 486188, Note_on_c, 4, 52, 127
1, 486188, Note_on_c, 1, 73, 127
1, 486188, Note_on_c, 7, 79, 127
1, 486320, Note_off_c, 4, 52, 127
1, 486322, Note_on_c, 2, 50, 127
1, 486454, Note_off_c, 2, 50, 127
1, 486454, Note_off_c, 7, 79, 127
1, 486454, Note_off_c, 1, 73, 127
1, 486456, Note_on_c, 5, 53, 127
1, 486456, Note_on_c, 2, 74, 127
1, 486456, Note_on_c, 5, 77, 127
1, 486588, Note_off_c, 5, 53, 127
1, 486590, Note_on_c, 2, 50, 127
1, 486720, Note_off_c, 10, 69, 127
1, 486722, Note_off_c, 2, 50, 127
1, 486722, Note_off_c, 5, 77, 127
1, 486722, Note_off_c, 2, 74, 127
1, 486724, Note_on_c, 7, 55, 127
1, 486724, Note_on_c, 1, 73, 127
1, 486724, Note_on_c, 4, 76, 127
1, 486724, Note_on_c, 11, 70, 127
1, 486856, Note_off_c, 7, 55, 127
1, 486858, Note_on_c, 2, 50, 127
1, 486990, Note_off_c, 2, 50, 127
1, 486990, Note_off_c, 11, 70, 127
1, 486990, Note_off_c, 4, 76, 127
1, 486990, Note_off_c, 1, 73, 127
1, 486992, Note_on_c, 5, 53, 127
1, 486992, Note_on_c, 10, 69, 127
1, 486992, Note_on_c, 2, 74, 127
1, 487124, Note_off_c, 5, 53, 127
1, 487126, Note_on_c, 2, 50, 127
1, 487258, Note_off_c, 2, 50, 127
1, 487258, Note_off_c, 2, 74, 127
1, 487258, Note_off_c, 10, 69, 127
1, 487260, Note_on_c, 4, 52, 127
1, 487260, Note_on_c, 1, 73, 127
1, 487260, Note_on_c, 7, 67, 127
1, 487392, Note_off_c, 1, 73, 127
1, 487392, Note_off_c, 4, 52, 127
1, 487394, Note_on_c, 2, 50, 127
1, 487394, Note_on_c, 2, 74, 127
1, 487525, Note_off_c, 7, 67, 127
1, 487526, Note_off_c, 2, 74, 127
1, 487526, Note_off_c, 2, 50, 127
1, 487528, Note_on_c, 1, 49, 127
1, 487528, Note_on_c, 4, 76, 127
1, 487660, Note_off_c, 4, 76, 127
1, 487660, Note_off_c, 1, 49, 127
1, 487662, Note_on_c, 12, 47, 127
1, 487662, Note_on_c, 5, 77, 127
1, 487794, Note_off_c, 5, 77, 127
1, 487794, Note_off_c, 12, 47, 127
1, 487796, Note_on_c, 10, 45, 127
1, 487796, Note_on_c, 7, 79, 127
1, 487928, Note_off_c, 10, 45, 127
1, 487930, Note_on_c, 4, 52, 127
1, 488062, Note_off_c, 4, 52, 127
1, 488064, Note_on_c, 7, 43, 127
1, 488064, Note_on_c, 4, 76, 127
1, 488196, Note_off_c, 7, 43, 127
1, 488198, Note_on_c, 4, 52, 127
1, 488330, Note_off_c, 4, 52, 127
1, 488330, Note_off_c, 4, 76, 127
1, 488332, Note_on_c, 5, 41, 127
1, 488332, Note_on_c, 10, 69, 127
1, 488464, Note_off_c, 5, 41, 127
1, 488466, Note_off_c, 7, 79, 127
1, 488466, Note_on_c, 4, 52, 127
1, 488466, Note_on_c, 7, 79, 127
1, 488598, Note_off_c, 7, 79, 127
1, 488598, Note_off_c, 4, 52, 127
1, 488600, Note_on_c, 2, 50, 127
1, 488600, Note_on_c, 5, 77, 127
1, 488732, Note_off_c, 5, 77, 127
1, 488732, Note_off_c, 2, 50, 127
1, 488734, Note_on_c, 1, 49, 127
1, 488734, Note_on_c, 4, 76, 127
1, 488866, Note_off_c, 4, 76, 127
1, 488866, Note_off_c, 1, 49, 127
1, 488868, Note_on_c, 2, 50, 127
1, 488868, Note_on_c, 5, 77, 127
1, 489000, Note_off_c, 2, 50, 127
1, 489002, Note_on_c, 10, 45, 127
1, 489134, Note_off_c, 10, 45, 127
1, 489134, Note_off_c, 5, 77, 127
1, 489135, Note_off_c, 10, 69, 127
1, 489136, Note_on_c, 5, 41, 127
1, 489136, Note_on_c, 10, 69, 127
1, 489136, Note_on_c, 2, 74, 127
1, 489136, Note_on_c, 10, 81, 127
1, 489268, Note_off_c, 5, 41, 127
1, 489270, Note_on_c, 2, 38, 127
1, 489402, Note_off_c, 2, 38, 127
1, 489402, Note_off_c, 10, 81, 127
1, 489402, Note_off_c, 2, 74, 127
1, 489404, Note_on_c, 10, 45, 127
1, 489404, Note_on_c, 2, 74, 127
1, 489404, Note_on_c, 5, 77, 127
1, 489666, Note_off_c, 10, 69, 127
1, 489669, Note_off_c, 5, 77, 127
1, 489669, Note_off_c, 2, 74, 127
1, 489669, Note_off_c, 10, 45, 127
1, 489671, Note_on_c, 10, 33, 127
1, 489671, Note_on_c, 1, 73, 127
1, 489671, Note_on_c, 7, 67, 127
1, 489671, Note_on_c, 4, 76, 127
1, 489803, Note_off_c, 4, 76, 127
1, 489803, Note_off_c, 1, 73, 127
1, 489805, Note_on_c, 2, 74, 127
1, 489937, Note_off_c, 2, 74, 127
1, 489937, Note_off_c, 10, 33, 127
1, 489939, Note_on_c, 2, 38, 127
1, 489939, Note_on_c, 2, 74, 127
1, 490072, Note_off_c, 7, 67, 127
1, 490085, Note_on_c, 10, 69, 127
1, 490205, Note_off_c, 2, 38, 127
1, 490217, Note_off_c, 10, 69, 127
1, 490223, Note_on_c, 7, 67, 127
1, 490223, Note_on_c, 2, 62, 127
1, 490355, Note_off_c, 7, 67, 127
1, 490357, Note_on_c, 5, 65, 127
1, 490469, Note_off_c, 2, 74, 127
1, 490488, Note_off_c, 5, 65, 127
1, 490490, Note_on_c, 7, 67, 127
1, 490622, Note_off_c, 7, 67, 127
1, 490624, Note_on_c, 5, 65, 127
1, 490756, Note_off_c, 5, 65, 127
1, 490756, Note_off_c, 2, 62, 127
1, 490758, Note_on_c, 4, 64, 127
1, 490758, Note_on_c, 0, 60, 127
1, 490890, Note_off_c, 4, 64, 127
1, 490892, Note_on_c, 5, 65, 127
1, 491024, Note_off_c, 5, 65, 127
1, 491024, Note_off_c, 0, 60, 127
1, 491026, Note_on_c, 2, 62, 127
1, 491026, Note_on_c, 11, 58, 127
1, 491160, Note_on_c, 2, 74, 127
1, 491292, Note_off_c, 2, 74, 127
1, 491292, Note_off_c, 2, 62, 127
1, 491294, Note_on_c, 0, 72, 127
1, 491294, Note_on_c, 7, 67, 127
1, 491426, Note_off_c, 0, 72, 127
1, 491428, Note_on_c, 11, 70, 127
1, 491556, Note_off_c, 11, 58, 127
1, 491559, Note_off_c, 11, 70, 127
1, 491561, Note_on_c, 0, 72, 127
1, 491561, Note_on_c, 10, 57, 127
1, 491693, Note_off_c, 0, 72, 127
1, 491695, Note_on_c, 11, 70, 127
1, 491823, Note_off_c, 7, 67, 127
1, 491826, Note_off_c, 11, 70, 127
1, 491828, Note_on_c, 10, 69, 127
1, 491828, Note_on_c, 6, 66, 127
1, 491960, Note_off_c, 10, 69, 127
1, 491962, Note_on_c, 0, 72, 127
1, 492090, Note_off_c, 10, 57, 127
1, 492093, Note_off_c, 0, 72, 127
1, 492093, Note_off_c, 6, 66, 127
1, 492095, Note_on_c, 11, 70, 127
1, 492095, Note_on_c, 7, 55, 127
1, 492229, Note_on_c, 7, 67, 127
1, 492361, Note_off_c, 7, 67, 127
1, 492363, Note_on_c, 5, 65, 127
1, 492495, Note_off_c, 5, 65, 127
1, 492497, Note_on_c, 4, 64, 127
1, 492629, Note_off_c, 4, 64, 127
1, 492629, Note_off_c, 11, 70, 127
1, 492631, Note_on_c, 0, 72, 127
1, 492631, Note_on_c, 5, 65, 127
1, 492696, Note_off_c, 0, 72, 127
1, 492698, Note_on_c, 12, 71, 127
1, 492763, Note_off_c, 12, 71, 127
1, 492763, Note_off_c, 5, 65, 127
1, 492765, Note_on_c, 0, 72, 127
1, 492765, Note_on_c, 4, 64, 127
1, 492830, Note_off_c, 0, 72, 127
1, 492832, Note_on_c, 12, 71, 127
1, 492897, Note_off_c, 12, 71, 127
1, 492897, Note_off_c, 4, 64, 127
1, 492899, Note_on_c, 0, 72, 127
1, 492899, Note_on_c, 2, 62, 127
1, 492964, Note_off_c, 0, 72, 127
1, 492966, Note_on_c, 12, 71, 127
1, 493031, Note_off_c, 12, 71, 127
1, 493031, Note_off_c, 2, 62, 127
1, 493033, Note_on_c, 10, 69, 127
1, 493033, Note_on_c, 5, 65, 127
1, 493098, Note_off_c, 10, 69, 127
1, 493100, Note_on_c, 12, 71, 127
1, 493165, Note_off_c, 12, 71, 127
1, 493165, Note_off_c, 5, 65, 127
1, 493167, Note_on_c, 0, 72, 127
1, 493167, Note_on_c, 4, 64, 127
1, 493301, Note_on_c, 7, 79, 127
1, 493433, Note_off_c, 7, 79, 127
1, 493435, Note_on_c, 5, 77, 127
1, 493567, Note_off_c, 5, 77, 127
1, 493569, Note_on_c, 4, 76, 127
1, 493701, Note_off_c, 4, 76, 127
1, 493701, Note_off_c, 4, 64, 127
1, 493703, Note_on_c, 5, 77, 127
1, 493703, Note_on_c, 2, 62, 127
1, 493835, Note_off_c, 5, 77, 127
1, 493837, Note_on_c, 4, 76, 127
1, 493969, Note_off_c, 4, 76, 127
1, 493970, Note_off_c, 0, 72, 127
1, 493971, Note_on_c, 2, 74, 127
1, 493971, Note_on_c, 12, 71, 127
1, 494103, Note_off_c, 2, 74, 127
1, 494105, Note_on_c, 5, 77, 127
1, 494234, Note_off_c, 7, 55, 127
1, 494236, Note_off_c, 12, 71, 127
1, 494237, Note_off_c, 5, 77, 127
1, 494237, Note_off_c, 2, 62, 127
1, 494239, Note_on_c, 4, 76, 127
1, 494239, Note_on_c, 0, 72, 127
1, 494239, Note_on_c, 0, 60, 127
1, 494371, Note_off_c, 0, 60, 127
1, 494373, Note_on_c, 0, 48, 127
1, 494505, Note_off_c, 0, 48, 127
1, 494505, Note_off_c, 0, 72, 127
1, 494505, Note_off_c, 4, 76, 127
1, 494507, Note_on_c, 5, 77, 127
1, 494507, Note_on_c, 2, 74, 127
1, 494507, Note_on_c, 11, 46, 127
1, 494639, Note_off_c, 11, 46, 127
1, 494641, Note_on_c, 10, 45, 127
1, 494773, Note_off_c, 10, 45, 127
1, 494773, Note_off_c, 2, 74, 127
1, 494773, Note_off_c, 5, 77, 127
1, 494775, Note_on_c, 4, 76, 127
1, 494775, Note_on_c, 7, 79, 127
1, 494775, Note_on_c, 11, 46, 127
1, 494907, Note_off_c, 11, 46, 127
1, 494909, Note_on_c, 10, 45, 127
1, 495041, Note_off_c, 10, 45, 127
1, 495043, Note_on_c, 7, 43, 127
1, 495175, Note_off_c, 7, 43, 127
1, 495177, Note_on_c, 11, 46, 127
1, 495309, Note_off_c, 11, 46, 127
1, 495311, Note_on_c, 10, 45, 127
1, 495443, Note_off_c, 7, 79, 127
1, 495443, Note_off_c, 4, 76, 127
1, 495453, Note_on_c, 0, 84, 127
1, 495577, Note_off_c, 10, 45, 127
1, 495585, Note_off_c, 0, 84, 127
1, 495587, Note_on_c, 11, 82, 127
1, 495587, Note_on_c, 5, 77, 127
1, 495587, Note_on_c, 2, 50, 127
1, 495719, Note_off_c, 11, 82, 127
1, 495721, Note_on_c, 10, 81, 127
1, 495853, Note_off_c, 10, 81, 127
1, 495853, Note_off_c, 2, 50, 127
1, 495855, Note_on_c, 11, 82, 127
1, 495855, Note_on_c, 7, 43, 127
1, 495987, Note_off_c, 11, 82, 127
1, 495989, Note_on_c, 10, 81, 127
1, 496117, Note_off_c, 5, 77, 127
1, 496120, Note_off_c, 10, 81, 127
1, 496120, Note_off_c, 7, 43, 127
1, 496122, Note_on_c, 7, 79, 127
1, 496122, Note_on_c, 4, 76, 127
1, 496122, Note_on_c, 0, 48, 127
1, 496254, Note_off_c, 7, 79, 127
1, 496256, Note_on_c, 11, 82, 127
1, 496387, Note_off_c, 4, 76, 127
1, 496388, Note_off_c, 11, 82, 127
1, 496388, Note_off_c, 0, 48, 127
1, 496390, Note_on_c, 5, 77, 127
1, 496390, Note_on_c, 10, 81, 127
1, 496390, Note_on_c, 5, 41, 127
1, 496510, Note_off_c, 5, 41, 127
1, 496524, Note_on_c, 5, 65, 127
1, 496656, Note_off_c, 5, 65, 127
1, 496656, Note_off_c, 10, 81, 127
1, 496658, Note_on_c, 11, 82, 127
1, 496658, Note_on_c, 7, 79, 127
1, 496658, Note_on_c, 3, 63, 127
1, 496790, Note_off_c, 3, 63, 127
1, 496792, Note_on_c, 2, 62, 127
1, 496924, Note_off_c, 2, 62, 127
1, 496924, Note_off_c, 7, 79, 127
1, 496924, Note_off_c, 11, 82, 127
1, 496926, Note_on_c, 0, 84, 127
1, 496926, Note_on_c, 10, 81, 127
1, 496926, Note_on_c, 3, 63, 127
1, 497058, Note_off_c, 3, 63, 127
1, 497060, Note_on_c, 2, 62, 127
1, 497192, Note_off_c, 2, 62, 127
1, 497194, Note_on_c, 0, 60, 127
1, 497326, Note_off_c, 0, 60, 127
1, 497328, Note_on_c, 3, 63, 127
1, 497458, Note_off_c, 5, 77, 127
1, 497460, Note_off_c, 3, 63, 127
1, 497462, Note_on_c, 2, 62, 127
1, 497594, Note_off_c, 10, 81, 127
1, 497594, Note_off_c, 0, 84, 127
1, 497596, Note_on_c, 5, 77, 127
1, 497728, Note_off_c, 5, 77, 127
1, 497730, Note_on_c, 3, 75, 127
1, 497730, Note_on_c, 11, 70, 127
1, 497862, Note_off_c, 3, 75, 127
1, 497864, Note_on_c, 2, 74, 127
1, 497992, Note_off_c, 2, 62, 127
1, 497995, Note_off_c, 2, 74, 127
1, 497997, Note_on_c, 3, 75, 127
1, 497997, Note_on_c, 0, 60, 127
1, 498129, Note_off_c, 3, 75, 127
1, 498131, Note_on_c, 2, 74, 127
1, 498259, Note_off_c, 11, 70, 127
1, 498262, Note_off_c, 2, 74, 127
1, 498264, Note_on_c, 0, 72, 127
1, 498264, Note_on_c, 10, 69, 127
1, 498396, Note_off_c, 0, 72, 127
1, 498398, Note_on_c, 3, 75, 127
1, 498526, Note_off_c, 0, 60, 127
1, 498529, Note_off_c, 3, 75, 127
1, 498531, Note_on_c, 2, 74, 127
1, 498531, Note_on_c, 11, 58, 127
1, 498665, Note_on_c, 11, 70, 127
1, 498685, Note_off_c, 10, 69, 127
1, 498796, Note_off_c, 11, 70, 127
1, 498796, Note_off_c, 11, 58, 127
1, 498798, Note_on_c, 10, 69, 127
1, 498798, Note_on_c, 3, 63, 127
1, 498930, Note_off_c, 10, 69, 127
1, 498932, Note_on_c, 7, 67, 127
1, 499060, Note_off_c, 2, 74, 127
1, 499063, Note_off_c, 7, 67, 127
1, 499063, Note_off_c, 3, 63, 127
1, 499065, Note_on_c, 0, 72, 127
1, 499065, Note_on_c, 10, 69, 127
1, 499065, Note_on_c, 10, 57, 127
1, 499197, Note_off_c, 10, 69, 127
1, 499199, Note_on_c, 7, 67, 127
1, 499331, Note_off_c, 7, 67, 127
1, 499331, Note_off_c, 10, 57, 127
1, 499333, Note_on_c, 6, 66, 127
1, 499333, Note_on_c, 2, 62, 127
1, 499465, Note_off_c, 6, 66, 127
1, 499467, Note_on_c, 10, 69, 127
1, 499595, Note_off_c, 0, 72, 127
1, 499598, Note_off_c, 10, 69, 127
1, 499600, Note_on_c, 11, 70, 127
1, 499600, Note_on_c, 7, 67, 127
1, 499600, Note_on_c, 7, 55, 127
1, 499732, Note_off_c, 7, 55, 127
1, 499733, Note_off_c, 2, 62, 127
1, 499742, Note_on_c, 11, 58, 127
1, 499866, Note_off_c, 7, 67, 127
1, 499866, Note_off_c, 11, 70, 127
1, 499874, Note_off_c, 11, 58, 127
1, 499876, Note_on_c, 11, 58, 127
1, 499876, Note_on_c, 8, 56, 127
1, 500008, Note_off_c, 8, 56, 127
1, 500010, Note_on_c, 7, 55, 127
1, 500142, Note_off_c, 7, 55, 127
1, 500144, Note_on_c, 8, 56, 127
1, 500276, Note_off_c, 8, 56, 127
1, 500278, Note_on_c, 7, 55, 127
1, 500410, Note_off_c, 7, 55, 127
1, 500410, Note_off_c, 11, 58, 127
1, 500412, Note_on_c, 0, 60, 127
1, 500412, Note_on_c, 5, 53, 127
1, 500544, Note_off_c, 5, 53, 127
1, 500544, Note_off_c, 0, 60, 127
1, 500546, Note_on_c, 2, 62, 127
1, 500546, Note_on_c, 8, 56, 127
1, 500678, Note_off_c, 8, 56, 127
1, 500678, Note_off_c, 2, 62, 127
1, 500680, Note_on_c, 3, 63, 127
1, 500680, Note_on_c, 7, 55, 127
1, 500812, Note_off_c, 3, 63, 127
1, 500814, Note_on_c, 5, 65, 127
1, 500946, Note_off_c, 5, 65, 127
1, 500948, Note_on_c, 7, 67, 127
1, 500948, Note_on_c, 3, 63, 127
1, 501080, Note_off_c, 7, 67, 127
1, 501082, Note_on_c, 10, 69, 127
1, 501210, Note_off_c, 7, 55, 127
1, 501213, Note_off_c, 10, 69, 127
1, 501213, Note_off_c, 3, 63, 127
1, 501215, Note_on_c, 11, 70, 127
1, 501215, Note_on_c, 2, 62, 127
1, 501215, Note_on_c, 5, 53, 127
1, 501347, Note_off_c, 11, 70, 127
1, 501349, Note_on_c, 0, 72, 127
1, 501481, Note_off_c, 0, 72, 127
1, 501481, Note_off_c, 5, 53, 127
1, 501481, Note_off_c, 2, 62, 127
1, 501483, Note_on_c, 2, 74, 127
1, 501483, Note_on_c, 0, 60, 127
1, 501483, Note_on_c, 3, 51, 127
1, 501615, Note_off_c, 2, 74, 127
1, 501617, Note_on_c, 3, 75, 127
1, 501749, Note_off_c, 3, 75, 127
1, 501749, Note_off_c, 3, 51, 127
1, 501749, Note_off_c, 0, 60, 127
1, 501751, Note_on_c, 5, 77, 127
1, 501751, Note_on_c, 11, 58, 127
1, 501751, Note_on_c, 2, 50, 127
1, 501883, Note_off_c, 2, 50, 127
1, 501883, Note_off_c, 11, 58, 127
1, 501885, Note_on_c, 11, 46, 127
1, 502017, Note_off_c, 11, 46, 127
1, 502017, Note_off_c, 5, 77, 127
1, 502019, Note_on_c, 5, 77, 127
1, 502019, Note_on_c, 2, 74, 127
1, 502019, Note_on_c, 11, 70, 127
1, 502019, Note_on_c, 0, 48, 127
1, 502151, Note_off_c, 0, 48, 127
1, 502153, Note_on_c, 2, 50, 127
1, 502285, Note_off_c, 2, 50, 127
1, 502285, Note_off_c, 11, 70, 127
1, 502285, Note_off_c, 2, 74, 127
1, 502285, Note_off_c, 5, 77, 127
1, 502287, Note_on_c, 0, 72, 127
1, 502287, Note_on_c, 10, 69, 127
1, 502287, Note_on_c, 5, 77, 127
1, 502287, Note_on_c, 3, 51, 127
1, 502419, Note_off_c, 3, 51, 127
1, 502421, Note_on_c, 5, 53, 127
1, 502553, Note_off_c, 5, 53, 127
1, 502553, Note_off_c, 5, 77, 127
1, 502553, Note_off_c, 10, 69, 127
1, 502553, Note_off_c, 0, 72, 127
1, 502555, Note_on_c, 0, 72, 127
1, 502555, Note_on_c, 3, 75, 127
1, 502555, Note_on_c, 5, 65, 127
1, 502555, Note_on_c, 7, 55, 127
1, 502687, Note_off_c, 7, 55, 127
1, 502689, Note_on_c, 10, 57, 127
1, 502821, Note_off_c, 10, 57, 127
1, 502821, Note_off_c, 5, 65, 127
1, 502821, Note_off_c, 3, 75, 127
1, 502821, Note_off_c, 0, 72, 127
1, 502823, Note_on_c, 2, 74, 127
1, 502823, Note_on_c, 11, 70, 127
1, 502823, Note_on_c, 5, 65, 127
1, 502823, Note_on_c, 11, 58, 127
1, 502955, Note_off_c, 11, 58, 127
1, 502957, Note_on_c, 0, 60, 127
1, 503089, Note_off_c, 0, 60, 127
1, 503091, Note_on_c, 2, 62, 127
1, 503223, Note_off_c, 2, 62, 127
1, 503225, Note_on_c, 3, 63, 127
1, 503357, Note_off_c, 3, 63, 127
1, 503357, Note_off_c, 5, 65, 127
1, 503357, Note_off_c, 11, 70, 127
1, 503357, Note_off_c, 2, 74, 127
1, 503359, Note_on_c, 0, 72, 127
1, 503359, Note_on_c, 10, 69, 127
1, 503359, Note_on_c, 5, 65, 127
1, 503491, Note_off_c, 5, 65, 127
1, 503493, Note_on_c, 3, 63, 127
1, 503625, Note_off_c, 3, 63, 127
1, 503627, Note_on_c, 2, 62, 127
1, 503759, Note_off_c, 2, 62, 127
1, 503761, Note_on_c, 5, 65, 127
1, 503889, Note_off_c, 0, 72, 127
1, 503892, Note_off_c, 5, 65, 127
1, 503893, Note_off_c, 10, 69, 127
1, 503902, Note_on_c, 11, 58, 127
1, 504036, Note_on_c, 2, 74, 127
1, 504168, Note_off_c, 2, 74, 127
1, 504170, Note_on_c, 0, 72, 127
1, 504170, Note_on_c, 7, 67, 127
1, 504302, Note_off_c, 0, 72, 127
1, 504304, Note_on_c, 11, 70, 127
1, 504432, Note_off_c, 11, 58, 127
1, 504435, Note_off_c, 11, 70, 127
1, 504437, Note_on_c, 0, 72, 127
1, 504437, Note_on_c, 10, 57, 127
1, 504569, Note_off_c, 0, 72, 127
1, 504571, Note_on_c, 11, 70, 127
1, 504699, Note_off_c, 7, 67, 127
1, 504702, Note_off_c, 11, 70, 127
1, 504704, Note_on_c, 10, 69, 127
1, 504704, Note_on_c, 6, 66, 127
1, 504836, Note_off_c, 10, 69, 127
1, 504838, Note_on_c, 0, 72, 127
1, 504966, Note_off_c, 10, 57, 127
1, 504969, Note_off_c, 6, 66, 127
1, 504970, Note_off_c, 0, 72, 127
1, 504972, Note_on_c, 7, 67, 127
1, 504972, Note_on_c, 11, 70, 127
1, 505106, Note_on_c, 7, 55, 127
1, 505238, Note_off_c, 7, 55, 127
1, 505238, Note_off_c, 11, 70, 127
1, 505240, Note_on_c, 7, 79, 127
1, 505240, Note_on_c, 4, 76, 127
1, 505240, Note_on_c, 5, 53, 127
1, 505372, Note_off_c, 5, 53, 127
1, 505374, Note_on_c, 4, 52, 127
1, 505502, Note_off_c, 7, 67, 127
1, 505505, Note_off_c, 4, 52, 127
1, 505505, Note_off_c, 4, 76, 127
1, 505507, Note_on_c, 1, 73, 127
1, 505507, Note_on_c, 10, 69, 127
1, 505507, Note_on_c, 5, 53, 127
1, 505639, Note_off_c, 5, 53, 127
1, 505641, Note_on_c, 4, 52, 127
1, 505769, Note_off_c, 7, 79, 127
1, 505772, Note_off_c, 4, 52, 127
1, 505772, Note_off_c, 1, 73, 127
1, 505774, Note_on_c, 2, 74, 127
1, 505774, Note_on_c, 5, 77, 127
1, 505774, Note_on_c, 2, 50, 127
1, 505906, Note_off_c, 2, 50, 127
1, 505908, Note_on_c, 5, 53, 127
1, 506036, Note_off_c, 10, 69, 127
1, 506039, Note_off_c, 5, 53, 127
1, 506039, Note_off_c, 2, 74, 127
1, 506041, Note_on_c, 7, 67, 127
1, 506041, Note_on_c, 11, 46, 127
1, 506174, Note_off_c, 5, 77, 127
1, 506175, Note_on_c, 5, 77, 127
1, 506307, Note_off_c, 5, 77, 127
1, 506307, Note_off_c, 11, 46, 127
1, 506309, Note_on_c, 4, 76, 127
1, 506309, Note_on_c, 2, 50, 127
1, 506441, Note_off_c, 4, 76, 127
1, 506443, Note_on_c, 2, 74, 127
1, 506575, Note_off_c, 2, 74, 127
1, 506575, Note_off_c, 2, 50, 127
1, 506577, Note_on_c, 4, 76, 127
1, 506577, Note_on_c, 7, 55, 127
1, 506709, Note_off_c, 4, 76, 127
1, 506711, Note_on_c, 2, 74, 127
1, 506843, Note_off_c, 2, 74, 127
1, 506843, Note_off_c, 7, 55, 127
1, 506845, Note_on_c, 1, 73, 127
1, 506845, Note_on_c, 4, 52, 127
1, 506977, Note_off_c, 1, 73, 127
1, 506979, Note_on_c, 4, 76, 127
1, 507109, Note_off_c, 7, 67, 127
1, 507111, Note_off_c, 4, 76, 127
1, 507111, Note_off_c, 4, 52, 127
1, 507113, Note_on_c, 10, 69, 127
1, 507113, Note_on_c, 1, 49, 127
1, 507247, Note_on_c, 7, 67, 127
1, 507379, Note_off_c, 7, 67, 127
1, 507379, Note_off_c, 1, 49, 127
1, 507381, Note_on_c, 5, 65, 127
1, 507381, Note_on_c, 10, 45, 127
1, 507513, Note_off_c, 5, 65, 127
1, 507515, Note_on_c, 4, 64, 127
1, 507647, Note_off_c, 4, 64, 127
1, 507647, Note_off_c, 10, 45, 127
1, 507649, Note_on_c, 5, 65, 127
1, 507649, Note_on_c, 2, 50, 127
1, 507781, Note_off_c, 5, 65, 127
1, 507783, Note_on_c, 4, 64, 127
1, 507915, Note_off_c, 4, 64, 127
1, 507915, Note_off_c, 2, 50, 127
1, 507917, Note_on_c, 2, 62, 127
1, 507917, Note_on_c, 5, 41, 127
1, 508049, Note_off_c, 2, 62, 127
1, 508051, Note_on_c, 5, 65, 127
1, 508181, Note_off_c, 10, 69, 127
1, 508183, Note_off_c, 5, 65, 127
1, 508183, Note_off_c, 5, 41, 127
1, 508185, Note_on_c, 11, 58, 127
1, 508185, Note_on_c, 7, 43, 127
1, 508319, Note_on_c, 10, 69, 127
1, 508451, Note_off_c, 10, 69, 127
1, 508451, Note_off_c, 7, 43, 127
1, 508453, Note_on_c, 7, 67, 127
1, 508453, Note_on_c, 11, 46, 127
1, 508585, Note_off_c, 7, 67, 127
1, 508587, Note_on_c, 5, 65, 127
1, 508719, Note_off_c, 5, 65, 127
1, 508719, Note_off_c, 11, 46, 127
1, 508721, Note_on_c, 7, 67, 127
1, 508721, Note_on_c, 4, 40, 127
1, 508853, Note_off_c, 7, 67, 127
1, 508855, Note_on_c, 5, 65, 127
1, 508987, Note_off_c, 5, 65, 127
1, 508987, Note_off_c, 4, 40, 127
1, 508989, Note_on_c, 4, 64, 127
1, 508989, Note_on_c, 7, 43, 127
1, 509121, Note_off_c, 4, 64, 127
1, 509123, Note_on_c, 7, 67, 127
1, 509253, Note_off_c, 11, 58, 127
1, 509255, Note_off_c, 7, 67, 127
1, 509255, Note_off_c, 7, 43, 127
1, 509257, Note_on_c, 1, 61, 127
1, 509257, Note_on_c, 10, 45, 127
1, 509391, Note_on_c, 11, 58, 127
1, 509523, Note_off_c, 11, 58, 127
1, 509523, Note_off_c, 10, 45, 127
1, 509525, Note_on_c, 10, 57, 127
1, 509525, Note_on_c, 4, 40, 127
1, 509657, Note_off_c, 10, 57, 127
1, 509659, Note_on_c, 7, 55, 127
1, 509787, Note_off_c, 1, 61, 127
1, 509790, Note_off_c, 7, 55, 127
1, 509790, Note_off_c, 4, 40, 127
1, 509792, Note_on_c, 10, 57, 127
1, 509792, Note_on_c, 1, 37, 127
1, 509924, Note_off_c, 10, 57, 127
1, 509926, Note_on_c, 7, 55, 127
1, 510058, Note_off_c, 7, 55, 127
1, 510058, Note_off_c, 1, 37, 127
1, 510060, Note_on_c, 5, 53, 127
1, 510060, Note_on_c, 10, 33, 127
1, 510192, Note_off_c, 5, 53, 127
1, 510194, Note_on_c, 4, 52, 127
1, 510326, Note_off_c, 4, 52, 127
1, 510326, Note_off_c, 10, 33, 127
1, 510331, Note_on_c, 5, 53, 127
1, 510331, Note_on_c, 2, 38, 127
1, 510463, Note_off_c, 5, 53, 127
1, 510478, Note_on_c, 7, 55, 127
1, 510610, Note_off_c, 7, 55, 127
1, 510612, Note_on_c, 10, 57, 127
1, 510744, Note_off_c, 10, 57, 127
1, 510746, Note_on_c, 12, 59, 127
1, 510861, Note_off_c, 2, 38, 127
1, 510877, Note_off_c, 12, 59, 127
1, 510879, Note_on_c, 1, 61, 127
1, 511011, Note_off_c, 1, 61, 127
1, 511013, Note_on_c, 2, 62, 127
1, 511145, Note_off_c, 2, 62, 127
1, 511147, Note_on_c, 4, 64, 127
1, 511279, Note_off_c, 4, 64, 127
1, 511281, Note_on_c, 5, 65, 127
1, 511413, Note_off_c, 5, 65, 127
1, 511415, Note_on_c, 7, 67, 127
1, 511547, Note_off_c, 7, 67, 127
1, 511549, Note_on_c, 5, 41, 127
1, 511549, Note_on_c, 10, 69, 127
1, 511681, Note_off_c, 10, 69, 127
1, 511681, Note_off_c, 5, 41, 127
1, 511683, Note_on_c, 7, 43, 127
1, 511683, Note_on_c, 12, 71, 127
1, 511815, Note_off_c, 12, 71, 127
1, 511815, Note_off_c, 7, 43, 127
1, 511817, Note_on_c, 10, 45, 127
1, 511817, Note_on_c, 1, 73, 127
1, 511949, Note_off_c, 1, 73, 127
1, 511949, Note_off_c, 10, 45, 127
1, 511951, Note_on_c, 12, 47, 127
1, 511951, Note_on_c, 2, 74, 127
1, 512083, Note_off_c, 2, 74, 127
1, 512083, Note_off_c, 12, 47, 127
1, 512085, Note_on_c, 1, 49, 127
1, 512085, Note_on_c, 4, 76, 127
1, 512217, Note_off_c, 4, 76, 127
1, 512217, Note_off_c, 1, 49, 127
1, 512219, Note_on_c, 2, 50, 127
1, 512219, Note_on_c, 5, 77, 127
1, 512351, Note_off_c, 5, 77, 127
1, 512351, Note_off_c, 2, 50, 127
1, 512353, Note_on_c, 4, 52, 127
1, 512353, Note_on_c, 7, 79, 127
1, 512485, Note_off_c, 7, 79, 127
1, 512485, Note_off_c, 4, 52, 127
1, 512487, Note_on_c, 5, 53, 127
1, 512487, Note_on_c, 10, 81, 127
1, 512619, Note_off_c, 5, 53, 127
1, 512621, Note_on_c, 2, 50, 127
1, 512753, Note_off_c, 2, 50, 127
1, 512753, Note_off_c, 10, 81, 127
1, 512755, Note_on_c, 4, 52, 127
1, 512755, Note_on_c, 2, 74, 127
1, 512755, Note_on_c, 5, 77, 127
1, 512755, Note_on_c, 10, 81, 127
1, 512887, Note_off_c, 4, 52, 127
1, 512889, Note_on_c, 5, 53, 127
1, 513021, Note_off_c, 5, 53, 127
1, 513021, Note_off_c, 10, 81, 127
1, 513021, Note_off_c, 5, 77, 127
1, 513021, Note_off_c, 2, 74, 127
1, 513023, Note_on_c, 7, 55, 127
1, 513023, Note_on_c, 1, 73, 127
1, 513023, Note_on_c, 4, 76, 127
1, 513023, Note_on_c, 10, 81, 127
1, 513155, Note_off_c, 7, 55, 127
1, 513157, Note_on_c, 10, 57, 127
1, 513289, Note_off_c, 10, 57, 127
1, 513289, Note_off_c, 10, 81, 127
1, 513289, Note_off_c, 4, 76, 127
1, 513289, Note_off_c, 1, 73, 127
1, 513291, Note_on_c, 12, 59, 127
1, 513291, Note_on_c, 4, 76, 127
1, 513291, Note_on_c, 10, 69, 127
1, 513291, Note_on_c, 7, 79, 127
1, 513423, Note_off_c, 12, 59, 127
1, 513425, Note_on_c, 1, 61, 127
1, 513557, Note_off_c, 1, 61, 127
1, 513557, Note_off_c, 7, 79, 127
1, 513557, Note_off_c, 10, 69, 127
1, 513557, Note_off_c, 4, 76, 127
1, 513559, Note_on_c, 2, 62, 127
1, 513559, Note_on_c, 10, 69, 127
1, 513559, Note_on_c, 2, 74, 127
1, 513559, Note_on_c, 5, 77, 127
1, 513691, Note_off_c, 2, 62, 127
1, 513693, Note_on_c, 4, 64, 127
1, 513825, Note_off_c, 4, 64, 127
1, 513827, Note_on_c, 5, 65, 127
1, 513959, Note_off_c, 5, 65, 127
1, 513961, Note_on_c, 7, 67, 127
1, 514093, Note_off_c, 7, 67, 127
1, 514093, Note_off_c, 5, 77, 127
1, 514093, Note_off_c, 2, 74, 127
1, 514093, Note_off_c, 10, 69, 127
1, 514095, Note_on_c, 10, 69, 127
1, 514095, Note_on_c, 4, 76, 127
1, 514095, Note_on_c, 1, 73, 127
1, 514227, Note_off_c, 10, 69, 127
1, 514229, Note_on_c, 5, 65, 127
1, 514361, Note_off_c, 5, 65, 127
1, 514363, Note_on_c, 7, 67, 127
1, 514495, Note_off_c, 7, 67, 127
1, 514497, Note_on_c, 10, 69, 127
1, 514595, Note_off_c, 1, 73, 127
1, 514595, Note_off_c, 4, 76, 127
1, 514636, Note_off_c, 10, 69, 127
1, 514639, Note_on_c, 2, 62, 127
1, 514639, Note_on_c, 5, 77, 127
1, 514771, Note_off_c, 5, 77, 127
1, 514773, Note_on_c, 7, 79, 127
1, 514905, Note_off_c, 7, 79, 127
1, 514905, Note_off_c, 2, 62, 127
1, 514907, Note_on_c, 10, 69, 127
1, 514907, Note_on_c, 5, 77, 127
1, 515039, Note_off_c, 5, 77, 127
1, 515041, Note_on_c, 4, 76, 127
1, 515173, Note_off_c, 4, 76, 127
1, 515173, Note_off_c, 10, 69, 127
1, 515175, Note_on_c, 5, 65, 127
1, 515175, Note_on_c, 2, 74, 127
1, 515307, Note_off_c, 2, 74, 127
1, 515309, Note_on_c, 0, 72, 127
1, 515441, Note_off_c, 0, 72, 127
1, 515441, Note_off_c, 5, 65, 127
1, 515443, Note_on_c, 2, 62, 127
1, 515443, Note_on_c, 12, 71, 127
1, 515575, Note_off_c, 12, 71, 127
1, 515577, Note_on_c, 10, 69, 127
1, 515709, Note_off_c, 10, 69, 127
1, 515709, Note_off_c, 2, 62, 127
1, 515711, Note_on_c, 12, 59, 127
1, 515711, Note_on_c, 7, 67, 127
1, 515845, Note_on_c, 5, 77, 127
1, 515861, Note_off_c, 7, 67, 127
1, 515977, Note_off_c, 5, 77, 127
1, 515977, Note_off_c, 12, 59, 127
1, 515979, Note_on_c, 2, 62, 127
1, 515979, Note_on_c, 7, 67, 127
1, 516111, Note_off_c, 7, 67, 127
1, 516113, Note_on_c, 5, 65, 127
1, 516245, Note_off_c, 5, 65, 127
1, 516245, Note_off_c, 2, 62, 127
1, 516247, Note_on_c, 12, 59, 127
1, 516247, Note_on_c, 7, 67, 127
1, 516379, Note_off_c, 7, 67, 127
1, 516381, Note_on_c, 12, 71, 127
1, 516513, Note_off_c, 12, 71, 127
1, 516513, Note_off_c, 12, 59, 127
1, 516515, Note_on_c, 7, 55, 127
1, 516515, Note_on_c, 0, 72, 127
1, 516647, Note_off_c, 0, 72, 127
1, 516649, Note_on_c, 2, 74, 127
1, 516781, Note_off_c, 2, 74, 127
1, 516781, Note_off_c, 7, 55, 127
1, 516783, Note_on_c, 0, 60, 127
1, 516783, Note_on_c, 4, 76, 127
1, 516915, Note_off_c, 4, 76, 127
1, 516917, Note_on_c, 5, 77, 127
1, 517049, Note_off_c, 5, 77, 127
1, 517049, Note_off_c, 0, 60, 127
1, 517051, Note_on_c, 7, 67, 127
1, 517051, Note_on_c, 4, 76, 127
1, 517183, Note_off_c, 4, 76, 127
1, 517185, Note_on_c, 2, 74, 127
1, 517317, Note_off_c, 2, 74, 127
1, 517317, Note_off_c, 7, 67, 127
1, 517319, Note_on_c, 4, 64, 127
1, 517319, Note_on_c, 0, 72, 127
1, 517451, Note_off_c, 0, 72, 127
1, 517453, Note_on_c, 12, 71, 127
1, 517585, Note_off_c, 12, 71, 127
1, 517585, Note_off_c, 4, 64, 127
1, 517587, Note_on_c, 0, 60, 127
1, 517587, Note_on_c, 10, 69, 127
1, 517719, Note_off_c, 10, 69, 127
1, 517721, Note_on_c, 7, 67, 127
1, 517853, Note_off_c, 7, 67, 127
1, 517853, Note_off_c, 0, 60, 127
1, 517855, Note_on_c, 10, 57, 127
1, 517855, Note_on_c, 5, 65, 127
1, 517989, Note_on_c, 4, 76, 127
1, 518050, Note_off_c, 5, 65, 127
1, 518120, Note_off_c, 4, 76, 127
1, 518120, Note_off_c, 10, 57, 127
1, 518122, Note_on_c, 0, 60, 127
1, 518122, Note_on_c, 5, 65, 127
1, 518254, Note_off_c, 5, 65, 127
1, 518256, Note_on_c, 4, 64, 127
1, 518388, Note_off_c, 4, 64, 127
1, 518388, Note_off_c, 0, 60, 127
1, 518390, Note_on_c, 10, 57, 127
1, 518390, Note_on_c, 5, 65, 127
1, 518522, Note_off_c, 5, 65, 127
1, 518524, Note_on_c, 10, 69, 127
1, 518656, Note_off_c, 10, 69, 127
1, 518656, Note_off_c, 10, 57, 127
1, 518658, Note_on_c, 5, 53, 127
1, 518658, Note_on_c, 12, 71, 127
1, 518790, Note_off_c, 12, 71, 127
1, 518792, Note_on_c, 0, 72, 127
1, 518924, Note_off_c, 0, 72, 127
1, 518924, Note_off_c, 5, 53, 127
1, 518926, Note_on_c, 12, 59, 127
1, 518926, Note_on_c, 2, 74, 127
1, 519058, Note_off_c, 2, 74, 127
1, 519060, Note_on_c, 4, 76, 127
1, 519192, Note_off_c, 4, 76, 127
1, 519192, Note_off_c, 12, 59, 127
1, 519194, Note_on_c, 5, 65, 127
1, 519194, Note_on_c, 2, 74, 127
1, 519326, Note_off_c, 2, 74, 127
1, 519328, Note_on_c, 0, 72, 127
1, 519460, Note_off_c, 0, 72, 127
1, 519460, Note_off_c, 5, 65, 127
1, 519462, Note_on_c, 2, 62, 127
1, 519462, Note_on_c, 12, 71, 127
1, 519594, Note_off_c, 12, 71, 127
1, 519596, Note_on_c, 10, 69, 127
1, 519728, Note_off_c, 10, 69, 127
1, 519728, Note_off_c, 2, 62, 127
1, 519730, Note_on_c, 12, 59, 127
1, 519730, Note_on_c, 8, 68, 127
1, 519862, Note_off_c, 8, 68, 127
1, 519864, Note_on_c, 6, 66, 127
1, 519996, Note_off_c, 6, 66, 127
1, 519996, Note_off_c, 12, 59, 127
1, 519998, Note_on_c, 8, 56, 127
1, 519998, Note_on_c, 4, 64, 127
1, 520130, Note_off_c, 8, 56, 127
1, 520132, Note_on_c, 2, 62, 127
1, 520264, Note_off_c, 2, 62, 127
1, 520266, Note_on_c, 4, 52, 127
1, 520266, Note_on_c, 8, 68, 127
1, 520398, Note_off_c, 8, 68, 127
1, 520398, Note_off_c, 4, 52, 127
1, 520400, Note_on_c, 2, 50, 127
1, 520400, Note_on_c, 6, 66, 127
1, 520532, Note_off_c, 6, 66, 127
1, 520532, Note_off_c, 2, 50, 127
1, 520534, Note_on_c, 4, 52, 127
1, 520534, Note_on_c, 8, 68, 127
1, 520666, Note_off_c, 4, 52, 127
1, 520668, Note_on_c, 2, 62, 127
1, 520800, Note_off_c, 2, 62, 127
1, 520800, Note_off_c, 8, 68, 127
1, 520802, Note_on_c, 6, 54, 127
1, 520802, Note_on_c, 10, 69, 127
1, 520934, Note_off_c, 6, 54, 127
1, 520936, Note_on_c, 2, 62, 127
1, 521068, Note_off_c, 2, 62, 127
1, 521068, Note_off_c, 10, 69, 127
1, 521070, Note_on_c, 8, 56, 127
1, 521070, Note_on_c, 12, 71, 127
1, 521202, Note_off_c, 8, 56, 127
1, 521204, Note_on_c, 2, 62, 127
1, 521332, Note_off_c, 4, 64, 127
1, 521335, Note_off_c, 2, 62, 127
1, 521337, Note_on_c, 8, 56, 127
1, 521337, Note_on_c, 4, 64, 127
1, 521469, Note_off_c, 4, 64, 127
1, 521469, Note_off_c, 8, 56, 127
1, 521471, Note_on_c, 6, 54, 127
1, 521471, Note_on_c, 2, 62, 127
1, 521603, Note_off_c, 2, 62, 127
1, 521603, Note_off_c, 6, 54, 127
1, 521605, Note_on_c, 8, 56, 127
1, 521605, Note_on_c, 4, 64, 127
1, 521737, Note_off_c, 8, 56, 127
1, 521739, Note_on_c, 2, 62, 127
1, 521871, Note_off_c, 2, 62, 127
1, 521871, Note_off_c, 4, 64, 127
1, 521873, Note_on_c, 10, 57, 127
1, 521873, Note_on_c, 6, 66, 127
1, 522005, Note_off_c, 10, 57, 127
1, 522007, Note_on_c, 2, 62, 127
1, 522139, Note_off_c, 2, 62, 127
1, 522139, Note_off_c, 6, 66, 127
1, 522141, Note_on_c, 12, 59, 127
1, 522141, Note_on_c, 8, 68, 127
1, 522273, Note_off_c, 12, 59, 127
1, 522275, Note_on_c, 2, 62, 127
1, 522403, Note_off_c, 12, 71, 127
1, 522406, Note_off_c, 2, 62, 127
1, 522408, Note_on_c, 12, 59, 127
1, 522408, Note_on_c, 2, 74, 127
1, 522540, Note_off_c, 2, 74, 127
1, 522540, Note_off_c, 12, 59, 127
1, 522542, Note_on_c, 10, 57, 127
1, 522542, Note_on_c, 0, 72, 127
1, 522674, Note_off_c, 0, 72, 127
1, 522674, Note_off_c, 10, 57, 127
1, 522676, Note_on_c, 12, 59, 127
1, 522676, Note_on_c, 2, 74, 127
1, 522808, Note_off_c, 12, 59, 127
1, 522810, Note_on_c, 2, 62, 127
1, 522942, Note_off_c, 2, 62, 127
1, 522942, Note_off_c, 2, 74, 127
1, 522943, Note_off_c, 8, 68, 127
1, 522944, Note_on_c, 10, 57, 127
1, 522944, Note_on_c, 10, 69, 127
1, 522944, Note_on_c, 5, 77, 127
1, 523076, Note_off_c, 10, 57, 127
1, 523078, Note_on_c, 2, 62, 127
1, 523210, Note_off_c, 2, 62, 127
1, 523210, Note_off_c, 10, 69, 127
1, 523212, Note_on_c, 8, 56, 127
1, 523212, Note_on_c, 12, 71, 127
1, 523344, Note_off_c, 8, 56, 127
1, 523346, Note_on_c, 2, 62, 127
1, 523474, Note_off_c, 5, 77, 127
1, 523477, Note_off_c, 2, 62, 127
1, 523479, Note_on_c, 8, 56, 127
1, 523479, Note_on_c, 4, 76, 127
1, 523611, Note_off_c, 4, 76, 127
1, 523611, Note_off_c, 8, 56, 127
1, 523613, Note_on_c, 6, 54, 127
1, 523613, Note_on_c, 2, 74, 127
1, 523741, Note_off_c, 12, 71, 127
1, 523744, Note_off_c, 2, 74, 127
1, 523744, Note_off_c, 6, 54, 127
1, 523746, Note_on_c, 8, 56, 127
1, 523746, Note_on_c, 4, 76, 127
1, 523878, Note_off_c, 8, 56, 127
1, 523880, Note_on_c, 2, 62, 127
1, 524012, Note_off_c, 2, 62, 127
1, 524012, Note_off_c, 4, 76, 127
1, 524014, Note_on_c, 5, 53, 127
1, 524014, Note_on_c, 10, 69, 127
1, 524014, Note_on_c, 10, 81, 127
1, 524146, Note_off_c, 5, 53, 127
1, 524148, Note_on_c, 2, 62, 127
1, 524280, Note_off_c, 2, 62, 127
1, 524280, Note_off_c, 10, 69, 127
1, 524282, Note_on_c, 4, 52, 127
1, 524282, Note_on_c, 12, 71, 127
1, 524414, Note_off_c, 4, 52, 127
1, 524416, Note_on_c, 2, 62, 127
1, 524544, Note_off_c, 10, 81, 127
1, 524547, Note_off_c, 2, 62, 127
1, 524547, Note_off_c, 12, 71, 127
1, 524549, Note_on_c, 4, 52, 127
1, 524549, Note_on_c, 8, 80, 127
1, 524549, Note_on_c, 4, 76, 127
1, 524681, Note_off_c, 8, 80, 127
1, 524681, Note_off_c, 4, 52, 127
1, 524683, Note_on_c, 2, 50, 127
1, 524683, Note_on_c, 6, 78, 127
1, 524815, Note_off_c, 6, 78, 127
1, 524815, Note_off_c, 2, 50, 127
1, 524817, Note_on_c, 4, 52, 127
1, 524817, Note_on_c, 8, 80, 127
1, 524949, Note_off_c, 4, 52, 127
1, 524951, Note_on_c, 2, 62, 127
1, 525079, Note_off_c, 4, 76, 127
1, 525082, Note_off_c, 2, 62, 127
1, 525082, Note_off_c, 8, 80, 127
1, 525084, Note_on_c, 6, 54, 127
1, 525084, Note_on_c, 2, 74, 127
1, 525084, Note_on_c, 10, 81, 127
1, 525216, Note_off_c, 2, 74, 127
1, 525216, Note_off_c, 6, 54, 127
1, 525218, Note_on_c, 2, 62, 127
1, 525218, Note_on_c, 0, 72, 127
1, 525349, Note_off_c, 10, 81, 127
1, 525350, Note_off_c, 0, 72, 127
1, 525350, Note_off_c, 2, 62, 127
1, 525352, Note_on_c, 8, 56, 127
1, 525352, Note_on_c, 12, 71, 127
1, 525352, Note_on_c, 12, 83, 127
1, 525484, Note_off_c, 8, 56, 127
1, 525486, Note_on_c, 2, 62, 127
1, 525618, Note_off_c, 2, 62, 127
1, 525618, Note_off_c, 12, 83, 127
1, 525618, Note_off_c, 12, 71, 127
1, 525620, Note_on_c, 8, 56, 127
1, 525620, Note_on_c, 12, 83, 127
1, 525752, Note_off_c, 12, 83, 127
1, 525752, Note_off_c, 8, 56, 127
1, 525754, Note_on_c, 6, 54, 127
1, 525754, Note_on_c, 10, 81, 127
1, 525886, Note_off_c, 10, 81, 127
1, 525886, Note_off_c, 6, 54, 127
1, 525888, Note_on_c, 8, 56, 127
1, 525888, Note_on_c, 12, 83, 127
1, 526020, Note_off_c, 8, 56, 127
1, 526022, Note_on_c, 2, 62, 127
1, 526154, Note_off_c, 2, 62, 127
1, 526154, Note_off_c, 12, 83, 127
1, 526156, Note_on_c, 10, 57, 127
1, 526156, Note_on_c, 0, 84, 127
1, 526288, Note_off_c, 10, 57, 127
1, 526290, Note_on_c, 2, 62, 127
1, 526422, Note_off_c, 2, 62, 127
1, 526422, Note_off_c, 0, 84, 127
1, 526424, Note_on_c, 12, 59, 127
1, 526424, Note_on_c, 2, 74, 127
1, 526556, Note_off_c, 12, 59, 127
1, 526558, Note_on_c, 2, 62, 127
1, 526690, Note_off_c, 2, 62, 127
1, 526692, Note_on_c, 12, 59, 127
1, 526692, Note_on_c, 8, 68, 127
1, 526824, Note_off_c, 8, 68, 127
1, 526824, Note_off_c, 12, 59, 127
1, 526826, Note_on_c, 10, 57, 127
1, 526826, Note_on_c, 6, 66, 127
1, 526958, Note_off_c, 6, 66, 127
1, 526958, Note_off_c, 10, 57, 127
1, 526960, Note_on_c, 12, 59, 127
1, 526960, Note_on_c, 8, 68, 127
1, 527092, Note_off_c, 12, 59, 127
1, 527094, Note_on_c, 2, 62, 127
1, 527226, Note_off_c, 2, 62, 127
1, 527226, Note_off_c, 8, 68, 127
1, 527228, Note_on_c, 10, 57, 127
1, 527228, Note_on_c, 12, 71, 127
1, 527360, Note_off_c, 10, 57, 127
1, 527362, Note_on_c, 2, 62, 127
1, 527494, Note_off_c, 2, 62, 127
1, 527494, Note_off_c, 12, 71, 127
1, 527496, Note_on_c, 8, 56, 127
1, 527496, Note_on_c, 4, 64, 127
1, 527628, Note_off_c, 8, 56, 127
1, 527630, Note_on_c, 2, 62, 127
1, 527762, Note_off_c, 2, 62, 127
1, 527764, Note_on_c, 4, 52, 127
1, 527896, Note_off_c, 4, 52, 127
1, 527898, Note_on_c, 6, 54, 127
1, 528030, Note_off_c, 6, 54, 127
1, 528032, Note_on_c, 8, 56, 127
1, 528164, Note_off_c, 8, 56, 127
1, 528166, Note_on_c, 10, 57, 127
1, 528298, Note_off_c, 10, 57, 127
1, 528299, Note_off_c, 4, 64, 127
1, 528300, Note_on_c, 12, 59, 127
1, 528302, Note_off_c, 2, 74, 127
1, 528432, Note_off_c, 12, 59, 127
1, 528434, Note_on_c, 0, 60, 127
1, 528566, Note_off_c, 0, 60, 127
1, 528568, Note_on_c, 2, 62, 127
1, 528700, Note_off_c, 2, 62, 127
1, 528702, Note_on_c, 0, 60, 127
1, 528702, Note_on_c, 4, 64, 127
1, 528834, Note_off_c, 4, 64, 127
1, 528834, Note_off_c, 0, 60, 127
1, 528836, Note_on_c, 12, 59, 127
1, 528836, Note_on_c, 6, 66, 127
1, 528968, Note_off_c, 6, 66, 127
1, 528968, Note_off_c, 12, 59, 127
1, 528970, Note_on_c, 10, 57, 127
1, 528970, Note_on_c, 8, 68, 127
1, 529102, Note_off_c, 8, 68, 127
1, 529102, Note_off_c, 10, 57, 127
1, 529104, Note_on_c, 8, 56, 127
1, 529104, Note_on_c, 10, 69, 127
1, 529236, Note_off_c, 10, 69, 127
1, 529236, Note_off_c, 8, 56, 127
1, 529238, Note_on_c, 6, 54, 127
1, 529238, Note_on_c, 12, 71, 127
1, 529370, Note_off_c, 12, 71, 127
1, 529370, Note_off_c, 6, 54, 127
1, 529372, Note_on_c, 4, 52, 127
1, 529372, Note_on_c, 0, 72, 127
1, 529504, Note_off_c, 0, 72, 127
1, 529504, Note_off_c, 4, 52, 127
1, 529506, Note_on_c, 2, 50, 127
1, 529506, Note_on_c, 2, 74, 127
1, 529638, Note_off_c, 2, 74, 127
1, 529638, Note_off_c, 2, 50, 127
1, 529640, Note_on_c, 0, 48, 127
1, 529640, Note_on_c, 4, 76, 127
1, 529772, Note_off_c, 0, 48, 127
1, 529774, Note_on_c, 10, 45, 127
1, 529906, Note_off_c, 10, 45, 127
1, 529906, Note_off_c, 4, 76, 127
1, 529908, Note_on_c, 12, 47, 127
1, 529908, Note_on_c, 10, 69, 127
1, 529908, Note_on_c, 0, 72, 127
1, 529908, Note_on_c, 4, 76, 127
1, 530040, Note_off_c, 12, 47, 127
1, 530042, Note_on_c, 0, 48, 127
1, 530174, Note_off_c, 0, 48, 127
1, 530174, Note_off_c, 4, 76, 127
1, 530174, Note_off_c, 0, 72, 127
1, 530174, Note_off_c, 10, 69, 127
1, 530176, Note_on_c, 2, 50, 127
1, 530176, Note_on_c, 8, 68, 127
1, 530176, Note_on_c, 12, 71, 127
1, 530176, Note_on_c, 4, 76, 127
1, 530308, Note_off_c, 2, 50, 127
1, 530310, Note_on_c, 4, 52, 127
1, 530442, Note_off_c, 4, 52, 127
1, 530442, Note_off_c, 4, 76, 127
1, 530442, Note_off_c, 12, 71, 127
1, 530442, Note_off_c, 8, 68, 127
1, 530444, Note_on_c, 6, 54, 127
1, 530444, Note_on_c, 12, 71, 127
1, 530444, Note_on_c, 2, 74, 127
1, 530444, Note_on_c, 4, 64, 127
1, 530576, Note_off_c, 6, 54, 127
1, 530578, Note_on_c, 8, 56, 127
1, 530710, Note_off_c, 8, 56, 127
1, 530710, Note_off_c, 4, 64, 127
1, 530710, Note_off_c, 2, 74, 127
1, 530710, Note_off_c, 12, 71, 127
1, 530712, Note_on_c, 10, 57, 127
1, 530712, Note_on_c, 4, 64, 127
1, 530712, Note_on_c, 10, 69, 127
1, 530712, Note_on_c, 0, 72, 127
1, 530844, Note_off_c, 10, 57, 127
1, 530846, Note_on_c, 12, 59, 127
1, 530978, Note_off_c, 12, 59, 127
1, 530980, Note_on_c, 0, 60, 127
1, 531112, Note_off_c, 0, 60, 127
1, 531114, Note_on_c, 2, 62, 127
1, 531246, Note_off_c, 2, 62, 127
1, 531246, Note_off_c, 0, 72, 127
1, 531246, Note_off_c, 10, 69, 127
1, 531246, Note_off_c, 4, 64, 127
1, 531248, Note_on_c, 8, 68, 127
1, 531248, Note_on_c, 4, 64, 127
1, 531248, Note_on_c, 12, 71, 127
1, 531385, Note_on_c, 12, 59, 127
1, 531517, Note_off_c, 12, 59, 127
1, 531522, Note_on_c, 8, 56, 127
1, 531654, Note_off_c, 8, 56, 127
1, 531659, Note_on_c, 4, 52, 127
1, 531768, Note_off_c, 12, 71, 127
1, 531768, Note_off_c, 8, 68, 127
1, 531782, Note_off_c, 4, 64, 127
1, 531791, Note_off_c, 4, 52, 127
1, 531800, Note_on_c, 2, 74, 127
1, 531800, Note_on_c, 5, 53, 127
1, 531932, Note_off_c, 5, 53, 127
1, 531934, Note_on_c, 10, 69, 127
1, 531934, Note_on_c, 5, 65, 127
1, 532066, Note_off_c, 5, 65, 127
1, 532066, Note_off_c, 10, 69, 127
1, 532068, Note_on_c, 8, 68, 127
1, 532068, Note_on_c, 4, 64, 127
1, 532200, Note_off_c, 4, 64, 127
1, 532200, Note_off_c, 8, 68, 127
1, 532202, Note_on_c, 10, 69, 127
1, 532202, Note_on_c, 5, 65, 127
1, 532330, Note_off_c, 2, 74, 127
1, 532333, Note_off_c, 5, 65, 127
1, 532333, Note_off_c, 10, 69, 127
1, 532335, Note_on_c, 2, 74, 127
1, 532335, Note_on_c, 5, 53, 127
1, 532467, Note_off_c, 5, 53, 127
1, 532469, Note_on_c, 10, 69, 127
1, 532469, Note_on_c, 5, 65, 127
1, 532600, Note_off_c, 2, 74, 127
1, 532601, Note_off_c, 5, 65, 127
1, 532603, Note_on_c, 0, 72, 127
1, 532603, Note_on_c, 4, 52, 127
1, 532734, Note_off_c, 10, 69, 127
1, 532735, Note_off_c, 4, 52, 127
1, 532737, Note_on_c, 10, 69, 127
1, 532737, Note_on_c, 4, 64, 127
1, 532868, Note_off_c, 0, 72, 127
1, 532869, Note_off_c, 4, 64, 127
1, 532869, Note_off_c, 10, 69, 127
1, 532871, Note_on_c, 12, 71, 127
1, 532871, Note_on_c, 2, 50, 127
1, 533003, Note_off_c, 2, 50, 127
1, 533005, Note_on_c, 10, 69, 127
1, 533005, Note_on_c, 5, 53, 127
1, 533137, Note_off_c, 5, 53, 127
1, 533137, Note_off_c, 10, 69, 127
1, 533139, Note_on_c, 8, 68, 127
1, 533139, Note_on_c, 4, 52, 127
1, 533271, Note_off_c, 4, 52, 127
1, 533271, Note_off_c, 8, 68, 127
1, 533273, Note_on_c, 10, 69, 127
1, 533273, Note_on_c, 5, 53, 127
1, 533401, Note_off_c, 12, 71, 127
1, 533404, Note_off_c, 5, 53, 127
1, 533404, Note_off_c, 10, 69, 127
1, 533406, Note_on_c, 12, 71, 127
1, 533406, Note_on_c, 2, 50, 127
1, 533538, Note_off_c, 2, 50, 127
1, 533540, Note_on_c, 10, 69, 127
1, 533540, Note_on_c, 2, 62, 127
1, 533671, Note_off_c, 12, 71, 127
1, 533672, Note_off_c, 2, 62, 127
1, 533674, Note_on_c, 0, 72, 127
1, 533674, Note_on_c, 4, 52, 127
1, 533805, Note_off_c, 10, 69, 127
1, 533806, Note_off_c, 4, 52, 127
1, 533808, Note_on_c, 10, 69, 127
1, 533808, Note_on_c, 4, 64, 127
1, 533939, Note_off_c, 0, 72, 127
1, 533940, Note_off_c, 4, 64, 127
1, 533940, Note_off_c, 10, 69, 127
1, 533942, Note_on_c, 2, 74, 127
1, 533942, Note_on_c, 5, 53, 127
1, 534076, Note_on_c, 10, 57, 127
1, 534208, Note_off_c, 10, 57, 127
1, 534208, Note_off_c, 2, 74, 127
1, 534210, Note_on_c, 10, 81, 127
1, 534210, Note_on_c, 0, 72, 127
1, 534210, Note_on_c, 8, 56, 127
1, 534342, Note_off_c, 8, 56, 127
1, 534344, Note_on_c, 10, 57, 127
1, 534476, Note_off_c, 10, 57, 127
1, 534476, Note_off_c, 0, 72, 127
1, 534476, Note_off_c, 10, 81, 127
1, 534478, Note_on_c, 8, 80, 127
1, 534478, Note_on_c, 12, 71, 127
1, 534478, Note_on_c, 2, 62, 127
1, 534610, Note_off_c, 2, 62, 127
1, 534612, Note_on_c, 10, 57, 127
1, 534744, Note_off_c, 10, 57, 127
1, 534744, Note_off_c, 12, 71, 127
1, 534744, Note_off_c, 8, 80, 127
1, 534745, Note_off_c, 5, 53, 127
1, 534746, Note_on_c, 10, 81, 127
1, 534746, Note_on_c, 10, 69, 127
1, 534746, Note_on_c, 0, 60, 127
1, 534746, Note_on_c, 4, 52, 127
1, 534878, Note_off_c, 0, 60, 127
1, 534880, Note_on_c, 10, 57, 127
1, 535011, Note_off_c, 4, 52, 127
1, 535012, Note_off_c, 10, 57, 127
1, 535012, Note_off_c, 10, 69, 127
1, 535012, Note_off_c, 10, 81, 127
1, 535014, Note_on_c, 4, 76, 127
1, 535014, Note_on_c, 8, 68, 127
1, 535014, Note_on_c, 2, 50, 127
1, 535014, Note_on_c, 12, 59, 127
1, 535146, Note_off_c, 12, 59, 127
1, 535148, Note_on_c, 10, 57, 127
1, 535280, Note_off_c, 10, 57, 127
1, 535282, Note_on_c, 8, 56, 127
1, 535414, Note_off_c, 8, 56, 127
1, 535416, Note_on_c, 10, 57, 127
1, 535548, Note_off_c, 10, 57, 127
1, 535550, Note_on_c, 12, 59, 127
1, 535682, Note_off_c, 12, 59, 127
1, 535684, Note_on_c, 10, 57, 127
1, 535816, Note_off_c, 10, 57, 127
1, 535816, Note_off_c, 8, 68, 127
1, 535816, Note_off_c, 4, 76, 127
1, 535817, Note_off_c, 2, 50, 127
1, 535818, Note_on_c, 10, 69, 127
1, 535818, Note_on_c, 4, 76, 127
1, 535818, Note_on_c, 0, 60, 127
1, 535818, Note_on_c, 0, 48, 127
1, 535950, Note_off_c, 0, 60, 127
1, 535952, Note_on_c, 10, 57, 127
1, 536083, Note_off_c, 0, 48, 127
1, 536084, Note_off_c, 10, 57, 127
1, 536084, Note_off_c, 4, 76, 127
1, 536084, Note_off_c, 10, 69, 127
1, 536086, Note_on_c, 2, 74, 127
1, 536086, Note_on_c, 2, 62, 127
1, 536086, Note_on_c, 5, 53, 127
1, 536220, Note_on_c, 10, 69, 127
1, 536351, Note_off_c, 2, 74, 127
1, 536352, Note_off_c, 5, 53, 127
1, 536352, Note_off_c, 2, 62, 127
1, 536354, Note_on_c, 0, 72, 127
1, 536354, Note_on_c, 4, 52, 127
1, 536485, Note_off_c, 10, 69, 127
1, 536488, Note_on_c, 10, 69, 127
1, 536619, Note_off_c, 0, 72, 127
1, 536620, Note_off_c, 10, 69, 127
1, 536620, Note_off_c, 4, 52, 127
1, 536622, Note_on_c, 12, 71, 127
1, 536622, Note_on_c, 2, 50, 127
1, 536756, Note_on_c, 10, 69, 127
1, 536888, Note_off_c, 10, 69, 127
1, 536888, Note_off_c, 2, 50, 127
1, 536890, Note_on_c, 8, 68, 127
1, 536890, Note_on_c, 12, 47, 127
1, 537022, Note_off_c, 8, 68, 127
1, 537024, Note_on_c, 6, 66, 127
1, 537152, Note_off_c, 12, 71, 127
1, 537155, Note_off_c, 6, 66, 127
1, 537155, Note_off_c, 12, 47, 127
1, 537157, Note_on_c, 4, 64, 127
1, 537157, Note_on_c, 8, 44, 127
1, 537291, Note_on_c, 12, 71, 127
1, 537422, Note_off_c, 4, 64, 127
1, 537423, Note_off_c, 8, 44, 127
1, 537425, Note_on_c, 2, 62, 127
1, 537425, Note_on_c, 4, 40, 127
1, 537556, Note_off_c, 12, 71, 127
1, 537559, Note_on_c, 12, 71, 127
1, 537690, Note_off_c, 2, 62, 127
1, 537691, Note_off_c, 4, 40, 127
1, 537693, Note_on_c, 0, 60, 127
1, 537693, Note_on_c, 10, 45, 127
1, 537824, Note_off_c, 12, 71, 127
1, 537825, Note_off_c, 10, 45, 127
1, 537827, Note_on_c, 12, 71, 127
1, 537827, Note_on_c, 12, 47, 127
1, 537959, Note_off_c, 12, 47, 127
1, 537959, Note_off_c, 12, 71, 127
1, 537961, Note_on_c, 10, 69, 127
1, 537961, Note_on_c, 0, 48, 127
1, 538093, Note_off_c, 0, 48, 127
1, 538093, Note_off_c, 10, 69, 127
1, 538095, Note_on_c, 8, 68, 127
1, 538095, Note_on_c, 2, 50, 127
1, 538227, Note_off_c, 2, 50, 127
1, 538227, Note_off_c, 8, 68, 127
1, 538229, Note_on_c, 10, 69, 127
1, 538229, Note_on_c, 4, 52, 127
1, 538361, Note_off_c, 4, 52, 127
1, 538363, Note_on_c, 2, 50, 127
1, 538495, Note_off_c, 2, 50, 127
1, 538495, Note_off_c, 10, 69, 127
1, 538496, Note_off_c, 0, 60, 127
1, 538497, Note_on_c, 4, 76, 127
1, 538497, Note_on_c, 10, 69, 127
1, 538497, Note_on_c, 0, 72, 127
1, 538497, Note_on_c, 4, 64, 127
1, 538497, Note_on_c, 0, 48, 127
1, 538629, Note_off_c, 0, 48, 127
1, 538631, Note_on_c, 2, 50, 127
1, 538763, Note_off_c, 2, 50, 127
1, 538763, Note_off_c, 4, 64, 127
1, 538763, Note_off_c, 0, 72, 127
1, 538763, Note_off_c, 10, 69, 127
1, 538763, Note_off_c, 4, 76, 127
1, 538765, Note_on_c, 0, 72, 127
1, 538765, Note_on_c, 10, 69, 127
1, 538765, Note_on_c, 4, 64, 127
1, 538765, Note_on_c, 4, 52, 127
1, 539031, Note_off_c, 4, 52, 127
1, 539031, Note_off_c, 4, 64, 127
1, 539031, Note_off_c, 10, 69, 127
1, 539031, Note_off_c, 0, 72, 127
1, 539033, Note_on_c, 12, 71, 127
1, 539033, Note_on_c, 2, 62, 127
1, 539033, Note_on_c, 8, 68, 127
1, 539033, Note_on_c, 4, 40, 127
1, 539165, Note_off_c, 8, 68, 127
1, 539165, Note_off_c, 12, 71, 127
1, 539167, Note_on_c, 10, 69, 127
1, 539298, Note_off_c, 2, 62, 127
1, 539299, Note_off_c, 10, 69, 127
1, 539299, Note_off_c, 4, 40, 127
1, 539301, Note_on_c, 10, 69, 127
1, 539301, Note_on_c, 4, 64, 127
1, 539301, Note_on_c, 0, 60, 127
1, 539301, Note_on_c, 10, 33, 127
1, 539456, Note_on_c, 10, 45, 127
1, 539501, Note_off_c, 10, 33, 127
1, 539593, Note_off_c, 10, 45, 127
1, 539595, Note_on_c, 12, 47, 127
1, 539732, Note_off_c, 12, 47, 127
1, 539734, Note_on_c, 0, 48, 127
1, 539871, Note_off_c, 0, 48, 127
1, 539873, Note_on_c, 2, 50, 127
1, 540010, Note_off_c, 2, 50, 127
1, 540012, Note_on_c, 4, 52, 127
1, 540061, Note_off_c, 0, 60, 127
1, 540097, Note_off_c, 4, 64, 127
1, 540133, Note_off_c, 10, 69, 127
1, 540148, Note_off_c, 4, 52, 127
1, 540150, Note_on_c, 5, 53, 127
1, 540287, Note_off_c, 5, 53, 127
1, 540289, Note_on_c, 7, 55, 127
1, 540426, Note_off_c, 7, 55, 127
1, 540428, Note_on_c, 10, 57, 127
1, 540560, Note_on_c, 12, 59, 127
1, 540690, Note_off_c, 12, 59, 127
1, 540692, Note_on_c, 0, 60, 127
1, 540824, Note_on_c, 2, 62, 127
1, 540954, Note_off_c, 2, 62, 127
1, 540956, Note_on_c, 4, 64, 127
1, 541086, Note_off_c, 4, 64, 127
1, 541088, Note_on_c, 5, 65, 127
1, 541218, Note_off_c, 5, 65, 127
1, 541220, Note_on_c, 7, 67, 127
1, 541350, Note_off_c, 7, 67, 127
1, 541352, Note_on_c, 10, 69, 127
1, 541480, Note_off_c, 10, 57, 127
1, 541482, Note_off_c, 10, 69, 127
1, 541483, Note_off_c, 0, 60, 127
1, 541484, Note_on_c, 7, 55, 127
1, 541484, Note_on_c, 11, 70, 127
1, 541616, Note_on_c, 0, 72, 127
1, 541746, Note_off_c, 0, 72, 127
1, 541748, Note_on_c, 2, 74, 127
1, 541878, Note_off_c, 2, 74, 127
1, 541880, Note_on_c, 4, 76, 127
1, 542007, Note_off_c, 11, 70, 127
1, 542010, Note_off_c, 4, 76, 127
1, 542012, Note_on_c, 11, 58, 127
1, 542012, Note_on_c, 5, 77, 127
1, 542142, Note_off_c, 5, 77, 127
1, 542144, Note_on_c, 7, 79, 127
1, 542274, Note_off_c, 7, 79, 127
1, 542276, Note_on_c, 10, 81, 127
1, 542406, Note_off_c, 10, 81, 127
1, 542408, Note_on_c, 11, 82, 127
1, 542536, Note_off_c, 7, 55, 127
1, 542538, Note_off_c, 11, 82, 127
1, 542538, Note_off_c, 11, 58, 127
1, 542540, Note_on_c, 5, 53, 127
1, 542540, Note_on_c, 10, 57, 127
1, 542540, Note_on_c, 0, 84, 127
1, 542672, Note_off_c, 10, 57, 127
1, 542672, Note_off_c, 5, 53, 127
1, 542674, Note_on_c, 5, 41, 127
1, 542806, Note_off_c, 5, 41, 127
1, 542806, Note_off_c, 0, 84, 127
1, 542808, Note_on_c, 7, 43, 127
1, 542808, Note_on_c, 5, 77, 127
1, 542808, Note_on_c, 10, 81, 127
1, 542808, Note_on_c, 0, 84, 127
1, 542940, Note_off_c, 7, 43, 127
1, 542942, Note_on_c, 10, 45, 127
1, 543074, Note_off_c, 10, 45, 127
1, 543074, Note_off_c, 0, 84, 127
1, 543074, Note_off_c, 10, 81, 127
1, 543074, Note_off_c, 5, 77, 127
1, 543076, Note_on_c, 11, 46, 127
1, 543076, Note_on_c, 0, 84, 127
1, 543076, Note_on_c, 4, 76, 127
1, 543076, Note_on_c, 7, 79, 127
1, 543208, Note_off_c, 11, 46, 127
1, 543210, Note_on_c, 0, 48, 127
1, 543342, Note_off_c, 0, 48, 127
1, 543342, Note_off_c, 7, 79, 127
1, 543342, Note_off_c, 4, 76, 127
1, 543342, Note_off_c, 0, 84, 127
1, 543344, Note_on_c, 2, 50, 127
1, 543344, Note_on_c, 0, 72, 127
1, 543344, Note_on_c, 7, 79, 127
1, 543344, Note_on_c, 11, 82, 127
1, 543476, Note_off_c, 2, 50, 127
1, 543478, Note_on_c, 4, 52, 127
1, 543610, Note_off_c, 4, 52, 127
1, 543610, Note_off_c, 11, 82, 127
1, 543610, Note_off_c, 7, 79, 127
1, 543610, Note_off_c, 0, 72, 127
1, 543612, Note_on_c, 5, 53, 127
1, 543612, Note_on_c, 0, 72, 127
1, 543612, Note_on_c, 10, 81, 127
1, 543612, Note_on_c, 5, 77, 127
1, 543744, Note_off_c, 5, 53, 127
1, 543746, Note_on_c, 7, 55, 127
1, 543878, Note_off_c, 7, 55, 127
1, 543880, Note_on_c, 10, 57, 127
1, 544012, Note_off_c, 10, 57, 127
1, 544014, Note_on_c, 11, 58, 127
1, 544146, Note_off_c, 11, 58, 127
1, 544146, Note_off_c, 5, 77, 127
1, 544146, Note_off_c, 10, 81, 127
1, 544146, Note_off_c, 0, 72, 127
1, 544148, Note_on_c, 0, 60, 127
1, 544148, Note_on_c, 4, 76, 127
1, 544148, Note_on_c, 0, 72, 127
1, 544148, Note_on_c, 7, 79, 127
1, 544280, Note_off_c, 0, 60, 127
1, 544282, Note_on_c, 2, 62, 127
1, 544414, Note_off_c, 2, 62, 127
1, 544416, Note_on_c, 4, 64, 127
1, 544548, Note_off_c, 4, 64, 127
1, 544550, Note_on_c, 0, 60, 127
1, 544664, Note_off_c, 7, 79, 127
1, 544664, Note_off_c, 4, 76, 127
1, 544681, Note_off_c, 0, 60, 127
1, 544691, Note_on_c, 5, 65, 127
1, 544818, Note_off_c, 0, 72, 127
1, 544825, Note_on_c, 10, 69, 127
1, 544957, Note_off_c, 10, 69, 127
1, 544957, Note_off_c, 5, 65, 127
1, 544959, Note_on_c, 0, 60, 127
1, 544959, Note_on_c, 5, 65, 127
1, 545091, Note_off_c, 5, 65, 127
1, 545093, Note_on_c, 10, 69, 127
1, 545225, Note_off_c, 10, 69, 127
1, 545225, Note_off_c, 0, 60, 127
1, 545227, Note_on_c, 10, 57, 127
1, 545227, Note_on_c, 0, 72, 127
1, 545361, Note_on_c, 10, 69, 127
1, 545381, Note_off_c, 0, 72, 127
1, 545493, Note_off_c, 10, 69, 127
1, 545493, Note_off_c, 10, 57, 127
1, 545495, Note_on_c, 5, 53, 127
1, 545495, Note_on_c, 3, 75, 127
1, 545629, Note_on_c, 10, 69, 127
1, 545649, Note_off_c, 3, 75, 127
1, 545761, Note_off_c, 10, 69, 127
1, 545761, Note_off_c, 5, 53, 127
1, 545763, Note_on_c, 5, 65, 127
1, 545763, Note_on_c, 2, 74, 127
1, 545895, Note_off_c, 2, 74, 127
1, 545897, Note_on_c, 11, 70, 127
1, 546029, Note_off_c, 11, 70, 127
1, 546029, Note_off_c, 5, 65, 127
1, 546031, Note_on_c, 2, 62, 127
1, 546031, Note_on_c, 5, 65, 127
1, 546163, Note_off_c, 5, 65, 127
1, 546165, Note_on_c, 11, 70, 127
1, 546297, Note_off_c, 11, 70, 127
1, 546297, Note_off_c, 2, 62, 127
1, 546299, Note_on_c, 11, 58, 127
1, 546299, Note_on_c, 2, 74, 127
1, 546433, Note_on_c, 11, 70, 127
1, 546453, Note_off_c, 2, 74, 127
1, 546565, Note_off_c, 11, 70, 127
1, 546565, Note_off_c, 11, 58, 127
1, 546567, Note_on_c, 5, 53, 127
1, 546567, Note_on_c, 5, 77, 127
1, 546701, Note_on_c, 11, 70, 127
1, 546721, Note_off_c, 5, 77, 127
1, 546833, Note_off_c, 11, 70, 127
1, 546833, Note_off_c, 5, 53, 127
1, 546835, Note_on_c, 5, 65, 127
1, 546835, Note_on_c, 0, 72, 127
1, 546967, Note_off_c, 0, 72, 127
1, 546969, Note_on_c, 10, 69, 127
1, 547101, Note_off_c, 10, 69, 127
1, 547101, Note_off_c, 5, 65, 127
1, 547103, Note_on_c, 0, 60, 127
1, 547103, Note_on_c, 5, 65, 127
1, 547235, Note_off_c, 5, 65, 127
1, 547237, Note_on_c, 10, 69, 127
1, 547369, Note_off_c, 10, 69, 127
1, 547369, Note_off_c, 0, 60, 127
1, 547371, Note_on_c, 10, 57, 127
1, 547371, Note_on_c, 0, 72, 127
1, 547505, Note_on_c, 10, 69, 127
1, 547525, Note_off_c, 0, 72, 127
1, 547637, Note_off_c, 10, 69, 127
1, 547637, Note_off_c, 10, 57, 127
1, 547639, Note_on_c, 5, 53, 127
1, 547639, Note_on_c, 3, 75, 127
1, 547773, Note_on_c, 10, 69, 127
1, 547793, Note_off_c, 3, 75, 127
1, 547905, Note_off_c, 10, 69, 127
1, 547905, Note_off_c, 5, 53, 127
1, 547907, Note_on_c, 11, 58, 127
1, 547907, Note_on_c, 2, 74, 127
1, 548039, Note_off_c, 2, 74, 127
1, 548041, Note_on_c, 11, 70, 127
1, 548173, Note_off_c, 11, 70, 127
1, 548175, Note_on_c, 5, 65, 127
1, 548307, Note_off_c, 5, 65, 127
1, 548309, Note_on_c, 11, 70, 127
1, 548441, Note_off_c, 11, 70, 127
1, 548443, Note_on_c, 2, 74, 127
1, 548575, Note_off_c, 11, 58, 127
1, 548577, Note_on_c, 0, 60, 127
1, 548709, Note_off_c, 0, 60, 127
1, 548711, Note_on_c, 11, 58, 127
1, 548843, Note_off_c, 11, 58, 127
1, 548845, Note_on_c, 10, 57, 127
1, 548977, Note_off_c, 10, 57, 127
1, 548979, Note_on_c, 7, 55, 127
1, 549111, Note_off_c, 2, 74, 127
1, 549113, Note_on_c, 12, 71, 127
1, 549245, Note_off_c, 12, 71, 127
1, 549245, Note_off_c, 7, 55, 127
1, 549247, Note_on_c, 2, 50, 127
1, 549247, Note_on_c, 7, 67, 127
1, 549379, Note_off_c, 7, 67, 127
1, 549381, Note_on_c, 12, 71, 127
1, 549513, Note_off_c, 12, 71, 127
1, 549513, Note_off_c, 2, 50, 127
1, 549515, Note_on_c, 12, 47, 127
1, 549515, Note_on_c, 2, 74, 127
1, 549649, Note_on_c, 12, 71, 127
1, 549696, Note_off_c, 2, 74, 127
1, 549780, Note_off_c, 12, 71, 127
1, 549780, Note_off_c, 12, 47, 127
1, 549782, Note_on_c, 7, 43, 127
1, 549782, Note_on_c, 5, 77, 127
1, 549916, Note_on_c, 12, 71, 127
1, 549963, Note_off_c, 5, 77, 127
1, 550047, Note_off_c, 12, 71, 127
1, 550047, Note_off_c, 7, 43, 127
1, 550049, Note_on_c, 7, 55, 127
1, 550049, Note_on_c, 4, 76, 127
1, 550181, Note_off_c, 4, 76, 127
1, 550183, Note_on_c, 0, 72, 127
1, 550315, Note_off_c, 0, 72, 127
1, 550315, Note_off_c, 7, 55, 127
1, 550317, Note_on_c, 4, 52, 127
1, 550317, Note_on_c, 7, 67, 127
1, 550449, Note_off_c, 7, 67, 127
1, 550451, Note_on_c, 0, 72, 127
1, 550583, Note_off_c, 0, 72, 127
1, 550583, Note_off_c, 4, 52, 127
1, 550585, Note_on_c, 0, 48, 127
1, 550585, Note_on_c, 4, 76, 127
1, 550719, Note_on_c, 0, 72, 127
1, 550766, Note_off_c, 4, 76, 127
1, 550850, Note_off_c, 0, 72, 127
1, 550850, Note_off_c, 0, 48, 127
1, 550852, Note_on_c, 7, 43, 127
1, 550852, Note_on_c, 7, 79, 127
1, 550986, Note_on_c, 0, 72, 127
1, 551033, Note_off_c, 7, 79, 127
1, 551117, Note_off_c, 0, 72, 127
1, 551117, Note_off_c, 7, 43, 127
1, 551119, Note_on_c, 7, 55, 127
1, 551119, Note_on_c, 2, 74, 127
1, 551251, Note_off_c, 2, 74, 127
1, 551253, Note_on_c, 12, 71, 127
1, 551385, Note_off_c, 12, 71, 127
1, 551385, Note_off_c, 7, 55, 127
1, 551387, Note_on_c, 2, 50, 127
1, 551387, Note_on_c, 7, 67, 127
1, 551519, Note_off_c, 7, 67, 127
1, 551521, Note_on_c, 12, 71, 127
1, 551653, Note_off_c, 12, 71, 127
1, 551653, Note_off_c, 2, 50, 127
1, 551655, Note_on_c, 12, 47, 127
1, 551655, Note_on_c, 2, 74, 127
1, 551789, Note_on_c, 12, 71, 127
1, 551836, Note_off_c, 2, 74, 127
1, 551920, Note_off_c, 12, 71, 127
1, 551920, Note_off_c, 12, 47, 127
1, 551922, Note_on_c, 7, 43, 127
1, 551922, Note_on_c, 5, 77, 127
1, 552056, Note_on_c, 12, 71, 127
1, 552103, Note_off_c, 5, 77, 127
1, 552187, Note_off_c, 12, 71, 127
1, 552187, Note_off_c, 7, 43, 127
1, 552189, Note_on_c, 0, 48, 127
1, 552189, Note_on_c, 4, 76, 127
1, 552321, Note_off_c, 4, 76, 127
1, 552321, Note_off_c, 0, 48, 127
1, 552323, Note_on_c, 0, 60, 127
1, 552323, Note_on_c, 0, 72, 127
1, 552455, Note_off_c, 0, 72, 127
1, 552455, Note_off_c, 0, 60, 127
1, 552457, Note_on_c, 12, 59, 127
1, 552457, Note_on_c, 7, 67, 127
1, 552589, Note_off_c, 7, 67, 127
1, 552589, Note_off_c, 12, 59, 127
1, 552591, Note_on_c, 10, 57, 127
1, 552591, Note_on_c, 0, 72, 127
1, 552723, Note_off_c, 0, 72, 127
1, 552723, Note_off_c, 10, 57, 127
1, 552725, Note_on_c, 7, 55, 127
1, 552725, Note_on_c, 4, 76, 127
1, 552857, Note_off_c, 4, 76, 127
1, 552857, Note_off_c, 7, 55, 127
1, 552859, Note_on_c, 5, 53, 127
1, 552859, Note_on_c, 0, 72, 127
1, 552991, Note_off_c, 0, 72, 127
1, 552991, Note_off_c, 5, 53, 127
1, 552993, Note_on_c, 4, 52, 127
1, 552993, Note_on_c, 5, 77, 127
1, 553125, Note_off_c, 5, 77, 127
1, 553125, Note_off_c, 4, 52, 127
1, 553127, Note_on_c, 2, 50, 127
1, 553127, Note_on_c, 0, 72, 127
1, 553259, Note_off_c, 0, 72, 127
1, 553259, Note_off_c, 2, 50, 127
1, 553261, Note_on_c, 0, 48, 127
1, 553261, Note_on_c, 7, 79, 127
1, 553395, Note_on_c, 4, 76, 127
1, 553527, Note_off_c, 4, 76, 127
1, 553527, Note_off_c, 0, 48, 127
1, 553529, Note_on_c, 7, 43, 127
1, 553529, Note_on_c, 0, 72, 127
1, 553661, Note_off_c, 0, 72, 127
1, 553662, Note_off_c, 7, 79, 127
1, 553663, Note_on_c, 4, 76, 127
1, 553795, Note_off_c, 4, 76, 127
1, 553795, Note_off_c, 7, 43, 127
1, 553797, Note_on_c, 4, 40, 127
1, 553797, Note_on_c, 7, 79, 127
1, 553931, Note_on_c, 4, 76, 127
1, 554062, Note_off_c, 7, 79, 127
1, 554063, Note_off_c, 4, 76, 127
1, 554063, Note_off_c, 4, 40, 127
1, 554065, Note_on_c, 0, 36, 127
1, 554065, Note_on_c, 11, 82, 127
1, 554199, Note_on_c, 4, 76, 127
1, 554330, Note_off_c, 11, 82, 127
1, 554331, Note_off_c, 4, 76, 127
1, 554331, Note_off_c, 0, 36, 127
1, 554333, Note_on_c, 0, 48, 127
1, 554333, Note_on_c, 10, 81, 127
1, 554467, Note_on_c, 5, 77, 127
1, 554599, Note_off_c, 5, 77, 127
1, 554599, Note_off_c, 0, 48, 127
1, 554601, Note_on_c, 10, 45, 127
1, 554601, Note_on_c, 0, 72, 127
1, 554733, Note_off_c, 0, 72, 127
1, 554734, Note_off_c, 10, 81, 127
1, 554735, Note_on_c, 5, 77, 127
1, 554867, Note_off_c, 5, 77, 127
1, 554867, Note_off_c, 10, 45, 127
1, 554869, Note_on_c, 5, 41, 127
1, 554869, Note_on_c, 10, 81, 127
1, 555003, Note_on_c, 5, 77, 127
1, 555134, Note_off_c, 10, 81, 127
1, 555135, Note_off_c, 5, 77, 127
1, 555135, Note_off_c, 5, 41, 127
1, 555137, Note_on_c, 0, 36, 127
1, 555137, Note_on_c, 0, 84, 127
1, 555271, Note_on_c, 5, 77, 127
1, 555402, Note_off_c, 0, 84, 127
1, 555403, Note_off_c, 5, 77, 127
1, 555403, Note_off_c, 0, 36, 127
1, 555405, Note_on_c, 0, 48, 127
1, 555405, Note_on_c, 7, 79, 127
1, 555539, Note_on_c, 4, 76, 127
1, 555671, Note_off_c, 4, 76, 127
1, 555671, Note_off_c, 0, 48, 127
1, 555673, Note_on_c, 7, 43, 127
1, 555673, Note_on_c, 0, 72, 127
1, 555805, Note_off_c, 0, 72, 127
1, 555806, Note_off_c, 7, 79, 127
1, 555807, Note_on_c, 4, 76, 127
1, 555939, Note_off_c, 4, 76, 127
1, 555939, Note_off_c, 7, 43, 127
1, 555941, Note_on_c, 4, 40, 127
1, 555941, Note_on_c, 7, 79, 127
1, 556075, Note_on_c, 4, 76, 127
1, 556206, Note_off_c, 7, 79, 127
1, 556207, Note_off_c, 4, 76, 127
1, 556207, Note_off_c, 4, 40, 127
1, 556209, Note_on_c, 0, 36, 127
1, 556209, Note_on_c, 11, 82, 127
1, 556343, Note_on_c, 4, 76, 127
1, 556376, Note_off_c, 11, 82, 127
1, 556474, Note_off_c, 4, 76, 127
1, 556474, Note_off_c, 0, 36, 127
1, 556476, Note_on_c, 5, 41, 127
1, 556476, Note_on_c, 10, 81, 127
1, 556608, Note_off_c, 10, 81, 127
1, 556610, Note_on_c, 5, 77, 127
1, 556742, Note_off_c, 5, 77, 127
1, 556744, Note_on_c, 0, 72, 127
1, 556876, Note_off_c, 0, 72, 127
1, 556878, Note_on_c, 10, 69, 127
1, 557010, Note_off_c, 10, 69, 127
1, 557011, Note_off_c, 5, 41, 127
1, 557012, Note_on_c, 5, 65, 127
1, 557146, Note_on_c, 5, 41, 127
1, 557278, Note_off_c, 5, 41, 127
1, 557280, Note_on_c, 7, 43, 127
1, 557412, Note_off_c, 7, 43, 127
1, 557414, Note_on_c, 10, 45, 127
1, 557546, Note_off_c, 10, 45, 127
1, 557548, Note_on_c, 11, 46, 127
1, 557680, Note_off_c, 11, 46, 127
1, 557680, Note_off_c, 5, 65, 127
1, 557682, Note_on_c, 0, 48, 127
1, 557682, Note_on_c, 10, 69, 127
1, 557814, Note_off_c, 10, 69, 127
1, 557814, Note_off_c, 0, 48, 127
1, 557816, Note_on_c, 2, 50, 127
1, 557816, Note_on_c, 11, 70, 127
1, 557948, Note_off_c, 11, 70, 127
1, 557948, Note_off_c, 2, 50, 127
1, 557950, Note_on_c, 4, 52, 127
1, 557950, Note_on_c, 0, 72, 127
1, 558082, Note_off_c, 0, 72, 127
1, 558082, Note_off_c, 4, 52, 127
1, 558084, Note_on_c, 5, 53, 127
1, 558084, Note_on_c, 11, 70, 127
1, 558216, Note_off_c, 11, 70, 127
1, 558216, Note_off_c, 5, 53, 127
1, 558218, Note_on_c, 7, 55, 127
1, 558218, Note_on_c, 10, 69, 127
1, 558350, Note_off_c, 10, 69, 127
1, 558350, Note_off_c, 7, 55, 127
1, 558352, Note_on_c, 10, 57, 127
1, 558352, Note_on_c, 7, 67, 127
1, 558484, Note_off_c, 7, 67, 127
1, 558484, Note_off_c, 10, 57, 127
1, 558486, Note_on_c, 11, 58, 127
1, 558486, Note_on_c, 5, 65, 127
1, 558618, Note_off_c, 5, 65, 127
1, 558618, Note_off_c, 11, 58, 127
1, 558620, Note_on_c, 0, 60, 127
1, 558620, Note_on_c, 3, 75, 127
1, 558752, Note_off_c, 3, 75, 127
1, 558752, Note_off_c, 0, 60, 127
1, 558754, Note_on_c, 10, 57, 127
1, 558754, Note_on_c, 0, 72, 127
1, 558886, Note_off_c, 0, 72, 127
1, 558886, Note_off_c, 10, 57, 127
1, 558888, Note_on_c, 5, 53, 127
1, 558888, Note_on_c, 2, 74, 127
1, 559020, Note_off_c, 5, 53, 127
1, 559022, Note_on_c, 10, 57, 127
1, 559154, Note_off_c, 10, 57, 127
1, 559156, Note_on_c, 11, 58, 127
1, 559223, Note_off_c, 2, 74, 127
1, 559288, Note_off_c, 11, 58, 127
1, 559290, Note_on_c, 2, 62, 127
1, 559290, Note_on_c, 11, 70, 127
1, 559422, Note_off_c, 11, 70, 127
1, 559422, Note_off_c, 2, 62, 127
1, 559424, Note_on_c, 0, 60, 127
1, 559424, Note_on_c, 10, 69, 127
1, 559556, Note_off_c, 10, 69, 127
1, 559556, Note_off_c, 0, 60, 127
1, 559558, Note_on_c, 2, 62, 127
1, 559558, Note_on_c, 11, 70, 127
1, 559690, Note_off_c, 11, 70, 127
1, 559690, Note_off_c, 2, 62, 127
1, 559692, Note_on_c, 7, 55, 127
1, 559692, Note_on_c, 4, 76, 127
1, 559824, Note_off_c, 4, 76, 127
1, 559826, Note_on_c, 11, 70, 127
1, 559958, Note_off_c, 11, 70, 127
1, 559958, Note_off_c, 7, 55, 127
1, 559960, Note_on_c, 11, 58, 127
1, 559960, Note_on_c, 5, 77, 127
1, 560092, Note_off_c, 5, 77, 127
1, 560094, Note_on_c, 11, 70, 127
1, 560226, Note_off_c, 11, 70, 127
1, 560226, Note_off_c, 11, 58, 127
1, 560228, Note_on_c, 4, 64, 127
1, 560228, Note_on_c, 7, 79, 127
1, 560360, Note_off_c, 7, 79, 127
1, 560362, Note_on_c, 11, 70, 127
1, 560494, Note_off_c, 11, 70, 127
1, 560494, Note_off_c, 4, 64, 127
1, 560496, Note_on_c, 0, 60, 127
1, 560496, Note_on_c, 10, 69, 127
1, 560628, Note_off_c, 10, 69, 127
1, 560630, Note_on_c, 7, 67, 127
1, 560762, Note_off_c, 7, 67, 127
1, 560762, Note_off_c, 0, 60, 127
1, 560764, Note_on_c, 5, 65, 127
1, 560764, Note_on_c, 10, 69, 127
1, 560896, Note_off_c, 10, 69, 127
1, 560898, Note_on_c, 0, 72, 127
1, 561030, Note_off_c, 0, 72, 127
1, 561030, Note_off_c, 5, 65, 127
1, 561032, Note_on_c, 0, 60, 127
1, 561032, Note_on_c, 11, 70, 127
1, 561164, Note_off_c, 11, 70, 127
1, 561166, Note_on_c, 10, 69, 127
1, 561298, Note_off_c, 10, 69, 127
1, 561298, Note_off_c, 0, 60, 127
1, 561300, Note_on_c, 10, 57, 127
1, 561300, Note_on_c, 11, 70, 127
1, 561432, Note_off_c, 11, 70, 127
1, 561434, Note_on_c, 10, 69, 127
1, 561566, Note_off_c, 10, 69, 127
1, 561566, Note_off_c, 10, 57, 127
1, 561568, Note_on_c, 0, 60, 127
1, 561568, Note_on_c, 7, 67, 127
1, 561700, Note_off_c, 7, 67, 127
1, 561702, Note_on_c, 10, 69, 127
1, 561834, Note_off_c, 10, 69, 127
1, 561834, Note_off_c, 0, 60, 127
1, 561836, Note_on_c, 5, 53, 127
1, 561836, Note_on_c, 5, 65, 127
1, 561978, Note_off_c, 5, 53, 127
1, 561978, Note_on_c, 10, 45, 127
1, 562102, Note_off_c, 5, 65, 127
1, 562110, Note_off_c, 10, 45, 127
1, 562112, Note_on_c, 11, 46, 127
1, 562112, Note_on_c, 10, 69, 127
1, 562244, Note_off_c, 11, 46, 127
1, 562246, Note_on_c, 0, 48, 127
1, 562378, Note_off_c, 0, 48, 127
1, 562378, Note_off_c, 10, 69, 127
1, 562380, Note_on_c, 11, 46, 127
1, 562380, Note_on_c, 0, 72, 127
1, 562512, Note_off_c, 11, 46, 127
1, 562514, Note_on_c, 10, 45, 127
1, 562646, Note_off_c, 10, 45, 127
1, 562646, Note_off_c, 0, 72, 127
1, 562648, Note_on_c, 7, 43, 127
1, 562648, Note_on_c, 10, 69, 127
1, 562780, Note_off_c, 7, 43, 127
1, 562782, Note_on_c, 5, 41, 127
1, 562914, Note_off_c, 5, 41, 127
1, 562914, Note_off_c, 10, 69, 127
1, 562916, Note_on_c, 3, 51, 127
1, 562916, Note_on_c, 5, 65, 127
1, 563048, Note_off_c, 3, 51, 127
1, 563050, Note_on_c, 0, 48, 127
1, 563182, Note_off_c, 0, 48, 127
1, 563182, Note_off_c, 5, 65, 127
1, 563184, Note_on_c, 2, 50, 127
1, 563184, Note_on_c, 11, 70, 127
1, 563316, Note_off_c, 11, 70, 127
1, 563318, Note_on_c, 0, 72, 127
1, 563450, Note_off_c, 0, 72, 127
1, 563452, Note_on_c, 2, 74, 127
1, 563584, Note_off_c, 2, 50, 127
1, 563586, Note_on_c, 11, 46, 127
1, 563718, Note_off_c, 11, 46, 127
1, 563718, Note_off_c, 2, 74, 127
1, 563720, Note_on_c, 10, 45, 127
1, 563720, Note_on_c, 5, 65, 127
1, 563852, Note_off_c, 10, 45, 127
1, 563854, Note_on_c, 11, 46, 127
1, 563986, Note_off_c, 11, 46, 127
1, 563986, Note_off_c, 5, 65, 127
1, 563988, Note_on_c, 4, 52, 127
1, 563988, Note_on_c, 7, 67, 127
1, 564120, Note_off_c, 4, 52, 127
1, 564122, Note_on_c, 11, 46, 127
1, 564254, Note_off_c, 11, 46, 127
1, 564254, Note_off_c, 7, 67, 127
1, 564256, Note_on_c, 5, 53, 127
1, 564256, Note_on_c, 11, 70, 127
1, 564388, Note_off_c, 5, 53, 127
1, 564390, Note_on_c, 11, 46, 127
1, 564522, Note_off_c, 11, 46, 127
1, 564522, Note_off_c, 11, 70, 127
1, 564524, Note_on_c, 7, 55, 127
1, 564524, Note_on_c, 4, 76, 127
1, 564656, Note_off_c, 7, 55, 127
1, 564658, Note_on_c, 11, 46, 127
1, 564790, Note_off_c, 11, 46, 127
1, 564790, Note_off_c, 4, 76, 127
1, 564792, Note_on_c, 10, 45, 127
1, 564792, Note_on_c, 0, 72, 127
1, 564924, Note_off_c, 10, 45, 127
1, 564926, Note_on_c, 7, 43, 127
1, 565058, Note_off_c, 7, 43, 127
1, 565058, Note_off_c, 0, 72, 127
1, 565060, Note_on_c, 10, 45, 127
1, 565060, Note_on_c, 5, 77, 127
1, 565192, Note_off_c, 5, 77, 127
1, 565192, Note_off_c, 10, 45, 127
1, 565194, Note_on_c, 0, 48, 127
1, 565194, Note_on_c, 10, 69, 127
1, 565326, Note_off_c, 10, 69, 127
1, 565326, Note_off_c, 0, 48, 127
1, 565328, Note_on_c, 11, 46, 127
1, 565328, Note_on_c, 7, 67, 127
1, 565460, Note_off_c, 7, 67, 127
1, 565460, Note_off_c, 11, 46, 127
1, 565462, Note_on_c, 10, 45, 127
1, 565462, Note_on_c, 5, 65, 127
1, 565594, Note_off_c, 5, 65, 127
1, 565594, Note_off_c, 10, 45, 127
1, 565596, Note_on_c, 11, 46, 127
1, 565596, Note_on_c, 2, 74, 127
1, 565728, Note_off_c, 2, 74, 127
1, 565728, Note_off_c, 11, 46, 127
1, 565730, Note_on_c, 10, 45, 127
1, 565730, Note_on_c, 0, 72, 127
1, 565862, Note_off_c, 0, 72, 127
1, 565862, Note_off_c, 10, 45, 127
1, 565864, Note_on_c, 7, 43, 127
1, 565864, Note_on_c, 11, 70, 127
1, 565996, Note_off_c, 11, 70, 127
1, 565996, Note_off_c, 7, 43, 127
1, 565998, Note_on_c, 10, 45, 127
1, 565998, Note_on_c, 0, 72, 127
1, 566130, Note_off_c, 0, 72, 127
1, 566130, Note_off_c, 10, 45, 127
1, 566140, Note_on_c, 5, 41, 127
1, 566140, Note_on_c, 10, 69, 127
1, 566274, Note_on_c, 5, 65, 127
1, 566406, Note_off_c, 5, 65, 127
1, 566406, Note_off_c, 5, 41, 127
1, 566408, Note_on_c, 10, 45, 127
1, 566408, Note_on_c, 3, 63, 127
1, 566540, Note_off_c, 3, 63, 127
1, 566542, Note_on_c, 2, 62, 127
1, 566674, Note_off_c, 2, 62, 127
1, 566674, Note_off_c, 10, 45, 127
1, 566676, Note_on_c, 0, 48, 127
1, 566676, Note_on_c, 3, 63, 127
1, 566808, Note_off_c, 3, 63, 127
1, 566810, Note_on_c, 2, 62, 127
1, 566942, Note_off_c, 2, 62, 127
1, 566942, Note_off_c, 0, 48, 127
1, 566944, Note_on_c, 3, 51, 127
1, 566944, Note_on_c, 0, 60, 127
1, 567076, Note_off_c, 0, 60, 127
1, 567078, Note_on_c, 2, 62, 127
1, 567208, Note_off_c, 10, 69, 127
1, 567210, Note_off_c, 2, 62, 127
1, 567210, Note_off_c, 3, 51, 127
1, 567212, Note_on_c, 2, 50, 127
1, 567212, Note_on_c, 11, 58, 127
1, 567346, Note_on_c, 0, 72, 127
1, 567477, Note_off_c, 11, 58, 127
1, 567478, Note_off_c, 0, 72, 127
1, 567478, Note_off_c, 2, 50, 127
1, 567480, Note_on_c, 5, 53, 127
1, 567480, Note_on_c, 11, 70, 127
1, 567612, Note_off_c, 11, 70, 127
1, 567614, Note_on_c, 10, 69, 127
1, 567746, Note_off_c, 10, 69, 127
1, 567746, Note_off_c, 5, 53, 127
1, 567748, Note_on_c, 2, 50, 127
1, 567748, Note_on_c, 0, 72, 127
1, 567880, Note_off_c, 0, 72, 127
1, 567882, Note_on_c, 11, 70, 127
1, 568014, Note_off_c, 11, 70, 127
1, 568014, Note_off_c, 2, 50, 127
1, 568016, Note_on_c, 11, 46, 127
1, 568016, Note_on_c, 10, 69, 127
1, 568148, Note_off_c, 10, 69, 127
1, 568150, Note_on_c, 11, 70, 127
1, 568282, Note_off_c, 11, 70, 127
1, 568282, Note_off_c, 11, 46, 127
1, 568284, Note_on_c, 4, 40, 127
1, 568284, Note_on_c, 7, 67, 127
1, 568418, Note_on_c, 2, 62, 127
1, 568550, Note_off_c, 2, 62, 127
1, 568550, Note_off_c, 4, 40, 127
1, 568552, Note_on_c, 7, 43, 127
1, 568552, Note_on_c, 0, 60, 127
1, 568684, Note_off_c, 0, 60, 127
1, 568686, Note_on_c, 11, 58, 127
1, 568818, Note_off_c, 11, 58, 127
1, 568818, Note_off_c, 7, 43, 127
1, 568820, Note_on_c, 11, 46, 127
1, 568820, Note_on_c, 2, 62, 127
1, 568952, Note_off_c, 2, 62, 127
1, 568954, Note_on_c, 0, 60, 127
1, 569086, Note_off_c, 0, 60, 127
1, 569086, Note_off_c, 11, 46, 127
1, 569088, Note_on_c, 2, 50, 127
1, 569088, Note_on_c, 11, 58, 127
1, 569220, Note_off_c, 11, 58, 127
1, 569222, Note_on_c, 0, 60, 127
1, 569352, Note_off_c, 7, 67, 127
1, 569354, Note_off_c, 0, 60, 127
1, 569354, Note_off_c, 2, 50, 127
1, 569356, Note_on_c, 0, 48, 127
1, 569356, Note_on_c, 10, 57, 127
1, 569490, Note_on_c, 11, 70, 127
1, 569621, Note_off_c, 10, 57, 127
1, 569622, Note_off_c, 11, 70, 127
1, 569622, Note_off_c, 0, 48, 127
1, 569624, Note_on_c, 4, 52, 127
1, 569624, Note_on_c, 10, 69, 127
1, 569756, Note_off_c, 10, 69, 127
1, 569758, Note_on_c, 7, 67, 127
1, 569890, Note_off_c, 7, 67, 127
1, 569890, Note_off_c, 4, 52, 127
1, 569892, Note_on_c, 0, 48, 127
1, 569892, Note_on_c, 11, 70, 127
1, 570024, Note_off_c, 11, 70, 127
1, 570026, Note_on_c, 10, 69, 127
1, 570158, Note_off_c, 10, 69, 127
1, 570158, Note_off_c, 0, 48, 127
1, 570160, Note_on_c, 10, 45, 127
1, 570160, Note_on_c, 7, 67, 127
1, 570292, Note_off_c, 7, 67, 127
1, 570294, Note_on_c, 10, 69, 127
1, 570426, Note_off_c, 10, 69, 127
1, 570426, Note_off_c, 10, 45, 127
1, 570428, Note_on_c, 2, 38, 127
1, 570428, Note_on_c, 5, 65, 127
1, 570562, Note_on_c, 0, 60, 127
1, 570694, Note_off_c, 0, 60, 127
1, 570694, Note_off_c, 2, 38, 127
1, 570696, Note_on_c, 5, 41, 127
1, 570696, Note_on_c, 11, 58, 127
1, 570828, Note_off_c, 11, 58, 127
1, 570830, Note_on_c, 10, 57, 127
1, 570962, Note_off_c, 10, 57, 127
1, 570962, Note_off_c, 5, 41, 127
1, 570964, Note_on_c, 10, 45, 127
1, 570964, Note_on_c, 0, 60, 127
1, 571096, Note_off_c, 0, 60, 127
1, 571098, Note_on_c, 11, 58, 127
1, 571230, Note_off_c, 11, 58, 127
1, 571230, Note_off_c, 10, 45, 127
1, 571232, Note_on_c, 0, 48, 127
1, 571232, Note_on_c, 10, 57, 127
1, 571364, Note_off_c, 10, 57, 127
1, 571366, Note_on_c, 11, 58, 127
1, 571496, Note_off_c, 5, 65, 127
1, 571498, Note_off_c, 11, 58, 127
1, 571498, Note_off_c, 0, 48, 127
1, 571500, Note_on_c, 11, 46, 127
1, 571500, Note_on_c, 7, 55, 127
1, 571634, Note_on_c, 10, 69, 127
1, 571765, Note_off_c, 7, 55, 127
1, 571766, Note_off_c, 10, 69, 127
1, 571766, Note_off_c, 11, 46, 127
1, 571768, Note_on_c, 2, 50, 127
1, 571768, Note_on_c, 7, 67, 127
1, 571900, Note_off_c, 7, 67, 127
1, 571902, Note_on_c, 5, 65, 127
1, 572034, Note_off_c, 5, 65, 127
1, 572034, Note_off_c, 2, 50, 127
1, 572036, Note_on_c, 11, 46, 127
1, 572036, Note_on_c, 10, 69, 127
1, 572168, Note_off_c, 10, 69, 127
1, 572170, Note_on_c, 7, 67, 127
1, 572302, Note_off_c, 7, 67, 127
1, 572302, Note_off_c, 11, 46, 127
1, 572304, Note_on_c, 7, 43, 127
1, 572304, Note_on_c, 5, 65, 127
1, 572436, Note_off_c, 5, 65, 127
1, 572438, Note_on_c, 7, 67, 127
1, 572570, Note_off_c, 7, 67, 127
1, 572570, Note_off_c, 7, 43, 127
1, 572572, Note_on_c, 0, 36, 127
1, 572572, Note_on_c, 4, 64, 127
1, 572704, Note_off_c, 0, 36, 127
1, 572706, Note_on_c, 0, 48, 127
1, 572838, Note_off_c, 0, 48, 127
1, 572840, Note_on_c, 11, 46, 127
1, 572840, Note_on_c, 7, 55, 127
1, 572972, Note_off_c, 11, 46, 127
1, 572974, Note_on_c, 10, 45, 127
1, 573106, Note_off_c, 10, 45, 127
1, 573106, Note_off_c, 7, 55, 127
1, 573108, Note_on_c, 11, 46, 127
1, 573108, Note_on_c, 0, 60, 127
1, 573240, Note_off_c, 11, 46, 127
1, 573242, Note_on_c, 10, 45, 127
1, 573374, Note_off_c, 10, 45, 127
1, 573374, Note_off_c, 0, 60, 127
1, 573375, Note_off_c, 4, 64, 127
1, 573376, Note_on_c, 7, 43, 127
1, 573376, Note_on_c, 11, 58, 127
1, 573376, Note_on_c, 4, 64, 127
1, 573508, Note_off_c, 7, 43, 127
1, 573510, Note_on_c, 10, 45, 127
1, 573642, Note_off_c, 10, 45, 127
1, 573642, Note_off_c, 4, 64, 127
1, 573642, Note_off_c, 11, 58, 127
1, 573644, Note_on_c, 0, 36, 127
1, 573644, Note_on_c, 5, 65, 127
1, 573644, Note_on_c, 10, 57, 127
1, 573776, Note_off_c, 0, 36, 127
1, 573778, Note_on_c, 11, 46, 127
1, 573910, Note_off_c, 11, 46, 127
1, 573910, Note_off_c, 10, 57, 127
1, 573912, Note_on_c, 10, 45, 127
1, 573912, Note_on_c, 0, 60, 127
1, 574044, Note_off_c, 10, 45, 127
1, 574046, Note_on_c, 7, 43, 127
1, 574174, Note_off_c, 5, 65, 127
1, 574177, Note_off_c, 7, 43, 127
1, 574177, Note_off_c, 0, 60, 127
1, 574179, Note_on_c, 10, 45, 127
1, 574179, Note_on_c, 5, 65, 127
1, 574311, Note_off_c, 10, 45, 127
1, 574313, Note_on_c, 7, 43, 127
1, 574445, Note_off_c, 7, 43, 127
1, 574447, Note_on_c, 5, 41, 127
1, 574447, Note_on_c, 10, 69, 127
1, 574579, Note_off_c, 5, 41, 127
1, 574581, Note_on_c, 7, 43, 127
1, 574713, Note_off_c, 7, 43, 127
1, 574713, Note_off_c, 10, 69, 127
1, 574715, Note_on_c, 0, 36, 127
1, 574715, Note_on_c, 11, 70, 127
1, 574847, Note_off_c, 0, 36, 127
1, 574849, Note_on_c, 10, 45, 127
1, 574981, Note_off_c, 10, 45, 127
1, 574982, Note_off_c, 5, 65, 127
1, 574983, Note_on_c, 7, 43, 127
1, 574983, Note_on_c, 4, 64, 127
1, 575115, Note_off_c, 4, 64, 127
1, 575115, Note_off_c, 7, 43, 127
1, 575117, Note_on_c, 5, 41, 127
1, 575117, Note_on_c, 2, 62, 127
1, 575249, Note_off_c, 2, 62, 127
1, 575249, Note_off_c, 5, 41, 127
1, 575251, Note_on_c, 7, 43, 127
1, 575251, Note_on_c, 4, 64, 127
1, 575383, Note_off_c, 7, 43, 127
1, 575385, Note_on_c, 5, 41, 127
1, 575517, Note_off_c, 5, 41, 127
1, 575518, Note_off_c, 11, 70, 127
1, 575519, Note_on_c, 4, 40, 127
1, 575519, Note_on_c, 7, 67, 127
1, 575651, Note_off_c, 4, 40, 127
1, 575653, Note_on_c, 5, 41, 127
1, 575785, Note_off_c, 5, 41, 127
1, 575785, Note_off_c, 7, 67, 127
1, 575787, Note_on_c, 0, 36, 127
1, 575787, Note_on_c, 10, 69, 127
1, 575919, Note_off_c, 0, 36, 127
1, 575921, Note_on_c, 7, 43, 127
1, 576053, Note_off_c, 7, 43, 127
1, 576054, Note_off_c, 4, 64, 127
1, 576055, Note_on_c, 5, 41, 127
1, 576055, Note_on_c, 2, 62, 127
1, 576187, Note_off_c, 2, 62, 127
1, 576187, Note_off_c, 5, 41, 127
1, 576189, Note_on_c, 4, 40, 127
1, 576189, Note_on_c, 0, 60, 127
1, 576321, Note_off_c, 0, 60, 127
1, 576321, Note_off_c, 4, 40, 127
1, 576323, Note_on_c, 5, 41, 127
1, 576323, Note_on_c, 2, 62, 127
1, 576455, Note_off_c, 5, 41, 127
1, 576457, Note_on_c, 4, 40, 127
1, 576589, Note_off_c, 4, 40, 127
1, 576589, Note_off_c, 2, 62, 127
1, 576590, Note_off_c, 10, 69, 127
1, 576599, Note_on_c, 2, 38, 127
1, 576599, Note_on_c, 5, 65, 127
1, 576599, Note_on_c, 12, 71, 127
1, 576731, Note_off_c, 2, 38, 127
1, 576733, Note_on_c, 4, 40, 127
1, 576865, Note_off_c, 4, 40, 127
1, 576865, Note_off_c, 12, 71, 127
1, 576867, Note_on_c, 0, 36, 127
1, 576867, Note_on_c, 0, 72, 127
1, 576999, Note_off_c, 0, 36, 127
1, 577000, Note_off_c, 5, 65, 127
1, 577001, Note_on_c, 5, 41, 127
1, 577001, Note_on_c, 10, 69, 127
1, 577133, Note_off_c, 10, 69, 127
1, 577133, Note_off_c, 5, 41, 127
1, 577135, Note_on_c, 4, 40, 127
1, 577135, Note_on_c, 7, 67, 127
1, 577267, Note_off_c, 7, 67, 127
1, 577267, Note_off_c, 4, 40, 127
1, 577269, Note_on_c, 2, 38, 127
1, 577269, Note_on_c, 5, 65, 127
1, 577401, Note_off_c, 5, 65, 127
1, 577401, Note_off_c, 2, 38, 127
1, 577403, Note_on_c, 4, 40, 127
1, 577403, Note_on_c, 7, 67, 127
1, 577535, Note_off_c, 7, 67, 127
1, 577535, Note_off_c, 4, 40, 127
1, 577537, Note_on_c, 2, 38, 127
1, 577537, Note_on_c, 5, 65, 127
1, 577669, Note_off_c, 5, 65, 127
1, 577669, Note_off_c, 2, 38, 127
1, 577671, Note_on_c, 0, 36, 127
1, 577671, Note_on_c, 4, 64, 127
1, 577803, Note_off_c, 4, 64, 127
1, 577803, Note_off_c, 0, 36, 127
1, 577805, Note_on_c, 2, 38, 127
1, 577805, Note_on_c, 2, 62, 127
1, 577935, Note_off_c, 0, 72, 127
1, 577937, Note_off_c, 2, 62, 127
1, 577937, Note_off_c, 2, 38, 127
1, 577939, Note_on_c, 4, 40, 127
1, 577939, Note_on_c, 0, 60, 127
1, 578071, Note_off_c, 0, 60, 127
1, 578071, Note_off_c, 4, 40, 127
1, 578073, Note_on_c, 5, 41, 127
1, 578073, Note_on_c, 2, 62, 127
1, 578205, Note_off_c, 2, 62, 127
1, 578205, Note_off_c, 5, 41, 127
1, 578207, Note_on_c, 7, 43, 127
1, 578207, Note_on_c, 4, 64, 127
1, 578339, Note_off_c, 4, 64, 127
1, 578339, Note_off_c, 7, 43, 127
1, 578341, Note_on_c, 10, 45, 127
1, 578341, Note_on_c, 5, 65, 127
1, 578473, Note_off_c, 5, 65, 127
1, 578473, Note_off_c, 10, 45, 127
1, 578475, Note_on_c, 11, 46, 127
1, 578475, Note_on_c, 7, 67, 127
1, 578607, Note_off_c, 7, 67, 127
1, 578607, Note_off_c, 11, 46, 127
1, 578609, Note_on_c, 0, 48, 127
1, 578609, Note_on_c, 10, 69, 127
1, 578741, Note_off_c, 10, 69, 127
1, 578741, Note_off_c, 0, 48, 127
1, 578743, Note_on_c, 2, 50, 127
1, 578743, Note_on_c, 11, 70, 127
1, 578875, Note_off_c, 11, 70, 127
1, 578875, Note_off_c, 2, 50, 127
1, 578877, Note_on_c, 4, 52, 127
1, 578877, Note_on_c, 7, 67, 127
1, 579009, Note_off_c, 7, 67, 127
1, 579009, Note_off_c, 4, 52, 127
1, 579011, Note_on_c, 5, 53, 127
1, 579011, Note_on_c, 10, 69, 127
1, 579143, Note_off_c, 10, 69, 127
1, 579145, Note_on_c, 7, 55, 127
1, 579145, Note_on_c, 0, 72, 127
1, 579277, Note_off_c, 0, 72, 127
1, 579277, Note_off_c, 7, 55, 127
1, 579279, Note_on_c, 10, 57, 127
1, 579279, Note_on_c, 5, 65, 127
1, 579411, Note_off_c, 10, 57, 127
1, 579413, Note_on_c, 11, 58, 127
1, 579545, Note_off_c, 11, 58, 127
1, 579547, Note_on_c, 0, 60, 127
1, 579679, Note_off_c, 5, 65, 127
1, 579681, Note_on_c, 5, 65, 127
1, 579813, Note_off_c, 5, 65, 127
1, 579814, Note_off_c, 5, 53, 127
1, 579815, Note_on_c, 4, 52, 127
1, 579815, Note_on_c, 7, 67, 127
1, 579947, Note_off_c, 7, 67, 127
1, 579949, Note_on_c, 10, 69, 127
1, 580077, Note_off_c, 0, 60, 127
1, 580080, Note_off_c, 10, 69, 127
1, 580080, Note_off_c, 4, 52, 127
1, 580082, Note_on_c, 2, 50, 127
1, 580082, Note_on_c, 5, 53, 127
1, 580082, Note_on_c, 11, 70, 127
1, 580214, Note_off_c, 11, 70, 127
1, 580216, Note_on_c, 0, 72, 127
1, 580348, Note_off_c, 0, 72, 127
1, 580348, Note_off_c, 5, 53, 127
1, 580350, Note_on_c, 11, 58, 127
1, 580350, Note_on_c, 2, 74, 127
1, 580482, Note_off_c, 2, 74, 127
1, 580484, Note_on_c, 4, 76, 127
1, 580612, Note_off_c, 2, 50, 127
1, 580615, Note_off_c, 4, 76, 127
1, 580615, Note_off_c, 11, 58, 127
1, 580617, Note_on_c, 10, 57, 127
1, 580617, Note_on_c, 0, 48, 127
1, 580617, Note_on_c, 5, 77, 127
1, 580749, Note_off_c, 5, 77, 127
1, 580751, Note_on_c, 7, 79, 127
1, 580883, Note_off_c, 7, 79, 127
1, 580883, Note_off_c, 0, 48, 127
1, 580883, Note_off_c, 10, 57, 127
1, 580885, Note_on_c, 11, 46, 127
1, 580885, Note_on_c, 7, 55, 127
1, 580885, Note_on_c, 10, 81, 127
1, 581017, Note_off_c, 10, 81, 127
1, 581019, Note_on_c, 11, 82, 127
1, 581151, Note_off_c, 11, 82, 127
1, 581151, Note_off_c, 7, 55, 127
1, 581151, Note_off_c, 11, 46, 127
1, 581153, Note_on_c, 10, 45, 127
1, 581153, Note_on_c, 5, 53, 127
1, 581153, Note_on_c, 0, 84, 127
1, 581285, Note_off_c, 5, 53, 127
1, 581285, Note_off_c, 10, 45, 127
1, 581287, Note_on_c, 5, 41, 127
1, 581419, Note_off_c, 5, 41, 127
1, 581419, Note_off_c, 0, 84, 127
1, 581421, Note_on_c, 7, 43, 127
1, 581421, Note_on_c, 5, 77, 127
1, 581421, Note_on_c, 10, 81, 127
1, 581421, Note_on_c, 0, 84, 127
1, 581553, Note_off_c, 7, 43, 127
1, 581555, Note_on_c, 10, 45, 127
1, 581687, Note_off_c, 10, 45, 127
1, 581687, Note_off_c, 0, 84, 127
1, 581687, Note_off_c, 10, 81, 127
1, 581687, Note_off_c, 5, 77, 127
1, 581689, Note_on_c, 11, 46, 127
1, 581689, Note_on_c, 0, 84, 127
1, 581689, Note_on_c, 4, 76, 127
1, 581689, Note_on_c, 7, 79, 127
1, 581821, Note_off_c, 11, 46, 127
1, 581823, Note_on_c, 0, 48, 127
1, 581955, Note_off_c, 0, 48, 127
1, 581955, Note_off_c, 7, 79, 127
1, 581955, Note_off_c, 4, 76, 127
1, 581955, Note_off_c, 0, 84, 127
1, 581957, Note_on_c, 2, 50, 127
1, 581957, Note_on_c, 0, 72, 127
1, 581957, Note_on_c, 7, 79, 127
1, 581957, Note_on_c, 11, 82, 127
1, 582089, Note_off_c, 2, 50, 127
1, 582091, Note_on_c, 4, 52, 127
1, 582223, Note_off_c, 4, 52, 127
1, 582223, Note_off_c, 11, 82, 127
1, 582223, Note_off_c, 7, 79, 127
1, 582223, Note_off_c, 0, 72, 127
1, 582225, Note_on_c, 5, 53, 127
1, 582225, Note_on_c, 0, 72, 127
1, 582225, Note_on_c, 5, 77, 127
1, 582225, Note_on_c, 10, 81, 127
1, 582357, Note_off_c, 5, 53, 127
1, 582359, Note_on_c, 7, 55, 127
1, 582491, Note_off_c, 7, 55, 127
1, 582493, Note_on_c, 10, 57, 127
1, 582625, Note_off_c, 10, 57, 127
1, 582627, Note_on_c, 11, 58, 127
1, 582759, Note_off_c, 11, 58, 127
1, 582759, Note_off_c, 10, 81, 127
1, 582759, Note_off_c, 5, 77, 127
1, 582759, Note_off_c, 0, 72, 127
1, 582761, Note_on_c, 0, 60, 127
1, 582761, Note_on_c, 0, 72, 127
1, 582761, Note_on_c, 4, 76, 127
1, 582761, Note_on_c, 7, 79, 127
1, 582893, Note_off_c, 0, 60, 127
1, 582895, Note_on_c, 2, 62, 127
1, 583027, Note_off_c, 2, 62, 127
1, 583029, Note_on_c, 4, 64, 127
1, 583161, Note_off_c, 4, 64, 127
1, 583163, Note_on_c, 0, 60, 127
1, 583295, Note_off_c, 0, 60, 127
1, 583295, Note_off_c, 7, 79, 127
1, 583295, Note_off_c, 4, 76, 127
1, 583295, Note_off_c, 0, 72, 127
1, 583297, Note_on_c, 5, 65, 127
1, 583297, Note_on_c, 10, 81, 127
1, 583431, Note_on_c, 5, 77, 127
1, 583563, Note_off_c, 5, 77, 127
1, 583563, Note_off_c, 5, 65, 127
1, 583565, Note_on_c, 5, 53, 127
1, 583565, Note_on_c, 4, 76, 127
1, 583697, Note_off_c, 4, 76, 127
1, 583699, Note_on_c, 2, 74, 127
1, 583827, Note_off_c, 10, 81, 127
1, 583830, Note_off_c, 2, 74, 127
1, 583830, Note_off_c, 5, 53, 127
1, 583832, Note_on_c, 4, 52, 127
1, 583832, Note_on_c, 0, 72, 127
1, 583966, Note_on_c, 7, 79, 127
1, 584097, Note_off_c, 0, 72, 127
1, 584098, Note_off_c, 7, 79, 127
1, 584098, Note_off_c, 4, 52, 127
1, 584100, Note_on_c, 10, 57, 127
1, 584100, Note_on_c, 4, 76, 127
1, 584232, Note_off_c, 4, 76, 127
1, 584234, Note_on_c, 0, 72, 127
1, 584366, Note_off_c, 0, 72, 127
1, 584366, Note_off_c, 10, 57, 127
1, 584368, Note_on_c, 2, 62, 127
1, 584368, Note_on_c, 5, 77, 127
1, 584502, Note_on_c, 2, 74, 127
1, 584634, Note_off_c, 2, 74, 127
1, 584634, Note_off_c, 2, 62, 127
1, 584636, Note_on_c, 2, 50, 127
1, 584636, Note_on_c, 0, 72, 127
1, 584768, Note_off_c, 0, 72, 127
1, 584770, Note_on_c, 11, 70, 127
1, 584898, Note_off_c, 5, 77, 127
1, 584901, Note_off_c, 11, 70, 127
1, 584901, Note_off_c, 2, 50, 127
1, 584903, Note_on_c, 0, 48, 127
1, 584903, Note_on_c, 10, 69, 127
1, 585037, Note_on_c, 3, 75, 127
1, 585168, Note_off_c, 10, 69, 127
1, 585169, Note_off_c, 3, 75, 127
1, 585169, Note_off_c, 0, 48, 127
1, 585171, Note_on_c, 5, 53, 127
1, 585171, Note_on_c, 0, 72, 127
1, 585303, Note_off_c, 0, 72, 127
1, 585305, Note_on_c, 10, 69, 127
1, 585437, Note_off_c, 10, 69, 127
1, 585437, Note_off_c, 5, 53, 127
1, 585439, Note_on_c, 11, 58, 127
1, 585439, Note_on_c, 2, 74, 127
1, 585573, Note_on_c, 11, 70, 127
1, 585705, Note_off_c, 11, 70, 127
1, 585705, Note_off_c, 11, 58, 127
1, 585707, Note_on_c, 11, 46, 127
1, 585707, Note_on_c, 10, 69, 127
1, 585839, Note_off_c, 10, 69, 127
1, 585841, Note_on_c, 7, 67, 127
1, 585969, Note_off_c, 2, 74, 127
1, 585972, Note_off_c, 7, 67, 127
1, 585972, Note_off_c, 11, 46, 127
1, 585974, Note_on_c, 10, 45, 127
1, 585974, Note_on_c, 5, 65, 127
1, 586108, Note_on_c, 0, 72, 127
1, 586239, Note_off_c, 5, 65, 127
1, 586240, Note_off_c, 0, 72, 127
1, 586240, Note_off_c, 10, 45, 127
1, 586242, Note_on_c, 2, 50, 127
1, 586242, Note_on_c, 10, 69, 127
1, 586374, Note_off_c, 10, 69, 127
1, 586376, Note_on_c, 5, 65, 127
1, 586508, Note_off_c, 2, 50, 127
1, 586510, Note_on_c, 7, 55, 127
1, 586510, Note_on_c, 11, 70, 127
1, 586641, Note_off_c, 5, 65, 127
1, 586644, Note_on_c, 5, 65, 127
1, 586776, Note_off_c, 5, 65, 127
1, 586776, Note_off_c, 7, 55, 127
1, 586778, Note_on_c, 7, 43, 127
1, 586778, Note_on_c, 4, 64, 127
1, 586910, Note_off_c, 4, 64, 127
1, 586910, Note_off_c, 7, 43, 127
1, 586912, Note_on_c, 10, 45, 127
1, 586912, Note_on_c, 2, 62, 127
1, 587040, Note_off_c, 11, 70, 127
1, 587043, Note_off_c, 2, 62, 127
1, 587043, Note_off_c, 10, 45, 127
1, 587045, Note_on_c, 7, 43, 127
1, 587045, Note_on_c, 4, 64, 127
1, 587179, Note_on_c, 11, 70, 127
1, 587310, Note_off_c, 4, 64, 127
1, 587311, Note_off_c, 11, 70, 127
1, 587311, Note_off_c, 7, 43, 127
1, 587313, Note_on_c, 5, 41, 127
1, 587313, Note_on_c, 7, 67, 127
1, 587445, Note_off_c, 7, 67, 127
1, 587447, Note_on_c, 4, 64, 127
1, 587579, Note_off_c, 4, 64, 127
1, 587579, Note_off_c, 5, 41, 127
1, 587581, Note_on_c, 4, 40, 127
1, 587581, Note_on_c, 0, 60, 127
1, 587713, Note_off_c, 0, 60, 127
1, 587715, Note_on_c, 2, 62, 127
1, 587847, Note_off_c, 2, 62, 127
1, 587847, Note_off_c, 4, 40, 127
1, 587849, Note_on_c, 7, 43, 127
1, 587849, Note_on_c, 4, 64, 127
1, 587981, Note_off_c, 4, 64, 127
1, 587983, Note_on_c, 11, 70, 127
1, 588115, Note_off_c, 11, 70, 127
1, 588115, Note_off_c, 7, 43, 127
1, 588117, Note_on_c, 5, 41, 127
1, 588117, Note_on_c, 10, 69, 127
1, 588249, Note_off_c, 10, 69, 127
1, 588251, Note_on_c, 11, 70, 127
1, 588383, Note_off_c, 11, 70, 127
1, 588383, Note_off_c, 5, 41, 127
1, 588385, Note_on_c, 10, 45, 127
1, 588385, Note_on_c, 0, 72, 127
1, 588517, Note_off_c, 0, 72, 127
1, 588519, Note_on_c, 5, 77, 127
1, 588651, Note_off_c, 5, 77, 127
1, 588651, Note_off_c, 10, 45, 127
1, 588653, Note_on_c, 7, 43, 127
1, 588653, Note_on_c, 4, 76, 127
1, 588785, Note_off_c, 4, 76, 127
1, 588787, Note_on_c, 5, 77, 127
1, 588919, Note_off_c, 5, 77, 127
1, 588919, Note_off_c, 7, 43, 127
1, 588921, Note_on_c, 4, 52, 127
1, 588921, Note_on_c, 7, 79, 127
1, 589053, Note_off_c, 7, 79, 127
1, 589055, Note_on_c, 11, 82, 127
1, 589187, Note_off_c, 11, 82, 127
1, 589187, Note_off_c, 4, 52, 127
1, 589189, Note_on_c, 5, 53, 127
1, 589189, Note_on_c, 10, 81, 127
1, 589321, Note_off_c, 10, 81, 127
1, 589323, Note_on_c, 11, 82, 127
1, 589455, Note_off_c, 11, 82, 127
1, 589455, Note_off_c, 5, 53, 127
1, 589457, Note_on_c, 10, 45, 127
1, 589457, Note_on_c, 0, 84, 127
1, 589589, Note_off_c, 0, 84, 127
1, 589591, Note_on_c, 3, 75, 127
1, 589723, Note_off_c, 3, 75, 127
1, 589723, Note_off_c, 10, 45, 127
1, 589725, Note_on_c, 11, 46, 127
1, 589725, Note_on_c, 2, 74, 127
1, 589857, Note_off_c, 2, 74, 127
1, 589859, Note_on_c, 4, 76, 127
1, 589991, Note_off_c, 4, 76, 127
1, 589991, Note_off_c, 11, 46, 127
1, 589993, Note_on_c, 2, 50, 127
1, 589993, Note_on_c, 5, 77, 127
1, 590125, Note_off_c, 5, 77, 127
1, 590127, Note_on_c, 0, 84, 127
1, 590259, Note_off_c, 0, 84, 127
1, 590259, Note_off_c, 2, 50, 127
1, 590261, Note_on_c, 7, 43, 127
1, 590261, Note_on_c, 11, 82, 127
1, 590393, Note_off_c, 11, 82, 127
1, 590395, Note_on_c, 10, 81, 127
1, 590527, Note_off_c, 10, 81, 127
1, 590527, Note_off_c, 7, 43, 127
1, 590529, Note_on_c, 11, 46, 127
1, 590529, Note_on_c, 7, 79, 127
1, 590661, Note_off_c, 7, 79, 127
1, 590663, Note_on_c, 5, 77, 127
1, 590795, Note_off_c, 5, 77, 127
1, 590795, Note_off_c, 11, 46, 127
1, 590797, Note_on_c, 0, 48, 127
1, 590797, Note_on_c, 4, 76, 127
1, 590929, Note_off_c, 4, 76, 127
1, 590929, Note_off_c, 0, 48, 127
1, 590931, Note_on_c, 2, 50, 127
1, 590931, Note_on_c, 5, 77, 127
1, 591063, Note_off_c, 5, 77, 127
1, 591063, Note_off_c, 2, 50, 127
1, 591065, Note_on_c, 4, 52, 127
1, 591065, Note_on_c, 7, 79, 127
1, 591197, Note_off_c, 7, 79, 127
1, 591197, Note_off_c, 4, 52, 127
1, 591199, Note_on_c, 5, 53, 127
1, 591199, Note_on_c, 4, 76, 127
1, 591331, Note_off_c, 4, 76, 127
1, 591331, Note_off_c, 5, 53, 127
1, 591333, Note_on_c, 7, 55, 127
1, 591333, Note_on_c, 0, 72, 127
1, 591465, Note_off_c, 7, 55, 127
1, 591467, Note_on_c, 10, 57, 127
1, 591599, Note_off_c, 10, 57, 127
1, 591601, Note_on_c, 11, 58, 127
1, 591733, Note_off_c, 11, 58, 127
1, 591735, Note_on_c, 7, 55, 127
1, 591808, Note_off_c, 0, 72, 127
1, 591867, Note_off_c, 7, 55, 127
1, 591877, Note_on_c, 10, 57, 127
1, 591877, Note_on_c, 5, 53, 127
1, 591877, Note_on_c, 5, 77, 127
1, 592143, Note_off_c, 5, 77, 127
1, 592145, Note_on_c, 5, 65, 127
1, 592411, Note_off_c, 5, 53, 127
1, 592411, Note_off_c, 10, 57, 127
1, 592413, Note_on_c, 4, 52, 127
1, 592413, Note_on_c, 0, 60, 127
1, 592679, Note_off_c, 5, 65, 127
1, 592681, Note_on_c, 7, 67, 127
1, 592813, Note_off_c, 7, 67, 127
1, 592815, Note_on_c, 10, 69, 127
1, 592947, Note_off_c, 10, 69, 127
1, 592947, Note_off_c, 0, 60, 127
1, 592947, Note_off_c, 4, 52, 127
1, 592949, Note_on_c, 5, 53, 127
1, 592949, Note_on_c, 2, 50, 127
1, 592949, Note_on_c, 11, 70, 127
1, 593081, Note_off_c, 11, 70, 127
1, 593083, Note_on_c, 0, 72, 127
1, 593215, Note_off_c, 0, 72, 127
1, 593215, Note_off_c, 5, 53, 127
1, 593217, Note_on_c, 11, 58, 127
1, 593217, Note_on_c, 2, 74, 127
1, 593349, Note_off_c, 2, 74, 127
1, 593351, Note_on_c, 4, 76, 127
1, 593479, Note_off_c, 2, 50, 127
1, 593482, Note_off_c, 4, 76, 127
1, 593482, Note_off_c, 11, 58, 127
1, 593484, Note_on_c, 10, 57, 127
1, 593484, Note_on_c, 0, 48, 127
1, 593484, Note_on_c, 5, 77, 127
1, 593616, Note_off_c, 5, 77, 127
1, 593618, Note_on_c, 7, 79, 127
1, 593750, Note_off_c, 7, 79, 127
1, 593750, Note_off_c, 0, 48, 127
1, 593750, Note_off_c, 10, 57, 127
1, 593752, Note_on_c, 11, 46, 127
1, 593752, Note_on_c, 7, 55, 127
1, 593752, Note_on_c, 10, 81, 127
1, 593884, Note_off_c, 10, 81, 127
1, 593886, Note_on_c, 11, 82, 127
1, 594018, Note_off_c, 11, 82, 127
1, 594018, Note_off_c, 7, 55, 127
1, 594018, Note_off_c, 11, 46, 127
1, 594020, Note_on_c, 5, 53, 127
1, 594020, Note_on_c, 10, 45, 127
1, 594020, Note_on_c, 0, 84, 127
1, 594152, Note_off_c, 10, 45, 127
1, 594152, Note_off_c, 5, 53, 127
1, 594154, Note_on_c, 5, 41, 127
1, 594286, Note_off_c, 5, 41, 127
1, 594286, Note_off_c, 0, 84, 127
1, 594288, Note_on_c, 7, 43, 127
1, 594288, Note_on_c, 5, 77, 127
1, 594288, Note_on_c, 10, 81, 127
1, 594288, Note_on_c, 0, 84, 127
1, 594420, Note_off_c, 7, 43, 127
1, 594422, Note_on_c, 10, 45, 127
1, 594554, Note_off_c, 10, 45, 127
1, 594554, Note_off_c, 0, 84, 127
1, 594554, Note_off_c, 10, 81, 127
1, 594554, Note_off_c, 5, 77, 127
1, 594556, Note_on_c, 11, 46, 127
1, 594556, Note_on_c, 0, 84, 127
1, 594556, Note_on_c, 4, 76, 127
1, 594556, Note_on_c, 7, 79, 127
1, 594688, Note_off_c, 11, 46, 127
1, 594690, Note_on_c, 0, 48, 127
1, 594822, Note_off_c, 0, 48, 127
1, 594822, Note_off_c, 7, 79, 127
1, 594822, Note_off_c, 4, 76, 127
1, 594822, Note_off_c, 0, 84, 127
1, 594824, Note_on_c, 2, 50, 127
1, 594824, Note_on_c, 7, 79, 127
1, 594824, Note_on_c, 0, 72, 127
1, 594824, Note_on_c, 11, 82, 127
1, 594956, Note_off_c, 2, 50, 127
1, 594958, Note_on_c, 4, 52, 127
1, 595090, Note_off_c, 4, 52, 127
1, 595090, Note_off_c, 11, 82, 127
1, 595090, Note_off_c, 0, 72, 127
1, 595090, Note_off_c, 7, 79, 127
1, 595092, Note_on_c, 5, 53, 127
1, 595092, Note_on_c, 0, 72, 127
1, 595092, Note_on_c, 5, 77, 127
1, 595092, Note_on_c, 10, 81, 127
1, 595224, Note_off_c, 5, 53, 127
1, 595226, Note_on_c, 7, 55, 127
1, 595358, Note_off_c, 7, 55, 127
1, 595360, Note_on_c, 10, 57, 127
1, 595492, Note_off_c, 10, 57, 127
1, 595494, Note_on_c, 11, 58, 127
1, 595626, Note_off_c, 11, 58, 127
1, 595626, Note_off_c, 10, 81, 127
1, 595626, Note_off_c, 5, 77, 127
1, 595626, Note_off_c, 0, 72, 127
1, 595628, Note_on_c, 0, 60, 127
1, 595628, Note_on_c, 4, 76, 127
1, 595628, Note_on_c, 0, 72, 127
1, 595628, Note_on_c, 7, 79, 127
1, 595760, Note_off_c, 0, 60, 127
1, 595762, Note_on_c, 2, 62, 127
1, 595894, Note_off_c, 2, 62, 127
1, 595896, Note_on_c, 4, 64, 127
1, 596028, Note_off_c, 4, 64, 127
1, 596030, Note_on_c, 0, 60, 127
1, 596162, Note_off_c, 7, 79, 127
1, 596162, Note_off_c, 0, 72, 127
1, 596162, Note_off_c, 4, 76, 127
1, 596171, Note_off_c, 0, 60, 127
1, 596172, Note_on_c, 2, 62, 127
1, 596172, Note_on_c, 11, 82, 127
1, 596306, Note_on_c, 5, 77, 127
1, 596438, Note_off_c, 5, 77, 127
1, 596438, Note_off_c, 2, 62, 127
1, 596440, Note_on_c, 2, 50, 127
1, 596440, Note_on_c, 4, 76, 127
1, 596572, Note_off_c, 4, 76, 127
1, 596574, Note_on_c, 5, 77, 127
1, 596702, Note_off_c, 11, 82, 127
1, 596705, Note_off_c, 5, 77, 127
1, 596705, Note_off_c, 2, 50, 127
1, 596707, Note_on_c, 2, 62, 127
1, 596707, Note_on_c, 11, 82, 127
1, 596841, Note_on_c, 5, 77, 127
1, 596972, Note_off_c, 11, 82, 127
1, 596973, Note_off_c, 2, 62, 127
1, 596975, Note_on_c, 0, 60, 127
1, 596975, Note_on_c, 10, 81, 127
1, 597106, Note_off_c, 5, 77, 127
1, 597109, Note_on_c, 5, 77, 127
1, 597240, Note_off_c, 10, 81, 127
1, 597241, Note_off_c, 5, 77, 127
1, 597241, Note_off_c, 0, 60, 127
1, 597243, Note_on_c, 11, 58, 127
1, 597243, Note_on_c, 7, 79, 127
1, 597377, Note_on_c, 5, 77, 127
1, 597509, Note_off_c, 5, 77, 127
1, 597509, Note_off_c, 11, 58, 127
1, 597511, Note_on_c, 11, 46, 127
1, 597511, Note_on_c, 4, 76, 127
1, 597643, Note_off_c, 4, 76, 127
1, 597645, Note_on_c, 5, 77, 127
1, 597773, Note_off_c, 7, 79, 127
1, 597776, Note_off_c, 5, 77, 127
1, 597776, Note_off_c, 11, 46, 127
1, 597778, Note_on_c, 11, 58, 127
1, 597778, Note_on_c, 7, 79, 127
1, 597912, Note_on_c, 5, 77, 127
1, 598043, Note_off_c, 7, 79, 127
1, 598044, Note_off_c, 11, 58, 127
1, 598046, Note_on_c, 0, 60, 127
1, 598046, Note_on_c, 10, 81, 127
1, 598177, Note_off_c, 5, 77, 127
1, 598180, Note_on_c, 5, 77, 127
1, 598311, Note_off_c, 10, 81, 127
1, 598312, Note_off_c, 5, 77, 127
1, 598312, Note_off_c, 0, 60, 127
1, 598314, Note_on_c, 2, 62, 127
1, 598314, Note_on_c, 11, 82, 127
1, 598450, Note_on_c, 5, 77, 127
1, 598583, Note_off_c, 5, 77, 127
1, 598583, Note_off_c, 2, 62, 127
1, 598585, Note_on_c, 2, 50, 127
1, 598585, Note_on_c, 4, 76, 127
1, 598718, Note_off_c, 4, 76, 127
1, 598720, Note_on_c, 5, 77, 127
1, 598850, Note_off_c, 11, 82, 127
1, 598854, Note_off_c, 5, 77, 127
1, 598854, Note_off_c, 2, 50, 127
1, 598856, Note_on_c, 2, 62, 127
1, 598856, Note_on_c, 11, 82, 127
1, 598992, Note_on_c, 5, 77, 127
1, 599125, Note_off_c, 11, 82, 127
1, 599126, Note_off_c, 2, 62, 127
1, 599128, Note_on_c, 0, 60, 127
1, 599128, Note_on_c, 10, 81, 127
1, 599261, Note_off_c, 5, 77, 127
1, 599264, Note_on_c, 5, 77, 127
1, 599397, Note_off_c, 10, 81, 127
1, 599398, Note_off_c, 5, 77, 127
1, 599398, Note_off_c, 0, 60, 127
1, 599400, Note_on_c, 11, 58, 127
1, 599400, Note_on_c, 7, 79, 127
1, 599536, Note_on_c, 5, 77, 127
1, 599669, Note_off_c, 5, 77, 127
1, 599669, Note_off_c, 11, 58, 127
1, 599671, Note_on_c, 11, 46, 127
1, 599671, Note_on_c, 4, 76, 127
1, 599804, Note_off_c, 4, 76, 127
1, 599806, Note_on_c, 5, 77, 127
1, 599936, Note_off_c, 7, 79, 127
1, 599940, Note_off_c, 5, 77, 127
1, 599940, Note_off_c, 11, 46, 127
1, 599942, Note_on_c, 11, 58, 127
1, 599942, Note_on_c, 7, 79, 127
1, 600078, Note_on_c, 5, 77, 127
1, 600211, Note_off_c, 7, 79, 127
1, 600212, Note_off_c, 11, 58, 127
1, 600214, Note_on_c, 0, 60, 127
1, 600214, Note_on_c, 10, 81, 127
1, 600347, Note_off_c, 5, 77, 127
1, 600350, Note_on_c, 5, 77, 127
1, 600483, Note_off_c, 10, 81, 127
1, 600484, Note_off_c, 5, 77, 127
1, 600484, Note_off_c, 0, 60, 127
1, 600486, Note_on_c, 2, 62, 127
1, 600486, Note_on_c, 11, 82, 127
1, 600625, Note_on_c, 5, 77, 127
1, 600761, Note_off_c, 11, 82, 127
1, 600762, Note_off_c, 2, 62, 127
1, 600764, Note_on_c, 0, 60, 127
1, 600764, Note_on_c, 10, 81, 127
1, 600900, Note_off_c, 5, 77, 127
1, 600903, Note_on_c, 5, 77, 127
1, 601039, Note_off_c, 10, 81, 127
1, 601040, Note_off_c, 5, 77, 127
1, 601040, Note_off_c, 0, 60, 127
1, 601042, Note_on_c, 11, 58, 127
1, 601042, Note_on_c, 7, 79, 127
1, 601181, Note_on_c, 5, 77, 127
1, 601318, Note_off_c, 5, 77, 127
1, 601318, Note_off_c, 11, 58, 127
1, 601320, Note_on_c, 7, 55, 127
1, 601320, Note_on_c, 4, 76, 127
1, 601457, Note_off_c, 4, 76, 127
1, 601458, Note_off_c, 7, 79, 127
1, 601459, Note_on_c, 2, 74, 127
1, 601596, Note_off_c, 2, 74, 127
1, 601596, Note_off_c, 7, 55, 127
1, 601598, Note_on_c, 4, 52, 127
1, 601598, Note_on_c, 0, 72, 127
1, 601740, Note_on_c, 7, 67, 127
1, 601879, Note_off_c, 0, 72, 127
1, 601880, Note_off_c, 4, 52, 127
1, 601882, Note_on_c, 0, 48, 127
1, 601882, Note_on_c, 11, 70, 127
1, 602021, Note_off_c, 7, 67, 127
1, 602024, Note_on_c, 7, 67, 127
1, 602163, Note_off_c, 11, 70, 127
1, 602164, Note_off_c, 7, 67, 127
1, 602164, Note_off_c, 0, 48, 127
1, 602166, Note_on_c, 5, 53, 127
1, 602166, Note_on_c, 10, 69, 127
1, 602308, Note_on_c, 7, 67, 127
1, 602448, Note_off_c, 7, 67, 127
1, 602448, Note_off_c, 5, 53, 127
1, 602450, Note_on_c, 0, 48, 127
1, 602450, Note_on_c, 5, 65, 127
1, 602590, Note_off_c, 5, 65, 127
1, 602591, Note_off_c, 10, 69, 127
1, 602592, Note_on_c, 4, 64, 127
1, 602732, Note_off_c, 4, 64, 127
1, 602732, Note_off_c, 0, 48, 127
1, 602734, Note_on_c, 11, 46, 127
1, 602734, Note_on_c, 5, 65, 127
1, 602902, Note_off_c, 11, 46, 127
1, 602905, Note_on_c, 10, 45, 127
1, 603073, Note_off_c, 10, 45, 127
1, 603073, Note_off_c, 5, 65, 127
1, 603076, Note_on_c, 7, 43, 127
1, 603076, Note_on_c, 0, 60, 127
1, 603076, Note_on_c, 5, 65, 127
1, 603076, Note_on_c, 0, 72, 127
1, 603076, Note_on_c, 10, 69, 127
1, 603244, Note_off_c, 7, 43, 127
1, 603247, Note_on_c, 5, 41, 127
1, 603415, Note_off_c, 5, 41, 127
1, 603415, Note_off_c, 10, 69, 127
1, 603415, Note_off_c, 0, 72, 127
1, 603415, Note_off_c, 5, 65, 127
1, 603415, Note_off_c, 0, 60, 127
1, 603418, Note_on_c, 0, 48, 127
1, 603418, Note_on_c, 0, 60, 127
1, 603418, Note_on_c, 5, 65, 127
1, 603418, Note_on_c, 10, 69, 127
1, 603834, Note_off_c, 10, 69, 127
1, 603834, Note_off_c, 5, 65, 127
1, 603834, Note_off_c, 0, 60, 127
1, 603834, Note_off_c, 0, 48, 127
1, 603837, Note_on_c, 0, 36, 127
1, 603837, Note_on_c, 0, 48, 127
1, 603837, Note_on_c, 11, 58, 127
1, 603837, Note_on_c, 4, 64, 127
1, 603837, Note_on_c, 7, 67, 127
1, 604043, Note_off_c, 7, 67, 127
1, 604043, Note_off_c, 4, 64, 127
1, 604046, Note_on_c, 5, 65, 127
1, 604251, Note_off_c, 11, 58, 127
1, 604252, Note_off_c, 5, 65, 127
1, 604252, Note_off_c, 0, 36, 127
1, 604303, Note_on_c, 5, 41, 127
1, 604303, Note_on_c, 5, 53, 127
1, 604303, Note_on_c, 0, 60, 127
1, 604303, Note_on_c, 5, 65, 127
1, 604303, Note_on_c, 10, 57, 127
1, 607102, Note_off_c, 0, 48, 127
1, 607103, Note_off_c, 10, 57, 127
1, 607103, Note_off_c, 5, 65, 127
1, 607103, Note_off_c, 0, 60, 127
1, 607103, Note_off_c, 5, 53, 127
1, 607103, Note_off_c, 5, 41, 127
1, 612896, End_track
0, 0, End_of_file
