0, 0, Header, 0, 1, 384
1, 0, Start_track
1, 0, Copyright_t, "(C) John Sankey 1998"
1, 0, Program_c, 0, 6
1, 0, Pitch_bend_c, 0, 8192
1, 0, Program_c, 1, 6
1, 0, Pitch_bend_c, 1, 7792
1, 0, Program_c, 2, 6
1, 0, Pitch_bend_c, 2, 7876
1, 0, Program_c, 3, 6
1, 0, Pitch_bend_c, 3, 7952
1, 0, Program_c, 4, 6
1, 0, Pitch_bend_c, 4, 7792
1, 0, Program_c, 5, 6
1, 0, Pitch_bend_c, 5, 8112
1, 0, Program_c, 6, 6
1, 0, Pitch_bend_c, 6, 7712
1, 0, Program_c, 7, 6
1, 0, Pitch_bend_c, 7, 8037
1, 0, Program_c, 8, 6
1, 0, Pitch_bend_c, 8, 7872
1, 0, Program_c, 10, 6
1, 0, Pitch_bend_c, 10, 7712
1, 0, Program_c, 11, 6
1, 0, Pitch_bend_c, 11, 8032
1, 0, Program_c, 12, 6
1, 0, Pitch_bend_c, 12, 7872
1, 0, Tempo, 500000
1, 48, Note_on_c, 12, 59, 127
1, 48, Note_on_c, 7, 55, 127
1, 48, Note_on_c, 2, 62, 127
1, 48, Note_on_c, 12, 71, 127
1, 48, Note_on_c, 2, 74, 127
1, 48, Note_on_c, 7, 79, 127
1, 486, Note_off_c, 7, 79, 127
1, 486, Note_off_c, 2, 74, 127
1, 486, Note_off_c, 12, 71, 127
1, 486, Note_off_c, 2, 62, 127
1, 486, Note_off_c, 7, 55, 127
1, 486, Note_off_c, 12, 59, 127
1, 487, Note_on_c, 2, 62, 127
1, 487, Note_on_c, 6, 78, 127
1, 487, Note_on_c, 10, 69, 127
1, 487, Note_on_c, 2, 74, 127
1, 925, Note_off_c, 2, 74, 127
1, 925, Note_off_c, 10, 69, 127
1, 925, Note_off_c, 6, 78, 127
1, 925, Note_off_c, 2, 62, 127
1, 926, Note_on_c, 2, 62, 127
1, 926, Note_on_c, 12, 59, 127
1, 926, Note_on_c, 7, 55, 127
1, 926, Note_on_c, 12, 71, 127
1, 926, Note_on_c, 2, 74, 127
1, 926, Note_on_c, 7, 79, 127
1, 1475, Note_off_c, 7, 79, 127
1, 1475, Note_off_c, 2, 74, 127
1, 1475, Note_off_c, 12, 71, 127
1, 1475, Note_off_c, 7, 55, 127
1, 1475, Note_off_c, 12, 59, 127
1, 1475, Note_off_c, 2, 62, 127
1, 1585, Note_on_c, 10, 57, 127
1, 1585, Note_on_c, 6, 54, 127
1, 1585, Note_on_c, 2, 62, 127
1, 1585, Note_on_c, 2, 74, 127
1, 1585, Note_on_c, 10, 69, 127
1, 1803, Note_off_c, 10, 69, 127
1, 1803, Note_off_c, 2, 74, 127
1, 1803, Note_off_c, 2, 62, 127
1, 1803, Note_off_c, 6, 54, 127
1, 1803, Note_off_c, 10, 57, 127
1, 1804, Note_on_c, 12, 59, 127
1, 1804, Note_on_c, 7, 55, 127
1, 1804, Note_on_c, 4, 52, 127
1, 1804, Note_on_c, 4, 64, 127
1, 1804, Note_on_c, 7, 79, 127
1, 1804, Note_on_c, 4, 76, 127
1, 1804, Note_on_c, 12, 71, 127
1, 2238, Note_off_c, 12, 71, 127
1, 2238, Note_off_c, 4, 76, 127
1, 2238, Note_off_c, 7, 79, 127
1, 2238, Note_off_c, 4, 64, 127
1, 2238, Note_off_c, 4, 52, 127
1, 2238, Note_off_c, 7, 55, 127
1, 2238, Note_off_c, 12, 59, 127
1, 2462, Note_on_c, 6, 54, 127
1, 2462, Note_on_c, 2, 62, 127
1, 2462, Note_on_c, 10, 57, 127
1, 2462, Note_on_c, 10, 81, 127
1, 2462, Note_on_c, 2, 74, 127
1, 2680, Note_off_c, 2, 74, 127
1, 2680, Note_off_c, 10, 81, 127
1, 2680, Note_off_c, 10, 57, 127
1, 2680, Note_off_c, 2, 62, 127
1, 2680, Note_off_c, 6, 54, 127
1, 2681, Note_on_c, 12, 59, 127
1, 2681, Note_on_c, 7, 55, 127
1, 2681, Note_on_c, 7, 67, 127
1, 2681, Note_on_c, 2, 62, 127
1, 2681, Note_on_c, 2, 74, 127
1, 2681, Note_on_c, 7, 79, 127
1, 2681, Note_on_c, 12, 83, 127
1, 2899, Note_off_c, 12, 83, 127
1, 2899, Note_off_c, 7, 79, 127
1, 2900, Note_on_c, 7, 79, 127
1, 3115, Note_off_c, 2, 74, 127
1, 3118, Note_off_c, 7, 79, 127
1, 3118, Note_off_c, 2, 62, 127
1, 3118, Note_off_c, 7, 67, 127
1, 3118, Note_off_c, 7, 55, 127
1, 3118, Note_off_c, 12, 59, 127
1, 3119, Note_on_c, 6, 54, 127
1, 3119, Note_on_c, 2, 62, 127
1, 3119, Note_on_c, 10, 57, 127
1, 3119, Note_on_c, 10, 81, 127
1, 3337, Note_off_c, 10, 81, 127
1, 3338, Note_on_c, 6, 78, 127
1, 3556, Note_off_c, 6, 78, 127
1, 3556, Note_off_c, 10, 57, 127
1, 3556, Note_off_c, 2, 62, 127
1, 3556, Note_off_c, 6, 54, 127
1, 3557, Note_on_c, 12, 59, 127
1, 3557, Note_on_c, 2, 62, 127
1, 3557, Note_on_c, 7, 79, 127
1, 3775, Note_off_c, 7, 79, 127
1, 3776, Note_on_c, 2, 74, 127
1, 3991, Note_off_c, 2, 62, 127
1, 3991, Note_off_c, 12, 59, 127
1, 3994, Note_off_c, 2, 74, 127
1, 3995, Note_on_c, 4, 76, 127
1, 4213, Note_off_c, 4, 76, 127
1, 4214, Note_on_c, 12, 59, 127
1, 4214, Note_on_c, 7, 55, 127
1, 4214, Note_on_c, 12, 71, 127
1, 4432, Note_off_c, 12, 71, 127
1, 4432, Note_off_c, 7, 55, 127
1, 4432, Note_off_c, 12, 59, 127
1, 4433, Note_on_c, 10, 57, 127
1, 4433, Note_on_c, 4, 64, 127
1, 4433, Note_on_c, 0, 72, 127
1, 4651, Note_off_c, 0, 72, 127
1, 4652, Note_on_c, 10, 69, 127
1, 4867, Note_off_c, 4, 64, 127
1, 4867, Note_off_c, 10, 57, 127
1, 4870, Note_off_c, 10, 69, 127
1, 4871, Note_on_c, 2, 74, 127
1, 5089, Note_off_c, 2, 74, 127
1, 5090, Note_on_c, 10, 57, 127
1, 5090, Note_on_c, 6, 54, 127
1, 5090, Note_on_c, 2, 62, 127
1, 5090, Note_on_c, 0, 72, 127
1, 5308, Note_off_c, 0, 72, 127
1, 5308, Note_off_c, 2, 62, 127
1, 5308, Note_off_c, 6, 54, 127
1, 5308, Note_off_c, 10, 57, 127
1, 5309, Note_on_c, 7, 55, 127
1, 5309, Note_on_c, 2, 62, 127
1, 5309, Note_on_c, 12, 71, 127
1, 5527, Note_off_c, 12, 71, 127
1, 5528, Note_on_c, 7, 67, 127
1, 5743, Note_off_c, 2, 62, 127
1, 5743, Note_off_c, 7, 55, 127
1, 5746, Note_off_c, 7, 67, 127
1, 5747, Note_on_c, 10, 69, 127
1, 5965, Note_off_c, 10, 69, 127
1, 5966, Note_on_c, 2, 50, 127
1, 5966, Note_on_c, 0, 60, 127
1, 5966, Note_on_c, 6, 66, 127
1, 6184, Note_off_c, 6, 66, 127
1, 6184, Note_off_c, 0, 60, 127
1, 6184, Note_off_c, 2, 50, 127
1, 6185, Note_on_c, 7, 55, 127
1, 6185, Note_on_c, 12, 59, 127
1, 6185, Note_on_c, 7, 67, 127
1, 6403, Note_off_c, 7, 67, 127
1, 6404, Note_on_c, 2, 62, 127
1, 6619, Note_off_c, 12, 59, 127
1, 6619, Note_off_c, 7, 55, 127
1, 6622, Note_off_c, 2, 62, 127
1, 6623, Note_on_c, 4, 64, 127
1, 6841, Note_off_c, 4, 64, 127
1, 6842, Note_on_c, 7, 55, 127
1, 6842, Note_on_c, 7, 43, 127
1, 6842, Note_on_c, 12, 59, 127
1, 7060, Note_off_c, 12, 59, 127
1, 7060, Note_off_c, 7, 43, 127
1, 7060, Note_off_c, 7, 55, 127
1, 7061, Note_on_c, 10, 45, 127
1, 7061, Note_on_c, 4, 52, 127
1, 7061, Note_on_c, 0, 60, 127
1, 7279, Note_off_c, 0, 60, 127
1, 7280, Note_on_c, 10, 57, 127
1, 7495, Note_off_c, 4, 52, 127
1, 7495, Note_off_c, 10, 45, 127
1, 7498, Note_off_c, 10, 57, 127
1, 7499, Note_on_c, 2, 62, 127
1, 7717, Note_off_c, 2, 62, 127
1, 7718, Note_on_c, 6, 42, 127
1, 7718, Note_on_c, 2, 50, 127
1, 7718, Note_on_c, 10, 57, 127
1, 7718, Note_on_c, 0, 60, 127
1, 7936, Note_off_c, 0, 60, 127
1, 7936, Note_off_c, 10, 57, 127
1, 7936, Note_off_c, 2, 50, 127
1, 7936, Note_off_c, 6, 42, 127
1, 7937, Note_on_c, 7, 43, 127
1, 7937, Note_on_c, 2, 50, 127
1, 7937, Note_on_c, 12, 59, 127
1, 7937, Note_on_c, 7, 55, 127
1, 8375, Note_off_c, 7, 55, 127
1, 8375, Note_off_c, 12, 59, 127
1, 8376, Note_on_c, 7, 55, 127
1, 8814, Note_off_c, 7, 55, 127
1, 8814, Note_off_c, 2, 50, 127
1, 8814, Note_off_c, 7, 43, 127
1, 8831, Note_on_c, 7, 79, 127
1, 8831, Note_on_c, 12, 59, 127
1, 9049, Note_off_c, 7, 79, 127
1, 9050, Note_on_c, 2, 74, 127
1, 9268, Note_off_c, 2, 74, 127
1, 9269, Note_on_c, 7, 79, 127
1, 9269, Note_on_c, 12, 47, 127
1, 9269, Note_on_c, 2, 50, 127
1, 9269, Note_on_c, 7, 55, 127
1, 9487, Note_off_c, 7, 79, 127
1, 9488, Note_on_c, 2, 74, 127
1, 9706, Note_off_c, 2, 74, 127
1, 9706, Note_off_c, 7, 55, 127
1, 9706, Note_off_c, 2, 50, 127
1, 9706, Note_off_c, 12, 47, 127
1, 9706, Note_off_c, 12, 59, 127
1, 9707, Note_on_c, 4, 76, 127
1, 9707, Note_on_c, 0, 48, 127
1, 9707, Note_on_c, 7, 55, 127
1, 9925, Note_off_c, 4, 76, 127
1, 9926, Note_on_c, 0, 72, 127
1, 10141, Note_off_c, 7, 55, 127
1, 10141, Note_off_c, 0, 48, 127
1, 10144, Note_off_c, 0, 72, 127
1, 10145, Note_on_c, 0, 72, 127
1, 10363, Note_off_c, 0, 72, 127
1, 10364, Note_on_c, 4, 76, 127
1, 10582, Note_off_c, 4, 76, 127
1, 10583, Note_on_c, 10, 81, 127
1, 10583, Note_on_c, 1, 61, 127
1, 10801, Note_off_c, 10, 81, 127
1, 10802, Note_on_c, 4, 76, 127
1, 11020, Note_off_c, 4, 76, 127
1, 11021, Note_on_c, 10, 81, 127
1, 11021, Note_on_c, 10, 57, 127
1, 11021, Note_on_c, 1, 49, 127
1, 11021, Note_on_c, 4, 52, 127
1, 11239, Note_off_c, 10, 81, 127
1, 11240, Note_on_c, 4, 76, 127
1, 11458, Note_off_c, 4, 76, 127
1, 11458, Note_off_c, 4, 52, 127
1, 11458, Note_off_c, 1, 49, 127
1, 11458, Note_off_c, 10, 57, 127
1, 11458, Note_off_c, 1, 61, 127
1, 11459, Note_on_c, 6, 78, 127
1, 11459, Note_on_c, 10, 57, 127
1, 11459, Note_on_c, 2, 50, 127
1, 11677, Note_off_c, 6, 78, 127
1, 11678, Note_on_c, 2, 74, 127
1, 11896, Note_off_c, 2, 74, 127
1, 11897, Note_on_c, 2, 74, 127
1, 12115, Note_off_c, 2, 74, 127
1, 12115, Note_off_c, 2, 50, 127
1, 12115, Note_off_c, 10, 57, 127
1, 12116, Note_on_c, 6, 78, 127
1, 12334, Note_off_c, 6, 78, 127
1, 12335, Note_on_c, 12, 83, 127
1, 12335, Note_on_c, 2, 62, 127
1, 12553, Note_off_c, 12, 83, 127
1, 12554, Note_on_c, 6, 78, 127
1, 12772, Note_off_c, 6, 78, 127
1, 12773, Note_on_c, 12, 83, 127
1, 12773, Note_on_c, 12, 59, 127
1, 12773, Note_on_c, 2, 50, 127
1, 12773, Note_on_c, 6, 54, 127
1, 12991, Note_off_c, 12, 83, 127
1, 12992, Note_on_c, 6, 78, 127
1, 13210, Note_off_c, 6, 78, 127
1, 13210, Note_off_c, 6, 54, 127
1, 13210, Note_off_c, 2, 50, 127
1, 13210, Note_off_c, 12, 59, 127
1, 13210, Note_off_c, 2, 62, 127
1, 13211, Note_on_c, 7, 79, 127
1, 13211, Note_on_c, 12, 59, 127
1, 13211, Note_on_c, 4, 52, 127
1, 13429, Note_off_c, 7, 79, 127
1, 13430, Note_on_c, 4, 76, 127
1, 13648, Note_off_c, 4, 76, 127
1, 13649, Note_on_c, 4, 76, 127
1, 13867, Note_off_c, 4, 76, 127
1, 13867, Note_off_c, 4, 52, 127
1, 13867, Note_off_c, 12, 59, 127
1, 13868, Note_on_c, 7, 79, 127
1, 14086, Note_off_c, 7, 79, 127
1, 14087, Note_on_c, 10, 81, 127
1, 14087, Note_on_c, 0, 60, 127
1, 14305, Note_off_c, 10, 81, 127
1, 14306, Note_on_c, 4, 76, 127
1, 14524, Note_off_c, 4, 76, 127
1, 14525, Note_on_c, 10, 81, 127
1, 14525, Note_on_c, 0, 48, 127
1, 14525, Note_on_c, 4, 52, 127
1, 14525, Note_on_c, 10, 57, 127
1, 14743, Note_off_c, 10, 81, 127
1, 14744, Note_on_c, 4, 76, 127
1, 14962, Note_off_c, 4, 76, 127
1, 14962, Note_off_c, 10, 57, 127
1, 14962, Note_off_c, 4, 52, 127
1, 14962, Note_off_c, 0, 48, 127
1, 14962, Note_off_c, 0, 60, 127
1, 14963, Note_on_c, 6, 78, 127
1, 14963, Note_on_c, 2, 50, 127
1, 14963, Note_on_c, 10, 57, 127
1, 15181, Note_off_c, 6, 78, 127
1, 15182, Note_on_c, 2, 74, 127
1, 15400, Note_off_c, 2, 74, 127
1, 15401, Note_on_c, 7, 79, 127
1, 15511, Note_off_c, 10, 57, 127
1, 15511, Note_off_c, 2, 50, 127
1, 15620, Note_off_c, 7, 79, 127
1, 15621, Note_on_c, 6, 78, 127
1, 15621, Note_on_c, 12, 47, 127
1, 15621, Note_on_c, 7, 55, 127
1, 15621, Note_on_c, 2, 50, 127
1, 15730, Note_off_c, 6, 78, 127
1, 15731, Note_on_c, 4, 76, 127
1, 15840, Note_off_c, 4, 76, 127
1, 15840, Note_off_c, 2, 50, 127
1, 15840, Note_off_c, 7, 55, 127
1, 15840, Note_off_c, 12, 47, 127
1, 15841, Note_on_c, 2, 74, 127
1, 15841, Note_on_c, 0, 48, 127
1, 15841, Note_on_c, 4, 52, 127
1, 15841, Note_on_c, 7, 55, 127
1, 16059, Note_off_c, 2, 74, 127
1, 16060, Note_on_c, 0, 72, 127
1, 16169, Note_off_c, 0, 72, 127
1, 16170, Note_on_c, 12, 71, 127
1, 16279, Note_off_c, 12, 71, 127
1, 16279, Note_off_c, 7, 55, 127
1, 16279, Note_off_c, 4, 52, 127
1, 16279, Note_off_c, 0, 48, 127
1, 16280, Note_on_c, 10, 69, 127
1, 16280, Note_on_c, 0, 60, 127
1, 16280, Note_on_c, 2, 50, 127
1, 16280, Note_on_c, 6, 54, 127
1, 16498, Note_off_c, 10, 69, 127
1, 16499, Note_on_c, 7, 67, 127
1, 16608, Note_off_c, 7, 67, 127
1, 16609, Note_on_c, 6, 66, 127
1, 16718, Note_off_c, 6, 66, 127
1, 16718, Note_off_c, 6, 54, 127
1, 16718, Note_off_c, 2, 50, 127
1, 16718, Note_off_c, 0, 60, 127
1, 16719, Note_on_c, 7, 67, 127
1, 16719, Note_on_c, 12, 59, 127
1, 16719, Note_on_c, 2, 50, 127
1, 16719, Note_on_c, 7, 43, 127
1, 16937, Note_off_c, 7, 67, 127
1, 16938, Note_on_c, 6, 66, 127
1, 17047, Note_off_c, 6, 66, 127
1, 17048, Note_on_c, 4, 64, 127
1, 17153, Note_off_c, 12, 59, 127
1, 17156, Note_off_c, 4, 64, 127
1, 17157, Note_on_c, 2, 62, 127
1, 17266, Note_off_c, 2, 62, 127
1, 17267, Note_on_c, 0, 60, 127
1, 17376, Note_off_c, 0, 60, 127
1, 17376, Note_off_c, 7, 43, 127
1, 17376, Note_off_c, 2, 50, 127
1, 17377, Note_on_c, 12, 59, 127
1, 17486, Note_off_c, 12, 59, 127
1, 17487, Note_on_c, 10, 57, 127
1, 17596, Note_off_c, 10, 57, 127
1, 17597, Note_on_c, 12, 59, 127
1, 17597, Note_on_c, 2, 62, 127
1, 17597, Note_on_c, 7, 67, 127
1, 17597, Note_on_c, 7, 55, 127
1, 17597, Note_on_c, 12, 47, 127
1, 17597, Note_on_c, 2, 50, 127
1, 17597, Note_on_c, 7, 43, 127
1, 18474, Note_off_c, 7, 43, 127
1, 18474, Note_off_c, 2, 50, 127
1, 18474, Note_off_c, 12, 47, 127
1, 18474, Note_off_c, 7, 55, 127
1, 18474, Note_off_c, 7, 67, 127
1, 18474, Note_off_c, 2, 62, 127
1, 18474, Note_off_c, 12, 59, 127
1, 18491, Note_on_c, 7, 55, 127
1, 18491, Note_on_c, 7, 79, 127
1, 18709, Note_off_c, 7, 79, 127
1, 18710, Note_on_c, 12, 83, 127
1, 18928, Note_off_c, 12, 83, 127
1, 18928, Note_off_c, 7, 55, 127
1, 18929, Note_on_c, 2, 50, 127
1, 18929, Note_on_c, 10, 81, 127
1, 19147, Note_off_c, 10, 81, 127
1, 19148, Note_on_c, 6, 78, 127
1, 19366, Note_off_c, 6, 78, 127
1, 19366, Note_off_c, 2, 50, 127
1, 19367, Note_on_c, 7, 43, 127
1, 19367, Note_on_c, 7, 79, 127
1, 19585, Note_off_c, 7, 79, 127
1, 19586, Note_on_c, 2, 74, 127
1, 19804, Note_off_c, 2, 74, 127
1, 19805, Note_on_c, 7, 79, 127
1, 20023, Note_off_c, 7, 79, 127
1, 20023, Note_off_c, 7, 43, 127
1, 20024, Note_on_c, 7, 55, 127
1, 20024, Note_on_c, 10, 81, 127
1, 20133, Note_off_c, 10, 81, 127
1, 20134, Note_on_c, 12, 83, 127
1, 20243, Note_off_c, 12, 83, 127
1, 20243, Note_off_c, 7, 55, 127
1, 20244, Note_on_c, 2, 62, 127
1, 20244, Note_on_c, 10, 81, 127
1, 20462, Note_off_c, 10, 81, 127
1, 20463, Note_on_c, 2, 74, 127
1, 20681, Note_off_c, 2, 74, 127
1, 20681, Note_off_c, 2, 62, 127
1, 20682, Note_on_c, 6, 54, 127
1, 20682, Note_on_c, 2, 50, 127
1, 20682, Note_on_c, 10, 81, 127
1, 20900, Note_off_c, 10, 81, 127
1, 20901, Note_on_c, 12, 83, 127
1, 21010, Note_off_c, 12, 83, 127
1, 21011, Note_on_c, 0, 84, 127
1, 21120, Note_off_c, 0, 84, 127
1, 21120, Note_off_c, 2, 50, 127
1, 21120, Note_off_c, 6, 54, 127
1, 21121, Note_on_c, 7, 43, 127
1, 21121, Note_on_c, 7, 55, 127
1, 21121, Note_on_c, 2, 50, 127
1, 21121, Note_on_c, 12, 83, 127
1, 21339, Note_off_c, 12, 83, 127
1, 21340, Note_on_c, 7, 79, 127
1, 21558, Note_off_c, 7, 79, 127
1, 21559, Note_on_c, 2, 74, 127
1, 21777, Note_off_c, 2, 74, 127
1, 21777, Note_off_c, 2, 50, 127
1, 21777, Note_off_c, 7, 55, 127
1, 21777, Note_off_c, 7, 43, 127
1, 21778, Note_on_c, 7, 55, 127
1, 21778, Note_on_c, 12, 83, 127
1, 21996, Note_off_c, 12, 83, 127
1, 21996, Note_off_c, 7, 55, 127
1, 21997, Note_on_c, 10, 57, 127
1, 21997, Note_on_c, 0, 84, 127
1, 22215, Note_off_c, 0, 84, 127
1, 22216, Note_on_c, 10, 81, 127
1, 22434, Note_off_c, 10, 81, 127
1, 22434, Note_off_c, 10, 57, 127
1, 22435, Note_on_c, 10, 57, 127
1, 22435, Note_on_c, 6, 54, 127
1, 22435, Note_on_c, 2, 62, 127
1, 22435, Note_on_c, 2, 74, 127
1, 22653, Note_off_c, 2, 74, 127
1, 22654, Note_on_c, 0, 84, 127
1, 22872, Note_off_c, 0, 84, 127
1, 22872, Note_off_c, 2, 62, 127
1, 22872, Note_off_c, 6, 54, 127
1, 22872, Note_off_c, 10, 57, 127
1, 22873, Note_on_c, 7, 55, 127
1, 22873, Note_on_c, 2, 62, 127
1, 22873, Note_on_c, 12, 83, 127
1, 23091, Note_off_c, 12, 83, 127
1, 23092, Note_on_c, 7, 79, 127
1, 23310, Note_off_c, 7, 79, 127
1, 23311, Note_on_c, 2, 74, 127
1, 23529, Note_off_c, 2, 74, 127
1, 23529, Note_off_c, 2, 62, 127
1, 23529, Note_off_c, 7, 55, 127
1, 23530, Note_on_c, 7, 55, 127
1, 23530, Note_on_c, 12, 83, 127
1, 23748, Note_off_c, 12, 83, 127
1, 23748, Note_off_c, 7, 55, 127
1, 23749, Note_on_c, 2, 50, 127
1, 23749, Note_on_c, 0, 84, 127
1, 23967, Note_off_c, 0, 84, 127
1, 23968, Note_on_c, 10, 81, 127
1, 24186, Note_off_c, 10, 81, 127
1, 24186, Note_off_c, 2, 50, 127
1, 24187, Note_on_c, 6, 54, 127
1, 24187, Note_on_c, 2, 74, 127
1, 24405, Note_off_c, 2, 74, 127
1, 24406, Note_on_c, 0, 84, 127
1, 24624, Note_off_c, 0, 84, 127
1, 24624, Note_off_c, 6, 54, 127
1, 24625, Note_on_c, 12, 47, 127
1, 24625, Note_on_c, 7, 43, 127
1, 24625, Note_on_c, 7, 55, 127
1, 24625, Note_on_c, 2, 50, 127
1, 24625, Note_on_c, 12, 83, 127
1, 24843, Note_off_c, 12, 83, 127
1, 24844, Note_on_c, 7, 79, 127
1, 25062, Note_off_c, 7, 79, 127
1, 25063, Note_on_c, 10, 81, 127
1, 25173, Note_off_c, 2, 50, 127
1, 25173, Note_off_c, 7, 55, 127
1, 25173, Note_off_c, 7, 43, 127
1, 25173, Note_off_c, 12, 47, 127
1, 25282, Note_off_c, 10, 81, 127
1, 25283, Note_on_c, 12, 83, 127
1, 25501, Note_off_c, 12, 83, 127
1, 25502, Note_on_c, 4, 52, 127
1, 25502, Note_on_c, 10, 57, 127
1, 25502, Note_on_c, 1, 49, 127
1, 25502, Note_on_c, 10, 81, 127
1, 25720, Note_off_c, 10, 81, 127
1, 25721, Note_on_c, 4, 76, 127
1, 25936, Note_off_c, 1, 49, 127
1, 25936, Note_off_c, 10, 57, 127
1, 25936, Note_off_c, 4, 52, 127
1, 25939, Note_off_c, 4, 76, 127
1, 25940, Note_on_c, 6, 78, 127
1, 26158, Note_off_c, 6, 78, 127
1, 26159, Note_on_c, 7, 79, 127
1, 26377, Note_off_c, 7, 79, 127
1, 26378, Note_on_c, 4, 52, 127
1, 26378, Note_on_c, 1, 49, 127
1, 26378, Note_on_c, 10, 45, 127
1, 26378, Note_on_c, 10, 57, 127
1, 26378, Note_on_c, 10, 69, 127
1, 26596, Note_off_c, 10, 69, 127
1, 26597, Note_on_c, 1, 73, 127
1, 26812, Note_off_c, 10, 57, 127
1, 26812, Note_off_c, 10, 45, 127
1, 26812, Note_off_c, 1, 49, 127
1, 26812, Note_off_c, 4, 52, 127
1, 26815, Note_off_c, 1, 73, 127
1, 26816, Note_on_c, 1, 73, 127
1, 27034, Note_off_c, 1, 73, 127
1, 27035, Note_on_c, 4, 76, 127
1, 27253, Note_off_c, 4, 76, 127
1, 27254, Note_on_c, 10, 45, 127
1, 27254, Note_on_c, 4, 76, 127
1, 27472, Note_off_c, 4, 76, 127
1, 27472, Note_off_c, 10, 45, 127
1, 27473, Note_on_c, 12, 47, 127
1, 27473, Note_on_c, 7, 79, 127
1, 27691, Note_off_c, 7, 79, 127
1, 27691, Note_off_c, 12, 47, 127
1, 27692, Note_on_c, 1, 49, 127
1, 27692, Note_on_c, 7, 79, 127
1, 27910, Note_off_c, 7, 79, 127
1, 27910, Note_off_c, 1, 49, 127
1, 27911, Note_on_c, 10, 45, 127
1, 27911, Note_on_c, 10, 81, 127
1, 28129, Note_off_c, 10, 81, 127
1, 28129, Note_off_c, 10, 45, 127
1, 28130, Note_on_c, 2, 50, 127
1, 28130, Note_on_c, 6, 78, 127
1, 28348, Note_off_c, 6, 78, 127
1, 28348, Note_off_c, 2, 50, 127
1, 28349, Note_on_c, 7, 55, 127
1, 28349, Note_on_c, 4, 76, 127
1, 28458, Note_off_c, 4, 76, 127
1, 28459, Note_on_c, 2, 74, 127
1, 28568, Note_off_c, 2, 74, 127
1, 28568, Note_off_c, 7, 55, 127
1, 28569, Note_on_c, 10, 57, 127
1, 28569, Note_on_c, 10, 69, 127
1, 28787, Note_off_c, 10, 69, 127
1, 28787, Note_off_c, 10, 57, 127
1, 28788, Note_on_c, 10, 45, 127
1, 28788, Note_on_c, 1, 73, 127
1, 29006, Note_off_c, 1, 73, 127
1, 29006, Note_off_c, 10, 45, 127
1, 29007, Note_on_c, 2, 50, 127
1, 29007, Note_on_c, 2, 74, 127
1, 29225, Note_off_c, 2, 50, 127
1, 29226, Note_on_c, 2, 62, 127
1, 29444, Note_off_c, 2, 62, 127
1, 29445, Note_on_c, 2, 62, 127
1, 29663, Note_off_c, 2, 62, 127
1, 29663, Note_off_c, 2, 74, 127
1, 29664, Note_on_c, 0, 60, 127
1, 29882, Note_off_c, 0, 60, 127
1, 29883, Note_on_c, 12, 59, 127
1, 29883, Note_on_c, 7, 79, 127
1, 30101, Note_off_c, 7, 79, 127
1, 30102, Note_on_c, 2, 74, 127
1, 30320, Note_off_c, 2, 74, 127
1, 30321, Note_on_c, 12, 47, 127
1, 30321, Note_on_c, 2, 50, 127
1, 30321, Note_on_c, 7, 55, 127
1, 30321, Note_on_c, 7, 79, 127
1, 30539, Note_off_c, 7, 79, 127
1, 30540, Note_on_c, 2, 74, 127
1, 30758, Note_off_c, 2, 74, 127
1, 30758, Note_off_c, 7, 55, 127
1, 30758, Note_off_c, 2, 50, 127
1, 30758, Note_off_c, 12, 47, 127
1, 30758, Note_off_c, 12, 59, 127
1, 30759, Note_on_c, 7, 55, 127
1, 30759, Note_on_c, 0, 48, 127
1, 30759, Note_on_c, 4, 76, 127
1, 30977, Note_off_c, 4, 76, 127
1, 30978, Note_on_c, 0, 72, 127
1, 31196, Note_off_c, 0, 72, 127
1, 31197, Note_on_c, 0, 72, 127
1, 31415, Note_off_c, 0, 72, 127
1, 31415, Note_off_c, 0, 48, 127
1, 31415, Note_off_c, 7, 55, 127
1, 31416, Note_on_c, 4, 76, 127
1, 31634, Note_off_c, 4, 76, 127
1, 31635, Note_on_c, 1, 61, 127
1, 31635, Note_on_c, 10, 81, 127
1, 31853, Note_off_c, 10, 81, 127
1, 31854, Note_on_c, 4, 76, 127
1, 32072, Note_off_c, 4, 76, 127
1, 32073, Note_on_c, 4, 52, 127
1, 32073, Note_on_c, 1, 49, 127
1, 32073, Note_on_c, 10, 57, 127
1, 32073, Note_on_c, 10, 81, 127
1, 32291, Note_off_c, 10, 81, 127
1, 32292, Note_on_c, 4, 76, 127
1, 32510, Note_off_c, 4, 76, 127
1, 32510, Note_off_c, 10, 57, 127
1, 32510, Note_off_c, 1, 49, 127
1, 32510, Note_off_c, 4, 52, 127
1, 32510, Note_off_c, 1, 61, 127
1, 32511, Note_on_c, 2, 50, 127
1, 32511, Note_on_c, 10, 57, 127
1, 32511, Note_on_c, 6, 78, 127
1, 32729, Note_off_c, 6, 78, 127
1, 32730, Note_on_c, 2, 74, 127
1, 32948, Note_off_c, 2, 74, 127
1, 32949, Note_on_c, 2, 74, 127
1, 33167, Note_off_c, 2, 74, 127
1, 33167, Note_off_c, 10, 57, 127
1, 33167, Note_off_c, 2, 50, 127
1, 33168, Note_on_c, 6, 78, 127
1, 33386, Note_off_c, 6, 78, 127
1, 33387, Note_on_c, 2, 62, 127
1, 33387, Note_on_c, 12, 83, 127
1, 33605, Note_off_c, 12, 83, 127
1, 33606, Note_on_c, 6, 78, 127
1, 33824, Note_off_c, 6, 78, 127
1, 33825, Note_on_c, 6, 54, 127
1, 33825, Note_on_c, 12, 59, 127
1, 33825, Note_on_c, 2, 50, 127
1, 33825, Note_on_c, 12, 83, 127
1, 34043, Note_off_c, 12, 83, 127
1, 34044, Note_on_c, 6, 78, 127
1, 34262, Note_off_c, 6, 78, 127
1, 34262, Note_off_c, 2, 50, 127
1, 34262, Note_off_c, 12, 59, 127
1, 34262, Note_off_c, 6, 54, 127
1, 34262, Note_off_c, 2, 62, 127
1, 34263, Note_on_c, 4, 52, 127
1, 34263, Note_on_c, 12, 59, 127
1, 34263, Note_on_c, 7, 79, 127
1, 34481, Note_off_c, 7, 79, 127
1, 34482, Note_on_c, 4, 76, 127
1, 34700, Note_off_c, 4, 76, 127
1, 34701, Note_on_c, 4, 76, 127
1, 34919, Note_off_c, 4, 76, 127
1, 34919, Note_off_c, 12, 59, 127
1, 34919, Note_off_c, 4, 52, 127
1, 34920, Note_on_c, 7, 79, 127
1, 35138, Note_off_c, 7, 79, 127
1, 35139, Note_on_c, 0, 60, 127
1, 35139, Note_on_c, 10, 81, 127
1, 35357, Note_off_c, 10, 81, 127
1, 35358, Note_on_c, 4, 76, 127
1, 35576, Note_off_c, 4, 76, 127
1, 35577, Note_on_c, 4, 52, 127
1, 35577, Note_on_c, 0, 48, 127
1, 35577, Note_on_c, 10, 57, 127
1, 35577, Note_on_c, 10, 81, 127
1, 35795, Note_off_c, 10, 81, 127
1, 35796, Note_on_c, 4, 76, 127
1, 36014, Note_off_c, 4, 76, 127
1, 36014, Note_off_c, 10, 57, 127
1, 36014, Note_off_c, 0, 48, 127
1, 36014, Note_off_c, 4, 52, 127
1, 36014, Note_off_c, 0, 60, 127
1, 36015, Note_on_c, 2, 50, 127
1, 36015, Note_on_c, 10, 57, 127
1, 36015, Note_on_c, 6, 78, 127
1, 36233, Note_off_c, 6, 78, 127
1, 36234, Note_on_c, 2, 74, 127
1, 36452, Note_off_c, 2, 74, 127
1, 36452, Note_off_c, 10, 57, 127
1, 36452, Note_off_c, 2, 50, 127
1, 36453, Note_on_c, 2, 50, 127
1, 36453, Note_on_c, 12, 47, 127
1, 36453, Note_on_c, 7, 55, 127
1, 36453, Note_on_c, 7, 79, 127
1, 36671, Note_off_c, 7, 79, 127
1, 36672, Note_on_c, 6, 78, 127
1, 36781, Note_off_c, 6, 78, 127
1, 36782, Note_on_c, 4, 76, 127
1, 36891, Note_off_c, 4, 76, 127
1, 36891, Note_off_c, 7, 55, 127
1, 36891, Note_off_c, 12, 47, 127
1, 36891, Note_off_c, 2, 50, 127
1, 36892, Note_on_c, 0, 48, 127
1, 36892, Note_on_c, 7, 55, 127
1, 36892, Note_on_c, 4, 52, 127
1, 36892, Note_on_c, 2, 74, 127
1, 37110, Note_off_c, 2, 74, 127
1, 37111, Note_on_c, 0, 72, 127
1, 37220, Note_off_c, 0, 72, 127
1, 37221, Note_on_c, 12, 71, 127
1, 37330, Note_off_c, 12, 71, 127
1, 37330, Note_off_c, 4, 52, 127
1, 37330, Note_off_c, 7, 55, 127
1, 37330, Note_off_c, 0, 48, 127
1, 37331, Note_on_c, 6, 54, 127
1, 37331, Note_on_c, 2, 50, 127
1, 37331, Note_on_c, 0, 60, 127
1, 37331, Note_on_c, 10, 69, 127
1, 37549, Note_off_c, 10, 69, 127
1, 37550, Note_on_c, 7, 67, 127
1, 37659, Note_off_c, 7, 67, 127
1, 37660, Note_on_c, 6, 66, 127
1, 37769, Note_off_c, 6, 66, 127
1, 37769, Note_off_c, 0, 60, 127
1, 37769, Note_off_c, 2, 50, 127
1, 37769, Note_off_c, 6, 54, 127
1, 37770, Note_on_c, 2, 50, 127
1, 37770, Note_on_c, 7, 43, 127
1, 37770, Note_on_c, 12, 59, 127
1, 37770, Note_on_c, 7, 67, 127
1, 37988, Note_off_c, 7, 67, 127
1, 37989, Note_on_c, 6, 66, 127
1, 38098, Note_off_c, 6, 66, 127
1, 38099, Note_on_c, 4, 64, 127
1, 38204, Note_off_c, 12, 59, 127
1, 38207, Note_off_c, 4, 64, 127
1, 38208, Note_on_c, 2, 62, 127
1, 38317, Note_off_c, 2, 62, 127
1, 38318, Note_on_c, 0, 60, 127
1, 38427, Note_off_c, 0, 60, 127
1, 38427, Note_off_c, 7, 43, 127
1, 38427, Note_off_c, 2, 50, 127
1, 38428, Note_on_c, 12, 59, 127
1, 38537, Note_off_c, 12, 59, 127
1, 38538, Note_on_c, 10, 57, 127
1, 38647, Note_off_c, 10, 57, 127
1, 38648, Note_on_c, 2, 50, 127
1, 38648, Note_on_c, 7, 43, 127
1, 38648, Note_on_c, 12, 47, 127
1, 38648, Note_on_c, 12, 59, 127
1, 38648, Note_on_c, 7, 67, 127
1, 38648, Note_on_c, 2, 62, 127
1, 38648, Note_on_c, 7, 55, 127
1, 39425, Note_off_c, 7, 55, 127
1, 39425, Note_off_c, 2, 62, 127
1, 39425, Note_off_c, 7, 67, 127
1, 39425, Note_off_c, 12, 59, 127
1, 39425, Note_off_c, 12, 47, 127
1, 39425, Note_off_c, 7, 43, 127
1, 39425, Note_off_c, 2, 50, 127
1, 39542, Note_on_c, 7, 79, 127
1, 39542, Note_on_c, 12, 59, 127
1, 39651, Note_off_c, 7, 79, 127
1, 39652, Note_on_c, 10, 81, 127
1, 39761, Note_off_c, 10, 81, 127
1, 39761, Note_off_c, 12, 59, 127
1, 39762, Note_on_c, 12, 83, 127
1, 39762, Note_on_c, 7, 55, 127
1, 39871, Note_off_c, 12, 83, 127
1, 39872, Note_on_c, 7, 79, 127
1, 39981, Note_off_c, 7, 79, 127
1, 39981, Note_off_c, 7, 55, 127
1, 39982, Note_on_c, 10, 81, 127
1, 39982, Note_on_c, 2, 62, 127
1, 40091, Note_off_c, 10, 81, 127
1, 40092, Note_on_c, 7, 79, 127
1, 40201, Note_off_c, 7, 79, 127
1, 40201, Note_off_c, 2, 62, 127
1, 40202, Note_on_c, 10, 81, 127
1, 40202, Note_on_c, 2, 50, 127
1, 40311, Note_off_c, 10, 81, 127
1, 40312, Note_on_c, 6, 78, 127
1, 40421, Note_off_c, 6, 78, 127
1, 40421, Note_off_c, 2, 50, 127
1, 40422, Note_on_c, 7, 79, 127
1, 40422, Note_on_c, 7, 55, 127
1, 40531, Note_off_c, 7, 79, 127
1, 40532, Note_on_c, 6, 78, 127
1, 40641, Note_off_c, 6, 78, 127
1, 40641, Note_off_c, 7, 55, 127
1, 40642, Note_on_c, 7, 79, 127
1, 40642, Note_on_c, 10, 57, 127
1, 40751, Note_off_c, 7, 79, 127
1, 40752, Note_on_c, 2, 74, 127
1, 40861, Note_off_c, 2, 74, 127
1, 40861, Note_off_c, 10, 57, 127
1, 40862, Note_on_c, 7, 79, 127
1, 40862, Note_on_c, 12, 59, 127
1, 40971, Note_off_c, 7, 79, 127
1, 40972, Note_on_c, 10, 81, 127
1, 41081, Note_off_c, 10, 81, 127
1, 41081, Note_off_c, 12, 59, 127
1, 41082, Note_on_c, 12, 83, 127
1, 41082, Note_on_c, 7, 55, 127
1, 41191, Note_off_c, 12, 83, 127
1, 41192, Note_on_c, 7, 79, 127
1, 41301, Note_off_c, 7, 79, 127
1, 41301, Note_off_c, 7, 55, 127
1, 41302, Note_on_c, 10, 81, 127
1, 41302, Note_on_c, 6, 54, 127
1, 41411, Note_off_c, 10, 81, 127
1, 41412, Note_on_c, 7, 79, 127
1, 41521, Note_off_c, 7, 79, 127
1, 41521, Note_off_c, 6, 54, 127
1, 41522, Note_on_c, 10, 81, 127
1, 41522, Note_on_c, 4, 52, 127
1, 41631, Note_off_c, 10, 81, 127
1, 41632, Note_on_c, 2, 74, 127
1, 41741, Note_off_c, 2, 74, 127
1, 41741, Note_off_c, 4, 52, 127
1, 41742, Note_on_c, 10, 81, 127
1, 41742, Note_on_c, 6, 54, 127
1, 41851, Note_off_c, 10, 81, 127
1, 41852, Note_on_c, 12, 83, 127
1, 41961, Note_off_c, 12, 83, 127
1, 41961, Note_off_c, 6, 54, 127
1, 41962, Note_on_c, 0, 84, 127
1, 41962, Note_on_c, 2, 50, 127
1, 42071, Note_off_c, 0, 84, 127
1, 42072, Note_on_c, 10, 81, 127
1, 42181, Note_off_c, 10, 81, 127
1, 42181, Note_off_c, 2, 50, 127
1, 42182, Note_on_c, 12, 83, 127
1, 42182, Note_on_c, 7, 55, 127
1, 42291, Note_off_c, 12, 83, 127
1, 42292, Note_on_c, 10, 81, 127
1, 42401, Note_off_c, 10, 81, 127
1, 42401, Note_off_c, 7, 55, 127
1, 42402, Note_on_c, 12, 83, 127
1, 42402, Note_on_c, 10, 57, 127
1, 42511, Note_off_c, 12, 83, 127
1, 42512, Note_on_c, 7, 79, 127
1, 42621, Note_off_c, 7, 79, 127
1, 42621, Note_off_c, 10, 57, 127
1, 42622, Note_on_c, 2, 74, 127
1, 42622, Note_on_c, 12, 59, 127
1, 42731, Note_off_c, 2, 74, 127
1, 42732, Note_on_c, 12, 83, 127
1, 42841, Note_off_c, 12, 83, 127
1, 42841, Note_off_c, 12, 59, 127
1, 42842, Note_on_c, 2, 74, 127
1, 42842, Note_on_c, 7, 55, 127
1, 42951, Note_off_c, 2, 74, 127
1, 42952, Note_on_c, 12, 83, 127
1, 43061, Note_off_c, 12, 83, 127
1, 43061, Note_off_c, 7, 55, 127
1, 43062, Note_on_c, 0, 84, 127
1, 43062, Note_on_c, 10, 57, 127
1, 43171, Note_off_c, 0, 84, 127
1, 43172, Note_on_c, 12, 83, 127
1, 43281, Note_off_c, 12, 83, 127
1, 43281, Note_off_c, 10, 57, 127
1, 43282, Note_on_c, 0, 84, 127
1, 43282, Note_on_c, 7, 55, 127
1, 43391, Note_off_c, 0, 84, 127
1, 43392, Note_on_c, 10, 81, 127
1, 43501, Note_off_c, 10, 81, 127
1, 43501, Note_off_c, 7, 55, 127
1, 43502, Note_on_c, 2, 74, 127
1, 43502, Note_on_c, 6, 54, 127
1, 43611, Note_off_c, 2, 74, 127
1, 43612, Note_on_c, 6, 78, 127
1, 43721, Note_off_c, 6, 78, 127
1, 43721, Note_off_c, 6, 54, 127
1, 43722, Note_on_c, 10, 81, 127
1, 43722, Note_on_c, 2, 50, 127
1, 43831, Note_off_c, 10, 81, 127
1, 43832, Note_on_c, 0, 84, 127
1, 43941, Note_off_c, 0, 84, 127
1, 43941, Note_off_c, 2, 50, 127
1, 43942, Note_on_c, 12, 83, 127
1, 43942, Note_on_c, 7, 55, 127
1, 44051, Note_off_c, 12, 83, 127
1, 44052, Note_on_c, 10, 81, 127
1, 44161, Note_off_c, 10, 81, 127
1, 44161, Note_off_c, 7, 55, 127
1, 44162, Note_on_c, 12, 83, 127
1, 44162, Note_on_c, 10, 57, 127
1, 44271, Note_off_c, 12, 83, 127
1, 44272, Note_on_c, 7, 79, 127
1, 44381, Note_off_c, 7, 79, 127
1, 44381, Note_off_c, 10, 57, 127
1, 44382, Note_on_c, 2, 74, 127
1, 44382, Note_on_c, 12, 59, 127
1, 44491, Note_off_c, 2, 74, 127
1, 44492, Note_on_c, 12, 83, 127
1, 44601, Note_off_c, 12, 83, 127
1, 44601, Note_off_c, 12, 59, 127
1, 44602, Note_on_c, 2, 74, 127
1, 44602, Note_on_c, 7, 55, 127
1, 44711, Note_off_c, 2, 74, 127
1, 44712, Note_on_c, 12, 83, 127
1, 44821, Note_off_c, 12, 83, 127
1, 44821, Note_off_c, 7, 55, 127
1, 44822, Note_on_c, 0, 84, 127
1, 44822, Note_on_c, 10, 57, 127
1, 44931, Note_off_c, 0, 84, 127
1, 44932, Note_on_c, 12, 83, 127
1, 45041, Note_off_c, 12, 83, 127
1, 45041, Note_off_c, 10, 57, 127
1, 45042, Note_on_c, 0, 84, 127
1, 45042, Note_on_c, 7, 55, 127
1, 45151, Note_off_c, 0, 84, 127
1, 45152, Note_on_c, 10, 81, 127
1, 45261, Note_off_c, 10, 81, 127
1, 45261, Note_off_c, 7, 55, 127
1, 45262, Note_on_c, 2, 74, 127
1, 45262, Note_on_c, 6, 54, 127
1, 45371, Note_off_c, 2, 74, 127
1, 45372, Note_on_c, 6, 78, 127
1, 45481, Note_off_c, 6, 78, 127
1, 45481, Note_off_c, 6, 54, 127
1, 45482, Note_on_c, 10, 81, 127
1, 45482, Note_on_c, 2, 50, 127
1, 45591, Note_off_c, 10, 81, 127
1, 45592, Note_on_c, 0, 84, 127
1, 45701, Note_off_c, 0, 84, 127
1, 45701, Note_off_c, 2, 50, 127
1, 45702, Note_on_c, 12, 83, 127
1, 45702, Note_on_c, 7, 55, 127
1, 45811, Note_off_c, 12, 83, 127
1, 45812, Note_on_c, 10, 81, 127
1, 45921, Note_off_c, 10, 81, 127
1, 45921, Note_off_c, 7, 55, 127
1, 45922, Note_on_c, 12, 83, 127
1, 45922, Note_on_c, 10, 57, 127
1, 46031, Note_off_c, 12, 83, 127
1, 46032, Note_on_c, 7, 79, 127
1, 46141, Note_off_c, 7, 79, 127
1, 46141, Note_off_c, 10, 57, 127
1, 46142, Note_on_c, 2, 74, 127
1, 46142, Note_on_c, 12, 59, 127
1, 46251, Note_off_c, 2, 74, 127
1, 46252, Note_on_c, 6, 78, 127
1, 46361, Note_off_c, 6, 78, 127
1, 46361, Note_off_c, 12, 59, 127
1, 46362, Note_on_c, 7, 79, 127
1, 46362, Note_on_c, 7, 55, 127
1, 46471, Note_off_c, 7, 79, 127
1, 46472, Note_on_c, 12, 83, 127
1, 46581, Note_off_c, 12, 83, 127
1, 46581, Note_off_c, 7, 55, 127
1, 46582, Note_on_c, 10, 81, 127
1, 46582, Note_on_c, 6, 54, 127
1, 46800, Note_off_c, 6, 54, 127
1, 46800, Note_off_c, 10, 81, 127
1, 46801, Note_on_c, 7, 79, 127
1, 46801, Note_on_c, 4, 52, 127
1, 46910, Note_off_c, 4, 52, 127
1, 46910, Note_off_c, 7, 79, 127
1, 46911, Note_on_c, 6, 78, 127
1, 46911, Note_on_c, 2, 50, 127
1, 47020, Note_off_c, 2, 50, 127
1, 47020, Note_off_c, 6, 78, 127
1, 47021, Note_on_c, 4, 76, 127
1, 47021, Note_on_c, 1, 49, 127
1, 47130, Note_off_c, 4, 76, 127
1, 47131, Note_on_c, 2, 74, 127
1, 47240, Note_off_c, 2, 74, 127
1, 47240, Note_off_c, 1, 49, 127
1, 47241, Note_on_c, 1, 73, 127
1, 47241, Note_on_c, 4, 52, 127
1, 47350, Note_off_c, 1, 73, 127
1, 47351, Note_on_c, 12, 71, 127
1, 47460, Note_off_c, 12, 71, 127
1, 47460, Note_off_c, 4, 52, 127
1, 47461, Note_on_c, 10, 69, 127
1, 47461, Note_on_c, 4, 52, 127
1, 47461, Note_on_c, 10, 57, 127
1, 47461, Note_on_c, 10, 45, 127
1, 47461, Note_on_c, 1, 49, 127
1, 47570, Note_off_c, 10, 69, 127
1, 47571, Note_on_c, 7, 79, 127
1, 47680, Note_off_c, 7, 79, 127
1, 47681, Note_on_c, 6, 78, 127
1, 47790, Note_off_c, 6, 78, 127
1, 47791, Note_on_c, 7, 79, 127
1, 47900, Note_off_c, 7, 79, 127
1, 47901, Note_on_c, 4, 76, 127
1, 48010, Note_off_c, 4, 76, 127
1, 48011, Note_on_c, 1, 73, 127
1, 48120, Note_off_c, 1, 73, 127
1, 48121, Note_on_c, 12, 71, 127
1, 48230, Note_off_c, 12, 71, 127
1, 48231, Note_on_c, 1, 73, 127
1, 48240, Note_off_c, 1, 49, 127
1, 48240, Note_off_c, 10, 45, 127
1, 48240, Note_off_c, 10, 57, 127
1, 48240, Note_off_c, 4, 52, 127
1, 48339, Note_off_c, 1, 73, 127
1, 48340, Note_on_c, 10, 69, 127
1, 48340, Note_on_c, 10, 45, 127
1, 48340, Note_on_c, 10, 57, 127
1, 48340, Note_on_c, 1, 49, 127
1, 48340, Note_on_c, 4, 52, 127
1, 48449, Note_off_c, 10, 69, 127
1, 48450, Note_on_c, 7, 79, 127
1, 48559, Note_off_c, 7, 79, 127
1, 48560, Note_on_c, 6, 78, 127
1, 48669, Note_off_c, 6, 78, 127
1, 48670, Note_on_c, 7, 79, 127
1, 48779, Note_off_c, 7, 79, 127
1, 48780, Note_on_c, 4, 76, 127
1, 48889, Note_off_c, 4, 76, 127
1, 48890, Note_on_c, 1, 73, 127
1, 48999, Note_off_c, 1, 73, 127
1, 49000, Note_on_c, 12, 71, 127
1, 49109, Note_off_c, 12, 71, 127
1, 49110, Note_on_c, 1, 73, 127
1, 49119, Note_off_c, 4, 52, 127
1, 49119, Note_off_c, 1, 49, 127
1, 49119, Note_off_c, 10, 57, 127
1, 49119, Note_off_c, 10, 45, 127
1, 49218, Note_off_c, 1, 73, 127
1, 49219, Note_on_c, 10, 69, 127
1, 49219, Note_on_c, 4, 52, 127
1, 49219, Note_on_c, 10, 57, 127
1, 49219, Note_on_c, 10, 45, 127
1, 49219, Note_on_c, 1, 49, 127
1, 49328, Note_off_c, 10, 69, 127
1, 49329, Note_on_c, 7, 79, 127
1, 49438, Note_off_c, 7, 79, 127
1, 49439, Note_on_c, 6, 78, 127
1, 49548, Note_off_c, 6, 78, 127
1, 49549, Note_on_c, 7, 79, 127
1, 49658, Note_off_c, 7, 79, 127
1, 49659, Note_on_c, 1, 73, 127
1, 49768, Note_off_c, 1, 73, 127
1, 49769, Note_on_c, 7, 79, 127
1, 49878, Note_off_c, 7, 79, 127
1, 49878, Note_off_c, 1, 49, 127
1, 49878, Note_off_c, 10, 45, 127
1, 49878, Note_off_c, 10, 57, 127
1, 49878, Note_off_c, 4, 52, 127
1, 49879, Note_on_c, 6, 78, 127
1, 49988, Note_off_c, 6, 78, 127
1, 49989, Note_on_c, 4, 76, 127
1, 50098, Note_off_c, 4, 76, 127
1, 50099, Note_on_c, 6, 78, 127
1, 50099, Note_on_c, 2, 50, 127
1, 50208, Note_off_c, 2, 50, 127
1, 50208, Note_off_c, 6, 78, 127
1, 50209, Note_on_c, 1, 73, 127
1, 50209, Note_on_c, 4, 52, 127
1, 50318, Note_off_c, 4, 52, 127
1, 50318, Note_off_c, 1, 73, 127
1, 50319, Note_on_c, 2, 74, 127
1, 50319, Note_on_c, 6, 54, 127
1, 50428, Note_off_c, 6, 54, 127
1, 50428, Note_off_c, 2, 74, 127
1, 50429, Note_on_c, 6, 66, 127
1, 50429, Note_on_c, 7, 55, 127
1, 50538, Note_off_c, 7, 55, 127
1, 50538, Note_off_c, 6, 66, 127
1, 50539, Note_on_c, 4, 64, 127
1, 50539, Note_on_c, 10, 57, 127
1, 50648, Note_off_c, 4, 64, 127
1, 50649, Note_on_c, 7, 67, 127
1, 50758, Note_off_c, 7, 67, 127
1, 50758, Note_off_c, 10, 57, 127
1, 50759, Note_on_c, 10, 69, 127
1, 50759, Note_on_c, 10, 45, 127
1, 50868, Note_off_c, 10, 69, 127
1, 50869, Note_on_c, 1, 73, 127
1, 50978, Note_off_c, 1, 73, 127
1, 50978, Note_off_c, 10, 45, 127
1, 50979, Note_on_c, 2, 62, 127
1, 50979, Note_on_c, 2, 50, 127
1, 51088, Note_off_c, 2, 50, 127
1, 51089, Note_on_c, 4, 52, 127
1, 51198, Note_off_c, 4, 52, 127
1, 51199, Note_on_c, 6, 54, 127
1, 51308, Note_off_c, 6, 54, 127
1, 51309, Note_on_c, 4, 52, 127
1, 51414, Note_off_c, 2, 62, 127
1, 51417, Note_off_c, 4, 52, 127
1, 51418, Note_on_c, 2, 50, 127
1, 51527, Note_off_c, 2, 50, 127
1, 51528, Note_on_c, 4, 52, 127
1, 51637, Note_off_c, 4, 52, 127
1, 51638, Note_on_c, 2, 74, 127
1, 51638, Note_on_c, 2, 50, 127
1, 51747, Note_off_c, 2, 50, 127
1, 51748, Note_on_c, 0, 48, 127
1, 51857, Note_off_c, 0, 48, 127
1, 51857, Note_off_c, 2, 74, 127
1, 51858, Note_on_c, 7, 79, 127
1, 51858, Note_on_c, 12, 47, 127
1, 51967, Note_off_c, 7, 79, 127
1, 51968, Note_on_c, 12, 83, 127
1, 52077, Note_off_c, 12, 83, 127
1, 52077, Note_off_c, 12, 47, 127
1, 52078, Note_on_c, 10, 81, 127
1, 52078, Note_on_c, 2, 50, 127
1, 52187, Note_off_c, 10, 81, 127
1, 52188, Note_on_c, 12, 83, 127
1, 52297, Note_off_c, 12, 83, 127
1, 52297, Note_off_c, 2, 50, 127
1, 52298, Note_on_c, 7, 79, 127
1, 52298, Note_on_c, 7, 55, 127
1, 52407, Note_off_c, 7, 79, 127
1, 52408, Note_on_c, 10, 81, 127
1, 52517, Note_off_c, 10, 81, 127
1, 52517, Note_off_c, 7, 55, 127
1, 52518, Note_on_c, 6, 78, 127
1, 52518, Note_on_c, 2, 50, 127
1, 52627, Note_off_c, 6, 78, 127
1, 52628, Note_on_c, 7, 79, 127
1, 52737, Note_off_c, 7, 79, 127
1, 52737, Note_off_c, 2, 50, 127
1, 52738, Note_on_c, 4, 76, 127
1, 52738, Note_on_c, 0, 48, 127
1, 52847, Note_off_c, 4, 76, 127
1, 52848, Note_on_c, 2, 74, 127
1, 52957, Note_off_c, 2, 74, 127
1, 52957, Note_off_c, 0, 48, 127
1, 52958, Note_on_c, 0, 72, 127
1, 52958, Note_on_c, 4, 52, 127
1, 53067, Note_off_c, 0, 72, 127
1, 53068, Note_on_c, 2, 74, 127
1, 53177, Note_off_c, 2, 74, 127
1, 53177, Note_off_c, 4, 52, 127
1, 53178, Note_on_c, 4, 76, 127
1, 53178, Note_on_c, 7, 55, 127
1, 53287, Note_off_c, 4, 76, 127
1, 53288, Note_on_c, 6, 78, 127
1, 53397, Note_off_c, 6, 78, 127
1, 53397, Note_off_c, 7, 55, 127
1, 53398, Note_on_c, 7, 79, 127
1, 53398, Note_on_c, 4, 52, 127
1, 53507, Note_off_c, 7, 79, 127
1, 53508, Note_on_c, 4, 76, 127
1, 53617, Note_off_c, 4, 76, 127
1, 53617, Note_off_c, 4, 52, 127
1, 53618, Note_on_c, 10, 81, 127
1, 53618, Note_on_c, 0, 48, 127
1, 53727, Note_off_c, 10, 81, 127
1, 53728, Note_on_c, 0, 84, 127
1, 53837, Note_off_c, 0, 84, 127
1, 53837, Note_off_c, 0, 48, 127
1, 53838, Note_on_c, 12, 83, 127
1, 53838, Note_on_c, 4, 52, 127
1, 53947, Note_off_c, 12, 83, 127
1, 53948, Note_on_c, 0, 84, 127
1, 54057, Note_off_c, 0, 84, 127
1, 54057, Note_off_c, 4, 52, 127
1, 54058, Note_on_c, 10, 81, 127
1, 54058, Note_on_c, 10, 57, 127
1, 54167, Note_off_c, 10, 81, 127
1, 54168, Note_on_c, 12, 83, 127
1, 54277, Note_off_c, 12, 83, 127
1, 54277, Note_off_c, 10, 57, 127
1, 54278, Note_on_c, 7, 79, 127
1, 54278, Note_on_c, 4, 52, 127
1, 54387, Note_off_c, 7, 79, 127
1, 54388, Note_on_c, 10, 81, 127
1, 54497, Note_off_c, 10, 81, 127
1, 54497, Note_off_c, 4, 52, 127
1, 54498, Note_on_c, 6, 78, 127
1, 54498, Note_on_c, 2, 50, 127
1, 54607, Note_off_c, 6, 78, 127
1, 54608, Note_on_c, 4, 76, 127
1, 54717, Note_off_c, 4, 76, 127
1, 54717, Note_off_c, 2, 50, 127
1, 54718, Note_on_c, 2, 74, 127
1, 54718, Note_on_c, 6, 54, 127
1, 54827, Note_off_c, 2, 74, 127
1, 54828, Note_on_c, 4, 76, 127
1, 54937, Note_off_c, 4, 76, 127
1, 54937, Note_off_c, 6, 54, 127
1, 54938, Note_on_c, 6, 78, 127
1, 54938, Note_on_c, 10, 57, 127
1, 55047, Note_off_c, 6, 78, 127
1, 55048, Note_on_c, 7, 79, 127
1, 55157, Note_off_c, 7, 79, 127
1, 55157, Note_off_c, 10, 57, 127
1, 55158, Note_on_c, 10, 81, 127
1, 55158, Note_on_c, 6, 54, 127
1, 55267, Note_off_c, 10, 81, 127
1, 55268, Note_on_c, 6, 78, 127
1, 55377, Note_off_c, 6, 78, 127
1, 55377, Note_off_c, 6, 54, 127
1, 55378, Note_on_c, 11, 82, 127
1, 55378, Note_on_c, 7, 55, 127
1, 55487, Note_off_c, 11, 82, 127
1, 55488, Note_on_c, 7, 79, 127
1, 55597, Note_off_c, 7, 79, 127
1, 55598, Note_on_c, 2, 74, 127
1, 55598, Note_on_c, 11, 58, 127
1, 55707, Note_off_c, 2, 74, 127
1, 55708, Note_on_c, 7, 79, 127
1, 55817, Note_off_c, 7, 79, 127
1, 55818, Note_on_c, 0, 84, 127
1, 55818, Note_on_c, 2, 62, 127
1, 55927, Note_off_c, 0, 84, 127
1, 55928, Note_on_c, 11, 82, 127
1, 56037, Note_off_c, 11, 82, 127
1, 56037, Note_off_c, 2, 62, 127
1, 56038, Note_on_c, 10, 81, 127
1, 56038, Note_on_c, 3, 63, 127
1, 56147, Note_off_c, 10, 81, 127
1, 56148, Note_on_c, 7, 79, 127
1, 56257, Note_off_c, 7, 79, 127
1, 56257, Note_off_c, 3, 63, 127
1, 56257, Note_off_c, 11, 58, 127
1, 56257, Note_off_c, 7, 55, 127
1, 56258, Note_on_c, 10, 81, 127
1, 56258, Note_on_c, 6, 54, 127
1, 56367, Note_off_c, 10, 81, 127
1, 56368, Note_on_c, 6, 78, 127
1, 56477, Note_off_c, 6, 78, 127
1, 56478, Note_on_c, 2, 74, 127
1, 56478, Note_on_c, 10, 57, 127
1, 56587, Note_off_c, 2, 74, 127
1, 56588, Note_on_c, 6, 78, 127
1, 56697, Note_off_c, 6, 78, 127
1, 56698, Note_on_c, 10, 81, 127
1, 56698, Note_on_c, 0, 60, 127
1, 56807, Note_off_c, 10, 81, 127
1, 56808, Note_on_c, 6, 78, 127
1, 56917, Note_off_c, 6, 78, 127
1, 56917, Note_off_c, 0, 60, 127
1, 56918, Note_on_c, 2, 74, 127
1, 56918, Note_on_c, 2, 62, 127
1, 57027, Note_off_c, 2, 74, 127
1, 57028, Note_on_c, 6, 78, 127
1, 57137, Note_off_c, 6, 78, 127
1, 57137, Note_off_c, 2, 62, 127
1, 57137, Note_off_c, 10, 57, 127
1, 57137, Note_off_c, 6, 54, 127
1, 57138, Note_on_c, 11, 82, 127
1, 57138, Note_on_c, 7, 55, 127
1, 57247, Note_off_c, 11, 82, 127
1, 57248, Note_on_c, 7, 79, 127
1, 57357, Note_off_c, 7, 79, 127
1, 57358, Note_on_c, 2, 74, 127
1, 57358, Note_on_c, 11, 58, 127
1, 57467, Note_off_c, 2, 74, 127
1, 57468, Note_on_c, 7, 79, 127
1, 57577, Note_off_c, 7, 79, 127
1, 57578, Note_on_c, 0, 84, 127
1, 57578, Note_on_c, 2, 62, 127
1, 57687, Note_off_c, 0, 84, 127
1, 57688, Note_on_c, 11, 82, 127
1, 57797, Note_off_c, 11, 82, 127
1, 57797, Note_off_c, 2, 62, 127
1, 57798, Note_on_c, 10, 81, 127
1, 57798, Note_on_c, 3, 63, 127
1, 57907, Note_off_c, 10, 81, 127
1, 57908, Note_on_c, 7, 79, 127
1, 58017, Note_off_c, 7, 79, 127
1, 58017, Note_off_c, 3, 63, 127
1, 58017, Note_off_c, 11, 58, 127
1, 58017, Note_off_c, 7, 55, 127
1, 58018, Note_on_c, 10, 81, 127
1, 58018, Note_on_c, 6, 54, 127
1, 58127, Note_off_c, 6, 54, 127
1, 58128, Note_on_c, 7, 55, 127
1, 58237, Note_off_c, 7, 55, 127
1, 58237, Note_off_c, 10, 81, 127
1, 58238, Note_on_c, 2, 74, 127
1, 58238, Note_on_c, 6, 54, 127
1, 58347, Note_off_c, 6, 54, 127
1, 58348, Note_on_c, 4, 52, 127
1, 58455, Note_off_c, 2, 74, 127
1, 58456, Note_off_c, 4, 52, 127
1, 58457, Note_on_c, 2, 50, 127
1, 58566, Note_off_c, 2, 50, 127
1, 58567, Note_on_c, 0, 48, 127
1, 58676, Note_off_c, 0, 48, 127
1, 58677, Note_on_c, 10, 81, 127
1, 58677, Note_on_c, 12, 47, 127
1, 58786, Note_off_c, 12, 47, 127
1, 58787, Note_on_c, 10, 45, 127
1, 58896, Note_off_c, 10, 45, 127
1, 58896, Note_off_c, 10, 81, 127
1, 58897, Note_on_c, 12, 83, 127
1, 58897, Note_on_c, 7, 43, 127
1, 59006, Note_off_c, 12, 83, 127
1, 59007, Note_on_c, 7, 79, 127
1, 59116, Note_off_c, 7, 79, 127
1, 59116, Note_off_c, 7, 43, 127
1, 59117, Note_on_c, 10, 81, 127
1, 59117, Note_on_c, 0, 48, 127
1, 59226, Note_off_c, 10, 81, 127
1, 59227, Note_on_c, 4, 76, 127
1, 59336, Note_off_c, 4, 76, 127
1, 59336, Note_off_c, 0, 48, 127
1, 59337, Note_on_c, 7, 79, 127
1, 59337, Note_on_c, 2, 50, 127
1, 59395, Note_on_c, 6, 78, 127
1, 59396, Note_off_c, 7, 79, 127
1, 59454, Note_off_c, 6, 78, 127
1, 59455, Note_on_c, 7, 79, 127
1, 59514, Note_off_c, 7, 79, 127
1, 59514, Note_on_c, 6, 78, 127
1, 59554, Note_off_c, 2, 50, 127
1, 59555, Note_on_c, 2, 38, 127
1, 59573, Note_off_c, 6, 78, 127
1, 59573, Note_on_c, 7, 79, 127
1, 59632, Note_off_c, 7, 79, 127
1, 59632, Note_on_c, 6, 78, 127
1, 59691, Note_off_c, 6, 78, 127
1, 59691, Note_on_c, 7, 79, 127
1, 59762, Note_off_c, 7, 79, 127
1, 59772, Note_off_c, 2, 38, 127
1, 59773, Note_on_c, 7, 79, 127
1, 59773, Note_on_c, 7, 55, 127
1, 59773, Note_on_c, 12, 47, 127
1, 59773, Note_on_c, 2, 50, 127
1, 59773, Note_on_c, 7, 43, 127
1, 60650, Note_off_c, 7, 43, 127
1, 60650, Note_off_c, 2, 50, 127
1, 60650, Note_off_c, 12, 47, 127
1, 60650, Note_off_c, 7, 55, 127
1, 60650, Note_off_c, 7, 79, 127
1, 60667, Note_on_c, 12, 59, 127
1, 60667, Note_on_c, 7, 55, 127
1, 60667, Note_on_c, 4, 52, 127
1, 60667, Note_on_c, 7, 67, 127
1, 60667, Note_on_c, 4, 64, 127
1, 60667, Note_on_c, 12, 71, 127
1, 60667, Note_on_c, 4, 76, 127
1, 61105, Note_off_c, 4, 76, 127
1, 61105, Note_off_c, 12, 71, 127
1, 61105, Note_off_c, 4, 64, 127
1, 61105, Note_off_c, 7, 67, 127
1, 61105, Note_off_c, 4, 52, 127
1, 61105, Note_off_c, 7, 55, 127
1, 61105, Note_off_c, 12, 59, 127
1, 61106, Note_on_c, 12, 47, 127
1, 61106, Note_on_c, 6, 54, 127
1, 61106, Note_on_c, 12, 59, 127
1, 61106, Note_on_c, 6, 66, 127
1, 61106, Note_on_c, 3, 75, 127
1, 61106, Note_on_c, 12, 71, 127
1, 61106, Note_on_c, 10, 69, 127
1, 61544, Note_off_c, 10, 69, 127
1, 61544, Note_off_c, 12, 71, 127
1, 61544, Note_off_c, 3, 75, 127
1, 61544, Note_off_c, 6, 66, 127
1, 61544, Note_off_c, 12, 59, 127
1, 61544, Note_off_c, 6, 54, 127
1, 61544, Note_off_c, 12, 47, 127
1, 61545, Note_on_c, 4, 52, 127
1, 61545, Note_on_c, 12, 59, 127
1, 61545, Note_on_c, 7, 55, 127
1, 61545, Note_on_c, 7, 67, 127
1, 61545, Note_on_c, 4, 64, 127
1, 61545, Note_on_c, 12, 71, 127
1, 61545, Note_on_c, 4, 76, 127
1, 62094, Note_off_c, 4, 76, 127
1, 62094, Note_off_c, 12, 71, 127
1, 62094, Note_off_c, 4, 64, 127
1, 62094, Note_off_c, 7, 67, 127
1, 62094, Note_off_c, 7, 55, 127
1, 62094, Note_off_c, 12, 59, 127
1, 62094, Note_off_c, 4, 52, 127
1, 62204, Note_on_c, 2, 50, 127
1, 62204, Note_on_c, 6, 54, 127
1, 62204, Note_on_c, 12, 59, 127
1, 62204, Note_on_c, 12, 71, 127
1, 62422, Note_off_c, 12, 71, 127
1, 62422, Note_off_c, 12, 59, 127
1, 62422, Note_off_c, 6, 54, 127
1, 62422, Note_off_c, 2, 50, 127
1, 62423, Note_on_c, 4, 52, 127
1, 62423, Note_on_c, 0, 48, 127
1, 62423, Note_on_c, 12, 59, 127
1, 62423, Note_on_c, 4, 76, 127
1, 62641, Note_off_c, 12, 59, 127
1, 62642, Note_on_c, 10, 57, 127
1, 62857, Note_off_c, 0, 48, 127
1, 62857, Note_off_c, 4, 52, 127
1, 62860, Note_off_c, 10, 57, 127
1, 62861, Note_on_c, 6, 54, 127
1, 62861, Note_on_c, 3, 51, 127
1, 62861, Note_on_c, 12, 47, 127
1, 62861, Note_on_c, 12, 59, 127
1, 62971, Note_off_c, 4, 76, 127
1, 63080, Note_off_c, 12, 47, 127
1, 63081, Note_on_c, 10, 45, 127
1, 63081, Note_on_c, 6, 78, 127
1, 63296, Note_off_c, 12, 59, 127
1, 63296, Note_off_c, 3, 51, 127
1, 63296, Note_off_c, 6, 54, 127
1, 63299, Note_off_c, 6, 78, 127
1, 63299, Note_off_c, 10, 45, 127
1, 63300, Note_on_c, 7, 43, 127
1, 63300, Note_on_c, 4, 52, 127
1, 63300, Note_on_c, 12, 47, 127
1, 63300, Note_on_c, 7, 79, 127
1, 63409, Note_off_c, 7, 79, 127
1, 63410, Note_on_c, 6, 78, 127
1, 63519, Note_off_c, 6, 78, 127
1, 63520, Note_on_c, 4, 76, 127
1, 63629, Note_off_c, 4, 76, 127
1, 63630, Note_on_c, 7, 79, 127
1, 63735, Note_off_c, 12, 47, 127
1, 63735, Note_off_c, 4, 52, 127
1, 63735, Note_off_c, 7, 43, 127
1, 63738, Note_off_c, 7, 79, 127
1, 63739, Note_on_c, 6, 78, 127
1, 63848, Note_off_c, 6, 78, 127
1, 63849, Note_on_c, 4, 76, 127
1, 63958, Note_off_c, 4, 76, 127
1, 63959, Note_on_c, 6, 54, 127
1, 63959, Note_on_c, 12, 47, 127
1, 63959, Note_on_c, 10, 57, 127
1, 63959, Note_on_c, 3, 75, 127
1, 64068, Note_off_c, 3, 75, 127
1, 64069, Note_on_c, 6, 78, 127
1, 64178, Note_off_c, 6, 78, 127
1, 64178, Note_off_c, 10, 57, 127
1, 64178, Note_off_c, 12, 47, 127
1, 64178, Note_off_c, 6, 54, 127
1, 64179, Note_on_c, 4, 52, 127
1, 64179, Note_on_c, 7, 55, 127
1, 64179, Note_on_c, 4, 76, 127
1, 64397, Note_off_c, 4, 76, 127
1, 64398, Note_on_c, 12, 71, 127
1, 64616, Note_off_c, 12, 71, 127
1, 64617, Note_on_c, 4, 76, 127
1, 64727, Note_off_c, 7, 55, 127
1, 64727, Note_off_c, 4, 52, 127
1, 64836, Note_off_c, 4, 76, 127
1, 64837, Note_on_c, 6, 54, 127
1, 64837, Note_on_c, 3, 51, 127
1, 64837, Note_on_c, 12, 59, 127
1, 64837, Note_on_c, 6, 78, 127
1, 65055, Note_off_c, 6, 78, 127
1, 65055, Note_off_c, 12, 59, 127
1, 65055, Note_off_c, 3, 51, 127
1, 65055, Note_off_c, 6, 54, 127
1, 65056, Note_on_c, 4, 52, 127
1, 65056, Note_on_c, 12, 59, 127
1, 65056, Note_on_c, 7, 79, 127
1, 65165, Note_off_c, 7, 79, 127
1, 65166, Note_on_c, 6, 78, 127
1, 65275, Note_off_c, 6, 78, 127
1, 65276, Note_on_c, 4, 76, 127
1, 65385, Note_off_c, 4, 76, 127
1, 65386, Note_on_c, 7, 79, 127
1, 65495, Note_off_c, 7, 79, 127
1, 65496, Note_on_c, 6, 78, 127
1, 65605, Note_off_c, 6, 78, 127
1, 65606, Note_off_c, 12, 59, 127
1, 65606, Note_off_c, 4, 52, 127
1, 65606, Note_on_c, 4, 76, 127
1, 65715, Note_off_c, 4, 76, 127
1, 65716, Note_on_c, 12, 47, 127
1, 65716, Note_on_c, 6, 54, 127
1, 65716, Note_on_c, 3, 51, 127
1, 65716, Note_on_c, 3, 75, 127
1, 65825, Note_off_c, 3, 75, 127
1, 65826, Note_on_c, 6, 78, 127
1, 65935, Note_off_c, 6, 78, 127
1, 65935, Note_off_c, 3, 51, 127
1, 65935, Note_off_c, 6, 54, 127
1, 65935, Note_off_c, 12, 47, 127
1, 65936, Note_on_c, 4, 52, 127
1, 65936, Note_on_c, 7, 55, 127
1, 65936, Note_on_c, 4, 76, 127
1, 66045, Note_off_c, 4, 76, 127
1, 66046, Note_on_c, 7, 79, 127
1, 66155, Note_off_c, 7, 79, 127
1, 66155, Note_off_c, 7, 55, 127
1, 66155, Note_off_c, 4, 52, 127
1, 66156, Note_on_c, 4, 64, 127
1, 66156, Note_on_c, 7, 67, 127
1, 66156, Note_on_c, 12, 83, 127
1, 66265, Note_off_c, 12, 83, 127
1, 66266, Note_on_c, 7, 79, 127
1, 66375, Note_off_c, 7, 79, 127
1, 66375, Note_off_c, 7, 67, 127
1, 66375, Note_off_c, 4, 64, 127
1, 66376, Note_on_c, 7, 67, 127
1, 66376, Note_on_c, 4, 64, 127
1, 66376, Note_on_c, 4, 76, 127
1, 66485, Note_off_c, 4, 76, 127
1, 66486, Note_on_c, 7, 79, 127
1, 66595, Note_off_c, 7, 79, 127
1, 66595, Note_off_c, 4, 64, 127
1, 66595, Note_off_c, 7, 67, 127
1, 66596, Note_on_c, 4, 64, 127
1, 66596, Note_on_c, 7, 67, 127
1, 66596, Note_on_c, 12, 83, 127
1, 66705, Note_off_c, 12, 83, 127
1, 66706, Note_on_c, 7, 79, 127
1, 66815, Note_off_c, 7, 79, 127
1, 66815, Note_off_c, 7, 67, 127
1, 66815, Note_off_c, 4, 64, 127
1, 66816, Note_on_c, 7, 67, 127
1, 66816, Note_on_c, 10, 57, 127
1, 66816, Note_on_c, 4, 76, 127
1, 66925, Note_off_c, 4, 76, 127
1, 66926, Note_on_c, 10, 81, 127
1, 67035, Note_off_c, 10, 81, 127
1, 67035, Note_off_c, 10, 57, 127
1, 67035, Note_off_c, 7, 67, 127
1, 67036, Note_on_c, 10, 57, 127
1, 67036, Note_on_c, 7, 67, 127
1, 67036, Note_on_c, 0, 84, 127
1, 67145, Note_off_c, 0, 84, 127
1, 67146, Note_on_c, 10, 81, 127
1, 67255, Note_off_c, 10, 81, 127
1, 67255, Note_off_c, 7, 67, 127
1, 67255, Note_off_c, 10, 57, 127
1, 67256, Note_on_c, 7, 67, 127
1, 67256, Note_on_c, 10, 57, 127
1, 67256, Note_on_c, 4, 76, 127
1, 67365, Note_off_c, 4, 76, 127
1, 67366, Note_on_c, 10, 81, 127
1, 67475, Note_off_c, 10, 81, 127
1, 67475, Note_off_c, 10, 57, 127
1, 67475, Note_off_c, 7, 67, 127
1, 67476, Note_on_c, 10, 57, 127
1, 67476, Note_on_c, 7, 67, 127
1, 67476, Note_on_c, 0, 84, 127
1, 67585, Note_off_c, 0, 84, 127
1, 67586, Note_on_c, 10, 81, 127
1, 67695, Note_off_c, 10, 81, 127
1, 67695, Note_off_c, 7, 67, 127
1, 67695, Note_off_c, 10, 57, 127
1, 67696, Note_on_c, 6, 66, 127
1, 67696, Note_on_c, 2, 62, 127
1, 67696, Note_on_c, 2, 74, 127
1, 67805, Note_off_c, 2, 74, 127
1, 67806, Note_on_c, 6, 78, 127
1, 67860, Note_off_c, 6, 78, 127
1, 67861, Note_on_c, 10, 81, 127
1, 67915, Note_off_c, 10, 81, 127
1, 67915, Note_off_c, 2, 62, 127
1, 67915, Note_off_c, 6, 66, 127
1, 67916, Note_on_c, 2, 62, 127
1, 67916, Note_on_c, 6, 66, 127
1, 67916, Note_on_c, 0, 84, 127
1, 68025, Note_off_c, 0, 84, 127
1, 68026, Note_on_c, 10, 81, 127
1, 68080, Note_off_c, 10, 81, 127
1, 68081, Note_on_c, 6, 78, 127
1, 68135, Note_off_c, 6, 78, 127
1, 68135, Note_off_c, 6, 66, 127
1, 68135, Note_off_c, 2, 62, 127
1, 68136, Note_on_c, 6, 66, 127
1, 68136, Note_on_c, 2, 62, 127
1, 68136, Note_on_c, 2, 74, 127
1, 68245, Note_off_c, 2, 74, 127
1, 68246, Note_on_c, 6, 78, 127
1, 68300, Note_off_c, 6, 78, 127
1, 68301, Note_on_c, 10, 81, 127
1, 68355, Note_off_c, 10, 81, 127
1, 68355, Note_off_c, 2, 62, 127
1, 68355, Note_off_c, 6, 66, 127
1, 68356, Note_on_c, 2, 62, 127
1, 68356, Note_on_c, 6, 66, 127
1, 68356, Note_on_c, 0, 84, 127
1, 68465, Note_off_c, 0, 84, 127
1, 68466, Note_on_c, 10, 81, 127
1, 68520, Note_off_c, 10, 81, 127
1, 68521, Note_on_c, 6, 78, 127
1, 68575, Note_off_c, 6, 78, 127
1, 68575, Note_off_c, 6, 66, 127
1, 68575, Note_off_c, 2, 62, 127
1, 68576, Note_on_c, 7, 55, 127
1, 68576, Note_on_c, 6, 66, 127
1, 68576, Note_on_c, 2, 74, 127
1, 68685, Note_off_c, 2, 74, 127
1, 68686, Note_on_c, 7, 79, 127
1, 68795, Note_off_c, 7, 79, 127
1, 68795, Note_off_c, 6, 66, 127
1, 68795, Note_off_c, 7, 55, 127
1, 68796, Note_on_c, 7, 55, 127
1, 68796, Note_on_c, 6, 66, 127
1, 68796, Note_on_c, 12, 83, 127
1, 68905, Note_off_c, 12, 83, 127
1, 68906, Note_on_c, 7, 79, 127
1, 69015, Note_off_c, 7, 79, 127
1, 69015, Note_off_c, 6, 66, 127
1, 69015, Note_off_c, 7, 55, 127
1, 69016, Note_on_c, 6, 66, 127
1, 69016, Note_on_c, 7, 55, 127
1, 69016, Note_on_c, 2, 74, 127
1, 69125, Note_off_c, 2, 74, 127
1, 69126, Note_on_c, 7, 79, 127
1, 69235, Note_off_c, 7, 79, 127
1, 69235, Note_off_c, 7, 55, 127
1, 69235, Note_off_c, 6, 66, 127
1, 69236, Note_on_c, 7, 55, 127
1, 69236, Note_on_c, 6, 66, 127
1, 69236, Note_on_c, 12, 83, 127
1, 69345, Note_off_c, 12, 83, 127
1, 69346, Note_on_c, 7, 79, 127
1, 69455, Note_off_c, 7, 79, 127
1, 69455, Note_off_c, 6, 66, 127
1, 69455, Note_off_c, 7, 55, 127
1, 69456, Note_on_c, 4, 64, 127
1, 69456, Note_on_c, 0, 60, 127
1, 69456, Note_on_c, 0, 72, 127
1, 69565, Note_off_c, 0, 72, 127
1, 69566, Note_on_c, 4, 76, 127
1, 69620, Note_off_c, 4, 76, 127
1, 69621, Note_on_c, 7, 79, 127
1, 69675, Note_off_c, 7, 79, 127
1, 69675, Note_off_c, 0, 60, 127
1, 69675, Note_off_c, 4, 64, 127
1, 69676, Note_on_c, 4, 64, 127
1, 69676, Note_on_c, 0, 60, 127
1, 69676, Note_on_c, 12, 83, 127
1, 69785, Note_off_c, 12, 83, 127
1, 69786, Note_on_c, 7, 79, 127
1, 69840, Note_off_c, 7, 79, 127
1, 69841, Note_on_c, 4, 76, 127
1, 69895, Note_off_c, 4, 76, 127
1, 69895, Note_off_c, 0, 60, 127
1, 69895, Note_off_c, 4, 64, 127
1, 69896, Note_on_c, 0, 60, 127
1, 69896, Note_on_c, 4, 64, 127
1, 69896, Note_on_c, 0, 72, 127
1, 70005, Note_off_c, 0, 72, 127
1, 70006, Note_on_c, 4, 76, 127
1, 70060, Note_off_c, 4, 76, 127
1, 70061, Note_on_c, 7, 79, 127
1, 70115, Note_off_c, 7, 79, 127
1, 70115, Note_off_c, 4, 64, 127
1, 70115, Note_off_c, 0, 60, 127
1, 70116, Note_on_c, 0, 60, 127
1, 70116, Note_on_c, 4, 64, 127
1, 70116, Note_on_c, 12, 83, 127
1, 70225, Note_off_c, 12, 83, 127
1, 70226, Note_on_c, 7, 79, 127
1, 70280, Note_off_c, 7, 79, 127
1, 70281, Note_on_c, 4, 76, 127
1, 70335, Note_off_c, 4, 76, 127
1, 70335, Note_off_c, 4, 64, 127
1, 70335, Note_off_c, 0, 60, 127
1, 70336, Note_on_c, 4, 64, 127
1, 70336, Note_on_c, 6, 54, 127
1, 70336, Note_on_c, 0, 72, 127
1, 70445, Note_off_c, 0, 72, 127
1, 70446, Note_on_c, 6, 78, 127
1, 70555, Note_off_c, 6, 78, 127
1, 70555, Note_off_c, 6, 54, 127
1, 70555, Note_off_c, 4, 64, 127
1, 70556, Note_on_c, 4, 64, 127
1, 70556, Note_on_c, 6, 54, 127
1, 70556, Note_on_c, 10, 81, 127
1, 70665, Note_off_c, 10, 81, 127
1, 70666, Note_on_c, 6, 78, 127
1, 70775, Note_off_c, 6, 78, 127
1, 70775, Note_off_c, 6, 54, 127
1, 70775, Note_off_c, 4, 64, 127
1, 70776, Note_on_c, 4, 64, 127
1, 70776, Note_on_c, 6, 54, 127
1, 70776, Note_on_c, 0, 72, 127
1, 70885, Note_off_c, 0, 72, 127
1, 70886, Note_on_c, 6, 78, 127
1, 70995, Note_off_c, 6, 78, 127
1, 70995, Note_off_c, 6, 54, 127
1, 70995, Note_off_c, 4, 64, 127
1, 70996, Note_on_c, 4, 64, 127
1, 70996, Note_on_c, 6, 54, 127
1, 70996, Note_on_c, 10, 81, 127
1, 71105, Note_off_c, 10, 81, 127
1, 71106, Note_on_c, 6, 78, 127
1, 71215, Note_off_c, 6, 78, 127
1, 71215, Note_off_c, 6, 54, 127
1, 71215, Note_off_c, 4, 64, 127
1, 71216, Note_on_c, 12, 59, 127
1, 71216, Note_on_c, 3, 63, 127
1, 71216, Note_on_c, 12, 71, 127
1, 71325, Note_off_c, 12, 71, 127
1, 71326, Note_on_c, 3, 75, 127
1, 71380, Note_off_c, 3, 75, 127
1, 71381, Note_on_c, 6, 78, 127
1, 71435, Note_off_c, 6, 78, 127
1, 71435, Note_off_c, 3, 63, 127
1, 71435, Note_off_c, 12, 59, 127
1, 71436, Note_on_c, 3, 63, 127
1, 71436, Note_on_c, 12, 59, 127
1, 71436, Note_on_c, 10, 81, 127
1, 71545, Note_off_c, 10, 81, 127
1, 71546, Note_on_c, 6, 78, 127
1, 71600, Note_off_c, 6, 78, 127
1, 71601, Note_on_c, 3, 75, 127
1, 71655, Note_off_c, 3, 75, 127
1, 71655, Note_off_c, 12, 59, 127
1, 71655, Note_off_c, 3, 63, 127
1, 71656, Note_on_c, 3, 63, 127
1, 71656, Note_on_c, 12, 59, 127
1, 71656, Note_on_c, 12, 71, 127
1, 71765, Note_off_c, 12, 71, 127
1, 71766, Note_on_c, 3, 75, 127
1, 71820, Note_off_c, 3, 75, 127
1, 71821, Note_on_c, 6, 78, 127
1, 71875, Note_off_c, 6, 78, 127
1, 71875, Note_off_c, 12, 59, 127
1, 71875, Note_off_c, 3, 63, 127
1, 71876, Note_on_c, 12, 59, 127
1, 71876, Note_on_c, 3, 63, 127
1, 71876, Note_on_c, 10, 81, 127
1, 71985, Note_off_c, 10, 81, 127
1, 71986, Note_on_c, 6, 78, 127
1, 72040, Note_off_c, 6, 78, 127
1, 72041, Note_on_c, 3, 75, 127
1, 72095, Note_off_c, 3, 75, 127
1, 72095, Note_off_c, 3, 63, 127
1, 72095, Note_off_c, 12, 59, 127
1, 72096, Note_on_c, 4, 64, 127
1, 72096, Note_on_c, 12, 59, 127
1, 72096, Note_on_c, 12, 71, 127
1, 72205, Note_off_c, 12, 71, 127
1, 72206, Note_on_c, 4, 76, 127
1, 72260, Note_off_c, 4, 76, 127
1, 72261, Note_on_c, 6, 78, 127
1, 72315, Note_off_c, 6, 78, 127
1, 72315, Note_off_c, 12, 59, 127
1, 72315, Note_off_c, 4, 64, 127
1, 72316, Note_on_c, 4, 64, 127
1, 72316, Note_on_c, 12, 59, 127
1, 72316, Note_on_c, 7, 79, 127
1, 72425, Note_off_c, 7, 79, 127
1, 72426, Note_on_c, 6, 78, 127
1, 72480, Note_off_c, 6, 78, 127
1, 72481, Note_on_c, 4, 76, 127
1, 72535, Note_off_c, 4, 76, 127
1, 72535, Note_off_c, 12, 59, 127
1, 72535, Note_off_c, 4, 64, 127
1, 72536, Note_on_c, 4, 64, 127
1, 72536, Note_on_c, 12, 59, 127
1, 72536, Note_on_c, 12, 71, 127
1, 72645, Note_off_c, 12, 71, 127
1, 72646, Note_on_c, 4, 76, 127
1, 72700, Note_off_c, 4, 76, 127
1, 72701, Note_on_c, 6, 78, 127
1, 72755, Note_off_c, 6, 78, 127
1, 72755, Note_off_c, 12, 59, 127
1, 72755, Note_off_c, 4, 64, 127
1, 72756, Note_on_c, 4, 64, 127
1, 72756, Note_on_c, 12, 59, 127
1, 72756, Note_on_c, 7, 79, 127
1, 72865, Note_off_c, 7, 79, 127
1, 72866, Note_on_c, 6, 78, 127
1, 72920, Note_off_c, 6, 78, 127
1, 72921, Note_on_c, 4, 76, 127
1, 72975, Note_off_c, 4, 76, 127
1, 72975, Note_off_c, 12, 59, 127
1, 72975, Note_off_c, 4, 64, 127
1, 72976, Note_on_c, 12, 59, 127
1, 72976, Note_on_c, 6, 66, 127
1, 72976, Note_on_c, 3, 63, 127
1, 72976, Note_on_c, 12, 71, 127
1, 73085, Note_off_c, 12, 71, 127
1, 73086, Note_on_c, 3, 75, 127
1, 73140, Note_off_c, 3, 75, 127
1, 73141, Note_on_c, 6, 78, 127
1, 73195, Note_off_c, 6, 78, 127
1, 73195, Note_off_c, 3, 63, 127
1, 73195, Note_off_c, 6, 66, 127
1, 73195, Note_off_c, 12, 59, 127
1, 73196, Note_on_c, 3, 63, 127
1, 73196, Note_on_c, 6, 66, 127
1, 73196, Note_on_c, 12, 59, 127
1, 73196, Note_on_c, 10, 81, 127
1, 73305, Note_off_c, 10, 81, 127
1, 73306, Note_on_c, 6, 78, 127
1, 73360, Note_off_c, 6, 78, 127
1, 73361, Note_on_c, 3, 75, 127
1, 73415, Note_off_c, 3, 75, 127
1, 73415, Note_off_c, 12, 59, 127
1, 73415, Note_off_c, 6, 66, 127
1, 73415, Note_off_c, 3, 63, 127
1, 73416, Note_on_c, 12, 59, 127
1, 73416, Note_on_c, 3, 63, 127
1, 73416, Note_on_c, 6, 66, 127
1, 73416, Note_on_c, 12, 71, 127
1, 73525, Note_off_c, 12, 71, 127
1, 73526, Note_on_c, 3, 75, 127
1, 73580, Note_off_c, 3, 75, 127
1, 73581, Note_on_c, 6, 78, 127
1, 73635, Note_off_c, 6, 78, 127
1, 73635, Note_off_c, 6, 66, 127
1, 73635, Note_off_c, 3, 63, 127
1, 73635, Note_off_c, 12, 59, 127
1, 73636, Note_on_c, 3, 63, 127
1, 73636, Note_on_c, 6, 66, 127
1, 73636, Note_on_c, 12, 59, 127
1, 73636, Note_on_c, 10, 81, 127
1, 73745, Note_off_c, 10, 81, 127
1, 73746, Note_on_c, 6, 78, 127
1, 73800, Note_off_c, 6, 78, 127
1, 73801, Note_on_c, 3, 75, 127
1, 73855, Note_off_c, 3, 75, 127
1, 73855, Note_off_c, 12, 59, 127
1, 73855, Note_off_c, 6, 66, 127
1, 73855, Note_off_c, 3, 63, 127
1, 73856, Note_on_c, 7, 67, 127
1, 73856, Note_on_c, 4, 64, 127
1, 73856, Note_on_c, 12, 59, 127
1, 73856, Note_on_c, 12, 71, 127
1, 73965, Note_off_c, 12, 71, 127
1, 73966, Note_on_c, 4, 76, 127
1, 74020, Note_off_c, 4, 76, 127
1, 74021, Note_on_c, 7, 79, 127
1, 74075, Note_off_c, 7, 79, 127
1, 74075, Note_off_c, 12, 59, 127
1, 74075, Note_off_c, 4, 64, 127
1, 74075, Note_off_c, 7, 67, 127
1, 74076, Note_on_c, 12, 59, 127
1, 74076, Note_on_c, 7, 67, 127
1, 74076, Note_on_c, 4, 64, 127
1, 74076, Note_on_c, 12, 83, 127
1, 74185, Note_off_c, 12, 83, 127
1, 74186, Note_on_c, 7, 79, 127
1, 74240, Note_off_c, 7, 79, 127
1, 74241, Note_on_c, 4, 76, 127
1, 74295, Note_off_c, 4, 76, 127
1, 74295, Note_off_c, 4, 64, 127
1, 74295, Note_off_c, 7, 67, 127
1, 74295, Note_off_c, 12, 59, 127
1, 74296, Note_on_c, 12, 59, 127
1, 74296, Note_on_c, 7, 67, 127
1, 74296, Note_on_c, 4, 64, 127
1, 74296, Note_on_c, 12, 71, 127
1, 74405, Note_off_c, 12, 71, 127
1, 74406, Note_on_c, 4, 76, 127
1, 74460, Note_off_c, 4, 76, 127
1, 74461, Note_on_c, 7, 79, 127
1, 74515, Note_off_c, 7, 79, 127
1, 74515, Note_off_c, 4, 64, 127
1, 74515, Note_off_c, 7, 67, 127
1, 74515, Note_off_c, 12, 59, 127
1, 74516, Note_on_c, 12, 59, 127
1, 74516, Note_on_c, 7, 67, 127
1, 74516, Note_on_c, 4, 64, 127
1, 74516, Note_on_c, 12, 83, 127
1, 74625, Note_off_c, 12, 83, 127
1, 74626, Note_on_c, 7, 79, 127
1, 74680, Note_off_c, 7, 79, 127
1, 74681, Note_on_c, 4, 76, 127
1, 74735, Note_off_c, 4, 76, 127
1, 74735, Note_off_c, 4, 64, 127
1, 74735, Note_off_c, 7, 67, 127
1, 74735, Note_off_c, 12, 59, 127
1, 74736, Note_on_c, 3, 63, 127
1, 74736, Note_on_c, 12, 59, 127
1, 74736, Note_on_c, 6, 66, 127
1, 74736, Note_on_c, 12, 71, 127
1, 74845, Note_off_c, 12, 71, 127
1, 74846, Note_on_c, 3, 75, 127
1, 74900, Note_off_c, 3, 75, 127
1, 74901, Note_on_c, 6, 78, 127
1, 74955, Note_off_c, 6, 78, 127
1, 74955, Note_off_c, 6, 66, 127
1, 74955, Note_off_c, 12, 59, 127
1, 74955, Note_off_c, 3, 63, 127
1, 74956, Note_on_c, 3, 63, 127
1, 74956, Note_on_c, 12, 59, 127
1, 74956, Note_on_c, 6, 66, 127
1, 74956, Note_on_c, 10, 81, 127
1, 75065, Note_off_c, 10, 81, 127
1, 75066, Note_on_c, 6, 78, 127
1, 75120, Note_off_c, 6, 78, 127
1, 75121, Note_on_c, 3, 75, 127
1, 75175, Note_off_c, 3, 75, 127
1, 75175, Note_off_c, 6, 66, 127
1, 75175, Note_off_c, 12, 59, 127
1, 75175, Note_off_c, 3, 63, 127
1, 75176, Note_on_c, 12, 59, 127
1, 75176, Note_on_c, 3, 63, 127
1, 75176, Note_on_c, 6, 66, 127
1, 75176, Note_on_c, 12, 71, 127
1, 75285, Note_off_c, 12, 71, 127
1, 75286, Note_on_c, 3, 75, 127
1, 75340, Note_off_c, 3, 75, 127
1, 75341, Note_on_c, 6, 78, 127
1, 75395, Note_off_c, 6, 78, 127
1, 75395, Note_off_c, 6, 66, 127
1, 75395, Note_off_c, 3, 63, 127
1, 75395, Note_off_c, 12, 59, 127
1, 75396, Note_on_c, 6, 66, 127
1, 75396, Note_on_c, 3, 63, 127
1, 75396, Note_on_c, 12, 59, 127
1, 75396, Note_on_c, 10, 81, 127
1, 75505, Note_off_c, 10, 81, 127
1, 75506, Note_on_c, 6, 78, 127
1, 75560, Note_off_c, 6, 78, 127
1, 75561, Note_on_c, 3, 75, 127
1, 75615, Note_off_c, 3, 75, 127
1, 75615, Note_off_c, 12, 59, 127
1, 75615, Note_off_c, 3, 63, 127
1, 75615, Note_off_c, 6, 66, 127
1, 75616, Note_on_c, 12, 59, 127
1, 75616, Note_on_c, 7, 67, 127
1, 75616, Note_on_c, 4, 64, 127
1, 75616, Note_on_c, 12, 71, 127
1, 75725, Note_off_c, 12, 71, 127
1, 75726, Note_on_c, 4, 76, 127
1, 75780, Note_off_c, 4, 76, 127
1, 75781, Note_on_c, 6, 78, 127
1, 75835, Note_off_c, 6, 78, 127
1, 75835, Note_off_c, 4, 64, 127
1, 75835, Note_off_c, 7, 67, 127
1, 75835, Note_off_c, 12, 59, 127
1, 75836, Note_on_c, 4, 64, 127
1, 75836, Note_on_c, 12, 59, 127
1, 75836, Note_on_c, 7, 67, 127
1, 75836, Note_on_c, 7, 79, 127
1, 75945, Note_off_c, 7, 79, 127
1, 75946, Note_on_c, 6, 78, 127
1, 76000, Note_off_c, 6, 78, 127
1, 76001, Note_on_c, 4, 76, 127
1, 76055, Note_off_c, 4, 76, 127
1, 76055, Note_off_c, 7, 67, 127
1, 76055, Note_off_c, 12, 59, 127
1, 76055, Note_off_c, 4, 64, 127
1, 76056, Note_on_c, 12, 59, 127
1, 76056, Note_on_c, 7, 67, 127
1, 76056, Note_on_c, 4, 64, 127
1, 76056, Note_on_c, 12, 71, 127
1, 76165, Note_off_c, 12, 71, 127
1, 76166, Note_on_c, 4, 76, 127
1, 76220, Note_off_c, 4, 76, 127
1, 76221, Note_on_c, 6, 78, 127
1, 76275, Note_off_c, 6, 78, 127
1, 76275, Note_off_c, 4, 64, 127
1, 76275, Note_off_c, 7, 67, 127
1, 76275, Note_off_c, 12, 59, 127
1, 76276, Note_on_c, 12, 59, 127
1, 76276, Note_on_c, 7, 67, 127
1, 76276, Note_on_c, 4, 64, 127
1, 76276, Note_on_c, 7, 79, 127
1, 76385, Note_off_c, 7, 79, 127
1, 76386, Note_on_c, 6, 78, 127
1, 76440, Note_off_c, 6, 78, 127
1, 76441, Note_on_c, 4, 76, 127
1, 76495, Note_off_c, 4, 76, 127
1, 76495, Note_off_c, 4, 64, 127
1, 76495, Note_off_c, 7, 67, 127
1, 76495, Note_off_c, 12, 59, 127
1, 76496, Note_on_c, 12, 59, 127
1, 76496, Note_on_c, 4, 64, 127
1, 76496, Note_on_c, 6, 66, 127
1, 76496, Note_on_c, 10, 69, 127
1, 76496, Note_on_c, 12, 71, 127
1, 76605, Note_off_c, 12, 71, 127
1, 76605, Note_off_c, 10, 69, 127
1, 76606, Note_on_c, 0, 72, 127
1, 76660, Note_off_c, 0, 72, 127
1, 76661, Note_on_c, 4, 76, 127
1, 76715, Note_off_c, 4, 76, 127
1, 76715, Note_off_c, 6, 66, 127
1, 76715, Note_off_c, 4, 64, 127
1, 76715, Note_off_c, 12, 59, 127
1, 76716, Note_on_c, 4, 64, 127
1, 76716, Note_on_c, 12, 59, 127
1, 76716, Note_on_c, 6, 66, 127
1, 76716, Note_on_c, 6, 78, 127
1, 76825, Note_off_c, 6, 78, 127
1, 76826, Note_on_c, 4, 76, 127
1, 76880, Note_off_c, 4, 76, 127
1, 76881, Note_on_c, 0, 72, 127
1, 76935, Note_off_c, 0, 72, 127
1, 76935, Note_off_c, 6, 66, 127
1, 76935, Note_off_c, 12, 59, 127
1, 76935, Note_off_c, 4, 64, 127
1, 76936, Note_on_c, 4, 64, 127
1, 76936, Note_on_c, 12, 59, 127
1, 76936, Note_on_c, 6, 66, 127
1, 76936, Note_on_c, 10, 69, 127
1, 77045, Note_off_c, 10, 69, 127
1, 77046, Note_on_c, 0, 72, 127
1, 77100, Note_off_c, 0, 72, 127
1, 77101, Note_on_c, 4, 76, 127
1, 77155, Note_off_c, 4, 76, 127
1, 77155, Note_off_c, 6, 66, 127
1, 77155, Note_off_c, 12, 59, 127
1, 77155, Note_off_c, 4, 64, 127
1, 77156, Note_on_c, 4, 64, 127
1, 77156, Note_on_c, 12, 59, 127
1, 77156, Note_on_c, 6, 66, 127
1, 77156, Note_on_c, 6, 78, 127
1, 77265, Note_off_c, 6, 78, 127
1, 77266, Note_on_c, 4, 76, 127
1, 77320, Note_off_c, 4, 76, 127
1, 77321, Note_on_c, 0, 72, 127
1, 77375, Note_off_c, 0, 72, 127
1, 77375, Note_off_c, 6, 66, 127
1, 77375, Note_off_c, 12, 59, 127
1, 77375, Note_off_c, 4, 64, 127
1, 77376, Note_on_c, 6, 66, 127
1, 77376, Note_on_c, 3, 63, 127
1, 77376, Note_on_c, 12, 59, 127
1, 77376, Note_on_c, 10, 69, 127
1, 77485, Note_off_c, 10, 69, 127
1, 77486, Note_on_c, 12, 71, 127
1, 77540, Note_off_c, 12, 71, 127
1, 77541, Note_on_c, 3, 75, 127
1, 77595, Note_off_c, 3, 75, 127
1, 77595, Note_off_c, 12, 59, 127
1, 77595, Note_off_c, 3, 63, 127
1, 77595, Note_off_c, 6, 66, 127
1, 77596, Note_on_c, 3, 63, 127
1, 77596, Note_on_c, 12, 59, 127
1, 77596, Note_on_c, 6, 66, 127
1, 77596, Note_on_c, 6, 78, 127
1, 77705, Note_off_c, 6, 78, 127
1, 77706, Note_on_c, 3, 75, 127
1, 77760, Note_off_c, 3, 75, 127
1, 77761, Note_on_c, 12, 71, 127
1, 77815, Note_off_c, 12, 71, 127
1, 77815, Note_off_c, 6, 66, 127
1, 77815, Note_off_c, 12, 59, 127
1, 77815, Note_off_c, 3, 63, 127
1, 77816, Note_on_c, 12, 59, 127
1, 77816, Note_on_c, 3, 63, 127
1, 77816, Note_on_c, 6, 66, 127
1, 77816, Note_on_c, 10, 69, 127
1, 77925, Note_off_c, 10, 69, 127
1, 77926, Note_on_c, 12, 71, 127
1, 77980, Note_off_c, 12, 71, 127
1, 77981, Note_on_c, 3, 75, 127
1, 78035, Note_off_c, 3, 75, 127
1, 78035, Note_off_c, 6, 66, 127
1, 78035, Note_off_c, 3, 63, 127
1, 78035, Note_off_c, 12, 59, 127
1, 78036, Note_on_c, 12, 59, 127
1, 78036, Note_on_c, 6, 66, 127
1, 78036, Note_on_c, 3, 63, 127
1, 78036, Note_on_c, 6, 78, 127
1, 78145, Note_off_c, 6, 78, 127
1, 78146, Note_on_c, 3, 75, 127
1, 78200, Note_off_c, 3, 75, 127
1, 78201, Note_on_c, 12, 71, 127
1, 78255, Note_off_c, 12, 71, 127
1, 78255, Note_off_c, 3, 63, 127
1, 78255, Note_off_c, 6, 66, 127
1, 78255, Note_off_c, 12, 59, 127
1, 78256, Note_on_c, 4, 52, 127
1, 78256, Note_on_c, 12, 59, 127
1, 78256, Note_on_c, 7, 55, 127
1, 78256, Note_on_c, 7, 67, 127
1, 78256, Note_on_c, 12, 71, 127
1, 78256, Note_on_c, 4, 76, 127
1, 78694, Note_off_c, 4, 76, 127
1, 78694, Note_off_c, 12, 71, 127
1, 78694, Note_off_c, 7, 67, 127
1, 78694, Note_off_c, 7, 55, 127
1, 78694, Note_off_c, 12, 59, 127
1, 78694, Note_off_c, 4, 52, 127
1, 78695, Note_on_c, 12, 47, 127
1, 78695, Note_on_c, 6, 54, 127
1, 78695, Note_on_c, 12, 59, 127
1, 78695, Note_on_c, 10, 57, 127
1, 78695, Note_on_c, 4, 76, 127
1, 78749, Note_off_c, 4, 76, 127
1, 78750, Note_on_c, 3, 75, 127
1, 78804, Note_off_c, 3, 75, 127
1, 78805, Note_on_c, 4, 76, 127
1, 78859, Note_off_c, 4, 76, 127
1, 78860, Note_on_c, 3, 75, 127
1, 78914, Note_off_c, 3, 75, 127
1, 78915, Note_on_c, 4, 76, 127
1, 78969, Note_off_c, 4, 76, 127
1, 78970, Note_on_c, 3, 75, 127
1, 79024, Note_off_c, 3, 75, 127
1, 79025, Note_on_c, 1, 73, 127
1, 79079, Note_off_c, 1, 73, 127
1, 79080, Note_on_c, 3, 75, 127
1, 79134, Note_off_c, 3, 75, 127
1, 79134, Note_off_c, 10, 57, 127
1, 79134, Note_off_c, 12, 59, 127
1, 79134, Note_off_c, 6, 54, 127
1, 79134, Note_off_c, 12, 47, 127
1, 79135, Note_on_c, 7, 55, 127
1, 79135, Note_on_c, 4, 52, 127
1, 79135, Note_on_c, 12, 59, 127
1, 79135, Note_on_c, 4, 76, 127
1, 79244, Note_off_c, 4, 76, 127
1, 79245, Note_on_c, 12, 83, 127
1, 79354, Note_off_c, 12, 83, 127
1, 79355, Note_on_c, 10, 81, 127
1, 79464, Note_off_c, 10, 81, 127
1, 79465, Note_on_c, 12, 83, 127
1, 79570, Note_off_c, 12, 59, 127
1, 79570, Note_off_c, 4, 52, 127
1, 79570, Note_off_c, 7, 55, 127
1, 79573, Note_off_c, 12, 83, 127
1, 79574, Note_on_c, 7, 79, 127
1, 79683, Note_off_c, 7, 79, 127
1, 79684, Note_on_c, 12, 71, 127
1, 79684, Note_on_c, 10, 81, 127
1, 79793, Note_off_c, 10, 81, 127
1, 79793, Note_off_c, 12, 71, 127
1, 79794, Note_on_c, 10, 69, 127
1, 79794, Note_on_c, 6, 78, 127
1, 79903, Note_off_c, 6, 78, 127
1, 79903, Note_off_c, 10, 69, 127
1, 79904, Note_on_c, 12, 71, 127
1, 79904, Note_on_c, 7, 79, 127
1, 80013, Note_off_c, 7, 79, 127
1, 80013, Note_off_c, 12, 71, 127
1, 80014, Note_on_c, 7, 67, 127
1, 80014, Note_on_c, 4, 76, 127
1, 80123, Note_off_c, 4, 76, 127
1, 80124, Note_on_c, 7, 79, 127
1, 80233, Note_off_c, 7, 79, 127
1, 80234, Note_on_c, 6, 78, 127
1, 80343, Note_off_c, 6, 78, 127
1, 80344, Note_on_c, 7, 79, 127
1, 80449, Note_off_c, 7, 67, 127
1, 80452, Note_off_c, 7, 79, 127
1, 80453, Note_on_c, 4, 76, 127
1, 80562, Note_off_c, 4, 76, 127
1, 80563, Note_on_c, 7, 67, 127
1, 80563, Note_on_c, 6, 78, 127
1, 80672, Note_off_c, 6, 78, 127
1, 80672, Note_off_c, 7, 67, 127
1, 80673, Note_on_c, 6, 66, 127
1, 80673, Note_on_c, 2, 74, 127
1, 80782, Note_off_c, 2, 74, 127
1, 80782, Note_off_c, 6, 66, 127
1, 80783, Note_on_c, 7, 67, 127
1, 80783, Note_on_c, 4, 76, 127
1, 80892, Note_off_c, 4, 76, 127
1, 80892, Note_off_c, 7, 67, 127
1, 80893, Note_on_c, 4, 64, 127
1, 80893, Note_on_c, 1, 73, 127
1, 81002, Note_off_c, 1, 73, 127
1, 81003, Note_on_c, 4, 76, 127
1, 81112, Note_off_c, 4, 76, 127
1, 81113, Note_on_c, 2, 74, 127
1, 81222, Note_off_c, 2, 74, 127
1, 81223, Note_on_c, 4, 76, 127
1, 81328, Note_off_c, 4, 64, 127
1, 81331, Note_off_c, 4, 76, 127
1, 81332, Note_on_c, 10, 69, 127
1, 81441, Note_off_c, 10, 69, 127
1, 81442, Note_on_c, 10, 57, 127
1, 81442, Note_on_c, 1, 73, 127
1, 81551, Note_off_c, 1, 73, 127
1, 81551, Note_off_c, 10, 57, 127
1, 81552, Note_on_c, 7, 55, 127
1, 81552, Note_on_c, 12, 71, 127
1, 81661, Note_off_c, 12, 71, 127
1, 81661, Note_off_c, 7, 55, 127
1, 81662, Note_on_c, 10, 57, 127
1, 81662, Note_on_c, 1, 73, 127
1, 81771, Note_off_c, 1, 73, 127
1, 81771, Note_off_c, 10, 57, 127
1, 81772, Note_on_c, 2, 50, 127
1, 81772, Note_on_c, 10, 57, 127
1, 81772, Note_on_c, 5, 53, 127
1, 81772, Note_on_c, 2, 74, 127
1, 82210, Note_off_c, 2, 74, 127
1, 82210, Note_off_c, 5, 53, 127
1, 82210, Note_off_c, 10, 57, 127
1, 82210, Note_off_c, 2, 50, 127
1, 82211, Note_on_c, 4, 52, 127
1, 82211, Note_on_c, 10, 45, 127
1, 82211, Note_on_c, 10, 57, 127
1, 82211, Note_on_c, 7, 55, 127
1, 82211, Note_on_c, 2, 74, 127
1, 82272, Note_on_c, 1, 73, 127
1, 82283, Note_off_c, 2, 74, 127
1, 82332, Note_on_c, 2, 74, 127
1, 82343, Note_off_c, 1, 73, 127
1, 82392, Note_on_c, 1, 73, 127
1, 82403, Note_off_c, 2, 74, 127
1, 82452, Note_on_c, 2, 74, 127
1, 82463, Note_off_c, 1, 73, 127
1, 82512, Note_on_c, 1, 73, 127
1, 82523, Note_off_c, 2, 74, 127
1, 82574, Note_on_c, 2, 74, 127
1, 82583, Note_off_c, 1, 73, 127
1, 82636, Note_off_c, 2, 74, 127
1, 82646, Note_off_c, 7, 55, 127
1, 82646, Note_off_c, 10, 57, 127
1, 82646, Note_off_c, 10, 45, 127
1, 82646, Note_off_c, 4, 52, 127
1, 82647, Note_on_c, 2, 50, 127
1, 82647, Note_on_c, 5, 53, 127
1, 82647, Note_on_c, 10, 57, 127
1, 82647, Note_on_c, 2, 74, 127
1, 82756, Note_off_c, 2, 74, 127
1, 82757, Note_on_c, 10, 81, 127
1, 82866, Note_off_c, 10, 81, 127
1, 82867, Note_on_c, 7, 79, 127
1, 82976, Note_off_c, 7, 79, 127
1, 82977, Note_on_c, 10, 81, 127
1, 83082, Note_off_c, 10, 57, 127
1, 83082, Note_off_c, 5, 53, 127
1, 83082, Note_off_c, 2, 50, 127
1, 83085, Note_off_c, 10, 81, 127
1, 83086, Note_on_c, 5, 77, 127
1, 83195, Note_off_c, 5, 77, 127
1, 83196, Note_on_c, 10, 69, 127
1, 83196, Note_on_c, 7, 79, 127
1, 83305, Note_off_c, 7, 79, 127
1, 83305, Note_off_c, 10, 69, 127
1, 83306, Note_on_c, 7, 67, 127
1, 83306, Note_on_c, 4, 76, 127
1, 83415, Note_off_c, 4, 76, 127
1, 83415, Note_off_c, 7, 67, 127
1, 83416, Note_on_c, 10, 69, 127
1, 83416, Note_on_c, 5, 77, 127
1, 83525, Note_off_c, 5, 77, 127
1, 83525, Note_off_c, 10, 69, 127
1, 83526, Note_on_c, 5, 65, 127
1, 83526, Note_on_c, 2, 74, 127
1, 83635, Note_off_c, 2, 74, 127
1, 83636, Note_on_c, 5, 77, 127
1, 83745, Note_off_c, 5, 77, 127
1, 83746, Note_on_c, 4, 76, 127
1, 83855, Note_off_c, 4, 76, 127
1, 83856, Note_on_c, 5, 77, 127
1, 83961, Note_off_c, 5, 65, 127
1, 83964, Note_off_c, 5, 77, 127
1, 83965, Note_on_c, 2, 74, 127
1, 84074, Note_off_c, 2, 74, 127
1, 84075, Note_on_c, 5, 65, 127
1, 84075, Note_on_c, 4, 76, 127
1, 84184, Note_off_c, 4, 76, 127
1, 84184, Note_off_c, 5, 65, 127
1, 84185, Note_on_c, 4, 64, 127
1, 84185, Note_on_c, 0, 72, 127
1, 84294, Note_off_c, 0, 72, 127
1, 84294, Note_off_c, 4, 64, 127
1, 84295, Note_on_c, 5, 65, 127
1, 84295, Note_on_c, 2, 74, 127
1, 84404, Note_off_c, 2, 74, 127
1, 84404, Note_off_c, 5, 65, 127
1, 84405, Note_on_c, 2, 62, 127
1, 84405, Note_on_c, 12, 71, 127
1, 84514, Note_off_c, 12, 71, 127
1, 84515, Note_on_c, 2, 74, 127
1, 84624, Note_off_c, 2, 74, 127
1, 84625, Note_on_c, 0, 72, 127
1, 84734, Note_off_c, 0, 72, 127
1, 84735, Note_on_c, 2, 74, 127
1, 84840, Note_off_c, 2, 62, 127
1, 84843, Note_off_c, 2, 74, 127
1, 84844, Note_on_c, 7, 67, 127
1, 84953, Note_off_c, 7, 67, 127
1, 84954, Note_on_c, 7, 55, 127
1, 84954, Note_on_c, 12, 71, 127
1, 85063, Note_off_c, 12, 71, 127
1, 85063, Note_off_c, 7, 55, 127
1, 85064, Note_on_c, 5, 53, 127
1, 85064, Note_on_c, 10, 69, 127
1, 85173, Note_off_c, 10, 69, 127
1, 85173, Note_off_c, 5, 53, 127
1, 85174, Note_on_c, 7, 55, 127
1, 85174, Note_on_c, 12, 71, 127
1, 85283, Note_off_c, 12, 71, 127
1, 85283, Note_off_c, 7, 55, 127
1, 85284, Note_on_c, 4, 52, 127
1, 85284, Note_on_c, 0, 48, 127
1, 85284, Note_on_c, 7, 55, 127
1, 85284, Note_on_c, 0, 72, 127
1, 85722, Note_off_c, 0, 72, 127
1, 85722, Note_off_c, 7, 55, 127
1, 85722, Note_off_c, 0, 48, 127
1, 85722, Note_off_c, 4, 52, 127
1, 85723, Note_on_c, 7, 43, 127
1, 85723, Note_on_c, 5, 53, 127
1, 85723, Note_on_c, 2, 50, 127
1, 85723, Note_on_c, 7, 55, 127
1, 85723, Note_on_c, 0, 72, 127
1, 85789, Note_on_c, 12, 71, 127
1, 85795, Note_off_c, 0, 72, 127
1, 85856, Note_on_c, 0, 72, 127
1, 85862, Note_off_c, 12, 71, 127
1, 85923, Note_on_c, 12, 71, 127
1, 85929, Note_off_c, 0, 72, 127
1, 86152, Note_off_c, 12, 71, 127
1, 86162, Note_off_c, 7, 55, 127
1, 86162, Note_off_c, 2, 50, 127
1, 86162, Note_off_c, 5, 53, 127
1, 86162, Note_off_c, 7, 43, 127
1, 86163, Note_on_c, 4, 52, 127
1, 86163, Note_on_c, 0, 48, 127
1, 86163, Note_on_c, 7, 55, 127
1, 86163, Note_on_c, 0, 72, 127
1, 86272, Note_off_c, 0, 72, 127
1, 86273, Note_on_c, 7, 79, 127
1, 86382, Note_off_c, 7, 79, 127
1, 86383, Note_on_c, 5, 77, 127
1, 86492, Note_off_c, 5, 77, 127
1, 86493, Note_on_c, 7, 79, 127
1, 86602, Note_off_c, 7, 79, 127
1, 86603, Note_on_c, 4, 76, 127
1, 86712, Note_off_c, 4, 76, 127
1, 86713, Note_on_c, 5, 77, 127
1, 86822, Note_off_c, 5, 77, 127
1, 86822, Note_off_c, 7, 55, 127
1, 86822, Note_off_c, 0, 48, 127
1, 86822, Note_off_c, 4, 52, 127
1, 86823, Note_on_c, 2, 74, 127
1, 86932, Note_off_c, 2, 74, 127
1, 86933, Note_on_c, 4, 76, 127
1, 87042, Note_off_c, 4, 76, 127
1, 87043, Note_on_c, 0, 60, 127
1, 87043, Note_on_c, 4, 52, 127
1, 87043, Note_on_c, 7, 55, 127
1, 87043, Note_on_c, 0, 72, 127
1, 87152, Note_off_c, 0, 72, 127
1, 87152, Note_off_c, 7, 55, 127
1, 87152, Note_off_c, 4, 52, 127
1, 87153, Note_on_c, 7, 67, 127
1, 87153, Note_on_c, 4, 76, 127
1, 87260, Note_off_c, 0, 60, 127
1, 87261, Note_off_c, 4, 76, 127
1, 87261, Note_off_c, 7, 67, 127
1, 87262, Note_on_c, 5, 65, 127
1, 87262, Note_on_c, 2, 74, 127
1, 87371, Note_off_c, 2, 74, 127
1, 87371, Note_off_c, 5, 65, 127
1, 87372, Note_on_c, 7, 67, 127
1, 87372, Note_on_c, 4, 76, 127
1, 87481, Note_off_c, 4, 76, 127
1, 87481, Note_off_c, 7, 67, 127
1, 87482, Note_on_c, 4, 64, 127
1, 87482, Note_on_c, 0, 72, 127
1, 87591, Note_off_c, 0, 72, 127
1, 87591, Note_off_c, 4, 64, 127
1, 87592, Note_on_c, 5, 65, 127
1, 87592, Note_on_c, 2, 74, 127
1, 87701, Note_off_c, 2, 74, 127
1, 87701, Note_off_c, 5, 65, 127
1, 87702, Note_on_c, 2, 62, 127
1, 87702, Note_on_c, 12, 71, 127
1, 87811, Note_off_c, 12, 71, 127
1, 87811, Note_off_c, 2, 62, 127
1, 87812, Note_on_c, 4, 64, 127
1, 87812, Note_on_c, 0, 72, 127
1, 87921, Note_off_c, 0, 72, 127
1, 87921, Note_off_c, 4, 64, 127
1, 87922, Note_on_c, 0, 60, 127
1, 87922, Note_on_c, 10, 57, 127
1, 87922, Note_on_c, 5, 53, 127
1, 87922, Note_on_c, 10, 69, 127
1, 88031, Note_off_c, 10, 69, 127
1, 88032, Note_on_c, 10, 81, 127
1, 88141, Note_off_c, 10, 81, 127
1, 88142, Note_on_c, 7, 79, 127
1, 88251, Note_off_c, 7, 79, 127
1, 88252, Note_on_c, 10, 81, 127
1, 88361, Note_off_c, 10, 81, 127
1, 88362, Note_on_c, 5, 77, 127
1, 88471, Note_off_c, 5, 77, 127
1, 88472, Note_on_c, 7, 79, 127
1, 88581, Note_off_c, 7, 79, 127
1, 88582, Note_on_c, 4, 76, 127
1, 88691, Note_off_c, 4, 76, 127
1, 88692, Note_on_c, 5, 77, 127
1, 88701, Note_off_c, 5, 53, 127
1, 88701, Note_off_c, 10, 57, 127
1, 88701, Note_off_c, 0, 60, 127
1, 88800, Note_off_c, 5, 77, 127
1, 88801, Note_on_c, 5, 53, 127
1, 88801, Note_on_c, 2, 62, 127
1, 88801, Note_on_c, 10, 57, 127
1, 88801, Note_on_c, 2, 74, 127
1, 88910, Note_off_c, 2, 74, 127
1, 88910, Note_off_c, 10, 57, 127
1, 88910, Note_off_c, 5, 53, 127
1, 88911, Note_on_c, 10, 69, 127
1, 88911, Note_on_c, 5, 77, 127
1, 89018, Note_off_c, 2, 62, 127
1, 89019, Note_off_c, 5, 77, 127
1, 89019, Note_off_c, 10, 69, 127
1, 89020, Note_on_c, 7, 67, 127
1, 89020, Note_on_c, 4, 76, 127
1, 89129, Note_off_c, 4, 76, 127
1, 89129, Note_off_c, 7, 67, 127
1, 89130, Note_on_c, 10, 69, 127
1, 89130, Note_on_c, 5, 77, 127
1, 89239, Note_off_c, 5, 77, 127
1, 89239, Note_off_c, 10, 69, 127
1, 89240, Note_on_c, 5, 65, 127
1, 89240, Note_on_c, 2, 74, 127
1, 89349, Note_off_c, 2, 74, 127
1, 89349, Note_off_c, 5, 65, 127
1, 89350, Note_on_c, 7, 67, 127
1, 89350, Note_on_c, 4, 76, 127
1, 89459, Note_off_c, 4, 76, 127
1, 89459, Note_off_c, 7, 67, 127
1, 89460, Note_on_c, 4, 64, 127
1, 89460, Note_on_c, 0, 72, 127
1, 89569, Note_off_c, 0, 72, 127
1, 89569, Note_off_c, 4, 64, 127
1, 89570, Note_on_c, 5, 65, 127
1, 89570, Note_on_c, 2, 74, 127
1, 89679, Note_off_c, 2, 74, 127
1, 89679, Note_off_c, 5, 65, 127
1, 89680, Note_on_c, 12, 59, 127
1, 89680, Note_on_c, 7, 55, 127
1, 89680, Note_on_c, 2, 62, 127
1, 89680, Note_on_c, 12, 71, 127
1, 89789, Note_off_c, 12, 71, 127
1, 89790, Note_on_c, 12, 83, 127
1, 89899, Note_off_c, 12, 83, 127
1, 89900, Note_on_c, 10, 81, 127
1, 90009, Note_off_c, 10, 81, 127
1, 90010, Note_on_c, 12, 83, 127
1, 90115, Note_off_c, 2, 62, 127
1, 90115, Note_off_c, 7, 55, 127
1, 90115, Note_off_c, 12, 59, 127
1, 90118, Note_off_c, 12, 83, 127
1, 90119, Note_on_c, 7, 79, 127
1, 90228, Note_off_c, 7, 79, 127
1, 90229, Note_on_c, 10, 81, 127
1, 90338, Note_off_c, 10, 81, 127
1, 90339, Note_on_c, 5, 77, 127
1, 90448, Note_off_c, 5, 77, 127
1, 90449, Note_on_c, 7, 79, 127
1, 90558, Note_off_c, 7, 79, 127
1, 90559, Note_on_c, 0, 48, 127
1, 90559, Note_on_c, 4, 76, 127
1, 90668, Note_off_c, 4, 76, 127
1, 90668, Note_off_c, 0, 48, 127
1, 90669, Note_on_c, 2, 50, 127
1, 90669, Note_on_c, 2, 74, 127
1, 90778, Note_off_c, 2, 74, 127
1, 90778, Note_off_c, 2, 50, 127
1, 90779, Note_on_c, 4, 52, 127
1, 90779, Note_on_c, 0, 72, 127
1, 90888, Note_off_c, 0, 72, 127
1, 90888, Note_off_c, 4, 52, 127
1, 90889, Note_on_c, 5, 53, 127
1, 90889, Note_on_c, 2, 74, 127
1, 90998, Note_off_c, 2, 74, 127
1, 90998, Note_off_c, 5, 53, 127
1, 90999, Note_on_c, 7, 55, 127
1, 90999, Note_on_c, 4, 76, 127
1, 91108, Note_off_c, 4, 76, 127
1, 91108, Note_off_c, 7, 55, 127
1, 91109, Note_on_c, 10, 57, 127
1, 91109, Note_on_c, 10, 81, 127
1, 91218, Note_off_c, 10, 81, 127
1, 91218, Note_off_c, 10, 57, 127
1, 91219, Note_on_c, 12, 59, 127
1, 91219, Note_on_c, 7, 79, 127
1, 91328, Note_off_c, 7, 79, 127
1, 91328, Note_off_c, 12, 59, 127
1, 91329, Note_on_c, 0, 60, 127
1, 91329, Note_on_c, 10, 81, 127
1, 91438, Note_off_c, 10, 81, 127
1, 91438, Note_off_c, 0, 60, 127
1, 91439, Note_on_c, 2, 50, 127
1, 91439, Note_on_c, 6, 78, 127
1, 91548, Note_off_c, 6, 78, 127
1, 91549, Note_on_c, 6, 54, 127
1, 91549, Note_on_c, 4, 76, 127
1, 91656, Note_off_c, 2, 50, 127
1, 91657, Note_off_c, 4, 76, 127
1, 91657, Note_off_c, 6, 54, 127
1, 91658, Note_on_c, 10, 57, 127
1, 91658, Note_on_c, 2, 74, 127
1, 91767, Note_off_c, 2, 74, 127
1, 91767, Note_off_c, 10, 57, 127
1, 91768, Note_on_c, 0, 60, 127
1, 91768, Note_on_c, 10, 81, 127
1, 91877, Note_off_c, 10, 81, 127
1, 91877, Note_off_c, 0, 60, 127
1, 91878, Note_on_c, 2, 50, 127
1, 91878, Note_on_c, 12, 83, 127
1, 91987, Note_off_c, 12, 83, 127
1, 91988, Note_on_c, 7, 55, 127
1, 91988, Note_on_c, 7, 79, 127
1, 92095, Note_off_c, 2, 50, 127
1, 92096, Note_off_c, 7, 55, 127
1, 92097, Note_on_c, 12, 59, 127
1, 92097, Note_on_c, 2, 74, 127
1, 92204, Note_off_c, 7, 79, 127
1, 92205, Note_off_c, 2, 74, 127
1, 92205, Note_off_c, 12, 59, 127
1, 92206, Note_on_c, 2, 62, 127
1, 92206, Note_on_c, 7, 79, 127
1, 92315, Note_off_c, 7, 79, 127
1, 92315, Note_off_c, 2, 62, 127
1, 92316, Note_on_c, 2, 50, 127
1, 92316, Note_on_c, 10, 81, 127
1, 92426, Note_on_c, 6, 54, 127
1, 92426, Note_on_c, 6, 78, 127
1, 92533, Note_off_c, 10, 81, 127
1, 92533, Note_off_c, 2, 50, 127
1, 92534, Note_off_c, 6, 78, 127
1, 92534, Note_off_c, 6, 54, 127
1, 92535, Note_on_c, 10, 57, 127
1, 92535, Note_on_c, 2, 74, 127
1, 92644, Note_off_c, 2, 74, 127
1, 92644, Note_off_c, 10, 57, 127
1, 92645, Note_on_c, 0, 60, 127
1, 92645, Note_on_c, 10, 81, 127
1, 92754, Note_off_c, 10, 81, 127
1, 92754, Note_off_c, 0, 60, 127
1, 92755, Note_on_c, 2, 50, 127
1, 92755, Note_on_c, 12, 83, 127
1, 92864, Note_off_c, 12, 83, 127
1, 92865, Note_on_c, 7, 55, 127
1, 92865, Note_on_c, 7, 79, 127
1, 92972, Note_off_c, 2, 50, 127
1, 92973, Note_off_c, 7, 55, 127
1, 92974, Note_on_c, 12, 59, 127
1, 92974, Note_on_c, 2, 74, 127
1, 93081, Note_off_c, 7, 79, 127
1, 93082, Note_off_c, 2, 74, 127
1, 93082, Note_off_c, 12, 59, 127
1, 93083, Note_on_c, 2, 62, 127
1, 93083, Note_on_c, 12, 83, 127
1, 93192, Note_off_c, 12, 83, 127
1, 93192, Note_off_c, 2, 62, 127
1, 93193, Note_on_c, 2, 50, 127
1, 93193, Note_on_c, 10, 81, 127
1, 93303, Note_on_c, 6, 54, 127
1, 93303, Note_on_c, 6, 78, 127
1, 93410, Note_off_c, 10, 81, 127
1, 93410, Note_off_c, 2, 50, 127
1, 93411, Note_off_c, 6, 78, 127
1, 93411, Note_off_c, 6, 54, 127
1, 93412, Note_on_c, 10, 57, 127
1, 93412, Note_on_c, 2, 74, 127
1, 93521, Note_off_c, 2, 74, 127
1, 93521, Note_off_c, 10, 57, 127
1, 93522, Note_on_c, 0, 60, 127
1, 93522, Note_on_c, 6, 78, 127
1, 93631, Note_off_c, 6, 78, 127
1, 93631, Note_off_c, 0, 60, 127
1, 93632, Note_on_c, 4, 52, 127
1, 93632, Note_on_c, 7, 79, 127
1, 93742, Note_on_c, 7, 55, 127
1, 93742, Note_on_c, 4, 76, 127
1, 93849, Note_off_c, 7, 79, 127
1, 93849, Note_off_c, 4, 52, 127
1, 93850, Note_off_c, 4, 76, 127
1, 93850, Note_off_c, 7, 55, 127
1, 93851, Note_on_c, 12, 59, 127
1, 93851, Note_on_c, 12, 71, 127
1, 93960, Note_off_c, 12, 71, 127
1, 93960, Note_off_c, 12, 59, 127
1, 93961, Note_on_c, 2, 62, 127
1, 93961, Note_on_c, 7, 79, 127
1, 94070, Note_off_c, 7, 79, 127
1, 94070, Note_off_c, 2, 62, 127
1, 94071, Note_on_c, 0, 48, 127
1, 94071, Note_on_c, 7, 79, 127
1, 94181, Note_on_c, 4, 52, 127
1, 94181, Note_on_c, 4, 76, 127
1, 94288, Note_off_c, 7, 79, 127
1, 94288, Note_off_c, 0, 48, 127
1, 94289, Note_off_c, 4, 76, 127
1, 94289, Note_off_c, 4, 52, 127
1, 94290, Note_on_c, 10, 57, 127
1, 94290, Note_on_c, 10, 69, 127
1, 94399, Note_off_c, 10, 69, 127
1, 94399, Note_off_c, 10, 57, 127
1, 94400, Note_on_c, 0, 60, 127
1, 94400, Note_on_c, 7, 79, 127
1, 94509, Note_off_c, 7, 79, 127
1, 94509, Note_off_c, 0, 60, 127
1, 94510, Note_on_c, 2, 50, 127
1, 94510, Note_on_c, 6, 78, 127
1, 94619, Note_off_c, 6, 78, 127
1, 94620, Note_on_c, 6, 54, 127
1, 94620, Note_on_c, 2, 74, 127
1, 94727, Note_off_c, 2, 50, 127
1, 94728, Note_off_c, 2, 74, 127
1, 94728, Note_off_c, 6, 54, 127
1, 94729, Note_on_c, 10, 57, 127
1, 94729, Note_on_c, 10, 69, 127
1, 94838, Note_off_c, 10, 57, 127
1, 94839, Note_on_c, 0, 60, 127
1, 94839, Note_on_c, 6, 78, 127
1, 94946, Note_off_c, 10, 69, 127
1, 94947, Note_off_c, 6, 78, 127
1, 94947, Note_off_c, 0, 60, 127
1, 94948, Note_on_c, 12, 59, 127
1, 94948, Note_on_c, 7, 55, 127
1, 94948, Note_on_c, 7, 79, 127
1, 95386, Note_off_c, 7, 79, 127
1, 95386, Note_off_c, 7, 55, 127
1, 95386, Note_off_c, 12, 59, 127
1, 95387, Note_on_c, 10, 57, 127
1, 95387, Note_on_c, 6, 54, 127
1, 95387, Note_on_c, 2, 50, 127
1, 95387, Note_on_c, 10, 81, 127
1, 95825, Note_off_c, 10, 81, 127
1, 95825, Note_off_c, 2, 50, 127
1, 95825, Note_off_c, 6, 54, 127
1, 95825, Note_off_c, 10, 57, 127
1, 95826, Note_on_c, 7, 43, 127
1, 95826, Note_on_c, 2, 50, 127
1, 95826, Note_on_c, 7, 55, 127
1, 95826, Note_on_c, 12, 83, 127
1, 96044, Note_off_c, 12, 83, 127
1, 96045, Note_on_c, 7, 79, 127
1, 96263, Note_off_c, 7, 79, 127
1, 96263, Note_off_c, 7, 55, 127
1, 96263, Note_off_c, 2, 50, 127
1, 96263, Note_off_c, 7, 43, 127
1, 96264, Note_on_c, 6, 54, 127
1, 96264, Note_on_c, 2, 62, 127
1, 96264, Note_on_c, 10, 81, 127
1, 96482, Note_off_c, 10, 81, 127
1, 96483, Note_on_c, 6, 78, 127
1, 96701, Note_off_c, 6, 78, 127
1, 96701, Note_off_c, 2, 62, 127
1, 96701, Note_off_c, 6, 54, 127
1, 96702, Note_on_c, 2, 62, 127
1, 96702, Note_on_c, 12, 59, 127
1, 96702, Note_on_c, 7, 79, 127
1, 96920, Note_off_c, 7, 79, 127
1, 96921, Note_on_c, 2, 74, 127
1, 97136, Note_off_c, 12, 59, 127
1, 97136, Note_off_c, 2, 62, 127
1, 97139, Note_off_c, 2, 74, 127
1, 97140, Note_on_c, 4, 76, 127
1, 97358, Note_off_c, 4, 76, 127
1, 97359, Note_on_c, 7, 55, 127
1, 97359, Note_on_c, 4, 64, 127
1, 97359, Note_on_c, 12, 59, 127
1, 97359, Note_on_c, 12, 71, 127
1, 97577, Note_off_c, 12, 71, 127
1, 97577, Note_off_c, 12, 59, 127
1, 97577, Note_off_c, 4, 64, 127
1, 97577, Note_off_c, 7, 55, 127
1, 97578, Note_on_c, 10, 57, 127
1, 97578, Note_on_c, 4, 64, 127
1, 97578, Note_on_c, 0, 72, 127
1, 97796, Note_off_c, 0, 72, 127
1, 97797, Note_on_c, 10, 69, 127
1, 98015, Note_off_c, 10, 69, 127
1, 98016, Note_on_c, 2, 74, 127
1, 98126, Note_off_c, 4, 64, 127
1, 98126, Note_off_c, 10, 57, 127
1, 98235, Note_off_c, 2, 74, 127
1, 98236, Note_on_c, 10, 57, 127
1, 98236, Note_on_c, 6, 54, 127
1, 98236, Note_on_c, 2, 62, 127
1, 98236, Note_on_c, 10, 69, 127
1, 98454, Note_off_c, 10, 69, 127
1, 98454, Note_off_c, 2, 62, 127
1, 98454, Note_off_c, 6, 54, 127
1, 98454, Note_off_c, 10, 57, 127
1, 98455, Note_on_c, 7, 55, 127
1, 98455, Note_on_c, 2, 62, 127
1, 98455, Note_on_c, 12, 71, 127
1, 98673, Note_off_c, 12, 71, 127
1, 98674, Note_on_c, 7, 67, 127
1, 98892, Note_off_c, 7, 67, 127
1, 98893, Note_on_c, 10, 69, 127
1, 99003, Note_off_c, 2, 62, 127
1, 99003, Note_off_c, 7, 55, 127
1, 99112, Note_off_c, 10, 69, 127
1, 99113, Note_on_c, 2, 50, 127
1, 99113, Note_on_c, 0, 60, 127
1, 99113, Note_on_c, 10, 57, 127
1, 99113, Note_on_c, 6, 66, 127
1, 99331, Note_off_c, 6, 66, 127
1, 99331, Note_off_c, 10, 57, 127
1, 99331, Note_off_c, 0, 60, 127
1, 99331, Note_off_c, 2, 50, 127
1, 99332, Note_on_c, 12, 59, 127
1, 99332, Note_on_c, 7, 55, 127
1, 99332, Note_on_c, 7, 67, 127
1, 99550, Note_off_c, 7, 67, 127
1, 99551, Note_on_c, 2, 62, 127
1, 99769, Note_off_c, 2, 62, 127
1, 99770, Note_on_c, 4, 64, 127
1, 99880, Note_off_c, 7, 55, 127
1, 99880, Note_off_c, 12, 59, 127
1, 99989, Note_off_c, 4, 64, 127
1, 99990, Note_on_c, 2, 50, 127
1, 99990, Note_on_c, 7, 43, 127
1, 99990, Note_on_c, 5, 53, 127
1, 99990, Note_on_c, 12, 59, 127
1, 100208, Note_off_c, 12, 59, 127
1, 100208, Note_off_c, 5, 53, 127
1, 100208, Note_off_c, 7, 43, 127
1, 100208, Note_off_c, 2, 50, 127
1, 100209, Note_on_c, 10, 45, 127
1, 100209, Note_on_c, 4, 52, 127
1, 100209, Note_on_c, 0, 48, 127
1, 100209, Note_on_c, 0, 60, 127
1, 100427, Note_off_c, 0, 60, 127
1, 100428, Note_on_c, 10, 57, 127
1, 100646, Note_off_c, 10, 57, 127
1, 100647, Note_on_c, 2, 62, 127
1, 100865, Note_off_c, 2, 62, 127
1, 100865, Note_off_c, 0, 48, 127
1, 100865, Note_off_c, 4, 52, 127
1, 100865, Note_off_c, 10, 45, 127
1, 100866, Note_on_c, 6, 42, 127
1, 100866, Note_on_c, 2, 50, 127
1, 100866, Note_on_c, 10, 45, 127
1, 100866, Note_on_c, 0, 60, 127
1, 101084, Note_off_c, 0, 60, 127
1, 101084, Note_off_c, 10, 45, 127
1, 101084, Note_off_c, 2, 50, 127
1, 101084, Note_off_c, 6, 42, 127
1, 101085, Note_on_c, 2, 50, 127
1, 101085, Note_on_c, 12, 47, 127
1, 101085, Note_on_c, 7, 43, 127
1, 101085, Note_on_c, 12, 59, 127
1, 101523, Note_off_c, 12, 59, 127
1, 101524, Note_on_c, 7, 55, 127
1, 101962, Note_off_c, 7, 55, 127
1, 101962, Note_off_c, 7, 43, 127
1, 101962, Note_off_c, 12, 47, 127
1, 101962, Note_off_c, 2, 50, 127
1, 101979, Note_on_c, 7, 79, 127
1, 101979, Note_on_c, 12, 59, 127
1, 102088, Note_off_c, 7, 79, 127
1, 102089, Note_on_c, 2, 74, 127
1, 102198, Note_off_c, 2, 74, 127
1, 102198, Note_off_c, 12, 59, 127
1, 102199, Note_on_c, 7, 79, 127
1, 102199, Note_on_c, 7, 55, 127
1, 102308, Note_off_c, 7, 79, 127
1, 102309, Note_on_c, 2, 74, 127
1, 102418, Note_off_c, 2, 74, 127
1, 102418, Note_off_c, 7, 55, 127
1, 102419, Note_on_c, 7, 79, 127
1, 102419, Note_on_c, 12, 47, 127
1, 102528, Note_off_c, 7, 79, 127
1, 102529, Note_on_c, 2, 74, 127
1, 102638, Note_off_c, 2, 74, 127
1, 102638, Note_off_c, 12, 47, 127
1, 102639, Note_on_c, 7, 79, 127
1, 102639, Note_on_c, 12, 59, 127
1, 102748, Note_off_c, 7, 79, 127
1, 102749, Note_on_c, 2, 74, 127
1, 102858, Note_off_c, 2, 74, 127
1, 102858, Note_off_c, 12, 59, 127
1, 102859, Note_on_c, 4, 76, 127
1, 102859, Note_on_c, 0, 60, 127
1, 102968, Note_off_c, 4, 76, 127
1, 102969, Note_on_c, 0, 72, 127
1, 103078, Note_off_c, 0, 72, 127
1, 103078, Note_off_c, 0, 60, 127
1, 103079, Note_on_c, 0, 72, 127
1, 103079, Note_on_c, 7, 55, 127
1, 103188, Note_off_c, 0, 72, 127
1, 103189, Note_on_c, 4, 76, 127
1, 103298, Note_off_c, 4, 76, 127
1, 103298, Note_off_c, 7, 55, 127
1, 103299, Note_on_c, 4, 76, 127
1, 103299, Note_on_c, 0, 48, 127
1, 103408, Note_off_c, 4, 76, 127
1, 103409, Note_on_c, 0, 72, 127
1, 103518, Note_off_c, 0, 72, 127
1, 103518, Note_off_c, 0, 48, 127
1, 103519, Note_on_c, 0, 72, 127
1, 103519, Note_on_c, 0, 60, 127
1, 103628, Note_off_c, 0, 72, 127
1, 103629, Note_on_c, 4, 76, 127
1, 103738, Note_off_c, 4, 76, 127
1, 103738, Note_off_c, 0, 60, 127
1, 103739, Note_on_c, 10, 81, 127
1, 103739, Note_on_c, 1, 61, 127
1, 103848, Note_off_c, 10, 81, 127
1, 103849, Note_on_c, 4, 76, 127
1, 103958, Note_off_c, 4, 76, 127
1, 103958, Note_off_c, 1, 61, 127
1, 103959, Note_on_c, 10, 81, 127
1, 103959, Note_on_c, 10, 57, 127
1, 104068, Note_off_c, 10, 81, 127
1, 104069, Note_on_c, 4, 76, 127
1, 104178, Note_off_c, 4, 76, 127
1, 104178, Note_off_c, 10, 57, 127
1, 104179, Note_on_c, 10, 81, 127
1, 104179, Note_on_c, 1, 49, 127
1, 104288, Note_off_c, 10, 81, 127
1, 104289, Note_on_c, 4, 76, 127
1, 104398, Note_off_c, 4, 76, 127
1, 104398, Note_off_c, 1, 49, 127
1, 104399, Note_on_c, 10, 81, 127
1, 104399, Note_on_c, 1, 61, 127
1, 104508, Note_off_c, 10, 81, 127
1, 104509, Note_on_c, 4, 76, 127
1, 104618, Note_off_c, 4, 76, 127
1, 104618, Note_off_c, 1, 61, 127
1, 104619, Note_on_c, 6, 78, 127
1, 104619, Note_on_c, 2, 62, 127
1, 104728, Note_off_c, 6, 78, 127
1, 104729, Note_on_c, 2, 74, 127
1, 104838, Note_off_c, 2, 74, 127
1, 104838, Note_off_c, 2, 62, 127
1, 104839, Note_on_c, 2, 74, 127
1, 104839, Note_on_c, 10, 57, 127
1, 104948, Note_off_c, 2, 74, 127
1, 104949, Note_on_c, 6, 78, 127
1, 105058, Note_off_c, 6, 78, 127
1, 105058, Note_off_c, 10, 57, 127
1, 105059, Note_on_c, 6, 78, 127
1, 105059, Note_on_c, 2, 50, 127
1, 105168, Note_off_c, 6, 78, 127
1, 105169, Note_on_c, 2, 74, 127
1, 105278, Note_off_c, 2, 74, 127
1, 105278, Note_off_c, 2, 50, 127
1, 105279, Note_on_c, 2, 74, 127
1, 105279, Note_on_c, 2, 62, 127
1, 105388, Note_off_c, 2, 74, 127
1, 105389, Note_on_c, 6, 78, 127
1, 105498, Note_off_c, 6, 78, 127
1, 105498, Note_off_c, 2, 62, 127
1, 105499, Note_on_c, 12, 83, 127
1, 105499, Note_on_c, 3, 63, 127
1, 105608, Note_off_c, 12, 83, 127
1, 105609, Note_on_c, 6, 78, 127
1, 105718, Note_off_c, 6, 78, 127
1, 105718, Note_off_c, 3, 63, 127
1, 105719, Note_on_c, 12, 83, 127
1, 105719, Note_on_c, 12, 59, 127
1, 105828, Note_off_c, 12, 83, 127
1, 105829, Note_on_c, 6, 78, 127
1, 105938, Note_off_c, 6, 78, 127
1, 105938, Note_off_c, 12, 59, 127
1, 105939, Note_on_c, 12, 83, 127
1, 105939, Note_on_c, 3, 51, 127
1, 106048, Note_off_c, 12, 83, 127
1, 106049, Note_on_c, 6, 78, 127
1, 106158, Note_off_c, 6, 78, 127
1, 106158, Note_off_c, 3, 51, 127
1, 106159, Note_on_c, 12, 83, 127
1, 106159, Note_on_c, 3, 63, 127
1, 106268, Note_off_c, 12, 83, 127
1, 106269, Note_on_c, 6, 78, 127
1, 106378, Note_off_c, 6, 78, 127
1, 106378, Note_off_c, 3, 63, 127
1, 106379, Note_on_c, 7, 79, 127
1, 106379, Note_on_c, 4, 64, 127
1, 106488, Note_off_c, 7, 79, 127
1, 106489, Note_on_c, 4, 76, 127
1, 106598, Note_off_c, 4, 76, 127
1, 106598, Note_off_c, 4, 64, 127
1, 106599, Note_on_c, 4, 76, 127
1, 106599, Note_on_c, 12, 59, 127
1, 106708, Note_off_c, 4, 76, 127
1, 106709, Note_on_c, 7, 79, 127
1, 106818, Note_off_c, 7, 79, 127
1, 106818, Note_off_c, 12, 59, 127
1, 106819, Note_on_c, 7, 79, 127
1, 106819, Note_on_c, 4, 52, 127
1, 106928, Note_off_c, 7, 79, 127
1, 106929, Note_on_c, 4, 76, 127
1, 107038, Note_off_c, 4, 76, 127
1, 107038, Note_off_c, 4, 52, 127
1, 107039, Note_on_c, 4, 76, 127
1, 107039, Note_on_c, 2, 62, 127
1, 107148, Note_off_c, 4, 76, 127
1, 107149, Note_on_c, 7, 79, 127
1, 107258, Note_off_c, 7, 79, 127
1, 107258, Note_off_c, 2, 62, 127
1, 107259, Note_on_c, 10, 81, 127
1, 107259, Note_on_c, 1, 61, 127
1, 107368, Note_off_c, 10, 81, 127
1, 107369, Note_on_c, 4, 76, 127
1, 107478, Note_off_c, 4, 76, 127
1, 107478, Note_off_c, 1, 61, 127
1, 107479, Note_on_c, 10, 81, 127
1, 107479, Note_on_c, 10, 57, 127
1, 107588, Note_off_c, 10, 81, 127
1, 107589, Note_on_c, 4, 76, 127
1, 107698, Note_off_c, 4, 76, 127
1, 107698, Note_off_c, 10, 57, 127
1, 107699, Note_on_c, 10, 81, 127
1, 107699, Note_on_c, 1, 49, 127
1, 107808, Note_off_c, 10, 81, 127
1, 107809, Note_on_c, 4, 76, 127
1, 107918, Note_off_c, 4, 76, 127
1, 107918, Note_off_c, 1, 49, 127
1, 107919, Note_on_c, 10, 81, 127
1, 107919, Note_on_c, 1, 61, 127
1, 108028, Note_off_c, 10, 81, 127
1, 108029, Note_on_c, 4, 76, 127
1, 108138, Note_off_c, 4, 76, 127
1, 108138, Note_off_c, 1, 61, 127
1, 108139, Note_on_c, 6, 78, 127
1, 108139, Note_on_c, 2, 62, 127
1, 108357, Note_off_c, 2, 62, 127
1, 108357, Note_off_c, 6, 78, 127
1, 108358, Note_on_c, 2, 74, 127
1, 108358, Note_on_c, 2, 50, 127
1, 108575, Note_off_c, 2, 50, 127
1, 108576, Note_off_c, 2, 74, 127
1, 108577, Note_on_c, 7, 79, 127
1, 108795, Note_off_c, 7, 79, 127
1, 108796, Note_on_c, 6, 78, 127
1, 108796, Note_on_c, 2, 50, 127
1, 108796, Note_on_c, 7, 55, 127
1, 108796, Note_on_c, 12, 47, 127
1, 108905, Note_off_c, 6, 78, 127
1, 108906, Note_on_c, 4, 76, 127
1, 109015, Note_off_c, 4, 76, 127
1, 109015, Note_off_c, 12, 47, 127
1, 109015, Note_off_c, 7, 55, 127
1, 109015, Note_off_c, 2, 50, 127
1, 109016, Note_on_c, 2, 74, 127
1, 109016, Note_on_c, 7, 55, 127
1, 109016, Note_on_c, 0, 48, 127
1, 109016, Note_on_c, 4, 52, 127
1, 109234, Note_off_c, 2, 74, 127
1, 109235, Note_on_c, 0, 72, 127
1, 109344, Note_off_c, 0, 72, 127
1, 109345, Note_on_c, 12, 71, 127
1, 109454, Note_off_c, 12, 71, 127
1, 109454, Note_off_c, 4, 52, 127
1, 109454, Note_off_c, 0, 48, 127
1, 109454, Note_off_c, 7, 55, 127
1, 109455, Note_on_c, 10, 69, 127
1, 109455, Note_on_c, 0, 60, 127
1, 109455, Note_on_c, 2, 50, 127
1, 109455, Note_on_c, 6, 54, 127
1, 109673, Note_off_c, 10, 69, 127
1, 109674, Note_on_c, 7, 67, 127
1, 109783, Note_off_c, 7, 67, 127
1, 109784, Note_on_c, 6, 66, 127
1, 109893, Note_off_c, 6, 66, 127
1, 109893, Note_off_c, 6, 54, 127
1, 109893, Note_off_c, 2, 50, 127
1, 109893, Note_off_c, 0, 60, 127
1, 109894, Note_on_c, 7, 67, 127
1, 109894, Note_on_c, 7, 55, 127
1, 109894, Note_on_c, 7, 43, 127
1, 109894, Note_on_c, 2, 50, 127
1, 110111, Note_off_c, 7, 55, 127
1, 110113, Note_on_c, 7, 55, 127
1, 110328, Note_off_c, 7, 67, 127
1, 110331, Note_off_c, 7, 55, 127
1, 110332, Note_on_c, 7, 79, 127
1, 110442, Note_off_c, 2, 50, 127
1, 110442, Note_off_c, 7, 43, 127
1, 110551, Note_off_c, 7, 79, 127
1, 110552, Note_on_c, 6, 78, 127
1, 110552, Note_on_c, 7, 55, 127
1, 110552, Note_on_c, 12, 47, 127
1, 110552, Note_on_c, 2, 50, 127
1, 110661, Note_off_c, 6, 78, 127
1, 110662, Note_on_c, 4, 76, 127
1, 110771, Note_off_c, 4, 76, 127
1, 110771, Note_off_c, 2, 50, 127
1, 110771, Note_off_c, 12, 47, 127
1, 110771, Note_off_c, 7, 55, 127
1, 110772, Note_on_c, 2, 74, 127
1, 110772, Note_on_c, 7, 55, 127
1, 110772, Note_on_c, 0, 48, 127
1, 110772, Note_on_c, 4, 52, 127
1, 110990, Note_off_c, 2, 74, 127
1, 110991, Note_on_c, 0, 72, 127
1, 111100, Note_off_c, 0, 72, 127
1, 111101, Note_on_c, 12, 71, 127
1, 111210, Note_off_c, 12, 71, 127
1, 111210, Note_off_c, 4, 52, 127
1, 111210, Note_off_c, 0, 48, 127
1, 111210, Note_off_c, 7, 55, 127
1, 111211, Note_on_c, 10, 69, 127
1, 111211, Note_on_c, 2, 50, 127
1, 111211, Note_on_c, 0, 60, 127
1, 111211, Note_on_c, 6, 54, 127
1, 111429, Note_off_c, 10, 69, 127
1, 111430, Note_on_c, 7, 67, 127
1, 111539, Note_off_c, 7, 67, 127
1, 111540, Note_on_c, 6, 66, 127
1, 111649, Note_off_c, 6, 66, 127
1, 111649, Note_off_c, 6, 54, 127
1, 111649, Note_off_c, 0, 60, 127
1, 111649, Note_off_c, 2, 50, 127
1, 111650, Note_on_c, 7, 67, 127
1, 111650, Note_on_c, 7, 55, 127
1, 111650, Note_on_c, 2, 50, 127
1, 111650, Note_on_c, 7, 43, 127
1, 111868, Note_off_c, 7, 43, 127
1, 111868, Note_off_c, 2, 50, 127
1, 111868, Note_off_c, 7, 55, 127
1, 111868, Note_off_c, 7, 67, 127
1, 111869, Note_on_c, 6, 66, 127
1, 111869, Note_on_c, 10, 45, 127
1, 111978, Note_off_c, 10, 45, 127
1, 111978, Note_off_c, 6, 66, 127
1, 111979, Note_on_c, 4, 64, 127
1, 111979, Note_on_c, 12, 47, 127
1, 112088, Note_off_c, 12, 47, 127
1, 112088, Note_off_c, 4, 64, 127
1, 112089, Note_on_c, 2, 62, 127
1, 112089, Note_on_c, 0, 48, 127
1, 112198, Note_off_c, 0, 48, 127
1, 112198, Note_off_c, 2, 62, 127
1, 112199, Note_on_c, 0, 60, 127
1, 112199, Note_on_c, 2, 50, 127
1, 112308, Note_off_c, 2, 50, 127
1, 112308, Note_off_c, 0, 60, 127
1, 112309, Note_on_c, 12, 59, 127
1, 112309, Note_on_c, 4, 52, 127
1, 112418, Note_off_c, 4, 52, 127
1, 112418, Note_off_c, 12, 59, 127
1, 112419, Note_on_c, 10, 57, 127
1, 112419, Note_on_c, 6, 54, 127
1, 112528, Note_off_c, 6, 54, 127
1, 112528, Note_off_c, 10, 57, 127
1, 112529, Note_on_c, 7, 55, 127
1, 112639, Note_on_c, 7, 79, 127
1, 112748, Note_off_c, 7, 79, 127
1, 112749, Note_on_c, 6, 78, 127
1, 112858, Note_off_c, 6, 78, 127
1, 112859, Note_on_c, 4, 76, 127
1, 112968, Note_off_c, 4, 76, 127
1, 112969, Note_on_c, 2, 74, 127
1, 113078, Note_off_c, 2, 74, 127
1, 113079, Note_on_c, 0, 72, 127
1, 113188, Note_off_c, 0, 72, 127
1, 113189, Note_on_c, 12, 71, 127
1, 113298, Note_off_c, 12, 71, 127
1, 113299, Note_on_c, 10, 69, 127
1, 113408, Note_off_c, 10, 69, 127
1, 113409, Note_on_c, 12, 71, 127
1, 113514, Note_off_c, 7, 55, 127
1, 113517, Note_off_c, 12, 71, 127
1, 113518, Note_on_c, 7, 67, 127
1, 113627, Note_off_c, 7, 67, 127
1, 113628, Note_on_c, 6, 66, 127
1, 113737, Note_off_c, 6, 66, 127
1, 113738, Note_on_c, 4, 64, 127
1, 113847, Note_off_c, 4, 64, 127
1, 113848, Note_on_c, 2, 62, 127
1, 113957, Note_off_c, 2, 62, 127
1, 113958, Note_on_c, 0, 60, 127
1, 114067, Note_off_c, 0, 60, 127
1, 114068, Note_on_c, 12, 59, 127
1, 114177, Note_off_c, 12, 59, 127
1, 114178, Note_on_c, 10, 57, 127
1, 114287, Note_off_c, 10, 57, 127
1, 114288, Note_on_c, 12, 59, 127
1, 114397, Note_off_c, 12, 59, 127
1, 114398, Note_on_c, 7, 55, 127
1, 114507, Note_off_c, 7, 55, 127
1, 114508, Note_on_c, 6, 54, 127
1, 114617, Note_off_c, 6, 54, 127
1, 114618, Note_on_c, 4, 52, 127
1, 114727, Note_off_c, 4, 52, 127
1, 114728, Note_on_c, 2, 50, 127
1, 114837, Note_off_c, 2, 50, 127
1, 114838, Note_on_c, 0, 48, 127
1, 114947, Note_off_c, 0, 48, 127
1, 114948, Note_on_c, 12, 47, 127
1, 115057, Note_off_c, 12, 47, 127
1, 115064, Note_on_c, 10, 45, 127
1, 115201, Note_off_c, 10, 45, 127
1, 115248, Note_on_c, 7, 43, 127
1, 115248, Note_on_c, 2, 50, 127
1, 115248, Note_on_c, 12, 47, 127
1, 115248, Note_on_c, 7, 55, 127
1, 115248, Note_on_c, 2, 74, 127
1, 115248, Note_on_c, 12, 71, 127
1, 115248, Note_on_c, 7, 67, 127
1, 115248, Note_on_c, 7, 79, 127
1, 116648, Note_off_c, 7, 79, 127
1, 116648, Note_off_c, 7, 67, 127
1, 116648, Note_off_c, 12, 71, 127
1, 116648, Note_off_c, 2, 74, 127
1, 116648, Note_off_c, 7, 55, 127
1, 116648, Note_off_c, 12, 47, 127
1, 116648, Note_off_c, 2, 50, 127
1, 116648, Note_off_c, 7, 43, 127
1, 119691, Note_on_c, 12, 83, 127
1, 119691, Note_on_c, 4, 64, 127
1, 119809, Note_off_c, 12, 83, 127
1, 119811, Note_on_c, 10, 81, 127
1, 119929, Note_off_c, 10, 81, 127
1, 119931, Note_on_c, 12, 83, 127
1, 120171, Note_on_c, 6, 66, 127
1, 120616, Note_off_c, 4, 64, 127
1, 120648, Note_off_c, 6, 66, 127
1, 120648, Note_off_c, 12, 83, 127
1, 120650, Note_on_c, 4, 76, 127
1, 120650, Note_on_c, 7, 67, 127
1, 120650, Note_on_c, 4, 64, 127
1, 121128, Note_off_c, 7, 67, 127
1, 121130, Note_on_c, 10, 69, 127
1, 121368, Note_off_c, 4, 76, 127
1, 121370, Note_on_c, 12, 83, 127
1, 121575, Note_off_c, 4, 64, 127
1, 121607, Note_off_c, 12, 83, 127
1, 121607, Note_off_c, 10, 69, 127
1, 121609, Note_on_c, 10, 81, 127
1, 121609, Note_on_c, 4, 64, 127
1, 121609, Note_on_c, 12, 71, 127
1, 121847, Note_off_c, 10, 81, 127
1, 121849, Note_on_c, 7, 79, 127
1, 122087, Note_off_c, 7, 79, 127
1, 122087, Note_off_c, 12, 71, 127
1, 122089, Note_on_c, 6, 78, 127
1, 122089, Note_on_c, 0, 72, 127
1, 122254, Note_off_c, 6, 78, 127
1, 122256, Note_on_c, 4, 76, 127
1, 122356, Note_off_c, 4, 76, 127
1, 122364, Note_on_c, 3, 75, 127
1, 122464, Note_off_c, 3, 75, 127
1, 122466, Note_on_c, 4, 76, 127
1, 122534, Note_off_c, 4, 64, 127
1, 122559, Note_off_c, 4, 76, 127
1, 122567, Note_off_c, 0, 72, 127
1, 122569, Note_on_c, 6, 78, 127
1, 122569, Note_on_c, 3, 63, 127
1, 122687, Note_off_c, 6, 78, 127
1, 122689, Note_on_c, 4, 76, 127
1, 122807, Note_off_c, 4, 76, 127
1, 122809, Note_on_c, 6, 78, 127
1, 123049, Note_on_c, 12, 71, 127
1, 123287, Note_off_c, 6, 78, 127
1, 123289, Note_on_c, 7, 79, 127
1, 123407, Note_off_c, 7, 79, 127
1, 123409, Note_on_c, 4, 76, 127
1, 123494, Note_off_c, 3, 63, 127
1, 123526, Note_off_c, 4, 76, 127
1, 123526, Note_off_c, 12, 71, 127
1, 123528, Note_on_c, 6, 78, 127
1, 123528, Note_on_c, 3, 63, 127
1, 123528, Note_on_c, 10, 69, 127
1, 123686, Note_off_c, 6, 78, 127
1, 123691, Note_on_c, 4, 76, 127
1, 123849, Note_off_c, 4, 76, 127
1, 123854, Note_on_c, 6, 78, 127
1, 124006, Note_off_c, 10, 69, 127
1, 124008, Note_on_c, 7, 67, 127
1, 124453, Note_off_c, 3, 63, 127
1, 124485, Note_off_c, 7, 67, 127
1, 124487, Note_on_c, 3, 63, 127
1, 124487, Note_on_c, 6, 66, 127
1, 124965, Note_off_c, 6, 66, 127
1, 124967, Note_on_c, 4, 64, 127
1, 125052, Note_off_c, 6, 78, 127
1, 125207, Note_on_c, 12, 71, 127
1, 125412, Note_off_c, 3, 63, 127
1, 125444, Note_off_c, 12, 71, 127
1, 125444, Note_off_c, 4, 64, 127
1, 125446, Note_on_c, 10, 81, 127
1, 125446, Note_on_c, 12, 59, 127
1, 125446, Note_on_c, 3, 63, 127
1, 125684, Note_off_c, 10, 81, 127
1, 125686, Note_on_c, 6, 78, 127
1, 125924, Note_off_c, 6, 78, 127
1, 125924, Note_off_c, 3, 63, 127
1, 125926, Note_on_c, 3, 75, 127
1, 125926, Note_on_c, 10, 69, 127
1, 126111, Note_off_c, 3, 75, 127
1, 126111, Note_on_c, 4, 76, 127
1, 126259, Note_off_c, 4, 76, 127
1, 126259, Note_on_c, 6, 78, 127
1, 126371, Note_off_c, 12, 59, 127
1, 126403, Note_off_c, 10, 69, 127
1, 126405, Note_off_c, 6, 78, 127
1, 126405, Note_on_c, 12, 71, 127
1, 126405, Note_on_c, 12, 59, 127
1, 126405, Note_on_c, 7, 67, 127
1, 126643, Note_off_c, 12, 71, 127
1, 126645, Note_on_c, 1, 73, 127
1, 126883, Note_off_c, 1, 73, 127
1, 126883, Note_off_c, 7, 67, 127
1, 126885, Note_on_c, 3, 75, 127
1, 126885, Note_on_c, 6, 66, 127
1, 127123, Note_off_c, 3, 75, 127
1, 127125, Note_on_c, 4, 76, 127
1, 127330, Note_off_c, 12, 59, 127
1, 127362, Note_off_c, 4, 76, 127
1, 127362, Note_off_c, 6, 66, 127
1, 127364, Note_on_c, 6, 78, 127
1, 127364, Note_on_c, 12, 59, 127
1, 127364, Note_on_c, 4, 64, 127
1, 127522, Note_off_c, 6, 78, 127
1, 127524, Note_on_c, 7, 79, 127
1, 127682, Note_off_c, 7, 79, 127
1, 127684, Note_on_c, 10, 81, 127
1, 127842, Note_off_c, 10, 81, 127
1, 127842, Note_off_c, 4, 64, 127
1, 127844, Note_on_c, 7, 79, 127
1, 127844, Note_on_c, 3, 63, 127
1, 128082, Note_off_c, 7, 79, 127
1, 128084, Note_on_c, 10, 81, 127
1, 128202, Note_off_c, 10, 81, 127
1, 128204, Note_on_c, 6, 78, 127
1, 128289, Note_off_c, 12, 59, 127
1, 128321, Note_off_c, 6, 78, 127
1, 128321, Note_off_c, 3, 63, 127
1, 128323, Note_on_c, 7, 79, 127
1, 128323, Note_on_c, 4, 64, 127
1, 128441, Note_off_c, 7, 79, 127
1, 128443, Note_on_c, 6, 78, 127
1, 128561, Note_off_c, 6, 78, 127
1, 128563, Note_on_c, 7, 79, 127
1, 128803, Note_on_c, 7, 67, 127
1, 129041, Note_off_c, 7, 79, 127
1, 129043, Note_on_c, 6, 78, 127
1, 129248, Note_off_c, 4, 64, 127
1, 129280, Note_off_c, 6, 78, 127
1, 129280, Note_off_c, 7, 67, 127
1, 129282, Note_on_c, 4, 76, 127
1, 129282, Note_on_c, 12, 71, 127
1, 129282, Note_on_c, 4, 64, 127
1, 129760, Note_off_c, 12, 71, 127
1, 129762, Note_on_c, 2, 74, 127
1, 129877, Note_off_c, 4, 76, 127
1, 130012, Note_on_c, 7, 79, 127
1, 130207, Note_off_c, 4, 64, 127
1, 130238, Note_off_c, 7, 79, 127
1, 130239, Note_off_c, 2, 74, 127
1, 130241, Note_on_c, 10, 81, 127
1, 130241, Note_on_c, 0, 72, 127
1, 130241, Note_on_c, 4, 64, 127
1, 130399, Note_off_c, 10, 81, 127
1, 130401, Note_on_c, 7, 79, 127
1, 130559, Note_off_c, 7, 79, 127
1, 130561, Note_on_c, 10, 81, 127
1, 130719, Note_off_c, 0, 72, 127
1, 130721, Note_on_c, 12, 71, 127
1, 130961, Note_on_c, 12, 83, 127
1, 130981, Note_off_c, 10, 81, 127
1, 131079, Note_off_c, 12, 83, 127
1, 131081, Note_on_c, 0, 84, 127
1, 131166, Note_off_c, 4, 64, 127
1, 131198, Note_off_c, 0, 84, 127
1, 131198, Note_off_c, 12, 71, 127
1, 131200, Note_on_c, 7, 79, 127
1, 131200, Note_on_c, 4, 64, 127
1, 131200, Note_on_c, 10, 69, 127
1, 131382, Note_on_c, 6, 78, 127
1, 131390, Note_off_c, 7, 79, 127
1, 131490, Note_on_c, 7, 79, 127
1, 131500, Note_off_c, 6, 78, 127
1, 131598, Note_on_c, 6, 78, 127
1, 131608, Note_off_c, 7, 79, 127
1, 131678, Note_off_c, 10, 69, 127
1, 131680, Note_on_c, 6, 66, 127
1, 131705, Note_on_c, 7, 79, 127
1, 131715, Note_off_c, 6, 78, 127
1, 131813, Note_on_c, 6, 78, 127
1, 131823, Note_off_c, 7, 79, 127
1, 131921, Note_on_c, 7, 79, 127
1, 131931, Note_off_c, 6, 78, 127
1, 132039, Note_off_c, 7, 79, 127
1, 132041, Note_on_c, 4, 76, 127
1, 132126, Note_off_c, 4, 64, 127
1, 132158, Note_off_c, 4, 76, 127
1, 132158, Note_off_c, 6, 66, 127
1, 132160, Note_on_c, 6, 78, 127
1, 132160, Note_on_c, 12, 71, 127
1, 132160, Note_on_c, 2, 62, 127
1, 132278, Note_off_c, 6, 78, 127
1, 132280, Note_on_c, 4, 76, 127
1, 132398, Note_off_c, 4, 76, 127
1, 132400, Note_on_c, 6, 78, 127
1, 132638, Note_off_c, 12, 71, 127
1, 132640, Note_on_c, 0, 72, 127
1, 132878, Note_off_c, 6, 78, 127
1, 132880, Note_on_c, 12, 83, 127
1, 133085, Note_off_c, 2, 62, 127
1, 133117, Note_off_c, 12, 83, 127
1, 133117, Note_off_c, 0, 72, 127
1, 133119, Note_on_c, 7, 79, 127
1, 133119, Note_on_c, 12, 71, 127
1, 133119, Note_on_c, 2, 62, 127
1, 133259, Note_on_c, 6, 78, 127
1, 133261, Note_off_c, 7, 79, 127
1, 133343, Note_on_c, 7, 79, 127
1, 133375, Note_off_c, 6, 78, 127
1, 133427, Note_on_c, 6, 78, 127
1, 133459, Note_off_c, 7, 79, 127
1, 133511, Note_on_c, 7, 79, 127
1, 133543, Note_off_c, 6, 78, 127
1, 133593, Note_off_c, 12, 71, 127
1, 133595, Note_on_c, 6, 78, 127
1, 133595, Note_on_c, 10, 69, 127
1, 133627, Note_off_c, 7, 79, 127
1, 133832, Note_off_c, 6, 78, 127
1, 133834, Note_on_c, 2, 74, 127
1, 134039, Note_off_c, 2, 62, 127
1, 134071, Note_off_c, 2, 74, 127
1, 134071, Note_off_c, 10, 69, 127
1, 134073, Note_on_c, 4, 76, 127
1, 134073, Note_on_c, 7, 67, 127
1, 134073, Note_on_c, 2, 62, 127
1, 134191, Note_off_c, 4, 76, 127
1, 134193, Note_on_c, 2, 74, 127
1, 134311, Note_off_c, 2, 74, 127
1, 134313, Note_on_c, 4, 76, 127
1, 134551, Note_off_c, 7, 67, 127
1, 134553, Note_on_c, 4, 64, 127
1, 134791, Note_off_c, 4, 76, 127
1, 134793, Note_on_c, 6, 78, 127
1, 134911, Note_off_c, 6, 78, 127
1, 134913, Note_on_c, 2, 74, 127
1, 134998, Note_off_c, 2, 62, 127
1, 135030, Note_off_c, 2, 74, 127
1, 135030, Note_off_c, 4, 64, 127
1, 135032, Note_on_c, 4, 76, 127
1, 135032, Note_on_c, 10, 69, 127
1, 135032, Note_on_c, 0, 60, 127
1, 135510, Note_off_c, 10, 69, 127
1, 135512, Note_on_c, 12, 71, 127
1, 135607, Note_off_c, 4, 76, 127
1, 135752, Note_on_c, 10, 81, 127
1, 135957, Note_off_c, 0, 60, 127
1, 135989, Note_off_c, 10, 81, 127
1, 135989, Note_off_c, 12, 71, 127
1, 135991, Note_on_c, 7, 79, 127
1, 135991, Note_on_c, 0, 60, 127
1, 135991, Note_on_c, 10, 69, 127
1, 136229, Note_off_c, 7, 79, 127
1, 136231, Note_on_c, 6, 78, 127
1, 136469, Note_off_c, 6, 78, 127
1, 136469, Note_off_c, 10, 69, 127
1, 136471, Note_on_c, 4, 76, 127
1, 136471, Note_on_c, 7, 67, 127
1, 136656, Note_off_c, 4, 76, 127
1, 136661, Note_on_c, 2, 74, 127
1, 136806, Note_off_c, 2, 74, 127
1, 136806, Note_on_c, 0, 72, 127
1, 136916, Note_off_c, 0, 60, 127
1, 136948, Note_off_c, 7, 67, 127
1, 136950, Note_off_c, 0, 72, 127
1, 136950, Note_on_c, 4, 76, 127
1, 136950, Note_on_c, 0, 60, 127
1, 136950, Note_on_c, 6, 66, 127
1, 137282, Note_off_c, 4, 76, 127
1, 137284, Note_on_c, 2, 74, 127
1, 137426, Note_off_c, 2, 74, 127
1, 137426, Note_off_c, 6, 66, 127
1, 137428, Note_on_c, 4, 76, 127
1, 137428, Note_on_c, 2, 62, 127
1, 137546, Note_off_c, 4, 76, 127
1, 137548, Note_on_c, 2, 74, 127
1, 137666, Note_off_c, 2, 74, 127
1, 137668, Note_on_c, 4, 76, 127
1, 137786, Note_off_c, 4, 76, 127
1, 137788, Note_on_c, 0, 72, 127
1, 137873, Note_off_c, 0, 60, 127
1, 137905, Note_off_c, 0, 72, 127
1, 137905, Note_off_c, 2, 62, 127
1, 137907, Note_on_c, 2, 74, 127
1, 137907, Note_on_c, 7, 67, 127
1, 137907, Note_on_c, 12, 59, 127
1, 138385, Note_off_c, 7, 67, 127
1, 138385, Note_off_c, 2, 74, 127
1, 138387, Note_on_c, 7, 79, 127
1, 138387, Note_on_c, 10, 69, 127
1, 138625, Note_off_c, 7, 79, 127
1, 138627, Note_on_c, 6, 78, 127
1, 138832, Note_off_c, 12, 59, 127
1, 138864, Note_off_c, 6, 78, 127
1, 138864, Note_off_c, 10, 69, 127
1, 138866, Note_on_c, 4, 76, 127
1, 138866, Note_on_c, 12, 59, 127
1, 138866, Note_on_c, 7, 67, 127
1, 139104, Note_off_c, 4, 76, 127
1, 139106, Note_on_c, 2, 74, 127
1, 139344, Note_off_c, 2, 74, 127
1, 139344, Note_off_c, 7, 67, 127
1, 139346, Note_on_c, 0, 72, 127
1, 139346, Note_on_c, 6, 66, 127
1, 139504, Note_off_c, 0, 72, 127
1, 139506, Note_on_c, 2, 74, 127
1, 139664, Note_off_c, 2, 74, 127
1, 139666, Note_on_c, 12, 71, 127
1, 139791, Note_off_c, 12, 59, 127
1, 139823, Note_off_c, 12, 71, 127
1, 139823, Note_off_c, 6, 66, 127
1, 139825, Note_on_c, 0, 72, 127
1, 139825, Note_on_c, 12, 59, 127
1, 139825, Note_on_c, 4, 64, 127
1, 140063, Note_off_c, 0, 72, 127
1, 140065, Note_on_c, 12, 71, 127
1, 140303, Note_off_c, 12, 71, 127
1, 140303, Note_off_c, 4, 64, 127
1, 140305, Note_on_c, 10, 69, 127
1, 140305, Note_on_c, 7, 67, 127
1, 140543, Note_off_c, 10, 69, 127
1, 140545, Note_on_c, 12, 71, 127
1, 140750, Note_off_c, 12, 59, 127
1, 140782, Note_off_c, 12, 71, 127
1, 140782, Note_off_c, 7, 67, 127
1, 140784, Note_on_c, 0, 72, 127
1, 140784, Note_on_c, 10, 57, 127
1, 140784, Note_on_c, 6, 66, 127
1, 141022, Note_off_c, 0, 72, 127
1, 141024, Note_on_c, 2, 74, 127
1, 141262, Note_off_c, 2, 74, 127
1, 141262, Note_off_c, 6, 66, 127
1, 141264, Note_on_c, 4, 76, 127
1, 141264, Note_on_c, 7, 67, 127
1, 141502, Note_off_c, 4, 76, 127
1, 141504, Note_on_c, 6, 78, 127
1, 141709, Note_off_c, 10, 57, 127
1, 141741, Note_off_c, 6, 78, 127
1, 141741, Note_off_c, 7, 67, 127
1, 141743, Note_on_c, 7, 79, 127
1, 141743, Note_on_c, 4, 64, 127
1, 141743, Note_on_c, 10, 57, 127
1, 141981, Note_off_c, 7, 79, 127
1, 141983, Note_on_c, 6, 78, 127
1, 142221, Note_off_c, 6, 78, 127
1, 142221, Note_off_c, 4, 64, 127
1, 142223, Note_on_c, 7, 79, 127
1, 142223, Note_on_c, 6, 66, 127
1, 142461, Note_off_c, 7, 79, 127
1, 142463, Note_on_c, 10, 81, 127
1, 142668, Note_off_c, 10, 57, 127
1, 142682, Note_off_c, 10, 81, 127
1, 142700, Note_off_c, 6, 66, 127
1, 142702, Note_on_c, 0, 72, 127
1, 142702, Note_on_c, 7, 67, 127
1, 142702, Note_on_c, 7, 55, 127
1, 142937, Note_off_c, 0, 72, 127
1, 142948, Note_on_c, 12, 71, 127
1, 143065, Note_on_c, 0, 72, 127
1, 143066, Note_off_c, 12, 71, 127
1, 143180, Note_off_c, 7, 67, 127
1, 143182, Note_on_c, 12, 71, 127
1, 143182, Note_on_c, 4, 64, 127
1, 143183, Note_off_c, 0, 72, 127
1, 143299, Note_on_c, 0, 72, 127
1, 143300, Note_off_c, 12, 71, 127
1, 143452, Note_on_c, 10, 69, 127
1, 143459, Note_off_c, 0, 72, 127
1, 143627, Note_off_c, 7, 55, 127
1, 143659, Note_off_c, 4, 64, 127
1, 143661, Note_on_c, 12, 71, 127
1, 143661, Note_on_c, 7, 55, 127
1, 143661, Note_on_c, 2, 62, 127
1, 143662, Note_off_c, 10, 69, 127
1, 143779, Note_off_c, 12, 71, 127
1, 143781, Note_on_c, 10, 69, 127
1, 143899, Note_off_c, 10, 69, 127
1, 143901, Note_on_c, 12, 71, 127
1, 144139, Note_off_c, 2, 62, 127
1, 144141, Note_on_c, 0, 60, 127
1, 144586, Note_off_c, 7, 55, 127
1, 144618, Note_off_c, 0, 60, 127
1, 144620, Note_on_c, 12, 59, 127
1, 144620, Note_on_c, 7, 55, 127
1, 144850, Note_off_c, 12, 71, 127
1, 145098, Note_off_c, 12, 59, 127
1, 145100, Note_on_c, 10, 57, 127
1, 145340, Note_on_c, 12, 71, 127
1, 145545, Note_off_c, 7, 55, 127
1, 145577, Note_off_c, 12, 71, 127
1, 145577, Note_off_c, 10, 57, 127
1, 145579, Note_on_c, 4, 76, 127
1, 145579, Note_on_c, 7, 55, 127
1, 145711, Note_off_c, 4, 76, 127
1, 145723, Note_on_c, 3, 75, 127
1, 145855, Note_off_c, 3, 75, 127
1, 145867, Note_on_c, 4, 76, 127
1, 146057, Note_on_c, 6, 66, 127
1, 146287, Note_off_c, 4, 76, 127
1, 146297, Note_on_c, 7, 79, 127
1, 146502, Note_off_c, 7, 55, 127
1, 146534, Note_off_c, 7, 79, 127
1, 146534, Note_off_c, 6, 66, 127
1, 146536, Note_on_c, 12, 83, 127
1, 146536, Note_on_c, 7, 55, 127
1, 146536, Note_on_c, 4, 64, 127
1, 147014, Note_off_c, 4, 64, 127
1, 147016, Note_on_c, 2, 62, 127
1, 147254, Note_off_c, 12, 83, 127
1, 147256, Note_on_c, 10, 81, 127
1, 147374, Note_off_c, 10, 81, 127
1, 147376, Note_on_c, 7, 79, 127
1, 147461, Note_off_c, 7, 55, 127
1, 147493, Note_off_c, 7, 79, 127
1, 147493, Note_off_c, 2, 62, 127
1, 147495, Note_on_c, 6, 78, 127
1, 147495, Note_on_c, 7, 55, 127
1, 147495, Note_on_c, 1, 61, 127
1, 147673, Note_off_c, 6, 78, 127
1, 147675, Note_on_c, 4, 76, 127
1, 147833, Note_off_c, 4, 76, 127
1, 147835, Note_on_c, 7, 79, 127
1, 147973, Note_off_c, 1, 61, 127
1, 147975, Note_on_c, 12, 59, 127
1, 148120, Note_off_c, 7, 79, 127
1, 148120, Note_on_c, 6, 78, 127
1, 148282, Note_off_c, 6, 78, 127
1, 148282, Note_on_c, 7, 79, 127
1, 148420, Note_off_c, 7, 55, 127
1, 148444, Note_off_c, 7, 79, 127
1, 148452, Note_off_c, 12, 59, 127
1, 148454, Note_on_c, 2, 74, 127
1, 148454, Note_on_c, 10, 57, 127
1, 148698, Note_on_c, 1, 73, 127
1, 148710, Note_off_c, 2, 74, 127
1, 148805, Note_on_c, 2, 74, 127
1, 148815, Note_off_c, 1, 73, 127
1, 148913, Note_on_c, 1, 73, 127
1, 148923, Note_off_c, 2, 74, 127
1, 148935, Note_on_c, 6, 66, 127
1, 149037, Note_on_c, 2, 74, 127
1, 149041, Note_off_c, 1, 73, 127
1, 149165, Note_off_c, 2, 74, 127
1, 149175, Note_on_c, 12, 71, 127
1, 149380, Note_off_c, 10, 57, 127
1, 149412, Note_off_c, 12, 71, 127
1, 149412, Note_off_c, 6, 66, 127
1, 149414, Note_on_c, 1, 73, 127
1, 149414, Note_on_c, 4, 64, 127
1, 149414, Note_on_c, 10, 57, 127
1, 149532, Note_off_c, 1, 73, 127
1, 149534, Note_on_c, 12, 71, 127
1, 149652, Note_off_c, 12, 71, 127
1, 149654, Note_on_c, 1, 73, 127
1, 149892, Note_off_c, 4, 64, 127
1, 149894, Note_on_c, 2, 62, 127
1, 150339, Note_off_c, 10, 57, 127
1, 150371, Note_off_c, 2, 62, 127
1, 150373, Note_on_c, 10, 57, 127
1, 150373, Note_on_c, 1, 61, 127
1, 150603, Note_off_c, 1, 73, 127
1, 150851, Note_off_c, 1, 61, 127
1, 150853, Note_on_c, 12, 59, 127
1, 151093, Note_on_c, 1, 73, 127
1, 151298, Note_off_c, 10, 57, 127
1, 151330, Note_off_c, 1, 73, 127
1, 151330, Note_off_c, 12, 59, 127
1, 151332, Note_on_c, 6, 78, 127
1, 151332, Note_on_c, 10, 57, 127
1, 151807, Note_off_c, 6, 78, 127
1, 151812, Note_on_c, 10, 81, 127
1, 151812, Note_on_c, 7, 67, 127
1, 151970, Note_off_c, 10, 81, 127
1, 151972, Note_on_c, 0, 84, 127
1, 152130, Note_off_c, 0, 84, 127
1, 152132, Note_on_c, 12, 83, 127
1, 152257, Note_off_c, 10, 57, 127
1, 152289, Note_off_c, 12, 83, 127
1, 152289, Note_off_c, 7, 67, 127
1, 152291, Note_on_c, 0, 84, 127
1, 152291, Note_on_c, 6, 66, 127
1, 152291, Note_on_c, 10, 57, 127
1, 152529, Note_off_c, 0, 84, 127
1, 152531, Note_on_c, 12, 83, 127
1, 152769, Note_off_c, 12, 83, 127
1, 152769, Note_off_c, 6, 66, 127
1, 152771, Note_on_c, 10, 81, 127
1, 152771, Note_on_c, 4, 64, 127
1, 153009, Note_off_c, 10, 81, 127
1, 153011, Note_on_c, 7, 79, 127
1, 153216, Note_off_c, 10, 57, 127
1, 153248, Note_off_c, 7, 79, 127
1, 153248, Note_off_c, 4, 64, 127
1, 153250, Note_on_c, 6, 78, 127
1, 153250, Note_on_c, 3, 63, 127
1, 153250, Note_on_c, 10, 57, 127
1, 153440, Note_on_c, 7, 79, 127
1, 153448, Note_off_c, 6, 78, 127
1, 153573, Note_off_c, 7, 79, 127
1, 153573, Note_on_c, 4, 76, 127
1, 153705, Note_off_c, 4, 76, 127
1, 153705, Note_on_c, 6, 78, 127
1, 153727, Note_off_c, 3, 63, 127
1, 153729, Note_on_c, 1, 61, 127
1, 153847, Note_on_c, 3, 75, 127
1, 153851, Note_off_c, 6, 78, 127
1, 153989, Note_on_c, 4, 76, 127
1, 153993, Note_off_c, 3, 75, 127
1, 154174, Note_off_c, 10, 57, 127
1, 154205, Note_off_c, 4, 76, 127
1, 154206, Note_off_c, 1, 61, 127
1, 154208, Note_on_c, 3, 75, 127
1, 154208, Note_on_c, 12, 59, 127
1, 154446, Note_off_c, 3, 75, 127
1, 154448, Note_on_c, 12, 71, 127
1, 154686, Note_off_c, 12, 71, 127
1, 154688, Note_on_c, 1, 73, 127
1, 154688, Note_on_c, 10, 69, 127
1, 154926, Note_off_c, 1, 73, 127
1, 154928, Note_on_c, 3, 75, 127
1, 155133, Note_off_c, 12, 59, 127
1, 155165, Note_off_c, 3, 75, 127
1, 155165, Note_off_c, 10, 69, 127
1, 155167, Note_on_c, 4, 76, 127
1, 155167, Note_on_c, 12, 59, 127
1, 155167, Note_on_c, 7, 67, 127
1, 155405, Note_off_c, 4, 76, 127
1, 155407, Note_on_c, 3, 75, 127
1, 155645, Note_off_c, 3, 75, 127
1, 155645, Note_off_c, 7, 67, 127
1, 155647, Note_on_c, 4, 76, 127
1, 155647, Note_on_c, 6, 66, 127
1, 155867, Note_off_c, 4, 76, 127
1, 155887, Note_on_c, 7, 79, 127
1, 155998, Note_off_c, 7, 79, 127
1, 156007, Note_on_c, 6, 78, 127
1, 156092, Note_off_c, 12, 59, 127
1, 156116, Note_off_c, 6, 78, 127
1, 156124, Note_off_c, 6, 66, 127
1, 156126, Note_on_c, 7, 79, 127
1, 156126, Note_on_c, 12, 59, 127
1, 156126, Note_on_c, 4, 64, 127
1, 156244, Note_off_c, 7, 79, 127
1, 156246, Note_on_c, 6, 78, 127
1, 156364, Note_off_c, 6, 78, 127
1, 156366, Note_on_c, 7, 79, 127
1, 156604, Note_off_c, 4, 64, 127
1, 156606, Note_on_c, 2, 62, 127
1, 156844, Note_off_c, 7, 79, 127
1, 156846, Note_on_c, 7, 79, 127
1, 157051, Note_off_c, 12, 59, 127
1, 157083, Note_off_c, 7, 79, 127
1, 157083, Note_off_c, 2, 62, 127
1, 157085, Note_on_c, 7, 79, 127
1, 157085, Note_on_c, 11, 58, 127
1, 157085, Note_on_c, 1, 61, 127
1, 157300, Note_on_c, 6, 78, 127
1, 157322, Note_off_c, 7, 79, 127
1, 157514, Note_on_c, 7, 79, 127
1, 157536, Note_off_c, 6, 78, 127
1, 158464, Note_off_c, 7, 79, 127
1, 158474, Note_on_c, 11, 70, 127
1, 158606, Note_off_c, 11, 70, 127
1, 158606, Note_on_c, 1, 73, 127
1, 158738, Note_off_c, 1, 73, 127
1, 158738, Note_on_c, 4, 76, 127
1, 158870, Note_off_c, 4, 76, 127
1, 158870, Note_on_c, 7, 79, 127
1, 159000, Note_off_c, 1, 61, 127
1, 159000, Note_off_c, 11, 58, 127
1, 159002, Note_off_c, 7, 79, 127
1, 159002, Note_on_c, 6, 78, 127
1, 159002, Note_on_c, 1, 61, 127
1, 159002, Note_on_c, 11, 58, 127
1, 159002, Note_on_c, 6, 66, 127
1, 159240, Note_off_c, 6, 78, 127
1, 159242, Note_on_c, 4, 76, 127
1, 159480, Note_off_c, 4, 76, 127
1, 159482, Note_on_c, 2, 74, 127
1, 159640, Note_off_c, 2, 74, 127
1, 159642, Note_on_c, 4, 76, 127
1, 159800, Note_off_c, 4, 76, 127
1, 159802, Note_on_c, 1, 73, 127
1, 159960, Note_off_c, 1, 73, 127
1, 159960, Note_off_c, 6, 66, 127
1, 159960, Note_off_c, 11, 58, 127
1, 159960, Note_off_c, 1, 61, 127
1, 159962, Note_on_c, 2, 74, 127
1, 159962, Note_on_c, 12, 59, 127
1, 160227, Note_on_c, 4, 76, 127
1, 160247, Note_off_c, 2, 74, 127
1, 160335, Note_on_c, 2, 74, 127
1, 160345, Note_off_c, 4, 76, 127
1, 160443, Note_on_c, 1, 73, 127
1, 160443, Note_on_c, 4, 64, 127
1, 160443, Note_on_c, 7, 67, 127
1, 160453, Note_off_c, 2, 74, 127
1, 160561, Note_off_c, 1, 73, 127
1, 160563, Note_on_c, 2, 74, 127
1, 160681, Note_off_c, 2, 74, 127
1, 160683, Note_on_c, 4, 76, 127
1, 160883, Note_off_c, 4, 76, 127
1, 160888, Note_off_c, 12, 59, 127
1, 160920, Note_off_c, 7, 67, 127
1, 160920, Note_off_c, 4, 64, 127
1, 160922, Note_on_c, 12, 71, 127
1, 160922, Note_on_c, 6, 66, 127
1, 161400, Note_off_c, 6, 66, 127
1, 161402, Note_on_c, 4, 64, 127
1, 161880, Note_off_c, 4, 64, 127
1, 161880, Note_off_c, 12, 71, 127
1, 161882, Note_on_c, 12, 71, 127
1, 161882, Note_on_c, 3, 63, 127
1, 161882, Note_on_c, 6, 54, 127
1, 161980, Note_off_c, 12, 71, 127
1, 161982, Note_on_c, 11, 70, 127
1, 162080, Note_off_c, 11, 70, 127
1, 162082, Note_on_c, 12, 71, 127
1, 162180, Note_off_c, 12, 71, 127
1, 162182, Note_on_c, 11, 70, 127
1, 162280, Note_off_c, 11, 70, 127
1, 162282, Note_on_c, 12, 71, 127
1, 162360, Note_off_c, 12, 71, 127
1, 162360, Note_off_c, 3, 63, 127
1, 162362, Note_on_c, 11, 70, 127
1, 162362, Note_on_c, 4, 64, 127
1, 162600, Note_off_c, 11, 70, 127
1, 162602, Note_on_c, 12, 71, 127
1, 162807, Note_off_c, 6, 54, 127
1, 162839, Note_off_c, 12, 71, 127
1, 162839, Note_off_c, 4, 64, 127
1, 162841, Note_on_c, 12, 71, 127
1, 162841, Note_on_c, 12, 59, 127
1, 162841, Note_on_c, 3, 63, 127
1, 163316, Note_off_c, 12, 71, 127
1, 163318, Note_off_c, 3, 63, 127
1, 163320, Note_on_c, 12, 71, 127
1, 163765, Note_off_c, 12, 59, 127
1, 163797, Note_off_c, 12, 71, 127
1, 163799, Note_on_c, 10, 69, 127
1, 163799, Note_on_c, 12, 59, 127
1, 164277, Note_off_c, 10, 69, 127
1, 164279, Note_on_c, 7, 67, 127
1, 164519, Note_on_c, 12, 71, 127
1, 164719, Note_off_c, 12, 71, 127
1, 164724, Note_off_c, 12, 59, 127
1, 164756, Note_off_c, 7, 67, 127
1, 164758, Note_on_c, 3, 75, 127
1, 164758, Note_on_c, 12, 59, 127
1, 164758, Note_on_c, 6, 66, 127
1, 165236, Note_off_c, 6, 66, 127
1, 165238, Note_on_c, 4, 64, 127
1, 165476, Note_off_c, 3, 75, 127
1, 165478, Note_on_c, 6, 78, 127
1, 165678, Note_off_c, 6, 78, 127
1, 165683, Note_off_c, 12, 59, 127
1, 165715, Note_off_c, 4, 64, 127
1, 165717, Note_on_c, 10, 81, 127
1, 165717, Note_on_c, 12, 59, 127
1, 165717, Note_on_c, 3, 63, 127
1, 165955, Note_off_c, 10, 81, 127
1, 165957, Note_on_c, 6, 78, 127
1, 166195, Note_off_c, 6, 78, 127
1, 166195, Note_off_c, 3, 63, 127
1, 166197, Note_on_c, 3, 75, 127
1, 166197, Note_on_c, 0, 72, 127
1, 166435, Note_off_c, 3, 75, 127
1, 166437, Note_on_c, 12, 71, 127
1, 166642, Note_off_c, 12, 59, 127
1, 166674, Note_off_c, 12, 71, 127
1, 166674, Note_off_c, 0, 72, 127
1, 166676, Note_on_c, 3, 75, 127
1, 166676, Note_on_c, 12, 71, 127
1, 166676, Note_on_c, 12, 59, 127
1, 166914, Note_off_c, 3, 75, 127
1, 166916, Note_on_c, 6, 78, 127
1, 167154, Note_off_c, 6, 78, 127
1, 167154, Note_off_c, 12, 71, 127
1, 167156, Note_on_c, 10, 81, 127
1, 167156, Note_on_c, 10, 69, 127
1, 167394, Note_off_c, 10, 81, 127
1, 167396, Note_on_c, 0, 84, 127
1, 167601, Note_off_c, 12, 59, 127
1, 167633, Note_off_c, 0, 84, 127
1, 167633, Note_off_c, 10, 69, 127
1, 167635, Note_on_c, 12, 83, 127
1, 167635, Note_on_c, 12, 59, 127
1, 167635, Note_on_c, 7, 67, 127
1, 167873, Note_off_c, 12, 83, 127
1, 167875, Note_on_c, 10, 81, 127
1, 168113, Note_off_c, 10, 81, 127
1, 168113, Note_off_c, 7, 67, 127
1, 168115, Note_on_c, 7, 79, 127
1, 168115, Note_on_c, 6, 66, 127
1, 168273, Note_off_c, 7, 79, 127
1, 168275, Note_on_c, 10, 81, 127
1, 168433, Note_off_c, 10, 81, 127
1, 168435, Note_on_c, 6, 78, 127
1, 168560, Note_off_c, 12, 59, 127
1, 168592, Note_off_c, 6, 78, 127
1, 168592, Note_off_c, 6, 66, 127
1, 168594, Note_on_c, 7, 79, 127
1, 168594, Note_on_c, 4, 64, 127
1, 168712, Note_off_c, 7, 79, 127
1, 168714, Note_on_c, 6, 78, 127
1, 168832, Note_off_c, 6, 78, 127
1, 168834, Note_on_c, 7, 79, 127
1, 169074, Note_on_c, 10, 69, 127
1, 169312, Note_off_c, 7, 79, 127
1, 169314, Note_on_c, 6, 78, 127
1, 169519, Note_off_c, 4, 64, 127
1, 169551, Note_off_c, 6, 78, 127
1, 169551, Note_off_c, 10, 69, 127
1, 169553, Note_on_c, 4, 76, 127
1, 169553, Note_on_c, 7, 67, 127
1, 169553, Note_on_c, 4, 64, 127
1, 170031, Note_off_c, 7, 67, 127
1, 170033, Note_on_c, 6, 66, 127
1, 170478, Note_off_c, 4, 64, 127
1, 170510, Note_off_c, 6, 66, 127
1, 170512, Note_on_c, 4, 64, 127
1, 170752, Note_off_c, 4, 76, 127
1, 170992, Note_on_c, 8, 68, 127
1, 171232, Note_on_c, 4, 76, 127
1, 171437, Note_off_c, 4, 64, 127
1, 171469, Note_off_c, 4, 76, 127
1, 171469, Note_off_c, 8, 68, 127
1, 171471, Note_on_c, 2, 74, 127
1, 171471, Note_on_c, 10, 57, 127
1, 171471, Note_on_c, 10, 69, 127
1, 171629, Note_off_c, 2, 74, 127
1, 171631, Note_on_c, 1, 73, 127
1, 171711, Note_on_c, 2, 74, 127
1, 171731, Note_off_c, 1, 73, 127
1, 171791, Note_on_c, 1, 73, 127
1, 171811, Note_off_c, 2, 74, 127
1, 171871, Note_on_c, 2, 74, 127
1, 171891, Note_off_c, 1, 73, 127
1, 171949, Note_off_c, 10, 69, 127
1, 171951, Note_on_c, 1, 73, 127
1, 171951, Note_on_c, 12, 71, 127
1, 171971, Note_off_c, 2, 74, 127
1, 172396, Note_off_c, 10, 57, 127
1, 172426, Note_off_c, 1, 73, 127
1, 172428, Note_off_c, 12, 71, 127
1, 172430, Note_on_c, 10, 57, 127
1, 172430, Note_on_c, 10, 69, 127
1, 172670, Note_on_c, 4, 76, 127
1, 172908, Note_off_c, 4, 76, 127
1, 172908, Note_off_c, 10, 69, 127
1, 172910, Note_on_c, 10, 81, 127
1, 172910, Note_on_c, 7, 67, 127
1, 173148, Note_off_c, 10, 81, 127
1, 173150, Note_on_c, 8, 80, 127
1, 173355, Note_off_c, 10, 57, 127
1, 173387, Note_off_c, 8, 80, 127
1, 173387, Note_off_c, 7, 67, 127
1, 173389, Note_on_c, 10, 81, 127
1, 173389, Note_on_c, 6, 66, 127
1, 173389, Note_on_c, 10, 57, 127
1, 173507, Note_off_c, 10, 81, 127
1, 173509, Note_on_c, 8, 80, 127
1, 173627, Note_off_c, 8, 80, 127
1, 173629, Note_on_c, 10, 81, 127
1, 173867, Note_off_c, 6, 66, 127
1, 173869, Note_on_c, 4, 64, 127
1, 174107, Note_off_c, 10, 81, 127
1, 174109, Note_on_c, 10, 81, 127
1, 174314, Note_off_c, 10, 57, 127
1, 174346, Note_off_c, 10, 81, 127
1, 174346, Note_off_c, 4, 64, 127
1, 174348, Note_on_c, 10, 81, 127
1, 174348, Note_on_c, 3, 63, 127
1, 174466, Note_off_c, 10, 81, 127
1, 174468, Note_on_c, 8, 80, 127
1, 174586, Note_off_c, 8, 80, 127
1, 174588, Note_on_c, 10, 81, 127
1, 174828, Note_on_c, 6, 66, 127
1, 175308, Note_on_c, 12, 71, 127
1, 175906, Note_off_c, 10, 81, 127
1, 175908, Note_on_c, 0, 84, 127
1, 176026, Note_off_c, 0, 84, 127
1, 176028, Note_on_c, 12, 83, 127
1, 176146, Note_off_c, 12, 83, 127
1, 176148, Note_on_c, 10, 81, 127
1, 176266, Note_off_c, 10, 81, 127
1, 176266, Note_off_c, 12, 71, 127
1, 176266, Note_off_c, 6, 66, 127
1, 176266, Note_off_c, 3, 63, 127
1, 176268, Note_on_c, 7, 79, 127
1, 176268, Note_on_c, 12, 71, 127
1, 176268, Note_on_c, 7, 67, 127
1, 176268, Note_on_c, 4, 64, 127
1, 176973, Note_on_c, 10, 81, 127
1, 176985, Note_off_c, 7, 79, 127
1, 177090, Note_off_c, 10, 81, 127
1, 177100, Note_on_c, 6, 78, 127
1, 177218, Note_off_c, 6, 78, 127
1, 177226, Note_off_c, 4, 64, 127
1, 177226, Note_off_c, 7, 67, 127
1, 177226, Note_off_c, 12, 71, 127
1, 177228, Note_on_c, 7, 79, 127
1, 177228, Note_on_c, 10, 69, 127
1, 177228, Note_on_c, 10, 57, 127
1, 177228, Note_on_c, 4, 64, 127
1, 177346, Note_off_c, 7, 79, 127
1, 177348, Note_on_c, 0, 84, 127
1, 177466, Note_off_c, 0, 84, 127
1, 177468, Note_on_c, 12, 83, 127
1, 177586, Note_off_c, 12, 83, 127
1, 177588, Note_on_c, 10, 81, 127
1, 177706, Note_off_c, 10, 81, 127
1, 177706, Note_off_c, 4, 64, 127
1, 177708, Note_on_c, 7, 79, 127
1, 177708, Note_on_c, 7, 67, 127
1, 177918, Note_off_c, 7, 79, 127
1, 177926, Note_on_c, 6, 78, 127
1, 178014, Note_on_c, 7, 79, 127
1, 178026, Note_off_c, 6, 78, 127
1, 178101, Note_on_c, 4, 76, 127
1, 178113, Note_off_c, 7, 79, 127
1, 178161, Note_off_c, 4, 76, 127
1, 178179, Note_off_c, 10, 57, 127
1, 178179, Note_off_c, 10, 69, 127
1, 178187, Note_off_c, 7, 67, 127
1, 178189, Note_on_c, 4, 76, 127
1, 178189, Note_on_c, 12, 59, 127
1, 178189, Note_on_c, 6, 66, 127
1, 178469, Note_on_c, 3, 75, 127
1, 178481, Note_off_c, 4, 76, 127
1, 178569, Note_on_c, 4, 76, 127
1, 178587, Note_off_c, 3, 75, 127
1, 178669, Note_on_c, 3, 75, 127
1, 178687, Note_off_c, 4, 76, 127
1, 178767, Note_on_c, 4, 76, 127
1, 178787, Note_off_c, 3, 75, 127
1, 178865, Note_on_c, 3, 75, 127
1, 178885, Note_off_c, 4, 76, 127
1, 178963, Note_on_c, 4, 76, 127
1, 178983, Note_off_c, 3, 75, 127
1, 179061, Note_on_c, 3, 75, 127
1, 179081, Note_off_c, 4, 76, 127
1, 179151, Note_on_c, 10, 69, 127
1, 179803, Note_off_c, 3, 75, 127
1, 179871, Note_on_c, 4, 76, 127
1, 180109, Note_off_c, 4, 76, 127
1, 180109, Note_off_c, 10, 69, 127
1, 180109, Note_off_c, 6, 66, 127
1, 180109, Note_off_c, 12, 59, 127
1, 180111, Note_on_c, 4, 76, 127
1, 180111, Note_on_c, 7, 67, 127
1, 180111, Note_on_c, 4, 64, 127
1, 180589, Note_off_c, 7, 67, 127
1, 180589, Note_off_c, 4, 76, 127
1, 180591, Note_on_c, 12, 83, 127
1, 180591, Note_on_c, 10, 69, 127
1, 180829, Note_off_c, 12, 83, 127
1, 180831, Note_on_c, 10, 81, 127
1, 181069, Note_off_c, 10, 81, 127
1, 181069, Note_off_c, 10, 69, 127
1, 181071, Note_on_c, 10, 81, 127
1, 181071, Note_on_c, 12, 71, 127
1, 181309, Note_off_c, 10, 81, 127
1, 181311, Note_on_c, 7, 79, 127
1, 181549, Note_off_c, 7, 79, 127
1, 181549, Note_off_c, 12, 71, 127
1, 181549, Note_off_c, 4, 64, 127
1, 181551, Note_on_c, 6, 78, 127
1, 181551, Note_on_c, 4, 64, 127
1, 181551, Note_on_c, 7, 67, 127
1, 181709, Note_off_c, 6, 78, 127
1, 181711, Note_on_c, 7, 79, 127
1, 181869, Note_off_c, 7, 79, 127
1, 181871, Note_on_c, 4, 76, 127
1, 182029, Note_off_c, 4, 76, 127
1, 182029, Note_off_c, 7, 67, 127
1, 182029, Note_off_c, 4, 64, 127
1, 182031, Note_on_c, 5, 77, 127
1, 182031, Note_on_c, 0, 72, 127
1, 182031, Note_on_c, 10, 69, 127
1, 182223, Note_off_c, 5, 77, 127
1, 182271, Note_on_c, 10, 81, 127
1, 182509, Note_off_c, 10, 69, 127
1, 182509, Note_off_c, 0, 72, 127
1, 182511, Note_on_c, 2, 74, 127
1, 182511, Note_on_c, 12, 71, 127
1, 182749, Note_off_c, 10, 81, 127
1, 182751, Note_on_c, 8, 80, 127
1, 182989, Note_off_c, 8, 80, 127
1, 182989, Note_off_c, 12, 71, 127
1, 182989, Note_off_c, 2, 74, 127
1, 182991, Note_on_c, 10, 81, 127
1, 182991, Note_on_c, 4, 76, 127
1, 182991, Note_on_c, 0, 72, 127
1, 183079, Note_on_c, 8, 80, 127
1, 183091, Note_off_c, 10, 81, 127
1, 183166, Note_on_c, 10, 81, 127
1, 183178, Note_off_c, 8, 80, 127
1, 183948, Note_off_c, 0, 72, 127
1, 183948, Note_off_c, 4, 76, 127
1, 184046, Note_on_c, 3, 63, 127
1, 184046, Note_on_c, 6, 66, 127
1, 184046, Note_on_c, 12, 71, 127
1, 184390, Note_off_c, 10, 81, 127
1, 184550, Note_on_c, 12, 83, 127
1, 185004, Note_off_c, 12, 71, 127
1, 185004, Note_off_c, 6, 66, 127
1, 185004, Note_off_c, 3, 63, 127
1, 185028, Note_off_c, 12, 83, 127
1, 185030, Note_on_c, 7, 67, 127
1, 185030, Note_on_c, 4, 64, 127
1, 185030, Note_on_c, 12, 71, 127
1, 185030, Note_on_c, 10, 81, 127
1, 185130, Note_on_c, 7, 79, 127
1, 185148, Note_off_c, 10, 81, 127
1, 185230, Note_on_c, 10, 81, 127
1, 185248, Note_off_c, 7, 79, 127
1, 185330, Note_on_c, 7, 79, 127
1, 185348, Note_off_c, 10, 81, 127
1, 185688, Note_off_c, 7, 79, 127
1, 185750, Note_on_c, 6, 78, 127
1, 185988, Note_off_c, 6, 78, 127
1, 185988, Note_off_c, 12, 71, 127
1, 185988, Note_off_c, 4, 64, 127
1, 185988, Note_off_c, 7, 67, 127
1, 185990, Note_on_c, 10, 57, 127
1, 185990, Note_on_c, 4, 64, 127
1, 185990, Note_on_c, 0, 60, 127
1, 185990, Note_on_c, 10, 69, 127
1, 185990, Note_on_c, 7, 79, 127
1, 186108, Note_off_c, 7, 79, 127
1, 186110, Note_on_c, 6, 78, 127
1, 186228, Note_off_c, 6, 78, 127
1, 186230, Note_on_c, 3, 75, 127
1, 186348, Note_off_c, 3, 75, 127
1, 186350, Note_on_c, 4, 76, 127
1, 186465, Note_off_c, 10, 69, 127
1, 186467, Note_off_c, 4, 76, 127
1, 186469, Note_on_c, 7, 67, 127
1, 186469, Note_on_c, 6, 78, 127
1, 186664, Note_on_c, 7, 79, 127
1, 186666, Note_off_c, 6, 78, 127
1, 186758, Note_on_c, 6, 78, 127
1, 186763, Note_off_c, 7, 79, 127
1, 186853, Note_on_c, 7, 79, 127
1, 186858, Note_off_c, 6, 78, 127
1, 186938, Note_off_c, 0, 60, 127
1, 186938, Note_off_c, 4, 64, 127
1, 186938, Note_off_c, 10, 57, 127
1, 186943, Note_off_c, 7, 67, 127
1, 186948, Note_on_c, 12, 59, 127
1, 186948, Note_on_c, 6, 66, 127
1, 186948, Note_on_c, 4, 76, 127
1, 186953, Note_off_c, 7, 79, 127
1, 187305, Note_off_c, 4, 76, 127
1, 187307, Note_on_c, 3, 75, 127
1, 187425, Note_off_c, 3, 75, 127
1, 187427, Note_on_c, 7, 67, 127
1, 187427, Note_on_c, 1, 73, 127
1, 187545, Note_off_c, 1, 73, 127
1, 187547, Note_on_c, 3, 75, 127
1, 187665, Note_off_c, 3, 75, 127
1, 187667, Note_on_c, 1, 73, 127
1, 187785, Note_off_c, 1, 73, 127
1, 187787, Note_on_c, 3, 75, 127
1, 187905, Note_off_c, 3, 75, 127
1, 187905, Note_off_c, 7, 67, 127
1, 187907, Note_on_c, 10, 69, 127
1, 187907, Note_on_c, 4, 76, 127
1, 188099, Note_off_c, 4, 76, 127
1, 188147, Note_on_c, 3, 75, 127
1, 188385, Note_off_c, 10, 69, 127
1, 188387, Note_on_c, 12, 71, 127
1, 188625, Note_off_c, 3, 75, 127
1, 188651, Note_on_c, 4, 76, 127
1, 188865, Note_off_c, 12, 71, 127
1, 188865, Note_off_c, 6, 66, 127
1, 188865, Note_off_c, 12, 59, 127
1, 188889, Note_off_c, 4, 76, 127
1, 188891, Note_on_c, 4, 76, 127
1, 188891, Note_on_c, 4, 64, 127
1, 188891, Note_on_c, 8, 68, 127
1, 189001, Note_on_c, 3, 75, 127
1, 189009, Note_off_c, 4, 76, 127
1, 189111, Note_on_c, 4, 76, 127
1, 189119, Note_off_c, 3, 75, 127
1, 191747, Note_off_c, 4, 76, 127
1, 191767, Note_off_c, 8, 68, 127
1, 191767, Note_off_c, 4, 64, 127
1, 194652, Note_on_c, 7, 79, 127
1, 194652, Note_on_c, 7, 55, 127
1, 194652, Note_on_c, 2, 50, 127
1, 194652, Note_on_c, 12, 47, 127
1, 194652, Note_on_c, 7, 43, 127
1, 194719, Note_off_c, 12, 47, 127
1, 194764, Note_off_c, 7, 79, 127
1, 194765, Note_on_c, 2, 74, 127
1, 194877, Note_off_c, 2, 74, 127
1, 194878, Note_on_c, 4, 76, 127
1, 194990, Note_off_c, 4, 76, 127
1, 194991, Note_on_c, 6, 78, 127
1, 195103, Note_off_c, 6, 78, 127
1, 195104, Note_on_c, 7, 79, 127
1, 195216, Note_off_c, 7, 79, 127
1, 195217, Note_on_c, 2, 74, 127
1, 195329, Note_off_c, 2, 74, 127
1, 195329, Note_off_c, 7, 43, 127
1, 195329, Note_off_c, 2, 50, 127
1, 195329, Note_off_c, 7, 55, 127
1, 195330, Note_on_c, 4, 76, 127
1, 195442, Note_off_c, 4, 76, 127
1, 195443, Note_on_c, 6, 78, 127
1, 195555, Note_off_c, 6, 78, 127
1, 195556, Note_on_c, 7, 79, 127
1, 195556, Note_on_c, 7, 55, 127
1, 195556, Note_on_c, 12, 47, 127
1, 195556, Note_on_c, 2, 50, 127
1, 195556, Note_on_c, 7, 43, 127
1, 195668, Note_off_c, 7, 79, 127
1, 195669, Note_on_c, 2, 74, 127
1, 195781, Note_off_c, 2, 74, 127
1, 195782, Note_on_c, 4, 76, 127
1, 195894, Note_off_c, 4, 76, 127
1, 195895, Note_on_c, 6, 78, 127
1, 196007, Note_off_c, 6, 78, 127
1, 196008, Note_on_c, 7, 79, 127
1, 196120, Note_off_c, 7, 79, 127
1, 196121, Note_on_c, 2, 74, 127
1, 196233, Note_off_c, 2, 74, 127
1, 196233, Note_off_c, 7, 43, 127
1, 196233, Note_off_c, 2, 50, 127
1, 196233, Note_off_c, 12, 47, 127
1, 196233, Note_off_c, 7, 55, 127
1, 196234, Note_on_c, 4, 76, 127
1, 196346, Note_off_c, 4, 76, 127
1, 196347, Note_on_c, 6, 78, 127
1, 196459, Note_off_c, 6, 78, 127
1, 196460, Note_on_c, 7, 79, 127
1, 196460, Note_on_c, 12, 71, 127
1, 196460, Note_on_c, 7, 67, 127
1, 196660, Note_off_c, 7, 67, 127
1, 196660, Note_off_c, 12, 71, 127
1, 196685, Note_off_c, 7, 79, 127
1, 196686, Note_on_c, 7, 79, 127
1, 196686, Note_on_c, 10, 69, 127
1, 196686, Note_on_c, 6, 66, 127
1, 196886, Note_off_c, 6, 66, 127
1, 196886, Note_off_c, 10, 69, 127
1, 196911, Note_off_c, 7, 79, 127
1, 196912, Note_on_c, 7, 79, 127
1, 196912, Note_on_c, 4, 64, 127
1, 196912, Note_on_c, 7, 67, 127
1, 197112, Note_off_c, 7, 67, 127
1, 197112, Note_off_c, 4, 64, 127
1, 197137, Note_off_c, 7, 79, 127
1, 197138, Note_on_c, 7, 79, 127
1, 197138, Note_on_c, 2, 62, 127
1, 197138, Note_on_c, 6, 66, 127
1, 197338, Note_off_c, 6, 66, 127
1, 197338, Note_off_c, 2, 62, 127
1, 197363, Note_off_c, 7, 79, 127
1, 197364, Note_on_c, 7, 79, 127
1, 197364, Note_on_c, 0, 60, 127
1, 197364, Note_on_c, 4, 64, 127
1, 197564, Note_off_c, 4, 64, 127
1, 197564, Note_off_c, 0, 60, 127
1, 197589, Note_off_c, 7, 79, 127
1, 197590, Note_on_c, 7, 79, 127
1, 197590, Note_on_c, 12, 59, 127
1, 197590, Note_on_c, 2, 62, 127
1, 197790, Note_off_c, 2, 62, 127
1, 197790, Note_off_c, 12, 59, 127
1, 197815, Note_off_c, 7, 79, 127
1, 197816, Note_on_c, 10, 81, 127
1, 197816, Note_on_c, 0, 60, 127
1, 197816, Note_on_c, 10, 57, 127
1, 197871, Note_off_c, 10, 81, 127
1, 197872, Note_on_c, 7, 79, 127
1, 197927, Note_off_c, 7, 79, 127
1, 197928, Note_on_c, 10, 81, 127
1, 197983, Note_off_c, 10, 81, 127
1, 197984, Note_on_c, 7, 79, 127
1, 198015, Note_off_c, 10, 57, 127
1, 198015, Note_off_c, 0, 60, 127
1, 198040, Note_off_c, 7, 79, 127
1, 198041, Note_on_c, 10, 81, 127
1, 198041, Note_on_c, 12, 59, 127
1, 198041, Note_on_c, 7, 55, 127
1, 198096, Note_off_c, 10, 81, 127
1, 198097, Note_on_c, 7, 79, 127
1, 198152, Note_off_c, 7, 79, 127
1, 198153, Note_on_c, 6, 78, 127
1, 198208, Note_off_c, 6, 78, 127
1, 198209, Note_on_c, 7, 79, 127
1, 198240, Note_off_c, 7, 55, 127
1, 198240, Note_off_c, 12, 59, 127
1, 198265, Note_off_c, 7, 79, 127
1, 198266, Note_on_c, 10, 81, 127
1, 198266, Note_on_c, 2, 62, 127
1, 198266, Note_on_c, 6, 54, 127
1, 198266, Note_on_c, 10, 57, 127
1, 198266, Note_on_c, 2, 50, 127
1, 198378, Note_off_c, 10, 81, 127
1, 198379, Note_on_c, 2, 74, 127
1, 198491, Note_off_c, 2, 74, 127
1, 198492, Note_on_c, 6, 78, 127
1, 198604, Note_off_c, 6, 78, 127
1, 198605, Note_on_c, 7, 79, 127
1, 198717, Note_off_c, 7, 79, 127
1, 198718, Note_on_c, 10, 81, 127
1, 198830, Note_off_c, 10, 81, 127
1, 198831, Note_on_c, 2, 74, 127
1, 198943, Note_off_c, 2, 74, 127
1, 198944, Note_on_c, 6, 78, 127
1, 199055, Note_off_c, 2, 50, 127
1, 199055, Note_off_c, 10, 57, 127
1, 199055, Note_off_c, 6, 54, 127
1, 199055, Note_off_c, 2, 62, 127
1, 199056, Note_off_c, 6, 78, 127
1, 199057, Note_on_c, 7, 79, 127
1, 199169, Note_off_c, 7, 79, 127
1, 199170, Note_on_c, 10, 81, 127
1, 199170, Note_on_c, 10, 57, 127
1, 199170, Note_on_c, 2, 62, 127
1, 199170, Note_on_c, 2, 50, 127
1, 199170, Note_on_c, 6, 54, 127
1, 199282, Note_off_c, 10, 81, 127
1, 199283, Note_on_c, 2, 74, 127
1, 199395, Note_off_c, 2, 74, 127
1, 199396, Note_on_c, 6, 78, 127
1, 199508, Note_off_c, 6, 78, 127
1, 199509, Note_on_c, 7, 79, 127
1, 199621, Note_off_c, 7, 79, 127
1, 199622, Note_on_c, 10, 81, 127
1, 199734, Note_off_c, 10, 81, 127
1, 199735, Note_on_c, 2, 74, 127
1, 199847, Note_off_c, 2, 74, 127
1, 199848, Note_on_c, 6, 78, 127
1, 199959, Note_off_c, 6, 54, 127
1, 199959, Note_off_c, 2, 50, 127
1, 199959, Note_off_c, 2, 62, 127
1, 199959, Note_off_c, 10, 57, 127
1, 199960, Note_off_c, 6, 78, 127
1, 199961, Note_on_c, 7, 79, 127
1, 200073, Note_off_c, 7, 79, 127
1, 200074, Note_on_c, 10, 81, 127
1, 200074, Note_on_c, 2, 74, 127
1, 200074, Note_on_c, 6, 78, 127
1, 200274, Note_off_c, 6, 78, 127
1, 200274, Note_off_c, 2, 74, 127
1, 200299, Note_off_c, 10, 81, 127
1, 200300, Note_on_c, 10, 81, 127
1, 200300, Note_on_c, 0, 72, 127
1, 200300, Note_on_c, 4, 76, 127
1, 200500, Note_off_c, 4, 76, 127
1, 200500, Note_off_c, 0, 72, 127
1, 200525, Note_off_c, 10, 81, 127
1, 200526, Note_on_c, 10, 81, 127
1, 200526, Note_on_c, 12, 71, 127
1, 200526, Note_on_c, 2, 74, 127
1, 200726, Note_off_c, 2, 74, 127
1, 200726, Note_off_c, 12, 71, 127
1, 200751, Note_off_c, 10, 81, 127
1, 200752, Note_on_c, 10, 81, 127
1, 200752, Note_on_c, 0, 72, 127
1, 200752, Note_on_c, 10, 69, 127
1, 200952, Note_off_c, 10, 69, 127
1, 200952, Note_off_c, 0, 72, 127
1, 200977, Note_off_c, 10, 81, 127
1, 200978, Note_on_c, 10, 81, 127
1, 200978, Note_on_c, 12, 71, 127
1, 200978, Note_on_c, 7, 67, 127
1, 201178, Note_off_c, 7, 67, 127
1, 201178, Note_off_c, 12, 71, 127
1, 201203, Note_off_c, 10, 81, 127
1, 201204, Note_on_c, 10, 81, 127
1, 201204, Note_on_c, 6, 66, 127
1, 201204, Note_on_c, 10, 69, 127
1, 201404, Note_off_c, 10, 69, 127
1, 201404, Note_off_c, 6, 66, 127
1, 201429, Note_off_c, 10, 81, 127
1, 201430, Note_on_c, 12, 83, 127
1, 201430, Note_on_c, 4, 64, 127
1, 201430, Note_on_c, 7, 67, 127
1, 201485, Note_off_c, 12, 83, 127
1, 201486, Note_on_c, 10, 81, 127
1, 201541, Note_off_c, 10, 81, 127
1, 201542, Note_on_c, 12, 83, 127
1, 201597, Note_off_c, 12, 83, 127
1, 201598, Note_on_c, 10, 81, 127
1, 201629, Note_off_c, 7, 67, 127
1, 201629, Note_off_c, 4, 64, 127
1, 201654, Note_off_c, 10, 81, 127
1, 201655, Note_on_c, 12, 83, 127
1, 201655, Note_on_c, 2, 62, 127
1, 201655, Note_on_c, 6, 66, 127
1, 201710, Note_off_c, 12, 83, 127
1, 201711, Note_on_c, 10, 81, 127
1, 201766, Note_off_c, 10, 81, 127
1, 201767, Note_on_c, 7, 79, 127
1, 201822, Note_off_c, 7, 79, 127
1, 201823, Note_on_c, 10, 81, 127
1, 201854, Note_off_c, 6, 66, 127
1, 201854, Note_off_c, 2, 62, 127
1, 201879, Note_off_c, 10, 81, 127
1, 201880, Note_on_c, 12, 83, 127
1, 201880, Note_on_c, 7, 67, 127
1, 201880, Note_on_c, 12, 59, 127
1, 201880, Note_on_c, 2, 62, 127
1, 201880, Note_on_c, 7, 55, 127
1, 201992, Note_off_c, 12, 83, 127
1, 201993, Note_on_c, 2, 74, 127
1, 202105, Note_off_c, 2, 74, 127
1, 202106, Note_on_c, 7, 79, 127
1, 202218, Note_off_c, 7, 79, 127
1, 202219, Note_on_c, 10, 81, 127
1, 202331, Note_off_c, 10, 81, 127
1, 202332, Note_on_c, 12, 83, 127
1, 202444, Note_off_c, 12, 83, 127
1, 202445, Note_on_c, 2, 74, 127
1, 202557, Note_off_c, 2, 74, 127
1, 202558, Note_on_c, 7, 79, 127
1, 202669, Note_off_c, 7, 55, 127
1, 202669, Note_off_c, 2, 62, 127
1, 202669, Note_off_c, 12, 59, 127
1, 202669, Note_off_c, 7, 67, 127
1, 202670, Note_off_c, 7, 79, 127
1, 202671, Note_on_c, 10, 81, 127
1, 202783, Note_off_c, 10, 81, 127
1, 202784, Note_on_c, 12, 83, 127
1, 202784, Note_on_c, 12, 59, 127
1, 202784, Note_on_c, 2, 62, 127
1, 202784, Note_on_c, 7, 67, 127
1, 202784, Note_on_c, 7, 55, 127
1, 202896, Note_off_c, 12, 83, 127
1, 202897, Note_on_c, 2, 74, 127
1, 203009, Note_off_c, 2, 74, 127
1, 203010, Note_on_c, 7, 79, 127
1, 203122, Note_off_c, 7, 79, 127
1, 203123, Note_on_c, 10, 81, 127
1, 203235, Note_off_c, 10, 81, 127
1, 203236, Note_on_c, 12, 83, 127
1, 203348, Note_off_c, 12, 83, 127
1, 203349, Note_on_c, 2, 74, 127
1, 203461, Note_off_c, 2, 74, 127
1, 203462, Note_on_c, 7, 79, 127
1, 203573, Note_off_c, 7, 55, 127
1, 203573, Note_off_c, 7, 67, 127
1, 203573, Note_off_c, 2, 62, 127
1, 203573, Note_off_c, 12, 59, 127
1, 203574, Note_off_c, 7, 79, 127
1, 203575, Note_on_c, 10, 81, 127
1, 203687, Note_off_c, 10, 81, 127
1, 203688, Note_on_c, 2, 74, 127
1, 203688, Note_on_c, 12, 83, 127
1, 203688, Note_on_c, 7, 55, 127
1, 203800, Note_off_c, 7, 55, 127
1, 203801, Note_on_c, 2, 50, 127
1, 203888, Note_off_c, 12, 83, 127
1, 203888, Note_off_c, 2, 74, 127
1, 203913, Note_off_c, 2, 50, 127
1, 203914, Note_on_c, 0, 72, 127
1, 203914, Note_on_c, 10, 81, 127
1, 203914, Note_on_c, 4, 52, 127
1, 204026, Note_off_c, 4, 52, 127
1, 204027, Note_on_c, 6, 54, 127
1, 204114, Note_off_c, 10, 81, 127
1, 204114, Note_off_c, 0, 72, 127
1, 204139, Note_off_c, 6, 54, 127
1, 204140, Note_on_c, 7, 79, 127
1, 204140, Note_on_c, 12, 71, 127
1, 204140, Note_on_c, 7, 55, 127
1, 204252, Note_off_c, 7, 55, 127
1, 204253, Note_on_c, 2, 50, 127
1, 204340, Note_off_c, 12, 71, 127
1, 204340, Note_off_c, 7, 79, 127
1, 204365, Note_off_c, 2, 50, 127
1, 204366, Note_on_c, 10, 69, 127
1, 204366, Note_on_c, 6, 78, 127
1, 204366, Note_on_c, 4, 52, 127
1, 204478, Note_off_c, 4, 52, 127
1, 204479, Note_on_c, 6, 54, 127
1, 204566, Note_off_c, 6, 78, 127
1, 204566, Note_off_c, 10, 69, 127
1, 204591, Note_off_c, 6, 54, 127
1, 204592, Note_on_c, 4, 76, 127
1, 204592, Note_on_c, 7, 67, 127
1, 204592, Note_on_c, 7, 55, 127
1, 204704, Note_off_c, 7, 55, 127
1, 204705, Note_on_c, 2, 50, 127
1, 204792, Note_off_c, 7, 67, 127
1, 204792, Note_off_c, 4, 76, 127
1, 204817, Note_off_c, 2, 50, 127
1, 204818, Note_on_c, 2, 74, 127
1, 204818, Note_on_c, 6, 66, 127
1, 204818, Note_on_c, 4, 52, 127
1, 204930, Note_off_c, 4, 52, 127
1, 204931, Note_on_c, 6, 54, 127
1, 205018, Note_off_c, 6, 66, 127
1, 205018, Note_off_c, 2, 74, 127
1, 205043, Note_off_c, 6, 54, 127
1, 205044, Note_on_c, 4, 64, 127
1, 205044, Note_on_c, 1, 73, 127
1, 205044, Note_on_c, 7, 55, 127
1, 205156, Note_off_c, 7, 55, 127
1, 205157, Note_on_c, 2, 50, 127
1, 205244, Note_off_c, 1, 73, 127
1, 205244, Note_off_c, 4, 64, 127
1, 205269, Note_off_c, 2, 50, 127
1, 205270, Note_on_c, 2, 62, 127
1, 205270, Note_on_c, 12, 71, 127
1, 205270, Note_on_c, 4, 52, 127
1, 205382, Note_off_c, 4, 52, 127
1, 205383, Note_on_c, 6, 54, 127
1, 205470, Note_off_c, 12, 71, 127
1, 205470, Note_off_c, 2, 62, 127
1, 205495, Note_off_c, 6, 54, 127
1, 205496, Note_on_c, 10, 69, 127
1, 205496, Note_on_c, 1, 61, 127
1, 205496, Note_on_c, 7, 55, 127
1, 205608, Note_off_c, 7, 55, 127
1, 205609, Note_on_c, 6, 54, 127
1, 205696, Note_off_c, 1, 61, 127
1, 205696, Note_off_c, 10, 69, 127
1, 205721, Note_off_c, 6, 54, 127
1, 205722, Note_on_c, 1, 73, 127
1, 205722, Note_on_c, 10, 69, 127
1, 205722, Note_on_c, 4, 64, 127
1, 205722, Note_on_c, 7, 55, 127
1, 205834, Note_off_c, 7, 55, 127
1, 205835, Note_on_c, 4, 52, 127
1, 205947, Note_off_c, 4, 52, 127
1, 205947, Note_off_c, 4, 64, 127
1, 205947, Note_off_c, 10, 69, 127
1, 205947, Note_off_c, 1, 73, 127
1, 205948, Note_on_c, 10, 69, 127
1, 205948, Note_on_c, 2, 74, 127
1, 205948, Note_on_c, 2, 62, 127
1, 205948, Note_on_c, 6, 54, 127
1, 206060, Note_off_c, 6, 54, 127
1, 206061, Note_on_c, 4, 52, 127
1, 206173, Note_off_c, 4, 52, 127
1, 206173, Note_off_c, 2, 62, 127
1, 206173, Note_off_c, 2, 74, 127
1, 206173, Note_off_c, 10, 69, 127
1, 206174, Note_on_c, 6, 66, 127
1, 206174, Note_on_c, 10, 69, 127
1, 206174, Note_on_c, 2, 62, 127
1, 206174, Note_on_c, 6, 54, 127
1, 206286, Note_off_c, 6, 54, 127
1, 206287, Note_on_c, 2, 50, 127
1, 206399, Note_off_c, 2, 50, 127
1, 206399, Note_off_c, 2, 62, 127
1, 206399, Note_off_c, 10, 69, 127
1, 206399, Note_off_c, 6, 66, 127
1, 206400, Note_on_c, 7, 67, 127
1, 206400, Note_on_c, 4, 64, 127
1, 206400, Note_on_c, 2, 62, 127
1, 206400, Note_on_c, 12, 59, 127
1, 206400, Note_on_c, 7, 55, 127
1, 206512, Note_off_c, 7, 55, 127
1, 206513, Note_on_c, 6, 54, 127
1, 206625, Note_off_c, 6, 54, 127
1, 206625, Note_off_c, 12, 59, 127
1, 206625, Note_off_c, 2, 62, 127
1, 206625, Note_off_c, 4, 64, 127
1, 206625, Note_off_c, 7, 67, 127
1, 206626, Note_on_c, 2, 62, 127
1, 206626, Note_on_c, 4, 64, 127
1, 206626, Note_on_c, 12, 59, 127
1, 206626, Note_on_c, 7, 55, 127
1, 206738, Note_off_c, 7, 55, 127
1, 206739, Note_on_c, 4, 52, 127
1, 206851, Note_off_c, 4, 52, 127
1, 206851, Note_off_c, 12, 59, 127
1, 206851, Note_off_c, 4, 64, 127
1, 206851, Note_off_c, 2, 62, 127
1, 206852, Note_on_c, 10, 69, 127
1, 206852, Note_on_c, 4, 64, 127
1, 206852, Note_on_c, 1, 61, 127
1, 206852, Note_on_c, 10, 57, 127
1, 206964, Note_off_c, 10, 57, 127
1, 206965, Note_on_c, 7, 55, 127
1, 207077, Note_off_c, 7, 55, 127
1, 207077, Note_off_c, 1, 61, 127
1, 207077, Note_off_c, 4, 64, 127
1, 207078, Note_on_c, 10, 57, 127
1, 207191, Note_on_c, 10, 45, 127
1, 207278, Note_off_c, 10, 57, 127
1, 207299, Note_off_c, 10, 69, 127
1, 207303, Note_off_c, 10, 45, 127
1, 207304, Note_on_c, 2, 62, 127
1, 207304, Note_on_c, 2, 50, 127
1, 207417, Note_on_c, 2, 74, 127
1, 207504, Note_off_c, 2, 50, 127
1, 207528, Note_off_c, 2, 62, 127
1, 207529, Note_off_c, 2, 74, 127
1, 207530, Note_on_c, 4, 76, 127
1, 207642, Note_off_c, 4, 76, 127
1, 207643, Note_on_c, 6, 78, 127
1, 207755, Note_off_c, 6, 78, 127
1, 207756, Note_on_c, 7, 79, 127
1, 207868, Note_off_c, 7, 79, 127
1, 207869, Note_on_c, 2, 74, 127
1, 207981, Note_off_c, 2, 74, 127
1, 207982, Note_on_c, 4, 76, 127
1, 208094, Note_off_c, 4, 76, 127
1, 208095, Note_on_c, 6, 78, 127
1, 208207, Note_off_c, 6, 78, 127
1, 208208, Note_on_c, 7, 79, 127
1, 208208, Note_on_c, 12, 59, 127
1, 208320, Note_off_c, 7, 79, 127
1, 208321, Note_on_c, 2, 74, 127
1, 208433, Note_off_c, 2, 74, 127
1, 208433, Note_off_c, 12, 59, 127
1, 208434, Note_on_c, 4, 76, 127
1, 208434, Note_on_c, 10, 57, 127
1, 208546, Note_off_c, 4, 76, 127
1, 208547, Note_on_c, 6, 78, 127
1, 208659, Note_off_c, 6, 78, 127
1, 208659, Note_off_c, 10, 57, 127
1, 208660, Note_on_c, 7, 79, 127
1, 208660, Note_on_c, 12, 59, 127
1, 208772, Note_off_c, 7, 79, 127
1, 208773, Note_on_c, 2, 74, 127
1, 208885, Note_off_c, 2, 74, 127
1, 208885, Note_off_c, 12, 59, 127
1, 208886, Note_on_c, 4, 76, 127
1, 208886, Note_on_c, 7, 55, 127
1, 208998, Note_off_c, 4, 76, 127
1, 208999, Note_on_c, 5, 77, 127
1, 209111, Note_off_c, 5, 77, 127
1, 209111, Note_off_c, 7, 55, 127
1, 209112, Note_on_c, 4, 76, 127
1, 209112, Note_on_c, 0, 60, 127
1, 209224, Note_off_c, 4, 76, 127
1, 209225, Note_on_c, 2, 74, 127
1, 209337, Note_off_c, 2, 74, 127
1, 209337, Note_off_c, 0, 60, 127
1, 209338, Note_on_c, 0, 72, 127
1, 209338, Note_on_c, 0, 48, 127
1, 209450, Note_off_c, 0, 72, 127
1, 209451, Note_on_c, 2, 74, 127
1, 209563, Note_off_c, 2, 74, 127
1, 209564, Note_on_c, 4, 76, 127
1, 209676, Note_off_c, 4, 76, 127
1, 209677, Note_on_c, 2, 74, 127
1, 209785, Note_off_c, 0, 48, 127
1, 209789, Note_off_c, 2, 74, 127
1, 209790, Note_on_c, 0, 72, 127
1, 209902, Note_off_c, 0, 72, 127
1, 209903, Note_on_c, 2, 74, 127
1, 210015, Note_off_c, 2, 74, 127
1, 210016, Note_on_c, 4, 76, 127
1, 210016, Note_on_c, 0, 60, 127
1, 210128, Note_off_c, 4, 76, 127
1, 210129, Note_on_c, 2, 74, 127
1, 210241, Note_off_c, 2, 74, 127
1, 210241, Note_off_c, 0, 60, 127
1, 210242, Note_on_c, 0, 72, 127
1, 210242, Note_on_c, 12, 59, 127
1, 210354, Note_off_c, 0, 72, 127
1, 210355, Note_on_c, 2, 74, 127
1, 210467, Note_off_c, 2, 74, 127
1, 210467, Note_off_c, 12, 59, 127
1, 210468, Note_on_c, 4, 76, 127
1, 210468, Note_on_c, 0, 60, 127
1, 210580, Note_off_c, 4, 76, 127
1, 210581, Note_on_c, 6, 78, 127
1, 210693, Note_off_c, 6, 78, 127
1, 210693, Note_off_c, 0, 60, 127
1, 210694, Note_on_c, 7, 79, 127
1, 210694, Note_on_c, 10, 57, 127
1, 210806, Note_off_c, 7, 79, 127
1, 210807, Note_on_c, 10, 81, 127
1, 210919, Note_off_c, 10, 81, 127
1, 210919, Note_off_c, 10, 57, 127
1, 210920, Note_on_c, 6, 78, 127
1, 210920, Note_on_c, 2, 62, 127
1, 211032, Note_off_c, 6, 78, 127
1, 211033, Note_on_c, 4, 76, 127
1, 211145, Note_off_c, 4, 76, 127
1, 211145, Note_off_c, 2, 62, 127
1, 211146, Note_on_c, 2, 74, 127
1, 211146, Note_on_c, 2, 50, 127
1, 211258, Note_off_c, 2, 74, 127
1, 211259, Note_on_c, 4, 76, 127
1, 211371, Note_off_c, 4, 76, 127
1, 211372, Note_on_c, 6, 78, 127
1, 211484, Note_off_c, 6, 78, 127
1, 211485, Note_on_c, 4, 76, 127
1, 211593, Note_off_c, 2, 50, 127
1, 211597, Note_off_c, 4, 76, 127
1, 211598, Note_on_c, 2, 74, 127
1, 211710, Note_off_c, 2, 74, 127
1, 211711, Note_on_c, 4, 76, 127
1, 211823, Note_off_c, 4, 76, 127
1, 211824, Note_on_c, 6, 78, 127
1, 211824, Note_on_c, 2, 62, 127
1, 211936, Note_off_c, 6, 78, 127
1, 211937, Note_on_c, 4, 76, 127
1, 212049, Note_off_c, 4, 76, 127
1, 212049, Note_off_c, 2, 62, 127
1, 212050, Note_on_c, 2, 74, 127
1, 212050, Note_on_c, 0, 60, 127
1, 212162, Note_off_c, 2, 74, 127
1, 212163, Note_on_c, 4, 76, 127
1, 212275, Note_off_c, 4, 76, 127
1, 212275, Note_off_c, 0, 60, 127
1, 212276, Note_on_c, 6, 78, 127
1, 212276, Note_on_c, 2, 62, 127
1, 212388, Note_off_c, 6, 78, 127
1, 212389, Note_on_c, 7, 79, 127
1, 212501, Note_off_c, 7, 79, 127
1, 212501, Note_off_c, 2, 62, 127
1, 212502, Note_on_c, 10, 81, 127
1, 212502, Note_on_c, 12, 59, 127
1, 212614, Note_off_c, 10, 81, 127
1, 212615, Note_on_c, 12, 83, 127
1, 212727, Note_off_c, 12, 83, 127
1, 212727, Note_off_c, 12, 59, 127
1, 212728, Note_on_c, 7, 79, 127
1, 212728, Note_on_c, 4, 64, 127
1, 212840, Note_off_c, 7, 79, 127
1, 212841, Note_on_c, 6, 78, 127
1, 212953, Note_off_c, 6, 78, 127
1, 212953, Note_off_c, 4, 64, 127
1, 212954, Note_on_c, 4, 76, 127
1, 212954, Note_on_c, 4, 52, 127
1, 213066, Note_off_c, 4, 76, 127
1, 213067, Note_on_c, 6, 78, 127
1, 213179, Note_off_c, 6, 78, 127
1, 213180, Note_on_c, 7, 79, 127
1, 213292, Note_off_c, 7, 79, 127
1, 213293, Note_on_c, 6, 78, 127
1, 213401, Note_off_c, 4, 52, 127
1, 213405, Note_off_c, 6, 78, 127
1, 213406, Note_on_c, 4, 76, 127
1, 213518, Note_off_c, 4, 76, 127
1, 213519, Note_on_c, 6, 78, 127
1, 213631, Note_off_c, 6, 78, 127
1, 213632, Note_on_c, 7, 79, 127
1, 213632, Note_on_c, 4, 64, 127
1, 213744, Note_off_c, 7, 79, 127
1, 213745, Note_on_c, 6, 78, 127
1, 213857, Note_off_c, 6, 78, 127
1, 213857, Note_off_c, 4, 64, 127
1, 213858, Note_on_c, 4, 76, 127
1, 213858, Note_on_c, 2, 62, 127
1, 213970, Note_off_c, 4, 76, 127
1, 213971, Note_on_c, 6, 78, 127
1, 214083, Note_off_c, 6, 78, 127
1, 214083, Note_off_c, 2, 62, 127
1, 214084, Note_on_c, 7, 79, 127
1, 214084, Note_on_c, 4, 64, 127
1, 214196, Note_off_c, 7, 79, 127
1, 214197, Note_on_c, 12, 83, 127
1, 214309, Note_off_c, 12, 83, 127
1, 214309, Note_off_c, 4, 64, 127
1, 214310, Note_on_c, 10, 81, 127
1, 214310, Note_on_c, 0, 60, 127
1, 214422, Note_off_c, 10, 81, 127
1, 214423, Note_on_c, 7, 79, 127
1, 214535, Note_off_c, 7, 79, 127
1, 214535, Note_off_c, 0, 60, 127
1, 214536, Note_on_c, 6, 78, 127
1, 214536, Note_on_c, 2, 62, 127
1, 214648, Note_off_c, 6, 78, 127
1, 214649, Note_on_c, 10, 81, 127
1, 214761, Note_off_c, 10, 81, 127
1, 214762, Note_on_c, 6, 78, 127
1, 214762, Note_on_c, 2, 50, 127
1, 214874, Note_off_c, 6, 78, 127
1, 214875, Note_on_c, 10, 81, 127
1, 214987, Note_off_c, 10, 81, 127
1, 214988, Note_on_c, 2, 74, 127
1, 215100, Note_off_c, 2, 74, 127
1, 215101, Note_on_c, 10, 81, 127
1, 215213, Note_off_c, 10, 81, 127
1, 215214, Note_on_c, 2, 74, 127
1, 215326, Note_off_c, 2, 74, 127
1, 215327, Note_on_c, 10, 81, 127
1, 215439, Note_off_c, 10, 81, 127
1, 215439, Note_off_c, 2, 50, 127
1, 215439, Note_off_c, 2, 62, 127
1, 215440, Note_on_c, 7, 79, 127
1, 215440, Note_on_c, 2, 62, 127
1, 215440, Note_on_c, 12, 59, 127
1, 215440, Note_on_c, 7, 55, 127
1, 215440, Note_on_c, 2, 50, 127
1, 215552, Note_off_c, 7, 79, 127
1, 215553, Note_on_c, 12, 83, 127
1, 215665, Note_off_c, 12, 83, 127
1, 215666, Note_on_c, 7, 79, 127
1, 215778, Note_off_c, 7, 79, 127
1, 215779, Note_on_c, 12, 83, 127
1, 215891, Note_off_c, 12, 83, 127
1, 215892, Note_on_c, 2, 74, 127
1, 216004, Note_off_c, 2, 74, 127
1, 216005, Note_on_c, 12, 83, 127
1, 216117, Note_off_c, 12, 83, 127
1, 216118, Note_on_c, 2, 74, 127
1, 216229, Note_off_c, 2, 50, 127
1, 216229, Note_off_c, 7, 55, 127
1, 216229, Note_off_c, 12, 59, 127
1, 216229, Note_off_c, 2, 62, 127
1, 216230, Note_off_c, 2, 74, 127
1, 216231, Note_on_c, 12, 83, 127
1, 216343, Note_off_c, 12, 83, 127
1, 216344, Note_on_c, 6, 78, 127
1, 216344, Note_on_c, 2, 62, 127
1, 216344, Note_on_c, 10, 57, 127
1, 216344, Note_on_c, 6, 54, 127
1, 216344, Note_on_c, 2, 50, 127
1, 216399, Note_off_c, 6, 78, 127
1, 216400, Note_on_c, 7, 79, 127
1, 216455, Note_off_c, 7, 79, 127
1, 216456, Note_on_c, 10, 81, 127
1, 216568, Note_off_c, 10, 81, 127
1, 216569, Note_on_c, 6, 78, 127
1, 216681, Note_off_c, 6, 78, 127
1, 216682, Note_on_c, 10, 81, 127
1, 216794, Note_off_c, 10, 81, 127
1, 216795, Note_on_c, 2, 74, 127
1, 216907, Note_off_c, 2, 74, 127
1, 216908, Note_on_c, 10, 81, 127
1, 217020, Note_off_c, 10, 81, 127
1, 217021, Note_on_c, 2, 74, 127
1, 217132, Note_off_c, 2, 50, 127
1, 217132, Note_off_c, 6, 54, 127
1, 217132, Note_off_c, 10, 57, 127
1, 217132, Note_off_c, 2, 62, 127
1, 217133, Note_off_c, 2, 74, 127
1, 217134, Note_on_c, 10, 81, 127
1, 217246, Note_off_c, 10, 81, 127
1, 217247, Note_on_c, 7, 79, 127
1, 217247, Note_on_c, 7, 55, 127
1, 217247, Note_on_c, 12, 59, 127
1, 217247, Note_on_c, 2, 62, 127
1, 217247, Note_on_c, 2, 50, 127
1, 217302, Note_off_c, 7, 79, 127
1, 217303, Note_on_c, 10, 81, 127
1, 217358, Note_off_c, 10, 81, 127
1, 217359, Note_on_c, 12, 83, 127
1, 217471, Note_off_c, 12, 83, 127
1, 217472, Note_on_c, 7, 79, 127
1, 217584, Note_off_c, 7, 79, 127
1, 217585, Note_on_c, 12, 83, 127
1, 217697, Note_off_c, 12, 83, 127
1, 217698, Note_on_c, 2, 74, 127
1, 217810, Note_off_c, 2, 74, 127
1, 217811, Note_on_c, 12, 83, 127
1, 217923, Note_off_c, 12, 83, 127
1, 217924, Note_on_c, 2, 74, 127
1, 218035, Note_off_c, 2, 50, 127
1, 218035, Note_off_c, 2, 62, 127
1, 218035, Note_off_c, 12, 59, 127
1, 218035, Note_off_c, 7, 55, 127
1, 218036, Note_off_c, 2, 74, 127
1, 218037, Note_on_c, 12, 83, 127
1, 218149, Note_off_c, 12, 83, 127
1, 218150, Note_on_c, 6, 78, 127
1, 218150, Note_on_c, 2, 62, 127
1, 218150, Note_on_c, 6, 54, 127
1, 218150, Note_on_c, 10, 57, 127
1, 218150, Note_on_c, 2, 50, 127
1, 218205, Note_off_c, 6, 78, 127
1, 218206, Note_on_c, 7, 79, 127
1, 218261, Note_off_c, 7, 79, 127
1, 218262, Note_on_c, 10, 81, 127
1, 218317, Note_off_c, 10, 81, 127
1, 218318, Note_on_c, 7, 79, 127
1, 218373, Note_off_c, 7, 79, 127
1, 218374, Note_on_c, 6, 78, 127
1, 218429, Note_off_c, 6, 78, 127
1, 218430, Note_on_c, 7, 79, 127
1, 218485, Note_off_c, 7, 79, 127
1, 218486, Note_on_c, 10, 81, 127
1, 218598, Note_off_c, 10, 81, 127
1, 218599, Note_on_c, 2, 74, 127
1, 218711, Note_off_c, 2, 74, 127
1, 218712, Note_on_c, 10, 81, 127
1, 218824, Note_off_c, 10, 81, 127
1, 218825, Note_on_c, 2, 74, 127
1, 218936, Note_off_c, 2, 50, 127
1, 218936, Note_off_c, 10, 57, 127
1, 218936, Note_off_c, 6, 54, 127
1, 218936, Note_off_c, 2, 62, 127
1, 218937, Note_off_c, 2, 74, 127
1, 218938, Note_on_c, 10, 81, 127
1, 219050, Note_off_c, 10, 81, 127
1, 219051, Note_on_c, 7, 79, 127
1, 219051, Note_on_c, 2, 62, 127
1, 219051, Note_on_c, 7, 55, 127
1, 219051, Note_on_c, 12, 59, 127
1, 219051, Note_on_c, 2, 50, 127
1, 219106, Note_off_c, 7, 79, 127
1, 219107, Note_on_c, 10, 81, 127
1, 219162, Note_off_c, 10, 81, 127
1, 219163, Note_on_c, 12, 83, 127
1, 219218, Note_off_c, 12, 83, 127
1, 219219, Note_on_c, 10, 81, 127
1, 219274, Note_off_c, 10, 81, 127
1, 219275, Note_on_c, 7, 79, 127
1, 219330, Note_off_c, 7, 79, 127
1, 219331, Note_on_c, 10, 81, 127
1, 219386, Note_off_c, 10, 81, 127
1, 219387, Note_on_c, 12, 83, 127
1, 219499, Note_off_c, 12, 83, 127
1, 219500, Note_on_c, 2, 74, 127
1, 219612, Note_off_c, 2, 74, 127
1, 219613, Note_on_c, 12, 83, 127
1, 219725, Note_off_c, 12, 83, 127
1, 219726, Note_on_c, 2, 74, 127
1, 219837, Note_off_c, 2, 50, 127
1, 219837, Note_off_c, 12, 59, 127
1, 219837, Note_off_c, 7, 55, 127
1, 219837, Note_off_c, 2, 62, 127
1, 219838, Note_off_c, 2, 74, 127
1, 219839, Note_on_c, 12, 83, 127
1, 219951, Note_off_c, 12, 83, 127
1, 219952, Note_on_c, 6, 78, 127
1, 219952, Note_on_c, 2, 62, 127
1, 219952, Note_on_c, 2, 50, 127
1, 219952, Note_on_c, 10, 57, 127
1, 220177, Note_off_c, 6, 78, 127
1, 220178, Note_on_c, 2, 74, 127
1, 220403, Note_off_c, 10, 57, 127
1, 220403, Note_off_c, 2, 50, 127
1, 220403, Note_off_c, 2, 62, 127
1, 220404, Note_on_c, 2, 62, 127
1, 220459, Note_off_c, 2, 62, 127
1, 220460, Note_on_c, 0, 60, 127
1, 220515, Note_off_c, 0, 60, 127
1, 220516, Note_on_c, 2, 62, 127
1, 220628, Note_off_c, 2, 74, 127
1, 220629, Note_on_c, 6, 78, 127
1, 220684, Note_off_c, 6, 78, 127
1, 220685, Note_on_c, 4, 76, 127
1, 220740, Note_off_c, 4, 76, 127
1, 220741, Note_on_c, 6, 78, 127
1, 220853, Note_off_c, 6, 78, 127
1, 220853, Note_off_c, 2, 62, 127
1, 220854, Note_on_c, 7, 79, 127
1, 220854, Note_on_c, 12, 59, 127
1, 220854, Note_on_c, 7, 55, 127
1, 220854, Note_on_c, 4, 52, 127
1, 221079, Note_off_c, 7, 79, 127
1, 221080, Note_on_c, 4, 76, 127
1, 221305, Note_off_c, 4, 52, 127
1, 221305, Note_off_c, 7, 55, 127
1, 221305, Note_off_c, 12, 59, 127
1, 221306, Note_on_c, 4, 64, 127
1, 221361, Note_off_c, 4, 64, 127
1, 221362, Note_on_c, 2, 62, 127
1, 221417, Note_off_c, 2, 62, 127
1, 221418, Note_on_c, 4, 64, 127
1, 221530, Note_off_c, 4, 76, 127
1, 221531, Note_on_c, 7, 79, 127
1, 221586, Note_off_c, 7, 79, 127
1, 221587, Note_on_c, 6, 78, 127
1, 221642, Note_off_c, 6, 78, 127
1, 221643, Note_on_c, 7, 79, 127
1, 221755, Note_off_c, 7, 79, 127
1, 221755, Note_off_c, 4, 64, 127
1, 221756, Note_on_c, 10, 81, 127
1, 221756, Note_on_c, 6, 54, 127
1, 221756, Note_on_c, 10, 57, 127
1, 221756, Note_on_c, 2, 62, 127
1, 221981, Note_off_c, 10, 81, 127
1, 221982, Note_on_c, 6, 78, 127
1, 222207, Note_off_c, 2, 62, 127
1, 222207, Note_off_c, 10, 57, 127
1, 222207, Note_off_c, 6, 54, 127
1, 222208, Note_on_c, 6, 66, 127
1, 222263, Note_off_c, 6, 66, 127
1, 222264, Note_on_c, 4, 64, 127
1, 222319, Note_off_c, 4, 64, 127
1, 222320, Note_on_c, 6, 66, 127
1, 222432, Note_off_c, 6, 78, 127
1, 222433, Note_on_c, 10, 81, 127
1, 222488, Note_off_c, 10, 81, 127
1, 222489, Note_on_c, 7, 79, 127
1, 222543, Note_off_c, 6, 66, 127
1, 222544, Note_off_c, 7, 79, 127
1, 222545, Note_on_c, 10, 81, 127
1, 222657, Note_off_c, 10, 81, 127
1, 222658, Note_on_c, 12, 83, 127
1, 222658, Note_on_c, 12, 59, 127
1, 222658, Note_on_c, 2, 62, 127
1, 222658, Note_on_c, 7, 55, 127
1, 222883, Note_off_c, 12, 83, 127
1, 222884, Note_on_c, 7, 79, 127
1, 223109, Note_off_c, 7, 55, 127
1, 223109, Note_off_c, 2, 62, 127
1, 223109, Note_off_c, 12, 59, 127
1, 223110, Note_on_c, 7, 67, 127
1, 223165, Note_off_c, 7, 67, 127
1, 223166, Note_on_c, 6, 66, 127
1, 223221, Note_off_c, 6, 66, 127
1, 223222, Note_on_c, 7, 67, 127
1, 223334, Note_off_c, 7, 79, 127
1, 223335, Note_on_c, 12, 83, 127
1, 223390, Note_off_c, 12, 83, 127
1, 223391, Note_on_c, 10, 81, 127
1, 223446, Note_off_c, 10, 81, 127
1, 223447, Note_on_c, 12, 83, 127
1, 223559, Note_off_c, 12, 83, 127
1, 223559, Note_off_c, 7, 67, 127
1, 223560, Note_on_c, 0, 84, 127
1, 223560, Note_on_c, 10, 57, 127
1, 223560, Note_on_c, 5, 65, 127
1, 223560, Note_on_c, 0, 60, 127
1, 223785, Note_off_c, 0, 60, 127
1, 223785, Note_off_c, 5, 65, 127
1, 223785, Note_off_c, 10, 57, 127
1, 223785, Note_off_c, 0, 84, 127
1, 223786, Note_on_c, 5, 77, 127
1, 223786, Note_on_c, 10, 81, 127
1, 223786, Note_on_c, 0, 72, 127
1, 223786, Note_on_c, 5, 65, 127
1, 224011, Note_off_c, 5, 65, 127
1, 224011, Note_off_c, 0, 72, 127
1, 224011, Note_off_c, 10, 81, 127
1, 224011, Note_off_c, 5, 77, 127
1, 224012, Note_on_c, 10, 81, 127
1, 224012, Note_on_c, 0, 72, 127
1, 224012, Note_on_c, 5, 77, 127
1, 224012, Note_on_c, 5, 65, 127
1, 224237, Note_off_c, 5, 65, 127
1, 224237, Note_off_c, 5, 77, 127
1, 224237, Note_off_c, 0, 72, 127
1, 224237, Note_off_c, 10, 81, 127
1, 224238, Note_on_c, 0, 72, 127
1, 224238, Note_on_c, 5, 77, 127
1, 224238, Note_on_c, 10, 69, 127
1, 224463, Note_off_c, 10, 69, 127
1, 224463, Note_off_c, 5, 77, 127
1, 224463, Note_off_c, 0, 72, 127
1, 224464, Note_on_c, 5, 77, 127
1, 224464, Note_on_c, 0, 72, 127
1, 224464, Note_on_c, 10, 57, 127
1, 224464, Note_on_c, 10, 69, 127
1, 224689, Note_off_c, 10, 69, 127
1, 224689, Note_off_c, 10, 57, 127
1, 224689, Note_off_c, 0, 72, 127
1, 224689, Note_off_c, 5, 77, 127
1, 224690, Note_on_c, 10, 81, 127
1, 224690, Note_on_c, 0, 72, 127
1, 224690, Note_on_c, 5, 77, 127
1, 224690, Note_on_c, 5, 65, 127
1, 224915, Note_off_c, 5, 65, 127
1, 224915, Note_off_c, 5, 77, 127
1, 224915, Note_off_c, 0, 72, 127
1, 224915, Note_off_c, 10, 81, 127
1, 224916, Note_on_c, 0, 72, 127
1, 224916, Note_on_c, 5, 77, 127
1, 224916, Note_on_c, 10, 81, 127
1, 224916, Note_on_c, 5, 65, 127
1, 225141, Note_off_c, 5, 65, 127
1, 225141, Note_off_c, 10, 81, 127
1, 225141, Note_off_c, 5, 77, 127
1, 225141, Note_off_c, 0, 72, 127
1, 225142, Note_on_c, 5, 77, 127
1, 225142, Note_on_c, 0, 84, 127
1, 225142, Note_on_c, 0, 72, 127
1, 225142, Note_on_c, 10, 57, 127
1, 225142, Note_on_c, 10, 69, 127
1, 225367, Note_off_c, 10, 69, 127
1, 225367, Note_off_c, 10, 57, 127
1, 225367, Note_off_c, 0, 72, 127
1, 225367, Note_off_c, 0, 84, 127
1, 225367, Note_off_c, 5, 77, 127
1, 225368, Note_on_c, 5, 77, 127
1, 225368, Note_on_c, 0, 84, 127
1, 225368, Note_on_c, 0, 72, 127
1, 225368, Note_on_c, 10, 57, 127
1, 225368, Note_on_c, 10, 69, 127
1, 225593, Note_off_c, 10, 69, 127
1, 225593, Note_off_c, 0, 72, 127
1, 225593, Note_off_c, 0, 84, 127
1, 225593, Note_off_c, 5, 77, 127
1, 225594, Note_on_c, 10, 81, 127
1, 225594, Note_on_c, 0, 72, 127
1, 225594, Note_on_c, 5, 77, 127
1, 225594, Note_on_c, 5, 65, 127
1, 225606, Note_off_c, 10, 57, 127
1, 225819, Note_off_c, 5, 65, 127
1, 225819, Note_off_c, 5, 77, 127
1, 225819, Note_off_c, 0, 72, 127
1, 225819, Note_off_c, 10, 81, 127
1, 225820, Note_on_c, 0, 72, 127
1, 225820, Note_on_c, 5, 77, 127
1, 225820, Note_on_c, 10, 81, 127
1, 225820, Note_on_c, 5, 65, 127
1, 226045, Note_off_c, 5, 65, 127
1, 226045, Note_off_c, 10, 81, 127
1, 226045, Note_off_c, 5, 77, 127
1, 226045, Note_off_c, 0, 72, 127
1, 226046, Note_on_c, 5, 77, 127
1, 226046, Note_on_c, 0, 72, 127
1, 226046, Note_on_c, 10, 69, 127
1, 226271, Note_off_c, 10, 69, 127
1, 226271, Note_off_c, 0, 72, 127
1, 226271, Note_off_c, 5, 77, 127
1, 226272, Note_on_c, 0, 72, 127
1, 226272, Note_on_c, 5, 77, 127
1, 226272, Note_on_c, 10, 69, 127
1, 226272, Note_on_c, 10, 57, 127
1, 226497, Note_off_c, 10, 69, 127
1, 226497, Note_off_c, 5, 77, 127
1, 226497, Note_off_c, 0, 72, 127
1, 226498, Note_on_c, 4, 76, 127
1, 226498, Note_on_c, 7, 67, 127
1, 226512, Note_off_c, 10, 57, 127
1, 226723, Note_off_c, 7, 67, 127
1, 226723, Note_off_c, 4, 76, 127
1, 226724, Note_on_c, 4, 76, 127
1, 226724, Note_on_c, 0, 72, 127
1, 226724, Note_on_c, 7, 67, 127
1, 226949, Note_off_c, 7, 67, 127
1, 226949, Note_off_c, 0, 72, 127
1, 226949, Note_off_c, 4, 76, 127
1, 226950, Note_on_c, 3, 75, 127
1, 226950, Note_on_c, 6, 66, 127
1, 227175, Note_off_c, 6, 66, 127
1, 227175, Note_off_c, 3, 75, 127
1, 227176, Note_on_c, 3, 75, 127
1, 227176, Note_on_c, 12, 71, 127
1, 227176, Note_on_c, 12, 59, 127
1, 227176, Note_on_c, 6, 66, 127
1, 227401, Note_off_c, 6, 66, 127
1, 227401, Note_off_c, 12, 59, 127
1, 227401, Note_off_c, 12, 71, 127
1, 227401, Note_off_c, 3, 75, 127
1, 227402, Note_on_c, 12, 71, 127
1, 227402, Note_on_c, 3, 63, 127
1, 227627, Note_off_c, 3, 63, 127
1, 227627, Note_off_c, 12, 71, 127
1, 227628, Note_on_c, 12, 71, 127
1, 227628, Note_on_c, 10, 57, 127
1, 227628, Note_on_c, 3, 63, 127
1, 227853, Note_off_c, 3, 63, 127
1, 227853, Note_off_c, 10, 57, 127
1, 227853, Note_off_c, 12, 71, 127
1, 227854, Note_on_c, 3, 75, 127
1, 227854, Note_on_c, 12, 71, 127
1, 227854, Note_on_c, 6, 66, 127
1, 228079, Note_off_c, 6, 66, 127
1, 228079, Note_off_c, 12, 71, 127
1, 228079, Note_off_c, 3, 75, 127
1, 228080, Note_on_c, 4, 76, 127
1, 228080, Note_on_c, 12, 71, 127
1, 228080, Note_on_c, 12, 59, 127
1, 228080, Note_on_c, 7, 55, 127
1, 228305, Note_off_c, 12, 71, 127
1, 228305, Note_off_c, 4, 76, 127
1, 228306, Note_on_c, 4, 64, 127
1, 228306, Note_on_c, 7, 67, 127
1, 228531, Note_off_c, 7, 67, 127
1, 228531, Note_off_c, 4, 64, 127
1, 228531, Note_off_c, 7, 55, 127
1, 228531, Note_off_c, 12, 59, 127
1, 228532, Note_on_c, 7, 67, 127
1, 228532, Note_on_c, 4, 64, 127
1, 228532, Note_on_c, 7, 55, 127
1, 228532, Note_on_c, 12, 59, 127
1, 228532, Note_on_c, 4, 52, 127
1, 228757, Note_off_c, 4, 64, 127
1, 228757, Note_off_c, 7, 67, 127
1, 228758, Note_on_c, 12, 71, 127
1, 228758, Note_on_c, 4, 76, 127
1, 228983, Note_off_c, 4, 76, 127
1, 228983, Note_off_c, 12, 71, 127
1, 228983, Note_off_c, 4, 52, 127
1, 228983, Note_off_c, 12, 59, 127
1, 228983, Note_off_c, 7, 55, 127
1, 228984, Note_on_c, 4, 76, 127
1, 228984, Note_on_c, 0, 72, 127
1, 228984, Note_on_c, 0, 60, 127
1, 228984, Note_on_c, 10, 57, 127
1, 229209, Note_off_c, 0, 72, 127
1, 229209, Note_off_c, 4, 76, 127
1, 229210, Note_on_c, 6, 66, 127
1, 229210, Note_on_c, 10, 69, 127
1, 229435, Note_off_c, 10, 69, 127
1, 229435, Note_off_c, 6, 66, 127
1, 229435, Note_off_c, 10, 57, 127
1, 229435, Note_off_c, 0, 60, 127
1, 229436, Note_on_c, 10, 69, 127
1, 229436, Note_on_c, 6, 66, 127
1, 229436, Note_on_c, 10, 57, 127
1, 229436, Note_on_c, 0, 60, 127
1, 229436, Note_on_c, 6, 54, 127
1, 229661, Note_off_c, 6, 66, 127
1, 229661, Note_off_c, 10, 69, 127
1, 229662, Note_on_c, 4, 76, 127
1, 229662, Note_on_c, 0, 72, 127
1, 229887, Note_off_c, 0, 72, 127
1, 229887, Note_off_c, 4, 76, 127
1, 229887, Note_off_c, 6, 54, 127
1, 229887, Note_off_c, 0, 60, 127
1, 229887, Note_off_c, 10, 57, 127
1, 229888, Note_on_c, 3, 75, 127
1, 229888, Note_on_c, 12, 71, 127
1, 229888, Note_on_c, 12, 59, 127
1, 230113, Note_off_c, 12, 71, 127
1, 230113, Note_off_c, 3, 75, 127
1, 230114, Note_on_c, 6, 66, 127
1, 230114, Note_on_c, 12, 71, 127
1, 230339, Note_off_c, 12, 71, 127
1, 230339, Note_off_c, 6, 66, 127
1, 230339, Note_off_c, 12, 59, 127
1, 230340, Note_on_c, 12, 71, 127
1, 230340, Note_on_c, 6, 66, 127
1, 230340, Note_on_c, 12, 47, 127
1, 230340, Note_on_c, 10, 57, 127
1, 230565, Note_off_c, 6, 66, 127
1, 230565, Note_off_c, 12, 71, 127
1, 230566, Note_on_c, 12, 71, 127
1, 230566, Note_on_c, 3, 75, 127
1, 230791, Note_off_c, 3, 75, 127
1, 230791, Note_off_c, 12, 71, 127
1, 230791, Note_off_c, 10, 57, 127
1, 230791, Note_off_c, 12, 47, 127
1, 230792, Note_on_c, 12, 71, 127
1, 230792, Note_on_c, 4, 76, 127
1, 230792, Note_on_c, 4, 52, 127
1, 230792, Note_on_c, 7, 55, 127
1, 230904, Note_off_c, 4, 76, 127
1, 230904, Note_off_c, 12, 71, 127
1, 230905, Note_on_c, 12, 83, 127
1, 231017, Note_off_c, 7, 55, 127
1, 231017, Note_off_c, 4, 52, 127
1, 231018, Note_on_c, 7, 79, 127
1, 231018, Note_on_c, 6, 54, 127
1, 231117, Note_off_c, 12, 83, 127
1, 231130, Note_off_c, 7, 79, 127
1, 231131, Note_on_c, 12, 83, 127
1, 231243, Note_off_c, 6, 54, 127
1, 231244, Note_on_c, 4, 76, 127
1, 231244, Note_on_c, 7, 55, 127
1, 231343, Note_off_c, 12, 83, 127
1, 231356, Note_off_c, 4, 76, 127
1, 231357, Note_on_c, 12, 83, 127
1, 231469, Note_off_c, 7, 55, 127
1, 231470, Note_on_c, 7, 79, 127
1, 231470, Note_on_c, 10, 57, 127
1, 231569, Note_off_c, 12, 83, 127
1, 231582, Note_off_c, 7, 79, 127
1, 231583, Note_on_c, 12, 83, 127
1, 231695, Note_off_c, 10, 57, 127
1, 231696, Note_on_c, 4, 76, 127
1, 231696, Note_on_c, 7, 55, 127
1, 231795, Note_off_c, 12, 83, 127
1, 231808, Note_off_c, 4, 76, 127
1, 231809, Note_on_c, 12, 83, 127
1, 231921, Note_off_c, 7, 55, 127
1, 231922, Note_on_c, 7, 79, 127
1, 231922, Note_on_c, 6, 54, 127
1, 232021, Note_off_c, 12, 83, 127
1, 232034, Note_off_c, 7, 79, 127
1, 232035, Note_on_c, 12, 83, 127
1, 232147, Note_off_c, 6, 54, 127
1, 232148, Note_on_c, 4, 76, 127
1, 232148, Note_on_c, 7, 55, 127
1, 232247, Note_off_c, 12, 83, 127
1, 232260, Note_off_c, 4, 76, 127
1, 232261, Note_on_c, 12, 83, 127
1, 232373, Note_off_c, 7, 55, 127
1, 232374, Note_on_c, 7, 79, 127
1, 232374, Note_on_c, 4, 52, 127
1, 232473, Note_off_c, 12, 83, 127
1, 232486, Note_off_c, 7, 79, 127
1, 232487, Note_on_c, 12, 83, 127
1, 232599, Note_off_c, 12, 83, 127
1, 232599, Note_off_c, 4, 52, 127
1, 232600, Note_on_c, 3, 75, 127
1, 232600, Note_on_c, 12, 47, 127
1, 232712, Note_off_c, 3, 75, 127
1, 232713, Note_on_c, 12, 83, 127
1, 232825, Note_off_c, 12, 47, 127
1, 232826, Note_on_c, 6, 78, 127
1, 232826, Note_on_c, 3, 51, 127
1, 232925, Note_off_c, 12, 83, 127
1, 232938, Note_off_c, 6, 78, 127
1, 232939, Note_on_c, 12, 83, 127
1, 233051, Note_off_c, 3, 51, 127
1, 233052, Note_on_c, 3, 75, 127
1, 233052, Note_on_c, 6, 54, 127
1, 233151, Note_off_c, 12, 83, 127
1, 233164, Note_off_c, 3, 75, 127
1, 233165, Note_on_c, 12, 83, 127
1, 233277, Note_off_c, 6, 54, 127
1, 233278, Note_on_c, 6, 78, 127
1, 233278, Note_on_c, 12, 59, 127
1, 233377, Note_off_c, 12, 83, 127
1, 233390, Note_off_c, 6, 78, 127
1, 233391, Note_on_c, 12, 83, 127
1, 233503, Note_off_c, 12, 59, 127
1, 233504, Note_on_c, 3, 75, 127
1, 233504, Note_on_c, 10, 57, 127
1, 233603, Note_off_c, 12, 83, 127
1, 233616, Note_off_c, 3, 75, 127
1, 233617, Note_on_c, 12, 83, 127
1, 233729, Note_off_c, 10, 57, 127
1, 233730, Note_on_c, 6, 78, 127
1, 233730, Note_on_c, 7, 55, 127
1, 233829, Note_off_c, 12, 83, 127
1, 233842, Note_off_c, 6, 78, 127
1, 233843, Note_on_c, 12, 83, 127
1, 233955, Note_off_c, 7, 55, 127
1, 233956, Note_on_c, 3, 75, 127
1, 233956, Note_on_c, 10, 57, 127
1, 234055, Note_off_c, 12, 83, 127
1, 234068, Note_off_c, 3, 75, 127
1, 234069, Note_on_c, 12, 83, 127
1, 234181, Note_off_c, 10, 57, 127
1, 234182, Note_on_c, 6, 78, 127
1, 234182, Note_on_c, 6, 54, 127
1, 234281, Note_off_c, 12, 83, 127
1, 234294, Note_off_c, 6, 78, 127
1, 234295, Note_on_c, 12, 83, 127
1, 234407, Note_off_c, 12, 83, 127
1, 234407, Note_off_c, 6, 54, 127
1, 234408, Note_on_c, 4, 76, 127
1, 234408, Note_on_c, 7, 55, 127
1, 234521, Note_on_c, 7, 79, 127
1, 234620, Note_off_c, 4, 76, 127
1, 234633, Note_off_c, 7, 79, 127
1, 234633, Note_off_c, 7, 55, 127
1, 234634, Note_on_c, 4, 76, 127
1, 234634, Note_on_c, 6, 54, 127
1, 234747, Note_on_c, 7, 79, 127
1, 234846, Note_off_c, 4, 76, 127
1, 234859, Note_off_c, 7, 79, 127
1, 234859, Note_off_c, 6, 54, 127
1, 234860, Note_on_c, 12, 71, 127
1, 234860, Note_on_c, 4, 52, 127
1, 234972, Note_off_c, 12, 71, 127
1, 234973, Note_on_c, 7, 79, 127
1, 235085, Note_off_c, 4, 52, 127
1, 235086, Note_on_c, 4, 76, 127
1, 235086, Note_on_c, 6, 54, 127
1, 235185, Note_off_c, 7, 79, 127
1, 235198, Note_off_c, 4, 76, 127
1, 235199, Note_on_c, 7, 79, 127
1, 235311, Note_off_c, 6, 54, 127
1, 235312, Note_on_c, 12, 71, 127
1, 235312, Note_on_c, 7, 55, 127
1, 235411, Note_off_c, 7, 79, 127
1, 235424, Note_off_c, 12, 71, 127
1, 235425, Note_on_c, 7, 79, 127
1, 235537, Note_off_c, 7, 55, 127
1, 235538, Note_on_c, 4, 76, 127
1, 235538, Note_on_c, 6, 54, 127
1, 235637, Note_off_c, 7, 79, 127
1, 235650, Note_off_c, 4, 76, 127
1, 235651, Note_on_c, 7, 79, 127
1, 235763, Note_off_c, 6, 54, 127
1, 235764, Note_on_c, 12, 71, 127
1, 235764, Note_on_c, 4, 52, 127
1, 235863, Note_off_c, 7, 79, 127
1, 235876, Note_off_c, 12, 71, 127
1, 235877, Note_on_c, 7, 79, 127
1, 235989, Note_off_c, 4, 52, 127
1, 235990, Note_on_c, 4, 76, 127
1, 235990, Note_on_c, 2, 50, 127
1, 236089, Note_off_c, 7, 79, 127
1, 236102, Note_off_c, 4, 76, 127
1, 236103, Note_on_c, 7, 79, 127
1, 236215, Note_off_c, 7, 79, 127
1, 236215, Note_off_c, 2, 50, 127
1, 236216, Note_on_c, 10, 69, 127
1, 236216, Note_on_c, 1, 49, 127
1, 236329, Note_on_c, 7, 79, 127
1, 236441, Note_off_c, 7, 79, 127
1, 236441, Note_off_c, 1, 49, 127
1, 236442, Note_on_c, 4, 76, 127
1, 236442, Note_on_c, 2, 50, 127
1, 236554, Note_off_c, 4, 76, 127
1, 236555, Note_on_c, 7, 79, 127
1, 236663, Note_off_c, 10, 69, 127
1, 236667, Note_off_c, 7, 79, 127
1, 236667, Note_off_c, 2, 50, 127
1, 236668, Note_on_c, 10, 69, 127
1, 236668, Note_on_c, 4, 52, 127
1, 236780, Note_off_c, 10, 69, 127
1, 236781, Note_on_c, 7, 79, 127
1, 236893, Note_off_c, 4, 52, 127
1, 236894, Note_on_c, 4, 76, 127
1, 236894, Note_on_c, 2, 50, 127
1, 236993, Note_off_c, 7, 79, 127
1, 237006, Note_off_c, 4, 76, 127
1, 237007, Note_on_c, 7, 79, 127
1, 237119, Note_off_c, 2, 50, 127
1, 237120, Note_on_c, 10, 69, 127
1, 237120, Note_on_c, 1, 49, 127
1, 237219, Note_off_c, 7, 79, 127
1, 237232, Note_off_c, 10, 69, 127
1, 237233, Note_on_c, 7, 79, 127
1, 237345, Note_off_c, 1, 49, 127
1, 237346, Note_on_c, 4, 76, 127
1, 237346, Note_on_c, 12, 47, 127
1, 237445, Note_off_c, 7, 79, 127
1, 237458, Note_off_c, 4, 76, 127
1, 237459, Note_on_c, 7, 79, 127
1, 237571, Note_off_c, 12, 47, 127
1, 237572, Note_on_c, 10, 69, 127
1, 237572, Note_on_c, 1, 49, 127
1, 237671, Note_off_c, 7, 79, 127
1, 237684, Note_off_c, 10, 69, 127
1, 237685, Note_on_c, 7, 79, 127
1, 237797, Note_off_c, 1, 49, 127
1, 237798, Note_on_c, 4, 76, 127
1, 237798, Note_on_c, 10, 45, 127
1, 237897, Note_off_c, 7, 79, 127
1, 237910, Note_off_c, 4, 76, 127
1, 237911, Note_on_c, 7, 79, 127
1, 238023, Note_off_c, 7, 79, 127
1, 238023, Note_off_c, 10, 45, 127
1, 238024, Note_on_c, 10, 69, 127
1, 238024, Note_on_c, 2, 50, 127
1, 238137, Note_on_c, 6, 78, 127
1, 238249, Note_off_c, 6, 78, 127
1, 238249, Note_off_c, 2, 50, 127
1, 238250, Note_on_c, 2, 74, 127
1, 238250, Note_on_c, 4, 52, 127
1, 238362, Note_off_c, 2, 74, 127
1, 238363, Note_on_c, 6, 78, 127
1, 238471, Note_off_c, 10, 69, 127
1, 238475, Note_off_c, 6, 78, 127
1, 238475, Note_off_c, 4, 52, 127
1, 238476, Note_on_c, 10, 69, 127
1, 238476, Note_on_c, 6, 54, 127
1, 238588, Note_off_c, 10, 69, 127
1, 238589, Note_on_c, 6, 78, 127
1, 238701, Note_off_c, 6, 54, 127
1, 238702, Note_on_c, 2, 74, 127
1, 238702, Note_on_c, 4, 52, 127
1, 238801, Note_off_c, 6, 78, 127
1, 238814, Note_off_c, 2, 74, 127
1, 238815, Note_on_c, 6, 78, 127
1, 238927, Note_off_c, 4, 52, 127
1, 238928, Note_on_c, 10, 69, 127
1, 238928, Note_on_c, 2, 50, 127
1, 239027, Note_off_c, 6, 78, 127
1, 239040, Note_off_c, 10, 69, 127
1, 239041, Note_on_c, 6, 78, 127
1, 239153, Note_off_c, 2, 50, 127
1, 239154, Note_on_c, 2, 74, 127
1, 239154, Note_on_c, 4, 52, 127
1, 239253, Note_off_c, 6, 78, 127
1, 239266, Note_off_c, 2, 74, 127
1, 239267, Note_on_c, 6, 78, 127
1, 239379, Note_off_c, 4, 52, 127
1, 239380, Note_on_c, 10, 69, 127
1, 239380, Note_on_c, 6, 54, 127
1, 239479, Note_off_c, 6, 78, 127
1, 239492, Note_off_c, 10, 69, 127
1, 239493, Note_on_c, 6, 78, 127
1, 239605, Note_off_c, 6, 54, 127
1, 239606, Note_on_c, 2, 74, 127
1, 239606, Note_on_c, 4, 52, 127
1, 239705, Note_off_c, 6, 78, 127
1, 239718, Note_off_c, 2, 74, 127
1, 239719, Note_on_c, 6, 78, 127
1, 239831, Note_off_c, 6, 78, 127
1, 239831, Note_off_c, 4, 52, 127
1, 239832, Note_on_c, 10, 69, 127
1, 239832, Note_on_c, 10, 57, 127
1, 239945, Note_on_c, 4, 76, 127
1, 240057, Note_off_c, 4, 76, 127
1, 240057, Note_off_c, 10, 57, 127
1, 240058, Note_on_c, 2, 74, 127
1, 240058, Note_on_c, 12, 59, 127
1, 240170, Note_off_c, 2, 74, 127
1, 240171, Note_on_c, 4, 76, 127
1, 240256, Note_off_c, 10, 69, 127
1, 240283, Note_off_c, 4, 76, 127
1, 240283, Note_off_c, 12, 59, 127
1, 240284, Note_on_c, 10, 69, 127
1, 240284, Note_on_c, 10, 57, 127
1, 240397, Note_on_c, 4, 76, 127
1, 240509, Note_off_c, 4, 76, 127
1, 240509, Note_off_c, 10, 57, 127
1, 240510, Note_on_c, 2, 74, 127
1, 240510, Note_on_c, 8, 56, 127
1, 240622, Note_off_c, 2, 74, 127
1, 240623, Note_on_c, 4, 76, 127
1, 240708, Note_off_c, 10, 69, 127
1, 240735, Note_off_c, 4, 76, 127
1, 240735, Note_off_c, 8, 56, 127
1, 240736, Note_on_c, 10, 69, 127
1, 240736, Note_on_c, 10, 57, 127
1, 240849, Note_on_c, 4, 76, 127
1, 240961, Note_off_c, 4, 76, 127
1, 240961, Note_off_c, 10, 57, 127
1, 240962, Note_on_c, 2, 74, 127
1, 240962, Note_on_c, 12, 59, 127
1, 241074, Note_off_c, 2, 74, 127
1, 241075, Note_on_c, 4, 76, 127
1, 241160, Note_off_c, 10, 69, 127
1, 241187, Note_off_c, 4, 76, 127
1, 241187, Note_off_c, 12, 59, 127
1, 241188, Note_on_c, 10, 69, 127
1, 241188, Note_on_c, 10, 57, 127
1, 241301, Note_on_c, 4, 76, 127
1, 241413, Note_off_c, 4, 76, 127
1, 241413, Note_off_c, 10, 57, 127
1, 241414, Note_on_c, 2, 74, 127
1, 241414, Note_on_c, 8, 56, 127
1, 241526, Note_off_c, 2, 74, 127
1, 241527, Note_on_c, 4, 76, 127
1, 241612, Note_off_c, 10, 69, 127
1, 241639, Note_off_c, 4, 76, 127
1, 241639, Note_off_c, 8, 56, 127
1, 241640, Note_on_c, 10, 69, 127
1, 241640, Note_on_c, 10, 57, 127
1, 241753, Note_on_c, 4, 76, 127
1, 241865, Note_off_c, 4, 76, 127
1, 241865, Note_off_c, 10, 57, 127
1, 241866, Note_on_c, 1, 73, 127
1, 241866, Note_on_c, 7, 55, 127
1, 241978, Note_off_c, 1, 73, 127
1, 241979, Note_on_c, 4, 76, 127
1, 242087, Note_off_c, 10, 69, 127
1, 242091, Note_off_c, 4, 76, 127
1, 242091, Note_off_c, 7, 55, 127
1, 242092, Note_on_c, 10, 69, 127
1, 242092, Note_on_c, 6, 54, 127
1, 242205, Note_on_c, 4, 76, 127
1, 242317, Note_off_c, 4, 76, 127
1, 242317, Note_off_c, 6, 54, 127
1, 242318, Note_on_c, 1, 73, 127
1, 242318, Note_on_c, 7, 55, 127
1, 242430, Note_off_c, 1, 73, 127
1, 242431, Note_on_c, 4, 76, 127
1, 242539, Note_off_c, 10, 69, 127
1, 242543, Note_off_c, 4, 76, 127
1, 242543, Note_off_c, 7, 55, 127
1, 242544, Note_on_c, 10, 69, 127
1, 242544, Note_on_c, 10, 57, 127
1, 242657, Note_on_c, 4, 76, 127
1, 242769, Note_off_c, 4, 76, 127
1, 242769, Note_off_c, 10, 57, 127
1, 242770, Note_on_c, 1, 73, 127
1, 242770, Note_on_c, 7, 55, 127
1, 242882, Note_off_c, 1, 73, 127
1, 242883, Note_on_c, 4, 76, 127
1, 242991, Note_off_c, 10, 69, 127
1, 242995, Note_off_c, 4, 76, 127
1, 242995, Note_off_c, 7, 55, 127
1, 242996, Note_on_c, 10, 69, 127
1, 242996, Note_on_c, 10, 57, 127
1, 243109, Note_on_c, 4, 76, 127
1, 243220, Note_off_c, 10, 69, 127
1, 243221, Note_off_c, 4, 76, 127
1, 243221, Note_off_c, 10, 57, 127
1, 243222, Note_on_c, 1, 73, 127
1, 243222, Note_on_c, 10, 45, 127
1, 243335, Note_on_c, 4, 76, 127
1, 243446, Note_off_c, 1, 73, 127
1, 243447, Note_off_c, 4, 76, 127
1, 243447, Note_off_c, 10, 45, 127
1, 243448, Note_on_c, 2, 74, 127
1, 243448, Note_on_c, 10, 45, 127
1, 243448, Note_on_c, 2, 50, 127
1, 243448, Note_on_c, 2, 38, 127
1, 243448, Note_on_c, 6, 42, 127
1, 243560, Note_off_c, 2, 74, 127
1, 243561, Note_on_c, 10, 69, 127
1, 243673, Note_off_c, 10, 69, 127
1, 243674, Note_on_c, 12, 71, 127
1, 243786, Note_off_c, 12, 71, 127
1, 243787, Note_on_c, 1, 73, 127
1, 243899, Note_off_c, 1, 73, 127
1, 243900, Note_on_c, 2, 74, 127
1, 244012, Note_off_c, 2, 74, 127
1, 244013, Note_on_c, 10, 69, 127
1, 244125, Note_off_c, 10, 69, 127
1, 244126, Note_on_c, 12, 71, 127
1, 244237, Note_off_c, 6, 42, 127
1, 244237, Note_off_c, 2, 38, 127
1, 244237, Note_off_c, 2, 50, 127
1, 244237, Note_off_c, 10, 45, 127
1, 244238, Note_off_c, 12, 71, 127
1, 244239, Note_on_c, 1, 73, 127
1, 244351, Note_off_c, 1, 73, 127
1, 244352, Note_on_c, 2, 74, 127
1, 244352, Note_on_c, 10, 45, 127
1, 244352, Note_on_c, 2, 50, 127
1, 244352, Note_on_c, 2, 38, 127
1, 244352, Note_on_c, 6, 42, 127
1, 244464, Note_off_c, 2, 74, 127
1, 244465, Note_on_c, 10, 69, 127
1, 244577, Note_off_c, 10, 69, 127
1, 244578, Note_on_c, 12, 71, 127
1, 244690, Note_off_c, 12, 71, 127
1, 244691, Note_on_c, 1, 73, 127
1, 244803, Note_off_c, 1, 73, 127
1, 244804, Note_on_c, 2, 74, 127
1, 244916, Note_off_c, 2, 74, 127
1, 244917, Note_on_c, 10, 69, 127
1, 245029, Note_off_c, 10, 69, 127
1, 245030, Note_on_c, 12, 71, 127
1, 245141, Note_off_c, 6, 42, 127
1, 245141, Note_off_c, 2, 38, 127
1, 245141, Note_off_c, 2, 50, 127
1, 245141, Note_off_c, 10, 45, 127
1, 245142, Note_off_c, 12, 71, 127
1, 245143, Note_on_c, 1, 73, 127
1, 245255, Note_off_c, 1, 73, 127
1, 245256, Note_on_c, 2, 74, 127
1, 245256, Note_on_c, 6, 66, 127
1, 245256, Note_on_c, 2, 62, 127
1, 245456, Note_off_c, 2, 62, 127
1, 245456, Note_off_c, 6, 66, 127
1, 245481, Note_off_c, 2, 74, 127
1, 245482, Note_on_c, 2, 74, 127
1, 245482, Note_on_c, 1, 61, 127
1, 245482, Note_on_c, 4, 64, 127
1, 245682, Note_off_c, 4, 64, 127
1, 245682, Note_off_c, 1, 61, 127
1, 245707, Note_off_c, 2, 74, 127
1, 245708, Note_on_c, 2, 74, 127
1, 245708, Note_on_c, 12, 59, 127
1, 245708, Note_on_c, 2, 62, 127
1, 245908, Note_off_c, 2, 62, 127
1, 245908, Note_off_c, 12, 59, 127
1, 245933, Note_off_c, 2, 74, 127
1, 245934, Note_on_c, 2, 74, 127
1, 245934, Note_on_c, 10, 57, 127
1, 245934, Note_on_c, 1, 61, 127
1, 246134, Note_off_c, 1, 61, 127
1, 246134, Note_off_c, 10, 57, 127
1, 246159, Note_off_c, 2, 74, 127
1, 246160, Note_on_c, 2, 74, 127
1, 246160, Note_on_c, 7, 55, 127
1, 246160, Note_on_c, 12, 59, 127
1, 246360, Note_off_c, 12, 59, 127
1, 246360, Note_off_c, 7, 55, 127
1, 246385, Note_off_c, 2, 74, 127
1, 246386, Note_on_c, 2, 74, 127
1, 246386, Note_on_c, 10, 57, 127
1, 246386, Note_on_c, 6, 54, 127
1, 246586, Note_off_c, 6, 54, 127
1, 246586, Note_off_c, 10, 57, 127
1, 246611, Note_off_c, 2, 74, 127
1, 246612, Note_on_c, 4, 76, 127
1, 246612, Note_on_c, 4, 52, 127
1, 246612, Note_on_c, 7, 55, 127
1, 246667, Note_off_c, 4, 76, 127
1, 246668, Note_on_c, 2, 74, 127
1, 246723, Note_off_c, 2, 74, 127
1, 246724, Note_on_c, 4, 76, 127
1, 246779, Note_off_c, 4, 76, 127
1, 246780, Note_on_c, 2, 74, 127
1, 246811, Note_off_c, 7, 55, 127
1, 246811, Note_off_c, 4, 52, 127
1, 246836, Note_off_c, 2, 74, 127
1, 246837, Note_on_c, 4, 76, 127
1, 246837, Note_on_c, 2, 50, 127
1, 246837, Note_on_c, 6, 54, 127
1, 246892, Note_off_c, 4, 76, 127
1, 246893, Note_on_c, 2, 74, 127
1, 246948, Note_off_c, 2, 74, 127
1, 246949, Note_on_c, 1, 73, 127
1, 247004, Note_off_c, 1, 73, 127
1, 247005, Note_on_c, 2, 74, 127
1, 247036, Note_off_c, 2, 50, 127
1, 247061, Note_off_c, 2, 74, 127
1, 247061, Note_off_c, 6, 54, 127
1, 247062, Note_on_c, 4, 76, 127
1, 247062, Note_on_c, 1, 49, 127
1, 247062, Note_on_c, 4, 52, 127
1, 247062, Note_on_c, 10, 57, 127
1, 247062, Note_on_c, 10, 45, 127
1, 247174, Note_off_c, 4, 76, 127
1, 247175, Note_on_c, 10, 69, 127
1, 247287, Note_off_c, 10, 69, 127
1, 247288, Note_on_c, 1, 73, 127
1, 247400, Note_off_c, 1, 73, 127
1, 247401, Note_on_c, 2, 74, 127
1, 247513, Note_off_c, 2, 74, 127
1, 247514, Note_on_c, 4, 76, 127
1, 247626, Note_off_c, 4, 76, 127
1, 247627, Note_on_c, 10, 69, 127
1, 247739, Note_off_c, 10, 69, 127
1, 247740, Note_on_c, 1, 73, 127
1, 247851, Note_off_c, 10, 45, 127
1, 247851, Note_off_c, 10, 57, 127
1, 247851, Note_off_c, 4, 52, 127
1, 247851, Note_off_c, 1, 49, 127
1, 247852, Note_off_c, 1, 73, 127
1, 247853, Note_on_c, 2, 74, 127
1, 247965, Note_off_c, 2, 74, 127
1, 247966, Note_on_c, 4, 76, 127
1, 247966, Note_on_c, 4, 52, 127
1, 247966, Note_on_c, 10, 57, 127
1, 247966, Note_on_c, 10, 45, 127
1, 247966, Note_on_c, 1, 49, 127
1, 248078, Note_off_c, 4, 76, 127
1, 248079, Note_on_c, 10, 69, 127
1, 248191, Note_off_c, 10, 69, 127
1, 248192, Note_on_c, 1, 73, 127
1, 248304, Note_off_c, 1, 73, 127
1, 248305, Note_on_c, 2, 74, 127
1, 248417, Note_off_c, 2, 74, 127
1, 248418, Note_on_c, 4, 76, 127
1, 248530, Note_off_c, 4, 76, 127
1, 248531, Note_on_c, 10, 69, 127
1, 248643, Note_off_c, 10, 69, 127
1, 248644, Note_on_c, 1, 73, 127
1, 248755, Note_off_c, 1, 49, 127
1, 248755, Note_off_c, 10, 45, 127
1, 248755, Note_off_c, 10, 57, 127
1, 248755, Note_off_c, 4, 52, 127
1, 248756, Note_off_c, 1, 73, 127
1, 248757, Note_on_c, 2, 74, 127
1, 248869, Note_off_c, 2, 74, 127
1, 248870, Note_on_c, 4, 76, 127
1, 248870, Note_on_c, 10, 69, 127
1, 248870, Note_on_c, 1, 73, 127
1, 249070, Note_off_c, 1, 73, 127
1, 249070, Note_off_c, 10, 69, 127
1, 249095, Note_off_c, 4, 76, 127
1, 249096, Note_on_c, 4, 76, 127
1, 249096, Note_on_c, 12, 71, 127
1, 249096, Note_on_c, 7, 67, 127
1, 249296, Note_off_c, 7, 67, 127
1, 249296, Note_off_c, 12, 71, 127
1, 249321, Note_off_c, 4, 76, 127
1, 249322, Note_on_c, 4, 76, 127
1, 249322, Note_on_c, 10, 69, 127
1, 249322, Note_on_c, 6, 66, 127
1, 249522, Note_off_c, 6, 66, 127
1, 249522, Note_off_c, 10, 69, 127
1, 249547, Note_off_c, 4, 76, 127
1, 249548, Note_on_c, 4, 76, 127
1, 249548, Note_on_c, 4, 64, 127
1, 249548, Note_on_c, 7, 67, 127
1, 249748, Note_off_c, 7, 67, 127
1, 249748, Note_off_c, 4, 64, 127
1, 249773, Note_off_c, 4, 76, 127
1, 249774, Note_on_c, 4, 76, 127
1, 249774, Note_on_c, 6, 66, 127
1, 249774, Note_on_c, 2, 62, 127
1, 249974, Note_off_c, 2, 62, 127
1, 249974, Note_off_c, 6, 66, 127
1, 249999, Note_off_c, 4, 76, 127
1, 250000, Note_on_c, 4, 76, 127
1, 250000, Note_on_c, 4, 64, 127
1, 250000, Note_on_c, 1, 61, 127
1, 250200, Note_off_c, 1, 61, 127
1, 250200, Note_off_c, 4, 64, 127
1, 250225, Note_off_c, 4, 76, 127
1, 250226, Note_on_c, 6, 78, 127
1, 250226, Note_on_c, 12, 59, 127
1, 250226, Note_on_c, 2, 62, 127
1, 250281, Note_off_c, 6, 78, 127
1, 250282, Note_on_c, 4, 76, 127
1, 250337, Note_off_c, 4, 76, 127
1, 250338, Note_on_c, 6, 78, 127
1, 250393, Note_off_c, 6, 78, 127
1, 250394, Note_on_c, 4, 76, 127
1, 250425, Note_off_c, 2, 62, 127
1, 250425, Note_off_c, 12, 59, 127
1, 250450, Note_off_c, 4, 76, 127
1, 250451, Note_on_c, 6, 78, 127
1, 250451, Note_on_c, 10, 57, 127
1, 250451, Note_on_c, 1, 61, 127
1, 250506, Note_off_c, 6, 78, 127
1, 250507, Note_on_c, 4, 76, 127
1, 250562, Note_off_c, 4, 76, 127
1, 250563, Note_on_c, 2, 74, 127
1, 250618, Note_off_c, 2, 74, 127
1, 250619, Note_on_c, 4, 76, 127
1, 250650, Note_off_c, 1, 61, 127
1, 250650, Note_off_c, 10, 57, 127
1, 250675, Note_off_c, 4, 76, 127
1, 250676, Note_on_c, 6, 78, 127
1, 250676, Note_on_c, 2, 62, 127
1, 250676, Note_on_c, 10, 57, 127
1, 250676, Note_on_c, 2, 50, 127
1, 250676, Note_on_c, 6, 54, 127
1, 250788, Note_off_c, 6, 78, 127
1, 250789, Note_on_c, 10, 69, 127
1, 250901, Note_off_c, 10, 69, 127
1, 250902, Note_on_c, 2, 74, 127
1, 251014, Note_off_c, 2, 74, 127
1, 251015, Note_on_c, 4, 76, 127
1, 251127, Note_off_c, 4, 76, 127
1, 251128, Note_on_c, 6, 78, 127
1, 251240, Note_off_c, 6, 78, 127
1, 251241, Note_on_c, 10, 69, 127
1, 251353, Note_off_c, 10, 69, 127
1, 251354, Note_on_c, 2, 74, 127
1, 251465, Note_off_c, 6, 54, 127
1, 251465, Note_off_c, 2, 50, 127
1, 251465, Note_off_c, 10, 57, 127
1, 251465, Note_off_c, 2, 62, 127
1, 251466, Note_off_c, 2, 74, 127
1, 251467, Note_on_c, 4, 76, 127
1, 251579, Note_off_c, 4, 76, 127
1, 251580, Note_on_c, 6, 78, 127
1, 251580, Note_on_c, 2, 62, 127
1, 251580, Note_on_c, 2, 50, 127
1, 251580, Note_on_c, 6, 54, 127
1, 251580, Note_on_c, 10, 57, 127
1, 251692, Note_off_c, 6, 78, 127
1, 251693, Note_on_c, 10, 69, 127
1, 251805, Note_off_c, 10, 69, 127
1, 251806, Note_on_c, 2, 74, 127
1, 251918, Note_off_c, 2, 74, 127
1, 251919, Note_on_c, 4, 76, 127
1, 252031, Note_off_c, 4, 76, 127
1, 252032, Note_on_c, 6, 78, 127
1, 252144, Note_off_c, 6, 78, 127
1, 252145, Note_on_c, 10, 69, 127
1, 252257, Note_off_c, 10, 69, 127
1, 252258, Note_on_c, 2, 74, 127
1, 252369, Note_off_c, 10, 57, 127
1, 252369, Note_off_c, 6, 54, 127
1, 252369, Note_off_c, 2, 50, 127
1, 252369, Note_off_c, 2, 62, 127
1, 252370, Note_off_c, 2, 74, 127
1, 252371, Note_on_c, 4, 76, 127
1, 252483, Note_off_c, 4, 76, 127
1, 252484, Note_on_c, 10, 69, 127
1, 252484, Note_on_c, 6, 78, 127
1, 252484, Note_on_c, 2, 50, 127
1, 252596, Note_off_c, 2, 50, 127
1, 252597, Note_on_c, 10, 45, 127
1, 252684, Note_off_c, 6, 78, 127
1, 252684, Note_off_c, 10, 69, 127
1, 252709, Note_off_c, 10, 45, 127
1, 252710, Note_on_c, 7, 67, 127
1, 252710, Note_on_c, 4, 76, 127
1, 252710, Note_on_c, 12, 47, 127
1, 252822, Note_off_c, 12, 47, 127
1, 252823, Note_on_c, 1, 49, 127
1, 252910, Note_off_c, 4, 76, 127
1, 252910, Note_off_c, 7, 67, 127
1, 252935, Note_off_c, 1, 49, 127
1, 252936, Note_on_c, 2, 74, 127
1, 252936, Note_on_c, 6, 66, 127
1, 252936, Note_on_c, 2, 50, 127
1, 253048, Note_off_c, 2, 50, 127
1, 253049, Note_on_c, 2, 38, 127
1, 253136, Note_off_c, 6, 66, 127
1, 253136, Note_off_c, 2, 74, 127
1, 253161, Note_off_c, 2, 38, 127
1, 253162, Note_on_c, 4, 64, 127
1, 253162, Note_on_c, 1, 73, 127
1, 253162, Note_on_c, 4, 40, 127
1, 253274, Note_off_c, 4, 40, 127
1, 253275, Note_on_c, 6, 42, 127
1, 253362, Note_off_c, 1, 73, 127
1, 253362, Note_off_c, 4, 64, 127
1, 253387, Note_off_c, 6, 42, 127
1, 253388, Note_on_c, 2, 62, 127
1, 253388, Note_on_c, 12, 71, 127
1, 253388, Note_on_c, 7, 43, 127
1, 253500, Note_off_c, 7, 43, 127
1, 253501, Note_on_c, 2, 38, 127
1, 253588, Note_off_c, 12, 71, 127
1, 253588, Note_off_c, 2, 62, 127
1, 253613, Note_off_c, 2, 38, 127
1, 253614, Note_on_c, 1, 61, 127
1, 253614, Note_on_c, 10, 69, 127
1, 253614, Note_on_c, 4, 40, 127
1, 253726, Note_off_c, 4, 40, 127
1, 253727, Note_on_c, 6, 42, 127
1, 253814, Note_off_c, 10, 69, 127
1, 253814, Note_off_c, 1, 61, 127
1, 253839, Note_off_c, 6, 42, 127
1, 253840, Note_on_c, 12, 59, 127
1, 253840, Note_on_c, 7, 67, 127
1, 253840, Note_on_c, 7, 43, 127
1, 253952, Note_off_c, 7, 43, 127
1, 253953, Note_on_c, 2, 38, 127
1, 254040, Note_off_c, 7, 67, 127
1, 254040, Note_off_c, 12, 59, 127
1, 254065, Note_off_c, 2, 38, 127
1, 254066, Note_on_c, 6, 66, 127
1, 254066, Note_on_c, 10, 57, 127
1, 254066, Note_on_c, 4, 40, 127
1, 254178, Note_off_c, 4, 40, 127
1, 254179, Note_on_c, 6, 42, 127
1, 254266, Note_off_c, 10, 57, 127
1, 254266, Note_off_c, 6, 66, 127
1, 254291, Note_off_c, 6, 42, 127
1, 254292, Note_on_c, 7, 55, 127
1, 254292, Note_on_c, 4, 64, 127
1, 254292, Note_on_c, 7, 43, 127
1, 254404, Note_off_c, 7, 43, 127
1, 254405, Note_on_c, 2, 38, 127
1, 254492, Note_off_c, 4, 64, 127
1, 254492, Note_off_c, 7, 55, 127
1, 254517, Note_off_c, 2, 38, 127
1, 254518, Note_on_c, 6, 54, 127
1, 254518, Note_on_c, 2, 62, 127
1, 254518, Note_on_c, 4, 40, 127
1, 254630, Note_off_c, 4, 40, 127
1, 254631, Note_on_c, 6, 42, 127
1, 254718, Note_off_c, 2, 62, 127
1, 254718, Note_off_c, 6, 54, 127
1, 254743, Note_off_c, 6, 42, 127
1, 254744, Note_on_c, 4, 52, 127
1, 254744, Note_on_c, 1, 61, 127
1, 254744, Note_on_c, 7, 43, 127
1, 254856, Note_off_c, 7, 43, 127
1, 254857, Note_on_c, 2, 38, 127
1, 254944, Note_off_c, 1, 61, 127
1, 254944, Note_off_c, 4, 52, 127
1, 254969, Note_off_c, 2, 38, 127
1, 254970, Note_on_c, 2, 50, 127
1, 254970, Note_on_c, 12, 59, 127
1, 254970, Note_on_c, 4, 40, 127
1, 255082, Note_off_c, 4, 40, 127
1, 255083, Note_on_c, 6, 42, 127
1, 255170, Note_off_c, 12, 59, 127
1, 255170, Note_off_c, 2, 50, 127
1, 255195, Note_off_c, 6, 42, 127
1, 255196, Note_on_c, 1, 49, 127
1, 255196, Note_on_c, 10, 57, 127
1, 255196, Note_on_c, 7, 43, 127
1, 255308, Note_off_c, 7, 43, 127
1, 255309, Note_on_c, 6, 42, 127
1, 255396, Note_off_c, 10, 57, 127
1, 255396, Note_off_c, 1, 49, 127
1, 255421, Note_off_c, 6, 42, 127
1, 255422, Note_on_c, 10, 69, 127
1, 255422, Note_on_c, 1, 73, 127
1, 255422, Note_on_c, 4, 64, 127
1, 255422, Note_on_c, 7, 43, 127
1, 255534, Note_off_c, 7, 43, 127
1, 255535, Note_on_c, 4, 40, 127
1, 255647, Note_off_c, 4, 40, 127
1, 255647, Note_off_c, 4, 64, 127
1, 255647, Note_off_c, 1, 73, 127
1, 255647, Note_off_c, 10, 69, 127
1, 255648, Note_on_c, 2, 74, 127
1, 255648, Note_on_c, 2, 62, 127
1, 255648, Note_on_c, 10, 69, 127
1, 255648, Note_on_c, 6, 42, 127
1, 255760, Note_off_c, 6, 42, 127
1, 255761, Note_on_c, 4, 40, 127
1, 255873, Note_off_c, 4, 40, 127
1, 255873, Note_off_c, 10, 69, 127
1, 255873, Note_off_c, 2, 74, 127
1, 255874, Note_on_c, 6, 66, 127
1, 255874, Note_on_c, 6, 42, 127
1, 255986, Note_off_c, 6, 42, 127
1, 255987, Note_on_c, 2, 38, 127
1, 256095, Note_off_c, 2, 62, 127
1, 256099, Note_off_c, 2, 38, 127
1, 256099, Note_off_c, 6, 66, 127
1, 256100, Note_on_c, 7, 67, 127
1, 256100, Note_on_c, 12, 59, 127
1, 256100, Note_on_c, 2, 62, 127
1, 256100, Note_on_c, 7, 43, 127
1, 256212, Note_off_c, 7, 43, 127
1, 256213, Note_on_c, 6, 42, 127
1, 256325, Note_off_c, 6, 42, 127
1, 256325, Note_off_c, 2, 62, 127
1, 256325, Note_off_c, 7, 67, 127
1, 256326, Note_on_c, 4, 64, 127
1, 256326, Note_on_c, 7, 43, 127
1, 256438, Note_off_c, 7, 43, 127
1, 256439, Note_on_c, 4, 40, 127
1, 256547, Note_off_c, 12, 59, 127
1, 256551, Note_off_c, 4, 40, 127
1, 256551, Note_off_c, 4, 64, 127
1, 256552, Note_on_c, 10, 69, 127
1, 256552, Note_on_c, 1, 61, 127
1, 256552, Note_on_c, 10, 45, 127
1, 256664, Note_off_c, 10, 45, 127
1, 256665, Note_on_c, 6, 42, 127
1, 256777, Note_off_c, 6, 42, 127
1, 256777, Note_off_c, 1, 61, 127
1, 256777, Note_off_c, 10, 69, 127
1, 256778, Note_on_c, 1, 61, 127
1, 256778, Note_on_c, 7, 43, 127
1, 256890, Note_off_c, 7, 43, 127
1, 256891, Note_on_c, 10, 45, 127
1, 257003, Note_off_c, 10, 45, 127
1, 257003, Note_off_c, 1, 61, 127
1, 257004, Note_on_c, 2, 62, 127
1, 257004, Note_on_c, 2, 38, 127
1, 257059, Note_off_c, 2, 62, 127
1, 257060, Note_on_c, 1, 61, 127
1, 257115, Note_off_c, 1, 61, 127
1, 257115, Note_off_c, 2, 38, 127
1, 257116, Note_on_c, 2, 62, 127
1, 257116, Note_on_c, 2, 50, 127
1, 257228, Note_off_c, 2, 50, 127
1, 257229, Note_on_c, 0, 48, 127
1, 257341, Note_off_c, 0, 48, 127
1, 257342, Note_on_c, 2, 50, 127
1, 257454, Note_off_c, 2, 50, 127
1, 257455, Note_on_c, 12, 47, 127
1, 257567, Note_off_c, 12, 47, 127
1, 257568, Note_on_c, 0, 48, 127
1, 257680, Note_off_c, 0, 48, 127
1, 257681, Note_on_c, 10, 45, 127
1, 257793, Note_off_c, 10, 45, 127
1, 257794, Note_on_c, 12, 47, 127
1, 257906, Note_off_c, 12, 47, 127
1, 257906, Note_off_c, 2, 62, 127
1, 257907, Note_on_c, 7, 79, 127
1, 257907, Note_on_c, 7, 55, 127
1, 257907, Note_on_c, 7, 43, 127
1, 257907, Note_on_c, 12, 47, 127
1, 257907, Note_on_c, 2, 50, 127
1, 258019, Note_off_c, 7, 79, 127
1, 258020, Note_on_c, 2, 74, 127
1, 258132, Note_off_c, 2, 74, 127
1, 258133, Note_on_c, 4, 76, 127
1, 258245, Note_off_c, 4, 76, 127
1, 258246, Note_on_c, 6, 78, 127
1, 258358, Note_off_c, 6, 78, 127
1, 258359, Note_on_c, 7, 79, 127
1, 258471, Note_off_c, 7, 79, 127
1, 258472, Note_on_c, 2, 74, 127
1, 258584, Note_off_c, 2, 74, 127
1, 258585, Note_on_c, 4, 76, 127
1, 258696, Note_off_c, 2, 50, 127
1, 258696, Note_off_c, 12, 47, 127
1, 258696, Note_off_c, 7, 43, 127
1, 258696, Note_off_c, 7, 55, 127
1, 258697, Note_off_c, 4, 76, 127
1, 258698, Note_on_c, 6, 78, 127
1, 258810, Note_off_c, 6, 78, 127
1, 258811, Note_on_c, 7, 79, 127
1, 258811, Note_on_c, 12, 47, 127
1, 258811, Note_on_c, 7, 43, 127
1, 258811, Note_on_c, 2, 50, 127
1, 258811, Note_on_c, 7, 55, 127
1, 258923, Note_off_c, 7, 79, 127
1, 258924, Note_on_c, 2, 74, 127
1, 259036, Note_off_c, 2, 74, 127
1, 259037, Note_on_c, 4, 76, 127
1, 259149, Note_off_c, 4, 76, 127
1, 259150, Note_on_c, 6, 78, 127
1, 259262, Note_off_c, 6, 78, 127
1, 259263, Note_on_c, 7, 79, 127
1, 259375, Note_off_c, 7, 79, 127
1, 259376, Note_on_c, 2, 74, 127
1, 259488, Note_off_c, 2, 74, 127
1, 259489, Note_on_c, 4, 76, 127
1, 259600, Note_off_c, 7, 55, 127
1, 259600, Note_off_c, 2, 50, 127
1, 259600, Note_off_c, 7, 43, 127
1, 259600, Note_off_c, 12, 47, 127
1, 259601, Note_off_c, 4, 76, 127
1, 259602, Note_on_c, 6, 78, 127
1, 259714, Note_off_c, 6, 78, 127
1, 259715, Note_on_c, 7, 79, 127
1, 259715, Note_on_c, 12, 59, 127
1, 259715, Note_on_c, 7, 55, 127
1, 259915, Note_off_c, 7, 55, 127
1, 259915, Note_off_c, 12, 59, 127
1, 259940, Note_off_c, 7, 79, 127
1, 259941, Note_on_c, 7, 79, 127
1, 259941, Note_on_c, 10, 57, 127
1, 259941, Note_on_c, 6, 54, 127
1, 260141, Note_off_c, 6, 54, 127
1, 260141, Note_off_c, 10, 57, 127
1, 260166, Note_off_c, 7, 79, 127
1, 260167, Note_on_c, 7, 79, 127
1, 260167, Note_on_c, 4, 52, 127
1, 260167, Note_on_c, 7, 55, 127
1, 260367, Note_off_c, 7, 55, 127
1, 260367, Note_off_c, 4, 52, 127
1, 260392, Note_off_c, 7, 79, 127
1, 260393, Note_on_c, 7, 79, 127
1, 260393, Note_on_c, 2, 50, 127
1, 260393, Note_on_c, 6, 54, 127
1, 260593, Note_off_c, 6, 54, 127
1, 260593, Note_off_c, 2, 50, 127
1, 260618, Note_off_c, 7, 79, 127
1, 260619, Note_on_c, 7, 79, 127
1, 260619, Note_on_c, 0, 48, 127
1, 260619, Note_on_c, 4, 52, 127
1, 260819, Note_off_c, 4, 52, 127
1, 260819, Note_off_c, 0, 48, 127
1, 260844, Note_off_c, 7, 79, 127
1, 260845, Note_on_c, 7, 79, 127
1, 260845, Note_on_c, 2, 50, 127
1, 260845, Note_on_c, 12, 47, 127
1, 261045, Note_off_c, 12, 47, 127
1, 261045, Note_off_c, 2, 50, 127
1, 261070, Note_off_c, 7, 79, 127
1, 261071, Note_on_c, 10, 81, 127
1, 261071, Note_on_c, 10, 45, 127
1, 261071, Note_on_c, 0, 48, 127
1, 261126, Note_off_c, 10, 81, 127
1, 261127, Note_on_c, 7, 79, 127
1, 261182, Note_off_c, 7, 79, 127
1, 261183, Note_on_c, 10, 81, 127
1, 261238, Note_off_c, 10, 81, 127
1, 261239, Note_on_c, 7, 79, 127
1, 261270, Note_off_c, 0, 48, 127
1, 261270, Note_off_c, 10, 45, 127
1, 261295, Note_off_c, 7, 79, 127
1, 261296, Note_on_c, 10, 81, 127
1, 261296, Note_on_c, 7, 43, 127
1, 261296, Note_on_c, 12, 47, 127
1, 261351, Note_off_c, 10, 81, 127
1, 261352, Note_on_c, 7, 79, 127
1, 261407, Note_off_c, 7, 79, 127
1, 261408, Note_on_c, 6, 78, 127
1, 261463, Note_off_c, 6, 78, 127
1, 261464, Note_on_c, 7, 79, 127
1, 261495, Note_off_c, 12, 47, 127
1, 261495, Note_off_c, 7, 43, 127
1, 261520, Note_off_c, 7, 79, 127
1, 261521, Note_on_c, 10, 81, 127
1, 261521, Note_on_c, 10, 45, 127
1, 261521, Note_on_c, 2, 50, 127
1, 261521, Note_on_c, 2, 38, 127
1, 261521, Note_on_c, 6, 42, 127
1, 261633, Note_off_c, 10, 81, 127
1, 261634, Note_on_c, 2, 74, 127
1, 261746, Note_off_c, 2, 74, 127
1, 261747, Note_on_c, 6, 78, 127
1, 261859, Note_off_c, 6, 78, 127
1, 261860, Note_on_c, 7, 79, 127
1, 261972, Note_off_c, 7, 79, 127
1, 261973, Note_on_c, 10, 81, 127
1, 262085, Note_off_c, 10, 81, 127
1, 262086, Note_on_c, 2, 74, 127
1, 262198, Note_off_c, 2, 74, 127
1, 262199, Note_on_c, 6, 78, 127
1, 262310, Note_off_c, 6, 42, 127
1, 262310, Note_off_c, 2, 38, 127
1, 262310, Note_off_c, 2, 50, 127
1, 262310, Note_off_c, 10, 45, 127
1, 262311, Note_off_c, 6, 78, 127
1, 262312, Note_on_c, 7, 79, 127
1, 262424, Note_off_c, 7, 79, 127
1, 262425, Note_on_c, 10, 81, 127
1, 262425, Note_on_c, 2, 50, 127
1, 262425, Note_on_c, 2, 38, 127
1, 262425, Note_on_c, 6, 42, 127
1, 262425, Note_on_c, 10, 45, 127
1, 262537, Note_off_c, 10, 81, 127
1, 262538, Note_on_c, 2, 74, 127
1, 262650, Note_off_c, 2, 74, 127
1, 262651, Note_on_c, 6, 78, 127
1, 262763, Note_off_c, 6, 78, 127
1, 262764, Note_on_c, 7, 79, 127
1, 262876, Note_off_c, 7, 79, 127
1, 262877, Note_on_c, 10, 81, 127
1, 262989, Note_off_c, 10, 81, 127
1, 262990, Note_on_c, 2, 74, 127
1, 263102, Note_off_c, 2, 74, 127
1, 263103, Note_on_c, 6, 78, 127
1, 263214, Note_off_c, 10, 45, 127
1, 263214, Note_off_c, 6, 42, 127
1, 263214, Note_off_c, 2, 38, 127
1, 263214, Note_off_c, 2, 50, 127
1, 263215, Note_off_c, 6, 78, 127
1, 263216, Note_on_c, 7, 79, 127
1, 263328, Note_off_c, 7, 79, 127
1, 263329, Note_on_c, 10, 81, 127
1, 263329, Note_on_c, 2, 62, 127
1, 263329, Note_on_c, 6, 66, 127
1, 263529, Note_off_c, 6, 66, 127
1, 263529, Note_off_c, 2, 62, 127
1, 263554, Note_off_c, 10, 81, 127
1, 263555, Note_on_c, 10, 81, 127
1, 263555, Note_on_c, 4, 64, 127
1, 263555, Note_on_c, 0, 60, 127
1, 263755, Note_off_c, 0, 60, 127
1, 263755, Note_off_c, 4, 64, 127
1, 263780, Note_off_c, 10, 81, 127
1, 263781, Note_on_c, 10, 81, 127
1, 263781, Note_on_c, 12, 59, 127
1, 263781, Note_on_c, 2, 62, 127
1, 263981, Note_off_c, 2, 62, 127
1, 263981, Note_off_c, 12, 59, 127
1, 264006, Note_off_c, 10, 81, 127
1, 264007, Note_on_c, 10, 81, 127
1, 264007, Note_on_c, 10, 57, 127
1, 264007, Note_on_c, 0, 60, 127
1, 264207, Note_off_c, 0, 60, 127
1, 264207, Note_off_c, 10, 57, 127
1, 264232, Note_off_c, 10, 81, 127
1, 264233, Note_on_c, 10, 81, 127
1, 264233, Note_on_c, 7, 55, 127
1, 264233, Note_on_c, 12, 59, 127
1, 264433, Note_off_c, 12, 59, 127
1, 264433, Note_off_c, 7, 55, 127
1, 264458, Note_off_c, 10, 81, 127
1, 264459, Note_on_c, 10, 81, 127
1, 264459, Note_on_c, 6, 54, 127
1, 264459, Note_on_c, 10, 57, 127
1, 264659, Note_off_c, 10, 57, 127
1, 264659, Note_off_c, 6, 54, 127
1, 264684, Note_off_c, 10, 81, 127
1, 264685, Note_on_c, 12, 83, 127
1, 264685, Note_on_c, 7, 55, 127
1, 264685, Note_on_c, 4, 52, 127
1, 264740, Note_off_c, 12, 83, 127
1, 264741, Note_on_c, 10, 81, 127
1, 264796, Note_off_c, 10, 81, 127
1, 264797, Note_on_c, 12, 83, 127
1, 264852, Note_off_c, 12, 83, 127
1, 264853, Note_on_c, 10, 81, 127
1, 264884, Note_off_c, 4, 52, 127
1, 264884, Note_off_c, 7, 55, 127
1, 264909, Note_off_c, 10, 81, 127
1, 264910, Note_on_c, 12, 83, 127
1, 264910, Note_on_c, 2, 50, 127
1, 264910, Note_on_c, 6, 54, 127
1, 264965, Note_off_c, 12, 83, 127
1, 264966, Note_on_c, 10, 81, 127
1, 265021, Note_off_c, 10, 81, 127
1, 265022, Note_on_c, 7, 79, 127
1, 265077, Note_off_c, 7, 79, 127
1, 265078, Note_on_c, 10, 81, 127
1, 265109, Note_off_c, 6, 54, 127
1, 265109, Note_off_c, 2, 50, 127
1, 265134, Note_off_c, 10, 81, 127
1, 265135, Note_on_c, 12, 83, 127
1, 265135, Note_on_c, 12, 47, 127
1, 265135, Note_on_c, 2, 50, 127
1, 265135, Note_on_c, 7, 55, 127
1, 265135, Note_on_c, 7, 43, 127
1, 265247, Note_off_c, 12, 83, 127
1, 265248, Note_on_c, 2, 74, 127
1, 265360, Note_off_c, 2, 74, 127
1, 265361, Note_on_c, 7, 79, 127
1, 265473, Note_off_c, 7, 79, 127
1, 265474, Note_on_c, 10, 81, 127
1, 265586, Note_off_c, 10, 81, 127
1, 265587, Note_on_c, 12, 83, 127
1, 265699, Note_off_c, 12, 83, 127
1, 265700, Note_on_c, 2, 74, 127
1, 265812, Note_off_c, 2, 74, 127
1, 265813, Note_on_c, 7, 79, 127
1, 265924, Note_off_c, 7, 43, 127
1, 265924, Note_off_c, 7, 55, 127
1, 265924, Note_off_c, 2, 50, 127
1, 265924, Note_off_c, 12, 47, 127
1, 265925, Note_off_c, 7, 79, 127
1, 265926, Note_on_c, 10, 81, 127
1, 266038, Note_off_c, 10, 81, 127
1, 266039, Note_on_c, 12, 83, 127
1, 266039, Note_on_c, 12, 47, 127
1, 266039, Note_on_c, 2, 50, 127
1, 266039, Note_on_c, 7, 55, 127
1, 266039, Note_on_c, 7, 43, 127
1, 266151, Note_off_c, 12, 83, 127
1, 266152, Note_on_c, 2, 74, 127
1, 266264, Note_off_c, 2, 74, 127
1, 266265, Note_on_c, 7, 79, 127
1, 266377, Note_off_c, 7, 79, 127
1, 266378, Note_on_c, 10, 81, 127
1, 266490, Note_off_c, 10, 81, 127
1, 266491, Note_on_c, 12, 83, 127
1, 266603, Note_off_c, 12, 83, 127
1, 266604, Note_on_c, 2, 74, 127
1, 266716, Note_off_c, 2, 74, 127
1, 266717, Note_on_c, 7, 79, 127
1, 266828, Note_off_c, 7, 43, 127
1, 266828, Note_off_c, 7, 55, 127
1, 266828, Note_off_c, 2, 50, 127
1, 266828, Note_off_c, 12, 47, 127
1, 266829, Note_off_c, 7, 79, 127
1, 266830, Note_on_c, 10, 81, 127
1, 266942, Note_off_c, 10, 81, 127
1, 266943, Note_on_c, 12, 83, 127
1, 266943, Note_on_c, 12, 71, 127
1, 266943, Note_on_c, 7, 67, 127
1, 267143, Note_off_c, 7, 67, 127
1, 267143, Note_off_c, 12, 71, 127
1, 267168, Note_off_c, 12, 83, 127
1, 267169, Note_on_c, 12, 83, 127
1, 267169, Note_on_c, 10, 69, 127
1, 267169, Note_on_c, 6, 66, 127
1, 267369, Note_off_c, 6, 66, 127
1, 267369, Note_off_c, 10, 69, 127
1, 267394, Note_off_c, 12, 83, 127
1, 267395, Note_on_c, 12, 83, 127
1, 267395, Note_on_c, 7, 67, 127
1, 267395, Note_on_c, 4, 64, 127
1, 267595, Note_off_c, 4, 64, 127
1, 267595, Note_off_c, 7, 67, 127
1, 267620, Note_off_c, 12, 83, 127
1, 267621, Note_on_c, 12, 83, 127
1, 267621, Note_on_c, 2, 62, 127
1, 267621, Note_on_c, 6, 66, 127
1, 267821, Note_off_c, 6, 66, 127
1, 267821, Note_off_c, 2, 62, 127
1, 267846, Note_off_c, 12, 83, 127
1, 267847, Note_on_c, 12, 83, 127
1, 267847, Note_on_c, 4, 64, 127
1, 267847, Note_on_c, 0, 60, 127
1, 268047, Note_off_c, 0, 60, 127
1, 268047, Note_off_c, 4, 64, 127
1, 268072, Note_off_c, 12, 83, 127
1, 268073, Note_on_c, 12, 83, 127
1, 268073, Note_on_c, 12, 59, 127
1, 268073, Note_on_c, 2, 62, 127
1, 268273, Note_off_c, 2, 62, 127
1, 268273, Note_off_c, 12, 59, 127
1, 268298, Note_off_c, 12, 83, 127
1, 268299, Note_on_c, 0, 84, 127
1, 268299, Note_on_c, 10, 57, 127
1, 268299, Note_on_c, 0, 60, 127
1, 268354, Note_off_c, 0, 84, 127
1, 268355, Note_on_c, 12, 83, 127
1, 268410, Note_off_c, 12, 83, 127
1, 268411, Note_on_c, 0, 84, 127
1, 268466, Note_off_c, 0, 84, 127
1, 268467, Note_on_c, 12, 83, 127
1, 268498, Note_off_c, 0, 60, 127
1, 268498, Note_off_c, 10, 57, 127
1, 268523, Note_off_c, 12, 83, 127
1, 268524, Note_on_c, 0, 84, 127
1, 268524, Note_on_c, 12, 59, 127
1, 268524, Note_on_c, 7, 55, 127
1, 268579, Note_off_c, 0, 84, 127
1, 268580, Note_on_c, 12, 83, 127
1, 268635, Note_off_c, 12, 83, 127
1, 268636, Note_on_c, 10, 81, 127
1, 268691, Note_off_c, 10, 81, 127
1, 268692, Note_on_c, 12, 83, 127
1, 268723, Note_off_c, 7, 55, 127
1, 268723, Note_off_c, 12, 59, 127
1, 268748, Note_off_c, 12, 83, 127
1, 268749, Note_on_c, 0, 84, 127
1, 268749, Note_on_c, 2, 62, 127
1, 268749, Note_on_c, 2, 50, 127
1, 268749, Note_on_c, 6, 54, 127
1, 268749, Note_on_c, 10, 57, 127
1, 268861, Note_off_c, 0, 84, 127
1, 268862, Note_on_c, 2, 74, 127
1, 268974, Note_off_c, 2, 74, 127
1, 268975, Note_on_c, 10, 81, 127
1, 269087, Note_off_c, 10, 81, 127
1, 269088, Note_on_c, 12, 83, 127
1, 269200, Note_off_c, 12, 83, 127
1, 269201, Note_on_c, 0, 84, 127
1, 269313, Note_off_c, 0, 84, 127
1, 269314, Note_on_c, 2, 74, 127
1, 269426, Note_off_c, 2, 74, 127
1, 269427, Note_on_c, 10, 81, 127
1, 269538, Note_off_c, 10, 57, 127
1, 269538, Note_off_c, 6, 54, 127
1, 269538, Note_off_c, 2, 50, 127
1, 269538, Note_off_c, 2, 62, 127
1, 269539, Note_off_c, 10, 81, 127
1, 269540, Note_on_c, 12, 83, 127
1, 269652, Note_off_c, 12, 83, 127
1, 269653, Note_on_c, 0, 84, 127
1, 269653, Note_on_c, 2, 50, 127
1, 269653, Note_on_c, 2, 62, 127
1, 269653, Note_on_c, 10, 57, 127
1, 269653, Note_on_c, 6, 54, 127
1, 269765, Note_off_c, 0, 84, 127
1, 269766, Note_on_c, 2, 74, 127
1, 269878, Note_off_c, 2, 74, 127
1, 269879, Note_on_c, 10, 81, 127
1, 269991, Note_off_c, 10, 81, 127
1, 269992, Note_on_c, 12, 83, 127
1, 270104, Note_off_c, 12, 83, 127
1, 270105, Note_on_c, 0, 84, 127
1, 270217, Note_off_c, 0, 84, 127
1, 270218, Note_on_c, 2, 74, 127
1, 270330, Note_off_c, 2, 74, 127
1, 270331, Note_on_c, 10, 81, 127
1, 270442, Note_off_c, 6, 54, 127
1, 270442, Note_off_c, 10, 57, 127
1, 270442, Note_off_c, 2, 62, 127
1, 270442, Note_off_c, 2, 50, 127
1, 270443, Note_off_c, 10, 81, 127
1, 270444, Note_on_c, 0, 84, 127
1, 270556, Note_off_c, 0, 84, 127
1, 270557, Note_on_c, 12, 83, 127
1, 270557, Note_on_c, 2, 62, 127
1, 270557, Note_on_c, 7, 55, 127
1, 270557, Note_on_c, 12, 59, 127
1, 270669, Note_off_c, 12, 83, 127
1, 270670, Note_on_c, 2, 74, 127
1, 270782, Note_off_c, 2, 74, 127
1, 270783, Note_on_c, 4, 76, 127
1, 270895, Note_off_c, 4, 76, 127
1, 270896, Note_on_c, 6, 78, 127
1, 271008, Note_off_c, 6, 78, 127
1, 271009, Note_on_c, 7, 79, 127
1, 271121, Note_off_c, 12, 59, 127
1, 271121, Note_off_c, 7, 55, 127
1, 271121, Note_off_c, 2, 62, 127
1, 271122, Note_on_c, 7, 67, 127
1, 271234, Note_off_c, 7, 67, 127
1, 271235, Note_on_c, 10, 69, 127
1, 271347, Note_off_c, 10, 69, 127
1, 271347, Note_off_c, 7, 79, 127
1, 271348, Note_on_c, 2, 74, 127
1, 271348, Note_on_c, 7, 79, 127
1, 271348, Note_on_c, 12, 71, 127
1, 271460, Note_off_c, 12, 71, 127
1, 271460, Note_off_c, 7, 79, 127
1, 271460, Note_off_c, 2, 74, 127
1, 271461, Note_on_c, 4, 76, 127
1, 271461, Note_on_c, 10, 81, 127
1, 271461, Note_on_c, 0, 72, 127
1, 271574, Note_on_c, 10, 57, 127
1, 271686, Note_off_c, 10, 57, 127
1, 271687, Note_on_c, 12, 59, 127
1, 271799, Note_off_c, 12, 59, 127
1, 271800, Note_on_c, 0, 60, 127
1, 271912, Note_off_c, 0, 60, 127
1, 271912, Note_off_c, 0, 72, 127
1, 271912, Note_off_c, 10, 81, 127
1, 271912, Note_off_c, 4, 76, 127
1, 271913, Note_on_c, 2, 74, 127
1, 271913, Note_on_c, 0, 72, 127
1, 271913, Note_on_c, 10, 69, 127
1, 271913, Note_on_c, 6, 78, 127
1, 271913, Note_on_c, 2, 62, 127
1, 272025, Note_off_c, 2, 62, 127
1, 272026, Note_on_c, 12, 59, 127
1, 272138, Note_off_c, 12, 59, 127
1, 272139, Note_on_c, 0, 60, 127
1, 272251, Note_off_c, 0, 60, 127
1, 272252, Note_on_c, 2, 62, 127
1, 272364, Note_off_c, 2, 62, 127
1, 272364, Note_off_c, 6, 78, 127
1, 272364, Note_off_c, 10, 69, 127
1, 272364, Note_off_c, 0, 72, 127
1, 272364, Note_off_c, 2, 74, 127
1, 272365, Note_on_c, 7, 79, 127
1, 272365, Note_on_c, 7, 67, 127
1, 272365, Note_on_c, 12, 71, 127
1, 272365, Note_on_c, 2, 74, 127
1, 272365, Note_on_c, 7, 55, 127
1, 272477, Note_off_c, 7, 55, 127
1, 272478, Note_on_c, 2, 62, 127
1, 272590, Note_off_c, 2, 62, 127
1, 272591, Note_on_c, 4, 64, 127
1, 272695, Note_off_c, 7, 67, 127
1, 272703, Note_off_c, 4, 64, 127
1, 272704, Note_on_c, 6, 66, 127
1, 272816, Note_off_c, 6, 66, 127
1, 272817, Note_on_c, 7, 67, 127
1, 272930, Note_on_c, 7, 55, 127
1, 273041, Note_off_c, 7, 67, 127
1, 273042, Note_off_c, 7, 55, 127
1, 273043, Note_on_c, 10, 57, 127
1, 273155, Note_off_c, 10, 57, 127
1, 273155, Note_off_c, 2, 74, 127
1, 273155, Note_off_c, 12, 71, 127
1, 273155, Note_off_c, 7, 79, 127
1, 273156, Note_on_c, 12, 71, 127
1, 273156, Note_on_c, 2, 74, 127
1, 273156, Note_on_c, 7, 79, 127
1, 273156, Note_on_c, 12, 59, 127
1, 273268, Note_off_c, 12, 59, 127
1, 273268, Note_off_c, 7, 79, 127
1, 273268, Note_off_c, 2, 74, 127
1, 273268, Note_off_c, 12, 71, 127
1, 273269, Note_on_c, 10, 81, 127
1, 273269, Note_on_c, 10, 69, 127
1, 273269, Note_on_c, 4, 76, 127
1, 273269, Note_on_c, 0, 72, 127
1, 273269, Note_on_c, 0, 60, 127
1, 273381, Note_off_c, 0, 60, 127
1, 273382, Note_on_c, 10, 45, 127
1, 273494, Note_off_c, 10, 45, 127
1, 273495, Note_on_c, 12, 47, 127
1, 273607, Note_off_c, 12, 47, 127
1, 273608, Note_on_c, 0, 48, 127
1, 273720, Note_off_c, 0, 48, 127
1, 273720, Note_off_c, 0, 72, 127
1, 273720, Note_off_c, 4, 76, 127
1, 273720, Note_off_c, 10, 69, 127
1, 273720, Note_off_c, 10, 81, 127
1, 273721, Note_on_c, 2, 74, 127
1, 273721, Note_on_c, 6, 78, 127
1, 273721, Note_on_c, 10, 69, 127
1, 273721, Note_on_c, 0, 72, 127
1, 273721, Note_on_c, 2, 50, 127
1, 273833, Note_off_c, 2, 50, 127
1, 273834, Note_on_c, 12, 47, 127
1, 273946, Note_off_c, 12, 47, 127
1, 273947, Note_on_c, 0, 48, 127
1, 274059, Note_off_c, 0, 48, 127
1, 274060, Note_on_c, 2, 50, 127
1, 274172, Note_off_c, 2, 50, 127
1, 274172, Note_off_c, 0, 72, 127
1, 274172, Note_off_c, 10, 69, 127
1, 274172, Note_off_c, 6, 78, 127
1, 274172, Note_off_c, 2, 74, 127
1, 274173, Note_on_c, 7, 79, 127
1, 274173, Note_on_c, 2, 74, 127
1, 274173, Note_on_c, 7, 67, 127
1, 274173, Note_on_c, 12, 71, 127
1, 274173, Note_on_c, 7, 43, 127
1, 274285, Note_off_c, 7, 43, 127
1, 274286, Note_on_c, 2, 50, 127
1, 274398, Note_off_c, 2, 50, 127
1, 274399, Note_on_c, 4, 52, 127
1, 274511, Note_off_c, 4, 52, 127
1, 274512, Note_on_c, 6, 54, 127
1, 274624, Note_off_c, 6, 54, 127
1, 274624, Note_off_c, 12, 71, 127
1, 274624, Note_off_c, 7, 67, 127
1, 274624, Note_off_c, 2, 74, 127
1, 274624, Note_off_c, 7, 79, 127
1, 274625, Note_on_c, 7, 67, 127
1, 274625, Note_on_c, 7, 55, 127
1, 274737, Note_off_c, 7, 55, 127
1, 274738, Note_on_c, 10, 57, 127
1, 274850, Note_off_c, 10, 57, 127
1, 274850, Note_off_c, 7, 67, 127
1, 274851, Note_on_c, 12, 71, 127
1, 274851, Note_on_c, 12, 59, 127
1, 274963, Note_off_c, 12, 59, 127
1, 274964, Note_on_c, 7, 55, 127
1, 275076, Note_off_c, 7, 55, 127
1, 275076, Note_off_c, 12, 71, 127
1, 275077, Note_on_c, 0, 72, 127
1, 275077, Note_on_c, 0, 60, 127
1, 275189, Note_off_c, 0, 60, 127
1, 275190, Note_on_c, 12, 59, 127
1, 275302, Note_off_c, 12, 59, 127
1, 275302, Note_off_c, 0, 72, 127
1, 275303, Note_on_c, 10, 69, 127
1, 275303, Note_on_c, 0, 60, 127
1, 275415, Note_off_c, 0, 60, 127
1, 275416, Note_on_c, 10, 57, 127
1, 275528, Note_off_c, 10, 57, 127
1, 275528, Note_off_c, 10, 69, 127
1, 275529, Note_on_c, 2, 74, 127
1, 275529, Note_on_c, 2, 62, 127
1, 275641, Note_off_c, 2, 62, 127
1, 275642, Note_on_c, 0, 60, 127
1, 275754, Note_off_c, 0, 60, 127
1, 275755, Note_on_c, 2, 62, 127
1, 275868, Note_off_c, 2, 74, 127
1, 275868, Note_on_c, 2, 50, 127
1, 275979, Note_off_c, 2, 62, 127
1, 275980, Note_off_c, 2, 50, 127
1, 275981, Note_on_c, 7, 67, 127
1, 275981, Note_on_c, 7, 55, 127
1, 276093, Note_off_c, 7, 55, 127
1, 276094, Note_on_c, 2, 38, 127
1, 276206, Note_off_c, 2, 38, 127
1, 276207, Note_on_c, 4, 40, 127
1, 276319, Note_off_c, 4, 40, 127
1, 276320, Note_on_c, 6, 42, 127
1, 276432, Note_off_c, 6, 42, 127
1, 276433, Note_on_c, 7, 43, 127
1, 276545, Note_off_c, 7, 43, 127
1, 276546, Note_off_c, 7, 67, 127
1, 276546, Note_on_c, 10, 45, 127
1, 276658, Note_off_c, 10, 45, 127
1, 276659, Note_on_c, 12, 47, 127
1, 276771, Note_off_c, 12, 47, 127
1, 276772, Note_on_c, 7, 79, 127
1, 276772, Note_on_c, 0, 48, 127
1, 276884, Note_off_c, 0, 48, 127
1, 276884, Note_off_c, 7, 79, 127
1, 276885, Note_on_c, 7, 79, 127
1, 276885, Note_on_c, 2, 50, 127
1, 276940, Note_off_c, 7, 79, 127
1, 276941, Note_on_c, 6, 78, 127
1, 276996, Note_off_c, 6, 78, 127
1, 276996, Note_off_c, 2, 50, 127
1, 276997, Note_on_c, 7, 79, 127
1, 276997, Note_on_c, 4, 52, 127
1, 277052, Note_off_c, 7, 79, 127
1, 277053, Note_on_c, 6, 78, 127
1, 277108, Note_off_c, 4, 52, 127
1, 277109, Note_on_c, 6, 54, 127
1, 277221, Note_off_c, 6, 54, 127
1, 277222, Note_on_c, 7, 55, 127
1, 277334, Note_off_c, 7, 55, 127
1, 277335, Note_on_c, 10, 57, 127
1, 277447, Note_off_c, 10, 57, 127
1, 277448, Note_on_c, 12, 59, 127
1, 277500, Note_off_c, 6, 78, 127
1, 277560, Note_off_c, 12, 59, 127
1, 277561, Note_on_c, 0, 60, 127
1, 277673, Note_off_c, 0, 60, 127
1, 277674, Note_on_c, 2, 74, 127
1, 277674, Note_on_c, 10, 57, 127
1, 277786, Note_off_c, 10, 57, 127
1, 277786, Note_off_c, 2, 74, 127
1, 277787, Note_on_c, 7, 79, 127
1, 277787, Note_on_c, 12, 59, 127
1, 277842, Note_off_c, 7, 79, 127
1, 277843, Note_on_c, 6, 78, 127
1, 277898, Note_off_c, 6, 78, 127
1, 277898, Note_off_c, 12, 59, 127
1, 277899, Note_on_c, 7, 79, 127
1, 277899, Note_on_c, 0, 60, 127
1, 278011, Note_off_c, 0, 60, 127
1, 278012, Note_on_c, 12, 59, 127
1, 278124, Note_off_c, 12, 59, 127
1, 278125, Note_on_c, 10, 57, 127
1, 278237, Note_off_c, 10, 57, 127
1, 278238, Note_on_c, 7, 55, 127
1, 278346, Note_off_c, 7, 79, 127
1, 278350, Note_off_c, 7, 55, 127
1, 278351, Note_on_c, 10, 57, 127
1, 278463, Note_off_c, 10, 57, 127
1, 278464, Note_on_c, 12, 59, 127
1, 278576, Note_off_c, 12, 59, 127
1, 278577, Note_on_c, 7, 79, 127
1, 278577, Note_on_c, 0, 60, 127
1, 278689, Note_off_c, 0, 60, 127
1, 278689, Note_off_c, 7, 79, 127
1, 278690, Note_on_c, 7, 79, 127
1, 278690, Note_on_c, 2, 62, 127
1, 278745, Note_off_c, 7, 79, 127
1, 278746, Note_on_c, 6, 78, 127
1, 278801, Note_off_c, 6, 78, 127
1, 278801, Note_off_c, 2, 62, 127
1, 278802, Note_on_c, 7, 79, 127
1, 278802, Note_on_c, 4, 64, 127
1, 278857, Note_off_c, 7, 79, 127
1, 278858, Note_on_c, 6, 78, 127
1, 278913, Note_off_c, 4, 64, 127
1, 278914, Note_on_c, 6, 66, 127
1, 279026, Note_off_c, 6, 66, 127
1, 279027, Note_on_c, 7, 67, 127
1, 279139, Note_off_c, 7, 67, 127
1, 279140, Note_on_c, 10, 69, 127
1, 279252, Note_off_c, 10, 69, 127
1, 279253, Note_on_c, 12, 71, 127
1, 279305, Note_off_c, 6, 78, 127
1, 279365, Note_off_c, 12, 71, 127
1, 279366, Note_on_c, 0, 72, 127
1, 279478, Note_off_c, 0, 72, 127
1, 279479, Note_on_c, 2, 74, 127
1, 279479, Note_on_c, 10, 69, 127
1, 279591, Note_off_c, 10, 69, 127
1, 279591, Note_off_c, 2, 74, 127
1, 279592, Note_on_c, 7, 79, 127
1, 279592, Note_on_c, 12, 71, 127
1, 279704, Note_off_c, 12, 71, 127
1, 279705, Note_on_c, 0, 72, 127
1, 279817, Note_off_c, 0, 72, 127
1, 279818, Note_on_c, 12, 71, 127
1, 279930, Note_off_c, 12, 71, 127
1, 279931, Note_on_c, 10, 69, 127
1, 280039, Note_off_c, 7, 79, 127
1, 280043, Note_off_c, 10, 69, 127
1, 280044, Note_on_c, 7, 67, 127
1, 280156, Note_off_c, 7, 67, 127
1, 280157, Note_on_c, 6, 66, 127
1, 280269, Note_off_c, 6, 66, 127
1, 280270, Note_on_c, 12, 71, 127
1, 280270, Note_on_c, 4, 64, 127
1, 280382, Note_off_c, 4, 64, 127
1, 280383, Note_on_c, 2, 62, 127
1, 280495, Note_off_c, 2, 62, 127
1, 280495, Note_off_c, 12, 71, 127
1, 280496, Note_on_c, 0, 72, 127
1, 280496, Note_on_c, 0, 60, 127
1, 280608, Note_off_c, 0, 60, 127
1, 280609, Note_on_c, 12, 59, 127
1, 280721, Note_off_c, 12, 59, 127
1, 280721, Note_off_c, 0, 72, 127
1, 280722, Note_on_c, 10, 69, 127
1, 280722, Note_on_c, 0, 60, 127
1, 280834, Note_off_c, 0, 60, 127
1, 280835, Note_on_c, 10, 57, 127
1, 280947, Note_off_c, 10, 57, 127
1, 280947, Note_off_c, 10, 69, 127
1, 280948, Note_on_c, 2, 74, 127
1, 280948, Note_on_c, 2, 62, 127
1, 281060, Note_off_c, 2, 62, 127
1, 281061, Note_on_c, 0, 60, 127
1, 281173, Note_off_c, 0, 60, 127
1, 281174, Note_on_c, 2, 62, 127
1, 281287, Note_off_c, 2, 74, 127
1, 281287, Note_on_c, 2, 50, 127
1, 281398, Note_off_c, 2, 62, 127
1, 281399, Note_off_c, 2, 50, 127
1, 281400, Note_on_c, 7, 67, 127
1, 281400, Note_on_c, 7, 55, 127
1, 281474, Note_off_c, 7, 67, 127
1, 281485, Note_on_c, 6, 66, 127
1, 281559, Note_off_c, 6, 66, 127
1, 281570, Note_on_c, 7, 67, 127
1, 281624, Note_off_c, 7, 55, 127
1, 281625, Note_on_c, 10, 57, 127
1, 281850, Note_off_c, 10, 57, 127
1, 281851, Note_on_c, 12, 59, 127
1, 282017, Note_off_c, 7, 67, 127
1, 282076, Note_off_c, 12, 59, 127
1, 282077, Note_on_c, 7, 79, 127
1, 282077, Note_on_c, 7, 55, 127
1, 282302, Note_off_c, 7, 55, 127
1, 282302, Note_off_c, 7, 79, 127
1, 282303, Note_on_c, 10, 81, 127
1, 282303, Note_on_c, 2, 62, 127
1, 282415, Note_off_c, 10, 81, 127
1, 282416, Note_on_c, 6, 78, 127
1, 282528, Note_off_c, 6, 78, 127
1, 282528, Note_off_c, 2, 62, 127
1, 282529, Note_on_c, 7, 79, 127
1, 282529, Note_on_c, 7, 55, 127
1, 282641, Note_off_c, 7, 79, 127
1, 282642, Note_on_c, 12, 83, 127
1, 282754, Note_off_c, 12, 83, 127
1, 282754, Note_off_c, 7, 55, 127
1, 282755, Note_on_c, 10, 81, 127
1, 282755, Note_on_c, 2, 62, 127
1, 282867, Note_off_c, 10, 81, 127
1, 282868, Note_on_c, 6, 78, 127
1, 282980, Note_off_c, 6, 78, 127
1, 282980, Note_off_c, 2, 62, 127
1, 282981, Note_on_c, 7, 79, 127
1, 282981, Note_on_c, 7, 55, 127
1, 283093, Note_off_c, 7, 79, 127
1, 283094, Note_on_c, 12, 83, 127
1, 283206, Note_off_c, 12, 83, 127
1, 283206, Note_off_c, 7, 55, 127
1, 283207, Note_on_c, 10, 81, 127
1, 283207, Note_on_c, 2, 62, 127
1, 283319, Note_off_c, 10, 81, 127
1, 283320, Note_on_c, 6, 78, 127
1, 283432, Note_off_c, 6, 78, 127
1, 283432, Note_off_c, 2, 62, 127
1, 283433, Note_on_c, 7, 79, 127
1, 283433, Note_on_c, 7, 55, 127
1, 283545, Note_off_c, 7, 79, 127
1, 283546, Note_on_c, 12, 83, 127
1, 283658, Note_off_c, 12, 83, 127
1, 283658, Note_off_c, 7, 55, 127
1, 283659, Note_on_c, 10, 81, 127
1, 283659, Note_on_c, 2, 62, 127
1, 283771, Note_off_c, 10, 81, 127
1, 283772, Note_on_c, 6, 78, 127
1, 283884, Note_off_c, 6, 78, 127
1, 283884, Note_off_c, 2, 62, 127
1, 283885, Note_on_c, 7, 79, 127
1, 283885, Note_on_c, 0, 60, 127
1, 283997, Note_off_c, 7, 79, 127
1, 283998, Note_on_c, 10, 81, 127
1, 284110, Note_off_c, 10, 81, 127
1, 284110, Note_off_c, 0, 60, 127
1, 284111, Note_on_c, 2, 74, 127
1, 284111, Note_on_c, 12, 59, 127
1, 284223, Note_off_c, 12, 59, 127
1, 284224, Note_on_c, 7, 55, 127
1, 284336, Note_off_c, 7, 55, 127
1, 284337, Note_on_c, 10, 57, 127
1, 284449, Note_off_c, 10, 57, 127
1, 284450, Note_on_c, 0, 60, 127
1, 284562, Note_off_c, 0, 60, 127
1, 284563, Note_on_c, 12, 59, 127
1, 284675, Note_off_c, 12, 59, 127
1, 284676, Note_off_c, 2, 74, 127
1, 284676, Note_on_c, 10, 57, 127
1, 284788, Note_off_c, 10, 57, 127
1, 284789, Note_on_c, 7, 79, 127
1, 284789, Note_on_c, 12, 59, 127
1, 284901, Note_off_c, 12, 59, 127
1, 284902, Note_on_c, 7, 55, 127
1, 285014, Note_off_c, 7, 55, 127
1, 285014, Note_off_c, 7, 79, 127
1, 285015, Note_on_c, 10, 81, 127
1, 285015, Note_on_c, 2, 62, 127
1, 285127, Note_off_c, 10, 81, 127
1, 285128, Note_on_c, 6, 78, 127
1, 285240, Note_off_c, 6, 78, 127
1, 285240, Note_off_c, 2, 62, 127
1, 285241, Note_on_c, 7, 79, 127
1, 285241, Note_on_c, 7, 55, 127
1, 285353, Note_off_c, 7, 79, 127
1, 285354, Note_on_c, 11, 82, 127
1, 285466, Note_off_c, 11, 82, 127
1, 285466, Note_off_c, 7, 55, 127
1, 285467, Note_on_c, 10, 81, 127
1, 285467, Note_on_c, 2, 62, 127
1, 285579, Note_off_c, 10, 81, 127
1, 285580, Note_on_c, 6, 78, 127
1, 285692, Note_off_c, 6, 78, 127
1, 285692, Note_off_c, 2, 62, 127
1, 285693, Note_on_c, 7, 79, 127
1, 285693, Note_on_c, 7, 55, 127
1, 285805, Note_off_c, 7, 79, 127
1, 285806, Note_on_c, 11, 82, 127
1, 285918, Note_off_c, 11, 82, 127
1, 285918, Note_off_c, 7, 55, 127
1, 285919, Note_on_c, 10, 81, 127
1, 285919, Note_on_c, 2, 62, 127
1, 286031, Note_off_c, 10, 81, 127
1, 286032, Note_on_c, 6, 78, 127
1, 286144, Note_off_c, 6, 78, 127
1, 286144, Note_off_c, 2, 62, 127
1, 286145, Note_on_c, 7, 79, 127
1, 286145, Note_on_c, 7, 55, 127
1, 286257, Note_off_c, 7, 79, 127
1, 286258, Note_on_c, 11, 82, 127
1, 286370, Note_off_c, 11, 82, 127
1, 286370, Note_off_c, 7, 55, 127
1, 286371, Note_on_c, 10, 81, 127
1, 286371, Note_on_c, 2, 62, 127
1, 286483, Note_off_c, 10, 81, 127
1, 286484, Note_on_c, 6, 78, 127
1, 286596, Note_off_c, 6, 78, 127
1, 286596, Note_off_c, 2, 62, 127
1, 286597, Note_on_c, 7, 79, 127
1, 286597, Note_on_c, 3, 63, 127
1, 286709, Note_off_c, 7, 79, 127
1, 286710, Note_on_c, 10, 81, 127
1, 286822, Note_off_c, 10, 81, 127
1, 286822, Note_off_c, 3, 63, 127
1, 286823, Note_on_c, 0, 72, 127
1, 286823, Note_on_c, 10, 57, 127
1, 286935, Note_off_c, 10, 57, 127
1, 286936, Note_on_c, 6, 54, 127
1, 287048, Note_off_c, 6, 54, 127
1, 287049, Note_on_c, 7, 55, 127
1, 287161, Note_off_c, 7, 55, 127
1, 287162, Note_on_c, 11, 58, 127
1, 287274, Note_off_c, 11, 58, 127
1, 287275, Note_on_c, 10, 57, 127
1, 287387, Note_off_c, 10, 57, 127
1, 287388, Note_off_c, 0, 72, 127
1, 287388, Note_on_c, 6, 54, 127
1, 287500, Note_off_c, 6, 54, 127
1, 287501, Note_on_c, 10, 81, 127
1, 287501, Note_on_c, 7, 55, 127
1, 287613, Note_off_c, 7, 55, 127
1, 287614, Note_on_c, 4, 52, 127
1, 287726, Note_off_c, 4, 52, 127
1, 287726, Note_off_c, 10, 81, 127
1, 287727, Note_on_c, 0, 72, 127
1, 287727, Note_on_c, 6, 54, 127
1, 287839, Note_off_c, 0, 72, 127
1, 287840, Note_on_c, 12, 71, 127
1, 287952, Note_off_c, 12, 71, 127
1, 287952, Note_off_c, 6, 54, 127
1, 287953, Note_on_c, 0, 72, 127
1, 287953, Note_on_c, 7, 55, 127
1, 288066, Note_on_c, 10, 81, 127
1, 288165, Note_off_c, 0, 72, 127
1, 288178, Note_off_c, 10, 81, 127
1, 288178, Note_off_c, 7, 55, 127
1, 288179, Note_on_c, 0, 72, 127
1, 288179, Note_on_c, 10, 57, 127
1, 288291, Note_off_c, 0, 72, 127
1, 288292, Note_on_c, 12, 71, 127
1, 288404, Note_off_c, 12, 71, 127
1, 288404, Note_off_c, 10, 57, 127
1, 288405, Note_on_c, 0, 72, 127
1, 288405, Note_on_c, 6, 54, 127
1, 288518, Note_on_c, 10, 81, 127
1, 288617, Note_off_c, 0, 72, 127
1, 288630, Note_off_c, 10, 81, 127
1, 288630, Note_off_c, 6, 54, 127
1, 288631, Note_on_c, 0, 72, 127
1, 288631, Note_on_c, 2, 50, 127
1, 288743, Note_off_c, 0, 72, 127
1, 288744, Note_on_c, 12, 71, 127
1, 288856, Note_off_c, 12, 71, 127
1, 288856, Note_off_c, 2, 50, 127
1, 288857, Note_on_c, 0, 72, 127
1, 288857, Note_on_c, 4, 52, 127
1, 288970, Note_on_c, 10, 81, 127
1, 289069, Note_off_c, 0, 72, 127
1, 289082, Note_off_c, 10, 81, 127
1, 289082, Note_off_c, 4, 52, 127
1, 289083, Note_on_c, 0, 72, 127
1, 289083, Note_on_c, 6, 54, 127
1, 289195, Note_off_c, 0, 72, 127
1, 289196, Note_on_c, 11, 70, 127
1, 289308, Note_off_c, 11, 70, 127
1, 289308, Note_off_c, 6, 54, 127
1, 289309, Note_on_c, 0, 72, 127
1, 289309, Note_on_c, 2, 50, 127
1, 289421, Note_off_c, 0, 72, 127
1, 289422, Note_on_c, 10, 69, 127
1, 289534, Note_off_c, 10, 69, 127
1, 289534, Note_off_c, 2, 50, 127
1, 289535, Note_on_c, 11, 70, 127
1, 289535, Note_on_c, 7, 55, 127
1, 289647, Note_off_c, 11, 70, 127
1, 289648, Note_on_c, 10, 69, 127
1, 289760, Note_off_c, 10, 69, 127
1, 289761, Note_on_c, 11, 70, 127
1, 289873, Note_off_c, 11, 70, 127
1, 289874, Note_on_c, 7, 67, 127
1, 289935, Note_off_c, 7, 55, 127
1, 289986, Note_off_c, 7, 67, 127
1, 289987, Note_on_c, 0, 72, 127
1, 289987, Note_on_c, 10, 57, 127
1, 290099, Note_off_c, 0, 72, 127
1, 290100, Note_on_c, 11, 70, 127
1, 290212, Note_off_c, 11, 70, 127
1, 290213, Note_on_c, 0, 72, 127
1, 290325, Note_off_c, 0, 72, 127
1, 290326, Note_on_c, 10, 69, 127
1, 290387, Note_off_c, 10, 57, 127
1, 290438, Note_off_c, 10, 69, 127
1, 290439, Note_on_c, 2, 74, 127
1, 290439, Note_on_c, 11, 58, 127
1, 290551, Note_off_c, 2, 74, 127
1, 290552, Note_on_c, 0, 72, 127
1, 290664, Note_off_c, 0, 72, 127
1, 290665, Note_on_c, 2, 74, 127
1, 290777, Note_off_c, 2, 74, 127
1, 290778, Note_on_c, 11, 70, 127
1, 290839, Note_off_c, 11, 58, 127
1, 290890, Note_off_c, 11, 70, 127
1, 290891, Note_on_c, 3, 75, 127
1, 290891, Note_on_c, 0, 60, 127
1, 291003, Note_off_c, 3, 75, 127
1, 291004, Note_on_c, 2, 74, 127
1, 291116, Note_off_c, 2, 74, 127
1, 291117, Note_on_c, 3, 75, 127
1, 291229, Note_off_c, 3, 75, 127
1, 291230, Note_on_c, 0, 72, 127
1, 291291, Note_off_c, 0, 60, 127
1, 291342, Note_off_c, 0, 72, 127
1, 291343, Note_on_c, 6, 78, 127
1, 291343, Note_on_c, 2, 62, 127
1, 291455, Note_off_c, 6, 78, 127
1, 291456, Note_on_c, 4, 76, 127
1, 291568, Note_off_c, 4, 76, 127
1, 291569, Note_on_c, 6, 78, 127
1, 291681, Note_off_c, 6, 78, 127
1, 291682, Note_on_c, 2, 74, 127
1, 291794, Note_off_c, 2, 74, 127
1, 291795, Note_on_c, 11, 82, 127
1, 291795, Note_on_c, 1, 61, 127
1, 291808, Note_off_c, 2, 62, 127
1, 291907, Note_off_c, 11, 82, 127
1, 291908, Note_on_c, 10, 81, 127
1, 292020, Note_off_c, 10, 81, 127
1, 292021, Note_on_c, 11, 82, 127
1, 292133, Note_off_c, 11, 82, 127
1, 292134, Note_on_c, 7, 79, 127
1, 292243, Note_off_c, 1, 61, 127
1, 292245, Note_off_c, 7, 79, 127
1, 292246, Note_on_c, 6, 78, 127
1, 292246, Note_on_c, 2, 62, 127
1, 292358, Note_off_c, 6, 78, 127
1, 292359, Note_on_c, 2, 74, 127
1, 292471, Note_off_c, 2, 74, 127
1, 292471, Note_off_c, 2, 62, 127
1, 292472, Note_on_c, 7, 79, 127
1, 292472, Note_on_c, 11, 58, 127
1, 292584, Note_off_c, 11, 58, 127
1, 292584, Note_off_c, 7, 79, 127
1, 292585, Note_on_c, 11, 70, 127
1, 292585, Note_on_c, 0, 60, 127
1, 292697, Note_off_c, 0, 60, 127
1, 292697, Note_off_c, 11, 70, 127
1, 292698, Note_on_c, 10, 69, 127
1, 292698, Note_on_c, 2, 62, 127
1, 292824, Note_on_c, 0, 72, 127
1, 292830, Note_off_c, 10, 69, 127
1, 292936, Note_off_c, 0, 72, 127
1, 292940, Note_on_c, 2, 50, 127
1, 292940, Note_on_c, 7, 79, 127
1, 293052, Note_off_c, 7, 79, 127
1, 293053, Note_on_c, 6, 78, 127
1, 293122, Note_off_c, 2, 62, 127
1, 293140, Note_off_c, 2, 50, 127
1, 293165, Note_off_c, 6, 78, 127
1, 293166, Note_on_c, 7, 43, 127
1, 293166, Note_on_c, 2, 50, 127
1, 293166, Note_on_c, 12, 47, 127
1, 293166, Note_on_c, 7, 55, 127
1, 293166, Note_on_c, 7, 79, 127
1, 293278, Note_off_c, 7, 79, 127
1, 293279, Note_on_c, 2, 74, 127
1, 293391, Note_off_c, 2, 74, 127
1, 293392, Note_on_c, 4, 76, 127
1, 293504, Note_off_c, 4, 76, 127
1, 293505, Note_on_c, 6, 78, 127
1, 293617, Note_off_c, 6, 78, 127
1, 293618, Note_on_c, 7, 79, 127
1, 293730, Note_off_c, 7, 79, 127
1, 293731, Note_on_c, 2, 74, 127
1, 293843, Note_off_c, 2, 74, 127
1, 293844, Note_on_c, 4, 76, 127
1, 293955, Note_off_c, 7, 55, 127
1, 293955, Note_off_c, 12, 47, 127
1, 293955, Note_off_c, 2, 50, 127
1, 293955, Note_off_c, 7, 43, 127
1, 293956, Note_off_c, 4, 76, 127
1, 293957, Note_on_c, 6, 78, 127
1, 294069, Note_off_c, 6, 78, 127
1, 294070, Note_on_c, 2, 50, 127
1, 294070, Note_on_c, 12, 47, 127
1, 294070, Note_on_c, 7, 43, 127
1, 294070, Note_on_c, 7, 55, 127
1, 294070, Note_on_c, 7, 79, 127
1, 294182, Note_off_c, 7, 79, 127
1, 294183, Note_on_c, 2, 74, 127
1, 294295, Note_off_c, 2, 74, 127
1, 294296, Note_on_c, 4, 76, 127
1, 294408, Note_off_c, 4, 76, 127
1, 294409, Note_on_c, 6, 78, 127
1, 294521, Note_off_c, 6, 78, 127
1, 294522, Note_on_c, 7, 79, 127
1, 294634, Note_off_c, 7, 79, 127
1, 294635, Note_on_c, 2, 74, 127
1, 294747, Note_off_c, 2, 74, 127
1, 294748, Note_on_c, 4, 76, 127
1, 294859, Note_off_c, 7, 55, 127
1, 294859, Note_off_c, 7, 43, 127
1, 294859, Note_off_c, 12, 47, 127
1, 294859, Note_off_c, 2, 50, 127
1, 294860, Note_off_c, 4, 76, 127
1, 294861, Note_on_c, 6, 78, 127
1, 294973, Note_off_c, 6, 78, 127
1, 294974, Note_on_c, 7, 55, 127
1, 294974, Note_on_c, 7, 79, 127
1, 295086, Note_off_c, 7, 55, 127
1, 295087, Note_on_c, 2, 50, 127
1, 295199, Note_off_c, 2, 50, 127
1, 295199, Note_off_c, 7, 79, 127
1, 295200, Note_on_c, 4, 52, 127
1, 295200, Note_on_c, 6, 78, 127
1, 295312, Note_off_c, 6, 78, 127
1, 295312, Note_off_c, 4, 52, 127
1, 295313, Note_on_c, 6, 54, 127
1, 295313, Note_on_c, 4, 76, 127
1, 295425, Note_off_c, 4, 76, 127
1, 295425, Note_off_c, 6, 54, 127
1, 295426, Note_on_c, 7, 55, 127
1, 295426, Note_on_c, 2, 74, 127
1, 295538, Note_off_c, 2, 74, 127
1, 295538, Note_off_c, 7, 55, 127
1, 295539, Note_on_c, 2, 50, 127
1, 295539, Note_on_c, 0, 72, 127
1, 295651, Note_off_c, 0, 72, 127
1, 295651, Note_off_c, 2, 50, 127
1, 295652, Note_on_c, 4, 52, 127
1, 295652, Note_on_c, 12, 71, 127
1, 295764, Note_off_c, 12, 71, 127
1, 295764, Note_off_c, 4, 52, 127
1, 295765, Note_on_c, 6, 54, 127
1, 295765, Note_on_c, 10, 69, 127
1, 295877, Note_off_c, 10, 69, 127
1, 295877, Note_off_c, 6, 54, 127
1, 295878, Note_on_c, 7, 55, 127
1, 295878, Note_on_c, 7, 67, 127
1, 295990, Note_off_c, 7, 55, 127
1, 295991, Note_on_c, 2, 50, 127
1, 296103, Note_off_c, 2, 50, 127
1, 296103, Note_off_c, 7, 67, 127
1, 296104, Note_on_c, 4, 52, 127
1, 296104, Note_on_c, 6, 66, 127
1, 296216, Note_off_c, 6, 66, 127
1, 296216, Note_off_c, 4, 52, 127
1, 296217, Note_on_c, 6, 54, 127
1, 296217, Note_on_c, 4, 64, 127
1, 296329, Note_off_c, 4, 64, 127
1, 296329, Note_off_c, 6, 54, 127
1, 296330, Note_on_c, 7, 55, 127
1, 296330, Note_on_c, 2, 62, 127
1, 296442, Note_off_c, 2, 62, 127
1, 296442, Note_off_c, 7, 55, 127
1, 296443, Note_on_c, 2, 50, 127
1, 296443, Note_on_c, 0, 60, 127
1, 296555, Note_off_c, 0, 60, 127
1, 296555, Note_off_c, 2, 50, 127
1, 296556, Note_on_c, 4, 52, 127
1, 296556, Note_on_c, 12, 59, 127
1, 296668, Note_off_c, 12, 59, 127
1, 296668, Note_off_c, 4, 52, 127
1, 296669, Note_on_c, 6, 54, 127
1, 296669, Note_on_c, 10, 57, 127
1, 296774, Note_off_c, 10, 57, 127
1, 296781, Note_off_c, 6, 54, 127
1, 296782, Note_on_c, 7, 55, 127
1, 296895, Note_on_c, 6, 54, 127
1, 296951, Note_off_c, 7, 55, 127
1, 297006, Note_off_c, 6, 54, 127
1, 297007, Note_on_c, 7, 55, 127
1, 297119, Note_off_c, 7, 55, 127
1, 297120, Note_on_c, 10, 57, 127
1, 297232, Note_off_c, 10, 57, 127
1, 297233, Note_on_c, 12, 59, 127
1, 297345, Note_off_c, 12, 59, 127
1, 297346, Note_on_c, 10, 57, 127
1, 297458, Note_off_c, 10, 57, 127
1, 297459, Note_on_c, 12, 59, 127
1, 297459, Note_on_c, 7, 79, 127
1, 297571, Note_off_c, 12, 59, 127
1, 297572, Note_on_c, 7, 55, 127
1, 297684, Note_off_c, 7, 55, 127
1, 297684, Note_off_c, 7, 79, 127
1, 297685, Note_on_c, 6, 54, 127
1, 297685, Note_on_c, 10, 81, 127
1, 297797, Note_off_c, 10, 81, 127
1, 297797, Note_off_c, 6, 54, 127
1, 297798, Note_on_c, 2, 62, 127
1, 297798, Note_on_c, 6, 78, 127
1, 297910, Note_off_c, 6, 78, 127
1, 297910, Note_off_c, 2, 62, 127
1, 297911, Note_on_c, 4, 52, 127
1, 297911, Note_on_c, 7, 79, 127
1, 298023, Note_off_c, 7, 79, 127
1, 298023, Note_off_c, 4, 52, 127
1, 298024, Note_on_c, 0, 60, 127
1, 298024, Note_on_c, 4, 76, 127
1, 298136, Note_off_c, 4, 76, 127
1, 298136, Note_off_c, 0, 60, 127
1, 298137, Note_on_c, 2, 50, 127
1, 298137, Note_on_c, 6, 78, 127
1, 298249, Note_off_c, 6, 78, 127
1, 298249, Note_off_c, 2, 50, 127
1, 298250, Note_on_c, 12, 59, 127
1, 298250, Note_on_c, 2, 74, 127
1, 298362, Note_off_c, 2, 74, 127
1, 298362, Note_off_c, 12, 59, 127
1, 298363, Note_on_c, 0, 48, 127
1, 298363, Note_on_c, 4, 76, 127
1, 298475, Note_off_c, 4, 76, 127
1, 298475, Note_off_c, 0, 48, 127
1, 298476, Note_on_c, 10, 57, 127
1, 298476, Note_on_c, 0, 72, 127
1, 298588, Note_off_c, 0, 72, 127
1, 298588, Note_off_c, 10, 57, 127
1, 298589, Note_on_c, 12, 47, 127
1, 298589, Note_on_c, 2, 74, 127
1, 298701, Note_off_c, 2, 74, 127
1, 298701, Note_off_c, 12, 47, 127
1, 298702, Note_on_c, 7, 55, 127
1, 298702, Note_on_c, 12, 71, 127
1, 298814, Note_off_c, 12, 71, 127
1, 298814, Note_off_c, 7, 55, 127
1, 298815, Note_on_c, 10, 45, 127
1, 298815, Note_on_c, 0, 72, 127
1, 298927, Note_off_c, 0, 72, 127
1, 298927, Note_off_c, 10, 45, 127
1, 298928, Note_on_c, 6, 54, 127
1, 298928, Note_on_c, 10, 69, 127
1, 299040, Note_off_c, 10, 69, 127
1, 299040, Note_off_c, 6, 54, 127
1, 299041, Note_on_c, 7, 55, 127
1, 299041, Note_on_c, 12, 71, 127
1, 299153, Note_off_c, 12, 71, 127
1, 299153, Note_off_c, 7, 55, 127
1, 299154, Note_on_c, 12, 47, 127
1, 299154, Note_on_c, 7, 67, 127
1, 299266, Note_off_c, 7, 67, 127
1, 299266, Note_off_c, 12, 47, 127
1, 299267, Note_on_c, 0, 48, 127
1, 299267, Note_on_c, 10, 69, 127
1, 299379, Note_off_c, 10, 69, 127
1, 299379, Note_off_c, 0, 48, 127
1, 299380, Note_on_c, 2, 50, 127
1, 299380, Note_on_c, 6, 66, 127
1, 299492, Note_off_c, 6, 66, 127
1, 299492, Note_off_c, 2, 50, 127
1, 299493, Note_on_c, 7, 43, 127
1, 299493, Note_on_c, 7, 67, 127
1, 299605, Note_off_c, 7, 67, 127
1, 299605, Note_off_c, 7, 43, 127
1, 299622, Note_on_c, 7, 79, 127
1, 299622, Note_on_c, 7, 43, 127
1, 299734, Note_off_c, 7, 43, 127
1, 299734, Note_off_c, 7, 79, 127
1, 299735, Note_on_c, 6, 78, 127
1, 299735, Note_on_c, 10, 45, 127
1, 299847, Note_off_c, 10, 45, 127
1, 299847, Note_off_c, 6, 78, 127
1, 299848, Note_on_c, 4, 76, 127
1, 299848, Note_on_c, 12, 47, 127
1, 299960, Note_off_c, 12, 47, 127
1, 299960, Note_off_c, 4, 76, 127
1, 299961, Note_on_c, 2, 74, 127
1, 299961, Note_on_c, 0, 48, 127
1, 300073, Note_off_c, 0, 48, 127
1, 300073, Note_off_c, 2, 74, 127
1, 300074, Note_on_c, 0, 72, 127
1, 300074, Note_on_c, 2, 50, 127
1, 300186, Note_off_c, 2, 50, 127
1, 300186, Note_off_c, 0, 72, 127
1, 300187, Note_on_c, 12, 71, 127
1, 300187, Note_on_c, 4, 52, 127
1, 300299, Note_off_c, 4, 52, 127
1, 300299, Note_off_c, 12, 71, 127
1, 300300, Note_on_c, 10, 69, 127
1, 300300, Note_on_c, 6, 54, 127
1, 300412, Note_off_c, 6, 54, 127
1, 300412, Note_off_c, 10, 69, 127
1, 300413, Note_on_c, 7, 67, 127
1, 300413, Note_on_c, 7, 55, 127
1, 300525, Note_off_c, 7, 55, 127
1, 300525, Note_off_c, 7, 67, 127
1, 300526, Note_on_c, 7, 67, 127
1, 300526, Note_on_c, 7, 55, 127
1, 300638, Note_off_c, 7, 55, 127
1, 300638, Note_off_c, 7, 67, 127
1, 300639, Note_on_c, 6, 66, 127
1, 300639, Note_on_c, 10, 57, 127
1, 300751, Note_off_c, 10, 57, 127
1, 300751, Note_off_c, 6, 66, 127
1, 300752, Note_on_c, 4, 64, 127
1, 300752, Note_on_c, 12, 59, 127
1, 300864, Note_off_c, 12, 59, 127
1, 300864, Note_off_c, 4, 64, 127
1, 300865, Note_on_c, 2, 62, 127
1, 300865, Note_on_c, 0, 60, 127
1, 300977, Note_off_c, 0, 60, 127
1, 300977, Note_off_c, 2, 62, 127
1, 300978, Note_on_c, 0, 60, 127
1, 300978, Note_on_c, 2, 62, 127
1, 301090, Note_off_c, 2, 62, 127
1, 301090, Note_off_c, 0, 60, 127
1, 301091, Note_on_c, 12, 59, 127
1, 301091, Note_on_c, 4, 64, 127
1, 301203, Note_off_c, 4, 64, 127
1, 301203, Note_off_c, 12, 59, 127
1, 301204, Note_on_c, 10, 57, 127
1, 301204, Note_on_c, 6, 66, 127
1, 301316, Note_off_c, 6, 66, 127
1, 301316, Note_off_c, 10, 57, 127
1, 301317, Note_on_c, 7, 55, 127
1, 301317, Note_on_c, 7, 67, 127
1, 301429, Note_off_c, 7, 67, 127
1, 301429, Note_off_c, 7, 55, 127
1, 301430, Note_on_c, 7, 67, 127
1, 301430, Note_on_c, 7, 55, 127
1, 301542, Note_off_c, 7, 55, 127
1, 301542, Note_off_c, 7, 67, 127
1, 301543, Note_on_c, 10, 69, 127
1, 301543, Note_on_c, 6, 54, 127
1, 301655, Note_off_c, 6, 54, 127
1, 301655, Note_off_c, 10, 69, 127
1, 301656, Note_on_c, 12, 71, 127
1, 301656, Note_on_c, 4, 52, 127
1, 301768, Note_off_c, 4, 52, 127
1, 301768, Note_off_c, 12, 71, 127
1, 301769, Note_on_c, 0, 72, 127
1, 301769, Note_on_c, 2, 50, 127
1, 301881, Note_off_c, 2, 50, 127
1, 301881, Note_off_c, 0, 72, 127
1, 301882, Note_on_c, 2, 74, 127
1, 301882, Note_on_c, 0, 48, 127
1, 301994, Note_off_c, 0, 48, 127
1, 301994, Note_off_c, 2, 74, 127
1, 301995, Note_on_c, 4, 76, 127
1, 301995, Note_on_c, 12, 47, 127
1, 302107, Note_off_c, 12, 47, 127
1, 302107, Note_off_c, 4, 76, 127
1, 302108, Note_on_c, 6, 78, 127
1, 302108, Note_on_c, 10, 45, 127
1, 302220, Note_off_c, 10, 45, 127
1, 302220, Note_off_c, 6, 78, 127
1, 302221, Note_on_c, 7, 79, 127
1, 302221, Note_on_c, 7, 55, 127
1, 302221, Note_on_c, 7, 43, 127
1, 302221, Note_on_c, 12, 47, 127
1, 302221, Note_on_c, 2, 50, 127
1, 302333, Note_off_c, 7, 79, 127
1, 302334, Note_on_c, 2, 74, 127
1, 302446, Note_off_c, 2, 74, 127
1, 302447, Note_on_c, 7, 79, 127
1, 302559, Note_off_c, 7, 79, 127
1, 302560, Note_on_c, 12, 83, 127
1, 302672, Note_off_c, 12, 83, 127
1, 302673, Note_on_c, 7, 79, 127
1, 302785, Note_off_c, 7, 79, 127
1, 302786, Note_on_c, 2, 74, 127
1, 302898, Note_off_c, 2, 74, 127
1, 302899, Note_on_c, 7, 79, 127
1, 303010, Note_off_c, 2, 50, 127
1, 303010, Note_off_c, 12, 47, 127
1, 303010, Note_off_c, 7, 43, 127
1, 303010, Note_off_c, 7, 55, 127
1, 303011, Note_off_c, 7, 79, 127
1, 303012, Note_on_c, 12, 83, 127
1, 303124, Note_off_c, 12, 83, 127
1, 303125, Note_on_c, 7, 79, 127
1, 303125, Note_on_c, 2, 50, 127
1, 303125, Note_on_c, 7, 43, 127
1, 303125, Note_on_c, 12, 47, 127
1, 303125, Note_on_c, 7, 55, 127
1, 303237, Note_off_c, 7, 79, 127
1, 303238, Note_on_c, 2, 74, 127
1, 303350, Note_off_c, 2, 74, 127
1, 303351, Note_on_c, 7, 79, 127
1, 303463, Note_off_c, 7, 79, 127
1, 303464, Note_on_c, 10, 81, 127
1, 303519, Note_off_c, 10, 81, 127
1, 303520, Note_on_c, 12, 83, 127
1, 303575, Note_off_c, 12, 83, 127
1, 303576, Note_on_c, 7, 79, 127
1, 303688, Note_off_c, 7, 79, 127
1, 303689, Note_on_c, 2, 74, 127
1, 303801, Note_off_c, 2, 74, 127
1, 303802, Note_on_c, 7, 79, 127
1, 303857, Note_off_c, 7, 79, 127
1, 303858, Note_on_c, 10, 81, 127
1, 303912, Note_off_c, 7, 55, 127
1, 303912, Note_off_c, 12, 47, 127
1, 303912, Note_off_c, 7, 43, 127
1, 303912, Note_off_c, 2, 50, 127
1, 303913, Note_off_c, 10, 81, 127
1, 303914, Note_on_c, 12, 83, 127
1, 304026, Note_off_c, 12, 83, 127
1, 304027, Note_on_c, 7, 79, 127
1, 304027, Note_on_c, 7, 55, 127
1, 304027, Note_on_c, 12, 47, 127
1, 304027, Note_on_c, 2, 50, 127
1, 304027, Note_on_c, 7, 43, 127
1, 304139, Note_off_c, 7, 79, 127
1, 304140, Note_on_c, 2, 74, 127
1, 304252, Note_off_c, 2, 74, 127
1, 304253, Note_on_c, 4, 76, 127
1, 304365, Note_off_c, 4, 76, 127
1, 304366, Note_on_c, 6, 78, 127
1, 304478, Note_off_c, 6, 78, 127
1, 304479, Note_on_c, 7, 79, 127
1, 304591, Note_off_c, 7, 79, 127
1, 304592, Note_on_c, 2, 74, 127
1, 304704, Note_off_c, 2, 74, 127
1, 304705, Note_on_c, 4, 76, 127
1, 304817, Note_off_c, 4, 76, 127
1, 304818, Note_on_c, 6, 78, 127
1, 304930, Note_off_c, 6, 78, 127
1, 304931, Note_on_c, 7, 79, 127
1, 305043, Note_off_c, 7, 79, 127
1, 305043, Note_off_c, 7, 43, 127
1, 305043, Note_off_c, 2, 50, 127
1, 305043, Note_off_c, 12, 47, 127
1, 305043, Note_off_c, 7, 55, 127
1, 305044, Note_on_c, 2, 62, 127
1, 305044, Note_on_c, 2, 50, 127
1, 305156, Note_off_c, 2, 50, 127
1, 305156, Note_off_c, 2, 62, 127
1, 305157, Note_on_c, 4, 64, 127
1, 305157, Note_on_c, 4, 52, 127
1, 305269, Note_off_c, 4, 52, 127
1, 305269, Note_off_c, 4, 64, 127
1, 305270, Note_on_c, 6, 66, 127
1, 305270, Note_on_c, 6, 54, 127
1, 305382, Note_off_c, 6, 54, 127
1, 305382, Note_off_c, 6, 66, 127
1, 305383, Note_on_c, 7, 67, 127
1, 305383, Note_on_c, 7, 55, 127
1, 305495, Note_off_c, 7, 55, 127
1, 305495, Note_off_c, 7, 67, 127
1, 305496, Note_on_c, 12, 59, 127
1, 305496, Note_on_c, 12, 47, 127
1, 305608, Note_off_c, 12, 47, 127
1, 305608, Note_off_c, 12, 59, 127
1, 305609, Note_on_c, 0, 60, 127
1, 305609, Note_on_c, 0, 48, 127
1, 305721, Note_off_c, 0, 48, 127
1, 305721, Note_off_c, 0, 60, 127
1, 305722, Note_on_c, 2, 62, 127
1, 305722, Note_on_c, 2, 50, 127
1, 305834, Note_off_c, 2, 50, 127
1, 305834, Note_off_c, 2, 62, 127
1, 305835, Note_on_c, 7, 55, 127
1, 305835, Note_on_c, 7, 43, 127
1, 305947, Note_off_c, 7, 43, 127
1, 305964, Note_on_c, 2, 38, 127
1, 306060, Note_off_c, 7, 55, 127
1, 306076, Note_off_c, 2, 38, 127
1, 306077, Note_on_c, 4, 40, 127
1, 306077, Note_on_c, 7, 67, 127
1, 306077, Note_on_c, 7, 79, 127
1, 306189, Note_off_c, 4, 40, 127
1, 306190, Note_on_c, 6, 42, 127
1, 306277, Note_off_c, 7, 79, 127
1, 306277, Note_off_c, 7, 67, 127
1, 306302, Note_off_c, 6, 42, 127
1, 306303, Note_on_c, 7, 43, 127
1, 306303, Note_on_c, 6, 78, 127
1, 306303, Note_on_c, 6, 66, 127
1, 306415, Note_off_c, 7, 43, 127
1, 306416, Note_on_c, 2, 38, 127
1, 306503, Note_off_c, 6, 66, 127
1, 306503, Note_off_c, 6, 78, 127
1, 306528, Note_off_c, 2, 38, 127
1, 306529, Note_on_c, 4, 40, 127
1, 306529, Note_on_c, 4, 64, 127
1, 306529, Note_on_c, 4, 76, 127
1, 306641, Note_off_c, 4, 40, 127
1, 306642, Note_on_c, 6, 42, 127
1, 306729, Note_off_c, 4, 76, 127
1, 306729, Note_off_c, 4, 64, 127
1, 306754, Note_off_c, 6, 42, 127
1, 306755, Note_on_c, 7, 43, 127
1, 306755, Note_on_c, 2, 62, 127
1, 306755, Note_on_c, 2, 74, 127
1, 306867, Note_off_c, 7, 43, 127
1, 306868, Note_on_c, 2, 38, 127
1, 306955, Note_off_c, 2, 74, 127
1, 306955, Note_off_c, 2, 62, 127
1, 306980, Note_off_c, 2, 38, 127
1, 306981, Note_on_c, 4, 40, 127
1, 306981, Note_on_c, 0, 60, 127
1, 306981, Note_on_c, 0, 72, 127
1, 307093, Note_off_c, 4, 40, 127
1, 307094, Note_on_c, 6, 42, 127
1, 307181, Note_off_c, 0, 72, 127
1, 307181, Note_off_c, 0, 60, 127
1, 307206, Note_off_c, 6, 42, 127
1, 307207, Note_on_c, 7, 43, 127
1, 307207, Note_on_c, 12, 59, 127
1, 307207, Note_on_c, 12, 71, 127
1, 307319, Note_off_c, 7, 43, 127
1, 307320, Note_on_c, 2, 38, 127
1, 307407, Note_off_c, 12, 71, 127
1, 307407, Note_off_c, 12, 59, 127
1, 307432, Note_off_c, 2, 38, 127
1, 307433, Note_on_c, 4, 40, 127
1, 307433, Note_on_c, 10, 57, 127
1, 307433, Note_on_c, 10, 69, 127
1, 307545, Note_off_c, 4, 40, 127
1, 307546, Note_on_c, 6, 42, 127
1, 307633, Note_off_c, 10, 69, 127
1, 307633, Note_off_c, 10, 57, 127
1, 307658, Note_off_c, 6, 42, 127
1, 307667, Note_on_c, 7, 43, 127
1, 307667, Note_on_c, 12, 59, 127
1, 307667, Note_on_c, 7, 55, 127
1, 307667, Note_on_c, 2, 62, 127
1, 307667, Note_on_c, 7, 67, 127
1, 307779, Note_off_c, 7, 43, 127
1, 307796, Note_on_c, 2, 38, 127
1, 307908, Note_off_c, 2, 38, 127
1, 307909, Note_on_c, 4, 40, 127
1, 308021, Note_off_c, 4, 40, 127
1, 308022, Note_on_c, 6, 42, 127
1, 308134, Note_off_c, 6, 42, 127
1, 308135, Note_on_c, 7, 43, 127
1, 308247, Note_off_c, 7, 43, 127
1, 308248, Note_on_c, 10, 45, 127
1, 308360, Note_off_c, 10, 45, 127
1, 308367, Note_on_c, 12, 47, 127
1, 308457, Note_off_c, 7, 67, 127
1, 308457, Note_off_c, 2, 62, 127
1, 308457, Note_off_c, 7, 55, 127
1, 308457, Note_off_c, 12, 59, 127
1, 308490, Note_on_c, 0, 48, 127
1, 308490, Note_on_c, 7, 79, 127
1, 308490, Note_on_c, 2, 74, 127
1, 308490, Note_on_c, 12, 83, 127
1, 308492, Note_off_c, 12, 47, 127
1, 308602, Note_off_c, 12, 83, 127
1, 308602, Note_off_c, 2, 74, 127
1, 308602, Note_off_c, 7, 79, 127
1, 308602, Note_off_c, 0, 48, 127
1, 308603, Note_on_c, 2, 50, 127
1, 308603, Note_on_c, 0, 72, 127
1, 308603, Note_on_c, 10, 81, 127
1, 308603, Note_on_c, 7, 79, 127
1, 309054, Note_off_c, 7, 79, 127
1, 309054, Note_off_c, 10, 81, 127
1, 309054, Note_off_c, 0, 72, 127
1, 309054, Note_off_c, 2, 50, 127
1, 309071, Note_on_c, 6, 78, 127
1, 309071, Note_on_c, 10, 81, 127
1, 309071, Note_on_c, 0, 72, 127
1, 309071, Note_on_c, 2, 38, 127
1, 309522, Note_off_c, 2, 38, 127
1, 309522, Note_off_c, 0, 72, 127
1, 309522, Note_off_c, 10, 81, 127
1, 309522, Note_off_c, 6, 78, 127
1, 309547, Note_on_c, 7, 43, 127
1, 309547, Note_on_c, 12, 71, 127
1, 309547, Note_on_c, 7, 79, 127
1, 309547, Note_on_c, 2, 74, 127
1, 310959, Note_off_c, 2, 74, 127
1, 310959, Note_off_c, 7, 79, 127
1, 310959, Note_off_c, 12, 71, 127
1, 310959, Note_off_c, 7, 43, 127
1, 316416, End_track
0, 0, End_of_file
