0, 0, Header, 1, 10, 384
1, 0, Start_track
1, 0, Time_signature, 2, 2, 96, 8
1, 0, Sequencer_specific, 3, 0, 0, 65
1, 0, Sequencer_specific, 5, 0, 0, 119, 14, 1
1, 0, Tempo, 545454
1, 20736, Tempo, 666666
1, 21120, Tempo, 545454
1, 66816, Tempo, 666666
1, 67200, Tempo, 545454
1, 123648, Tempo, 545454
1, 123724, Tempo, 550458
1, 123800, Tempo, 555555
1, 123876, Tempo, 560747
1, 123952, Tempo, 566037
1, 124028, Tempo, 571428
1, 124104, Tempo, 576923
1, 124180, Tempo, 582524
1, 124256, Tempo, 588235
1, 124332, Tempo, 594059
1, 124408, Tempo, 600000
1, 124416, Tempo, 666666
1, 124608, Tempo, 545454
1, 145148, Tempo, 600000
1, 145152, Tempo, 571428
1, 145196, Tempo, 576923
1, 145204, Tempo, 576923
1, 145240, Tempo, 582524
1, 145272, Tempo, 582524
1, 145284, Tempo, 588235
1, 145328, Tempo, 594059
1, 145372, Tempo, 600000
1, 145416, Tempo, 606060
1, 145460, Tempo, 612244
1, 145504, Tempo, 618556
1, 145548, Tempo, 625000
1, 145592, Tempo, 631578
1, 145636, Tempo, 638297
1, 145680, Tempo, 645161
1, 145724, Tempo, 652173
1, 145768, Tempo, 659340
1, 145812, Tempo, 666666
1, 145856, Tempo, 674157
1, 145900, Tempo, 681818
1, 145944, Tempo, 689655
1, 145988, Tempo, 697674
1, 146032, Tempo, 705882
1, 146076, Tempo, 714285
1, 146120, Tempo, 722891
1, 146164, Tempo, 731707
1, 146208, Tempo, 740740
1, 146252, Tempo, 750000
1, 146296, Tempo, 759493
1, 146340, Tempo, 769230
1, 146384, Tempo, 779220
1, 146428, Tempo, 789473
1, 146472, Tempo, 800000
1, 146516, Tempo, 810810
1, 146560, Tempo, 821917
1, 146604, Tempo, 833333
1, 146648, Tempo, 845070
1, 146692, Tempo, 857142
1, 146736, Tempo, 869565
1, 146780, Tempo, 882352
1, 146824, Tempo, 895522
1, 146868, Tempo, 909090
1, 146912, Tempo, 923076
1, 146912, End_track
2, 0, Start_track
2, 0, Title_t, "J.S. Bach: Italian Concerto, BWV 971 (first mvmt.)"
2, 0, End_track
3, 0, Start_track
3, 0, Title_t, "Sequence copyright 1996 by T. L. Hubeart Jr."
3, 0, End_track
4, 0, Start_track
4, 0, Title_t, "Manual 1 RH"
4, 0, Control_c, 0, 0, 0
4, 0, Program_c, 0, 6
4, 0, Control_c, 0, 7, 100
4, 0, Key_signature, -1, "minor"
4, 192, Note_on_c, 0, 77, 127
4, 320, Note_off_c, 0, 77, 83
4, 384, Note_on_c, 0, 69, 127
4, 384, Note_on_c, 0, 65, 127
4, 512, Note_off_c, 0, 69, 83
4, 512, Note_off_c, 0, 65, 83
4, 576, Note_on_c, 0, 70, 127
4, 576, Note_on_c, 0, 67, 127
4, 704, Note_off_c, 0, 70, 83
4, 704, Note_off_c, 0, 67, 83
4, 768, Note_on_c, 0, 72, 127
4, 768, Note_on_c, 0, 69, 127
4, 1148, Note_off_c, 0, 72, 83
4, 1148, Note_off_c, 0, 69, 83
4, 1152, Note_on_c, 0, 74, 127
4, 1152, Note_on_c, 0, 70, 127
4, 1408, Note_off_c, 0, 74, 83
4, 1408, Note_off_c, 0, 70, 83
4, 1536, Note_on_c, 0, 69, 127
4, 1536, Note_on_c, 0, 65, 127
4, 1536, Note_on_c, 0, 72, 127
4, 1664, Note_off_c, 0, 72, 83
4, 1728, Note_on_c, 0, 77, 127
4, 1792, Note_off_c, 0, 69, 83
4, 1920, Note_on_c, 0, 70, 127
4, 1984, Note_off_c, 0, 77, 83
4, 2048, Note_off_c, 0, 65, 83
4, 2112, Note_on_c, 0, 75, 127
4, 2176, Note_off_c, 0, 70, 83
4, 2176, Note_off_c, 0, 75, 83
4, 2208, Note_on_c, 0, 74, 127
4, 2272, Note_off_c, 0, 74, 83
4, 2304, Note_on_c, 0, 74, 127
4, 2304, Note_on_c, 0, 70, 127
4, 2304, Note_on_c, 0, 65, 127
4, 2492, Note_off_c, 0, 74, 83
4, 2492, Note_off_c, 0, 70, 83
4, 2496, Note_on_c, 0, 72, 127
4, 2496, Note_on_c, 0, 69, 127
4, 2624, Note_off_c, 0, 72, 83
4, 2624, Note_off_c, 0, 69, 83
4, 2684, Note_off_c, 0, 65, 83
4, 3264, Note_on_c, 0, 84, 127
4, 3392, Note_off_c, 0, 84, 83
4, 3456, Note_on_c, 0, 76, 127
4, 3456, Note_on_c, 0, 72, 127
4, 3584, Note_off_c, 0, 76, 83
4, 3584, Note_off_c, 0, 72, 83
4, 3648, Note_on_c, 0, 77, 127
4, 3648, Note_on_c, 0, 74, 127
4, 3776, Note_off_c, 0, 77, 83
4, 3776, Note_off_c, 0, 74, 83
4, 3840, Note_on_c, 0, 79, 127
4, 3840, Note_on_c, 0, 76, 127
4, 4032, Note_on_c, 0, 72, 127
4, 4096, Note_off_c, 0, 79, 83
4, 4096, Note_off_c, 0, 76, 83
4, 4160, Note_off_c, 0, 72, 83
4, 4224, Note_on_c, 0, 81, 127
4, 4224, Note_on_c, 0, 77, 127
4, 4224, Note_on_c, 0, 69, 127
4, 4352, Note_off_c, 0, 69, 83
4, 4416, Note_on_c, 0, 65, 127
4, 4480, Note_off_c, 0, 81, 83
4, 4480, Note_off_c, 0, 77, 83
4, 4544, Note_off_c, 0, 65, 83
4, 4608, Note_on_c, 0, 72, 127
4, 4608, Note_on_c, 0, 76, 127
4, 4608, Note_on_c, 0, 79, 127
4, 4796, Note_off_c, 0, 79, 83
4, 4800, Note_on_c, 0, 84, 127
4, 4988, Note_off_c, 0, 76, 83
4, 4992, Note_on_c, 0, 77, 127
4, 5180, Note_off_c, 0, 84, 83
4, 5184, Note_on_c, 0, 82, 127
4, 5276, Note_off_c, 0, 82, 83
4, 5280, Note_on_c, 0, 81, 127
4, 5372, Note_off_c, 0, 72, 83
4, 5372, Note_off_c, 0, 77, 83
4, 5372, Note_off_c, 0, 81, 83
4, 5376, Note_on_c, 0, 72, 127
4, 5376, Note_on_c, 0, 81, 127
4, 5376, Note_on_c, 0, 77, 127
4, 5564, Note_off_c, 0, 81, 83
4, 5564, Note_off_c, 0, 77, 83
4, 5568, Note_on_c, 0, 79, 127
4, 5568, Note_on_c, 0, 76, 127
4, 5696, Note_off_c, 0, 79, 83
4, 5696, Note_off_c, 0, 76, 83
4, 5756, Note_off_c, 0, 72, 83
4, 5856, Note_on_c, 0, 72, 127
4, 5920, Note_off_c, 0, 72, 83
4, 5952, Note_on_c, 0, 70, 127
4, 6016, Note_off_c, 0, 70, 83
4, 6048, Note_on_c, 0, 69, 127
4, 6112, Note_off_c, 0, 69, 83
4, 6144, Note_on_c, 0, 70, 127
4, 6272, Note_off_c, 0, 70, 83
4, 6336, Note_on_c, 0, 79, 127
4, 6592, Note_off_c, 0, 79, 83
4, 6624, Note_on_c, 0, 70, 127
4, 6688, Note_off_c, 0, 70, 83
4, 6720, Note_on_c, 0, 69, 127
4, 6784, Note_off_c, 0, 69, 83
4, 6816, Note_on_c, 0, 67, 127
4, 6880, Note_off_c, 0, 67, 83
4, 6912, Note_on_c, 0, 69, 127
4, 7004, Note_off_c, 0, 69, 83
4, 7008, Note_on_c, 0, 67, 127
4, 7100, Note_off_c, 0, 67, 83
4, 7104, Note_on_c, 0, 65, 127
4, 7168, Note_off_c, 0, 65, 83
4, 7200, Note_on_c, 0, 67, 127
4, 7264, Note_off_c, 0, 67, 83
4, 7296, Note_on_c, 0, 69, 127
4, 7360, Note_off_c, 0, 69, 83
4, 7392, Note_on_c, 0, 70, 127
4, 7456, Note_off_c, 0, 70, 83
4, 7488, Note_on_c, 0, 72, 127
4, 7552, Note_off_c, 0, 72, 83
4, 7584, Note_on_c, 0, 74, 127
4, 7648, Note_off_c, 0, 74, 83
4, 7680, Note_on_c, 0, 75, 127
4, 7808, Note_off_c, 0, 75, 83
4, 7872, Note_on_c, 0, 84, 127
4, 8128, Note_off_c, 0, 84, 83
4, 8160, Note_on_c, 0, 75, 127
4, 8224, Note_off_c, 0, 75, 83
4, 8256, Note_on_c, 0, 74, 127
4, 8320, Note_off_c, 0, 74, 83
4, 8352, Note_on_c, 0, 72, 127
4, 8416, Note_off_c, 0, 72, 83
4, 8448, Note_on_c, 0, 74, 127
4, 8540, Note_off_c, 0, 74, 83
4, 8544, Note_on_c, 0, 72, 127
4, 8636, Note_off_c, 0, 72, 83
4, 8640, Note_on_c, 0, 70, 127
4, 8704, Note_off_c, 0, 70, 83
4, 8736, Note_on_c, 0, 72, 127
4, 8800, Note_off_c, 0, 72, 83
4, 8832, Note_on_c, 0, 74, 127
4, 8896, Note_off_c, 0, 74, 83
4, 8928, Note_on_c, 0, 76, 127
4, 8992, Note_off_c, 0, 76, 83
4, 9024, Note_on_c, 0, 77, 127
4, 9024, Note_on_c, 0, 70, 127
4, 9088, Note_off_c, 0, 77, 83
4, 9120, Note_on_c, 0, 79, 127
4, 9152, Note_off_c, 0, 70, 83
4, 9184, Note_off_c, 0, 79, 83
4, 9216, Note_on_c, 0, 80, 127
4, 9216, Note_on_c, 0, 71, 127
4, 9216, Note_on_c, 0, 65, 127
4, 9216, Note_on_c, 0, 62, 127
4, 9280, Note_off_c, 0, 80, 83
4, 9312, Note_on_c, 0, 79, 127
4, 9356, Note_off_c, 0, 79, 83
4, 9360, Note_on_c, 0, 77, 127
4, 9404, Note_off_c, 0, 77, 83
4, 9408, Note_on_c, 0, 79, 127
4, 9596, Note_off_c, 0, 71, 83
4, 9596, Note_off_c, 0, 65, 83
4, 9596, Note_off_c, 0, 62, 83
4, 9600, Note_on_c, 0, 67, 127
4, 9600, Note_on_c, 0, 62, 127
4, 9600, Note_on_c, 0, 59, 127
4, 9664, Note_off_c, 0, 79, 83
4, 9696, Note_on_c, 0, 77, 127
4, 9740, Note_off_c, 0, 77, 83
4, 9744, Note_on_c, 0, 76, 127
4, 9788, Note_off_c, 0, 76, 83
4, 9792, Note_on_c, 0, 77, 127
4, 9980, Note_off_c, 0, 67, 83
4, 9980, Note_off_c, 0, 62, 83
4, 9980, Note_off_c, 0, 59, 83
4, 10048, Note_off_c, 0, 77, 83
4, 10080, Note_on_c, 0, 76, 127
4, 10128, Note_off_c, 0, 76, 83
4, 10128, Note_on_c, 0, 74, 127
4, 10176, Note_off_c, 0, 74, 83
4, 10176, Note_on_c, 0, 76, 127
4, 10460, Note_off_c, 0, 76, 83
4, 10464, Note_on_c, 0, 79, 127
4, 10556, Note_off_c, 0, 79, 83
4, 10560, Note_on_c, 0, 76, 127
4, 10652, Note_off_c, 0, 76, 83
4, 10656, Note_on_c, 0, 72, 127
4, 10748, Note_off_c, 0, 72, 83
4, 10752, Note_on_c, 0, 70, 127
4, 10816, Note_off_c, 0, 70, 83
4, 10848, Note_on_c, 0, 79, 127
4, 10940, Note_off_c, 0, 79, 83
4, 10944, Note_on_c, 0, 76, 127
4, 11036, Note_off_c, 0, 76, 83
4, 11040, Note_on_c, 0, 72, 127
4, 11132, Note_off_c, 0, 72, 83
4, 11136, Note_on_c, 0, 70, 127
4, 11200, Note_off_c, 0, 70, 83
4, 11232, Note_on_c, 0, 79, 127
4, 11324, Note_off_c, 0, 79, 83
4, 11328, Note_on_c, 0, 76, 127
4, 11328, Note_on_c, 0, 67, 127
4, 11420, Note_off_c, 0, 76, 83
4, 11424, Note_on_c, 0, 72, 127
4, 11456, Note_off_c, 0, 67, 83
4, 11516, Note_off_c, 0, 72, 83
4, 11520, Note_on_c, 0, 70, 127
4, 11520, Note_on_c, 0, 64, 127
4, 11584, Note_off_c, 0, 70, 83
4, 11616, Note_on_c, 0, 79, 127
4, 11648, Note_off_c, 0, 64, 83
4, 11708, Note_off_c, 0, 79, 83
4, 11712, Note_on_c, 0, 76, 127
4, 11712, Note_on_c, 0, 60, 127
4, 11804, Note_off_c, 0, 76, 83
4, 11808, Note_on_c, 0, 72, 127
4, 11840, Note_off_c, 0, 60, 83
4, 11900, Note_off_c, 0, 72, 83
4, 11904, Note_on_c, 0, 70, 127
4, 11968, Note_off_c, 0, 70, 83
4, 12000, Note_on_c, 0, 79, 127
4, 12092, Note_off_c, 0, 79, 83
4, 12096, Note_on_c, 0, 76, 127
4, 12188, Note_off_c, 0, 76, 83
4, 12192, Note_on_c, 0, 72, 127
4, 12284, Note_off_c, 0, 72, 83
4, 12288, Note_on_c, 0, 69, 127
4, 12352, Note_off_c, 0, 69, 83
4, 12384, Note_on_c, 0, 81, 127
4, 12476, Note_off_c, 0, 81, 83
4, 12480, Note_on_c, 0, 77, 127
4, 12572, Note_off_c, 0, 77, 83
4, 12576, Note_on_c, 0, 73, 127
4, 12668, Note_off_c, 0, 73, 83
4, 12672, Note_on_c, 0, 72, 127
4, 12736, Note_off_c, 0, 72, 83
4, 12768, Note_on_c, 0, 81, 127
4, 12860, Note_off_c, 0, 81, 83
4, 12864, Note_on_c, 0, 77, 127
4, 12864, Note_on_c, 0, 69, 127
4, 12956, Note_off_c, 0, 77, 83
4, 12960, Note_on_c, 0, 73, 127
4, 13052, Note_off_c, 0, 69, 83
4, 13052, Note_off_c, 0, 73, 83
4, 13056, Note_on_c, 0, 72, 127
4, 13120, Note_off_c, 0, 72, 83
4, 13152, Note_on_c, 0, 81, 127
4, 13244, Note_off_c, 0, 81, 83
4, 13248, Note_on_c, 0, 77, 127
4, 13340, Note_off_c, 0, 77, 83
4, 13344, Note_on_c, 0, 73, 127
4, 13436, Note_off_c, 0, 73, 83
4, 13440, Note_on_c, 0, 72, 127
4, 13504, Note_off_c, 0, 72, 83
4, 13536, Note_on_c, 0, 81, 127
4, 13628, Note_off_c, 0, 81, 83
4, 13632, Note_on_c, 0, 77, 127
4, 13724, Note_off_c, 0, 77, 83
4, 13728, Note_on_c, 0, 75, 127
4, 13820, Note_off_c, 0, 75, 83
4, 13824, Note_on_c, 0, 74, 127
4, 13888, Note_off_c, 0, 74, 83
4, 13920, Note_on_c, 0, 83, 127
4, 14012, Note_off_c, 0, 83, 83
4, 14016, Note_on_c, 0, 80, 127
4, 14108, Note_off_c, 0, 80, 83
4, 14112, Note_on_c, 0, 77, 127
4, 14204, Note_off_c, 0, 77, 83
4, 14208, Note_on_c, 0, 74, 127
4, 14272, Note_off_c, 0, 74, 83
4, 14304, Note_on_c, 0, 83, 127
4, 14396, Note_off_c, 0, 83, 83
4, 14400, Note_on_c, 0, 80, 127
4, 14492, Note_off_c, 0, 80, 83
4, 14496, Note_on_c, 0, 77, 127
4, 14588, Note_off_c, 0, 77, 83
4, 14592, Note_on_c, 0, 74, 127
4, 14656, Note_off_c, 0, 74, 83
4, 14688, Note_on_c, 0, 83, 127
4, 14780, Note_off_c, 0, 83, 83
4, 14784, Note_on_c, 0, 80, 127
4, 14876, Note_off_c, 0, 80, 83
4, 14880, Note_on_c, 0, 77, 127
4, 14972, Note_off_c, 0, 77, 83
4, 14976, Note_on_c, 0, 74, 127
4, 15040, Note_off_c, 0, 74, 83
4, 15072, Note_on_c, 0, 83, 127
4, 15164, Note_off_c, 0, 83, 83
4, 15168, Note_on_c, 0, 80, 127
4, 15260, Note_off_c, 0, 80, 83
4, 15264, Note_on_c, 0, 77, 127
4, 15356, Note_off_c, 0, 77, 83
4, 15360, Note_on_c, 0, 76, 127
4, 15452, Note_off_c, 0, 76, 83
4, 15456, Note_on_c, 0, 84, 127
4, 15548, Note_off_c, 0, 84, 83
4, 15552, Note_on_c, 0, 79, 127
4, 15644, Note_off_c, 0, 79, 83
4, 15648, Note_on_c, 0, 76, 127
4, 15740, Note_off_c, 0, 76, 83
4, 15744, Note_on_c, 0, 72, 127
4, 15808, Note_off_c, 0, 72, 83
4, 15840, Note_on_c, 0, 76, 127
4, 15904, Note_off_c, 0, 76, 83
4, 15936, Note_on_c, 0, 74, 127
4, 16000, Note_off_c, 0, 74, 83
4, 16032, Note_on_c, 0, 77, 127
4, 16096, Note_off_c, 0, 77, 83
4, 16128, Note_on_c, 0, 76, 127
4, 16220, Note_off_c, 0, 76, 83
4, 16224, Note_on_c, 0, 79, 127
4, 16316, Note_off_c, 0, 79, 83
4, 16320, Note_on_c, 0, 76, 127
4, 16412, Note_off_c, 0, 76, 83
4, 16416, Note_on_c, 0, 72, 127
4, 16508, Note_off_c, 0, 72, 83
4, 16512, Note_on_c, 0, 67, 127
4, 16576, Note_off_c, 0, 67, 83
4, 16608, Note_on_c, 0, 70, 127
4, 16672, Note_off_c, 0, 70, 83
4, 16704, Note_on_c, 0, 69, 127
4, 16768, Note_off_c, 0, 69, 83
4, 16800, Note_on_c, 0, 72, 127
4, 16864, Note_off_c, 0, 72, 83
4, 16896, Note_on_c, 0, 70, 127
4, 16988, Note_off_c, 0, 70, 83
4, 16992, Note_on_c, 0, 74, 127
4, 17084, Note_off_c, 0, 74, 83
4, 17088, Note_on_c, 0, 70, 127
4, 17180, Note_off_c, 0, 70, 83
4, 17184, Note_on_c, 0, 67, 127
4, 17276, Note_off_c, 0, 67, 83
4, 17280, Note_on_c, 0, 64, 127
4, 17344, Note_off_c, 0, 64, 83
4, 17376, Note_on_c, 0, 67, 127
4, 17440, Note_off_c, 0, 67, 83
4, 17472, Note_on_c, 0, 65, 127
4, 17536, Note_off_c, 0, 65, 83
4, 17568, Note_on_c, 0, 69, 127
4, 17632, Note_off_c, 0, 69, 83
4, 17664, Note_on_c, 0, 67, 127
4, 17756, Note_off_c, 0, 67, 83
4, 17760, Note_on_c, 0, 70, 127
4, 17852, Note_off_c, 0, 70, 83
4, 17856, Note_on_c, 0, 67, 127
4, 17948, Note_off_c, 0, 67, 83
4, 17952, Note_on_c, 0, 64, 127
4, 18044, Note_off_c, 0, 64, 83
4, 18048, Note_on_c, 0, 60, 127
4, 18112, Note_off_c, 0, 60, 83
4, 18144, Note_on_c, 0, 70, 127
4, 18236, Note_off_c, 0, 70, 83
4, 18240, Note_on_c, 0, 69, 127
4, 18332, Note_off_c, 0, 69, 83
4, 18336, Note_on_c, 0, 67, 127
4, 18428, Note_off_c, 0, 67, 83
4, 18432, Note_on_c, 0, 69, 127
4, 18524, Note_off_c, 0, 69, 83
4, 18528, Note_on_c, 0, 65, 127
4, 18620, Note_off_c, 0, 65, 83
4, 18624, Note_on_c, 0, 67, 127
4, 18716, Note_off_c, 0, 67, 83
4, 18720, Note_on_c, 0, 69, 127
4, 18812, Note_off_c, 0, 69, 83
4, 18816, Note_on_c, 0, 70, 127
4, 18908, Note_off_c, 0, 70, 83
4, 18912, Note_on_c, 0, 72, 127
4, 19004, Note_off_c, 0, 72, 83
4, 19008, Note_on_c, 0, 74, 127
4, 19100, Note_off_c, 0, 74, 83
4, 19104, Note_on_c, 0, 76, 127
4, 19196, Note_off_c, 0, 76, 83
4, 19200, Note_on_c, 0, 77, 127
4, 19292, Note_off_c, 0, 77, 83
4, 19296, Note_on_c, 0, 76, 127
4, 19388, Note_off_c, 0, 76, 83
4, 19392, Note_on_c, 0, 74, 127
4, 19484, Note_off_c, 0, 74, 83
4, 19488, Note_on_c, 0, 72, 127
4, 19580, Note_off_c, 0, 72, 83
4, 19584, Note_on_c, 0, 84, 127
4, 19712, Note_off_c, 0, 84, 83
4, 19776, Note_on_c, 0, 77, 127
4, 19776, Note_on_c, 0, 72, 127
4, 19776, Note_on_c, 0, 69, 127
4, 19904, Note_off_c, 0, 77, 83
4, 19904, Note_off_c, 0, 72, 83
4, 19904, Note_off_c, 0, 69, 83
4, 19968, Note_on_c, 0, 77, 127
4, 19968, Note_on_c, 0, 72, 127
4, 19968, Note_on_c, 0, 69, 127
4, 20348, Note_off_c, 0, 77, 83
4, 20348, Note_off_c, 0, 72, 83
4, 20348, Note_off_c, 0, 69, 83
4, 20352, Note_on_c, 0, 67, 127
4, 20352, Note_on_c, 0, 76, 127
4, 20352, Note_on_c, 0, 72, 127
4, 20608, Note_off_c, 0, 67, 83
4, 20736, Note_on_c, 0, 65, 127
4, 20800, Note_off_c, 0, 76, 83
4, 20832, Note_on_c, 0, 77, 127
4, 20864, Note_off_c, 0, 72, 83
4, 20928, Note_on_c, 0, 71, 127
4, 20992, Note_off_c, 0, 65, 83
4, 21024, Note_off_c, 0, 77, 83
4, 21184, Note_off_c, 0, 71, 83
4, 21216, Note_on_c, 0, 74, 127
4, 21280, Note_off_c, 0, 74, 83
4, 21312, Note_on_c, 0, 72, 127
4, 21376, Note_off_c, 0, 72, 83
4, 21408, Note_on_c, 0, 70, 127
4, 21472, Note_off_c, 0, 70, 83
4, 21504, Note_on_c, 0, 69, 127
4, 21600, Note_on_c, 0, 72, 127
4, 21692, Note_off_c, 0, 72, 83
4, 21696, Note_on_c, 0, 77, 127
4, 21788, Note_off_c, 0, 69, 83
4, 21792, Note_on_c, 0, 69, 127
4, 21884, Note_off_c, 0, 69, 83
4, 21888, Note_on_c, 0, 67, 127
4, 22076, Note_off_c, 0, 77, 83
4, 22080, Note_on_c, 0, 76, 127
4, 22080, Note_on_c, 0, 72, 127
4, 22080, Note_on_c, 0, 70, 127
4, 22268, Note_off_c, 0, 67, 83
4, 22268, Note_off_c, 0, 76, 83
4, 22268, Note_off_c, 0, 72, 83
4, 22268, Note_off_c, 0, 70, 83
4, 22272, Note_on_c, 0, 77, 127
4, 22272, Note_on_c, 0, 72, 127
4, 22272, Note_on_c, 0, 69, 127
4, 22272, Note_on_c, 0, 65, 127
4, 22528, Note_off_c, 0, 77, 83
4, 22528, Note_off_c, 0, 72, 83
4, 22528, Note_off_c, 0, 69, 83
4, 22528, Note_off_c, 0, 65, 83
4, 22848, Note_on_c, 0, 72, 127
4, 23036, Note_off_c, 0, 72, 83
4, 23040, Note_on_c, 0, 74, 127
4, 23104, Note_off_c, 0, 74, 83
4, 23136, Note_on_c, 0, 72, 127
4, 23200, Note_off_c, 0, 72, 83
4, 23232, Note_on_c, 0, 74, 127
4, 23516, Note_off_c, 0, 74, 83
4, 23520, Note_on_c, 0, 77, 127
4, 23612, Note_off_c, 0, 77, 83
4, 23616, Note_on_c, 0, 75, 127
4, 23708, Note_off_c, 0, 75, 83
4, 23712, Note_on_c, 0, 74, 127
4, 23804, Note_off_c, 0, 74, 83
4, 23808, Note_on_c, 0, 72, 127
4, 23872, Note_off_c, 0, 72, 83
4, 23904, Note_on_c, 0, 76, 127
4, 23968, Note_off_c, 0, 76, 83
4, 24000, Note_on_c, 0, 77, 127
4, 24284, Note_off_c, 0, 77, 83
4, 24288, Note_on_c, 0, 76, 127
4, 24380, Note_off_c, 0, 76, 83
4, 24384, Note_on_c, 0, 74, 127
4, 24476, Note_off_c, 0, 74, 83
4, 24480, Note_on_c, 0, 72, 127
4, 24572, Note_off_c, 0, 72, 83
4, 24576, Note_on_c, 0, 70, 127
4, 24668, Note_off_c, 0, 70, 83
4, 24672, Note_on_c, 0, 69, 127
4, 24764, Note_off_c, 0, 69, 83
4, 24768, Note_on_c, 0, 70, 127
4, 24860, Note_off_c, 0, 70, 83
4, 24864, Note_on_c, 0, 74, 127
4, 24956, Note_off_c, 0, 74, 83
4, 24960, Note_on_c, 0, 79, 127
4, 25088, Note_off_c, 0, 79, 83
4, 25152, Note_on_c, 0, 70, 127
4, 25280, Note_off_c, 0, 70, 83
4, 25344, Note_on_c, 0, 70, 127
4, 25392, Note_off_c, 0, 70, 83
4, 25392, Note_on_c, 0, 72, 127
4, 25440, Note_off_c, 0, 72, 83
4, 25440, Note_on_c, 0, 70, 127
4, 25488, Note_off_c, 0, 70, 83
4, 25488, Note_on_c, 0, 72, 127
4, 25536, Note_off_c, 0, 72, 83
4, 25536, Note_on_c, 0, 69, 127
4, 25664, Note_off_c, 0, 69, 83
4, 25920, Note_on_c, 0, 69, 127
4, 26048, Note_off_c, 0, 69, 83
4, 26112, Note_on_c, 0, 67, 127
4, 26204, Note_off_c, 0, 67, 83
4, 26208, Note_on_c, 0, 70, 127
4, 26272, Note_off_c, 0, 70, 83
4, 26304, Note_on_c, 0, 70, 127
4, 26396, Note_off_c, 0, 70, 83
4, 26400, Note_on_c, 0, 69, 127
4, 26464, Note_off_c, 0, 69, 83
4, 26496, Note_on_c, 0, 69, 127
4, 26588, Note_off_c, 0, 69, 83
4, 26592, Note_on_c, 0, 77, 127
4, 26656, Note_off_c, 0, 77, 83
4, 26688, Note_on_c, 0, 77, 127
4, 26780, Note_off_c, 0, 77, 83
4, 26784, Note_on_c, 0, 76, 127
4, 26848, Note_off_c, 0, 76, 83
4, 26880, Note_on_c, 0, 76, 127
4, 26972, Note_off_c, 0, 76, 83
4, 26976, Note_on_c, 0, 74, 127
4, 27040, Note_off_c, 0, 74, 83
4, 27072, Note_on_c, 0, 74, 127
4, 27164, Note_off_c, 0, 74, 83
4, 27168, Note_on_c, 0, 72, 127
4, 27232, Note_off_c, 0, 72, 83
4, 27264, Note_on_c, 0, 72, 127
4, 27356, Note_off_c, 0, 72, 83
4, 27360, Note_on_c, 0, 70, 127
4, 27424, Note_off_c, 0, 70, 83
4, 27456, Note_on_c, 0, 70, 127
4, 27548, Note_off_c, 0, 70, 83
4, 27552, Note_on_c, 0, 69, 127
4, 27616, Note_off_c, 0, 69, 83
4, 27648, Note_on_c, 0, 67, 127
4, 27712, Note_off_c, 0, 67, 83
4, 27744, Note_on_c, 0, 70, 127
4, 27808, Note_off_c, 0, 70, 83
4, 27840, Note_on_c, 0, 72, 127
4, 27884, Note_on_c, 0, 70, 127
4, 27904, Note_off_c, 0, 72, 83
4, 27936, Note_on_c, 0, 69, 127
4, 27948, Note_off_c, 0, 70, 83
4, 28000, Note_off_c, 0, 69, 83
4, 28032, Note_on_c, 0, 69, 127
4, 28124, Note_off_c, 0, 69, 83
4, 28128, Note_on_c, 0, 77, 127
4, 28192, Note_off_c, 0, 77, 83
4, 28224, Note_on_c, 0, 79, 127
4, 28268, Note_on_c, 0, 77, 127
4, 28288, Note_off_c, 0, 79, 83
4, 28320, Note_on_c, 0, 76, 127
4, 28332, Note_off_c, 0, 77, 83
4, 28384, Note_off_c, 0, 76, 83
4, 28416, Note_on_c, 0, 77, 127
4, 28464, Note_on_c, 0, 76, 127
4, 28480, Note_off_c, 0, 77, 83
4, 28512, Note_on_c, 0, 74, 127
4, 28528, Note_off_c, 0, 76, 83
4, 28576, Note_off_c, 0, 74, 83
4, 28608, Note_on_c, 0, 76, 127
4, 28652, Note_on_c, 0, 74, 127
4, 28672, Note_off_c, 0, 76, 83
4, 28704, Note_on_c, 0, 72, 127
4, 28716, Note_off_c, 0, 74, 83
4, 28768, Note_off_c, 0, 72, 83
4, 28800, Note_on_c, 0, 74, 127
4, 28848, Note_on_c, 0, 72, 127
4, 28864, Note_off_c, 0, 74, 83
4, 28896, Note_on_c, 0, 70, 127
4, 28912, Note_off_c, 0, 72, 83
4, 28960, Note_off_c, 0, 70, 83
4, 28992, Note_on_c, 0, 72, 127
4, 29036, Note_on_c, 0, 70, 127
4, 29056, Note_off_c, 0, 72, 83
4, 29088, Note_on_c, 0, 69, 127
4, 29100, Note_off_c, 0, 70, 83
4, 29152, Note_off_c, 0, 69, 83
4, 29184, Note_on_c, 0, 70, 127
4, 29232, Note_on_c, 0, 69, 127
4, 29248, Note_off_c, 0, 70, 83
4, 29280, Note_on_c, 0, 67, 127
4, 29296, Note_off_c, 0, 69, 83
4, 29344, Note_off_c, 0, 67, 83
4, 29376, Note_on_c, 0, 69, 127
4, 29632, Note_off_c, 0, 69, 83
4, 29664, Note_on_c, 0, 72, 127
4, 29728, Note_off_c, 0, 72, 83
4, 29760, Note_on_c, 0, 70, 127
4, 29824, Note_off_c, 0, 70, 83
4, 29856, Note_on_c, 0, 69, 127
4, 29920, Note_off_c, 0, 69, 83
4, 29952, Note_on_c, 0, 67, 127
4, 30044, Note_off_c, 0, 67, 83
4, 30048, Note_on_c, 0, 71, 127
4, 30140, Note_off_c, 0, 71, 83
4, 30144, Note_on_c, 0, 72, 127
4, 30428, Note_off_c, 0, 72, 83
4, 30432, Note_on_c, 0, 71, 127
4, 30524, Note_off_c, 0, 71, 83
4, 30528, Note_on_c, 0, 69, 127
4, 30620, Note_off_c, 0, 69, 83
4, 30624, Note_on_c, 0, 67, 127
4, 30716, Note_off_c, 0, 67, 83
4, 30720, Note_on_c, 0, 65, 127
4, 30812, Note_off_c, 0, 65, 83
4, 30816, Note_on_c, 0, 64, 127
4, 30908, Note_off_c, 0, 64, 83
4, 30912, Note_on_c, 0, 65, 127
4, 31004, Note_off_c, 0, 65, 83
4, 31008, Note_on_c, 0, 69, 127
4, 31100, Note_off_c, 0, 69, 83
4, 31104, Note_on_c, 0, 74, 127
4, 31232, Note_off_c, 0, 74, 83
4, 31296, Note_on_c, 0, 65, 127
4, 31424, Note_off_c, 0, 65, 83
4, 31460, Note_on_c, 0, 65, 127
4, 31488, Note_on_c, 0, 67, 127
4, 31496, Note_off_c, 0, 65, 83
4, 31536, Note_on_c, 0, 65, 127
4, 31552, Note_off_c, 0, 67, 83
4, 31584, Note_on_c, 0, 64, 127
4, 31600, Note_off_c, 0, 65, 83
4, 31632, Note_on_c, 0, 65, 127
4, 31648, Note_off_c, 0, 64, 83
4, 31680, Note_on_c, 0, 64, 127
4, 31696, Note_off_c, 0, 65, 83
4, 31808, Note_off_c, 0, 64, 83
4, 40128, Note_on_c, 0, 72, 127
4, 40316, Note_off_c, 0, 72, 83
4, 40320, Note_on_c, 0, 64, 127
4, 40320, Note_on_c, 0, 60, 127
4, 40508, Note_off_c, 0, 64, 83
4, 40508, Note_off_c, 0, 60, 83
4, 40512, Note_on_c, 0, 65, 127
4, 40512, Note_on_c, 0, 62, 127
4, 40700, Note_off_c, 0, 65, 83
4, 40700, Note_off_c, 0, 62, 83
4, 40704, Note_on_c, 0, 67, 127
4, 40704, Note_on_c, 0, 64, 127
4, 41084, Note_off_c, 0, 67, 83
4, 41084, Note_off_c, 0, 64, 83
4, 41088, Note_on_c, 0, 69, 127
4, 41088, Note_on_c, 0, 65, 127
4, 41468, Note_off_c, 0, 69, 83
4, 41468, Note_off_c, 0, 65, 83
4, 41472, Note_on_c, 0, 67, 127
4, 41472, Note_on_c, 0, 64, 127
4, 41564, Note_off_c, 0, 67, 83
4, 41568, Note_on_c, 0, 69, 127
4, 41660, Note_off_c, 0, 69, 83
4, 41664, Note_on_c, 0, 70, 127
4, 42044, Note_off_c, 0, 70, 83
4, 42048, Note_on_c, 0, 69, 127
4, 42140, Note_off_c, 0, 69, 83
4, 42144, Note_on_c, 0, 67, 127
4, 42236, Note_off_c, 0, 64, 83
4, 42236, Note_off_c, 0, 67, 83
4, 42240, Note_on_c, 0, 69, 127
4, 42336, Note_on_c, 0, 65, 127
4, 42428, Note_off_c, 0, 65, 83
4, 42432, Note_on_c, 0, 64, 127
4, 42524, Note_off_c, 0, 64, 83
4, 42528, Note_on_c, 0, 62, 127
4, 42620, Note_off_c, 0, 69, 83
4, 42620, Note_off_c, 0, 62, 83
4, 43200, Note_on_c, 0, 77, 127
4, 43388, Note_off_c, 0, 77, 83
4, 43392, Note_on_c, 0, 69, 127
4, 43392, Note_on_c, 0, 65, 127
4, 43580, Note_off_c, 0, 69, 83
4, 43580, Note_off_c, 0, 65, 83
4, 43584, Note_on_c, 0, 70, 127
4, 43584, Note_on_c, 0, 67, 127
4, 43772, Note_off_c, 0, 70, 83
4, 43772, Note_off_c, 0, 67, 83
4, 43776, Note_on_c, 0, 72, 127
4, 43776, Note_on_c, 0, 69, 127
4, 44156, Note_off_c, 0, 72, 83
4, 44156, Note_off_c, 0, 69, 83
4, 44160, Note_on_c, 0, 74, 127
4, 44160, Note_on_c, 0, 70, 127
4, 44540, Note_off_c, 0, 74, 83
4, 44540, Note_off_c, 0, 70, 83
4, 44544, Note_on_c, 0, 72, 127
4, 44544, Note_on_c, 0, 69, 127
4, 44636, Note_off_c, 0, 72, 83
4, 44640, Note_on_c, 0, 74, 127
4, 44732, Note_off_c, 0, 74, 83
4, 44736, Note_on_c, 0, 75, 127
4, 45116, Note_off_c, 0, 75, 83
4, 45120, Note_on_c, 0, 74, 127
4, 45212, Note_off_c, 0, 74, 83
4, 45216, Note_on_c, 0, 72, 127
4, 45308, Note_off_c, 0, 69, 83
4, 45308, Note_off_c, 0, 72, 83
4, 45312, Note_on_c, 0, 74, 127
4, 45408, Note_on_c, 0, 70, 127
4, 45500, Note_off_c, 0, 70, 83
4, 45504, Note_on_c, 0, 69, 127
4, 45596, Note_off_c, 0, 69, 83
4, 45600, Note_on_c, 0, 67, 127
4, 45692, Note_off_c, 0, 74, 83
4, 45692, Note_off_c, 0, 67, 83
4, 46176, Note_on_c, 0, 74, 127
4, 46268, Note_off_c, 0, 74, 83
4, 46272, Note_on_c, 0, 73, 127
4, 46272, Note_on_c, 0, 67, 127
4, 46364, Note_off_c, 0, 73, 83
4, 46368, Note_on_c, 0, 74, 127
4, 46460, Note_off_c, 0, 74, 83
4, 46464, Note_on_c, 0, 82, 127
4, 46556, Note_off_c, 0, 67, 83
4, 46592, Note_off_c, 0, 82, 83
4, 46656, Note_on_c, 0, 74, 127
4, 46912, Note_off_c, 0, 74, 83
4, 46944, Note_on_c, 0, 73, 127
4, 47036, Note_off_c, 0, 73, 83
4, 47040, Note_on_c, 0, 71, 127
4, 47132, Note_off_c, 0, 71, 83
4, 47136, Note_on_c, 0, 73, 127
4, 47228, Note_off_c, 0, 73, 83
4, 47232, Note_on_c, 0, 81, 127
4, 47360, Note_off_c, 0, 81, 83
4, 47424, Note_on_c, 0, 72, 127
4, 47680, Note_off_c, 0, 72, 83
4, 47712, Note_on_c, 0, 71, 127
4, 47804, Note_off_c, 0, 71, 83
4, 47808, Note_on_c, 0, 69, 127
4, 47900, Note_off_c, 0, 69, 83
4, 47904, Note_on_c, 0, 71, 127
4, 47996, Note_off_c, 0, 71, 83
4, 48000, Note_on_c, 0, 79, 127
4, 48128, Note_off_c, 0, 79, 83
4, 48192, Note_on_c, 0, 70, 127
4, 48320, Note_off_c, 0, 70, 83
4, 48356, Note_on_c, 0, 70, 127
4, 48384, Note_on_c, 0, 72, 127
4, 48392, Note_off_c, 0, 70, 83
4, 48432, Note_on_c, 0, 70, 127
4, 48444, Note_off_c, 0, 72, 83
4, 48480, Note_on_c, 0, 72, 127
4, 48492, Note_off_c, 0, 70, 83
4, 48528, Note_on_c, 0, 70, 127
4, 48540, Note_off_c, 0, 72, 83
4, 48576, Note_on_c, 0, 69, 127
4, 48588, Note_off_c, 0, 70, 83
4, 48764, Note_off_c, 0, 69, 83
4, 49248, Note_on_c, 0, 74, 127
4, 49340, Note_off_c, 0, 74, 83
4, 49344, Note_on_c, 0, 70, 127
4, 49436, Note_off_c, 0, 70, 83
4, 49440, Note_on_c, 0, 67, 127
4, 49532, Note_off_c, 0, 67, 83
4, 49536, Note_on_c, 0, 69, 127
4, 49628, Note_off_c, 0, 69, 83
4, 49632, Note_on_c, 0, 74, 127
4, 49724, Note_off_c, 0, 74, 83
4, 49728, Note_on_c, 0, 67, 127
4, 49820, Note_off_c, 0, 67, 83
4, 49824, Note_on_c, 0, 64, 127
4, 49916, Note_off_c, 0, 64, 83
4, 49920, Note_on_c, 0, 65, 127
4, 50012, Note_off_c, 0, 65, 83
4, 50016, Note_on_c, 0, 74, 127
4, 50108, Note_off_c, 0, 74, 83
4, 50112, Note_on_c, 0, 67, 127
4, 50204, Note_off_c, 0, 67, 83
4, 50208, Note_on_c, 0, 64, 127
4, 50300, Note_off_c, 0, 64, 83
4, 50304, Note_on_c, 0, 65, 127
4, 50396, Note_off_c, 0, 65, 83
4, 50400, Note_on_c, 0, 74, 127
4, 50492, Note_off_c, 0, 74, 83
4, 50496, Note_on_c, 0, 64, 127
4, 50588, Note_off_c, 0, 64, 83
4, 50592, Note_on_c, 0, 61, 127
4, 50684, Note_off_c, 0, 61, 83
4, 50688, Note_on_c, 0, 62, 127
4, 50780, Note_off_c, 0, 62, 83
4, 52416, Note_on_c, 0, 81, 127
4, 52416, Note_on_c, 0, 77, 127
4, 52604, Note_off_c, 0, 81, 83
4, 52604, Note_off_c, 0, 77, 83
4, 52608, Note_on_c, 0, 82, 127
4, 52608, Note_on_c, 0, 79, 127
4, 52796, Note_off_c, 0, 82, 83
4, 52796, Note_off_c, 0, 79, 83
4, 52800, Note_on_c, 0, 81, 127
4, 52800, Note_on_c, 0, 77, 127
4, 52988, Note_off_c, 0, 81, 83
4, 52988, Note_off_c, 0, 77, 83
4, 52992, Note_on_c, 0, 64, 127
4, 53120, Note_off_c, 0, 64, 83
4, 53184, Note_on_c, 0, 79, 127
4, 53184, Note_on_c, 0, 76, 127
4, 53372, Note_off_c, 0, 79, 83
4, 53372, Note_off_c, 0, 76, 83
4, 53376, Note_on_c, 0, 81, 127
4, 53376, Note_on_c, 0, 77, 127
4, 53564, Note_off_c, 0, 81, 83
4, 53564, Note_off_c, 0, 77, 83
4, 53568, Note_on_c, 0, 79, 127
4, 53568, Note_on_c, 0, 76, 127
4, 53756, Note_off_c, 0, 79, 83
4, 53756, Note_off_c, 0, 76, 83
4, 53760, Note_on_c, 0, 65, 127
4, 53888, Note_off_c, 0, 65, 83
4, 53952, Note_on_c, 0, 77, 127
4, 53952, Note_on_c, 0, 74, 127
4, 54140, Note_off_c, 0, 77, 83
4, 54140, Note_off_c, 0, 74, 83
4, 54144, Note_on_c, 0, 79, 127
4, 54144, Note_on_c, 0, 76, 127
4, 54332, Note_off_c, 0, 79, 83
4, 54332, Note_off_c, 0, 76, 83
4, 54336, Note_on_c, 0, 77, 127
4, 54336, Note_on_c, 0, 74, 127
4, 54524, Note_off_c, 0, 77, 83
4, 54524, Note_off_c, 0, 74, 83
4, 54528, Note_on_c, 0, 67, 127
4, 54656, Note_off_c, 0, 67, 83
4, 54720, Note_on_c, 0, 77, 127
4, 54720, Note_on_c, 0, 74, 127
4, 54908, Note_off_c, 0, 77, 83
4, 54908, Note_off_c, 0, 74, 83
4, 54912, Note_on_c, 0, 79, 127
4, 54912, Note_on_c, 0, 76, 127
4, 55100, Note_off_c, 0, 79, 83
4, 55100, Note_off_c, 0, 76, 83
4, 55104, Note_on_c, 0, 74, 127
4, 55104, Note_on_c, 0, 77, 127
4, 55292, Note_off_c, 0, 74, 83
4, 55296, Note_on_c, 0, 68, 127
4, 55296, Note_on_c, 0, 62, 127
4, 55296, Note_on_c, 0, 59, 127
4, 55388, Note_off_c, 0, 77, 83
4, 55392, Note_on_c, 0, 76, 127
4, 55440, Note_on_c, 0, 74, 127
4, 55484, Note_off_c, 0, 76, 83
4, 55488, Note_on_c, 0, 76, 127
4, 55532, Note_off_c, 0, 74, 83
4, 55552, Note_off_c, 0, 68, 83
4, 55552, Note_off_c, 0, 62, 83
4, 55552, Note_off_c, 0, 59, 83
4, 55680, Note_on_c, 0, 64, 127
4, 55772, Note_off_c, 0, 76, 83
4, 55776, Note_on_c, 0, 74, 127
4, 55824, Note_on_c, 0, 73, 127
4, 55868, Note_off_c, 0, 74, 83
4, 55872, Note_on_c, 0, 74, 127
4, 55916, Note_off_c, 0, 73, 83
4, 55936, Note_off_c, 0, 64, 83
4, 56128, Note_off_c, 0, 74, 83
4, 56160, Note_on_c, 0, 73, 127
4, 56208, Note_on_c, 0, 71, 127
4, 56224, Note_off_c, 0, 73, 83
4, 56256, Note_on_c, 0, 73, 127
4, 56272, Note_off_c, 0, 71, 83
4, 56512, Note_off_c, 0, 73, 83
4, 56544, Note_on_c, 0, 76, 127
4, 56608, Note_off_c, 0, 76, 83
4, 56640, Note_on_c, 0, 73, 127
4, 56704, Note_off_c, 0, 73, 83
4, 56736, Note_on_c, 0, 69, 127
4, 56800, Note_off_c, 0, 69, 83
4, 56832, Note_on_c, 0, 67, 127
4, 56896, Note_off_c, 0, 67, 83
4, 56928, Note_on_c, 0, 76, 127
4, 57020, Note_off_c, 0, 76, 83
4, 57024, Note_on_c, 0, 73, 127
4, 57116, Note_off_c, 0, 73, 83
4, 57120, Note_on_c, 0, 69, 127
4, 57184, Note_off_c, 0, 69, 83
4, 57216, Note_on_c, 0, 67, 127
4, 57280, Note_off_c, 0, 67, 83
4, 57312, Note_on_c, 0, 76, 127
4, 57404, Note_off_c, 0, 76, 83
4, 57408, Note_on_c, 0, 73, 127
4, 57500, Note_off_c, 0, 73, 83
4, 57504, Note_on_c, 0, 69, 127
4, 57568, Note_off_c, 0, 69, 83
4, 57600, Note_on_c, 0, 67, 127
4, 57664, Note_off_c, 0, 67, 83
4, 57696, Note_on_c, 0, 76, 127
4, 57788, Note_off_c, 0, 76, 83
4, 57792, Note_on_c, 0, 73, 127
4, 57884, Note_off_c, 0, 73, 83
4, 57888, Note_on_c, 0, 69, 127
4, 57952, Note_off_c, 0, 69, 83
4, 57984, Note_on_c, 0, 67, 127
4, 58048, Note_off_c, 0, 67, 83
4, 58080, Note_on_c, 0, 76, 127
4, 58172, Note_off_c, 0, 76, 83
4, 58176, Note_on_c, 0, 73, 127
4, 58268, Note_off_c, 0, 73, 83
4, 58272, Note_on_c, 0, 69, 127
4, 58336, Note_off_c, 0, 69, 83
4, 58368, Note_on_c, 0, 65, 127
4, 58432, Note_off_c, 0, 65, 83
4, 58464, Note_on_c, 0, 77, 127
4, 58556, Note_off_c, 0, 77, 83
4, 58560, Note_on_c, 0, 74, 127
4, 58652, Note_off_c, 0, 74, 83
4, 58656, Note_on_c, 0, 70, 127
4, 58720, Note_off_c, 0, 70, 83
4, 58752, Note_on_c, 0, 69, 127
4, 58816, Note_off_c, 0, 69, 83
4, 58848, Note_on_c, 0, 77, 127
4, 58940, Note_off_c, 0, 77, 83
4, 58944, Note_on_c, 0, 74, 127
4, 59036, Note_off_c, 0, 74, 83
4, 59040, Note_on_c, 0, 70, 127
4, 59104, Note_off_c, 0, 70, 83
4, 59136, Note_on_c, 0, 69, 127
4, 59200, Note_off_c, 0, 69, 83
4, 59232, Note_on_c, 0, 77, 127
4, 59324, Note_off_c, 0, 77, 83
4, 59328, Note_on_c, 0, 74, 127
4, 59420, Note_off_c, 0, 74, 83
4, 59424, Note_on_c, 0, 70, 127
4, 59488, Note_off_c, 0, 70, 83
4, 59520, Note_on_c, 0, 69, 127
4, 59584, Note_off_c, 0, 69, 83
4, 59616, Note_on_c, 0, 77, 127
4, 59708, Note_off_c, 0, 77, 83
4, 59712, Note_on_c, 0, 74, 127
4, 59804, Note_off_c, 0, 74, 83
4, 59808, Note_on_c, 0, 72, 127
4, 59872, Note_off_c, 0, 72, 83
4, 59904, Note_on_c, 0, 71, 127
4, 59968, Note_off_c, 0, 71, 83
4, 60000, Note_on_c, 0, 80, 127
4, 60092, Note_off_c, 0, 80, 83
4, 60096, Note_on_c, 0, 77, 127
4, 60188, Note_off_c, 0, 77, 83
4, 60192, Note_on_c, 0, 74, 127
4, 60256, Note_off_c, 0, 74, 83
4, 60288, Note_on_c, 0, 71, 127
4, 60352, Note_off_c, 0, 71, 83
4, 60384, Note_on_c, 0, 80, 127
4, 60476, Note_off_c, 0, 80, 83
4, 60480, Note_on_c, 0, 77, 127
4, 60572, Note_off_c, 0, 77, 83
4, 60576, Note_on_c, 0, 74, 127
4, 60640, Note_off_c, 0, 74, 83
4, 60672, Note_on_c, 0, 71, 127
4, 60736, Note_off_c, 0, 71, 83
4, 60768, Note_on_c, 0, 80, 127
4, 60860, Note_off_c, 0, 80, 83
4, 60864, Note_on_c, 0, 77, 127
4, 60956, Note_off_c, 0, 77, 83
4, 60960, Note_on_c, 0, 74, 127
4, 61024, Note_off_c, 0, 74, 83
4, 61056, Note_on_c, 0, 71, 127
4, 61120, Note_off_c, 0, 71, 83
4, 61152, Note_on_c, 0, 80, 127
4, 61244, Note_off_c, 0, 80, 83
4, 61248, Note_on_c, 0, 77, 127
4, 61340, Note_off_c, 0, 77, 83
4, 61344, Note_on_c, 0, 74, 127
4, 61408, Note_off_c, 0, 74, 83
4, 61440, Note_on_c, 0, 73, 127
4, 61532, Note_off_c, 0, 73, 83
4, 61536, Note_on_c, 0, 81, 127
4, 61628, Note_off_c, 0, 81, 83
4, 61632, Note_on_c, 0, 76, 127
4, 61724, Note_off_c, 0, 76, 83
4, 61728, Note_on_c, 0, 73, 127
4, 61820, Note_off_c, 0, 73, 83
4, 61824, Note_on_c, 0, 69, 127
4, 61888, Note_off_c, 0, 69, 83
4, 61920, Note_on_c, 0, 73, 127
4, 61984, Note_off_c, 0, 73, 83
4, 62016, Note_on_c, 0, 71, 127
4, 62080, Note_off_c, 0, 71, 83
4, 62112, Note_on_c, 0, 74, 127
4, 62176, Note_off_c, 0, 74, 83
4, 62208, Note_on_c, 0, 73, 127
4, 62300, Note_off_c, 0, 73, 83
4, 62304, Note_on_c, 0, 76, 127
4, 62396, Note_off_c, 0, 76, 83
4, 62400, Note_on_c, 0, 73, 127
4, 62492, Note_off_c, 0, 73, 83
4, 62496, Note_on_c, 0, 69, 127
4, 62588, Note_off_c, 0, 69, 83
4, 62592, Note_on_c, 0, 64, 127
4, 62656, Note_off_c, 0, 64, 83
4, 62688, Note_on_c, 0, 67, 127
4, 62752, Note_off_c, 0, 67, 83
4, 62784, Note_on_c, 0, 65, 127
4, 62848, Note_off_c, 0, 65, 83
4, 62880, Note_on_c, 0, 69, 127
4, 62944, Note_off_c, 0, 69, 83
4, 62976, Note_on_c, 0, 67, 127
4, 63068, Note_off_c, 0, 67, 83
4, 63072, Note_on_c, 0, 70, 127
4, 63164, Note_off_c, 0, 70, 83
4, 63168, Note_on_c, 0, 67, 127
4, 63260, Note_off_c, 0, 67, 83
4, 63264, Note_on_c, 0, 64, 127
4, 63356, Note_off_c, 0, 64, 83
4, 63360, Note_on_c, 0, 61, 127
4, 63424, Note_off_c, 0, 61, 83
4, 63456, Note_on_c, 0, 64, 127
4, 63520, Note_off_c, 0, 64, 83
4, 63552, Note_on_c, 0, 62, 127
4, 63616, Note_off_c, 0, 62, 83
4, 63648, Note_on_c, 0, 65, 127
4, 63712, Note_off_c, 0, 65, 83
4, 63744, Note_on_c, 0, 64, 127
4, 63836, Note_off_c, 0, 64, 83
4, 63840, Note_on_c, 0, 67, 127
4, 63932, Note_off_c, 0, 67, 83
4, 63936, Note_on_c, 0, 64, 127
4, 64028, Note_off_c, 0, 64, 83
4, 64032, Note_on_c, 0, 61, 127
4, 64124, Note_off_c, 0, 61, 83
4, 64128, Note_on_c, 0, 57, 127
4, 64220, Note_off_c, 0, 57, 83
4, 64224, Note_on_c, 0, 67, 127
4, 64316, Note_off_c, 0, 67, 83
4, 64320, Note_on_c, 0, 65, 127
4, 64412, Note_off_c, 0, 65, 83
4, 64416, Note_on_c, 0, 64, 127
4, 64508, Note_off_c, 0, 64, 83
4, 64512, Note_on_c, 0, 65, 127
4, 64604, Note_off_c, 0, 65, 83
4, 64608, Note_on_c, 0, 62, 127
4, 64700, Note_off_c, 0, 62, 83
4, 64704, Note_on_c, 0, 64, 127
4, 64796, Note_off_c, 0, 64, 83
4, 64800, Note_on_c, 0, 65, 127
4, 64892, Note_off_c, 0, 65, 83
4, 64896, Note_on_c, 0, 67, 127
4, 64988, Note_off_c, 0, 67, 83
4, 64992, Note_on_c, 0, 69, 127
4, 65084, Note_off_c, 0, 69, 83
4, 65088, Note_on_c, 0, 71, 127
4, 65180, Note_off_c, 0, 71, 83
4, 65184, Note_on_c, 0, 73, 127
4, 65276, Note_off_c, 0, 73, 83
4, 65280, Note_on_c, 0, 74, 127
4, 65372, Note_off_c, 0, 74, 83
4, 65376, Note_on_c, 0, 73, 127
4, 65468, Note_off_c, 0, 73, 83
4, 65472, Note_on_c, 0, 71, 127
4, 65564, Note_off_c, 0, 71, 83
4, 65568, Note_on_c, 0, 69, 127
4, 65660, Note_off_c, 0, 69, 83
4, 65664, Note_on_c, 0, 81, 127
4, 65792, Note_off_c, 0, 81, 83
4, 65856, Note_on_c, 0, 74, 127
4, 65856, Note_on_c, 0, 69, 127
4, 65984, Note_off_c, 0, 74, 83
4, 65984, Note_off_c, 0, 69, 83
4, 66048, Note_on_c, 0, 77, 127
4, 66048, Note_on_c, 0, 74, 127
4, 66048, Note_on_c, 0, 69, 127
4, 66428, Note_off_c, 0, 77, 83
4, 66428, Note_off_c, 0, 74, 83
4, 66428, Note_off_c, 0, 69, 83
4, 66432, Note_on_c, 0, 67, 127
4, 66432, Note_on_c, 0, 76, 127
4, 66432, Note_on_c, 0, 73, 127
4, 66812, Note_off_c, 0, 67, 83
4, 66816, Note_on_c, 0, 65, 127
4, 66880, Note_off_c, 0, 73, 83
4, 66880, Note_off_c, 0, 76, 83
4, 66912, Note_on_c, 0, 74, 127
4, 67004, Note_off_c, 0, 74, 83
4, 67008, Note_on_c, 0, 68, 127
4, 67196, Note_off_c, 0, 65, 83
4, 67292, Note_off_c, 0, 68, 83
4, 67296, Note_on_c, 0, 70, 127
4, 67388, Note_off_c, 0, 70, 83
4, 67392, Note_on_c, 0, 69, 127
4, 67484, Note_off_c, 0, 69, 83
4, 67488, Note_on_c, 0, 67, 127
4, 67580, Note_off_c, 0, 67, 83
4, 67584, Note_on_c, 0, 65, 127
4, 67680, Note_on_c, 0, 69, 127
4, 67772, Note_off_c, 0, 69, 83
4, 67776, Note_on_c, 0, 74, 127
4, 67868, Note_off_c, 0, 65, 83
4, 67872, Note_on_c, 0, 65, 127
4, 67964, Note_off_c, 0, 65, 83
4, 67968, Note_on_c, 0, 64, 127
4, 68156, Note_off_c, 0, 74, 83
4, 68160, Note_on_c, 0, 73, 127
4, 68160, Note_on_c, 0, 69, 127
4, 68160, Note_on_c, 0, 67, 127
4, 68348, Note_off_c, 0, 64, 83
4, 68348, Note_off_c, 0, 73, 83
4, 68348, Note_off_c, 0, 69, 83
4, 68348, Note_off_c, 0, 67, 83
4, 68352, Note_on_c, 0, 74, 127
4, 68352, Note_on_c, 0, 69, 127
4, 68352, Note_on_c, 0, 65, 127
4, 68352, Note_on_c, 0, 62, 127
4, 68608, Note_off_c, 0, 74, 83
4, 68608, Note_off_c, 0, 69, 83
4, 68608, Note_off_c, 0, 65, 83
4, 68608, Note_off_c, 0, 62, 83
4, 68928, Note_on_c, 0, 69, 127
4, 69056, Note_off_c, 0, 69, 83
4, 69092, Note_on_c, 0, 69, 127
4, 69120, Note_on_c, 0, 70, 127
4, 69128, Note_off_c, 0, 69, 83
4, 69168, Note_on_c, 0, 69, 127
4, 69180, Note_off_c, 0, 70, 83
4, 69216, Note_on_c, 0, 70, 127
4, 69228, Note_off_c, 0, 69, 83
4, 69264, Note_on_c, 0, 68, 127
4, 69276, Note_off_c, 0, 70, 83
4, 69312, Note_on_c, 0, 69, 127
4, 69324, Note_off_c, 0, 68, 83
4, 69476, Note_on_c, 0, 69, 127
4, 69500, Note_off_c, 0, 69, 83
4, 69504, Note_on_c, 0, 70, 127
4, 69512, Note_off_c, 0, 69, 83
4, 69552, Note_on_c, 0, 69, 127
4, 69564, Note_off_c, 0, 70, 83
4, 69600, Note_on_c, 0, 70, 127
4, 69612, Note_off_c, 0, 69, 83
4, 69648, Note_on_c, 0, 68, 127
4, 69660, Note_off_c, 0, 70, 83
4, 69696, Note_on_c, 0, 69, 127
4, 69708, Note_off_c, 0, 68, 83
4, 69980, Note_off_c, 0, 69, 83
4, 69984, Note_on_c, 0, 71, 127
4, 70076, Note_off_c, 0, 71, 83
4, 70080, Note_on_c, 0, 73, 127
4, 70172, Note_off_c, 0, 73, 83
4, 70176, Note_on_c, 0, 74, 127
4, 70268, Note_off_c, 0, 74, 83
4, 70272, Note_on_c, 0, 76, 127
4, 70400, Note_off_c, 0, 76, 83
4, 70464, Note_on_c, 0, 69, 127
4, 70592, Note_off_c, 0, 69, 83
4, 70628, Note_on_c, 0, 69, 127
4, 70656, Note_on_c, 0, 70, 127
4, 70664, Note_off_c, 0, 69, 83
4, 70704, Note_on_c, 0, 69, 127
4, 70716, Note_off_c, 0, 70, 83
4, 70752, Note_on_c, 0, 70, 127
4, 70764, Note_off_c, 0, 69, 83
4, 70800, Note_on_c, 0, 68, 127
4, 70812, Note_off_c, 0, 70, 83
4, 70848, Note_on_c, 0, 69, 127
4, 70860, Note_off_c, 0, 68, 83
4, 70976, Note_off_c, 0, 69, 83
4, 71012, Note_on_c, 0, 69, 127
4, 71040, Note_on_c, 0, 70, 127
4, 71048, Note_off_c, 0, 69, 0
4, 71088, Note_on_c, 0, 69, 127
4, 71100, Note_off_c, 0, 70, 83
4, 71136, Note_on_c, 0, 70, 127
4, 71148, Note_off_c, 0, 69, 83
4, 71184, Note_on_c, 0, 68, 127
4, 71196, Note_off_c, 0, 70, 83
4, 71232, Note_on_c, 0, 69, 127
4, 71244, Note_off_c, 0, 68, 83
4, 71516, Note_off_c, 0, 69, 83
4, 71520, Note_on_c, 0, 73, 127
4, 71612, Note_off_c, 0, 73, 83
4, 71616, Note_on_c, 0, 74, 127
4, 71708, Note_off_c, 0, 74, 83
4, 71712, Note_on_c, 0, 76, 127
4, 71804, Note_off_c, 0, 76, 83
4, 71808, Note_on_c, 0, 77, 127
4, 71936, Note_off_c, 0, 77, 83
4, 72000, Note_on_c, 0, 69, 127
4, 72128, Note_off_c, 0, 69, 83
4, 72164, Note_on_c, 0, 69, 127
4, 72192, Note_on_c, 0, 70, 127
4, 72200, Note_off_c, 0, 69, 83
4, 72240, Note_on_c, 0, 69, 127
4, 72252, Note_off_c, 0, 70, 83
4, 72288, Note_on_c, 0, 70, 127
4, 72300, Note_off_c, 0, 69, 83
4, 72336, Note_on_c, 0, 68, 127
4, 72348, Note_off_c, 0, 70, 83
4, 72384, Note_on_c, 0, 69, 127
4, 72396, Note_off_c, 0, 68, 83
4, 72512, Note_off_c, 0, 69, 83
4, 72548, Note_on_c, 0, 69, 127
4, 72576, Note_on_c, 0, 70, 127
4, 72584, Note_off_c, 0, 69, 83
4, 72624, Note_on_c, 0, 69, 127
4, 72636, Note_off_c, 0, 70, 83
4, 72672, Note_on_c, 0, 70, 127
4, 72684, Note_off_c, 0, 69, 83
4, 72720, Note_on_c, 0, 68, 127
4, 72732, Note_off_c, 0, 70, 83
4, 72768, Note_on_c, 0, 69, 127
4, 72780, Note_off_c, 0, 68, 83
4, 73052, Note_off_c, 0, 69, 83
4, 73056, Note_on_c, 0, 73, 127
4, 73148, Note_off_c, 0, 73, 83
4, 73152, Note_on_c, 0, 76, 127
4, 73244, Note_off_c, 0, 76, 83
4, 73248, Note_on_c, 0, 77, 127
4, 73340, Note_off_c, 0, 77, 83
4, 73344, Note_on_c, 0, 79, 127
4, 73532, Note_off_c, 0, 79, 83
4, 73536, Note_on_c, 0, 69, 127
4, 73820, Note_off_c, 0, 69, 83
4, 73824, Note_on_c, 0, 79, 127
4, 73916, Note_off_c, 0, 79, 83
4, 73920, Note_on_c, 0, 77, 127
4, 74012, Note_off_c, 0, 77, 83
4, 74016, Note_on_c, 0, 76, 127
4, 74064, Note_on_c, 0, 74, 127
4, 74108, Note_off_c, 0, 76, 83
4, 74112, Note_on_c, 0, 82, 127
4, 74140, Note_off_c, 0, 74, 83
4, 74240, Note_off_c, 0, 82, 83
4, 74304, Note_on_c, 0, 67, 127
4, 74588, Note_off_c, 0, 67, 83
4, 74592, Note_on_c, 0, 77, 127
4, 74684, Note_off_c, 0, 77, 83
4, 74688, Note_on_c, 0, 76, 127
4, 74780, Note_off_c, 0, 76, 83
4, 74784, Note_on_c, 0, 74, 127
4, 74832, Note_on_c, 0, 72, 127
4, 74876, Note_off_c, 0, 74, 83
4, 74880, Note_on_c, 0, 81, 127
4, 74912, Note_off_c, 0, 72, 83
4, 75008, Note_off_c, 0, 81, 83
4, 75072, Note_on_c, 0, 65, 127
4, 75356, Note_off_c, 0, 65, 83
4, 75360, Note_on_c, 0, 75, 127
4, 75452, Note_off_c, 0, 75, 83
4, 75456, Note_on_c, 0, 74, 127
4, 75548, Note_off_c, 0, 74, 83
4, 75552, Note_on_c, 0, 72, 127
4, 75600, Note_on_c, 0, 70, 127
4, 75644, Note_off_c, 0, 72, 83
4, 75648, Note_on_c, 0, 79, 127
4, 75680, Note_off_c, 0, 70, 83
4, 75712, Note_off_c, 0, 79, 83
4, 75744, Note_on_c, 0, 74, 127
4, 75836, Note_off_c, 0, 74, 83
4, 75840, Note_on_c, 0, 72, 127
4, 75932, Note_off_c, 0, 72, 83
4, 75936, Note_on_c, 0, 70, 127
4, 75984, Note_on_c, 0, 69, 127
4, 76028, Note_off_c, 0, 70, 83
4, 76032, Note_on_c, 0, 77, 127
4, 76064, Note_off_c, 0, 69, 83
4, 76124, Note_off_c, 0, 77, 83
4, 76128, Note_on_c, 0, 72, 127
4, 76220, Note_off_c, 0, 72, 83
4, 76224, Note_on_c, 0, 70, 127
4, 76316, Note_off_c, 0, 70, 83
4, 76320, Note_on_c, 0, 69, 127
4, 76368, Note_on_c, 0, 67, 127
4, 76412, Note_off_c, 0, 69, 83
4, 76416, Note_on_c, 0, 75, 127
4, 76448, Note_off_c, 0, 67, 83
4, 76508, Note_off_c, 0, 75, 83
4, 76512, Note_on_c, 0, 70, 127
4, 76604, Note_off_c, 0, 70, 83
4, 76608, Note_on_c, 0, 69, 127
4, 76700, Note_off_c, 0, 69, 83
4, 76704, Note_on_c, 0, 67, 127
4, 76752, Note_on_c, 0, 65, 127
4, 76796, Note_off_c, 0, 67, 83
4, 76800, Note_on_c, 0, 74, 127
4, 76832, Note_off_c, 0, 65, 83
4, 76892, Note_off_c, 0, 74, 83
4, 76896, Note_on_c, 0, 69, 127
4, 76988, Note_off_c, 0, 69, 83
4, 76992, Note_on_c, 0, 70, 127
4, 77084, Note_off_c, 0, 70, 83
4, 77088, Note_on_c, 0, 74, 127
4, 77180, Note_off_c, 0, 74, 83
4, 77184, Note_on_c, 0, 63, 127
4, 77276, Note_off_c, 0, 63, 83
4, 77280, Note_on_c, 0, 74, 127
4, 77372, Note_off_c, 0, 74, 83
4, 77376, Note_on_c, 0, 72, 127
4, 77468, Note_off_c, 0, 72, 83
4, 77472, Note_on_c, 0, 70, 127
4, 77564, Note_off_c, 0, 70, 83
4, 77568, Note_on_c, 0, 69, 127
4, 77660, Note_off_c, 0, 69, 83
4, 77664, Note_on_c, 0, 67, 127
4, 77756, Note_off_c, 0, 67, 83
4, 77760, Note_on_c, 0, 69, 127
4, 77852, Note_off_c, 0, 69, 83
4, 77856, Note_on_c, 0, 72, 127
4, 77948, Note_off_c, 0, 72, 83
4, 77952, Note_on_c, 0, 65, 127
4, 78044, Note_off_c, 0, 65, 83
4, 78048, Note_on_c, 0, 75, 127
4, 78140, Note_off_c, 0, 75, 83
4, 78144, Note_on_c, 0, 74, 127
4, 78236, Note_off_c, 0, 74, 83
4, 78240, Note_on_c, 0, 72, 127
4, 78332, Note_off_c, 0, 72, 83
4, 78336, Note_on_c, 0, 74, 127
4, 78464, Note_off_c, 0, 74, 83
4, 78528, Note_on_c, 0, 82, 127
4, 78656, Note_off_c, 0, 82, 83
4, 78720, Note_on_c, 0, 74, 127
4, 78720, Note_on_c, 0, 70, 127
4, 78848, Note_off_c, 0, 74, 83
4, 78848, Note_off_c, 0, 70, 83
4, 78912, Note_on_c, 0, 75, 127
4, 78912, Note_on_c, 0, 72, 127
4, 79040, Note_off_c, 0, 75, 83
4, 79040, Note_off_c, 0, 72, 83
4, 79104, Note_on_c, 0, 77, 127
4, 79104, Note_on_c, 0, 74, 127
4, 79296, Note_on_c, 0, 70, 127
4, 79484, Note_off_c, 0, 77, 83
4, 79484, Note_off_c, 0, 74, 83
4, 79484, Note_off_c, 0, 70, 83
4, 79488, Note_on_c, 0, 79, 127
4, 79488, Note_on_c, 0, 75, 127
4, 79488, Note_on_c, 0, 67, 127
4, 79676, Note_off_c, 0, 67, 83
4, 79680, Note_on_c, 0, 63, 127
4, 79868, Note_off_c, 0, 79, 83
4, 79868, Note_off_c, 0, 75, 83
4, 79868, Note_off_c, 0, 63, 83
4, 79872, Note_on_c, 0, 77, 127
4, 79872, Note_on_c, 0, 74, 127
4, 79872, Note_on_c, 0, 70, 127
4, 80060, Note_off_c, 0, 77, 83
4, 80064, Note_on_c, 0, 82, 127
4, 80252, Note_off_c, 0, 74, 83
4, 80256, Note_on_c, 0, 75, 127
4, 80444, Note_off_c, 0, 82, 83
4, 80448, Note_on_c, 0, 80, 127
4, 80540, Note_off_c, 0, 80, 83
4, 80544, Note_on_c, 0, 79, 127
4, 80636, Note_off_c, 0, 75, 83
4, 80636, Note_off_c, 0, 79, 83
4, 80640, Note_on_c, 0, 79, 127
4, 80640, Note_on_c, 0, 75, 127
4, 80828, Note_off_c, 0, 79, 83
4, 80828, Note_off_c, 0, 75, 83
4, 80832, Note_on_c, 0, 77, 127
4, 80832, Note_on_c, 0, 74, 127
4, 81020, Note_off_c, 0, 70, 83
4, 81020, Note_off_c, 0, 77, 83
4, 81020, Note_off_c, 0, 74, 83
4, 81024, Note_on_c, 0, 67, 127
4, 81216, Note_on_c, 0, 77, 127
4, 81216, Note_on_c, 0, 74, 127
4, 81344, Note_off_c, 0, 77, 83
4, 81344, Note_off_c, 0, 74, 83
4, 81408, Note_on_c, 0, 77, 127
4, 81408, Note_on_c, 0, 74, 127
4, 81596, Note_off_c, 0, 77, 83
4, 81596, Note_off_c, 0, 74, 83
4, 81600, Note_on_c, 0, 75, 127
4, 81600, Note_on_c, 0, 72, 127
4, 81788, Note_off_c, 0, 67, 83
4, 81788, Note_off_c, 0, 75, 83
4, 81788, Note_off_c, 0, 72, 83
4, 81792, Note_on_c, 0, 65, 127
4, 81984, Note_on_c, 0, 75, 127
4, 81984, Note_on_c, 0, 72, 127
4, 82112, Note_off_c, 0, 75, 83
4, 82112, Note_off_c, 0, 72, 83
4, 82176, Note_on_c, 0, 75, 127
4, 82176, Note_on_c, 0, 72, 127
4, 82364, Note_off_c, 0, 75, 83
4, 82364, Note_off_c, 0, 72, 83
4, 82368, Note_on_c, 0, 74, 127
4, 82368, Note_on_c, 0, 70, 127
4, 82556, Note_off_c, 0, 65, 83
4, 82556, Note_off_c, 0, 74, 83
4, 82556, Note_off_c, 0, 70, 83
4, 82560, Note_on_c, 0, 63, 127
4, 82752, Note_on_c, 0, 74, 127
4, 82752, Note_on_c, 0, 70, 127
4, 82880, Note_off_c, 0, 74, 83
4, 82880, Note_off_c, 0, 70, 83
4, 82944, Note_on_c, 0, 74, 127
4, 82944, Note_on_c, 0, 70, 127
4, 83132, Note_off_c, 0, 74, 83
4, 83132, Note_off_c, 0, 70, 83
4, 83136, Note_on_c, 0, 72, 127
4, 83136, Note_on_c, 0, 69, 127
4, 83324, Note_off_c, 0, 63, 83
4, 83324, Note_off_c, 0, 72, 83
4, 83324, Note_off_c, 0, 69, 83
4, 83328, Note_on_c, 0, 62, 127
4, 83520, Note_on_c, 0, 72, 127
4, 83520, Note_on_c, 0, 69, 127
4, 83648, Note_off_c, 0, 72, 83
4, 83648, Note_off_c, 0, 69, 83
4, 83712, Note_on_c, 0, 72, 127
4, 83712, Note_on_c, 0, 69, 127
4, 83900, Note_off_c, 0, 72, 83
4, 83900, Note_off_c, 0, 69, 83
4, 83904, Note_on_c, 0, 70, 127
4, 83904, Note_on_c, 0, 67, 127
4, 84092, Note_off_c, 0, 62, 83
4, 84092, Note_off_c, 0, 70, 83
4, 84092, Note_off_c, 0, 67, 83
4, 84096, Note_on_c, 0, 82, 127
4, 84192, Note_on_c, 0, 74, 127
4, 84284, Note_off_c, 0, 74, 83
4, 84288, Note_on_c, 0, 79, 127
4, 84380, Note_off_c, 0, 79, 83
4, 84384, Note_on_c, 0, 77, 127
4, 84476, Note_off_c, 0, 77, 83
4, 84480, Note_on_c, 0, 75, 127
4, 84668, Note_off_c, 0, 82, 83
4, 84672, Note_on_c, 0, 81, 127
4, 84764, Note_off_c, 0, 81, 83
4, 84768, Note_on_c, 0, 79, 127
4, 84860, Note_off_c, 0, 75, 83
4, 84860, Note_off_c, 0, 79, 83
4, 84864, Note_on_c, 0, 81, 127
4, 84956, Note_off_c, 0, 81, 83
4, 84960, Note_on_c, 0, 78, 127
4, 85052, Note_off_c, 0, 78, 83
4, 85056, Note_on_c, 0, 79, 127
4, 85148, Note_off_c, 0, 79, 83
4, 85152, Note_on_c, 0, 81, 127
4, 85220, Note_on_c, 0, 72, 127
4, 85244, Note_off_c, 0, 81, 83
4, 85248, Note_on_c, 0, 74, 127
4, 85264, Note_off_c, 0, 72, 83
4, 85292, Note_off_c, 0, 74, 83
4, 85292, Note_on_c, 0, 75, 127
4, 85336, Note_off_c, 0, 75, 83
4, 85336, Note_on_c, 0, 74, 127
4, 85380, Note_off_c, 0, 74, 83
4, 85380, Note_on_c, 0, 75, 127
4, 85424, Note_off_c, 0, 75, 83
4, 85424, Note_on_c, 0, 74, 127
4, 85468, Note_off_c, 0, 74, 83
4, 85468, Note_on_c, 0, 75, 127
4, 85512, Note_off_c, 0, 75, 0
4, 85512, Note_on_c, 0, 74, 127
4, 85556, Note_off_c, 0, 74, 0
4, 85556, Note_on_c, 0, 75, 127
4, 85600, Note_off_c, 0, 75, 0
4, 85600, Note_on_c, 0, 74, 127
4, 85644, Note_off_c, 0, 74, 0
4, 85644, Note_on_c, 0, 75, 127
4, 85688, Note_off_c, 0, 75, 0
4, 85688, Note_on_c, 0, 74, 127
4, 85732, Note_off_c, 0, 74, 0
4, 85732, Note_on_c, 0, 75, 127
4, 85776, Note_off_c, 0, 75, 0
4, 85776, Note_on_c, 0, 74, 127
4, 85820, Note_off_c, 0, 74, 0
4, 85820, Note_on_c, 0, 75, 127
4, 85864, Note_off_c, 0, 75, 0
4, 85864, Note_on_c, 0, 74, 127
4, 85908, Note_off_c, 0, 74, 0
4, 85908, Note_on_c, 0, 75, 127
4, 85952, Note_off_c, 0, 75, 0
4, 85952, Note_on_c, 0, 74, 127
4, 85996, Note_off_c, 0, 74, 0
4, 85996, Note_on_c, 0, 75, 127
4, 86036, Note_on_c, 0, 74, 127
4, 86040, Note_off_c, 0, 75, 0
4, 86080, Note_off_c, 0, 74, 0
4, 86080, Note_on_c, 0, 75, 127
4, 86124, Note_off_c, 0, 75, 0
4, 86124, Note_on_c, 0, 74, 127
4, 86168, Note_off_c, 0, 74, 0
4, 86168, Note_on_c, 0, 75, 127
4, 86212, Note_off_c, 0, 75, 0
4, 86212, Note_on_c, 0, 74, 127
4, 86256, Note_off_c, 0, 74, 0
4, 86256, Note_on_c, 0, 75, 127
4, 86300, Note_off_c, 0, 75, 0
4, 86300, Note_on_c, 0, 74, 127
4, 86344, Note_off_c, 0, 74, 0
4, 86344, Note_on_c, 0, 75, 127
4, 86388, Note_off_c, 0, 75, 0
4, 86388, Note_on_c, 0, 74, 127
4, 86428, Note_on_c, 0, 75, 127
4, 86432, Note_off_c, 0, 74, 0
4, 86472, Note_off_c, 0, 75, 0
4, 86472, Note_on_c, 0, 74, 127
4, 86516, Note_off_c, 0, 74, 0
4, 86516, Note_on_c, 0, 75, 127
4, 86560, Note_off_c, 0, 75, 0
4, 86560, Note_on_c, 0, 74, 127
4, 86604, Note_off_c, 0, 74, 0
4, 86604, Note_on_c, 0, 75, 127
4, 86648, Note_off_c, 0, 75, 0
4, 86648, Note_on_c, 0, 74, 127
4, 86692, Note_off_c, 0, 74, 0
4, 86692, Note_on_c, 0, 75, 127
4, 86736, Note_off_c, 0, 75, 0
4, 86736, Note_on_c, 0, 74, 127
4, 86780, Note_off_c, 0, 74, 0
4, 86780, Note_on_c, 0, 75, 127
4, 86820, Note_on_c, 0, 74, 127
4, 86824, Note_off_c, 0, 75, 0
4, 86864, Note_off_c, 0, 74, 0
4, 86864, Note_on_c, 0, 75, 127
4, 86908, Note_off_c, 0, 75, 0
4, 86908, Note_on_c, 0, 74, 127
4, 86952, Note_off_c, 0, 74, 0
4, 86952, Note_on_c, 0, 75, 127
4, 86996, Note_off_c, 0, 75, 0
4, 86996, Note_on_c, 0, 74, 127
4, 87040, Note_off_c, 0, 74, 0
4, 87040, Note_on_c, 0, 75, 127
4, 87084, Note_off_c, 0, 75, 0
4, 87084, Note_on_c, 0, 74, 127
4, 87128, Note_off_c, 0, 74, 0
4, 87128, Note_on_c, 0, 75, 127
4, 87172, Note_off_c, 0, 75, 0
4, 87172, Note_on_c, 0, 74, 127
4, 87216, Note_off_c, 0, 74, 0
4, 87216, Note_on_c, 0, 75, 127
4, 87260, Note_off_c, 0, 75, 0
4, 87260, Note_on_c, 0, 74, 127
4, 87304, Note_off_c, 0, 74, 0
4, 87304, Note_on_c, 0, 75, 127
4, 87348, Note_off_c, 0, 75, 0
4, 87348, Note_on_c, 0, 74, 127
4, 87408, Note_off_c, 0, 74, 0
4, 87408, Note_on_c, 0, 75, 127
4, 87452, Note_on_c, 0, 74, 127
4, 87468, Note_off_c, 0, 75, 0
4, 87496, Note_on_c, 0, 75, 127
4, 87512, Note_off_c, 0, 74, 0
4, 87552, Note_on_c, 0, 74, 127
4, 87556, Note_off_c, 0, 75, 0
4, 87680, Note_off_c, 0, 74, 83
4, 87744, Note_on_c, 0, 67, 127
4, 87872, Note_off_c, 0, 67, 83
4, 87936, Note_on_c, 0, 70, 127
4, 88064, Note_off_c, 0, 70, 83
4, 88128, Note_on_c, 0, 74, 127
4, 88256, Note_off_c, 0, 74, 83
4, 88268, Note_on_c, 0, 71, 127
4, 88320, Note_off_c, 0, 71, 0
4, 88320, Note_on_c, 0, 72, 127
4, 88364, Note_off_c, 0, 72, 83
4, 88364, Note_on_c, 0, 74, 127
4, 88408, Note_off_c, 0, 74, 83
4, 88408, Note_on_c, 0, 72, 127
4, 88452, Note_off_c, 0, 72, 83
4, 88452, Note_on_c, 0, 74, 127
4, 88496, Note_off_c, 0, 74, 83
4, 88496, Note_on_c, 0, 72, 127
4, 88540, Note_off_c, 0, 72, 83
4, 88540, Note_on_c, 0, 74, 127
4, 88584, Note_off_c, 0, 74, 0
4, 88584, Note_on_c, 0, 72, 127
4, 88628, Note_off_c, 0, 72, 0
4, 88628, Note_on_c, 0, 74, 127
4, 88672, Note_off_c, 0, 74, 0
4, 88672, Note_on_c, 0, 72, 127
4, 88716, Note_off_c, 0, 72, 0
4, 88716, Note_on_c, 0, 74, 127
4, 88760, Note_off_c, 0, 74, 0
4, 88760, Note_on_c, 0, 72, 127
4, 88804, Note_off_c, 0, 72, 0
4, 88804, Note_on_c, 0, 74, 127
4, 88848, Note_off_c, 0, 74, 0
4, 88848, Note_on_c, 0, 72, 127
4, 88892, Note_off_c, 0, 72, 0
4, 88892, Note_on_c, 0, 74, 127
4, 88936, Note_off_c, 0, 74, 0
4, 88936, Note_on_c, 0, 72, 127
4, 88980, Note_off_c, 0, 72, 0
4, 88980, Note_on_c, 0, 74, 127
4, 89024, Note_off_c, 0, 74, 0
4, 89024, Note_on_c, 0, 72, 127
4, 89068, Note_off_c, 0, 72, 0
4, 89068, Note_on_c, 0, 74, 127
4, 89108, Note_on_c, 0, 72, 127
4, 89112, Note_off_c, 0, 74, 0
4, 89152, Note_off_c, 0, 72, 0
4, 89152, Note_on_c, 0, 74, 127
4, 89196, Note_off_c, 0, 74, 0
4, 89196, Note_on_c, 0, 72, 127
4, 89240, Note_off_c, 0, 72, 0
4, 89240, Note_on_c, 0, 74, 127
4, 89284, Note_off_c, 0, 74, 0
4, 89284, Note_on_c, 0, 72, 127
4, 89328, Note_off_c, 0, 72, 0
4, 89328, Note_on_c, 0, 74, 127
4, 89372, Note_off_c, 0, 74, 0
4, 89372, Note_on_c, 0, 72, 127
4, 89416, Note_off_c, 0, 72, 0
4, 89416, Note_on_c, 0, 74, 127
4, 89460, Note_off_c, 0, 74, 0
4, 89460, Note_on_c, 0, 72, 127
4, 89500, Note_on_c, 0, 74, 127
4, 89504, Note_off_c, 0, 72, 0
4, 89544, Note_off_c, 0, 74, 0
4, 89544, Note_on_c, 0, 72, 127
4, 89588, Note_off_c, 0, 72, 0
4, 89588, Note_on_c, 0, 74, 127
4, 89632, Note_off_c, 0, 74, 0
4, 89632, Note_on_c, 0, 72, 127
4, 89676, Note_off_c, 0, 72, 0
4, 89676, Note_on_c, 0, 74, 127
4, 89720, Note_off_c, 0, 74, 0
4, 89720, Note_on_c, 0, 72, 127
4, 89764, Note_off_c, 0, 72, 0
4, 89764, Note_on_c, 0, 74, 127
4, 89808, Note_off_c, 0, 74, 0
4, 89808, Note_on_c, 0, 72, 127
4, 89852, Note_off_c, 0, 72, 0
4, 89852, Note_on_c, 0, 74, 127
4, 89892, Note_on_c, 0, 72, 127
4, 89896, Note_off_c, 0, 74, 0
4, 89936, Note_off_c, 0, 72, 0
4, 89936, Note_on_c, 0, 74, 127
4, 89980, Note_off_c, 0, 74, 0
4, 89980, Note_on_c, 0, 72, 127
4, 90024, Note_off_c, 0, 72, 0
4, 90024, Note_on_c, 0, 74, 127
4, 90068, Note_off_c, 0, 74, 0
4, 90068, Note_on_c, 0, 72, 127
4, 90112, Note_off_c, 0, 72, 0
4, 90112, Note_on_c, 0, 74, 127
4, 90156, Note_off_c, 0, 74, 0
4, 90156, Note_on_c, 0, 72, 127
4, 90200, Note_off_c, 0, 72, 0
4, 90200, Note_on_c, 0, 74, 127
4, 90244, Note_off_c, 0, 74, 0
4, 90244, Note_on_c, 0, 72, 127
4, 90288, Note_off_c, 0, 72, 0
4, 90288, Note_on_c, 0, 74, 127
4, 90332, Note_off_c, 0, 74, 0
4, 90332, Note_on_c, 0, 72, 127
4, 90376, Note_off_c, 0, 72, 0
4, 90376, Note_on_c, 0, 74, 127
4, 90420, Note_off_c, 0, 74, 0
4, 90420, Note_on_c, 0, 72, 127
4, 90480, Note_off_c, 0, 72, 0
4, 90480, Note_on_c, 0, 74, 127
4, 90524, Note_on_c, 0, 72, 127
4, 90540, Note_off_c, 0, 74, 0
4, 90568, Note_on_c, 0, 74, 127
4, 90584, Note_off_c, 0, 72, 0
4, 90624, Note_on_c, 0, 72, 127
4, 90628, Note_off_c, 0, 74, 0
4, 90812, Note_off_c, 0, 72, 83
4, 90816, Note_on_c, 0, 65, 127
4, 91004, Note_off_c, 0, 65, 83
4, 91008, Note_on_c, 0, 69, 127
4, 91196, Note_off_c, 0, 69, 83
4, 91200, Note_on_c, 0, 72, 127
4, 91388, Note_off_c, 0, 72, 83
4, 91392, Note_on_c, 0, 77, 127
4, 91580, Note_off_c, 0, 77, 83
4, 91584, Note_on_c, 0, 69, 127
4, 91772, Note_off_c, 0, 69, 83
4, 91776, Note_on_c, 0, 70, 127
4, 91968, Note_on_c, 0, 62, 127
4, 92156, Note_off_c, 0, 62, 83
4, 92160, Note_on_c, 0, 64, 127
4, 92252, Note_off_c, 0, 64, 83
4, 92256, Note_on_c, 0, 67, 127
4, 92348, Note_off_c, 0, 67, 83
4, 92352, Note_on_c, 0, 64, 127
4, 92444, Note_off_c, 0, 64, 83
4, 92448, Note_on_c, 0, 60, 127
4, 92540, Note_off_c, 0, 70, 83
4, 92540, Note_off_c, 0, 60, 83
4, 92544, Note_on_c, 0, 69, 127
4, 92736, Note_on_c, 0, 60, 127
4, 92924, Note_off_c, 0, 60, 83
4, 92928, Note_on_c, 0, 62, 127
4, 93020, Note_off_c, 0, 62, 83
4, 93024, Note_on_c, 0, 65, 127
4, 93116, Note_off_c, 0, 65, 83
4, 93120, Note_on_c, 0, 62, 127
4, 93212, Note_off_c, 0, 62, 83
4, 93216, Note_on_c, 0, 60, 127
4, 93308, Note_off_c, 0, 60, 83
4, 93312, Note_on_c, 0, 58, 127
4, 93404, Note_off_c, 0, 69, 83
4, 93408, Note_on_c, 0, 69, 127
4, 93500, Note_off_c, 0, 69, 83
4, 93504, Note_on_c, 0, 67, 127
4, 93596, Note_off_c, 0, 67, 83
4, 93600, Note_on_c, 0, 65, 127
4, 93692, Note_off_c, 0, 65, 83
4, 93696, Note_on_c, 0, 64, 127
4, 93788, Note_off_c, 0, 64, 83
4, 93792, Note_on_c, 0, 67, 127
4, 93884, Note_off_c, 0, 67, 83
4, 93888, Note_on_c, 0, 64, 127
4, 93980, Note_off_c, 0, 64, 83
4, 93984, Note_on_c, 0, 62, 127
4, 94076, Note_off_c, 0, 62, 83
4, 94080, Note_on_c, 0, 60, 127
4, 94172, Note_off_c, 0, 58, 83
4, 94176, Note_on_c, 0, 58, 127
4, 94268, Note_off_c, 0, 58, 83
4, 94272, Note_on_c, 0, 57, 127
4, 94364, Note_off_c, 0, 57, 83
4, 94368, Note_on_c, 0, 55, 127
4, 94460, Note_off_c, 0, 60, 83
4, 94460, Note_off_c, 0, 55, 83
4, 94464, Note_on_c, 0, 57, 127
4, 94556, Note_off_c, 0, 57, 83
4, 94560, Note_on_c, 0, 60, 127
4, 94652, Note_off_c, 0, 60, 83
4, 94656, Note_on_c, 0, 65, 127
4, 94748, Note_off_c, 0, 65, 83
4, 94752, Note_on_c, 0, 64, 127
4, 94844, Note_off_c, 0, 64, 83
4, 94848, Note_on_c, 0, 62, 127
4, 94940, Note_off_c, 0, 62, 83
4, 94944, Note_on_c, 0, 60, 127
4, 95036, Note_off_c, 0, 60, 83
4, 95040, Note_on_c, 0, 58, 127
4, 95132, Note_off_c, 0, 58, 83
4, 95136, Note_on_c, 0, 57, 127
4, 95228, Note_off_c, 0, 57, 83
4, 95232, Note_on_c, 0, 58, 127
4, 95324, Note_off_c, 0, 58, 83
4, 95328, Note_on_c, 0, 64, 127
4, 95420, Note_off_c, 0, 64, 83
4, 95424, Note_on_c, 0, 67, 127
4, 95516, Note_off_c, 0, 67, 83
4, 95520, Note_on_c, 0, 65, 127
4, 95612, Note_off_c, 0, 65, 83
4, 95616, Note_on_c, 0, 64, 127
4, 95708, Note_off_c, 0, 64, 83
4, 95712, Note_on_c, 0, 62, 127
4, 95804, Note_off_c, 0, 62, 83
4, 95808, Note_on_c, 0, 60, 127
4, 95900, Note_off_c, 0, 60, 83
4, 95904, Note_on_c, 0, 58, 127
4, 95996, Note_off_c, 0, 58, 83
4, 96000, Note_on_c, 0, 60, 127
4, 96092, Note_off_c, 0, 60, 83
4, 96096, Note_on_c, 0, 65, 127
4, 96188, Note_off_c, 0, 65, 83
4, 96192, Note_on_c, 0, 69, 127
4, 96284, Note_off_c, 0, 69, 83
4, 96288, Note_on_c, 0, 67, 127
4, 96380, Note_off_c, 0, 67, 83
4, 96384, Note_on_c, 0, 65, 127
4, 96476, Note_off_c, 0, 65, 83
4, 96480, Note_on_c, 0, 64, 127
4, 96572, Note_off_c, 0, 64, 83
4, 96576, Note_on_c, 0, 62, 127
4, 96668, Note_off_c, 0, 62, 83
4, 96672, Note_on_c, 0, 60, 127
4, 96764, Note_off_c, 0, 60, 83
4, 96768, Note_on_c, 0, 62, 127
4, 96860, Note_off_c, 0, 62, 83
4, 96864, Note_on_c, 0, 65, 127
4, 96956, Note_off_c, 0, 65, 83
4, 96960, Note_on_c, 0, 70, 127
4, 97052, Note_off_c, 0, 70, 83
4, 97056, Note_on_c, 0, 69, 127
4, 97148, Note_off_c, 0, 69, 83
4, 97152, Note_on_c, 0, 67, 127
4, 97244, Note_off_c, 0, 67, 83
4, 97248, Note_on_c, 0, 65, 127
4, 97340, Note_off_c, 0, 65, 83
4, 97344, Note_on_c, 0, 64, 127
4, 97436, Note_off_c, 0, 64, 83
4, 97440, Note_on_c, 0, 62, 127
4, 97532, Note_off_c, 0, 62, 83
4, 97536, Note_on_c, 0, 64, 127
4, 97628, Note_off_c, 0, 64, 83
4, 97632, Note_on_c, 0, 60, 127
4, 97724, Note_off_c, 0, 60, 83
4, 97728, Note_on_c, 0, 64, 127
4, 97820, Note_off_c, 0, 64, 83
4, 97824, Note_on_c, 0, 67, 127
4, 97916, Note_off_c, 0, 67, 83
4, 97920, Note_on_c, 0, 70, 127
4, 98012, Note_off_c, 0, 70, 83
4, 98016, Note_on_c, 0, 72, 127
4, 98108, Note_off_c, 0, 72, 83
4, 98112, Note_on_c, 0, 76, 127
4, 98204, Note_off_c, 0, 76, 83
4, 98208, Note_on_c, 0, 79, 127
4, 98300, Note_off_c, 0, 79, 83
4, 98304, Note_on_c, 0, 81, 127
4, 98432, Note_off_c, 0, 81, 83
4, 106176, Note_on_c, 0, 77, 127
4, 106364, Note_off_c, 0, 77, 83
4, 106368, Note_on_c, 0, 69, 127
4, 106368, Note_on_c, 0, 65, 127
4, 106556, Note_off_c, 0, 69, 83
4, 106556, Note_off_c, 0, 65, 83
4, 106560, Note_on_c, 0, 70, 127
4, 106560, Note_on_c, 0, 67, 127
4, 106748, Note_off_c, 0, 70, 83
4, 106748, Note_off_c, 0, 67, 83
4, 106752, Note_on_c, 0, 72, 127
4, 106752, Note_on_c, 0, 69, 127
4, 107132, Note_off_c, 0, 72, 83
4, 107132, Note_off_c, 0, 69, 83
4, 107136, Note_on_c, 0, 70, 127
4, 107136, Note_on_c, 0, 74, 127
4, 107708, Note_off_c, 0, 70, 83
4, 107708, Note_off_c, 0, 74, 83
4, 107712, Note_on_c, 0, 72, 127
4, 107712, Note_on_c, 0, 69, 127
4, 107804, Note_off_c, 0, 72, 83
4, 107808, Note_on_c, 0, 74, 127
4, 107900, Note_off_c, 0, 74, 83
4, 107904, Note_on_c, 0, 75, 127
4, 108092, Note_off_c, 0, 75, 83
4, 108096, Note_on_c, 0, 74, 127
4, 108188, Note_off_c, 0, 74, 83
4, 108192, Note_on_c, 0, 72, 127
4, 108284, Note_off_c, 0, 69, 83
4, 108284, Note_off_c, 0, 72, 83
4, 108288, Note_on_c, 0, 74, 127
4, 108288, Note_on_c, 0, 70, 127
4, 108668, Note_off_c, 0, 74, 83
4, 108668, Note_off_c, 0, 70, 83
4, 108768, Note_on_c, 0, 62, 127
4, 108860, Note_off_c, 0, 62, 83
4, 108864, Note_on_c, 0, 65, 127
4, 108956, Note_off_c, 0, 65, 83
4, 108960, Note_on_c, 0, 69, 127
4, 109052, Note_off_c, 0, 69, 83
4, 109056, Note_on_c, 0, 67, 127
4, 109120, Note_off_c, 0, 67, 83
4, 109152, Note_on_c, 0, 67, 127
4, 109244, Note_off_c, 0, 67, 83
4, 109248, Note_on_c, 0, 65, 127
4, 109248, Note_on_c, 0, 79, 127
4, 109340, Note_off_c, 0, 65, 83
4, 109344, Note_on_c, 0, 64, 127
4, 109436, Note_off_c, 0, 79, 83
4, 109436, Note_off_c, 0, 64, 83
4, 109440, Note_on_c, 0, 71, 127
4, 109440, Note_on_c, 0, 67, 127
4, 109628, Note_off_c, 0, 71, 83
4, 109628, Note_off_c, 0, 67, 83
4, 109632, Note_on_c, 0, 72, 127
4, 109632, Note_on_c, 0, 69, 127
4, 109820, Note_off_c, 0, 72, 83
4, 109820, Note_off_c, 0, 69, 83
4, 109824, Note_on_c, 0, 74, 127
4, 109824, Note_on_c, 0, 71, 127
4, 110204, Note_off_c, 0, 74, 83
4, 110204, Note_off_c, 0, 71, 83
4, 110208, Note_on_c, 0, 76, 127
4, 110208, Note_on_c, 0, 72, 127
4, 110780, Note_off_c, 0, 72, 83
4, 110780, Note_off_c, 0, 76, 83
4, 110784, Note_on_c, 0, 74, 127
4, 110784, Note_on_c, 0, 71, 127
4, 110876, Note_off_c, 0, 74, 83
4, 110880, Note_on_c, 0, 76, 127
4, 110972, Note_off_c, 0, 76, 83
4, 110976, Note_on_c, 0, 77, 127
4, 111164, Note_off_c, 0, 77, 83
4, 111168, Note_on_c, 0, 76, 127
4, 111260, Note_off_c, 0, 76, 83
4, 111264, Note_on_c, 0, 74, 127
4, 111356, Note_off_c, 0, 71, 83
4, 111356, Note_off_c, 0, 74, 83
4, 111360, Note_on_c, 0, 76, 127
4, 111360, Note_on_c, 0, 72, 127
4, 111740, Note_off_c, 0, 76, 83
4, 111740, Note_off_c, 0, 72, 83
4, 111936, Note_on_c, 0, 72, 127
4, 112064, Note_off_c, 0, 72, 83
4, 112128, Note_on_c, 0, 72, 127
4, 112176, Note_on_c, 0, 74, 127
4, 112188, Note_off_c, 0, 72, 83
4, 112224, Note_on_c, 0, 72, 127
4, 112236, Note_off_c, 0, 74, 83
4, 112272, Note_on_c, 0, 71, 127
4, 112284, Note_off_c, 0, 72, 83
4, 112320, Note_on_c, 0, 72, 127
4, 112332, Note_off_c, 0, 71, 83
4, 112448, Note_off_c, 0, 72, 83
4, 112512, Note_on_c, 0, 72, 127
4, 112560, Note_on_c, 0, 74, 127
4, 112572, Note_off_c, 0, 72, 83
4, 112608, Note_on_c, 0, 72, 127
4, 112620, Note_off_c, 0, 74, 83
4, 112656, Note_on_c, 0, 71, 127
4, 112668, Note_off_c, 0, 72, 83
4, 112704, Note_on_c, 0, 72, 127
4, 112716, Note_off_c, 0, 71, 83
4, 112960, Note_off_c, 0, 72, 83
4, 112992, Note_on_c, 0, 74, 127
4, 113084, Note_off_c, 0, 74, 83
4, 113088, Note_on_c, 0, 76, 127
4, 113180, Note_off_c, 0, 76, 83
4, 113184, Note_on_c, 0, 77, 127
4, 113276, Note_off_c, 0, 77, 83
4, 113280, Note_on_c, 0, 79, 127
4, 113408, Note_off_c, 0, 79, 83
4, 113472, Note_on_c, 0, 72, 127
4, 113600, Note_off_c, 0, 72, 83
4, 113664, Note_on_c, 0, 72, 127
4, 113712, Note_on_c, 0, 74, 127
4, 113724, Note_off_c, 0, 72, 83
4, 113760, Note_on_c, 0, 72, 127
4, 113772, Note_off_c, 0, 74, 83
4, 113808, Note_on_c, 0, 71, 127
4, 113820, Note_off_c, 0, 72, 83
4, 113856, Note_on_c, 0, 72, 127
4, 113868, Note_off_c, 0, 71, 83
4, 113984, Note_off_c, 0, 72, 83
4, 114048, Note_on_c, 0, 72, 127
4, 114096, Note_on_c, 0, 74, 127
4, 114108, Note_off_c, 0, 72, 83
4, 114144, Note_on_c, 0, 72, 127
4, 114156, Note_off_c, 0, 74, 83
4, 114192, Note_on_c, 0, 71, 127
4, 114204, Note_off_c, 0, 72, 83
4, 114240, Note_on_c, 0, 72, 127
4, 114252, Note_off_c, 0, 71, 83
4, 114496, Note_off_c, 0, 72, 83
4, 114528, Note_on_c, 0, 76, 127
4, 114620, Note_off_c, 0, 76, 83
4, 114624, Note_on_c, 0, 77, 127
4, 114716, Note_off_c, 0, 77, 83
4, 114720, Note_on_c, 0, 79, 127
4, 114812, Note_off_c, 0, 79, 83
4, 114816, Note_on_c, 0, 81, 127
4, 114944, Note_off_c, 0, 81, 83
4, 115008, Note_on_c, 0, 72, 127
4, 115136, Note_off_c, 0, 72, 83
4, 115200, Note_on_c, 0, 72, 127
4, 115248, Note_on_c, 0, 74, 127
4, 115260, Note_off_c, 0, 72, 83
4, 115296, Note_on_c, 0, 72, 127
4, 115308, Note_off_c, 0, 74, 83
4, 115344, Note_on_c, 0, 71, 127
4, 115356, Note_off_c, 0, 72, 83
4, 115392, Note_on_c, 0, 72, 127
4, 115404, Note_off_c, 0, 71, 83
4, 115520, Note_off_c, 0, 72, 83
4, 115584, Note_on_c, 0, 72, 127
4, 115632, Note_on_c, 0, 74, 127
4, 115644, Note_off_c, 0, 72, 83
4, 115680, Note_on_c, 0, 72, 127
4, 115692, Note_off_c, 0, 74, 83
4, 115728, Note_on_c, 0, 71, 127
4, 115740, Note_off_c, 0, 72, 83
4, 115776, Note_on_c, 0, 72, 127
4, 115788, Note_off_c, 0, 71, 83
4, 116032, Note_off_c, 0, 72, 83
4, 116064, Note_on_c, 0, 76, 127
4, 116156, Note_off_c, 0, 76, 83
4, 116160, Note_on_c, 0, 79, 127
4, 116252, Note_off_c, 0, 79, 83
4, 116256, Note_on_c, 0, 81, 127
4, 116348, Note_off_c, 0, 81, 83
4, 116352, Note_on_c, 0, 82, 127
4, 116540, Note_off_c, 0, 82, 83
4, 116544, Note_on_c, 0, 72, 127
4, 116828, Note_off_c, 0, 72, 83
4, 116832, Note_on_c, 0, 82, 127
4, 116924, Note_off_c, 0, 82, 83
4, 116928, Note_on_c, 0, 81, 127
4, 117020, Note_off_c, 0, 81, 83
4, 117024, Note_on_c, 0, 79, 127
4, 117072, Note_on_c, 0, 77, 127
4, 117116, Note_off_c, 0, 79, 83
4, 117120, Note_on_c, 0, 84, 127
4, 117164, Note_off_c, 0, 77, 83
4, 117248, Note_off_c, 0, 84, 83
4, 117312, Note_on_c, 0, 75, 127
4, 117596, Note_off_c, 0, 75, 83
4, 117600, Note_on_c, 0, 74, 127
4, 117648, Note_on_c, 0, 72, 127
4, 117692, Note_off_c, 0, 74, 83
4, 117696, Note_on_c, 0, 74, 127
4, 117740, Note_off_c, 0, 72, 83
4, 117788, Note_off_c, 0, 74, 83
4, 117792, Note_on_c, 0, 72, 127
4, 117840, Note_on_c, 0, 70, 127
4, 117884, Note_off_c, 0, 72, 83
4, 117888, Note_on_c, 0, 79, 127
4, 117932, Note_off_c, 0, 70, 83
4, 118016, Note_off_c, 0, 79, 83
4, 118080, Note_on_c, 0, 70, 127
4, 118364, Note_off_c, 0, 70, 83
4, 118368, Note_on_c, 0, 69, 127
4, 118416, Note_on_c, 0, 67, 127
4, 118460, Note_off_c, 0, 69, 83
4, 118464, Note_on_c, 0, 69, 127
4, 118508, Note_off_c, 0, 67, 83
4, 118556, Note_off_c, 0, 69, 83
4, 118560, Note_on_c, 0, 67, 127
4, 118608, Note_on_c, 0, 65, 127
4, 118652, Note_off_c, 0, 67, 83
4, 118656, Note_on_c, 0, 74, 127
4, 118700, Note_off_c, 0, 65, 83
4, 118784, Note_off_c, 0, 74, 83
4, 118848, Note_on_c, 0, 65, 127
4, 118976, Note_off_c, 0, 65, 83
4, 119012, Note_on_c, 0, 65, 127
4, 119040, Note_on_c, 0, 67, 127
4, 119048, Note_off_c, 0, 65, 83
4, 119088, Note_on_c, 0, 65, 127
4, 119104, Note_off_c, 0, 67, 83
4, 119136, Note_on_c, 0, 64, 127
4, 119152, Note_off_c, 0, 65, 83
4, 119184, Note_on_c, 0, 65, 127
4, 119200, Note_off_c, 0, 64, 83
4, 119232, Note_on_c, 0, 64, 127
4, 119248, Note_off_c, 0, 65, 83
4, 119360, Note_off_c, 0, 64, 83
4, 119616, Note_on_c, 0, 82, 127
4, 119744, Note_off_c, 0, 82, 83
4, 119808, Note_on_c, 0, 81, 127
4, 119900, Note_off_c, 0, 81, 83
4, 119904, Note_on_c, 0, 82, 127
4, 119996, Note_off_c, 0, 82, 83
4, 120000, Note_on_c, 0, 84, 127
4, 120092, Note_off_c, 0, 84, 83
4, 120096, Note_on_c, 0, 77, 127
4, 120188, Note_off_c, 0, 77, 83
4, 120192, Note_on_c, 0, 81, 127
4, 120284, Note_off_c, 0, 81, 83
4, 120288, Note_on_c, 0, 79, 127
4, 120380, Note_off_c, 0, 79, 83
4, 120384, Note_on_c, 0, 77, 127
4, 120476, Note_off_c, 0, 77, 83
4, 120480, Note_on_c, 0, 76, 127
4, 120572, Note_off_c, 0, 76, 83
4, 120576, Note_on_c, 0, 77, 127
4, 120668, Note_off_c, 0, 77, 83
4, 120672, Note_on_c, 0, 72, 127
4, 120764, Note_off_c, 0, 72, 83
4, 120768, Note_on_c, 0, 74, 127
4, 120860, Note_off_c, 0, 74, 83
4, 120864, Note_on_c, 0, 77, 127
4, 120956, Note_off_c, 0, 77, 83
4, 120960, Note_on_c, 0, 70, 127
4, 121052, Note_off_c, 0, 70, 83
4, 121056, Note_on_c, 0, 69, 127
4, 121148, Note_off_c, 0, 69, 83
4, 121152, Note_on_c, 0, 70, 127
4, 121244, Note_off_c, 0, 70, 83
4, 121248, Note_on_c, 0, 74, 127
4, 121340, Note_off_c, 0, 74, 83
4, 121344, Note_on_c, 0, 77, 127
4, 121436, Note_off_c, 0, 77, 83
4, 121440, Note_on_c, 0, 70, 127
4, 121532, Note_off_c, 0, 70, 83
4, 121536, Note_on_c, 0, 72, 127
4, 121628, Note_off_c, 0, 72, 83
4, 121632, Note_on_c, 0, 77, 127
4, 121724, Note_off_c, 0, 77, 83
4, 121728, Note_on_c, 0, 69, 127
4, 121820, Note_off_c, 0, 69, 83
4, 121824, Note_on_c, 0, 67, 127
4, 121916, Note_off_c, 0, 67, 83
4, 121920, Note_on_c, 0, 69, 127
4, 122012, Note_off_c, 0, 69, 83
4, 122016, Note_on_c, 0, 72, 127
4, 122108, Note_off_c, 0, 72, 83
4, 122112, Note_on_c, 0, 77, 127
4, 122204, Note_off_c, 0, 77, 83
4, 122208, Note_on_c, 0, 69, 127
4, 122300, Note_off_c, 0, 69, 83
4, 122304, Note_on_c, 0, 71, 127
4, 122396, Note_off_c, 0, 71, 83
4, 122400, Note_on_c, 0, 77, 127
4, 122492, Note_off_c, 0, 77, 83
4, 122496, Note_on_c, 0, 67, 127
4, 122588, Note_off_c, 0, 67, 83
4, 122592, Note_on_c, 0, 65, 127
4, 122684, Note_off_c, 0, 65, 83
4, 122688, Note_on_c, 0, 67, 127
4, 122780, Note_off_c, 0, 67, 83
4, 122784, Note_on_c, 0, 77, 127
4, 122876, Note_off_c, 0, 77, 83
4, 122880, Note_on_c, 0, 76, 127
4, 122972, Note_off_c, 0, 76, 83
4, 122976, Note_on_c, 0, 77, 127
4, 123068, Note_off_c, 0, 77, 83
4, 123072, Note_on_c, 0, 79, 127
4, 123164, Note_off_c, 0, 79, 83
4, 123168, Note_on_c, 0, 77, 127
4, 123260, Note_off_c, 0, 77, 83
4, 123264, Note_on_c, 0, 76, 127
4, 123356, Note_off_c, 0, 76, 83
4, 123360, Note_on_c, 0, 74, 127
4, 123452, Note_off_c, 0, 74, 83
4, 123456, Note_on_c, 0, 72, 127
4, 123548, Note_off_c, 0, 72, 83
4, 123552, Note_on_c, 0, 70, 127
4, 123644, Note_off_c, 0, 70, 83
4, 123648, Note_on_c, 0, 69, 127
4, 123740, Note_off_c, 0, 69, 83
4, 123744, Note_on_c, 0, 70, 127
4, 123836, Note_off_c, 0, 70, 83
4, 123840, Note_on_c, 0, 72, 127
4, 123932, Note_off_c, 0, 72, 83
4, 123936, Note_on_c, 0, 65, 127
4, 124028, Note_off_c, 0, 65, 83
4, 124032, Note_on_c, 0, 69, 127
4, 124124, Note_off_c, 0, 69, 83
4, 124128, Note_on_c, 0, 67, 127
4, 124220, Note_off_c, 0, 67, 83
4, 124224, Note_on_c, 0, 65, 127
4, 124316, Note_off_c, 0, 65, 83
4, 124320, Note_on_c, 0, 64, 127
4, 124412, Note_off_c, 0, 64, 83
4, 124416, Note_on_c, 0, 65, 127
4, 124544, Note_off_c, 0, 65, 83
4, 124608, Note_on_c, 0, 77, 127
4, 124736, Note_off_c, 0, 77, 83
4, 124800, Note_on_c, 0, 69, 127
4, 124800, Note_on_c, 0, 65, 127
4, 124928, Note_off_c, 0, 69, 83
4, 124928, Note_off_c, 0, 65, 83
4, 124992, Note_on_c, 0, 70, 127
4, 124992, Note_on_c, 0, 67, 127
4, 125120, Note_off_c, 0, 70, 83
4, 125120, Note_off_c, 0, 67, 83
4, 125184, Note_on_c, 0, 72, 127
4, 125184, Note_on_c, 0, 69, 127
4, 125564, Note_off_c, 0, 72, 83
4, 125564, Note_off_c, 0, 69, 83
4, 125568, Note_on_c, 0, 74, 127
4, 125568, Note_on_c, 0, 70, 127
4, 125824, Note_off_c, 0, 74, 83
4, 125824, Note_off_c, 0, 70, 83
4, 125952, Note_on_c, 0, 69, 127
4, 125952, Note_on_c, 0, 65, 127
4, 125952, Note_on_c, 0, 72, 127
4, 126080, Note_off_c, 0, 72, 83
4, 126144, Note_on_c, 0, 77, 127
4, 126208, Note_off_c, 0, 69, 83
4, 126336, Note_on_c, 0, 70, 127
4, 126400, Note_off_c, 0, 77, 83
4, 126464, Note_off_c, 0, 65, 83
4, 126528, Note_on_c, 0, 75, 127
4, 126592, Note_off_c, 0, 70, 83
4, 126592, Note_off_c, 0, 75, 83
4, 126624, Note_on_c, 0, 74, 127
4, 126688, Note_off_c, 0, 74, 83
4, 126720, Note_on_c, 0, 74, 127
4, 126720, Note_on_c, 0, 70, 127
4, 126720, Note_on_c, 0, 65, 127
4, 126908, Note_off_c, 0, 74, 83
4, 126908, Note_off_c, 0, 70, 83
4, 126912, Note_on_c, 0, 72, 127
4, 126912, Note_on_c, 0, 69, 127
4, 127040, Note_off_c, 0, 72, 83
4, 127040, Note_off_c, 0, 69, 83
4, 127100, Note_off_c, 0, 65, 83
4, 127680, Note_on_c, 0, 84, 127
4, 127808, Note_off_c, 0, 84, 83
4, 127872, Note_on_c, 0, 76, 127
4, 127872, Note_on_c, 0, 72, 127
4, 128000, Note_off_c, 0, 76, 83
4, 128000, Note_off_c, 0, 72, 83
4, 128064, Note_on_c, 0, 77, 127
4, 128064, Note_on_c, 0, 74, 127
4, 128192, Note_off_c, 0, 77, 83
4, 128192, Note_off_c, 0, 74, 83
4, 128256, Note_on_c, 0, 79, 127
4, 128256, Note_on_c, 0, 76, 127
4, 128448, Note_on_c, 0, 72, 127
4, 128512, Note_off_c, 0, 79, 83
4, 128512, Note_off_c, 0, 76, 83
4, 128576, Note_off_c, 0, 72, 83
4, 128640, Note_on_c, 0, 81, 127
4, 128640, Note_on_c, 0, 77, 127
4, 128640, Note_on_c, 0, 69, 127
4, 128768, Note_off_c, 0, 69, 83
4, 128832, Note_on_c, 0, 65, 127
4, 128896, Note_off_c, 0, 81, 83
4, 128896, Note_off_c, 0, 77, 83
4, 128960, Note_off_c, 0, 65, 83
4, 129024, Note_on_c, 0, 72, 127
4, 129024, Note_on_c, 0, 76, 127
4, 129024, Note_on_c, 0, 79, 127
4, 129212, Note_off_c, 0, 79, 83
4, 129216, Note_on_c, 0, 84, 127
4, 129404, Note_off_c, 0, 76, 83
4, 129408, Note_on_c, 0, 77, 127
4, 129596, Note_off_c, 0, 84, 83
4, 129600, Note_on_c, 0, 82, 127
4, 129692, Note_off_c, 0, 82, 83
4, 129696, Note_on_c, 0, 81, 127
4, 129788, Note_off_c, 0, 72, 83
4, 129788, Note_off_c, 0, 77, 83
4, 129788, Note_off_c, 0, 81, 83
4, 129792, Note_on_c, 0, 72, 127
4, 129792, Note_on_c, 0, 81, 127
4, 129792, Note_on_c, 0, 77, 127
4, 129980, Note_off_c, 0, 81, 83
4, 129980, Note_off_c, 0, 77, 83
4, 129984, Note_on_c, 0, 79, 127
4, 129984, Note_on_c, 0, 76, 127
4, 130112, Note_off_c, 0, 79, 83
4, 130112, Note_off_c, 0, 76, 83
4, 130172, Note_off_c, 0, 72, 83
4, 130272, Note_on_c, 0, 72, 127
4, 130336, Note_off_c, 0, 72, 83
4, 130368, Note_on_c, 0, 70, 127
4, 130432, Note_off_c, 0, 70, 83
4, 130464, Note_on_c, 0, 69, 127
4, 130528, Note_off_c, 0, 69, 83
4, 130560, Note_on_c, 0, 70, 127
4, 130688, Note_off_c, 0, 70, 83
4, 130752, Note_on_c, 0, 79, 127
4, 131008, Note_off_c, 0, 79, 83
4, 131040, Note_on_c, 0, 70, 127
4, 131104, Note_off_c, 0, 70, 83
4, 131136, Note_on_c, 0, 69, 127
4, 131200, Note_off_c, 0, 69, 83
4, 131232, Note_on_c, 0, 67, 127
4, 131296, Note_off_c, 0, 67, 83
4, 131328, Note_on_c, 0, 69, 127
4, 131420, Note_off_c, 0, 69, 83
4, 131424, Note_on_c, 0, 67, 127
4, 131516, Note_off_c, 0, 67, 83
4, 131520, Note_on_c, 0, 65, 127
4, 131584, Note_off_c, 0, 65, 83
4, 131616, Note_on_c, 0, 67, 127
4, 131680, Note_off_c, 0, 67, 83
4, 131712, Note_on_c, 0, 69, 127
4, 131776, Note_off_c, 0, 69, 83
4, 131808, Note_on_c, 0, 70, 127
4, 131872, Note_off_c, 0, 70, 83
4, 131904, Note_on_c, 0, 72, 127
4, 131968, Note_off_c, 0, 72, 83
4, 132000, Note_on_c, 0, 74, 127
4, 132064, Note_off_c, 0, 74, 83
4, 132096, Note_on_c, 0, 75, 127
4, 132224, Note_off_c, 0, 75, 83
4, 132288, Note_on_c, 0, 84, 127
4, 132544, Note_off_c, 0, 84, 83
4, 132576, Note_on_c, 0, 75, 127
4, 132640, Note_off_c, 0, 75, 83
4, 132672, Note_on_c, 0, 74, 127
4, 132736, Note_off_c, 0, 74, 83
4, 132768, Note_on_c, 0, 72, 127
4, 132832, Note_off_c, 0, 72, 83
4, 132864, Note_on_c, 0, 74, 127
4, 132956, Note_off_c, 0, 74, 83
4, 132960, Note_on_c, 0, 72, 127
4, 133052, Note_off_c, 0, 72, 83
4, 133056, Note_on_c, 0, 70, 127
4, 133120, Note_off_c, 0, 70, 83
4, 133152, Note_on_c, 0, 72, 127
4, 133216, Note_off_c, 0, 72, 83
4, 133248, Note_on_c, 0, 74, 127
4, 133312, Note_off_c, 0, 74, 83
4, 133344, Note_on_c, 0, 76, 127
4, 133408, Note_off_c, 0, 76, 83
4, 133440, Note_on_c, 0, 77, 127
4, 133440, Note_on_c, 0, 70, 127
4, 133504, Note_off_c, 0, 77, 83
4, 133536, Note_on_c, 0, 79, 127
4, 133568, Note_off_c, 0, 70, 83
4, 133600, Note_off_c, 0, 79, 83
4, 133632, Note_on_c, 0, 80, 127
4, 133632, Note_on_c, 0, 71, 127
4, 133632, Note_on_c, 0, 65, 127
4, 133632, Note_on_c, 0, 62, 127
4, 133696, Note_off_c, 0, 80, 83
4, 133728, Note_on_c, 0, 79, 127
4, 133772, Note_off_c, 0, 79, 83
4, 133776, Note_on_c, 0, 77, 127
4, 133820, Note_off_c, 0, 77, 83
4, 133824, Note_on_c, 0, 79, 127
4, 134012, Note_off_c, 0, 71, 83
4, 134012, Note_off_c, 0, 65, 83
4, 134012, Note_off_c, 0, 62, 83
4, 134016, Note_on_c, 0, 67, 127
4, 134016, Note_on_c, 0, 62, 127
4, 134016, Note_on_c, 0, 59, 127
4, 134080, Note_off_c, 0, 79, 83
4, 134112, Note_on_c, 0, 77, 127
4, 134156, Note_off_c, 0, 77, 83
4, 134160, Note_on_c, 0, 76, 127
4, 134204, Note_off_c, 0, 76, 83
4, 134208, Note_on_c, 0, 77, 127
4, 134396, Note_off_c, 0, 67, 83
4, 134396, Note_off_c, 0, 62, 83
4, 134396, Note_off_c, 0, 59, 83
4, 134464, Note_off_c, 0, 77, 83
4, 134496, Note_on_c, 0, 76, 127
4, 134544, Note_off_c, 0, 76, 83
4, 134544, Note_on_c, 0, 74, 127
4, 134592, Note_off_c, 0, 74, 83
4, 134592, Note_on_c, 0, 76, 127
4, 134876, Note_off_c, 0, 76, 83
4, 134880, Note_on_c, 0, 79, 127
4, 134972, Note_off_c, 0, 79, 83
4, 134976, Note_on_c, 0, 76, 127
4, 135068, Note_off_c, 0, 76, 83
4, 135072, Note_on_c, 0, 72, 127
4, 135164, Note_off_c, 0, 72, 83
4, 135168, Note_on_c, 0, 70, 127
4, 135232, Note_off_c, 0, 70, 83
4, 135264, Note_on_c, 0, 79, 127
4, 135356, Note_off_c, 0, 79, 83
4, 135360, Note_on_c, 0, 76, 127
4, 135452, Note_off_c, 0, 76, 83
4, 135456, Note_on_c, 0, 72, 127
4, 135548, Note_off_c, 0, 72, 83
4, 135552, Note_on_c, 0, 70, 127
4, 135616, Note_off_c, 0, 70, 83
4, 135648, Note_on_c, 0, 79, 127
4, 135740, Note_off_c, 0, 79, 83
4, 135744, Note_on_c, 0, 76, 127
4, 135744, Note_on_c, 0, 67, 127
4, 135836, Note_off_c, 0, 76, 83
4, 135840, Note_on_c, 0, 72, 127
4, 135872, Note_off_c, 0, 67, 83
4, 135932, Note_off_c, 0, 72, 83
4, 135936, Note_on_c, 0, 70, 127
4, 135936, Note_on_c, 0, 64, 127
4, 136000, Note_off_c, 0, 70, 83
4, 136032, Note_on_c, 0, 79, 127
4, 136064, Note_off_c, 0, 64, 83
4, 136124, Note_off_c, 0, 79, 83
4, 136128, Note_on_c, 0, 76, 127
4, 136128, Note_on_c, 0, 60, 127
4, 136220, Note_off_c, 0, 76, 83
4, 136224, Note_on_c, 0, 72, 127
4, 136256, Note_off_c, 0, 60, 83
4, 136316, Note_off_c, 0, 72, 83
4, 136320, Note_on_c, 0, 70, 127
4, 136384, Note_off_c, 0, 70, 83
4, 136416, Note_on_c, 0, 79, 127
4, 136508, Note_off_c, 0, 79, 83
4, 136512, Note_on_c, 0, 76, 127
4, 136604, Note_off_c, 0, 76, 83
4, 136608, Note_on_c, 0, 72, 127
4, 136700, Note_off_c, 0, 72, 83
4, 136704, Note_on_c, 0, 69, 127
4, 136768, Note_off_c, 0, 69, 83
4, 136800, Note_on_c, 0, 81, 127
4, 136892, Note_off_c, 0, 81, 83
4, 136896, Note_on_c, 0, 77, 127
4, 136988, Note_off_c, 0, 77, 83
4, 136992, Note_on_c, 0, 73, 127
4, 137084, Note_off_c, 0, 73, 83
4, 137088, Note_on_c, 0, 72, 127
4, 137152, Note_off_c, 0, 72, 83
4, 137184, Note_on_c, 0, 81, 127
4, 137276, Note_off_c, 0, 81, 83
4, 137280, Note_on_c, 0, 77, 127
4, 137280, Note_on_c, 0, 69, 127
4, 137372, Note_off_c, 0, 77, 83
4, 137376, Note_on_c, 0, 73, 127
4, 137468, Note_off_c, 0, 69, 83
4, 137468, Note_off_c, 0, 73, 83
4, 137472, Note_on_c, 0, 72, 127
4, 137536, Note_off_c, 0, 72, 83
4, 137568, Note_on_c, 0, 81, 127
4, 137660, Note_off_c, 0, 81, 83
4, 137664, Note_on_c, 0, 77, 127
4, 137756, Note_off_c, 0, 77, 83
4, 137760, Note_on_c, 0, 73, 127
4, 137852, Note_off_c, 0, 73, 83
4, 137856, Note_on_c, 0, 72, 127
4, 137920, Note_off_c, 0, 72, 83
4, 137952, Note_on_c, 0, 81, 127
4, 138044, Note_off_c, 0, 81, 83
4, 138048, Note_on_c, 0, 77, 127
4, 138140, Note_off_c, 0, 77, 83
4, 138144, Note_on_c, 0, 75, 127
4, 138236, Note_off_c, 0, 75, 83
4, 138240, Note_on_c, 0, 74, 127
4, 138304, Note_off_c, 0, 74, 83
4, 138336, Note_on_c, 0, 83, 127
4, 138428, Note_off_c, 0, 83, 83
4, 138432, Note_on_c, 0, 80, 127
4, 138524, Note_off_c, 0, 80, 83
4, 138528, Note_on_c, 0, 77, 127
4, 138620, Note_off_c, 0, 77, 83
4, 138624, Note_on_c, 0, 74, 127
4, 138688, Note_off_c, 0, 74, 83
4, 138720, Note_on_c, 0, 83, 127
4, 138812, Note_off_c, 0, 83, 83
4, 138816, Note_on_c, 0, 80, 127
4, 138908, Note_off_c, 0, 80, 83
4, 138912, Note_on_c, 0, 77, 127
4, 139004, Note_off_c, 0, 77, 83
4, 139008, Note_on_c, 0, 74, 127
4, 139072, Note_off_c, 0, 74, 83
4, 139104, Note_on_c, 0, 83, 127
4, 139196, Note_off_c, 0, 83, 83
4, 139200, Note_on_c, 0, 80, 127
4, 139292, Note_off_c, 0, 80, 83
4, 139296, Note_on_c, 0, 77, 127
4, 139388, Note_off_c, 0, 77, 83
4, 139392, Note_on_c, 0, 74, 127
4, 139456, Note_off_c, 0, 74, 83
4, 139488, Note_on_c, 0, 83, 127
4, 139580, Note_off_c, 0, 83, 83
4, 139584, Note_on_c, 0, 80, 127
4, 139676, Note_off_c, 0, 80, 83
4, 139680, Note_on_c, 0, 77, 127
4, 139772, Note_off_c, 0, 77, 83
4, 139776, Note_on_c, 0, 76, 127
4, 139868, Note_off_c, 0, 76, 83
4, 139872, Note_on_c, 0, 84, 127
4, 139964, Note_off_c, 0, 84, 83
4, 139968, Note_on_c, 0, 79, 127
4, 140060, Note_off_c, 0, 79, 83
4, 140064, Note_on_c, 0, 76, 127
4, 140156, Note_off_c, 0, 76, 83
4, 140160, Note_on_c, 0, 72, 127
4, 140224, Note_off_c, 0, 72, 83
4, 140256, Note_on_c, 0, 76, 127
4, 140320, Note_off_c, 0, 76, 83
4, 140352, Note_on_c, 0, 74, 127
4, 140416, Note_off_c, 0, 74, 83
4, 140448, Note_on_c, 0, 77, 127
4, 140512, Note_off_c, 0, 77, 83
4, 140544, Note_on_c, 0, 76, 127
4, 140636, Note_off_c, 0, 76, 83
4, 140640, Note_on_c, 0, 79, 127
4, 140732, Note_off_c, 0, 79, 83
4, 140736, Note_on_c, 0, 76, 127
4, 140828, Note_off_c, 0, 76, 83
4, 140832, Note_on_c, 0, 72, 127
4, 140924, Note_off_c, 0, 72, 83
4, 140928, Note_on_c, 0, 67, 127
4, 140992, Note_off_c, 0, 67, 83
4, 141024, Note_on_c, 0, 70, 127
4, 141088, Note_off_c, 0, 70, 83
4, 141120, Note_on_c, 0, 69, 127
4, 141184, Note_off_c, 0, 69, 83
4, 141216, Note_on_c, 0, 72, 127
4, 141280, Note_off_c, 0, 72, 83
4, 141312, Note_on_c, 0, 70, 127
4, 141404, Note_off_c, 0, 70, 83
4, 141408, Note_on_c, 0, 74, 127
4, 141500, Note_off_c, 0, 74, 83
4, 141504, Note_on_c, 0, 70, 127
4, 141596, Note_off_c, 0, 70, 83
4, 141600, Note_on_c, 0, 67, 127
4, 141692, Note_off_c, 0, 67, 83
4, 141696, Note_on_c, 0, 64, 127
4, 141760, Note_off_c, 0, 64, 83
4, 141792, Note_on_c, 0, 67, 127
4, 141856, Note_off_c, 0, 67, 83
4, 141888, Note_on_c, 0, 65, 127
4, 141952, Note_off_c, 0, 65, 83
4, 141984, Note_on_c, 0, 69, 127
4, 142048, Note_off_c, 0, 69, 83
4, 142080, Note_on_c, 0, 67, 127
4, 142172, Note_off_c, 0, 67, 83
4, 142176, Note_on_c, 0, 70, 127
4, 142268, Note_off_c, 0, 70, 83
4, 142272, Note_on_c, 0, 67, 127
4, 142364, Note_off_c, 0, 67, 83
4, 142368, Note_on_c, 0, 64, 127
4, 142460, Note_off_c, 0, 64, 83
4, 142464, Note_on_c, 0, 60, 127
4, 142528, Note_off_c, 0, 60, 83
4, 142560, Note_on_c, 0, 70, 127
4, 142652, Note_off_c, 0, 70, 83
4, 142656, Note_on_c, 0, 69, 127
4, 142748, Note_off_c, 0, 69, 83
4, 142752, Note_on_c, 0, 67, 127
4, 142844, Note_off_c, 0, 67, 83
4, 142848, Note_on_c, 0, 69, 127
4, 142940, Note_off_c, 0, 69, 83
4, 142944, Note_on_c, 0, 65, 127
4, 143036, Note_off_c, 0, 65, 83
4, 143040, Note_on_c, 0, 67, 127
4, 143132, Note_off_c, 0, 67, 83
4, 143136, Note_on_c, 0, 69, 127
4, 143228, Note_off_c, 0, 69, 83
4, 143232, Note_on_c, 0, 70, 127
4, 143324, Note_off_c, 0, 70, 83
4, 143328, Note_on_c, 0, 72, 127
4, 143420, Note_off_c, 0, 72, 83
4, 143424, Note_on_c, 0, 74, 127
4, 143516, Note_off_c, 0, 74, 83
4, 143520, Note_on_c, 0, 76, 127
4, 143612, Note_off_c, 0, 76, 83
4, 143616, Note_on_c, 0, 77, 127
4, 143708, Note_off_c, 0, 77, 83
4, 143712, Note_on_c, 0, 76, 127
4, 143804, Note_off_c, 0, 76, 83
4, 143808, Note_on_c, 0, 74, 127
4, 143900, Note_off_c, 0, 74, 83
4, 143904, Note_on_c, 0, 72, 127
4, 143996, Note_off_c, 0, 72, 83
4, 144000, Note_on_c, 0, 84, 127
4, 144128, Note_off_c, 0, 84, 83
4, 144192, Note_on_c, 0, 77, 127
4, 144192, Note_on_c, 0, 72, 127
4, 144192, Note_on_c, 0, 69, 127
4, 144320, Note_off_c, 0, 77, 83
4, 144320, Note_off_c, 0, 72, 83
4, 144320, Note_off_c, 0, 69, 83
4, 144384, Note_on_c, 0, 77, 127
4, 144384, Note_on_c, 0, 72, 127
4, 144384, Note_on_c, 0, 69, 127
4, 144764, Note_off_c, 0, 77, 83
4, 144764, Note_off_c, 0, 72, 83
4, 144764, Note_off_c, 0, 69, 83
4, 144768, Note_on_c, 0, 67, 127
4, 144768, Note_on_c, 0, 76, 127
4, 144768, Note_on_c, 0, 72, 127
4, 145024, Note_off_c, 0, 67, 83
4, 145152, Note_on_c, 0, 65, 127
4, 145216, Note_off_c, 0, 76, 83
4, 145248, Note_on_c, 0, 77, 127
4, 145280, Note_off_c, 0, 72, 83
4, 145344, Note_on_c, 0, 71, 127
4, 145408, Note_off_c, 0, 65, 83
4, 145440, Note_off_c, 0, 77, 83
4, 145600, Note_off_c, 0, 71, 83
4, 145632, Note_on_c, 0, 74, 127
4, 145696, Note_off_c, 0, 74, 83
4, 145728, Note_on_c, 0, 72, 127
4, 145792, Note_off_c, 0, 72, 83
4, 145824, Note_on_c, 0, 70, 127
4, 145888, Note_off_c, 0, 70, 83
4, 145920, Note_on_c, 0, 69, 127
4, 146016, Note_on_c, 0, 72, 127
4, 146108, Note_off_c, 0, 72, 83
4, 146112, Note_on_c, 0, 77, 127
4, 146204, Note_off_c, 0, 69, 83
4, 146208, Note_on_c, 0, 69, 127
4, 146300, Note_off_c, 0, 69, 83
4, 146304, Note_on_c, 0, 67, 127
4, 146492, Note_off_c, 0, 77, 83
4, 146496, Note_on_c, 0, 76, 127
4, 146496, Note_on_c, 0, 72, 127
4, 146496, Note_on_c, 0, 70, 127
4, 146684, Note_off_c, 0, 67, 83
4, 146684, Note_off_c, 0, 76, 83
4, 146684, Note_off_c, 0, 72, 83
4, 146684, Note_off_c, 0, 70, 83
4, 146688, Note_on_c, 0, 65, 127
4, 146724, Note_on_c, 0, 69, 127
4, 146748, Note_on_c, 0, 77, 127
4, 146772, Note_on_c, 0, 72, 127
4, 148028, Note_off_c, 0, 65, 83
4, 148028, Note_off_c, 0, 69, 83
4, 148028, Note_off_c, 0, 72, 83
4, 148028, Note_off_c, 0, 77, 83
4, 148028, End_track
5, 0, Start_track
5, 0, Title_t, "Manual 1 LH"
5, 0, Control_c, 0, 0, 0
5, 0, Program_c, 0, 6
5, 0, Control_c, 0, 7, 100
5, 0, Key_signature, -1, "minor"
5, 0, Note_on_c, 0, 53, 127
5, 0, Note_on_c, 0, 48, 127
5, 0, Note_on_c, 0, 45, 127
5, 0, Note_on_c, 0, 41, 127
5, 380, Note_off_c, 0, 53, 83
5, 380, Note_off_c, 0, 48, 83
5, 380, Note_off_c, 0, 45, 83
5, 380, Note_off_c, 0, 41, 83
5, 960, Note_on_c, 0, 65, 127
5, 1088, Note_off_c, 0, 65, 83
5, 1152, Note_on_c, 0, 62, 127
5, 1280, Note_off_c, 0, 62, 83
5, 1344, Note_on_c, 0, 58, 127
5, 1472, Note_off_c, 0, 58, 83
5, 1728, Note_on_c, 0, 53, 127
5, 1856, Note_off_c, 0, 53, 83
5, 1920, Note_on_c, 0, 50, 127
5, 2048, Note_off_c, 0, 50, 83
5, 2112, Note_on_c, 0, 46, 127
5, 2240, Note_off_c, 0, 46, 83
5, 2304, Note_on_c, 0, 53, 127
5, 2496, Note_on_c, 0, 41, 127
5, 2624, Note_off_c, 0, 41, 83
5, 2684, Note_off_c, 0, 53, 83
5, 3072, Note_on_c, 0, 60, 127
5, 3072, Note_on_c, 0, 55, 127
5, 3072, Note_on_c, 0, 52, 127
5, 3072, Note_on_c, 0, 48, 127
5, 3452, Note_off_c, 0, 60, 83
5, 3452, Note_off_c, 0, 55, 83
5, 3452, Note_off_c, 0, 52, 83
5, 3452, Note_off_c, 0, 48, 83
5, 4800, Note_on_c, 0, 60, 127
5, 4988, Note_off_c, 0, 60, 83
5, 4992, Note_on_c, 0, 57, 127
5, 5180, Note_off_c, 0, 57, 83
5, 5184, Note_on_c, 0, 53, 127
5, 5372, Note_off_c, 0, 53, 83
5, 5376, Note_on_c, 0, 60, 127
5, 5568, Note_on_c, 0, 48, 127
5, 5696, Note_off_c, 0, 48, 83
5, 5756, Note_off_c, 0, 60, 83
5, 6144, Note_on_c, 0, 60, 127
5, 6144, Note_on_c, 0, 52, 127
5, 6144, Note_on_c, 0, 48, 127
5, 6524, Note_off_c, 0, 60, 83
5, 6524, Note_off_c, 0, 52, 83
5, 6524, Note_off_c, 0, 48, 83
5, 6528, Note_on_c, 0, 55, 127
5, 6528, Note_on_c, 0, 52, 127
5, 6528, Note_on_c, 0, 48, 127
5, 6528, Note_on_c, 0, 60, 127
5, 6784, Note_off_c, 0, 55, 83
5, 6784, Note_off_c, 0, 52, 83
5, 6784, Note_off_c, 0, 48, 83
5, 6912, Note_on_c, 0, 53, 127
5, 7040, Note_off_c, 0, 60, 83
5, 7104, Note_on_c, 0, 57, 127
5, 7168, Note_off_c, 0, 53, 83
5, 7232, Note_off_c, 0, 57, 83
5, 7296, Note_on_c, 0, 60, 127
5, 7424, Note_off_c, 0, 60, 83
5, 7488, Note_on_c, 0, 65, 127
5, 7616, Note_off_c, 0, 65, 83
5, 7680, Note_on_c, 0, 57, 127
5, 7680, Note_on_c, 0, 60, 127
5, 7680, Note_on_c, 0, 65, 127
5, 8060, Note_off_c, 0, 57, 83
5, 8060, Note_off_c, 0, 60, 83
5, 8060, Note_off_c, 0, 65, 83
5, 8064, Note_on_c, 0, 53, 127
5, 8064, Note_on_c, 0, 57, 127
5, 8064, Note_on_c, 0, 60, 127
5, 8064, Note_on_c, 0, 65, 127
5, 8444, Note_off_c, 0, 53, 83
5, 8444, Note_off_c, 0, 57, 83
5, 8444, Note_off_c, 0, 60, 83
5, 8448, Note_on_c, 0, 58, 127
5, 8636, Note_off_c, 0, 65, 83
5, 8640, Note_on_c, 0, 62, 127
5, 8768, Note_off_c, 0, 62, 83
5, 8828, Note_off_c, 0, 58, 83
5, 8832, Note_on_c, 0, 65, 127
5, 8960, Note_off_c, 0, 65, 83
5, 9984, Note_on_c, 0, 62, 127
5, 9984, Note_on_c, 0, 59, 127
5, 9984, Note_on_c, 0, 55, 127
5, 10364, Note_off_c, 0, 62, 83
5, 10364, Note_off_c, 0, 59, 83
5, 10364, Note_off_c, 0, 55, 83
5, 10368, Note_on_c, 0, 64, 127
5, 10368, Note_on_c, 0, 55, 127
5, 10368, Note_on_c, 0, 48, 127
5, 10624, Note_off_c, 0, 64, 83
5, 10624, Note_off_c, 0, 55, 83
5, 10624, Note_off_c, 0, 48, 83
5, 10944, Note_on_c, 0, 60, 127
5, 11036, Note_off_c, 0, 60, 83
5, 11040, Note_on_c, 0, 62, 127
5, 11132, Note_off_c, 0, 62, 83
5, 11136, Note_on_c, 0, 64, 127
5, 11264, Note_off_c, 0, 64, 83
5, 11904, Note_on_c, 0, 48, 127
5, 12284, Note_off_c, 0, 48, 83
5, 12384, Note_on_c, 0, 60, 127
5, 12448, Note_off_c, 0, 60, 83
5, 12480, Note_on_c, 0, 62, 127
5, 12544, Note_off_c, 0, 62, 83
5, 12576, Note_on_c, 0, 64, 127
5, 12640, Note_off_c, 0, 64, 83
5, 12672, Note_on_c, 0, 65, 127
5, 12860, Note_off_c, 0, 65, 83
5, 13056, Note_on_c, 0, 65, 127
5, 13244, Note_off_c, 0, 65, 83
5, 13248, Note_on_c, 0, 60, 127
5, 13436, Note_off_c, 0, 60, 83
5, 13440, Note_on_c, 0, 48, 127
5, 13820, Note_off_c, 0, 48, 83
5, 14016, Note_on_c, 0, 62, 127
5, 14080, Note_off_c, 0, 62, 83
5, 14112, Note_on_c, 0, 64, 127
5, 14176, Note_off_c, 0, 64, 83
5, 14208, Note_on_c, 0, 65, 127
5, 14336, Note_off_c, 0, 65, 83
5, 14400, Note_on_c, 0, 62, 127
5, 14492, Note_off_c, 0, 62, 83
5, 14496, Note_on_c, 0, 64, 127
5, 14588, Note_off_c, 0, 64, 83
5, 14592, Note_on_c, 0, 65, 127
5, 14780, Note_off_c, 0, 65, 83
5, 14784, Note_on_c, 0, 62, 127
5, 14972, Note_off_c, 0, 62, 83
5, 14976, Note_on_c, 0, 55, 127
5, 15164, Note_off_c, 0, 55, 83
5, 15168, Note_on_c, 0, 59, 127
5, 15356, Note_off_c, 0, 59, 83
5, 15360, Note_on_c, 0, 60, 127
5, 15488, Note_off_c, 0, 60, 83
5, 15552, Note_on_c, 0, 48, 127
5, 15644, Note_off_c, 0, 48, 83
5, 15648, Note_on_c, 0, 50, 127
5, 15740, Note_off_c, 0, 50, 83
5, 15744, Note_on_c, 0, 52, 127
5, 15932, Note_off_c, 0, 52, 83
5, 15936, Note_on_c, 0, 55, 127
5, 16124, Note_off_c, 0, 55, 83
5, 16128, Note_on_c, 0, 60, 127
5, 16256, Note_off_c, 0, 60, 83
5, 16320, Note_on_c, 0, 48, 127
5, 16412, Note_off_c, 0, 48, 83
5, 16416, Note_on_c, 0, 50, 127
5, 16508, Note_off_c, 0, 50, 83
5, 16512, Note_on_c, 0, 52, 127
5, 16700, Note_off_c, 0, 52, 83
5, 16704, Note_on_c, 0, 53, 127
5, 16892, Note_off_c, 0, 53, 83
5, 16896, Note_on_c, 0, 55, 127
5, 17024, Note_off_c, 0, 55, 83
5, 17088, Note_on_c, 0, 48, 127
5, 17180, Note_off_c, 0, 48, 83
5, 17184, Note_on_c, 0, 52, 127
5, 17276, Note_off_c, 0, 52, 83
5, 17280, Note_on_c, 0, 55, 127
5, 17468, Note_off_c, 0, 55, 83
5, 17472, Note_on_c, 0, 57, 127
5, 17660, Note_off_c, 0, 57, 83
5, 17664, Note_on_c, 0, 58, 127
5, 17792, Note_off_c, 0, 58, 83
5, 17856, Note_on_c, 0, 48, 127
5, 17948, Note_off_c, 0, 48, 83
5, 17952, Note_on_c, 0, 50, 127
5, 18044, Note_off_c, 0, 50, 83
5, 18048, Note_on_c, 0, 52, 127
5, 18236, Note_off_c, 0, 52, 83
5, 18240, Note_on_c, 0, 48, 127
5, 18428, Note_off_c, 0, 48, 83
5, 18432, Note_on_c, 0, 53, 127
5, 18524, Note_off_c, 0, 53, 83
5, 18528, Note_on_c, 0, 57, 127
5, 18620, Note_off_c, 0, 57, 83
5, 18624, Note_on_c, 0, 55, 127
5, 18716, Note_off_c, 0, 55, 83
5, 18720, Note_on_c, 0, 53, 127
5, 18812, Note_off_c, 0, 53, 83
5, 18816, Note_on_c, 0, 52, 127
5, 18908, Note_off_c, 0, 52, 83
5, 18912, Note_on_c, 0, 50, 127
5, 19004, Note_off_c, 0, 50, 83
5, 19008, Note_on_c, 0, 48, 127
5, 19100, Note_off_c, 0, 48, 83
5, 19104, Note_on_c, 0, 46, 127
5, 19196, Note_off_c, 0, 46, 83
5, 19200, Note_on_c, 0, 45, 127
5, 19292, Note_off_c, 0, 45, 83
5, 19296, Note_on_c, 0, 48, 127
5, 19388, Note_off_c, 0, 48, 83
5, 19392, Note_on_c, 0, 50, 127
5, 19484, Note_off_c, 0, 50, 83
5, 19488, Note_on_c, 0, 52, 127
5, 19580, Note_off_c, 0, 52, 83
5, 19584, Note_on_c, 0, 53, 127
5, 19676, Note_off_c, 0, 53, 83
5, 19680, Note_on_c, 0, 55, 127
5, 19772, Note_off_c, 0, 55, 83
5, 19776, Note_on_c, 0, 57, 127
5, 19868, Note_off_c, 0, 57, 83
5, 19872, Note_on_c, 0, 58, 127
5, 19964, Note_off_c, 0, 58, 83
5, 19968, Note_on_c, 0, 60, 127
5, 20348, Note_off_c, 0, 60, 83
5, 20352, Note_on_c, 0, 48, 127
5, 20608, Note_off_c, 0, 48, 83
5, 20736, Note_on_c, 0, 50, 127
5, 21116, Note_off_c, 0, 50, 83
5, 21312, Note_on_c, 0, 52, 127
5, 21440, Note_off_c, 0, 52, 83
5, 21504, Note_on_c, 0, 53, 127
5, 21692, Note_off_c, 0, 53, 83
5, 21696, Note_on_c, 0, 45, 127
5, 21884, Note_off_c, 0, 45, 83
5, 21888, Note_on_c, 0, 46, 127
5, 22076, Note_off_c, 0, 46, 83
5, 22080, Note_on_c, 0, 48, 127
5, 22268, Note_off_c, 0, 48, 83
5, 22272, Note_on_c, 0, 41, 127
5, 22400, Note_off_c, 0, 41, 83
5, 39264, Note_on_c, 0, 60, 127
5, 39356, Note_off_c, 0, 60, 83
5, 39360, Note_on_c, 0, 59, 127
5, 39452, Note_off_c, 0, 59, 83
5, 39456, Note_on_c, 0, 57, 127
5, 39548, Note_off_c, 0, 57, 83
5, 39552, Note_on_c, 0, 55, 127
5, 39644, Note_off_c, 0, 55, 83
5, 39648, Note_on_c, 0, 53, 127
5, 39740, Note_off_c, 0, 53, 83
5, 39744, Note_on_c, 0, 52, 127
5, 39836, Note_off_c, 0, 52, 83
5, 39840, Note_on_c, 0, 50, 127
5, 39932, Note_off_c, 0, 50, 83
5, 39936, Note_on_c, 0, 48, 127
5, 40000, Note_off_c, 0, 48, 83
5, 40032, Note_on_c, 0, 48, 127
5, 40124, Note_off_c, 0, 48, 83
5, 40128, Note_on_c, 0, 47, 127
5, 40220, Note_off_c, 0, 47, 83
5, 40224, Note_on_c, 0, 45, 127
5, 40316, Note_off_c, 0, 45, 83
5, 40320, Note_on_c, 0, 43, 127
5, 40412, Note_off_c, 0, 43, 83
5, 40416, Note_on_c, 0, 41, 127
5, 40508, Note_off_c, 0, 41, 83
5, 40512, Note_on_c, 0, 40, 127
5, 40604, Note_off_c, 0, 40, 83
5, 40608, Note_on_c, 0, 38, 127
5, 40700, Note_off_c, 0, 38, 83
5, 40704, Note_on_c, 0, 36, 127
5, 40892, Note_off_c, 0, 36, 83
5, 40896, Note_on_c, 0, 60, 127
5, 41084, Note_off_c, 0, 60, 83
5, 41088, Note_on_c, 0, 57, 127
5, 41276, Note_off_c, 0, 57, 83
5, 41280, Note_on_c, 0, 53, 127
5, 41468, Note_off_c, 0, 53, 83
5, 41472, Note_on_c, 0, 48, 127
5, 41664, Note_on_c, 0, 43, 127
5, 41852, Note_off_c, 0, 43, 83
5, 41856, Note_on_c, 0, 40, 127
5, 42044, Note_off_c, 0, 40, 83
5, 42048, Note_on_c, 0, 36, 127
5, 42236, Note_off_c, 0, 36, 83
5, 42240, Note_on_c, 0, 41, 127
5, 42428, Note_off_c, 0, 48, 83
5, 42428, Note_off_c, 0, 41, 83
5, 42624, Note_on_c, 0, 60, 127
5, 42716, Note_off_c, 0, 60, 83
5, 42720, Note_on_c, 0, 58, 127
5, 42812, Note_off_c, 0, 58, 83
5, 42816, Note_on_c, 0, 57, 127
5, 42908, Note_off_c, 0, 57, 83
5, 42912, Note_on_c, 0, 55, 127
5, 43004, Note_off_c, 0, 55, 83
5, 43008, Note_on_c, 0, 53, 127
5, 43072, Note_off_c, 0, 53, 83
5, 43104, Note_on_c, 0, 53, 127
5, 43196, Note_off_c, 0, 53, 83
5, 43200, Note_on_c, 0, 52, 127
5, 43292, Note_off_c, 0, 52, 83
5, 43296, Note_on_c, 0, 50, 127
5, 43388, Note_off_c, 0, 50, 83
5, 43392, Note_on_c, 0, 48, 127
5, 43484, Note_off_c, 0, 48, 83
5, 43488, Note_on_c, 0, 46, 127
5, 43580, Note_off_c, 0, 46, 83
5, 43584, Note_on_c, 0, 45, 127
5, 43676, Note_off_c, 0, 45, 83
5, 43680, Note_on_c, 0, 43, 127
5, 43772, Note_off_c, 0, 43, 83
5, 43776, Note_on_c, 0, 41, 127
5, 43964, Note_off_c, 0, 41, 83
5, 43968, Note_on_c, 0, 65, 127
5, 44156, Note_off_c, 0, 65, 83
5, 44160, Note_on_c, 0, 62, 127
5, 44348, Note_off_c, 0, 62, 83
5, 44352, Note_on_c, 0, 58, 127
5, 44540, Note_off_c, 0, 58, 83
5, 44544, Note_on_c, 0, 53, 127
5, 44736, Note_on_c, 0, 48, 127
5, 44924, Note_off_c, 0, 48, 83
5, 44928, Note_on_c, 0, 45, 127
5, 45116, Note_off_c, 0, 45, 83
5, 45120, Note_on_c, 0, 41, 127
5, 45308, Note_off_c, 0, 41, 83
5, 45312, Note_on_c, 0, 46, 127
5, 45440, Note_off_c, 0, 53, 83
5, 45500, Note_off_c, 0, 46, 83
5, 45696, Note_on_c, 0, 65, 127
5, 45788, Note_off_c, 0, 65, 83
5, 45792, Note_on_c, 0, 63, 127
5, 45884, Note_off_c, 0, 63, 83
5, 45888, Note_on_c, 0, 62, 127
5, 45980, Note_off_c, 0, 62, 83
5, 45984, Note_on_c, 0, 60, 127
5, 46076, Note_off_c, 0, 60, 83
5, 46080, Note_on_c, 0, 58, 127
5, 46208, Note_off_c, 0, 58, 83
5, 46560, Note_on_c, 0, 58, 127
5, 46652, Note_off_c, 0, 58, 83
5, 46656, Note_on_c, 0, 57, 127
5, 46748, Note_off_c, 0, 57, 83
5, 46752, Note_on_c, 0, 55, 127
5, 46844, Note_off_c, 0, 55, 83
5, 46848, Note_on_c, 0, 57, 127
5, 46976, Note_off_c, 0, 57, 83
5, 47040, Note_on_c, 0, 65, 127
5, 47324, Note_off_c, 0, 65, 83
5, 47328, Note_on_c, 0, 57, 127
5, 47392, Note_off_c, 0, 57, 83
5, 47424, Note_on_c, 0, 55, 127
5, 47488, Note_off_c, 0, 55, 83
5, 47520, Note_on_c, 0, 53, 127
5, 47584, Note_off_c, 0, 53, 83
5, 47616, Note_on_c, 0, 55, 127
5, 47744, Note_off_c, 0, 55, 83
5, 47808, Note_on_c, 0, 64, 127
5, 48092, Note_off_c, 0, 64, 83
5, 48096, Note_on_c, 0, 62, 127
5, 48188, Note_off_c, 0, 62, 83
5, 48192, Note_on_c, 0, 61, 127
5, 48284, Note_off_c, 0, 61, 83
5, 48288, Note_on_c, 0, 62, 127
5, 48380, Note_off_c, 0, 62, 83
5, 48384, Note_on_c, 0, 55, 127
5, 48448, Note_off_c, 0, 55, 83
5, 48480, Note_on_c, 0, 62, 127
5, 48572, Note_off_c, 0, 62, 83
5, 48576, Note_on_c, 0, 61, 127
5, 48668, Note_off_c, 0, 61, 83
5, 48672, Note_on_c, 0, 64, 127
5, 48764, Note_off_c, 0, 64, 83
5, 48768, Note_on_c, 0, 57, 127
5, 48832, Note_off_c, 0, 57, 83
5, 48864, Note_on_c, 0, 55, 127
5, 48928, Note_off_c, 0, 55, 83
5, 48960, Note_on_c, 0, 53, 127
5, 49024, Note_off_c, 0, 53, 83
5, 49056, Note_on_c, 0, 52, 127
5, 49120, Note_off_c, 0, 52, 83
5, 49152, Note_on_c, 0, 53, 127
5, 49340, Note_off_c, 0, 53, 83
5, 49344, Note_on_c, 0, 55, 127
5, 49532, Note_off_c, 0, 55, 83
5, 49536, Note_on_c, 0, 53, 127
5, 49724, Note_off_c, 0, 53, 83
5, 49728, Note_on_c, 0, 52, 127
5, 49916, Note_off_c, 0, 52, 83
5, 49920, Note_on_c, 0, 50, 127
5, 50108, Note_off_c, 0, 50, 83
5, 50112, Note_on_c, 0, 58, 127
5, 50300, Note_off_c, 0, 58, 83
5, 50304, Note_on_c, 0, 57, 127
5, 50492, Note_off_c, 0, 57, 83
5, 50496, Note_on_c, 0, 55, 127
5, 50684, Note_off_c, 0, 55, 83
5, 50688, Note_on_c, 0, 53, 127
5, 50876, Note_off_c, 0, 53, 83
5, 52320, Note_on_c, 0, 61, 127
5, 52412, Note_off_c, 0, 61, 83
5, 52416, Note_on_c, 0, 62, 127
5, 52508, Note_off_c, 0, 62, 83
5, 52512, Note_on_c, 0, 64, 127
5, 52604, Note_off_c, 0, 64, 83
5, 52608, Note_on_c, 0, 62, 127
5, 52700, Note_off_c, 0, 62, 83
5, 52704, Note_on_c, 0, 61, 127
5, 52796, Note_off_c, 0, 61, 83
5, 52800, Note_on_c, 0, 62, 127
5, 52864, Note_off_c, 0, 62, 83
5, 52896, Note_on_c, 0, 53, 127
5, 52960, Note_off_c, 0, 53, 83
5, 52992, Note_on_c, 0, 55, 127
5, 53056, Note_off_c, 0, 55, 83
5, 53088, Note_on_c, 0, 61, 127
5, 53180, Note_off_c, 0, 61, 83
5, 53184, Note_on_c, 0, 62, 127
5, 53276, Note_off_c, 0, 62, 83
5, 53280, Note_on_c, 0, 64, 127
5, 53372, Note_off_c, 0, 64, 83
5, 53376, Note_on_c, 0, 62, 127
5, 53468, Note_off_c, 0, 62, 83
5, 53472, Note_on_c, 0, 61, 127
5, 53564, Note_off_c, 0, 61, 83
5, 53568, Note_on_c, 0, 62, 127
5, 53632, Note_off_c, 0, 62, 83
5, 53664, Note_on_c, 0, 55, 127
5, 53728, Note_off_c, 0, 55, 83
5, 53760, Note_on_c, 0, 57, 127
5, 53824, Note_off_c, 0, 57, 83
5, 53856, Note_on_c, 0, 61, 127
5, 53948, Note_off_c, 0, 61, 83
5, 53952, Note_on_c, 0, 62, 127
5, 54044, Note_off_c, 0, 62, 83
5, 54048, Note_on_c, 0, 64, 127
5, 54140, Note_off_c, 0, 64, 83
5, 54144, Note_on_c, 0, 62, 127
5, 54236, Note_off_c, 0, 62, 83
5, 54240, Note_on_c, 0, 61, 127
5, 54332, Note_off_c, 0, 61, 83
5, 54336, Note_on_c, 0, 62, 127
5, 54400, Note_off_c, 0, 62, 83
5, 54432, Note_on_c, 0, 57, 127
5, 54496, Note_off_c, 0, 57, 83
5, 54528, Note_on_c, 0, 58, 127
5, 54592, Note_off_c, 0, 58, 83
5, 54624, Note_on_c, 0, 61, 127
5, 54716, Note_off_c, 0, 61, 83
5, 54720, Note_on_c, 0, 62, 127
5, 54812, Note_off_c, 0, 62, 83
5, 54816, Note_on_c, 0, 64, 127
5, 54908, Note_off_c, 0, 64, 83
5, 54912, Note_on_c, 0, 62, 127
5, 55004, Note_off_c, 0, 62, 83
5, 55008, Note_on_c, 0, 61, 127
5, 55100, Note_off_c, 0, 61, 83
5, 55104, Note_on_c, 0, 62, 127
5, 55168, Note_off_c, 0, 62, 83
5, 55200, Note_on_c, 0, 65, 127
5, 55264, Note_off_c, 0, 65, 83
5, 55680, Note_on_c, 0, 59, 127
5, 55680, Note_on_c, 0, 56, 127
5, 55936, Note_off_c, 0, 59, 83
5, 55936, Note_off_c, 0, 56, 83
5, 56064, Note_on_c, 0, 59, 127
5, 56064, Note_on_c, 0, 56, 127
5, 56064, Note_on_c, 0, 52, 127
5, 56320, Note_off_c, 0, 59, 83
5, 56320, Note_off_c, 0, 56, 83
5, 56320, Note_off_c, 0, 52, 83
5, 56448, Note_on_c, 0, 57, 127
5, 56448, Note_on_c, 0, 52, 127
5, 56448, Note_on_c, 0, 45, 127
5, 56704, Note_off_c, 0, 57, 83
5, 56704, Note_off_c, 0, 52, 83
5, 56704, Note_off_c, 0, 45, 83
5, 57024, Note_on_c, 0, 57, 127
5, 57116, Note_off_c, 0, 57, 83
5, 57120, Note_on_c, 0, 59, 127
5, 57212, Note_off_c, 0, 59, 83
5, 57216, Note_on_c, 0, 61, 127
5, 57404, Note_off_c, 0, 61, 83
5, 57408, Note_on_c, 0, 64, 127
5, 57596, Note_off_c, 0, 64, 83
5, 57600, Note_on_c, 0, 61, 127
5, 57788, Note_off_c, 0, 61, 83
5, 57792, Note_on_c, 0, 57, 127
5, 57980, Note_off_c, 0, 57, 83
5, 57984, Note_on_c, 0, 45, 127
5, 58364, Note_off_c, 0, 45, 83
5, 58464, Note_on_c, 0, 57, 127
5, 58556, Note_off_c, 0, 57, 83
5, 58560, Note_on_c, 0, 59, 127
5, 58652, Note_off_c, 0, 59, 83
5, 58656, Note_on_c, 0, 61, 127
5, 58748, Note_off_c, 0, 61, 83
5, 58752, Note_on_c, 0, 62, 127
5, 58940, Note_off_c, 0, 62, 83
5, 58944, Note_on_c, 0, 65, 127
5, 59132, Note_off_c, 0, 65, 83
5, 59136, Note_on_c, 0, 62, 127
5, 59324, Note_off_c, 0, 62, 83
5, 59328, Note_on_c, 0, 57, 127
5, 59516, Note_off_c, 0, 57, 83
5, 59520, Note_on_c, 0, 45, 127
5, 59900, Note_off_c, 0, 45, 83
5, 60096, Note_on_c, 0, 59, 127
5, 60188, Note_off_c, 0, 59, 83
5, 60192, Note_on_c, 0, 61, 127
5, 60284, Note_off_c, 0, 61, 83
5, 60288, Note_on_c, 0, 62, 127
5, 60476, Note_off_c, 0, 62, 83
5, 60480, Note_on_c, 0, 59, 127
5, 60572, Note_off_c, 0, 59, 83
5, 60576, Note_on_c, 0, 61, 127
5, 60668, Note_off_c, 0, 61, 83
5, 60672, Note_on_c, 0, 62, 127
5, 60860, Note_off_c, 0, 62, 83
5, 60864, Note_on_c, 0, 59, 127
5, 61052, Note_off_c, 0, 59, 83
5, 61056, Note_on_c, 0, 52, 127
5, 61244, Note_off_c, 0, 52, 83
5, 61248, Note_on_c, 0, 56, 127
5, 61436, Note_off_c, 0, 56, 83
5, 61440, Note_on_c, 0, 57, 127
5, 61568, Note_off_c, 0, 57, 83
5, 61632, Note_on_c, 0, 45, 127
5, 61724, Note_off_c, 0, 45, 83
5, 61728, Note_on_c, 0, 47, 127
5, 61820, Note_off_c, 0, 47, 83
5, 61824, Note_on_c, 0, 49, 127
5, 62012, Note_off_c, 0, 49, 83
5, 62016, Note_on_c, 0, 52, 127
5, 62204, Note_off_c, 0, 52, 83
5, 62208, Note_on_c, 0, 57, 127
5, 62336, Note_off_c, 0, 57, 83
5, 62400, Note_on_c, 0, 45, 127
5, 62492, Note_off_c, 0, 45, 83
5, 62496, Note_on_c, 0, 47, 127
5, 62588, Note_off_c, 0, 47, 83
5, 62592, Note_on_c, 0, 49, 127
5, 62780, Note_off_c, 0, 49, 83
5, 62784, Note_on_c, 0, 50, 127
5, 62972, Note_off_c, 0, 50, 83
5, 62976, Note_on_c, 0, 52, 127
5, 63104, Note_off_c, 0, 52, 83
5, 63168, Note_on_c, 0, 45, 127
5, 63260, Note_off_c, 0, 45, 83
5, 63264, Note_on_c, 0, 49, 127
5, 63356, Note_off_c, 0, 49, 83
5, 63360, Note_on_c, 0, 52, 127
5, 63548, Note_off_c, 0, 52, 83
5, 63552, Note_on_c, 0, 53, 127
5, 63740, Note_off_c, 0, 53, 83
5, 63744, Note_on_c, 0, 55, 127
5, 63932, Note_off_c, 0, 55, 83
5, 63936, Note_on_c, 0, 45, 127
5, 64028, Note_off_c, 0, 45, 83
5, 64032, Note_on_c, 0, 47, 127
5, 64124, Note_off_c, 0, 47, 83
5, 64128, Note_on_c, 0, 49, 127
5, 64316, Note_off_c, 0, 49, 83
5, 64320, Note_on_c, 0, 45, 127
5, 64508, Note_off_c, 0, 45, 83
5, 64512, Note_on_c, 0, 50, 127
5, 64604, Note_off_c, 0, 50, 83
5, 64608, Note_on_c, 0, 53, 127
5, 64700, Note_off_c, 0, 53, 83
5, 64704, Note_on_c, 0, 52, 127
5, 64796, Note_off_c, 0, 52, 83
5, 64800, Note_on_c, 0, 50, 127
5, 64892, Note_off_c, 0, 50, 83
5, 64896, Note_on_c, 0, 49, 127
5, 64988, Note_off_c, 0, 49, 83
5, 64992, Note_on_c, 0, 47, 127
5, 65084, Note_off_c, 0, 47, 83
5, 65088, Note_on_c, 0, 45, 127
5, 65180, Note_off_c, 0, 45, 83
5, 65184, Note_on_c, 0, 43, 127
5, 65276, Note_off_c, 0, 43, 83
5, 65280, Note_on_c, 0, 41, 127
5, 65372, Note_off_c, 0, 41, 83
5, 65376, Note_on_c, 0, 45, 127
5, 65468, Note_off_c, 0, 45, 83
5, 65472, Note_on_c, 0, 47, 127
5, 65564, Note_off_c, 0, 47, 83
5, 65568, Note_on_c, 0, 49, 127
5, 65660, Note_off_c, 0, 49, 83
5, 65664, Note_on_c, 0, 50, 127
5, 65756, Note_off_c, 0, 50, 83
5, 65760, Note_on_c, 0, 52, 127
5, 65852, Note_off_c, 0, 52, 83
5, 65856, Note_on_c, 0, 53, 127
5, 65948, Note_off_c, 0, 53, 83
5, 65952, Note_on_c, 0, 55, 127
5, 66044, Note_off_c, 0, 55, 83
5, 66048, Note_on_c, 0, 57, 127
5, 66428, Note_off_c, 0, 57, 83
5, 66432, Note_on_c, 0, 45, 127
5, 66812, Note_off_c, 0, 45, 83
5, 66816, Note_on_c, 0, 46, 127
5, 67196, Note_off_c, 0, 46, 83
5, 67392, Note_on_c, 0, 49, 127
5, 67580, Note_off_c, 0, 49, 83
5, 67584, Note_on_c, 0, 50, 127
5, 67772, Note_off_c, 0, 50, 83
5, 67776, Note_on_c, 0, 41, 127
5, 67964, Note_off_c, 0, 41, 83
5, 67968, Note_on_c, 0, 43, 127
5, 68156, Note_off_c, 0, 43, 83
5, 68160, Note_on_c, 0, 45, 127
5, 68348, Note_off_c, 0, 45, 83
5, 68352, Note_on_c, 0, 38, 127
5, 68480, Note_off_c, 0, 38, 83
5, 80064, Note_on_c, 0, 58, 127
5, 80252, Note_off_c, 0, 58, 83
5, 80256, Note_on_c, 0, 55, 127
5, 80444, Note_off_c, 0, 55, 83
5, 80448, Note_on_c, 0, 51, 127
5, 80636, Note_off_c, 0, 51, 83
5, 80640, Note_on_c, 0, 58, 127
5, 80732, Note_off_c, 0, 58, 83
5, 80736, Note_on_c, 0, 60, 127
5, 80828, Note_off_c, 0, 60, 83
5, 80832, Note_on_c, 0, 62, 127
5, 80924, Note_off_c, 0, 62, 83
5, 80928, Note_on_c, 0, 60, 127
5, 81020, Note_off_c, 0, 60, 83
5, 81024, Note_on_c, 0, 58, 127
5, 81116, Note_off_c, 0, 58, 83
5, 81120, Note_on_c, 0, 57, 127
5, 81212, Note_off_c, 0, 57, 83
5, 81216, Note_on_c, 0, 58, 127
5, 81308, Note_off_c, 0, 58, 83
5, 81312, Note_on_c, 0, 55, 127
5, 81404, Note_off_c, 0, 55, 83
5, 81408, Note_on_c, 0, 48, 127
5, 81500, Note_off_c, 0, 48, 83
5, 81504, Note_on_c, 0, 55, 127
5, 81596, Note_off_c, 0, 55, 83
5, 81600, Note_on_c, 0, 60, 127
5, 81692, Note_off_c, 0, 60, 83
5, 81696, Note_on_c, 0, 58, 127
5, 81788, Note_off_c, 0, 58, 83
5, 81792, Note_on_c, 0, 57, 127
5, 81884, Note_off_c, 0, 57, 83
5, 81888, Note_on_c, 0, 55, 127
5, 81980, Note_off_c, 0, 55, 83
5, 81984, Note_on_c, 0, 57, 127
5, 82076, Note_off_c, 0, 57, 83
5, 82080, Note_on_c, 0, 53, 127
5, 82172, Note_off_c, 0, 53, 83
5, 82176, Note_on_c, 0, 46, 127
5, 82268, Note_off_c, 0, 46, 83
5, 82272, Note_on_c, 0, 53, 127
5, 82364, Note_off_c, 0, 53, 83
5, 82368, Note_on_c, 0, 58, 127
5, 82460, Note_off_c, 0, 58, 83
5, 82464, Note_on_c, 0, 57, 127
5, 82556, Note_off_c, 0, 57, 83
5, 82560, Note_on_c, 0, 55, 127
5, 82652, Note_off_c, 0, 55, 83
5, 82656, Note_on_c, 0, 53, 127
5, 82748, Note_off_c, 0, 53, 83
5, 82752, Note_on_c, 0, 55, 127
5, 82844, Note_off_c, 0, 55, 83
5, 82848, Note_on_c, 0, 51, 127
5, 82940, Note_off_c, 0, 51, 83
5, 82944, Note_on_c, 0, 45, 127
5, 83036, Note_off_c, 0, 45, 83
5, 83040, Note_on_c, 0, 51, 127
5, 83132, Note_off_c, 0, 51, 83
5, 83136, Note_on_c, 0, 57, 127
5, 83228, Note_off_c, 0, 57, 83
5, 83232, Note_on_c, 0, 55, 127
5, 83324, Note_off_c, 0, 55, 83
5, 83328, Note_on_c, 0, 54, 127
5, 83420, Note_off_c, 0, 54, 83
5, 83424, Note_on_c, 0, 52, 127
5, 83516, Note_off_c, 0, 52, 83
5, 83520, Note_on_c, 0, 54, 127
5, 83612, Note_off_c, 0, 54, 83
5, 83616, Note_on_c, 0, 50, 127
5, 83708, Note_off_c, 0, 50, 83
5, 83712, Note_on_c, 0, 43, 127
5, 83804, Note_off_c, 0, 43, 83
5, 83808, Note_on_c, 0, 50, 127
5, 83900, Note_off_c, 0, 50, 83
5, 83904, Note_on_c, 0, 55, 127
5, 83996, Note_off_c, 0, 55, 83
5, 84000, Note_on_c, 0, 57, 127
5, 84092, Note_off_c, 0, 57, 83
5, 84096, Note_on_c, 0, 55, 127
5, 84188, Note_off_c, 0, 55, 83
5, 84192, Note_on_c, 0, 53, 127
5, 84284, Note_off_c, 0, 53, 83
5, 84288, Note_on_c, 0, 51, 127
5, 84380, Note_off_c, 0, 51, 83
5, 84384, Note_on_c, 0, 50, 127
5, 84476, Note_off_c, 0, 50, 83
5, 84480, Note_on_c, 0, 48, 127
5, 84572, Note_off_c, 0, 48, 83
5, 84576, Note_on_c, 0, 55, 127
5, 84668, Note_off_c, 0, 55, 83
5, 84672, Note_on_c, 0, 60, 127
5, 84764, Note_off_c, 0, 60, 83
5, 84768, Note_on_c, 0, 62, 127
5, 84860, Note_off_c, 0, 62, 83
5, 84864, Note_on_c, 0, 60, 127
5, 84956, Note_off_c, 0, 60, 83
5, 84960, Note_on_c, 0, 58, 127
5, 85052, Note_off_c, 0, 58, 83
5, 85056, Note_on_c, 0, 57, 127
5, 85148, Note_off_c, 0, 57, 83
5, 85152, Note_on_c, 0, 55, 127
5, 85244, Note_off_c, 0, 55, 83
5, 85248, Note_on_c, 0, 54, 127
5, 85340, Note_off_c, 0, 54, 83
5, 85344, Note_on_c, 0, 62, 127
5, 85436, Note_off_c, 0, 62, 83
5, 85440, Note_on_c, 0, 60, 127
5, 85532, Note_off_c, 0, 60, 83
5, 85536, Note_on_c, 0, 62, 127
5, 85628, Note_off_c, 0, 62, 83
5, 85632, Note_on_c, 0, 50, 127
5, 85724, Note_off_c, 0, 50, 83
5, 85728, Note_on_c, 0, 54, 127
5, 85820, Note_off_c, 0, 54, 83
5, 85824, Note_on_c, 0, 52, 127
5, 85916, Note_off_c, 0, 52, 83
5, 85920, Note_on_c, 0, 55, 127
5, 86012, Note_off_c, 0, 55, 83
5, 86016, Note_on_c, 0, 54, 127
5, 86108, Note_off_c, 0, 54, 83
5, 86112, Note_on_c, 0, 57, 127
5, 86204, Note_off_c, 0, 57, 83
5, 86208, Note_on_c, 0, 50, 127
5, 86300, Note_off_c, 0, 50, 83
5, 86304, Note_on_c, 0, 54, 127
5, 86396, Note_off_c, 0, 54, 83
5, 86400, Note_on_c, 0, 55, 127
5, 86492, Note_off_c, 0, 55, 83
5, 86496, Note_on_c, 0, 58, 127
5, 86588, Note_off_c, 0, 58, 83
5, 86592, Note_on_c, 0, 50, 127
5, 86684, Note_off_c, 0, 50, 83
5, 86688, Note_on_c, 0, 55, 127
5, 86780, Note_off_c, 0, 55, 83
5, 86784, Note_on_c, 0, 57, 127
5, 86876, Note_off_c, 0, 57, 83
5, 86880, Note_on_c, 0, 60, 127
5, 86972, Note_off_c, 0, 60, 83
5, 86976, Note_on_c, 0, 57, 127
5, 87068, Note_off_c, 0, 57, 83
5, 87072, Note_on_c, 0, 54, 127
5, 87164, Note_off_c, 0, 54, 83
5, 87168, Note_on_c, 0, 50, 127
5, 87260, Note_off_c, 0, 50, 83
5, 87264, Note_on_c, 0, 60, 127
5, 87356, Note_off_c, 0, 60, 83
5, 87360, Note_on_c, 0, 58, 127
5, 87452, Note_off_c, 0, 58, 83
5, 87456, Note_on_c, 0, 57, 127
5, 87548, Note_off_c, 0, 57, 83
5, 87552, Note_on_c, 0, 58, 127
5, 87644, Note_off_c, 0, 58, 83
5, 87648, Note_on_c, 0, 62, 127
5, 87740, Note_off_c, 0, 62, 83
5, 87744, Note_on_c, 0, 58, 127
5, 87836, Note_off_c, 0, 58, 83
5, 87840, Note_on_c, 0, 55, 127
5, 87932, Note_off_c, 0, 55, 83
5, 87936, Note_on_c, 0, 50, 127
5, 88028, Note_off_c, 0, 50, 83
5, 88032, Note_on_c, 0, 53, 127
5, 88124, Note_off_c, 0, 53, 83
5, 88128, Note_on_c, 0, 52, 127
5, 88220, Note_off_c, 0, 52, 83
5, 88224, Note_on_c, 0, 50, 127
5, 88316, Note_off_c, 0, 50, 83
5, 88320, Note_on_c, 0, 52, 127
5, 88412, Note_off_c, 0, 52, 83
5, 88416, Note_on_c, 0, 60, 127
5, 88508, Note_off_c, 0, 60, 83
5, 88512, Note_on_c, 0, 59, 127
5, 88604, Note_off_c, 0, 59, 83
5, 88608, Note_on_c, 0, 60, 127
5, 88700, Note_off_c, 0, 60, 83
5, 88704, Note_on_c, 0, 48, 127
5, 88796, Note_off_c, 0, 48, 83
5, 88800, Note_on_c, 0, 52, 127
5, 88892, Note_off_c, 0, 52, 83
5, 88896, Note_on_c, 0, 50, 127
5, 88988, Note_off_c, 0, 50, 83
5, 88992, Note_on_c, 0, 53, 127
5, 89084, Note_off_c, 0, 53, 83
5, 89088, Note_on_c, 0, 52, 127
5, 89180, Note_off_c, 0, 52, 83
5, 89184, Note_on_c, 0, 55, 127
5, 89276, Note_off_c, 0, 55, 83
5, 89280, Note_on_c, 0, 48, 127
5, 89372, Note_off_c, 0, 48, 83
5, 89376, Note_on_c, 0, 52, 127
5, 89468, Note_off_c, 0, 52, 83
5, 89472, Note_on_c, 0, 53, 127
5, 89564, Note_off_c, 0, 53, 83
5, 89568, Note_on_c, 0, 57, 127
5, 89660, Note_off_c, 0, 57, 83
5, 89664, Note_on_c, 0, 48, 127
5, 89756, Note_off_c, 0, 48, 83
5, 89760, Note_on_c, 0, 53, 127
5, 89852, Note_off_c, 0, 53, 83
5, 89856, Note_on_c, 0, 55, 127
5, 89948, Note_off_c, 0, 55, 83
5, 89952, Note_on_c, 0, 58, 127
5, 90044, Note_off_c, 0, 58, 83
5, 90048, Note_on_c, 0, 55, 127
5, 90140, Note_off_c, 0, 55, 83
5, 90144, Note_on_c, 0, 52, 127
5, 90236, Note_off_c, 0, 52, 83
5, 90240, Note_on_c, 0, 48, 127
5, 90332, Note_off_c, 0, 48, 83
5, 90336, Note_on_c, 0, 58, 127
5, 90428, Note_off_c, 0, 58, 83
5, 90432, Note_on_c, 0, 57, 127
5, 90524, Note_off_c, 0, 57, 83
5, 90528, Note_on_c, 0, 55, 127
5, 90620, Note_off_c, 0, 55, 83
5, 90624, Note_on_c, 0, 57, 127
5, 90716, Note_off_c, 0, 57, 83
5, 90720, Note_on_c, 0, 60, 127
5, 90812, Note_off_c, 0, 60, 83
5, 90816, Note_on_c, 0, 57, 127
5, 90908, Note_off_c, 0, 57, 83
5, 90912, Note_on_c, 0, 53, 127
5, 91004, Note_off_c, 0, 53, 83
5, 91008, Note_on_c, 0, 48, 127
5, 91100, Note_off_c, 0, 48, 83
5, 91104, Note_on_c, 0, 51, 127
5, 91196, Note_off_c, 0, 51, 83
5, 91200, Note_on_c, 0, 50, 127
5, 91292, Note_off_c, 0, 50, 83
5, 91296, Note_on_c, 0, 48, 127
5, 91388, Note_off_c, 0, 48, 83
5, 91392, Note_on_c, 0, 50, 127
5, 91484, Note_off_c, 0, 50, 83
5, 91488, Note_on_c, 0, 53, 127
5, 91580, Note_off_c, 0, 53, 83
5, 91584, Note_on_c, 0, 50, 127
5, 91676, Note_off_c, 0, 50, 83
5, 91680, Note_on_c, 0, 46, 127
5, 91772, Note_off_c, 0, 46, 83
5, 91776, Note_on_c, 0, 43, 127
5, 91868, Note_off_c, 0, 43, 83
5, 91872, Note_on_c, 0, 46, 127
5, 91964, Note_off_c, 0, 46, 83
5, 91968, Note_on_c, 0, 45, 127
5, 92060, Note_off_c, 0, 45, 83
5, 92064, Note_on_c, 0, 43, 127
5, 92156, Note_off_c, 0, 43, 83
5, 92160, Note_on_c, 0, 48, 127
5, 92252, Note_off_c, 0, 48, 83
5, 92256, Note_on_c, 0, 52, 127
5, 92348, Note_off_c, 0, 52, 83
5, 92352, Note_on_c, 0, 48, 127
5, 92444, Note_off_c, 0, 48, 83
5, 92448, Note_on_c, 0, 45, 127
5, 92540, Note_off_c, 0, 45, 83
5, 92544, Note_on_c, 0, 41, 127
5, 92636, Note_off_c, 0, 41, 83
5, 92640, Note_on_c, 0, 45, 127
5, 92732, Note_off_c, 0, 45, 83
5, 92736, Note_on_c, 0, 43, 127
5, 92828, Note_off_c, 0, 43, 83
5, 92832, Note_on_c, 0, 41, 127
5, 92924, Note_off_c, 0, 41, 83
5, 92928, Note_on_c, 0, 46, 127
5, 93116, Note_off_c, 0, 46, 83
5, 93120, Note_on_c, 0, 48, 127
5, 93308, Note_off_c, 0, 48, 83
5, 93312, Note_on_c, 0, 50, 127
5, 93500, Note_off_c, 0, 50, 83
5, 93504, Note_on_c, 0, 46, 127
5, 93692, Note_off_c, 0, 46, 83
5, 93696, Note_on_c, 0, 48, 127
5, 93884, Note_off_c, 0, 48, 83
5, 93888, Note_on_c, 0, 50, 127
5, 94076, Note_off_c, 0, 50, 83
5, 94080, Note_on_c, 0, 52, 127
5, 94268, Note_off_c, 0, 52, 83
5, 94272, Note_on_c, 0, 48, 127
5, 94460, Note_off_c, 0, 48, 83
5, 94464, Note_on_c, 0, 36, 127
5, 94652, Note_off_c, 0, 36, 83
5, 94656, Note_on_c, 0, 45, 127
5, 94844, Note_off_c, 0, 45, 83
5, 94848, Note_on_c, 0, 46, 127
5, 95036, Note_off_c, 0, 46, 83
5, 95040, Note_on_c, 0, 50, 127
5, 95228, Note_off_c, 0, 50, 83
5, 95232, Note_on_c, 0, 36, 127
5, 95420, Note_off_c, 0, 36, 83
5, 95424, Note_on_c, 0, 46, 127
5, 95612, Note_off_c, 0, 46, 83
5, 95616, Note_on_c, 0, 48, 127
5, 95804, Note_off_c, 0, 48, 83
5, 95808, Note_on_c, 0, 52, 127
5, 95996, Note_off_c, 0, 52, 83
5, 96000, Note_on_c, 0, 36, 127
5, 96188, Note_off_c, 0, 36, 83
5, 96192, Note_on_c, 0, 48, 127
5, 96380, Note_off_c, 0, 48, 83
5, 96384, Note_on_c, 0, 50, 127
5, 96572, Note_off_c, 0, 50, 83
5, 96576, Note_on_c, 0, 53, 127
5, 96764, Note_off_c, 0, 53, 83
5, 96768, Note_on_c, 0, 36, 127
5, 96956, Note_off_c, 0, 36, 83
5, 96960, Note_on_c, 0, 50, 127
5, 97148, Note_off_c, 0, 50, 83
5, 97152, Note_on_c, 0, 52, 127
5, 97340, Note_off_c, 0, 52, 83
5, 97344, Note_on_c, 0, 55, 127
5, 97532, Note_off_c, 0, 55, 83
5, 97536, Note_on_c, 0, 36, 127
5, 97916, Note_off_c, 0, 36, 83
5, 106080, Note_on_c, 0, 65, 127
5, 106172, Note_off_c, 0, 65, 83
5, 106176, Note_on_c, 0, 64, 127
5, 106268, Note_off_c, 0, 64, 83
5, 106272, Note_on_c, 0, 62, 127
5, 106364, Note_off_c, 0, 62, 83
5, 106368, Note_on_c, 0, 60, 127
5, 106460, Note_off_c, 0, 60, 83
5, 106464, Note_on_c, 0, 58, 127
5, 106556, Note_off_c, 0, 58, 83
5, 106560, Note_on_c, 0, 57, 127
5, 106652, Note_off_c, 0, 57, 83
5, 106656, Note_on_c, 0, 55, 127
5, 106748, Note_off_c, 0, 55, 83
5, 106752, Note_on_c, 0, 53, 127
5, 106816, Note_off_c, 0, 53, 83
5, 106848, Note_on_c, 0, 53, 127
5, 106940, Note_off_c, 0, 53, 83
5, 106944, Note_on_c, 0, 51, 127
5, 107036, Note_off_c, 0, 51, 83
5, 107040, Note_on_c, 0, 50, 127
5, 107132, Note_off_c, 0, 50, 83
5, 107136, Note_on_c, 0, 48, 127
5, 107228, Note_off_c, 0, 48, 83
5, 107232, Note_on_c, 0, 46, 127
5, 107324, Note_off_c, 0, 46, 83
5, 107328, Note_on_c, 0, 45, 127
5, 107420, Note_off_c, 0, 45, 83
5, 107424, Note_on_c, 0, 43, 127
5, 107516, Note_off_c, 0, 43, 83
5, 107520, Note_on_c, 0, 41, 127
5, 107612, Note_off_c, 0, 41, 83
5, 107616, Note_on_c, 0, 53, 127
5, 107708, Note_off_c, 0, 53, 83
5, 107712, Note_on_c, 0, 48, 127
5, 107804, Note_off_c, 0, 48, 83
5, 107808, Note_on_c, 0, 45, 127
5, 107900, Note_off_c, 0, 45, 83
5, 107904, Note_on_c, 0, 41, 127
5, 107996, Note_off_c, 0, 41, 83
5, 108000, Note_on_c, 0, 53, 127
5, 108092, Note_off_c, 0, 53, 83
5, 108096, Note_on_c, 0, 51, 127
5, 108188, Note_off_c, 0, 51, 83
5, 108192, Note_on_c, 0, 53, 127
5, 108284, Note_off_c, 0, 53, 83
5, 108288, Note_on_c, 0, 46, 127
5, 108380, Note_off_c, 0, 46, 83
5, 108384, Note_on_c, 0, 50, 127
5, 108476, Note_off_c, 0, 50, 83
5, 108480, Note_on_c, 0, 53, 127
5, 108572, Note_off_c, 0, 53, 83
5, 108576, Note_on_c, 0, 57, 127
5, 108668, Note_off_c, 0, 57, 83
5, 108672, Note_on_c, 0, 58, 127
5, 108764, Note_off_c, 0, 58, 83
5, 109440, Note_on_c, 0, 62, 127
5, 109532, Note_off_c, 0, 62, 83
5, 109536, Note_on_c, 0, 60, 127
5, 109628, Note_off_c, 0, 60, 83
5, 109632, Note_on_c, 0, 59, 127
5, 109724, Note_off_c, 0, 59, 83
5, 109728, Note_on_c, 0, 57, 127
5, 109820, Note_off_c, 0, 57, 83
5, 109824, Note_on_c, 0, 55, 127
5, 109888, Note_off_c, 0, 55, 83
5, 109920, Note_on_c, 0, 55, 127
5, 110012, Note_off_c, 0, 55, 83
5, 110016, Note_on_c, 0, 53, 127
5, 110108, Note_off_c, 0, 53, 83
5, 110112, Note_on_c, 0, 52, 127
5, 110204, Note_off_c, 0, 52, 83
5, 110208, Note_on_c, 0, 50, 127
5, 110300, Note_off_c, 0, 50, 83
5, 110304, Note_on_c, 0, 48, 127
5, 110396, Note_off_c, 0, 48, 83
5, 110400, Note_on_c, 0, 47, 127
5, 110492, Note_off_c, 0, 47, 83
5, 110496, Note_on_c, 0, 45, 127
5, 110588, Note_off_c, 0, 45, 83
5, 110592, Note_on_c, 0, 43, 127
5, 110684, Note_off_c, 0, 43, 83
5, 110688, Note_on_c, 0, 55, 127
5, 110780, Note_off_c, 0, 55, 83
5, 110784, Note_on_c, 0, 50, 127
5, 110876, Note_off_c, 0, 50, 83
5, 110880, Note_on_c, 0, 47, 127
5, 110972, Note_off_c, 0, 47, 83
5, 110976, Note_on_c, 0, 43, 127
5, 111068, Note_off_c, 0, 43, 83
5, 111072, Note_on_c, 0, 55, 127
5, 111164, Note_off_c, 0, 55, 83
5, 111168, Note_on_c, 0, 53, 127
5, 111260, Note_off_c, 0, 53, 83
5, 111264, Note_on_c, 0, 55, 127
5, 111356, Note_off_c, 0, 55, 83
5, 111360, Note_on_c, 0, 48, 127
5, 111452, Note_off_c, 0, 48, 83
5, 124416, Note_on_c, 0, 53, 127
5, 124416, Note_on_c, 0, 48, 127
5, 124416, Note_on_c, 0, 45, 127
5, 124416, Note_on_c, 0, 41, 127
5, 124796, Note_off_c, 0, 53, 83
5, 124796, Note_off_c, 0, 48, 83
5, 124796, Note_off_c, 0, 45, 83
5, 124796, Note_off_c, 0, 41, 83
5, 125376, Note_on_c, 0, 65, 127
5, 125504, Note_off_c, 0, 65, 83
5, 125568, Note_on_c, 0, 62, 127
5, 125696, Note_off_c, 0, 62, 83
5, 125760, Note_on_c, 0, 58, 127
5, 125888, Note_off_c, 0, 58, 83
5, 126144, Note_on_c, 0, 53, 127
5, 126272, Note_off_c, 0, 53, 83
5, 126336, Note_on_c, 0, 50, 127
5, 126464, Note_off_c, 0, 50, 83
5, 126528, Note_on_c, 0, 46, 127
5, 126656, Note_off_c, 0, 46, 83
5, 126720, Note_on_c, 0, 53, 127
5, 126912, Note_on_c, 0, 41, 127
5, 127040, Note_off_c, 0, 41, 83
5, 127100, Note_off_c, 0, 53, 83
5, 127488, Note_on_c, 0, 60, 127
5, 127488, Note_on_c, 0, 55, 127
5, 127488, Note_on_c, 0, 52, 127
5, 127488, Note_on_c, 0, 48, 127
5, 127868, Note_off_c, 0, 60, 83
5, 127868, Note_off_c, 0, 55, 83
5, 127868, Note_off_c, 0, 52, 83
5, 127868, Note_off_c, 0, 48, 83
5, 129216, Note_on_c, 0, 60, 127
5, 129404, Note_off_c, 0, 60, 83
5, 129408, Note_on_c, 0, 57, 127
5, 129596, Note_off_c, 0, 57, 83
5, 129600, Note_on_c, 0, 53, 127
5, 129788, Note_off_c, 0, 53, 83
5, 129792, Note_on_c, 0, 60, 127
5, 129984, Note_on_c, 0, 48, 127
5, 130112, Note_off_c, 0, 48, 83
5, 130172, Note_off_c, 0, 60, 83
5, 130560, Note_on_c, 0, 60, 127
5, 130560, Note_on_c, 0, 52, 127
5, 130560, Note_on_c, 0, 48, 127
5, 130940, Note_off_c, 0, 60, 83
5, 130940, Note_off_c, 0, 52, 83
5, 130940, Note_off_c, 0, 48, 83
5, 130944, Note_on_c, 0, 55, 127
5, 130944, Note_on_c, 0, 52, 127
5, 130944, Note_on_c, 0, 48, 127
5, 130944, Note_on_c, 0, 60, 127
5, 131200, Note_off_c, 0, 55, 83
5, 131200, Note_off_c, 0, 52, 83
5, 131200, Note_off_c, 0, 48, 83
5, 131328, Note_on_c, 0, 53, 127
5, 131456, Note_off_c, 0, 60, 83
5, 131520, Note_on_c, 0, 57, 127
5, 131584, Note_off_c, 0, 53, 83
5, 131648, Note_off_c, 0, 57, 83
5, 131712, Note_on_c, 0, 60, 127
5, 131840, Note_off_c, 0, 60, 83
5, 131904, Note_on_c, 0, 65, 127
5, 132032, Note_off_c, 0, 65, 83
5, 132096, Note_on_c, 0, 57, 127
5, 132096, Note_on_c, 0, 60, 127
5, 132096, Note_on_c, 0, 65, 127
5, 132476, Note_off_c, 0, 57, 83
5, 132476, Note_off_c, 0, 60, 83
5, 132476, Note_off_c, 0, 65, 83
5, 132480, Note_on_c, 0, 53, 127
5, 132480, Note_on_c, 0, 57, 127
5, 132480, Note_on_c, 0, 60, 127
5, 132480, Note_on_c, 0, 65, 127
5, 132860, Note_off_c, 0, 53, 83
5, 132860, Note_off_c, 0, 57, 83
5, 132860, Note_off_c, 0, 60, 83
5, 132864, Note_on_c, 0, 58, 127
5, 133052, Note_off_c, 0, 65, 83
5, 133056, Note_on_c, 0, 62, 127
5, 133184, Note_off_c, 0, 62, 83
5, 133244, Note_off_c, 0, 58, 83
5, 133248, Note_on_c, 0, 65, 127
5, 133376, Note_off_c, 0, 65, 83
5, 134400, Note_on_c, 0, 62, 127
5, 134400, Note_on_c, 0, 59, 127
5, 134400, Note_on_c, 0, 55, 127
5, 134780, Note_off_c, 0, 62, 83
5, 134780, Note_off_c, 0, 59, 83
5, 134780, Note_off_c, 0, 55, 83
5, 134784, Note_on_c, 0, 64, 127
5, 134784, Note_on_c, 0, 55, 127
5, 134784, Note_on_c, 0, 48, 127
5, 135040, Note_off_c, 0, 64, 83
5, 135040, Note_off_c, 0, 55, 83
5, 135040, Note_off_c, 0, 48, 83
5, 135360, Note_on_c, 0, 60, 127
5, 135452, Note_off_c, 0, 60, 83
5, 135456, Note_on_c, 0, 62, 127
5, 135548, Note_off_c, 0, 62, 83
5, 135552, Note_on_c, 0, 64, 127
5, 135680, Note_off_c, 0, 64, 83
5, 136320, Note_on_c, 0, 48, 127
5, 136700, Note_off_c, 0, 48, 83
5, 136800, Note_on_c, 0, 60, 127
5, 136864, Note_off_c, 0, 60, 83
5, 136896, Note_on_c, 0, 62, 127
5, 136960, Note_off_c, 0, 62, 83
5, 136992, Note_on_c, 0, 64, 127
5, 137056, Note_off_c, 0, 64, 83
5, 137088, Note_on_c, 0, 65, 127
5, 137276, Note_off_c, 0, 65, 83
5, 137472, Note_on_c, 0, 65, 127
5, 137660, Note_off_c, 0, 65, 83
5, 137664, Note_on_c, 0, 60, 127
5, 137852, Note_off_c, 0, 60, 83
5, 137856, Note_on_c, 0, 48, 127
5, 138236, Note_off_c, 0, 48, 83
5, 138432, Note_on_c, 0, 62, 127
5, 138496, Note_off_c, 0, 62, 83
5, 138528, Note_on_c, 0, 64, 127
5, 138592, Note_off_c, 0, 64, 83
5, 138624, Note_on_c, 0, 65, 127
5, 138752, Note_off_c, 0, 65, 83
5, 138816, Note_on_c, 0, 62, 127
5, 138908, Note_off_c, 0, 62, 83
5, 138912, Note_on_c, 0, 64, 127
5, 139004, Note_off_c, 0, 64, 83
5, 139008, Note_on_c, 0, 65, 127
5, 139196, Note_off_c, 0, 65, 83
5, 139200, Note_on_c, 0, 62, 127
5, 139388, Note_off_c, 0, 62, 83
5, 139392, Note_on_c, 0, 55, 127
5, 139580, Note_off_c, 0, 55, 83
5, 139584, Note_on_c, 0, 59, 127
5, 139772, Note_off_c, 0, 59, 83
5, 139776, Note_on_c, 0, 60, 127
5, 139904, Note_off_c, 0, 60, 83
5, 139968, Note_on_c, 0, 48, 127
5, 140060, Note_off_c, 0, 48, 83
5, 140064, Note_on_c, 0, 50, 127
5, 140156, Note_off_c, 0, 50, 83
5, 140160, Note_on_c, 0, 52, 127
5, 140348, Note_off_c, 0, 52, 83
5, 140352, Note_on_c, 0, 55, 127
5, 140540, Note_off_c, 0, 55, 83
5, 140544, Note_on_c, 0, 60, 127
5, 140672, Note_off_c, 0, 60, 83
5, 140736, Note_on_c, 0, 48, 127
5, 140828, Note_off_c, 0, 48, 83
5, 140832, Note_on_c, 0, 50, 127
5, 140924, Note_off_c, 0, 50, 83
5, 140928, Note_on_c, 0, 52, 127
5, 141116, Note_off_c, 0, 52, 83
5, 141120, Note_on_c, 0, 53, 127
5, 141308, Note_off_c, 0, 53, 83
5, 141312, Note_on_c, 0, 55, 127
5, 141440, Note_off_c, 0, 55, 83
5, 141504, Note_on_c, 0, 48, 127
5, 141596, Note_off_c, 0, 48, 83
5, 141600, Note_on_c, 0, 52, 127
5, 141692, Note_off_c, 0, 52, 83
5, 141696, Note_on_c, 0, 55, 127
5, 141884, Note_off_c, 0, 55, 83
5, 141888, Note_on_c, 0, 57, 127
5, 142076, Note_off_c, 0, 57, 83
5, 142080, Note_on_c, 0, 58, 127
5, 142208, Note_off_c, 0, 58, 83
5, 142272, Note_on_c, 0, 48, 127
5, 142364, Note_off_c, 0, 48, 83
5, 142368, Note_on_c, 0, 50, 127
5, 142460, Note_off_c, 0, 50, 83
5, 142464, Note_on_c, 0, 52, 127
5, 142652, Note_off_c, 0, 52, 83
5, 142656, Note_on_c, 0, 48, 127
5, 142844, Note_off_c, 0, 48, 83
5, 142848, Note_on_c, 0, 53, 127
5, 142940, Note_off_c, 0, 53, 83
5, 142944, Note_on_c, 0, 57, 127
5, 143036, Note_off_c, 0, 57, 83
5, 143040, Note_on_c, 0, 55, 127
5, 143132, Note_off_c, 0, 55, 83
5, 143136, Note_on_c, 0, 53, 127
5, 143228, Note_off_c, 0, 53, 83
5, 143232, Note_on_c, 0, 52, 127
5, 143324, Note_off_c, 0, 52, 83
5, 143328, Note_on_c, 0, 50, 127
5, 143420, Note_off_c, 0, 50, 83
5, 143424, Note_on_c, 0, 48, 127
5, 143516, Note_off_c, 0, 48, 83
5, 143520, Note_on_c, 0, 46, 127
5, 143612, Note_off_c, 0, 46, 83
5, 143616, Note_on_c, 0, 45, 127
5, 143708, Note_off_c, 0, 45, 83
5, 143712, Note_on_c, 0, 48, 127
5, 143804, Note_off_c, 0, 48, 83
5, 143808, Note_on_c, 0, 50, 127
5, 143900, Note_off_c, 0, 50, 83
5, 143904, Note_on_c, 0, 52, 127
5, 143996, Note_off_c, 0, 52, 83
5, 144000, Note_on_c, 0, 53, 127
5, 144092, Note_off_c, 0, 53, 83
5, 144096, Note_on_c, 0, 55, 127
5, 144188, Note_off_c, 0, 55, 83
5, 144192, Note_on_c, 0, 57, 127
5, 144284, Note_off_c, 0, 57, 83
5, 144288, Note_on_c, 0, 58, 127
5, 144380, Note_off_c, 0, 58, 83
5, 144384, Note_on_c, 0, 60, 127
5, 144764, Note_off_c, 0, 60, 83
5, 144768, Note_on_c, 0, 48, 127
5, 145024, Note_off_c, 0, 48, 83
5, 145152, Note_on_c, 0, 50, 127
5, 145532, Note_off_c, 0, 50, 83
5, 145728, Note_on_c, 0, 52, 127
5, 145856, Note_off_c, 0, 52, 83
5, 145920, Note_on_c, 0, 53, 127
5, 146108, Note_off_c, 0, 53, 83
5, 146112, Note_on_c, 0, 45, 127
5, 146300, Note_off_c, 0, 45, 83
5, 146304, Note_on_c, 0, 46, 127
5, 146492, Note_off_c, 0, 46, 83
5, 146496, Note_on_c, 0, 48, 127
5, 146684, Note_off_c, 0, 48, 83
5, 146688, Note_on_c, 0, 41, 127
5, 148028, Note_off_c, 0, 41, 83
5, 148028, End_track
6, 0, Start_track
6, 0, Title_t, "Manual 2 RH"
6, 0, Control_c, 1, 0, 0
6, 0, Program_c, 1, 6
6, 0, Control_c, 1, 7, 100
6, 0, Key_signature, -1, "minor"
6, 22464, Note_on_c, 1, 69, 93
6, 22464, Note_on_c, 1, 65, 93
6, 22592, Note_off_c, 1, 69, 59
6, 22592, Note_off_c, 1, 65, 59
6, 22656, Note_on_c, 1, 69, 93
6, 22656, Note_on_c, 1, 65, 93
6, 22784, Note_off_c, 1, 69, 59
6, 22784, Note_off_c, 1, 65, 59
6, 22848, Note_on_c, 1, 69, 93
6, 22848, Note_on_c, 1, 65, 93
6, 22976, Note_off_c, 1, 69, 59
6, 22976, Note_off_c, 1, 65, 59
6, 23040, Note_on_c, 1, 70, 93
6, 23040, Note_on_c, 1, 65, 93
6, 23168, Note_off_c, 1, 70, 59
6, 23168, Note_off_c, 1, 65, 59
6, 23232, Note_on_c, 1, 70, 93
6, 23232, Note_on_c, 1, 65, 93
6, 23360, Note_off_c, 1, 70, 59
6, 23360, Note_off_c, 1, 65, 59
6, 23424, Note_on_c, 1, 70, 93
6, 23424, Note_on_c, 1, 65, 93
6, 23552, Note_off_c, 1, 70, 59
6, 23552, Note_off_c, 1, 65, 59
6, 23616, Note_on_c, 1, 70, 93
6, 23616, Note_on_c, 1, 65, 93
6, 23744, Note_off_c, 1, 70, 59
6, 23744, Note_off_c, 1, 65, 59
6, 23808, Note_on_c, 1, 70, 93
6, 23808, Note_on_c, 1, 65, 93
6, 23936, Note_off_c, 1, 70, 59
6, 23936, Note_off_c, 1, 65, 59
6, 24000, Note_on_c, 1, 70, 93
6, 24000, Note_on_c, 1, 65, 93
6, 24128, Note_off_c, 1, 70, 59
6, 24128, Note_off_c, 1, 65, 59
6, 24192, Note_on_c, 1, 65, 93
6, 24192, Note_on_c, 1, 69, 93
6, 24320, Note_off_c, 1, 65, 59
6, 24320, Note_off_c, 1, 69, 59
6, 24384, Note_on_c, 1, 65, 93
6, 24384, Note_on_c, 1, 69, 93
6, 24512, Note_off_c, 1, 65, 59
6, 24512, Note_off_c, 1, 69, 59
6, 24576, Note_on_c, 1, 67, 93
6, 24576, Note_on_c, 1, 65, 93
6, 24704, Note_off_c, 1, 67, 59
6, 24704, Note_off_c, 1, 65, 59
6, 24768, Note_on_c, 1, 67, 93
6, 24768, Note_on_c, 1, 65, 93
6, 24896, Note_off_c, 1, 67, 59
6, 24896, Note_off_c, 1, 65, 59
6, 24960, Note_on_c, 1, 67, 93
6, 24960, Note_on_c, 1, 64, 93
6, 25088, Note_off_c, 1, 67, 59
6, 25088, Note_off_c, 1, 64, 59
6, 25152, Note_on_c, 1, 67, 93
6, 25152, Note_on_c, 1, 64, 93
6, 25280, Note_off_c, 1, 67, 59
6, 25280, Note_off_c, 1, 64, 59
6, 25344, Note_on_c, 1, 67, 93
6, 25344, Note_on_c, 1, 65, 93
6, 25472, Note_off_c, 1, 67, 59
6, 25472, Note_off_c, 1, 65, 59
6, 25536, Note_on_c, 1, 65, 93
6, 25664, Note_off_c, 1, 65, 59
6, 25920, Note_on_c, 1, 65, 93
6, 26048, Note_off_c, 1, 65, 59
6, 26112, Note_on_c, 1, 65, 93
6, 26112, Note_on_c, 1, 60, 93
6, 26240, Note_off_c, 1, 65, 59
6, 26240, Note_off_c, 1, 60, 59
6, 26304, Note_on_c, 1, 64, 93
6, 26304, Note_on_c, 1, 60, 93
6, 26432, Note_off_c, 1, 64, 59
6, 26432, Note_off_c, 1, 60, 59
6, 26496, Note_on_c, 1, 65, 93
6, 26496, Note_on_c, 1, 60, 93
6, 26624, Note_off_c, 1, 65, 59
6, 26624, Note_off_c, 1, 60, 59
6, 26688, Note_on_c, 1, 69, 93
6, 26688, Note_on_c, 1, 60, 93
6, 26816, Note_off_c, 1, 69, 59
6, 26816, Note_off_c, 1, 60, 59
6, 26880, Note_on_c, 1, 67, 93
6, 26880, Note_on_c, 1, 60, 93
6, 27008, Note_off_c, 1, 67, 59
6, 27008, Note_off_c, 1, 60, 59
6, 27072, Note_on_c, 1, 65, 93
6, 27072, Note_on_c, 1, 60, 93
6, 27200, Note_off_c, 1, 65, 59
6, 27200, Note_off_c, 1, 60, 59
6, 27264, Note_on_c, 1, 64, 93
6, 27264, Note_on_c, 1, 60, 93
6, 27392, Note_off_c, 1, 64, 59
6, 27392, Note_off_c, 1, 60, 59
6, 27456, Note_on_c, 1, 65, 93
6, 27456, Note_on_c, 1, 60, 93
6, 27584, Note_off_c, 1, 65, 59
6, 27584, Note_off_c, 1, 60, 59
6, 27648, Note_on_c, 1, 65, 93
6, 27648, Note_on_c, 1, 60, 93
6, 27776, Note_off_c, 1, 65, 59
6, 27776, Note_off_c, 1, 60, 59
6, 27840, Note_on_c, 1, 64, 93
6, 27840, Note_on_c, 1, 60, 93
6, 27968, Note_off_c, 1, 64, 59
6, 27968, Note_off_c, 1, 60, 59
6, 28032, Note_on_c, 1, 65, 93
6, 28032, Note_on_c, 1, 60, 93
6, 28160, Note_off_c, 1, 65, 59
6, 28160, Note_off_c, 1, 60, 59
6, 28224, Note_on_c, 1, 69, 93
6, 28224, Note_on_c, 1, 60, 93
6, 28352, Note_off_c, 1, 69, 59
6, 28352, Note_off_c, 1, 60, 59
6, 28416, Note_on_c, 1, 67, 93
6, 28416, Note_on_c, 1, 60, 93
6, 28544, Note_off_c, 1, 67, 59
6, 28544, Note_off_c, 1, 60, 59
6, 28608, Note_on_c, 1, 65, 93
6, 28608, Note_on_c, 1, 60, 93
6, 28736, Note_off_c, 1, 65, 59
6, 28736, Note_off_c, 1, 60, 59
6, 28800, Note_on_c, 1, 64, 93
6, 28800, Note_on_c, 1, 60, 93
6, 28928, Note_off_c, 1, 64, 59
6, 28928, Note_off_c, 1, 60, 59
6, 28992, Note_on_c, 1, 60, 93
6, 28992, Note_on_c, 1, 67, 93
6, 29120, Note_off_c, 1, 60, 59
6, 29120, Note_off_c, 1, 67, 59
6, 29184, Note_on_c, 1, 65, 93
6, 29184, Note_on_c, 1, 60, 93
6, 29312, Note_off_c, 1, 65, 59
6, 29312, Note_off_c, 1, 60, 59
6, 29376, Note_on_c, 1, 65, 93
6, 29376, Note_on_c, 1, 60, 93
6, 29504, Note_off_c, 1, 65, 59
6, 29504, Note_off_c, 1, 60, 59
6, 29568, Note_on_c, 1, 65, 93
6, 29568, Note_on_c, 1, 60, 93
6, 29696, Note_off_c, 1, 65, 59
6, 29696, Note_off_c, 1, 60, 59
6, 29760, Note_on_c, 1, 65, 93
6, 29760, Note_on_c, 1, 60, 93
6, 29888, Note_off_c, 1, 65, 59
6, 29888, Note_off_c, 1, 60, 59
6, 29952, Note_on_c, 1, 65, 93
6, 29952, Note_on_c, 1, 60, 93
6, 30080, Note_off_c, 1, 65, 59
6, 30080, Note_off_c, 1, 60, 59
6, 30144, Note_on_c, 1, 65, 93
6, 30144, Note_on_c, 1, 60, 93
6, 30272, Note_off_c, 1, 65, 59
6, 30272, Note_off_c, 1, 60, 59
6, 30336, Note_on_c, 1, 64, 93
6, 30336, Note_on_c, 1, 60, 93
6, 30464, Note_off_c, 1, 64, 59
6, 30464, Note_off_c, 1, 60, 59
6, 30528, Note_on_c, 1, 64, 93
6, 30528, Note_on_c, 1, 60, 93
6, 30656, Note_off_c, 1, 64, 59
6, 30656, Note_off_c, 1, 60, 59
6, 30720, Note_on_c, 1, 62, 93
6, 30720, Note_on_c, 1, 60, 93
6, 30848, Note_off_c, 1, 62, 59
6, 30848, Note_off_c, 1, 60, 59
6, 30912, Note_on_c, 1, 62, 93
6, 30912, Note_on_c, 1, 60, 93
6, 31040, Note_off_c, 1, 62, 59
6, 31040, Note_off_c, 1, 60, 59
6, 31104, Note_on_c, 1, 62, 93
6, 31104, Note_on_c, 1, 59, 93
6, 31232, Note_off_c, 1, 62, 59
6, 31232, Note_off_c, 1, 59, 59
6, 31296, Note_on_c, 1, 62, 93
6, 31296, Note_on_c, 1, 59, 93
6, 31424, Note_off_c, 1, 62, 59
6, 31424, Note_off_c, 1, 59, 59
6, 31968, Note_on_c, 1, 72, 93
6, 32032, Note_off_c, 1, 72, 59
6, 32064, Note_on_c, 1, 74, 93
6, 32128, Note_off_c, 1, 74, 59
6, 32160, Note_on_c, 1, 76, 93
6, 32224, Note_off_c, 1, 76, 59
6, 32256, Note_on_c, 1, 69, 93
6, 32348, Note_off_c, 1, 69, 59
6, 32352, Note_on_c, 1, 64, 93
6, 32444, Note_off_c, 1, 64, 59
6, 32448, Note_on_c, 1, 65, 93
6, 32540, Note_off_c, 1, 65, 59
6, 32544, Note_on_c, 1, 69, 93
6, 32636, Note_off_c, 1, 69, 59
6, 32640, Note_on_c, 1, 74, 93
6, 32704, Note_off_c, 1, 74, 59
6, 32736, Note_on_c, 1, 74, 93
6, 32800, Note_off_c, 1, 74, 59
6, 32832, Note_on_c, 1, 76, 93
6, 32896, Note_off_c, 1, 76, 59
6, 32928, Note_on_c, 1, 77, 93
6, 32992, Note_off_c, 1, 77, 59
6, 33024, Note_on_c, 1, 71, 93
6, 33116, Note_off_c, 1, 71, 59
6, 33120, Note_on_c, 1, 66, 93
6, 33212, Note_off_c, 1, 66, 59
6, 33216, Note_on_c, 1, 67, 93
6, 33308, Note_off_c, 1, 67, 59
6, 33312, Note_on_c, 1, 71, 93
6, 33404, Note_off_c, 1, 71, 59
6, 33408, Note_on_c, 1, 76, 93
6, 33408, Note_on_c, 1, 67, 93
6, 33472, Note_off_c, 1, 76, 59
6, 33504, Note_on_c, 1, 76, 93
6, 33536, Note_off_c, 1, 67, 59
6, 33568, Note_off_c, 1, 76, 59
6, 33600, Note_on_c, 1, 77, 93
6, 33664, Note_off_c, 1, 77, 59
6, 33696, Note_on_c, 1, 79, 93
6, 33760, Note_off_c, 1, 79, 59
6, 33792, Note_on_c, 1, 72, 93
6, 33884, Note_off_c, 1, 72, 59
6, 33888, Note_on_c, 1, 68, 93
6, 33980, Note_off_c, 1, 68, 59
6, 33984, Note_on_c, 1, 69, 93
6, 34076, Note_off_c, 1, 69, 59
6, 34080, Note_on_c, 1, 72, 93
6, 34172, Note_off_c, 1, 72, 59
6, 34176, Note_on_c, 1, 78, 93
6, 34176, Note_on_c, 1, 69, 93
6, 34240, Note_off_c, 1, 78, 59
6, 34272, Note_on_c, 1, 78, 93
6, 34304, Note_off_c, 1, 69, 59
6, 34364, Note_off_c, 1, 78, 59
6, 34368, Note_on_c, 1, 79, 93
6, 34460, Note_off_c, 1, 79, 59
6, 34464, Note_on_c, 1, 81, 93
6, 34528, Note_off_c, 1, 81, 59
6, 34532, Note_on_c, 1, 81, 93
6, 34560, Note_on_c, 1, 79, 93
6, 34564, Note_off_c, 1, 81, 59
6, 34592, Note_on_c, 1, 81, 93
6, 34612, Note_on_c, 1, 79, 93
6, 34616, Note_off_c, 1, 79, 59
6, 34648, Note_off_c, 1, 81, 59
6, 34656, Note_on_c, 1, 78, 93
6, 34668, Note_off_c, 1, 79, 59
6, 34720, Note_off_c, 1, 78, 59
6, 34752, Note_on_c, 1, 79, 93
6, 35008, Note_off_c, 1, 79, 59
6, 35040, Note_on_c, 1, 67, 93
6, 35132, Note_off_c, 1, 67, 59
6, 35136, Note_on_c, 1, 71, 93
6, 35228, Note_off_c, 1, 71, 59
6, 35232, Note_on_c, 1, 74, 93
6, 35300, Note_on_c, 1, 79, 93
6, 35324, Note_off_c, 1, 74, 59
6, 35328, Note_on_c, 1, 77, 93
6, 35336, Note_off_c, 1, 79, 0
6, 35360, Note_on_c, 1, 79, 93
6, 35380, Note_on_c, 1, 77, 93
6, 35384, Note_off_c, 1, 77, 0
6, 35416, Note_off_c, 1, 79, 0
6, 35424, Note_on_c, 1, 76, 93
6, 35436, Note_off_c, 1, 77, 0
6, 35516, Note_off_c, 1, 76, 59
6, 35520, Note_on_c, 1, 77, 93
6, 35804, Note_off_c, 1, 77, 59
6, 35808, Note_on_c, 1, 67, 93
6, 35900, Note_off_c, 1, 67, 59
6, 35904, Note_on_c, 1, 71, 93
6, 35996, Note_off_c, 1, 71, 59
6, 36000, Note_on_c, 1, 74, 93
6, 36068, Note_on_c, 1, 77, 93
6, 36092, Note_off_c, 1, 74, 59
6, 36096, Note_on_c, 1, 76, 93
6, 36096, Note_on_c, 1, 67, 93
6, 36104, Note_off_c, 1, 77, 0
6, 36128, Note_on_c, 1, 77, 93
6, 36148, Note_on_c, 1, 76, 93
6, 36152, Note_off_c, 1, 76, 0
6, 36184, Note_off_c, 1, 77, 0
6, 36188, Note_off_c, 1, 67, 59
6, 36192, Note_on_c, 1, 74, 93
6, 36192, Note_on_c, 1, 65, 93
6, 36204, Note_off_c, 1, 76, 0
6, 36284, Note_off_c, 1, 74, 59
6, 36284, Note_off_c, 1, 65, 59
6, 36288, Note_on_c, 1, 76, 93
6, 36288, Note_on_c, 1, 64, 93
6, 36380, Note_off_c, 1, 64, 59
6, 36384, Note_on_c, 1, 62, 93
6, 36476, Note_off_c, 1, 62, 59
6, 36572, Note_off_c, 1, 76, 59
6, 36576, Note_on_c, 1, 67, 93
6, 36668, Note_off_c, 1, 67, 59
6, 36672, Note_on_c, 1, 72, 93
6, 36764, Note_off_c, 1, 72, 59
6, 36768, Note_on_c, 1, 74, 93
6, 36860, Note_off_c, 1, 74, 59
6, 36864, Note_on_c, 1, 75, 93
6, 36928, Note_off_c, 1, 75, 59
6, 36960, Note_on_c, 1, 72, 93
6, 37052, Note_off_c, 1, 72, 59
6, 37056, Note_on_c, 1, 71, 93
6, 37148, Note_off_c, 1, 71, 59
6, 37152, Note_on_c, 1, 72, 93
6, 37244, Note_off_c, 1, 72, 59
6, 37248, Note_on_c, 1, 78, 93
6, 37340, Note_off_c, 1, 78, 59
6, 37344, Note_on_c, 1, 72, 93
6, 37436, Note_off_c, 1, 72, 59
6, 37440, Note_on_c, 1, 81, 93
6, 37532, Note_off_c, 1, 81, 59
6, 37536, Note_on_c, 1, 72, 93
6, 37600, Note_off_c, 1, 72, 59
6, 37632, Note_on_c, 1, 71, 93
6, 37696, Note_off_c, 1, 71, 59
6, 37728, Note_on_c, 1, 65, 93
6, 37820, Note_off_c, 1, 65, 59
6, 37824, Note_on_c, 1, 64, 93
6, 37916, Note_off_c, 1, 64, 59
6, 37920, Note_on_c, 1, 65, 93
6, 38012, Note_off_c, 1, 65, 59
6, 38016, Note_on_c, 1, 71, 93
6, 38108, Note_off_c, 1, 71, 59
6, 38112, Note_on_c, 1, 65, 93
6, 38204, Note_off_c, 1, 65, 59
6, 38208, Note_on_c, 1, 74, 93
6, 38300, Note_off_c, 1, 74, 59
6, 38304, Note_on_c, 1, 65, 93
6, 38396, Note_off_c, 1, 65, 59
6, 38400, Note_on_c, 1, 64, 93
6, 38492, Note_off_c, 1, 64, 59
6, 38496, Note_on_c, 1, 67, 93
6, 38588, Note_off_c, 1, 67, 59
6, 38592, Note_on_c, 1, 72, 93
6, 38684, Note_off_c, 1, 72, 59
6, 38688, Note_on_c, 1, 79, 93
6, 38780, Note_off_c, 1, 79, 59
6, 38784, Note_on_c, 1, 77, 93
6, 38876, Note_off_c, 1, 77, 59
6, 38880, Note_on_c, 1, 76, 93
6, 38972, Note_off_c, 1, 76, 59
6, 38976, Note_on_c, 1, 74, 93
6, 39068, Note_off_c, 1, 74, 59
6, 39072, Note_on_c, 1, 72, 93
6, 39164, Note_off_c, 1, 72, 59
6, 39168, Note_on_c, 1, 72, 93
6, 39548, Note_off_c, 1, 72, 59
6, 50784, Note_on_c, 1, 74, 93
6, 50876, Note_off_c, 1, 74, 59
6, 50880, Note_on_c, 1, 70, 93
6, 50924, Note_on_c, 1, 69, 93
6, 50972, Note_off_c, 1, 70, 59
6, 50976, Note_on_c, 1, 67, 93
6, 51016, Note_off_c, 1, 69, 59
6, 51068, Note_off_c, 1, 67, 59
6, 51072, Note_on_c, 1, 69, 93
6, 51164, Note_off_c, 1, 69, 59
6, 51168, Note_on_c, 1, 74, 93
6, 51260, Note_off_c, 1, 74, 59
6, 51264, Note_on_c, 1, 67, 93
6, 51308, Note_on_c, 1, 65, 93
6, 51356, Note_off_c, 1, 67, 59
6, 51360, Note_on_c, 1, 64, 93
6, 51400, Note_off_c, 1, 65, 59
6, 51452, Note_off_c, 1, 64, 59
6, 51456, Note_on_c, 1, 65, 93
6, 51548, Note_off_c, 1, 65, 59
6, 51552, Note_on_c, 1, 74, 93
6, 51644, Note_off_c, 1, 74, 59
6, 51648, Note_on_c, 1, 67, 93
6, 51692, Note_on_c, 1, 65, 93
6, 51740, Note_off_c, 1, 67, 59
6, 51744, Note_on_c, 1, 64, 93
6, 51784, Note_off_c, 1, 65, 59
6, 51836, Note_off_c, 1, 64, 59
6, 51840, Note_on_c, 1, 65, 93
6, 51932, Note_off_c, 1, 65, 59
6, 51936, Note_on_c, 1, 74, 93
6, 52028, Note_off_c, 1, 74, 59
6, 52032, Note_on_c, 1, 64, 93
6, 52076, Note_on_c, 1, 62, 93
6, 52124, Note_off_c, 1, 64, 59
6, 52128, Note_on_c, 1, 61, 93
6, 52168, Note_off_c, 1, 62, 59
6, 52220, Note_off_c, 1, 61, 59
6, 52224, Note_on_c, 1, 62, 93
6, 52316, Note_off_c, 1, 62, 59
6, 71424, Note_on_c, 1, 65, 93
6, 71516, Note_off_c, 1, 65, 59
6, 71520, Note_on_c, 1, 67, 93
6, 71612, Note_off_c, 1, 67, 59
6, 71616, Note_on_c, 1, 65, 93
6, 71708, Note_off_c, 1, 65, 59
6, 71712, Note_on_c, 1, 64, 93
6, 71804, Note_off_c, 1, 64, 59
6, 71808, Note_on_c, 1, 62, 93
6, 71900, Note_off_c, 1, 62, 59
6, 71904, Note_on_c, 1, 64, 93
6, 71996, Note_off_c, 1, 64, 59
6, 72000, Note_on_c, 1, 65, 93
6, 72092, Note_off_c, 1, 65, 59
6, 72096, Note_on_c, 1, 62, 93
6, 72188, Note_off_c, 1, 62, 59
6, 72192, Note_on_c, 1, 67, 93
6, 72192, Note_on_c, 1, 64, 93
6, 72320, Note_off_c, 1, 67, 59
6, 72320, Note_off_c, 1, 64, 59
6, 72576, Note_on_c, 1, 65, 93
6, 72576, Note_on_c, 1, 62, 93
6, 72704, Note_off_c, 1, 65, 59
6, 72704, Note_off_c, 1, 62, 59
6, 73824, Note_on_c, 1, 62, 93
6, 73916, Note_off_c, 1, 62, 59
6, 73920, Note_on_c, 1, 64, 93
6, 74012, Note_off_c, 1, 64, 59
6, 74016, Note_on_c, 1, 65, 93
6, 74108, Note_off_c, 1, 65, 59
6, 74208, Note_on_c, 1, 65, 93
6, 74300, Note_off_c, 1, 65, 59
6, 74304, Note_on_c, 1, 64, 93
6, 74396, Note_off_c, 1, 64, 59
6, 74400, Note_on_c, 1, 62, 93
6, 74492, Note_off_c, 1, 62, 59
6, 98496, Note_on_c, 1, 74, 93
6, 98496, Note_on_c, 1, 69, 93
6, 98496, Note_on_c, 1, 65, 93
6, 98624, Note_off_c, 1, 74, 59
6, 98624, Note_off_c, 1, 69, 59
6, 98624, Note_off_c, 1, 65, 59
6, 98688, Note_on_c, 1, 69, 93
6, 98688, Note_on_c, 1, 65, 93
6, 98688, Note_on_c, 1, 76, 93
6, 98780, Note_off_c, 1, 76, 59
6, 98784, Note_on_c, 1, 74, 93
6, 98816, Note_off_c, 1, 69, 59
6, 98816, Note_off_c, 1, 65, 59
6, 98876, Note_off_c, 1, 74, 59
6, 98880, Note_on_c, 1, 69, 93
6, 98880, Note_on_c, 1, 65, 93
6, 98880, Note_on_c, 1, 73, 93
6, 98972, Note_off_c, 1, 73, 59
6, 98976, Note_on_c, 1, 74, 93
6, 99008, Note_off_c, 1, 69, 59
6, 99008, Note_off_c, 1, 65, 59
6, 99072, Note_on_c, 1, 67, 93
6, 99072, Note_on_c, 1, 64, 93
6, 99164, Note_off_c, 1, 74, 59
6, 99168, Note_on_c, 1, 79, 93
6, 99200, Note_off_c, 1, 67, 59
6, 99200, Note_off_c, 1, 64, 59
6, 99260, Note_off_c, 1, 79, 59
6, 99264, Note_on_c, 1, 74, 93
6, 99264, Note_on_c, 1, 67, 93
6, 99264, Note_on_c, 1, 64, 93
6, 99356, Note_off_c, 1, 74, 59
6, 99360, Note_on_c, 1, 71, 93
6, 99392, Note_off_c, 1, 67, 59
6, 99392, Note_off_c, 1, 64, 59
6, 99452, Note_off_c, 1, 71, 59
6, 99456, Note_on_c, 1, 72, 93
6, 99456, Note_on_c, 1, 67, 93
6, 99456, Note_on_c, 1, 64, 93
6, 99548, Note_off_c, 1, 72, 59
6, 99552, Note_on_c, 1, 71, 93
6, 99584, Note_off_c, 1, 67, 59
6, 99584, Note_off_c, 1, 64, 59
6, 99644, Note_off_c, 1, 71, 59
6, 99648, Note_on_c, 1, 72, 93
6, 99648, Note_on_c, 1, 67, 93
6, 99648, Note_on_c, 1, 64, 93
6, 99740, Note_off_c, 1, 72, 59
6, 99744, Note_on_c, 1, 76, 93
6, 99776, Note_off_c, 1, 67, 59
6, 99776, Note_off_c, 1, 64, 59
6, 99836, Note_off_c, 1, 76, 59
6, 99840, Note_on_c, 1, 77, 93
6, 99968, Note_off_c, 1, 77, 59
6, 100032, Note_on_c, 1, 70, 93
6, 100160, Note_off_c, 1, 70, 59
6, 100224, Note_on_c, 1, 72, 93
6, 100316, Note_off_c, 1, 72, 59
6, 100320, Note_on_c, 1, 70, 93
6, 100412, Note_off_c, 1, 70, 59
6, 100416, Note_on_c, 1, 69, 93
6, 100508, Note_off_c, 1, 69, 59
6, 100512, Note_on_c, 1, 70, 93
6, 100672, Note_off_c, 1, 70, 59
6, 100704, Note_on_c, 1, 75, 93
6, 100796, Note_off_c, 1, 75, 59
6, 100800, Note_on_c, 1, 70, 93
6, 100892, Note_off_c, 1, 70, 59
6, 100896, Note_on_c, 1, 67, 93
6, 100988, Note_off_c, 1, 67, 59
6, 100992, Note_on_c, 1, 69, 93
6, 101084, Note_off_c, 1, 69, 59
6, 101088, Note_on_c, 1, 67, 93
6, 101180, Note_off_c, 1, 67, 59
6, 101184, Note_on_c, 1, 69, 93
6, 101276, Note_off_c, 1, 69, 59
6, 101280, Note_on_c, 1, 72, 93
6, 101372, Note_off_c, 1, 72, 59
6, 101376, Note_on_c, 1, 74, 93
6, 101504, Note_off_c, 1, 74, 59
6, 101568, Note_on_c, 1, 67, 93
6, 101696, Note_off_c, 1, 67, 59
6, 101760, Note_on_c, 1, 69, 93
6, 101852, Note_off_c, 1, 69, 59
6, 101856, Note_on_c, 1, 67, 93
6, 101948, Note_off_c, 1, 67, 59
6, 101952, Note_on_c, 1, 66, 93
6, 102044, Note_off_c, 1, 66, 59
6, 102048, Note_on_c, 1, 67, 93
6, 102208, Note_off_c, 1, 67, 59
6, 102240, Note_on_c, 1, 72, 93
6, 102332, Note_off_c, 1, 72, 59
6, 102336, Note_on_c, 1, 67, 93
6, 102428, Note_off_c, 1, 67, 59
6, 102432, Note_on_c, 1, 64, 93
6, 102524, Note_off_c, 1, 64, 59
6, 102528, Note_on_c, 1, 65, 93
6, 102620, Note_off_c, 1, 65, 59
6, 102624, Note_on_c, 1, 64, 93
6, 102716, Note_off_c, 1, 64, 59
6, 102720, Note_on_c, 1, 65, 93
6, 102812, Note_off_c, 1, 65, 59
6, 102816, Note_on_c, 1, 69, 93
6, 102872, Note_off_c, 1, 69, 59
6, 102884, Note_on_c, 1, 69, 93
6, 102912, Note_on_c, 1, 70, 93
6, 102920, Note_off_c, 1, 69, 0
6, 102956, Note_off_c, 1, 70, 59
6, 102956, Note_on_c, 1, 72, 93
6, 103000, Note_off_c, 1, 72, 59
6, 103000, Note_on_c, 1, 70, 93
6, 103044, Note_off_c, 1, 70, 59
6, 103044, Note_on_c, 1, 72, 93
6, 103088, Note_off_c, 1, 72, 59
6, 103088, Note_on_c, 1, 70, 93
6, 103132, Note_off_c, 1, 70, 59
6, 103132, Note_on_c, 1, 72, 93
6, 103176, Note_off_c, 1, 72, 0
6, 103176, Note_on_c, 1, 70, 93
6, 103220, Note_off_c, 1, 70, 0
6, 103220, Note_on_c, 1, 72, 93
6, 103264, Note_off_c, 1, 72, 0
6, 103264, Note_on_c, 1, 70, 93
6, 103308, Note_off_c, 1, 70, 0
6, 103308, Note_on_c, 1, 72, 93
6, 103352, Note_off_c, 1, 72, 0
6, 103352, Note_on_c, 1, 70, 93
6, 103396, Note_off_c, 1, 70, 0
6, 103396, Note_on_c, 1, 72, 93
6, 103440, Note_off_c, 1, 72, 0
6, 103440, Note_on_c, 1, 70, 93
6, 103484, Note_off_c, 1, 70, 0
6, 103484, Note_on_c, 1, 72, 93
6, 103528, Note_off_c, 1, 72, 0
6, 103528, Note_on_c, 1, 70, 93
6, 103572, Note_off_c, 1, 70, 0
6, 103572, Note_on_c, 1, 72, 93
6, 103616, Note_off_c, 1, 72, 0
6, 103616, Note_on_c, 1, 70, 93
6, 103660, Note_off_c, 1, 70, 0
6, 103660, Note_on_c, 1, 72, 93
6, 103680, Note_on_c, 1, 70, 93
6, 103704, Note_off_c, 1, 72, 0
6, 103772, Note_off_c, 1, 70, 59
6, 103776, Note_on_c, 1, 79, 93
6, 103868, Note_off_c, 1, 79, 59
6, 103872, Note_on_c, 1, 76, 93
6, 103964, Note_off_c, 1, 76, 59
6, 103968, Note_on_c, 1, 72, 93
6, 104060, Note_off_c, 1, 72, 59
6, 104064, Note_on_c, 1, 70, 93
6, 104156, Note_off_c, 1, 70, 59
6, 104160, Note_on_c, 1, 79, 93
6, 104252, Note_off_c, 1, 79, 59
6, 104256, Note_on_c, 1, 76, 93
6, 104348, Note_off_c, 1, 76, 59
6, 104352, Note_on_c, 1, 72, 93
6, 104412, Note_off_c, 1, 72, 59
6, 104420, Note_on_c, 1, 69, 93
6, 104448, Note_off_c, 1, 69, 0
6, 104448, Note_on_c, 1, 70, 93
6, 104492, Note_off_c, 1, 70, 59
6, 104492, Note_on_c, 1, 72, 93
6, 104536, Note_off_c, 1, 72, 59
6, 104536, Note_on_c, 1, 70, 93
6, 104580, Note_off_c, 1, 70, 59
6, 104580, Note_on_c, 1, 72, 93
6, 104624, Note_off_c, 1, 72, 59
6, 104624, Note_on_c, 1, 70, 93
6, 104668, Note_off_c, 1, 70, 59
6, 104668, Note_on_c, 1, 72, 93
6, 104712, Note_off_c, 1, 72, 0
6, 104712, Note_on_c, 1, 70, 93
6, 104756, Note_off_c, 1, 70, 0
6, 104756, Note_on_c, 1, 72, 93
6, 104800, Note_off_c, 1, 72, 0
6, 104800, Note_on_c, 1, 70, 93
6, 104844, Note_off_c, 1, 70, 0
6, 104844, Note_on_c, 1, 72, 93
6, 104888, Note_off_c, 1, 72, 0
6, 104888, Note_on_c, 1, 70, 93
6, 104932, Note_off_c, 1, 70, 0
6, 104932, Note_on_c, 1, 72, 93
6, 104976, Note_off_c, 1, 72, 0
6, 104976, Note_on_c, 1, 70, 93
6, 105020, Note_off_c, 1, 70, 0
6, 105020, Note_on_c, 1, 72, 93
6, 105064, Note_off_c, 1, 72, 0
6, 105064, Note_on_c, 1, 70, 93
6, 105108, Note_off_c, 1, 70, 0
6, 105108, Note_on_c, 1, 72, 93
6, 105152, Note_off_c, 1, 72, 0
6, 105152, Note_on_c, 1, 70, 93
6, 105196, Note_off_c, 1, 70, 0
6, 105196, Note_on_c, 1, 72, 93
6, 105216, Note_on_c, 1, 70, 93
6, 105240, Note_off_c, 1, 72, 0
6, 105308, Note_off_c, 1, 70, 59
6, 105312, Note_on_c, 1, 79, 93
6, 105404, Note_off_c, 1, 79, 59
6, 105408, Note_on_c, 1, 76, 93
6, 105500, Note_off_c, 1, 76, 59
6, 105504, Note_on_c, 1, 72, 93
6, 105596, Note_off_c, 1, 72, 59
6, 105600, Note_on_c, 1, 70, 93
6, 105692, Note_off_c, 1, 70, 59
6, 105696, Note_on_c, 1, 79, 93
6, 105788, Note_off_c, 1, 79, 59
6, 105792, Note_on_c, 1, 76, 93
6, 105884, Note_off_c, 1, 76, 59
6, 105888, Note_on_c, 1, 72, 93
6, 105980, Note_off_c, 1, 72, 59
6, 105984, Note_on_c, 1, 69, 93
6, 106112, Note_off_c, 1, 69, 59
6, 112128, Note_on_c, 1, 67, 93
6, 112128, Note_on_c, 1, 64, 93
6, 112256, Note_off_c, 1, 67, 59
6, 112256, Note_off_c, 1, 64, 59
6, 112320, Note_on_c, 1, 60, 93
6, 112448, Note_off_c, 1, 60, 59
6, 112512, Note_on_c, 1, 69, 93
6, 112512, Note_on_c, 1, 65, 93
6, 112640, Note_off_c, 1, 69, 59
6, 112640, Note_off_c, 1, 65, 59
6, 112704, Note_on_c, 1, 60, 93
6, 112832, Note_off_c, 1, 60, 59
6, 112896, Note_on_c, 1, 67, 93
6, 112896, Note_on_c, 1, 64, 93
6, 113024, Note_off_c, 1, 67, 59
6, 113024, Note_off_c, 1, 64, 59
6, 113088, Note_on_c, 1, 60, 93
6, 113180, Note_off_c, 1, 60, 59
6, 113184, Note_on_c, 1, 62, 93
6, 113276, Note_off_c, 1, 62, 59
6, 113280, Note_on_c, 1, 64, 93
6, 113372, Note_off_c, 1, 64, 59
6, 113376, Note_on_c, 1, 65, 93
6, 113468, Note_off_c, 1, 65, 59
6, 113472, Note_on_c, 1, 67, 93
6, 113564, Note_off_c, 1, 67, 59
6, 113568, Note_on_c, 1, 64, 93
6, 113660, Note_off_c, 1, 64, 59
6, 113664, Note_on_c, 1, 69, 93
6, 113664, Note_on_c, 1, 65, 93
6, 113792, Note_off_c, 1, 69, 59
6, 113792, Note_off_c, 1, 65, 59
6, 113856, Note_on_c, 1, 60, 93
6, 113984, Note_off_c, 1, 60, 59
6, 114048, Note_on_c, 1, 67, 93
6, 114048, Note_on_c, 1, 64, 93
6, 114176, Note_off_c, 1, 67, 59
6, 114176, Note_off_c, 1, 64, 59
6, 114240, Note_on_c, 1, 60, 93
6, 114368, Note_off_c, 1, 60, 59
6, 114432, Note_on_c, 1, 65, 93
6, 114432, Note_on_c, 1, 69, 93
6, 114524, Note_off_c, 1, 69, 59
6, 114528, Note_on_c, 1, 70, 93
6, 114560, Note_off_c, 1, 65, 59
6, 114620, Note_off_c, 1, 70, 59
6, 114624, Note_on_c, 1, 69, 93
6, 114716, Note_off_c, 1, 69, 59
6, 114720, Note_on_c, 1, 67, 93
6, 114812, Note_off_c, 1, 67, 59
6, 114816, Note_on_c, 1, 65, 93
6, 114908, Note_off_c, 1, 65, 59
6, 114912, Note_on_c, 1, 67, 93
6, 115004, Note_off_c, 1, 67, 59
6, 115008, Note_on_c, 1, 69, 93
6, 115100, Note_off_c, 1, 69, 59
6, 115104, Note_on_c, 1, 65, 93
6, 115196, Note_off_c, 1, 65, 59
6, 115200, Note_on_c, 1, 67, 93
6, 115200, Note_on_c, 1, 70, 93
6, 115328, Note_off_c, 1, 67, 59
6, 115328, Note_off_c, 1, 70, 59
6, 115392, Note_on_c, 1, 60, 93
6, 115520, Note_off_c, 1, 60, 59
6, 115584, Note_on_c, 1, 69, 93
6, 115584, Note_on_c, 1, 65, 93
6, 115712, Note_off_c, 1, 69, 59
6, 115712, Note_off_c, 1, 65, 59
6, 115776, Note_on_c, 1, 60, 93
6, 115904, Note_off_c, 1, 60, 59
6, 115968, Note_on_c, 1, 64, 93
6, 115968, Note_on_c, 1, 67, 93
6, 116060, Note_off_c, 1, 67, 59
6, 116064, Note_on_c, 1, 65, 93
6, 116156, Note_off_c, 1, 64, 59
6, 116156, Note_off_c, 1, 65, 59
6, 116160, Note_on_c, 1, 64, 93
6, 116252, Note_off_c, 1, 64, 59
6, 116256, Note_on_c, 1, 62, 93
6, 116348, Note_off_c, 1, 62, 59
6, 116352, Note_on_c, 1, 60, 93
6, 116444, Note_off_c, 1, 60, 59
6, 116444, End_track
7, 0, Start_track
7, 0, Title_t, "Manual 2 LH"
7, 0, Control_c, 1, 0, 0
7, 0, Program_c, 1, 6
7, 0, Control_c, 1, 7, 100
7, 0, Key_signature, -1, "minor"
7, 25536, Note_on_c, 1, 53, 87
7, 25628, Note_off_c, 1, 53, 55
7, 25632, Note_on_c, 1, 55, 87
7, 25724, Note_off_c, 1, 55, 55
7, 25728, Note_on_c, 1, 57, 87
7, 25856, Note_off_c, 1, 57, 55
7, 25920, Note_on_c, 1, 53, 87
7, 26048, Note_off_c, 1, 53, 55
7, 31488, Note_on_c, 1, 62, 87
7, 31488, Note_on_c, 1, 60, 87
7, 31616, Note_off_c, 1, 62, 55
7, 31616, Note_off_c, 1, 60, 55
7, 31680, Note_on_c, 1, 60, 87
7, 31680, Note_on_c, 1, 48, 87
7, 31772, Note_off_c, 1, 48, 55
7, 31776, Note_on_c, 1, 50, 87
7, 31808, Note_off_c, 1, 60, 55
7, 31868, Note_off_c, 1, 50, 55
7, 31872, Note_on_c, 1, 52, 87
7, 32000, Note_off_c, 1, 52, 55
7, 32064, Note_on_c, 1, 48, 87
7, 32192, Note_off_c, 1, 48, 55
7, 32256, Note_on_c, 1, 53, 87
7, 32352, Note_on_c, 1, 55, 87
7, 32444, Note_off_c, 1, 55, 55
7, 32448, Note_on_c, 1, 57, 87
7, 32540, Note_off_c, 1, 57, 55
7, 32544, Note_on_c, 1, 60, 87
7, 32636, Note_off_c, 1, 53, 55
7, 32636, Note_off_c, 1, 60, 55
7, 32640, Note_on_c, 1, 65, 87
7, 32768, Note_off_c, 1, 65, 55
7, 32832, Note_on_c, 1, 50, 87
7, 32960, Note_off_c, 1, 50, 55
7, 33024, Note_on_c, 1, 55, 87
7, 33120, Note_on_c, 1, 57, 87
7, 33212, Note_off_c, 1, 57, 55
7, 33216, Note_on_c, 1, 59, 87
7, 33308, Note_off_c, 1, 59, 55
7, 33312, Note_on_c, 1, 62, 87
7, 33404, Note_off_c, 1, 55, 55
7, 33404, Note_off_c, 1, 62, 55
7, 33600, Note_on_c, 1, 52, 87
7, 33728, Note_off_c, 1, 52, 55
7, 33792, Note_on_c, 1, 57, 87
7, 33888, Note_on_c, 1, 59, 87
7, 33980, Note_off_c, 1, 59, 55
7, 33984, Note_on_c, 1, 60, 87
7, 34076, Note_off_c, 1, 60, 55
7, 34080, Note_on_c, 1, 64, 87
7, 34172, Note_off_c, 1, 57, 55
7, 34172, Note_off_c, 1, 64, 55
7, 34368, Note_on_c, 1, 57, 87
7, 34368, Note_on_c, 1, 60, 87
7, 34556, Note_off_c, 1, 57, 55
7, 34556, Note_off_c, 1, 60, 55
7, 34560, Note_on_c, 1, 62, 87
7, 34560, Note_on_c, 1, 59, 87
7, 34748, Note_off_c, 1, 62, 55
7, 34748, Note_off_c, 1, 59, 55
7, 34752, Note_on_c, 1, 59, 87
7, 34752, Note_on_c, 1, 55, 87
7, 34940, Note_off_c, 1, 59, 55
7, 34940, Note_off_c, 1, 55, 55
7, 34944, Note_on_c, 1, 62, 87
7, 34944, Note_on_c, 1, 59, 87
7, 35132, Note_off_c, 1, 62, 55
7, 35132, Note_off_c, 1, 59, 55
7, 35136, Note_on_c, 1, 65, 87
7, 35136, Note_on_c, 1, 62, 87
7, 35324, Note_off_c, 1, 65, 55
7, 35324, Note_off_c, 1, 62, 55
7, 35328, Note_on_c, 1, 62, 87
7, 35328, Note_on_c, 1, 59, 87
7, 35516, Note_off_c, 1, 62, 55
7, 35516, Note_off_c, 1, 59, 55
7, 35520, Note_on_c, 1, 59, 87
7, 35520, Note_on_c, 1, 55, 87
7, 35708, Note_off_c, 1, 59, 55
7, 35708, Note_off_c, 1, 55, 55
7, 35712, Note_on_c, 1, 62, 87
7, 35712, Note_on_c, 1, 59, 87
7, 35900, Note_off_c, 1, 62, 55
7, 35900, Note_off_c, 1, 59, 55
7, 35904, Note_on_c, 1, 65, 87
7, 35904, Note_on_c, 1, 62, 87
7, 36092, Note_off_c, 1, 65, 55
7, 36092, Note_off_c, 1, 62, 55
7, 36096, Note_on_c, 1, 60, 87
7, 36480, Note_on_c, 1, 60, 87
7, 36572, Note_off_c, 1, 60, 55
7, 36576, Note_on_c, 1, 59, 87
7, 36668, Note_off_c, 1, 60, 55
7, 36668, Note_off_c, 1, 59, 55
7, 36672, Note_on_c, 1, 57, 87
7, 36764, Note_off_c, 1, 57, 55
7, 36768, Note_on_c, 1, 55, 87
7, 36860, Note_off_c, 1, 55, 55
7, 36864, Note_on_c, 1, 54, 87
7, 36956, Note_off_c, 1, 54, 55
7, 36960, Note_on_c, 1, 52, 87
7, 37052, Note_off_c, 1, 52, 55
7, 37056, Note_on_c, 1, 50, 87
7, 37148, Note_off_c, 1, 50, 55
7, 37152, Note_on_c, 1, 48, 87
7, 37244, Note_off_c, 1, 48, 55
7, 37248, Note_on_c, 1, 47, 87
7, 37340, Note_off_c, 1, 47, 55
7, 37344, Note_on_c, 1, 45, 87
7, 37436, Note_off_c, 1, 45, 55
7, 37440, Note_on_c, 1, 43, 87
7, 37532, Note_off_c, 1, 43, 55
7, 37536, Note_on_c, 1, 42, 87
7, 37628, Note_off_c, 1, 42, 55
7, 37632, Note_on_c, 1, 43, 87
7, 37824, Note_on_c, 1, 50, 87
7, 38012, Note_off_c, 1, 43, 55
7, 38012, Note_off_c, 1, 50, 55
7, 38016, Note_on_c, 1, 55, 87
7, 38208, Note_on_c, 1, 47, 87
7, 38396, Note_off_c, 1, 47, 55
7, 38400, Note_on_c, 1, 48, 87
7, 38588, Note_off_c, 1, 55, 55
7, 38588, Note_off_c, 1, 48, 55
7, 38592, Note_on_c, 1, 40, 87
7, 38592, Note_on_c, 1, 48, 87
7, 38780, Note_off_c, 1, 40, 55
7, 38784, Note_on_c, 1, 41, 87
7, 38972, Note_off_c, 1, 48, 55
7, 38972, Note_off_c, 1, 41, 55
7, 38976, Note_on_c, 1, 43, 87
7, 38976, Note_on_c, 1, 47, 87
7, 39164, Note_off_c, 1, 43, 55
7, 39164, Note_off_c, 1, 47, 55
7, 39168, Note_on_c, 1, 48, 87
7, 39232, Note_off_c, 1, 48, 55
7, 50880, Note_on_c, 1, 55, 87
7, 51068, Note_off_c, 1, 55, 55
7, 51072, Note_on_c, 1, 53, 87
7, 51260, Note_off_c, 1, 53, 55
7, 51264, Note_on_c, 1, 52, 87
7, 51452, Note_off_c, 1, 52, 55
7, 51456, Note_on_c, 1, 50, 87
7, 51644, Note_off_c, 1, 50, 55
7, 51648, Note_on_c, 1, 58, 87
7, 51836, Note_off_c, 1, 58, 55
7, 51840, Note_on_c, 1, 57, 87
7, 52028, Note_off_c, 1, 57, 55
7, 52032, Note_on_c, 1, 55, 87
7, 52220, Note_off_c, 1, 55, 55
7, 52224, Note_on_c, 1, 53, 87
7, 52288, Note_off_c, 1, 53, 55
7, 68544, Note_on_c, 1, 50, 87
7, 68636, Note_off_c, 1, 50, 55
7, 68640, Note_on_c, 1, 52, 87
7, 68732, Note_off_c, 1, 52, 55
7, 68736, Note_on_c, 1, 53, 87
7, 68828, Note_off_c, 1, 53, 55
7, 68832, Note_on_c, 1, 55, 87
7, 68924, Note_off_c, 1, 55, 55
7, 68928, Note_on_c, 1, 57, 87
7, 69020, Note_off_c, 1, 57, 55
7, 69024, Note_on_c, 1, 59, 87
7, 69116, Note_off_c, 1, 59, 55
7, 69120, Note_on_c, 1, 61, 87
7, 69120, Note_on_c, 1, 64, 87
7, 69248, Note_off_c, 1, 61, 55
7, 69248, Note_off_c, 1, 64, 55
7, 69312, Note_on_c, 1, 57, 87
7, 69440, Note_off_c, 1, 57, 55
7, 69504, Note_on_c, 1, 65, 87
7, 69504, Note_on_c, 1, 62, 87
7, 69632, Note_off_c, 1, 65, 55
7, 69632, Note_off_c, 1, 62, 55
7, 69696, Note_on_c, 1, 57, 87
7, 69824, Note_off_c, 1, 57, 55
7, 69888, Note_on_c, 1, 64, 87
7, 69888, Note_on_c, 1, 61, 87
7, 70016, Note_off_c, 1, 64, 55
7, 70016, Note_off_c, 1, 61, 55
7, 70080, Note_on_c, 1, 57, 87
7, 70172, Note_off_c, 1, 57, 55
7, 70176, Note_on_c, 1, 59, 87
7, 70268, Note_off_c, 1, 59, 55
7, 70272, Note_on_c, 1, 61, 87
7, 70364, Note_off_c, 1, 61, 55
7, 70368, Note_on_c, 1, 62, 87
7, 70460, Note_off_c, 1, 62, 55
7, 70464, Note_on_c, 1, 64, 87
7, 70556, Note_off_c, 1, 64, 55
7, 70560, Note_on_c, 1, 61, 87
7, 70652, Note_off_c, 1, 61, 55
7, 70656, Note_on_c, 1, 65, 87
7, 70656, Note_on_c, 1, 62, 87
7, 70784, Note_off_c, 1, 65, 55
7, 70784, Note_off_c, 1, 62, 55
7, 70848, Note_on_c, 1, 57, 87
7, 70976, Note_off_c, 1, 57, 55
7, 71040, Note_on_c, 1, 64, 87
7, 71040, Note_on_c, 1, 61, 87
7, 71168, Note_off_c, 1, 64, 55
7, 71168, Note_off_c, 1, 61, 55
7, 71232, Note_on_c, 1, 57, 87
7, 71360, Note_off_c, 1, 57, 55
7, 71424, Note_on_c, 1, 62, 87
7, 71612, Note_off_c, 1, 62, 55
7, 72384, Note_on_c, 1, 57, 87
7, 72512, Note_off_c, 1, 57, 55
7, 72768, Note_on_c, 1, 57, 87
7, 72896, Note_off_c, 1, 57, 55
7, 72960, Note_on_c, 1, 61, 87
7, 72960, Note_on_c, 1, 64, 87
7, 73052, Note_off_c, 1, 61, 55
7, 73052, Note_off_c, 1, 64, 55
7, 73056, Note_on_c, 1, 62, 87
7, 73148, Note_off_c, 1, 62, 55
7, 73152, Note_on_c, 1, 61, 87
7, 73244, Note_off_c, 1, 61, 55
7, 73248, Note_on_c, 1, 59, 87
7, 73340, Note_off_c, 1, 59, 55
7, 73344, Note_on_c, 1, 57, 87
7, 73436, Note_off_c, 1, 57, 55
7, 73440, Note_on_c, 1, 55, 87
7, 73532, Note_off_c, 1, 55, 55
7, 73536, Note_on_c, 1, 53, 87
7, 73628, Note_off_c, 1, 53, 55
7, 73632, Note_on_c, 1, 52, 87
7, 73724, Note_off_c, 1, 52, 55
7, 73728, Note_on_c, 1, 50, 87
7, 73820, Note_off_c, 1, 50, 55
7, 74112, Note_on_c, 1, 55, 87
7, 74204, Note_off_c, 1, 55, 55
7, 74496, Note_on_c, 1, 48, 87
7, 74588, Note_off_c, 1, 48, 55
7, 74592, Note_on_c, 1, 60, 87
7, 74684, Note_off_c, 1, 60, 55
7, 74688, Note_on_c, 1, 62, 87
7, 74780, Note_off_c, 1, 62, 55
7, 74784, Note_on_c, 1, 64, 87
7, 74876, Note_off_c, 1, 64, 55
7, 74880, Note_on_c, 1, 53, 87
7, 74972, Note_off_c, 1, 53, 55
7, 74976, Note_on_c, 1, 63, 87
7, 75068, Note_off_c, 1, 63, 55
7, 75072, Note_on_c, 1, 62, 87
7, 75164, Note_off_c, 1, 62, 55
7, 75168, Note_on_c, 1, 60, 87
7, 75260, Note_off_c, 1, 60, 55
7, 75264, Note_on_c, 1, 46, 87
7, 75356, Note_off_c, 1, 46, 55
7, 75360, Note_on_c, 1, 58, 87
7, 75452, Note_off_c, 1, 58, 55
7, 75456, Note_on_c, 1, 60, 87
7, 75548, Note_off_c, 1, 60, 55
7, 75552, Note_on_c, 1, 62, 87
7, 75644, Note_off_c, 1, 62, 55
7, 75648, Note_on_c, 1, 51, 87
7, 75836, Note_off_c, 1, 51, 55
7, 75840, Note_on_c, 1, 57, 87
7, 76028, Note_off_c, 1, 57, 55
7, 76032, Note_on_c, 1, 50, 87
7, 76220, Note_off_c, 1, 50, 55
7, 76224, Note_on_c, 1, 55, 87
7, 76412, Note_off_c, 1, 55, 55
7, 76416, Note_on_c, 1, 48, 87
7, 76604, Note_off_c, 1, 48, 55
7, 76608, Note_on_c, 1, 53, 87
7, 76796, Note_off_c, 1, 53, 55
7, 76800, Note_on_c, 1, 46, 87
7, 76988, Note_off_c, 1, 46, 55
7, 76992, Note_on_c, 1, 50, 87
7, 77180, Note_off_c, 1, 50, 55
7, 77184, Note_on_c, 1, 55, 87
7, 77372, Note_off_c, 1, 55, 55
7, 77376, Note_on_c, 1, 51, 87
7, 77564, Note_off_c, 1, 51, 55
7, 77568, Note_on_c, 1, 53, 87
7, 77756, Note_off_c, 1, 53, 55
7, 77760, Note_on_c, 1, 48, 87
7, 77948, Note_off_c, 1, 48, 55
7, 77952, Note_on_c, 1, 45, 87
7, 78140, Note_off_c, 1, 45, 55
7, 78144, Note_on_c, 1, 41, 87
7, 78332, Note_off_c, 1, 41, 55
7, 78336, Note_on_c, 1, 46, 87
7, 78524, Note_off_c, 1, 46, 55
7, 78528, Note_on_c, 1, 34, 87
7, 78716, Note_off_c, 1, 34, 55
7, 100032, Note_on_c, 1, 65, 87
7, 100032, Note_on_c, 1, 62, 87
7, 100160, Note_off_c, 1, 65, 55
7, 100160, Note_off_c, 1, 62, 55
7, 100224, Note_on_c, 1, 65, 87
7, 100224, Note_on_c, 1, 62, 87
7, 100352, Note_off_c, 1, 65, 55
7, 100352, Note_off_c, 1, 62, 55
7, 100416, Note_on_c, 1, 65, 87
7, 100416, Note_on_c, 1, 62, 87
7, 100544, Note_off_c, 1, 65, 55
7, 100544, Note_off_c, 1, 62, 55
7, 100608, Note_on_c, 1, 63, 87
7, 100608, Note_on_c, 1, 60, 87
7, 100736, Note_off_c, 1, 63, 55
7, 100736, Note_off_c, 1, 60, 55
7, 100800, Note_on_c, 1, 63, 87
7, 100800, Note_on_c, 1, 60, 87
7, 100928, Note_off_c, 1, 63, 55
7, 100928, Note_off_c, 1, 60, 55
7, 100992, Note_on_c, 1, 63, 87
7, 100992, Note_on_c, 1, 60, 87
7, 101120, Note_off_c, 1, 63, 55
7, 101120, Note_off_c, 1, 60, 55
7, 101184, Note_on_c, 1, 63, 87
7, 101184, Note_on_c, 1, 60, 87
7, 101312, Note_off_c, 1, 63, 55
7, 101312, Note_off_c, 1, 60, 55
7, 101568, Note_on_c, 1, 62, 87
7, 101568, Note_on_c, 1, 58, 87
7, 101696, Note_off_c, 1, 62, 55
7, 101696, Note_off_c, 1, 58, 55
7, 101760, Note_on_c, 1, 62, 87
7, 101760, Note_on_c, 1, 58, 87
7, 101888, Note_off_c, 1, 62, 55
7, 101888, Note_off_c, 1, 58, 55
7, 101952, Note_on_c, 1, 62, 87
7, 101952, Note_on_c, 1, 58, 87
7, 102080, Note_off_c, 1, 62, 55
7, 102080, Note_off_c, 1, 58, 55
7, 102144, Note_on_c, 1, 60, 87
7, 102144, Note_on_c, 1, 57, 87
7, 102272, Note_off_c, 1, 60, 55
7, 102272, Note_off_c, 1, 57, 55
7, 102336, Note_on_c, 1, 60, 87
7, 102336, Note_on_c, 1, 57, 87
7, 102464, Note_off_c, 1, 60, 55
7, 102464, Note_off_c, 1, 57, 55
7, 102528, Note_on_c, 1, 60, 87
7, 102528, Note_on_c, 1, 57, 87
7, 102656, Note_off_c, 1, 60, 55
7, 102656, Note_off_c, 1, 57, 55
7, 102720, Note_on_c, 1, 60, 87
7, 102720, Note_on_c, 1, 57, 87
7, 102848, Note_off_c, 1, 60, 55
7, 102848, Note_off_c, 1, 57, 55
7, 103008, Note_on_c, 1, 62, 87
7, 103100, Note_off_c, 1, 62, 55
7, 103104, Note_on_c, 1, 64, 87
7, 103196, Note_off_c, 1, 64, 55
7, 103200, Note_on_c, 1, 65, 87
7, 103292, Note_off_c, 1, 65, 55
7, 103296, Note_on_c, 1, 55, 87
7, 103388, Note_off_c, 1, 55, 55
7, 103392, Note_on_c, 1, 64, 87
7, 103484, Note_off_c, 1, 64, 55
7, 103488, Note_on_c, 1, 53, 87
7, 103580, Note_off_c, 1, 53, 55
7, 103584, Note_on_c, 1, 62, 87
7, 103676, Note_off_c, 1, 62, 55
7, 103680, Note_on_c, 1, 52, 87
7, 103772, Note_off_c, 1, 52, 55
7, 103776, Note_on_c, 1, 55, 87
7, 103868, Note_off_c, 1, 55, 55
7, 103872, Note_on_c, 1, 60, 87
7, 104060, Note_off_c, 1, 60, 55
7, 104544, Note_on_c, 1, 55, 87
7, 104636, Note_off_c, 1, 55, 55
7, 104640, Note_on_c, 1, 53, 87
7, 104732, Note_off_c, 1, 53, 55
7, 104736, Note_on_c, 1, 52, 87
7, 104828, Note_off_c, 1, 52, 55
7, 104832, Note_on_c, 1, 60, 87
7, 104924, Note_off_c, 1, 60, 55
7, 104928, Note_on_c, 1, 52, 87
7, 105020, Note_off_c, 1, 52, 55
7, 105024, Note_on_c, 1, 62, 87
7, 105116, Note_off_c, 1, 62, 55
7, 105120, Note_on_c, 1, 50, 87
7, 105212, Note_off_c, 1, 50, 55
7, 105216, Note_on_c, 1, 64, 87
7, 105404, Note_off_c, 1, 64, 55
7, 105408, Note_on_c, 1, 48, 87
7, 105596, Note_off_c, 1, 48, 55
7, 111456, Note_on_c, 1, 55, 87
7, 111548, Note_off_c, 1, 55, 55
7, 111552, Note_on_c, 1, 57, 87
7, 111644, Note_off_c, 1, 57, 55
7, 111648, Note_on_c, 1, 59, 87
7, 111740, Note_off_c, 1, 59, 55
7, 111744, Note_on_c, 1, 60, 87
7, 111836, Note_off_c, 1, 60, 55
7, 111840, Note_on_c, 1, 55, 87
7, 111932, Note_off_c, 1, 55, 55
7, 111936, Note_on_c, 1, 60, 87
7, 112028, Note_off_c, 1, 60, 55
7, 112032, Note_on_c, 1, 62, 87
7, 112124, Note_off_c, 1, 62, 55
7, 116448, Note_on_c, 1, 58, 87
7, 116540, Note_off_c, 1, 58, 55
7, 116544, Note_on_c, 1, 57, 87
7, 116636, Note_off_c, 1, 57, 55
7, 116640, Note_on_c, 1, 55, 87
7, 116732, Note_off_c, 1, 55, 55
7, 116736, Note_on_c, 1, 53, 87
7, 116828, Note_off_c, 1, 53, 55
7, 116832, Note_on_c, 1, 55, 87
7, 116924, Note_off_c, 1, 55, 55
7, 116928, Note_on_c, 1, 53, 87
7, 117020, Note_off_c, 1, 53, 55
7, 117024, Note_on_c, 1, 51, 87
7, 117116, Note_off_c, 1, 51, 55
7, 117120, Note_on_c, 1, 50, 87
7, 117212, Note_off_c, 1, 50, 55
7, 117216, Note_on_c, 1, 48, 87
7, 117308, Note_off_c, 1, 48, 55
7, 117312, Note_on_c, 1, 46, 87
7, 117404, Note_off_c, 1, 46, 55
7, 117408, Note_on_c, 1, 45, 87
7, 117500, Note_off_c, 1, 45, 55
7, 117504, Note_on_c, 1, 46, 87
7, 117568, Note_off_c, 1, 46, 55
7, 117600, Note_on_c, 1, 53, 87
7, 117664, Note_off_c, 1, 53, 55
7, 117696, Note_on_c, 1, 58, 87
7, 117952, Note_off_c, 1, 58, 55
7, 117984, Note_on_c, 1, 55, 87
7, 118048, Note_off_c, 1, 55, 55
7, 118080, Note_on_c, 1, 53, 87
7, 118144, Note_off_c, 1, 53, 55
7, 118176, Note_on_c, 1, 52, 87
7, 118240, Note_off_c, 1, 52, 55
7, 118272, Note_on_c, 1, 53, 87
7, 118364, Note_off_c, 1, 53, 55
7, 118368, Note_on_c, 1, 57, 87
7, 118460, Note_off_c, 1, 57, 55
7, 118464, Note_on_c, 1, 60, 87
7, 118748, Note_off_c, 1, 60, 55
7, 118752, Note_on_c, 1, 59, 87
7, 118844, Note_off_c, 1, 59, 55
7, 118848, Note_on_c, 1, 57, 87
7, 118940, Note_off_c, 1, 57, 55
7, 118944, Note_on_c, 1, 59, 87
7, 119036, Note_off_c, 1, 59, 55
7, 119040, Note_on_c, 1, 60, 87
7, 119132, Note_off_c, 1, 60, 55
7, 119136, Note_on_c, 1, 55, 87
7, 119228, Note_off_c, 1, 55, 55
7, 119232, Note_on_c, 1, 60, 87
7, 119324, Note_off_c, 1, 60, 55
7, 119328, Note_on_c, 1, 62, 87
7, 119420, Note_off_c, 1, 62, 55
7, 119424, Note_on_c, 1, 64, 87
7, 119516, Note_off_c, 1, 64, 55
7, 119520, Note_on_c, 1, 60, 87
7, 119612, Note_off_c, 1, 60, 55
7, 119616, Note_on_c, 1, 62, 87
7, 119708, Note_off_c, 1, 62, 55
7, 119712, Note_on_c, 1, 64, 87
7, 119804, Note_off_c, 1, 64, 55
7, 119808, Note_on_c, 1, 65, 87
7, 119996, Note_off_c, 1, 65, 55
7, 120000, Note_on_c, 1, 57, 87
7, 120188, Note_off_c, 1, 57, 55
7, 120192, Note_on_c, 1, 58, 87
7, 120380, Note_off_c, 1, 58, 55
7, 120384, Note_on_c, 1, 60, 87
7, 120572, Note_off_c, 1, 60, 55
7, 120576, Note_on_c, 1, 62, 87
7, 120764, Note_off_c, 1, 62, 55
7, 120768, Note_on_c, 1, 58, 87
7, 120956, Note_off_c, 1, 58, 55
7, 120960, Note_on_c, 1, 53, 87
7, 121148, Note_off_c, 1, 53, 55
7, 121152, Note_on_c, 1, 62, 87
7, 121340, Note_off_c, 1, 62, 55
7, 121344, Note_on_c, 1, 60, 87
7, 121532, Note_off_c, 1, 60, 55
7, 121536, Note_on_c, 1, 57, 87
7, 121724, Note_off_c, 1, 57, 55
7, 121728, Note_on_c, 1, 53, 87
7, 121916, Note_off_c, 1, 53, 55
7, 121920, Note_on_c, 1, 60, 87
7, 122108, Note_off_c, 1, 60, 55
7, 122112, Note_on_c, 1, 59, 87
7, 122300, Note_off_c, 1, 59, 55
7, 122304, Note_on_c, 1, 62, 87
7, 122492, Note_off_c, 1, 62, 55
7, 122496, Note_on_c, 1, 59, 87
7, 122684, Note_off_c, 1, 59, 55
7, 122688, Note_on_c, 1, 55, 87
7, 122876, Note_off_c, 1, 55, 55
7, 122880, Note_on_c, 1, 60, 87
7, 123068, Note_off_c, 1, 60, 55
7, 123072, Note_on_c, 1, 48, 87
7, 123260, Note_off_c, 1, 48, 55
7, 123264, Note_on_c, 1, 50, 87
7, 123452, Note_off_c, 1, 50, 55
7, 123456, Note_on_c, 1, 52, 87
7, 123644, Note_off_c, 1, 52, 55
7, 123648, Note_on_c, 1, 53, 87
7, 123836, Note_off_c, 1, 53, 55
7, 123840, Note_on_c, 1, 45, 87
7, 124028, Note_off_c, 1, 45, 55
7, 124032, Note_on_c, 1, 46, 87
7, 124220, Note_off_c, 1, 46, 55
7, 124224, Note_on_c, 1, 48, 87
7, 124412, Note_off_c, 1, 48, 55
7, 124412, End_track
8, 0, Start_track
8, 0, Title_t, "J.S. Bach: Italian Concerto, BWV 971"
8, 0, Control_c, 1, 0, 0
8, 0, Program_c, 1, 6
8, 0, Control_c, 1, 7, 100
8, 0, Key_signature, 0, "major"
8, 0, End_track
9, 0, Start_track
9, 0, Title_t, "First Movement: Allegro"
9, 0, Control_c, 1, 0, 0
9, 0, Program_c, 1, 6
9, 0, Control_c, 1, 7, 100
9, 0, Key_signature, 0, "major"
9, 0, End_track
10, 0, Start_track
10, 0, Title_t, "Sequenced & copyright by T.L. Hubeart Jr."
10, 0, Control_c, 1, 0, 0
10, 0, Program_c, 1, 6
10, 0, Control_c, 1, 7, 100
10, 0, Key_signature, 0, "major"
10, 0, End_track
0, 0, End_of_file
