0, 0, Header, 0, 1, 384
1, 0, Start_track
1, 0, Copyright_t, "(C) John Sankey 1998"
1, 0, Program_c, 0, 6
1, 0, Pitch_bend_c, 0, 8192
1, 0, Program_c, 1, 6
1, 0, Pitch_bend_c, 1, 7792
1, 0, Program_c, 2, 6
1, 0, Pitch_bend_c, 2, 7876
1, 0, Program_c, 3, 6
1, 0, Pitch_bend_c, 3, 7952
1, 0, Program_c, 4, 6
1, 0, Pitch_bend_c, 4, 7792
1, 0, Program_c, 5, 6
1, 0, Pitch_bend_c, 5, 8112
1, 0, Program_c, 6, 6
1, 0, Pitch_bend_c, 6, 7712
1, 0, Program_c, 7, 6
1, 0, Pitch_bend_c, 7, 8037
1, 0, Program_c, 8, 6
1, 0, Pitch_bend_c, 8, 7872
1, 0, Program_c, 10, 6
1, 0, Pitch_bend_c, 10, 7712
1, 0, Program_c, 11, 6
1, 0, Pitch_bend_c, 11, 8032
1, 0, Program_c, 12, 6
1, 0, Pitch_bend_c, 12, 7872
1, 0, Tempo, 500000
1, 128, Note_on_c, 2, 62, 127
1, 446, Note_off_c, 2, 62, 127
1, 448, Note_on_c, 2, 62, 127
1, 448, Note_on_c, 7, 67, 127
1, 448, Note_on_c, 12, 59, 127
1, 448, Note_on_c, 7, 43, 127
1, 766, Note_off_c, 7, 43, 127
1, 766, Note_off_c, 12, 59, 127
1, 766, Note_off_c, 7, 67, 127
1, 766, Note_off_c, 2, 62, 127
1, 768, Note_on_c, 7, 67, 127
1, 768, Note_on_c, 2, 62, 127
1, 768, Note_on_c, 12, 59, 127
1, 768, Note_on_c, 7, 43, 127
1, 1086, Note_off_c, 7, 43, 127
1, 1086, Note_off_c, 12, 59, 127
1, 1086, Note_off_c, 2, 62, 127
1, 1086, Note_off_c, 7, 67, 127
1, 1088, Note_on_c, 12, 59, 127
1, 1088, Note_on_c, 2, 62, 127
1, 1088, Note_on_c, 7, 67, 127
1, 1088, Note_on_c, 7, 43, 127
1, 1406, Note_off_c, 7, 43, 127
1, 1406, Note_off_c, 7, 67, 127
1, 1406, Note_off_c, 2, 62, 127
1, 1406, Note_off_c, 12, 59, 127
1, 1408, Note_on_c, 2, 62, 127
1, 1408, Note_on_c, 12, 59, 127
1, 1408, Note_on_c, 7, 67, 127
1, 1408, Note_on_c, 2, 50, 127
1, 1408, Note_on_c, 7, 43, 127
1, 1726, Note_off_c, 7, 43, 127
1, 1726, Note_off_c, 2, 50, 127
1, 1726, Note_off_c, 7, 67, 127
1, 1726, Note_off_c, 12, 59, 127
1, 1726, Note_off_c, 2, 62, 127
1, 1728, Note_on_c, 7, 67, 127
1, 1728, Note_on_c, 12, 47, 127
1, 1728, Note_on_c, 7, 43, 127
1, 1728, Note_on_c, 2, 50, 127
1, 1728, Note_on_c, 7, 55, 127
1, 1888, Note_on_c, 2, 62, 127
1, 2046, Note_off_c, 2, 62, 127
1, 2046, Note_off_c, 7, 55, 127
1, 2046, Note_off_c, 2, 50, 127
1, 2046, Note_off_c, 7, 43, 127
1, 2046, Note_off_c, 12, 47, 127
1, 2048, Note_on_c, 12, 59, 127
1, 2048, Note_on_c, 7, 43, 127
1, 2048, Note_on_c, 2, 50, 127
1, 2048, Note_on_c, 12, 47, 127
1, 2048, Note_on_c, 7, 55, 127
1, 2206, Note_off_c, 12, 59, 127
1, 2208, Note_on_c, 2, 62, 127
1, 2361, Note_off_c, 7, 67, 127
1, 2366, Note_off_c, 2, 62, 127
1, 2366, Note_off_c, 7, 55, 127
1, 2366, Note_off_c, 12, 47, 127
1, 2366, Note_off_c, 2, 50, 127
1, 2366, Note_off_c, 7, 43, 127
1, 2368, Note_on_c, 7, 67, 127
1, 2368, Note_on_c, 12, 47, 127
1, 2368, Note_on_c, 7, 43, 127
1, 2368, Note_on_c, 2, 50, 127
1, 2368, Note_on_c, 7, 55, 127
1, 2528, Note_on_c, 2, 62, 127
1, 2686, Note_off_c, 2, 62, 127
1, 2686, Note_off_c, 7, 55, 127
1, 2686, Note_off_c, 2, 50, 127
1, 2686, Note_off_c, 7, 43, 127
1, 2686, Note_off_c, 12, 47, 127
1, 2688, Note_on_c, 12, 59, 127
1, 2688, Note_on_c, 2, 50, 127
1, 2688, Note_on_c, 12, 47, 127
1, 2688, Note_on_c, 7, 43, 127
1, 2688, Note_on_c, 7, 55, 127
1, 2846, Note_off_c, 12, 59, 127
1, 2848, Note_on_c, 2, 62, 127
1, 3001, Note_off_c, 7, 67, 127
1, 3006, Note_off_c, 2, 62, 127
1, 3006, Note_off_c, 7, 55, 127
1, 3006, Note_off_c, 7, 43, 127
1, 3006, Note_off_c, 12, 47, 127
1, 3006, Note_off_c, 2, 50, 127
1, 3008, Note_on_c, 12, 59, 127
1, 3008, Note_on_c, 7, 67, 127
1, 3008, Note_on_c, 2, 62, 127
1, 3008, Note_on_c, 7, 55, 127
1, 3008, Note_on_c, 7, 43, 127
1, 3166, Note_off_c, 7, 55, 127
1, 3168, Note_on_c, 2, 50, 127
1, 3325, Note_off_c, 7, 43, 127
1, 3327, Note_off_c, 2, 50, 127
1, 3327, Note_off_c, 2, 62, 127
1, 3327, Note_off_c, 7, 67, 127
1, 3327, Note_off_c, 12, 59, 127
1, 3329, Note_on_c, 7, 67, 127
1, 3329, Note_on_c, 2, 62, 127
1, 3329, Note_on_c, 12, 59, 127
1, 3329, Note_on_c, 12, 47, 127
1, 3487, Note_off_c, 12, 47, 127
1, 3489, Note_on_c, 2, 50, 127
1, 3647, Note_off_c, 2, 50, 127
1, 3647, Note_off_c, 12, 59, 127
1, 3647, Note_off_c, 2, 62, 127
1, 3647, Note_off_c, 7, 67, 127
1, 3649, Note_on_c, 12, 59, 127
1, 3649, Note_on_c, 7, 67, 127
1, 3649, Note_on_c, 2, 62, 127
1, 3649, Note_on_c, 7, 55, 127
1, 3809, Note_on_c, 2, 50, 127
1, 3966, Note_off_c, 7, 55, 127
1, 3968, Note_off_c, 2, 50, 127
1, 3968, Note_off_c, 2, 62, 127
1, 3968, Note_off_c, 7, 67, 127
1, 3968, Note_off_c, 12, 59, 127
1, 3970, Note_on_c, 2, 62, 127
1, 3970, Note_on_c, 12, 59, 127
1, 3970, Note_on_c, 7, 67, 127
1, 3970, Note_on_c, 12, 47, 127
1, 4128, Note_off_c, 12, 47, 127
1, 4130, Note_on_c, 2, 50, 127
1, 4288, Note_off_c, 2, 50, 127
1, 4288, Note_off_c, 7, 67, 127
1, 4288, Note_off_c, 12, 59, 127
1, 4288, Note_off_c, 2, 62, 127
1, 4290, Note_on_c, 7, 67, 127
1, 4290, Note_on_c, 12, 47, 127
1, 4290, Note_on_c, 7, 43, 127
1, 4290, Note_on_c, 2, 50, 127
1, 4290, Note_on_c, 7, 55, 127
1, 4450, Note_on_c, 2, 62, 127
1, 4608, Note_off_c, 2, 62, 127
1, 4608, Note_off_c, 7, 55, 127
1, 4608, Note_off_c, 2, 50, 127
1, 4608, Note_off_c, 7, 43, 127
1, 4608, Note_off_c, 12, 47, 127
1, 4610, Note_on_c, 12, 59, 127
1, 4610, Note_on_c, 7, 43, 127
1, 4610, Note_on_c, 2, 50, 127
1, 4610, Note_on_c, 12, 47, 127
1, 4610, Note_on_c, 7, 55, 127
1, 4768, Note_off_c, 12, 59, 127
1, 4770, Note_on_c, 2, 62, 127
1, 4923, Note_off_c, 7, 67, 127
1, 4928, Note_off_c, 2, 62, 127
1, 4928, Note_off_c, 7, 55, 127
1, 4928, Note_off_c, 12, 47, 127
1, 4928, Note_off_c, 2, 50, 127
1, 4928, Note_off_c, 7, 43, 127
1, 4930, Note_on_c, 7, 67, 127
1, 4930, Note_on_c, 12, 47, 127
1, 4930, Note_on_c, 7, 43, 127
1, 4930, Note_on_c, 2, 50, 127
1, 4930, Note_on_c, 7, 55, 127
1, 5090, Note_on_c, 2, 62, 127
1, 5248, Note_off_c, 2, 62, 127
1, 5248, Note_off_c, 7, 55, 127
1, 5248, Note_off_c, 2, 50, 127
1, 5248, Note_off_c, 7, 43, 127
1, 5248, Note_off_c, 12, 47, 127
1, 5250, Note_on_c, 12, 59, 127
1, 5250, Note_on_c, 12, 47, 127
1, 5250, Note_on_c, 7, 43, 127
1, 5250, Note_on_c, 7, 55, 127
1, 5250, Note_on_c, 2, 50, 127
1, 5408, Note_off_c, 12, 59, 127
1, 5410, Note_on_c, 2, 62, 127
1, 5563, Note_off_c, 7, 67, 127
1, 5568, Note_off_c, 2, 62, 127
1, 5568, Note_off_c, 2, 50, 127
1, 5568, Note_off_c, 7, 55, 127
1, 5568, Note_off_c, 7, 43, 127
1, 5568, Note_off_c, 12, 47, 127
1, 5570, Note_on_c, 12, 59, 127
1, 5570, Note_on_c, 7, 67, 127
1, 5570, Note_on_c, 7, 43, 127
1, 5648, Note_off_c, 7, 43, 127
1, 5650, Note_on_c, 2, 50, 127
1, 5728, Note_off_c, 2, 50, 127
1, 5730, Note_on_c, 4, 52, 127
1, 5808, Note_off_c, 4, 52, 127
1, 5810, Note_on_c, 6, 54, 127
1, 5888, Note_off_c, 6, 54, 127
1, 5888, Note_off_c, 7, 67, 127
1, 5888, Note_off_c, 12, 59, 127
1, 5890, Note_on_c, 10, 69, 127
1, 5890, Note_on_c, 0, 60, 127
1, 5890, Note_on_c, 7, 55, 127
1, 6048, Note_off_c, 7, 55, 127
1, 6048, Note_off_c, 0, 60, 127
1, 6048, Note_off_c, 10, 69, 127
1, 6050, Note_on_c, 12, 71, 127
1, 6050, Note_on_c, 2, 62, 127
1, 6050, Note_on_c, 4, 52, 127
1, 6208, Note_off_c, 4, 52, 127
1, 6208, Note_off_c, 2, 62, 127
1, 6208, Note_off_c, 12, 71, 127
1, 6210, Note_on_c, 0, 60, 127
1, 6210, Note_on_c, 10, 69, 127
1, 6210, Note_on_c, 0, 48, 127
1, 6368, Note_off_c, 0, 48, 127
1, 6370, Note_on_c, 2, 50, 127
1, 6528, Note_off_c, 2, 50, 127
1, 6528, Note_off_c, 10, 69, 127
1, 6528, Note_off_c, 0, 60, 127
1, 6530, Note_on_c, 12, 59, 127
1, 6530, Note_on_c, 7, 67, 127
1, 6530, Note_on_c, 4, 52, 127
1, 6688, Note_off_c, 4, 52, 127
1, 6690, Note_on_c, 0, 48, 127
1, 6848, Note_off_c, 0, 48, 127
1, 6848, Note_off_c, 7, 67, 127
1, 6848, Note_off_c, 12, 59, 127
1, 6850, Note_on_c, 10, 57, 127
1, 6850, Note_on_c, 6, 66, 127
1, 6850, Note_on_c, 2, 50, 127
1, 7008, Note_off_c, 2, 50, 127
1, 7010, Note_on_c, 6, 54, 127
1, 7168, Note_off_c, 6, 54, 127
1, 7168, Note_off_c, 6, 66, 127
1, 7168, Note_off_c, 10, 57, 127
1, 7170, Note_on_c, 2, 62, 127
1, 7170, Note_on_c, 6, 54, 127
1, 7170, Note_on_c, 10, 57, 127
1, 7320, Note_off_c, 6, 54, 127
1, 7330, Note_on_c, 6, 54, 127
1, 7488, Note_off_c, 6, 54, 127
1, 7490, Note_on_c, 2, 50, 127
1, 7637, Note_off_c, 10, 57, 127
1, 7637, Note_off_c, 2, 62, 127
1, 7649, Note_off_c, 2, 50, 127
1, 7651, Note_on_c, 6, 54, 127
1, 7809, Note_off_c, 6, 54, 127
1, 7811, Note_on_c, 10, 69, 127
1, 7811, Note_on_c, 10, 57, 127
1, 7969, Note_off_c, 10, 57, 127
1, 7971, Note_on_c, 6, 54, 127
1, 8129, Note_off_c, 6, 54, 127
1, 8129, Note_off_c, 10, 69, 127
1, 8131, Note_on_c, 6, 66, 127
1, 8131, Note_on_c, 2, 74, 127
1, 8131, Note_on_c, 10, 69, 127
1, 8131, Note_on_c, 2, 50, 127
1, 8449, Note_off_c, 2, 50, 127
1, 8449, Note_off_c, 10, 69, 127
1, 8449, Note_off_c, 2, 74, 127
1, 8449, Note_off_c, 6, 66, 127
1, 8451, Note_on_c, 6, 66, 127
1, 8451, Note_on_c, 2, 74, 127
1, 8451, Note_on_c, 10, 69, 127
1, 8451, Note_on_c, 2, 50, 127
1, 8769, Note_off_c, 2, 50, 127
1, 8769, Note_off_c, 10, 69, 127
1, 8769, Note_off_c, 2, 74, 127
1, 8769, Note_off_c, 6, 66, 127
1, 8771, Note_on_c, 2, 74, 127
1, 8771, Note_on_c, 10, 69, 127
1, 8771, Note_on_c, 6, 66, 127
1, 8771, Note_on_c, 2, 50, 127
1, 9089, Note_off_c, 2, 50, 127
1, 9089, Note_off_c, 6, 66, 127
1, 9089, Note_off_c, 10, 69, 127
1, 9089, Note_off_c, 2, 74, 127
1, 9091, Note_on_c, 2, 74, 127
1, 9091, Note_on_c, 6, 66, 127
1, 9091, Note_on_c, 10, 69, 127
1, 9091, Note_on_c, 10, 57, 127
1, 9091, Note_on_c, 2, 50, 127
1, 9409, Note_off_c, 2, 50, 127
1, 9409, Note_off_c, 10, 57, 127
1, 9409, Note_off_c, 2, 74, 127
1, 9411, Note_on_c, 2, 74, 127
1, 9411, Note_on_c, 2, 50, 127
1, 9411, Note_on_c, 2, 62, 127
1, 9411, Note_on_c, 10, 57, 127
1, 9411, Note_on_c, 6, 54, 127
1, 9558, Note_off_c, 10, 69, 127
1, 9571, Note_on_c, 10, 69, 127
1, 9724, Note_off_c, 6, 66, 127
1, 9729, Note_off_c, 6, 54, 127
1, 9729, Note_off_c, 10, 57, 127
1, 9729, Note_off_c, 2, 62, 127
1, 9729, Note_off_c, 2, 50, 127
1, 9731, Note_on_c, 6, 66, 127
1, 9731, Note_on_c, 2, 50, 127
1, 9731, Note_on_c, 2, 62, 127
1, 9731, Note_on_c, 10, 57, 127
1, 9731, Note_on_c, 6, 54, 127
1, 9888, Note_off_c, 10, 69, 127
1, 9891, Note_on_c, 10, 69, 127
1, 10044, Note_off_c, 2, 74, 127
1, 10049, Note_off_c, 6, 54, 127
1, 10049, Note_off_c, 10, 57, 127
1, 10049, Note_off_c, 2, 62, 127
1, 10049, Note_off_c, 2, 50, 127
1, 10051, Note_on_c, 2, 74, 127
1, 10051, Note_on_c, 6, 54, 127
1, 10051, Note_on_c, 2, 50, 127
1, 10051, Note_on_c, 2, 62, 127
1, 10051, Note_on_c, 10, 57, 127
1, 10208, Note_off_c, 10, 69, 127
1, 10211, Note_on_c, 10, 69, 127
1, 10364, Note_off_c, 6, 66, 127
1, 10369, Note_off_c, 10, 57, 127
1, 10369, Note_off_c, 2, 62, 127
1, 10369, Note_off_c, 2, 50, 127
1, 10369, Note_off_c, 6, 54, 127
1, 10371, Note_on_c, 6, 66, 127
1, 10371, Note_on_c, 10, 57, 127
1, 10371, Note_on_c, 6, 54, 127
1, 10371, Note_on_c, 2, 50, 127
1, 10371, Note_on_c, 2, 62, 127
1, 10528, Note_off_c, 10, 69, 127
1, 10531, Note_on_c, 10, 69, 127
1, 10684, Note_off_c, 2, 74, 127
1, 10687, Note_off_c, 6, 66, 127
1, 10689, Note_off_c, 10, 69, 127
1, 10689, Note_off_c, 2, 62, 127
1, 10689, Note_off_c, 2, 50, 127
1, 10689, Note_off_c, 6, 54, 127
1, 10689, Note_off_c, 10, 57, 127
1, 10691, Note_on_c, 2, 74, 127
1, 10691, Note_on_c, 10, 69, 127
1, 10691, Note_on_c, 6, 66, 127
1, 10691, Note_on_c, 2, 50, 127
1, 10691, Note_on_c, 2, 62, 127
1, 10849, Note_off_c, 2, 62, 127
1, 10851, Note_on_c, 10, 57, 127
1, 11009, Note_off_c, 10, 57, 127
1, 11009, Note_off_c, 6, 66, 127
1, 11009, Note_off_c, 10, 69, 127
1, 11009, Note_off_c, 2, 74, 127
1, 11011, Note_on_c, 2, 74, 127
1, 11011, Note_on_c, 10, 69, 127
1, 11011, Note_on_c, 6, 66, 127
1, 11011, Note_on_c, 6, 54, 127
1, 11169, Note_off_c, 6, 54, 127
1, 11171, Note_on_c, 10, 57, 127
1, 11329, Note_off_c, 10, 57, 127
1, 11329, Note_off_c, 6, 66, 127
1, 11329, Note_off_c, 10, 69, 127
1, 11329, Note_off_c, 2, 74, 127
1, 11331, Note_on_c, 2, 74, 127
1, 11331, Note_on_c, 10, 69, 127
1, 11331, Note_on_c, 6, 66, 127
1, 11331, Note_on_c, 2, 62, 127
1, 11489, Note_off_c, 2, 62, 127
1, 11491, Note_on_c, 10, 57, 127
1, 11649, Note_off_c, 10, 57, 127
1, 11649, Note_off_c, 6, 66, 127
1, 11649, Note_off_c, 10, 69, 127
1, 11649, Note_off_c, 2, 74, 127
1, 11651, Note_on_c, 2, 74, 127
1, 11651, Note_on_c, 10, 69, 127
1, 11651, Note_on_c, 6, 66, 127
1, 11651, Note_on_c, 6, 54, 127
1, 11809, Note_off_c, 6, 54, 127
1, 11811, Note_on_c, 10, 57, 127
1, 11968, Note_off_c, 2, 50, 127
1, 11970, Note_off_c, 10, 57, 127
1, 11970, Note_off_c, 2, 74, 127
1, 11972, Note_on_c, 2, 74, 127
1, 11972, Note_on_c, 6, 54, 127
1, 11972, Note_on_c, 2, 50, 127
1, 11972, Note_on_c, 2, 62, 127
1, 11972, Note_on_c, 10, 57, 127
1, 12119, Note_off_c, 10, 69, 127
1, 12132, Note_on_c, 10, 69, 127
1, 12285, Note_off_c, 6, 66, 127
1, 12290, Note_off_c, 10, 57, 127
1, 12290, Note_off_c, 2, 62, 127
1, 12290, Note_off_c, 2, 50, 127
1, 12290, Note_off_c, 6, 54, 127
1, 12292, Note_on_c, 6, 66, 127
1, 12292, Note_on_c, 10, 57, 127
1, 12292, Note_on_c, 6, 54, 127
1, 12292, Note_on_c, 2, 50, 127
1, 12292, Note_on_c, 2, 62, 127
1, 12449, Note_off_c, 10, 69, 127
1, 12452, Note_on_c, 10, 69, 127
1, 12605, Note_off_c, 2, 74, 127
1, 12610, Note_off_c, 2, 62, 127
1, 12610, Note_off_c, 2, 50, 127
1, 12610, Note_off_c, 6, 54, 127
1, 12610, Note_off_c, 10, 57, 127
1, 12612, Note_on_c, 2, 74, 127
1, 12612, Note_on_c, 2, 50, 127
1, 12612, Note_on_c, 2, 62, 127
1, 12612, Note_on_c, 10, 57, 127
1, 12612, Note_on_c, 6, 54, 127
1, 12769, Note_off_c, 10, 69, 127
1, 12772, Note_on_c, 10, 69, 127
1, 12925, Note_off_c, 6, 66, 127
1, 12930, Note_off_c, 6, 54, 127
1, 12930, Note_off_c, 10, 57, 127
1, 12930, Note_off_c, 2, 62, 127
1, 12930, Note_off_c, 2, 50, 127
1, 12932, Note_on_c, 6, 66, 127
1, 12932, Note_on_c, 6, 54, 127
1, 12932, Note_on_c, 2, 50, 127
1, 12932, Note_on_c, 2, 62, 127
1, 12932, Note_on_c, 10, 57, 127
1, 13089, Note_off_c, 10, 69, 127
1, 13092, Note_on_c, 10, 69, 127
1, 13245, Note_off_c, 2, 74, 127
1, 13248, Note_off_c, 6, 66, 127
1, 13250, Note_off_c, 10, 69, 127
1, 13250, Note_off_c, 10, 57, 127
1, 13250, Note_off_c, 2, 62, 127
1, 13250, Note_off_c, 2, 50, 127
1, 13250, Note_off_c, 6, 54, 127
1, 13252, Note_on_c, 6, 66, 127
1, 13252, Note_on_c, 2, 74, 127
1, 13252, Note_on_c, 2, 50, 127
1, 13330, Note_off_c, 2, 50, 127
1, 13332, Note_on_c, 6, 54, 127
1, 13410, Note_off_c, 6, 54, 127
1, 13412, Note_on_c, 10, 57, 127
1, 13490, Note_off_c, 10, 57, 127
1, 13492, Note_on_c, 1, 61, 127
1, 13570, Note_off_c, 1, 61, 127
1, 13570, Note_off_c, 2, 74, 127
1, 13570, Note_off_c, 6, 66, 127
1, 13572, Note_on_c, 4, 76, 127
1, 13572, Note_on_c, 7, 67, 127
1, 13572, Note_on_c, 2, 62, 127
1, 13730, Note_off_c, 2, 62, 127
1, 13730, Note_off_c, 7, 67, 127
1, 13730, Note_off_c, 4, 76, 127
1, 13732, Note_on_c, 6, 78, 127
1, 13732, Note_on_c, 10, 69, 127
1, 13732, Note_on_c, 12, 59, 127
1, 13890, Note_off_c, 12, 59, 127
1, 13890, Note_off_c, 10, 69, 127
1, 13890, Note_off_c, 6, 78, 127
1, 13892, Note_on_c, 4, 76, 127
1, 13892, Note_on_c, 7, 67, 127
1, 13892, Note_on_c, 7, 55, 127
1, 14050, Note_off_c, 7, 55, 127
1, 14052, Note_on_c, 10, 57, 127
1, 14210, Note_off_c, 10, 57, 127
1, 14210, Note_off_c, 7, 67, 127
1, 14210, Note_off_c, 4, 76, 127
1, 14212, Note_on_c, 6, 66, 127
1, 14212, Note_on_c, 2, 74, 127
1, 14212, Note_on_c, 12, 59, 127
1, 14370, Note_off_c, 12, 59, 127
1, 14372, Note_on_c, 7, 55, 127
1, 14530, Note_off_c, 7, 55, 127
1, 14530, Note_off_c, 2, 74, 127
1, 14530, Note_off_c, 6, 66, 127
1, 14532, Note_on_c, 4, 64, 127
1, 14532, Note_on_c, 1, 73, 127
1, 14532, Note_on_c, 10, 57, 127
1, 14690, Note_off_c, 10, 57, 127
1, 14692, Note_on_c, 1, 61, 127
1, 14850, Note_off_c, 1, 61, 127
1, 14850, Note_off_c, 1, 73, 127
1, 14850, Note_off_c, 4, 64, 127
1, 14852, Note_on_c, 10, 69, 127
1, 14852, Note_on_c, 4, 64, 127
1, 15012, Note_on_c, 1, 61, 127
1, 15170, Note_off_c, 1, 61, 127
1, 15172, Note_on_c, 10, 57, 127
1, 15319, Note_off_c, 4, 64, 127
1, 15319, Note_off_c, 10, 69, 127
1, 15331, Note_off_c, 10, 57, 127
1, 15333, Note_on_c, 1, 61, 127
1, 15491, Note_off_c, 1, 61, 127
1, 15493, Note_on_c, 10, 69, 127
1, 15493, Note_on_c, 10, 57, 127
1, 15493, Note_on_c, 7, 55, 127
1, 15651, Note_off_c, 7, 55, 127
1, 15653, Note_on_c, 1, 61, 127
1, 15810, Note_off_c, 10, 57, 127
1, 15812, Note_off_c, 1, 61, 127
1, 15812, Note_off_c, 10, 69, 127
1, 15814, Note_on_c, 2, 74, 127
1, 15814, Note_on_c, 6, 54, 127
1, 15814, Note_on_c, 10, 57, 127
1, 15972, Note_off_c, 2, 74, 127
1, 15974, Note_on_c, 10, 69, 127
1, 16132, Note_off_c, 10, 57, 127
1, 16132, Note_off_c, 6, 54, 127
1, 16134, Note_on_c, 6, 66, 127
1, 16134, Note_on_c, 6, 54, 127
1, 16134, Note_on_c, 2, 62, 127
1, 16291, Note_off_c, 10, 69, 127
1, 16293, Note_off_c, 6, 66, 127
1, 16295, Note_on_c, 10, 69, 127
1, 16453, Note_off_c, 6, 54, 127
1, 16455, Note_on_c, 2, 74, 127
1, 16455, Note_on_c, 6, 54, 127
1, 16535, Note_off_c, 2, 62, 127
1, 16612, Note_off_c, 10, 69, 127
1, 16614, Note_off_c, 2, 74, 127
1, 16616, Note_on_c, 10, 69, 127
1, 16774, Note_off_c, 6, 54, 127
1, 16776, Note_on_c, 6, 66, 127
1, 16776, Note_on_c, 10, 57, 127
1, 16776, Note_on_c, 6, 54, 127
1, 16933, Note_off_c, 10, 69, 127
1, 16935, Note_off_c, 6, 66, 127
1, 16937, Note_on_c, 10, 69, 127
1, 17095, Note_off_c, 10, 69, 127
1, 17095, Note_off_c, 6, 54, 127
1, 17095, Note_off_c, 10, 57, 127
1, 17097, Note_on_c, 2, 74, 127
1, 17097, Note_on_c, 12, 59, 127
1, 17097, Note_on_c, 7, 55, 127
1, 17255, Note_off_c, 2, 74, 127
1, 17257, Note_on_c, 12, 71, 127
1, 17415, Note_off_c, 7, 55, 127
1, 17415, Note_off_c, 12, 59, 127
1, 17417, Note_on_c, 7, 67, 127
1, 17417, Note_on_c, 2, 62, 127
1, 17417, Note_on_c, 7, 55, 127
1, 17574, Note_off_c, 12, 71, 127
1, 17576, Note_off_c, 7, 67, 127
1, 17578, Note_on_c, 12, 71, 127
1, 17736, Note_off_c, 7, 55, 127
1, 17738, Note_on_c, 2, 74, 127
1, 17738, Note_on_c, 7, 55, 127
1, 17818, Note_off_c, 2, 62, 127
1, 17895, Note_off_c, 12, 71, 127
1, 17897, Note_off_c, 2, 74, 127
1, 17899, Note_on_c, 12, 71, 127
1, 18057, Note_off_c, 7, 55, 127
1, 18059, Note_on_c, 7, 67, 127
1, 18059, Note_on_c, 7, 55, 127
1, 18059, Note_on_c, 12, 59, 127
1, 18216, Note_off_c, 12, 71, 127
1, 18218, Note_off_c, 7, 67, 127
1, 18220, Note_on_c, 12, 71, 127
1, 18378, Note_off_c, 12, 59, 127
1, 18378, Note_off_c, 7, 55, 127
1, 18380, Note_on_c, 4, 76, 127
1, 18380, Note_on_c, 7, 55, 127
1, 18380, Note_on_c, 12, 59, 127
1, 18537, Note_off_c, 12, 71, 127
1, 18539, Note_off_c, 4, 76, 127
1, 18541, Note_on_c, 12, 71, 127
1, 18699, Note_off_c, 12, 59, 127
1, 18699, Note_off_c, 7, 55, 127
1, 18701, Note_on_c, 7, 67, 127
1, 18701, Note_on_c, 4, 64, 127
1, 18701, Note_on_c, 7, 55, 127
1, 18858, Note_off_c, 12, 71, 127
1, 18860, Note_off_c, 7, 67, 127
1, 18862, Note_on_c, 12, 71, 127
1, 19020, Note_off_c, 7, 55, 127
1, 19022, Note_on_c, 4, 76, 127
1, 19022, Note_on_c, 7, 55, 127
1, 19102, Note_off_c, 4, 64, 127
1, 19179, Note_off_c, 12, 71, 127
1, 19181, Note_off_c, 4, 76, 127
1, 19183, Note_on_c, 12, 71, 127
1, 19341, Note_off_c, 7, 55, 127
1, 19343, Note_on_c, 7, 67, 127
1, 19343, Note_on_c, 7, 55, 127
1, 19343, Note_on_c, 12, 59, 127
1, 19500, Note_off_c, 12, 71, 127
1, 19502, Note_off_c, 7, 67, 127
1, 19504, Note_on_c, 12, 71, 127
1, 19662, Note_off_c, 12, 71, 127
1, 19662, Note_off_c, 12, 59, 127
1, 19662, Note_off_c, 7, 55, 127
1, 19664, Note_on_c, 4, 76, 127
1, 19664, Note_on_c, 1, 61, 127
1, 19664, Note_on_c, 10, 57, 127
1, 19822, Note_off_c, 4, 76, 127
1, 19824, Note_on_c, 1, 73, 127
1, 19982, Note_off_c, 10, 57, 127
1, 19982, Note_off_c, 1, 61, 127
1, 19984, Note_on_c, 10, 69, 127
1, 19984, Note_on_c, 4, 64, 127
1, 19984, Note_on_c, 10, 57, 127
1, 20141, Note_off_c, 1, 73, 127
1, 20143, Note_off_c, 10, 69, 127
1, 20145, Note_on_c, 1, 73, 127
1, 20303, Note_off_c, 10, 57, 127
1, 20305, Note_on_c, 4, 76, 127
1, 20305, Note_on_c, 10, 57, 127
1, 20385, Note_off_c, 4, 64, 127
1, 20462, Note_off_c, 1, 73, 127
1, 20464, Note_off_c, 4, 76, 127
1, 20466, Note_on_c, 1, 73, 127
1, 20624, Note_off_c, 10, 57, 127
1, 20626, Note_on_c, 10, 69, 127
1, 20626, Note_on_c, 1, 61, 127
1, 20626, Note_on_c, 10, 57, 127
1, 20783, Note_off_c, 1, 73, 127
1, 20785, Note_off_c, 10, 69, 127
1, 20787, Note_on_c, 1, 73, 127
1, 20945, Note_off_c, 10, 57, 127
1, 20945, Note_off_c, 1, 61, 127
1, 20947, Note_on_c, 6, 78, 127
1, 20947, Note_on_c, 10, 57, 127
1, 20947, Note_on_c, 1, 61, 127
1, 21104, Note_off_c, 1, 73, 127
1, 21106, Note_off_c, 6, 78, 127
1, 21108, Note_on_c, 1, 73, 127
1, 21266, Note_off_c, 1, 61, 127
1, 21266, Note_off_c, 10, 57, 127
1, 21268, Note_on_c, 10, 69, 127
1, 21268, Note_on_c, 6, 66, 127
1, 21268, Note_on_c, 10, 57, 127
1, 21425, Note_off_c, 1, 73, 127
1, 21427, Note_off_c, 10, 69, 127
1, 21429, Note_on_c, 1, 73, 127
1, 21587, Note_off_c, 10, 57, 127
1, 21589, Note_on_c, 6, 78, 127
1, 21589, Note_on_c, 10, 57, 127
1, 21669, Note_off_c, 6, 66, 127
1, 21746, Note_off_c, 1, 73, 127
1, 21748, Note_off_c, 6, 78, 127
1, 21750, Note_on_c, 1, 73, 127
1, 21908, Note_off_c, 10, 57, 127
1, 21910, Note_on_c, 10, 69, 127
1, 21910, Note_on_c, 1, 61, 127
1, 21910, Note_on_c, 10, 57, 127
1, 22067, Note_off_c, 1, 73, 127
1, 22069, Note_off_c, 10, 69, 127
1, 22071, Note_on_c, 1, 73, 127
1, 22229, Note_off_c, 1, 73, 127
1, 22229, Note_off_c, 10, 57, 127
1, 22229, Note_off_c, 1, 61, 127
1, 22231, Note_on_c, 6, 78, 127
1, 22231, Note_on_c, 2, 62, 127
1, 22231, Note_on_c, 12, 59, 127
1, 22389, Note_off_c, 6, 78, 127
1, 22391, Note_on_c, 2, 74, 127
1, 22549, Note_off_c, 12, 59, 127
1, 22549, Note_off_c, 2, 62, 127
1, 22551, Note_on_c, 12, 71, 127
1, 22551, Note_on_c, 6, 66, 127
1, 22551, Note_on_c, 12, 59, 127
1, 22708, Note_off_c, 2, 74, 127
1, 22710, Note_off_c, 12, 71, 127
1, 22712, Note_on_c, 2, 74, 127
1, 22870, Note_off_c, 12, 59, 127
1, 22872, Note_on_c, 6, 78, 127
1, 22872, Note_on_c, 12, 59, 127
1, 22952, Note_off_c, 6, 66, 127
1, 23029, Note_off_c, 2, 74, 127
1, 23031, Note_off_c, 6, 78, 127
1, 23033, Note_on_c, 2, 74, 127
1, 23191, Note_off_c, 12, 59, 127
1, 23193, Note_on_c, 12, 71, 127
1, 23193, Note_on_c, 12, 59, 127
1, 23193, Note_on_c, 2, 62, 127
1, 23350, Note_off_c, 2, 74, 127
1, 23352, Note_off_c, 12, 71, 127
1, 23354, Note_on_c, 2, 74, 127
1, 23512, Note_off_c, 2, 74, 127
1, 23512, Note_off_c, 2, 62, 127
1, 23512, Note_off_c, 12, 59, 127
1, 23514, Note_on_c, 7, 79, 127
1, 23514, Note_on_c, 2, 62, 127
1, 23514, Note_on_c, 12, 59, 127
1, 23674, Note_on_c, 2, 74, 127
1, 23832, Note_off_c, 2, 74, 127
1, 23832, Note_off_c, 12, 59, 127
1, 23832, Note_off_c, 2, 62, 127
1, 23834, Note_on_c, 12, 71, 127
1, 23834, Note_on_c, 7, 67, 127
1, 23834, Note_on_c, 12, 59, 127
1, 23992, Note_off_c, 12, 71, 127
1, 23994, Note_on_c, 2, 74, 127
1, 24147, Note_off_c, 7, 79, 127
1, 24152, Note_off_c, 2, 74, 127
1, 24152, Note_off_c, 12, 59, 127
1, 24154, Note_on_c, 7, 79, 127
1, 24154, Note_on_c, 12, 59, 127
1, 24314, Note_on_c, 2, 74, 127
1, 24467, Note_off_c, 7, 67, 127
1, 24472, Note_off_c, 2, 74, 127
1, 24472, Note_off_c, 12, 59, 127
1, 24474, Note_on_c, 12, 71, 127
1, 24474, Note_on_c, 2, 62, 127
1, 24474, Note_on_c, 12, 59, 127
1, 24474, Note_on_c, 7, 67, 127
1, 24621, Note_off_c, 7, 79, 127
1, 24633, Note_off_c, 12, 71, 127
1, 24635, Note_on_c, 2, 74, 127
1, 24793, Note_off_c, 2, 74, 127
1, 24793, Note_off_c, 7, 67, 127
1, 24793, Note_off_c, 12, 59, 127
1, 24793, Note_off_c, 2, 62, 127
1, 24795, Note_on_c, 1, 73, 127
1, 24795, Note_on_c, 10, 57, 127
1, 24873, Note_off_c, 10, 57, 127
1, 24875, Note_on_c, 12, 59, 127
1, 24953, Note_off_c, 12, 59, 127
1, 24955, Note_on_c, 1, 61, 127
1, 25033, Note_off_c, 1, 61, 127
1, 25035, Note_on_c, 2, 62, 127
1, 25113, Note_off_c, 2, 62, 127
1, 25113, Note_off_c, 1, 73, 127
1, 25115, Note_on_c, 10, 69, 127
1, 25115, Note_on_c, 4, 64, 127
1, 25273, Note_off_c, 4, 64, 127
1, 25275, Note_on_c, 7, 55, 127
1, 25433, Note_off_c, 7, 55, 127
1, 25433, Note_off_c, 10, 69, 127
1, 25435, Note_on_c, 2, 74, 127
1, 25435, Note_on_c, 6, 54, 127
1, 25593, Note_off_c, 6, 54, 127
1, 25595, Note_on_c, 10, 57, 127
1, 25753, Note_off_c, 10, 57, 127
1, 25755, Note_on_c, 6, 66, 127
1, 25755, Note_on_c, 2, 50, 127
1, 25913, Note_off_c, 2, 50, 127
1, 25915, Note_on_c, 6, 54, 127
1, 26073, Note_off_c, 6, 54, 127
1, 26073, Note_off_c, 6, 66, 127
1, 26075, Note_on_c, 7, 67, 127
1, 26075, Note_on_c, 4, 52, 127
1, 26233, Note_off_c, 4, 52, 127
1, 26235, Note_on_c, 12, 59, 127
1, 26393, Note_off_c, 12, 59, 127
1, 26393, Note_off_c, 2, 74, 127
1, 26395, Note_on_c, 2, 74, 127
1, 26395, Note_on_c, 7, 55, 127
1, 26553, Note_off_c, 7, 55, 127
1, 26555, Note_on_c, 4, 52, 127
1, 26708, Note_off_c, 7, 67, 127
1, 26713, Note_off_c, 4, 52, 127
1, 26715, Note_on_c, 10, 69, 127
1, 26715, Note_on_c, 10, 57, 127
1, 26873, Note_off_c, 10, 57, 127
1, 26875, Note_on_c, 4, 52, 127
1, 27028, Note_off_c, 2, 74, 127
1, 27033, Note_off_c, 4, 52, 127
1, 27033, Note_off_c, 10, 69, 127
1, 27035, Note_on_c, 1, 73, 127
1, 27035, Note_on_c, 10, 45, 127
1, 27195, Note_on_c, 7, 55, 127
1, 27275, Note_off_c, 10, 45, 127
1, 27353, Note_off_c, 7, 55, 127
1, 27353, Note_off_c, 1, 73, 127
1, 27355, Note_on_c, 2, 74, 127
1, 27355, Note_on_c, 6, 54, 127
1, 27355, Note_on_c, 2, 50, 127
1, 27513, Note_off_c, 6, 54, 127
1, 27515, Note_on_c, 10, 57, 127
1, 27673, Note_off_c, 10, 57, 127
1, 27675, Note_on_c, 2, 62, 127
1, 27833, Note_off_c, 2, 62, 127
1, 27835, Note_off_c, 2, 50, 127
1, 27835, Note_on_c, 10, 57, 127
1, 27988, Note_off_c, 2, 74, 127
1, 27993, Note_off_c, 10, 57, 127
1, 27995, Note_on_c, 6, 54, 127
1, 28153, Note_off_c, 6, 54, 127
1, 28155, Note_on_c, 10, 57, 127
1, 28313, Note_off_c, 10, 57, 127
1, 28315, Note_on_c, 2, 74, 127
1, 28315, Note_on_c, 0, 48, 127
1, 28475, Note_on_c, 6, 54, 127
1, 28555, Note_off_c, 0, 48, 127
1, 28633, Note_off_c, 6, 54, 127
1, 28633, Note_off_c, 2, 74, 127
1, 28635, Note_on_c, 2, 74, 127
1, 28635, Note_on_c, 7, 55, 127
1, 28635, Note_on_c, 12, 47, 127
1, 28793, Note_off_c, 7, 55, 127
1, 28795, Note_on_c, 10, 57, 127
1, 28952, Note_off_c, 12, 47, 127
1, 28954, Note_off_c, 10, 57, 127
1, 28954, Note_off_c, 2, 74, 127
1, 28956, Note_on_c, 7, 67, 127
1, 28956, Note_on_c, 12, 59, 127
1, 29114, Note_off_c, 12, 59, 127
1, 29116, Note_on_c, 0, 60, 127
1, 29274, Note_off_c, 0, 60, 127
1, 29276, Note_on_c, 2, 62, 127
1, 29423, Note_off_c, 7, 67, 127
1, 29435, Note_off_c, 2, 62, 127
1, 29437, Note_on_c, 12, 59, 127
1, 29595, Note_off_c, 12, 59, 127
1, 29597, Note_on_c, 5, 77, 127
1, 29597, Note_on_c, 7, 55, 127
1, 29755, Note_off_c, 7, 55, 127
1, 29757, Note_on_c, 12, 59, 127
1, 29915, Note_off_c, 12, 59, 127
1, 29915, Note_off_c, 5, 77, 127
1, 29917, Note_on_c, 7, 79, 127
1, 29917, Note_on_c, 0, 48, 127
1, 29967, Note_off_c, 7, 79, 127
1, 29970, Note_on_c, 5, 77, 127
1, 29995, Note_off_c, 0, 48, 127
1, 29997, Note_on_c, 7, 55, 127
1, 30020, Note_off_c, 5, 77, 127
1, 30023, Note_on_c, 7, 79, 127
1, 30073, Note_off_c, 7, 79, 127
1, 30075, Note_off_c, 7, 55, 127
1, 30077, Note_on_c, 5, 77, 127
1, 30077, Note_on_c, 10, 57, 127
1, 30155, Note_off_c, 10, 57, 127
1, 30157, Note_on_c, 12, 59, 127
1, 30235, Note_off_c, 12, 59, 127
1, 30235, Note_off_c, 5, 77, 127
1, 30237, Note_on_c, 4, 76, 127
1, 30237, Note_on_c, 0, 60, 127
1, 30395, Note_off_c, 0, 60, 127
1, 30397, Note_on_c, 7, 55, 127
1, 30555, Note_off_c, 7, 55, 127
1, 30557, Note_on_c, 4, 52, 127
1, 30704, Note_off_c, 4, 76, 127
1, 30716, Note_off_c, 4, 52, 127
1, 30718, Note_on_c, 7, 55, 127
1, 30876, Note_off_c, 7, 55, 127
1, 30878, Note_on_c, 4, 76, 127
1, 30878, Note_on_c, 0, 48, 127
1, 31036, Note_off_c, 0, 48, 127
1, 31038, Note_on_c, 7, 55, 127
1, 31196, Note_off_c, 7, 55, 127
1, 31196, Note_off_c, 4, 76, 127
1, 31198, Note_on_c, 4, 76, 127
1, 31198, Note_on_c, 10, 57, 127
1, 31198, Note_on_c, 1, 49, 127
1, 31356, Note_off_c, 10, 57, 127
1, 31358, Note_on_c, 12, 59, 127
1, 31515, Note_off_c, 1, 49, 127
1, 31517, Note_off_c, 12, 59, 127
1, 31517, Note_off_c, 4, 76, 127
1, 31519, Note_on_c, 10, 69, 127
1, 31519, Note_on_c, 1, 61, 127
1, 31677, Note_off_c, 1, 61, 127
1, 31679, Note_on_c, 2, 62, 127
1, 31837, Note_off_c, 2, 62, 127
1, 31839, Note_on_c, 4, 64, 127
1, 31986, Note_off_c, 10, 69, 127
1, 31998, Note_off_c, 4, 64, 127
1, 32000, Note_on_c, 1, 61, 127
1, 32158, Note_off_c, 1, 61, 127
1, 32160, Note_on_c, 7, 79, 127
1, 32160, Note_on_c, 10, 57, 127
1, 32318, Note_off_c, 10, 57, 127
1, 32320, Note_on_c, 1, 61, 127
1, 32478, Note_off_c, 1, 61, 127
1, 32478, Note_off_c, 7, 79, 127
1, 32480, Note_on_c, 10, 81, 127
1, 32480, Note_on_c, 2, 50, 127
1, 32530, Note_off_c, 10, 81, 127
1, 32533, Note_on_c, 7, 79, 127
1, 32558, Note_off_c, 2, 50, 127
1, 32560, Note_on_c, 10, 57, 127
1, 32583, Note_off_c, 7, 79, 127
1, 32586, Note_on_c, 10, 81, 127
1, 32636, Note_off_c, 10, 81, 127
1, 32638, Note_off_c, 10, 57, 127
1, 32640, Note_on_c, 7, 79, 127
1, 32640, Note_on_c, 12, 59, 127
1, 32718, Note_off_c, 12, 59, 127
1, 32720, Note_on_c, 1, 61, 127
1, 32798, Note_off_c, 1, 61, 127
1, 32798, Note_off_c, 7, 79, 127
1, 32800, Note_on_c, 6, 78, 127
1, 32800, Note_on_c, 2, 62, 127
1, 32958, Note_off_c, 2, 62, 127
1, 32960, Note_on_c, 10, 57, 127
1, 33118, Note_off_c, 10, 57, 127
1, 33120, Note_on_c, 6, 54, 127
1, 33267, Note_off_c, 6, 78, 127
1, 33279, Note_off_c, 6, 54, 127
1, 33281, Note_on_c, 10, 57, 127
1, 33439, Note_off_c, 10, 57, 127
1, 33441, Note_on_c, 2, 74, 127
1, 33441, Note_on_c, 0, 48, 127
1, 33601, Note_on_c, 6, 54, 127
1, 33681, Note_off_c, 0, 48, 127
1, 33759, Note_off_c, 6, 54, 127
1, 33759, Note_off_c, 2, 74, 127
1, 33761, Note_on_c, 2, 74, 127
1, 33761, Note_on_c, 12, 47, 127
1, 33761, Note_on_c, 7, 55, 127
1, 33919, Note_off_c, 7, 55, 127
1, 33921, Note_on_c, 10, 57, 127
1, 34078, Note_off_c, 12, 47, 127
1, 34080, Note_off_c, 10, 57, 127
1, 34080, Note_off_c, 2, 74, 127
1, 34082, Note_on_c, 7, 67, 127
1, 34082, Note_on_c, 12, 59, 127
1, 34240, Note_off_c, 12, 59, 127
1, 34242, Note_on_c, 0, 60, 127
1, 34400, Note_off_c, 0, 60, 127
1, 34402, Note_on_c, 2, 62, 127
1, 34549, Note_off_c, 7, 67, 127
1, 34561, Note_off_c, 2, 62, 127
1, 34563, Note_on_c, 12, 59, 127
1, 34721, Note_off_c, 12, 59, 127
1, 34723, Note_on_c, 5, 65, 127
1, 34723, Note_on_c, 7, 55, 127
1, 34881, Note_off_c, 7, 55, 127
1, 34883, Note_on_c, 12, 59, 127
1, 35041, Note_off_c, 12, 59, 127
1, 35041, Note_off_c, 5, 65, 127
1, 35043, Note_on_c, 7, 67, 127
1, 35043, Note_on_c, 0, 48, 127
1, 35106, Note_on_c, 5, 65, 127
1, 35113, Note_off_c, 7, 67, 127
1, 35121, Note_off_c, 0, 48, 127
1, 35123, Note_on_c, 5, 53, 127
1, 35169, Note_on_c, 7, 67, 127
1, 35176, Note_off_c, 5, 65, 127
1, 35201, Note_off_c, 5, 53, 127
1, 35203, Note_on_c, 10, 57, 127
1, 35233, Note_on_c, 5, 65, 127
1, 35239, Note_off_c, 7, 67, 127
1, 35281, Note_off_c, 10, 57, 127
1, 35283, Note_on_c, 12, 59, 127
1, 35354, Note_off_c, 5, 65, 127
1, 35361, Note_off_c, 12, 59, 127
1, 35363, Note_on_c, 4, 64, 127
1, 35363, Note_on_c, 0, 60, 127
1, 35521, Note_off_c, 0, 60, 127
1, 35523, Note_on_c, 7, 55, 127
1, 35681, Note_off_c, 7, 55, 127
1, 35683, Note_on_c, 4, 52, 127
1, 35830, Note_off_c, 4, 64, 127
1, 35842, Note_off_c, 4, 52, 127
1, 35844, Note_on_c, 7, 55, 127
1, 36002, Note_off_c, 7, 55, 127
1, 36004, Note_on_c, 4, 76, 127
1, 36004, Note_on_c, 0, 48, 127
1, 36162, Note_off_c, 0, 48, 127
1, 36164, Note_on_c, 7, 55, 127
1, 36322, Note_off_c, 7, 55, 127
1, 36322, Note_off_c, 4, 76, 127
1, 36324, Note_on_c, 4, 76, 127
1, 36324, Note_on_c, 10, 57, 127
1, 36324, Note_on_c, 1, 49, 127
1, 36482, Note_off_c, 10, 57, 127
1, 36484, Note_on_c, 12, 59, 127
1, 36641, Note_off_c, 1, 49, 127
1, 36643, Note_off_c, 12, 59, 127
1, 36643, Note_off_c, 4, 76, 127
1, 36645, Note_on_c, 10, 69, 127
1, 36645, Note_on_c, 1, 61, 127
1, 36803, Note_off_c, 1, 61, 127
1, 36805, Note_on_c, 2, 62, 127
1, 36963, Note_off_c, 2, 62, 127
1, 36965, Note_on_c, 4, 64, 127
1, 37112, Note_off_c, 10, 69, 127
1, 37124, Note_off_c, 4, 64, 127
1, 37126, Note_on_c, 1, 61, 127
1, 37284, Note_off_c, 1, 61, 127
1, 37286, Note_on_c, 7, 67, 127
1, 37286, Note_on_c, 10, 57, 127
1, 37444, Note_off_c, 10, 57, 127
1, 37446, Note_on_c, 1, 61, 127
1, 37604, Note_off_c, 1, 61, 127
1, 37604, Note_off_c, 7, 67, 127
1, 37606, Note_on_c, 10, 69, 127
1, 37606, Note_on_c, 2, 50, 127
1, 37679, Note_on_c, 7, 67, 127
1, 37684, Note_off_c, 2, 50, 127
1, 37686, Note_off_c, 10, 69, 127
1, 37686, Note_on_c, 10, 57, 127
1, 37752, Note_on_c, 10, 69, 127
1, 37759, Note_off_c, 7, 67, 127
1, 37764, Note_off_c, 10, 57, 127
1, 37766, Note_on_c, 12, 59, 127
1, 37826, Note_on_c, 7, 67, 127
1, 37832, Note_off_c, 10, 69, 127
1, 37844, Note_off_c, 12, 59, 127
1, 37846, Note_on_c, 1, 61, 127
1, 37924, Note_off_c, 1, 61, 127
1, 37926, Note_on_c, 6, 66, 127
1, 37926, Note_on_c, 2, 62, 127
1, 37931, Note_off_c, 7, 67, 127
1, 38086, Note_on_c, 10, 57, 127
1, 38243, Note_off_c, 2, 62, 127
1, 38245, Note_off_c, 10, 57, 127
1, 38247, Note_on_c, 6, 54, 127
1, 38394, Note_off_c, 6, 66, 127
1, 38407, Note_on_c, 10, 57, 127
1, 38564, Note_off_c, 6, 54, 127
1, 38566, Note_off_c, 10, 57, 127
1, 38568, Note_on_c, 2, 74, 127
1, 38568, Note_on_c, 2, 50, 127
1, 38728, Note_on_c, 4, 52, 127
1, 38885, Note_off_c, 2, 50, 127
1, 38887, Note_off_c, 4, 52, 127
1, 38887, Note_off_c, 2, 74, 127
1, 38889, Note_on_c, 10, 69, 127
1, 38889, Note_on_c, 6, 54, 127
1, 38889, Note_on_c, 2, 50, 127
1, 39047, Note_off_c, 10, 69, 127
1, 39049, Note_on_c, 7, 67, 127
1, 39207, Note_off_c, 7, 67, 127
1, 39207, Note_off_c, 2, 50, 127
1, 39209, Note_on_c, 10, 69, 127
1, 39209, Note_on_c, 2, 62, 127
1, 39209, Note_on_c, 2, 50, 127
1, 39367, Note_off_c, 10, 69, 127
1, 39369, Note_on_c, 6, 66, 127
1, 39456, Note_off_c, 6, 54, 127
1, 39528, Note_off_c, 6, 66, 127
1, 39528, Note_off_c, 2, 50, 127
1, 39530, Note_on_c, 12, 71, 127
1, 39530, Note_on_c, 2, 50, 127
1, 39530, Note_on_c, 7, 55, 127
1, 39688, Note_off_c, 12, 71, 127
1, 39690, Note_on_c, 10, 69, 127
1, 39843, Note_off_c, 2, 62, 127
1, 39848, Note_off_c, 10, 69, 127
1, 39848, Note_off_c, 2, 50, 127
1, 39850, Note_on_c, 12, 71, 127
1, 39850, Note_on_c, 2, 50, 127
1, 39850, Note_on_c, 2, 62, 127
1, 40008, Note_off_c, 12, 71, 127
1, 40010, Note_on_c, 7, 67, 127
1, 40097, Note_off_c, 7, 55, 127
1, 40169, Note_off_c, 7, 67, 127
1, 40169, Note_off_c, 2, 50, 127
1, 40171, Note_on_c, 0, 72, 127
1, 40171, Note_on_c, 10, 57, 127
1, 40171, Note_on_c, 2, 50, 127
1, 40329, Note_off_c, 0, 72, 127
1, 40331, Note_on_c, 12, 71, 127
1, 40484, Note_off_c, 2, 62, 127
1, 40489, Note_off_c, 12, 71, 127
1, 40489, Note_off_c, 2, 50, 127
1, 40491, Note_on_c, 0, 72, 127
1, 40491, Note_on_c, 2, 50, 127
1, 40491, Note_on_c, 2, 62, 127
1, 40649, Note_off_c, 0, 72, 127
1, 40651, Note_on_c, 10, 69, 127
1, 40738, Note_off_c, 10, 57, 127
1, 40810, Note_off_c, 10, 69, 127
1, 40810, Note_off_c, 2, 50, 127
1, 40812, Note_on_c, 12, 71, 127
1, 40812, Note_on_c, 2, 50, 127
1, 40812, Note_on_c, 7, 55, 127
1, 40970, Note_off_c, 12, 71, 127
1, 40972, Note_on_c, 10, 69, 127
1, 41125, Note_off_c, 2, 62, 127
1, 41130, Note_off_c, 10, 69, 127
1, 41130, Note_off_c, 2, 50, 127
1, 41132, Note_on_c, 12, 71, 127
1, 41132, Note_on_c, 2, 50, 127
1, 41132, Note_on_c, 2, 62, 127
1, 41290, Note_off_c, 12, 71, 127
1, 41292, Note_on_c, 7, 67, 127
1, 41379, Note_off_c, 7, 55, 127
1, 41451, Note_off_c, 7, 67, 127
1, 41451, Note_off_c, 2, 50, 127
1, 41453, Note_on_c, 10, 69, 127
1, 41453, Note_on_c, 6, 54, 127
1, 41453, Note_on_c, 2, 50, 127
1, 41611, Note_off_c, 10, 69, 127
1, 41613, Note_on_c, 7, 67, 127
1, 41766, Note_off_c, 2, 62, 127
1, 41771, Note_off_c, 7, 67, 127
1, 41771, Note_off_c, 2, 50, 127
1, 41773, Note_on_c, 10, 69, 127
1, 41773, Note_on_c, 2, 62, 127
1, 41773, Note_on_c, 2, 50, 127
1, 41931, Note_off_c, 10, 69, 127
1, 41933, Note_on_c, 6, 66, 127
1, 42020, Note_off_c, 6, 54, 127
1, 42092, Note_off_c, 6, 66, 127
1, 42092, Note_off_c, 2, 50, 127
1, 42094, Note_on_c, 12, 71, 127
1, 42094, Note_on_c, 7, 55, 127
1, 42094, Note_on_c, 2, 50, 127
1, 42252, Note_off_c, 12, 71, 127
1, 42254, Note_on_c, 10, 69, 127
1, 42407, Note_off_c, 2, 62, 127
1, 42412, Note_off_c, 10, 69, 127
1, 42412, Note_off_c, 2, 50, 127
1, 42414, Note_on_c, 12, 71, 127
1, 42414, Note_on_c, 2, 50, 127
1, 42414, Note_on_c, 2, 62, 127
1, 42572, Note_off_c, 12, 71, 127
1, 42574, Note_on_c, 7, 67, 127
1, 42661, Note_off_c, 7, 55, 127
1, 42733, Note_off_c, 7, 67, 127
1, 42733, Note_off_c, 2, 50, 127
1, 42735, Note_on_c, 0, 72, 127
1, 42735, Note_on_c, 10, 57, 127
1, 42735, Note_on_c, 2, 50, 127
1, 42893, Note_off_c, 0, 72, 127
1, 42895, Note_on_c, 12, 71, 127
1, 43048, Note_off_c, 2, 62, 127
1, 43053, Note_off_c, 12, 71, 127
1, 43053, Note_off_c, 2, 50, 127
1, 43055, Note_on_c, 0, 72, 127
1, 43055, Note_on_c, 2, 62, 127
1, 43055, Note_on_c, 2, 50, 127
1, 43213, Note_off_c, 0, 72, 127
1, 43215, Note_on_c, 10, 69, 127
1, 43302, Note_off_c, 10, 57, 127
1, 43374, Note_off_c, 10, 69, 127
1, 43374, Note_off_c, 2, 50, 127
1, 43376, Note_on_c, 12, 71, 127
1, 43376, Note_on_c, 2, 50, 127
1, 43376, Note_on_c, 7, 55, 127
1, 43534, Note_off_c, 12, 71, 127
1, 43536, Note_on_c, 10, 69, 127
1, 43689, Note_off_c, 2, 62, 127
1, 43694, Note_off_c, 10, 69, 127
1, 43694, Note_off_c, 7, 55, 127
1, 43694, Note_off_c, 2, 50, 127
1, 43696, Note_on_c, 12, 71, 127
1, 43696, Note_on_c, 2, 50, 127
1, 43854, Note_off_c, 12, 71, 127
1, 43856, Note_on_c, 7, 67, 127
1, 44014, Note_off_c, 7, 67, 127
1, 44014, Note_off_c, 2, 50, 127
1, 44016, Note_on_c, 10, 69, 127
1, 44016, Note_on_c, 2, 50, 127
1, 44094, Note_off_c, 2, 50, 127
1, 44096, Note_on_c, 4, 52, 127
1, 44174, Note_off_c, 4, 52, 127
1, 44176, Note_on_c, 6, 54, 127
1, 44254, Note_off_c, 6, 54, 127
1, 44256, Note_on_c, 7, 55, 127
1, 44334, Note_off_c, 7, 55, 127
1, 44334, Note_off_c, 10, 69, 127
1, 44336, Note_on_c, 6, 66, 127
1, 44336, Note_on_c, 10, 57, 127
1, 44494, Note_off_c, 10, 57, 127
1, 44496, Note_on_c, 0, 48, 127
1, 44654, Note_off_c, 0, 48, 127
1, 44654, Note_off_c, 6, 66, 127
1, 44656, Note_on_c, 7, 67, 127
1, 44656, Note_on_c, 12, 47, 127
1, 44814, Note_off_c, 12, 47, 127
1, 44816, Note_on_c, 2, 50, 127
1, 44974, Note_off_c, 2, 50, 127
1, 44976, Note_on_c, 12, 59, 127
1, 44976, Note_on_c, 7, 43, 127
1, 45134, Note_off_c, 7, 43, 127
1, 45136, Note_on_c, 12, 47, 127
1, 45294, Note_off_c, 12, 47, 127
1, 45294, Note_off_c, 12, 59, 127
1, 45296, Note_on_c, 0, 60, 127
1, 45296, Note_on_c, 10, 45, 127
1, 45454, Note_off_c, 10, 45, 127
1, 45456, Note_on_c, 4, 52, 127
1, 45614, Note_off_c, 4, 52, 127
1, 45614, Note_off_c, 7, 67, 127
1, 45616, Note_on_c, 7, 67, 127
1, 45616, Note_on_c, 0, 48, 127
1, 45774, Note_off_c, 0, 48, 127
1, 45776, Note_on_c, 10, 45, 127
1, 45929, Note_off_c, 0, 60, 127
1, 45934, Note_off_c, 10, 45, 127
1, 45936, Note_on_c, 2, 62, 127
1, 45936, Note_on_c, 2, 50, 127
1, 46083, Note_off_c, 7, 67, 127
1, 46095, Note_off_c, 2, 50, 127
1, 46097, Note_on_c, 10, 45, 127
1, 46255, Note_off_c, 10, 45, 127
1, 46255, Note_off_c, 2, 62, 127
1, 46257, Note_on_c, 6, 66, 127
1, 46257, Note_on_c, 0, 60, 127
1, 46257, Note_on_c, 2, 38, 127
1, 46415, Note_off_c, 2, 38, 127
1, 46417, Note_on_c, 2, 50, 127
1, 46575, Note_off_c, 2, 50, 127
1, 46575, Note_off_c, 0, 60, 127
1, 46575, Note_off_c, 6, 66, 127
1, 46577, Note_on_c, 12, 59, 127
1, 46577, Note_on_c, 7, 67, 127
1, 46577, Note_on_c, 2, 62, 127
1, 46577, Note_on_c, 7, 43, 127
1, 47427, Note_off_c, 7, 43, 127
1, 47427, Note_off_c, 2, 62, 127
1, 47427, Note_off_c, 7, 67, 127
1, 47427, Note_off_c, 12, 59, 127
1, 47537, Note_on_c, 2, 62, 127
1, 47866, Note_off_c, 2, 62, 127
1, 47873, Note_on_c, 7, 43, 127
1, 47873, Note_on_c, 2, 62, 127
1, 47873, Note_on_c, 7, 67, 127
1, 47873, Note_on_c, 12, 59, 127
1, 48191, Note_off_c, 12, 59, 127
1, 48191, Note_off_c, 7, 67, 127
1, 48191, Note_off_c, 2, 62, 127
1, 48191, Note_off_c, 7, 43, 127
1, 48193, Note_on_c, 7, 43, 127
1, 48193, Note_on_c, 2, 62, 127
1, 48193, Note_on_c, 7, 67, 127
1, 48193, Note_on_c, 12, 59, 127
1, 48511, Note_off_c, 12, 59, 127
1, 48511, Note_off_c, 7, 67, 127
1, 48511, Note_off_c, 2, 62, 127
1, 48511, Note_off_c, 7, 43, 127
1, 48513, Note_on_c, 7, 43, 127
1, 48513, Note_on_c, 7, 67, 127
1, 48513, Note_on_c, 12, 59, 127
1, 48513, Note_on_c, 2, 62, 127
1, 48831, Note_off_c, 2, 62, 127
1, 48831, Note_off_c, 12, 59, 127
1, 48831, Note_off_c, 7, 67, 127
1, 48831, Note_off_c, 7, 43, 127
1, 48833, Note_on_c, 2, 50, 127
1, 48833, Note_on_c, 7, 43, 127
1, 48833, Note_on_c, 7, 67, 127
1, 48833, Note_on_c, 12, 59, 127
1, 48833, Note_on_c, 2, 62, 127
1, 49151, Note_off_c, 2, 62, 127
1, 49151, Note_off_c, 12, 59, 127
1, 49151, Note_off_c, 7, 67, 127
1, 49151, Note_off_c, 7, 43, 127
1, 49151, Note_off_c, 2, 50, 127
1, 49153, Note_on_c, 7, 55, 127
1, 49153, Note_on_c, 12, 47, 127
1, 49153, Note_on_c, 2, 50, 127
1, 49153, Note_on_c, 7, 43, 127
1, 49153, Note_on_c, 7, 67, 127
1, 49313, Note_on_c, 2, 62, 127
1, 49471, Note_off_c, 2, 62, 127
1, 49471, Note_off_c, 7, 43, 127
1, 49471, Note_off_c, 2, 50, 127
1, 49471, Note_off_c, 12, 47, 127
1, 49471, Note_off_c, 7, 55, 127
1, 49473, Note_on_c, 7, 55, 127
1, 49473, Note_on_c, 2, 50, 127
1, 49473, Note_on_c, 12, 47, 127
1, 49473, Note_on_c, 7, 43, 127
1, 49473, Note_on_c, 12, 59, 127
1, 49633, Note_on_c, 2, 62, 127
1, 49786, Note_off_c, 7, 67, 127
1, 49791, Note_off_c, 2, 62, 127
1, 49791, Note_off_c, 7, 43, 127
1, 49791, Note_off_c, 12, 47, 127
1, 49791, Note_off_c, 2, 50, 127
1, 49791, Note_off_c, 7, 55, 127
1, 49793, Note_on_c, 12, 47, 127
1, 49793, Note_on_c, 2, 50, 127
1, 49793, Note_on_c, 7, 55, 127
1, 49793, Note_on_c, 7, 43, 127
1, 49793, Note_on_c, 7, 67, 127
1, 49953, Note_on_c, 2, 62, 127
1, 50106, Note_off_c, 12, 59, 127
1, 50111, Note_off_c, 2, 62, 127
1, 50111, Note_off_c, 7, 43, 127
1, 50111, Note_off_c, 7, 55, 127
1, 50111, Note_off_c, 2, 50, 127
1, 50111, Note_off_c, 12, 47, 127
1, 50113, Note_on_c, 7, 55, 127
1, 50113, Note_on_c, 12, 47, 127
1, 50113, Note_on_c, 2, 50, 127
1, 50113, Note_on_c, 7, 43, 127
1, 50113, Note_on_c, 12, 59, 127
1, 50273, Note_on_c, 2, 62, 127
1, 50426, Note_off_c, 7, 67, 127
1, 50429, Note_off_c, 12, 59, 127
1, 50431, Note_off_c, 2, 62, 127
1, 50431, Note_off_c, 7, 43, 127
1, 50431, Note_off_c, 2, 50, 127
1, 50431, Note_off_c, 12, 47, 127
1, 50431, Note_off_c, 7, 55, 127
1, 50433, Note_on_c, 7, 43, 127
1, 50433, Note_on_c, 2, 62, 127
1, 50433, Note_on_c, 7, 67, 127
1, 50433, Note_on_c, 12, 59, 127
1, 50433, Note_on_c, 7, 55, 127
1, 50593, Note_on_c, 2, 50, 127
1, 50750, Note_off_c, 7, 43, 127
1, 50752, Note_off_c, 2, 50, 127
1, 50752, Note_off_c, 7, 55, 127
1, 50752, Note_off_c, 12, 59, 127
1, 50752, Note_off_c, 7, 67, 127
1, 50752, Note_off_c, 2, 62, 127
1, 50754, Note_on_c, 12, 47, 127
1, 50754, Note_on_c, 7, 67, 127
1, 50754, Note_on_c, 12, 59, 127
1, 50754, Note_on_c, 2, 62, 127
1, 50754, Note_on_c, 7, 55, 127
1, 50912, Note_off_c, 12, 47, 127
1, 50914, Note_on_c, 2, 50, 127
1, 51072, Note_off_c, 2, 50, 127
1, 51072, Note_off_c, 7, 55, 127
1, 51072, Note_off_c, 2, 62, 127
1, 51072, Note_off_c, 12, 59, 127
1, 51072, Note_off_c, 7, 67, 127
1, 51074, Note_on_c, 2, 62, 127
1, 51074, Note_on_c, 7, 67, 127
1, 51074, Note_on_c, 12, 59, 127
1, 51074, Note_on_c, 7, 55, 127
1, 51234, Note_on_c, 2, 50, 127
1, 51392, Note_off_c, 2, 50, 127
1, 51392, Note_off_c, 7, 55, 127
1, 51392, Note_off_c, 12, 59, 127
1, 51392, Note_off_c, 7, 67, 127
1, 51392, Note_off_c, 2, 62, 127
1, 51394, Note_on_c, 12, 47, 127
1, 51394, Note_on_c, 12, 59, 127
1, 51394, Note_on_c, 2, 62, 127
1, 51394, Note_on_c, 7, 67, 127
1, 51394, Note_on_c, 7, 55, 127
1, 51552, Note_off_c, 12, 47, 127
1, 51554, Note_on_c, 2, 50, 127
1, 51712, Note_off_c, 2, 50, 127
1, 51712, Note_off_c, 7, 55, 127
1, 51712, Note_off_c, 7, 67, 127
1, 51712, Note_off_c, 2, 62, 127
1, 51712, Note_off_c, 12, 59, 127
1, 51714, Note_on_c, 7, 55, 127
1, 51714, Note_on_c, 2, 50, 127
1, 51714, Note_on_c, 12, 47, 127
1, 51714, Note_on_c, 7, 43, 127
1, 51714, Note_on_c, 7, 67, 127
1, 51874, Note_on_c, 2, 62, 127
1, 52032, Note_off_c, 2, 62, 127
1, 52032, Note_off_c, 7, 43, 127
1, 52032, Note_off_c, 12, 47, 127
1, 52032, Note_off_c, 2, 50, 127
1, 52032, Note_off_c, 7, 55, 127
1, 52034, Note_on_c, 7, 55, 127
1, 52034, Note_on_c, 12, 47, 127
1, 52034, Note_on_c, 2, 50, 127
1, 52034, Note_on_c, 7, 43, 127
1, 52034, Note_on_c, 12, 59, 127
1, 52192, Note_off_c, 12, 59, 127
1, 52194, Note_on_c, 2, 62, 127
1, 52347, Note_off_c, 7, 67, 127
1, 52352, Note_off_c, 2, 62, 127
1, 52352, Note_off_c, 7, 43, 127
1, 52352, Note_off_c, 2, 50, 127
1, 52352, Note_off_c, 12, 47, 127
1, 52352, Note_off_c, 7, 55, 127
1, 52354, Note_on_c, 7, 55, 127
1, 52354, Note_on_c, 12, 47, 127
1, 52354, Note_on_c, 2, 50, 127
1, 52354, Note_on_c, 7, 43, 127
1, 52354, Note_on_c, 7, 67, 127
1, 52514, Note_on_c, 2, 62, 127
1, 52672, Note_off_c, 2, 62, 127
1, 52672, Note_off_c, 7, 43, 127
1, 52672, Note_off_c, 2, 50, 127
1, 52672, Note_off_c, 12, 47, 127
1, 52672, Note_off_c, 7, 55, 127
1, 52674, Note_on_c, 12, 47, 127
1, 52674, Note_on_c, 2, 50, 127
1, 52674, Note_on_c, 7, 55, 127
1, 52674, Note_on_c, 7, 43, 127
1, 52674, Note_on_c, 12, 59, 127
1, 52832, Note_off_c, 12, 59, 127
1, 52834, Note_on_c, 2, 62, 127
1, 52987, Note_off_c, 7, 67, 127
1, 52992, Note_off_c, 2, 62, 127
1, 52992, Note_off_c, 7, 43, 127
1, 52992, Note_off_c, 7, 55, 127
1, 52992, Note_off_c, 2, 50, 127
1, 52992, Note_off_c, 12, 47, 127
1, 52994, Note_on_c, 7, 43, 127
1, 52994, Note_on_c, 12, 59, 127
1, 52994, Note_on_c, 7, 67, 127
1, 53072, Note_off_c, 7, 43, 127
1, 53074, Note_on_c, 2, 50, 127
1, 53152, Note_off_c, 2, 50, 127
1, 53154, Note_on_c, 4, 52, 127
1, 53232, Note_off_c, 4, 52, 127
1, 53234, Note_on_c, 6, 54, 127
1, 53312, Note_off_c, 6, 54, 127
1, 53312, Note_off_c, 7, 67, 127
1, 53312, Note_off_c, 12, 59, 127
1, 53314, Note_on_c, 7, 55, 127
1, 53314, Note_on_c, 10, 69, 127
1, 53314, Note_on_c, 0, 60, 127
1, 53472, Note_off_c, 0, 60, 127
1, 53472, Note_off_c, 10, 69, 127
1, 53472, Note_off_c, 7, 55, 127
1, 53474, Note_on_c, 4, 52, 127
1, 53474, Note_on_c, 12, 71, 127
1, 53474, Note_on_c, 2, 62, 127
1, 53632, Note_off_c, 2, 62, 127
1, 53632, Note_off_c, 12, 71, 127
1, 53632, Note_off_c, 4, 52, 127
1, 53634, Note_on_c, 0, 48, 127
1, 53634, Note_on_c, 0, 60, 127
1, 53634, Note_on_c, 10, 69, 127
1, 53792, Note_off_c, 0, 48, 127
1, 53794, Note_on_c, 2, 50, 127
1, 53952, Note_off_c, 2, 50, 127
1, 53952, Note_off_c, 10, 69, 127
1, 53952, Note_off_c, 0, 60, 127
1, 53954, Note_on_c, 4, 52, 127
1, 53954, Note_on_c, 12, 59, 127
1, 53954, Note_on_c, 7, 67, 127
1, 54112, Note_off_c, 4, 52, 127
1, 54114, Note_on_c, 0, 48, 127
1, 54272, Note_off_c, 0, 48, 127
1, 54272, Note_off_c, 7, 67, 127
1, 54272, Note_off_c, 12, 59, 127
1, 54274, Note_on_c, 2, 50, 127
1, 54274, Note_on_c, 6, 66, 127
1, 54274, Note_on_c, 10, 57, 127
1, 54352, Note_off_c, 2, 50, 127
1, 54354, Note_on_c, 4, 52, 127
1, 54432, Note_off_c, 4, 52, 127
1, 54434, Note_on_c, 6, 54, 127
1, 54512, Note_off_c, 6, 54, 127
1, 54514, Note_on_c, 7, 55, 127
1, 54592, Note_off_c, 7, 55, 127
1, 54592, Note_off_c, 10, 57, 127
1, 54592, Note_off_c, 6, 66, 127
1, 54594, Note_on_c, 10, 57, 127
1, 54594, Note_on_c, 2, 62, 127
1, 54752, Note_off_c, 10, 57, 127
1, 54754, Note_on_c, 6, 54, 127
1, 54912, Note_off_c, 6, 54, 127
1, 54914, Note_on_c, 2, 50, 127
1, 55061, Note_off_c, 2, 62, 127
1, 55073, Note_off_c, 2, 50, 127
1, 55075, Note_on_c, 6, 54, 127
1, 55233, Note_off_c, 6, 54, 127
1, 55235, Note_on_c, 0, 48, 127
1, 55235, Note_on_c, 2, 74, 127
1, 55393, Note_off_c, 0, 48, 127
1, 55395, Note_on_c, 6, 54, 127
1, 55553, Note_off_c, 6, 54, 127
1, 55553, Note_off_c, 2, 74, 127
1, 55555, Note_on_c, 12, 47, 127
1, 55555, Note_on_c, 2, 74, 127
1, 55713, Note_off_c, 2, 74, 127
1, 55715, Note_on_c, 7, 79, 127
1, 55873, Note_off_c, 7, 79, 127
1, 55873, Note_off_c, 12, 47, 127
1, 55875, Note_on_c, 7, 43, 127
1, 55875, Note_on_c, 7, 67, 127
1, 55875, Note_on_c, 2, 74, 127
1, 56033, Note_off_c, 2, 74, 127
1, 56035, Note_on_c, 7, 79, 127
1, 56175, Note_off_c, 7, 67, 127
1, 56192, Note_off_c, 7, 43, 127
1, 56194, Note_off_c, 7, 79, 127
1, 56196, Note_on_c, 2, 74, 127
1, 56196, Note_on_c, 12, 71, 127
1, 56354, Note_off_c, 2, 74, 127
1, 56356, Note_on_c, 7, 79, 127
1, 56496, Note_off_c, 12, 71, 127
1, 56514, Note_off_c, 7, 79, 127
1, 56516, Note_on_c, 12, 47, 127
1, 56516, Note_on_c, 7, 67, 127
1, 56516, Note_on_c, 2, 74, 127
1, 56674, Note_off_c, 2, 74, 127
1, 56674, Note_off_c, 7, 67, 127
1, 56676, Note_on_c, 7, 79, 127
1, 56834, Note_off_c, 7, 79, 127
1, 56834, Note_off_c, 12, 47, 127
1, 56836, Note_on_c, 0, 48, 127
1, 56836, Note_on_c, 4, 76, 127
1, 56994, Note_off_c, 4, 76, 127
1, 56996, Note_on_c, 7, 79, 127
1, 57154, Note_off_c, 7, 79, 127
1, 57156, Note_on_c, 0, 36, 127
1, 57156, Note_on_c, 7, 67, 127
1, 57156, Note_on_c, 4, 76, 127
1, 57303, Note_off_c, 0, 48, 127
1, 57315, Note_off_c, 4, 76, 127
1, 57317, Note_on_c, 7, 79, 127
1, 57457, Note_off_c, 7, 67, 127
1, 57475, Note_off_c, 7, 79, 127
1, 57477, Note_on_c, 4, 76, 127
1, 57477, Note_on_c, 0, 72, 127
1, 57635, Note_off_c, 4, 76, 127
1, 57637, Note_on_c, 7, 79, 127
1, 57777, Note_off_c, 0, 72, 127
1, 57795, Note_off_c, 7, 79, 127
1, 57795, Note_off_c, 0, 36, 127
1, 57797, Note_on_c, 0, 48, 127
1, 57797, Note_on_c, 4, 76, 127
1, 57797, Note_on_c, 7, 67, 127
1, 57955, Note_off_c, 7, 67, 127
1, 57955, Note_off_c, 4, 76, 127
1, 57957, Note_on_c, 7, 79, 127
1, 58115, Note_off_c, 7, 79, 127
1, 58115, Note_off_c, 0, 48, 127
1, 58117, Note_on_c, 12, 47, 127
1, 58117, Note_on_c, 2, 74, 127
1, 58275, Note_off_c, 2, 74, 127
1, 58277, Note_on_c, 7, 79, 127
1, 58435, Note_off_c, 7, 79, 127
1, 58435, Note_off_c, 12, 47, 127
1, 58437, Note_on_c, 7, 43, 127
1, 58437, Note_on_c, 7, 67, 127
1, 58437, Note_on_c, 2, 74, 127
1, 58595, Note_off_c, 2, 74, 127
1, 58595, Note_off_c, 7, 67, 127
1, 58597, Note_on_c, 7, 79, 127
1, 58755, Note_off_c, 7, 79, 127
1, 58757, Note_on_c, 2, 74, 127
1, 58757, Note_on_c, 12, 71, 127
1, 58915, Note_off_c, 2, 74, 127
1, 58917, Note_on_c, 7, 79, 127
1, 58997, Note_off_c, 12, 71, 127
1, 59075, Note_off_c, 7, 79, 127
1, 59075, Note_off_c, 7, 43, 127
1, 59077, Note_on_c, 12, 47, 127
1, 59077, Note_on_c, 2, 74, 127
1, 59077, Note_on_c, 7, 67, 127
1, 59235, Note_off_c, 7, 67, 127
1, 59235, Note_off_c, 2, 74, 127
1, 59237, Note_on_c, 7, 79, 127
1, 59395, Note_off_c, 7, 79, 127
1, 59395, Note_off_c, 12, 47, 127
1, 59397, Note_on_c, 0, 48, 127
1, 59397, Note_on_c, 4, 76, 127
1, 59397, Note_on_c, 7, 67, 127
1, 59397, Note_on_c, 0, 72, 127
1, 59475, Note_off_c, 0, 48, 127
1, 59477, Note_on_c, 7, 55, 127
1, 59555, Note_off_c, 7, 55, 127
1, 59557, Note_on_c, 10, 57, 127
1, 59635, Note_off_c, 10, 57, 127
1, 59637, Note_on_c, 12, 59, 127
1, 59715, Note_off_c, 12, 59, 127
1, 59717, Note_on_c, 0, 60, 127
1, 59875, Note_off_c, 0, 60, 127
1, 59877, Note_on_c, 7, 55, 127
1, 60035, Note_off_c, 7, 55, 127
1, 60037, Note_on_c, 4, 52, 127
1, 60195, Note_off_c, 4, 52, 127
1, 60197, Note_off_c, 0, 72, 127
1, 60197, Note_off_c, 7, 67, 127
1, 60197, Note_off_c, 4, 76, 127
1, 60197, Note_on_c, 7, 55, 127
1, 60355, Note_off_c, 7, 55, 127
1, 60357, Note_on_c, 2, 50, 127
1, 60357, Note_on_c, 4, 76, 127
1, 60515, Note_off_c, 2, 50, 127
1, 60517, Note_on_c, 7, 55, 127
1, 60675, Note_off_c, 7, 55, 127
1, 60675, Note_off_c, 4, 76, 127
1, 60677, Note_on_c, 1, 49, 127
1, 60677, Note_on_c, 4, 76, 127
1, 60835, Note_off_c, 4, 76, 127
1, 60837, Note_on_c, 10, 81, 127
1, 60995, Note_off_c, 10, 81, 127
1, 60995, Note_off_c, 1, 49, 127
1, 60997, Note_on_c, 10, 45, 127
1, 60997, Note_on_c, 4, 76, 127
1, 60997, Note_on_c, 10, 69, 127
1, 61155, Note_off_c, 4, 76, 127
1, 61157, Note_on_c, 10, 81, 127
1, 61237, Note_off_c, 10, 69, 127
1, 61315, Note_off_c, 10, 81, 127
1, 61317, Note_on_c, 1, 73, 127
1, 61317, Note_on_c, 4, 76, 127
1, 61464, Note_off_c, 10, 45, 127
1, 61476, Note_off_c, 4, 76, 127
1, 61478, Note_on_c, 10, 81, 127
1, 61618, Note_off_c, 1, 73, 127
1, 61636, Note_off_c, 10, 81, 127
1, 61638, Note_on_c, 1, 49, 127
1, 61638, Note_on_c, 4, 76, 127
1, 61638, Note_on_c, 10, 69, 127
1, 61796, Note_off_c, 10, 69, 127
1, 61796, Note_off_c, 4, 76, 127
1, 61798, Note_on_c, 10, 81, 127
1, 61956, Note_off_c, 10, 81, 127
1, 61956, Note_off_c, 1, 49, 127
1, 61958, Note_on_c, 2, 50, 127
1, 61958, Note_on_c, 6, 78, 127
1, 62116, Note_off_c, 6, 78, 127
1, 62118, Note_on_c, 10, 81, 127
1, 62276, Note_off_c, 10, 81, 127
1, 62276, Note_off_c, 2, 50, 127
1, 62278, Note_on_c, 2, 38, 127
1, 62278, Note_on_c, 6, 78, 127
1, 62278, Note_on_c, 10, 69, 127
1, 62436, Note_off_c, 6, 78, 127
1, 62438, Note_on_c, 10, 81, 127
1, 62518, Note_off_c, 10, 69, 127
1, 62596, Note_off_c, 10, 81, 127
1, 62598, Note_on_c, 6, 78, 127
1, 62598, Note_on_c, 2, 74, 127
1, 62745, Note_off_c, 2, 38, 127
1, 62757, Note_off_c, 6, 78, 127
1, 62759, Note_on_c, 10, 81, 127
1, 62899, Note_off_c, 2, 74, 127
1, 62917, Note_off_c, 10, 81, 127
1, 62919, Note_on_c, 2, 50, 127
1, 62919, Note_on_c, 10, 69, 127
1, 62919, Note_on_c, 6, 78, 127
1, 63077, Note_off_c, 6, 78, 127
1, 63079, Note_on_c, 10, 81, 127
1, 63159, Note_off_c, 10, 69, 127
1, 63237, Note_off_c, 10, 81, 127
1, 63237, Note_off_c, 2, 50, 127
1, 63239, Note_on_c, 1, 49, 127
1, 63239, Note_on_c, 4, 76, 127
1, 63397, Note_off_c, 4, 76, 127
1, 63399, Note_on_c, 10, 81, 127
1, 63557, Note_off_c, 10, 81, 127
1, 63557, Note_off_c, 1, 49, 127
1, 63559, Note_on_c, 10, 45, 127
1, 63559, Note_on_c, 4, 76, 127
1, 63559, Note_on_c, 10, 69, 127
1, 63717, Note_off_c, 10, 69, 127
1, 63717, Note_off_c, 4, 76, 127
1, 63719, Note_on_c, 10, 81, 127
1, 63877, Note_off_c, 10, 81, 127
1, 63879, Note_on_c, 4, 76, 127
1, 63879, Note_on_c, 1, 73, 127
1, 64026, Note_off_c, 10, 45, 127
1, 64038, Note_off_c, 4, 76, 127
1, 64040, Note_on_c, 10, 81, 127
1, 64180, Note_off_c, 1, 73, 127
1, 64198, Note_off_c, 10, 81, 127
1, 64200, Note_on_c, 1, 49, 127
1, 64200, Note_on_c, 10, 69, 127
1, 64200, Note_on_c, 4, 76, 127
1, 64358, Note_off_c, 4, 76, 127
1, 64360, Note_on_c, 10, 81, 127
1, 64500, Note_off_c, 10, 69, 127
1, 64518, Note_off_c, 10, 81, 127
1, 64518, Note_off_c, 1, 49, 127
1, 64520, Note_on_c, 2, 50, 127
1, 64520, Note_on_c, 6, 78, 127
1, 64520, Note_on_c, 2, 74, 127
1, 64520, Note_on_c, 10, 69, 127
1, 64598, Note_off_c, 2, 50, 127
1, 64600, Note_on_c, 10, 57, 127
1, 64678, Note_off_c, 10, 57, 127
1, 64680, Note_on_c, 12, 59, 127
1, 64758, Note_off_c, 12, 59, 127
1, 64760, Note_on_c, 1, 61, 127
1, 64838, Note_off_c, 1, 61, 127
1, 64840, Note_on_c, 2, 62, 127
1, 64998, Note_off_c, 2, 62, 127
1, 65000, Note_on_c, 10, 57, 127
1, 65158, Note_off_c, 10, 57, 127
1, 65160, Note_on_c, 6, 54, 127
1, 65318, Note_off_c, 6, 54, 127
1, 65320, Note_off_c, 10, 69, 127
1, 65320, Note_off_c, 2, 74, 127
1, 65320, Note_off_c, 6, 78, 127
1, 65320, Note_on_c, 10, 57, 127
1, 65478, Note_off_c, 10, 57, 127
1, 65480, Note_on_c, 4, 52, 127
1, 65480, Note_on_c, 6, 78, 127
1, 65638, Note_off_c, 4, 52, 127
1, 65640, Note_on_c, 10, 57, 127
1, 65798, Note_off_c, 10, 57, 127
1, 65798, Note_off_c, 6, 78, 127
1, 65800, Note_on_c, 3, 51, 127
1, 65800, Note_on_c, 6, 78, 127
1, 65960, Note_on_c, 12, 83, 127
1, 66040, Note_off_c, 6, 78, 127
1, 66118, Note_off_c, 3, 51, 127
1, 66120, Note_on_c, 12, 47, 127
1, 66120, Note_on_c, 12, 71, 127
1, 66120, Note_on_c, 6, 78, 127
1, 66200, Note_off_c, 12, 83, 127
1, 66278, Note_off_c, 12, 71, 127
1, 66280, Note_on_c, 12, 83, 127
1, 66360, Note_off_c, 6, 78, 127
1, 66440, Note_on_c, 6, 78, 127
1, 66440, Note_on_c, 3, 75, 127
1, 66520, Note_off_c, 12, 83, 127
1, 66587, Note_off_c, 12, 47, 127
1, 66599, Note_off_c, 3, 75, 127
1, 66601, Note_on_c, 12, 83, 127
1, 66681, Note_off_c, 6, 78, 127
1, 66761, Note_on_c, 3, 51, 127
1, 66761, Note_on_c, 12, 71, 127
1, 66761, Note_on_c, 6, 78, 127
1, 66841, Note_off_c, 12, 83, 127
1, 66919, Note_off_c, 6, 78, 127
1, 66919, Note_off_c, 12, 71, 127
1, 66921, Note_on_c, 12, 83, 127
1, 67079, Note_off_c, 12, 83, 127
1, 67079, Note_off_c, 3, 51, 127
1, 67081, Note_on_c, 4, 52, 127
1, 67081, Note_on_c, 7, 79, 127
1, 67241, Note_on_c, 12, 83, 127
1, 67321, Note_off_c, 7, 79, 127
1, 67399, Note_off_c, 4, 52, 127
1, 67401, Note_on_c, 4, 40, 127
1, 67401, Note_on_c, 7, 79, 127
1, 67401, Note_on_c, 12, 71, 127
1, 67481, Note_off_c, 12, 83, 127
1, 67559, Note_off_c, 12, 71, 127
1, 67561, Note_on_c, 12, 83, 127
1, 67641, Note_off_c, 7, 79, 127
1, 67721, Note_on_c, 7, 79, 127
1, 67721, Note_on_c, 4, 76, 127
1, 67801, Note_off_c, 12, 83, 127
1, 67868, Note_off_c, 4, 40, 127
1, 67880, Note_off_c, 4, 76, 127
1, 67882, Note_on_c, 12, 83, 127
1, 67962, Note_off_c, 7, 79, 127
1, 68042, Note_on_c, 4, 52, 127
1, 68042, Note_on_c, 7, 79, 127
1, 68042, Note_on_c, 12, 71, 127
1, 68122, Note_off_c, 12, 83, 127
1, 68200, Note_off_c, 12, 71, 127
1, 68200, Note_off_c, 7, 79, 127
1, 68202, Note_on_c, 12, 83, 127
1, 68360, Note_off_c, 12, 83, 127
1, 68360, Note_off_c, 4, 52, 127
1, 68362, Note_on_c, 3, 51, 127
1, 68362, Note_on_c, 6, 78, 127
1, 68522, Note_on_c, 12, 83, 127
1, 68602, Note_off_c, 6, 78, 127
1, 68680, Note_off_c, 3, 51, 127
1, 68682, Note_on_c, 12, 47, 127
1, 68682, Note_on_c, 6, 78, 127
1, 68682, Note_on_c, 12, 71, 127
1, 68762, Note_off_c, 12, 83, 127
1, 68840, Note_off_c, 12, 71, 127
1, 68842, Note_on_c, 12, 83, 127
1, 68922, Note_off_c, 6, 78, 127
1, 69002, Note_on_c, 6, 78, 127
1, 69002, Note_on_c, 3, 75, 127
1, 69082, Note_off_c, 12, 83, 127
1, 69149, Note_off_c, 12, 47, 127
1, 69161, Note_off_c, 3, 75, 127
1, 69163, Note_on_c, 12, 83, 127
1, 69243, Note_off_c, 6, 78, 127
1, 69323, Note_on_c, 3, 51, 127
1, 69323, Note_on_c, 6, 78, 127
1, 69323, Note_on_c, 12, 71, 127
1, 69403, Note_off_c, 12, 83, 127
1, 69481, Note_off_c, 12, 71, 127
1, 69481, Note_off_c, 6, 78, 127
1, 69483, Note_on_c, 12, 83, 127
1, 69641, Note_off_c, 12, 83, 127
1, 69641, Note_off_c, 3, 51, 127
1, 69643, Note_on_c, 4, 52, 127
1, 69643, Note_on_c, 12, 71, 127
1, 69643, Note_on_c, 7, 79, 127
1, 69643, Note_on_c, 4, 76, 127
1, 69721, Note_off_c, 4, 52, 127
1, 69723, Note_on_c, 12, 59, 127
1, 69801, Note_off_c, 12, 59, 127
1, 69803, Note_on_c, 1, 61, 127
1, 69881, Note_off_c, 1, 61, 127
1, 69883, Note_on_c, 3, 63, 127
1, 69961, Note_off_c, 3, 63, 127
1, 69963, Note_on_c, 4, 64, 127
1, 70121, Note_off_c, 4, 64, 127
1, 70123, Note_on_c, 12, 59, 127
1, 70281, Note_off_c, 12, 59, 127
1, 70283, Note_on_c, 7, 55, 127
1, 70441, Note_off_c, 7, 55, 127
1, 70443, Note_off_c, 4, 76, 127
1, 70443, Note_off_c, 7, 79, 127
1, 70443, Note_off_c, 12, 71, 127
1, 70443, Note_on_c, 12, 59, 127
1, 70601, Note_off_c, 12, 59, 127
1, 70603, Note_on_c, 6, 54, 127
1, 70603, Note_on_c, 7, 79, 127
1, 70761, Note_off_c, 6, 54, 127
1, 70763, Note_on_c, 12, 59, 127
1, 70921, Note_off_c, 12, 59, 127
1, 70921, Note_off_c, 7, 79, 127
1, 70923, Note_on_c, 4, 52, 127
1, 70923, Note_on_c, 7, 79, 127
1, 71083, Note_on_c, 0, 84, 127
1, 71223, Note_off_c, 7, 79, 127
1, 71241, Note_off_c, 4, 52, 127
1, 71243, Note_on_c, 0, 48, 127
1, 71243, Note_on_c, 7, 79, 127
1, 71243, Note_on_c, 0, 72, 127
1, 71383, Note_off_c, 0, 84, 127
1, 71401, Note_off_c, 0, 72, 127
1, 71403, Note_on_c, 0, 84, 127
1, 71543, Note_off_c, 7, 79, 127
1, 71563, Note_on_c, 7, 79, 127
1, 71563, Note_on_c, 4, 76, 127
1, 71643, Note_off_c, 0, 48, 127
1, 71703, Note_off_c, 0, 84, 127
1, 71721, Note_off_c, 4, 76, 127
1, 71723, Note_on_c, 0, 84, 127
1, 71863, Note_off_c, 7, 79, 127
1, 71883, Note_on_c, 4, 52, 127
1, 71883, Note_on_c, 7, 79, 127
1, 71883, Note_on_c, 0, 72, 127
1, 72023, Note_off_c, 0, 84, 127
1, 72041, Note_off_c, 0, 72, 127
1, 72041, Note_off_c, 7, 79, 127
1, 72043, Note_on_c, 0, 84, 127
1, 72201, Note_off_c, 4, 52, 127
1, 72203, Note_on_c, 5, 53, 127
1, 72203, Note_on_c, 10, 81, 127
1, 72343, Note_off_c, 0, 84, 127
1, 72363, Note_on_c, 0, 84, 127
1, 72503, Note_off_c, 10, 81, 127
1, 72521, Note_off_c, 5, 53, 127
1, 72523, Note_on_c, 5, 41, 127
1, 72523, Note_on_c, 0, 72, 127
1, 72523, Note_on_c, 10, 81, 127
1, 72663, Note_off_c, 0, 84, 127
1, 72681, Note_off_c, 0, 72, 127
1, 72683, Note_on_c, 0, 84, 127
1, 72823, Note_off_c, 10, 81, 127
1, 72843, Note_on_c, 10, 81, 127
1, 72843, Note_on_c, 5, 77, 127
1, 72923, Note_off_c, 5, 41, 127
1, 72983, Note_off_c, 0, 84, 127
1, 73001, Note_off_c, 5, 77, 127
1, 73003, Note_on_c, 0, 84, 127
1, 73143, Note_off_c, 10, 81, 127
1, 73163, Note_on_c, 5, 53, 127
1, 73163, Note_on_c, 10, 81, 127
1, 73163, Note_on_c, 0, 72, 127
1, 73303, Note_off_c, 0, 84, 127
1, 73321, Note_off_c, 0, 72, 127
1, 73321, Note_off_c, 10, 81, 127
1, 73323, Note_on_c, 0, 84, 127
1, 73481, Note_off_c, 5, 53, 127
1, 73483, Note_on_c, 4, 52, 127
1, 73483, Note_on_c, 7, 79, 127
1, 73623, Note_off_c, 0, 84, 127
1, 73643, Note_on_c, 0, 84, 127
1, 73783, Note_off_c, 7, 79, 127
1, 73801, Note_off_c, 4, 52, 127
1, 73803, Note_on_c, 0, 48, 127
1, 73803, Note_on_c, 0, 72, 127
1, 73803, Note_on_c, 7, 79, 127
1, 73943, Note_off_c, 0, 84, 127
1, 73961, Note_off_c, 0, 72, 127
1, 73963, Note_on_c, 0, 84, 127
1, 74103, Note_off_c, 7, 79, 127
1, 74123, Note_on_c, 7, 79, 127
1, 74123, Note_on_c, 4, 76, 127
1, 74203, Note_off_c, 0, 48, 127
1, 74263, Note_off_c, 0, 84, 127
1, 74281, Note_off_c, 4, 76, 127
1, 74283, Note_on_c, 0, 84, 127
1, 74423, Note_off_c, 7, 79, 127
1, 74441, Note_off_c, 0, 84, 127
1, 74443, Note_on_c, 4, 52, 127
1, 74443, Note_on_c, 0, 72, 127
1, 74443, Note_on_c, 7, 79, 127
1, 74601, Note_off_c, 7, 79, 127
1, 74601, Note_off_c, 0, 72, 127
1, 74603, Note_on_c, 0, 84, 127
1, 74761, Note_off_c, 0, 84, 127
1, 74761, Note_off_c, 4, 52, 127
1, 74763, Note_on_c, 5, 53, 127
1, 74763, Note_on_c, 10, 81, 127
1, 74763, Note_on_c, 0, 72, 127
1, 74763, Note_on_c, 5, 77, 127
1, 74841, Note_off_c, 5, 53, 127
1, 74843, Note_on_c, 0, 60, 127
1, 74921, Note_off_c, 0, 60, 127
1, 74923, Note_on_c, 2, 62, 127
1, 75001, Note_off_c, 2, 62, 127
1, 75003, Note_on_c, 4, 64, 127
1, 75081, Note_off_c, 4, 64, 127
1, 75083, Note_on_c, 5, 65, 127
1, 75241, Note_off_c, 5, 65, 127
1, 75243, Note_on_c, 0, 60, 127
1, 75401, Note_off_c, 0, 60, 127
1, 75403, Note_on_c, 10, 57, 127
1, 75561, Note_off_c, 10, 57, 127
1, 75563, Note_off_c, 5, 77, 127
1, 75563, Note_off_c, 0, 72, 127
1, 75563, Note_off_c, 10, 81, 127
1, 75563, Note_on_c, 0, 60, 127
1, 75721, Note_off_c, 0, 60, 127
1, 75723, Note_on_c, 7, 55, 127
1, 75723, Note_on_c, 10, 81, 127
1, 75881, Note_off_c, 7, 55, 127
1, 75883, Note_on_c, 0, 60, 127
1, 76041, Note_off_c, 0, 60, 127
1, 76041, Note_off_c, 10, 81, 127
1, 76043, Note_on_c, 6, 54, 127
1, 76043, Note_on_c, 10, 81, 127
1, 76203, Note_on_c, 2, 74, 127
1, 76361, Note_off_c, 2, 74, 127
1, 76361, Note_off_c, 6, 54, 127
1, 76363, Note_on_c, 6, 54, 127
1, 76363, Note_on_c, 0, 60, 127
1, 76363, Note_on_c, 4, 76, 127
1, 76521, Note_off_c, 4, 76, 127
1, 76523, Note_on_c, 2, 74, 127
1, 76610, Note_off_c, 10, 81, 127
1, 76682, Note_off_c, 2, 74, 127
1, 76682, Note_off_c, 0, 60, 127
1, 76682, Note_off_c, 6, 54, 127
1, 76684, Note_on_c, 0, 60, 127
1, 76684, Note_on_c, 6, 54, 127
1, 76684, Note_on_c, 10, 81, 127
1, 76844, Note_on_c, 2, 74, 127
1, 77002, Note_off_c, 2, 74, 127
1, 77002, Note_off_c, 6, 54, 127
1, 77002, Note_off_c, 0, 60, 127
1, 77004, Note_on_c, 0, 60, 127
1, 77004, Note_on_c, 6, 54, 127
1, 77004, Note_on_c, 4, 76, 127
1, 77162, Note_off_c, 4, 76, 127
1, 77164, Note_on_c, 2, 74, 127
1, 77317, Note_off_c, 10, 81, 127
1, 77322, Note_off_c, 2, 74, 127
1, 77322, Note_off_c, 6, 54, 127
1, 77322, Note_off_c, 0, 60, 127
1, 77324, Note_on_c, 6, 54, 127
1, 77324, Note_on_c, 0, 60, 127
1, 77324, Note_on_c, 10, 81, 127
1, 77482, Note_off_c, 10, 81, 127
1, 77484, Note_on_c, 12, 83, 127
1, 77642, Note_off_c, 12, 83, 127
1, 77642, Note_off_c, 0, 60, 127
1, 77642, Note_off_c, 6, 54, 127
1, 77644, Note_on_c, 6, 54, 127
1, 77644, Note_on_c, 0, 60, 127
1, 77644, Note_on_c, 10, 81, 127
1, 77804, Note_on_c, 2, 74, 127
1, 77961, Note_off_c, 10, 81, 127
1, 77963, Note_off_c, 2, 74, 127
1, 77963, Note_off_c, 0, 60, 127
1, 77963, Note_off_c, 6, 54, 127
1, 77965, Note_on_c, 0, 60, 127
1, 77965, Note_on_c, 6, 54, 127
1, 77965, Note_on_c, 10, 81, 127
1, 78123, Note_off_c, 10, 81, 127
1, 78125, Note_on_c, 12, 83, 127
1, 78283, Note_off_c, 12, 83, 127
1, 78283, Note_off_c, 6, 54, 127
1, 78283, Note_off_c, 0, 60, 127
1, 78285, Note_on_c, 6, 54, 127
1, 78285, Note_on_c, 0, 60, 127
1, 78285, Note_on_c, 10, 81, 127
1, 78445, Note_on_c, 2, 74, 127
1, 78602, Note_off_c, 10, 81, 127
1, 78604, Note_off_c, 2, 74, 127
1, 78604, Note_off_c, 0, 60, 127
1, 78604, Note_off_c, 6, 54, 127
1, 78606, Note_on_c, 6, 54, 127
1, 78606, Note_on_c, 2, 62, 127
1, 78606, Note_on_c, 10, 81, 127
1, 78764, Note_off_c, 10, 81, 127
1, 78766, Note_on_c, 12, 83, 127
1, 78924, Note_off_c, 12, 83, 127
1, 78924, Note_off_c, 2, 62, 127
1, 78924, Note_off_c, 6, 54, 127
1, 78926, Note_on_c, 6, 54, 127
1, 78926, Note_on_c, 2, 62, 127
1, 78926, Note_on_c, 10, 81, 127
1, 79086, Note_on_c, 2, 74, 127
1, 79243, Note_off_c, 10, 81, 127
1, 79245, Note_off_c, 2, 74, 127
1, 79245, Note_off_c, 2, 62, 127
1, 79245, Note_off_c, 6, 54, 127
1, 79247, Note_on_c, 2, 62, 127
1, 79247, Note_on_c, 6, 54, 127
1, 79247, Note_on_c, 10, 81, 127
1, 79405, Note_off_c, 10, 81, 127
1, 79407, Note_on_c, 0, 84, 127
1, 79565, Note_off_c, 0, 84, 127
1, 79565, Note_off_c, 6, 54, 127
1, 79565, Note_off_c, 2, 62, 127
1, 79567, Note_on_c, 2, 62, 127
1, 79567, Note_on_c, 6, 54, 127
1, 79567, Note_on_c, 12, 83, 127
1, 79725, Note_off_c, 12, 83, 127
1, 79727, Note_on_c, 10, 81, 127
1, 79885, Note_off_c, 10, 81, 127
1, 79885, Note_off_c, 6, 54, 127
1, 79885, Note_off_c, 2, 62, 127
1, 79887, Note_on_c, 6, 54, 127
1, 79887, Note_on_c, 12, 59, 127
1, 79887, Note_on_c, 7, 79, 127
1, 80045, Note_off_c, 7, 79, 127
1, 80047, Note_on_c, 10, 81, 127
1, 80205, Note_off_c, 10, 81, 127
1, 80205, Note_off_c, 12, 59, 127
1, 80205, Note_off_c, 6, 54, 127
1, 80207, Note_on_c, 12, 59, 127
1, 80207, Note_on_c, 6, 54, 127
1, 80207, Note_on_c, 7, 79, 127
1, 80367, Note_on_c, 0, 84, 127
1, 80524, Note_off_c, 7, 79, 127
1, 80526, Note_off_c, 0, 84, 127
1, 80526, Note_off_c, 6, 54, 127
1, 80526, Note_off_c, 12, 59, 127
1, 80528, Note_on_c, 12, 59, 127
1, 80528, Note_on_c, 6, 54, 127
1, 80528, Note_on_c, 7, 79, 127
1, 80686, Note_off_c, 7, 79, 127
1, 80688, Note_on_c, 10, 81, 127
1, 80846, Note_off_c, 10, 81, 127
1, 80846, Note_off_c, 6, 54, 127
1, 80846, Note_off_c, 12, 59, 127
1, 80848, Note_on_c, 12, 59, 127
1, 80848, Note_on_c, 6, 54, 127
1, 80848, Note_on_c, 7, 79, 127
1, 81008, Note_on_c, 0, 84, 127
1, 81165, Note_off_c, 7, 79, 127
1, 81167, Note_off_c, 0, 84, 127
1, 81167, Note_off_c, 6, 54, 127
1, 81167, Note_off_c, 12, 59, 127
1, 81169, Note_on_c, 4, 52, 127
1, 81169, Note_on_c, 0, 60, 127
1, 81169, Note_on_c, 7, 79, 127
1, 81327, Note_off_c, 7, 79, 127
1, 81329, Note_on_c, 10, 81, 127
1, 81487, Note_off_c, 10, 81, 127
1, 81487, Note_off_c, 0, 60, 127
1, 81487, Note_off_c, 4, 52, 127
1, 81489, Note_on_c, 0, 60, 127
1, 81489, Note_on_c, 4, 52, 127
1, 81489, Note_on_c, 7, 79, 127
1, 81649, Note_on_c, 0, 84, 127
1, 81806, Note_off_c, 7, 79, 127
1, 81808, Note_off_c, 0, 84, 127
1, 81808, Note_off_c, 4, 52, 127
1, 81808, Note_off_c, 0, 60, 127
1, 81810, Note_on_c, 4, 52, 127
1, 81810, Note_on_c, 0, 60, 127
1, 81810, Note_on_c, 7, 79, 127
1, 81968, Note_off_c, 7, 79, 127
1, 81970, Note_on_c, 10, 81, 127
1, 82128, Note_off_c, 10, 81, 127
1, 82128, Note_off_c, 0, 60, 127
1, 82128, Note_off_c, 4, 52, 127
1, 82130, Note_on_c, 0, 60, 127
1, 82130, Note_on_c, 4, 52, 127
1, 82130, Note_on_c, 12, 83, 127
1, 82288, Note_off_c, 12, 83, 127
1, 82290, Note_on_c, 0, 84, 127
1, 82448, Note_off_c, 0, 84, 127
1, 82448, Note_off_c, 4, 52, 127
1, 82448, Note_off_c, 0, 60, 127
1, 82450, Note_on_c, 4, 52, 127
1, 82450, Note_on_c, 10, 57, 127
1, 82450, Note_on_c, 6, 78, 127
1, 82608, Note_off_c, 6, 78, 127
1, 82610, Note_on_c, 7, 79, 127
1, 82768, Note_off_c, 7, 79, 127
1, 82768, Note_off_c, 10, 57, 127
1, 82768, Note_off_c, 4, 52, 127
1, 82770, Note_on_c, 4, 52, 127
1, 82770, Note_on_c, 10, 57, 127
1, 82770, Note_on_c, 6, 78, 127
1, 82930, Note_on_c, 12, 83, 127
1, 83087, Note_off_c, 6, 78, 127
1, 83089, Note_off_c, 12, 83, 127
1, 83089, Note_off_c, 10, 57, 127
1, 83089, Note_off_c, 4, 52, 127
1, 83091, Note_on_c, 4, 52, 127
1, 83091, Note_on_c, 10, 57, 127
1, 83091, Note_on_c, 6, 78, 127
1, 83249, Note_off_c, 6, 78, 127
1, 83251, Note_on_c, 7, 79, 127
1, 83409, Note_off_c, 7, 79, 127
1, 83409, Note_off_c, 10, 57, 127
1, 83409, Note_off_c, 4, 52, 127
1, 83411, Note_on_c, 4, 52, 127
1, 83411, Note_on_c, 10, 57, 127
1, 83411, Note_on_c, 6, 78, 127
1, 83571, Note_on_c, 12, 83, 127
1, 83728, Note_off_c, 6, 78, 127
1, 83730, Note_off_c, 12, 83, 127
1, 83730, Note_off_c, 10, 57, 127
1, 83730, Note_off_c, 4, 52, 127
1, 83732, Note_on_c, 2, 50, 127
1, 83732, Note_on_c, 12, 59, 127
1, 83732, Note_on_c, 6, 78, 127
1, 83890, Note_off_c, 6, 78, 127
1, 83892, Note_on_c, 7, 79, 127
1, 84050, Note_off_c, 7, 79, 127
1, 84050, Note_off_c, 12, 59, 127
1, 84050, Note_off_c, 2, 50, 127
1, 84052, Note_on_c, 2, 50, 127
1, 84052, Note_on_c, 12, 59, 127
1, 84052, Note_on_c, 6, 78, 127
1, 84212, Note_on_c, 12, 83, 127
1, 84369, Note_off_c, 6, 78, 127
1, 84371, Note_off_c, 12, 83, 127
1, 84371, Note_off_c, 12, 59, 127
1, 84371, Note_off_c, 2, 50, 127
1, 84373, Note_on_c, 2, 50, 127
1, 84373, Note_on_c, 12, 59, 127
1, 84373, Note_on_c, 6, 78, 127
1, 84526, Note_off_c, 6, 78, 127
1, 84533, Note_on_c, 7, 79, 127
1, 84686, Note_off_c, 7, 79, 127
1, 84691, Note_off_c, 12, 59, 127
1, 84691, Note_off_c, 2, 50, 127
1, 84693, Note_on_c, 2, 50, 127
1, 84693, Note_on_c, 12, 59, 127
1, 84693, Note_on_c, 10, 81, 127
1, 84846, Note_off_c, 10, 81, 127
1, 84853, Note_on_c, 12, 83, 127
1, 85006, Note_off_c, 12, 83, 127
1, 85011, Note_off_c, 12, 59, 127
1, 85011, Note_off_c, 2, 50, 127
1, 85013, Note_on_c, 2, 50, 127
1, 85013, Note_on_c, 7, 55, 127
1, 85013, Note_on_c, 4, 76, 127
1, 85171, Note_off_c, 4, 76, 127
1, 85173, Note_on_c, 6, 78, 127
1, 85331, Note_off_c, 6, 78, 127
1, 85331, Note_off_c, 7, 55, 127
1, 85331, Note_off_c, 2, 50, 127
1, 85333, Note_on_c, 7, 55, 127
1, 85333, Note_on_c, 2, 50, 127
1, 85333, Note_on_c, 4, 76, 127
1, 85493, Note_on_c, 10, 81, 127
1, 85650, Note_off_c, 4, 76, 127
1, 85652, Note_off_c, 10, 81, 127
1, 85652, Note_off_c, 2, 50, 127
1, 85652, Note_off_c, 7, 55, 127
1, 85654, Note_on_c, 2, 50, 127
1, 85654, Note_on_c, 7, 55, 127
1, 85654, Note_on_c, 4, 76, 127
1, 85812, Note_off_c, 4, 76, 127
1, 85814, Note_on_c, 6, 78, 127
1, 85972, Note_off_c, 6, 78, 127
1, 85972, Note_off_c, 7, 55, 127
1, 85972, Note_off_c, 2, 50, 127
1, 85974, Note_on_c, 2, 50, 127
1, 85974, Note_on_c, 7, 55, 127
1, 85974, Note_on_c, 4, 76, 127
1, 86134, Note_on_c, 10, 81, 127
1, 86291, Note_off_c, 4, 76, 127
1, 86293, Note_off_c, 10, 81, 127
1, 86293, Note_off_c, 7, 55, 127
1, 86293, Note_off_c, 2, 50, 127
1, 86295, Note_on_c, 10, 57, 127
1, 86295, Note_on_c, 1, 49, 127
1, 86295, Note_on_c, 4, 76, 127
1, 86453, Note_off_c, 4, 76, 127
1, 86455, Note_on_c, 6, 78, 127
1, 86613, Note_off_c, 6, 78, 127
1, 86613, Note_off_c, 1, 49, 127
1, 86613, Note_off_c, 10, 57, 127
1, 86615, Note_on_c, 10, 57, 127
1, 86615, Note_on_c, 1, 49, 127
1, 86615, Note_on_c, 4, 76, 127
1, 86775, Note_on_c, 10, 81, 127
1, 86932, Note_off_c, 4, 76, 127
1, 86934, Note_off_c, 10, 81, 127
1, 86934, Note_off_c, 1, 49, 127
1, 86934, Note_off_c, 10, 57, 127
1, 86936, Note_on_c, 10, 57, 127
1, 86936, Note_on_c, 1, 49, 127
1, 86936, Note_on_c, 4, 76, 127
1, 87083, Note_off_c, 4, 76, 127
1, 87096, Note_on_c, 6, 78, 127
1, 87243, Note_off_c, 6, 78, 127
1, 87254, Note_off_c, 1, 49, 127
1, 87254, Note_off_c, 10, 57, 127
1, 87256, Note_on_c, 10, 57, 127
1, 87256, Note_on_c, 1, 49, 127
1, 87256, Note_on_c, 7, 79, 127
1, 87403, Note_off_c, 7, 79, 127
1, 87416, Note_on_c, 10, 81, 127
1, 87563, Note_off_c, 10, 81, 127
1, 87574, Note_off_c, 1, 49, 127
1, 87574, Note_off_c, 10, 57, 127
1, 87576, Note_on_c, 6, 54, 127
1, 87576, Note_on_c, 1, 49, 127
1, 87576, Note_on_c, 2, 74, 127
1, 87734, Note_off_c, 2, 74, 127
1, 87736, Note_on_c, 4, 76, 127
1, 87894, Note_off_c, 4, 76, 127
1, 87894, Note_off_c, 1, 49, 127
1, 87894, Note_off_c, 6, 54, 127
1, 87896, Note_on_c, 1, 49, 127
1, 87896, Note_on_c, 6, 54, 127
1, 87896, Note_on_c, 2, 74, 127
1, 88056, Note_on_c, 7, 79, 127
1, 88213, Note_off_c, 2, 74, 127
1, 88215, Note_off_c, 7, 79, 127
1, 88215, Note_off_c, 6, 54, 127
1, 88215, Note_off_c, 1, 49, 127
1, 88217, Note_on_c, 1, 49, 127
1, 88217, Note_on_c, 6, 54, 127
1, 88217, Note_on_c, 2, 74, 127
1, 88375, Note_off_c, 2, 74, 127
1, 88377, Note_on_c, 4, 76, 127
1, 88535, Note_off_c, 4, 76, 127
1, 88535, Note_off_c, 6, 54, 127
1, 88535, Note_off_c, 1, 49, 127
1, 88537, Note_on_c, 1, 49, 127
1, 88537, Note_on_c, 6, 54, 127
1, 88537, Note_on_c, 2, 74, 127
1, 88697, Note_on_c, 7, 79, 127
1, 88804, Note_off_c, 2, 74, 127
1, 88856, Note_off_c, 7, 79, 127
1, 88856, Note_off_c, 6, 54, 127
1, 88856, Note_off_c, 1, 49, 127
1, 88858, Note_on_c, 12, 47, 127
1, 88858, Note_on_c, 7, 55, 127
1, 88858, Note_on_c, 2, 74, 127
1, 89016, Note_off_c, 2, 74, 127
1, 89018, Note_on_c, 4, 76, 127
1, 89176, Note_off_c, 4, 76, 127
1, 89176, Note_off_c, 7, 55, 127
1, 89176, Note_off_c, 12, 47, 127
1, 89178, Note_on_c, 12, 47, 127
1, 89178, Note_on_c, 7, 55, 127
1, 89178, Note_on_c, 2, 74, 127
1, 89338, Note_on_c, 7, 79, 127
1, 89378, Note_off_c, 2, 74, 127
1, 89496, Note_off_c, 7, 79, 127
1, 89496, Note_off_c, 7, 55, 127
1, 89496, Note_off_c, 12, 47, 127
1, 89498, Note_on_c, 12, 47, 127
1, 89498, Note_on_c, 7, 55, 127
1, 89498, Note_on_c, 2, 74, 127
1, 89648, Note_off_c, 2, 74, 127
1, 89658, Note_on_c, 4, 76, 127
1, 89798, Note_off_c, 4, 76, 127
1, 89816, Note_off_c, 7, 55, 127
1, 89816, Note_off_c, 12, 47, 127
1, 89818, Note_on_c, 7, 55, 127
1, 89818, Note_on_c, 12, 47, 127
1, 89818, Note_on_c, 6, 78, 127
1, 89958, Note_off_c, 6, 78, 127
1, 89978, Note_on_c, 7, 79, 127
1, 90118, Note_off_c, 7, 79, 127
1, 90136, Note_off_c, 12, 47, 127
1, 90136, Note_off_c, 7, 55, 127
1, 90138, Note_on_c, 7, 55, 127
1, 90138, Note_on_c, 10, 45, 127
1, 90138, Note_on_c, 2, 74, 127
1, 90205, Note_off_c, 2, 74, 127
1, 90205, Note_on_c, 1, 73, 127
1, 90272, Note_off_c, 1, 73, 127
1, 90272, Note_on_c, 2, 74, 127
1, 90297, Note_off_c, 10, 45, 127
1, 90297, Note_off_c, 7, 55, 127
1, 90299, Note_on_c, 4, 52, 127
1, 90339, Note_off_c, 2, 74, 127
1, 90339, Note_on_c, 1, 73, 127
1, 90457, Note_off_c, 4, 52, 127
1, 90459, Note_on_c, 1, 49, 127
1, 90459, Note_on_c, 10, 69, 127
1, 90469, Note_off_c, 1, 73, 127
1, 90617, Note_off_c, 1, 49, 127
1, 90619, Note_on_c, 4, 52, 127
1, 90777, Note_off_c, 4, 52, 127
1, 90779, Note_on_c, 7, 55, 127
1, 90926, Note_off_c, 10, 69, 127
1, 90938, Note_off_c, 7, 55, 127
1, 90940, Note_on_c, 4, 52, 127
1, 91098, Note_off_c, 4, 52, 127
1, 91100, Note_on_c, 1, 49, 127
1, 91100, Note_on_c, 10, 69, 127
1, 91258, Note_off_c, 1, 49, 127
1, 91260, Note_on_c, 4, 52, 127
1, 91418, Note_off_c, 4, 52, 127
1, 91418, Note_off_c, 10, 69, 127
1, 91420, Note_on_c, 10, 45, 127
1, 91420, Note_on_c, 1, 73, 127
1, 91580, Note_on_c, 10, 69, 127
1, 91590, Note_off_c, 1, 73, 127
1, 91738, Note_off_c, 10, 69, 127
1, 91738, Note_off_c, 10, 45, 127
1, 91740, Note_on_c, 10, 45, 127
1, 91740, Note_on_c, 1, 49, 127
1, 91740, Note_on_c, 7, 67, 127
1, 91898, Note_off_c, 7, 67, 127
1, 91900, Note_on_c, 10, 69, 127
1, 92058, Note_off_c, 10, 69, 127
1, 92058, Note_off_c, 1, 49, 127
1, 92058, Note_off_c, 10, 45, 127
1, 92060, Note_on_c, 10, 57, 127
1, 92060, Note_on_c, 10, 45, 127
1, 92060, Note_on_c, 1, 73, 127
1, 92220, Note_on_c, 10, 69, 127
1, 92230, Note_off_c, 1, 73, 127
1, 92378, Note_off_c, 10, 69, 127
1, 92378, Note_off_c, 10, 45, 127
1, 92378, Note_off_c, 10, 57, 127
1, 92380, Note_on_c, 10, 45, 127
1, 92380, Note_on_c, 1, 49, 127
1, 92380, Note_on_c, 7, 67, 127
1, 92538, Note_off_c, 7, 67, 127
1, 92540, Note_on_c, 10, 69, 127
1, 92698, Note_off_c, 10, 69, 127
1, 92698, Note_off_c, 1, 49, 127
1, 92698, Note_off_c, 10, 45, 127
1, 92700, Note_on_c, 10, 45, 127
1, 92700, Note_on_c, 4, 76, 127
1, 92860, Note_on_c, 10, 69, 127
1, 92890, Note_off_c, 4, 76, 127
1, 93018, Note_off_c, 10, 69, 127
1, 93018, Note_off_c, 10, 45, 127
1, 93020, Note_on_c, 10, 45, 127
1, 93020, Note_on_c, 1, 49, 127
1, 93020, Note_on_c, 7, 67, 127
1, 93178, Note_off_c, 7, 67, 127
1, 93180, Note_on_c, 10, 69, 127
1, 93338, Note_off_c, 10, 69, 127
1, 93338, Note_off_c, 1, 49, 127
1, 93338, Note_off_c, 10, 45, 127
1, 93340, Note_on_c, 10, 45, 127
1, 93340, Note_on_c, 10, 57, 127
1, 93340, Note_on_c, 4, 76, 127
1, 93500, Note_on_c, 10, 69, 127
1, 93530, Note_off_c, 4, 76, 127
1, 93658, Note_off_c, 10, 69, 127
1, 93658, Note_off_c, 10, 57, 127
1, 93658, Note_off_c, 10, 45, 127
1, 93660, Note_on_c, 10, 45, 127
1, 93660, Note_on_c, 1, 49, 127
1, 93660, Note_on_c, 7, 67, 127
1, 93818, Note_off_c, 7, 67, 127
1, 93820, Note_on_c, 10, 69, 127
1, 93978, Note_off_c, 10, 69, 127
1, 93978, Note_off_c, 1, 49, 127
1, 93978, Note_off_c, 10, 45, 127
1, 93980, Note_on_c, 10, 45, 127
1, 93980, Note_on_c, 7, 79, 127
1, 94140, Note_on_c, 10, 69, 127
1, 94190, Note_off_c, 7, 79, 127
1, 94298, Note_off_c, 10, 69, 127
1, 94298, Note_off_c, 10, 45, 127
1, 94300, Note_on_c, 10, 45, 127
1, 94300, Note_on_c, 1, 49, 127
1, 94300, Note_on_c, 7, 67, 127
1, 94458, Note_off_c, 7, 67, 127
1, 94460, Note_on_c, 10, 69, 127
1, 94618, Note_off_c, 10, 69, 127
1, 94618, Note_off_c, 1, 49, 127
1, 94618, Note_off_c, 10, 45, 127
1, 94620, Note_on_c, 10, 57, 127
1, 94620, Note_on_c, 10, 45, 127
1, 94620, Note_on_c, 7, 79, 127
1, 94780, Note_on_c, 10, 69, 127
1, 94830, Note_off_c, 7, 79, 127
1, 94938, Note_off_c, 10, 69, 127
1, 94938, Note_off_c, 10, 45, 127
1, 94938, Note_off_c, 10, 57, 127
1, 94940, Note_on_c, 1, 49, 127
1, 94940, Note_on_c, 10, 45, 127
1, 94940, Note_on_c, 7, 67, 127
1, 95098, Note_off_c, 7, 67, 127
1, 95104, Note_on_c, 10, 69, 127
1, 95269, Note_off_c, 10, 69, 127
1, 95270, Note_off_c, 10, 45, 127
1, 95270, Note_off_c, 1, 49, 127
1, 95276, Note_on_c, 6, 78, 127
1, 95276, Note_on_c, 2, 50, 127
1, 95434, Note_off_c, 2, 50, 127
1, 95436, Note_on_c, 4, 52, 127
1, 95586, Note_off_c, 6, 78, 127
1, 95594, Note_off_c, 4, 52, 127
1, 95596, Note_on_c, 2, 74, 127
1, 95596, Note_on_c, 6, 54, 127
1, 95754, Note_off_c, 6, 54, 127
1, 95756, Note_on_c, 7, 55, 127
1, 95906, Note_off_c, 2, 74, 127
1, 95914, Note_off_c, 7, 55, 127
1, 95916, Note_on_c, 10, 69, 127
1, 95916, Note_on_c, 10, 57, 127
1, 96074, Note_off_c, 10, 57, 127
1, 96076, Note_on_c, 6, 54, 127
1, 96234, Note_off_c, 6, 54, 127
1, 96236, Note_on_c, 2, 74, 127
1, 96236, Note_on_c, 7, 55, 127
1, 96244, Note_off_c, 10, 69, 127
1, 96303, Note_off_c, 2, 74, 127
1, 96316, Note_on_c, 1, 73, 127
1, 96383, Note_off_c, 1, 73, 127
1, 96395, Note_off_c, 7, 55, 127
1, 96397, Note_on_c, 12, 71, 127
1, 96397, Note_on_c, 10, 57, 127
1, 96464, Note_off_c, 12, 71, 127
1, 96477, Note_on_c, 1, 73, 127
1, 96544, Note_off_c, 1, 73, 127
1, 96556, Note_off_c, 10, 57, 127
1, 96574, Note_on_c, 2, 50, 127
1, 96574, Note_on_c, 10, 69, 127
1, 96574, Note_on_c, 2, 74, 127
1, 96574, Note_on_c, 6, 66, 127
1, 96892, Note_off_c, 6, 66, 127
1, 96892, Note_off_c, 2, 74, 127
1, 96892, Note_off_c, 10, 69, 127
1, 96892, Note_off_c, 2, 50, 127
1, 96894, Note_on_c, 2, 50, 127
1, 96894, Note_on_c, 6, 66, 127
1, 96894, Note_on_c, 10, 69, 127
1, 96894, Note_on_c, 2, 74, 127
1, 97212, Note_off_c, 2, 74, 127
1, 97212, Note_off_c, 10, 69, 127
1, 97212, Note_off_c, 6, 66, 127
1, 97212, Note_off_c, 2, 50, 127
1, 97214, Note_on_c, 2, 50, 127
1, 97214, Note_on_c, 10, 69, 127
1, 97214, Note_on_c, 2, 74, 127
1, 97214, Note_on_c, 6, 66, 127
1, 97532, Note_off_c, 6, 66, 127
1, 97532, Note_off_c, 2, 74, 127
1, 97532, Note_off_c, 10, 69, 127
1, 97532, Note_off_c, 2, 50, 127
1, 97534, Note_on_c, 2, 50, 127
1, 97534, Note_on_c, 10, 57, 127
1, 97534, Note_on_c, 6, 66, 127
1, 97534, Note_on_c, 10, 69, 127
1, 97534, Note_on_c, 2, 74, 127
1, 97852, Note_off_c, 2, 74, 127
1, 97852, Note_off_c, 10, 69, 127
1, 97852, Note_off_c, 6, 66, 127
1, 97852, Note_off_c, 10, 57, 127
1, 97852, Note_off_c, 2, 50, 127
1, 97854, Note_on_c, 2, 62, 127
1, 97854, Note_on_c, 2, 50, 127
1, 97854, Note_on_c, 10, 57, 127
1, 97854, Note_on_c, 6, 54, 127
1, 97854, Note_on_c, 2, 74, 127
1, 98012, Note_off_c, 2, 74, 127
1, 98014, Note_on_c, 10, 69, 127
1, 98172, Note_off_c, 10, 69, 127
1, 98172, Note_off_c, 6, 54, 127
1, 98172, Note_off_c, 10, 57, 127
1, 98172, Note_off_c, 2, 50, 127
1, 98172, Note_off_c, 2, 62, 127
1, 98174, Note_on_c, 2, 62, 127
1, 98174, Note_on_c, 2, 50, 127
1, 98174, Note_on_c, 6, 54, 127
1, 98174, Note_on_c, 10, 57, 127
1, 98174, Note_on_c, 6, 66, 127
1, 98332, Note_off_c, 6, 66, 127
1, 98334, Note_on_c, 10, 69, 127
1, 98492, Note_off_c, 10, 69, 127
1, 98492, Note_off_c, 10, 57, 127
1, 98492, Note_off_c, 6, 54, 127
1, 98492, Note_off_c, 2, 50, 127
1, 98492, Note_off_c, 2, 62, 127
1, 98494, Note_on_c, 2, 62, 127
1, 98494, Note_on_c, 10, 57, 127
1, 98494, Note_on_c, 2, 50, 127
1, 98494, Note_on_c, 6, 54, 127
1, 98494, Note_on_c, 2, 74, 127
1, 98652, Note_off_c, 2, 74, 127
1, 98654, Note_on_c, 10, 69, 127
1, 98812, Note_off_c, 10, 69, 127
1, 98812, Note_off_c, 6, 54, 127
1, 98812, Note_off_c, 2, 50, 127
1, 98812, Note_off_c, 10, 57, 127
1, 98812, Note_off_c, 2, 62, 127
1, 98814, Note_on_c, 2, 62, 127
1, 98814, Note_on_c, 10, 57, 127
1, 98814, Note_on_c, 6, 54, 127
1, 98814, Note_on_c, 2, 50, 127
1, 98814, Note_on_c, 6, 66, 127
1, 98972, Note_off_c, 6, 66, 127
1, 98974, Note_on_c, 10, 69, 127
1, 99132, Note_off_c, 10, 69, 127
1, 99132, Note_off_c, 2, 50, 127
1, 99132, Note_off_c, 6, 54, 127
1, 99132, Note_off_c, 10, 57, 127
1, 99132, Note_off_c, 2, 62, 127
1, 99134, Note_on_c, 2, 62, 127
1, 99134, Note_on_c, 2, 50, 127
1, 99134, Note_on_c, 6, 66, 127
1, 99134, Note_on_c, 10, 69, 127
1, 99134, Note_on_c, 2, 74, 127
1, 99292, Note_off_c, 2, 50, 127
1, 99294, Note_on_c, 10, 57, 127
1, 99452, Note_off_c, 10, 57, 127
1, 99452, Note_off_c, 2, 74, 127
1, 99452, Note_off_c, 10, 69, 127
1, 99452, Note_off_c, 6, 66, 127
1, 99454, Note_on_c, 6, 54, 127
1, 99454, Note_on_c, 2, 74, 127
1, 99454, Note_on_c, 6, 66, 127
1, 99454, Note_on_c, 10, 69, 127
1, 99612, Note_off_c, 6, 54, 127
1, 99614, Note_on_c, 10, 57, 127
1, 99767, Note_off_c, 2, 62, 127
1, 99772, Note_off_c, 10, 57, 127
1, 99772, Note_off_c, 10, 69, 127
1, 99772, Note_off_c, 6, 66, 127
1, 99772, Note_off_c, 2, 74, 127
1, 99774, Note_on_c, 2, 62, 127
1, 99774, Note_on_c, 2, 74, 127
1, 99774, Note_on_c, 10, 69, 127
1, 99774, Note_on_c, 6, 66, 127
1, 99934, Note_on_c, 10, 57, 127
1, 100092, Note_off_c, 10, 57, 127
1, 100092, Note_off_c, 6, 66, 127
1, 100092, Note_off_c, 10, 69, 127
1, 100092, Note_off_c, 2, 74, 127
1, 100094, Note_on_c, 6, 54, 127
1, 100094, Note_on_c, 10, 69, 127
1, 100094, Note_on_c, 2, 74, 127
1, 100094, Note_on_c, 6, 66, 127
1, 100252, Note_off_c, 6, 54, 127
1, 100254, Note_on_c, 10, 57, 127
1, 100407, Note_off_c, 2, 62, 127
1, 100412, Note_off_c, 10, 57, 127
1, 100412, Note_off_c, 6, 66, 127
1, 100412, Note_off_c, 2, 74, 127
1, 100412, Note_off_c, 10, 69, 127
1, 100414, Note_on_c, 10, 57, 127
1, 100414, Note_on_c, 2, 62, 127
1, 100414, Note_on_c, 2, 50, 127
1, 100414, Note_on_c, 6, 54, 127
1, 100414, Note_on_c, 2, 74, 127
1, 100572, Note_off_c, 2, 74, 127
1, 100574, Note_on_c, 10, 69, 127
1, 100732, Note_off_c, 10, 69, 127
1, 100732, Note_off_c, 6, 54, 127
1, 100732, Note_off_c, 2, 50, 127
1, 100732, Note_off_c, 2, 62, 127
1, 100732, Note_off_c, 10, 57, 127
1, 100734, Note_on_c, 2, 62, 127
1, 100734, Note_on_c, 2, 50, 127
1, 100734, Note_on_c, 10, 57, 127
1, 100734, Note_on_c, 6, 54, 127
1, 100734, Note_on_c, 6, 66, 127
1, 100892, Note_off_c, 6, 66, 127
1, 100894, Note_on_c, 10, 69, 127
1, 101052, Note_off_c, 10, 69, 127
1, 101052, Note_off_c, 6, 54, 127
1, 101052, Note_off_c, 10, 57, 127
1, 101052, Note_off_c, 2, 50, 127
1, 101052, Note_off_c, 2, 62, 127
1, 101054, Note_on_c, 10, 57, 127
1, 101054, Note_on_c, 2, 62, 127
1, 101054, Note_on_c, 2, 50, 127
1, 101054, Note_on_c, 6, 54, 127
1, 101054, Note_on_c, 2, 74, 127
1, 101212, Note_off_c, 2, 74, 127
1, 101214, Note_on_c, 10, 69, 127
1, 101372, Note_off_c, 10, 69, 127
1, 101372, Note_off_c, 6, 54, 127
1, 101372, Note_off_c, 2, 50, 127
1, 101372, Note_off_c, 2, 62, 127
1, 101372, Note_off_c, 10, 57, 127
1, 101374, Note_on_c, 2, 62, 127
1, 101374, Note_on_c, 10, 57, 127
1, 101374, Note_on_c, 2, 50, 127
1, 101374, Note_on_c, 6, 54, 127
1, 101374, Note_on_c, 6, 66, 127
1, 101532, Note_off_c, 6, 66, 127
1, 101534, Note_on_c, 10, 69, 127
1, 101692, Note_off_c, 10, 69, 127
1, 101692, Note_off_c, 6, 54, 127
1, 101692, Note_off_c, 2, 50, 127
1, 101692, Note_off_c, 10, 57, 127
1, 101692, Note_off_c, 2, 62, 127
1, 101694, Note_on_c, 2, 50, 127
1, 101694, Note_on_c, 2, 74, 127
1, 101694, Note_on_c, 6, 66, 127
1, 101772, Note_off_c, 2, 50, 127
1, 101774, Note_on_c, 6, 54, 127
1, 101852, Note_off_c, 6, 54, 127
1, 101854, Note_on_c, 10, 57, 127
1, 101932, Note_off_c, 10, 57, 127
1, 101934, Note_on_c, 1, 61, 127
1, 102012, Note_off_c, 1, 61, 127
1, 102012, Note_off_c, 6, 66, 127
1, 102012, Note_off_c, 2, 74, 127
1, 102014, Note_on_c, 2, 62, 127
1, 102014, Note_on_c, 4, 76, 127
1, 102014, Note_on_c, 7, 67, 127
1, 102172, Note_off_c, 7, 67, 127
1, 102172, Note_off_c, 4, 76, 127
1, 102172, Note_off_c, 2, 62, 127
1, 102174, Note_on_c, 12, 59, 127
1, 102174, Note_on_c, 6, 78, 127
1, 102174, Note_on_c, 10, 69, 127
1, 102332, Note_off_c, 10, 69, 127
1, 102332, Note_off_c, 6, 78, 127
1, 102332, Note_off_c, 12, 59, 127
1, 102334, Note_on_c, 7, 55, 127
1, 102334, Note_on_c, 7, 67, 127
1, 102334, Note_on_c, 4, 76, 127
1, 102492, Note_off_c, 7, 55, 127
1, 102494, Note_on_c, 10, 57, 127
1, 102652, Note_off_c, 10, 57, 127
1, 102652, Note_off_c, 4, 76, 127
1, 102652, Note_off_c, 7, 67, 127
1, 102654, Note_on_c, 12, 59, 127
1, 102654, Note_on_c, 2, 74, 127
1, 102654, Note_on_c, 6, 66, 127
1, 102812, Note_off_c, 12, 59, 127
1, 102814, Note_on_c, 7, 55, 127
1, 102972, Note_off_c, 7, 55, 127
1, 102972, Note_off_c, 6, 66, 127
1, 102972, Note_off_c, 2, 74, 127
1, 102980, Note_on_c, 4, 64, 127
1, 102980, Note_on_c, 10, 57, 127
1, 102980, Note_on_c, 1, 73, 127
1, 103158, Note_on_c, 10, 69, 127
1, 103170, Note_off_c, 1, 73, 127
1, 103298, Note_off_c, 10, 57, 127
1, 103302, Note_on_c, 10, 57, 127
1, 103302, Note_on_c, 1, 73, 127
1, 103316, Note_off_c, 10, 69, 127
1, 103460, Note_off_c, 1, 73, 127
1, 103462, Note_on_c, 4, 76, 127
1, 103620, Note_off_c, 4, 76, 127
1, 103620, Note_off_c, 10, 57, 127
1, 103622, Note_on_c, 10, 57, 127
1, 103622, Note_on_c, 1, 73, 127
1, 103780, Note_off_c, 1, 73, 127
1, 103782, Note_on_c, 10, 69, 127
1, 103940, Note_off_c, 10, 69, 127
1, 103940, Note_off_c, 10, 57, 127
1, 103942, Note_on_c, 10, 57, 127
1, 103942, Note_on_c, 1, 73, 127
1, 104100, Note_off_c, 1, 73, 127
1, 104102, Note_on_c, 4, 76, 127
1, 104258, Note_off_c, 4, 64, 127
1, 104260, Note_off_c, 4, 76, 127
1, 104260, Note_off_c, 10, 57, 127
1, 104262, Note_on_c, 1, 49, 127
1, 104262, Note_on_c, 7, 79, 127
1, 104262, Note_on_c, 10, 69, 127
1, 104262, Note_on_c, 1, 73, 127
1, 104262, Note_on_c, 4, 76, 127
1, 104420, Note_off_c, 1, 49, 127
1, 104422, Note_on_c, 10, 45, 127
1, 104580, Note_off_c, 10, 45, 127
1, 104580, Note_off_c, 4, 76, 127
1, 104580, Note_off_c, 1, 73, 127
1, 104580, Note_off_c, 10, 69, 127
1, 104580, Note_off_c, 7, 79, 127
1, 104582, Note_on_c, 1, 49, 127
1, 104582, Note_on_c, 7, 79, 127
1, 104582, Note_on_c, 10, 69, 127
1, 104582, Note_on_c, 1, 73, 127
1, 104582, Note_on_c, 4, 76, 127
1, 104740, Note_off_c, 1, 49, 127
1, 104742, Note_on_c, 4, 52, 127
1, 104900, Note_off_c, 4, 52, 127
1, 104900, Note_off_c, 4, 76, 127
1, 104900, Note_off_c, 1, 73, 127
1, 104900, Note_off_c, 10, 69, 127
1, 104900, Note_off_c, 7, 79, 127
1, 104902, Note_on_c, 1, 49, 127
1, 104902, Note_on_c, 4, 76, 127
1, 104902, Note_on_c, 7, 79, 127
1, 104902, Note_on_c, 1, 73, 127
1, 104902, Note_on_c, 10, 69, 127
1, 105060, Note_off_c, 1, 49, 127
1, 105062, Note_on_c, 10, 45, 127
1, 105220, Note_off_c, 10, 45, 127
1, 105220, Note_off_c, 10, 69, 127
1, 105220, Note_off_c, 1, 73, 127
1, 105220, Note_off_c, 7, 79, 127
1, 105220, Note_off_c, 4, 76, 127
1, 105222, Note_on_c, 1, 49, 127
1, 105222, Note_on_c, 7, 79, 127
1, 105222, Note_on_c, 4, 76, 127
1, 105222, Note_on_c, 1, 73, 127
1, 105222, Note_on_c, 10, 69, 127
1, 105380, Note_off_c, 1, 49, 127
1, 105382, Note_on_c, 4, 52, 127
1, 105540, Note_off_c, 4, 52, 127
1, 105540, Note_off_c, 10, 69, 127
1, 105540, Note_off_c, 1, 73, 127
1, 105540, Note_off_c, 4, 76, 127
1, 105540, Note_off_c, 7, 79, 127
1, 105542, Note_on_c, 7, 55, 127
1, 105542, Note_on_c, 1, 73, 127
1, 105700, Note_off_c, 1, 73, 127
1, 105702, Note_on_c, 10, 69, 127
1, 105860, Note_off_c, 10, 69, 127
1, 105860, Note_off_c, 7, 55, 127
1, 105862, Note_on_c, 7, 55, 127
1, 105862, Note_on_c, 1, 73, 127
1, 106020, Note_off_c, 1, 73, 127
1, 106022, Note_on_c, 4, 76, 127
1, 106180, Note_off_c, 4, 76, 127
1, 106180, Note_off_c, 7, 55, 127
1, 106182, Note_on_c, 7, 55, 127
1, 106182, Note_on_c, 1, 73, 127
1, 106340, Note_off_c, 1, 73, 127
1, 106342, Note_on_c, 10, 69, 127
1, 106500, Note_off_c, 10, 69, 127
1, 106500, Note_off_c, 7, 55, 127
1, 106502, Note_on_c, 7, 55, 127
1, 106502, Note_on_c, 1, 73, 127
1, 106660, Note_off_c, 1, 73, 127
1, 106662, Note_on_c, 4, 76, 127
1, 106820, Note_off_c, 4, 76, 127
1, 106820, Note_off_c, 7, 55, 127
1, 106822, Note_on_c, 1, 49, 127
1, 106822, Note_on_c, 7, 79, 127
1, 106822, Note_on_c, 10, 69, 127
1, 106822, Note_on_c, 1, 73, 127
1, 106822, Note_on_c, 4, 76, 127
1, 106980, Note_off_c, 1, 49, 127
1, 106982, Note_on_c, 10, 45, 127
1, 107140, Note_off_c, 10, 45, 127
1, 107140, Note_off_c, 4, 76, 127
1, 107140, Note_off_c, 1, 73, 127
1, 107140, Note_off_c, 10, 69, 127
1, 107140, Note_off_c, 7, 79, 127
1, 107142, Note_on_c, 1, 49, 127
1, 107142, Note_on_c, 1, 73, 127
1, 107142, Note_on_c, 4, 76, 127
1, 107142, Note_on_c, 7, 79, 127
1, 107142, Note_on_c, 10, 69, 127
1, 107300, Note_off_c, 1, 49, 127
1, 107302, Note_on_c, 4, 52, 127
1, 107460, Note_off_c, 4, 52, 127
1, 107460, Note_off_c, 10, 69, 127
1, 107460, Note_off_c, 7, 79, 127
1, 107460, Note_off_c, 4, 76, 127
1, 107460, Note_off_c, 1, 73, 127
1, 107462, Note_on_c, 1, 49, 127
1, 107462, Note_on_c, 7, 79, 127
1, 107462, Note_on_c, 4, 76, 127
1, 107462, Note_on_c, 10, 69, 127
1, 107462, Note_on_c, 1, 73, 127
1, 107620, Note_off_c, 1, 49, 127
1, 107622, Note_on_c, 10, 45, 127
1, 107780, Note_off_c, 10, 45, 127
1, 107780, Note_off_c, 1, 73, 127
1, 107780, Note_off_c, 10, 69, 127
1, 107780, Note_off_c, 4, 76, 127
1, 107780, Note_off_c, 7, 79, 127
1, 107782, Note_on_c, 1, 49, 127
1, 107782, Note_on_c, 7, 79, 127
1, 107782, Note_on_c, 10, 69, 127
1, 107782, Note_on_c, 4, 76, 127
1, 107782, Note_on_c, 1, 73, 127
1, 107940, Note_off_c, 1, 49, 127
1, 107942, Note_on_c, 4, 52, 127
1, 108100, Note_off_c, 4, 52, 127
1, 108100, Note_off_c, 1, 73, 127
1, 108100, Note_off_c, 4, 76, 127
1, 108100, Note_off_c, 10, 69, 127
1, 108100, Note_off_c, 7, 79, 127
1, 108102, Note_on_c, 2, 50, 127
1, 108102, Note_on_c, 10, 69, 127
1, 108102, Note_on_c, 6, 78, 127
1, 108102, Note_on_c, 2, 74, 127
1, 108180, Note_off_c, 2, 50, 127
1, 108182, Note_on_c, 4, 52, 127
1, 108260, Note_off_c, 4, 52, 127
1, 108262, Note_on_c, 6, 54, 127
1, 108340, Note_off_c, 6, 54, 127
1, 108342, Note_on_c, 7, 55, 127
1, 108420, Note_off_c, 7, 55, 127
1, 108420, Note_off_c, 2, 74, 127
1, 108420, Note_off_c, 6, 78, 127
1, 108420, Note_off_c, 10, 69, 127
1, 108422, Note_on_c, 10, 57, 127
1, 108422, Note_on_c, 2, 74, 127
1, 108422, Note_on_c, 6, 66, 127
1, 108422, Note_on_c, 10, 69, 127
1, 108580, Note_off_c, 10, 57, 127
1, 108582, Note_on_c, 6, 54, 127
1, 108739, Note_off_c, 10, 69, 127
1, 108739, Note_off_c, 6, 66, 127
1, 108739, Note_off_c, 2, 74, 127
1, 108741, Note_off_c, 6, 54, 127
1, 108743, Note_on_c, 2, 50, 127
1, 108901, Note_off_c, 2, 50, 127
1, 108903, Note_on_c, 6, 54, 127
1, 109061, Note_off_c, 6, 54, 127
1, 109063, Note_on_c, 0, 48, 127
1, 109063, Note_on_c, 2, 62, 127
1, 109221, Note_off_c, 0, 48, 127
1, 109223, Note_on_c, 6, 54, 127
1, 109381, Note_off_c, 6, 54, 127
1, 109381, Note_off_c, 2, 62, 127
1, 109383, Note_on_c, 12, 47, 127
1, 109383, Note_on_c, 7, 67, 127
1, 109541, Note_off_c, 7, 67, 127
1, 109543, Note_on_c, 2, 62, 127
1, 109701, Note_off_c, 2, 62, 127
1, 109701, Note_off_c, 12, 47, 127
1, 109703, Note_on_c, 12, 47, 127
1, 109703, Note_on_c, 7, 55, 127
1, 109703, Note_on_c, 0, 60, 127
1, 109861, Note_off_c, 0, 60, 127
1, 109863, Note_on_c, 2, 62, 127
1, 110021, Note_off_c, 2, 62, 127
1, 110021, Note_off_c, 7, 55, 127
1, 110021, Note_off_c, 12, 47, 127
1, 110023, Note_on_c, 12, 47, 127
1, 110023, Note_on_c, 2, 50, 127
1, 110023, Note_on_c, 7, 67, 127
1, 110181, Note_off_c, 7, 67, 127
1, 110183, Note_on_c, 2, 62, 127
1, 110341, Note_off_c, 2, 62, 127
1, 110341, Note_off_c, 2, 50, 127
1, 110341, Note_off_c, 12, 47, 127
1, 110343, Note_on_c, 7, 55, 127
1, 110343, Note_on_c, 12, 47, 127
1, 110343, Note_on_c, 0, 60, 127
1, 110501, Note_off_c, 0, 60, 127
1, 110503, Note_on_c, 2, 62, 127
1, 110661, Note_off_c, 2, 62, 127
1, 110661, Note_off_c, 12, 47, 127
1, 110661, Note_off_c, 7, 55, 127
1, 110663, Note_on_c, 12, 47, 127
1, 110663, Note_on_c, 2, 50, 127
1, 110663, Note_on_c, 7, 67, 127
1, 110821, Note_off_c, 7, 67, 127
1, 110821, Note_off_c, 12, 47, 127
1, 110823, Note_on_c, 10, 45, 127
1, 110823, Note_on_c, 10, 69, 127
1, 110980, Note_off_c, 2, 50, 127
1, 110982, Note_off_c, 10, 69, 127
1, 110982, Note_off_c, 10, 45, 127
1, 110984, Note_on_c, 7, 43, 127
1, 110984, Note_on_c, 12, 71, 127
1, 111142, Note_off_c, 12, 71, 127
1, 111142, Note_off_c, 7, 43, 127
1, 111144, Note_on_c, 10, 45, 127
1, 111144, Note_on_c, 0, 72, 127
1, 111302, Note_off_c, 0, 72, 127
1, 111302, Note_off_c, 10, 45, 127
1, 111304, Note_on_c, 12, 47, 127
1, 111304, Note_on_c, 2, 74, 127
1, 111462, Note_off_c, 12, 47, 127
1, 111464, Note_on_c, 0, 48, 127
1, 111622, Note_off_c, 0, 48, 127
1, 111622, Note_off_c, 2, 74, 127
1, 111624, Note_on_c, 2, 50, 127
1, 111624, Note_on_c, 5, 65, 127
1, 111782, Note_off_c, 2, 50, 127
1, 111784, Note_on_c, 12, 47, 127
1, 111924, Note_off_c, 5, 65, 127
1, 111942, Note_off_c, 12, 47, 127
1, 111944, Note_on_c, 0, 48, 127
1, 111944, Note_on_c, 4, 64, 127
1, 112102, Note_off_c, 4, 64, 127
1, 112104, Note_on_c, 0, 60, 127
1, 112262, Note_off_c, 0, 60, 127
1, 112262, Note_off_c, 0, 48, 127
1, 112264, Note_on_c, 0, 48, 127
1, 112264, Note_on_c, 4, 52, 127
1, 112264, Note_on_c, 12, 59, 127
1, 112422, Note_off_c, 12, 59, 127
1, 112424, Note_on_c, 0, 60, 127
1, 112582, Note_off_c, 0, 60, 127
1, 112582, Note_off_c, 4, 52, 127
1, 112582, Note_off_c, 0, 48, 127
1, 112584, Note_on_c, 7, 55, 127
1, 112584, Note_on_c, 0, 48, 127
1, 112584, Note_on_c, 4, 64, 127
1, 112742, Note_off_c, 4, 64, 127
1, 112744, Note_on_c, 0, 60, 127
1, 112902, Note_off_c, 0, 60, 127
1, 112902, Note_off_c, 0, 48, 127
1, 112902, Note_off_c, 7, 55, 127
1, 112904, Note_on_c, 4, 52, 127
1, 112904, Note_on_c, 0, 48, 127
1, 112904, Note_on_c, 12, 59, 127
1, 113062, Note_off_c, 12, 59, 127
1, 113064, Note_on_c, 0, 60, 127
1, 113222, Note_off_c, 0, 60, 127
1, 113222, Note_off_c, 0, 48, 127
1, 113222, Note_off_c, 4, 52, 127
1, 113224, Note_on_c, 1, 49, 127
1, 113224, Note_on_c, 4, 52, 127
1, 113224, Note_on_c, 10, 69, 127
1, 113382, Note_off_c, 10, 69, 127
1, 113382, Note_off_c, 1, 49, 127
1, 113384, Note_on_c, 12, 47, 127
1, 113384, Note_on_c, 12, 71, 127
1, 113541, Note_off_c, 4, 52, 127
1, 113543, Note_off_c, 12, 71, 127
1, 113543, Note_off_c, 12, 47, 127
1, 113545, Note_on_c, 10, 45, 127
1, 113545, Note_on_c, 1, 73, 127
1, 113703, Note_off_c, 1, 73, 127
1, 113703, Note_off_c, 10, 45, 127
1, 113705, Note_on_c, 12, 47, 127
1, 113705, Note_on_c, 2, 74, 127
1, 113863, Note_off_c, 2, 74, 127
1, 113863, Note_off_c, 12, 47, 127
1, 113865, Note_on_c, 1, 49, 127
1, 113865, Note_on_c, 4, 76, 127
1, 114023, Note_off_c, 1, 49, 127
1, 114025, Note_on_c, 2, 50, 127
1, 114175, Note_off_c, 4, 76, 127
1, 114183, Note_off_c, 2, 50, 127
1, 114185, Note_on_c, 4, 52, 127
1, 114185, Note_on_c, 7, 67, 127
1, 114343, Note_off_c, 4, 52, 127
1, 114345, Note_on_c, 1, 49, 127
1, 114475, Note_off_c, 7, 67, 127
1, 114503, Note_off_c, 1, 49, 127
1, 114505, Note_on_c, 2, 50, 127
1, 114505, Note_on_c, 6, 66, 127
1, 114663, Note_off_c, 6, 66, 127
1, 114665, Note_on_c, 2, 62, 127
1, 114823, Note_off_c, 2, 62, 127
1, 114823, Note_off_c, 2, 50, 127
1, 114825, Note_on_c, 6, 54, 127
1, 114825, Note_on_c, 2, 50, 127
1, 114825, Note_on_c, 1, 61, 127
1, 114983, Note_off_c, 1, 61, 127
1, 114985, Note_on_c, 2, 62, 127
1, 115143, Note_off_c, 2, 62, 127
1, 115143, Note_off_c, 2, 50, 127
1, 115143, Note_off_c, 6, 54, 127
1, 115145, Note_on_c, 2, 50, 127
1, 115145, Note_on_c, 10, 57, 127
1, 115145, Note_on_c, 6, 66, 127
1, 115303, Note_off_c, 6, 66, 127
1, 115305, Note_on_c, 2, 62, 127
1, 115463, Note_off_c, 2, 62, 127
1, 115463, Note_off_c, 10, 57, 127
1, 115463, Note_off_c, 2, 50, 127
1, 115465, Note_on_c, 6, 54, 127
1, 115465, Note_on_c, 2, 50, 127
1, 115465, Note_on_c, 1, 61, 127
1, 115623, Note_off_c, 1, 61, 127
1, 115625, Note_on_c, 2, 62, 127
1, 115783, Note_off_c, 2, 62, 127
1, 115783, Note_off_c, 2, 50, 127
1, 115783, Note_off_c, 6, 54, 127
1, 115785, Note_on_c, 6, 54, 127
1, 115785, Note_on_c, 3, 51, 127
1, 115785, Note_on_c, 12, 71, 127
1, 115943, Note_off_c, 12, 71, 127
1, 115943, Note_off_c, 3, 51, 127
1, 115945, Note_on_c, 1, 49, 127
1, 115945, Note_on_c, 1, 73, 127
1, 116102, Note_off_c, 6, 54, 127
1, 116104, Note_off_c, 1, 73, 127
1, 116104, Note_off_c, 1, 49, 127
1, 116106, Note_on_c, 12, 47, 127
1, 116106, Note_on_c, 3, 75, 127
1, 116264, Note_off_c, 3, 75, 127
1, 116264, Note_off_c, 12, 47, 127
1, 116266, Note_on_c, 1, 49, 127
1, 116266, Note_on_c, 4, 76, 127
1, 116424, Note_off_c, 4, 76, 127
1, 116424, Note_off_c, 1, 49, 127
1, 116426, Note_on_c, 3, 51, 127
1, 116426, Note_on_c, 6, 78, 127
1, 116584, Note_off_c, 3, 51, 127
1, 116586, Note_on_c, 4, 52, 127
1, 116736, Note_off_c, 6, 78, 127
1, 116744, Note_off_c, 4, 52, 127
1, 116746, Note_on_c, 6, 54, 127
1, 116746, Note_on_c, 10, 69, 127
1, 116904, Note_off_c, 6, 54, 127
1, 116906, Note_on_c, 3, 51, 127
1, 117036, Note_off_c, 10, 69, 127
1, 117064, Note_off_c, 3, 51, 127
1, 117066, Note_on_c, 4, 52, 127
1, 117066, Note_on_c, 7, 67, 127
1, 117224, Note_off_c, 7, 67, 127
1, 117226, Note_on_c, 4, 64, 127
1, 117384, Note_off_c, 4, 64, 127
1, 117384, Note_off_c, 4, 52, 127
1, 117386, Note_on_c, 7, 55, 127
1, 117386, Note_on_c, 4, 52, 127
1, 117386, Note_on_c, 3, 63, 127
1, 117544, Note_off_c, 3, 63, 127
1, 117546, Note_on_c, 4, 64, 127
1, 117704, Note_off_c, 4, 64, 127
1, 117704, Note_off_c, 4, 52, 127
1, 117704, Note_off_c, 7, 55, 127
1, 117706, Note_on_c, 4, 52, 127
1, 117706, Note_on_c, 12, 59, 127
1, 117706, Note_on_c, 7, 67, 127
1, 117864, Note_off_c, 7, 67, 127
1, 117866, Note_on_c, 4, 64, 127
1, 118024, Note_off_c, 4, 64, 127
1, 118024, Note_off_c, 12, 59, 127
1, 118024, Note_off_c, 4, 52, 127
1, 118026, Note_on_c, 7, 55, 127
1, 118026, Note_on_c, 4, 52, 127
1, 118026, Note_on_c, 3, 63, 127
1, 118184, Note_off_c, 3, 63, 127
1, 118186, Note_on_c, 4, 64, 127
1, 118344, Note_off_c, 4, 64, 127
1, 118344, Note_off_c, 4, 52, 127
1, 118344, Note_off_c, 7, 55, 127
1, 118346, Note_on_c, 7, 55, 127
1, 118346, Note_on_c, 4, 52, 127
1, 118346, Note_on_c, 1, 73, 127
1, 118504, Note_off_c, 1, 73, 127
1, 118504, Note_off_c, 4, 52, 127
1, 118506, Note_on_c, 2, 50, 127
1, 118506, Note_on_c, 2, 74, 127
1, 118663, Note_off_c, 7, 55, 127
1, 118665, Note_off_c, 2, 74, 127
1, 118665, Note_off_c, 2, 50, 127
1, 118667, Note_on_c, 1, 49, 127
1, 118667, Note_on_c, 4, 76, 127
1, 118825, Note_off_c, 4, 76, 127
1, 118825, Note_off_c, 1, 49, 127
1, 118827, Note_on_c, 2, 50, 127
1, 118827, Note_on_c, 6, 78, 127
1, 118985, Note_off_c, 6, 78, 127
1, 118985, Note_off_c, 2, 50, 127
1, 118987, Note_on_c, 4, 52, 127
1, 118987, Note_on_c, 7, 79, 127
1, 119145, Note_off_c, 4, 52, 127
1, 119147, Note_on_c, 6, 54, 127
1, 119305, Note_off_c, 6, 54, 127
1, 119307, Note_on_c, 7, 55, 127
1, 119307, Note_on_c, 12, 71, 127
1, 119349, Note_off_c, 7, 79, 127
1, 119465, Note_off_c, 7, 55, 127
1, 119467, Note_on_c, 4, 52, 127
1, 119617, Note_off_c, 12, 71, 127
1, 119625, Note_off_c, 4, 52, 127
1, 119627, Note_on_c, 6, 54, 127
1, 119627, Note_on_c, 11, 70, 127
1, 119785, Note_off_c, 11, 70, 127
1, 119787, Note_on_c, 6, 66, 127
1, 119945, Note_off_c, 6, 66, 127
1, 119945, Note_off_c, 6, 54, 127
1, 119947, Note_on_c, 11, 58, 127
1, 119947, Note_on_c, 6, 54, 127
1, 119947, Note_on_c, 7, 67, 127
1, 120105, Note_off_c, 7, 67, 127
1, 120107, Note_on_c, 6, 66, 127
1, 120265, Note_off_c, 6, 66, 127
1, 120265, Note_off_c, 6, 54, 127
1, 120265, Note_off_c, 11, 58, 127
1, 120267, Note_on_c, 6, 54, 127
1, 120267, Note_on_c, 1, 61, 127
1, 120267, Note_on_c, 1, 73, 127
1, 120427, Note_on_c, 6, 66, 127
1, 120584, Note_off_c, 1, 73, 127
1, 120586, Note_off_c, 6, 66, 127
1, 120586, Note_off_c, 1, 61, 127
1, 120586, Note_off_c, 6, 54, 127
1, 120588, Note_on_c, 11, 58, 127
1, 120588, Note_on_c, 6, 54, 127
1, 120588, Note_on_c, 7, 67, 127
1, 120746, Note_off_c, 7, 67, 127
1, 120748, Note_on_c, 6, 66, 127
1, 120906, Note_off_c, 6, 66, 127
1, 120906, Note_off_c, 6, 54, 127
1, 120906, Note_off_c, 11, 58, 127
1, 120908, Note_on_c, 6, 54, 127
1, 120908, Note_on_c, 4, 64, 127
1, 121068, Note_on_c, 6, 66, 127
1, 121225, Note_off_c, 4, 64, 127
1, 121227, Note_off_c, 6, 66, 127
1, 121227, Note_off_c, 6, 54, 127
1, 121229, Note_on_c, 6, 54, 127
1, 121229, Note_on_c, 11, 58, 127
1, 121229, Note_on_c, 7, 67, 127
1, 121387, Note_off_c, 7, 67, 127
1, 121389, Note_on_c, 6, 66, 127
1, 121547, Note_off_c, 6, 66, 127
1, 121547, Note_off_c, 11, 58, 127
1, 121547, Note_off_c, 6, 54, 127
1, 121549, Note_on_c, 4, 64, 127
1, 121549, Note_on_c, 6, 54, 127
1, 121549, Note_on_c, 1, 73, 127
1, 121709, Note_on_c, 6, 66, 127
1, 121866, Note_off_c, 1, 73, 127
1, 121868, Note_off_c, 6, 66, 127
1, 121868, Note_off_c, 6, 54, 127
1, 121868, Note_off_c, 4, 64, 127
1, 121870, Note_on_c, 11, 58, 127
1, 121870, Note_on_c, 6, 54, 127
1, 121870, Note_on_c, 7, 67, 127
1, 122028, Note_off_c, 7, 67, 127
1, 122030, Note_on_c, 6, 66, 127
1, 122188, Note_off_c, 6, 66, 127
1, 122188, Note_off_c, 6, 54, 127
1, 122188, Note_off_c, 11, 58, 127
1, 122190, Note_on_c, 6, 54, 127
1, 122190, Note_on_c, 4, 64, 127
1, 122350, Note_on_c, 6, 66, 127
1, 122507, Note_off_c, 4, 64, 127
1, 122509, Note_off_c, 6, 66, 127
1, 122509, Note_off_c, 6, 54, 127
1, 122511, Note_on_c, 11, 58, 127
1, 122511, Note_on_c, 6, 54, 127
1, 122511, Note_on_c, 7, 67, 127
1, 122669, Note_off_c, 7, 67, 127
1, 122671, Note_on_c, 6, 66, 127
1, 122829, Note_off_c, 6, 66, 127
1, 122829, Note_off_c, 6, 54, 127
1, 122829, Note_off_c, 11, 58, 127
1, 122831, Note_on_c, 4, 64, 127
1, 122831, Note_on_c, 6, 54, 127
1, 122831, Note_on_c, 1, 73, 127
1, 122991, Note_on_c, 6, 66, 127
1, 123148, Note_off_c, 1, 73, 127
1, 123150, Note_off_c, 6, 66, 127
1, 123150, Note_off_c, 6, 54, 127
1, 123150, Note_off_c, 4, 64, 127
1, 123152, Note_on_c, 11, 58, 127
1, 123152, Note_on_c, 6, 54, 127
1, 123152, Note_on_c, 7, 67, 127
1, 123310, Note_off_c, 7, 67, 127
1, 123312, Note_on_c, 6, 66, 127
1, 123470, Note_off_c, 6, 54, 127
1, 123470, Note_off_c, 11, 58, 127
1, 123472, Note_on_c, 6, 54, 127
1, 123472, Note_on_c, 4, 76, 127
1, 123629, Note_off_c, 6, 66, 127
1, 123632, Note_on_c, 6, 66, 127
1, 123790, Note_off_c, 6, 66, 127
1, 123790, Note_off_c, 6, 54, 127
1, 123792, Note_on_c, 11, 58, 127
1, 123792, Note_on_c, 6, 54, 127
1, 123792, Note_on_c, 7, 67, 127
1, 123872, Note_off_c, 4, 76, 127
1, 123950, Note_off_c, 7, 67, 127
1, 123952, Note_on_c, 6, 66, 127
1, 124110, Note_off_c, 6, 54, 127
1, 124110, Note_off_c, 11, 58, 127
1, 124112, Note_on_c, 1, 61, 127
1, 124112, Note_on_c, 6, 54, 127
1, 124112, Note_on_c, 4, 76, 127
1, 124269, Note_off_c, 6, 66, 127
1, 124272, Note_on_c, 6, 66, 127
1, 124430, Note_off_c, 6, 66, 127
1, 124430, Note_off_c, 6, 54, 127
1, 124430, Note_off_c, 1, 61, 127
1, 124432, Note_on_c, 11, 58, 127
1, 124432, Note_on_c, 6, 54, 127
1, 124432, Note_on_c, 7, 67, 127
1, 124512, Note_off_c, 4, 76, 127
1, 124590, Note_off_c, 7, 67, 127
1, 124592, Note_on_c, 6, 66, 127
1, 124760, Note_off_c, 6, 54, 127
1, 124760, Note_off_c, 11, 58, 127
1, 124760, Note_on_c, 2, 74, 127
1, 124760, Note_on_c, 12, 59, 127
1, 124918, Note_off_c, 12, 59, 127
1, 124920, Note_on_c, 6, 54, 127
1, 125059, Note_off_c, 6, 66, 127
1, 125079, Note_off_c, 6, 54, 127
1, 125079, Note_off_c, 2, 74, 127
1, 125081, Note_on_c, 1, 73, 127
1, 125081, Note_on_c, 4, 64, 127
1, 125081, Note_on_c, 7, 55, 127
1, 125239, Note_off_c, 7, 55, 127
1, 125239, Note_off_c, 4, 64, 127
1, 125239, Note_off_c, 1, 73, 127
1, 125241, Note_on_c, 2, 62, 127
1, 125241, Note_on_c, 12, 71, 127
1, 125241, Note_on_c, 4, 52, 127
1, 125399, Note_off_c, 4, 52, 127
1, 125399, Note_off_c, 12, 71, 127
1, 125399, Note_off_c, 2, 62, 127
1, 125401, Note_on_c, 12, 71, 127
1, 125401, Note_on_c, 1, 61, 127
1, 125401, Note_on_c, 6, 54, 127
1, 125451, Note_off_c, 12, 71, 127
1, 125458, Note_on_c, 11, 70, 127
1, 125508, Note_off_c, 11, 70, 127
1, 125515, Note_on_c, 12, 71, 127
1, 125560, Note_off_c, 6, 54, 127
1, 125562, Note_on_c, 2, 50, 127
1, 125565, Note_off_c, 12, 71, 127
1, 125572, Note_on_c, 11, 70, 127
1, 125720, Note_off_c, 2, 50, 127
1, 125722, Note_on_c, 4, 52, 127
1, 125880, Note_off_c, 4, 52, 127
1, 125880, Note_off_c, 1, 61, 127
1, 125882, Note_on_c, 12, 71, 127
1, 125882, Note_on_c, 6, 54, 127
1, 125889, Note_off_c, 11, 70, 127
1, 126041, Note_off_c, 6, 54, 127
1, 126041, Note_off_c, 12, 71, 127
1, 126043, Note_on_c, 6, 66, 127
1, 126043, Note_on_c, 2, 62, 127
1, 126043, Note_on_c, 12, 71, 127
1, 126043, Note_on_c, 12, 47, 127
1, 126361, Note_off_c, 12, 47, 127
1, 126361, Note_off_c, 12, 71, 127
1, 126361, Note_off_c, 2, 62, 127
1, 126361, Note_off_c, 6, 66, 127
1, 126363, Note_on_c, 6, 66, 127
1, 126363, Note_on_c, 12, 71, 127
1, 126363, Note_on_c, 2, 62, 127
1, 126363, Note_on_c, 12, 47, 127
1, 126681, Note_off_c, 12, 47, 127
1, 126681, Note_off_c, 2, 62, 127
1, 126681, Note_off_c, 12, 71, 127
1, 126681, Note_off_c, 6, 66, 127
1, 126683, Note_on_c, 6, 66, 127
1, 126683, Note_on_c, 2, 62, 127
1, 126683, Note_on_c, 12, 71, 127
1, 126683, Note_on_c, 12, 47, 127
1, 127001, Note_off_c, 12, 47, 127
1, 127001, Note_off_c, 12, 71, 127
1, 127001, Note_off_c, 2, 62, 127
1, 127001, Note_off_c, 6, 66, 127
1, 127003, Note_on_c, 6, 66, 127
1, 127003, Note_on_c, 2, 62, 127
1, 127003, Note_on_c, 12, 71, 127
1, 127003, Note_on_c, 6, 54, 127
1, 127003, Note_on_c, 12, 47, 127
1, 127321, Note_off_c, 12, 47, 127
1, 127321, Note_off_c, 6, 54, 127
1, 127321, Note_off_c, 12, 71, 127
1, 127321, Note_off_c, 2, 62, 127
1, 127321, Note_off_c, 6, 66, 127
1, 127323, Note_on_c, 12, 71, 127
1, 127323, Note_on_c, 6, 54, 127
1, 127323, Note_on_c, 2, 50, 127
1, 127323, Note_on_c, 12, 47, 127
1, 127323, Note_on_c, 12, 59, 127
1, 127481, Note_off_c, 12, 71, 127
1, 127483, Note_on_c, 6, 66, 127
1, 127641, Note_off_c, 6, 66, 127
1, 127641, Note_off_c, 12, 59, 127
1, 127641, Note_off_c, 12, 47, 127
1, 127641, Note_off_c, 2, 50, 127
1, 127641, Note_off_c, 6, 54, 127
1, 127643, Note_on_c, 2, 62, 127
1, 127643, Note_on_c, 12, 47, 127
1, 127643, Note_on_c, 12, 59, 127
1, 127643, Note_on_c, 6, 54, 127
1, 127643, Note_on_c, 2, 50, 127
1, 127801, Note_off_c, 2, 62, 127
1, 127803, Note_on_c, 6, 66, 127
1, 127961, Note_off_c, 6, 66, 127
1, 127961, Note_off_c, 2, 50, 127
1, 127961, Note_off_c, 6, 54, 127
1, 127961, Note_off_c, 12, 59, 127
1, 127961, Note_off_c, 12, 47, 127
1, 127963, Note_on_c, 12, 71, 127
1, 127963, Note_on_c, 12, 47, 127
1, 127963, Note_on_c, 6, 54, 127
1, 127963, Note_on_c, 2, 50, 127
1, 127963, Note_on_c, 12, 59, 127
1, 128121, Note_off_c, 12, 71, 127
1, 128123, Note_on_c, 6, 66, 127
1, 128281, Note_off_c, 6, 66, 127
1, 128281, Note_off_c, 12, 59, 127
1, 128281, Note_off_c, 2, 50, 127
1, 128281, Note_off_c, 6, 54, 127
1, 128281, Note_off_c, 12, 47, 127
1, 128283, Note_on_c, 2, 62, 127
1, 128283, Note_on_c, 6, 54, 127
1, 128283, Note_on_c, 2, 50, 127
1, 128283, Note_on_c, 12, 47, 127
1, 128283, Note_on_c, 12, 59, 127
1, 128441, Note_off_c, 2, 62, 127
1, 128443, Note_on_c, 6, 66, 127
1, 128601, Note_off_c, 6, 66, 127
1, 128601, Note_off_c, 12, 59, 127
1, 128601, Note_off_c, 12, 47, 127
1, 128601, Note_off_c, 2, 50, 127
1, 128601, Note_off_c, 6, 54, 127
1, 128603, Note_on_c, 6, 66, 127
1, 128603, Note_on_c, 12, 71, 127
1, 128603, Note_on_c, 2, 62, 127
1, 128603, Note_on_c, 12, 59, 127
1, 128603, Note_on_c, 12, 47, 127
1, 128761, Note_off_c, 12, 59, 127
1, 128763, Note_on_c, 6, 54, 127
1, 128786, Note_off_c, 12, 47, 127
1, 128921, Note_off_c, 6, 54, 127
1, 128921, Note_off_c, 2, 62, 127
1, 128921, Note_off_c, 12, 71, 127
1, 128921, Note_off_c, 6, 66, 127
1, 128923, Note_on_c, 6, 66, 127
1, 128923, Note_on_c, 2, 62, 127
1, 128923, Note_on_c, 12, 71, 127
1, 128923, Note_on_c, 2, 50, 127
1, 129081, Note_off_c, 2, 50, 127
1, 129083, Note_on_c, 6, 54, 127
1, 129241, Note_off_c, 6, 54, 127
1, 129241, Note_off_c, 12, 71, 127
1, 129241, Note_off_c, 2, 62, 127
1, 129241, Note_off_c, 6, 66, 127
1, 129243, Note_on_c, 6, 66, 127
1, 129243, Note_on_c, 2, 62, 127
1, 129243, Note_on_c, 12, 71, 127
1, 129243, Note_on_c, 12, 59, 127
1, 129403, Note_on_c, 6, 54, 127
1, 129561, Note_off_c, 6, 54, 127
1, 129561, Note_off_c, 12, 71, 127
1, 129561, Note_off_c, 2, 62, 127
1, 129561, Note_off_c, 6, 66, 127
1, 129563, Note_on_c, 6, 66, 127
1, 129563, Note_on_c, 2, 62, 127
1, 129563, Note_on_c, 12, 71, 127
1, 129563, Note_on_c, 2, 50, 127
1, 129721, Note_off_c, 2, 50, 127
1, 129723, Note_on_c, 6, 54, 127
1, 129876, Note_off_c, 12, 59, 127
1, 129881, Note_off_c, 6, 54, 127
1, 129881, Note_off_c, 12, 71, 127
1, 129881, Note_off_c, 2, 62, 127
1, 129881, Note_off_c, 6, 66, 127
1, 129883, Note_on_c, 12, 71, 127
1, 129883, Note_on_c, 6, 54, 127
1, 129883, Note_on_c, 12, 47, 127
1, 129883, Note_on_c, 2, 50, 127
1, 129883, Note_on_c, 12, 59, 127
1, 130041, Note_off_c, 12, 71, 127
1, 130043, Note_on_c, 6, 66, 127
1, 130201, Note_off_c, 6, 66, 127
1, 130201, Note_off_c, 12, 59, 127
1, 130201, Note_off_c, 2, 50, 127
1, 130201, Note_off_c, 12, 47, 127
1, 130201, Note_off_c, 6, 54, 127
1, 130203, Note_on_c, 2, 62, 127
1, 130203, Note_on_c, 12, 47, 127
1, 130203, Note_on_c, 6, 54, 127
1, 130203, Note_on_c, 2, 50, 127
1, 130203, Note_on_c, 12, 59, 127
1, 130361, Note_off_c, 2, 62, 127
1, 130363, Note_on_c, 6, 66, 127
1, 130521, Note_off_c, 6, 66, 127
1, 130521, Note_off_c, 12, 59, 127
1, 130521, Note_off_c, 2, 50, 127
1, 130521, Note_off_c, 6, 54, 127
1, 130521, Note_off_c, 12, 47, 127
1, 130523, Note_on_c, 12, 71, 127
1, 130523, Note_on_c, 12, 47, 127
1, 130523, Note_on_c, 12, 59, 127
1, 130523, Note_on_c, 6, 54, 127
1, 130523, Note_on_c, 2, 50, 127
1, 130681, Note_off_c, 12, 71, 127
1, 130683, Note_on_c, 6, 66, 127
1, 130841, Note_off_c, 6, 66, 127
1, 130841, Note_off_c, 2, 50, 127
1, 130841, Note_off_c, 6, 54, 127
1, 130841, Note_off_c, 12, 59, 127
1, 130841, Note_off_c, 12, 47, 127
1, 130843, Note_on_c, 2, 62, 127
1, 130843, Note_on_c, 2, 50, 127
1, 130843, Note_on_c, 12, 47, 127
1, 130843, Note_on_c, 12, 59, 127
1, 130843, Note_on_c, 6, 54, 127
1, 131001, Note_off_c, 2, 62, 127
1, 131003, Note_on_c, 6, 66, 127
1, 131151, Note_off_c, 6, 54, 127
1, 131151, Note_off_c, 12, 59, 127
1, 131151, Note_off_c, 12, 47, 127
1, 131151, Note_off_c, 2, 50, 127
1, 131161, Note_off_c, 6, 66, 127
1, 131163, Note_on_c, 6, 66, 127
1, 131163, Note_on_c, 11, 70, 127
1, 131163, Note_on_c, 1, 73, 127
1, 131163, Note_on_c, 6, 54, 127
1, 131163, Note_on_c, 4, 64, 127
1, 131321, Note_off_c, 4, 64, 127
1, 131323, Note_on_c, 1, 61, 127
1, 131346, Note_off_c, 6, 54, 127
1, 131481, Note_off_c, 1, 61, 127
1, 131481, Note_off_c, 1, 73, 127
1, 131481, Note_off_c, 11, 70, 127
1, 131481, Note_off_c, 6, 66, 127
1, 131483, Note_on_c, 11, 70, 127
1, 131483, Note_on_c, 6, 66, 127
1, 131483, Note_on_c, 1, 73, 127
1, 131483, Note_on_c, 11, 58, 127
1, 131641, Note_off_c, 11, 58, 127
1, 131643, Note_on_c, 1, 61, 127
1, 131801, Note_off_c, 1, 61, 127
1, 131801, Note_off_c, 1, 73, 127
1, 131801, Note_off_c, 6, 66, 127
1, 131801, Note_off_c, 11, 70, 127
1, 131803, Note_on_c, 6, 66, 127
1, 131803, Note_on_c, 11, 70, 127
1, 131803, Note_on_c, 1, 73, 127
1, 131803, Note_on_c, 4, 64, 127
1, 131963, Note_on_c, 1, 61, 127
1, 132121, Note_off_c, 1, 61, 127
1, 132121, Note_off_c, 1, 73, 127
1, 132121, Note_off_c, 11, 70, 127
1, 132121, Note_off_c, 6, 66, 127
1, 132123, Note_on_c, 11, 70, 127
1, 132123, Note_on_c, 6, 66, 127
1, 132123, Note_on_c, 1, 73, 127
1, 132123, Note_on_c, 11, 58, 127
1, 132281, Note_off_c, 11, 58, 127
1, 132283, Note_on_c, 1, 61, 127
1, 132436, Note_off_c, 4, 64, 127
1, 132441, Note_off_c, 1, 61, 127
1, 132441, Note_off_c, 1, 73, 127
1, 132441, Note_off_c, 6, 66, 127
1, 132441, Note_off_c, 11, 70, 127
1, 132443, Note_on_c, 1, 73, 127
1, 132443, Note_on_c, 6, 54, 127
1, 132443, Note_on_c, 4, 64, 127
1, 132443, Note_on_c, 1, 61, 127
1, 132443, Note_on_c, 11, 58, 127
1, 132601, Note_off_c, 1, 73, 127
1, 132603, Note_on_c, 11, 70, 127
1, 132761, Note_off_c, 11, 70, 127
1, 132761, Note_off_c, 11, 58, 127
1, 132761, Note_off_c, 1, 61, 127
1, 132761, Note_off_c, 4, 64, 127
1, 132761, Note_off_c, 6, 54, 127
1, 132763, Note_on_c, 6, 66, 127
1, 132763, Note_on_c, 6, 54, 127
1, 132763, Note_on_c, 1, 61, 127
1, 132763, Note_on_c, 11, 58, 127
1, 132763, Note_on_c, 4, 64, 127
1, 132921, Note_off_c, 6, 66, 127
1, 132923, Note_on_c, 11, 70, 127
1, 133081, Note_off_c, 11, 70, 127
1, 133081, Note_off_c, 4, 64, 127
1, 133081, Note_off_c, 11, 58, 127
1, 133081, Note_off_c, 1, 61, 127
1, 133081, Note_off_c, 6, 54, 127
1, 133083, Note_on_c, 1, 73, 127
1, 133083, Note_on_c, 6, 54, 127
1, 133083, Note_on_c, 1, 61, 127
1, 133083, Note_on_c, 11, 58, 127
1, 133083, Note_on_c, 4, 64, 127
1, 133241, Note_off_c, 1, 73, 127
1, 133243, Note_on_c, 11, 70, 127
1, 133401, Note_off_c, 11, 70, 127
1, 133401, Note_off_c, 4, 64, 127
1, 133401, Note_off_c, 11, 58, 127
1, 133401, Note_off_c, 1, 61, 127
1, 133401, Note_off_c, 6, 54, 127
1, 133403, Note_on_c, 6, 66, 127
1, 133403, Note_on_c, 6, 54, 127
1, 133403, Note_on_c, 1, 61, 127
1, 133403, Note_on_c, 11, 58, 127
1, 133403, Note_on_c, 4, 64, 127
1, 133561, Note_off_c, 6, 66, 127
1, 133563, Note_on_c, 11, 70, 127
1, 133721, Note_off_c, 11, 70, 127
1, 133721, Note_off_c, 4, 64, 127
1, 133721, Note_off_c, 11, 58, 127
1, 133721, Note_off_c, 1, 61, 127
1, 133721, Note_off_c, 6, 54, 127
1, 133723, Note_on_c, 6, 66, 127
1, 133723, Note_on_c, 1, 73, 127
1, 133723, Note_on_c, 11, 70, 127
1, 133723, Note_on_c, 4, 64, 127
1, 133723, Note_on_c, 6, 54, 127
1, 133881, Note_off_c, 4, 64, 127
1, 133883, Note_on_c, 1, 61, 127
1, 133906, Note_off_c, 6, 54, 127
1, 134041, Note_off_c, 1, 61, 127
1, 134041, Note_off_c, 11, 70, 127
1, 134041, Note_off_c, 1, 73, 127
1, 134041, Note_off_c, 6, 66, 127
1, 134043, Note_on_c, 6, 66, 127
1, 134043, Note_on_c, 1, 73, 127
1, 134043, Note_on_c, 11, 70, 127
1, 134043, Note_on_c, 11, 58, 127
1, 134201, Note_off_c, 11, 58, 127
1, 134203, Note_on_c, 1, 61, 127
1, 134361, Note_off_c, 1, 61, 127
1, 134361, Note_off_c, 11, 70, 127
1, 134361, Note_off_c, 1, 73, 127
1, 134361, Note_off_c, 6, 66, 127
1, 134363, Note_on_c, 6, 66, 127
1, 134363, Note_on_c, 11, 70, 127
1, 134363, Note_on_c, 1, 73, 127
1, 134363, Note_on_c, 4, 64, 127
1, 134523, Note_on_c, 1, 61, 127
1, 134681, Note_off_c, 1, 61, 127
1, 134681, Note_off_c, 1, 73, 127
1, 134681, Note_off_c, 11, 70, 127
1, 134681, Note_off_c, 6, 66, 127
1, 134683, Note_on_c, 6, 66, 127
1, 134683, Note_on_c, 1, 73, 127
1, 134683, Note_on_c, 11, 70, 127
1, 134683, Note_on_c, 11, 58, 127
1, 134841, Note_off_c, 11, 58, 127
1, 134843, Note_on_c, 1, 61, 127
1, 134996, Note_off_c, 4, 64, 127
1, 135001, Note_off_c, 1, 61, 127
1, 135001, Note_off_c, 11, 70, 127
1, 135001, Note_off_c, 1, 73, 127
1, 135001, Note_off_c, 6, 66, 127
1, 135003, Note_on_c, 1, 73, 127
1, 135003, Note_on_c, 6, 54, 127
1, 135003, Note_on_c, 4, 64, 127
1, 135003, Note_on_c, 1, 61, 127
1, 135003, Note_on_c, 11, 58, 127
1, 135161, Note_off_c, 1, 73, 127
1, 135163, Note_on_c, 11, 70, 127
1, 135321, Note_off_c, 11, 70, 127
1, 135321, Note_off_c, 11, 58, 127
1, 135321, Note_off_c, 1, 61, 127
1, 135321, Note_off_c, 4, 64, 127
1, 135321, Note_off_c, 6, 54, 127
1, 135323, Note_on_c, 6, 66, 127
1, 135323, Note_on_c, 6, 54, 127
1, 135323, Note_on_c, 4, 64, 127
1, 135323, Note_on_c, 1, 61, 127
1, 135323, Note_on_c, 11, 58, 127
1, 135481, Note_off_c, 6, 66, 127
1, 135483, Note_on_c, 11, 70, 127
1, 135641, Note_off_c, 11, 70, 127
1, 135641, Note_off_c, 11, 58, 127
1, 135641, Note_off_c, 1, 61, 127
1, 135641, Note_off_c, 4, 64, 127
1, 135641, Note_off_c, 6, 54, 127
1, 135643, Note_on_c, 1, 73, 127
1, 135643, Note_on_c, 6, 54, 127
1, 135643, Note_on_c, 1, 61, 127
1, 135643, Note_on_c, 11, 58, 127
1, 135643, Note_on_c, 4, 64, 127
1, 135801, Note_off_c, 1, 73, 127
1, 135803, Note_on_c, 11, 70, 127
1, 135961, Note_off_c, 11, 70, 127
1, 135961, Note_off_c, 4, 64, 127
1, 135961, Note_off_c, 11, 58, 127
1, 135961, Note_off_c, 1, 61, 127
1, 135961, Note_off_c, 6, 54, 127
1, 135963, Note_on_c, 6, 66, 127
1, 135963, Note_on_c, 6, 54, 127
1, 135963, Note_on_c, 11, 58, 127
1, 135963, Note_on_c, 1, 61, 127
1, 135963, Note_on_c, 4, 64, 127
1, 136121, Note_off_c, 6, 66, 127
1, 136123, Note_on_c, 11, 70, 127
1, 136281, Note_off_c, 11, 70, 127
1, 136281, Note_off_c, 4, 64, 127
1, 136281, Note_off_c, 1, 61, 127
1, 136281, Note_off_c, 11, 58, 127
1, 136281, Note_off_c, 6, 54, 127
1, 136283, Note_on_c, 12, 71, 127
1, 136283, Note_on_c, 6, 66, 127
1, 136283, Note_on_c, 2, 74, 127
1, 136283, Note_on_c, 12, 59, 127
1, 136441, Note_off_c, 12, 59, 127
1, 136443, Note_on_c, 2, 62, 127
1, 136601, Note_off_c, 2, 62, 127
1, 136601, Note_off_c, 2, 74, 127
1, 136601, Note_off_c, 6, 66, 127
1, 136601, Note_off_c, 12, 71, 127
1, 136603, Note_on_c, 12, 71, 127
1, 136603, Note_on_c, 6, 66, 127
1, 136761, Note_off_c, 6, 66, 127
1, 136763, Note_on_c, 2, 62, 127
1, 136920, Note_off_c, 12, 71, 127
1, 136922, Note_off_c, 2, 62, 127
1, 136924, Note_on_c, 12, 59, 127
1, 137092, Note_off_c, 12, 59, 127
1, 137095, Note_on_c, 2, 62, 127
1, 137244, Note_on_c, 2, 74, 127
1, 137244, Note_on_c, 6, 66, 127
1, 137253, Note_off_c, 2, 62, 127
1, 137402, Note_off_c, 6, 66, 127
1, 137404, Note_on_c, 2, 62, 127
1, 137562, Note_off_c, 2, 62, 127
1, 137562, Note_off_c, 2, 74, 127
1, 137564, Note_on_c, 2, 74, 127
1, 137564, Note_on_c, 12, 71, 127
1, 137564, Note_on_c, 7, 79, 127
1, 137564, Note_on_c, 12, 59, 127
1, 137722, Note_off_c, 12, 59, 127
1, 137724, Note_on_c, 2, 62, 127
1, 137882, Note_off_c, 2, 62, 127
1, 137882, Note_off_c, 7, 79, 127
1, 137882, Note_off_c, 12, 71, 127
1, 137882, Note_off_c, 2, 74, 127
1, 137884, Note_on_c, 2, 74, 127
1, 137884, Note_on_c, 12, 71, 127
1, 137884, Note_on_c, 7, 79, 127
1, 137884, Note_on_c, 7, 67, 127
1, 138042, Note_off_c, 7, 67, 127
1, 138044, Note_on_c, 2, 62, 127
1, 138202, Note_off_c, 2, 62, 127
1, 138202, Note_off_c, 7, 79, 127
1, 138202, Note_off_c, 12, 71, 127
1, 138202, Note_off_c, 2, 74, 127
1, 138204, Note_on_c, 12, 71, 127
1, 138204, Note_on_c, 7, 79, 127
1, 138204, Note_on_c, 2, 74, 127
1, 138204, Note_on_c, 12, 59, 127
1, 138362, Note_off_c, 12, 59, 127
1, 138364, Note_on_c, 2, 62, 127
1, 138522, Note_off_c, 2, 62, 127
1, 138522, Note_off_c, 2, 74, 127
1, 138522, Note_off_c, 7, 79, 127
1, 138522, Note_off_c, 12, 71, 127
1, 138524, Note_on_c, 7, 79, 127
1, 138524, Note_on_c, 2, 74, 127
1, 138524, Note_on_c, 12, 71, 127
1, 138524, Note_on_c, 7, 67, 127
1, 138682, Note_off_c, 7, 67, 127
1, 138684, Note_on_c, 2, 62, 127
1, 138842, Note_off_c, 2, 62, 127
1, 138842, Note_off_c, 12, 71, 127
1, 138842, Note_off_c, 2, 74, 127
1, 138842, Note_off_c, 7, 79, 127
1, 138844, Note_on_c, 7, 79, 127
1, 138844, Note_on_c, 10, 57, 127
1, 138844, Note_on_c, 4, 64, 127
1, 138844, Note_on_c, 1, 61, 127
1, 139002, Note_off_c, 7, 79, 127
1, 139004, Note_on_c, 4, 76, 127
1, 139162, Note_off_c, 4, 76, 127
1, 139162, Note_off_c, 1, 61, 127
1, 139162, Note_off_c, 4, 64, 127
1, 139162, Note_off_c, 10, 57, 127
1, 139164, Note_on_c, 1, 73, 127
1, 139164, Note_on_c, 1, 61, 127
1, 139164, Note_on_c, 10, 57, 127
1, 139164, Note_on_c, 4, 64, 127
1, 139324, Note_on_c, 4, 76, 127
1, 139482, Note_off_c, 4, 76, 127
1, 139482, Note_off_c, 4, 64, 127
1, 139482, Note_off_c, 10, 57, 127
1, 139482, Note_off_c, 1, 61, 127
1, 139484, Note_on_c, 7, 79, 127
1, 139484, Note_on_c, 4, 64, 127
1, 139484, Note_on_c, 1, 61, 127
1, 139484, Note_on_c, 10, 57, 127
1, 139642, Note_off_c, 7, 79, 127
1, 139644, Note_on_c, 4, 76, 127
1, 139797, Note_off_c, 1, 73, 127
1, 139802, Note_off_c, 4, 76, 127
1, 139802, Note_off_c, 10, 57, 127
1, 139802, Note_off_c, 1, 61, 127
1, 139802, Note_off_c, 4, 64, 127
1, 139804, Note_on_c, 1, 73, 127
1, 139804, Note_on_c, 1, 61, 127
1, 139804, Note_on_c, 10, 57, 127
1, 139804, Note_on_c, 4, 64, 127
1, 139964, Note_on_c, 4, 76, 127
1, 140121, Note_off_c, 1, 73, 127
1, 140123, Note_off_c, 4, 76, 127
1, 140123, Note_off_c, 4, 64, 127
1, 140123, Note_off_c, 10, 57, 127
1, 140123, Note_off_c, 1, 61, 127
1, 140125, Note_on_c, 6, 78, 127
1, 140125, Note_on_c, 1, 73, 127
1, 140125, Note_on_c, 10, 69, 127
1, 140125, Note_on_c, 10, 57, 127
1, 140283, Note_off_c, 10, 57, 127
1, 140285, Note_on_c, 1, 61, 127
1, 140443, Note_off_c, 1, 61, 127
1, 140443, Note_off_c, 10, 69, 127
1, 140443, Note_off_c, 1, 73, 127
1, 140443, Note_off_c, 6, 78, 127
1, 140445, Note_on_c, 10, 69, 127
1, 140445, Note_on_c, 6, 78, 127
1, 140445, Note_on_c, 1, 73, 127
1, 140445, Note_on_c, 6, 66, 127
1, 140603, Note_off_c, 6, 66, 127
1, 140605, Note_on_c, 1, 61, 127
1, 140763, Note_off_c, 1, 61, 127
1, 140763, Note_off_c, 1, 73, 127
1, 140763, Note_off_c, 6, 78, 127
1, 140763, Note_off_c, 10, 69, 127
1, 140765, Note_on_c, 6, 78, 127
1, 140765, Note_on_c, 1, 73, 127
1, 140765, Note_on_c, 10, 69, 127
1, 140765, Note_on_c, 10, 57, 127
1, 140923, Note_off_c, 10, 57, 127
1, 140925, Note_on_c, 1, 61, 127
1, 141083, Note_off_c, 1, 61, 127
1, 141083, Note_off_c, 10, 69, 127
1, 141083, Note_off_c, 1, 73, 127
1, 141083, Note_off_c, 6, 78, 127
1, 141085, Note_on_c, 1, 73, 127
1, 141085, Note_on_c, 10, 69, 127
1, 141085, Note_on_c, 6, 78, 127
1, 141085, Note_on_c, 6, 66, 127
1, 141243, Note_off_c, 6, 66, 127
1, 141245, Note_on_c, 1, 61, 127
1, 141403, Note_off_c, 1, 61, 127
1, 141403, Note_off_c, 6, 78, 127
1, 141403, Note_off_c, 10, 69, 127
1, 141403, Note_off_c, 1, 73, 127
1, 141405, Note_on_c, 6, 78, 127
1, 141405, Note_on_c, 8, 56, 127
1, 141405, Note_on_c, 12, 59, 127
1, 141405, Note_on_c, 2, 62, 127
1, 141563, Note_off_c, 6, 78, 127
1, 141565, Note_on_c, 2, 74, 127
1, 141723, Note_off_c, 2, 74, 127
1, 141723, Note_off_c, 2, 62, 127
1, 141723, Note_off_c, 12, 59, 127
1, 141723, Note_off_c, 8, 56, 127
1, 141725, Note_on_c, 12, 71, 127
1, 141725, Note_on_c, 8, 56, 127
1, 141725, Note_on_c, 2, 62, 127
1, 141725, Note_on_c, 12, 59, 127
1, 141885, Note_on_c, 2, 74, 127
1, 142043, Note_off_c, 2, 74, 127
1, 142043, Note_off_c, 12, 59, 127
1, 142043, Note_off_c, 2, 62, 127
1, 142043, Note_off_c, 8, 56, 127
1, 142045, Note_on_c, 6, 78, 127
1, 142045, Note_on_c, 8, 56, 127
1, 142045, Note_on_c, 12, 59, 127
1, 142045, Note_on_c, 2, 62, 127
1, 142203, Note_off_c, 6, 78, 127
1, 142205, Note_on_c, 2, 74, 127
1, 142358, Note_off_c, 12, 71, 127
1, 142363, Note_off_c, 2, 74, 127
1, 142363, Note_off_c, 2, 62, 127
1, 142363, Note_off_c, 12, 59, 127
1, 142363, Note_off_c, 8, 56, 127
1, 142365, Note_on_c, 12, 71, 127
1, 142365, Note_on_c, 8, 56, 127
1, 142365, Note_on_c, 12, 59, 127
1, 142365, Note_on_c, 2, 62, 127
1, 142525, Note_on_c, 2, 74, 127
1, 142682, Note_off_c, 12, 71, 127
1, 142684, Note_off_c, 2, 74, 127
1, 142684, Note_off_c, 2, 62, 127
1, 142684, Note_off_c, 12, 59, 127
1, 142684, Note_off_c, 8, 56, 127
1, 142686, Note_on_c, 7, 67, 127
1, 142686, Note_on_c, 4, 76, 127
1, 142686, Note_on_c, 12, 71, 127
1, 142686, Note_on_c, 7, 55, 127
1, 142844, Note_off_c, 7, 55, 127
1, 142846, Note_on_c, 12, 59, 127
1, 143004, Note_off_c, 12, 59, 127
1, 143004, Note_off_c, 12, 71, 127
1, 143004, Note_off_c, 4, 76, 127
1, 143004, Note_off_c, 7, 67, 127
1, 143006, Note_on_c, 4, 76, 127
1, 143006, Note_on_c, 12, 71, 127
1, 143006, Note_on_c, 7, 67, 127
1, 143006, Note_on_c, 4, 64, 127
1, 143164, Note_off_c, 4, 64, 127
1, 143166, Note_on_c, 12, 59, 127
1, 143324, Note_off_c, 12, 59, 127
1, 143324, Note_off_c, 7, 67, 127
1, 143324, Note_off_c, 12, 71, 127
1, 143324, Note_off_c, 4, 76, 127
1, 143326, Note_on_c, 12, 71, 127
1, 143326, Note_on_c, 7, 67, 127
1, 143326, Note_on_c, 4, 76, 127
1, 143326, Note_on_c, 7, 55, 127
1, 143484, Note_off_c, 7, 55, 127
1, 143486, Note_on_c, 12, 59, 127
1, 143644, Note_off_c, 12, 59, 127
1, 143644, Note_off_c, 4, 76, 127
1, 143644, Note_off_c, 7, 67, 127
1, 143644, Note_off_c, 12, 71, 127
1, 143646, Note_on_c, 4, 76, 127
1, 143646, Note_on_c, 12, 71, 127
1, 143646, Note_on_c, 7, 67, 127
1, 143646, Note_on_c, 4, 64, 127
1, 143804, Note_off_c, 4, 64, 127
1, 143806, Note_on_c, 12, 59, 127
1, 143964, Note_off_c, 12, 59, 127
1, 143964, Note_off_c, 7, 67, 127
1, 143964, Note_off_c, 12, 71, 127
1, 143964, Note_off_c, 4, 76, 127
1, 143966, Note_on_c, 4, 76, 127
1, 143966, Note_on_c, 0, 60, 127
1, 143966, Note_on_c, 10, 57, 127
1, 143966, Note_on_c, 6, 54, 127
1, 144124, Note_off_c, 4, 76, 127
1, 144126, Note_on_c, 0, 72, 127
1, 144284, Note_off_c, 0, 72, 127
1, 144284, Note_off_c, 6, 54, 127
1, 144284, Note_off_c, 10, 57, 127
1, 144284, Note_off_c, 0, 60, 127
1, 144286, Note_on_c, 10, 69, 127
1, 144286, Note_on_c, 10, 57, 127
1, 144286, Note_on_c, 6, 54, 127
1, 144286, Note_on_c, 0, 60, 127
1, 144446, Note_on_c, 0, 72, 127
1, 144604, Note_off_c, 0, 72, 127
1, 144604, Note_off_c, 0, 60, 127
1, 144604, Note_off_c, 6, 54, 127
1, 144604, Note_off_c, 10, 57, 127
1, 144606, Note_on_c, 4, 76, 127
1, 144606, Note_on_c, 6, 54, 127
1, 144606, Note_on_c, 0, 60, 127
1, 144606, Note_on_c, 10, 57, 127
1, 144764, Note_off_c, 4, 76, 127
1, 144766, Note_on_c, 0, 72, 127
1, 144919, Note_off_c, 10, 69, 127
1, 144924, Note_off_c, 0, 72, 127
1, 144924, Note_off_c, 10, 57, 127
1, 144924, Note_off_c, 0, 60, 127
1, 144924, Note_off_c, 6, 54, 127
1, 144926, Note_on_c, 10, 69, 127
1, 144926, Note_on_c, 10, 57, 127
1, 144926, Note_on_c, 6, 54, 127
1, 144926, Note_on_c, 0, 60, 127
1, 145086, Note_on_c, 0, 72, 127
1, 145243, Note_off_c, 10, 69, 127
1, 145245, Note_off_c, 0, 72, 127
1, 145245, Note_off_c, 0, 60, 127
1, 145245, Note_off_c, 6, 54, 127
1, 145245, Note_off_c, 10, 57, 127
1, 145247, Note_on_c, 6, 66, 127
1, 145247, Note_on_c, 10, 69, 127
1, 145247, Note_on_c, 2, 74, 127
1, 145247, Note_on_c, 6, 54, 127
1, 145405, Note_off_c, 6, 54, 127
1, 145407, Note_on_c, 10, 57, 127
1, 145565, Note_off_c, 10, 57, 127
1, 145565, Note_off_c, 2, 74, 127
1, 145565, Note_off_c, 10, 69, 127
1, 145565, Note_off_c, 6, 66, 127
1, 145567, Note_on_c, 10, 69, 127
1, 145567, Note_on_c, 6, 66, 127
1, 145567, Note_on_c, 2, 74, 127
1, 145567, Note_on_c, 2, 62, 127
1, 145725, Note_off_c, 2, 62, 127
1, 145727, Note_on_c, 10, 57, 127
1, 145885, Note_off_c, 10, 57, 127
1, 145885, Note_off_c, 2, 74, 127
1, 145885, Note_off_c, 6, 66, 127
1, 145885, Note_off_c, 10, 69, 127
1, 145887, Note_on_c, 6, 66, 127
1, 145887, Note_on_c, 2, 74, 127
1, 145887, Note_on_c, 10, 69, 127
1, 145887, Note_on_c, 6, 54, 127
1, 146045, Note_off_c, 6, 54, 127
1, 146047, Note_on_c, 10, 57, 127
1, 146205, Note_off_c, 10, 57, 127
1, 146205, Note_off_c, 10, 69, 127
1, 146205, Note_off_c, 2, 74, 127
1, 146205, Note_off_c, 6, 66, 127
1, 146207, Note_on_c, 10, 69, 127
1, 146207, Note_on_c, 6, 66, 127
1, 146207, Note_on_c, 2, 74, 127
1, 146207, Note_on_c, 2, 62, 127
1, 146365, Note_off_c, 2, 62, 127
1, 146367, Note_on_c, 10, 57, 127
1, 146525, Note_off_c, 10, 57, 127
1, 146525, Note_off_c, 2, 74, 127
1, 146525, Note_off_c, 6, 66, 127
1, 146525, Note_off_c, 10, 69, 127
1, 146527, Note_on_c, 2, 74, 127
1, 146527, Note_on_c, 7, 55, 127
1, 146527, Note_on_c, 4, 52, 127
1, 146527, Note_on_c, 12, 59, 127
1, 146685, Note_off_c, 2, 74, 127
1, 146687, Note_on_c, 12, 71, 127
1, 146845, Note_off_c, 12, 71, 127
1, 146845, Note_off_c, 12, 59, 127
1, 146845, Note_off_c, 4, 52, 127
1, 146845, Note_off_c, 7, 55, 127
1, 146847, Note_on_c, 7, 67, 127
1, 146847, Note_on_c, 7, 55, 127
1, 146847, Note_on_c, 4, 52, 127
1, 146847, Note_on_c, 12, 59, 127
1, 147007, Note_on_c, 12, 71, 127
1, 147165, Note_off_c, 12, 71, 127
1, 147165, Note_off_c, 12, 59, 127
1, 147165, Note_off_c, 4, 52, 127
1, 147165, Note_off_c, 7, 55, 127
1, 147167, Note_on_c, 2, 74, 127
1, 147167, Note_on_c, 7, 55, 127
1, 147167, Note_on_c, 4, 52, 127
1, 147167, Note_on_c, 12, 59, 127
1, 147325, Note_off_c, 2, 74, 127
1, 147327, Note_on_c, 12, 71, 127
1, 147480, Note_off_c, 7, 67, 127
1, 147485, Note_off_c, 12, 71, 127
1, 147485, Note_off_c, 12, 59, 127
1, 147485, Note_off_c, 4, 52, 127
1, 147485, Note_off_c, 7, 55, 127
1, 147487, Note_on_c, 7, 67, 127
1, 147487, Note_on_c, 4, 52, 127
1, 147487, Note_on_c, 12, 59, 127
1, 147487, Note_on_c, 7, 55, 127
1, 147647, Note_on_c, 12, 71, 127
1, 147804, Note_off_c, 7, 67, 127
1, 147806, Note_off_c, 12, 71, 127
1, 147806, Note_off_c, 7, 55, 127
1, 147806, Note_off_c, 12, 59, 127
1, 147806, Note_off_c, 4, 52, 127
1, 147808, Note_on_c, 7, 67, 127
1, 147808, Note_on_c, 4, 64, 127
1, 147808, Note_on_c, 0, 72, 127
1, 147808, Note_on_c, 4, 52, 127
1, 147966, Note_off_c, 4, 52, 127
1, 147968, Note_on_c, 7, 55, 127
1, 148126, Note_off_c, 7, 55, 127
1, 148126, Note_off_c, 0, 72, 127
1, 148126, Note_off_c, 4, 64, 127
1, 148126, Note_off_c, 7, 67, 127
1, 148128, Note_on_c, 7, 67, 127
1, 148128, Note_on_c, 4, 64, 127
1, 148128, Note_on_c, 0, 72, 127
1, 148128, Note_on_c, 0, 60, 127
1, 148286, Note_off_c, 0, 60, 127
1, 148288, Note_on_c, 7, 55, 127
1, 148446, Note_off_c, 7, 55, 127
1, 148446, Note_off_c, 0, 72, 127
1, 148446, Note_off_c, 4, 64, 127
1, 148446, Note_off_c, 7, 67, 127
1, 148448, Note_on_c, 4, 64, 127
1, 148448, Note_on_c, 7, 67, 127
1, 148448, Note_on_c, 0, 72, 127
1, 148448, Note_on_c, 4, 52, 127
1, 148606, Note_off_c, 4, 52, 127
1, 148608, Note_on_c, 7, 55, 127
1, 148766, Note_off_c, 7, 55, 127
1, 148766, Note_off_c, 0, 72, 127
1, 148766, Note_off_c, 7, 67, 127
1, 148766, Note_off_c, 4, 64, 127
1, 148768, Note_on_c, 7, 67, 127
1, 148768, Note_on_c, 4, 64, 127
1, 148768, Note_on_c, 0, 72, 127
1, 148768, Note_on_c, 0, 60, 127
1, 148926, Note_off_c, 0, 60, 127
1, 148928, Note_on_c, 7, 55, 127
1, 149086, Note_off_c, 7, 55, 127
1, 149086, Note_off_c, 0, 72, 127
1, 149086, Note_off_c, 4, 64, 127
1, 149086, Note_off_c, 7, 67, 127
1, 149088, Note_on_c, 0, 72, 127
1, 149088, Note_on_c, 6, 54, 127
1, 149088, Note_on_c, 2, 50, 127
1, 149088, Note_on_c, 10, 57, 127
1, 149246, Note_off_c, 0, 72, 127
1, 149248, Note_on_c, 10, 69, 127
1, 149406, Note_off_c, 10, 69, 127
1, 149406, Note_off_c, 10, 57, 127
1, 149406, Note_off_c, 2, 50, 127
1, 149406, Note_off_c, 6, 54, 127
1, 149408, Note_on_c, 6, 66, 127
1, 149408, Note_on_c, 2, 50, 127
1, 149408, Note_on_c, 2, 62, 127
1, 149408, Note_on_c, 6, 54, 127
1, 149408, Note_on_c, 10, 57, 127
1, 149568, Note_on_c, 10, 69, 127
1, 149726, Note_off_c, 10, 69, 127
1, 149726, Note_off_c, 10, 57, 127
1, 149726, Note_off_c, 6, 54, 127
1, 149726, Note_off_c, 2, 62, 127
1, 149726, Note_off_c, 2, 50, 127
1, 149728, Note_on_c, 0, 72, 127
1, 149728, Note_on_c, 6, 54, 127
1, 149728, Note_on_c, 2, 50, 127
1, 149728, Note_on_c, 2, 62, 127
1, 149728, Note_on_c, 10, 57, 127
1, 149886, Note_off_c, 0, 72, 127
1, 149888, Note_on_c, 10, 69, 127
1, 150041, Note_off_c, 6, 66, 127
1, 150046, Note_off_c, 10, 69, 127
1, 150046, Note_off_c, 10, 57, 127
1, 150046, Note_off_c, 2, 62, 127
1, 150046, Note_off_c, 2, 50, 127
1, 150046, Note_off_c, 6, 54, 127
1, 150048, Note_on_c, 6, 66, 127
1, 150048, Note_on_c, 10, 57, 127
1, 150048, Note_on_c, 6, 54, 127
1, 150048, Note_on_c, 2, 50, 127
1, 150048, Note_on_c, 2, 62, 127
1, 150206, Note_off_c, 6, 66, 127
1, 150208, Note_on_c, 10, 69, 127
1, 150366, Note_off_c, 10, 69, 127
1, 150366, Note_off_c, 2, 62, 127
1, 150366, Note_off_c, 2, 50, 127
1, 150366, Note_off_c, 6, 54, 127
1, 150366, Note_off_c, 10, 57, 127
1, 150368, Note_on_c, 12, 71, 127
1, 150368, Note_on_c, 2, 62, 127
1, 150368, Note_on_c, 7, 55, 127
1, 150686, Note_off_c, 12, 71, 127
1, 150688, Note_on_c, 7, 67, 127
1, 150835, Note_off_c, 7, 55, 127
1, 150847, Note_off_c, 7, 67, 127
1, 150849, Note_on_c, 10, 69, 127
1, 151007, Note_off_c, 10, 69, 127
1, 151007, Note_off_c, 2, 62, 127
1, 151009, Note_on_c, 12, 71, 127
1, 151009, Note_on_c, 7, 55, 127
1, 151167, Note_off_c, 7, 55, 127
1, 151167, Note_off_c, 12, 71, 127
1, 151169, Note_on_c, 0, 72, 127
1, 151169, Note_on_c, 10, 57, 127
1, 151327, Note_off_c, 10, 57, 127
1, 151327, Note_off_c, 0, 72, 127
1, 151329, Note_on_c, 2, 74, 127
1, 151329, Note_on_c, 12, 59, 127
1, 151487, Note_off_c, 12, 59, 127
1, 151487, Note_off_c, 2, 74, 127
1, 151489, Note_on_c, 4, 76, 127
1, 151489, Note_on_c, 0, 60, 127
1, 151647, Note_off_c, 0, 60, 127
1, 151647, Note_off_c, 4, 76, 127
1, 151649, Note_on_c, 2, 74, 127
1, 151649, Note_on_c, 2, 62, 127
1, 151807, Note_off_c, 2, 62, 127
1, 151807, Note_off_c, 2, 74, 127
1, 151809, Note_on_c, 0, 72, 127
1, 151809, Note_on_c, 4, 64, 127
1, 151967, Note_off_c, 4, 64, 127
1, 151967, Note_off_c, 0, 72, 127
1, 151969, Note_on_c, 12, 71, 127
1, 151969, Note_on_c, 2, 62, 127
1, 152127, Note_off_c, 2, 62, 127
1, 152127, Note_off_c, 12, 71, 127
1, 152129, Note_on_c, 10, 69, 127
1, 152129, Note_on_c, 0, 60, 127
1, 152287, Note_off_c, 0, 60, 127
1, 152287, Note_off_c, 10, 69, 127
1, 152289, Note_on_c, 7, 67, 127
1, 152289, Note_on_c, 12, 59, 127
1, 152447, Note_off_c, 12, 59, 127
1, 152449, Note_on_c, 10, 57, 127
1, 152607, Note_off_c, 10, 57, 127
1, 152609, Note_on_c, 5, 77, 127
1, 152609, Note_on_c, 2, 74, 127
1, 152609, Note_on_c, 12, 59, 127
1, 152767, Note_off_c, 12, 59, 127
1, 152769, Note_on_c, 7, 55, 127
1, 152927, Note_off_c, 7, 55, 127
1, 152927, Note_off_c, 2, 74, 127
1, 152927, Note_off_c, 5, 77, 127
1, 152929, Note_on_c, 5, 77, 127
1, 152929, Note_on_c, 2, 74, 127
1, 152929, Note_on_c, 0, 60, 127
1, 153247, Note_off_c, 2, 74, 127
1, 153247, Note_off_c, 5, 77, 127
1, 153249, Note_on_c, 0, 72, 127
1, 153249, Note_on_c, 4, 76, 127
1, 153249, Note_on_c, 0, 48, 127
1, 153396, Note_off_c, 0, 60, 127
1, 153568, Note_off_c, 4, 76, 127
1, 153568, Note_off_c, 0, 72, 127
1, 153568, Note_off_c, 7, 67, 127
1, 153570, Note_on_c, 10, 69, 127
1, 153617, Note_off_c, 0, 48, 127
1, 153729, Note_off_c, 10, 69, 127
1, 153731, Note_on_c, 12, 71, 127
1, 153889, Note_off_c, 12, 71, 127
1, 153891, Note_on_c, 1, 73, 127
1, 153891, Note_on_c, 10, 57, 127
1, 154049, Note_off_c, 10, 57, 127
1, 154049, Note_off_c, 1, 73, 127
1, 154051, Note_on_c, 2, 74, 127
1, 154051, Note_on_c, 12, 59, 127
1, 154209, Note_off_c, 12, 59, 127
1, 154209, Note_off_c, 2, 74, 127
1, 154211, Note_on_c, 4, 76, 127
1, 154211, Note_on_c, 1, 61, 127
1, 154369, Note_off_c, 1, 61, 127
1, 154369, Note_off_c, 4, 76, 127
1, 154371, Note_on_c, 2, 74, 127
1, 154371, Note_on_c, 2, 62, 127
1, 154529, Note_off_c, 2, 62, 127
1, 154529, Note_off_c, 2, 74, 127
1, 154531, Note_on_c, 1, 73, 127
1, 154531, Note_on_c, 4, 64, 127
1, 154689, Note_off_c, 4, 64, 127
1, 154689, Note_off_c, 1, 73, 127
1, 154691, Note_on_c, 12, 71, 127
1, 154691, Note_on_c, 2, 62, 127
1, 154849, Note_off_c, 2, 62, 127
1, 154849, Note_off_c, 12, 71, 127
1, 154851, Note_on_c, 10, 69, 127
1, 154851, Note_on_c, 1, 61, 127
1, 155009, Note_off_c, 1, 61, 127
1, 155011, Note_on_c, 12, 59, 127
1, 155169, Note_off_c, 12, 59, 127
1, 155171, Note_on_c, 4, 76, 127
1, 155171, Note_on_c, 7, 79, 127
1, 155171, Note_on_c, 1, 61, 127
1, 155329, Note_off_c, 1, 61, 127
1, 155331, Note_on_c, 10, 57, 127
1, 155489, Note_off_c, 10, 57, 127
1, 155489, Note_off_c, 7, 79, 127
1, 155489, Note_off_c, 4, 76, 127
1, 155491, Note_on_c, 4, 76, 127
1, 155491, Note_on_c, 7, 79, 127
1, 155491, Note_on_c, 2, 62, 127
1, 155809, Note_off_c, 7, 79, 127
1, 155809, Note_off_c, 4, 76, 127
1, 155811, Note_on_c, 6, 78, 127
1, 155811, Note_on_c, 2, 74, 127
1, 155811, Note_on_c, 2, 50, 127
1, 155958, Note_off_c, 2, 62, 127
1, 156130, Note_off_c, 2, 74, 127
1, 156130, Note_off_c, 6, 78, 127
1, 156130, Note_off_c, 10, 69, 127
1, 156132, Note_on_c, 12, 71, 127
1, 156179, Note_off_c, 2, 50, 127
1, 156291, Note_off_c, 12, 71, 127
1, 156293, Note_on_c, 1, 73, 127
1, 156451, Note_off_c, 1, 73, 127
1, 156453, Note_on_c, 3, 75, 127
1, 156453, Note_on_c, 12, 59, 127
1, 156611, Note_off_c, 12, 59, 127
1, 156611, Note_off_c, 3, 75, 127
1, 156613, Note_on_c, 4, 76, 127
1, 156613, Note_on_c, 1, 61, 127
1, 156771, Note_off_c, 1, 61, 127
1, 156771, Note_off_c, 4, 76, 127
1, 156773, Note_on_c, 6, 78, 127
1, 156773, Note_on_c, 3, 63, 127
1, 156931, Note_off_c, 3, 63, 127
1, 156931, Note_off_c, 6, 78, 127
1, 156933, Note_on_c, 4, 76, 127
1, 156933, Note_on_c, 4, 64, 127
1, 157091, Note_off_c, 4, 64, 127
1, 157091, Note_off_c, 4, 76, 127
1, 157093, Note_on_c, 3, 75, 127
1, 157093, Note_on_c, 6, 66, 127
1, 157251, Note_off_c, 6, 66, 127
1, 157251, Note_off_c, 3, 75, 127
1, 157253, Note_on_c, 1, 73, 127
1, 157253, Note_on_c, 4, 64, 127
1, 157411, Note_off_c, 4, 64, 127
1, 157411, Note_off_c, 1, 73, 127
1, 157413, Note_on_c, 12, 71, 127
1, 157413, Note_on_c, 3, 63, 127
1, 157571, Note_off_c, 3, 63, 127
1, 157573, Note_on_c, 1, 61, 127
1, 157731, Note_off_c, 1, 61, 127
1, 157733, Note_on_c, 6, 78, 127
1, 157733, Note_on_c, 10, 81, 127
1, 157733, Note_on_c, 3, 63, 127
1, 157891, Note_off_c, 3, 63, 127
1, 157893, Note_on_c, 12, 59, 127
1, 158051, Note_off_c, 12, 59, 127
1, 158051, Note_off_c, 10, 81, 127
1, 158051, Note_off_c, 6, 78, 127
1, 158053, Note_on_c, 6, 78, 127
1, 158053, Note_on_c, 10, 81, 127
1, 158053, Note_on_c, 4, 64, 127
1, 158371, Note_off_c, 10, 81, 127
1, 158371, Note_off_c, 6, 78, 127
1, 158373, Note_on_c, 7, 79, 127
1, 158373, Note_on_c, 4, 76, 127
1, 158373, Note_on_c, 4, 52, 127
1, 158686, Note_off_c, 4, 64, 127
1, 158689, Note_off_c, 4, 52, 127
1, 158691, Note_off_c, 4, 76, 127
1, 158691, Note_off_c, 7, 79, 127
1, 158691, Note_off_c, 12, 71, 127
1, 158693, Note_on_c, 0, 72, 127
1, 158851, Note_off_c, 0, 72, 127
1, 158853, Note_on_c, 2, 74, 127
1, 159011, Note_off_c, 2, 74, 127
1, 159013, Note_on_c, 4, 76, 127
1, 159013, Note_on_c, 0, 60, 127
1, 159171, Note_off_c, 0, 60, 127
1, 159171, Note_off_c, 4, 76, 127
1, 159173, Note_on_c, 5, 77, 127
1, 159173, Note_on_c, 2, 62, 127
1, 159331, Note_off_c, 2, 62, 127
1, 159331, Note_off_c, 5, 77, 127
1, 159333, Note_on_c, 7, 79, 127
1, 159333, Note_on_c, 4, 64, 127
1, 159491, Note_off_c, 4, 64, 127
1, 159491, Note_off_c, 7, 79, 127
1, 159493, Note_on_c, 5, 77, 127
1, 159493, Note_on_c, 5, 65, 127
1, 159651, Note_off_c, 5, 65, 127
1, 159651, Note_off_c, 5, 77, 127
1, 159653, Note_on_c, 4, 76, 127
1, 159653, Note_on_c, 7, 67, 127
1, 159811, Note_off_c, 7, 67, 127
1, 159811, Note_off_c, 4, 76, 127
1, 159813, Note_on_c, 2, 74, 127
1, 159813, Note_on_c, 5, 65, 127
1, 159971, Note_off_c, 5, 65, 127
1, 159971, Note_off_c, 2, 74, 127
1, 159973, Note_on_c, 0, 72, 127
1, 159973, Note_on_c, 4, 64, 127
1, 160131, Note_off_c, 4, 64, 127
1, 160133, Note_on_c, 2, 62, 127
1, 160291, Note_off_c, 2, 62, 127
1, 160293, Note_on_c, 12, 83, 127
1, 160293, Note_on_c, 0, 60, 127
1, 160373, Note_off_c, 0, 72, 127
1, 160451, Note_off_c, 0, 60, 127
1, 160453, Note_on_c, 2, 62, 127
1, 160611, Note_off_c, 2, 62, 127
1, 160613, Note_on_c, 0, 72, 127
1, 160613, Note_on_c, 4, 64, 127
1, 160760, Note_off_c, 12, 83, 127
1, 160772, Note_off_c, 4, 64, 127
1, 160774, Note_on_c, 10, 81, 127
1, 160774, Note_on_c, 2, 62, 127
1, 160932, Note_off_c, 2, 62, 127
1, 160932, Note_off_c, 10, 81, 127
1, 160934, Note_on_c, 7, 79, 127
1, 160934, Note_on_c, 4, 64, 127
1, 161081, Note_off_c, 0, 72, 127
1, 161093, Note_off_c, 4, 64, 127
1, 161093, Note_off_c, 7, 79, 127
1, 161095, Note_on_c, 10, 81, 127
1, 161095, Note_on_c, 0, 60, 127
1, 161253, Note_off_c, 0, 60, 127
1, 161253, Note_off_c, 10, 81, 127
1, 161255, Note_on_c, 12, 71, 127
1, 161255, Note_on_c, 2, 62, 127
1, 161413, Note_off_c, 2, 62, 127
1, 161415, Note_on_c, 0, 60, 127
1, 161573, Note_off_c, 0, 60, 127
1, 161575, Note_on_c, 7, 79, 127
1, 161575, Note_on_c, 12, 59, 127
1, 161733, Note_off_c, 12, 59, 127
1, 161735, Note_on_c, 2, 62, 127
1, 161872, Note_off_c, 12, 71, 127
1, 161894, Note_off_c, 2, 62, 127
1, 161894, Note_off_c, 7, 79, 127
1, 161896, Note_on_c, 10, 69, 127
1, 161896, Note_on_c, 0, 60, 127
1, 162054, Note_off_c, 0, 60, 127
1, 162056, Note_on_c, 6, 78, 127
1, 162056, Note_on_c, 12, 59, 127
1, 162214, Note_off_c, 12, 59, 127
1, 162214, Note_off_c, 6, 78, 127
1, 162216, Note_on_c, 4, 76, 127
1, 162216, Note_on_c, 0, 60, 127
1, 162374, Note_off_c, 0, 60, 127
1, 162374, Note_off_c, 4, 76, 127
1, 162376, Note_on_c, 6, 78, 127
1, 162376, Note_on_c, 10, 57, 127
1, 162513, Note_off_c, 10, 69, 127
1, 162535, Note_off_c, 10, 57, 127
1, 162535, Note_off_c, 6, 78, 127
1, 162537, Note_on_c, 7, 67, 127
1, 162537, Note_on_c, 12, 59, 127
1, 162695, Note_off_c, 12, 59, 127
1, 162697, Note_on_c, 10, 57, 127
1, 162855, Note_off_c, 10, 57, 127
1, 162857, Note_on_c, 4, 76, 127
1, 162857, Note_on_c, 7, 55, 127
1, 163015, Note_off_c, 7, 55, 127
1, 163017, Note_on_c, 12, 59, 127
1, 163154, Note_off_c, 7, 67, 127
1, 163176, Note_off_c, 12, 59, 127
1, 163176, Note_off_c, 4, 76, 127
1, 163178, Note_on_c, 6, 66, 127
1, 163178, Note_on_c, 10, 57, 127
1, 163336, Note_off_c, 10, 57, 127
1, 163338, Note_on_c, 2, 74, 127
1, 163338, Note_on_c, 7, 55, 127
1, 163496, Note_off_c, 7, 55, 127
1, 163496, Note_off_c, 2, 74, 127
1, 163498, Note_on_c, 0, 72, 127
1, 163498, Note_on_c, 10, 57, 127
1, 163656, Note_off_c, 10, 57, 127
1, 163656, Note_off_c, 0, 72, 127
1, 163658, Note_on_c, 2, 74, 127
1, 163658, Note_on_c, 6, 54, 127
1, 163795, Note_off_c, 6, 66, 127
1, 163817, Note_off_c, 6, 54, 127
1, 163817, Note_off_c, 2, 74, 127
1, 163819, Note_on_c, 4, 64, 127
1, 163819, Note_on_c, 7, 55, 127
1, 163977, Note_off_c, 7, 55, 127
1, 163979, Note_on_c, 6, 54, 127
1, 164137, Note_off_c, 6, 54, 127
1, 164139, Note_on_c, 0, 72, 127
1, 164139, Note_on_c, 4, 52, 127
1, 164297, Note_off_c, 4, 52, 127
1, 164299, Note_on_c, 7, 55, 127
1, 164436, Note_off_c, 4, 64, 127
1, 164458, Note_off_c, 7, 55, 127
1, 164458, Note_off_c, 0, 72, 127
1, 164460, Note_on_c, 2, 62, 127
1, 164460, Note_on_c, 6, 54, 127
1, 164618, Note_off_c, 6, 54, 127
1, 164620, Note_on_c, 12, 71, 127
1, 164620, Note_on_c, 4, 52, 127
1, 164778, Note_off_c, 4, 52, 127
1, 164778, Note_off_c, 12, 71, 127
1, 164780, Note_on_c, 10, 69, 127
1, 164780, Note_on_c, 6, 54, 127
1, 164938, Note_off_c, 6, 54, 127
1, 164938, Note_off_c, 10, 69, 127
1, 164940, Note_on_c, 12, 71, 127
1, 164940, Note_on_c, 2, 50, 127
1, 165077, Note_off_c, 2, 62, 127
1, 165099, Note_off_c, 2, 50, 127
1, 165099, Note_off_c, 12, 71, 127
1, 165101, Note_on_c, 0, 60, 127
1, 165101, Note_on_c, 4, 52, 127
1, 165259, Note_off_c, 4, 52, 127
1, 165261, Note_on_c, 2, 50, 127
1, 165419, Note_off_c, 2, 50, 127
1, 165421, Note_on_c, 10, 69, 127
1, 165421, Note_on_c, 4, 52, 127
1, 165579, Note_off_c, 4, 52, 127
1, 165581, Note_on_c, 6, 54, 127
1, 165718, Note_off_c, 0, 60, 127
1, 165740, Note_off_c, 6, 54, 127
1, 165742, Note_on_c, 12, 59, 127
1, 165742, Note_on_c, 7, 55, 127
1, 165872, Note_off_c, 10, 69, 127
1, 165902, Note_on_c, 7, 67, 127
1, 166059, Note_off_c, 12, 59, 127
1, 166061, Note_off_c, 7, 67, 127
1, 166061, Note_off_c, 7, 55, 127
1, 166063, Note_on_c, 6, 66, 127
1, 166063, Note_on_c, 7, 55, 127
1, 166221, Note_off_c, 6, 66, 127
1, 166223, Note_on_c, 7, 67, 127
1, 166381, Note_off_c, 7, 67, 127
1, 166381, Note_off_c, 7, 55, 127
1, 166383, Note_on_c, 12, 59, 127
1, 166383, Note_on_c, 7, 43, 127
1, 166383, Note_on_c, 7, 55, 127
1, 166543, Note_on_c, 7, 67, 127
1, 166700, Note_off_c, 12, 59, 127
1, 166702, Note_off_c, 7, 67, 127
1, 166702, Note_off_c, 7, 55, 127
1, 166702, Note_off_c, 7, 43, 127
1, 166704, Note_on_c, 6, 66, 127
1, 166704, Note_on_c, 7, 43, 127
1, 166704, Note_on_c, 7, 55, 127
1, 166862, Note_off_c, 6, 66, 127
1, 166864, Note_on_c, 7, 67, 127
1, 167022, Note_off_c, 7, 67, 127
1, 167022, Note_off_c, 7, 55, 127
1, 167022, Note_off_c, 7, 43, 127
1, 167024, Note_on_c, 0, 60, 127
1, 167024, Note_on_c, 10, 45, 127
1, 167024, Note_on_c, 10, 57, 127
1, 167184, Note_on_c, 7, 67, 127
1, 167341, Note_off_c, 0, 60, 127
1, 167343, Note_off_c, 7, 67, 127
1, 167343, Note_off_c, 10, 57, 127
1, 167343, Note_off_c, 10, 45, 127
1, 167345, Note_on_c, 6, 66, 127
1, 167345, Note_on_c, 10, 57, 127
1, 167345, Note_on_c, 10, 45, 127
1, 167503, Note_off_c, 6, 66, 127
1, 167505, Note_on_c, 7, 67, 127
1, 167663, Note_off_c, 7, 67, 127
1, 167663, Note_off_c, 10, 45, 127
1, 167663, Note_off_c, 10, 57, 127
1, 167665, Note_on_c, 2, 62, 127
1, 167665, Note_on_c, 12, 47, 127
1, 167665, Note_on_c, 12, 59, 127
1, 167825, Note_on_c, 7, 67, 127
1, 167982, Note_off_c, 2, 62, 127
1, 167984, Note_off_c, 7, 67, 127
1, 167984, Note_off_c, 12, 59, 127
1, 167984, Note_off_c, 12, 47, 127
1, 167986, Note_on_c, 6, 66, 127
1, 167986, Note_on_c, 12, 47, 127
1, 167986, Note_on_c, 12, 59, 127
1, 168144, Note_off_c, 6, 66, 127
1, 168146, Note_on_c, 7, 67, 127
1, 168304, Note_off_c, 7, 67, 127
1, 168304, Note_off_c, 12, 59, 127
1, 168304, Note_off_c, 12, 47, 127
1, 168306, Note_on_c, 4, 64, 127
1, 168306, Note_on_c, 0, 48, 127
1, 168306, Note_on_c, 0, 60, 127
1, 168466, Note_on_c, 7, 67, 127
1, 168623, Note_off_c, 4, 64, 127
1, 168625, Note_off_c, 7, 67, 127
1, 168625, Note_off_c, 0, 60, 127
1, 168625, Note_off_c, 0, 48, 127
1, 168627, Note_on_c, 6, 66, 127
1, 168627, Note_on_c, 0, 60, 127
1, 168627, Note_on_c, 0, 48, 127
1, 168785, Note_off_c, 6, 66, 127
1, 168787, Note_on_c, 7, 67, 127
1, 168945, Note_off_c, 7, 67, 127
1, 168945, Note_off_c, 0, 48, 127
1, 168945, Note_off_c, 0, 60, 127
1, 168947, Note_on_c, 12, 59, 127
1, 168947, Note_on_c, 7, 55, 127
1, 168947, Note_on_c, 7, 43, 127
1, 169107, Note_on_c, 7, 67, 127
1, 169264, Note_off_c, 12, 59, 127
1, 169266, Note_off_c, 7, 67, 127
1, 169266, Note_off_c, 7, 43, 127
1, 169266, Note_off_c, 7, 55, 127
1, 169268, Note_on_c, 6, 66, 127
1, 169268, Note_on_c, 7, 55, 127
1, 169268, Note_on_c, 7, 43, 127
1, 169426, Note_off_c, 6, 66, 127
1, 169428, Note_on_c, 7, 67, 127
1, 169586, Note_off_c, 7, 67, 127
1, 169586, Note_off_c, 7, 43, 127
1, 169586, Note_off_c, 7, 55, 127
1, 169588, Note_on_c, 0, 60, 127
1, 169588, Note_on_c, 10, 57, 127
1, 169588, Note_on_c, 10, 45, 127
1, 169748, Note_on_c, 7, 67, 127
1, 169905, Note_off_c, 0, 60, 127
1, 169907, Note_off_c, 7, 67, 127
1, 169907, Note_off_c, 10, 45, 127
1, 169907, Note_off_c, 10, 57, 127
1, 169909, Note_on_c, 6, 66, 127
1, 169909, Note_on_c, 10, 45, 127
1, 169909, Note_on_c, 10, 57, 127
1, 170067, Note_off_c, 6, 66, 127
1, 170069, Note_on_c, 7, 67, 127
1, 170227, Note_off_c, 7, 67, 127
1, 170227, Note_off_c, 10, 57, 127
1, 170227, Note_off_c, 10, 45, 127
1, 170229, Note_on_c, 2, 62, 127
1, 170229, Note_on_c, 12, 59, 127
1, 170229, Note_on_c, 12, 47, 127
1, 170389, Note_on_c, 7, 67, 127
1, 170546, Note_off_c, 2, 62, 127
1, 170548, Note_off_c, 7, 67, 127
1, 170548, Note_off_c, 12, 47, 127
1, 170548, Note_off_c, 12, 59, 127
1, 170550, Note_on_c, 6, 66, 127
1, 170550, Note_on_c, 12, 59, 127
1, 170550, Note_on_c, 12, 47, 127
1, 170708, Note_off_c, 6, 66, 127
1, 170710, Note_on_c, 7, 67, 127
1, 170868, Note_off_c, 7, 67, 127
1, 170868, Note_off_c, 12, 47, 127
1, 170868, Note_off_c, 12, 59, 127
1, 170870, Note_on_c, 4, 64, 127
1, 170870, Note_on_c, 0, 48, 127
1, 170870, Note_on_c, 0, 60, 127
1, 171030, Note_on_c, 7, 67, 127
1, 171187, Note_off_c, 4, 64, 127
1, 171189, Note_off_c, 7, 67, 127
1, 171189, Note_off_c, 0, 60, 127
1, 171189, Note_off_c, 0, 48, 127
1, 171191, Note_on_c, 6, 66, 127
1, 171191, Note_on_c, 0, 48, 127
1, 171191, Note_on_c, 0, 60, 127
1, 171349, Note_off_c, 6, 66, 127
1, 171351, Note_on_c, 7, 67, 127
1, 171509, Note_off_c, 7, 67, 127
1, 171509, Note_off_c, 0, 60, 127
1, 171509, Note_off_c, 0, 48, 127
1, 171511, Note_on_c, 12, 59, 127
1, 171511, Note_on_c, 7, 55, 127
1, 171511, Note_on_c, 7, 43, 127
1, 171671, Note_on_c, 7, 67, 127
1, 171828, Note_off_c, 12, 59, 127
1, 171830, Note_off_c, 7, 67, 127
1, 171830, Note_off_c, 7, 43, 127
1, 171830, Note_off_c, 7, 55, 127
1, 171832, Note_on_c, 6, 66, 127
1, 171832, Note_on_c, 7, 43, 127
1, 171832, Note_on_c, 7, 55, 127
1, 171990, Note_off_c, 6, 66, 127
1, 171992, Note_on_c, 7, 67, 127
1, 172150, Note_off_c, 7, 55, 127
1, 172150, Note_off_c, 7, 43, 127
1, 172152, Note_on_c, 0, 60, 127
1, 172152, Note_on_c, 10, 45, 127
1, 172152, Note_on_c, 10, 57, 127
1, 172309, Note_off_c, 7, 67, 127
1, 172312, Note_on_c, 7, 67, 127
1, 172469, Note_off_c, 0, 60, 127
1, 172471, Note_off_c, 7, 67, 127
1, 172471, Note_off_c, 10, 57, 127
1, 172471, Note_off_c, 10, 45, 127
1, 172473, Note_on_c, 6, 66, 127
1, 172473, Note_on_c, 10, 45, 127
1, 172473, Note_on_c, 10, 57, 127
1, 172631, Note_off_c, 6, 66, 127
1, 172633, Note_on_c, 7, 67, 127
1, 172791, Note_off_c, 10, 57, 127
1, 172791, Note_off_c, 10, 45, 127
1, 172793, Note_on_c, 2, 62, 127
1, 172793, Note_on_c, 2, 38, 127
1, 172793, Note_on_c, 2, 50, 127
1, 172950, Note_off_c, 7, 67, 127
1, 172952, Note_off_c, 2, 62, 127
1, 172954, Note_on_c, 6, 66, 127
1, 173112, Note_off_c, 6, 66, 127
1, 173112, Note_off_c, 2, 50, 127
1, 173112, Note_off_c, 2, 38, 127
1, 173114, Note_on_c, 4, 64, 127
1, 173114, Note_on_c, 2, 38, 127
1, 173114, Note_on_c, 2, 50, 127
1, 173278, Note_off_c, 4, 64, 127
1, 173290, Note_on_c, 6, 66, 127
1, 173432, Note_off_c, 2, 50, 127
1, 173432, Note_off_c, 2, 38, 127
1, 173444, Note_off_c, 6, 66, 127
1, 173450, Note_on_c, 7, 55, 127
1, 173450, Note_on_c, 7, 43, 127
1, 173450, Note_on_c, 7, 67, 127
1, 173768, Note_off_c, 7, 67, 127
1, 173768, Note_off_c, 7, 43, 127
1, 173768, Note_off_c, 7, 55, 127
1, 173770, Note_on_c, 7, 43, 127
1, 173770, Note_on_c, 2, 62, 127
1, 173770, Note_on_c, 7, 67, 127
1, 173770, Note_on_c, 12, 59, 127
1, 174088, Note_off_c, 12, 59, 127
1, 174088, Note_off_c, 7, 67, 127
1, 174088, Note_off_c, 2, 62, 127
1, 174088, Note_off_c, 7, 43, 127
1, 174090, Note_on_c, 7, 43, 127
1, 174090, Note_on_c, 12, 59, 127
1, 174090, Note_on_c, 7, 67, 127
1, 174090, Note_on_c, 2, 62, 127
1, 174408, Note_off_c, 2, 62, 127
1, 174408, Note_off_c, 7, 67, 127
1, 174408, Note_off_c, 12, 59, 127
1, 174408, Note_off_c, 7, 43, 127
1, 174410, Note_on_c, 7, 43, 127
1, 174410, Note_on_c, 2, 50, 127
1, 174410, Note_on_c, 7, 67, 127
1, 174410, Note_on_c, 12, 59, 127
1, 174410, Note_on_c, 2, 62, 127
1, 174728, Note_off_c, 2, 62, 127
1, 174728, Note_off_c, 12, 59, 127
1, 174728, Note_off_c, 7, 67, 127
1, 174728, Note_off_c, 2, 50, 127
1, 174728, Note_off_c, 7, 43, 127
1, 174730, Note_on_c, 7, 55, 127
1, 174730, Note_on_c, 12, 47, 127
1, 174730, Note_on_c, 2, 50, 127
1, 174730, Note_on_c, 7, 43, 127
1, 174730, Note_on_c, 7, 67, 127
1, 174888, Note_off_c, 7, 67, 127
1, 174890, Note_on_c, 2, 62, 127
1, 175048, Note_off_c, 2, 62, 127
1, 175048, Note_off_c, 7, 43, 127
1, 175048, Note_off_c, 2, 50, 127
1, 175048, Note_off_c, 12, 47, 127
1, 175048, Note_off_c, 7, 55, 127
1, 175050, Note_on_c, 2, 50, 127
1, 175050, Note_on_c, 7, 55, 127
1, 175050, Note_on_c, 12, 47, 127
1, 175050, Note_on_c, 7, 43, 127
1, 175050, Note_on_c, 12, 59, 127
1, 175208, Note_off_c, 12, 59, 127
1, 175210, Note_on_c, 2, 62, 127
1, 175368, Note_off_c, 2, 62, 127
1, 175368, Note_off_c, 7, 43, 127
1, 175368, Note_off_c, 12, 47, 127
1, 175368, Note_off_c, 7, 55, 127
1, 175368, Note_off_c, 2, 50, 127
1, 175370, Note_on_c, 7, 55, 127
1, 175370, Note_on_c, 2, 50, 127
1, 175370, Note_on_c, 7, 43, 127
1, 175370, Note_on_c, 12, 47, 127
1, 175370, Note_on_c, 7, 67, 127
1, 175528, Note_off_c, 7, 67, 127
1, 175530, Note_on_c, 2, 62, 127
1, 175688, Note_off_c, 2, 62, 127
1, 175688, Note_off_c, 12, 47, 127
1, 175688, Note_off_c, 7, 43, 127
1, 175688, Note_off_c, 2, 50, 127
1, 175688, Note_off_c, 7, 55, 127
1, 175690, Note_on_c, 12, 47, 127
1, 175690, Note_on_c, 2, 50, 127
1, 175690, Note_on_c, 7, 55, 127
1, 175690, Note_on_c, 7, 43, 127
1, 175690, Note_on_c, 12, 59, 127
1, 175848, Note_off_c, 12, 59, 127
1, 175850, Note_on_c, 2, 62, 127
1, 176008, Note_off_c, 2, 62, 127
1, 176008, Note_off_c, 7, 43, 127
1, 176008, Note_off_c, 7, 55, 127
1, 176008, Note_off_c, 2, 50, 127
1, 176008, Note_off_c, 12, 47, 127
1, 176010, Note_on_c, 7, 43, 127
1, 176010, Note_on_c, 7, 55, 127
1, 176010, Note_on_c, 12, 59, 127
1, 176010, Note_on_c, 2, 62, 127
1, 176010, Note_on_c, 7, 67, 127
1, 176168, Note_off_c, 7, 55, 127
1, 176168, Note_off_c, 7, 43, 127
1, 176170, Note_on_c, 2, 50, 127
1, 176328, Note_off_c, 2, 50, 127
1, 176328, Note_off_c, 7, 67, 127
1, 176328, Note_off_c, 2, 62, 127
1, 176328, Note_off_c, 12, 59, 127
1, 176330, Note_on_c, 12, 47, 127
1, 176330, Note_on_c, 2, 62, 127
1, 176330, Note_on_c, 7, 67, 127
1, 176330, Note_on_c, 12, 59, 127
1, 176488, Note_off_c, 12, 47, 127
1, 176490, Note_on_c, 2, 50, 127
1, 176648, Note_off_c, 2, 50, 127
1, 176648, Note_off_c, 12, 59, 127
1, 176648, Note_off_c, 7, 67, 127
1, 176648, Note_off_c, 2, 62, 127
1, 176650, Note_on_c, 7, 55, 127
1, 176650, Note_on_c, 12, 59, 127
1, 176650, Note_on_c, 2, 62, 127
1, 176650, Note_on_c, 7, 67, 127
1, 176808, Note_off_c, 7, 55, 127
1, 176810, Note_on_c, 2, 50, 127
1, 176968, Note_off_c, 2, 50, 127
1, 176968, Note_off_c, 7, 67, 127
1, 176968, Note_off_c, 2, 62, 127
1, 176968, Note_off_c, 12, 59, 127
1, 176970, Note_on_c, 12, 47, 127
1, 176970, Note_on_c, 7, 67, 127
1, 176970, Note_on_c, 12, 59, 127
1, 176970, Note_on_c, 2, 62, 127
1, 177128, Note_off_c, 12, 47, 127
1, 177130, Note_on_c, 2, 50, 127
1, 177288, Note_off_c, 2, 50, 127
1, 177288, Note_off_c, 2, 62, 127
1, 177288, Note_off_c, 12, 59, 127
1, 177288, Note_off_c, 7, 67, 127
1, 177290, Note_on_c, 7, 55, 127
1, 177290, Note_on_c, 12, 47, 127
1, 177290, Note_on_c, 7, 43, 127
1, 177290, Note_on_c, 2, 50, 127
1, 177290, Note_on_c, 7, 67, 127
1, 177448, Note_off_c, 7, 67, 127
1, 177450, Note_on_c, 2, 62, 127
1, 177608, Note_off_c, 2, 62, 127
1, 177608, Note_off_c, 2, 50, 127
1, 177608, Note_off_c, 7, 43, 127
1, 177608, Note_off_c, 12, 47, 127
1, 177608, Note_off_c, 7, 55, 127
1, 177610, Note_on_c, 12, 47, 127
1, 177610, Note_on_c, 2, 50, 127
1, 177610, Note_on_c, 7, 55, 127
1, 177610, Note_on_c, 7, 43, 127
1, 177610, Note_on_c, 12, 59, 127
1, 177768, Note_off_c, 12, 59, 127
1, 177770, Note_on_c, 2, 62, 127
1, 177928, Note_off_c, 2, 62, 127
1, 177928, Note_off_c, 7, 43, 127
1, 177928, Note_off_c, 7, 55, 127
1, 177928, Note_off_c, 2, 50, 127
1, 177928, Note_off_c, 12, 47, 127
1, 177930, Note_on_c, 7, 55, 127
1, 177930, Note_on_c, 7, 43, 127
1, 177930, Note_on_c, 12, 47, 127
1, 177930, Note_on_c, 2, 50, 127
1, 177930, Note_on_c, 7, 67, 127
1, 178088, Note_off_c, 7, 67, 127
1, 178090, Note_on_c, 2, 62, 127
1, 178248, Note_off_c, 2, 62, 127
1, 178248, Note_off_c, 2, 50, 127
1, 178248, Note_off_c, 12, 47, 127
1, 178248, Note_off_c, 7, 43, 127
1, 178248, Note_off_c, 7, 55, 127
1, 178250, Note_on_c, 7, 55, 127
1, 178250, Note_on_c, 2, 50, 127
1, 178250, Note_on_c, 7, 43, 127
1, 178250, Note_on_c, 12, 47, 127
1, 178250, Note_on_c, 12, 59, 127
1, 178408, Note_off_c, 12, 59, 127
1, 178410, Note_on_c, 2, 62, 127
1, 178568, Note_off_c, 2, 62, 127
1, 178568, Note_off_c, 12, 47, 127
1, 178568, Note_off_c, 7, 43, 127
1, 178568, Note_off_c, 2, 50, 127
1, 178568, Note_off_c, 7, 55, 127
1, 178570, Note_on_c, 7, 43, 127
1, 178570, Note_on_c, 12, 59, 127
1, 178570, Note_on_c, 7, 67, 127
1, 178648, Note_off_c, 7, 43, 127
1, 178650, Note_on_c, 2, 50, 127
1, 178728, Note_off_c, 2, 50, 127
1, 178730, Note_on_c, 4, 52, 127
1, 178808, Note_off_c, 4, 52, 127
1, 178810, Note_on_c, 6, 54, 127
1, 178888, Note_off_c, 6, 54, 127
1, 178888, Note_off_c, 7, 67, 127
1, 178888, Note_off_c, 12, 59, 127
1, 178890, Note_on_c, 7, 55, 127
1, 178890, Note_on_c, 10, 69, 127
1, 178890, Note_on_c, 0, 60, 127
1, 179048, Note_off_c, 0, 60, 127
1, 179048, Note_off_c, 10, 69, 127
1, 179048, Note_off_c, 7, 55, 127
1, 179050, Note_on_c, 4, 52, 127
1, 179050, Note_on_c, 12, 71, 127
1, 179050, Note_on_c, 2, 62, 127
1, 179208, Note_off_c, 2, 62, 127
1, 179208, Note_off_c, 12, 71, 127
1, 179208, Note_off_c, 4, 52, 127
1, 179210, Note_on_c, 0, 48, 127
1, 179210, Note_on_c, 10, 69, 127
1, 179210, Note_on_c, 0, 60, 127
1, 179368, Note_off_c, 0, 48, 127
1, 179370, Note_on_c, 2, 50, 127
1, 179528, Note_off_c, 2, 50, 127
1, 179528, Note_off_c, 0, 60, 127
1, 179528, Note_off_c, 10, 69, 127
1, 179530, Note_on_c, 4, 52, 127
1, 179530, Note_on_c, 7, 67, 127
1, 179530, Note_on_c, 12, 59, 127
1, 179688, Note_off_c, 4, 52, 127
1, 179690, Note_on_c, 0, 48, 127
1, 179848, Note_off_c, 0, 48, 127
1, 179848, Note_off_c, 12, 59, 127
1, 179848, Note_off_c, 7, 67, 127
1, 179858, Note_on_c, 2, 50, 127
1, 179858, Note_on_c, 10, 57, 127
1, 180018, Note_on_c, 6, 66, 127
1, 180175, Note_off_c, 10, 57, 127
1, 180177, Note_off_c, 6, 66, 127
1, 180177, Note_off_c, 2, 50, 127
1, 180179, Note_on_c, 2, 50, 127
1, 180179, Note_on_c, 10, 69, 127
1, 180337, Note_off_c, 10, 69, 127
1, 180339, Note_on_c, 6, 66, 127
1, 180497, Note_off_c, 6, 66, 127
1, 180497, Note_off_c, 2, 50, 127
1, 180499, Note_on_c, 2, 50, 127
1, 180499, Note_on_c, 10, 69, 127
1, 180657, Note_off_c, 10, 69, 127
1, 180659, Note_on_c, 6, 66, 127
1, 180817, Note_off_c, 6, 66, 127
1, 180817, Note_off_c, 2, 50, 127
1, 180819, Note_on_c, 2, 50, 127
1, 180819, Note_on_c, 10, 69, 127
1, 180977, Note_off_c, 10, 69, 127
1, 180979, Note_on_c, 6, 66, 127
1, 181137, Note_off_c, 6, 66, 127
1, 181137, Note_off_c, 2, 50, 127
1, 181139, Note_on_c, 10, 45, 127
1, 181139, Note_on_c, 2, 50, 127
1, 181139, Note_on_c, 2, 38, 127
1, 181139, Note_on_c, 6, 42, 127
1, 181139, Note_on_c, 2, 62, 127
1, 181297, Note_off_c, 2, 62, 127
1, 181299, Note_on_c, 6, 66, 127
1, 181457, Note_off_c, 6, 66, 127
1, 181457, Note_off_c, 6, 42, 127
1, 181457, Note_off_c, 2, 38, 127
1, 181457, Note_off_c, 2, 50, 127
1, 181457, Note_off_c, 10, 45, 127
1, 181459, Note_on_c, 2, 50, 127
1, 181459, Note_on_c, 10, 69, 127
1, 181617, Note_off_c, 10, 69, 127
1, 181619, Note_on_c, 6, 66, 127
1, 181777, Note_off_c, 6, 66, 127
1, 181777, Note_off_c, 2, 50, 127
1, 181779, Note_on_c, 2, 50, 127
1, 181779, Note_on_c, 10, 69, 127
1, 181937, Note_off_c, 10, 69, 127
1, 181939, Note_on_c, 6, 66, 127
1, 182097, Note_off_c, 6, 66, 127
1, 182097, Note_off_c, 2, 50, 127
1, 182099, Note_on_c, 2, 50, 127
1, 182099, Note_on_c, 10, 69, 127
1, 182257, Note_off_c, 10, 69, 127
1, 182259, Note_on_c, 6, 66, 127
1, 182417, Note_off_c, 6, 66, 127
1, 182417, Note_off_c, 2, 50, 127
1, 182419, Note_on_c, 10, 45, 127
1, 182419, Note_on_c, 2, 50, 127
1, 182419, Note_on_c, 2, 38, 127
1, 182419, Note_on_c, 6, 42, 127
1, 182419, Note_on_c, 2, 62, 127
1, 182577, Note_off_c, 2, 62, 127
1, 182579, Note_on_c, 6, 66, 127
1, 182737, Note_off_c, 6, 66, 127
1, 182737, Note_off_c, 6, 42, 127
1, 182737, Note_off_c, 2, 38, 127
1, 182737, Note_off_c, 2, 50, 127
1, 182737, Note_off_c, 10, 45, 127
1, 182739, Note_on_c, 2, 50, 127
1, 182739, Note_on_c, 0, 72, 127
1, 182897, Note_off_c, 0, 72, 127
1, 182899, Note_on_c, 6, 66, 127
1, 183057, Note_off_c, 6, 66, 127
1, 183057, Note_off_c, 2, 50, 127
1, 183059, Note_on_c, 2, 50, 127
1, 183059, Note_on_c, 0, 72, 127
1, 183217, Note_off_c, 0, 72, 127
1, 183219, Note_on_c, 6, 66, 127
1, 183377, Note_off_c, 6, 66, 127
1, 183377, Note_off_c, 2, 50, 127
1, 183379, Note_on_c, 2, 50, 127
1, 183379, Note_on_c, 0, 72, 127
1, 183537, Note_off_c, 0, 72, 127
1, 183539, Note_on_c, 6, 66, 127
1, 183697, Note_off_c, 6, 66, 127
1, 183697, Note_off_c, 2, 50, 127
1, 183699, Note_on_c, 2, 50, 127
1, 183699, Note_on_c, 2, 38, 127
1, 183699, Note_on_c, 6, 42, 127
1, 183699, Note_on_c, 10, 45, 127
1, 183699, Note_on_c, 2, 62, 127
1, 183857, Note_off_c, 2, 62, 127
1, 183859, Note_on_c, 6, 66, 127
1, 184017, Note_off_c, 6, 66, 127
1, 184017, Note_off_c, 2, 50, 127
1, 184019, Note_on_c, 2, 50, 127
1, 184019, Note_on_c, 0, 72, 127
1, 184032, Note_off_c, 10, 45, 127
1, 184032, Note_off_c, 6, 42, 127
1, 184032, Note_off_c, 2, 38, 127
1, 184177, Note_off_c, 0, 72, 127
1, 184179, Note_on_c, 6, 66, 127
1, 184337, Note_off_c, 6, 66, 127
1, 184337, Note_off_c, 2, 50, 127
1, 184339, Note_on_c, 2, 50, 127
1, 184339, Note_on_c, 0, 72, 127
1, 184497, Note_off_c, 0, 72, 127
1, 184499, Note_on_c, 6, 66, 127
1, 184657, Note_off_c, 6, 66, 127
1, 184657, Note_off_c, 2, 50, 127
1, 184659, Note_on_c, 2, 50, 127
1, 184659, Note_on_c, 0, 72, 127
1, 184817, Note_off_c, 0, 72, 127
1, 184819, Note_on_c, 6, 66, 127
1, 184977, Note_off_c, 6, 66, 127
1, 184977, Note_off_c, 2, 50, 127
1, 184979, Note_on_c, 12, 47, 127
1, 184979, Note_on_c, 2, 50, 127
1, 184979, Note_on_c, 7, 55, 127
1, 184979, Note_on_c, 7, 43, 127
1, 184979, Note_on_c, 2, 62, 127
1, 185137, Note_off_c, 2, 62, 127
1, 185139, Note_on_c, 7, 67, 127
1, 185297, Note_off_c, 7, 67, 127
1, 185297, Note_off_c, 2, 50, 127
1, 185299, Note_on_c, 2, 50, 127
1, 185299, Note_on_c, 12, 71, 127
1, 185329, Note_off_c, 7, 43, 127
1, 185329, Note_off_c, 12, 47, 127
1, 185446, Note_off_c, 7, 55, 127
1, 185458, Note_off_c, 12, 71, 127
1, 185460, Note_on_c, 7, 67, 127
1, 185618, Note_off_c, 7, 67, 127
1, 185618, Note_off_c, 2, 50, 127
1, 185620, Note_on_c, 2, 50, 127
1, 185620, Note_on_c, 12, 71, 127
1, 185778, Note_off_c, 12, 71, 127
1, 185780, Note_on_c, 7, 67, 127
1, 185938, Note_off_c, 7, 67, 127
1, 185938, Note_off_c, 2, 50, 127
1, 185940, Note_on_c, 2, 50, 127
1, 185940, Note_on_c, 12, 71, 127
1, 186098, Note_off_c, 12, 71, 127
1, 186100, Note_on_c, 7, 67, 127
1, 186258, Note_off_c, 7, 67, 127
1, 186258, Note_off_c, 2, 50, 127
1, 186260, Note_on_c, 12, 47, 127
1, 186260, Note_on_c, 2, 50, 127
1, 186260, Note_on_c, 7, 55, 127
1, 186260, Note_on_c, 7, 43, 127
1, 186260, Note_on_c, 2, 62, 127
1, 186418, Note_off_c, 2, 62, 127
1, 186420, Note_on_c, 7, 67, 127
1, 186578, Note_off_c, 7, 67, 127
1, 186578, Note_off_c, 2, 50, 127
1, 186580, Note_on_c, 2, 50, 127
1, 186580, Note_on_c, 12, 71, 127
1, 186610, Note_off_c, 7, 43, 127
1, 186610, Note_off_c, 12, 47, 127
1, 186727, Note_off_c, 7, 55, 127
1, 186739, Note_off_c, 12, 71, 127
1, 186741, Note_on_c, 7, 67, 127
1, 186899, Note_off_c, 7, 67, 127
1, 186899, Note_off_c, 2, 50, 127
1, 186901, Note_on_c, 2, 50, 127
1, 186901, Note_on_c, 12, 71, 127
1, 187059, Note_off_c, 12, 71, 127
1, 187061, Note_on_c, 7, 67, 127
1, 187219, Note_off_c, 7, 67, 127
1, 187219, Note_off_c, 2, 50, 127
1, 187221, Note_on_c, 2, 50, 127
1, 187221, Note_on_c, 12, 71, 127
1, 187379, Note_off_c, 12, 71, 127
1, 187381, Note_on_c, 7, 67, 127
1, 187539, Note_off_c, 7, 67, 127
1, 187539, Note_off_c, 2, 50, 127
1, 187541, Note_on_c, 2, 50, 127
1, 187541, Note_on_c, 7, 55, 127
1, 187541, Note_on_c, 7, 43, 127
1, 187541, Note_on_c, 11, 46, 127
1, 187541, Note_on_c, 2, 62, 127
1, 187699, Note_off_c, 2, 62, 127
1, 187701, Note_on_c, 7, 67, 127
1, 187859, Note_off_c, 7, 67, 127
1, 187859, Note_off_c, 2, 50, 127
1, 187861, Note_on_c, 2, 50, 127
1, 187861, Note_on_c, 11, 70, 127
1, 187908, Note_off_c, 11, 46, 127
1, 187908, Note_off_c, 7, 43, 127
1, 188020, Note_off_c, 11, 70, 127
1, 188022, Note_on_c, 7, 67, 127
1, 188175, Note_off_c, 7, 55, 127
1, 188180, Note_off_c, 7, 67, 127
1, 188180, Note_off_c, 2, 50, 127
1, 188182, Note_on_c, 2, 50, 127
1, 188182, Note_on_c, 11, 70, 127
1, 188340, Note_off_c, 11, 70, 127
1, 188342, Note_on_c, 7, 67, 127
1, 188500, Note_off_c, 7, 67, 127
1, 188500, Note_off_c, 2, 50, 127
1, 188502, Note_on_c, 2, 50, 127
1, 188502, Note_on_c, 11, 70, 127
1, 188660, Note_off_c, 11, 70, 127
1, 188662, Note_on_c, 7, 67, 127
1, 188820, Note_off_c, 7, 67, 127
1, 188820, Note_off_c, 2, 50, 127
1, 188822, Note_on_c, 11, 46, 127
1, 188822, Note_on_c, 7, 55, 127
1, 188822, Note_on_c, 7, 43, 127
1, 188822, Note_on_c, 2, 50, 127
1, 188822, Note_on_c, 2, 62, 127
1, 188980, Note_off_c, 2, 62, 127
1, 188982, Note_on_c, 7, 67, 127
1, 189140, Note_off_c, 7, 67, 127
1, 189140, Note_off_c, 2, 50, 127
1, 189142, Note_on_c, 2, 50, 127
1, 189142, Note_on_c, 11, 70, 127
1, 189189, Note_off_c, 7, 43, 127
1, 189189, Note_off_c, 11, 46, 127
1, 189301, Note_off_c, 11, 70, 127
1, 189303, Note_on_c, 7, 67, 127
1, 189456, Note_off_c, 7, 55, 127
1, 189461, Note_off_c, 7, 67, 127
1, 189461, Note_off_c, 2, 50, 127
1, 189463, Note_on_c, 2, 50, 127
1, 189463, Note_on_c, 11, 70, 127
1, 189621, Note_off_c, 11, 70, 127
1, 189623, Note_on_c, 7, 67, 127
1, 189781, Note_off_c, 7, 67, 127
1, 189781, Note_off_c, 2, 50, 127
1, 189783, Note_on_c, 2, 50, 127
1, 189783, Note_on_c, 11, 70, 127
1, 189941, Note_off_c, 11, 70, 127
1, 189943, Note_on_c, 7, 67, 127
1, 190101, Note_off_c, 7, 67, 127
1, 190101, Note_off_c, 2, 50, 127
1, 190103, Note_on_c, 2, 50, 127
1, 190103, Note_on_c, 7, 55, 127
1, 190103, Note_on_c, 2, 62, 127
1, 190263, Note_on_c, 7, 67, 127
1, 190420, Note_off_c, 2, 62, 127
1, 190422, Note_off_c, 7, 67, 127
1, 190422, Note_off_c, 2, 50, 127
1, 190424, Note_on_c, 2, 50, 127
1, 190424, Note_on_c, 10, 69, 127
1, 190582, Note_off_c, 10, 69, 127
1, 190584, Note_on_c, 7, 67, 127
1, 190742, Note_off_c, 7, 67, 127
1, 190742, Note_off_c, 2, 50, 127
1, 190744, Note_on_c, 2, 50, 127
1, 190744, Note_on_c, 10, 69, 127
1, 190902, Note_off_c, 10, 69, 127
1, 190904, Note_on_c, 7, 67, 127
1, 191062, Note_off_c, 7, 67, 127
1, 191062, Note_off_c, 2, 50, 127
1, 191062, Note_off_c, 7, 55, 127
1, 191064, Note_on_c, 2, 50, 127
1, 191064, Note_on_c, 10, 69, 127
1, 191222, Note_off_c, 10, 69, 127
1, 191224, Note_on_c, 7, 67, 127
1, 191382, Note_off_c, 7, 67, 127
1, 191382, Note_off_c, 2, 50, 127
1, 191384, Note_on_c, 2, 50, 127
1, 191384, Note_on_c, 7, 55, 127
1, 191384, Note_on_c, 2, 62, 127
1, 191544, Note_on_c, 7, 67, 127
1, 191701, Note_off_c, 2, 62, 127
1, 191703, Note_off_c, 7, 67, 127
1, 191703, Note_off_c, 2, 50, 127
1, 191705, Note_on_c, 2, 50, 127
1, 191705, Note_on_c, 10, 69, 127
1, 191863, Note_off_c, 10, 69, 127
1, 191865, Note_on_c, 7, 67, 127
1, 192023, Note_off_c, 7, 67, 127
1, 192023, Note_off_c, 2, 50, 127
1, 192025, Note_on_c, 2, 50, 127
1, 192025, Note_on_c, 10, 69, 127
1, 192183, Note_off_c, 10, 69, 127
1, 192185, Note_off_c, 7, 55, 127
1, 192185, Note_on_c, 7, 67, 127
1, 192343, Note_off_c, 7, 67, 127
1, 192343, Note_off_c, 2, 50, 127
1, 192345, Note_on_c, 2, 50, 127
1, 192345, Note_on_c, 10, 69, 127
1, 192503, Note_off_c, 10, 69, 127
1, 192505, Note_on_c, 7, 67, 127
1, 192663, Note_off_c, 7, 67, 127
1, 192663, Note_off_c, 2, 50, 127
1, 192665, Note_on_c, 0, 48, 127
1, 192665, Note_on_c, 2, 50, 127
1, 192665, Note_on_c, 2, 38, 127
1, 192665, Note_on_c, 2, 62, 127
1, 192823, Note_off_c, 2, 62, 127
1, 192825, Note_on_c, 6, 66, 127
1, 192983, Note_off_c, 6, 66, 127
1, 192983, Note_off_c, 2, 50, 127
1, 192985, Note_on_c, 2, 50, 127
1, 192985, Note_on_c, 10, 69, 127
1, 193143, Note_off_c, 10, 69, 127
1, 193145, Note_on_c, 6, 66, 127
1, 193303, Note_off_c, 6, 66, 127
1, 193303, Note_off_c, 2, 50, 127
1, 193305, Note_on_c, 2, 50, 127
1, 193305, Note_on_c, 10, 69, 127
1, 193463, Note_off_c, 10, 69, 127
1, 193465, Note_on_c, 6, 66, 127
1, 193623, Note_off_c, 6, 66, 127
1, 193623, Note_off_c, 2, 50, 127
1, 193623, Note_off_c, 2, 38, 127
1, 193625, Note_on_c, 2, 50, 127
1, 193625, Note_on_c, 10, 69, 127
1, 193783, Note_off_c, 10, 69, 127
1, 193785, Note_on_c, 6, 66, 127
1, 193943, Note_off_c, 6, 66, 127
1, 193943, Note_off_c, 2, 50, 127
1, 193943, Note_off_c, 0, 48, 127
1, 193945, Note_on_c, 0, 48, 127
1, 193945, Note_on_c, 2, 50, 127
1, 193945, Note_on_c, 2, 38, 127
1, 193945, Note_on_c, 2, 62, 127
1, 194103, Note_off_c, 2, 62, 127
1, 194105, Note_on_c, 6, 66, 127
1, 194263, Note_off_c, 6, 66, 127
1, 194263, Note_off_c, 2, 50, 127
1, 194265, Note_on_c, 2, 50, 127
1, 194265, Note_on_c, 10, 69, 127
1, 194423, Note_off_c, 10, 69, 127
1, 194425, Note_on_c, 6, 66, 127
1, 194583, Note_off_c, 6, 66, 127
1, 194583, Note_off_c, 2, 50, 127
1, 194585, Note_on_c, 2, 50, 127
1, 194585, Note_on_c, 10, 69, 127
1, 194743, Note_off_c, 10, 69, 127
1, 194745, Note_on_c, 6, 66, 127
1, 194903, Note_off_c, 6, 66, 127
1, 194903, Note_off_c, 2, 50, 127
1, 194903, Note_off_c, 2, 38, 127
1, 194903, Note_off_c, 0, 48, 127
1, 194905, Note_on_c, 2, 50, 127
1, 194905, Note_on_c, 10, 69, 127
1, 195063, Note_off_c, 10, 69, 127
1, 195065, Note_on_c, 6, 66, 127
1, 195223, Note_off_c, 6, 66, 127
1, 195223, Note_off_c, 2, 50, 127
1, 195233, Note_on_c, 2, 50, 127
1, 195233, Note_on_c, 7, 43, 127
1, 195233, Note_on_c, 12, 47, 127
1, 195233, Note_on_c, 7, 67, 127
1, 195551, Note_off_c, 7, 67, 127
1, 195551, Note_off_c, 7, 43, 127
1, 195569, Note_on_c, 12, 59, 127
1, 195569, Note_on_c, 7, 67, 127
1, 195569, Note_on_c, 2, 62, 127
1, 195569, Note_on_c, 7, 43, 127
1, 195887, Note_off_c, 7, 43, 127
1, 195887, Note_off_c, 2, 62, 127
1, 195887, Note_off_c, 7, 67, 127
1, 195887, Note_off_c, 12, 59, 127
1, 195889, Note_on_c, 12, 59, 127
1, 195889, Note_on_c, 2, 62, 127
1, 195889, Note_on_c, 7, 67, 127
1, 195889, Note_on_c, 7, 43, 127
1, 196191, Note_off_c, 2, 50, 127
1, 196207, Note_off_c, 7, 43, 127
1, 196207, Note_off_c, 7, 67, 127
1, 196207, Note_off_c, 2, 62, 127
1, 196207, Note_off_c, 12, 59, 127
1, 196209, Note_on_c, 12, 59, 127
1, 196209, Note_on_c, 7, 67, 127
1, 196209, Note_on_c, 2, 62, 127
1, 196209, Note_on_c, 2, 50, 127
1, 196209, Note_on_c, 7, 43, 127
1, 196511, Note_off_c, 12, 47, 127
1, 196527, Note_off_c, 7, 43, 127
1, 196527, Note_off_c, 2, 50, 127
1, 196527, Note_off_c, 2, 62, 127
1, 196527, Note_off_c, 7, 67, 127
1, 196527, Note_off_c, 12, 59, 127
1, 196529, Note_on_c, 7, 67, 127
1, 196529, Note_on_c, 7, 43, 127
1, 196529, Note_on_c, 7, 55, 127
1, 196529, Note_on_c, 2, 50, 127
1, 196529, Note_on_c, 12, 47, 127
1, 196687, Note_off_c, 7, 67, 127
1, 196689, Note_on_c, 2, 62, 127
1, 196847, Note_off_c, 2, 62, 127
1, 196847, Note_off_c, 12, 47, 127
1, 196847, Note_off_c, 2, 50, 127
1, 196847, Note_off_c, 7, 55, 127
1, 196847, Note_off_c, 7, 43, 127
1, 196849, Note_on_c, 12, 59, 127
1, 196849, Note_on_c, 7, 43, 127
1, 196849, Note_on_c, 12, 47, 127
1, 196849, Note_on_c, 7, 55, 127
1, 196849, Note_on_c, 2, 50, 127
1, 197007, Note_off_c, 12, 59, 127
1, 197009, Note_on_c, 2, 62, 127
1, 197167, Note_off_c, 2, 62, 127
1, 197167, Note_off_c, 2, 50, 127
1, 197167, Note_off_c, 7, 55, 127
1, 197167, Note_off_c, 12, 47, 127
1, 197167, Note_off_c, 7, 43, 127
1, 197169, Note_on_c, 7, 67, 127
1, 197169, Note_on_c, 7, 43, 127
1, 197169, Note_on_c, 7, 55, 127
1, 197169, Note_on_c, 2, 50, 127
1, 197169, Note_on_c, 12, 47, 127
1, 197327, Note_off_c, 7, 67, 127
1, 197329, Note_on_c, 2, 62, 127
1, 197487, Note_off_c, 2, 62, 127
1, 197487, Note_off_c, 12, 47, 127
1, 197487, Note_off_c, 2, 50, 127
1, 197487, Note_off_c, 7, 55, 127
1, 197487, Note_off_c, 7, 43, 127
1, 197489, Note_on_c, 12, 59, 127
1, 197489, Note_on_c, 12, 47, 127
1, 197489, Note_on_c, 7, 43, 127
1, 197489, Note_on_c, 7, 55, 127
1, 197489, Note_on_c, 2, 50, 127
1, 197647, Note_off_c, 12, 59, 127
1, 197649, Note_on_c, 2, 62, 127
1, 197807, Note_off_c, 2, 62, 127
1, 197807, Note_off_c, 2, 50, 127
1, 197807, Note_off_c, 7, 55, 127
1, 197807, Note_off_c, 7, 43, 127
1, 197807, Note_off_c, 12, 47, 127
1, 197809, Note_on_c, 12, 59, 127
1, 197809, Note_on_c, 7, 67, 127
1, 197809, Note_on_c, 2, 62, 127
1, 197809, Note_on_c, 7, 43, 127
1, 197809, Note_on_c, 7, 55, 127
1, 197967, Note_off_c, 7, 43, 127
1, 197969, Note_on_c, 2, 50, 127
1, 198127, Note_off_c, 2, 50, 127
1, 198127, Note_off_c, 2, 62, 127
1, 198127, Note_off_c, 7, 67, 127
1, 198127, Note_off_c, 12, 59, 127
1, 198129, Note_on_c, 12, 59, 127
1, 198129, Note_on_c, 7, 67, 127
1, 198129, Note_on_c, 2, 62, 127
1, 198129, Note_on_c, 12, 47, 127
1, 198287, Note_off_c, 12, 47, 127
1, 198289, Note_on_c, 2, 50, 127
1, 198442, Note_off_c, 7, 55, 127
1, 198447, Note_off_c, 2, 50, 127
1, 198447, Note_off_c, 2, 62, 127
1, 198447, Note_off_c, 7, 67, 127
1, 198447, Note_off_c, 12, 59, 127
1, 198449, Note_on_c, 2, 62, 127
1, 198449, Note_on_c, 12, 59, 127
1, 198449, Note_on_c, 7, 67, 127
1, 198449, Note_on_c, 7, 55, 127
1, 198609, Note_on_c, 2, 50, 127
1, 198767, Note_off_c, 2, 50, 127
1, 198767, Note_off_c, 7, 67, 127
1, 198767, Note_off_c, 12, 59, 127
1, 198767, Note_off_c, 2, 62, 127
1, 198769, Note_on_c, 12, 59, 127
1, 198769, Note_on_c, 7, 67, 127
1, 198769, Note_on_c, 2, 62, 127
1, 198769, Note_on_c, 12, 47, 127
1, 198927, Note_off_c, 12, 47, 127
1, 198929, Note_on_c, 2, 50, 127
1, 199082, Note_off_c, 7, 55, 127
1, 199087, Note_off_c, 2, 50, 127
1, 199087, Note_off_c, 2, 62, 127
1, 199087, Note_off_c, 7, 67, 127
1, 199087, Note_off_c, 12, 59, 127
1, 199089, Note_on_c, 7, 67, 127
1, 199089, Note_on_c, 7, 43, 127
1, 199089, Note_on_c, 7, 55, 127
1, 199089, Note_on_c, 2, 50, 127
1, 199089, Note_on_c, 12, 47, 127
1, 199247, Note_off_c, 7, 67, 127
1, 199249, Note_on_c, 2, 62, 127
1, 199407, Note_off_c, 2, 62, 127
1, 199407, Note_off_c, 12, 47, 127
1, 199407, Note_off_c, 2, 50, 127
1, 199407, Note_off_c, 7, 55, 127
1, 199407, Note_off_c, 7, 43, 127
1, 199409, Note_on_c, 12, 59, 127
1, 199409, Note_on_c, 7, 43, 127
1, 199409, Note_on_c, 7, 55, 127
1, 199409, Note_on_c, 2, 50, 127
1, 199409, Note_on_c, 12, 47, 127
1, 199567, Note_off_c, 12, 59, 127
1, 199569, Note_on_c, 2, 62, 127
1, 199727, Note_off_c, 2, 62, 127
1, 199727, Note_off_c, 12, 47, 127
1, 199727, Note_off_c, 2, 50, 127
1, 199727, Note_off_c, 7, 55, 127
1, 199727, Note_off_c, 7, 43, 127
1, 199729, Note_on_c, 7, 67, 127
1, 199729, Note_on_c, 7, 55, 127
1, 199729, Note_on_c, 7, 43, 127
1, 199729, Note_on_c, 2, 50, 127
1, 199729, Note_on_c, 12, 47, 127
1, 199887, Note_off_c, 7, 67, 127
1, 199889, Note_on_c, 2, 62, 127
1, 200047, Note_off_c, 2, 62, 127
1, 200047, Note_off_c, 12, 47, 127
1, 200047, Note_off_c, 2, 50, 127
1, 200047, Note_off_c, 7, 43, 127
1, 200047, Note_off_c, 7, 55, 127
1, 200049, Note_on_c, 12, 59, 127
1, 200049, Note_on_c, 7, 43, 127
1, 200049, Note_on_c, 2, 50, 127
1, 200049, Note_on_c, 12, 47, 127
1, 200049, Note_on_c, 7, 55, 127
1, 200207, Note_off_c, 12, 59, 127
1, 200209, Note_on_c, 2, 62, 127
1, 200367, Note_off_c, 2, 62, 127
1, 200367, Note_off_c, 7, 55, 127
1, 200367, Note_off_c, 12, 47, 127
1, 200367, Note_off_c, 2, 50, 127
1, 200367, Note_off_c, 7, 43, 127
1, 200369, Note_on_c, 12, 59, 127
1, 200369, Note_on_c, 7, 67, 127
1, 200369, Note_on_c, 7, 43, 127
1, 200447, Note_off_c, 7, 43, 127
1, 200449, Note_on_c, 2, 50, 127
1, 200527, Note_off_c, 2, 50, 127
1, 200529, Note_on_c, 4, 52, 127
1, 200607, Note_off_c, 4, 52, 127
1, 200609, Note_on_c, 6, 54, 127
1, 200687, Note_off_c, 6, 54, 127
1, 200687, Note_off_c, 7, 67, 127
1, 200687, Note_off_c, 12, 59, 127
1, 200689, Note_on_c, 10, 69, 127
1, 200689, Note_on_c, 0, 60, 127
1, 200689, Note_on_c, 7, 55, 127
1, 200847, Note_off_c, 7, 55, 127
1, 200847, Note_off_c, 0, 60, 127
1, 200847, Note_off_c, 10, 69, 127
1, 200849, Note_on_c, 12, 71, 127
1, 200849, Note_on_c, 2, 62, 127
1, 200849, Note_on_c, 4, 52, 127
1, 201007, Note_off_c, 4, 52, 127
1, 201007, Note_off_c, 2, 62, 127
1, 201007, Note_off_c, 12, 71, 127
1, 201009, Note_on_c, 10, 69, 127
1, 201009, Note_on_c, 0, 60, 127
1, 201009, Note_on_c, 0, 48, 127
1, 201167, Note_off_c, 0, 48, 127
1, 201169, Note_on_c, 2, 50, 127
1, 201327, Note_off_c, 2, 50, 127
1, 201327, Note_off_c, 0, 60, 127
1, 201327, Note_off_c, 10, 69, 127
1, 201329, Note_on_c, 7, 67, 127
1, 201329, Note_on_c, 12, 59, 127
1, 201329, Note_on_c, 4, 52, 127
1, 201487, Note_off_c, 4, 52, 127
1, 201489, Note_on_c, 0, 48, 127
1, 201647, Note_off_c, 0, 48, 127
1, 201647, Note_off_c, 12, 59, 127
1, 201647, Note_off_c, 7, 67, 127
1, 201649, Note_on_c, 6, 66, 127
1, 201649, Note_on_c, 2, 50, 127
1, 201727, Note_off_c, 2, 50, 127
1, 201730, Note_on_c, 10, 57, 127
1, 201808, Note_off_c, 10, 57, 127
1, 201811, Note_on_c, 12, 59, 127
1, 201889, Note_off_c, 12, 59, 127
1, 201889, Note_off_c, 6, 66, 127
1, 201892, Note_on_c, 0, 60, 127
1, 201965, Note_off_c, 0, 60, 127
1, 201974, Note_on_c, 2, 62, 127
1, 202129, Note_on_c, 10, 57, 127
1, 202287, Note_off_c, 10, 57, 127
1, 202289, Note_on_c, 6, 54, 127
1, 202441, Note_off_c, 2, 62, 127
1, 202448, Note_off_c, 6, 54, 127
1, 202450, Note_on_c, 10, 57, 127
1, 202608, Note_off_c, 10, 57, 127
1, 202610, Note_on_c, 2, 74, 127
1, 202610, Note_on_c, 0, 48, 127
1, 202768, Note_off_c, 0, 48, 127
1, 202770, Note_on_c, 6, 54, 127
1, 202928, Note_off_c, 6, 54, 127
1, 202928, Note_off_c, 2, 74, 127
1, 202930, Note_on_c, 2, 74, 127
1, 202930, Note_on_c, 7, 55, 127
1, 202930, Note_on_c, 12, 47, 127
1, 203088, Note_off_c, 7, 55, 127
1, 203090, Note_on_c, 10, 57, 127
1, 203247, Note_off_c, 12, 47, 127
1, 203249, Note_off_c, 10, 57, 127
1, 203249, Note_off_c, 2, 74, 127
1, 203251, Note_on_c, 7, 67, 127
1, 203251, Note_on_c, 12, 59, 127
1, 203409, Note_off_c, 12, 59, 127
1, 203411, Note_on_c, 0, 60, 127
1, 203569, Note_off_c, 0, 60, 127
1, 203571, Note_on_c, 2, 62, 127
1, 203718, Note_off_c, 7, 67, 127
1, 203730, Note_off_c, 2, 62, 127
1, 203732, Note_on_c, 12, 59, 127
1, 203890, Note_off_c, 12, 59, 127
1, 203892, Note_on_c, 5, 77, 127
1, 203892, Note_on_c, 7, 55, 127
1, 204050, Note_off_c, 7, 55, 127
1, 204052, Note_on_c, 12, 59, 127
1, 204210, Note_off_c, 12, 59, 127
1, 204210, Note_off_c, 5, 77, 127
1, 204212, Note_on_c, 7, 79, 127
1, 204212, Note_on_c, 0, 48, 127
1, 204279, Note_off_c, 7, 79, 127
1, 204279, Note_on_c, 5, 77, 127
1, 204291, Note_off_c, 0, 48, 127
1, 204293, Note_on_c, 7, 55, 127
1, 204346, Note_off_c, 5, 77, 127
1, 204346, Note_on_c, 7, 79, 127
1, 204371, Note_off_c, 7, 55, 127
1, 204373, Note_on_c, 10, 57, 127
1, 204413, Note_off_c, 7, 79, 127
1, 204413, Note_on_c, 5, 77, 127
1, 204451, Note_off_c, 10, 57, 127
1, 204453, Note_on_c, 12, 59, 127
1, 204531, Note_off_c, 12, 59, 127
1, 204533, Note_on_c, 4, 76, 127
1, 204533, Note_on_c, 0, 60, 127
1, 204536, Note_off_c, 5, 77, 127
1, 204691, Note_off_c, 0, 60, 127
1, 204693, Note_on_c, 7, 55, 127
1, 204851, Note_off_c, 7, 55, 127
1, 204853, Note_on_c, 4, 52, 127
1, 205000, Note_off_c, 4, 76, 127
1, 205012, Note_off_c, 4, 52, 127
1, 205014, Note_on_c, 7, 55, 127
1, 205172, Note_off_c, 7, 55, 127
1, 205174, Note_on_c, 4, 76, 127
1, 205174, Note_on_c, 0, 48, 127
1, 205332, Note_off_c, 0, 48, 127
1, 205334, Note_on_c, 7, 55, 127
1, 205492, Note_off_c, 7, 55, 127
1, 205492, Note_off_c, 4, 76, 127
1, 205494, Note_on_c, 4, 76, 127
1, 205494, Note_on_c, 1, 49, 127
1, 205494, Note_on_c, 10, 57, 127
1, 205652, Note_off_c, 10, 57, 127
1, 205654, Note_on_c, 12, 59, 127
1, 205811, Note_off_c, 1, 49, 127
1, 205813, Note_off_c, 12, 59, 127
1, 205813, Note_off_c, 4, 76, 127
1, 205815, Note_on_c, 10, 69, 127
1, 205815, Note_on_c, 1, 61, 127
1, 205973, Note_off_c, 1, 61, 127
1, 205975, Note_on_c, 2, 62, 127
1, 206133, Note_off_c, 2, 62, 127
1, 206135, Note_on_c, 4, 64, 127
1, 206282, Note_off_c, 10, 69, 127
1, 206294, Note_off_c, 4, 64, 127
1, 206296, Note_on_c, 1, 61, 127
1, 206454, Note_off_c, 1, 61, 127
1, 206456, Note_on_c, 7, 79, 127
1, 206456, Note_on_c, 10, 57, 127
1, 206614, Note_off_c, 10, 57, 127
1, 206616, Note_on_c, 1, 61, 127
1, 206774, Note_off_c, 1, 61, 127
1, 206774, Note_off_c, 7, 79, 127
1, 206776, Note_on_c, 10, 81, 127
1, 206776, Note_on_c, 2, 50, 127
1, 206839, Note_on_c, 7, 79, 127
1, 206842, Note_off_c, 10, 81, 127
1, 206854, Note_off_c, 2, 50, 127
1, 206856, Note_on_c, 10, 57, 127
1, 206903, Note_on_c, 10, 81, 127
1, 206906, Note_off_c, 7, 79, 127
1, 206934, Note_off_c, 10, 57, 127
1, 206936, Note_on_c, 12, 59, 127
1, 206966, Note_on_c, 7, 79, 127
1, 206969, Note_off_c, 10, 81, 127
1, 207014, Note_off_c, 12, 59, 127
1, 207016, Note_on_c, 1, 61, 127
1, 207086, Note_off_c, 7, 79, 127
1, 207094, Note_off_c, 1, 61, 127
1, 207096, Note_on_c, 6, 78, 127
1, 207096, Note_on_c, 2, 62, 127
1, 207254, Note_off_c, 2, 62, 127
1, 207256, Note_on_c, 10, 57, 127
1, 207414, Note_off_c, 10, 57, 127
1, 207416, Note_on_c, 6, 54, 127
1, 207563, Note_off_c, 6, 78, 127
1, 207575, Note_off_c, 6, 54, 127
1, 207577, Note_on_c, 10, 57, 127
1, 207735, Note_off_c, 10, 57, 127
1, 207737, Note_on_c, 2, 74, 127
1, 207737, Note_on_c, 0, 48, 127
1, 207895, Note_off_c, 0, 48, 127
1, 207897, Note_on_c, 6, 54, 127
1, 208050, Note_off_c, 2, 74, 127
1, 208055, Note_off_c, 6, 54, 127
1, 208057, Note_on_c, 2, 74, 127
1, 208057, Note_on_c, 12, 47, 127
1, 208057, Note_on_c, 7, 55, 127
1, 208215, Note_off_c, 7, 55, 127
1, 208217, Note_on_c, 10, 57, 127
1, 208374, Note_off_c, 12, 47, 127
1, 208376, Note_off_c, 10, 57, 127
1, 208378, Note_on_c, 7, 67, 127
1, 208378, Note_on_c, 12, 59, 127
1, 208404, Note_off_c, 2, 74, 127
1, 208536, Note_off_c, 12, 59, 127
1, 208538, Note_on_c, 0, 60, 127
1, 208696, Note_off_c, 0, 60, 127
1, 208698, Note_on_c, 2, 62, 127
1, 208845, Note_off_c, 7, 67, 127
1, 208857, Note_off_c, 2, 62, 127
1, 208859, Note_on_c, 12, 59, 127
1, 209017, Note_off_c, 12, 59, 127
1, 209019, Note_on_c, 5, 65, 127
1, 209019, Note_on_c, 7, 55, 127
1, 209177, Note_off_c, 7, 55, 127
1, 209179, Note_on_c, 12, 59, 127
1, 209337, Note_off_c, 12, 59, 127
1, 209337, Note_off_c, 5, 65, 127
1, 209339, Note_on_c, 7, 67, 127
1, 209339, Note_on_c, 0, 48, 127
1, 209389, Note_off_c, 7, 67, 127
1, 209392, Note_on_c, 5, 65, 127
1, 209417, Note_off_c, 0, 48, 127
1, 209419, Note_on_c, 7, 55, 127
1, 209442, Note_off_c, 5, 65, 127
1, 209445, Note_on_c, 7, 67, 127
1, 209495, Note_off_c, 7, 67, 127
1, 209497, Note_off_c, 7, 55, 127
1, 209499, Note_on_c, 5, 65, 127
1, 209499, Note_on_c, 10, 57, 127
1, 209577, Note_off_c, 10, 57, 127
1, 209579, Note_on_c, 12, 59, 127
1, 209657, Note_off_c, 12, 59, 127
1, 209657, Note_off_c, 5, 65, 127
1, 209659, Note_on_c, 4, 64, 127
1, 209659, Note_on_c, 0, 60, 127
1, 209817, Note_off_c, 0, 60, 127
1, 209819, Note_on_c, 7, 55, 127
1, 209977, Note_off_c, 7, 55, 127
1, 209979, Note_on_c, 4, 52, 127
1, 210126, Note_off_c, 4, 64, 127
1, 210138, Note_off_c, 4, 52, 127
1, 210140, Note_on_c, 7, 55, 127
1, 210298, Note_off_c, 7, 55, 127
1, 210300, Note_on_c, 4, 76, 127
1, 210300, Note_on_c, 0, 48, 127
1, 210458, Note_off_c, 0, 48, 127
1, 210460, Note_on_c, 7, 55, 127
1, 210618, Note_off_c, 7, 55, 127
1, 210618, Note_off_c, 4, 76, 127
1, 210620, Note_on_c, 4, 76, 127
1, 210620, Note_on_c, 1, 49, 127
1, 210620, Note_on_c, 10, 57, 127
1, 210778, Note_off_c, 10, 57, 127
1, 210780, Note_on_c, 12, 59, 127
1, 210937, Note_off_c, 1, 49, 127
1, 210939, Note_off_c, 12, 59, 127
1, 210941, Note_on_c, 10, 69, 127
1, 210941, Note_on_c, 1, 61, 127
1, 211000, Note_off_c, 4, 76, 127
1, 211099, Note_off_c, 1, 61, 127
1, 211101, Note_on_c, 2, 62, 127
1, 211259, Note_off_c, 2, 62, 127
1, 211261, Note_on_c, 4, 64, 127
1, 211408, Note_off_c, 10, 69, 127
1, 211420, Note_off_c, 4, 64, 127
1, 211422, Note_on_c, 1, 61, 127
1, 211580, Note_off_c, 1, 61, 127
1, 211582, Note_on_c, 7, 67, 127
1, 211582, Note_on_c, 10, 57, 127
1, 211740, Note_off_c, 10, 57, 127
1, 211742, Note_on_c, 1, 61, 127
1, 211900, Note_off_c, 1, 61, 127
1, 211900, Note_off_c, 7, 67, 127
1, 211902, Note_on_c, 10, 69, 127
1, 211902, Note_on_c, 2, 50, 127
1, 211980, Note_off_c, 2, 50, 127
1, 211982, Note_on_c, 10, 57, 127
1, 212061, Note_off_c, 10, 57, 127
1, 212063, Note_on_c, 7, 67, 127
1, 212063, Note_on_c, 12, 59, 127
1, 212082, Note_off_c, 10, 69, 127
1, 212141, Note_off_c, 12, 59, 127
1, 212143, Note_on_c, 1, 61, 127
1, 212222, Note_off_c, 1, 61, 127
1, 212224, Note_on_c, 6, 66, 127
1, 212224, Note_on_c, 2, 62, 127
1, 212243, Note_off_c, 7, 67, 127
1, 212382, Note_off_c, 2, 62, 127
1, 212384, Note_on_c, 10, 57, 127
1, 212542, Note_off_c, 10, 57, 127
1, 212544, Note_on_c, 6, 54, 127
1, 212691, Note_off_c, 6, 66, 127
1, 212704, Note_on_c, 10, 57, 127
1, 212784, Note_off_c, 6, 54, 127
1, 212862, Note_off_c, 10, 57, 127
1, 212864, Note_on_c, 2, 74, 127
1, 212864, Note_on_c, 2, 50, 127
1, 213024, Note_on_c, 4, 52, 127
1, 213104, Note_off_c, 2, 50, 127
1, 213182, Note_off_c, 4, 52, 127
1, 213182, Note_off_c, 2, 74, 127
1, 213184, Note_on_c, 10, 69, 127
1, 213184, Note_on_c, 6, 54, 127
1, 213184, Note_on_c, 2, 50, 127
1, 213342, Note_off_c, 10, 69, 127
1, 213344, Note_on_c, 7, 67, 127
1, 213502, Note_off_c, 7, 67, 127
1, 213502, Note_off_c, 2, 50, 127
1, 213504, Note_on_c, 10, 69, 127
1, 213504, Note_on_c, 2, 50, 127
1, 213504, Note_on_c, 2, 62, 127
1, 213551, Note_off_c, 6, 54, 127
1, 213663, Note_off_c, 10, 69, 127
1, 213665, Note_on_c, 6, 66, 127
1, 213823, Note_off_c, 6, 66, 127
1, 213823, Note_off_c, 2, 62, 127
1, 213823, Note_off_c, 2, 50, 127
1, 213825, Note_on_c, 12, 71, 127
1, 213825, Note_on_c, 2, 50, 127
1, 213825, Note_on_c, 7, 55, 127
1, 213983, Note_off_c, 12, 71, 127
1, 213985, Note_on_c, 10, 69, 127
1, 214143, Note_off_c, 10, 69, 127
1, 214143, Note_off_c, 2, 50, 127
1, 214145, Note_on_c, 12, 71, 127
1, 214145, Note_on_c, 2, 50, 127
1, 214145, Note_on_c, 2, 62, 127
1, 214225, Note_off_c, 7, 55, 127
1, 214303, Note_off_c, 12, 71, 127
1, 214305, Note_on_c, 7, 67, 127
1, 214463, Note_off_c, 7, 67, 127
1, 214463, Note_off_c, 2, 62, 127
1, 214463, Note_off_c, 2, 50, 127
1, 214465, Note_on_c, 0, 72, 127
1, 214465, Note_on_c, 10, 57, 127
1, 214465, Note_on_c, 2, 50, 127
1, 214623, Note_off_c, 0, 72, 127
1, 214625, Note_on_c, 12, 71, 127
1, 214783, Note_off_c, 12, 71, 127
1, 214783, Note_off_c, 2, 50, 127
1, 214785, Note_on_c, 0, 72, 127
1, 214785, Note_on_c, 2, 50, 127
1, 214785, Note_on_c, 2, 62, 127
1, 214898, Note_off_c, 10, 57, 127
1, 214943, Note_off_c, 0, 72, 127
1, 214945, Note_on_c, 10, 69, 127
1, 215103, Note_off_c, 10, 69, 127
1, 215103, Note_off_c, 2, 62, 127
1, 215103, Note_off_c, 2, 50, 127
1, 215105, Note_on_c, 12, 71, 127
1, 215105, Note_on_c, 7, 55, 127
1, 215105, Note_on_c, 2, 50, 127
1, 215263, Note_off_c, 12, 71, 127
1, 215265, Note_on_c, 10, 69, 127
1, 215423, Note_off_c, 10, 69, 127
1, 215423, Note_off_c, 2, 50, 127
1, 215425, Note_on_c, 12, 71, 127
1, 215425, Note_on_c, 2, 50, 127
1, 215425, Note_on_c, 2, 62, 127
1, 215572, Note_off_c, 7, 55, 127
1, 215584, Note_off_c, 12, 71, 127
1, 215586, Note_on_c, 7, 67, 127
1, 215744, Note_off_c, 7, 67, 127
1, 215744, Note_off_c, 2, 62, 127
1, 215744, Note_off_c, 2, 50, 127
1, 215746, Note_on_c, 10, 69, 127
1, 215746, Note_on_c, 6, 54, 127
1, 215746, Note_on_c, 2, 50, 127
1, 215904, Note_off_c, 10, 69, 127
1, 215906, Note_on_c, 7, 67, 127
1, 216064, Note_off_c, 7, 67, 127
1, 216064, Note_off_c, 2, 50, 127
1, 216066, Note_on_c, 10, 69, 127
1, 216066, Note_on_c, 2, 50, 127
1, 216066, Note_on_c, 2, 62, 127
1, 216224, Note_off_c, 10, 69, 127
1, 216226, Note_on_c, 6, 66, 127
1, 216246, Note_off_c, 6, 54, 127
1, 216384, Note_off_c, 6, 66, 127
1, 216384, Note_off_c, 2, 62, 127
1, 216384, Note_off_c, 2, 50, 127
1, 216386, Note_on_c, 12, 71, 127
1, 216386, Note_on_c, 7, 55, 127
1, 216386, Note_on_c, 2, 50, 127
1, 216544, Note_off_c, 12, 71, 127
1, 216546, Note_on_c, 10, 69, 127
1, 216704, Note_off_c, 10, 69, 127
1, 216704, Note_off_c, 2, 50, 127
1, 216706, Note_on_c, 12, 71, 127
1, 216706, Note_on_c, 2, 50, 127
1, 216706, Note_on_c, 2, 62, 127
1, 216864, Note_off_c, 12, 71, 127
1, 216866, Note_on_c, 7, 67, 127
1, 216919, Note_off_c, 7, 55, 127
1, 217024, Note_off_c, 7, 67, 127
1, 217024, Note_off_c, 2, 62, 127
1, 217024, Note_off_c, 2, 50, 127
1, 217026, Note_on_c, 0, 72, 127
1, 217026, Note_on_c, 10, 57, 127
1, 217026, Note_on_c, 2, 50, 127
1, 217184, Note_off_c, 0, 72, 127
1, 217186, Note_on_c, 12, 71, 127
1, 217344, Note_off_c, 12, 71, 127
1, 217344, Note_off_c, 2, 50, 127
1, 217346, Note_on_c, 0, 72, 127
1, 217346, Note_on_c, 2, 50, 127
1, 217346, Note_on_c, 2, 62, 127
1, 217504, Note_off_c, 0, 72, 127
1, 217506, Note_on_c, 10, 69, 127
1, 217626, Note_off_c, 10, 57, 127
1, 217664, Note_off_c, 10, 69, 127
1, 217664, Note_off_c, 2, 62, 127
1, 217664, Note_off_c, 2, 50, 127
1, 217666, Note_on_c, 12, 71, 127
1, 217666, Note_on_c, 2, 50, 127
1, 217666, Note_on_c, 7, 55, 127
1, 217824, Note_off_c, 12, 71, 127
1, 217826, Note_on_c, 10, 69, 127
1, 217984, Note_off_c, 10, 69, 127
1, 217984, Note_off_c, 2, 50, 127
1, 217986, Note_on_c, 12, 71, 127
1, 217986, Note_on_c, 2, 62, 127
1, 217986, Note_on_c, 2, 50, 127
1, 218133, Note_off_c, 7, 55, 127
1, 218145, Note_off_c, 12, 71, 127
1, 218147, Note_on_c, 7, 67, 127
1, 218305, Note_off_c, 7, 67, 127
1, 218305, Note_off_c, 2, 50, 127
1, 218305, Note_off_c, 2, 62, 127
1, 218307, Note_on_c, 10, 69, 127
1, 218307, Note_on_c, 2, 50, 127
1, 218388, Note_off_c, 2, 50, 127
1, 218390, Note_on_c, 4, 52, 127
1, 218471, Note_off_c, 4, 52, 127
1, 218473, Note_on_c, 6, 54, 127
1, 218554, Note_off_c, 6, 54, 127
1, 218556, Note_on_c, 7, 55, 127
1, 218637, Note_off_c, 7, 55, 127
1, 218639, Note_on_c, 6, 66, 127
1, 218639, Note_on_c, 10, 57, 127
1, 218802, Note_off_c, 10, 57, 127
1, 218804, Note_on_c, 0, 48, 127
1, 218962, Note_off_c, 10, 69, 127
1, 218967, Note_off_c, 0, 48, 127
1, 218967, Note_off_c, 6, 66, 127
1, 218969, Note_on_c, 7, 67, 127
1, 218969, Note_on_c, 12, 47, 127
1, 219132, Note_off_c, 12, 47, 127
1, 219134, Note_on_c, 2, 50, 127
1, 219297, Note_off_c, 2, 50, 127
1, 219299, Note_on_c, 12, 59, 127
1, 219299, Note_on_c, 7, 43, 127
1, 219462, Note_off_c, 7, 43, 127
1, 219464, Note_on_c, 12, 47, 127
1, 219627, Note_off_c, 12, 47, 127
1, 219627, Note_off_c, 12, 59, 127
1, 219629, Note_on_c, 0, 60, 127
1, 219629, Note_on_c, 10, 45, 127
1, 219802, Note_off_c, 10, 45, 127
1, 219804, Note_on_c, 4, 52, 127
1, 219977, Note_off_c, 4, 52, 127
1, 219977, Note_off_c, 0, 60, 127
1, 219977, Note_off_c, 7, 67, 127
1, 219979, Note_on_c, 7, 67, 127
1, 219979, Note_on_c, 0, 48, 127
1, 220152, Note_off_c, 0, 48, 127
1, 220154, Note_on_c, 10, 45, 127
1, 220327, Note_off_c, 10, 45, 127
1, 220329, Note_on_c, 2, 62, 127
1, 220329, Note_on_c, 2, 50, 127
1, 220519, Note_off_c, 2, 50, 127
1, 220521, Note_on_c, 10, 45, 127
1, 220705, Note_off_c, 7, 67, 127
1, 220711, Note_off_c, 10, 45, 127
1, 220713, Note_on_c, 6, 66, 127
1, 220713, Note_on_c, 10, 57, 127
1, 220713, Note_on_c, 0, 60, 127
1, 220713, Note_on_c, 2, 38, 127
1, 220905, Note_on_c, 2, 50, 127
1, 221093, Note_off_c, 2, 38, 127
1, 221095, Note_off_c, 6, 66, 127
1, 221123, Note_off_c, 10, 57, 127
1, 221123, Note_off_c, 2, 62, 127
1, 221133, Note_off_c, 0, 60, 127
1, 221169, Note_on_c, 12, 59, 127
1, 221169, Note_on_c, 7, 55, 127
1, 221169, Note_on_c, 7, 67, 127
1, 221169, Note_on_c, 2, 62, 127
1, 221169, Note_on_c, 7, 43, 127
1, 221185, Note_off_c, 2, 50, 127
1, 223569, Note_off_c, 7, 43, 127
1, 223569, Note_off_c, 2, 62, 127
1, 223569, Note_off_c, 7, 67, 127
1, 223569, Note_off_c, 7, 55, 127
1, 223569, Note_off_c, 12, 59, 127
1, 225393, Note_on_c, 12, 47, 127
1, 225393, Note_on_c, 2, 50, 127
1, 225393, Note_on_c, 12, 59, 127
1, 225393, Note_on_c, 6, 54, 127
1, 225393, Note_on_c, 2, 74, 127
1, 225393, Note_on_c, 12, 71, 127
1, 225393, Note_on_c, 6, 66, 127
1, 225393, Note_on_c, 6, 78, 127
1, 226244, Note_off_c, 6, 78, 127
1, 226244, Note_off_c, 6, 66, 127
1, 226244, Note_off_c, 12, 71, 127
1, 226244, Note_off_c, 2, 74, 127
1, 226244, Note_off_c, 6, 54, 127
1, 226244, Note_off_c, 12, 59, 127
1, 226244, Note_off_c, 2, 50, 127
1, 226244, Note_off_c, 12, 47, 127
1, 226246, Note_on_c, 6, 54, 127
1, 226246, Note_on_c, 12, 47, 127
1, 226246, Note_on_c, 12, 59, 127
1, 226246, Note_on_c, 2, 50, 127
1, 226246, Note_on_c, 6, 66, 127
1, 226246, Note_on_c, 6, 78, 127
1, 226246, Note_on_c, 2, 74, 127
1, 226246, Note_on_c, 12, 71, 127
1, 227668, Note_off_c, 12, 71, 127
1, 227668, Note_off_c, 2, 74, 127
1, 227668, Note_off_c, 6, 78, 127
1, 227668, Note_off_c, 6, 66, 127
1, 227668, Note_off_c, 2, 50, 127
1, 227668, Note_off_c, 12, 59, 127
1, 227668, Note_off_c, 12, 47, 127
1, 227668, Note_off_c, 6, 54, 127
1, 227739, Note_on_c, 6, 54, 127
1, 227739, Note_on_c, 12, 47, 127
1, 227739, Note_on_c, 2, 50, 127
1, 227739, Note_on_c, 12, 59, 127
1, 227739, Note_on_c, 2, 74, 127
1, 227739, Note_on_c, 6, 66, 127
1, 227739, Note_on_c, 6, 78, 127
1, 227739, Note_on_c, 12, 71, 127
1, 227950, Note_off_c, 12, 71, 127
1, 227950, Note_off_c, 6, 78, 127
1, 227950, Note_off_c, 6, 66, 127
1, 227950, Note_off_c, 2, 74, 127
1, 227950, Note_off_c, 12, 59, 127
1, 227950, Note_off_c, 2, 50, 127
1, 227950, Note_off_c, 12, 47, 127
1, 227950, Note_off_c, 6, 54, 127
1, 227952, Note_on_c, 1, 49, 127
1, 227952, Note_on_c, 11, 46, 127
1, 227952, Note_on_c, 4, 52, 127
1, 227952, Note_on_c, 4, 76, 127
1, 227952, Note_on_c, 7, 79, 127
1, 227952, Note_on_c, 1, 73, 127
1, 228803, Note_off_c, 1, 73, 127
1, 228803, Note_off_c, 7, 79, 127
1, 228803, Note_off_c, 4, 76, 127
1, 228803, Note_off_c, 4, 52, 127
1, 228803, Note_off_c, 11, 46, 127
1, 228803, Note_off_c, 1, 49, 127
1, 228805, Note_on_c, 1, 49, 127
1, 228805, Note_on_c, 11, 46, 127
1, 228805, Note_on_c, 4, 52, 127
1, 228805, Note_on_c, 4, 76, 127
1, 228805, Note_on_c, 1, 73, 127
1, 228805, Note_on_c, 7, 79, 127
1, 230227, Note_off_c, 7, 79, 127
1, 230227, Note_off_c, 1, 73, 127
1, 230227, Note_off_c, 4, 76, 127
1, 230227, Note_off_c, 4, 52, 127
1, 230227, Note_off_c, 11, 46, 127
1, 230227, Note_off_c, 1, 49, 127
1, 230298, Note_on_c, 1, 49, 127
1, 230298, Note_on_c, 11, 46, 127
1, 230298, Note_on_c, 4, 52, 127
1, 230298, Note_on_c, 4, 76, 127
1, 230298, Note_on_c, 1, 73, 127
1, 230298, Note_on_c, 11, 70, 127
1, 230298, Note_on_c, 7, 79, 127
1, 230509, Note_off_c, 7, 79, 127
1, 230509, Note_off_c, 11, 70, 127
1, 230509, Note_off_c, 1, 73, 127
1, 230509, Note_off_c, 4, 76, 127
1, 230509, Note_off_c, 4, 52, 127
1, 230509, Note_off_c, 11, 46, 127
1, 230509, Note_off_c, 1, 49, 127
1, 230511, Note_on_c, 12, 47, 127
1, 230511, Note_on_c, 2, 50, 127
1, 230511, Note_on_c, 6, 54, 127
1, 230511, Note_on_c, 1, 73, 127
1, 230511, Note_on_c, 11, 70, 127
1, 230511, Note_on_c, 7, 79, 127
1, 230511, Note_on_c, 4, 76, 127
1, 231362, Note_off_c, 4, 76, 127
1, 231362, Note_off_c, 7, 79, 127
1, 231362, Note_off_c, 11, 70, 127
1, 231362, Note_off_c, 1, 73, 127
1, 231362, Note_off_c, 6, 54, 127
1, 231362, Note_off_c, 2, 50, 127
1, 231362, Note_off_c, 12, 47, 127
1, 231364, Note_on_c, 2, 50, 127
1, 231364, Note_on_c, 12, 47, 127
1, 231364, Note_on_c, 12, 59, 127
1, 231364, Note_on_c, 6, 54, 127
1, 231364, Note_on_c, 12, 71, 127
1, 231364, Note_on_c, 2, 74, 127
1, 231364, Note_on_c, 6, 78, 127
1, 233068, Note_off_c, 6, 78, 127
1, 233068, Note_off_c, 2, 74, 127
1, 233068, Note_off_c, 12, 71, 127
1, 233068, Note_off_c, 6, 54, 127
1, 233068, Note_off_c, 12, 59, 127
1, 233068, Note_off_c, 12, 47, 127
1, 233068, Note_off_c, 2, 50, 127
1, 233358, Note_on_c, 12, 47, 127
1, 233358, Note_on_c, 12, 59, 127
1, 233358, Note_on_c, 6, 54, 127
1, 233358, Note_on_c, 2, 50, 127
1, 233358, Note_on_c, 6, 66, 127
1, 233358, Note_on_c, 2, 74, 127
1, 233358, Note_on_c, 12, 71, 127
1, 234209, Note_off_c, 12, 71, 127
1, 234209, Note_off_c, 2, 74, 127
1, 234209, Note_off_c, 6, 66, 127
1, 234209, Note_off_c, 2, 50, 127
1, 234209, Note_off_c, 6, 54, 127
1, 234209, Note_off_c, 12, 59, 127
1, 234209, Note_off_c, 12, 47, 127
1, 234211, Note_on_c, 6, 54, 127
1, 234211, Note_on_c, 12, 47, 127
1, 234211, Note_on_c, 12, 59, 127
1, 234211, Note_on_c, 2, 50, 127
1, 234211, Note_on_c, 2, 74, 127
1, 234211, Note_on_c, 6, 66, 127
1, 234211, Note_on_c, 12, 71, 127
1, 235633, Note_off_c, 12, 71, 127
1, 235633, Note_off_c, 6, 66, 127
1, 235633, Note_off_c, 2, 74, 127
1, 235633, Note_off_c, 2, 50, 127
1, 235633, Note_off_c, 12, 59, 127
1, 235633, Note_off_c, 12, 47, 127
1, 235633, Note_off_c, 6, 54, 127
1, 235704, Note_on_c, 2, 50, 127
1, 235704, Note_on_c, 12, 47, 127
1, 235704, Note_on_c, 12, 59, 127
1, 235704, Note_on_c, 6, 54, 127
1, 235704, Note_on_c, 2, 74, 127
1, 235704, Note_on_c, 6, 66, 127
1, 235704, Note_on_c, 12, 71, 127
1, 235915, Note_off_c, 12, 71, 127
1, 235915, Note_off_c, 6, 66, 127
1, 235915, Note_off_c, 2, 74, 127
1, 235915, Note_off_c, 6, 54, 127
1, 235915, Note_off_c, 12, 59, 127
1, 235915, Note_off_c, 12, 47, 127
1, 235915, Note_off_c, 2, 50, 127
1, 235917, Note_on_c, 12, 59, 127
1, 235917, Note_on_c, 6, 54, 127
1, 235917, Note_on_c, 6, 66, 127
1, 235917, Note_on_c, 12, 71, 127
1, 235917, Note_on_c, 2, 74, 127
1, 236768, Note_off_c, 2, 74, 127
1, 236768, Note_off_c, 12, 71, 127
1, 236768, Note_off_c, 6, 66, 127
1, 236768, Note_off_c, 6, 54, 127
1, 236768, Note_off_c, 12, 59, 127
1, 236770, Note_on_c, 1, 61, 127
1, 236770, Note_on_c, 6, 54, 127
1, 236770, Note_on_c, 1, 73, 127
1, 236770, Note_on_c, 6, 66, 127
1, 236770, Note_on_c, 12, 71, 127
1, 238192, Note_off_c, 12, 71, 127
1, 238192, Note_off_c, 6, 66, 127
1, 238192, Note_off_c, 1, 73, 127
1, 238192, Note_off_c, 6, 54, 127
1, 238192, Note_off_c, 1, 61, 127
1, 238263, Note_on_c, 6, 54, 127
1, 238263, Note_on_c, 2, 62, 127
1, 238263, Note_on_c, 6, 66, 127
1, 238263, Note_on_c, 12, 71, 127
1, 238263, Note_on_c, 1, 73, 127
1, 238474, Note_off_c, 1, 73, 127
1, 238474, Note_off_c, 12, 71, 127
1, 238474, Note_off_c, 6, 66, 127
1, 238474, Note_off_c, 2, 62, 127
1, 238474, Note_off_c, 6, 54, 127
1, 238476, Note_on_c, 6, 42, 127
1, 238476, Note_on_c, 6, 54, 127
1, 238476, Note_on_c, 11, 46, 127
1, 238476, Note_on_c, 1, 49, 127
1, 238476, Note_on_c, 6, 66, 127
1, 238476, Note_on_c, 4, 64, 127
1, 238476, Note_on_c, 1, 73, 127
1, 238476, Note_on_c, 8, 68, 127
1, 239327, Note_off_c, 8, 68, 127
1, 239327, Note_off_c, 1, 73, 127
1, 239327, Note_off_c, 4, 64, 127
1, 239327, Note_off_c, 6, 66, 127
1, 239327, Note_off_c, 1, 49, 127
1, 239327, Note_off_c, 11, 46, 127
1, 239327, Note_off_c, 6, 54, 127
1, 239327, Note_off_c, 6, 42, 127
1, 239329, Note_on_c, 6, 42, 127
1, 239329, Note_on_c, 11, 46, 127
1, 239329, Note_on_c, 6, 54, 127
1, 239329, Note_on_c, 1, 49, 127
1, 239329, Note_on_c, 11, 70, 127
1, 239329, Note_on_c, 1, 73, 127
1, 239329, Note_on_c, 4, 64, 127
1, 239329, Note_on_c, 6, 66, 127
1, 240751, Note_off_c, 6, 66, 127
1, 240751, Note_off_c, 4, 64, 127
1, 240751, Note_off_c, 1, 73, 127
1, 240751, Note_off_c, 11, 70, 127
1, 240751, Note_off_c, 1, 49, 127
1, 240751, Note_off_c, 6, 54, 127
1, 240751, Note_off_c, 11, 46, 127
1, 240751, Note_off_c, 6, 42, 127
1, 240870, Note_on_c, 4, 64, 127
1, 240870, Note_on_c, 6, 66, 127
1, 240870, Note_on_c, 1, 73, 127
1, 240870, Note_on_c, 6, 54, 127
1, 240870, Note_on_c, 1, 49, 127
1, 240870, Note_on_c, 11, 46, 127
1, 241081, Note_off_c, 11, 46, 127
1, 241081, Note_off_c, 1, 49, 127
1, 241081, Note_off_c, 6, 54, 127
1, 241081, Note_off_c, 1, 73, 127
1, 241081, Note_off_c, 6, 66, 127
1, 241081, Note_off_c, 4, 64, 127
1, 241099, Note_on_c, 12, 47, 127
1, 241099, Note_on_c, 6, 54, 127
1, 241099, Note_on_c, 2, 50, 127
1, 241099, Note_on_c, 6, 66, 127
1, 241099, Note_on_c, 12, 71, 127
1, 241099, Note_on_c, 2, 62, 127
1, 243319, Note_off_c, 2, 62, 127
1, 243319, Note_off_c, 6, 66, 127
1, 243657, Note_off_c, 2, 50, 127
1, 243657, Note_off_c, 6, 54, 127
1, 243657, Note_off_c, 12, 47, 127
1, 243707, Note_on_c, 12, 59, 127
1, 244041, Note_off_c, 12, 71, 127
1, 244091, Note_on_c, 12, 71, 127
1, 244473, Note_off_c, 12, 71, 127
1, 244473, Note_off_c, 12, 59, 127
1, 244475, Note_on_c, 2, 74, 127
1, 244475, Note_on_c, 12, 59, 127
1, 244857, Note_off_c, 2, 74, 127
1, 244859, Note_on_c, 6, 78, 127
1, 245241, Note_off_c, 6, 78, 127
1, 245243, Note_on_c, 12, 71, 127
1, 245369, Note_off_c, 12, 71, 127
1, 245371, Note_on_c, 1, 73, 127
1, 245497, Note_off_c, 1, 73, 127
1, 245499, Note_on_c, 2, 74, 127
1, 245625, Note_off_c, 2, 74, 127
1, 245625, Note_off_c, 12, 59, 127
1, 245627, Note_on_c, 4, 76, 127
1, 245627, Note_on_c, 12, 59, 127
1, 245817, Note_off_c, 4, 76, 127
1, 245819, Note_on_c, 6, 78, 127
1, 246009, Note_off_c, 6, 78, 127
1, 246009, Note_off_c, 12, 59, 127
1, 246011, Note_on_c, 7, 79, 127
1, 246011, Note_on_c, 11, 58, 127
1, 246393, Note_off_c, 7, 79, 127
1, 246395, Note_on_c, 6, 78, 127
1, 246585, Note_off_c, 6, 78, 127
1, 246587, Note_on_c, 4, 76, 127
1, 246777, Note_off_c, 4, 76, 127
1, 246777, Note_off_c, 11, 58, 127
1, 246779, Note_on_c, 2, 74, 127
1, 246779, Note_on_c, 11, 58, 127
1, 246969, Note_off_c, 2, 74, 127
1, 246971, Note_on_c, 1, 73, 127
1, 247161, Note_off_c, 1, 73, 127
1, 247163, Note_on_c, 12, 71, 127
1, 247353, Note_off_c, 12, 71, 127
1, 247355, Note_on_c, 11, 70, 127
1, 247545, Note_off_c, 11, 70, 127
1, 247547, Note_on_c, 8, 68, 127
1, 247737, Note_off_c, 8, 68, 127
1, 247739, Note_on_c, 6, 66, 127
1, 248027, Note_off_c, 11, 58, 127
1, 248097, Note_on_c, 4, 76, 127
1, 248097, Note_on_c, 11, 58, 127
1, 248121, Note_off_c, 6, 66, 127
1, 248305, Note_off_c, 11, 58, 127
1, 248307, Note_off_c, 4, 76, 127
1, 248315, Note_on_c, 2, 74, 127
1, 248315, Note_on_c, 12, 59, 127
1, 248695, Note_off_c, 12, 59, 127
1, 248697, Note_off_c, 2, 74, 127
1, 248699, Note_on_c, 12, 59, 127
1, 248891, Note_on_c, 2, 62, 127
1, 249079, Note_off_c, 12, 59, 127
1, 249081, Note_off_c, 2, 62, 127
1, 249083, Note_on_c, 6, 66, 127
1, 249083, Note_on_c, 12, 59, 127
1, 249275, Note_on_c, 1, 61, 127
1, 249463, Note_off_c, 6, 66, 127
1, 249465, Note_off_c, 1, 61, 127
1, 249467, Note_on_c, 2, 62, 127
1, 249657, Note_off_c, 2, 62, 127
1, 249659, Note_on_c, 6, 66, 127
1, 249849, Note_off_c, 6, 66, 127
1, 249851, Note_on_c, 12, 71, 127
1, 250043, Note_on_c, 2, 74, 127
1, 250231, Note_off_c, 12, 71, 127
1, 250233, Note_off_c, 2, 74, 127
1, 250235, Note_on_c, 1, 73, 127
1, 250331, Note_off_c, 12, 59, 127
1, 250425, Note_off_c, 1, 73, 127
1, 250427, Note_on_c, 2, 74, 127
1, 250429, Note_on_c, 12, 59, 127
1, 250617, Note_off_c, 2, 74, 127
1, 250619, Note_off_c, 12, 59, 127
1, 250619, Note_on_c, 7, 67, 127
1, 250619, Note_on_c, 4, 52, 127
1, 250811, Note_on_c, 3, 63, 127
1, 250999, Note_off_c, 7, 67, 127
1, 251001, Note_off_c, 3, 63, 127
1, 251003, Note_on_c, 4, 64, 127
1, 251193, Note_off_c, 4, 64, 127
1, 251195, Note_on_c, 7, 67, 127
1, 251385, Note_off_c, 7, 67, 127
1, 251385, Note_off_c, 4, 52, 127
1, 251387, Note_on_c, 0, 72, 127
1, 251387, Note_on_c, 4, 52, 127
1, 251579, Note_on_c, 6, 66, 127
1, 251767, Note_off_c, 0, 72, 127
1, 251769, Note_off_c, 6, 66, 127
1, 251771, Note_on_c, 7, 67, 127
1, 251961, Note_off_c, 7, 67, 127
1, 251963, Note_on_c, 0, 72, 127
1, 252153, Note_off_c, 0, 72, 127
1, 252155, Note_on_c, 4, 76, 127
1, 252347, Note_on_c, 0, 72, 127
1, 252443, Note_off_c, 4, 76, 127
1, 252537, Note_off_c, 0, 72, 127
1, 252539, Note_on_c, 7, 79, 127
1, 252635, Note_off_c, 4, 52, 127
1, 252729, Note_off_c, 7, 79, 127
1, 252731, Note_on_c, 12, 71, 127
1, 252733, Note_on_c, 4, 52, 127
1, 252921, Note_off_c, 12, 71, 127
1, 252923, Note_off_c, 4, 52, 127
1, 252923, Note_on_c, 11, 70, 127
1, 252923, Note_on_c, 6, 54, 127
1, 253115, Note_on_c, 6, 66, 127
1, 253305, Note_off_c, 6, 66, 127
1, 253307, Note_on_c, 4, 64, 127
1, 253483, Note_off_c, 11, 70, 127
1, 253497, Note_off_c, 4, 64, 127
1, 253499, Note_on_c, 6, 66, 127
1, 253689, Note_off_c, 6, 66, 127
1, 253689, Note_off_c, 6, 54, 127
1, 253691, Note_on_c, 12, 71, 127
1, 253691, Note_on_c, 6, 54, 127
1, 253883, Note_on_c, 2, 62, 127
1, 254073, Note_off_c, 2, 62, 127
1, 254075, Note_on_c, 11, 58, 127
1, 254251, Note_off_c, 12, 71, 127
1, 254265, Note_off_c, 11, 58, 127
1, 254267, Note_on_c, 12, 59, 127
1, 254451, Note_off_c, 6, 54, 127
1, 254457, Note_off_c, 12, 59, 127
1, 254459, Note_on_c, 6, 54, 127
1, 254651, Note_on_c, 1, 61, 127
1, 254841, Note_off_c, 1, 61, 127
1, 254843, Note_on_c, 12, 71, 127
1, 255019, Note_off_c, 6, 54, 127
1, 255033, Note_off_c, 12, 71, 127
1, 255035, Note_on_c, 11, 70, 127
1, 255037, Note_on_c, 6, 54, 127
1, 255225, Note_off_c, 11, 70, 127
1, 255227, Note_off_c, 6, 54, 127
1, 255243, Note_on_c, 12, 59, 127
1, 255243, Note_on_c, 6, 66, 127
1, 255339, Note_on_c, 12, 71, 127
1, 255435, Note_on_c, 2, 74, 127
1, 255499, Note_off_c, 12, 71, 127
1, 255531, Note_on_c, 12, 71, 127
1, 255619, Note_off_c, 6, 66, 127
1, 255627, Note_on_c, 6, 66, 127
1, 255691, Note_off_c, 12, 71, 127
1, 255723, Note_on_c, 12, 71, 127
1, 255787, Note_off_c, 6, 66, 127
1, 255819, Note_on_c, 6, 66, 127
1, 255883, Note_off_c, 12, 71, 127
1, 255915, Note_on_c, 12, 71, 127
1, 255979, Note_off_c, 6, 66, 127
1, 256009, Note_off_c, 12, 59, 127
1, 256011, Note_on_c, 12, 59, 127
1, 256011, Note_on_c, 6, 66, 127
1, 256075, Note_off_c, 12, 71, 127
1, 256107, Note_on_c, 12, 71, 127
1, 256175, Note_off_c, 2, 74, 127
1, 256203, Note_on_c, 2, 74, 127
1, 256267, Note_off_c, 12, 71, 127
1, 256299, Note_on_c, 12, 71, 127
1, 256387, Note_off_c, 6, 66, 127
1, 256395, Note_on_c, 6, 66, 127
1, 256459, Note_off_c, 12, 71, 127
1, 256491, Note_on_c, 12, 71, 127
1, 256555, Note_off_c, 6, 66, 127
1, 256587, Note_on_c, 6, 66, 127
1, 256651, Note_off_c, 12, 71, 127
1, 256683, Note_on_c, 12, 71, 127
1, 256747, Note_off_c, 6, 66, 127
1, 256779, Note_on_c, 6, 66, 127
1, 256843, Note_off_c, 12, 71, 127
1, 256875, Note_on_c, 12, 71, 127
1, 256943, Note_off_c, 2, 74, 127
1, 256971, Note_on_c, 2, 74, 127
1, 257035, Note_off_c, 12, 71, 127
1, 257067, Note_on_c, 12, 71, 127
1, 257155, Note_off_c, 6, 66, 127
1, 257163, Note_on_c, 6, 66, 127
1, 257227, Note_off_c, 12, 71, 127
1, 257259, Note_off_c, 12, 59, 127
1, 257259, Note_on_c, 12, 71, 127
1, 257323, Note_off_c, 6, 66, 127
1, 257351, Note_on_c, 12, 59, 127
1, 257355, Note_on_c, 6, 66, 127
1, 257419, Note_off_c, 12, 71, 127
1, 257451, Note_on_c, 12, 71, 127
1, 257515, Note_off_c, 6, 66, 127
1, 257543, Note_off_c, 2, 74, 127
1, 257545, Note_off_c, 12, 71, 127
1, 257547, Note_on_c, 6, 54, 127
1, 257547, Note_on_c, 6, 66, 127
1, 257559, Note_off_c, 12, 59, 127
1, 257643, Note_on_c, 11, 70, 127
1, 257739, Note_on_c, 1, 73, 127
1, 257803, Note_off_c, 11, 70, 127
1, 257835, Note_on_c, 11, 70, 127
1, 257923, Note_off_c, 6, 66, 127
1, 257931, Note_on_c, 6, 66, 127
1, 257995, Note_off_c, 11, 70, 127
1, 258027, Note_on_c, 11, 70, 127
1, 258091, Note_off_c, 6, 66, 127
1, 258123, Note_on_c, 6, 66, 127
1, 258187, Note_off_c, 11, 70, 127
1, 258219, Note_on_c, 11, 70, 127
1, 258283, Note_off_c, 6, 66, 127
1, 258313, Note_off_c, 6, 54, 127
1, 258315, Note_on_c, 6, 54, 127
1, 258315, Note_on_c, 6, 66, 127
1, 258379, Note_off_c, 11, 70, 127
1, 258411, Note_on_c, 11, 70, 127
1, 258479, Note_off_c, 1, 73, 127
1, 258507, Note_on_c, 1, 73, 127
1, 258571, Note_off_c, 11, 70, 127
1, 258603, Note_on_c, 11, 70, 127
1, 258691, Note_off_c, 6, 66, 127
1, 258699, Note_on_c, 6, 66, 127
1, 258763, Note_off_c, 11, 70, 127
1, 258795, Note_on_c, 11, 70, 127
1, 258859, Note_off_c, 6, 66, 127
1, 258891, Note_on_c, 6, 66, 127
1, 258955, Note_off_c, 11, 70, 127
1, 258987, Note_on_c, 11, 70, 127
1, 259051, Note_off_c, 6, 66, 127
1, 259083, Note_on_c, 6, 66, 127
1, 259147, Note_off_c, 11, 70, 127
1, 259179, Note_on_c, 11, 70, 127
1, 259247, Note_off_c, 1, 73, 127
1, 259275, Note_on_c, 1, 73, 127
1, 259339, Note_off_c, 11, 70, 127
1, 259371, Note_on_c, 11, 70, 127
1, 259459, Note_off_c, 6, 66, 127
1, 259467, Note_on_c, 6, 66, 127
1, 259531, Note_off_c, 11, 70, 127
1, 259563, Note_off_c, 6, 54, 127
1, 259563, Note_on_c, 11, 70, 127
1, 259627, Note_off_c, 6, 66, 127
1, 259655, Note_on_c, 6, 54, 127
1, 259659, Note_on_c, 6, 66, 127
1, 259723, Note_off_c, 11, 70, 127
1, 259755, Note_on_c, 11, 70, 127
1, 259819, Note_off_c, 6, 66, 127
1, 259849, Note_off_c, 11, 70, 127
1, 259851, Note_off_c, 1, 73, 127
1, 259851, Note_on_c, 12, 59, 127
1, 259851, Note_on_c, 6, 66, 127
1, 259863, Note_off_c, 6, 54, 127
1, 259947, Note_on_c, 12, 71, 127
1, 260043, Note_on_c, 2, 74, 127
1, 260107, Note_off_c, 12, 71, 127
1, 260139, Note_on_c, 12, 71, 127
1, 260227, Note_off_c, 6, 66, 127
1, 260235, Note_on_c, 6, 66, 127
1, 260299, Note_off_c, 12, 71, 127
1, 260331, Note_on_c, 12, 71, 127
1, 260395, Note_off_c, 6, 66, 127
1, 260427, Note_on_c, 6, 66, 127
1, 260491, Note_off_c, 12, 71, 127
1, 260523, Note_on_c, 12, 71, 127
1, 260587, Note_off_c, 6, 66, 127
1, 260617, Note_off_c, 12, 59, 127
1, 260619, Note_on_c, 12, 59, 127
1, 260619, Note_on_c, 6, 66, 127
1, 260683, Note_off_c, 12, 71, 127
1, 260715, Note_on_c, 12, 71, 127
1, 260783, Note_off_c, 2, 74, 127
1, 260811, Note_on_c, 2, 74, 127
1, 260875, Note_off_c, 12, 71, 127
1, 260907, Note_on_c, 12, 71, 127
1, 260995, Note_off_c, 6, 66, 127
1, 261003, Note_on_c, 6, 66, 127
1, 261067, Note_off_c, 12, 71, 127
1, 261099, Note_on_c, 12, 71, 127
1, 261163, Note_off_c, 6, 66, 127
1, 261195, Note_on_c, 6, 66, 127
1, 261259, Note_off_c, 12, 71, 127
1, 261291, Note_on_c, 12, 71, 127
1, 261355, Note_off_c, 6, 66, 127
1, 261387, Note_on_c, 6, 66, 127
1, 261451, Note_off_c, 12, 71, 127
1, 261483, Note_on_c, 12, 71, 127
1, 261551, Note_off_c, 2, 74, 127
1, 261579, Note_on_c, 2, 74, 127
1, 261643, Note_off_c, 12, 71, 127
1, 261675, Note_on_c, 12, 71, 127
1, 261763, Note_off_c, 6, 66, 127
1, 261771, Note_on_c, 6, 66, 127
1, 261835, Note_off_c, 12, 71, 127
1, 261867, Note_off_c, 12, 59, 127
1, 261867, Note_on_c, 12, 71, 127
1, 261931, Note_off_c, 6, 66, 127
1, 261959, Note_on_c, 12, 59, 127
1, 261963, Note_on_c, 6, 66, 127
1, 262027, Note_off_c, 12, 71, 127
1, 262059, Note_on_c, 12, 71, 127
1, 262123, Note_off_c, 6, 66, 127
1, 262153, Note_off_c, 12, 71, 127
1, 262155, Note_off_c, 2, 74, 127
1, 262155, Note_on_c, 6, 54, 127
1, 262155, Note_on_c, 6, 66, 127
1, 262167, Note_off_c, 12, 59, 127
1, 262251, Note_on_c, 11, 70, 127
1, 262347, Note_on_c, 1, 73, 127
1, 262411, Note_off_c, 11, 70, 127
1, 262443, Note_on_c, 11, 70, 127
1, 262531, Note_off_c, 6, 66, 127
1, 262539, Note_on_c, 6, 66, 127
1, 262603, Note_off_c, 11, 70, 127
1, 262635, Note_on_c, 11, 70, 127
1, 262699, Note_off_c, 6, 66, 127
1, 262731, Note_on_c, 6, 66, 127
1, 262795, Note_off_c, 11, 70, 127
1, 262827, Note_on_c, 11, 70, 127
1, 262891, Note_off_c, 6, 66, 127
1, 262921, Note_off_c, 6, 54, 127
1, 262923, Note_on_c, 6, 54, 127
1, 262923, Note_on_c, 6, 66, 127
1, 262987, Note_off_c, 11, 70, 127
1, 263019, Note_on_c, 11, 70, 127
1, 263087, Note_off_c, 1, 73, 127
1, 263115, Note_on_c, 1, 73, 127
1, 263179, Note_off_c, 11, 70, 127
1, 263211, Note_on_c, 11, 70, 127
1, 263299, Note_off_c, 6, 66, 127
1, 263307, Note_on_c, 6, 66, 127
1, 263371, Note_off_c, 11, 70, 127
1, 263403, Note_on_c, 11, 70, 127
1, 263467, Note_off_c, 6, 66, 127
1, 263499, Note_on_c, 6, 66, 127
1, 263563, Note_off_c, 11, 70, 127
1, 263595, Note_on_c, 11, 70, 127
1, 263659, Note_off_c, 6, 66, 127
1, 263691, Note_on_c, 6, 66, 127
1, 263755, Note_off_c, 11, 70, 127
1, 263787, Note_on_c, 11, 70, 127
1, 263855, Note_off_c, 1, 73, 127
1, 263883, Note_on_c, 1, 73, 127
1, 263947, Note_off_c, 11, 70, 127
1, 263979, Note_on_c, 11, 70, 127
1, 264067, Note_off_c, 6, 66, 127
1, 264075, Note_on_c, 6, 66, 127
1, 264139, Note_off_c, 11, 70, 127
1, 264171, Note_off_c, 6, 54, 127
1, 264171, Note_on_c, 11, 70, 127
1, 264235, Note_off_c, 6, 66, 127
1, 264263, Note_on_c, 6, 54, 127
1, 264267, Note_on_c, 6, 66, 127
1, 264331, Note_off_c, 11, 70, 127
1, 264363, Note_on_c, 11, 70, 127
1, 264427, Note_off_c, 6, 66, 127
1, 264457, Note_off_c, 11, 70, 127
1, 264459, Note_off_c, 1, 73, 127
1, 264459, Note_on_c, 12, 59, 127
1, 264459, Note_on_c, 6, 66, 127
1, 264471, Note_off_c, 6, 54, 127
1, 264555, Note_on_c, 12, 71, 127
1, 264651, Note_on_c, 2, 74, 127
1, 264715, Note_off_c, 12, 71, 127
1, 264747, Note_on_c, 12, 71, 127
1, 264835, Note_off_c, 6, 66, 127
1, 264843, Note_on_c, 6, 66, 127
1, 264907, Note_off_c, 12, 71, 127
1, 264939, Note_on_c, 12, 71, 127
1, 265003, Note_off_c, 6, 66, 127
1, 265035, Note_on_c, 6, 66, 127
1, 265099, Note_off_c, 12, 71, 127
1, 265131, Note_on_c, 12, 71, 127
1, 265195, Note_off_c, 6, 66, 127
1, 265225, Note_off_c, 12, 59, 127
1, 265227, Note_on_c, 12, 59, 127
1, 265227, Note_on_c, 6, 66, 127
1, 265291, Note_off_c, 12, 71, 127
1, 265323, Note_on_c, 12, 71, 127
1, 265391, Note_off_c, 2, 74, 127
1, 265419, Note_on_c, 2, 74, 127
1, 265483, Note_off_c, 12, 71, 127
1, 265515, Note_on_c, 12, 71, 127
1, 265603, Note_off_c, 6, 66, 127
1, 265611, Note_on_c, 6, 66, 127
1, 265675, Note_off_c, 12, 71, 127
1, 265707, Note_on_c, 12, 71, 127
1, 265771, Note_off_c, 6, 66, 127
1, 265803, Note_on_c, 6, 66, 127
1, 265867, Note_off_c, 12, 71, 127
1, 265899, Note_on_c, 12, 71, 127
1, 265963, Note_off_c, 6, 66, 127
1, 265995, Note_on_c, 6, 66, 127
1, 266059, Note_off_c, 12, 71, 127
1, 266091, Note_on_c, 12, 71, 127
1, 266159, Note_off_c, 2, 74, 127
1, 266187, Note_on_c, 2, 74, 127
1, 266251, Note_off_c, 12, 71, 127
1, 266283, Note_on_c, 12, 71, 127
1, 266371, Note_off_c, 6, 66, 127
1, 266379, Note_on_c, 6, 66, 127
1, 266443, Note_off_c, 12, 71, 127
1, 266475, Note_off_c, 12, 59, 127
1, 266475, Note_on_c, 12, 71, 127
1, 266539, Note_off_c, 6, 66, 127
1, 266567, Note_on_c, 12, 59, 127
1, 266571, Note_on_c, 6, 66, 127
1, 266613, Note_off_c, 12, 71, 127
1, 266667, Note_on_c, 12, 71, 127
1, 266701, Note_off_c, 6, 66, 127
1, 266730, Note_off_c, 2, 74, 127
1, 266755, Note_off_c, 12, 71, 127
1, 266763, Note_on_c, 10, 57, 127
1, 266763, Note_on_c, 7, 67, 127
1, 266775, Note_off_c, 12, 59, 127
1, 266859, Note_on_c, 1, 73, 127
1, 266955, Note_on_c, 4, 76, 127
1, 267019, Note_off_c, 1, 73, 127
1, 267051, Note_on_c, 1, 73, 127
1, 267139, Note_off_c, 7, 67, 127
1, 267147, Note_on_c, 7, 67, 127
1, 267211, Note_off_c, 1, 73, 127
1, 267243, Note_on_c, 1, 73, 127
1, 267307, Note_off_c, 7, 67, 127
1, 267339, Note_on_c, 7, 67, 127
1, 267403, Note_off_c, 1, 73, 127
1, 267435, Note_on_c, 1, 73, 127
1, 267499, Note_off_c, 7, 67, 127
1, 267529, Note_off_c, 10, 57, 127
1, 267531, Note_on_c, 10, 57, 127
1, 267531, Note_on_c, 7, 67, 127
1, 267595, Note_off_c, 1, 73, 127
1, 267627, Note_on_c, 1, 73, 127
1, 267695, Note_off_c, 4, 76, 127
1, 267723, Note_on_c, 4, 76, 127
1, 267787, Note_off_c, 1, 73, 127
1, 267819, Note_on_c, 1, 73, 127
1, 267907, Note_off_c, 7, 67, 127
1, 267915, Note_on_c, 7, 67, 127
1, 267979, Note_off_c, 1, 73, 127
1, 268011, Note_on_c, 1, 73, 127
1, 268075, Note_off_c, 7, 67, 127
1, 268107, Note_on_c, 7, 67, 127
1, 268171, Note_off_c, 1, 73, 127
1, 268203, Note_on_c, 1, 73, 127
1, 268267, Note_off_c, 7, 67, 127
1, 268299, Note_on_c, 7, 67, 127
1, 268363, Note_off_c, 1, 73, 127
1, 268395, Note_on_c, 1, 73, 127
1, 268463, Note_off_c, 4, 76, 127
1, 268491, Note_on_c, 4, 76, 127
1, 268555, Note_off_c, 1, 73, 127
1, 268587, Note_on_c, 1, 73, 127
1, 268675, Note_off_c, 7, 67, 127
1, 268683, Note_on_c, 7, 67, 127
1, 268747, Note_off_c, 1, 73, 127
1, 268779, Note_off_c, 10, 57, 127
1, 268779, Note_on_c, 1, 73, 127
1, 268843, Note_off_c, 7, 67, 127
1, 268871, Note_on_c, 10, 57, 127
1, 268875, Note_on_c, 7, 67, 127
1, 268919, Note_off_c, 1, 73, 127
1, 268971, Note_on_c, 1, 73, 127
1, 269015, Note_off_c, 7, 67, 127
1, 269039, Note_off_c, 4, 76, 127
1, 269058, Note_off_c, 1, 73, 127
1, 269067, Note_on_c, 2, 62, 127
1, 269067, Note_on_c, 10, 69, 127
1, 269079, Note_off_c, 10, 57, 127
1, 269163, Note_on_c, 2, 74, 127
1, 269259, Note_on_c, 6, 78, 127
1, 269323, Note_off_c, 2, 74, 127
1, 269355, Note_on_c, 2, 74, 127
1, 269443, Note_off_c, 10, 69, 127
1, 269451, Note_on_c, 10, 69, 127
1, 269515, Note_off_c, 2, 74, 127
1, 269547, Note_on_c, 2, 74, 127
1, 269611, Note_off_c, 10, 69, 127
1, 269643, Note_on_c, 10, 69, 127
1, 269707, Note_off_c, 2, 74, 127
1, 269739, Note_on_c, 2, 74, 127
1, 269803, Note_off_c, 10, 69, 127
1, 269833, Note_off_c, 2, 62, 127
1, 269835, Note_on_c, 2, 62, 127
1, 269835, Note_on_c, 10, 69, 127
1, 269899, Note_off_c, 2, 74, 127
1, 269931, Note_on_c, 2, 74, 127
1, 269999, Note_off_c, 6, 78, 127
1, 270027, Note_on_c, 6, 78, 127
1, 270091, Note_off_c, 2, 74, 127
1, 270123, Note_on_c, 2, 74, 127
1, 270211, Note_off_c, 10, 69, 127
1, 270219, Note_on_c, 10, 69, 127
1, 270283, Note_off_c, 2, 74, 127
1, 270315, Note_on_c, 2, 74, 127
1, 270379, Note_off_c, 10, 69, 127
1, 270411, Note_on_c, 10, 69, 127
1, 270475, Note_off_c, 2, 74, 127
1, 270507, Note_on_c, 2, 74, 127
1, 270571, Note_off_c, 10, 69, 127
1, 270603, Note_on_c, 10, 69, 127
1, 270667, Note_off_c, 2, 74, 127
1, 270699, Note_on_c, 2, 74, 127
1, 270767, Note_off_c, 6, 78, 127
1, 270795, Note_on_c, 6, 78, 127
1, 270859, Note_off_c, 2, 74, 127
1, 270891, Note_on_c, 2, 74, 127
1, 270979, Note_off_c, 10, 69, 127
1, 270987, Note_on_c, 10, 69, 127
1, 271051, Note_off_c, 2, 74, 127
1, 271083, Note_off_c, 2, 62, 127
1, 271083, Note_on_c, 2, 74, 127
1, 271147, Note_off_c, 10, 69, 127
1, 271175, Note_on_c, 2, 62, 127
1, 271179, Note_on_c, 10, 69, 127
1, 271243, Note_off_c, 2, 74, 127
1, 271275, Note_on_c, 2, 74, 127
1, 271339, Note_off_c, 10, 69, 127
1, 271369, Note_off_c, 2, 74, 127
1, 271371, Note_off_c, 6, 78, 127
1, 271371, Note_on_c, 10, 57, 127
1, 271371, Note_on_c, 10, 69, 127
1, 271383, Note_off_c, 2, 62, 127
1, 271467, Note_on_c, 1, 73, 127
1, 271563, Note_on_c, 7, 79, 127
1, 271627, Note_off_c, 1, 73, 127
1, 271659, Note_on_c, 1, 73, 127
1, 271747, Note_off_c, 10, 69, 127
1, 271755, Note_on_c, 10, 69, 127
1, 271819, Note_off_c, 1, 73, 127
1, 271851, Note_on_c, 1, 73, 127
1, 271915, Note_off_c, 10, 69, 127
1, 271947, Note_on_c, 10, 69, 127
1, 272011, Note_off_c, 1, 73, 127
1, 272043, Note_on_c, 1, 73, 127
1, 272107, Note_off_c, 10, 69, 127
1, 272137, Note_off_c, 10, 57, 127
1, 272139, Note_on_c, 10, 57, 127
1, 272139, Note_on_c, 10, 69, 127
1, 272203, Note_off_c, 1, 73, 127
1, 272235, Note_on_c, 1, 73, 127
1, 272303, Note_off_c, 7, 79, 127
1, 272331, Note_on_c, 7, 79, 127
1, 272395, Note_off_c, 1, 73, 127
1, 272427, Note_on_c, 1, 73, 127
1, 272515, Note_off_c, 10, 69, 127
1, 272523, Note_on_c, 10, 69, 127
1, 272587, Note_off_c, 1, 73, 127
1, 272619, Note_on_c, 1, 73, 127
1, 272683, Note_off_c, 10, 69, 127
1, 272715, Note_on_c, 10, 69, 127
1, 272779, Note_off_c, 1, 73, 127
1, 272811, Note_on_c, 1, 73, 127
1, 272875, Note_off_c, 10, 69, 127
1, 272907, Note_on_c, 10, 69, 127
1, 272971, Note_off_c, 1, 73, 127
1, 273003, Note_on_c, 1, 73, 127
1, 273071, Note_off_c, 7, 79, 127
1, 273099, Note_on_c, 7, 79, 127
1, 273163, Note_off_c, 1, 73, 127
1, 273195, Note_on_c, 1, 73, 127
1, 273283, Note_off_c, 10, 69, 127
1, 273291, Note_on_c, 10, 69, 127
1, 273355, Note_off_c, 1, 73, 127
1, 273387, Note_off_c, 10, 57, 127
1, 273387, Note_on_c, 1, 73, 127
1, 273451, Note_off_c, 10, 69, 127
1, 273479, Note_on_c, 10, 57, 127
1, 273483, Note_on_c, 10, 69, 127
1, 273547, Note_off_c, 1, 73, 127
1, 273579, Note_on_c, 1, 73, 127
1, 273643, Note_off_c, 10, 69, 127
1, 273673, Note_off_c, 1, 73, 127
1, 273675, Note_off_c, 7, 79, 127
1, 273675, Note_on_c, 2, 62, 127
1, 273675, Note_on_c, 10, 69, 127
1, 273687, Note_off_c, 10, 57, 127
1, 273771, Note_on_c, 2, 74, 127
1, 273867, Note_on_c, 6, 78, 127
1, 273931, Note_off_c, 2, 74, 127
1, 273963, Note_on_c, 2, 74, 127
1, 274051, Note_off_c, 10, 69, 127
1, 274059, Note_on_c, 10, 69, 127
1, 274123, Note_off_c, 2, 74, 127
1, 274155, Note_on_c, 2, 74, 127
1, 274219, Note_off_c, 10, 69, 127
1, 274251, Note_on_c, 10, 69, 127
1, 274315, Note_off_c, 2, 74, 127
1, 274347, Note_on_c, 2, 74, 127
1, 274411, Note_off_c, 10, 69, 127
1, 274441, Note_off_c, 2, 62, 127
1, 274443, Note_on_c, 2, 62, 127
1, 274443, Note_on_c, 10, 69, 127
1, 274507, Note_off_c, 2, 74, 127
1, 274539, Note_on_c, 2, 74, 127
1, 274607, Note_off_c, 6, 78, 127
1, 274635, Note_on_c, 6, 78, 127
1, 274699, Note_off_c, 2, 74, 127
1, 274731, Note_on_c, 2, 74, 127
1, 274819, Note_off_c, 10, 69, 127
1, 274827, Note_on_c, 10, 69, 127
1, 274891, Note_off_c, 2, 74, 127
1, 274923, Note_on_c, 2, 74, 127
1, 274987, Note_off_c, 10, 69, 127
1, 275019, Note_on_c, 10, 69, 127
1, 275083, Note_off_c, 2, 74, 127
1, 275115, Note_on_c, 2, 74, 127
1, 275179, Note_off_c, 10, 69, 127
1, 275211, Note_on_c, 10, 69, 127
1, 275275, Note_off_c, 2, 74, 127
1, 275307, Note_on_c, 2, 74, 127
1, 275375, Note_off_c, 6, 78, 127
1, 275403, Note_on_c, 6, 78, 127
1, 275467, Note_off_c, 2, 74, 127
1, 275499, Note_on_c, 2, 74, 127
1, 275587, Note_off_c, 10, 69, 127
1, 275595, Note_on_c, 10, 69, 127
1, 275659, Note_off_c, 2, 74, 127
1, 275691, Note_off_c, 2, 62, 127
1, 275691, Note_on_c, 2, 74, 127
1, 275755, Note_off_c, 10, 69, 127
1, 275783, Note_on_c, 2, 62, 127
1, 275787, Note_on_c, 10, 69, 127
1, 275851, Note_off_c, 2, 74, 127
1, 275883, Note_on_c, 2, 74, 127
1, 275947, Note_off_c, 10, 69, 127
1, 275963, Note_off_c, 6, 78, 127
1, 275975, Note_off_c, 2, 62, 127
1, 275979, Note_on_c, 2, 62, 127
1, 275979, Note_on_c, 6, 66, 127
1, 276043, Note_off_c, 2, 74, 127
1, 276075, Note_on_c, 10, 69, 127
1, 276171, Note_on_c, 2, 74, 127
1, 276235, Note_off_c, 10, 69, 127
1, 276267, Note_on_c, 10, 69, 127
1, 276355, Note_off_c, 6, 66, 127
1, 276363, Note_on_c, 6, 66, 127
1, 276427, Note_off_c, 10, 69, 127
1, 276459, Note_on_c, 10, 69, 127
1, 276523, Note_off_c, 6, 66, 127
1, 276555, Note_on_c, 6, 66, 127
1, 276619, Note_off_c, 10, 69, 127
1, 276651, Note_on_c, 10, 69, 127
1, 276715, Note_off_c, 6, 66, 127
1, 276745, Note_off_c, 2, 62, 127
1, 276747, Note_on_c, 2, 62, 127
1, 276747, Note_on_c, 6, 66, 127
1, 276811, Note_off_c, 10, 69, 127
1, 276843, Note_on_c, 10, 69, 127
1, 276911, Note_off_c, 2, 74, 127
1, 276939, Note_on_c, 2, 74, 127
1, 277003, Note_off_c, 10, 69, 127
1, 277035, Note_on_c, 10, 69, 127
1, 277123, Note_off_c, 6, 66, 127
1, 277131, Note_on_c, 6, 66, 127
1, 277195, Note_off_c, 10, 69, 127
1, 277227, Note_on_c, 10, 69, 127
1, 277291, Note_off_c, 6, 66, 127
1, 277323, Note_on_c, 6, 66, 127
1, 277387, Note_off_c, 10, 69, 127
1, 277419, Note_on_c, 10, 69, 127
1, 277483, Note_off_c, 6, 66, 127
1, 277515, Note_on_c, 6, 66, 127
1, 277579, Note_off_c, 10, 69, 127
1, 277611, Note_on_c, 10, 69, 127
1, 277679, Note_off_c, 2, 74, 127
1, 277707, Note_on_c, 2, 74, 127
1, 277771, Note_off_c, 10, 69, 127
1, 277803, Note_on_c, 10, 69, 127
1, 277891, Note_off_c, 6, 66, 127
1, 277899, Note_on_c, 6, 66, 127
1, 277963, Note_off_c, 10, 69, 127
1, 277995, Note_off_c, 2, 62, 127
1, 277995, Note_on_c, 10, 69, 127
1, 278059, Note_off_c, 6, 66, 127
1, 278087, Note_on_c, 2, 62, 127
1, 278091, Note_on_c, 6, 66, 127
1, 278155, Note_off_c, 10, 69, 127
1, 278187, Note_on_c, 10, 69, 127
1, 278251, Note_off_c, 6, 66, 127
1, 278283, Note_on_c, 7, 55, 127
1, 278283, Note_on_c, 4, 64, 127
1, 278295, Note_off_c, 2, 62, 127
1, 278347, Note_off_c, 10, 69, 127
1, 278379, Note_on_c, 7, 67, 127
1, 278447, Note_off_c, 2, 74, 127
1, 278475, Note_on_c, 2, 74, 127
1, 278539, Note_off_c, 7, 67, 127
1, 278571, Note_on_c, 7, 67, 127
1, 278659, Note_off_c, 4, 64, 127
1, 278667, Note_on_c, 4, 64, 127
1, 278731, Note_off_c, 7, 67, 127
1, 278763, Note_on_c, 7, 67, 127
1, 278827, Note_off_c, 4, 64, 127
1, 278859, Note_on_c, 4, 64, 127
1, 278923, Note_off_c, 7, 67, 127
1, 278955, Note_on_c, 7, 67, 127
1, 279019, Note_off_c, 4, 64, 127
1, 279049, Note_off_c, 7, 55, 127
1, 279051, Note_on_c, 7, 55, 127
1, 279051, Note_on_c, 4, 64, 127
1, 279115, Note_off_c, 7, 67, 127
1, 279147, Note_on_c, 7, 67, 127
1, 279215, Note_off_c, 2, 74, 127
1, 279243, Note_on_c, 2, 74, 127
1, 279307, Note_off_c, 7, 67, 127
1, 279339, Note_on_c, 7, 67, 127
1, 279427, Note_off_c, 4, 64, 127
1, 279435, Note_on_c, 4, 64, 127
1, 279499, Note_off_c, 7, 67, 127
1, 279531, Note_on_c, 7, 67, 127
1, 279595, Note_off_c, 4, 64, 127
1, 279627, Note_on_c, 4, 64, 127
1, 279691, Note_off_c, 7, 67, 127
1, 279723, Note_on_c, 7, 67, 127
1, 279787, Note_off_c, 4, 64, 127
1, 279819, Note_on_c, 4, 64, 127
1, 279883, Note_off_c, 7, 67, 127
1, 279915, Note_on_c, 7, 67, 127
1, 279983, Note_off_c, 2, 74, 127
1, 280011, Note_on_c, 2, 74, 127
1, 280075, Note_off_c, 7, 67, 127
1, 280107, Note_on_c, 7, 67, 127
1, 280195, Note_off_c, 4, 64, 127
1, 280203, Note_on_c, 4, 64, 127
1, 280267, Note_off_c, 7, 67, 127
1, 280299, Note_off_c, 7, 55, 127
1, 280299, Note_on_c, 7, 67, 127
1, 280363, Note_off_c, 4, 64, 127
1, 280391, Note_on_c, 7, 55, 127
1, 280395, Note_on_c, 4, 64, 127
1, 280459, Note_off_c, 7, 67, 127
1, 280491, Note_on_c, 7, 67, 127
1, 280555, Note_off_c, 4, 64, 127
1, 280587, Note_off_c, 2, 74, 127
1, 280587, Note_on_c, 10, 57, 127
1, 280587, Note_on_c, 4, 64, 127
1, 280599, Note_off_c, 7, 55, 127
1, 280651, Note_off_c, 7, 67, 127
1, 280683, Note_on_c, 7, 67, 127
1, 280779, Note_on_c, 1, 73, 127
1, 280843, Note_off_c, 7, 67, 127
1, 280875, Note_on_c, 7, 67, 127
1, 280963, Note_off_c, 4, 64, 127
1, 280971, Note_on_c, 4, 64, 127
1, 281035, Note_off_c, 7, 67, 127
1, 281067, Note_on_c, 7, 67, 127
1, 281131, Note_off_c, 4, 64, 127
1, 281163, Note_on_c, 4, 64, 127
1, 281227, Note_off_c, 7, 67, 127
1, 281259, Note_on_c, 7, 67, 127
1, 281323, Note_off_c, 4, 64, 127
1, 281353, Note_off_c, 10, 57, 127
1, 281355, Note_on_c, 10, 57, 127
1, 281355, Note_on_c, 4, 64, 127
1, 281419, Note_off_c, 7, 67, 127
1, 281451, Note_on_c, 7, 67, 127
1, 281519, Note_off_c, 1, 73, 127
1, 281547, Note_on_c, 1, 73, 127
1, 281611, Note_off_c, 7, 67, 127
1, 281643, Note_on_c, 7, 67, 127
1, 281731, Note_off_c, 4, 64, 127
1, 281739, Note_on_c, 4, 64, 127
1, 281803, Note_off_c, 7, 67, 127
1, 281835, Note_on_c, 7, 67, 127
1, 281899, Note_off_c, 4, 64, 127
1, 281931, Note_on_c, 4, 64, 127
1, 281995, Note_off_c, 7, 67, 127
1, 282027, Note_on_c, 7, 67, 127
1, 282091, Note_off_c, 4, 64, 127
1, 282123, Note_on_c, 4, 64, 127
1, 282187, Note_off_c, 7, 67, 127
1, 282219, Note_on_c, 7, 67, 127
1, 282287, Note_off_c, 1, 73, 127
1, 282315, Note_on_c, 1, 73, 127
1, 282379, Note_off_c, 7, 67, 127
1, 282411, Note_on_c, 7, 67, 127
1, 282499, Note_off_c, 4, 64, 127
1, 282507, Note_on_c, 4, 64, 127
1, 282571, Note_off_c, 7, 67, 127
1, 282603, Note_off_c, 10, 57, 127
1, 282603, Note_on_c, 7, 67, 127
1, 282667, Note_off_c, 4, 64, 127
1, 282695, Note_on_c, 10, 57, 127
1, 282699, Note_on_c, 4, 64, 127
1, 282763, Note_off_c, 7, 67, 127
1, 282795, Note_on_c, 7, 67, 127
1, 282859, Note_off_c, 4, 64, 127
1, 282889, Note_off_c, 7, 67, 127
1, 282891, Note_off_c, 1, 73, 127
1, 282891, Note_on_c, 2, 62, 127
1, 282891, Note_on_c, 2, 74, 127
1, 282891, Note_on_c, 6, 66, 127
1, 282903, Note_off_c, 10, 57, 127
1, 283273, Note_off_c, 6, 66, 127
1, 283323, Note_on_c, 10, 69, 127
1, 283325, Note_off_c, 2, 74, 127
1, 283682, Note_off_c, 2, 62, 127
1, 283705, Note_off_c, 10, 69, 127
1, 283707, Note_on_c, 2, 74, 127
1, 283707, Note_on_c, 2, 62, 127
1, 284089, Note_off_c, 2, 74, 127
1, 284091, Note_on_c, 6, 78, 127
1, 284473, Note_off_c, 6, 78, 127
1, 284475, Note_on_c, 6, 78, 127
1, 284665, Note_off_c, 6, 78, 127
1, 284667, Note_on_c, 7, 79, 127
1, 284761, Note_off_c, 7, 79, 127
1, 284763, Note_on_c, 10, 81, 127
1, 284857, Note_off_c, 10, 81, 127
1, 284859, Note_on_c, 7, 79, 127
1, 285007, Note_off_c, 2, 62, 127
1, 285049, Note_off_c, 7, 79, 127
1, 285051, Note_on_c, 6, 78, 127
1, 285053, Note_on_c, 2, 62, 127
1, 285241, Note_off_c, 6, 78, 127
1, 285243, Note_off_c, 2, 62, 127
1, 285243, Note_on_c, 4, 76, 127
1, 285243, Note_on_c, 10, 57, 127
1, 285433, Note_off_c, 4, 76, 127
1, 285435, Note_on_c, 7, 79, 127
1, 285625, Note_off_c, 7, 79, 127
1, 285627, Note_on_c, 4, 76, 127
1, 285817, Note_off_c, 4, 76, 127
1, 285819, Note_on_c, 1, 73, 127
1, 286009, Note_off_c, 1, 73, 127
1, 286009, Note_off_c, 10, 57, 127
1, 286011, Note_on_c, 10, 69, 127
1, 286011, Note_on_c, 10, 57, 127
1, 286201, Note_off_c, 10, 69, 127
1, 286203, Note_on_c, 4, 64, 127
1, 286393, Note_off_c, 4, 64, 127
1, 286395, Note_on_c, 1, 61, 127
1, 286585, Note_off_c, 1, 61, 127
1, 286587, Note_on_c, 4, 64, 127
1, 286777, Note_off_c, 4, 64, 127
1, 286779, Note_on_c, 10, 69, 127
1, 286969, Note_off_c, 10, 69, 127
1, 286971, Note_on_c, 1, 73, 127
1, 287161, Note_off_c, 1, 73, 127
1, 287163, Note_on_c, 4, 76, 127
1, 287311, Note_off_c, 10, 57, 127
1, 287353, Note_off_c, 4, 76, 127
1, 287355, Note_on_c, 7, 79, 127
1, 287357, Note_on_c, 10, 57, 127
1, 287545, Note_off_c, 7, 79, 127
1, 287547, Note_off_c, 10, 57, 127
1, 287547, Note_on_c, 6, 78, 127
1, 287547, Note_on_c, 2, 62, 127
1, 287737, Note_off_c, 6, 78, 127
1, 287739, Note_on_c, 2, 74, 127
1, 287929, Note_off_c, 2, 74, 127
1, 287931, Note_on_c, 2, 74, 127
1, 288121, Note_off_c, 2, 74, 127
1, 288123, Note_on_c, 6, 78, 127
1, 288313, Note_off_c, 6, 78, 127
1, 288313, Note_off_c, 2, 62, 127
1, 288315, Note_on_c, 6, 78, 127
1, 288315, Note_on_c, 2, 62, 127
1, 288505, Note_off_c, 6, 78, 127
1, 288507, Note_on_c, 10, 81, 127
1, 288697, Note_off_c, 10, 81, 127
1, 288699, Note_on_c, 10, 81, 127
1, 288889, Note_off_c, 10, 81, 127
1, 288891, Note_on_c, 6, 78, 127
1, 289081, Note_off_c, 6, 78, 127
1, 289083, Note_on_c, 6, 78, 127
1, 289273, Note_off_c, 6, 78, 127
1, 289275, Note_on_c, 2, 74, 127
1, 289465, Note_off_c, 2, 74, 127
1, 289467, Note_on_c, 2, 74, 127
1, 289615, Note_off_c, 2, 62, 127
1, 289657, Note_off_c, 2, 74, 127
1, 289659, Note_on_c, 6, 78, 127
1, 289661, Note_on_c, 2, 62, 127
1, 289849, Note_off_c, 6, 78, 127
1, 289851, Note_off_c, 2, 62, 127
1, 289851, Note_on_c, 8, 68, 127
1, 289851, Note_on_c, 4, 52, 127
1, 290041, Note_off_c, 8, 68, 127
1, 290043, Note_on_c, 4, 64, 127
1, 290233, Note_off_c, 4, 64, 127
1, 290235, Note_on_c, 4, 64, 127
1, 290425, Note_off_c, 4, 64, 127
1, 290427, Note_on_c, 8, 68, 127
1, 290617, Note_off_c, 8, 68, 127
1, 290617, Note_off_c, 4, 52, 127
1, 290619, Note_on_c, 8, 68, 127
1, 290619, Note_on_c, 4, 52, 127
1, 290809, Note_off_c, 8, 68, 127
1, 290811, Note_on_c, 12, 71, 127
1, 291001, Note_off_c, 12, 71, 127
1, 291003, Note_on_c, 12, 71, 127
1, 291193, Note_off_c, 12, 71, 127
1, 291195, Note_on_c, 2, 74, 127
1, 291385, Note_off_c, 2, 74, 127
1, 291387, Note_on_c, 2, 74, 127
1, 291577, Note_off_c, 2, 74, 127
1, 291579, Note_on_c, 12, 71, 127
1, 291769, Note_off_c, 12, 71, 127
1, 291771, Note_on_c, 12, 71, 127
1, 291919, Note_off_c, 4, 52, 127
1, 291961, Note_off_c, 12, 71, 127
1, 291963, Note_on_c, 1, 73, 127
1, 291965, Note_on_c, 4, 52, 127
1, 292153, Note_off_c, 1, 73, 127
1, 292155, Note_off_c, 4, 52, 127
1, 292155, Note_on_c, 1, 73, 127
1, 292155, Note_on_c, 10, 57, 127
1, 292345, Note_off_c, 1, 73, 127
1, 292347, Note_on_c, 10, 69, 127
1, 292537, Note_off_c, 10, 69, 127
1, 292539, Note_on_c, 10, 69, 127
1, 292729, Note_off_c, 10, 69, 127
1, 292731, Note_on_c, 1, 73, 127
1, 292921, Note_off_c, 1, 73, 127
1, 292921, Note_off_c, 10, 57, 127
1, 292923, Note_on_c, 1, 73, 127
1, 292923, Note_on_c, 10, 57, 127
1, 293113, Note_off_c, 1, 73, 127
1, 293115, Note_on_c, 4, 76, 127
1, 293305, Note_off_c, 4, 76, 127
1, 293307, Note_on_c, 4, 76, 127
1, 293497, Note_off_c, 4, 76, 127
1, 293499, Note_on_c, 7, 79, 127
1, 293689, Note_off_c, 7, 79, 127
1, 293691, Note_on_c, 7, 79, 127
1, 293881, Note_off_c, 7, 79, 127
1, 293883, Note_on_c, 1, 73, 127
1, 294073, Note_off_c, 1, 73, 127
1, 294075, Note_on_c, 1, 73, 127
1, 294223, Note_off_c, 10, 57, 127
1, 294265, Note_off_c, 1, 73, 127
1, 294267, Note_on_c, 4, 76, 127
1, 294269, Note_on_c, 10, 57, 127
1, 294457, Note_off_c, 4, 76, 127
1, 294459, Note_off_c, 10, 57, 127
1, 294459, Note_on_c, 11, 70, 127
1, 294459, Note_on_c, 6, 54, 127
1, 294649, Note_off_c, 11, 70, 127
1, 294651, Note_on_c, 6, 66, 127
1, 294841, Note_off_c, 6, 66, 127
1, 294843, Note_on_c, 6, 66, 127
1, 295033, Note_off_c, 6, 66, 127
1, 295035, Note_on_c, 1, 73, 127
1, 295225, Note_off_c, 1, 73, 127
1, 295225, Note_off_c, 6, 54, 127
1, 295227, Note_on_c, 1, 73, 127
1, 295227, Note_on_c, 6, 54, 127
1, 295417, Note_off_c, 1, 73, 127
1, 295419, Note_on_c, 11, 70, 127
1, 295609, Note_off_c, 11, 70, 127
1, 295611, Note_on_c, 11, 70, 127
1, 295801, Note_off_c, 11, 70, 127
1, 295803, Note_on_c, 7, 79, 127
1, 295993, Note_off_c, 7, 79, 127
1, 295995, Note_on_c, 6, 78, 127
1, 296185, Note_off_c, 6, 78, 127
1, 296187, Note_on_c, 4, 76, 127
1, 296377, Note_off_c, 4, 76, 127
1, 296379, Note_on_c, 2, 74, 127
1, 296527, Note_off_c, 6, 54, 127
1, 296569, Note_off_c, 2, 74, 127
1, 296571, Note_on_c, 1, 73, 127
1, 296573, Note_on_c, 6, 54, 127
1, 296761, Note_off_c, 1, 73, 127
1, 296763, Note_off_c, 6, 54, 127
1, 296763, Note_on_c, 2, 74, 127
1, 296763, Note_on_c, 12, 59, 127
1, 296953, Note_off_c, 2, 74, 127
1, 296955, Note_on_c, 12, 71, 127
1, 297145, Note_off_c, 12, 71, 127
1, 297147, Note_on_c, 11, 70, 127
1, 297337, Note_off_c, 11, 70, 127
1, 297339, Note_on_c, 12, 71, 127
1, 297529, Note_off_c, 12, 71, 127
1, 297529, Note_off_c, 12, 59, 127
1, 297531, Note_on_c, 2, 74, 127
1, 297531, Note_on_c, 12, 59, 127
1, 297721, Note_off_c, 2, 74, 127
1, 297723, Note_on_c, 12, 71, 127
1, 297913, Note_off_c, 12, 71, 127
1, 297915, Note_on_c, 11, 70, 127
1, 298105, Note_off_c, 11, 70, 127
1, 298107, Note_on_c, 12, 71, 127
1, 298297, Note_off_c, 12, 71, 127
1, 298299, Note_on_c, 2, 74, 127
1, 298489, Note_off_c, 2, 74, 127
1, 298491, Note_on_c, 12, 71, 127
1, 298681, Note_off_c, 12, 71, 127
1, 298683, Note_on_c, 11, 70, 127
1, 298831, Note_off_c, 12, 59, 127
1, 298873, Note_off_c, 11, 70, 127
1, 298875, Note_on_c, 12, 71, 127
1, 298877, Note_on_c, 12, 59, 127
1, 299065, Note_off_c, 12, 71, 127
1, 299067, Note_off_c, 12, 59, 127
1, 299067, Note_on_c, 5, 77, 127
1, 299067, Note_on_c, 1, 61, 127
1, 299257, Note_off_c, 5, 77, 127
1, 299259, Note_on_c, 1, 73, 127
1, 299449, Note_off_c, 1, 73, 127
1, 299451, Note_on_c, 3, 75, 127
1, 299641, Note_off_c, 3, 75, 127
1, 299643, Note_on_c, 5, 77, 127
1, 299833, Note_off_c, 5, 77, 127
1, 299835, Note_on_c, 6, 78, 127
1, 300025, Note_off_c, 6, 78, 127
1, 300027, Note_on_c, 10, 69, 127
1, 300217, Note_off_c, 10, 69, 127
1, 300219, Note_on_c, 8, 68, 127
1, 300409, Note_off_c, 8, 68, 127
1, 300411, Note_on_c, 6, 66, 127
1, 300601, Note_off_c, 6, 66, 127
1, 300601, Note_off_c, 1, 61, 127
1, 300603, Note_on_c, 1, 61, 127
1, 300795, Note_on_c, 8, 68, 127
1, 300985, Note_off_c, 8, 68, 127
1, 300987, Note_on_c, 6, 78, 127
1, 301177, Note_off_c, 6, 78, 127
1, 301179, Note_on_c, 5, 77, 127
1, 301369, Note_off_c, 5, 77, 127
1, 301369, Note_off_c, 1, 61, 127
1, 301371, Note_on_c, 6, 78, 127
1, 301371, Note_on_c, 6, 54, 127
1, 301471, Note_off_c, 6, 78, 127
1, 301471, Note_on_c, 5, 77, 127
1, 301571, Note_off_c, 5, 77, 127
1, 301571, Note_on_c, 6, 78, 127
1, 302137, Note_off_c, 6, 54, 127
1, 302139, Note_on_c, 6, 54, 127
1, 302571, Note_off_c, 6, 78, 127
1, 302715, Note_on_c, 6, 78, 127
1, 302905, Note_off_c, 6, 78, 127
1, 302907, Note_on_c, 10, 81, 127
1, 303011, Note_off_c, 10, 81, 127
1, 303013, Note_on_c, 7, 79, 127
1, 303117, Note_off_c, 7, 79, 127
1, 303119, Note_on_c, 6, 78, 127
1, 303287, Note_off_c, 6, 78, 127
1, 303291, Note_on_c, 7, 79, 127
1, 303439, Note_off_c, 6, 54, 127
1, 303481, Note_off_c, 7, 79, 127
1, 303483, Note_on_c, 10, 81, 127
1, 303485, Note_on_c, 6, 54, 127
1, 303673, Note_off_c, 10, 81, 127
1, 303675, Note_off_c, 6, 54, 127
1, 303675, Note_on_c, 3, 75, 127
1, 303675, Note_on_c, 12, 59, 127
1, 304249, Note_off_c, 3, 75, 127
1, 304251, Note_on_c, 1, 73, 127
1, 304441, Note_off_c, 1, 73, 127
1, 304441, Note_off_c, 12, 59, 127
1, 304443, Note_on_c, 12, 71, 127
1, 304443, Note_on_c, 3, 63, 127
1, 305017, Note_off_c, 12, 71, 127
1, 305019, Note_on_c, 10, 69, 127
1, 305209, Note_off_c, 10, 69, 127
1, 305211, Note_on_c, 7, 67, 127
1, 305743, Note_off_c, 3, 63, 127
1, 305785, Note_off_c, 7, 67, 127
1, 305787, Note_on_c, 6, 66, 127
1, 305789, Note_on_c, 3, 63, 127
1, 305977, Note_off_c, 6, 66, 127
1, 305979, Note_off_c, 3, 63, 127
1, 305979, Note_on_c, 7, 67, 127
1, 305979, Note_on_c, 4, 64, 127
1, 306553, Note_off_c, 7, 67, 127
1, 306555, Note_on_c, 6, 66, 127
1, 306745, Note_off_c, 6, 66, 127
1, 306745, Note_off_c, 4, 64, 127
1, 306747, Note_on_c, 4, 64, 127
1, 306747, Note_on_c, 4, 52, 127
1, 307321, Note_off_c, 4, 64, 127
1, 307331, Note_on_c, 4, 76, 127
1, 307521, Note_off_c, 4, 76, 127
1, 307523, Note_on_c, 6, 78, 127
1, 308047, Note_off_c, 4, 52, 127
1, 308097, Note_off_c, 6, 78, 127
1, 308099, Note_on_c, 7, 79, 127
1, 308101, Note_on_c, 4, 64, 127
1, 308289, Note_off_c, 7, 79, 127
1, 308291, Note_off_c, 4, 64, 127
1, 308291, Note_on_c, 2, 74, 127
1, 308291, Note_on_c, 10, 57, 127
1, 308481, Note_off_c, 2, 74, 127
1, 308483, Note_on_c, 0, 72, 127
1, 308865, Note_off_c, 0, 72, 127
1, 308867, Note_on_c, 2, 74, 127
1, 308961, Note_off_c, 2, 74, 127
1, 308963, Note_on_c, 12, 71, 127
1, 309057, Note_off_c, 12, 71, 127
1, 309057, Note_off_c, 10, 57, 127
1, 309059, Note_on_c, 12, 71, 127
1, 309059, Note_on_c, 0, 60, 127
1, 309249, Note_off_c, 12, 71, 127
1, 309251, Note_on_c, 10, 69, 127
1, 309633, Note_off_c, 10, 69, 127
1, 309635, Note_on_c, 12, 71, 127
1, 309729, Note_off_c, 12, 71, 127
1, 309731, Note_on_c, 7, 67, 127
1, 309825, Note_off_c, 7, 67, 127
1, 309827, Note_on_c, 7, 67, 127
1, 310017, Note_off_c, 7, 67, 127
1, 310019, Note_on_c, 6, 66, 127
1, 310359, Note_off_c, 0, 60, 127
1, 310401, Note_off_c, 6, 66, 127
1, 310403, Note_on_c, 7, 67, 127
1, 310405, Note_on_c, 0, 60, 127
1, 310497, Note_off_c, 7, 67, 127
1, 310499, Note_on_c, 4, 64, 127
1, 310593, Note_off_c, 4, 64, 127
1, 310595, Note_off_c, 0, 60, 127
1, 310595, Note_on_c, 4, 64, 127
1, 310595, Note_on_c, 2, 62, 127
1, 310785, Note_off_c, 4, 64, 127
1, 310787, Note_on_c, 7, 67, 127
1, 310977, Note_off_c, 7, 67, 127
1, 310979, Note_on_c, 6, 66, 127
1, 311105, Note_off_c, 6, 66, 127
1, 311107, Note_on_c, 4, 64, 127
1, 311228, Note_off_c, 2, 62, 127
1, 311233, Note_off_c, 4, 64, 127
1, 311235, Note_on_c, 2, 62, 127
1, 311361, Note_off_c, 2, 62, 127
1, 311363, Note_on_c, 2, 62, 127
1, 311363, Note_on_c, 2, 50, 127
1, 311923, Note_off_c, 2, 62, 127
1, 311947, Note_on_c, 2, 74, 127
1, 312133, Note_off_c, 2, 74, 127
1, 312139, Note_on_c, 4, 76, 127
1, 312513, Note_off_c, 2, 50, 127
1, 312715, Note_off_c, 4, 76, 127
1, 312715, Note_on_c, 6, 78, 127
1, 312717, Note_on_c, 2, 62, 127
1, 312905, Note_off_c, 6, 78, 127
1, 312907, Note_off_c, 2, 62, 127
1, 312907, Note_on_c, 12, 71, 127
1, 312907, Note_on_c, 7, 55, 127
1, 313097, Note_off_c, 12, 71, 127
1, 313099, Note_on_c, 2, 74, 127
1, 313289, Note_off_c, 2, 74, 127
1, 313291, Note_on_c, 12, 71, 127
1, 313481, Note_off_c, 12, 71, 127
1, 313483, Note_on_c, 10, 69, 127
1, 313673, Note_off_c, 10, 69, 127
1, 313673, Note_off_c, 7, 55, 127
1, 313675, Note_on_c, 7, 67, 127
1, 313675, Note_on_c, 12, 59, 127
1, 313865, Note_off_c, 7, 67, 127
1, 313867, Note_on_c, 12, 71, 127
1, 314057, Note_off_c, 12, 71, 127
1, 314059, Note_on_c, 7, 67, 127
1, 314249, Note_off_c, 7, 67, 127
1, 314251, Note_on_c, 6, 66, 127
1, 314441, Note_off_c, 6, 66, 127
1, 314443, Note_on_c, 4, 64, 127
1, 314633, Note_off_c, 4, 64, 127
1, 314635, Note_on_c, 7, 67, 127
1, 314825, Note_off_c, 7, 67, 127
1, 314827, Note_on_c, 4, 64, 127
1, 314939, Note_off_c, 12, 59, 127
1, 315017, Note_off_c, 4, 64, 127
1, 315019, Note_on_c, 2, 62, 127
1, 315021, Note_on_c, 12, 59, 127
1, 315209, Note_off_c, 2, 62, 127
1, 315211, Note_off_c, 12, 59, 127
1, 315211, Note_on_c, 4, 64, 127
1, 315211, Note_on_c, 1, 61, 127
1, 315391, Note_off_c, 1, 61, 127
1, 315401, Note_off_c, 4, 64, 127
1, 315403, Note_on_c, 1, 61, 127
1, 315595, Note_on_c, 2, 62, 127
1, 315783, Note_off_c, 1, 61, 127
1, 315785, Note_off_c, 2, 62, 127
1, 315787, Note_on_c, 12, 59, 127
1, 315977, Note_off_c, 12, 59, 127
1, 315979, Note_on_c, 1, 61, 127
1, 315979, Note_on_c, 1, 49, 127
1, 316539, Note_off_c, 1, 61, 127
1, 316563, Note_on_c, 1, 73, 127
1, 316753, Note_off_c, 1, 73, 127
1, 316755, Note_on_c, 2, 74, 127
1, 317279, Note_off_c, 1, 49, 127
1, 317331, Note_off_c, 2, 74, 127
1, 317331, Note_on_c, 4, 76, 127
1, 317333, Note_on_c, 1, 61, 127
1, 317521, Note_off_c, 4, 76, 127
1, 317523, Note_off_c, 1, 61, 127
1, 317523, Note_on_c, 11, 70, 127
1, 317523, Note_on_c, 6, 54, 127
1, 317713, Note_off_c, 11, 70, 127
1, 317715, Note_on_c, 6, 66, 127
1, 317905, Note_off_c, 6, 66, 127
1, 317907, Note_on_c, 4, 76, 127
1, 318097, Note_off_c, 4, 76, 127
1, 318099, Note_on_c, 1, 73, 127
1, 318289, Note_off_c, 1, 73, 127
1, 318289, Note_off_c, 6, 54, 127
1, 318291, Note_on_c, 11, 70, 127
1, 318291, Note_on_c, 11, 58, 127
1, 318481, Note_off_c, 11, 70, 127
1, 318483, Note_on_c, 6, 66, 127
1, 318673, Note_off_c, 6, 66, 127
1, 318675, Note_on_c, 4, 64, 127
1, 318865, Note_off_c, 4, 64, 127
1, 318867, Note_on_c, 4, 76, 127
1, 319057, Note_off_c, 4, 76, 127
1, 319059, Note_on_c, 1, 73, 127
1, 319249, Note_off_c, 1, 73, 127
1, 319251, Note_on_c, 11, 70, 127
1, 319441, Note_off_c, 11, 70, 127
1, 319443, Note_on_c, 6, 66, 127
1, 319591, Note_off_c, 11, 58, 127
1, 319633, Note_off_c, 6, 66, 127
1, 319635, Note_on_c, 4, 64, 127
1, 319637, Note_on_c, 11, 58, 127
1, 319825, Note_off_c, 4, 64, 127
1, 319827, Note_off_c, 11, 58, 127
1, 319827, Note_on_c, 4, 64, 127
1, 319827, Note_on_c, 12, 59, 127
1, 320017, Note_off_c, 4, 64, 127
1, 320019, Note_on_c, 2, 62, 127
1, 320209, Note_off_c, 2, 62, 127
1, 320211, Note_on_c, 1, 61, 127
1, 320401, Note_off_c, 1, 61, 127
1, 320403, Note_on_c, 2, 62, 127
1, 320593, Note_off_c, 2, 62, 127
1, 320593, Note_off_c, 12, 59, 127
1, 320595, Note_on_c, 12, 59, 127
1, 320595, Note_on_c, 12, 47, 127
1, 320785, Note_off_c, 12, 59, 127
1, 320803, Note_on_c, 1, 61, 127
1, 320993, Note_off_c, 1, 61, 127
1, 320995, Note_on_c, 2, 62, 127
1, 321185, Note_off_c, 2, 62, 127
1, 321187, Note_on_c, 5, 65, 127
1, 321377, Note_off_c, 5, 65, 127
1, 321379, Note_on_c, 6, 66, 127
1, 321569, Note_off_c, 6, 66, 127
1, 321571, Note_on_c, 11, 70, 127
1, 321761, Note_off_c, 11, 70, 127
1, 321763, Note_on_c, 12, 71, 127
1, 321953, Note_off_c, 12, 71, 127
1, 321955, Note_on_c, 1, 73, 127
1, 322129, Note_off_c, 12, 47, 127
1, 322145, Note_off_c, 1, 73, 127
1, 322163, Note_on_c, 6, 66, 127
1, 322163, Note_on_c, 12, 59, 127
1, 322259, Note_on_c, 12, 71, 127
1, 322355, Note_on_c, 2, 74, 127
1, 322419, Note_off_c, 12, 71, 127
1, 322451, Note_on_c, 12, 71, 127
1, 322539, Note_off_c, 6, 66, 127
1, 322547, Note_on_c, 6, 66, 127
1, 322611, Note_off_c, 12, 71, 127
1, 322643, Note_on_c, 12, 71, 127
1, 322707, Note_off_c, 6, 66, 127
1, 322739, Note_on_c, 6, 66, 127
1, 322803, Note_off_c, 12, 71, 127
1, 322835, Note_on_c, 12, 71, 127
1, 322899, Note_off_c, 6, 66, 127
1, 322929, Note_off_c, 12, 59, 127
1, 322931, Note_on_c, 6, 66, 127
1, 322931, Note_on_c, 12, 59, 127
1, 322995, Note_off_c, 12, 71, 127
1, 323027, Note_on_c, 12, 71, 127
1, 323095, Note_off_c, 2, 74, 127
1, 323123, Note_on_c, 2, 74, 127
1, 323187, Note_off_c, 12, 71, 127
1, 323219, Note_on_c, 12, 71, 127
1, 323307, Note_off_c, 6, 66, 127
1, 323315, Note_on_c, 6, 66, 127
1, 323379, Note_off_c, 12, 71, 127
1, 323411, Note_on_c, 12, 71, 127
1, 323475, Note_off_c, 6, 66, 127
1, 323507, Note_on_c, 6, 66, 127
1, 323571, Note_off_c, 12, 71, 127
1, 323603, Note_on_c, 12, 71, 127
1, 323667, Note_off_c, 6, 66, 127
1, 323699, Note_on_c, 6, 66, 127
1, 323763, Note_off_c, 12, 71, 127
1, 323795, Note_on_c, 12, 71, 127
1, 323863, Note_off_c, 2, 74, 127
1, 323891, Note_on_c, 2, 74, 127
1, 323955, Note_off_c, 12, 71, 127
1, 323987, Note_on_c, 12, 71, 127
1, 324075, Note_off_c, 6, 66, 127
1, 324083, Note_on_c, 6, 66, 127
1, 324147, Note_off_c, 12, 71, 127
1, 324179, Note_off_c, 12, 59, 127
1, 324179, Note_on_c, 12, 71, 127
1, 324243, Note_off_c, 6, 66, 127
1, 324271, Note_on_c, 12, 59, 127
1, 324275, Note_on_c, 6, 66, 127
1, 324339, Note_off_c, 12, 71, 127
1, 324371, Note_on_c, 12, 71, 127
1, 324435, Note_off_c, 6, 66, 127
1, 324465, Note_off_c, 12, 71, 127
1, 324467, Note_off_c, 2, 74, 127
1, 324467, Note_on_c, 6, 66, 127
1, 324467, Note_on_c, 6, 54, 127
1, 324479, Note_off_c, 12, 59, 127
1, 324563, Note_on_c, 11, 70, 127
1, 324659, Note_on_c, 1, 73, 127
1, 324723, Note_off_c, 11, 70, 127
1, 324755, Note_on_c, 11, 70, 127
1, 324843, Note_off_c, 6, 66, 127
1, 324851, Note_on_c, 6, 66, 127
1, 324915, Note_off_c, 11, 70, 127
1, 324947, Note_on_c, 11, 70, 127
1, 325011, Note_off_c, 6, 66, 127
1, 325043, Note_on_c, 6, 66, 127
1, 325107, Note_off_c, 11, 70, 127
1, 325139, Note_on_c, 11, 70, 127
1, 325203, Note_off_c, 6, 66, 127
1, 325233, Note_off_c, 6, 54, 127
1, 325235, Note_on_c, 6, 66, 127
1, 325235, Note_on_c, 6, 54, 127
1, 325299, Note_off_c, 11, 70, 127
1, 325331, Note_on_c, 11, 70, 127
1, 325399, Note_off_c, 1, 73, 127
1, 325427, Note_on_c, 1, 73, 127
1, 325491, Note_off_c, 11, 70, 127
1, 325523, Note_on_c, 11, 70, 127
1, 325611, Note_off_c, 6, 66, 127
1, 325619, Note_on_c, 6, 66, 127
1, 325683, Note_off_c, 11, 70, 127
1, 325715, Note_on_c, 11, 70, 127
1, 325779, Note_off_c, 6, 66, 127
1, 325811, Note_on_c, 6, 66, 127
1, 325875, Note_off_c, 11, 70, 127
1, 325907, Note_on_c, 11, 70, 127
1, 325971, Note_off_c, 6, 66, 127
1, 326003, Note_on_c, 6, 66, 127
1, 326067, Note_off_c, 11, 70, 127
1, 326099, Note_on_c, 11, 70, 127
1, 326167, Note_off_c, 1, 73, 127
1, 326195, Note_on_c, 1, 73, 127
1, 326259, Note_off_c, 11, 70, 127
1, 326291, Note_on_c, 11, 70, 127
1, 326379, Note_off_c, 6, 66, 127
1, 326387, Note_on_c, 6, 66, 127
1, 326451, Note_off_c, 11, 70, 127
1, 326483, Note_off_c, 6, 54, 127
1, 326483, Note_on_c, 11, 70, 127
1, 326547, Note_off_c, 6, 66, 127
1, 326575, Note_on_c, 6, 54, 127
1, 326579, Note_on_c, 6, 66, 127
1, 326643, Note_off_c, 11, 70, 127
1, 326675, Note_on_c, 11, 70, 127
1, 326739, Note_off_c, 6, 66, 127
1, 326769, Note_off_c, 11, 70, 127
1, 326771, Note_off_c, 1, 73, 127
1, 326771, Note_on_c, 6, 66, 127
1, 326771, Note_on_c, 12, 59, 127
1, 326783, Note_off_c, 6, 54, 127
1, 326867, Note_on_c, 12, 71, 127
1, 326963, Note_on_c, 2, 74, 127
1, 327027, Note_off_c, 12, 71, 127
1, 327059, Note_on_c, 12, 71, 127
1, 327147, Note_off_c, 6, 66, 127
1, 327155, Note_on_c, 6, 66, 127
1, 327219, Note_off_c, 12, 71, 127
1, 327251, Note_on_c, 12, 71, 127
1, 327315, Note_off_c, 6, 66, 127
1, 327347, Note_on_c, 6, 66, 127
1, 327411, Note_off_c, 12, 71, 127
1, 327443, Note_on_c, 12, 71, 127
1, 327507, Note_off_c, 6, 66, 127
1, 327537, Note_off_c, 12, 59, 127
1, 327539, Note_on_c, 6, 66, 127
1, 327539, Note_on_c, 12, 59, 127
1, 327603, Note_off_c, 12, 71, 127
1, 327635, Note_on_c, 12, 71, 127
1, 327703, Note_off_c, 2, 74, 127
1, 327731, Note_on_c, 2, 74, 127
1, 327795, Note_off_c, 12, 71, 127
1, 327827, Note_on_c, 12, 71, 127
1, 327915, Note_off_c, 6, 66, 127
1, 327923, Note_on_c, 6, 66, 127
1, 327987, Note_off_c, 12, 71, 127
1, 328019, Note_on_c, 12, 71, 127
1, 328083, Note_off_c, 6, 66, 127
1, 328115, Note_on_c, 6, 66, 127
1, 328179, Note_off_c, 12, 71, 127
1, 328211, Note_on_c, 12, 71, 127
1, 328275, Note_off_c, 6, 66, 127
1, 328307, Note_on_c, 6, 66, 127
1, 328371, Note_off_c, 12, 71, 127
1, 328403, Note_on_c, 12, 71, 127
1, 328471, Note_off_c, 2, 74, 127
1, 328499, Note_on_c, 2, 74, 127
1, 328563, Note_off_c, 12, 71, 127
1, 328595, Note_on_c, 12, 71, 127
1, 328683, Note_off_c, 6, 66, 127
1, 328691, Note_on_c, 6, 66, 127
1, 328755, Note_off_c, 12, 71, 127
1, 328787, Note_off_c, 12, 59, 127
1, 328787, Note_on_c, 12, 71, 127
1, 328851, Note_off_c, 6, 66, 127
1, 328879, Note_on_c, 12, 59, 127
1, 328883, Note_on_c, 6, 66, 127
1, 328947, Note_off_c, 12, 71, 127
1, 328979, Note_on_c, 12, 71, 127
1, 329043, Note_off_c, 6, 66, 127
1, 329075, Note_on_c, 6, 66, 127
1, 329075, Note_on_c, 6, 54, 127
1, 329087, Note_off_c, 12, 59, 127
1, 329139, Note_off_c, 12, 71, 127
1, 329171, Note_on_c, 11, 70, 127
1, 329239, Note_off_c, 2, 74, 127
1, 329267, Note_on_c, 4, 76, 127
1, 329331, Note_off_c, 11, 70, 127
1, 329363, Note_on_c, 11, 70, 127
1, 329451, Note_off_c, 6, 66, 127
1, 329459, Note_on_c, 6, 66, 127
1, 329523, Note_off_c, 11, 70, 127
1, 329555, Note_on_c, 11, 70, 127
1, 329619, Note_off_c, 6, 66, 127
1, 329651, Note_on_c, 6, 66, 127
1, 329715, Note_off_c, 11, 70, 127
1, 329747, Note_on_c, 11, 70, 127
1, 329811, Note_off_c, 6, 66, 127
1, 329841, Note_off_c, 6, 54, 127
1, 329843, Note_on_c, 6, 66, 127
1, 329843, Note_on_c, 6, 54, 127
1, 329907, Note_off_c, 11, 70, 127
1, 329939, Note_on_c, 11, 70, 127
1, 330007, Note_off_c, 4, 76, 127
1, 330035, Note_on_c, 4, 76, 127
1, 330099, Note_off_c, 11, 70, 127
1, 330131, Note_on_c, 11, 70, 127
1, 330219, Note_off_c, 6, 66, 127
1, 330227, Note_on_c, 6, 66, 127
1, 330291, Note_off_c, 11, 70, 127
1, 330323, Note_on_c, 11, 70, 127
1, 330387, Note_off_c, 6, 66, 127
1, 330419, Note_on_c, 6, 66, 127
1, 330483, Note_off_c, 11, 70, 127
1, 330515, Note_on_c, 11, 70, 127
1, 330579, Note_off_c, 6, 66, 127
1, 330611, Note_on_c, 6, 66, 127
1, 330675, Note_off_c, 11, 70, 127
1, 330707, Note_on_c, 11, 70, 127
1, 330775, Note_off_c, 4, 76, 127
1, 330803, Note_on_c, 4, 76, 127
1, 330867, Note_off_c, 11, 70, 127
1, 330899, Note_on_c, 11, 70, 127
1, 330987, Note_off_c, 6, 66, 127
1, 330995, Note_on_c, 6, 66, 127
1, 331059, Note_off_c, 11, 70, 127
1, 331091, Note_off_c, 6, 54, 127
1, 331091, Note_on_c, 11, 70, 127
1, 331155, Note_off_c, 6, 66, 127
1, 331183, Note_on_c, 6, 54, 127
1, 331187, Note_on_c, 6, 66, 127
1, 331251, Note_off_c, 11, 70, 127
1, 331283, Note_on_c, 11, 70, 127
1, 331347, Note_off_c, 6, 66, 127
1, 331377, Note_off_c, 11, 70, 127
1, 331379, Note_off_c, 4, 76, 127
1, 331379, Note_on_c, 6, 66, 127
1, 331379, Note_on_c, 12, 59, 127
1, 331391, Note_off_c, 6, 54, 127
1, 331475, Note_on_c, 12, 71, 127
1, 331571, Note_on_c, 2, 74, 127
1, 331635, Note_off_c, 12, 71, 127
1, 331667, Note_on_c, 12, 71, 127
1, 331755, Note_off_c, 6, 66, 127
1, 331763, Note_on_c, 6, 66, 127
1, 331827, Note_off_c, 12, 71, 127
1, 331859, Note_on_c, 12, 71, 127
1, 331923, Note_off_c, 6, 66, 127
1, 331955, Note_on_c, 6, 66, 127
1, 332019, Note_off_c, 12, 71, 127
1, 332051, Note_on_c, 12, 71, 127
1, 332115, Note_off_c, 6, 66, 127
1, 332145, Note_off_c, 12, 59, 127
1, 332147, Note_on_c, 6, 66, 127
1, 332147, Note_on_c, 12, 59, 127
1, 332211, Note_off_c, 12, 71, 127
1, 332243, Note_on_c, 12, 71, 127
1, 332311, Note_off_c, 2, 74, 127
1, 332339, Note_on_c, 2, 74, 127
1, 332403, Note_off_c, 12, 71, 127
1, 332435, Note_on_c, 12, 71, 127
1, 332523, Note_off_c, 6, 66, 127
1, 332531, Note_on_c, 6, 66, 127
1, 332595, Note_off_c, 12, 71, 127
1, 332627, Note_on_c, 12, 71, 127
1, 332691, Note_off_c, 6, 66, 127
1, 332723, Note_on_c, 6, 66, 127
1, 332787, Note_off_c, 12, 71, 127
1, 332819, Note_on_c, 12, 71, 127
1, 332883, Note_off_c, 6, 66, 127
1, 332915, Note_on_c, 6, 66, 127
1, 332979, Note_off_c, 12, 71, 127
1, 333011, Note_on_c, 12, 71, 127
1, 333079, Note_off_c, 2, 74, 127
1, 333107, Note_on_c, 2, 74, 127
1, 333171, Note_off_c, 12, 71, 127
1, 333203, Note_on_c, 12, 71, 127
1, 333291, Note_off_c, 6, 66, 127
1, 333299, Note_on_c, 6, 66, 127
1, 333363, Note_off_c, 12, 71, 127
1, 333395, Note_off_c, 12, 59, 127
1, 333395, Note_on_c, 12, 71, 127
1, 333459, Note_off_c, 6, 66, 127
1, 333487, Note_on_c, 12, 59, 127
1, 333491, Note_on_c, 6, 66, 127
1, 333555, Note_off_c, 12, 71, 127
1, 333587, Note_on_c, 12, 71, 127
1, 333651, Note_off_c, 6, 66, 127
1, 333683, Note_off_c, 2, 74, 127
1, 333683, Note_on_c, 7, 67, 127
1, 333683, Note_on_c, 4, 64, 127
1, 333695, Note_off_c, 12, 59, 127
1, 333747, Note_off_c, 12, 71, 127
1, 333779, Note_on_c, 12, 71, 127
1, 333875, Note_on_c, 1, 73, 127
1, 333939, Note_off_c, 12, 71, 127
1, 333971, Note_on_c, 12, 71, 127
1, 334059, Note_off_c, 7, 67, 127
1, 334067, Note_on_c, 7, 67, 127
1, 334131, Note_off_c, 12, 71, 127
1, 334163, Note_on_c, 12, 71, 127
1, 334227, Note_off_c, 7, 67, 127
1, 334259, Note_on_c, 7, 67, 127
1, 334323, Note_off_c, 12, 71, 127
1, 334355, Note_on_c, 12, 71, 127
1, 334419, Note_off_c, 7, 67, 127
1, 334449, Note_off_c, 4, 64, 127
1, 334451, Note_on_c, 7, 67, 127
1, 334451, Note_on_c, 4, 64, 127
1, 334515, Note_off_c, 12, 71, 127
1, 334547, Note_on_c, 12, 71, 127
1, 334615, Note_off_c, 1, 73, 127
1, 334643, Note_on_c, 1, 73, 127
1, 334707, Note_off_c, 12, 71, 127
1, 334739, Note_on_c, 12, 71, 127
1, 334827, Note_off_c, 7, 67, 127
1, 334835, Note_on_c, 7, 67, 127
1, 334899, Note_off_c, 12, 71, 127
1, 334931, Note_on_c, 12, 71, 127
1, 334995, Note_off_c, 7, 67, 127
1, 335027, Note_on_c, 7, 67, 127
1, 335091, Note_off_c, 12, 71, 127
1, 335123, Note_on_c, 12, 71, 127
1, 335187, Note_off_c, 7, 67, 127
1, 335219, Note_on_c, 7, 67, 127
1, 335283, Note_off_c, 12, 71, 127
1, 335315, Note_on_c, 12, 71, 127
1, 335383, Note_off_c, 1, 73, 127
1, 335411, Note_on_c, 1, 73, 127
1, 335475, Note_off_c, 12, 71, 127
1, 335507, Note_on_c, 12, 71, 127
1, 335595, Note_off_c, 7, 67, 127
1, 335603, Note_on_c, 7, 67, 127
1, 335667, Note_off_c, 12, 71, 127
1, 335699, Note_off_c, 4, 64, 127
1, 335699, Note_on_c, 12, 71, 127
1, 335763, Note_off_c, 7, 67, 127
1, 335791, Note_on_c, 4, 52, 127
1, 335795, Note_on_c, 7, 67, 127
1, 335859, Note_off_c, 12, 71, 127
1, 335891, Note_on_c, 12, 71, 127
1, 335955, Note_off_c, 7, 67, 127
1, 335985, Note_off_c, 12, 71, 127
1, 335987, Note_on_c, 6, 66, 127
1, 335987, Note_on_c, 6, 54, 127
1, 335999, Note_off_c, 4, 52, 127
1, 336083, Note_on_c, 11, 70, 127
1, 336151, Note_off_c, 1, 73, 127
1, 336179, Note_on_c, 1, 73, 127
1, 336243, Note_off_c, 11, 70, 127
1, 336275, Note_on_c, 11, 70, 127
1, 336363, Note_off_c, 6, 66, 127
1, 336371, Note_on_c, 6, 66, 127
1, 336435, Note_off_c, 11, 70, 127
1, 336467, Note_on_c, 11, 70, 127
1, 336531, Note_off_c, 6, 66, 127
1, 336563, Note_on_c, 6, 66, 127
1, 336627, Note_off_c, 11, 70, 127
1, 336659, Note_on_c, 11, 70, 127
1, 336723, Note_off_c, 6, 66, 127
1, 336753, Note_off_c, 6, 54, 127
1, 336755, Note_on_c, 6, 66, 127
1, 336755, Note_on_c, 6, 54, 127
1, 336819, Note_off_c, 11, 70, 127
1, 336851, Note_on_c, 11, 70, 127
1, 336919, Note_off_c, 1, 73, 127
1, 336947, Note_on_c, 1, 73, 127
1, 337011, Note_off_c, 11, 70, 127
1, 337043, Note_on_c, 11, 70, 127
1, 337131, Note_off_c, 6, 66, 127
1, 337139, Note_on_c, 6, 66, 127
1, 337203, Note_off_c, 11, 70, 127
1, 337235, Note_on_c, 11, 70, 127
1, 337299, Note_off_c, 6, 66, 127
1, 337331, Note_on_c, 6, 66, 127
1, 337395, Note_off_c, 11, 70, 127
1, 337427, Note_on_c, 11, 70, 127
1, 337491, Note_off_c, 6, 66, 127
1, 337523, Note_on_c, 6, 66, 127
1, 337587, Note_off_c, 11, 70, 127
1, 337619, Note_on_c, 11, 70, 127
1, 337687, Note_off_c, 1, 73, 127
1, 337715, Note_on_c, 1, 73, 127
1, 337779, Note_off_c, 11, 70, 127
1, 337811, Note_on_c, 11, 70, 127
1, 337899, Note_off_c, 6, 66, 127
1, 337907, Note_on_c, 6, 66, 127
1, 337971, Note_off_c, 11, 70, 127
1, 338003, Note_off_c, 6, 54, 127
1, 338003, Note_on_c, 11, 70, 127
1, 338067, Note_off_c, 6, 66, 127
1, 338095, Note_on_c, 6, 54, 127
1, 338099, Note_on_c, 6, 66, 127
1, 338163, Note_off_c, 11, 70, 127
1, 338195, Note_on_c, 11, 70, 127
1, 338259, Note_off_c, 6, 66, 127
1, 338289, Note_off_c, 11, 70, 127
1, 338291, Note_off_c, 1, 73, 127
1, 338304, Note_off_c, 6, 54, 127
1, 338307, Note_on_c, 12, 59, 127
1, 338307, Note_on_c, 12, 71, 127
1, 338307, Note_on_c, 6, 66, 127
1, 338307, Note_on_c, 2, 74, 127
1, 338511, Note_off_c, 6, 66, 127
1, 338511, Note_off_c, 12, 71, 127
1, 338541, Note_off_c, 2, 74, 127
1, 338553, Note_on_c, 6, 78, 127
1, 338757, Note_off_c, 6, 78, 127
1, 338759, Note_on_c, 2, 74, 127
1, 338963, Note_off_c, 2, 74, 127
1, 338965, Note_on_c, 1, 73, 127
1, 339169, Note_off_c, 1, 73, 127
1, 339171, Note_on_c, 12, 71, 127
1, 339375, Note_off_c, 12, 71, 127
1, 339377, Note_on_c, 2, 74, 127
1, 339581, Note_off_c, 2, 74, 127
1, 339583, Note_on_c, 12, 71, 127
1, 339787, Note_off_c, 12, 71, 127
1, 339789, Note_on_c, 11, 70, 127
1, 339993, Note_off_c, 11, 70, 127
1, 339995, Note_on_c, 12, 71, 127
1, 340199, Note_off_c, 12, 71, 127
1, 340201, Note_on_c, 6, 66, 127
1, 340405, Note_off_c, 6, 66, 127
1, 340407, Note_on_c, 2, 62, 127
1, 340611, Note_off_c, 2, 62, 127
1, 340613, Note_on_c, 1, 61, 127
1, 340777, Note_off_c, 12, 59, 127
1, 340817, Note_off_c, 1, 61, 127
1, 340819, Note_on_c, 12, 47, 127
1, 340819, Note_on_c, 12, 59, 127
1, 340931, Note_on_c, 2, 62, 127
1, 341027, Note_on_c, 6, 66, 127
1, 341091, Note_off_c, 2, 62, 127
1, 341123, Note_on_c, 2, 62, 127
1, 341195, Note_off_c, 12, 59, 127
1, 341219, Note_on_c, 12, 59, 127
1, 341283, Note_off_c, 2, 62, 127
1, 341315, Note_on_c, 2, 62, 127
1, 341379, Note_off_c, 12, 59, 127
1, 341411, Note_on_c, 12, 59, 127
1, 341475, Note_off_c, 2, 62, 127
1, 341507, Note_on_c, 2, 62, 127
1, 341571, Note_off_c, 12, 59, 127
1, 341585, Note_off_c, 12, 47, 127
1, 341603, Note_on_c, 12, 59, 127
1, 341603, Note_on_c, 12, 47, 127
1, 341667, Note_off_c, 2, 62, 127
1, 341699, Note_on_c, 2, 62, 127
1, 341767, Note_off_c, 6, 66, 127
1, 341795, Note_on_c, 6, 66, 127
1, 341859, Note_off_c, 2, 62, 127
1, 341891, Note_on_c, 2, 62, 127
1, 341979, Note_off_c, 12, 59, 127
1, 341987, Note_on_c, 12, 59, 127
1, 342051, Note_off_c, 2, 62, 127
1, 342083, Note_on_c, 2, 62, 127
1, 342147, Note_off_c, 12, 59, 127
1, 342179, Note_on_c, 12, 59, 127
1, 342243, Note_off_c, 2, 62, 127
1, 342275, Note_on_c, 2, 62, 127
1, 342339, Note_off_c, 12, 59, 127
1, 342371, Note_on_c, 12, 59, 127
1, 342435, Note_off_c, 2, 62, 127
1, 342467, Note_on_c, 2, 62, 127
1, 342535, Note_off_c, 6, 66, 127
1, 342563, Note_on_c, 6, 66, 127
1, 342627, Note_off_c, 2, 62, 127
1, 342659, Note_on_c, 2, 62, 127
1, 342747, Note_off_c, 12, 59, 127
1, 342755, Note_on_c, 12, 59, 127
1, 342819, Note_off_c, 2, 62, 127
1, 342851, Note_off_c, 12, 47, 127
1, 342851, Note_on_c, 2, 62, 127
1, 342915, Note_off_c, 12, 59, 127
1, 342943, Note_on_c, 12, 47, 127
1, 342947, Note_on_c, 12, 59, 127
1, 343011, Note_off_c, 2, 62, 127
1, 343043, Note_on_c, 2, 62, 127
1, 343107, Note_off_c, 12, 59, 127
1, 343137, Note_off_c, 2, 62, 127
1, 343139, Note_on_c, 12, 59, 127
1, 343139, Note_on_c, 6, 54, 127
1, 343151, Note_off_c, 12, 47, 127
1, 343235, Note_on_c, 1, 61, 127
1, 343303, Note_off_c, 6, 66, 127
1, 343331, Note_on_c, 6, 66, 127
1, 343395, Note_off_c, 1, 61, 127
1, 343427, Note_on_c, 1, 61, 127
1, 343515, Note_off_c, 12, 59, 127
1, 343523, Note_on_c, 12, 59, 127
1, 343587, Note_off_c, 1, 61, 127
1, 343619, Note_on_c, 1, 61, 127
1, 343683, Note_off_c, 12, 59, 127
1, 343715, Note_on_c, 12, 59, 127
1, 343779, Note_off_c, 1, 61, 127
1, 343811, Note_on_c, 1, 61, 127
1, 343875, Note_off_c, 12, 59, 127
1, 343905, Note_off_c, 6, 54, 127
1, 343907, Note_on_c, 12, 59, 127
1, 343907, Note_on_c, 6, 54, 127
1, 343971, Note_off_c, 1, 61, 127
1, 344003, Note_on_c, 1, 61, 127
1, 344071, Note_off_c, 6, 66, 127
1, 344099, Note_on_c, 6, 66, 127
1, 344163, Note_off_c, 1, 61, 127
1, 344195, Note_on_c, 1, 61, 127
1, 344283, Note_off_c, 12, 59, 127
1, 344291, Note_on_c, 12, 59, 127
1, 344355, Note_off_c, 1, 61, 127
1, 344387, Note_on_c, 1, 61, 127
1, 344451, Note_off_c, 12, 59, 127
1, 344483, Note_on_c, 12, 59, 127
1, 344547, Note_off_c, 1, 61, 127
1, 344579, Note_on_c, 1, 61, 127
1, 344643, Note_off_c, 12, 59, 127
1, 344675, Note_on_c, 12, 59, 127
1, 344739, Note_off_c, 1, 61, 127
1, 344771, Note_on_c, 1, 61, 127
1, 344839, Note_off_c, 6, 66, 127
1, 344867, Note_on_c, 6, 66, 127
1, 344931, Note_off_c, 1, 61, 127
1, 344963, Note_on_c, 1, 61, 127
1, 345051, Note_off_c, 12, 59, 127
1, 345059, Note_on_c, 12, 59, 127
1, 345123, Note_off_c, 1, 61, 127
1, 345155, Note_off_c, 6, 54, 127
1, 345155, Note_on_c, 1, 61, 127
1, 345219, Note_off_c, 12, 59, 127
1, 345247, Note_on_c, 6, 54, 127
1, 345251, Note_on_c, 12, 59, 127
1, 345315, Note_off_c, 1, 61, 127
1, 345347, Note_on_c, 1, 61, 127
1, 345411, Note_off_c, 12, 59, 127
1, 345443, Note_on_c, 11, 58, 127
1, 345443, Note_on_c, 6, 42, 127
1, 345455, Note_off_c, 6, 54, 127
1, 345507, Note_off_c, 1, 61, 127
1, 345539, Note_on_c, 1, 61, 127
1, 345607, Note_off_c, 6, 66, 127
1, 345635, Note_on_c, 6, 66, 127
1, 345699, Note_off_c, 1, 61, 127
1, 345731, Note_on_c, 1, 61, 127
1, 345819, Note_off_c, 11, 58, 127
1, 345827, Note_on_c, 11, 58, 127
1, 345891, Note_off_c, 1, 61, 127
1, 345923, Note_on_c, 1, 61, 127
1, 345987, Note_off_c, 11, 58, 127
1, 346019, Note_on_c, 11, 58, 127
1, 346083, Note_off_c, 1, 61, 127
1, 346115, Note_on_c, 1, 61, 127
1, 346179, Note_off_c, 11, 58, 127
1, 346209, Note_off_c, 6, 42, 127
1, 346211, Note_on_c, 11, 58, 127
1, 346211, Note_on_c, 6, 42, 127
1, 346275, Note_off_c, 1, 61, 127
1, 346307, Note_on_c, 1, 61, 127
1, 346375, Note_off_c, 6, 66, 127
1, 346403, Note_on_c, 6, 66, 127
1, 346467, Note_off_c, 1, 61, 127
1, 346499, Note_on_c, 1, 61, 127
1, 346587, Note_off_c, 11, 58, 127
1, 346595, Note_on_c, 11, 58, 127
1, 346659, Note_off_c, 1, 61, 127
1, 346691, Note_on_c, 1, 61, 127
1, 346755, Note_off_c, 11, 58, 127
1, 346787, Note_on_c, 11, 58, 127
1, 346851, Note_off_c, 1, 61, 127
1, 346883, Note_on_c, 1, 61, 127
1, 346947, Note_off_c, 11, 58, 127
1, 346979, Note_on_c, 11, 58, 127
1, 347043, Note_off_c, 1, 61, 127
1, 347075, Note_on_c, 1, 61, 127
1, 347143, Note_off_c, 6, 66, 127
1, 347171, Note_on_c, 6, 66, 127
1, 347235, Note_off_c, 1, 61, 127
1, 347267, Note_on_c, 1, 61, 127
1, 347355, Note_off_c, 11, 58, 127
1, 347363, Note_on_c, 11, 58, 127
1, 347427, Note_off_c, 1, 61, 127
1, 347459, Note_off_c, 6, 42, 127
1, 347459, Note_on_c, 1, 61, 127
1, 347523, Note_off_c, 11, 58, 127
1, 347551, Note_on_c, 6, 42, 127
1, 347555, Note_on_c, 11, 58, 127
1, 347619, Note_off_c, 1, 61, 127
1, 347651, Note_on_c, 1, 61, 127
1, 347715, Note_off_c, 11, 58, 127
1, 347745, Note_off_c, 1, 61, 127
1, 347747, Note_off_c, 6, 66, 127
1, 347759, Note_off_c, 6, 42, 127
1, 347763, Note_on_c, 12, 47, 127
1, 347763, Note_on_c, 6, 66, 127
1, 347763, Note_on_c, 2, 62, 127
1, 347763, Note_on_c, 12, 59, 127
1, 348529, Note_off_c, 12, 59, 127
1, 348529, Note_off_c, 2, 62, 127
1, 348529, Note_off_c, 6, 66, 127
1, 348529, Note_off_c, 12, 47, 127
1, 348579, Note_on_c, 12, 47, 127
1, 348579, Note_on_c, 12, 59, 127
1, 349827, Note_off_c, 12, 59, 127
1, 349827, Note_off_c, 12, 47, 127
1, 349923, Note_on_c, 12, 47, 127
1, 349923, Note_on_c, 12, 59, 127
1, 350113, Note_off_c, 12, 59, 127
1, 350113, Note_off_c, 12, 47, 127
1, 350115, Note_on_c, 4, 40, 127
1, 350115, Note_on_c, 4, 52, 127
1, 350881, Note_off_c, 4, 52, 127
1, 350881, Note_off_c, 4, 40, 127
1, 350883, Note_on_c, 4, 40, 127
1, 350883, Note_on_c, 4, 52, 127
1, 352131, Note_off_c, 4, 52, 127
1, 352131, Note_off_c, 4, 40, 127
1, 352227, Note_on_c, 4, 40, 127
1, 352227, Note_on_c, 4, 52, 127
1, 352417, Note_off_c, 4, 52, 127
1, 352417, Note_off_c, 4, 40, 127
1, 352419, Note_on_c, 6, 42, 127
1, 352419, Note_on_c, 6, 54, 127
1, 353185, Note_off_c, 6, 54, 127
1, 353185, Note_off_c, 6, 42, 127
1, 353187, Note_on_c, 6, 42, 127
1, 353187, Note_on_c, 6, 54, 127
1, 354435, Note_off_c, 6, 54, 127
1, 354435, Note_off_c, 6, 42, 127
1, 354531, Note_on_c, 6, 42, 127
1, 354531, Note_on_c, 6, 54, 127
1, 354721, Note_off_c, 6, 54, 127
1, 354721, Note_off_c, 6, 42, 127
1, 354739, Note_on_c, 12, 59, 127
1, 354739, Note_on_c, 12, 47, 127
1, 357539, Note_off_c, 12, 47, 127
1, 357539, Note_off_c, 12, 59, 127
1, 360115, Note_on_c, 7, 67, 127
1, 360115, Note_on_c, 7, 43, 127
1, 360257, Note_on_c, 2, 62, 127
1, 360257, Note_on_c, 12, 47, 127
1, 360259, Note_off_c, 7, 43, 127
1, 360270, Note_off_c, 7, 67, 127
1, 360390, Note_off_c, 2, 62, 127
1, 360397, Note_off_c, 12, 47, 127
1, 360399, Note_on_c, 7, 67, 127
1, 360399, Note_on_c, 7, 43, 127
1, 360532, Note_off_c, 7, 67, 127
1, 360539, Note_off_c, 7, 43, 127
1, 360541, Note_on_c, 6, 66, 127
1, 360541, Note_on_c, 2, 50, 127
1, 360681, Note_off_c, 2, 50, 127
1, 360683, Note_on_c, 2, 62, 127
1, 360683, Note_on_c, 2, 38, 127
1, 360687, Note_off_c, 6, 66, 127
1, 360816, Note_off_c, 2, 62, 127
1, 360823, Note_off_c, 2, 38, 127
1, 360825, Note_on_c, 6, 66, 127
1, 360825, Note_on_c, 2, 50, 127
1, 360958, Note_off_c, 6, 66, 127
1, 360965, Note_off_c, 2, 50, 127
1, 360967, Note_on_c, 7, 67, 127
1, 360967, Note_on_c, 7, 43, 127
1, 361109, Note_on_c, 2, 62, 127
1, 361109, Note_on_c, 12, 47, 127
1, 361111, Note_off_c, 7, 43, 127
1, 361122, Note_off_c, 7, 67, 127
1, 361242, Note_off_c, 2, 62, 127
1, 361249, Note_off_c, 12, 47, 127
1, 361251, Note_on_c, 7, 67, 127
1, 361251, Note_on_c, 7, 43, 127
1, 361384, Note_off_c, 7, 67, 127
1, 361391, Note_off_c, 7, 43, 127
1, 361393, Note_on_c, 6, 66, 127
1, 361393, Note_on_c, 2, 50, 127
1, 361533, Note_off_c, 2, 50, 127
1, 361535, Note_on_c, 2, 62, 127
1, 361535, Note_on_c, 2, 38, 127
1, 361539, Note_off_c, 6, 66, 127
1, 361668, Note_off_c, 2, 62, 127
1, 361675, Note_off_c, 2, 38, 127
1, 361677, Note_on_c, 6, 66, 127
1, 361677, Note_on_c, 2, 50, 127
1, 361810, Note_off_c, 6, 66, 127
1, 361817, Note_off_c, 2, 50, 127
1, 361819, Note_on_c, 7, 67, 127
1, 361819, Note_on_c, 7, 43, 127
1, 361961, Note_on_c, 2, 62, 127
1, 361961, Note_on_c, 12, 47, 127
1, 361963, Note_off_c, 7, 43, 127
1, 361974, Note_off_c, 7, 67, 127
1, 362094, Note_off_c, 2, 62, 127
1, 362101, Note_off_c, 12, 47, 127
1, 362103, Note_on_c, 7, 67, 127
1, 362103, Note_on_c, 7, 43, 127
1, 362236, Note_off_c, 7, 67, 127
1, 362243, Note_off_c, 7, 43, 127
1, 362245, Note_on_c, 6, 66, 127
1, 362245, Note_on_c, 2, 50, 127
1, 362385, Note_off_c, 2, 50, 127
1, 362387, Note_on_c, 2, 62, 127
1, 362387, Note_on_c, 2, 38, 127
1, 362391, Note_off_c, 6, 66, 127
1, 362520, Note_off_c, 2, 62, 127
1, 362527, Note_off_c, 2, 38, 127
1, 362529, Note_on_c, 6, 66, 127
1, 362529, Note_on_c, 2, 50, 127
1, 362662, Note_off_c, 6, 66, 127
1, 362669, Note_off_c, 2, 50, 127
1, 362671, Note_on_c, 7, 67, 127
1, 362671, Note_on_c, 12, 47, 127
1, 362813, Note_on_c, 10, 69, 127
1, 362813, Note_on_c, 10, 45, 127
1, 362815, Note_off_c, 12, 47, 127
1, 362826, Note_off_c, 7, 67, 127
1, 362946, Note_off_c, 10, 69, 127
1, 362953, Note_off_c, 10, 45, 127
1, 362955, Note_on_c, 12, 71, 127
1, 362955, Note_on_c, 7, 43, 127
1, 363088, Note_off_c, 12, 71, 127
1, 363095, Note_off_c, 7, 43, 127
1, 363097, Note_on_c, 10, 69, 127
1, 363097, Note_on_c, 0, 48, 127
1, 363237, Note_off_c, 0, 48, 127
1, 363239, Note_on_c, 12, 71, 127
1, 363239, Note_on_c, 2, 50, 127
1, 363243, Note_off_c, 10, 69, 127
1, 363372, Note_off_c, 12, 71, 127
1, 363379, Note_off_c, 2, 50, 127
1, 363381, Note_on_c, 7, 67, 127
1, 363381, Note_on_c, 4, 52, 127
1, 363514, Note_off_c, 7, 67, 127
1, 363521, Note_off_c, 4, 52, 127
1, 363523, Note_on_c, 6, 66, 127
1, 363523, Note_on_c, 2, 50, 127
1, 363665, Note_on_c, 4, 64, 127
1, 363678, Note_off_c, 6, 66, 127
1, 363798, Note_off_c, 4, 64, 127
1, 363806, Note_off_c, 2, 50, 127
1, 363807, Note_on_c, 6, 66, 127
1, 363807, Note_on_c, 2, 38, 127
1, 363940, Note_off_c, 6, 66, 127
1, 363947, Note_off_c, 2, 38, 127
1, 363949, Note_on_c, 2, 62, 127
1, 363949, Note_on_c, 2, 50, 127
1, 364089, Note_off_c, 2, 50, 127
1, 364091, Note_on_c, 0, 48, 127
1, 364231, Note_off_c, 0, 48, 127
1, 364232, Note_off_c, 2, 62, 127
1, 364233, Note_on_c, 2, 50, 127
1, 364373, Note_off_c, 2, 50, 127
1, 364375, Note_on_c, 7, 67, 127
1, 364375, Note_on_c, 12, 47, 127
1, 364517, Note_on_c, 2, 62, 127
1, 364517, Note_on_c, 7, 43, 127
1, 364519, Note_off_c, 12, 47, 127
1, 364530, Note_off_c, 7, 67, 127
1, 364650, Note_off_c, 2, 62, 127
1, 364657, Note_off_c, 7, 43, 127
1, 364659, Note_on_c, 7, 67, 127
1, 364659, Note_on_c, 12, 47, 127
1, 364792, Note_off_c, 7, 67, 127
1, 364799, Note_off_c, 12, 47, 127
1, 364801, Note_on_c, 6, 66, 127
1, 364801, Note_on_c, 2, 50, 127
1, 364941, Note_off_c, 2, 50, 127
1, 364943, Note_on_c, 2, 62, 127
1, 364943, Note_on_c, 2, 38, 127
1, 364947, Note_off_c, 6, 66, 127
1, 365076, Note_off_c, 2, 62, 127
1, 365083, Note_off_c, 2, 38, 127
1, 365085, Note_on_c, 6, 66, 127
1, 365085, Note_on_c, 2, 50, 127
1, 365218, Note_off_c, 6, 66, 127
1, 365225, Note_off_c, 2, 50, 127
1, 365227, Note_on_c, 7, 67, 127
1, 365227, Note_on_c, 12, 47, 127
1, 365369, Note_on_c, 2, 62, 127
1, 365369, Note_on_c, 7, 43, 127
1, 365371, Note_off_c, 12, 47, 127
1, 365382, Note_off_c, 7, 67, 127
1, 365502, Note_off_c, 2, 62, 127
1, 365509, Note_off_c, 7, 43, 127
1, 365511, Note_on_c, 7, 67, 127
1, 365511, Note_on_c, 12, 47, 127
1, 365644, Note_off_c, 7, 67, 127
1, 365651, Note_off_c, 12, 47, 127
1, 365653, Note_on_c, 6, 66, 127
1, 365653, Note_on_c, 2, 50, 127
1, 365793, Note_off_c, 2, 50, 127
1, 365795, Note_on_c, 2, 62, 127
1, 365795, Note_on_c, 2, 38, 127
1, 365799, Note_off_c, 6, 66, 127
1, 365928, Note_off_c, 2, 62, 127
1, 365935, Note_off_c, 2, 38, 127
1, 365937, Note_on_c, 6, 66, 127
1, 365937, Note_on_c, 2, 50, 127
1, 366070, Note_off_c, 6, 66, 127
1, 366077, Note_off_c, 2, 50, 127
1, 366079, Note_on_c, 7, 67, 127
1, 366079, Note_on_c, 12, 47, 127
1, 366221, Note_on_c, 2, 62, 127
1, 366221, Note_on_c, 7, 43, 127
1, 366223, Note_off_c, 12, 47, 127
1, 366234, Note_off_c, 7, 67, 127
1, 366354, Note_off_c, 2, 62, 127
1, 366361, Note_off_c, 7, 43, 127
1, 366363, Note_on_c, 7, 67, 127
1, 366363, Note_on_c, 12, 47, 127
1, 366496, Note_off_c, 7, 67, 127
1, 366503, Note_off_c, 12, 47, 127
1, 366505, Note_on_c, 6, 66, 127
1, 366505, Note_on_c, 2, 50, 127
1, 366645, Note_off_c, 2, 50, 127
1, 366647, Note_on_c, 2, 62, 127
1, 366647, Note_on_c, 2, 38, 127
1, 366651, Note_off_c, 6, 66, 127
1, 366780, Note_off_c, 2, 62, 127
1, 366787, Note_off_c, 2, 38, 127
1, 366789, Note_on_c, 6, 66, 127
1, 366789, Note_on_c, 2, 50, 127
1, 366922, Note_off_c, 6, 66, 127
1, 366929, Note_off_c, 2, 50, 127
1, 366931, Note_on_c, 7, 67, 127
1, 366931, Note_on_c, 12, 47, 127
1, 367073, Note_on_c, 10, 69, 127
1, 367073, Note_on_c, 10, 45, 127
1, 367075, Note_off_c, 12, 47, 127
1, 367086, Note_off_c, 7, 67, 127
1, 367206, Note_off_c, 10, 69, 127
1, 367213, Note_off_c, 10, 45, 127
1, 367215, Note_on_c, 12, 71, 127
1, 367215, Note_on_c, 7, 43, 127
1, 367348, Note_off_c, 12, 71, 127
1, 367355, Note_off_c, 7, 43, 127
1, 367357, Note_on_c, 10, 69, 127
1, 367357, Note_on_c, 0, 48, 127
1, 367497, Note_off_c, 0, 48, 127
1, 367499, Note_on_c, 12, 71, 127
1, 367499, Note_on_c, 2, 50, 127
1, 367503, Note_off_c, 10, 69, 127
1, 367632, Note_off_c, 12, 71, 127
1, 367639, Note_off_c, 2, 50, 127
1, 367641, Note_on_c, 7, 67, 127
1, 367641, Note_on_c, 4, 52, 127
1, 367774, Note_off_c, 7, 67, 127
1, 367781, Note_off_c, 4, 52, 127
1, 367783, Note_on_c, 6, 66, 127
1, 367783, Note_on_c, 2, 50, 127
1, 367925, Note_on_c, 2, 38, 127
1, 367927, Note_off_c, 2, 50, 127
1, 368065, Note_off_c, 2, 38, 127
1, 368066, Note_off_c, 6, 66, 127
1, 368067, Note_on_c, 6, 42, 127
1, 368207, Note_off_c, 6, 42, 127
1, 368209, Note_on_c, 10, 45, 127
1, 368349, Note_off_c, 10, 45, 127
1, 368351, Note_on_c, 6, 42, 127
1, 368491, Note_off_c, 6, 42, 127
1, 368493, Note_on_c, 10, 45, 127
1, 368633, Note_off_c, 10, 45, 127
1, 368635, Note_on_c, 2, 74, 127
1, 368635, Note_on_c, 2, 50, 127
1, 368777, Note_on_c, 10, 69, 127
1, 368777, Note_on_c, 6, 54, 127
1, 368779, Note_off_c, 2, 50, 127
1, 368790, Note_off_c, 2, 74, 127
1, 368910, Note_off_c, 10, 69, 127
1, 368917, Note_off_c, 6, 54, 127
1, 368919, Note_on_c, 2, 74, 127
1, 368919, Note_on_c, 2, 50, 127
1, 369052, Note_off_c, 2, 74, 127
1, 369059, Note_off_c, 2, 50, 127
1, 369061, Note_on_c, 1, 73, 127
1, 369061, Note_on_c, 10, 57, 127
1, 369201, Note_off_c, 10, 57, 127
1, 369203, Note_on_c, 10, 69, 127
1, 369203, Note_on_c, 10, 45, 127
1, 369207, Note_off_c, 1, 73, 127
1, 369336, Note_off_c, 10, 69, 127
1, 369343, Note_off_c, 10, 45, 127
1, 369345, Note_on_c, 1, 73, 127
1, 369345, Note_on_c, 10, 57, 127
1, 369478, Note_off_c, 1, 73, 127
1, 369485, Note_off_c, 10, 57, 127
1, 369487, Note_on_c, 2, 74, 127
1, 369487, Note_on_c, 2, 50, 127
1, 369629, Note_on_c, 10, 69, 127
1, 369629, Note_on_c, 6, 54, 127
1, 369631, Note_off_c, 2, 50, 127
1, 369642, Note_off_c, 2, 74, 127
1, 369762, Note_off_c, 10, 69, 127
1, 369769, Note_off_c, 6, 54, 127
1, 369771, Note_on_c, 2, 74, 127
1, 369771, Note_on_c, 2, 50, 127
1, 369904, Note_off_c, 2, 74, 127
1, 369911, Note_off_c, 2, 50, 127
1, 369913, Note_on_c, 1, 73, 127
1, 369913, Note_on_c, 10, 57, 127
1, 370053, Note_off_c, 10, 57, 127
1, 370055, Note_on_c, 10, 69, 127
1, 370055, Note_on_c, 10, 45, 127
1, 370059, Note_off_c, 1, 73, 127
1, 370188, Note_off_c, 10, 69, 127
1, 370195, Note_off_c, 10, 45, 127
1, 370197, Note_on_c, 1, 73, 127
1, 370197, Note_on_c, 10, 57, 127
1, 370330, Note_off_c, 1, 73, 127
1, 370337, Note_off_c, 10, 57, 127
1, 370339, Note_on_c, 2, 74, 127
1, 370339, Note_on_c, 2, 50, 127
1, 370481, Note_on_c, 10, 69, 127
1, 370481, Note_on_c, 6, 54, 127
1, 370483, Note_off_c, 2, 50, 127
1, 370494, Note_off_c, 2, 74, 127
1, 370614, Note_off_c, 10, 69, 127
1, 370621, Note_off_c, 6, 54, 127
1, 370623, Note_on_c, 2, 74, 127
1, 370623, Note_on_c, 2, 50, 127
1, 370756, Note_off_c, 2, 74, 127
1, 370763, Note_off_c, 2, 50, 127
1, 370765, Note_on_c, 1, 73, 127
1, 370765, Note_on_c, 10, 57, 127
1, 370905, Note_off_c, 10, 57, 127
1, 370907, Note_on_c, 10, 69, 127
1, 370907, Note_on_c, 10, 45, 127
1, 370911, Note_off_c, 1, 73, 127
1, 371040, Note_off_c, 10, 69, 127
1, 371047, Note_off_c, 10, 45, 127
1, 371049, Note_on_c, 1, 73, 127
1, 371049, Note_on_c, 10, 57, 127
1, 371182, Note_off_c, 1, 73, 127
1, 371189, Note_off_c, 10, 57, 127
1, 371191, Note_on_c, 2, 74, 127
1, 371191, Note_on_c, 6, 54, 127
1, 371333, Note_on_c, 4, 76, 127
1, 371333, Note_on_c, 4, 52, 127
1, 371335, Note_off_c, 6, 54, 127
1, 371346, Note_off_c, 2, 74, 127
1, 371466, Note_off_c, 4, 76, 127
1, 371473, Note_off_c, 4, 52, 127
1, 371475, Note_on_c, 6, 78, 127
1, 371475, Note_on_c, 2, 50, 127
1, 371608, Note_off_c, 6, 78, 127
1, 371615, Note_off_c, 2, 50, 127
1, 371617, Note_on_c, 4, 76, 127
1, 371617, Note_on_c, 7, 55, 127
1, 371757, Note_off_c, 7, 55, 127
1, 371759, Note_on_c, 6, 78, 127
1, 371759, Note_on_c, 10, 57, 127
1, 371763, Note_off_c, 4, 76, 127
1, 371892, Note_off_c, 6, 78, 127
1, 371899, Note_off_c, 10, 57, 127
1, 371901, Note_on_c, 2, 74, 127
1, 371901, Note_on_c, 12, 59, 127
1, 372034, Note_off_c, 2, 74, 127
1, 372041, Note_off_c, 12, 59, 127
1, 372043, Note_on_c, 1, 73, 127
1, 372043, Note_on_c, 10, 57, 127
1, 372185, Note_on_c, 12, 71, 127
1, 372198, Note_off_c, 1, 73, 127
1, 372318, Note_off_c, 12, 71, 127
1, 372326, Note_off_c, 10, 57, 127
1, 372327, Note_on_c, 1, 73, 127
1, 372327, Note_on_c, 10, 45, 127
1, 372460, Note_off_c, 1, 73, 127
1, 372467, Note_off_c, 10, 45, 127
1, 372469, Note_on_c, 10, 69, 127
1, 372469, Note_on_c, 10, 57, 127
1, 372609, Note_off_c, 10, 57, 127
1, 372611, Note_on_c, 7, 55, 127
1, 372751, Note_off_c, 7, 55, 127
1, 372752, Note_off_c, 10, 69, 127
1, 372753, Note_on_c, 10, 57, 127
1, 372893, Note_off_c, 10, 57, 127
1, 372895, Note_on_c, 2, 74, 127
1, 372895, Note_on_c, 6, 54, 127
1, 373037, Note_on_c, 10, 69, 127
1, 373037, Note_on_c, 2, 50, 127
1, 373039, Note_off_c, 6, 54, 127
1, 373050, Note_off_c, 2, 74, 127
1, 373170, Note_off_c, 10, 69, 127
1, 373177, Note_off_c, 2, 50, 127
1, 373179, Note_on_c, 2, 74, 127
1, 373179, Note_on_c, 6, 54, 127
1, 373312, Note_off_c, 2, 74, 127
1, 373319, Note_off_c, 6, 54, 127
1, 373321, Note_on_c, 1, 73, 127
1, 373321, Note_on_c, 10, 57, 127
1, 373461, Note_off_c, 10, 57, 127
1, 373463, Note_on_c, 10, 69, 127
1, 373463, Note_on_c, 10, 45, 127
1, 373467, Note_off_c, 1, 73, 127
1, 373596, Note_off_c, 10, 69, 127
1, 373603, Note_off_c, 10, 45, 127
1, 373605, Note_on_c, 1, 73, 127
1, 373605, Note_on_c, 10, 57, 127
1, 373738, Note_off_c, 1, 73, 127
1, 373745, Note_off_c, 10, 57, 127
1, 373747, Note_on_c, 2, 74, 127
1, 373747, Note_on_c, 6, 54, 127
1, 373889, Note_on_c, 10, 69, 127
1, 373889, Note_on_c, 2, 50, 127
1, 373891, Note_off_c, 6, 54, 127
1, 373902, Note_off_c, 2, 74, 127
1, 374022, Note_off_c, 10, 69, 127
1, 374029, Note_off_c, 2, 50, 127
1, 374031, Note_on_c, 2, 74, 127
1, 374031, Note_on_c, 6, 54, 127
1, 374164, Note_off_c, 2, 74, 127
1, 374171, Note_off_c, 6, 54, 127
1, 374173, Note_on_c, 1, 73, 127
1, 374173, Note_on_c, 10, 57, 127
1, 374313, Note_off_c, 10, 57, 127
1, 374315, Note_on_c, 10, 69, 127
1, 374315, Note_on_c, 10, 45, 127
1, 374319, Note_off_c, 1, 73, 127
1, 374448, Note_off_c, 10, 69, 127
1, 374455, Note_off_c, 10, 45, 127
1, 374457, Note_on_c, 1, 73, 127
1, 374457, Note_on_c, 10, 57, 127
1, 374590, Note_off_c, 1, 73, 127
1, 374597, Note_off_c, 10, 57, 127
1, 374599, Note_on_c, 2, 74, 127
1, 374599, Note_on_c, 6, 54, 127
1, 374741, Note_on_c, 10, 69, 127
1, 374741, Note_on_c, 2, 50, 127
1, 374743, Note_off_c, 6, 54, 127
1, 374754, Note_off_c, 2, 74, 127
1, 374874, Note_off_c, 10, 69, 127
1, 374881, Note_off_c, 2, 50, 127
1, 374883, Note_on_c, 2, 74, 127
1, 374883, Note_on_c, 6, 54, 127
1, 375016, Note_off_c, 2, 74, 127
1, 375023, Note_off_c, 6, 54, 127
1, 375025, Note_on_c, 1, 73, 127
1, 375025, Note_on_c, 10, 57, 127
1, 375165, Note_off_c, 10, 57, 127
1, 375167, Note_on_c, 10, 69, 127
1, 375167, Note_on_c, 10, 45, 127
1, 375171, Note_off_c, 1, 73, 127
1, 375300, Note_off_c, 10, 69, 127
1, 375307, Note_off_c, 10, 45, 127
1, 375309, Note_on_c, 1, 73, 127
1, 375309, Note_on_c, 10, 57, 127
1, 375442, Note_off_c, 1, 73, 127
1, 375449, Note_off_c, 10, 57, 127
1, 375451, Note_on_c, 2, 74, 127
1, 375451, Note_on_c, 6, 54, 127
1, 375593, Note_on_c, 4, 76, 127
1, 375593, Note_on_c, 4, 52, 127
1, 375595, Note_off_c, 6, 54, 127
1, 375606, Note_off_c, 2, 74, 127
1, 375726, Note_off_c, 4, 76, 127
1, 375733, Note_off_c, 4, 52, 127
1, 375735, Note_on_c, 6, 78, 127
1, 375735, Note_on_c, 2, 50, 127
1, 375868, Note_off_c, 6, 78, 127
1, 375875, Note_off_c, 2, 50, 127
1, 375877, Note_on_c, 4, 76, 127
1, 375877, Note_on_c, 7, 55, 127
1, 376017, Note_off_c, 7, 55, 127
1, 376019, Note_on_c, 6, 78, 127
1, 376019, Note_on_c, 10, 57, 127
1, 376023, Note_off_c, 4, 76, 127
1, 376152, Note_off_c, 6, 78, 127
1, 376159, Note_off_c, 10, 57, 127
1, 376161, Note_on_c, 2, 74, 127
1, 376161, Note_on_c, 12, 59, 127
1, 376294, Note_off_c, 2, 74, 127
1, 376301, Note_off_c, 12, 59, 127
1, 376303, Note_on_c, 1, 73, 127
1, 376303, Note_on_c, 10, 57, 127
1, 376445, Note_on_c, 10, 45, 127
1, 376447, Note_off_c, 10, 57, 127
1, 376585, Note_off_c, 10, 45, 127
1, 376586, Note_off_c, 1, 73, 127
1, 376587, Note_on_c, 1, 49, 127
1, 376727, Note_off_c, 1, 49, 127
1, 376729, Note_on_c, 4, 52, 127
1, 376869, Note_off_c, 4, 52, 127
1, 376871, Note_on_c, 1, 49, 127
1, 377011, Note_off_c, 1, 49, 127
1, 377013, Note_on_c, 4, 52, 127
1, 377153, Note_off_c, 4, 52, 127
1, 377155, Note_on_c, 2, 74, 127
1, 377155, Note_on_c, 6, 54, 127
1, 377297, Note_on_c, 6, 66, 127
1, 377297, Note_on_c, 10, 57, 127
1, 377299, Note_off_c, 6, 54, 127
1, 377310, Note_off_c, 2, 74, 127
1, 377430, Note_off_c, 6, 66, 127
1, 377437, Note_off_c, 10, 57, 127
1, 377439, Note_on_c, 7, 67, 127
1, 377439, Note_on_c, 7, 55, 127
1, 377572, Note_off_c, 7, 67, 127
1, 377579, Note_off_c, 7, 55, 127
1, 377581, Note_on_c, 10, 69, 127
1, 377581, Note_on_c, 6, 54, 127
1, 377721, Note_off_c, 6, 54, 127
1, 377723, Note_on_c, 12, 71, 127
1, 377723, Note_on_c, 4, 52, 127
1, 377727, Note_off_c, 10, 69, 127
1, 377856, Note_off_c, 12, 71, 127
1, 377863, Note_off_c, 4, 52, 127
1, 377865, Note_on_c, 0, 72, 127
1, 377865, Note_on_c, 2, 50, 127
1, 377998, Note_off_c, 0, 72, 127
1, 378005, Note_off_c, 2, 50, 127
1, 378007, Note_on_c, 12, 71, 127
1, 378007, Note_on_c, 7, 55, 127
1, 378149, Note_on_c, 7, 67, 127
1, 378162, Note_off_c, 12, 71, 127
1, 378282, Note_off_c, 7, 67, 127
1, 378291, Note_on_c, 10, 69, 127
1, 378424, Note_off_c, 10, 69, 127
1, 378428, Note_off_c, 7, 55, 127
1, 378432, Note_on_c, 12, 71, 127
1, 378574, Note_on_c, 1, 73, 127
1, 378578, Note_off_c, 12, 71, 127
1, 378707, Note_off_c, 1, 73, 127
1, 378716, Note_on_c, 2, 74, 127
1, 378849, Note_off_c, 2, 74, 127
1, 378858, Note_on_c, 4, 76, 127
1, 378858, Note_on_c, 8, 56, 127
1, 379000, Note_on_c, 8, 68, 127
1, 379000, Note_on_c, 12, 59, 127
1, 379002, Note_off_c, 8, 56, 127
1, 379013, Note_off_c, 4, 76, 127
1, 379133, Note_off_c, 8, 68, 127
1, 379140, Note_off_c, 12, 59, 127
1, 379142, Note_on_c, 10, 69, 127
1, 379142, Note_on_c, 10, 57, 127
1, 379275, Note_off_c, 10, 69, 127
1, 379282, Note_off_c, 10, 57, 127
1, 379284, Note_on_c, 12, 71, 127
1, 379284, Note_on_c, 8, 56, 127
1, 379424, Note_off_c, 8, 56, 127
1, 379426, Note_on_c, 1, 73, 127
1, 379426, Note_on_c, 6, 54, 127
1, 379430, Note_off_c, 12, 71, 127
1, 379559, Note_off_c, 1, 73, 127
1, 379566, Note_off_c, 6, 54, 127
1, 379568, Note_on_c, 2, 74, 127
1, 379568, Note_on_c, 4, 52, 127
1, 379701, Note_off_c, 2, 74, 127
1, 379708, Note_off_c, 4, 52, 127
1, 379710, Note_on_c, 1, 73, 127
1, 379710, Note_on_c, 10, 57, 127
1, 379852, Note_on_c, 10, 69, 127
1, 379865, Note_off_c, 1, 73, 127
1, 379985, Note_off_c, 10, 69, 127
1, 379994, Note_on_c, 12, 71, 127
1, 380127, Note_off_c, 12, 71, 127
1, 380131, Note_off_c, 10, 57, 127
1, 380135, Note_on_c, 1, 73, 127
1, 380277, Note_on_c, 2, 74, 127
1, 380281, Note_off_c, 1, 73, 127
1, 380410, Note_off_c, 2, 74, 127
1, 380419, Note_on_c, 4, 76, 127
1, 380552, Note_off_c, 4, 76, 127
1, 380561, Note_on_c, 6, 78, 127
1, 380561, Note_on_c, 11, 58, 127
1, 380703, Note_on_c, 11, 70, 127
1, 380703, Note_on_c, 1, 61, 127
1, 380705, Note_off_c, 11, 58, 127
1, 380716, Note_off_c, 6, 78, 127
1, 380836, Note_off_c, 11, 70, 127
1, 380843, Note_off_c, 1, 61, 127
1, 380845, Note_on_c, 12, 71, 127
1, 380845, Note_on_c, 12, 59, 127
1, 380978, Note_off_c, 12, 71, 127
1, 380985, Note_off_c, 12, 59, 127
1, 380987, Note_on_c, 1, 73, 127
1, 380987, Note_on_c, 11, 58, 127
1, 381127, Note_off_c, 11, 58, 127
1, 381129, Note_on_c, 2, 74, 127
1, 381129, Note_on_c, 8, 56, 127
1, 381133, Note_off_c, 1, 73, 127
1, 381262, Note_off_c, 2, 74, 127
1, 381269, Note_off_c, 8, 56, 127
1, 381271, Note_on_c, 4, 76, 127
1, 381271, Note_on_c, 6, 54, 127
1, 381404, Note_off_c, 4, 76, 127
1, 381411, Note_off_c, 6, 54, 127
1, 381413, Note_on_c, 2, 74, 127
1, 381413, Note_on_c, 12, 59, 127
1, 381555, Note_on_c, 12, 71, 127
1, 381568, Note_off_c, 2, 74, 127
1, 381688, Note_off_c, 12, 71, 127
1, 381697, Note_on_c, 1, 73, 127
1, 381830, Note_off_c, 1, 73, 127
1, 381834, Note_off_c, 12, 59, 127
1, 381838, Note_on_c, 2, 74, 127
1, 381980, Note_on_c, 4, 76, 127
1, 381984, Note_off_c, 2, 74, 127
1, 382113, Note_off_c, 4, 76, 127
1, 382122, Note_on_c, 6, 78, 127
1, 382255, Note_off_c, 6, 78, 127
1, 382264, Note_on_c, 7, 79, 127
1, 382264, Note_on_c, 12, 59, 127
1, 382406, Note_on_c, 12, 71, 127
1, 382406, Note_on_c, 2, 62, 127
1, 382408, Note_off_c, 12, 59, 127
1, 382419, Note_off_c, 7, 79, 127
1, 382539, Note_off_c, 12, 71, 127
1, 382546, Note_off_c, 2, 62, 127
1, 382548, Note_on_c, 1, 73, 127
1, 382548, Note_on_c, 1, 61, 127
1, 382681, Note_off_c, 1, 73, 127
1, 382688, Note_off_c, 1, 61, 127
1, 382690, Note_on_c, 2, 74, 127
1, 382690, Note_on_c, 12, 59, 127
1, 382830, Note_off_c, 12, 59, 127
1, 382832, Note_on_c, 4, 76, 127
1, 382832, Note_on_c, 10, 57, 127
1, 382836, Note_off_c, 2, 74, 127
1, 382965, Note_off_c, 4, 76, 127
1, 382972, Note_off_c, 10, 57, 127
1, 382974, Note_on_c, 6, 78, 127
1, 382974, Note_on_c, 7, 55, 127
1, 383107, Note_off_c, 6, 78, 127
1, 383114, Note_off_c, 7, 55, 127
1, 383116, Note_on_c, 1, 73, 127
1, 383116, Note_on_c, 10, 57, 127
1, 383258, Note_on_c, 10, 69, 127
1, 383258, Note_on_c, 1, 61, 127
1, 383260, Note_off_c, 10, 57, 127
1, 383271, Note_off_c, 1, 73, 127
1, 383391, Note_off_c, 10, 69, 127
1, 383398, Note_off_c, 1, 61, 127
1, 383400, Note_on_c, 1, 73, 127
1, 383400, Note_on_c, 4, 64, 127
1, 383533, Note_off_c, 1, 73, 127
1, 383540, Note_off_c, 4, 64, 127
1, 383542, Note_on_c, 2, 74, 127
1, 383542, Note_on_c, 10, 57, 127
1, 383682, Note_off_c, 10, 57, 127
1, 383684, Note_on_c, 10, 69, 127
1, 383684, Note_on_c, 2, 62, 127
1, 383688, Note_off_c, 2, 74, 127
1, 383817, Note_off_c, 10, 69, 127
1, 383824, Note_off_c, 2, 62, 127
1, 383826, Note_on_c, 2, 74, 127
1, 383826, Note_on_c, 6, 66, 127
1, 383959, Note_off_c, 2, 74, 127
1, 383966, Note_off_c, 6, 66, 127
1, 383968, Note_on_c, 4, 76, 127
1, 383968, Note_on_c, 1, 61, 127
1, 384110, Note_on_c, 10, 69, 127
1, 384110, Note_on_c, 10, 57, 127
1, 384112, Note_off_c, 1, 61, 127
1, 384123, Note_off_c, 4, 76, 127
1, 384243, Note_off_c, 10, 69, 127
1, 384250, Note_off_c, 10, 57, 127
1, 384252, Note_on_c, 4, 76, 127
1, 384252, Note_on_c, 1, 61, 127
1, 384385, Note_off_c, 4, 76, 127
1, 384392, Note_off_c, 1, 61, 127
1, 384394, Note_on_c, 6, 78, 127
1, 384394, Note_on_c, 2, 62, 127
1, 384534, Note_off_c, 2, 62, 127
1, 384536, Note_on_c, 10, 69, 127
1, 384536, Note_on_c, 10, 57, 127
1, 384540, Note_off_c, 6, 78, 127
1, 384669, Note_off_c, 10, 69, 127
1, 384676, Note_off_c, 10, 57, 127
1, 384678, Note_on_c, 6, 78, 127
1, 384678, Note_on_c, 2, 62, 127
1, 384811, Note_off_c, 6, 78, 127
1, 384818, Note_off_c, 2, 62, 127
1, 384820, Note_on_c, 7, 79, 127
1, 384820, Note_on_c, 4, 64, 127
1, 384962, Note_on_c, 10, 69, 127
1, 384962, Note_on_c, 10, 57, 127
1, 384964, Note_off_c, 4, 64, 127
1, 384975, Note_off_c, 7, 79, 127
1, 385095, Note_off_c, 10, 69, 127
1, 385102, Note_off_c, 10, 57, 127
1, 385104, Note_on_c, 7, 79, 127
1, 385104, Note_on_c, 4, 64, 127
1, 385237, Note_off_c, 7, 79, 127
1, 385244, Note_off_c, 4, 64, 127
1, 385246, Note_on_c, 6, 78, 127
1, 385246, Note_on_c, 2, 62, 127
1, 385386, Note_off_c, 2, 62, 127
1, 385388, Note_on_c, 10, 69, 127
1, 385388, Note_on_c, 10, 57, 127
1, 385392, Note_off_c, 6, 78, 127
1, 385521, Note_off_c, 10, 69, 127
1, 385528, Note_off_c, 10, 57, 127
1, 385530, Note_on_c, 6, 78, 127
1, 385530, Note_on_c, 2, 62, 127
1, 385663, Note_off_c, 6, 78, 127
1, 385670, Note_off_c, 2, 62, 127
1, 385672, Note_on_c, 4, 76, 127
1, 385672, Note_on_c, 7, 67, 127
1, 385814, Note_on_c, 10, 69, 127
1, 385814, Note_on_c, 10, 57, 127
1, 385816, Note_off_c, 7, 67, 127
1, 385827, Note_off_c, 4, 76, 127
1, 385947, Note_off_c, 10, 69, 127
1, 385954, Note_off_c, 10, 57, 127
1, 385956, Note_on_c, 4, 76, 127
1, 385956, Note_on_c, 7, 67, 127
1, 386089, Note_off_c, 4, 76, 127
1, 386096, Note_off_c, 7, 67, 127
1, 386098, Note_on_c, 2, 74, 127
1, 386098, Note_on_c, 6, 66, 127
1, 386238, Note_off_c, 6, 66, 127
1, 386240, Note_on_c, 10, 69, 127
1, 386240, Note_on_c, 10, 57, 127
1, 386244, Note_off_c, 2, 74, 127
1, 386373, Note_off_c, 10, 69, 127
1, 386380, Note_off_c, 10, 57, 127
1, 386382, Note_on_c, 2, 74, 127
1, 386382, Note_on_c, 6, 66, 127
1, 386515, Note_off_c, 2, 74, 127
1, 386522, Note_off_c, 6, 66, 127
1, 386524, Note_on_c, 1, 73, 127
1, 386524, Note_on_c, 4, 64, 127
1, 386666, Note_on_c, 10, 69, 127
1, 386666, Note_on_c, 10, 57, 127
1, 386668, Note_off_c, 4, 64, 127
1, 386679, Note_off_c, 1, 73, 127
1, 386799, Note_off_c, 10, 69, 127
1, 386806, Note_off_c, 10, 57, 127
1, 386808, Note_on_c, 1, 73, 127
1, 386808, Note_on_c, 7, 55, 127
1, 386941, Note_off_c, 1, 73, 127
1, 386948, Note_off_c, 7, 55, 127
1, 386950, Note_on_c, 2, 74, 127
1, 386950, Note_on_c, 6, 54, 127
1, 387090, Note_off_c, 6, 54, 127
1, 387092, Note_on_c, 6, 66, 127
1, 387092, Note_on_c, 2, 50, 127
1, 387096, Note_off_c, 2, 74, 127
1, 387225, Note_off_c, 6, 66, 127
1, 387232, Note_off_c, 2, 50, 127
1, 387234, Note_on_c, 2, 74, 127
1, 387234, Note_on_c, 6, 54, 127
1, 387367, Note_off_c, 2, 74, 127
1, 387374, Note_off_c, 6, 54, 127
1, 387376, Note_on_c, 2, 74, 127
1, 387376, Note_on_c, 7, 55, 127
1, 387518, Note_on_c, 7, 67, 127
1, 387518, Note_on_c, 4, 52, 127
1, 387520, Note_off_c, 7, 55, 127
1, 387531, Note_off_c, 2, 74, 127
1, 387651, Note_off_c, 7, 67, 127
1, 387658, Note_off_c, 4, 52, 127
1, 387660, Note_on_c, 2, 74, 127
1, 387660, Note_on_c, 7, 55, 127
1, 387793, Note_off_c, 2, 74, 127
1, 387800, Note_off_c, 7, 55, 127
1, 387802, Note_on_c, 1, 73, 127
1, 387802, Note_on_c, 10, 57, 127
1, 387942, Note_off_c, 10, 57, 127
1, 387944, Note_on_c, 10, 69, 127
1, 387944, Note_on_c, 7, 55, 127
1, 387948, Note_off_c, 1, 73, 127
1, 388077, Note_off_c, 10, 69, 127
1, 388084, Note_off_c, 7, 55, 127
1, 388086, Note_on_c, 1, 73, 127
1, 388086, Note_on_c, 10, 57, 127
1, 388219, Note_off_c, 1, 73, 127
1, 388226, Note_off_c, 10, 57, 127
1, 388228, Note_on_c, 2, 74, 127
1, 388228, Note_on_c, 2, 50, 127
1, 388370, Note_on_c, 6, 54, 127
1, 388372, Note_off_c, 2, 50, 127
1, 388510, Note_off_c, 6, 54, 127
1, 388511, Note_off_c, 2, 74, 127
1, 388512, Note_on_c, 10, 57, 127
1, 388652, Note_off_c, 10, 57, 127
1, 388654, Note_on_c, 2, 62, 127
1, 388794, Note_off_c, 2, 62, 127
1, 388796, Note_on_c, 10, 57, 127
1, 388936, Note_off_c, 10, 57, 127
1, 388938, Note_on_c, 2, 74, 127
1, 388938, Note_on_c, 2, 62, 127
1, 389071, Note_off_c, 2, 74, 127
1, 389078, Note_off_c, 2, 62, 127
1, 389080, Note_on_c, 2, 74, 127
1, 389080, Note_on_c, 6, 54, 127
1, 389222, Note_on_c, 10, 69, 127
1, 389222, Note_on_c, 10, 57, 127
1, 389224, Note_off_c, 6, 54, 127
1, 389235, Note_off_c, 2, 74, 127
1, 389355, Note_off_c, 10, 69, 127
1, 389362, Note_off_c, 10, 57, 127
1, 389364, Note_on_c, 2, 74, 127
1, 389364, Note_on_c, 6, 54, 127
1, 389497, Note_off_c, 2, 74, 127
1, 389504, Note_off_c, 6, 54, 127
1, 389506, Note_on_c, 2, 74, 127
1, 389506, Note_on_c, 2, 50, 127
1, 389646, Note_off_c, 2, 50, 127
1, 389648, Note_on_c, 10, 69, 127
1, 389648, Note_on_c, 6, 54, 127
1, 389652, Note_off_c, 2, 74, 127
1, 389781, Note_off_c, 10, 69, 127
1, 389788, Note_off_c, 6, 54, 127
1, 389790, Note_on_c, 2, 74, 127
1, 389790, Note_on_c, 2, 50, 127
1, 389923, Note_off_c, 2, 74, 127
1, 389930, Note_off_c, 2, 50, 127
1, 389932, Note_on_c, 12, 71, 127
1, 389932, Note_on_c, 7, 43, 127
1, 390074, Note_on_c, 7, 67, 127
1, 390074, Note_on_c, 12, 47, 127
1, 390076, Note_off_c, 7, 43, 127
1, 390087, Note_off_c, 12, 71, 127
1, 390207, Note_off_c, 7, 67, 127
1, 390214, Note_off_c, 12, 47, 127
1, 390216, Note_on_c, 12, 71, 127
1, 390216, Note_on_c, 2, 50, 127
1, 390349, Note_off_c, 12, 71, 127
1, 390356, Note_off_c, 2, 50, 127
1, 390358, Note_on_c, 12, 71, 127
1, 390358, Note_on_c, 7, 55, 127
1, 390498, Note_off_c, 7, 55, 127
1, 390500, Note_on_c, 7, 67, 127
1, 390500, Note_on_c, 2, 50, 127
1, 390504, Note_off_c, 12, 71, 127
1, 390633, Note_off_c, 7, 67, 127
1, 390640, Note_off_c, 2, 50, 127
1, 390642, Note_on_c, 12, 71, 127
1, 390642, Note_on_c, 7, 55, 127
1, 390775, Note_off_c, 12, 71, 127
1, 390782, Note_off_c, 7, 55, 127
1, 390784, Note_on_c, 4, 76, 127
1, 390784, Note_on_c, 8, 56, 127
1, 390926, Note_on_c, 12, 71, 127
1, 390926, Note_on_c, 12, 59, 127
1, 390928, Note_off_c, 8, 56, 127
1, 390939, Note_off_c, 4, 76, 127
1, 391059, Note_off_c, 12, 71, 127
1, 391066, Note_off_c, 12, 59, 127
1, 391068, Note_on_c, 4, 76, 127
1, 391068, Note_on_c, 8, 56, 127
1, 391201, Note_off_c, 4, 76, 127
1, 391208, Note_off_c, 8, 56, 127
1, 391210, Note_on_c, 4, 76, 127
1, 391210, Note_on_c, 4, 52, 127
1, 391350, Note_off_c, 4, 52, 127
1, 391352, Note_on_c, 12, 71, 127
1, 391352, Note_on_c, 8, 56, 127
1, 391356, Note_off_c, 4, 76, 127
1, 391485, Note_off_c, 12, 71, 127
1, 391492, Note_off_c, 8, 56, 127
1, 391494, Note_on_c, 4, 76, 127
1, 391494, Note_on_c, 4, 52, 127
1, 391627, Note_off_c, 4, 76, 127
1, 391634, Note_off_c, 4, 52, 127
1, 391636, Note_on_c, 1, 73, 127
1, 391636, Note_on_c, 10, 45, 127
1, 391778, Note_on_c, 10, 69, 127
1, 391778, Note_on_c, 1, 49, 127
1, 391780, Note_off_c, 10, 45, 127
1, 391791, Note_off_c, 1, 73, 127
1, 391911, Note_off_c, 10, 69, 127
1, 391918, Note_off_c, 1, 49, 127
1, 391920, Note_on_c, 1, 73, 127
1, 391920, Note_on_c, 4, 52, 127
1, 392053, Note_off_c, 1, 73, 127
1, 392060, Note_off_c, 4, 52, 127
1, 392062, Note_on_c, 2, 74, 127
1, 392062, Note_on_c, 6, 54, 127
1, 392202, Note_off_c, 6, 54, 127
1, 392204, Note_on_c, 6, 66, 127
1, 392204, Note_on_c, 2, 50, 127
1, 392208, Note_off_c, 2, 74, 127
1, 392337, Note_off_c, 6, 66, 127
1, 392344, Note_off_c, 2, 50, 127
1, 392346, Note_on_c, 2, 74, 127
1, 392346, Note_on_c, 6, 54, 127
1, 392479, Note_off_c, 2, 74, 127
1, 392486, Note_off_c, 6, 54, 127
1, 392488, Note_on_c, 2, 74, 127
1, 392488, Note_on_c, 7, 55, 127
1, 392630, Note_on_c, 7, 67, 127
1, 392630, Note_on_c, 4, 52, 127
1, 392632, Note_off_c, 7, 55, 127
1, 392643, Note_off_c, 2, 74, 127
1, 392763, Note_off_c, 7, 67, 127
1, 392770, Note_off_c, 4, 52, 127
1, 392772, Note_on_c, 2, 74, 127
1, 392772, Note_on_c, 7, 55, 127
1, 392905, Note_off_c, 2, 74, 127
1, 392912, Note_off_c, 7, 55, 127
1, 392914, Note_on_c, 1, 73, 127
1, 392914, Note_on_c, 10, 57, 127
1, 393054, Note_off_c, 10, 57, 127
1, 393056, Note_on_c, 10, 69, 127
1, 393056, Note_on_c, 7, 55, 127
1, 393060, Note_off_c, 1, 73, 127
1, 393189, Note_off_c, 10, 69, 127
1, 393196, Note_off_c, 7, 55, 127
1, 393198, Note_on_c, 1, 73, 127
1, 393198, Note_on_c, 10, 57, 127
1, 393331, Note_off_c, 1, 73, 127
1, 393338, Note_off_c, 10, 57, 127
1, 393340, Note_on_c, 2, 74, 127
1, 393340, Note_on_c, 2, 50, 127
1, 393482, Note_on_c, 2, 62, 127
1, 393484, Note_off_c, 2, 50, 127
1, 393622, Note_off_c, 2, 62, 127
1, 393623, Note_off_c, 2, 74, 127
1, 393624, Note_on_c, 1, 61, 127
1, 393764, Note_off_c, 1, 61, 127
1, 393766, Note_on_c, 12, 59, 127
1, 393906, Note_off_c, 12, 59, 127
1, 393908, Note_on_c, 4, 76, 127
1, 393908, Note_on_c, 10, 57, 127
1, 394041, Note_off_c, 4, 76, 127
1, 394048, Note_off_c, 10, 57, 127
1, 394050, Note_on_c, 1, 73, 127
1, 394050, Note_on_c, 7, 55, 127
1, 394183, Note_off_c, 1, 73, 127
1, 394190, Note_off_c, 7, 55, 127
1, 394192, Note_on_c, 2, 74, 127
1, 394192, Note_on_c, 6, 54, 127
1, 394334, Note_on_c, 12, 59, 127
1, 394336, Note_off_c, 6, 54, 127
1, 394474, Note_off_c, 12, 59, 127
1, 394476, Note_on_c, 10, 57, 127
1, 394614, Note_off_c, 2, 74, 127
1, 394616, Note_off_c, 10, 57, 127
1, 394618, Note_on_c, 7, 55, 127
1, 394758, Note_off_c, 7, 55, 127
1, 394760, Note_on_c, 4, 76, 127
1, 394760, Note_on_c, 6, 54, 127
1, 394893, Note_off_c, 4, 76, 127
1, 394900, Note_off_c, 6, 54, 127
1, 394902, Note_on_c, 1, 73, 127
1, 394902, Note_on_c, 4, 52, 127
1, 395035, Note_off_c, 1, 73, 127
1, 395042, Note_off_c, 4, 52, 127
1, 395044, Note_on_c, 2, 74, 127
1, 395044, Note_on_c, 2, 50, 127
1, 395186, Note_on_c, 6, 78, 127
1, 395186, Note_on_c, 2, 38, 127
1, 395188, Note_off_c, 2, 50, 127
1, 395199, Note_off_c, 2, 74, 127
1, 395319, Note_off_c, 6, 78, 127
1, 395326, Note_off_c, 2, 38, 127
1, 395328, Note_on_c, 2, 74, 127
1, 395328, Note_on_c, 6, 42, 127
1, 395461, Note_off_c, 2, 74, 127
1, 395468, Note_off_c, 6, 42, 127
1, 395470, Note_on_c, 10, 69, 127
1, 395470, Note_on_c, 10, 45, 127
1, 395610, Note_off_c, 10, 45, 127
1, 395612, Note_on_c, 2, 74, 127
1, 395612, Note_on_c, 6, 42, 127
1, 395616, Note_off_c, 10, 69, 127
1, 395745, Note_off_c, 2, 74, 127
1, 395752, Note_off_c, 6, 42, 127
1, 395754, Note_on_c, 10, 69, 127
1, 395754, Note_on_c, 10, 45, 127
1, 395887, Note_off_c, 10, 69, 127
1, 395894, Note_off_c, 10, 45, 127
1, 395896, Note_on_c, 6, 66, 127
1, 395896, Note_on_c, 2, 50, 127
1, 396036, Note_off_c, 2, 50, 127
1, 396038, Note_on_c, 2, 74, 127
1, 396038, Note_on_c, 2, 50, 127
1, 396051, Note_off_c, 6, 66, 127
1, 396171, Note_off_c, 2, 74, 127
1, 396178, Note_off_c, 2, 50, 127
1, 396180, Note_on_c, 10, 69, 127
1, 396180, Note_on_c, 6, 54, 127
1, 396313, Note_off_c, 10, 69, 127
1, 396320, Note_off_c, 6, 54, 127
1, 396322, Note_on_c, 6, 66, 127
1, 396322, Note_on_c, 10, 57, 127
1, 396462, Note_off_c, 10, 57, 127
1, 396464, Note_on_c, 10, 69, 127
1, 396464, Note_on_c, 6, 54, 127
1, 396468, Note_off_c, 6, 66, 127
1, 396597, Note_off_c, 10, 69, 127
1, 396604, Note_off_c, 6, 54, 127
1, 396606, Note_on_c, 6, 66, 127
1, 396606, Note_on_c, 10, 57, 127
1, 396739, Note_off_c, 6, 66, 127
1, 396746, Note_off_c, 10, 57, 127
1, 396748, Note_on_c, 2, 62, 127
1, 397504, Note_off_c, 2, 62, 127
1, 397602, Note_on_c, 2, 74, 127
1, 397602, Note_on_c, 2, 50, 127
1, 397744, Note_on_c, 10, 69, 127
1, 397744, Note_on_c, 6, 54, 127
1, 397746, Note_off_c, 2, 50, 127
1, 397757, Note_off_c, 2, 74, 127
1, 397877, Note_off_c, 10, 69, 127
1, 397884, Note_off_c, 6, 54, 127
1, 397886, Note_on_c, 2, 74, 127
1, 397886, Note_on_c, 2, 50, 127
1, 398019, Note_off_c, 2, 74, 127
1, 398026, Note_off_c, 2, 50, 127
1, 398028, Note_on_c, 1, 73, 127
1, 398028, Note_on_c, 10, 57, 127
1, 398168, Note_off_c, 10, 57, 127
1, 398170, Note_on_c, 10, 69, 127
1, 398170, Note_on_c, 10, 45, 127
1, 398174, Note_off_c, 1, 73, 127
1, 398303, Note_off_c, 10, 69, 127
1, 398310, Note_off_c, 10, 45, 127
1, 398312, Note_on_c, 1, 73, 127
1, 398312, Note_on_c, 10, 57, 127
1, 398445, Note_off_c, 1, 73, 127
1, 398452, Note_off_c, 10, 57, 127
1, 398454, Note_on_c, 2, 74, 127
1, 398454, Note_on_c, 2, 50, 127
1, 398596, Note_on_c, 10, 69, 127
1, 398596, Note_on_c, 6, 54, 127
1, 398598, Note_off_c, 2, 50, 127
1, 398609, Note_off_c, 2, 74, 127
1, 398729, Note_off_c, 10, 69, 127
1, 398736, Note_off_c, 6, 54, 127
1, 398738, Note_on_c, 2, 74, 127
1, 398738, Note_on_c, 2, 50, 127
1, 398871, Note_off_c, 2, 74, 127
1, 398878, Note_off_c, 2, 50, 127
1, 398880, Note_on_c, 1, 73, 127
1, 398880, Note_on_c, 10, 57, 127
1, 399020, Note_off_c, 10, 57, 127
1, 399022, Note_on_c, 10, 69, 127
1, 399022, Note_on_c, 10, 45, 127
1, 399026, Note_off_c, 1, 73, 127
1, 399155, Note_off_c, 10, 69, 127
1, 399162, Note_off_c, 10, 45, 127
1, 399164, Note_on_c, 1, 73, 127
1, 399164, Note_on_c, 10, 57, 127
1, 399297, Note_off_c, 1, 73, 127
1, 399304, Note_off_c, 10, 57, 127
1, 399306, Note_on_c, 2, 74, 127
1, 399306, Note_on_c, 2, 50, 127
1, 399448, Note_on_c, 10, 69, 127
1, 399448, Note_on_c, 6, 54, 127
1, 399450, Note_off_c, 2, 50, 127
1, 399461, Note_off_c, 2, 74, 127
1, 399581, Note_off_c, 10, 69, 127
1, 399588, Note_off_c, 6, 54, 127
1, 399590, Note_on_c, 2, 74, 127
1, 399590, Note_on_c, 2, 50, 127
1, 399723, Note_off_c, 2, 74, 127
1, 399730, Note_off_c, 2, 50, 127
1, 399732, Note_on_c, 1, 73, 127
1, 399732, Note_on_c, 10, 57, 127
1, 399872, Note_off_c, 10, 57, 127
1, 399874, Note_on_c, 10, 69, 127
1, 399874, Note_on_c, 10, 45, 127
1, 399878, Note_off_c, 1, 73, 127
1, 400007, Note_off_c, 10, 69, 127
1, 400014, Note_off_c, 10, 45, 127
1, 400016, Note_on_c, 1, 73, 127
1, 400016, Note_on_c, 10, 57, 127
1, 400149, Note_off_c, 1, 73, 127
1, 400156, Note_off_c, 10, 57, 127
1, 400158, Note_on_c, 2, 74, 127
1, 400158, Note_on_c, 6, 54, 127
1, 400300, Note_on_c, 4, 76, 127
1, 400300, Note_on_c, 4, 52, 127
1, 400302, Note_off_c, 6, 54, 127
1, 400313, Note_off_c, 2, 74, 127
1, 400433, Note_off_c, 4, 76, 127
1, 400440, Note_off_c, 4, 52, 127
1, 400442, Note_on_c, 6, 78, 127
1, 400442, Note_on_c, 2, 50, 127
1, 400575, Note_off_c, 6, 78, 127
1, 400582, Note_off_c, 2, 50, 127
1, 400584, Note_on_c, 4, 76, 127
1, 400584, Note_on_c, 7, 55, 127
1, 400724, Note_off_c, 7, 55, 127
1, 400726, Note_on_c, 6, 78, 127
1, 400726, Note_on_c, 10, 57, 127
1, 400730, Note_off_c, 4, 76, 127
1, 400859, Note_off_c, 6, 78, 127
1, 400866, Note_off_c, 10, 57, 127
1, 400868, Note_on_c, 2, 74, 127
1, 400868, Note_on_c, 12, 59, 127
1, 401001, Note_off_c, 2, 74, 127
1, 401008, Note_off_c, 12, 59, 127
1, 401010, Note_on_c, 1, 73, 127
1, 401010, Note_on_c, 10, 57, 127
1, 401152, Note_on_c, 12, 71, 127
1, 401165, Note_off_c, 1, 73, 127
1, 401285, Note_off_c, 12, 71, 127
1, 401293, Note_off_c, 10, 57, 127
1, 401294, Note_on_c, 1, 73, 127
1, 401294, Note_on_c, 10, 45, 127
1, 401427, Note_off_c, 1, 73, 127
1, 401434, Note_off_c, 10, 45, 127
1, 401436, Note_on_c, 10, 69, 127
1, 401436, Note_on_c, 10, 57, 127
1, 401576, Note_off_c, 10, 57, 127
1, 401578, Note_on_c, 7, 55, 127
1, 401718, Note_off_c, 7, 55, 127
1, 401719, Note_off_c, 10, 69, 127
1, 401720, Note_on_c, 6, 54, 127
1, 401860, Note_off_c, 6, 54, 127
1, 401862, Note_on_c, 4, 76, 127
1, 401862, Note_on_c, 7, 55, 127
1, 402004, Note_on_c, 12, 71, 127
1, 402004, Note_on_c, 4, 52, 127
1, 402006, Note_off_c, 7, 55, 127
1, 402017, Note_off_c, 4, 76, 127
1, 402137, Note_off_c, 12, 71, 127
1, 402144, Note_off_c, 4, 52, 127
1, 402146, Note_on_c, 4, 76, 127
1, 402146, Note_on_c, 7, 55, 127
1, 402279, Note_off_c, 4, 76, 127
1, 402286, Note_off_c, 7, 55, 127
1, 402288, Note_on_c, 3, 75, 127
1, 402288, Note_on_c, 12, 59, 127
1, 402428, Note_off_c, 12, 59, 127
1, 402430, Note_on_c, 12, 71, 127
1, 402430, Note_on_c, 12, 47, 127
1, 402434, Note_off_c, 3, 75, 127
1, 402563, Note_off_c, 12, 71, 127
1, 402570, Note_off_c, 12, 47, 127
1, 402572, Note_on_c, 3, 75, 127
1, 402572, Note_on_c, 12, 59, 127
1, 402705, Note_off_c, 3, 75, 127
1, 402712, Note_off_c, 12, 59, 127
1, 402714, Note_on_c, 4, 76, 127
1, 402714, Note_on_c, 7, 55, 127
1, 402856, Note_on_c, 12, 71, 127
1, 402856, Note_on_c, 4, 52, 127
1, 402858, Note_off_c, 7, 55, 127
1, 402869, Note_off_c, 4, 76, 127
1, 402989, Note_off_c, 12, 71, 127
1, 402996, Note_off_c, 4, 52, 127
1, 402998, Note_on_c, 4, 76, 127
1, 402998, Note_on_c, 7, 55, 127
1, 403131, Note_off_c, 4, 76, 127
1, 403138, Note_off_c, 7, 55, 127
1, 403140, Note_on_c, 3, 75, 127
1, 403140, Note_on_c, 12, 59, 127
1, 403280, Note_off_c, 12, 59, 127
1, 403282, Note_on_c, 12, 71, 127
1, 403282, Note_on_c, 12, 47, 127
1, 403286, Note_off_c, 3, 75, 127
1, 403415, Note_off_c, 12, 71, 127
1, 403422, Note_off_c, 12, 47, 127
1, 403424, Note_on_c, 3, 75, 127
1, 403424, Note_on_c, 12, 59, 127
1, 403557, Note_off_c, 3, 75, 127
1, 403564, Note_off_c, 12, 59, 127
1, 403566, Note_on_c, 4, 76, 127
1, 403566, Note_on_c, 7, 55, 127
1, 403708, Note_on_c, 12, 71, 127
1, 403708, Note_on_c, 4, 52, 127
1, 403710, Note_off_c, 7, 55, 127
1, 403721, Note_off_c, 4, 76, 127
1, 403841, Note_off_c, 12, 71, 127
1, 403848, Note_off_c, 4, 52, 127
1, 403850, Note_on_c, 4, 76, 127
1, 403850, Note_on_c, 7, 55, 127
1, 403983, Note_off_c, 4, 76, 127
1, 403990, Note_off_c, 7, 55, 127
1, 403992, Note_on_c, 3, 75, 127
1, 403992, Note_on_c, 12, 59, 127
1, 404132, Note_off_c, 12, 59, 127
1, 404134, Note_on_c, 12, 71, 127
1, 404134, Note_on_c, 12, 47, 127
1, 404138, Note_off_c, 3, 75, 127
1, 404267, Note_off_c, 12, 71, 127
1, 404274, Note_off_c, 12, 47, 127
1, 404276, Note_on_c, 3, 75, 127
1, 404276, Note_on_c, 12, 59, 127
1, 404409, Note_off_c, 3, 75, 127
1, 404416, Note_off_c, 12, 59, 127
1, 404418, Note_on_c, 4, 76, 127
1, 404418, Note_on_c, 7, 55, 127
1, 404560, Note_on_c, 6, 78, 127
1, 404560, Note_on_c, 6, 54, 127
1, 404562, Note_off_c, 7, 55, 127
1, 404573, Note_off_c, 4, 76, 127
1, 404693, Note_off_c, 6, 78, 127
1, 404700, Note_off_c, 6, 54, 127
1, 404702, Note_on_c, 7, 79, 127
1, 404702, Note_on_c, 4, 52, 127
1, 404835, Note_off_c, 7, 79, 127
1, 404842, Note_off_c, 4, 52, 127
1, 404844, Note_on_c, 6, 78, 127
1, 404844, Note_on_c, 10, 57, 127
1, 404984, Note_off_c, 10, 57, 127
1, 404986, Note_on_c, 7, 79, 127
1, 404986, Note_on_c, 12, 59, 127
1, 404990, Note_off_c, 6, 78, 127
1, 405119, Note_off_c, 7, 79, 127
1, 405126, Note_off_c, 12, 59, 127
1, 405128, Note_on_c, 4, 76, 127
1, 405128, Note_on_c, 0, 60, 127
1, 405261, Note_off_c, 4, 76, 127
1, 405268, Note_off_c, 0, 60, 127
1, 405270, Note_on_c, 3, 75, 127
1, 405270, Note_on_c, 12, 59, 127
1, 405412, Note_on_c, 1, 73, 127
1, 405425, Note_off_c, 3, 75, 127
1, 405545, Note_off_c, 1, 73, 127
1, 405553, Note_off_c, 12, 59, 127
1, 405554, Note_on_c, 3, 75, 127
1, 405554, Note_on_c, 12, 47, 127
1, 405687, Note_off_c, 3, 75, 127
1, 405694, Note_off_c, 12, 47, 127
1, 405696, Note_on_c, 12, 71, 127
1, 405696, Note_on_c, 12, 59, 127
1, 405836, Note_off_c, 12, 59, 127
1, 405838, Note_on_c, 10, 57, 127
1, 405978, Note_off_c, 10, 57, 127
1, 405980, Note_on_c, 12, 59, 127
1, 406120, Note_off_c, 12, 59, 127
1, 406122, Note_on_c, 7, 79, 127
1, 406122, Note_on_c, 4, 52, 127
1, 406252, Note_off_c, 12, 71, 127
1, 406264, Note_on_c, 12, 71, 127
1, 406264, Note_on_c, 7, 55, 127
1, 406266, Note_off_c, 4, 52, 127
1, 406277, Note_off_c, 7, 79, 127
1, 406397, Note_off_c, 12, 71, 127
1, 406404, Note_off_c, 7, 55, 127
1, 406406, Note_on_c, 7, 79, 127
1, 406406, Note_on_c, 12, 59, 127
1, 406539, Note_off_c, 7, 79, 127
1, 406546, Note_off_c, 12, 59, 127
1, 406548, Note_on_c, 7, 79, 127
1, 406548, Note_on_c, 4, 64, 127
1, 406688, Note_off_c, 4, 64, 127
1, 406690, Note_on_c, 12, 71, 127
1, 406690, Note_on_c, 3, 63, 127
1, 406694, Note_off_c, 7, 79, 127
1, 406823, Note_off_c, 12, 71, 127
1, 406830, Note_off_c, 3, 63, 127
1, 406832, Note_on_c, 7, 79, 127
1, 406832, Note_on_c, 4, 64, 127
1, 406965, Note_off_c, 7, 79, 127
1, 406972, Note_off_c, 4, 64, 127
1, 406974, Note_on_c, 7, 79, 127
1, 406974, Note_on_c, 1, 49, 127
1, 407116, Note_on_c, 10, 69, 127
1, 407129, Note_off_c, 7, 79, 127
1, 407249, Note_off_c, 10, 69, 127
1, 407258, Note_on_c, 7, 79, 127
1, 407391, Note_off_c, 7, 79, 127
1, 407400, Note_on_c, 7, 79, 127
1, 407542, Note_on_c, 10, 69, 127
1, 407546, Note_off_c, 7, 79, 127
1, 407612, Note_off_c, 1, 49, 127
1, 407675, Note_off_c, 10, 69, 127
1, 407684, Note_on_c, 7, 79, 127
1, 407817, Note_off_c, 7, 79, 127
1, 407826, Note_on_c, 6, 78, 127
1, 407826, Note_on_c, 3, 51, 127
1, 407968, Note_on_c, 10, 69, 127
1, 407968, Note_on_c, 6, 54, 127
1, 407970, Note_off_c, 3, 51, 127
1, 407981, Note_off_c, 6, 78, 127
1, 408101, Note_off_c, 10, 69, 127
1, 408108, Note_off_c, 6, 54, 127
1, 408110, Note_on_c, 6, 78, 127
1, 408110, Note_on_c, 12, 59, 127
1, 408243, Note_off_c, 6, 78, 127
1, 408250, Note_off_c, 12, 59, 127
1, 408252, Note_on_c, 6, 78, 127
1, 408252, Note_on_c, 3, 63, 127
1, 408392, Note_off_c, 3, 63, 127
1, 408394, Note_on_c, 10, 69, 127
1, 408394, Note_on_c, 1, 61, 127
1, 408398, Note_off_c, 6, 78, 127
1, 408527, Note_off_c, 10, 69, 127
1, 408534, Note_off_c, 1, 61, 127
1, 408536, Note_on_c, 6, 78, 127
1, 408536, Note_on_c, 3, 63, 127
1, 408669, Note_off_c, 6, 78, 127
1, 408676, Note_off_c, 3, 63, 127
1, 408678, Note_on_c, 6, 78, 127
1, 408678, Note_on_c, 4, 52, 127
1, 408820, Note_on_c, 7, 67, 127
1, 408833, Note_off_c, 6, 78, 127
1, 408953, Note_off_c, 7, 67, 127
1, 408962, Note_on_c, 6, 78, 127
1, 409095, Note_off_c, 6, 78, 127
1, 409104, Note_on_c, 6, 78, 127
1, 409246, Note_on_c, 7, 67, 127
1, 409250, Note_off_c, 6, 78, 127
1, 409316, Note_off_c, 4, 52, 127
1, 409379, Note_off_c, 7, 67, 127
1, 409388, Note_on_c, 6, 78, 127
1, 409521, Note_off_c, 6, 78, 127
1, 409530, Note_on_c, 4, 76, 127
1, 409530, Note_on_c, 1, 49, 127
1, 409672, Note_on_c, 7, 67, 127
1, 409672, Note_on_c, 4, 52, 127
1, 409674, Note_off_c, 1, 49, 127
1, 409685, Note_off_c, 4, 76, 127
1, 409805, Note_off_c, 7, 67, 127
1, 409812, Note_off_c, 4, 52, 127
1, 409814, Note_on_c, 4, 76, 127
1, 409814, Note_on_c, 1, 49, 127
1, 409947, Note_off_c, 4, 76, 127
1, 409954, Note_off_c, 1, 49, 127
1, 409956, Note_on_c, 4, 76, 127
1, 409956, Note_on_c, 11, 46, 127
1, 410096, Note_off_c, 11, 46, 127
1, 410098, Note_on_c, 7, 67, 127
1, 410098, Note_on_c, 1, 49, 127
1, 410102, Note_off_c, 4, 76, 127
1, 410231, Note_off_c, 7, 67, 127
1, 410238, Note_off_c, 1, 49, 127
1, 410240, Note_on_c, 4, 76, 127
1, 410240, Note_on_c, 11, 46, 127
1, 410373, Note_off_c, 4, 76, 127
1, 410380, Note_off_c, 11, 46, 127
1, 410382, Note_on_c, 11, 70, 127
1, 410382, Note_on_c, 6, 42, 127
1, 410524, Note_on_c, 6, 66, 127
1, 410524, Note_on_c, 1, 49, 127
1, 410526, Note_off_c, 6, 42, 127
1, 410537, Note_off_c, 11, 70, 127
1, 410657, Note_off_c, 6, 66, 127
1, 410664, Note_off_c, 1, 49, 127
1, 410666, Note_on_c, 4, 76, 127
1, 410666, Note_on_c, 11, 46, 127
1, 410799, Note_off_c, 4, 76, 127
1, 410806, Note_off_c, 11, 46, 127
1, 410808, Note_on_c, 11, 70, 127
1, 410808, Note_on_c, 6, 42, 127
1, 410948, Note_off_c, 6, 42, 127
1, 410950, Note_on_c, 6, 66, 127
1, 410950, Note_on_c, 1, 49, 127
1, 410954, Note_off_c, 11, 70, 127
1, 411083, Note_off_c, 6, 66, 127
1, 411090, Note_off_c, 1, 49, 127
1, 411092, Note_on_c, 4, 76, 127
1, 411092, Note_on_c, 11, 46, 127
1, 411225, Note_off_c, 4, 76, 127
1, 411232, Note_off_c, 11, 46, 127
1, 411234, Note_on_c, 11, 70, 127
1, 411234, Note_on_c, 6, 42, 127
1, 411376, Note_on_c, 6, 66, 127
1, 411376, Note_on_c, 1, 49, 127
1, 411378, Note_off_c, 6, 42, 127
1, 411389, Note_off_c, 11, 70, 127
1, 411509, Note_off_c, 6, 66, 127
1, 411516, Note_off_c, 1, 49, 127
1, 411518, Note_on_c, 4, 76, 127
1, 411518, Note_on_c, 11, 46, 127
1, 411651, Note_off_c, 4, 76, 127
1, 411658, Note_off_c, 11, 46, 127
1, 411660, Note_on_c, 11, 70, 127
1, 411660, Note_on_c, 6, 42, 127
1, 411800, Note_off_c, 6, 42, 127
1, 411802, Note_on_c, 6, 66, 127
1, 411802, Note_on_c, 1, 49, 127
1, 411806, Note_off_c, 11, 70, 127
1, 411935, Note_off_c, 6, 66, 127
1, 411942, Note_off_c, 1, 49, 127
1, 411944, Note_on_c, 4, 76, 127
1, 411944, Note_on_c, 11, 46, 127
1, 412077, Note_off_c, 4, 76, 127
1, 412084, Note_off_c, 11, 46, 127
1, 412086, Note_on_c, 2, 74, 127
1, 412086, Note_on_c, 12, 47, 127
1, 412228, Note_on_c, 12, 71, 127
1, 412228, Note_on_c, 2, 50, 127
1, 412230, Note_off_c, 12, 47, 127
1, 412241, Note_off_c, 2, 74, 127
1, 412361, Note_off_c, 12, 71, 127
1, 412368, Note_off_c, 2, 50, 127
1, 412370, Note_on_c, 2, 74, 127
1, 412370, Note_on_c, 6, 54, 127
1, 412503, Note_off_c, 2, 74, 127
1, 412510, Note_off_c, 6, 54, 127
1, 412512, Note_on_c, 2, 74, 127
1, 412512, Note_on_c, 12, 59, 127
1, 412652, Note_off_c, 12, 59, 127
1, 412654, Note_on_c, 12, 71, 127
1, 412654, Note_on_c, 2, 62, 127
1, 412658, Note_off_c, 2, 74, 127
1, 412724, Note_off_c, 2, 62, 127
1, 412725, Note_on_c, 0, 60, 127
1, 412787, Note_off_c, 12, 71, 127
1, 412795, Note_off_c, 0, 60, 127
1, 412796, Note_on_c, 2, 74, 127
1, 412796, Note_on_c, 12, 59, 127
1, 412866, Note_off_c, 12, 59, 127
1, 412867, Note_on_c, 10, 57, 127
1, 412929, Note_off_c, 2, 74, 127
1, 412937, Note_off_c, 10, 57, 127
1, 412938, Note_on_c, 2, 74, 127
1, 412938, Note_on_c, 7, 55, 127
1, 413080, Note_on_c, 12, 71, 127
1, 413080, Note_on_c, 12, 59, 127
1, 413082, Note_off_c, 7, 55, 127
1, 413093, Note_off_c, 2, 74, 127
1, 413213, Note_off_c, 12, 71, 127
1, 413220, Note_off_c, 12, 59, 127
1, 413222, Note_on_c, 2, 74, 127
1, 413222, Note_on_c, 10, 57, 127
1, 413355, Note_off_c, 2, 74, 127
1, 413362, Note_off_c, 10, 57, 127
1, 413364, Note_on_c, 2, 74, 127
1, 413364, Note_on_c, 7, 55, 127
1, 413504, Note_off_c, 7, 55, 127
1, 413506, Note_on_c, 12, 71, 127
1, 413506, Note_on_c, 10, 57, 127
1, 413510, Note_off_c, 2, 74, 127
1, 413639, Note_off_c, 12, 71, 127
1, 413646, Note_off_c, 10, 57, 127
1, 413648, Note_on_c, 2, 74, 127
1, 413648, Note_on_c, 6, 54, 127
1, 413781, Note_off_c, 2, 74, 127
1, 413788, Note_off_c, 6, 54, 127
1, 413790, Note_on_c, 1, 73, 127
1, 413790, Note_on_c, 4, 52, 127
1, 413860, Note_off_c, 4, 52, 127
1, 413861, Note_on_c, 6, 54, 127
1, 413931, Note_off_c, 6, 54, 127
1, 413932, Note_on_c, 12, 71, 127
1, 413932, Note_on_c, 7, 55, 127
1, 413945, Note_off_c, 1, 73, 127
1, 414002, Note_off_c, 7, 55, 127
1, 414003, Note_on_c, 10, 57, 127
1, 414065, Note_off_c, 12, 71, 127
1, 414073, Note_off_c, 10, 57, 127
1, 414074, Note_on_c, 1, 73, 127
1, 414074, Note_on_c, 12, 59, 127
1, 414144, Note_off_c, 12, 59, 127
1, 414145, Note_on_c, 10, 57, 127
1, 414207, Note_off_c, 1, 73, 127
1, 414215, Note_off_c, 10, 57, 127
1, 414216, Note_on_c, 1, 73, 127
1, 414216, Note_on_c, 7, 55, 127
1, 414356, Note_off_c, 7, 55, 127
1, 414358, Note_on_c, 12, 71, 127
1, 414358, Note_on_c, 10, 57, 127
1, 414362, Note_off_c, 1, 73, 127
1, 414491, Note_off_c, 12, 71, 127
1, 414498, Note_off_c, 10, 57, 127
1, 414500, Note_on_c, 1, 73, 127
1, 414500, Note_on_c, 6, 54, 127
1, 414633, Note_off_c, 1, 73, 127
1, 414640, Note_off_c, 6, 54, 127
1, 414642, Note_on_c, 1, 73, 127
1, 414642, Note_on_c, 4, 52, 127
1, 414784, Note_on_c, 12, 71, 127
1, 414784, Note_on_c, 12, 59, 127
1, 414786, Note_off_c, 4, 52, 127
1, 414797, Note_off_c, 1, 73, 127
1, 414854, Note_off_c, 12, 59, 127
1, 414855, Note_on_c, 10, 57, 127
1, 414917, Note_off_c, 12, 71, 127
1, 414925, Note_off_c, 10, 57, 127
1, 414926, Note_on_c, 1, 73, 127
1, 414926, Note_on_c, 7, 55, 127
1, 414996, Note_off_c, 7, 55, 127
1, 414997, Note_on_c, 6, 54, 127
1, 415059, Note_off_c, 1, 73, 127
1, 415067, Note_off_c, 6, 54, 127
1, 415068, Note_on_c, 1, 73, 127
1, 415068, Note_on_c, 4, 52, 127
1, 415208, Note_off_c, 4, 52, 127
1, 415210, Note_on_c, 12, 71, 127
1, 415210, Note_on_c, 6, 54, 127
1, 415214, Note_off_c, 1, 73, 127
1, 415280, Note_off_c, 6, 54, 127
1, 415281, Note_on_c, 4, 52, 127
1, 415343, Note_off_c, 12, 71, 127
1, 415351, Note_off_c, 4, 52, 127
1, 415352, Note_on_c, 1, 73, 127
1, 415352, Note_on_c, 2, 50, 127
1, 415422, Note_off_c, 2, 50, 127
1, 415423, Note_on_c, 1, 49, 127
1, 415485, Note_off_c, 1, 73, 127
1, 415493, Note_off_c, 1, 49, 127
1, 415494, Note_on_c, 1, 73, 127
1, 415494, Note_on_c, 6, 54, 127
1, 415567, Note_off_c, 6, 54, 127
1, 415568, Note_on_c, 11, 58, 127
1, 415641, Note_off_c, 11, 58, 127
1, 415642, Note_on_c, 11, 70, 127
1, 415642, Note_on_c, 1, 61, 127
1, 415656, Note_off_c, 1, 73, 127
1, 415715, Note_off_c, 1, 61, 127
1, 415716, Note_on_c, 4, 64, 127
1, 415781, Note_off_c, 11, 70, 127
1, 415789, Note_off_c, 4, 64, 127
1, 415790, Note_on_c, 1, 73, 127
1, 415790, Note_on_c, 1, 61, 127
1, 415863, Note_off_c, 1, 61, 127
1, 415864, Note_on_c, 11, 58, 127
1, 415929, Note_off_c, 1, 73, 127
1, 415937, Note_off_c, 11, 58, 127
1, 415938, Note_on_c, 1, 73, 127
1, 415938, Note_on_c, 6, 54, 127
1, 416011, Note_off_c, 6, 54, 127
1, 416012, Note_on_c, 11, 58, 127
1, 416085, Note_off_c, 11, 58, 127
1, 416086, Note_on_c, 11, 70, 127
1, 416086, Note_on_c, 1, 61, 127
1, 416091, Note_off_c, 1, 73, 127
1, 416160, Note_off_c, 1, 61, 127
1, 416161, Note_on_c, 4, 64, 127
1, 416226, Note_off_c, 11, 70, 127
1, 416234, Note_off_c, 4, 64, 127
1, 416235, Note_on_c, 1, 73, 127
1, 416235, Note_on_c, 1, 61, 127
1, 416308, Note_off_c, 1, 61, 127
1, 416309, Note_on_c, 11, 58, 127
1, 416374, Note_off_c, 1, 73, 127
1, 416382, Note_off_c, 11, 58, 127
1, 416383, Note_on_c, 1, 73, 127
1, 416383, Note_on_c, 6, 54, 127
1, 416456, Note_off_c, 6, 54, 127
1, 416457, Note_on_c, 11, 58, 127
1, 416530, Note_off_c, 11, 58, 127
1, 416531, Note_on_c, 11, 70, 127
1, 416531, Note_on_c, 1, 61, 127
1, 416545, Note_off_c, 1, 73, 127
1, 416604, Note_off_c, 1, 61, 127
1, 416605, Note_on_c, 4, 64, 127
1, 416670, Note_off_c, 11, 70, 127
1, 416678, Note_off_c, 4, 64, 127
1, 416679, Note_on_c, 1, 73, 127
1, 416679, Note_on_c, 1, 61, 127
1, 416752, Note_off_c, 1, 61, 127
1, 416753, Note_on_c, 11, 58, 127
1, 416818, Note_off_c, 1, 73, 127
1, 416826, Note_off_c, 11, 58, 127
1, 416827, Note_on_c, 1, 73, 127
1, 416827, Note_on_c, 6, 54, 127
1, 416900, Note_off_c, 6, 54, 127
1, 416901, Note_on_c, 11, 58, 127
1, 416974, Note_off_c, 11, 58, 127
1, 416975, Note_on_c, 11, 70, 127
1, 416975, Note_on_c, 1, 61, 127
1, 416980, Note_off_c, 1, 73, 127
1, 417049, Note_off_c, 1, 61, 127
1, 417050, Note_on_c, 4, 64, 127
1, 417115, Note_off_c, 11, 70, 127
1, 417123, Note_off_c, 4, 64, 127
1, 417124, Note_on_c, 1, 73, 127
1, 417124, Note_on_c, 1, 61, 127
1, 417197, Note_off_c, 1, 61, 127
1, 417198, Note_on_c, 11, 58, 127
1, 417263, Note_off_c, 1, 73, 127
1, 417271, Note_off_c, 11, 58, 127
1, 417272, Note_on_c, 12, 71, 127
1, 417272, Note_on_c, 12, 59, 127
1, 417378, Note_on_c, 7, 79, 127
1, 417412, Note_off_c, 12, 71, 127
1, 417451, Note_off_c, 7, 79, 127
1, 417452, Note_on_c, 6, 78, 127
1, 417525, Note_off_c, 6, 78, 127
1, 417526, Note_on_c, 4, 76, 127
1, 417599, Note_off_c, 4, 76, 127
1, 417600, Note_on_c, 2, 74, 127
1, 417673, Note_off_c, 2, 74, 127
1, 417674, Note_on_c, 0, 72, 127
1, 417712, Note_off_c, 12, 59, 127
1, 417747, Note_off_c, 0, 72, 127
1, 417748, Note_on_c, 12, 71, 127
1, 417821, Note_off_c, 12, 71, 127
1, 417822, Note_on_c, 4, 76, 127
1, 417822, Note_on_c, 7, 55, 127
1, 417895, Note_off_c, 7, 55, 127
1, 417895, Note_off_c, 4, 76, 127
1, 417896, Note_on_c, 2, 74, 127
1, 417896, Note_on_c, 6, 54, 127
1, 417969, Note_off_c, 6, 54, 127
1, 417969, Note_off_c, 2, 74, 127
1, 417970, Note_on_c, 0, 72, 127
1, 417970, Note_on_c, 4, 52, 127
1, 418043, Note_off_c, 4, 52, 127
1, 418043, Note_off_c, 0, 72, 127
1, 418044, Note_on_c, 12, 71, 127
1, 418044, Note_on_c, 2, 50, 127
1, 418117, Note_off_c, 2, 50, 127
1, 418117, Note_off_c, 12, 71, 127
1, 418122, Note_on_c, 10, 69, 127
1, 418122, Note_on_c, 0, 48, 127
1, 418210, Note_off_c, 0, 48, 127
1, 418210, Note_off_c, 10, 69, 127
1, 418216, Note_on_c, 12, 47, 127
1, 418216, Note_on_c, 7, 67, 127
1, 418360, Note_on_c, 7, 43, 127
1, 418360, Note_on_c, 2, 62, 127
1, 418362, Note_off_c, 12, 47, 127
1, 418373, Note_off_c, 7, 67, 127
1, 418494, Note_off_c, 2, 62, 127
1, 418501, Note_off_c, 7, 43, 127
1, 418503, Note_on_c, 12, 47, 127
1, 418503, Note_on_c, 7, 67, 127
1, 418638, Note_off_c, 7, 67, 127
1, 418645, Note_off_c, 12, 47, 127
1, 418647, Note_on_c, 2, 50, 127
1, 418647, Note_on_c, 6, 66, 127
1, 418788, Note_off_c, 2, 50, 127
1, 418790, Note_on_c, 2, 38, 127
1, 418790, Note_on_c, 2, 62, 127
1, 418794, Note_off_c, 6, 66, 127
1, 418924, Note_off_c, 2, 62, 127
1, 418931, Note_off_c, 2, 38, 127
1, 418933, Note_on_c, 2, 50, 127
1, 418933, Note_on_c, 6, 66, 127
1, 419068, Note_off_c, 6, 66, 127
1, 419075, Note_off_c, 2, 50, 127
1, 419077, Note_on_c, 12, 47, 127
1, 419077, Note_on_c, 7, 67, 127
1, 419221, Note_on_c, 7, 43, 127
1, 419221, Note_on_c, 2, 62, 127
1, 419223, Note_off_c, 12, 47, 127
1, 419234, Note_off_c, 7, 67, 127
1, 419355, Note_off_c, 2, 62, 127
1, 419362, Note_off_c, 7, 43, 127
1, 419364, Note_on_c, 12, 47, 127
1, 419364, Note_on_c, 7, 67, 127
1, 419499, Note_off_c, 7, 67, 127
1, 419506, Note_off_c, 12, 47, 127
1, 419508, Note_on_c, 2, 50, 127
1, 419508, Note_on_c, 6, 66, 127
1, 419649, Note_off_c, 2, 50, 127
1, 419651, Note_on_c, 2, 38, 127
1, 419651, Note_on_c, 2, 62, 127
1, 419655, Note_off_c, 6, 66, 127
1, 419785, Note_off_c, 2, 62, 127
1, 419792, Note_off_c, 2, 38, 127
1, 419794, Note_on_c, 2, 50, 127
1, 419794, Note_on_c, 6, 66, 127
1, 419929, Note_off_c, 6, 66, 127
1, 419936, Note_off_c, 2, 50, 127
1, 419938, Note_on_c, 12, 47, 127
1, 419938, Note_on_c, 7, 67, 127
1, 420082, Note_on_c, 7, 43, 127
1, 420082, Note_on_c, 2, 62, 127
1, 420084, Note_off_c, 12, 47, 127
1, 420095, Note_off_c, 7, 67, 127
1, 420216, Note_off_c, 2, 62, 127
1, 420223, Note_off_c, 7, 43, 127
1, 420225, Note_on_c, 12, 47, 127
1, 420225, Note_on_c, 7, 67, 127
1, 420360, Note_off_c, 7, 67, 127
1, 420367, Note_off_c, 12, 47, 127
1, 420369, Note_on_c, 2, 50, 127
1, 420369, Note_on_c, 6, 66, 127
1, 420510, Note_off_c, 2, 50, 127
1, 420512, Note_on_c, 2, 38, 127
1, 420512, Note_on_c, 2, 62, 127
1, 420516, Note_off_c, 6, 66, 127
1, 420646, Note_off_c, 2, 62, 127
1, 420653, Note_off_c, 2, 38, 127
1, 420655, Note_on_c, 2, 50, 127
1, 420655, Note_on_c, 6, 66, 127
1, 420790, Note_off_c, 6, 66, 127
1, 420797, Note_off_c, 2, 50, 127
1, 420799, Note_on_c, 12, 47, 127
1, 420799, Note_on_c, 7, 67, 127
1, 420943, Note_on_c, 10, 45, 127
1, 420943, Note_on_c, 10, 69, 127
1, 420945, Note_off_c, 12, 47, 127
1, 420956, Note_off_c, 7, 67, 127
1, 421077, Note_off_c, 10, 69, 127
1, 421084, Note_off_c, 10, 45, 127
1, 421086, Note_on_c, 7, 43, 127
1, 421086, Note_on_c, 12, 71, 127
1, 421221, Note_off_c, 12, 71, 127
1, 421228, Note_off_c, 7, 43, 127
1, 421230, Note_on_c, 0, 48, 127
1, 421230, Note_on_c, 10, 69, 127
1, 421371, Note_off_c, 0, 48, 127
1, 421373, Note_on_c, 2, 50, 127
1, 421373, Note_on_c, 12, 71, 127
1, 421377, Note_off_c, 10, 69, 127
1, 421507, Note_off_c, 12, 71, 127
1, 421514, Note_off_c, 2, 50, 127
1, 421516, Note_on_c, 4, 52, 127
1, 421516, Note_on_c, 7, 67, 127
1, 421651, Note_off_c, 7, 67, 127
1, 421658, Note_off_c, 4, 52, 127
1, 421660, Note_on_c, 2, 50, 127
1, 421660, Note_on_c, 6, 66, 127
1, 421804, Note_on_c, 4, 64, 127
1, 421817, Note_off_c, 6, 66, 127
1, 421938, Note_off_c, 4, 64, 127
1, 421946, Note_off_c, 2, 50, 127
1, 421947, Note_on_c, 2, 38, 127
1, 421947, Note_on_c, 6, 66, 127
1, 422082, Note_off_c, 6, 66, 127
1, 422089, Note_off_c, 2, 38, 127
1, 422091, Note_on_c, 2, 50, 127
1, 422091, Note_on_c, 2, 62, 127
1, 422232, Note_off_c, 2, 50, 127
1, 422234, Note_on_c, 0, 48, 127
1, 422375, Note_off_c, 0, 48, 127
1, 422376, Note_off_c, 2, 62, 127
1, 422377, Note_on_c, 2, 50, 127
1, 422518, Note_off_c, 2, 50, 127
1, 422520, Note_on_c, 12, 47, 127
1, 422520, Note_on_c, 7, 67, 127
1, 422664, Note_on_c, 2, 50, 127
1, 422664, Note_on_c, 2, 62, 127
1, 422666, Note_off_c, 12, 47, 127
1, 422677, Note_off_c, 7, 67, 127
1, 422798, Note_off_c, 2, 62, 127
1, 422805, Note_off_c, 2, 50, 127
1, 422807, Note_on_c, 0, 48, 127
1, 422807, Note_on_c, 7, 67, 127
1, 422942, Note_off_c, 7, 67, 127
1, 422949, Note_off_c, 0, 48, 127
1, 422951, Note_on_c, 12, 47, 127
1, 422951, Note_on_c, 2, 62, 127
1, 423092, Note_off_c, 12, 47, 127
1, 423094, Note_on_c, 10, 45, 127
1, 423094, Note_on_c, 12, 59, 127
1, 423098, Note_off_c, 2, 62, 127
1, 423228, Note_off_c, 12, 59, 127
1, 423235, Note_off_c, 10, 45, 127
1, 423237, Note_on_c, 7, 43, 127
1, 423237, Note_on_c, 2, 62, 127
1, 423372, Note_off_c, 2, 62, 127
1, 423379, Note_off_c, 7, 43, 127
1, 423381, Note_on_c, 0, 48, 127
1, 423381, Note_on_c, 4, 64, 127
1, 423525, Note_on_c, 0, 60, 127
1, 423538, Note_off_c, 4, 64, 127
1, 423659, Note_off_c, 0, 60, 127
1, 423668, Note_on_c, 2, 62, 127
1, 423803, Note_off_c, 2, 62, 127
1, 423812, Note_on_c, 4, 64, 127
1, 423956, Note_on_c, 6, 66, 127
1, 423960, Note_off_c, 4, 64, 127
1, 424026, Note_off_c, 0, 48, 127
1, 424090, Note_off_c, 6, 66, 127
1, 424099, Note_on_c, 7, 67, 127
1, 424234, Note_off_c, 7, 67, 127
1, 424243, Note_on_c, 1, 49, 127
1, 424243, Note_on_c, 10, 69, 127
1, 424387, Note_on_c, 4, 52, 127
1, 424387, Note_on_c, 4, 64, 127
1, 424389, Note_off_c, 1, 49, 127
1, 424400, Note_off_c, 10, 69, 127
1, 424521, Note_off_c, 4, 64, 127
1, 424528, Note_off_c, 4, 52, 127
1, 424530, Note_on_c, 2, 50, 127
1, 424530, Note_on_c, 10, 69, 127
1, 424665, Note_off_c, 10, 69, 127
1, 424672, Note_off_c, 2, 50, 127
1, 424674, Note_on_c, 1, 49, 127
1, 424674, Note_on_c, 4, 64, 127
1, 424815, Note_off_c, 1, 49, 127
1, 424817, Note_on_c, 12, 47, 127
1, 424817, Note_on_c, 1, 61, 127
1, 424821, Note_off_c, 4, 64, 127
1, 424951, Note_off_c, 1, 61, 127
1, 424958, Note_off_c, 12, 47, 127
1, 424960, Note_on_c, 10, 45, 127
1, 424960, Note_on_c, 4, 64, 127
1, 425095, Note_off_c, 4, 64, 127
1, 425102, Note_off_c, 10, 45, 127
1, 425104, Note_on_c, 2, 50, 127
1, 425104, Note_on_c, 6, 66, 127
1, 425248, Note_on_c, 2, 62, 127
1, 425261, Note_off_c, 6, 66, 127
1, 425382, Note_off_c, 2, 62, 127
1, 425391, Note_on_c, 4, 64, 127
1, 425526, Note_off_c, 4, 64, 127
1, 425535, Note_on_c, 6, 66, 127
1, 425679, Note_on_c, 7, 67, 127
1, 425683, Note_off_c, 6, 66, 127
1, 425749, Note_off_c, 2, 50, 127
1, 425813, Note_off_c, 7, 67, 127
1, 425822, Note_on_c, 10, 69, 127
1, 425957, Note_off_c, 10, 69, 127
1, 425966, Note_on_c, 3, 51, 127
1, 425966, Note_on_c, 12, 71, 127
1, 426110, Note_on_c, 6, 54, 127
1, 426110, Note_on_c, 6, 66, 127
1, 426112, Note_off_c, 3, 51, 127
1, 426123, Note_off_c, 12, 71, 127
1, 426244, Note_off_c, 6, 66, 127
1, 426251, Note_off_c, 6, 54, 127
1, 426253, Note_on_c, 4, 52, 127
1, 426253, Note_on_c, 12, 71, 127
1, 426388, Note_off_c, 12, 71, 127
1, 426395, Note_off_c, 4, 52, 127
1, 426397, Note_on_c, 3, 51, 127
1, 426397, Note_on_c, 6, 66, 127
1, 426538, Note_off_c, 3, 51, 127
1, 426540, Note_on_c, 1, 49, 127
1, 426540, Note_on_c, 3, 63, 127
1, 426544, Note_off_c, 6, 66, 127
1, 426674, Note_off_c, 3, 63, 127
1, 426681, Note_off_c, 1, 49, 127
1, 426683, Note_on_c, 12, 47, 127
1, 426683, Note_on_c, 6, 66, 127
1, 426818, Note_off_c, 6, 66, 127
1, 426825, Note_off_c, 12, 47, 127
1, 426827, Note_on_c, 4, 52, 127
1, 426827, Note_on_c, 7, 67, 127
1, 426971, Note_on_c, 4, 64, 127
1, 426984, Note_off_c, 7, 67, 127
1, 427105, Note_off_c, 4, 64, 127
1, 427114, Note_on_c, 6, 66, 127
1, 427249, Note_off_c, 6, 66, 127
1, 427258, Note_on_c, 7, 67, 127
1, 427402, Note_on_c, 10, 69, 127
1, 427406, Note_off_c, 7, 67, 127
1, 427472, Note_off_c, 4, 52, 127
1, 427536, Note_off_c, 10, 69, 127
1, 427545, Note_on_c, 12, 71, 127
1, 427680, Note_off_c, 12, 71, 127
1, 427689, Note_on_c, 4, 52, 127
1, 427689, Note_on_c, 0, 72, 127
1, 427833, Note_on_c, 7, 55, 127
1, 427833, Note_on_c, 7, 67, 127
1, 427835, Note_off_c, 4, 52, 127
1, 427846, Note_off_c, 0, 72, 127
1, 427967, Note_off_c, 7, 67, 127
1, 427974, Note_off_c, 7, 55, 127
1, 427976, Note_on_c, 6, 54, 127
1, 427976, Note_on_c, 0, 72, 127
1, 428111, Note_off_c, 0, 72, 127
1, 428118, Note_off_c, 6, 54, 127
1, 428120, Note_on_c, 4, 52, 127
1, 428120, Note_on_c, 7, 67, 127
1, 428261, Note_off_c, 4, 52, 127
1, 428263, Note_on_c, 2, 50, 127
1, 428263, Note_on_c, 4, 64, 127
1, 428267, Note_off_c, 7, 67, 127
1, 428397, Note_off_c, 4, 64, 127
1, 428404, Note_off_c, 2, 50, 127
1, 428406, Note_on_c, 0, 48, 127
1, 428406, Note_on_c, 7, 67, 127
1, 428541, Note_off_c, 7, 67, 127
1, 428548, Note_off_c, 0, 48, 127
1, 428550, Note_on_c, 6, 54, 127
1, 428550, Note_on_c, 10, 69, 127
1, 428694, Note_on_c, 6, 66, 127
1, 428707, Note_off_c, 10, 69, 127
1, 428828, Note_off_c, 6, 66, 127
1, 428837, Note_on_c, 7, 67, 127
1, 428972, Note_off_c, 7, 67, 127
1, 428981, Note_on_c, 10, 69, 127
1, 429125, Note_on_c, 12, 71, 127
1, 429129, Note_off_c, 10, 69, 127
1, 429195, Note_off_c, 6, 54, 127
1, 429259, Note_off_c, 12, 71, 127
1, 429268, Note_on_c, 0, 72, 127
1, 429403, Note_off_c, 0, 72, 127
1, 429412, Note_on_c, 6, 54, 127
1, 429412, Note_on_c, 2, 74, 127
1, 429556, Note_on_c, 10, 57, 127
1, 429556, Note_on_c, 10, 69, 127
1, 429558, Note_off_c, 6, 54, 127
1, 429569, Note_off_c, 2, 74, 127
1, 429690, Note_off_c, 10, 69, 127
1, 429697, Note_off_c, 10, 57, 127
1, 429699, Note_on_c, 7, 55, 127
1, 429699, Note_on_c, 2, 74, 127
1, 429834, Note_off_c, 2, 74, 127
1, 429841, Note_off_c, 7, 55, 127
1, 429843, Note_on_c, 6, 54, 127
1, 429843, Note_on_c, 10, 69, 127
1, 429984, Note_off_c, 6, 54, 127
1, 429986, Note_on_c, 4, 52, 127
1, 429986, Note_on_c, 6, 66, 127
1, 429990, Note_off_c, 10, 69, 127
1, 430120, Note_off_c, 6, 66, 127
1, 430127, Note_off_c, 4, 52, 127
1, 430129, Note_on_c, 2, 50, 127
1, 430129, Note_on_c, 10, 69, 127
1, 430264, Note_off_c, 10, 69, 127
1, 430271, Note_off_c, 2, 50, 127
1, 430273, Note_on_c, 7, 55, 127
1, 430273, Note_on_c, 12, 71, 127
1, 430417, Note_on_c, 7, 67, 127
1, 430430, Note_off_c, 12, 71, 127
1, 430551, Note_off_c, 7, 67, 127
1, 430560, Note_on_c, 12, 71, 127
1, 430695, Note_off_c, 12, 71, 127
1, 430704, Note_on_c, 2, 74, 127
1, 430848, Note_on_c, 12, 71, 127
1, 430852, Note_off_c, 2, 74, 127
1, 430982, Note_off_c, 12, 71, 127
1, 430991, Note_on_c, 2, 74, 127
1, 431126, Note_off_c, 2, 74, 127
1, 431134, Note_off_c, 7, 55, 127
1, 431135, Note_on_c, 7, 79, 127
1, 431207, Note_on_c, 7, 55, 127
1, 431278, Note_off_c, 7, 55, 127
1, 431279, Note_on_c, 10, 57, 127
1, 431279, Note_on_c, 12, 71, 127
1, 431293, Note_off_c, 7, 79, 127
1, 431351, Note_off_c, 10, 57, 127
1, 431352, Note_on_c, 12, 59, 127
1, 431415, Note_off_c, 12, 71, 127
1, 431423, Note_off_c, 12, 59, 127
1, 431424, Note_on_c, 1, 61, 127
1, 431424, Note_on_c, 7, 79, 127
1, 431495, Note_off_c, 1, 61, 127
1, 431496, Note_on_c, 2, 62, 127
1, 431559, Note_off_c, 7, 79, 127
1, 431567, Note_off_c, 2, 62, 127
1, 431568, Note_on_c, 4, 64, 127
1, 431568, Note_on_c, 7, 79, 127
1, 431639, Note_off_c, 4, 64, 127
1, 431640, Note_on_c, 6, 66, 127
1, 431711, Note_off_c, 6, 66, 127
1, 431712, Note_on_c, 7, 67, 127
1, 431712, Note_on_c, 12, 71, 127
1, 431717, Note_off_c, 7, 79, 127
1, 431784, Note_off_c, 7, 67, 127
1, 431785, Note_on_c, 6, 66, 127
1, 431848, Note_off_c, 12, 71, 127
1, 431856, Note_off_c, 6, 66, 127
1, 431857, Note_on_c, 4, 64, 127
1, 431857, Note_on_c, 7, 79, 127
1, 431928, Note_off_c, 4, 64, 127
1, 431929, Note_on_c, 2, 62, 127
1, 431992, Note_off_c, 7, 79, 127
1, 432000, Note_off_c, 2, 62, 127
1, 432001, Note_on_c, 0, 60, 127
1, 432001, Note_on_c, 7, 79, 127
1, 432146, Note_on_c, 10, 69, 127
1, 432160, Note_off_c, 7, 79, 127
1, 432282, Note_off_c, 10, 69, 127
1, 432291, Note_on_c, 7, 79, 127
1, 432409, Note_off_c, 0, 60, 127
1, 432427, Note_off_c, 7, 79, 127
1, 432436, Note_on_c, 2, 62, 127
1, 432436, Note_on_c, 6, 78, 127
1, 432507, Note_off_c, 2, 62, 127
1, 432508, Note_on_c, 4, 64, 127
1, 432579, Note_off_c, 4, 64, 127
1, 432580, Note_on_c, 6, 66, 127
1, 432580, Note_on_c, 10, 69, 127
1, 432585, Note_off_c, 6, 78, 127
1, 432652, Note_off_c, 6, 66, 127
1, 432653, Note_on_c, 4, 64, 127
1, 432716, Note_off_c, 10, 69, 127
1, 432724, Note_off_c, 4, 64, 127
1, 432725, Note_on_c, 2, 62, 127
1, 432725, Note_on_c, 6, 78, 127
1, 432796, Note_off_c, 2, 62, 127
1, 432797, Note_on_c, 0, 60, 127
1, 432860, Note_off_c, 6, 78, 127
1, 432868, Note_off_c, 0, 60, 127
1, 432869, Note_on_c, 12, 59, 127
1, 432869, Note_on_c, 6, 78, 127
1, 433014, Note_on_c, 7, 67, 127
1, 433028, Note_off_c, 6, 78, 127
1, 433150, Note_off_c, 7, 67, 127
1, 433159, Note_on_c, 6, 78, 127
1, 433277, Note_off_c, 12, 59, 127
1, 433295, Note_off_c, 6, 78, 127
1, 433304, Note_on_c, 0, 60, 127
1, 433304, Note_on_c, 4, 76, 127
1, 433375, Note_off_c, 0, 60, 127
1, 433376, Note_on_c, 2, 62, 127
1, 433447, Note_off_c, 2, 62, 127
1, 433448, Note_on_c, 4, 64, 127
1, 433448, Note_on_c, 7, 67, 127
1, 433453, Note_off_c, 4, 76, 127
1, 433520, Note_off_c, 4, 64, 127
1, 433521, Note_on_c, 2, 62, 127
1, 433584, Note_off_c, 7, 67, 127
1, 433592, Note_off_c, 2, 62, 127
1, 433593, Note_on_c, 0, 60, 127
1, 433593, Note_on_c, 4, 76, 127
1, 433664, Note_off_c, 0, 60, 127
1, 433665, Note_on_c, 12, 59, 127
1, 433728, Note_off_c, 4, 76, 127
1, 433736, Note_off_c, 12, 59, 127
1, 433737, Note_on_c, 10, 57, 127
1, 433737, Note_on_c, 4, 76, 127
1, 433882, Note_on_c, 6, 66, 127
1, 433896, Note_off_c, 4, 76, 127
1, 434018, Note_off_c, 6, 66, 127
1, 434027, Note_on_c, 4, 76, 127
1, 434145, Note_off_c, 10, 57, 127
1, 434163, Note_off_c, 4, 76, 127
1, 434172, Note_on_c, 12, 59, 127
1, 434172, Note_on_c, 2, 74, 127
1, 434243, Note_off_c, 12, 59, 127
1, 434244, Note_on_c, 0, 60, 127
1, 434315, Note_off_c, 0, 60, 127
1, 434316, Note_on_c, 2, 62, 127
1, 434316, Note_on_c, 6, 66, 127
1, 434321, Note_off_c, 2, 74, 127
1, 434388, Note_off_c, 2, 62, 127
1, 434389, Note_on_c, 0, 60, 127
1, 434452, Note_off_c, 6, 66, 127
1, 434460, Note_off_c, 0, 60, 127
1, 434461, Note_on_c, 12, 59, 127
1, 434461, Note_on_c, 2, 74, 127
1, 434532, Note_off_c, 12, 59, 127
1, 434533, Note_on_c, 10, 57, 127
1, 434596, Note_off_c, 2, 74, 127
1, 434604, Note_off_c, 10, 57, 127
1, 434605, Note_on_c, 7, 55, 127
1, 434605, Note_on_c, 2, 74, 127
1, 434750, Note_on_c, 4, 64, 127
1, 434764, Note_off_c, 2, 74, 127
1, 434886, Note_off_c, 4, 64, 127
1, 434895, Note_on_c, 2, 74, 127
1, 435013, Note_off_c, 7, 55, 127
1, 435031, Note_off_c, 2, 74, 127
1, 435040, Note_on_c, 10, 57, 127
1, 435040, Note_on_c, 0, 72, 127
1, 435111, Note_off_c, 10, 57, 127
1, 435112, Note_on_c, 12, 59, 127
1, 435183, Note_off_c, 12, 59, 127
1, 435184, Note_on_c, 0, 60, 127
1, 435184, Note_on_c, 4, 64, 127
1, 435189, Note_off_c, 0, 72, 127
1, 435256, Note_off_c, 0, 60, 127
1, 435257, Note_on_c, 12, 59, 127
1, 435320, Note_off_c, 4, 64, 127
1, 435328, Note_off_c, 12, 59, 127
1, 435329, Note_on_c, 10, 57, 127
1, 435329, Note_on_c, 0, 72, 127
1, 435400, Note_off_c, 10, 57, 127
1, 435401, Note_on_c, 7, 55, 127
1, 435464, Note_off_c, 0, 72, 127
1, 435472, Note_off_c, 7, 55, 127
1, 435473, Note_on_c, 6, 54, 127
1, 435473, Note_on_c, 0, 72, 127
1, 435618, Note_on_c, 2, 62, 127
1, 435632, Note_off_c, 0, 72, 127
1, 435754, Note_off_c, 2, 62, 127
1, 435763, Note_on_c, 0, 72, 127
1, 435881, Note_off_c, 6, 54, 127
1, 435899, Note_off_c, 0, 72, 127
1, 435908, Note_on_c, 7, 55, 127
1, 435908, Note_on_c, 12, 71, 127
1, 435979, Note_off_c, 7, 55, 127
1, 435980, Note_on_c, 10, 57, 127
1, 436051, Note_off_c, 10, 57, 127
1, 436052, Note_on_c, 12, 59, 127
1, 436052, Note_on_c, 2, 62, 127
1, 436057, Note_off_c, 12, 71, 127
1, 436124, Note_off_c, 12, 59, 127
1, 436125, Note_on_c, 10, 57, 127
1, 436188, Note_off_c, 2, 62, 127
1, 436196, Note_off_c, 10, 57, 127
1, 436197, Note_on_c, 7, 55, 127
1, 436197, Note_on_c, 12, 71, 127
1, 436268, Note_off_c, 7, 55, 127
1, 436269, Note_on_c, 6, 54, 127
1, 436332, Note_off_c, 12, 71, 127
1, 436340, Note_off_c, 6, 54, 127
1, 436341, Note_on_c, 4, 52, 127
1, 436341, Note_on_c, 12, 71, 127
1, 436412, Note_off_c, 4, 52, 127
1, 436413, Note_on_c, 6, 54, 127
1, 436484, Note_off_c, 6, 54, 127
1, 436485, Note_on_c, 7, 55, 127
1, 436485, Note_on_c, 0, 60, 127
1, 436499, Note_off_c, 12, 71, 127
1, 436557, Note_off_c, 7, 55, 127
1, 436558, Note_on_c, 6, 54, 127
1, 436621, Note_off_c, 0, 60, 127
1, 436629, Note_off_c, 6, 54, 127
1, 436630, Note_on_c, 4, 52, 127
1, 436630, Note_on_c, 12, 71, 127
1, 436701, Note_off_c, 4, 52, 127
1, 436702, Note_on_c, 2, 50, 127
1, 436765, Note_off_c, 12, 71, 127
1, 436773, Note_off_c, 2, 50, 127
1, 436774, Note_on_c, 0, 48, 127
1, 436774, Note_on_c, 10, 69, 127
1, 436845, Note_off_c, 0, 48, 127
1, 436846, Note_on_c, 12, 47, 127
1, 436917, Note_off_c, 12, 47, 127
1, 436918, Note_on_c, 0, 48, 127
1, 436918, Note_on_c, 12, 71, 127
1, 436923, Note_off_c, 10, 69, 127
1, 436990, Note_off_c, 0, 48, 127
1, 436991, Note_on_c, 2, 50, 127
1, 437054, Note_off_c, 12, 71, 127
1, 437062, Note_off_c, 2, 50, 127
1, 437063, Note_on_c, 4, 52, 127
1, 437063, Note_on_c, 7, 67, 127
1, 437134, Note_off_c, 4, 52, 127
1, 437135, Note_on_c, 0, 48, 127
1, 437198, Note_off_c, 7, 67, 127
1, 437206, Note_off_c, 0, 48, 127
1, 437207, Note_on_c, 2, 50, 127
1, 437207, Note_on_c, 6, 66, 127
1, 437352, Note_on_c, 6, 54, 127
1, 437352, Note_on_c, 2, 62, 127
1, 437354, Note_off_c, 2, 50, 127
1, 437365, Note_off_c, 6, 66, 127
1, 437487, Note_off_c, 2, 62, 127
1, 437494, Note_off_c, 6, 54, 127
1, 437496, Note_on_c, 10, 57, 127
1, 437496, Note_on_c, 6, 66, 127
1, 437632, Note_off_c, 6, 66, 127
1, 437639, Note_off_c, 10, 57, 127
1, 437641, Note_on_c, 2, 50, 127
1, 437641, Note_on_c, 7, 67, 127
1, 437784, Note_off_c, 2, 50, 127
1, 437786, Note_on_c, 7, 55, 127
1, 437786, Note_on_c, 2, 62, 127
1, 437791, Note_off_c, 7, 67, 127
1, 437922, Note_off_c, 2, 62, 127
1, 437929, Note_off_c, 7, 55, 127
1, 437931, Note_on_c, 12, 59, 127
1, 437931, Note_on_c, 7, 67, 127
1, 438067, Note_off_c, 7, 67, 127
1, 438074, Note_off_c, 12, 59, 127
1, 438076, Note_on_c, 6, 54, 127
1, 438076, Note_on_c, 10, 69, 127
1, 438221, Note_on_c, 2, 50, 127
1, 438221, Note_on_c, 2, 62, 127
1, 438223, Note_off_c, 6, 54, 127
1, 438234, Note_off_c, 10, 69, 127
1, 438356, Note_off_c, 2, 62, 127
1, 438363, Note_off_c, 2, 50, 127
1, 438365, Note_on_c, 6, 54, 127
1, 438365, Note_on_c, 10, 69, 127
1, 438501, Note_off_c, 10, 69, 127
1, 438508, Note_off_c, 6, 54, 127
1, 438510, Note_on_c, 7, 55, 127
1, 438510, Note_on_c, 12, 71, 127
1, 438653, Note_off_c, 7, 55, 127
1, 438655, Note_on_c, 2, 50, 127
1, 438655, Note_on_c, 2, 62, 127
1, 438660, Note_off_c, 12, 71, 127
1, 438791, Note_off_c, 2, 62, 127
1, 438798, Note_off_c, 2, 50, 127
1, 438800, Note_on_c, 7, 55, 127
1, 438800, Note_on_c, 12, 71, 127
1, 438936, Note_off_c, 12, 71, 127
1, 438943, Note_off_c, 7, 55, 127
1, 438945, Note_on_c, 10, 57, 127
1, 438945, Note_on_c, 0, 72, 127
1, 439090, Note_on_c, 2, 50, 127
1, 439090, Note_on_c, 2, 62, 127
1, 439092, Note_off_c, 10, 57, 127
1, 439103, Note_off_c, 0, 72, 127
1, 439225, Note_off_c, 2, 62, 127
1, 439232, Note_off_c, 2, 50, 127
1, 439234, Note_on_c, 10, 57, 127
1, 439234, Note_on_c, 0, 72, 127
1, 439370, Note_off_c, 0, 72, 127
1, 439377, Note_off_c, 10, 57, 127
1, 439379, Note_on_c, 7, 55, 127
1, 439379, Note_on_c, 12, 71, 127
1, 439522, Note_off_c, 7, 55, 127
1, 439524, Note_on_c, 2, 50, 127
1, 439524, Note_on_c, 2, 62, 127
1, 439529, Note_off_c, 12, 71, 127
1, 439660, Note_off_c, 2, 62, 127
1, 439667, Note_off_c, 2, 50, 127
1, 439669, Note_on_c, 7, 55, 127
1, 439669, Note_on_c, 12, 71, 127
1, 439805, Note_off_c, 12, 71, 127
1, 439812, Note_off_c, 7, 55, 127
1, 439814, Note_on_c, 0, 60, 127
1, 439814, Note_on_c, 10, 69, 127
1, 439959, Note_on_c, 2, 50, 127
1, 439959, Note_on_c, 2, 62, 127
1, 439961, Note_off_c, 0, 60, 127
1, 439972, Note_off_c, 10, 69, 127
1, 440094, Note_off_c, 2, 62, 127
1, 440101, Note_off_c, 2, 50, 127
1, 440103, Note_on_c, 0, 60, 127
1, 440103, Note_on_c, 10, 69, 127
1, 440239, Note_off_c, 10, 69, 127
1, 440246, Note_off_c, 0, 60, 127
1, 440248, Note_on_c, 12, 59, 127
1, 440248, Note_on_c, 7, 67, 127
1, 440391, Note_off_c, 12, 59, 127
1, 440393, Note_on_c, 2, 50, 127
1, 440393, Note_on_c, 2, 62, 127
1, 440398, Note_off_c, 7, 67, 127
1, 440529, Note_off_c, 2, 62, 127
1, 440536, Note_off_c, 2, 50, 127
1, 440538, Note_on_c, 12, 59, 127
1, 440538, Note_on_c, 7, 67, 127
1, 440674, Note_off_c, 7, 67, 127
1, 440681, Note_off_c, 12, 59, 127
1, 440683, Note_on_c, 10, 57, 127
1, 440683, Note_on_c, 6, 66, 127
1, 440828, Note_on_c, 2, 50, 127
1, 440828, Note_on_c, 2, 62, 127
1, 440830, Note_off_c, 10, 57, 127
1, 440841, Note_off_c, 6, 66, 127
1, 440963, Note_off_c, 2, 62, 127
1, 440970, Note_off_c, 2, 50, 127
1, 440972, Note_on_c, 0, 48, 127
1, 440972, Note_on_c, 6, 66, 127
1, 441108, Note_off_c, 6, 66, 127
1, 441115, Note_off_c, 0, 48, 127
1, 441117, Note_on_c, 12, 47, 127
1, 441117, Note_on_c, 7, 67, 127
1, 441260, Note_off_c, 12, 47, 127
1, 441262, Note_on_c, 7, 43, 127
1, 441262, Note_on_c, 12, 59, 127
1, 441267, Note_off_c, 7, 67, 127
1, 441398, Note_off_c, 12, 59, 127
1, 441405, Note_off_c, 7, 43, 127
1, 441407, Note_on_c, 12, 47, 127
1, 441407, Note_on_c, 7, 67, 127
1, 441543, Note_off_c, 7, 67, 127
1, 441550, Note_off_c, 12, 47, 127
1, 441552, Note_on_c, 0, 48, 127
1, 441552, Note_on_c, 0, 60, 127
1, 441697, Note_on_c, 10, 45, 127
1, 441697, Note_on_c, 7, 67, 127
1, 441699, Note_off_c, 0, 48, 127
1, 441710, Note_off_c, 0, 60, 127
1, 441832, Note_off_c, 7, 67, 127
1, 441839, Note_off_c, 10, 45, 127
1, 441841, Note_on_c, 0, 48, 127
1, 441841, Note_on_c, 0, 60, 127
1, 441977, Note_off_c, 0, 60, 127
1, 441984, Note_off_c, 0, 48, 127
1, 441986, Note_on_c, 2, 50, 127
1, 441986, Note_on_c, 6, 66, 127
1, 442130, Note_off_c, 2, 50, 127
1, 442132, Note_on_c, 0, 48, 127
1, 442132, Note_on_c, 2, 62, 127
1, 442137, Note_off_c, 6, 66, 127
1, 442270, Note_off_c, 2, 62, 127
1, 442277, Note_off_c, 0, 48, 127
1, 442284, Note_on_c, 2, 50, 127
1, 442284, Note_on_c, 6, 66, 127
1, 442405, Note_off_c, 6, 66, 127
1, 442423, Note_off_c, 2, 50, 127
1, 442437, Note_on_c, 7, 43, 127
1, 442437, Note_on_c, 7, 67, 127
1, 442585, Note_off_c, 7, 43, 127
1, 442587, Note_on_c, 2, 62, 127
1, 442587, Note_on_c, 12, 47, 127
1, 442596, Note_off_c, 7, 67, 127
1, 442723, Note_off_c, 2, 62, 127
1, 442730, Note_off_c, 12, 47, 127
1, 442732, Note_on_c, 7, 67, 127
1, 442732, Note_on_c, 7, 43, 127
1, 442869, Note_off_c, 7, 67, 127
1, 442876, Note_off_c, 7, 43, 127
1, 442878, Note_on_c, 6, 66, 127
1, 442878, Note_on_c, 2, 50, 127
1, 443022, Note_off_c, 2, 50, 127
1, 443024, Note_on_c, 2, 62, 127
1, 443024, Note_on_c, 2, 38, 127
1, 443029, Note_off_c, 6, 66, 127
1, 443162, Note_off_c, 2, 62, 127
1, 443169, Note_off_c, 2, 38, 127
1, 443171, Note_on_c, 6, 66, 127
1, 443171, Note_on_c, 2, 50, 127
1, 443308, Note_off_c, 6, 66, 127
1, 443315, Note_off_c, 2, 50, 127
1, 443317, Note_on_c, 7, 67, 127
1, 443317, Note_on_c, 12, 47, 127
1, 443463, Note_on_c, 2, 62, 127
1, 443463, Note_on_c, 7, 43, 127
1, 443465, Note_off_c, 12, 47, 127
1, 443476, Note_off_c, 7, 67, 127
1, 443599, Note_off_c, 2, 62, 127
1, 443606, Note_off_c, 7, 43, 127
1, 443608, Note_on_c, 7, 67, 127
1, 443608, Note_on_c, 12, 47, 127
1, 443745, Note_off_c, 7, 67, 127
1, 443752, Note_off_c, 12, 47, 127
1, 443754, Note_on_c, 6, 66, 127
1, 443754, Note_on_c, 2, 50, 127
1, 443898, Note_off_c, 2, 50, 127
1, 443900, Note_on_c, 2, 62, 127
1, 443900, Note_on_c, 2, 38, 127
1, 443905, Note_off_c, 6, 66, 127
1, 444038, Note_off_c, 2, 62, 127
1, 444045, Note_off_c, 2, 38, 127
1, 444047, Note_on_c, 6, 66, 127
1, 444047, Note_on_c, 2, 50, 127
1, 444184, Note_off_c, 6, 66, 127
1, 444191, Note_off_c, 2, 50, 127
1, 444193, Note_on_c, 7, 67, 127
1, 444193, Note_on_c, 12, 47, 127
1, 444339, Note_on_c, 2, 62, 127
1, 444339, Note_on_c, 7, 43, 127
1, 444341, Note_off_c, 12, 47, 127
1, 444352, Note_off_c, 7, 67, 127
1, 444475, Note_off_c, 2, 62, 127
1, 444482, Note_off_c, 7, 43, 127
1, 444484, Note_on_c, 12, 71, 127
1, 444484, Note_on_c, 7, 55, 127
1, 444621, Note_off_c, 12, 71, 127
1, 444628, Note_off_c, 7, 55, 127
1, 444630, Note_on_c, 10, 69, 127
1, 444630, Note_on_c, 6, 54, 127
1, 444774, Note_off_c, 6, 54, 127
1, 444776, Note_on_c, 6, 66, 127
1, 444776, Note_on_c, 2, 50, 127
1, 444781, Note_off_c, 10, 69, 127
1, 444914, Note_off_c, 6, 66, 127
1, 444921, Note_off_c, 2, 50, 127
1, 444923, Note_on_c, 10, 69, 127
1, 444923, Note_on_c, 6, 54, 127
1, 445060, Note_off_c, 10, 69, 127
1, 445067, Note_off_c, 6, 54, 127
1, 445069, Note_on_c, 12, 71, 127
1, 445069, Note_on_c, 7, 55, 127
1, 445215, Note_on_c, 7, 67, 127
1, 445215, Note_on_c, 7, 43, 127
1, 445217, Note_off_c, 7, 55, 127
1, 445228, Note_off_c, 12, 71, 127
1, 445351, Note_off_c, 7, 67, 127
1, 445358, Note_off_c, 7, 43, 127
1, 445360, Note_on_c, 12, 71, 127
1, 445360, Note_on_c, 7, 55, 127
1, 445497, Note_off_c, 12, 71, 127
1, 445504, Note_off_c, 7, 55, 127
1, 445506, Note_on_c, 10, 69, 127
1, 445506, Note_on_c, 6, 54, 127
1, 445650, Note_off_c, 6, 54, 127
1, 445652, Note_on_c, 6, 66, 127
1, 445652, Note_on_c, 2, 50, 127
1, 445657, Note_off_c, 10, 69, 127
1, 445790, Note_off_c, 6, 66, 127
1, 445797, Note_off_c, 2, 50, 127
1, 445799, Note_on_c, 10, 69, 127
1, 445799, Note_on_c, 6, 54, 127
1, 445936, Note_off_c, 10, 69, 127
1, 445943, Note_off_c, 6, 54, 127
1, 445945, Note_on_c, 12, 71, 127
1, 445945, Note_on_c, 7, 55, 127
1, 446091, Note_on_c, 7, 67, 127
1, 446091, Note_on_c, 12, 59, 127
1, 446093, Note_off_c, 7, 55, 127
1, 446104, Note_off_c, 12, 71, 127
1, 446227, Note_off_c, 7, 67, 127
1, 446234, Note_off_c, 12, 59, 127
1, 446236, Note_on_c, 7, 79, 127
1, 446236, Note_on_c, 7, 55, 127
1, 446373, Note_off_c, 7, 79, 127
1, 446380, Note_off_c, 7, 55, 127
1, 446382, Note_on_c, 6, 78, 127
1, 446382, Note_on_c, 2, 62, 127
1, 446526, Note_off_c, 2, 62, 127
1, 446528, Note_on_c, 2, 74, 127
1, 446528, Note_on_c, 2, 50, 127
1, 446533, Note_off_c, 6, 78, 127
1, 446666, Note_off_c, 2, 74, 127
1, 446673, Note_off_c, 2, 50, 127
1, 446675, Note_on_c, 6, 78, 127
1, 446675, Note_on_c, 2, 62, 127
1, 446812, Note_off_c, 6, 78, 127
1, 446819, Note_off_c, 2, 62, 127
1, 446821, Note_on_c, 7, 79, 127
1, 446821, Note_on_c, 12, 59, 127
1, 446967, Note_on_c, 2, 74, 127
1, 446967, Note_on_c, 7, 55, 127
1, 446969, Note_off_c, 12, 59, 127
1, 446980, Note_off_c, 7, 79, 127
1, 447103, Note_off_c, 2, 74, 127
1, 447110, Note_off_c, 7, 55, 127
1, 447112, Note_on_c, 7, 79, 127
1, 447112, Note_on_c, 12, 59, 127
1, 447249, Note_off_c, 7, 79, 127
1, 447256, Note_off_c, 12, 59, 127
1, 447258, Note_on_c, 6, 78, 127
1, 447258, Note_on_c, 2, 62, 127
1, 447402, Note_off_c, 2, 62, 127
1, 447404, Note_on_c, 2, 74, 127
1, 447404, Note_on_c, 2, 50, 127
1, 447409, Note_off_c, 6, 78, 127
1, 447542, Note_off_c, 2, 74, 127
1, 447549, Note_off_c, 2, 50, 127
1, 447551, Note_on_c, 6, 78, 127
1, 447551, Note_on_c, 2, 62, 127
1, 447701, Note_off_c, 2, 62, 127
1, 447701, Note_off_c, 6, 78, 127
1, 447710, Note_on_c, 12, 59, 127
1, 447710, Note_on_c, 7, 79, 127
1, 447858, Note_off_c, 12, 59, 127
1, 447862, Note_on_c, 12, 71, 127
1, 447862, Note_on_c, 7, 55, 127
1, 447869, Note_off_c, 7, 79, 127
1, 447998, Note_off_c, 12, 71, 127
1, 448005, Note_off_c, 7, 55, 127
1, 448012, Note_on_c, 12, 59, 127
1, 448012, Note_on_c, 7, 79, 127
1, 448149, Note_off_c, 7, 79, 127
1, 448156, Note_off_c, 12, 59, 127
1, 448158, Note_on_c, 4, 64, 127
1, 448158, Note_on_c, 7, 79, 127
1, 448302, Note_off_c, 4, 64, 127
1, 448304, Note_on_c, 2, 62, 127
1, 448304, Note_on_c, 12, 71, 127
1, 448309, Note_off_c, 7, 79, 127
1, 448442, Note_off_c, 12, 71, 127
1, 448449, Note_off_c, 2, 62, 127
1, 448451, Note_on_c, 4, 64, 127
1, 448451, Note_on_c, 7, 79, 127
1, 448588, Note_off_c, 7, 79, 127
1, 448595, Note_off_c, 4, 64, 127
1, 448597, Note_on_c, 0, 60, 127
1, 448597, Note_on_c, 7, 79, 127
1, 448743, Note_on_c, 10, 57, 127
1, 448743, Note_on_c, 10, 69, 127
1, 448745, Note_off_c, 0, 60, 127
1, 448756, Note_off_c, 7, 79, 127
1, 448879, Note_off_c, 10, 69, 127
1, 448886, Note_off_c, 10, 57, 127
1, 448888, Note_on_c, 0, 60, 127
1, 448888, Note_on_c, 7, 79, 127
1, 449025, Note_off_c, 7, 79, 127
1, 449032, Note_off_c, 0, 60, 127
1, 449034, Note_on_c, 2, 62, 127
1, 449034, Note_on_c, 6, 78, 127
1, 449178, Note_off_c, 2, 62, 127
1, 449180, Note_on_c, 0, 60, 127
1, 449180, Note_on_c, 10, 69, 127
1, 449185, Note_off_c, 6, 78, 127
1, 449318, Note_off_c, 10, 69, 127
1, 449325, Note_off_c, 0, 60, 127
1, 449327, Note_on_c, 2, 62, 127
1, 449327, Note_on_c, 6, 78, 127
1, 449464, Note_off_c, 6, 78, 127
1, 449471, Note_off_c, 2, 62, 127
1, 449473, Note_on_c, 7, 55, 127
1, 449473, Note_on_c, 7, 79, 127
1, 449587, Note_on_c, 12, 59, 127
1, 449613, Note_off_c, 7, 55, 127
1, 449660, Note_off_c, 12, 59, 127
1, 449661, Note_on_c, 10, 57, 127
1, 449734, Note_off_c, 10, 57, 127
1, 449735, Note_on_c, 7, 55, 127
1, 449808, Note_off_c, 7, 55, 127
1, 449809, Note_on_c, 6, 54, 127
1, 449882, Note_off_c, 6, 54, 127
1, 449883, Note_on_c, 4, 52, 127
1, 449956, Note_off_c, 4, 52, 127
1, 449957, Note_on_c, 2, 50, 127
1, 450030, Note_off_c, 2, 50, 127
1, 450031, Note_on_c, 7, 55, 127
1, 450104, Note_off_c, 7, 55, 127
1, 450105, Note_on_c, 6, 54, 127
1, 450178, Note_off_c, 6, 54, 127
1, 450179, Note_on_c, 4, 52, 127
1, 450252, Note_off_c, 4, 52, 127
1, 450253, Note_on_c, 2, 50, 127
1, 450260, Note_off_c, 7, 79, 127
1, 450327, Note_off_c, 2, 50, 127
1, 450328, Note_on_c, 0, 48, 127
1, 450401, Note_off_c, 0, 48, 127
1, 450402, Note_on_c, 12, 47, 127
1, 450402, Note_on_c, 7, 67, 127
1, 450551, Note_on_c, 7, 43, 127
1, 450551, Note_on_c, 12, 59, 127
1, 450553, Note_off_c, 12, 47, 127
1, 450565, Note_off_c, 7, 67, 127
1, 450691, Note_off_c, 12, 59, 127
1, 450698, Note_off_c, 7, 43, 127
1, 450700, Note_on_c, 12, 47, 127
1, 450700, Note_on_c, 7, 67, 127
1, 450840, Note_off_c, 7, 67, 127
1, 450847, Note_off_c, 12, 47, 127
1, 450849, Note_on_c, 4, 52, 127
1, 450849, Note_on_c, 7, 67, 127
1, 450996, Note_off_c, 4, 52, 127
1, 450998, Note_on_c, 2, 50, 127
1, 450998, Note_on_c, 12, 59, 127
1, 451003, Note_off_c, 7, 67, 127
1, 451138, Note_off_c, 12, 59, 127
1, 451145, Note_off_c, 2, 50, 127
1, 451147, Note_on_c, 4, 52, 127
1, 451147, Note_on_c, 7, 67, 127
1, 451287, Note_off_c, 7, 67, 127
1, 451294, Note_off_c, 4, 52, 127
1, 451296, Note_on_c, 0, 48, 127
1, 451296, Note_on_c, 7, 67, 127
1, 451454, Note_on_c, 10, 45, 127
1, 451454, Note_on_c, 0, 60, 127
1, 451456, Note_off_c, 0, 48, 127
1, 451468, Note_off_c, 7, 67, 127
1, 451602, Note_off_c, 0, 60, 127
1, 451609, Note_off_c, 10, 45, 127
1, 451611, Note_on_c, 0, 48, 127
1, 451611, Note_on_c, 7, 67, 127
1, 451759, Note_off_c, 7, 67, 127
1, 451766, Note_off_c, 0, 48, 127
1, 451768, Note_on_c, 2, 50, 127
1, 451768, Note_on_c, 6, 66, 127
1, 451936, Note_off_c, 2, 50, 127
1, 451939, Note_on_c, 0, 48, 127
1, 451939, Note_on_c, 2, 62, 127
1, 451944, Note_off_c, 6, 66, 127
1, 452099, Note_off_c, 2, 62, 127
1, 452107, Note_off_c, 0, 48, 127
1, 452110, Note_on_c, 2, 50, 127
1, 452110, Note_on_c, 6, 66, 127
1, 452270, Note_off_c, 6, 66, 127
1, 452278, Note_off_c, 2, 50, 127
1, 452353, Note_on_c, 7, 55, 127
1, 452353, Note_on_c, 7, 43, 127
1, 454153, Note_off_c, 7, 43, 127
1, 454153, Note_off_c, 7, 55, 127
1, 460800, End_track
0, 0, End_of_file
