0, 0, Header, 0, 1, 384
1, 0, Start_track
1, 0, Copyright_t, "(C) John Sankey 1998"
1, 0, Program_c, 0, 6
1, 0, Pitch_bend_c, 0, 8192
1, 0, Program_c, 1, 6
1, 0, Pitch_bend_c, 1, 7792
1, 0, Program_c, 2, 6
1, 0, Pitch_bend_c, 2, 7876
1, 0, Program_c, 3, 6
1, 0, Pitch_bend_c, 3, 7952
1, 0, Program_c, 4, 6
1, 0, Pitch_bend_c, 4, 7792
1, 0, Program_c, 5, 6
1, 0, Pitch_bend_c, 5, 8112
1, 0, Program_c, 6, 6
1, 0, Pitch_bend_c, 6, 7712
1, 0, Program_c, 7, 6
1, 0, Pitch_bend_c, 7, 8037
1, 0, Program_c, 8, 6
1, 0, Pitch_bend_c, 8, 7872
1, 0, Program_c, 10, 6
1, 0, Pitch_bend_c, 10, 7712
1, 0, Program_c, 11, 6
1, 0, Pitch_bend_c, 11, 8032
1, 0, Program_c, 12, 6
1, 0, Pitch_bend_c, 12, 7872
1, 0, Tempo, 500000
1, 138, Note_on_c, 4, 52, 127
1, 280, Note_off_c, 4, 52, 127
1, 290, Note_on_c, 3, 51, 127
1, 432, Note_off_c, 3, 51, 127
1, 434, Note_on_c, 4, 52, 127
1, 575, Note_on_c, 4, 40, 127
1, 748, Note_off_c, 4, 52, 127
1, 779, Note_on_c, 12, 59, 127
1, 921, Note_off_c, 12, 59, 127
1, 923, Note_on_c, 10, 57, 127
1, 1065, Note_off_c, 10, 57, 127
1, 1067, Note_on_c, 12, 59, 127
1, 1209, Note_off_c, 12, 59, 127
1, 1211, Note_on_c, 6, 54, 127
1, 1353, Note_off_c, 6, 54, 127
1, 1355, Note_on_c, 10, 57, 127
1, 1497, Note_off_c, 10, 57, 127
1, 1499, Note_on_c, 7, 55, 127
1, 1641, Note_off_c, 7, 55, 127
1, 1643, Note_on_c, 6, 54, 127
1, 1725, Note_off_c, 4, 40, 127
1, 1785, Note_off_c, 6, 54, 127
1, 1787, Note_on_c, 7, 55, 127
1, 1931, Note_on_c, 4, 52, 127
1, 2073, Note_off_c, 4, 52, 127
1, 2075, Note_on_c, 3, 51, 127
1, 2217, Note_off_c, 3, 51, 127
1, 2219, Note_on_c, 4, 52, 127
1, 2357, Note_off_c, 7, 55, 127
1, 2361, Note_off_c, 4, 52, 127
1, 2363, Note_on_c, 4, 40, 127
1, 2543, Note_on_c, 7, 55, 127
1, 2685, Note_off_c, 7, 55, 127
1, 2687, Note_on_c, 6, 54, 127
1, 2829, Note_off_c, 6, 54, 127
1, 2831, Note_on_c, 7, 55, 127
1, 2973, Note_off_c, 7, 55, 127
1, 2975, Note_on_c, 3, 51, 127
1, 3117, Note_off_c, 3, 51, 127
1, 3119, Note_on_c, 6, 54, 127
1, 3261, Note_off_c, 6, 54, 127
1, 3263, Note_on_c, 4, 52, 127
1, 3405, Note_off_c, 4, 52, 127
1, 3407, Note_on_c, 3, 51, 127
1, 3513, Note_off_c, 4, 40, 127
1, 3549, Note_off_c, 3, 51, 127
1, 3551, Note_on_c, 4, 52, 127
1, 3693, Note_off_c, 4, 52, 127
1, 3695, Note_on_c, 4, 52, 127
1, 3839, Note_on_c, 3, 51, 127
1, 3980, Note_off_c, 4, 52, 127
1, 3982, Note_off_c, 3, 51, 127
1, 3984, Note_on_c, 4, 52, 127
1, 4128, Note_on_c, 4, 40, 127
1, 4269, Note_off_c, 4, 52, 127
1, 4308, Note_on_c, 4, 64, 127
1, 4450, Note_off_c, 4, 64, 127
1, 4452, Note_on_c, 3, 63, 127
1, 4594, Note_off_c, 3, 63, 127
1, 4596, Note_on_c, 4, 64, 127
1, 4728, Note_off_c, 4, 40, 127
1, 4738, Note_off_c, 4, 64, 127
1, 4740, Note_on_c, 12, 59, 127
1, 4882, Note_off_c, 12, 59, 127
1, 4884, Note_on_c, 2, 62, 127
1, 5026, Note_off_c, 2, 62, 127
1, 5028, Note_on_c, 0, 60, 127
1, 5170, Note_off_c, 0, 60, 127
1, 5172, Note_on_c, 12, 59, 127
1, 5314, Note_off_c, 12, 59, 127
1, 5316, Note_on_c, 0, 60, 127
1, 5460, Note_on_c, 10, 57, 127
1, 5602, Note_off_c, 10, 57, 127
1, 5604, Note_on_c, 8, 56, 127
1, 5746, Note_off_c, 8, 56, 127
1, 5748, Note_on_c, 10, 57, 127
1, 5886, Note_off_c, 0, 60, 127
1, 5890, Note_off_c, 10, 57, 127
1, 5892, Note_on_c, 10, 45, 127
1, 6072, Note_on_c, 6, 66, 127
1, 6214, Note_off_c, 6, 66, 127
1, 6216, Note_on_c, 4, 64, 127
1, 6358, Note_off_c, 4, 64, 127
1, 6360, Note_on_c, 6, 66, 127
1, 6502, Note_off_c, 6, 66, 127
1, 6504, Note_on_c, 1, 61, 127
1, 6612, Note_off_c, 10, 45, 127
1, 6646, Note_off_c, 1, 61, 127
1, 6648, Note_on_c, 4, 64, 127
1, 6790, Note_off_c, 4, 64, 127
1, 6792, Note_on_c, 3, 63, 127
1, 6934, Note_off_c, 3, 63, 127
1, 6936, Note_on_c, 1, 61, 127
1, 7078, Note_off_c, 1, 61, 127
1, 7080, Note_on_c, 3, 63, 127
1, 7224, Note_on_c, 12, 59, 127
1, 7366, Note_off_c, 12, 59, 127
1, 7368, Note_on_c, 11, 58, 127
1, 7510, Note_off_c, 11, 58, 127
1, 7512, Note_on_c, 12, 59, 127
1, 7650, Note_off_c, 3, 63, 127
1, 7654, Note_off_c, 12, 59, 127
1, 7656, Note_on_c, 12, 47, 127
1, 7836, Note_on_c, 12, 71, 127
1, 7978, Note_off_c, 12, 71, 127
1, 7980, Note_on_c, 10, 69, 127
1, 8122, Note_off_c, 10, 69, 127
1, 8124, Note_on_c, 12, 71, 127
1, 8266, Note_off_c, 12, 71, 127
1, 8268, Note_on_c, 6, 66, 127
1, 8410, Note_off_c, 6, 66, 127
1, 8412, Note_on_c, 10, 69, 127
1, 8518, Note_off_c, 12, 47, 127
1, 8554, Note_off_c, 10, 69, 127
1, 8556, Note_on_c, 7, 67, 127
1, 8698, Note_off_c, 7, 67, 127
1, 8700, Note_on_c, 6, 66, 127
1, 8842, Note_off_c, 6, 66, 127
1, 8844, Note_on_c, 7, 67, 127
1, 8988, Note_on_c, 4, 64, 127
1, 9130, Note_off_c, 4, 64, 127
1, 9132, Note_on_c, 3, 63, 127
1, 9274, Note_off_c, 3, 63, 127
1, 9276, Note_on_c, 4, 64, 127
1, 9414, Note_off_c, 7, 67, 127
1, 9420, Note_on_c, 4, 52, 127
1, 9564, Note_on_c, 0, 72, 127
1, 9696, Note_off_c, 4, 64, 127
1, 9706, Note_off_c, 0, 72, 127
1, 9708, Note_on_c, 12, 71, 127
1, 9708, Note_on_c, 4, 64, 127
1, 9840, Note_off_c, 4, 52, 127
1, 9850, Note_off_c, 12, 71, 127
1, 9852, Note_on_c, 0, 72, 127
1, 9994, Note_off_c, 4, 64, 127
1, 9996, Note_on_c, 6, 66, 127
1, 9996, Note_on_c, 2, 62, 127
1, 10138, Note_off_c, 0, 72, 127
1, 10140, Note_on_c, 12, 71, 127
1, 10282, Note_off_c, 2, 62, 127
1, 10282, Note_off_c, 6, 66, 127
1, 10284, Note_on_c, 4, 64, 127
1, 10284, Note_on_c, 0, 60, 127
1, 10426, Note_off_c, 12, 71, 127
1, 10428, Note_on_c, 10, 69, 127
1, 10570, Note_off_c, 0, 60, 127
1, 10570, Note_off_c, 4, 64, 127
1, 10572, Note_on_c, 12, 59, 127
1, 10572, Note_on_c, 3, 63, 127
1, 10608, Note_off_c, 10, 69, 127
1, 10743, Note_on_c, 7, 67, 127
1, 10890, Note_off_c, 7, 67, 127
1, 10892, Note_on_c, 6, 66, 127
1, 10992, Note_off_c, 3, 63, 127
1, 10992, Note_off_c, 12, 59, 127
1, 11038, Note_off_c, 6, 66, 127
1, 11040, Note_on_c, 7, 67, 127
1, 11184, Note_on_c, 0, 60, 127
1, 11184, Note_on_c, 4, 64, 127
1, 11220, Note_off_c, 7, 67, 127
1, 11328, Note_on_c, 10, 69, 127
1, 11470, Note_off_c, 4, 64, 127
1, 11470, Note_off_c, 0, 60, 127
1, 11472, Note_on_c, 2, 62, 127
1, 11472, Note_on_c, 12, 59, 127
1, 11613, Note_off_c, 10, 69, 127
1, 11616, Note_on_c, 7, 67, 127
1, 11758, Note_off_c, 12, 59, 127
1, 11758, Note_off_c, 2, 62, 127
1, 11760, Note_on_c, 0, 60, 127
1, 11760, Note_on_c, 10, 57, 127
1, 11902, Note_off_c, 7, 67, 127
1, 11904, Note_on_c, 6, 66, 127
1, 12046, Note_off_c, 10, 57, 127
1, 12046, Note_off_c, 0, 60, 127
1, 12048, Note_on_c, 12, 59, 127
1, 12048, Note_on_c, 7, 55, 127
1, 12190, Note_off_c, 6, 66, 127
1, 12192, Note_on_c, 4, 64, 127
1, 12334, Note_off_c, 7, 55, 127
1, 12334, Note_off_c, 12, 59, 127
1, 12336, Note_on_c, 10, 57, 127
1, 12336, Note_on_c, 6, 54, 127
1, 12372, Note_off_c, 4, 64, 127
1, 12507, Note_on_c, 3, 63, 127
1, 12654, Note_off_c, 3, 63, 127
1, 12656, Note_on_c, 1, 61, 127
1, 12756, Note_off_c, 6, 54, 127
1, 12756, Note_off_c, 10, 57, 127
1, 12802, Note_off_c, 1, 61, 127
1, 12804, Note_on_c, 3, 63, 127
1, 12960, Note_on_c, 7, 55, 127
1, 12960, Note_on_c, 12, 59, 127
1, 12984, Note_off_c, 3, 63, 127
1, 13104, Note_on_c, 4, 64, 127
1, 13246, Note_off_c, 12, 59, 127
1, 13246, Note_off_c, 7, 55, 127
1, 13248, Note_on_c, 10, 57, 127
1, 13248, Note_on_c, 6, 54, 127
1, 13390, Note_off_c, 4, 64, 127
1, 13392, Note_on_c, 2, 62, 127
1, 13534, Note_off_c, 6, 54, 127
1, 13534, Note_off_c, 10, 57, 127
1, 13536, Note_on_c, 7, 55, 127
1, 13536, Note_on_c, 4, 52, 127
1, 13678, Note_off_c, 2, 62, 127
1, 13680, Note_on_c, 0, 60, 127
1, 13822, Note_off_c, 4, 52, 127
1, 13822, Note_off_c, 7, 55, 127
1, 13824, Note_on_c, 6, 54, 127
1, 13824, Note_on_c, 2, 50, 127
1, 13966, Note_off_c, 0, 60, 127
1, 13968, Note_on_c, 12, 59, 127
1, 14110, Note_off_c, 2, 50, 127
1, 14110, Note_off_c, 6, 54, 127
1, 14112, Note_on_c, 0, 48, 127
1, 14112, Note_on_c, 4, 52, 127
1, 14254, Note_off_c, 12, 59, 127
1, 14256, Note_on_c, 12, 59, 127
1, 14398, Note_off_c, 12, 59, 127
1, 14400, Note_on_c, 10, 57, 127
1, 14542, Note_off_c, 10, 57, 127
1, 14544, Note_on_c, 8, 56, 127
1, 14686, Note_off_c, 8, 56, 127
1, 14688, Note_on_c, 10, 57, 127
1, 14830, Note_off_c, 0, 48, 127
1, 14832, Note_on_c, 0, 48, 127
1, 14974, Note_off_c, 0, 48, 127
1, 14974, Note_off_c, 10, 57, 127
1, 14976, Note_on_c, 4, 64, 127
1, 14976, Note_on_c, 12, 47, 127
1, 15118, Note_off_c, 12, 47, 127
1, 15120, Note_on_c, 10, 45, 127
1, 15262, Note_off_c, 10, 45, 127
1, 15262, Note_off_c, 4, 64, 127
1, 15262, Note_off_c, 4, 52, 127
1, 15264, Note_on_c, 3, 63, 127
1, 15264, Note_on_c, 12, 47, 127
1, 15444, Note_on_c, 10, 57, 127
1, 15586, Note_off_c, 10, 57, 127
1, 15588, Note_on_c, 7, 55, 127
1, 15730, Note_off_c, 7, 55, 127
1, 15732, Note_on_c, 6, 54, 127
1, 15874, Note_off_c, 6, 54, 127
1, 15876, Note_on_c, 7, 55, 127
1, 15982, Note_off_c, 3, 63, 127
1, 16046, Note_on_c, 12, 59, 127
1, 16192, Note_off_c, 12, 59, 127
1, 16194, Note_on_c, 1, 61, 127
1, 16340, Note_off_c, 1, 61, 127
1, 16342, Note_on_c, 3, 63, 127
1, 16488, Note_off_c, 3, 63, 127
1, 16490, Note_on_c, 4, 64, 127
1, 16596, Note_off_c, 7, 55, 127
1, 16660, Note_on_c, 12, 59, 127
1, 16660, Note_on_c, 7, 55, 127
1, 16806, Note_off_c, 7, 55, 127
1, 16806, Note_off_c, 12, 59, 127
1, 16808, Note_on_c, 0, 60, 127
1, 16808, Note_on_c, 10, 57, 127
1, 16954, Note_off_c, 10, 57, 127
1, 16954, Note_off_c, 0, 60, 127
1, 16956, Note_on_c, 12, 59, 127
1, 16956, Note_on_c, 7, 55, 127
1, 17102, Note_off_c, 7, 55, 127
1, 17102, Note_off_c, 12, 59, 127
1, 17104, Note_on_c, 6, 54, 127
1, 17104, Note_on_c, 10, 57, 127
1, 17212, Note_off_c, 4, 64, 127
1, 17284, Note_on_c, 6, 66, 127
1, 17426, Note_off_c, 6, 66, 127
1, 17428, Note_on_c, 4, 64, 127
1, 17570, Note_off_c, 4, 64, 127
1, 17572, Note_on_c, 3, 63, 127
1, 17638, Note_off_c, 12, 47, 127
1, 17678, Note_off_c, 6, 54, 127
1, 17704, Note_off_c, 10, 57, 127
1, 17714, Note_off_c, 3, 63, 127
1, 17716, Note_on_c, 4, 64, 127
1, 17716, Note_on_c, 4, 52, 127
1, 17716, Note_on_c, 4, 40, 127
1, 17896, Note_on_c, 12, 59, 127
1, 18044, Note_off_c, 12, 59, 127
1, 18048, Note_on_c, 8, 56, 127
1, 18196, Note_off_c, 8, 56, 127
1, 18200, Note_on_c, 12, 59, 127
1, 18284, Note_off_c, 4, 64, 127
1, 18348, Note_off_c, 12, 59, 127
1, 18351, Note_on_c, 0, 60, 127
1, 18504, Note_on_c, 10, 57, 127
1, 18650, Note_off_c, 0, 60, 127
1, 18658, Note_on_c, 12, 59, 127
1, 18804, Note_off_c, 10, 57, 127
1, 18812, Note_on_c, 8, 56, 127
1, 18866, Note_off_c, 4, 52, 127
1, 18958, Note_off_c, 12, 59, 127
1, 18961, Note_off_c, 8, 56, 127
1, 18964, Note_on_c, 10, 57, 127
1, 19117, Note_on_c, 6, 54, 127
1, 19265, Note_off_c, 6, 54, 127
1, 19269, Note_on_c, 3, 51, 127
1, 19417, Note_off_c, 3, 51, 127
1, 19421, Note_on_c, 6, 54, 127
1, 19561, Note_off_c, 10, 57, 127
1, 19570, Note_off_c, 6, 54, 127
1, 19573, Note_on_c, 8, 56, 127
1, 19726, Note_on_c, 3, 51, 127
1, 19872, Note_off_c, 8, 56, 127
1, 19881, Note_off_c, 3, 51, 127
1, 19889, Note_on_c, 4, 52, 127
1, 20051, Note_on_c, 12, 47, 127
1, 20205, Note_off_c, 12, 47, 127
1, 20211, Note_on_c, 8, 44, 127
1, 20295, Note_off_c, 4, 40, 127
1, 20365, Note_off_c, 8, 44, 127
1, 20374, Note_on_c, 12, 47, 127
1, 20515, Note_off_c, 4, 52, 127
1, 20529, Note_off_c, 12, 47, 127
1, 20537, Note_on_c, 4, 40, 127
1, 20738, Note_on_c, 12, 47, 127
1, 20918, Note_off_c, 12, 47, 127
1, 20940, Note_on_c, 4, 52, 127
1, 21142, Note_on_c, 4, 64, 127
1, 21336, Note_off_c, 4, 52, 127
1, 21345, Note_on_c, 10, 57, 127
1, 21345, Note_on_c, 6, 54, 127
1, 21540, Note_off_c, 4, 64, 127
1, 21554, Note_on_c, 3, 63, 127
1, 21785, Note_off_c, 3, 63, 127
1, 21799, Note_off_c, 6, 54, 127
1, 21799, Note_off_c, 10, 57, 127
1, 21841, Note_on_c, 4, 64, 127
1, 21841, Note_on_c, 12, 59, 127
1, 21841, Note_on_c, 8, 56, 127
1, 21841, Note_on_c, 4, 52, 127
1, 23845, Note_off_c, 4, 40, 127
1, 24071, Note_off_c, 4, 52, 127
1, 24071, Note_off_c, 8, 56, 127
1, 24071, Note_off_c, 12, 59, 127
1, 24071, Note_off_c, 4, 64, 127
1, 24391, Note_on_c, 12, 59, 127
1, 24391, Note_on_c, 12, 71, 127
1, 24916, Note_off_c, 12, 59, 127
1, 24933, Note_on_c, 0, 60, 127
1, 25174, Note_off_c, 12, 71, 127
1, 25204, Note_on_c, 10, 69, 127
1, 25338, Note_off_c, 10, 69, 127
1, 25339, Note_on_c, 8, 68, 127
1, 25473, Note_off_c, 8, 68, 127
1, 25474, Note_on_c, 10, 69, 127
1, 25744, Note_off_c, 0, 60, 127
1, 25745, Note_on_c, 12, 59, 127
1, 25879, Note_off_c, 12, 59, 127
1, 25880, Note_on_c, 10, 57, 127
1, 26014, Note_off_c, 10, 57, 127
1, 26015, Note_on_c, 12, 59, 127
1, 26256, Note_off_c, 10, 69, 127
1, 26284, Note_off_c, 12, 59, 127
1, 26285, Note_on_c, 4, 52, 127
1, 26285, Note_on_c, 7, 67, 127
1, 26419, Note_off_c, 7, 67, 127
1, 26420, Note_on_c, 6, 66, 127
1, 26554, Note_off_c, 6, 66, 127
1, 26554, Note_off_c, 4, 52, 127
1, 26555, Note_on_c, 4, 64, 127
1, 26555, Note_on_c, 7, 67, 127
1, 26825, Note_off_c, 7, 67, 127
1, 26826, Note_on_c, 10, 69, 127
1, 26960, Note_off_c, 10, 69, 127
1, 26961, Note_on_c, 7, 67, 127
1, 27095, Note_off_c, 7, 67, 127
1, 27096, Note_on_c, 6, 66, 127
1, 27366, Note_off_c, 6, 66, 127
1, 27367, Note_on_c, 7, 67, 127
1, 27501, Note_off_c, 7, 67, 127
1, 27502, Note_on_c, 10, 69, 127
1, 27636, Note_off_c, 10, 69, 127
1, 27636, Note_off_c, 4, 64, 127
1, 27637, Note_on_c, 3, 63, 127
1, 27637, Note_on_c, 10, 69, 127
1, 27703, Note_off_c, 10, 69, 127
1, 27704, Note_on_c, 7, 67, 127
1, 27770, Note_off_c, 7, 67, 127
1, 27771, Note_on_c, 10, 69, 127
1, 27837, Note_off_c, 10, 69, 127
1, 27838, Note_on_c, 7, 67, 127
1, 27904, Note_off_c, 7, 67, 127
1, 27905, Note_on_c, 10, 69, 127
1, 27971, Note_off_c, 10, 69, 127
1, 27972, Note_on_c, 7, 67, 127
1, 28038, Note_off_c, 7, 67, 127
1, 28039, Note_on_c, 6, 66, 127
1, 28173, Note_off_c, 6, 66, 127
1, 28173, Note_off_c, 3, 63, 127
1, 28174, Note_on_c, 4, 64, 127
1, 28174, Note_on_c, 7, 67, 127
1, 28444, Note_off_c, 7, 67, 127
1, 28445, Note_on_c, 10, 69, 127
1, 28715, Note_off_c, 10, 69, 127
1, 28715, Note_off_c, 4, 64, 127
1, 28716, Note_on_c, 2, 62, 127
1, 28716, Note_on_c, 12, 71, 127
1, 28986, Note_off_c, 2, 62, 127
1, 28987, Note_on_c, 1, 61, 127
1, 29121, Note_off_c, 1, 61, 127
1, 29122, Note_on_c, 12, 59, 127
1, 29256, Note_off_c, 12, 59, 127
1, 29257, Note_on_c, 1, 61, 127
1, 29527, Note_off_c, 1, 61, 127
1, 29528, Note_on_c, 6, 54, 127
1, 29798, Note_off_c, 12, 71, 127
1, 29799, Note_on_c, 6, 66, 127
1, 29799, Note_on_c, 11, 70, 127
1, 29799, Note_on_c, 6, 78, 127
1, 30069, Note_off_c, 11, 70, 127
1, 30070, Note_on_c, 8, 68, 127
1, 30204, Note_off_c, 8, 68, 127
1, 30205, Note_on_c, 11, 70, 127
1, 30339, Note_off_c, 11, 70, 127
1, 30339, Note_off_c, 6, 66, 127
1, 30339, Note_off_c, 6, 54, 127
1, 30340, Note_on_c, 7, 55, 127
1, 30340, Note_on_c, 12, 59, 127
1, 30340, Note_on_c, 12, 71, 127
1, 30610, Note_off_c, 6, 78, 127
1, 30611, Note_on_c, 4, 76, 127
1, 30745, Note_off_c, 4, 76, 127
1, 30746, Note_on_c, 3, 75, 127
1, 30880, Note_off_c, 3, 75, 127
1, 30880, Note_off_c, 12, 71, 127
1, 30881, Note_on_c, 7, 67, 127
1, 30881, Note_on_c, 4, 76, 127
1, 31151, Note_off_c, 7, 55, 127
1, 31152, Note_on_c, 6, 54, 127
1, 31286, Note_off_c, 6, 54, 127
1, 31287, Note_on_c, 4, 52, 127
1, 31421, Note_off_c, 4, 52, 127
1, 31421, Note_off_c, 7, 67, 127
1, 31421, Note_off_c, 12, 59, 127
1, 31422, Note_on_c, 6, 54, 127
1, 31422, Note_on_c, 6, 66, 127
1, 31422, Note_on_c, 11, 70, 127
1, 31692, Note_off_c, 6, 54, 127
1, 31692, Note_off_c, 4, 76, 127
1, 31693, Note_on_c, 12, 47, 127
1, 31693, Note_on_c, 2, 74, 127
1, 31827, Note_off_c, 2, 74, 127
1, 31828, Note_on_c, 1, 73, 127
1, 31962, Note_off_c, 1, 73, 127
1, 31962, Note_off_c, 12, 47, 127
1, 31962, Note_off_c, 11, 70, 127
1, 31962, Note_off_c, 6, 66, 127
1, 31963, Note_on_c, 12, 59, 127
1, 31963, Note_on_c, 12, 71, 127
1, 31963, Note_on_c, 2, 74, 127
1, 32233, Note_off_c, 2, 74, 127
1, 32234, Note_on_c, 4, 76, 127
1, 32368, Note_off_c, 4, 76, 127
1, 32369, Note_on_c, 2, 74, 127
1, 32503, Note_off_c, 2, 74, 127
1, 32504, Note_on_c, 4, 64, 127
1, 32504, Note_on_c, 1, 73, 127
1, 32774, Note_off_c, 1, 73, 127
1, 32774, Note_off_c, 4, 64, 127
1, 32775, Note_on_c, 1, 61, 127
1, 32775, Note_on_c, 2, 74, 127
1, 32909, Note_off_c, 2, 74, 127
1, 32910, Note_on_c, 4, 76, 127
1, 33044, Note_off_c, 4, 76, 127
1, 33044, Note_off_c, 1, 61, 127
1, 33044, Note_off_c, 12, 71, 127
1, 33044, Note_off_c, 12, 59, 127
1, 33045, Note_on_c, 11, 58, 127
1, 33045, Note_on_c, 6, 66, 127
1, 33045, Note_on_c, 4, 76, 127
1, 33111, Note_off_c, 4, 76, 127
1, 33112, Note_on_c, 2, 74, 127
1, 33178, Note_off_c, 2, 74, 127
1, 33179, Note_on_c, 4, 76, 127
1, 33245, Note_off_c, 4, 76, 127
1, 33246, Note_on_c, 2, 74, 127
1, 33312, Note_off_c, 2, 74, 127
1, 33313, Note_on_c, 4, 76, 127
1, 33379, Note_off_c, 4, 76, 127
1, 33380, Note_on_c, 2, 74, 127
1, 33446, Note_off_c, 2, 74, 127
1, 33447, Note_on_c, 1, 73, 127
1, 33581, Note_off_c, 1, 73, 127
1, 33581, Note_off_c, 11, 58, 127
1, 33582, Note_on_c, 12, 59, 127
1, 33582, Note_on_c, 2, 74, 127
1, 33788, Note_off_c, 6, 66, 127
1, 33853, Note_on_c, 6, 66, 127
1, 34123, Note_off_c, 6, 66, 127
1, 34124, Note_on_c, 12, 71, 127
1, 34394, Note_off_c, 2, 74, 127
1, 34394, Note_off_c, 12, 59, 127
1, 34395, Note_on_c, 12, 59, 127
1, 34395, Note_on_c, 2, 74, 127
1, 34665, Note_off_c, 2, 74, 127
1, 34665, Note_off_c, 12, 59, 127
1, 34666, Note_on_c, 0, 60, 127
1, 34666, Note_on_c, 4, 76, 127
1, 34745, Note_off_c, 12, 71, 127
1, 34801, Note_on_c, 12, 71, 127
1, 34935, Note_off_c, 12, 71, 127
1, 34936, Note_on_c, 0, 72, 127
1, 35070, Note_off_c, 0, 72, 127
1, 35071, Note_on_c, 12, 71, 127
1, 35205, Note_off_c, 12, 71, 127
1, 35205, Note_off_c, 0, 60, 127
1, 35206, Note_on_c, 1, 61, 127
1, 35206, Note_on_c, 10, 69, 127
1, 35340, Note_off_c, 10, 69, 127
1, 35341, Note_on_c, 12, 71, 127
1, 35475, Note_off_c, 12, 71, 127
1, 35476, Note_on_c, 7, 67, 127
1, 35610, Note_off_c, 7, 67, 127
1, 35611, Note_on_c, 10, 69, 127
1, 35745, Note_off_c, 10, 69, 127
1, 35745, Note_off_c, 1, 61, 127
1, 35746, Note_on_c, 2, 62, 127
1, 35746, Note_on_c, 6, 66, 127
1, 35975, Note_off_c, 4, 76, 127
1, 36017, Note_on_c, 10, 69, 127
1, 36287, Note_off_c, 10, 69, 127
1, 36288, Note_on_c, 2, 74, 127
1, 36558, Note_off_c, 2, 62, 127
1, 36559, Note_on_c, 0, 60, 127
1, 36693, Note_off_c, 0, 60, 127
1, 36694, Note_on_c, 12, 59, 127
1, 36828, Note_off_c, 12, 59, 127
1, 36828, Note_off_c, 6, 66, 127
1, 36829, Note_on_c, 4, 64, 127
1, 36829, Note_on_c, 8, 68, 127
1, 37099, Note_off_c, 2, 74, 127
1, 37100, Note_on_c, 4, 76, 127
1, 37234, Note_off_c, 4, 76, 127
1, 37235, Note_on_c, 2, 74, 127
1, 37369, Note_off_c, 2, 74, 127
1, 37369, Note_off_c, 4, 64, 127
1, 37370, Note_on_c, 4, 52, 127
1, 37370, Note_on_c, 2, 74, 127
1, 37438, Note_off_c, 2, 74, 127
1, 37438, Note_on_c, 0, 72, 127
1, 37506, Note_off_c, 0, 72, 127
1, 37506, Note_on_c, 2, 74, 127
1, 37574, Note_off_c, 2, 74, 127
1, 37574, Note_on_c, 0, 72, 127
1, 37774, Note_off_c, 0, 72, 127
1, 37777, Note_on_c, 12, 71, 127
1, 37883, Note_off_c, 8, 68, 127
1, 37911, Note_off_c, 12, 71, 127
1, 37911, Note_off_c, 4, 52, 127
1, 37912, Note_on_c, 10, 57, 127
1, 37912, Note_on_c, 0, 72, 127
1, 38183, Note_on_c, 4, 64, 127
1, 38453, Note_off_c, 4, 64, 127
1, 38453, Note_off_c, 10, 57, 127
1, 38454, Note_on_c, 10, 45, 127
1, 38454, Note_on_c, 10, 69, 127
1, 38588, Note_off_c, 10, 69, 127
1, 38589, Note_on_c, 12, 71, 127
1, 38723, Note_off_c, 12, 71, 127
1, 38724, Note_on_c, 7, 67, 127
1, 38858, Note_off_c, 7, 67, 127
1, 38859, Note_on_c, 10, 69, 127
1, 38993, Note_off_c, 10, 69, 127
1, 38993, Note_off_c, 10, 45, 127
1, 38994, Note_on_c, 2, 50, 127
1, 38994, Note_on_c, 6, 66, 127
1, 39223, Note_off_c, 0, 72, 127
1, 39265, Note_on_c, 2, 74, 127
1, 39399, Note_off_c, 2, 74, 127
1, 39400, Note_on_c, 0, 72, 127
1, 39534, Note_off_c, 0, 72, 127
1, 39534, Note_off_c, 2, 50, 127
1, 39535, Note_on_c, 2, 38, 127
1, 39535, Note_on_c, 0, 72, 127
1, 39603, Note_on_c, 12, 71, 127
1, 39620, Note_off_c, 0, 72, 127
1, 39671, Note_on_c, 0, 72, 127
1, 39688, Note_off_c, 12, 71, 127
1, 39739, Note_on_c, 12, 71, 127
1, 39756, Note_off_c, 0, 72, 127
1, 39937, Note_off_c, 12, 71, 127
1, 39943, Note_on_c, 10, 69, 127
1, 40077, Note_off_c, 10, 69, 127
1, 40077, Note_off_c, 2, 38, 127
1, 40078, Note_on_c, 7, 43, 127
1, 40078, Note_on_c, 12, 71, 127
1, 40212, Note_off_c, 6, 66, 127
1, 40213, Note_on_c, 6, 66, 127
1, 40347, Note_off_c, 6, 66, 127
1, 40348, Note_on_c, 7, 67, 127
1, 40482, Note_off_c, 7, 67, 127
1, 40483, Note_on_c, 6, 66, 127
1, 40617, Note_off_c, 6, 66, 127
1, 40617, Note_off_c, 7, 43, 127
1, 40618, Note_on_c, 7, 55, 127
1, 40618, Note_on_c, 4, 64, 127
1, 40752, Note_off_c, 4, 64, 127
1, 40753, Note_on_c, 6, 66, 127
1, 40887, Note_off_c, 6, 66, 127
1, 40888, Note_on_c, 2, 62, 127
1, 41022, Note_off_c, 2, 62, 127
1, 41023, Note_on_c, 4, 64, 127
1, 41133, Note_off_c, 12, 71, 127
1, 41157, Note_off_c, 4, 64, 127
1, 41158, Note_on_c, 1, 61, 127
1, 41158, Note_on_c, 10, 69, 127
1, 41428, Note_off_c, 1, 61, 127
1, 41429, Note_on_c, 3, 63, 127
1, 41563, Note_off_c, 3, 63, 127
1, 41564, Note_on_c, 4, 64, 127
1, 41698, Note_off_c, 4, 64, 127
1, 41698, Note_off_c, 7, 55, 127
1, 41699, Note_on_c, 6, 54, 127
1, 41699, Note_on_c, 3, 63, 127
1, 41969, Note_off_c, 10, 69, 127
1, 41970, Note_on_c, 12, 71, 127
1, 42104, Note_off_c, 12, 71, 127
1, 42105, Note_on_c, 10, 69, 127
1, 42239, Note_off_c, 10, 69, 127
1, 42239, Note_off_c, 3, 63, 127
1, 42239, Note_off_c, 6, 54, 127
1, 42240, Note_on_c, 4, 52, 127
1, 42240, Note_on_c, 4, 64, 127
1, 42240, Note_on_c, 7, 67, 127
1, 42510, Note_off_c, 4, 64, 127
1, 42511, Note_on_c, 12, 59, 127
1, 42781, Note_off_c, 12, 59, 127
1, 42782, Note_on_c, 4, 64, 127
1, 43052, Note_off_c, 7, 67, 127
1, 43053, Note_on_c, 10, 69, 127
1, 43187, Note_off_c, 10, 69, 127
1, 43188, Note_on_c, 7, 67, 127
1, 43322, Note_off_c, 7, 67, 127
1, 43323, Note_on_c, 6, 66, 127
1, 43593, Note_off_c, 4, 52, 127
1, 43594, Note_on_c, 6, 54, 127
1, 43728, Note_off_c, 6, 54, 127
1, 43729, Note_on_c, 4, 52, 127
1, 43863, Note_off_c, 4, 52, 127
1, 43863, Note_off_c, 6, 66, 127
1, 43863, Note_off_c, 4, 64, 127
1, 43864, Note_on_c, 3, 51, 127
1, 43864, Note_on_c, 12, 59, 127
1, 43864, Note_on_c, 12, 71, 127
1, 44135, Note_on_c, 6, 66, 127
1, 44405, Note_off_c, 6, 66, 127
1, 44405, Note_off_c, 12, 71, 127
1, 44405, Note_off_c, 3, 51, 127
1, 44406, Note_on_c, 4, 52, 127
1, 44406, Note_on_c, 7, 67, 127
1, 44406, Note_on_c, 0, 72, 127
1, 44676, Note_off_c, 12, 59, 127
1, 44677, Note_on_c, 10, 57, 127
1, 44811, Note_off_c, 10, 57, 127
1, 44812, Note_on_c, 7, 55, 127
1, 44946, Note_off_c, 7, 55, 127
1, 44946, Note_off_c, 7, 67, 127
1, 44946, Note_off_c, 4, 52, 127
1, 44947, Note_on_c, 10, 45, 127
1, 44947, Note_on_c, 10, 57, 127
1, 44947, Note_on_c, 6, 66, 127
1, 45217, Note_off_c, 0, 72, 127
1, 45218, Note_on_c, 12, 71, 127
1, 45352, Note_off_c, 12, 71, 127
1, 45353, Note_on_c, 10, 69, 127
1, 45487, Note_off_c, 10, 69, 127
1, 45487, Note_off_c, 6, 66, 127
1, 45487, Note_off_c, 10, 45, 127
1, 45488, Note_on_c, 4, 52, 127
1, 45488, Note_on_c, 4, 64, 127
1, 45488, Note_on_c, 12, 71, 127
1, 45756, Note_off_c, 4, 64, 127
1, 45757, Note_off_c, 12, 71, 127
1, 45757, Note_off_c, 10, 57, 127
1, 45758, Note_on_c, 7, 55, 127
1, 45758, Note_on_c, 4, 64, 127
1, 45892, Note_off_c, 7, 55, 127
1, 45893, Note_on_c, 6, 54, 127
1, 46027, Note_off_c, 6, 54, 127
1, 46027, Note_off_c, 4, 52, 127
1, 46028, Note_on_c, 0, 48, 127
1, 46028, Note_on_c, 7, 55, 127
1, 46028, Note_on_c, 4, 76, 127
1, 46293, Note_off_c, 4, 64, 127
1, 46297, Note_off_c, 7, 55, 127
1, 46298, Note_on_c, 10, 57, 127
1, 46432, Note_off_c, 10, 57, 127
1, 46433, Note_on_c, 7, 55, 127
1, 46567, Note_off_c, 7, 55, 127
1, 46567, Note_off_c, 0, 48, 127
1, 46568, Note_on_c, 10, 45, 127
1, 46568, Note_on_c, 6, 54, 127
1, 46838, Note_off_c, 6, 54, 127
1, 46839, Note_on_c, 7, 55, 127
1, 46973, Note_off_c, 7, 55, 127
1, 46974, Note_on_c, 10, 57, 127
1, 47108, Note_off_c, 10, 57, 127
1, 47108, Note_off_c, 10, 45, 127
1, 47108, Note_off_c, 4, 76, 127
1, 47109, Note_on_c, 12, 47, 127
1, 47109, Note_on_c, 7, 55, 127
1, 47109, Note_on_c, 4, 76, 127
1, 47198, Note_off_c, 4, 76, 127
1, 47199, Note_on_c, 3, 75, 127
1, 47288, Note_off_c, 3, 75, 127
1, 47289, Note_on_c, 4, 76, 127
1, 47378, Note_off_c, 4, 76, 127
1, 47379, Note_on_c, 3, 75, 127
1, 47468, Note_off_c, 3, 75, 127
1, 47468, Note_off_c, 7, 55, 127
1, 47469, Note_on_c, 1, 73, 127
1, 47469, Note_on_c, 6, 54, 127
1, 47558, Note_off_c, 1, 73, 127
1, 47559, Note_on_c, 3, 75, 127
1, 47648, Note_off_c, 3, 75, 127
1, 47648, Note_off_c, 6, 54, 127
1, 47648, Note_off_c, 12, 47, 127
1, 47649, Note_on_c, 0, 48, 127
1, 47649, Note_on_c, 4, 52, 127
1, 47649, Note_on_c, 4, 76, 127
1, 47919, Note_off_c, 4, 52, 127
1, 47920, Note_on_c, 6, 54, 127
1, 48054, Note_off_c, 6, 54, 127
1, 48055, Note_on_c, 7, 55, 127
1, 48189, Note_off_c, 7, 55, 127
1, 48189, Note_off_c, 0, 48, 127
1, 48190, Note_on_c, 1, 49, 127
1, 48190, Note_on_c, 10, 57, 127
1, 48461, Note_on_c, 4, 64, 127
1, 48731, Note_off_c, 4, 64, 127
1, 48731, Note_off_c, 1, 49, 127
1, 48732, Note_on_c, 2, 50, 127
1, 48732, Note_on_c, 5, 65, 127
1, 49002, Note_off_c, 10, 57, 127
1, 49002, Note_off_c, 4, 76, 127
1, 49003, Note_on_c, 10, 57, 127
1, 49003, Note_on_c, 2, 74, 127
1, 49137, Note_off_c, 2, 74, 127
1, 49138, Note_on_c, 1, 73, 127
1, 49272, Note_off_c, 1, 73, 127
1, 49272, Note_off_c, 10, 57, 127
1, 49273, Note_on_c, 12, 59, 127
1, 49273, Note_on_c, 2, 74, 127
1, 49543, Note_off_c, 5, 65, 127
1, 49544, Note_on_c, 4, 64, 127
1, 49678, Note_off_c, 4, 64, 127
1, 49679, Note_on_c, 2, 62, 127
1, 49813, Note_off_c, 2, 62, 127
1, 49813, Note_off_c, 12, 59, 127
1, 49813, Note_off_c, 2, 50, 127
1, 49814, Note_on_c, 8, 56, 127
1, 49814, Note_on_c, 4, 64, 127
1, 50084, Note_off_c, 4, 64, 127
1, 50084, Note_off_c, 8, 56, 127
1, 50084, Note_off_c, 2, 74, 127
1, 50085, Note_on_c, 10, 57, 127
1, 50085, Note_on_c, 0, 72, 127
1, 50219, Note_off_c, 0, 72, 127
1, 50220, Note_on_c, 7, 55, 127
1, 50220, Note_on_c, 12, 71, 127
1, 50354, Note_off_c, 12, 71, 127
1, 50354, Note_off_c, 7, 55, 127
1, 50354, Note_off_c, 10, 57, 127
1, 50355, Note_on_c, 5, 53, 127
1, 50355, Note_on_c, 10, 69, 127
1, 50355, Note_on_c, 0, 72, 127
1, 50625, Note_off_c, 0, 72, 127
1, 50625, Note_off_c, 5, 53, 127
1, 50626, Note_on_c, 4, 52, 127
1, 50626, Note_on_c, 2, 74, 127
1, 50760, Note_off_c, 2, 74, 127
1, 50761, Note_on_c, 0, 72, 127
1, 50895, Note_off_c, 0, 72, 127
1, 50895, Note_off_c, 4, 52, 127
1, 50896, Note_on_c, 2, 50, 127
1, 50896, Note_on_c, 12, 71, 127
1, 51166, Note_off_c, 12, 71, 127
1, 51166, Note_off_c, 2, 50, 127
1, 51167, Note_on_c, 12, 47, 127
1, 51167, Note_on_c, 0, 72, 127
1, 51301, Note_off_c, 0, 72, 127
1, 51302, Note_on_c, 2, 74, 127
1, 51436, Note_off_c, 2, 74, 127
1, 51436, Note_off_c, 12, 47, 127
1, 51436, Note_off_c, 10, 69, 127
1, 51437, Note_on_c, 4, 52, 127
1, 51437, Note_on_c, 8, 68, 127
1, 51437, Note_on_c, 2, 74, 127
1, 51503, Note_off_c, 2, 74, 127
1, 51504, Note_on_c, 0, 72, 127
1, 51570, Note_off_c, 0, 72, 127
1, 51571, Note_on_c, 2, 74, 127
1, 51637, Note_off_c, 2, 74, 127
1, 51638, Note_on_c, 0, 72, 127
1, 51704, Note_off_c, 0, 72, 127
1, 51705, Note_on_c, 2, 74, 127
1, 51771, Note_off_c, 2, 74, 127
1, 51772, Note_on_c, 0, 72, 127
1, 51838, Note_off_c, 0, 72, 127
1, 51839, Note_on_c, 12, 71, 127
1, 51973, Note_off_c, 12, 71, 127
1, 51973, Note_off_c, 8, 68, 127
1, 51973, Note_off_c, 4, 52, 127
1, 51974, Note_on_c, 10, 45, 127
1, 51974, Note_on_c, 10, 69, 127
1, 51974, Note_on_c, 0, 72, 127
1, 52108, Note_off_c, 10, 69, 127
1, 52109, Note_on_c, 12, 71, 127
1, 52243, Note_off_c, 12, 71, 127
1, 52244, Note_on_c, 7, 67, 127
1, 52378, Note_off_c, 7, 67, 127
1, 52379, Note_on_c, 10, 69, 127
1, 52513, Note_off_c, 10, 69, 127
1, 52513, Note_off_c, 10, 45, 127
1, 52514, Note_on_c, 10, 57, 127
1, 52514, Note_on_c, 6, 66, 127
1, 52648, Note_off_c, 6, 66, 127
1, 52649, Note_on_c, 7, 67, 127
1, 52783, Note_off_c, 7, 67, 127
1, 52784, Note_on_c, 4, 64, 127
1, 52918, Note_off_c, 4, 64, 127
1, 52919, Note_on_c, 6, 66, 127
1, 53053, Note_off_c, 6, 66, 127
1, 53053, Note_off_c, 10, 57, 127
1, 53054, Note_on_c, 12, 59, 127
1, 53054, Note_on_c, 3, 63, 127
1, 53099, Note_off_c, 0, 72, 127
1, 53189, Note_on_c, 0, 72, 127
1, 53323, Note_off_c, 0, 72, 127
1, 53324, Note_on_c, 2, 74, 127
1, 53458, Note_off_c, 2, 74, 127
1, 53459, Note_on_c, 0, 72, 127
1, 53593, Note_off_c, 0, 72, 127
1, 53593, Note_off_c, 12, 59, 127
1, 53594, Note_on_c, 12, 47, 127
1, 53594, Note_on_c, 12, 71, 127
1, 53728, Note_off_c, 12, 71, 127
1, 53729, Note_on_c, 0, 72, 127
1, 53863, Note_off_c, 0, 72, 127
1, 53864, Note_on_c, 10, 69, 127
1, 53998, Note_off_c, 10, 69, 127
1, 53999, Note_on_c, 12, 71, 127
1, 54133, Note_off_c, 12, 71, 127
1, 54133, Note_off_c, 12, 47, 127
1, 54133, Note_off_c, 3, 63, 127
1, 54134, Note_on_c, 0, 48, 127
1, 54134, Note_on_c, 4, 64, 127
1, 54134, Note_on_c, 7, 67, 127
1, 54404, Note_off_c, 7, 67, 127
1, 54405, Note_on_c, 6, 66, 127
1, 54529, Note_off_c, 4, 64, 127
1, 54539, Note_off_c, 6, 66, 127
1, 54540, Note_on_c, 4, 64, 127
1, 54674, Note_off_c, 0, 48, 127
1, 54675, Note_on_c, 0, 60, 127
1, 54675, Note_on_c, 10, 69, 127
1, 54935, Note_off_c, 4, 64, 127
1, 54945, Note_off_c, 0, 60, 127
1, 54946, Note_on_c, 12, 59, 127
1, 54946, Note_on_c, 6, 66, 127
1, 55080, Note_off_c, 12, 59, 127
1, 55081, Note_on_c, 10, 57, 127
1, 55215, Note_off_c, 10, 57, 127
1, 55215, Note_off_c, 6, 66, 127
1, 55216, Note_on_c, 12, 59, 127
1, 55216, Note_on_c, 3, 63, 127
1, 55486, Note_off_c, 10, 69, 127
1, 55487, Note_on_c, 7, 67, 127
1, 55621, Note_off_c, 7, 67, 127
1, 55622, Note_on_c, 6, 66, 127
1, 55756, Note_off_c, 6, 66, 127
1, 55756, Note_off_c, 3, 63, 127
1, 55756, Note_off_c, 12, 59, 127
1, 55757, Note_on_c, 4, 52, 127
1, 55757, Note_on_c, 4, 64, 127
1, 55757, Note_on_c, 7, 67, 127
1, 56027, Note_off_c, 7, 67, 127
1, 56028, Note_on_c, 10, 69, 127
1, 56162, Note_off_c, 10, 69, 127
1, 56163, Note_on_c, 7, 67, 127
1, 56297, Note_off_c, 7, 67, 127
1, 56297, Note_off_c, 4, 52, 127
1, 56298, Note_on_c, 12, 59, 127
1, 56298, Note_on_c, 6, 66, 127
1, 56568, Note_off_c, 4, 64, 127
1, 56569, Note_on_c, 3, 63, 127
1, 56703, Note_off_c, 3, 63, 127
1, 56704, Note_on_c, 1, 61, 127
1, 56838, Note_off_c, 1, 61, 127
1, 56839, Note_on_c, 12, 47, 127
1, 56839, Note_on_c, 3, 63, 127
1, 57087, Note_off_c, 6, 66, 127
1, 57110, Note_on_c, 7, 67, 127
1, 57244, Note_off_c, 7, 67, 127
1, 57245, Note_on_c, 6, 66, 127
1, 57379, Note_off_c, 6, 66, 127
1, 57379, Note_off_c, 3, 63, 127
1, 57379, Note_off_c, 12, 47, 127
1, 57380, Note_on_c, 0, 48, 127
1, 57380, Note_on_c, 4, 64, 127
1, 57650, Note_off_c, 12, 59, 127
1, 57651, Note_on_c, 10, 57, 127
1, 57785, Note_off_c, 10, 57, 127
1, 57786, Note_on_c, 8, 56, 127
1, 57920, Note_off_c, 8, 56, 127
1, 57921, Note_on_c, 10, 57, 127
1, 58168, Note_off_c, 4, 64, 127
1, 58191, Note_off_c, 0, 48, 127
1, 58192, Note_on_c, 12, 47, 127
1, 58192, Note_on_c, 2, 62, 127
1, 58326, Note_off_c, 2, 62, 127
1, 58326, Note_off_c, 12, 47, 127
1, 58327, Note_on_c, 10, 45, 127
1, 58327, Note_on_c, 0, 60, 127
1, 58461, Note_off_c, 0, 60, 127
1, 58461, Note_off_c, 10, 45, 127
1, 58462, Note_on_c, 12, 47, 127
1, 58462, Note_on_c, 12, 59, 127
1, 58732, Note_off_c, 12, 47, 127
1, 58732, Note_off_c, 10, 57, 127
1, 58733, Note_on_c, 4, 40, 127
1, 58733, Note_on_c, 7, 55, 127
1, 58867, Note_off_c, 7, 55, 127
1, 58868, Note_on_c, 6, 54, 127
1, 59002, Note_off_c, 6, 54, 127
1, 59002, Note_off_c, 4, 40, 127
1, 59003, Note_on_c, 4, 52, 127
1, 59003, Note_on_c, 7, 55, 127
1, 59251, Note_off_c, 12, 59, 127
1, 59272, Note_off_c, 7, 55, 127
1, 59273, Note_on_c, 10, 57, 127
1, 59273, Note_on_c, 0, 60, 127
1, 59407, Note_off_c, 0, 60, 127
1, 59407, Note_off_c, 10, 57, 127
1, 59408, Note_on_c, 7, 55, 127
1, 59408, Note_on_c, 12, 59, 127
1, 59542, Note_off_c, 12, 59, 127
1, 59542, Note_off_c, 7, 55, 127
1, 59543, Note_on_c, 6, 54, 127
1, 59543, Note_on_c, 10, 57, 127
1, 59811, Note_off_c, 10, 57, 127
1, 59812, Note_off_c, 6, 54, 127
1, 59813, Note_on_c, 7, 55, 127
1, 59947, Note_off_c, 7, 55, 127
1, 59948, Note_on_c, 10, 57, 127
1, 60075, Note_off_c, 4, 52, 127
1, 60082, Note_off_c, 10, 57, 127
1, 60083, Note_on_c, 2, 50, 127
1, 60083, Note_on_c, 12, 59, 127
1, 60083, Note_on_c, 7, 55, 127
1, 60478, Note_off_c, 7, 55, 127
1, 60489, Note_on_c, 6, 54, 127
1, 60623, Note_off_c, 6, 54, 127
1, 60624, Note_on_c, 8, 56, 127
1, 60894, Note_off_c, 8, 56, 127
1, 60895, Note_on_c, 6, 54, 127
1, 61029, Note_off_c, 6, 54, 127
1, 61030, Note_on_c, 4, 52, 127
1, 61164, Note_off_c, 4, 52, 127
1, 61164, Note_off_c, 12, 59, 127
1, 61164, Note_off_c, 2, 50, 127
1, 61165, Note_on_c, 0, 48, 127
1, 61165, Note_on_c, 10, 57, 127
1, 61165, Note_on_c, 0, 60, 127
1, 61435, Note_off_c, 0, 48, 127
1, 61436, Note_on_c, 12, 47, 127
1, 61570, Note_off_c, 12, 47, 127
1, 61571, Note_on_c, 10, 45, 127
1, 61705, Note_off_c, 10, 45, 127
1, 61705, Note_off_c, 0, 60, 127
1, 61706, Note_on_c, 4, 52, 127
1, 61706, Note_on_c, 12, 59, 127
1, 61976, Note_off_c, 10, 57, 127
1, 61977, Note_on_c, 7, 55, 127
1, 62111, Note_off_c, 7, 55, 127
1, 62112, Note_on_c, 6, 54, 127
1, 62246, Note_off_c, 6, 54, 127
1, 62246, Note_off_c, 12, 59, 127
1, 62246, Note_off_c, 4, 52, 127
1, 62247, Note_on_c, 1, 49, 127
1, 62247, Note_on_c, 7, 55, 127
1, 62247, Note_on_c, 4, 64, 127
1, 62517, Note_off_c, 7, 55, 127
1, 62518, Note_on_c, 6, 54, 127
1, 62652, Note_off_c, 6, 54, 127
1, 62653, Note_on_c, 4, 52, 127
1, 62787, Note_off_c, 4, 52, 127
1, 62787, Note_off_c, 1, 49, 127
1, 62788, Note_on_c, 11, 46, 127
1, 62788, Note_on_c, 6, 54, 127
1, 63058, Note_off_c, 4, 64, 127
1, 63059, Note_on_c, 2, 62, 127
1, 63193, Note_off_c, 2, 62, 127
1, 63194, Note_on_c, 1, 61, 127
1, 63328, Note_off_c, 1, 61, 127
1, 63328, Note_off_c, 11, 46, 127
1, 63329, Note_on_c, 12, 47, 127
1, 63329, Note_on_c, 2, 62, 127
1, 63599, Note_off_c, 6, 54, 127
1, 63600, Note_on_c, 7, 55, 127
1, 63734, Note_off_c, 7, 55, 127
1, 63735, Note_on_c, 6, 54, 127
1, 63869, Note_off_c, 6, 54, 127
1, 63869, Note_off_c, 12, 47, 127
1, 63870, Note_on_c, 8, 44, 127
1, 63870, Note_on_c, 4, 52, 127
1, 64140, Note_off_c, 2, 62, 127
1, 64141, Note_on_c, 1, 61, 127
1, 64275, Note_off_c, 1, 61, 127
1, 64276, Note_on_c, 12, 59, 127
1, 64410, Note_off_c, 12, 59, 127
1, 64410, Note_off_c, 8, 44, 127
1, 64411, Note_on_c, 11, 46, 127
1, 64411, Note_on_c, 1, 61, 127
1, 64681, Note_off_c, 4, 52, 127
1, 64682, Note_on_c, 6, 54, 127
1, 64816, Note_off_c, 6, 54, 127
1, 64817, Note_on_c, 4, 52, 127
1, 64951, Note_off_c, 4, 52, 127
1, 64951, Note_off_c, 11, 46, 127
1, 64952, Note_on_c, 12, 47, 127
1, 64952, Note_on_c, 2, 50, 127
1, 65222, Note_off_c, 1, 61, 127
1, 65223, Note_on_c, 12, 59, 127
1, 65357, Note_off_c, 12, 59, 127
1, 65358, Note_on_c, 11, 58, 127
1, 65492, Note_off_c, 11, 58, 127
1, 65492, Note_off_c, 12, 47, 127
1, 65493, Note_on_c, 7, 43, 127
1, 65493, Note_on_c, 12, 59, 127
1, 65763, Note_off_c, 2, 50, 127
1, 65764, Note_on_c, 4, 52, 127
1, 65898, Note_off_c, 4, 52, 127
1, 65899, Note_on_c, 2, 50, 127
1, 66033, Note_off_c, 2, 50, 127
1, 66033, Note_off_c, 7, 43, 127
1, 66034, Note_on_c, 4, 40, 127
1, 66034, Note_on_c, 1, 49, 127
1, 66304, Note_off_c, 12, 59, 127
1, 66305, Note_on_c, 1, 61, 127
1, 66439, Note_off_c, 1, 61, 127
1, 66440, Note_on_c, 12, 59, 127
1, 66556, Note_off_c, 1, 49, 127
1, 66556, Note_off_c, 4, 40, 127
1, 66570, Note_off_c, 12, 59, 127
1, 66576, Note_on_c, 6, 42, 127
1, 66576, Note_on_c, 6, 54, 127
1, 66576, Note_on_c, 11, 58, 127
1, 66847, Note_on_c, 6, 66, 127
1, 67112, Note_off_c, 11, 58, 127
1, 67116, Note_off_c, 6, 66, 127
1, 67116, Note_off_c, 6, 42, 127
1, 67117, Note_on_c, 12, 47, 127
1, 67117, Note_on_c, 2, 62, 127
1, 67117, Note_on_c, 7, 67, 127
1, 67387, Note_off_c, 6, 54, 127
1, 67388, Note_on_c, 4, 52, 127
1, 67522, Note_off_c, 4, 52, 127
1, 67523, Note_on_c, 2, 50, 127
1, 67657, Note_off_c, 2, 50, 127
1, 67657, Note_off_c, 2, 62, 127
1, 67657, Note_off_c, 12, 47, 127
1, 67658, Note_on_c, 1, 49, 127
1, 67658, Note_on_c, 4, 52, 127
1, 67658, Note_on_c, 10, 57, 127
1, 67928, Note_off_c, 7, 67, 127
1, 67929, Note_on_c, 6, 66, 127
1, 68063, Note_off_c, 6, 66, 127
1, 68064, Note_on_c, 4, 64, 127
1, 68194, Note_off_c, 4, 52, 127
1, 68198, Note_off_c, 4, 64, 127
1, 68198, Note_off_c, 1, 49, 127
1, 68199, Note_on_c, 2, 50, 127
1, 68199, Note_on_c, 6, 66, 127
1, 68467, Note_off_c, 2, 50, 127
1, 68468, Note_off_c, 6, 66, 127
1, 68468, Note_off_c, 10, 57, 127
1, 68469, Note_on_c, 2, 50, 127
1, 68469, Note_on_c, 12, 59, 127
1, 68603, Note_off_c, 2, 50, 127
1, 68604, Note_on_c, 1, 49, 127
1, 68738, Note_off_c, 1, 49, 127
1, 68739, Note_on_c, 12, 47, 127
1, 68739, Note_on_c, 2, 50, 127
1, 68739, Note_on_c, 12, 71, 127
1, 69009, Note_off_c, 2, 50, 127
1, 69009, Note_off_c, 12, 59, 127
1, 69010, Note_on_c, 4, 52, 127
1, 69010, Note_on_c, 6, 66, 127
1, 69144, Note_off_c, 4, 52, 127
1, 69145, Note_on_c, 2, 50, 127
1, 69279, Note_off_c, 2, 50, 127
1, 69279, Note_off_c, 6, 66, 127
1, 69279, Note_off_c, 12, 47, 127
1, 69280, Note_on_c, 4, 40, 127
1, 69280, Note_on_c, 1, 49, 127
1, 69280, Note_on_c, 7, 67, 127
1, 69550, Note_off_c, 1, 49, 127
1, 69551, Note_on_c, 2, 50, 127
1, 69685, Note_off_c, 2, 50, 127
1, 69686, Note_on_c, 4, 52, 127
1, 69820, Note_off_c, 4, 52, 127
1, 69820, Note_off_c, 7, 67, 127
1, 69820, Note_off_c, 4, 40, 127
1, 69820, Note_off_c, 12, 71, 127
1, 69821, Note_on_c, 6, 42, 127
1, 69821, Note_on_c, 2, 50, 127
1, 69821, Note_on_c, 6, 66, 127
1, 69821, Note_on_c, 12, 71, 127
1, 69910, Note_off_c, 12, 71, 127
1, 69911, Note_on_c, 11, 70, 127
1, 70000, Note_off_c, 11, 70, 127
1, 70001, Note_on_c, 12, 71, 127
1, 70090, Note_off_c, 12, 71, 127
1, 70090, Note_off_c, 6, 66, 127
1, 70091, Note_on_c, 4, 64, 127
1, 70091, Note_on_c, 11, 70, 127
1, 70180, Note_off_c, 11, 70, 127
1, 70180, Note_off_c, 2, 50, 127
1, 70181, Note_on_c, 8, 68, 127
1, 70181, Note_on_c, 1, 49, 127
1, 70270, Note_off_c, 8, 68, 127
1, 70271, Note_on_c, 11, 70, 127
1, 70360, Note_off_c, 11, 70, 127
1, 70360, Note_off_c, 1, 49, 127
1, 70360, Note_off_c, 4, 64, 127
1, 70360, Note_off_c, 6, 42, 127
1, 70361, Note_on_c, 7, 43, 127
1, 70361, Note_on_c, 12, 47, 127
1, 70361, Note_on_c, 2, 62, 127
1, 70361, Note_on_c, 12, 71, 127
1, 70631, Note_off_c, 2, 62, 127
1, 70632, Note_on_c, 7, 67, 127
1, 70766, Note_off_c, 7, 67, 127
1, 70767, Note_on_c, 6, 66, 127
1, 70897, Note_off_c, 12, 47, 127
1, 70901, Note_off_c, 6, 66, 127
1, 70901, Note_off_c, 7, 43, 127
1, 70902, Note_on_c, 8, 44, 127
1, 70902, Note_on_c, 4, 64, 127
1, 71036, Note_off_c, 4, 64, 127
1, 71037, Note_on_c, 6, 66, 127
1, 71171, Note_off_c, 6, 66, 127
1, 71172, Note_on_c, 2, 62, 127
1, 71306, Note_off_c, 2, 62, 127
1, 71307, Note_on_c, 4, 64, 127
1, 71441, Note_off_c, 4, 64, 127
1, 71441, Note_off_c, 8, 44, 127
1, 71442, Note_on_c, 10, 45, 127
1, 71442, Note_on_c, 0, 60, 127
1, 71712, Note_off_c, 12, 71, 127
1, 71713, Note_on_c, 10, 57, 127
1, 71713, Note_on_c, 4, 64, 127
1, 71847, Note_off_c, 10, 57, 127
1, 71848, Note_on_c, 7, 55, 127
1, 71982, Note_off_c, 7, 55, 127
1, 71982, Note_off_c, 4, 64, 127
1, 71983, Note_on_c, 6, 54, 127
1, 71983, Note_on_c, 10, 69, 127
1, 72117, Note_off_c, 6, 54, 127
1, 72118, Note_on_c, 7, 55, 127
1, 72252, Note_off_c, 7, 55, 127
1, 72253, Note_on_c, 4, 52, 127
1, 72387, Note_off_c, 4, 52, 127
1, 72388, Note_on_c, 6, 54, 127
1, 72522, Note_off_c, 6, 54, 127
1, 72522, Note_off_c, 0, 60, 127
1, 72522, Note_off_c, 10, 45, 127
1, 72523, Note_on_c, 12, 47, 127
1, 72523, Note_on_c, 3, 51, 127
1, 72523, Note_on_c, 12, 59, 127
1, 72793, Note_off_c, 10, 69, 127
1, 72794, Note_on_c, 12, 71, 127
1, 72928, Note_off_c, 12, 71, 127
1, 72929, Note_on_c, 10, 69, 127
1, 73063, Note_off_c, 10, 69, 127
1, 73063, Note_off_c, 3, 51, 127
1, 73064, Note_on_c, 4, 52, 127
1, 73064, Note_on_c, 7, 67, 127
1, 73334, Note_off_c, 7, 67, 127
1, 73335, Note_on_c, 10, 69, 127
1, 73469, Note_off_c, 10, 69, 127
1, 73470, Note_on_c, 7, 67, 127
1, 73604, Note_off_c, 7, 67, 127
1, 73604, Note_off_c, 12, 59, 127
1, 73605, Note_on_c, 6, 66, 127
1, 73875, Note_off_c, 6, 66, 127
1, 73876, Note_on_c, 7, 67, 127
1, 74010, Note_off_c, 7, 67, 127
1, 74011, Note_on_c, 10, 69, 127
1, 74145, Note_off_c, 10, 69, 127
1, 74145, Note_off_c, 4, 52, 127
1, 74146, Note_on_c, 3, 51, 127
1, 74146, Note_on_c, 12, 71, 127
1, 74434, Note_on_c, 12, 59, 127
1, 74637, Note_off_c, 12, 47, 127
1, 74640, Note_off_c, 3, 51, 127
1, 74704, Note_off_c, 12, 59, 127
1, 74712, Note_on_c, 0, 60, 127
1, 74712, Note_on_c, 4, 52, 127
1, 74712, Note_on_c, 4, 40, 127
1, 74958, Note_off_c, 12, 71, 127
1, 74983, Note_on_c, 10, 69, 127
1, 75117, Note_off_c, 10, 69, 127
1, 75118, Note_on_c, 8, 68, 127
1, 75252, Note_off_c, 8, 68, 127
1, 75253, Note_on_c, 10, 69, 127
1, 75523, Note_off_c, 0, 60, 127
1, 75524, Note_on_c, 12, 59, 127
1, 75658, Note_off_c, 12, 59, 127
1, 75659, Note_on_c, 10, 57, 127
1, 75793, Note_off_c, 10, 57, 127
1, 75793, Note_off_c, 4, 52, 127
1, 75794, Note_on_c, 12, 59, 127
1, 76064, Note_off_c, 12, 59, 127
1, 76064, Note_off_c, 10, 69, 127
1, 76065, Note_off_c, 4, 40, 127
1, 76065, Note_on_c, 7, 67, 127
1, 76065, Note_on_c, 4, 52, 127
1, 76199, Note_off_c, 7, 67, 127
1, 76200, Note_on_c, 6, 66, 127
1, 76334, Note_off_c, 6, 66, 127
1, 76335, Note_on_c, 7, 67, 127
1, 76335, Note_on_c, 4, 64, 127
1, 76459, Note_off_c, 4, 52, 127
1, 76604, Note_off_c, 7, 67, 127
1, 76605, Note_on_c, 10, 69, 127
1, 76739, Note_off_c, 10, 69, 127
1, 76740, Note_on_c, 7, 67, 127
1, 76874, Note_off_c, 7, 67, 127
1, 76875, Note_on_c, 6, 66, 127
1, 77149, Note_off_c, 6, 66, 127
1, 77150, Note_on_c, 7, 67, 127
1, 77286, Note_off_c, 7, 67, 127
1, 77289, Note_on_c, 10, 69, 127
1, 77416, Note_off_c, 4, 64, 127
1, 77424, Note_off_c, 10, 69, 127
1, 77427, Note_on_c, 12, 47, 127
1, 77427, Note_on_c, 12, 59, 127
1, 77427, Note_on_c, 3, 63, 127
1, 77427, Note_on_c, 10, 69, 127
1, 77495, Note_off_c, 10, 69, 127
1, 77496, Note_on_c, 7, 67, 127
1, 77564, Note_off_c, 7, 67, 127
1, 77565, Note_on_c, 10, 69, 127
1, 77633, Note_off_c, 10, 69, 127
1, 77634, Note_on_c, 7, 67, 127
1, 77834, Note_off_c, 7, 67, 127
1, 77841, Note_on_c, 6, 66, 127
1, 77977, Note_off_c, 6, 66, 127
1, 77977, Note_off_c, 3, 63, 127
1, 77977, Note_off_c, 12, 47, 127
1, 77980, Note_on_c, 0, 48, 127
1, 77980, Note_on_c, 4, 64, 127
1, 78254, Note_off_c, 12, 59, 127
1, 78267, Note_on_c, 10, 57, 127
1, 78405, Note_off_c, 10, 57, 127
1, 78411, Note_on_c, 8, 56, 127
1, 78549, Note_off_c, 8, 56, 127
1, 78553, Note_on_c, 10, 57, 127
1, 78830, Note_off_c, 0, 48, 127
1, 78841, Note_on_c, 12, 47, 127
1, 78979, Note_off_c, 12, 47, 127
1, 78983, Note_on_c, 10, 45, 127
1, 79113, Note_off_c, 4, 64, 127
1, 79121, Note_off_c, 10, 45, 127
1, 79128, Note_on_c, 12, 47, 127
1, 79128, Note_on_c, 3, 63, 127
1, 79128, Note_on_c, 12, 71, 127
1, 79402, Note_off_c, 10, 57, 127
1, 79420, Note_on_c, 7, 55, 127
1, 79563, Note_off_c, 7, 55, 127
1, 79567, Note_on_c, 6, 54, 127
1, 79705, Note_off_c, 3, 63, 127
1, 79709, Note_off_c, 6, 54, 127
1, 79713, Note_on_c, 7, 55, 127
1, 79713, Note_on_c, 4, 64, 127
1, 80001, Note_off_c, 7, 55, 127
1, 80005, Note_on_c, 10, 57, 127
1, 80148, Note_off_c, 10, 57, 127
1, 80152, Note_on_c, 7, 55, 127
1, 80295, Note_off_c, 7, 55, 127
1, 80298, Note_on_c, 6, 54, 127
1, 80600, Note_off_c, 6, 54, 127
1, 80608, Note_on_c, 7, 55, 127
1, 80871, Note_off_c, 4, 64, 127
1, 80911, Note_off_c, 7, 55, 127
1, 80919, Note_on_c, 3, 63, 127
1, 80919, Note_on_c, 10, 57, 127
1, 81156, Note_off_c, 12, 71, 127
1, 81228, Note_on_c, 10, 69, 127
1, 81376, Note_off_c, 10, 69, 127
1, 81383, Note_on_c, 12, 71, 127
1, 81445, Note_off_c, 12, 47, 127
1, 81525, Note_off_c, 10, 57, 127
1, 81525, Note_off_c, 3, 63, 127
1, 81531, Note_off_c, 12, 71, 127
1, 81539, Note_on_c, 0, 72, 127
1, 81539, Note_on_c, 4, 64, 127
1, 81539, Note_on_c, 8, 56, 127
1, 81539, Note_on_c, 4, 52, 127
1, 81855, Note_off_c, 8, 56, 127
1, 81856, Note_off_c, 0, 72, 127
1, 81873, Note_on_c, 10, 57, 127
1, 81873, Note_on_c, 2, 74, 127
1, 82038, Note_off_c, 2, 74, 127
1, 82055, Note_on_c, 0, 72, 127
1, 82189, Note_off_c, 10, 57, 127
1, 82220, Note_off_c, 0, 72, 127
1, 82236, Note_on_c, 8, 56, 127
1, 82236, Note_on_c, 12, 71, 127
1, 82544, Note_off_c, 4, 64, 127
1, 82552, Note_off_c, 8, 56, 127
1, 82572, Note_on_c, 3, 63, 127
1, 82572, Note_on_c, 6, 54, 127
1, 82729, Note_off_c, 12, 71, 127
1, 82760, Note_on_c, 10, 69, 127
1, 82888, Note_off_c, 6, 54, 127
1, 82923, Note_off_c, 3, 63, 127
1, 82980, Note_off_c, 10, 69, 127
1, 83031, Note_on_c, 8, 56, 127
1, 83032, Note_on_c, 4, 64, 127
1, 83033, Note_on_c, 12, 71, 127
1, 85187, Note_off_c, 4, 52, 127
1, 85462, Note_off_c, 8, 56, 127
1, 85463, Note_off_c, 4, 64, 127
1, 85464, Note_off_c, 12, 71, 127
1, 86257, Note_on_c, 4, 64, 127
1, 86464, Note_off_c, 4, 64, 127
1, 86481, Note_on_c, 6, 66, 127
1, 86688, Note_off_c, 6, 66, 127
1, 86696, Note_on_c, 7, 67, 127
1, 86905, Note_on_c, 3, 63, 127
1, 87112, Note_off_c, 3, 63, 127
1, 87114, Note_on_c, 4, 64, 127
1, 87323, Note_on_c, 12, 59, 127
1, 87530, Note_off_c, 12, 59, 127
1, 87532, Note_on_c, 7, 55, 127
1, 87741, Note_on_c, 12, 59, 127
1, 87950, Note_on_c, 4, 52, 127
1, 88181, Note_on_c, 12, 47, 127
1, 88388, Note_off_c, 12, 47, 127
1, 88399, Note_on_c, 7, 43, 127
1, 88617, Note_on_c, 12, 47, 127
1, 88785, Note_off_c, 7, 55, 127
1, 88785, Note_off_c, 4, 64, 127
1, 88787, Note_off_c, 12, 59, 127
1, 88787, Note_off_c, 7, 67, 127
1, 88855, Note_on_c, 4, 40, 127
1, 89230, Note_on_c, 6, 66, 127
1, 89437, Note_off_c, 6, 66, 127
1, 89439, Note_on_c, 7, 67, 127
1, 89646, Note_off_c, 7, 67, 127
1, 89648, Note_on_c, 10, 69, 127
1, 89652, Note_off_c, 12, 47, 127
1, 89652, Note_off_c, 7, 43, 127
1, 89683, Note_off_c, 4, 40, 127
1, 89855, Note_off_c, 10, 69, 127
1, 89857, Note_on_c, 12, 71, 127
1, 90066, Note_on_c, 6, 66, 127
1, 90273, Note_off_c, 6, 66, 127
1, 90275, Note_on_c, 7, 67, 127
1, 90456, Note_off_c, 4, 52, 127
1, 90482, Note_off_c, 7, 67, 127
1, 90484, Note_on_c, 3, 63, 127
1, 90691, Note_off_c, 3, 63, 127
1, 90693, Note_on_c, 4, 64, 127
1, 90885, Note_off_c, 12, 71, 127
1, 90902, Note_on_c, 12, 71, 127
1, 91109, Note_off_c, 12, 71, 127
1, 91111, Note_on_c, 7, 67, 127
1, 91303, Note_off_c, 4, 64, 127
1, 91318, Note_off_c, 7, 67, 127
1, 91320, Note_on_c, 4, 64, 127
1, 91529, Note_on_c, 2, 74, 127
1, 91738, Note_on_c, 12, 71, 127
1, 91945, Note_off_c, 12, 71, 127
1, 91947, Note_on_c, 8, 68, 127
1, 92148, Note_off_c, 4, 64, 127
1, 92155, Note_off_c, 8, 68, 127
1, 92157, Note_on_c, 12, 71, 127
1, 92364, Note_off_c, 12, 71, 127
1, 92366, Note_on_c, 4, 64, 127
1, 92558, Note_off_c, 2, 74, 127
1, 92575, Note_on_c, 2, 74, 127
1, 92782, Note_off_c, 2, 74, 127
1, 92784, Note_on_c, 8, 56, 127
1, 92784, Note_on_c, 0, 72, 127
1, 92991, Note_off_c, 0, 72, 127
1, 92993, Note_on_c, 12, 71, 127
1, 93200, Note_off_c, 12, 71, 127
1, 93200, Note_off_c, 8, 56, 127
1, 93202, Note_on_c, 10, 57, 127
1, 93202, Note_on_c, 0, 72, 127
1, 93409, Note_off_c, 0, 72, 127
1, 93411, Note_on_c, 2, 74, 127
1, 93618, Note_off_c, 2, 74, 127
1, 93620, Note_on_c, 4, 76, 127
1, 93827, Note_off_c, 4, 76, 127
1, 93829, Note_on_c, 12, 71, 127
1, 94036, Note_off_c, 12, 71, 127
1, 94036, Note_off_c, 4, 64, 127
1, 94038, Note_on_c, 0, 72, 127
1, 94247, Note_on_c, 8, 68, 127
1, 94454, Note_off_c, 8, 68, 127
1, 94454, Note_off_c, 10, 57, 127
1, 94456, Note_on_c, 10, 69, 127
1, 94665, Note_on_c, 4, 64, 127
1, 94874, Note_on_c, 0, 60, 127
1, 95083, Note_on_c, 10, 45, 127
1, 95292, Note_on_c, 0, 48, 127
1, 95501, Note_on_c, 4, 52, 127
1, 95700, Note_off_c, 4, 64, 127
1, 95702, Note_off_c, 0, 60, 127
1, 95709, Note_off_c, 10, 69, 127
1, 95781, Note_on_c, 4, 40, 127
1, 96113, Note_off_c, 0, 48, 127
1, 96327, Note_off_c, 0, 72, 127
1, 96338, Note_off_c, 10, 45, 127
1, 96561, Note_on_c, 12, 71, 127
1, 96768, Note_off_c, 12, 71, 127
1, 96769, Note_on_c, 10, 69, 127
1, 96829, Note_off_c, 4, 40, 127
1, 96910, Note_off_c, 4, 52, 127
1, 96969, Note_on_c, 8, 68, 127
1, 96977, Note_off_c, 10, 69, 127
1, 97176, Note_off_c, 8, 68, 127
1, 97178, Note_on_c, 10, 69, 127
1, 97387, Note_on_c, 12, 71, 127
1, 97592, Note_off_c, 10, 69, 127
1, 97594, Note_off_c, 12, 71, 127
1, 97596, Note_on_c, 0, 72, 127
1, 97805, Note_on_c, 8, 68, 127
1, 98012, Note_off_c, 8, 68, 127
1, 98014, Note_on_c, 10, 69, 127
1, 98075, Note_off_c, 0, 72, 127
1, 98180, Note_on_c, 4, 64, 127
1, 98254, Note_off_c, 10, 69, 127
1, 98306, Note_on_c, 10, 69, 127
1, 98354, Note_off_c, 4, 64, 127
1, 98433, Note_on_c, 7, 67, 127
1, 98461, Note_off_c, 10, 69, 127
1, 98640, Note_off_c, 7, 67, 127
1, 98642, Note_on_c, 5, 65, 127
1, 98849, Note_off_c, 5, 65, 127
1, 98851, Note_on_c, 4, 64, 127
1, 99058, Note_off_c, 4, 64, 127
1, 99060, Note_on_c, 5, 65, 127
1, 99267, Note_off_c, 5, 65, 127
1, 99269, Note_on_c, 4, 64, 127
1, 99476, Note_off_c, 4, 64, 127
1, 99478, Note_on_c, 2, 62, 127
1, 99685, Note_off_c, 2, 62, 127
1, 99687, Note_on_c, 0, 60, 127
1, 99894, Note_off_c, 0, 60, 127
1, 99896, Note_on_c, 2, 62, 127
1, 100103, Note_off_c, 2, 62, 127
1, 100105, Note_on_c, 4, 64, 127
1, 100314, Note_on_c, 12, 59, 127
1, 100521, Note_off_c, 12, 59, 127
1, 100523, Note_on_c, 0, 60, 127
1, 100584, Note_off_c, 4, 64, 127
1, 100625, Note_off_c, 0, 60, 127
1, 100627, Note_on_c, 10, 57, 127
1, 100732, Note_on_c, 12, 59, 127
1, 100835, Note_off_c, 12, 59, 127
1, 100837, Note_on_c, 0, 60, 127
1, 100940, Note_off_c, 0, 60, 127
1, 100942, Note_on_c, 2, 62, 127
1, 101045, Note_off_c, 2, 62, 127
1, 101047, Note_on_c, 4, 64, 127
1, 101150, Note_off_c, 4, 64, 127
1, 101152, Note_on_c, 6, 66, 127
1, 101217, Note_off_c, 10, 57, 127
1, 101254, Note_off_c, 6, 66, 127
1, 101256, Note_on_c, 8, 68, 127
1, 101359, Note_off_c, 8, 68, 127
1, 101361, Note_on_c, 10, 69, 127
1, 101570, Note_on_c, 0, 48, 127
1, 101777, Note_off_c, 0, 48, 127
1, 101779, Note_on_c, 12, 47, 127
1, 101986, Note_off_c, 12, 47, 127
1, 101988, Note_on_c, 10, 45, 127
1, 102195, Note_off_c, 10, 45, 127
1, 102197, Note_on_c, 4, 52, 127
1, 102276, Note_off_c, 10, 69, 127
1, 102407, Note_on_c, 12, 71, 127
1, 102614, Note_off_c, 12, 71, 127
1, 102616, Note_on_c, 10, 69, 127
1, 102823, Note_off_c, 10, 69, 127
1, 102825, Note_on_c, 8, 68, 127
1, 103032, Note_off_c, 8, 68, 127
1, 103034, Note_on_c, 10, 69, 127
1, 103243, Note_on_c, 2, 62, 127
1, 103450, Note_off_c, 2, 62, 127
1, 103452, Note_on_c, 0, 60, 127
1, 103659, Note_off_c, 0, 60, 127
1, 103661, Note_on_c, 12, 59, 127
1, 103868, Note_off_c, 12, 59, 127
1, 103868, Note_off_c, 4, 52, 127
1, 103870, Note_on_c, 4, 52, 127
1, 103870, Note_on_c, 0, 60, 127
1, 104079, Note_off_c, 10, 69, 127
1, 104079, Note_on_c, 4, 64, 127
1, 104286, Note_off_c, 4, 64, 127
1, 104288, Note_on_c, 6, 66, 127
1, 104495, Note_off_c, 6, 66, 127
1, 104497, Note_on_c, 8, 68, 127
1, 104698, Note_off_c, 0, 60, 127
1, 104705, Note_off_c, 8, 68, 127
1, 104707, Note_on_c, 10, 69, 127
1, 104916, Note_on_c, 2, 62, 127
1, 105123, Note_off_c, 2, 62, 127
1, 105125, Note_on_c, 0, 60, 127
1, 105332, Note_off_c, 0, 60, 127
1, 105334, Note_on_c, 12, 59, 127
1, 105541, Note_off_c, 12, 59, 127
1, 105541, Note_off_c, 4, 52, 127
1, 105543, Note_on_c, 4, 52, 127
1, 105543, Note_on_c, 0, 60, 127
1, 105665, Note_off_c, 10, 69, 127
1, 105752, Note_on_c, 12, 71, 127
1, 105959, Note_off_c, 12, 71, 127
1, 105961, Note_on_c, 10, 69, 127
1, 106168, Note_off_c, 10, 69, 127
1, 106170, Note_on_c, 8, 68, 127
1, 106371, Note_off_c, 0, 60, 127
1, 106378, Note_off_c, 8, 68, 127
1, 106380, Note_on_c, 10, 69, 127
1, 106589, Note_on_c, 0, 60, 127
1, 106796, Note_off_c, 0, 60, 127
1, 106798, Note_on_c, 12, 59, 127
1, 107005, Note_off_c, 12, 59, 127
1, 107007, Note_on_c, 10, 57, 127
1, 107214, Note_off_c, 10, 57, 127
1, 107214, Note_off_c, 4, 52, 127
1, 107216, Note_on_c, 12, 59, 127
1, 107216, Note_on_c, 4, 52, 127
1, 107338, Note_off_c, 10, 69, 127
1, 107425, Note_on_c, 10, 69, 127
1, 107632, Note_off_c, 10, 69, 127
1, 107634, Note_on_c, 8, 68, 127
1, 107841, Note_off_c, 8, 68, 127
1, 107843, Note_on_c, 6, 66, 127
1, 108050, Note_off_c, 6, 66, 127
1, 108052, Note_on_c, 8, 68, 127
1, 108259, Note_off_c, 8, 68, 127
1, 108261, Note_on_c, 10, 69, 127
1, 108468, Note_off_c, 10, 69, 127
1, 108470, Note_on_c, 12, 71, 127
1, 108671, Note_off_c, 12, 59, 127
1, 108680, Note_on_c, 6, 66, 127
1, 108887, Note_off_c, 6, 66, 127
1, 108889, Note_on_c, 8, 68, 127
1, 109081, Note_off_c, 12, 71, 127
1, 109098, Note_on_c, 3, 63, 127
1, 109305, Note_off_c, 3, 63, 127
1, 109307, Note_off_c, 4, 52, 127
1, 109307, Note_on_c, 4, 64, 127
1, 109516, Note_on_c, 12, 59, 127
1, 109725, Note_on_c, 8, 56, 127
1, 109993, Note_on_c, 4, 40, 127
1, 110229, Note_on_c, 8, 44, 127
1, 110449, Note_on_c, 12, 47, 127
1, 110667, Note_on_c, 4, 52, 127
1, 111396, Note_off_c, 8, 68, 127
1, 111398, Note_off_c, 8, 56, 127
1, 111407, Note_off_c, 12, 59, 127
1, 111416, Note_off_c, 4, 64, 127
1, 111484, Note_off_c, 8, 44, 127
1, 111497, Note_off_c, 12, 47, 127
1, 111739, Note_off_c, 4, 40, 127
1, 112472, Note_off_c, 4, 52, 127
1, 113181, Note_on_c, 7, 67, 127
1, 113181, Note_on_c, 4, 52, 127
1, 113286, Note_on_c, 11, 70, 127
1, 113286, Note_on_c, 1, 61, 127
1, 113378, Note_off_c, 4, 52, 127
1, 113378, Note_off_c, 7, 67, 127
1, 113391, Note_on_c, 7, 67, 127
1, 113391, Note_on_c, 4, 52, 127
1, 113483, Note_off_c, 1, 61, 127
1, 113483, Note_off_c, 11, 70, 127
1, 113496, Note_on_c, 11, 70, 127
1, 113496, Note_on_c, 1, 61, 127
1, 113588, Note_off_c, 4, 52, 127
1, 113588, Note_off_c, 7, 67, 127
1, 113601, Note_on_c, 7, 67, 127
1, 113601, Note_on_c, 4, 52, 127
1, 113693, Note_off_c, 1, 61, 127
1, 113693, Note_off_c, 11, 70, 127
1, 113706, Note_on_c, 11, 70, 127
1, 113706, Note_on_c, 1, 61, 127
1, 113798, Note_off_c, 4, 52, 127
1, 113798, Note_off_c, 7, 67, 127
1, 113811, Note_on_c, 7, 67, 127
1, 113811, Note_on_c, 4, 52, 127
1, 113903, Note_off_c, 1, 61, 127
1, 113903, Note_off_c, 11, 70, 127
1, 113916, Note_on_c, 11, 70, 127
1, 113916, Note_on_c, 1, 61, 127
1, 114008, Note_off_c, 4, 52, 127
1, 114008, Note_off_c, 7, 67, 127
1, 114021, Note_on_c, 7, 67, 127
1, 114021, Note_on_c, 4, 52, 127
1, 114113, Note_off_c, 1, 61, 127
1, 114113, Note_off_c, 11, 70, 127
1, 114126, Note_on_c, 11, 70, 127
1, 114126, Note_on_c, 1, 61, 127
1, 114218, Note_off_c, 4, 52, 127
1, 114218, Note_off_c, 7, 67, 127
1, 114231, Note_on_c, 7, 67, 127
1, 114231, Note_on_c, 4, 52, 127
1, 114323, Note_off_c, 1, 61, 127
1, 114323, Note_off_c, 11, 70, 127
1, 114336, Note_on_c, 11, 70, 127
1, 114336, Note_on_c, 1, 61, 127
1, 114428, Note_off_c, 4, 52, 127
1, 114428, Note_off_c, 7, 67, 127
1, 114441, Note_on_c, 7, 67, 127
1, 114441, Note_on_c, 4, 52, 127
1, 114533, Note_off_c, 1, 61, 127
1, 114533, Note_off_c, 11, 70, 127
1, 114546, Note_on_c, 11, 70, 127
1, 114546, Note_on_c, 1, 61, 127
1, 114638, Note_off_c, 4, 52, 127
1, 114638, Note_off_c, 7, 67, 127
1, 114651, Note_on_c, 7, 67, 127
1, 114651, Note_on_c, 4, 52, 127
1, 114743, Note_off_c, 1, 61, 127
1, 114743, Note_off_c, 11, 70, 127
1, 114756, Note_on_c, 11, 70, 127
1, 114756, Note_on_c, 1, 61, 127
1, 114848, Note_off_c, 4, 52, 127
1, 114848, Note_off_c, 7, 67, 127
1, 114859, Note_off_c, 1, 61, 127
1, 114859, Note_off_c, 11, 70, 127
1, 114861, Note_on_c, 12, 71, 127
1, 114861, Note_on_c, 6, 66, 127
1, 114861, Note_on_c, 2, 62, 127
1, 114861, Note_on_c, 6, 54, 127
1, 114861, Note_on_c, 12, 59, 127
1, 114861, Note_on_c, 2, 50, 127
1, 115690, Note_off_c, 2, 50, 127
1, 115690, Note_off_c, 12, 59, 127
1, 115690, Note_off_c, 6, 54, 127
1, 115690, Note_off_c, 2, 62, 127
1, 115690, Note_off_c, 6, 66, 127
1, 116118, Note_on_c, 10, 69, 127
1, 116221, Note_off_c, 10, 69, 127
1, 116223, Note_on_c, 7, 67, 127
1, 116237, Note_off_c, 12, 71, 127
1, 116326, Note_off_c, 7, 67, 127
1, 116328, Note_on_c, 6, 66, 127
1, 116431, Note_off_c, 6, 66, 127
1, 116433, Note_on_c, 4, 64, 127
1, 116536, Note_off_c, 4, 64, 127
1, 116538, Note_on_c, 2, 62, 127
1, 116641, Note_off_c, 2, 62, 127
1, 116643, Note_on_c, 1, 61, 127
1, 116746, Note_off_c, 1, 61, 127
1, 116748, Note_on_c, 12, 59, 127
1, 116955, Note_off_c, 12, 59, 127
1, 116957, Note_on_c, 10, 57, 127
1, 117060, Note_off_c, 10, 57, 127
1, 117062, Note_on_c, 7, 55, 127
1, 117165, Note_off_c, 7, 55, 127
1, 117167, Note_on_c, 6, 54, 127
1, 117270, Note_off_c, 6, 54, 127
1, 117272, Note_on_c, 4, 52, 127
1, 117375, Note_off_c, 4, 52, 127
1, 117377, Note_on_c, 2, 50, 127
1, 117480, Note_off_c, 2, 50, 127
1, 117482, Note_on_c, 1, 49, 127
1, 117585, Note_off_c, 1, 49, 127
1, 117587, Note_on_c, 12, 47, 127
1, 117702, Note_on_c, 2, 50, 127
1, 117853, Note_on_c, 2, 38, 127
1, 118002, Note_off_c, 12, 47, 127
1, 118478, Note_off_c, 2, 38, 127
1, 118478, Note_off_c, 2, 50, 127
1, 119312, Note_on_c, 4, 76, 127
1, 119508, Note_off_c, 4, 76, 127
1, 119515, Note_on_c, 6, 78, 127
1, 119702, Note_off_c, 6, 78, 127
1, 119716, Note_on_c, 7, 79, 127
1, 119908, Note_on_c, 3, 75, 127
1, 119982, Note_off_c, 7, 79, 127
1, 120095, Note_off_c, 3, 75, 127
1, 120099, Note_on_c, 4, 76, 127
1, 120282, Note_on_c, 12, 71, 127
1, 120465, Note_on_c, 7, 67, 127
1, 120489, Note_off_c, 12, 71, 127
1, 120648, Note_on_c, 12, 71, 127
1, 120831, Note_on_c, 4, 64, 127
1, 121023, Note_on_c, 0, 60, 127
1, 121206, Note_on_c, 7, 55, 127
1, 121389, Note_on_c, 4, 52, 127
1, 121468, Note_off_c, 7, 55, 127
1, 121573, Note_on_c, 7, 55, 127
1, 121634, Note_off_c, 0, 60, 127
1, 121715, Note_off_c, 12, 71, 127
1, 121719, Note_off_c, 7, 67, 127
1, 121732, Note_off_c, 4, 64, 127
1, 121754, Note_off_c, 4, 76, 127
1, 121765, Note_on_c, 0, 48, 127
1, 122132, Note_off_c, 4, 52, 127
1, 122141, Note_off_c, 7, 55, 127
1, 122274, Note_off_c, 0, 48, 127
1, 122403, Note_on_c, 4, 76, 127
1, 122610, Note_off_c, 4, 76, 127
1, 122612, Note_on_c, 6, 78, 127
1, 122819, Note_off_c, 6, 78, 127
1, 122821, Note_on_c, 8, 80, 127
1, 123028, Note_off_c, 8, 80, 127
1, 123030, Note_on_c, 10, 81, 127
1, 123239, Note_on_c, 0, 84, 127
1, 123342, Note_off_c, 0, 84, 127
1, 123344, Note_on_c, 8, 80, 127
1, 123444, Note_off_c, 10, 81, 127
1, 123446, Note_off_c, 8, 80, 127
1, 123448, Note_on_c, 10, 81, 127
1, 123657, Note_on_c, 4, 76, 127
1, 123862, Note_off_c, 10, 81, 127
1, 123864, Note_off_c, 4, 76, 127
1, 123866, Note_on_c, 0, 72, 127
1, 124073, Note_off_c, 0, 72, 127
1, 124075, Note_on_c, 2, 74, 127
1, 124282, Note_off_c, 2, 74, 127
1, 124284, Note_on_c, 4, 76, 127
1, 124493, Note_on_c, 12, 71, 127
1, 124700, Note_off_c, 12, 71, 127
1, 124702, Note_on_c, 0, 72, 127
1, 124911, Note_on_c, 8, 68, 127
1, 125112, Note_off_c, 4, 76, 127
1, 125119, Note_off_c, 8, 68, 127
1, 125121, Note_on_c, 10, 69, 127
1, 125313, Note_off_c, 0, 72, 127
1, 125353, Note_on_c, 4, 64, 127
1, 125470, Note_off_c, 10, 69, 127
1, 125666, Note_off_c, 4, 64, 127
1, 125750, Note_on_c, 4, 76, 127
1, 125853, Note_off_c, 4, 76, 127
1, 125855, Note_on_c, 6, 78, 127
1, 125958, Note_off_c, 6, 78, 127
1, 125960, Note_on_c, 7, 79, 127
1, 126063, Note_off_c, 7, 79, 127
1, 126065, Note_on_c, 11, 70, 127
1, 126272, Note_off_c, 11, 70, 127
1, 126274, Note_on_c, 12, 71, 127
1, 126377, Note_off_c, 12, 71, 127
1, 126379, Note_on_c, 1, 73, 127
1, 126482, Note_off_c, 1, 73, 127
1, 126484, Note_on_c, 1, 49, 127
1, 126484, Note_on_c, 4, 52, 127
1, 126484, Note_on_c, 11, 58, 127
1, 126484, Note_on_c, 4, 64, 127
1, 126552, Note_off_c, 4, 64, 127
1, 126554, Note_on_c, 3, 63, 127
1, 126622, Note_off_c, 3, 63, 127
1, 126624, Note_on_c, 4, 64, 127
1, 126973, Note_off_c, 4, 64, 127
1, 127008, Note_on_c, 6, 66, 127
1, 127111, Note_off_c, 6, 66, 127
1, 127113, Note_on_c, 4, 64, 127
1, 127216, Note_off_c, 4, 64, 127
1, 127218, Note_on_c, 3, 63, 127
1, 127321, Note_off_c, 3, 63, 127
1, 127323, Note_on_c, 4, 64, 127
1, 127426, Note_off_c, 4, 64, 127
1, 127428, Note_on_c, 6, 66, 127
1, 127531, Note_off_c, 6, 66, 127
1, 127533, Note_off_c, 11, 58, 127
1, 127533, Note_off_c, 4, 52, 127
1, 127533, Note_off_c, 1, 49, 127
1, 127533, Note_on_c, 7, 67, 127
1, 127636, Note_off_c, 7, 67, 127
1, 127638, Note_on_c, 3, 63, 127
1, 127741, Note_off_c, 3, 63, 127
1, 127743, Note_on_c, 4, 64, 127
1, 127846, Note_off_c, 4, 64, 127
1, 127848, Note_on_c, 11, 58, 127
1, 127951, Note_off_c, 11, 58, 127
1, 127953, Note_on_c, 12, 59, 127
1, 128056, Note_off_c, 12, 59, 127
1, 128058, Note_on_c, 1, 61, 127
1, 128161, Note_off_c, 1, 61, 127
1, 128163, Note_on_c, 3, 63, 127
1, 128231, Note_off_c, 3, 63, 127
1, 128233, Note_on_c, 1, 61, 127
1, 128301, Note_off_c, 1, 61, 127
1, 128303, Note_on_c, 3, 63, 127
1, 128373, Note_on_c, 12, 47, 127
1, 128582, Note_on_c, 3, 51, 127
1, 128791, Note_on_c, 6, 54, 127
1, 129000, Note_on_c, 12, 59, 127
1, 129209, Note_on_c, 6, 66, 127
1, 129261, Note_off_c, 3, 63, 127
1, 129418, Note_on_c, 3, 63, 127
1, 129610, Note_off_c, 12, 59, 127
1, 129627, Note_on_c, 12, 59, 127
1, 129906, Note_on_c, 12, 71, 127
1, 130253, Note_off_c, 3, 51, 127
1, 130465, Note_off_c, 12, 47, 127
1, 130598, Note_off_c, 6, 54, 127
1, 130605, Note_off_c, 12, 59, 127
1, 130891, Note_off_c, 3, 63, 127
1, 130900, Note_off_c, 6, 66, 127
1, 130954, Note_off_c, 12, 71, 127
1, 131223, Note_on_c, 1, 49, 127
1, 131326, Note_off_c, 1, 49, 127
1, 131328, Note_on_c, 3, 51, 127
1, 131431, Note_off_c, 3, 51, 127
1, 131433, Note_on_c, 4, 52, 127
1, 131536, Note_off_c, 4, 52, 127
1, 131538, Note_on_c, 6, 54, 127
1, 131641, Note_off_c, 6, 54, 127
1, 131643, Note_on_c, 7, 55, 127
1, 131746, Note_off_c, 7, 55, 127
1, 131748, Note_on_c, 10, 57, 127
1, 131851, Note_off_c, 10, 57, 127
1, 131853, Note_on_c, 12, 59, 127
1, 131956, Note_off_c, 12, 59, 127
1, 131958, Note_on_c, 1, 61, 127
1, 132061, Note_off_c, 1, 61, 127
1, 132063, Note_on_c, 3, 63, 127
1, 132166, Note_off_c, 3, 63, 127
1, 132168, Note_on_c, 4, 64, 127
1, 132271, Note_off_c, 4, 64, 127
1, 132273, Note_on_c, 6, 66, 127
1, 132376, Note_off_c, 6, 66, 127
1, 132378, Note_on_c, 7, 67, 127
1, 132481, Note_off_c, 7, 67, 127
1, 132483, Note_on_c, 10, 69, 127
1, 132586, Note_off_c, 10, 69, 127
1, 132588, Note_on_c, 12, 71, 127
1, 132691, Note_off_c, 12, 71, 127
1, 132693, Note_on_c, 6, 66, 127
1, 132796, Note_off_c, 6, 66, 127
1, 132798, Note_on_c, 7, 67, 127
1, 133005, Note_off_c, 7, 67, 127
1, 133007, Note_on_c, 10, 69, 127
1, 133214, Note_off_c, 10, 69, 127
1, 133216, Note_on_c, 12, 71, 127
1, 133425, Note_on_c, 6, 66, 127
1, 133632, Note_off_c, 6, 66, 127
1, 133634, Note_on_c, 7, 67, 127
1, 133843, Note_on_c, 2, 62, 127
1, 134050, Note_off_c, 2, 62, 127
1, 134052, Note_on_c, 12, 59, 127
1, 134261, Note_on_c, 2, 62, 127
1, 134470, Note_on_c, 7, 55, 127
1, 134679, Note_on_c, 7, 43, 127
1, 134884, Note_off_c, 7, 55, 127
1, 134888, Note_on_c, 12, 47, 127
1, 135095, Note_off_c, 12, 47, 127
1, 135097, Note_on_c, 2, 50, 127
1, 135304, Note_off_c, 2, 50, 127
1, 135304, Note_off_c, 12, 59, 127
1, 135306, Note_on_c, 7, 55, 127
1, 135539, Note_on_c, 4, 76, 127
1, 135746, Note_off_c, 4, 76, 127
1, 135748, Note_on_c, 2, 74, 127
1, 135931, Note_off_c, 7, 43, 127
1, 135931, Note_off_c, 2, 62, 127
1, 135955, Note_off_c, 2, 74, 127
1, 135957, Note_on_c, 1, 73, 127
1, 136134, Note_off_c, 7, 55, 127
1, 136138, Note_off_c, 7, 67, 127
1, 136153, Note_off_c, 12, 71, 127
1, 136164, Note_off_c, 1, 73, 127
1, 136166, Note_on_c, 6, 54, 127
1, 136166, Note_on_c, 2, 62, 127
1, 136166, Note_on_c, 10, 57, 127
1, 136166, Note_on_c, 2, 74, 127
1, 136376, Note_on_c, 10, 69, 127
1, 136583, Note_off_c, 10, 69, 127
1, 136585, Note_on_c, 6, 66, 127
1, 136792, Note_off_c, 6, 66, 127
1, 136794, Note_on_c, 7, 67, 127
1, 136995, Note_off_c, 2, 74, 127
1, 136995, Note_off_c, 2, 62, 127
1, 137002, Note_off_c, 7, 67, 127
1, 137004, Note_on_c, 10, 69, 127
1, 137213, Note_on_c, 6, 66, 127
1, 137418, Note_off_c, 10, 69, 127
1, 137420, Note_off_c, 6, 66, 127
1, 137420, Note_off_c, 10, 57, 127
1, 137422, Note_on_c, 7, 67, 127
1, 137631, Note_on_c, 4, 64, 127
1, 137836, Note_off_c, 7, 67, 127
1, 137838, Note_off_c, 4, 64, 127
1, 137838, Note_off_c, 6, 54, 127
1, 137840, Note_on_c, 6, 66, 127
1, 138049, Note_on_c, 10, 69, 127
1, 138256, Note_off_c, 10, 69, 127
1, 138258, Note_on_c, 2, 62, 127
1, 138450, Note_off_c, 6, 66, 127
1, 138465, Note_off_c, 2, 62, 127
1, 138467, Note_on_c, 4, 64, 127
1, 138674, Note_off_c, 4, 64, 127
1, 138676, Note_on_c, 6, 66, 127
1, 138885, Note_on_c, 2, 62, 127
1, 139090, Note_off_c, 6, 66, 127
1, 139092, Note_off_c, 2, 62, 127
1, 139094, Note_on_c, 4, 64, 127
1, 139303, Note_on_c, 1, 61, 127
1, 139508, Note_off_c, 4, 64, 127
1, 139510, Note_off_c, 1, 61, 127
1, 139512, Note_on_c, 2, 62, 127
1, 139992, Note_on_c, 6, 54, 127
1, 140053, Note_off_c, 2, 62, 127
1, 140177, Note_on_c, 10, 57, 127
1, 140362, Note_on_c, 2, 62, 127
1, 140555, Note_on_c, 6, 66, 127
1, 140580, Note_off_c, 2, 62, 127
1, 140740, Note_off_c, 10, 57, 127
1, 140756, Note_off_c, 6, 54, 127
1, 140760, Note_on_c, 10, 69, 127
1, 140773, Note_off_c, 6, 66, 127
1, 140939, Note_on_c, 2, 74, 127
1, 140967, Note_off_c, 10, 69, 127
1, 141148, Note_on_c, 8, 68, 127
1, 141179, Note_off_c, 2, 74, 127
1, 141355, Note_off_c, 8, 68, 127
1, 141357, Note_on_c, 10, 69, 127
1, 141564, Note_off_c, 10, 69, 127
1, 141566, Note_on_c, 4, 64, 127
1, 141773, Note_off_c, 4, 64, 127
1, 141775, Note_on_c, 6, 66, 127
1, 141982, Note_off_c, 6, 66, 127
1, 141984, Note_on_c, 1, 61, 127
1, 142191, Note_off_c, 1, 61, 127
1, 142193, Note_on_c, 2, 62, 127
1, 142402, Note_on_c, 10, 57, 127
1, 142611, Note_on_c, 6, 54, 127
1, 142820, Note_on_c, 2, 50, 127
1, 143012, Note_off_c, 10, 57, 127
1, 143021, Note_off_c, 2, 62, 127
1, 143025, Note_off_c, 6, 54, 127
1, 143096, Note_off_c, 2, 50, 127
1, 143158, Note_on_c, 7, 79, 127
1, 143243, Note_on_c, 6, 78, 127
1, 143261, Note_off_c, 7, 79, 127
1, 143328, Note_on_c, 7, 79, 127
1, 143346, Note_off_c, 6, 78, 127
1, 143892, Note_on_c, 4, 40, 127
1, 144376, Note_off_c, 7, 79, 127
1, 144730, Note_on_c, 12, 71, 127
1, 144937, Note_off_c, 12, 71, 127
1, 144939, Note_off_c, 4, 40, 127
1, 144939, Note_on_c, 1, 73, 127
1, 145146, Note_off_c, 1, 73, 127
1, 145148, Note_on_c, 2, 74, 127
1, 145355, Note_off_c, 2, 74, 127
1, 145357, Note_on_c, 4, 76, 127
1, 145564, Note_off_c, 4, 76, 127
1, 145566, Note_on_c, 6, 78, 127
1, 145773, Note_off_c, 6, 78, 127
1, 145775, Note_on_c, 12, 71, 127
1, 145982, Note_off_c, 12, 71, 127
1, 145984, Note_on_c, 2, 74, 127
1, 146191, Note_off_c, 2, 74, 127
1, 146193, Note_on_c, 1, 73, 127
1, 146402, Note_on_c, 7, 67, 127
1, 146432, Note_off_c, 1, 73, 127
1, 146609, Note_off_c, 7, 67, 127
1, 146611, Note_on_c, 10, 69, 127
1, 146818, Note_off_c, 10, 69, 127
1, 146820, Note_on_c, 4, 64, 127
1, 147027, Note_off_c, 4, 64, 127
1, 147029, Note_on_c, 6, 66, 127
1, 147236, Note_off_c, 6, 66, 127
1, 147238, Note_on_c, 10, 69, 127
1, 147445, Note_off_c, 10, 69, 127
1, 147447, Note_on_c, 2, 74, 127
1, 147656, Note_on_c, 4, 64, 127
1, 147701, Note_off_c, 2, 74, 127
1, 147863, Note_off_c, 4, 64, 127
1, 147865, Note_on_c, 6, 66, 127
1, 148072, Note_off_c, 6, 66, 127
1, 148074, Note_on_c, 7, 67, 127
1, 148281, Note_off_c, 7, 67, 127
1, 148283, Note_on_c, 10, 69, 127
1, 148490, Note_off_c, 10, 69, 127
1, 148492, Note_on_c, 4, 64, 127
1, 148699, Note_off_c, 4, 64, 127
1, 148701, Note_on_c, 6, 66, 127
1, 148908, Note_off_c, 6, 66, 127
1, 148910, Note_on_c, 1, 61, 127
1, 149117, Note_off_c, 1, 61, 127
1, 149119, Note_on_c, 2, 62, 127
1, 149326, Note_off_c, 2, 62, 127
1, 149328, Note_on_c, 10, 57, 127
1, 149535, Note_off_c, 10, 57, 127
1, 149537, Note_on_c, 6, 54, 127
1, 149744, Note_off_c, 6, 54, 127
1, 149746, Note_on_c, 2, 50, 127
1, 149955, Note_on_c, 6, 54, 127
1, 150164, Note_on_c, 10, 57, 127
1, 150378, Note_on_c, 2, 62, 127
1, 151207, Note_off_c, 2, 62, 127
1, 151296, Note_on_c, 7, 67, 127
1, 151503, Note_off_c, 7, 67, 127
1, 151511, Note_on_c, 10, 69, 127
1, 151718, Note_off_c, 10, 69, 127
1, 151734, Note_on_c, 4, 64, 127
1, 151941, Note_off_c, 4, 64, 127
1, 151943, Note_on_c, 6, 66, 127
1, 152039, Note_off_c, 10, 57, 127
1, 152039, Note_off_c, 2, 50, 127
1, 152048, Note_off_c, 6, 54, 127
1, 152151, Note_off_c, 6, 66, 127
1, 152153, Note_on_c, 2, 62, 127
1, 152376, Note_on_c, 6, 66, 127
1, 152599, Note_on_c, 10, 69, 127
1, 152822, Note_on_c, 2, 74, 127
1, 153359, Note_on_c, 2, 38, 127
1, 153682, Note_off_c, 2, 74, 127
1, 153689, Note_off_c, 10, 69, 127
1, 153709, Note_off_c, 2, 62, 127
1, 153722, Note_off_c, 6, 66, 127
1, 154167, Note_off_c, 2, 38, 127
1, 154355, Note_on_c, 2, 74, 127
1, 154458, Note_off_c, 2, 74, 127
1, 154460, Note_on_c, 4, 76, 127
1, 154563, Note_off_c, 4, 76, 127
1, 154565, Note_on_c, 5, 77, 127
1, 154668, Note_off_c, 5, 77, 127
1, 154670, Note_on_c, 4, 76, 127
1, 154773, Note_off_c, 4, 76, 127
1, 154775, Note_on_c, 2, 74, 127
1, 154878, Note_off_c, 2, 74, 127
1, 154880, Note_on_c, 0, 72, 127
1, 154983, Note_off_c, 0, 72, 127
1, 154985, Note_on_c, 12, 71, 127
1, 155088, Note_off_c, 12, 71, 127
1, 155090, Note_on_c, 10, 69, 127
1, 155193, Note_off_c, 10, 69, 127
1, 155195, Note_on_c, 8, 68, 127
1, 155298, Note_off_c, 8, 68, 127
1, 155300, Note_on_c, 10, 69, 127
1, 155403, Note_off_c, 10, 69, 127
1, 155405, Note_on_c, 12, 71, 127
1, 155612, Note_off_c, 12, 71, 127
1, 155614, Note_on_c, 4, 64, 127
1, 155717, Note_off_c, 4, 64, 127
1, 155719, Note_on_c, 6, 66, 127
1, 155822, Note_off_c, 6, 66, 127
1, 155824, Note_on_c, 8, 68, 127
1, 156031, Note_off_c, 8, 68, 127
1, 156033, Note_on_c, 12, 59, 127
1, 156240, Note_off_c, 12, 59, 127
1, 156242, Note_on_c, 4, 64, 127
1, 156449, Note_off_c, 4, 64, 127
1, 156451, Note_on_c, 8, 56, 127
1, 156554, Note_off_c, 8, 56, 127
1, 156556, Note_on_c, 10, 57, 127
1, 156659, Note_off_c, 10, 57, 127
1, 156661, Note_on_c, 12, 59, 127
1, 156868, Note_off_c, 12, 59, 127
1, 156870, Note_on_c, 4, 52, 127
1, 156973, Note_off_c, 4, 52, 127
1, 156975, Note_on_c, 6, 54, 127
1, 157078, Note_off_c, 6, 54, 127
1, 157080, Note_on_c, 8, 56, 127
1, 157287, Note_off_c, 8, 56, 127
1, 157289, Note_on_c, 12, 47, 127
1, 157392, Note_off_c, 12, 47, 127
1, 157394, Note_on_c, 4, 52, 127
1, 157497, Note_off_c, 4, 52, 127
1, 157499, Note_on_c, 3, 51, 127
1, 157602, Note_off_c, 3, 51, 127
1, 157604, Note_on_c, 4, 52, 127
1, 157707, Note_off_c, 4, 52, 127
1, 157709, Note_on_c, 8, 44, 127
1, 157918, Note_on_c, 4, 64, 127
1, 158127, Note_on_c, 12, 71, 127
1, 158336, Note_on_c, 2, 74, 127
1, 158541, Note_off_c, 12, 71, 127
1, 158543, Note_off_c, 2, 74, 127
1, 158543, Note_off_c, 8, 44, 127
1, 158545, Note_on_c, 10, 45, 127
1, 158545, Note_on_c, 0, 72, 127
1, 158754, Note_on_c, 12, 71, 127
1, 158961, Note_off_c, 12, 71, 127
1, 158963, Note_on_c, 10, 69, 127
1, 159170, Note_off_c, 10, 69, 127
1, 159172, Note_on_c, 8, 68, 127
1, 159373, Note_off_c, 0, 72, 127
1, 159380, Note_off_c, 8, 68, 127
1, 159382, Note_on_c, 10, 69, 127
1, 159591, Note_on_c, 12, 71, 127
1, 159798, Note_off_c, 12, 71, 127
1, 159800, Note_on_c, 0, 72, 127
1, 159992, Note_off_c, 10, 69, 127
1, 160009, Note_on_c, 8, 68, 127
1, 160203, Note_off_c, 4, 64, 127
1, 160216, Note_off_c, 8, 68, 127
1, 160216, Note_off_c, 10, 45, 127
1, 160218, Note_on_c, 10, 69, 127
1, 160427, Note_on_c, 4, 64, 127
1, 160636, Note_on_c, 10, 45, 127
1, 160867, Note_on_c, 4, 52, 127
1, 161037, Note_off_c, 4, 64, 127
1, 161046, Note_off_c, 10, 69, 127
1, 161053, Note_off_c, 0, 72, 127
1, 161150, Note_on_c, 10, 57, 127
1, 161810, Note_on_c, 12, 71, 127
1, 161980, Note_on_c, 10, 69, 127
1, 161988, Note_off_c, 10, 45, 127
1, 162017, Note_off_c, 12, 71, 127
1, 162088, Note_off_c, 4, 52, 127
1, 162149, Note_on_c, 8, 68, 127
1, 162187, Note_off_c, 10, 69, 127
1, 162349, Note_off_c, 10, 57, 127
1, 162357, Note_off_c, 8, 68, 127
1, 162359, Note_on_c, 10, 69, 127
1, 162566, Note_off_c, 10, 69, 127
1, 162568, Note_on_c, 12, 71, 127
1, 162775, Note_off_c, 12, 71, 127
1, 162777, Note_on_c, 0, 72, 127
1, 162986, Note_on_c, 8, 68, 127
1, 163193, Note_off_c, 8, 68, 127
1, 163195, Note_on_c, 10, 69, 127
1, 163404, Note_on_c, 4, 64, 127
1, 163605, Note_off_c, 0, 72, 127
1, 163609, Note_off_c, 10, 69, 127
1, 163613, Note_on_c, 10, 69, 127
1, 163613, Note_on_c, 0, 72, 127
1, 163822, Note_on_c, 10, 45, 127
1, 164014, Note_off_c, 4, 64, 127
1, 164029, Note_off_c, 10, 45, 127
1, 164031, Note_on_c, 10, 57, 127
1, 164238, Note_off_c, 0, 72, 127
1, 164238, Note_off_c, 10, 69, 127
1, 164240, Note_on_c, 4, 64, 127
1, 164449, Note_on_c, 0, 72, 127
1, 164449, Note_on_c, 10, 69, 127
1, 164656, Note_off_c, 10, 57, 127
1, 164658, Note_on_c, 10, 45, 127
1, 164850, Note_off_c, 4, 64, 127
1, 164865, Note_off_c, 10, 45, 127
1, 164867, Note_on_c, 10, 57, 127
1, 165074, Note_off_c, 10, 69, 127
1, 165074, Note_off_c, 0, 72, 127
1, 165076, Note_on_c, 4, 64, 127
1, 165285, Note_on_c, 0, 72, 127
1, 165285, Note_on_c, 10, 69, 127
1, 165492, Note_off_c, 10, 57, 127
1, 165494, Note_on_c, 10, 45, 127
1, 165686, Note_off_c, 4, 64, 127
1, 165701, Note_off_c, 10, 45, 127
1, 165703, Note_on_c, 3, 51, 127
1, 165808, Note_off_c, 10, 69, 127
1, 165808, Note_off_c, 0, 72, 127
1, 165913, Note_on_c, 6, 66, 127
1, 166122, Note_on_c, 12, 71, 127
1, 166122, Note_on_c, 10, 69, 127
1, 166329, Note_off_c, 3, 51, 127
1, 166331, Note_on_c, 3, 39, 127
1, 166523, Note_off_c, 6, 66, 127
1, 166538, Note_off_c, 3, 39, 127
1, 166540, Note_on_c, 3, 51, 127
1, 166747, Note_off_c, 10, 69, 127
1, 166747, Note_off_c, 12, 71, 127
1, 166749, Note_on_c, 6, 66, 127
1, 166958, Note_on_c, 12, 71, 127
1, 166958, Note_on_c, 10, 69, 127
1, 167165, Note_off_c, 3, 51, 127
1, 167167, Note_on_c, 3, 39, 127
1, 167359, Note_off_c, 6, 66, 127
1, 167374, Note_off_c, 3, 39, 127
1, 167376, Note_on_c, 4, 52, 127
1, 167568, Note_off_c, 10, 69, 127
1, 167568, Note_off_c, 12, 71, 127
1, 167585, Note_on_c, 6, 66, 127
1, 167794, Note_on_c, 12, 71, 127
1, 167794, Note_on_c, 10, 69, 127
1, 168001, Note_off_c, 4, 52, 127
1, 168003, Note_on_c, 4, 40, 127
1, 168195, Note_off_c, 6, 66, 127
1, 168210, Note_off_c, 4, 40, 127
1, 168212, Note_on_c, 7, 55, 127
1, 168419, Note_off_c, 10, 69, 127
1, 168419, Note_off_c, 12, 71, 127
1, 168421, Note_on_c, 4, 64, 127
1, 168630, Note_on_c, 7, 67, 127
1, 168630, Note_on_c, 12, 71, 127
1, 168837, Note_off_c, 7, 55, 127
1, 168839, Note_on_c, 4, 52, 127
1, 169031, Note_off_c, 4, 64, 127
1, 169046, Note_off_c, 4, 52, 127
1, 169048, Note_on_c, 0, 60, 127
1, 169255, Note_off_c, 12, 71, 127
1, 169255, Note_off_c, 7, 67, 127
1, 169257, Note_on_c, 4, 64, 127
1, 169466, Note_on_c, 7, 67, 127
1, 169466, Note_on_c, 12, 71, 127
1, 169673, Note_off_c, 0, 60, 127
1, 169675, Note_on_c, 0, 36, 127
1, 169867, Note_off_c, 4, 64, 127
1, 169882, Note_off_c, 0, 36, 127
1, 169884, Note_on_c, 0, 48, 127
1, 170091, Note_off_c, 12, 71, 127
1, 170091, Note_off_c, 7, 67, 127
1, 170093, Note_on_c, 4, 64, 127
1, 170302, Note_on_c, 7, 67, 127
1, 170302, Note_on_c, 12, 71, 127
1, 170509, Note_off_c, 0, 48, 127
1, 170511, Note_on_c, 0, 36, 127
1, 170703, Note_off_c, 4, 64, 127
1, 170718, Note_off_c, 0, 36, 127
1, 170720, Note_on_c, 1, 49, 127
1, 170847, Note_off_c, 12, 71, 127
1, 170847, Note_off_c, 7, 67, 127
1, 170930, Note_on_c, 4, 64, 127
1, 171139, Note_on_c, 11, 70, 127
1, 171139, Note_on_c, 7, 67, 127
1, 171346, Note_off_c, 1, 49, 127
1, 171348, Note_on_c, 6, 42, 127
1, 171540, Note_off_c, 4, 64, 127
1, 171555, Note_off_c, 6, 42, 127
1, 171557, Note_on_c, 6, 54, 127
1, 171764, Note_off_c, 7, 67, 127
1, 171764, Note_off_c, 11, 70, 127
1, 171766, Note_on_c, 4, 64, 127
1, 171975, Note_on_c, 11, 70, 127
1, 171975, Note_on_c, 6, 66, 127
1, 172182, Note_off_c, 6, 54, 127
1, 172184, Note_on_c, 6, 42, 127
1, 172376, Note_off_c, 4, 64, 127
1, 172391, Note_off_c, 6, 42, 127
1, 172393, Note_on_c, 12, 59, 127
1, 172520, Note_off_c, 6, 66, 127
1, 172520, Note_off_c, 11, 70, 127
1, 172603, Note_on_c, 3, 63, 127
1, 172812, Note_on_c, 6, 66, 127
1, 172812, Note_on_c, 10, 69, 127
1, 173019, Note_off_c, 12, 59, 127
1, 173021, Note_on_c, 12, 47, 127
1, 173213, Note_off_c, 3, 63, 127
1, 173228, Note_off_c, 12, 47, 127
1, 173230, Note_on_c, 12, 59, 127
1, 173439, Note_on_c, 3, 63, 127
1, 173465, Note_off_c, 10, 69, 127
1, 173465, Note_off_c, 6, 66, 127
1, 173648, Note_on_c, 10, 69, 127
1, 173648, Note_on_c, 0, 72, 127
1, 173855, Note_off_c, 12, 59, 127
1, 173857, Note_on_c, 12, 47, 127
1, 174049, Note_off_c, 3, 63, 127
1, 174064, Note_off_c, 12, 47, 127
1, 174066, Note_on_c, 12, 59, 127
1, 174275, Note_on_c, 4, 64, 127
1, 174345, Note_off_c, 0, 72, 127
1, 174345, Note_off_c, 10, 69, 127
1, 174485, Note_on_c, 8, 68, 127
1, 174485, Note_on_c, 12, 71, 127
1, 174692, Note_off_c, 12, 59, 127
1, 174694, Note_on_c, 12, 47, 127
1, 174886, Note_off_c, 4, 64, 127
1, 174901, Note_off_c, 12, 47, 127
1, 174903, Note_on_c, 12, 59, 127
1, 175134, Note_on_c, 4, 64, 127
1, 175226, Note_off_c, 12, 71, 127
1, 175226, Note_off_c, 8, 68, 127
1, 175366, Note_on_c, 12, 71, 127
1, 175366, Note_on_c, 7, 67, 127
1, 175530, Note_off_c, 12, 59, 127
1, 175975, Note_on_c, 10, 57, 127
1, 176182, Note_off_c, 10, 57, 127
1, 176184, Note_on_c, 12, 59, 127
1, 176391, Note_off_c, 12, 59, 127
1, 176393, Note_on_c, 6, 54, 127
1, 176600, Note_off_c, 6, 54, 127
1, 176602, Note_on_c, 7, 55, 127
1, 176809, Note_off_c, 7, 55, 127
1, 176811, Note_on_c, 3, 51, 127
1, 177018, Note_off_c, 3, 51, 127
1, 177020, Note_on_c, 4, 52, 127
1, 177227, Note_off_c, 4, 52, 127
1, 177229, Note_on_c, 12, 47, 127
1, 177436, Note_off_c, 12, 47, 127
1, 177438, Note_on_c, 0, 48, 127
1, 177645, Note_off_c, 0, 48, 127
1, 177647, Note_on_c, 10, 45, 127
1, 177854, Note_off_c, 10, 45, 127
1, 177856, Note_on_c, 12, 47, 127
1, 177967, Note_off_c, 4, 64, 127
1, 177980, Note_off_c, 7, 67, 127
1, 177980, Note_off_c, 12, 71, 127
1, 178048, Note_off_c, 12, 47, 127
1, 178057, Note_on_c, 6, 42, 127
1, 178247, Note_off_c, 6, 42, 127
1, 178251, Note_on_c, 10, 45, 127
1, 178367, Note_on_c, 7, 43, 127
1, 178374, Note_off_c, 10, 45, 127
1, 178470, Note_off_c, 7, 43, 127
1, 178479, Note_on_c, 6, 42, 127
1, 178582, Note_off_c, 6, 42, 127
1, 178591, Note_on_c, 4, 40, 127
1, 178694, Note_off_c, 4, 40, 127
1, 178696, Note_on_c, 12, 47, 127
1, 178905, Note_on_c, 3, 63, 127
1, 179114, Note_on_c, 6, 66, 127
1, 179114, Note_on_c, 10, 69, 127
1, 179321, Note_off_c, 12, 47, 127
1, 179323, Note_on_c, 12, 47, 127
1, 179515, Note_off_c, 3, 63, 127
1, 179530, Note_off_c, 12, 47, 127
1, 179532, Note_on_c, 4, 52, 127
1, 179739, Note_off_c, 10, 69, 127
1, 179739, Note_off_c, 6, 66, 127
1, 179741, Note_on_c, 12, 59, 127
1, 179950, Note_on_c, 8, 68, 127
1, 179950, Note_on_c, 4, 64, 127
1, 180157, Note_off_c, 4, 52, 127
1, 180159, Note_on_c, 4, 40, 127
1, 180351, Note_off_c, 12, 59, 127
1, 180366, Note_off_c, 4, 40, 127
1, 180368, Note_on_c, 4, 52, 127
1, 180575, Note_off_c, 4, 64, 127
1, 180575, Note_off_c, 8, 68, 127
1, 180577, Note_on_c, 0, 60, 127
1, 180786, Note_on_c, 4, 64, 127
1, 180786, Note_on_c, 10, 69, 127
1, 180993, Note_off_c, 4, 52, 127
1, 180995, Note_on_c, 4, 40, 127
1, 181187, Note_off_c, 0, 60, 127
1, 181202, Note_off_c, 4, 40, 127
1, 181204, Note_on_c, 4, 52, 127
1, 181411, Note_off_c, 10, 69, 127
1, 181411, Note_off_c, 4, 64, 127
1, 181413, Note_on_c, 8, 68, 127
1, 181622, Note_on_c, 12, 71, 127
1, 181622, Note_on_c, 2, 74, 127
1, 181829, Note_off_c, 4, 52, 127
1, 181831, Note_on_c, 4, 40, 127
1, 182023, Note_off_c, 8, 68, 127
1, 182038, Note_off_c, 4, 40, 127
1, 182040, Note_on_c, 4, 52, 127
1, 182247, Note_off_c, 2, 74, 127
1, 182247, Note_off_c, 12, 71, 127
1, 182249, Note_on_c, 8, 68, 127
1, 182458, Note_on_c, 1, 73, 127
1, 182458, Note_on_c, 12, 71, 127
1, 182665, Note_off_c, 4, 52, 127
1, 182667, Note_on_c, 4, 40, 127
1, 182859, Note_off_c, 8, 68, 127
1, 182874, Note_off_c, 4, 40, 127
1, 182876, Note_on_c, 4, 52, 127
1, 183083, Note_off_c, 12, 71, 127
1, 183083, Note_off_c, 1, 73, 127
1, 183085, Note_on_c, 0, 72, 127
1, 183294, Note_on_c, 4, 76, 127
1, 183294, Note_on_c, 10, 81, 127
1, 183527, Note_on_c, 4, 40, 127
1, 183617, Note_off_c, 4, 52, 127
1, 183696, Note_off_c, 0, 72, 127
1, 183766, Note_on_c, 4, 52, 127
1, 183789, Note_off_c, 4, 40, 127
1, 183921, Note_off_c, 10, 81, 127
1, 183921, Note_off_c, 4, 76, 127
1, 183961, Note_on_c, 6, 66, 127
1, 184185, Note_on_c, 10, 69, 127
1, 184185, Note_on_c, 3, 75, 127
1, 184375, Note_off_c, 6, 66, 127
1, 184434, Note_on_c, 6, 66, 127
1, 184595, Note_off_c, 4, 52, 127
1, 184599, Note_off_c, 3, 75, 127
1, 184599, Note_off_c, 10, 69, 127
1, 184640, Note_off_c, 6, 66, 127
1, 184655, Note_on_c, 8, 68, 127
1, 184862, Note_off_c, 8, 68, 127
1, 184864, Note_on_c, 10, 69, 127
1, 185071, Note_off_c, 10, 69, 127
1, 185073, Note_on_c, 12, 71, 127
1, 185280, Note_off_c, 12, 71, 127
1, 185282, Note_on_c, 6, 66, 127
1, 185489, Note_off_c, 6, 66, 127
1, 185491, Note_on_c, 8, 68, 127
1, 185698, Note_off_c, 8, 68, 127
1, 185700, Note_on_c, 4, 64, 127
1, 185909, Note_on_c, 8, 68, 127
1, 186118, Note_on_c, 12, 71, 127
1, 186327, Note_on_c, 4, 76, 127
1, 186536, Note_on_c, 4, 40, 127
1, 186745, Note_on_c, 8, 44, 127
1, 186954, Note_on_c, 12, 47, 127
1, 187153, Note_off_c, 12, 71, 127
1, 187155, Note_off_c, 4, 76, 127
1, 187162, Note_off_c, 8, 68, 127
1, 187164, Note_on_c, 4, 52, 127
1, 187171, Note_off_c, 4, 64, 127
1, 187452, Note_on_c, 4, 64, 127
1, 187705, Note_on_c, 6, 54, 127
1, 187705, Note_on_c, 10, 57, 127
1, 187954, Note_on_c, 3, 63, 127
1, 187963, Note_off_c, 4, 64, 127
1, 188186, Note_off_c, 10, 57, 127
1, 188186, Note_off_c, 6, 54, 127
1, 188208, Note_off_c, 8, 44, 127
1, 188225, Note_off_c, 3, 63, 127
1, 188247, Note_on_c, 4, 64, 127
1, 188247, Note_on_c, 12, 59, 127
1, 188247, Note_on_c, 8, 56, 127
1, 189847, Note_off_c, 8, 56, 127
1, 189847, Note_off_c, 12, 59, 127
1, 189854, Note_off_c, 12, 47, 127
1, 189936, Note_off_c, 4, 40, 127
1, 189964, Note_off_c, 4, 52, 127
1, 189969, Note_off_c, 4, 64, 127
1, 190620, Note_on_c, 12, 71, 127
1, 190747, Note_off_c, 12, 71, 127
1, 190754, Note_on_c, 10, 69, 127
1, 190881, Note_off_c, 10, 69, 127
1, 190882, Note_on_c, 12, 71, 127
1, 191009, Note_off_c, 12, 71, 127
1, 191010, Note_on_c, 7, 67, 127
1, 191137, Note_off_c, 7, 67, 127
1, 191138, Note_on_c, 10, 69, 127
1, 191265, Note_off_c, 10, 69, 127
1, 191266, Note_on_c, 6, 66, 127
1, 191393, Note_off_c, 6, 66, 127
1, 191394, Note_on_c, 7, 67, 127
1, 191521, Note_off_c, 7, 67, 127
1, 191522, Note_on_c, 4, 64, 127
1, 191650, Note_on_c, 4, 76, 127
1, 191709, Note_off_c, 4, 64, 127
1, 191777, Note_off_c, 4, 76, 127
1, 191778, Note_on_c, 12, 71, 127
1, 191905, Note_off_c, 12, 71, 127
1, 191906, Note_on_c, 4, 76, 127
1, 192033, Note_off_c, 4, 76, 127
1, 192034, Note_on_c, 7, 67, 127
1, 192161, Note_off_c, 7, 67, 127
1, 192162, Note_on_c, 12, 71, 127
1, 192289, Note_off_c, 12, 71, 127
1, 192290, Note_on_c, 4, 64, 127
1, 192418, Note_on_c, 0, 72, 127
1, 192437, Note_off_c, 4, 64, 127
1, 192545, Note_off_c, 0, 72, 127
1, 192546, Note_on_c, 3, 63, 127
1, 192673, Note_off_c, 3, 63, 127
1, 192674, Note_on_c, 0, 72, 127
1, 192801, Note_off_c, 0, 72, 127
1, 192802, Note_on_c, 3, 63, 127
1, 192929, Note_off_c, 3, 63, 127
1, 192930, Note_on_c, 0, 72, 127
1, 193057, Note_off_c, 0, 72, 127
1, 193058, Note_on_c, 3, 63, 127
1, 193185, Note_off_c, 3, 63, 127
1, 193186, Note_on_c, 0, 72, 127
1, 193313, Note_off_c, 0, 72, 127
1, 193314, Note_on_c, 3, 63, 127
1, 193441, Note_off_c, 3, 63, 127
1, 193442, Note_on_c, 0, 72, 127
1, 193569, Note_off_c, 0, 72, 127
1, 193570, Note_on_c, 2, 62, 127
1, 193697, Note_off_c, 2, 62, 127
1, 193698, Note_on_c, 6, 66, 127
1, 193825, Note_off_c, 6, 66, 127
1, 193826, Note_on_c, 12, 71, 127
1, 193953, Note_off_c, 12, 71, 127
1, 193954, Note_on_c, 6, 66, 127
1, 194081, Note_off_c, 6, 66, 127
1, 194082, Note_on_c, 2, 62, 127
1, 194209, Note_off_c, 2, 62, 127
1, 194210, Note_on_c, 6, 66, 127
1, 194337, Note_off_c, 6, 66, 127
1, 194338, Note_on_c, 12, 71, 127
1, 194465, Note_off_c, 12, 71, 127
1, 194466, Note_on_c, 6, 66, 127
1, 194593, Note_off_c, 6, 66, 127
1, 194594, Note_on_c, 1, 61, 127
1, 194721, Note_off_c, 1, 61, 127
1, 194722, Note_on_c, 12, 71, 127
1, 194849, Note_off_c, 12, 71, 127
1, 194850, Note_on_c, 1, 61, 127
1, 194977, Note_off_c, 1, 61, 127
1, 194978, Note_on_c, 12, 71, 127
1, 195105, Note_off_c, 12, 71, 127
1, 195106, Note_on_c, 1, 61, 127
1, 195233, Note_off_c, 1, 61, 127
1, 195234, Note_on_c, 12, 71, 127
1, 195361, Note_off_c, 12, 71, 127
1, 195362, Note_on_c, 1, 61, 127
1, 195489, Note_off_c, 1, 61, 127
1, 195490, Note_on_c, 12, 71, 127
1, 195617, Note_off_c, 12, 71, 127
1, 195618, Note_on_c, 0, 60, 127
1, 195745, Note_off_c, 0, 60, 127
1, 195746, Note_on_c, 4, 64, 127
1, 195873, Note_off_c, 4, 64, 127
1, 195874, Note_on_c, 10, 69, 127
1, 196001, Note_off_c, 10, 69, 127
1, 196002, Note_on_c, 4, 64, 127
1, 196129, Note_off_c, 4, 64, 127
1, 196130, Note_on_c, 0, 60, 127
1, 196257, Note_off_c, 0, 60, 127
1, 196258, Note_on_c, 4, 64, 127
1, 196385, Note_off_c, 4, 64, 127
1, 196386, Note_on_c, 10, 69, 127
1, 196513, Note_off_c, 10, 69, 127
1, 196514, Note_on_c, 4, 64, 127
1, 196641, Note_off_c, 4, 64, 127
1, 196642, Note_on_c, 12, 59, 127
1, 196769, Note_off_c, 12, 59, 127
1, 196770, Note_on_c, 10, 69, 127
1, 196897, Note_off_c, 10, 69, 127
1, 196898, Note_on_c, 7, 67, 127
1, 197025, Note_off_c, 7, 67, 127
1, 197026, Note_on_c, 10, 69, 127
1, 197153, Note_off_c, 10, 69, 127
1, 197154, Note_on_c, 6, 66, 127
1, 197281, Note_off_c, 6, 66, 127
1, 197282, Note_on_c, 12, 71, 127
1, 197409, Note_off_c, 12, 71, 127
1, 197410, Note_on_c, 10, 69, 127
1, 197537, Note_off_c, 10, 69, 127
1, 197538, Note_on_c, 12, 71, 127
1, 197665, Note_off_c, 12, 71, 127
1, 197666, Note_on_c, 7, 67, 127
1, 197793, Note_off_c, 7, 67, 127
1, 197794, Note_on_c, 10, 69, 127
1, 197921, Note_off_c, 10, 69, 127
1, 197922, Note_on_c, 6, 66, 127
1, 198049, Note_off_c, 6, 66, 127
1, 198050, Note_on_c, 7, 67, 127
1, 198177, Note_off_c, 7, 67, 127
1, 198178, Note_on_c, 4, 64, 127
1, 198305, Note_off_c, 4, 64, 127
1, 198306, Note_on_c, 7, 67, 127
1, 198433, Note_off_c, 7, 67, 127
1, 198434, Note_on_c, 6, 66, 127
1, 198561, Note_off_c, 6, 66, 127
1, 198562, Note_on_c, 4, 64, 127
1, 198689, Note_off_c, 4, 64, 127
1, 198690, Note_on_c, 2, 62, 127
1, 198818, Note_on_c, 6, 78, 127
1, 198943, Note_off_c, 2, 62, 127
1, 198944, Note_off_c, 6, 78, 127
1, 198945, Note_on_c, 11, 58, 127
1, 198945, Note_on_c, 4, 76, 127
1, 199072, Note_off_c, 4, 76, 127
1, 199073, Note_on_c, 6, 78, 127
1, 199198, Note_off_c, 11, 58, 127
1, 199199, Note_off_c, 6, 78, 127
1, 199200, Note_on_c, 2, 74, 127
1, 199200, Note_on_c, 12, 59, 127
1, 199327, Note_off_c, 2, 74, 127
1, 199328, Note_on_c, 4, 76, 127
1, 199453, Note_off_c, 12, 59, 127
1, 199454, Note_off_c, 4, 76, 127
1, 199455, Note_on_c, 1, 61, 127
1, 199455, Note_on_c, 1, 73, 127
1, 199582, Note_off_c, 1, 73, 127
1, 199583, Note_on_c, 2, 74, 127
1, 199708, Note_off_c, 1, 61, 127
1, 199709, Note_off_c, 2, 74, 127
1, 199710, Note_on_c, 12, 71, 127
1, 199710, Note_on_c, 2, 62, 127
1, 199838, Note_on_c, 12, 83, 127
1, 199897, Note_off_c, 12, 71, 127
1, 199965, Note_off_c, 12, 83, 127
1, 199966, Note_on_c, 6, 78, 127
1, 200093, Note_off_c, 6, 78, 127
1, 200094, Note_on_c, 12, 83, 127
1, 200217, Note_off_c, 2, 62, 127
1, 200221, Note_off_c, 12, 83, 127
1, 200222, Note_on_c, 2, 74, 127
1, 200349, Note_off_c, 2, 74, 127
1, 200350, Note_on_c, 6, 78, 127
1, 200477, Note_off_c, 6, 78, 127
1, 200478, Note_on_c, 12, 71, 127
1, 200478, Note_on_c, 2, 62, 127
1, 200606, Note_on_c, 7, 79, 127
1, 200625, Note_off_c, 12, 71, 127
1, 200732, Note_off_c, 2, 62, 127
1, 200733, Note_off_c, 7, 79, 127
1, 200734, Note_on_c, 1, 61, 127
1, 200734, Note_on_c, 11, 70, 127
1, 200861, Note_off_c, 11, 70, 127
1, 200862, Note_on_c, 7, 79, 127
1, 200989, Note_off_c, 7, 79, 127
1, 200990, Note_on_c, 11, 70, 127
1, 201117, Note_off_c, 11, 70, 127
1, 201118, Note_on_c, 7, 79, 127
1, 201241, Note_off_c, 1, 61, 127
1, 201245, Note_off_c, 7, 79, 127
1, 201246, Note_on_c, 11, 70, 127
1, 201373, Note_off_c, 11, 70, 127
1, 201374, Note_on_c, 7, 79, 127
1, 201501, Note_off_c, 7, 79, 127
1, 201502, Note_on_c, 11, 70, 127
1, 201629, Note_off_c, 11, 70, 127
1, 201630, Note_on_c, 7, 79, 127
1, 201757, Note_off_c, 7, 79, 127
1, 201758, Note_on_c, 10, 69, 127
1, 201885, Note_off_c, 10, 69, 127
1, 201886, Note_on_c, 1, 73, 127
1, 202013, Note_off_c, 1, 73, 127
1, 202014, Note_on_c, 6, 78, 127
1, 202014, Note_on_c, 6, 66, 127
1, 202141, Note_off_c, 6, 78, 127
1, 202142, Note_on_c, 1, 73, 127
1, 202267, Note_off_c, 6, 66, 127
1, 202268, Note_off_c, 1, 73, 127
1, 202269, Note_on_c, 5, 65, 127
1, 202269, Note_on_c, 10, 69, 127
1, 202396, Note_off_c, 10, 69, 127
1, 202397, Note_on_c, 1, 73, 127
1, 202522, Note_off_c, 5, 65, 127
1, 202523, Note_off_c, 1, 73, 127
1, 202524, Note_on_c, 6, 78, 127
1, 202524, Note_on_c, 6, 66, 127
1, 202651, Note_off_c, 6, 78, 127
1, 202652, Note_on_c, 1, 73, 127
1, 202777, Note_off_c, 6, 66, 127
1, 202778, Note_off_c, 1, 73, 127
1, 202779, Note_on_c, 12, 59, 127
1, 202779, Note_on_c, 8, 68, 127
1, 202906, Note_off_c, 8, 68, 127
1, 202907, Note_on_c, 6, 78, 127
1, 203034, Note_off_c, 6, 78, 127
1, 203035, Note_on_c, 8, 68, 127
1, 203162, Note_off_c, 8, 68, 127
1, 203163, Note_on_c, 6, 78, 127
1, 203286, Note_off_c, 12, 59, 127
1, 203290, Note_off_c, 6, 78, 127
1, 203291, Note_on_c, 8, 68, 127
1, 203418, Note_off_c, 8, 68, 127
1, 203419, Note_on_c, 6, 78, 127
1, 203546, Note_off_c, 6, 78, 127
1, 203547, Note_on_c, 8, 68, 127
1, 203674, Note_off_c, 8, 68, 127
1, 203675, Note_on_c, 6, 78, 127
1, 203802, Note_off_c, 6, 78, 127
1, 203803, Note_on_c, 7, 67, 127
1, 203930, Note_off_c, 7, 67, 127
1, 203931, Note_on_c, 12, 71, 127
1, 204058, Note_off_c, 12, 71, 127
1, 204059, Note_on_c, 4, 64, 127
1, 204059, Note_on_c, 4, 76, 127
1, 204186, Note_off_c, 4, 76, 127
1, 204187, Note_on_c, 12, 71, 127
1, 204312, Note_off_c, 4, 64, 127
1, 204313, Note_off_c, 12, 71, 127
1, 204314, Note_on_c, 7, 67, 127
1, 204314, Note_on_c, 3, 63, 127
1, 204441, Note_off_c, 7, 67, 127
1, 204442, Note_on_c, 12, 71, 127
1, 204567, Note_off_c, 3, 63, 127
1, 204568, Note_off_c, 12, 71, 127
1, 204569, Note_on_c, 4, 64, 127
1, 204569, Note_on_c, 4, 76, 127
1, 204696, Note_off_c, 4, 76, 127
1, 204697, Note_on_c, 12, 71, 127
1, 204822, Note_off_c, 4, 64, 127
1, 204823, Note_off_c, 12, 71, 127
1, 204824, Note_on_c, 6, 66, 127
1, 204824, Note_on_c, 11, 58, 127
1, 204951, Note_off_c, 6, 66, 127
1, 204952, Note_on_c, 4, 76, 127
1, 205077, Note_off_c, 11, 58, 127
1, 205078, Note_off_c, 4, 76, 127
1, 205079, Note_on_c, 12, 59, 127
1, 205079, Note_on_c, 2, 74, 127
1, 205206, Note_off_c, 2, 74, 127
1, 205207, Note_on_c, 4, 76, 127
1, 205334, Note_off_c, 4, 76, 127
1, 205335, Note_on_c, 1, 73, 127
1, 205462, Note_off_c, 1, 73, 127
1, 205463, Note_on_c, 6, 78, 127
1, 205532, Note_off_c, 12, 59, 127
1, 205589, Note_off_c, 6, 78, 127
1, 205590, Note_on_c, 11, 58, 127
1, 205590, Note_on_c, 4, 76, 127
1, 205717, Note_off_c, 4, 76, 127
1, 205718, Note_on_c, 6, 78, 127
1, 205843, Note_off_c, 11, 58, 127
1, 205844, Note_off_c, 6, 78, 127
1, 205845, Note_on_c, 12, 59, 127
1, 205845, Note_on_c, 2, 74, 127
1, 205972, Note_off_c, 2, 74, 127
1, 205973, Note_on_c, 4, 76, 127
1, 206100, Note_off_c, 4, 76, 127
1, 206101, Note_on_c, 1, 73, 127
1, 206228, Note_off_c, 1, 73, 127
1, 206229, Note_on_c, 2, 74, 127
1, 206352, Note_off_c, 12, 59, 127
1, 206356, Note_off_c, 2, 74, 127
1, 206357, Note_on_c, 12, 71, 127
1, 206477, Note_off_c, 12, 71, 127
1, 206485, Note_on_c, 12, 71, 127
1, 206612, Note_off_c, 12, 71, 127
1, 206613, Note_on_c, 10, 69, 127
1, 206613, Note_on_c, 3, 75, 127
1, 206740, Note_off_c, 10, 69, 127
1, 206741, Note_on_c, 12, 71, 127
1, 206866, Note_off_c, 3, 75, 127
1, 206867, Note_off_c, 12, 71, 127
1, 206868, Note_on_c, 4, 76, 127
1, 206868, Note_on_c, 7, 67, 127
1, 206995, Note_off_c, 7, 67, 127
1, 206996, Note_on_c, 10, 69, 127
1, 207123, Note_off_c, 10, 69, 127
1, 207124, Note_on_c, 6, 66, 127
1, 207251, Note_off_c, 6, 66, 127
1, 207252, Note_on_c, 7, 67, 127
1, 207375, Note_off_c, 4, 76, 127
1, 207379, Note_off_c, 7, 67, 127
1, 207380, Note_on_c, 4, 64, 127
1, 207508, Note_on_c, 4, 76, 127
1, 207633, Note_off_c, 4, 64, 127
1, 207634, Note_off_c, 4, 76, 127
1, 207635, Note_on_c, 2, 74, 127
1, 207635, Note_on_c, 6, 66, 127
1, 207762, Note_off_c, 6, 66, 127
1, 207762, Note_off_c, 2, 74, 127
1, 207763, Note_on_c, 4, 76, 127
1, 207763, Note_on_c, 8, 68, 127
1, 207890, Note_off_c, 8, 68, 127
1, 207890, Note_off_c, 4, 76, 127
1, 207891, Note_on_c, 0, 72, 127
1, 207891, Note_on_c, 10, 69, 127
1, 208018, Note_off_c, 0, 72, 127
1, 208019, Note_on_c, 2, 74, 127
1, 208144, Note_off_c, 10, 69, 127
1, 208145, Note_off_c, 2, 74, 127
1, 208146, Note_on_c, 12, 71, 127
1, 208146, Note_on_c, 7, 67, 127
1, 208273, Note_off_c, 12, 71, 127
1, 208274, Note_on_c, 0, 72, 127
1, 208399, Note_off_c, 7, 67, 127
1, 208400, Note_off_c, 0, 72, 127
1, 208401, Note_on_c, 10, 69, 127
1, 208401, Note_on_c, 6, 66, 127
1, 208528, Note_off_c, 10, 69, 127
1, 208529, Note_on_c, 12, 71, 127
1, 208654, Note_off_c, 6, 66, 127
1, 208655, Note_off_c, 12, 71, 127
1, 208656, Note_on_c, 4, 64, 127
1, 208656, Note_on_c, 7, 67, 127
1, 208783, Note_off_c, 7, 67, 127
1, 208784, Note_on_c, 10, 69, 127
1, 208911, Note_off_c, 10, 69, 127
1, 208912, Note_on_c, 6, 66, 127
1, 209040, Note_on_c, 12, 59, 127
1, 209163, Note_off_c, 4, 64, 127
1, 209166, Note_off_c, 6, 66, 127
1, 209167, Note_off_c, 12, 59, 127
1, 209168, Note_on_c, 10, 57, 127
1, 209168, Note_on_c, 12, 71, 127
1, 209168, Note_on_c, 3, 63, 127
1, 209295, Note_off_c, 10, 57, 127
1, 209296, Note_on_c, 12, 59, 127
1, 209421, Note_off_c, 12, 71, 127
1, 209422, Note_off_c, 12, 59, 127
1, 209422, Note_off_c, 3, 63, 127
1, 209423, Note_on_c, 1, 73, 127
1, 209423, Note_on_c, 7, 55, 127
1, 209423, Note_on_c, 4, 64, 127
1, 209550, Note_off_c, 7, 55, 127
1, 209551, Note_on_c, 10, 57, 127
1, 209676, Note_off_c, 1, 73, 127
1, 209677, Note_off_c, 10, 57, 127
1, 209677, Note_off_c, 4, 64, 127
1, 209678, Note_on_c, 3, 75, 127
1, 209678, Note_on_c, 6, 54, 127
1, 209678, Note_on_c, 6, 66, 127
1, 209805, Note_off_c, 6, 54, 127
1, 209806, Note_on_c, 7, 55, 127
1, 209931, Note_off_c, 3, 75, 127
1, 209932, Note_off_c, 7, 55, 127
1, 209932, Note_off_c, 6, 66, 127
1, 209933, Note_on_c, 4, 76, 127
1, 209933, Note_on_c, 4, 52, 127
1, 209933, Note_on_c, 7, 67, 127
1, 210060, Note_off_c, 4, 52, 127
1, 210061, Note_on_c, 4, 64, 127
1, 210188, Note_off_c, 4, 64, 127
1, 210189, Note_on_c, 12, 59, 127
1, 210316, Note_off_c, 12, 59, 127
1, 210317, Note_on_c, 4, 64, 127
1, 210440, Note_off_c, 7, 67, 127
1, 210440, Note_off_c, 4, 76, 127
1, 210444, Note_off_c, 4, 64, 127
1, 210445, Note_on_c, 7, 55, 127
1, 210572, Note_off_c, 7, 55, 127
1, 210573, Note_on_c, 12, 59, 127
1, 210700, Note_off_c, 12, 59, 127
1, 210701, Note_on_c, 4, 76, 127
1, 210701, Note_on_c, 4, 52, 127
1, 210701, Note_on_c, 7, 67, 127
1, 210828, Note_off_c, 4, 52, 127
1, 210829, Note_on_c, 0, 60, 127
1, 210954, Note_off_c, 4, 76, 127
1, 210955, Note_off_c, 0, 60, 127
1, 210955, Note_off_c, 7, 67, 127
1, 210956, Note_on_c, 3, 51, 127
1, 210956, Note_on_c, 6, 78, 127
1, 210956, Note_on_c, 6, 66, 127
1, 211083, Note_off_c, 3, 51, 127
1, 211084, Note_on_c, 0, 60, 127
1, 211211, Note_off_c, 0, 60, 127
1, 211212, Note_on_c, 3, 51, 127
1, 211339, Note_off_c, 3, 51, 127
1, 211340, Note_on_c, 0, 60, 127
1, 211463, Note_off_c, 6, 66, 127
1, 211463, Note_off_c, 6, 78, 127
1, 211467, Note_off_c, 0, 60, 127
1, 211468, Note_on_c, 3, 51, 127
1, 211595, Note_off_c, 3, 51, 127
1, 211596, Note_on_c, 0, 60, 127
1, 211723, Note_off_c, 0, 60, 127
1, 211724, Note_on_c, 3, 51, 127
1, 211851, Note_off_c, 3, 51, 127
1, 211852, Note_on_c, 0, 60, 127
1, 211979, Note_off_c, 0, 60, 127
1, 211980, Note_on_c, 2, 50, 127
1, 212107, Note_off_c, 2, 50, 127
1, 212108, Note_on_c, 6, 54, 127
1, 212235, Note_off_c, 6, 54, 127
1, 212236, Note_on_c, 2, 74, 127
1, 212236, Note_on_c, 12, 59, 127
1, 212236, Note_on_c, 12, 71, 127
1, 212363, Note_off_c, 12, 59, 127
1, 212364, Note_on_c, 6, 54, 127
1, 212489, Note_off_c, 2, 74, 127
1, 212490, Note_off_c, 6, 54, 127
1, 212490, Note_off_c, 12, 71, 127
1, 212491, Note_on_c, 1, 73, 127
1, 212491, Note_on_c, 2, 50, 127
1, 212491, Note_on_c, 11, 70, 127
1, 212618, Note_off_c, 2, 50, 127
1, 212619, Note_on_c, 6, 54, 127
1, 212744, Note_off_c, 1, 73, 127
1, 212745, Note_off_c, 6, 54, 127
1, 212745, Note_off_c, 11, 70, 127
1, 212746, Note_on_c, 2, 74, 127
1, 212746, Note_on_c, 12, 59, 127
1, 212746, Note_on_c, 12, 71, 127
1, 212873, Note_off_c, 12, 59, 127
1, 212874, Note_on_c, 6, 54, 127
1, 212999, Note_off_c, 2, 74, 127
1, 213000, Note_off_c, 6, 54, 127
1, 213000, Note_off_c, 12, 71, 127
1, 213001, Note_on_c, 4, 76, 127
1, 213001, Note_on_c, 1, 49, 127
1, 213001, Note_on_c, 4, 64, 127
1, 213128, Note_off_c, 1, 49, 127
1, 213129, Note_on_c, 12, 59, 127
1, 213256, Note_off_c, 12, 59, 127
1, 213257, Note_on_c, 1, 49, 127
1, 213384, Note_off_c, 1, 49, 127
1, 213385, Note_on_c, 12, 59, 127
1, 213508, Note_off_c, 4, 64, 127
1, 213512, Note_off_c, 12, 59, 127
1, 213513, Note_on_c, 1, 49, 127
1, 213640, Note_off_c, 1, 49, 127
1, 213641, Note_off_c, 4, 76, 127
1, 213641, Note_on_c, 12, 59, 127
1, 213768, Note_off_c, 12, 59, 127
1, 213769, Note_on_c, 1, 49, 127
1, 213896, Note_off_c, 1, 49, 127
1, 213897, Note_on_c, 12, 59, 127
1, 214024, Note_off_c, 12, 59, 127
1, 214025, Note_on_c, 0, 48, 127
1, 214152, Note_off_c, 0, 48, 127
1, 214153, Note_on_c, 4, 52, 127
1, 214280, Note_off_c, 4, 52, 127
1, 214281, Note_on_c, 10, 57, 127
1, 214281, Note_on_c, 10, 69, 127
1, 214408, Note_off_c, 10, 57, 127
1, 214409, Note_on_c, 4, 52, 127
1, 214534, Note_off_c, 10, 69, 127
1, 214535, Note_off_c, 4, 52, 127
1, 214536, Note_on_c, 8, 68, 127
1, 214536, Note_on_c, 0, 48, 127
1, 214663, Note_off_c, 0, 48, 127
1, 214664, Note_on_c, 4, 52, 127
1, 214789, Note_off_c, 8, 68, 127
1, 214790, Note_off_c, 4, 52, 127
1, 214791, Note_on_c, 10, 69, 127
1, 214791, Note_on_c, 10, 57, 127
1, 214918, Note_off_c, 10, 57, 127
1, 214919, Note_on_c, 4, 52, 127
1, 215044, Note_off_c, 10, 69, 127
1, 215045, Note_off_c, 4, 52, 127
1, 215046, Note_on_c, 12, 71, 127
1, 215046, Note_on_c, 12, 47, 127
1, 215046, Note_on_c, 3, 63, 127
1, 215173, Note_off_c, 12, 47, 127
1, 215174, Note_on_c, 10, 57, 127
1, 215301, Note_off_c, 10, 57, 127
1, 215301, Note_off_c, 3, 63, 127
1, 215302, Note_on_c, 7, 55, 127
1, 215302, Note_on_c, 4, 64, 127
1, 215429, Note_off_c, 7, 55, 127
1, 215430, Note_on_c, 10, 57, 127
1, 215553, Note_off_c, 12, 71, 127
1, 215557, Note_off_c, 10, 57, 127
1, 215558, Note_on_c, 10, 69, 127
1, 215558, Note_on_c, 6, 54, 127
1, 215685, Note_off_c, 6, 54, 127
1, 215686, Note_on_c, 12, 59, 127
1, 215811, Note_off_c, 10, 69, 127
1, 215812, Note_off_c, 12, 59, 127
1, 215812, Note_off_c, 4, 64, 127
1, 215813, Note_on_c, 10, 57, 127
1, 215813, Note_on_c, 6, 66, 127
1, 215813, Note_on_c, 3, 63, 127
1, 215940, Note_off_c, 10, 57, 127
1, 215941, Note_on_c, 12, 59, 127
1, 216066, Note_off_c, 6, 66, 127
1, 216067, Note_off_c, 12, 59, 127
1, 216067, Note_off_c, 3, 63, 127
1, 216068, Note_on_c, 7, 55, 127
1, 216068, Note_on_c, 7, 67, 127
1, 216068, Note_on_c, 4, 64, 127
1, 216195, Note_off_c, 7, 55, 127
1, 216196, Note_on_c, 10, 57, 127
1, 216321, Note_off_c, 7, 67, 127
1, 216322, Note_off_c, 10, 57, 127
1, 216322, Note_off_c, 4, 64, 127
1, 216323, Note_on_c, 10, 69, 127
1, 216323, Note_on_c, 6, 54, 127
1, 216323, Note_on_c, 6, 66, 127
1, 216450, Note_off_c, 6, 54, 127
1, 216451, Note_on_c, 7, 55, 127
1, 216576, Note_off_c, 10, 69, 127
1, 216577, Note_off_c, 7, 55, 127
1, 216577, Note_off_c, 6, 66, 127
1, 216578, Note_on_c, 12, 71, 127
1, 216578, Note_on_c, 4, 52, 127
1, 216578, Note_on_c, 7, 67, 127
1, 216705, Note_off_c, 4, 52, 127
1, 216706, Note_on_c, 6, 54, 127
1, 216833, Note_off_c, 6, 54, 127
1, 216833, Note_off_c, 7, 67, 127
1, 216834, Note_on_c, 2, 50, 127
1, 216834, Note_on_c, 6, 66, 127
1, 216961, Note_off_c, 2, 50, 127
1, 216962, Note_on_c, 4, 52, 127
1, 217085, Note_off_c, 12, 71, 127
1, 217089, Note_off_c, 4, 52, 127
1, 217089, Note_off_c, 6, 66, 127
1, 217090, Note_on_c, 4, 76, 127
1, 217090, Note_on_c, 0, 48, 127
1, 217090, Note_on_c, 4, 64, 127
1, 217217, Note_off_c, 0, 48, 127
1, 217218, Note_on_c, 2, 50, 127
1, 217343, Note_off_c, 4, 76, 127
1, 217344, Note_off_c, 2, 50, 127
1, 217345, Note_on_c, 2, 74, 127
1, 217345, Note_on_c, 12, 47, 127
1, 217472, Note_off_c, 12, 47, 127
1, 217473, Note_on_c, 0, 48, 127
1, 217598, Note_off_c, 2, 74, 127
1, 217599, Note_off_c, 0, 48, 127
1, 217600, Note_on_c, 0, 72, 127
1, 217600, Note_on_c, 10, 45, 127
1, 217727, Note_off_c, 10, 45, 127
1, 217728, Note_on_c, 12, 47, 127
1, 217853, Note_off_c, 0, 72, 127
1, 217854, Note_off_c, 12, 47, 127
1, 217854, Note_off_c, 4, 64, 127
1, 217855, Note_on_c, 12, 71, 127
1, 217855, Note_on_c, 7, 43, 127
1, 217855, Note_on_c, 4, 64, 127
1, 217982, Note_off_c, 7, 43, 127
1, 217983, Note_on_c, 10, 45, 127
1, 218108, Note_off_c, 12, 71, 127
1, 218109, Note_off_c, 10, 45, 127
1, 218109, Note_off_c, 4, 64, 127
1, 218110, Note_on_c, 10, 69, 127
1, 218110, Note_on_c, 6, 42, 127
1, 218110, Note_on_c, 3, 63, 127
1, 218237, Note_off_c, 10, 69, 127
1, 218238, Note_on_c, 12, 71, 127
1, 218363, Note_off_c, 6, 42, 127
1, 218364, Note_off_c, 12, 71, 127
1, 218364, Note_off_c, 3, 63, 127
1, 218365, Note_on_c, 4, 40, 127
1, 218365, Note_on_c, 7, 67, 127
1, 218365, Note_on_c, 4, 64, 127
1, 218492, Note_off_c, 7, 67, 127
1, 218493, Note_on_c, 10, 69, 127
1, 218618, Note_off_c, 4, 40, 127
1, 218619, Note_off_c, 10, 69, 127
1, 218620, Note_on_c, 7, 67, 127
1, 218620, Note_on_c, 12, 47, 127
1, 218675, Note_on_c, 6, 66, 127
1, 218700, Note_off_c, 7, 67, 127
1, 218730, Note_on_c, 7, 67, 127
1, 218746, Note_off_c, 12, 47, 127
1, 218747, Note_on_c, 12, 59, 127
1, 218755, Note_off_c, 6, 66, 127
1, 218785, Note_on_c, 6, 66, 127
1, 218810, Note_off_c, 7, 67, 127
1, 218874, Note_off_c, 12, 59, 127
1, 218874, Note_off_c, 4, 64, 127
1, 218875, Note_on_c, 10, 57, 127
1, 218875, Note_on_c, 3, 63, 127
1, 219002, Note_off_c, 10, 57, 127
1, 219003, Note_on_c, 12, 59, 127
1, 219120, Note_off_c, 6, 66, 127
1, 219129, Note_off_c, 12, 59, 127
1, 219129, Note_off_c, 3, 63, 127
1, 219130, Note_on_c, 7, 67, 127
1, 219130, Note_on_c, 4, 52, 127
1, 219130, Note_on_c, 4, 64, 127
1, 219257, Note_off_c, 7, 67, 127
1, 219258, Note_on_c, 12, 71, 127
1, 219385, Note_off_c, 12, 71, 127
1, 219386, Note_on_c, 10, 69, 127
1, 219513, Note_off_c, 10, 69, 127
1, 219514, Note_on_c, 12, 71, 127
1, 219637, Note_off_c, 4, 64, 127
1, 219637, Note_off_c, 4, 52, 127
1, 219641, Note_off_c, 12, 71, 127
1, 219642, Note_on_c, 7, 67, 127
1, 219769, Note_off_c, 7, 67, 127
1, 219770, Note_on_c, 4, 76, 127
1, 219770, Note_on_c, 7, 67, 127
1, 219897, Note_off_c, 7, 67, 127
1, 219897, Note_off_c, 4, 76, 127
1, 219898, Note_on_c, 2, 74, 127
1, 219898, Note_on_c, 6, 66, 127
1, 220025, Note_off_c, 6, 66, 127
1, 220025, Note_off_c, 2, 74, 127
1, 220026, Note_on_c, 4, 76, 127
1, 220026, Note_on_c, 7, 67, 127
1, 220153, Note_off_c, 7, 67, 127
1, 220153, Note_off_c, 4, 76, 127
1, 220154, Note_on_c, 1, 73, 127
1, 220154, Note_on_c, 4, 64, 127
1, 220281, Note_off_c, 4, 64, 127
1, 220281, Note_off_c, 1, 73, 127
1, 220282, Note_on_c, 2, 74, 127
1, 220282, Note_on_c, 6, 66, 127
1, 220409, Note_off_c, 6, 66, 127
1, 220409, Note_off_c, 2, 74, 127
1, 220410, Note_on_c, 12, 71, 127
1, 220410, Note_on_c, 2, 62, 127
1, 220537, Note_off_c, 2, 62, 127
1, 220537, Note_off_c, 12, 71, 127
1, 220538, Note_on_c, 1, 73, 127
1, 220538, Note_on_c, 4, 64, 127
1, 220665, Note_off_c, 4, 64, 127
1, 220665, Note_off_c, 1, 73, 127
1, 220666, Note_on_c, 12, 71, 127
1, 220666, Note_on_c, 1, 61, 127
1, 220736, Note_on_c, 11, 70, 127
1, 220745, Note_off_c, 12, 71, 127
1, 220793, Note_on_c, 6, 54, 127
1, 220806, Note_on_c, 12, 71, 127
1, 220815, Note_off_c, 11, 70, 127
1, 220874, Note_on_c, 11, 70, 127
1, 220885, Note_off_c, 12, 71, 127
1, 220920, Note_off_c, 6, 54, 127
1, 220921, Note_on_c, 4, 52, 127
1, 221048, Note_off_c, 4, 52, 127
1, 221049, Note_on_c, 6, 54, 127
1, 221158, Note_off_c, 11, 70, 127
1, 221175, Note_off_c, 6, 54, 127
1, 221175, Note_off_c, 1, 61, 127
1, 221176, Note_on_c, 2, 50, 127
1, 221176, Note_on_c, 12, 71, 127
1, 221303, Note_off_c, 2, 50, 127
1, 221304, Note_on_c, 6, 78, 127
1, 221304, Note_on_c, 4, 52, 127
1, 221431, Note_off_c, 4, 52, 127
1, 221431, Note_off_c, 6, 78, 127
1, 221432, Note_on_c, 1, 49, 127
1, 221432, Note_on_c, 4, 76, 127
1, 221559, Note_off_c, 4, 76, 127
1, 221559, Note_off_c, 1, 49, 127
1, 221560, Note_on_c, 6, 78, 127
1, 221560, Note_on_c, 2, 50, 127
1, 221683, Note_off_c, 12, 71, 127
1, 221687, Note_off_c, 2, 50, 127
1, 221687, Note_off_c, 6, 78, 127
1, 221688, Note_on_c, 2, 74, 127
1, 221688, Note_on_c, 12, 47, 127
1, 221815, Note_off_c, 12, 47, 127
1, 221815, Note_off_c, 2, 74, 127
1, 221816, Note_on_c, 6, 54, 127
1, 221816, Note_on_c, 4, 76, 127
1, 221943, Note_off_c, 4, 76, 127
1, 221943, Note_off_c, 6, 54, 127
1, 221944, Note_on_c, 11, 46, 127
1, 221944, Note_on_c, 1, 73, 127
1, 222071, Note_off_c, 1, 73, 127
1, 222071, Note_off_c, 11, 46, 127
1, 222072, Note_on_c, 6, 54, 127
1, 222072, Note_on_c, 4, 76, 127
1, 222199, Note_off_c, 4, 76, 127
1, 222199, Note_off_c, 6, 54, 127
1, 222200, Note_on_c, 12, 47, 127
1, 222200, Note_on_c, 2, 74, 127
1, 222327, Note_off_c, 2, 74, 127
1, 222327, Note_off_c, 12, 47, 127
1, 222328, Note_on_c, 6, 54, 127
1, 222328, Note_on_c, 4, 76, 127
1, 222455, Note_off_c, 4, 76, 127
1, 222455, Note_off_c, 6, 54, 127
1, 222456, Note_on_c, 11, 46, 127
1, 222456, Note_on_c, 1, 73, 127
1, 222583, Note_off_c, 1, 73, 127
1, 222583, Note_off_c, 11, 46, 127
1, 222584, Note_on_c, 6, 54, 127
1, 222584, Note_on_c, 4, 76, 127
1, 222711, Note_off_c, 4, 76, 127
1, 222711, Note_off_c, 6, 54, 127
1, 222712, Note_on_c, 12, 47, 127
1, 222712, Note_on_c, 2, 74, 127
1, 222839, Note_off_c, 2, 74, 127
1, 222839, Note_off_c, 12, 47, 127
1, 222840, Note_on_c, 6, 54, 127
1, 222840, Note_on_c, 4, 76, 127
1, 222967, Note_off_c, 4, 76, 127
1, 222967, Note_off_c, 6, 54, 127
1, 222968, Note_on_c, 11, 46, 127
1, 222968, Note_on_c, 1, 73, 127
1, 223095, Note_off_c, 1, 73, 127
1, 223095, Note_off_c, 11, 46, 127
1, 223096, Note_on_c, 6, 54, 127
1, 223096, Note_on_c, 4, 76, 127
1, 223223, Note_off_c, 4, 76, 127
1, 223223, Note_off_c, 6, 54, 127
1, 223224, Note_on_c, 12, 47, 127
1, 223224, Note_on_c, 2, 74, 127
1, 223352, Note_on_c, 6, 54, 127
1, 223357, Note_off_c, 12, 47, 127
1, 223450, Note_off_c, 2, 74, 127
1, 223478, Note_off_c, 6, 54, 127
1, 223479, Note_on_c, 1, 73, 127
1, 223479, Note_on_c, 4, 52, 127
1, 223479, Note_on_c, 11, 70, 127
1, 223606, Note_off_c, 4, 52, 127
1, 223607, Note_on_c, 6, 54, 127
1, 223732, Note_off_c, 1, 73, 127
1, 223733, Note_off_c, 6, 54, 127
1, 223733, Note_off_c, 11, 70, 127
1, 223734, Note_on_c, 2, 74, 127
1, 223734, Note_on_c, 2, 50, 127
1, 223734, Note_on_c, 12, 71, 127
1, 223861, Note_off_c, 2, 50, 127
1, 223862, Note_on_c, 4, 52, 127
1, 223987, Note_off_c, 2, 74, 127
1, 223988, Note_off_c, 4, 52, 127
1, 223988, Note_off_c, 12, 71, 127
1, 223989, Note_on_c, 4, 76, 127
1, 223989, Note_on_c, 1, 49, 127
1, 223989, Note_on_c, 1, 73, 127
1, 224116, Note_off_c, 1, 49, 127
1, 224117, Note_on_c, 2, 50, 127
1, 224242, Note_off_c, 4, 76, 127
1, 224243, Note_off_c, 2, 50, 127
1, 224243, Note_off_c, 1, 73, 127
1, 224244, Note_on_c, 12, 47, 127
1, 224244, Note_on_c, 2, 74, 127
1, 224371, Note_off_c, 12, 47, 127
1, 224372, Note_on_c, 12, 59, 127
1, 224499, Note_off_c, 12, 59, 127
1, 224500, Note_on_c, 6, 54, 127
1, 224627, Note_off_c, 6, 54, 127
1, 224628, Note_on_c, 12, 59, 127
1, 224751, Note_off_c, 2, 74, 127
1, 224755, Note_off_c, 12, 59, 127
1, 224756, Note_on_c, 2, 50, 127
1, 224883, Note_off_c, 2, 50, 127
1, 224884, Note_on_c, 6, 54, 127
1, 225011, Note_off_c, 6, 54, 127
1, 225012, Note_on_c, 2, 74, 127
1, 225012, Note_on_c, 12, 47, 127
1, 225012, Note_on_c, 12, 71, 127
1, 225139, Note_off_c, 12, 47, 127
1, 225140, Note_on_c, 7, 55, 127
1, 225265, Note_off_c, 2, 74, 127
1, 225266, Note_off_c, 7, 55, 127
1, 225266, Note_off_c, 12, 71, 127
1, 225267, Note_on_c, 11, 46, 127
1, 225267, Note_on_c, 1, 73, 127
1, 225394, Note_off_c, 11, 46, 127
1, 225395, Note_on_c, 7, 55, 127
1, 225522, Note_off_c, 7, 55, 127
1, 225523, Note_on_c, 11, 46, 127
1, 225650, Note_off_c, 11, 46, 127
1, 225651, Note_on_c, 7, 55, 127
1, 225778, Note_off_c, 7, 55, 127
1, 225779, Note_on_c, 11, 46, 127
1, 225906, Note_off_c, 11, 46, 127
1, 225907, Note_off_c, 1, 73, 127
1, 225907, Note_on_c, 7, 55, 127
1, 226034, Note_off_c, 7, 55, 127
1, 226035, Note_on_c, 11, 46, 127
1, 226162, Note_off_c, 11, 46, 127
1, 226163, Note_on_c, 7, 55, 127
1, 226290, Note_off_c, 7, 55, 127
1, 226291, Note_on_c, 10, 45, 127
1, 226418, Note_off_c, 10, 45, 127
1, 226419, Note_on_c, 1, 49, 127
1, 226546, Note_off_c, 1, 49, 127
1, 226547, Note_on_c, 6, 54, 127
1, 226547, Note_on_c, 6, 78, 127
1, 226547, Note_on_c, 10, 69, 127
1, 226674, Note_off_c, 6, 54, 127
1, 226675, Note_on_c, 1, 49, 127
1, 226800, Note_off_c, 6, 78, 127
1, 226801, Note_off_c, 1, 49, 127
1, 226801, Note_off_c, 10, 69, 127
1, 226802, Note_on_c, 5, 77, 127
1, 226802, Note_on_c, 10, 45, 127
1, 226802, Note_on_c, 8, 68, 127
1, 226929, Note_off_c, 10, 45, 127
1, 226930, Note_on_c, 1, 49, 127
1, 227055, Note_off_c, 5, 77, 127
1, 227056, Note_off_c, 1, 49, 127
1, 227056, Note_off_c, 8, 68, 127
1, 227057, Note_on_c, 6, 54, 127
1, 227057, Note_on_c, 6, 78, 127
1, 227057, Note_on_c, 10, 69, 127
1, 227184, Note_off_c, 6, 54, 127
1, 227185, Note_on_c, 1, 49, 127
1, 227310, Note_off_c, 6, 78, 127
1, 227311, Note_off_c, 1, 49, 127
1, 227311, Note_off_c, 10, 69, 127
1, 227312, Note_on_c, 12, 71, 127
1, 227312, Note_on_c, 8, 44, 127
1, 227439, Note_off_c, 8, 44, 127
1, 227440, Note_on_c, 6, 54, 127
1, 227567, Note_off_c, 6, 54, 127
1, 227568, Note_on_c, 8, 44, 127
1, 227695, Note_off_c, 8, 44, 127
1, 227696, Note_on_c, 6, 54, 127
1, 227823, Note_off_c, 6, 54, 127
1, 227824, Note_on_c, 8, 44, 127
1, 227951, Note_off_c, 8, 44, 127
1, 227952, Note_off_c, 12, 71, 127
1, 227952, Note_on_c, 6, 54, 127
1, 228079, Note_off_c, 6, 54, 127
1, 228080, Note_on_c, 8, 44, 127
1, 228207, Note_off_c, 8, 44, 127
1, 228208, Note_on_c, 6, 54, 127
1, 228335, Note_off_c, 6, 54, 127
1, 228336, Note_on_c, 7, 43, 127
1, 228463, Note_off_c, 7, 43, 127
1, 228464, Note_on_c, 12, 47, 127
1, 228591, Note_off_c, 12, 47, 127
1, 228592, Note_on_c, 4, 76, 127
1, 228592, Note_on_c, 4, 52, 127
1, 228719, Note_off_c, 4, 52, 127
1, 228720, Note_on_c, 12, 47, 127
1, 228845, Note_off_c, 4, 76, 127
1, 228846, Note_off_c, 12, 47, 127
1, 228847, Note_on_c, 3, 75, 127
1, 228847, Note_on_c, 7, 43, 127
1, 228974, Note_off_c, 7, 43, 127
1, 228975, Note_on_c, 12, 47, 127
1, 229100, Note_off_c, 3, 75, 127
1, 229101, Note_off_c, 12, 47, 127
1, 229102, Note_on_c, 4, 76, 127
1, 229102, Note_on_c, 4, 52, 127
1, 229102, Note_on_c, 4, 64, 127
1, 229229, Note_off_c, 4, 52, 127
1, 229230, Note_on_c, 12, 47, 127
1, 229355, Note_off_c, 4, 76, 127
1, 229356, Note_off_c, 12, 47, 127
1, 229356, Note_off_c, 4, 64, 127
1, 229357, Note_on_c, 11, 70, 127
1, 229357, Note_on_c, 6, 42, 127
1, 229357, Note_on_c, 6, 66, 127
1, 229484, Note_off_c, 6, 42, 127
1, 229485, Note_on_c, 4, 52, 127
1, 229610, Note_off_c, 11, 70, 127
1, 229611, Note_off_c, 4, 52, 127
1, 229612, Note_on_c, 12, 71, 127
1, 229612, Note_on_c, 2, 50, 127
1, 229739, Note_off_c, 2, 50, 127
1, 229740, Note_on_c, 4, 52, 127
1, 229867, Note_off_c, 4, 52, 127
1, 229867, Note_off_c, 6, 66, 127
1, 229868, Note_on_c, 1, 49, 127
1, 229868, Note_on_c, 4, 64, 127
1, 229995, Note_off_c, 1, 49, 127
1, 229996, Note_on_c, 6, 54, 127
1, 230119, Note_off_c, 12, 71, 127
1, 230123, Note_off_c, 6, 54, 127
1, 230123, Note_off_c, 4, 64, 127
1, 230124, Note_on_c, 11, 70, 127
1, 230124, Note_on_c, 4, 52, 127
1, 230124, Note_on_c, 1, 61, 127
1, 230251, Note_off_c, 4, 52, 127
1, 230252, Note_on_c, 6, 54, 127
1, 230377, Note_off_c, 11, 70, 127
1, 230378, Note_off_c, 6, 54, 127
1, 230378, Note_off_c, 1, 61, 127
1, 230379, Note_on_c, 2, 50, 127
1, 230379, Note_on_c, 12, 71, 127
1, 230379, Note_on_c, 6, 66, 127
1, 230506, Note_off_c, 12, 71, 127
1, 230507, Note_on_c, 6, 78, 127
1, 230634, Note_off_c, 6, 78, 127
1, 230634, Note_off_c, 6, 66, 127
1, 230635, Note_on_c, 12, 71, 127
1, 230635, Note_on_c, 6, 66, 127
1, 230762, Note_off_c, 12, 71, 127
1, 230763, Note_on_c, 6, 78, 127
1, 230886, Note_off_c, 2, 50, 127
1, 230890, Note_off_c, 6, 78, 127
1, 230890, Note_off_c, 6, 66, 127
1, 230891, Note_on_c, 12, 71, 127
1, 230891, Note_on_c, 6, 66, 127
1, 231018, Note_off_c, 12, 71, 127
1, 231019, Note_on_c, 6, 78, 127
1, 231146, Note_off_c, 6, 78, 127
1, 231146, Note_off_c, 6, 66, 127
1, 231147, Note_on_c, 3, 51, 127
1, 231147, Note_on_c, 10, 69, 127
1, 231147, Note_on_c, 6, 66, 127
1, 231274, Note_off_c, 10, 69, 127
1, 231275, Note_on_c, 6, 78, 127
1, 231400, Note_off_c, 3, 51, 127
1, 231401, Note_off_c, 6, 78, 127
1, 231401, Note_off_c, 6, 66, 127
1, 231402, Note_on_c, 7, 67, 127
1, 231402, Note_on_c, 4, 52, 127
1, 231402, Note_on_c, 12, 59, 127
1, 231529, Note_off_c, 7, 67, 127
1, 231530, Note_on_c, 6, 78, 127
1, 231655, Note_off_c, 4, 52, 127
1, 231656, Note_off_c, 6, 78, 127
1, 231657, Note_on_c, 7, 67, 127
1, 231657, Note_on_c, 6, 54, 127
1, 231784, Note_off_c, 7, 67, 127
1, 231785, Note_on_c, 6, 78, 127
1, 231908, Note_off_c, 12, 59, 127
1, 231911, Note_off_c, 6, 54, 127
1, 231912, Note_off_c, 6, 78, 127
1, 231913, Note_on_c, 7, 55, 127
1, 231913, Note_on_c, 7, 67, 127
1, 232040, Note_off_c, 7, 67, 127
1, 232041, Note_on_c, 4, 76, 127
1, 232166, Note_off_c, 7, 55, 127
1, 232167, Note_off_c, 4, 76, 127
1, 232168, Note_on_c, 7, 67, 127
1, 232168, Note_on_c, 4, 52, 127
1, 232295, Note_off_c, 7, 67, 127
1, 232296, Note_on_c, 4, 76, 127
1, 232421, Note_off_c, 4, 52, 127
1, 232422, Note_off_c, 4, 76, 127
1, 232423, Note_on_c, 10, 57, 127
1, 232423, Note_on_c, 6, 66, 127
1, 232550, Note_off_c, 6, 66, 127
1, 232551, Note_on_c, 4, 76, 127
1, 232676, Note_off_c, 10, 57, 127
1, 232677, Note_off_c, 4, 76, 127
1, 232678, Note_on_c, 6, 54, 127
1, 232678, Note_on_c, 6, 66, 127
1, 232805, Note_off_c, 6, 66, 127
1, 232806, Note_on_c, 4, 76, 127
1, 232931, Note_off_c, 6, 54, 127
1, 232932, Note_off_c, 4, 76, 127
1, 232933, Note_on_c, 12, 59, 127
1, 232933, Note_on_c, 6, 66, 127
1, 233060, Note_off_c, 6, 66, 127
1, 233061, Note_on_c, 3, 75, 127
1, 233186, Note_off_c, 12, 59, 127
1, 233187, Note_off_c, 3, 75, 127
1, 233188, Note_on_c, 6, 66, 127
1, 233188, Note_on_c, 10, 57, 127
1, 233315, Note_off_c, 6, 66, 127
1, 233316, Note_on_c, 3, 75, 127
1, 233441, Note_off_c, 10, 57, 127
1, 233442, Note_off_c, 3, 75, 127
1, 233443, Note_on_c, 8, 56, 127
1, 233443, Note_on_c, 4, 64, 127
1, 233570, Note_off_c, 4, 64, 127
1, 233571, Note_on_c, 2, 74, 127
1, 233696, Note_off_c, 8, 56, 127
1, 233697, Note_off_c, 2, 74, 127
1, 233698, Note_on_c, 4, 64, 127
1, 233698, Note_on_c, 4, 52, 127
1, 233825, Note_off_c, 4, 64, 127
1, 233826, Note_on_c, 2, 74, 127
1, 233951, Note_off_c, 4, 52, 127
1, 233952, Note_off_c, 2, 74, 127
1, 233953, Note_on_c, 4, 64, 127
1, 233953, Note_on_c, 10, 57, 127
1, 234080, Note_off_c, 4, 64, 127
1, 234081, Note_on_c, 0, 72, 127
1, 234208, Note_off_c, 0, 72, 127
1, 234209, Note_on_c, 4, 64, 127
1, 234336, Note_off_c, 4, 64, 127
1, 234337, Note_on_c, 0, 72, 127
1, 234464, Note_off_c, 0, 72, 127
1, 234465, Note_on_c, 3, 63, 127
1, 234592, Note_off_c, 3, 63, 127
1, 234593, Note_on_c, 12, 71, 127
1, 234720, Note_off_c, 12, 71, 127
1, 234720, Note_off_c, 10, 57, 127
1, 234721, Note_on_c, 3, 63, 127
1, 234721, Note_on_c, 10, 57, 127
1, 234848, Note_off_c, 3, 63, 127
1, 234849, Note_on_c, 12, 71, 127
1, 234974, Note_off_c, 10, 57, 127
1, 234975, Note_off_c, 12, 71, 127
1, 234976, Note_on_c, 7, 55, 127
1, 234976, Note_on_c, 4, 64, 127
1, 235103, Note_off_c, 4, 64, 127
1, 235104, Note_on_c, 12, 71, 127
1, 235229, Note_off_c, 7, 55, 127
1, 235230, Note_off_c, 12, 71, 127
1, 235231, Note_on_c, 6, 54, 127
1, 235231, Note_on_c, 10, 69, 127
1, 235358, Note_off_c, 10, 69, 127
1, 235358, Note_off_c, 6, 54, 127
1, 235359, Note_on_c, 4, 52, 127
1, 235359, Note_on_c, 7, 67, 127
1, 235486, Note_off_c, 7, 67, 127
1, 235486, Note_off_c, 4, 52, 127
1, 235487, Note_on_c, 6, 54, 127
1, 235487, Note_on_c, 10, 69, 127
1, 235614, Note_off_c, 10, 69, 127
1, 235614, Note_off_c, 6, 54, 127
1, 235615, Note_on_c, 7, 55, 127
1, 235615, Note_on_c, 12, 71, 127
1, 235742, Note_off_c, 12, 71, 127
1, 235742, Note_off_c, 7, 55, 127
1, 235743, Note_on_c, 4, 52, 127
1, 235743, Note_on_c, 7, 67, 127
1, 235870, Note_off_c, 7, 67, 127
1, 235870, Note_off_c, 4, 52, 127
1, 235871, Note_on_c, 6, 54, 127
1, 235871, Note_on_c, 10, 69, 127
1, 235998, Note_off_c, 10, 69, 127
1, 235998, Note_off_c, 6, 54, 127
1, 235999, Note_on_c, 3, 51, 127
1, 235999, Note_on_c, 6, 66, 127
1, 236126, Note_off_c, 6, 66, 127
1, 236126, Note_off_c, 3, 51, 127
1, 236127, Note_on_c, 10, 69, 127
1, 236127, Note_on_c, 6, 54, 127
1, 236254, Note_off_c, 6, 54, 127
1, 236254, Note_off_c, 10, 69, 127
1, 236255, Note_on_c, 7, 67, 127
1, 236255, Note_on_c, 4, 52, 127
1, 236382, Note_off_c, 4, 52, 127
1, 236382, Note_off_c, 7, 67, 127
1, 236383, Note_on_c, 3, 51, 127
1, 236383, Note_on_c, 6, 66, 127
1, 236510, Note_off_c, 6, 66, 127
1, 236510, Note_off_c, 3, 51, 127
1, 236511, Note_on_c, 7, 67, 127
1, 236511, Note_on_c, 4, 52, 127
1, 236638, Note_off_c, 4, 52, 127
1, 236638, Note_off_c, 7, 67, 127
1, 236639, Note_on_c, 10, 69, 127
1, 236639, Note_on_c, 6, 54, 127
1, 236766, Note_off_c, 6, 54, 127
1, 236766, Note_off_c, 10, 69, 127
1, 236767, Note_on_c, 4, 52, 127
1, 236767, Note_on_c, 7, 67, 127
1, 236894, Note_off_c, 7, 67, 127
1, 236894, Note_off_c, 4, 52, 127
1, 236895, Note_on_c, 6, 54, 127
1, 236895, Note_on_c, 6, 66, 127
1, 237022, Note_off_c, 6, 66, 127
1, 237022, Note_off_c, 6, 54, 127
1, 237023, Note_on_c, 7, 55, 127
1, 237023, Note_on_c, 4, 64, 127
1, 237150, Note_off_c, 4, 64, 127
1, 237150, Note_off_c, 7, 55, 127
1, 237151, Note_on_c, 7, 67, 127
1, 237151, Note_on_c, 12, 59, 127
1, 237278, Note_off_c, 12, 59, 127
1, 237278, Note_off_c, 7, 67, 127
1, 237279, Note_on_c, 6, 66, 127
1, 237279, Note_on_c, 10, 57, 127
1, 237406, Note_off_c, 10, 57, 127
1, 237406, Note_off_c, 6, 66, 127
1, 237407, Note_on_c, 4, 64, 127
1, 237407, Note_on_c, 7, 55, 127
1, 237534, Note_off_c, 7, 55, 127
1, 237534, Note_off_c, 4, 64, 127
1, 237535, Note_on_c, 10, 57, 127
1, 237535, Note_on_c, 6, 66, 127
1, 237662, Note_off_c, 6, 66, 127
1, 237662, Note_off_c, 10, 57, 127
1, 237663, Note_on_c, 7, 67, 127
1, 237663, Note_on_c, 12, 59, 127
1, 237790, Note_off_c, 12, 59, 127
1, 237790, Note_off_c, 7, 67, 127
1, 237791, Note_on_c, 4, 64, 127
1, 237791, Note_on_c, 7, 55, 127
1, 237918, Note_off_c, 7, 55, 127
1, 237918, Note_off_c, 4, 64, 127
1, 237919, Note_on_c, 6, 66, 127
1, 237919, Note_on_c, 10, 57, 127
1, 238046, Note_off_c, 10, 57, 127
1, 238046, Note_off_c, 6, 66, 127
1, 238047, Note_on_c, 6, 54, 127
1, 238047, Note_on_c, 3, 63, 127
1, 238174, Note_off_c, 3, 63, 127
1, 238174, Note_off_c, 6, 54, 127
1, 238175, Note_on_c, 6, 66, 127
1, 238175, Note_on_c, 10, 57, 127
1, 238302, Note_off_c, 10, 57, 127
1, 238302, Note_off_c, 6, 66, 127
1, 238303, Note_on_c, 4, 64, 127
1, 238303, Note_on_c, 7, 55, 127
1, 238430, Note_off_c, 7, 55, 127
1, 238430, Note_off_c, 4, 64, 127
1, 238431, Note_on_c, 3, 63, 127
1, 238431, Note_on_c, 6, 54, 127
1, 238558, Note_off_c, 6, 54, 127
1, 238558, Note_off_c, 3, 63, 127
1, 238559, Note_on_c, 7, 55, 127
1, 238559, Note_on_c, 4, 64, 127
1, 238686, Note_off_c, 7, 55, 127
1, 238687, Note_on_c, 10, 57, 127
1, 238687, Note_on_c, 12, 71, 127
1, 238746, Note_off_c, 4, 64, 127
1, 238814, Note_off_c, 12, 71, 127
1, 238814, Note_off_c, 10, 57, 127
1, 238815, Note_on_c, 3, 63, 127
1, 238815, Note_on_c, 6, 54, 127
1, 238942, Note_off_c, 6, 54, 127
1, 238943, Note_on_c, 12, 71, 127
1, 238943, Note_on_c, 10, 57, 127
1, 239002, Note_off_c, 3, 63, 127
1, 239070, Note_off_c, 10, 57, 127
1, 239070, Note_off_c, 12, 71, 127
1, 239071, Note_on_c, 4, 64, 127
1, 239071, Note_on_c, 7, 55, 127
1, 239198, Note_off_c, 7, 55, 127
1, 239199, Note_on_c, 10, 57, 127
1, 239199, Note_on_c, 12, 71, 127
1, 239258, Note_off_c, 4, 64, 127
1, 239326, Note_off_c, 12, 71, 127
1, 239326, Note_off_c, 10, 57, 127
1, 239327, Note_on_c, 6, 54, 127
1, 239327, Note_on_c, 3, 63, 127
1, 239454, Note_off_c, 6, 54, 127
1, 239455, Note_on_c, 10, 57, 127
1, 239455, Note_on_c, 12, 71, 127
1, 239514, Note_off_c, 3, 63, 127
1, 239582, Note_off_c, 12, 71, 127
1, 239582, Note_off_c, 10, 57, 127
1, 239583, Note_on_c, 4, 64, 127
1, 239583, Note_on_c, 7, 55, 127
1, 239711, Note_on_c, 4, 76, 127
1, 239770, Note_off_c, 4, 64, 127
1, 239837, Note_off_c, 7, 55, 127
1, 239838, Note_off_c, 4, 76, 127
1, 239839, Note_on_c, 12, 71, 127
1, 239839, Note_on_c, 8, 56, 127
1, 239966, Note_off_c, 12, 71, 127
1, 239967, Note_on_c, 2, 74, 127
1, 240092, Note_off_c, 8, 56, 127
1, 240093, Note_off_c, 2, 74, 127
1, 240094, Note_on_c, 10, 57, 127
1, 240094, Note_on_c, 0, 72, 127
1, 240221, Note_off_c, 0, 72, 127
1, 240222, Note_on_c, 2, 74, 127
1, 240222, Note_on_c, 4, 64, 127
1, 240267, Note_off_c, 10, 57, 127
1, 240348, Note_off_c, 2, 74, 127
1, 240349, Note_on_c, 8, 56, 127
1, 240349, Note_on_c, 12, 71, 127
1, 240381, Note_off_c, 4, 64, 127
1, 240476, Note_off_c, 12, 71, 127
1, 240477, Note_on_c, 4, 64, 127
1, 240477, Note_on_c, 2, 74, 127
1, 240522, Note_off_c, 8, 56, 127
1, 240603, Note_off_c, 2, 74, 127
1, 240604, Note_on_c, 10, 57, 127
1, 240604, Note_on_c, 0, 72, 127
1, 240636, Note_off_c, 4, 64, 127
1, 240731, Note_off_c, 0, 72, 127
1, 240732, Note_on_c, 4, 64, 127
1, 240732, Note_on_c, 2, 74, 127
1, 240777, Note_off_c, 10, 57, 127
1, 240858, Note_off_c, 2, 74, 127
1, 240859, Note_on_c, 8, 56, 127
1, 240859, Note_on_c, 12, 71, 127
1, 240891, Note_off_c, 4, 64, 127
1, 240986, Note_off_c, 12, 71, 127
1, 240987, Note_on_c, 4, 64, 127
1, 240987, Note_on_c, 2, 74, 127
1, 241032, Note_off_c, 8, 56, 127
1, 241113, Note_off_c, 2, 74, 127
1, 241114, Note_on_c, 0, 72, 127
1, 241114, Note_on_c, 10, 57, 127
1, 241146, Note_off_c, 4, 64, 127
1, 241241, Note_off_c, 0, 72, 127
1, 241242, Note_on_c, 4, 64, 127
1, 241242, Note_on_c, 2, 74, 127
1, 241287, Note_off_c, 10, 57, 127
1, 241368, Note_off_c, 2, 74, 127
1, 241369, Note_on_c, 8, 56, 127
1, 241369, Note_on_c, 12, 71, 127
1, 241401, Note_off_c, 4, 64, 127
1, 241496, Note_off_c, 12, 71, 127
1, 241497, Note_on_c, 2, 74, 127
1, 241497, Note_on_c, 4, 64, 127
1, 241542, Note_off_c, 8, 56, 127
1, 241623, Note_off_c, 4, 64, 127
1, 241623, Note_off_c, 2, 74, 127
1, 241624, Note_on_c, 0, 72, 127
1, 241624, Note_on_c, 10, 57, 127
1, 241751, Note_off_c, 0, 72, 127
1, 241752, Note_on_c, 10, 81, 127
1, 241877, Note_off_c, 10, 57, 127
1, 241878, Note_off_c, 10, 81, 127
1, 241879, Note_on_c, 12, 59, 127
1, 241879, Note_on_c, 7, 79, 127
1, 242006, Note_off_c, 7, 79, 127
1, 242007, Note_on_c, 10, 81, 127
1, 242132, Note_off_c, 12, 59, 127
1, 242133, Note_off_c, 10, 81, 127
1, 242134, Note_on_c, 6, 78, 127
1, 242134, Note_on_c, 0, 60, 127
1, 242261, Note_off_c, 6, 78, 127
1, 242262, Note_on_c, 7, 79, 127
1, 242387, Note_off_c, 0, 60, 127
1, 242388, Note_off_c, 7, 79, 127
1, 242389, Note_on_c, 4, 76, 127
1, 242389, Note_on_c, 10, 57, 127
1, 242516, Note_off_c, 4, 76, 127
1, 242517, Note_on_c, 6, 78, 127
1, 242642, Note_off_c, 10, 57, 127
1, 242643, Note_off_c, 6, 78, 127
1, 242644, Note_on_c, 3, 75, 127
1, 242644, Note_on_c, 12, 59, 127
1, 242772, Note_on_c, 12, 71, 127
1, 242897, Note_off_c, 12, 59, 127
1, 242897, Note_off_c, 3, 75, 127
1, 242898, Note_off_c, 12, 71, 127
1, 242899, Note_on_c, 3, 75, 127
1, 242899, Note_on_c, 10, 69, 127
1, 243026, Note_off_c, 10, 69, 127
1, 243027, Note_on_c, 12, 71, 127
1, 243152, Note_off_c, 3, 75, 127
1, 243153, Note_off_c, 12, 71, 127
1, 243154, Note_on_c, 4, 76, 127
1, 243154, Note_on_c, 7, 67, 127
1, 243281, Note_off_c, 7, 67, 127
1, 243282, Note_on_c, 10, 69, 127
1, 243407, Note_off_c, 4, 76, 127
1, 243408, Note_off_c, 10, 69, 127
1, 243409, Note_on_c, 6, 66, 127
1, 243409, Note_on_c, 6, 78, 127
1, 243536, Note_off_c, 6, 66, 127
1, 243537, Note_on_c, 7, 67, 127
1, 243662, Note_off_c, 6, 78, 127
1, 243663, Note_off_c, 7, 67, 127
1, 243664, Note_on_c, 7, 79, 127
1, 243664, Note_on_c, 4, 64, 127
1, 243791, Note_off_c, 4, 64, 127
1, 243792, Note_on_c, 4, 76, 127
1, 243919, Note_off_c, 4, 76, 127
1, 243920, Note_on_c, 12, 71, 127
1, 244037, Note_off_c, 7, 79, 127
1, 244046, Note_off_c, 12, 71, 127
1, 244047, Note_on_c, 4, 76, 127
1, 244174, Note_off_c, 4, 76, 127
1, 244175, Note_on_c, 7, 67, 127
1, 244302, Note_off_c, 7, 67, 127
1, 244303, Note_on_c, 12, 71, 127
1, 244430, Note_off_c, 12, 71, 127
1, 244431, Note_on_c, 7, 79, 127
1, 244431, Note_on_c, 4, 64, 127
1, 244558, Note_off_c, 4, 64, 127
1, 244559, Note_on_c, 0, 72, 127
1, 244684, Note_off_c, 7, 79, 127
1, 244685, Note_off_c, 0, 72, 127
1, 244686, Note_on_c, 6, 78, 127
1, 244686, Note_on_c, 3, 63, 127
1, 244813, Note_off_c, 3, 63, 127
1, 244814, Note_on_c, 0, 72, 127
1, 244942, Note_on_c, 3, 63, 127
1, 244954, Note_off_c, 0, 72, 127
1, 245069, Note_off_c, 3, 63, 127
1, 245070, Note_on_c, 0, 72, 127
1, 245193, Note_off_c, 6, 78, 127
1, 245198, Note_on_c, 3, 63, 127
1, 245210, Note_off_c, 0, 72, 127
1, 245325, Note_off_c, 3, 63, 127
1, 245326, Note_on_c, 0, 72, 127
1, 245454, Note_on_c, 3, 63, 127
1, 245466, Note_off_c, 0, 72, 127
1, 245581, Note_off_c, 3, 63, 127
1, 245582, Note_on_c, 0, 72, 127
1, 245710, Note_on_c, 2, 62, 127
1, 245722, Note_off_c, 0, 72, 127
1, 245837, Note_off_c, 2, 62, 127
1, 245838, Note_on_c, 6, 66, 127
1, 245965, Note_off_c, 6, 66, 127
1, 245966, Note_on_c, 12, 71, 127
1, 245966, Note_on_c, 12, 83, 127
1, 246093, Note_off_c, 12, 71, 127
1, 246094, Note_on_c, 6, 66, 127
1, 246219, Note_off_c, 12, 83, 127
1, 246220, Note_off_c, 6, 66, 127
1, 246221, Note_on_c, 2, 62, 127
1, 246221, Note_on_c, 11, 82, 127
1, 246348, Note_off_c, 2, 62, 127
1, 246349, Note_on_c, 6, 66, 127
1, 246474, Note_off_c, 11, 82, 127
1, 246475, Note_off_c, 6, 66, 127
1, 246476, Note_on_c, 12, 83, 127
1, 246476, Note_on_c, 12, 71, 127
1, 246603, Note_off_c, 12, 71, 127
1, 246604, Note_on_c, 6, 66, 127
1, 246729, Note_off_c, 12, 83, 127
1, 246730, Note_off_c, 6, 66, 127
1, 246731, Note_on_c, 4, 76, 127
1, 246731, Note_on_c, 1, 61, 127
1, 246858, Note_off_c, 1, 61, 127
1, 246859, Note_on_c, 12, 71, 127
1, 246987, Note_on_c, 1, 61, 127
1, 246999, Note_off_c, 12, 71, 127
1, 247114, Note_off_c, 1, 61, 127
1, 247115, Note_on_c, 12, 71, 127
1, 247238, Note_off_c, 4, 76, 127
1, 247243, Note_on_c, 1, 61, 127
1, 247255, Note_off_c, 12, 71, 127
1, 247370, Note_off_c, 1, 61, 127
1, 247371, Note_on_c, 12, 71, 127
1, 247499, Note_on_c, 1, 61, 127
1, 247511, Note_off_c, 12, 71, 127
1, 247626, Note_off_c, 1, 61, 127
1, 247627, Note_on_c, 12, 71, 127
1, 247755, Note_on_c, 0, 60, 127
1, 247767, Note_off_c, 12, 71, 127
1, 247882, Note_off_c, 0, 60, 127
1, 247883, Note_on_c, 4, 64, 127
1, 248010, Note_off_c, 4, 64, 127
1, 248011, Note_on_c, 10, 69, 127
1, 248011, Note_on_c, 10, 81, 127
1, 248138, Note_off_c, 10, 69, 127
1, 248139, Note_on_c, 4, 64, 127
1, 248264, Note_off_c, 10, 81, 127
1, 248265, Note_off_c, 4, 64, 127
1, 248266, Note_on_c, 8, 80, 127
1, 248266, Note_on_c, 0, 60, 127
1, 248393, Note_off_c, 0, 60, 127
1, 248394, Note_on_c, 4, 64, 127
1, 248519, Note_off_c, 8, 80, 127
1, 248520, Note_off_c, 4, 64, 127
1, 248521, Note_on_c, 10, 81, 127
1, 248521, Note_on_c, 10, 69, 127
1, 248648, Note_off_c, 10, 69, 127
1, 248649, Note_on_c, 4, 64, 127
1, 248774, Note_off_c, 10, 81, 127
1, 248775, Note_off_c, 4, 64, 127
1, 248776, Note_on_c, 3, 75, 127
1, 248776, Note_on_c, 12, 59, 127
1, 248903, Note_off_c, 12, 59, 127
1, 248904, Note_on_c, 10, 69, 127
1, 249029, Note_off_c, 3, 75, 127
1, 249030, Note_off_c, 10, 69, 127
1, 249031, Note_on_c, 4, 76, 127
1, 249031, Note_on_c, 7, 67, 127
1, 249158, Note_off_c, 7, 67, 127
1, 249159, Note_on_c, 10, 69, 127
1, 249286, Note_off_c, 10, 69, 127
1, 249287, Note_on_c, 6, 66, 127
1, 249414, Note_off_c, 6, 66, 127
1, 249415, Note_on_c, 12, 71, 127
1, 249538, Note_off_c, 4, 76, 127
1, 249542, Note_off_c, 12, 71, 127
1, 249543, Note_on_c, 3, 75, 127
1, 249543, Note_on_c, 10, 69, 127
1, 249670, Note_off_c, 10, 69, 127
1, 249671, Note_on_c, 12, 71, 127
1, 249796, Note_off_c, 3, 75, 127
1, 249797, Note_off_c, 12, 71, 127
1, 249798, Note_on_c, 4, 76, 127
1, 249798, Note_on_c, 7, 67, 127
1, 249925, Note_off_c, 7, 67, 127
1, 249926, Note_on_c, 10, 69, 127
1, 250053, Note_off_c, 10, 69, 127
1, 250054, Note_on_c, 6, 66, 127
1, 250181, Note_off_c, 6, 66, 127
1, 250182, Note_on_c, 7, 67, 127
1, 250305, Note_off_c, 4, 76, 127
1, 250309, Note_off_c, 7, 67, 127
1, 250310, Note_on_c, 4, 64, 127
1, 250438, Note_on_c, 12, 83, 127
1, 250565, Note_off_c, 12, 83, 127
1, 250566, Note_on_c, 10, 81, 127
1, 250693, Note_off_c, 10, 81, 127
1, 250694, Note_on_c, 12, 83, 127
1, 250817, Note_off_c, 4, 64, 127
1, 250821, Note_off_c, 12, 83, 127
1, 250822, Note_on_c, 7, 79, 127
1, 250950, Note_on_c, 4, 76, 127
1, 251075, Note_off_c, 7, 79, 127
1, 251076, Note_off_c, 4, 76, 127
1, 251077, Note_on_c, 6, 78, 127
1, 251077, Note_on_c, 2, 74, 127
1, 251204, Note_off_c, 2, 74, 127
1, 251205, Note_on_c, 4, 76, 127
1, 251330, Note_off_c, 6, 78, 127
1, 251331, Note_off_c, 4, 76, 127
1, 251332, Note_on_c, 4, 76, 127
1, 251332, Note_on_c, 1, 73, 127
1, 251459, Note_off_c, 1, 73, 127
1, 251460, Note_on_c, 2, 74, 127
1, 251585, Note_off_c, 4, 76, 127
1, 251586, Note_off_c, 2, 74, 127
1, 251587, Note_on_c, 2, 74, 127
1, 251587, Note_on_c, 12, 71, 127
1, 251714, Note_off_c, 12, 71, 127
1, 251715, Note_on_c, 1, 73, 127
1, 251840, Note_off_c, 2, 74, 127
1, 251841, Note_off_c, 1, 73, 127
1, 251842, Note_on_c, 1, 73, 127
1, 251842, Note_on_c, 11, 70, 127
1, 251970, Note_on_c, 6, 66, 127
1, 252097, Note_off_c, 6, 66, 127
1, 252098, Note_on_c, 4, 64, 127
1, 252225, Note_off_c, 4, 64, 127
1, 252226, Note_on_c, 6, 66, 127
1, 252349, Note_off_c, 11, 70, 127
1, 252349, Note_off_c, 1, 73, 127
1, 252353, Note_off_c, 6, 66, 127
1, 252354, Note_on_c, 6, 78, 127
1, 252354, Note_on_c, 2, 62, 127
1, 252481, Note_off_c, 2, 62, 127
1, 252482, Note_on_c, 4, 64, 127
1, 252482, Note_on_c, 12, 71, 127
1, 252607, Note_off_c, 6, 78, 127
1, 252608, Note_off_c, 4, 64, 127
1, 252609, Note_on_c, 4, 76, 127
1, 252609, Note_on_c, 1, 61, 127
1, 252736, Note_off_c, 1, 61, 127
1, 252736, Note_off_c, 12, 71, 127
1, 252737, Note_on_c, 2, 62, 127
1, 252737, Note_on_c, 11, 70, 127
1, 252862, Note_off_c, 4, 76, 127
1, 252863, Note_off_c, 11, 70, 127
1, 252863, Note_off_c, 2, 62, 127
1, 252864, Note_on_c, 2, 74, 127
1, 252864, Note_on_c, 12, 59, 127
1, 252864, Note_on_c, 12, 71, 127
1, 252984, Note_off_c, 12, 71, 127
1, 252991, Note_off_c, 12, 59, 127
1, 252992, Note_on_c, 12, 71, 127
1, 253119, Note_off_c, 12, 71, 127
1, 253120, Note_on_c, 6, 66, 127
1, 253237, Note_off_c, 2, 74, 127
1, 253246, Note_off_c, 6, 66, 127
1, 253247, Note_on_c, 12, 71, 127
1, 253374, Note_off_c, 12, 71, 127
1, 253375, Note_on_c, 2, 62, 127
1, 253502, Note_off_c, 2, 62, 127
1, 253503, Note_on_c, 6, 66, 127
1, 253630, Note_off_c, 6, 66, 127
1, 253631, Note_on_c, 2, 74, 127
1, 253631, Note_on_c, 12, 59, 127
1, 253758, Note_off_c, 12, 59, 127
1, 253759, Note_on_c, 7, 67, 127
1, 253884, Note_off_c, 2, 74, 127
1, 253885, Note_off_c, 7, 67, 127
1, 253886, Note_on_c, 1, 73, 127
1, 253886, Note_on_c, 11, 58, 127
1, 254014, Note_on_c, 7, 67, 127
1, 254026, Note_off_c, 11, 58, 127
1, 254142, Note_on_c, 11, 58, 127
1, 254174, Note_off_c, 7, 67, 127
1, 254270, Note_on_c, 7, 67, 127
1, 254282, Note_off_c, 11, 58, 127
1, 254393, Note_off_c, 1, 73, 127
1, 254398, Note_on_c, 11, 58, 127
1, 254430, Note_off_c, 7, 67, 127
1, 254526, Note_on_c, 7, 67, 127
1, 254538, Note_off_c, 11, 58, 127
1, 254654, Note_on_c, 11, 58, 127
1, 254686, Note_off_c, 7, 67, 127
1, 254782, Note_on_c, 7, 67, 127
1, 254794, Note_off_c, 11, 58, 127
1, 254910, Note_on_c, 10, 57, 127
1, 254942, Note_off_c, 7, 67, 127
1, 255037, Note_off_c, 10, 57, 127
1, 255038, Note_on_c, 1, 61, 127
1, 255165, Note_off_c, 1, 61, 127
1, 255166, Note_on_c, 6, 66, 127
1, 255166, Note_on_c, 1, 73, 127
1, 255293, Note_off_c, 6, 66, 127
1, 255294, Note_on_c, 1, 61, 127
1, 255419, Note_off_c, 1, 73, 127
1, 255420, Note_off_c, 1, 61, 127
1, 255421, Note_on_c, 2, 74, 127
1, 255421, Note_on_c, 10, 57, 127
1, 255548, Note_off_c, 10, 57, 127
1, 255549, Note_on_c, 1, 61, 127
1, 255674, Note_off_c, 2, 74, 127
1, 255675, Note_off_c, 1, 61, 127
1, 255676, Note_on_c, 1, 73, 127
1, 255676, Note_on_c, 6, 66, 127
1, 255803, Note_off_c, 6, 66, 127
1, 255804, Note_on_c, 1, 61, 127
1, 255929, Note_off_c, 1, 73, 127
1, 255930, Note_off_c, 1, 61, 127
1, 255931, Note_on_c, 12, 71, 127
1, 255931, Note_on_c, 8, 56, 127
1, 256059, Note_on_c, 6, 66, 127
1, 256091, Note_off_c, 8, 56, 127
1, 256187, Note_on_c, 8, 56, 127
1, 256219, Note_off_c, 6, 66, 127
1, 256315, Note_on_c, 6, 66, 127
1, 256347, Note_off_c, 8, 56, 127
1, 256438, Note_off_c, 12, 71, 127
1, 256443, Note_on_c, 8, 56, 127
1, 256475, Note_off_c, 6, 66, 127
1, 256571, Note_on_c, 6, 66, 127
1, 256603, Note_off_c, 8, 56, 127
1, 256699, Note_on_c, 8, 56, 127
1, 256731, Note_off_c, 6, 66, 127
1, 256827, Note_on_c, 6, 66, 127
1, 256859, Note_off_c, 8, 56, 127
1, 256955, Note_on_c, 7, 55, 127
1, 256987, Note_off_c, 6, 66, 127
1, 257082, Note_off_c, 7, 55, 127
1, 257083, Note_on_c, 12, 59, 127
1, 257210, Note_off_c, 12, 59, 127
1, 257211, Note_on_c, 4, 64, 127
1, 257211, Note_on_c, 12, 71, 127
1, 257338, Note_off_c, 4, 64, 127
1, 257339, Note_on_c, 12, 59, 127
1, 257464, Note_off_c, 12, 71, 127
1, 257465, Note_off_c, 12, 59, 127
1, 257466, Note_on_c, 1, 73, 127
1, 257466, Note_on_c, 7, 55, 127
1, 257593, Note_off_c, 7, 55, 127
1, 257594, Note_on_c, 12, 59, 127
1, 257719, Note_off_c, 1, 73, 127
1, 257720, Note_off_c, 12, 59, 127
1, 257721, Note_on_c, 12, 71, 127
1, 257721, Note_on_c, 4, 64, 127
1, 257848, Note_off_c, 4, 64, 127
1, 257849, Note_on_c, 12, 59, 127
1, 257974, Note_off_c, 12, 71, 127
1, 257975, Note_off_c, 12, 59, 127
1, 257976, Note_on_c, 11, 70, 127
1, 257976, Note_on_c, 6, 54, 127
1, 258103, Note_off_c, 6, 54, 127
1, 258104, Note_on_c, 4, 64, 127
1, 258229, Note_off_c, 11, 70, 127
1, 258230, Note_off_c, 4, 64, 127
1, 258231, Note_on_c, 2, 62, 127
1, 258231, Note_on_c, 12, 71, 127
1, 258358, Note_off_c, 2, 62, 127
1, 258359, Note_on_c, 4, 64, 127
1, 258486, Note_off_c, 4, 64, 127
1, 258487, Note_on_c, 1, 61, 127
1, 258614, Note_off_c, 1, 61, 127
1, 258615, Note_on_c, 6, 66, 127
1, 258738, Note_off_c, 12, 71, 127
1, 258742, Note_off_c, 6, 66, 127
1, 258743, Note_on_c, 11, 70, 127
1, 258743, Note_on_c, 4, 64, 127
1, 258870, Note_off_c, 4, 64, 127
1, 258871, Note_on_c, 6, 66, 127
1, 258943, Note_off_c, 11, 70, 127
1, 258998, Note_off_c, 6, 66, 127
1, 258999, Note_on_c, 2, 62, 127
1, 258999, Note_on_c, 6, 78, 127
1, 259127, Note_on_c, 12, 71, 127
1, 259186, Note_off_c, 6, 78, 127
1, 259253, Note_off_c, 2, 62, 127
1, 259256, Note_on_c, 1, 61, 127
1, 259256, Note_on_c, 4, 76, 127
1, 259275, Note_off_c, 12, 71, 127
1, 259384, Note_on_c, 11, 70, 127
1, 259443, Note_off_c, 4, 76, 127
1, 259510, Note_off_c, 1, 61, 127
1, 259511, Note_off_c, 11, 70, 127
1, 259512, Note_on_c, 12, 59, 127
1, 259512, Note_on_c, 2, 74, 127
1, 259640, Note_on_c, 7, 67, 127
1, 259699, Note_off_c, 2, 74, 127
1, 259766, Note_off_c, 12, 59, 127
1, 259769, Note_on_c, 10, 57, 127
1, 259769, Note_on_c, 1, 73, 127
1, 259788, Note_off_c, 7, 67, 127
1, 259897, Note_on_c, 6, 66, 127
1, 259956, Note_off_c, 1, 73, 127
1, 260023, Note_off_c, 10, 57, 127
1, 260024, Note_off_c, 6, 66, 127
1, 260025, Note_on_c, 12, 71, 127
1, 260025, Note_on_c, 7, 55, 127
1, 260153, Note_on_c, 4, 64, 127
1, 260212, Note_off_c, 12, 71, 127
1, 260279, Note_off_c, 7, 55, 127
1, 260282, Note_on_c, 6, 54, 127
1, 260282, Note_on_c, 10, 69, 127
1, 260301, Note_off_c, 4, 64, 127
1, 260410, Note_on_c, 3, 63, 127
1, 260469, Note_off_c, 10, 69, 127
1, 260536, Note_off_c, 6, 54, 127
1, 260537, Note_off_c, 3, 63, 127
1, 260538, Note_on_c, 4, 52, 127
1, 260538, Note_on_c, 7, 67, 127
1, 260666, Note_on_c, 1, 61, 127
1, 260725, Note_off_c, 7, 67, 127
1, 260792, Note_off_c, 4, 52, 127
1, 260795, Note_on_c, 2, 50, 127
1, 260795, Note_on_c, 6, 66, 127
1, 260814, Note_off_c, 1, 61, 127
1, 260923, Note_on_c, 12, 59, 127
1, 260982, Note_off_c, 6, 66, 127
1, 261049, Note_off_c, 2, 50, 127
1, 261050, Note_off_c, 12, 59, 127
1, 261051, Note_on_c, 1, 49, 127
1, 261051, Note_on_c, 4, 64, 127
1, 261179, Note_on_c, 11, 58, 127
1, 261224, Note_off_c, 4, 64, 127
1, 261304, Note_off_c, 1, 49, 127
1, 261307, Note_on_c, 12, 47, 127
1, 261307, Note_on_c, 2, 62, 127
1, 261326, Note_off_c, 11, 58, 127
1, 261435, Note_on_c, 12, 59, 127
1, 261467, Note_off_c, 2, 62, 127
1, 261560, Note_off_c, 12, 47, 127
1, 261561, Note_off_c, 12, 59, 127
1, 261562, Note_on_c, 1, 61, 127
1, 261562, Note_on_c, 4, 40, 127
1, 261690, Note_on_c, 8, 56, 127
1, 261722, Note_off_c, 1, 61, 127
1, 261815, Note_off_c, 4, 40, 127
1, 261816, Note_off_c, 8, 56, 127
1, 261817, Note_on_c, 11, 58, 127
1, 261817, Note_on_c, 6, 42, 127
1, 261944, Note_off_c, 11, 58, 127
1, 261945, Note_on_c, 4, 52, 127
1, 262070, Note_off_c, 6, 42, 127
1, 262071, Note_off_c, 4, 52, 127
1, 262072, Note_on_c, 3, 51, 127
1, 262072, Note_on_c, 12, 47, 127
1, 262200, Note_on_c, 12, 59, 127
1, 262232, Note_off_c, 3, 51, 127
1, 262325, Note_off_c, 12, 47, 127
1, 262326, Note_off_c, 12, 59, 127
1, 262327, Note_on_c, 6, 54, 127
1, 262327, Note_on_c, 3, 51, 127
1, 262454, Note_off_c, 6, 54, 127
1, 262455, Note_on_c, 10, 57, 127
1, 262580, Note_off_c, 3, 51, 127
1, 262581, Note_off_c, 10, 57, 127
1, 262582, Note_on_c, 7, 55, 127
1, 262582, Note_on_c, 4, 52, 127
1, 262710, Note_on_c, 4, 64, 127
1, 262742, Note_off_c, 7, 55, 127
1, 262835, Note_off_c, 4, 52, 127
1, 262836, Note_off_c, 4, 64, 127
1, 262837, Note_on_c, 12, 59, 127
1, 262837, Note_on_c, 8, 56, 127
1, 262964, Note_off_c, 12, 59, 127
1, 262965, Note_on_c, 2, 62, 127
1, 263090, Note_off_c, 8, 56, 127
1, 263091, Note_off_c, 2, 62, 127
1, 263092, Note_on_c, 0, 60, 127
1, 263092, Note_on_c, 10, 57, 127
1, 263220, Note_on_c, 6, 66, 127
1, 263252, Note_off_c, 0, 60, 127
1, 263345, Note_off_c, 10, 57, 127
1, 263346, Note_off_c, 6, 66, 127
1, 263347, Note_on_c, 1, 61, 127
1, 263347, Note_on_c, 11, 58, 127
1, 263474, Note_off_c, 1, 61, 127
1, 263475, Note_on_c, 4, 64, 127
1, 263600, Note_off_c, 11, 58, 127
1, 263601, Note_off_c, 4, 64, 127
1, 263602, Note_on_c, 12, 59, 127
1, 263602, Note_on_c, 2, 62, 127
1, 263730, Note_on_c, 7, 67, 127
1, 263762, Note_off_c, 2, 62, 127
1, 263855, Note_off_c, 12, 59, 127
1, 263856, Note_off_c, 7, 67, 127
1, 263857, Note_on_c, 3, 63, 127
1, 263857, Note_on_c, 12, 47, 127
1, 263984, Note_off_c, 3, 63, 127
1, 263985, Note_on_c, 6, 66, 127
1, 264110, Note_off_c, 12, 47, 127
1, 264111, Note_off_c, 6, 66, 127
1, 264112, Note_on_c, 0, 48, 127
1, 264112, Note_on_c, 4, 64, 127
1, 264240, Note_on_c, 4, 76, 127
1, 264365, Note_off_c, 4, 64, 127
1, 264365, Note_off_c, 0, 48, 127
1, 264366, Note_off_c, 4, 76, 127
1, 264367, Note_on_c, 8, 44, 127
1, 264367, Note_on_c, 12, 71, 127
1, 264494, Note_off_c, 12, 71, 127
1, 264495, Note_on_c, 2, 74, 127
1, 264620, Note_off_c, 8, 44, 127
1, 264621, Note_off_c, 2, 74, 127
1, 264622, Note_on_c, 0, 72, 127
1, 264622, Note_on_c, 10, 45, 127
1, 264749, Note_off_c, 10, 45, 127
1, 264750, Note_on_c, 10, 57, 127
1, 264875, Note_off_c, 0, 72, 127
1, 264876, Note_off_c, 10, 57, 127
1, 264877, Note_on_c, 4, 52, 127
1, 265004, Note_off_c, 4, 52, 127
1, 265005, Note_on_c, 7, 55, 127
1, 265132, Note_off_c, 7, 55, 127
1, 265133, Note_on_c, 6, 54, 127
1, 265261, Note_on_c, 2, 74, 127
1, 265386, Note_off_c, 6, 54, 127
1, 265387, Note_off_c, 2, 74, 127
1, 265388, Note_on_c, 10, 69, 127
1, 265515, Note_off_c, 10, 69, 127
1, 265516, Note_on_c, 0, 72, 127
1, 265643, Note_off_c, 0, 72, 127
1, 265644, Note_on_c, 12, 71, 127
1, 265772, Note_on_c, 7, 55, 127
1, 265897, Note_off_c, 12, 71, 127
1, 265898, Note_off_c, 7, 55, 127
1, 265899, Note_on_c, 6, 66, 127
1, 265899, Note_on_c, 3, 51, 127
1, 266026, Note_off_c, 3, 51, 127
1, 266026, Note_off_c, 6, 66, 127
1, 266027, Note_on_c, 10, 69, 127
1, 266027, Note_on_c, 6, 54, 127
1, 266154, Note_off_c, 6, 54, 127
1, 266154, Note_off_c, 10, 69, 127
1, 266155, Note_on_c, 7, 67, 127
1, 266155, Note_on_c, 4, 52, 127
1, 266282, Note_off_c, 4, 52, 127
1, 266282, Note_off_c, 7, 67, 127
1, 266283, Note_on_c, 12, 59, 127
1, 266283, Note_on_c, 10, 69, 127
1, 266410, Note_off_c, 10, 69, 127
1, 266410, Note_off_c, 12, 59, 127
1, 266411, Note_on_c, 3, 51, 127
1, 266411, Note_on_c, 6, 66, 127
1, 266538, Note_off_c, 6, 66, 127
1, 266538, Note_off_c, 3, 51, 127
1, 266539, Note_on_c, 12, 59, 127
1, 266539, Note_on_c, 10, 69, 127
1, 266666, Note_off_c, 10, 69, 127
1, 266666, Note_off_c, 12, 59, 127
1, 266667, Note_on_c, 4, 52, 127
1, 266667, Note_on_c, 7, 67, 127
1, 266794, Note_off_c, 7, 67, 127
1, 266794, Note_off_c, 4, 52, 127
1, 266795, Note_on_c, 12, 59, 127
1, 266795, Note_on_c, 10, 69, 127
1, 266922, Note_off_c, 10, 69, 127
1, 266922, Note_off_c, 12, 59, 127
1, 266923, Note_on_c, 3, 51, 127
1, 266923, Note_on_c, 6, 66, 127
1, 267050, Note_off_c, 6, 66, 127
1, 267050, Note_off_c, 3, 51, 127
1, 267051, Note_on_c, 12, 59, 127
1, 267051, Note_on_c, 10, 69, 127
1, 267178, Note_off_c, 10, 69, 127
1, 267178, Note_off_c, 12, 59, 127
1, 267179, Note_on_c, 7, 67, 127
1, 267179, Note_on_c, 4, 52, 127
1, 267306, Note_off_c, 4, 52, 127
1, 267306, Note_off_c, 7, 67, 127
1, 267307, Note_on_c, 12, 59, 127
1, 267307, Note_on_c, 10, 69, 127
1, 267434, Note_off_c, 10, 69, 127
1, 267434, Note_off_c, 12, 59, 127
1, 267435, Note_on_c, 3, 51, 127
1, 267435, Note_on_c, 6, 66, 127
1, 267562, Note_off_c, 6, 66, 127
1, 267562, Note_off_c, 3, 51, 127
1, 267563, Note_on_c, 10, 69, 127
1, 267563, Note_on_c, 12, 59, 127
1, 267690, Note_off_c, 12, 59, 127
1, 267690, Note_off_c, 10, 69, 127
1, 267691, Note_on_c, 4, 52, 127
1, 267691, Note_on_c, 7, 67, 127
1, 267818, Note_off_c, 4, 52, 127
1, 267819, Note_on_c, 12, 59, 127
1, 267944, Note_off_c, 7, 67, 127
1, 267945, Note_off_c, 12, 59, 127
1, 267946, Note_on_c, 12, 47, 127
1, 267946, Note_on_c, 2, 62, 127
1, 268073, Note_off_c, 2, 62, 127
1, 268073, Note_off_c, 12, 47, 127
1, 268074, Note_on_c, 2, 50, 127
1, 268074, Note_on_c, 5, 65, 127
1, 268201, Note_off_c, 5, 65, 127
1, 268201, Note_off_c, 2, 50, 127
1, 268202, Note_on_c, 0, 48, 127
1, 268202, Note_on_c, 4, 64, 127
1, 268329, Note_off_c, 4, 64, 127
1, 268329, Note_off_c, 0, 48, 127
1, 268330, Note_on_c, 7, 55, 127
1, 268330, Note_on_c, 5, 65, 127
1, 268457, Note_off_c, 5, 65, 127
1, 268457, Note_off_c, 7, 55, 127
1, 268458, Note_on_c, 2, 62, 127
1, 268458, Note_on_c, 12, 47, 127
1, 268585, Note_off_c, 12, 47, 127
1, 268585, Note_off_c, 2, 62, 127
1, 268586, Note_on_c, 7, 55, 127
1, 268586, Note_on_c, 5, 65, 127
1, 268713, Note_off_c, 5, 65, 127
1, 268713, Note_off_c, 7, 55, 127
1, 268714, Note_on_c, 0, 48, 127
1, 268714, Note_on_c, 4, 64, 127
1, 268841, Note_off_c, 4, 64, 127
1, 268841, Note_off_c, 0, 48, 127
1, 268842, Note_on_c, 7, 55, 127
1, 268842, Note_on_c, 5, 65, 127
1, 268969, Note_off_c, 5, 65, 127
1, 268969, Note_off_c, 7, 55, 127
1, 268970, Note_on_c, 12, 47, 127
1, 268970, Note_on_c, 2, 62, 127
1, 269097, Note_off_c, 2, 62, 127
1, 269097, Note_off_c, 12, 47, 127
1, 269098, Note_on_c, 7, 55, 127
1, 269098, Note_on_c, 5, 65, 127
1, 269225, Note_off_c, 5, 65, 127
1, 269225, Note_off_c, 7, 55, 127
1, 269226, Note_on_c, 0, 48, 127
1, 269226, Note_on_c, 4, 64, 127
1, 269353, Note_off_c, 0, 48, 127
1, 269354, Note_on_c, 7, 55, 127
1, 269481, Note_off_c, 7, 55, 127
1, 269482, Note_on_c, 1, 49, 127
1, 269546, Note_off_c, 4, 64, 127
1, 269609, Note_off_c, 1, 49, 127
1, 269610, Note_on_c, 4, 64, 127
1, 269610, Note_on_c, 10, 57, 127
1, 269737, Note_off_c, 10, 57, 127
1, 269737, Note_off_c, 4, 64, 127
1, 269738, Note_on_c, 6, 66, 127
1, 269738, Note_on_c, 2, 50, 127
1, 269865, Note_off_c, 2, 50, 127
1, 269865, Note_off_c, 6, 66, 127
1, 269866, Note_on_c, 10, 57, 127
1, 269866, Note_on_c, 7, 67, 127
1, 269993, Note_off_c, 7, 67, 127
1, 269993, Note_off_c, 10, 57, 127
1, 269994, Note_on_c, 4, 64, 127
1, 269994, Note_on_c, 1, 49, 127
1, 270121, Note_off_c, 1, 49, 127
1, 270121, Note_off_c, 4, 64, 127
1, 270122, Note_on_c, 7, 67, 127
1, 270122, Note_on_c, 10, 57, 127
1, 270249, Note_off_c, 10, 57, 127
1, 270249, Note_off_c, 7, 67, 127
1, 270250, Note_on_c, 6, 66, 127
1, 270250, Note_on_c, 2, 50, 127
1, 270377, Note_off_c, 2, 50, 127
1, 270378, Note_on_c, 10, 57, 127
1, 270505, Note_off_c, 10, 57, 127
1, 270506, Note_on_c, 3, 51, 127
1, 270570, Note_off_c, 6, 66, 127
1, 270633, Note_off_c, 3, 51, 127
1, 270634, Note_on_c, 6, 66, 127
1, 270634, Note_on_c, 12, 59, 127
1, 270761, Note_off_c, 12, 59, 127
1, 270761, Note_off_c, 6, 66, 127
1, 270762, Note_on_c, 7, 67, 127
1, 270762, Note_on_c, 4, 52, 127
1, 270889, Note_off_c, 4, 52, 127
1, 270889, Note_off_c, 7, 67, 127
1, 270890, Note_on_c, 12, 59, 127
1, 270890, Note_on_c, 10, 69, 127
1, 271017, Note_off_c, 10, 69, 127
1, 271017, Note_off_c, 12, 59, 127
1, 271018, Note_on_c, 3, 51, 127
1, 271018, Note_on_c, 6, 66, 127
1, 271145, Note_off_c, 6, 66, 127
1, 271145, Note_off_c, 3, 51, 127
1, 271146, Note_on_c, 10, 69, 127
1, 271146, Note_on_c, 12, 59, 127
1, 271273, Note_off_c, 12, 59, 127
1, 271273, Note_off_c, 10, 69, 127
1, 271274, Note_on_c, 8, 68, 127
1, 271274, Note_on_c, 4, 52, 127
1, 271401, Note_off_c, 4, 52, 127
1, 271402, Note_on_c, 12, 59, 127
1, 271529, Note_off_c, 12, 59, 127
1, 271530, Note_on_c, 5, 53, 127
1, 271594, Note_off_c, 8, 68, 127
1, 271657, Note_off_c, 5, 53, 127
1, 271658, Note_on_c, 8, 68, 127
1, 271658, Note_on_c, 1, 61, 127
1, 271785, Note_off_c, 1, 61, 127
1, 271785, Note_off_c, 8, 68, 127
1, 271786, Note_on_c, 10, 69, 127
1, 271786, Note_on_c, 6, 54, 127
1, 271913, Note_off_c, 6, 54, 127
1, 271913, Note_off_c, 10, 69, 127
1, 271914, Note_on_c, 1, 61, 127
1, 271914, Note_on_c, 12, 71, 127
1, 272041, Note_off_c, 12, 71, 127
1, 272041, Note_off_c, 1, 61, 127
1, 272042, Note_on_c, 5, 53, 127
1, 272042, Note_on_c, 8, 68, 127
1, 272169, Note_off_c, 8, 68, 127
1, 272169, Note_off_c, 5, 53, 127
1, 272170, Note_on_c, 1, 61, 127
1, 272170, Note_on_c, 12, 71, 127
1, 272297, Note_off_c, 12, 71, 127
1, 272297, Note_off_c, 1, 61, 127
1, 272298, Note_on_c, 11, 70, 127
1, 272298, Note_on_c, 6, 54, 127
1, 272425, Note_off_c, 6, 54, 127
1, 272426, Note_on_c, 1, 61, 127
1, 272538, Note_off_c, 11, 70, 127
1, 272553, Note_off_c, 1, 61, 127
1, 272554, Note_on_c, 12, 71, 127
1, 272554, Note_on_c, 2, 50, 127
1, 272681, Note_off_c, 2, 50, 127
1, 272681, Note_off_c, 12, 71, 127
1, 272682, Note_on_c, 2, 62, 127
1, 272682, Note_on_c, 12, 59, 127
1, 272809, Note_off_c, 12, 59, 127
1, 272809, Note_off_c, 2, 62, 127
1, 272810, Note_on_c, 2, 62, 127
1, 272810, Note_on_c, 4, 52, 127
1, 272895, Note_off_c, 2, 62, 127
1, 272895, Note_on_c, 1, 61, 127
1, 272936, Note_off_c, 4, 52, 127
1, 272937, Note_off_c, 1, 61, 127
1, 272937, Note_on_c, 2, 62, 127
1, 272937, Note_on_c, 12, 59, 127
1, 272980, Note_off_c, 2, 62, 127
1, 272980, Note_on_c, 1, 61, 127
1, 273023, Note_off_c, 1, 61, 127
1, 273023, Note_on_c, 2, 62, 127
1, 273064, Note_off_c, 12, 59, 127
1, 273065, Note_off_c, 2, 62, 127
1, 273065, Note_on_c, 1, 61, 127
1, 273065, Note_on_c, 6, 54, 127
1, 273192, Note_off_c, 6, 54, 127
1, 273197, Note_off_c, 1, 61, 127
1, 273198, Note_on_c, 12, 59, 127
1, 273198, Note_on_c, 11, 58, 127
1, 273319, Note_off_c, 11, 58, 127
1, 273319, Note_off_c, 12, 59, 127
1, 273320, Note_on_c, 2, 50, 127
1, 273320, Note_on_c, 12, 59, 127
1, 273448, Note_on_c, 6, 78, 127
1, 273573, Note_off_c, 2, 50, 127
1, 273574, Note_off_c, 6, 78, 127
1, 273574, Note_off_c, 12, 59, 127
1, 273575, Note_on_c, 1, 49, 127
1, 273575, Note_on_c, 4, 76, 127
1, 273575, Note_on_c, 11, 58, 127
1, 273702, Note_off_c, 4, 76, 127
1, 273703, Note_on_c, 6, 78, 127
1, 273828, Note_off_c, 1, 49, 127
1, 273829, Note_off_c, 6, 78, 127
1, 273829, Note_off_c, 11, 58, 127
1, 273830, Note_on_c, 2, 74, 127
1, 273830, Note_on_c, 12, 47, 127
1, 273830, Note_on_c, 12, 59, 127
1, 273957, Note_off_c, 2, 74, 127
1, 273958, Note_on_c, 4, 76, 127
1, 274083, Note_off_c, 12, 47, 127
1, 274084, Note_off_c, 4, 76, 127
1, 274084, Note_off_c, 12, 59, 127
1, 274085, Note_on_c, 11, 46, 127
1, 274085, Note_on_c, 1, 73, 127
1, 274085, Note_on_c, 4, 52, 127
1, 274212, Note_off_c, 1, 73, 127
1, 274213, Note_on_c, 2, 74, 127
1, 274338, Note_off_c, 11, 46, 127
1, 274339, Note_off_c, 2, 74, 127
1, 274339, Note_off_c, 4, 52, 127
1, 274340, Note_on_c, 12, 71, 127
1, 274340, Note_on_c, 12, 47, 127
1, 274340, Note_on_c, 2, 50, 127
1, 274467, Note_off_c, 12, 71, 127
1, 274468, Note_on_c, 12, 83, 127
1, 274595, Note_off_c, 12, 83, 127
1, 274596, Note_on_c, 6, 78, 127
1, 274723, Note_off_c, 6, 78, 127
1, 274724, Note_on_c, 12, 83, 127
1, 274847, Note_off_c, 2, 50, 127
1, 274847, Note_off_c, 12, 47, 127
1, 274851, Note_off_c, 12, 83, 127
1, 274852, Note_on_c, 2, 74, 127
1, 274979, Note_off_c, 2, 74, 127
1, 274980, Note_on_c, 6, 78, 127
1, 275107, Note_off_c, 6, 78, 127
1, 275108, Note_on_c, 12, 47, 127
1, 275108, Note_on_c, 12, 71, 127
1, 275108, Note_on_c, 2, 50, 127
1, 275235, Note_off_c, 12, 71, 127
1, 275236, Note_on_c, 7, 79, 127
1, 275361, Note_off_c, 12, 47, 127
1, 275362, Note_off_c, 7, 79, 127
1, 275362, Note_off_c, 2, 50, 127
1, 275363, Note_on_c, 11, 70, 127
1, 275363, Note_on_c, 1, 49, 127
1, 275363, Note_on_c, 4, 52, 127
1, 275490, Note_off_c, 11, 70, 127
1, 275491, Note_on_c, 7, 79, 127
1, 275618, Note_off_c, 7, 79, 127
1, 275619, Note_on_c, 11, 70, 127
1, 275746, Note_off_c, 11, 70, 127
1, 275747, Note_on_c, 7, 79, 127
1, 275870, Note_off_c, 4, 52, 127
1, 275870, Note_off_c, 1, 49, 127
1, 275874, Note_off_c, 7, 79, 127
1, 275875, Note_on_c, 11, 70, 127
1, 276002, Note_off_c, 11, 70, 127
1, 276003, Note_on_c, 7, 79, 127
1, 276130, Note_off_c, 7, 79, 127
1, 276131, Note_on_c, 11, 70, 127
1, 276258, Note_off_c, 11, 70, 127
1, 276259, Note_on_c, 7, 79, 127
1, 276386, Note_off_c, 7, 79, 127
1, 276387, Note_on_c, 10, 69, 127
1, 276515, Note_on_c, 1, 73, 127
1, 276543, Note_off_c, 10, 69, 127
1, 276642, Note_off_c, 1, 73, 127
1, 276643, Note_on_c, 6, 78, 127
1, 276643, Note_on_c, 6, 54, 127
1, 276643, Note_on_c, 10, 57, 127
1, 276770, Note_off_c, 6, 78, 127
1, 276771, Note_on_c, 1, 73, 127
1, 276896, Note_off_c, 6, 54, 127
1, 276897, Note_off_c, 1, 73, 127
1, 276897, Note_off_c, 10, 57, 127
1, 276898, Note_on_c, 10, 69, 127
1, 276898, Note_on_c, 5, 53, 127
1, 276898, Note_on_c, 8, 56, 127
1, 277025, Note_off_c, 10, 69, 127
1, 277026, Note_on_c, 1, 73, 127
1, 277151, Note_off_c, 5, 53, 127
1, 277152, Note_off_c, 1, 73, 127
1, 277152, Note_off_c, 8, 56, 127
1, 277153, Note_on_c, 6, 78, 127
1, 277153, Note_on_c, 6, 54, 127
1, 277153, Note_on_c, 10, 57, 127
1, 277280, Note_off_c, 6, 78, 127
1, 277281, Note_on_c, 1, 73, 127
1, 277406, Note_off_c, 6, 54, 127
1, 277407, Note_off_c, 1, 73, 127
1, 277407, Note_off_c, 10, 57, 127
1, 277408, Note_on_c, 12, 47, 127
1, 277408, Note_on_c, 8, 68, 127
1, 277408, Note_on_c, 12, 59, 127
1, 277535, Note_off_c, 8, 68, 127
1, 277536, Note_on_c, 6, 78, 127
1, 277663, Note_off_c, 6, 78, 127
1, 277664, Note_on_c, 8, 68, 127
1, 277791, Note_off_c, 8, 68, 127
1, 277792, Note_on_c, 6, 78, 127
1, 277915, Note_off_c, 12, 59, 127
1, 277915, Note_off_c, 12, 47, 127
1, 277919, Note_off_c, 6, 78, 127
1, 277920, Note_on_c, 8, 68, 127
1, 278047, Note_off_c, 8, 68, 127
1, 278048, Note_on_c, 6, 78, 127
1, 278175, Note_off_c, 6, 78, 127
1, 278176, Note_on_c, 8, 68, 127
1, 278303, Note_off_c, 8, 68, 127
1, 278304, Note_on_c, 6, 78, 127
1, 278431, Note_off_c, 6, 78, 127
1, 278432, Note_on_c, 7, 67, 127
1, 278560, Note_on_c, 12, 71, 127
1, 278592, Note_off_c, 7, 67, 127
1, 278687, Note_off_c, 12, 71, 127
1, 278688, Note_on_c, 4, 52, 127
1, 278688, Note_on_c, 4, 76, 127
1, 278688, Note_on_c, 7, 55, 127
1, 278815, Note_off_c, 4, 76, 127
1, 278816, Note_on_c, 12, 71, 127
1, 278941, Note_off_c, 4, 52, 127
1, 278942, Note_off_c, 12, 71, 127
1, 278942, Note_off_c, 7, 55, 127
1, 278943, Note_on_c, 3, 51, 127
1, 278943, Note_on_c, 7, 67, 127
1, 278943, Note_on_c, 6, 54, 127
1, 279070, Note_off_c, 7, 67, 127
1, 279071, Note_on_c, 12, 71, 127
1, 279196, Note_off_c, 3, 51, 127
1, 279197, Note_off_c, 12, 71, 127
1, 279197, Note_off_c, 6, 54, 127
1, 279198, Note_on_c, 4, 52, 127
1, 279198, Note_on_c, 4, 76, 127
1, 279198, Note_on_c, 7, 55, 127
1, 279325, Note_off_c, 4, 76, 127
1, 279326, Note_on_c, 12, 71, 127
1, 279451, Note_off_c, 4, 52, 127
1, 279452, Note_off_c, 12, 71, 127
1, 279452, Note_off_c, 7, 55, 127
1, 279453, Note_on_c, 6, 66, 127
1, 279453, Note_on_c, 11, 46, 127
1, 279453, Note_on_c, 6, 54, 127
1, 279580, Note_off_c, 6, 66, 127
1, 279581, Note_on_c, 4, 76, 127
1, 279706, Note_off_c, 11, 46, 127
1, 279707, Note_off_c, 4, 76, 127
1, 279707, Note_off_c, 6, 54, 127
1, 279708, Note_on_c, 12, 47, 127
1, 279708, Note_on_c, 2, 74, 127
1, 279708, Note_on_c, 12, 59, 127
1, 279835, Note_off_c, 2, 74, 127
1, 279836, Note_on_c, 4, 76, 127
1, 279961, Note_off_c, 12, 47, 127
1, 279962, Note_off_c, 4, 76, 127
1, 279963, Note_on_c, 1, 73, 127
1, 279963, Note_on_c, 4, 52, 127
1, 280090, Note_off_c, 1, 73, 127
1, 280091, Note_on_c, 6, 78, 127
1, 280216, Note_off_c, 4, 52, 127
1, 280217, Note_off_c, 6, 78, 127
1, 280217, Note_off_c, 12, 59, 127
1, 280218, Note_on_c, 6, 54, 127
1, 280218, Note_on_c, 4, 76, 127
1, 280218, Note_on_c, 11, 58, 127
1, 280345, Note_off_c, 4, 76, 127
1, 280346, Note_on_c, 6, 78, 127
1, 280471, Note_off_c, 6, 54, 127
1, 280472, Note_off_c, 6, 78, 127
1, 280472, Note_off_c, 11, 58, 127
1, 280473, Note_on_c, 12, 47, 127
1, 280473, Note_on_c, 2, 74, 127
1, 280473, Note_on_c, 12, 59, 127
1, 280600, Note_off_c, 2, 74, 127
1, 280601, Note_on_c, 4, 76, 127
1, 280728, Note_off_c, 4, 76, 127
1, 280729, Note_on_c, 1, 73, 127
1, 280856, Note_off_c, 1, 73, 127
1, 280857, Note_on_c, 2, 74, 127
1, 280980, Note_off_c, 12, 59, 127
1, 280980, Note_off_c, 12, 47, 127
1, 280984, Note_off_c, 2, 74, 127
1, 280985, Note_on_c, 12, 71, 127
1, 281108, Note_off_c, 12, 71, 127
1, 281113, Note_on_c, 12, 71, 127
1, 281240, Note_off_c, 12, 71, 127
1, 281241, Note_on_c, 2, 74, 127
1, 281241, Note_on_c, 12, 47, 127
1, 281241, Note_on_c, 10, 69, 127
1, 281368, Note_off_c, 10, 69, 127
1, 281369, Note_on_c, 12, 71, 127
1, 281496, Note_off_c, 12, 71, 127
1, 281496, Note_off_c, 12, 47, 127
1, 281497, Note_on_c, 4, 52, 127
1, 281497, Note_on_c, 8, 68, 127
1, 281624, Note_off_c, 8, 68, 127
1, 281625, Note_on_c, 10, 69, 127
1, 281752, Note_off_c, 10, 69, 127
1, 281753, Note_on_c, 6, 66, 127
1, 281880, Note_off_c, 6, 66, 127
1, 281881, Note_on_c, 8, 68, 127
1, 282008, Note_off_c, 8, 68, 127
1, 282008, Note_off_c, 2, 74, 127
1, 282009, Note_on_c, 4, 64, 127
1, 282136, Note_off_c, 4, 52, 127
1, 282137, Note_on_c, 4, 76, 127
1, 282264, Note_off_c, 4, 76, 127
1, 282265, Note_on_c, 2, 74, 127
1, 282265, Note_on_c, 8, 56, 127
1, 282392, Note_off_c, 2, 74, 127
1, 282393, Note_on_c, 4, 76, 127
1, 282518, Note_off_c, 8, 56, 127
1, 282519, Note_off_c, 4, 76, 127
1, 282519, Note_off_c, 4, 64, 127
1, 282520, Note_on_c, 10, 57, 127
1, 282520, Note_on_c, 0, 72, 127
1, 282520, Note_on_c, 4, 64, 127
1, 282647, Note_off_c, 0, 72, 127
1, 282648, Note_on_c, 2, 74, 127
1, 282775, Note_off_c, 2, 74, 127
1, 282776, Note_on_c, 12, 71, 127
1, 282903, Note_off_c, 12, 71, 127
1, 282904, Note_on_c, 0, 72, 127
1, 283027, Note_off_c, 10, 57, 127
1, 283031, Note_off_c, 0, 72, 127
1, 283032, Note_on_c, 10, 69, 127
1, 283160, Note_on_c, 10, 57, 127
1, 283285, Note_off_c, 10, 69, 127
1, 283286, Note_off_c, 10, 57, 127
1, 283286, Note_off_c, 4, 64, 127
1, 283287, Note_on_c, 7, 55, 127
1, 283287, Note_on_c, 0, 72, 127
1, 283287, Note_on_c, 4, 64, 127
1, 283414, Note_off_c, 7, 55, 127
1, 283415, Note_on_c, 10, 57, 127
1, 283542, Note_off_c, 10, 57, 127
1, 283542, Note_off_c, 4, 64, 127
1, 283543, Note_on_c, 6, 54, 127
1, 283543, Note_on_c, 2, 62, 127
1, 283670, Note_off_c, 6, 54, 127
1, 283671, Note_on_c, 7, 55, 127
1, 283794, Note_off_c, 0, 72, 127
1, 283798, Note_off_c, 7, 55, 127
1, 283799, Note_on_c, 0, 72, 127
1, 283799, Note_on_c, 4, 52, 127
1, 283926, Note_off_c, 4, 52, 127
1, 283927, Note_on_c, 6, 54, 127
1, 284052, Note_off_c, 0, 72, 127
1, 284053, Note_off_c, 6, 54, 127
1, 284054, Note_on_c, 12, 71, 127
1, 284054, Note_on_c, 7, 55, 127
1, 284181, Note_off_c, 7, 55, 127
1, 284182, Note_on_c, 10, 57, 127
1, 284309, Note_off_c, 10, 57, 127
1, 284309, Note_off_c, 2, 62, 127
1, 284310, Note_on_c, 6, 54, 127
1, 284310, Note_on_c, 4, 64, 127
1, 284437, Note_off_c, 6, 54, 127
1, 284438, Note_on_c, 7, 55, 127
1, 284561, Note_off_c, 12, 71, 127
1, 284565, Note_off_c, 7, 55, 127
1, 284566, Note_on_c, 0, 72, 127
1, 284566, Note_on_c, 10, 57, 127
1, 284693, Note_off_c, 10, 57, 127
1, 284694, Note_on_c, 12, 59, 127
1, 284821, Note_off_c, 12, 59, 127
1, 284821, Note_off_c, 4, 64, 127
1, 284822, Note_on_c, 7, 55, 127
1, 284822, Note_on_c, 6, 66, 127
1, 284949, Note_off_c, 7, 55, 127
1, 284950, Note_on_c, 10, 57, 127
1, 285073, Note_off_c, 0, 72, 127
1, 285077, Note_off_c, 10, 57, 127
1, 285078, Note_on_c, 2, 74, 127
1, 285078, Note_on_c, 12, 59, 127
1, 285205, Note_off_c, 12, 59, 127
1, 285206, Note_on_c, 0, 60, 127
1, 285333, Note_off_c, 0, 60, 127
1, 285333, Note_off_c, 6, 66, 127
1, 285334, Note_on_c, 10, 57, 127
1, 285334, Note_on_c, 7, 67, 127
1, 285461, Note_off_c, 10, 57, 127
1, 285462, Note_on_c, 12, 59, 127
1, 285585, Note_off_c, 2, 74, 127
1, 285589, Note_off_c, 12, 59, 127
1, 285590, Note_on_c, 4, 76, 127
1, 285590, Note_on_c, 0, 60, 127
1, 285717, Note_off_c, 4, 76, 127
1, 285718, Note_on_c, 6, 78, 127
1, 285845, Note_off_c, 6, 78, 127
1, 285845, Note_off_c, 7, 67, 127
1, 285846, Note_on_c, 2, 74, 127
1, 285846, Note_on_c, 10, 69, 127
1, 285973, Note_off_c, 2, 74, 127
1, 285974, Note_on_c, 4, 76, 127
1, 286097, Note_off_c, 0, 60, 127
1, 286101, Note_off_c, 4, 76, 127
1, 286102, Note_on_c, 2, 62, 127
1, 286102, Note_on_c, 6, 78, 127
1, 286229, Note_off_c, 6, 78, 127
1, 286230, Note_on_c, 7, 79, 127
1, 286357, Note_off_c, 7, 79, 127
1, 286357, Note_off_c, 10, 69, 127
1, 286358, Note_on_c, 4, 76, 127
1, 286358, Note_on_c, 12, 71, 127
1, 286485, Note_off_c, 4, 76, 127
1, 286486, Note_on_c, 6, 78, 127
1, 286609, Note_off_c, 2, 62, 127
1, 286613, Note_off_c, 6, 78, 127
1, 286614, Note_on_c, 4, 64, 127
1, 286614, Note_on_c, 7, 79, 127
1, 286741, Note_off_c, 7, 79, 127
1, 286742, Note_on_c, 10, 81, 127
1, 286869, Note_off_c, 10, 81, 127
1, 286869, Note_off_c, 12, 71, 127
1, 286870, Note_on_c, 6, 78, 127
1, 286870, Note_on_c, 0, 72, 127
1, 286997, Note_off_c, 6, 78, 127
1, 286998, Note_on_c, 7, 79, 127
1, 287121, Note_off_c, 4, 64, 127
1, 287125, Note_off_c, 7, 79, 127
1, 287126, Note_on_c, 6, 66, 127
1, 287126, Note_on_c, 10, 81, 127
1, 287253, Note_off_c, 10, 81, 127
1, 287254, Note_on_c, 12, 83, 127
1, 287381, Note_off_c, 12, 83, 127
1, 287381, Note_off_c, 0, 72, 127
1, 287382, Note_on_c, 7, 79, 127
1, 287382, Note_on_c, 2, 74, 127
1, 287509, Note_off_c, 7, 79, 127
1, 287510, Note_on_c, 10, 81, 127
1, 287633, Note_off_c, 6, 66, 127
1, 287637, Note_off_c, 10, 81, 127
1, 287638, Note_on_c, 7, 67, 127
1, 287638, Note_on_c, 12, 83, 127
1, 287765, Note_off_c, 12, 83, 127
1, 287766, Note_on_c, 0, 84, 127
1, 287891, Note_off_c, 7, 67, 127
1, 287892, Note_off_c, 0, 84, 127
1, 287892, Note_off_c, 2, 74, 127
1, 287893, Note_on_c, 0, 60, 127
1, 287893, Note_on_c, 10, 81, 127
1, 287893, Note_on_c, 0, 72, 127
1, 288020, Note_off_c, 10, 81, 127
1, 288021, Note_on_c, 12, 83, 127
1, 288146, Note_off_c, 0, 60, 127
1, 288147, Note_off_c, 12, 83, 127
1, 288147, Note_off_c, 0, 72, 127
1, 288148, Note_on_c, 2, 62, 127
1, 288148, Note_on_c, 7, 79, 127
1, 288148, Note_on_c, 12, 71, 127
1, 288275, Note_off_c, 7, 79, 127
1, 288276, Note_on_c, 10, 81, 127
1, 288403, Note_off_c, 10, 81, 127
1, 288403, Note_off_c, 12, 71, 127
1, 288404, Note_on_c, 6, 78, 127
1, 288404, Note_on_c, 10, 69, 127
1, 288531, Note_off_c, 6, 78, 127
1, 288532, Note_on_c, 10, 81, 127
1, 288655, Note_off_c, 2, 62, 127
1, 288659, Note_off_c, 10, 81, 127
1, 288659, Note_off_c, 10, 69, 127
1, 288660, Note_on_c, 7, 79, 127
1, 288660, Note_on_c, 12, 71, 127
1, 288788, Note_on_c, 7, 55, 127
1, 288915, Note_off_c, 7, 55, 127
1, 288916, Note_on_c, 6, 54, 127
1, 289043, Note_off_c, 6, 54, 127
1, 289044, Note_on_c, 7, 55, 127
1, 289167, Note_off_c, 12, 71, 127
1, 289167, Note_off_c, 7, 79, 127
1, 289171, Note_off_c, 7, 55, 127
1, 289172, Note_on_c, 4, 52, 127
1, 289299, Note_off_c, 4, 52, 127
1, 289300, Note_on_c, 6, 54, 127
1, 289427, Note_off_c, 6, 54, 127
1, 289428, Note_on_c, 2, 50, 127
1, 289555, Note_off_c, 2, 50, 127
1, 289556, Note_on_c, 4, 52, 127
1, 289683, Note_off_c, 4, 52, 127
1, 289684, Note_on_c, 1, 49, 127
1, 289812, Note_on_c, 10, 81, 127
1, 289937, Note_off_c, 1, 49, 127
1, 289938, Note_off_c, 10, 81, 127
1, 289939, Note_on_c, 7, 79, 127
1, 289939, Note_on_c, 10, 45, 127
1, 290066, Note_off_c, 7, 79, 127
1, 290067, Note_on_c, 10, 81, 127
1, 290192, Note_off_c, 10, 45, 127
1, 290193, Note_off_c, 10, 81, 127
1, 290194, Note_on_c, 6, 78, 127
1, 290194, Note_on_c, 2, 50, 127
1, 290321, Note_off_c, 6, 78, 127
1, 290322, Note_on_c, 7, 79, 127
1, 290447, Note_off_c, 2, 50, 127
1, 290448, Note_off_c, 7, 79, 127
1, 290449, Note_on_c, 0, 48, 127
1, 290449, Note_on_c, 4, 76, 127
1, 290576, Note_off_c, 4, 76, 127
1, 290577, Note_on_c, 6, 78, 127
1, 290702, Note_off_c, 0, 48, 127
1, 290703, Note_off_c, 6, 78, 127
1, 290704, Note_on_c, 12, 47, 127
1, 290704, Note_on_c, 2, 74, 127
1, 290831, Note_off_c, 12, 47, 127
1, 290832, Note_on_c, 12, 59, 127
1, 290959, Note_off_c, 12, 59, 127
1, 290960, Note_on_c, 10, 57, 127
1, 291087, Note_off_c, 10, 57, 127
1, 291088, Note_on_c, 12, 59, 127
1, 291211, Note_off_c, 2, 74, 127
1, 291215, Note_off_c, 12, 59, 127
1, 291216, Note_on_c, 8, 56, 127
1, 291344, Note_on_c, 4, 76, 127
1, 291471, Note_off_c, 4, 76, 127
1, 291472, Note_on_c, 2, 74, 127
1, 291599, Note_off_c, 2, 74, 127
1, 291600, Note_on_c, 4, 76, 127
1, 291723, Note_off_c, 8, 56, 127
1, 291727, Note_off_c, 4, 76, 127
1, 291728, Note_on_c, 0, 72, 127
1, 291856, Note_on_c, 10, 57, 127
1, 291983, Note_off_c, 10, 57, 127
1, 291984, Note_on_c, 7, 55, 127
1, 292111, Note_off_c, 7, 55, 127
1, 292112, Note_on_c, 10, 57, 127
1, 292235, Note_off_c, 0, 72, 127
1, 292239, Note_off_c, 10, 57, 127
1, 292240, Note_on_c, 6, 54, 127
1, 292368, Note_on_c, 2, 74, 127
1, 292495, Note_off_c, 2, 74, 127
1, 292496, Note_on_c, 0, 72, 127
1, 292623, Note_off_c, 0, 72, 127
1, 292624, Note_on_c, 2, 74, 127
1, 292747, Note_off_c, 6, 54, 127
1, 292751, Note_off_c, 2, 74, 127
1, 292752, Note_on_c, 7, 55, 127
1, 292752, Note_on_c, 12, 71, 127
1, 292879, Note_off_c, 7, 55, 127
1, 292880, Note_on_c, 7, 67, 127
1, 292880, Note_on_c, 4, 76, 127
1, 292979, Note_off_c, 12, 71, 127
1, 293007, Note_off_c, 4, 76, 127
1, 293007, Note_off_c, 7, 67, 127
1, 293008, Note_on_c, 6, 66, 127
1, 293008, Note_on_c, 3, 75, 127
1, 293135, Note_off_c, 3, 75, 127
1, 293135, Note_off_c, 6, 66, 127
1, 293136, Note_on_c, 4, 64, 127
1, 293136, Note_on_c, 4, 76, 127
1, 293263, Note_off_c, 4, 76, 127
1, 293263, Note_off_c, 4, 64, 127
1, 293264, Note_on_c, 6, 78, 127
1, 293264, Note_on_c, 3, 63, 127
1, 293391, Note_off_c, 6, 78, 127
1, 293392, Note_on_c, 10, 69, 127
1, 293517, Note_off_c, 3, 63, 127
1, 293518, Note_off_c, 10, 69, 127
1, 293519, Note_on_c, 12, 71, 127
1, 293519, Note_on_c, 3, 51, 127
1, 293646, Note_off_c, 12, 71, 127
1, 293647, Note_on_c, 10, 69, 127
1, 293772, Note_off_c, 3, 51, 127
1, 293773, Note_off_c, 10, 69, 127
1, 293774, Note_on_c, 7, 67, 127
1, 293774, Note_on_c, 4, 52, 127
1, 293901, Note_off_c, 4, 52, 127
1, 293902, Note_on_c, 4, 64, 127
1, 293902, Note_on_c, 0, 72, 127
1, 293987, Note_off_c, 7, 67, 127
1, 294028, Note_off_c, 0, 72, 127
1, 294028, Note_off_c, 4, 64, 127
1, 294029, Note_on_c, 2, 62, 127
1, 294029, Note_on_c, 12, 71, 127
1, 294156, Note_off_c, 12, 71, 127
1, 294156, Note_off_c, 2, 62, 127
1, 294157, Note_on_c, 0, 72, 127
1, 294157, Note_on_c, 0, 60, 127
1, 294284, Note_off_c, 0, 60, 127
1, 294284, Note_off_c, 0, 72, 127
1, 294285, Note_on_c, 2, 74, 127
1, 294285, Note_on_c, 12, 59, 127
1, 294412, Note_off_c, 2, 74, 127
1, 294413, Note_on_c, 5, 65, 127
1, 294538, Note_off_c, 12, 59, 127
1, 294539, Note_off_c, 5, 65, 127
1, 294540, Note_on_c, 12, 47, 127
1, 294540, Note_on_c, 7, 67, 127
1, 294667, Note_off_c, 7, 67, 127
1, 294668, Note_on_c, 5, 65, 127
1, 294793, Note_off_c, 12, 47, 127
1, 294794, Note_off_c, 5, 65, 127
1, 294795, Note_on_c, 4, 64, 127
1, 294795, Note_on_c, 0, 48, 127
1, 294922, Note_off_c, 0, 48, 127
1, 294923, Note_on_c, 0, 60, 127
1, 294923, Note_on_c, 10, 69, 127
1, 294995, Note_off_c, 4, 64, 127
1, 295050, Note_off_c, 10, 69, 127
1, 295050, Note_off_c, 0, 60, 127
1, 295051, Note_on_c, 12, 59, 127
1, 295051, Note_on_c, 8, 68, 127
1, 295178, Note_off_c, 8, 68, 127
1, 295178, Note_off_c, 12, 59, 127
1, 295179, Note_on_c, 10, 69, 127
1, 295179, Note_on_c, 10, 57, 127
1, 295306, Note_off_c, 10, 57, 127
1, 295306, Note_off_c, 10, 69, 127
1, 295307, Note_on_c, 12, 71, 127
1, 295307, Note_on_c, 8, 56, 127
1, 295434, Note_off_c, 12, 71, 127
1, 295435, Note_on_c, 2, 62, 127
1, 295560, Note_off_c, 8, 56, 127
1, 295561, Note_off_c, 2, 62, 127
1, 295562, Note_on_c, 4, 64, 127
1, 295562, Note_on_c, 8, 44, 127
1, 295689, Note_off_c, 4, 64, 127
1, 295690, Note_on_c, 2, 62, 127
1, 295815, Note_off_c, 8, 44, 127
1, 295816, Note_off_c, 2, 62, 127
1, 295817, Note_on_c, 10, 45, 127
1, 295817, Note_on_c, 0, 60, 127
1, 295944, Note_off_c, 0, 60, 127
1, 295945, Note_on_c, 10, 69, 127
1, 296072, Note_off_c, 10, 69, 127
1, 296073, Note_on_c, 7, 67, 127
1, 296200, Note_off_c, 7, 67, 127
1, 296201, Note_on_c, 10, 69, 127
1, 296324, Note_off_c, 10, 45, 127
1, 296328, Note_off_c, 10, 69, 127
1, 296329, Note_on_c, 6, 66, 127
1, 296456, Note_off_c, 6, 66, 127
1, 296457, Note_on_c, 7, 67, 127
1, 296584, Note_off_c, 7, 67, 127
1, 296585, Note_on_c, 4, 64, 127
1, 296585, Note_on_c, 10, 57, 127
1, 296712, Note_off_c, 4, 64, 127
1, 296713, Note_on_c, 6, 66, 127
1, 296838, Note_off_c, 10, 57, 127
1, 296839, Note_off_c, 6, 66, 127
1, 296840, Note_on_c, 12, 59, 127
1, 296840, Note_on_c, 3, 63, 127
1, 296967, Note_off_c, 12, 59, 127
1, 296968, Note_on_c, 0, 60, 127
1, 297093, Note_off_c, 3, 63, 127
1, 297094, Note_off_c, 0, 60, 127
1, 297095, Note_on_c, 10, 57, 127
1, 297095, Note_on_c, 6, 66, 127
1, 297222, Note_off_c, 10, 57, 127
1, 297223, Note_on_c, 12, 59, 127
1, 297348, Note_off_c, 6, 66, 127
1, 297349, Note_off_c, 12, 59, 127
1, 297350, Note_on_c, 7, 55, 127
1, 297350, Note_on_c, 12, 71, 127
1, 297477, Note_off_c, 12, 71, 127
1, 297477, Note_off_c, 7, 55, 127
1, 297478, Note_on_c, 4, 64, 127
1, 297478, Note_on_c, 10, 57, 127
1, 297605, Note_off_c, 10, 57, 127
1, 297605, Note_off_c, 4, 64, 127
1, 297606, Note_on_c, 10, 69, 127
1, 297606, Note_on_c, 6, 54, 127
1, 297733, Note_off_c, 6, 54, 127
1, 297733, Note_off_c, 10, 69, 127
1, 297734, Note_on_c, 3, 63, 127
1, 297734, Note_on_c, 7, 55, 127
1, 297861, Note_off_c, 7, 55, 127
1, 297861, Note_off_c, 3, 63, 127
1, 297862, Note_on_c, 7, 67, 127
1, 297862, Note_on_c, 4, 52, 127
1, 297989, Note_off_c, 4, 52, 127
1, 297989, Note_off_c, 7, 67, 127
1, 297990, Note_on_c, 4, 64, 127
1, 297990, Note_on_c, 0, 60, 127
1, 298117, Note_off_c, 0, 60, 127
1, 298117, Note_off_c, 4, 64, 127
1, 298118, Note_on_c, 6, 66, 127
1, 298118, Note_on_c, 2, 50, 127
1, 298245, Note_off_c, 2, 50, 127
1, 298245, Note_off_c, 6, 66, 127
1, 298246, Note_on_c, 12, 59, 127
1, 298246, Note_on_c, 2, 62, 127
1, 298373, Note_off_c, 2, 62, 127
1, 298373, Note_off_c, 12, 59, 127
1, 298374, Note_on_c, 4, 64, 127
1, 298374, Note_on_c, 0, 48, 127
1, 298501, Note_off_c, 0, 48, 127
1, 298501, Note_off_c, 4, 64, 127
1, 298502, Note_on_c, 10, 57, 127
1, 298502, Note_on_c, 0, 60, 127
1, 298629, Note_off_c, 0, 60, 127
1, 298629, Note_off_c, 10, 57, 127
1, 298630, Note_on_c, 2, 62, 127
1, 298630, Note_on_c, 12, 47, 127
1, 298757, Note_off_c, 12, 47, 127
1, 298757, Note_off_c, 2, 62, 127
1, 298758, Note_on_c, 8, 56, 127
1, 298758, Note_on_c, 12, 59, 127
1, 298885, Note_off_c, 12, 59, 127
1, 298885, Note_off_c, 8, 56, 127
1, 298886, Note_on_c, 0, 60, 127
1, 298886, Note_on_c, 10, 57, 127
1, 299013, Note_off_c, 10, 57, 127
1, 299013, Note_off_c, 0, 60, 127
1, 299014, Note_on_c, 6, 54, 127
1, 299014, Note_on_c, 10, 69, 127
1, 299141, Note_off_c, 10, 69, 127
1, 299141, Note_off_c, 6, 54, 127
1, 299142, Note_on_c, 12, 59, 127
1, 299142, Note_on_c, 7, 55, 127
1, 299269, Note_off_c, 7, 55, 127
1, 299269, Note_off_c, 12, 59, 127
1, 299270, Note_on_c, 7, 67, 127
1, 299270, Note_on_c, 4, 52, 127
1, 299397, Note_off_c, 4, 52, 127
1, 299397, Note_off_c, 7, 67, 127
1, 299398, Note_on_c, 10, 57, 127
1, 299398, Note_on_c, 6, 54, 127
1, 299525, Note_off_c, 6, 54, 127
1, 299525, Note_off_c, 10, 57, 127
1, 299526, Note_on_c, 3, 51, 127
1, 299526, Note_on_c, 6, 66, 127
1, 299653, Note_off_c, 6, 66, 127
1, 299653, Note_off_c, 3, 51, 127
1, 299654, Note_on_c, 7, 55, 127
1, 299654, Note_on_c, 4, 52, 127
1, 299781, Note_off_c, 4, 52, 127
1, 299781, Note_off_c, 7, 55, 127
1, 299782, Note_on_c, 4, 64, 127
1, 299782, Note_on_c, 1, 49, 127
1, 299909, Note_off_c, 1, 49, 127
1, 299909, Note_off_c, 4, 64, 127
1, 299910, Note_on_c, 6, 54, 127
1, 299910, Note_on_c, 3, 51, 127
1, 300037, Note_off_c, 6, 54, 127
1, 300038, Note_on_c, 6, 66, 127
1, 300163, Note_off_c, 3, 51, 127
1, 300164, Note_off_c, 6, 66, 127
1, 300165, Note_on_c, 7, 55, 127
1, 300165, Note_on_c, 4, 52, 127
1, 300292, Note_off_c, 7, 55, 127
1, 300293, Note_on_c, 4, 64, 127
1, 300418, Note_off_c, 4, 52, 127
1, 300419, Note_off_c, 4, 64, 127
1, 300420, Note_on_c, 6, 54, 127
1, 300420, Note_on_c, 10, 45, 127
1, 300547, Note_off_c, 6, 54, 127
1, 300548, Note_on_c, 4, 64, 127
1, 300673, Note_off_c, 10, 45, 127
1, 300674, Note_off_c, 4, 64, 127
1, 300675, Note_on_c, 6, 54, 127
1, 300675, Note_on_c, 12, 47, 127
1, 300802, Note_off_c, 6, 54, 127
1, 300803, Note_on_c, 3, 63, 127
1, 300928, Note_off_c, 12, 47, 127
1, 300929, Note_off_c, 3, 63, 127
1, 300930, Note_on_c, 4, 40, 127
1, 300930, Note_on_c, 4, 64, 127
1, 301058, Note_on_c, 12, 59, 127
1, 301183, Note_off_c, 4, 64, 127
1, 301183, Note_off_c, 4, 40, 127
1, 301184, Note_off_c, 12, 59, 127
1, 301185, Note_on_c, 10, 57, 127
1, 301312, Note_off_c, 10, 57, 127
1, 301313, Note_on_c, 12, 59, 127
1, 301440, Note_off_c, 12, 59, 127
1, 301441, Note_on_c, 7, 55, 127
1, 301568, Note_off_c, 7, 55, 127
1, 301569, Note_on_c, 12, 71, 127
1, 301569, Note_on_c, 10, 57, 127
1, 301696, Note_off_c, 10, 57, 127
1, 301696, Note_off_c, 12, 71, 127
1, 301697, Note_on_c, 6, 54, 127
1, 301697, Note_on_c, 10, 69, 127
1, 301824, Note_off_c, 10, 69, 127
1, 301824, Note_off_c, 6, 54, 127
1, 301825, Note_on_c, 12, 71, 127
1, 301825, Note_on_c, 7, 55, 127
1, 301952, Note_off_c, 7, 55, 127
1, 301952, Note_off_c, 12, 71, 127
1, 301953, Note_on_c, 7, 67, 127
1, 301953, Note_on_c, 4, 52, 127
1, 302080, Note_off_c, 4, 52, 127
1, 302081, Note_on_c, 4, 64, 127
1, 302208, Note_off_c, 4, 64, 127
1, 302209, Note_on_c, 12, 59, 127
1, 302336, Note_off_c, 12, 59, 127
1, 302337, Note_on_c, 4, 64, 127
1, 302460, Note_off_c, 7, 67, 127
1, 302464, Note_off_c, 4, 64, 127
1, 302465, Note_on_c, 7, 55, 127
1, 302592, Note_off_c, 7, 55, 127
1, 302593, Note_on_c, 12, 59, 127
1, 302720, Note_off_c, 12, 59, 127
1, 302721, Note_on_c, 7, 67, 127
1, 302721, Note_on_c, 4, 52, 127
1, 302848, Note_off_c, 4, 52, 127
1, 302849, Note_on_c, 0, 60, 127
1, 302974, Note_off_c, 7, 67, 127
1, 302975, Note_off_c, 0, 60, 127
1, 302976, Note_on_c, 6, 66, 127
1, 302976, Note_on_c, 3, 51, 127
1, 303103, Note_off_c, 3, 51, 127
1, 303103, Note_off_c, 6, 66, 127
1, 303104, Note_on_c, 4, 64, 127
1, 303104, Note_on_c, 0, 60, 127
1, 303231, Note_off_c, 0, 60, 127
1, 303231, Note_off_c, 4, 64, 127
1, 303232, Note_on_c, 3, 51, 127
1, 303232, Note_on_c, 6, 66, 127
1, 303359, Note_off_c, 6, 66, 127
1, 303359, Note_off_c, 3, 51, 127
1, 303360, Note_on_c, 4, 64, 127
1, 303360, Note_on_c, 0, 60, 127
1, 303487, Note_off_c, 0, 60, 127
1, 303487, Note_off_c, 4, 64, 127
1, 303488, Note_on_c, 3, 51, 127
1, 303488, Note_on_c, 6, 66, 127
1, 303615, Note_off_c, 6, 66, 127
1, 303615, Note_off_c, 3, 51, 127
1, 303616, Note_on_c, 0, 60, 127
1, 303616, Note_on_c, 4, 64, 127
1, 303743, Note_off_c, 4, 64, 127
1, 303743, Note_off_c, 0, 60, 127
1, 303744, Note_on_c, 3, 51, 127
1, 303744, Note_on_c, 6, 66, 127
1, 303871, Note_off_c, 6, 66, 127
1, 303871, Note_off_c, 3, 51, 127
1, 303872, Note_on_c, 0, 60, 127
1, 303872, Note_on_c, 4, 64, 127
1, 303999, Note_off_c, 4, 64, 127
1, 303999, Note_off_c, 0, 60, 127
1, 304000, Note_on_c, 6, 66, 127
1, 304000, Note_on_c, 2, 50, 127
1, 304127, Note_off_c, 2, 50, 127
1, 304128, Note_on_c, 6, 54, 127
1, 304253, Note_off_c, 6, 66, 127
1, 304254, Note_off_c, 6, 54, 127
1, 304255, Note_on_c, 12, 59, 127
1, 304367, Note_on_c, 12, 71, 127
1, 304382, Note_off_c, 12, 59, 127
1, 304383, Note_on_c, 6, 54, 127
1, 304510, Note_off_c, 6, 54, 127
1, 304510, Note_off_c, 12, 71, 127
1, 304511, Note_on_c, 2, 50, 127
1, 304511, Note_on_c, 11, 70, 127
1, 304638, Note_off_c, 2, 50, 127
1, 304639, Note_on_c, 6, 54, 127
1, 304764, Note_off_c, 11, 70, 127
1, 304765, Note_off_c, 6, 54, 127
1, 304766, Note_on_c, 12, 59, 127
1, 304766, Note_on_c, 12, 71, 127
1, 304893, Note_off_c, 12, 59, 127
1, 304894, Note_on_c, 6, 54, 127
1, 305019, Note_off_c, 12, 71, 127
1, 305020, Note_off_c, 6, 54, 127
1, 305021, Note_on_c, 4, 64, 127
1, 305021, Note_on_c, 1, 49, 127
1, 305148, Note_off_c, 1, 49, 127
1, 305148, Note_off_c, 4, 64, 127
1, 305149, Note_on_c, 12, 59, 127
1, 305149, Note_on_c, 3, 63, 127
1, 305276, Note_off_c, 3, 63, 127
1, 305276, Note_off_c, 12, 59, 127
1, 305277, Note_on_c, 4, 64, 127
1, 305277, Note_on_c, 1, 49, 127
1, 305404, Note_off_c, 1, 49, 127
1, 305404, Note_off_c, 4, 64, 127
1, 305405, Note_on_c, 12, 59, 127
1, 305405, Note_on_c, 3, 63, 127
1, 305532, Note_off_c, 3, 63, 127
1, 305532, Note_off_c, 12, 59, 127
1, 305533, Note_on_c, 4, 64, 127
1, 305533, Note_on_c, 1, 49, 127
1, 305660, Note_off_c, 1, 49, 127
1, 305660, Note_off_c, 4, 64, 127
1, 305661, Note_on_c, 3, 63, 127
1, 305661, Note_on_c, 12, 59, 127
1, 305788, Note_off_c, 12, 59, 127
1, 305788, Note_off_c, 3, 63, 127
1, 305789, Note_on_c, 1, 49, 127
1, 305789, Note_on_c, 4, 64, 127
1, 305916, Note_off_c, 4, 64, 127
1, 305916, Note_off_c, 1, 49, 127
1, 305917, Note_on_c, 12, 59, 127
1, 305917, Note_on_c, 3, 63, 127
1, 306044, Note_off_c, 3, 63, 127
1, 306044, Note_off_c, 12, 59, 127
1, 306045, Note_on_c, 4, 64, 127
1, 306045, Note_on_c, 0, 48, 127
1, 306172, Note_off_c, 0, 48, 127
1, 306173, Note_on_c, 4, 52, 127
1, 306298, Note_off_c, 4, 64, 127
1, 306299, Note_off_c, 4, 52, 127
1, 306300, Note_on_c, 10, 57, 127
1, 306412, Note_on_c, 10, 69, 127
1, 306427, Note_off_c, 10, 57, 127
1, 306428, Note_on_c, 4, 52, 127
1, 306555, Note_off_c, 4, 52, 127
1, 306555, Note_off_c, 10, 69, 127
1, 306556, Note_on_c, 8, 68, 127
1, 306556, Note_on_c, 0, 48, 127
1, 306683, Note_off_c, 0, 48, 127
1, 306684, Note_on_c, 4, 52, 127
1, 306809, Note_off_c, 8, 68, 127
1, 306810, Note_off_c, 4, 52, 127
1, 306811, Note_on_c, 10, 69, 127
1, 306811, Note_on_c, 10, 57, 127
1, 306938, Note_off_c, 10, 57, 127
1, 306939, Note_on_c, 4, 52, 127
1, 307064, Note_off_c, 10, 69, 127
1, 307065, Note_off_c, 4, 52, 127
1, 307066, Note_on_c, 3, 63, 127
1, 307066, Note_on_c, 12, 47, 127
1, 307193, Note_off_c, 12, 47, 127
1, 307194, Note_on_c, 10, 57, 127
1, 307319, Note_off_c, 3, 63, 127
1, 307320, Note_off_c, 10, 57, 127
1, 307321, Note_on_c, 4, 64, 127
1, 307321, Note_on_c, 7, 55, 127
1, 307448, Note_off_c, 7, 55, 127
1, 307449, Note_on_c, 10, 57, 127
1, 307574, Note_off_c, 4, 64, 127
1, 307575, Note_off_c, 10, 57, 127
1, 307576, Note_on_c, 6, 54, 127
1, 307576, Note_on_c, 10, 69, 127
1, 307703, Note_off_c, 6, 54, 127
1, 307704, Note_on_c, 12, 59, 127
1, 307829, Note_off_c, 10, 69, 127
1, 307830, Note_off_c, 12, 59, 127
1, 307831, Note_on_c, 3, 63, 127
1, 307831, Note_on_c, 10, 57, 127
1, 307958, Note_off_c, 10, 57, 127
1, 307959, Note_on_c, 12, 59, 127
1, 308084, Note_off_c, 3, 63, 127
1, 308085, Note_off_c, 12, 59, 127
1, 308086, Note_on_c, 12, 71, 127
1, 308086, Note_on_c, 7, 55, 127
1, 308213, Note_off_c, 7, 55, 127
1, 308214, Note_on_c, 0, 60, 127
1, 308339, Note_off_c, 12, 71, 127
1, 308340, Note_off_c, 0, 60, 127
1, 308341, Note_on_c, 12, 59, 127
1, 308341, Note_on_c, 4, 64, 127
1, 308468, Note_off_c, 12, 59, 127
1, 308469, Note_on_c, 0, 60, 127
1, 308594, Note_off_c, 4, 64, 127
1, 308595, Note_off_c, 0, 60, 127
1, 308596, Note_on_c, 0, 72, 127
1, 308596, Note_on_c, 10, 57, 127
1, 308723, Note_off_c, 10, 57, 127
1, 308724, Note_on_c, 2, 62, 127
1, 308849, Note_off_c, 0, 72, 127
1, 308850, Note_off_c, 2, 62, 127
1, 308851, Note_on_c, 6, 66, 127
1, 308851, Note_on_c, 0, 60, 127
1, 308978, Note_off_c, 0, 60, 127
1, 308979, Note_on_c, 2, 62, 127
1, 309104, Note_off_c, 6, 66, 127
1, 309105, Note_off_c, 2, 62, 127
1, 309106, Note_on_c, 12, 59, 127
1, 309106, Note_on_c, 2, 74, 127
1, 309233, Note_off_c, 12, 59, 127
1, 309234, Note_on_c, 4, 64, 127
1, 309359, Note_off_c, 2, 74, 127
1, 309360, Note_off_c, 4, 64, 127
1, 309361, Note_on_c, 7, 67, 127
1, 309361, Note_on_c, 2, 62, 127
1, 309488, Note_off_c, 2, 62, 127
1, 309489, Note_on_c, 4, 64, 127
1, 309614, Note_off_c, 7, 67, 127
1, 309615, Note_off_c, 4, 64, 127
1, 309616, Note_on_c, 4, 76, 127
1, 309616, Note_on_c, 0, 60, 127
1, 309743, Note_off_c, 0, 60, 127
1, 309744, Note_on_c, 6, 66, 127
1, 309869, Note_off_c, 4, 76, 127
1, 309870, Note_off_c, 6, 66, 127
1, 309871, Note_on_c, 4, 64, 127
1, 309871, Note_on_c, 10, 69, 127
1, 309998, Note_off_c, 4, 64, 127
1, 309999, Note_on_c, 6, 66, 127
1, 310124, Note_off_c, 10, 69, 127
1, 310125, Note_off_c, 6, 66, 127
1, 310126, Note_on_c, 2, 62, 127
1, 310126, Note_on_c, 6, 78, 127
1, 310253, Note_off_c, 2, 62, 127
1, 310254, Note_on_c, 7, 67, 127
1, 310379, Note_off_c, 6, 78, 127
1, 310380, Note_off_c, 7, 67, 127
1, 310381, Note_on_c, 6, 66, 127
1, 310381, Note_on_c, 12, 71, 127
1, 310508, Note_off_c, 6, 66, 127
1, 310509, Note_on_c, 7, 67, 127
1, 310634, Note_off_c, 12, 71, 127
1, 310635, Note_off_c, 7, 67, 127
1, 310636, Note_on_c, 7, 79, 127
1, 310636, Note_on_c, 4, 64, 127
1, 310763, Note_off_c, 4, 64, 127
1, 310764, Note_on_c, 10, 69, 127
1, 310889, Note_off_c, 7, 79, 127
1, 310890, Note_off_c, 10, 69, 127
1, 310891, Note_on_c, 1, 73, 127
1, 310891, Note_on_c, 7, 67, 127
1, 311018, Note_off_c, 7, 67, 127
1, 311019, Note_on_c, 10, 69, 127
1, 311144, Note_off_c, 1, 73, 127
1, 311145, Note_off_c, 10, 69, 127
1, 311146, Note_on_c, 10, 81, 127
1, 311146, Note_on_c, 6, 66, 127
1, 311273, Note_off_c, 6, 66, 127
1, 311274, Note_on_c, 12, 71, 127
1, 311399, Note_off_c, 10, 81, 127
1, 311400, Note_off_c, 12, 71, 127
1, 311401, Note_on_c, 3, 75, 127
1, 311401, Note_on_c, 10, 69, 127
1, 311528, Note_off_c, 10, 69, 127
1, 311529, Note_on_c, 12, 71, 127
1, 311654, Note_off_c, 3, 75, 127
1, 311655, Note_off_c, 12, 71, 127
1, 311656, Note_on_c, 12, 83, 127
1, 311656, Note_on_c, 7, 67, 127
1, 311783, Note_off_c, 7, 67, 127
1, 311784, Note_on_c, 0, 72, 127
1, 311909, Note_off_c, 12, 83, 127
1, 311910, Note_off_c, 0, 72, 127
1, 311911, Note_on_c, 4, 76, 127
1, 311911, Note_on_c, 12, 71, 127
1, 312038, Note_off_c, 12, 71, 127
1, 312039, Note_on_c, 0, 72, 127
1, 312138, Note_off_c, 4, 76, 127
1, 312166, Note_off_c, 0, 72, 127
1, 312167, Note_on_c, 0, 84, 127
1, 312167, Note_on_c, 10, 69, 127
1, 312294, Note_off_c, 0, 84, 127
1, 312295, Note_on_c, 12, 83, 127
1, 312420, Note_off_c, 10, 69, 127
1, 312421, Note_off_c, 12, 83, 127
1, 312422, Note_on_c, 10, 81, 127
1, 312422, Note_on_c, 12, 71, 127
1, 312549, Note_off_c, 10, 81, 127
1, 312550, Note_on_c, 8, 80, 127
1, 312675, Note_off_c, 12, 71, 127
1, 312676, Note_off_c, 8, 80, 127
1, 312677, Note_on_c, 10, 81, 127
1, 312677, Note_on_c, 0, 72, 127
1, 312804, Note_off_c, 0, 72, 127
1, 312804, Note_off_c, 10, 81, 127
1, 312805, Note_on_c, 12, 83, 127
1, 312805, Note_on_c, 2, 74, 127
1, 312932, Note_off_c, 2, 74, 127
1, 312932, Note_off_c, 12, 83, 127
1, 312933, Note_on_c, 12, 71, 127
1, 312933, Note_on_c, 7, 79, 127
1, 313060, Note_off_c, 7, 79, 127
1, 313060, Note_off_c, 12, 71, 127
1, 313061, Note_on_c, 10, 81, 127
1, 313061, Note_on_c, 0, 72, 127
1, 313188, Note_off_c, 0, 72, 127
1, 313188, Note_off_c, 10, 81, 127
1, 313189, Note_on_c, 6, 78, 127
1, 313189, Note_on_c, 10, 69, 127
1, 313316, Note_off_c, 10, 69, 127
1, 313316, Note_off_c, 6, 78, 127
1, 313317, Note_on_c, 12, 71, 127
1, 313317, Note_on_c, 7, 79, 127
1, 313444, Note_off_c, 7, 79, 127
1, 313444, Note_off_c, 12, 71, 127
1, 313445, Note_on_c, 7, 67, 127
1, 313445, Note_on_c, 4, 76, 127
1, 313572, Note_off_c, 4, 76, 127
1, 313572, Note_off_c, 7, 67, 127
1, 313573, Note_on_c, 10, 69, 127
1, 313573, Note_on_c, 6, 78, 127
1, 313700, Note_off_c, 6, 78, 127
1, 313700, Note_off_c, 10, 69, 127
1, 313701, Note_on_c, 6, 66, 127
1, 313701, Note_on_c, 3, 75, 127
1, 313828, Note_off_c, 3, 75, 127
1, 313828, Note_off_c, 6, 66, 127
1, 313829, Note_on_c, 10, 69, 127
1, 313829, Note_on_c, 6, 78, 127
1, 313956, Note_off_c, 6, 78, 127
1, 313956, Note_off_c, 10, 69, 127
1, 313957, Note_on_c, 7, 67, 127
1, 313957, Note_on_c, 4, 76, 127
1, 314084, Note_off_c, 4, 76, 127
1, 314084, Note_off_c, 7, 67, 127
1, 314085, Note_on_c, 6, 66, 127
1, 314085, Note_on_c, 3, 75, 127
1, 314212, Note_off_c, 3, 75, 127
1, 314212, Note_off_c, 6, 66, 127
1, 314213, Note_on_c, 4, 76, 127
1, 314213, Note_on_c, 7, 67, 127
1, 314340, Note_off_c, 7, 67, 127
1, 314341, Note_on_c, 10, 69, 127
1, 314341, Note_on_c, 12, 83, 127
1, 314426, Note_off_c, 4, 76, 127
1, 314467, Note_off_c, 12, 83, 127
1, 314467, Note_off_c, 10, 69, 127
1, 314468, Note_on_c, 6, 66, 127
1, 314468, Note_on_c, 3, 75, 127
1, 314595, Note_off_c, 6, 66, 127
1, 314596, Note_on_c, 10, 69, 127
1, 314596, Note_on_c, 12, 83, 127
1, 314681, Note_off_c, 3, 75, 127
1, 314722, Note_off_c, 12, 83, 127
1, 314722, Note_off_c, 10, 69, 127
1, 314723, Note_on_c, 4, 76, 127
1, 314723, Note_on_c, 7, 67, 127
1, 314850, Note_off_c, 7, 67, 127
1, 314851, Note_on_c, 12, 83, 127
1, 314851, Note_on_c, 10, 69, 127
1, 314936, Note_off_c, 4, 76, 127
1, 314977, Note_off_c, 10, 69, 127
1, 314977, Note_off_c, 12, 83, 127
1, 314978, Note_on_c, 6, 66, 127
1, 314978, Note_on_c, 3, 75, 127
1, 315105, Note_off_c, 6, 66, 127
1, 315106, Note_on_c, 10, 69, 127
1, 315106, Note_on_c, 12, 83, 127
1, 315191, Note_off_c, 3, 75, 127
1, 315232, Note_off_c, 12, 83, 127
1, 315232, Note_off_c, 10, 69, 127
1, 315233, Note_on_c, 4, 76, 127
1, 315233, Note_on_c, 7, 67, 127
1, 315361, Note_on_c, 12, 83, 127
1, 315420, Note_off_c, 4, 76, 127
1, 315487, Note_off_c, 7, 67, 127
1, 315488, Note_off_c, 12, 83, 127
1, 315489, Note_on_c, 12, 71, 127
1, 315489, Note_on_c, 8, 68, 127
1, 315616, Note_off_c, 12, 71, 127
1, 315617, Note_on_c, 2, 74, 127
1, 315742, Note_off_c, 8, 68, 127
1, 315743, Note_off_c, 2, 74, 127
1, 315744, Note_on_c, 0, 72, 127
1, 315744, Note_on_c, 10, 69, 127
1, 315871, Note_off_c, 0, 72, 127
1, 315872, Note_on_c, 2, 74, 127
1, 315997, Note_off_c, 10, 69, 127
1, 315998, Note_off_c, 2, 74, 127
1, 315999, Note_on_c, 7, 67, 127
1, 315999, Note_on_c, 12, 71, 127
1, 316126, Note_off_c, 12, 71, 127
1, 316127, Note_on_c, 0, 72, 127
1, 316252, Note_off_c, 7, 67, 127
1, 316253, Note_off_c, 0, 72, 127
1, 316254, Note_on_c, 6, 66, 127
1, 316254, Note_on_c, 10, 69, 127
1, 316381, Note_off_c, 10, 69, 127
1, 316382, Note_on_c, 0, 72, 127
1, 316507, Note_off_c, 6, 66, 127
1, 316508, Note_off_c, 0, 72, 127
1, 316509, Note_on_c, 7, 67, 127
1, 316509, Note_on_c, 12, 71, 127
1, 316636, Note_off_c, 12, 71, 127
1, 316637, Note_on_c, 0, 72, 127
1, 316762, Note_off_c, 7, 67, 127
1, 316763, Note_off_c, 0, 72, 127
1, 316764, Note_on_c, 10, 69, 127
1, 316764, Note_on_c, 6, 66, 127
1, 316891, Note_off_c, 10, 69, 127
1, 316892, Note_on_c, 12, 71, 127
1, 317017, Note_off_c, 6, 66, 127
1, 317018, Note_off_c, 12, 71, 127
1, 317019, Note_on_c, 7, 67, 127
1, 317019, Note_on_c, 4, 64, 127
1, 317146, Note_off_c, 7, 67, 127
1, 317147, Note_on_c, 10, 69, 127
1, 317272, Note_off_c, 4, 64, 127
1, 317273, Note_off_c, 10, 69, 127
1, 317274, Note_on_c, 6, 66, 127
1, 317274, Note_on_c, 3, 63, 127
1, 317402, Note_on_c, 12, 47, 127
1, 317527, Note_off_c, 6, 66, 127
1, 317528, Note_off_c, 12, 47, 127
1, 317528, Note_off_c, 3, 63, 127
1, 317529, Note_on_c, 3, 75, 127
1, 317529, Note_on_c, 10, 45, 127
1, 317529, Note_on_c, 12, 71, 127
1, 317656, Note_off_c, 10, 45, 127
1, 317657, Note_on_c, 12, 47, 127
1, 317782, Note_off_c, 3, 75, 127
1, 317783, Note_off_c, 12, 47, 127
1, 317783, Note_off_c, 12, 71, 127
1, 317784, Note_on_c, 4, 76, 127
1, 317784, Note_on_c, 7, 43, 127
1, 317784, Note_on_c, 1, 73, 127
1, 317911, Note_off_c, 7, 43, 127
1, 317912, Note_on_c, 10, 45, 127
1, 318037, Note_off_c, 4, 76, 127
1, 318038, Note_off_c, 10, 45, 127
1, 318038, Note_off_c, 1, 73, 127
1, 318039, Note_on_c, 6, 42, 127
1, 318039, Note_on_c, 6, 78, 127
1, 318039, Note_on_c, 3, 75, 127
1, 318166, Note_off_c, 6, 42, 127
1, 318167, Note_on_c, 7, 43, 127
1, 318292, Note_off_c, 6, 78, 127
1, 318293, Note_off_c, 7, 43, 127
1, 318293, Note_off_c, 3, 75, 127
1, 318294, Note_on_c, 7, 79, 127
1, 318294, Note_on_c, 4, 40, 127
1, 318294, Note_on_c, 4, 76, 127
1, 318421, Note_off_c, 4, 40, 127
1, 318422, Note_on_c, 4, 64, 127
1, 318549, Note_off_c, 4, 64, 127
1, 318550, Note_on_c, 12, 59, 127
1, 318677, Note_off_c, 12, 59, 127
1, 318678, Note_on_c, 4, 64, 127
1, 318801, Note_off_c, 4, 76, 127
1, 318801, Note_off_c, 7, 79, 127
1, 318805, Note_off_c, 4, 64, 127
1, 318806, Note_on_c, 7, 55, 127
1, 318933, Note_off_c, 7, 55, 127
1, 318934, Note_on_c, 12, 59, 127
1, 319061, Note_off_c, 12, 59, 127
1, 319062, Note_on_c, 4, 76, 127
1, 319062, Note_on_c, 4, 52, 127
1, 319062, Note_on_c, 7, 67, 127
1, 319189, Note_off_c, 4, 52, 127
1, 319190, Note_on_c, 0, 60, 127
1, 319315, Note_off_c, 4, 76, 127
1, 319316, Note_off_c, 0, 60, 127
1, 319316, Note_off_c, 7, 67, 127
1, 319317, Note_on_c, 3, 51, 127
1, 319317, Note_on_c, 6, 78, 127
1, 319317, Note_on_c, 6, 66, 127
1, 319444, Note_off_c, 6, 78, 127
1, 319444, Note_off_c, 3, 51, 127
1, 319445, Note_on_c, 0, 60, 127
1, 319445, Note_on_c, 4, 76, 127
1, 319572, Note_off_c, 4, 76, 127
1, 319572, Note_off_c, 0, 60, 127
1, 319573, Note_on_c, 6, 78, 127
1, 319573, Note_on_c, 3, 51, 127
1, 319700, Note_off_c, 3, 51, 127
1, 319700, Note_off_c, 6, 78, 127
1, 319701, Note_on_c, 4, 76, 127
1, 319701, Note_on_c, 0, 60, 127
1, 319824, Note_off_c, 6, 66, 127
1, 319828, Note_off_c, 0, 60, 127
1, 319828, Note_off_c, 4, 76, 127
1, 319829, Note_on_c, 6, 78, 127
1, 319829, Note_on_c, 3, 51, 127
1, 319956, Note_off_c, 3, 51, 127
1, 319956, Note_off_c, 6, 78, 127
1, 319957, Note_on_c, 0, 60, 127
1, 319957, Note_on_c, 4, 76, 127
1, 320084, Note_off_c, 4, 76, 127
1, 320084, Note_off_c, 0, 60, 127
1, 320085, Note_on_c, 3, 51, 127
1, 320085, Note_on_c, 6, 78, 127
1, 320212, Note_off_c, 6, 78, 127
1, 320212, Note_off_c, 3, 51, 127
1, 320213, Note_on_c, 0, 60, 127
1, 320213, Note_on_c, 4, 76, 127
1, 320340, Note_off_c, 4, 76, 127
1, 320340, Note_off_c, 0, 60, 127
1, 320341, Note_on_c, 2, 50, 127
1, 320341, Note_on_c, 6, 78, 127
1, 320468, Note_off_c, 2, 50, 127
1, 320469, Note_on_c, 6, 54, 127
1, 320596, Note_off_c, 6, 54, 127
1, 320597, Note_on_c, 12, 59, 127
1, 320597, Note_on_c, 12, 71, 127
1, 320724, Note_off_c, 12, 59, 127
1, 320725, Note_on_c, 6, 54, 127
1, 320848, Note_off_c, 6, 78, 127
1, 320852, Note_off_c, 6, 54, 127
1, 320852, Note_off_c, 12, 71, 127
1, 320853, Note_on_c, 2, 50, 127
1, 320853, Note_on_c, 11, 70, 127
1, 320980, Note_off_c, 2, 50, 127
1, 320981, Note_on_c, 6, 54, 127
1, 321108, Note_off_c, 6, 54, 127
1, 321108, Note_off_c, 11, 70, 127
1, 321109, Note_on_c, 6, 78, 127
1, 321109, Note_on_c, 12, 59, 127
1, 321109, Note_on_c, 12, 71, 127
1, 321236, Note_off_c, 12, 59, 127
1, 321237, Note_on_c, 6, 54, 127
1, 321362, Note_off_c, 6, 78, 127
1, 321363, Note_off_c, 6, 54, 127
1, 321363, Note_off_c, 12, 71, 127
1, 321364, Note_on_c, 4, 76, 127
1, 321364, Note_on_c, 1, 49, 127
1, 321364, Note_on_c, 4, 64, 127
1, 321491, Note_off_c, 1, 49, 127
1, 321491, Note_off_c, 4, 76, 127
1, 321492, Note_on_c, 3, 75, 127
1, 321492, Note_on_c, 12, 59, 127
1, 321619, Note_off_c, 12, 59, 127
1, 321619, Note_off_c, 3, 75, 127
1, 321620, Note_on_c, 4, 76, 127
1, 321620, Note_on_c, 1, 49, 127
1, 321747, Note_off_c, 1, 49, 127
1, 321747, Note_off_c, 4, 76, 127
1, 321748, Note_on_c, 3, 75, 127
1, 321748, Note_on_c, 12, 59, 127
1, 321871, Note_off_c, 4, 64, 127
1, 321875, Note_off_c, 12, 59, 127
1, 321875, Note_off_c, 3, 75, 127
1, 321876, Note_on_c, 1, 49, 127
1, 321876, Note_on_c, 4, 76, 127
1, 322003, Note_off_c, 4, 76, 127
1, 322003, Note_off_c, 1, 49, 127
1, 322004, Note_on_c, 12, 59, 127
1, 322004, Note_on_c, 3, 75, 127
1, 322131, Note_off_c, 3, 75, 127
1, 322131, Note_off_c, 12, 59, 127
1, 322132, Note_on_c, 1, 49, 127
1, 322132, Note_on_c, 4, 76, 127
1, 322259, Note_off_c, 4, 76, 127
1, 322259, Note_off_c, 1, 49, 127
1, 322260, Note_on_c, 12, 59, 127
1, 322260, Note_on_c, 3, 75, 127
1, 322387, Note_off_c, 3, 75, 127
1, 322387, Note_off_c, 12, 59, 127
1, 322388, Note_on_c, 4, 76, 127
1, 322388, Note_on_c, 0, 48, 127
1, 322515, Note_off_c, 0, 48, 127
1, 322516, Note_on_c, 4, 52, 127
1, 322643, Note_off_c, 4, 52, 127
1, 322644, Note_on_c, 10, 57, 127
1, 322644, Note_on_c, 10, 69, 127
1, 322771, Note_off_c, 10, 57, 127
1, 322772, Note_on_c, 4, 52, 127
1, 322895, Note_off_c, 4, 76, 127
1, 322899, Note_off_c, 4, 52, 127
1, 322899, Note_off_c, 10, 69, 127
1, 322900, Note_on_c, 0, 48, 127
1, 322900, Note_on_c, 8, 68, 127
1, 323027, Note_off_c, 0, 48, 127
1, 323028, Note_on_c, 4, 52, 127
1, 323155, Note_off_c, 4, 52, 127
1, 323155, Note_off_c, 8, 68, 127
1, 323156, Note_on_c, 4, 76, 127
1, 323156, Note_on_c, 10, 57, 127
1, 323156, Note_on_c, 10, 69, 127
1, 323283, Note_off_c, 10, 57, 127
1, 323284, Note_on_c, 4, 52, 127
1, 323409, Note_off_c, 4, 76, 127
1, 323410, Note_off_c, 4, 52, 127
1, 323410, Note_off_c, 10, 69, 127
1, 323411, Note_on_c, 3, 75, 127
1, 323411, Note_on_c, 12, 47, 127
1, 323411, Note_on_c, 6, 66, 127
1, 323538, Note_off_c, 12, 47, 127
1, 323539, Note_on_c, 10, 57, 127
1, 323664, Note_off_c, 3, 75, 127
1, 323665, Note_off_c, 10, 57, 127
1, 323665, Note_off_c, 6, 66, 127
1, 323666, Note_on_c, 7, 55, 127
1, 323666, Note_on_c, 4, 76, 127
1, 323666, Note_on_c, 12, 71, 127
1, 323793, Note_off_c, 7, 55, 127
1, 323794, Note_on_c, 10, 57, 127
1, 323921, Note_off_c, 10, 57, 127
1, 323921, Note_off_c, 12, 71, 127
1, 323922, Note_on_c, 6, 54, 127
1, 323922, Note_on_c, 10, 69, 127
1, 324049, Note_off_c, 6, 54, 127
1, 324050, Note_on_c, 12, 59, 127
1, 324173, Note_off_c, 4, 76, 127
1, 324177, Note_off_c, 12, 59, 127
1, 324177, Note_off_c, 10, 69, 127
1, 324178, Note_on_c, 10, 57, 127
1, 324178, Note_on_c, 3, 75, 127
1, 324178, Note_on_c, 6, 66, 127
1, 324305, Note_off_c, 10, 57, 127
1, 324306, Note_on_c, 12, 59, 127
1, 324431, Note_off_c, 3, 75, 127
1, 324432, Note_off_c, 12, 59, 127
1, 324432, Note_off_c, 6, 66, 127
1, 324433, Note_on_c, 7, 55, 127
1, 324433, Note_on_c, 4, 76, 127
1, 324433, Note_on_c, 12, 71, 127
1, 324560, Note_off_c, 4, 76, 127
1, 324560, Note_off_c, 7, 55, 127
1, 324561, Note_on_c, 10, 57, 127
1, 324561, Note_on_c, 12, 83, 127
1, 324688, Note_off_c, 12, 83, 127
1, 324688, Note_off_c, 10, 57, 127
1, 324688, Note_off_c, 12, 71, 127
1, 324689, Note_on_c, 6, 54, 127
1, 324689, Note_on_c, 3, 75, 127
1, 324689, Note_on_c, 12, 71, 127
1, 324816, Note_off_c, 3, 75, 127
1, 324816, Note_off_c, 6, 54, 127
1, 324817, Note_on_c, 10, 57, 127
1, 324817, Note_on_c, 12, 83, 127
1, 324944, Note_off_c, 12, 83, 127
1, 324944, Note_off_c, 10, 57, 127
1, 324944, Note_off_c, 12, 71, 127
1, 324945, Note_on_c, 7, 55, 127
1, 324945, Note_on_c, 4, 76, 127
1, 324945, Note_on_c, 12, 71, 127
1, 325072, Note_off_c, 4, 76, 127
1, 325072, Note_off_c, 7, 55, 127
1, 325073, Note_on_c, 10, 57, 127
1, 325073, Note_on_c, 12, 83, 127
1, 325200, Note_off_c, 12, 83, 127
1, 325200, Note_off_c, 10, 57, 127
1, 325200, Note_off_c, 12, 71, 127
1, 325201, Note_on_c, 6, 54, 127
1, 325201, Note_on_c, 3, 75, 127
1, 325201, Note_on_c, 12, 71, 127
1, 325328, Note_off_c, 3, 75, 127
1, 325328, Note_off_c, 6, 54, 127
1, 325329, Note_on_c, 12, 83, 127
1, 325329, Note_on_c, 10, 57, 127
1, 325456, Note_off_c, 10, 57, 127
1, 325456, Note_off_c, 12, 83, 127
1, 325456, Note_off_c, 12, 71, 127
1, 325457, Note_on_c, 12, 71, 127
1, 325457, Note_on_c, 7, 55, 127
1, 325457, Note_on_c, 4, 76, 127
1, 325586, Note_off_c, 4, 76, 127
1, 325586, Note_off_c, 7, 55, 127
1, 325587, Note_on_c, 12, 83, 127
1, 325587, Note_on_c, 10, 57, 127
1, 325716, Note_off_c, 10, 57, 127
1, 325716, Note_off_c, 12, 83, 127
1, 325717, Note_off_c, 12, 71, 127
1, 325718, Note_on_c, 12, 71, 127
1, 325718, Note_on_c, 3, 75, 127
1, 325718, Note_on_c, 6, 54, 127
1, 325847, Note_off_c, 6, 54, 127
1, 325847, Note_off_c, 3, 75, 127
1, 325850, Note_on_c, 12, 83, 127
1, 325850, Note_on_c, 10, 57, 127
1, 325979, Note_off_c, 10, 57, 127
1, 325979, Note_off_c, 12, 83, 127
1, 325979, Note_off_c, 12, 71, 127
1, 325982, Note_on_c, 12, 71, 127
1, 325982, Note_on_c, 4, 76, 127
1, 325982, Note_on_c, 7, 55, 127
1, 326111, Note_off_c, 7, 55, 127
1, 326111, Note_off_c, 4, 76, 127
1, 326114, Note_on_c, 12, 83, 127
1, 326114, Note_on_c, 10, 57, 127
1, 326243, Note_off_c, 10, 57, 127
1, 326243, Note_off_c, 12, 83, 127
1, 326243, Note_off_c, 12, 71, 127
1, 326246, Note_on_c, 12, 71, 127
1, 326246, Note_on_c, 3, 75, 127
1, 326246, Note_on_c, 6, 54, 127
1, 326375, Note_off_c, 6, 54, 127
1, 326375, Note_off_c, 3, 75, 127
1, 326378, Note_on_c, 12, 83, 127
1, 326378, Note_on_c, 10, 57, 127
1, 326507, Note_off_c, 10, 57, 127
1, 326507, Note_off_c, 12, 83, 127
1, 326507, Note_off_c, 12, 71, 127
1, 326510, Note_on_c, 12, 71, 127
1, 326510, Note_on_c, 4, 76, 127
1, 326510, Note_on_c, 7, 55, 127
1, 326639, Note_off_c, 7, 55, 127
1, 326639, Note_off_c, 4, 76, 127
1, 326640, Note_on_c, 12, 83, 127
1, 326640, Note_on_c, 10, 57, 127
1, 326769, Note_off_c, 10, 57, 127
1, 326769, Note_off_c, 12, 83, 127
1, 326770, Note_off_c, 12, 71, 127
1, 326771, Note_on_c, 12, 71, 127
1, 326771, Note_on_c, 3, 75, 127
1, 326771, Note_on_c, 6, 54, 127
1, 326900, Note_off_c, 6, 54, 127
1, 326900, Note_off_c, 3, 75, 127
1, 326903, Note_on_c, 12, 83, 127
1, 326903, Note_on_c, 10, 57, 127
1, 327032, Note_off_c, 10, 57, 127
1, 327032, Note_off_c, 12, 83, 127
1, 327032, Note_off_c, 12, 71, 127
1, 327035, Note_on_c, 12, 71, 127
1, 327035, Note_on_c, 4, 76, 127
1, 327035, Note_on_c, 7, 55, 127
1, 327164, Note_off_c, 7, 55, 127
1, 327164, Note_off_c, 4, 76, 127
1, 327167, Note_on_c, 12, 83, 127
1, 327167, Note_on_c, 10, 57, 127
1, 327296, Note_off_c, 10, 57, 127
1, 327296, Note_off_c, 12, 83, 127
1, 327296, Note_off_c, 12, 71, 127
1, 327299, Note_on_c, 12, 71, 127
1, 327299, Note_on_c, 3, 75, 127
1, 327299, Note_on_c, 6, 54, 127
1, 327428, Note_off_c, 6, 54, 127
1, 327428, Note_off_c, 3, 75, 127
1, 327431, Note_on_c, 10, 57, 127
1, 327431, Note_on_c, 12, 83, 127
1, 327586, Note_off_c, 12, 83, 127
1, 327586, Note_off_c, 10, 57, 127
1, 327586, Note_off_c, 12, 71, 127
1, 327589, Note_on_c, 4, 76, 127
1, 327589, Note_on_c, 7, 55, 127
1, 327589, Note_on_c, 12, 71, 127
1, 327661, Note_off_c, 7, 55, 127
1, 327663, Note_on_c, 4, 52, 127
1, 327737, Note_on_c, 7, 55, 127
1, 327812, Note_on_c, 12, 59, 127
1, 327884, Note_off_c, 12, 71, 127
1, 327887, Note_on_c, 4, 64, 127
1, 328319, Note_off_c, 4, 64, 127
1, 328324, Note_off_c, 12, 59, 127
1, 328326, Note_off_c, 4, 76, 127
1, 328329, Note_off_c, 7, 55, 127
1, 328335, Note_off_c, 4, 52, 127
1, 328522, Note_on_c, 4, 52, 127
1, 328522, Note_on_c, 7, 67, 127
1, 328522, Note_on_c, 4, 64, 127
1, 328668, Note_off_c, 4, 64, 127
1, 328668, Note_off_c, 7, 67, 127
1, 328668, Note_off_c, 4, 52, 127
1, 328671, Note_on_c, 6, 66, 127
1, 328671, Note_on_c, 12, 59, 127
1, 328671, Note_on_c, 4, 64, 127
1, 328817, Note_off_c, 6, 66, 127
1, 328820, Note_on_c, 12, 71, 127
1, 328966, Note_off_c, 12, 71, 127
1, 328966, Note_off_c, 12, 59, 127
1, 328968, Note_off_c, 4, 64, 127
1, 328971, Note_on_c, 10, 69, 127
1, 328971, Note_on_c, 12, 47, 127
1, 328971, Note_on_c, 6, 66, 127
1, 328971, Note_on_c, 3, 63, 127
1, 329117, Note_off_c, 10, 69, 127
1, 329120, Note_on_c, 12, 71, 127
1, 329266, Note_off_c, 12, 71, 127
1, 329266, Note_off_c, 12, 47, 127
1, 329268, Note_off_c, 3, 63, 127
1, 329268, Note_off_c, 6, 66, 127
1, 329270, Note_on_c, 10, 69, 127
1, 329270, Note_on_c, 6, 66, 127
1, 329270, Note_on_c, 3, 63, 127
1, 329416, Note_off_c, 10, 69, 127
1, 329419, Note_on_c, 12, 71, 127
1, 329565, Note_off_c, 12, 71, 127
1, 329567, Note_off_c, 3, 63, 127
1, 329567, Note_off_c, 6, 66, 127
1, 329570, Note_on_c, 12, 47, 127
1, 329570, Note_on_c, 10, 69, 127
1, 329570, Note_on_c, 3, 63, 127
1, 329570, Note_on_c, 6, 66, 127
1, 329716, Note_off_c, 10, 69, 127
1, 329719, Note_on_c, 12, 71, 127
1, 329865, Note_off_c, 12, 71, 127
1, 329865, Note_off_c, 12, 47, 127
1, 329867, Note_off_c, 6, 66, 127
1, 329867, Note_off_c, 3, 63, 127
1, 329869, Note_on_c, 10, 69, 127
1, 329869, Note_on_c, 12, 59, 127
1, 329869, Note_on_c, 3, 63, 127
1, 329869, Note_on_c, 6, 66, 127
1, 330015, Note_off_c, 10, 69, 127
1, 330017, Note_on_c, 12, 71, 127
1, 330164, Note_off_c, 12, 59, 127
1, 330166, Note_off_c, 6, 66, 127
1, 330166, Note_off_c, 3, 63, 127
1, 330169, Note_off_c, 12, 71, 127
1, 330171, Note_on_c, 12, 47, 127
1, 330171, Note_on_c, 10, 69, 127
1, 330171, Note_on_c, 3, 63, 127
1, 330171, Note_on_c, 6, 66, 127
1, 330323, Note_off_c, 10, 69, 127
1, 330325, Note_on_c, 12, 71, 127
1, 330475, Note_off_c, 12, 47, 127
1, 330477, Note_off_c, 12, 71, 127
1, 330477, Note_off_c, 6, 66, 127
1, 330477, Note_off_c, 3, 63, 127
1, 330479, Note_on_c, 10, 69, 127
1, 330479, Note_on_c, 3, 63, 127
1, 330479, Note_on_c, 6, 66, 127
1, 330631, Note_off_c, 10, 69, 127
1, 330633, Note_on_c, 12, 47, 127
1, 330633, Note_on_c, 12, 71, 127
1, 330785, Note_off_c, 12, 71, 127
1, 330785, Note_off_c, 12, 47, 127
1, 330785, Note_off_c, 6, 66, 127
1, 330785, Note_off_c, 3, 63, 127
1, 330787, Note_on_c, 12, 59, 127
1, 330787, Note_on_c, 10, 69, 127
1, 330787, Note_on_c, 3, 63, 127
1, 330787, Note_on_c, 6, 66, 127
1, 330939, Note_off_c, 10, 69, 127
1, 330939, Note_off_c, 12, 59, 127
1, 330941, Note_on_c, 7, 55, 127
1, 330941, Note_on_c, 12, 71, 127
1, 331093, Note_off_c, 12, 71, 127
1, 331093, Note_off_c, 7, 55, 127
1, 331093, Note_off_c, 6, 66, 127
1, 331093, Note_off_c, 3, 63, 127
1, 331095, Note_on_c, 0, 60, 127
1, 331095, Note_on_c, 10, 69, 127
1, 331095, Note_on_c, 4, 64, 127
1, 331095, Note_on_c, 6, 66, 127
1, 331247, Note_off_c, 10, 69, 127
1, 331247, Note_off_c, 0, 60, 127
1, 331249, Note_on_c, 12, 59, 127
1, 331249, Note_on_c, 12, 71, 127
1, 331401, Note_off_c, 12, 71, 127
1, 331401, Note_off_c, 12, 59, 127
1, 331401, Note_off_c, 6, 66, 127
1, 331401, Note_off_c, 4, 64, 127
1, 331403, Note_on_c, 0, 60, 127
1, 331403, Note_on_c, 10, 69, 127
1, 331403, Note_on_c, 4, 64, 127
1, 331403, Note_on_c, 6, 66, 127
1, 331555, Note_off_c, 10, 69, 127
1, 331555, Note_off_c, 0, 60, 127
1, 331557, Note_on_c, 10, 57, 127
1, 331557, Note_on_c, 12, 71, 127
1, 331709, Note_off_c, 12, 71, 127
1, 331709, Note_off_c, 10, 57, 127
1, 331709, Note_off_c, 6, 66, 127
1, 331709, Note_off_c, 4, 64, 127
1, 331711, Note_on_c, 10, 69, 127
1, 331711, Note_on_c, 12, 59, 127
1, 331711, Note_on_c, 3, 63, 127
1, 331711, Note_on_c, 6, 66, 127
1, 331786, Note_off_c, 12, 59, 127
1, 331788, Note_on_c, 10, 57, 127
1, 331863, Note_off_c, 10, 57, 127
1, 331863, Note_off_c, 10, 69, 127
1, 331865, Note_on_c, 12, 71, 127
1, 331865, Note_on_c, 7, 55, 127
1, 332017, Note_off_c, 7, 55, 127
1, 332017, Note_off_c, 12, 71, 127
1, 332017, Note_off_c, 6, 66, 127
1, 332017, Note_off_c, 3, 63, 127
1, 332019, Note_on_c, 10, 69, 127
1, 332019, Note_on_c, 0, 60, 127
1, 332019, Note_on_c, 4, 64, 127
1, 332019, Note_on_c, 6, 66, 127
1, 332094, Note_off_c, 0, 60, 127
1, 332096, Note_on_c, 12, 59, 127
1, 332171, Note_off_c, 12, 59, 127
1, 332171, Note_off_c, 10, 69, 127
1, 332173, Note_on_c, 10, 57, 127
1, 332173, Note_on_c, 12, 71, 127
1, 332325, Note_off_c, 12, 71, 127
1, 332325, Note_off_c, 10, 57, 127
1, 332325, Note_off_c, 6, 66, 127
1, 332325, Note_off_c, 4, 64, 127
1, 332327, Note_on_c, 12, 59, 127
1, 332327, Note_on_c, 10, 69, 127
1, 332327, Note_on_c, 6, 66, 127
1, 332327, Note_on_c, 4, 64, 127
1, 332479, Note_off_c, 10, 69, 127
1, 332481, Note_on_c, 12, 71, 127
1, 332631, Note_off_c, 12, 59, 127
1, 332633, Note_off_c, 12, 71, 127
1, 332633, Note_off_c, 4, 64, 127
1, 332633, Note_off_c, 6, 66, 127
1, 332635, Note_on_c, 10, 69, 127
1, 332635, Note_on_c, 12, 47, 127
1, 332635, Note_on_c, 3, 63, 127
1, 332635, Note_on_c, 6, 66, 127
1, 332787, Note_off_c, 10, 69, 127
1, 332789, Note_on_c, 12, 71, 127
1, 332954, Note_off_c, 12, 47, 127
1, 332956, Note_off_c, 6, 66, 127
1, 332956, Note_off_c, 3, 63, 127
1, 332966, Note_off_c, 12, 71, 127
1, 332988, Note_on_c, 4, 52, 127
1, 333201, Note_on_c, 10, 69, 127
1, 333353, Note_off_c, 10, 69, 127
1, 333364, Note_on_c, 12, 71, 127
1, 333479, Note_on_c, 6, 66, 127
1, 333516, Note_off_c, 12, 71, 127
1, 333594, Note_on_c, 8, 68, 127
1, 333631, Note_off_c, 6, 66, 127
1, 333709, Note_on_c, 10, 69, 127
1, 333746, Note_off_c, 8, 68, 127
1, 333824, Note_on_c, 12, 71, 127
1, 333861, Note_off_c, 10, 69, 127
1, 333939, Note_on_c, 6, 66, 127
1, 333976, Note_off_c, 12, 71, 127
1, 334054, Note_on_c, 8, 68, 127
1, 334091, Note_off_c, 6, 66, 127
1, 334169, Note_on_c, 3, 63, 127
1, 334206, Note_off_c, 8, 68, 127
1, 334284, Note_on_c, 4, 64, 127
1, 334321, Note_off_c, 3, 63, 127
1, 334399, Note_on_c, 6, 66, 127
1, 334436, Note_off_c, 4, 64, 127
1, 334521, Note_on_c, 4, 64, 127
1, 334551, Note_off_c, 6, 66, 127
1, 334554, Note_off_c, 4, 52, 127
1, 334744, Note_on_c, 10, 57, 127
1, 334896, Note_off_c, 10, 57, 127
1, 334898, Note_on_c, 12, 59, 127
1, 335050, Note_off_c, 12, 59, 127
1, 335052, Note_on_c, 6, 54, 127
1, 335204, Note_off_c, 6, 54, 127
1, 335218, Note_on_c, 8, 56, 127
1, 335372, Note_on_c, 12, 59, 127
1, 335441, Note_off_c, 4, 64, 127
1, 335524, Note_off_c, 12, 59, 127
1, 335526, Note_on_c, 4, 64, 127
1, 335667, Note_off_c, 8, 56, 127
1, 335680, Note_on_c, 12, 59, 127
1, 335832, Note_off_c, 12, 59, 127
1, 335834, Note_on_c, 8, 56, 127
1, 335988, Note_on_c, 3, 51, 127
1, 336138, Note_off_c, 8, 56, 127
1, 336140, Note_off_c, 3, 51, 127
1, 336142, Note_on_c, 4, 52, 127
1, 336385, Note_on_c, 12, 47, 127
1, 336447, Note_off_c, 4, 64, 127
1, 336524, Note_on_c, 8, 44, 127
1, 336527, Note_off_c, 12, 47, 127
1, 336665, Note_off_c, 4, 52, 127
1, 336667, Note_off_c, 8, 44, 127
1, 336687, Note_on_c, 4, 40, 127
1, 337064, Note_on_c, 8, 44, 127
1, 337218, Note_on_c, 12, 47, 127
1, 337376, Note_on_c, 4, 52, 127
1, 337526, Note_on_c, 12, 71, 127
1, 337680, Note_on_c, 8, 68, 127
1, 337890, Note_on_c, 4, 64, 127
1, 338207, Note_on_c, 4, 76, 127
1, 339719, Note_off_c, 4, 76, 127
1, 339722, Note_off_c, 12, 71, 127
1, 339726, Note_off_c, 8, 68, 127
1, 339739, Note_off_c, 4, 64, 127
1, 339803, Note_off_c, 4, 52, 127
1, 339831, Note_off_c, 8, 44, 127
1, 339836, Note_off_c, 12, 47, 127
1, 339870, Note_off_c, 4, 40, 127
1, 342528, End_track
0, 0, End_of_file
