0, 0, Header, 0, 1, 384
1, 0, Start_track
1, 0, Copyright_t, "(C) John Sankey 1998"
1, 0, Program_c, 0, 6
1, 0, Pitch_bend_c, 0, 8192
1, 0, Program_c, 1, 6
1, 0, Pitch_bend_c, 1, 7792
1, 0, Program_c, 2, 6
1, 0, Pitch_bend_c, 2, 7876
1, 0, Program_c, 3, 6
1, 0, Pitch_bend_c, 3, 7952
1, 0, Program_c, 4, 6
1, 0, Pitch_bend_c, 4, 7792
1, 0, Program_c, 5, 6
1, 0, Pitch_bend_c, 5, 8112
1, 0, Program_c, 6, 6
1, 0, Pitch_bend_c, 6, 7712
1, 0, Program_c, 7, 6
1, 0, Pitch_bend_c, 7, 8037
1, 0, Program_c, 8, 6
1, 0, Pitch_bend_c, 8, 7872
1, 0, Program_c, 10, 6
1, 0, Pitch_bend_c, 10, 7712
1, 0, Program_c, 11, 6
1, 0, Pitch_bend_c, 11, 8032
1, 0, Program_c, 12, 6
1, 0, Pitch_bend_c, 12, 7872
1, 0, Tempo, 500000
1, 48, Note_on_c, 0, 48, 127
1, 48, Note_on_c, 4, 52, 127
1, 48, Note_on_c, 7, 55, 127
1, 48, Note_on_c, 0, 60, 127
1, 48, Note_on_c, 4, 64, 127
1, 48, Note_on_c, 7, 67, 127
1, 48, Note_on_c, 0, 72, 127
1, 350, Note_off_c, 0, 72, 127
1, 350, Note_off_c, 7, 67, 127
1, 350, Note_off_c, 4, 64, 127
1, 352, Note_on_c, 4, 76, 127
1, 502, Note_off_c, 4, 76, 127
1, 504, Note_on_c, 2, 74, 127
1, 654, Note_off_c, 2, 74, 127
1, 656, Note_on_c, 0, 72, 127
1, 808, Note_off_c, 0, 60, 127
1, 808, Note_off_c, 7, 55, 127
1, 808, Note_off_c, 4, 52, 127
1, 808, Note_off_c, 0, 48, 127
1, 958, Note_off_c, 0, 72, 127
1, 960, Note_on_c, 0, 60, 127
1, 960, Note_on_c, 7, 67, 127
1, 960, Note_on_c, 4, 76, 127
1, 960, Note_on_c, 0, 72, 127
1, 1262, Note_off_c, 0, 72, 127
1, 1262, Note_off_c, 4, 76, 127
1, 1262, Note_off_c, 7, 67, 127
1, 1262, Note_off_c, 0, 60, 127
1, 1264, Note_on_c, 12, 59, 127
1, 1264, Note_on_c, 7, 67, 127
1, 1264, Note_on_c, 2, 74, 127
1, 1414, Note_off_c, 12, 59, 127
1, 1416, Note_on_c, 10, 57, 127
1, 1566, Note_off_c, 10, 57, 127
1, 1566, Note_off_c, 2, 74, 127
1, 1568, Note_on_c, 7, 55, 127
1, 1568, Note_on_c, 7, 79, 127
1, 1718, Note_off_c, 7, 55, 127
1, 1720, Note_on_c, 10, 57, 127
1, 1865, Note_off_c, 7, 67, 127
1, 1870, Note_off_c, 10, 57, 127
1, 1872, Note_on_c, 12, 59, 127
1, 1872, Note_on_c, 7, 67, 127
1, 2022, Note_off_c, 12, 59, 127
1, 2024, Note_on_c, 10, 57, 127
1, 2169, Note_off_c, 7, 79, 127
1, 2174, Note_off_c, 10, 57, 127
1, 2176, Note_on_c, 12, 59, 127
1, 2176, Note_on_c, 2, 74, 127
1, 2176, Note_on_c, 7, 79, 127
1, 2326, Note_off_c, 12, 59, 127
1, 2328, Note_on_c, 7, 55, 127
1, 2478, Note_off_c, 7, 55, 127
1, 2478, Note_off_c, 7, 79, 127
1, 2478, Note_off_c, 2, 74, 127
1, 2480, Note_on_c, 0, 60, 127
1, 2480, Note_on_c, 4, 76, 127
1, 2480, Note_on_c, 0, 72, 127
1, 2630, Note_off_c, 0, 60, 127
1, 2632, Note_on_c, 7, 55, 127
1, 2782, Note_off_c, 7, 55, 127
1, 2782, Note_off_c, 0, 72, 127
1, 2782, Note_off_c, 4, 76, 127
1, 2782, Note_off_c, 7, 67, 127
1, 2784, Note_on_c, 4, 52, 127
1, 2784, Note_on_c, 0, 72, 127
1, 2934, Note_off_c, 0, 72, 127
1, 2934, Note_off_c, 4, 52, 127
1, 2936, Note_on_c, 7, 55, 127
1, 2936, Note_on_c, 2, 74, 127
1, 3086, Note_off_c, 2, 74, 127
1, 3086, Note_off_c, 7, 55, 127
1, 3088, Note_on_c, 0, 48, 127
1, 3088, Note_on_c, 0, 72, 127
1, 3088, Note_on_c, 4, 76, 127
1, 3238, Note_off_c, 0, 48, 127
1, 3240, Note_on_c, 4, 52, 127
1, 3390, Note_off_c, 4, 52, 127
1, 3390, Note_off_c, 4, 76, 127
1, 3392, Note_on_c, 2, 50, 127
1, 3392, Note_on_c, 5, 77, 127
1, 3542, Note_off_c, 5, 77, 127
1, 3542, Note_off_c, 2, 50, 127
1, 3544, Note_on_c, 0, 48, 127
1, 3544, Note_on_c, 4, 76, 127
1, 3689, Note_off_c, 0, 72, 127
1, 3694, Note_off_c, 4, 76, 127
1, 3694, Note_off_c, 0, 48, 127
1, 3696, Note_on_c, 7, 55, 127
1, 3696, Note_on_c, 12, 71, 127
1, 3696, Note_on_c, 4, 76, 127
1, 3846, Note_off_c, 7, 55, 127
1, 3848, Note_on_c, 2, 50, 127
1, 3998, Note_off_c, 2, 50, 127
1, 3998, Note_off_c, 4, 76, 127
1, 4000, Note_on_c, 7, 43, 127
1, 4000, Note_on_c, 2, 74, 127
1, 4150, Note_off_c, 7, 43, 127
1, 4152, Note_on_c, 10, 45, 127
1, 4297, Note_off_c, 12, 71, 127
1, 4302, Note_off_c, 10, 45, 127
1, 4304, Note_on_c, 12, 47, 127
1, 4304, Note_on_c, 7, 67, 127
1, 4443, Note_off_c, 2, 74, 127
1, 4454, Note_off_c, 12, 47, 127
1, 4456, Note_on_c, 10, 45, 127
1, 4589, Note_off_c, 7, 67, 127
1, 4606, Note_off_c, 10, 45, 127
1, 4608, Note_on_c, 12, 47, 127
1, 4608, Note_on_c, 2, 74, 127
1, 4608, Note_on_c, 7, 67, 127
1, 4608, Note_on_c, 7, 79, 127
1, 4758, Note_off_c, 12, 47, 127
1, 4760, Note_on_c, 7, 43, 127
1, 4910, Note_off_c, 7, 43, 127
1, 4910, Note_off_c, 7, 79, 127
1, 4910, Note_off_c, 2, 74, 127
1, 4912, Note_on_c, 0, 48, 127
1, 4912, Note_on_c, 0, 72, 127
1, 4912, Note_on_c, 4, 76, 127
1, 5062, Note_off_c, 4, 76, 127
1, 5062, Note_off_c, 0, 72, 127
1, 5062, Note_off_c, 0, 48, 127
1, 5064, Note_on_c, 4, 52, 127
1, 5064, Note_on_c, 7, 79, 127
1, 5209, Note_off_c, 7, 67, 127
1, 5214, Note_off_c, 7, 79, 127
1, 5214, Note_off_c, 4, 52, 127
1, 5216, Note_on_c, 2, 50, 127
1, 5216, Note_on_c, 5, 77, 127
1, 5366, Note_off_c, 5, 77, 127
1, 5366, Note_off_c, 2, 50, 127
1, 5368, Note_on_c, 4, 52, 127
1, 5368, Note_on_c, 7, 79, 127
1, 5518, Note_off_c, 7, 79, 127
1, 5518, Note_off_c, 4, 52, 127
1, 5520, Note_on_c, 0, 48, 127
1, 5520, Note_on_c, 4, 76, 127
1, 5670, Note_off_c, 4, 76, 127
1, 5670, Note_off_c, 0, 48, 127
1, 5672, Note_on_c, 4, 52, 127
1, 5672, Note_on_c, 7, 79, 127
1, 5822, Note_off_c, 7, 79, 127
1, 5822, Note_off_c, 4, 52, 127
1, 5824, Note_on_c, 2, 50, 127
1, 5824, Note_on_c, 5, 77, 127
1, 5974, Note_off_c, 5, 77, 127
1, 5974, Note_off_c, 2, 50, 127
1, 5976, Note_on_c, 4, 52, 127
1, 5976, Note_on_c, 7, 79, 127
1, 6126, Note_off_c, 7, 79, 127
1, 6126, Note_off_c, 4, 52, 127
1, 6128, Note_on_c, 5, 53, 127
1, 6128, Note_on_c, 10, 81, 127
1, 6278, Note_off_c, 10, 81, 127
1, 6278, Note_off_c, 5, 53, 127
1, 6280, Note_on_c, 10, 57, 127
1, 6280, Note_on_c, 0, 72, 127
1, 6430, Note_off_c, 0, 72, 127
1, 6430, Note_off_c, 10, 57, 127
1, 6432, Note_on_c, 7, 55, 127
1, 6432, Note_on_c, 12, 71, 127
1, 6582, Note_off_c, 12, 71, 127
1, 6582, Note_off_c, 7, 55, 127
1, 6584, Note_on_c, 10, 57, 127
1, 6584, Note_on_c, 0, 72, 127
1, 6734, Note_off_c, 0, 72, 127
1, 6734, Note_off_c, 10, 57, 127
1, 6736, Note_on_c, 5, 53, 127
1, 6736, Note_on_c, 10, 69, 127
1, 6886, Note_off_c, 10, 69, 127
1, 6886, Note_off_c, 5, 53, 127
1, 6888, Note_on_c, 10, 57, 127
1, 6888, Note_on_c, 0, 72, 127
1, 7038, Note_off_c, 0, 72, 127
1, 7038, Note_off_c, 10, 57, 127
1, 7040, Note_on_c, 7, 55, 127
1, 7040, Note_on_c, 12, 71, 127
1, 7190, Note_off_c, 12, 71, 127
1, 7190, Note_off_c, 7, 55, 127
1, 7192, Note_on_c, 10, 57, 127
1, 7192, Note_on_c, 0, 72, 127
1, 7342, Note_off_c, 0, 72, 127
1, 7342, Note_off_c, 10, 57, 127
1, 7344, Note_on_c, 12, 47, 127
1, 7344, Note_on_c, 2, 74, 127
1, 7494, Note_off_c, 12, 47, 127
1, 7496, Note_on_c, 2, 50, 127
1, 7496, Note_on_c, 5, 77, 127
1, 7518, Note_off_c, 2, 74, 127
1, 7646, Note_off_c, 5, 77, 127
1, 7646, Note_off_c, 2, 50, 127
1, 7648, Note_on_c, 0, 48, 127
1, 7648, Note_on_c, 4, 76, 127
1, 7798, Note_off_c, 4, 76, 127
1, 7798, Note_off_c, 0, 48, 127
1, 7800, Note_on_c, 2, 50, 127
1, 7800, Note_on_c, 5, 77, 127
1, 7950, Note_off_c, 5, 77, 127
1, 7950, Note_off_c, 2, 50, 127
1, 7952, Note_on_c, 12, 47, 127
1, 7952, Note_on_c, 2, 74, 127
1, 8102, Note_off_c, 2, 74, 127
1, 8102, Note_off_c, 12, 47, 127
1, 8104, Note_on_c, 2, 50, 127
1, 8104, Note_on_c, 5, 77, 127
1, 8254, Note_off_c, 5, 77, 127
1, 8254, Note_off_c, 2, 50, 127
1, 8256, Note_on_c, 0, 48, 127
1, 8256, Note_on_c, 4, 76, 127
1, 8406, Note_off_c, 4, 76, 127
1, 8406, Note_off_c, 0, 48, 127
1, 8408, Note_on_c, 2, 50, 127
1, 8408, Note_on_c, 5, 77, 127
1, 8558, Note_off_c, 5, 77, 127
1, 8558, Note_off_c, 2, 50, 127
1, 8560, Note_on_c, 4, 52, 127
1, 8560, Note_on_c, 7, 79, 127
1, 8710, Note_off_c, 4, 52, 127
1, 8712, Note_on_c, 7, 55, 127
1, 8712, Note_on_c, 12, 71, 127
1, 8797, Note_off_c, 7, 79, 127
1, 8862, Note_off_c, 12, 71, 127
1, 8862, Note_off_c, 7, 55, 127
1, 8864, Note_on_c, 5, 53, 127
1, 8864, Note_on_c, 10, 69, 127
1, 9014, Note_off_c, 10, 69, 127
1, 9014, Note_off_c, 5, 53, 127
1, 9016, Note_on_c, 7, 55, 127
1, 9016, Note_on_c, 12, 71, 127
1, 9166, Note_off_c, 12, 71, 127
1, 9166, Note_off_c, 7, 55, 127
1, 9168, Note_on_c, 4, 52, 127
1, 9168, Note_on_c, 7, 67, 127
1, 9318, Note_off_c, 7, 67, 127
1, 9318, Note_off_c, 4, 52, 127
1, 9320, Note_on_c, 7, 55, 127
1, 9320, Note_on_c, 12, 71, 127
1, 9470, Note_off_c, 12, 71, 127
1, 9470, Note_off_c, 7, 55, 127
1, 9472, Note_on_c, 5, 53, 127
1, 9472, Note_on_c, 10, 69, 127
1, 9622, Note_off_c, 10, 69, 127
1, 9622, Note_off_c, 5, 53, 127
1, 9624, Note_on_c, 7, 55, 127
1, 9624, Note_on_c, 12, 71, 127
1, 9774, Note_off_c, 12, 71, 127
1, 9774, Note_off_c, 7, 55, 127
1, 9776, Note_on_c, 10, 45, 127
1, 9776, Note_on_c, 0, 72, 127
1, 9926, Note_off_c, 10, 45, 127
1, 9928, Note_on_c, 0, 48, 127
1, 9928, Note_on_c, 4, 76, 127
1, 9950, Note_off_c, 0, 72, 127
1, 10078, Note_off_c, 4, 76, 127
1, 10078, Note_off_c, 0, 48, 127
1, 10080, Note_on_c, 12, 47, 127
1, 10080, Note_on_c, 2, 74, 127
1, 10230, Note_off_c, 2, 74, 127
1, 10230, Note_off_c, 12, 47, 127
1, 10232, Note_on_c, 0, 48, 127
1, 10232, Note_on_c, 4, 76, 127
1, 10382, Note_off_c, 4, 76, 127
1, 10382, Note_off_c, 0, 48, 127
1, 10384, Note_on_c, 10, 45, 127
1, 10384, Note_on_c, 0, 72, 127
1, 10534, Note_off_c, 0, 72, 127
1, 10534, Note_off_c, 10, 45, 127
1, 10536, Note_on_c, 0, 48, 127
1, 10536, Note_on_c, 4, 76, 127
1, 10686, Note_off_c, 4, 76, 127
1, 10686, Note_off_c, 0, 48, 127
1, 10688, Note_on_c, 12, 47, 127
1, 10688, Note_on_c, 2, 74, 127
1, 10838, Note_off_c, 2, 74, 127
1, 10838, Note_off_c, 12, 47, 127
1, 10840, Note_on_c, 0, 48, 127
1, 10840, Note_on_c, 4, 76, 127
1, 10990, Note_off_c, 4, 76, 127
1, 10990, Note_off_c, 0, 48, 127
1, 10992, Note_on_c, 2, 50, 127
1, 10992, Note_on_c, 5, 77, 127
1, 11142, Note_off_c, 2, 50, 127
1, 11144, Note_on_c, 5, 53, 127
1, 11144, Note_on_c, 10, 69, 127
1, 11294, Note_off_c, 10, 69, 127
1, 11294, Note_off_c, 5, 53, 127
1, 11296, Note_on_c, 4, 52, 127
1, 11296, Note_on_c, 7, 67, 127
1, 11309, Note_off_c, 5, 77, 127
1, 11446, Note_off_c, 7, 67, 127
1, 11446, Note_off_c, 4, 52, 127
1, 11448, Note_on_c, 5, 53, 127
1, 11448, Note_on_c, 10, 69, 127
1, 11598, Note_off_c, 10, 69, 127
1, 11598, Note_off_c, 5, 53, 127
1, 11600, Note_on_c, 2, 50, 127
1, 11600, Note_on_c, 5, 65, 127
1, 11750, Note_off_c, 5, 65, 127
1, 11750, Note_off_c, 2, 50, 127
1, 11752, Note_on_c, 5, 53, 127
1, 11752, Note_on_c, 10, 69, 127
1, 11902, Note_off_c, 10, 69, 127
1, 11902, Note_off_c, 5, 53, 127
1, 11904, Note_on_c, 4, 52, 127
1, 11904, Note_on_c, 7, 67, 127
1, 12054, Note_off_c, 7, 67, 127
1, 12054, Note_off_c, 4, 52, 127
1, 12056, Note_on_c, 5, 53, 127
1, 12056, Note_on_c, 10, 69, 127
1, 12206, Note_off_c, 10, 69, 127
1, 12206, Note_off_c, 5, 53, 127
1, 12208, Note_on_c, 7, 43, 127
1, 12208, Note_on_c, 12, 71, 127
1, 12358, Note_off_c, 7, 43, 127
1, 12360, Note_on_c, 12, 47, 127
1, 12360, Note_on_c, 2, 74, 127
1, 12382, Note_off_c, 12, 71, 127
1, 12510, Note_off_c, 2, 74, 127
1, 12510, Note_off_c, 12, 47, 127
1, 12512, Note_on_c, 10, 45, 127
1, 12512, Note_on_c, 0, 72, 127
1, 12662, Note_off_c, 0, 72, 127
1, 12662, Note_off_c, 10, 45, 127
1, 12664, Note_on_c, 12, 47, 127
1, 12664, Note_on_c, 2, 74, 127
1, 12814, Note_off_c, 2, 74, 127
1, 12814, Note_off_c, 12, 47, 127
1, 12816, Note_on_c, 7, 43, 127
1, 12816, Note_on_c, 12, 71, 127
1, 12966, Note_off_c, 12, 71, 127
1, 12966, Note_off_c, 7, 43, 127
1, 12968, Note_on_c, 12, 47, 127
1, 12968, Note_on_c, 2, 74, 127
1, 13118, Note_off_c, 2, 74, 127
1, 13118, Note_off_c, 12, 47, 127
1, 13120, Note_on_c, 10, 45, 127
1, 13120, Note_on_c, 0, 72, 127
1, 13270, Note_off_c, 0, 72, 127
1, 13270, Note_off_c, 10, 45, 127
1, 13272, Note_on_c, 12, 47, 127
1, 13272, Note_on_c, 2, 74, 127
1, 13422, Note_off_c, 2, 74, 127
1, 13422, Note_off_c, 12, 47, 127
1, 13424, Note_on_c, 0, 48, 127
1, 13424, Note_on_c, 4, 76, 127
1, 13574, Note_off_c, 0, 48, 127
1, 13576, Note_on_c, 4, 52, 127
1, 13576, Note_on_c, 7, 67, 127
1, 13726, Note_off_c, 7, 67, 127
1, 13726, Note_off_c, 4, 52, 127
1, 13728, Note_on_c, 2, 50, 127
1, 13728, Note_on_c, 5, 65, 127
1, 13820, Note_off_c, 4, 76, 127
1, 13878, Note_off_c, 5, 65, 127
1, 13878, Note_off_c, 2, 50, 127
1, 13880, Note_on_c, 4, 52, 127
1, 13880, Note_on_c, 7, 67, 127
1, 14030, Note_off_c, 7, 67, 127
1, 14030, Note_off_c, 4, 52, 127
1, 14032, Note_on_c, 0, 48, 127
1, 14032, Note_on_c, 4, 64, 127
1, 14182, Note_off_c, 4, 64, 127
1, 14182, Note_off_c, 0, 48, 127
1, 14184, Note_on_c, 4, 52, 127
1, 14184, Note_on_c, 7, 67, 127
1, 14334, Note_off_c, 7, 67, 127
1, 14334, Note_off_c, 4, 52, 127
1, 14336, Note_on_c, 2, 50, 127
1, 14336, Note_on_c, 5, 65, 127
1, 14486, Note_off_c, 5, 65, 127
1, 14486, Note_off_c, 2, 50, 127
1, 14488, Note_on_c, 4, 52, 127
1, 14488, Note_on_c, 7, 67, 127
1, 14638, Note_off_c, 7, 67, 127
1, 14638, Note_off_c, 4, 52, 127
1, 14640, Note_on_c, 6, 42, 127
1, 14640, Note_on_c, 10, 69, 127
1, 14790, Note_off_c, 6, 42, 127
1, 14792, Note_on_c, 10, 45, 127
1, 14792, Note_on_c, 0, 72, 127
1, 14814, Note_off_c, 10, 69, 127
1, 14942, Note_off_c, 0, 72, 127
1, 14942, Note_off_c, 10, 45, 127
1, 14944, Note_on_c, 7, 43, 127
1, 14944, Note_on_c, 12, 71, 127
1, 15094, Note_off_c, 12, 71, 127
1, 15094, Note_off_c, 7, 43, 127
1, 15096, Note_on_c, 10, 45, 127
1, 15096, Note_on_c, 0, 72, 127
1, 15246, Note_off_c, 0, 72, 127
1, 15246, Note_off_c, 10, 45, 127
1, 15248, Note_on_c, 6, 42, 127
1, 15248, Note_on_c, 10, 69, 127
1, 15398, Note_off_c, 10, 69, 127
1, 15398, Note_off_c, 6, 42, 127
1, 15400, Note_on_c, 10, 45, 127
1, 15400, Note_on_c, 0, 72, 127
1, 15550, Note_off_c, 0, 72, 127
1, 15550, Note_off_c, 10, 45, 127
1, 15552, Note_on_c, 7, 43, 127
1, 15552, Note_on_c, 12, 71, 127
1, 15702, Note_off_c, 12, 71, 127
1, 15702, Note_off_c, 7, 43, 127
1, 15704, Note_on_c, 10, 45, 127
1, 15704, Note_on_c, 0, 72, 127
1, 15854, Note_off_c, 0, 72, 127
1, 15854, Note_off_c, 10, 45, 127
1, 15856, Note_on_c, 12, 47, 127
1, 15856, Note_on_c, 2, 74, 127
1, 16006, Note_off_c, 12, 47, 127
1, 16008, Note_on_c, 2, 50, 127
1, 16008, Note_on_c, 6, 66, 127
1, 16158, Note_off_c, 6, 66, 127
1, 16158, Note_off_c, 2, 50, 127
1, 16160, Note_on_c, 0, 48, 127
1, 16160, Note_on_c, 4, 64, 127
1, 16310, Note_off_c, 4, 64, 127
1, 16310, Note_off_c, 0, 48, 127
1, 16312, Note_on_c, 2, 50, 127
1, 16312, Note_on_c, 6, 66, 127
1, 16457, Note_off_c, 2, 74, 127
1, 16462, Note_off_c, 6, 66, 127
1, 16462, Note_off_c, 2, 50, 127
1, 16464, Note_on_c, 12, 47, 127
1, 16464, Note_on_c, 2, 62, 127
1, 16614, Note_off_c, 2, 62, 127
1, 16614, Note_off_c, 12, 47, 127
1, 16616, Note_on_c, 2, 50, 127
1, 16616, Note_on_c, 6, 66, 127
1, 16766, Note_off_c, 6, 66, 127
1, 16766, Note_off_c, 2, 50, 127
1, 16768, Note_on_c, 0, 48, 127
1, 16768, Note_on_c, 4, 64, 127
1, 16918, Note_off_c, 4, 64, 127
1, 16918, Note_off_c, 0, 48, 127
1, 16920, Note_on_c, 2, 50, 127
1, 16920, Note_on_c, 6, 66, 127
1, 17070, Note_off_c, 6, 66, 127
1, 17070, Note_off_c, 2, 50, 127
1, 17072, Note_on_c, 4, 40, 127
1, 17072, Note_on_c, 7, 67, 127
1, 17222, Note_off_c, 4, 40, 127
1, 17224, Note_on_c, 7, 43, 127
1, 17224, Note_on_c, 12, 71, 127
1, 17246, Note_off_c, 7, 67, 127
1, 17374, Note_off_c, 12, 71, 127
1, 17374, Note_off_c, 7, 43, 127
1, 17376, Note_on_c, 6, 42, 127
1, 17376, Note_on_c, 10, 69, 127
1, 17526, Note_off_c, 10, 69, 127
1, 17526, Note_off_c, 6, 42, 127
1, 17528, Note_on_c, 7, 43, 127
1, 17528, Note_on_c, 12, 71, 127
1, 17678, Note_off_c, 12, 71, 127
1, 17678, Note_off_c, 7, 43, 127
1, 17680, Note_on_c, 4, 40, 127
1, 17680, Note_on_c, 7, 67, 127
1, 17830, Note_off_c, 7, 67, 127
1, 17830, Note_off_c, 4, 40, 127
1, 17832, Note_on_c, 7, 43, 127
1, 17832, Note_on_c, 12, 71, 127
1, 17982, Note_off_c, 12, 71, 127
1, 17982, Note_off_c, 7, 43, 127
1, 17984, Note_on_c, 6, 42, 127
1, 17984, Note_on_c, 10, 69, 127
1, 18134, Note_off_c, 10, 69, 127
1, 18134, Note_off_c, 6, 42, 127
1, 18136, Note_on_c, 7, 43, 127
1, 18136, Note_on_c, 12, 71, 127
1, 18286, Note_off_c, 12, 71, 127
1, 18286, Note_off_c, 7, 43, 127
1, 18288, Note_on_c, 10, 45, 127
1, 18288, Note_on_c, 0, 72, 127
1, 18438, Note_off_c, 10, 45, 127
1, 18440, Note_on_c, 0, 48, 127
1, 18440, Note_on_c, 4, 64, 127
1, 18590, Note_off_c, 4, 64, 127
1, 18590, Note_off_c, 0, 48, 127
1, 18592, Note_on_c, 12, 47, 127
1, 18592, Note_on_c, 2, 62, 127
1, 18742, Note_off_c, 2, 62, 127
1, 18742, Note_off_c, 12, 47, 127
1, 18744, Note_on_c, 0, 48, 127
1, 18744, Note_on_c, 4, 64, 127
1, 18894, Note_off_c, 4, 64, 127
1, 18894, Note_off_c, 0, 48, 127
1, 18896, Note_on_c, 10, 45, 127
1, 18896, Note_on_c, 0, 60, 127
1, 19046, Note_off_c, 0, 60, 127
1, 19046, Note_off_c, 10, 45, 127
1, 19048, Note_on_c, 0, 48, 127
1, 19048, Note_on_c, 4, 64, 127
1, 19198, Note_off_c, 4, 64, 127
1, 19198, Note_off_c, 0, 48, 127
1, 19198, Note_off_c, 0, 72, 127
1, 19200, Note_on_c, 12, 47, 127
1, 19200, Note_on_c, 2, 62, 127
1, 19350, Note_off_c, 2, 62, 127
1, 19350, Note_off_c, 12, 47, 127
1, 19352, Note_on_c, 0, 48, 127
1, 19352, Note_on_c, 4, 64, 127
1, 19502, Note_off_c, 4, 64, 127
1, 19502, Note_off_c, 0, 48, 127
1, 19504, Note_on_c, 2, 50, 127
1, 19504, Note_on_c, 6, 66, 127
1, 19654, Note_off_c, 6, 66, 127
1, 19654, Note_off_c, 2, 50, 127
1, 19656, Note_on_c, 6, 54, 127
1, 19656, Note_on_c, 10, 69, 127
1, 19806, Note_off_c, 10, 69, 127
1, 19806, Note_off_c, 6, 54, 127
1, 19808, Note_on_c, 4, 52, 127
1, 19808, Note_on_c, 7, 67, 127
1, 19958, Note_off_c, 7, 67, 127
1, 19958, Note_off_c, 4, 52, 127
1, 19960, Note_on_c, 6, 54, 127
1, 19960, Note_on_c, 10, 69, 127
1, 20110, Note_off_c, 10, 69, 127
1, 20110, Note_off_c, 6, 54, 127
1, 20112, Note_on_c, 2, 50, 127
1, 20112, Note_on_c, 6, 66, 127
1, 20262, Note_off_c, 6, 66, 127
1, 20262, Note_off_c, 2, 50, 127
1, 20264, Note_on_c, 6, 54, 127
1, 20264, Note_on_c, 10, 69, 127
1, 20414, Note_off_c, 10, 69, 127
1, 20414, Note_off_c, 6, 54, 127
1, 20416, Note_on_c, 4, 52, 127
1, 20416, Note_on_c, 7, 67, 127
1, 20566, Note_off_c, 7, 67, 127
1, 20566, Note_off_c, 4, 52, 127
1, 20568, Note_on_c, 6, 54, 127
1, 20568, Note_on_c, 10, 69, 127
1, 20718, Note_off_c, 10, 69, 127
1, 20718, Note_off_c, 6, 54, 127
1, 20720, Note_on_c, 7, 55, 127
1, 20720, Note_on_c, 12, 71, 127
1, 20870, Note_off_c, 7, 55, 127
1, 20872, Note_on_c, 10, 57, 127
1, 21022, Note_off_c, 10, 57, 127
1, 21024, Note_on_c, 12, 59, 127
1, 21024, Note_on_c, 2, 74, 127
1, 21024, Note_on_c, 7, 79, 127
1, 21174, Note_off_c, 12, 59, 127
1, 21176, Note_on_c, 0, 60, 127
1, 21321, Note_off_c, 12, 71, 127
1, 21326, Note_off_c, 0, 60, 127
1, 21328, Note_on_c, 2, 62, 127
1, 21328, Note_on_c, 10, 69, 127
1, 21478, Note_off_c, 2, 62, 127
1, 21480, Note_on_c, 0, 60, 127
1, 21625, Note_off_c, 7, 79, 127
1, 21625, Note_off_c, 2, 74, 127
1, 21630, Note_off_c, 0, 60, 127
1, 21630, Note_off_c, 10, 69, 127
1, 21632, Note_on_c, 2, 62, 127
1, 21632, Note_on_c, 6, 78, 127
1, 21632, Note_on_c, 0, 72, 127
1, 21632, Note_on_c, 2, 74, 127
1, 21784, Note_on_c, 2, 50, 127
1, 21932, Note_off_c, 2, 62, 127
1, 21934, Note_off_c, 2, 50, 127
1, 21934, Note_off_c, 2, 74, 127
1, 21934, Note_off_c, 0, 72, 127
1, 21934, Note_off_c, 6, 78, 127
1, 21936, Note_on_c, 7, 55, 127
1, 21936, Note_on_c, 7, 67, 127
1, 21936, Note_on_c, 2, 74, 127
1, 21936, Note_on_c, 12, 71, 127
1, 21936, Note_on_c, 7, 79, 127
1, 22238, Note_off_c, 7, 79, 127
1, 22238, Note_off_c, 12, 71, 127
1, 22238, Note_off_c, 2, 74, 127
1, 22240, Note_on_c, 7, 43, 127
1, 22240, Note_on_c, 12, 71, 127
1, 22379, Note_off_c, 7, 67, 127
1, 22390, Note_off_c, 12, 71, 127
1, 22392, Note_on_c, 10, 69, 127
1, 22537, Note_off_c, 7, 55, 127
1, 22542, Note_off_c, 10, 69, 127
1, 22544, Note_on_c, 7, 67, 127
1, 22683, Note_off_c, 7, 43, 127
1, 22846, Note_off_c, 7, 67, 127
1, 22848, Note_on_c, 7, 55, 127
1, 22848, Note_on_c, 2, 62, 127
1, 22848, Note_on_c, 7, 67, 127
1, 22848, Note_on_c, 12, 71, 127
1, 23150, Note_off_c, 12, 71, 127
1, 23150, Note_off_c, 7, 67, 127
1, 23150, Note_off_c, 2, 62, 127
1, 23150, Note_off_c, 7, 55, 127
1, 23152, Note_on_c, 6, 54, 127
1, 23152, Note_on_c, 2, 62, 127
1, 23152, Note_on_c, 10, 69, 127
1, 23302, Note_off_c, 6, 54, 127
1, 23304, Note_on_c, 4, 52, 127
1, 23454, Note_off_c, 4, 52, 127
1, 23456, Note_on_c, 2, 50, 127
1, 23456, Note_on_c, 2, 74, 127
1, 23606, Note_off_c, 2, 50, 127
1, 23608, Note_on_c, 4, 52, 127
1, 23753, Note_off_c, 2, 62, 127
1, 23758, Note_off_c, 4, 52, 127
1, 23760, Note_on_c, 6, 54, 127
1, 23760, Note_on_c, 2, 62, 127
1, 23910, Note_off_c, 6, 54, 127
1, 23912, Note_on_c, 4, 52, 127
1, 24057, Note_off_c, 2, 74, 127
1, 24062, Note_off_c, 4, 52, 127
1, 24062, Note_off_c, 10, 69, 127
1, 24064, Note_on_c, 6, 54, 127
1, 24064, Note_on_c, 2, 74, 127
1, 24064, Note_on_c, 10, 69, 127
1, 24214, Note_off_c, 6, 54, 127
1, 24216, Note_on_c, 2, 50, 127
1, 24366, Note_off_c, 2, 50, 127
1, 24366, Note_off_c, 10, 69, 127
1, 24366, Note_off_c, 2, 74, 127
1, 24368, Note_on_c, 7, 55, 127
1, 24368, Note_on_c, 12, 71, 127
1, 24368, Note_on_c, 7, 67, 127
1, 24518, Note_off_c, 7, 55, 127
1, 24520, Note_on_c, 2, 50, 127
1, 24670, Note_off_c, 2, 50, 127
1, 24670, Note_off_c, 7, 67, 127
1, 24670, Note_off_c, 12, 71, 127
1, 24670, Note_off_c, 2, 62, 127
1, 24672, Note_on_c, 12, 47, 127
1, 24672, Note_on_c, 7, 67, 127
1, 24822, Note_off_c, 7, 67, 127
1, 24822, Note_off_c, 12, 47, 127
1, 24824, Note_on_c, 2, 50, 127
1, 24824, Note_on_c, 10, 69, 127
1, 24974, Note_off_c, 10, 69, 127
1, 24974, Note_off_c, 2, 50, 127
1, 24976, Note_on_c, 7, 43, 127
1, 24976, Note_on_c, 12, 71, 127
1, 24976, Note_on_c, 7, 67, 127
1, 25126, Note_off_c, 7, 43, 127
1, 25128, Note_on_c, 12, 47, 127
1, 25278, Note_off_c, 12, 47, 127
1, 25278, Note_off_c, 12, 71, 127
1, 25280, Note_on_c, 10, 45, 127
1, 25280, Note_on_c, 0, 72, 127
1, 25419, Note_off_c, 7, 67, 127
1, 25430, Note_off_c, 0, 72, 127
1, 25430, Note_off_c, 10, 45, 127
1, 25432, Note_on_c, 7, 43, 127
1, 25432, Note_on_c, 12, 71, 127
1, 25582, Note_off_c, 12, 71, 127
1, 25582, Note_off_c, 7, 43, 127
1, 25584, Note_on_c, 2, 50, 127
1, 25584, Note_on_c, 6, 66, 127
1, 25584, Note_on_c, 12, 71, 127
1, 25734, Note_off_c, 2, 50, 127
1, 25736, Note_on_c, 0, 48, 127
1, 25884, Note_off_c, 12, 71, 127
1, 25886, Note_off_c, 0, 48, 127
1, 25888, Note_on_c, 2, 50, 127
1, 25888, Note_on_c, 10, 69, 127
1, 26038, Note_off_c, 2, 50, 127
1, 26040, Note_on_c, 4, 52, 127
1, 26138, Note_off_c, 6, 66, 127
1, 26141, Note_off_c, 10, 69, 127
1, 26190, Note_off_c, 4, 52, 127
1, 26192, Note_on_c, 6, 54, 127
1, 26194, Note_on_c, 2, 62, 127
1, 26342, Note_off_c, 6, 54, 127
1, 26344, Note_on_c, 4, 52, 127
1, 26494, Note_off_c, 4, 52, 127
1, 26496, Note_on_c, 6, 54, 127
1, 26637, Note_off_c, 2, 62, 127
1, 26646, Note_off_c, 6, 54, 127
1, 26648, Note_on_c, 8, 56, 127
1, 26798, Note_off_c, 8, 56, 127
1, 26800, Note_on_c, 10, 57, 127
1, 26800, Note_on_c, 0, 60, 127
1, 26800, Note_on_c, 4, 64, 127
1, 26800, Note_on_c, 10, 69, 127
1, 27102, Note_off_c, 10, 69, 127
1, 27102, Note_off_c, 0, 60, 127
1, 27102, Note_off_c, 10, 57, 127
1, 27104, Note_on_c, 10, 45, 127
1, 27104, Note_on_c, 0, 72, 127
1, 27254, Note_off_c, 0, 72, 127
1, 27256, Note_on_c, 12, 71, 127
1, 27406, Note_off_c, 12, 71, 127
1, 27408, Note_on_c, 10, 69, 127
1, 27710, Note_off_c, 10, 69, 127
1, 27710, Note_off_c, 10, 45, 127
1, 27710, Note_off_c, 4, 64, 127
1, 27712, Note_on_c, 10, 57, 127
1, 27712, Note_on_c, 4, 64, 127
1, 27712, Note_on_c, 10, 69, 127
1, 27712, Note_on_c, 0, 72, 127
1, 28014, Note_off_c, 0, 72, 127
1, 28014, Note_off_c, 10, 69, 127
1, 28014, Note_off_c, 4, 64, 127
1, 28014, Note_off_c, 10, 57, 127
1, 28016, Note_on_c, 8, 56, 127
1, 28016, Note_on_c, 4, 64, 127
1, 28016, Note_on_c, 12, 71, 127
1, 28166, Note_off_c, 8, 56, 127
1, 28168, Note_on_c, 6, 54, 127
1, 28318, Note_off_c, 6, 54, 127
1, 28320, Note_on_c, 4, 52, 127
1, 28320, Note_on_c, 4, 76, 127
1, 28470, Note_off_c, 4, 52, 127
1, 28472, Note_on_c, 6, 54, 127
1, 28617, Note_off_c, 4, 64, 127
1, 28622, Note_off_c, 6, 54, 127
1, 28624, Note_on_c, 8, 56, 127
1, 28624, Note_on_c, 4, 64, 127
1, 28774, Note_off_c, 8, 56, 127
1, 28776, Note_on_c, 6, 54, 127
1, 28921, Note_off_c, 4, 76, 127
1, 28926, Note_off_c, 6, 54, 127
1, 28926, Note_off_c, 12, 71, 127
1, 28928, Note_on_c, 8, 56, 127
1, 28928, Note_on_c, 4, 76, 127
1, 28928, Note_on_c, 12, 71, 127
1, 29078, Note_off_c, 8, 56, 127
1, 29080, Note_on_c, 4, 52, 127
1, 29230, Note_off_c, 4, 52, 127
1, 29230, Note_off_c, 12, 71, 127
1, 29230, Note_off_c, 4, 76, 127
1, 29232, Note_on_c, 10, 57, 127
1, 29232, Note_on_c, 10, 69, 127
1, 29232, Note_on_c, 0, 72, 127
1, 29382, Note_off_c, 10, 57, 127
1, 29384, Note_on_c, 4, 52, 127
1, 29534, Note_off_c, 4, 52, 127
1, 29534, Note_off_c, 0, 72, 127
1, 29534, Note_off_c, 10, 69, 127
1, 29534, Note_off_c, 4, 64, 127
1, 29536, Note_on_c, 0, 48, 127
1, 29536, Note_on_c, 10, 69, 127
1, 29686, Note_off_c, 10, 69, 127
1, 29686, Note_off_c, 0, 48, 127
1, 29688, Note_on_c, 4, 52, 127
1, 29688, Note_on_c, 12, 71, 127
1, 29838, Note_off_c, 12, 71, 127
1, 29838, Note_off_c, 4, 52, 127
1, 29840, Note_on_c, 10, 45, 127
1, 29840, Note_on_c, 10, 69, 127
1, 29840, Note_on_c, 0, 72, 127
1, 29990, Note_off_c, 10, 45, 127
1, 29992, Note_on_c, 0, 48, 127
1, 30142, Note_off_c, 0, 48, 127
1, 30142, Note_off_c, 0, 72, 127
1, 30144, Note_on_c, 12, 47, 127
1, 30144, Note_on_c, 2, 74, 127
1, 30294, Note_off_c, 2, 74, 127
1, 30294, Note_off_c, 12, 47, 127
1, 30296, Note_on_c, 10, 45, 127
1, 30296, Note_on_c, 0, 72, 127
1, 30441, Note_off_c, 10, 69, 127
1, 30446, Note_off_c, 0, 72, 127
1, 30446, Note_off_c, 10, 45, 127
1, 30448, Note_on_c, 4, 52, 127
1, 30448, Note_on_c, 8, 68, 127
1, 30448, Note_on_c, 0, 72, 127
1, 30598, Note_off_c, 4, 52, 127
1, 30600, Note_on_c, 5, 53, 127
1, 30605, Note_off_c, 0, 72, 127
1, 30607, Note_on_c, 12, 71, 127
1, 30670, Note_off_c, 12, 71, 127
1, 30678, Note_on_c, 0, 72, 127
1, 30741, Note_off_c, 0, 72, 127
1, 30749, Note_on_c, 12, 71, 127
1, 30751, Note_off_c, 5, 53, 127
1, 30753, Note_on_c, 4, 52, 127
1, 30813, Note_off_c, 12, 71, 127
1, 30821, Note_on_c, 0, 72, 127
1, 30884, Note_off_c, 0, 72, 127
1, 30892, Note_on_c, 12, 71, 127
1, 30903, Note_off_c, 4, 52, 127
1, 30905, Note_on_c, 2, 50, 127
1, 30956, Note_off_c, 12, 71, 127
1, 30964, Note_on_c, 0, 72, 127
1, 31027, Note_off_c, 0, 72, 127
1, 31035, Note_on_c, 12, 71, 127
1, 31056, Note_off_c, 2, 50, 127
1, 31056, Note_off_c, 8, 68, 127
1, 31058, Note_on_c, 0, 48, 127
1, 31208, Note_off_c, 0, 48, 127
1, 31210, Note_on_c, 12, 47, 127
1, 31336, Note_off_c, 12, 71, 127
1, 31360, Note_off_c, 12, 47, 127
1, 31362, Note_on_c, 0, 48, 127
1, 31362, Note_on_c, 4, 76, 127
1, 31362, Note_on_c, 10, 69, 127
1, 31512, Note_off_c, 0, 48, 127
1, 31514, Note_on_c, 10, 45, 127
1, 31664, Note_off_c, 10, 45, 127
1, 31664, Note_off_c, 10, 69, 127
1, 31664, Note_off_c, 4, 76, 127
1, 31666, Note_on_c, 2, 50, 127
1, 31666, Note_on_c, 5, 77, 127
1, 31816, Note_off_c, 2, 50, 127
1, 31818, Note_on_c, 5, 53, 127
1, 31818, Note_on_c, 2, 74, 127
1, 31968, Note_off_c, 2, 74, 127
1, 31968, Note_off_c, 5, 53, 127
1, 31970, Note_on_c, 4, 52, 127
1, 31970, Note_on_c, 0, 72, 127
1, 32120, Note_off_c, 0, 72, 127
1, 32120, Note_off_c, 4, 52, 127
1, 32122, Note_on_c, 5, 53, 127
1, 32122, Note_on_c, 2, 74, 127
1, 32272, Note_off_c, 2, 74, 127
1, 32272, Note_off_c, 5, 53, 127
1, 32274, Note_on_c, 2, 50, 127
1, 32274, Note_on_c, 10, 69, 127
1, 32424, Note_off_c, 10, 69, 127
1, 32424, Note_off_c, 2, 50, 127
1, 32426, Note_on_c, 5, 53, 127
1, 32426, Note_on_c, 2, 74, 127
1, 32576, Note_off_c, 2, 74, 127
1, 32576, Note_off_c, 5, 53, 127
1, 32578, Note_on_c, 4, 52, 127
1, 32578, Note_on_c, 0, 72, 127
1, 32728, Note_off_c, 0, 72, 127
1, 32728, Note_off_c, 4, 52, 127
1, 32730, Note_on_c, 5, 53, 127
1, 32730, Note_on_c, 2, 74, 127
1, 32880, Note_off_c, 2, 74, 127
1, 32880, Note_off_c, 5, 53, 127
1, 32882, Note_on_c, 7, 43, 127
1, 32882, Note_on_c, 12, 71, 127
1, 33027, Note_off_c, 5, 77, 127
1, 33033, Note_on_c, 5, 77, 127
1, 33166, Note_off_c, 12, 71, 127
1, 33183, Note_off_c, 7, 43, 127
1, 33185, Note_on_c, 7, 55, 127
1, 33185, Note_on_c, 12, 71, 127
1, 33318, Note_off_c, 5, 77, 127
1, 33337, Note_on_c, 5, 77, 127
1, 33470, Note_off_c, 12, 71, 127
1, 33487, Note_off_c, 7, 55, 127
1, 33489, Note_on_c, 7, 43, 127
1, 33489, Note_on_c, 12, 71, 127
1, 33622, Note_off_c, 5, 77, 127
1, 33641, Note_on_c, 5, 77, 127
1, 33774, Note_off_c, 12, 71, 127
1, 33791, Note_off_c, 7, 43, 127
1, 33793, Note_on_c, 7, 55, 127
1, 33793, Note_on_c, 12, 71, 127
1, 33926, Note_off_c, 5, 77, 127
1, 33943, Note_off_c, 12, 71, 127
1, 33945, Note_on_c, 5, 77, 127
1, 34095, Note_off_c, 5, 77, 127
1, 34095, Note_off_c, 7, 55, 127
1, 34097, Note_on_c, 0, 48, 127
1, 34097, Note_on_c, 4, 76, 127
1, 34247, Note_off_c, 0, 48, 127
1, 34249, Note_on_c, 4, 52, 127
1, 34249, Note_on_c, 0, 72, 127
1, 34399, Note_off_c, 0, 72, 127
1, 34399, Note_off_c, 4, 52, 127
1, 34401, Note_on_c, 2, 50, 127
1, 34401, Note_on_c, 12, 71, 127
1, 34551, Note_off_c, 12, 71, 127
1, 34551, Note_off_c, 2, 50, 127
1, 34553, Note_on_c, 4, 52, 127
1, 34553, Note_on_c, 0, 72, 127
1, 34703, Note_off_c, 0, 72, 127
1, 34703, Note_off_c, 4, 52, 127
1, 34705, Note_on_c, 0, 48, 127
1, 34705, Note_on_c, 7, 67, 127
1, 34855, Note_off_c, 7, 67, 127
1, 34855, Note_off_c, 0, 48, 127
1, 34857, Note_on_c, 4, 52, 127
1, 34857, Note_on_c, 0, 72, 127
1, 35007, Note_off_c, 0, 72, 127
1, 35007, Note_off_c, 4, 52, 127
1, 35009, Note_on_c, 2, 50, 127
1, 35009, Note_on_c, 12, 71, 127
1, 35159, Note_off_c, 12, 71, 127
1, 35159, Note_off_c, 2, 50, 127
1, 35161, Note_on_c, 4, 52, 127
1, 35161, Note_on_c, 0, 72, 127
1, 35311, Note_off_c, 0, 72, 127
1, 35311, Note_off_c, 4, 52, 127
1, 35313, Note_on_c, 5, 41, 127
1, 35313, Note_on_c, 10, 69, 127
1, 35458, Note_off_c, 4, 76, 127
1, 35464, Note_on_c, 4, 76, 127
1, 35581, Note_off_c, 10, 69, 127
1, 35614, Note_off_c, 5, 41, 127
1, 35616, Note_on_c, 5, 53, 127
1, 35616, Note_on_c, 10, 69, 127
1, 35733, Note_off_c, 4, 76, 127
1, 35768, Note_on_c, 4, 76, 127
1, 35885, Note_off_c, 10, 69, 127
1, 35918, Note_off_c, 5, 53, 127
1, 35920, Note_on_c, 5, 41, 127
1, 35920, Note_on_c, 10, 69, 127
1, 36037, Note_off_c, 4, 76, 127
1, 36072, Note_on_c, 4, 76, 127
1, 36189, Note_off_c, 10, 69, 127
1, 36222, Note_off_c, 5, 41, 127
1, 36224, Note_on_c, 5, 53, 127
1, 36224, Note_on_c, 10, 69, 127
1, 36341, Note_off_c, 4, 76, 127
1, 36374, Note_off_c, 10, 69, 127
1, 36376, Note_on_c, 4, 76, 127
1, 36526, Note_off_c, 4, 76, 127
1, 36526, Note_off_c, 5, 53, 127
1, 36528, Note_on_c, 12, 47, 127
1, 36528, Note_on_c, 2, 74, 127
1, 36678, Note_off_c, 12, 47, 127
1, 36680, Note_on_c, 2, 50, 127
1, 36680, Note_on_c, 12, 71, 127
1, 36830, Note_off_c, 12, 71, 127
1, 36830, Note_off_c, 2, 50, 127
1, 36832, Note_on_c, 0, 48, 127
1, 36832, Note_on_c, 10, 69, 127
1, 36982, Note_off_c, 10, 69, 127
1, 36982, Note_off_c, 0, 48, 127
1, 36984, Note_on_c, 2, 50, 127
1, 36984, Note_on_c, 12, 71, 127
1, 37134, Note_off_c, 12, 71, 127
1, 37134, Note_off_c, 2, 50, 127
1, 37136, Note_on_c, 12, 47, 127
1, 37136, Note_on_c, 6, 66, 127
1, 37286, Note_off_c, 12, 47, 127
1, 37288, Note_on_c, 2, 50, 127
1, 37288, Note_on_c, 12, 71, 127
1, 37364, Note_off_c, 6, 66, 127
1, 37438, Note_off_c, 12, 71, 127
1, 37438, Note_off_c, 2, 50, 127
1, 37440, Note_on_c, 0, 48, 127
1, 37440, Note_on_c, 10, 69, 127
1, 37590, Note_off_c, 10, 69, 127
1, 37590, Note_off_c, 0, 48, 127
1, 37592, Note_on_c, 2, 50, 127
1, 37592, Note_on_c, 12, 71, 127
1, 37742, Note_off_c, 12, 71, 127
1, 37742, Note_off_c, 2, 50, 127
1, 37744, Note_on_c, 4, 40, 127
1, 37744, Note_on_c, 8, 68, 127
1, 37873, Note_off_c, 2, 74, 127
1, 37895, Note_on_c, 2, 74, 127
1, 37980, Note_off_c, 8, 68, 127
1, 38045, Note_off_c, 4, 40, 127
1, 38047, Note_on_c, 4, 52, 127
1, 38047, Note_on_c, 8, 68, 127
1, 38132, Note_off_c, 2, 74, 127
1, 38198, Note_on_c, 2, 74, 127
1, 38283, Note_off_c, 8, 68, 127
1, 38348, Note_off_c, 4, 52, 127
1, 38350, Note_on_c, 4, 40, 127
1, 38350, Note_on_c, 8, 68, 127
1, 38435, Note_off_c, 2, 74, 127
1, 38501, Note_on_c, 2, 74, 127
1, 38586, Note_off_c, 8, 68, 127
1, 38651, Note_off_c, 4, 40, 127
1, 38653, Note_on_c, 4, 52, 127
1, 38653, Note_on_c, 8, 68, 127
1, 38738, Note_off_c, 2, 74, 127
1, 38803, Note_off_c, 8, 68, 127
1, 38805, Note_on_c, 2, 74, 127
1, 38955, Note_off_c, 2, 74, 127
1, 38955, Note_off_c, 4, 52, 127
1, 38957, Note_on_c, 10, 45, 127
1, 38957, Note_on_c, 0, 72, 127
1, 39107, Note_off_c, 10, 45, 127
1, 39109, Note_on_c, 0, 48, 127
1, 39109, Note_on_c, 10, 69, 127
1, 39259, Note_off_c, 10, 69, 127
1, 39259, Note_off_c, 0, 48, 127
1, 39261, Note_on_c, 12, 47, 127
1, 39261, Note_on_c, 7, 67, 127
1, 39411, Note_off_c, 7, 67, 127
1, 39411, Note_off_c, 12, 47, 127
1, 39413, Note_on_c, 0, 48, 127
1, 39413, Note_on_c, 10, 69, 127
1, 39563, Note_off_c, 10, 69, 127
1, 39563, Note_off_c, 0, 48, 127
1, 39565, Note_on_c, 10, 45, 127
1, 39565, Note_on_c, 4, 64, 127
1, 39715, Note_off_c, 4, 64, 127
1, 39715, Note_off_c, 10, 45, 127
1, 39717, Note_on_c, 0, 48, 127
1, 39717, Note_on_c, 10, 69, 127
1, 39867, Note_off_c, 10, 69, 127
1, 39867, Note_off_c, 0, 48, 127
1, 39869, Note_on_c, 12, 47, 127
1, 39869, Note_on_c, 7, 67, 127
1, 40019, Note_off_c, 7, 67, 127
1, 40019, Note_off_c, 12, 47, 127
1, 40021, Note_on_c, 0, 48, 127
1, 40021, Note_on_c, 10, 69, 127
1, 40171, Note_off_c, 10, 69, 127
1, 40171, Note_off_c, 0, 48, 127
1, 40173, Note_on_c, 2, 38, 127
1, 40173, Note_on_c, 6, 66, 127
1, 40224, Note_off_c, 0, 72, 127
1, 40325, Note_on_c, 0, 72, 127
1, 40363, Note_off_c, 6, 66, 127
1, 40475, Note_off_c, 2, 38, 127
1, 40477, Note_on_c, 2, 50, 127
1, 40477, Note_on_c, 6, 66, 127
1, 40515, Note_off_c, 0, 72, 127
1, 40629, Note_on_c, 0, 72, 127
1, 40667, Note_off_c, 6, 66, 127
1, 40779, Note_off_c, 2, 50, 127
1, 40781, Note_on_c, 2, 38, 127
1, 40781, Note_on_c, 6, 66, 127
1, 40819, Note_off_c, 0, 72, 127
1, 40933, Note_on_c, 0, 72, 127
1, 40971, Note_off_c, 6, 66, 127
1, 41083, Note_off_c, 2, 38, 127
1, 41085, Note_on_c, 2, 50, 127
1, 41085, Note_on_c, 6, 66, 127
1, 41123, Note_off_c, 0, 72, 127
1, 41235, Note_off_c, 6, 66, 127
1, 41237, Note_on_c, 0, 72, 127
1, 41387, Note_off_c, 0, 72, 127
1, 41387, Note_off_c, 2, 50, 127
1, 41389, Note_on_c, 7, 43, 127
1, 41389, Note_on_c, 12, 71, 127
1, 41539, Note_off_c, 7, 43, 127
1, 41541, Note_on_c, 12, 47, 127
1, 41541, Note_on_c, 7, 79, 127
1, 41617, Note_off_c, 12, 71, 127
1, 41691, Note_off_c, 7, 79, 127
1, 41691, Note_off_c, 12, 47, 127
1, 41693, Note_on_c, 10, 45, 127
1, 41693, Note_on_c, 6, 78, 127
1, 41841, Note_on_c, 7, 79, 127
1, 41843, Note_off_c, 6, 78, 127
1, 41843, Note_off_c, 10, 45, 127
1, 41845, Note_on_c, 0, 48, 127
1, 41916, Note_off_c, 7, 79, 127
1, 41919, Note_on_c, 10, 81, 127
1, 41993, Note_off_c, 10, 81, 127
1, 41995, Note_off_c, 0, 48, 127
1, 41997, Note_on_c, 12, 47, 127
1, 41997, Note_on_c, 7, 79, 127
1, 42145, Note_on_c, 10, 81, 127
1, 42147, Note_off_c, 7, 79, 127
1, 42147, Note_off_c, 12, 47, 127
1, 42149, Note_on_c, 2, 50, 127
1, 42220, Note_off_c, 10, 81, 127
1, 42223, Note_on_c, 12, 83, 127
1, 42297, Note_off_c, 12, 83, 127
1, 42299, Note_off_c, 2, 50, 127
1, 42301, Note_on_c, 1, 49, 127
1, 42301, Note_on_c, 10, 81, 127
1, 42451, Note_off_c, 10, 81, 127
1, 42451, Note_off_c, 1, 49, 127
1, 42453, Note_on_c, 4, 52, 127
1, 42453, Note_on_c, 7, 79, 127
1, 42603, Note_off_c, 7, 79, 127
1, 42603, Note_off_c, 4, 52, 127
1, 42605, Note_on_c, 3, 51, 127
1, 42605, Note_on_c, 6, 78, 127
1, 42755, Note_off_c, 6, 78, 127
1, 42755, Note_off_c, 3, 51, 127
1, 42757, Note_on_c, 7, 55, 127
1, 42757, Note_on_c, 4, 76, 127
1, 42907, Note_off_c, 4, 76, 127
1, 42907, Note_off_c, 7, 55, 127
1, 42909, Note_on_c, 6, 54, 127
1, 42909, Note_on_c, 3, 75, 127
1, 43059, Note_off_c, 3, 75, 127
1, 43059, Note_off_c, 6, 54, 127
1, 43061, Note_on_c, 4, 52, 127
1, 43061, Note_on_c, 4, 76, 127
1, 43211, Note_off_c, 4, 76, 127
1, 43211, Note_off_c, 4, 52, 127
1, 43213, Note_on_c, 12, 59, 127
1, 43213, Note_on_c, 12, 71, 127
1, 43515, Note_off_c, 12, 71, 127
1, 43517, Note_on_c, 12, 47, 127
1, 43517, Note_on_c, 3, 75, 127
1, 43517, Note_on_c, 10, 69, 127
1, 43819, Note_off_c, 10, 69, 127
1, 43819, Note_off_c, 3, 75, 127
1, 43819, Note_off_c, 12, 47, 127
1, 43821, Note_on_c, 4, 52, 127
1, 43821, Note_on_c, 4, 76, 127
1, 43821, Note_on_c, 7, 67, 127
1, 44123, Note_off_c, 4, 76, 127
1, 44123, Note_off_c, 12, 59, 127
1, 44125, Note_on_c, 4, 40, 127
1, 44125, Note_on_c, 7, 79, 127
1, 44264, Note_off_c, 7, 67, 127
1, 44275, Note_off_c, 7, 79, 127
1, 44277, Note_on_c, 6, 78, 127
1, 44422, Note_off_c, 4, 52, 127
1, 44427, Note_off_c, 6, 78, 127
1, 44429, Note_on_c, 4, 76, 127
1, 44568, Note_off_c, 4, 40, 127
1, 44731, Note_off_c, 4, 76, 127
1, 44733, Note_on_c, 4, 64, 127
1, 44733, Note_on_c, 12, 71, 127
1, 44733, Note_on_c, 4, 76, 127
1, 44733, Note_on_c, 7, 79, 127
1, 45035, Note_off_c, 7, 79, 127
1, 45035, Note_off_c, 4, 76, 127
1, 45035, Note_off_c, 12, 71, 127
1, 45035, Note_off_c, 4, 64, 127
1, 45037, Note_on_c, 3, 63, 127
1, 45037, Note_on_c, 12, 71, 127
1, 45037, Note_on_c, 6, 78, 127
1, 45187, Note_off_c, 3, 63, 127
1, 45189, Note_on_c, 1, 61, 127
1, 45339, Note_off_c, 1, 61, 127
1, 45339, Note_off_c, 6, 78, 127
1, 45341, Note_on_c, 12, 59, 127
1, 45341, Note_on_c, 12, 83, 127
1, 45491, Note_off_c, 12, 59, 127
1, 45493, Note_on_c, 1, 61, 127
1, 45638, Note_off_c, 12, 71, 127
1, 45643, Note_off_c, 1, 61, 127
1, 45645, Note_on_c, 3, 63, 127
1, 45645, Note_on_c, 12, 71, 127
1, 45795, Note_off_c, 3, 63, 127
1, 45797, Note_on_c, 1, 61, 127
1, 45942, Note_off_c, 12, 83, 127
1, 45947, Note_off_c, 1, 61, 127
1, 45949, Note_on_c, 3, 63, 127
1, 45949, Note_on_c, 6, 78, 127
1, 45949, Note_on_c, 12, 83, 127
1, 46099, Note_off_c, 3, 63, 127
1, 46101, Note_on_c, 12, 59, 127
1, 46251, Note_off_c, 12, 59, 127
1, 46251, Note_off_c, 12, 83, 127
1, 46251, Note_off_c, 6, 78, 127
1, 46253, Note_on_c, 4, 64, 127
1, 46253, Note_on_c, 7, 79, 127
1, 46253, Note_on_c, 4, 76, 127
1, 46403, Note_off_c, 4, 64, 127
1, 46405, Note_on_c, 12, 59, 127
1, 46555, Note_off_c, 12, 59, 127
1, 46555, Note_off_c, 4, 76, 127
1, 46555, Note_off_c, 7, 79, 127
1, 46555, Note_off_c, 12, 71, 127
1, 46557, Note_on_c, 7, 55, 127
1, 46557, Note_on_c, 4, 76, 127
1, 46707, Note_off_c, 4, 76, 127
1, 46707, Note_off_c, 7, 55, 127
1, 46709, Note_on_c, 12, 59, 127
1, 46709, Note_on_c, 6, 78, 127
1, 46859, Note_off_c, 6, 78, 127
1, 46859, Note_off_c, 12, 59, 127
1, 46861, Note_on_c, 4, 52, 127
1, 46861, Note_on_c, 4, 76, 127
1, 46861, Note_on_c, 7, 79, 127
1, 47011, Note_off_c, 4, 52, 127
1, 47013, Note_on_c, 7, 55, 127
1, 47163, Note_off_c, 7, 55, 127
1, 47163, Note_off_c, 7, 79, 127
1, 47165, Note_on_c, 6, 54, 127
1, 47165, Note_on_c, 10, 81, 127
1, 47315, Note_off_c, 10, 81, 127
1, 47315, Note_off_c, 6, 54, 127
1, 47317, Note_on_c, 4, 52, 127
1, 47317, Note_on_c, 7, 79, 127
1, 47462, Note_off_c, 4, 76, 127
1, 47467, Note_off_c, 7, 79, 127
1, 47467, Note_off_c, 4, 52, 127
1, 47469, Note_on_c, 12, 59, 127
1, 47469, Note_on_c, 3, 75, 127
1, 47469, Note_on_c, 7, 79, 127
1, 47619, Note_off_c, 12, 59, 127
1, 47621, Note_on_c, 6, 54, 127
1, 47771, Note_off_c, 6, 54, 127
1, 47771, Note_off_c, 7, 79, 127
1, 47773, Note_on_c, 3, 51, 127
1, 47773, Note_on_c, 6, 78, 127
1, 47923, Note_off_c, 3, 51, 127
1, 47925, Note_on_c, 1, 49, 127
1, 48070, Note_off_c, 3, 75, 127
1, 48075, Note_off_c, 1, 49, 127
1, 48075, Note_off_c, 6, 78, 127
1, 48077, Note_on_c, 3, 51, 127
1, 48077, Note_on_c, 12, 71, 127
1, 48227, Note_off_c, 3, 51, 127
1, 48229, Note_on_c, 1, 49, 127
1, 48379, Note_off_c, 1, 49, 127
1, 48381, Note_on_c, 3, 51, 127
1, 48381, Note_on_c, 6, 78, 127
1, 48381, Note_on_c, 12, 83, 127
1, 48531, Note_off_c, 3, 51, 127
1, 48533, Note_on_c, 12, 47, 127
1, 48678, Note_off_c, 12, 71, 127
1, 48683, Note_off_c, 12, 47, 127
1, 48683, Note_off_c, 12, 83, 127
1, 48683, Note_off_c, 6, 78, 127
1, 48685, Note_on_c, 4, 52, 127
1, 48685, Note_on_c, 7, 79, 127
1, 48835, Note_off_c, 4, 52, 127
1, 48837, Note_on_c, 7, 55, 127
1, 48837, Note_on_c, 4, 76, 127
1, 48987, Note_off_c, 4, 76, 127
1, 48987, Note_off_c, 7, 55, 127
1, 48989, Note_on_c, 6, 54, 127
1, 48989, Note_on_c, 2, 74, 127
1, 49139, Note_off_c, 2, 74, 127
1, 49139, Note_off_c, 6, 54, 127
1, 49141, Note_on_c, 7, 55, 127
1, 49141, Note_on_c, 4, 76, 127
1, 49291, Note_off_c, 4, 76, 127
1, 49291, Note_off_c, 7, 55, 127
1, 49293, Note_on_c, 4, 52, 127
1, 49293, Note_on_c, 12, 71, 127
1, 49443, Note_off_c, 12, 71, 127
1, 49443, Note_off_c, 4, 52, 127
1, 49445, Note_on_c, 7, 55, 127
1, 49445, Note_on_c, 4, 76, 127
1, 49595, Note_off_c, 4, 76, 127
1, 49595, Note_off_c, 7, 55, 127
1, 49597, Note_on_c, 6, 54, 127
1, 49597, Note_on_c, 2, 74, 127
1, 49747, Note_off_c, 2, 74, 127
1, 49747, Note_off_c, 6, 54, 127
1, 49749, Note_on_c, 7, 55, 127
1, 49749, Note_on_c, 4, 76, 127
1, 49899, Note_off_c, 4, 76, 127
1, 49899, Note_off_c, 7, 55, 127
1, 49899, Note_off_c, 7, 79, 127
1, 49901, Note_on_c, 10, 57, 127
1, 49901, Note_on_c, 0, 72, 127
1, 50051, Note_off_c, 10, 57, 127
1, 50053, Note_on_c, 0, 60, 127
1, 50053, Note_on_c, 10, 81, 127
1, 50203, Note_off_c, 10, 81, 127
1, 50203, Note_off_c, 0, 60, 127
1, 50205, Note_on_c, 12, 59, 127
1, 50205, Note_on_c, 7, 79, 127
1, 50355, Note_off_c, 7, 79, 127
1, 50355, Note_off_c, 12, 59, 127
1, 50357, Note_on_c, 0, 60, 127
1, 50357, Note_on_c, 10, 81, 127
1, 50507, Note_off_c, 10, 81, 127
1, 50507, Note_off_c, 0, 60, 127
1, 50509, Note_on_c, 10, 57, 127
1, 50509, Note_on_c, 4, 76, 127
1, 50659, Note_off_c, 4, 76, 127
1, 50659, Note_off_c, 10, 57, 127
1, 50661, Note_on_c, 0, 60, 127
1, 50661, Note_on_c, 10, 81, 127
1, 50811, Note_off_c, 10, 81, 127
1, 50811, Note_off_c, 0, 60, 127
1, 50813, Note_on_c, 12, 59, 127
1, 50813, Note_on_c, 7, 79, 127
1, 50963, Note_off_c, 7, 79, 127
1, 50963, Note_off_c, 12, 59, 127
1, 50965, Note_on_c, 0, 60, 127
1, 50965, Note_on_c, 10, 81, 127
1, 51115, Note_off_c, 10, 81, 127
1, 51115, Note_off_c, 0, 60, 127
1, 51115, Note_off_c, 0, 72, 127
1, 51117, Note_on_c, 2, 50, 127
1, 51117, Note_on_c, 5, 77, 127
1, 51267, Note_off_c, 2, 50, 127
1, 51269, Note_on_c, 5, 53, 127
1, 51269, Note_on_c, 2, 74, 127
1, 51419, Note_off_c, 2, 74, 127
1, 51419, Note_off_c, 5, 53, 127
1, 51421, Note_on_c, 4, 52, 127
1, 51421, Note_on_c, 0, 72, 127
1, 51571, Note_off_c, 0, 72, 127
1, 51571, Note_off_c, 4, 52, 127
1, 51573, Note_on_c, 5, 53, 127
1, 51573, Note_on_c, 2, 74, 127
1, 51723, Note_off_c, 2, 74, 127
1, 51723, Note_off_c, 5, 53, 127
1, 51725, Note_on_c, 2, 50, 127
1, 51725, Note_on_c, 10, 69, 127
1, 51875, Note_off_c, 10, 69, 127
1, 51875, Note_off_c, 2, 50, 127
1, 51877, Note_on_c, 5, 53, 127
1, 51877, Note_on_c, 2, 74, 127
1, 52027, Note_off_c, 2, 74, 127
1, 52027, Note_off_c, 5, 53, 127
1, 52029, Note_on_c, 4, 52, 127
1, 52029, Note_on_c, 0, 72, 127
1, 52179, Note_off_c, 0, 72, 127
1, 52179, Note_off_c, 4, 52, 127
1, 52181, Note_on_c, 5, 53, 127
1, 52181, Note_on_c, 2, 74, 127
1, 52331, Note_off_c, 2, 74, 127
1, 52331, Note_off_c, 5, 53, 127
1, 52331, Note_off_c, 5, 77, 127
1, 52333, Note_on_c, 7, 55, 127
1, 52333, Note_on_c, 11, 70, 127
1, 52483, Note_off_c, 7, 55, 127
1, 52485, Note_on_c, 11, 58, 127
1, 52485, Note_on_c, 7, 79, 127
1, 52635, Note_off_c, 7, 79, 127
1, 52635, Note_off_c, 11, 58, 127
1, 52637, Note_on_c, 10, 57, 127
1, 52637, Note_on_c, 5, 77, 127
1, 52787, Note_off_c, 5, 77, 127
1, 52787, Note_off_c, 10, 57, 127
1, 52789, Note_on_c, 11, 58, 127
1, 52789, Note_on_c, 7, 79, 127
1, 52939, Note_off_c, 7, 79, 127
1, 52939, Note_off_c, 11, 58, 127
1, 52941, Note_on_c, 7, 55, 127
1, 52941, Note_on_c, 2, 74, 127
1, 53091, Note_off_c, 2, 74, 127
1, 53091, Note_off_c, 7, 55, 127
1, 53093, Note_on_c, 11, 58, 127
1, 53093, Note_on_c, 7, 79, 127
1, 53243, Note_off_c, 7, 79, 127
1, 53243, Note_off_c, 11, 58, 127
1, 53245, Note_on_c, 10, 57, 127
1, 53245, Note_on_c, 5, 77, 127
1, 53395, Note_off_c, 5, 77, 127
1, 53395, Note_off_c, 10, 57, 127
1, 53397, Note_on_c, 11, 58, 127
1, 53397, Note_on_c, 7, 79, 127
1, 53547, Note_off_c, 7, 79, 127
1, 53547, Note_off_c, 11, 58, 127
1, 53547, Note_off_c, 11, 70, 127
1, 53549, Note_on_c, 0, 48, 127
1, 53549, Note_on_c, 4, 76, 127
1, 53699, Note_off_c, 0, 48, 127
1, 53701, Note_on_c, 4, 52, 127
1, 53701, Note_on_c, 0, 72, 127
1, 53851, Note_off_c, 0, 72, 127
1, 53851, Note_off_c, 4, 52, 127
1, 53853, Note_on_c, 2, 50, 127
1, 53853, Note_on_c, 11, 70, 127
1, 54003, Note_off_c, 11, 70, 127
1, 54003, Note_off_c, 2, 50, 127
1, 54005, Note_on_c, 4, 52, 127
1, 54005, Note_on_c, 0, 72, 127
1, 54155, Note_off_c, 0, 72, 127
1, 54155, Note_off_c, 4, 52, 127
1, 54157, Note_on_c, 0, 48, 127
1, 54157, Note_on_c, 7, 67, 127
1, 54307, Note_off_c, 7, 67, 127
1, 54307, Note_off_c, 0, 48, 127
1, 54309, Note_on_c, 4, 52, 127
1, 54309, Note_on_c, 0, 72, 127
1, 54459, Note_off_c, 0, 72, 127
1, 54459, Note_off_c, 4, 52, 127
1, 54461, Note_on_c, 2, 50, 127
1, 54461, Note_on_c, 11, 70, 127
1, 54611, Note_off_c, 11, 70, 127
1, 54611, Note_off_c, 2, 50, 127
1, 54613, Note_on_c, 4, 52, 127
1, 54613, Note_on_c, 0, 72, 127
1, 54763, Note_off_c, 0, 72, 127
1, 54763, Note_off_c, 4, 52, 127
1, 54763, Note_off_c, 4, 76, 127
1, 54765, Note_on_c, 5, 53, 127
1, 54765, Note_on_c, 10, 69, 127
1, 54915, Note_off_c, 5, 53, 127
1, 54917, Note_on_c, 10, 57, 127
1, 54917, Note_on_c, 5, 77, 127
1, 55067, Note_off_c, 5, 77, 127
1, 55067, Note_off_c, 10, 57, 127
1, 55069, Note_on_c, 7, 55, 127
1, 55069, Note_on_c, 4, 76, 127
1, 55219, Note_off_c, 4, 76, 127
1, 55219, Note_off_c, 7, 55, 127
1, 55221, Note_on_c, 10, 57, 127
1, 55221, Note_on_c, 5, 77, 127
1, 55371, Note_off_c, 5, 77, 127
1, 55371, Note_off_c, 10, 57, 127
1, 55373, Note_on_c, 5, 53, 127
1, 55373, Note_on_c, 0, 72, 127
1, 55523, Note_off_c, 0, 72, 127
1, 55523, Note_off_c, 5, 53, 127
1, 55525, Note_on_c, 10, 57, 127
1, 55525, Note_on_c, 5, 77, 127
1, 55675, Note_off_c, 5, 77, 127
1, 55675, Note_off_c, 10, 57, 127
1, 55677, Note_on_c, 7, 55, 127
1, 55677, Note_on_c, 4, 76, 127
1, 55827, Note_off_c, 4, 76, 127
1, 55827, Note_off_c, 7, 55, 127
1, 55829, Note_on_c, 10, 57, 127
1, 55829, Note_on_c, 5, 77, 127
1, 55979, Note_off_c, 5, 77, 127
1, 55979, Note_off_c, 10, 57, 127
1, 55979, Note_off_c, 10, 69, 127
1, 55981, Note_on_c, 11, 46, 127
1, 55981, Note_on_c, 2, 74, 127
1, 56131, Note_off_c, 11, 46, 127
1, 56133, Note_on_c, 2, 50, 127
1, 56133, Note_on_c, 11, 70, 127
1, 56283, Note_off_c, 11, 70, 127
1, 56283, Note_off_c, 2, 50, 127
1, 56285, Note_on_c, 0, 48, 127
1, 56285, Note_on_c, 10, 69, 127
1, 56435, Note_off_c, 10, 69, 127
1, 56435, Note_off_c, 0, 48, 127
1, 56437, Note_on_c, 2, 50, 127
1, 56437, Note_on_c, 11, 70, 127
1, 56587, Note_off_c, 11, 70, 127
1, 56587, Note_off_c, 2, 50, 127
1, 56589, Note_on_c, 11, 46, 127
1, 56589, Note_on_c, 5, 65, 127
1, 56739, Note_off_c, 5, 65, 127
1, 56739, Note_off_c, 11, 46, 127
1, 56741, Note_on_c, 2, 50, 127
1, 56741, Note_on_c, 11, 70, 127
1, 56891, Note_off_c, 11, 70, 127
1, 56891, Note_off_c, 2, 50, 127
1, 56893, Note_on_c, 0, 48, 127
1, 56893, Note_on_c, 10, 69, 127
1, 57043, Note_off_c, 10, 69, 127
1, 57043, Note_off_c, 0, 48, 127
1, 57045, Note_on_c, 2, 50, 127
1, 57045, Note_on_c, 11, 70, 127
1, 57195, Note_off_c, 11, 70, 127
1, 57195, Note_off_c, 2, 50, 127
1, 57195, Note_off_c, 2, 74, 127
1, 57197, Note_on_c, 4, 52, 127
1, 57197, Note_on_c, 7, 67, 127
1, 57347, Note_off_c, 4, 52, 127
1, 57349, Note_on_c, 7, 55, 127
1, 57349, Note_on_c, 4, 76, 127
1, 57499, Note_off_c, 4, 76, 127
1, 57499, Note_off_c, 7, 55, 127
1, 57501, Note_on_c, 5, 53, 127
1, 57501, Note_on_c, 2, 74, 127
1, 57651, Note_off_c, 2, 74, 127
1, 57651, Note_off_c, 5, 53, 127
1, 57653, Note_on_c, 7, 55, 127
1, 57653, Note_on_c, 4, 76, 127
1, 57803, Note_off_c, 4, 76, 127
1, 57803, Note_off_c, 7, 55, 127
1, 57805, Note_on_c, 4, 52, 127
1, 57805, Note_on_c, 12, 71, 127
1, 57955, Note_off_c, 12, 71, 127
1, 57955, Note_off_c, 4, 52, 127
1, 57957, Note_on_c, 7, 55, 127
1, 57957, Note_on_c, 4, 76, 127
1, 58107, Note_off_c, 4, 76, 127
1, 58107, Note_off_c, 7, 55, 127
1, 58109, Note_on_c, 5, 53, 127
1, 58109, Note_on_c, 2, 74, 127
1, 58259, Note_off_c, 2, 74, 127
1, 58259, Note_off_c, 5, 53, 127
1, 58261, Note_on_c, 7, 55, 127
1, 58261, Note_on_c, 4, 76, 127
1, 58411, Note_off_c, 4, 76, 127
1, 58411, Note_off_c, 7, 55, 127
1, 58411, Note_off_c, 7, 67, 127
1, 58413, Note_on_c, 10, 45, 127
1, 58413, Note_on_c, 1, 73, 127
1, 58563, Note_off_c, 10, 45, 127
1, 58565, Note_on_c, 1, 49, 127
1, 58565, Note_on_c, 10, 69, 127
1, 58715, Note_off_c, 10, 69, 127
1, 58715, Note_off_c, 1, 49, 127
1, 58717, Note_on_c, 12, 47, 127
1, 58717, Note_on_c, 7, 67, 127
1, 58867, Note_off_c, 7, 67, 127
1, 58867, Note_off_c, 12, 47, 127
1, 58869, Note_on_c, 1, 49, 127
1, 58869, Note_on_c, 10, 69, 127
1, 59019, Note_off_c, 10, 69, 127
1, 59019, Note_off_c, 1, 49, 127
1, 59021, Note_on_c, 10, 45, 127
1, 59021, Note_on_c, 4, 64, 127
1, 59171, Note_off_c, 4, 64, 127
1, 59171, Note_off_c, 10, 45, 127
1, 59173, Note_on_c, 1, 49, 127
1, 59173, Note_on_c, 10, 69, 127
1, 59323, Note_off_c, 10, 69, 127
1, 59323, Note_off_c, 1, 49, 127
1, 59325, Note_on_c, 12, 47, 127
1, 59325, Note_on_c, 7, 67, 127
1, 59473, Note_off_c, 1, 73, 127
1, 59475, Note_off_c, 7, 67, 127
1, 59475, Note_off_c, 12, 47, 127
1, 59477, Note_on_c, 1, 49, 127
1, 59477, Note_on_c, 10, 69, 127
1, 59627, Note_off_c, 10, 69, 127
1, 59627, Note_off_c, 1, 49, 127
1, 59629, Note_on_c, 2, 50, 127
1, 59629, Note_on_c, 5, 65, 127
1, 59779, Note_off_c, 2, 50, 127
1, 59781, Note_on_c, 5, 53, 127
1, 59781, Note_on_c, 2, 74, 127
1, 59931, Note_off_c, 2, 74, 127
1, 59931, Note_off_c, 5, 53, 127
1, 59933, Note_on_c, 4, 52, 127
1, 59933, Note_on_c, 1, 73, 127
1, 60083, Note_off_c, 1, 73, 127
1, 60083, Note_off_c, 4, 52, 127
1, 60085, Note_on_c, 5, 53, 127
1, 60085, Note_on_c, 2, 74, 127
1, 60235, Note_off_c, 2, 74, 127
1, 60235, Note_off_c, 5, 53, 127
1, 60237, Note_on_c, 2, 50, 127
1, 60237, Note_on_c, 10, 69, 127
1, 60387, Note_off_c, 10, 69, 127
1, 60387, Note_off_c, 2, 50, 127
1, 60389, Note_on_c, 5, 53, 127
1, 60389, Note_on_c, 2, 74, 127
1, 60539, Note_off_c, 2, 74, 127
1, 60539, Note_off_c, 5, 53, 127
1, 60539, Note_off_c, 5, 65, 127
1, 60541, Note_on_c, 4, 52, 127
1, 60541, Note_on_c, 0, 72, 127
1, 60691, Note_off_c, 0, 72, 127
1, 60691, Note_off_c, 4, 52, 127
1, 60693, Note_on_c, 5, 53, 127
1, 60693, Note_on_c, 2, 74, 127
1, 60843, Note_off_c, 2, 74, 127
1, 60843, Note_off_c, 5, 53, 127
1, 60845, Note_on_c, 7, 43, 127
1, 60845, Note_on_c, 11, 70, 127
1, 60997, Note_on_c, 10, 45, 127
1, 60997, Note_on_c, 10, 69, 127
1, 61011, Note_off_c, 11, 70, 127
1, 61011, Note_off_c, 7, 43, 127
1, 61148, Note_on_c, 11, 46, 127
1, 61148, Note_on_c, 7, 67, 127
1, 61162, Note_off_c, 10, 69, 127
1, 61162, Note_off_c, 10, 45, 127
1, 61299, Note_on_c, 0, 48, 127
1, 61299, Note_on_c, 5, 65, 127
1, 61313, Note_off_c, 7, 67, 127
1, 61313, Note_off_c, 11, 46, 127
1, 61450, Note_on_c, 2, 50, 127
1, 61450, Note_on_c, 4, 64, 127
1, 61464, Note_off_c, 5, 65, 127
1, 61464, Note_off_c, 0, 48, 127
1, 61601, Note_on_c, 4, 52, 127
1, 61601, Note_on_c, 2, 62, 127
1, 61615, Note_off_c, 4, 64, 127
1, 61615, Note_off_c, 2, 50, 127
1, 61752, Note_on_c, 5, 53, 127
1, 61752, Note_on_c, 1, 61, 127
1, 61766, Note_off_c, 2, 62, 127
1, 61766, Note_off_c, 4, 52, 127
1, 61903, Note_on_c, 7, 55, 127
1, 61903, Note_on_c, 12, 59, 127
1, 61917, Note_off_c, 1, 61, 127
1, 61917, Note_off_c, 5, 53, 127
1, 62054, Note_on_c, 10, 45, 127
1, 62054, Note_on_c, 1, 61, 127
1, 62068, Note_off_c, 12, 59, 127
1, 62068, Note_off_c, 7, 55, 127
1, 62205, Note_on_c, 5, 53, 127
1, 62205, Note_on_c, 10, 57, 127
1, 62219, Note_off_c, 1, 61, 127
1, 62219, Note_off_c, 10, 45, 127
1, 62356, Note_on_c, 4, 52, 127
1, 62356, Note_on_c, 12, 59, 127
1, 62370, Note_off_c, 10, 57, 127
1, 62370, Note_off_c, 5, 53, 127
1, 62507, Note_on_c, 2, 50, 127
1, 62507, Note_on_c, 1, 61, 127
1, 62521, Note_off_c, 12, 59, 127
1, 62521, Note_off_c, 4, 52, 127
1, 62658, Note_on_c, 1, 49, 127
1, 62658, Note_on_c, 2, 62, 127
1, 62672, Note_off_c, 1, 61, 127
1, 62672, Note_off_c, 2, 50, 127
1, 62809, Note_on_c, 12, 47, 127
1, 62809, Note_on_c, 4, 64, 127
1, 62823, Note_off_c, 2, 62, 127
1, 62823, Note_off_c, 1, 49, 127
1, 62960, Note_on_c, 10, 45, 127
1, 62960, Note_on_c, 5, 65, 127
1, 62974, Note_off_c, 4, 64, 127
1, 62974, Note_off_c, 12, 47, 127
1, 63111, Note_on_c, 7, 43, 127
1, 63111, Note_on_c, 7, 67, 127
1, 63125, Note_off_c, 5, 65, 127
1, 63125, Note_off_c, 10, 45, 127
1, 63262, Note_on_c, 5, 41, 127
1, 63262, Note_on_c, 10, 69, 127
1, 63276, Note_off_c, 7, 67, 127
1, 63276, Note_off_c, 7, 43, 127
1, 63413, Note_on_c, 7, 43, 127
1, 63413, Note_on_c, 7, 67, 127
1, 63427, Note_off_c, 10, 69, 127
1, 63427, Note_off_c, 5, 41, 127
1, 63564, Note_on_c, 10, 45, 127
1, 63564, Note_on_c, 5, 65, 127
1, 63578, Note_off_c, 7, 67, 127
1, 63578, Note_off_c, 7, 43, 127
1, 63715, Note_on_c, 11, 46, 127
1, 63715, Note_on_c, 4, 64, 127
1, 63729, Note_off_c, 5, 65, 127
1, 63729, Note_off_c, 10, 45, 127
1, 63866, Note_on_c, 0, 48, 127
1, 63866, Note_on_c, 2, 62, 127
1, 63880, Note_off_c, 4, 64, 127
1, 63880, Note_off_c, 11, 46, 127
1, 64017, Note_on_c, 2, 50, 127
1, 64017, Note_on_c, 0, 60, 127
1, 64031, Note_off_c, 2, 62, 127
1, 64031, Note_off_c, 0, 48, 127
1, 64168, Note_on_c, 4, 52, 127
1, 64168, Note_on_c, 11, 58, 127
1, 64182, Note_off_c, 0, 60, 127
1, 64182, Note_off_c, 2, 50, 127
1, 64319, Note_on_c, 5, 53, 127
1, 64319, Note_on_c, 10, 57, 127
1, 64333, Note_off_c, 11, 58, 127
1, 64333, Note_off_c, 4, 52, 127
1, 64470, Note_on_c, 7, 43, 127
1, 64470, Note_on_c, 11, 58, 127
1, 64484, Note_off_c, 10, 57, 127
1, 64484, Note_off_c, 5, 53, 127
1, 64621, Note_on_c, 4, 52, 127
1, 64621, Note_on_c, 7, 55, 127
1, 64635, Note_off_c, 11, 58, 127
1, 64635, Note_off_c, 7, 43, 127
1, 64772, Note_on_c, 2, 50, 127
1, 64772, Note_on_c, 10, 57, 127
1, 64786, Note_off_c, 7, 55, 127
1, 64786, Note_off_c, 4, 52, 127
1, 64923, Note_on_c, 0, 48, 127
1, 64923, Note_on_c, 11, 58, 127
1, 64937, Note_off_c, 10, 57, 127
1, 64937, Note_off_c, 2, 50, 127
1, 65074, Note_on_c, 11, 46, 127
1, 65074, Note_on_c, 0, 60, 127
1, 65088, Note_off_c, 11, 58, 127
1, 65088, Note_off_c, 0, 48, 127
1, 65225, Note_on_c, 10, 45, 127
1, 65225, Note_on_c, 2, 62, 127
1, 65239, Note_off_c, 0, 60, 127
1, 65239, Note_off_c, 11, 46, 127
1, 65376, Note_on_c, 7, 43, 127
1, 65376, Note_on_c, 4, 64, 127
1, 65390, Note_off_c, 2, 62, 127
1, 65390, Note_off_c, 10, 45, 127
1, 65527, Note_on_c, 5, 41, 127
1, 65527, Note_on_c, 5, 65, 127
1, 65541, Note_off_c, 4, 64, 127
1, 65541, Note_off_c, 7, 43, 127
1, 65678, Note_on_c, 4, 40, 127
1, 65678, Note_on_c, 7, 67, 127
1, 65692, Note_off_c, 5, 65, 127
1, 65692, Note_off_c, 5, 41, 127
1, 65829, Note_on_c, 5, 41, 127
1, 65829, Note_on_c, 10, 69, 127
1, 65843, Note_off_c, 7, 67, 127
1, 65843, Note_off_c, 4, 40, 127
1, 65980, Note_on_c, 7, 43, 127
1, 65980, Note_on_c, 11, 70, 127
1, 65994, Note_off_c, 10, 69, 127
1, 65994, Note_off_c, 5, 41, 127
1, 66131, Note_on_c, 10, 45, 127
1, 66131, Note_on_c, 10, 69, 127
1, 66145, Note_off_c, 11, 70, 127
1, 66145, Note_off_c, 7, 43, 127
1, 66282, Note_on_c, 11, 46, 127
1, 66282, Note_on_c, 7, 67, 127
1, 66296, Note_off_c, 10, 69, 127
1, 66296, Note_off_c, 10, 45, 127
1, 66433, Note_on_c, 10, 45, 127
1, 66433, Note_on_c, 5, 65, 127
1, 66447, Note_off_c, 7, 67, 127
1, 66447, Note_off_c, 11, 46, 127
1, 66584, Note_on_c, 11, 46, 127
1, 66584, Note_on_c, 4, 64, 127
1, 66598, Note_off_c, 5, 65, 127
1, 66598, Note_off_c, 10, 45, 127
1, 66735, Note_on_c, 7, 43, 127
1, 66735, Note_on_c, 2, 62, 127
1, 66749, Note_off_c, 4, 64, 127
1, 66749, Note_off_c, 11, 46, 127
1, 66886, Note_on_c, 10, 45, 127
1, 66886, Note_on_c, 1, 61, 127
1, 66900, Note_off_c, 2, 62, 127
1, 66900, Note_off_c, 7, 43, 127
1, 67037, Note_on_c, 12, 47, 127
1, 67037, Note_on_c, 12, 59, 127
1, 67051, Note_off_c, 1, 61, 127
1, 67051, Note_off_c, 10, 45, 127
1, 67188, Note_on_c, 1, 49, 127
1, 67188, Note_on_c, 10, 57, 127
1, 67202, Note_off_c, 12, 59, 127
1, 67202, Note_off_c, 12, 47, 127
1, 67339, Note_on_c, 2, 50, 127
1, 67339, Note_on_c, 12, 59, 127
1, 67353, Note_off_c, 10, 57, 127
1, 67353, Note_off_c, 1, 49, 127
1, 67490, Note_on_c, 4, 52, 127
1, 67490, Note_on_c, 1, 61, 127
1, 67504, Note_off_c, 12, 59, 127
1, 67504, Note_off_c, 2, 50, 127
1, 67641, Note_on_c, 2, 50, 127
1, 67641, Note_on_c, 2, 62, 127
1, 67655, Note_off_c, 1, 61, 127
1, 67655, Note_off_c, 4, 52, 127
1, 67792, Note_on_c, 1, 49, 127
1, 67792, Note_on_c, 4, 64, 127
1, 67806, Note_off_c, 2, 62, 127
1, 67806, Note_off_c, 2, 50, 127
1, 67943, Note_on_c, 2, 50, 127
1, 67943, Note_on_c, 5, 65, 127
1, 67957, Note_off_c, 4, 64, 127
1, 67957, Note_off_c, 1, 49, 127
1, 68094, Note_on_c, 4, 52, 127
1, 68094, Note_on_c, 7, 67, 127
1, 68108, Note_off_c, 5, 65, 127
1, 68108, Note_off_c, 2, 50, 127
1, 68245, Note_on_c, 5, 53, 127
1, 68245, Note_on_c, 10, 69, 127
1, 68259, Note_off_c, 7, 67, 127
1, 68259, Note_off_c, 4, 52, 127
1, 68396, Note_on_c, 7, 55, 127
1, 68396, Note_on_c, 11, 70, 127
1, 68410, Note_off_c, 10, 69, 127
1, 68410, Note_off_c, 5, 53, 127
1, 68547, Note_on_c, 10, 57, 127
1, 68547, Note_on_c, 10, 69, 127
1, 68561, Note_off_c, 11, 70, 127
1, 68561, Note_off_c, 7, 55, 127
1, 68698, Note_on_c, 11, 58, 127
1, 68698, Note_on_c, 7, 67, 127
1, 68712, Note_off_c, 10, 69, 127
1, 68712, Note_off_c, 10, 57, 127
1, 68849, Note_on_c, 10, 57, 127
1, 68849, Note_on_c, 5, 65, 127
1, 68863, Note_off_c, 7, 67, 127
1, 68863, Note_off_c, 11, 58, 127
1, 69000, Note_on_c, 11, 58, 127
1, 69000, Note_on_c, 4, 64, 127
1, 69014, Note_off_c, 5, 65, 127
1, 69014, Note_off_c, 10, 57, 127
1, 69151, Note_on_c, 7, 55, 127
1, 69151, Note_on_c, 2, 62, 127
1, 69165, Note_off_c, 4, 64, 127
1, 69165, Note_off_c, 11, 58, 127
1, 69302, Note_on_c, 10, 57, 127
1, 69302, Note_on_c, 1, 61, 127
1, 69316, Note_off_c, 2, 62, 127
1, 69316, Note_off_c, 7, 55, 127
1, 69444, Note_off_c, 10, 57, 127
1, 69453, Note_on_c, 10, 57, 127
1, 69605, Note_on_c, 7, 55, 127
1, 69619, Note_off_c, 10, 57, 127
1, 69744, Note_off_c, 1, 61, 127
1, 69757, Note_on_c, 5, 53, 127
1, 69771, Note_off_c, 7, 55, 127
1, 69908, Note_on_c, 4, 52, 127
1, 69922, Note_off_c, 5, 53, 127
1, 70059, Note_on_c, 2, 50, 127
1, 70073, Note_off_c, 4, 52, 127
1, 70210, Note_on_c, 1, 49, 127
1, 70224, Note_off_c, 2, 50, 127
1, 70361, Note_on_c, 12, 47, 127
1, 70375, Note_off_c, 1, 49, 127
1, 70512, Note_on_c, 10, 45, 127
1, 70526, Note_off_c, 12, 47, 127
1, 70663, Note_on_c, 4, 76, 127
1, 70813, Note_off_c, 4, 76, 127
1, 70815, Note_on_c, 1, 73, 127
1, 70967, Note_on_c, 4, 76, 127
1, 71100, Note_off_c, 1, 73, 127
1, 71113, Note_off_c, 10, 45, 127
1, 71118, Note_off_c, 4, 76, 127
1, 71120, Note_on_c, 10, 69, 127
1, 71272, Note_on_c, 4, 76, 127
1, 71405, Note_off_c, 10, 69, 127
1, 71422, Note_off_c, 4, 76, 127
1, 71424, Note_on_c, 1, 73, 127
1, 71576, Note_on_c, 4, 76, 127
1, 71709, Note_off_c, 1, 73, 127
1, 71726, Note_off_c, 4, 76, 127
1, 71728, Note_on_c, 10, 69, 127
1, 71880, Note_on_c, 4, 76, 127
1, 72013, Note_off_c, 10, 69, 127
1, 72030, Note_off_c, 4, 76, 127
1, 72032, Note_on_c, 10, 45, 127
1, 72032, Note_on_c, 1, 49, 127
1, 72032, Note_on_c, 4, 52, 127
1, 72032, Note_on_c, 7, 55, 127
1, 72032, Note_on_c, 10, 57, 127
1, 72032, Note_on_c, 1, 73, 127
1, 72184, Note_on_c, 4, 76, 127
1, 72317, Note_off_c, 1, 73, 127
1, 72334, Note_off_c, 4, 76, 127
1, 72334, Note_off_c, 10, 57, 127
1, 72334, Note_off_c, 7, 55, 127
1, 72334, Note_off_c, 4, 52, 127
1, 72334, Note_off_c, 1, 49, 127
1, 72334, Note_off_c, 10, 45, 127
1, 72336, Note_on_c, 10, 45, 127
1, 72336, Note_on_c, 4, 52, 127
1, 72336, Note_on_c, 1, 49, 127
1, 72336, Note_on_c, 7, 55, 127
1, 72336, Note_on_c, 10, 57, 127
1, 72336, Note_on_c, 10, 69, 127
1, 72488, Note_on_c, 4, 76, 127
1, 72621, Note_off_c, 10, 69, 127
1, 72638, Note_off_c, 4, 76, 127
1, 72638, Note_off_c, 10, 57, 127
1, 72638, Note_off_c, 7, 55, 127
1, 72638, Note_off_c, 1, 49, 127
1, 72638, Note_off_c, 4, 52, 127
1, 72638, Note_off_c, 10, 45, 127
1, 72640, Note_on_c, 10, 45, 127
1, 72640, Note_on_c, 4, 52, 127
1, 72640, Note_on_c, 1, 49, 127
1, 72640, Note_on_c, 10, 57, 127
1, 72640, Note_on_c, 7, 55, 127
1, 72640, Note_on_c, 1, 73, 127
1, 72790, Note_off_c, 1, 73, 127
1, 72792, Note_on_c, 4, 76, 127
1, 72942, Note_off_c, 4, 76, 127
1, 72942, Note_off_c, 7, 55, 127
1, 72942, Note_off_c, 10, 57, 127
1, 72942, Note_off_c, 1, 49, 127
1, 72942, Note_off_c, 4, 52, 127
1, 72942, Note_off_c, 10, 45, 127
1, 72944, Note_on_c, 5, 53, 127
1, 72944, Note_on_c, 2, 50, 127
1, 72944, Note_on_c, 10, 57, 127
1, 72944, Note_on_c, 10, 69, 127
1, 73096, Note_on_c, 5, 77, 127
1, 73229, Note_off_c, 10, 69, 127
1, 73246, Note_off_c, 5, 77, 127
1, 73248, Note_on_c, 2, 74, 127
1, 73400, Note_on_c, 5, 77, 127
1, 73533, Note_off_c, 2, 74, 127
1, 73550, Note_off_c, 5, 77, 127
1, 73552, Note_on_c, 10, 69, 127
1, 73704, Note_off_c, 10, 57, 127
1, 73704, Note_off_c, 2, 50, 127
1, 73704, Note_off_c, 5, 53, 127
1, 73704, Note_on_c, 5, 77, 127
1, 73837, Note_off_c, 10, 69, 127
1, 73854, Note_off_c, 5, 77, 127
1, 73856, Note_on_c, 2, 74, 127
1, 74008, Note_on_c, 5, 77, 127
1, 74141, Note_off_c, 2, 74, 127
1, 74158, Note_off_c, 5, 77, 127
1, 74160, Note_on_c, 10, 69, 127
1, 74312, Note_on_c, 5, 77, 127
1, 74445, Note_off_c, 10, 69, 127
1, 74462, Note_off_c, 5, 77, 127
1, 74464, Note_on_c, 10, 57, 127
1, 74464, Note_on_c, 5, 53, 127
1, 74464, Note_on_c, 2, 50, 127
1, 74464, Note_on_c, 2, 62, 127
1, 74464, Note_on_c, 2, 74, 127
1, 74616, Note_on_c, 5, 77, 127
1, 74749, Note_off_c, 2, 74, 127
1, 74766, Note_off_c, 5, 77, 127
1, 74766, Note_off_c, 2, 62, 127
1, 74766, Note_off_c, 2, 50, 127
1, 74766, Note_off_c, 5, 53, 127
1, 74766, Note_off_c, 10, 57, 127
1, 74768, Note_on_c, 2, 50, 127
1, 74768, Note_on_c, 2, 62, 127
1, 74768, Note_on_c, 10, 57, 127
1, 74768, Note_on_c, 5, 53, 127
1, 74768, Note_on_c, 10, 69, 127
1, 74920, Note_on_c, 5, 77, 127
1, 75053, Note_off_c, 10, 69, 127
1, 75070, Note_off_c, 5, 77, 127
1, 75070, Note_off_c, 5, 53, 127
1, 75070, Note_off_c, 10, 57, 127
1, 75070, Note_off_c, 2, 62, 127
1, 75070, Note_off_c, 2, 50, 127
1, 75072, Note_on_c, 5, 53, 127
1, 75072, Note_on_c, 2, 50, 127
1, 75072, Note_on_c, 2, 62, 127
1, 75072, Note_on_c, 10, 57, 127
1, 75072, Note_on_c, 2, 74, 127
1, 75222, Note_off_c, 2, 74, 127
1, 75224, Note_on_c, 5, 77, 127
1, 75374, Note_off_c, 5, 77, 127
1, 75374, Note_off_c, 10, 57, 127
1, 75374, Note_off_c, 2, 62, 127
1, 75374, Note_off_c, 2, 50, 127
1, 75374, Note_off_c, 5, 53, 127
1, 75376, Note_on_c, 4, 52, 127
1, 75376, Note_on_c, 11, 58, 127
1, 75376, Note_on_c, 7, 55, 127
1, 75376, Note_on_c, 1, 73, 127
1, 75528, Note_on_c, 7, 79, 127
1, 75661, Note_off_c, 1, 73, 127
1, 75678, Note_off_c, 7, 79, 127
1, 75680, Note_on_c, 4, 76, 127
1, 75832, Note_on_c, 7, 79, 127
1, 75965, Note_off_c, 4, 76, 127
1, 75982, Note_off_c, 7, 79, 127
1, 75984, Note_on_c, 1, 73, 127
1, 76136, Note_on_c, 7, 79, 127
1, 76269, Note_off_c, 1, 73, 127
1, 76286, Note_off_c, 7, 79, 127
1, 76286, Note_off_c, 7, 55, 127
1, 76286, Note_off_c, 11, 58, 127
1, 76286, Note_off_c, 4, 52, 127
1, 76288, Note_on_c, 4, 76, 127
1, 76440, Note_on_c, 7, 79, 127
1, 76573, Note_off_c, 4, 76, 127
1, 76590, Note_off_c, 7, 79, 127
1, 76592, Note_on_c, 1, 73, 127
1, 76744, Note_on_c, 7, 79, 127
1, 76877, Note_off_c, 1, 73, 127
1, 76894, Note_off_c, 7, 79, 127
1, 76896, Note_on_c, 11, 58, 127
1, 76896, Note_on_c, 4, 52, 127
1, 76896, Note_on_c, 7, 55, 127
1, 76896, Note_on_c, 4, 76, 127
1, 77048, Note_on_c, 7, 79, 127
1, 77181, Note_off_c, 4, 76, 127
1, 77198, Note_off_c, 7, 79, 127
1, 77198, Note_off_c, 7, 55, 127
1, 77198, Note_off_c, 4, 52, 127
1, 77198, Note_off_c, 11, 58, 127
1, 77200, Note_on_c, 4, 52, 127
1, 77200, Note_on_c, 7, 55, 127
1, 77200, Note_on_c, 11, 58, 127
1, 77200, Note_on_c, 1, 73, 127
1, 77352, Note_on_c, 7, 79, 127
1, 77485, Note_off_c, 1, 73, 127
1, 77502, Note_off_c, 7, 79, 127
1, 77502, Note_off_c, 11, 58, 127
1, 77502, Note_off_c, 7, 55, 127
1, 77502, Note_off_c, 4, 52, 127
1, 77504, Note_on_c, 4, 52, 127
1, 77504, Note_on_c, 11, 58, 127
1, 77504, Note_on_c, 7, 55, 127
1, 77504, Note_on_c, 4, 76, 127
1, 77654, Note_off_c, 4, 76, 127
1, 77656, Note_on_c, 7, 79, 127
1, 77806, Note_off_c, 7, 79, 127
1, 77806, Note_off_c, 7, 55, 127
1, 77806, Note_off_c, 11, 58, 127
1, 77806, Note_off_c, 4, 52, 127
1, 77808, Note_on_c, 4, 52, 127
1, 77808, Note_on_c, 1, 49, 127
1, 77808, Note_on_c, 10, 57, 127
1, 77808, Note_on_c, 10, 69, 127
1, 77960, Note_on_c, 7, 79, 127
1, 78110, Note_off_c, 7, 79, 127
1, 78112, Note_on_c, 4, 76, 127
1, 78251, Note_off_c, 10, 69, 127
1, 78264, Note_on_c, 7, 79, 127
1, 78397, Note_off_c, 4, 76, 127
1, 78414, Note_off_c, 7, 79, 127
1, 78416, Note_on_c, 10, 69, 127
1, 78568, Note_on_c, 7, 79, 127
1, 78718, Note_off_c, 7, 79, 127
1, 78720, Note_on_c, 4, 76, 127
1, 78859, Note_off_c, 10, 69, 127
1, 78868, Note_off_c, 10, 57, 127
1, 78868, Note_off_c, 1, 49, 127
1, 78868, Note_off_c, 4, 52, 127
1, 78871, Note_on_c, 7, 79, 127
1, 79004, Note_off_c, 4, 76, 127
1, 79021, Note_off_c, 7, 79, 127
1, 79023, Note_on_c, 10, 69, 127
1, 79175, Note_on_c, 7, 79, 127
1, 79325, Note_off_c, 7, 79, 127
1, 79327, Note_on_c, 1, 49, 127
1, 79327, Note_on_c, 10, 45, 127
1, 79327, Note_on_c, 10, 57, 127
1, 79327, Note_on_c, 4, 52, 127
1, 79327, Note_on_c, 4, 76, 127
1, 79466, Note_off_c, 10, 69, 127
1, 79479, Note_on_c, 7, 79, 127
1, 79612, Note_off_c, 4, 76, 127
1, 79629, Note_off_c, 7, 79, 127
1, 79629, Note_off_c, 4, 52, 127
1, 79629, Note_off_c, 10, 57, 127
1, 79629, Note_off_c, 10, 45, 127
1, 79629, Note_off_c, 1, 49, 127
1, 79631, Note_on_c, 10, 45, 127
1, 79631, Note_on_c, 4, 52, 127
1, 79631, Note_on_c, 1, 49, 127
1, 79631, Note_on_c, 10, 57, 127
1, 79631, Note_on_c, 10, 69, 127
1, 79783, Note_on_c, 7, 79, 127
1, 79933, Note_off_c, 7, 79, 127
1, 79933, Note_off_c, 10, 57, 127
1, 79933, Note_off_c, 1, 49, 127
1, 79933, Note_off_c, 4, 52, 127
1, 79933, Note_off_c, 10, 45, 127
1, 79935, Note_on_c, 1, 49, 127
1, 79935, Note_on_c, 10, 45, 127
1, 79935, Note_on_c, 10, 57, 127
1, 79935, Note_on_c, 4, 52, 127
1, 79935, Note_on_c, 4, 76, 127
1, 80074, Note_off_c, 10, 69, 127
1, 80087, Note_on_c, 7, 79, 127
1, 80220, Note_off_c, 4, 76, 127
1, 80237, Note_off_c, 7, 79, 127
1, 80237, Note_off_c, 4, 52, 127
1, 80237, Note_off_c, 10, 57, 127
1, 80237, Note_off_c, 10, 45, 127
1, 80237, Note_off_c, 1, 49, 127
1, 80239, Note_on_c, 5, 53, 127
1, 80239, Note_on_c, 2, 50, 127
1, 80239, Note_on_c, 10, 57, 127
1, 80239, Note_on_c, 10, 69, 127
1, 80391, Note_on_c, 5, 77, 127
1, 80541, Note_off_c, 5, 77, 127
1, 80543, Note_on_c, 2, 74, 127
1, 80682, Note_off_c, 10, 69, 127
1, 80695, Note_on_c, 5, 77, 127
1, 80828, Note_off_c, 2, 74, 127
1, 80845, Note_off_c, 5, 77, 127
1, 80847, Note_on_c, 10, 69, 127
1, 80999, Note_on_c, 5, 77, 127
1, 81149, Note_off_c, 5, 77, 127
1, 81151, Note_on_c, 2, 74, 127
1, 81290, Note_off_c, 10, 69, 127
1, 81303, Note_on_c, 5, 77, 127
1, 81436, Note_off_c, 2, 74, 127
1, 81453, Note_off_c, 5, 77, 127
1, 81453, Note_off_c, 10, 57, 127
1, 81453, Note_off_c, 2, 50, 127
1, 81453, Note_off_c, 5, 53, 127
1, 81455, Note_on_c, 10, 69, 127
1, 81607, Note_on_c, 5, 77, 127
1, 81757, Note_off_c, 5, 77, 127
1, 81759, Note_on_c, 2, 50, 127
1, 81759, Note_on_c, 10, 57, 127
1, 81759, Note_on_c, 5, 53, 127
1, 81759, Note_on_c, 2, 62, 127
1, 81759, Note_on_c, 2, 74, 127
1, 81898, Note_off_c, 10, 69, 127
1, 81911, Note_on_c, 5, 77, 127
1, 82044, Note_off_c, 2, 74, 127
1, 82061, Note_off_c, 5, 77, 127
1, 82061, Note_off_c, 2, 62, 127
1, 82061, Note_off_c, 5, 53, 127
1, 82061, Note_off_c, 10, 57, 127
1, 82061, Note_off_c, 2, 50, 127
1, 82063, Note_on_c, 5, 53, 127
1, 82063, Note_on_c, 2, 50, 127
1, 82063, Note_on_c, 2, 62, 127
1, 82063, Note_on_c, 10, 57, 127
1, 82063, Note_on_c, 10, 69, 127
1, 82215, Note_on_c, 5, 77, 127
1, 82365, Note_off_c, 5, 77, 127
1, 82365, Note_off_c, 10, 57, 127
1, 82365, Note_off_c, 2, 62, 127
1, 82365, Note_off_c, 2, 50, 127
1, 82365, Note_off_c, 5, 53, 127
1, 82367, Note_on_c, 2, 50, 127
1, 82367, Note_on_c, 10, 57, 127
1, 82367, Note_on_c, 5, 53, 127
1, 82367, Note_on_c, 2, 62, 127
1, 82367, Note_on_c, 2, 74, 127
1, 82506, Note_off_c, 10, 69, 127
1, 82519, Note_on_c, 5, 77, 127
1, 82652, Note_off_c, 2, 74, 127
1, 82669, Note_off_c, 5, 77, 127
1, 82669, Note_off_c, 2, 62, 127
1, 82669, Note_off_c, 5, 53, 127
1, 82669, Note_off_c, 10, 57, 127
1, 82669, Note_off_c, 2, 50, 127
1, 82671, Note_on_c, 10, 57, 127
1, 82671, Note_on_c, 2, 62, 127
1, 82671, Note_on_c, 4, 64, 127
1, 82671, Note_on_c, 10, 69, 127
1, 82823, Note_on_c, 4, 76, 127
1, 82973, Note_off_c, 4, 76, 127
1, 82975, Note_on_c, 2, 74, 127
1, 83114, Note_off_c, 10, 69, 127
1, 83127, Note_on_c, 4, 76, 127
1, 83275, Note_off_c, 2, 74, 127
1, 83277, Note_off_c, 4, 76, 127
1, 83279, Note_on_c, 10, 69, 127
1, 83431, Note_on_c, 4, 76, 127
1, 83581, Note_off_c, 4, 76, 127
1, 83583, Note_on_c, 2, 74, 127
1, 83722, Note_off_c, 10, 69, 127
1, 83735, Note_on_c, 4, 76, 127
1, 83883, Note_off_c, 2, 74, 127
1, 83885, Note_off_c, 4, 76, 127
1, 83887, Note_on_c, 10, 69, 127
1, 84032, Note_off_c, 4, 64, 127
1, 84032, Note_off_c, 2, 62, 127
1, 84032, Note_off_c, 10, 57, 127
1, 84038, Note_on_c, 4, 76, 127
1, 84188, Note_off_c, 4, 76, 127
1, 84190, Note_on_c, 10, 57, 127
1, 84190, Note_on_c, 4, 64, 127
1, 84190, Note_on_c, 2, 62, 127
1, 84190, Note_on_c, 2, 74, 127
1, 84329, Note_off_c, 10, 69, 127
1, 84342, Note_on_c, 4, 76, 127
1, 84490, Note_off_c, 2, 74, 127
1, 84492, Note_off_c, 4, 76, 127
1, 84492, Note_off_c, 2, 62, 127
1, 84492, Note_off_c, 4, 64, 127
1, 84492, Note_off_c, 10, 57, 127
1, 84494, Note_on_c, 2, 62, 127
1, 84494, Note_on_c, 10, 57, 127
1, 84494, Note_on_c, 4, 64, 127
1, 84494, Note_on_c, 10, 69, 127
1, 84646, Note_on_c, 4, 76, 127
1, 84796, Note_off_c, 4, 76, 127
1, 84796, Note_off_c, 4, 64, 127
1, 84796, Note_off_c, 10, 57, 127
1, 84796, Note_off_c, 2, 62, 127
1, 84798, Note_on_c, 4, 64, 127
1, 84798, Note_on_c, 2, 62, 127
1, 84798, Note_on_c, 10, 57, 127
1, 84798, Note_on_c, 2, 74, 127
1, 84937, Note_off_c, 10, 69, 127
1, 84950, Note_on_c, 4, 76, 127
1, 85098, Note_off_c, 2, 74, 127
1, 85100, Note_off_c, 4, 76, 127
1, 85100, Note_off_c, 10, 57, 127
1, 85100, Note_off_c, 2, 62, 127
1, 85100, Note_off_c, 4, 64, 127
1, 85102, Note_on_c, 1, 61, 127
1, 85102, Note_on_c, 10, 57, 127
1, 85102, Note_on_c, 4, 64, 127
1, 85102, Note_on_c, 10, 69, 127
1, 85254, Note_on_c, 4, 76, 127
1, 85404, Note_off_c, 4, 76, 127
1, 85406, Note_on_c, 1, 73, 127
1, 85556, Note_off_c, 1, 73, 127
1, 85558, Note_on_c, 4, 76, 127
1, 85703, Note_off_c, 10, 69, 127
1, 85708, Note_off_c, 4, 76, 127
1, 85710, Note_on_c, 10, 69, 127
1, 85862, Note_on_c, 4, 76, 127
1, 86012, Note_off_c, 4, 76, 127
1, 86014, Note_on_c, 1, 73, 127
1, 86153, Note_off_c, 10, 69, 127
1, 86164, Note_off_c, 1, 73, 127
1, 86166, Note_on_c, 4, 76, 127
1, 86316, Note_off_c, 4, 76, 127
1, 86318, Note_on_c, 7, 67, 127
1, 86470, Note_on_c, 4, 76, 127
1, 86620, Note_off_c, 4, 76, 127
1, 86620, Note_off_c, 4, 64, 127
1, 86620, Note_off_c, 10, 57, 127
1, 86620, Note_off_c, 1, 61, 127
1, 86622, Note_on_c, 10, 45, 127
1, 86622, Note_on_c, 4, 52, 127
1, 86622, Note_on_c, 1, 49, 127
1, 86622, Note_on_c, 10, 57, 127
1, 86622, Note_on_c, 1, 73, 127
1, 86772, Note_off_c, 1, 73, 127
1, 86774, Note_on_c, 4, 76, 127
1, 86919, Note_off_c, 7, 67, 127
1, 86924, Note_off_c, 4, 76, 127
1, 86924, Note_off_c, 10, 57, 127
1, 86924, Note_off_c, 1, 49, 127
1, 86924, Note_off_c, 4, 52, 127
1, 86924, Note_off_c, 10, 45, 127
1, 86926, Note_on_c, 10, 45, 127
1, 86926, Note_on_c, 4, 52, 127
1, 86926, Note_on_c, 1, 49, 127
1, 86926, Note_on_c, 10, 57, 127
1, 86926, Note_on_c, 7, 67, 127
1, 87078, Note_on_c, 4, 76, 127
1, 87228, Note_off_c, 4, 76, 127
1, 87228, Note_off_c, 10, 57, 127
1, 87228, Note_off_c, 1, 49, 127
1, 87228, Note_off_c, 4, 52, 127
1, 87228, Note_off_c, 10, 45, 127
1, 87230, Note_on_c, 1, 49, 127
1, 87230, Note_on_c, 10, 45, 127
1, 87230, Note_on_c, 10, 57, 127
1, 87230, Note_on_c, 4, 52, 127
1, 87230, Note_on_c, 1, 73, 127
1, 87369, Note_off_c, 7, 67, 127
1, 87380, Note_off_c, 1, 73, 127
1, 87382, Note_on_c, 4, 76, 127
1, 87532, Note_off_c, 4, 76, 127
1, 87532, Note_off_c, 4, 52, 127
1, 87532, Note_off_c, 10, 57, 127
1, 87532, Note_off_c, 10, 45, 127
1, 87532, Note_off_c, 1, 49, 127
1, 87534, Note_on_c, 10, 57, 127
1, 87534, Note_on_c, 2, 50, 127
1, 87534, Note_on_c, 2, 74, 127
1, 87534, Note_on_c, 5, 65, 127
1, 87836, Note_off_c, 2, 74, 127
1, 87838, Note_on_c, 5, 77, 127
1, 87977, Note_off_c, 5, 65, 127
1, 87988, Note_off_c, 5, 77, 127
1, 87990, Note_on_c, 4, 76, 127
1, 88140, Note_off_c, 4, 76, 127
1, 88142, Note_on_c, 2, 74, 127
1, 88420, Note_off_c, 2, 50, 127
1, 88420, Note_off_c, 10, 57, 127
1, 88444, Note_off_c, 2, 74, 127
1, 88446, Note_on_c, 10, 69, 127
1, 88446, Note_on_c, 2, 62, 127
1, 88446, Note_on_c, 5, 77, 127
1, 88446, Note_on_c, 2, 74, 127
1, 88748, Note_off_c, 2, 74, 127
1, 88748, Note_off_c, 5, 77, 127
1, 88748, Note_off_c, 2, 62, 127
1, 88748, Note_off_c, 10, 69, 127
1, 88750, Note_on_c, 1, 61, 127
1, 88750, Note_on_c, 10, 69, 127
1, 88750, Note_on_c, 4, 76, 127
1, 88900, Note_off_c, 1, 61, 127
1, 88902, Note_on_c, 12, 59, 127
1, 89052, Note_off_c, 12, 59, 127
1, 89054, Note_on_c, 10, 57, 127
1, 89054, Note_on_c, 10, 81, 127
1, 89204, Note_off_c, 10, 57, 127
1, 89206, Note_on_c, 12, 59, 127
1, 89351, Note_off_c, 10, 69, 127
1, 89356, Note_off_c, 12, 59, 127
1, 89356, Note_off_c, 10, 81, 127
1, 89358, Note_on_c, 1, 61, 127
1, 89358, Note_on_c, 10, 69, 127
1, 89508, Note_off_c, 1, 61, 127
1, 89510, Note_on_c, 12, 59, 127
1, 89660, Note_off_c, 12, 59, 127
1, 89660, Note_off_c, 4, 76, 127
1, 89662, Note_on_c, 1, 61, 127
1, 89662, Note_on_c, 10, 81, 127
1, 89662, Note_on_c, 4, 76, 127
1, 89812, Note_off_c, 1, 61, 127
1, 89814, Note_on_c, 10, 57, 127
1, 89964, Note_off_c, 10, 57, 127
1, 89964, Note_off_c, 4, 76, 127
1, 89964, Note_off_c, 10, 81, 127
1, 89966, Note_on_c, 2, 62, 127
1, 89966, Note_on_c, 2, 74, 127
1, 89966, Note_on_c, 5, 77, 127
1, 90116, Note_off_c, 2, 62, 127
1, 90118, Note_on_c, 10, 57, 127
1, 90268, Note_off_c, 10, 57, 127
1, 90268, Note_off_c, 5, 77, 127
1, 90268, Note_off_c, 2, 74, 127
1, 90268, Note_off_c, 10, 69, 127
1, 90270, Note_on_c, 5, 53, 127
1, 90270, Note_on_c, 2, 74, 127
1, 90420, Note_off_c, 2, 74, 127
1, 90420, Note_off_c, 5, 53, 127
1, 90422, Note_on_c, 10, 57, 127
1, 90422, Note_on_c, 4, 76, 127
1, 90572, Note_off_c, 4, 76, 127
1, 90572, Note_off_c, 10, 57, 127
1, 90574, Note_on_c, 2, 50, 127
1, 90574, Note_on_c, 2, 74, 127
1, 90574, Note_on_c, 5, 77, 127
1, 90724, Note_off_c, 2, 50, 127
1, 90726, Note_on_c, 5, 53, 127
1, 90876, Note_off_c, 5, 53, 127
1, 90876, Note_off_c, 5, 77, 127
1, 90878, Note_on_c, 4, 52, 127
1, 90878, Note_on_c, 7, 79, 127
1, 91028, Note_off_c, 7, 79, 127
1, 91028, Note_off_c, 4, 52, 127
1, 91030, Note_on_c, 2, 50, 127
1, 91030, Note_on_c, 5, 77, 127
1, 91175, Note_off_c, 2, 74, 127
1, 91180, Note_off_c, 5, 77, 127
1, 91180, Note_off_c, 2, 50, 127
1, 91182, Note_on_c, 10, 57, 127
1, 91182, Note_on_c, 4, 76, 127
1, 91182, Note_on_c, 2, 74, 127
1, 91332, Note_off_c, 2, 74, 127
1, 91332, Note_off_c, 10, 57, 127
1, 91334, Note_on_c, 11, 58, 127
1, 91340, Note_on_c, 1, 73, 127
1, 91411, Note_off_c, 1, 73, 127
1, 91411, Note_on_c, 2, 74, 127
1, 91482, Note_off_c, 2, 74, 127
1, 91482, Note_on_c, 1, 73, 127
1, 91484, Note_off_c, 11, 58, 127
1, 91486, Note_on_c, 10, 57, 127
1, 91554, Note_off_c, 1, 73, 127
1, 91554, Note_on_c, 2, 74, 127
1, 91625, Note_off_c, 2, 74, 127
1, 91625, Note_on_c, 1, 73, 127
1, 91636, Note_off_c, 10, 57, 127
1, 91638, Note_on_c, 7, 55, 127
1, 91788, Note_off_c, 7, 55, 127
1, 91790, Note_on_c, 5, 53, 127
1, 91853, Note_off_c, 1, 73, 127
1, 91940, Note_off_c, 5, 53, 127
1, 91942, Note_on_c, 4, 52, 127
1, 92092, Note_off_c, 4, 52, 127
1, 92094, Note_on_c, 5, 53, 127
1, 92094, Note_on_c, 10, 69, 127
1, 92242, Note_off_c, 4, 76, 127
1, 92244, Note_off_c, 5, 53, 127
1, 92246, Note_on_c, 10, 81, 127
1, 92246, Note_on_c, 2, 50, 127
1, 92396, Note_off_c, 2, 50, 127
1, 92396, Note_off_c, 10, 81, 127
1, 92396, Note_off_c, 10, 69, 127
1, 92398, Note_on_c, 7, 43, 127
1, 92398, Note_on_c, 11, 82, 127
1, 92548, Note_off_c, 11, 82, 127
1, 92550, Note_on_c, 7, 55, 127
1, 92550, Note_on_c, 7, 79, 127
1, 92698, Note_off_c, 7, 43, 127
1, 92700, Note_off_c, 7, 79, 127
1, 92700, Note_off_c, 7, 55, 127
1, 92702, Note_on_c, 5, 53, 127
1, 92702, Note_on_c, 11, 82, 127
1, 92852, Note_off_c, 11, 82, 127
1, 92852, Note_off_c, 5, 53, 127
1, 92854, Note_on_c, 7, 55, 127
1, 92854, Note_on_c, 4, 76, 127
1, 93004, Note_off_c, 4, 76, 127
1, 93006, Note_on_c, 7, 43, 127
1, 93006, Note_on_c, 11, 82, 127
1, 93156, Note_off_c, 11, 82, 127
1, 93158, Note_on_c, 7, 79, 127
1, 93297, Note_off_c, 7, 55, 127
1, 93308, Note_off_c, 7, 79, 127
1, 93310, Note_on_c, 7, 55, 127
1, 93310, Note_on_c, 11, 82, 127
1, 93460, Note_off_c, 11, 82, 127
1, 93462, Note_on_c, 4, 76, 127
1, 93607, Note_off_c, 7, 43, 127
1, 93610, Note_off_c, 7, 55, 127
1, 93612, Note_off_c, 4, 76, 127
1, 93614, Note_on_c, 10, 45, 127
1, 93614, Note_on_c, 4, 76, 127
1, 93764, Note_off_c, 4, 76, 127
1, 93766, Note_on_c, 1, 73, 127
1, 93916, Note_off_c, 1, 73, 127
1, 93918, Note_on_c, 10, 57, 127
1, 93918, Note_on_c, 4, 76, 127
1, 94068, Note_off_c, 4, 76, 127
1, 94070, Note_on_c, 10, 69, 127
1, 94215, Note_off_c, 10, 45, 127
1, 94220, Note_off_c, 10, 69, 127
1, 94222, Note_on_c, 10, 45, 127
1, 94222, Note_on_c, 4, 76, 127
1, 94372, Note_off_c, 4, 76, 127
1, 94374, Note_on_c, 1, 73, 127
1, 94519, Note_off_c, 10, 57, 127
1, 94524, Note_off_c, 1, 73, 127
1, 94526, Note_on_c, 10, 57, 127
1, 94526, Note_on_c, 4, 76, 127
1, 94676, Note_off_c, 4, 76, 127
1, 94678, Note_on_c, 10, 69, 127
1, 94823, Note_off_c, 10, 45, 127
1, 94828, Note_off_c, 10, 69, 127
1, 94828, Note_off_c, 10, 57, 127
1, 94830, Note_on_c, 5, 41, 127
1, 94830, Note_on_c, 10, 81, 127
1, 94980, Note_off_c, 10, 81, 127
1, 94982, Note_on_c, 5, 53, 127
1, 94982, Note_on_c, 5, 77, 127
1, 95130, Note_off_c, 5, 41, 127
1, 95132, Note_off_c, 5, 77, 127
1, 95132, Note_off_c, 5, 53, 127
1, 95134, Note_on_c, 4, 52, 127
1, 95134, Note_on_c, 10, 81, 127
1, 95284, Note_off_c, 10, 81, 127
1, 95284, Note_off_c, 4, 52, 127
1, 95286, Note_on_c, 5, 53, 127
1, 95286, Note_on_c, 2, 74, 127
1, 95436, Note_off_c, 2, 74, 127
1, 95438, Note_on_c, 5, 41, 127
1, 95438, Note_on_c, 10, 81, 127
1, 95588, Note_off_c, 10, 81, 127
1, 95590, Note_on_c, 5, 77, 127
1, 95729, Note_off_c, 5, 53, 127
1, 95740, Note_off_c, 5, 77, 127
1, 95742, Note_on_c, 5, 53, 127
1, 95742, Note_on_c, 10, 81, 127
1, 95892, Note_off_c, 10, 81, 127
1, 95894, Note_on_c, 2, 74, 127
1, 96039, Note_off_c, 5, 41, 127
1, 96044, Note_off_c, 2, 74, 127
1, 96044, Note_off_c, 5, 53, 127
1, 96046, Note_on_c, 7, 43, 127
1, 96046, Note_on_c, 2, 74, 127
1, 96196, Note_off_c, 2, 74, 127
1, 96198, Note_on_c, 11, 70, 127
1, 96348, Note_off_c, 11, 70, 127
1, 96350, Note_on_c, 7, 55, 127
1, 96350, Note_on_c, 2, 74, 127
1, 96500, Note_off_c, 2, 74, 127
1, 96502, Note_on_c, 7, 67, 127
1, 96647, Note_off_c, 7, 43, 127
1, 96652, Note_off_c, 7, 67, 127
1, 96654, Note_on_c, 7, 43, 127
1, 96654, Note_on_c, 2, 74, 127
1, 96804, Note_off_c, 2, 74, 127
1, 96806, Note_on_c, 11, 70, 127
1, 96951, Note_off_c, 7, 55, 127
1, 96956, Note_off_c, 11, 70, 127
1, 96958, Note_on_c, 7, 55, 127
1, 96958, Note_on_c, 2, 74, 127
1, 97108, Note_off_c, 2, 74, 127
1, 97110, Note_on_c, 7, 67, 127
1, 97255, Note_off_c, 7, 43, 127
1, 97260, Note_off_c, 7, 67, 127
1, 97260, Note_off_c, 7, 55, 127
1, 97262, Note_on_c, 4, 40, 127
1, 97262, Note_on_c, 7, 79, 127
1, 97412, Note_off_c, 7, 79, 127
1, 97414, Note_on_c, 4, 52, 127
1, 97414, Note_on_c, 4, 76, 127
1, 97562, Note_off_c, 4, 40, 127
1, 97564, Note_off_c, 4, 76, 127
1, 97564, Note_off_c, 4, 52, 127
1, 97566, Note_on_c, 2, 50, 127
1, 97566, Note_on_c, 7, 79, 127
1, 97716, Note_off_c, 7, 79, 127
1, 97716, Note_off_c, 2, 50, 127
1, 97718, Note_on_c, 4, 52, 127
1, 97718, Note_on_c, 1, 73, 127
1, 97868, Note_off_c, 1, 73, 127
1, 97868, Note_off_c, 4, 52, 127
1, 97870, Note_on_c, 4, 40, 127
1, 97870, Note_on_c, 7, 79, 127
1, 98020, Note_off_c, 7, 79, 127
1, 98022, Note_on_c, 4, 52, 127
1, 98022, Note_on_c, 4, 76, 127
1, 98172, Note_off_c, 4, 76, 127
1, 98172, Note_off_c, 4, 52, 127
1, 98174, Note_on_c, 2, 50, 127
1, 98174, Note_on_c, 7, 79, 127
1, 98313, Note_off_c, 4, 40, 127
1, 98324, Note_off_c, 7, 79, 127
1, 98324, Note_off_c, 2, 50, 127
1, 98326, Note_on_c, 4, 52, 127
1, 98326, Note_on_c, 1, 73, 127
1, 98476, Note_off_c, 1, 73, 127
1, 98476, Note_off_c, 4, 52, 127
1, 98478, Note_on_c, 5, 41, 127
1, 98478, Note_on_c, 10, 81, 127
1, 98628, Note_off_c, 10, 81, 127
1, 98630, Note_on_c, 5, 53, 127
1, 98630, Note_on_c, 5, 77, 127
1, 98780, Note_off_c, 5, 77, 127
1, 98780, Note_off_c, 5, 53, 127
1, 98782, Note_on_c, 4, 52, 127
1, 98782, Note_on_c, 10, 81, 127
1, 98921, Note_off_c, 5, 41, 127
1, 98932, Note_off_c, 10, 81, 127
1, 98932, Note_off_c, 4, 52, 127
1, 98934, Note_on_c, 5, 53, 127
1, 98934, Note_on_c, 2, 74, 127
1, 99084, Note_off_c, 2, 74, 127
1, 99084, Note_off_c, 5, 53, 127
1, 99086, Note_on_c, 5, 41, 127
1, 99086, Note_on_c, 10, 81, 127
1, 99236, Note_off_c, 10, 81, 127
1, 99238, Note_on_c, 5, 53, 127
1, 99238, Note_on_c, 5, 77, 127
1, 99388, Note_off_c, 5, 77, 127
1, 99388, Note_off_c, 5, 53, 127
1, 99390, Note_on_c, 4, 52, 127
1, 99390, Note_on_c, 10, 81, 127
1, 99529, Note_off_c, 5, 41, 127
1, 99540, Note_off_c, 10, 81, 127
1, 99540, Note_off_c, 4, 52, 127
1, 99542, Note_on_c, 5, 53, 127
1, 99542, Note_on_c, 2, 74, 127
1, 99692, Note_off_c, 2, 74, 127
1, 99692, Note_off_c, 5, 53, 127
1, 99694, Note_on_c, 7, 43, 127
1, 99694, Note_on_c, 11, 82, 127
1, 99844, Note_off_c, 11, 82, 127
1, 99846, Note_on_c, 7, 55, 127
1, 99846, Note_on_c, 10, 81, 127
1, 99920, Note_off_c, 10, 81, 127
1, 99922, Note_on_c, 7, 79, 127
1, 99995, Note_off_c, 7, 43, 127
1, 99997, Note_off_c, 7, 79, 127
1, 99997, Note_off_c, 7, 55, 127
1, 99999, Note_on_c, 5, 53, 127
1, 99999, Note_on_c, 10, 81, 127
1, 100149, Note_off_c, 10, 81, 127
1, 100149, Note_off_c, 5, 53, 127
1, 100151, Note_on_c, 7, 55, 127
1, 100151, Note_on_c, 5, 77, 127
1, 100301, Note_off_c, 5, 77, 127
1, 100301, Note_off_c, 7, 55, 127
1, 100303, Note_on_c, 7, 43, 127
1, 100303, Note_on_c, 7, 79, 127
1, 100453, Note_off_c, 7, 79, 127
1, 100455, Note_on_c, 7, 55, 127
1, 100455, Note_on_c, 5, 77, 127
1, 100529, Note_off_c, 5, 77, 127
1, 100531, Note_on_c, 4, 76, 127
1, 100605, Note_off_c, 4, 76, 127
1, 100605, Note_off_c, 7, 55, 127
1, 100607, Note_on_c, 5, 53, 127
1, 100607, Note_on_c, 5, 77, 127
1, 100746, Note_off_c, 7, 43, 127
1, 100757, Note_off_c, 5, 77, 127
1, 100757, Note_off_c, 5, 53, 127
1, 100759, Note_on_c, 7, 55, 127
1, 100759, Note_on_c, 2, 74, 127
1, 100909, Note_off_c, 2, 74, 127
1, 100909, Note_off_c, 7, 55, 127
1, 100911, Note_on_c, 10, 45, 127
1, 100911, Note_on_c, 1, 73, 127
1, 101061, Note_off_c, 1, 73, 127
1, 101063, Note_on_c, 10, 57, 127
1, 101063, Note_on_c, 12, 71, 127
1, 101137, Note_off_c, 12, 71, 127
1, 101139, Note_on_c, 10, 69, 127
1, 101213, Note_off_c, 10, 69, 127
1, 101213, Note_off_c, 10, 57, 127
1, 101215, Note_on_c, 8, 56, 127
1, 101215, Note_on_c, 12, 71, 127
1, 101354, Note_off_c, 10, 45, 127
1, 101365, Note_off_c, 12, 71, 127
1, 101365, Note_off_c, 8, 56, 127
1, 101367, Note_on_c, 10, 57, 127
1, 101367, Note_on_c, 8, 68, 127
1, 101517, Note_off_c, 8, 68, 127
1, 101517, Note_off_c, 10, 57, 127
1, 101519, Note_on_c, 10, 45, 127
1, 101519, Note_on_c, 10, 69, 127
1, 101669, Note_off_c, 10, 69, 127
1, 101669, Note_off_c, 10, 45, 127
1, 101671, Note_on_c, 12, 47, 127
1, 101671, Note_on_c, 8, 68, 127
1, 101745, Note_off_c, 8, 68, 127
1, 101745, Note_off_c, 12, 47, 127
1, 101747, Note_on_c, 1, 49, 127
1, 101747, Note_on_c, 6, 66, 127
1, 101821, Note_off_c, 6, 66, 127
1, 101821, Note_off_c, 1, 49, 127
1, 101823, Note_on_c, 2, 50, 127
1, 101823, Note_on_c, 4, 64, 127
1, 101897, Note_off_c, 4, 64, 127
1, 101897, Note_off_c, 2, 50, 127
1, 101899, Note_on_c, 4, 52, 127
1, 101899, Note_on_c, 2, 62, 127
1, 101973, Note_off_c, 2, 62, 127
1, 101973, Note_off_c, 4, 52, 127
1, 101975, Note_on_c, 6, 54, 127
1, 101975, Note_on_c, 1, 61, 127
1, 102049, Note_off_c, 1, 61, 127
1, 102049, Note_off_c, 6, 54, 127
1, 102051, Note_on_c, 8, 56, 127
1, 102051, Note_on_c, 12, 59, 127
1, 102125, Note_off_c, 12, 59, 127
1, 102125, Note_off_c, 8, 56, 127
1, 102127, Note_on_c, 10, 57, 127
1, 102279, Note_on_c, 10, 81, 127
1, 102429, Note_off_c, 10, 81, 127
1, 102431, Note_on_c, 10, 45, 127
1, 102431, Note_on_c, 7, 79, 127
1, 102581, Note_off_c, 7, 79, 127
1, 102583, Note_on_c, 10, 81, 127
1, 102733, Note_off_c, 10, 81, 127
1, 102733, Note_off_c, 10, 45, 127
1, 102735, Note_on_c, 1, 49, 127
1, 102735, Note_on_c, 4, 76, 127
1, 102885, Note_off_c, 4, 76, 127
1, 102887, Note_on_c, 10, 81, 127
1, 103037, Note_off_c, 10, 81, 127
1, 103037, Note_off_c, 1, 49, 127
1, 103039, Note_on_c, 10, 45, 127
1, 103039, Note_on_c, 7, 79, 127
1, 103189, Note_off_c, 7, 79, 127
1, 103191, Note_on_c, 10, 81, 127
1, 103339, Note_off_c, 10, 45, 127
1, 103341, Note_off_c, 10, 81, 127
1, 103341, Note_off_c, 10, 57, 127
1, 103343, Note_on_c, 5, 77, 127
1, 103495, Note_on_c, 2, 74, 127
1, 103645, Note_off_c, 2, 74, 127
1, 103647, Note_on_c, 2, 50, 127
1, 103647, Note_on_c, 0, 72, 127
1, 103797, Note_off_c, 0, 72, 127
1, 103799, Note_on_c, 2, 74, 127
1, 103949, Note_off_c, 2, 74, 127
1, 103949, Note_off_c, 2, 50, 127
1, 103951, Note_on_c, 5, 53, 127
1, 103951, Note_on_c, 10, 69, 127
1, 104101, Note_off_c, 10, 69, 127
1, 104103, Note_on_c, 2, 74, 127
1, 104253, Note_off_c, 2, 74, 127
1, 104253, Note_off_c, 5, 53, 127
1, 104255, Note_on_c, 2, 50, 127
1, 104255, Note_on_c, 0, 72, 127
1, 104405, Note_off_c, 0, 72, 127
1, 104407, Note_on_c, 2, 74, 127
1, 104555, Note_off_c, 2, 50, 127
1, 104557, Note_off_c, 2, 74, 127
1, 104557, Note_off_c, 5, 77, 127
1, 104559, Note_on_c, 12, 71, 127
1, 104711, Note_on_c, 7, 79, 127
1, 104861, Note_off_c, 7, 79, 127
1, 104863, Note_on_c, 7, 43, 127
1, 104863, Note_on_c, 5, 77, 127
1, 105013, Note_off_c, 5, 77, 127
1, 105015, Note_on_c, 7, 79, 127
1, 105165, Note_off_c, 7, 79, 127
1, 105165, Note_off_c, 7, 43, 127
1, 105167, Note_on_c, 12, 47, 127
1, 105167, Note_on_c, 2, 74, 127
1, 105317, Note_off_c, 2, 74, 127
1, 105319, Note_on_c, 7, 79, 127
1, 105469, Note_off_c, 7, 79, 127
1, 105469, Note_off_c, 12, 47, 127
1, 105471, Note_on_c, 7, 43, 127
1, 105471, Note_on_c, 5, 77, 127
1, 105621, Note_off_c, 5, 77, 127
1, 105623, Note_on_c, 7, 79, 127
1, 105771, Note_off_c, 7, 43, 127
1, 105773, Note_off_c, 7, 79, 127
1, 105773, Note_off_c, 12, 71, 127
1, 105775, Note_on_c, 4, 76, 127
1, 105927, Note_on_c, 0, 72, 127
1, 106077, Note_off_c, 0, 72, 127
1, 106079, Note_on_c, 0, 48, 127
1, 106079, Note_on_c, 12, 71, 127
1, 106229, Note_off_c, 12, 71, 127
1, 106231, Note_on_c, 0, 72, 127
1, 106381, Note_off_c, 0, 72, 127
1, 106381, Note_off_c, 0, 48, 127
1, 106383, Note_on_c, 4, 52, 127
1, 106383, Note_on_c, 7, 67, 127
1, 106533, Note_off_c, 7, 67, 127
1, 106535, Note_on_c, 0, 72, 127
1, 106685, Note_off_c, 0, 72, 127
1, 106685, Note_off_c, 4, 52, 127
1, 106687, Note_on_c, 0, 48, 127
1, 106687, Note_on_c, 12, 71, 127
1, 106837, Note_off_c, 12, 71, 127
1, 106839, Note_on_c, 0, 72, 127
1, 106987, Note_off_c, 0, 48, 127
1, 106989, Note_off_c, 0, 72, 127
1, 106989, Note_off_c, 4, 76, 127
1, 106991, Note_on_c, 10, 69, 127
1, 107143, Note_on_c, 5, 77, 127
1, 107293, Note_off_c, 5, 77, 127
1, 107295, Note_on_c, 5, 41, 127
1, 107295, Note_on_c, 4, 76, 127
1, 107445, Note_off_c, 4, 76, 127
1, 107447, Note_on_c, 5, 77, 127
1, 107597, Note_off_c, 5, 77, 127
1, 107597, Note_off_c, 5, 41, 127
1, 107599, Note_on_c, 10, 45, 127
1, 107599, Note_on_c, 0, 72, 127
1, 107749, Note_off_c, 0, 72, 127
1, 107751, Note_on_c, 5, 77, 127
1, 107901, Note_off_c, 5, 77, 127
1, 107901, Note_off_c, 10, 45, 127
1, 107903, Note_on_c, 5, 41, 127
1, 107903, Note_on_c, 4, 76, 127
1, 108053, Note_off_c, 4, 76, 127
1, 108055, Note_on_c, 5, 77, 127
1, 108203, Note_off_c, 5, 41, 127
1, 108205, Note_off_c, 5, 77, 127
1, 108205, Note_off_c, 10, 69, 127
1, 108207, Note_on_c, 2, 74, 127
1, 108359, Note_on_c, 12, 71, 127
1, 108509, Note_off_c, 12, 71, 127
1, 108511, Note_on_c, 12, 47, 127
1, 108511, Note_on_c, 10, 69, 127
1, 108661, Note_off_c, 10, 69, 127
1, 108663, Note_on_c, 12, 71, 127
1, 108813, Note_off_c, 12, 71, 127
1, 108813, Note_off_c, 12, 47, 127
1, 108815, Note_on_c, 2, 50, 127
1, 108815, Note_on_c, 6, 66, 127
1, 108965, Note_off_c, 6, 66, 127
1, 108967, Note_on_c, 12, 71, 127
1, 109117, Note_off_c, 12, 71, 127
1, 109117, Note_off_c, 2, 50, 127
1, 109119, Note_on_c, 12, 47, 127
1, 109119, Note_on_c, 10, 69, 127
1, 109269, Note_off_c, 10, 69, 127
1, 109271, Note_on_c, 12, 71, 127
1, 109419, Note_off_c, 12, 47, 127
1, 109421, Note_off_c, 12, 71, 127
1, 109421, Note_off_c, 2, 74, 127
1, 109423, Note_on_c, 8, 68, 127
1, 109575, Note_on_c, 4, 76, 127
1, 109725, Note_off_c, 4, 76, 127
1, 109727, Note_on_c, 4, 40, 127
1, 109727, Note_on_c, 2, 74, 127
1, 109877, Note_off_c, 2, 74, 127
1, 109879, Note_on_c, 4, 76, 127
1, 110029, Note_off_c, 4, 76, 127
1, 110029, Note_off_c, 4, 40, 127
1, 110031, Note_on_c, 8, 44, 127
1, 110031, Note_on_c, 12, 71, 127
1, 110181, Note_off_c, 12, 71, 127
1, 110183, Note_on_c, 4, 76, 127
1, 110333, Note_off_c, 4, 76, 127
1, 110333, Note_off_c, 8, 44, 127
1, 110335, Note_on_c, 4, 40, 127
1, 110335, Note_on_c, 2, 74, 127
1, 110485, Note_off_c, 2, 74, 127
1, 110487, Note_on_c, 4, 76, 127
1, 110637, Note_off_c, 4, 76, 127
1, 110637, Note_off_c, 4, 40, 127
1, 110637, Note_off_c, 8, 68, 127
1, 110639, Note_on_c, 10, 45, 127
1, 110639, Note_on_c, 0, 72, 127
1, 110791, Note_on_c, 10, 69, 127
1, 110941, Note_off_c, 10, 69, 127
1, 110941, Note_off_c, 10, 45, 127
1, 110943, Note_on_c, 12, 47, 127
1, 110943, Note_on_c, 7, 67, 127
1, 111093, Note_off_c, 7, 67, 127
1, 111095, Note_on_c, 10, 69, 127
1, 111245, Note_off_c, 10, 69, 127
1, 111245, Note_off_c, 12, 47, 127
1, 111247, Note_on_c, 0, 48, 127
1, 111247, Note_on_c, 4, 64, 127
1, 111397, Note_off_c, 4, 64, 127
1, 111399, Note_on_c, 10, 69, 127
1, 111549, Note_off_c, 10, 69, 127
1, 111549, Note_off_c, 0, 48, 127
1, 111551, Note_on_c, 10, 45, 127
1, 111551, Note_on_c, 7, 67, 127
1, 111701, Note_off_c, 7, 67, 127
1, 111703, Note_on_c, 10, 69, 127
1, 111853, Note_off_c, 10, 69, 127
1, 111853, Note_off_c, 10, 45, 127
1, 111853, Note_off_c, 0, 72, 127
1, 111855, Note_on_c, 2, 50, 127
1, 111855, Note_on_c, 5, 65, 127
1, 112007, Note_on_c, 2, 74, 127
1, 112140, Note_off_c, 5, 65, 127
1, 112157, Note_off_c, 2, 74, 127
1, 112157, Note_off_c, 2, 50, 127
1, 112159, Note_on_c, 4, 52, 127
1, 112159, Note_on_c, 4, 64, 127
1, 112159, Note_on_c, 0, 72, 127
1, 112309, Note_off_c, 0, 72, 127
1, 112311, Note_on_c, 2, 74, 127
1, 112444, Note_off_c, 4, 64, 127
1, 112461, Note_off_c, 2, 74, 127
1, 112461, Note_off_c, 4, 52, 127
1, 112463, Note_on_c, 5, 53, 127
1, 112463, Note_on_c, 12, 71, 127
1, 112463, Note_on_c, 2, 62, 127
1, 112613, Note_off_c, 12, 71, 127
1, 112615, Note_on_c, 0, 72, 127
1, 112748, Note_off_c, 2, 62, 127
1, 112765, Note_off_c, 0, 72, 127
1, 112765, Note_off_c, 5, 53, 127
1, 112767, Note_on_c, 2, 50, 127
1, 112767, Note_on_c, 10, 69, 127
1, 112767, Note_on_c, 0, 60, 127
1, 112917, Note_off_c, 10, 69, 127
1, 112919, Note_on_c, 12, 71, 127
1, 113052, Note_off_c, 0, 60, 127
1, 113069, Note_off_c, 12, 71, 127
1, 113069, Note_off_c, 2, 50, 127
1, 113071, Note_on_c, 4, 52, 127
1, 113071, Note_on_c, 12, 59, 127
1, 113071, Note_on_c, 8, 68, 127
1, 113223, Note_on_c, 4, 64, 127
1, 113356, Note_off_c, 12, 59, 127
1, 113372, Note_off_c, 8, 68, 127
1, 113374, Note_off_c, 4, 64, 127
1, 113374, Note_off_c, 4, 52, 127
1, 113376, Note_on_c, 2, 50, 127
1, 113376, Note_on_c, 10, 69, 127
1, 113528, Note_on_c, 0, 60, 127
1, 113676, Note_off_c, 10, 69, 127
1, 113678, Note_off_c, 0, 60, 127
1, 113678, Note_off_c, 2, 50, 127
1, 113680, Note_on_c, 4, 52, 127
1, 113680, Note_on_c, 12, 59, 127
1, 113832, Note_on_c, 10, 69, 127
1, 113980, Note_off_c, 12, 59, 127
1, 113983, Note_on_c, 4, 40, 127
1, 113983, Note_on_c, 12, 59, 127
1, 114131, Note_off_c, 10, 69, 127
1, 114134, Note_on_c, 8, 68, 127
1, 114263, Note_off_c, 4, 52, 127
1, 114274, Note_off_c, 4, 40, 127
1, 114282, Note_off_c, 12, 59, 127
1, 114284, Note_off_c, 8, 68, 127
1, 114286, Note_on_c, 10, 45, 127
1, 114286, Note_on_c, 10, 57, 127
1, 114286, Note_on_c, 10, 69, 127
1, 114286, Note_on_c, 0, 60, 127
1, 114588, Note_off_c, 0, 60, 127
1, 114588, Note_off_c, 10, 69, 127
1, 114590, Note_on_c, 0, 72, 127
1, 114740, Note_off_c, 0, 72, 127
1, 114742, Note_on_c, 12, 71, 127
1, 114892, Note_off_c, 12, 71, 127
1, 114894, Note_on_c, 0, 72, 127
1, 114957, Note_on_c, 12, 71, 127
1, 114973, Note_off_c, 0, 72, 127
1, 115020, Note_off_c, 12, 71, 127
1, 115020, Note_on_c, 0, 72, 127
1, 115045, Note_off_c, 10, 57, 127
1, 115045, Note_off_c, 10, 45, 127
1, 115197, Note_on_c, 10, 57, 127
1, 115197, Note_on_c, 4, 64, 127
1, 115197, Note_on_c, 10, 69, 127
1, 115491, Note_off_c, 0, 72, 127
1, 115499, Note_off_c, 10, 69, 127
1, 115499, Note_off_c, 4, 64, 127
1, 115499, Note_off_c, 10, 57, 127
1, 115501, Note_on_c, 8, 56, 127
1, 115501, Note_on_c, 4, 64, 127
1, 115501, Note_on_c, 12, 71, 127
1, 115651, Note_off_c, 8, 56, 127
1, 115653, Note_on_c, 6, 54, 127
1, 115803, Note_off_c, 6, 54, 127
1, 115803, Note_off_c, 12, 71, 127
1, 115805, Note_on_c, 4, 52, 127
1, 115805, Note_on_c, 4, 76, 127
1, 115955, Note_off_c, 4, 52, 127
1, 115957, Note_on_c, 6, 54, 127
1, 116102, Note_off_c, 4, 64, 127
1, 116107, Note_off_c, 6, 54, 127
1, 116107, Note_off_c, 4, 76, 127
1, 116109, Note_on_c, 8, 56, 127
1, 116109, Note_on_c, 4, 64, 127
1, 116259, Note_off_c, 8, 56, 127
1, 116261, Note_on_c, 6, 54, 127
1, 116411, Note_off_c, 6, 54, 127
1, 116413, Note_on_c, 8, 56, 127
1, 116413, Note_on_c, 4, 76, 127
1, 116413, Note_on_c, 12, 71, 127
1, 116563, Note_off_c, 8, 56, 127
1, 116565, Note_on_c, 4, 52, 127
1, 116715, Note_off_c, 4, 52, 127
1, 116715, Note_off_c, 12, 71, 127
1, 116715, Note_off_c, 4, 76, 127
1, 116717, Note_on_c, 10, 57, 127
1, 116717, Note_on_c, 10, 69, 127
1, 116717, Note_on_c, 0, 72, 127
1, 116867, Note_off_c, 10, 57, 127
1, 116869, Note_on_c, 4, 52, 127
1, 117019, Note_off_c, 4, 52, 127
1, 117019, Note_off_c, 0, 72, 127
1, 117019, Note_off_c, 10, 69, 127
1, 117019, Note_off_c, 4, 64, 127
1, 117021, Note_on_c, 0, 48, 127
1, 117021, Note_on_c, 10, 69, 127
1, 117171, Note_off_c, 10, 69, 127
1, 117171, Note_off_c, 0, 48, 127
1, 117173, Note_on_c, 4, 52, 127
1, 117173, Note_on_c, 12, 71, 127
1, 117323, Note_off_c, 12, 71, 127
1, 117323, Note_off_c, 4, 52, 127
1, 117325, Note_on_c, 10, 45, 127
1, 117325, Note_on_c, 0, 72, 127
1, 117475, Note_off_c, 10, 45, 127
1, 117477, Note_on_c, 0, 48, 127
1, 117627, Note_off_c, 0, 48, 127
1, 117627, Note_off_c, 0, 72, 127
1, 117629, Note_on_c, 12, 47, 127
1, 117629, Note_on_c, 2, 74, 127
1, 117779, Note_off_c, 2, 74, 127
1, 117779, Note_off_c, 12, 47, 127
1, 117781, Note_on_c, 10, 45, 127
1, 117781, Note_on_c, 0, 72, 127
1, 117931, Note_off_c, 0, 72, 127
1, 117931, Note_off_c, 10, 45, 127
1, 117933, Note_on_c, 4, 52, 127
1, 117933, Note_on_c, 8, 68, 127
1, 117933, Note_on_c, 0, 72, 127
1, 118083, Note_off_c, 4, 52, 127
1, 118085, Note_on_c, 5, 53, 127
1, 118235, Note_off_c, 5, 53, 127
1, 118235, Note_off_c, 0, 72, 127
1, 118237, Note_on_c, 4, 52, 127
1, 118237, Note_on_c, 12, 71, 127
1, 118387, Note_off_c, 4, 52, 127
1, 118389, Note_on_c, 2, 50, 127
1, 118539, Note_off_c, 2, 50, 127
1, 118541, Note_on_c, 0, 48, 127
1, 118541, Note_on_c, 4, 64, 127
1, 118680, Note_off_c, 12, 71, 127
1, 118691, Note_off_c, 0, 48, 127
1, 118693, Note_off_c, 8, 68, 127
1, 118693, Note_on_c, 12, 47, 127
1, 118843, Note_off_c, 12, 47, 127
1, 118845, Note_on_c, 0, 48, 127
1, 118845, Note_on_c, 10, 69, 127
1, 118845, Note_on_c, 4, 76, 127
1, 118995, Note_off_c, 0, 48, 127
1, 118997, Note_on_c, 10, 45, 127
1, 119111, Note_off_c, 4, 64, 127
1, 119130, Note_off_c, 4, 76, 127
1, 119147, Note_off_c, 10, 45, 127
1, 119149, Note_on_c, 2, 50, 127
1, 119149, Note_on_c, 5, 77, 127
1, 119293, Note_off_c, 10, 69, 127
1, 119299, Note_off_c, 2, 50, 127
1, 119301, Note_on_c, 5, 53, 127
1, 119301, Note_on_c, 2, 74, 127
1, 119451, Note_off_c, 2, 74, 127
1, 119451, Note_off_c, 5, 53, 127
1, 119453, Note_on_c, 4, 52, 127
1, 119453, Note_on_c, 0, 72, 127
1, 119603, Note_off_c, 0, 72, 127
1, 119603, Note_off_c, 4, 52, 127
1, 119605, Note_on_c, 5, 53, 127
1, 119605, Note_on_c, 2, 74, 127
1, 119755, Note_off_c, 2, 74, 127
1, 119755, Note_off_c, 5, 53, 127
1, 119757, Note_on_c, 2, 50, 127
1, 119757, Note_on_c, 10, 69, 127
1, 119907, Note_off_c, 10, 69, 127
1, 119907, Note_off_c, 2, 50, 127
1, 119909, Note_on_c, 5, 53, 127
1, 119909, Note_on_c, 2, 74, 127
1, 120059, Note_off_c, 2, 74, 127
1, 120059, Note_off_c, 5, 53, 127
1, 120061, Note_on_c, 4, 52, 127
1, 120061, Note_on_c, 0, 72, 127
1, 120211, Note_off_c, 0, 72, 127
1, 120211, Note_off_c, 4, 52, 127
1, 120213, Note_on_c, 5, 53, 127
1, 120213, Note_on_c, 2, 74, 127
1, 120363, Note_off_c, 2, 74, 127
1, 120363, Note_off_c, 5, 53, 127
1, 120363, Note_off_c, 5, 77, 127
1, 120365, Note_on_c, 7, 55, 127
1, 120365, Note_on_c, 12, 71, 127
1, 120515, Note_off_c, 7, 55, 127
1, 120517, Note_on_c, 12, 59, 127
1, 120517, Note_on_c, 5, 77, 127
1, 120665, Note_off_c, 12, 71, 127
1, 120667, Note_off_c, 5, 77, 127
1, 120667, Note_off_c, 12, 59, 127
1, 120669, Note_on_c, 10, 57, 127
1, 120669, Note_on_c, 12, 71, 127
1, 120669, Note_on_c, 2, 74, 127
1, 120819, Note_off_c, 2, 74, 127
1, 120819, Note_off_c, 10, 57, 127
1, 120821, Note_on_c, 12, 59, 127
1, 120821, Note_on_c, 5, 77, 127
1, 120969, Note_off_c, 12, 71, 127
1, 120971, Note_off_c, 5, 77, 127
1, 120971, Note_off_c, 12, 59, 127
1, 120973, Note_on_c, 7, 55, 127
1, 120973, Note_on_c, 12, 71, 127
1, 120973, Note_on_c, 2, 74, 127
1, 121123, Note_off_c, 2, 74, 127
1, 121123, Note_off_c, 7, 55, 127
1, 121125, Note_on_c, 12, 59, 127
1, 121125, Note_on_c, 5, 77, 127
1, 121273, Note_off_c, 12, 71, 127
1, 121275, Note_off_c, 5, 77, 127
1, 121275, Note_off_c, 12, 59, 127
1, 121277, Note_on_c, 10, 57, 127
1, 121277, Note_on_c, 2, 74, 127
1, 121277, Note_on_c, 12, 71, 127
1, 121427, Note_off_c, 2, 74, 127
1, 121427, Note_off_c, 10, 57, 127
1, 121429, Note_on_c, 12, 59, 127
1, 121429, Note_on_c, 5, 77, 127
1, 121577, Note_off_c, 12, 71, 127
1, 121579, Note_off_c, 5, 77, 127
1, 121579, Note_off_c, 12, 59, 127
1, 121581, Note_on_c, 0, 48, 127
1, 121581, Note_on_c, 4, 76, 127
1, 121731, Note_off_c, 0, 48, 127
1, 121733, Note_on_c, 4, 52, 127
1, 121733, Note_on_c, 0, 72, 127
1, 121883, Note_off_c, 0, 72, 127
1, 121883, Note_off_c, 4, 52, 127
1, 121885, Note_on_c, 2, 50, 127
1, 121885, Note_on_c, 12, 71, 127
1, 122035, Note_off_c, 12, 71, 127
1, 122035, Note_off_c, 2, 50, 127
1, 122037, Note_on_c, 4, 52, 127
1, 122037, Note_on_c, 0, 72, 127
1, 122187, Note_off_c, 0, 72, 127
1, 122187, Note_off_c, 4, 52, 127
1, 122189, Note_on_c, 0, 48, 127
1, 122189, Note_on_c, 7, 67, 127
1, 122339, Note_off_c, 7, 67, 127
1, 122339, Note_off_c, 0, 48, 127
1, 122341, Note_on_c, 4, 52, 127
1, 122341, Note_on_c, 0, 72, 127
1, 122491, Note_off_c, 0, 72, 127
1, 122491, Note_off_c, 4, 52, 127
1, 122493, Note_on_c, 2, 50, 127
1, 122493, Note_on_c, 12, 71, 127
1, 122643, Note_off_c, 12, 71, 127
1, 122643, Note_off_c, 2, 50, 127
1, 122645, Note_on_c, 4, 52, 127
1, 122645, Note_on_c, 0, 72, 127
1, 122795, Note_off_c, 0, 72, 127
1, 122795, Note_off_c, 4, 52, 127
1, 122795, Note_off_c, 4, 76, 127
1, 122797, Note_on_c, 5, 53, 127
1, 122797, Note_on_c, 10, 69, 127
1, 122947, Note_off_c, 5, 53, 127
1, 122949, Note_on_c, 10, 57, 127
1, 122949, Note_on_c, 4, 76, 127
1, 123097, Note_off_c, 10, 69, 127
1, 123099, Note_off_c, 4, 76, 127
1, 123099, Note_off_c, 10, 57, 127
1, 123101, Note_on_c, 7, 55, 127
1, 123101, Note_on_c, 0, 72, 127
1, 123101, Note_on_c, 10, 69, 127
1, 123251, Note_off_c, 0, 72, 127
1, 123251, Note_off_c, 7, 55, 127
1, 123253, Note_on_c, 10, 57, 127
1, 123253, Note_on_c, 4, 76, 127
1, 123401, Note_off_c, 10, 69, 127
1, 123403, Note_off_c, 4, 76, 127
1, 123403, Note_off_c, 10, 57, 127
1, 123405, Note_on_c, 5, 53, 127
1, 123405, Note_on_c, 0, 72, 127
1, 123405, Note_on_c, 10, 69, 127
1, 123555, Note_off_c, 0, 72, 127
1, 123555, Note_off_c, 5, 53, 127
1, 123557, Note_on_c, 10, 57, 127
1, 123557, Note_on_c, 4, 76, 127
1, 123705, Note_off_c, 10, 69, 127
1, 123707, Note_off_c, 4, 76, 127
1, 123707, Note_off_c, 10, 57, 127
1, 123709, Note_on_c, 7, 55, 127
1, 123709, Note_on_c, 10, 69, 127
1, 123709, Note_on_c, 0, 72, 127
1, 123859, Note_off_c, 0, 72, 127
1, 123859, Note_off_c, 7, 55, 127
1, 123861, Note_on_c, 10, 57, 127
1, 123861, Note_on_c, 4, 76, 127
1, 124009, Note_off_c, 10, 69, 127
1, 124011, Note_off_c, 4, 76, 127
1, 124011, Note_off_c, 10, 57, 127
1, 124013, Note_on_c, 12, 47, 127
1, 124013, Note_on_c, 2, 74, 127
1, 124163, Note_off_c, 12, 47, 127
1, 124165, Note_on_c, 2, 50, 127
1, 124165, Note_on_c, 12, 71, 127
1, 124315, Note_off_c, 12, 71, 127
1, 124315, Note_off_c, 2, 50, 127
1, 124317, Note_on_c, 0, 48, 127
1, 124317, Note_on_c, 10, 69, 127
1, 124467, Note_off_c, 10, 69, 127
1, 124467, Note_off_c, 0, 48, 127
1, 124469, Note_on_c, 2, 50, 127
1, 124469, Note_on_c, 12, 71, 127
1, 124619, Note_off_c, 12, 71, 127
1, 124619, Note_off_c, 2, 50, 127
1, 124621, Note_on_c, 12, 47, 127
1, 124621, Note_on_c, 6, 66, 127
1, 124771, Note_off_c, 6, 66, 127
1, 124771, Note_off_c, 12, 47, 127
1, 124773, Note_on_c, 2, 50, 127
1, 124773, Note_on_c, 12, 71, 127
1, 124923, Note_off_c, 12, 71, 127
1, 124923, Note_off_c, 2, 50, 127
1, 124925, Note_on_c, 0, 48, 127
1, 124925, Note_on_c, 10, 69, 127
1, 125075, Note_off_c, 10, 69, 127
1, 125075, Note_off_c, 0, 48, 127
1, 125077, Note_on_c, 2, 50, 127
1, 125077, Note_on_c, 12, 71, 127
1, 125227, Note_off_c, 12, 71, 127
1, 125227, Note_off_c, 2, 50, 127
1, 125227, Note_off_c, 2, 74, 127
1, 125229, Note_on_c, 4, 52, 127
1, 125229, Note_on_c, 8, 68, 127
1, 125379, Note_off_c, 4, 52, 127
1, 125381, Note_on_c, 8, 56, 127
1, 125381, Note_on_c, 2, 74, 127
1, 125529, Note_off_c, 8, 68, 127
1, 125531, Note_off_c, 2, 74, 127
1, 125531, Note_off_c, 8, 56, 127
1, 125533, Note_on_c, 6, 54, 127
1, 125533, Note_on_c, 8, 68, 127
1, 125533, Note_on_c, 12, 71, 127
1, 125683, Note_off_c, 12, 71, 127
1, 125683, Note_off_c, 6, 54, 127
1, 125685, Note_on_c, 8, 56, 127
1, 125685, Note_on_c, 2, 74, 127
1, 125833, Note_off_c, 8, 68, 127
1, 125835, Note_off_c, 2, 74, 127
1, 125835, Note_off_c, 8, 56, 127
1, 125837, Note_on_c, 4, 52, 127
1, 125837, Note_on_c, 8, 68, 127
1, 125837, Note_on_c, 12, 71, 127
1, 125987, Note_off_c, 12, 71, 127
1, 125987, Note_off_c, 4, 52, 127
1, 125989, Note_on_c, 8, 56, 127
1, 125989, Note_on_c, 2, 74, 127
1, 126137, Note_off_c, 8, 68, 127
1, 126139, Note_off_c, 2, 74, 127
1, 126139, Note_off_c, 8, 56, 127
1, 126141, Note_on_c, 6, 54, 127
1, 126141, Note_on_c, 8, 68, 127
1, 126141, Note_on_c, 12, 71, 127
1, 126291, Note_off_c, 12, 71, 127
1, 126291, Note_off_c, 6, 54, 127
1, 126293, Note_on_c, 8, 56, 127
1, 126293, Note_on_c, 2, 74, 127
1, 126441, Note_off_c, 8, 68, 127
1, 126443, Note_off_c, 2, 74, 127
1, 126443, Note_off_c, 8, 56, 127
1, 126445, Note_on_c, 10, 45, 127
1, 126445, Note_on_c, 0, 72, 127
1, 126445, Note_on_c, 10, 69, 127
1, 126595, Note_off_c, 0, 72, 127
1, 126595, Note_off_c, 10, 45, 127
1, 126597, Note_on_c, 0, 48, 127
1, 126597, Note_on_c, 10, 81, 127
1, 126730, Note_off_c, 10, 69, 127
1, 126747, Note_off_c, 10, 81, 127
1, 126747, Note_off_c, 0, 48, 127
1, 126749, Note_on_c, 12, 47, 127
1, 126749, Note_on_c, 4, 76, 127
1, 126749, Note_on_c, 0, 72, 127
1, 126899, Note_off_c, 4, 76, 127
1, 126899, Note_off_c, 12, 47, 127
1, 126901, Note_on_c, 0, 48, 127
1, 126901, Note_on_c, 10, 81, 127
1, 127049, Note_off_c, 0, 72, 127
1, 127051, Note_off_c, 10, 81, 127
1, 127051, Note_off_c, 0, 48, 127
1, 127053, Note_on_c, 10, 45, 127
1, 127053, Note_on_c, 4, 76, 127
1, 127053, Note_on_c, 0, 72, 127
1, 127203, Note_off_c, 4, 76, 127
1, 127203, Note_off_c, 10, 45, 127
1, 127205, Note_on_c, 0, 48, 127
1, 127205, Note_on_c, 10, 81, 127
1, 127353, Note_off_c, 0, 72, 127
1, 127355, Note_off_c, 10, 81, 127
1, 127355, Note_off_c, 0, 48, 127
1, 127357, Note_on_c, 12, 47, 127
1, 127357, Note_on_c, 4, 76, 127
1, 127357, Note_on_c, 0, 72, 127
1, 127507, Note_off_c, 4, 76, 127
1, 127507, Note_off_c, 12, 47, 127
1, 127509, Note_on_c, 0, 48, 127
1, 127509, Note_on_c, 10, 81, 127
1, 127642, Note_off_c, 0, 72, 127
1, 127659, Note_off_c, 10, 81, 127
1, 127659, Note_off_c, 0, 48, 127
1, 127661, Note_on_c, 2, 50, 127
1, 127661, Note_on_c, 5, 77, 127
1, 127661, Note_on_c, 12, 71, 127
1, 127811, Note_off_c, 5, 77, 127
1, 127811, Note_off_c, 2, 50, 127
1, 127813, Note_on_c, 4, 52, 127
1, 127813, Note_on_c, 10, 81, 127
1, 127946, Note_off_c, 12, 71, 127
1, 127963, Note_off_c, 10, 81, 127
1, 127963, Note_off_c, 4, 52, 127
1, 127965, Note_on_c, 0, 48, 127
1, 127965, Note_on_c, 4, 76, 127
1, 127965, Note_on_c, 0, 72, 127
1, 128115, Note_off_c, 4, 76, 127
1, 128115, Note_off_c, 0, 48, 127
1, 128117, Note_on_c, 2, 50, 127
1, 128117, Note_on_c, 10, 81, 127
1, 128250, Note_off_c, 0, 72, 127
1, 128267, Note_off_c, 10, 81, 127
1, 128267, Note_off_c, 2, 50, 127
1, 128269, Note_on_c, 12, 47, 127
1, 128269, Note_on_c, 2, 74, 127
1, 128269, Note_on_c, 4, 76, 127
1, 128419, Note_off_c, 4, 76, 127
1, 128419, Note_off_c, 12, 47, 127
1, 128421, Note_on_c, 4, 52, 127
1, 128421, Note_on_c, 8, 80, 127
1, 128554, Note_off_c, 2, 74, 127
1, 128571, Note_off_c, 8, 80, 127
1, 128571, Note_off_c, 4, 52, 127
1, 128573, Note_on_c, 2, 50, 127
1, 128573, Note_on_c, 12, 71, 127
1, 128573, Note_on_c, 4, 76, 127
1, 128723, Note_off_c, 4, 76, 127
1, 128723, Note_off_c, 2, 50, 127
1, 128725, Note_on_c, 4, 52, 127
1, 128725, Note_on_c, 8, 80, 127
1, 128858, Note_off_c, 12, 71, 127
1, 128875, Note_off_c, 8, 80, 127
1, 128875, Note_off_c, 4, 52, 127
1, 128877, Note_on_c, 0, 48, 127
1, 128877, Note_on_c, 4, 76, 127
1, 128877, Note_on_c, 0, 72, 127
1, 128877, Note_on_c, 10, 81, 127
1, 129027, Note_off_c, 0, 48, 127
1, 129029, Note_on_c, 2, 50, 127
1, 129179, Note_off_c, 2, 50, 127
1, 129179, Note_off_c, 0, 72, 127
1, 129179, Note_off_c, 4, 76, 127
1, 129181, Note_on_c, 12, 47, 127
1, 129181, Note_on_c, 10, 69, 127
1, 129320, Note_off_c, 10, 81, 127
1, 129331, Note_off_c, 12, 47, 127
1, 129333, Note_on_c, 0, 48, 127
1, 129481, Note_off_c, 10, 69, 127
1, 129483, Note_off_c, 0, 48, 127
1, 129485, Note_on_c, 10, 45, 127
1, 129635, Note_off_c, 10, 45, 127
1, 129637, Note_on_c, 0, 48, 127
1, 129637, Note_on_c, 10, 81, 127
1, 129787, Note_off_c, 10, 81, 127
1, 129787, Note_off_c, 0, 48, 127
1, 129789, Note_on_c, 12, 47, 127
1, 129789, Note_on_c, 7, 79, 127
1, 129939, Note_off_c, 7, 79, 127
1, 129939, Note_off_c, 12, 47, 127
1, 129941, Note_on_c, 0, 48, 127
1, 129941, Note_on_c, 10, 81, 127
1, 130091, Note_off_c, 10, 81, 127
1, 130091, Note_off_c, 0, 48, 127
1, 130093, Note_on_c, 2, 50, 127
1, 130093, Note_on_c, 5, 77, 127
1, 130243, Note_off_c, 5, 77, 127
1, 130245, Note_on_c, 7, 79, 127
1, 130395, Note_off_c, 7, 79, 127
1, 130397, Note_on_c, 2, 38, 127
1, 130397, Note_on_c, 4, 76, 127
1, 130547, Note_off_c, 4, 76, 127
1, 130549, Note_on_c, 5, 77, 127
1, 130694, Note_off_c, 2, 50, 127
1, 130697, Note_off_c, 2, 38, 127
1, 130699, Note_off_c, 5, 77, 127
1, 130701, Note_on_c, 2, 74, 127
1, 130851, Note_off_c, 2, 74, 127
1, 130853, Note_on_c, 2, 50, 127
1, 130853, Note_on_c, 5, 77, 127
1, 131003, Note_off_c, 5, 77, 127
1, 131003, Note_off_c, 2, 50, 127
1, 131005, Note_on_c, 0, 48, 127
1, 131005, Note_on_c, 4, 76, 127
1, 131155, Note_off_c, 4, 76, 127
1, 131155, Note_off_c, 0, 48, 127
1, 131157, Note_on_c, 2, 50, 127
1, 131157, Note_on_c, 5, 77, 127
1, 131307, Note_off_c, 5, 77, 127
1, 131307, Note_off_c, 2, 50, 127
1, 131309, Note_on_c, 12, 47, 127
1, 131309, Note_on_c, 7, 79, 127
1, 131459, Note_off_c, 12, 47, 127
1, 131461, Note_on_c, 0, 48, 127
1, 131611, Note_off_c, 0, 48, 127
1, 131611, Note_off_c, 7, 79, 127
1, 131613, Note_on_c, 10, 45, 127
1, 131613, Note_on_c, 7, 67, 127
1, 131763, Note_off_c, 10, 45, 127
1, 131765, Note_on_c, 12, 47, 127
1, 131913, Note_off_c, 7, 67, 127
1, 131915, Note_off_c, 12, 47, 127
1, 131917, Note_on_c, 7, 43, 127
1, 132067, Note_off_c, 7, 43, 127
1, 132069, Note_on_c, 12, 47, 127
1, 132069, Note_on_c, 7, 79, 127
1, 132219, Note_off_c, 7, 79, 127
1, 132219, Note_off_c, 12, 47, 127
1, 132221, Note_on_c, 10, 45, 127
1, 132221, Note_on_c, 5, 77, 127
1, 132371, Note_off_c, 5, 77, 127
1, 132371, Note_off_c, 10, 45, 127
1, 132373, Note_on_c, 12, 47, 127
1, 132373, Note_on_c, 7, 79, 127
1, 132523, Note_off_c, 7, 79, 127
1, 132523, Note_off_c, 12, 47, 127
1, 132525, Note_on_c, 0, 48, 127
1, 132525, Note_on_c, 4, 76, 127
1, 132675, Note_off_c, 4, 76, 127
1, 132677, Note_on_c, 5, 77, 127
1, 132827, Note_off_c, 5, 77, 127
1, 132829, Note_on_c, 0, 36, 127
1, 132829, Note_on_c, 2, 74, 127
1, 132979, Note_off_c, 2, 74, 127
1, 132981, Note_on_c, 4, 76, 127
1, 133126, Note_off_c, 0, 48, 127
1, 133129, Note_off_c, 0, 36, 127
1, 133131, Note_off_c, 4, 76, 127
1, 133133, Note_on_c, 0, 72, 127
1, 133283, Note_off_c, 0, 72, 127
1, 133285, Note_on_c, 0, 60, 127
1, 133285, Note_on_c, 4, 76, 127
1, 133435, Note_off_c, 4, 76, 127
1, 133435, Note_off_c, 0, 60, 127
1, 133437, Note_on_c, 12, 59, 127
1, 133437, Note_on_c, 2, 74, 127
1, 133587, Note_off_c, 2, 74, 127
1, 133587, Note_off_c, 12, 59, 127
1, 133589, Note_on_c, 0, 60, 127
1, 133589, Note_on_c, 4, 76, 127
1, 133739, Note_off_c, 4, 76, 127
1, 133739, Note_off_c, 0, 60, 127
1, 133741, Note_on_c, 10, 57, 127
1, 133741, Note_on_c, 5, 77, 127
1, 133891, Note_off_c, 5, 77, 127
1, 133891, Note_off_c, 10, 57, 127
1, 133893, Note_on_c, 0, 60, 127
1, 133893, Note_on_c, 7, 79, 127
1, 133967, Note_off_c, 7, 79, 127
1, 133969, Note_on_c, 5, 77, 127
1, 134043, Note_off_c, 5, 77, 127
1, 134043, Note_off_c, 0, 60, 127
1, 134045, Note_on_c, 7, 55, 127
1, 134045, Note_on_c, 4, 76, 127
1, 134195, Note_off_c, 4, 76, 127
1, 134195, Note_off_c, 7, 55, 127
1, 134197, Note_on_c, 0, 60, 127
1, 134197, Note_on_c, 5, 77, 127
1, 134271, Note_off_c, 5, 77, 127
1, 134273, Note_on_c, 4, 76, 127
1, 134347, Note_off_c, 4, 76, 127
1, 134347, Note_off_c, 0, 60, 127
1, 134349, Note_on_c, 5, 53, 127
1, 134349, Note_on_c, 2, 74, 127
1, 134499, Note_off_c, 2, 74, 127
1, 134499, Note_off_c, 5, 53, 127
1, 134501, Note_on_c, 0, 60, 127
1, 134501, Note_on_c, 4, 76, 127
1, 134575, Note_off_c, 4, 76, 127
1, 134577, Note_on_c, 2, 74, 127
1, 134651, Note_off_c, 2, 74, 127
1, 134651, Note_off_c, 0, 60, 127
1, 134653, Note_on_c, 4, 52, 127
1, 134653, Note_on_c, 0, 72, 127
1, 134803, Note_off_c, 0, 72, 127
1, 134803, Note_off_c, 4, 52, 127
1, 134805, Note_on_c, 0, 60, 127
1, 134805, Note_on_c, 2, 74, 127
1, 134879, Note_off_c, 2, 74, 127
1, 134881, Note_on_c, 0, 72, 127
1, 134955, Note_off_c, 0, 72, 127
1, 134955, Note_off_c, 0, 60, 127
1, 134957, Note_on_c, 2, 50, 127
1, 134957, Note_on_c, 12, 71, 127
1, 135107, Note_off_c, 12, 71, 127
1, 135107, Note_off_c, 2, 50, 127
1, 135109, Note_on_c, 5, 53, 127
1, 135109, Note_on_c, 10, 69, 127
1, 135183, Note_off_c, 10, 69, 127
1, 135185, Note_on_c, 7, 67, 127
1, 135259, Note_off_c, 7, 67, 127
1, 135259, Note_off_c, 5, 53, 127
1, 135261, Note_on_c, 4, 52, 127
1, 135261, Note_on_c, 0, 72, 127
1, 135411, Note_off_c, 4, 52, 127
1, 135413, Note_on_c, 5, 53, 127
1, 135413, Note_on_c, 4, 64, 127
1, 135561, Note_off_c, 0, 72, 127
1, 135563, Note_off_c, 4, 64, 127
1, 135563, Note_off_c, 5, 53, 127
1, 135565, Note_on_c, 7, 55, 127
1, 135565, Note_on_c, 2, 62, 127
1, 135717, Note_on_c, 0, 72, 127
1, 135865, Note_off_c, 2, 62, 127
1, 135868, Note_on_c, 7, 43, 127
1, 135868, Note_on_c, 2, 62, 127
1, 136001, Note_off_c, 0, 72, 127
1, 136020, Note_on_c, 12, 71, 127
1, 136153, Note_off_c, 2, 62, 127
1, 136166, Note_off_c, 7, 55, 127
1, 136171, Note_off_c, 12, 71, 127
1, 136171, Note_off_c, 7, 43, 127
1, 136173, Note_on_c, 0, 48, 127
1, 136173, Note_on_c, 7, 67, 127
1, 136173, Note_on_c, 4, 64, 127
1, 136173, Note_on_c, 0, 72, 127
1, 136475, Note_off_c, 0, 72, 127
1, 136475, Note_off_c, 4, 64, 127
1, 136475, Note_off_c, 7, 67, 127
1, 136477, Note_on_c, 4, 76, 127
1, 136627, Note_off_c, 4, 76, 127
1, 136629, Note_on_c, 2, 74, 127
1, 136779, Note_off_c, 2, 74, 127
1, 136781, Note_on_c, 0, 72, 127
1, 136933, Note_off_c, 0, 48, 127
1, 137083, Note_off_c, 0, 72, 127
1, 137085, Note_on_c, 0, 60, 127
1, 137085, Note_on_c, 7, 67, 127
1, 137085, Note_on_c, 4, 76, 127
1, 137085, Note_on_c, 0, 72, 127
1, 137387, Note_off_c, 0, 72, 127
1, 137387, Note_off_c, 4, 76, 127
1, 137387, Note_off_c, 7, 67, 127
1, 137387, Note_off_c, 0, 60, 127
1, 137389, Note_on_c, 12, 59, 127
1, 137389, Note_on_c, 7, 67, 127
1, 137389, Note_on_c, 2, 74, 127
1, 137539, Note_off_c, 12, 59, 127
1, 137541, Note_on_c, 10, 57, 127
1, 137691, Note_off_c, 10, 57, 127
1, 137691, Note_off_c, 2, 74, 127
1, 137693, Note_on_c, 7, 55, 127
1, 137693, Note_on_c, 7, 79, 127
1, 137843, Note_off_c, 7, 55, 127
1, 137845, Note_on_c, 10, 57, 127
1, 137990, Note_off_c, 7, 67, 127
1, 137995, Note_off_c, 10, 57, 127
1, 137995, Note_off_c, 7, 79, 127
1, 137997, Note_on_c, 12, 59, 127
1, 137997, Note_on_c, 7, 67, 127
1, 138147, Note_off_c, 12, 59, 127
1, 138149, Note_on_c, 10, 57, 127
1, 138299, Note_off_c, 10, 57, 127
1, 138301, Note_on_c, 12, 59, 127
1, 138301, Note_on_c, 7, 79, 127
1, 138301, Note_on_c, 2, 74, 127
1, 138451, Note_off_c, 12, 59, 127
1, 138453, Note_on_c, 7, 55, 127
1, 138603, Note_off_c, 7, 55, 127
1, 138603, Note_off_c, 2, 74, 127
1, 138603, Note_off_c, 7, 79, 127
1, 138605, Note_on_c, 0, 60, 127
1, 138605, Note_on_c, 4, 76, 127
1, 138605, Note_on_c, 0, 72, 127
1, 138755, Note_off_c, 0, 60, 127
1, 138757, Note_on_c, 7, 55, 127
1, 138907, Note_off_c, 7, 55, 127
1, 138907, Note_off_c, 0, 72, 127
1, 138907, Note_off_c, 4, 76, 127
1, 138907, Note_off_c, 7, 67, 127
1, 138909, Note_on_c, 4, 52, 127
1, 138909, Note_on_c, 0, 72, 127
1, 139059, Note_off_c, 0, 72, 127
1, 139059, Note_off_c, 4, 52, 127
1, 139061, Note_on_c, 7, 55, 127
1, 139061, Note_on_c, 2, 74, 127
1, 139211, Note_off_c, 2, 74, 127
1, 139211, Note_off_c, 7, 55, 127
1, 139213, Note_on_c, 0, 48, 127
1, 139213, Note_on_c, 0, 72, 127
1, 139213, Note_on_c, 4, 76, 127
1, 139363, Note_off_c, 0, 48, 127
1, 139365, Note_on_c, 4, 52, 127
1, 139515, Note_off_c, 4, 52, 127
1, 139515, Note_off_c, 4, 76, 127
1, 139517, Note_on_c, 2, 50, 127
1, 139517, Note_on_c, 5, 77, 127
1, 139667, Note_off_c, 5, 77, 127
1, 139667, Note_off_c, 2, 50, 127
1, 139669, Note_on_c, 0, 48, 127
1, 139669, Note_on_c, 4, 76, 127
1, 139814, Note_off_c, 0, 72, 127
1, 139819, Note_off_c, 4, 76, 127
1, 139819, Note_off_c, 0, 48, 127
1, 139821, Note_on_c, 7, 55, 127
1, 139821, Note_on_c, 12, 71, 127
1, 139821, Note_on_c, 4, 76, 127
1, 139971, Note_off_c, 7, 55, 127
1, 139973, Note_on_c, 2, 50, 127
1, 140123, Note_off_c, 2, 50, 127
1, 140123, Note_off_c, 4, 76, 127
1, 140125, Note_on_c, 7, 43, 127
1, 140125, Note_on_c, 2, 74, 127
1, 140275, Note_off_c, 7, 43, 127
1, 140277, Note_on_c, 10, 45, 127
1, 140422, Note_off_c, 12, 71, 127
1, 140427, Note_off_c, 10, 45, 127
1, 140427, Note_off_c, 2, 74, 127
1, 140429, Note_on_c, 12, 47, 127
1, 140429, Note_on_c, 7, 67, 127
1, 140579, Note_off_c, 12, 47, 127
1, 140581, Note_on_c, 10, 45, 127
1, 140731, Note_off_c, 10, 45, 127
1, 140731, Note_off_c, 7, 67, 127
1, 140733, Note_on_c, 12, 47, 127
1, 140733, Note_on_c, 7, 79, 127
1, 140733, Note_on_c, 2, 74, 127
1, 140883, Note_off_c, 12, 47, 127
1, 140885, Note_on_c, 7, 43, 127
1, 141035, Note_off_c, 7, 43, 127
1, 141035, Note_off_c, 2, 74, 127
1, 141035, Note_off_c, 7, 79, 127
1, 141037, Note_on_c, 0, 48, 127
1, 141037, Note_on_c, 4, 76, 127
1, 141037, Note_on_c, 0, 72, 127
1, 141187, Note_off_c, 0, 72, 127
1, 141187, Note_off_c, 4, 76, 127
1, 141187, Note_off_c, 0, 48, 127
1, 141189, Note_on_c, 4, 52, 127
1, 141189, Note_on_c, 7, 79, 127
1, 141339, Note_off_c, 7, 79, 127
1, 141339, Note_off_c, 4, 52, 127
1, 141341, Note_on_c, 2, 50, 127
1, 141341, Note_on_c, 5, 77, 127
1, 141491, Note_off_c, 5, 77, 127
1, 141491, Note_off_c, 2, 50, 127
1, 141493, Note_on_c, 4, 52, 127
1, 141493, Note_on_c, 7, 79, 127
1, 141643, Note_off_c, 7, 79, 127
1, 141643, Note_off_c, 4, 52, 127
1, 141645, Note_on_c, 0, 48, 127
1, 141645, Note_on_c, 4, 76, 127
1, 141795, Note_off_c, 4, 76, 127
1, 141795, Note_off_c, 0, 48, 127
1, 141797, Note_on_c, 4, 52, 127
1, 141797, Note_on_c, 7, 79, 127
1, 141947, Note_off_c, 7, 79, 127
1, 141947, Note_off_c, 4, 52, 127
1, 141949, Note_on_c, 2, 50, 127
1, 141949, Note_on_c, 5, 77, 127
1, 142099, Note_off_c, 5, 77, 127
1, 142099, Note_off_c, 2, 50, 127
1, 142101, Note_on_c, 4, 52, 127
1, 142101, Note_on_c, 7, 79, 127
1, 142251, Note_off_c, 7, 79, 127
1, 142251, Note_off_c, 4, 52, 127
1, 142253, Note_on_c, 5, 53, 127
1, 142253, Note_on_c, 10, 81, 127
1, 142403, Note_off_c, 5, 53, 127
1, 142405, Note_on_c, 10, 57, 127
1, 142405, Note_on_c, 0, 72, 127
1, 142555, Note_off_c, 0, 72, 127
1, 142555, Note_off_c, 10, 57, 127
1, 142557, Note_on_c, 7, 55, 127
1, 142557, Note_on_c, 12, 71, 127
1, 142707, Note_off_c, 12, 71, 127
1, 142707, Note_off_c, 7, 55, 127
1, 142709, Note_on_c, 10, 57, 127
1, 142709, Note_on_c, 0, 72, 127
1, 142859, Note_off_c, 0, 72, 127
1, 142859, Note_off_c, 10, 57, 127
1, 142861, Note_on_c, 5, 53, 127
1, 142861, Note_on_c, 10, 69, 127
1, 143011, Note_off_c, 10, 69, 127
1, 143011, Note_off_c, 5, 53, 127
1, 143013, Note_on_c, 10, 57, 127
1, 143013, Note_on_c, 0, 72, 127
1, 143163, Note_off_c, 0, 72, 127
1, 143163, Note_off_c, 10, 57, 127
1, 143165, Note_on_c, 7, 55, 127
1, 143165, Note_on_c, 12, 71, 127
1, 143315, Note_off_c, 12, 71, 127
1, 143315, Note_off_c, 7, 55, 127
1, 143317, Note_on_c, 10, 57, 127
1, 143317, Note_on_c, 0, 72, 127
1, 143467, Note_off_c, 0, 72, 127
1, 143467, Note_off_c, 10, 57, 127
1, 143467, Note_off_c, 10, 81, 127
1, 143469, Note_on_c, 12, 47, 127
1, 143469, Note_on_c, 2, 74, 127
1, 143619, Note_off_c, 2, 74, 127
1, 143619, Note_off_c, 12, 47, 127
1, 143621, Note_on_c, 2, 50, 127
1, 143621, Note_on_c, 5, 77, 127
1, 143771, Note_off_c, 5, 77, 127
1, 143771, Note_off_c, 2, 50, 127
1, 143773, Note_on_c, 0, 48, 127
1, 143773, Note_on_c, 4, 76, 127
1, 143923, Note_off_c, 4, 76, 127
1, 143923, Note_off_c, 0, 48, 127
1, 143925, Note_on_c, 2, 50, 127
1, 143925, Note_on_c, 5, 77, 127
1, 144075, Note_off_c, 5, 77, 127
1, 144075, Note_off_c, 2, 50, 127
1, 144077, Note_on_c, 12, 47, 127
1, 144077, Note_on_c, 2, 74, 127
1, 144227, Note_off_c, 2, 74, 127
1, 144227, Note_off_c, 12, 47, 127
1, 144229, Note_on_c, 2, 50, 127
1, 144229, Note_on_c, 5, 77, 127
1, 144379, Note_off_c, 5, 77, 127
1, 144379, Note_off_c, 2, 50, 127
1, 144381, Note_on_c, 0, 48, 127
1, 144381, Note_on_c, 4, 76, 127
1, 144531, Note_off_c, 4, 76, 127
1, 144531, Note_off_c, 0, 48, 127
1, 144533, Note_on_c, 2, 50, 127
1, 144533, Note_on_c, 5, 77, 127
1, 144683, Note_off_c, 5, 77, 127
1, 144683, Note_off_c, 2, 50, 127
1, 144685, Note_on_c, 4, 52, 127
1, 144685, Note_on_c, 7, 79, 127
1, 144835, Note_off_c, 4, 52, 127
1, 144837, Note_on_c, 7, 55, 127
1, 144837, Note_on_c, 12, 71, 127
1, 144987, Note_off_c, 12, 71, 127
1, 144987, Note_off_c, 7, 55, 127
1, 144989, Note_on_c, 5, 53, 127
1, 144989, Note_on_c, 10, 69, 127
1, 145139, Note_off_c, 10, 69, 127
1, 145139, Note_off_c, 5, 53, 127
1, 145141, Note_on_c, 7, 55, 127
1, 145141, Note_on_c, 12, 71, 127
1, 145291, Note_off_c, 12, 71, 127
1, 145291, Note_off_c, 7, 55, 127
1, 145293, Note_on_c, 4, 52, 127
1, 145293, Note_on_c, 7, 67, 127
1, 145443, Note_off_c, 7, 67, 127
1, 145443, Note_off_c, 4, 52, 127
1, 145445, Note_on_c, 7, 55, 127
1, 145445, Note_on_c, 12, 71, 127
1, 145595, Note_off_c, 12, 71, 127
1, 145595, Note_off_c, 7, 55, 127
1, 145597, Note_on_c, 5, 53, 127
1, 145597, Note_on_c, 10, 69, 127
1, 145747, Note_off_c, 10, 69, 127
1, 145747, Note_off_c, 5, 53, 127
1, 145749, Note_on_c, 7, 55, 127
1, 145749, Note_on_c, 12, 71, 127
1, 145899, Note_off_c, 12, 71, 127
1, 145899, Note_off_c, 7, 55, 127
1, 145899, Note_off_c, 7, 79, 127
1, 145901, Note_on_c, 10, 45, 127
1, 145901, Note_on_c, 0, 72, 127
1, 146051, Note_off_c, 0, 72, 127
1, 146051, Note_off_c, 10, 45, 127
1, 146053, Note_on_c, 0, 48, 127
1, 146053, Note_on_c, 4, 76, 127
1, 146203, Note_off_c, 4, 76, 127
1, 146203, Note_off_c, 0, 48, 127
1, 146205, Note_on_c, 12, 47, 127
1, 146205, Note_on_c, 2, 74, 127
1, 146355, Note_off_c, 2, 74, 127
1, 146355, Note_off_c, 12, 47, 127
1, 146357, Note_on_c, 0, 48, 127
1, 146357, Note_on_c, 4, 76, 127
1, 146507, Note_off_c, 4, 76, 127
1, 146507, Note_off_c, 0, 48, 127
1, 146509, Note_on_c, 10, 45, 127
1, 146509, Note_on_c, 0, 72, 127
1, 146659, Note_off_c, 0, 72, 127
1, 146659, Note_off_c, 10, 45, 127
1, 146661, Note_on_c, 0, 48, 127
1, 146661, Note_on_c, 4, 76, 127
1, 146811, Note_off_c, 4, 76, 127
1, 146811, Note_off_c, 0, 48, 127
1, 146813, Note_on_c, 12, 47, 127
1, 146813, Note_on_c, 2, 74, 127
1, 146963, Note_off_c, 2, 74, 127
1, 146963, Note_off_c, 12, 47, 127
1, 146965, Note_on_c, 0, 48, 127
1, 146965, Note_on_c, 4, 76, 127
1, 147115, Note_off_c, 4, 76, 127
1, 147115, Note_off_c, 0, 48, 127
1, 147117, Note_on_c, 2, 50, 127
1, 147117, Note_on_c, 5, 77, 127
1, 147267, Note_off_c, 2, 50, 127
1, 147269, Note_on_c, 5, 53, 127
1, 147269, Note_on_c, 10, 69, 127
1, 147419, Note_off_c, 10, 69, 127
1, 147419, Note_off_c, 5, 53, 127
1, 147421, Note_on_c, 4, 52, 127
1, 147421, Note_on_c, 7, 67, 127
1, 147571, Note_off_c, 7, 67, 127
1, 147571, Note_off_c, 4, 52, 127
1, 147573, Note_on_c, 5, 53, 127
1, 147573, Note_on_c, 10, 69, 127
1, 147723, Note_off_c, 10, 69, 127
1, 147723, Note_off_c, 5, 53, 127
1, 147725, Note_on_c, 2, 50, 127
1, 147725, Note_on_c, 5, 65, 127
1, 147875, Note_off_c, 5, 65, 127
1, 147875, Note_off_c, 2, 50, 127
1, 147877, Note_on_c, 5, 53, 127
1, 147877, Note_on_c, 10, 69, 127
1, 148027, Note_off_c, 10, 69, 127
1, 148027, Note_off_c, 5, 53, 127
1, 148029, Note_on_c, 4, 52, 127
1, 148029, Note_on_c, 7, 67, 127
1, 148179, Note_off_c, 7, 67, 127
1, 148179, Note_off_c, 4, 52, 127
1, 148181, Note_on_c, 5, 53, 127
1, 148181, Note_on_c, 10, 69, 127
1, 148331, Note_off_c, 10, 69, 127
1, 148331, Note_off_c, 5, 53, 127
1, 148331, Note_off_c, 5, 77, 127
1, 148333, Note_on_c, 7, 43, 127
1, 148333, Note_on_c, 12, 71, 127
1, 148483, Note_off_c, 12, 71, 127
1, 148483, Note_off_c, 7, 43, 127
1, 148485, Note_on_c, 12, 47, 127
1, 148485, Note_on_c, 2, 74, 127
1, 148635, Note_off_c, 2, 74, 127
1, 148635, Note_off_c, 12, 47, 127
1, 148637, Note_on_c, 10, 45, 127
1, 148637, Note_on_c, 0, 72, 127
1, 148787, Note_off_c, 0, 72, 127
1, 148787, Note_off_c, 10, 45, 127
1, 148789, Note_on_c, 12, 47, 127
1, 148789, Note_on_c, 2, 74, 127
1, 148939, Note_off_c, 2, 74, 127
1, 148939, Note_off_c, 12, 47, 127
1, 148941, Note_on_c, 7, 43, 127
1, 148941, Note_on_c, 12, 71, 127
1, 149091, Note_off_c, 12, 71, 127
1, 149091, Note_off_c, 7, 43, 127
1, 149093, Note_on_c, 12, 47, 127
1, 149093, Note_on_c, 2, 74, 127
1, 149243, Note_off_c, 2, 74, 127
1, 149243, Note_off_c, 12, 47, 127
1, 149245, Note_on_c, 10, 45, 127
1, 149245, Note_on_c, 0, 72, 127
1, 149395, Note_off_c, 0, 72, 127
1, 149395, Note_off_c, 10, 45, 127
1, 149397, Note_on_c, 12, 47, 127
1, 149397, Note_on_c, 2, 74, 127
1, 149547, Note_off_c, 2, 74, 127
1, 149547, Note_off_c, 12, 47, 127
1, 149549, Note_on_c, 0, 48, 127
1, 149549, Note_on_c, 4, 76, 127
1, 149699, Note_off_c, 0, 48, 127
1, 149701, Note_on_c, 4, 52, 127
1, 149701, Note_on_c, 7, 67, 127
1, 149851, Note_off_c, 7, 67, 127
1, 149851, Note_off_c, 4, 52, 127
1, 149853, Note_on_c, 2, 50, 127
1, 149853, Note_on_c, 5, 65, 127
1, 150003, Note_off_c, 5, 65, 127
1, 150003, Note_off_c, 2, 50, 127
1, 150005, Note_on_c, 4, 52, 127
1, 150005, Note_on_c, 7, 67, 127
1, 150155, Note_off_c, 7, 67, 127
1, 150155, Note_off_c, 4, 52, 127
1, 150157, Note_on_c, 0, 48, 127
1, 150157, Note_on_c, 4, 64, 127
1, 150307, Note_off_c, 4, 64, 127
1, 150307, Note_off_c, 0, 48, 127
1, 150309, Note_on_c, 4, 52, 127
1, 150309, Note_on_c, 7, 67, 127
1, 150459, Note_off_c, 7, 67, 127
1, 150459, Note_off_c, 4, 52, 127
1, 150459, Note_off_c, 4, 76, 127
1, 150461, Note_on_c, 2, 50, 127
1, 150461, Note_on_c, 5, 65, 127
1, 150611, Note_off_c, 5, 65, 127
1, 150611, Note_off_c, 2, 50, 127
1, 150613, Note_on_c, 4, 52, 127
1, 150613, Note_on_c, 7, 67, 127
1, 150763, Note_off_c, 7, 67, 127
1, 150763, Note_off_c, 4, 52, 127
1, 150765, Note_on_c, 5, 41, 127
1, 150765, Note_on_c, 10, 69, 127
1, 150919, Note_on_c, 12, 71, 127
1, 150994, Note_off_c, 12, 71, 127
1, 150996, Note_on_c, 0, 72, 127
1, 151070, Note_off_c, 10, 69, 127
1, 151072, Note_off_c, 0, 72, 127
1, 151072, Note_off_c, 5, 41, 127
1, 151074, Note_on_c, 5, 53, 127
1, 151074, Note_on_c, 10, 69, 127
1, 151074, Note_on_c, 5, 65, 127
1, 151228, Note_on_c, 0, 72, 127
1, 151378, Note_off_c, 5, 65, 127
1, 151378, Note_off_c, 10, 69, 127
1, 151380, Note_off_c, 0, 72, 127
1, 151380, Note_off_c, 5, 53, 127
1, 151382, Note_on_c, 5, 41, 127
1, 151382, Note_on_c, 10, 69, 127
1, 151382, Note_on_c, 5, 65, 127
1, 151536, Note_on_c, 0, 72, 127
1, 151686, Note_off_c, 5, 65, 127
1, 151686, Note_off_c, 10, 69, 127
1, 151688, Note_off_c, 0, 72, 127
1, 151688, Note_off_c, 5, 41, 127
1, 151690, Note_on_c, 5, 53, 127
1, 151690, Note_on_c, 10, 69, 127
1, 151690, Note_on_c, 5, 65, 127
1, 151842, Note_off_c, 5, 65, 127
1, 151842, Note_off_c, 10, 69, 127
1, 151844, Note_on_c, 0, 72, 127
1, 151996, Note_off_c, 0, 72, 127
1, 151996, Note_off_c, 5, 53, 127
1, 151998, Note_on_c, 4, 52, 127
1, 151998, Note_on_c, 7, 67, 127
1, 151998, Note_on_c, 0, 60, 127
1, 152150, Note_off_c, 4, 52, 127
1, 152152, Note_on_c, 2, 50, 127
1, 152304, Note_off_c, 2, 50, 127
1, 152304, Note_off_c, 7, 67, 127
1, 152306, Note_on_c, 0, 48, 127
1, 152306, Note_on_c, 0, 72, 127
1, 152458, Note_off_c, 0, 48, 127
1, 152460, Note_on_c, 2, 50, 127
1, 152607, Note_off_c, 0, 60, 127
1, 152612, Note_off_c, 2, 50, 127
1, 152614, Note_on_c, 4, 52, 127
1, 152614, Note_on_c, 0, 60, 127
1, 152766, Note_off_c, 4, 52, 127
1, 152768, Note_on_c, 2, 50, 127
1, 152915, Note_off_c, 0, 72, 127
1, 152920, Note_off_c, 2, 50, 127
1, 152920, Note_off_c, 0, 60, 127
1, 152922, Note_on_c, 4, 52, 127
1, 152922, Note_on_c, 0, 72, 127
1, 152922, Note_on_c, 7, 67, 127
1, 152922, Note_on_c, 4, 64, 127
1, 153074, Note_off_c, 4, 52, 127
1, 153076, Note_on_c, 0, 48, 127
1, 153228, Note_off_c, 0, 48, 127
1, 153228, Note_off_c, 4, 64, 127
1, 153228, Note_off_c, 7, 67, 127
1, 153228, Note_off_c, 0, 72, 127
1, 153230, Note_on_c, 7, 43, 127
1, 153230, Note_on_c, 7, 67, 127
1, 153230, Note_on_c, 2, 62, 127
1, 153230, Note_on_c, 12, 71, 127
1, 153384, Note_off_c, 12, 71, 127
1, 153384, Note_off_c, 7, 67, 127
1, 153386, Note_on_c, 10, 69, 127
1, 153540, Note_off_c, 10, 69, 127
1, 153540, Note_off_c, 7, 43, 127
1, 153542, Note_on_c, 7, 55, 127
1, 153542, Note_on_c, 7, 67, 127
1, 153696, Note_off_c, 7, 67, 127
1, 153698, Note_on_c, 10, 69, 127
1, 153847, Note_off_c, 2, 62, 127
1, 153852, Note_off_c, 10, 69, 127
1, 153852, Note_off_c, 7, 55, 127
1, 153854, Note_on_c, 7, 43, 127
1, 153854, Note_on_c, 12, 71, 127
1, 154008, Note_off_c, 12, 71, 127
1, 154010, Note_on_c, 10, 69, 127
1, 154164, Note_off_c, 10, 69, 127
1, 154164, Note_off_c, 7, 43, 127
1, 154166, Note_on_c, 7, 55, 127
1, 154166, Note_on_c, 12, 71, 127
1, 154320, Note_off_c, 12, 71, 127
1, 154322, Note_on_c, 7, 67, 127
1, 154476, Note_off_c, 7, 67, 127
1, 154476, Note_off_c, 7, 55, 127
1, 154478, Note_on_c, 4, 52, 127
1, 154478, Note_on_c, 0, 72, 127
1, 154632, Note_off_c, 4, 52, 127
1, 154634, Note_on_c, 2, 50, 127
1, 154788, Note_off_c, 2, 50, 127
1, 154790, Note_on_c, 0, 48, 127
1, 154790, Note_on_c, 0, 84, 127
1, 154944, Note_off_c, 0, 48, 127
1, 154946, Note_on_c, 2, 50, 127
1, 155095, Note_off_c, 0, 72, 127
1, 155100, Note_off_c, 2, 50, 127
1, 155102, Note_on_c, 4, 52, 127
1, 155102, Note_on_c, 0, 72, 127
1, 155256, Note_off_c, 4, 52, 127
1, 155258, Note_on_c, 2, 50, 127
1, 155407, Note_off_c, 0, 84, 127
1, 155412, Note_off_c, 2, 50, 127
1, 155414, Note_on_c, 4, 52, 127
1, 155414, Note_on_c, 0, 84, 127
1, 155414, Note_on_c, 7, 79, 127
1, 155568, Note_off_c, 4, 52, 127
1, 155570, Note_on_c, 0, 48, 127
1, 155719, Note_off_c, 0, 72, 127
1, 155724, Note_off_c, 0, 48, 127
1, 155726, Note_on_c, 5, 53, 127
1, 155726, Note_on_c, 2, 74, 127
1, 155882, Note_off_c, 5, 53, 127
1, 155884, Note_on_c, 4, 52, 127
1, 156035, Note_off_c, 7, 79, 127
1, 156035, Note_off_c, 0, 84, 127
1, 156040, Note_off_c, 4, 52, 127
1, 156042, Note_on_c, 2, 50, 127
1, 156042, Note_on_c, 0, 84, 127
1, 156042, Note_on_c, 5, 77, 127
1, 156198, Note_off_c, 2, 50, 127
1, 156200, Note_on_c, 4, 52, 127
1, 156351, Note_off_c, 2, 74, 127
1, 156356, Note_off_c, 4, 52, 127
1, 156358, Note_on_c, 5, 53, 127
1, 156358, Note_on_c, 2, 74, 127
1, 156516, Note_off_c, 5, 53, 127
1, 156518, Note_on_c, 4, 52, 127
1, 156671, Note_off_c, 5, 77, 127
1, 156671, Note_off_c, 0, 84, 127
1, 156676, Note_off_c, 4, 52, 127
1, 156678, Note_on_c, 5, 53, 127
1, 156678, Note_on_c, 12, 83, 127
1, 156678, Note_on_c, 7, 79, 127
1, 156836, Note_off_c, 5, 53, 127
1, 156838, Note_on_c, 2, 50, 127
1, 156991, Note_off_c, 2, 74, 127
1, 156996, Note_off_c, 2, 50, 127
1, 156996, Note_off_c, 7, 79, 127
1, 156996, Note_off_c, 12, 83, 127
1, 156998, Note_on_c, 4, 52, 127
1, 156998, Note_on_c, 0, 72, 127
1, 156998, Note_on_c, 0, 84, 127
1, 156998, Note_on_c, 7, 79, 127
1, 157163, Note_off_c, 7, 79, 127
1, 157163, Note_off_c, 0, 84, 127
1, 157163, Note_off_c, 4, 52, 127
1, 157165, Note_on_c, 2, 50, 127
1, 157165, Note_on_c, 10, 81, 127
1, 157330, Note_off_c, 10, 81, 127
1, 157330, Note_off_c, 2, 50, 127
1, 157332, Note_on_c, 4, 52, 127
1, 157332, Note_on_c, 7, 79, 127
1, 157497, Note_off_c, 7, 79, 127
1, 157497, Note_off_c, 4, 52, 127
1, 157499, Note_on_c, 5, 53, 127
1, 157499, Note_on_c, 5, 77, 127
1, 157659, Note_off_c, 0, 72, 127
1, 157664, Note_off_c, 5, 77, 127
1, 157664, Note_off_c, 5, 53, 127
1, 157666, Note_on_c, 7, 55, 127
1, 157666, Note_on_c, 4, 76, 127
1, 158036, Note_off_c, 4, 76, 127
1, 158036, Note_off_c, 7, 55, 127
1, 158062, Note_on_c, 12, 71, 127
1, 158062, Note_on_c, 2, 74, 127
1, 158062, Note_on_c, 5, 65, 127
1, 158062, Note_on_c, 7, 43, 127
1, 158432, Note_off_c, 7, 43, 127
1, 158432, Note_off_c, 5, 65, 127
1, 158432, Note_off_c, 2, 74, 127
1, 158432, Note_off_c, 12, 71, 127
1, 158482, Note_on_c, 0, 36, 127
1, 158482, Note_on_c, 0, 48, 127
1, 158482, Note_on_c, 4, 64, 127
1, 158482, Note_on_c, 0, 72, 127
1, 158482, Note_on_c, 7, 67, 127
1, 161451, Note_off_c, 7, 67, 127
1, 161451, Note_off_c, 0, 72, 127
1, 161451, Note_off_c, 4, 64, 127
1, 161451, Note_off_c, 0, 48, 127
1, 161451, Note_off_c, 0, 36, 127
1, 164428, Note_on_c, 5, 53, 127
1, 164428, Note_on_c, 0, 48, 127
1, 164428, Note_on_c, 5, 41, 127
1, 164428, Note_on_c, 8, 68, 127
1, 164428, Note_on_c, 0, 72, 127
1, 164428, Note_on_c, 5, 77, 127
1, 164784, Note_off_c, 0, 72, 127
1, 164784, Note_off_c, 8, 68, 127
1, 164788, Note_on_c, 11, 70, 127
1, 164964, Note_off_c, 11, 70, 127
1, 164968, Note_on_c, 0, 72, 127
1, 165140, Note_off_c, 5, 77, 127
1, 165144, Note_off_c, 0, 72, 127
1, 165148, Note_on_c, 5, 65, 127
1, 165148, Note_on_c, 5, 77, 127
1, 165864, Note_off_c, 5, 77, 127
1, 165868, Note_on_c, 5, 77, 127
1, 166490, Note_off_c, 5, 41, 127
1, 166490, Note_off_c, 0, 48, 127
1, 166490, Note_off_c, 5, 53, 127
1, 166572, Note_off_c, 5, 65, 127
1, 166583, Note_off_c, 5, 77, 127
1, 166587, Note_on_c, 0, 60, 127
1, 166587, Note_on_c, 5, 53, 127
1, 166587, Note_on_c, 8, 56, 127
1, 166587, Note_on_c, 0, 72, 127
1, 167303, Note_off_c, 0, 72, 127
1, 167303, Note_off_c, 8, 56, 127
1, 167303, Note_off_c, 5, 53, 127
1, 167303, Note_off_c, 0, 60, 127
1, 167307, Note_on_c, 0, 60, 127
1, 167307, Note_on_c, 7, 55, 127
1, 167307, Note_on_c, 4, 52, 127
1, 167307, Note_on_c, 7, 79, 127
1, 167663, Note_off_c, 7, 55, 127
1, 167667, Note_on_c, 5, 53, 127
1, 167843, Note_off_c, 5, 53, 127
1, 167847, Note_on_c, 7, 55, 127
1, 168019, Note_off_c, 4, 52, 127
1, 168023, Note_off_c, 7, 79, 127
1, 168027, Note_on_c, 0, 48, 127
1, 168027, Note_on_c, 7, 79, 127
1, 168743, Note_off_c, 7, 79, 127
1, 168747, Note_on_c, 7, 79, 127
1, 169377, Note_off_c, 0, 48, 127
1, 169392, Note_off_c, 7, 55, 127
1, 169460, Note_off_c, 0, 60, 127
1, 169464, Note_off_c, 7, 79, 127
1, 169468, Note_on_c, 0, 60, 127
1, 169468, Note_on_c, 7, 55, 127
1, 169468, Note_on_c, 4, 52, 127
1, 169468, Note_on_c, 0, 72, 127
1, 170184, Note_off_c, 0, 72, 127
1, 170184, Note_off_c, 4, 52, 127
1, 170184, Note_off_c, 7, 55, 127
1, 170188, Note_on_c, 5, 53, 127
1, 170188, Note_on_c, 8, 80, 127
1, 170518, Note_off_c, 0, 60, 127
1, 170548, Note_on_c, 1, 61, 127
1, 170904, Note_off_c, 1, 61, 127
1, 170904, Note_off_c, 8, 80, 127
1, 170908, Note_on_c, 11, 58, 127
1, 170908, Note_on_c, 7, 79, 127
1, 171264, Note_off_c, 7, 79, 127
1, 171264, Note_off_c, 11, 58, 127
1, 171268, Note_on_c, 8, 56, 127
1, 171268, Note_on_c, 5, 77, 127
1, 171613, Note_off_c, 5, 53, 127
1, 171624, Note_off_c, 5, 77, 127
1, 171624, Note_off_c, 8, 56, 127
1, 171628, Note_on_c, 11, 58, 127
1, 171628, Note_on_c, 7, 79, 127
1, 171984, Note_off_c, 7, 79, 127
1, 171984, Note_off_c, 11, 58, 127
1, 171988, Note_on_c, 0, 60, 127
1, 171988, Note_on_c, 8, 80, 127
1, 172164, Note_off_c, 8, 80, 127
1, 172164, Note_off_c, 0, 60, 127
1, 172168, Note_on_c, 1, 61, 127
1, 172168, Note_on_c, 11, 82, 127
1, 172344, Note_off_c, 11, 82, 127
1, 172344, Note_off_c, 1, 61, 127
1, 172348, Note_on_c, 7, 55, 127
1, 172348, Note_on_c, 8, 80, 127
1, 172543, Note_off_c, 8, 80, 127
1, 172547, Note_on_c, 7, 79, 127
1, 172705, Note_off_c, 7, 55, 127
1, 172709, Note_on_c, 11, 58, 127
1, 172867, Note_off_c, 7, 79, 127
1, 172871, Note_on_c, 5, 77, 127
1, 173066, Note_off_c, 5, 77, 127
1, 173066, Note_off_c, 11, 58, 127
1, 173070, Note_on_c, 0, 60, 127
1, 173070, Note_on_c, 4, 76, 127
1, 173426, Note_off_c, 4, 76, 127
1, 173430, Note_on_c, 5, 77, 127
1, 173606, Note_off_c, 5, 77, 127
1, 173610, Note_on_c, 7, 79, 127
1, 173782, Note_off_c, 0, 60, 127
1, 173786, Note_off_c, 7, 79, 127
1, 173790, Note_on_c, 11, 70, 127
1, 173970, Note_on_c, 0, 60, 127
1, 174146, Note_off_c, 0, 60, 127
1, 174150, Note_on_c, 7, 55, 127
1, 174326, Note_off_c, 7, 55, 127
1, 174330, Note_on_c, 4, 52, 127
1, 174506, Note_off_c, 4, 52, 127
1, 174506, Note_off_c, 11, 70, 127
1, 174510, Note_on_c, 0, 48, 127
1, 174510, Note_on_c, 11, 70, 127
1, 174686, Note_off_c, 0, 48, 127
1, 174690, Note_on_c, 7, 55, 127
1, 174866, Note_off_c, 7, 55, 127
1, 174870, Note_on_c, 4, 52, 127
1, 175046, Note_off_c, 4, 52, 127
1, 175050, Note_on_c, 0, 48, 127
1, 175226, Note_off_c, 0, 48, 127
1, 175226, Note_off_c, 11, 70, 127
1, 175230, Note_on_c, 7, 43, 127
1, 175230, Note_on_c, 11, 70, 127
1, 175406, Note_off_c, 7, 43, 127
1, 175410, Note_on_c, 0, 48, 127
1, 175586, Note_off_c, 0, 48, 127
1, 175590, Note_on_c, 7, 43, 127
1, 175766, Note_off_c, 7, 43, 127
1, 175770, Note_on_c, 4, 40, 127
1, 175946, Note_off_c, 4, 40, 127
1, 175946, Note_off_c, 11, 70, 127
1, 175950, Note_on_c, 0, 36, 127
1, 175950, Note_on_c, 4, 76, 127
1, 176306, Note_off_c, 4, 76, 127
1, 176310, Note_on_c, 5, 77, 127
1, 176486, Note_off_c, 5, 77, 127
1, 176490, Note_on_c, 7, 79, 127
1, 176666, Note_off_c, 7, 79, 127
1, 176670, Note_on_c, 11, 70, 127
1, 177375, Note_off_c, 0, 36, 127
1, 177386, Note_off_c, 11, 70, 127
1, 177390, Note_on_c, 11, 70, 127
1, 177570, Note_on_c, 7, 43, 127
1, 177746, Note_off_c, 7, 43, 127
1, 177750, Note_on_c, 8, 44, 127
1, 177926, Note_off_c, 8, 44, 127
1, 177930, Note_on_c, 11, 46, 127
1, 178106, Note_off_c, 11, 46, 127
1, 178106, Note_off_c, 11, 70, 127
1, 178110, Note_on_c, 0, 48, 127
1, 178110, Note_on_c, 1, 73, 127
1, 178286, Note_off_c, 0, 48, 127
1, 178290, Note_on_c, 2, 50, 127
1, 178466, Note_off_c, 2, 50, 127
1, 178466, Note_off_c, 1, 73, 127
1, 178470, Note_on_c, 4, 52, 127
1, 178470, Note_on_c, 0, 72, 127
1, 178646, Note_off_c, 4, 52, 127
1, 178650, Note_on_c, 0, 48, 127
1, 178826, Note_off_c, 0, 48, 127
1, 178826, Note_off_c, 0, 72, 127
1, 178830, Note_on_c, 5, 53, 127
1, 178830, Note_on_c, 8, 68, 127
1, 179546, Note_off_c, 8, 68, 127
1, 179546, Note_off_c, 5, 53, 127
1, 179550, Note_on_c, 5, 41, 127
1, 179550, Note_on_c, 7, 67, 127
1, 179906, Note_off_c, 7, 67, 127
1, 179910, Note_on_c, 5, 65, 127
1, 180262, Note_off_c, 5, 41, 127
1, 180266, Note_off_c, 5, 65, 127
1, 180270, Note_on_c, 5, 65, 127
1, 180986, Note_off_c, 5, 65, 127
1, 180990, Note_on_c, 0, 60, 127
1, 180990, Note_on_c, 5, 53, 127
1, 180990, Note_on_c, 3, 51, 127
1, 180990, Note_on_c, 10, 69, 127
1, 181166, Note_off_c, 10, 69, 127
1, 181170, Note_on_c, 7, 67, 127
1, 181346, Note_off_c, 7, 67, 127
1, 181350, Note_on_c, 10, 69, 127
1, 181706, Note_off_c, 10, 69, 127
1, 181706, Note_off_c, 3, 51, 127
1, 181706, Note_off_c, 5, 53, 127
1, 181706, Note_off_c, 0, 60, 127
1, 181710, Note_on_c, 11, 58, 127
1, 181710, Note_on_c, 5, 53, 127
1, 181710, Note_on_c, 1, 49, 127
1, 181710, Note_on_c, 11, 70, 127
1, 182426, Note_off_c, 11, 70, 127
1, 182430, Note_on_c, 5, 65, 127
1, 183135, Note_off_c, 1, 49, 127
1, 183135, Note_off_c, 5, 53, 127
1, 183135, Note_off_c, 11, 58, 127
1, 183146, Note_off_c, 5, 65, 127
1, 183150, Note_on_c, 5, 65, 127
1, 183866, Note_off_c, 5, 65, 127
1, 183870, Note_on_c, 11, 46, 127
1, 183870, Note_on_c, 5, 53, 127
1, 183870, Note_on_c, 11, 70, 127
1, 184226, Note_off_c, 11, 70, 127
1, 184230, Note_on_c, 0, 72, 127
1, 184406, Note_off_c, 0, 72, 127
1, 184410, Note_on_c, 1, 73, 127
1, 184586, Note_off_c, 1, 73, 127
1, 184586, Note_off_c, 5, 53, 127
1, 184586, Note_off_c, 11, 46, 127
1, 184590, Note_on_c, 8, 44, 127
1, 184590, Note_on_c, 5, 53, 127
1, 184590, Note_on_c, 0, 72, 127
1, 184950, Note_on_c, 8, 80, 127
1, 185306, Note_off_c, 8, 80, 127
1, 185306, Note_off_c, 8, 44, 127
1, 185310, Note_on_c, 5, 41, 127
1, 185310, Note_on_c, 7, 79, 127
1, 185640, Note_off_c, 0, 72, 127
1, 185666, Note_off_c, 7, 79, 127
1, 185670, Note_on_c, 8, 80, 127
1, 186015, Note_off_c, 5, 53, 127
1, 186026, Note_off_c, 8, 80, 127
1, 186026, Note_off_c, 5, 41, 127
1, 186030, Note_on_c, 7, 43, 127
1, 186030, Note_on_c, 12, 71, 127
1, 186030, Note_on_c, 2, 74, 127
1, 186210, Note_on_c, 0, 72, 127
1, 186330, Note_off_c, 2, 74, 127
1, 186386, Note_off_c, 0, 72, 127
1, 186390, Note_on_c, 2, 74, 127
1, 186750, Note_on_c, 5, 53, 127
1, 187102, Note_off_c, 2, 74, 127
1, 187106, Note_off_c, 12, 71, 127
1, 187110, Note_on_c, 0, 72, 127
1, 187455, Note_off_c, 7, 43, 127
1, 187466, Note_off_c, 0, 72, 127
1, 187466, Note_off_c, 5, 53, 127
1, 187470, Note_on_c, 3, 51, 127
1, 187470, Note_on_c, 0, 48, 127
1, 187470, Note_on_c, 0, 72, 127
1, 187646, Note_off_c, 0, 72, 127
1, 187650, Note_on_c, 2, 74, 127
1, 187826, Note_off_c, 2, 74, 127
1, 187830, Note_on_c, 3, 75, 127
1, 188006, Note_off_c, 3, 75, 127
1, 188010, Note_on_c, 5, 77, 127
1, 188186, Note_off_c, 5, 77, 127
1, 188186, Note_off_c, 0, 48, 127
1, 188186, Note_off_c, 3, 51, 127
1, 188190, Note_on_c, 0, 60, 127
1, 188190, Note_on_c, 3, 51, 127
1, 188190, Note_on_c, 7, 79, 127
1, 188546, Note_off_c, 7, 79, 127
1, 188550, Note_on_c, 3, 75, 127
1, 188906, Note_off_c, 3, 75, 127
1, 188906, Note_off_c, 3, 51, 127
1, 188906, Note_off_c, 0, 60, 127
1, 188910, Note_on_c, 0, 60, 127
1, 188910, Note_on_c, 3, 51, 127
1, 188910, Note_on_c, 0, 72, 127
1, 189266, Note_off_c, 0, 72, 127
1, 189270, Note_on_c, 3, 75, 127
1, 189626, Note_off_c, 3, 75, 127
1, 189626, Note_off_c, 3, 51, 127
1, 189626, Note_off_c, 0, 60, 127
1, 189630, Note_on_c, 0, 60, 127
1, 189630, Note_on_c, 0, 48, 127
1, 189630, Note_on_c, 7, 79, 127
1, 189986, Note_off_c, 7, 79, 127
1, 189990, Note_on_c, 3, 75, 127
1, 190346, Note_off_c, 3, 75, 127
1, 190346, Note_off_c, 0, 48, 127
1, 190346, Note_off_c, 0, 60, 127
1, 190350, Note_on_c, 5, 53, 127
1, 190350, Note_on_c, 8, 80, 127
1, 190526, Note_off_c, 8, 80, 127
1, 190526, Note_off_c, 5, 53, 127
1, 190530, Note_on_c, 7, 55, 127
1, 190530, Note_on_c, 7, 79, 127
1, 190706, Note_off_c, 7, 79, 127
1, 190706, Note_off_c, 7, 55, 127
1, 190710, Note_on_c, 8, 56, 127
1, 190710, Note_on_c, 5, 77, 127
1, 190886, Note_off_c, 5, 77, 127
1, 190886, Note_off_c, 8, 56, 127
1, 190890, Note_on_c, 11, 58, 127
1, 190890, Note_on_c, 7, 79, 127
1, 191066, Note_off_c, 7, 79, 127
1, 191066, Note_off_c, 11, 58, 127
1, 191070, Note_on_c, 0, 60, 127
1, 191070, Note_on_c, 8, 80, 127
1, 191426, Note_off_c, 8, 80, 127
1, 191426, Note_off_c, 0, 60, 127
1, 191430, Note_on_c, 8, 56, 127
1, 191430, Note_on_c, 5, 77, 127
1, 191786, Note_off_c, 5, 77, 127
1, 191786, Note_off_c, 8, 56, 127
1, 191790, Note_on_c, 11, 58, 127
1, 191790, Note_on_c, 2, 74, 127
1, 192146, Note_off_c, 2, 74, 127
1, 192146, Note_off_c, 11, 58, 127
1, 192150, Note_on_c, 2, 62, 127
1, 192150, Note_on_c, 5, 77, 127
1, 192506, Note_off_c, 5, 77, 127
1, 192506, Note_off_c, 2, 62, 127
1, 192510, Note_on_c, 5, 65, 127
1, 192510, Note_on_c, 2, 74, 127
1, 192866, Note_off_c, 2, 74, 127
1, 192866, Note_off_c, 5, 65, 127
1, 192870, Note_on_c, 2, 62, 127
1, 192870, Note_on_c, 11, 70, 127
1, 193226, Note_off_c, 11, 70, 127
1, 193226, Note_off_c, 2, 62, 127
1, 193230, Note_on_c, 11, 58, 127
1, 193230, Note_on_c, 11, 70, 127
1, 193406, Note_off_c, 11, 70, 127
1, 193410, Note_on_c, 0, 72, 127
1, 193586, Note_off_c, 0, 72, 127
1, 193590, Note_on_c, 2, 74, 127
1, 193766, Note_off_c, 2, 74, 127
1, 193770, Note_on_c, 3, 75, 127
1, 193946, Note_off_c, 3, 75, 127
1, 193946, Note_off_c, 11, 58, 127
1, 193950, Note_on_c, 11, 58, 127
1, 193950, Note_on_c, 2, 50, 127
1, 193950, Note_on_c, 5, 77, 127
1, 194306, Note_off_c, 5, 77, 127
1, 194310, Note_on_c, 2, 74, 127
1, 194666, Note_off_c, 2, 74, 127
1, 194666, Note_off_c, 2, 50, 127
1, 194666, Note_off_c, 11, 58, 127
1, 194670, Note_on_c, 11, 58, 127
1, 194670, Note_on_c, 2, 50, 127
1, 194670, Note_on_c, 11, 70, 127
1, 195030, Note_on_c, 2, 74, 127
1, 195386, Note_off_c, 2, 74, 127
1, 195386, Note_off_c, 2, 50, 127
1, 195386, Note_off_c, 11, 58, 127
1, 195390, Note_on_c, 11, 58, 127
1, 195390, Note_on_c, 11, 46, 127
1, 195390, Note_on_c, 5, 77, 127
1, 195720, Note_off_c, 11, 70, 127
1, 195746, Note_off_c, 5, 77, 127
1, 195750, Note_on_c, 2, 74, 127
1, 196106, Note_off_c, 2, 74, 127
1, 196106, Note_off_c, 11, 46, 127
1, 196106, Note_off_c, 11, 58, 127
1, 196110, Note_on_c, 3, 51, 127
1, 196110, Note_on_c, 7, 79, 127
1, 196286, Note_off_c, 7, 79, 127
1, 196286, Note_off_c, 3, 51, 127
1, 196290, Note_on_c, 5, 53, 127
1, 196290, Note_on_c, 5, 77, 127
1, 196466, Note_off_c, 5, 77, 127
1, 196466, Note_off_c, 5, 53, 127
1, 196470, Note_on_c, 7, 55, 127
1, 196470, Note_on_c, 3, 75, 127
1, 196646, Note_off_c, 3, 75, 127
1, 196646, Note_off_c, 7, 55, 127
1, 196650, Note_on_c, 8, 56, 127
1, 196650, Note_on_c, 5, 77, 127
1, 196826, Note_off_c, 5, 77, 127
1, 196826, Note_off_c, 8, 56, 127
1, 196830, Note_on_c, 11, 58, 127
1, 196830, Note_on_c, 7, 79, 127
1, 197186, Note_off_c, 7, 79, 127
1, 197186, Note_off_c, 11, 58, 127
1, 197190, Note_on_c, 7, 55, 127
1, 197190, Note_on_c, 3, 75, 127
1, 197546, Note_off_c, 3, 75, 127
1, 197546, Note_off_c, 7, 55, 127
1, 197550, Note_on_c, 8, 56, 127
1, 197550, Note_on_c, 0, 72, 127
1, 197906, Note_off_c, 0, 72, 127
1, 197906, Note_off_c, 8, 56, 127
1, 197910, Note_on_c, 0, 60, 127
1, 197910, Note_on_c, 3, 75, 127
1, 198266, Note_off_c, 3, 75, 127
1, 198266, Note_off_c, 0, 60, 127
1, 198270, Note_on_c, 3, 63, 127
1, 198270, Note_on_c, 0, 72, 127
1, 198626, Note_off_c, 0, 72, 127
1, 198626, Note_off_c, 3, 63, 127
1, 198630, Note_on_c, 0, 60, 127
1, 198630, Note_on_c, 8, 68, 127
1, 198986, Note_off_c, 8, 68, 127
1, 198986, Note_off_c, 0, 60, 127
1, 198990, Note_on_c, 8, 56, 127
1, 198990, Note_on_c, 8, 68, 127
1, 199166, Note_off_c, 8, 68, 127
1, 199170, Note_on_c, 11, 70, 127
1, 199346, Note_off_c, 11, 70, 127
1, 199350, Note_on_c, 0, 72, 127
1, 199526, Note_off_c, 0, 72, 127
1, 199530, Note_on_c, 2, 74, 127
1, 199706, Note_off_c, 2, 74, 127
1, 199706, Note_off_c, 8, 56, 127
1, 199710, Note_on_c, 8, 56, 127
1, 199710, Note_on_c, 0, 48, 127
1, 199710, Note_on_c, 3, 75, 127
1, 200066, Note_off_c, 3, 75, 127
1, 200070, Note_on_c, 0, 72, 127
1, 200426, Note_off_c, 0, 72, 127
1, 200426, Note_off_c, 0, 48, 127
1, 200426, Note_off_c, 8, 56, 127
1, 200430, Note_on_c, 8, 56, 127
1, 200430, Note_on_c, 0, 48, 127
1, 200430, Note_on_c, 8, 68, 127
1, 200790, Note_on_c, 0, 72, 127
1, 201146, Note_off_c, 0, 72, 127
1, 201146, Note_off_c, 0, 48, 127
1, 201146, Note_off_c, 8, 56, 127
1, 201150, Note_on_c, 8, 44, 127
1, 201150, Note_on_c, 8, 56, 127
1, 201150, Note_on_c, 3, 75, 127
1, 201480, Note_off_c, 8, 68, 127
1, 201506, Note_off_c, 3, 75, 127
1, 201510, Note_on_c, 0, 72, 127
1, 201866, Note_off_c, 0, 72, 127
1, 201866, Note_off_c, 8, 56, 127
1, 201866, Note_off_c, 8, 44, 127
1, 201870, Note_on_c, 2, 50, 127
1, 201870, Note_on_c, 5, 77, 127
1, 202046, Note_off_c, 5, 77, 127
1, 202046, Note_off_c, 2, 50, 127
1, 202050, Note_on_c, 3, 51, 127
1, 202050, Note_on_c, 3, 75, 127
1, 202226, Note_off_c, 3, 75, 127
1, 202226, Note_off_c, 3, 51, 127
1, 202230, Note_on_c, 5, 53, 127
1, 202230, Note_on_c, 2, 74, 127
1, 202406, Note_off_c, 2, 74, 127
1, 202406, Note_off_c, 5, 53, 127
1, 202410, Note_on_c, 7, 55, 127
1, 202410, Note_on_c, 3, 75, 127
1, 202586, Note_off_c, 3, 75, 127
1, 202586, Note_off_c, 7, 55, 127
1, 202590, Note_on_c, 8, 56, 127
1, 202590, Note_on_c, 5, 77, 127
1, 202946, Note_off_c, 5, 77, 127
1, 202946, Note_off_c, 8, 56, 127
1, 202950, Note_on_c, 5, 53, 127
1, 202950, Note_on_c, 2, 74, 127
1, 203306, Note_off_c, 2, 74, 127
1, 203306, Note_off_c, 5, 53, 127
1, 203310, Note_on_c, 7, 55, 127
1, 203310, Note_on_c, 12, 71, 127
1, 203666, Note_off_c, 12, 71, 127
1, 203666, Note_off_c, 7, 55, 127
1, 203670, Note_on_c, 12, 59, 127
1, 203670, Note_on_c, 2, 74, 127
1, 204026, Note_off_c, 2, 74, 127
1, 204026, Note_off_c, 12, 59, 127
1, 204030, Note_on_c, 2, 62, 127
1, 204030, Note_on_c, 12, 71, 127
1, 204386, Note_off_c, 12, 71, 127
1, 204386, Note_off_c, 2, 62, 127
1, 204390, Note_on_c, 12, 59, 127
1, 204390, Note_on_c, 7, 67, 127
1, 204746, Note_off_c, 7, 67, 127
1, 204746, Note_off_c, 12, 59, 127
1, 204750, Note_on_c, 7, 55, 127
1, 204750, Note_on_c, 5, 65, 127
1, 204926, Note_off_c, 5, 65, 127
1, 204930, Note_on_c, 7, 67, 127
1, 205106, Note_off_c, 7, 67, 127
1, 205110, Note_on_c, 12, 71, 127
1, 205286, Note_off_c, 12, 71, 127
1, 205290, Note_on_c, 0, 72, 127
1, 205466, Note_off_c, 0, 72, 127
1, 205466, Note_off_c, 7, 55, 127
1, 205470, Note_on_c, 7, 55, 127
1, 205470, Note_on_c, 12, 47, 127
1, 205470, Note_on_c, 2, 74, 127
1, 205826, Note_off_c, 2, 74, 127
1, 205830, Note_on_c, 12, 71, 127
1, 206186, Note_off_c, 12, 71, 127
1, 206186, Note_off_c, 12, 47, 127
1, 206186, Note_off_c, 7, 55, 127
1, 206190, Note_on_c, 7, 55, 127
1, 206190, Note_on_c, 12, 47, 127
1, 206190, Note_on_c, 5, 65, 127
1, 206550, Note_on_c, 12, 71, 127
1, 206730, Note_off_c, 5, 65, 127
1, 206906, Note_off_c, 12, 71, 127
1, 206906, Note_off_c, 12, 47, 127
1, 206906, Note_off_c, 7, 55, 127
1, 206910, Note_on_c, 7, 55, 127
1, 206910, Note_on_c, 7, 43, 127
1, 206910, Note_on_c, 2, 74, 127
1, 207266, Note_off_c, 2, 74, 127
1, 207270, Note_on_c, 12, 71, 127
1, 207626, Note_off_c, 12, 71, 127
1, 207626, Note_off_c, 7, 43, 127
1, 207630, Note_on_c, 0, 48, 127
1, 207630, Note_on_c, 3, 63, 127
1, 207806, Note_off_c, 3, 63, 127
1, 207810, Note_on_c, 7, 67, 127
1, 207986, Note_off_c, 7, 67, 127
1, 207990, Note_on_c, 10, 69, 127
1, 208166, Note_off_c, 10, 69, 127
1, 208170, Note_on_c, 12, 71, 127
1, 208335, Note_off_c, 7, 55, 127
1, 208346, Note_off_c, 12, 71, 127
1, 208346, Note_off_c, 0, 48, 127
1, 208350, Note_on_c, 11, 58, 127
1, 208350, Note_on_c, 0, 72, 127
1, 208710, Note_on_c, 7, 67, 127
1, 209066, Note_off_c, 7, 67, 127
1, 209066, Note_off_c, 11, 58, 127
1, 209070, Note_on_c, 8, 56, 127
1, 209070, Note_on_c, 3, 63, 127
1, 209426, Note_off_c, 3, 63, 127
1, 209430, Note_on_c, 7, 67, 127
1, 209775, Note_off_c, 0, 72, 127
1, 209786, Note_off_c, 7, 67, 127
1, 209786, Note_off_c, 8, 56, 127
1, 209790, Note_on_c, 7, 55, 127
1, 209790, Note_on_c, 0, 72, 127
1, 210150, Note_on_c, 7, 67, 127
1, 210502, Note_off_c, 0, 72, 127
1, 210506, Note_off_c, 7, 67, 127
1, 210506, Note_off_c, 7, 55, 127
1, 210510, Note_on_c, 5, 53, 127
1, 210510, Note_on_c, 2, 62, 127
1, 210686, Note_off_c, 2, 62, 127
1, 210690, Note_on_c, 5, 65, 127
1, 210866, Note_off_c, 5, 65, 127
1, 210870, Note_on_c, 8, 68, 127
1, 211046, Note_off_c, 8, 68, 127
1, 211050, Note_on_c, 12, 71, 127
1, 211226, Note_off_c, 12, 71, 127
1, 211226, Note_off_c, 5, 53, 127
1, 211230, Note_on_c, 2, 50, 127
1, 211230, Note_on_c, 0, 72, 127
1, 211590, Note_on_c, 5, 65, 127
1, 211942, Note_off_c, 0, 72, 127
1, 211946, Note_off_c, 5, 65, 127
1, 211946, Note_off_c, 2, 50, 127
1, 211950, Note_on_c, 7, 55, 127
1, 211950, Note_on_c, 2, 62, 127
1, 212310, Note_on_c, 5, 65, 127
1, 212662, Note_off_c, 2, 62, 127
1, 212666, Note_off_c, 5, 65, 127
1, 212666, Note_off_c, 7, 55, 127
1, 212670, Note_on_c, 7, 43, 127
1, 212670, Note_on_c, 12, 71, 127
1, 213030, Note_on_c, 5, 65, 127
1, 213382, Note_off_c, 12, 71, 127
1, 213386, Note_off_c, 5, 65, 127
1, 213386, Note_off_c, 7, 43, 127
1, 213390, Note_on_c, 0, 48, 127
1, 213390, Note_on_c, 0, 72, 127
1, 213390, Note_on_c, 3, 63, 127
1, 213750, Note_on_c, 5, 65, 127
1, 213926, Note_off_c, 5, 65, 127
1, 213930, Note_on_c, 7, 67, 127
1, 214102, Note_off_c, 3, 63, 127
1, 214102, Note_off_c, 0, 72, 127
1, 214106, Note_off_c, 7, 67, 127
1, 214110, Note_on_c, 0, 60, 127
1, 214110, Note_on_c, 0, 72, 127
1, 214822, Note_off_c, 0, 72, 127
1, 214830, Note_on_c, 0, 72, 127
1, 215190, Note_off_c, 0, 48, 127
1, 215535, Note_off_c, 0, 60, 127
1, 215543, Note_off_c, 0, 72, 127
1, 215551, Note_on_c, 0, 60, 127
1, 215551, Note_on_c, 3, 63, 127
1, 215551, Note_on_c, 7, 67, 127
1, 216267, Note_off_c, 7, 67, 127
1, 216267, Note_off_c, 3, 63, 127
1, 216267, Note_off_c, 0, 60, 127
1, 216271, Note_on_c, 12, 59, 127
1, 216271, Note_on_c, 2, 62, 127
1, 216271, Note_on_c, 7, 67, 127
1, 216271, Note_on_c, 2, 74, 127
1, 216627, Note_off_c, 12, 59, 127
1, 216631, Note_on_c, 0, 60, 127
1, 216807, Note_off_c, 0, 60, 127
1, 216811, Note_off_c, 2, 62, 127
1, 216811, Note_on_c, 2, 62, 127
1, 216987, Note_off_c, 2, 62, 127
1, 216987, Note_off_c, 2, 74, 127
1, 216987, Note_off_c, 7, 67, 127
1, 216991, Note_on_c, 7, 55, 127
1, 216991, Note_on_c, 2, 74, 127
1, 217707, Note_off_c, 2, 74, 127
1, 217711, Note_on_c, 2, 74, 127
1, 218041, Note_off_c, 7, 55, 127
1, 218427, Note_off_c, 2, 74, 127
1, 218431, Note_on_c, 12, 59, 127
1, 218431, Note_on_c, 7, 67, 127
1, 218431, Note_on_c, 2, 62, 127
1, 219147, Note_off_c, 2, 62, 127
1, 219147, Note_off_c, 7, 67, 127
1, 219147, Note_off_c, 12, 59, 127
1, 219151, Note_on_c, 0, 60, 127
1, 219151, Note_on_c, 3, 75, 127
1, 219507, Note_off_c, 3, 75, 127
1, 219511, Note_on_c, 5, 77, 127
1, 219687, Note_off_c, 5, 77, 127
1, 219691, Note_on_c, 7, 79, 127
1, 219867, Note_off_c, 7, 79, 127
1, 219871, Note_on_c, 0, 48, 127
1, 219871, Note_on_c, 5, 77, 127
1, 220085, Note_off_c, 5, 77, 127
1, 220089, Note_on_c, 3, 75, 127
1, 220408, Note_off_c, 3, 75, 127
1, 220412, Note_on_c, 2, 74, 127
1, 220577, Note_off_c, 0, 60, 127
1, 220585, Note_off_c, 0, 48, 127
1, 220589, Note_off_c, 2, 74, 127
1, 220593, Note_on_c, 3, 75, 127
1, 220769, Note_off_c, 3, 75, 127
1, 220773, Note_on_c, 2, 74, 127
1, 220949, Note_off_c, 2, 74, 127
1, 220953, Note_on_c, 0, 72, 127
1, 221129, Note_off_c, 0, 72, 127
1, 221133, Note_on_c, 2, 74, 127
1, 221309, Note_off_c, 2, 74, 127
1, 221313, Note_on_c, 0, 60, 127
1, 221313, Note_on_c, 11, 58, 127
1, 221313, Note_on_c, 3, 75, 127
1, 221549, Note_off_c, 3, 75, 127
1, 221553, Note_on_c, 2, 74, 127
1, 221789, Note_off_c, 2, 74, 127
1, 221834, Note_on_c, 4, 76, 127
1, 222029, Note_off_c, 4, 76, 127
1, 222029, Note_off_c, 11, 58, 127
1, 222029, Note_off_c, 0, 60, 127
1, 222033, Note_on_c, 0, 60, 127
1, 222033, Note_on_c, 8, 56, 127
1, 222033, Note_on_c, 5, 77, 127
1, 222389, Note_off_c, 8, 56, 127
1, 222389, Note_off_c, 0, 60, 127
1, 222393, Note_on_c, 11, 58, 127
1, 222569, Note_off_c, 11, 58, 127
1, 222573, Note_on_c, 0, 60, 127
1, 222749, Note_off_c, 0, 60, 127
1, 222749, Note_off_c, 5, 77, 127
1, 222753, Note_on_c, 5, 53, 127
1, 222753, Note_on_c, 5, 77, 127
1, 223469, Note_off_c, 5, 77, 127
1, 223473, Note_on_c, 5, 77, 127
1, 223728, Note_off_c, 5, 53, 127
1, 224189, Note_off_c, 5, 77, 127
1, 224193, Note_on_c, 8, 56, 127
1, 224193, Note_on_c, 0, 60, 127
1, 224193, Note_on_c, 5, 53, 127
1, 224193, Note_on_c, 0, 72, 127
1, 224909, Note_off_c, 0, 72, 127
1, 224909, Note_off_c, 5, 53, 127
1, 224909, Note_off_c, 0, 60, 127
1, 224909, Note_off_c, 8, 56, 127
1, 224913, Note_on_c, 0, 60, 127
1, 224913, Note_on_c, 7, 55, 127
1, 224913, Note_on_c, 4, 52, 127
1, 224913, Note_on_c, 7, 79, 127
1, 225269, Note_off_c, 4, 52, 127
1, 225269, Note_off_c, 7, 55, 127
1, 225273, Note_on_c, 5, 53, 127
1, 225449, Note_off_c, 5, 53, 127
1, 225453, Note_on_c, 7, 55, 127
1, 225629, Note_off_c, 7, 55, 127
1, 225629, Note_off_c, 7, 79, 127
1, 225633, Note_on_c, 0, 48, 127
1, 225633, Note_on_c, 7, 79, 127
1, 226338, Note_off_c, 0, 60, 127
1, 226349, Note_off_c, 7, 79, 127
1, 226353, Note_on_c, 7, 79, 127
1, 226683, Note_off_c, 0, 48, 127
1, 227069, Note_off_c, 7, 79, 127
1, 227073, Note_on_c, 7, 55, 127
1, 227073, Note_on_c, 0, 60, 127
1, 227073, Note_on_c, 4, 52, 127
1, 227073, Note_on_c, 0, 72, 127
1, 227789, Note_off_c, 0, 72, 127
1, 227789, Note_off_c, 4, 52, 127
1, 227789, Note_off_c, 7, 55, 127
1, 227793, Note_on_c, 5, 53, 127
1, 227793, Note_on_c, 8, 80, 127
1, 228498, Note_off_c, 0, 60, 127
1, 228509, Note_off_c, 8, 80, 127
1, 228513, Note_on_c, 11, 58, 127
1, 228513, Note_on_c, 7, 79, 127
1, 228869, Note_off_c, 7, 79, 127
1, 228869, Note_off_c, 11, 58, 127
1, 228873, Note_on_c, 8, 56, 127
1, 228873, Note_on_c, 5, 77, 127
1, 229218, Note_off_c, 5, 53, 127
1, 229229, Note_off_c, 5, 77, 127
1, 229229, Note_off_c, 8, 56, 127
1, 229233, Note_on_c, 11, 58, 127
1, 229233, Note_on_c, 7, 79, 127
1, 229589, Note_off_c, 7, 79, 127
1, 229589, Note_off_c, 11, 58, 127
1, 229593, Note_on_c, 0, 60, 127
1, 229593, Note_on_c, 8, 80, 127
1, 229769, Note_off_c, 8, 80, 127
1, 229769, Note_off_c, 0, 60, 127
1, 229773, Note_on_c, 1, 61, 127
1, 229773, Note_on_c, 11, 82, 127
1, 229949, Note_off_c, 11, 82, 127
1, 229949, Note_off_c, 1, 61, 127
1, 229953, Note_on_c, 7, 55, 127
1, 229953, Note_on_c, 8, 80, 127
1, 230167, Note_off_c, 8, 80, 127
1, 230171, Note_on_c, 7, 79, 127
1, 230310, Note_off_c, 7, 55, 127
1, 230314, Note_on_c, 11, 58, 127
1, 230453, Note_off_c, 7, 79, 127
1, 230457, Note_on_c, 5, 77, 127
1, 230671, Note_off_c, 5, 77, 127
1, 230671, Note_off_c, 11, 58, 127
1, 230675, Note_on_c, 0, 60, 127
1, 230675, Note_on_c, 4, 76, 127
1, 231031, Note_off_c, 4, 76, 127
1, 231035, Note_on_c, 5, 77, 127
1, 231211, Note_off_c, 5, 77, 127
1, 231215, Note_on_c, 7, 79, 127
1, 231391, Note_off_c, 7, 79, 127
1, 231395, Note_on_c, 11, 70, 127
1, 231751, Note_off_c, 0, 60, 127
1, 231755, Note_on_c, 2, 62, 127
1, 231931, Note_off_c, 2, 62, 127
1, 231935, Note_on_c, 4, 64, 127
1, 232111, Note_off_c, 4, 64, 127
1, 232111, Note_off_c, 11, 70, 127
1, 232115, Note_on_c, 7, 55, 127
1, 232115, Note_on_c, 11, 70, 127
1, 232471, Note_off_c, 7, 55, 127
1, 232475, Note_on_c, 8, 56, 127
1, 232651, Note_off_c, 8, 56, 127
1, 232655, Note_on_c, 11, 58, 127
1, 232831, Note_off_c, 11, 58, 127
1, 232831, Note_off_c, 11, 70, 127
1, 232835, Note_on_c, 4, 52, 127
1, 232835, Note_on_c, 11, 70, 127
1, 233191, Note_off_c, 4, 52, 127
1, 233195, Note_on_c, 5, 53, 127
1, 233371, Note_off_c, 5, 53, 127
1, 233375, Note_on_c, 7, 55, 127
1, 233551, Note_off_c, 7, 55, 127
1, 233551, Note_off_c, 11, 70, 127
1, 233555, Note_on_c, 0, 48, 127
1, 233555, Note_on_c, 4, 76, 127
1, 233911, Note_off_c, 4, 76, 127
1, 233911, Note_off_c, 0, 48, 127
1, 233915, Note_on_c, 2, 50, 127
1, 233915, Note_on_c, 5, 77, 127
1, 234091, Note_off_c, 5, 77, 127
1, 234091, Note_off_c, 2, 50, 127
1, 234095, Note_on_c, 4, 52, 127
1, 234095, Note_on_c, 7, 79, 127
1, 234271, Note_off_c, 7, 79, 127
1, 234271, Note_off_c, 4, 52, 127
1, 234275, Note_on_c, 7, 43, 127
1, 234275, Note_on_c, 11, 70, 127
1, 234631, Note_off_c, 7, 43, 127
1, 234635, Note_on_c, 8, 44, 127
1, 234811, Note_off_c, 8, 44, 127
1, 234815, Note_on_c, 11, 46, 127
1, 234991, Note_off_c, 11, 46, 127
1, 234991, Note_off_c, 11, 70, 127
1, 234995, Note_on_c, 4, 40, 127
1, 234995, Note_on_c, 11, 70, 127
1, 235351, Note_off_c, 4, 40, 127
1, 235355, Note_on_c, 5, 41, 127
1, 235531, Note_off_c, 5, 41, 127
1, 235535, Note_on_c, 7, 43, 127
1, 235711, Note_off_c, 7, 43, 127
1, 235711, Note_off_c, 11, 70, 127
1, 235715, Note_on_c, 0, 36, 127
1, 235715, Note_on_c, 11, 70, 127
1, 236071, Note_off_c, 0, 36, 127
1, 236075, Note_on_c, 2, 38, 127
1, 236251, Note_off_c, 2, 38, 127
1, 236255, Note_on_c, 4, 40, 127
1, 236431, Note_off_c, 4, 40, 127
1, 236431, Note_off_c, 11, 70, 127
1, 236435, Note_on_c, 5, 41, 127
1, 236435, Note_on_c, 8, 68, 127
1, 237151, Note_off_c, 8, 68, 127
1, 237151, Note_off_c, 5, 41, 127
1, 237155, Note_on_c, 5, 53, 127
1, 237155, Note_on_c, 7, 67, 127
1, 237511, Note_off_c, 7, 67, 127
1, 237515, Note_on_c, 8, 68, 127
1, 237691, Note_off_c, 8, 68, 127
1, 237695, Note_on_c, 5, 65, 127
1, 237871, Note_off_c, 5, 65, 127
1, 237871, Note_off_c, 5, 53, 127
1, 237875, Note_on_c, 5, 53, 127
1, 237875, Note_on_c, 5, 65, 127
1, 238051, Note_off_c, 5, 65, 127
1, 238055, Note_on_c, 8, 68, 127
1, 238231, Note_off_c, 8, 68, 127
1, 238235, Note_on_c, 7, 67, 127
1, 238411, Note_off_c, 7, 67, 127
1, 238415, Note_on_c, 5, 65, 127
1, 238591, Note_off_c, 5, 65, 127
1, 238591, Note_off_c, 5, 53, 127
1, 238595, Note_on_c, 3, 51, 127
1, 238595, Note_on_c, 0, 72, 127
1, 238771, Note_off_c, 0, 72, 127
1, 238775, Note_on_c, 3, 75, 127
1, 238951, Note_off_c, 3, 75, 127
1, 238955, Note_on_c, 1, 73, 127
1, 239131, Note_off_c, 1, 73, 127
1, 239135, Note_on_c, 0, 72, 127
1, 239311, Note_off_c, 0, 72, 127
1, 239311, Note_off_c, 3, 51, 127
1, 239315, Note_on_c, 1, 49, 127
1, 239315, Note_on_c, 0, 72, 127
1, 239671, Note_off_c, 0, 72, 127
1, 239671, Note_off_c, 1, 49, 127
1, 239675, Note_on_c, 3, 51, 127
1, 239675, Note_on_c, 5, 77, 127
1, 239851, Note_off_c, 3, 51, 127
1, 239855, Note_on_c, 1, 49, 127
1, 240031, Note_off_c, 1, 49, 127
1, 240035, Note_on_c, 0, 48, 127
1, 240391, Note_off_c, 0, 48, 127
1, 240391, Note_off_c, 5, 77, 127
1, 240395, Note_on_c, 1, 49, 127
1, 240395, Note_on_c, 7, 79, 127
1, 240571, Note_off_c, 1, 49, 127
1, 240575, Note_on_c, 11, 46, 127
1, 240751, Note_off_c, 11, 46, 127
1, 240751, Note_off_c, 7, 79, 127
1, 240755, Note_on_c, 0, 48, 127
1, 240755, Note_on_c, 5, 77, 127
1, 241164, Note_off_c, 5, 77, 127
1, 241168, Note_on_c, 4, 76, 127
1, 241280, Note_on_c, 5, 77, 127
1, 241318, Note_off_c, 4, 76, 127
1, 241393, Note_on_c, 4, 76, 127
1, 241431, Note_off_c, 5, 77, 127
1, 241472, Note_off_c, 0, 48, 127
1, 241476, Note_on_c, 0, 36, 127
1, 241844, Note_off_c, 4, 76, 127
1, 241874, Note_on_c, 5, 77, 127
1, 242189, Note_off_c, 5, 77, 127
1, 242193, Note_off_c, 0, 36, 127
1, 242197, Note_on_c, 5, 41, 127
1, 242197, Note_on_c, 5, 77, 127
1, 242913, Note_off_c, 5, 77, 127
1, 242933, Note_on_c, 0, 60, 127
1, 242933, Note_on_c, 5, 65, 127
1, 242933, Note_on_c, 8, 56, 127
1, 243273, Note_off_c, 5, 41, 127
1, 243309, Note_on_c, 5, 53, 127
1, 243485, Note_off_c, 5, 53, 127
1, 243489, Note_on_c, 3, 51, 127
1, 243649, Note_off_c, 8, 56, 127
1, 243649, Note_off_c, 5, 65, 127
1, 243649, Note_off_c, 0, 60, 127
1, 243665, Note_off_c, 3, 51, 127
1, 243669, Note_on_c, 1, 49, 127
1, 243669, Note_on_c, 5, 65, 127
1, 243669, Note_on_c, 11, 58, 127
1, 243669, Note_on_c, 1, 61, 127
1, 244025, Note_off_c, 1, 49, 127
1, 244045, Note_on_c, 3, 51, 127
1, 244221, Note_off_c, 3, 51, 127
1, 244225, Note_on_c, 5, 53, 127
1, 244385, Note_off_c, 1, 61, 127
1, 244385, Note_off_c, 11, 58, 127
1, 244385, Note_off_c, 5, 65, 127
1, 244401, Note_off_c, 5, 53, 127
1, 244405, Note_on_c, 1, 61, 127
1, 244405, Note_on_c, 11, 58, 127
1, 244405, Note_on_c, 5, 65, 127
1, 244405, Note_on_c, 11, 46, 127
1, 244761, Note_off_c, 11, 46, 127
1, 244797, Note_on_c, 0, 48, 127
1, 244973, Note_off_c, 0, 48, 127
1, 244993, Note_on_c, 1, 49, 127
1, 245155, Note_off_c, 5, 65, 127
1, 245155, Note_off_c, 11, 58, 127
1, 245155, Note_off_c, 1, 61, 127
1, 245169, Note_off_c, 1, 49, 127
1, 245189, Note_on_c, 8, 56, 127
1, 245189, Note_on_c, 0, 60, 127
1, 245189, Note_on_c, 5, 65, 127
1, 245189, Note_on_c, 5, 41, 127
1, 245956, Note_off_c, 5, 65, 127
1, 245956, Note_off_c, 0, 60, 127
1, 245956, Note_off_c, 8, 56, 127
1, 246125, Note_on_c, 0, 84, 127
1, 246301, Note_off_c, 0, 84, 127
1, 246305, Note_on_c, 11, 82, 127
1, 246481, Note_off_c, 11, 82, 127
1, 246485, Note_on_c, 8, 80, 127
1, 246841, Note_off_c, 8, 80, 127
1, 246845, Note_on_c, 11, 82, 127
1, 246989, Note_off_c, 5, 41, 127
1, 247021, Note_off_c, 11, 82, 127
1, 247025, Note_on_c, 0, 84, 127
1, 247201, Note_off_c, 0, 84, 127
1, 247205, Note_on_c, 5, 77, 127
1, 247561, Note_off_c, 5, 77, 127
1, 247565, Note_on_c, 7, 79, 127
1, 247741, Note_off_c, 7, 79, 127
1, 247745, Note_on_c, 8, 80, 127
1, 247921, Note_off_c, 8, 80, 127
1, 247925, Note_on_c, 2, 74, 127
1, 247925, Note_on_c, 5, 53, 127
1, 247925, Note_on_c, 8, 56, 127
1, 248281, Note_off_c, 2, 74, 127
1, 248285, Note_on_c, 3, 75, 127
1, 248461, Note_off_c, 3, 75, 127
1, 248465, Note_on_c, 5, 77, 127
1, 248641, Note_off_c, 5, 77, 127
1, 248641, Note_off_c, 8, 56, 127
1, 248641, Note_off_c, 5, 53, 127
1, 248661, Note_on_c, 8, 56, 127
1, 248661, Note_on_c, 2, 50, 127
1, 248661, Note_on_c, 5, 65, 127
1, 248661, Note_on_c, 0, 72, 127
1, 249609, Note_on_c, 12, 71, 127
1, 249634, Note_off_c, 0, 72, 127
1, 249785, Note_off_c, 12, 71, 127
1, 249789, Note_on_c, 0, 72, 127
1, 249965, Note_off_c, 0, 72, 127
1, 249969, Note_on_c, 12, 71, 127
1, 250097, Note_off_c, 8, 56, 127
1, 250145, Note_off_c, 12, 71, 127
1, 250149, Note_on_c, 0, 72, 127
1, 250149, Note_on_c, 7, 55, 127
1, 250325, Note_off_c, 0, 72, 127
1, 250329, Note_on_c, 12, 71, 127
1, 250505, Note_off_c, 12, 71, 127
1, 250509, Note_on_c, 0, 72, 127
1, 250685, Note_off_c, 0, 72, 127
1, 250689, Note_on_c, 12, 71, 127
1, 250865, Note_off_c, 12, 71, 127
1, 250865, Note_off_c, 7, 55, 127
1, 250869, Note_on_c, 0, 72, 127
1, 250869, Note_on_c, 5, 53, 127
1, 251060, Note_on_c, 12, 71, 127
1, 251064, Note_off_c, 0, 72, 127
1, 251236, Note_off_c, 12, 71, 127
1, 251236, Note_on_c, 10, 69, 127
1, 251412, Note_off_c, 10, 69, 127
1, 251412, Note_on_c, 12, 71, 127
1, 251600, Note_off_c, 5, 53, 127
1, 251612, Note_off_c, 12, 71, 127
1, 251612, Note_off_c, 5, 65, 127
1, 251612, Note_off_c, 2, 50, 127
1, 251612, Note_on_c, 7, 55, 127
1, 251612, Note_on_c, 0, 48, 127
1, 251612, Note_on_c, 4, 64, 127
1, 251612, Note_on_c, 0, 72, 127
1, 254812, Note_off_c, 0, 72, 127
1, 254812, Note_off_c, 4, 64, 127
1, 254812, Note_off_c, 0, 48, 127
1, 254812, Note_off_c, 7, 55, 127
1, 256348, Note_on_c, 7, 67, 127
1, 256348, Note_on_c, 0, 48, 127
1, 256550, Note_on_c, 4, 64, 127
1, 256751, Note_off_c, 0, 48, 127
1, 256751, Note_off_c, 7, 67, 127
1, 256752, Note_on_c, 7, 67, 127
1, 256752, Note_on_c, 4, 52, 127
1, 256953, Note_off_c, 4, 64, 127
1, 256954, Note_on_c, 0, 60, 127
1, 257155, Note_off_c, 4, 52, 127
1, 257155, Note_off_c, 7, 67, 127
1, 257156, Note_on_c, 7, 67, 127
1, 257156, Note_on_c, 0, 48, 127
1, 257357, Note_off_c, 0, 60, 127
1, 257358, Note_on_c, 4, 64, 127
1, 257559, Note_off_c, 4, 64, 127
1, 257559, Note_off_c, 0, 48, 127
1, 257559, Note_off_c, 7, 67, 127
1, 257560, Note_on_c, 10, 69, 127
1, 257560, Note_on_c, 5, 53, 127
1, 257762, Note_on_c, 5, 65, 127
1, 257963, Note_off_c, 10, 69, 127
1, 257964, Note_on_c, 10, 69, 127
1, 258165, Note_off_c, 5, 65, 127
1, 258165, Note_off_c, 5, 53, 127
1, 258166, Note_on_c, 2, 62, 127
1, 258367, Note_off_c, 10, 69, 127
1, 258368, Note_on_c, 10, 69, 127
1, 258368, Note_on_c, 2, 50, 127
1, 258569, Note_off_c, 2, 62, 127
1, 258570, Note_on_c, 5, 65, 127
1, 258771, Note_off_c, 5, 65, 127
1, 258771, Note_off_c, 2, 50, 127
1, 258771, Note_off_c, 10, 69, 127
1, 258772, Note_on_c, 12, 71, 127
1, 258772, Note_on_c, 7, 55, 127
1, 258974, Note_on_c, 7, 67, 127
1, 259175, Note_off_c, 12, 71, 127
1, 259176, Note_on_c, 12, 71, 127
1, 259377, Note_off_c, 7, 67, 127
1, 259377, Note_off_c, 7, 55, 127
1, 259378, Note_on_c, 4, 64, 127
1, 259579, Note_off_c, 12, 71, 127
1, 259580, Note_on_c, 12, 71, 127
1, 259580, Note_on_c, 4, 52, 127
1, 259781, Note_off_c, 4, 64, 127
1, 259782, Note_on_c, 7, 67, 127
1, 259983, Note_off_c, 7, 67, 127
1, 259983, Note_off_c, 4, 52, 127
1, 259983, Note_off_c, 12, 71, 127
1, 259984, Note_on_c, 0, 72, 127
1, 259984, Note_on_c, 10, 57, 127
1, 260186, Note_on_c, 10, 69, 127
1, 260387, Note_off_c, 0, 72, 127
1, 260388, Note_on_c, 0, 72, 127
1, 260589, Note_off_c, 10, 69, 127
1, 260589, Note_off_c, 10, 57, 127
1, 260590, Note_on_c, 5, 65, 127
1, 260791, Note_off_c, 0, 72, 127
1, 260792, Note_on_c, 0, 72, 127
1, 260792, Note_on_c, 5, 53, 127
1, 260993, Note_off_c, 5, 65, 127
1, 260994, Note_on_c, 10, 69, 127
1, 261195, Note_off_c, 10, 69, 127
1, 261195, Note_off_c, 5, 53, 127
1, 261195, Note_off_c, 0, 72, 127
1, 261196, Note_on_c, 2, 74, 127
1, 261196, Note_on_c, 12, 59, 127
1, 261398, Note_on_c, 12, 71, 127
1, 261599, Note_off_c, 2, 74, 127
1, 261600, Note_on_c, 2, 74, 127
1, 261801, Note_off_c, 12, 71, 127
1, 261801, Note_off_c, 12, 59, 127
1, 261802, Note_on_c, 7, 67, 127
1, 262003, Note_off_c, 2, 74, 127
1, 262004, Note_on_c, 2, 74, 127
1, 262004, Note_on_c, 7, 55, 127
1, 262205, Note_off_c, 2, 74, 127
1, 262205, Note_off_c, 7, 67, 127
1, 262206, Note_on_c, 12, 71, 127
1, 262407, Note_off_c, 12, 71, 127
1, 262407, Note_off_c, 7, 55, 127
1, 262408, Note_on_c, 4, 76, 127
1, 262408, Note_on_c, 0, 60, 127
1, 262609, Note_off_c, 0, 60, 127
1, 262609, Note_off_c, 4, 76, 127
1, 262610, Note_on_c, 2, 74, 127
1, 262610, Note_on_c, 5, 53, 127
1, 262708, Note_off_c, 2, 74, 127
1, 262711, Note_on_c, 0, 72, 127
1, 262809, Note_off_c, 0, 72, 127
1, 262811, Note_off_c, 5, 53, 127
1, 262812, Note_on_c, 0, 72, 127
1, 262812, Note_on_c, 7, 55, 127
1, 263013, Note_off_c, 0, 72, 127
1, 263014, Note_on_c, 12, 71, 127
1, 263112, Note_off_c, 12, 71, 127
1, 263115, Note_on_c, 0, 72, 127
1, 263213, Note_off_c, 0, 72, 127
1, 263215, Note_off_c, 7, 55, 127
1, 263216, Note_on_c, 12, 71, 127
1, 263216, Note_on_c, 7, 43, 127
1, 263417, Note_off_c, 12, 71, 127
1, 263418, Note_on_c, 0, 72, 127
1, 263619, Note_off_c, 0, 72, 127
1, 263619, Note_off_c, 7, 43, 127
1, 263620, Note_on_c, 0, 72, 127
1, 263620, Note_on_c, 0, 48, 127
1, 263821, Note_off_c, 0, 48, 127
1, 263822, Note_on_c, 7, 55, 127
1, 264023, Note_off_c, 7, 55, 127
1, 264023, Note_off_c, 0, 72, 127
1, 264024, Note_on_c, 7, 67, 127
1, 264024, Note_on_c, 0, 60, 127
1, 264024, Note_on_c, 4, 64, 127
1, 264024, Note_on_c, 4, 52, 127
1, 264225, Note_off_c, 4, 52, 127
1, 264226, Note_on_c, 2, 50, 127
1, 264427, Note_off_c, 2, 50, 127
1, 264427, Note_off_c, 4, 64, 127
1, 264427, Note_off_c, 0, 60, 127
1, 264427, Note_off_c, 7, 67, 127
1, 264428, Note_on_c, 0, 60, 127
1, 264428, Note_on_c, 7, 67, 127
1, 264428, Note_on_c, 4, 64, 127
1, 264428, Note_on_c, 4, 52, 127
1, 264629, Note_off_c, 4, 52, 127
1, 264630, Note_on_c, 0, 48, 127
1, 264831, Note_off_c, 0, 48, 127
1, 264831, Note_off_c, 4, 64, 127
1, 264831, Note_off_c, 7, 67, 127
1, 264831, Note_off_c, 0, 60, 127
1, 264832, Note_on_c, 0, 60, 127
1, 264832, Note_on_c, 10, 69, 127
1, 264832, Note_on_c, 5, 65, 127
1, 264832, Note_on_c, 5, 53, 127
1, 265033, Note_off_c, 5, 53, 127
1, 265034, Note_on_c, 10, 57, 127
1, 265235, Note_off_c, 10, 57, 127
1, 265235, Note_off_c, 5, 65, 127
1, 265235, Note_off_c, 10, 69, 127
1, 265235, Note_off_c, 0, 60, 127
1, 265236, Note_on_c, 10, 69, 127
1, 265236, Note_on_c, 2, 62, 127
1, 265236, Note_on_c, 5, 65, 127
1, 265236, Note_on_c, 5, 53, 127
1, 265437, Note_off_c, 5, 53, 127
1, 265438, Note_on_c, 4, 52, 127
1, 265639, Note_off_c, 4, 52, 127
1, 265639, Note_off_c, 5, 65, 127
1, 265639, Note_off_c, 2, 62, 127
1, 265639, Note_off_c, 10, 69, 127
1, 265640, Note_on_c, 5, 65, 127
1, 265640, Note_on_c, 10, 69, 127
1, 265640, Note_on_c, 2, 62, 127
1, 265640, Note_on_c, 5, 53, 127
1, 265841, Note_off_c, 5, 53, 127
1, 265842, Note_on_c, 2, 50, 127
1, 266043, Note_off_c, 2, 50, 127
1, 266043, Note_off_c, 2, 62, 127
1, 266043, Note_off_c, 10, 69, 127
1, 266043, Note_off_c, 5, 65, 127
1, 266044, Note_on_c, 7, 67, 127
1, 266044, Note_on_c, 12, 71, 127
1, 266044, Note_on_c, 2, 62, 127
1, 266044, Note_on_c, 7, 55, 127
1, 266245, Note_off_c, 7, 55, 127
1, 266246, Note_on_c, 12, 59, 127
1, 266447, Note_off_c, 12, 59, 127
1, 266447, Note_off_c, 2, 62, 127
1, 266447, Note_off_c, 12, 71, 127
1, 266447, Note_off_c, 7, 67, 127
1, 266448, Note_on_c, 12, 71, 127
1, 266448, Note_on_c, 4, 64, 127
1, 266448, Note_on_c, 7, 67, 127
1, 266448, Note_on_c, 7, 55, 127
1, 266649, Note_off_c, 7, 55, 127
1, 266650, Note_on_c, 5, 53, 127
1, 266851, Note_off_c, 5, 53, 127
1, 266851, Note_off_c, 7, 67, 127
1, 266851, Note_off_c, 4, 64, 127
1, 266851, Note_off_c, 12, 71, 127
1, 266852, Note_on_c, 7, 67, 127
1, 266852, Note_on_c, 12, 71, 127
1, 266852, Note_on_c, 4, 64, 127
1, 266852, Note_on_c, 7, 55, 127
1, 267053, Note_off_c, 7, 55, 127
1, 267054, Note_on_c, 4, 52, 127
1, 267255, Note_off_c, 4, 52, 127
1, 267255, Note_off_c, 4, 64, 127
1, 267255, Note_off_c, 12, 71, 127
1, 267255, Note_off_c, 7, 67, 127
1, 267256, Note_on_c, 10, 69, 127
1, 267256, Note_on_c, 0, 72, 127
1, 267256, Note_on_c, 4, 64, 127
1, 267256, Note_on_c, 10, 57, 127
1, 267457, Note_off_c, 10, 57, 127
1, 267458, Note_on_c, 0, 60, 127
1, 267659, Note_off_c, 0, 60, 127
1, 267659, Note_off_c, 4, 64, 127
1, 267659, Note_off_c, 0, 72, 127
1, 267659, Note_off_c, 10, 69, 127
1, 267660, Note_on_c, 0, 72, 127
1, 267660, Note_on_c, 5, 65, 127
1, 267660, Note_on_c, 10, 69, 127
1, 267660, Note_on_c, 10, 57, 127
1, 267861, Note_off_c, 10, 57, 127
1, 267862, Note_on_c, 7, 55, 127
1, 268063, Note_off_c, 7, 55, 127
1, 268063, Note_off_c, 10, 69, 127
1, 268063, Note_off_c, 5, 65, 127
1, 268063, Note_off_c, 0, 72, 127
1, 268064, Note_on_c, 10, 69, 127
1, 268064, Note_on_c, 0, 72, 127
1, 268064, Note_on_c, 5, 65, 127
1, 268064, Note_on_c, 10, 57, 127
1, 268265, Note_off_c, 10, 57, 127
1, 268266, Note_on_c, 5, 53, 127
1, 268467, Note_off_c, 5, 53, 127
1, 268467, Note_off_c, 5, 65, 127
1, 268467, Note_off_c, 0, 72, 127
1, 268467, Note_off_c, 10, 69, 127
1, 268468, Note_on_c, 2, 74, 127
1, 268468, Note_on_c, 2, 62, 127
1, 268468, Note_on_c, 7, 67, 127
1, 268468, Note_on_c, 12, 59, 127
1, 268668, Note_off_c, 2, 62, 127
1, 268669, Note_off_c, 12, 59, 127
1, 268670, Note_on_c, 2, 62, 127
1, 268871, Note_off_c, 2, 62, 127
1, 268871, Note_off_c, 7, 67, 127
1, 268871, Note_off_c, 2, 74, 127
1, 268872, Note_on_c, 12, 71, 127
1, 268872, Note_on_c, 2, 74, 127
1, 268872, Note_on_c, 7, 67, 127
1, 268872, Note_on_c, 12, 59, 127
1, 269073, Note_off_c, 12, 59, 127
1, 269074, Note_on_c, 10, 57, 127
1, 269275, Note_off_c, 10, 57, 127
1, 269275, Note_off_c, 7, 67, 127
1, 269275, Note_off_c, 2, 74, 127
1, 269275, Note_off_c, 12, 71, 127
1, 269276, Note_on_c, 12, 71, 127
1, 269276, Note_on_c, 2, 74, 127
1, 269276, Note_on_c, 7, 67, 127
1, 269276, Note_on_c, 12, 59, 127
1, 269477, Note_off_c, 12, 59, 127
1, 269478, Note_on_c, 7, 55, 127
1, 269679, Note_off_c, 7, 55, 127
1, 269679, Note_off_c, 7, 67, 127
1, 269679, Note_off_c, 2, 74, 127
1, 269679, Note_off_c, 12, 71, 127
1, 269680, Note_on_c, 0, 72, 127
1, 269680, Note_on_c, 4, 76, 127
1, 269680, Note_on_c, 7, 67, 127
1, 269680, Note_on_c, 0, 60, 127
1, 269881, Note_off_c, 0, 60, 127
1, 269881, Note_off_c, 7, 67, 127
1, 269881, Note_off_c, 4, 76, 127
1, 269881, Note_off_c, 0, 72, 127
1, 269882, Note_on_c, 0, 72, 127
1, 269882, Note_on_c, 10, 69, 127
1, 269882, Note_on_c, 5, 53, 127
1, 270083, Note_off_c, 5, 53, 127
1, 270083, Note_off_c, 10, 69, 127
1, 270083, Note_off_c, 0, 72, 127
1, 270084, Note_on_c, 7, 67, 127
1, 270084, Note_on_c, 0, 72, 127
1, 270084, Note_on_c, 2, 62, 127
1, 270084, Note_on_c, 7, 55, 127
1, 270285, Note_off_c, 7, 55, 127
1, 270286, Note_on_c, 5, 53, 127
1, 270487, Note_off_c, 5, 53, 127
1, 270487, Note_off_c, 0, 72, 127
1, 270488, Note_on_c, 12, 71, 127
1, 270488, Note_on_c, 7, 55, 127
1, 270689, Note_off_c, 7, 55, 127
1, 270690, Note_on_c, 7, 43, 127
1, 270783, Note_off_c, 2, 62, 127
1, 270783, Note_off_c, 7, 67, 127
1, 270790, Note_off_c, 12, 71, 127
1, 270791, Note_on_c, 0, 72, 127
1, 270889, Note_off_c, 0, 72, 127
1, 270891, Note_off_c, 7, 43, 127
1, 270892, Note_on_c, 0, 72, 127
1, 270892, Note_on_c, 0, 48, 127
1, 270990, Note_off_c, 0, 72, 127
1, 270993, Note_on_c, 2, 74, 127
1, 271091, Note_off_c, 2, 74, 127
1, 271094, Note_on_c, 4, 76, 127
1, 271192, Note_off_c, 4, 76, 127
1, 271195, Note_on_c, 5, 77, 127
1, 271293, Note_off_c, 5, 77, 127
1, 271295, Note_off_c, 0, 48, 127
1, 271296, Note_on_c, 7, 79, 127
1, 271296, Note_on_c, 4, 52, 127
1, 271394, Note_off_c, 7, 79, 127
1, 271397, Note_on_c, 5, 77, 127
1, 271495, Note_off_c, 5, 77, 127
1, 271498, Note_on_c, 7, 79, 127
1, 271596, Note_off_c, 7, 79, 127
1, 271599, Note_on_c, 4, 76, 127
1, 271697, Note_off_c, 4, 76, 127
1, 271699, Note_off_c, 4, 52, 127
1, 271700, Note_on_c, 10, 81, 127
1, 271700, Note_on_c, 5, 53, 127
1, 271901, Note_off_c, 10, 81, 127
1, 271902, Note_on_c, 10, 69, 127
1, 272103, Note_off_c, 10, 69, 127
1, 272103, Note_off_c, 5, 53, 127
1, 272104, Note_on_c, 12, 71, 127
1, 272104, Note_on_c, 7, 55, 127
1, 272202, Note_off_c, 12, 71, 127
1, 272205, Note_on_c, 0, 72, 127
1, 272303, Note_off_c, 0, 72, 127
1, 272306, Note_on_c, 2, 74, 127
1, 272404, Note_off_c, 2, 74, 127
1, 272407, Note_on_c, 4, 76, 127
1, 272505, Note_off_c, 4, 76, 127
1, 272507, Note_off_c, 7, 55, 127
1, 272508, Note_on_c, 5, 77, 127
1, 272508, Note_on_c, 2, 50, 127
1, 272606, Note_off_c, 5, 77, 127
1, 272609, Note_on_c, 4, 76, 127
1, 272707, Note_off_c, 4, 76, 127
1, 272710, Note_on_c, 5, 77, 127
1, 272808, Note_off_c, 5, 77, 127
1, 272811, Note_on_c, 2, 74, 127
1, 272909, Note_off_c, 2, 74, 127
1, 272911, Note_off_c, 2, 50, 127
1, 272912, Note_on_c, 7, 79, 127
1, 272912, Note_on_c, 4, 52, 127
1, 273113, Note_off_c, 7, 79, 127
1, 273114, Note_on_c, 7, 67, 127
1, 273315, Note_off_c, 7, 67, 127
1, 273315, Note_off_c, 4, 52, 127
1, 273316, Note_on_c, 10, 69, 127
1, 273316, Note_on_c, 5, 53, 127
1, 273414, Note_off_c, 10, 69, 127
1, 273417, Note_on_c, 12, 71, 127
1, 273515, Note_off_c, 12, 71, 127
1, 273518, Note_on_c, 0, 72, 127
1, 273616, Note_off_c, 0, 72, 127
1, 273619, Note_on_c, 2, 74, 127
1, 273717, Note_off_c, 2, 74, 127
1, 273719, Note_off_c, 5, 53, 127
1, 273720, Note_on_c, 4, 76, 127
1, 273720, Note_on_c, 0, 48, 127
1, 273818, Note_off_c, 4, 76, 127
1, 273821, Note_on_c, 2, 74, 127
1, 273919, Note_off_c, 2, 74, 127
1, 273922, Note_on_c, 4, 76, 127
1, 274020, Note_off_c, 4, 76, 127
1, 274023, Note_on_c, 0, 72, 127
1, 274121, Note_off_c, 0, 72, 127
1, 274123, Note_off_c, 0, 48, 127
1, 274124, Note_on_c, 5, 77, 127
1, 274124, Note_on_c, 2, 50, 127
1, 274325, Note_off_c, 5, 77, 127
1, 274326, Note_on_c, 5, 65, 127
1, 274527, Note_off_c, 5, 65, 127
1, 274527, Note_off_c, 2, 50, 127
1, 274528, Note_on_c, 5, 77, 127
1, 274528, Note_on_c, 4, 52, 127
1, 274626, Note_off_c, 5, 77, 127
1, 274629, Note_on_c, 4, 76, 127
1, 274729, Note_off_c, 4, 52, 127
1, 274730, Note_on_c, 5, 53, 127
1, 274830, Note_off_c, 4, 76, 127
1, 274831, Note_on_c, 2, 74, 127
1, 274929, Note_off_c, 2, 74, 127
1, 274931, Note_off_c, 5, 53, 127
1, 274932, Note_on_c, 4, 76, 127
1, 274932, Note_on_c, 7, 55, 127
1, 275067, Note_off_c, 4, 76, 127
1, 275067, Note_on_c, 2, 74, 127
1, 275133, Note_off_c, 2, 74, 127
1, 275133, Note_off_c, 7, 55, 127
1, 275134, Note_on_c, 4, 76, 127
1, 275134, Note_on_c, 5, 53, 127
1, 275200, Note_off_c, 4, 76, 127
1, 275201, Note_on_c, 2, 74, 127
1, 275267, Note_off_c, 2, 74, 127
1, 275268, Note_on_c, 4, 76, 127
1, 275334, Note_off_c, 4, 76, 127
1, 275334, Note_off_c, 5, 53, 127
1, 275335, Note_on_c, 2, 74, 127
1, 275335, Note_on_c, 7, 55, 127
1, 275535, Note_off_c, 2, 74, 127
1, 275536, Note_off_c, 7, 55, 127
1, 275537, Note_on_c, 0, 72, 127
1, 275537, Note_on_c, 7, 43, 127
1, 275738, Note_off_c, 7, 43, 127
1, 275738, Note_off_c, 0, 72, 127
1, 275739, Note_on_c, 0, 72, 127
1, 275739, Note_on_c, 0, 48, 127
1, 275837, Note_off_c, 0, 48, 127
1, 275837, Note_off_c, 0, 72, 127
1, 275840, Note_on_c, 2, 74, 127
1, 275840, Note_on_c, 10, 57, 127
1, 275938, Note_off_c, 10, 57, 127
1, 275938, Note_off_c, 2, 74, 127
1, 275941, Note_on_c, 4, 76, 127
1, 275941, Note_on_c, 7, 55, 127
1, 276039, Note_off_c, 7, 55, 127
1, 276039, Note_off_c, 4, 76, 127
1, 276042, Note_on_c, 5, 77, 127
1, 276042, Note_on_c, 5, 53, 127
1, 276140, Note_off_c, 5, 53, 127
1, 276140, Note_off_c, 5, 77, 127
1, 276143, Note_on_c, 7, 79, 127
1, 276143, Note_on_c, 4, 52, 127
1, 276241, Note_off_c, 4, 52, 127
1, 276241, Note_off_c, 7, 79, 127
1, 276244, Note_on_c, 5, 77, 127
1, 276244, Note_on_c, 2, 50, 127
1, 276342, Note_off_c, 2, 50, 127
1, 276342, Note_off_c, 5, 77, 127
1, 276345, Note_on_c, 7, 79, 127
1, 276345, Note_on_c, 4, 52, 127
1, 276443, Note_off_c, 4, 52, 127
1, 276443, Note_off_c, 7, 79, 127
1, 276446, Note_on_c, 4, 76, 127
1, 276446, Note_on_c, 0, 48, 127
1, 276544, Note_off_c, 0, 48, 127
1, 276544, Note_off_c, 4, 76, 127
1, 276547, Note_on_c, 10, 81, 127
1, 276547, Note_on_c, 5, 53, 127
1, 276645, Note_off_c, 5, 53, 127
1, 276648, Note_on_c, 4, 52, 127
1, 276746, Note_off_c, 4, 52, 127
1, 276748, Note_off_c, 10, 81, 127
1, 276749, Note_on_c, 10, 69, 127
1, 276749, Note_on_c, 5, 53, 127
1, 276847, Note_off_c, 5, 53, 127
1, 276850, Note_on_c, 2, 50, 127
1, 276948, Note_off_c, 2, 50, 127
1, 276950, Note_off_c, 10, 69, 127
1, 276951, Note_on_c, 12, 71, 127
1, 276951, Note_on_c, 7, 43, 127
1, 277049, Note_off_c, 7, 43, 127
1, 277049, Note_off_c, 12, 71, 127
1, 277052, Note_on_c, 0, 72, 127
1, 277052, Note_on_c, 7, 55, 127
1, 277150, Note_off_c, 7, 55, 127
1, 277150, Note_off_c, 0, 72, 127
1, 277153, Note_on_c, 2, 74, 127
1, 277153, Note_on_c, 5, 53, 127
1, 277251, Note_off_c, 5, 53, 127
1, 277251, Note_off_c, 2, 74, 127
1, 277254, Note_on_c, 4, 76, 127
1, 277254, Note_on_c, 4, 52, 127
1, 277352, Note_off_c, 4, 52, 127
1, 277352, Note_off_c, 4, 76, 127
1, 277355, Note_on_c, 5, 77, 127
1, 277355, Note_on_c, 2, 50, 127
1, 277453, Note_off_c, 2, 50, 127
1, 277453, Note_off_c, 5, 77, 127
1, 277456, Note_on_c, 4, 76, 127
1, 277456, Note_on_c, 0, 48, 127
1, 277554, Note_off_c, 0, 48, 127
1, 277554, Note_off_c, 4, 76, 127
1, 277557, Note_on_c, 5, 77, 127
1, 277557, Note_on_c, 2, 50, 127
1, 277655, Note_off_c, 2, 50, 127
1, 277655, Note_off_c, 5, 77, 127
1, 277658, Note_on_c, 2, 74, 127
1, 277658, Note_on_c, 12, 47, 127
1, 277756, Note_off_c, 12, 47, 127
1, 277756, Note_off_c, 2, 74, 127
1, 277759, Note_on_c, 7, 79, 127
1, 277759, Note_on_c, 4, 52, 127
1, 277857, Note_off_c, 4, 52, 127
1, 277860, Note_on_c, 2, 50, 127
1, 277958, Note_off_c, 2, 50, 127
1, 277960, Note_off_c, 7, 79, 127
1, 277961, Note_on_c, 7, 67, 127
1, 277961, Note_on_c, 4, 52, 127
1, 278059, Note_off_c, 4, 52, 127
1, 278062, Note_on_c, 0, 48, 127
1, 278160, Note_off_c, 0, 48, 127
1, 278162, Note_off_c, 7, 67, 127
1, 278163, Note_on_c, 10, 69, 127
1, 278163, Note_on_c, 5, 41, 127
1, 278261, Note_off_c, 5, 41, 127
1, 278261, Note_off_c, 10, 69, 127
1, 278264, Note_on_c, 12, 71, 127
1, 278264, Note_on_c, 5, 53, 127
1, 278362, Note_off_c, 5, 53, 127
1, 278362, Note_off_c, 12, 71, 127
1, 278365, Note_on_c, 0, 72, 127
1, 278365, Note_on_c, 4, 52, 127
1, 278463, Note_off_c, 4, 52, 127
1, 278463, Note_off_c, 0, 72, 127
1, 278466, Note_on_c, 2, 74, 127
1, 278466, Note_on_c, 2, 50, 127
1, 278564, Note_off_c, 2, 50, 127
1, 278564, Note_off_c, 2, 74, 127
1, 278567, Note_on_c, 4, 76, 127
1, 278567, Note_on_c, 0, 48, 127
1, 278665, Note_off_c, 0, 48, 127
1, 278665, Note_off_c, 4, 76, 127
1, 278668, Note_on_c, 2, 74, 127
1, 278668, Note_on_c, 12, 47, 127
1, 278766, Note_off_c, 12, 47, 127
1, 278766, Note_off_c, 2, 74, 127
1, 278769, Note_on_c, 4, 76, 127
1, 278769, Note_on_c, 0, 48, 127
1, 278867, Note_off_c, 0, 48, 127
1, 278867, Note_off_c, 4, 76, 127
1, 278870, Note_on_c, 0, 72, 127
1, 278870, Note_on_c, 10, 45, 127
1, 278968, Note_off_c, 10, 45, 127
1, 278968, Note_off_c, 0, 72, 127
1, 278971, Note_on_c, 5, 77, 127
1, 278971, Note_on_c, 2, 50, 127
1, 279069, Note_off_c, 2, 50, 127
1, 279072, Note_on_c, 0, 48, 127
1, 279170, Note_off_c, 0, 48, 127
1, 279172, Note_off_c, 5, 77, 127
1, 279173, Note_on_c, 5, 65, 127
1, 279173, Note_on_c, 2, 50, 127
1, 279271, Note_off_c, 2, 50, 127
1, 279274, Note_on_c, 12, 47, 127
1, 279372, Note_off_c, 12, 47, 127
1, 279374, Note_off_c, 5, 65, 127
1, 279375, Note_on_c, 5, 77, 127
1, 279375, Note_on_c, 4, 40, 127
1, 279473, Note_off_c, 4, 40, 127
1, 279473, Note_off_c, 5, 77, 127
1, 279476, Note_on_c, 4, 76, 127
1, 279476, Note_on_c, 4, 52, 127
1, 279574, Note_off_c, 4, 52, 127
1, 279577, Note_on_c, 2, 50, 127
1, 279675, Note_off_c, 2, 50, 127
1, 279677, Note_off_c, 4, 76, 127
1, 279678, Note_on_c, 2, 74, 127
1, 279678, Note_on_c, 0, 48, 127
1, 279776, Note_off_c, 0, 48, 127
1, 279776, Note_off_c, 2, 74, 127
1, 279779, Note_on_c, 4, 76, 127
1, 279779, Note_on_c, 5, 53, 127
1, 279877, Note_off_c, 5, 53, 127
1, 279880, Note_on_c, 4, 52, 127
1, 279978, Note_off_c, 4, 52, 127
1, 279981, Note_on_c, 5, 53, 127
1, 280079, Note_off_c, 5, 53, 127
1, 280082, Note_on_c, 2, 50, 127
1, 280180, Note_off_c, 2, 50, 127
1, 280182, Note_off_c, 4, 76, 127
1, 280183, Note_on_c, 2, 74, 127
1, 280183, Note_on_c, 7, 55, 127
1, 280249, Note_off_c, 2, 74, 127
1, 280250, Note_on_c, 4, 76, 127
1, 280281, Note_off_c, 7, 55, 127
1, 280284, Note_on_c, 5, 53, 127
1, 280317, Note_off_c, 4, 76, 127
1, 280318, Note_on_c, 2, 74, 127
1, 280382, Note_off_c, 5, 53, 127
1, 280384, Note_off_c, 2, 74, 127
1, 280385, Note_on_c, 0, 72, 127
1, 280385, Note_on_c, 7, 55, 127
1, 280483, Note_off_c, 7, 55, 127
1, 280486, Note_on_c, 7, 43, 127
1, 280584, Note_off_c, 7, 43, 127
1, 280586, Note_off_c, 0, 72, 127
1, 280587, Note_on_c, 0, 72, 127
1, 280587, Note_on_c, 0, 48, 127
1, 280788, Note_off_c, 0, 48, 127
1, 280789, Note_on_c, 4, 64, 127
1, 280789, Note_on_c, 0, 36, 127
1, 280990, Note_off_c, 0, 36, 127
1, 280990, Note_off_c, 4, 64, 127
1, 280990, Note_off_c, 0, 72, 127
1, 280991, Note_on_c, 7, 67, 127
1, 280991, Note_on_c, 0, 48, 127
1, 281089, Note_off_c, 0, 48, 127
1, 281092, Note_on_c, 2, 50, 127
1, 281190, Note_off_c, 2, 50, 127
1, 281193, Note_on_c, 0, 60, 127
1, 281193, Note_on_c, 4, 52, 127
1, 281291, Note_off_c, 4, 52, 127
1, 281294, Note_on_c, 5, 53, 127
1, 281392, Note_off_c, 5, 53, 127
1, 281394, Note_off_c, 7, 67, 127
1, 281395, Note_on_c, 7, 67, 127
1, 281395, Note_on_c, 4, 52, 127
1, 281493, Note_off_c, 4, 52, 127
1, 281496, Note_on_c, 2, 50, 127
1, 281594, Note_off_c, 2, 50, 127
1, 281596, Note_off_c, 0, 60, 127
1, 281597, Note_on_c, 4, 64, 127
1, 281597, Note_on_c, 4, 52, 127
1, 281695, Note_off_c, 4, 52, 127
1, 281698, Note_on_c, 0, 48, 127
1, 281796, Note_off_c, 0, 48, 127
1, 281798, Note_off_c, 4, 64, 127
1, 281798, Note_off_c, 7, 67, 127
1, 281799, Note_on_c, 10, 69, 127
1, 281799, Note_on_c, 5, 53, 127
1, 281897, Note_off_c, 5, 53, 127
1, 281900, Note_on_c, 7, 55, 127
1, 281998, Note_off_c, 7, 55, 127
1, 282001, Note_on_c, 5, 65, 127
1, 282001, Note_on_c, 5, 53, 127
1, 282099, Note_off_c, 5, 53, 127
1, 282102, Note_on_c, 4, 52, 127
1, 282200, Note_off_c, 4, 52, 127
1, 282202, Note_off_c, 10, 69, 127
1, 282203, Note_on_c, 10, 69, 127
1, 282203, Note_on_c, 2, 50, 127
1, 282301, Note_off_c, 2, 50, 127
1, 282304, Note_on_c, 4, 52, 127
1, 282402, Note_off_c, 4, 52, 127
1, 282404, Note_off_c, 5, 65, 127
1, 282405, Note_on_c, 2, 62, 127
1, 282405, Note_on_c, 5, 53, 127
1, 282503, Note_off_c, 5, 53, 127
1, 282506, Note_on_c, 7, 55, 127
1, 282604, Note_off_c, 7, 55, 127
1, 282606, Note_off_c, 10, 69, 127
1, 282607, Note_on_c, 10, 69, 127
1, 282607, Note_on_c, 5, 53, 127
1, 282705, Note_off_c, 5, 53, 127
1, 282708, Note_on_c, 4, 52, 127
1, 282806, Note_off_c, 4, 52, 127
1, 282808, Note_off_c, 2, 62, 127
1, 282809, Note_on_c, 5, 65, 127
1, 282809, Note_on_c, 5, 53, 127
1, 282907, Note_off_c, 5, 53, 127
1, 282910, Note_on_c, 2, 50, 127
1, 283008, Note_off_c, 2, 50, 127
1, 283010, Note_off_c, 5, 65, 127
1, 283010, Note_off_c, 10, 69, 127
1, 283011, Note_on_c, 12, 71, 127
1, 283011, Note_on_c, 7, 55, 127
1, 283109, Note_off_c, 7, 55, 127
1, 283112, Note_on_c, 10, 57, 127
1, 283210, Note_off_c, 10, 57, 127
1, 283213, Note_on_c, 7, 67, 127
1, 283213, Note_on_c, 7, 55, 127
1, 283311, Note_off_c, 7, 55, 127
1, 283314, Note_on_c, 5, 53, 127
1, 283412, Note_off_c, 5, 53, 127
1, 283414, Note_off_c, 12, 71, 127
1, 283415, Note_on_c, 12, 71, 127
1, 283415, Note_on_c, 4, 52, 127
1, 283513, Note_off_c, 4, 52, 127
1, 283516, Note_on_c, 5, 53, 127
1, 283614, Note_off_c, 5, 53, 127
1, 283616, Note_off_c, 7, 67, 127
1, 283617, Note_on_c, 4, 64, 127
1, 283617, Note_on_c, 7, 55, 127
1, 283715, Note_off_c, 7, 55, 127
1, 283718, Note_on_c, 10, 57, 127
1, 283816, Note_off_c, 10, 57, 127
1, 283818, Note_off_c, 12, 71, 127
1, 283819, Note_on_c, 12, 71, 127
1, 283819, Note_on_c, 7, 55, 127
1, 283917, Note_off_c, 7, 55, 127
1, 283920, Note_on_c, 5, 53, 127
1, 284018, Note_off_c, 5, 53, 127
1, 284020, Note_off_c, 4, 64, 127
1, 284021, Note_on_c, 7, 67, 127
1, 284021, Note_on_c, 7, 55, 127
1, 284119, Note_off_c, 7, 55, 127
1, 284122, Note_on_c, 4, 52, 127
1, 284220, Note_off_c, 4, 52, 127
1, 284222, Note_off_c, 7, 67, 127
1, 284222, Note_off_c, 12, 71, 127
1, 284223, Note_on_c, 0, 72, 127
1, 284223, Note_on_c, 10, 57, 127
1, 284321, Note_off_c, 10, 57, 127
1, 284324, Note_on_c, 12, 59, 127
1, 284422, Note_off_c, 12, 59, 127
1, 284425, Note_on_c, 10, 69, 127
1, 284425, Note_on_c, 10, 57, 127
1, 284523, Note_off_c, 10, 57, 127
1, 284526, Note_on_c, 7, 55, 127
1, 284624, Note_off_c, 7, 55, 127
1, 284626, Note_off_c, 0, 72, 127
1, 284627, Note_on_c, 0, 72, 127
1, 284627, Note_on_c, 5, 53, 127
1, 284725, Note_off_c, 5, 53, 127
1, 284728, Note_on_c, 7, 55, 127
1, 284826, Note_off_c, 7, 55, 127
1, 284828, Note_off_c, 10, 69, 127
1, 284829, Note_on_c, 5, 65, 127
1, 284829, Note_on_c, 10, 57, 127
1, 284927, Note_off_c, 10, 57, 127
1, 284930, Note_on_c, 12, 59, 127
1, 285028, Note_off_c, 12, 59, 127
1, 285030, Note_off_c, 0, 72, 127
1, 285031, Note_on_c, 0, 72, 127
1, 285031, Note_on_c, 10, 57, 127
1, 285129, Note_off_c, 10, 57, 127
1, 285132, Note_on_c, 7, 55, 127
1, 285230, Note_off_c, 7, 55, 127
1, 285232, Note_off_c, 5, 65, 127
1, 285233, Note_on_c, 10, 69, 127
1, 285233, Note_on_c, 10, 57, 127
1, 285331, Note_off_c, 10, 57, 127
1, 285334, Note_on_c, 5, 53, 127
1, 285432, Note_off_c, 5, 53, 127
1, 285434, Note_off_c, 10, 69, 127
1, 285434, Note_off_c, 0, 72, 127
1, 285435, Note_on_c, 2, 74, 127
1, 285435, Note_on_c, 12, 59, 127
1, 285533, Note_off_c, 12, 59, 127
1, 285536, Note_on_c, 0, 60, 127
1, 285634, Note_off_c, 0, 60, 127
1, 285637, Note_on_c, 12, 71, 127
1, 285637, Note_on_c, 12, 59, 127
1, 285735, Note_off_c, 12, 59, 127
1, 285738, Note_on_c, 10, 57, 127
1, 285836, Note_off_c, 10, 57, 127
1, 285838, Note_off_c, 2, 74, 127
1, 285839, Note_on_c, 2, 74, 127
1, 285839, Note_on_c, 7, 55, 127
1, 285937, Note_off_c, 7, 55, 127
1, 285940, Note_on_c, 10, 57, 127
1, 286038, Note_off_c, 10, 57, 127
1, 286040, Note_off_c, 12, 71, 127
1, 286041, Note_on_c, 7, 67, 127
1, 286041, Note_on_c, 12, 59, 127
1, 286139, Note_off_c, 12, 59, 127
1, 286142, Note_on_c, 0, 60, 127
1, 286240, Note_off_c, 0, 60, 127
1, 286242, Note_off_c, 2, 74, 127
1, 286243, Note_on_c, 2, 74, 127
1, 286243, Note_on_c, 12, 59, 127
1, 286341, Note_off_c, 12, 59, 127
1, 286344, Note_on_c, 10, 57, 127
1, 286442, Note_off_c, 10, 57, 127
1, 286444, Note_off_c, 2, 74, 127
1, 286444, Note_off_c, 7, 67, 127
1, 286445, Note_on_c, 12, 71, 127
1, 286445, Note_on_c, 12, 59, 127
1, 286543, Note_off_c, 12, 59, 127
1, 286546, Note_on_c, 7, 55, 127
1, 286644, Note_off_c, 7, 55, 127
1, 286646, Note_off_c, 12, 71, 127
1, 286647, Note_on_c, 4, 76, 127
1, 286647, Note_on_c, 0, 60, 127
1, 286848, Note_off_c, 0, 60, 127
1, 286848, Note_off_c, 4, 76, 127
1, 286849, Note_on_c, 2, 74, 127
1, 286849, Note_on_c, 12, 59, 127
1, 286947, Note_off_c, 12, 59, 127
1, 286947, Note_off_c, 2, 74, 127
1, 286950, Note_on_c, 0, 72, 127
1, 286950, Note_on_c, 10, 57, 127
1, 287048, Note_off_c, 10, 57, 127
1, 287048, Note_off_c, 0, 72, 127
1, 287051, Note_on_c, 0, 72, 127
1, 287051, Note_on_c, 7, 55, 127
1, 287149, Note_off_c, 7, 55, 127
1, 287152, Note_on_c, 5, 53, 127
1, 287250, Note_off_c, 5, 53, 127
1, 287252, Note_off_c, 0, 72, 127
1, 287253, Note_on_c, 12, 71, 127
1, 287253, Note_on_c, 4, 52, 127
1, 287351, Note_off_c, 4, 52, 127
1, 287351, Note_off_c, 12, 71, 127
1, 287354, Note_on_c, 0, 72, 127
1, 287354, Note_on_c, 5, 53, 127
1, 287452, Note_off_c, 5, 53, 127
1, 287452, Note_off_c, 0, 72, 127
1, 287455, Note_on_c, 12, 71, 127
1, 287455, Note_on_c, 7, 55, 127
1, 287656, Note_off_c, 7, 55, 127
1, 287656, Note_off_c, 12, 71, 127
1, 287657, Note_on_c, 0, 72, 127
1, 287657, Note_on_c, 7, 43, 127
1, 287858, Note_off_c, 7, 43, 127
1, 287858, Note_off_c, 0, 72, 127
1, 287859, Note_on_c, 0, 72, 127
1, 287859, Note_on_c, 0, 48, 127
1, 287957, Note_off_c, 0, 48, 127
1, 287960, Note_on_c, 4, 52, 127
1, 288058, Note_off_c, 4, 52, 127
1, 288061, Note_on_c, 7, 55, 127
1, 288159, Note_off_c, 7, 55, 127
1, 288162, Note_on_c, 5, 53, 127
1, 288260, Note_off_c, 5, 53, 127
1, 288262, Note_off_c, 0, 72, 127
1, 288263, Note_on_c, 7, 67, 127
1, 288263, Note_on_c, 0, 72, 127
1, 288263, Note_on_c, 4, 64, 127
1, 288263, Note_on_c, 4, 52, 127
1, 288361, Note_off_c, 4, 52, 127
1, 288364, Note_on_c, 5, 53, 127
1, 288462, Note_off_c, 5, 53, 127
1, 288465, Note_on_c, 4, 52, 127
1, 288563, Note_off_c, 4, 52, 127
1, 288566, Note_on_c, 2, 50, 127
1, 288664, Note_off_c, 2, 50, 127
1, 288666, Note_off_c, 4, 64, 127
1, 288666, Note_off_c, 0, 72, 127
1, 288666, Note_off_c, 7, 67, 127
1, 288667, Note_on_c, 0, 72, 127
1, 288667, Note_on_c, 4, 64, 127
1, 288667, Note_on_c, 7, 67, 127
1, 288667, Note_on_c, 0, 48, 127
1, 288765, Note_off_c, 0, 48, 127
1, 288768, Note_on_c, 4, 52, 127
1, 288866, Note_off_c, 4, 52, 127
1, 288869, Note_on_c, 2, 50, 127
1, 288967, Note_off_c, 2, 50, 127
1, 288970, Note_on_c, 0, 48, 127
1, 289068, Note_off_c, 0, 48, 127
1, 289070, Note_off_c, 7, 67, 127
1, 289070, Note_off_c, 4, 64, 127
1, 289070, Note_off_c, 0, 72, 127
1, 289071, Note_on_c, 2, 62, 127
1, 289071, Note_on_c, 2, 74, 127
1, 289071, Note_on_c, 7, 67, 127
1, 289071, Note_on_c, 12, 47, 127
1, 289169, Note_off_c, 12, 47, 127
1, 289172, Note_on_c, 0, 48, 127
1, 289270, Note_off_c, 0, 48, 127
1, 289273, Note_on_c, 2, 50, 127
1, 289371, Note_off_c, 2, 50, 127
1, 289374, Note_on_c, 0, 48, 127
1, 289472, Note_off_c, 0, 48, 127
1, 289474, Note_off_c, 7, 67, 127
1, 289474, Note_off_c, 2, 74, 127
1, 289474, Note_off_c, 2, 62, 127
1, 289475, Note_on_c, 12, 71, 127
1, 289475, Note_on_c, 2, 74, 127
1, 289475, Note_on_c, 7, 67, 127
1, 289475, Note_on_c, 12, 47, 127
1, 289573, Note_off_c, 12, 47, 127
1, 289576, Note_on_c, 0, 48, 127
1, 289674, Note_off_c, 0, 48, 127
1, 289677, Note_on_c, 12, 47, 127
1, 289775, Note_off_c, 12, 47, 127
1, 289778, Note_on_c, 10, 45, 127
1, 289876, Note_off_c, 10, 45, 127
1, 289878, Note_off_c, 7, 67, 127
1, 289878, Note_off_c, 2, 74, 127
1, 289878, Note_off_c, 12, 71, 127
1, 289879, Note_on_c, 12, 71, 127
1, 289879, Note_on_c, 7, 67, 127
1, 289879, Note_on_c, 2, 74, 127
1, 289879, Note_on_c, 7, 43, 127
1, 289977, Note_off_c, 7, 43, 127
1, 289980, Note_on_c, 12, 47, 127
1, 290078, Note_off_c, 12, 47, 127
1, 290081, Note_on_c, 10, 45, 127
1, 290179, Note_off_c, 10, 45, 127
1, 290182, Note_on_c, 7, 43, 127
1, 290280, Note_off_c, 7, 43, 127
1, 290282, Note_off_c, 2, 74, 127
1, 290282, Note_off_c, 7, 67, 127
1, 290282, Note_off_c, 12, 71, 127
1, 290283, Note_on_c, 7, 67, 127
1, 290283, Note_on_c, 4, 76, 127
1, 290283, Note_on_c, 4, 64, 127
1, 290283, Note_on_c, 0, 48, 127
1, 290381, Note_off_c, 0, 48, 127
1, 290384, Note_on_c, 2, 50, 127
1, 290482, Note_off_c, 2, 50, 127
1, 290485, Note_on_c, 4, 52, 127
1, 290583, Note_off_c, 4, 52, 127
1, 290586, Note_on_c, 2, 50, 127
1, 290684, Note_off_c, 2, 50, 127
1, 290686, Note_off_c, 4, 64, 127
1, 290686, Note_off_c, 4, 76, 127
1, 290686, Note_off_c, 7, 67, 127
1, 290687, Note_on_c, 0, 72, 127
1, 290687, Note_on_c, 4, 76, 127
1, 290687, Note_on_c, 10, 69, 127
1, 290687, Note_on_c, 0, 48, 127
1, 290785, Note_off_c, 0, 48, 127
1, 290788, Note_on_c, 2, 50, 127
1, 290886, Note_off_c, 2, 50, 127
1, 290889, Note_on_c, 0, 48, 127
1, 290987, Note_off_c, 0, 48, 127
1, 290990, Note_on_c, 12, 47, 127
1, 291088, Note_off_c, 12, 47, 127
1, 291090, Note_off_c, 10, 69, 127
1, 291090, Note_off_c, 4, 76, 127
1, 291090, Note_off_c, 0, 72, 127
1, 291091, Note_on_c, 0, 72, 127
1, 291091, Note_on_c, 4, 76, 127
1, 291091, Note_on_c, 10, 69, 127
1, 291091, Note_on_c, 10, 45, 127
1, 291189, Note_off_c, 10, 45, 127
1, 291192, Note_on_c, 0, 48, 127
1, 291290, Note_off_c, 0, 48, 127
1, 291293, Note_on_c, 12, 47, 127
1, 291391, Note_off_c, 12, 47, 127
1, 291394, Note_on_c, 10, 45, 127
1, 291492, Note_off_c, 10, 45, 127
1, 291494, Note_off_c, 10, 69, 127
1, 291494, Note_off_c, 4, 76, 127
1, 291494, Note_off_c, 0, 72, 127
1, 291495, Note_on_c, 5, 77, 127
1, 291495, Note_on_c, 5, 65, 127
1, 291495, Note_on_c, 10, 69, 127
1, 291495, Note_on_c, 2, 50, 127
1, 291593, Note_off_c, 2, 50, 127
1, 291596, Note_on_c, 4, 52, 127
1, 291694, Note_off_c, 4, 52, 127
1, 291697, Note_on_c, 5, 53, 127
1, 291795, Note_off_c, 5, 53, 127
1, 291798, Note_on_c, 4, 52, 127
1, 291896, Note_off_c, 4, 52, 127
1, 291898, Note_off_c, 10, 69, 127
1, 291898, Note_off_c, 5, 65, 127
1, 291898, Note_off_c, 5, 77, 127
1, 291899, Note_on_c, 5, 77, 127
1, 291899, Note_on_c, 12, 71, 127
1, 291899, Note_on_c, 2, 74, 127
1, 291899, Note_on_c, 2, 50, 127
1, 291997, Note_off_c, 2, 50, 127
1, 292000, Note_on_c, 4, 52, 127
1, 292098, Note_off_c, 4, 52, 127
1, 292101, Note_on_c, 2, 50, 127
1, 292199, Note_off_c, 2, 50, 127
1, 292202, Note_on_c, 0, 48, 127
1, 292300, Note_off_c, 0, 48, 127
1, 292302, Note_off_c, 2, 74, 127
1, 292302, Note_off_c, 12, 71, 127
1, 292302, Note_off_c, 5, 77, 127
1, 292303, Note_on_c, 2, 74, 127
1, 292303, Note_on_c, 5, 77, 127
1, 292303, Note_on_c, 12, 71, 127
1, 292303, Note_on_c, 12, 47, 127
1, 292401, Note_off_c, 12, 47, 127
1, 292404, Note_on_c, 2, 50, 127
1, 292502, Note_off_c, 2, 50, 127
1, 292505, Note_on_c, 0, 48, 127
1, 292603, Note_off_c, 0, 48, 127
1, 292606, Note_on_c, 12, 47, 127
1, 292704, Note_off_c, 12, 47, 127
1, 292706, Note_off_c, 12, 71, 127
1, 292706, Note_off_c, 5, 77, 127
1, 292706, Note_off_c, 2, 74, 127
1, 292707, Note_on_c, 12, 71, 127
1, 292707, Note_on_c, 7, 79, 127
1, 292707, Note_on_c, 7, 67, 127
1, 292707, Note_on_c, 4, 52, 127
1, 292805, Note_off_c, 4, 52, 127
1, 292808, Note_on_c, 5, 53, 127
1, 292906, Note_off_c, 5, 53, 127
1, 292909, Note_on_c, 7, 55, 127
1, 293007, Note_off_c, 7, 55, 127
1, 293010, Note_on_c, 5, 53, 127
1, 293108, Note_off_c, 5, 53, 127
1, 293110, Note_off_c, 7, 67, 127
1, 293110, Note_off_c, 7, 79, 127
1, 293110, Note_off_c, 12, 71, 127
1, 293111, Note_on_c, 4, 76, 127
1, 293111, Note_on_c, 7, 79, 127
1, 293111, Note_on_c, 0, 72, 127
1, 293111, Note_on_c, 4, 52, 127
1, 293209, Note_off_c, 4, 52, 127
1, 293212, Note_on_c, 5, 53, 127
1, 293310, Note_off_c, 5, 53, 127
1, 293313, Note_on_c, 4, 52, 127
1, 293411, Note_off_c, 4, 52, 127
1, 293414, Note_on_c, 2, 50, 127
1, 293512, Note_off_c, 2, 50, 127
1, 293514, Note_off_c, 0, 72, 127
1, 293514, Note_off_c, 7, 79, 127
1, 293514, Note_off_c, 4, 76, 127
1, 293515, Note_on_c, 7, 79, 127
1, 293515, Note_on_c, 0, 72, 127
1, 293515, Note_on_c, 4, 76, 127
1, 293515, Note_on_c, 0, 48, 127
1, 293613, Note_off_c, 0, 48, 127
1, 293616, Note_on_c, 4, 52, 127
1, 293714, Note_off_c, 4, 52, 127
1, 293717, Note_on_c, 2, 50, 127
1, 293815, Note_off_c, 2, 50, 127
1, 293818, Note_on_c, 0, 48, 127
1, 293916, Note_off_c, 0, 48, 127
1, 293918, Note_off_c, 4, 76, 127
1, 293918, Note_off_c, 0, 72, 127
1, 293918, Note_off_c, 7, 79, 127
1, 293919, Note_on_c, 10, 69, 127
1, 293919, Note_on_c, 0, 72, 127
1, 293919, Note_on_c, 10, 81, 127
1, 293919, Note_on_c, 5, 53, 127
1, 294017, Note_off_c, 5, 53, 127
1, 294020, Note_on_c, 2, 50, 127
1, 294118, Note_off_c, 2, 50, 127
1, 294120, Note_off_c, 10, 81, 127
1, 294120, Note_off_c, 0, 72, 127
1, 294121, Note_on_c, 5, 77, 127
1, 294121, Note_on_c, 4, 52, 127
1, 294219, Note_off_c, 4, 52, 127
1, 294222, Note_on_c, 5, 53, 127
1, 294320, Note_off_c, 5, 53, 127
1, 294322, Note_off_c, 5, 77, 127
1, 294322, Note_off_c, 10, 69, 127
1, 294323, Note_on_c, 2, 74, 127
1, 294323, Note_on_c, 0, 72, 127
1, 294323, Note_on_c, 7, 67, 127
1, 294323, Note_on_c, 7, 55, 127
1, 294421, Note_off_c, 7, 55, 127
1, 294424, Note_on_c, 5, 53, 127
1, 294522, Note_off_c, 5, 53, 127
1, 294525, Note_on_c, 4, 52, 127
1, 294623, Note_off_c, 4, 52, 127
1, 294626, Note_on_c, 5, 53, 127
1, 294724, Note_off_c, 5, 53, 127
1, 294726, Note_off_c, 7, 67, 127
1, 294726, Note_off_c, 0, 72, 127
1, 294727, Note_on_c, 12, 71, 127
1, 294727, Note_on_c, 5, 65, 127
1, 294727, Note_on_c, 7, 55, 127
1, 294825, Note_off_c, 7, 55, 127
1, 294828, Note_on_c, 4, 52, 127
1, 294926, Note_off_c, 4, 52, 127
1, 294928, Note_off_c, 5, 65, 127
1, 294928, Note_off_c, 12, 71, 127
1, 294928, Note_off_c, 2, 74, 127
1, 294929, Note_on_c, 0, 72, 127
1, 294929, Note_on_c, 5, 53, 127
1, 295027, Note_off_c, 5, 53, 127
1, 295030, Note_on_c, 7, 55, 127
1, 295128, Note_off_c, 7, 55, 127
1, 295130, Note_off_c, 0, 72, 127
1, 295131, Note_on_c, 0, 72, 127
1, 295131, Note_on_c, 4, 64, 127
1, 295131, Note_on_c, 7, 67, 127
1, 295131, Note_on_c, 0, 48, 127
1, 295229, Note_off_c, 0, 48, 127
1, 295229, Note_off_c, 7, 67, 127
1, 295229, Note_off_c, 4, 64, 127
1, 295229, Note_off_c, 0, 72, 127
1, 295232, Note_on_c, 2, 62, 127
1, 295232, Note_on_c, 10, 57, 127
1, 295330, Note_off_c, 10, 57, 127
1, 295330, Note_off_c, 2, 62, 127
1, 295333, Note_on_c, 4, 64, 127
1, 295333, Note_on_c, 7, 55, 127
1, 295431, Note_off_c, 7, 55, 127
1, 295431, Note_off_c, 4, 64, 127
1, 295434, Note_on_c, 5, 65, 127
1, 295434, Note_on_c, 5, 53, 127
1, 295532, Note_off_c, 5, 53, 127
1, 295532, Note_off_c, 5, 65, 127
1, 295535, Note_on_c, 7, 67, 127
1, 295535, Note_on_c, 4, 52, 127
1, 295633, Note_off_c, 4, 52, 127
1, 295633, Note_off_c, 7, 67, 127
1, 295636, Note_on_c, 10, 69, 127
1, 295636, Note_on_c, 0, 60, 127
1, 295734, Note_off_c, 0, 60, 127
1, 295734, Note_off_c, 10, 69, 127
1, 295737, Note_on_c, 7, 67, 127
1, 295737, Note_on_c, 12, 59, 127
1, 295835, Note_off_c, 12, 59, 127
1, 295835, Note_off_c, 7, 67, 127
1, 295838, Note_on_c, 10, 69, 127
1, 295838, Note_on_c, 0, 60, 127
1, 295936, Note_off_c, 0, 60, 127
1, 295936, Note_off_c, 10, 69, 127
1, 295939, Note_on_c, 7, 67, 127
1, 295939, Note_on_c, 2, 50, 127
1, 296037, Note_off_c, 2, 50, 127
1, 296037, Note_off_c, 7, 67, 127
1, 296040, Note_on_c, 10, 69, 127
1, 296040, Note_on_c, 11, 58, 127
1, 296138, Note_off_c, 11, 58, 127
1, 296138, Note_off_c, 10, 69, 127
1, 296141, Note_on_c, 5, 65, 127
1, 296141, Note_on_c, 10, 57, 127
1, 296239, Note_off_c, 10, 57, 127
1, 296239, Note_off_c, 5, 65, 127
1, 296242, Note_on_c, 7, 67, 127
1, 296242, Note_on_c, 7, 55, 127
1, 296340, Note_off_c, 7, 55, 127
1, 296340, Note_off_c, 7, 67, 127
1, 296343, Note_on_c, 10, 69, 127
1, 296343, Note_on_c, 5, 53, 127
1, 296441, Note_off_c, 5, 53, 127
1, 296441, Note_off_c, 10, 69, 127
1, 296444, Note_on_c, 7, 67, 127
1, 296444, Note_on_c, 7, 55, 127
1, 296542, Note_off_c, 7, 55, 127
1, 296542, Note_off_c, 7, 67, 127
1, 296545, Note_on_c, 5, 65, 127
1, 296545, Note_on_c, 10, 57, 127
1, 296643, Note_off_c, 10, 57, 127
1, 296643, Note_off_c, 5, 65, 127
1, 296646, Note_on_c, 7, 67, 127
1, 296646, Note_on_c, 7, 55, 127
1, 296744, Note_off_c, 7, 55, 127
1, 296744, Note_off_c, 7, 67, 127
1, 296747, Note_on_c, 10, 69, 127
1, 296747, Note_on_c, 5, 53, 127
1, 296845, Note_off_c, 5, 53, 127
1, 296845, Note_off_c, 10, 69, 127
1, 296848, Note_on_c, 12, 71, 127
1, 296848, Note_on_c, 2, 62, 127
1, 296946, Note_off_c, 2, 62, 127
1, 296946, Note_off_c, 12, 71, 127
1, 296949, Note_on_c, 10, 69, 127
1, 296949, Note_on_c, 0, 60, 127
1, 297047, Note_off_c, 0, 60, 127
1, 297047, Note_off_c, 10, 69, 127
1, 297050, Note_on_c, 12, 71, 127
1, 297050, Note_on_c, 2, 62, 127
1, 297148, Note_off_c, 2, 62, 127
1, 297148, Note_off_c, 12, 71, 127
1, 297151, Note_on_c, 10, 69, 127
1, 297151, Note_on_c, 2, 50, 127
1, 297249, Note_off_c, 2, 50, 127
1, 297249, Note_off_c, 10, 69, 127
1, 297252, Note_on_c, 12, 71, 127
1, 297252, Note_on_c, 0, 60, 127
1, 297350, Note_off_c, 0, 60, 127
1, 297350, Note_off_c, 12, 71, 127
1, 297353, Note_on_c, 7, 67, 127
1, 297353, Note_on_c, 12, 59, 127
1, 297451, Note_off_c, 12, 59, 127
1, 297451, Note_off_c, 7, 67, 127
1, 297454, Note_on_c, 10, 69, 127
1, 297454, Note_on_c, 10, 57, 127
1, 297552, Note_off_c, 10, 57, 127
1, 297552, Note_off_c, 10, 69, 127
1, 297555, Note_on_c, 12, 71, 127
1, 297555, Note_on_c, 7, 55, 127
1, 297653, Note_off_c, 7, 55, 127
1, 297653, Note_off_c, 12, 71, 127
1, 297656, Note_on_c, 10, 69, 127
1, 297656, Note_on_c, 10, 57, 127
1, 297754, Note_off_c, 10, 57, 127
1, 297754, Note_off_c, 10, 69, 127
1, 297757, Note_on_c, 7, 67, 127
1, 297757, Note_on_c, 12, 59, 127
1, 297855, Note_off_c, 12, 59, 127
1, 297855, Note_off_c, 7, 67, 127
1, 297858, Note_on_c, 10, 69, 127
1, 297858, Note_on_c, 10, 57, 127
1, 297956, Note_off_c, 10, 57, 127
1, 297956, Note_off_c, 10, 69, 127
1, 297959, Note_on_c, 12, 71, 127
1, 297959, Note_on_c, 7, 55, 127
1, 298057, Note_off_c, 7, 55, 127
1, 298057, Note_off_c, 12, 71, 127
1, 298060, Note_on_c, 0, 72, 127
1, 298060, Note_on_c, 4, 64, 127
1, 298158, Note_off_c, 4, 64, 127
1, 298158, Note_off_c, 0, 72, 127
1, 298161, Note_on_c, 12, 71, 127
1, 298161, Note_on_c, 2, 62, 127
1, 298259, Note_off_c, 2, 62, 127
1, 298259, Note_off_c, 12, 71, 127
1, 298262, Note_on_c, 0, 72, 127
1, 298262, Note_on_c, 4, 64, 127
1, 298360, Note_off_c, 4, 64, 127
1, 298360, Note_off_c, 0, 72, 127
1, 298363, Note_on_c, 12, 71, 127
1, 298363, Note_on_c, 4, 52, 127
1, 298461, Note_off_c, 4, 52, 127
1, 298461, Note_off_c, 12, 71, 127
1, 298464, Note_on_c, 0, 72, 127
1, 298464, Note_on_c, 2, 62, 127
1, 298562, Note_off_c, 2, 62, 127
1, 298562, Note_off_c, 0, 72, 127
1, 298565, Note_on_c, 10, 69, 127
1, 298565, Note_on_c, 0, 60, 127
1, 298663, Note_off_c, 0, 60, 127
1, 298663, Note_off_c, 10, 69, 127
1, 298666, Note_on_c, 12, 71, 127
1, 298666, Note_on_c, 12, 59, 127
1, 298764, Note_off_c, 12, 59, 127
1, 298764, Note_off_c, 12, 71, 127
1, 298767, Note_on_c, 0, 72, 127
1, 298767, Note_on_c, 10, 57, 127
1, 298865, Note_off_c, 10, 57, 127
1, 298865, Note_off_c, 0, 72, 127
1, 298868, Note_on_c, 12, 71, 127
1, 298868, Note_on_c, 12, 59, 127
1, 298966, Note_off_c, 12, 59, 127
1, 298966, Note_off_c, 12, 71, 127
1, 298969, Note_on_c, 10, 69, 127
1, 298969, Note_on_c, 0, 60, 127
1, 299067, Note_off_c, 0, 60, 127
1, 299067, Note_off_c, 10, 69, 127
1, 299070, Note_on_c, 12, 71, 127
1, 299070, Note_on_c, 12, 59, 127
1, 299168, Note_off_c, 12, 59, 127
1, 299168, Note_off_c, 12, 71, 127
1, 299171, Note_on_c, 0, 72, 127
1, 299171, Note_on_c, 10, 57, 127
1, 299269, Note_off_c, 10, 57, 127
1, 299269, Note_off_c, 0, 72, 127
1, 299272, Note_on_c, 2, 74, 127
1, 299272, Note_on_c, 5, 65, 127
1, 299370, Note_off_c, 5, 65, 127
1, 299370, Note_off_c, 2, 74, 127
1, 299373, Note_on_c, 0, 72, 127
1, 299373, Note_on_c, 4, 64, 127
1, 299471, Note_off_c, 4, 64, 127
1, 299471, Note_off_c, 0, 72, 127
1, 299474, Note_on_c, 2, 74, 127
1, 299474, Note_on_c, 5, 65, 127
1, 299572, Note_off_c, 5, 65, 127
1, 299572, Note_off_c, 2, 74, 127
1, 299575, Note_on_c, 0, 72, 127
1, 299575, Note_on_c, 5, 53, 127
1, 299673, Note_off_c, 5, 53, 127
1, 299673, Note_off_c, 0, 72, 127
1, 299676, Note_on_c, 2, 74, 127
1, 299676, Note_on_c, 4, 64, 127
1, 299774, Note_off_c, 4, 64, 127
1, 299774, Note_off_c, 2, 74, 127
1, 299777, Note_on_c, 12, 71, 127
1, 299777, Note_on_c, 2, 62, 127
1, 299875, Note_off_c, 2, 62, 127
1, 299875, Note_off_c, 12, 71, 127
1, 299878, Note_on_c, 0, 72, 127
1, 299878, Note_on_c, 0, 60, 127
1, 299976, Note_off_c, 0, 60, 127
1, 299976, Note_off_c, 0, 72, 127
1, 299979, Note_on_c, 2, 74, 127
1, 299979, Note_on_c, 12, 59, 127
1, 300077, Note_off_c, 12, 59, 127
1, 300077, Note_off_c, 2, 74, 127
1, 300080, Note_on_c, 0, 72, 127
1, 300080, Note_on_c, 0, 60, 127
1, 300178, Note_off_c, 0, 60, 127
1, 300178, Note_off_c, 0, 72, 127
1, 300181, Note_on_c, 12, 71, 127
1, 300181, Note_on_c, 2, 62, 127
1, 300279, Note_off_c, 2, 62, 127
1, 300279, Note_off_c, 12, 71, 127
1, 300282, Note_on_c, 0, 72, 127
1, 300282, Note_on_c, 0, 60, 127
1, 300380, Note_off_c, 0, 60, 127
1, 300380, Note_off_c, 0, 72, 127
1, 300383, Note_on_c, 2, 74, 127
1, 300383, Note_on_c, 12, 59, 127
1, 300481, Note_off_c, 12, 59, 127
1, 300481, Note_off_c, 2, 74, 127
1, 300484, Note_on_c, 4, 76, 127
1, 300484, Note_on_c, 7, 67, 127
1, 300582, Note_off_c, 7, 67, 127
1, 300582, Note_off_c, 4, 76, 127
1, 300585, Note_on_c, 2, 74, 127
1, 300585, Note_on_c, 5, 65, 127
1, 300683, Note_off_c, 5, 65, 127
1, 300683, Note_off_c, 2, 74, 127
1, 300686, Note_on_c, 4, 76, 127
1, 300686, Note_on_c, 7, 67, 127
1, 300784, Note_off_c, 7, 67, 127
1, 300784, Note_off_c, 4, 76, 127
1, 300787, Note_on_c, 2, 74, 127
1, 300787, Note_on_c, 7, 55, 127
1, 300885, Note_off_c, 7, 55, 127
1, 300885, Note_off_c, 2, 74, 127
1, 300888, Note_on_c, 4, 76, 127
1, 300888, Note_on_c, 5, 65, 127
1, 300986, Note_off_c, 5, 65, 127
1, 300986, Note_off_c, 4, 76, 127
1, 300989, Note_on_c, 0, 72, 127
1, 300989, Note_on_c, 4, 64, 127
1, 301087, Note_off_c, 4, 64, 127
1, 301087, Note_off_c, 0, 72, 127
1, 301090, Note_on_c, 2, 74, 127
1, 301090, Note_on_c, 2, 62, 127
1, 301188, Note_off_c, 2, 62, 127
1, 301188, Note_off_c, 2, 74, 127
1, 301191, Note_on_c, 4, 76, 127
1, 301191, Note_on_c, 0, 60, 127
1, 301289, Note_off_c, 0, 60, 127
1, 301289, Note_off_c, 4, 76, 127
1, 301292, Note_on_c, 2, 74, 127
1, 301292, Note_on_c, 2, 62, 127
1, 301390, Note_off_c, 2, 62, 127
1, 301390, Note_off_c, 2, 74, 127
1, 301393, Note_on_c, 0, 72, 127
1, 301393, Note_on_c, 4, 64, 127
1, 301491, Note_off_c, 4, 64, 127
1, 301491, Note_off_c, 0, 72, 127
1, 301494, Note_on_c, 2, 74, 127
1, 301494, Note_on_c, 5, 65, 127
1, 301592, Note_off_c, 5, 65, 127
1, 301592, Note_off_c, 2, 74, 127
1, 301595, Note_on_c, 0, 72, 127
1, 301595, Note_on_c, 7, 67, 127
1, 301693, Note_off_c, 7, 67, 127
1, 301696, Note_on_c, 2, 62, 127
1, 301794, Note_off_c, 2, 62, 127
1, 301797, Note_on_c, 4, 64, 127
1, 301895, Note_off_c, 4, 64, 127
1, 301898, Note_on_c, 5, 65, 127
1, 301996, Note_off_c, 5, 65, 127
1, 301998, Note_off_c, 0, 72, 127
1, 301999, Note_on_c, 12, 71, 127
1, 301999, Note_on_c, 7, 55, 127
1, 302065, Note_off_c, 12, 71, 127
1, 302066, Note_on_c, 0, 72, 127
1, 302097, Note_off_c, 7, 55, 127
1, 302100, Note_on_c, 5, 65, 127
1, 302133, Note_off_c, 0, 72, 127
1, 302134, Note_on_c, 12, 71, 127
1, 302198, Note_off_c, 5, 65, 127
1, 302200, Note_off_c, 12, 71, 127
1, 302201, Note_on_c, 0, 72, 127
1, 302201, Note_on_c, 4, 64, 127
1, 302267, Note_off_c, 0, 72, 127
1, 302268, Note_on_c, 12, 71, 127
1, 302299, Note_off_c, 4, 64, 127
1, 302302, Note_on_c, 2, 62, 127
1, 302335, Note_off_c, 12, 71, 127
1, 302336, Note_on_c, 0, 72, 127
1, 302400, Note_off_c, 2, 62, 127
1, 302402, Note_off_c, 0, 72, 127
1, 302403, Note_on_c, 0, 72, 127
1, 302403, Note_on_c, 0, 60, 127
1, 302501, Note_off_c, 0, 60, 127
1, 302504, Note_on_c, 4, 52, 127
1, 302602, Note_off_c, 4, 52, 127
1, 302605, Note_on_c, 5, 53, 127
1, 302703, Note_off_c, 5, 53, 127
1, 302706, Note_on_c, 7, 55, 127
1, 302804, Note_off_c, 7, 55, 127
1, 302806, Note_off_c, 0, 72, 127
1, 302807, Note_on_c, 7, 67, 127
1, 302807, Note_on_c, 0, 48, 127
1, 302905, Note_off_c, 7, 67, 127
1, 302908, Note_on_c, 4, 64, 127
1, 303006, Note_off_c, 4, 64, 127
1, 303008, Note_off_c, 0, 48, 127
1, 303009, Note_on_c, 7, 67, 127
1, 303009, Note_on_c, 4, 52, 127
1, 303107, Note_off_c, 7, 67, 127
1, 303110, Note_on_c, 0, 60, 127
1, 303208, Note_off_c, 0, 60, 127
1, 303210, Note_off_c, 4, 52, 127
1, 303211, Note_on_c, 7, 67, 127
1, 303211, Note_on_c, 0, 48, 127
1, 303309, Note_off_c, 7, 67, 127
1, 303312, Note_on_c, 4, 64, 127
1, 303410, Note_off_c, 4, 64, 127
1, 303412, Note_off_c, 0, 48, 127
1, 303413, Note_on_c, 7, 67, 127
1, 303413, Note_on_c, 4, 52, 127
1, 303511, Note_off_c, 7, 67, 127
1, 303514, Note_on_c, 0, 60, 127
1, 303612, Note_off_c, 0, 60, 127
1, 303614, Note_off_c, 4, 52, 127
1, 303615, Note_on_c, 10, 69, 127
1, 303615, Note_on_c, 5, 41, 127
1, 303713, Note_off_c, 10, 69, 127
1, 303716, Note_on_c, 5, 65, 127
1, 303814, Note_off_c, 5, 65, 127
1, 303816, Note_off_c, 5, 41, 127
1, 303817, Note_on_c, 10, 69, 127
1, 303817, Note_on_c, 5, 53, 127
1, 303915, Note_off_c, 5, 53, 127
1, 303915, Note_off_c, 10, 69, 127
1, 303918, Note_on_c, 0, 60, 127
1, 303918, Note_on_c, 4, 52, 127
1, 304016, Note_off_c, 4, 52, 127
1, 304016, Note_off_c, 0, 60, 127
1, 304019, Note_on_c, 10, 69, 127
1, 304019, Note_on_c, 2, 50, 127
1, 304117, Note_off_c, 10, 69, 127
1, 304120, Note_on_c, 5, 65, 127
1, 304218, Note_off_c, 5, 65, 127
1, 304220, Note_off_c, 2, 50, 127
1, 304221, Note_on_c, 10, 69, 127
1, 304221, Note_on_c, 5, 53, 127
1, 304319, Note_off_c, 10, 69, 127
1, 304322, Note_on_c, 2, 62, 127
1, 304420, Note_off_c, 2, 62, 127
1, 304422, Note_off_c, 5, 53, 127
1, 304423, Note_on_c, 10, 69, 127
1, 304423, Note_on_c, 2, 50, 127
1, 304521, Note_off_c, 10, 69, 127
1, 304524, Note_on_c, 5, 65, 127
1, 304622, Note_off_c, 5, 65, 127
1, 304624, Note_off_c, 2, 50, 127
1, 304625, Note_on_c, 10, 69, 127
1, 304625, Note_on_c, 5, 53, 127
1, 304723, Note_off_c, 10, 69, 127
1, 304726, Note_on_c, 2, 62, 127
1, 304824, Note_off_c, 2, 62, 127
1, 304826, Note_off_c, 5, 53, 127
1, 304827, Note_on_c, 12, 71, 127
1, 304827, Note_on_c, 7, 43, 127
1, 304925, Note_off_c, 12, 71, 127
1, 304928, Note_on_c, 7, 67, 127
1, 305026, Note_off_c, 7, 67, 127
1, 305028, Note_off_c, 7, 43, 127
1, 305029, Note_on_c, 12, 71, 127
1, 305029, Note_on_c, 7, 55, 127
1, 305127, Note_off_c, 7, 55, 127
1, 305127, Note_off_c, 12, 71, 127
1, 305130, Note_on_c, 2, 62, 127
1, 305130, Note_on_c, 5, 53, 127
1, 305228, Note_off_c, 5, 53, 127
1, 305228, Note_off_c, 2, 62, 127
1, 305231, Note_on_c, 12, 71, 127
1, 305231, Note_on_c, 4, 52, 127
1, 305329, Note_off_c, 12, 71, 127
1, 305332, Note_on_c, 7, 67, 127
1, 305430, Note_off_c, 7, 67, 127
1, 305432, Note_off_c, 4, 52, 127
1, 305433, Note_on_c, 12, 71, 127
1, 305433, Note_on_c, 7, 55, 127
1, 305531, Note_off_c, 12, 71, 127
1, 305534, Note_on_c, 4, 64, 127
1, 305632, Note_off_c, 4, 64, 127
1, 305634, Note_off_c, 7, 55, 127
1, 305635, Note_on_c, 12, 71, 127
1, 305635, Note_on_c, 4, 52, 127
1, 305733, Note_off_c, 12, 71, 127
1, 305736, Note_on_c, 7, 67, 127
1, 305834, Note_off_c, 7, 67, 127
1, 305836, Note_off_c, 4, 52, 127
1, 305837, Note_on_c, 12, 71, 127
1, 305837, Note_on_c, 7, 55, 127
1, 305935, Note_off_c, 12, 71, 127
1, 305938, Note_on_c, 4, 64, 127
1, 306036, Note_off_c, 4, 64, 127
1, 306038, Note_off_c, 7, 55, 127
1, 306039, Note_on_c, 0, 72, 127
1, 306039, Note_on_c, 10, 45, 127
1, 306137, Note_off_c, 0, 72, 127
1, 306140, Note_on_c, 10, 69, 127
1, 306238, Note_off_c, 10, 69, 127
1, 306240, Note_off_c, 10, 45, 127
1, 306241, Note_on_c, 0, 72, 127
1, 306241, Note_on_c, 10, 57, 127
1, 306339, Note_off_c, 10, 57, 127
1, 306339, Note_off_c, 0, 72, 127
1, 306342, Note_on_c, 4, 64, 127
1, 306342, Note_on_c, 7, 55, 127
1, 306440, Note_off_c, 7, 55, 127
1, 306440, Note_off_c, 4, 64, 127
1, 306443, Note_on_c, 0, 72, 127
1, 306443, Note_on_c, 5, 53, 127
1, 306541, Note_off_c, 0, 72, 127
1, 306544, Note_on_c, 10, 69, 127
1, 306642, Note_off_c, 10, 69, 127
1, 306644, Note_off_c, 5, 53, 127
1, 306645, Note_on_c, 0, 72, 127
1, 306645, Note_on_c, 10, 57, 127
1, 306743, Note_off_c, 0, 72, 127
1, 306746, Note_on_c, 5, 65, 127
1, 306844, Note_off_c, 5, 65, 127
1, 306846, Note_off_c, 10, 57, 127
1, 306847, Note_on_c, 0, 72, 127
1, 306847, Note_on_c, 5, 53, 127
1, 306945, Note_off_c, 0, 72, 127
1, 306948, Note_on_c, 10, 69, 127
1, 307046, Note_off_c, 10, 69, 127
1, 307048, Note_off_c, 5, 53, 127
1, 307049, Note_on_c, 0, 72, 127
1, 307049, Note_on_c, 10, 57, 127
1, 307147, Note_off_c, 0, 72, 127
1, 307150, Note_on_c, 5, 65, 127
1, 307248, Note_off_c, 5, 65, 127
1, 307250, Note_off_c, 10, 57, 127
1, 307251, Note_on_c, 2, 74, 127
1, 307251, Note_on_c, 12, 47, 127
1, 307349, Note_off_c, 2, 74, 127
1, 307352, Note_on_c, 12, 71, 127
1, 307450, Note_off_c, 12, 71, 127
1, 307452, Note_off_c, 12, 47, 127
1, 307453, Note_on_c, 2, 74, 127
1, 307453, Note_on_c, 12, 59, 127
1, 307551, Note_off_c, 12, 59, 127
1, 307551, Note_off_c, 2, 74, 127
1, 307554, Note_on_c, 5, 65, 127
1, 307554, Note_on_c, 10, 57, 127
1, 307652, Note_off_c, 10, 57, 127
1, 307652, Note_off_c, 5, 65, 127
1, 307655, Note_on_c, 2, 74, 127
1, 307655, Note_on_c, 7, 55, 127
1, 307753, Note_off_c, 2, 74, 127
1, 307756, Note_on_c, 12, 71, 127
1, 307854, Note_off_c, 12, 71, 127
1, 307856, Note_off_c, 7, 55, 127
1, 307857, Note_on_c, 2, 74, 127
1, 307857, Note_on_c, 12, 59, 127
1, 307955, Note_off_c, 2, 74, 127
1, 307958, Note_on_c, 7, 67, 127
1, 308056, Note_off_c, 7, 67, 127
1, 308058, Note_off_c, 12, 59, 127
1, 308059, Note_on_c, 2, 74, 127
1, 308059, Note_on_c, 7, 55, 127
1, 308157, Note_off_c, 2, 74, 127
1, 308160, Note_on_c, 12, 71, 127
1, 308258, Note_off_c, 12, 71, 127
1, 308260, Note_off_c, 7, 55, 127
1, 308261, Note_on_c, 2, 74, 127
1, 308261, Note_on_c, 12, 59, 127
1, 308359, Note_off_c, 2, 74, 127
1, 308362, Note_on_c, 7, 67, 127
1, 308460, Note_off_c, 7, 67, 127
1, 308462, Note_off_c, 12, 59, 127
1, 308463, Note_on_c, 4, 76, 127
1, 308463, Note_on_c, 0, 48, 127
1, 308561, Note_off_c, 4, 76, 127
1, 308564, Note_on_c, 2, 74, 127
1, 308662, Note_off_c, 2, 74, 127
1, 308664, Note_off_c, 0, 48, 127
1, 308665, Note_on_c, 0, 72, 127
1, 308665, Note_on_c, 0, 60, 127
1, 308763, Note_off_c, 0, 60, 127
1, 308763, Note_off_c, 0, 72, 127
1, 308766, Note_on_c, 2, 74, 127
1, 308766, Note_on_c, 12, 59, 127
1, 308864, Note_off_c, 12, 59, 127
1, 308864, Note_off_c, 2, 74, 127
1, 308867, Note_on_c, 4, 76, 127
1, 308867, Note_on_c, 10, 57, 127
1, 308965, Note_off_c, 4, 76, 127
1, 308968, Note_on_c, 12, 71, 127
1, 309066, Note_off_c, 12, 71, 127
1, 309068, Note_off_c, 10, 57, 127
1, 309069, Note_on_c, 10, 69, 127
1, 309069, Note_on_c, 0, 60, 127
1, 309167, Note_off_c, 10, 69, 127
1, 309170, Note_on_c, 7, 67, 127
1, 309268, Note_off_c, 7, 67, 127
1, 309270, Note_off_c, 0, 60, 127
1, 309271, Note_on_c, 6, 66, 127
1, 309271, Note_on_c, 2, 62, 127
1, 309369, Note_off_c, 6, 66, 127
1, 309372, Note_on_c, 4, 76, 127
1, 309470, Note_off_c, 4, 76, 127
1, 309473, Note_on_c, 2, 74, 127
1, 309473, Note_on_c, 2, 50, 127
1, 309571, Note_off_c, 2, 74, 127
1, 309574, Note_on_c, 0, 72, 127
1, 309672, Note_off_c, 0, 72, 127
1, 309674, Note_off_c, 2, 50, 127
1, 309674, Note_off_c, 2, 62, 127
1, 309675, Note_on_c, 12, 71, 127
1, 309675, Note_on_c, 7, 55, 127
1, 309773, Note_off_c, 7, 55, 127
1, 309773, Note_off_c, 12, 71, 127
1, 309776, Note_on_c, 10, 69, 127
1, 309776, Note_on_c, 4, 52, 127
1, 309874, Note_off_c, 4, 52, 127
1, 309874, Note_off_c, 10, 69, 127
1, 309877, Note_on_c, 12, 71, 127
1, 309877, Note_on_c, 2, 50, 127
1, 309975, Note_off_c, 2, 50, 127
1, 309975, Note_off_c, 12, 71, 127
1, 309978, Note_on_c, 0, 72, 127
1, 309978, Note_on_c, 0, 48, 127
1, 310076, Note_off_c, 0, 48, 127
1, 310076, Note_off_c, 0, 72, 127
1, 310079, Note_on_c, 2, 74, 127
1, 310079, Note_on_c, 12, 47, 127
1, 310177, Note_off_c, 12, 47, 127
1, 310180, Note_on_c, 2, 50, 127
1, 310278, Note_off_c, 2, 50, 127
1, 310281, Note_on_c, 7, 67, 127
1, 310281, Note_on_c, 4, 52, 127
1, 310379, Note_off_c, 4, 52, 127
1, 310382, Note_on_c, 5, 53, 127
1, 310480, Note_off_c, 5, 53, 127
1, 310482, Note_off_c, 2, 74, 127
1, 310483, Note_on_c, 2, 74, 127
1, 310483, Note_on_c, 7, 43, 127
1, 310581, Note_off_c, 7, 43, 127
1, 310584, Note_on_c, 2, 50, 127
1, 310682, Note_off_c, 2, 50, 127
1, 310684, Note_off_c, 7, 67, 127
1, 310685, Note_on_c, 12, 71, 127
1, 310685, Note_on_c, 4, 52, 127
1, 310783, Note_off_c, 4, 52, 127
1, 310786, Note_on_c, 5, 53, 127
1, 310884, Note_off_c, 5, 53, 127
1, 310886, Note_off_c, 12, 71, 127
1, 310886, Note_off_c, 2, 74, 127
1, 310887, Note_on_c, 4, 76, 127
1, 310887, Note_on_c, 0, 48, 127
1, 310985, Note_off_c, 0, 48, 127
1, 310988, Note_on_c, 5, 53, 127
1, 311086, Note_off_c, 5, 53, 127
1, 311089, Note_on_c, 0, 72, 127
1, 311089, Note_on_c, 4, 52, 127
1, 311187, Note_off_c, 4, 52, 127
1, 311190, Note_on_c, 2, 50, 127
1, 311288, Note_off_c, 2, 50, 127
1, 311290, Note_off_c, 4, 76, 127
1, 311291, Note_on_c, 4, 76, 127
1, 311291, Note_on_c, 0, 48, 127
1, 311389, Note_off_c, 0, 48, 127
1, 311392, Note_on_c, 4, 52, 127
1, 311490, Note_off_c, 4, 52, 127
1, 311492, Note_off_c, 0, 72, 127
1, 311493, Note_on_c, 10, 69, 127
1, 311493, Note_on_c, 6, 54, 127
1, 311591, Note_off_c, 6, 54, 127
1, 311594, Note_on_c, 7, 55, 127
1, 311692, Note_off_c, 7, 55, 127
1, 311694, Note_off_c, 4, 76, 127
1, 311695, Note_on_c, 4, 76, 127
1, 311695, Note_on_c, 10, 45, 127
1, 311793, Note_off_c, 10, 45, 127
1, 311796, Note_on_c, 4, 52, 127
1, 311894, Note_off_c, 4, 52, 127
1, 311896, Note_off_c, 10, 69, 127
1, 311897, Note_on_c, 0, 72, 127
1, 311897, Note_on_c, 6, 54, 127
1, 311995, Note_off_c, 6, 54, 127
1, 311998, Note_on_c, 7, 55, 127
1, 312096, Note_off_c, 7, 55, 127
1, 312098, Note_off_c, 0, 72, 127
1, 312098, Note_off_c, 4, 76, 127
1, 312099, Note_on_c, 6, 78, 127
1, 312099, Note_on_c, 2, 50, 127
1, 312197, Note_off_c, 2, 50, 127
1, 312200, Note_on_c, 7, 55, 127
1, 312298, Note_off_c, 7, 55, 127
1, 312301, Note_on_c, 2, 74, 127
1, 312301, Note_on_c, 6, 54, 127
1, 312399, Note_off_c, 6, 54, 127
1, 312402, Note_on_c, 4, 52, 127
1, 312500, Note_off_c, 4, 52, 127
1, 312502, Note_off_c, 6, 78, 127
1, 312503, Note_on_c, 6, 78, 127
1, 312503, Note_on_c, 2, 50, 127
1, 312601, Note_off_c, 2, 50, 127
1, 312604, Note_on_c, 6, 54, 127
1, 312702, Note_off_c, 6, 54, 127
1, 312704, Note_off_c, 2, 74, 127
1, 312705, Note_on_c, 12, 71, 127
1, 312705, Note_on_c, 7, 55, 127
1, 312803, Note_off_c, 7, 55, 127
1, 312806, Note_on_c, 10, 57, 127
1, 312904, Note_off_c, 10, 57, 127
1, 312906, Note_off_c, 6, 78, 127
1, 312907, Note_on_c, 6, 78, 127
1, 312907, Note_on_c, 12, 47, 127
1, 313005, Note_off_c, 12, 47, 127
1, 313008, Note_on_c, 6, 54, 127
1, 313106, Note_off_c, 6, 54, 127
1, 313108, Note_off_c, 12, 71, 127
1, 313109, Note_on_c, 2, 74, 127
1, 313109, Note_on_c, 7, 55, 127
1, 313207, Note_off_c, 7, 55, 127
1, 313210, Note_on_c, 10, 57, 127
1, 313308, Note_off_c, 10, 57, 127
1, 313310, Note_off_c, 2, 74, 127
1, 313310, Note_off_c, 6, 78, 127
1, 313311, Note_on_c, 7, 79, 127
1, 313311, Note_on_c, 4, 52, 127
1, 313409, Note_off_c, 4, 52, 127
1, 313412, Note_on_c, 10, 57, 127
1, 313510, Note_off_c, 10, 57, 127
1, 313513, Note_on_c, 4, 76, 127
1, 313513, Note_on_c, 7, 55, 127
1, 313611, Note_off_c, 7, 55, 127
1, 313614, Note_on_c, 6, 54, 127
1, 313712, Note_off_c, 6, 54, 127
1, 313714, Note_off_c, 7, 79, 127
1, 313715, Note_on_c, 7, 79, 127
1, 313715, Note_on_c, 4, 52, 127
1, 313813, Note_off_c, 4, 52, 127
1, 313816, Note_on_c, 7, 55, 127
1, 313914, Note_off_c, 7, 55, 127
1, 313916, Note_off_c, 4, 76, 127
1, 313917, Note_on_c, 0, 72, 127
1, 313917, Note_on_c, 10, 57, 127
1, 314015, Note_off_c, 10, 57, 127
1, 314018, Note_on_c, 12, 59, 127
1, 314116, Note_off_c, 12, 59, 127
1, 314118, Note_off_c, 7, 79, 127
1, 314119, Note_on_c, 7, 79, 127
1, 314119, Note_on_c, 0, 48, 127
1, 314217, Note_off_c, 0, 48, 127
1, 314220, Note_on_c, 7, 55, 127
1, 314318, Note_off_c, 7, 55, 127
1, 314320, Note_off_c, 0, 72, 127
1, 314321, Note_on_c, 4, 76, 127
1, 314321, Note_on_c, 10, 57, 127
1, 314419, Note_off_c, 10, 57, 127
1, 314422, Note_on_c, 12, 59, 127
1, 314520, Note_off_c, 12, 59, 127
1, 314522, Note_off_c, 4, 76, 127
1, 314522, Note_off_c, 7, 79, 127
1, 314523, Note_on_c, 10, 81, 127
1, 314523, Note_on_c, 6, 54, 127
1, 314621, Note_off_c, 6, 54, 127
1, 314624, Note_on_c, 12, 59, 127
1, 314722, Note_off_c, 12, 59, 127
1, 314725, Note_on_c, 6, 78, 127
1, 314725, Note_on_c, 10, 57, 127
1, 314823, Note_off_c, 10, 57, 127
1, 314826, Note_on_c, 7, 55, 127
1, 314924, Note_off_c, 7, 55, 127
1, 314926, Note_off_c, 10, 81, 127
1, 314927, Note_on_c, 10, 81, 127
1, 314927, Note_on_c, 6, 54, 127
1, 315025, Note_off_c, 6, 54, 127
1, 315028, Note_on_c, 10, 57, 127
1, 315126, Note_off_c, 10, 57, 127
1, 315128, Note_off_c, 6, 78, 127
1, 315129, Note_on_c, 2, 74, 127
1, 315129, Note_on_c, 12, 59, 127
1, 315227, Note_off_c, 12, 59, 127
1, 315230, Note_on_c, 0, 60, 127
1, 315328, Note_off_c, 0, 60, 127
1, 315330, Note_off_c, 10, 81, 127
1, 315331, Note_on_c, 10, 81, 127
1, 315331, Note_on_c, 2, 50, 127
1, 315429, Note_off_c, 2, 50, 127
1, 315432, Note_on_c, 10, 57, 127
1, 315530, Note_off_c, 10, 57, 127
1, 315532, Note_off_c, 2, 74, 127
1, 315533, Note_on_c, 6, 78, 127
1, 315533, Note_on_c, 12, 59, 127
1, 315631, Note_off_c, 12, 59, 127
1, 315634, Note_on_c, 0, 60, 127
1, 315732, Note_off_c, 0, 60, 127
1, 315734, Note_off_c, 6, 78, 127
1, 315734, Note_off_c, 10, 81, 127
1, 315735, Note_on_c, 12, 83, 127
1, 315735, Note_on_c, 7, 55, 127
1, 315833, Note_off_c, 7, 55, 127
1, 315836, Note_on_c, 0, 60, 127
1, 315934, Note_off_c, 0, 60, 127
1, 315936, Note_off_c, 12, 83, 127
1, 315937, Note_on_c, 7, 79, 127
1, 315937, Note_on_c, 12, 59, 127
1, 316035, Note_off_c, 12, 59, 127
1, 316038, Note_on_c, 0, 60, 127
1, 316136, Note_off_c, 0, 60, 127
1, 316138, Note_off_c, 7, 79, 127
1, 316139, Note_on_c, 6, 78, 127
1, 316139, Note_on_c, 2, 62, 127
1, 316201, Note_off_c, 6, 78, 127
1, 316201, Note_on_c, 7, 79, 127
1, 316237, Note_off_c, 2, 62, 127
1, 316240, Note_on_c, 0, 60, 127
1, 316263, Note_off_c, 7, 79, 127
1, 316263, Note_on_c, 6, 78, 127
1, 316325, Note_off_c, 6, 78, 127
1, 316325, Note_on_c, 7, 79, 127
1, 316338, Note_off_c, 0, 60, 127
1, 316341, Note_on_c, 12, 59, 127
1, 316387, Note_off_c, 7, 79, 127
1, 316387, Note_on_c, 6, 78, 127
1, 316439, Note_off_c, 12, 59, 127
1, 316442, Note_on_c, 0, 60, 127
1, 316449, Note_off_c, 6, 78, 127
1, 316449, Note_on_c, 7, 79, 127
1, 316511, Note_off_c, 7, 79, 127
1, 316511, Note_on_c, 6, 78, 127
1, 316539, Note_off_c, 0, 60, 127
1, 316542, Note_on_c, 2, 62, 127
1, 316573, Note_off_c, 6, 78, 127
1, 316573, Note_on_c, 7, 79, 127
1, 316635, Note_off_c, 7, 79, 127
1, 316635, Note_on_c, 6, 78, 127
1, 316640, Note_off_c, 2, 62, 127
1, 316643, Note_on_c, 0, 60, 127
1, 316691, Note_on_c, 7, 79, 127
1, 316696, Note_off_c, 6, 78, 127
1, 316740, Note_off_c, 0, 60, 127
1, 316743, Note_on_c, 2, 62, 127
1, 316752, Note_off_c, 7, 79, 127
1, 316752, Note_on_c, 6, 78, 127
1, 316814, Note_off_c, 6, 78, 127
1, 316814, Note_on_c, 4, 76, 127
1, 316840, Note_off_c, 2, 62, 127
1, 316843, Note_on_c, 2, 50, 127
1, 316876, Note_off_c, 4, 76, 127
1, 316878, Note_on_c, 6, 78, 127
1, 316941, Note_off_c, 2, 50, 127
1, 316944, Note_off_c, 6, 78, 127
1, 316944, Note_on_c, 7, 79, 127
1, 316944, Note_on_c, 7, 55, 127
1, 317042, Note_off_c, 7, 79, 127
1, 317045, Note_on_c, 7, 67, 127
1, 317143, Note_off_c, 7, 67, 127
1, 317145, Note_off_c, 7, 55, 127
1, 317146, Note_on_c, 12, 71, 127
1, 317146, Note_on_c, 2, 50, 127
1, 317244, Note_off_c, 2, 50, 127
1, 317244, Note_off_c, 12, 71, 127
1, 317247, Note_on_c, 0, 72, 127
1, 317247, Note_on_c, 0, 48, 127
1, 317345, Note_off_c, 0, 48, 127
1, 317345, Note_off_c, 0, 72, 127
1, 317348, Note_on_c, 2, 74, 127
1, 317348, Note_on_c, 12, 47, 127
1, 317446, Note_off_c, 2, 74, 127
1, 317449, Note_on_c, 0, 72, 127
1, 317547, Note_off_c, 0, 72, 127
1, 317549, Note_off_c, 12, 47, 127
1, 317550, Note_on_c, 12, 71, 127
1, 317550, Note_on_c, 10, 45, 127
1, 317648, Note_off_c, 12, 71, 127
1, 317651, Note_on_c, 0, 72, 127
1, 317749, Note_off_c, 0, 72, 127
1, 317751, Note_off_c, 10, 45, 127
1, 317752, Note_on_c, 2, 74, 127
1, 317752, Note_on_c, 12, 47, 127
1, 317850, Note_off_c, 2, 74, 127
1, 317853, Note_on_c, 7, 67, 127
1, 317951, Note_off_c, 7, 67, 127
1, 317953, Note_off_c, 12, 47, 127
1, 317954, Note_on_c, 12, 71, 127
1, 317954, Note_on_c, 7, 43, 127
1, 318052, Note_off_c, 12, 71, 127
1, 318055, Note_on_c, 2, 74, 127
1, 318153, Note_off_c, 2, 74, 127
1, 318155, Note_off_c, 7, 43, 127
1, 318156, Note_on_c, 4, 76, 127
1, 318156, Note_on_c, 0, 48, 127
1, 318254, Note_off_c, 4, 76, 127
1, 318257, Note_on_c, 7, 67, 127
1, 318355, Note_off_c, 7, 67, 127
1, 318357, Note_off_c, 0, 48, 127
1, 318358, Note_on_c, 0, 72, 127
1, 318358, Note_on_c, 4, 52, 127
1, 318456, Note_off_c, 4, 52, 127
1, 318456, Note_off_c, 0, 72, 127
1, 318459, Note_on_c, 2, 74, 127
1, 318459, Note_on_c, 2, 50, 127
1, 318557, Note_off_c, 2, 50, 127
1, 318557, Note_off_c, 2, 74, 127
1, 318560, Note_on_c, 4, 76, 127
1, 318560, Note_on_c, 0, 48, 127
1, 318658, Note_off_c, 4, 76, 127
1, 318661, Note_on_c, 2, 74, 127
1, 318759, Note_off_c, 2, 74, 127
1, 318761, Note_off_c, 0, 48, 127
1, 318762, Note_on_c, 0, 72, 127
1, 318762, Note_on_c, 12, 47, 127
1, 318860, Note_off_c, 0, 72, 127
1, 318863, Note_on_c, 2, 74, 127
1, 318961, Note_off_c, 2, 74, 127
1, 318963, Note_off_c, 12, 47, 127
1, 318964, Note_on_c, 4, 76, 127
1, 318964, Note_on_c, 0, 48, 127
1, 319062, Note_off_c, 4, 76, 127
1, 319065, Note_on_c, 10, 69, 127
1, 319163, Note_off_c, 10, 69, 127
1, 319165, Note_off_c, 0, 48, 127
1, 319166, Note_on_c, 0, 72, 127
1, 319166, Note_on_c, 10, 45, 127
1, 319264, Note_off_c, 0, 72, 127
1, 319267, Note_on_c, 4, 76, 127
1, 319365, Note_off_c, 4, 76, 127
1, 319367, Note_off_c, 10, 45, 127
1, 319368, Note_on_c, 6, 78, 127
1, 319368, Note_on_c, 2, 50, 127
1, 319466, Note_off_c, 6, 78, 127
1, 319469, Note_on_c, 10, 69, 127
1, 319567, Note_off_c, 10, 69, 127
1, 319569, Note_off_c, 2, 50, 127
1, 319570, Note_on_c, 2, 74, 127
1, 319570, Note_on_c, 6, 54, 127
1, 319668, Note_off_c, 6, 54, 127
1, 319668, Note_off_c, 2, 74, 127
1, 319671, Note_on_c, 4, 76, 127
1, 319671, Note_on_c, 4, 52, 127
1, 319769, Note_off_c, 4, 52, 127
1, 319769, Note_off_c, 4, 76, 127
1, 319772, Note_on_c, 6, 78, 127
1, 319772, Note_on_c, 2, 50, 127
1, 319870, Note_off_c, 6, 78, 127
1, 319873, Note_on_c, 4, 76, 127
1, 319971, Note_off_c, 4, 76, 127
1, 319973, Note_off_c, 2, 50, 127
1, 319974, Note_on_c, 2, 74, 127
1, 319974, Note_on_c, 0, 48, 127
1, 320072, Note_off_c, 2, 74, 127
1, 320075, Note_on_c, 4, 76, 127
1, 320173, Note_off_c, 4, 76, 127
1, 320175, Note_off_c, 0, 48, 127
1, 320176, Note_on_c, 6, 78, 127
1, 320176, Note_on_c, 2, 50, 127
1, 320274, Note_off_c, 6, 78, 127
1, 320277, Note_on_c, 12, 71, 127
1, 320375, Note_off_c, 12, 71, 127
1, 320377, Note_off_c, 2, 50, 127
1, 320378, Note_on_c, 2, 74, 127
1, 320378, Note_on_c, 12, 47, 127
1, 320476, Note_off_c, 2, 74, 127
1, 320479, Note_on_c, 6, 78, 127
1, 320577, Note_off_c, 6, 78, 127
1, 320579, Note_off_c, 12, 47, 127
1, 320580, Note_on_c, 7, 79, 127
1, 320580, Note_on_c, 4, 52, 127
1, 320678, Note_off_c, 7, 79, 127
1, 320681, Note_on_c, 12, 71, 127
1, 320779, Note_off_c, 12, 71, 127
1, 320781, Note_off_c, 4, 52, 127
1, 320782, Note_on_c, 4, 76, 127
1, 320782, Note_on_c, 7, 55, 127
1, 320880, Note_off_c, 7, 55, 127
1, 320880, Note_off_c, 4, 76, 127
1, 320883, Note_on_c, 6, 78, 127
1, 320883, Note_on_c, 6, 54, 127
1, 320981, Note_off_c, 6, 54, 127
1, 320981, Note_off_c, 6, 78, 127
1, 320984, Note_on_c, 7, 79, 127
1, 320984, Note_on_c, 4, 52, 127
1, 321082, Note_off_c, 7, 79, 127
1, 321085, Note_on_c, 6, 78, 127
1, 321183, Note_off_c, 6, 78, 127
1, 321185, Note_off_c, 4, 52, 127
1, 321186, Note_on_c, 4, 76, 127
1, 321186, Note_on_c, 2, 50, 127
1, 321284, Note_off_c, 4, 76, 127
1, 321287, Note_on_c, 6, 78, 127
1, 321385, Note_off_c, 6, 78, 127
1, 321387, Note_off_c, 2, 50, 127
1, 321388, Note_on_c, 7, 79, 127
1, 321388, Note_on_c, 4, 52, 127
1, 321486, Note_off_c, 7, 79, 127
1, 321489, Note_on_c, 0, 72, 127
1, 321587, Note_off_c, 0, 72, 127
1, 321589, Note_off_c, 4, 52, 127
1, 321590, Note_on_c, 4, 76, 127
1, 321590, Note_on_c, 0, 48, 127
1, 321688, Note_off_c, 4, 76, 127
1, 321691, Note_on_c, 7, 79, 127
1, 321789, Note_off_c, 7, 79, 127
1, 321791, Note_off_c, 0, 48, 127
1, 321792, Note_on_c, 10, 81, 127
1, 321792, Note_on_c, 6, 54, 127
1, 321890, Note_off_c, 10, 81, 127
1, 321893, Note_on_c, 2, 74, 127
1, 321991, Note_off_c, 2, 74, 127
1, 321993, Note_off_c, 6, 54, 127
1, 321994, Note_on_c, 6, 78, 127
1, 321994, Note_on_c, 10, 57, 127
1, 322092, Note_off_c, 10, 57, 127
1, 322092, Note_off_c, 6, 78, 127
1, 322095, Note_on_c, 7, 79, 127
1, 322095, Note_on_c, 7, 55, 127
1, 322193, Note_off_c, 7, 55, 127
1, 322193, Note_off_c, 7, 79, 127
1, 322196, Note_on_c, 10, 81, 127
1, 322196, Note_on_c, 6, 54, 127
1, 322294, Note_off_c, 10, 81, 127
1, 322297, Note_on_c, 7, 79, 127
1, 322395, Note_off_c, 7, 79, 127
1, 322397, Note_off_c, 6, 54, 127
1, 322398, Note_on_c, 6, 78, 127
1, 322398, Note_on_c, 4, 52, 127
1, 322496, Note_off_c, 6, 78, 127
1, 322499, Note_on_c, 7, 79, 127
1, 322597, Note_off_c, 7, 79, 127
1, 322599, Note_off_c, 4, 52, 127
1, 322600, Note_on_c, 10, 81, 127
1, 322600, Note_on_c, 6, 54, 127
1, 322698, Note_off_c, 10, 81, 127
1, 322701, Note_on_c, 2, 74, 127
1, 322799, Note_off_c, 2, 74, 127
1, 322801, Note_off_c, 6, 54, 127
1, 322802, Note_on_c, 6, 78, 127
1, 322802, Note_on_c, 2, 50, 127
1, 322900, Note_off_c, 6, 78, 127
1, 322903, Note_on_c, 10, 81, 127
1, 323001, Note_off_c, 10, 81, 127
1, 323003, Note_off_c, 2, 50, 127
1, 323004, Note_on_c, 12, 83, 127
1, 323004, Note_on_c, 7, 55, 127
1, 323102, Note_off_c, 12, 83, 127
1, 323105, Note_on_c, 2, 74, 127
1, 323203, Note_off_c, 2, 74, 127
1, 323205, Note_off_c, 7, 55, 127
1, 323206, Note_on_c, 7, 79, 127
1, 323206, Note_on_c, 12, 47, 127
1, 323304, Note_off_c, 12, 47, 127
1, 323304, Note_off_c, 7, 79, 127
1, 323307, Note_on_c, 10, 81, 127
1, 323307, Note_on_c, 0, 48, 127
1, 323405, Note_off_c, 0, 48, 127
1, 323405, Note_off_c, 10, 81, 127
1, 323408, Note_on_c, 7, 79, 127
1, 323408, Note_on_c, 2, 50, 127
1, 323609, Note_off_c, 2, 50, 127
1, 323610, Note_on_c, 0, 48, 127
1, 323811, Note_off_c, 0, 48, 127
1, 323811, Note_off_c, 7, 79, 127
1, 323812, Note_on_c, 6, 78, 127
1, 323812, Note_on_c, 2, 50, 127
1, 323893, Note_off_c, 6, 78, 127
1, 323893, Note_on_c, 7, 79, 127
1, 323974, Note_off_c, 7, 79, 127
1, 323974, Note_on_c, 6, 78, 127
1, 324013, Note_off_c, 2, 50, 127
1, 324014, Note_on_c, 2, 38, 127
1, 324055, Note_off_c, 6, 78, 127
1, 324055, Note_on_c, 4, 76, 127
1, 324136, Note_off_c, 4, 76, 127
1, 324138, Note_on_c, 6, 78, 127
1, 324215, Note_off_c, 2, 38, 127
1, 324216, Note_on_c, 7, 79, 127
1, 324216, Note_on_c, 7, 43, 127
1, 324219, Note_off_c, 6, 78, 127
1, 324314, Note_off_c, 7, 79, 127
1, 324317, Note_on_c, 2, 74, 127
1, 324415, Note_off_c, 2, 74, 127
1, 324418, Note_on_c, 12, 71, 127
1, 324516, Note_off_c, 12, 71, 127
1, 324519, Note_on_c, 2, 74, 127
1, 324617, Note_off_c, 2, 74, 127
1, 324619, Note_off_c, 7, 43, 127
1, 324620, Note_on_c, 7, 67, 127
1, 324721, Note_on_c, 2, 62, 127
1, 324819, Note_off_c, 2, 62, 127
1, 324822, Note_on_c, 12, 59, 127
1, 324920, Note_off_c, 12, 59, 127
1, 324923, Note_on_c, 2, 62, 127
1, 325021, Note_off_c, 2, 62, 127
1, 325023, Note_off_c, 7, 67, 127
1, 325024, Note_on_c, 7, 55, 127
1, 325122, Note_off_c, 7, 55, 127
1, 325125, Note_on_c, 7, 79, 127
1, 325125, Note_on_c, 12, 59, 127
1, 325223, Note_off_c, 12, 59, 127
1, 325223, Note_off_c, 7, 79, 127
1, 325226, Note_on_c, 5, 77, 127
1, 325226, Note_on_c, 10, 57, 127
1, 325324, Note_off_c, 10, 57, 127
1, 325324, Note_off_c, 5, 77, 127
1, 325327, Note_on_c, 7, 79, 127
1, 325327, Note_on_c, 7, 55, 127
1, 325425, Note_off_c, 7, 55, 127
1, 325425, Note_off_c, 7, 79, 127
1, 325428, Note_on_c, 4, 76, 127
1, 325428, Note_on_c, 0, 60, 127
1, 325526, Note_off_c, 0, 60, 127
1, 325529, Note_on_c, 7, 67, 127
1, 325627, Note_off_c, 7, 67, 127
1, 325630, Note_on_c, 4, 64, 127
1, 325728, Note_off_c, 4, 64, 127
1, 325731, Note_on_c, 7, 67, 127
1, 325829, Note_off_c, 7, 67, 127
1, 325831, Note_off_c, 4, 76, 127
1, 325832, Note_on_c, 0, 60, 127
1, 325930, Note_off_c, 0, 60, 127
1, 325933, Note_on_c, 4, 64, 127
1, 326031, Note_off_c, 4, 64, 127
1, 326034, Note_on_c, 7, 55, 127
1, 326132, Note_off_c, 7, 55, 127
1, 326135, Note_on_c, 0, 60, 127
1, 326233, Note_off_c, 0, 60, 127
1, 326236, Note_on_c, 4, 52, 127
1, 326334, Note_off_c, 4, 52, 127
1, 326337, Note_on_c, 5, 77, 127
1, 326337, Note_on_c, 7, 55, 127
1, 326435, Note_off_c, 7, 55, 127
1, 326435, Note_off_c, 5, 77, 127
1, 326438, Note_on_c, 4, 76, 127
1, 326438, Note_on_c, 0, 48, 127
1, 326536, Note_off_c, 0, 48, 127
1, 326536, Note_off_c, 4, 76, 127
1, 326539, Note_on_c, 2, 74, 127
1, 326539, Note_on_c, 4, 52, 127
1, 326637, Note_off_c, 4, 52, 127
1, 326637, Note_off_c, 2, 74, 127
1, 326640, Note_on_c, 0, 72, 127
1, 326640, Note_on_c, 10, 45, 127
1, 326738, Note_off_c, 0, 72, 127
1, 326741, Note_on_c, 4, 76, 127
1, 326839, Note_off_c, 4, 76, 127
1, 326842, Note_on_c, 0, 72, 127
1, 326940, Note_off_c, 0, 72, 127
1, 326943, Note_on_c, 4, 76, 127
1, 327041, Note_off_c, 4, 76, 127
1, 327043, Note_off_c, 10, 45, 127
1, 327044, Note_on_c, 10, 69, 127
1, 327145, Note_on_c, 4, 64, 127
1, 327243, Note_off_c, 4, 64, 127
1, 327246, Note_on_c, 0, 60, 127
1, 327344, Note_off_c, 0, 60, 127
1, 327347, Note_on_c, 4, 64, 127
1, 327445, Note_off_c, 4, 64, 127
1, 327447, Note_off_c, 10, 69, 127
1, 327448, Note_on_c, 10, 57, 127
1, 327546, Note_off_c, 10, 57, 127
1, 327549, Note_on_c, 10, 81, 127
1, 327549, Note_on_c, 0, 60, 127
1, 327647, Note_off_c, 0, 60, 127
1, 327647, Note_off_c, 10, 81, 127
1, 327650, Note_on_c, 7, 79, 127
1, 327650, Note_on_c, 12, 59, 127
1, 327748, Note_off_c, 12, 59, 127
1, 327748, Note_off_c, 7, 79, 127
1, 327751, Note_on_c, 10, 81, 127
1, 327751, Note_on_c, 10, 57, 127
1, 327849, Note_off_c, 10, 57, 127
1, 327849, Note_off_c, 10, 81, 127
1, 327852, Note_on_c, 6, 78, 127
1, 327852, Note_on_c, 2, 62, 127
1, 327950, Note_off_c, 2, 62, 127
1, 327953, Note_on_c, 10, 69, 127
1, 328051, Note_off_c, 10, 69, 127
1, 328054, Note_on_c, 6, 66, 127
1, 328152, Note_off_c, 6, 66, 127
1, 328155, Note_on_c, 10, 69, 127
1, 328253, Note_off_c, 10, 69, 127
1, 328255, Note_off_c, 6, 78, 127
1, 328256, Note_on_c, 2, 62, 127
1, 328354, Note_off_c, 2, 62, 127
1, 328357, Note_on_c, 6, 66, 127
1, 328455, Note_off_c, 6, 66, 127
1, 328458, Note_on_c, 10, 57, 127
1, 328556, Note_off_c, 10, 57, 127
1, 328559, Note_on_c, 2, 62, 127
1, 328657, Note_off_c, 2, 62, 127
1, 328660, Note_on_c, 6, 54, 127
1, 328758, Note_off_c, 6, 54, 127
1, 328761, Note_on_c, 7, 79, 127
1, 328761, Note_on_c, 10, 57, 127
1, 328859, Note_off_c, 10, 57, 127
1, 328859, Note_off_c, 7, 79, 127
1, 328862, Note_on_c, 6, 78, 127
1, 328862, Note_on_c, 2, 50, 127
1, 328960, Note_off_c, 2, 50, 127
1, 328960, Note_off_c, 6, 78, 127
1, 328963, Note_on_c, 4, 76, 127
1, 328963, Note_on_c, 6, 54, 127
1, 329061, Note_off_c, 6, 54, 127
1, 329061, Note_off_c, 4, 76, 127
1, 329064, Note_on_c, 2, 74, 127
1, 329064, Note_on_c, 12, 47, 127
1, 329162, Note_off_c, 2, 74, 127
1, 329165, Note_on_c, 6, 78, 127
1, 329263, Note_off_c, 6, 78, 127
1, 329266, Note_on_c, 2, 74, 127
1, 329364, Note_off_c, 2, 74, 127
1, 329367, Note_on_c, 6, 78, 127
1, 329465, Note_off_c, 6, 78, 127
1, 329467, Note_off_c, 12, 47, 127
1, 329468, Note_on_c, 12, 71, 127
1, 329569, Note_on_c, 6, 66, 127
1, 329667, Note_off_c, 6, 66, 127
1, 329670, Note_on_c, 2, 62, 127
1, 329768, Note_off_c, 2, 62, 127
1, 329771, Note_on_c, 6, 66, 127
1, 329869, Note_off_c, 6, 66, 127
1, 329871, Note_off_c, 12, 71, 127
1, 329872, Note_on_c, 12, 59, 127
1, 329970, Note_off_c, 12, 59, 127
1, 329973, Note_on_c, 12, 83, 127
1, 329973, Note_on_c, 2, 62, 127
1, 330071, Note_off_c, 2, 62, 127
1, 330071, Note_off_c, 12, 83, 127
1, 330074, Note_on_c, 10, 81, 127
1, 330074, Note_on_c, 0, 60, 127
1, 330172, Note_off_c, 0, 60, 127
1, 330172, Note_off_c, 10, 81, 127
1, 330175, Note_on_c, 12, 83, 127
1, 330175, Note_on_c, 12, 59, 127
1, 330273, Note_off_c, 12, 59, 127
1, 330273, Note_off_c, 12, 83, 127
1, 330276, Note_on_c, 7, 79, 127
1, 330276, Note_on_c, 4, 64, 127
1, 330374, Note_off_c, 4, 64, 127
1, 330374, Note_off_c, 7, 79, 127
1, 330377, Note_on_c, 4, 76, 127
1, 330377, Note_on_c, 7, 55, 127
1, 330475, Note_off_c, 7, 55, 127
1, 330475, Note_off_c, 4, 76, 127
1, 330478, Note_on_c, 12, 71, 127
1, 330478, Note_on_c, 6, 54, 127
1, 330576, Note_off_c, 6, 54, 127
1, 330576, Note_off_c, 12, 71, 127
1, 330579, Note_on_c, 4, 76, 127
1, 330579, Note_on_c, 4, 52, 127
1, 330677, Note_off_c, 4, 52, 127
1, 330677, Note_off_c, 4, 76, 127
1, 330680, Note_on_c, 0, 72, 127
1, 330680, Note_on_c, 10, 57, 127
1, 330778, Note_off_c, 10, 57, 127
1, 330778, Note_off_c, 0, 72, 127
1, 330781, Note_on_c, 10, 69, 127
1, 330781, Note_on_c, 0, 60, 127
1, 330879, Note_off_c, 0, 60, 127
1, 330879, Note_off_c, 10, 69, 127
1, 330882, Note_on_c, 4, 64, 127
1, 330882, Note_on_c, 12, 59, 127
1, 330980, Note_off_c, 12, 59, 127
1, 330980, Note_off_c, 4, 64, 127
1, 330983, Note_on_c, 7, 67, 127
1, 330983, Note_on_c, 10, 57, 127
1, 331081, Note_off_c, 10, 57, 127
1, 331081, Note_off_c, 7, 67, 127
1, 331084, Note_on_c, 6, 66, 127
1, 331084, Note_on_c, 2, 62, 127
1, 331182, Note_off_c, 2, 62, 127
1, 331182, Note_off_c, 6, 66, 127
1, 331185, Note_on_c, 2, 74, 127
1, 331185, Note_on_c, 6, 54, 127
1, 331283, Note_off_c, 6, 54, 127
1, 331283, Note_off_c, 2, 74, 127
1, 331286, Note_on_c, 0, 72, 127
1, 331286, Note_on_c, 4, 52, 127
1, 331384, Note_off_c, 4, 52, 127
1, 331384, Note_off_c, 0, 72, 127
1, 331387, Note_on_c, 2, 74, 127
1, 331387, Note_on_c, 2, 50, 127
1, 331485, Note_off_c, 2, 50, 127
1, 331485, Note_off_c, 2, 74, 127
1, 331488, Note_on_c, 12, 71, 127
1, 331488, Note_on_c, 7, 55, 127
1, 331587, Note_off_c, 7, 55, 127
1, 331590, Note_on_c, 12, 47, 127
1, 331689, Note_off_c, 12, 47, 127
1, 331692, Note_on_c, 10, 45, 127
1, 331791, Note_off_c, 10, 45, 127
1, 331794, Note_on_c, 7, 43, 127
1, 331893, Note_off_c, 7, 43, 127
1, 331895, Note_off_c, 12, 71, 127
1, 331896, Note_on_c, 7, 67, 127
1, 331896, Note_on_c, 4, 64, 127
1, 331896, Note_on_c, 0, 60, 127
1, 331896, Note_on_c, 0, 48, 127
1, 331995, Note_off_c, 0, 48, 127
1, 331998, Note_on_c, 4, 40, 127
1, 332097, Note_off_c, 4, 40, 127
1, 332099, Note_off_c, 0, 60, 127
1, 332099, Note_off_c, 4, 64, 127
1, 332099, Note_off_c, 7, 67, 127
1, 332100, Note_on_c, 7, 67, 127
1, 332100, Note_on_c, 0, 60, 127
1, 332100, Note_on_c, 4, 64, 127
1, 332100, Note_on_c, 5, 41, 127
1, 332199, Note_off_c, 5, 41, 127
1, 332202, Note_on_c, 7, 43, 127
1, 332301, Note_off_c, 7, 43, 127
1, 332303, Note_off_c, 4, 64, 127
1, 332303, Note_off_c, 0, 60, 127
1, 332303, Note_off_c, 7, 67, 127
1, 332304, Note_on_c, 7, 67, 127
1, 332304, Note_on_c, 0, 60, 127
1, 332304, Note_on_c, 4, 64, 127
1, 332304, Note_on_c, 0, 36, 127
1, 332403, Note_off_c, 0, 36, 127
1, 332406, Note_on_c, 4, 40, 127
1, 332505, Note_off_c, 4, 40, 127
1, 332507, Note_off_c, 4, 64, 127
1, 332507, Note_off_c, 0, 60, 127
1, 332507, Note_off_c, 7, 67, 127
1, 332508, Note_on_c, 7, 67, 127
1, 332508, Note_on_c, 0, 60, 127
1, 332508, Note_on_c, 4, 64, 127
1, 332508, Note_on_c, 2, 38, 127
1, 332607, Note_off_c, 2, 38, 127
1, 332610, Note_on_c, 0, 36, 127
1, 332709, Note_off_c, 0, 36, 127
1, 332711, Note_off_c, 4, 64, 127
1, 332711, Note_off_c, 0, 60, 127
1, 332711, Note_off_c, 7, 67, 127
1, 332712, Note_on_c, 4, 64, 127
1, 332712, Note_on_c, 10, 69, 127
1, 332712, Note_on_c, 0, 60, 127
1, 332712, Note_on_c, 5, 41, 127
1, 332811, Note_off_c, 5, 41, 127
1, 332811, Note_off_c, 0, 60, 127
1, 332811, Note_off_c, 4, 64, 127
1, 332814, Note_on_c, 7, 67, 127
1, 332814, Note_on_c, 10, 45, 127
1, 332913, Note_off_c, 10, 45, 127
1, 332913, Note_off_c, 7, 67, 127
1, 332916, Note_on_c, 5, 65, 127
1, 332916, Note_on_c, 12, 47, 127
1, 333015, Note_off_c, 12, 47, 127
1, 333015, Note_off_c, 5, 65, 127
1, 333018, Note_on_c, 4, 64, 127
1, 333018, Note_on_c, 0, 48, 127
1, 333117, Note_off_c, 0, 48, 127
1, 333117, Note_off_c, 4, 64, 127
1, 333119, Note_off_c, 10, 69, 127
1, 333120, Note_on_c, 10, 69, 127
1, 333120, Note_on_c, 5, 65, 127
1, 333120, Note_on_c, 2, 62, 127
1, 333120, Note_on_c, 2, 50, 127
1, 333219, Note_off_c, 2, 50, 127
1, 333222, Note_on_c, 5, 41, 127
1, 333321, Note_off_c, 5, 41, 127
1, 333323, Note_off_c, 2, 62, 127
1, 333323, Note_off_c, 5, 65, 127
1, 333323, Note_off_c, 10, 69, 127
1, 333324, Note_on_c, 5, 65, 127
1, 333324, Note_on_c, 10, 69, 127
1, 333324, Note_on_c, 2, 62, 127
1, 333324, Note_on_c, 7, 43, 127
1, 333423, Note_off_c, 7, 43, 127
1, 333426, Note_on_c, 10, 45, 127
1, 333525, Note_off_c, 10, 45, 127
1, 333527, Note_off_c, 2, 62, 127
1, 333527, Note_off_c, 10, 69, 127
1, 333527, Note_off_c, 5, 65, 127
1, 333528, Note_on_c, 5, 65, 127
1, 333528, Note_on_c, 10, 69, 127
1, 333528, Note_on_c, 2, 62, 127
1, 333528, Note_on_c, 2, 38, 127
1, 333627, Note_off_c, 2, 38, 127
1, 333630, Note_on_c, 5, 41, 127
1, 333729, Note_off_c, 5, 41, 127
1, 333731, Note_off_c, 2, 62, 127
1, 333731, Note_off_c, 10, 69, 127
1, 333731, Note_off_c, 5, 65, 127
1, 333732, Note_on_c, 10, 69, 127
1, 333732, Note_on_c, 2, 62, 127
1, 333732, Note_on_c, 5, 65, 127
1, 333732, Note_on_c, 4, 40, 127
1, 333831, Note_off_c, 4, 40, 127
1, 333834, Note_on_c, 2, 38, 127
1, 333933, Note_off_c, 2, 38, 127
1, 333935, Note_off_c, 5, 65, 127
1, 333935, Note_off_c, 2, 62, 127
1, 333935, Note_off_c, 10, 69, 127
1, 333936, Note_on_c, 2, 62, 127
1, 333936, Note_on_c, 12, 71, 127
1, 333936, Note_on_c, 5, 65, 127
1, 333936, Note_on_c, 7, 43, 127
1, 334035, Note_off_c, 7, 43, 127
1, 334035, Note_off_c, 5, 65, 127
1, 334035, Note_off_c, 2, 62, 127
1, 334038, Note_on_c, 10, 69, 127
1, 334038, Note_on_c, 12, 47, 127
1, 334137, Note_off_c, 12, 47, 127
1, 334137, Note_off_c, 10, 69, 127
1, 334140, Note_on_c, 7, 67, 127
1, 334140, Note_on_c, 0, 48, 127
1, 334239, Note_off_c, 0, 48, 127
1, 334239, Note_off_c, 7, 67, 127
1, 334242, Note_on_c, 5, 65, 127
1, 334242, Note_on_c, 2, 50, 127
1, 334341, Note_off_c, 2, 50, 127
1, 334341, Note_off_c, 5, 65, 127
1, 334343, Note_off_c, 12, 71, 127
1, 334344, Note_on_c, 12, 71, 127
1, 334344, Note_on_c, 4, 64, 127
1, 334344, Note_on_c, 7, 67, 127
1, 334344, Note_on_c, 4, 52, 127
1, 334443, Note_off_c, 4, 52, 127
1, 334446, Note_on_c, 7, 43, 127
1, 334545, Note_off_c, 7, 43, 127
1, 334547, Note_off_c, 7, 67, 127
1, 334547, Note_off_c, 4, 64, 127
1, 334547, Note_off_c, 12, 71, 127
1, 334548, Note_on_c, 7, 67, 127
1, 334548, Note_on_c, 12, 71, 127
1, 334548, Note_on_c, 4, 64, 127
1, 334548, Note_on_c, 10, 45, 127
1, 334647, Note_off_c, 10, 45, 127
1, 334650, Note_on_c, 12, 47, 127
1, 334749, Note_off_c, 12, 47, 127
1, 334751, Note_off_c, 4, 64, 127
1, 334751, Note_off_c, 12, 71, 127
1, 334751, Note_off_c, 7, 67, 127
1, 334752, Note_on_c, 7, 67, 127
1, 334752, Note_on_c, 12, 71, 127
1, 334752, Note_on_c, 4, 64, 127
1, 334752, Note_on_c, 4, 40, 127
1, 334851, Note_off_c, 4, 40, 127
1, 334854, Note_on_c, 7, 43, 127
1, 334953, Note_off_c, 7, 43, 127
1, 334955, Note_off_c, 4, 64, 127
1, 334955, Note_off_c, 12, 71, 127
1, 334955, Note_off_c, 7, 67, 127
1, 334956, Note_on_c, 12, 71, 127
1, 334956, Note_on_c, 4, 64, 127
1, 334956, Note_on_c, 7, 67, 127
1, 334956, Note_on_c, 5, 41, 127
1, 335055, Note_off_c, 5, 41, 127
1, 335058, Note_on_c, 4, 40, 127
1, 335157, Note_off_c, 4, 40, 127
1, 335159, Note_off_c, 7, 67, 127
1, 335159, Note_off_c, 4, 64, 127
1, 335159, Note_off_c, 12, 71, 127
1, 335160, Note_on_c, 0, 72, 127
1, 335160, Note_on_c, 4, 64, 127
1, 335160, Note_on_c, 7, 67, 127
1, 335160, Note_on_c, 10, 45, 127
1, 335259, Note_off_c, 10, 45, 127
1, 335259, Note_off_c, 7, 67, 127
1, 335259, Note_off_c, 4, 64, 127
1, 335262, Note_on_c, 12, 71, 127
1, 335262, Note_on_c, 0, 48, 127
1, 335361, Note_off_c, 0, 48, 127
1, 335361, Note_off_c, 12, 71, 127
1, 335364, Note_on_c, 10, 69, 127
1, 335364, Note_on_c, 2, 50, 127
1, 335463, Note_off_c, 2, 50, 127
1, 335463, Note_off_c, 10, 69, 127
1, 335466, Note_on_c, 7, 67, 127
1, 335466, Note_on_c, 4, 52, 127
1, 335565, Note_off_c, 4, 52, 127
1, 335565, Note_off_c, 7, 67, 127
1, 335567, Note_off_c, 0, 72, 127
1, 335568, Note_on_c, 0, 72, 127
1, 335568, Note_on_c, 5, 65, 127
1, 335568, Note_on_c, 10, 69, 127
1, 335568, Note_on_c, 5, 53, 127
1, 335667, Note_off_c, 5, 53, 127
1, 335670, Note_on_c, 10, 45, 127
1, 335769, Note_off_c, 10, 45, 127
1, 335771, Note_off_c, 10, 69, 127
1, 335771, Note_off_c, 5, 65, 127
1, 335771, Note_off_c, 0, 72, 127
1, 335772, Note_on_c, 0, 72, 127
1, 335772, Note_on_c, 5, 65, 127
1, 335772, Note_on_c, 10, 69, 127
1, 335772, Note_on_c, 12, 47, 127
1, 335871, Note_off_c, 12, 47, 127
1, 335874, Note_on_c, 0, 48, 127
1, 335973, Note_off_c, 0, 48, 127
1, 335975, Note_off_c, 10, 69, 127
1, 335975, Note_off_c, 5, 65, 127
1, 335975, Note_off_c, 0, 72, 127
1, 335976, Note_on_c, 0, 72, 127
1, 335976, Note_on_c, 5, 65, 127
1, 335976, Note_on_c, 10, 69, 127
1, 335976, Note_on_c, 5, 41, 127
1, 336075, Note_off_c, 5, 41, 127
1, 336078, Note_on_c, 10, 45, 127
1, 336177, Note_off_c, 10, 45, 127
1, 336179, Note_off_c, 10, 69, 127
1, 336179, Note_off_c, 5, 65, 127
1, 336179, Note_off_c, 0, 72, 127
1, 336180, Note_on_c, 0, 72, 127
1, 336180, Note_on_c, 5, 65, 127
1, 336180, Note_on_c, 10, 69, 127
1, 336180, Note_on_c, 7, 43, 127
1, 336279, Note_off_c, 7, 43, 127
1, 336282, Note_on_c, 5, 41, 127
1, 336381, Note_off_c, 5, 41, 127
1, 336383, Note_off_c, 10, 69, 127
1, 336383, Note_off_c, 5, 65, 127
1, 336383, Note_off_c, 0, 72, 127
1, 336384, Note_on_c, 5, 65, 127
1, 336384, Note_on_c, 2, 74, 127
1, 336384, Note_on_c, 10, 69, 127
1, 336384, Note_on_c, 12, 47, 127
1, 336483, Note_off_c, 12, 47, 127
1, 336483, Note_off_c, 10, 69, 127
1, 336483, Note_off_c, 5, 65, 127
1, 336486, Note_on_c, 0, 72, 127
1, 336486, Note_on_c, 2, 50, 127
1, 336585, Note_off_c, 2, 50, 127
1, 336585, Note_off_c, 0, 72, 127
1, 336588, Note_on_c, 12, 71, 127
1, 336588, Note_on_c, 4, 52, 127
1, 336687, Note_off_c, 4, 52, 127
1, 336687, Note_off_c, 12, 71, 127
1, 336690, Note_on_c, 10, 69, 127
1, 336690, Note_on_c, 5, 53, 127
1, 336789, Note_off_c, 5, 53, 127
1, 336789, Note_off_c, 10, 69, 127
1, 336791, Note_off_c, 2, 74, 127
1, 336792, Note_on_c, 12, 71, 127
1, 336792, Note_on_c, 2, 74, 127
1, 336792, Note_on_c, 7, 67, 127
1, 336792, Note_on_c, 7, 55, 127
1, 336891, Note_off_c, 7, 55, 127
1, 336894, Note_on_c, 12, 47, 127
1, 336993, Note_off_c, 12, 47, 127
1, 336995, Note_off_c, 7, 67, 127
1, 336995, Note_off_c, 2, 74, 127
1, 336995, Note_off_c, 12, 71, 127
1, 336996, Note_on_c, 7, 67, 127
1, 336996, Note_on_c, 12, 71, 127
1, 336996, Note_on_c, 2, 74, 127
1, 336996, Note_on_c, 0, 48, 127
1, 337095, Note_off_c, 0, 48, 127
1, 337098, Note_on_c, 2, 50, 127
1, 337197, Note_off_c, 2, 50, 127
1, 337199, Note_off_c, 2, 74, 127
1, 337199, Note_off_c, 12, 71, 127
1, 337199, Note_off_c, 7, 67, 127
1, 337200, Note_on_c, 2, 74, 127
1, 337200, Note_on_c, 7, 67, 127
1, 337200, Note_on_c, 12, 71, 127
1, 337200, Note_on_c, 7, 43, 127
1, 337299, Note_off_c, 7, 43, 127
1, 337302, Note_on_c, 12, 47, 127
1, 337401, Note_off_c, 12, 47, 127
1, 337403, Note_off_c, 12, 71, 127
1, 337403, Note_off_c, 7, 67, 127
1, 337403, Note_off_c, 2, 74, 127
1, 337404, Note_on_c, 12, 71, 127
1, 337404, Note_on_c, 2, 74, 127
1, 337404, Note_on_c, 7, 67, 127
1, 337404, Note_on_c, 10, 45, 127
1, 337503, Note_off_c, 10, 45, 127
1, 337506, Note_on_c, 7, 43, 127
1, 337605, Note_off_c, 7, 43, 127
1, 337607, Note_off_c, 7, 67, 127
1, 337607, Note_off_c, 2, 74, 127
1, 337607, Note_off_c, 12, 71, 127
1, 337608, Note_on_c, 4, 76, 127
1, 337608, Note_on_c, 0, 72, 127
1, 337608, Note_on_c, 7, 67, 127
1, 337608, Note_on_c, 0, 48, 127
1, 337707, Note_off_c, 0, 48, 127
1, 337707, Note_off_c, 0, 72, 127
1, 337707, Note_off_c, 4, 76, 127
1, 337710, Note_on_c, 2, 74, 127
1, 337710, Note_on_c, 2, 50, 127
1, 337809, Note_off_c, 2, 50, 127
1, 337809, Note_off_c, 2, 74, 127
1, 337812, Note_on_c, 0, 72, 127
1, 337812, Note_on_c, 4, 52, 127
1, 337911, Note_off_c, 4, 52, 127
1, 337911, Note_off_c, 0, 72, 127
1, 337914, Note_on_c, 2, 74, 127
1, 337914, Note_on_c, 5, 53, 127
1, 338013, Note_off_c, 5, 53, 127
1, 338013, Note_off_c, 2, 74, 127
1, 338016, Note_on_c, 2, 62, 127
1, 338016, Note_on_c, 7, 55, 127
1, 338115, Note_off_c, 7, 55, 127
1, 338118, Note_off_c, 7, 67, 127
1, 338118, Note_on_c, 5, 65, 127
1, 338118, Note_on_c, 2, 50, 127
1, 338217, Note_off_c, 2, 50, 127
1, 338220, Note_on_c, 7, 67, 127
1, 338220, Note_on_c, 4, 52, 127
1, 338319, Note_off_c, 4, 52, 127
1, 338322, Note_on_c, 12, 71, 127
1, 338322, Note_on_c, 5, 53, 127
1, 338421, Note_off_c, 5, 53, 127
1, 338424, Note_on_c, 7, 43, 127
1, 338523, Note_off_c, 7, 43, 127
1, 338526, Note_on_c, 5, 53, 127
1, 338619, Note_off_c, 12, 71, 127
1, 338624, Note_off_c, 5, 53, 127
1, 338627, Note_off_c, 5, 65, 127
1, 338627, Note_on_c, 0, 72, 127
1, 338627, Note_on_c, 4, 52, 127
1, 338726, Note_off_c, 4, 52, 127
1, 338729, Note_on_c, 2, 50, 127
1, 338828, Note_off_c, 2, 50, 127
1, 338830, Note_off_c, 0, 72, 127
1, 338830, Note_off_c, 7, 67, 127
1, 338830, Note_off_c, 2, 62, 127
1, 338831, Note_on_c, 0, 72, 127
1, 338831, Note_on_c, 4, 64, 127
1, 338831, Note_on_c, 7, 67, 127
1, 338831, Note_on_c, 0, 48, 127
1, 338931, Note_off_c, 7, 67, 127
1, 338931, Note_off_c, 4, 64, 127
1, 338931, Note_off_c, 0, 72, 127
1, 338934, Note_on_c, 2, 74, 127
1, 339034, Note_off_c, 2, 74, 127
1, 339037, Note_on_c, 4, 76, 127
1, 339137, Note_off_c, 4, 76, 127
1, 339140, Note_on_c, 5, 77, 127
1, 339240, Note_off_c, 5, 77, 127
1, 339242, Note_off_c, 0, 48, 127
1, 339243, Note_on_c, 7, 79, 127
1, 339243, Note_on_c, 4, 52, 127
1, 339343, Note_off_c, 7, 79, 127
1, 339346, Note_on_c, 5, 77, 127
1, 339446, Note_off_c, 5, 77, 127
1, 339449, Note_on_c, 7, 79, 127
1, 339549, Note_off_c, 7, 79, 127
1, 339552, Note_on_c, 4, 76, 127
1, 339652, Note_off_c, 4, 76, 127
1, 339654, Note_off_c, 4, 52, 127
1, 339655, Note_on_c, 10, 81, 127
1, 339655, Note_on_c, 5, 53, 127
1, 339860, Note_off_c, 10, 81, 127
1, 339861, Note_on_c, 10, 69, 127
1, 340066, Note_off_c, 10, 69, 127
1, 340066, Note_off_c, 5, 53, 127
1, 340067, Note_on_c, 12, 71, 127
1, 340067, Note_on_c, 7, 55, 127
1, 340167, Note_off_c, 12, 71, 127
1, 340170, Note_on_c, 0, 72, 127
1, 340270, Note_off_c, 0, 72, 127
1, 340273, Note_on_c, 2, 74, 127
1, 340373, Note_off_c, 2, 74, 127
1, 340376, Note_on_c, 4, 76, 127
1, 340476, Note_off_c, 4, 76, 127
1, 340478, Note_off_c, 7, 55, 127
1, 340479, Note_on_c, 5, 77, 127
1, 340479, Note_on_c, 2, 50, 127
1, 340579, Note_off_c, 5, 77, 127
1, 340582, Note_on_c, 4, 76, 127
1, 340682, Note_off_c, 4, 76, 127
1, 340685, Note_on_c, 5, 77, 127
1, 340785, Note_off_c, 5, 77, 127
1, 340788, Note_on_c, 2, 74, 127
1, 340888, Note_off_c, 2, 74, 127
1, 340890, Note_off_c, 2, 50, 127
1, 340891, Note_on_c, 7, 79, 127
1, 340891, Note_on_c, 4, 52, 127
1, 341096, Note_off_c, 7, 79, 127
1, 341097, Note_on_c, 7, 67, 127
1, 341302, Note_off_c, 7, 67, 127
1, 341302, Note_off_c, 4, 52, 127
1, 341303, Note_on_c, 10, 69, 127
1, 341303, Note_on_c, 5, 53, 127
1, 341403, Note_off_c, 10, 69, 127
1, 341406, Note_on_c, 12, 71, 127
1, 341506, Note_off_c, 12, 71, 127
1, 341509, Note_on_c, 0, 72, 127
1, 341609, Note_off_c, 0, 72, 127
1, 341612, Note_on_c, 2, 74, 127
1, 341712, Note_off_c, 2, 74, 127
1, 341714, Note_off_c, 5, 53, 127
1, 341715, Note_on_c, 4, 76, 127
1, 341715, Note_on_c, 0, 48, 127
1, 341815, Note_off_c, 4, 76, 127
1, 341818, Note_on_c, 2, 74, 127
1, 341918, Note_off_c, 2, 74, 127
1, 341921, Note_on_c, 4, 76, 127
1, 342021, Note_off_c, 4, 76, 127
1, 342024, Note_on_c, 0, 72, 127
1, 342124, Note_off_c, 0, 72, 127
1, 342126, Note_off_c, 0, 48, 127
1, 342127, Note_on_c, 5, 77, 127
1, 342127, Note_on_c, 2, 50, 127
1, 342332, Note_off_c, 5, 77, 127
1, 342333, Note_on_c, 5, 65, 127
1, 342538, Note_off_c, 5, 65, 127
1, 342538, Note_off_c, 2, 50, 127
1, 342539, Note_on_c, 5, 77, 127
1, 342539, Note_on_c, 4, 52, 127
1, 342639, Note_off_c, 5, 77, 127
1, 342642, Note_on_c, 4, 76, 127
1, 342744, Note_off_c, 4, 52, 127
1, 342745, Note_on_c, 5, 53, 127
1, 342847, Note_off_c, 4, 76, 127
1, 342848, Note_on_c, 2, 74, 127
1, 342948, Note_off_c, 2, 74, 127
1, 342950, Note_off_c, 5, 53, 127
1, 342951, Note_on_c, 4, 76, 127
1, 342951, Note_on_c, 7, 55, 127
1, 343018, Note_off_c, 4, 76, 127
1, 343019, Note_on_c, 2, 74, 127
1, 343086, Note_off_c, 2, 74, 127
1, 343087, Note_on_c, 0, 72, 127
1, 343154, Note_off_c, 0, 72, 127
1, 343154, Note_off_c, 7, 55, 127
1, 343155, Note_on_c, 2, 74, 127
1, 343155, Note_on_c, 5, 53, 127
1, 343255, Note_off_c, 2, 74, 127
1, 343258, Note_on_c, 4, 76, 127
1, 343358, Note_off_c, 4, 76, 127
1, 343360, Note_off_c, 5, 53, 127
1, 343361, Note_on_c, 2, 74, 127
1, 343361, Note_on_c, 7, 55, 127
1, 343566, Note_off_c, 7, 55, 127
1, 343567, Note_on_c, 7, 43, 127
1, 343634, Note_off_c, 2, 74, 127
1, 343635, Note_on_c, 0, 72, 127
1, 343771, Note_off_c, 7, 43, 127
1, 343772, Note_off_c, 0, 72, 127
1, 343772, Note_on_c, 0, 72, 127
1, 343772, Note_on_c, 0, 48, 127
1, 343873, Note_off_c, 0, 48, 127
1, 343876, Note_on_c, 2, 50, 127
1, 343977, Note_off_c, 2, 50, 127
1, 343979, Note_off_c, 0, 72, 127
1, 343980, Note_on_c, 7, 79, 127
1, 343980, Note_on_c, 4, 52, 127
1, 344081, Note_off_c, 4, 52, 127
1, 344081, Note_off_c, 7, 79, 127
1, 344084, Note_on_c, 5, 77, 127
1, 344084, Note_on_c, 5, 53, 127
1, 344185, Note_off_c, 5, 53, 127
1, 344185, Note_off_c, 5, 77, 127
1, 344188, Note_on_c, 4, 76, 127
1, 344188, Note_on_c, 7, 55, 127
1, 344289, Note_off_c, 7, 55, 127
1, 344289, Note_off_c, 4, 76, 127
1, 344292, Note_on_c, 5, 77, 127
1, 344292, Note_on_c, 5, 53, 127
1, 344393, Note_off_c, 5, 53, 127
1, 344393, Note_off_c, 5, 77, 127
1, 344396, Note_on_c, 4, 76, 127
1, 344396, Note_on_c, 7, 55, 127
1, 344497, Note_off_c, 7, 55, 127
1, 344497, Note_off_c, 4, 76, 127
1, 344500, Note_on_c, 2, 74, 127
1, 344500, Note_on_c, 4, 52, 127
1, 344601, Note_off_c, 4, 52, 127
1, 344601, Note_off_c, 2, 74, 127
1, 344604, Note_on_c, 0, 72, 127
1, 344604, Note_on_c, 10, 57, 127
1, 344705, Note_off_c, 0, 72, 127
1, 344708, Note_on_c, 12, 71, 127
1, 344809, Note_off_c, 12, 71, 127
1, 344811, Note_off_c, 10, 57, 127
1, 344812, Note_on_c, 0, 72, 127
1, 344812, Note_on_c, 10, 45, 127
1, 344913, Note_off_c, 0, 72, 127
1, 344916, Note_on_c, 10, 69, 127
1, 345017, Note_off_c, 10, 69, 127
1, 345019, Note_off_c, 10, 45, 127
1, 345020, Note_on_c, 2, 74, 127
1, 345020, Note_on_c, 12, 47, 127
1, 345121, Note_off_c, 12, 47, 127
1, 345124, Note_on_c, 0, 48, 127
1, 345225, Note_off_c, 0, 48, 127
1, 345227, Note_off_c, 2, 74, 127
1, 345228, Note_on_c, 5, 77, 127
1, 345228, Note_on_c, 2, 50, 127
1, 345329, Note_off_c, 2, 50, 127
1, 345329, Note_off_c, 5, 77, 127
1, 345332, Note_on_c, 4, 76, 127
1, 345332, Note_on_c, 4, 52, 127
1, 345433, Note_off_c, 4, 52, 127
1, 345433, Note_off_c, 4, 76, 127
1, 345436, Note_on_c, 2, 74, 127
1, 345436, Note_on_c, 5, 53, 127
1, 345537, Note_off_c, 5, 53, 127
1, 345537, Note_off_c, 2, 74, 127
1, 345540, Note_on_c, 4, 76, 127
1, 345540, Note_on_c, 4, 52, 127
1, 345641, Note_off_c, 4, 52, 127
1, 345641, Note_off_c, 4, 76, 127
1, 345644, Note_on_c, 2, 74, 127
1, 345644, Note_on_c, 5, 53, 127
1, 345745, Note_off_c, 5, 53, 127
1, 345745, Note_off_c, 2, 74, 127
1, 345748, Note_on_c, 0, 72, 127
1, 345748, Note_on_c, 2, 50, 127
1, 345849, Note_off_c, 2, 50, 127
1, 345849, Note_off_c, 0, 72, 127
1, 345852, Note_on_c, 12, 71, 127
1, 345852, Note_on_c, 7, 55, 127
1, 345953, Note_off_c, 12, 71, 127
1, 345956, Note_on_c, 10, 69, 127
1, 346057, Note_off_c, 10, 69, 127
1, 346059, Note_off_c, 7, 55, 127
1, 346060, Note_on_c, 12, 71, 127
1, 346060, Note_on_c, 7, 43, 127
1, 346161, Note_off_c, 12, 71, 127
1, 346164, Note_on_c, 7, 67, 127
1, 346265, Note_off_c, 7, 67, 127
1, 346267, Note_off_c, 7, 43, 127
1, 346268, Note_on_c, 0, 72, 127
1, 346268, Note_on_c, 10, 45, 127
1, 346369, Note_off_c, 10, 45, 127
1, 346372, Note_on_c, 12, 47, 127
1, 346473, Note_off_c, 12, 47, 127
1, 346475, Note_off_c, 0, 72, 127
1, 346476, Note_on_c, 4, 76, 127
1, 346476, Note_on_c, 0, 48, 127
1, 346577, Note_off_c, 0, 48, 127
1, 346577, Note_off_c, 4, 76, 127
1, 346580, Note_on_c, 2, 74, 127
1, 346580, Note_on_c, 2, 50, 127
1, 346681, Note_off_c, 2, 50, 127
1, 346681, Note_off_c, 2, 74, 127
1, 346684, Note_on_c, 0, 72, 127
1, 346684, Note_on_c, 4, 52, 127
1, 346785, Note_off_c, 4, 52, 127
1, 346785, Note_off_c, 0, 72, 127
1, 346788, Note_on_c, 2, 74, 127
1, 346788, Note_on_c, 2, 50, 127
1, 346889, Note_off_c, 2, 50, 127
1, 346889, Note_off_c, 2, 74, 127
1, 346892, Note_on_c, 0, 72, 127
1, 346892, Note_on_c, 4, 52, 127
1, 346993, Note_off_c, 4, 52, 127
1, 346993, Note_off_c, 0, 72, 127
1, 346996, Note_on_c, 12, 71, 127
1, 346996, Note_on_c, 0, 48, 127
1, 347097, Note_off_c, 0, 48, 127
1, 347097, Note_off_c, 12, 71, 127
1, 347100, Note_on_c, 10, 69, 127
1, 347100, Note_on_c, 5, 53, 127
1, 347201, Note_off_c, 10, 69, 127
1, 347204, Note_on_c, 7, 67, 127
1, 347305, Note_off_c, 7, 67, 127
1, 347307, Note_off_c, 5, 53, 127
1, 347308, Note_on_c, 10, 69, 127
1, 347308, Note_on_c, 5, 41, 127
1, 347409, Note_off_c, 10, 69, 127
1, 347412, Note_on_c, 5, 65, 127
1, 347513, Note_off_c, 5, 65, 127
1, 347515, Note_off_c, 5, 41, 127
1, 347516, Note_on_c, 12, 71, 127
1, 347516, Note_on_c, 7, 43, 127
1, 347617, Note_off_c, 7, 43, 127
1, 347617, Note_off_c, 12, 71, 127
1, 347620, Note_on_c, 7, 67, 127
1, 347620, Note_on_c, 5, 53, 127
1, 347721, Note_off_c, 5, 53, 127
1, 347721, Note_off_c, 7, 67, 127
1, 347724, Note_on_c, 10, 69, 127
1, 347724, Note_on_c, 4, 52, 127
1, 347825, Note_off_c, 4, 52, 127
1, 347825, Note_off_c, 10, 69, 127
1, 347828, Note_on_c, 12, 71, 127
1, 347828, Note_on_c, 2, 50, 127
1, 347929, Note_off_c, 2, 50, 127
1, 347929, Note_off_c, 12, 71, 127
1, 347932, Note_on_c, 0, 72, 127
1, 347932, Note_on_c, 4, 52, 127
1, 348033, Note_off_c, 4, 52, 127
1, 348033, Note_off_c, 0, 72, 127
1, 348036, Note_on_c, 12, 71, 127
1, 348036, Note_on_c, 2, 50, 127
1, 348137, Note_off_c, 2, 50, 127
1, 348137, Note_off_c, 12, 71, 127
1, 348140, Note_on_c, 0, 72, 127
1, 348140, Note_on_c, 4, 52, 127
1, 348241, Note_off_c, 4, 52, 127
1, 348241, Note_off_c, 0, 72, 127
1, 348244, Note_on_c, 2, 74, 127
1, 348244, Note_on_c, 5, 53, 127
1, 348345, Note_off_c, 5, 53, 127
1, 348345, Note_off_c, 2, 74, 127
1, 348348, Note_on_c, 0, 72, 127
1, 348348, Note_on_c, 7, 55, 127
1, 348416, Note_off_c, 0, 72, 127
1, 348417, Note_on_c, 12, 71, 127
1, 348448, Note_off_c, 7, 55, 127
1, 348451, Note_on_c, 10, 57, 127
1, 348485, Note_off_c, 12, 71, 127
1, 348486, Note_on_c, 0, 72, 127
1, 348552, Note_off_c, 10, 57, 127
1, 348554, Note_off_c, 0, 72, 127
1, 348555, Note_on_c, 12, 71, 127
1, 348555, Note_on_c, 7, 55, 127
1, 348623, Note_off_c, 12, 71, 127
1, 348624, Note_on_c, 10, 69, 127
1, 348655, Note_off_c, 7, 55, 127
1, 348658, Note_on_c, 5, 53, 127
1, 348692, Note_off_c, 10, 69, 127
1, 348693, Note_on_c, 12, 71, 127
1, 348759, Note_off_c, 5, 53, 127
1, 348761, Note_off_c, 12, 71, 127
1, 348762, Note_on_c, 0, 72, 127
1, 348762, Note_on_c, 4, 52, 127
1, 348863, Note_off_c, 4, 52, 127
1, 348866, Note_on_c, 5, 53, 127
1, 348967, Note_off_c, 5, 53, 127
1, 348969, Note_off_c, 0, 72, 127
1, 348970, Note_on_c, 7, 67, 127
1, 348970, Note_on_c, 4, 52, 127
1, 349071, Note_off_c, 4, 52, 127
1, 349071, Note_off_c, 7, 67, 127
1, 349074, Note_on_c, 5, 65, 127
1, 349074, Note_on_c, 2, 50, 127
1, 349175, Note_off_c, 2, 50, 127
1, 349175, Note_off_c, 5, 65, 127
1, 349178, Note_on_c, 4, 64, 127
1, 349178, Note_on_c, 0, 48, 127
1, 349279, Note_off_c, 4, 64, 127
1, 349282, Note_on_c, 5, 65, 127
1, 349383, Note_off_c, 5, 65, 127
1, 349385, Note_off_c, 0, 48, 127
1, 349386, Note_on_c, 4, 64, 127
1, 349386, Note_on_c, 7, 55, 127
1, 349487, Note_off_c, 4, 64, 127
1, 349490, Note_on_c, 2, 62, 127
1, 349591, Note_off_c, 2, 62, 127
1, 349593, Note_off_c, 7, 55, 127
1, 349594, Note_on_c, 0, 60, 127
1, 349594, Note_on_c, 4, 52, 127
1, 349695, Note_off_c, 0, 60, 127
1, 349698, Note_on_c, 2, 62, 127
1, 349799, Note_off_c, 2, 62, 127
1, 349801, Note_off_c, 4, 52, 127
1, 349802, Note_on_c, 0, 60, 127
1, 349802, Note_on_c, 0, 48, 127
1, 349903, Note_off_c, 0, 60, 127
1, 349906, Note_on_c, 12, 59, 127
1, 350007, Note_off_c, 12, 59, 127
1, 350009, Note_off_c, 0, 48, 127
1, 350010, Note_on_c, 10, 57, 127
1, 350010, Note_on_c, 5, 53, 127
1, 350111, Note_off_c, 5, 53, 127
1, 350114, Note_on_c, 7, 55, 127
1, 350215, Note_off_c, 7, 55, 127
1, 350217, Note_off_c, 10, 57, 127
1, 350218, Note_on_c, 10, 69, 127
1, 350218, Note_on_c, 5, 53, 127
1, 350319, Note_off_c, 5, 53, 127
1, 350319, Note_off_c, 10, 69, 127
1, 350322, Note_on_c, 7, 67, 127
1, 350322, Note_on_c, 4, 52, 127
1, 350423, Note_off_c, 4, 52, 127
1, 350423, Note_off_c, 7, 67, 127
1, 350426, Note_on_c, 5, 65, 127
1, 350426, Note_on_c, 2, 50, 127
1, 350527, Note_off_c, 5, 65, 127
1, 350530, Note_on_c, 7, 67, 127
1, 350631, Note_off_c, 7, 67, 127
1, 350633, Note_off_c, 2, 50, 127
1, 350634, Note_on_c, 5, 65, 127
1, 350634, Note_on_c, 10, 57, 127
1, 350735, Note_off_c, 5, 65, 127
1, 350738, Note_on_c, 4, 64, 127
1, 350839, Note_off_c, 4, 64, 127
1, 350841, Note_off_c, 10, 57, 127
1, 350842, Note_on_c, 2, 62, 127
1, 350842, Note_on_c, 5, 53, 127
1, 350943, Note_off_c, 2, 62, 127
1, 350946, Note_on_c, 4, 64, 127
1, 351047, Note_off_c, 4, 64, 127
1, 351049, Note_off_c, 5, 53, 127
1, 351050, Note_on_c, 2, 62, 127
1, 351050, Note_on_c, 2, 50, 127
1, 351151, Note_off_c, 2, 62, 127
1, 351154, Note_on_c, 0, 60, 127
1, 351255, Note_off_c, 0, 60, 127
1, 351257, Note_off_c, 2, 50, 127
1, 351258, Note_on_c, 12, 59, 127
1, 351258, Note_on_c, 7, 55, 127
1, 351359, Note_off_c, 7, 55, 127
1, 351362, Note_on_c, 10, 57, 127
1, 351463, Note_off_c, 10, 57, 127
1, 351465, Note_off_c, 12, 59, 127
1, 351466, Note_on_c, 12, 71, 127
1, 351466, Note_on_c, 7, 55, 127
1, 351567, Note_off_c, 7, 55, 127
1, 351567, Note_off_c, 12, 71, 127
1, 351570, Note_on_c, 10, 69, 127
1, 351570, Note_on_c, 5, 53, 127
1, 351671, Note_off_c, 5, 53, 127
1, 351671, Note_off_c, 10, 69, 127
1, 351674, Note_on_c, 7, 67, 127
1, 351674, Note_on_c, 4, 52, 127
1, 351775, Note_off_c, 7, 67, 127
1, 351778, Note_on_c, 10, 69, 127
1, 351879, Note_off_c, 10, 69, 127
1, 351881, Note_off_c, 4, 52, 127
1, 351882, Note_on_c, 7, 67, 127
1, 351882, Note_on_c, 12, 59, 127
1, 351983, Note_off_c, 7, 67, 127
1, 351986, Note_on_c, 5, 65, 127
1, 352087, Note_off_c, 5, 65, 127
1, 352089, Note_off_c, 12, 59, 127
1, 352090, Note_on_c, 4, 64, 127
1, 352090, Note_on_c, 7, 55, 127
1, 352191, Note_off_c, 4, 64, 127
1, 352194, Note_on_c, 5, 65, 127
1, 352295, Note_off_c, 5, 65, 127
1, 352297, Note_off_c, 7, 55, 127
1, 352298, Note_on_c, 4, 64, 127
1, 352298, Note_on_c, 4, 52, 127
1, 352399, Note_off_c, 4, 64, 127
1, 352402, Note_on_c, 2, 62, 127
1, 352503, Note_off_c, 2, 62, 127
1, 352505, Note_off_c, 4, 52, 127
1, 352506, Note_on_c, 0, 60, 127
1, 352506, Note_on_c, 10, 57, 127
1, 352607, Note_off_c, 10, 57, 127
1, 352610, Note_on_c, 12, 59, 127
1, 352711, Note_off_c, 12, 59, 127
1, 352713, Note_off_c, 0, 60, 127
1, 352714, Note_on_c, 0, 72, 127
1, 352714, Note_on_c, 10, 57, 127
1, 352815, Note_off_c, 10, 57, 127
1, 352815, Note_off_c, 0, 72, 127
1, 352818, Note_on_c, 12, 71, 127
1, 352818, Note_on_c, 7, 55, 127
1, 352919, Note_off_c, 7, 55, 127
1, 352919, Note_off_c, 12, 71, 127
1, 352922, Note_on_c, 10, 69, 127
1, 352922, Note_on_c, 5, 53, 127
1, 353023, Note_off_c, 10, 69, 127
1, 353026, Note_on_c, 12, 71, 127
1, 353127, Note_off_c, 12, 71, 127
1, 353129, Note_off_c, 5, 53, 127
1, 353130, Note_on_c, 10, 69, 127
1, 353130, Note_on_c, 0, 60, 127
1, 353231, Note_off_c, 10, 69, 127
1, 353234, Note_on_c, 7, 67, 127
1, 353335, Note_off_c, 7, 67, 127
1, 353337, Note_off_c, 0, 60, 127
1, 353338, Note_on_c, 5, 65, 127
1, 353338, Note_on_c, 10, 57, 127
1, 353439, Note_off_c, 5, 65, 127
1, 353442, Note_on_c, 7, 67, 127
1, 353543, Note_off_c, 7, 67, 127
1, 353545, Note_off_c, 10, 57, 127
1, 353546, Note_on_c, 5, 65, 127
1, 353546, Note_on_c, 5, 53, 127
1, 353647, Note_off_c, 5, 65, 127
1, 353650, Note_on_c, 4, 64, 127
1, 353751, Note_off_c, 4, 64, 127
1, 353753, Note_off_c, 5, 53, 127
1, 353754, Note_on_c, 2, 62, 127
1, 353754, Note_on_c, 12, 59, 127
1, 353855, Note_off_c, 12, 59, 127
1, 353858, Note_on_c, 0, 60, 127
1, 353959, Note_off_c, 0, 60, 127
1, 353961, Note_off_c, 2, 62, 127
1, 353962, Note_on_c, 2, 74, 127
1, 353962, Note_on_c, 12, 59, 127
1, 354063, Note_off_c, 12, 59, 127
1, 354063, Note_off_c, 2, 74, 127
1, 354066, Note_on_c, 0, 72, 127
1, 354066, Note_on_c, 10, 57, 127
1, 354167, Note_off_c, 10, 57, 127
1, 354167, Note_off_c, 0, 72, 127
1, 354170, Note_on_c, 12, 71, 127
1, 354170, Note_on_c, 7, 55, 127
1, 354271, Note_off_c, 12, 71, 127
1, 354274, Note_on_c, 0, 72, 127
1, 354375, Note_off_c, 0, 72, 127
1, 354377, Note_off_c, 7, 55, 127
1, 354378, Note_on_c, 12, 71, 127
1, 354378, Note_on_c, 2, 62, 127
1, 354479, Note_off_c, 12, 71, 127
1, 354482, Note_on_c, 10, 69, 127
1, 354583, Note_off_c, 10, 69, 127
1, 354585, Note_off_c, 2, 62, 127
1, 354586, Note_on_c, 7, 67, 127
1, 354586, Note_on_c, 12, 59, 127
1, 354687, Note_off_c, 7, 67, 127
1, 354690, Note_on_c, 10, 69, 127
1, 354791, Note_off_c, 10, 69, 127
1, 354793, Note_off_c, 12, 59, 127
1, 354794, Note_on_c, 7, 67, 127
1, 354794, Note_on_c, 7, 55, 127
1, 354895, Note_off_c, 7, 67, 127
1, 354898, Note_on_c, 5, 65, 127
1, 354999, Note_off_c, 5, 65, 127
1, 355001, Note_off_c, 7, 55, 127
1, 355002, Note_on_c, 4, 64, 127
1, 355002, Note_on_c, 0, 60, 127
1, 355103, Note_off_c, 0, 60, 127
1, 355103, Note_off_c, 4, 64, 127
1, 355106, Note_on_c, 4, 76, 127
1, 355106, Note_on_c, 2, 62, 127
1, 355207, Note_off_c, 2, 62, 127
1, 355207, Note_off_c, 4, 76, 127
1, 355210, Note_on_c, 2, 74, 127
1, 355210, Note_on_c, 4, 64, 127
1, 355311, Note_off_c, 4, 64, 127
1, 355311, Note_off_c, 2, 74, 127
1, 355314, Note_on_c, 0, 72, 127
1, 355314, Note_on_c, 5, 65, 127
1, 355415, Note_off_c, 5, 65, 127
1, 355415, Note_off_c, 0, 72, 127
1, 355418, Note_on_c, 12, 71, 127
1, 355418, Note_on_c, 7, 67, 127
1, 355488, Note_off_c, 12, 71, 127
1, 355490, Note_on_c, 0, 72, 127
1, 355519, Note_off_c, 7, 67, 127
1, 355522, Note_on_c, 5, 65, 127
1, 355559, Note_off_c, 0, 72, 127
1, 355561, Note_on_c, 12, 71, 127
1, 355623, Note_off_c, 5, 65, 127
1, 355626, Note_on_c, 4, 64, 127
1, 355630, Note_off_c, 12, 71, 127
1, 355632, Note_on_c, 0, 72, 127
1, 355702, Note_off_c, 0, 72, 127
1, 355704, Note_on_c, 12, 71, 127
1, 355727, Note_off_c, 4, 64, 127
1, 355730, Note_on_c, 5, 65, 127
1, 355774, Note_off_c, 12, 71, 127
1, 355776, Note_on_c, 0, 72, 127
1, 355832, Note_off_c, 5, 65, 127
1, 355835, Note_on_c, 7, 67, 127
1, 355846, Note_off_c, 0, 72, 127
1, 355848, Note_on_c, 12, 71, 127
1, 355918, Note_off_c, 12, 71, 127
1, 355920, Note_on_c, 0, 72, 127
1, 355990, Note_off_c, 0, 72, 127
1, 355992, Note_on_c, 12, 71, 127
1, 356043, Note_off_c, 7, 67, 127
1, 356044, Note_on_c, 7, 55, 127
1, 356061, Note_off_c, 12, 71, 127
1, 356063, Note_on_c, 10, 69, 127
1, 356158, Note_off_c, 10, 69, 127
1, 356158, Note_on_c, 12, 71, 127
1, 356252, Note_off_c, 7, 55, 127
1, 356253, Note_off_c, 12, 71, 127
1, 356253, Note_on_c, 0, 72, 127
1, 356253, Note_on_c, 0, 60, 127
1, 356461, Note_off_c, 0, 72, 127
1, 356462, Note_on_c, 4, 64, 127
1, 356563, Note_off_c, 4, 64, 127
1, 356566, Note_on_c, 5, 65, 127
1, 356667, Note_off_c, 5, 65, 127
1, 356669, Note_off_c, 0, 60, 127
1, 356670, Note_on_c, 7, 67, 127
1, 356670, Note_on_c, 4, 52, 127
1, 356878, Note_off_c, 7, 67, 127
1, 356879, Note_on_c, 0, 60, 127
1, 357087, Note_off_c, 0, 60, 127
1, 357087, Note_off_c, 4, 52, 127
1, 357088, Note_on_c, 7, 67, 127
1, 357088, Note_on_c, 0, 48, 127
1, 357296, Note_off_c, 7, 67, 127
1, 357297, Note_on_c, 4, 64, 127
1, 357505, Note_off_c, 4, 64, 127
1, 357505, Note_off_c, 0, 48, 127
1, 357506, Note_on_c, 10, 69, 127
1, 357506, Note_on_c, 5, 53, 127
1, 357607, Note_off_c, 10, 69, 127
1, 357610, Note_on_c, 7, 67, 127
1, 357711, Note_off_c, 7, 67, 127
1, 357714, Note_on_c, 5, 65, 127
1, 357815, Note_off_c, 5, 65, 127
1, 357818, Note_on_c, 7, 67, 127
1, 357919, Note_off_c, 7, 67, 127
1, 357922, Note_on_c, 10, 69, 127
1, 358130, Note_off_c, 10, 69, 127
1, 358130, Note_off_c, 5, 53, 127
1, 358131, Note_on_c, 2, 62, 127
1, 358339, Note_off_c, 2, 62, 127
1, 358340, Note_on_c, 10, 69, 127
1, 358340, Note_on_c, 2, 50, 127
1, 358548, Note_off_c, 10, 69, 127
1, 358549, Note_on_c, 5, 65, 127
1, 358757, Note_off_c, 5, 65, 127
1, 358757, Note_off_c, 2, 50, 127
1, 358758, Note_on_c, 12, 71, 127
1, 358758, Note_on_c, 7, 55, 127
1, 358859, Note_off_c, 12, 71, 127
1, 358862, Note_on_c, 10, 69, 127
1, 358963, Note_off_c, 10, 69, 127
1, 358966, Note_on_c, 7, 67, 127
1, 359067, Note_off_c, 7, 67, 127
1, 359070, Note_on_c, 10, 69, 127
1, 359171, Note_off_c, 10, 69, 127
1, 359174, Note_on_c, 12, 71, 127
1, 359382, Note_off_c, 12, 71, 127
1, 359382, Note_off_c, 7, 55, 127
1, 359383, Note_on_c, 4, 64, 127
1, 359591, Note_off_c, 4, 64, 127
1, 359592, Note_on_c, 12, 71, 127
1, 359592, Note_on_c, 4, 52, 127
1, 359800, Note_off_c, 12, 71, 127
1, 359801, Note_on_c, 7, 67, 127
1, 360009, Note_off_c, 7, 67, 127
1, 360009, Note_off_c, 4, 52, 127
1, 360010, Note_on_c, 0, 72, 127
1, 360010, Note_on_c, 10, 57, 127
1, 360111, Note_off_c, 0, 72, 127
1, 360114, Note_on_c, 12, 71, 127
1, 360215, Note_off_c, 12, 71, 127
1, 360218, Note_on_c, 10, 69, 127
1, 360319, Note_off_c, 10, 69, 127
1, 360322, Note_on_c, 12, 71, 127
1, 360423, Note_off_c, 12, 71, 127
1, 360426, Note_on_c, 0, 72, 127
1, 360634, Note_off_c, 0, 72, 127
1, 360634, Note_off_c, 10, 57, 127
1, 360635, Note_on_c, 5, 65, 127
1, 360843, Note_off_c, 5, 65, 127
1, 360844, Note_on_c, 0, 72, 127
1, 360844, Note_on_c, 5, 53, 127
1, 361052, Note_off_c, 0, 72, 127
1, 361053, Note_on_c, 10, 69, 127
1, 361261, Note_off_c, 10, 69, 127
1, 361261, Note_off_c, 5, 53, 127
1, 361262, Note_on_c, 2, 74, 127
1, 361262, Note_on_c, 12, 59, 127
1, 361363, Note_off_c, 2, 74, 127
1, 361366, Note_on_c, 0, 72, 127
1, 361467, Note_off_c, 0, 72, 127
1, 361470, Note_on_c, 12, 71, 127
1, 361571, Note_off_c, 12, 71, 127
1, 361574, Note_on_c, 0, 72, 127
1, 361675, Note_off_c, 0, 72, 127
1, 361678, Note_on_c, 2, 74, 127
1, 361886, Note_off_c, 2, 74, 127
1, 361886, Note_off_c, 12, 59, 127
1, 361887, Note_on_c, 7, 67, 127
1, 362095, Note_off_c, 7, 67, 127
1, 362096, Note_on_c, 2, 74, 127
1, 362096, Note_on_c, 7, 55, 127
1, 362304, Note_off_c, 2, 74, 127
1, 362305, Note_on_c, 12, 71, 127
1, 362513, Note_off_c, 12, 71, 127
1, 362513, Note_off_c, 7, 55, 127
1, 362514, Note_on_c, 4, 76, 127
1, 362514, Note_on_c, 0, 60, 127
1, 362615, Note_off_c, 4, 76, 127
1, 362618, Note_on_c, 2, 74, 127
1, 362719, Note_off_c, 2, 74, 127
1, 362721, Note_off_c, 0, 60, 127
1, 362722, Note_on_c, 0, 72, 127
1, 362722, Note_on_c, 5, 53, 127
1, 362823, Note_off_c, 0, 72, 127
1, 362826, Note_on_c, 2, 74, 127
1, 362927, Note_off_c, 2, 74, 127
1, 362929, Note_off_c, 5, 53, 127
1, 362930, Note_on_c, 0, 72, 127
1, 362930, Note_on_c, 7, 55, 127
1, 363105, Note_off_c, 0, 72, 127
1, 363139, Note_off_c, 7, 55, 127
1, 363140, Note_on_c, 12, 71, 127
1, 363140, Note_on_c, 5, 53, 127
1, 363348, Note_off_c, 5, 53, 127
1, 363349, Note_on_c, 7, 55, 127
1, 363557, Note_off_c, 7, 55, 127
1, 363557, Note_off_c, 12, 71, 127
1, 363558, Note_on_c, 0, 72, 127
1, 363558, Note_on_c, 7, 43, 127
1, 363766, Note_off_c, 7, 43, 127
1, 363766, Note_off_c, 0, 72, 127
1, 363767, Note_on_c, 0, 72, 127
1, 363767, Note_on_c, 0, 48, 127
1, 363979, Note_off_c, 0, 48, 127
1, 363980, Note_on_c, 0, 36, 127
1, 364083, Note_off_c, 0, 36, 127
1, 364086, Note_on_c, 2, 38, 127
1, 364189, Note_off_c, 2, 38, 127
1, 364191, Note_off_c, 0, 72, 127
1, 364192, Note_on_c, 7, 67, 127
1, 364192, Note_on_c, 4, 40, 127
1, 364299, Note_on_c, 5, 65, 127
1, 364402, Note_off_c, 5, 65, 127
1, 364404, Note_off_c, 4, 40, 127
1, 364405, Note_on_c, 4, 64, 127
1, 364405, Note_on_c, 7, 43, 127
1, 364457, Note_off_c, 4, 64, 127
1, 364458, Note_on_c, 2, 62, 127
1, 364510, Note_off_c, 2, 62, 127
1, 364511, Note_on_c, 0, 60, 127
1, 364614, Note_off_c, 0, 60, 127
1, 364616, Note_off_c, 7, 43, 127
1, 364616, Note_off_c, 7, 67, 127
1, 364617, Note_on_c, 7, 67, 127
1, 364617, Note_on_c, 4, 40, 127
1, 364724, Note_on_c, 5, 65, 127
1, 364827, Note_off_c, 5, 65, 127
1, 364829, Note_off_c, 4, 40, 127
1, 364830, Note_on_c, 4, 64, 127
1, 364830, Note_on_c, 0, 36, 127
1, 364882, Note_off_c, 4, 64, 127
1, 364883, Note_on_c, 2, 62, 127
1, 364935, Note_off_c, 2, 62, 127
1, 364936, Note_on_c, 0, 60, 127
1, 365039, Note_off_c, 0, 60, 127
1, 365041, Note_off_c, 0, 36, 127
1, 365041, Note_off_c, 7, 67, 127
1, 365042, Note_on_c, 10, 69, 127
1, 365042, Note_on_c, 5, 41, 127
1, 365145, Note_off_c, 5, 41, 127
1, 365148, Note_on_c, 7, 67, 127
1, 365148, Note_on_c, 4, 40, 127
1, 365251, Note_off_c, 4, 40, 127
1, 365251, Note_off_c, 7, 67, 127
1, 365254, Note_on_c, 5, 65, 127
1, 365254, Note_on_c, 2, 38, 127
1, 365306, Note_off_c, 5, 65, 127
1, 365307, Note_on_c, 4, 64, 127
1, 365357, Note_off_c, 2, 38, 127
1, 365359, Note_off_c, 4, 64, 127
1, 365360, Note_on_c, 2, 62, 127
1, 365360, Note_on_c, 4, 40, 127
1, 365463, Note_off_c, 4, 40, 127
1, 365463, Note_off_c, 2, 62, 127
1, 365465, Note_off_c, 10, 69, 127
1, 365466, Note_on_c, 10, 69, 127
1, 365466, Note_on_c, 5, 41, 127
1, 365573, Note_on_c, 7, 67, 127
1, 365676, Note_off_c, 7, 67, 127
1, 365678, Note_off_c, 5, 41, 127
1, 365679, Note_on_c, 5, 65, 127
1, 365679, Note_on_c, 10, 45, 127
1, 365731, Note_off_c, 5, 65, 127
1, 365732, Note_on_c, 4, 64, 127
1, 365784, Note_off_c, 4, 64, 127
1, 365785, Note_on_c, 2, 62, 127
1, 365888, Note_off_c, 2, 62, 127
1, 365890, Note_off_c, 10, 45, 127
1, 365890, Note_off_c, 10, 69, 127
1, 365891, Note_on_c, 10, 69, 127
1, 365891, Note_on_c, 5, 41, 127
1, 365998, Note_on_c, 7, 67, 127
1, 366101, Note_off_c, 7, 67, 127
1, 366103, Note_off_c, 5, 41, 127
1, 366104, Note_on_c, 5, 65, 127
1, 366104, Note_on_c, 2, 38, 127
1, 366156, Note_off_c, 5, 65, 127
1, 366157, Note_on_c, 4, 64, 127
1, 366209, Note_off_c, 4, 64, 127
1, 366210, Note_on_c, 2, 62, 127
1, 366313, Note_off_c, 2, 62, 127
1, 366315, Note_off_c, 2, 38, 127
1, 366315, Note_off_c, 10, 69, 127
1, 366316, Note_on_c, 12, 71, 127
1, 366316, Note_on_c, 7, 43, 127
1, 366419, Note_off_c, 7, 43, 127
1, 366422, Note_on_c, 10, 69, 127
1, 366422, Note_on_c, 5, 41, 127
1, 366525, Note_off_c, 5, 41, 127
1, 366525, Note_off_c, 10, 69, 127
1, 366528, Note_on_c, 7, 67, 127
1, 366528, Note_on_c, 4, 40, 127
1, 366580, Note_off_c, 7, 67, 127
1, 366581, Note_on_c, 5, 65, 127
1, 366631, Note_off_c, 4, 40, 127
1, 366633, Note_off_c, 5, 65, 127
1, 366634, Note_on_c, 4, 64, 127
1, 366634, Note_on_c, 5, 41, 127
1, 366737, Note_off_c, 5, 41, 127
1, 366737, Note_off_c, 4, 64, 127
1, 366739, Note_off_c, 12, 71, 127
1, 366740, Note_on_c, 12, 71, 127
1, 366740, Note_on_c, 7, 43, 127
1, 366847, Note_on_c, 10, 69, 127
1, 366950, Note_off_c, 10, 69, 127
1, 366952, Note_off_c, 7, 43, 127
1, 366953, Note_on_c, 7, 67, 127
1, 366953, Note_on_c, 12, 47, 127
1, 367005, Note_off_c, 7, 67, 127
1, 367006, Note_on_c, 5, 65, 127
1, 367058, Note_off_c, 5, 65, 127
1, 367059, Note_on_c, 4, 64, 127
1, 367162, Note_off_c, 4, 64, 127
1, 367164, Note_off_c, 12, 47, 127
1, 367164, Note_off_c, 12, 71, 127
1, 367165, Note_on_c, 12, 71, 127
1, 367165, Note_on_c, 7, 43, 127
1, 367272, Note_on_c, 10, 69, 127
1, 367375, Note_off_c, 10, 69, 127
1, 367377, Note_off_c, 7, 43, 127
1, 367378, Note_on_c, 7, 67, 127
1, 367378, Note_on_c, 4, 40, 127
1, 367430, Note_off_c, 7, 67, 127
1, 367431, Note_on_c, 5, 65, 127
1, 367483, Note_off_c, 5, 65, 127
1, 367484, Note_on_c, 4, 64, 127
1, 367587, Note_off_c, 4, 64, 127
1, 367589, Note_off_c, 4, 40, 127
1, 367589, Note_off_c, 12, 71, 127
1, 367590, Note_on_c, 0, 72, 127
1, 367590, Note_on_c, 10, 45, 127
1, 367693, Note_off_c, 10, 45, 127
1, 367696, Note_on_c, 12, 71, 127
1, 367696, Note_on_c, 7, 43, 127
1, 367799, Note_off_c, 7, 43, 127
1, 367799, Note_off_c, 12, 71, 127
1, 367802, Note_on_c, 10, 69, 127
1, 367802, Note_on_c, 5, 41, 127
1, 367854, Note_off_c, 10, 69, 127
1, 367855, Note_on_c, 7, 67, 127
1, 367905, Note_off_c, 5, 41, 127
1, 367907, Note_off_c, 7, 67, 127
1, 367908, Note_on_c, 5, 65, 127
1, 367908, Note_on_c, 7, 43, 127
1, 368011, Note_off_c, 7, 43, 127
1, 368011, Note_off_c, 5, 65, 127
1, 368013, Note_off_c, 0, 72, 127
1, 368014, Note_on_c, 0, 72, 127
1, 368014, Note_on_c, 10, 45, 127
1, 368121, Note_on_c, 12, 71, 127
1, 368224, Note_off_c, 12, 71, 127
1, 368226, Note_off_c, 10, 45, 127
1, 368227, Note_on_c, 10, 69, 127
1, 368227, Note_on_c, 0, 48, 127
1, 368279, Note_off_c, 10, 69, 127
1, 368280, Note_on_c, 7, 67, 127
1, 368332, Note_off_c, 7, 67, 127
1, 368333, Note_on_c, 5, 65, 127
1, 368436, Note_off_c, 5, 65, 127
1, 368438, Note_off_c, 0, 48, 127
1, 368438, Note_off_c, 0, 72, 127
1, 368439, Note_on_c, 0, 72, 127
1, 368439, Note_on_c, 10, 45, 127
1, 368546, Note_on_c, 12, 71, 127
1, 368649, Note_off_c, 12, 71, 127
1, 368651, Note_off_c, 10, 45, 127
1, 368652, Note_on_c, 10, 69, 127
1, 368652, Note_on_c, 5, 41, 127
1, 368704, Note_off_c, 10, 69, 127
1, 368705, Note_on_c, 7, 67, 127
1, 368757, Note_off_c, 7, 67, 127
1, 368758, Note_on_c, 5, 65, 127
1, 368861, Note_off_c, 5, 65, 127
1, 368863, Note_off_c, 5, 41, 127
1, 368863, Note_off_c, 0, 72, 127
1, 368864, Note_on_c, 2, 74, 127
1, 368864, Note_on_c, 12, 47, 127
1, 368971, Note_off_c, 12, 47, 127
1, 368974, Note_on_c, 0, 72, 127
1, 368974, Note_on_c, 10, 45, 127
1, 369081, Note_off_c, 10, 45, 127
1, 369081, Note_off_c, 0, 72, 127
1, 369084, Note_on_c, 12, 71, 127
1, 369084, Note_on_c, 7, 43, 127
1, 369138, Note_off_c, 12, 71, 127
1, 369139, Note_on_c, 10, 69, 127
1, 369191, Note_off_c, 7, 43, 127
1, 369193, Note_off_c, 10, 69, 127
1, 369194, Note_on_c, 7, 67, 127
1, 369194, Note_on_c, 10, 45, 127
1, 369277, Note_off_c, 2, 74, 127
1, 369301, Note_off_c, 10, 45, 127
1, 369301, Note_off_c, 7, 67, 127
1, 369304, Note_on_c, 2, 74, 127
1, 369304, Note_on_c, 12, 47, 127
1, 369415, Note_on_c, 0, 72, 127
1, 369522, Note_off_c, 0, 72, 127
1, 369524, Note_off_c, 12, 47, 127
1, 369525, Note_on_c, 12, 71, 127
1, 369525, Note_on_c, 2, 50, 127
1, 369579, Note_off_c, 12, 71, 127
1, 369580, Note_on_c, 10, 69, 127
1, 369634, Note_off_c, 10, 69, 127
1, 369635, Note_on_c, 7, 67, 127
1, 369695, Note_off_c, 2, 74, 127
1, 369742, Note_off_c, 7, 67, 127
1, 369744, Note_off_c, 2, 50, 127
1, 369745, Note_on_c, 2, 74, 127
1, 369745, Note_on_c, 12, 47, 127
1, 369856, Note_on_c, 0, 72, 127
1, 369963, Note_off_c, 0, 72, 127
1, 369965, Note_off_c, 12, 47, 127
1, 369966, Note_on_c, 12, 71, 127
1, 369966, Note_on_c, 7, 43, 127
1, 370020, Note_off_c, 12, 71, 127
1, 370021, Note_on_c, 10, 69, 127
1, 370075, Note_off_c, 10, 69, 127
1, 370076, Note_off_c, 2, 74, 127
1, 370076, Note_on_c, 7, 67, 127
1, 370183, Note_off_c, 7, 67, 127
1, 370185, Note_off_c, 7, 43, 127
1, 370186, Note_on_c, 4, 76, 127
1, 370186, Note_on_c, 0, 48, 127
1, 370406, Note_off_c, 0, 48, 127
1, 370406, Note_off_c, 4, 76, 127
1, 370407, Note_on_c, 2, 74, 127
1, 370407, Note_on_c, 10, 69, 127
1, 370407, Note_on_c, 5, 53, 127
1, 370514, Note_off_c, 2, 74, 127
1, 370517, Note_on_c, 4, 64, 127
1, 370517, Note_on_c, 0, 72, 127
1, 370624, Note_off_c, 0, 72, 127
1, 370624, Note_off_c, 4, 64, 127
1, 370625, Note_off_c, 10, 69, 127
1, 370626, Note_off_c, 5, 53, 127
1, 370627, Note_on_c, 2, 62, 127
1, 370627, Note_on_c, 12, 71, 127
1, 370627, Note_on_c, 7, 67, 127
1, 370627, Note_on_c, 7, 55, 127
1, 371070, Note_on_c, 7, 43, 127
1, 371290, Note_off_c, 12, 71, 127
1, 371307, Note_on_c, 0, 72, 127
1, 371511, Note_off_c, 7, 43, 127
1, 371511, Note_off_c, 7, 55, 127
1, 371511, Note_off_c, 7, 67, 127
1, 371511, Note_off_c, 2, 62, 127
1, 371527, Note_off_c, 0, 72, 127
1, 371552, Note_on_c, 7, 67, 127
1, 371552, Note_on_c, 0, 72, 127
1, 371552, Note_on_c, 4, 64, 127
1, 371552, Note_on_c, 0, 48, 127
1, 373352, Note_off_c, 0, 48, 127
1, 373352, Note_off_c, 4, 64, 127
1, 373352, Note_off_c, 0, 72, 127
1, 373352, Note_off_c, 7, 67, 127
1, 379392, End_track
0, 0, End_of_file
