0, 0, Header, 1, 5, 384
1, 0, Start_track
1, 0, Title_t, "untitled"
1, 0, SMPTE_offset, 96, 0, 3, 0, 0
1, 0, Time_signature, 4, 2, 24, 8
1, 0, Key_signature, 0, "major"
1, 0, Tempo, 600000
1, 90624, Tempo, 779221
1, 90848, Tempo, 789474
1, 91072, Tempo, 800000
1, 91296, Tempo, 810811
1, 91520, Tempo, 821918
1, 91744, Tempo, 833333
1, 91968, Tempo, 845070
1, 92192, Tempo, 857143
1, 92416, Tempo, 869565
1, 92640, Tempo, 882353
1, 92864, Tempo, 895522
1, 93088, Tempo, 909091
1, 93312, Tempo, 923077
1, 93536, Tempo, 937500
1, 93760, Tempo, 952381
1, 93984, Tempo, 967742
1, 94208, Tempo, 983607
1, 94432, Tempo, 1000000
1, 94656, Tempo, 1016949
1, 94880, Tempo, 1034483
1, 95104, Tempo, 1052632
1, 95328, Tempo, 1071429
1, 95552, Tempo, 1090909
1, 95776, Tempo, 1111111
1, 96000, Tempo, 1132075
1, 96224, Tempo, 1153846
1, 96448, Tempo, 1176471
1, 96672, Tempo, 1200000
1, 96672, End_track
2, 0, Start_track
2, 0, MIDI_port, 0
2, 0, Title_t, "J.S. Bach: Fugue, BWV 906 (part 2)"
2, 0, Control_c, 0, 0, 0
2, 0, Control_c, 0, 32, 0
2, 0, Program_c, 0, 6
2, 0, Control_c, 0, 7, 100
2, 0, Control_c, 0, 10, 54
2, 192, Note_on_c, 0, 67, 100
2, 380, Note_on_c, 0, 67, 0
2, 384, Note_on_c, 0, 65, 100
2, 572, Note_on_c, 0, 65, 0
2, 576, Note_on_c, 0, 67, 100
2, 764, Note_on_c, 0, 67, 0
2, 768, Note_on_c, 0, 68, 100
2, 896, Note_on_c, 0, 68, 0
2, 960, Note_on_c, 0, 69, 100
2, 1148, Note_on_c, 0, 69, 0
2, 1152, Note_on_c, 0, 67, 100
2, 1340, Note_on_c, 0, 67, 0
2, 1344, Note_on_c, 0, 69, 100
2, 1532, Note_on_c, 0, 69, 0
2, 1536, Note_on_c, 0, 70, 100
2, 1664, Note_on_c, 0, 70, 0
2, 1728, Note_on_c, 0, 71, 100
2, 1916, Note_on_c, 0, 71, 0
2, 1920, Note_on_c, 0, 69, 100
2, 2108, Note_on_c, 0, 69, 0
2, 2112, Note_on_c, 0, 71, 100
2, 2300, Note_on_c, 0, 71, 0
2, 2304, Note_on_c, 0, 72, 100
2, 2432, Note_on_c, 0, 72, 0
2, 2496, Note_on_c, 0, 67, 100
2, 2624, Note_on_c, 0, 67, 0
2, 2688, Note_on_c, 0, 74, 100
2, 2816, Note_on_c, 0, 74, 0
2, 2880, Note_on_c, 0, 65, 100
2, 3008, Note_on_c, 0, 65, 0
2, 3072, Note_on_c, 0, 63, 100
2, 3328, Note_on_c, 0, 63, 0
2, 3456, Note_on_c, 0, 68, 100
2, 4028, Note_on_c, 0, 68, 0
2, 4032, Note_on_c, 0, 67, 100
2, 4220, Note_on_c, 0, 67, 0
2, 4224, Note_on_c, 0, 70, 100
2, 4796, Note_on_c, 0, 70, 0
2, 4800, Note_on_c, 0, 69, 100
2, 4928, Note_on_c, 0, 69, 0
2, 4992, Note_on_c, 0, 72, 100
2, 5372, Note_on_c, 0, 72, 0
2, 5376, Note_on_c, 0, 70, 100
2, 5376, Note_on_c, 0, 67, 100
2, 5504, Note_on_c, 0, 67, 0
2, 5756, Note_on_c, 0, 70, 0
2, 5760, Note_on_c, 0, 65, 100
2, 5760, Note_on_c, 0, 69, 100
2, 5888, Note_on_c, 0, 69, 0
2, 6140, Note_on_c, 0, 65, 0
2, 6144, Note_on_c, 0, 67, 100
2, 6144, Note_on_c, 0, 58, 100
2, 6524, Note_on_c, 0, 58, 0
2, 6524, Note_on_c, 0, 67, 0
2, 6528, Note_on_c, 0, 70, 100
2, 6528, Note_on_c, 0, 61, 100
2, 6908, Note_on_c, 0, 70, 0
2, 6912, Note_on_c, 0, 63, 100
2, 7100, Note_on_c, 0, 61, 0
2, 7104, Note_on_c, 0, 60, 100
2, 7292, Note_on_c, 0, 60, 0
2, 7292, Note_on_c, 0, 63, 0
2, 7296, Note_on_c, 0, 72, 100
2, 7296, Note_on_c, 0, 63, 100
2, 7676, Note_on_c, 0, 72, 0
2, 7680, Note_on_c, 0, 65, 100
2, 7868, Note_on_c, 0, 63, 0
2, 7872, Note_on_c, 0, 62, 100
2, 8060, Note_on_c, 0, 62, 0
2, 8060, Note_on_c, 0, 65, 0
2, 8064, Note_on_c, 0, 74, 100
2, 8064, Note_on_c, 0, 65, 100
2, 8444, Note_on_c, 0, 65, 0
2, 8448, Note_on_c, 0, 63, 100
2, 8636, Note_on_c, 0, 74, 0
2, 8640, Note_on_c, 0, 72, 100
2, 8828, Note_on_c, 0, 63, 0
2, 8832, Note_on_c, 0, 65, 100
2, 9020, Note_on_c, 0, 65, 0
2, 9020, Note_on_c, 0, 72, 0
2, 9024, Note_on_c, 0, 71, 100
2, 9024, Note_on_c, 0, 68, 100
2, 9212, Note_on_c, 0, 68, 0
2, 9212, Note_on_c, 0, 71, 0
2, 9216, Note_on_c, 0, 72, 100
2, 9216, Note_on_c, 0, 67, 100
2, 9596, Note_on_c, 0, 67, 0
2, 9596, Note_on_c, 0, 72, 0
2, 9600, Note_on_c, 0, 73, 100
2, 9600, Note_on_c, 0, 64, 100
2, 9980, Note_on_c, 0, 64, 0
2, 9980, Note_on_c, 0, 73, 0
2, 9984, Note_on_c, 0, 71, 100
2, 9984, Note_on_c, 0, 65, 100
2, 10364, Note_on_c, 0, 65, 0
2, 10364, Note_on_c, 0, 71, 0
2, 10368, Note_on_c, 0, 70, 100
2, 10368, Note_on_c, 0, 67, 100
2, 10748, Note_on_c, 0, 67, 0
2, 10748, Note_on_c, 0, 70, 0
2, 10752, Note_on_c, 0, 68, 100
2, 11008, Note_on_c, 0, 68, 0
2, 11136, Note_on_c, 0, 75, 100
2, 11136, Note_on_c, 0, 66, 100
2, 11516, Note_on_c, 0, 66, 0
2, 11516, Note_on_c, 0, 75, 0
2, 11520, Note_on_c, 0, 73, 100
2, 11520, Note_on_c, 0, 67, 100
2, 11900, Note_on_c, 0, 67, 0
2, 11900, Note_on_c, 0, 73, 0
2, 11904, Note_on_c, 0, 72, 100
2, 11904, Note_on_c, 0, 69, 100
2, 12284, Note_on_c, 0, 69, 0
2, 12284, Note_on_c, 0, 72, 0
2, 12288, Note_on_c, 0, 70, 100
2, 12480, Note_on_c, 0, 74, 100
2, 12668, Note_on_c, 0, 74, 0
2, 12668, Note_on_c, 0, 70, 0
2, 12672, Note_on_c, 0, 72, 100
2, 12672, Note_on_c, 0, 68, 100
2, 12860, Note_on_c, 0, 72, 0
2, 12864, Note_on_c, 0, 74, 100
2, 13052, Note_on_c, 0, 74, 0
2, 13056, Note_on_c, 0, 75, 100
2, 13184, Note_on_c, 0, 75, 0
2, 13244, Note_on_c, 0, 68, 0
2, 13248, Note_on_c, 0, 76, 100
2, 13248, Note_on_c, 0, 67, 100
2, 13436, Note_on_c, 0, 67, 0
2, 13436, Note_on_c, 0, 76, 0
2, 13440, Note_on_c, 0, 74, 100
2, 13440, Note_on_c, 0, 70, 100
2, 13628, Note_on_c, 0, 74, 0
2, 13632, Note_on_c, 0, 76, 100
2, 13820, Note_on_c, 0, 76, 0
2, 13824, Note_on_c, 0, 77, 100
2, 13952, Note_on_c, 0, 77, 0
2, 14012, Note_on_c, 0, 70, 0
2, 14016, Note_on_c, 0, 78, 100
2, 14016, Note_on_c, 0, 69, 100
2, 14144, Note_on_c, 0, 69, 0
2, 14204, Note_on_c, 0, 78, 0
2, 14208, Note_on_c, 0, 76, 100
2, 14208, Note_on_c, 0, 72, 100
2, 14396, Note_on_c, 0, 76, 0
2, 14400, Note_on_c, 0, 78, 100
2, 14464, Note_on_c, 0, 72, 0
2, 14588, Note_on_c, 0, 78, 0
2, 14592, Note_on_c, 0, 79, 100
2, 14592, Note_on_c, 0, 70, 100
2, 14720, Note_on_c, 0, 79, 0
2, 14784, Note_on_c, 0, 74, 100
2, 14848, Note_on_c, 0, 70, 0
2, 14912, Note_on_c, 0, 74, 0
2, 14976, Note_on_c, 0, 81, 100
2, 14976, Note_on_c, 0, 69, 100
2, 15104, Note_on_c, 0, 81, 0
2, 15168, Note_on_c, 0, 72, 100
2, 15232, Note_on_c, 0, 69, 0
2, 15296, Note_on_c, 0, 72, 0
2, 15360, Note_on_c, 0, 70, 100
2, 15360, Note_on_c, 0, 67, 100
2, 15552, Note_on_c, 0, 79, 100
2, 15740, Note_on_c, 0, 79, 0
2, 15740, Note_on_c, 0, 67, 0
2, 15740, Note_on_c, 0, 70, 0
2, 15744, Note_on_c, 0, 77, 100
2, 15744, Note_on_c, 0, 68, 100
2, 15932, Note_on_c, 0, 77, 0
2, 15936, Note_on_c, 0, 79, 100
2, 16124, Note_on_c, 0, 79, 0
2, 16124, Note_on_c, 0, 68, 0
2, 16128, Note_on_c, 0, 81, 100
2, 16128, Note_on_c, 0, 66, 100
2, 16316, Note_on_c, 0, 81, 0
2, 16320, Note_on_c, 0, 75, 100
2, 16448, Note_on_c, 0, 75, 0
2, 16508, Note_on_c, 0, 66, 0
2, 16512, Note_on_c, 0, 83, 100
2, 16512, Note_on_c, 0, 65, 100
2, 16640, Note_on_c, 0, 83, 0
2, 16704, Note_on_c, 0, 74, 100
2, 16832, Note_on_c, 0, 74, 0
2, 16892, Note_on_c, 0, 65, 0
2, 16896, Note_on_c, 0, 72, 100
2, 16896, Note_on_c, 0, 63, 100
2, 17084, Note_on_c, 0, 63, 0
2, 17152, Note_on_c, 0, 72, 0
2, 17280, Note_on_c, 0, 76, 100
2, 17280, Note_on_c, 0, 70, 100
2, 17468, Note_on_c, 0, 70, 0
2, 17472, Note_on_c, 0, 72, 100
2, 17660, Note_on_c, 0, 72, 0
2, 17660, Note_on_c, 0, 76, 0
2, 17664, Note_on_c, 0, 77, 100
2, 17664, Note_on_c, 0, 74, 100
2, 17792, Note_on_c, 0, 74, 0
2, 17856, Note_on_c, 0, 68, 100
2, 17984, Note_on_c, 0, 68, 0
2, 18044, Note_on_c, 0, 77, 0
2, 18048, Note_on_c, 0, 79, 100
2, 18048, Note_on_c, 0, 76, 100
2, 18176, Note_on_c, 0, 76, 0
2, 18240, Note_on_c, 0, 67, 100
2, 18368, Note_on_c, 0, 67, 0
2, 18428, Note_on_c, 0, 79, 0
2, 18432, Note_on_c, 0, 80, 100
2, 18432, Note_on_c, 0, 65, 100
2, 18688, Note_on_c, 0, 65, 0
2, 18688, Note_on_c, 0, 80, 0
2, 18816, Note_on_c, 0, 78, 100
2, 18816, Note_on_c, 0, 69, 100
2, 19196, Note_on_c, 0, 69, 0
2, 19196, Note_on_c, 0, 78, 0
2, 19200, Note_on_c, 0, 76, 100
2, 19200, Note_on_c, 0, 70, 100
2, 19200, Note_on_c, 0, 67, 100
2, 19328, Note_on_c, 0, 67, 0
2, 19580, Note_on_c, 0, 70, 0
2, 19580, Note_on_c, 0, 76, 0
2, 19584, Note_on_c, 0, 75, 100
2, 19584, Note_on_c, 0, 72, 100
2, 19584, Note_on_c, 0, 69, 100
2, 19712, Note_on_c, 0, 69, 0
2, 19964, Note_on_c, 0, 72, 0
2, 19964, Note_on_c, 0, 75, 0
2, 19968, Note_on_c, 0, 74, 100
2, 20224, Note_on_c, 0, 74, 0
2, 20352, Note_on_c, 0, 78, 100
2, 20352, Note_on_c, 0, 75, 100
2, 20732, Note_on_c, 0, 75, 0
2, 20732, Note_on_c, 0, 78, 0
2, 20736, Note_on_c, 0, 79, 100
2, 20736, Note_on_c, 0, 73, 100
2, 21116, Note_on_c, 0, 73, 0
2, 21116, Note_on_c, 0, 79, 0
2, 21120, Note_on_c, 0, 81, 100
2, 21120, Note_on_c, 0, 72, 100
2, 21500, Note_on_c, 0, 72, 0
2, 21500, Note_on_c, 0, 81, 0
2, 21504, Note_on_c, 0, 74, 100
2, 21504, Note_on_c, 0, 70, 100
2, 21692, Note_on_c, 0, 70, 0
2, 21696, Note_on_c, 0, 67, 100
2, 21760, Note_on_c, 0, 74, 0
2, 21884, Note_on_c, 0, 67, 0
2, 21888, Note_on_c, 0, 65, 100
2, 21888, Note_on_c, 0, 80, 100
2, 22076, Note_on_c, 0, 65, 0
2, 22080, Note_on_c, 0, 67, 100
2, 22268, Note_on_c, 0, 67, 0
2, 22268, Note_on_c, 0, 80, 0
2, 22272, Note_on_c, 0, 69, 100
2, 22272, Note_on_c, 0, 78, 100
2, 22400, Note_on_c, 0, 69, 0
2, 22464, Note_on_c, 0, 63, 100
2, 22592, Note_on_c, 0, 63, 0
2, 22652, Note_on_c, 0, 78, 0
2, 22656, Note_on_c, 0, 71, 100
2, 22656, Note_on_c, 0, 77, 100
2, 22784, Note_on_c, 0, 71, 0
2, 22848, Note_on_c, 0, 62, 100
2, 22976, Note_on_c, 0, 62, 0
2, 23036, Note_on_c, 0, 77, 0
2, 23040, Note_on_c, 0, 75, 100
2, 23040, Note_on_c, 0, 60, 100
2, 23168, Note_on_c, 0, 75, 0
2, 23232, Note_on_c, 0, 72, 100
2, 23296, Note_on_c, 0, 60, 0
2, 23420, Note_on_c, 0, 72, 0
2, 23424, Note_on_c, 0, 70, 100
2, 23612, Note_on_c, 0, 70, 0
2, 23616, Note_on_c, 0, 72, 100
2, 23804, Note_on_c, 0, 72, 0
2, 23808, Note_on_c, 0, 74, 100
2, 23936, Note_on_c, 0, 74, 0
2, 24000, Note_on_c, 0, 68, 100
2, 24128, Note_on_c, 0, 68, 0
2, 24192, Note_on_c, 0, 76, 100
2, 24320, Note_on_c, 0, 76, 0
2, 24384, Note_on_c, 0, 67, 100
2, 24512, Note_on_c, 0, 67, 0
2, 24576, Note_on_c, 0, 65, 100
2, 24576, Note_on_c, 0, 60, 100
2, 24832, Note_on_c, 0, 60, 0
2, 24832, Note_on_c, 0, 65, 0
2, 24960, Note_on_c, 0, 73, 100
2, 25532, Note_on_c, 0, 73, 0
2, 25536, Note_on_c, 0, 72, 100
2, 25724, Note_on_c, 0, 72, 0
2, 25728, Note_on_c, 0, 75, 100
2, 26300, Note_on_c, 0, 75, 0
2, 26304, Note_on_c, 0, 74, 100
2, 26492, Note_on_c, 0, 74, 0
2, 26496, Note_on_c, 0, 77, 100
2, 27068, Note_on_c, 0, 77, 0
2, 27072, Note_on_c, 0, 75, 100
2, 27164, Note_on_c, 0, 75, 0
2, 27168, Note_on_c, 0, 74, 100
2, 27260, Note_on_c, 0, 74, 0
2, 27264, Note_on_c, 0, 72, 100
2, 27452, Note_on_c, 0, 72, 0
2, 27456, Note_on_c, 0, 71, 100
2, 27644, Note_on_c, 0, 71, 0
2, 27648, Note_on_c, 0, 72, 100
2, 27840, Note_on_c, 0, 62, 100
2, 27904, Note_on_c, 0, 72, 0
2, 28028, Note_on_c, 0, 62, 0
2, 28032, Note_on_c, 0, 60, 100
2, 28032, Note_on_c, 0, 65, 100
2, 28220, Note_on_c, 0, 60, 0
2, 28224, Note_on_c, 0, 62, 100
2, 28412, Note_on_c, 0, 62, 0
2, 28412, Note_on_c, 0, 65, 0
2, 28416, Note_on_c, 0, 63, 100
2, 28416, Note_on_c, 0, 70, 100
2, 28604, Note_on_c, 0, 63, 0
2, 28608, Note_on_c, 0, 64, 100
2, 28796, Note_on_c, 0, 64, 0
2, 28796, Note_on_c, 0, 70, 0
2, 28800, Note_on_c, 0, 62, 100
2, 28800, Note_on_c, 0, 67, 100
2, 28988, Note_on_c, 0, 62, 0
2, 28992, Note_on_c, 0, 64, 100
2, 29180, Note_on_c, 0, 64, 0
2, 29180, Note_on_c, 0, 67, 0
2, 29184, Note_on_c, 0, 72, 100
2, 29184, Note_on_c, 0, 65, 100
2, 29372, Note_on_c, 0, 65, 0
2, 29376, Note_on_c, 0, 66, 100
2, 29564, Note_on_c, 0, 66, 0
2, 29564, Note_on_c, 0, 72, 0
2, 29568, Note_on_c, 0, 69, 100
2, 29568, Note_on_c, 0, 64, 100
2, 29756, Note_on_c, 0, 64, 0
2, 29760, Note_on_c, 0, 66, 100
2, 29948, Note_on_c, 0, 66, 0
2, 29948, Note_on_c, 0, 69, 0
2, 29952, Note_on_c, 0, 74, 100
2, 29952, Note_on_c, 0, 67, 100
2, 30080, Note_on_c, 0, 67, 0
2, 30144, Note_on_c, 0, 62, 100
2, 30272, Note_on_c, 0, 62, 0
2, 30336, Note_on_c, 0, 69, 100
2, 30464, Note_on_c, 0, 69, 0
2, 30528, Note_on_c, 0, 60, 100
2, 30656, Note_on_c, 0, 60, 0
2, 30716, Note_on_c, 0, 74, 0
2, 30720, Note_on_c, 0, 58, 100
2, 30908, Note_on_c, 0, 58, 0
2, 30912, Note_on_c, 0, 59, 100
2, 30912, Note_on_c, 0, 67, 100
2, 31100, Note_on_c, 0, 67, 0
2, 31100, Note_on_c, 0, 59, 0
2, 31104, Note_on_c, 0, 57, 100
2, 31104, Note_on_c, 0, 65, 100
2, 31292, Note_on_c, 0, 65, 0
2, 31292, Note_on_c, 0, 57, 0
2, 31296, Note_on_c, 0, 59, 100
2, 31296, Note_on_c, 0, 67, 100
2, 31484, Note_on_c, 0, 67, 0
2, 31484, Note_on_c, 0, 59, 0
2, 31488, Note_on_c, 0, 60, 100
2, 31488, Note_on_c, 0, 68, 100
2, 31676, Note_on_c, 0, 68, 0
2, 31680, Note_on_c, 0, 69, 100
2, 31868, Note_on_c, 0, 69, 0
2, 31872, Note_on_c, 0, 67, 100
2, 32060, Note_on_c, 0, 67, 0
2, 32064, Note_on_c, 0, 69, 100
2, 32252, Note_on_c, 0, 69, 0
2, 32252, Note_on_c, 0, 60, 0
2, 32256, Note_on_c, 0, 70, 100
2, 32444, Note_on_c, 0, 70, 0
2, 32448, Note_on_c, 0, 71, 100
2, 32448, Note_on_c, 0, 62, 100
2, 32636, Note_on_c, 0, 62, 0
2, 32636, Note_on_c, 0, 71, 0
2, 32640, Note_on_c, 0, 69, 100
2, 32640, Note_on_c, 0, 60, 100
2, 32828, Note_on_c, 0, 60, 0
2, 32828, Note_on_c, 0, 69, 0
2, 32832, Note_on_c, 0, 71, 100
2, 32832, Note_on_c, 0, 62, 100
2, 33020, Note_on_c, 0, 62, 0
2, 33020, Note_on_c, 0, 71, 0
2, 33024, Note_on_c, 0, 72, 100
2, 33024, Note_on_c, 0, 63, 100
2, 33212, Note_on_c, 0, 72, 0
2, 33216, Note_on_c, 0, 67, 100
2, 33404, Note_on_c, 0, 67, 0
2, 33404, Note_on_c, 0, 63, 0
2, 33408, Note_on_c, 0, 74, 100
2, 33408, Note_on_c, 0, 62, 100
2, 33596, Note_on_c, 0, 74, 0
2, 33600, Note_on_c, 0, 65, 100
2, 33788, Note_on_c, 0, 65, 0
2, 33788, Note_on_c, 0, 62, 0
2, 33792, Note_on_c, 0, 63, 100
2, 33920, Note_on_c, 0, 63, 0
2, 33984, Note_on_c, 0, 67, 100
2, 34172, Note_on_c, 0, 67, 0
2, 34176, Note_on_c, 0, 65, 100
2, 34364, Note_on_c, 0, 65, 0
2, 34368, Note_on_c, 0, 67, 100
2, 34556, Note_on_c, 0, 67, 0
2, 34560, Note_on_c, 0, 68, 100
2, 34748, Note_on_c, 0, 68, 0
2, 34752, Note_on_c, 0, 63, 100
2, 34940, Note_on_c, 0, 63, 0
2, 34944, Note_on_c, 0, 70, 100
2, 35132, Note_on_c, 0, 70, 0
2, 35136, Note_on_c, 0, 61, 100
2, 35324, Note_on_c, 0, 61, 0
2, 35328, Note_on_c, 0, 60, 100
2, 35516, Note_on_c, 0, 60, 0
2, 35520, Note_on_c, 0, 63, 100
2, 35708, Note_on_c, 0, 63, 0
2, 35712, Note_on_c, 0, 62, 100
2, 35840, Note_on_c, 0, 62, 0
2, 35904, Note_on_c, 0, 64, 100
2, 36092, Note_on_c, 0, 64, 0
2, 36096, Note_on_c, 0, 65, 100
2, 36284, Note_on_c, 0, 65, 0
2, 36288, Note_on_c, 0, 60, 100
2, 36476, Note_on_c, 0, 60, 0
2, 36480, Note_on_c, 0, 67, 100
2, 36668, Note_on_c, 0, 67, 0
2, 36672, Note_on_c, 0, 58, 100
2, 36860, Note_on_c, 0, 58, 0
2, 36864, Note_on_c, 0, 56, 100
2, 36956, Note_on_c, 0, 56, 0
2, 36960, Note_on_c, 0, 60, 100
2, 37052, Note_on_c, 0, 60, 0
2, 37056, Note_on_c, 0, 62, 100
2, 37148, Note_on_c, 0, 62, 0
2, 37152, Note_on_c, 0, 64, 100
2, 37244, Note_on_c, 0, 64, 0
2, 37248, Note_on_c, 0, 65, 100
2, 37340, Note_on_c, 0, 65, 0
2, 37344, Note_on_c, 0, 67, 100
2, 37436, Note_on_c, 0, 67, 0
2, 37440, Note_on_c, 0, 68, 100
2, 37532, Note_on_c, 0, 68, 0
2, 37536, Note_on_c, 0, 70, 100
2, 37628, Note_on_c, 0, 70, 0
2, 37632, Note_on_c, 0, 72, 100
2, 37728, Note_on_c, 0, 70, 100
2, 37820, Note_on_c, 0, 70, 0
2, 37824, Note_on_c, 0, 68, 100
2, 37916, Note_on_c, 0, 68, 0
2, 37920, Note_on_c, 0, 67, 100
2, 38012, Note_on_c, 0, 67, 0
2, 38016, Note_on_c, 0, 65, 100
2, 38108, Note_on_c, 0, 65, 0
2, 38112, Note_on_c, 0, 63, 100
2, 38204, Note_on_c, 0, 63, 0
2, 38208, Note_on_c, 0, 62, 100
2, 38300, Note_on_c, 0, 62, 0
2, 38304, Note_on_c, 0, 60, 100
2, 38396, Note_on_c, 0, 60, 0
2, 38396, Note_on_c, 0, 72, 0
2, 38400, Note_on_c, 0, 74, 100
2, 38400, Note_on_c, 0, 59, 100
2, 38492, Note_on_c, 0, 59, 0
2, 38492, Note_on_c, 0, 74, 0
2, 38496, Note_on_c, 0, 62, 100
2, 38588, Note_on_c, 0, 62, 0
2, 38592, Note_on_c, 0, 63, 100
2, 38684, Note_on_c, 0, 63, 0
2, 38688, Note_on_c, 0, 65, 100
2, 38780, Note_on_c, 0, 65, 0
2, 38784, Note_on_c, 0, 67, 100
2, 38876, Note_on_c, 0, 67, 0
2, 38880, Note_on_c, 0, 69, 100
2, 38972, Note_on_c, 0, 69, 0
2, 38976, Note_on_c, 0, 71, 100
2, 39068, Note_on_c, 0, 71, 0
2, 39072, Note_on_c, 0, 72, 100
2, 39164, Note_on_c, 0, 72, 0
2, 39168, Note_on_c, 0, 74, 100
2, 39264, Note_on_c, 0, 72, 100
2, 39356, Note_on_c, 0, 72, 0
2, 39360, Note_on_c, 0, 71, 100
2, 39452, Note_on_c, 0, 71, 0
2, 39456, Note_on_c, 0, 69, 100
2, 39548, Note_on_c, 0, 69, 0
2, 39552, Note_on_c, 0, 67, 100
2, 39644, Note_on_c, 0, 67, 0
2, 39648, Note_on_c, 0, 65, 100
2, 39740, Note_on_c, 0, 65, 0
2, 39744, Note_on_c, 0, 63, 100
2, 39836, Note_on_c, 0, 63, 0
2, 39840, Note_on_c, 0, 62, 100
2, 39932, Note_on_c, 0, 62, 0
2, 39936, Note_on_c, 0, 63, 100
2, 40028, Note_on_c, 0, 74, 0
2, 40032, Note_on_c, 0, 67, 100
2, 40124, Note_on_c, 0, 67, 0
2, 40128, Note_on_c, 0, 69, 100
2, 40220, Note_on_c, 0, 69, 0
2, 40224, Note_on_c, 0, 71, 100
2, 40316, Note_on_c, 0, 71, 0
2, 40316, Note_on_c, 0, 63, 0
2, 40320, Note_on_c, 0, 72, 100
2, 40412, Note_on_c, 0, 72, 0
2, 40416, Note_on_c, 0, 74, 100
2, 40508, Note_on_c, 0, 74, 0
2, 40512, Note_on_c, 0, 75, 100
2, 40604, Note_on_c, 0, 75, 0
2, 40608, Note_on_c, 0, 77, 100
2, 40700, Note_on_c, 0, 77, 0
2, 40704, Note_on_c, 0, 79, 100
2, 40800, Note_on_c, 0, 77, 100
2, 40892, Note_on_c, 0, 77, 0
2, 40896, Note_on_c, 0, 75, 100
2, 40988, Note_on_c, 0, 75, 0
2, 40992, Note_on_c, 0, 74, 100
2, 41084, Note_on_c, 0, 74, 0
2, 41088, Note_on_c, 0, 72, 100
2, 41180, Note_on_c, 0, 72, 0
2, 41184, Note_on_c, 0, 70, 100
2, 41276, Note_on_c, 0, 70, 0
2, 41280, Note_on_c, 0, 68, 100
2, 41372, Note_on_c, 0, 68, 0
2, 41376, Note_on_c, 0, 67, 100
2, 41468, Note_on_c, 0, 67, 0
2, 41472, Note_on_c, 0, 68, 100
2, 41852, Note_on_c, 0, 79, 0
2, 41856, Note_on_c, 0, 77, 100
2, 42236, Note_on_c, 0, 68, 0
2, 42240, Note_on_c, 0, 67, 100
2, 42620, Note_on_c, 0, 77, 0
2, 42624, Note_on_c, 0, 75, 100
2, 43004, Note_on_c, 0, 67, 0
2, 43008, Note_on_c, 0, 65, 100
2, 43388, Note_on_c, 0, 75, 0
2, 43392, Note_on_c, 0, 74, 100
2, 43580, Note_on_c, 0, 74, 0
2, 43584, Note_on_c, 0, 72, 100
2, 43772, Note_on_c, 0, 72, 0
2, 43776, Note_on_c, 0, 74, 100
2, 43964, Note_on_c, 0, 74, 0
2, 43968, Note_on_c, 0, 71, 100
2, 44156, Note_on_c, 0, 71, 0
2, 44156, Note_on_c, 0, 65, 0
2, 44160, Note_on_c, 0, 67, 100
2, 44160, Note_on_c, 0, 63, 100
2, 44348, Note_on_c, 0, 67, 0
2, 44352, Note_on_c, 0, 72, 100
2, 44540, Note_on_c, 0, 72, 0
2, 44540, Note_on_c, 0, 63, 0
2, 44928, Note_on_c, 0, 63, 100
2, 45308, Note_on_c, 0, 63, 0
2, 45504, Note_on_c, 0, 63, 100
2, 45692, Note_on_c, 0, 63, 0
2, 45696, Note_on_c, 0, 62, 100
2, 45884, Note_on_c, 0, 62, 0
2, 45888, Note_on_c, 0, 59, 100
2, 46076, Note_on_c, 0, 59, 0
2, 46272, Note_on_c, 0, 59, 100
2, 46400, Note_on_c, 0, 59, 0
2, 46464, Note_on_c, 0, 59, 100
2, 46652, Note_on_c, 0, 59, 0
2, 46656, Note_on_c, 0, 60, 100
2, 46844, Note_on_c, 0, 60, 0
2, 46944, Note_on_c, 0, 60, 100
2, 47036, Note_on_c, 0, 60, 0
2, 47040, Note_on_c, 0, 59, 100
2, 47132, Note_on_c, 0, 59, 0
2, 47136, Note_on_c, 0, 60, 100
2, 47228, Note_on_c, 0, 60, 0
2, 47232, Note_on_c, 0, 62, 100
2, 47324, Note_on_c, 0, 62, 0
2, 47328, Note_on_c, 0, 59, 100
2, 47420, Note_on_c, 0, 59, 0
2, 47424, Note_on_c, 0, 60, 100
2, 47612, Note_on_c, 0, 60, 0
2, 47712, Note_on_c, 0, 60, 100
2, 47804, Note_on_c, 0, 60, 0
2, 47808, Note_on_c, 0, 63, 100
2, 47900, Note_on_c, 0, 63, 0
2, 47904, Note_on_c, 0, 69, 100
2, 47996, Note_on_c, 0, 69, 0
2, 48000, Note_on_c, 0, 72, 100
2, 48572, Note_on_c, 0, 72, 0
2, 48576, Note_on_c, 0, 70, 100
2, 48668, Note_on_c, 0, 70, 0
2, 48672, Note_on_c, 0, 68, 100
2, 48764, Note_on_c, 0, 68, 0
2, 48768, Note_on_c, 0, 67, 100
2, 48860, Note_on_c, 0, 67, 0
2, 48864, Note_on_c, 0, 65, 100
2, 48956, Note_on_c, 0, 65, 0
2, 48960, Note_on_c, 0, 63, 100
2, 49052, Note_on_c, 0, 63, 0
2, 49056, Note_on_c, 0, 62, 100
2, 49244, Note_on_c, 0, 62, 0
2, 49248, Note_on_c, 0, 65, 100
2, 49340, Note_on_c, 0, 65, 0
2, 49344, Note_on_c, 0, 63, 100
2, 49436, Note_on_c, 0, 63, 0
2, 49440, Note_on_c, 0, 62, 100
2, 49532, Note_on_c, 0, 62, 0
2, 49536, Note_on_c, 0, 63, 100
2, 49628, Note_on_c, 0, 63, 0
2, 49632, Note_on_c, 0, 62, 100
2, 49724, Note_on_c, 0, 62, 0
2, 49728, Note_on_c, 0, 60, 100
2, 49820, Note_on_c, 0, 60, 0
2, 49824, Note_on_c, 0, 59, 100
2, 49916, Note_on_c, 0, 59, 0
2, 49920, Note_on_c, 0, 60, 100
2, 50300, Note_on_c, 0, 60, 0
2, 50880, Note_on_c, 0, 67, 100
2, 51068, Note_on_c, 0, 67, 0
2, 51072, Note_on_c, 0, 72, 100
2, 51260, Note_on_c, 0, 72, 0
2, 51264, Note_on_c, 0, 75, 100
2, 51548, Note_on_c, 0, 75, 0
2, 51552, Note_on_c, 0, 74, 100
2, 51644, Note_on_c, 0, 74, 0
2, 51648, Note_on_c, 0, 72, 100
2, 51740, Note_on_c, 0, 72, 0
2, 51744, Note_on_c, 0, 75, 100
2, 51836, Note_on_c, 0, 75, 0
2, 51840, Note_on_c, 0, 74, 100
2, 51932, Note_on_c, 0, 74, 0
2, 51936, Note_on_c, 0, 72, 100
2, 52028, Note_on_c, 0, 72, 0
2, 52032, Note_on_c, 0, 71, 100
2, 52124, Note_on_c, 0, 71, 0
2, 52128, Note_on_c, 0, 69, 100
2, 52220, Note_on_c, 0, 69, 0
2, 52224, Note_on_c, 0, 67, 100
2, 52412, Note_on_c, 0, 67, 0
2, 52416, Note_on_c, 0, 72, 100
2, 52604, Note_on_c, 0, 72, 0
2, 52608, Note_on_c, 0, 75, 100
2, 52796, Note_on_c, 0, 75, 0
2, 52800, Note_on_c, 0, 79, 100
2, 53084, Note_on_c, 0, 79, 0
2, 53088, Note_on_c, 0, 77, 100
2, 53180, Note_on_c, 0, 77, 0
2, 53184, Note_on_c, 0, 75, 100
2, 53276, Note_on_c, 0, 75, 0
2, 53280, Note_on_c, 0, 79, 100
2, 53372, Note_on_c, 0, 79, 0
2, 53376, Note_on_c, 0, 77, 100
2, 53468, Note_on_c, 0, 77, 0
2, 53472, Note_on_c, 0, 75, 100
2, 53564, Note_on_c, 0, 75, 0
2, 53568, Note_on_c, 0, 74, 100
2, 53660, Note_on_c, 0, 74, 0
2, 53664, Note_on_c, 0, 72, 100
2, 53756, Note_on_c, 0, 72, 0
2, 53760, Note_on_c, 0, 71, 100
2, 53852, Note_on_c, 0, 71, 0
2, 53856, Note_on_c, 0, 74, 100
2, 53948, Note_on_c, 0, 74, 0
2, 53952, Note_on_c, 0, 72, 100
2, 54044, Note_on_c, 0, 72, 0
2, 54048, Note_on_c, 0, 74, 100
2, 54140, Note_on_c, 0, 74, 0
2, 54144, Note_on_c, 0, 75, 100
2, 54236, Note_on_c, 0, 75, 0
2, 54240, Note_on_c, 0, 67, 100
2, 54332, Note_on_c, 0, 67, 0
2, 54336, Note_on_c, 0, 65, 100
2, 54428, Note_on_c, 0, 65, 0
2, 54432, Note_on_c, 0, 67, 100
2, 54524, Note_on_c, 0, 67, 0
2, 54528, Note_on_c, 0, 68, 100
2, 54620, Note_on_c, 0, 68, 0
2, 54624, Note_on_c, 0, 76, 100
2, 54716, Note_on_c, 0, 76, 0
2, 54720, Note_on_c, 0, 74, 100
2, 54812, Note_on_c, 0, 74, 0
2, 54816, Note_on_c, 0, 76, 100
2, 54908, Note_on_c, 0, 76, 0
2, 54912, Note_on_c, 0, 77, 100
2, 55004, Note_on_c, 0, 77, 0
2, 55008, Note_on_c, 0, 69, 100
2, 55100, Note_on_c, 0, 69, 0
2, 55104, Note_on_c, 0, 67, 100
2, 55196, Note_on_c, 0, 67, 0
2, 55200, Note_on_c, 0, 69, 100
2, 55292, Note_on_c, 0, 69, 0
2, 55296, Note_on_c, 0, 70, 100
2, 55388, Note_on_c, 0, 70, 0
2, 55392, Note_on_c, 0, 78, 100
2, 55484, Note_on_c, 0, 78, 0
2, 55488, Note_on_c, 0, 76, 100
2, 55580, Note_on_c, 0, 76, 0
2, 55584, Note_on_c, 0, 78, 100
2, 55676, Note_on_c, 0, 78, 0
2, 55680, Note_on_c, 0, 79, 100
2, 55772, Note_on_c, 0, 79, 0
2, 55776, Note_on_c, 0, 71, 100
2, 55868, Note_on_c, 0, 71, 0
2, 55872, Note_on_c, 0, 69, 100
2, 55964, Note_on_c, 0, 69, 0
2, 55968, Note_on_c, 0, 71, 100
2, 56060, Note_on_c, 0, 71, 0
2, 56064, Note_on_c, 0, 72, 100
2, 56156, Note_on_c, 0, 72, 0
2, 56160, Note_on_c, 0, 75, 100
2, 56252, Note_on_c, 0, 75, 0
2, 56256, Note_on_c, 0, 74, 100
2, 56348, Note_on_c, 0, 74, 0
2, 56352, Note_on_c, 0, 72, 100
2, 56444, Note_on_c, 0, 72, 0
2, 56448, Note_on_c, 0, 71, 100
2, 56540, Note_on_c, 0, 71, 0
2, 56544, Note_on_c, 0, 69, 100
2, 56636, Note_on_c, 0, 69, 0
2, 56640, Note_on_c, 0, 67, 100
2, 56732, Note_on_c, 0, 67, 0
2, 56736, Note_on_c, 0, 65, 100
2, 56828, Note_on_c, 0, 65, 0
2, 56832, Note_on_c, 0, 63, 100
2, 56896, Note_on_c, 0, 63, 0
2, 56928, Note_on_c, 0, 67, 100
2, 57020, Note_on_c, 0, 67, 0
2, 57024, Note_on_c, 0, 65, 100
2, 57024, Note_on_c, 0, 75, 100
2, 57116, Note_on_c, 0, 65, 0
2, 57120, Note_on_c, 0, 67, 100
2, 57152, Note_on_c, 0, 75, 0
2, 57212, Note_on_c, 0, 67, 0
2, 57216, Note_on_c, 0, 68, 100
2, 57216, Note_on_c, 0, 75, 100
2, 57308, Note_on_c, 0, 68, 0
2, 57312, Note_on_c, 0, 67, 100
2, 57344, Note_on_c, 0, 75, 0
2, 57404, Note_on_c, 0, 67, 0
2, 57408, Note_on_c, 0, 65, 100
2, 57500, Note_on_c, 0, 65, 0
2, 57504, Note_on_c, 0, 63, 100
2, 57596, Note_on_c, 0, 63, 0
2, 57600, Note_on_c, 0, 62, 100
2, 57692, Note_on_c, 0, 62, 0
2, 57696, Note_on_c, 0, 65, 100
2, 57788, Note_on_c, 0, 65, 0
2, 57792, Note_on_c, 0, 63, 100
2, 57792, Note_on_c, 0, 74, 100
2, 57884, Note_on_c, 0, 63, 0
2, 57888, Note_on_c, 0, 65, 100
2, 57920, Note_on_c, 0, 74, 0
2, 57980, Note_on_c, 0, 65, 0
2, 57984, Note_on_c, 0, 67, 100
2, 57984, Note_on_c, 0, 74, 100
2, 58076, Note_on_c, 0, 67, 0
2, 58080, Note_on_c, 0, 65, 100
2, 58112, Note_on_c, 0, 74, 0
2, 58172, Note_on_c, 0, 65, 0
2, 58176, Note_on_c, 0, 63, 100
2, 58268, Note_on_c, 0, 63, 0
2, 58272, Note_on_c, 0, 62, 100
2, 58364, Note_on_c, 0, 62, 0
2, 58368, Note_on_c, 0, 60, 100
2, 58460, Note_on_c, 0, 60, 0
2, 58464, Note_on_c, 0, 63, 100
2, 58556, Note_on_c, 0, 63, 0
2, 58560, Note_on_c, 0, 62, 100
2, 58560, Note_on_c, 0, 72, 100
2, 58652, Note_on_c, 0, 62, 0
2, 58656, Note_on_c, 0, 63, 100
2, 58688, Note_on_c, 0, 72, 0
2, 58748, Note_on_c, 0, 63, 0
2, 58752, Note_on_c, 0, 66, 100
2, 58752, Note_on_c, 0, 72, 100
2, 58844, Note_on_c, 0, 66, 0
2, 58848, Note_on_c, 0, 63, 100
2, 58880, Note_on_c, 0, 72, 0
2, 58940, Note_on_c, 0, 63, 0
2, 58944, Note_on_c, 0, 62, 100
2, 59036, Note_on_c, 0, 62, 0
2, 59040, Note_on_c, 0, 63, 100
2, 59132, Note_on_c, 0, 63, 0
2, 59136, Note_on_c, 0, 69, 100
2, 59228, Note_on_c, 0, 69, 0
2, 59232, Note_on_c, 0, 63, 100
2, 59324, Note_on_c, 0, 63, 0
2, 59328, Note_on_c, 0, 62, 100
2, 59328, Note_on_c, 0, 72, 100
2, 59420, Note_on_c, 0, 62, 0
2, 59424, Note_on_c, 0, 63, 100
2, 59456, Note_on_c, 0, 72, 0
2, 59516, Note_on_c, 0, 63, 0
2, 59520, Note_on_c, 0, 69, 100
2, 59520, Note_on_c, 0, 72, 100
2, 59612, Note_on_c, 0, 69, 0
2, 59616, Note_on_c, 0, 63, 100
2, 59648, Note_on_c, 0, 72, 0
2, 59708, Note_on_c, 0, 63, 0
2, 59712, Note_on_c, 0, 62, 100
2, 59804, Note_on_c, 0, 62, 0
2, 59808, Note_on_c, 0, 60, 100
2, 59900, Note_on_c, 0, 60, 0
2, 59904, Note_on_c, 0, 58, 100
2, 59996, Note_on_c, 0, 58, 0
2, 60000, Note_on_c, 0, 62, 100
2, 60092, Note_on_c, 0, 62, 0
2, 60096, Note_on_c, 0, 67, 100
2, 60188, Note_on_c, 0, 67, 0
2, 60192, Note_on_c, 0, 70, 100
2, 60284, Note_on_c, 0, 70, 0
2, 60288, Note_on_c, 0, 74, 100
2, 60380, Note_on_c, 0, 74, 0
2, 60384, Note_on_c, 0, 72, 100
2, 60476, Note_on_c, 0, 72, 0
2, 60480, Note_on_c, 0, 70, 100
2, 60668, Note_on_c, 0, 70, 0
2, 60672, Note_on_c, 0, 60, 100
2, 61052, Note_on_c, 0, 60, 0
2, 61056, Note_on_c, 0, 72, 100
2, 61148, Note_on_c, 0, 72, 0
2, 61152, Note_on_c, 0, 70, 100
2, 61244, Note_on_c, 0, 70, 0
2, 61248, Note_on_c, 0, 69, 100
2, 61436, Note_on_c, 0, 69, 0
2, 61440, Note_on_c, 0, 58, 100
2, 61820, Note_on_c, 0, 58, 0
2, 61824, Note_on_c, 0, 70, 100
2, 61916, Note_on_c, 0, 70, 0
2, 61920, Note_on_c, 0, 69, 100
2, 62012, Note_on_c, 0, 69, 0
2, 62016, Note_on_c, 0, 67, 100
2, 62204, Note_on_c, 0, 67, 0
2, 62208, Note_on_c, 0, 57, 100
2, 62588, Note_on_c, 0, 57, 0
2, 62592, Note_on_c, 0, 69, 100
2, 62684, Note_on_c, 0, 69, 0
2, 62688, Note_on_c, 0, 67, 100
2, 62780, Note_on_c, 0, 67, 0
2, 62784, Note_on_c, 0, 66, 100
2, 62972, Note_on_c, 0, 66, 0
2, 63168, Note_on_c, 0, 74, 100
2, 63356, Note_on_c, 0, 74, 0
2, 63360, Note_on_c, 0, 67, 100
2, 63548, Note_on_c, 0, 67, 0
2, 63552, Note_on_c, 0, 70, 100
2, 63740, Note_on_c, 0, 70, 0
2, 63744, Note_on_c, 0, 72, 100
2, 63872, Note_on_c, 0, 72, 0
2, 63936, Note_on_c, 0, 75, 100
2, 64124, Note_on_c, 0, 75, 0
2, 64128, Note_on_c, 0, 69, 100
2, 64316, Note_on_c, 0, 69, 0
2, 64320, Note_on_c, 0, 72, 100
2, 64508, Note_on_c, 0, 72, 0
2, 64512, Note_on_c, 0, 74, 100
2, 64640, Note_on_c, 0, 74, 0
2, 64704, Note_on_c, 0, 77, 100
2, 64892, Note_on_c, 0, 77, 0
2, 64896, Note_on_c, 0, 70, 100
2, 65084, Note_on_c, 0, 70, 0
2, 65088, Note_on_c, 0, 74, 100
2, 65276, Note_on_c, 0, 74, 0
2, 65280, Note_on_c, 0, 75, 100
2, 65408, Note_on_c, 0, 75, 0
2, 65472, Note_on_c, 0, 72, 100
2, 65660, Note_on_c, 0, 72, 0
2, 65664, Note_on_c, 0, 69, 100
2, 65852, Note_on_c, 0, 69, 0
2, 65856, Note_on_c, 0, 78, 100
2, 66044, Note_on_c, 0, 78, 0
2, 66048, Note_on_c, 0, 79, 100
2, 66236, Note_on_c, 0, 79, 0
2, 66240, Note_on_c, 0, 58, 100
2, 66368, Note_on_c, 0, 58, 0
2, 66432, Note_on_c, 0, 58, 100
2, 66560, Note_on_c, 0, 58, 0
2, 66624, Note_on_c, 0, 79, 100
2, 66812, Note_on_c, 0, 79, 0
2, 66816, Note_on_c, 0, 78, 100
2, 67004, Note_on_c, 0, 78, 0
2, 67008, Note_on_c, 0, 57, 100
2, 67136, Note_on_c, 0, 57, 0
2, 67200, Note_on_c, 0, 57, 100
2, 67328, Note_on_c, 0, 57, 0
2, 67392, Note_on_c, 0, 77, 100
2, 67580, Note_on_c, 0, 77, 0
2, 67584, Note_on_c, 0, 77, 100
2, 67712, Note_on_c, 0, 77, 0
2, 67776, Note_on_c, 0, 59, 100
2, 67904, Note_on_c, 0, 59, 0
2, 67968, Note_on_c, 0, 59, 100
2, 68096, Note_on_c, 0, 59, 0
2, 68160, Note_on_c, 0, 74, 100
2, 68348, Note_on_c, 0, 74, 0
2, 68352, Note_on_c, 0, 67, 100
2, 68540, Note_on_c, 0, 67, 0
2, 68544, Note_on_c, 0, 75, 100
2, 68828, Note_on_c, 0, 75, 0
2, 68832, Note_on_c, 0, 74, 100
2, 68924, Note_on_c, 0, 74, 0
2, 68928, Note_on_c, 0, 72, 100
2, 69020, Note_on_c, 0, 72, 0
2, 69024, Note_on_c, 0, 71, 100
2, 69116, Note_on_c, 0, 71, 0
2, 69120, Note_on_c, 0, 72, 100
2, 69312, Note_on_c, 0, 67, 100
2, 69500, Note_on_c, 0, 67, 0
2, 69504, Note_on_c, 0, 65, 100
2, 69692, Note_on_c, 0, 65, 0
2, 69696, Note_on_c, 0, 67, 100
2, 69884, Note_on_c, 0, 67, 0
2, 69888, Note_on_c, 0, 68, 100
2, 70016, Note_on_c, 0, 68, 0
2, 70076, Note_on_c, 0, 72, 0
2, 70080, Note_on_c, 0, 72, 100
2, 70080, Note_on_c, 0, 69, 100
2, 70268, Note_on_c, 0, 69, 0
2, 70268, Note_on_c, 0, 72, 0
2, 70272, Note_on_c, 0, 70, 100
2, 70272, Note_on_c, 0, 67, 100
2, 70460, Note_on_c, 0, 67, 0
2, 70460, Note_on_c, 0, 70, 0
2, 70464, Note_on_c, 0, 72, 100
2, 70464, Note_on_c, 0, 69, 100
2, 70652, Note_on_c, 0, 69, 0
2, 70652, Note_on_c, 0, 72, 0
2, 70656, Note_on_c, 0, 73, 100
2, 70656, Note_on_c, 0, 70, 100
2, 70844, Note_on_c, 0, 70, 0
2, 70844, Note_on_c, 0, 73, 0
2, 70848, Note_on_c, 0, 74, 100
2, 70848, Note_on_c, 0, 71, 100
2, 71036, Note_on_c, 0, 71, 0
2, 71036, Note_on_c, 0, 74, 0
2, 71040, Note_on_c, 0, 72, 100
2, 71040, Note_on_c, 0, 68, 100
2, 71228, Note_on_c, 0, 68, 0
2, 71228, Note_on_c, 0, 72, 0
2, 71232, Note_on_c, 0, 74, 100
2, 71232, Note_on_c, 0, 71, 100
2, 71420, Note_on_c, 0, 71, 0
2, 71420, Note_on_c, 0, 74, 0
2, 71424, Note_on_c, 0, 75, 100
2, 71424, Note_on_c, 0, 72, 100
2, 71616, Note_on_c, 0, 67, 100
2, 71804, Note_on_c, 0, 67, 0
2, 71804, Note_on_c, 0, 72, 0
2, 71804, Note_on_c, 0, 75, 0
2, 71808, Note_on_c, 0, 74, 100
2, 71808, Note_on_c, 0, 71, 100
2, 72000, Note_on_c, 0, 65, 100
2, 72188, Note_on_c, 0, 65, 0
2, 72188, Note_on_c, 0, 71, 0
2, 72188, Note_on_c, 0, 74, 0
2, 72192, Note_on_c, 0, 63, 100
2, 72192, Note_on_c, 0, 72, 100
2, 72284, Note_on_c, 0, 72, 0
2, 72288, Note_on_c, 0, 75, 100
2, 72380, Note_on_c, 0, 75, 0
2, 72384, Note_on_c, 0, 77, 100
2, 72476, Note_on_c, 0, 77, 0
2, 72480, Note_on_c, 0, 79, 100
2, 72572, Note_on_c, 0, 79, 0
2, 72572, Note_on_c, 0, 63, 0
2, 72576, Note_on_c, 0, 80, 100
2, 72576, Note_on_c, 0, 72, 100
2, 72668, Note_on_c, 0, 80, 0
2, 72672, Note_on_c, 0, 79, 100
2, 72764, Note_on_c, 0, 79, 0
2, 72768, Note_on_c, 0, 77, 100
2, 72860, Note_on_c, 0, 77, 0
2, 72864, Note_on_c, 0, 75, 100
2, 72956, Note_on_c, 0, 75, 0
2, 72960, Note_on_c, 0, 74, 100
2, 73052, Note_on_c, 0, 74, 0
2, 73056, Note_on_c, 0, 75, 100
2, 73148, Note_on_c, 0, 75, 0
2, 73148, Note_on_c, 0, 72, 0
2, 73152, Note_on_c, 0, 77, 100
2, 73152, Note_on_c, 0, 70, 100
2, 73244, Note_on_c, 0, 77, 0
2, 73248, Note_on_c, 0, 75, 100
2, 73340, Note_on_c, 0, 75, 0
2, 73340, Note_on_c, 0, 70, 0
2, 73344, Note_on_c, 0, 74, 100
2, 73344, Note_on_c, 0, 65, 100
2, 73436, Note_on_c, 0, 74, 0
2, 73440, Note_on_c, 0, 72, 100
2, 73532, Note_on_c, 0, 72, 0
2, 73532, Note_on_c, 0, 65, 0
2, 73536, Note_on_c, 0, 70, 100
2, 73536, Note_on_c, 0, 62, 100
2, 73628, Note_on_c, 0, 70, 0
2, 73632, Note_on_c, 0, 68, 100
2, 73724, Note_on_c, 0, 68, 0
2, 73724, Note_on_c, 0, 62, 0
2, 73728, Note_on_c, 0, 67, 100
2, 73820, Note_on_c, 0, 67, 0
2, 73824, Note_on_c, 0, 74, 100
2, 73916, Note_on_c, 0, 74, 0
2, 73920, Note_on_c, 0, 75, 100
2, 74012, Note_on_c, 0, 75, 0
2, 74016, Note_on_c, 0, 77, 100
2, 74108, Note_on_c, 0, 77, 0
2, 74112, Note_on_c, 0, 79, 100
2, 74112, Note_on_c, 0, 67, 100
2, 74204, Note_on_c, 0, 79, 0
2, 74208, Note_on_c, 0, 77, 100
2, 74300, Note_on_c, 0, 77, 0
2, 74304, Note_on_c, 0, 75, 100
2, 74396, Note_on_c, 0, 75, 0
2, 74400, Note_on_c, 0, 74, 100
2, 74492, Note_on_c, 0, 74, 0
2, 74492, Note_on_c, 0, 67, 0
2, 74496, Note_on_c, 0, 68, 100
2, 74496, Note_on_c, 0, 71, 100
2, 74588, Note_on_c, 0, 71, 0
2, 74592, Note_on_c, 0, 72, 100
2, 74684, Note_on_c, 0, 72, 0
2, 74684, Note_on_c, 0, 68, 0
2, 74688, Note_on_c, 0, 74, 100
2, 74780, Note_on_c, 0, 74, 0
2, 74784, Note_on_c, 0, 75, 100
2, 74876, Note_on_c, 0, 75, 0
2, 74880, Note_on_c, 0, 72, 100
2, 74880, Note_on_c, 0, 77, 100
2, 74972, Note_on_c, 0, 77, 0
2, 74976, Note_on_c, 0, 75, 100
2, 75068, Note_on_c, 0, 75, 0
2, 75068, Note_on_c, 0, 72, 0
2, 75072, Note_on_c, 0, 74, 100
2, 75164, Note_on_c, 0, 74, 0
2, 75168, Note_on_c, 0, 72, 100
2, 75260, Note_on_c, 0, 72, 0
2, 75264, Note_on_c, 0, 71, 100
2, 75264, Note_on_c, 0, 79, 100
2, 75392, Note_on_c, 0, 79, 0
2, 75456, Note_on_c, 0, 67, 100
2, 75644, Note_on_c, 0, 67, 0
2, 75644, Note_on_c, 0, 71, 0
2, 75648, Note_on_c, 0, 65, 100
2, 75836, Note_on_c, 0, 65, 0
2, 75840, Note_on_c, 0, 67, 100
2, 76028, Note_on_c, 0, 67, 0
2, 76032, Note_on_c, 0, 68, 100
2, 76160, Note_on_c, 0, 68, 0
2, 76224, Note_on_c, 0, 69, 100
2, 76412, Note_on_c, 0, 69, 0
2, 76416, Note_on_c, 0, 67, 100
2, 76604, Note_on_c, 0, 67, 0
2, 76608, Note_on_c, 0, 69, 100
2, 76796, Note_on_c, 0, 69, 0
2, 76800, Note_on_c, 0, 70, 100
2, 76928, Note_on_c, 0, 70, 0
2, 76992, Note_on_c, 0, 71, 100
2, 77180, Note_on_c, 0, 71, 0
2, 77184, Note_on_c, 0, 69, 100
2, 77372, Note_on_c, 0, 69, 0
2, 77376, Note_on_c, 0, 71, 100
2, 77564, Note_on_c, 0, 71, 0
2, 77568, Note_on_c, 0, 72, 100
2, 77696, Note_on_c, 0, 72, 0
2, 77760, Note_on_c, 0, 67, 100
2, 77888, Note_on_c, 0, 67, 0
2, 77952, Note_on_c, 0, 74, 100
2, 78080, Note_on_c, 0, 74, 0
2, 78144, Note_on_c, 0, 65, 100
2, 78272, Note_on_c, 0, 65, 0
2, 78336, Note_on_c, 0, 63, 100
2, 78592, Note_on_c, 0, 63, 0
2, 78720, Note_on_c, 0, 68, 100
2, 79292, Note_on_c, 0, 68, 0
2, 79296, Note_on_c, 0, 67, 100
2, 79484, Note_on_c, 0, 67, 0
2, 79488, Note_on_c, 0, 70, 100
2, 80060, Note_on_c, 0, 70, 0
2, 80064, Note_on_c, 0, 69, 100
2, 80192, Note_on_c, 0, 69, 0
2, 80256, Note_on_c, 0, 72, 100
2, 80636, Note_on_c, 0, 72, 0
2, 80640, Note_on_c, 0, 70, 100
2, 80640, Note_on_c, 0, 67, 100
2, 80768, Note_on_c, 0, 67, 0
2, 81020, Note_on_c, 0, 70, 0
2, 81024, Note_on_c, 0, 65, 100
2, 81024, Note_on_c, 0, 69, 100
2, 81152, Note_on_c, 0, 69, 0
2, 81404, Note_on_c, 0, 65, 0
2, 81408, Note_on_c, 0, 67, 100
2, 81408, Note_on_c, 0, 58, 100
2, 81788, Note_on_c, 0, 58, 0
2, 81788, Note_on_c, 0, 67, 0
2, 81792, Note_on_c, 0, 70, 100
2, 81792, Note_on_c, 0, 61, 100
2, 82172, Note_on_c, 0, 70, 0
2, 82176, Note_on_c, 0, 63, 100
2, 82364, Note_on_c, 0, 61, 0
2, 82368, Note_on_c, 0, 60, 100
2, 82556, Note_on_c, 0, 60, 0
2, 82556, Note_on_c, 0, 63, 0
2, 82560, Note_on_c, 0, 72, 100
2, 82560, Note_on_c, 0, 63, 100
2, 82940, Note_on_c, 0, 72, 0
2, 82944, Note_on_c, 0, 65, 100
2, 83132, Note_on_c, 0, 63, 0
2, 83136, Note_on_c, 0, 62, 100
2, 83324, Note_on_c, 0, 62, 0
2, 83324, Note_on_c, 0, 65, 0
2, 83328, Note_on_c, 0, 74, 100
2, 83328, Note_on_c, 0, 65, 100
2, 83708, Note_on_c, 0, 65, 0
2, 83712, Note_on_c, 0, 63, 100
2, 83900, Note_on_c, 0, 74, 0
2, 83904, Note_on_c, 0, 72, 100
2, 84092, Note_on_c, 0, 63, 0
2, 84096, Note_on_c, 0, 65, 100
2, 84284, Note_on_c, 0, 65, 0
2, 84284, Note_on_c, 0, 72, 0
2, 84288, Note_on_c, 0, 71, 100
2, 84288, Note_on_c, 0, 68, 100
2, 84476, Note_on_c, 0, 68, 0
2, 84476, Note_on_c, 0, 71, 0
2, 84480, Note_on_c, 0, 72, 100
2, 84480, Note_on_c, 0, 67, 100
2, 84860, Note_on_c, 0, 67, 0
2, 84860, Note_on_c, 0, 72, 0
2, 84864, Note_on_c, 0, 73, 100
2, 84864, Note_on_c, 0, 64, 100
2, 85244, Note_on_c, 0, 64, 0
2, 85244, Note_on_c, 0, 73, 0
2, 85248, Note_on_c, 0, 71, 100
2, 85248, Note_on_c, 0, 65, 100
2, 85628, Note_on_c, 0, 65, 0
2, 85628, Note_on_c, 0, 71, 0
2, 85632, Note_on_c, 0, 70, 100
2, 85632, Note_on_c, 0, 67, 100
2, 86012, Note_on_c, 0, 67, 0
2, 86012, Note_on_c, 0, 70, 0
2, 86016, Note_on_c, 0, 68, 100
2, 86272, Note_on_c, 0, 68, 0
2, 86400, Note_on_c, 0, 75, 100
2, 86400, Note_on_c, 0, 66, 100
2, 86780, Note_on_c, 0, 66, 0
2, 86780, Note_on_c, 0, 75, 0
2, 86784, Note_on_c, 0, 73, 100
2, 86784, Note_on_c, 0, 67, 100
2, 87164, Note_on_c, 0, 67, 0
2, 87164, Note_on_c, 0, 73, 0
2, 87168, Note_on_c, 0, 72, 100
2, 87168, Note_on_c, 0, 69, 100
2, 87548, Note_on_c, 0, 69, 0
2, 87548, Note_on_c, 0, 72, 0
2, 87552, Note_on_c, 0, 71, 100
2, 87680, Note_on_c, 0, 71, 0
2, 87744, Note_on_c, 0, 79, 100
2, 87932, Note_on_c, 0, 79, 0
2, 87936, Note_on_c, 0, 77, 100
2, 87936, Note_on_c, 0, 74, 100
2, 88124, Note_on_c, 0, 77, 0
2, 88128, Note_on_c, 0, 79, 100
2, 88316, Note_on_c, 0, 79, 0
2, 88316, Note_on_c, 0, 74, 0
2, 88320, Note_on_c, 0, 80, 100
2, 88320, Note_on_c, 0, 75, 100
2, 88448, Note_on_c, 0, 80, 0
2, 88512, Note_on_c, 0, 81, 100
2, 88700, Note_on_c, 0, 81, 0
2, 88700, Note_on_c, 0, 75, 0
2, 88704, Note_on_c, 0, 65, 100
2, 88704, Note_on_c, 0, 79, 100
2, 88892, Note_on_c, 0, 79, 0
2, 88896, Note_on_c, 0, 81, 100
2, 89084, Note_on_c, 0, 81, 0
2, 89084, Note_on_c, 0, 65, 0
2, 89088, Note_on_c, 0, 82, 100
2, 89088, Note_on_c, 0, 67, 100
2, 89216, Note_on_c, 0, 82, 0
2, 89280, Note_on_c, 0, 83, 100
2, 89468, Note_on_c, 0, 83, 0
2, 89468, Note_on_c, 0, 67, 0
2, 89472, Note_on_c, 0, 81, 100
2, 89472, Note_on_c, 0, 74, 100
2, 89660, Note_on_c, 0, 81, 0
2, 89664, Note_on_c, 0, 83, 100
2, 89852, Note_on_c, 0, 83, 0
2, 89852, Note_on_c, 0, 74, 0
2, 89856, Note_on_c, 0, 84, 100
2, 89856, Note_on_c, 0, 72, 100
2, 90044, Note_on_c, 0, 84, 0
2, 90048, Note_on_c, 0, 79, 100
2, 90236, Note_on_c, 0, 79, 0
2, 90240, Note_on_c, 0, 86, 100
2, 90428, Note_on_c, 0, 86, 0
2, 90428, Note_on_c, 0, 72, 0
2, 90432, Note_on_c, 0, 77, 100
2, 90432, Note_on_c, 0, 71, 100
2, 90620, Note_on_c, 0, 71, 0
2, 90620, Note_on_c, 0, 77, 0
2, 90624, Note_on_c, 0, 75, 100
2, 90624, Note_on_c, 0, 72, 100
2, 91004, Note_on_c, 0, 72, 0
2, 91004, Note_on_c, 0, 75, 0
2, 91296, Note_on_c, 0, 84, 100
2, 91296, Note_on_c, 0, 75, 100
2, 91388, Note_on_c, 0, 75, 0
2, 91388, Note_on_c, 0, 84, 0
2, 91392, Note_on_c, 0, 84, 100
2, 91392, Note_on_c, 0, 75, 100
2, 91964, Note_on_c, 0, 75, 0
2, 91964, Note_on_c, 0, 84, 0
2, 92064, Note_on_c, 0, 75, 100
2, 92064, Note_on_c, 0, 72, 100
2, 92156, Note_on_c, 0, 72, 0
2, 92156, Note_on_c, 0, 75, 0
2, 92160, Note_on_c, 0, 75, 100
2, 92160, Note_on_c, 0, 68, 100
2, 92540, Note_on_c, 0, 68, 0
2, 92544, Note_on_c, 0, 72, 100
2, 92924, Note_on_c, 0, 72, 0
2, 92924, Note_on_c, 0, 75, 0
2, 92928, Note_on_c, 0, 74, 100
2, 92928, Note_on_c, 0, 71, 100
2, 93308, Note_on_c, 0, 71, 0
2, 93312, Note_on_c, 0, 65, 100
2, 93692, Note_on_c, 0, 65, 0
2, 93692, Note_on_c, 0, 74, 0
2, 93696, Note_on_c, 0, 65, 100
2, 93696, Note_on_c, 0, 72, 100
2, 94076, Note_on_c, 0, 65, 0
2, 94080, Note_on_c, 0, 64, 100
2, 94268, Note_on_c, 0, 64, 0
2, 94272, Note_on_c, 0, 62, 100
2, 94460, Note_on_c, 0, 62, 0
2, 94464, Note_on_c, 0, 64, 100
2, 95996, Note_on_c, 0, 64, 0
2, 95996, Note_on_c, 0, 72, 0
2, 95996, End_track
3, 0, Start_track
3, 0, MIDI_port, 0
3, 0, Title_t, "Completed & sequenced by T.L. Hubeart Jr."
3, 0, Control_c, 1, 0, 0
3, 0, Control_c, 1, 32, 0
3, 0, Program_c, 1, 6
3, 0, Control_c, 1, 7, 100
3, 0, Control_c, 1, 10, 74
3, 3264, Note_on_c, 1, 62, 100
3, 3452, Note_on_c, 1, 62, 0
3, 3456, Note_on_c, 1, 60, 100
3, 3644, Note_on_c, 1, 60, 0
3, 3648, Note_on_c, 1, 62, 100
3, 3836, Note_on_c, 1, 62, 0
3, 3840, Note_on_c, 1, 63, 100
3, 3968, Note_on_c, 1, 63, 0
3, 4032, Note_on_c, 1, 64, 100
3, 4220, Note_on_c, 1, 64, 0
3, 4224, Note_on_c, 1, 62, 100
3, 4412, Note_on_c, 1, 62, 0
3, 4416, Note_on_c, 1, 64, 100
3, 4604, Note_on_c, 1, 64, 0
3, 4608, Note_on_c, 1, 65, 100
3, 4736, Note_on_c, 1, 65, 0
3, 4800, Note_on_c, 1, 66, 100
3, 4988, Note_on_c, 1, 66, 0
3, 4992, Note_on_c, 1, 64, 100
3, 5180, Note_on_c, 1, 64, 0
3, 5184, Note_on_c, 1, 66, 100
3, 5372, Note_on_c, 1, 66, 0
3, 5568, Note_on_c, 1, 62, 100
3, 5696, Note_on_c, 1, 62, 0
3, 5952, Note_on_c, 1, 60, 100
3, 6080, Note_on_c, 1, 60, 0
3, 6336, Note_on_c, 1, 55, 100
3, 6524, Note_on_c, 1, 55, 0
3, 6528, Note_on_c, 1, 53, 100
3, 6716, Note_on_c, 1, 53, 0
3, 6720, Note_on_c, 1, 55, 100
3, 6908, Note_on_c, 1, 55, 0
3, 6912, Note_on_c, 1, 56, 100
3, 7040, Note_on_c, 1, 56, 0
3, 7104, Note_on_c, 1, 57, 100
3, 7292, Note_on_c, 1, 57, 0
3, 7296, Note_on_c, 1, 55, 100
3, 7484, Note_on_c, 1, 55, 0
3, 7488, Note_on_c, 1, 57, 100
3, 7676, Note_on_c, 1, 57, 0
3, 7680, Note_on_c, 1, 58, 100
3, 7808, Note_on_c, 1, 58, 0
3, 7872, Note_on_c, 1, 59, 100
3, 8060, Note_on_c, 1, 59, 0
3, 8064, Note_on_c, 1, 57, 100
3, 8252, Note_on_c, 1, 57, 0
3, 8256, Note_on_c, 1, 59, 100
3, 8444, Note_on_c, 1, 59, 0
3, 8448, Note_on_c, 1, 60, 100
3, 8576, Note_on_c, 1, 60, 0
3, 8640, Note_on_c, 1, 55, 100
3, 8768, Note_on_c, 1, 55, 0
3, 8832, Note_on_c, 1, 62, 100
3, 8960, Note_on_c, 1, 62, 0
3, 9024, Note_on_c, 1, 53, 100
3, 9152, Note_on_c, 1, 53, 0
3, 9216, Note_on_c, 1, 51, 100
3, 9344, Note_on_c, 1, 51, 0
3, 9408, Note_on_c, 1, 60, 100
3, 9596, Note_on_c, 1, 60, 0
3, 9600, Note_on_c, 1, 58, 100
3, 9788, Note_on_c, 1, 58, 0
3, 9792, Note_on_c, 1, 60, 100
3, 9980, Note_on_c, 1, 60, 0
3, 9984, Note_on_c, 1, 62, 100
3, 10112, Note_on_c, 1, 62, 0
3, 10176, Note_on_c, 1, 56, 100
3, 10304, Note_on_c, 1, 56, 0
3, 10368, Note_on_c, 1, 64, 100
3, 10496, Note_on_c, 1, 64, 0
3, 10560, Note_on_c, 1, 55, 100
3, 10688, Note_on_c, 1, 55, 0
3, 10752, Note_on_c, 1, 53, 100
3, 10880, Note_on_c, 1, 53, 0
3, 10944, Note_on_c, 1, 62, 100
3, 11132, Note_on_c, 1, 62, 0
3, 11136, Note_on_c, 1, 60, 100
3, 11324, Note_on_c, 1, 60, 0
3, 11328, Note_on_c, 1, 62, 100
3, 11516, Note_on_c, 1, 62, 0
3, 11520, Note_on_c, 1, 64, 100
3, 11648, Note_on_c, 1, 64, 0
3, 11712, Note_on_c, 1, 58, 100
3, 11840, Note_on_c, 1, 58, 0
3, 11904, Note_on_c, 1, 66, 100
3, 12032, Note_on_c, 1, 66, 0
3, 12096, Note_on_c, 1, 57, 100
3, 12224, Note_on_c, 1, 57, 0
3, 12288, Note_on_c, 1, 55, 100
3, 12668, Note_on_c, 1, 55, 0
3, 12672, Note_on_c, 1, 59, 100
3, 13052, Note_on_c, 1, 59, 0
3, 13056, Note_on_c, 1, 60, 100
3, 13436, Note_on_c, 1, 60, 0
3, 13440, Note_on_c, 1, 61, 100
3, 13820, Note_on_c, 1, 61, 0
3, 13824, Note_on_c, 1, 62, 100
3, 14080, Note_on_c, 1, 62, 0
3, 14208, Note_on_c, 1, 62, 100
3, 14588, Note_on_c, 1, 62, 0
3, 14592, Note_on_c, 1, 63, 100
3, 14972, Note_on_c, 1, 63, 0
3, 14976, Note_on_c, 1, 66, 100
3, 15356, Note_on_c, 1, 66, 0
3, 15744, Note_on_c, 1, 59, 100
3, 16124, Note_on_c, 1, 59, 0
3, 16128, Note_on_c, 1, 60, 100
3, 16508, Note_on_c, 1, 60, 0
3, 16512, Note_on_c, 1, 62, 100
3, 16892, Note_on_c, 1, 62, 0
3, 16896, Note_on_c, 1, 63, 100
3, 17088, Note_on_c, 1, 72, 100
3, 17276, Note_on_c, 1, 72, 0
3, 17276, Note_on_c, 1, 63, 0
3, 17280, Note_on_c, 1, 61, 100
3, 17660, Note_on_c, 1, 61, 0
3, 17664, Note_on_c, 1, 59, 100
3, 18044, Note_on_c, 1, 59, 0
3, 18048, Note_on_c, 1, 58, 100
3, 18428, Note_on_c, 1, 58, 0
3, 18432, Note_on_c, 1, 56, 100
3, 18620, Note_on_c, 1, 56, 0
3, 18624, Note_on_c, 1, 65, 100
3, 18812, Note_on_c, 1, 65, 0
3, 18816, Note_on_c, 1, 63, 100
3, 19004, Note_on_c, 1, 63, 0
3, 19008, Note_on_c, 1, 65, 100
3, 19196, Note_on_c, 1, 65, 0
3, 19392, Note_on_c, 1, 61, 100
3, 19520, Note_on_c, 1, 61, 0
3, 19776, Note_on_c, 1, 60, 100
3, 19904, Note_on_c, 1, 60, 0
3, 19968, Note_on_c, 1, 58, 100
3, 20156, Note_on_c, 1, 58, 0
3, 20160, Note_on_c, 1, 62, 100
3, 20348, Note_on_c, 1, 62, 0
3, 20352, Note_on_c, 1, 60, 100
3, 20540, Note_on_c, 1, 60, 0
3, 20544, Note_on_c, 1, 62, 100
3, 20732, Note_on_c, 1, 62, 0
3, 20736, Note_on_c, 1, 64, 100
3, 20864, Note_on_c, 1, 64, 0
3, 20928, Note_on_c, 1, 58, 100
3, 21056, Note_on_c, 1, 58, 0
3, 21120, Note_on_c, 1, 66, 100
3, 21248, Note_on_c, 1, 66, 0
3, 21312, Note_on_c, 1, 57, 100
3, 21440, Note_on_c, 1, 57, 0
3, 21504, Note_on_c, 1, 55, 100
3, 21884, Note_on_c, 1, 55, 0
3, 23424, Note_on_c, 1, 61, 100
3, 23424, Note_on_c, 1, 64, 100
3, 23680, Note_on_c, 1, 64, 0
3, 23680, Note_on_c, 1, 61, 0
3, 23808, Note_on_c, 1, 59, 100
3, 23808, Note_on_c, 1, 65, 100
3, 24064, Note_on_c, 1, 65, 0
3, 24064, Note_on_c, 1, 59, 0
3, 24192, Note_on_c, 1, 58, 100
3, 24192, Note_on_c, 1, 67, 100
3, 24448, Note_on_c, 1, 67, 0
3, 24448, Note_on_c, 1, 58, 0
3, 24576, Note_on_c, 1, 56, 100
3, 24764, Note_on_c, 1, 56, 0
3, 24768, Note_on_c, 1, 55, 100
3, 24956, Note_on_c, 1, 55, 0
3, 24960, Note_on_c, 1, 53, 100
3, 25148, Note_on_c, 1, 53, 0
3, 25152, Note_on_c, 1, 55, 100
3, 25340, Note_on_c, 1, 55, 0
3, 25344, Note_on_c, 1, 56, 100
3, 25472, Note_on_c, 1, 56, 0
3, 25536, Note_on_c, 1, 57, 100
3, 25724, Note_on_c, 1, 57, 0
3, 25728, Note_on_c, 1, 55, 100
3, 25916, Note_on_c, 1, 55, 0
3, 25920, Note_on_c, 1, 57, 100
3, 26108, Note_on_c, 1, 57, 0
3, 26112, Note_on_c, 1, 58, 100
3, 26240, Note_on_c, 1, 58, 0
3, 26304, Note_on_c, 1, 59, 100
3, 26492, Note_on_c, 1, 59, 0
3, 26496, Note_on_c, 1, 57, 100
3, 26684, Note_on_c, 1, 57, 0
3, 26688, Note_on_c, 1, 59, 100
3, 26876, Note_on_c, 1, 59, 0
3, 26880, Note_on_c, 1, 60, 100
3, 27068, Note_on_c, 1, 60, 0
3, 27072, Note_on_c, 1, 55, 100
3, 27200, Note_on_c, 1, 55, 0
3, 27264, Note_on_c, 1, 62, 100
3, 27452, Note_on_c, 1, 62, 0
3, 27456, Note_on_c, 1, 53, 100
3, 27584, Note_on_c, 1, 53, 0
3, 27648, Note_on_c, 1, 51, 100
3, 27904, Note_on_c, 1, 51, 0
3, 28032, Note_on_c, 1, 56, 100
3, 28604, Note_on_c, 1, 56, 0
3, 28608, Note_on_c, 1, 55, 100
3, 28796, Note_on_c, 1, 55, 0
3, 28800, Note_on_c, 1, 58, 100
3, 29312, Note_on_c, 1, 58, 0
3, 29376, Note_on_c, 1, 57, 100
3, 29504, Note_on_c, 1, 57, 0
3, 29568, Note_on_c, 1, 60, 100
3, 30140, Note_on_c, 1, 60, 0
3, 30144, Note_on_c, 1, 58, 100
3, 30236, Note_on_c, 1, 58, 0
3, 30240, Note_on_c, 1, 57, 100
3, 30332, Note_on_c, 1, 57, 0
3, 30336, Note_on_c, 1, 55, 100
3, 30524, Note_on_c, 1, 55, 0
3, 30528, Note_on_c, 1, 54, 100
3, 30716, Note_on_c, 1, 54, 0
3, 30720, Note_on_c, 1, 55, 100
3, 31676, Note_on_c, 1, 55, 0
3, 31680, Note_on_c, 1, 53, 100
3, 31868, Note_on_c, 1, 53, 0
3, 31872, Note_on_c, 1, 51, 100
3, 32060, Note_on_c, 1, 51, 0
3, 32064, Note_on_c, 1, 53, 100
3, 32252, Note_on_c, 1, 53, 0
3, 32256, Note_on_c, 1, 50, 100
3, 33212, Note_on_c, 1, 50, 0
3, 33216, Note_on_c, 1, 48, 100
3, 33596, Note_on_c, 1, 48, 0
3, 33600, Note_on_c, 1, 47, 100
3, 33788, Note_on_c, 1, 47, 0
3, 33792, Note_on_c, 1, 60, 100
3, 33792, Note_on_c, 1, 48, 100
3, 33920, Note_on_c, 1, 60, 0
3, 33984, Note_on_c, 1, 51, 100
3, 34172, Note_on_c, 1, 51, 0
3, 34176, Note_on_c, 1, 50, 100
3, 34364, Note_on_c, 1, 50, 0
3, 34368, Note_on_c, 1, 51, 100
3, 34556, Note_on_c, 1, 51, 0
3, 34560, Note_on_c, 1, 53, 100
3, 34940, Note_on_c, 1, 53, 0
3, 34940, Note_on_c, 1, 48, 0
3, 34944, Note_on_c, 1, 46, 100
3, 34944, Note_on_c, 1, 55, 100
3, 35324, Note_on_c, 1, 46, 0
3, 35328, Note_on_c, 1, 44, 100
3, 35516, Note_on_c, 1, 55, 0
3, 35520, Note_on_c, 1, 48, 100
3, 35708, Note_on_c, 1, 48, 0
3, 35712, Note_on_c, 1, 47, 100
3, 35900, Note_on_c, 1, 47, 0
3, 35904, Note_on_c, 1, 48, 100
3, 36092, Note_on_c, 1, 48, 0
3, 36096, Note_on_c, 1, 50, 100
3, 36476, Note_on_c, 1, 50, 0
3, 36476, Note_on_c, 1, 44, 0
3, 36480, Note_on_c, 1, 43, 100
3, 36480, Note_on_c, 1, 52, 100
3, 36860, Note_on_c, 1, 52, 0
3, 36860, Note_on_c, 1, 43, 0
3, 36864, Note_on_c, 1, 53, 100
3, 36864, Note_on_c, 1, 41, 100
3, 37244, Note_on_c, 1, 41, 0
3, 37244, Note_on_c, 1, 53, 0
3, 38016, Note_on_c, 1, 56, 100
3, 38492, Note_on_c, 1, 56, 0
3, 38496, Note_on_c, 1, 58, 100
3, 38588, Note_on_c, 1, 58, 0
3, 38592, Note_on_c, 1, 56, 100
3, 38684, Note_on_c, 1, 56, 0
3, 38688, Note_on_c, 1, 55, 100
3, 38780, Note_on_c, 1, 55, 0
3, 38784, Note_on_c, 1, 53, 100
3, 38876, Note_on_c, 1, 53, 0
3, 38880, Note_on_c, 1, 51, 100
3, 38972, Note_on_c, 1, 51, 0
3, 38976, Note_on_c, 1, 50, 100
3, 39068, Note_on_c, 1, 50, 0
3, 39072, Note_on_c, 1, 48, 100
3, 39164, Note_on_c, 1, 48, 0
3, 39168, Note_on_c, 1, 47, 100
3, 39548, Note_on_c, 1, 47, 0
3, 39552, Note_on_c, 1, 59, 100
3, 39932, Note_on_c, 1, 59, 0
3, 39936, Note_on_c, 1, 60, 100
3, 40316, Note_on_c, 1, 60, 0
3, 40416, Note_on_c, 1, 59, 100
3, 40508, Note_on_c, 1, 59, 0
3, 40512, Note_on_c, 1, 60, 100
3, 40604, Note_on_c, 1, 60, 0
3, 40608, Note_on_c, 1, 62, 100
3, 40700, Note_on_c, 1, 62, 0
3, 40704, Note_on_c, 1, 63, 100
3, 40796, Note_on_c, 1, 63, 0
3, 40800, Note_on_c, 1, 62, 100
3, 40892, Note_on_c, 1, 62, 0
3, 40896, Note_on_c, 1, 60, 100
3, 40988, Note_on_c, 1, 60, 0
3, 40992, Note_on_c, 1, 62, 100
3, 41084, Note_on_c, 1, 62, 0
3, 41088, Note_on_c, 1, 63, 100
3, 41180, Note_on_c, 1, 63, 0
3, 41184, Note_on_c, 1, 60, 100
3, 41276, Note_on_c, 1, 60, 0
3, 41280, Note_on_c, 1, 62, 100
3, 41372, Note_on_c, 1, 62, 0
3, 41376, Note_on_c, 1, 63, 100
3, 41468, Note_on_c, 1, 63, 0
3, 41472, Note_on_c, 1, 65, 100
3, 41564, Note_on_c, 1, 65, 0
3, 41568, Note_on_c, 1, 67, 100
3, 41660, Note_on_c, 1, 67, 0
3, 41664, Note_on_c, 1, 65, 100
3, 41756, Note_on_c, 1, 65, 0
3, 41760, Note_on_c, 1, 63, 100
3, 41852, Note_on_c, 1, 63, 0
3, 41856, Note_on_c, 1, 62, 100
3, 41948, Note_on_c, 1, 62, 0
3, 41952, Note_on_c, 1, 60, 100
3, 42044, Note_on_c, 1, 60, 0
3, 42048, Note_on_c, 1, 59, 100
3, 42140, Note_on_c, 1, 59, 0
3, 42144, Note_on_c, 1, 57, 100
3, 42236, Note_on_c, 1, 57, 0
3, 42240, Note_on_c, 1, 59, 100
3, 42332, Note_on_c, 1, 59, 0
3, 42336, Note_on_c, 1, 55, 100
3, 42428, Note_on_c, 1, 55, 0
3, 42432, Note_on_c, 1, 57, 100
3, 42524, Note_on_c, 1, 57, 0
3, 42528, Note_on_c, 1, 59, 100
3, 42620, Note_on_c, 1, 59, 0
3, 42624, Note_on_c, 1, 60, 100
3, 42716, Note_on_c, 1, 60, 0
3, 42720, Note_on_c, 1, 58, 100
3, 42812, Note_on_c, 1, 58, 0
3, 42816, Note_on_c, 1, 56, 100
3, 42908, Note_on_c, 1, 56, 0
3, 42912, Note_on_c, 1, 55, 100
3, 43004, Note_on_c, 1, 55, 0
3, 43008, Note_on_c, 1, 56, 100
3, 43100, Note_on_c, 1, 56, 0
3, 43104, Note_on_c, 1, 58, 100
3, 43196, Note_on_c, 1, 58, 0
3, 43200, Note_on_c, 1, 56, 100
3, 43292, Note_on_c, 1, 56, 0
3, 43296, Note_on_c, 1, 55, 100
3, 43388, Note_on_c, 1, 55, 0
3, 43392, Note_on_c, 1, 53, 100
3, 43484, Note_on_c, 1, 53, 0
3, 43488, Note_on_c, 1, 51, 100
3, 43580, Note_on_c, 1, 51, 0
3, 43584, Note_on_c, 1, 50, 100
3, 43676, Note_on_c, 1, 50, 0
3, 43680, Note_on_c, 1, 48, 100
3, 43772, Note_on_c, 1, 48, 0
3, 43776, Note_on_c, 1, 47, 100
3, 43868, Note_on_c, 1, 47, 0
3, 43872, Note_on_c, 1, 43, 100
3, 43964, Note_on_c, 1, 43, 0
3, 43968, Note_on_c, 1, 45, 100
3, 44060, Note_on_c, 1, 45, 0
3, 44064, Note_on_c, 1, 47, 100
3, 44156, Note_on_c, 1, 47, 0
3, 44160, Note_on_c, 1, 48, 100
3, 44252, Note_on_c, 1, 48, 0
3, 44256, Note_on_c, 1, 46, 100
3, 44348, Note_on_c, 1, 46, 0
3, 44352, Note_on_c, 1, 44, 100
3, 44444, Note_on_c, 1, 44, 0
3, 44448, Note_on_c, 1, 43, 100
3, 44540, Note_on_c, 1, 43, 0
3, 44544, Note_on_c, 1, 42, 100
3, 44800, Note_on_c, 1, 42, 0
3, 44928, Note_on_c, 1, 60, 100
3, 45308, Note_on_c, 1, 60, 0
3, 45312, Note_on_c, 1, 43, 100
3, 45504, Note_on_c, 1, 55, 100
3, 45692, Note_on_c, 1, 55, 0
3, 45692, Note_on_c, 1, 43, 0
3, 45696, Note_on_c, 1, 53, 100
3, 45884, Note_on_c, 1, 53, 0
3, 45888, Note_on_c, 1, 50, 100
3, 46076, Note_on_c, 1, 50, 0
3, 46080, Note_on_c, 1, 44, 100
3, 46272, Note_on_c, 1, 50, 100
3, 46400, Note_on_c, 1, 50, 0
3, 46460, Note_on_c, 1, 44, 0
3, 46464, Note_on_c, 1, 50, 100
3, 46652, Note_on_c, 1, 50, 0
3, 46656, Note_on_c, 1, 51, 100
3, 46844, Note_on_c, 1, 51, 0
3, 46848, Note_on_c, 1, 43, 100
3, 46944, Note_on_c, 1, 51, 100
3, 47036, Note_on_c, 1, 51, 0
3, 47040, Note_on_c, 1, 50, 100
3, 47132, Note_on_c, 1, 50, 0
3, 47136, Note_on_c, 1, 51, 100
3, 47228, Note_on_c, 1, 51, 0
3, 47228, Note_on_c, 1, 43, 0
3, 47232, Note_on_c, 1, 53, 100
3, 47324, Note_on_c, 1, 53, 0
3, 47328, Note_on_c, 1, 50, 100
3, 47420, Note_on_c, 1, 50, 0
3, 47424, Note_on_c, 1, 51, 100
3, 47612, Note_on_c, 1, 51, 0
3, 47616, Note_on_c, 1, 42, 100
3, 47996, Note_on_c, 1, 42, 0
3, 48192, Note_on_c, 1, 54, 100
3, 48192, Note_on_c, 1, 62, 100
3, 48380, Note_on_c, 1, 62, 0
3, 48380, Note_on_c, 1, 54, 0
3, 48384, Note_on_c, 1, 55, 100
3, 48384, Note_on_c, 1, 63, 100
3, 48764, Note_on_c, 1, 63, 0
3, 48768, Note_on_c, 1, 59, 100
3, 49148, Note_on_c, 1, 59, 0
3, 49148, Note_on_c, 1, 55, 0
3, 49152, Note_on_c, 1, 48, 100
3, 49152, Note_on_c, 1, 60, 100
3, 49244, Note_on_c, 1, 60, 0
3, 49248, Note_on_c, 1, 56, 100
3, 49340, Note_on_c, 1, 56, 0
3, 49344, Note_on_c, 1, 55, 100
3, 49436, Note_on_c, 1, 55, 0
3, 49440, Note_on_c, 1, 53, 100
3, 49532, Note_on_c, 1, 53, 0
3, 49536, Note_on_c, 1, 55, 100
3, 49628, Note_on_c, 1, 55, 0
3, 49632, Note_on_c, 1, 53, 100
3, 49724, Note_on_c, 1, 53, 0
3, 49728, Note_on_c, 1, 51, 100
3, 49820, Note_on_c, 1, 51, 0
3, 49824, Note_on_c, 1, 50, 100
3, 49916, Note_on_c, 1, 50, 0
3, 49916, Note_on_c, 1, 48, 0
3, 49920, Note_on_c, 1, 51, 100
3, 49920, Note_on_c, 1, 48, 100
3, 50012, Note_on_c, 1, 48, 0
3, 50016, Note_on_c, 1, 44, 100
3, 50108, Note_on_c, 1, 44, 0
3, 50112, Note_on_c, 1, 43, 100
3, 50204, Note_on_c, 1, 43, 0
3, 50208, Note_on_c, 1, 41, 100
3, 50300, Note_on_c, 1, 41, 0
3, 50300, Note_on_c, 1, 51, 0
3, 50304, Note_on_c, 1, 43, 100
3, 50396, Note_on_c, 1, 43, 0
3, 50400, Note_on_c, 1, 41, 100
3, 50492, Note_on_c, 1, 41, 0
3, 50496, Note_on_c, 1, 39, 100
3, 50588, Note_on_c, 1, 39, 0
3, 50592, Note_on_c, 1, 38, 100
3, 50684, Note_on_c, 1, 38, 0
3, 50688, Note_on_c, 1, 36, 100
3, 51068, Note_on_c, 1, 36, 0
3, 51072, Note_on_c, 1, 51, 100
3, 51164, Note_on_c, 1, 51, 0
3, 51168, Note_on_c, 1, 50, 100
3, 51260, Note_on_c, 1, 50, 0
3, 51264, Note_on_c, 1, 48, 100
3, 51452, Note_on_c, 1, 48, 0
3, 51456, Note_on_c, 1, 38, 100
3, 51836, Note_on_c, 1, 38, 0
3, 51840, Note_on_c, 1, 53, 100
3, 51932, Note_on_c, 1, 53, 0
3, 51936, Note_on_c, 1, 51, 100
3, 52028, Note_on_c, 1, 51, 0
3, 52032, Note_on_c, 1, 50, 100
3, 52220, Note_on_c, 1, 50, 0
3, 52224, Note_on_c, 1, 39, 100
3, 52604, Note_on_c, 1, 39, 0
3, 52608, Note_on_c, 1, 55, 100
3, 52700, Note_on_c, 1, 55, 0
3, 52704, Note_on_c, 1, 53, 100
3, 52796, Note_on_c, 1, 53, 0
3, 52800, Note_on_c, 1, 51, 100
3, 52988, Note_on_c, 1, 51, 0
3, 52992, Note_on_c, 1, 41, 100
3, 53372, Note_on_c, 1, 41, 0
3, 53376, Note_on_c, 1, 56, 100
3, 53468, Note_on_c, 1, 56, 0
3, 53472, Note_on_c, 1, 55, 100
3, 53564, Note_on_c, 1, 55, 0
3, 53568, Note_on_c, 1, 53, 100
3, 53756, Note_on_c, 1, 53, 0
3, 53760, Note_on_c, 1, 43, 100
3, 53948, Note_on_c, 1, 43, 0
3, 53952, Note_on_c, 1, 55, 100
3, 54140, Note_on_c, 1, 55, 0
3, 54144, Note_on_c, 1, 48, 100
3, 54332, Note_on_c, 1, 48, 0
3, 54336, Note_on_c, 1, 51, 100
3, 54524, Note_on_c, 1, 51, 0
3, 54528, Note_on_c, 1, 53, 100
3, 54716, Note_on_c, 1, 53, 0
3, 54720, Note_on_c, 1, 56, 100
3, 54908, Note_on_c, 1, 56, 0
3, 54912, Note_on_c, 1, 50, 100
3, 55100, Note_on_c, 1, 50, 0
3, 55104, Note_on_c, 1, 53, 100
3, 55292, Note_on_c, 1, 53, 0
3, 55296, Note_on_c, 1, 55, 100
3, 55484, Note_on_c, 1, 55, 0
3, 55488, Note_on_c, 1, 58, 100
3, 55676, Note_on_c, 1, 58, 0
3, 55680, Note_on_c, 1, 51, 100
3, 55868, Note_on_c, 1, 51, 0
3, 55872, Note_on_c, 1, 55, 100
3, 56060, Note_on_c, 1, 55, 0
3, 56064, Note_on_c, 1, 56, 100
3, 56252, Note_on_c, 1, 56, 0
3, 56256, Note_on_c, 1, 53, 100
3, 56444, Note_on_c, 1, 53, 0
3, 56448, Note_on_c, 1, 50, 100
3, 56636, Note_on_c, 1, 50, 0
3, 56640, Note_on_c, 1, 59, 100
3, 56828, Note_on_c, 1, 59, 0
3, 56832, Note_on_c, 1, 60, 100
3, 57020, Note_on_c, 1, 60, 0
3, 57408, Note_on_c, 1, 60, 100
3, 57596, Note_on_c, 1, 60, 0
3, 57600, Note_on_c, 1, 59, 100
3, 57788, Note_on_c, 1, 59, 0
3, 58176, Note_on_c, 1, 58, 100
3, 58364, Note_on_c, 1, 58, 0
3, 58368, Note_on_c, 1, 57, 100
3, 58556, Note_on_c, 1, 57, 0
3, 58944, Note_on_c, 1, 55, 100
3, 59132, Note_on_c, 1, 55, 0
3, 59136, Note_on_c, 1, 54, 100
3, 59324, Note_on_c, 1, 54, 0
3, 59712, Note_on_c, 1, 54, 100
3, 59900, Note_on_c, 1, 54, 0
3, 59904, Note_on_c, 1, 55, 100
3, 60032, Note_on_c, 1, 55, 0
3, 60096, Note_on_c, 1, 50, 100
3, 60284, Note_on_c, 1, 50, 0
3, 60288, Note_on_c, 1, 55, 100
3, 60476, Note_on_c, 1, 55, 0
3, 60480, Note_on_c, 1, 58, 100
3, 60764, Note_on_c, 1, 58, 0
3, 60768, Note_on_c, 1, 57, 100
3, 60860, Note_on_c, 1, 57, 0
3, 60864, Note_on_c, 1, 55, 100
3, 60956, Note_on_c, 1, 55, 0
3, 60960, Note_on_c, 1, 58, 100
3, 61052, Note_on_c, 1, 58, 0
3, 61056, Note_on_c, 1, 57, 100
3, 61148, Note_on_c, 1, 57, 0
3, 61152, Note_on_c, 1, 55, 100
3, 61244, Note_on_c, 1, 55, 0
3, 61248, Note_on_c, 1, 54, 100
3, 61340, Note_on_c, 1, 54, 0
3, 61344, Note_on_c, 1, 52, 100
3, 61436, Note_on_c, 1, 52, 0
3, 61440, Note_on_c, 1, 50, 100
3, 61628, Note_on_c, 1, 50, 0
3, 61632, Note_on_c, 1, 55, 100
3, 61820, Note_on_c, 1, 55, 0
3, 61824, Note_on_c, 1, 58, 100
3, 62012, Note_on_c, 1, 58, 0
3, 62016, Note_on_c, 1, 62, 100
3, 62300, Note_on_c, 1, 62, 0
3, 62304, Note_on_c, 1, 60, 100
3, 62396, Note_on_c, 1, 60, 0
3, 62400, Note_on_c, 1, 58, 100
3, 62492, Note_on_c, 1, 58, 0
3, 62496, Note_on_c, 1, 62, 100
3, 62588, Note_on_c, 1, 62, 0
3, 62592, Note_on_c, 1, 60, 100
3, 62684, Note_on_c, 1, 60, 0
3, 62688, Note_on_c, 1, 58, 100
3, 62780, Note_on_c, 1, 58, 0
3, 62784, Note_on_c, 1, 57, 100
3, 62876, Note_on_c, 1, 57, 0
3, 62880, Note_on_c, 1, 55, 100
3, 62972, Note_on_c, 1, 55, 0
3, 62976, Note_on_c, 1, 54, 100
3, 62976, Note_on_c, 1, 50, 100
3, 63068, Note_on_c, 1, 54, 0
3, 63072, Note_on_c, 1, 57, 100
3, 63164, Note_on_c, 1, 57, 0
3, 63164, Note_on_c, 1, 50, 0
3, 63168, Note_on_c, 1, 55, 100
3, 63260, Note_on_c, 1, 55, 0
3, 63264, Note_on_c, 1, 57, 100
3, 63356, Note_on_c, 1, 57, 0
3, 63360, Note_on_c, 1, 58, 100
3, 63452, Note_on_c, 1, 58, 0
3, 63456, Note_on_c, 1, 50, 100
3, 63548, Note_on_c, 1, 50, 0
3, 63552, Note_on_c, 1, 48, 100
3, 63644, Note_on_c, 1, 48, 0
3, 63648, Note_on_c, 1, 50, 100
3, 63740, Note_on_c, 1, 50, 0
3, 63744, Note_on_c, 1, 51, 100
3, 63836, Note_on_c, 1, 51, 0
3, 63840, Note_on_c, 1, 59, 100
3, 63932, Note_on_c, 1, 59, 0
3, 63936, Note_on_c, 1, 57, 100
3, 64028, Note_on_c, 1, 57, 0
3, 64032, Note_on_c, 1, 59, 100
3, 64124, Note_on_c, 1, 59, 0
3, 64128, Note_on_c, 1, 60, 100
3, 64220, Note_on_c, 1, 60, 0
3, 64224, Note_on_c, 1, 51, 100
3, 64316, Note_on_c, 1, 51, 0
3, 64320, Note_on_c, 1, 50, 100
3, 64412, Note_on_c, 1, 50, 0
3, 64416, Note_on_c, 1, 51, 100
3, 64508, Note_on_c, 1, 51, 0
3, 64512, Note_on_c, 1, 53, 100
3, 64604, Note_on_c, 1, 53, 0
3, 64608, Note_on_c, 1, 61, 100
3, 64700, Note_on_c, 1, 61, 0
3, 64704, Note_on_c, 1, 59, 100
3, 64796, Note_on_c, 1, 59, 0
3, 64800, Note_on_c, 1, 61, 100
3, 64892, Note_on_c, 1, 61, 0
3, 64896, Note_on_c, 1, 62, 100
3, 64988, Note_on_c, 1, 62, 0
3, 64992, Note_on_c, 1, 54, 100
3, 65084, Note_on_c, 1, 54, 0
3, 65088, Note_on_c, 1, 52, 100
3, 65180, Note_on_c, 1, 52, 0
3, 65184, Note_on_c, 1, 54, 100
3, 65276, Note_on_c, 1, 54, 0
3, 65280, Note_on_c, 1, 55, 100
3, 65372, Note_on_c, 1, 55, 0
3, 65376, Note_on_c, 1, 58, 100
3, 65468, Note_on_c, 1, 58, 0
3, 65472, Note_on_c, 1, 57, 100
3, 65564, Note_on_c, 1, 57, 0
3, 65568, Note_on_c, 1, 55, 100
3, 65660, Note_on_c, 1, 55, 0
3, 65664, Note_on_c, 1, 54, 100
3, 65756, Note_on_c, 1, 54, 0
3, 65760, Note_on_c, 1, 52, 100
3, 65852, Note_on_c, 1, 52, 0
3, 65856, Note_on_c, 1, 50, 100
3, 65948, Note_on_c, 1, 50, 0
3, 65952, Note_on_c, 1, 48, 100
3, 66044, Note_on_c, 1, 48, 0
3, 66048, Note_on_c, 1, 46, 100
3, 66140, Note_on_c, 1, 46, 0
3, 66144, Note_on_c, 1, 50, 100
3, 66236, Note_on_c, 1, 50, 0
3, 66240, Note_on_c, 1, 48, 100
3, 66332, Note_on_c, 1, 48, 0
3, 66336, Note_on_c, 1, 50, 100
3, 66428, Note_on_c, 1, 50, 0
3, 66432, Note_on_c, 1, 51, 100
3, 66524, Note_on_c, 1, 51, 0
3, 66528, Note_on_c, 1, 50, 100
3, 66620, Note_on_c, 1, 50, 0
3, 66624, Note_on_c, 1, 48, 100
3, 66716, Note_on_c, 1, 48, 0
3, 66720, Note_on_c, 1, 47, 100
3, 66812, Note_on_c, 1, 47, 0
3, 66816, Note_on_c, 1, 48, 100
3, 66908, Note_on_c, 1, 48, 0
3, 66912, Note_on_c, 1, 51, 100
3, 67004, Note_on_c, 1, 51, 0
3, 67008, Note_on_c, 1, 50, 100
3, 67100, Note_on_c, 1, 50, 0
3, 67104, Note_on_c, 1, 51, 100
3, 67196, Note_on_c, 1, 51, 0
3, 67200, Note_on_c, 1, 53, 100
3, 67292, Note_on_c, 1, 53, 0
3, 67296, Note_on_c, 1, 51, 100
3, 67388, Note_on_c, 1, 51, 0
3, 67392, Note_on_c, 1, 50, 100
3, 67484, Note_on_c, 1, 50, 0
3, 67488, Note_on_c, 1, 48, 100
3, 67580, Note_on_c, 1, 48, 0
3, 67584, Note_on_c, 1, 50, 100
3, 67676, Note_on_c, 1, 50, 0
3, 67680, Note_on_c, 1, 53, 100
3, 67772, Note_on_c, 1, 53, 0
3, 67776, Note_on_c, 1, 51, 100
3, 67868, Note_on_c, 1, 51, 0
3, 67872, Note_on_c, 1, 53, 100
3, 67964, Note_on_c, 1, 53, 0
3, 67968, Note_on_c, 1, 55, 100
3, 68060, Note_on_c, 1, 55, 0
3, 68064, Note_on_c, 1, 53, 100
3, 68156, Note_on_c, 1, 53, 0
3, 68160, Note_on_c, 1, 51, 100
3, 68252, Note_on_c, 1, 51, 0
3, 68256, Note_on_c, 1, 50, 100
3, 68348, Note_on_c, 1, 50, 0
3, 68352, Note_on_c, 1, 51, 100
3, 68444, Note_on_c, 1, 51, 0
3, 68448, Note_on_c, 1, 60, 100
3, 68540, Note_on_c, 1, 60, 0
3, 68544, Note_on_c, 1, 58, 100
3, 68636, Note_on_c, 1, 58, 0
3, 68640, Note_on_c, 1, 56, 100
3, 68732, Note_on_c, 1, 56, 0
3, 68736, Note_on_c, 1, 55, 100
3, 68828, Note_on_c, 1, 55, 0
3, 68832, Note_on_c, 1, 53, 100
3, 68924, Note_on_c, 1, 53, 0
3, 68928, Note_on_c, 1, 51, 100
3, 69020, Note_on_c, 1, 51, 0
3, 69024, Note_on_c, 1, 50, 100
3, 69116, Note_on_c, 1, 50, 0
3, 69120, Note_on_c, 1, 51, 100
3, 69212, Note_on_c, 1, 51, 0
3, 69216, Note_on_c, 1, 53, 100
3, 69308, Note_on_c, 1, 53, 0
3, 69312, Note_on_c, 1, 51, 100
3, 69404, Note_on_c, 1, 51, 0
3, 69408, Note_on_c, 1, 50, 100
3, 69500, Note_on_c, 1, 50, 0
3, 69504, Note_on_c, 1, 48, 100
3, 69596, Note_on_c, 1, 48, 0
3, 69600, Note_on_c, 1, 46, 100
3, 69692, Note_on_c, 1, 46, 0
3, 69696, Note_on_c, 1, 44, 100
3, 69788, Note_on_c, 1, 44, 0
3, 69792, Note_on_c, 1, 43, 100
3, 69884, Note_on_c, 1, 43, 0
3, 69888, Note_on_c, 1, 41, 100
3, 70748, Note_on_c, 1, 41, 0
3, 70752, Note_on_c, 1, 53, 100
3, 70844, Note_on_c, 1, 53, 0
3, 70848, Note_on_c, 1, 51, 100
3, 70940, Note_on_c, 1, 51, 0
3, 70944, Note_on_c, 1, 53, 100
3, 71036, Note_on_c, 1, 53, 0
3, 71040, Note_on_c, 1, 55, 100
3, 71132, Note_on_c, 1, 55, 0
3, 71136, Note_on_c, 1, 53, 100
3, 71228, Note_on_c, 1, 53, 0
3, 71232, Note_on_c, 1, 51, 100
3, 71324, Note_on_c, 1, 51, 0
3, 71328, Note_on_c, 1, 53, 100
3, 71420, Note_on_c, 1, 53, 0
3, 71424, Note_on_c, 1, 39, 100
3, 71516, Note_on_c, 1, 39, 0
3, 71520, Note_on_c, 1, 51, 100
3, 71612, Note_on_c, 1, 51, 0
3, 71616, Note_on_c, 1, 50, 100
3, 71708, Note_on_c, 1, 50, 0
3, 71712, Note_on_c, 1, 51, 100
3, 71804, Note_on_c, 1, 51, 0
3, 71808, Note_on_c, 1, 53, 100
3, 71900, Note_on_c, 1, 53, 0
3, 71904, Note_on_c, 1, 51, 100
3, 71996, Note_on_c, 1, 51, 0
3, 72000, Note_on_c, 1, 50, 100
3, 72092, Note_on_c, 1, 50, 0
3, 72096, Note_on_c, 1, 51, 100
3, 72188, Note_on_c, 1, 51, 0
3, 72192, Note_on_c, 1, 44, 100
3, 72572, Note_on_c, 1, 44, 0
3, 72576, Note_on_c, 1, 53, 100
3, 73340, Note_on_c, 1, 53, 0
3, 73344, Note_on_c, 1, 58, 100
3, 73724, Note_on_c, 1, 58, 0
3, 73728, Note_on_c, 1, 63, 100
3, 74108, Note_on_c, 1, 63, 0
3, 74112, Note_on_c, 1, 51, 100
3, 74876, Note_on_c, 1, 51, 0
3, 74880, Note_on_c, 1, 56, 100
3, 75260, Note_on_c, 1, 56, 0
3, 75264, Note_on_c, 1, 55, 100
3, 75644, Note_on_c, 1, 55, 0
3, 78528, Note_on_c, 1, 62, 100
3, 78716, Note_on_c, 1, 62, 0
3, 78720, Note_on_c, 1, 60, 100
3, 78908, Note_on_c, 1, 60, 0
3, 78912, Note_on_c, 1, 62, 100
3, 79100, Note_on_c, 1, 62, 0
3, 79104, Note_on_c, 1, 63, 100
3, 79232, Note_on_c, 1, 63, 0
3, 79296, Note_on_c, 1, 64, 100
3, 79484, Note_on_c, 1, 64, 0
3, 79488, Note_on_c, 1, 62, 100
3, 79676, Note_on_c, 1, 62, 0
3, 79680, Note_on_c, 1, 64, 100
3, 79868, Note_on_c, 1, 64, 0
3, 79872, Note_on_c, 1, 65, 100
3, 80000, Note_on_c, 1, 65, 0
3, 80064, Note_on_c, 1, 66, 100
3, 80252, Note_on_c, 1, 66, 0
3, 80256, Note_on_c, 1, 64, 100
3, 80444, Note_on_c, 1, 64, 0
3, 80448, Note_on_c, 1, 66, 100
3, 80636, Note_on_c, 1, 66, 0
3, 80832, Note_on_c, 1, 62, 100
3, 80960, Note_on_c, 1, 62, 0
3, 81216, Note_on_c, 1, 60, 100
3, 81344, Note_on_c, 1, 60, 0
3, 81600, Note_on_c, 1, 55, 100
3, 81788, Note_on_c, 1, 55, 0
3, 81792, Note_on_c, 1, 53, 100
3, 81980, Note_on_c, 1, 53, 0
3, 81984, Note_on_c, 1, 55, 100
3, 82172, Note_on_c, 1, 55, 0
3, 82176, Note_on_c, 1, 56, 100
3, 82304, Note_on_c, 1, 56, 0
3, 82368, Note_on_c, 1, 57, 100
3, 82556, Note_on_c, 1, 57, 0
3, 82560, Note_on_c, 1, 55, 100
3, 82748, Note_on_c, 1, 55, 0
3, 82752, Note_on_c, 1, 57, 100
3, 82940, Note_on_c, 1, 57, 0
3, 82944, Note_on_c, 1, 58, 100
3, 83072, Note_on_c, 1, 58, 0
3, 83136, Note_on_c, 1, 59, 100
3, 83324, Note_on_c, 1, 59, 0
3, 83328, Note_on_c, 1, 57, 100
3, 83516, Note_on_c, 1, 57, 0
3, 83520, Note_on_c, 1, 59, 100
3, 83708, Note_on_c, 1, 59, 0
3, 83712, Note_on_c, 1, 60, 100
3, 83840, Note_on_c, 1, 60, 0
3, 83904, Note_on_c, 1, 55, 100
3, 84032, Note_on_c, 1, 55, 0
3, 84096, Note_on_c, 1, 62, 100
3, 84224, Note_on_c, 1, 62, 0
3, 84288, Note_on_c, 1, 53, 100
3, 84416, Note_on_c, 1, 53, 0
3, 84480, Note_on_c, 1, 51, 100
3, 84608, Note_on_c, 1, 51, 0
3, 84672, Note_on_c, 1, 60, 100
3, 84860, Note_on_c, 1, 60, 0
3, 84864, Note_on_c, 1, 58, 100
3, 85052, Note_on_c, 1, 58, 0
3, 85056, Note_on_c, 1, 60, 100
3, 85244, Note_on_c, 1, 60, 0
3, 85248, Note_on_c, 1, 62, 100
3, 85376, Note_on_c, 1, 62, 0
3, 85440, Note_on_c, 1, 56, 100
3, 85568, Note_on_c, 1, 56, 0
3, 85632, Note_on_c, 1, 64, 100
3, 85760, Note_on_c, 1, 64, 0
3, 85824, Note_on_c, 1, 55, 100
3, 85952, Note_on_c, 1, 55, 0
3, 86016, Note_on_c, 1, 53, 100
3, 86144, Note_on_c, 1, 53, 0
3, 86208, Note_on_c, 1, 62, 100
3, 86396, Note_on_c, 1, 62, 0
3, 86400, Note_on_c, 1, 60, 100
3, 86588, Note_on_c, 1, 60, 0
3, 86592, Note_on_c, 1, 62, 100
3, 86780, Note_on_c, 1, 62, 0
3, 86784, Note_on_c, 1, 64, 100
3, 86912, Note_on_c, 1, 64, 0
3, 86976, Note_on_c, 1, 58, 100
3, 87104, Note_on_c, 1, 58, 0
3, 87168, Note_on_c, 1, 66, 100
3, 87296, Note_on_c, 1, 66, 0
3, 87360, Note_on_c, 1, 57, 100
3, 87488, Note_on_c, 1, 57, 0
3, 87552, Note_on_c, 1, 67, 100
3, 87740, Note_on_c, 1, 67, 0
3, 87744, Note_on_c, 1, 55, 100
3, 87836, Note_on_c, 1, 55, 0
3, 87840, Note_on_c, 1, 57, 100
3, 87932, Note_on_c, 1, 57, 0
3, 87936, Note_on_c, 1, 59, 100
3, 88028, Note_on_c, 1, 59, 0
3, 88032, Note_on_c, 1, 60, 100
3, 88124, Note_on_c, 1, 60, 0
3, 88128, Note_on_c, 1, 62, 100
3, 88220, Note_on_c, 1, 62, 0
3, 88224, Note_on_c, 1, 59, 100
3, 88316, Note_on_c, 1, 59, 0
3, 88320, Note_on_c, 1, 60, 100
3, 88508, Note_on_c, 1, 60, 0
3, 88512, Note_on_c, 1, 57, 100
3, 88604, Note_on_c, 1, 57, 0
3, 88608, Note_on_c, 1, 59, 100
3, 88700, Note_on_c, 1, 59, 0
3, 88704, Note_on_c, 1, 60, 100
3, 88796, Note_on_c, 1, 60, 0
3, 88800, Note_on_c, 1, 62, 100
3, 88892, Note_on_c, 1, 62, 0
3, 88896, Note_on_c, 1, 63, 100
3, 88988, Note_on_c, 1, 63, 0
3, 88992, Note_on_c, 1, 60, 100
3, 89084, Note_on_c, 1, 60, 0
3, 89088, Note_on_c, 1, 62, 100
3, 89180, Note_on_c, 1, 62, 0
3, 89184, Note_on_c, 1, 60, 100
3, 89276, Note_on_c, 1, 60, 0
3, 89280, Note_on_c, 1, 59, 100
3, 89372, Note_on_c, 1, 59, 0
3, 89376, Note_on_c, 1, 57, 100
3, 89468, Note_on_c, 1, 57, 0
3, 89472, Note_on_c, 1, 55, 100
3, 89564, Note_on_c, 1, 55, 0
3, 89568, Note_on_c, 1, 53, 100
3, 89660, Note_on_c, 1, 53, 0
3, 89664, Note_on_c, 1, 51, 100
3, 89756, Note_on_c, 1, 51, 0
3, 89760, Note_on_c, 1, 50, 100
3, 89852, Note_on_c, 1, 50, 0
3, 89856, Note_on_c, 1, 51, 100
3, 89948, Note_on_c, 1, 51, 0
3, 89952, Note_on_c, 1, 50, 100
3, 90044, Note_on_c, 1, 50, 0
3, 90048, Note_on_c, 1, 48, 100
3, 90140, Note_on_c, 1, 48, 0
3, 90144, Note_on_c, 1, 47, 100
3, 90236, Note_on_c, 1, 47, 0
3, 90240, Note_on_c, 1, 45, 100
3, 90332, Note_on_c, 1, 45, 0
3, 90336, Note_on_c, 1, 43, 100
3, 90428, Note_on_c, 1, 43, 0
3, 90432, Note_on_c, 1, 41, 100
3, 90524, Note_on_c, 1, 41, 0
3, 90528, Note_on_c, 1, 43, 100
3, 90620, Note_on_c, 1, 43, 0
3, 90624, Note_on_c, 1, 36, 100
3, 91004, Note_on_c, 1, 36, 0
3, 91296, Note_on_c, 1, 56, 100
3, 91296, Note_on_c, 1, 44, 100
3, 91388, Note_on_c, 1, 44, 0
3, 91388, Note_on_c, 1, 56, 0
3, 91392, Note_on_c, 1, 44, 100
3, 91392, Note_on_c, 1, 56, 100
3, 91964, Note_on_c, 1, 56, 0
3, 91964, Note_on_c, 1, 44, 0
3, 92064, Note_on_c, 1, 56, 100
3, 92064, Note_on_c, 1, 44, 100
3, 92128, Note_on_c, 1, 44, 0
3, 92156, Note_on_c, 1, 56, 0
3, 92160, Note_on_c, 1, 53, 100
3, 92160, Note_on_c, 1, 41, 100
3, 92924, Note_on_c, 1, 41, 0
3, 92924, Note_on_c, 1, 53, 0
3, 92928, Note_on_c, 1, 55, 100
3, 92928, Note_on_c, 1, 43, 100
3, 93308, Note_on_c, 1, 43, 0
3, 93308, Note_on_c, 1, 55, 0
3, 93312, Note_on_c, 1, 43, 100
3, 93312, Note_on_c, 1, 31, 100
3, 93692, Note_on_c, 1, 31, 0
3, 93692, Note_on_c, 1, 43, 0
3, 93696, Note_on_c, 1, 36, 100
3, 93696, Note_on_c, 1, 48, 100
3, 95996, Note_on_c, 1, 36, 0
3, 96000, Note_on_c, 1, 48, 0
3, 96000, End_track
4, 0, Start_track
4, 0, MIDI_port, 0
4, 0, Title_t, "(c) 1996 by T.L. Hubeart Jr."
4, 0, End_track
5, 0, Start_track
5, 0, MIDI_port, 0
5, 0, Title_t, "http://members.aol.com/basfawlty"
5, 0, End_track
0, 0, End_of_file
