0, 0, Header, 0, 1, 384
1, 0, Start_track
1, 0, Copyright_t, "(C) John Sankey 1998"
1, 0, Program_c, 0, 6
1, 0, Pitch_bend_c, 0, 8192
1, 0, Program_c, 1, 6
1, 0, Pitch_bend_c, 1, 7792
1, 0, Program_c, 2, 6
1, 0, Pitch_bend_c, 2, 7876
1, 0, Program_c, 3, 6
1, 0, Pitch_bend_c, 3, 7952
1, 0, Program_c, 4, 6
1, 0, Pitch_bend_c, 4, 7792
1, 0, Program_c, 5, 6
1, 0, Pitch_bend_c, 5, 8112
1, 0, Program_c, 6, 6
1, 0, Pitch_bend_c, 6, 7712
1, 0, Program_c, 7, 6
1, 0, Pitch_bend_c, 7, 8037
1, 0, Program_c, 8, 6
1, 0, Pitch_bend_c, 8, 7872
1, 0, Program_c, 10, 6
1, 0, Pitch_bend_c, 10, 7712
1, 0, Program_c, 11, 6
1, 0, Pitch_bend_c, 11, 8032
1, 0, Program_c, 12, 6
1, 0, Pitch_bend_c, 12, 7872
1, 0, Tempo, 500000
1, 128, Note_on_c, 7, 79, 127
1, 383, Note_off_c, 7, 79, 127
1, 384, Note_on_c, 6, 78, 127
1, 511, Note_off_c, 6, 78, 127
1, 512, Note_on_c, 4, 76, 127
1, 639, Note_off_c, 4, 76, 127
1, 640, Note_on_c, 2, 74, 127
1, 767, Note_off_c, 2, 74, 127
1, 768, Note_on_c, 0, 72, 127
1, 895, Note_off_c, 0, 72, 127
1, 896, Note_on_c, 12, 71, 127
1, 1023, Note_off_c, 12, 71, 127
1, 1024, Note_on_c, 10, 69, 127
1, 1109, Note_off_c, 10, 69, 127
1, 1152, Note_on_c, 7, 79, 127
1, 1407, Note_off_c, 7, 79, 127
1, 1408, Note_on_c, 6, 78, 127
1, 1535, Note_off_c, 6, 78, 127
1, 1536, Note_on_c, 4, 76, 127
1, 1663, Note_off_c, 4, 76, 127
1, 1664, Note_on_c, 2, 74, 127
1, 1791, Note_off_c, 2, 74, 127
1, 1792, Note_on_c, 0, 72, 127
1, 1919, Note_off_c, 0, 72, 127
1, 1920, Note_on_c, 12, 71, 127
1, 2047, Note_off_c, 12, 71, 127
1, 2048, Note_on_c, 10, 69, 127
1, 2175, Note_off_c, 10, 69, 127
1, 2182, Note_on_c, 7, 67, 127
1, 2304, Note_on_c, 2, 74, 127
1, 2407, Note_off_c, 7, 67, 127
1, 2430, Note_off_c, 2, 74, 127
1, 2431, Note_on_c, 12, 71, 127
1, 2558, Note_off_c, 12, 71, 127
1, 2559, Note_on_c, 7, 67, 127
1, 2686, Note_off_c, 7, 67, 127
1, 2687, Note_on_c, 12, 71, 127
1, 2814, Note_off_c, 12, 71, 127
1, 2815, Note_on_c, 2, 62, 127
1, 2942, Note_off_c, 2, 62, 127
1, 2943, Note_on_c, 7, 67, 127
1, 3070, Note_off_c, 7, 67, 127
1, 3071, Note_on_c, 7, 55, 127
1, 3198, Note_off_c, 7, 55, 127
1, 3199, Note_on_c, 7, 67, 127
1, 3327, Note_on_c, 2, 74, 127
1, 3452, Note_off_c, 7, 67, 127
1, 3453, Note_off_c, 2, 74, 127
1, 3454, Note_on_c, 12, 71, 127
1, 3581, Note_off_c, 12, 71, 127
1, 3582, Note_on_c, 7, 67, 127
1, 3709, Note_off_c, 7, 67, 127
1, 3710, Note_on_c, 12, 71, 127
1, 3837, Note_off_c, 12, 71, 127
1, 3838, Note_on_c, 2, 62, 127
1, 3965, Note_off_c, 2, 62, 127
1, 3966, Note_on_c, 7, 67, 127
1, 4093, Note_off_c, 7, 67, 127
1, 4094, Note_on_c, 7, 55, 127
1, 4221, Note_off_c, 7, 55, 127
1, 4222, Note_on_c, 7, 67, 127
1, 4350, Note_on_c, 2, 74, 127
1, 4476, Note_off_c, 2, 74, 127
1, 4477, Note_on_c, 12, 71, 127
1, 4511, Note_off_c, 7, 67, 127
1, 4604, Note_off_c, 12, 71, 127
1, 4605, Note_on_c, 7, 67, 127
1, 4732, Note_off_c, 7, 67, 127
1, 4733, Note_on_c, 12, 71, 127
1, 4860, Note_off_c, 12, 71, 127
1, 4861, Note_on_c, 2, 62, 127
1, 4988, Note_off_c, 2, 62, 127
1, 4989, Note_on_c, 7, 67, 127
1, 5116, Note_off_c, 7, 67, 127
1, 5117, Note_on_c, 7, 55, 127
1, 5244, Note_off_c, 7, 55, 127
1, 5245, Note_on_c, 2, 74, 127
1, 5500, Note_off_c, 2, 74, 127
1, 5501, Note_on_c, 12, 59, 127
1, 5501, Note_on_c, 7, 67, 127
1, 5501, Note_on_c, 2, 62, 127
1, 5501, Note_on_c, 12, 71, 127
1, 5501, Note_on_c, 7, 79, 127
1, 5501, Note_on_c, 2, 74, 127
1, 5728, Note_off_c, 2, 74, 127
1, 5728, Note_off_c, 7, 79, 127
1, 5728, Note_off_c, 12, 71, 127
1, 5728, Note_off_c, 2, 62, 127
1, 5728, Note_off_c, 7, 67, 127
1, 5728, Note_off_c, 12, 59, 127
1, 5757, Note_on_c, 6, 66, 127
1, 5757, Note_on_c, 0, 60, 127
1, 5757, Note_on_c, 10, 57, 127
1, 5757, Note_on_c, 0, 72, 127
1, 5757, Note_on_c, 10, 69, 127
1, 5757, Note_on_c, 6, 78, 127
1, 5984, Note_off_c, 6, 78, 127
1, 5984, Note_off_c, 10, 69, 127
1, 5984, Note_off_c, 0, 72, 127
1, 5984, Note_off_c, 10, 57, 127
1, 5984, Note_off_c, 0, 60, 127
1, 5984, Note_off_c, 6, 66, 127
1, 6013, Note_on_c, 4, 64, 127
1, 6013, Note_on_c, 12, 59, 127
1, 6013, Note_on_c, 7, 55, 127
1, 6013, Note_on_c, 12, 71, 127
1, 6013, Note_on_c, 4, 76, 127
1, 6013, Note_on_c, 7, 67, 127
1, 6240, Note_off_c, 7, 67, 127
1, 6240, Note_off_c, 4, 76, 127
1, 6240, Note_off_c, 12, 71, 127
1, 6240, Note_off_c, 7, 55, 127
1, 6240, Note_off_c, 12, 59, 127
1, 6240, Note_off_c, 4, 64, 127
1, 6269, Note_on_c, 10, 57, 127
1, 6269, Note_on_c, 2, 62, 127
1, 6269, Note_on_c, 6, 54, 127
1, 6269, Note_on_c, 6, 66, 127
1, 6269, Note_on_c, 2, 74, 127
1, 6269, Note_on_c, 10, 69, 127
1, 6496, Note_off_c, 10, 69, 127
1, 6496, Note_off_c, 2, 74, 127
1, 6496, Note_off_c, 6, 66, 127
1, 6496, Note_off_c, 6, 54, 127
1, 6496, Note_off_c, 2, 62, 127
1, 6496, Note_off_c, 10, 57, 127
1, 6525, Note_on_c, 4, 52, 127
1, 6525, Note_on_c, 0, 60, 127
1, 6525, Note_on_c, 7, 55, 127
1, 6525, Note_on_c, 4, 64, 127
1, 6525, Note_on_c, 0, 72, 127
1, 6525, Note_on_c, 7, 67, 127
1, 6752, Note_off_c, 7, 67, 127
1, 6752, Note_off_c, 0, 72, 127
1, 6752, Note_off_c, 4, 64, 127
1, 6752, Note_off_c, 7, 55, 127
1, 6752, Note_off_c, 0, 60, 127
1, 6752, Note_off_c, 4, 52, 127
1, 6781, Note_on_c, 6, 54, 127
1, 6781, Note_on_c, 12, 59, 127
1, 6781, Note_on_c, 2, 50, 127
1, 6781, Note_on_c, 6, 66, 127
1, 6781, Note_on_c, 12, 71, 127
1, 6781, Note_on_c, 2, 62, 127
1, 7008, Note_off_c, 2, 62, 127
1, 7008, Note_off_c, 12, 71, 127
1, 7008, Note_off_c, 6, 66, 127
1, 7008, Note_off_c, 2, 50, 127
1, 7008, Note_off_c, 12, 59, 127
1, 7008, Note_off_c, 6, 54, 127
1, 7037, Note_on_c, 10, 57, 127
1, 7037, Note_on_c, 4, 52, 127
1, 7037, Note_on_c, 0, 48, 127
1, 7037, Note_on_c, 4, 64, 127
1, 7037, Note_on_c, 0, 60, 127
1, 7037, Note_on_c, 10, 69, 127
1, 7264, Note_off_c, 10, 69, 127
1, 7264, Note_off_c, 0, 60, 127
1, 7264, Note_off_c, 4, 64, 127
1, 7264, Note_off_c, 0, 48, 127
1, 7264, Note_off_c, 4, 52, 127
1, 7264, Note_off_c, 10, 57, 127
1, 7293, Note_on_c, 7, 55, 127
1, 7293, Note_on_c, 2, 50, 127
1, 7293, Note_on_c, 12, 47, 127
1, 7293, Note_on_c, 2, 62, 127
1, 7293, Note_on_c, 12, 59, 127
1, 7293, Note_on_c, 7, 67, 127
1, 7548, Note_off_c, 7, 67, 127
1, 7548, Note_off_c, 12, 59, 127
1, 7548, Note_off_c, 12, 47, 127
1, 7548, Note_off_c, 2, 50, 127
1, 7549, Note_on_c, 0, 48, 127
1, 7549, Note_on_c, 7, 67, 127
1, 7549, Note_on_c, 4, 64, 127
1, 7549, Note_on_c, 10, 69, 127
1, 7800, Note_off_c, 2, 62, 127
1, 7800, Note_off_c, 7, 55, 127
1, 7804, Note_off_c, 10, 69, 127
1, 7804, Note_off_c, 4, 64, 127
1, 7804, Note_off_c, 7, 67, 127
1, 7804, Note_off_c, 0, 48, 127
1, 7805, Note_on_c, 7, 55, 127
1, 7805, Note_on_c, 2, 50, 127
1, 7805, Note_on_c, 12, 71, 127
1, 7805, Note_on_c, 2, 62, 127
1, 7805, Note_on_c, 7, 67, 127
1, 7932, Note_off_c, 12, 71, 127
1, 7933, Note_on_c, 0, 72, 127
1, 8045, Note_off_c, 7, 67, 127
1, 8045, Note_off_c, 2, 62, 127
1, 8060, Note_off_c, 0, 72, 127
1, 8060, Note_off_c, 7, 55, 127
1, 8061, Note_on_c, 2, 38, 127
1, 8061, Note_on_c, 6, 66, 127
1, 8061, Note_on_c, 10, 69, 127
1, 8061, Note_on_c, 0, 60, 127
1, 8188, Note_off_c, 10, 69, 127
1, 8189, Note_on_c, 12, 71, 127
1, 8301, Note_off_c, 0, 60, 127
1, 8301, Note_off_c, 6, 66, 127
1, 8312, Note_off_c, 2, 50, 127
1, 8316, Note_off_c, 12, 71, 127
1, 8316, Note_off_c, 2, 38, 127
1, 8317, Note_on_c, 7, 43, 127
1, 8317, Note_on_c, 7, 67, 127
1, 8317, Note_on_c, 2, 62, 127
1, 8317, Note_on_c, 12, 59, 127
1, 8572, Note_off_c, 12, 59, 127
1, 8572, Note_off_c, 2, 62, 127
1, 8572, Note_off_c, 7, 67, 127
1, 8572, Note_off_c, 7, 43, 127
1, 8573, Note_on_c, 12, 71, 127
1, 8573, Note_on_c, 7, 79, 127
1, 8700, Note_off_c, 7, 79, 127
1, 8701, Note_on_c, 2, 74, 127
1, 8828, Note_off_c, 2, 74, 127
1, 8828, Note_off_c, 12, 71, 127
1, 8829, Note_on_c, 6, 66, 127
1, 8829, Note_on_c, 10, 81, 127
1, 8956, Note_off_c, 10, 81, 127
1, 8957, Note_on_c, 2, 74, 127
1, 9084, Note_off_c, 2, 74, 127
1, 9084, Note_off_c, 6, 66, 127
1, 9085, Note_on_c, 7, 67, 127
1, 9085, Note_on_c, 12, 83, 127
1, 9212, Note_off_c, 12, 83, 127
1, 9213, Note_on_c, 2, 74, 127
1, 9340, Note_off_c, 2, 74, 127
1, 9340, Note_off_c, 7, 67, 127
1, 9341, Note_on_c, 6, 66, 127
1, 9341, Note_on_c, 2, 62, 127
1, 9341, Note_on_c, 10, 81, 127
1, 9468, Note_off_c, 10, 81, 127
1, 9469, Note_on_c, 2, 74, 127
1, 9596, Note_off_c, 2, 74, 127
1, 9596, Note_off_c, 2, 62, 127
1, 9596, Note_off_c, 6, 66, 127
1, 9597, Note_on_c, 12, 71, 127
1, 9597, Note_on_c, 7, 79, 127
1, 9724, Note_off_c, 7, 79, 127
1, 9725, Note_on_c, 2, 74, 127
1, 9852, Note_off_c, 2, 74, 127
1, 9852, Note_off_c, 12, 71, 127
1, 9853, Note_on_c, 6, 66, 127
1, 9853, Note_on_c, 10, 81, 127
1, 9980, Note_off_c, 10, 81, 127
1, 9981, Note_on_c, 2, 74, 127
1, 10108, Note_off_c, 2, 74, 127
1, 10108, Note_off_c, 6, 66, 127
1, 10109, Note_on_c, 7, 67, 127
1, 10109, Note_on_c, 12, 83, 127
1, 10236, Note_off_c, 12, 83, 127
1, 10237, Note_on_c, 2, 74, 127
1, 10364, Note_off_c, 2, 74, 127
1, 10364, Note_off_c, 7, 67, 127
1, 10365, Note_on_c, 2, 62, 127
1, 10365, Note_on_c, 6, 66, 127
1, 10365, Note_on_c, 10, 81, 127
1, 10492, Note_off_c, 10, 81, 127
1, 10493, Note_on_c, 2, 74, 127
1, 10620, Note_off_c, 2, 74, 127
1, 10620, Note_off_c, 6, 66, 127
1, 10620, Note_off_c, 2, 62, 127
1, 10621, Note_on_c, 7, 67, 127
1, 10621, Note_on_c, 12, 83, 127
1, 10621, Note_on_c, 2, 74, 127
1, 10748, Note_off_c, 7, 67, 127
1, 10749, Note_on_c, 2, 62, 127
1, 10876, Note_off_c, 2, 62, 127
1, 10876, Note_off_c, 2, 74, 127
1, 10876, Note_off_c, 12, 83, 127
1, 10877, Note_on_c, 10, 69, 127
1, 10877, Note_on_c, 6, 78, 127
1, 10877, Note_on_c, 2, 74, 127
1, 11004, Note_off_c, 10, 69, 127
1, 11005, Note_on_c, 2, 62, 127
1, 11132, Note_off_c, 2, 62, 127
1, 11132, Note_off_c, 2, 74, 127
1, 11132, Note_off_c, 6, 78, 127
1, 11133, Note_on_c, 12, 71, 127
1, 11133, Note_on_c, 7, 79, 127
1, 11133, Note_on_c, 2, 74, 127
1, 11260, Note_off_c, 12, 71, 127
1, 11261, Note_on_c, 2, 62, 127
1, 11388, Note_off_c, 2, 62, 127
1, 11388, Note_off_c, 2, 74, 127
1, 11388, Note_off_c, 7, 79, 127
1, 11389, Note_on_c, 10, 69, 127
1, 11389, Note_on_c, 2, 74, 127
1, 11389, Note_on_c, 6, 78, 127
1, 11516, Note_off_c, 10, 69, 127
1, 11517, Note_on_c, 2, 62, 127
1, 11644, Note_off_c, 2, 62, 127
1, 11644, Note_off_c, 6, 78, 127
1, 11644, Note_off_c, 2, 74, 127
1, 11645, Note_on_c, 7, 67, 127
1, 11645, Note_on_c, 12, 83, 127
1, 11645, Note_on_c, 2, 74, 127
1, 11772, Note_off_c, 7, 67, 127
1, 11773, Note_on_c, 2, 62, 127
1, 11900, Note_off_c, 2, 62, 127
1, 11900, Note_off_c, 2, 74, 127
1, 11900, Note_off_c, 12, 83, 127
1, 11901, Note_on_c, 10, 69, 127
1, 11901, Note_on_c, 6, 78, 127
1, 11901, Note_on_c, 2, 74, 127
1, 12028, Note_off_c, 10, 69, 127
1, 12029, Note_on_c, 2, 62, 127
1, 12156, Note_off_c, 2, 62, 127
1, 12156, Note_off_c, 2, 74, 127
1, 12156, Note_off_c, 6, 78, 127
1, 12157, Note_on_c, 12, 71, 127
1, 12157, Note_on_c, 7, 79, 127
1, 12157, Note_on_c, 2, 74, 127
1, 12284, Note_off_c, 12, 71, 127
1, 12285, Note_on_c, 2, 62, 127
1, 12412, Note_off_c, 2, 62, 127
1, 12412, Note_off_c, 2, 74, 127
1, 12412, Note_off_c, 7, 79, 127
1, 12413, Note_on_c, 6, 66, 127
1, 12413, Note_on_c, 10, 81, 127
1, 12413, Note_on_c, 2, 74, 127
1, 12668, Note_off_c, 2, 74, 127
1, 12668, Note_off_c, 10, 81, 127
1, 12668, Note_off_c, 6, 66, 127
1, 12669, Note_on_c, 7, 67, 127
1, 12669, Note_on_c, 12, 83, 127
1, 12669, Note_on_c, 2, 74, 127
1, 12796, Note_off_c, 2, 74, 127
1, 12796, Note_off_c, 12, 83, 127
1, 12797, Note_on_c, 4, 76, 127
1, 12924, Note_off_c, 4, 76, 127
1, 12924, Note_off_c, 7, 67, 127
1, 12925, Note_on_c, 10, 69, 127
1, 12925, Note_on_c, 6, 78, 127
1, 12925, Note_on_c, 2, 74, 127
1, 13180, Note_off_c, 2, 74, 127
1, 13180, Note_off_c, 6, 78, 127
1, 13180, Note_off_c, 10, 69, 127
1, 13181, Note_on_c, 4, 76, 127
1, 13181, Note_on_c, 10, 57, 127
1, 13181, Note_on_c, 1, 73, 127
1, 13308, Note_off_c, 1, 73, 127
1, 13308, Note_off_c, 4, 76, 127
1, 13309, Note_on_c, 2, 74, 127
1, 13436, Note_off_c, 2, 74, 127
1, 13436, Note_off_c, 10, 57, 127
1, 13437, Note_on_c, 2, 62, 127
1, 13437, Note_on_c, 2, 74, 127
1, 13692, Note_off_c, 2, 74, 127
1, 13692, Note_off_c, 2, 62, 127
1, 13693, Note_on_c, 2, 50, 127
1, 13693, Note_on_c, 1, 73, 127
1, 13820, Note_off_c, 1, 73, 127
1, 13821, Note_on_c, 12, 71, 127
1, 13948, Note_off_c, 12, 71, 127
1, 13948, Note_off_c, 2, 50, 127
1, 13949, Note_on_c, 10, 69, 127
1, 14076, Note_off_c, 10, 69, 127
1, 14077, Note_on_c, 7, 67, 127
1, 14204, Note_off_c, 7, 67, 127
1, 14205, Note_on_c, 6, 66, 127
1, 14332, Note_off_c, 6, 66, 127
1, 14333, Note_on_c, 4, 64, 127
1, 14400, Note_off_c, 4, 64, 127
1, 14461, Note_on_c, 2, 74, 127
1, 14716, Note_off_c, 2, 74, 127
1, 14717, Note_on_c, 1, 73, 127
1, 14844, Note_off_c, 1, 73, 127
1, 14845, Note_on_c, 12, 71, 127
1, 14972, Note_off_c, 12, 71, 127
1, 14973, Note_on_c, 10, 69, 127
1, 15100, Note_off_c, 10, 69, 127
1, 15101, Note_on_c, 7, 67, 127
1, 15228, Note_off_c, 7, 67, 127
1, 15229, Note_on_c, 6, 66, 127
1, 15356, Note_off_c, 6, 66, 127
1, 15357, Note_on_c, 4, 64, 127
1, 15469, Note_off_c, 4, 64, 127
1, 15485, Note_on_c, 2, 62, 127
1, 15613, Note_on_c, 10, 69, 127
1, 15722, Note_off_c, 2, 62, 127
1, 15739, Note_off_c, 10, 69, 127
1, 15740, Note_on_c, 6, 66, 127
1, 15867, Note_off_c, 6, 66, 127
1, 15868, Note_on_c, 2, 62, 127
1, 15995, Note_off_c, 2, 62, 127
1, 15996, Note_on_c, 6, 66, 127
1, 16123, Note_off_c, 6, 66, 127
1, 16124, Note_on_c, 10, 57, 127
1, 16251, Note_off_c, 10, 57, 127
1, 16252, Note_on_c, 2, 62, 127
1, 16379, Note_off_c, 2, 62, 127
1, 16380, Note_on_c, 2, 50, 127
1, 16507, Note_off_c, 2, 50, 127
1, 16508, Note_on_c, 2, 62, 127
1, 16636, Note_on_c, 10, 69, 127
1, 16761, Note_off_c, 2, 62, 127
1, 16762, Note_off_c, 10, 69, 127
1, 16763, Note_on_c, 6, 66, 127
1, 16890, Note_off_c, 6, 66, 127
1, 16891, Note_on_c, 2, 62, 127
1, 17018, Note_off_c, 2, 62, 127
1, 17019, Note_on_c, 6, 66, 127
1, 17146, Note_off_c, 6, 66, 127
1, 17147, Note_on_c, 10, 57, 127
1, 17274, Note_off_c, 10, 57, 127
1, 17275, Note_on_c, 2, 62, 127
1, 17402, Note_off_c, 2, 62, 127
1, 17403, Note_on_c, 2, 50, 127
1, 17530, Note_off_c, 2, 50, 127
1, 17531, Note_on_c, 2, 62, 127
1, 17659, Note_on_c, 10, 69, 127
1, 17785, Note_off_c, 10, 69, 127
1, 17786, Note_on_c, 6, 66, 127
1, 17858, Note_off_c, 2, 62, 127
1, 17913, Note_off_c, 6, 66, 127
1, 17914, Note_on_c, 2, 62, 127
1, 18041, Note_off_c, 2, 62, 127
1, 18042, Note_on_c, 6, 66, 127
1, 18169, Note_off_c, 6, 66, 127
1, 18170, Note_on_c, 10, 57, 127
1, 18297, Note_off_c, 10, 57, 127
1, 18298, Note_on_c, 2, 62, 127
1, 18425, Note_off_c, 2, 62, 127
1, 18426, Note_on_c, 2, 50, 127
1, 18553, Note_off_c, 2, 50, 127
1, 18554, Note_on_c, 10, 69, 127
1, 18809, Note_off_c, 10, 69, 127
1, 18810, Note_on_c, 6, 54, 127
1, 18810, Note_on_c, 10, 57, 127
1, 18810, Note_on_c, 2, 62, 127
1, 18810, Note_on_c, 2, 74, 127
1, 18810, Note_on_c, 10, 69, 127
1, 18810, Note_on_c, 6, 66, 127
1, 19037, Note_off_c, 6, 66, 127
1, 19037, Note_off_c, 10, 69, 127
1, 19037, Note_off_c, 2, 74, 127
1, 19037, Note_off_c, 2, 62, 127
1, 19037, Note_off_c, 10, 57, 127
1, 19037, Note_off_c, 6, 54, 127
1, 19066, Note_on_c, 7, 55, 127
1, 19066, Note_on_c, 4, 52, 127
1, 19066, Note_on_c, 1, 61, 127
1, 19066, Note_on_c, 1, 73, 127
1, 19066, Note_on_c, 4, 64, 127
1, 19066, Note_on_c, 7, 67, 127
1, 19293, Note_off_c, 7, 67, 127
1, 19293, Note_off_c, 4, 64, 127
1, 19293, Note_off_c, 1, 73, 127
1, 19293, Note_off_c, 1, 61, 127
1, 19293, Note_off_c, 4, 52, 127
1, 19293, Note_off_c, 7, 55, 127
1, 19322, Note_on_c, 2, 50, 127
1, 19322, Note_on_c, 12, 59, 127
1, 19322, Note_on_c, 6, 54, 127
1, 19322, Note_on_c, 2, 62, 127
1, 19322, Note_on_c, 12, 71, 127
1, 19322, Note_on_c, 6, 66, 127
1, 19549, Note_off_c, 6, 66, 127
1, 19549, Note_off_c, 12, 71, 127
1, 19549, Note_off_c, 2, 62, 127
1, 19549, Note_off_c, 6, 54, 127
1, 19549, Note_off_c, 12, 59, 127
1, 19549, Note_off_c, 2, 50, 127
1, 19578, Note_on_c, 4, 52, 127
1, 19578, Note_on_c, 1, 49, 127
1, 19578, Note_on_c, 10, 57, 127
1, 19578, Note_on_c, 1, 61, 127
1, 19578, Note_on_c, 10, 69, 127
1, 19578, Note_on_c, 4, 64, 127
1, 19805, Note_off_c, 4, 64, 127
1, 19805, Note_off_c, 10, 69, 127
1, 19805, Note_off_c, 1, 61, 127
1, 19805, Note_off_c, 10, 57, 127
1, 19805, Note_off_c, 1, 49, 127
1, 19805, Note_off_c, 4, 52, 127
1, 19834, Note_on_c, 12, 47, 127
1, 19834, Note_on_c, 7, 55, 127
1, 19834, Note_on_c, 2, 50, 127
1, 19834, Note_on_c, 12, 59, 127
1, 19834, Note_on_c, 7, 67, 127
1, 19834, Note_on_c, 2, 62, 127
1, 20061, Note_off_c, 2, 62, 127
1, 20061, Note_off_c, 7, 67, 127
1, 20061, Note_off_c, 12, 59, 127
1, 20061, Note_off_c, 2, 50, 127
1, 20061, Note_off_c, 7, 55, 127
1, 20061, Note_off_c, 12, 47, 127
1, 20090, Note_on_c, 1, 49, 127
1, 20090, Note_on_c, 10, 45, 127
1, 20090, Note_on_c, 6, 54, 127
1, 20090, Note_on_c, 6, 66, 127
1, 20090, Note_on_c, 1, 61, 127
1, 20090, Note_on_c, 10, 57, 127
1, 20317, Note_off_c, 10, 57, 127
1, 20317, Note_off_c, 1, 61, 127
1, 20317, Note_off_c, 6, 66, 127
1, 20317, Note_off_c, 6, 54, 127
1, 20317, Note_off_c, 10, 45, 127
1, 20317, Note_off_c, 1, 49, 127
1, 20346, Note_on_c, 12, 47, 127
1, 20346, Note_on_c, 7, 43, 127
1, 20346, Note_on_c, 4, 52, 127
1, 20346, Note_on_c, 12, 59, 127
1, 20346, Note_on_c, 7, 55, 127
1, 20346, Note_on_c, 4, 64, 127
1, 20573, Note_off_c, 4, 64, 127
1, 20573, Note_off_c, 7, 55, 127
1, 20573, Note_off_c, 12, 59, 127
1, 20573, Note_off_c, 4, 52, 127
1, 20573, Note_off_c, 7, 43, 127
1, 20573, Note_off_c, 12, 47, 127
1, 20602, Note_on_c, 10, 45, 127
1, 20602, Note_on_c, 2, 50, 127
1, 20602, Note_on_c, 6, 42, 127
1, 20602, Note_on_c, 6, 54, 127
1, 20602, Note_on_c, 2, 62, 127
1, 20602, Note_on_c, 10, 57, 127
1, 20857, Note_off_c, 10, 57, 127
1, 20857, Note_off_c, 2, 62, 127
1, 20857, Note_off_c, 6, 54, 127
1, 20857, Note_off_c, 6, 42, 127
1, 20857, Note_off_c, 10, 45, 127
1, 20858, Note_on_c, 7, 43, 127
1, 20858, Note_on_c, 12, 59, 127
1, 20858, Note_on_c, 4, 64, 127
1, 20858, Note_on_c, 2, 62, 127
1, 21113, Note_off_c, 2, 62, 127
1, 21113, Note_off_c, 4, 64, 127
1, 21113, Note_off_c, 12, 59, 127
1, 21113, Note_off_c, 7, 43, 127
1, 21114, Note_on_c, 10, 45, 127
1, 21114, Note_on_c, 2, 62, 127
1, 21114, Note_on_c, 6, 66, 127
1, 21114, Note_on_c, 10, 57, 127
1, 21241, Note_off_c, 6, 66, 127
1, 21242, Note_on_c, 7, 67, 127
1, 21354, Note_off_c, 10, 57, 127
1, 21354, Note_off_c, 2, 62, 127
1, 21369, Note_off_c, 7, 67, 127
1, 21369, Note_off_c, 10, 45, 127
1, 21369, Note_off_c, 2, 50, 127
1, 21370, Note_on_c, 10, 45, 127
1, 21370, Note_on_c, 7, 55, 127
1, 21370, Note_on_c, 4, 64, 127
1, 21370, Note_on_c, 1, 61, 127
1, 21497, Note_off_c, 4, 64, 127
1, 21498, Note_on_c, 6, 66, 127
1, 21610, Note_off_c, 1, 61, 127
1, 21610, Note_off_c, 7, 55, 127
1, 21625, Note_off_c, 6, 66, 127
1, 21625, Note_off_c, 10, 45, 127
1, 21626, Note_on_c, 2, 38, 127
1, 21626, Note_on_c, 2, 62, 127
1, 21626, Note_on_c, 10, 57, 127
1, 21626, Note_on_c, 6, 54, 127
1, 21881, Note_off_c, 6, 54, 127
1, 21881, Note_off_c, 10, 57, 127
1, 21881, Note_off_c, 2, 62, 127
1, 21881, Note_off_c, 2, 38, 127
1, 21882, Note_on_c, 6, 66, 127
1, 21882, Note_on_c, 2, 74, 127
1, 22009, Note_off_c, 2, 74, 127
1, 22010, Note_on_c, 10, 69, 127
1, 22137, Note_off_c, 10, 69, 127
1, 22137, Note_off_c, 6, 66, 127
1, 22138, Note_on_c, 1, 61, 127
1, 22138, Note_on_c, 4, 76, 127
1, 22265, Note_off_c, 4, 76, 127
1, 22266, Note_on_c, 10, 69, 127
1, 22393, Note_off_c, 10, 69, 127
1, 22393, Note_off_c, 1, 61, 127
1, 22394, Note_on_c, 2, 62, 127
1, 22394, Note_on_c, 6, 78, 127
1, 22521, Note_off_c, 6, 78, 127
1, 22522, Note_on_c, 10, 69, 127
1, 22649, Note_off_c, 10, 69, 127
1, 22649, Note_off_c, 2, 62, 127
1, 22650, Note_on_c, 10, 57, 127
1, 22650, Note_on_c, 1, 61, 127
1, 22650, Note_on_c, 4, 76, 127
1, 22777, Note_off_c, 4, 76, 127
1, 22778, Note_on_c, 10, 69, 127
1, 22905, Note_off_c, 10, 69, 127
1, 22905, Note_off_c, 1, 61, 127
1, 22905, Note_off_c, 10, 57, 127
1, 22906, Note_on_c, 6, 66, 127
1, 22906, Note_on_c, 2, 74, 127
1, 23033, Note_off_c, 2, 74, 127
1, 23034, Note_on_c, 10, 69, 127
1, 23161, Note_off_c, 10, 69, 127
1, 23161, Note_off_c, 6, 66, 127
1, 23162, Note_on_c, 1, 61, 127
1, 23162, Note_on_c, 4, 76, 127
1, 23289, Note_off_c, 4, 76, 127
1, 23290, Note_on_c, 10, 69, 127
1, 23417, Note_off_c, 10, 69, 127
1, 23417, Note_off_c, 1, 61, 127
1, 23418, Note_on_c, 2, 62, 127
1, 23418, Note_on_c, 6, 78, 127
1, 23545, Note_off_c, 6, 78, 127
1, 23546, Note_on_c, 10, 69, 127
1, 23673, Note_off_c, 10, 69, 127
1, 23673, Note_off_c, 2, 62, 127
1, 23674, Note_on_c, 10, 57, 127
1, 23674, Note_on_c, 1, 61, 127
1, 23674, Note_on_c, 4, 76, 127
1, 23801, Note_off_c, 4, 76, 127
1, 23802, Note_on_c, 10, 69, 127
1, 23929, Note_off_c, 10, 69, 127
1, 23929, Note_off_c, 1, 61, 127
1, 23929, Note_off_c, 10, 57, 127
1, 23930, Note_on_c, 2, 62, 127
1, 23930, Note_on_c, 6, 78, 127
1, 23930, Note_on_c, 10, 69, 127
1, 24057, Note_off_c, 2, 62, 127
1, 24058, Note_on_c, 10, 57, 127
1, 24185, Note_off_c, 10, 57, 127
1, 24185, Note_off_c, 10, 69, 127
1, 24185, Note_off_c, 6, 78, 127
1, 24186, Note_on_c, 4, 64, 127
1, 24186, Note_on_c, 1, 73, 127
1, 24186, Note_on_c, 10, 69, 127
1, 24313, Note_off_c, 4, 64, 127
1, 24314, Note_on_c, 10, 57, 127
1, 24441, Note_off_c, 10, 57, 127
1, 24441, Note_off_c, 10, 69, 127
1, 24441, Note_off_c, 1, 73, 127
1, 24442, Note_on_c, 6, 66, 127
1, 24442, Note_on_c, 10, 69, 127
1, 24442, Note_on_c, 2, 74, 127
1, 24569, Note_off_c, 6, 66, 127
1, 24570, Note_on_c, 10, 57, 127
1, 24697, Note_off_c, 10, 57, 127
1, 24697, Note_off_c, 2, 74, 127
1, 24697, Note_off_c, 10, 69, 127
1, 24698, Note_on_c, 4, 64, 127
1, 24698, Note_on_c, 10, 69, 127
1, 24698, Note_on_c, 1, 73, 127
1, 24825, Note_off_c, 4, 64, 127
1, 24826, Note_on_c, 10, 57, 127
1, 24953, Note_off_c, 10, 57, 127
1, 24953, Note_off_c, 1, 73, 127
1, 24953, Note_off_c, 10, 69, 127
1, 24954, Note_on_c, 2, 62, 127
1, 24954, Note_on_c, 6, 78, 127
1, 24954, Note_on_c, 10, 69, 127
1, 25081, Note_off_c, 2, 62, 127
1, 25082, Note_on_c, 10, 57, 127
1, 25209, Note_off_c, 10, 57, 127
1, 25209, Note_off_c, 10, 69, 127
1, 25209, Note_off_c, 6, 78, 127
1, 25210, Note_on_c, 4, 64, 127
1, 25210, Note_on_c, 1, 73, 127
1, 25210, Note_on_c, 10, 69, 127
1, 25337, Note_off_c, 4, 64, 127
1, 25338, Note_on_c, 10, 57, 127
1, 25465, Note_off_c, 10, 57, 127
1, 25465, Note_off_c, 10, 69, 127
1, 25465, Note_off_c, 1, 73, 127
1, 25466, Note_on_c, 6, 66, 127
1, 25466, Note_on_c, 2, 74, 127
1, 25466, Note_on_c, 10, 69, 127
1, 25593, Note_off_c, 6, 66, 127
1, 25594, Note_on_c, 10, 57, 127
1, 25721, Note_off_c, 10, 69, 127
1, 25721, Note_off_c, 2, 74, 127
1, 25722, Note_on_c, 4, 64, 127
1, 25722, Note_on_c, 1, 73, 127
1, 25722, Note_on_c, 10, 69, 127
1, 25735, Note_off_c, 10, 57, 127
1, 25850, Note_on_c, 10, 57, 127
1, 25860, Note_off_c, 4, 64, 127
1, 25977, Note_off_c, 10, 57, 127
1, 25978, Note_on_c, 6, 54, 127
1, 25978, Note_on_c, 10, 57, 127
1, 25978, Note_on_c, 2, 62, 127
1, 25978, Note_on_c, 2, 74, 127
1, 25980, Note_off_c, 1, 73, 127
1, 25984, Note_off_c, 10, 69, 127
1, 26105, Note_off_c, 2, 74, 127
1, 26106, Note_on_c, 10, 69, 127
1, 26233, Note_off_c, 10, 69, 127
1, 26233, Note_off_c, 10, 57, 127
1, 26234, Note_on_c, 7, 55, 127
1, 26234, Note_on_c, 12, 71, 127
1, 26361, Note_off_c, 12, 71, 127
1, 26362, Note_on_c, 7, 67, 127
1, 26485, Note_off_c, 2, 62, 127
1, 26485, Note_off_c, 6, 54, 127
1, 26489, Note_off_c, 7, 67, 127
1, 26490, Note_on_c, 1, 61, 127
1, 26490, Note_on_c, 4, 52, 127
1, 26490, Note_on_c, 1, 73, 127
1, 26617, Note_off_c, 1, 73, 127
1, 26618, Note_on_c, 7, 67, 127
1, 26741, Note_off_c, 7, 55, 127
1, 26745, Note_off_c, 7, 67, 127
1, 26746, Note_on_c, 6, 54, 127
1, 26746, Note_on_c, 10, 69, 127
1, 26873, Note_off_c, 10, 69, 127
1, 26874, Note_on_c, 6, 66, 127
1, 26997, Note_off_c, 4, 52, 127
1, 26997, Note_off_c, 1, 61, 127
1, 27001, Note_off_c, 6, 66, 127
1, 27002, Note_on_c, 2, 50, 127
1, 27002, Note_on_c, 12, 59, 127
1, 27002, Note_on_c, 12, 71, 127
1, 27129, Note_off_c, 12, 71, 127
1, 27130, Note_on_c, 6, 66, 127
1, 27253, Note_off_c, 6, 54, 127
1, 27257, Note_off_c, 6, 66, 127
1, 27258, Note_on_c, 4, 52, 127
1, 27258, Note_on_c, 7, 67, 127
1, 27385, Note_off_c, 7, 67, 127
1, 27386, Note_on_c, 4, 64, 127
1, 27509, Note_off_c, 12, 59, 127
1, 27509, Note_off_c, 2, 50, 127
1, 27513, Note_off_c, 4, 64, 127
1, 27514, Note_on_c, 1, 49, 127
1, 27514, Note_on_c, 10, 57, 127
1, 27514, Note_on_c, 10, 69, 127
1, 27641, Note_off_c, 10, 69, 127
1, 27642, Note_on_c, 4, 64, 127
1, 27765, Note_off_c, 4, 52, 127
1, 27769, Note_off_c, 4, 64, 127
1, 27769, Note_off_c, 10, 57, 127
1, 27769, Note_off_c, 1, 49, 127
1, 27770, Note_on_c, 2, 50, 127
1, 27770, Note_on_c, 6, 66, 127
1, 27770, Note_on_c, 2, 62, 127
1, 28025, Note_off_c, 2, 62, 127
1, 28025, Note_off_c, 6, 66, 127
1, 28025, Note_off_c, 2, 50, 127
1, 28026, Note_on_c, 7, 55, 127
1, 28026, Note_on_c, 2, 62, 127
1, 28026, Note_on_c, 7, 67, 127
1, 28153, Note_off_c, 7, 67, 127
1, 28154, Note_on_c, 10, 69, 127
1, 28281, Note_off_c, 10, 69, 127
1, 28281, Note_off_c, 2, 62, 127
1, 28281, Note_off_c, 7, 55, 127
1, 28282, Note_on_c, 10, 57, 127
1, 28282, Note_on_c, 6, 66, 127
1, 28282, Note_on_c, 2, 62, 127
1, 28345, Note_off_c, 6, 66, 127
1, 28346, Note_on_c, 4, 64, 127
1, 28409, Note_off_c, 4, 64, 127
1, 28410, Note_on_c, 6, 66, 127
1, 28473, Note_off_c, 6, 66, 127
1, 28474, Note_on_c, 4, 64, 127
1, 28537, Note_off_c, 2, 62, 127
1, 28537, Note_off_c, 10, 57, 127
1, 28538, Note_on_c, 10, 45, 127
1, 28538, Note_on_c, 4, 52, 127
1, 28538, Note_on_c, 1, 61, 127
1, 28666, Note_off_c, 4, 64, 127
1, 28666, Note_on_c, 2, 62, 127
1, 28730, Note_off_c, 1, 61, 127
1, 28793, Note_off_c, 2, 62, 127
1, 28793, Note_off_c, 4, 52, 127
1, 28793, Note_off_c, 10, 45, 127
1, 28794, Note_on_c, 6, 54, 127
1, 28794, Note_on_c, 2, 50, 127
1, 28794, Note_on_c, 2, 62, 127
1, 28794, Note_on_c, 10, 57, 127
1, 29049, Note_off_c, 10, 57, 127
1, 29049, Note_off_c, 2, 50, 127
1, 29049, Note_off_c, 6, 54, 127
1, 29069, Note_off_c, 2, 62, 127
1, 29074, Note_on_c, 7, 67, 127
1, 29074, Note_on_c, 12, 59, 127
1, 29201, Note_off_c, 7, 67, 127
1, 29202, Note_on_c, 2, 62, 127
1, 29329, Note_off_c, 2, 62, 127
1, 29329, Note_off_c, 12, 59, 127
1, 29330, Note_on_c, 10, 69, 127
1, 29330, Note_on_c, 6, 54, 127
1, 29457, Note_off_c, 10, 69, 127
1, 29458, Note_on_c, 2, 62, 127
1, 29585, Note_off_c, 2, 62, 127
1, 29585, Note_off_c, 6, 54, 127
1, 29586, Note_on_c, 12, 71, 127
1, 29586, Note_on_c, 7, 55, 127
1, 29713, Note_off_c, 12, 71, 127
1, 29714, Note_on_c, 2, 62, 127
1, 29841, Note_off_c, 2, 62, 127
1, 29841, Note_off_c, 7, 55, 127
1, 29842, Note_on_c, 10, 69, 127
1, 29842, Note_on_c, 2, 50, 127
1, 29842, Note_on_c, 6, 54, 127
1, 29969, Note_off_c, 10, 69, 127
1, 29970, Note_on_c, 2, 62, 127
1, 30097, Note_off_c, 2, 62, 127
1, 30097, Note_off_c, 6, 54, 127
1, 30097, Note_off_c, 2, 50, 127
1, 30098, Note_on_c, 7, 67, 127
1, 30098, Note_on_c, 12, 59, 127
1, 30225, Note_off_c, 7, 67, 127
1, 30226, Note_on_c, 2, 62, 127
1, 30353, Note_off_c, 2, 62, 127
1, 30353, Note_off_c, 12, 59, 127
1, 30354, Note_on_c, 10, 69, 127
1, 30354, Note_on_c, 6, 54, 127
1, 30481, Note_off_c, 10, 69, 127
1, 30482, Note_on_c, 2, 62, 127
1, 30609, Note_off_c, 2, 62, 127
1, 30609, Note_off_c, 6, 54, 127
1, 30610, Note_on_c, 12, 71, 127
1, 30610, Note_on_c, 7, 55, 127
1, 30737, Note_off_c, 12, 71, 127
1, 30738, Note_on_c, 2, 62, 127
1, 30865, Note_off_c, 2, 62, 127
1, 30865, Note_off_c, 7, 55, 127
1, 30866, Note_on_c, 10, 69, 127
1, 30866, Note_on_c, 2, 50, 127
1, 30866, Note_on_c, 6, 54, 127
1, 30993, Note_off_c, 10, 69, 127
1, 30994, Note_on_c, 2, 62, 127
1, 31121, Note_off_c, 2, 62, 127
1, 31121, Note_off_c, 6, 54, 127
1, 31121, Note_off_c, 2, 50, 127
1, 31122, Note_on_c, 2, 74, 127
1, 31122, Note_on_c, 12, 71, 127
1, 31122, Note_on_c, 7, 55, 127
1, 31249, Note_off_c, 7, 55, 127
1, 31250, Note_on_c, 2, 50, 127
1, 31377, Note_off_c, 2, 50, 127
1, 31377, Note_off_c, 12, 71, 127
1, 31377, Note_off_c, 2, 74, 127
1, 31378, Note_on_c, 2, 74, 127
1, 31378, Note_on_c, 6, 66, 127
1, 31378, Note_on_c, 10, 57, 127
1, 31505, Note_off_c, 10, 57, 127
1, 31506, Note_on_c, 2, 50, 127
1, 31633, Note_off_c, 2, 50, 127
1, 31633, Note_off_c, 6, 66, 127
1, 31633, Note_off_c, 2, 74, 127
1, 31634, Note_on_c, 7, 67, 127
1, 31634, Note_on_c, 2, 74, 127
1, 31634, Note_on_c, 12, 59, 127
1, 31761, Note_off_c, 12, 59, 127
1, 31762, Note_on_c, 2, 50, 127
1, 31889, Note_off_c, 2, 50, 127
1, 31889, Note_off_c, 2, 74, 127
1, 31889, Note_off_c, 7, 67, 127
1, 31890, Note_on_c, 6, 66, 127
1, 31890, Note_on_c, 2, 74, 127
1, 31890, Note_on_c, 10, 57, 127
1, 32017, Note_off_c, 10, 57, 127
1, 32018, Note_on_c, 2, 50, 127
1, 32145, Note_off_c, 2, 50, 127
1, 32145, Note_off_c, 2, 74, 127
1, 32145, Note_off_c, 6, 66, 127
1, 32146, Note_on_c, 12, 71, 127
1, 32146, Note_on_c, 2, 74, 127
1, 32146, Note_on_c, 7, 55, 127
1, 32273, Note_off_c, 7, 55, 127
1, 32274, Note_on_c, 2, 50, 127
1, 32401, Note_off_c, 2, 50, 127
1, 32401, Note_off_c, 2, 74, 127
1, 32401, Note_off_c, 12, 71, 127
1, 32402, Note_on_c, 2, 74, 127
1, 32402, Note_on_c, 6, 66, 127
1, 32402, Note_on_c, 10, 57, 127
1, 32529, Note_off_c, 10, 57, 127
1, 32530, Note_on_c, 2, 50, 127
1, 32657, Note_off_c, 2, 50, 127
1, 32657, Note_off_c, 6, 66, 127
1, 32657, Note_off_c, 2, 74, 127
1, 32658, Note_on_c, 2, 74, 127
1, 32658, Note_on_c, 7, 67, 127
1, 32658, Note_on_c, 12, 59, 127
1, 32785, Note_off_c, 12, 59, 127
1, 32786, Note_on_c, 2, 50, 127
1, 32913, Note_off_c, 2, 50, 127
1, 32913, Note_off_c, 7, 67, 127
1, 32913, Note_off_c, 2, 74, 127
1, 32914, Note_on_c, 6, 66, 127
1, 32914, Note_on_c, 2, 74, 127
1, 32914, Note_on_c, 10, 57, 127
1, 33041, Note_off_c, 10, 57, 127
1, 33042, Note_on_c, 2, 50, 127
1, 33169, Note_off_c, 2, 50, 127
1, 33169, Note_off_c, 2, 74, 127
1, 33169, Note_off_c, 6, 66, 127
1, 33170, Note_on_c, 7, 79, 127
1, 33170, Note_on_c, 7, 67, 127
1, 33170, Note_on_c, 12, 59, 127
1, 33170, Note_on_c, 2, 62, 127
1, 33297, Note_off_c, 7, 79, 127
1, 33298, Note_on_c, 2, 74, 127
1, 33425, Note_off_c, 2, 74, 127
1, 33425, Note_off_c, 2, 62, 127
1, 33426, Note_on_c, 4, 76, 127
1, 33426, Note_on_c, 0, 60, 127
1, 33553, Note_off_c, 4, 76, 127
1, 33554, Note_on_c, 0, 72, 127
1, 33677, Note_off_c, 12, 59, 127
1, 33677, Note_off_c, 7, 67, 127
1, 33681, Note_off_c, 0, 72, 127
1, 33682, Note_on_c, 6, 78, 127
1, 33682, Note_on_c, 6, 66, 127
1, 33682, Note_on_c, 10, 57, 127
1, 33809, Note_off_c, 6, 78, 127
1, 33810, Note_on_c, 0, 72, 127
1, 33933, Note_off_c, 0, 60, 127
1, 33937, Note_off_c, 0, 72, 127
1, 33938, Note_on_c, 2, 74, 127
1, 33938, Note_on_c, 12, 59, 127
1, 34065, Note_off_c, 2, 74, 127
1, 34066, Note_on_c, 12, 71, 127
1, 34189, Note_off_c, 10, 57, 127
1, 34189, Note_off_c, 6, 66, 127
1, 34193, Note_off_c, 12, 71, 127
1, 34194, Note_on_c, 4, 76, 127
1, 34194, Note_on_c, 7, 55, 127
1, 34194, Note_on_c, 4, 64, 127
1, 34321, Note_off_c, 4, 76, 127
1, 34322, Note_on_c, 12, 71, 127
1, 34445, Note_off_c, 12, 59, 127
1, 34449, Note_off_c, 12, 71, 127
1, 34450, Note_on_c, 0, 72, 127
1, 34450, Note_on_c, 10, 57, 127
1, 34577, Note_off_c, 0, 72, 127
1, 34578, Note_on_c, 10, 69, 127
1, 34701, Note_off_c, 4, 64, 127
1, 34701, Note_off_c, 7, 55, 127
1, 34705, Note_off_c, 10, 69, 127
1, 34705, Note_off_c, 10, 57, 127
1, 34706, Note_on_c, 2, 74, 127
1, 34706, Note_on_c, 2, 62, 127
1, 34706, Note_on_c, 10, 57, 127
1, 34706, Note_on_c, 6, 54, 127
1, 34833, Note_off_c, 2, 74, 127
1, 34834, Note_on_c, 10, 69, 127
1, 34961, Note_off_c, 10, 69, 127
1, 34961, Note_off_c, 6, 54, 127
1, 34961, Note_off_c, 10, 57, 127
1, 34961, Note_off_c, 2, 62, 127
1, 34962, Note_on_c, 12, 71, 127
1, 34962, Note_on_c, 7, 67, 127
1, 34962, Note_on_c, 7, 55, 127
1, 35217, Note_off_c, 7, 55, 127
1, 35217, Note_off_c, 7, 67, 127
1, 35217, Note_off_c, 12, 71, 127
1, 35218, Note_on_c, 7, 67, 127
1, 35218, Note_on_c, 0, 72, 127
1, 35218, Note_on_c, 0, 48, 127
1, 35218, Note_on_c, 4, 52, 127
1, 35345, Note_off_c, 0, 72, 127
1, 35346, Note_on_c, 2, 74, 127
1, 35471, Note_off_c, 7, 67, 127
1, 35472, Note_off_c, 2, 74, 127
1, 35472, Note_off_c, 4, 52, 127
1, 35472, Note_off_c, 0, 48, 127
1, 35473, Note_on_c, 12, 71, 127
1, 35473, Note_on_c, 7, 67, 127
1, 35473, Note_on_c, 2, 50, 127
1, 35536, Note_off_c, 12, 71, 127
1, 35537, Note_on_c, 10, 69, 127
1, 35600, Note_off_c, 10, 69, 127
1, 35601, Note_on_c, 12, 71, 127
1, 35664, Note_off_c, 12, 71, 127
1, 35665, Note_on_c, 10, 69, 127
1, 35726, Note_off_c, 7, 67, 127
1, 35727, Note_off_c, 2, 50, 127
1, 35728, Note_on_c, 6, 66, 127
1, 35728, Note_on_c, 2, 38, 127
1, 35856, Note_off_c, 10, 69, 127
1, 35856, Note_on_c, 7, 67, 127
1, 35915, Note_off_c, 6, 66, 127
1, 35983, Note_off_c, 7, 67, 127
1, 35983, Note_off_c, 2, 38, 127
1, 35984, Note_on_c, 2, 62, 127
1, 35984, Note_on_c, 12, 59, 127
1, 35984, Note_on_c, 7, 67, 127
1, 35984, Note_on_c, 2, 50, 127
1, 35984, Note_on_c, 7, 43, 127
1, 36237, Note_off_c, 7, 43, 127
1, 36237, Note_off_c, 2, 50, 127
1, 36238, Note_off_c, 7, 67, 127
1, 36238, Note_off_c, 12, 59, 127
1, 36238, Note_off_c, 2, 62, 127
1, 36239, Note_on_c, 6, 66, 127
1, 36366, Note_off_c, 6, 66, 127
1, 36367, Note_on_c, 4, 64, 127
1, 36494, Note_off_c, 4, 64, 127
1, 36495, Note_on_c, 2, 62, 127
1, 36622, Note_off_c, 2, 62, 127
1, 36623, Note_on_c, 0, 60, 127
1, 36750, Note_off_c, 0, 60, 127
1, 36751, Note_on_c, 12, 59, 127
1, 36878, Note_off_c, 12, 59, 127
1, 36879, Note_on_c, 10, 57, 127
1, 37006, Note_off_c, 10, 57, 127
1, 37007, Note_on_c, 7, 55, 127
1, 37134, Note_off_c, 7, 55, 127
1, 37135, Note_on_c, 4, 76, 127
1, 37262, Note_off_c, 4, 76, 127
1, 37263, Note_on_c, 2, 74, 127
1, 37390, Note_off_c, 2, 74, 127
1, 37391, Note_on_c, 0, 72, 127
1, 37518, Note_off_c, 0, 72, 127
1, 37519, Note_on_c, 12, 71, 127
1, 37646, Note_off_c, 12, 71, 127
1, 37647, Note_on_c, 10, 69, 127
1, 37774, Note_off_c, 10, 69, 127
1, 37775, Note_on_c, 7, 67, 127
1, 37902, Note_off_c, 7, 67, 127
1, 37903, Note_on_c, 6, 66, 127
1, 38030, Note_off_c, 6, 66, 127
1, 38031, Note_on_c, 4, 64, 127
1, 38159, Note_on_c, 12, 71, 127
1, 38252, Note_off_c, 4, 64, 127
1, 38285, Note_off_c, 12, 71, 127
1, 38286, Note_on_c, 7, 67, 127
1, 38413, Note_off_c, 7, 67, 127
1, 38414, Note_on_c, 4, 64, 127
1, 38541, Note_off_c, 4, 64, 127
1, 38542, Note_on_c, 7, 67, 127
1, 38669, Note_off_c, 7, 67, 127
1, 38670, Note_on_c, 12, 59, 127
1, 38797, Note_off_c, 12, 59, 127
1, 38798, Note_on_c, 4, 64, 127
1, 38925, Note_off_c, 4, 64, 127
1, 38926, Note_on_c, 4, 52, 127
1, 39053, Note_off_c, 4, 52, 127
1, 39054, Note_on_c, 4, 64, 127
1, 39182, Note_on_c, 12, 71, 127
1, 39307, Note_off_c, 4, 64, 127
1, 39308, Note_off_c, 12, 71, 127
1, 39309, Note_on_c, 7, 67, 127
1, 39436, Note_off_c, 7, 67, 127
1, 39437, Note_on_c, 4, 64, 127
1, 39564, Note_off_c, 4, 64, 127
1, 39565, Note_on_c, 7, 67, 127
1, 39692, Note_off_c, 7, 67, 127
1, 39693, Note_on_c, 12, 59, 127
1, 39820, Note_off_c, 12, 59, 127
1, 39821, Note_on_c, 4, 64, 127
1, 39948, Note_off_c, 4, 64, 127
1, 39949, Note_on_c, 4, 52, 127
1, 40076, Note_off_c, 4, 52, 127
1, 40077, Note_on_c, 4, 64, 127
1, 40205, Note_on_c, 12, 71, 127
1, 40331, Note_off_c, 12, 71, 127
1, 40332, Note_on_c, 7, 67, 127
1, 40399, Note_off_c, 4, 64, 127
1, 40459, Note_off_c, 7, 67, 127
1, 40460, Note_on_c, 4, 64, 127
1, 40587, Note_off_c, 4, 64, 127
1, 40588, Note_on_c, 7, 67, 127
1, 40715, Note_off_c, 7, 67, 127
1, 40716, Note_on_c, 12, 59, 127
1, 40843, Note_off_c, 12, 59, 127
1, 40844, Note_on_c, 4, 64, 127
1, 40971, Note_off_c, 4, 64, 127
1, 40972, Note_on_c, 4, 52, 127
1, 41099, Note_off_c, 4, 52, 127
1, 41100, Note_on_c, 12, 71, 127
1, 41355, Note_off_c, 12, 71, 127
1, 41356, Note_on_c, 7, 67, 127
1, 41356, Note_on_c, 12, 71, 127
1, 41356, Note_on_c, 4, 76, 127
1, 41356, Note_on_c, 4, 64, 127
1, 41356, Note_on_c, 7, 55, 127
1, 41356, Note_on_c, 12, 59, 127
1, 41583, Note_off_c, 12, 59, 127
1, 41583, Note_off_c, 7, 55, 127
1, 41583, Note_off_c, 4, 64, 127
1, 41583, Note_off_c, 4, 76, 127
1, 41583, Note_off_c, 12, 71, 127
1, 41583, Note_off_c, 7, 67, 127
1, 41612, Note_on_c, 2, 74, 127
1, 41612, Note_on_c, 6, 66, 127
1, 41612, Note_on_c, 10, 69, 127
1, 41612, Note_on_c, 6, 54, 127
1, 41612, Note_on_c, 2, 62, 127
1, 41612, Note_on_c, 10, 57, 127
1, 41839, Note_off_c, 10, 57, 127
1, 41839, Note_off_c, 2, 62, 127
1, 41839, Note_off_c, 6, 54, 127
1, 41839, Note_off_c, 10, 69, 127
1, 41839, Note_off_c, 6, 66, 127
1, 41839, Note_off_c, 2, 74, 127
1, 41868, Note_on_c, 4, 64, 127
1, 41868, Note_on_c, 7, 67, 127
1, 41868, Note_on_c, 0, 72, 127
1, 41868, Note_on_c, 0, 60, 127
1, 41868, Note_on_c, 4, 52, 127
1, 41868, Note_on_c, 7, 55, 127
1, 42095, Note_off_c, 7, 55, 127
1, 42095, Note_off_c, 4, 52, 127
1, 42095, Note_off_c, 0, 60, 127
1, 42095, Note_off_c, 0, 72, 127
1, 42095, Note_off_c, 7, 67, 127
1, 42095, Note_off_c, 4, 64, 127
1, 42124, Note_on_c, 12, 71, 127
1, 42124, Note_on_c, 3, 63, 127
1, 42124, Note_on_c, 6, 66, 127
1, 42124, Note_on_c, 12, 59, 127
1, 42124, Note_on_c, 3, 51, 127
1, 42124, Note_on_c, 6, 54, 127
1, 42351, Note_off_c, 6, 54, 127
1, 42351, Note_off_c, 3, 51, 127
1, 42351, Note_off_c, 12, 59, 127
1, 42351, Note_off_c, 6, 66, 127
1, 42351, Note_off_c, 3, 63, 127
1, 42351, Note_off_c, 12, 71, 127
1, 42380, Note_on_c, 4, 64, 127
1, 42380, Note_on_c, 0, 60, 127
1, 42380, Note_on_c, 10, 69, 127
1, 42380, Note_on_c, 4, 52, 127
1, 42380, Note_on_c, 10, 57, 127
1, 42380, Note_on_c, 0, 48, 127
1, 42607, Note_off_c, 0, 48, 127
1, 42607, Note_off_c, 10, 57, 127
1, 42607, Note_off_c, 4, 52, 127
1, 42607, Note_off_c, 10, 69, 127
1, 42607, Note_off_c, 0, 60, 127
1, 42607, Note_off_c, 4, 64, 127
1, 42636, Note_on_c, 12, 59, 127
1, 42636, Note_on_c, 2, 62, 127
1, 42636, Note_on_c, 7, 67, 127
1, 42636, Note_on_c, 12, 47, 127
1, 42636, Note_on_c, 2, 50, 127
1, 42636, Note_on_c, 7, 55, 127
1, 42863, Note_off_c, 7, 55, 127
1, 42863, Note_off_c, 2, 50, 127
1, 42863, Note_off_c, 12, 47, 127
1, 42863, Note_off_c, 7, 67, 127
1, 42863, Note_off_c, 2, 62, 127
1, 42863, Note_off_c, 12, 59, 127
1, 42892, Note_on_c, 10, 57, 127
1, 42892, Note_on_c, 0, 60, 127
1, 42892, Note_on_c, 6, 66, 127
1, 42892, Note_on_c, 10, 45, 127
1, 42892, Note_on_c, 0, 48, 127
1, 42892, Note_on_c, 6, 54, 127
1, 43119, Note_off_c, 6, 54, 127
1, 43119, Note_off_c, 0, 48, 127
1, 43119, Note_off_c, 10, 45, 127
1, 43119, Note_off_c, 6, 66, 127
1, 43119, Note_off_c, 0, 60, 127
1, 43119, Note_off_c, 10, 57, 127
1, 43148, Note_on_c, 12, 59, 127
1, 43148, Note_on_c, 4, 64, 127
1, 43148, Note_on_c, 7, 55, 127
1, 43148, Note_on_c, 12, 47, 127
1, 43148, Note_on_c, 4, 52, 127
1, 43148, Note_on_c, 7, 43, 127
1, 43403, Note_off_c, 7, 43, 127
1, 43403, Note_off_c, 12, 47, 127
1, 43403, Note_off_c, 7, 55, 127
1, 43403, Note_off_c, 4, 64, 127
1, 43403, Note_off_c, 12, 59, 127
1, 43404, Note_on_c, 4, 64, 127
1, 43404, Note_on_c, 0, 60, 127
1, 43404, Note_on_c, 6, 66, 127
1, 43404, Note_on_c, 10, 45, 127
1, 43659, Note_off_c, 10, 45, 127
1, 43659, Note_off_c, 6, 66, 127
1, 43659, Note_off_c, 0, 60, 127
1, 43659, Note_off_c, 4, 64, 127
1, 43660, Note_on_c, 7, 67, 127
1, 43660, Note_on_c, 12, 59, 127
1, 43660, Note_on_c, 4, 64, 127
1, 43660, Note_on_c, 12, 47, 127
1, 43787, Note_off_c, 7, 67, 127
1, 43788, Note_on_c, 10, 69, 127
1, 43900, Note_off_c, 4, 64, 127
1, 43900, Note_off_c, 12, 59, 127
1, 43915, Note_off_c, 10, 69, 127
1, 43915, Note_off_c, 12, 47, 127
1, 43915, Note_off_c, 4, 52, 127
1, 43916, Note_on_c, 3, 63, 127
1, 43916, Note_on_c, 6, 66, 127
1, 43916, Note_on_c, 10, 57, 127
1, 43916, Note_on_c, 12, 47, 127
1, 44043, Note_off_c, 6, 66, 127
1, 44044, Note_on_c, 7, 67, 127
1, 44156, Note_off_c, 10, 57, 127
1, 44156, Note_off_c, 3, 63, 127
1, 44171, Note_off_c, 7, 67, 127
1, 44171, Note_off_c, 12, 47, 127
1, 44172, Note_on_c, 7, 55, 127
1, 44172, Note_on_c, 12, 59, 127
1, 44172, Note_on_c, 4, 64, 127
1, 44172, Note_on_c, 4, 52, 127
1, 44427, Note_off_c, 4, 52, 127
1, 44427, Note_off_c, 4, 64, 127
1, 44427, Note_off_c, 12, 59, 127
1, 44427, Note_off_c, 7, 55, 127
1, 44428, Note_on_c, 4, 76, 127
1, 44428, Note_on_c, 7, 67, 127
1, 44555, Note_off_c, 4, 76, 127
1, 44556, Note_on_c, 12, 71, 127
1, 44683, Note_off_c, 12, 71, 127
1, 44683, Note_off_c, 7, 67, 127
1, 44684, Note_on_c, 6, 78, 127
1, 44684, Note_on_c, 3, 63, 127
1, 44811, Note_off_c, 6, 78, 127
1, 44812, Note_on_c, 12, 71, 127
1, 44939, Note_off_c, 12, 71, 127
1, 44939, Note_off_c, 3, 63, 127
1, 44940, Note_on_c, 7, 79, 127
1, 44940, Note_on_c, 4, 64, 127
1, 45067, Note_off_c, 7, 79, 127
1, 45068, Note_on_c, 12, 71, 127
1, 45195, Note_off_c, 12, 71, 127
1, 45195, Note_off_c, 4, 64, 127
1, 45196, Note_on_c, 6, 78, 127
1, 45196, Note_on_c, 3, 63, 127
1, 45196, Note_on_c, 12, 59, 127
1, 45323, Note_off_c, 6, 78, 127
1, 45324, Note_on_c, 12, 71, 127
1, 45451, Note_off_c, 12, 71, 127
1, 45451, Note_off_c, 12, 59, 127
1, 45451, Note_off_c, 3, 63, 127
1, 45452, Note_on_c, 4, 76, 127
1, 45452, Note_on_c, 7, 67, 127
1, 45579, Note_off_c, 4, 76, 127
1, 45580, Note_on_c, 12, 71, 127
1, 45707, Note_off_c, 12, 71, 127
1, 45707, Note_off_c, 7, 67, 127
1, 45708, Note_on_c, 6, 78, 127
1, 45708, Note_on_c, 3, 63, 127
1, 45835, Note_off_c, 6, 78, 127
1, 45836, Note_on_c, 12, 71, 127
1, 45963, Note_off_c, 12, 71, 127
1, 45963, Note_off_c, 3, 63, 127
1, 45964, Note_on_c, 7, 79, 127
1, 45964, Note_on_c, 4, 64, 127
1, 46091, Note_off_c, 7, 79, 127
1, 46092, Note_on_c, 12, 71, 127
1, 46219, Note_off_c, 12, 71, 127
1, 46219, Note_off_c, 4, 64, 127
1, 46220, Note_on_c, 6, 78, 127
1, 46220, Note_on_c, 12, 59, 127
1, 46220, Note_on_c, 3, 63, 127
1, 46347, Note_off_c, 6, 78, 127
1, 46348, Note_on_c, 12, 71, 127
1, 46475, Note_off_c, 12, 71, 127
1, 46475, Note_off_c, 3, 63, 127
1, 46475, Note_off_c, 12, 59, 127
1, 46476, Note_on_c, 7, 79, 127
1, 46476, Note_on_c, 12, 83, 127
1, 46476, Note_on_c, 4, 64, 127
1, 46603, Note_off_c, 4, 64, 127
1, 46604, Note_on_c, 12, 59, 127
1, 46731, Note_off_c, 12, 59, 127
1, 46731, Note_off_c, 12, 83, 127
1, 46731, Note_off_c, 7, 79, 127
1, 46732, Note_on_c, 3, 75, 127
1, 46732, Note_on_c, 12, 83, 127
1, 46732, Note_on_c, 6, 66, 127
1, 46859, Note_off_c, 6, 66, 127
1, 46860, Note_on_c, 12, 59, 127
1, 46987, Note_off_c, 12, 59, 127
1, 46987, Note_off_c, 12, 83, 127
1, 46987, Note_off_c, 3, 75, 127
1, 46988, Note_on_c, 12, 83, 127
1, 46988, Note_on_c, 4, 76, 127
1, 46988, Note_on_c, 7, 67, 127
1, 47115, Note_off_c, 7, 67, 127
1, 47116, Note_on_c, 12, 59, 127
1, 47243, Note_off_c, 12, 59, 127
1, 47243, Note_off_c, 4, 76, 127
1, 47243, Note_off_c, 12, 83, 127
1, 47244, Note_on_c, 12, 83, 127
1, 47244, Note_on_c, 3, 75, 127
1, 47244, Note_on_c, 6, 66, 127
1, 47371, Note_off_c, 6, 66, 127
1, 47372, Note_on_c, 12, 59, 127
1, 47499, Note_off_c, 12, 59, 127
1, 47499, Note_off_c, 3, 75, 127
1, 47499, Note_off_c, 12, 83, 127
1, 47500, Note_on_c, 7, 79, 127
1, 47500, Note_on_c, 12, 83, 127
1, 47500, Note_on_c, 4, 64, 127
1, 47627, Note_off_c, 4, 64, 127
1, 47628, Note_on_c, 12, 59, 127
1, 47755, Note_off_c, 12, 59, 127
1, 47755, Note_off_c, 12, 83, 127
1, 47755, Note_off_c, 7, 79, 127
1, 47756, Note_on_c, 12, 83, 127
1, 47756, Note_on_c, 3, 75, 127
1, 47756, Note_on_c, 6, 66, 127
1, 47883, Note_off_c, 6, 66, 127
1, 47884, Note_on_c, 12, 59, 127
1, 48011, Note_off_c, 12, 59, 127
1, 48011, Note_off_c, 3, 75, 127
1, 48011, Note_off_c, 12, 83, 127
1, 48012, Note_on_c, 4, 76, 127
1, 48012, Note_on_c, 12, 83, 127
1, 48012, Note_on_c, 7, 67, 127
1, 48139, Note_off_c, 7, 67, 127
1, 48140, Note_on_c, 12, 59, 127
1, 48267, Note_off_c, 12, 59, 127
1, 48267, Note_off_c, 12, 83, 127
1, 48267, Note_off_c, 4, 76, 127
1, 48268, Note_on_c, 12, 71, 127
1, 48268, Note_on_c, 3, 75, 127
1, 48268, Note_on_c, 10, 69, 127
1, 48395, Note_off_c, 10, 69, 127
1, 48396, Note_on_c, 12, 59, 127
1, 48523, Note_off_c, 12, 59, 127
1, 48523, Note_off_c, 3, 75, 127
1, 48523, Note_off_c, 12, 71, 127
1, 48524, Note_on_c, 0, 72, 127
1, 48524, Note_on_c, 4, 76, 127
1, 48524, Note_on_c, 7, 67, 127
1, 48651, Note_off_c, 7, 67, 127
1, 48651, Note_off_c, 4, 76, 127
1, 48652, Note_on_c, 6, 78, 127
1, 48652, Note_on_c, 10, 57, 127
1, 48777, Note_off_c, 0, 72, 127
1, 48778, Note_off_c, 10, 57, 127
1, 48778, Note_off_c, 6, 78, 127
1, 48779, Note_on_c, 12, 71, 127
1, 48779, Note_on_c, 4, 76, 127
1, 48779, Note_on_c, 6, 66, 127
1, 48779, Note_on_c, 12, 59, 127
1, 48842, Note_off_c, 4, 76, 127
1, 48843, Note_on_c, 3, 75, 127
1, 48906, Note_off_c, 3, 75, 127
1, 48907, Note_on_c, 4, 76, 127
1, 48970, Note_off_c, 4, 76, 127
1, 48971, Note_on_c, 3, 75, 127
1, 49034, Note_off_c, 12, 59, 127
1, 49034, Note_off_c, 6, 66, 127
1, 49034, Note_off_c, 12, 71, 127
1, 49035, Note_on_c, 10, 69, 127
1, 49035, Note_on_c, 12, 47, 127
1, 49035, Note_on_c, 12, 59, 127
1, 49163, Note_off_c, 3, 75, 127
1, 49163, Note_on_c, 4, 76, 127
1, 49288, Note_off_c, 10, 69, 127
1, 49289, Note_off_c, 4, 76, 127
1, 49289, Note_off_c, 12, 59, 127
1, 49289, Note_off_c, 12, 47, 127
1, 49290, Note_on_c, 7, 67, 127
1, 49290, Note_on_c, 4, 76, 127
1, 49290, Note_on_c, 4, 52, 127
1, 49290, Note_on_c, 12, 59, 127
1, 49545, Note_off_c, 12, 59, 127
1, 49545, Note_off_c, 4, 52, 127
1, 49545, Note_off_c, 4, 76, 127
1, 49545, Note_off_c, 7, 67, 127
1, 49546, Note_on_c, 4, 76, 127
1, 49546, Note_on_c, 12, 71, 127
1, 49546, Note_on_c, 7, 67, 127
1, 49666, Note_off_c, 12, 71, 127
1, 49673, Note_off_c, 4, 76, 127
1, 49674, Note_on_c, 12, 71, 127
1, 49801, Note_off_c, 12, 71, 127
1, 49802, Note_on_c, 0, 72, 127
1, 49802, Note_on_c, 10, 69, 127
1, 49922, Note_off_c, 10, 69, 127
1, 49929, Note_off_c, 0, 72, 127
1, 49930, Note_on_c, 10, 69, 127
1, 50053, Note_off_c, 7, 67, 127
1, 50057, Note_off_c, 10, 69, 127
1, 50058, Note_on_c, 2, 74, 127
1, 50058, Note_on_c, 6, 66, 127
1, 50185, Note_off_c, 2, 74, 127
1, 50186, Note_on_c, 10, 69, 127
1, 50313, Note_off_c, 10, 69, 127
1, 50314, Note_on_c, 12, 71, 127
1, 50314, Note_on_c, 7, 67, 127
1, 50434, Note_off_c, 7, 67, 127
1, 50441, Note_off_c, 12, 71, 127
1, 50442, Note_on_c, 7, 67, 127
1, 50565, Note_off_c, 6, 66, 127
1, 50569, Note_off_c, 7, 67, 127
1, 50570, Note_on_c, 0, 72, 127
1, 50570, Note_on_c, 4, 64, 127
1, 50697, Note_off_c, 0, 72, 127
1, 50698, Note_on_c, 7, 67, 127
1, 50825, Note_off_c, 7, 67, 127
1, 50826, Note_on_c, 10, 69, 127
1, 50826, Note_on_c, 6, 66, 127
1, 50946, Note_off_c, 6, 66, 127
1, 50953, Note_off_c, 10, 69, 127
1, 50954, Note_on_c, 6, 66, 127
1, 51077, Note_off_c, 4, 64, 127
1, 51081, Note_off_c, 6, 66, 127
1, 51082, Note_on_c, 12, 71, 127
1, 51082, Note_on_c, 3, 63, 127
1, 51209, Note_off_c, 12, 71, 127
1, 51210, Note_on_c, 6, 66, 127
1, 51335, Note_off_c, 3, 63, 127
1, 51336, Note_off_c, 6, 66, 127
1, 51337, Note_on_c, 4, 64, 127
1, 51337, Note_on_c, 7, 67, 127
1, 51592, Note_off_c, 7, 67, 127
1, 51592, Note_off_c, 4, 64, 127
1, 51593, Note_on_c, 12, 59, 127
1, 51593, Note_on_c, 4, 64, 127
1, 51593, Note_on_c, 7, 67, 127
1, 51593, Note_on_c, 4, 52, 127
1, 51720, Note_off_c, 4, 52, 127
1, 51721, Note_on_c, 12, 47, 127
1, 51848, Note_off_c, 12, 47, 127
1, 51848, Note_off_c, 12, 59, 127
1, 51849, Note_on_c, 10, 57, 127
1, 51849, Note_on_c, 0, 48, 127
1, 51976, Note_off_c, 0, 48, 127
1, 51977, Note_on_c, 10, 45, 127
1, 52100, Note_off_c, 7, 67, 127
1, 52100, Note_off_c, 4, 64, 127
1, 52104, Note_off_c, 10, 45, 127
1, 52105, Note_on_c, 2, 62, 127
1, 52105, Note_on_c, 6, 66, 127
1, 52105, Note_on_c, 2, 50, 127
1, 52232, Note_off_c, 2, 50, 127
1, 52233, Note_on_c, 10, 45, 127
1, 52356, Note_off_c, 10, 57, 127
1, 52360, Note_off_c, 10, 45, 127
1, 52361, Note_on_c, 7, 55, 127
1, 52361, Note_on_c, 12, 47, 127
1, 52488, Note_off_c, 12, 47, 127
1, 52489, Note_on_c, 7, 43, 127
1, 52612, Note_off_c, 6, 66, 127
1, 52612, Note_off_c, 2, 62, 127
1, 52616, Note_off_c, 7, 43, 127
1, 52617, Note_on_c, 0, 60, 127
1, 52617, Note_on_c, 4, 64, 127
1, 52617, Note_on_c, 0, 48, 127
1, 52744, Note_off_c, 0, 48, 127
1, 52745, Note_on_c, 7, 43, 127
1, 52868, Note_off_c, 7, 55, 127
1, 52872, Note_off_c, 7, 43, 127
1, 52873, Note_on_c, 6, 54, 127
1, 52873, Note_on_c, 10, 45, 127
1, 53000, Note_off_c, 10, 45, 127
1, 53001, Note_on_c, 6, 42, 127
1, 53124, Note_off_c, 4, 64, 127
1, 53124, Note_off_c, 0, 60, 127
1, 53128, Note_off_c, 6, 42, 127
1, 53129, Note_on_c, 3, 63, 127
1, 53129, Note_on_c, 12, 59, 127
1, 53129, Note_on_c, 12, 47, 127
1, 53256, Note_off_c, 12, 47, 127
1, 53257, Note_on_c, 6, 42, 127
1, 53380, Note_off_c, 6, 54, 127
1, 53384, Note_off_c, 6, 42, 127
1, 53384, Note_off_c, 12, 59, 127
1, 53384, Note_off_c, 3, 63, 127
1, 53385, Note_on_c, 12, 59, 127
1, 53385, Note_on_c, 4, 64, 127
1, 53385, Note_on_c, 7, 43, 127
1, 53385, Note_on_c, 4, 52, 127
1, 53512, Note_off_c, 4, 64, 127
1, 53512, Note_off_c, 12, 59, 127
1, 53513, Note_on_c, 7, 67, 127
1, 53640, Note_off_c, 7, 67, 127
1, 53640, Note_off_c, 4, 52, 127
1, 53640, Note_off_c, 7, 43, 127
1, 53641, Note_on_c, 6, 66, 127
1, 53641, Note_on_c, 12, 47, 127
1, 53641, Note_on_c, 3, 51, 127
1, 53768, Note_off_c, 6, 66, 127
1, 53769, Note_on_c, 10, 69, 127
1, 53896, Note_off_c, 10, 69, 127
1, 53896, Note_off_c, 3, 51, 127
1, 53896, Note_off_c, 12, 47, 127
1, 53897, Note_on_c, 7, 67, 127
1, 53897, Note_on_c, 4, 52, 127
1, 53897, Note_on_c, 4, 40, 127
1, 54024, Note_off_c, 7, 67, 127
1, 54025, Note_on_c, 12, 71, 127
1, 54152, Note_off_c, 12, 71, 127
1, 54152, Note_off_c, 4, 40, 127
1, 54152, Note_off_c, 4, 52, 127
1, 54153, Note_on_c, 10, 69, 127
1, 54153, Note_on_c, 6, 54, 127
1, 54280, Note_off_c, 10, 69, 127
1, 54281, Note_on_c, 0, 72, 127
1, 54408, Note_off_c, 0, 72, 127
1, 54408, Note_off_c, 6, 54, 127
1, 54409, Note_on_c, 12, 71, 127
1, 54409, Note_on_c, 7, 55, 127
1, 54536, Note_off_c, 12, 71, 127
1, 54537, Note_on_c, 2, 74, 127
1, 54664, Note_off_c, 2, 74, 127
1, 54664, Note_off_c, 7, 55, 127
1, 54665, Note_on_c, 1, 73, 127
1, 54665, Note_on_c, 4, 52, 127
1, 54792, Note_off_c, 1, 73, 127
1, 54793, Note_on_c, 4, 76, 127
1, 54920, Note_off_c, 4, 76, 127
1, 54920, Note_off_c, 4, 52, 127
1, 54921, Note_on_c, 2, 74, 127
1, 54921, Note_on_c, 12, 59, 127
1, 55048, Note_off_c, 2, 74, 127
1, 55049, Note_on_c, 6, 78, 127
1, 55176, Note_off_c, 6, 78, 127
1, 55176, Note_off_c, 12, 59, 127
1, 55177, Note_on_c, 4, 76, 127
1, 55177, Note_on_c, 1, 61, 127
1, 55304, Note_off_c, 4, 76, 127
1, 55305, Note_on_c, 7, 79, 127
1, 55432, Note_off_c, 7, 79, 127
1, 55432, Note_off_c, 1, 61, 127
1, 55433, Note_on_c, 6, 78, 127
1, 55433, Note_on_c, 2, 62, 127
1, 55688, Note_off_c, 2, 62, 127
1, 55688, Note_off_c, 6, 78, 127
1, 55689, Note_on_c, 12, 83, 127
1, 55689, Note_on_c, 6, 66, 127
1, 55689, Note_on_c, 12, 71, 127
1, 55689, Note_on_c, 2, 62, 127
1, 55816, Note_off_c, 12, 83, 127
1, 55817, Note_on_c, 6, 78, 127
1, 55944, Note_off_c, 6, 78, 127
1, 55944, Note_off_c, 6, 66, 127
1, 55945, Note_on_c, 7, 79, 127
1, 55945, Note_on_c, 4, 64, 127
1, 56072, Note_off_c, 7, 79, 127
1, 56073, Note_on_c, 4, 76, 127
1, 56196, Note_off_c, 2, 62, 127
1, 56196, Note_off_c, 12, 71, 127
1, 56200, Note_off_c, 4, 76, 127
1, 56201, Note_on_c, 10, 81, 127
1, 56201, Note_on_c, 10, 69, 127
1, 56201, Note_on_c, 1, 61, 127
1, 56328, Note_off_c, 10, 81, 127
1, 56329, Note_on_c, 4, 76, 127
1, 56452, Note_off_c, 4, 64, 127
1, 56456, Note_off_c, 4, 76, 127
1, 56457, Note_on_c, 6, 78, 127
1, 56457, Note_on_c, 2, 62, 127
1, 56584, Note_off_c, 6, 78, 127
1, 56585, Note_on_c, 2, 74, 127
1, 56708, Note_off_c, 1, 61, 127
1, 56708, Note_off_c, 10, 69, 127
1, 56712, Note_off_c, 2, 74, 127
1, 56713, Note_on_c, 7, 79, 127
1, 56713, Note_on_c, 7, 67, 127
1, 56713, Note_on_c, 12, 59, 127
1, 56840, Note_off_c, 7, 79, 127
1, 56841, Note_on_c, 2, 74, 127
1, 56964, Note_off_c, 2, 62, 127
1, 56968, Note_off_c, 2, 74, 127
1, 56969, Note_on_c, 4, 76, 127
1, 56969, Note_on_c, 1, 61, 127
1, 57096, Note_off_c, 4, 76, 127
1, 57097, Note_on_c, 1, 73, 127
1, 57220, Note_off_c, 12, 59, 127
1, 57220, Note_off_c, 7, 67, 127
1, 57224, Note_off_c, 1, 73, 127
1, 57224, Note_off_c, 1, 61, 127
1, 57225, Note_on_c, 6, 78, 127
1, 57225, Note_on_c, 1, 61, 127
1, 57225, Note_on_c, 6, 66, 127
1, 57225, Note_on_c, 11, 58, 127
1, 57352, Note_off_c, 6, 78, 127
1, 57353, Note_on_c, 1, 73, 127
1, 57480, Note_off_c, 1, 73, 127
1, 57480, Note_off_c, 11, 58, 127
1, 57480, Note_off_c, 6, 66, 127
1, 57480, Note_off_c, 1, 61, 127
1, 57481, Note_on_c, 2, 74, 127
1, 57481, Note_on_c, 6, 66, 127
1, 57481, Note_on_c, 12, 59, 127
1, 57608, Note_off_c, 2, 74, 127
1, 57609, Note_on_c, 1, 73, 127
1, 57734, Note_off_c, 6, 66, 127
1, 57735, Note_off_c, 1, 73, 127
1, 57735, Note_off_c, 12, 59, 127
1, 57736, Note_on_c, 4, 64, 127
1, 57736, Note_on_c, 12, 71, 127
1, 57736, Note_on_c, 7, 55, 127
1, 57863, Note_off_c, 12, 71, 127
1, 57864, Note_on_c, 1, 73, 127
1, 57989, Note_off_c, 4, 64, 127
1, 57990, Note_off_c, 1, 73, 127
1, 57990, Note_off_c, 7, 55, 127
1, 57991, Note_on_c, 6, 66, 127
1, 57991, Note_on_c, 2, 62, 127
1, 57991, Note_on_c, 6, 54, 127
1, 58246, Note_off_c, 6, 54, 127
1, 58246, Note_off_c, 2, 62, 127
1, 58246, Note_off_c, 6, 66, 127
1, 58247, Note_on_c, 12, 71, 127
1, 58247, Note_on_c, 1, 61, 127
1, 58247, Note_on_c, 6, 42, 127
1, 58310, Note_off_c, 12, 71, 127
1, 58311, Note_on_c, 11, 70, 127
1, 58374, Note_off_c, 11, 70, 127
1, 58375, Note_on_c, 8, 68, 127
1, 58438, Note_off_c, 8, 68, 127
1, 58439, Note_on_c, 11, 70, 127
1, 58502, Note_off_c, 11, 70, 127
1, 58502, Note_off_c, 6, 42, 127
1, 58502, Note_off_c, 1, 61, 127
1, 58503, Note_on_c, 2, 62, 127
1, 58503, Note_on_c, 6, 66, 127
1, 58503, Note_on_c, 12, 71, 127
1, 58503, Note_on_c, 12, 47, 127
1, 58756, Note_off_c, 12, 47, 127
1, 58757, Note_off_c, 12, 71, 127
1, 58757, Note_off_c, 6, 66, 127
1, 58757, Note_off_c, 2, 62, 127
1, 58758, Note_on_c, 10, 69, 127
1, 58885, Note_off_c, 10, 69, 127
1, 58886, Note_on_c, 7, 67, 127
1, 59013, Note_off_c, 7, 67, 127
1, 59014, Note_on_c, 6, 66, 127
1, 59141, Note_off_c, 6, 66, 127
1, 59142, Note_on_c, 4, 64, 127
1, 59269, Note_off_c, 4, 64, 127
1, 59270, Note_on_c, 2, 62, 127
1, 59397, Note_off_c, 2, 62, 127
1, 59398, Note_on_c, 1, 61, 127
1, 59483, Note_off_c, 1, 61, 127
1, 59526, Note_on_c, 12, 71, 127
1, 59781, Note_off_c, 12, 71, 127
1, 59782, Note_on_c, 10, 69, 127
1, 59909, Note_off_c, 10, 69, 127
1, 59910, Note_on_c, 7, 67, 127
1, 60037, Note_off_c, 7, 67, 127
1, 60038, Note_on_c, 6, 66, 127
1, 60165, Note_off_c, 6, 66, 127
1, 60166, Note_on_c, 4, 64, 127
1, 60293, Note_off_c, 4, 64, 127
1, 60294, Note_on_c, 2, 62, 127
1, 60421, Note_off_c, 2, 62, 127
1, 60422, Note_on_c, 1, 61, 127
1, 60549, Note_off_c, 1, 61, 127
1, 60550, Note_on_c, 12, 59, 127
1, 60678, Note_on_c, 6, 66, 127
1, 60803, Note_off_c, 12, 59, 127
1, 60804, Note_off_c, 6, 66, 127
1, 60805, Note_on_c, 2, 62, 127
1, 60932, Note_off_c, 2, 62, 127
1, 60933, Note_on_c, 12, 59, 127
1, 61060, Note_off_c, 12, 59, 127
1, 61061, Note_on_c, 2, 62, 127
1, 61188, Note_off_c, 2, 62, 127
1, 61189, Note_on_c, 6, 54, 127
1, 61316, Note_off_c, 6, 54, 127
1, 61317, Note_on_c, 12, 59, 127
1, 61444, Note_off_c, 12, 59, 127
1, 61445, Note_on_c, 12, 47, 127
1, 61572, Note_off_c, 12, 47, 127
1, 61573, Note_on_c, 12, 59, 127
1, 61701, Note_on_c, 6, 66, 127
1, 61827, Note_off_c, 6, 66, 127
1, 61828, Note_on_c, 2, 62, 127
1, 61859, Note_off_c, 12, 59, 127
1, 61955, Note_off_c, 2, 62, 127
1, 61956, Note_on_c, 12, 59, 127
1, 62083, Note_off_c, 12, 59, 127
1, 62084, Note_on_c, 2, 62, 127
1, 62211, Note_off_c, 2, 62, 127
1, 62212, Note_on_c, 6, 54, 127
1, 62339, Note_off_c, 6, 54, 127
1, 62340, Note_on_c, 12, 59, 127
1, 62467, Note_off_c, 12, 59, 127
1, 62468, Note_on_c, 12, 47, 127
1, 62595, Note_off_c, 12, 47, 127
1, 62596, Note_on_c, 12, 59, 127
1, 62724, Note_on_c, 6, 66, 127
1, 62850, Note_off_c, 6, 66, 127
1, 62851, Note_on_c, 2, 62, 127
1, 62962, Note_off_c, 12, 59, 127
1, 62978, Note_off_c, 2, 62, 127
1, 62979, Note_on_c, 12, 59, 127
1, 63106, Note_off_c, 12, 59, 127
1, 63107, Note_on_c, 2, 62, 127
1, 63234, Note_off_c, 2, 62, 127
1, 63235, Note_on_c, 6, 54, 127
1, 63362, Note_off_c, 6, 54, 127
1, 63363, Note_on_c, 12, 59, 127
1, 63490, Note_off_c, 12, 59, 127
1, 63491, Note_on_c, 12, 47, 127
1, 63618, Note_off_c, 12, 47, 127
1, 63619, Note_on_c, 6, 66, 127
1, 63874, Note_off_c, 6, 66, 127
1, 63875, Note_on_c, 2, 62, 127
1, 63875, Note_on_c, 6, 66, 127
1, 63875, Note_on_c, 12, 71, 127
1, 63875, Note_on_c, 12, 59, 127
1, 63875, Note_on_c, 2, 50, 127
1, 63875, Note_on_c, 6, 54, 127
1, 64102, Note_off_c, 6, 54, 127
1, 64102, Note_off_c, 2, 50, 127
1, 64102, Note_off_c, 12, 59, 127
1, 64102, Note_off_c, 12, 71, 127
1, 64102, Note_off_c, 6, 66, 127
1, 64102, Note_off_c, 2, 62, 127
1, 64131, Note_on_c, 1, 61, 127
1, 64131, Note_on_c, 4, 64, 127
1, 64131, Note_on_c, 10, 69, 127
1, 64131, Note_on_c, 10, 57, 127
1, 64131, Note_on_c, 1, 49, 127
1, 64131, Note_on_c, 4, 52, 127
1, 64358, Note_off_c, 4, 52, 127
1, 64358, Note_off_c, 1, 49, 127
1, 64358, Note_off_c, 10, 57, 127
1, 64358, Note_off_c, 10, 69, 127
1, 64358, Note_off_c, 4, 64, 127
1, 64358, Note_off_c, 1, 61, 127
1, 64387, Note_on_c, 7, 67, 127
1, 64387, Note_on_c, 12, 59, 127
1, 64387, Note_on_c, 2, 62, 127
1, 64387, Note_on_c, 12, 47, 127
1, 64387, Note_on_c, 2, 50, 127
1, 64387, Note_on_c, 7, 55, 127
1, 64614, Note_off_c, 7, 55, 127
1, 64614, Note_off_c, 2, 50, 127
1, 64614, Note_off_c, 12, 47, 127
1, 64614, Note_off_c, 2, 62, 127
1, 64614, Note_off_c, 12, 59, 127
1, 64614, Note_off_c, 7, 67, 127
1, 64643, Note_on_c, 6, 66, 127
1, 64643, Note_on_c, 11, 58, 127
1, 64643, Note_on_c, 1, 61, 127
1, 64643, Note_on_c, 11, 46, 127
1, 64643, Note_on_c, 1, 49, 127
1, 64643, Note_on_c, 6, 54, 127
1, 64870, Note_off_c, 6, 54, 127
1, 64870, Note_off_c, 1, 49, 127
1, 64870, Note_off_c, 11, 46, 127
1, 64870, Note_off_c, 1, 61, 127
1, 64870, Note_off_c, 11, 58, 127
1, 64870, Note_off_c, 6, 66, 127
1, 64899, Note_on_c, 12, 59, 127
1, 64899, Note_on_c, 4, 64, 127
1, 64899, Note_on_c, 7, 55, 127
1, 64899, Note_on_c, 4, 52, 127
1, 64899, Note_on_c, 7, 43, 127
1, 64899, Note_on_c, 12, 47, 127
1, 65126, Note_off_c, 12, 47, 127
1, 65126, Note_off_c, 7, 43, 127
1, 65126, Note_off_c, 4, 52, 127
1, 65126, Note_off_c, 7, 55, 127
1, 65126, Note_off_c, 4, 64, 127
1, 65126, Note_off_c, 12, 59, 127
1, 65155, Note_on_c, 6, 54, 127
1, 65155, Note_on_c, 12, 59, 127
1, 65155, Note_on_c, 2, 62, 127
1, 65155, Note_on_c, 6, 42, 127
1, 65155, Note_on_c, 12, 47, 127
1, 65155, Note_on_c, 2, 50, 127
1, 65382, Note_off_c, 2, 50, 127
1, 65382, Note_off_c, 12, 47, 127
1, 65382, Note_off_c, 6, 42, 127
1, 65382, Note_off_c, 2, 62, 127
1, 65382, Note_off_c, 12, 59, 127
1, 65382, Note_off_c, 6, 54, 127
1, 65411, Note_on_c, 11, 58, 127
1, 65411, Note_on_c, 1, 61, 127
1, 65411, Note_on_c, 6, 54, 127
1, 65411, Note_on_c, 4, 40, 127
1, 65411, Note_on_c, 11, 46, 127
1, 65411, Note_on_c, 1, 49, 127
1, 65638, Note_off_c, 1, 49, 127
1, 65638, Note_off_c, 11, 46, 127
1, 65638, Note_off_c, 4, 40, 127
1, 65638, Note_off_c, 6, 54, 127
1, 65638, Note_off_c, 1, 61, 127
1, 65638, Note_off_c, 11, 58, 127
1, 65667, Note_on_c, 6, 66, 127
1, 65667, Note_on_c, 2, 38, 127
1, 65667, Note_on_c, 12, 47, 127
1, 65794, Note_off_c, 6, 66, 127
1, 65795, Note_on_c, 4, 64, 127
1, 65922, Note_off_c, 4, 64, 127
1, 65922, Note_off_c, 12, 47, 127
1, 65922, Note_off_c, 2, 38, 127
1, 65923, Note_on_c, 2, 62, 127
1, 65923, Note_on_c, 12, 59, 127
1, 65923, Note_on_c, 12, 47, 127
1, 65923, Note_on_c, 6, 54, 127
1, 66050, Note_off_c, 2, 62, 127
1, 66051, Note_on_c, 1, 61, 127
1, 66176, Note_off_c, 12, 47, 127
1, 66176, Note_off_c, 12, 59, 127
1, 66177, Note_off_c, 1, 61, 127
1, 66177, Note_off_c, 6, 54, 127
1, 66178, Note_on_c, 11, 58, 127
1, 66178, Note_on_c, 2, 62, 127
1, 66178, Note_on_c, 6, 54, 127
1, 66241, Note_off_c, 2, 62, 127
1, 66242, Note_on_c, 1, 61, 127
1, 66305, Note_off_c, 1, 61, 127
1, 66306, Note_on_c, 2, 62, 127
1, 66369, Note_off_c, 2, 62, 127
1, 66370, Note_on_c, 1, 61, 127
1, 66433, Note_off_c, 6, 54, 127
1, 66433, Note_off_c, 11, 58, 127
1, 66434, Note_on_c, 11, 58, 127
1, 66434, Note_on_c, 6, 54, 127
1, 66434, Note_on_c, 6, 42, 127
1, 66562, Note_off_c, 1, 61, 127
1, 66562, Note_on_c, 12, 59, 127
1, 66647, Note_off_c, 11, 58, 127
1, 66688, Note_off_c, 12, 59, 127
1, 66688, Note_off_c, 6, 42, 127
1, 66688, Note_off_c, 6, 54, 127
1, 66689, Note_on_c, 12, 59, 127
1, 66689, Note_on_c, 6, 54, 127
1, 66689, Note_on_c, 12, 47, 127
1, 66689, Note_on_c, 2, 50, 127
1, 66944, Note_off_c, 2, 50, 127
1, 66944, Note_off_c, 12, 47, 127
1, 66944, Note_off_c, 6, 54, 127
1, 66944, Note_off_c, 12, 59, 127
1, 66945, Note_on_c, 12, 71, 127
1, 66945, Note_on_c, 2, 62, 127
1, 67072, Note_off_c, 12, 71, 127
1, 67073, Note_on_c, 6, 66, 127
1, 67200, Note_off_c, 6, 66, 127
1, 67200, Note_off_c, 2, 62, 127
1, 67201, Note_on_c, 1, 73, 127
1, 67201, Note_on_c, 11, 58, 127
1, 67328, Note_off_c, 1, 73, 127
1, 67329, Note_on_c, 6, 66, 127
1, 67456, Note_off_c, 6, 66, 127
1, 67456, Note_off_c, 11, 58, 127
1, 67457, Note_on_c, 2, 74, 127
1, 67457, Note_on_c, 12, 59, 127
1, 67584, Note_off_c, 2, 74, 127
1, 67585, Note_on_c, 6, 66, 127
1, 67712, Note_off_c, 6, 66, 127
1, 67712, Note_off_c, 12, 59, 127
1, 67713, Note_on_c, 1, 73, 127
1, 67713, Note_on_c, 6, 54, 127
1, 67713, Note_on_c, 11, 58, 127
1, 67840, Note_off_c, 1, 73, 127
1, 67841, Note_on_c, 6, 66, 127
1, 67968, Note_off_c, 6, 66, 127
1, 67968, Note_off_c, 11, 58, 127
1, 67968, Note_off_c, 6, 54, 127
1, 67969, Note_on_c, 12, 71, 127
1, 67969, Note_on_c, 2, 62, 127
1, 68096, Note_off_c, 12, 71, 127
1, 68097, Note_on_c, 6, 66, 127
1, 68224, Note_off_c, 6, 66, 127
1, 68224, Note_off_c, 2, 62, 127
1, 68225, Note_on_c, 1, 73, 127
1, 68225, Note_on_c, 11, 58, 127
1, 68352, Note_off_c, 1, 73, 127
1, 68353, Note_on_c, 6, 66, 127
1, 68480, Note_off_c, 6, 66, 127
1, 68480, Note_off_c, 11, 58, 127
1, 68481, Note_on_c, 2, 74, 127
1, 68481, Note_on_c, 12, 59, 127
1, 68608, Note_off_c, 2, 74, 127
1, 68609, Note_on_c, 6, 66, 127
1, 68736, Note_off_c, 6, 66, 127
1, 68736, Note_off_c, 12, 59, 127
1, 68737, Note_on_c, 1, 73, 127
1, 68737, Note_on_c, 6, 54, 127
1, 68737, Note_on_c, 11, 58, 127
1, 68864, Note_off_c, 1, 73, 127
1, 68865, Note_on_c, 6, 66, 127
1, 68992, Note_off_c, 6, 66, 127
1, 68992, Note_off_c, 11, 58, 127
1, 68992, Note_off_c, 6, 54, 127
1, 68993, Note_on_c, 6, 78, 127
1, 68993, Note_on_c, 2, 74, 127
1, 68993, Note_on_c, 12, 59, 127
1, 69120, Note_off_c, 12, 59, 127
1, 69121, Note_on_c, 6, 54, 127
1, 69248, Note_off_c, 6, 54, 127
1, 69248, Note_off_c, 2, 74, 127
1, 69248, Note_off_c, 6, 78, 127
1, 69249, Note_on_c, 11, 70, 127
1, 69249, Note_on_c, 6, 78, 127
1, 69249, Note_on_c, 1, 61, 127
1, 69376, Note_off_c, 1, 61, 127
1, 69377, Note_on_c, 6, 54, 127
1, 69504, Note_off_c, 6, 54, 127
1, 69504, Note_off_c, 6, 78, 127
1, 69504, Note_off_c, 11, 70, 127
1, 69505, Note_on_c, 6, 78, 127
1, 69505, Note_on_c, 12, 71, 127
1, 69505, Note_on_c, 2, 62, 127
1, 69632, Note_off_c, 2, 62, 127
1, 69633, Note_on_c, 6, 54, 127
1, 69760, Note_off_c, 6, 54, 127
1, 69760, Note_off_c, 12, 71, 127
1, 69760, Note_off_c, 6, 78, 127
1, 69761, Note_on_c, 11, 70, 127
1, 69761, Note_on_c, 6, 78, 127
1, 69761, Note_on_c, 1, 61, 127
1, 69888, Note_off_c, 1, 61, 127
1, 69889, Note_on_c, 6, 54, 127
1, 70016, Note_off_c, 6, 54, 127
1, 70016, Note_off_c, 6, 78, 127
1, 70016, Note_off_c, 11, 70, 127
1, 70017, Note_on_c, 2, 74, 127
1, 70017, Note_on_c, 6, 78, 127
1, 70017, Note_on_c, 12, 59, 127
1, 70144, Note_off_c, 12, 59, 127
1, 70145, Note_on_c, 6, 54, 127
1, 70272, Note_off_c, 6, 54, 127
1, 70272, Note_off_c, 6, 78, 127
1, 70272, Note_off_c, 2, 74, 127
1, 70273, Note_on_c, 11, 70, 127
1, 70273, Note_on_c, 6, 78, 127
1, 70273, Note_on_c, 1, 61, 127
1, 70400, Note_off_c, 1, 61, 127
1, 70401, Note_on_c, 6, 54, 127
1, 70528, Note_off_c, 6, 54, 127
1, 70528, Note_off_c, 6, 78, 127
1, 70528, Note_off_c, 11, 70, 127
1, 70529, Note_on_c, 12, 71, 127
1, 70529, Note_on_c, 6, 78, 127
1, 70529, Note_on_c, 2, 62, 127
1, 70656, Note_off_c, 2, 62, 127
1, 70657, Note_on_c, 6, 54, 127
1, 70784, Note_off_c, 6, 54, 127
1, 70784, Note_off_c, 6, 78, 127
1, 70784, Note_off_c, 12, 71, 127
1, 70785, Note_on_c, 1, 61, 127
1, 70785, Note_on_c, 11, 70, 127
1, 70785, Note_on_c, 6, 78, 127
1, 70913, Note_off_c, 6, 78, 127
1, 70913, Note_off_c, 11, 70, 127
1, 70913, Note_off_c, 1, 61, 127
1, 70914, Note_on_c, 6, 54, 127
1, 70914, Note_on_c, 1, 73, 127
1, 71042, Note_off_c, 1, 73, 127
1, 71042, Note_off_c, 6, 54, 127
1, 71061, Note_on_c, 6, 78, 127
1, 71061, Note_on_c, 10, 69, 127
1, 71061, Note_on_c, 6, 66, 127
1, 71189, Note_off_c, 6, 78, 127
1, 71192, Note_on_c, 10, 81, 127
1, 71320, Note_off_c, 10, 81, 127
1, 71320, Note_off_c, 6, 66, 127
1, 71320, Note_off_c, 10, 69, 127
1, 71323, Note_on_c, 12, 71, 127
1, 71323, Note_on_c, 6, 66, 127
1, 71323, Note_on_c, 3, 63, 127
1, 71451, Note_off_c, 12, 71, 127
1, 71454, Note_on_c, 10, 81, 127
1, 71582, Note_off_c, 10, 81, 127
1, 71582, Note_off_c, 3, 63, 127
1, 71582, Note_off_c, 6, 66, 127
1, 71585, Note_on_c, 12, 83, 127
1, 71585, Note_on_c, 3, 63, 127
1, 71585, Note_on_c, 12, 59, 127
1, 71713, Note_off_c, 12, 83, 127
1, 71716, Note_on_c, 6, 78, 127
1, 71844, Note_off_c, 6, 78, 127
1, 71844, Note_off_c, 12, 59, 127
1, 71844, Note_off_c, 3, 63, 127
1, 71847, Note_on_c, 7, 79, 127
1, 71847, Note_on_c, 4, 64, 127
1, 71847, Note_on_c, 4, 52, 127
1, 71847, Note_on_c, 12, 59, 127
1, 71975, Note_off_c, 7, 79, 127
1, 71978, Note_on_c, 12, 71, 127
1, 72106, Note_off_c, 12, 71, 127
1, 72106, Note_off_c, 12, 59, 127
1, 72106, Note_off_c, 4, 52, 127
1, 72106, Note_off_c, 4, 64, 127
1, 72109, Note_on_c, 4, 76, 127
1, 72109, Note_on_c, 7, 67, 127
1, 72109, Note_on_c, 4, 64, 127
1, 72237, Note_off_c, 4, 76, 127
1, 72240, Note_on_c, 7, 79, 127
1, 72368, Note_off_c, 7, 79, 127
1, 72368, Note_off_c, 4, 64, 127
1, 72368, Note_off_c, 7, 67, 127
1, 72371, Note_on_c, 10, 69, 127
1, 72371, Note_on_c, 1, 61, 127
1, 72371, Note_on_c, 4, 64, 127
1, 72499, Note_off_c, 10, 69, 127
1, 72500, Note_on_c, 7, 79, 127
1, 72628, Note_off_c, 7, 79, 127
1, 72629, Note_off_c, 4, 64, 127
1, 72629, Note_off_c, 1, 61, 127
1, 72630, Note_on_c, 10, 81, 127
1, 72630, Note_on_c, 10, 57, 127
1, 72630, Note_on_c, 1, 61, 127
1, 72758, Note_off_c, 10, 81, 127
1, 72761, Note_on_c, 4, 76, 127
1, 72889, Note_off_c, 4, 76, 127
1, 72889, Note_off_c, 1, 61, 127
1, 72889, Note_off_c, 10, 57, 127
1, 72892, Note_on_c, 6, 78, 127
1, 72892, Note_on_c, 10, 57, 127
1, 72892, Note_on_c, 2, 62, 127
1, 72892, Note_on_c, 2, 50, 127
1, 73020, Note_off_c, 6, 78, 127
1, 73023, Note_on_c, 10, 69, 127
1, 73151, Note_off_c, 10, 69, 127
1, 73151, Note_off_c, 2, 50, 127
1, 73151, Note_off_c, 2, 62, 127
1, 73151, Note_off_c, 10, 57, 127
1, 73154, Note_on_c, 2, 74, 127
1, 73154, Note_on_c, 2, 62, 127
1, 73154, Note_on_c, 6, 66, 127
1, 73282, Note_off_c, 2, 74, 127
1, 73285, Note_on_c, 6, 78, 127
1, 73413, Note_off_c, 6, 78, 127
1, 73413, Note_off_c, 6, 66, 127
1, 73413, Note_off_c, 2, 62, 127
1, 73416, Note_on_c, 8, 68, 127
1, 73416, Note_on_c, 2, 62, 127
1, 73416, Note_on_c, 12, 59, 127
1, 73544, Note_off_c, 8, 68, 127
1, 73547, Note_on_c, 2, 74, 127
1, 73675, Note_off_c, 2, 74, 127
1, 73675, Note_off_c, 12, 59, 127
1, 73675, Note_off_c, 2, 62, 127
1, 73678, Note_on_c, 6, 78, 127
1, 73678, Note_on_c, 8, 56, 127
1, 73678, Note_on_c, 12, 59, 127
1, 73806, Note_off_c, 6, 78, 127
1, 73809, Note_on_c, 2, 74, 127
1, 73937, Note_off_c, 2, 74, 127
1, 73937, Note_off_c, 12, 59, 127
1, 73937, Note_off_c, 8, 56, 127
1, 73940, Note_on_c, 4, 76, 127
1, 73940, Note_on_c, 1, 49, 127
1, 73940, Note_on_c, 1, 61, 127
1, 74068, Note_off_c, 4, 76, 127
1, 74071, Note_on_c, 7, 67, 127
1, 74199, Note_off_c, 7, 67, 127
1, 74199, Note_off_c, 1, 61, 127
1, 74199, Note_off_c, 1, 49, 127
1, 74200, Note_on_c, 1, 73, 127
1, 74200, Note_on_c, 4, 64, 127
1, 74200, Note_on_c, 1, 61, 127
1, 74328, Note_off_c, 1, 73, 127
1, 74331, Note_on_c, 4, 76, 127
1, 74459, Note_off_c, 4, 76, 127
1, 74459, Note_off_c, 1, 61, 127
1, 74459, Note_off_c, 4, 64, 127
1, 74462, Note_on_c, 6, 66, 127
1, 74462, Note_on_c, 11, 58, 127
1, 74462, Note_on_c, 1, 61, 127
1, 74590, Note_off_c, 6, 66, 127
1, 74593, Note_on_c, 1, 73, 127
1, 74721, Note_off_c, 1, 73, 127
1, 74721, Note_off_c, 1, 61, 127
1, 74721, Note_off_c, 11, 58, 127
1, 74724, Note_on_c, 4, 76, 127
1, 74724, Note_on_c, 6, 54, 127
1, 74724, Note_on_c, 11, 58, 127
1, 74852, Note_off_c, 4, 76, 127
1, 74855, Note_on_c, 1, 73, 127
1, 74983, Note_off_c, 1, 73, 127
1, 74983, Note_off_c, 11, 58, 127
1, 74983, Note_off_c, 6, 54, 127
1, 74986, Note_on_c, 12, 59, 127
1, 74986, Note_on_c, 2, 74, 127
1, 75118, Note_off_c, 12, 59, 127
1, 75121, Note_on_c, 12, 47, 127
1, 75253, Note_off_c, 12, 47, 127
1, 75254, Note_off_c, 2, 74, 127
1, 75257, Note_on_c, 12, 59, 127
1, 75257, Note_on_c, 12, 71, 127
1, 75257, Note_on_c, 6, 66, 127
1, 75257, Note_on_c, 2, 74, 127
1, 75389, Note_off_c, 12, 59, 127
1, 75393, Note_on_c, 6, 54, 127
1, 75525, Note_off_c, 6, 54, 127
1, 75525, Note_off_c, 6, 66, 127
1, 75529, Note_on_c, 7, 55, 127
1, 75529, Note_on_c, 4, 64, 127
1, 75661, Note_off_c, 7, 55, 127
1, 75665, Note_on_c, 4, 52, 127
1, 75793, Note_off_c, 2, 74, 127
1, 75793, Note_off_c, 12, 71, 127
1, 75797, Note_off_c, 4, 52, 127
1, 75801, Note_on_c, 10, 57, 127
1, 75801, Note_on_c, 1, 73, 127
1, 75801, Note_on_c, 10, 69, 127
1, 75933, Note_off_c, 10, 57, 127
1, 75936, Note_on_c, 4, 52, 127
1, 76065, Note_off_c, 4, 64, 127
1, 76068, Note_off_c, 4, 52, 127
1, 76072, Note_on_c, 6, 54, 127
1, 76072, Note_on_c, 2, 62, 127
1, 76204, Note_off_c, 6, 54, 127
1, 76208, Note_on_c, 2, 50, 127
1, 76337, Note_off_c, 10, 69, 127
1, 76337, Note_off_c, 1, 73, 127
1, 76340, Note_off_c, 2, 50, 127
1, 76344, Note_on_c, 7, 55, 127
1, 76344, Note_on_c, 12, 71, 127
1, 76344, Note_on_c, 7, 67, 127
1, 76476, Note_off_c, 7, 55, 127
1, 76480, Note_on_c, 2, 50, 127
1, 76608, Note_off_c, 2, 62, 127
1, 76612, Note_off_c, 2, 50, 127
1, 76616, Note_on_c, 4, 52, 127
1, 76616, Note_on_c, 1, 61, 127
1, 76748, Note_off_c, 4, 52, 127
1, 76751, Note_on_c, 1, 49, 127
1, 76880, Note_off_c, 7, 67, 127
1, 76880, Note_off_c, 12, 71, 127
1, 76883, Note_off_c, 1, 49, 127
1, 76887, Note_on_c, 6, 54, 127
1, 76887, Note_on_c, 6, 66, 127
1, 76887, Note_on_c, 11, 70, 127
1, 77019, Note_off_c, 6, 54, 127
1, 77023, Note_on_c, 1, 49, 127
1, 77152, Note_off_c, 1, 61, 127
1, 77155, Note_off_c, 1, 49, 127
1, 77155, Note_off_c, 11, 70, 127
1, 77155, Note_off_c, 6, 66, 127
1, 77159, Note_on_c, 2, 50, 127
1, 77159, Note_on_c, 12, 59, 127
1, 77159, Note_on_c, 12, 71, 127
1, 77159, Note_on_c, 6, 66, 127
1, 77291, Note_off_c, 6, 66, 127
1, 77291, Note_off_c, 12, 71, 127
1, 77295, Note_on_c, 7, 67, 127
1, 77415, Note_off_c, 12, 59, 127
1, 77427, Note_off_c, 7, 67, 127
1, 77427, Note_off_c, 2, 50, 127
1, 77431, Note_on_c, 12, 59, 127
1, 77431, Note_on_c, 4, 52, 127
1, 77431, Note_on_c, 6, 66, 127
1, 77563, Note_off_c, 6, 66, 127
1, 77566, Note_on_c, 4, 64, 127
1, 77698, Note_off_c, 4, 64, 127
1, 77699, Note_off_c, 4, 52, 127
1, 77699, Note_off_c, 12, 59, 127
1, 77702, Note_on_c, 6, 54, 127
1, 77702, Note_on_c, 12, 59, 127
1, 77702, Note_on_c, 2, 62, 127
1, 77834, Note_off_c, 2, 62, 127
1, 77838, Note_on_c, 1, 61, 127
1, 77941, Note_off_c, 12, 59, 127
1, 77970, Note_off_c, 1, 61, 127
1, 77970, Note_off_c, 6, 54, 127
1, 77971, Note_on_c, 12, 59, 127
1, 77974, Note_on_c, 6, 42, 127
1, 78102, Note_on_c, 11, 58, 127
1, 78103, Note_off_c, 12, 59, 127
1, 78234, Note_off_c, 11, 58, 127
1, 78234, Note_on_c, 12, 59, 127
1, 78234, Note_on_c, 12, 47, 127
1, 78242, Note_off_c, 6, 42, 127
1, 78361, Note_off_c, 12, 59, 127
1, 78362, Note_on_c, 7, 55, 127
1, 78487, Note_off_c, 12, 47, 127
1, 78488, Note_off_c, 7, 55, 127
1, 78489, Note_on_c, 6, 54, 127
1, 78616, Note_off_c, 6, 54, 127
1, 78617, Note_on_c, 4, 52, 127
1, 78744, Note_off_c, 4, 52, 127
1, 78745, Note_on_c, 2, 50, 127
1, 78872, Note_off_c, 2, 50, 127
1, 78873, Note_on_c, 1, 49, 127
1, 79000, Note_off_c, 1, 49, 127
1, 79001, Note_on_c, 12, 47, 127
1, 79128, Note_off_c, 12, 47, 127
1, 79129, Note_on_c, 11, 46, 127
1, 79256, Note_off_c, 11, 46, 127
1, 79257, Note_on_c, 12, 47, 127
1, 79385, Note_on_c, 6, 78, 127
1, 79512, Note_off_c, 6, 78, 127
1, 79513, Note_on_c, 2, 74, 127
1, 79640, Note_off_c, 2, 74, 127
1, 79641, Note_on_c, 12, 71, 127
1, 79764, Note_off_c, 12, 47, 127
1, 79768, Note_off_c, 12, 71, 127
1, 79769, Note_on_c, 2, 74, 127
1, 79897, Note_on_c, 6, 66, 127
1, 80024, Note_off_c, 6, 66, 127
1, 80025, Note_on_c, 12, 71, 127
1, 80142, Note_off_c, 2, 74, 127
1, 80151, Note_off_c, 12, 71, 127
1, 80152, Note_on_c, 12, 59, 127
1, 80279, Note_off_c, 12, 59, 127
1, 80280, Note_on_c, 4, 64, 127
1, 80408, Note_on_c, 2, 74, 127
1, 80535, Note_off_c, 2, 74, 127
1, 80536, Note_on_c, 12, 71, 127
1, 80663, Note_off_c, 12, 71, 127
1, 80664, Note_on_c, 8, 68, 127
1, 80787, Note_off_c, 4, 64, 127
1, 80791, Note_off_c, 8, 68, 127
1, 80792, Note_on_c, 12, 71, 127
1, 80920, Note_on_c, 2, 62, 127
1, 81045, Note_off_c, 12, 71, 127
1, 81046, Note_off_c, 2, 62, 127
1, 81047, Note_on_c, 8, 68, 127
1, 81174, Note_off_c, 8, 68, 127
1, 81175, Note_on_c, 4, 52, 127
1, 81302, Note_off_c, 4, 52, 127
1, 81303, Note_on_c, 10, 57, 127
1, 81431, Note_on_c, 4, 76, 127
1, 81558, Note_off_c, 4, 76, 127
1, 81559, Note_on_c, 0, 72, 127
1, 81687, Note_on_c, 10, 69, 127
1, 81810, Note_off_c, 10, 57, 127
1, 81813, Note_off_c, 0, 72, 127
1, 81814, Note_off_c, 10, 69, 127
1, 81815, Note_on_c, 0, 72, 127
1, 81943, Note_on_c, 4, 64, 127
1, 82068, Note_off_c, 0, 72, 127
1, 82069, Note_off_c, 4, 64, 127
1, 82070, Note_on_c, 10, 69, 127
1, 82197, Note_off_c, 10, 69, 127
1, 82198, Note_on_c, 10, 57, 127
1, 82325, Note_off_c, 10, 57, 127
1, 82326, Note_on_c, 2, 62, 127
1, 82454, Note_on_c, 0, 72, 127
1, 82581, Note_off_c, 0, 72, 127
1, 82582, Note_on_c, 10, 69, 127
1, 82709, Note_off_c, 10, 69, 127
1, 82710, Note_on_c, 6, 66, 127
1, 82833, Note_off_c, 2, 62, 127
1, 82837, Note_off_c, 6, 66, 127
1, 82838, Note_on_c, 10, 69, 127
1, 82966, Note_on_c, 0, 60, 127
1, 83091, Note_off_c, 10, 69, 127
1, 83092, Note_off_c, 0, 60, 127
1, 83093, Note_on_c, 6, 66, 127
1, 83220, Note_off_c, 6, 66, 127
1, 83221, Note_on_c, 2, 50, 127
1, 83348, Note_off_c, 2, 50, 127
1, 83349, Note_on_c, 7, 55, 127
1, 83477, Note_on_c, 2, 74, 127
1, 83604, Note_off_c, 2, 74, 127
1, 83605, Note_on_c, 12, 71, 127
1, 83732, Note_off_c, 12, 71, 127
1, 83733, Note_on_c, 7, 67, 127
1, 83856, Note_off_c, 7, 55, 127
1, 83860, Note_off_c, 7, 67, 127
1, 83861, Note_on_c, 12, 71, 127
1, 83989, Note_on_c, 2, 62, 127
1, 84116, Note_off_c, 2, 62, 127
1, 84117, Note_on_c, 7, 67, 127
1, 84234, Note_off_c, 12, 71, 127
1, 84243, Note_off_c, 7, 67, 127
1, 84244, Note_on_c, 7, 55, 127
1, 84371, Note_off_c, 7, 55, 127
1, 84372, Note_on_c, 4, 64, 127
1, 84500, Note_on_c, 2, 74, 127
1, 84627, Note_off_c, 2, 74, 127
1, 84628, Note_on_c, 12, 71, 127
1, 84755, Note_off_c, 12, 71, 127
1, 84756, Note_on_c, 7, 67, 127
1, 84879, Note_off_c, 4, 64, 127
1, 84883, Note_off_c, 7, 67, 127
1, 84884, Note_on_c, 12, 71, 127
1, 85012, Note_on_c, 2, 62, 127
1, 85139, Note_off_c, 2, 62, 127
1, 85140, Note_on_c, 7, 67, 127
1, 85257, Note_off_c, 12, 71, 127
1, 85266, Note_off_c, 7, 67, 127
1, 85267, Note_on_c, 4, 52, 127
1, 85394, Note_off_c, 4, 52, 127
1, 85395, Note_on_c, 12, 59, 127
1, 85523, Note_on_c, 2, 74, 127
1, 85650, Note_off_c, 2, 74, 127
1, 85651, Note_on_c, 12, 71, 127
1, 85778, Note_off_c, 12, 71, 127
1, 85779, Note_on_c, 7, 67, 127
1, 85902, Note_off_c, 12, 59, 127
1, 85906, Note_off_c, 7, 67, 127
1, 85907, Note_on_c, 12, 71, 127
1, 86035, Note_on_c, 2, 62, 127
1, 86160, Note_off_c, 12, 71, 127
1, 86161, Note_off_c, 2, 62, 127
1, 86162, Note_on_c, 7, 67, 127
1, 86290, Note_on_c, 7, 55, 127
1, 86415, Note_off_c, 7, 67, 127
1, 86416, Note_off_c, 7, 55, 127
1, 86417, Note_on_c, 0, 60, 127
1, 86545, Note_on_c, 2, 74, 127
1, 86672, Note_off_c, 2, 74, 127
1, 86673, Note_on_c, 12, 71, 127
1, 86790, Note_off_c, 0, 60, 127
1, 86799, Note_off_c, 12, 71, 127
1, 86800, Note_on_c, 7, 67, 127
1, 86927, Note_off_c, 7, 67, 127
1, 86928, Note_on_c, 0, 72, 127
1, 87056, Note_on_c, 4, 64, 127
1, 87183, Note_off_c, 4, 64, 127
1, 87184, Note_on_c, 10, 69, 127
1, 87301, Note_off_c, 0, 72, 127
1, 87310, Note_off_c, 10, 69, 127
1, 87311, Note_on_c, 10, 57, 127
1, 87438, Note_off_c, 10, 57, 127
1, 87439, Note_on_c, 2, 62, 127
1, 87567, Note_on_c, 0, 72, 127
1, 87694, Note_off_c, 0, 72, 127
1, 87695, Note_on_c, 10, 69, 127
1, 87812, Note_off_c, 2, 62, 127
1, 87821, Note_off_c, 10, 69, 127
1, 87822, Note_on_c, 6, 66, 127
1, 87949, Note_off_c, 6, 66, 127
1, 87950, Note_on_c, 10, 69, 127
1, 88078, Note_on_c, 0, 60, 127
1, 88205, Note_off_c, 0, 60, 127
1, 88206, Note_on_c, 6, 66, 127
1, 88323, Note_off_c, 10, 69, 127
1, 88332, Note_off_c, 6, 66, 127
1, 88333, Note_on_c, 2, 50, 127
1, 88460, Note_off_c, 2, 50, 127
1, 88461, Note_on_c, 12, 59, 127
1, 88589, Note_on_c, 12, 71, 127
1, 88716, Note_off_c, 12, 71, 127
1, 88717, Note_on_c, 7, 67, 127
1, 88834, Note_off_c, 12, 59, 127
1, 88843, Note_off_c, 7, 67, 127
1, 88844, Note_on_c, 2, 62, 127
1, 88971, Note_off_c, 2, 62, 127
1, 88972, Note_on_c, 7, 67, 127
1, 89100, Note_on_c, 12, 59, 127
1, 89227, Note_off_c, 12, 59, 127
1, 89228, Note_on_c, 2, 62, 127
1, 89345, Note_off_c, 7, 67, 127
1, 89354, Note_off_c, 2, 62, 127
1, 89355, Note_on_c, 4, 52, 127
1, 89482, Note_off_c, 4, 52, 127
1, 89483, Note_on_c, 1, 61, 127
1, 89611, Note_on_c, 12, 71, 127
1, 89738, Note_off_c, 12, 71, 127
1, 89739, Note_on_c, 7, 67, 127
1, 89866, Note_off_c, 7, 67, 127
1, 89867, Note_on_c, 4, 64, 127
1, 89994, Note_off_c, 4, 64, 127
1, 89995, Note_on_c, 10, 69, 127
1, 90122, Note_off_c, 10, 69, 127
1, 90123, Note_on_c, 4, 64, 127
1, 90250, Note_off_c, 4, 64, 127
1, 90250, Note_off_c, 1, 61, 127
1, 90251, Note_on_c, 7, 67, 127
1, 90378, Note_off_c, 7, 67, 127
1, 90379, Note_on_c, 1, 61, 127
1, 90506, Note_off_c, 1, 61, 127
1, 90507, Note_on_c, 2, 62, 127
1, 90635, Note_on_c, 10, 69, 127
1, 90762, Note_off_c, 10, 69, 127
1, 90763, Note_on_c, 6, 66, 127
1, 90880, Note_off_c, 2, 62, 127
1, 90889, Note_off_c, 6, 66, 127
1, 90890, Note_on_c, 2, 62, 127
1, 91018, Note_on_c, 6, 66, 127
1, 91143, Note_off_c, 2, 62, 127
1, 91144, Note_off_c, 6, 66, 127
1, 91145, Note_on_c, 10, 57, 127
1, 91272, Note_off_c, 10, 57, 127
1, 91273, Note_on_c, 2, 62, 127
1, 91400, Note_off_c, 2, 62, 127
1, 91401, Note_on_c, 0, 48, 127
1, 91528, Note_off_c, 0, 48, 127
1, 91529, Note_on_c, 12, 47, 127
1, 91657, Note_on_c, 12, 71, 127
1, 91784, Note_off_c, 12, 71, 127
1, 91785, Note_on_c, 7, 67, 127
1, 91912, Note_off_c, 7, 67, 127
1, 91913, Note_on_c, 2, 62, 127
1, 92036, Note_off_c, 12, 47, 127
1, 92040, Note_off_c, 2, 62, 127
1, 92041, Note_on_c, 7, 67, 127
1, 92169, Note_on_c, 12, 59, 127
1, 92296, Note_off_c, 12, 59, 127
1, 92297, Note_on_c, 2, 62, 127
1, 92414, Note_off_c, 7, 67, 127
1, 92423, Note_off_c, 2, 62, 127
1, 92424, Note_on_c, 7, 55, 127
1, 92551, Note_off_c, 7, 55, 127
1, 92552, Note_on_c, 0, 60, 127
1, 92680, Note_on_c, 7, 67, 127
1, 92807, Note_off_c, 7, 67, 127
1, 92808, Note_on_c, 4, 64, 127
1, 92925, Note_off_c, 0, 60, 127
1, 92934, Note_off_c, 4, 64, 127
1, 92935, Note_on_c, 0, 60, 127
1, 93062, Note_off_c, 0, 60, 127
1, 93063, Note_on_c, 4, 64, 127
1, 93191, Note_on_c, 7, 55, 127
1, 93316, Note_off_c, 4, 64, 127
1, 93317, Note_off_c, 7, 55, 127
1, 93318, Note_on_c, 0, 60, 127
1, 93445, Note_off_c, 0, 60, 127
1, 93446, Note_on_c, 0, 48, 127
1, 93573, Note_off_c, 0, 48, 127
1, 93574, Note_on_c, 10, 45, 127
1, 93702, Note_on_c, 0, 72, 127
1, 93827, Note_off_c, 10, 45, 127
1, 93828, Note_off_c, 0, 72, 127
1, 93829, Note_on_c, 10, 69, 127
1, 93956, Note_off_c, 10, 69, 127
1, 93957, Note_on_c, 4, 64, 127
1, 94084, Note_off_c, 4, 64, 127
1, 94085, Note_on_c, 10, 69, 127
1, 94213, Note_on_c, 0, 60, 127
1, 94338, Note_off_c, 10, 69, 127
1, 94339, Note_off_c, 0, 60, 127
1, 94340, Note_on_c, 4, 64, 127
1, 94467, Note_off_c, 4, 64, 127
1, 94468, Note_on_c, 10, 57, 127
1, 94595, Note_off_c, 10, 57, 127
1, 94596, Note_on_c, 2, 62, 127
1, 94724, Note_on_c, 10, 69, 127
1, 94851, Note_off_c, 10, 69, 127
1, 94852, Note_on_c, 6, 66, 127
1, 94969, Note_off_c, 2, 62, 127
1, 94978, Note_off_c, 6, 66, 127
1, 94979, Note_on_c, 2, 62, 127
1, 95106, Note_off_c, 2, 62, 127
1, 95107, Note_on_c, 6, 66, 127
1, 95235, Note_on_c, 10, 57, 127
1, 95360, Note_off_c, 6, 66, 127
1, 95361, Note_off_c, 10, 57, 127
1, 95362, Note_on_c, 2, 62, 127
1, 95489, Note_off_c, 2, 62, 127
1, 95490, Note_on_c, 2, 50, 127
1, 95617, Note_off_c, 2, 50, 127
1, 95618, Note_on_c, 12, 47, 127
1, 95746, Note_on_c, 7, 79, 127
1, 95873, Note_off_c, 7, 79, 127
1, 95874, Note_on_c, 2, 74, 127
1, 95991, Note_off_c, 12, 47, 127
1, 96000, Note_off_c, 2, 74, 127
1, 96001, Note_on_c, 12, 71, 127
1, 96128, Note_off_c, 12, 71, 127
1, 96129, Note_on_c, 2, 74, 127
1, 96257, Note_on_c, 7, 67, 127
1, 96382, Note_off_c, 2, 74, 127
1, 96383, Note_off_c, 7, 67, 127
1, 96384, Note_on_c, 12, 71, 127
1, 96512, Note_on_c, 2, 62, 127
1, 96512, Note_on_c, 12, 47, 127
1, 96639, Note_off_c, 12, 47, 127
1, 96639, Note_off_c, 2, 62, 127
1, 96640, Note_on_c, 4, 64, 127
1, 96640, Note_on_c, 0, 48, 127
1, 96757, Note_off_c, 12, 71, 127
1, 96768, Note_on_c, 7, 67, 127
1, 96893, Note_off_c, 4, 64, 127
1, 96894, Note_off_c, 7, 67, 127
1, 96895, Note_on_c, 4, 64, 127
1, 97022, Note_off_c, 4, 64, 127
1, 97023, Note_on_c, 0, 60, 127
1, 97146, Note_off_c, 0, 48, 127
1, 97150, Note_off_c, 0, 60, 127
1, 97151, Note_on_c, 4, 64, 127
1, 97279, Note_on_c, 7, 55, 127
1, 97404, Note_off_c, 4, 64, 127
1, 97405, Note_off_c, 7, 55, 127
1, 97406, Note_on_c, 0, 60, 127
1, 97534, Note_on_c, 4, 52, 127
1, 97534, Note_on_c, 0, 48, 127
1, 97659, Note_off_c, 0, 60, 127
1, 97660, Note_off_c, 0, 48, 127
1, 97660, Note_off_c, 4, 52, 127
1, 97661, Note_on_c, 6, 54, 127
1, 97661, Note_on_c, 2, 50, 127
1, 97788, Note_off_c, 6, 54, 127
1, 97789, Note_on_c, 10, 57, 127
1, 97914, Note_off_c, 2, 50, 127
1, 97915, Note_off_c, 10, 57, 127
1, 97916, Note_on_c, 6, 54, 127
1, 98043, Note_off_c, 6, 54, 127
1, 98044, Note_on_c, 2, 50, 127
1, 98171, Note_off_c, 2, 50, 127
1, 98172, Note_on_c, 6, 54, 127
1, 98300, Note_on_c, 10, 45, 127
1, 98332, Note_off_c, 6, 54, 127
1, 98427, Note_off_c, 10, 45, 127
1, 98428, Note_on_c, 0, 48, 127
1, 98556, Note_on_c, 6, 42, 127
1, 98588, Note_off_c, 0, 48, 127
1, 98683, Note_off_c, 6, 42, 127
1, 98684, Note_on_c, 7, 43, 127
1, 98684, Note_on_c, 7, 67, 127
1, 98939, Note_off_c, 7, 67, 127
1, 98940, Note_on_c, 6, 66, 127
1, 98964, Note_off_c, 7, 43, 127
1, 99067, Note_off_c, 6, 66, 127
1, 99068, Note_on_c, 4, 64, 127
1, 99195, Note_off_c, 4, 64, 127
1, 99196, Note_on_c, 2, 62, 127
1, 99323, Note_off_c, 2, 62, 127
1, 99324, Note_on_c, 0, 60, 127
1, 99451, Note_off_c, 0, 60, 127
1, 99452, Note_on_c, 12, 59, 127
1, 99579, Note_off_c, 12, 59, 127
1, 99580, Note_on_c, 10, 57, 127
1, 99707, Note_off_c, 10, 57, 127
1, 99708, Note_on_c, 7, 55, 127
1, 99708, Note_on_c, 7, 79, 127
1, 99963, Note_off_c, 7, 79, 127
1, 99964, Note_on_c, 6, 78, 127
1, 99988, Note_off_c, 7, 55, 127
1, 100091, Note_off_c, 6, 78, 127
1, 100092, Note_on_c, 4, 76, 127
1, 100219, Note_off_c, 4, 76, 127
1, 100220, Note_on_c, 2, 74, 127
1, 100347, Note_off_c, 2, 74, 127
1, 100348, Note_on_c, 0, 72, 127
1, 100475, Note_off_c, 0, 72, 127
1, 100476, Note_on_c, 12, 71, 127
1, 100603, Note_off_c, 12, 71, 127
1, 100604, Note_on_c, 10, 69, 127
1, 100731, Note_off_c, 10, 69, 127
1, 100732, Note_on_c, 7, 67, 127
1, 100860, Note_on_c, 2, 74, 127
1, 100985, Note_off_c, 7, 67, 127
1, 100986, Note_off_c, 2, 74, 127
1, 100987, Note_on_c, 12, 71, 127
1, 101114, Note_off_c, 12, 71, 127
1, 101115, Note_on_c, 7, 67, 127
1, 101242, Note_off_c, 7, 67, 127
1, 101243, Note_on_c, 12, 71, 127
1, 101370, Note_off_c, 12, 71, 127
1, 101371, Note_on_c, 2, 62, 127
1, 101498, Note_off_c, 2, 62, 127
1, 101499, Note_on_c, 7, 67, 127
1, 101626, Note_off_c, 7, 67, 127
1, 101627, Note_on_c, 7, 55, 127
1, 101754, Note_off_c, 7, 55, 127
1, 101755, Note_on_c, 7, 67, 127
1, 101883, Note_on_c, 2, 74, 127
1, 102008, Note_off_c, 7, 67, 127
1, 102009, Note_off_c, 2, 74, 127
1, 102010, Note_on_c, 12, 71, 127
1, 102137, Note_off_c, 12, 71, 127
1, 102138, Note_on_c, 7, 67, 127
1, 102265, Note_off_c, 7, 67, 127
1, 102266, Note_on_c, 12, 71, 127
1, 102393, Note_off_c, 12, 71, 127
1, 102394, Note_on_c, 2, 62, 127
1, 102521, Note_off_c, 2, 62, 127
1, 102522, Note_on_c, 7, 67, 127
1, 102649, Note_off_c, 7, 67, 127
1, 102650, Note_on_c, 7, 55, 127
1, 102777, Note_off_c, 7, 55, 127
1, 102778, Note_on_c, 7, 67, 127
1, 102906, Note_on_c, 2, 74, 127
1, 103031, Note_off_c, 7, 67, 127
1, 103032, Note_off_c, 2, 74, 127
1, 103033, Note_on_c, 12, 71, 127
1, 103160, Note_off_c, 12, 71, 127
1, 103161, Note_on_c, 7, 67, 127
1, 103288, Note_off_c, 7, 67, 127
1, 103289, Note_on_c, 12, 71, 127
1, 103416, Note_off_c, 12, 71, 127
1, 103417, Note_on_c, 2, 62, 127
1, 103544, Note_off_c, 2, 62, 127
1, 103545, Note_on_c, 7, 67, 127
1, 103672, Note_off_c, 7, 67, 127
1, 103673, Note_on_c, 7, 55, 127
1, 103800, Note_off_c, 7, 55, 127
1, 103801, Note_on_c, 2, 74, 127
1, 104056, Note_off_c, 2, 74, 127
1, 104057, Note_on_c, 2, 74, 127
1, 104057, Note_on_c, 7, 79, 127
1, 104057, Note_on_c, 12, 71, 127
1, 104057, Note_on_c, 7, 67, 127
1, 104057, Note_on_c, 12, 59, 127
1, 104057, Note_on_c, 2, 62, 127
1, 104284, Note_off_c, 2, 62, 127
1, 104284, Note_off_c, 12, 59, 127
1, 104284, Note_off_c, 7, 67, 127
1, 104284, Note_off_c, 12, 71, 127
1, 104284, Note_off_c, 7, 79, 127
1, 104284, Note_off_c, 2, 74, 127
1, 104313, Note_on_c, 0, 72, 127
1, 104313, Note_on_c, 6, 78, 127
1, 104313, Note_on_c, 10, 69, 127
1, 104313, Note_on_c, 0, 60, 127
1, 104313, Note_on_c, 10, 57, 127
1, 104313, Note_on_c, 6, 66, 127
1, 104540, Note_off_c, 6, 66, 127
1, 104540, Note_off_c, 10, 57, 127
1, 104540, Note_off_c, 0, 60, 127
1, 104540, Note_off_c, 10, 69, 127
1, 104540, Note_off_c, 6, 78, 127
1, 104540, Note_off_c, 0, 72, 127
1, 104569, Note_on_c, 7, 67, 127
1, 104569, Note_on_c, 12, 71, 127
1, 104569, Note_on_c, 4, 76, 127
1, 104569, Note_on_c, 7, 55, 127
1, 104569, Note_on_c, 4, 64, 127
1, 104569, Note_on_c, 12, 59, 127
1, 104796, Note_off_c, 12, 59, 127
1, 104796, Note_off_c, 4, 64, 127
1, 104796, Note_off_c, 7, 55, 127
1, 104796, Note_off_c, 4, 76, 127
1, 104796, Note_off_c, 12, 71, 127
1, 104796, Note_off_c, 7, 67, 127
1, 104825, Note_on_c, 10, 69, 127
1, 104825, Note_on_c, 2, 74, 127
1, 104825, Note_on_c, 6, 66, 127
1, 104825, Note_on_c, 2, 62, 127
1, 104825, Note_on_c, 6, 54, 127
1, 104825, Note_on_c, 10, 57, 127
1, 105052, Note_off_c, 10, 57, 127
1, 105052, Note_off_c, 6, 54, 127
1, 105052, Note_off_c, 2, 62, 127
1, 105052, Note_off_c, 6, 66, 127
1, 105052, Note_off_c, 2, 74, 127
1, 105052, Note_off_c, 10, 69, 127
1, 105081, Note_on_c, 4, 64, 127
1, 105081, Note_on_c, 7, 67, 127
1, 105081, Note_on_c, 0, 72, 127
1, 105081, Note_on_c, 4, 52, 127
1, 105081, Note_on_c, 0, 60, 127
1, 105081, Note_on_c, 7, 55, 127
1, 105308, Note_off_c, 7, 55, 127
1, 105308, Note_off_c, 0, 60, 127
1, 105308, Note_off_c, 4, 52, 127
1, 105308, Note_off_c, 0, 72, 127
1, 105308, Note_off_c, 7, 67, 127
1, 105308, Note_off_c, 4, 64, 127
1, 105337, Note_on_c, 12, 71, 127
1, 105337, Note_on_c, 2, 62, 127
1, 105337, Note_on_c, 6, 66, 127
1, 105337, Note_on_c, 12, 59, 127
1, 105337, Note_on_c, 2, 50, 127
1, 105337, Note_on_c, 6, 54, 127
1, 105564, Note_off_c, 6, 54, 127
1, 105564, Note_off_c, 2, 50, 127
1, 105564, Note_off_c, 12, 59, 127
1, 105564, Note_off_c, 6, 66, 127
1, 105564, Note_off_c, 2, 62, 127
1, 105564, Note_off_c, 12, 71, 127
1, 105593, Note_on_c, 10, 69, 127
1, 105593, Note_on_c, 0, 60, 127
1, 105593, Note_on_c, 4, 64, 127
1, 105593, Note_on_c, 4, 52, 127
1, 105593, Note_on_c, 10, 57, 127
1, 105593, Note_on_c, 0, 48, 127
1, 105820, Note_off_c, 0, 48, 127
1, 105820, Note_off_c, 10, 57, 127
1, 105820, Note_off_c, 4, 52, 127
1, 105820, Note_off_c, 4, 64, 127
1, 105820, Note_off_c, 0, 60, 127
1, 105820, Note_off_c, 10, 69, 127
1, 105849, Note_on_c, 12, 59, 127
1, 105849, Note_on_c, 2, 62, 127
1, 105849, Note_on_c, 7, 67, 127
1, 105849, Note_on_c, 12, 47, 127
1, 105849, Note_on_c, 7, 55, 127
1, 105849, Note_on_c, 2, 50, 127
1, 106102, Note_off_c, 2, 50, 127
1, 106103, Note_off_c, 12, 47, 127
1, 106103, Note_off_c, 7, 67, 127
1, 106103, Note_off_c, 12, 59, 127
1, 106104, Note_on_c, 4, 64, 127
1, 106104, Note_on_c, 7, 67, 127
1, 106104, Note_on_c, 10, 69, 127
1, 106104, Note_on_c, 0, 48, 127
1, 106355, Note_off_c, 7, 55, 127
1, 106355, Note_off_c, 2, 62, 127
1, 106359, Note_off_c, 0, 48, 127
1, 106359, Note_off_c, 10, 69, 127
1, 106359, Note_off_c, 7, 67, 127
1, 106359, Note_off_c, 4, 64, 127
1, 106360, Note_on_c, 7, 67, 127
1, 106360, Note_on_c, 12, 71, 127
1, 106360, Note_on_c, 2, 62, 127
1, 106360, Note_on_c, 2, 50, 127
1, 106487, Note_off_c, 12, 71, 127
1, 106488, Note_on_c, 0, 72, 127
1, 106600, Note_off_c, 2, 62, 127
1, 106600, Note_off_c, 7, 67, 127
1, 106615, Note_off_c, 0, 72, 127
1, 106616, Note_on_c, 10, 69, 127
1, 106616, Note_on_c, 0, 60, 127
1, 106616, Note_on_c, 6, 66, 127
1, 106616, Note_on_c, 2, 38, 127
1, 106743, Note_off_c, 10, 69, 127
1, 106744, Note_on_c, 12, 71, 127
1, 106856, Note_off_c, 6, 66, 127
1, 106856, Note_off_c, 0, 60, 127
1, 106867, Note_off_c, 2, 50, 127
1, 106871, Note_off_c, 12, 71, 127
1, 106871, Note_off_c, 2, 38, 127
1, 106872, Note_on_c, 12, 59, 127
1, 106872, Note_on_c, 7, 67, 127
1, 106872, Note_on_c, 7, 43, 127
1, 106999, Note_off_c, 7, 67, 127
1, 107000, Note_on_c, 12, 71, 127
1, 107125, Note_off_c, 12, 59, 127
1, 107126, Note_off_c, 12, 71, 127
1, 107127, Note_on_c, 10, 69, 127
1, 107254, Note_off_c, 10, 69, 127
1, 107255, Note_on_c, 0, 72, 127
1, 107378, Note_off_c, 7, 43, 127
1, 107382, Note_off_c, 0, 72, 127
1, 107383, Note_on_c, 12, 71, 127
1, 107510, Note_off_c, 12, 71, 127
1, 107511, Note_on_c, 2, 74, 127
1, 107638, Note_off_c, 2, 74, 127
1, 107639, Note_on_c, 0, 72, 127
1, 107766, Note_off_c, 0, 72, 127
1, 107767, Note_on_c, 4, 76, 127
1, 107887, Note_off_c, 4, 76, 127
1, 107895, Note_on_c, 4, 76, 127
1, 107895, Note_on_c, 7, 55, 127
1, 108022, Note_off_c, 7, 55, 127
1, 108022, Note_off_c, 4, 76, 127
1, 108023, Note_on_c, 2, 74, 127
1, 108023, Note_on_c, 12, 59, 127
1, 108084, Note_on_c, 4, 76, 127
1, 108085, Note_off_c, 2, 74, 127
1, 108145, Note_on_c, 2, 74, 127
1, 108146, Note_off_c, 4, 76, 127
1, 108149, Note_off_c, 12, 59, 127
1, 108150, Note_on_c, 10, 57, 127
1, 108206, Note_on_c, 4, 76, 127
1, 108207, Note_off_c, 2, 74, 127
1, 108267, Note_on_c, 2, 74, 127
1, 108268, Note_off_c, 4, 76, 127
1, 108276, Note_off_c, 10, 57, 127
1, 108277, Note_on_c, 0, 60, 127
1, 108328, Note_on_c, 4, 76, 127
1, 108329, Note_off_c, 2, 74, 127
1, 108389, Note_on_c, 2, 74, 127
1, 108390, Note_off_c, 4, 76, 127
1, 108403, Note_off_c, 0, 60, 127
1, 108404, Note_on_c, 12, 59, 127
1, 108449, Note_on_c, 4, 76, 127
1, 108450, Note_off_c, 2, 74, 127
1, 108510, Note_on_c, 2, 74, 127
1, 108511, Note_off_c, 4, 76, 127
1, 108530, Note_off_c, 12, 59, 127
1, 108531, Note_on_c, 2, 62, 127
1, 108571, Note_on_c, 4, 76, 127
1, 108572, Note_off_c, 2, 74, 127
1, 108632, Note_on_c, 2, 74, 127
1, 108633, Note_off_c, 4, 76, 127
1, 108657, Note_off_c, 2, 62, 127
1, 108658, Note_on_c, 0, 60, 127
1, 108693, Note_on_c, 4, 76, 127
1, 108694, Note_off_c, 2, 74, 127
1, 108754, Note_on_c, 2, 74, 127
1, 108755, Note_off_c, 4, 76, 127
1, 108784, Note_off_c, 0, 60, 127
1, 108785, Note_on_c, 4, 64, 127
1, 108814, Note_on_c, 4, 76, 127
1, 108815, Note_off_c, 2, 74, 127
1, 108875, Note_on_c, 2, 74, 127
1, 108876, Note_off_c, 4, 76, 127
1, 108911, Note_off_c, 4, 64, 127
1, 108912, Note_on_c, 2, 62, 127
1, 108936, Note_on_c, 4, 76, 127
1, 108937, Note_off_c, 2, 74, 127
1, 108997, Note_on_c, 2, 74, 127
1, 108998, Note_off_c, 4, 76, 127
1, 109038, Note_off_c, 2, 62, 127
1, 109039, Note_on_c, 6, 66, 127
1, 109058, Note_on_c, 4, 76, 127
1, 109059, Note_off_c, 2, 74, 127
1, 109119, Note_on_c, 2, 74, 127
1, 109120, Note_off_c, 4, 76, 127
1, 109165, Note_off_c, 6, 66, 127
1, 109166, Note_on_c, 4, 64, 127
1, 109179, Note_on_c, 4, 76, 127
1, 109180, Note_off_c, 2, 74, 127
1, 109240, Note_on_c, 2, 74, 127
1, 109241, Note_off_c, 4, 76, 127
1, 109292, Note_off_c, 4, 64, 127
1, 109293, Note_on_c, 7, 67, 127
1, 109301, Note_on_c, 4, 76, 127
1, 109302, Note_off_c, 2, 74, 127
1, 109362, Note_on_c, 2, 74, 127
1, 109363, Note_off_c, 4, 76, 127
1, 109419, Note_off_c, 7, 67, 127
1, 109420, Note_on_c, 6, 66, 127
1, 109423, Note_on_c, 4, 76, 127
1, 109424, Note_off_c, 2, 74, 127
1, 109484, Note_on_c, 2, 74, 127
1, 109485, Note_off_c, 4, 76, 127
1, 109546, Note_off_c, 6, 66, 127
1, 109547, Note_on_c, 10, 69, 127
1, 109674, Note_off_c, 10, 69, 127
1, 109675, Note_on_c, 7, 67, 127
1, 109802, Note_off_c, 7, 67, 127
1, 109803, Note_on_c, 6, 66, 127
1, 109923, Note_off_c, 2, 74, 127
1, 109930, Note_off_c, 6, 66, 127
1, 109931, Note_on_c, 7, 67, 127
1, 110059, Note_on_c, 7, 79, 127
1, 110184, Note_off_c, 7, 67, 127
1, 110185, Note_off_c, 7, 79, 127
1, 110186, Note_on_c, 6, 78, 127
1, 110313, Note_off_c, 6, 78, 127
1, 110314, Note_on_c, 4, 76, 127
1, 110441, Note_off_c, 4, 76, 127
1, 110442, Note_on_c, 2, 74, 127
1, 110569, Note_off_c, 2, 74, 127
1, 110570, Note_on_c, 0, 72, 127
1, 110697, Note_off_c, 0, 72, 127
1, 110698, Note_on_c, 12, 71, 127
1, 110825, Note_off_c, 12, 71, 127
1, 110826, Note_on_c, 10, 69, 127
1, 110953, Note_off_c, 10, 69, 127
1, 110954, Note_on_c, 7, 67, 127
1, 111082, Note_on_c, 2, 74, 127
1, 111207, Note_off_c, 7, 67, 127
1, 111208, Note_off_c, 2, 74, 127
1, 111209, Note_on_c, 12, 71, 127
1, 111336, Note_off_c, 12, 71, 127
1, 111337, Note_on_c, 7, 67, 127
1, 111464, Note_off_c, 7, 67, 127
1, 111465, Note_on_c, 12, 71, 127
1, 111592, Note_off_c, 12, 71, 127
1, 111593, Note_on_c, 2, 62, 127
1, 111720, Note_off_c, 2, 62, 127
1, 111721, Note_on_c, 7, 67, 127
1, 111848, Note_off_c, 7, 67, 127
1, 111849, Note_on_c, 2, 50, 127
1, 111976, Note_off_c, 2, 50, 127
1, 111977, Note_on_c, 7, 55, 127
1, 112105, Note_on_c, 2, 62, 127
1, 112230, Note_off_c, 7, 55, 127
1, 112231, Note_off_c, 2, 62, 127
1, 112232, Note_on_c, 12, 59, 127
1, 112359, Note_off_c, 12, 59, 127
1, 112360, Note_on_c, 7, 55, 127
1, 112487, Note_off_c, 7, 55, 127
1, 112488, Note_on_c, 12, 59, 127
1, 112615, Note_off_c, 12, 59, 127
1, 112616, Note_on_c, 2, 50, 127
1, 112743, Note_off_c, 2, 50, 127
1, 112744, Note_on_c, 7, 55, 127
1, 112871, Note_off_c, 7, 55, 127
1, 112899, Note_on_c, 2, 38, 127
1, 113026, Note_off_c, 2, 38, 127
1, 113106, Note_on_c, 7, 43, 127
1, 114906, Note_off_c, 7, 43, 127
1, 116527, Note_on_c, 4, 64, 127
1, 116527, Note_on_c, 12, 59, 127
1, 116527, Note_on_c, 4, 52, 127
1, 116527, Note_on_c, 7, 55, 127
1, 116856, Note_on_c, 12, 71, 127
1, 117178, Note_off_c, 7, 55, 127
1, 117178, Note_off_c, 4, 52, 127
1, 117178, Note_off_c, 12, 59, 127
1, 117178, Note_off_c, 4, 64, 127
1, 117183, Note_off_c, 12, 71, 127
1, 117185, Note_on_c, 4, 76, 127
1, 117512, Note_off_c, 4, 76, 127
1, 117514, Note_on_c, 7, 79, 127
1, 117841, Note_off_c, 7, 79, 127
1, 117843, Note_on_c, 6, 78, 127
1, 117843, Note_on_c, 0, 60, 127
1, 117843, Note_on_c, 10, 57, 127
1, 117843, Note_on_c, 4, 52, 127
1, 118170, Note_off_c, 6, 78, 127
1, 118172, Note_on_c, 6, 66, 127
1, 118499, Note_off_c, 4, 52, 127
1, 118499, Note_off_c, 10, 57, 127
1, 118499, Note_off_c, 0, 60, 127
1, 118501, Note_on_c, 12, 59, 127
1, 118501, Note_on_c, 6, 54, 127
1, 118501, Note_on_c, 3, 51, 127
1, 118828, Note_off_c, 6, 66, 127
1, 118830, Note_on_c, 12, 71, 127
1, 118993, Note_off_c, 12, 71, 127
1, 118995, Note_on_c, 6, 66, 127
1, 119158, Note_off_c, 6, 66, 127
1, 119158, Note_off_c, 3, 51, 127
1, 119158, Note_off_c, 6, 54, 127
1, 119158, Note_off_c, 12, 59, 127
1, 119160, Note_on_c, 7, 67, 127
1, 119160, Note_on_c, 12, 59, 127
1, 119160, Note_on_c, 4, 52, 127
1, 119487, Note_off_c, 7, 67, 127
1, 119489, Note_on_c, 6, 66, 127
1, 119652, Note_off_c, 6, 66, 127
1, 119654, Note_on_c, 4, 64, 127
1, 119812, Note_off_c, 4, 52, 127
1, 119812, Note_off_c, 12, 59, 127
1, 119817, Note_off_c, 4, 64, 127
1, 119819, Note_on_c, 0, 72, 127
1, 120148, Note_on_c, 0, 60, 127
1, 120148, Note_on_c, 4, 64, 127
1, 120148, Note_on_c, 10, 57, 127
1, 120475, Note_off_c, 10, 57, 127
1, 120475, Note_off_c, 4, 64, 127
1, 120475, Note_off_c, 0, 60, 127
1, 120477, Note_on_c, 2, 62, 127
1, 120477, Note_on_c, 6, 66, 127
1, 120477, Note_on_c, 2, 50, 127
1, 120804, Note_off_c, 2, 50, 127
1, 120804, Note_off_c, 6, 66, 127
1, 120804, Note_off_c, 0, 72, 127
1, 120806, Note_on_c, 7, 67, 127
1, 120806, Note_on_c, 12, 71, 127
1, 120806, Note_on_c, 7, 55, 127
1, 121128, Note_off_c, 2, 62, 127
1, 121133, Note_off_c, 7, 55, 127
1, 121135, Note_on_c, 4, 64, 127
1, 121135, Note_on_c, 1, 49, 127
1, 121457, Note_off_c, 12, 71, 127
1, 121457, Note_off_c, 7, 67, 127
1, 121462, Note_off_c, 1, 49, 127
1, 121462, Note_off_c, 4, 64, 127
1, 121464, Note_on_c, 6, 66, 127
1, 121464, Note_on_c, 10, 69, 127
1, 121464, Note_on_c, 12, 59, 127
1, 121464, Note_on_c, 3, 51, 127
1, 121791, Note_off_c, 3, 51, 127
1, 121793, Note_on_c, 4, 52, 127
1, 122120, Note_off_c, 4, 52, 127
1, 122120, Note_off_c, 10, 69, 127
1, 122120, Note_off_c, 6, 66, 127
1, 122122, Note_on_c, 4, 64, 127
1, 122122, Note_on_c, 7, 67, 127
1, 122122, Note_on_c, 7, 43, 127
1, 122285, Note_off_c, 4, 64, 127
1, 122287, Note_on_c, 2, 62, 127
1, 122450, Note_off_c, 2, 62, 127
1, 122450, Note_off_c, 7, 43, 127
1, 122452, Note_on_c, 0, 60, 127
1, 122452, Note_on_c, 10, 45, 127
1, 122774, Note_off_c, 7, 67, 127
1, 122779, Note_off_c, 12, 59, 127
1, 122781, Note_on_c, 5, 65, 127
1, 122781, Note_on_c, 10, 57, 127
1, 122944, Note_off_c, 10, 57, 127
1, 122944, Note_off_c, 5, 65, 127
1, 122946, Note_on_c, 10, 69, 127
1, 122946, Note_on_c, 7, 55, 127
1, 123104, Note_off_c, 0, 60, 127
1, 123109, Note_off_c, 7, 55, 127
1, 123109, Note_off_c, 10, 69, 127
1, 123111, Note_on_c, 12, 59, 127
1, 123111, Note_on_c, 3, 63, 127
1, 123111, Note_on_c, 6, 54, 127
1, 123438, Note_off_c, 6, 54, 127
1, 123438, Note_off_c, 3, 63, 127
1, 123438, Note_off_c, 10, 45, 127
1, 123440, Note_on_c, 4, 64, 127
1, 123440, Note_on_c, 7, 43, 127
1, 123440, Note_on_c, 4, 52, 127
1, 123603, Note_off_c, 4, 64, 127
1, 123605, Note_on_c, 12, 71, 127
1, 123768, Note_off_c, 12, 71, 127
1, 123768, Note_off_c, 7, 43, 127
1, 123770, Note_on_c, 7, 67, 127
1, 123770, Note_on_c, 12, 47, 127
1, 124092, Note_off_c, 4, 52, 127
1, 124097, Note_off_c, 7, 67, 127
1, 124097, Note_off_c, 12, 59, 127
1, 124099, Note_on_c, 10, 57, 127
1, 124099, Note_on_c, 6, 66, 127
1, 124099, Note_on_c, 3, 51, 127
1, 124262, Note_off_c, 6, 66, 127
1, 124264, Note_on_c, 4, 64, 127
1, 124422, Note_off_c, 12, 47, 127
1, 124425, Note_off_c, 10, 57, 127
1, 124427, Note_off_c, 4, 64, 127
1, 124427, Note_off_c, 3, 51, 127
1, 124429, Note_on_c, 7, 55, 127
1, 124429, Note_on_c, 4, 64, 127
1, 124429, Note_on_c, 4, 52, 127
1, 124429, Note_on_c, 4, 40, 127
1, 124756, Note_off_c, 7, 55, 127
1, 124798, Note_on_c, 12, 71, 127
1, 124834, Note_off_c, 4, 64, 127
1, 125080, Note_off_c, 4, 40, 127
1, 125080, Note_off_c, 4, 52, 127
1, 125125, Note_off_c, 12, 71, 127
1, 125127, Note_on_c, 4, 76, 127
1, 125454, Note_off_c, 4, 76, 127
1, 125456, Note_on_c, 4, 76, 127
1, 125619, Note_off_c, 4, 76, 127
1, 125621, Note_on_c, 7, 79, 127
1, 125703, Note_off_c, 7, 79, 127
1, 125703, Note_on_c, 6, 78, 127
1, 125785, Note_off_c, 6, 78, 127
1, 125785, Note_on_c, 6, 78, 127
1, 125785, Note_on_c, 11, 58, 127
1, 125785, Note_on_c, 1, 61, 127
1, 125785, Note_on_c, 4, 52, 127
1, 125785, Note_on_c, 6, 54, 127
1, 126112, Note_off_c, 6, 78, 127
1, 126114, Note_on_c, 11, 70, 127
1, 126277, Note_off_c, 11, 70, 127
1, 126279, Note_on_c, 1, 73, 127
1, 126361, Note_off_c, 1, 73, 127
1, 126361, Note_on_c, 6, 66, 127
1, 126442, Note_off_c, 6, 54, 127
1, 126442, Note_off_c, 4, 52, 127
1, 126442, Note_off_c, 1, 61, 127
1, 126442, Note_off_c, 11, 58, 127
1, 126444, Note_off_c, 6, 66, 127
1, 126444, Note_on_c, 12, 71, 127
1, 126444, Note_on_c, 2, 50, 127
1, 126444, Note_on_c, 6, 54, 127
1, 126773, Note_on_c, 12, 59, 127
1, 127100, Note_off_c, 12, 59, 127
1, 127100, Note_off_c, 6, 54, 127
1, 127100, Note_off_c, 2, 50, 127
1, 127102, Note_on_c, 4, 64, 127
1, 127102, Note_on_c, 7, 55, 127
1, 127102, Note_on_c, 1, 49, 127
1, 127429, Note_off_c, 7, 55, 127
1, 127429, Note_off_c, 4, 64, 127
1, 127431, Note_on_c, 7, 67, 127
1, 127431, Note_on_c, 4, 52, 127
1, 127753, Note_off_c, 1, 49, 127
1, 127758, Note_off_c, 4, 52, 127
1, 127758, Note_off_c, 7, 67, 127
1, 127758, Note_off_c, 12, 71, 127
1, 127760, Note_on_c, 6, 66, 127
1, 127760, Note_on_c, 11, 70, 127
1, 127760, Note_on_c, 6, 54, 127
1, 128087, Note_off_c, 6, 66, 127
1, 128089, Note_on_c, 4, 64, 127
1, 128089, Note_on_c, 6, 42, 127
1, 128411, Note_off_c, 6, 54, 127
1, 128411, Note_off_c, 11, 70, 127
1, 128416, Note_off_c, 6, 42, 127
1, 128416, Note_off_c, 4, 64, 127
1, 128418, Note_on_c, 2, 62, 127
1, 128418, Note_on_c, 12, 71, 127
1, 128418, Note_on_c, 12, 47, 127
1, 128745, Note_off_c, 2, 62, 127
1, 128747, Note_on_c, 1, 61, 127
1, 128910, Note_off_c, 1, 61, 127
1, 128912, Note_on_c, 2, 62, 127
1, 128994, Note_off_c, 2, 62, 127
1, 128994, Note_on_c, 12, 59, 127
1, 129069, Note_off_c, 12, 47, 127
1, 129069, Note_off_c, 12, 71, 127
1, 129076, Note_off_c, 12, 59, 127
1, 129076, Note_on_c, 7, 67, 127
1, 129405, Note_on_c, 2, 74, 127
1, 129405, Note_on_c, 12, 59, 127
1, 129727, Note_off_c, 7, 67, 127
1, 129732, Note_off_c, 12, 59, 127
1, 129732, Note_off_c, 2, 74, 127
1, 129734, Note_on_c, 7, 67, 127
1, 129734, Note_on_c, 4, 76, 127
1, 129734, Note_on_c, 0, 60, 127
1, 130061, Note_off_c, 4, 76, 127
1, 130063, Note_on_c, 6, 78, 127
1, 130226, Note_off_c, 6, 78, 127
1, 130228, Note_on_c, 4, 76, 127
1, 130310, Note_off_c, 4, 76, 127
1, 130310, Note_on_c, 6, 78, 127
1, 130385, Note_off_c, 7, 67, 127
1, 130390, Note_off_c, 0, 60, 127
1, 130392, Note_off_c, 6, 78, 127
1, 130392, Note_on_c, 10, 69, 127
1, 130392, Note_on_c, 7, 79, 127
1, 130392, Note_on_c, 1, 61, 127
1, 130555, Note_off_c, 7, 79, 127
1, 130557, Note_on_c, 12, 83, 127
1, 130720, Note_off_c, 12, 83, 127
1, 130722, Note_on_c, 10, 81, 127
1, 130885, Note_off_c, 10, 81, 127
1, 130887, Note_on_c, 4, 76, 127
1, 131050, Note_off_c, 4, 76, 127
1, 131050, Note_off_c, 1, 61, 127
1, 131052, Note_on_c, 6, 78, 127
1, 131052, Note_on_c, 2, 62, 127
1, 131379, Note_off_c, 2, 62, 127
1, 131379, Note_off_c, 6, 78, 127
1, 131381, Note_on_c, 4, 76, 127
1, 131381, Note_on_c, 0, 60, 127
1, 131544, Note_off_c, 4, 76, 127
1, 131546, Note_on_c, 2, 74, 127
1, 131709, Note_off_c, 2, 74, 127
1, 131709, Note_off_c, 0, 60, 127
1, 131709, Note_off_c, 10, 69, 127
1, 131711, Note_on_c, 7, 79, 127
1, 131711, Note_on_c, 12, 59, 127
1, 132038, Note_off_c, 12, 59, 127
1, 132040, Note_on_c, 7, 67, 127
1, 132040, Note_on_c, 4, 64, 127
1, 132367, Note_off_c, 4, 64, 127
1, 132367, Note_off_c, 7, 67, 127
1, 132369, Note_on_c, 0, 72, 127
1, 132369, Note_on_c, 10, 57, 127
1, 132696, Note_off_c, 0, 72, 127
1, 132698, Note_on_c, 4, 76, 127
1, 133025, Note_off_c, 4, 76, 127
1, 133025, Note_off_c, 10, 57, 127
1, 133025, Note_off_c, 7, 79, 127
1, 133027, Note_on_c, 2, 74, 127
1, 133027, Note_on_c, 6, 78, 127
1, 133027, Note_on_c, 2, 62, 127
1, 133354, Note_off_c, 2, 74, 127
1, 133356, Note_on_c, 0, 72, 127
1, 133683, Note_off_c, 0, 72, 127
1, 133683, Note_off_c, 2, 62, 127
1, 133685, Note_on_c, 12, 71, 127
1, 133685, Note_on_c, 7, 55, 127
1, 134012, Note_off_c, 6, 78, 127
1, 134014, Note_on_c, 12, 83, 127
1, 134177, Note_off_c, 12, 83, 127
1, 134179, Note_on_c, 3, 75, 127
1, 134337, Note_off_c, 7, 55, 127
1, 134337, Note_off_c, 12, 71, 127
1, 134342, Note_off_c, 3, 75, 127
1, 134344, Note_on_c, 4, 76, 127
1, 134673, Note_on_c, 7, 67, 127
1, 134673, Note_on_c, 12, 59, 127
1, 134673, Note_on_c, 4, 52, 127
1, 135000, Note_off_c, 4, 52, 127
1, 135000, Note_off_c, 12, 59, 127
1, 135000, Note_off_c, 7, 67, 127
1, 135002, Note_on_c, 6, 66, 127
1, 135002, Note_on_c, 10, 57, 127
1, 135331, Note_on_c, 0, 60, 127
1, 135653, Note_off_c, 10, 57, 127
1, 135658, Note_off_c, 0, 60, 127
1, 135658, Note_off_c, 4, 76, 127
1, 135660, Note_on_c, 2, 74, 127
1, 135660, Note_on_c, 12, 59, 127
1, 135989, Note_on_c, 10, 57, 127
1, 136316, Note_off_c, 10, 57, 127
1, 136316, Note_off_c, 6, 66, 127
1, 136318, Note_on_c, 4, 64, 127
1, 136318, Note_on_c, 7, 55, 127
1, 136645, Note_off_c, 7, 55, 127
1, 136647, Note_on_c, 6, 54, 127
1, 136810, Note_off_c, 6, 54, 127
1, 136812, Note_on_c, 4, 52, 127
1, 136975, Note_off_c, 4, 52, 127
1, 136975, Note_off_c, 4, 64, 127
1, 136975, Note_off_c, 12, 59, 127
1, 136975, Note_off_c, 2, 74, 127
1, 136977, Note_on_c, 0, 72, 127
1, 136977, Note_on_c, 10, 57, 127
1, 137306, Note_on_c, 4, 64, 127
1, 137633, Note_off_c, 4, 64, 127
1, 137633, Note_off_c, 0, 72, 127
1, 137635, Note_on_c, 12, 71, 127
1, 137635, Note_on_c, 2, 62, 127
1, 137962, Note_off_c, 2, 62, 127
1, 137964, Note_on_c, 5, 65, 127
1, 138291, Note_off_c, 5, 65, 127
1, 138291, Note_off_c, 10, 57, 127
1, 138293, Note_on_c, 4, 64, 127
1, 138293, Note_on_c, 7, 55, 127
1, 138456, Note_off_c, 12, 71, 127
1, 138458, Note_on_c, 1, 73, 127
1, 138621, Note_off_c, 1, 73, 127
1, 138621, Note_off_c, 4, 64, 127
1, 138623, Note_on_c, 2, 74, 127
1, 138623, Note_on_c, 2, 62, 127
1, 138786, Note_off_c, 2, 74, 127
1, 138788, Note_on_c, 4, 76, 127
1, 138951, Note_off_c, 4, 76, 127
1, 138951, Note_off_c, 2, 62, 127
1, 138953, Note_on_c, 10, 69, 127
1, 138953, Note_on_c, 1, 61, 127
1, 139280, Note_off_c, 1, 61, 127
1, 139282, Note_on_c, 12, 59, 127
1, 139445, Note_off_c, 12, 59, 127
1, 139447, Note_on_c, 10, 57, 127
1, 139605, Note_off_c, 10, 69, 127
1, 139610, Note_off_c, 10, 57, 127
1, 139610, Note_off_c, 7, 55, 127
1, 139612, Note_on_c, 6, 54, 127
1, 139612, Note_on_c, 2, 62, 127
1, 139941, Note_on_c, 2, 74, 127
1, 140268, Note_off_c, 2, 74, 127
1, 140268, Note_off_c, 6, 54, 127
1, 140270, Note_on_c, 7, 79, 127
1, 140270, Note_on_c, 4, 52, 127
1, 140597, Note_off_c, 7, 79, 127
1, 140599, Note_on_c, 12, 83, 127
1, 140926, Note_off_c, 12, 83, 127
1, 140926, Note_off_c, 2, 62, 127
1, 140928, Note_on_c, 10, 81, 127
1, 140928, Note_on_c, 0, 60, 127
1, 141255, Note_off_c, 10, 81, 127
1, 141257, Note_on_c, 7, 79, 127
1, 141584, Note_off_c, 7, 79, 127
1, 141584, Note_off_c, 4, 52, 127
1, 141586, Note_on_c, 6, 78, 127
1, 141586, Note_on_c, 2, 50, 127
1, 141913, Note_off_c, 6, 78, 127
1, 141915, Note_on_c, 4, 76, 127
1, 142078, Note_off_c, 4, 76, 127
1, 142080, Note_on_c, 2, 74, 127
1, 142243, Note_off_c, 2, 74, 127
1, 142243, Note_off_c, 2, 50, 127
1, 142243, Note_off_c, 0, 60, 127
1, 142245, Note_on_c, 7, 79, 127
1, 142245, Note_on_c, 12, 59, 127
1, 142245, Note_on_c, 4, 52, 127
1, 142574, Note_on_c, 7, 67, 127
1, 142901, Note_off_c, 7, 67, 127
1, 142901, Note_off_c, 4, 52, 127
1, 142901, Note_off_c, 12, 59, 127
1, 142903, Note_on_c, 0, 72, 127
1, 142903, Note_on_c, 10, 57, 127
1, 142903, Note_on_c, 10, 45, 127
1, 143230, Note_off_c, 0, 72, 127
1, 143232, Note_on_c, 4, 76, 127
1, 143559, Note_off_c, 4, 76, 127
1, 143559, Note_off_c, 10, 45, 127
1, 143559, Note_off_c, 7, 79, 127
1, 143561, Note_on_c, 2, 74, 127
1, 143561, Note_on_c, 6, 78, 127
1, 143561, Note_on_c, 2, 50, 127
1, 143888, Note_off_c, 2, 74, 127
1, 143890, Note_on_c, 0, 72, 127
1, 144217, Note_off_c, 0, 72, 127
1, 144217, Note_off_c, 2, 50, 127
1, 144217, Note_off_c, 10, 57, 127
1, 144219, Note_on_c, 12, 71, 127
1, 144219, Note_on_c, 7, 43, 127
1, 144219, Note_on_c, 7, 55, 127
1, 144546, Note_off_c, 12, 71, 127
1, 144548, Note_on_c, 2, 74, 127
1, 144875, Note_off_c, 2, 74, 127
1, 144875, Note_off_c, 7, 43, 127
1, 144875, Note_off_c, 6, 78, 127
1, 144877, Note_on_c, 4, 76, 127
1, 144877, Note_on_c, 0, 72, 127
1, 144877, Note_on_c, 0, 48, 127
1, 145204, Note_off_c, 0, 72, 127
1, 145206, Note_on_c, 2, 74, 127
1, 145369, Note_off_c, 2, 74, 127
1, 145371, Note_on_c, 12, 71, 127
1, 145534, Note_off_c, 12, 71, 127
1, 145534, Note_off_c, 0, 48, 127
1, 145534, Note_off_c, 7, 55, 127
1, 145536, Note_on_c, 10, 69, 127
1, 145536, Note_on_c, 6, 54, 127
1, 145536, Note_on_c, 6, 42, 127
1, 145863, Note_off_c, 10, 69, 127
1, 145865, Note_on_c, 0, 72, 127
1, 146192, Note_off_c, 0, 72, 127
1, 146192, Note_off_c, 6, 42, 127
1, 146192, Note_off_c, 4, 76, 127
1, 146194, Note_on_c, 2, 74, 127
1, 146194, Note_on_c, 12, 71, 127
1, 146194, Note_on_c, 12, 47, 127
1, 146521, Note_off_c, 12, 71, 127
1, 146523, Note_on_c, 0, 72, 127
1, 146686, Note_off_c, 0, 72, 127
1, 146688, Note_on_c, 10, 69, 127
1, 146851, Note_off_c, 10, 69, 127
1, 146851, Note_off_c, 12, 47, 127
1, 146851, Note_off_c, 6, 54, 127
1, 146853, Note_on_c, 7, 67, 127
1, 146853, Note_on_c, 4, 52, 127
1, 146853, Note_on_c, 4, 40, 127
1, 147180, Note_off_c, 7, 67, 127
1, 147182, Note_on_c, 12, 71, 127
1, 147509, Note_off_c, 12, 71, 127
1, 147509, Note_off_c, 4, 40, 127
1, 147509, Note_off_c, 2, 74, 127
1, 147511, Note_on_c, 10, 69, 127
1, 147511, Note_on_c, 0, 72, 127
1, 147511, Note_on_c, 10, 45, 127
1, 147838, Note_off_c, 10, 69, 127
1, 147840, Note_on_c, 7, 67, 127
1, 148167, Note_off_c, 7, 67, 127
1, 148167, Note_off_c, 10, 45, 127
1, 148167, Note_off_c, 4, 52, 127
1, 148169, Note_on_c, 6, 66, 127
1, 148169, Note_on_c, 2, 50, 127
1, 148169, Note_on_c, 2, 38, 127
1, 148496, Note_off_c, 6, 66, 127
1, 148498, Note_on_c, 4, 64, 127
1, 148661, Note_off_c, 4, 64, 127
1, 148663, Note_on_c, 2, 62, 127
1, 148821, Note_off_c, 2, 38, 127
1, 148821, Note_off_c, 2, 50, 127
1, 148826, Note_off_c, 2, 62, 127
1, 148826, Note_off_c, 0, 72, 127
1, 148828, Note_on_c, 7, 67, 127
1, 148828, Note_on_c, 12, 71, 127
1, 149157, Note_on_c, 7, 55, 127
1, 149484, Note_off_c, 7, 55, 127
1, 149484, Note_off_c, 12, 71, 127
1, 149484, Note_off_c, 7, 67, 127
1, 149486, Note_on_c, 10, 69, 127
1, 149486, Note_on_c, 0, 60, 127
1, 149813, Note_off_c, 0, 60, 127
1, 149815, Note_on_c, 4, 64, 127
1, 150142, Note_off_c, 4, 64, 127
1, 150144, Note_on_c, 6, 66, 127
1, 150144, Note_on_c, 2, 62, 127
1, 150471, Note_off_c, 2, 62, 127
1, 150473, Note_on_c, 0, 60, 127
1, 150473, Note_on_c, 2, 50, 127
1, 150800, Note_off_c, 2, 50, 127
1, 150800, Note_off_c, 0, 60, 127
1, 150800, Note_off_c, 6, 66, 127
1, 150800, Note_off_c, 10, 69, 127
1, 150802, Note_on_c, 7, 67, 127
1, 150802, Note_on_c, 12, 59, 127
1, 150802, Note_on_c, 7, 55, 127
1, 151129, Note_off_c, 7, 55, 127
1, 151129, Note_off_c, 12, 59, 127
1, 151131, Note_on_c, 12, 59, 127
1, 151458, Note_off_c, 12, 59, 127
1, 151458, Note_off_c, 7, 67, 127
1, 151460, Note_on_c, 4, 76, 127
1, 151460, Note_on_c, 10, 57, 127
1, 151787, Note_off_c, 10, 57, 127
1, 151789, Note_on_c, 4, 64, 127
1, 151789, Note_on_c, 7, 55, 127
1, 152116, Note_off_c, 7, 55, 127
1, 152116, Note_off_c, 4, 64, 127
1, 152118, Note_on_c, 10, 69, 127
1, 152118, Note_on_c, 6, 54, 127
1, 152445, Note_off_c, 10, 69, 127
1, 152447, Note_on_c, 0, 72, 127
1, 152774, Note_off_c, 0, 72, 127
1, 152774, Note_off_c, 6, 54, 127
1, 152774, Note_off_c, 4, 76, 127
1, 152776, Note_on_c, 12, 71, 127
1, 152776, Note_on_c, 3, 75, 127
1, 152776, Note_on_c, 12, 59, 127
1, 153103, Note_off_c, 12, 71, 127
1, 153105, Note_on_c, 10, 69, 127
1, 153427, Note_off_c, 3, 75, 127
1, 153432, Note_off_c, 10, 69, 127
1, 153432, Note_off_c, 12, 59, 127
1, 153434, Note_on_c, 7, 67, 127
1, 153434, Note_on_c, 4, 76, 127
1, 153434, Note_on_c, 4, 52, 127
1, 153597, Note_off_c, 7, 67, 127
1, 153599, Note_on_c, 6, 66, 127
1, 153762, Note_off_c, 6, 66, 127
1, 153764, Note_on_c, 4, 64, 127
1, 153915, Note_off_c, 4, 76, 127
1, 153929, Note_on_c, 2, 74, 127
1, 154087, Note_off_c, 4, 52, 127
1, 154090, Note_off_c, 4, 64, 127
1, 154092, Note_off_c, 2, 74, 127
1, 154094, Note_on_c, 0, 72, 127
1, 154094, Note_on_c, 10, 69, 127
1, 154423, Note_on_c, 10, 57, 127
1, 154750, Note_off_c, 10, 57, 127
1, 154750, Note_off_c, 0, 72, 127
1, 154752, Note_on_c, 12, 71, 127
1, 154752, Note_on_c, 2, 62, 127
1, 155079, Note_off_c, 2, 62, 127
1, 155081, Note_on_c, 5, 65, 127
1, 155408, Note_off_c, 5, 65, 127
1, 155408, Note_off_c, 10, 69, 127
1, 155410, Note_on_c, 7, 67, 127
1, 155410, Note_on_c, 4, 64, 127
1, 155737, Note_off_c, 4, 64, 127
1, 155739, Note_on_c, 2, 62, 127
1, 156066, Note_off_c, 2, 62, 127
1, 156066, Note_off_c, 12, 71, 127
1, 156068, Note_on_c, 10, 69, 127
1, 156068, Note_on_c, 0, 60, 127
1, 156395, Note_off_c, 0, 60, 127
1, 156397, Note_on_c, 4, 64, 127
1, 156724, Note_off_c, 4, 64, 127
1, 156724, Note_off_c, 7, 67, 127
1, 156726, Note_on_c, 6, 66, 127
1, 156726, Note_on_c, 2, 62, 127
1, 157053, Note_off_c, 2, 62, 127
1, 157055, Note_on_c, 4, 64, 127
1, 157218, Note_off_c, 4, 64, 127
1, 157220, Note_on_c, 0, 60, 127
1, 157383, Note_off_c, 0, 60, 127
1, 157383, Note_off_c, 10, 69, 127
1, 157385, Note_on_c, 7, 67, 127
1, 157385, Note_on_c, 12, 59, 127
1, 157712, Note_off_c, 12, 59, 127
1, 157714, Note_on_c, 2, 62, 127
1, 158041, Note_off_c, 2, 62, 127
1, 158041, Note_off_c, 6, 66, 127
1, 158043, Note_on_c, 4, 64, 127
1, 158043, Note_on_c, 0, 60, 127
1, 158370, Note_off_c, 0, 60, 127
1, 158372, Note_on_c, 2, 62, 127
1, 158535, Note_off_c, 2, 62, 127
1, 158537, Note_on_c, 12, 59, 127
1, 158700, Note_off_c, 12, 59, 127
1, 158700, Note_off_c, 7, 67, 127
1, 158702, Note_on_c, 6, 66, 127
1, 158702, Note_on_c, 10, 57, 127
1, 159029, Note_off_c, 10, 57, 127
1, 159031, Note_on_c, 0, 60, 127
1, 159358, Note_off_c, 0, 60, 127
1, 159358, Note_off_c, 4, 64, 127
1, 159360, Note_on_c, 3, 63, 127
1, 159360, Note_on_c, 12, 59, 127
1, 159687, Note_off_c, 12, 59, 127
1, 159689, Note_on_c, 10, 57, 127
1, 159689, Note_on_c, 12, 47, 127
1, 160016, Note_off_c, 12, 47, 127
1, 160016, Note_off_c, 10, 57, 127
1, 160016, Note_off_c, 3, 63, 127
1, 160016, Note_off_c, 6, 66, 127
1, 160018, Note_on_c, 4, 64, 127
1, 160018, Note_on_c, 7, 55, 127
1, 160018, Note_on_c, 4, 52, 127
1, 160345, Note_off_c, 4, 52, 127
1, 160345, Note_off_c, 7, 55, 127
1, 160347, Note_on_c, 7, 55, 127
1, 160674, Note_off_c, 7, 55, 127
1, 160674, Note_off_c, 4, 64, 127
1, 160676, Note_on_c, 7, 67, 127
1, 160676, Note_on_c, 4, 64, 127
1, 160676, Note_on_c, 0, 72, 127
1, 160676, Note_on_c, 5, 53, 127
1, 161003, Note_off_c, 5, 53, 127
1, 161005, Note_on_c, 4, 52, 127
1, 161332, Note_off_c, 4, 52, 127
1, 161332, Note_off_c, 4, 64, 127
1, 161332, Note_off_c, 7, 67, 127
1, 161334, Note_on_c, 10, 69, 127
1, 161334, Note_on_c, 5, 65, 127
1, 161334, Note_on_c, 2, 50, 127
1, 161661, Note_off_c, 2, 50, 127
1, 161661, Note_off_c, 0, 72, 127
1, 161663, Note_on_c, 12, 71, 127
1, 161663, Note_on_c, 5, 53, 127
1, 161985, Note_off_c, 10, 69, 127
1, 161990, Note_off_c, 5, 53, 127
1, 161990, Note_off_c, 12, 71, 127
1, 161992, Note_on_c, 12, 71, 127
1, 161992, Note_on_c, 4, 52, 127
1, 162319, Note_off_c, 4, 52, 127
1, 162321, Note_on_c, 5, 53, 127
1, 162484, Note_off_c, 5, 53, 127
1, 162486, Note_on_c, 2, 50, 127
1, 162649, Note_off_c, 2, 50, 127
1, 162649, Note_off_c, 5, 65, 127
1, 162651, Note_on_c, 4, 64, 127
1, 162651, Note_on_c, 4, 76, 127
1, 162651, Note_on_c, 0, 48, 127
1, 162978, Note_off_c, 0, 48, 127
1, 162978, Note_off_c, 12, 71, 127
1, 162980, Note_on_c, 10, 69, 127
1, 162980, Note_on_c, 4, 52, 127
1, 163307, Note_off_c, 4, 52, 127
1, 163307, Note_off_c, 10, 69, 127
1, 163309, Note_on_c, 10, 69, 127
1, 163309, Note_on_c, 2, 50, 127
1, 163636, Note_off_c, 2, 50, 127
1, 163638, Note_on_c, 0, 48, 127
1, 163965, Note_off_c, 0, 48, 127
1, 163965, Note_off_c, 4, 76, 127
1, 163965, Note_off_c, 4, 64, 127
1, 163967, Note_on_c, 5, 65, 127
1, 163967, Note_on_c, 2, 74, 127
1, 163967, Note_on_c, 12, 47, 127
1, 164132, Note_off_c, 10, 69, 127
1, 164132, Note_on_c, 0, 72, 127
1, 164295, Note_off_c, 0, 72, 127
1, 164295, Note_off_c, 12, 47, 127
1, 164297, Note_on_c, 12, 71, 127
1, 164297, Note_on_c, 2, 50, 127
1, 164460, Note_off_c, 12, 71, 127
1, 164462, Note_on_c, 10, 69, 127
1, 164620, Note_off_c, 5, 65, 127
1, 164625, Note_off_c, 10, 69, 127
1, 164625, Note_off_c, 2, 50, 127
1, 164627, Note_on_c, 4, 64, 127
1, 164627, Note_on_c, 8, 68, 127
1, 164627, Note_on_c, 4, 52, 127
1, 164954, Note_off_c, 4, 52, 127
1, 164956, Note_on_c, 4, 40, 127
1, 165283, Note_off_c, 4, 40, 127
1, 165283, Note_off_c, 8, 68, 127
1, 165283, Note_off_c, 4, 64, 127
1, 165285, Note_on_c, 4, 64, 127
1, 165285, Note_on_c, 10, 69, 127
1, 165285, Note_on_c, 10, 45, 127
1, 165614, Note_off_c, 2, 74, 127
1, 165614, Note_on_c, 0, 72, 127
1, 165777, Note_off_c, 0, 72, 127
1, 165779, Note_on_c, 12, 71, 127
1, 165937, Note_off_c, 10, 69, 127
1, 165937, Note_off_c, 4, 64, 127
1, 165942, Note_off_c, 12, 71, 127
1, 165944, Note_on_c, 0, 72, 127
1, 165944, Note_on_c, 10, 57, 127
1, 166109, Note_on_c, 7, 67, 127
1, 166272, Note_off_c, 7, 67, 127
1, 166272, Note_off_c, 10, 57, 127
1, 166274, Note_on_c, 6, 66, 127
1, 166274, Note_on_c, 7, 55, 127
1, 166437, Note_off_c, 6, 66, 127
1, 166439, Note_on_c, 4, 64, 127
1, 166602, Note_off_c, 4, 64, 127
1, 166602, Note_off_c, 7, 55, 127
1, 166602, Note_off_c, 10, 45, 127
1, 166604, Note_on_c, 3, 63, 127
1, 166604, Note_on_c, 12, 47, 127
1, 166604, Note_on_c, 6, 54, 127
1, 166931, Note_off_c, 6, 54, 127
1, 166933, Note_on_c, 10, 57, 127
1, 167260, Note_off_c, 10, 57, 127
1, 167260, Note_off_c, 0, 72, 127
1, 167262, Note_on_c, 12, 71, 127
1, 167262, Note_on_c, 7, 55, 127
1, 167589, Note_off_c, 7, 55, 127
1, 167591, Note_on_c, 6, 54, 127
1, 167918, Note_off_c, 6, 54, 127
1, 167918, Note_off_c, 12, 47, 127
1, 167918, Note_off_c, 3, 63, 127
1, 167920, Note_on_c, 4, 64, 127
1, 167920, Note_on_c, 4, 52, 127
1, 167920, Note_on_c, 0, 48, 127
1, 168247, Note_off_c, 4, 52, 127
1, 168249, Note_on_c, 7, 55, 127
1, 168571, Note_off_c, 0, 48, 127
1, 168576, Note_off_c, 7, 55, 127
1, 168576, Note_off_c, 12, 71, 127
1, 168578, Note_on_c, 10, 69, 127
1, 168578, Note_on_c, 1, 49, 127
1, 168578, Note_on_c, 6, 54, 127
1, 168905, Note_off_c, 6, 54, 127
1, 168907, Note_on_c, 4, 52, 127
1, 169229, Note_off_c, 1, 49, 127
1, 169234, Note_off_c, 4, 52, 127
1, 169234, Note_off_c, 4, 64, 127
1, 169236, Note_on_c, 2, 62, 127
1, 169236, Note_on_c, 2, 50, 127
1, 169236, Note_on_c, 6, 54, 127
1, 169563, Note_off_c, 2, 62, 127
1, 169565, Note_on_c, 0, 72, 127
1, 169892, Note_off_c, 0, 72, 127
1, 169892, Note_off_c, 6, 54, 127
1, 169892, Note_off_c, 2, 50, 127
1, 169892, Note_off_c, 10, 69, 127
1, 169894, Note_on_c, 6, 66, 127
1, 169894, Note_on_c, 12, 71, 127
1, 169894, Note_on_c, 12, 59, 127
1, 169894, Note_on_c, 3, 51, 127
1, 170221, Note_off_c, 12, 71, 127
1, 170223, Note_on_c, 10, 69, 127
1, 170545, Note_off_c, 6, 66, 127
1, 170550, Note_off_c, 10, 69, 127
1, 170550, Note_off_c, 3, 51, 127
1, 170552, Note_on_c, 4, 64, 127
1, 170552, Note_on_c, 4, 52, 127
1, 170881, Note_on_c, 7, 67, 127
1, 171032, Note_off_c, 4, 64, 127
1, 171046, Note_on_c, 2, 62, 127
1, 171209, Note_off_c, 2, 62, 127
1, 171209, Note_off_c, 4, 52, 127
1, 171209, Note_off_c, 12, 59, 127
1, 171211, Note_on_c, 0, 60, 127
1, 171211, Note_on_c, 10, 57, 127
1, 171211, Note_on_c, 10, 45, 127
1, 171533, Note_off_c, 7, 67, 127
1, 171540, Note_on_c, 5, 65, 127
1, 171703, Note_off_c, 5, 65, 127
1, 171703, Note_off_c, 10, 57, 127
1, 171705, Note_on_c, 10, 69, 127
1, 171705, Note_on_c, 7, 55, 127
1, 171863, Note_off_c, 0, 60, 127
1, 171868, Note_off_c, 7, 55, 127
1, 171868, Note_off_c, 10, 69, 127
1, 171870, Note_on_c, 3, 63, 127
1, 171870, Note_on_c, 12, 59, 127
1, 171870, Note_on_c, 6, 54, 127
1, 172197, Note_off_c, 6, 54, 127
1, 172197, Note_off_c, 12, 59, 127
1, 172197, Note_off_c, 3, 63, 127
1, 172197, Note_off_c, 10, 45, 127
1, 172199, Note_on_c, 1, 61, 127
1, 172199, Note_on_c, 4, 64, 127
1, 172199, Note_on_c, 7, 55, 127
1, 172199, Note_on_c, 11, 46, 127
1, 172362, Note_off_c, 7, 55, 127
1, 172362, Note_off_c, 4, 64, 127
1, 172364, Note_on_c, 6, 66, 127
1, 172364, Note_on_c, 4, 52, 127
1, 172525, Note_off_c, 11, 46, 127
1, 172525, Note_off_c, 1, 61, 127
1, 172527, Note_off_c, 4, 52, 127
1, 172527, Note_off_c, 6, 66, 127
1, 172529, Note_on_c, 12, 59, 127
1, 172529, Note_on_c, 7, 67, 127
1, 172529, Note_on_c, 12, 47, 127
1, 172529, Note_on_c, 4, 52, 127
1, 172856, Note_off_c, 4, 52, 127
1, 172856, Note_off_c, 7, 67, 127
1, 172856, Note_off_c, 12, 59, 127
1, 172858, Note_on_c, 10, 57, 127
1, 172858, Note_on_c, 3, 51, 127
1, 172866, Note_on_c, 6, 66, 127
1, 173044, Note_off_c, 6, 66, 127
1, 173057, Note_on_c, 4, 64, 127
1, 173201, Note_off_c, 12, 47, 127
1, 173203, Note_off_c, 3, 51, 127
1, 173203, Note_off_c, 10, 57, 127
1, 173222, Note_off_c, 4, 64, 127
1, 173246, Note_on_c, 4, 40, 127
1, 173246, Note_on_c, 7, 55, 127
1, 173246, Note_on_c, 4, 52, 127
1, 173246, Note_on_c, 4, 64, 127
1, 174446, Note_off_c, 4, 52, 127
1, 174446, Note_off_c, 7, 55, 127
1, 174446, Note_off_c, 4, 40, 127
1, 174657, Note_off_c, 4, 64, 127
1, 174858, Note_on_c, 4, 76, 127
1, 175047, Note_off_c, 4, 76, 127
1, 175049, Note_on_c, 6, 78, 127
1, 175238, Note_off_c, 6, 78, 127
1, 175241, Note_on_c, 7, 79, 127
1, 175430, Note_off_c, 7, 79, 127
1, 175432, Note_on_c, 6, 54, 127
1, 175432, Note_on_c, 4, 52, 127
1, 175432, Note_on_c, 1, 61, 127
1, 175432, Note_on_c, 11, 70, 127
1, 175813, Note_off_c, 11, 70, 127
1, 175818, Note_on_c, 8, 68, 127
1, 176007, Note_off_c, 8, 68, 127
1, 176009, Note_on_c, 6, 66, 127
1, 176198, Note_off_c, 6, 66, 127
1, 176198, Note_off_c, 1, 61, 127
1, 176198, Note_off_c, 4, 52, 127
1, 176203, Note_on_c, 2, 50, 127
1, 176203, Note_on_c, 12, 71, 127
1, 176587, Note_on_c, 12, 59, 127
1, 176964, Note_off_c, 6, 54, 127
1, 176967, Note_off_c, 12, 59, 127
1, 176967, Note_off_c, 2, 50, 127
1, 176969, Note_on_c, 0, 48, 127
1, 176969, Note_on_c, 7, 55, 127
1, 176969, Note_on_c, 4, 64, 127
1, 177350, Note_off_c, 4, 64, 127
1, 177353, Note_on_c, 7, 67, 127
1, 177734, Note_off_c, 7, 67, 127
1, 177734, Note_off_c, 7, 55, 127
1, 177734, Note_off_c, 12, 71, 127
1, 177739, Note_on_c, 10, 57, 127
1, 177739, Note_on_c, 6, 66, 127
1, 177739, Note_on_c, 10, 69, 127
1, 178120, Note_off_c, 6, 66, 127
1, 178122, Note_on_c, 4, 64, 127
1, 178499, Note_off_c, 10, 69, 127
1, 178501, Note_off_c, 0, 48, 127
1, 178503, Note_off_c, 4, 64, 127
1, 178506, Note_on_c, 12, 47, 127
1, 178506, Note_on_c, 12, 71, 127
1, 178506, Note_on_c, 3, 63, 127
1, 178887, Note_off_c, 3, 63, 127
1, 178887, Note_off_c, 10, 57, 127
1, 178890, Note_on_c, 7, 55, 127
1, 178890, Note_on_c, 4, 64, 127
1, 179271, Note_off_c, 4, 64, 127
1, 179271, Note_off_c, 7, 55, 127
1, 179273, Note_on_c, 6, 54, 127
1, 179273, Note_on_c, 3, 63, 127
1, 179654, Note_off_c, 3, 63, 127
1, 179654, Note_off_c, 6, 54, 127
1, 179659, Note_on_c, 4, 52, 127
1, 179659, Note_on_c, 1, 61, 127
1, 180040, Note_off_c, 1, 61, 127
1, 180040, Note_off_c, 4, 52, 127
1, 180091, Note_on_c, 6, 54, 127
1, 180091, Note_on_c, 3, 63, 127
1, 181758, Note_off_c, 12, 71, 127
1, 181758, Note_off_c, 12, 47, 127
1, 181791, Note_off_c, 3, 63, 127
1, 181791, Note_off_c, 6, 54, 127
1, 182390, Note_on_c, 2, 74, 127
1, 182666, Note_on_c, 12, 71, 127
1, 182669, Note_off_c, 2, 74, 127
1, 183039, Note_off_c, 12, 71, 127
1, 183041, Note_on_c, 0, 72, 127
1, 183164, Note_off_c, 0, 72, 127
1, 183166, Note_on_c, 2, 74, 127
1, 183414, Note_off_c, 2, 74, 127
1, 183415, Note_on_c, 7, 67, 127
1, 183538, Note_off_c, 7, 67, 127
1, 183540, Note_on_c, 7, 79, 127
1, 183663, Note_off_c, 7, 79, 127
1, 183665, Note_on_c, 6, 78, 127
1, 183788, Note_off_c, 6, 78, 127
1, 183789, Note_on_c, 4, 76, 127
1, 183912, Note_off_c, 4, 76, 127
1, 183914, Note_on_c, 2, 74, 127
1, 184037, Note_off_c, 2, 74, 127
1, 184038, Note_on_c, 0, 72, 127
1, 184161, Note_off_c, 0, 72, 127
1, 184163, Note_on_c, 12, 71, 127
1, 184286, Note_off_c, 12, 71, 127
1, 184288, Note_on_c, 4, 76, 127
1, 184411, Note_off_c, 4, 76, 127
1, 184412, Note_on_c, 2, 74, 127
1, 184535, Note_off_c, 2, 74, 127
1, 184537, Note_on_c, 0, 72, 127
1, 184660, Note_off_c, 0, 72, 127
1, 184662, Note_on_c, 12, 71, 127
1, 184785, Note_off_c, 12, 71, 127
1, 184786, Note_on_c, 10, 69, 127
1, 184909, Note_off_c, 10, 69, 127
1, 184911, Note_on_c, 7, 67, 127
1, 185409, Note_off_c, 7, 67, 127
1, 185410, Note_on_c, 10, 69, 127
1, 185658, Note_off_c, 10, 69, 127
1, 185660, Note_on_c, 12, 71, 127
1, 185783, Note_off_c, 12, 71, 127
1, 185784, Note_on_c, 7, 67, 127
1, 185907, Note_off_c, 7, 67, 127
1, 185909, Note_on_c, 12, 71, 127
1, 186032, Note_off_c, 12, 71, 127
1, 186034, Note_on_c, 2, 74, 127
1, 186157, Note_off_c, 2, 74, 127
1, 186158, Note_on_c, 7, 79, 127
1, 186281, Note_off_c, 7, 79, 127
1, 186283, Note_on_c, 12, 71, 127
1, 186406, Note_off_c, 12, 71, 127
1, 186407, Note_on_c, 1, 73, 127
1, 186655, Note_off_c, 1, 73, 127
1, 186657, Note_on_c, 10, 69, 127
1, 186905, Note_off_c, 10, 69, 127
1, 186906, Note_on_c, 7, 67, 127
1, 186906, Note_on_c, 2, 74, 127
1, 187154, Note_off_c, 2, 74, 127
1, 187154, Note_off_c, 7, 67, 127
1, 187155, Note_on_c, 6, 66, 127
1, 187155, Note_on_c, 2, 74, 127
1, 187528, Note_off_c, 2, 74, 127
1, 187528, Note_off_c, 6, 66, 127
1, 187530, Note_on_c, 7, 67, 127
1, 187530, Note_on_c, 4, 76, 127
1, 187653, Note_off_c, 4, 76, 127
1, 187653, Note_off_c, 7, 67, 127
1, 187655, Note_on_c, 10, 69, 127
1, 187655, Note_on_c, 1, 73, 127
1, 187903, Note_off_c, 1, 73, 127
1, 187903, Note_off_c, 10, 69, 127
1, 187904, Note_on_c, 2, 62, 127
1, 187904, Note_on_c, 2, 74, 127
1, 188021, Note_off_c, 2, 74, 127
1, 188027, Note_off_c, 2, 62, 127
1, 188029, Note_on_c, 2, 74, 127
1, 188152, Note_off_c, 2, 74, 127
1, 188153, Note_on_c, 1, 73, 127
1, 188153, Note_on_c, 6, 78, 127
1, 188276, Note_off_c, 1, 73, 127
1, 188278, Note_on_c, 12, 71, 127
1, 188401, Note_off_c, 12, 71, 127
1, 188401, Note_off_c, 6, 78, 127
1, 188403, Note_on_c, 10, 69, 127
1, 188403, Note_on_c, 7, 79, 127
1, 188526, Note_off_c, 10, 69, 127
1, 188527, Note_on_c, 7, 67, 127
1, 188650, Note_off_c, 7, 67, 127
1, 188651, Note_off_c, 7, 79, 127
1, 188652, Note_on_c, 6, 66, 127
1, 188652, Note_on_c, 10, 81, 127
1, 188775, Note_off_c, 6, 66, 127
1, 188776, Note_on_c, 12, 71, 127
1, 188899, Note_off_c, 12, 71, 127
1, 188900, Note_off_c, 10, 81, 127
1, 188901, Note_on_c, 10, 69, 127
1, 188901, Note_on_c, 1, 73, 127
1, 189024, Note_off_c, 10, 69, 127
1, 189026, Note_on_c, 7, 67, 127
1, 189149, Note_off_c, 7, 67, 127
1, 189149, Note_off_c, 1, 73, 127
1, 189150, Note_on_c, 6, 66, 127
1, 189150, Note_on_c, 4, 76, 127
1, 189273, Note_off_c, 6, 66, 127
1, 189275, Note_on_c, 4, 64, 127
1, 189398, Note_off_c, 4, 64, 127
1, 189398, Note_off_c, 4, 76, 127
1, 189400, Note_on_c, 2, 62, 127
1, 189400, Note_on_c, 6, 78, 127
1, 189523, Note_off_c, 6, 78, 127
1, 189524, Note_on_c, 4, 76, 127
1, 189647, Note_off_c, 4, 76, 127
1, 189649, Note_on_c, 6, 78, 127
1, 189772, Note_off_c, 6, 78, 127
1, 189773, Note_on_c, 7, 79, 127
1, 189896, Note_off_c, 7, 79, 127
1, 189897, Note_off_c, 2, 62, 127
1, 189898, Note_on_c, 2, 62, 127
1, 189898, Note_on_c, 10, 81, 127
1, 190021, Note_off_c, 10, 81, 127
1, 190023, Note_on_c, 12, 83, 127
1, 190146, Note_off_c, 12, 83, 127
1, 190146, Note_off_c, 2, 62, 127
1, 190147, Note_on_c, 4, 64, 127
1, 190147, Note_on_c, 0, 84, 127
1, 190270, Note_off_c, 4, 64, 127
1, 190272, Note_on_c, 0, 60, 127
1, 190395, Note_off_c, 0, 60, 127
1, 190395, Note_off_c, 0, 84, 127
1, 190397, Note_on_c, 4, 64, 127
1, 190397, Note_on_c, 7, 79, 127
1, 190520, Note_off_c, 4, 64, 127
1, 190521, Note_on_c, 7, 67, 127
1, 190644, Note_off_c, 7, 67, 127
1, 190645, Note_off_c, 7, 79, 127
1, 190646, Note_on_c, 0, 72, 127
1, 190646, Note_on_c, 4, 76, 127
1, 190769, Note_off_c, 0, 72, 127
1, 190770, Note_on_c, 4, 64, 127
1, 190893, Note_off_c, 4, 64, 127
1, 190894, Note_off_c, 4, 76, 127
1, 190895, Note_on_c, 6, 66, 127
1, 190895, Note_on_c, 2, 74, 127
1, 191018, Note_off_c, 2, 74, 127
1, 191020, Note_on_c, 4, 76, 127
1, 191143, Note_off_c, 4, 76, 127
1, 191143, Note_off_c, 6, 66, 127
1, 191144, Note_on_c, 2, 62, 127
1, 191144, Note_on_c, 2, 74, 127
1, 191267, Note_off_c, 2, 74, 127
1, 191269, Note_on_c, 0, 72, 127
1, 191392, Note_off_c, 0, 72, 127
1, 191392, Note_off_c, 2, 62, 127
1, 191394, Note_on_c, 7, 67, 127
1, 191394, Note_on_c, 12, 71, 127
1, 191517, Note_off_c, 12, 71, 127
1, 191518, Note_on_c, 2, 74, 127
1, 191641, Note_off_c, 2, 74, 127
1, 191642, Note_off_c, 7, 67, 127
1, 191643, Note_on_c, 7, 67, 127
1, 191643, Note_on_c, 0, 72, 127
1, 191766, Note_off_c, 0, 72, 127
1, 191768, Note_on_c, 2, 74, 127
1, 191891, Note_off_c, 2, 74, 127
1, 191892, Note_on_c, 0, 72, 127
1, 192015, Note_off_c, 0, 72, 127
1, 192015, Note_off_c, 7, 67, 127
1, 192017, Note_on_c, 7, 67, 127
1, 192017, Note_on_c, 12, 71, 127
1, 192140, Note_off_c, 12, 71, 127
1, 192140, Note_off_c, 7, 67, 127
1, 192141, Note_on_c, 6, 66, 127
1, 192141, Note_on_c, 10, 69, 127
1, 192264, Note_off_c, 10, 69, 127
1, 192266, Note_on_c, 0, 72, 127
1, 192389, Note_off_c, 0, 72, 127
1, 192389, Note_off_c, 6, 66, 127
1, 192391, Note_on_c, 7, 67, 127
1, 192391, Note_on_c, 12, 71, 127
1, 192514, Note_off_c, 12, 71, 127
1, 192514, Note_off_c, 7, 67, 127
1, 192515, Note_on_c, 10, 69, 127
1, 192515, Note_on_c, 0, 72, 127
1, 192638, Note_off_c, 0, 72, 127
1, 192638, Note_off_c, 10, 69, 127
1, 192640, Note_on_c, 12, 71, 127
1, 192640, Note_on_c, 2, 74, 127
1, 192763, Note_off_c, 2, 74, 127
1, 192763, Note_off_c, 12, 71, 127
1, 192765, Note_on_c, 0, 72, 127
1, 192765, Note_on_c, 4, 76, 127
1, 192888, Note_off_c, 4, 76, 127
1, 192888, Note_off_c, 0, 72, 127
1, 192889, Note_on_c, 2, 62, 127
1, 192889, Note_on_c, 10, 69, 127
1, 192889, Note_on_c, 5, 77, 127
1, 193012, Note_off_c, 5, 77, 127
1, 193014, Note_on_c, 2, 74, 127
1, 193137, Note_off_c, 2, 74, 127
1, 193137, Note_off_c, 10, 69, 127
1, 193137, Note_off_c, 2, 62, 127
1, 193138, Note_on_c, 12, 59, 127
1, 193138, Note_on_c, 2, 74, 127
1, 193138, Note_on_c, 7, 79, 127
1, 193386, Note_off_c, 7, 79, 127
1, 193386, Note_off_c, 2, 74, 127
1, 193388, Note_on_c, 7, 67, 127
1, 193388, Note_on_c, 12, 71, 127
1, 193510, Note_off_c, 12, 59, 127
1, 193512, Note_on_c, 0, 60, 127
1, 193635, Note_off_c, 0, 60, 127
1, 193636, Note_off_c, 12, 71, 127
1, 193636, Note_off_c, 7, 67, 127
1, 193637, Note_on_c, 2, 62, 127
1, 193637, Note_on_c, 6, 66, 127
1, 193637, Note_on_c, 10, 69, 127
1, 193885, Note_off_c, 10, 69, 127
1, 193885, Note_off_c, 6, 66, 127
1, 193885, Note_off_c, 2, 62, 127
1, 193886, Note_on_c, 7, 55, 127
1, 193886, Note_on_c, 7, 67, 127
1, 193886, Note_on_c, 12, 71, 127
1, 194003, Note_off_c, 7, 67, 127
1, 194009, Note_off_c, 7, 55, 127
1, 194011, Note_on_c, 7, 67, 127
1, 194134, Note_off_c, 7, 67, 127
1, 194134, Note_off_c, 12, 71, 127
1, 194135, Note_on_c, 6, 66, 127
1, 194135, Note_on_c, 12, 71, 127
1, 194135, Note_on_c, 7, 79, 127
1, 194258, Note_off_c, 6, 66, 127
1, 194260, Note_on_c, 4, 64, 127
1, 194383, Note_off_c, 4, 64, 127
1, 194383, Note_off_c, 7, 79, 127
1, 194383, Note_off_c, 12, 71, 127
1, 194385, Note_on_c, 2, 62, 127
1, 194385, Note_on_c, 0, 72, 127
1, 194385, Note_on_c, 10, 81, 127
1, 194508, Note_off_c, 2, 62, 127
1, 194509, Note_on_c, 0, 60, 127
1, 194632, Note_off_c, 0, 60, 127
1, 194633, Note_off_c, 10, 81, 127
1, 194633, Note_off_c, 0, 72, 127
1, 194634, Note_on_c, 12, 59, 127
1, 194634, Note_on_c, 2, 74, 127
1, 194634, Note_on_c, 12, 83, 127
1, 194757, Note_off_c, 12, 59, 127
1, 194759, Note_on_c, 4, 64, 127
1, 194882, Note_off_c, 4, 64, 127
1, 194882, Note_off_c, 12, 83, 127
1, 194882, Note_off_c, 2, 74, 127
1, 194883, Note_on_c, 2, 62, 127
1, 194883, Note_on_c, 10, 69, 127
1, 194883, Note_on_c, 6, 78, 127
1, 195006, Note_off_c, 2, 62, 127
1, 195008, Note_on_c, 0, 60, 127
1, 195131, Note_off_c, 0, 60, 127
1, 195131, Note_off_c, 10, 69, 127
1, 195133, Note_on_c, 12, 59, 127
1, 195133, Note_on_c, 2, 74, 127
1, 195256, Note_off_c, 12, 59, 127
1, 195257, Note_on_c, 10, 57, 127
1, 195380, Note_off_c, 10, 57, 127
1, 195380, Note_off_c, 6, 78, 127
1, 195381, Note_off_c, 2, 74, 127
1, 195382, Note_on_c, 7, 55, 127
1, 195382, Note_on_c, 12, 71, 127
1, 195382, Note_on_c, 7, 79, 127
1, 195505, Note_off_c, 12, 71, 127
1, 195506, Note_on_c, 4, 76, 127
1, 195629, Note_off_c, 4, 76, 127
1, 195631, Note_on_c, 2, 74, 127
1, 195754, Note_off_c, 2, 74, 127
1, 195756, Note_on_c, 0, 72, 127
1, 195875, Note_off_c, 7, 79, 127
1, 195879, Note_off_c, 0, 72, 127
1, 195879, Note_off_c, 7, 55, 127
1, 195880, Note_on_c, 10, 57, 127
1, 195880, Note_on_c, 12, 71, 127
1, 196003, Note_off_c, 12, 71, 127
1, 196005, Note_on_c, 10, 69, 127
1, 196128, Note_off_c, 10, 69, 127
1, 196128, Note_off_c, 10, 57, 127
1, 196130, Note_on_c, 12, 59, 127
1, 196130, Note_on_c, 7, 67, 127
1, 196253, Note_off_c, 12, 59, 127
1, 196254, Note_on_c, 7, 55, 127
1, 196377, Note_off_c, 7, 55, 127
1, 196379, Note_on_c, 12, 59, 127
1, 196502, Note_off_c, 12, 59, 127
1, 196502, Note_off_c, 7, 67, 127
1, 196503, Note_on_c, 2, 62, 127
1, 196503, Note_on_c, 10, 69, 127
1, 196626, Note_off_c, 10, 69, 127
1, 196626, Note_off_c, 2, 62, 127
1, 196628, Note_on_c, 7, 67, 127
1, 196628, Note_on_c, 12, 71, 127
1, 196628, Note_on_c, 2, 74, 127
1, 196751, Note_off_c, 7, 67, 127
1, 196753, Note_on_c, 12, 59, 127
1, 196876, Note_off_c, 12, 59, 127
1, 196876, Note_off_c, 2, 74, 127
1, 196876, Note_off_c, 12, 71, 127
1, 196877, Note_on_c, 1, 61, 127
1, 196877, Note_on_c, 10, 69, 127
1, 196877, Note_on_c, 4, 76, 127
1, 197000, Note_off_c, 10, 69, 127
1, 197002, Note_on_c, 12, 71, 127
1, 197125, Note_off_c, 12, 71, 127
1, 197125, Note_off_c, 4, 76, 127
1, 197125, Note_off_c, 1, 61, 127
1, 197127, Note_on_c, 10, 57, 127
1, 197127, Note_on_c, 10, 69, 127
1, 197127, Note_on_c, 1, 73, 127
1, 197250, Note_off_c, 10, 69, 127
1, 197251, Note_on_c, 7, 67, 127
1, 197374, Note_off_c, 7, 67, 127
1, 197375, Note_off_c, 1, 73, 127
1, 197375, Note_off_c, 10, 57, 127
1, 197376, Note_on_c, 2, 62, 127
1, 197376, Note_on_c, 6, 66, 127
1, 197376, Note_on_c, 2, 74, 127
1, 197499, Note_off_c, 6, 66, 127
1, 197501, Note_on_c, 10, 69, 127
1, 197624, Note_off_c, 10, 69, 127
1, 197624, Note_off_c, 2, 74, 127
1, 197624, Note_off_c, 2, 62, 127
1, 197625, Note_on_c, 2, 62, 127
1, 197625, Note_on_c, 7, 67, 127
1, 197625, Note_on_c, 4, 76, 127
1, 197748, Note_off_c, 7, 67, 127
1, 197750, Note_on_c, 10, 69, 127
1, 197873, Note_off_c, 10, 69, 127
1, 197874, Note_on_c, 7, 67, 127
1, 197997, Note_off_c, 7, 67, 127
1, 197997, Note_off_c, 4, 76, 127
1, 197999, Note_on_c, 6, 66, 127
1, 197999, Note_on_c, 6, 78, 127
1, 198122, Note_off_c, 6, 78, 127
1, 198122, Note_off_c, 6, 66, 127
1, 198122, Note_off_c, 2, 62, 127
1, 198124, Note_on_c, 1, 61, 127
1, 198124, Note_on_c, 4, 64, 127
1, 198124, Note_on_c, 7, 79, 127
1, 198247, Note_off_c, 4, 64, 127
1, 198248, Note_on_c, 7, 67, 127
1, 198371, Note_off_c, 7, 67, 127
1, 198372, Note_off_c, 7, 79, 127
1, 198372, Note_off_c, 1, 61, 127
1, 198373, Note_on_c, 2, 62, 127
1, 198373, Note_on_c, 6, 66, 127
1, 198373, Note_on_c, 6, 78, 127
1, 198496, Note_off_c, 2, 62, 127
1, 198498, Note_on_c, 4, 64, 127
1, 198621, Note_off_c, 4, 64, 127
1, 198622, Note_on_c, 2, 62, 127
1, 198745, Note_off_c, 2, 62, 127
1, 198747, Note_on_c, 0, 60, 127
1, 198870, Note_off_c, 0, 60, 127
1, 198870, Note_off_c, 6, 78, 127
1, 198870, Note_off_c, 6, 66, 127
1, 198871, Note_on_c, 12, 59, 127
1, 198871, Note_on_c, 6, 66, 127
1, 198871, Note_on_c, 2, 74, 127
1, 198994, Note_off_c, 12, 59, 127
1, 198996, Note_on_c, 10, 57, 127
1, 199119, Note_off_c, 10, 57, 127
1, 199119, Note_off_c, 2, 74, 127
1, 199119, Note_off_c, 6, 66, 127
1, 199121, Note_on_c, 7, 55, 127
1, 199121, Note_on_c, 7, 67, 127
1, 199121, Note_on_c, 12, 71, 127
1, 199244, Note_off_c, 7, 55, 127
1, 199245, Note_on_c, 0, 60, 127
1, 199368, Note_off_c, 0, 60, 127
1, 199370, Note_on_c, 12, 59, 127
1, 199493, Note_off_c, 12, 59, 127
1, 199493, Note_off_c, 12, 71, 127
1, 199493, Note_off_c, 7, 67, 127
1, 199495, Note_on_c, 10, 57, 127
1, 199495, Note_on_c, 10, 69, 127
1, 199495, Note_on_c, 0, 72, 127
1, 199618, Note_off_c, 0, 72, 127
1, 199618, Note_off_c, 10, 69, 127
1, 199618, Note_off_c, 10, 57, 127
1, 199619, Note_on_c, 7, 55, 127
1, 199619, Note_on_c, 12, 71, 127
1, 199619, Note_on_c, 2, 74, 127
1, 199742, Note_off_c, 7, 55, 127
1, 199744, Note_on_c, 6, 54, 127
1, 199867, Note_off_c, 6, 54, 127
1, 199867, Note_off_c, 2, 74, 127
1, 199867, Note_off_c, 12, 71, 127
1, 199868, Note_on_c, 4, 52, 127
1, 199868, Note_on_c, 4, 64, 127
1, 199868, Note_on_c, 7, 67, 127
1, 199991, Note_off_c, 7, 67, 127
1, 199991, Note_off_c, 4, 64, 127
1, 199993, Note_on_c, 7, 67, 127
1, 200116, Note_off_c, 7, 67, 127
1, 200118, Note_on_c, 6, 66, 127
1, 200241, Note_off_c, 6, 66, 127
1, 200242, Note_on_c, 4, 64, 127
1, 200365, Note_off_c, 4, 64, 127
1, 200365, Note_off_c, 4, 52, 127
1, 200367, Note_on_c, 6, 54, 127
1, 200367, Note_on_c, 2, 62, 127
1, 200490, Note_off_c, 2, 62, 127
1, 200492, Note_on_c, 0, 60, 127
1, 200615, Note_off_c, 0, 60, 127
1, 200615, Note_off_c, 6, 54, 127
1, 200616, Note_on_c, 7, 55, 127
1, 200616, Note_on_c, 12, 59, 127
1, 200741, Note_on_c, 7, 79, 127
1, 200864, Note_off_c, 7, 79, 127
1, 200866, Note_on_c, 6, 78, 127
1, 200989, Note_off_c, 6, 78, 127
1, 200990, Note_on_c, 4, 76, 127
1, 201113, Note_off_c, 4, 76, 127
1, 201113, Note_off_c, 12, 59, 127
1, 201115, Note_on_c, 0, 60, 127
1, 201115, Note_on_c, 2, 74, 127
1, 201238, Note_off_c, 2, 74, 127
1, 201239, Note_on_c, 0, 72, 127
1, 201362, Note_off_c, 0, 72, 127
1, 201363, Note_off_c, 0, 60, 127
1, 201364, Note_on_c, 2, 62, 127
1, 201364, Note_on_c, 12, 71, 127
1, 201487, Note_off_c, 7, 55, 127
1, 201489, Note_on_c, 10, 57, 127
1, 201612, Note_off_c, 10, 57, 127
1, 201613, Note_on_c, 7, 55, 127
1, 201736, Note_off_c, 7, 55, 127
1, 201738, Note_on_c, 6, 54, 127
1, 201861, Note_off_c, 6, 54, 127
1, 201861, Note_off_c, 12, 71, 127
1, 201861, Note_off_c, 2, 62, 127
1, 201863, Note_on_c, 4, 52, 127
1, 201863, Note_on_c, 7, 67, 127
1, 201863, Note_on_c, 12, 71, 127
1, 201986, Note_off_c, 4, 52, 127
1, 201987, Note_on_c, 2, 50, 127
1, 202110, Note_off_c, 2, 50, 127
1, 202111, Note_off_c, 7, 67, 127
1, 202112, Note_on_c, 1, 49, 127
1, 202112, Note_on_c, 4, 64, 127
1, 202235, Note_off_c, 12, 71, 127
1, 202236, Note_on_c, 12, 71, 127
1, 202359, Note_off_c, 12, 71, 127
1, 202361, Note_on_c, 10, 69, 127
1, 202484, Note_off_c, 10, 69, 127
1, 202486, Note_on_c, 7, 67, 127
1, 202609, Note_off_c, 7, 67, 127
1, 202609, Note_off_c, 4, 64, 127
1, 202609, Note_off_c, 1, 49, 127
1, 202610, Note_on_c, 1, 49, 127
1, 202610, Note_on_c, 10, 57, 127
1, 202610, Note_on_c, 6, 66, 127
1, 202733, Note_off_c, 6, 66, 127
1, 202735, Note_on_c, 4, 64, 127
1, 202858, Note_off_c, 4, 64, 127
1, 202858, Note_off_c, 1, 49, 127
1, 202860, Note_on_c, 2, 50, 127
1, 202860, Note_on_c, 6, 66, 127
1, 202982, Note_off_c, 10, 57, 127
1, 202984, Note_on_c, 4, 64, 127
1, 203107, Note_off_c, 4, 64, 127
1, 203109, Note_on_c, 2, 62, 127
1, 203232, Note_off_c, 2, 62, 127
1, 203233, Note_on_c, 0, 60, 127
1, 203356, Note_off_c, 0, 60, 127
1, 203357, Note_off_c, 6, 66, 127
1, 203357, Note_off_c, 2, 50, 127
1, 203358, Note_on_c, 2, 50, 127
1, 203358, Note_on_c, 12, 59, 127
1, 203358, Note_on_c, 6, 78, 127
1, 203481, Note_off_c, 12, 59, 127
1, 203483, Note_on_c, 10, 57, 127
1, 203606, Note_off_c, 10, 57, 127
1, 203606, Note_off_c, 6, 78, 127
1, 203606, Note_off_c, 2, 50, 127
1, 203607, Note_on_c, 4, 52, 127
1, 203607, Note_on_c, 7, 55, 127
1, 203607, Note_on_c, 12, 71, 127
1, 203730, Note_off_c, 12, 71, 127
1, 203732, Note_on_c, 10, 81, 127
1, 203855, Note_off_c, 10, 81, 127
1, 203855, Note_off_c, 7, 55, 127
1, 203855, Note_off_c, 4, 52, 127
1, 203857, Note_on_c, 6, 54, 127
1, 203857, Note_on_c, 10, 57, 127
1, 203857, Note_on_c, 7, 79, 127
1, 203980, Note_off_c, 7, 79, 127
1, 203981, Note_on_c, 6, 78, 127
1, 204104, Note_off_c, 6, 78, 127
1, 204105, Note_off_c, 10, 57, 127
1, 204105, Note_off_c, 6, 54, 127
1, 204106, Note_on_c, 7, 55, 127
1, 204106, Note_on_c, 12, 59, 127
1, 204106, Note_on_c, 4, 76, 127
1, 204229, Note_off_c, 4, 76, 127
1, 204231, Note_on_c, 2, 74, 127
1, 204354, Note_off_c, 2, 74, 127
1, 204354, Note_off_c, 12, 59, 127
1, 204354, Note_off_c, 7, 55, 127
1, 204355, Note_on_c, 10, 57, 127
1, 204355, Note_on_c, 1, 73, 127
1, 204478, Note_off_c, 1, 73, 127
1, 204480, Note_on_c, 10, 69, 127
1, 204603, Note_off_c, 10, 69, 127
1, 204604, Note_on_c, 1, 73, 127
1, 204727, Note_off_c, 1, 73, 127
1, 204727, Note_off_c, 10, 57, 127
1, 204729, Note_on_c, 12, 59, 127
1, 204729, Note_on_c, 4, 76, 127
1, 204852, Note_off_c, 4, 76, 127
1, 204852, Note_off_c, 12, 59, 127
1, 204854, Note_on_c, 1, 61, 127
1, 204854, Note_on_c, 10, 81, 127
1, 204977, Note_off_c, 10, 81, 127
1, 204978, Note_on_c, 7, 79, 127
1, 205101, Note_off_c, 7, 79, 127
1, 205102, Note_off_c, 1, 61, 127
1, 205103, Note_on_c, 2, 62, 127
1, 205103, Note_on_c, 6, 78, 127
1, 205476, Note_off_c, 6, 78, 127
1, 205478, Note_on_c, 7, 79, 127
1, 205601, Note_off_c, 7, 79, 127
1, 205602, Note_on_c, 10, 69, 127
1, 205602, Note_on_c, 10, 81, 127
1, 205850, Note_off_c, 10, 81, 127
1, 205850, Note_off_c, 10, 69, 127
1, 205850, Note_off_c, 2, 62, 127
1, 205852, Note_on_c, 6, 66, 127
1, 205852, Note_on_c, 2, 74, 127
1, 206225, Note_off_c, 6, 66, 127
1, 206227, Note_on_c, 7, 67, 127
1, 206350, Note_off_c, 7, 67, 127
1, 206350, Note_off_c, 2, 74, 127
1, 206351, Note_on_c, 10, 57, 127
1, 206351, Note_on_c, 10, 69, 127
1, 206351, Note_on_c, 1, 73, 127
1, 206599, Note_off_c, 1, 73, 127
1, 206599, Note_off_c, 10, 69, 127
1, 206599, Note_off_c, 10, 57, 127
1, 206601, Note_on_c, 6, 54, 127
1, 206601, Note_on_c, 2, 62, 127
1, 206601, Note_on_c, 2, 74, 127
1, 206724, Note_off_c, 2, 74, 127
1, 206725, Note_on_c, 12, 71, 127
1, 206848, Note_off_c, 12, 71, 127
1, 206850, Note_on_c, 10, 69, 127
1, 206973, Note_off_c, 10, 69, 127
1, 206973, Note_off_c, 6, 54, 127
1, 206974, Note_on_c, 7, 55, 127
1, 206974, Note_on_c, 7, 67, 127
1, 207097, Note_off_c, 7, 67, 127
1, 207097, Note_off_c, 7, 55, 127
1, 207098, Note_off_c, 2, 62, 127
1, 207099, Note_on_c, 10, 57, 127
1, 207099, Note_on_c, 1, 61, 127
1, 207099, Note_on_c, 6, 66, 127
1, 207222, Note_off_c, 6, 66, 127
1, 207224, Note_on_c, 4, 64, 127
1, 207347, Note_off_c, 4, 64, 127
1, 207347, Note_off_c, 1, 61, 127
1, 207347, Note_off_c, 10, 57, 127
1, 207348, Note_on_c, 2, 50, 127
1, 207348, Note_on_c, 2, 62, 127
1, 207348, Note_on_c, 6, 66, 127
1, 207471, Note_off_c, 2, 62, 127
1, 207473, Note_on_c, 12, 59, 127
1, 207595, Note_off_c, 6, 66, 127
1, 207596, Note_off_c, 12, 59, 127
1, 207598, Note_on_c, 10, 57, 127
1, 207721, Note_off_c, 10, 57, 127
1, 207722, Note_on_c, 7, 55, 127
1, 207845, Note_off_c, 7, 55, 127
1, 207845, Note_off_c, 2, 50, 127
1, 207847, Note_on_c, 10, 45, 127
1, 207847, Note_on_c, 6, 54, 127
1, 207970, Note_off_c, 6, 54, 127
1, 207971, Note_on_c, 4, 52, 127
1, 208094, Note_off_c, 4, 52, 127
1, 208095, Note_off_c, 10, 45, 127
1, 208096, Note_on_c, 12, 47, 127
1, 208096, Note_on_c, 2, 50, 127
1, 208219, Note_off_c, 12, 47, 127
1, 208221, Note_on_c, 7, 43, 127
1, 208344, Note_off_c, 7, 43, 127
1, 208344, Note_off_c, 2, 50, 127
1, 208345, Note_on_c, 12, 47, 127
1, 208345, Note_on_c, 7, 55, 127
1, 208468, Note_off_c, 7, 55, 127
1, 208468, Note_off_c, 12, 47, 127
1, 208470, Note_on_c, 2, 50, 127
1, 208470, Note_on_c, 10, 57, 127
1, 208593, Note_off_c, 10, 57, 127
1, 208593, Note_off_c, 2, 50, 127
1, 208595, Note_on_c, 7, 55, 127
1, 208595, Note_on_c, 12, 59, 127
1, 208718, Note_off_c, 7, 55, 127
1, 208719, Note_on_c, 2, 50, 127
1, 208842, Note_off_c, 2, 50, 127
1, 208843, Note_off_c, 12, 59, 127
1, 208844, Note_on_c, 4, 52, 127
1, 208844, Note_on_c, 0, 60, 127
1, 208967, Note_off_c, 0, 60, 127
1, 208969, Note_on_c, 4, 64, 127
1, 209092, Note_off_c, 4, 64, 127
1, 209092, Note_off_c, 4, 52, 127
1, 209093, Note_on_c, 0, 48, 127
1, 209093, Note_on_c, 2, 62, 127
1, 209216, Note_off_c, 2, 62, 127
1, 209218, Note_on_c, 0, 60, 127
1, 209341, Note_off_c, 0, 60, 127
1, 209341, Note_off_c, 0, 48, 127
1, 209342, Note_on_c, 7, 55, 127
1, 209342, Note_on_c, 12, 59, 127
1, 209465, Note_off_c, 12, 59, 127
1, 209467, Note_on_c, 2, 62, 127
1, 209590, Note_off_c, 2, 62, 127
1, 209592, Note_on_c, 10, 57, 127
1, 209714, Note_off_c, 7, 55, 127
1, 209716, Note_on_c, 7, 55, 127
1, 209839, Note_off_c, 7, 55, 127
1, 209841, Note_on_c, 6, 54, 127
1, 209964, Note_off_c, 6, 54, 127
1, 209966, Note_on_c, 4, 52, 127
1, 210085, Note_off_c, 10, 57, 127
1, 210089, Note_off_c, 4, 52, 127
1, 210090, Note_on_c, 6, 54, 127
1, 210090, Note_on_c, 2, 74, 127
1, 210213, Note_off_c, 6, 54, 127
1, 210215, Note_on_c, 2, 50, 127
1, 210338, Note_off_c, 2, 50, 127
1, 210338, Note_off_c, 2, 74, 127
1, 210339, Note_on_c, 7, 55, 127
1, 210339, Note_on_c, 12, 71, 127
1, 210462, Note_off_c, 7, 55, 127
1, 210464, Note_on_c, 4, 64, 127
1, 210587, Note_off_c, 4, 64, 127
1, 210589, Note_on_c, 2, 62, 127
1, 210711, Note_off_c, 12, 71, 127
1, 210712, Note_off_c, 2, 62, 127
1, 210713, Note_on_c, 0, 60, 127
1, 210713, Note_on_c, 0, 72, 127
1, 210836, Note_off_c, 0, 72, 127
1, 210836, Note_off_c, 0, 60, 127
1, 210838, Note_on_c, 12, 59, 127
1, 210838, Note_on_c, 2, 74, 127
1, 210961, Note_off_c, 12, 59, 127
1, 210963, Note_on_c, 10, 57, 127
1, 211086, Note_off_c, 10, 57, 127
1, 211086, Note_off_c, 2, 74, 127
1, 211087, Note_on_c, 12, 59, 127
1, 211087, Note_on_c, 7, 67, 127
1, 211210, Note_off_c, 7, 67, 127
1, 211210, Note_off_c, 12, 59, 127
1, 211212, Note_on_c, 4, 64, 127
1, 211212, Note_on_c, 7, 79, 127
1, 211335, Note_off_c, 7, 79, 127
1, 211335, Note_off_c, 4, 64, 127
1, 211336, Note_on_c, 2, 62, 127
1, 211336, Note_on_c, 6, 78, 127
1, 211459, Note_off_c, 6, 78, 127
1, 211459, Note_off_c, 2, 62, 127
1, 211461, Note_on_c, 0, 60, 127
1, 211461, Note_on_c, 4, 76, 127
1, 211584, Note_off_c, 4, 76, 127
1, 211584, Note_off_c, 0, 60, 127
1, 211586, Note_on_c, 12, 59, 127
1, 211586, Note_on_c, 2, 74, 127
1, 211709, Note_off_c, 2, 74, 127
1, 211709, Note_off_c, 12, 59, 127
1, 211710, Note_on_c, 10, 57, 127
1, 211710, Note_on_c, 0, 72, 127
1, 211833, Note_off_c, 0, 72, 127
1, 211833, Note_off_c, 10, 57, 127
1, 211835, Note_on_c, 7, 55, 127
1, 211835, Note_on_c, 12, 71, 127
1, 211958, Note_off_c, 12, 71, 127
1, 211960, Note_on_c, 4, 76, 127
1, 212083, Note_off_c, 4, 76, 127
1, 212084, Note_on_c, 2, 74, 127
1, 212207, Note_off_c, 2, 74, 127
1, 212209, Note_on_c, 0, 72, 127
1, 212332, Note_off_c, 0, 72, 127
1, 212332, Note_off_c, 7, 55, 127
1, 212334, Note_on_c, 2, 50, 127
1, 212334, Note_on_c, 12, 71, 127
1, 212457, Note_off_c, 12, 71, 127
1, 212458, Note_on_c, 10, 69, 127
1, 212581, Note_off_c, 10, 69, 127
1, 212582, Note_off_c, 2, 50, 127
1, 212583, Note_on_c, 12, 47, 127
1, 212583, Note_on_c, 7, 67, 127
1, 212706, Note_off_c, 12, 47, 127
1, 212707, Note_on_c, 4, 52, 127
1, 212830, Note_off_c, 4, 52, 127
1, 212832, Note_on_c, 2, 50, 127
1, 212955, Note_off_c, 2, 50, 127
1, 212957, Note_on_c, 0, 48, 127
1, 213080, Note_off_c, 0, 48, 127
1, 213080, Note_off_c, 7, 67, 127
1, 213081, Note_on_c, 12, 47, 127
1, 213081, Note_on_c, 10, 69, 127
1, 213204, Note_off_c, 12, 47, 127
1, 213206, Note_on_c, 10, 45, 127
1, 213329, Note_off_c, 10, 45, 127
1, 213329, Note_off_c, 10, 69, 127
1, 213331, Note_on_c, 7, 43, 127
1, 213331, Note_on_c, 12, 71, 127
1, 213454, Note_off_c, 12, 71, 127
1, 213455, Note_on_c, 7, 67, 127
1, 213578, Note_off_c, 7, 67, 127
1, 213579, Note_off_c, 7, 43, 127
1, 213580, Note_on_c, 7, 55, 127
1, 213580, Note_on_c, 12, 71, 127
1, 213703, Note_off_c, 12, 71, 127
1, 213704, Note_on_c, 2, 74, 127
1, 213827, Note_off_c, 2, 74, 127
1, 213828, Note_off_c, 7, 55, 127
1, 213829, Note_on_c, 4, 52, 127
1, 213829, Note_on_c, 7, 79, 127
1, 213952, Note_off_c, 7, 79, 127
1, 213954, Note_on_c, 12, 71, 127
1, 214077, Note_off_c, 12, 71, 127
1, 214077, Note_off_c, 4, 52, 127
1, 214078, Note_on_c, 10, 45, 127
1, 214078, Note_on_c, 1, 73, 127
1, 214201, Note_off_c, 10, 45, 127
1, 214203, Note_on_c, 12, 59, 127
1, 214326, Note_off_c, 12, 59, 127
1, 214326, Note_off_c, 1, 73, 127
1, 214328, Note_on_c, 10, 57, 127
1, 214328, Note_on_c, 10, 69, 127
1, 214451, Note_off_c, 10, 57, 127
1, 214452, Note_on_c, 7, 55, 127
1, 214575, Note_off_c, 7, 55, 127
1, 214576, Note_off_c, 10, 69, 127
1, 214577, Note_on_c, 6, 54, 127
1, 214577, Note_on_c, 10, 69, 127
1, 214577, Note_on_c, 2, 74, 127
1, 214700, Note_off_c, 6, 54, 127
1, 214702, Note_on_c, 4, 52, 127
1, 214825, Note_off_c, 4, 52, 127
1, 214825, Note_off_c, 2, 74, 127
1, 214825, Note_off_c, 10, 69, 127
1, 214826, Note_on_c, 2, 50, 127
1, 214826, Note_on_c, 6, 66, 127
1, 214826, Note_on_c, 2, 74, 127
1, 214949, Note_off_c, 2, 50, 127
1, 214951, Note_on_c, 7, 55, 127
1, 215074, Note_off_c, 7, 55, 127
1, 215075, Note_on_c, 10, 57, 127
1, 215198, Note_off_c, 6, 66, 127
1, 215200, Note_on_c, 7, 67, 127
1, 215323, Note_off_c, 7, 67, 127
1, 215323, Note_off_c, 10, 57, 127
1, 215323, Note_off_c, 2, 74, 127
1, 215325, Note_on_c, 10, 45, 127
1, 215325, Note_on_c, 10, 69, 127
1, 215325, Note_on_c, 1, 73, 127
1, 215573, Note_off_c, 1, 73, 127
1, 215573, Note_off_c, 10, 69, 127
1, 215573, Note_off_c, 10, 45, 127
1, 215574, Note_on_c, 12, 47, 127
1, 215574, Note_on_c, 2, 62, 127
1, 215574, Note_on_c, 2, 74, 127
1, 215691, Note_off_c, 2, 74, 127
1, 215697, Note_off_c, 2, 62, 127
1, 215699, Note_on_c, 2, 74, 127
1, 215822, Note_off_c, 12, 47, 127
1, 215823, Note_on_c, 12, 59, 127
1, 215823, Note_on_c, 1, 73, 127
1, 215946, Note_off_c, 1, 73, 127
1, 215948, Note_on_c, 12, 71, 127
1, 216062, Note_off_c, 2, 74, 127
1, 216071, Note_off_c, 12, 71, 127
1, 216071, Note_off_c, 12, 59, 127
1, 216072, Note_on_c, 1, 61, 127
1, 216072, Note_on_c, 10, 69, 127
1, 216072, Note_on_c, 4, 76, 127
1, 216195, Note_off_c, 10, 69, 127
1, 216197, Note_on_c, 7, 67, 127
1, 216320, Note_off_c, 7, 67, 127
1, 216320, Note_off_c, 4, 76, 127
1, 216320, Note_off_c, 1, 61, 127
1, 216322, Note_on_c, 2, 62, 127
1, 216322, Note_on_c, 6, 66, 127
1, 216322, Note_on_c, 2, 74, 127
1, 216445, Note_off_c, 2, 74, 127
1, 216445, Note_off_c, 6, 66, 127
1, 216446, Note_on_c, 12, 71, 127
1, 216446, Note_on_c, 7, 79, 127
1, 216569, Note_off_c, 7, 79, 127
1, 216569, Note_off_c, 12, 71, 127
1, 216571, Note_on_c, 10, 69, 127
1, 216571, Note_on_c, 6, 78, 127
1, 216694, Note_off_c, 6, 78, 127
1, 216694, Note_off_c, 10, 69, 127
1, 216696, Note_on_c, 7, 67, 127
1, 216696, Note_on_c, 4, 76, 127
1, 216819, Note_off_c, 4, 76, 127
1, 216819, Note_off_c, 7, 67, 127
1, 216819, Note_off_c, 2, 62, 127
1, 216820, Note_on_c, 2, 62, 127
1, 216820, Note_on_c, 6, 66, 127
1, 216820, Note_on_c, 2, 74, 127
1, 216943, Note_off_c, 2, 74, 127
1, 216943, Note_off_c, 6, 66, 127
1, 216945, Note_on_c, 4, 64, 127
1, 216945, Note_on_c, 0, 72, 127
1, 217068, Note_off_c, 0, 72, 127
1, 217068, Note_off_c, 4, 64, 127
1, 217068, Note_off_c, 2, 62, 127
1, 217069, Note_on_c, 7, 55, 127
1, 217069, Note_on_c, 2, 62, 127
1, 217069, Note_on_c, 12, 71, 127
1, 217192, Note_off_c, 12, 71, 127
1, 217194, Note_on_c, 4, 76, 127
1, 217317, Note_off_c, 4, 76, 127
1, 217319, Note_on_c, 2, 74, 127
1, 217441, Note_off_c, 7, 55, 127
1, 217442, Note_off_c, 2, 74, 127
1, 217443, Note_on_c, 10, 57, 127
1, 217443, Note_on_c, 0, 72, 127
1, 217566, Note_off_c, 0, 72, 127
1, 217566, Note_off_c, 10, 57, 127
1, 217566, Note_off_c, 2, 62, 127
1, 217568, Note_on_c, 12, 59, 127
1, 217568, Note_on_c, 2, 62, 127
1, 217568, Note_on_c, 12, 71, 127
1, 217691, Note_off_c, 12, 71, 127
1, 217693, Note_on_c, 10, 69, 127
1, 217816, Note_off_c, 10, 69, 127
1, 217816, Note_off_c, 2, 62, 127
1, 217816, Note_off_c, 12, 59, 127
1, 217817, Note_on_c, 0, 60, 127
1, 217817, Note_on_c, 4, 64, 127
1, 217817, Note_on_c, 7, 67, 127
1, 217934, Note_off_c, 0, 60, 127
1, 217940, Note_off_c, 4, 64, 127
1, 217942, Note_on_c, 0, 60, 127
1, 218064, Note_off_c, 7, 67, 127
1, 218068, Note_on_c, 4, 64, 127
1, 218191, Note_off_c, 4, 64, 127
1, 218192, Note_on_c, 7, 67, 127
1, 218306, Note_off_c, 0, 60, 127
1, 218315, Note_off_c, 7, 67, 127
1, 218317, Note_on_c, 10, 57, 127
1, 218317, Note_on_c, 0, 72, 127
1, 218440, Note_off_c, 0, 72, 127
1, 218441, Note_on_c, 4, 64, 127
1, 218564, Note_off_c, 4, 64, 127
1, 218565, Note_off_c, 10, 57, 127
1, 218566, Note_on_c, 2, 50, 127
1, 218566, Note_on_c, 6, 66, 127
1, 218689, Note_off_c, 2, 50, 127
1, 218691, Note_on_c, 4, 64, 127
1, 218814, Note_off_c, 4, 64, 127
1, 218814, Note_off_c, 6, 66, 127
1, 218815, Note_on_c, 2, 62, 127
1, 218940, Note_on_c, 0, 60, 127
1, 219063, Note_off_c, 0, 60, 127
1, 219063, Note_off_c, 2, 62, 127
1, 219065, Note_on_c, 12, 59, 127
1, 219065, Note_on_c, 7, 67, 127
1, 219065, Note_on_c, 2, 74, 127
1, 219188, Note_off_c, 12, 59, 127
1, 219189, Note_on_c, 0, 60, 127
1, 219312, Note_off_c, 0, 60, 127
1, 219313, Note_off_c, 2, 74, 127
1, 219313, Note_off_c, 7, 67, 127
1, 219314, Note_on_c, 10, 57, 127
1, 219314, Note_on_c, 7, 67, 127
1, 219314, Note_on_c, 0, 72, 127
1, 219437, Note_off_c, 0, 72, 127
1, 219438, Note_on_c, 10, 69, 127
1, 219561, Note_off_c, 10, 69, 127
1, 219563, Note_on_c, 0, 72, 127
1, 219686, Note_off_c, 0, 72, 127
1, 219688, Note_on_c, 4, 76, 127
1, 219811, Note_off_c, 4, 76, 127
1, 219811, Note_off_c, 7, 67, 127
1, 219811, Note_off_c, 10, 57, 127
1, 219812, Note_on_c, 10, 57, 127
1, 219812, Note_on_c, 6, 66, 127
1, 219812, Note_on_c, 10, 81, 127
1, 219935, Note_off_c, 10, 81, 127
1, 219937, Note_on_c, 0, 72, 127
1, 220060, Note_off_c, 0, 72, 127
1, 220060, Note_off_c, 6, 66, 127
1, 220060, Note_off_c, 10, 57, 127
1, 220062, Note_on_c, 7, 55, 127
1, 220062, Note_on_c, 7, 67, 127
1, 220062, Note_on_c, 12, 71, 127
1, 220179, Note_off_c, 7, 67, 127
1, 220185, Note_off_c, 12, 71, 127
1, 220186, Note_on_c, 7, 67, 127
1, 220311, Note_on_c, 12, 71, 127
1, 220433, Note_off_c, 7, 67, 127
1, 220434, Note_off_c, 12, 71, 127
1, 220436, Note_on_c, 6, 66, 127
1, 220436, Note_on_c, 2, 74, 127
1, 220555, Note_off_c, 7, 55, 127
1, 220559, Note_off_c, 2, 74, 127
1, 220559, Note_off_c, 6, 66, 127
1, 220560, Note_on_c, 4, 64, 127
1, 220560, Note_on_c, 7, 79, 127
1, 220683, Note_off_c, 7, 79, 127
1, 220685, Note_on_c, 12, 71, 127
1, 220808, Note_off_c, 12, 71, 127
1, 220808, Note_off_c, 4, 64, 127
1, 220809, Note_on_c, 6, 66, 127
1, 220809, Note_on_c, 10, 69, 127
1, 220932, Note_off_c, 10, 69, 127
1, 220934, Note_on_c, 4, 76, 127
1, 221057, Note_off_c, 4, 76, 127
1, 221059, Note_on_c, 2, 74, 127
1, 221181, Note_off_c, 6, 66, 127
1, 221182, Note_off_c, 2, 74, 127
1, 221183, Note_on_c, 4, 64, 127
1, 221183, Note_on_c, 1, 73, 127
1, 221306, Note_off_c, 1, 73, 127
1, 221306, Note_off_c, 4, 64, 127
1, 221308, Note_on_c, 2, 62, 127
1, 221308, Note_on_c, 12, 71, 127
1, 221431, Note_off_c, 12, 71, 127
1, 221433, Note_on_c, 10, 69, 127
1, 221556, Note_off_c, 10, 69, 127
1, 221556, Note_off_c, 2, 62, 127
1, 221557, Note_on_c, 4, 64, 127
1, 221557, Note_on_c, 7, 67, 127
1, 221680, Note_off_c, 7, 67, 127
1, 221682, Note_on_c, 12, 71, 127
1, 221805, Note_off_c, 12, 71, 127
1, 221805, Note_off_c, 4, 64, 127
1, 221806, Note_on_c, 1, 61, 127
1, 221806, Note_on_c, 10, 69, 127
1, 221929, Note_off_c, 10, 69, 127
1, 221931, Note_on_c, 7, 67, 127
1, 222054, Note_off_c, 7, 67, 127
1, 222054, Note_off_c, 1, 61, 127
1, 222056, Note_on_c, 10, 57, 127
1, 222056, Note_on_c, 6, 66, 127
1, 222179, Note_off_c, 6, 66, 127
1, 222180, Note_on_c, 4, 64, 127
1, 222303, Note_off_c, 4, 64, 127
1, 222304, Note_off_c, 10, 57, 127
1, 222305, Note_on_c, 2, 62, 127
1, 222305, Note_on_c, 6, 66, 127
1, 222422, Note_off_c, 2, 62, 127
1, 222428, Note_off_c, 6, 66, 127
1, 222430, Note_on_c, 2, 62, 127
1, 222554, Note_on_c, 6, 66, 127
1, 222677, Note_off_c, 6, 66, 127
1, 222679, Note_on_c, 10, 69, 127
1, 222793, Note_off_c, 2, 62, 127
1, 222802, Note_off_c, 10, 69, 127
1, 222803, Note_on_c, 2, 50, 127
1, 222803, Note_on_c, 2, 62, 127
1, 222803, Note_on_c, 2, 74, 127
1, 222926, Note_off_c, 2, 74, 127
1, 222928, Note_on_c, 6, 66, 127
1, 223051, Note_off_c, 6, 66, 127
1, 223051, Note_off_c, 2, 62, 127
1, 223051, Note_off_c, 2, 50, 127
1, 223053, Note_on_c, 12, 47, 127
1, 223053, Note_on_c, 2, 62, 127
1, 223053, Note_on_c, 7, 67, 127
1, 223176, Note_off_c, 7, 67, 127
1, 223177, Note_on_c, 10, 69, 127
1, 223300, Note_off_c, 10, 69, 127
1, 223301, Note_off_c, 2, 62, 127
1, 223302, Note_on_c, 7, 67, 127
1, 223302, Note_on_c, 12, 71, 127
1, 223425, Note_off_c, 12, 47, 127
1, 223427, Note_on_c, 0, 48, 127
1, 223550, Note_off_c, 0, 48, 127
1, 223551, Note_on_c, 2, 50, 127
1, 223674, Note_off_c, 12, 71, 127
1, 223674, Note_off_c, 7, 67, 127
1, 223676, Note_on_c, 6, 66, 127
1, 223676, Note_on_c, 10, 69, 127
1, 223799, Note_off_c, 10, 69, 127
1, 223799, Note_off_c, 6, 66, 127
1, 223799, Note_off_c, 2, 50, 127
1, 223801, Note_on_c, 7, 43, 127
1, 223801, Note_on_c, 7, 67, 127
1, 223801, Note_on_c, 12, 71, 127
1, 223924, Note_off_c, 7, 43, 127
1, 223925, Note_on_c, 7, 55, 127
1, 224048, Note_off_c, 7, 55, 127
1, 224048, Note_off_c, 12, 71, 127
1, 224049, Note_off_c, 7, 67, 127
1, 224050, Note_on_c, 6, 54, 127
1, 224050, Note_on_c, 12, 59, 127
1, 224173, Note_off_c, 6, 54, 127
1, 224174, Note_on_c, 4, 52, 127
1, 224297, Note_off_c, 4, 52, 127
1, 224298, Note_off_c, 12, 59, 127
1, 224299, Note_on_c, 2, 50, 127
1, 224299, Note_on_c, 0, 60, 127
1, 224422, Note_off_c, 2, 50, 127
1, 224424, Note_on_c, 0, 48, 127
1, 224547, Note_off_c, 0, 48, 127
1, 224547, Note_off_c, 0, 60, 127
1, 224548, Note_on_c, 12, 47, 127
1, 224548, Note_on_c, 2, 62, 127
1, 224671, Note_off_c, 2, 62, 127
1, 224671, Note_off_c, 12, 47, 127
1, 224673, Note_on_c, 4, 52, 127
1, 224673, Note_on_c, 7, 67, 127
1, 224796, Note_off_c, 7, 67, 127
1, 224796, Note_off_c, 4, 52, 127
1, 224798, Note_on_c, 2, 50, 127
1, 224798, Note_on_c, 6, 66, 127
1, 224921, Note_off_c, 6, 66, 127
1, 224921, Note_off_c, 2, 50, 127
1, 224922, Note_on_c, 0, 48, 127
1, 224922, Note_on_c, 4, 64, 127
1, 225045, Note_off_c, 4, 64, 127
1, 225045, Note_off_c, 0, 48, 127
1, 225047, Note_on_c, 12, 47, 127
1, 225047, Note_on_c, 2, 62, 127
1, 225170, Note_off_c, 2, 62, 127
1, 225170, Note_off_c, 12, 47, 127
1, 225171, Note_on_c, 10, 45, 127
1, 225171, Note_on_c, 0, 60, 127
1, 225294, Note_off_c, 0, 60, 127
1, 225294, Note_off_c, 10, 45, 127
1, 225296, Note_on_c, 7, 43, 127
1, 225296, Note_on_c, 12, 59, 127
1, 225419, Note_off_c, 12, 59, 127
1, 225421, Note_on_c, 4, 64, 127
1, 225544, Note_off_c, 4, 64, 127
1, 225545, Note_on_c, 2, 62, 127
1, 225668, Note_off_c, 2, 62, 127
1, 225670, Note_on_c, 0, 60, 127
1, 225793, Note_off_c, 0, 60, 127
1, 225793, Note_off_c, 7, 43, 127
1, 225795, Note_on_c, 10, 45, 127
1, 225795, Note_on_c, 12, 59, 127
1, 225918, Note_off_c, 12, 59, 127
1, 225919, Note_on_c, 10, 57, 127
1, 226042, Note_off_c, 10, 57, 127
1, 226043, Note_off_c, 10, 45, 127
1, 226044, Note_on_c, 12, 47, 127
1, 226044, Note_on_c, 7, 55, 127
1, 226167, Note_off_c, 12, 47, 127
1, 226168, Note_on_c, 7, 43, 127
1, 226291, Note_off_c, 7, 43, 127
1, 226293, Note_on_c, 12, 47, 127
1, 226416, Note_off_c, 12, 47, 127
1, 226416, Note_off_c, 7, 55, 127
1, 226418, Note_on_c, 2, 50, 127
1, 226418, Note_on_c, 10, 57, 127
1, 226541, Note_off_c, 10, 57, 127
1, 226541, Note_off_c, 2, 50, 127
1, 226542, Note_on_c, 7, 55, 127
1, 226542, Note_on_c, 12, 59, 127
1, 226542, Note_on_c, 2, 62, 127
1, 226665, Note_off_c, 7, 55, 127
1, 226667, Note_on_c, 12, 47, 127
1, 226790, Note_off_c, 12, 47, 127
1, 226790, Note_off_c, 2, 62, 127
1, 226790, Note_off_c, 12, 59, 127
1, 226792, Note_on_c, 1, 49, 127
1, 226792, Note_on_c, 7, 55, 127
1, 226792, Note_on_c, 4, 64, 127
1, 226915, Note_off_c, 4, 64, 127
1, 226916, Note_on_c, 10, 69, 127
1, 227039, Note_off_c, 10, 69, 127
1, 227040, Note_off_c, 1, 49, 127
1, 227041, Note_on_c, 10, 45, 127
1, 227041, Note_on_c, 7, 67, 127
1, 227164, Note_off_c, 7, 67, 127
1, 227166, Note_on_c, 6, 66, 127
1, 227289, Note_off_c, 6, 66, 127
1, 227289, Note_off_c, 10, 45, 127
1, 227289, Note_off_c, 7, 55, 127
1, 227290, Note_on_c, 2, 50, 127
1, 227290, Note_on_c, 10, 57, 127
1, 227290, Note_on_c, 4, 64, 127
1, 227413, Note_off_c, 4, 64, 127
1, 227415, Note_on_c, 2, 62, 127
1, 227538, Note_off_c, 2, 62, 127
1, 227538, Note_off_c, 10, 57, 127
1, 227538, Note_off_c, 2, 50, 127
1, 227539, Note_on_c, 2, 50, 127
1, 227539, Note_on_c, 7, 55, 127
1, 227539, Note_on_c, 4, 64, 127
1, 227662, Note_off_c, 4, 64, 127
1, 227664, Note_on_c, 10, 57, 127
1, 227787, Note_off_c, 10, 57, 127
1, 227789, Note_on_c, 4, 64, 127
1, 227911, Note_off_c, 7, 55, 127
1, 227912, Note_off_c, 4, 64, 127
1, 227913, Note_on_c, 6, 54, 127
1, 227913, Note_on_c, 7, 67, 127
1, 228036, Note_off_c, 7, 67, 127
1, 228036, Note_off_c, 6, 54, 127
1, 228036, Note_off_c, 2, 50, 127
1, 228038, Note_on_c, 1, 49, 127
1, 228038, Note_on_c, 4, 52, 127
1, 228038, Note_on_c, 10, 69, 127
1, 228161, Note_off_c, 10, 69, 127
1, 228163, Note_on_c, 4, 64, 127
1, 228286, Note_off_c, 4, 64, 127
1, 228286, Note_off_c, 4, 52, 127
1, 228286, Note_off_c, 1, 49, 127
1, 228287, Note_on_c, 2, 50, 127
1, 228287, Note_on_c, 6, 66, 127
1, 228412, Note_on_c, 2, 62, 127
1, 228534, Note_off_c, 6, 66, 127
1, 228535, Note_off_c, 2, 62, 127
1, 228536, Note_on_c, 6, 66, 127
1, 228659, Note_off_c, 6, 66, 127
1, 228659, Note_off_c, 2, 50, 127
1, 228661, Note_on_c, 4, 52, 127
1, 228661, Note_on_c, 10, 69, 127
1, 228784, Note_off_c, 10, 69, 127
1, 228784, Note_off_c, 4, 52, 127
1, 228786, Note_on_c, 6, 54, 127
1, 228786, Note_on_c, 2, 74, 127
1, 228909, Note_off_c, 6, 54, 127
1, 228910, Note_on_c, 2, 50, 127
1, 228910, Note_on_c, 6, 66, 127
1, 229033, Note_off_c, 6, 66, 127
1, 229033, Note_off_c, 2, 50, 127
1, 229034, Note_off_c, 2, 74, 127
1, 229035, Note_on_c, 7, 55, 127
1, 229035, Note_on_c, 7, 67, 127
1, 229035, Note_on_c, 12, 71, 127
1, 229282, Note_off_c, 7, 67, 127
1, 229283, Note_off_c, 7, 55, 127
1, 229284, Note_on_c, 7, 43, 127
1, 229407, Note_off_c, 12, 71, 127
1, 229409, Note_on_c, 0, 72, 127
1, 229531, Note_off_c, 7, 43, 127
1, 229532, Note_off_c, 0, 72, 127
1, 229534, Note_on_c, 2, 62, 127
1, 229534, Note_on_c, 2, 74, 127
1, 229782, Note_off_c, 2, 74, 127
1, 229782, Note_off_c, 2, 62, 127
1, 229783, Note_on_c, 12, 59, 127
1, 229783, Note_on_c, 7, 67, 127
1, 230156, Note_off_c, 12, 59, 127
1, 230158, Note_on_c, 0, 60, 127
1, 230281, Note_off_c, 0, 60, 127
1, 230281, Note_off_c, 7, 67, 127
1, 230282, Note_on_c, 2, 50, 127
1, 230282, Note_on_c, 2, 62, 127
1, 230282, Note_on_c, 6, 66, 127
1, 230530, Note_off_c, 6, 66, 127
1, 230530, Note_off_c, 2, 62, 127
1, 230530, Note_off_c, 2, 50, 127
1, 230532, Note_on_c, 12, 47, 127
1, 230532, Note_on_c, 7, 55, 127
1, 230532, Note_on_c, 7, 67, 127
1, 230655, Note_off_c, 7, 55, 127
1, 230656, Note_on_c, 4, 64, 127
1, 230779, Note_off_c, 4, 64, 127
1, 230779, Note_off_c, 7, 67, 127
1, 230781, Note_on_c, 2, 62, 127
1, 230904, Note_off_c, 2, 62, 127
1, 230904, Note_off_c, 12, 47, 127
1, 230905, Note_on_c, 0, 48, 127
1, 230905, Note_on_c, 0, 60, 127
1, 231028, Note_off_c, 0, 60, 127
1, 231028, Note_off_c, 0, 48, 127
1, 231030, Note_on_c, 2, 50, 127
1, 231030, Note_on_c, 12, 59, 127
1, 231153, Note_off_c, 12, 59, 127
1, 231155, Note_on_c, 10, 57, 127
1, 231278, Note_off_c, 10, 57, 127
1, 231278, Note_off_c, 2, 50, 127
1, 231279, Note_on_c, 7, 43, 127
1, 231279, Note_on_c, 12, 59, 127
1, 231402, Note_off_c, 7, 43, 127
1, 231404, Note_on_c, 0, 48, 127
1, 231527, Note_off_c, 0, 48, 127
1, 231529, Note_on_c, 12, 47, 127
1, 231651, Note_off_c, 12, 59, 127
1, 231652, Note_off_c, 12, 47, 127
1, 231653, Note_on_c, 10, 45, 127
1, 231653, Note_on_c, 1, 61, 127
1, 231776, Note_off_c, 1, 61, 127
1, 231776, Note_off_c, 10, 45, 127
1, 231778, Note_on_c, 7, 43, 127
1, 231778, Note_on_c, 3, 63, 127
1, 231778, Note_on_c, 12, 71, 127
1, 231901, Note_off_c, 7, 43, 127
1, 231903, Note_on_c, 6, 42, 127
1, 232026, Note_off_c, 6, 42, 127
1, 232026, Note_off_c, 12, 71, 127
1, 232026, Note_off_c, 3, 63, 127
1, 232027, Note_on_c, 4, 40, 127
1, 232027, Note_on_c, 4, 64, 127
1, 232027, Note_on_c, 7, 67, 127
1, 232150, Note_off_c, 4, 40, 127
1, 232152, Note_on_c, 4, 52, 127
1, 232275, Note_off_c, 4, 52, 127
1, 232276, Note_on_c, 2, 50, 127
1, 232399, Note_off_c, 2, 50, 127
1, 232399, Note_off_c, 7, 67, 127
1, 232401, Note_on_c, 0, 48, 127
1, 232401, Note_on_c, 10, 69, 127
1, 232524, Note_off_c, 10, 69, 127
1, 232524, Note_off_c, 0, 48, 127
1, 232524, Note_off_c, 4, 64, 127
1, 232526, Note_on_c, 12, 47, 127
1, 232526, Note_on_c, 3, 63, 127
1, 232526, Note_on_c, 12, 71, 127
1, 232649, Note_off_c, 12, 47, 127
1, 232650, Note_on_c, 10, 45, 127
1, 232773, Note_off_c, 10, 45, 127
1, 232774, Note_off_c, 12, 71, 127
1, 232774, Note_off_c, 3, 63, 127
1, 232775, Note_on_c, 7, 43, 127
1, 232775, Note_on_c, 4, 64, 127
1, 232900, Note_on_c, 4, 76, 127
1, 233023, Note_off_c, 4, 76, 127
1, 233023, Note_off_c, 4, 64, 127
1, 233023, Note_off_c, 7, 43, 127
1, 233024, Note_on_c, 10, 45, 127
1, 233024, Note_on_c, 4, 52, 127
1, 233024, Note_on_c, 2, 74, 127
1, 233147, Note_off_c, 2, 74, 127
1, 233149, Note_on_c, 0, 72, 127
1, 233272, Note_off_c, 0, 72, 127
1, 233272, Note_off_c, 4, 52, 127
1, 233272, Note_off_c, 10, 45, 127
1, 233273, Note_on_c, 12, 47, 127
1, 233273, Note_on_c, 3, 51, 127
1, 233273, Note_on_c, 12, 71, 127
1, 233396, Note_off_c, 12, 71, 127
1, 233398, Note_on_c, 10, 69, 127
1, 233521, Note_off_c, 10, 69, 127
1, 233521, Note_off_c, 3, 51, 127
1, 233521, Note_off_c, 12, 47, 127
1, 233523, Note_on_c, 4, 40, 127
1, 233523, Note_on_c, 4, 52, 127
1, 233523, Note_on_c, 7, 67, 127
1, 233646, Note_off_c, 7, 67, 127
1, 233647, Note_on_c, 0, 72, 127
1, 233770, Note_off_c, 0, 72, 127
1, 233770, Note_off_c, 4, 52, 127
1, 233771, Note_off_c, 4, 40, 127
1, 233772, Note_on_c, 4, 52, 127
1, 233772, Note_on_c, 12, 71, 127
1, 233895, Note_off_c, 12, 71, 127
1, 233897, Note_on_c, 10, 69, 127
1, 234020, Note_off_c, 10, 69, 127
1, 234020, Note_off_c, 4, 52, 127
1, 234021, Note_on_c, 2, 50, 127
1, 234021, Note_on_c, 7, 67, 127
1, 234144, Note_off_c, 7, 67, 127
1, 234146, Note_on_c, 6, 66, 127
1, 234269, Note_off_c, 6, 66, 127
1, 234269, Note_off_c, 2, 50, 127
1, 234270, Note_on_c, 1, 49, 127
1, 234270, Note_on_c, 4, 64, 127
1, 234393, Note_off_c, 1, 49, 127
1, 234395, Note_on_c, 10, 57, 127
1, 234518, Note_off_c, 10, 57, 127
1, 234520, Note_on_c, 7, 55, 127
1, 234643, Note_off_c, 7, 55, 127
1, 234644, Note_on_c, 6, 54, 127
1, 234767, Note_off_c, 6, 54, 127
1, 234767, Note_off_c, 4, 64, 127
1, 234769, Note_on_c, 4, 52, 127
1, 234769, Note_on_c, 6, 66, 127
1, 234892, Note_off_c, 4, 52, 127
1, 234894, Note_on_c, 2, 50, 127
1, 235017, Note_off_c, 2, 50, 127
1, 235017, Note_off_c, 6, 66, 127
1, 235018, Note_on_c, 4, 52, 127
1, 235018, Note_on_c, 7, 67, 127
1, 235141, Note_off_c, 7, 67, 127
1, 235143, Note_on_c, 4, 64, 127
1, 235266, Note_off_c, 4, 64, 127
1, 235266, Note_off_c, 4, 52, 127
1, 235268, Note_on_c, 4, 40, 127
1, 235268, Note_on_c, 7, 67, 127
1, 235391, Note_off_c, 7, 67, 127
1, 235392, Note_on_c, 12, 71, 127
1, 235515, Note_off_c, 12, 71, 127
1, 235516, Note_off_c, 4, 40, 127
1, 235517, Note_on_c, 4, 52, 127
1, 235517, Note_on_c, 4, 76, 127
1, 235640, Note_off_c, 4, 76, 127
1, 235641, Note_on_c, 8, 68, 127
1, 235764, Note_off_c, 8, 68, 127
1, 235766, Note_on_c, 11, 70, 127
1, 235889, Note_off_c, 4, 52, 127
1, 235891, Note_on_c, 7, 55, 127
1, 236014, Note_off_c, 7, 55, 127
1, 236014, Note_off_c, 11, 70, 127
1, 236015, Note_on_c, 6, 54, 127
1, 236015, Note_on_c, 6, 66, 127
1, 236138, Note_off_c, 6, 54, 127
1, 236140, Note_on_c, 4, 52, 127
1, 236263, Note_off_c, 4, 52, 127
1, 236263, Note_off_c, 6, 66, 127
1, 236265, Note_on_c, 2, 50, 127
1, 236265, Note_on_c, 6, 78, 127
1, 236388, Note_off_c, 2, 50, 127
1, 236389, Note_on_c, 1, 49, 127
1, 236512, Note_off_c, 1, 49, 127
1, 236513, Note_off_c, 6, 78, 127
1, 236514, Note_on_c, 6, 54, 127
1, 236514, Note_on_c, 2, 74, 127
1, 236637, Note_off_c, 6, 54, 127
1, 236638, Note_on_c, 4, 52, 127
1, 236761, Note_off_c, 4, 52, 127
1, 236763, Note_on_c, 6, 54, 127
1, 236886, Note_off_c, 2, 74, 127
1, 236888, Note_on_c, 1, 73, 127
1, 237011, Note_off_c, 1, 73, 127
1, 237011, Note_off_c, 6, 54, 127
1, 237012, Note_on_c, 6, 42, 127
1, 237012, Note_on_c, 6, 66, 127
1, 237012, Note_on_c, 12, 71, 127
1, 237260, Note_off_c, 12, 71, 127
1, 237260, Note_off_c, 6, 66, 127
1, 237260, Note_off_c, 6, 42, 127
1, 237262, Note_on_c, 12, 47, 127
1, 237262, Note_on_c, 2, 62, 127
1, 237262, Note_on_c, 12, 71, 127
1, 237635, Note_off_c, 2, 62, 127
1, 237637, Note_on_c, 4, 64, 127
1, 237756, Note_off_c, 12, 71, 127
1, 237760, Note_off_c, 4, 64, 127
1, 237760, Note_off_c, 12, 47, 127
1, 237761, Note_on_c, 6, 54, 127
1, 237761, Note_on_c, 6, 66, 127
1, 238009, Note_off_c, 6, 66, 127
1, 238009, Note_off_c, 6, 54, 127
1, 238010, Note_on_c, 2, 50, 127
1, 238010, Note_on_c, 12, 59, 127
1, 238133, Note_off_c, 12, 59, 127
1, 238135, Note_on_c, 12, 71, 127
1, 238258, Note_off_c, 12, 71, 127
1, 238260, Note_on_c, 10, 69, 127
1, 238382, Note_off_c, 2, 50, 127
1, 238383, Note_off_c, 10, 69, 127
1, 238384, Note_on_c, 4, 52, 127
1, 238384, Note_on_c, 7, 67, 127
1, 238507, Note_off_c, 7, 67, 127
1, 238507, Note_off_c, 4, 52, 127
1, 238509, Note_on_c, 6, 54, 127
1, 238509, Note_on_c, 6, 66, 127
1, 238632, Note_off_c, 6, 66, 127
1, 238634, Note_on_c, 4, 64, 127
1, 238757, Note_off_c, 4, 64, 127
1, 238757, Note_off_c, 6, 54, 127
1, 238758, Note_on_c, 12, 47, 127
1, 238758, Note_on_c, 2, 62, 127
1, 238881, Note_off_c, 2, 62, 127
1, 238881, Note_off_c, 12, 47, 127
1, 238883, Note_on_c, 12, 59, 127
1, 238883, Note_on_c, 7, 67, 127
1, 239006, Note_off_c, 7, 67, 127
1, 239006, Note_off_c, 12, 59, 127
1, 239007, Note_on_c, 10, 57, 127
1, 239007, Note_on_c, 6, 66, 127
1, 239130, Note_off_c, 6, 66, 127
1, 239130, Note_off_c, 10, 57, 127
1, 239132, Note_on_c, 7, 55, 127
1, 239132, Note_on_c, 4, 64, 127
1, 239255, Note_off_c, 4, 64, 127
1, 239255, Note_off_c, 7, 55, 127
1, 239257, Note_on_c, 6, 54, 127
1, 239257, Note_on_c, 2, 62, 127
1, 239380, Note_off_c, 2, 62, 127
1, 239380, Note_off_c, 6, 54, 127
1, 239381, Note_on_c, 4, 52, 127
1, 239381, Note_on_c, 1, 61, 127
1, 239504, Note_off_c, 1, 61, 127
1, 239504, Note_off_c, 4, 52, 127
1, 239506, Note_on_c, 2, 50, 127
1, 239506, Note_on_c, 12, 59, 127
1, 239629, Note_off_c, 2, 50, 127
1, 239631, Note_on_c, 7, 55, 127
1, 239754, Note_off_c, 7, 55, 127
1, 239755, Note_on_c, 6, 54, 127
1, 239878, Note_off_c, 6, 54, 127
1, 239880, Note_on_c, 4, 52, 127
1, 240003, Note_off_c, 4, 52, 127
1, 240003, Note_off_c, 12, 59, 127
1, 240004, Note_on_c, 2, 50, 127
1, 240004, Note_on_c, 1, 61, 127
1, 240127, Note_off_c, 2, 50, 127
1, 240129, Note_on_c, 1, 49, 127
1, 240252, Note_off_c, 1, 49, 127
1, 240252, Note_off_c, 1, 61, 127
1, 240254, Note_on_c, 12, 47, 127
1, 240254, Note_on_c, 3, 63, 127
1, 240377, Note_off_c, 3, 63, 127
1, 240378, Note_on_c, 12, 59, 127
1, 240501, Note_off_c, 12, 59, 127
1, 240503, Note_on_c, 3, 63, 127
1, 240626, Note_off_c, 3, 63, 127
1, 240628, Note_on_c, 6, 66, 127
1, 240751, Note_off_c, 6, 66, 127
1, 240751, Note_off_c, 12, 47, 127
1, 240752, Note_on_c, 12, 47, 127
1, 240752, Note_on_c, 12, 71, 127
1, 240875, Note_off_c, 12, 71, 127
1, 240877, Note_on_c, 3, 63, 127
1, 241000, Note_off_c, 3, 63, 127
1, 241000, Note_off_c, 12, 47, 127
1, 241002, Note_on_c, 1, 49, 127
1, 241002, Note_on_c, 4, 64, 127
1, 241125, Note_off_c, 1, 49, 127
1, 241126, Note_on_c, 10, 45, 127
1, 241249, Note_off_c, 10, 45, 127
1, 241251, Note_on_c, 1, 49, 127
1, 241374, Note_off_c, 1, 49, 127
1, 241375, Note_on_c, 4, 52, 127
1, 241498, Note_off_c, 4, 52, 127
1, 241499, Note_off_c, 4, 64, 127
1, 241500, Note_on_c, 10, 57, 127
1, 241500, Note_on_c, 4, 64, 127
1, 241623, Note_off_c, 10, 57, 127
1, 241625, Note_on_c, 1, 49, 127
1, 241748, Note_off_c, 1, 49, 127
1, 241748, Note_off_c, 4, 64, 127
1, 241749, Note_on_c, 3, 51, 127
1, 241749, Note_on_c, 6, 66, 127
1, 241872, Note_off_c, 6, 66, 127
1, 241874, Note_on_c, 12, 71, 127
1, 241997, Note_off_c, 12, 71, 127
1, 241997, Note_off_c, 3, 51, 127
1, 241999, Note_on_c, 12, 47, 127
1, 241999, Note_on_c, 10, 69, 127
1, 242122, Note_off_c, 10, 69, 127
1, 242123, Note_on_c, 7, 67, 127
1, 242246, Note_off_c, 7, 67, 127
1, 242247, Note_off_c, 12, 47, 127
1, 242248, Note_on_c, 4, 52, 127
1, 242248, Note_on_c, 6, 66, 127
1, 242371, Note_off_c, 6, 66, 127
1, 242372, Note_on_c, 4, 64, 127
1, 242495, Note_off_c, 4, 64, 127
1, 242497, Note_on_c, 6, 66, 127
1, 242620, Note_off_c, 4, 52, 127
1, 242622, Note_on_c, 10, 57, 127
1, 242745, Note_off_c, 10, 57, 127
1, 242745, Note_off_c, 6, 66, 127
1, 242746, Note_on_c, 7, 55, 127
1, 242746, Note_on_c, 12, 59, 127
1, 242869, Note_off_c, 7, 55, 127
1, 242871, Note_on_c, 6, 54, 127
1, 242994, Note_off_c, 6, 54, 127
1, 242994, Note_off_c, 12, 59, 127
1, 242996, Note_on_c, 4, 52, 127
1, 242996, Note_on_c, 12, 71, 127
1, 243119, Note_off_c, 4, 52, 127
1, 243120, Note_on_c, 3, 51, 127
1, 243243, Note_off_c, 3, 51, 127
1, 243244, Note_off_c, 12, 71, 127
1, 243245, Note_on_c, 4, 52, 127
1, 243245, Note_on_c, 7, 67, 127
1, 243368, Note_off_c, 4, 52, 127
1, 243369, Note_on_c, 12, 47, 127
1, 243492, Note_off_c, 12, 47, 127
1, 243494, Note_on_c, 4, 52, 127
1, 243617, Note_off_c, 4, 52, 127
1, 243617, Note_off_c, 7, 67, 127
1, 243619, Note_on_c, 6, 54, 127
1, 243619, Note_on_c, 10, 69, 127
1, 243742, Note_off_c, 10, 69, 127
1, 243742, Note_off_c, 6, 54, 127
1, 243743, Note_on_c, 7, 55, 127
1, 243743, Note_on_c, 12, 71, 127
1, 243743, Note_on_c, 4, 76, 127
1, 243866, Note_off_c, 7, 55, 127
1, 243868, Note_on_c, 4, 52, 127
1, 243991, Note_off_c, 4, 52, 127
1, 243991, Note_off_c, 4, 76, 127
1, 243991, Note_off_c, 12, 71, 127
1, 243993, Note_on_c, 10, 57, 127
1, 243993, Note_on_c, 4, 64, 127
1, 243993, Note_on_c, 0, 72, 127
1, 244116, Note_off_c, 10, 57, 127
1, 244117, Note_on_c, 4, 52, 127
1, 244240, Note_off_c, 4, 52, 127
1, 244242, Note_on_c, 10, 57, 127
1, 244365, Note_off_c, 10, 57, 127
1, 244365, Note_off_c, 0, 72, 127
1, 244367, Note_on_c, 12, 59, 127
1, 244367, Note_on_c, 2, 74, 127
1, 244490, Note_off_c, 2, 74, 127
1, 244490, Note_off_c, 12, 59, 127
1, 244490, Note_off_c, 4, 64, 127
1, 244491, Note_on_c, 0, 60, 127
1, 244491, Note_on_c, 10, 69, 127
1, 244491, Note_on_c, 4, 76, 127
1, 244614, Note_off_c, 0, 60, 127
1, 244616, Note_on_c, 10, 57, 127
1, 244739, Note_off_c, 10, 57, 127
1, 244739, Note_off_c, 4, 76, 127
1, 244739, Note_off_c, 10, 69, 127
1, 244740, Note_on_c, 2, 62, 127
1, 244740, Note_on_c, 6, 66, 127
1, 244740, Note_on_c, 10, 69, 127
1, 244863, Note_off_c, 2, 62, 127
1, 244865, Note_on_c, 10, 45, 127
1, 244988, Note_off_c, 10, 45, 127
1, 244990, Note_on_c, 2, 50, 127
1, 245112, Note_off_c, 6, 66, 127
1, 245113, Note_off_c, 2, 50, 127
1, 245114, Note_on_c, 4, 52, 127
1, 245114, Note_on_c, 7, 67, 127
1, 245237, Note_off_c, 7, 67, 127
1, 245237, Note_off_c, 4, 52, 127
1, 245237, Note_off_c, 10, 69, 127
1, 245239, Note_on_c, 6, 54, 127
1, 245239, Note_on_c, 10, 69, 127
1, 245239, Note_on_c, 2, 74, 127
1, 245362, Note_off_c, 6, 54, 127
1, 245364, Note_on_c, 2, 50, 127
1, 245487, Note_off_c, 2, 50, 127
1, 245487, Note_off_c, 2, 74, 127
1, 245487, Note_off_c, 10, 69, 127
1, 245488, Note_on_c, 7, 55, 127
1, 245488, Note_on_c, 2, 62, 127
1, 245488, Note_on_c, 12, 71, 127
1, 245611, Note_off_c, 7, 55, 127
1, 245613, Note_on_c, 0, 60, 127
1, 245735, Note_off_c, 2, 62, 127
1, 245736, Note_off_c, 0, 60, 127
1, 245737, Note_on_c, 12, 59, 127
1, 245860, Note_off_c, 12, 59, 127
1, 245860, Note_off_c, 12, 71, 127
1, 245862, Note_on_c, 10, 57, 127
1, 245862, Note_on_c, 0, 72, 127
1, 245985, Note_off_c, 0, 72, 127
1, 245985, Note_off_c, 10, 57, 127
1, 245987, Note_on_c, 7, 55, 127
1, 245987, Note_on_c, 2, 74, 127
1, 246110, Note_off_c, 7, 55, 127
1, 246111, Note_on_c, 6, 54, 127
1, 246234, Note_off_c, 6, 54, 127
1, 246235, Note_off_c, 2, 74, 127
1, 246236, Note_on_c, 4, 52, 127
1, 246236, Note_on_c, 7, 67, 127
1, 246359, Note_off_c, 7, 67, 127
1, 246361, Note_on_c, 7, 79, 127
1, 246483, Note_off_c, 4, 52, 127
1, 246484, Note_off_c, 7, 79, 127
1, 246485, Note_on_c, 4, 64, 127
1, 246485, Note_on_c, 6, 78, 127
1, 246608, Note_off_c, 6, 78, 127
1, 246610, Note_on_c, 4, 76, 127
1, 246733, Note_off_c, 4, 76, 127
1, 246733, Note_off_c, 4, 64, 127
1, 246735, Note_on_c, 6, 66, 127
1, 246735, Note_on_c, 2, 74, 127
1, 246858, Note_off_c, 2, 74, 127
1, 246859, Note_on_c, 0, 72, 127
1, 246982, Note_off_c, 0, 72, 127
1, 246983, Note_off_c, 6, 66, 127
1, 246984, Note_on_c, 7, 67, 127
1, 246984, Note_on_c, 12, 71, 127
1, 247107, Note_off_c, 12, 71, 127
1, 247108, Note_on_c, 4, 76, 127
1, 247231, Note_off_c, 4, 76, 127
1, 247231, Note_off_c, 7, 67, 127
1, 247233, Note_on_c, 12, 47, 127
1, 247233, Note_on_c, 2, 74, 127
1, 247356, Note_off_c, 2, 74, 127
1, 247358, Note_on_c, 0, 72, 127
1, 247481, Note_off_c, 0, 72, 127
1, 247481, Note_off_c, 12, 47, 127
1, 247482, Note_on_c, 2, 50, 127
1, 247482, Note_on_c, 12, 71, 127
1, 247605, Note_off_c, 12, 71, 127
1, 247607, Note_on_c, 10, 69, 127
1, 247730, Note_off_c, 10, 69, 127
1, 247730, Note_off_c, 2, 50, 127
1, 247732, Note_on_c, 4, 52, 127
1, 247732, Note_on_c, 7, 67, 127
1, 247856, Note_on_c, 4, 64, 127
1, 247979, Note_off_c, 4, 64, 127
1, 247979, Note_off_c, 4, 52, 127
1, 247981, Note_on_c, 2, 62, 127
1, 248104, Note_off_c, 2, 62, 127
1, 248105, Note_on_c, 0, 60, 127
1, 248228, Note_off_c, 0, 60, 127
1, 248229, Note_off_c, 7, 67, 127
1, 248230, Note_on_c, 6, 54, 127
1, 248230, Note_on_c, 12, 59, 127
1, 248230, Note_on_c, 10, 69, 127
1, 248353, Note_off_c, 12, 59, 127
1, 248355, Note_on_c, 10, 57, 127
1, 248478, Note_off_c, 10, 57, 127
1, 248478, Note_off_c, 10, 69, 127
1, 248478, Note_off_c, 6, 54, 127
1, 248479, Note_on_c, 7, 55, 127
1, 248479, Note_on_c, 12, 71, 127
1, 248602, Note_off_c, 12, 71, 127
1, 248604, Note_on_c, 7, 67, 127
1, 248727, Note_off_c, 7, 67, 127
1, 248727, Note_off_c, 7, 55, 127
1, 248729, Note_on_c, 7, 67, 127
1, 248729, Note_on_c, 12, 71, 127
1, 248852, Note_off_c, 12, 71, 127
1, 248852, Note_off_c, 7, 67, 127
1, 248853, Note_on_c, 6, 66, 127
1, 248853, Note_on_c, 2, 74, 127
1, 248976, Note_off_c, 2, 74, 127
1, 248976, Note_off_c, 6, 66, 127
1, 248978, Note_on_c, 4, 64, 127
1, 248978, Note_on_c, 7, 79, 127
1, 249101, Note_off_c, 7, 79, 127
1, 249102, Note_on_c, 12, 71, 127
1, 249225, Note_off_c, 12, 71, 127
1, 249226, Note_off_c, 4, 64, 127
1, 249227, Note_on_c, 10, 57, 127
1, 249227, Note_on_c, 1, 73, 127
1, 249350, Note_off_c, 10, 57, 127
1, 249352, Note_on_c, 10, 69, 127
1, 249475, Note_off_c, 10, 69, 127
1, 249475, Note_off_c, 1, 73, 127
1, 249476, Note_on_c, 7, 67, 127
1, 249476, Note_on_c, 10, 69, 127
1, 249599, Note_off_c, 7, 67, 127
1, 249601, Note_on_c, 6, 66, 127
1, 249724, Note_off_c, 6, 66, 127
1, 249724, Note_off_c, 10, 69, 127
1, 249726, Note_on_c, 4, 64, 127
1, 249726, Note_on_c, 2, 74, 127
1, 249849, Note_off_c, 4, 64, 127
1, 249850, Note_on_c, 2, 62, 127
1, 249973, Note_off_c, 2, 62, 127
1, 249974, Note_off_c, 2, 74, 127
1, 249975, Note_on_c, 4, 64, 127
1, 249975, Note_on_c, 2, 74, 127
1, 250098, Note_off_c, 4, 64, 127
1, 250100, Note_on_c, 10, 57, 127
1, 250223, Note_off_c, 10, 57, 127
1, 250224, Note_on_c, 4, 64, 127
1, 250347, Note_off_c, 4, 64, 127
1, 250349, Note_on_c, 7, 67, 127
1, 250472, Note_off_c, 7, 67, 127
1, 250472, Note_off_c, 2, 74, 127
1, 250473, Note_on_c, 10, 45, 127
1, 250473, Note_on_c, 10, 69, 127
1, 250473, Note_on_c, 1, 73, 127
1, 250596, Note_off_c, 10, 69, 127
1, 250598, Note_on_c, 4, 64, 127
1, 250721, Note_off_c, 4, 64, 127
1, 250721, Note_off_c, 1, 73, 127
1, 250721, Note_off_c, 10, 45, 127
1, 250723, Note_on_c, 6, 42, 127
1, 250723, Note_on_c, 6, 66, 127
1, 250723, Note_on_c, 2, 74, 127
1, 250971, Note_off_c, 2, 74, 127
1, 250971, Note_off_c, 6, 66, 127
1, 250972, Note_on_c, 2, 62, 127
1, 250972, Note_on_c, 6, 66, 127
1, 251095, Note_off_c, 6, 42, 127
1, 251097, Note_on_c, 7, 43, 127
1, 251220, Note_off_c, 7, 43, 127
1, 251220, Note_off_c, 6, 66, 127
1, 251220, Note_off_c, 2, 62, 127
1, 251221, Note_on_c, 10, 45, 127
1, 251221, Note_on_c, 1, 61, 127
1, 251221, Note_on_c, 4, 64, 127
1, 251469, Note_off_c, 4, 64, 127
1, 251469, Note_off_c, 1, 61, 127
1, 251469, Note_off_c, 10, 45, 127
1, 251470, Note_on_c, 2, 38, 127
1, 251470, Note_on_c, 2, 62, 127
1, 251470, Note_on_c, 6, 66, 127
1, 251593, Note_off_c, 2, 38, 127
1, 251595, Note_on_c, 2, 50, 127
1, 251718, Note_off_c, 2, 50, 127
1, 251720, Note_on_c, 1, 49, 127
1, 251843, Note_off_c, 1, 49, 127
1, 251844, Note_on_c, 12, 47, 127
1, 251967, Note_off_c, 12, 47, 127
1, 251967, Note_off_c, 6, 66, 127
1, 251969, Note_on_c, 10, 45, 127
1, 251969, Note_on_c, 7, 67, 127
1, 252092, Note_off_c, 10, 45, 127
1, 252094, Note_on_c, 7, 43, 127
1, 252217, Note_off_c, 7, 43, 127
1, 252217, Note_off_c, 7, 67, 127
1, 252218, Note_on_c, 6, 42, 127
1, 252218, Note_on_c, 10, 69, 127
1, 252341, Note_off_c, 10, 69, 127
1, 252341, Note_off_c, 6, 42, 127
1, 252343, Note_on_c, 12, 47, 127
1, 252343, Note_on_c, 2, 74, 127
1, 252466, Note_off_c, 2, 74, 127
1, 252466, Note_off_c, 12, 47, 127
1, 252466, Note_off_c, 2, 62, 127
1, 252467, Note_on_c, 10, 45, 127
1, 252467, Note_on_c, 1, 73, 127
1, 252590, Note_off_c, 1, 73, 127
1, 252590, Note_off_c, 10, 45, 127
1, 252592, Note_on_c, 7, 43, 127
1, 252592, Note_on_c, 12, 71, 127
1, 252715, Note_off_c, 12, 71, 127
1, 252715, Note_off_c, 7, 43, 127
1, 252717, Note_on_c, 6, 42, 127
1, 252717, Note_on_c, 10, 69, 127
1, 252840, Note_off_c, 10, 69, 127
1, 252840, Note_off_c, 6, 42, 127
1, 252841, Note_on_c, 4, 40, 127
1, 252841, Note_on_c, 7, 67, 127
1, 252964, Note_off_c, 7, 67, 127
1, 252964, Note_off_c, 4, 40, 127
1, 252966, Note_on_c, 2, 38, 127
1, 252966, Note_on_c, 6, 66, 127
1, 253089, Note_off_c, 6, 66, 127
1, 253091, Note_on_c, 12, 71, 127
1, 253214, Note_off_c, 12, 71, 127
1, 253215, Note_on_c, 10, 69, 127
1, 253338, Note_off_c, 10, 69, 127
1, 253340, Note_on_c, 7, 67, 127
1, 253463, Note_off_c, 7, 67, 127
1, 253463, Note_off_c, 2, 38, 127
1, 253465, Note_on_c, 4, 40, 127
1, 253465, Note_on_c, 6, 66, 127
1, 253588, Note_off_c, 6, 66, 127
1, 253589, Note_on_c, 4, 64, 127
1, 253712, Note_off_c, 4, 64, 127
1, 253713, Note_off_c, 4, 40, 127
1, 253714, Note_on_c, 6, 42, 127
1, 253714, Note_on_c, 2, 62, 127
1, 253837, Note_off_c, 6, 42, 127
1, 253838, Note_on_c, 2, 38, 127
1, 253961, Note_off_c, 2, 38, 127
1, 253962, Note_off_c, 2, 62, 127
1, 253963, Note_on_c, 6, 42, 127
1, 253963, Note_on_c, 2, 74, 127
1, 254086, Note_off_c, 2, 74, 127
1, 254086, Note_off_c, 6, 42, 127
1, 254088, Note_on_c, 10, 45, 127
1, 254088, Note_on_c, 4, 76, 127
1, 254211, Note_off_c, 4, 76, 127
1, 254211, Note_off_c, 10, 45, 127
1, 254212, Note_on_c, 2, 50, 127
1, 254212, Note_on_c, 6, 78, 127
1, 254335, Note_off_c, 2, 50, 127
1, 254337, Note_on_c, 6, 42, 127
1, 254460, Note_off_c, 6, 42, 127
1, 254460, Note_off_c, 6, 78, 127
1, 254462, Note_on_c, 8, 44, 127
1, 254462, Note_on_c, 4, 76, 127
1, 254585, Note_off_c, 4, 76, 127
1, 254586, Note_on_c, 6, 78, 127
1, 254709, Note_off_c, 6, 78, 127
1, 254710, Note_off_c, 8, 44, 127
1, 254711, Note_on_c, 4, 40, 127
1, 254711, Note_on_c, 4, 76, 127
1, 254834, Note_off_c, 4, 76, 127
1, 254835, Note_on_c, 2, 74, 127
1, 254958, Note_off_c, 2, 74, 127
1, 254959, Note_off_c, 4, 40, 127
1, 254960, Note_on_c, 10, 45, 127
1, 254960, Note_on_c, 1, 73, 127
1, 255083, Note_off_c, 1, 73, 127
1, 255085, Note_on_c, 4, 76, 127
1, 255208, Note_off_c, 4, 76, 127
1, 255208, Note_off_c, 10, 45, 127
1, 255209, Note_on_c, 10, 45, 127
1, 255209, Note_on_c, 2, 74, 127
1, 255332, Note_off_c, 2, 74, 127
1, 255334, Note_on_c, 4, 76, 127
1, 255457, Note_off_c, 4, 76, 127
1, 255459, Note_on_c, 2, 74, 127
1, 255582, Note_off_c, 2, 74, 127
1, 255583, Note_on_c, 1, 73, 127
1, 255706, Note_off_c, 1, 73, 127
1, 255706, Note_off_c, 10, 45, 127
1, 255708, Note_on_c, 8, 44, 127
1, 255708, Note_on_c, 12, 71, 127
1, 255831, Note_off_c, 12, 71, 127
1, 255832, Note_on_c, 2, 74, 127
1, 255955, Note_off_c, 2, 74, 127
1, 255956, Note_off_c, 8, 44, 127
1, 255957, Note_on_c, 10, 45, 127
1, 255957, Note_on_c, 1, 73, 127
1, 256080, Note_off_c, 1, 73, 127
1, 256082, Note_on_c, 10, 69, 127
1, 256205, Note_off_c, 10, 69, 127
1, 256205, Note_off_c, 10, 45, 127
1, 256206, Note_on_c, 10, 45, 127
1, 256206, Note_on_c, 1, 73, 127
1, 256329, Note_off_c, 1, 73, 127
1, 256329, Note_off_c, 10, 45, 127
1, 256331, Note_on_c, 12, 47, 127
1, 256331, Note_on_c, 4, 76, 127
1, 256454, Note_off_c, 4, 76, 127
1, 256454, Note_off_c, 12, 47, 127
1, 256456, Note_on_c, 1, 49, 127
1, 256456, Note_on_c, 10, 81, 127
1, 256579, Note_off_c, 10, 81, 127
1, 256580, Note_on_c, 4, 76, 127
1, 256703, Note_off_c, 4, 76, 127
1, 256704, Note_off_c, 1, 49, 127
1, 256705, Note_on_c, 2, 50, 127
1, 256705, Note_on_c, 6, 78, 127
1, 256828, Note_off_c, 6, 78, 127
1, 256830, Note_on_c, 12, 71, 127
1, 256953, Note_off_c, 12, 71, 127
1, 256953, Note_off_c, 2, 50, 127
1, 256954, Note_on_c, 12, 47, 127
1, 256954, Note_on_c, 2, 74, 127
1, 257077, Note_off_c, 2, 74, 127
1, 257077, Note_off_c, 12, 47, 127
1, 257079, Note_on_c, 1, 49, 127
1, 257079, Note_on_c, 6, 78, 127
1, 257202, Note_off_c, 6, 78, 127
1, 257202, Note_off_c, 1, 49, 127
1, 257203, Note_on_c, 2, 50, 127
1, 257203, Note_on_c, 12, 83, 127
1, 257326, Note_off_c, 12, 83, 127
1, 257328, Note_on_c, 6, 78, 127
1, 257451, Note_off_c, 6, 78, 127
1, 257451, Note_off_c, 2, 50, 127
1, 257453, Note_on_c, 4, 52, 127
1, 257453, Note_on_c, 8, 80, 127
1, 257576, Note_off_c, 4, 52, 127
1, 257577, Note_on_c, 4, 40, 127
1, 257700, Note_off_c, 4, 40, 127
1, 257701, Note_off_c, 8, 80, 127
1, 257702, Note_on_c, 8, 44, 127
1, 257702, Note_on_c, 4, 76, 127
1, 257825, Note_off_c, 4, 76, 127
1, 257825, Note_off_c, 8, 44, 127
1, 257827, Note_on_c, 12, 47, 127
1, 257827, Note_on_c, 6, 78, 127
1, 257950, Note_off_c, 6, 78, 127
1, 257950, Note_off_c, 12, 47, 127
1, 257951, Note_on_c, 4, 52, 127
1, 257951, Note_on_c, 8, 80, 127
1, 258074, Note_off_c, 4, 52, 127
1, 258076, Note_on_c, 12, 47, 127
1, 258199, Note_off_c, 12, 47, 127
1, 258199, Note_off_c, 8, 80, 127
1, 258200, Note_on_c, 1, 49, 127
1, 258200, Note_on_c, 10, 81, 127
1, 258323, Note_off_c, 1, 49, 127
1, 258325, Note_on_c, 10, 45, 127
1, 258448, Note_off_c, 10, 45, 127
1, 258448, Note_off_c, 10, 81, 127
1, 258450, Note_on_c, 1, 49, 127
1, 258450, Note_on_c, 4, 76, 127
1, 258573, Note_off_c, 4, 76, 127
1, 258573, Note_off_c, 1, 49, 127
1, 258574, Note_on_c, 4, 52, 127
1, 258574, Note_on_c, 6, 78, 127
1, 258697, Note_off_c, 6, 78, 127
1, 258697, Note_off_c, 4, 52, 127
1, 258699, Note_on_c, 10, 57, 127
1, 258699, Note_on_c, 7, 79, 127
1, 258822, Note_off_c, 10, 57, 127
1, 258824, Note_on_c, 1, 49, 127
1, 258947, Note_off_c, 1, 49, 127
1, 258947, Note_off_c, 7, 79, 127
1, 258948, Note_on_c, 2, 50, 127
1, 258948, Note_on_c, 6, 78, 127
1, 259071, Note_off_c, 2, 50, 127
1, 259073, Note_on_c, 2, 38, 127
1, 259196, Note_off_c, 2, 38, 127
1, 259198, Note_on_c, 6, 42, 127
1, 259321, Note_off_c, 6, 42, 127
1, 259322, Note_on_c, 10, 45, 127
1, 259445, Note_off_c, 10, 45, 127
1, 259445, Note_off_c, 6, 78, 127
1, 259447, Note_on_c, 2, 50, 127
1, 259447, Note_on_c, 6, 78, 127
1, 259570, Note_off_c, 2, 50, 127
1, 259571, Note_on_c, 10, 45, 127
1, 259694, Note_off_c, 10, 45, 127
1, 259695, Note_off_c, 6, 78, 127
1, 259696, Note_on_c, 12, 47, 127
1, 259696, Note_on_c, 2, 74, 127
1, 259819, Note_off_c, 2, 74, 127
1, 259821, Note_on_c, 12, 71, 127
1, 259944, Note_off_c, 12, 71, 127
1, 259944, Note_off_c, 12, 47, 127
1, 259945, Note_on_c, 12, 47, 127
1, 259945, Note_on_c, 2, 74, 127
1, 260068, Note_off_c, 2, 74, 127
1, 260068, Note_off_c, 12, 47, 127
1, 260070, Note_on_c, 0, 48, 127
1, 260070, Note_on_c, 6, 78, 127
1, 260193, Note_off_c, 6, 78, 127
1, 260193, Note_off_c, 0, 48, 127
1, 260195, Note_on_c, 2, 50, 127
1, 260195, Note_on_c, 12, 83, 127
1, 260318, Note_off_c, 12, 83, 127
1, 260319, Note_on_c, 6, 78, 127
1, 260442, Note_off_c, 6, 78, 127
1, 260443, Note_off_c, 2, 50, 127
1, 260444, Note_on_c, 4, 52, 127
1, 260444, Note_on_c, 7, 79, 127
1, 260567, Note_off_c, 4, 52, 127
1, 260568, Note_on_c, 4, 40, 127
1, 260691, Note_off_c, 4, 40, 127
1, 260692, Note_off_c, 7, 79, 127
1, 260693, Note_on_c, 7, 43, 127
1, 260693, Note_on_c, 4, 76, 127
1, 260816, Note_off_c, 4, 76, 127
1, 260816, Note_off_c, 7, 43, 127
1, 260818, Note_on_c, 12, 47, 127
1, 260818, Note_on_c, 6, 78, 127
1, 260941, Note_off_c, 6, 78, 127
1, 260941, Note_off_c, 12, 47, 127
1, 260942, Note_on_c, 4, 52, 127
1, 260942, Note_on_c, 7, 79, 127
1, 261065, Note_off_c, 4, 52, 127
1, 261067, Note_on_c, 7, 43, 127
1, 261190, Note_off_c, 7, 43, 127
1, 261190, Note_off_c, 7, 79, 127
1, 261192, Note_on_c, 10, 45, 127
1, 261192, Note_on_c, 1, 73, 127
1, 261315, Note_off_c, 1, 73, 127
1, 261316, Note_on_c, 10, 69, 127
1, 261439, Note_off_c, 10, 69, 127
1, 261440, Note_off_c, 10, 45, 127
1, 261441, Note_on_c, 10, 45, 127
1, 261441, Note_on_c, 1, 73, 127
1, 261564, Note_off_c, 1, 73, 127
1, 261564, Note_off_c, 10, 45, 127
1, 261565, Note_on_c, 12, 47, 127
1, 261565, Note_on_c, 4, 76, 127
1, 261688, Note_off_c, 4, 76, 127
1, 261688, Note_off_c, 12, 47, 127
1, 261690, Note_on_c, 1, 49, 127
1, 261690, Note_on_c, 10, 81, 127
1, 261813, Note_off_c, 10, 81, 127
1, 261815, Note_on_c, 4, 76, 127
1, 261938, Note_off_c, 4, 76, 127
1, 261938, Note_off_c, 1, 49, 127
1, 261939, Note_on_c, 2, 50, 127
1, 261939, Note_on_c, 6, 78, 127
1, 262062, Note_off_c, 6, 78, 127
1, 262064, Note_on_c, 2, 74, 127
1, 262187, Note_off_c, 2, 74, 127
1, 262187, Note_off_c, 2, 50, 127
1, 262189, Note_on_c, 2, 50, 127
1, 262189, Note_on_c, 6, 78, 127
1, 262312, Note_off_c, 6, 78, 127
1, 262312, Note_off_c, 2, 50, 127
1, 262313, Note_on_c, 4, 52, 127
1, 262313, Note_on_c, 10, 81, 127
1, 262436, Note_off_c, 10, 81, 127
1, 262436, Note_off_c, 4, 52, 127
1, 262438, Note_on_c, 6, 54, 127
1, 262438, Note_on_c, 0, 84, 127
1, 262561, Note_off_c, 0, 84, 127
1, 262563, Note_on_c, 10, 81, 127
1, 262686, Note_off_c, 10, 81, 127
1, 262686, Note_off_c, 6, 54, 127
1, 262687, Note_on_c, 7, 43, 127
1, 262687, Note_on_c, 12, 83, 127
1, 262810, Note_off_c, 7, 43, 127
1, 262812, Note_on_c, 10, 57, 127
1, 262935, Note_off_c, 10, 57, 127
1, 262935, Note_off_c, 12, 83, 127
1, 262936, Note_on_c, 7, 55, 127
1, 262936, Note_on_c, 2, 74, 127
1, 263059, Note_off_c, 7, 55, 127
1, 263061, Note_on_c, 6, 54, 127
1, 263184, Note_off_c, 6, 54, 127
1, 263184, Note_off_c, 2, 74, 127
1, 263186, Note_on_c, 4, 52, 127
1, 263186, Note_on_c, 7, 79, 127
1, 263309, Note_off_c, 4, 52, 127
1, 263310, Note_on_c, 2, 50, 127
1, 263433, Note_off_c, 2, 50, 127
1, 263435, Note_on_c, 1, 49, 127
1, 263558, Note_off_c, 7, 79, 127
1, 263560, Note_on_c, 12, 83, 127
1, 263683, Note_off_c, 12, 83, 127
1, 263683, Note_off_c, 1, 49, 127
1, 263684, Note_on_c, 10, 45, 127
1, 263684, Note_on_c, 10, 81, 127
1, 263807, Note_off_c, 10, 81, 127
1, 263809, Note_on_c, 7, 79, 127
1, 263932, Note_off_c, 7, 79, 127
1, 263932, Note_off_c, 10, 45, 127
1, 263933, Note_on_c, 2, 50, 127
1, 263933, Note_on_c, 10, 69, 127
1, 263933, Note_on_c, 6, 78, 127
1, 264056, Note_off_c, 6, 78, 127
1, 264058, Note_on_c, 10, 81, 127
1, 264181, Note_off_c, 10, 81, 127
1, 264181, Note_off_c, 10, 69, 127
1, 264181, Note_off_c, 2, 50, 127
1, 264183, Note_on_c, 6, 42, 127
1, 264183, Note_on_c, 6, 66, 127
1, 264183, Note_on_c, 2, 74, 127
1, 264306, Note_off_c, 6, 42, 127
1, 264307, Note_on_c, 7, 43, 127
1, 264430, Note_off_c, 7, 43, 127
1, 264432, Note_on_c, 10, 45, 127
1, 264555, Note_off_c, 2, 74, 127
1, 264555, Note_off_c, 6, 66, 127
1, 264557, Note_on_c, 7, 67, 127
1, 264557, Note_on_c, 4, 76, 127
1, 264680, Note_off_c, 4, 76, 127
1, 264680, Note_off_c, 7, 67, 127
1, 264680, Note_off_c, 10, 45, 127
1, 264681, Note_on_c, 10, 57, 127
1, 264681, Note_on_c, 10, 69, 127
1, 264681, Note_on_c, 1, 73, 127
1, 264929, Note_off_c, 1, 73, 127
1, 264929, Note_off_c, 10, 69, 127
1, 264929, Note_off_c, 10, 57, 127
1, 264930, Note_on_c, 12, 59, 127
1, 264930, Note_on_c, 2, 62, 127
1, 264930, Note_on_c, 2, 74, 127
1, 265047, Note_off_c, 2, 74, 127
1, 265053, Note_off_c, 2, 62, 127
1, 265055, Note_on_c, 2, 74, 127
1, 265178, Note_off_c, 2, 74, 127
1, 265178, Note_off_c, 12, 59, 127
1, 265180, Note_on_c, 12, 47, 127
1, 265180, Note_on_c, 1, 73, 127
1, 265303, Note_off_c, 1, 73, 127
1, 265304, Note_on_c, 12, 71, 127
1, 265427, Note_off_c, 12, 71, 127
1, 265428, Note_off_c, 12, 47, 127
1, 265429, Note_on_c, 1, 49, 127
1, 265429, Note_on_c, 10, 69, 127
1, 265552, Note_off_c, 10, 69, 127
1, 265554, Note_on_c, 7, 67, 127
1, 265677, Note_off_c, 7, 67, 127
1, 265677, Note_off_c, 1, 49, 127
1, 265678, Note_on_c, 2, 50, 127
1, 265678, Note_on_c, 6, 66, 127
1, 265801, Note_off_c, 6, 66, 127
1, 265801, Note_off_c, 2, 50, 127
1, 265803, Note_on_c, 2, 62, 127
1, 265803, Note_on_c, 12, 71, 127
1, 265926, Note_off_c, 12, 71, 127
1, 265926, Note_off_c, 2, 62, 127
1, 265928, Note_on_c, 1, 61, 127
1, 265928, Note_on_c, 10, 69, 127
1, 266051, Note_off_c, 10, 69, 127
1, 266051, Note_off_c, 1, 61, 127
1, 266052, Note_on_c, 12, 59, 127
1, 266052, Note_on_c, 7, 67, 127
1, 266175, Note_off_c, 7, 67, 127
1, 266175, Note_off_c, 12, 59, 127
1, 266177, Note_on_c, 10, 57, 127
1, 266177, Note_on_c, 6, 66, 127
1, 266300, Note_off_c, 6, 66, 127
1, 266300, Note_off_c, 10, 57, 127
1, 266301, Note_on_c, 7, 55, 127
1, 266301, Note_on_c, 4, 64, 127
1, 266424, Note_off_c, 4, 64, 127
1, 266424, Note_off_c, 7, 55, 127
1, 266426, Note_on_c, 6, 54, 127
1, 266426, Note_on_c, 2, 62, 127
1, 266551, Note_on_c, 4, 76, 127
1, 266674, Note_off_c, 4, 76, 127
1, 266674, Note_off_c, 6, 54, 127
1, 266675, Note_on_c, 2, 50, 127
1, 266675, Note_on_c, 2, 74, 127
1, 266798, Note_off_c, 2, 74, 127
1, 266800, Note_on_c, 0, 72, 127
1, 266923, Note_off_c, 0, 72, 127
1, 266923, Note_off_c, 2, 50, 127
1, 266923, Note_off_c, 2, 62, 127
1, 266925, Note_on_c, 7, 55, 127
1, 266925, Note_on_c, 2, 62, 127
1, 266925, Note_on_c, 12, 71, 127
1, 267048, Note_off_c, 12, 71, 127
1, 267049, Note_on_c, 10, 69, 127
1, 267172, Note_off_c, 10, 69, 127
1, 267173, Note_off_c, 2, 62, 127
1, 267173, Note_off_c, 7, 55, 127
1, 267174, Note_on_c, 0, 60, 127
1, 267174, Note_on_c, 4, 64, 127
1, 267174, Note_on_c, 7, 67, 127
1, 267291, Note_off_c, 0, 60, 127
1, 267297, Note_off_c, 4, 64, 127
1, 267298, Note_on_c, 0, 60, 127
1, 267422, Note_off_c, 7, 67, 127
1, 267423, Note_on_c, 4, 64, 127
1, 267423, Note_on_c, 0, 72, 127
1, 267546, Note_off_c, 0, 72, 127
1, 267546, Note_off_c, 4, 64, 127
1, 267548, Note_on_c, 7, 67, 127
1, 267548, Note_on_c, 2, 74, 127
1, 267671, Note_off_c, 2, 74, 127
1, 267671, Note_off_c, 7, 67, 127
1, 267672, Note_on_c, 0, 72, 127
1, 267672, Note_on_c, 4, 76, 127
1, 267791, Note_off_c, 0, 60, 127
1, 267795, Note_off_c, 0, 72, 127
1, 267797, Note_on_c, 4, 64, 127
1, 267920, Note_off_c, 4, 64, 127
1, 267920, Note_off_c, 4, 76, 127
1, 267922, Note_on_c, 6, 66, 127
1, 267922, Note_on_c, 10, 69, 127
1, 268046, Note_on_c, 0, 60, 127
1, 268169, Note_off_c, 0, 60, 127
1, 268170, Note_off_c, 10, 69, 127
1, 268170, Note_off_c, 6, 66, 127
1, 268171, Note_on_c, 12, 59, 127
1, 268171, Note_on_c, 2, 62, 127
1, 268171, Note_on_c, 12, 71, 127
1, 268294, Note_off_c, 12, 71, 127
1, 268294, Note_off_c, 12, 59, 127
1, 268295, Note_on_c, 10, 57, 127
1, 268295, Note_on_c, 0, 72, 127
1, 268418, Note_off_c, 0, 72, 127
1, 268418, Note_off_c, 10, 57, 127
1, 268419, Note_off_c, 2, 62, 127
1, 268420, Note_on_c, 12, 59, 127
1, 268420, Note_on_c, 7, 67, 127
1, 268420, Note_on_c, 2, 74, 127
1, 268543, Note_off_c, 12, 59, 127
1, 268545, Note_on_c, 7, 55, 127
1, 268668, Note_off_c, 7, 55, 127
1, 268668, Note_off_c, 2, 74, 127
1, 268669, Note_on_c, 10, 57, 127
1, 268669, Note_on_c, 0, 72, 127
1, 268792, Note_off_c, 10, 57, 127
1, 268794, Note_on_c, 2, 50, 127
1, 268917, Note_off_c, 2, 50, 127
1, 268917, Note_off_c, 0, 72, 127
1, 268919, Note_on_c, 6, 54, 127
1, 268919, Note_on_c, 10, 69, 127
1, 269042, Note_off_c, 10, 69, 127
1, 269042, Note_off_c, 6, 54, 127
1, 269043, Note_on_c, 10, 57, 127
1, 269043, Note_on_c, 12, 71, 127
1, 269166, Note_off_c, 12, 71, 127
1, 269166, Note_off_c, 10, 57, 127
1, 269166, Note_off_c, 7, 67, 127
1, 269168, Note_on_c, 2, 62, 127
1, 269168, Note_on_c, 6, 66, 127
1, 269168, Note_on_c, 0, 72, 127
1, 269291, Note_off_c, 2, 62, 127
1, 269293, Note_on_c, 2, 50, 127
1, 269416, Note_off_c, 2, 50, 127
1, 269416, Note_off_c, 0, 72, 127
1, 269416, Note_off_c, 6, 66, 127
1, 269417, Note_on_c, 7, 55, 127
1, 269417, Note_on_c, 7, 67, 127
1, 269417, Note_on_c, 12, 71, 127
1, 269534, Note_off_c, 7, 67, 127
1, 269540, Note_off_c, 12, 71, 127
1, 269542, Note_on_c, 7, 67, 127
1, 269666, Note_on_c, 12, 71, 127
1, 269789, Note_off_c, 12, 71, 127
1, 269791, Note_on_c, 2, 74, 127
1, 269905, Note_off_c, 7, 67, 127
1, 269910, Note_off_c, 7, 55, 127
1, 269914, Note_off_c, 2, 74, 127
1, 269916, Note_on_c, 7, 79, 127
1, 270039, Note_off_c, 7, 79, 127
1, 270040, Note_on_c, 2, 74, 127
1, 270163, Note_off_c, 2, 74, 127
1, 270165, Note_on_c, 8, 56, 127
1, 270165, Note_on_c, 12, 59, 127
1, 270165, Note_on_c, 4, 76, 127
1, 270288, Note_off_c, 4, 76, 127
1, 270290, Note_on_c, 4, 64, 127
1, 270413, Note_off_c, 4, 64, 127
1, 270414, Note_on_c, 8, 68, 127
1, 270537, Note_off_c, 8, 68, 127
1, 270539, Note_on_c, 12, 71, 127
1, 270658, Note_off_c, 12, 59, 127
1, 270658, Note_off_c, 8, 56, 127
1, 270662, Note_off_c, 12, 71, 127
1, 270663, Note_on_c, 4, 76, 127
1, 270786, Note_off_c, 4, 76, 127
1, 270788, Note_on_c, 12, 71, 127
1, 270911, Note_off_c, 12, 71, 127
1, 270913, Note_on_c, 10, 57, 127
1, 270913, Note_on_c, 4, 64, 127
1, 270913, Note_on_c, 0, 72, 127
1, 271036, Note_off_c, 0, 72, 127
1, 271037, Note_on_c, 10, 69, 127
1, 271160, Note_off_c, 10, 69, 127
1, 271162, Note_on_c, 0, 72, 127
1, 271285, Note_off_c, 0, 72, 127
1, 271285, Note_off_c, 10, 57, 127
1, 271287, Note_on_c, 12, 59, 127
1, 271287, Note_on_c, 4, 76, 127
1, 271410, Note_off_c, 4, 76, 127
1, 271410, Note_off_c, 12, 59, 127
1, 271410, Note_off_c, 4, 64, 127
1, 271411, Note_on_c, 0, 60, 127
1, 271411, Note_on_c, 4, 64, 127
1, 271411, Note_on_c, 10, 81, 127
1, 271534, Note_off_c, 10, 81, 127
1, 271536, Note_on_c, 4, 76, 127
1, 271659, Note_off_c, 4, 76, 127
1, 271659, Note_off_c, 4, 64, 127
1, 271659, Note_off_c, 0, 60, 127
1, 271661, Note_on_c, 2, 62, 127
1, 271661, Note_on_c, 5, 77, 127
1, 271785, Note_on_c, 4, 64, 127
1, 271908, Note_off_c, 4, 64, 127
1, 271909, Note_off_c, 5, 77, 127
1, 271909, Note_off_c, 2, 62, 127
1, 271910, Note_on_c, 2, 62, 127
1, 271910, Note_on_c, 5, 65, 127
1, 271910, Note_on_c, 10, 69, 127
1, 272033, Note_off_c, 2, 62, 127
1, 272034, Note_on_c, 0, 60, 127
1, 272157, Note_off_c, 0, 60, 127
1, 272158, Note_off_c, 10, 69, 127
1, 272159, Note_on_c, 12, 59, 127
1, 272159, Note_on_c, 2, 74, 127
1, 272282, Note_off_c, 12, 59, 127
1, 272284, Note_on_c, 10, 57, 127
1, 272407, Note_off_c, 10, 57, 127
1, 272407, Note_off_c, 5, 65, 127
1, 272408, Note_on_c, 8, 56, 127
1, 272408, Note_on_c, 4, 64, 127
1, 272531, Note_off_c, 2, 74, 127
1, 272533, Note_on_c, 5, 77, 127
1, 272656, Note_off_c, 5, 77, 127
1, 272656, Note_off_c, 4, 64, 127
1, 272656, Note_off_c, 8, 56, 127
1, 272658, Note_on_c, 4, 52, 127
1, 272658, Note_on_c, 8, 68, 127
1, 272658, Note_on_c, 4, 76, 127
1, 272781, Note_off_c, 4, 76, 127
1, 272782, Note_on_c, 2, 74, 127
1, 272905, Note_off_c, 2, 74, 127
1, 272906, Note_off_c, 8, 68, 127
1, 272906, Note_off_c, 4, 52, 127
1, 272907, Note_on_c, 10, 57, 127
1, 272907, Note_on_c, 10, 69, 127
1, 272907, Note_on_c, 0, 72, 127
1, 273030, Note_off_c, 0, 72, 127
1, 273031, Note_on_c, 4, 76, 127
1, 273154, Note_off_c, 4, 76, 127
1, 273155, Note_off_c, 10, 57, 127
1, 273156, Note_on_c, 2, 62, 127
1, 273156, Note_on_c, 2, 74, 127
1, 273279, Note_off_c, 2, 74, 127
1, 273281, Note_on_c, 0, 72, 127
1, 273404, Note_off_c, 0, 72, 127
1, 273404, Note_off_c, 2, 62, 127
1, 273405, Note_on_c, 4, 64, 127
1, 273405, Note_on_c, 12, 71, 127
1, 273653, Note_off_c, 4, 64, 127
1, 273653, Note_off_c, 10, 69, 127
1, 273655, Note_on_c, 4, 52, 127
1, 273655, Note_on_c, 8, 68, 127
1, 273777, Note_off_c, 12, 71, 127
1, 273779, Note_on_c, 10, 69, 127
1, 273902, Note_off_c, 10, 69, 127
1, 273902, Note_off_c, 8, 68, 127
1, 273903, Note_off_c, 4, 52, 127
1, 273904, Note_on_c, 0, 48, 127
1, 273904, Note_on_c, 10, 69, 127
1, 274021, Note_off_c, 10, 69, 127
1, 274030, Note_on_c, 10, 69, 127
1, 274153, Note_off_c, 10, 69, 127
1, 274154, Note_on_c, 7, 67, 127
1, 274277, Note_off_c, 7, 67, 127
1, 274277, Note_off_c, 0, 48, 127
1, 274279, Note_on_c, 2, 50, 127
1, 274279, Note_on_c, 5, 65, 127
1, 274402, Note_off_c, 5, 65, 127
1, 274402, Note_off_c, 2, 50, 127
1, 274403, Note_on_c, 4, 52, 127
1, 274403, Note_on_c, 4, 64, 127
1, 274526, Note_off_c, 4, 64, 127
1, 274528, Note_on_c, 2, 62, 127
1, 274651, Note_off_c, 2, 62, 127
1, 274651, Note_off_c, 4, 52, 127
1, 274653, Note_on_c, 10, 45, 127
1, 274653, Note_on_c, 0, 60, 127
1, 274776, Note_off_c, 10, 45, 127
1, 274777, Note_on_c, 10, 57, 127
1, 274900, Note_off_c, 10, 57, 127
1, 274902, Note_on_c, 7, 55, 127
1, 275025, Note_off_c, 7, 55, 127
1, 275025, Note_off_c, 0, 60, 127
1, 275027, Note_on_c, 5, 53, 127
1, 275027, Note_on_c, 2, 62, 127
1, 275150, Note_off_c, 2, 62, 127
1, 275150, Note_off_c, 5, 53, 127
1, 275151, Note_on_c, 4, 52, 127
1, 275151, Note_on_c, 4, 64, 127
1, 275274, Note_off_c, 4, 52, 127
1, 275276, Note_on_c, 2, 50, 127
1, 275399, Note_off_c, 2, 50, 127
1, 275399, Note_off_c, 4, 64, 127
1, 275400, Note_on_c, 0, 48, 127
1, 275400, Note_on_c, 10, 57, 127
1, 275523, Note_off_c, 0, 48, 127
1, 275525, Note_on_c, 5, 53, 127
1, 275525, Note_on_c, 10, 81, 127
1, 275647, Note_off_c, 10, 57, 127
1, 275648, Note_off_c, 10, 81, 127
1, 275648, Note_off_c, 5, 53, 127
1, 275650, Note_on_c, 4, 52, 127
1, 275650, Note_on_c, 7, 79, 127
1, 275773, Note_off_c, 7, 79, 127
1, 275773, Note_off_c, 4, 52, 127
1, 275774, Note_on_c, 2, 50, 127
1, 275774, Note_on_c, 5, 77, 127
1, 275897, Note_off_c, 5, 77, 127
1, 275897, Note_off_c, 2, 50, 127
1, 275899, Note_on_c, 0, 48, 127
1, 275899, Note_on_c, 4, 76, 127
1, 276022, Note_off_c, 4, 76, 127
1, 276022, Note_off_c, 0, 48, 127
1, 276024, Note_on_c, 12, 47, 127
1, 276024, Note_on_c, 2, 74, 127
1, 276147, Note_off_c, 2, 74, 127
1, 276147, Note_off_c, 12, 47, 127
1, 276148, Note_on_c, 10, 45, 127
1, 276148, Note_on_c, 0, 72, 127
1, 276271, Note_off_c, 0, 72, 127
1, 276273, Note_on_c, 5, 77, 127
1, 276396, Note_off_c, 5, 77, 127
1, 276397, Note_on_c, 4, 76, 127
1, 276520, Note_off_c, 4, 76, 127
1, 276522, Note_on_c, 2, 74, 127
1, 276645, Note_off_c, 2, 74, 127
1, 276645, Note_off_c, 10, 45, 127
1, 276647, Note_on_c, 12, 47, 127
1, 276647, Note_on_c, 0, 72, 127
1, 276770, Note_off_c, 0, 72, 127
1, 276771, Note_on_c, 12, 71, 127
1, 276894, Note_off_c, 12, 71, 127
1, 276895, Note_off_c, 12, 47, 127
1, 276896, Note_on_c, 0, 48, 127
1, 276896, Note_on_c, 10, 69, 127
1, 277019, Note_off_c, 0, 48, 127
1, 277021, Note_on_c, 10, 45, 127
1, 277144, Note_off_c, 10, 45, 127
1, 277145, Note_on_c, 0, 48, 127
1, 277268, Note_off_c, 0, 48, 127
1, 277270, Note_on_c, 4, 52, 127
1, 277393, Note_off_c, 4, 52, 127
1, 277393, Note_off_c, 10, 69, 127
1, 277395, Note_on_c, 10, 57, 127
1, 277395, Note_on_c, 7, 67, 127
1, 277518, Note_off_c, 10, 57, 127
1, 277519, Note_on_c, 1, 49, 127
1, 277642, Note_off_c, 1, 49, 127
1, 277643, Note_off_c, 7, 67, 127
1, 277644, Note_on_c, 3, 51, 127
1, 277644, Note_on_c, 6, 66, 127
1, 277767, Note_off_c, 6, 66, 127
1, 277768, Note_on_c, 12, 71, 127
1, 277891, Note_off_c, 12, 71, 127
1, 277892, Note_off_c, 3, 51, 127
1, 277893, Note_on_c, 12, 47, 127
1, 277893, Note_on_c, 10, 69, 127
1, 278016, Note_off_c, 10, 69, 127
1, 278018, Note_on_c, 7, 67, 127
1, 278141, Note_off_c, 7, 67, 127
1, 278141, Note_off_c, 12, 47, 127
1, 278142, Note_on_c, 4, 52, 127
1, 278142, Note_on_c, 6, 66, 127
1, 278265, Note_off_c, 6, 66, 127
1, 278267, Note_on_c, 4, 64, 127
1, 278390, Note_off_c, 4, 64, 127
1, 278392, Note_on_c, 6, 66, 127
1, 278515, Note_off_c, 6, 66, 127
1, 278516, Note_on_c, 12, 59, 127
1, 278639, Note_off_c, 12, 59, 127
1, 278641, Note_on_c, 6, 66, 127
1, 278764, Note_off_c, 6, 66, 127
1, 278764, Note_off_c, 4, 52, 127
1, 278765, Note_on_c, 6, 54, 127
1, 278765, Note_on_c, 10, 69, 127
1, 278888, Note_off_c, 10, 69, 127
1, 278888, Note_off_c, 6, 54, 127
1, 278890, Note_on_c, 2, 50, 127
1, 278890, Note_on_c, 12, 71, 127
1, 279013, Note_off_c, 12, 71, 127
1, 279015, Note_on_c, 6, 66, 127
1, 279138, Note_off_c, 6, 66, 127
1, 279139, Note_on_c, 8, 68, 127
1, 279262, Note_off_c, 2, 50, 127
1, 279264, Note_on_c, 4, 52, 127
1, 279387, Note_off_c, 4, 52, 127
1, 279387, Note_off_c, 8, 68, 127
1, 279389, Note_on_c, 2, 50, 127
1, 279389, Note_on_c, 4, 64, 127
1, 279512, Note_off_c, 2, 50, 127
1, 279513, Note_on_c, 0, 48, 127
1, 279636, Note_off_c, 0, 48, 127
1, 279637, Note_off_c, 4, 64, 127
1, 279638, Note_on_c, 12, 47, 127
1, 279638, Note_on_c, 10, 69, 127
1, 279761, Note_off_c, 12, 47, 127
1, 279762, Note_on_c, 10, 45, 127
1, 279885, Note_off_c, 10, 45, 127
1, 279887, Note_on_c, 4, 52, 127
1, 279887, Note_on_c, 12, 71, 127
1, 280010, Note_off_c, 12, 71, 127
1, 280012, Note_on_c, 4, 64, 127
1, 280135, Note_off_c, 4, 64, 127
1, 280135, Note_off_c, 4, 52, 127
1, 280136, Note_on_c, 4, 40, 127
1, 280136, Note_on_c, 12, 71, 127
1, 280259, Note_off_c, 12, 71, 127
1, 280261, Note_on_c, 2, 74, 127
1, 280384, Note_off_c, 2, 74, 127
1, 280384, Note_off_c, 4, 40, 127
1, 280384, Note_off_c, 10, 69, 127
1, 280386, Note_on_c, 4, 40, 127
1, 280386, Note_on_c, 8, 68, 127
1, 280386, Note_on_c, 4, 76, 127
1, 280509, Note_off_c, 4, 76, 127
1, 280510, Note_on_c, 12, 71, 127
1, 280633, Note_off_c, 12, 71, 127
1, 280634, Note_off_c, 8, 68, 127
1, 280634, Note_off_c, 4, 40, 127
1, 280635, Note_on_c, 10, 45, 127
1, 280635, Note_on_c, 10, 69, 127
1, 280635, Note_on_c, 0, 72, 127
1, 280758, Note_off_c, 10, 45, 127
1, 280760, Note_on_c, 10, 57, 127
1, 280882, Note_off_c, 10, 69, 127
1, 280883, Note_off_c, 10, 57, 127
1, 280883, Note_off_c, 0, 72, 127
1, 280884, Note_on_c, 0, 60, 127
1, 280884, Note_on_c, 10, 69, 127
1, 281007, Note_off_c, 0, 60, 127
1, 281009, Note_on_c, 12, 59, 127
1, 281132, Note_off_c, 12, 59, 127
1, 281132, Note_off_c, 10, 69, 127
1, 281133, Note_on_c, 10, 57, 127
1, 281133, Note_on_c, 0, 72, 127
1, 281256, Note_off_c, 10, 57, 127
1, 281258, Note_on_c, 7, 55, 127
1, 281381, Note_off_c, 7, 55, 127
1, 281381, Note_off_c, 0, 72, 127
1, 281383, Note_on_c, 5, 53, 127
1, 281383, Note_on_c, 2, 74, 127
1, 281506, Note_off_c, 2, 74, 127
1, 281506, Note_off_c, 5, 53, 127
1, 281507, Note_on_c, 10, 57, 127
1, 281507, Note_on_c, 7, 67, 127
1, 281630, Note_off_c, 7, 67, 127
1, 281630, Note_off_c, 10, 57, 127
1, 281632, Note_on_c, 7, 55, 127
1, 281632, Note_on_c, 12, 71, 127
1, 281755, Note_off_c, 12, 71, 127
1, 281755, Note_off_c, 7, 55, 127
1, 281757, Note_on_c, 5, 53, 127
1, 281757, Note_on_c, 2, 74, 127
1, 281880, Note_off_c, 2, 74, 127
1, 281880, Note_off_c, 5, 53, 127
1, 281881, Note_on_c, 4, 52, 127
1, 281881, Note_on_c, 7, 79, 127
1, 282004, Note_off_c, 7, 79, 127
1, 282004, Note_off_c, 4, 52, 127
1, 282006, Note_on_c, 2, 50, 127
1, 282006, Note_on_c, 2, 74, 127
1, 282129, Note_off_c, 2, 74, 127
1, 282129, Note_off_c, 2, 50, 127
1, 282130, Note_on_c, 0, 48, 127
1, 282130, Note_on_c, 4, 76, 127
1, 282253, Note_off_c, 4, 76, 127
1, 282253, Note_off_c, 0, 48, 127
1, 282255, Note_on_c, 2, 50, 127
1, 282255, Note_on_c, 0, 72, 127
1, 282378, Note_off_c, 0, 72, 127
1, 282378, Note_off_c, 2, 50, 127
1, 282380, Note_on_c, 0, 48, 127
1, 282380, Note_on_c, 4, 76, 127
1, 282503, Note_off_c, 4, 76, 127
1, 282503, Note_off_c, 0, 48, 127
1, 282504, Note_on_c, 12, 47, 127
1, 282504, Note_on_c, 7, 79, 127
1, 282627, Note_off_c, 7, 79, 127
1, 282627, Note_off_c, 12, 47, 127
1, 282629, Note_on_c, 10, 45, 127
1, 282629, Note_on_c, 0, 84, 127
1, 282752, Note_off_c, 0, 84, 127
1, 282752, Note_off_c, 10, 45, 127
1, 282754, Note_on_c, 7, 43, 127
1, 282754, Note_on_c, 7, 79, 127
1, 282877, Note_off_c, 7, 79, 127
1, 282877, Note_off_c, 7, 43, 127
1, 282878, Note_on_c, 5, 41, 127
1, 282878, Note_on_c, 10, 81, 127
1, 283001, Note_off_c, 10, 81, 127
1, 283001, Note_off_c, 5, 41, 127
1, 283003, Note_on_c, 7, 43, 127
1, 283003, Note_on_c, 12, 83, 127
1, 283126, Note_off_c, 12, 83, 127
1, 283126, Note_off_c, 7, 43, 127
1, 283127, Note_on_c, 5, 41, 127
1, 283127, Note_on_c, 10, 81, 127
1, 283250, Note_off_c, 10, 81, 127
1, 283250, Note_off_c, 5, 41, 127
1, 283252, Note_on_c, 4, 40, 127
1, 283252, Note_on_c, 7, 79, 127
1, 283375, Note_off_c, 7, 79, 127
1, 283375, Note_off_c, 4, 40, 127
1, 283377, Note_on_c, 2, 38, 127
1, 283377, Note_on_c, 5, 77, 127
1, 283500, Note_off_c, 5, 77, 127
1, 283500, Note_off_c, 2, 38, 127
1, 283501, Note_on_c, 0, 36, 127
1, 283501, Note_on_c, 4, 76, 127
1, 283624, Note_off_c, 4, 76, 127
1, 283624, Note_off_c, 0, 36, 127
1, 283626, Note_on_c, 7, 43, 127
1, 283626, Note_on_c, 2, 74, 127
1, 283749, Note_off_c, 7, 43, 127
1, 283751, Note_on_c, 10, 45, 127
1, 283874, Note_off_c, 10, 45, 127
1, 283874, Note_off_c, 2, 74, 127
1, 283875, Note_on_c, 7, 43, 127
1, 283875, Note_on_c, 7, 67, 127
1, 283998, Note_off_c, 7, 43, 127
1, 284000, Note_on_c, 5, 41, 127
1, 284123, Note_off_c, 5, 41, 127
1, 284123, Note_off_c, 7, 67, 127
1, 284125, Note_on_c, 4, 40, 127
1, 284125, Note_on_c, 7, 79, 127
1, 284248, Note_off_c, 4, 40, 127
1, 284249, Note_on_c, 2, 38, 127
1, 284372, Note_off_c, 2, 38, 127
1, 284373, Note_off_c, 7, 79, 127
1, 284374, Note_on_c, 0, 36, 127
1, 284374, Note_on_c, 4, 76, 127
1, 284621, Note_off_c, 0, 36, 127
1, 284747, Note_off_c, 4, 76, 127
1, 284749, Note_on_c, 5, 77, 127
1, 284872, Note_off_c, 5, 77, 127
1, 284873, Note_on_c, 7, 67, 127
1, 284873, Note_on_c, 7, 79, 127
1, 285121, Note_off_c, 7, 79, 127
1, 285121, Note_off_c, 7, 67, 127
1, 285123, Note_on_c, 4, 64, 127
1, 285123, Note_on_c, 0, 72, 127
1, 285496, Note_off_c, 4, 64, 127
1, 285498, Note_on_c, 5, 65, 127
1, 285621, Note_off_c, 5, 65, 127
1, 285621, Note_off_c, 0, 72, 127
1, 285622, Note_on_c, 7, 55, 127
1, 285622, Note_on_c, 7, 67, 127
1, 285622, Note_on_c, 12, 71, 127
1, 285870, Note_off_c, 12, 71, 127
1, 285870, Note_off_c, 7, 67, 127
1, 285870, Note_off_c, 7, 55, 127
1, 285871, Note_on_c, 4, 52, 127
1, 285871, Note_on_c, 0, 60, 127
1, 285871, Note_on_c, 0, 72, 127
1, 286119, Note_off_c, 0, 72, 127
1, 286119, Note_off_c, 0, 60, 127
1, 286121, Note_on_c, 0, 72, 127
1, 286121, Note_on_c, 4, 76, 127
1, 286243, Note_off_c, 4, 52, 127
1, 286245, Note_on_c, 5, 53, 127
1, 286368, Note_off_c, 5, 53, 127
1, 286369, Note_off_c, 4, 76, 127
1, 286369, Note_off_c, 0, 72, 127
1, 286370, Note_on_c, 7, 55, 127
1, 286370, Note_on_c, 12, 71, 127
1, 286370, Note_on_c, 2, 74, 127
1, 286618, Note_off_c, 2, 74, 127
1, 286618, Note_off_c, 12, 71, 127
1, 286618, Note_off_c, 7, 55, 127
1, 286619, Note_on_c, 0, 48, 127
1, 286619, Note_on_c, 0, 72, 127
1, 286619, Note_on_c, 4, 76, 127
1, 286742, Note_off_c, 4, 76, 127
1, 286744, Note_on_c, 0, 84, 127
1, 286866, Note_off_c, 0, 72, 127
1, 286866, Note_off_c, 0, 48, 127
1, 286867, Note_off_c, 0, 84, 127
1, 286868, Note_on_c, 12, 83, 127
1, 286991, Note_off_c, 12, 83, 127
1, 286993, Note_on_c, 10, 81, 127
1, 287116, Note_off_c, 10, 81, 127
1, 287118, Note_on_c, 7, 79, 127
1, 287241, Note_off_c, 7, 79, 127
1, 287242, Note_on_c, 5, 77, 127
1, 287365, Note_off_c, 5, 77, 127
1, 287367, Note_on_c, 4, 76, 127
1, 287490, Note_off_c, 4, 76, 127
1, 287492, Note_on_c, 0, 72, 127
1, 287492, Note_on_c, 10, 81, 127
1, 287615, Note_off_c, 10, 81, 127
1, 287615, Note_off_c, 0, 72, 127
1, 287616, Note_on_c, 12, 71, 127
1, 287616, Note_on_c, 7, 79, 127
1, 287739, Note_off_c, 7, 79, 127
1, 287739, Note_off_c, 12, 71, 127
1, 287741, Note_on_c, 10, 69, 127
1, 287741, Note_on_c, 5, 77, 127
1, 287864, Note_off_c, 5, 77, 127
1, 287864, Note_off_c, 10, 69, 127
1, 287865, Note_on_c, 7, 67, 127
1, 287865, Note_on_c, 4, 76, 127
1, 287988, Note_off_c, 4, 76, 127
1, 287988, Note_off_c, 7, 67, 127
1, 287990, Note_on_c, 5, 65, 127
1, 287990, Note_on_c, 2, 74, 127
1, 288113, Note_off_c, 2, 74, 127
1, 288113, Note_off_c, 5, 65, 127
1, 288115, Note_on_c, 4, 64, 127
1, 288115, Note_on_c, 0, 72, 127
1, 288238, Note_off_c, 4, 64, 127
1, 288239, Note_on_c, 0, 60, 127
1, 288239, Note_on_c, 10, 69, 127
1, 288362, Note_off_c, 10, 69, 127
1, 288362, Note_off_c, 0, 60, 127
1, 288362, Note_off_c, 0, 72, 127
1, 288364, Note_on_c, 12, 59, 127
1, 288364, Note_on_c, 7, 67, 127
1, 288487, Note_off_c, 7, 67, 127
1, 288487, Note_off_c, 12, 59, 127
1, 288489, Note_on_c, 10, 57, 127
1, 288489, Note_on_c, 5, 65, 127
1, 288612, Note_off_c, 5, 65, 127
1, 288612, Note_off_c, 10, 57, 127
1, 288613, Note_on_c, 7, 55, 127
1, 288613, Note_on_c, 4, 64, 127
1, 288736, Note_off_c, 4, 64, 127
1, 288736, Note_off_c, 7, 55, 127
1, 288738, Note_on_c, 5, 53, 127
1, 288738, Note_on_c, 2, 62, 127
1, 288861, Note_off_c, 2, 62, 127
1, 288861, Note_off_c, 5, 53, 127
1, 288863, Note_on_c, 4, 52, 127
1, 288863, Note_on_c, 0, 60, 127
1, 288986, Note_off_c, 4, 52, 127
1, 288987, Note_on_c, 10, 57, 127
1, 289110, Note_off_c, 10, 57, 127
1, 289112, Note_on_c, 7, 55, 127
1, 289235, Note_off_c, 7, 55, 127
1, 289236, Note_on_c, 5, 53, 127
1, 289359, Note_off_c, 5, 53, 127
1, 289360, Note_off_c, 0, 60, 127
1, 289361, Note_on_c, 4, 52, 127
1, 289361, Note_on_c, 2, 62, 127
1, 289361, Note_on_c, 12, 71, 127
1, 289484, Note_off_c, 4, 52, 127
1, 289486, Note_on_c, 2, 50, 127
1, 289609, Note_off_c, 2, 50, 127
1, 289609, Note_off_c, 12, 71, 127
1, 289609, Note_off_c, 2, 62, 127
1, 289610, Note_on_c, 0, 48, 127
1, 289610, Note_on_c, 4, 64, 127
1, 289610, Note_on_c, 0, 72, 127
1, 289733, Note_off_c, 4, 64, 127
1, 289735, Note_on_c, 0, 60, 127
1, 289858, Note_off_c, 0, 60, 127
1, 289860, Note_on_c, 4, 64, 127
1, 289983, Note_off_c, 4, 64, 127
1, 289984, Note_on_c, 7, 67, 127
1, 290107, Note_off_c, 7, 67, 127
1, 290107, Note_off_c, 0, 72, 127
1, 290107, Note_off_c, 0, 48, 127
1, 290109, Note_on_c, 10, 45, 127
1, 290109, Note_on_c, 0, 72, 127
1, 290233, Note_on_c, 4, 64, 127
1, 290356, Note_off_c, 4, 64, 127
1, 290357, Note_off_c, 0, 72, 127
1, 290357, Note_off_c, 10, 45, 127
1, 290358, Note_on_c, 2, 50, 127
1, 290358, Note_on_c, 6, 66, 127
1, 290358, Note_on_c, 10, 69, 127
1, 290481, Note_off_c, 2, 50, 127
1, 290483, Note_on_c, 0, 48, 127
1, 290606, Note_off_c, 0, 48, 127
1, 290606, Note_off_c, 10, 69, 127
1, 290606, Note_off_c, 6, 66, 127
1, 290607, Note_on_c, 12, 47, 127
1, 290607, Note_on_c, 2, 62, 127
1, 290607, Note_on_c, 2, 74, 127
1, 290730, Note_off_c, 12, 47, 127
1, 290732, Note_on_c, 10, 45, 127
1, 290855, Note_off_c, 10, 45, 127
1, 290855, Note_off_c, 2, 74, 127
1, 290855, Note_off_c, 2, 62, 127
1, 290857, Note_on_c, 12, 47, 127
1, 290857, Note_on_c, 7, 67, 127
1, 290857, Note_on_c, 12, 71, 127
1, 290980, Note_off_c, 12, 47, 127
1, 290981, Note_on_c, 7, 43, 127
1, 291104, Note_off_c, 7, 43, 127
1, 291105, Note_off_c, 12, 71, 127
1, 291105, Note_off_c, 7, 67, 127
1, 291106, Note_on_c, 0, 48, 127
1, 291106, Note_on_c, 7, 67, 127
1, 291106, Note_on_c, 10, 69, 127
1, 291229, Note_off_c, 0, 48, 127
1, 291231, Note_on_c, 10, 45, 127
1, 291354, Note_off_c, 10, 45, 127
1, 291354, Note_off_c, 7, 67, 127
1, 291355, Note_on_c, 2, 50, 127
1, 291355, Note_on_c, 6, 66, 127
1, 291603, Note_off_c, 2, 50, 127
1, 291603, Note_off_c, 10, 69, 127
1, 291604, Note_on_c, 2, 38, 127
1, 291604, Note_on_c, 2, 74, 127
1, 291852, Note_off_c, 2, 74, 127
1, 291852, Note_off_c, 2, 38, 127
1, 291852, Note_off_c, 6, 66, 127
1, 291854, Note_on_c, 7, 43, 127
1, 291854, Note_on_c, 7, 67, 127
1, 291854, Note_on_c, 12, 71, 127
1, 292227, Note_off_c, 12, 71, 127
1, 292229, Note_on_c, 0, 72, 127
1, 292348, Note_off_c, 7, 43, 127
1, 292352, Note_off_c, 0, 72, 127
1, 292352, Note_off_c, 7, 67, 127
1, 292353, Note_on_c, 2, 62, 127
1, 292353, Note_on_c, 2, 74, 127
1, 292601, Note_off_c, 2, 74, 127
1, 292601, Note_off_c, 2, 62, 127
1, 292602, Note_on_c, 12, 59, 127
1, 292602, Note_on_c, 7, 67, 127
1, 292725, Note_off_c, 7, 67, 127
1, 292727, Note_on_c, 7, 79, 127
1, 292850, Note_off_c, 7, 79, 127
1, 292852, Note_on_c, 6, 78, 127
1, 292974, Note_off_c, 12, 59, 127
1, 292975, Note_off_c, 6, 78, 127
1, 292976, Note_on_c, 0, 60, 127
1, 292976, Note_on_c, 4, 76, 127
1, 293099, Note_off_c, 4, 76, 127
1, 293099, Note_off_c, 0, 60, 127
1, 293101, Note_on_c, 2, 62, 127
1, 293101, Note_on_c, 2, 74, 127
1, 293224, Note_off_c, 2, 74, 127
1, 293226, Note_on_c, 0, 72, 127
1, 293349, Note_off_c, 0, 72, 127
1, 293349, Note_off_c, 2, 62, 127
1, 293350, Note_on_c, 7, 55, 127
1, 293350, Note_on_c, 12, 71, 127
1, 293473, Note_off_c, 12, 71, 127
1, 293473, Note_off_c, 7, 55, 127
1, 293475, Note_on_c, 7, 67, 127
1, 293475, Note_on_c, 4, 76, 127
1, 293598, Note_off_c, 4, 76, 127
1, 293598, Note_off_c, 7, 67, 127
1, 293600, Note_on_c, 6, 66, 127
1, 293600, Note_on_c, 2, 74, 127
1, 293723, Note_off_c, 2, 74, 127
1, 293723, Note_off_c, 6, 66, 127
1, 293724, Note_on_c, 4, 64, 127
1, 293724, Note_on_c, 0, 72, 127
1, 293847, Note_off_c, 0, 72, 127
1, 293847, Note_off_c, 4, 64, 127
1, 293849, Note_on_c, 2, 62, 127
1, 293849, Note_on_c, 12, 71, 127
1, 293972, Note_off_c, 12, 71, 127
1, 293972, Note_off_c, 2, 62, 127
1, 293973, Note_on_c, 0, 60, 127
1, 293973, Note_on_c, 10, 69, 127
1, 294096, Note_off_c, 10, 69, 127
1, 294096, Note_off_c, 0, 60, 127
1, 294098, Note_on_c, 12, 59, 127
1, 294098, Note_on_c, 7, 67, 127
1, 294221, Note_off_c, 12, 59, 127
1, 294223, Note_on_c, 4, 64, 127
1, 294346, Note_off_c, 4, 64, 127
1, 294347, Note_on_c, 2, 62, 127
1, 294470, Note_off_c, 2, 62, 127
1, 294472, Note_on_c, 0, 60, 127
1, 294595, Note_off_c, 0, 60, 127
1, 294595, Note_off_c, 7, 67, 127
1, 294597, Note_on_c, 12, 59, 127
1, 294597, Note_on_c, 10, 69, 127
1, 294720, Note_off_c, 12, 59, 127
1, 294721, Note_on_c, 10, 57, 127
1, 294844, Note_off_c, 10, 57, 127
1, 294845, Note_off_c, 10, 69, 127
1, 294846, Note_on_c, 7, 55, 127
1, 294846, Note_on_c, 12, 71, 127
1, 294969, Note_off_c, 12, 71, 127
1, 294970, Note_on_c, 7, 67, 127
1, 295093, Note_off_c, 7, 67, 127
1, 295095, Note_on_c, 12, 71, 127
1, 295218, Note_off_c, 12, 71, 127
1, 295220, Note_on_c, 2, 74, 127
1, 295343, Note_off_c, 2, 74, 127
1, 295343, Note_off_c, 7, 55, 127
1, 295344, Note_on_c, 4, 52, 127
1, 295344, Note_on_c, 7, 79, 127
1, 295467, Note_off_c, 7, 79, 127
1, 295469, Note_on_c, 12, 71, 127
1, 295592, Note_off_c, 12, 71, 127
1, 295592, Note_off_c, 4, 52, 127
1, 295594, Note_on_c, 10, 57, 127
1, 295594, Note_on_c, 1, 73, 127
1, 295717, Note_off_c, 1, 73, 127
1, 295718, Note_on_c, 10, 69, 127
1, 295841, Note_off_c, 10, 69, 127
1, 295843, Note_on_c, 1, 73, 127
1, 295966, Note_off_c, 1, 73, 127
1, 295966, Note_off_c, 10, 57, 127
1, 295967, Note_on_c, 7, 55, 127
1, 295967, Note_on_c, 4, 76, 127
1, 296090, Note_off_c, 4, 76, 127
1, 296090, Note_off_c, 7, 55, 127
1, 296092, Note_on_c, 6, 54, 127
1, 296092, Note_on_c, 10, 81, 127
1, 296215, Note_off_c, 10, 81, 127
1, 296217, Note_on_c, 2, 74, 127
1, 296340, Note_off_c, 2, 74, 127
1, 296340, Note_off_c, 6, 54, 127
1, 296341, Note_on_c, 7, 55, 127
1, 296341, Note_on_c, 12, 83, 127
1, 296464, Note_off_c, 12, 83, 127
1, 296466, Note_on_c, 2, 74, 127
1, 296589, Note_off_c, 2, 74, 127
1, 296589, Note_off_c, 7, 55, 127
1, 296591, Note_on_c, 10, 57, 127
1, 296591, Note_on_c, 1, 73, 127
1, 296714, Note_off_c, 1, 73, 127
1, 296715, Note_on_c, 4, 76, 127
1, 296838, Note_off_c, 4, 76, 127
1, 296839, Note_off_c, 10, 57, 127
1, 296840, Note_on_c, 1, 61, 127
1, 296840, Note_on_c, 10, 81, 127
1, 296963, Note_off_c, 10, 81, 127
1, 296965, Note_on_c, 4, 76, 127
1, 297088, Note_off_c, 4, 76, 127
1, 297088, Note_off_c, 1, 61, 127
1, 297089, Note_on_c, 2, 62, 127
1, 297089, Note_on_c, 6, 78, 127
1, 297212, Note_off_c, 2, 62, 127
1, 297214, Note_on_c, 2, 50, 127
1, 297337, Note_off_c, 2, 50, 127
1, 297338, Note_on_c, 6, 54, 127
1, 297461, Note_off_c, 6, 54, 127
1, 297463, Note_on_c, 10, 57, 127
1, 297586, Note_off_c, 10, 57, 127
1, 297586, Note_off_c, 6, 78, 127
1, 297588, Note_on_c, 2, 50, 127
1, 297588, Note_on_c, 2, 62, 127
1, 297588, Note_on_c, 6, 66, 127
1, 297711, Note_off_c, 2, 62, 127
1, 297712, Note_on_c, 10, 57, 127
1, 297835, Note_off_c, 10, 57, 127
1, 297836, Note_off_c, 6, 66, 127
1, 297836, Note_off_c, 2, 50, 127
1, 297837, Note_on_c, 12, 47, 127
1, 297837, Note_on_c, 12, 59, 127
1, 297837, Note_on_c, 7, 67, 127
1, 297954, Note_off_c, 7, 67, 127
1, 297960, Note_off_c, 12, 59, 127
1, 297962, Note_on_c, 7, 67, 127
1, 298085, Note_off_c, 7, 67, 127
1, 298086, Note_on_c, 6, 66, 127
1, 298209, Note_off_c, 6, 66, 127
1, 298209, Note_off_c, 12, 47, 127
1, 298211, Note_on_c, 0, 48, 127
1, 298211, Note_on_c, 4, 64, 127
1, 298334, Note_off_c, 4, 64, 127
1, 298334, Note_off_c, 0, 48, 127
1, 298335, Note_on_c, 2, 50, 127
1, 298335, Note_on_c, 2, 62, 127
1, 298335, Note_on_c, 6, 66, 127
1, 298458, Note_off_c, 2, 62, 127
1, 298460, Note_on_c, 0, 60, 127
1, 298583, Note_off_c, 0, 60, 127
1, 298583, Note_off_c, 6, 66, 127
1, 298583, Note_off_c, 2, 50, 127
1, 298585, Note_on_c, 7, 43, 127
1, 298585, Note_on_c, 12, 59, 127
1, 298585, Note_on_c, 7, 67, 127
1, 298702, Note_off_c, 12, 59, 127
1, 298708, Note_off_c, 7, 67, 127
1, 298708, Note_off_c, 7, 43, 127
1, 298709, Note_on_c, 7, 55, 127
1, 298709, Note_on_c, 12, 59, 127
1, 298832, Note_off_c, 12, 59, 127
1, 298832, Note_off_c, 7, 55, 127
1, 298834, Note_on_c, 6, 54, 127
1, 298834, Note_on_c, 0, 60, 127
1, 298957, Note_off_c, 0, 60, 127
1, 298957, Note_off_c, 6, 54, 127
1, 298959, Note_on_c, 4, 52, 127
1, 298959, Note_on_c, 2, 62, 127
1, 299082, Note_off_c, 2, 62, 127
1, 299082, Note_off_c, 4, 52, 127
1, 299083, Note_on_c, 2, 50, 127
1, 299083, Note_on_c, 4, 64, 127
1, 299206, Note_off_c, 4, 64, 127
1, 299206, Note_off_c, 2, 50, 127
1, 299208, Note_on_c, 0, 48, 127
1, 299208, Note_on_c, 6, 66, 127
1, 299331, Note_off_c, 6, 66, 127
1, 299331, Note_off_c, 0, 48, 127
1, 299332, Note_on_c, 12, 47, 127
1, 299332, Note_on_c, 7, 67, 127
1, 299455, Note_off_c, 7, 67, 127
1, 299455, Note_off_c, 12, 47, 127
1, 299457, Note_on_c, 4, 52, 127
1, 299457, Note_on_c, 2, 62, 127
1, 299580, Note_off_c, 2, 62, 127
1, 299580, Note_off_c, 4, 52, 127
1, 299582, Note_on_c, 2, 50, 127
1, 299582, Note_on_c, 4, 64, 127
1, 299705, Note_off_c, 4, 64, 127
1, 299705, Note_off_c, 2, 50, 127
1, 299706, Note_on_c, 0, 48, 127
1, 299706, Note_on_c, 6, 66, 127
1, 299829, Note_off_c, 6, 66, 127
1, 299829, Note_off_c, 0, 48, 127
1, 299831, Note_on_c, 12, 47, 127
1, 299831, Note_on_c, 7, 67, 127
1, 299954, Note_off_c, 7, 67, 127
1, 299954, Note_off_c, 12, 47, 127
1, 299956, Note_on_c, 10, 45, 127
1, 299956, Note_on_c, 10, 69, 127
1, 300079, Note_off_c, 10, 69, 127
1, 300079, Note_off_c, 10, 45, 127
1, 300080, Note_on_c, 7, 43, 127
1, 300080, Note_on_c, 12, 71, 127
1, 300205, Note_on_c, 4, 64, 127
1, 300327, Note_off_c, 12, 71, 127
1, 300328, Note_off_c, 4, 64, 127
1, 300330, Note_on_c, 2, 62, 127
1, 300453, Note_off_c, 2, 62, 127
1, 300454, Note_on_c, 0, 60, 127
1, 300577, Note_off_c, 0, 60, 127
1, 300577, Note_off_c, 7, 43, 127
1, 300579, Note_on_c, 10, 45, 127
1, 300579, Note_on_c, 12, 59, 127
1, 300702, Note_off_c, 12, 59, 127
1, 300703, Note_on_c, 10, 57, 127
1, 300826, Note_off_c, 10, 57, 127
1, 300827, Note_off_c, 10, 45, 127
1, 300828, Note_on_c, 12, 47, 127
1, 300828, Note_on_c, 7, 55, 127
1, 300951, Note_off_c, 12, 47, 127
1, 300953, Note_on_c, 7, 43, 127
1, 301076, Note_off_c, 7, 43, 127
1, 301077, Note_on_c, 12, 47, 127
1, 301200, Note_off_c, 12, 47, 127
1, 301200, Note_off_c, 7, 55, 127
1, 301202, Note_on_c, 2, 50, 127
1, 301202, Note_on_c, 10, 57, 127
1, 301325, Note_off_c, 10, 57, 127
1, 301325, Note_off_c, 2, 50, 127
1, 301327, Note_on_c, 7, 55, 127
1, 301327, Note_on_c, 12, 59, 127
1, 301450, Note_off_c, 7, 55, 127
1, 301451, Note_on_c, 12, 47, 127
1, 301574, Note_off_c, 12, 47, 127
1, 301575, Note_off_c, 12, 59, 127
1, 301576, Note_on_c, 1, 49, 127
1, 301576, Note_on_c, 10, 57, 127
1, 301699, Note_off_c, 10, 57, 127
1, 301700, Note_on_c, 10, 69, 127
1, 301823, Note_off_c, 10, 69, 127
1, 301824, Note_off_c, 1, 49, 127
1, 301825, Note_on_c, 10, 45, 127
1, 301825, Note_on_c, 7, 67, 127
1, 301948, Note_off_c, 7, 67, 127
1, 301950, Note_on_c, 6, 66, 127
1, 302073, Note_off_c, 6, 66, 127
1, 302073, Note_off_c, 10, 45, 127
1, 302074, Note_on_c, 2, 50, 127
1, 302074, Note_on_c, 4, 64, 127
1, 302197, Note_off_c, 4, 64, 127
1, 302199, Note_on_c, 2, 62, 127
1, 302322, Note_off_c, 2, 62, 127
1, 302324, Note_on_c, 4, 64, 127
1, 302571, Note_off_c, 2, 50, 127
1, 302572, Note_off_c, 4, 64, 127
1, 302573, Note_on_c, 1, 49, 127
1, 302573, Note_on_c, 10, 57, 127
1, 302696, Note_off_c, 1, 49, 127
1, 302697, Note_on_c, 12, 47, 127
1, 302820, Note_off_c, 12, 47, 127
1, 302821, Note_off_c, 10, 57, 127
1, 302822, Note_on_c, 1, 49, 127
1, 302822, Note_on_c, 10, 69, 127
1, 302945, Note_off_c, 1, 49, 127
1, 302947, Note_on_c, 10, 45, 127
1, 303070, Note_off_c, 10, 45, 127
1, 303070, Note_off_c, 10, 69, 127
1, 303071, Note_on_c, 2, 50, 127
1, 303071, Note_on_c, 6, 66, 127
1, 303194, Note_off_c, 2, 50, 127
1, 303196, Note_on_c, 1, 49, 127
1, 303319, Note_off_c, 1, 49, 127
1, 303321, Note_on_c, 2, 50, 127
1, 303443, Note_off_c, 6, 66, 127
1, 303444, Note_off_c, 2, 50, 127
1, 303445, Note_on_c, 4, 52, 127
1, 303445, Note_on_c, 7, 67, 127
1, 303568, Note_off_c, 7, 67, 127
1, 303568, Note_off_c, 4, 52, 127
1, 303570, Note_on_c, 6, 54, 127
1, 303570, Note_on_c, 10, 69, 127
1, 303570, Note_on_c, 2, 74, 127
1, 303693, Note_off_c, 6, 54, 127
1, 303695, Note_on_c, 2, 50, 127
1, 303818, Note_off_c, 2, 50, 127
1, 303818, Note_off_c, 2, 74, 127
1, 303818, Note_off_c, 10, 69, 127
1, 303819, Note_on_c, 7, 55, 127
1, 303819, Note_on_c, 2, 62, 127
1, 303819, Note_on_c, 12, 71, 127
1, 303942, Note_off_c, 7, 55, 127
1, 303944, Note_on_c, 6, 54, 127
1, 304067, Note_off_c, 6, 54, 127
1, 304068, Note_on_c, 7, 55, 127
1, 304191, Note_off_c, 7, 55, 127
1, 304191, Note_off_c, 12, 71, 127
1, 304193, Note_on_c, 10, 57, 127
1, 304193, Note_on_c, 0, 72, 127
1, 304316, Note_off_c, 0, 72, 127
1, 304316, Note_off_c, 10, 57, 127
1, 304316, Note_off_c, 2, 62, 127
1, 304318, Note_on_c, 12, 59, 127
1, 304318, Note_on_c, 7, 67, 127
1, 304318, Note_on_c, 2, 74, 127
1, 304441, Note_off_c, 12, 59, 127
1, 304442, Note_on_c, 7, 55, 127
1, 304565, Note_off_c, 7, 55, 127
1, 304566, Note_off_c, 2, 74, 127
1, 304566, Note_off_c, 7, 67, 127
1, 304567, Note_on_c, 0, 60, 127
1, 304567, Note_on_c, 4, 64, 127
1, 304567, Note_on_c, 7, 67, 127
1, 304690, Note_off_c, 0, 60, 127
1, 304692, Note_on_c, 12, 59, 127
1, 304815, Note_off_c, 12, 59, 127
1, 304816, Note_on_c, 0, 60, 127
1, 304939, Note_off_c, 0, 60, 127
1, 304939, Note_off_c, 4, 64, 127
1, 304941, Note_on_c, 2, 62, 127
1, 304941, Note_on_c, 6, 66, 127
1, 305064, Note_off_c, 6, 66, 127
1, 305064, Note_off_c, 2, 62, 127
1, 305064, Note_off_c, 7, 67, 127
1, 305065, Note_on_c, 0, 60, 127
1, 305065, Note_on_c, 7, 67, 127
1, 305065, Note_on_c, 4, 76, 127
1, 305188, Note_off_c, 0, 60, 127
1, 305190, Note_on_c, 12, 59, 127
1, 305313, Note_off_c, 12, 59, 127
1, 305313, Note_off_c, 4, 76, 127
1, 305313, Note_off_c, 7, 67, 127
1, 305315, Note_on_c, 10, 57, 127
1, 305315, Note_on_c, 10, 69, 127
1, 305315, Note_on_c, 0, 72, 127
1, 305438, Note_off_c, 10, 57, 127
1, 305439, Note_on_c, 7, 55, 127
1, 305562, Note_off_c, 7, 55, 127
1, 305564, Note_on_c, 10, 57, 127
1, 305687, Note_off_c, 10, 57, 127
1, 305687, Note_off_c, 0, 72, 127
1, 305689, Note_on_c, 12, 59, 127
1, 305689, Note_on_c, 2, 74, 127
1, 305812, Note_off_c, 2, 74, 127
1, 305812, Note_off_c, 12, 59, 127
1, 305812, Note_off_c, 10, 69, 127
1, 305813, Note_on_c, 0, 60, 127
1, 305813, Note_on_c, 10, 69, 127
1, 305813, Note_on_c, 4, 76, 127
1, 305936, Note_off_c, 0, 60, 127
1, 305938, Note_on_c, 10, 57, 127
1, 306061, Note_off_c, 10, 57, 127
1, 306061, Note_off_c, 4, 76, 127
1, 306061, Note_off_c, 10, 69, 127
1, 306063, Note_on_c, 2, 62, 127
1, 306063, Note_on_c, 6, 66, 127
1, 306063, Note_on_c, 10, 69, 127
1, 306186, Note_off_c, 2, 62, 127
1, 306187, Note_on_c, 0, 60, 127
1, 306310, Note_off_c, 0, 60, 127
1, 306312, Note_on_c, 2, 62, 127
1, 306435, Note_off_c, 2, 62, 127
1, 306435, Note_off_c, 6, 66, 127
1, 306436, Note_on_c, 4, 64, 127
1, 306436, Note_on_c, 7, 67, 127
1, 306559, Note_off_c, 7, 67, 127
1, 306559, Note_off_c, 4, 64, 127
1, 306560, Note_off_c, 10, 69, 127
1, 306561, Note_on_c, 6, 66, 127
1, 306561, Note_on_c, 10, 69, 127
1, 306561, Note_on_c, 2, 74, 127
1, 306684, Note_off_c, 6, 66, 127
1, 306686, Note_on_c, 2, 62, 127
1, 306809, Note_off_c, 2, 62, 127
1, 306809, Note_off_c, 2, 74, 127
1, 306809, Note_off_c, 10, 69, 127
1, 306810, Note_on_c, 7, 67, 127
1, 306810, Note_on_c, 12, 71, 127
1, 306935, Note_on_c, 7, 55, 127
1, 307058, Note_off_c, 7, 55, 127
1, 307060, Note_on_c, 6, 54, 127
1, 307182, Note_off_c, 12, 71, 127
1, 307183, Note_off_c, 6, 54, 127
1, 307184, Note_on_c, 4, 52, 127
1, 307184, Note_on_c, 0, 72, 127
1, 307307, Note_off_c, 0, 72, 127
1, 307307, Note_off_c, 4, 52, 127
1, 307307, Note_off_c, 7, 67, 127
1, 307309, Note_on_c, 2, 50, 127
1, 307309, Note_on_c, 6, 66, 127
1, 307309, Note_on_c, 2, 74, 127
1, 307432, Note_off_c, 2, 50, 127
1, 307433, Note_on_c, 0, 48, 127
1, 307556, Note_off_c, 0, 48, 127
1, 307557, Note_off_c, 2, 74, 127
1, 307557, Note_off_c, 6, 66, 127
1, 307558, Note_on_c, 12, 47, 127
1, 307558, Note_on_c, 7, 67, 127
1, 307681, Note_off_c, 12, 47, 127
1, 307683, Note_on_c, 4, 52, 127
1, 307683, Note_on_c, 7, 79, 127
1, 307806, Note_off_c, 7, 79, 127
1, 307806, Note_off_c, 4, 52, 127
1, 307807, Note_on_c, 2, 50, 127
1, 307807, Note_on_c, 6, 78, 127
1, 307930, Note_off_c, 6, 78, 127
1, 307930, Note_off_c, 2, 50, 127
1, 307932, Note_on_c, 0, 48, 127
1, 307932, Note_on_c, 4, 76, 127
1, 308055, Note_off_c, 4, 76, 127
1, 308055, Note_off_c, 0, 48, 127
1, 308057, Note_on_c, 12, 47, 127
1, 308057, Note_on_c, 2, 74, 127
1, 308180, Note_off_c, 2, 74, 127
1, 308180, Note_off_c, 12, 47, 127
1, 308181, Note_on_c, 10, 45, 127
1, 308181, Note_on_c, 0, 72, 127
1, 308304, Note_off_c, 0, 72, 127
1, 308304, Note_off_c, 10, 45, 127
1, 308306, Note_on_c, 7, 43, 127
1, 308306, Note_on_c, 12, 71, 127
1, 308429, Note_off_c, 12, 71, 127
1, 308430, Note_on_c, 4, 76, 127
1, 308553, Note_off_c, 4, 76, 127
1, 308554, Note_off_c, 7, 43, 127
1, 308554, Note_off_c, 7, 67, 127
1, 308555, Note_on_c, 7, 55, 127
1, 308555, Note_on_c, 12, 59, 127
1, 308555, Note_on_c, 2, 74, 127
1, 308678, Note_off_c, 2, 74, 127
1, 308680, Note_on_c, 0, 72, 127
1, 308803, Note_off_c, 0, 72, 127
1, 308803, Note_off_c, 12, 59, 127
1, 308803, Note_off_c, 7, 55, 127
1, 308804, Note_on_c, 10, 57, 127
1, 308804, Note_on_c, 0, 60, 127
1, 308804, Note_on_c, 12, 71, 127
1, 308927, Note_off_c, 12, 71, 127
1, 308929, Note_on_c, 10, 69, 127
1, 309052, Note_off_c, 10, 69, 127
1, 309052, Note_off_c, 0, 60, 127
1, 309052, Note_off_c, 10, 57, 127
1, 309054, Note_on_c, 12, 59, 127
1, 309054, Note_on_c, 2, 62, 127
1, 309054, Note_on_c, 7, 67, 127
1, 309171, Note_off_c, 7, 67, 127
1, 309177, Note_off_c, 2, 62, 127
1, 309178, Note_on_c, 7, 67, 127
1, 309303, Note_on_c, 6, 66, 127
1, 309426, Note_off_c, 6, 66, 127
1, 309428, Note_on_c, 4, 64, 127
1, 309541, Note_off_c, 7, 67, 127
1, 309551, Note_off_c, 4, 64, 127
1, 309551, Note_off_c, 12, 59, 127
1, 309552, Note_on_c, 6, 54, 127
1, 309552, Note_on_c, 2, 62, 127
1, 309552, Note_on_c, 10, 69, 127
1, 309675, Note_off_c, 2, 62, 127
1, 309677, Note_on_c, 0, 60, 127
1, 309800, Note_off_c, 0, 60, 127
1, 309800, Note_off_c, 10, 69, 127
1, 309800, Note_off_c, 6, 54, 127
1, 309801, Note_on_c, 7, 55, 127
1, 309801, Note_on_c, 12, 59, 127
1, 309801, Note_on_c, 12, 71, 127
1, 309924, Note_off_c, 12, 71, 127
1, 309926, Note_on_c, 7, 67, 127
1, 310049, Note_off_c, 7, 67, 127
1, 310051, Note_on_c, 12, 71, 127
1, 310173, Note_off_c, 12, 59, 127
1, 310173, Note_off_c, 7, 55, 127
1, 310174, Note_off_c, 12, 71, 127
1, 310175, Note_on_c, 6, 54, 127
1, 310175, Note_on_c, 10, 57, 127
1, 310175, Note_on_c, 2, 74, 127
1, 310298, Note_off_c, 2, 74, 127
1, 310298, Note_off_c, 10, 57, 127
1, 310298, Note_off_c, 6, 54, 127
1, 310300, Note_on_c, 4, 52, 127
1, 310300, Note_on_c, 7, 55, 127
1, 310300, Note_on_c, 7, 79, 127
1, 310423, Note_off_c, 7, 79, 127
1, 310425, Note_on_c, 12, 71, 127
1, 310548, Note_off_c, 12, 71, 127
1, 310548, Note_off_c, 7, 55, 127
1, 310548, Note_off_c, 4, 52, 127
1, 310549, Note_on_c, 10, 57, 127
1, 310549, Note_on_c, 1, 73, 127
1, 310674, Note_on_c, 7, 67, 127
1, 310797, Note_off_c, 7, 67, 127
1, 310797, Note_off_c, 1, 73, 127
1, 310798, Note_on_c, 6, 66, 127
1, 310798, Note_on_c, 10, 69, 127
1, 310921, Note_off_c, 6, 66, 127
1, 310923, Note_on_c, 4, 64, 127
1, 311046, Note_off_c, 4, 64, 127
1, 311046, Note_off_c, 10, 69, 127
1, 311046, Note_off_c, 10, 57, 127
1, 311048, Note_on_c, 12, 59, 127
1, 311048, Note_on_c, 6, 66, 127
1, 311048, Note_on_c, 2, 74, 127
1, 311171, Note_off_c, 6, 66, 127
1, 311172, Note_on_c, 2, 62, 127
1, 311295, Note_off_c, 2, 62, 127
1, 311296, Note_off_c, 12, 59, 127
1, 311297, Note_on_c, 4, 64, 127
1, 311297, Note_on_c, 7, 67, 127
1, 311420, Note_off_c, 7, 67, 127
1, 311422, Note_on_c, 10, 69, 127
1, 311545, Note_off_c, 10, 69, 127
1, 311545, Note_off_c, 4, 64, 127
1, 311546, Note_on_c, 4, 52, 127
1, 311546, Note_on_c, 7, 67, 127
1, 311669, Note_off_c, 7, 67, 127
1, 311671, Note_on_c, 6, 66, 127
1, 311794, Note_off_c, 6, 66, 127
1, 311794, Note_off_c, 4, 52, 127
1, 311794, Note_off_c, 2, 74, 127
1, 311795, Note_on_c, 10, 57, 127
1, 311795, Note_on_c, 4, 64, 127
1, 311795, Note_on_c, 0, 72, 127
1, 311918, Note_off_c, 4, 64, 127
1, 311920, Note_on_c, 7, 67, 127
1, 312043, Note_off_c, 7, 67, 127
1, 312043, Note_off_c, 10, 57, 127
1, 312045, Note_on_c, 2, 62, 127
1, 312045, Note_on_c, 6, 66, 127
1, 312168, Note_off_c, 6, 66, 127
1, 312169, Note_on_c, 7, 67, 127
1, 312292, Note_off_c, 7, 67, 127
1, 312293, Note_off_c, 2, 62, 127
1, 312294, Note_on_c, 2, 50, 127
1, 312294, Note_on_c, 6, 66, 127
1, 312417, Note_off_c, 6, 66, 127
1, 312419, Note_on_c, 4, 64, 127
1, 312541, Note_off_c, 0, 72, 127
1, 312542, Note_off_c, 4, 64, 127
1, 312542, Note_off_c, 2, 50, 127
1, 312543, Note_on_c, 7, 55, 127
1, 312543, Note_on_c, 2, 62, 127
1, 312543, Note_on_c, 12, 71, 127
1, 312666, Note_off_c, 2, 62, 127
1, 312668, Note_on_c, 5, 65, 127
1, 312791, Note_off_c, 5, 65, 127
1, 312791, Note_off_c, 7, 55, 127
1, 312793, Note_on_c, 0, 60, 127
1, 312793, Note_on_c, 4, 64, 127
1, 312915, Note_off_c, 12, 71, 127
1, 312917, Note_on_c, 2, 74, 127
1, 313040, Note_off_c, 2, 74, 127
1, 313042, Note_on_c, 0, 72, 127
1, 313165, Note_off_c, 0, 72, 127
1, 313166, Note_on_c, 12, 71, 127
1, 313289, Note_off_c, 12, 71, 127
1, 313290, Note_off_c, 4, 64, 127
1, 313290, Note_off_c, 0, 60, 127
1, 313291, Note_on_c, 0, 60, 127
1, 313291, Note_on_c, 4, 64, 127
1, 313291, Note_on_c, 10, 69, 127
1, 313414, Note_off_c, 10, 69, 127
1, 313416, Note_on_c, 7, 67, 127
1, 313539, Note_off_c, 7, 67, 127
1, 313539, Note_off_c, 4, 64, 127
1, 313540, Note_on_c, 2, 62, 127
1, 313540, Note_on_c, 6, 66, 127
1, 313657, Note_off_c, 2, 62, 127
1, 313663, Note_off_c, 6, 66, 127
1, 313665, Note_on_c, 2, 62, 127
1, 313790, Note_on_c, 6, 66, 127
1, 313913, Note_off_c, 6, 66, 127
1, 313913, Note_off_c, 0, 60, 127
1, 313914, Note_on_c, 0, 60, 127
1, 313914, Note_on_c, 10, 69, 127
1, 314037, Note_off_c, 10, 69, 127
1, 314037, Note_off_c, 0, 60, 127
1, 314039, Note_on_c, 12, 59, 127
1, 314039, Note_on_c, 2, 74, 127
1, 314162, Note_off_c, 12, 59, 127
1, 314163, Note_on_c, 10, 57, 127
1, 314286, Note_off_c, 10, 57, 127
1, 314288, Note_off_c, 2, 62, 127
1, 314288, Note_on_c, 8, 56, 127
1, 314288, Note_on_c, 4, 64, 127
1, 314411, Note_off_c, 8, 56, 127
1, 314413, Note_on_c, 4, 52, 127
1, 314536, Note_off_c, 4, 52, 127
1, 314537, Note_on_c, 8, 56, 127
1, 314660, Note_off_c, 8, 56, 127
1, 314660, Note_off_c, 4, 64, 127
1, 314662, Note_on_c, 12, 59, 127
1, 314662, Note_on_c, 6, 66, 127
1, 314785, Note_off_c, 6, 66, 127
1, 314785, Note_off_c, 12, 59, 127
1, 314787, Note_on_c, 4, 64, 127
1, 314787, Note_on_c, 8, 68, 127
1, 314910, Note_off_c, 2, 74, 127
1, 314911, Note_on_c, 2, 74, 127
1, 315034, Note_off_c, 2, 74, 127
1, 315035, Note_off_c, 8, 68, 127
1, 315035, Note_off_c, 4, 64, 127
1, 315036, Note_on_c, 10, 57, 127
1, 315036, Note_on_c, 10, 69, 127
1, 315036, Note_on_c, 0, 72, 127
1, 315159, Note_off_c, 0, 72, 127
1, 315160, Note_on_c, 2, 74, 127
1, 315283, Note_off_c, 2, 74, 127
1, 315285, Note_on_c, 0, 72, 127
1, 315408, Note_off_c, 0, 72, 127
1, 315410, Note_on_c, 12, 71, 127
1, 315529, Note_off_c, 10, 69, 127
1, 315533, Note_off_c, 12, 71, 127
1, 315534, Note_on_c, 10, 69, 127
1, 315658, Note_off_c, 10, 57, 127
1, 315659, Note_on_c, 7, 55, 127
1, 315659, Note_on_c, 12, 71, 127
1, 315781, Note_off_c, 10, 69, 127
1, 315782, Note_off_c, 12, 71, 127
1, 315782, Note_off_c, 7, 55, 127
1, 315784, Note_on_c, 6, 54, 127
1, 315784, Note_on_c, 2, 62, 127
1, 315784, Note_on_c, 0, 72, 127
1, 315907, Note_off_c, 6, 54, 127
1, 315908, Note_on_c, 2, 50, 127
1, 316031, Note_off_c, 2, 50, 127
1, 316033, Note_on_c, 6, 54, 127
1, 316156, Note_off_c, 6, 54, 127
1, 316156, Note_off_c, 2, 62, 127
1, 316158, Note_on_c, 10, 57, 127
1, 316158, Note_on_c, 4, 64, 127
1, 316281, Note_off_c, 4, 64, 127
1, 316281, Note_off_c, 10, 57, 127
1, 316282, Note_on_c, 2, 62, 127
1, 316282, Note_on_c, 6, 66, 127
1, 316406, Note_off_c, 0, 72, 127
1, 316407, Note_on_c, 0, 72, 127
1, 316530, Note_off_c, 0, 72, 127
1, 316530, Note_off_c, 6, 66, 127
1, 316530, Note_off_c, 2, 62, 127
1, 316531, Note_on_c, 7, 55, 127
1, 316531, Note_on_c, 7, 67, 127
1, 316531, Note_on_c, 12, 71, 127
1, 316654, Note_off_c, 12, 71, 127
1, 316656, Note_on_c, 0, 72, 127
1, 316779, Note_off_c, 0, 72, 127
1, 316781, Note_on_c, 12, 71, 127
1, 316904, Note_off_c, 12, 71, 127
1, 316905, Note_on_c, 10, 69, 127
1, 317024, Note_off_c, 7, 67, 127
1, 317028, Note_off_c, 10, 69, 127
1, 317030, Note_on_c, 7, 67, 127
1, 317153, Note_off_c, 7, 55, 127
1, 317155, Note_on_c, 5, 53, 127
1, 317155, Note_on_c, 10, 69, 127
1, 317277, Note_off_c, 7, 67, 127
1, 317278, Note_off_c, 10, 69, 127
1, 317278, Note_off_c, 5, 53, 127
1, 317279, Note_on_c, 4, 52, 127
1, 317279, Note_on_c, 0, 60, 127
1, 317279, Note_on_c, 12, 71, 127
1, 317402, Note_off_c, 4, 52, 127
1, 317404, Note_on_c, 0, 48, 127
1, 317527, Note_off_c, 0, 48, 127
1, 317528, Note_on_c, 4, 52, 127
1, 317651, Note_off_c, 4, 52, 127
1, 317651, Note_off_c, 12, 71, 127
1, 317651, Note_off_c, 0, 60, 127
1, 317653, Note_on_c, 7, 55, 127
1, 317653, Note_on_c, 2, 62, 127
1, 317653, Note_on_c, 12, 71, 127
1, 317776, Note_off_c, 12, 71, 127
1, 317776, Note_off_c, 2, 62, 127
1, 317776, Note_off_c, 7, 55, 127
1, 317778, Note_on_c, 0, 60, 127
1, 317778, Note_on_c, 4, 64, 127
1, 317778, Note_on_c, 10, 69, 127
1, 317901, Note_off_c, 10, 69, 127
1, 317902, Note_on_c, 7, 67, 127
1, 318025, Note_off_c, 7, 67, 127
1, 318026, Note_off_c, 4, 64, 127
1, 318027, Note_on_c, 2, 62, 127
1, 318027, Note_on_c, 6, 66, 127
1, 318144, Note_off_c, 2, 62, 127
1, 318150, Note_off_c, 6, 66, 127
1, 318152, Note_on_c, 2, 62, 127
1, 318276, Note_on_c, 6, 66, 127
1, 318399, Note_off_c, 6, 66, 127
1, 318400, Note_off_c, 0, 60, 127
1, 318401, Note_on_c, 0, 60, 127
1, 318401, Note_on_c, 10, 69, 127
1, 318515, Note_off_c, 2, 62, 127
1, 318524, Note_off_c, 10, 69, 127
1, 318524, Note_off_c, 0, 60, 127
1, 318526, Note_on_c, 12, 59, 127
1, 318526, Note_on_c, 2, 62, 127
1, 318526, Note_on_c, 2, 74, 127
1, 318649, Note_off_c, 2, 74, 127
1, 318650, Note_on_c, 7, 67, 127
1, 318773, Note_off_c, 7, 67, 127
1, 318773, Note_off_c, 2, 62, 127
1, 318774, Note_off_c, 12, 59, 127
1, 318775, Note_on_c, 0, 60, 127
1, 318775, Note_on_c, 4, 76, 127
1, 318898, Note_off_c, 4, 76, 127
1, 318899, Note_on_c, 0, 72, 127
1, 319022, Note_off_c, 0, 72, 127
1, 319024, Note_on_c, 4, 76, 127
1, 319147, Note_off_c, 4, 76, 127
1, 319147, Note_off_c, 0, 60, 127
1, 319149, Note_on_c, 12, 59, 127
1, 319149, Note_on_c, 7, 79, 127
1, 319272, Note_off_c, 7, 79, 127
1, 319272, Note_off_c, 12, 59, 127
1, 319273, Note_on_c, 10, 57, 127
1, 319273, Note_on_c, 0, 84, 127
1, 319396, Note_off_c, 0, 84, 127
1, 319398, Note_on_c, 4, 76, 127
1, 319521, Note_off_c, 4, 76, 127
1, 319521, Note_off_c, 10, 57, 127
1, 319523, Note_on_c, 2, 50, 127
1, 319523, Note_on_c, 6, 78, 127
1, 319646, Note_off_c, 6, 78, 127
1, 319647, Note_on_c, 2, 74, 127
1, 319770, Note_off_c, 2, 74, 127
1, 319772, Note_on_c, 4, 76, 127
1, 319895, Note_off_c, 4, 76, 127
1, 319896, Note_on_c, 0, 60, 127
1, 319896, Note_on_c, 6, 78, 127
1, 320016, Note_off_c, 2, 50, 127
1, 320019, Note_off_c, 6, 78, 127
1, 320019, Note_off_c, 0, 60, 127
1, 320021, Note_on_c, 12, 59, 127
1, 320021, Note_on_c, 7, 79, 127
1, 320146, Note_on_c, 4, 52, 127
1, 320269, Note_off_c, 4, 52, 127
1, 320270, Note_on_c, 0, 48, 127
1, 320393, Note_off_c, 12, 59, 127
1, 320395, Note_on_c, 0, 60, 127
1, 320518, Note_off_c, 0, 60, 127
1, 320520, Note_on_c, 10, 57, 127
1, 320643, Note_off_c, 7, 79, 127
1, 320644, Note_on_c, 10, 81, 127
1, 320767, Note_off_c, 10, 81, 127
1, 320767, Note_off_c, 0, 48, 127
1, 320768, Note_off_c, 10, 57, 127
1, 320769, Note_on_c, 2, 50, 127
1, 320769, Note_on_c, 10, 57, 127
1, 320769, Note_on_c, 6, 78, 127
1, 321017, Note_off_c, 6, 78, 127
1, 321017, Note_off_c, 10, 57, 127
1, 321017, Note_off_c, 2, 50, 127
1, 321018, Note_on_c, 12, 47, 127
1, 321018, Note_on_c, 7, 55, 127
1, 321018, Note_on_c, 7, 79, 127
1, 321265, Note_off_c, 7, 79, 127
1, 321265, Note_off_c, 7, 55, 127
1, 321391, Note_off_c, 12, 47, 127
1, 321393, Note_on_c, 0, 48, 127
1, 321516, Note_off_c, 0, 48, 127
1, 321518, Note_on_c, 2, 50, 127
1, 321518, Note_on_c, 2, 62, 127
1, 321766, Note_off_c, 2, 62, 127
1, 321766, Note_off_c, 2, 50, 127
1, 321767, Note_on_c, 7, 43, 127
1, 321767, Note_on_c, 12, 59, 127
1, 322140, Note_off_c, 12, 59, 127
1, 322142, Note_on_c, 0, 60, 127
1, 322265, Note_off_c, 0, 60, 127
1, 322265, Note_off_c, 7, 43, 127
1, 322266, Note_on_c, 6, 42, 127
1, 322266, Note_on_c, 2, 62, 127
1, 322266, Note_on_c, 2, 74, 127
1, 322514, Note_off_c, 2, 74, 127
1, 322514, Note_off_c, 2, 62, 127
1, 322514, Note_off_c, 6, 42, 127
1, 322516, Note_on_c, 7, 43, 127
1, 322516, Note_on_c, 7, 55, 127
1, 322516, Note_on_c, 12, 71, 127
1, 322633, Note_off_c, 7, 55, 127
1, 322639, Note_off_c, 7, 43, 127
1, 322640, Note_on_c, 7, 55, 127
1, 322765, Note_on_c, 6, 54, 127
1, 322888, Note_off_c, 6, 54, 127
1, 322888, Note_off_c, 12, 71, 127
1, 322890, Note_on_c, 4, 52, 127
1, 322890, Note_on_c, 0, 72, 127
1, 323003, Note_off_c, 7, 55, 127
1, 323013, Note_off_c, 0, 72, 127
1, 323013, Note_off_c, 4, 52, 127
1, 323014, Note_on_c, 2, 50, 127
1, 323014, Note_on_c, 6, 54, 127
1, 323014, Note_on_c, 2, 74, 127
1, 323137, Note_off_c, 2, 50, 127
1, 323139, Note_on_c, 0, 48, 127
1, 323262, Note_off_c, 0, 48, 127
1, 323262, Note_off_c, 2, 74, 127
1, 323262, Note_off_c, 6, 54, 127
1, 323264, Note_on_c, 12, 47, 127
1, 323264, Note_on_c, 7, 55, 127
1, 323264, Note_on_c, 7, 67, 127
1, 323387, Note_off_c, 7, 67, 127
1, 323388, Note_on_c, 7, 79, 127
1, 323511, Note_off_c, 7, 79, 127
1, 323513, Note_on_c, 6, 78, 127
1, 323636, Note_off_c, 6, 78, 127
1, 323636, Note_off_c, 12, 47, 127
1, 323637, Note_on_c, 0, 48, 127
1, 323637, Note_on_c, 4, 76, 127
1, 323757, Note_off_c, 7, 55, 127
1, 323760, Note_off_c, 4, 76, 127
1, 323760, Note_off_c, 0, 48, 127
1, 323762, Note_on_c, 2, 50, 127
1, 323762, Note_on_c, 2, 74, 127
1, 323885, Note_off_c, 2, 74, 127
1, 323887, Note_on_c, 0, 72, 127
1, 324010, Note_off_c, 0, 72, 127
1, 324010, Note_off_c, 2, 50, 127
1, 324011, Note_on_c, 7, 43, 127
1, 324011, Note_on_c, 12, 71, 127
1, 324134, Note_off_c, 12, 71, 127
1, 324136, Note_on_c, 7, 67, 127
1, 324136, Note_on_c, 4, 76, 127
1, 324258, Note_off_c, 7, 43, 127
1, 324259, Note_off_c, 4, 76, 127
1, 324259, Note_off_c, 7, 67, 127
1, 324261, Note_on_c, 6, 66, 127
1, 324261, Note_on_c, 2, 74, 127
1, 324384, Note_off_c, 2, 74, 127
1, 324384, Note_off_c, 6, 66, 127
1, 324385, Note_on_c, 4, 64, 127
1, 324385, Note_on_c, 0, 72, 127
1, 324508, Note_off_c, 0, 72, 127
1, 324508, Note_off_c, 4, 64, 127
1, 324510, Note_on_c, 2, 62, 127
1, 324510, Note_on_c, 12, 71, 127
1, 324633, Note_off_c, 12, 71, 127
1, 324633, Note_off_c, 2, 62, 127
1, 324634, Note_on_c, 0, 60, 127
1, 324634, Note_on_c, 10, 69, 127
1, 324757, Note_off_c, 10, 69, 127
1, 324757, Note_off_c, 0, 60, 127
1, 324759, Note_on_c, 12, 59, 127
1, 324759, Note_on_c, 7, 67, 127
1, 324882, Note_off_c, 12, 59, 127
1, 324884, Note_on_c, 7, 55, 127
1, 324884, Note_on_c, 4, 64, 127
1, 325006, Note_off_c, 7, 67, 127
1, 325007, Note_off_c, 4, 64, 127
1, 325007, Note_off_c, 7, 55, 127
1, 325008, Note_on_c, 6, 54, 127
1, 325008, Note_on_c, 2, 62, 127
1, 325131, Note_off_c, 2, 62, 127
1, 325131, Note_off_c, 6, 54, 127
1, 325133, Note_on_c, 4, 52, 127
1, 325133, Note_on_c, 0, 60, 127
1, 325256, Note_off_c, 0, 60, 127
1, 325256, Note_off_c, 4, 52, 127
1, 325258, Note_on_c, 2, 50, 127
1, 325258, Note_on_c, 12, 59, 127
1, 325381, Note_off_c, 12, 59, 127
1, 325381, Note_off_c, 2, 50, 127
1, 325382, Note_on_c, 0, 48, 127
1, 325382, Note_on_c, 10, 57, 127
1, 325505, Note_off_c, 10, 57, 127
1, 325505, Note_off_c, 0, 48, 127
1, 325507, Note_on_c, 12, 47, 127
1, 325507, Note_on_c, 7, 55, 127
1, 325630, Note_off_c, 12, 47, 127
1, 325631, Note_on_c, 4, 52, 127
1, 325754, Note_off_c, 4, 52, 127
1, 325754, Note_off_c, 7, 55, 127
1, 325756, Note_on_c, 2, 50, 127
1, 325879, Note_off_c, 2, 50, 127
1, 325881, Note_on_c, 0, 48, 127
1, 326004, Note_off_c, 0, 48, 127
1, 326005, Note_on_c, 12, 47, 127
1, 326128, Note_off_c, 12, 47, 127
1, 326140, Note_on_c, 10, 45, 127
1, 326263, Note_off_c, 10, 45, 127
1, 326355, Note_on_c, 7, 43, 127
1, 328055, Note_off_c, 7, 43, 127
1, 331776, End_track
0, 0, End_of_file
