0, 0, Header, 0, 1, 384
1, 0, Start_track
1, 0, Copyright_t, "(C) John Sankey 1998"
1, 0, Program_c, 0, 6
1, 0, Pitch_bend_c, 0, 8192
1, 0, Program_c, 1, 6
1, 0, Pitch_bend_c, 1, 7792
1, 0, Program_c, 2, 6
1, 0, Pitch_bend_c, 2, 7876
1, 0, Program_c, 3, 6
1, 0, Pitch_bend_c, 3, 7952
1, 0, Program_c, 4, 6
1, 0, Pitch_bend_c, 4, 7792
1, 0, Program_c, 5, 6
1, 0, Pitch_bend_c, 5, 8112
1, 0, Program_c, 6, 6
1, 0, Pitch_bend_c, 6, 7712
1, 0, Program_c, 7, 6
1, 0, Pitch_bend_c, 7, 8037
1, 0, Program_c, 8, 6
1, 0, Pitch_bend_c, 8, 7872
1, 0, Program_c, 10, 6
1, 0, Pitch_bend_c, 10, 7712
1, 0, Program_c, 11, 6
1, 0, Pitch_bend_c, 11, 8032
1, 0, Program_c, 12, 6
1, 0, Pitch_bend_c, 12, 7872
1, 0, Tempo, 500000
1, 48, Note_on_c, 5, 77, 127
1, 350, Note_off_c, 5, 77, 127
1, 352, Note_on_c, 4, 76, 127
1, 494, Note_off_c, 4, 76, 127
1, 503, Note_on_c, 2, 74, 127
1, 645, Note_off_c, 2, 74, 127
1, 654, Note_on_c, 0, 72, 127
1, 956, Note_off_c, 0, 72, 127
1, 958, Note_on_c, 11, 70, 127
1, 1260, Note_off_c, 11, 70, 127
1, 1262, Note_on_c, 10, 69, 127
1, 1564, Note_off_c, 10, 69, 127
1, 1566, Note_on_c, 5, 65, 127
1, 1868, Note_off_c, 5, 65, 127
1, 1870, Note_on_c, 10, 69, 127
1, 2172, Note_off_c, 10, 69, 127
1, 2174, Note_on_c, 0, 72, 127
1, 2476, Note_off_c, 0, 72, 127
1, 2478, Note_on_c, 5, 65, 127
1, 2478, Note_on_c, 10, 69, 127
1, 2478, Note_on_c, 0, 72, 127
1, 2478, Note_on_c, 5, 77, 127
1, 2780, Note_off_c, 5, 65, 127
1, 2782, Note_on_c, 4, 64, 127
1, 2932, Note_off_c, 4, 64, 127
1, 2934, Note_on_c, 2, 62, 127
1, 3084, Note_off_c, 2, 62, 127
1, 3084, Note_off_c, 5, 77, 127
1, 3084, Note_off_c, 0, 72, 127
1, 3084, Note_off_c, 10, 69, 127
1, 3086, Note_on_c, 0, 60, 127
1, 3086, Note_on_c, 7, 79, 127
1, 3086, Note_on_c, 4, 76, 127
1, 3086, Note_on_c, 0, 72, 127
1, 3236, Note_off_c, 0, 60, 127
1, 3238, Note_on_c, 11, 58, 127
1, 3388, Note_off_c, 11, 58, 127
1, 3390, Note_on_c, 10, 57, 127
1, 3540, Note_off_c, 10, 57, 127
1, 3542, Note_on_c, 7, 55, 127
1, 3692, Note_off_c, 7, 55, 127
1, 3692, Note_off_c, 0, 72, 127
1, 3692, Note_off_c, 4, 76, 127
1, 3692, Note_off_c, 7, 79, 127
1, 3694, Note_on_c, 5, 53, 127
1, 3694, Note_on_c, 0, 72, 127
1, 3694, Note_on_c, 10, 81, 127
1, 3694, Note_on_c, 5, 77, 127
1, 3996, Note_off_c, 5, 77, 127
1, 3996, Note_off_c, 10, 81, 127
1, 3996, Note_off_c, 5, 53, 127
1, 3998, Note_on_c, 0, 60, 127
1, 3998, Note_on_c, 7, 79, 127
1, 4150, Note_on_c, 10, 81, 127
1, 4164, Note_off_c, 7, 79, 127
1, 4295, Note_off_c, 0, 72, 127
1, 4300, Note_off_c, 0, 60, 127
1, 4302, Note_on_c, 10, 57, 127
1, 4302, Note_on_c, 5, 77, 127
1, 4316, Note_off_c, 10, 81, 127
1, 4603, Note_off_c, 5, 77, 127
1, 4603, Note_off_c, 10, 57, 127
1, 4605, Note_on_c, 5, 53, 127
1, 4605, Note_on_c, 0, 72, 127
1, 4605, Note_on_c, 10, 81, 127
1, 4605, Note_on_c, 5, 77, 127
1, 4907, Note_off_c, 5, 77, 127
1, 4907, Note_off_c, 10, 81, 127
1, 4907, Note_off_c, 0, 72, 127
1, 4907, Note_off_c, 5, 53, 127
1, 4909, Note_on_c, 0, 48, 127
1, 4909, Note_on_c, 7, 79, 127
1, 4909, Note_on_c, 4, 76, 127
1, 4909, Note_on_c, 0, 72, 127
1, 5061, Note_on_c, 0, 84, 127
1, 5067, Note_off_c, 0, 72, 127
1, 5075, Note_off_c, 4, 76, 127
1, 5075, Note_off_c, 7, 79, 127
1, 5211, Note_off_c, 0, 48, 127
1, 5213, Note_on_c, 0, 60, 127
1, 5213, Note_on_c, 4, 76, 127
1, 5213, Note_on_c, 0, 72, 127
1, 5213, Note_on_c, 7, 79, 127
1, 5298, Note_off_c, 0, 84, 127
1, 5364, Note_on_c, 0, 84, 127
1, 5370, Note_off_c, 0, 72, 127
1, 5378, Note_off_c, 7, 79, 127
1, 5378, Note_off_c, 4, 76, 127
1, 5514, Note_off_c, 0, 60, 127
1, 5516, Note_on_c, 0, 60, 127
1, 5516, Note_on_c, 7, 79, 127
1, 5516, Note_on_c, 4, 76, 127
1, 5516, Note_on_c, 0, 72, 127
1, 5601, Note_off_c, 0, 84, 127
1, 5667, Note_on_c, 0, 84, 127
1, 5673, Note_off_c, 0, 72, 127
1, 5681, Note_off_c, 4, 76, 127
1, 5681, Note_off_c, 7, 79, 127
1, 5818, Note_on_c, 0, 48, 127
1, 5818, Note_on_c, 0, 72, 127
1, 5818, Note_on_c, 7, 79, 127
1, 5818, Note_on_c, 4, 76, 127
1, 5903, Note_off_c, 0, 84, 127
1, 5957, Note_off_c, 0, 60, 127
1, 5970, Note_on_c, 0, 84, 127
1, 5976, Note_off_c, 0, 72, 127
1, 5984, Note_off_c, 4, 76, 127
1, 5984, Note_off_c, 7, 79, 127
1, 6120, Note_off_c, 0, 48, 127
1, 6122, Note_on_c, 5, 53, 127
1, 6122, Note_on_c, 5, 77, 127
1, 6122, Note_on_c, 0, 72, 127
1, 6122, Note_on_c, 10, 81, 127
1, 6207, Note_off_c, 0, 84, 127
1, 6272, Note_off_c, 5, 53, 127
1, 6274, Note_on_c, 10, 57, 127
1, 6424, Note_off_c, 10, 57, 127
1, 6424, Note_off_c, 10, 81, 127
1, 6424, Note_off_c, 0, 72, 127
1, 6424, Note_off_c, 5, 77, 127
1, 6426, Note_on_c, 0, 48, 127
1, 6426, Note_on_c, 0, 84, 127
1, 6576, Note_off_c, 0, 48, 127
1, 6578, Note_on_c, 5, 53, 127
1, 6728, Note_off_c, 5, 53, 127
1, 6730, Note_on_c, 10, 45, 127
1, 6869, Note_off_c, 0, 84, 127
1, 6880, Note_off_c, 10, 45, 127
1, 6882, Note_on_c, 0, 48, 127
1, 7032, Note_off_c, 0, 48, 127
1, 7034, Note_on_c, 5, 41, 127
1, 7034, Note_on_c, 5, 77, 127
1, 7034, Note_on_c, 0, 72, 127
1, 7034, Note_on_c, 10, 81, 127
1, 7184, Note_off_c, 5, 41, 127
1, 7186, Note_on_c, 10, 45, 127
1, 7336, Note_off_c, 10, 45, 127
1, 7336, Note_off_c, 10, 81, 127
1, 7336, Note_off_c, 0, 72, 127
1, 7336, Note_off_c, 5, 77, 127
1, 7338, Note_on_c, 0, 36, 127
1, 7338, Note_on_c, 0, 72, 127
1, 7338, Note_on_c, 7, 79, 127
1, 7338, Note_on_c, 4, 76, 127
1, 7490, Note_on_c, 0, 84, 127
1, 7496, Note_off_c, 0, 72, 127
1, 7504, Note_off_c, 4, 76, 127
1, 7504, Note_off_c, 7, 79, 127
1, 7640, Note_off_c, 0, 36, 127
1, 7642, Note_on_c, 0, 48, 127
1, 7642, Note_on_c, 4, 76, 127
1, 7642, Note_on_c, 0, 72, 127
1, 7642, Note_on_c, 7, 79, 127
1, 7664, Note_off_c, 0, 84, 127
1, 7793, Note_on_c, 0, 84, 127
1, 7799, Note_off_c, 0, 72, 127
1, 7807, Note_off_c, 7, 79, 127
1, 7807, Note_off_c, 4, 76, 127
1, 7943, Note_off_c, 0, 48, 127
1, 7945, Note_on_c, 0, 48, 127
1, 7945, Note_on_c, 0, 72, 127
1, 7945, Note_on_c, 7, 79, 127
1, 7945, Note_on_c, 4, 76, 127
1, 7967, Note_off_c, 0, 84, 127
1, 8096, Note_on_c, 0, 84, 127
1, 8102, Note_off_c, 0, 72, 127
1, 8110, Note_off_c, 4, 76, 127
1, 8110, Note_off_c, 7, 79, 127
1, 8246, Note_off_c, 0, 48, 127
1, 8248, Note_on_c, 0, 36, 127
1, 8248, Note_on_c, 0, 72, 127
1, 8248, Note_on_c, 7, 79, 127
1, 8248, Note_on_c, 4, 76, 127
1, 8270, Note_off_c, 0, 84, 127
1, 8399, Note_on_c, 0, 84, 127
1, 8405, Note_off_c, 0, 72, 127
1, 8413, Note_off_c, 4, 76, 127
1, 8413, Note_off_c, 7, 79, 127
1, 8549, Note_off_c, 0, 36, 127
1, 8551, Note_on_c, 5, 41, 127
1, 8551, Note_on_c, 10, 81, 127
1, 8551, Note_on_c, 5, 77, 127
1, 8551, Note_on_c, 0, 72, 127
1, 8573, Note_off_c, 0, 84, 127
1, 8701, Note_off_c, 5, 41, 127
1, 8703, Note_on_c, 10, 45, 127
1, 8853, Note_off_c, 10, 45, 127
1, 8853, Note_off_c, 0, 72, 127
1, 8853, Note_off_c, 5, 77, 127
1, 8853, Note_off_c, 10, 81, 127
1, 8855, Note_on_c, 7, 43, 127
1, 8855, Note_on_c, 0, 84, 127
1, 9005, Note_off_c, 7, 43, 127
1, 9007, Note_on_c, 11, 46, 127
1, 9157, Note_off_c, 11, 46, 127
1, 9159, Note_on_c, 10, 45, 127
1, 9298, Note_off_c, 0, 84, 127
1, 9309, Note_off_c, 10, 45, 127
1, 9311, Note_on_c, 0, 48, 127
1, 9461, Note_off_c, 0, 48, 127
1, 9463, Note_on_c, 12, 47, 127
1, 9463, Note_on_c, 5, 77, 127
1, 9613, Note_off_c, 12, 47, 127
1, 9615, Note_on_c, 2, 50, 127
1, 9765, Note_off_c, 2, 50, 127
1, 9765, Note_off_c, 5, 77, 127
1, 9767, Note_on_c, 0, 48, 127
1, 9767, Note_on_c, 4, 76, 127
1, 9919, Note_on_c, 2, 74, 127
1, 9933, Note_off_c, 4, 76, 127
1, 10070, Note_on_c, 0, 60, 127
1, 10070, Note_on_c, 0, 72, 127
1, 10084, Note_off_c, 2, 74, 127
1, 10209, Note_off_c, 0, 48, 127
1, 10222, Note_on_c, 4, 76, 127
1, 10228, Note_off_c, 0, 72, 127
1, 10372, Note_off_c, 0, 60, 127
1, 10374, Note_on_c, 2, 50, 127
1, 10374, Note_on_c, 5, 77, 127
1, 10388, Note_off_c, 4, 76, 127
1, 10525, Note_on_c, 4, 76, 127
1, 10539, Note_off_c, 5, 77, 127
1, 10676, Note_on_c, 0, 60, 127
1, 10676, Note_on_c, 2, 74, 127
1, 10690, Note_off_c, 4, 76, 127
1, 10815, Note_off_c, 2, 50, 127
1, 10828, Note_on_c, 5, 77, 127
1, 10842, Note_off_c, 2, 74, 127
1, 10978, Note_off_c, 0, 60, 127
1, 10980, Note_on_c, 4, 52, 127
1, 10980, Note_on_c, 7, 79, 127
1, 10994, Note_off_c, 5, 77, 127
1, 11131, Note_on_c, 5, 77, 127
1, 11145, Note_off_c, 7, 79, 127
1, 11282, Note_on_c, 0, 60, 127
1, 11282, Note_on_c, 4, 76, 127
1, 11296, Note_off_c, 5, 77, 127
1, 11421, Note_off_c, 4, 52, 127
1, 11434, Note_on_c, 7, 79, 127
1, 11448, Note_off_c, 4, 76, 127
1, 11584, Note_off_c, 0, 60, 127
1, 11586, Note_on_c, 5, 53, 127
1, 11586, Note_on_c, 10, 81, 127
1, 11600, Note_off_c, 7, 79, 127
1, 11737, Note_on_c, 7, 79, 127
1, 11759, Note_off_c, 10, 81, 127
1, 11888, Note_on_c, 0, 60, 127
1, 11888, Note_on_c, 5, 77, 127
1, 11902, Note_off_c, 7, 79, 127
1, 12039, Note_on_c, 10, 81, 127
1, 12053, Note_off_c, 5, 77, 127
1, 12189, Note_off_c, 0, 60, 127
1, 12191, Note_on_c, 2, 62, 127
1, 12191, Note_on_c, 12, 83, 127
1, 12213, Note_off_c, 10, 81, 127
1, 12342, Note_on_c, 10, 81, 127
1, 12364, Note_off_c, 12, 83, 127
1, 12492, Note_off_c, 5, 53, 127
1, 12494, Note_on_c, 5, 53, 127
1, 12494, Note_on_c, 7, 79, 127
1, 12516, Note_off_c, 10, 81, 127
1, 12645, Note_on_c, 12, 83, 127
1, 12659, Note_off_c, 7, 79, 127
1, 12787, Note_off_c, 12, 83, 127
1, 12790, Note_off_c, 2, 62, 127
1, 12795, Note_off_c, 5, 53, 127
1, 12797, Note_on_c, 4, 52, 127
1, 12797, Note_on_c, 7, 55, 127
1, 12797, Note_on_c, 0, 84, 127
1, 13087, Note_off_c, 0, 84, 127
1, 13099, Note_off_c, 7, 55, 127
1, 13099, Note_off_c, 4, 52, 127
1, 13101, Note_on_c, 5, 53, 127
1, 13101, Note_on_c, 10, 57, 127
1, 13101, Note_on_c, 0, 72, 127
1, 13101, Note_on_c, 5, 77, 127
1, 13391, Note_off_c, 5, 77, 127
1, 13403, Note_off_c, 0, 72, 127
1, 13403, Note_off_c, 10, 57, 127
1, 13403, Note_off_c, 5, 53, 127
1, 13405, Note_on_c, 7, 55, 127
1, 13405, Note_on_c, 4, 76, 127
1, 13405, Note_on_c, 0, 72, 127
1, 14010, Note_off_c, 0, 72, 127
1, 14010, Note_off_c, 4, 76, 127
1, 14010, Note_off_c, 7, 55, 127
1, 14012, Note_on_c, 5, 53, 127
1, 14012, Note_on_c, 7, 43, 127
1, 14012, Note_on_c, 4, 76, 127
1, 14012, Note_on_c, 12, 71, 127
1, 14088, Note_on_c, 2, 74, 127
1, 14094, Note_off_c, 4, 76, 127
1, 14163, Note_on_c, 4, 76, 127
1, 14169, Note_off_c, 2, 74, 127
1, 14238, Note_on_c, 2, 74, 127
1, 14244, Note_off_c, 4, 76, 127
1, 14610, Note_off_c, 12, 71, 127
1, 14615, Note_off_c, 2, 74, 127
1, 14615, Note_off_c, 7, 43, 127
1, 14615, Note_off_c, 5, 53, 127
1, 14617, Note_on_c, 0, 48, 127
1, 14617, Note_on_c, 0, 72, 127
1, 14767, Note_off_c, 0, 72, 127
1, 14767, Note_off_c, 0, 48, 127
1, 14769, Note_on_c, 12, 71, 127
1, 14769, Note_on_c, 4, 52, 127
1, 14919, Note_off_c, 4, 52, 127
1, 14919, Note_off_c, 12, 71, 127
1, 14921, Note_on_c, 7, 55, 127
1, 14921, Note_on_c, 0, 72, 127
1, 15071, Note_off_c, 7, 55, 127
1, 15073, Note_on_c, 4, 52, 127
1, 15223, Note_off_c, 4, 52, 127
1, 15225, Note_on_c, 0, 48, 127
1, 15301, Note_off_c, 0, 72, 127
1, 15375, Note_off_c, 0, 48, 127
1, 15377, Note_on_c, 7, 55, 127
1, 15377, Note_on_c, 0, 60, 127
1, 15527, Note_off_c, 0, 60, 127
1, 15527, Note_off_c, 7, 55, 127
1, 15529, Note_on_c, 11, 46, 127
1, 15529, Note_on_c, 2, 62, 127
1, 15679, Note_off_c, 2, 62, 127
1, 15679, Note_off_c, 11, 46, 127
1, 15681, Note_on_c, 7, 55, 127
1, 15681, Note_on_c, 4, 64, 127
1, 15831, Note_off_c, 4, 64, 127
1, 15831, Note_off_c, 7, 55, 127
1, 15833, Note_on_c, 10, 45, 127
1, 15833, Note_on_c, 5, 65, 127
1, 15983, Note_off_c, 10, 45, 127
1, 15985, Note_on_c, 0, 48, 127
1, 15985, Note_on_c, 7, 67, 127
1, 15999, Note_off_c, 5, 65, 127
1, 16135, Note_off_c, 0, 48, 127
1, 16137, Note_on_c, 5, 53, 127
1, 16137, Note_on_c, 10, 69, 127
1, 16143, Note_off_c, 7, 67, 127
1, 16287, Note_off_c, 5, 53, 127
1, 16289, Note_on_c, 0, 48, 127
1, 16289, Note_on_c, 11, 70, 127
1, 16295, Note_off_c, 10, 69, 127
1, 16439, Note_off_c, 0, 48, 127
1, 16441, Note_on_c, 10, 45, 127
1, 16441, Note_on_c, 0, 72, 127
1, 16447, Note_off_c, 11, 70, 127
1, 16591, Note_off_c, 10, 45, 127
1, 16593, Note_on_c, 5, 53, 127
1, 16743, Note_off_c, 5, 53, 127
1, 16743, Note_off_c, 0, 72, 127
1, 16745, Note_on_c, 10, 45, 127
1, 16745, Note_on_c, 3, 63, 127
1, 16895, Note_off_c, 10, 45, 127
1, 16897, Note_on_c, 5, 53, 127
1, 17047, Note_off_c, 5, 53, 127
1, 17047, Note_off_c, 3, 63, 127
1, 17049, Note_on_c, 11, 46, 127
1, 17049, Note_on_c, 5, 65, 127
1, 17125, Note_on_c, 3, 63, 127
1, 17131, Note_off_c, 5, 65, 127
1, 17199, Note_off_c, 11, 46, 127
1, 17201, Note_on_c, 2, 50, 127
1, 17201, Note_on_c, 5, 65, 127
1, 17207, Note_off_c, 3, 63, 127
1, 17276, Note_on_c, 3, 63, 127
1, 17282, Note_off_c, 5, 65, 127
1, 17350, Note_off_c, 2, 50, 127
1, 17352, Note_on_c, 5, 53, 127
1, 17352, Note_on_c, 2, 62, 127
1, 17358, Note_off_c, 3, 63, 127
1, 17502, Note_off_c, 5, 53, 127
1, 17504, Note_on_c, 2, 50, 127
1, 17652, Note_off_c, 2, 62, 127
1, 17654, Note_off_c, 2, 50, 127
1, 17656, Note_on_c, 11, 46, 127
1, 17806, Note_off_c, 11, 46, 127
1, 17808, Note_on_c, 5, 53, 127
1, 17808, Note_on_c, 2, 62, 127
1, 17958, Note_off_c, 2, 62, 127
1, 17958, Note_off_c, 5, 53, 127
1, 17960, Note_on_c, 11, 46, 127
1, 17960, Note_on_c, 4, 64, 127
1, 18110, Note_off_c, 4, 64, 127
1, 18110, Note_off_c, 11, 46, 127
1, 18112, Note_on_c, 5, 53, 127
1, 18112, Note_on_c, 5, 65, 127
1, 18262, Note_off_c, 5, 65, 127
1, 18262, Note_off_c, 5, 53, 127
1, 18264, Note_on_c, 12, 47, 127
1, 18264, Note_on_c, 7, 67, 127
1, 18414, Note_off_c, 12, 47, 127
1, 18416, Note_on_c, 2, 50, 127
1, 18416, Note_on_c, 10, 69, 127
1, 18422, Note_off_c, 7, 67, 127
1, 18566, Note_off_c, 2, 50, 127
1, 18568, Note_on_c, 7, 55, 127
1, 18568, Note_on_c, 12, 71, 127
1, 18574, Note_off_c, 10, 69, 127
1, 18718, Note_off_c, 7, 55, 127
1, 18720, Note_on_c, 2, 50, 127
1, 18720, Note_on_c, 0, 72, 127
1, 18726, Note_off_c, 12, 71, 127
1, 18870, Note_off_c, 2, 50, 127
1, 18872, Note_on_c, 12, 47, 127
1, 18872, Note_on_c, 2, 74, 127
1, 18878, Note_off_c, 0, 72, 127
1, 19022, Note_off_c, 12, 47, 127
1, 19024, Note_on_c, 7, 55, 127
1, 19162, Note_off_c, 2, 74, 127
1, 19174, Note_off_c, 7, 55, 127
1, 19176, Note_on_c, 12, 47, 127
1, 19176, Note_on_c, 5, 65, 127
1, 19326, Note_off_c, 12, 47, 127
1, 19328, Note_on_c, 7, 55, 127
1, 19456, Note_off_c, 5, 65, 127
1, 19478, Note_off_c, 7, 55, 127
1, 19480, Note_on_c, 0, 48, 127
1, 19480, Note_on_c, 7, 67, 127
1, 19556, Note_on_c, 5, 65, 127
1, 19562, Note_off_c, 7, 67, 127
1, 19630, Note_off_c, 0, 48, 127
1, 19632, Note_on_c, 4, 52, 127
1, 19632, Note_on_c, 7, 67, 127
1, 19638, Note_off_c, 5, 65, 127
1, 19707, Note_on_c, 5, 65, 127
1, 19713, Note_off_c, 7, 67, 127
1, 19781, Note_off_c, 4, 52, 127
1, 19783, Note_on_c, 7, 55, 127
1, 19783, Note_on_c, 4, 64, 127
1, 19789, Note_off_c, 5, 65, 127
1, 19933, Note_off_c, 7, 55, 127
1, 19935, Note_on_c, 4, 52, 127
1, 20083, Note_off_c, 4, 64, 127
1, 20085, Note_off_c, 4, 52, 127
1, 20087, Note_on_c, 0, 48, 127
1, 20237, Note_off_c, 0, 48, 127
1, 20239, Note_on_c, 7, 55, 127
1, 20239, Note_on_c, 4, 64, 127
1, 20389, Note_off_c, 4, 64, 127
1, 20389, Note_off_c, 7, 55, 127
1, 20391, Note_on_c, 0, 48, 127
1, 20391, Note_on_c, 5, 65, 127
1, 20541, Note_off_c, 5, 65, 127
1, 20541, Note_off_c, 0, 48, 127
1, 20543, Note_on_c, 7, 55, 127
1, 20543, Note_on_c, 7, 67, 127
1, 20693, Note_off_c, 7, 55, 127
1, 20695, Note_on_c, 0, 48, 127
1, 20695, Note_on_c, 10, 69, 127
1, 20701, Note_off_c, 7, 67, 127
1, 20845, Note_off_c, 0, 48, 127
1, 20847, Note_on_c, 4, 52, 127
1, 20847, Note_on_c, 12, 71, 127
1, 20853, Note_off_c, 10, 69, 127
1, 20997, Note_off_c, 4, 52, 127
1, 20999, Note_on_c, 10, 57, 127
1, 20999, Note_on_c, 0, 72, 127
1, 21005, Note_off_c, 12, 71, 127
1, 21149, Note_off_c, 10, 57, 127
1, 21151, Note_on_c, 4, 52, 127
1, 21151, Note_on_c, 2, 74, 127
1, 21157, Note_off_c, 0, 72, 127
1, 21301, Note_off_c, 4, 52, 127
1, 21303, Note_on_c, 0, 48, 127
1, 21303, Note_on_c, 4, 76, 127
1, 21317, Note_off_c, 2, 74, 127
1, 21453, Note_off_c, 0, 48, 127
1, 21455, Note_on_c, 10, 57, 127
1, 21563, Note_off_c, 4, 76, 127
1, 21605, Note_off_c, 10, 57, 127
1, 21607, Note_on_c, 0, 48, 127
1, 21607, Note_on_c, 7, 67, 127
1, 21757, Note_off_c, 0, 48, 127
1, 21759, Note_on_c, 10, 57, 127
1, 21867, Note_off_c, 7, 67, 127
1, 21909, Note_off_c, 10, 57, 127
1, 21911, Note_on_c, 2, 50, 127
1, 21911, Note_on_c, 10, 69, 127
1, 21987, Note_on_c, 7, 67, 127
1, 21993, Note_off_c, 10, 69, 127
1, 22061, Note_off_c, 2, 50, 127
1, 22063, Note_on_c, 5, 53, 127
1, 22063, Note_on_c, 10, 69, 127
1, 22069, Note_off_c, 7, 67, 127
1, 22138, Note_on_c, 7, 67, 127
1, 22144, Note_off_c, 10, 69, 127
1, 22212, Note_off_c, 5, 53, 127
1, 22214, Note_on_c, 10, 57, 127
1, 22214, Note_on_c, 5, 65, 127
1, 22220, Note_off_c, 7, 67, 127
1, 22364, Note_off_c, 10, 57, 127
1, 22366, Note_on_c, 5, 53, 127
1, 22514, Note_off_c, 5, 65, 127
1, 22516, Note_off_c, 5, 53, 127
1, 22518, Note_on_c, 2, 50, 127
1, 22668, Note_off_c, 2, 50, 127
1, 22670, Note_on_c, 10, 57, 127
1, 22670, Note_on_c, 5, 65, 127
1, 22820, Note_off_c, 5, 65, 127
1, 22820, Note_off_c, 10, 57, 127
1, 22822, Note_on_c, 2, 50, 127
1, 22822, Note_on_c, 7, 67, 127
1, 22972, Note_off_c, 2, 50, 127
1, 22974, Note_on_c, 10, 57, 127
1, 22974, Note_on_c, 10, 69, 127
1, 22980, Note_off_c, 7, 67, 127
1, 23124, Note_off_c, 10, 57, 127
1, 23126, Note_on_c, 2, 50, 127
1, 23126, Note_on_c, 11, 70, 127
1, 23132, Note_off_c, 10, 69, 127
1, 23276, Note_off_c, 2, 50, 127
1, 23278, Note_on_c, 5, 53, 127
1, 23278, Note_on_c, 0, 72, 127
1, 23284, Note_off_c, 11, 70, 127
1, 23428, Note_off_c, 5, 53, 127
1, 23430, Note_on_c, 11, 58, 127
1, 23430, Note_on_c, 2, 74, 127
1, 23436, Note_off_c, 0, 72, 127
1, 23580, Note_off_c, 11, 58, 127
1, 23582, Note_on_c, 5, 53, 127
1, 23582, Note_on_c, 4, 76, 127
1, 23596, Note_off_c, 2, 74, 127
1, 23732, Note_off_c, 5, 53, 127
1, 23734, Note_on_c, 2, 50, 127
1, 23734, Note_on_c, 5, 77, 127
1, 23748, Note_off_c, 4, 76, 127
1, 23884, Note_off_c, 2, 50, 127
1, 23886, Note_on_c, 11, 58, 127
1, 23974, Note_off_c, 5, 77, 127
1, 24036, Note_off_c, 11, 58, 127
1, 24038, Note_on_c, 2, 50, 127
1, 24038, Note_on_c, 10, 69, 127
1, 24188, Note_off_c, 2, 50, 127
1, 24190, Note_on_c, 11, 58, 127
1, 24258, Note_off_c, 10, 69, 127
1, 24340, Note_off_c, 11, 58, 127
1, 24342, Note_on_c, 4, 52, 127
1, 24342, Note_on_c, 11, 70, 127
1, 24418, Note_on_c, 10, 69, 127
1, 24424, Note_off_c, 11, 70, 127
1, 24492, Note_off_c, 4, 52, 127
1, 24494, Note_on_c, 7, 55, 127
1, 24494, Note_on_c, 11, 70, 127
1, 24500, Note_off_c, 10, 69, 127
1, 24569, Note_on_c, 10, 69, 127
1, 24575, Note_off_c, 11, 70, 127
1, 24643, Note_off_c, 7, 55, 127
1, 24645, Note_on_c, 11, 58, 127
1, 24645, Note_on_c, 7, 67, 127
1, 24651, Note_off_c, 10, 69, 127
1, 24795, Note_off_c, 11, 58, 127
1, 24797, Note_on_c, 7, 55, 127
1, 24945, Note_off_c, 7, 67, 127
1, 24947, Note_off_c, 7, 55, 127
1, 24949, Note_on_c, 4, 52, 127
1, 25099, Note_off_c, 4, 52, 127
1, 25101, Note_on_c, 11, 58, 127
1, 25101, Note_on_c, 7, 67, 127
1, 25251, Note_off_c, 11, 58, 127
1, 25253, Note_on_c, 4, 52, 127
1, 25253, Note_on_c, 10, 69, 127
1, 25259, Note_off_c, 7, 67, 127
1, 25403, Note_off_c, 4, 52, 127
1, 25405, Note_on_c, 7, 55, 127
1, 25405, Note_on_c, 11, 70, 127
1, 25411, Note_off_c, 10, 69, 127
1, 25555, Note_off_c, 7, 55, 127
1, 25557, Note_on_c, 4, 52, 127
1, 25557, Note_on_c, 0, 72, 127
1, 25563, Note_off_c, 11, 70, 127
1, 25707, Note_off_c, 4, 52, 127
1, 25709, Note_on_c, 7, 55, 127
1, 25709, Note_on_c, 2, 74, 127
1, 25715, Note_off_c, 0, 72, 127
1, 25859, Note_off_c, 7, 55, 127
1, 25861, Note_on_c, 0, 60, 127
1, 25861, Note_on_c, 4, 76, 127
1, 25875, Note_off_c, 2, 74, 127
1, 26011, Note_off_c, 0, 60, 127
1, 26013, Note_on_c, 7, 55, 127
1, 26013, Note_on_c, 5, 77, 127
1, 26027, Note_off_c, 4, 76, 127
1, 26155, Note_off_c, 5, 77, 127
1, 26163, Note_off_c, 7, 55, 127
1, 26165, Note_on_c, 4, 52, 127
1, 26165, Note_on_c, 7, 79, 127
1, 26315, Note_off_c, 4, 52, 127
1, 26317, Note_on_c, 0, 60, 127
1, 26467, Note_off_c, 0, 60, 127
1, 26469, Note_on_c, 4, 52, 127
1, 26469, Note_on_c, 11, 70, 127
1, 26608, Note_off_c, 7, 79, 127
1, 26619, Note_off_c, 4, 52, 127
1, 26621, Note_on_c, 0, 60, 127
1, 26759, Note_off_c, 11, 70, 127
1, 26771, Note_off_c, 0, 60, 127
1, 26773, Note_on_c, 5, 53, 127
1, 26773, Note_on_c, 10, 69, 127
1, 26925, Note_on_c, 5, 77, 127
1, 26939, Note_off_c, 10, 69, 127
1, 27075, Note_off_c, 5, 53, 127
1, 27077, Note_on_c, 0, 60, 127
1, 27077, Note_on_c, 4, 76, 127
1, 27091, Note_off_c, 5, 77, 127
1, 27228, Note_on_c, 5, 77, 127
1, 27242, Note_off_c, 4, 76, 127
1, 27378, Note_off_c, 0, 60, 127
1, 27380, Note_on_c, 5, 65, 127
1, 27380, Note_on_c, 0, 72, 127
1, 27394, Note_off_c, 5, 77, 127
1, 27531, Note_on_c, 5, 77, 127
1, 27545, Note_off_c, 0, 72, 127
1, 27681, Note_off_c, 5, 65, 127
1, 27683, Note_on_c, 10, 57, 127
1, 27683, Note_on_c, 4, 76, 127
1, 27697, Note_off_c, 5, 77, 127
1, 27834, Note_on_c, 5, 77, 127
1, 27848, Note_off_c, 4, 76, 127
1, 27984, Note_off_c, 10, 57, 127
1, 27986, Note_on_c, 11, 58, 127
1, 27986, Note_on_c, 2, 74, 127
1, 28000, Note_off_c, 5, 77, 127
1, 28137, Note_on_c, 5, 77, 127
1, 28151, Note_off_c, 2, 74, 127
1, 28287, Note_off_c, 11, 58, 127
1, 28289, Note_on_c, 2, 62, 127
1, 28289, Note_on_c, 4, 76, 127
1, 28303, Note_off_c, 5, 77, 127
1, 28440, Note_on_c, 5, 77, 127
1, 28454, Note_off_c, 4, 76, 127
1, 28590, Note_off_c, 2, 62, 127
1, 28592, Note_on_c, 5, 65, 127
1, 28592, Note_on_c, 2, 74, 127
1, 28606, Note_off_c, 5, 77, 127
1, 28743, Note_on_c, 5, 77, 127
1, 28757, Note_off_c, 2, 74, 127
1, 28893, Note_off_c, 5, 65, 127
1, 28895, Note_on_c, 11, 58, 127
1, 28895, Note_on_c, 4, 76, 127
1, 28909, Note_off_c, 5, 77, 127
1, 29046, Note_on_c, 5, 77, 127
1, 29060, Note_off_c, 4, 76, 127
1, 29196, Note_off_c, 11, 58, 127
1, 29198, Note_on_c, 10, 57, 127
1, 29198, Note_on_c, 0, 72, 127
1, 29212, Note_off_c, 5, 77, 127
1, 29349, Note_on_c, 5, 77, 127
1, 29363, Note_off_c, 0, 72, 127
1, 29499, Note_off_c, 10, 57, 127
1, 29501, Note_on_c, 0, 60, 127
1, 29501, Note_on_c, 4, 76, 127
1, 29515, Note_off_c, 5, 77, 127
1, 29652, Note_on_c, 5, 77, 127
1, 29666, Note_off_c, 4, 76, 127
1, 29802, Note_off_c, 0, 60, 127
1, 29804, Note_on_c, 5, 65, 127
1, 29804, Note_on_c, 0, 72, 127
1, 29818, Note_off_c, 5, 77, 127
1, 29955, Note_on_c, 5, 77, 127
1, 29969, Note_off_c, 0, 72, 127
1, 30105, Note_off_c, 5, 65, 127
1, 30107, Note_on_c, 10, 57, 127
1, 30107, Note_on_c, 4, 76, 127
1, 30121, Note_off_c, 5, 77, 127
1, 30258, Note_on_c, 5, 77, 127
1, 30272, Note_off_c, 4, 76, 127
1, 30408, Note_off_c, 10, 57, 127
1, 30410, Note_on_c, 11, 58, 127
1, 30410, Note_on_c, 2, 74, 127
1, 30424, Note_off_c, 5, 77, 127
1, 30561, Note_on_c, 5, 77, 127
1, 30567, Note_off_c, 2, 74, 127
1, 30711, Note_off_c, 11, 58, 127
1, 30713, Note_on_c, 2, 62, 127
1, 30713, Note_on_c, 4, 76, 127
1, 30727, Note_off_c, 5, 77, 127
1, 30864, Note_on_c, 5, 77, 127
1, 30878, Note_off_c, 4, 76, 127
1, 31014, Note_off_c, 2, 62, 127
1, 31016, Note_on_c, 5, 65, 127
1, 31016, Note_on_c, 2, 74, 127
1, 31030, Note_off_c, 5, 77, 127
1, 31167, Note_on_c, 5, 77, 127
1, 31173, Note_off_c, 2, 74, 127
1, 31317, Note_off_c, 5, 65, 127
1, 31319, Note_on_c, 11, 58, 127
1, 31319, Note_on_c, 4, 76, 127
1, 31333, Note_off_c, 5, 77, 127
1, 31470, Note_on_c, 5, 77, 127
1, 31484, Note_off_c, 4, 76, 127
1, 31620, Note_off_c, 11, 58, 127
1, 31622, Note_on_c, 10, 57, 127
1, 31622, Note_on_c, 0, 72, 127
1, 31636, Note_off_c, 5, 77, 127
1, 31773, Note_on_c, 5, 77, 127
1, 31779, Note_off_c, 0, 72, 127
1, 31923, Note_off_c, 10, 57, 127
1, 31925, Note_on_c, 0, 60, 127
1, 31925, Note_on_c, 4, 76, 127
1, 31939, Note_off_c, 5, 77, 127
1, 32076, Note_on_c, 5, 77, 127
1, 32090, Note_off_c, 4, 76, 127
1, 32226, Note_off_c, 0, 60, 127
1, 32228, Note_on_c, 5, 65, 127
1, 32228, Note_on_c, 0, 72, 127
1, 32242, Note_off_c, 5, 77, 127
1, 32379, Note_on_c, 5, 77, 127
1, 32385, Note_off_c, 0, 72, 127
1, 32529, Note_off_c, 5, 65, 127
1, 32531, Note_on_c, 10, 57, 127
1, 32531, Note_on_c, 4, 76, 127
1, 32545, Note_off_c, 5, 77, 127
1, 32682, Note_on_c, 5, 77, 127
1, 32696, Note_off_c, 4, 76, 127
1, 32832, Note_off_c, 10, 57, 127
1, 32834, Note_on_c, 7, 55, 127
1, 32834, Note_on_c, 11, 70, 127
1, 32848, Note_off_c, 5, 77, 127
1, 32985, Note_on_c, 5, 77, 127
1, 32999, Note_off_c, 11, 70, 127
1, 33135, Note_off_c, 7, 55, 127
1, 33137, Note_on_c, 11, 58, 127
1, 33137, Note_on_c, 4, 76, 127
1, 33151, Note_off_c, 5, 77, 127
1, 33288, Note_on_c, 5, 77, 127
1, 33302, Note_off_c, 4, 76, 127
1, 33438, Note_off_c, 11, 58, 127
1, 33440, Note_on_c, 4, 64, 127
1, 33440, Note_on_c, 11, 70, 127
1, 33454, Note_off_c, 5, 77, 127
1, 33591, Note_on_c, 5, 77, 127
1, 33605, Note_off_c, 11, 70, 127
1, 33741, Note_off_c, 4, 64, 127
1, 33743, Note_on_c, 7, 55, 127
1, 33743, Note_on_c, 4, 76, 127
1, 33757, Note_off_c, 5, 77, 127
1, 33894, Note_on_c, 5, 77, 127
1, 33908, Note_off_c, 4, 76, 127
1, 34044, Note_off_c, 7, 55, 127
1, 34046, Note_on_c, 5, 53, 127
1, 34046, Note_on_c, 10, 69, 127
1, 34060, Note_off_c, 5, 77, 127
1, 34197, Note_on_c, 5, 77, 127
1, 34219, Note_off_c, 10, 69, 127
1, 34347, Note_off_c, 5, 53, 127
1, 34349, Note_on_c, 10, 57, 127
1, 34349, Note_on_c, 4, 76, 127
1, 34363, Note_off_c, 5, 77, 127
1, 34500, Note_on_c, 5, 77, 127
1, 34514, Note_off_c, 4, 76, 127
1, 34650, Note_off_c, 10, 57, 127
1, 34652, Note_on_c, 5, 65, 127
1, 34652, Note_on_c, 10, 69, 127
1, 34666, Note_off_c, 5, 77, 127
1, 34803, Note_on_c, 5, 77, 127
1, 34825, Note_off_c, 10, 69, 127
1, 34953, Note_off_c, 5, 65, 127
1, 34955, Note_on_c, 10, 57, 127
1, 34955, Note_on_c, 4, 76, 127
1, 34969, Note_off_c, 5, 77, 127
1, 35106, Note_on_c, 5, 77, 127
1, 35120, Note_off_c, 4, 76, 127
1, 35256, Note_off_c, 10, 57, 127
1, 35258, Note_on_c, 11, 58, 127
1, 35258, Note_on_c, 7, 67, 127
1, 35272, Note_off_c, 5, 77, 127
1, 35409, Note_on_c, 5, 77, 127
1, 35447, Note_off_c, 7, 67, 127
1, 35559, Note_off_c, 11, 58, 127
1, 35561, Note_on_c, 7, 55, 127
1, 35561, Note_on_c, 4, 76, 127
1, 35575, Note_off_c, 5, 77, 127
1, 35712, Note_on_c, 5, 77, 127
1, 35726, Note_off_c, 4, 76, 127
1, 35862, Note_off_c, 7, 55, 127
1, 35864, Note_on_c, 0, 60, 127
1, 35864, Note_on_c, 7, 67, 127
1, 35878, Note_off_c, 5, 77, 127
1, 36015, Note_on_c, 4, 76, 127
1, 36053, Note_off_c, 7, 67, 127
1, 36165, Note_off_c, 0, 60, 127
1, 36167, Note_on_c, 0, 48, 127
1, 36167, Note_on_c, 2, 74, 127
1, 36181, Note_off_c, 4, 76, 127
1, 36318, Note_on_c, 4, 76, 127
1, 36332, Note_off_c, 2, 74, 127
1, 36460, Note_off_c, 4, 76, 127
1, 36468, Note_off_c, 0, 48, 127
1, 36473, Note_on_c, 5, 77, 127
1, 36473, Note_on_c, 5, 53, 127
1, 36775, Note_off_c, 5, 77, 127
1, 36790, Note_on_c, 4, 76, 127
1, 36942, Note_on_c, 2, 74, 127
1, 36956, Note_off_c, 4, 76, 127
1, 37093, Note_on_c, 0, 72, 127
1, 37107, Note_off_c, 2, 74, 127
1, 37394, Note_off_c, 0, 72, 127
1, 37396, Note_on_c, 11, 70, 127
1, 37685, Note_off_c, 5, 53, 127
1, 37698, Note_off_c, 11, 70, 127
1, 37700, Note_on_c, 10, 69, 127
1, 38002, Note_off_c, 10, 69, 127
1, 38004, Note_on_c, 5, 65, 127
1, 38306, Note_off_c, 5, 65, 127
1, 38308, Note_on_c, 10, 69, 127
1, 38610, Note_off_c, 10, 69, 127
1, 38612, Note_on_c, 0, 72, 127
1, 38914, Note_off_c, 0, 72, 127
1, 38916, Note_on_c, 10, 69, 127
1, 38916, Note_on_c, 5, 77, 127
1, 38916, Note_on_c, 0, 72, 127
1, 38916, Note_on_c, 5, 65, 127
1, 39218, Note_off_c, 5, 65, 127
1, 39220, Note_on_c, 4, 64, 127
1, 39370, Note_off_c, 4, 64, 127
1, 39372, Note_on_c, 2, 62, 127
1, 39522, Note_off_c, 2, 62, 127
1, 39522, Note_off_c, 0, 72, 127
1, 39522, Note_off_c, 5, 77, 127
1, 39522, Note_off_c, 10, 69, 127
1, 39524, Note_on_c, 7, 79, 127
1, 39524, Note_on_c, 0, 72, 127
1, 39524, Note_on_c, 4, 76, 127
1, 39524, Note_on_c, 0, 60, 127
1, 39674, Note_off_c, 0, 60, 127
1, 39676, Note_on_c, 11, 58, 127
1, 39826, Note_off_c, 11, 58, 127
1, 39828, Note_on_c, 10, 57, 127
1, 39978, Note_off_c, 10, 57, 127
1, 39980, Note_on_c, 7, 55, 127
1, 40130, Note_off_c, 7, 55, 127
1, 40130, Note_off_c, 4, 76, 127
1, 40130, Note_off_c, 0, 72, 127
1, 40130, Note_off_c, 7, 79, 127
1, 40132, Note_on_c, 0, 72, 127
1, 40132, Note_on_c, 10, 81, 127
1, 40132, Note_on_c, 5, 77, 127
1, 40132, Note_on_c, 5, 53, 127
1, 40434, Note_off_c, 5, 53, 127
1, 40434, Note_off_c, 5, 77, 127
1, 40434, Note_off_c, 10, 81, 127
1, 40436, Note_on_c, 7, 79, 127
1, 40436, Note_on_c, 0, 60, 127
1, 40588, Note_on_c, 10, 81, 127
1, 40602, Note_off_c, 7, 79, 127
1, 40738, Note_off_c, 0, 60, 127
1, 40740, Note_on_c, 5, 77, 127
1, 40740, Note_on_c, 10, 57, 127
1, 40746, Note_off_c, 10, 81, 127
1, 41041, Note_off_c, 10, 57, 127
1, 41041, Note_off_c, 5, 77, 127
1, 41041, Note_off_c, 0, 72, 127
1, 41043, Note_on_c, 10, 81, 127
1, 41043, Note_on_c, 0, 72, 127
1, 41043, Note_on_c, 5, 77, 127
1, 41043, Note_on_c, 5, 53, 127
1, 41345, Note_off_c, 5, 53, 127
1, 41345, Note_off_c, 5, 77, 127
1, 41345, Note_off_c, 0, 72, 127
1, 41345, Note_off_c, 10, 81, 127
1, 41347, Note_on_c, 7, 79, 127
1, 41347, Note_on_c, 4, 76, 127
1, 41347, Note_on_c, 0, 72, 127
1, 41347, Note_on_c, 0, 60, 127
1, 41499, Note_on_c, 0, 84, 127
1, 41513, Note_off_c, 4, 76, 127
1, 41513, Note_off_c, 7, 79, 127
1, 41647, Note_off_c, 0, 72, 127
1, 41649, Note_off_c, 0, 60, 127
1, 41651, Note_on_c, 4, 76, 127
1, 41651, Note_on_c, 7, 79, 127
1, 41651, Note_on_c, 0, 72, 127
1, 41705, Note_off_c, 0, 84, 127
1, 41803, Note_on_c, 0, 84, 127
1, 41817, Note_off_c, 7, 79, 127
1, 41817, Note_off_c, 4, 76, 127
1, 41953, Note_off_c, 0, 72, 127
1, 41955, Note_on_c, 7, 79, 127
1, 41955, Note_on_c, 4, 76, 127
1, 41955, Note_on_c, 0, 72, 127
1, 42009, Note_off_c, 0, 84, 127
1, 42107, Note_on_c, 0, 84, 127
1, 42121, Note_off_c, 4, 76, 127
1, 42121, Note_off_c, 7, 79, 127
1, 42257, Note_off_c, 0, 72, 127
1, 42259, Note_on_c, 7, 79, 127
1, 42259, Note_on_c, 0, 72, 127
1, 42259, Note_on_c, 4, 76, 127
1, 42259, Note_on_c, 0, 60, 127
1, 42313, Note_off_c, 0, 84, 127
1, 42411, Note_on_c, 0, 84, 127
1, 42425, Note_off_c, 4, 76, 127
1, 42425, Note_off_c, 7, 79, 127
1, 42559, Note_off_c, 0, 72, 127
1, 42561, Note_off_c, 0, 60, 127
1, 42563, Note_on_c, 10, 81, 127
1, 42563, Note_on_c, 0, 72, 127
1, 42563, Note_on_c, 5, 77, 127
1, 42563, Note_on_c, 5, 65, 127
1, 42617, Note_off_c, 0, 84, 127
1, 42713, Note_off_c, 5, 65, 127
1, 42715, Note_on_c, 10, 69, 127
1, 42865, Note_off_c, 10, 69, 127
1, 42865, Note_off_c, 5, 77, 127
1, 42865, Note_off_c, 0, 72, 127
1, 42865, Note_off_c, 10, 81, 127
1, 42867, Note_on_c, 0, 84, 127
1, 42867, Note_on_c, 0, 60, 127
1, 43017, Note_off_c, 0, 60, 127
1, 43019, Note_on_c, 5, 65, 127
1, 43169, Note_off_c, 5, 65, 127
1, 43171, Note_on_c, 10, 57, 127
1, 43310, Note_off_c, 0, 84, 127
1, 43321, Note_off_c, 10, 57, 127
1, 43323, Note_on_c, 0, 60, 127
1, 43473, Note_off_c, 0, 60, 127
1, 43475, Note_on_c, 10, 81, 127
1, 43475, Note_on_c, 5, 77, 127
1, 43475, Note_on_c, 0, 72, 127
1, 43475, Note_on_c, 5, 53, 127
1, 43625, Note_off_c, 5, 53, 127
1, 43627, Note_on_c, 10, 57, 127
1, 43777, Note_off_c, 10, 57, 127
1, 43777, Note_off_c, 0, 72, 127
1, 43777, Note_off_c, 5, 77, 127
1, 43777, Note_off_c, 10, 81, 127
1, 43779, Note_on_c, 7, 79, 127
1, 43779, Note_on_c, 4, 76, 127
1, 43779, Note_on_c, 0, 72, 127
1, 43779, Note_on_c, 0, 48, 127
1, 43931, Note_on_c, 0, 84, 127
1, 43945, Note_off_c, 4, 76, 127
1, 43945, Note_off_c, 7, 79, 127
1, 44079, Note_off_c, 0, 72, 127
1, 44081, Note_off_c, 0, 48, 127
1, 44083, Note_on_c, 7, 79, 127
1, 44083, Note_on_c, 4, 76, 127
1, 44083, Note_on_c, 0, 72, 127
1, 44083, Note_on_c, 0, 60, 127
1, 44105, Note_off_c, 0, 84, 127
1, 44234, Note_on_c, 0, 84, 127
1, 44248, Note_off_c, 4, 76, 127
1, 44248, Note_off_c, 7, 79, 127
1, 44382, Note_off_c, 0, 72, 127
1, 44384, Note_off_c, 0, 60, 127
1, 44386, Note_on_c, 7, 79, 127
1, 44386, Note_on_c, 0, 72, 127
1, 44386, Note_on_c, 4, 76, 127
1, 44386, Note_on_c, 0, 60, 127
1, 44408, Note_off_c, 0, 84, 127
1, 44537, Note_on_c, 0, 84, 127
1, 44551, Note_off_c, 4, 76, 127
1, 44551, Note_off_c, 7, 79, 127
1, 44685, Note_off_c, 0, 72, 127
1, 44687, Note_off_c, 0, 60, 127
1, 44689, Note_on_c, 0, 72, 127
1, 44689, Note_on_c, 4, 76, 127
1, 44689, Note_on_c, 7, 79, 127
1, 44689, Note_on_c, 0, 48, 127
1, 44711, Note_off_c, 0, 84, 127
1, 44840, Note_on_c, 0, 84, 127
1, 44854, Note_off_c, 7, 79, 127
1, 44854, Note_off_c, 4, 76, 127
1, 44988, Note_off_c, 0, 72, 127
1, 44990, Note_off_c, 0, 48, 127
1, 44992, Note_on_c, 0, 72, 127
1, 44992, Note_on_c, 5, 77, 127
1, 44992, Note_on_c, 10, 81, 127
1, 44992, Note_on_c, 5, 53, 127
1, 45014, Note_off_c, 0, 84, 127
1, 45142, Note_off_c, 5, 53, 127
1, 45144, Note_on_c, 10, 57, 127
1, 45294, Note_off_c, 10, 57, 127
1, 45294, Note_off_c, 10, 81, 127
1, 45294, Note_off_c, 5, 77, 127
1, 45294, Note_off_c, 0, 72, 127
1, 45296, Note_on_c, 0, 84, 127
1, 45296, Note_on_c, 0, 48, 127
1, 45446, Note_off_c, 0, 48, 127
1, 45448, Note_on_c, 5, 53, 127
1, 45598, Note_off_c, 5, 53, 127
1, 45600, Note_on_c, 10, 45, 127
1, 45739, Note_off_c, 0, 84, 127
1, 45750, Note_off_c, 10, 45, 127
1, 45752, Note_on_c, 0, 48, 127
1, 45902, Note_off_c, 0, 48, 127
1, 45904, Note_on_c, 10, 81, 127
1, 45904, Note_on_c, 5, 41, 127
1, 46054, Note_off_c, 5, 41, 127
1, 46056, Note_on_c, 10, 45, 127
1, 46206, Note_off_c, 10, 45, 127
1, 46206, Note_off_c, 10, 81, 127
1, 46208, Note_on_c, 7, 79, 127
1, 46208, Note_on_c, 4, 40, 127
1, 46360, Note_on_c, 5, 77, 127
1, 46374, Note_off_c, 7, 79, 127
1, 46510, Note_off_c, 4, 40, 127
1, 46512, Note_on_c, 7, 79, 127
1, 46512, Note_on_c, 0, 48, 127
1, 46526, Note_off_c, 5, 77, 127
1, 46663, Note_on_c, 10, 81, 127
1, 46677, Note_off_c, 7, 79, 127
1, 46813, Note_off_c, 0, 48, 127
1, 46815, Note_on_c, 5, 77, 127
1, 46815, Note_on_c, 2, 38, 127
1, 46837, Note_off_c, 10, 81, 127
1, 46966, Note_on_c, 4, 76, 127
1, 46980, Note_off_c, 5, 77, 127
1, 47116, Note_off_c, 2, 38, 127
1, 47118, Note_on_c, 5, 77, 127
1, 47118, Note_on_c, 12, 47, 127
1, 47132, Note_off_c, 4, 76, 127
1, 47269, Note_on_c, 7, 79, 127
1, 47283, Note_off_c, 5, 77, 127
1, 47419, Note_off_c, 12, 47, 127
1, 47421, Note_on_c, 4, 76, 127
1, 47421, Note_on_c, 0, 36, 127
1, 47435, Note_off_c, 7, 79, 127
1, 47572, Note_on_c, 7, 79, 127
1, 47586, Note_off_c, 4, 76, 127
1, 47722, Note_off_c, 0, 36, 127
1, 47724, Note_on_c, 4, 76, 127
1, 47724, Note_on_c, 0, 72, 127
1, 47724, Note_on_c, 0, 48, 127
1, 47738, Note_off_c, 7, 79, 127
1, 47875, Note_on_c, 7, 79, 127
1, 47889, Note_off_c, 4, 76, 127
1, 47921, Note_off_c, 0, 72, 127
1, 48025, Note_off_c, 0, 48, 127
1, 48027, Note_on_c, 0, 72, 127
1, 48027, Note_on_c, 4, 76, 127
1, 48027, Note_on_c, 0, 48, 127
1, 48041, Note_off_c, 7, 79, 127
1, 48178, Note_on_c, 7, 79, 127
1, 48192, Note_off_c, 4, 76, 127
1, 48255, Note_off_c, 0, 72, 127
1, 48328, Note_off_c, 0, 48, 127
1, 48330, Note_on_c, 4, 76, 127
1, 48330, Note_on_c, 0, 72, 127
1, 48330, Note_on_c, 0, 36, 127
1, 48344, Note_off_c, 7, 79, 127
1, 48481, Note_on_c, 7, 79, 127
1, 48495, Note_off_c, 4, 76, 127
1, 48582, Note_off_c, 0, 72, 127
1, 48631, Note_off_c, 0, 36, 127
1, 48633, Note_on_c, 12, 71, 127
1, 48633, Note_on_c, 2, 74, 127
1, 48633, Note_on_c, 7, 43, 127
1, 48647, Note_off_c, 7, 79, 127
1, 48784, Note_on_c, 7, 79, 127
1, 48798, Note_off_c, 2, 74, 127
1, 48916, Note_off_c, 12, 71, 127
1, 48933, Note_off_c, 7, 43, 127
1, 48935, Note_on_c, 2, 74, 127
1, 48935, Note_on_c, 12, 71, 127
1, 48935, Note_on_c, 7, 55, 127
1, 48949, Note_off_c, 7, 79, 127
1, 49086, Note_on_c, 7, 79, 127
1, 49100, Note_off_c, 2, 74, 127
1, 49218, Note_off_c, 12, 71, 127
1, 49235, Note_off_c, 7, 55, 127
1, 49237, Note_on_c, 12, 71, 127
1, 49237, Note_on_c, 2, 74, 127
1, 49237, Note_on_c, 7, 55, 127
1, 49251, Note_off_c, 7, 79, 127
1, 49388, Note_on_c, 7, 79, 127
1, 49402, Note_off_c, 2, 74, 127
1, 49520, Note_off_c, 12, 71, 127
1, 49537, Note_off_c, 7, 55, 127
1, 49539, Note_on_c, 2, 74, 127
1, 49539, Note_on_c, 12, 71, 127
1, 49539, Note_on_c, 7, 43, 127
1, 49553, Note_off_c, 7, 79, 127
1, 49690, Note_on_c, 7, 79, 127
1, 49704, Note_off_c, 2, 74, 127
1, 49822, Note_off_c, 12, 71, 127
1, 49839, Note_off_c, 7, 43, 127
1, 49841, Note_on_c, 4, 76, 127
1, 49841, Note_on_c, 0, 72, 127
1, 49841, Note_on_c, 0, 48, 127
1, 49855, Note_off_c, 7, 79, 127
1, 49992, Note_on_c, 7, 79, 127
1, 50006, Note_off_c, 4, 76, 127
1, 50124, Note_off_c, 0, 72, 127
1, 50141, Note_off_c, 0, 48, 127
1, 50143, Note_on_c, 4, 76, 127
1, 50143, Note_on_c, 0, 72, 127
1, 50143, Note_on_c, 0, 60, 127
1, 50149, Note_off_c, 7, 79, 127
1, 50294, Note_on_c, 7, 79, 127
1, 50308, Note_off_c, 4, 76, 127
1, 50426, Note_off_c, 0, 72, 127
1, 50443, Note_off_c, 0, 60, 127
1, 50445, Note_on_c, 0, 72, 127
1, 50445, Note_on_c, 4, 76, 127
1, 50445, Note_on_c, 0, 60, 127
1, 50451, Note_off_c, 7, 79, 127
1, 50596, Note_on_c, 7, 79, 127
1, 50610, Note_off_c, 4, 76, 127
1, 50728, Note_off_c, 0, 72, 127
1, 50745, Note_off_c, 0, 60, 127
1, 50747, Note_on_c, 0, 72, 127
1, 50747, Note_on_c, 4, 76, 127
1, 50747, Note_on_c, 0, 48, 127
1, 50753, Note_off_c, 7, 79, 127
1, 50898, Note_on_c, 7, 79, 127
1, 50912, Note_off_c, 4, 76, 127
1, 51030, Note_off_c, 0, 72, 127
1, 51047, Note_off_c, 0, 48, 127
1, 51049, Note_on_c, 12, 71, 127
1, 51049, Note_on_c, 2, 74, 127
1, 51049, Note_on_c, 7, 55, 127
1, 51055, Note_off_c, 7, 79, 127
1, 51200, Note_on_c, 7, 79, 127
1, 51214, Note_off_c, 2, 74, 127
1, 51332, Note_off_c, 12, 71, 127
1, 51349, Note_off_c, 7, 55, 127
1, 51351, Note_on_c, 12, 71, 127
1, 51351, Note_on_c, 2, 74, 127
1, 51351, Note_on_c, 7, 67, 127
1, 51357, Note_off_c, 7, 79, 127
1, 51502, Note_on_c, 7, 79, 127
1, 51516, Note_off_c, 2, 74, 127
1, 51634, Note_off_c, 12, 71, 127
1, 51651, Note_off_c, 7, 67, 127
1, 51653, Note_on_c, 2, 74, 127
1, 51653, Note_on_c, 12, 71, 127
1, 51653, Note_on_c, 7, 67, 127
1, 51659, Note_off_c, 7, 79, 127
1, 51804, Note_on_c, 7, 79, 127
1, 51818, Note_off_c, 2, 74, 127
1, 51936, Note_off_c, 12, 71, 127
1, 51953, Note_off_c, 7, 67, 127
1, 51955, Note_on_c, 2, 74, 127
1, 51955, Note_on_c, 12, 71, 127
1, 51955, Note_on_c, 7, 55, 127
1, 51961, Note_off_c, 7, 79, 127
1, 52106, Note_on_c, 7, 79, 127
1, 52120, Note_off_c, 2, 74, 127
1, 52238, Note_off_c, 12, 71, 127
1, 52255, Note_off_c, 7, 55, 127
1, 52257, Note_on_c, 4, 76, 127
1, 52257, Note_on_c, 0, 72, 127
1, 52257, Note_on_c, 0, 60, 127
1, 52263, Note_off_c, 7, 79, 127
1, 52408, Note_on_c, 7, 79, 127
1, 52414, Note_off_c, 0, 72, 127
1, 52422, Note_off_c, 4, 76, 127
1, 52558, Note_off_c, 0, 60, 127
1, 52560, Note_on_c, 5, 77, 127
1, 52560, Note_on_c, 0, 72, 127
1, 52574, Note_off_c, 7, 79, 127
1, 52711, Note_on_c, 7, 79, 127
1, 52725, Note_off_c, 5, 77, 127
1, 52861, Note_off_c, 0, 72, 127
1, 52863, Note_on_c, 4, 76, 127
1, 52863, Note_on_c, 0, 72, 127
1, 52877, Note_off_c, 7, 79, 127
1, 53014, Note_on_c, 2, 74, 127
1, 53036, Note_off_c, 4, 76, 127
1, 53164, Note_off_c, 0, 72, 127
1, 53166, Note_on_c, 0, 72, 127
1, 53166, Note_on_c, 4, 64, 127
1, 53180, Note_off_c, 2, 74, 127
1, 53317, Note_on_c, 12, 71, 127
1, 53323, Note_off_c, 0, 72, 127
1, 53467, Note_off_c, 4, 64, 127
1, 53475, Note_off_c, 12, 71, 127
1, 53477, Note_on_c, 10, 69, 127
1, 53477, Note_on_c, 5, 65, 127
1, 53628, Note_on_c, 10, 81, 127
1, 53634, Note_off_c, 10, 69, 127
1, 53778, Note_off_c, 5, 65, 127
1, 53780, Note_on_c, 7, 79, 127
1, 53780, Note_on_c, 2, 74, 127
1, 53802, Note_off_c, 10, 81, 127
1, 53931, Note_on_c, 10, 81, 127
1, 53945, Note_off_c, 7, 79, 127
1, 54081, Note_off_c, 2, 74, 127
1, 54083, Note_on_c, 5, 77, 127
1, 54083, Note_on_c, 2, 74, 127
1, 54105, Note_off_c, 10, 81, 127
1, 54234, Note_on_c, 4, 76, 127
1, 54256, Note_off_c, 5, 77, 127
1, 54384, Note_off_c, 2, 74, 127
1, 54386, Note_on_c, 2, 74, 127
1, 54386, Note_on_c, 5, 65, 127
1, 54400, Note_off_c, 4, 76, 127
1, 54537, Note_on_c, 0, 72, 127
1, 54551, Note_off_c, 2, 74, 127
1, 54687, Note_off_c, 5, 65, 127
1, 54689, Note_on_c, 12, 71, 127
1, 54689, Note_on_c, 7, 67, 127
1, 54695, Note_off_c, 0, 72, 127
1, 54840, Note_on_c, 2, 74, 127
1, 54846, Note_off_c, 12, 71, 127
1, 54990, Note_off_c, 7, 67, 127
1, 54992, Note_on_c, 0, 72, 127
1, 54992, Note_on_c, 6, 66, 127
1, 55006, Note_off_c, 2, 74, 127
1, 55142, Note_off_c, 6, 66, 127
1, 55144, Note_on_c, 2, 74, 127
1, 55144, Note_on_c, 4, 64, 127
1, 55150, Note_off_c, 0, 72, 127
1, 55294, Note_off_c, 4, 64, 127
1, 55296, Note_on_c, 12, 71, 127
1, 55296, Note_on_c, 2, 62, 127
1, 55310, Note_off_c, 2, 74, 127
1, 55447, Note_on_c, 0, 72, 127
1, 55453, Note_off_c, 12, 71, 127
1, 55597, Note_off_c, 2, 62, 127
1, 55599, Note_on_c, 10, 69, 127
1, 55599, Note_on_c, 0, 60, 127
1, 55605, Note_off_c, 0, 72, 127
1, 55750, Note_on_c, 12, 71, 127
1, 55756, Note_off_c, 10, 69, 127
1, 55900, Note_off_c, 0, 60, 127
1, 55902, Note_on_c, 7, 67, 127
1, 55902, Note_on_c, 12, 59, 127
1, 55908, Note_off_c, 12, 71, 127
1, 56053, Note_on_c, 12, 71, 127
1, 56059, Note_off_c, 7, 67, 127
1, 56203, Note_off_c, 12, 59, 127
1, 56205, Note_on_c, 10, 69, 127
1, 56205, Note_on_c, 2, 62, 127
1, 56211, Note_off_c, 12, 71, 127
1, 56356, Note_on_c, 12, 71, 127
1, 56362, Note_off_c, 10, 69, 127
1, 56506, Note_off_c, 2, 62, 127
1, 56508, Note_on_c, 7, 67, 127
1, 56508, Note_on_c, 12, 59, 127
1, 56514, Note_off_c, 12, 71, 127
1, 56657, Note_off_c, 7, 67, 127
1, 56659, Note_on_c, 12, 71, 127
1, 56808, Note_off_c, 12, 71, 127
1, 56809, Note_off_c, 12, 59, 127
1, 56811, Note_on_c, 10, 69, 127
1, 56811, Note_on_c, 7, 55, 127
1, 56960, Note_off_c, 10, 69, 127
1, 56962, Note_on_c, 12, 71, 127
1, 57112, Note_off_c, 7, 55, 127
1, 57119, Note_off_c, 12, 71, 127
1, 57122, Note_on_c, 7, 67, 127
1, 57122, Note_on_c, 4, 52, 127
1, 57273, Note_on_c, 0, 72, 127
1, 57311, Note_off_c, 7, 67, 127
1, 57423, Note_off_c, 4, 52, 127
1, 57425, Note_on_c, 12, 71, 127
1, 57425, Note_on_c, 4, 64, 127
1, 57431, Note_off_c, 0, 72, 127
1, 57576, Note_on_c, 0, 72, 127
1, 57582, Note_off_c, 12, 71, 127
1, 57726, Note_off_c, 4, 64, 127
1, 57728, Note_on_c, 7, 67, 127
1, 57728, Note_on_c, 4, 64, 127
1, 57734, Note_off_c, 0, 72, 127
1, 57879, Note_on_c, 0, 72, 127
1, 57885, Note_off_c, 7, 67, 127
1, 58029, Note_off_c, 4, 64, 127
1, 58031, Note_on_c, 12, 71, 127
1, 58031, Note_on_c, 4, 52, 127
1, 58037, Note_off_c, 0, 72, 127
1, 58182, Note_on_c, 0, 72, 127
1, 58188, Note_off_c, 12, 71, 127
1, 58332, Note_off_c, 4, 52, 127
1, 58334, Note_on_c, 10, 69, 127
1, 58334, Note_on_c, 5, 53, 127
1, 58340, Note_off_c, 0, 72, 127
1, 58485, Note_on_c, 0, 72, 127
1, 58523, Note_off_c, 10, 69, 127
1, 58635, Note_off_c, 5, 53, 127
1, 58637, Note_on_c, 12, 71, 127
1, 58637, Note_on_c, 5, 65, 127
1, 58643, Note_off_c, 0, 72, 127
1, 58788, Note_on_c, 0, 72, 127
1, 58794, Note_off_c, 12, 71, 127
1, 58938, Note_off_c, 5, 65, 127
1, 58940, Note_on_c, 10, 69, 127
1, 58940, Note_on_c, 5, 65, 127
1, 58946, Note_off_c, 0, 72, 127
1, 59091, Note_on_c, 0, 72, 127
1, 59097, Note_off_c, 10, 69, 127
1, 59241, Note_off_c, 5, 65, 127
1, 59243, Note_on_c, 12, 71, 127
1, 59243, Note_on_c, 5, 53, 127
1, 59249, Note_off_c, 0, 72, 127
1, 59394, Note_on_c, 0, 72, 127
1, 59400, Note_off_c, 12, 71, 127
1, 59544, Note_off_c, 5, 53, 127
1, 59546, Note_on_c, 10, 69, 127
1, 59546, Note_on_c, 6, 54, 127
1, 59552, Note_off_c, 0, 72, 127
1, 59697, Note_on_c, 2, 74, 127
1, 59735, Note_off_c, 10, 69, 127
1, 59847, Note_off_c, 6, 54, 127
1, 59849, Note_on_c, 0, 72, 127
1, 59849, Note_on_c, 6, 66, 127
1, 59863, Note_off_c, 2, 74, 127
1, 60000, Note_on_c, 2, 74, 127
1, 60006, Note_off_c, 0, 72, 127
1, 60150, Note_off_c, 6, 66, 127
1, 60152, Note_on_c, 10, 69, 127
1, 60152, Note_on_c, 6, 66, 127
1, 60166, Note_off_c, 2, 74, 127
1, 60303, Note_on_c, 2, 74, 127
1, 60309, Note_off_c, 10, 69, 127
1, 60454, Note_on_c, 0, 72, 127
1, 60454, Note_on_c, 6, 54, 127
1, 60468, Note_off_c, 2, 74, 127
1, 60530, Note_off_c, 6, 66, 127
1, 60606, Note_on_c, 2, 74, 127
1, 60612, Note_off_c, 0, 72, 127
1, 60756, Note_off_c, 6, 54, 127
1, 60758, Note_on_c, 12, 71, 127
1, 60758, Note_on_c, 7, 55, 127
1, 60772, Note_off_c, 2, 74, 127
1, 60909, Note_on_c, 2, 74, 127
1, 60947, Note_off_c, 12, 71, 127
1, 61059, Note_off_c, 7, 55, 127
1, 61061, Note_on_c, 0, 72, 127
1, 61061, Note_on_c, 7, 67, 127
1, 61075, Note_off_c, 2, 74, 127
1, 61212, Note_on_c, 2, 74, 127
1, 61218, Note_off_c, 0, 72, 127
1, 61362, Note_off_c, 7, 67, 127
1, 61364, Note_on_c, 12, 71, 127
1, 61364, Note_on_c, 7, 67, 127
1, 61378, Note_off_c, 2, 74, 127
1, 61515, Note_on_c, 2, 74, 127
1, 61521, Note_off_c, 12, 71, 127
1, 61666, Note_on_c, 0, 72, 127
1, 61666, Note_on_c, 7, 55, 127
1, 61680, Note_off_c, 2, 74, 127
1, 61805, Note_off_c, 7, 67, 127
1, 61818, Note_on_c, 2, 74, 127
1, 61824, Note_off_c, 0, 72, 127
1, 61968, Note_off_c, 7, 55, 127
1, 61970, Note_on_c, 12, 71, 127
1, 61970, Note_on_c, 8, 56, 127
1, 61984, Note_off_c, 2, 74, 127
1, 62121, Note_on_c, 4, 76, 127
1, 62159, Note_off_c, 12, 71, 127
1, 62271, Note_off_c, 8, 56, 127
1, 62273, Note_on_c, 2, 74, 127
1, 62273, Note_on_c, 8, 68, 127
1, 62287, Note_off_c, 4, 76, 127
1, 62424, Note_on_c, 4, 76, 127
1, 62438, Note_off_c, 2, 74, 127
1, 62574, Note_off_c, 8, 68, 127
1, 62576, Note_on_c, 12, 71, 127
1, 62576, Note_on_c, 8, 68, 127
1, 62590, Note_off_c, 4, 76, 127
1, 62727, Note_on_c, 4, 76, 127
1, 62733, Note_off_c, 12, 71, 127
1, 62878, Note_on_c, 2, 74, 127
1, 62878, Note_on_c, 8, 56, 127
1, 62892, Note_off_c, 4, 76, 127
1, 63029, Note_on_c, 4, 76, 127
1, 63043, Note_off_c, 2, 74, 127
1, 63079, Note_off_c, 8, 68, 127
1, 63178, Note_off_c, 8, 56, 127
1, 63180, Note_on_c, 0, 72, 127
1, 63180, Note_on_c, 10, 57, 127
1, 63194, Note_off_c, 4, 76, 127
1, 63331, Note_on_c, 4, 76, 127
1, 63369, Note_off_c, 0, 72, 127
1, 63481, Note_off_c, 10, 57, 127
1, 63483, Note_on_c, 2, 74, 127
1, 63483, Note_on_c, 10, 69, 127
1, 63497, Note_off_c, 4, 76, 127
1, 63634, Note_on_c, 4, 76, 127
1, 63648, Note_off_c, 2, 74, 127
1, 63784, Note_off_c, 10, 69, 127
1, 63786, Note_on_c, 0, 72, 127
1, 63786, Note_on_c, 10, 69, 127
1, 63800, Note_off_c, 4, 76, 127
1, 63937, Note_on_c, 4, 76, 127
1, 63943, Note_off_c, 0, 72, 127
1, 64088, Note_on_c, 2, 74, 127
1, 64088, Note_on_c, 10, 57, 127
1, 64102, Note_off_c, 4, 76, 127
1, 64239, Note_on_c, 4, 76, 127
1, 64253, Note_off_c, 2, 74, 127
1, 64352, Note_off_c, 10, 69, 127
1, 64388, Note_off_c, 10, 57, 127
1, 64390, Note_on_c, 0, 72, 127
1, 64390, Note_on_c, 10, 57, 127
1, 64404, Note_off_c, 4, 76, 127
1, 64541, Note_on_c, 5, 77, 127
1, 64579, Note_off_c, 0, 72, 127
1, 64691, Note_off_c, 10, 57, 127
1, 64693, Note_on_c, 4, 76, 127
1, 64693, Note_on_c, 10, 69, 127
1, 64707, Note_off_c, 5, 77, 127
1, 64844, Note_on_c, 5, 77, 127
1, 64858, Note_off_c, 4, 76, 127
1, 64994, Note_off_c, 10, 69, 127
1, 64996, Note_on_c, 0, 72, 127
1, 64996, Note_on_c, 10, 69, 127
1, 65010, Note_off_c, 5, 77, 127
1, 65147, Note_on_c, 5, 77, 127
1, 65153, Note_off_c, 0, 72, 127
1, 65298, Note_on_c, 4, 76, 127
1, 65298, Note_on_c, 10, 57, 127
1, 65312, Note_off_c, 5, 77, 127
1, 65342, Note_off_c, 10, 69, 127
1, 65449, Note_on_c, 5, 77, 127
1, 65463, Note_off_c, 4, 76, 127
1, 65591, Note_off_c, 5, 77, 127
1, 65599, Note_off_c, 10, 57, 127
1, 65601, Note_on_c, 12, 71, 127
1, 65601, Note_on_c, 7, 55, 127
1, 65750, Note_off_c, 12, 71, 127
1, 65751, Note_off_c, 7, 55, 127
1, 65753, Note_on_c, 7, 67, 127
1, 65753, Note_on_c, 4, 64, 127
1, 65903, Note_off_c, 4, 64, 127
1, 65905, Note_on_c, 10, 69, 127
1, 65905, Note_on_c, 2, 62, 127
1, 65911, Note_off_c, 7, 67, 127
1, 66055, Note_off_c, 2, 62, 127
1, 66057, Note_on_c, 12, 71, 127
1, 66057, Note_on_c, 0, 60, 127
1, 66063, Note_off_c, 10, 69, 127
1, 66207, Note_off_c, 0, 60, 127
1, 66209, Note_on_c, 0, 72, 127
1, 66209, Note_on_c, 12, 59, 127
1, 66215, Note_off_c, 12, 71, 127
1, 66359, Note_off_c, 12, 59, 127
1, 66361, Note_on_c, 2, 74, 127
1, 66361, Note_on_c, 10, 57, 127
1, 66367, Note_off_c, 0, 72, 127
1, 66511, Note_off_c, 10, 57, 127
1, 66513, Note_on_c, 4, 76, 127
1, 66513, Note_on_c, 7, 55, 127
1, 66527, Note_off_c, 2, 74, 127
1, 66663, Note_off_c, 7, 55, 127
1, 66665, Note_on_c, 5, 77, 127
1, 66665, Note_on_c, 5, 53, 127
1, 66679, Note_off_c, 4, 76, 127
1, 66815, Note_off_c, 5, 53, 127
1, 66817, Note_on_c, 7, 79, 127
1, 66817, Note_on_c, 4, 52, 127
1, 66831, Note_off_c, 5, 77, 127
1, 66967, Note_off_c, 4, 52, 127
1, 66969, Note_on_c, 0, 72, 127
1, 66969, Note_on_c, 0, 60, 127
1, 66991, Note_off_c, 7, 79, 127
1, 67119, Note_off_c, 0, 60, 127
1, 67121, Note_on_c, 2, 74, 127
1, 67121, Note_on_c, 12, 59, 127
1, 67127, Note_off_c, 0, 72, 127
1, 67271, Note_off_c, 12, 59, 127
1, 67273, Note_on_c, 4, 76, 127
1, 67273, Note_on_c, 10, 57, 127
1, 67287, Note_off_c, 2, 74, 127
1, 67423, Note_off_c, 10, 57, 127
1, 67425, Note_on_c, 5, 77, 127
1, 67425, Note_on_c, 7, 55, 127
1, 67439, Note_off_c, 4, 76, 127
1, 67575, Note_off_c, 7, 55, 127
1, 67577, Note_on_c, 7, 79, 127
1, 67577, Note_on_c, 5, 53, 127
1, 67591, Note_off_c, 5, 77, 127
1, 67727, Note_off_c, 5, 53, 127
1, 67729, Note_on_c, 10, 81, 127
1, 67729, Note_on_c, 4, 52, 127
1, 67743, Note_off_c, 7, 79, 127
1, 67879, Note_off_c, 4, 52, 127
1, 67881, Note_on_c, 12, 83, 127
1, 67881, Note_on_c, 2, 50, 127
1, 67903, Note_off_c, 10, 81, 127
1, 68023, Note_off_c, 12, 83, 127
1, 68031, Note_off_c, 2, 50, 127
1, 68033, Note_on_c, 0, 84, 127
1, 68033, Note_on_c, 0, 48, 127
1, 68183, Note_off_c, 0, 48, 127
1, 68185, Note_on_c, 4, 52, 127
1, 68335, Note_off_c, 4, 52, 127
1, 68337, Note_on_c, 2, 50, 127
1, 68476, Note_off_c, 0, 84, 127
1, 68487, Note_off_c, 2, 50, 127
1, 68489, Note_on_c, 5, 53, 127
1, 68639, Note_off_c, 5, 53, 127
1, 68641, Note_on_c, 4, 52, 127
1, 68791, Note_off_c, 4, 52, 127
1, 68793, Note_on_c, 0, 72, 127
1, 68793, Note_on_c, 7, 55, 127
1, 68943, Note_off_c, 7, 55, 127
1, 68945, Note_on_c, 12, 71, 127
1, 68945, Note_on_c, 2, 50, 127
1, 68951, Note_off_c, 0, 72, 127
1, 69095, Note_off_c, 2, 50, 127
1, 69097, Note_on_c, 0, 72, 127
1, 69097, Note_on_c, 5, 53, 127
1, 69103, Note_off_c, 12, 71, 127
1, 69247, Note_off_c, 5, 53, 127
1, 69249, Note_on_c, 7, 67, 127
1, 69249, Note_on_c, 4, 52, 127
1, 69255, Note_off_c, 0, 72, 127
1, 69399, Note_off_c, 4, 52, 127
1, 69401, Note_on_c, 0, 72, 127
1, 69401, Note_on_c, 7, 55, 127
1, 69439, Note_off_c, 7, 67, 127
1, 69551, Note_off_c, 7, 55, 127
1, 69553, Note_on_c, 4, 64, 127
1, 69553, Note_on_c, 5, 53, 127
1, 69559, Note_off_c, 0, 72, 127
1, 69703, Note_off_c, 5, 53, 127
1, 69705, Note_on_c, 0, 72, 127
1, 69705, Note_on_c, 10, 57, 127
1, 69743, Note_off_c, 4, 64, 127
1, 69855, Note_off_c, 10, 57, 127
1, 69857, Note_on_c, 2, 62, 127
1, 69857, Note_on_c, 7, 55, 127
1, 69863, Note_off_c, 0, 72, 127
1, 70008, Note_on_c, 0, 72, 127
1, 70046, Note_off_c, 2, 62, 127
1, 70158, Note_off_c, 7, 55, 127
1, 70160, Note_on_c, 2, 62, 127
1, 70160, Note_on_c, 7, 43, 127
1, 70166, Note_off_c, 0, 72, 127
1, 70310, Note_off_c, 2, 62, 127
1, 70312, Note_on_c, 12, 71, 127
1, 70454, Note_off_c, 12, 71, 127
1, 70462, Note_off_c, 7, 43, 127
1, 70469, Note_on_c, 0, 72, 127
1, 70469, Note_on_c, 0, 48, 127
1, 70771, Note_off_c, 0, 72, 127
1, 70784, Note_on_c, 12, 71, 127
1, 70936, Note_on_c, 10, 69, 127
1, 70942, Note_off_c, 12, 71, 127
1, 71087, Note_on_c, 7, 67, 127
1, 71093, Note_off_c, 10, 69, 127
1, 71388, Note_off_c, 7, 67, 127
1, 71390, Note_on_c, 5, 65, 127
1, 71681, Note_off_c, 0, 48, 127
1, 71692, Note_off_c, 5, 65, 127
1, 71694, Note_on_c, 4, 64, 127
1, 71996, Note_off_c, 4, 64, 127
1, 71998, Note_on_c, 0, 60, 127
1, 72300, Note_off_c, 0, 60, 127
1, 72302, Note_on_c, 4, 64, 127
1, 72604, Note_off_c, 4, 64, 127
1, 72606, Note_on_c, 7, 67, 127
1, 72908, Note_off_c, 7, 67, 127
1, 72910, Note_on_c, 0, 60, 127
1, 72910, Note_on_c, 0, 72, 127
1, 72910, Note_on_c, 4, 64, 127
1, 72910, Note_on_c, 7, 67, 127
1, 73212, Note_off_c, 0, 60, 127
1, 73214, Note_on_c, 12, 59, 127
1, 73364, Note_off_c, 12, 59, 127
1, 73366, Note_on_c, 10, 57, 127
1, 73516, Note_off_c, 10, 57, 127
1, 73516, Note_off_c, 7, 67, 127
1, 73516, Note_off_c, 4, 64, 127
1, 73516, Note_off_c, 0, 72, 127
1, 73518, Note_on_c, 7, 55, 127
1, 73518, Note_on_c, 7, 67, 127
1, 73518, Note_on_c, 2, 74, 127
1, 73518, Note_on_c, 12, 71, 127
1, 73668, Note_off_c, 7, 55, 127
1, 73670, Note_on_c, 5, 53, 127
1, 73820, Note_off_c, 5, 53, 127
1, 73822, Note_on_c, 4, 52, 127
1, 73972, Note_off_c, 4, 52, 127
1, 73974, Note_on_c, 2, 50, 127
1, 74124, Note_off_c, 2, 50, 127
1, 74124, Note_off_c, 12, 71, 127
1, 74124, Note_off_c, 2, 74, 127
1, 74124, Note_off_c, 7, 67, 127
1, 74126, Note_on_c, 0, 48, 127
1, 74126, Note_on_c, 0, 72, 127
1, 74126, Note_on_c, 7, 67, 127
1, 74126, Note_on_c, 4, 76, 127
1, 74428, Note_off_c, 4, 76, 127
1, 74428, Note_off_c, 7, 67, 127
1, 74428, Note_off_c, 0, 72, 127
1, 74428, Note_off_c, 0, 48, 127
1, 74430, Note_on_c, 7, 55, 127
1, 74430, Note_on_c, 2, 74, 127
1, 74582, Note_on_c, 4, 76, 127
1, 74596, Note_off_c, 2, 74, 127
1, 74732, Note_off_c, 7, 55, 127
1, 74734, Note_on_c, 4, 52, 127
1, 74734, Note_on_c, 0, 72, 127
1, 74748, Note_off_c, 4, 76, 127
1, 75035, Note_off_c, 0, 72, 127
1, 75035, Note_off_c, 4, 52, 127
1, 75037, Note_on_c, 0, 48, 127
1, 75037, Note_on_c, 7, 67, 127
1, 75037, Note_on_c, 4, 76, 127
1, 75037, Note_on_c, 0, 72, 127
1, 75339, Note_off_c, 0, 72, 127
1, 75339, Note_off_c, 4, 76, 127
1, 75339, Note_off_c, 7, 67, 127
1, 75339, Note_off_c, 0, 48, 127
1, 75341, Note_on_c, 7, 55, 127
1, 75341, Note_on_c, 12, 71, 127
1, 75341, Note_on_c, 7, 67, 127
1, 75341, Note_on_c, 2, 74, 127
1, 75493, Note_on_c, 7, 79, 127
1, 75499, Note_off_c, 7, 67, 127
1, 75499, Note_off_c, 12, 71, 127
1, 75507, Note_off_c, 2, 74, 127
1, 75643, Note_off_c, 7, 55, 127
1, 75645, Note_on_c, 7, 67, 127
1, 75645, Note_on_c, 2, 74, 127
1, 75645, Note_on_c, 12, 71, 127
1, 75683, Note_off_c, 7, 79, 127
1, 75797, Note_on_c, 7, 79, 127
1, 75803, Note_off_c, 12, 71, 127
1, 75811, Note_off_c, 2, 74, 127
1, 75947, Note_off_c, 7, 67, 127
1, 75949, Note_on_c, 7, 67, 127
1, 75949, Note_on_c, 2, 74, 127
1, 75949, Note_on_c, 12, 71, 127
1, 75987, Note_off_c, 7, 79, 127
1, 76101, Note_on_c, 7, 79, 127
1, 76107, Note_off_c, 12, 71, 127
1, 76115, Note_off_c, 2, 74, 127
1, 76251, Note_off_c, 7, 67, 127
1, 76253, Note_on_c, 7, 55, 127
1, 76253, Note_on_c, 7, 67, 127
1, 76253, Note_on_c, 12, 71, 127
1, 76253, Note_on_c, 2, 74, 127
1, 76291, Note_off_c, 7, 79, 127
1, 76405, Note_on_c, 7, 79, 127
1, 76411, Note_off_c, 12, 71, 127
1, 76411, Note_off_c, 7, 67, 127
1, 76419, Note_off_c, 2, 74, 127
1, 76555, Note_off_c, 7, 55, 127
1, 76557, Note_on_c, 0, 60, 127
1, 76557, Note_on_c, 0, 72, 127
1, 76557, Note_on_c, 7, 67, 127
1, 76557, Note_on_c, 4, 76, 127
1, 76595, Note_off_c, 7, 79, 127
1, 76707, Note_off_c, 0, 60, 127
1, 76709, Note_on_c, 4, 64, 127
1, 76859, Note_off_c, 4, 64, 127
1, 76859, Note_off_c, 4, 76, 127
1, 76859, Note_off_c, 7, 67, 127
1, 76859, Note_off_c, 0, 72, 127
1, 76861, Note_on_c, 7, 55, 127
1, 76861, Note_on_c, 7, 79, 127
1, 77011, Note_off_c, 7, 55, 127
1, 77013, Note_on_c, 0, 60, 127
1, 77163, Note_off_c, 0, 60, 127
1, 77165, Note_on_c, 4, 52, 127
1, 77315, Note_off_c, 4, 52, 127
1, 77317, Note_on_c, 7, 55, 127
1, 77467, Note_off_c, 7, 55, 127
1, 77467, Note_off_c, 7, 79, 127
1, 77469, Note_on_c, 0, 48, 127
1, 77469, Note_on_c, 0, 72, 127
1, 77469, Note_on_c, 7, 67, 127
1, 77469, Note_on_c, 4, 76, 127
1, 77619, Note_off_c, 0, 48, 127
1, 77621, Note_on_c, 4, 52, 127
1, 77771, Note_off_c, 4, 52, 127
1, 77771, Note_off_c, 4, 76, 127
1, 77771, Note_off_c, 7, 67, 127
1, 77771, Note_off_c, 0, 72, 127
1, 77773, Note_on_c, 7, 43, 127
1, 77773, Note_on_c, 2, 74, 127
1, 77773, Note_on_c, 12, 71, 127
1, 77773, Note_on_c, 7, 67, 127
1, 77925, Note_on_c, 7, 79, 127
1, 77931, Note_off_c, 12, 71, 127
1, 77939, Note_off_c, 2, 74, 127
1, 78073, Note_off_c, 7, 67, 127
1, 78075, Note_off_c, 7, 79, 127
1, 78075, Note_off_c, 7, 43, 127
1, 78077, Note_on_c, 7, 55, 127
1, 78077, Note_on_c, 12, 71, 127
1, 78077, Note_on_c, 7, 67, 127
1, 78077, Note_on_c, 2, 74, 127
1, 78229, Note_on_c, 7, 79, 127
1, 78235, Note_off_c, 12, 71, 127
1, 78243, Note_off_c, 2, 74, 127
1, 78377, Note_off_c, 7, 67, 127
1, 78379, Note_off_c, 7, 79, 127
1, 78379, Note_off_c, 7, 55, 127
1, 78381, Note_on_c, 7, 55, 127
1, 78381, Note_on_c, 7, 67, 127
1, 78381, Note_on_c, 2, 74, 127
1, 78381, Note_on_c, 12, 71, 127
1, 78533, Note_on_c, 7, 79, 127
1, 78539, Note_off_c, 12, 71, 127
1, 78547, Note_off_c, 2, 74, 127
1, 78681, Note_off_c, 7, 67, 127
1, 78683, Note_off_c, 7, 79, 127
1, 78683, Note_off_c, 7, 55, 127
1, 78685, Note_on_c, 7, 43, 127
1, 78685, Note_on_c, 12, 71, 127
1, 78685, Note_on_c, 7, 67, 127
1, 78685, Note_on_c, 2, 74, 127
1, 78837, Note_on_c, 7, 79, 127
1, 78843, Note_off_c, 12, 71, 127
1, 78851, Note_off_c, 2, 74, 127
1, 78985, Note_off_c, 7, 67, 127
1, 78987, Note_off_c, 7, 79, 127
1, 78987, Note_off_c, 7, 43, 127
1, 78989, Note_on_c, 0, 48, 127
1, 78989, Note_on_c, 0, 72, 127
1, 78989, Note_on_c, 7, 67, 127
1, 78989, Note_on_c, 4, 76, 127
1, 79139, Note_off_c, 0, 48, 127
1, 79141, Note_on_c, 4, 52, 127
1, 79291, Note_off_c, 4, 52, 127
1, 79291, Note_off_c, 4, 76, 127
1, 79291, Note_off_c, 7, 67, 127
1, 79291, Note_off_c, 0, 72, 127
1, 79293, Note_on_c, 7, 43, 127
1, 79293, Note_on_c, 7, 79, 127
1, 79443, Note_off_c, 7, 43, 127
1, 79445, Note_on_c, 0, 48, 127
1, 79595, Note_off_c, 0, 48, 127
1, 79597, Note_on_c, 4, 40, 127
1, 79747, Note_off_c, 4, 40, 127
1, 79749, Note_on_c, 7, 43, 127
1, 79899, Note_off_c, 7, 43, 127
1, 79899, Note_off_c, 7, 79, 127
1, 79901, Note_on_c, 0, 36, 127
1, 79901, Note_on_c, 4, 76, 127
1, 80051, Note_off_c, 0, 36, 127
1, 80053, Note_on_c, 11, 46, 127
1, 80203, Note_off_c, 11, 46, 127
1, 80203, Note_off_c, 4, 76, 127
1, 80205, Note_on_c, 10, 45, 127
1, 80205, Note_on_c, 5, 77, 127
1, 80357, Note_on_c, 4, 76, 127
1, 80411, Note_off_c, 5, 77, 127
1, 80507, Note_off_c, 10, 45, 127
1, 80509, Note_on_c, 7, 43, 127
1, 80509, Note_on_c, 5, 77, 127
1, 80523, Note_off_c, 4, 76, 127
1, 80660, Note_on_c, 0, 72, 127
1, 80674, Note_off_c, 5, 77, 127
1, 80810, Note_off_c, 7, 43, 127
1, 80812, Note_on_c, 5, 41, 127
1, 80812, Note_on_c, 5, 77, 127
1, 80818, Note_off_c, 0, 72, 127
1, 80963, Note_on_c, 4, 76, 127
1, 81001, Note_off_c, 5, 77, 127
1, 81113, Note_off_c, 5, 41, 127
1, 81115, Note_on_c, 4, 40, 127
1, 81115, Note_on_c, 5, 77, 127
1, 81129, Note_off_c, 4, 76, 127
1, 81266, Note_on_c, 0, 72, 127
1, 81280, Note_off_c, 5, 77, 127
1, 81416, Note_off_c, 4, 40, 127
1, 81418, Note_on_c, 2, 38, 127
1, 81418, Note_on_c, 6, 78, 127
1, 81424, Note_off_c, 0, 72, 127
1, 81569, Note_on_c, 4, 76, 127
1, 81623, Note_off_c, 6, 78, 127
1, 81719, Note_off_c, 2, 38, 127
1, 81721, Note_on_c, 10, 45, 127
1, 81721, Note_on_c, 6, 78, 127
1, 81735, Note_off_c, 4, 76, 127
1, 81872, Note_on_c, 2, 74, 127
1, 81886, Note_off_c, 6, 78, 127
1, 82022, Note_off_c, 10, 45, 127
1, 82024, Note_on_c, 2, 50, 127
1, 82024, Note_on_c, 6, 78, 127
1, 82038, Note_off_c, 2, 74, 127
1, 82175, Note_on_c, 4, 76, 127
1, 82213, Note_off_c, 6, 78, 127
1, 82325, Note_off_c, 2, 50, 127
1, 82327, Note_on_c, 0, 48, 127
1, 82327, Note_on_c, 6, 78, 127
1, 82341, Note_off_c, 4, 76, 127
1, 82478, Note_on_c, 2, 74, 127
1, 82492, Note_off_c, 6, 78, 127
1, 82628, Note_off_c, 0, 48, 127
1, 82630, Note_on_c, 12, 47, 127
1, 82630, Note_on_c, 7, 79, 127
1, 82644, Note_off_c, 2, 74, 127
1, 82781, Note_on_c, 6, 78, 127
1, 82835, Note_off_c, 7, 79, 127
1, 82931, Note_off_c, 12, 47, 127
1, 82933, Note_on_c, 10, 45, 127
1, 82933, Note_on_c, 7, 79, 127
1, 82947, Note_off_c, 6, 78, 127
1, 83084, Note_on_c, 2, 74, 127
1, 83098, Note_off_c, 7, 79, 127
1, 83234, Note_off_c, 10, 45, 127
1, 83236, Note_on_c, 7, 43, 127
1, 83236, Note_on_c, 7, 79, 127
1, 83250, Note_off_c, 2, 74, 127
1, 83387, Note_on_c, 6, 78, 127
1, 83425, Note_off_c, 7, 79, 127
1, 83537, Note_off_c, 7, 43, 127
1, 83539, Note_on_c, 5, 41, 127
1, 83539, Note_on_c, 7, 79, 127
1, 83553, Note_off_c, 6, 78, 127
1, 83690, Note_on_c, 2, 74, 127
1, 83704, Note_off_c, 7, 79, 127
1, 83840, Note_off_c, 5, 41, 127
1, 83842, Note_on_c, 4, 40, 127
1, 83842, Note_on_c, 8, 80, 127
1, 83856, Note_off_c, 2, 74, 127
1, 83993, Note_on_c, 6, 78, 127
1, 84047, Note_off_c, 8, 80, 127
1, 84143, Note_off_c, 4, 40, 127
1, 84145, Note_on_c, 12, 47, 127
1, 84145, Note_on_c, 8, 80, 127
1, 84159, Note_off_c, 6, 78, 127
1, 84296, Note_on_c, 4, 76, 127
1, 84310, Note_off_c, 8, 80, 127
1, 84446, Note_off_c, 12, 47, 127
1, 84448, Note_on_c, 4, 52, 127
1, 84448, Note_on_c, 8, 80, 127
1, 84462, Note_off_c, 4, 76, 127
1, 84599, Note_on_c, 6, 78, 127
1, 84637, Note_off_c, 8, 80, 127
1, 84749, Note_off_c, 4, 52, 127
1, 84751, Note_on_c, 2, 50, 127
1, 84751, Note_on_c, 8, 80, 127
1, 84765, Note_off_c, 6, 78, 127
1, 84902, Note_on_c, 4, 76, 127
1, 84916, Note_off_c, 8, 80, 127
1, 85044, Note_off_c, 4, 76, 127
1, 85052, Note_off_c, 2, 50, 127
1, 85054, Note_on_c, 0, 48, 127
1, 85054, Note_on_c, 10, 81, 127
1, 85204, Note_off_c, 0, 48, 127
1, 85206, Note_on_c, 10, 57, 127
1, 85356, Note_off_c, 10, 57, 127
1, 85358, Note_on_c, 7, 55, 127
1, 85358, Note_on_c, 10, 69, 127
1, 85508, Note_off_c, 7, 55, 127
1, 85510, Note_on_c, 5, 53, 127
1, 85655, Note_off_c, 10, 81, 127
1, 85660, Note_off_c, 5, 53, 127
1, 85660, Note_off_c, 10, 69, 127
1, 85662, Note_on_c, 4, 52, 127
1, 85662, Note_on_c, 0, 72, 127
1, 85812, Note_off_c, 4, 52, 127
1, 85814, Note_on_c, 2, 50, 127
1, 85964, Note_off_c, 2, 50, 127
1, 85964, Note_off_c, 0, 72, 127
1, 85966, Note_on_c, 0, 48, 127
1, 85966, Note_on_c, 4, 76, 127
1, 86116, Note_off_c, 0, 48, 127
1, 86118, Note_on_c, 12, 47, 127
1, 86268, Note_off_c, 12, 47, 127
1, 86268, Note_off_c, 4, 76, 127
1, 86270, Note_on_c, 10, 45, 127
1, 86270, Note_on_c, 10, 81, 127
1, 86420, Note_off_c, 10, 45, 127
1, 86422, Note_on_c, 0, 48, 127
1, 86572, Note_off_c, 0, 48, 127
1, 86572, Note_off_c, 10, 81, 127
1, 86574, Note_on_c, 12, 47, 127
1, 86574, Note_on_c, 7, 79, 127
1, 86724, Note_off_c, 12, 47, 127
1, 86726, Note_on_c, 2, 50, 127
1, 86726, Note_on_c, 5, 77, 127
1, 86732, Note_off_c, 7, 79, 127
1, 86876, Note_off_c, 2, 50, 127
1, 86878, Note_on_c, 0, 48, 127
1, 86878, Note_on_c, 4, 76, 127
1, 86884, Note_off_c, 5, 77, 127
1, 87028, Note_off_c, 0, 48, 127
1, 87030, Note_on_c, 4, 52, 127
1, 87180, Note_off_c, 4, 52, 127
1, 87180, Note_off_c, 4, 76, 127
1, 87182, Note_on_c, 10, 57, 127
1, 87182, Note_on_c, 2, 74, 127
1, 87182, Note_on_c, 10, 69, 127
1, 87182, Note_on_c, 5, 65, 127
1, 87332, Note_off_c, 10, 57, 127
1, 87334, Note_on_c, 2, 50, 127
1, 87484, Note_off_c, 2, 50, 127
1, 87484, Note_off_c, 5, 65, 127
1, 87484, Note_off_c, 10, 69, 127
1, 87484, Note_off_c, 2, 74, 127
1, 87486, Note_on_c, 4, 52, 127
1, 87486, Note_on_c, 4, 64, 127
1, 87486, Note_on_c, 0, 72, 127
1, 87486, Note_on_c, 10, 69, 127
1, 88086, Note_off_c, 10, 69, 127
1, 88086, Note_off_c, 0, 72, 127
1, 88086, Note_off_c, 4, 64, 127
1, 88086, Note_off_c, 4, 52, 127
1, 88093, Note_on_c, 4, 40, 127
1, 88093, Note_on_c, 8, 68, 127
1, 88093, Note_on_c, 4, 64, 127
1, 88093, Note_on_c, 12, 71, 127
1, 88698, Note_off_c, 12, 71, 127
1, 88698, Note_off_c, 4, 64, 127
1, 88698, Note_off_c, 8, 68, 127
1, 88698, Note_off_c, 4, 40, 127
1, 88712, Note_on_c, 10, 69, 127
1, 88712, Note_on_c, 10, 45, 127
1, 88884, Note_on_c, 10, 81, 127
1, 89024, Note_off_c, 10, 45, 127
1, 89032, Note_off_c, 10, 69, 127
1, 89036, Note_on_c, 10, 57, 127
1, 89036, Note_on_c, 7, 79, 127
1, 89044, Note_off_c, 10, 81, 127
1, 89188, Note_on_c, 10, 81, 127
1, 89202, Note_off_c, 7, 79, 127
1, 89338, Note_off_c, 10, 57, 127
1, 89340, Note_on_c, 1, 61, 127
1, 89340, Note_on_c, 4, 76, 127
1, 89362, Note_off_c, 10, 81, 127
1, 89491, Note_on_c, 10, 81, 127
1, 89537, Note_off_c, 4, 76, 127
1, 89641, Note_off_c, 1, 61, 127
1, 89643, Note_on_c, 10, 57, 127
1, 89643, Note_on_c, 7, 79, 127
1, 89665, Note_off_c, 10, 81, 127
1, 89794, Note_on_c, 10, 81, 127
1, 89808, Note_off_c, 7, 79, 127
1, 89944, Note_off_c, 10, 57, 127
1, 89946, Note_on_c, 2, 62, 127
1, 89946, Note_on_c, 5, 77, 127
1, 89968, Note_off_c, 10, 81, 127
1, 90097, Note_on_c, 10, 81, 127
1, 90143, Note_off_c, 5, 77, 127
1, 90247, Note_off_c, 2, 62, 127
1, 90249, Note_on_c, 5, 65, 127
1, 90249, Note_on_c, 7, 79, 127
1, 90271, Note_off_c, 10, 81, 127
1, 90400, Note_on_c, 10, 81, 127
1, 90414, Note_off_c, 7, 79, 127
1, 90550, Note_off_c, 5, 65, 127
1, 90552, Note_on_c, 10, 69, 127
1, 90552, Note_on_c, 5, 77, 127
1, 90574, Note_off_c, 10, 81, 127
1, 90703, Note_on_c, 10, 81, 127
1, 90717, Note_off_c, 5, 77, 127
1, 90853, Note_off_c, 10, 69, 127
1, 90855, Note_on_c, 0, 60, 127
1, 90855, Note_on_c, 7, 79, 127
1, 90877, Note_off_c, 10, 81, 127
1, 91006, Note_on_c, 10, 81, 127
1, 91020, Note_off_c, 7, 79, 127
1, 91156, Note_off_c, 0, 60, 127
1, 91158, Note_on_c, 12, 59, 127
1, 91158, Note_on_c, 2, 74, 127
1, 91180, Note_off_c, 10, 81, 127
1, 91309, Note_on_c, 7, 79, 127
1, 91355, Note_off_c, 2, 74, 127
1, 91459, Note_off_c, 12, 59, 127
1, 91461, Note_on_c, 2, 62, 127
1, 91461, Note_on_c, 5, 77, 127
1, 91475, Note_off_c, 7, 79, 127
1, 91612, Note_on_c, 7, 79, 127
1, 91626, Note_off_c, 5, 77, 127
1, 91762, Note_off_c, 2, 62, 127
1, 91764, Note_on_c, 7, 67, 127
1, 91764, Note_on_c, 2, 74, 127
1, 91778, Note_off_c, 7, 79, 127
1, 91915, Note_on_c, 7, 79, 127
1, 91961, Note_off_c, 2, 74, 127
1, 92065, Note_off_c, 7, 67, 127
1, 92067, Note_on_c, 12, 59, 127
1, 92067, Note_on_c, 5, 77, 127
1, 92081, Note_off_c, 7, 79, 127
1, 92218, Note_on_c, 7, 79, 127
1, 92232, Note_off_c, 5, 77, 127
1, 92368, Note_off_c, 12, 59, 127
1, 92370, Note_on_c, 0, 60, 127
1, 92370, Note_on_c, 4, 76, 127
1, 92384, Note_off_c, 7, 79, 127
1, 92521, Note_on_c, 7, 79, 127
1, 92535, Note_off_c, 4, 76, 127
1, 92671, Note_off_c, 0, 60, 127
1, 92673, Note_on_c, 4, 64, 127
1, 92673, Note_on_c, 5, 77, 127
1, 92687, Note_off_c, 7, 79, 127
1, 92824, Note_on_c, 7, 79, 127
1, 92838, Note_off_c, 5, 77, 127
1, 92974, Note_off_c, 4, 64, 127
1, 92976, Note_on_c, 7, 67, 127
1, 92976, Note_on_c, 4, 76, 127
1, 92990, Note_off_c, 7, 79, 127
1, 93127, Note_on_c, 7, 79, 127
1, 93141, Note_off_c, 4, 76, 127
1, 93277, Note_off_c, 7, 67, 127
1, 93279, Note_on_c, 12, 59, 127
1, 93279, Note_on_c, 5, 77, 127
1, 93293, Note_off_c, 7, 79, 127
1, 93430, Note_on_c, 7, 79, 127
1, 93444, Note_off_c, 5, 77, 127
1, 93580, Note_off_c, 12, 59, 127
1, 93582, Note_on_c, 10, 57, 127
1, 93582, Note_on_c, 0, 72, 127
1, 93596, Note_off_c, 7, 79, 127
1, 93733, Note_on_c, 5, 77, 127
1, 93779, Note_off_c, 0, 72, 127
1, 93883, Note_off_c, 10, 57, 127
1, 93885, Note_on_c, 0, 60, 127
1, 93885, Note_on_c, 4, 76, 127
1, 93899, Note_off_c, 5, 77, 127
1, 94036, Note_on_c, 5, 77, 127
1, 94050, Note_off_c, 4, 76, 127
1, 94186, Note_off_c, 0, 60, 127
1, 94188, Note_on_c, 5, 65, 127
1, 94188, Note_on_c, 0, 72, 127
1, 94202, Note_off_c, 5, 77, 127
1, 94339, Note_on_c, 5, 77, 127
1, 94385, Note_off_c, 0, 72, 127
1, 94489, Note_off_c, 5, 65, 127
1, 94491, Note_on_c, 10, 57, 127
1, 94491, Note_on_c, 4, 76, 127
1, 94505, Note_off_c, 5, 77, 127
1, 94642, Note_on_c, 5, 77, 127
1, 94656, Note_off_c, 4, 76, 127
1, 94792, Note_off_c, 10, 57, 127
1, 94794, Note_on_c, 12, 59, 127
1, 94794, Note_on_c, 2, 74, 127
1, 94808, Note_off_c, 5, 77, 127
1, 94945, Note_on_c, 5, 77, 127
1, 94959, Note_off_c, 2, 74, 127
1, 95095, Note_off_c, 12, 59, 127
1, 95097, Note_on_c, 2, 62, 127
1, 95097, Note_on_c, 4, 76, 127
1, 95111, Note_off_c, 5, 77, 127
1, 95248, Note_on_c, 5, 77, 127
1, 95262, Note_off_c, 4, 76, 127
1, 95398, Note_off_c, 2, 62, 127
1, 95400, Note_on_c, 5, 65, 127
1, 95400, Note_on_c, 2, 74, 127
1, 95414, Note_off_c, 5, 77, 127
1, 95551, Note_on_c, 5, 77, 127
1, 95565, Note_off_c, 2, 74, 127
1, 95701, Note_off_c, 5, 65, 127
1, 95703, Note_on_c, 10, 57, 127
1, 95703, Note_on_c, 4, 76, 127
1, 95717, Note_off_c, 5, 77, 127
1, 95854, Note_on_c, 5, 77, 127
1, 95868, Note_off_c, 4, 76, 127
1, 96004, Note_off_c, 10, 57, 127
1, 96006, Note_on_c, 8, 56, 127
1, 96006, Note_on_c, 12, 71, 127
1, 96020, Note_off_c, 5, 77, 127
1, 96157, Note_on_c, 4, 76, 127
1, 96203, Note_off_c, 12, 71, 127
1, 96307, Note_off_c, 8, 56, 127
1, 96309, Note_on_c, 12, 59, 127
1, 96309, Note_on_c, 2, 74, 127
1, 96323, Note_off_c, 4, 76, 127
1, 96460, Note_on_c, 4, 76, 127
1, 96474, Note_off_c, 2, 74, 127
1, 96610, Note_off_c, 12, 59, 127
1, 96612, Note_on_c, 4, 64, 127
1, 96612, Note_on_c, 12, 71, 127
1, 96626, Note_off_c, 4, 76, 127
1, 96763, Note_on_c, 4, 76, 127
1, 96809, Note_off_c, 12, 71, 127
1, 96913, Note_off_c, 4, 64, 127
1, 96915, Note_on_c, 8, 56, 127
1, 96915, Note_on_c, 2, 74, 127
1, 96929, Note_off_c, 4, 76, 127
1, 97066, Note_on_c, 4, 76, 127
1, 97080, Note_off_c, 2, 74, 127
1, 97216, Note_off_c, 8, 56, 127
1, 97218, Note_on_c, 10, 57, 127
1, 97218, Note_on_c, 0, 72, 127
1, 97232, Note_off_c, 4, 76, 127
1, 97368, Note_off_c, 10, 57, 127
1, 97370, Note_on_c, 0, 60, 127
1, 97370, Note_on_c, 10, 69, 127
1, 97376, Note_off_c, 0, 72, 127
1, 97520, Note_off_c, 0, 60, 127
1, 97522, Note_on_c, 12, 59, 127
1, 97522, Note_on_c, 0, 72, 127
1, 97536, Note_off_c, 10, 69, 127
1, 97672, Note_off_c, 12, 59, 127
1, 97674, Note_on_c, 0, 60, 127
1, 97674, Note_on_c, 4, 76, 127
1, 97688, Note_off_c, 0, 72, 127
1, 97824, Note_off_c, 0, 60, 127
1, 97826, Note_on_c, 10, 57, 127
1, 97826, Note_on_c, 10, 81, 127
1, 97840, Note_off_c, 4, 76, 127
1, 97976, Note_off_c, 10, 57, 127
1, 97978, Note_on_c, 0, 60, 127
1, 97978, Note_on_c, 10, 69, 127
1, 97992, Note_off_c, 10, 81, 127
1, 98128, Note_off_c, 0, 60, 127
1, 98130, Note_on_c, 7, 55, 127
1, 98130, Note_on_c, 0, 72, 127
1, 98152, Note_off_c, 10, 69, 127
1, 98280, Note_off_c, 7, 55, 127
1, 98282, Note_on_c, 0, 60, 127
1, 98282, Note_on_c, 4, 76, 127
1, 98304, Note_off_c, 0, 72, 127
1, 98432, Note_off_c, 0, 60, 127
1, 98434, Note_on_c, 5, 53, 127
1, 98434, Note_on_c, 10, 81, 127
1, 98456, Note_off_c, 4, 76, 127
1, 98584, Note_off_c, 5, 53, 127
1, 98586, Note_on_c, 10, 57, 127
1, 98586, Note_on_c, 10, 69, 127
1, 98608, Note_off_c, 10, 81, 127
1, 98736, Note_off_c, 10, 57, 127
1, 98738, Note_on_c, 8, 56, 127
1, 98738, Note_on_c, 0, 72, 127
1, 98776, Note_off_c, 10, 69, 127
1, 98888, Note_off_c, 8, 56, 127
1, 98890, Note_on_c, 10, 57, 127
1, 98890, Note_on_c, 4, 76, 127
1, 98928, Note_off_c, 0, 72, 127
1, 99040, Note_off_c, 10, 57, 127
1, 99042, Note_on_c, 5, 53, 127
1, 99042, Note_on_c, 10, 81, 127
1, 99080, Note_off_c, 4, 76, 127
1, 99192, Note_off_c, 5, 53, 127
1, 99194, Note_on_c, 10, 57, 127
1, 99194, Note_on_c, 10, 69, 127
1, 99232, Note_off_c, 10, 81, 127
1, 99344, Note_off_c, 10, 57, 127
1, 99346, Note_on_c, 4, 52, 127
1, 99346, Note_on_c, 0, 72, 127
1, 99352, Note_off_c, 10, 69, 127
1, 99496, Note_off_c, 4, 52, 127
1, 99498, Note_on_c, 10, 57, 127
1, 99498, Note_on_c, 4, 76, 127
1, 99504, Note_off_c, 0, 72, 127
1, 99648, Note_off_c, 10, 57, 127
1, 99650, Note_on_c, 2, 50, 127
1, 99650, Note_on_c, 10, 81, 127
1, 99664, Note_off_c, 4, 76, 127
1, 99800, Note_off_c, 2, 50, 127
1, 99802, Note_on_c, 5, 53, 127
1, 99802, Note_on_c, 10, 69, 127
1, 99824, Note_off_c, 10, 81, 127
1, 99952, Note_off_c, 5, 53, 127
1, 99954, Note_on_c, 4, 52, 127
1, 99954, Note_on_c, 8, 68, 127
1, 99960, Note_off_c, 10, 69, 127
1, 100104, Note_off_c, 4, 52, 127
1, 100106, Note_on_c, 5, 53, 127
1, 100106, Note_on_c, 10, 69, 127
1, 100112, Note_off_c, 8, 68, 127
1, 100256, Note_off_c, 5, 53, 127
1, 100258, Note_on_c, 10, 45, 127
1, 100258, Note_on_c, 0, 60, 127
1, 100264, Note_off_c, 10, 69, 127
1, 100408, Note_off_c, 10, 45, 127
1, 100410, Note_on_c, 5, 53, 127
1, 100410, Note_on_c, 10, 69, 127
1, 100479, Note_off_c, 0, 60, 127
1, 100560, Note_off_c, 5, 53, 127
1, 100562, Note_on_c, 4, 52, 127
1, 100562, Note_on_c, 8, 68, 127
1, 100568, Note_off_c, 10, 69, 127
1, 100712, Note_off_c, 4, 52, 127
1, 100714, Note_on_c, 5, 53, 127
1, 100714, Note_on_c, 10, 69, 127
1, 100720, Note_off_c, 8, 68, 127
1, 100864, Note_off_c, 5, 53, 127
1, 100866, Note_on_c, 12, 47, 127
1, 100866, Note_on_c, 2, 62, 127
1, 100872, Note_off_c, 10, 69, 127
1, 101016, Note_off_c, 12, 47, 127
1, 101018, Note_on_c, 0, 48, 127
1, 101018, Note_on_c, 10, 69, 127
1, 101056, Note_off_c, 2, 62, 127
1, 101168, Note_off_c, 0, 48, 127
1, 101170, Note_on_c, 2, 50, 127
1, 101170, Note_on_c, 8, 68, 127
1, 101176, Note_off_c, 10, 69, 127
1, 101320, Note_off_c, 2, 50, 127
1, 101322, Note_on_c, 0, 48, 127
1, 101322, Note_on_c, 10, 69, 127
1, 101328, Note_off_c, 8, 68, 127
1, 101472, Note_off_c, 0, 48, 127
1, 101474, Note_on_c, 12, 47, 127
1, 101474, Note_on_c, 2, 62, 127
1, 101480, Note_off_c, 10, 69, 127
1, 101624, Note_off_c, 12, 47, 127
1, 101626, Note_on_c, 2, 50, 127
1, 101626, Note_on_c, 10, 69, 127
1, 101648, Note_off_c, 2, 62, 127
1, 101776, Note_off_c, 2, 50, 127
1, 101778, Note_on_c, 12, 47, 127
1, 101778, Note_on_c, 8, 68, 127
1, 101784, Note_off_c, 10, 69, 127
1, 101928, Note_off_c, 12, 47, 127
1, 101930, Note_on_c, 2, 50, 127
1, 101930, Note_on_c, 10, 69, 127
1, 101936, Note_off_c, 8, 68, 127
1, 102080, Note_off_c, 2, 50, 127
1, 102082, Note_on_c, 0, 48, 127
1, 102082, Note_on_c, 4, 64, 127
1, 102088, Note_off_c, 10, 69, 127
1, 102232, Note_off_c, 0, 48, 127
1, 102234, Note_on_c, 2, 50, 127
1, 102234, Note_on_c, 10, 69, 127
1, 102272, Note_off_c, 4, 64, 127
1, 102384, Note_off_c, 2, 50, 127
1, 102386, Note_on_c, 4, 52, 127
1, 102386, Note_on_c, 8, 68, 127
1, 102392, Note_off_c, 10, 69, 127
1, 102536, Note_off_c, 4, 52, 127
1, 102538, Note_on_c, 2, 50, 127
1, 102538, Note_on_c, 10, 69, 127
1, 102544, Note_off_c, 8, 68, 127
1, 102688, Note_off_c, 2, 50, 127
1, 102690, Note_on_c, 0, 48, 127
1, 102690, Note_on_c, 4, 64, 127
1, 102696, Note_off_c, 10, 69, 127
1, 102840, Note_off_c, 0, 48, 127
1, 102842, Note_on_c, 4, 52, 127
1, 102842, Note_on_c, 10, 69, 127
1, 102864, Note_off_c, 4, 64, 127
1, 102992, Note_off_c, 4, 52, 127
1, 102994, Note_on_c, 0, 48, 127
1, 102994, Note_on_c, 8, 68, 127
1, 103000, Note_off_c, 10, 69, 127
1, 103144, Note_off_c, 0, 48, 127
1, 103146, Note_on_c, 4, 52, 127
1, 103146, Note_on_c, 10, 69, 127
1, 103152, Note_off_c, 8, 68, 127
1, 103296, Note_off_c, 4, 52, 127
1, 103298, Note_on_c, 2, 50, 127
1, 103298, Note_on_c, 5, 65, 127
1, 103304, Note_off_c, 10, 69, 127
1, 103448, Note_off_c, 2, 50, 127
1, 103450, Note_on_c, 4, 52, 127
1, 103450, Note_on_c, 10, 69, 127
1, 103478, Note_off_c, 5, 65, 127
1, 103600, Note_off_c, 4, 52, 127
1, 103602, Note_on_c, 5, 53, 127
1, 103602, Note_on_c, 8, 68, 127
1, 103608, Note_off_c, 10, 69, 127
1, 103752, Note_off_c, 5, 53, 127
1, 103754, Note_on_c, 4, 52, 127
1, 103754, Note_on_c, 10, 69, 127
1, 103760, Note_off_c, 8, 68, 127
1, 103904, Note_off_c, 4, 52, 127
1, 103906, Note_on_c, 2, 50, 127
1, 103906, Note_on_c, 5, 65, 127
1, 103912, Note_off_c, 10, 69, 127
1, 104056, Note_off_c, 2, 50, 127
1, 104058, Note_on_c, 5, 53, 127
1, 104058, Note_on_c, 10, 69, 127
1, 104069, Note_off_c, 5, 65, 127
1, 104208, Note_off_c, 5, 53, 127
1, 104210, Note_on_c, 2, 50, 127
1, 104210, Note_on_c, 8, 68, 127
1, 104216, Note_off_c, 10, 69, 127
1, 104360, Note_off_c, 2, 50, 127
1, 104362, Note_on_c, 5, 53, 127
1, 104362, Note_on_c, 10, 69, 127
1, 104368, Note_off_c, 8, 68, 127
1, 104512, Note_off_c, 5, 53, 127
1, 104514, Note_on_c, 10, 45, 127
1, 104514, Note_on_c, 0, 60, 127
1, 104520, Note_off_c, 10, 69, 127
1, 104664, Note_off_c, 10, 45, 127
1, 104666, Note_on_c, 12, 47, 127
1, 104666, Note_on_c, 10, 69, 127
1, 104720, Note_off_c, 0, 60, 127
1, 104816, Note_off_c, 12, 47, 127
1, 104818, Note_on_c, 0, 48, 127
1, 104818, Note_on_c, 8, 68, 127
1, 104824, Note_off_c, 10, 69, 127
1, 104968, Note_off_c, 0, 48, 127
1, 104970, Note_on_c, 12, 47, 127
1, 104970, Note_on_c, 10, 69, 127
1, 104976, Note_off_c, 8, 68, 127
1, 105120, Note_off_c, 12, 47, 127
1, 105122, Note_on_c, 10, 45, 127
1, 105122, Note_on_c, 0, 60, 127
1, 105128, Note_off_c, 10, 69, 127
1, 105272, Note_off_c, 10, 45, 127
1, 105274, Note_on_c, 0, 48, 127
1, 105274, Note_on_c, 10, 69, 127
1, 105312, Note_off_c, 0, 60, 127
1, 105424, Note_off_c, 0, 48, 127
1, 105426, Note_on_c, 10, 45, 127
1, 105426, Note_on_c, 8, 68, 127
1, 105432, Note_off_c, 10, 69, 127
1, 105576, Note_off_c, 10, 45, 127
1, 105578, Note_on_c, 0, 48, 127
1, 105578, Note_on_c, 10, 69, 127
1, 105584, Note_off_c, 8, 68, 127
1, 105728, Note_off_c, 0, 48, 127
1, 105730, Note_on_c, 12, 47, 127
1, 105730, Note_on_c, 2, 62, 127
1, 105736, Note_off_c, 10, 69, 127
1, 105880, Note_off_c, 12, 47, 127
1, 105882, Note_on_c, 0, 48, 127
1, 105882, Note_on_c, 10, 69, 127
1, 105936, Note_off_c, 2, 62, 127
1, 106032, Note_off_c, 0, 48, 127
1, 106034, Note_on_c, 2, 50, 127
1, 106034, Note_on_c, 8, 68, 127
1, 106040, Note_off_c, 10, 69, 127
1, 106184, Note_off_c, 2, 50, 127
1, 106186, Note_on_c, 0, 48, 127
1, 106186, Note_on_c, 10, 69, 127
1, 106192, Note_off_c, 8, 68, 127
1, 106336, Note_off_c, 0, 48, 127
1, 106338, Note_on_c, 12, 47, 127
1, 106338, Note_on_c, 2, 62, 127
1, 106344, Note_off_c, 10, 69, 127
1, 106488, Note_off_c, 12, 47, 127
1, 106490, Note_on_c, 2, 50, 127
1, 106490, Note_on_c, 10, 69, 127
1, 106528, Note_off_c, 2, 62, 127
1, 106640, Note_off_c, 2, 50, 127
1, 106642, Note_on_c, 12, 47, 127
1, 106642, Note_on_c, 8, 68, 127
1, 106648, Note_off_c, 10, 69, 127
1, 106792, Note_off_c, 12, 47, 127
1, 106794, Note_on_c, 2, 50, 127
1, 106794, Note_on_c, 10, 69, 127
1, 106800, Note_off_c, 8, 68, 127
1, 106944, Note_off_c, 2, 50, 127
1, 106946, Note_on_c, 4, 40, 127
1, 106946, Note_on_c, 4, 64, 127
1, 106952, Note_off_c, 10, 69, 127
1, 107096, Note_off_c, 4, 40, 127
1, 107098, Note_on_c, 5, 53, 127
1, 107098, Note_on_c, 10, 69, 127
1, 107136, Note_off_c, 4, 64, 127
1, 107248, Note_off_c, 5, 53, 127
1, 107250, Note_on_c, 4, 52, 127
1, 107250, Note_on_c, 8, 68, 127
1, 107256, Note_off_c, 10, 69, 127
1, 107400, Note_off_c, 4, 52, 127
1, 107402, Note_on_c, 2, 50, 127
1, 107402, Note_on_c, 10, 69, 127
1, 107408, Note_off_c, 8, 68, 127
1, 107544, Note_off_c, 10, 69, 127
1, 107552, Note_off_c, 2, 50, 127
1, 107554, Note_on_c, 4, 52, 127
1, 107554, Note_on_c, 12, 59, 127
1, 107856, Note_off_c, 12, 59, 127
1, 107856, Note_off_c, 4, 52, 127
1, 107858, Note_on_c, 4, 40, 127
1, 107858, Note_on_c, 8, 68, 127
1, 108160, Note_off_c, 8, 68, 127
1, 108160, Note_off_c, 4, 40, 127
1, 108162, Note_on_c, 10, 45, 127
1, 108162, Note_on_c, 10, 69, 127
1, 108464, Note_off_c, 10, 69, 127
1, 108466, Note_on_c, 7, 67, 127
1, 108608, Note_off_c, 7, 67, 127
1, 108617, Note_on_c, 5, 65, 127
1, 108759, Note_off_c, 5, 65, 127
1, 108768, Note_on_c, 4, 64, 127
1, 109070, Note_off_c, 4, 64, 127
1, 109070, Note_off_c, 10, 45, 127
1, 109072, Note_on_c, 2, 62, 127
1, 109374, Note_off_c, 2, 62, 127
1, 109376, Note_on_c, 0, 60, 127
1, 109678, Note_off_c, 0, 60, 127
1, 109680, Note_on_c, 10, 57, 127
1, 109982, Note_off_c, 10, 57, 127
1, 109984, Note_on_c, 0, 60, 127
1, 110286, Note_off_c, 0, 60, 127
1, 110288, Note_on_c, 4, 64, 127
1, 110590, Note_off_c, 4, 64, 127
1, 110592, Note_on_c, 10, 57, 127
1, 110592, Note_on_c, 0, 60, 127
1, 110592, Note_on_c, 10, 69, 127
1, 110592, Note_on_c, 4, 64, 127
1, 110894, Note_off_c, 10, 57, 127
1, 110896, Note_on_c, 7, 55, 127
1, 111046, Note_off_c, 7, 55, 127
1, 111048, Note_on_c, 5, 53, 127
1, 111198, Note_off_c, 5, 53, 127
1, 111198, Note_off_c, 4, 64, 127
1, 111198, Note_off_c, 10, 69, 127
1, 111198, Note_off_c, 0, 60, 127
1, 111200, Note_on_c, 4, 52, 127
1, 111200, Note_on_c, 12, 71, 127
1, 111200, Note_on_c, 8, 68, 127
1, 111200, Note_on_c, 4, 64, 127
1, 111350, Note_off_c, 4, 52, 127
1, 111352, Note_on_c, 2, 50, 127
1, 111502, Note_off_c, 2, 50, 127
1, 111504, Note_on_c, 0, 48, 127
1, 111654, Note_off_c, 0, 48, 127
1, 111656, Note_on_c, 12, 47, 127
1, 111806, Note_off_c, 12, 47, 127
1, 111806, Note_off_c, 4, 64, 127
1, 111806, Note_off_c, 8, 68, 127
1, 111806, Note_off_c, 12, 71, 127
1, 111808, Note_on_c, 10, 45, 127
1, 111808, Note_on_c, 4, 64, 127
1, 111808, Note_on_c, 10, 69, 127
1, 111808, Note_on_c, 0, 72, 127
1, 111958, Note_off_c, 10, 45, 127
1, 111960, Note_on_c, 4, 52, 127
1, 112110, Note_off_c, 4, 52, 127
1, 112110, Note_off_c, 0, 72, 127
1, 112110, Note_off_c, 10, 69, 127
1, 112110, Note_off_c, 4, 64, 127
1, 112112, Note_on_c, 2, 50, 127
1, 112112, Note_on_c, 12, 71, 127
1, 112262, Note_off_c, 2, 50, 127
1, 112264, Note_on_c, 4, 52, 127
1, 112264, Note_on_c, 0, 72, 127
1, 112270, Note_off_c, 12, 71, 127
1, 112406, Note_off_c, 0, 72, 127
1, 112414, Note_off_c, 4, 52, 127
1, 112416, Note_on_c, 0, 48, 127
1, 112416, Note_on_c, 10, 69, 127
1, 112566, Note_off_c, 0, 48, 127
1, 112568, Note_on_c, 4, 52, 127
1, 112718, Note_off_c, 4, 52, 127
1, 112720, Note_on_c, 10, 45, 127
1, 112859, Note_off_c, 10, 69, 127
1, 112870, Note_off_c, 10, 45, 127
1, 112876, Note_on_c, 0, 48, 127
1, 113028, Note_off_c, 0, 48, 127
1, 113040, Note_on_c, 0, 72, 127
1, 113040, Note_on_c, 7, 43, 127
1, 113040, Note_on_c, 0, 48, 127
1, 113040, Note_on_c, 4, 40, 127
1, 113342, Note_off_c, 0, 72, 127
1, 113344, Note_on_c, 12, 71, 127
1, 113486, Note_off_c, 12, 71, 127
1, 113495, Note_on_c, 10, 69, 127
1, 113637, Note_off_c, 10, 69, 127
1, 113646, Note_on_c, 7, 67, 127
1, 113948, Note_off_c, 7, 67, 127
1, 113948, Note_off_c, 4, 40, 127
1, 113948, Note_off_c, 0, 48, 127
1, 113948, Note_off_c, 7, 43, 127
1, 113950, Note_on_c, 5, 65, 127
1, 114252, Note_off_c, 5, 65, 127
1, 114254, Note_on_c, 4, 64, 127
1, 114556, Note_off_c, 4, 64, 127
1, 114558, Note_on_c, 0, 60, 127
1, 114860, Note_off_c, 0, 60, 127
1, 114862, Note_on_c, 4, 64, 127
1, 115164, Note_off_c, 4, 64, 127
1, 115166, Note_on_c, 7, 67, 127
1, 115468, Note_off_c, 7, 67, 127
1, 115470, Note_on_c, 0, 72, 127
1, 115470, Note_on_c, 4, 64, 127
1, 115470, Note_on_c, 7, 67, 127
1, 115470, Note_on_c, 0, 60, 127
1, 115772, Note_off_c, 0, 60, 127
1, 115774, Note_on_c, 12, 59, 127
1, 115924, Note_off_c, 12, 59, 127
1, 115926, Note_on_c, 10, 57, 127
1, 116076, Note_off_c, 10, 57, 127
1, 116076, Note_off_c, 7, 67, 127
1, 116076, Note_off_c, 4, 64, 127
1, 116076, Note_off_c, 0, 72, 127
1, 116078, Note_on_c, 12, 71, 127
1, 116078, Note_on_c, 2, 74, 127
1, 116078, Note_on_c, 7, 67, 127
1, 116078, Note_on_c, 7, 55, 127
1, 116228, Note_off_c, 7, 55, 127
1, 116230, Note_on_c, 5, 53, 127
1, 116380, Note_off_c, 5, 53, 127
1, 116382, Note_on_c, 4, 52, 127
1, 116532, Note_off_c, 4, 52, 127
1, 116534, Note_on_c, 2, 50, 127
1, 116684, Note_off_c, 2, 50, 127
1, 116684, Note_off_c, 7, 67, 127
1, 116684, Note_off_c, 2, 74, 127
1, 116684, Note_off_c, 12, 71, 127
1, 116686, Note_on_c, 0, 72, 127
1, 116686, Note_on_c, 4, 76, 127
1, 116686, Note_on_c, 7, 67, 127
1, 116686, Note_on_c, 0, 48, 127
1, 116836, Note_off_c, 0, 48, 127
1, 116838, Note_on_c, 7, 55, 127
1, 116988, Note_off_c, 7, 55, 127
1, 116988, Note_off_c, 7, 67, 127
1, 116988, Note_off_c, 4, 76, 127
1, 116988, Note_off_c, 0, 72, 127
1, 116990, Note_on_c, 2, 74, 127
1, 116990, Note_on_c, 5, 53, 127
1, 117140, Note_off_c, 5, 53, 127
1, 117142, Note_on_c, 4, 76, 127
1, 117142, Note_on_c, 7, 55, 127
1, 117156, Note_off_c, 2, 74, 127
1, 117284, Note_off_c, 4, 76, 127
1, 117292, Note_off_c, 7, 55, 127
1, 117294, Note_on_c, 0, 72, 127
1, 117294, Note_on_c, 4, 52, 127
1, 117444, Note_off_c, 4, 52, 127
1, 117446, Note_on_c, 7, 55, 127
1, 117596, Note_off_c, 7, 55, 127
1, 117598, Note_on_c, 0, 48, 127
1, 117737, Note_off_c, 0, 72, 127
1, 117748, Note_off_c, 0, 48, 127
1, 117756, Note_on_c, 4, 52, 127
1, 117906, Note_off_c, 4, 52, 127
1, 117918, Note_on_c, 0, 48, 127
1, 117918, Note_on_c, 10, 45, 127
1, 117918, Note_on_c, 5, 53, 127
1, 117918, Note_on_c, 5, 77, 127
1, 118220, Note_off_c, 5, 77, 127
1, 118222, Note_on_c, 4, 76, 127
1, 118364, Note_off_c, 4, 76, 127
1, 118373, Note_on_c, 2, 74, 127
1, 118515, Note_off_c, 2, 74, 127
1, 118524, Note_on_c, 0, 72, 127
1, 118826, Note_off_c, 0, 72, 127
1, 118826, Note_off_c, 5, 53, 127
1, 118826, Note_off_c, 10, 45, 127
1, 118826, Note_off_c, 0, 48, 127
1, 118828, Note_on_c, 11, 70, 127
1, 119130, Note_off_c, 11, 70, 127
1, 119132, Note_on_c, 10, 69, 127
1, 119434, Note_off_c, 10, 69, 127
1, 119436, Note_on_c, 5, 65, 127
1, 119738, Note_off_c, 5, 65, 127
1, 119740, Note_on_c, 10, 69, 127
1, 120042, Note_off_c, 10, 69, 127
1, 120044, Note_on_c, 0, 72, 127
1, 120346, Note_off_c, 0, 72, 127
1, 120348, Note_on_c, 5, 65, 127
1, 120348, Note_on_c, 5, 77, 127
1, 120348, Note_on_c, 10, 69, 127
1, 120348, Note_on_c, 0, 72, 127
1, 120650, Note_off_c, 5, 65, 127
1, 120652, Note_on_c, 4, 64, 127
1, 120802, Note_off_c, 4, 64, 127
1, 120804, Note_on_c, 2, 62, 127
1, 120954, Note_off_c, 2, 62, 127
1, 120954, Note_off_c, 0, 72, 127
1, 120954, Note_off_c, 10, 69, 127
1, 120954, Note_off_c, 5, 77, 127
1, 120956, Note_on_c, 0, 60, 127
1, 120956, Note_on_c, 4, 76, 127
1, 120956, Note_on_c, 0, 72, 127
1, 120956, Note_on_c, 7, 79, 127
1, 121106, Note_off_c, 0, 60, 127
1, 121108, Note_on_c, 11, 58, 127
1, 121258, Note_off_c, 11, 58, 127
1, 121260, Note_on_c, 10, 57, 127
1, 121410, Note_off_c, 10, 57, 127
1, 121412, Note_on_c, 7, 55, 127
1, 121562, Note_off_c, 7, 55, 127
1, 121562, Note_off_c, 7, 79, 127
1, 121562, Note_off_c, 0, 72, 127
1, 121562, Note_off_c, 4, 76, 127
1, 121564, Note_on_c, 5, 53, 127
1, 121564, Note_on_c, 5, 77, 127
1, 121564, Note_on_c, 10, 81, 127
1, 121564, Note_on_c, 0, 72, 127
1, 121714, Note_off_c, 5, 53, 127
1, 121716, Note_on_c, 0, 60, 127
1, 121866, Note_off_c, 0, 60, 127
1, 121866, Note_off_c, 0, 72, 127
1, 121866, Note_off_c, 10, 81, 127
1, 121866, Note_off_c, 5, 77, 127
1, 121868, Note_on_c, 11, 58, 127
1, 121868, Note_on_c, 7, 79, 127
1, 122018, Note_off_c, 11, 58, 127
1, 122020, Note_on_c, 0, 60, 127
1, 122020, Note_on_c, 10, 81, 127
1, 122034, Note_off_c, 7, 79, 127
1, 122162, Note_off_c, 10, 81, 127
1, 122170, Note_off_c, 0, 60, 127
1, 122172, Note_on_c, 10, 57, 127
1, 122172, Note_on_c, 5, 77, 127
1, 122322, Note_off_c, 10, 57, 127
1, 122324, Note_on_c, 0, 60, 127
1, 122474, Note_off_c, 0, 60, 127
1, 122474, Note_off_c, 5, 77, 127
1, 122476, Note_on_c, 5, 53, 127
1, 122476, Note_on_c, 0, 72, 127
1, 122626, Note_off_c, 5, 53, 127
1, 122628, Note_on_c, 10, 57, 127
1, 122778, Note_off_c, 10, 57, 127
1, 122778, Note_off_c, 0, 72, 127
1, 122780, Note_on_c, 11, 46, 127
1, 122780, Note_on_c, 2, 74, 127
1, 122932, Note_on_c, 5, 77, 127
1, 123001, Note_off_c, 2, 74, 127
1, 123082, Note_off_c, 11, 46, 127
1, 123084, Note_on_c, 2, 50, 127
1, 123084, Note_on_c, 4, 76, 127
1, 123098, Note_off_c, 5, 77, 127
1, 123235, Note_on_c, 5, 77, 127
1, 123249, Note_off_c, 4, 76, 127
1, 123385, Note_off_c, 2, 50, 127
1, 123387, Note_on_c, 5, 53, 127
1, 123387, Note_on_c, 2, 74, 127
1, 123401, Note_off_c, 5, 77, 127
1, 123538, Note_on_c, 5, 77, 127
1, 123560, Note_off_c, 2, 74, 127
1, 123688, Note_off_c, 5, 53, 127
1, 123690, Note_on_c, 11, 46, 127
1, 123690, Note_on_c, 4, 76, 127
1, 123704, Note_off_c, 5, 77, 127
1, 123841, Note_on_c, 5, 77, 127
1, 123855, Note_off_c, 4, 76, 127
1, 123991, Note_off_c, 11, 46, 127
1, 123993, Note_on_c, 10, 45, 127
1, 123993, Note_on_c, 0, 72, 127
1, 124007, Note_off_c, 5, 77, 127
1, 124144, Note_on_c, 5, 77, 127
1, 124213, Note_off_c, 0, 72, 127
1, 124294, Note_off_c, 10, 45, 127
1, 124296, Note_on_c, 0, 48, 127
1, 124296, Note_on_c, 4, 76, 127
1, 124310, Note_off_c, 5, 77, 127
1, 124447, Note_on_c, 5, 77, 127
1, 124461, Note_off_c, 4, 76, 127
1, 124597, Note_off_c, 0, 48, 127
1, 124599, Note_on_c, 5, 53, 127
1, 124599, Note_on_c, 0, 72, 127
1, 124613, Note_off_c, 5, 77, 127
1, 124750, Note_on_c, 5, 77, 127
1, 124772, Note_off_c, 0, 72, 127
1, 124900, Note_off_c, 5, 53, 127
1, 124902, Note_on_c, 10, 45, 127
1, 124902, Note_on_c, 4, 76, 127
1, 124916, Note_off_c, 5, 77, 127
1, 125053, Note_on_c, 5, 77, 127
1, 125067, Note_off_c, 4, 76, 127
1, 125203, Note_off_c, 10, 45, 127
1, 125205, Note_on_c, 11, 46, 127
1, 125205, Note_on_c, 2, 74, 127
1, 125219, Note_off_c, 5, 77, 127
1, 125356, Note_on_c, 5, 77, 127
1, 125425, Note_off_c, 2, 74, 127
1, 125506, Note_off_c, 11, 46, 127
1, 125508, Note_on_c, 2, 50, 127
1, 125508, Note_on_c, 4, 76, 127
1, 125522, Note_off_c, 5, 77, 127
1, 125659, Note_on_c, 5, 77, 127
1, 125673, Note_off_c, 4, 76, 127
1, 125809, Note_off_c, 2, 50, 127
1, 125811, Note_on_c, 5, 53, 127
1, 125811, Note_on_c, 2, 74, 127
1, 125825, Note_off_c, 5, 77, 127
1, 125962, Note_on_c, 5, 77, 127
1, 125984, Note_off_c, 2, 74, 127
1, 126112, Note_off_c, 5, 53, 127
1, 126114, Note_on_c, 11, 46, 127
1, 126114, Note_on_c, 4, 76, 127
1, 126128, Note_off_c, 5, 77, 127
1, 126265, Note_on_c, 5, 77, 127
1, 126279, Note_off_c, 4, 76, 127
1, 126415, Note_off_c, 11, 46, 127
1, 126417, Note_on_c, 10, 45, 127
1, 126417, Note_on_c, 0, 72, 127
1, 126431, Note_off_c, 5, 77, 127
1, 126568, Note_on_c, 5, 77, 127
1, 126637, Note_off_c, 0, 72, 127
1, 126718, Note_off_c, 10, 45, 127
1, 126720, Note_on_c, 0, 48, 127
1, 126720, Note_on_c, 4, 76, 127
1, 126734, Note_off_c, 5, 77, 127
1, 126871, Note_on_c, 5, 77, 127
1, 126885, Note_off_c, 4, 76, 127
1, 127021, Note_off_c, 0, 48, 127
1, 127023, Note_on_c, 5, 53, 127
1, 127023, Note_on_c, 0, 72, 127
1, 127037, Note_off_c, 5, 77, 127
1, 127174, Note_on_c, 5, 77, 127
1, 127196, Note_off_c, 0, 72, 127
1, 127324, Note_off_c, 5, 53, 127
1, 127326, Note_on_c, 10, 45, 127
1, 127326, Note_on_c, 4, 76, 127
1, 127340, Note_off_c, 5, 77, 127
1, 127477, Note_on_c, 5, 77, 127
1, 127491, Note_off_c, 4, 76, 127
1, 127627, Note_off_c, 10, 45, 127
1, 127629, Note_on_c, 7, 43, 127
1, 127629, Note_on_c, 11, 70, 127
1, 127643, Note_off_c, 5, 77, 127
1, 127780, Note_on_c, 5, 77, 127
1, 127849, Note_off_c, 11, 70, 127
1, 127930, Note_off_c, 7, 43, 127
1, 127932, Note_on_c, 11, 46, 127
1, 127932, Note_on_c, 4, 76, 127
1, 127946, Note_off_c, 5, 77, 127
1, 128083, Note_on_c, 5, 77, 127
1, 128097, Note_off_c, 4, 76, 127
1, 128233, Note_off_c, 11, 46, 127
1, 128235, Note_on_c, 4, 52, 127
1, 128235, Note_on_c, 11, 70, 127
1, 128249, Note_off_c, 5, 77, 127
1, 128386, Note_on_c, 5, 77, 127
1, 128408, Note_off_c, 11, 70, 127
1, 128536, Note_off_c, 4, 52, 127
1, 128538, Note_on_c, 7, 43, 127
1, 128538, Note_on_c, 4, 76, 127
1, 128552, Note_off_c, 5, 77, 127
1, 128689, Note_on_c, 5, 77, 127
1, 128703, Note_off_c, 4, 76, 127
1, 128839, Note_off_c, 7, 43, 127
1, 128841, Note_on_c, 5, 41, 127
1, 128841, Note_on_c, 10, 69, 127
1, 128855, Note_off_c, 5, 77, 127
1, 128992, Note_on_c, 5, 77, 127
1, 129061, Note_off_c, 10, 69, 127
1, 129142, Note_off_c, 5, 41, 127
1, 129144, Note_on_c, 10, 45, 127
1, 129144, Note_on_c, 4, 76, 127
1, 129158, Note_off_c, 5, 77, 127
1, 129295, Note_on_c, 5, 77, 127
1, 129309, Note_off_c, 4, 76, 127
1, 129445, Note_off_c, 10, 45, 127
1, 129447, Note_on_c, 5, 53, 127
1, 129447, Note_on_c, 10, 69, 127
1, 129461, Note_off_c, 5, 77, 127
1, 129598, Note_on_c, 5, 77, 127
1, 129620, Note_off_c, 10, 69, 127
1, 129748, Note_off_c, 5, 53, 127
1, 129750, Note_on_c, 10, 45, 127
1, 129750, Note_on_c, 4, 76, 127
1, 129764, Note_off_c, 5, 77, 127
1, 129901, Note_on_c, 5, 77, 127
1, 129915, Note_off_c, 4, 76, 127
1, 130051, Note_off_c, 10, 45, 127
1, 130053, Note_on_c, 11, 46, 127
1, 130053, Note_on_c, 7, 67, 127
1, 130067, Note_off_c, 5, 77, 127
1, 130204, Note_on_c, 5, 77, 127
1, 130273, Note_off_c, 7, 67, 127
1, 130354, Note_off_c, 11, 46, 127
1, 130356, Note_on_c, 7, 43, 127
1, 130356, Note_on_c, 4, 76, 127
1, 130370, Note_off_c, 5, 77, 127
1, 130507, Note_on_c, 5, 77, 127
1, 130521, Note_off_c, 4, 76, 127
1, 130657, Note_off_c, 7, 43, 127
1, 130659, Note_on_c, 0, 48, 127
1, 130659, Note_on_c, 7, 67, 127
1, 130673, Note_off_c, 5, 77, 127
1, 130810, Note_on_c, 4, 76, 127
1, 130832, Note_off_c, 7, 67, 127
1, 130960, Note_off_c, 0, 48, 127
1, 130962, Note_on_c, 0, 36, 127
1, 130962, Note_on_c, 2, 74, 127
1, 130976, Note_off_c, 4, 76, 127
1, 131113, Note_on_c, 4, 76, 127
1, 131127, Note_off_c, 2, 74, 127
1, 131255, Note_off_c, 4, 76, 127
1, 131263, Note_off_c, 0, 36, 127
1, 131265, Note_on_c, 5, 41, 127
1, 131265, Note_on_c, 5, 77, 127
1, 131341, Note_on_c, 4, 76, 127
1, 131360, Note_off_c, 5, 77, 127
1, 131415, Note_off_c, 5, 41, 127
1, 131417, Note_on_c, 0, 36, 127
1, 131417, Note_on_c, 5, 77, 127
1, 131423, Note_off_c, 4, 76, 127
1, 131567, Note_off_c, 0, 36, 127
1, 131569, Note_on_c, 2, 38, 127
1, 131719, Note_off_c, 2, 38, 127
1, 131721, Note_on_c, 4, 40, 127
1, 131860, Note_off_c, 5, 77, 127
1, 131871, Note_off_c, 4, 40, 127
1, 131873, Note_on_c, 5, 41, 127
1, 132023, Note_off_c, 5, 41, 127
1, 132025, Note_on_c, 4, 40, 127
1, 132025, Note_on_c, 0, 60, 127
1, 132167, Note_off_c, 0, 60, 127
1, 132175, Note_off_c, 4, 40, 127
1, 132177, Note_on_c, 5, 41, 127
1, 132177, Note_on_c, 2, 62, 127
1, 132319, Note_off_c, 2, 62, 127
1, 132327, Note_off_c, 5, 41, 127
1, 132329, Note_on_c, 7, 43, 127
1, 132329, Note_on_c, 4, 64, 127
1, 132471, Note_off_c, 4, 64, 127
1, 132479, Note_off_c, 7, 43, 127
1, 132481, Note_on_c, 10, 45, 127
1, 132481, Note_on_c, 5, 65, 127
1, 132631, Note_off_c, 5, 65, 127
1, 132631, Note_off_c, 10, 45, 127
1, 132633, Note_on_c, 0, 48, 127
1, 132633, Note_on_c, 7, 67, 127
1, 132783, Note_off_c, 7, 67, 127
1, 132783, Note_off_c, 0, 48, 127
1, 132785, Note_on_c, 5, 53, 127
1, 132785, Note_on_c, 10, 69, 127
1, 132935, Note_off_c, 10, 69, 127
1, 132935, Note_off_c, 5, 53, 127
1, 132937, Note_on_c, 0, 48, 127
1, 132937, Note_on_c, 11, 70, 127
1, 133087, Note_off_c, 11, 70, 127
1, 133087, Note_off_c, 0, 48, 127
1, 133089, Note_on_c, 10, 45, 127
1, 133089, Note_on_c, 0, 72, 127
1, 133239, Note_off_c, 10, 45, 127
1, 133241, Note_on_c, 5, 53, 127
1, 133369, Note_off_c, 0, 72, 127
1, 133391, Note_off_c, 5, 53, 127
1, 133393, Note_on_c, 10, 45, 127
1, 133393, Note_on_c, 3, 63, 127
1, 133543, Note_off_c, 10, 45, 127
1, 133545, Note_on_c, 5, 53, 127
1, 133695, Note_off_c, 5, 53, 127
1, 133695, Note_off_c, 3, 63, 127
1, 133697, Note_on_c, 11, 46, 127
1, 133697, Note_on_c, 5, 65, 127
1, 133773, Note_on_c, 3, 63, 127
1, 133779, Note_off_c, 5, 65, 127
1, 133847, Note_off_c, 11, 46, 127
1, 133849, Note_on_c, 2, 50, 127
1, 133849, Note_on_c, 5, 65, 127
1, 133855, Note_off_c, 3, 63, 127
1, 133924, Note_on_c, 3, 63, 127
1, 133930, Note_off_c, 5, 65, 127
1, 133998, Note_off_c, 2, 50, 127
1, 134000, Note_on_c, 5, 53, 127
1, 134000, Note_on_c, 2, 62, 127
1, 134006, Note_off_c, 3, 63, 127
1, 134150, Note_off_c, 5, 53, 127
1, 134152, Note_on_c, 2, 50, 127
1, 134300, Note_off_c, 2, 62, 127
1, 134302, Note_off_c, 2, 50, 127
1, 134304, Note_on_c, 11, 46, 127
1, 134454, Note_off_c, 11, 46, 127
1, 134456, Note_on_c, 5, 53, 127
1, 134456, Note_on_c, 2, 62, 127
1, 134598, Note_off_c, 2, 62, 127
1, 134606, Note_off_c, 5, 53, 127
1, 134608, Note_on_c, 11, 46, 127
1, 134608, Note_on_c, 4, 64, 127
1, 134750, Note_off_c, 4, 64, 127
1, 134758, Note_off_c, 11, 46, 127
1, 134760, Note_on_c, 5, 53, 127
1, 134760, Note_on_c, 5, 65, 127
1, 134902, Note_off_c, 5, 65, 127
1, 134910, Note_off_c, 5, 53, 127
1, 134912, Note_on_c, 12, 47, 127
1, 134912, Note_on_c, 7, 67, 127
1, 135062, Note_off_c, 12, 47, 127
1, 135064, Note_on_c, 2, 50, 127
1, 135064, Note_on_c, 10, 69, 127
1, 135070, Note_off_c, 7, 67, 127
1, 135214, Note_off_c, 2, 50, 127
1, 135216, Note_on_c, 7, 55, 127
1, 135216, Note_on_c, 12, 71, 127
1, 135222, Note_off_c, 10, 69, 127
1, 135366, Note_off_c, 7, 55, 127
1, 135368, Note_on_c, 2, 50, 127
1, 135368, Note_on_c, 0, 72, 127
1, 135374, Note_off_c, 12, 71, 127
1, 135518, Note_off_c, 2, 50, 127
1, 135520, Note_on_c, 12, 47, 127
1, 135520, Note_on_c, 2, 74, 127
1, 135526, Note_off_c, 0, 72, 127
1, 135670, Note_off_c, 12, 47, 127
1, 135672, Note_on_c, 7, 55, 127
1, 135800, Note_off_c, 2, 74, 127
1, 135822, Note_off_c, 7, 55, 127
1, 135824, Note_on_c, 12, 47, 127
1, 135824, Note_on_c, 5, 65, 127
1, 135974, Note_off_c, 12, 47, 127
1, 135976, Note_on_c, 7, 55, 127
1, 136126, Note_off_c, 7, 55, 127
1, 136126, Note_off_c, 5, 65, 127
1, 136128, Note_on_c, 0, 48, 127
1, 136128, Note_on_c, 7, 67, 127
1, 136204, Note_on_c, 5, 65, 127
1, 136210, Note_off_c, 7, 67, 127
1, 136278, Note_off_c, 0, 48, 127
1, 136280, Note_on_c, 4, 52, 127
1, 136280, Note_on_c, 7, 67, 127
1, 136286, Note_off_c, 5, 65, 127
1, 136355, Note_on_c, 5, 65, 127
1, 136361, Note_off_c, 7, 67, 127
1, 136429, Note_off_c, 4, 52, 127
1, 136431, Note_on_c, 7, 55, 127
1, 136431, Note_on_c, 4, 64, 127
1, 136437, Note_off_c, 5, 65, 127
1, 136581, Note_off_c, 7, 55, 127
1, 136583, Note_on_c, 4, 52, 127
1, 136731, Note_off_c, 4, 64, 127
1, 136733, Note_off_c, 4, 52, 127
1, 136735, Note_on_c, 0, 48, 127
1, 136885, Note_off_c, 0, 48, 127
1, 136887, Note_on_c, 7, 55, 127
1, 136887, Note_on_c, 4, 64, 127
1, 137029, Note_off_c, 4, 64, 127
1, 137037, Note_off_c, 7, 55, 127
1, 137039, Note_on_c, 0, 48, 127
1, 137039, Note_on_c, 5, 65, 127
1, 137181, Note_off_c, 5, 65, 127
1, 137189, Note_off_c, 0, 48, 127
1, 137191, Note_on_c, 7, 55, 127
1, 137191, Note_on_c, 7, 67, 127
1, 137333, Note_off_c, 7, 67, 127
1, 137341, Note_off_c, 7, 55, 127
1, 137343, Note_on_c, 0, 48, 127
1, 137343, Note_on_c, 10, 69, 127
1, 137493, Note_off_c, 0, 48, 127
1, 137495, Note_on_c, 4, 52, 127
1, 137495, Note_on_c, 12, 71, 127
1, 137509, Note_off_c, 10, 69, 127
1, 137645, Note_off_c, 4, 52, 127
1, 137647, Note_on_c, 10, 57, 127
1, 137647, Note_on_c, 0, 72, 127
1, 137661, Note_off_c, 12, 71, 127
1, 137797, Note_off_c, 10, 57, 127
1, 137799, Note_on_c, 4, 52, 127
1, 137799, Note_on_c, 2, 74, 127
1, 137813, Note_off_c, 0, 72, 127
1, 137949, Note_off_c, 4, 52, 127
1, 137951, Note_on_c, 0, 48, 127
1, 137951, Note_on_c, 4, 76, 127
1, 137965, Note_off_c, 2, 74, 127
1, 138101, Note_off_c, 0, 48, 127
1, 138103, Note_on_c, 10, 57, 127
1, 138253, Note_off_c, 10, 57, 127
1, 138253, Note_off_c, 4, 76, 127
1, 138255, Note_on_c, 0, 48, 127
1, 138255, Note_on_c, 7, 67, 127
1, 138405, Note_off_c, 0, 48, 127
1, 138407, Note_on_c, 10, 57, 127
1, 138557, Note_off_c, 10, 57, 127
1, 138557, Note_off_c, 7, 67, 127
1, 138559, Note_on_c, 2, 50, 127
1, 138559, Note_on_c, 10, 69, 127
1, 138635, Note_on_c, 7, 67, 127
1, 138641, Note_off_c, 10, 69, 127
1, 138709, Note_off_c, 2, 50, 127
1, 138711, Note_on_c, 5, 53, 127
1, 138711, Note_on_c, 10, 69, 127
1, 138717, Note_off_c, 7, 67, 127
1, 138786, Note_on_c, 7, 67, 127
1, 138792, Note_off_c, 10, 69, 127
1, 138860, Note_off_c, 5, 53, 127
1, 138862, Note_on_c, 10, 57, 127
1, 138862, Note_on_c, 5, 65, 127
1, 138868, Note_off_c, 7, 67, 127
1, 139012, Note_off_c, 10, 57, 127
1, 139014, Note_on_c, 5, 53, 127
1, 139162, Note_off_c, 5, 65, 127
1, 139164, Note_off_c, 5, 53, 127
1, 139166, Note_on_c, 2, 50, 127
1, 139316, Note_off_c, 2, 50, 127
1, 139318, Note_on_c, 10, 57, 127
1, 139318, Note_on_c, 5, 65, 127
1, 139468, Note_off_c, 5, 65, 127
1, 139468, Note_off_c, 10, 57, 127
1, 139470, Note_on_c, 2, 50, 127
1, 139470, Note_on_c, 7, 67, 127
1, 139620, Note_off_c, 7, 67, 127
1, 139620, Note_off_c, 2, 50, 127
1, 139622, Note_on_c, 10, 57, 127
1, 139622, Note_on_c, 10, 69, 127
1, 139772, Note_off_c, 10, 69, 127
1, 139772, Note_off_c, 10, 57, 127
1, 139774, Note_on_c, 2, 50, 127
1, 139774, Note_on_c, 11, 70, 127
1, 139924, Note_off_c, 2, 50, 127
1, 139926, Note_on_c, 5, 53, 127
1, 139926, Note_on_c, 0, 72, 127
1, 139948, Note_off_c, 11, 70, 127
1, 140076, Note_off_c, 5, 53, 127
1, 140078, Note_on_c, 11, 58, 127
1, 140078, Note_on_c, 2, 74, 127
1, 140100, Note_off_c, 0, 72, 127
1, 140228, Note_off_c, 11, 58, 127
1, 140230, Note_on_c, 5, 53, 127
1, 140230, Note_on_c, 4, 76, 127
1, 140252, Note_off_c, 2, 74, 127
1, 140380, Note_off_c, 5, 53, 127
1, 140382, Note_on_c, 2, 50, 127
1, 140382, Note_on_c, 5, 77, 127
1, 140404, Note_off_c, 4, 76, 127
1, 140532, Note_off_c, 2, 50, 127
1, 140534, Note_on_c, 11, 58, 127
1, 140684, Note_off_c, 11, 58, 127
1, 140686, Note_on_c, 2, 50, 127
1, 140686, Note_on_c, 10, 69, 127
1, 140702, Note_off_c, 5, 77, 127
1, 140836, Note_off_c, 2, 50, 127
1, 140838, Note_on_c, 11, 58, 127
1, 140988, Note_off_c, 11, 58, 127
1, 140988, Note_off_c, 10, 69, 127
1, 140990, Note_on_c, 4, 52, 127
1, 140990, Note_on_c, 11, 70, 127
1, 141066, Note_on_c, 10, 69, 127
1, 141072, Note_off_c, 11, 70, 127
1, 141140, Note_off_c, 4, 52, 127
1, 141142, Note_on_c, 7, 55, 127
1, 141142, Note_on_c, 11, 70, 127
1, 141148, Note_off_c, 10, 69, 127
1, 141217, Note_on_c, 10, 69, 127
1, 141223, Note_off_c, 11, 70, 127
1, 141291, Note_off_c, 7, 55, 127
1, 141293, Note_on_c, 11, 58, 127
1, 141293, Note_on_c, 7, 67, 127
1, 141299, Note_off_c, 10, 69, 127
1, 141443, Note_off_c, 11, 58, 127
1, 141445, Note_on_c, 7, 55, 127
1, 141593, Note_off_c, 7, 67, 127
1, 141595, Note_off_c, 7, 55, 127
1, 141597, Note_on_c, 4, 52, 127
1, 141747, Note_off_c, 4, 52, 127
1, 141749, Note_on_c, 11, 58, 127
1, 141749, Note_on_c, 7, 67, 127
1, 141891, Note_off_c, 7, 67, 127
1, 141899, Note_off_c, 11, 58, 127
1, 141901, Note_on_c, 4, 52, 127
1, 141901, Note_on_c, 10, 69, 127
1, 142043, Note_off_c, 10, 69, 127
1, 142051, Note_off_c, 4, 52, 127
1, 142053, Note_on_c, 11, 58, 127
1, 142053, Note_on_c, 11, 70, 127
1, 142195, Note_off_c, 11, 70, 127
1, 142203, Note_off_c, 11, 58, 127
1, 142205, Note_on_c, 4, 52, 127
1, 142205, Note_on_c, 0, 72, 127
1, 142355, Note_off_c, 4, 52, 127
1, 142357, Note_on_c, 7, 55, 127
1, 142357, Note_on_c, 2, 74, 127
1, 142411, Note_off_c, 0, 72, 127
1, 142499, Note_off_c, 2, 74, 127
1, 142507, Note_off_c, 7, 55, 127
1, 142509, Note_on_c, 0, 60, 127
1, 142509, Note_on_c, 4, 76, 127
1, 142651, Note_off_c, 4, 76, 127
1, 142659, Note_off_c, 0, 60, 127
1, 142661, Note_on_c, 7, 55, 127
1, 142661, Note_on_c, 5, 77, 127
1, 142803, Note_off_c, 5, 77, 127
1, 142811, Note_off_c, 7, 55, 127
1, 142813, Note_on_c, 4, 52, 127
1, 142813, Note_on_c, 7, 79, 127
1, 142963, Note_off_c, 4, 52, 127
1, 142965, Note_on_c, 0, 60, 127
1, 143115, Note_off_c, 0, 60, 127
1, 143115, Note_off_c, 7, 79, 127
1, 143117, Note_on_c, 4, 52, 127
1, 143117, Note_on_c, 11, 70, 127
1, 143267, Note_off_c, 4, 52, 127
1, 143269, Note_on_c, 0, 60, 127
1, 143419, Note_off_c, 0, 60, 127
1, 143419, Note_off_c, 11, 70, 127
1, 143421, Note_on_c, 5, 53, 127
1, 143421, Note_on_c, 10, 69, 127
1, 143571, Note_off_c, 5, 53, 127
1, 143573, Note_on_c, 7, 55, 127
1, 143723, Note_off_c, 7, 55, 127
1, 143723, Note_off_c, 10, 69, 127
1, 143725, Note_on_c, 10, 57, 127
1, 143725, Note_on_c, 5, 77, 127
1, 143875, Note_off_c, 10, 57, 127
1, 143877, Note_on_c, 11, 58, 127
1, 144027, Note_off_c, 11, 58, 127
1, 144027, Note_off_c, 5, 77, 127
1, 144029, Note_on_c, 0, 60, 127
1, 144029, Note_on_c, 7, 67, 127
1, 144331, Note_off_c, 7, 67, 127
1, 144331, Note_off_c, 0, 60, 127
1, 144333, Note_on_c, 0, 48, 127
1, 144333, Note_on_c, 4, 76, 127
1, 144641, Note_off_c, 4, 76, 127
1, 144641, Note_off_c, 0, 48, 127
1, 144651, Note_on_c, 5, 53, 127
1, 144651, Note_on_c, 5, 77, 127
1, 144953, Note_off_c, 5, 77, 127
1, 144957, Note_on_c, 4, 76, 127
1, 145107, Note_off_c, 4, 76, 127
1, 145109, Note_on_c, 2, 74, 127
1, 145259, Note_off_c, 2, 74, 127
1, 145261, Note_on_c, 0, 72, 127
1, 145561, Note_off_c, 5, 53, 127
1, 145563, Note_off_c, 0, 72, 127
1, 145565, Note_on_c, 11, 70, 127
1, 145867, Note_off_c, 11, 70, 127
1, 145869, Note_on_c, 10, 69, 127
1, 145869, Note_on_c, 5, 65, 127
1, 146171, Note_off_c, 5, 65, 127
1, 146171, Note_off_c, 10, 69, 127
1, 146173, Note_on_c, 5, 65, 127
1, 146173, Note_on_c, 4, 64, 127
1, 146323, Note_off_c, 4, 64, 127
1, 146325, Note_on_c, 2, 62, 127
1, 146475, Note_off_c, 2, 62, 127
1, 146475, Note_off_c, 5, 65, 127
1, 146477, Note_on_c, 10, 69, 127
1, 146477, Note_on_c, 0, 60, 127
1, 146627, Note_off_c, 0, 60, 127
1, 146629, Note_on_c, 11, 58, 127
1, 146779, Note_off_c, 11, 58, 127
1, 146779, Note_off_c, 10, 69, 127
1, 146781, Note_on_c, 0, 72, 127
1, 146781, Note_on_c, 10, 57, 127
1, 146931, Note_off_c, 10, 57, 127
1, 146933, Note_on_c, 7, 55, 127
1, 147083, Note_off_c, 7, 55, 127
1, 147083, Note_off_c, 0, 72, 127
1, 147085, Note_on_c, 10, 69, 127
1, 147085, Note_on_c, 0, 72, 127
1, 147085, Note_on_c, 5, 77, 127
1, 147085, Note_on_c, 5, 53, 127
1, 147235, Note_off_c, 5, 53, 127
1, 147237, Note_on_c, 5, 53, 127
1, 147387, Note_off_c, 5, 53, 127
1, 147389, Note_on_c, 4, 52, 127
1, 147539, Note_off_c, 4, 52, 127
1, 147541, Note_on_c, 2, 50, 127
1, 147691, Note_off_c, 2, 50, 127
1, 147691, Note_off_c, 5, 77, 127
1, 147691, Note_off_c, 0, 72, 127
1, 147691, Note_off_c, 10, 69, 127
1, 147693, Note_on_c, 7, 79, 127
1, 147693, Note_on_c, 0, 72, 127
1, 147693, Note_on_c, 4, 76, 127
1, 147693, Note_on_c, 0, 48, 127
1, 147843, Note_off_c, 0, 48, 127
1, 147845, Note_on_c, 11, 46, 127
1, 147995, Note_off_c, 11, 46, 127
1, 147997, Note_on_c, 10, 45, 127
1, 148147, Note_off_c, 10, 45, 127
1, 148149, Note_on_c, 7, 43, 127
1, 148299, Note_off_c, 7, 43, 127
1, 148299, Note_off_c, 4, 76, 127
1, 148299, Note_off_c, 0, 72, 127
1, 148299, Note_off_c, 7, 79, 127
1, 148301, Note_on_c, 10, 81, 127
1, 148301, Note_on_c, 0, 72, 127
1, 148301, Note_on_c, 5, 77, 127
1, 148301, Note_on_c, 5, 41, 127
1, 148451, Note_off_c, 5, 41, 127
1, 148453, Note_on_c, 0, 48, 127
1, 148603, Note_off_c, 0, 48, 127
1, 148603, Note_off_c, 5, 77, 127
1, 148603, Note_off_c, 10, 81, 127
1, 148605, Note_on_c, 7, 79, 127
1, 148605, Note_on_c, 11, 46, 127
1, 148755, Note_off_c, 11, 46, 127
1, 148757, Note_on_c, 10, 81, 127
1, 148757, Note_on_c, 0, 48, 127
1, 148795, Note_off_c, 7, 79, 127
1, 148899, Note_off_c, 10, 81, 127
1, 148907, Note_off_c, 0, 48, 127
1, 148909, Note_on_c, 5, 77, 127
1, 148909, Note_on_c, 10, 45, 127
1, 149059, Note_off_c, 10, 45, 127
1, 149061, Note_on_c, 0, 48, 127
1, 149211, Note_off_c, 0, 48, 127
1, 149213, Note_on_c, 5, 41, 127
1, 149363, Note_off_c, 5, 41, 127
1, 149365, Note_on_c, 10, 45, 127
1, 149515, Note_off_c, 10, 45, 127
1, 149515, Note_off_c, 5, 77, 127
1, 149515, Note_off_c, 0, 72, 127
1, 149525, Note_on_c, 5, 77, 127
1, 149525, Note_on_c, 2, 38, 127
1, 149679, Note_off_c, 2, 38, 127
1, 149681, Note_on_c, 2, 50, 127
1, 149835, Note_off_c, 2, 50, 127
1, 149835, Note_off_c, 5, 77, 127
1, 149837, Note_on_c, 4, 76, 127
1, 149837, Note_on_c, 0, 48, 127
1, 149983, Note_off_c, 4, 76, 127
1, 149991, Note_off_c, 0, 48, 127
1, 149993, Note_on_c, 2, 74, 127
1, 149993, Note_on_c, 2, 50, 127
1, 150139, Note_off_c, 2, 74, 127
1, 150147, Note_off_c, 2, 50, 127
1, 150149, Note_on_c, 0, 72, 127
1, 150149, Note_on_c, 4, 40, 127
1, 150303, Note_off_c, 4, 40, 127
1, 150305, Note_on_c, 4, 52, 127
1, 150459, Note_off_c, 4, 52, 127
1, 150459, Note_off_c, 0, 72, 127
1, 150461, Note_on_c, 11, 70, 127
1, 150461, Note_on_c, 2, 50, 127
1, 150615, Note_off_c, 2, 50, 127
1, 150617, Note_on_c, 4, 52, 127
1, 150771, Note_off_c, 4, 52, 127
1, 150771, Note_off_c, 11, 70, 127
1, 150773, Note_on_c, 10, 69, 127
1, 150773, Note_on_c, 5, 41, 127
1, 150931, Note_off_c, 5, 41, 127
1, 150933, Note_on_c, 5, 53, 127
1, 151091, Note_off_c, 5, 53, 127
1, 151093, Note_on_c, 0, 72, 127
1, 151093, Note_on_c, 4, 52, 127
1, 151251, Note_off_c, 4, 52, 127
1, 151253, Note_on_c, 5, 53, 127
1, 151411, Note_off_c, 5, 53, 127
1, 151413, Note_on_c, 5, 77, 127
1, 151413, Note_on_c, 2, 50, 127
1, 151571, Note_off_c, 2, 50, 127
1, 151573, Note_on_c, 5, 53, 127
1, 151726, Note_off_c, 0, 72, 127
1, 151731, Note_off_c, 5, 53, 127
1, 151731, Note_off_c, 10, 69, 127
1, 151733, Note_on_c, 10, 69, 127
1, 151733, Note_on_c, 0, 72, 127
1, 151733, Note_on_c, 0, 48, 127
1, 151891, Note_off_c, 0, 48, 127
1, 151893, Note_on_c, 5, 53, 127
1, 152051, Note_off_c, 5, 53, 127
1, 152051, Note_off_c, 0, 72, 127
1, 152051, Note_off_c, 10, 69, 127
1, 152053, Note_on_c, 2, 74, 127
1, 152053, Note_on_c, 7, 67, 127
1, 152053, Note_on_c, 11, 70, 127
1, 152053, Note_on_c, 11, 46, 127
1, 152221, Note_off_c, 11, 46, 127
1, 152223, Note_on_c, 5, 53, 127
1, 152391, Note_off_c, 5, 53, 127
1, 152391, Note_off_c, 5, 77, 127
1, 152393, Note_on_c, 5, 77, 127
1, 152393, Note_on_c, 7, 43, 127
1, 152561, Note_off_c, 7, 43, 127
1, 152563, Note_on_c, 11, 46, 127
1, 152725, Note_off_c, 11, 70, 127
1, 152725, Note_off_c, 7, 67, 127
1, 152725, Note_off_c, 2, 74, 127
1, 152730, Note_off_c, 11, 46, 127
1, 152732, Note_on_c, 7, 67, 127
1, 152732, Note_on_c, 0, 72, 127
1, 152732, Note_on_c, 11, 70, 127
1, 152732, Note_on_c, 0, 36, 127
1, 152922, Note_off_c, 0, 36, 127
1, 152924, Note_on_c, 0, 48, 127
1, 153108, Note_off_c, 5, 77, 127
1, 153112, Note_off_c, 11, 70, 127
1, 153114, Note_off_c, 0, 48, 127
1, 153116, Note_on_c, 4, 76, 127
1, 153116, Note_on_c, 11, 46, 127
1, 153306, Note_off_c, 11, 46, 127
1, 153324, Note_on_c, 0, 48, 127
1, 153492, Note_off_c, 0, 72, 127
1, 153492, Note_off_c, 7, 67, 127
1, 153498, Note_off_c, 4, 76, 127
1, 153519, Note_off_c, 0, 48, 127
1, 153564, Note_on_c, 10, 69, 127
1, 153564, Note_on_c, 0, 72, 127
1, 153564, Note_on_c, 5, 77, 127
1, 153564, Note_on_c, 5, 65, 127
1, 153564, Note_on_c, 5, 41, 127
1, 156632, Note_off_c, 5, 41, 127
1, 156632, Note_off_c, 5, 65, 127
1, 156632, Note_off_c, 5, 77, 127
1, 156632, Note_off_c, 0, 72, 127
1, 156632, Note_off_c, 10, 69, 127
1, 159724, Note_on_c, 2, 50, 127
1, 159724, Note_on_c, 10, 57, 127
1, 159724, Note_on_c, 5, 53, 127
1, 159724, Note_on_c, 2, 62, 127
1, 159724, Note_on_c, 2, 74, 127
1, 159724, Note_on_c, 10, 69, 127
1, 159724, Note_on_c, 5, 65, 127
1, 160658, Note_off_c, 5, 65, 127
1, 160658, Note_off_c, 10, 69, 127
1, 160658, Note_off_c, 2, 74, 127
1, 160658, Note_off_c, 2, 62, 127
1, 160658, Note_off_c, 5, 53, 127
1, 160658, Note_off_c, 10, 57, 127
1, 160658, Note_off_c, 2, 50, 127
1, 160664, Note_on_c, 2, 50, 127
1, 160664, Note_on_c, 10, 57, 127
1, 160664, Note_on_c, 5, 53, 127
1, 160664, Note_on_c, 2, 62, 127
1, 160664, Note_on_c, 5, 65, 127
1, 160664, Note_on_c, 2, 74, 127
1, 160664, Note_on_c, 10, 69, 127
1, 161598, Note_off_c, 10, 69, 127
1, 161598, Note_off_c, 2, 74, 127
1, 161598, Note_off_c, 5, 65, 127
1, 161598, Note_off_c, 2, 62, 127
1, 161598, Note_off_c, 5, 53, 127
1, 161598, Note_off_c, 10, 57, 127
1, 161598, Note_off_c, 2, 50, 127
1, 161604, Note_on_c, 2, 50, 127
1, 161604, Note_on_c, 2, 62, 127
1, 161604, Note_on_c, 10, 57, 127
1, 161604, Note_on_c, 5, 53, 127
1, 161604, Note_on_c, 5, 65, 127
1, 161604, Note_on_c, 10, 69, 127
1, 161604, Note_on_c, 2, 74, 127
1, 162538, Note_off_c, 2, 74, 127
1, 162538, Note_off_c, 10, 69, 127
1, 162538, Note_off_c, 5, 65, 127
1, 162538, Note_off_c, 5, 53, 127
1, 162538, Note_off_c, 10, 57, 127
1, 162538, Note_off_c, 2, 62, 127
1, 162538, Note_off_c, 2, 50, 127
1, 162544, Note_on_c, 2, 50, 127
1, 162544, Note_on_c, 10, 57, 127
1, 162544, Note_on_c, 5, 53, 127
1, 162544, Note_on_c, 2, 62, 127
1, 162544, Note_on_c, 2, 74, 127
1, 162544, Note_on_c, 5, 65, 127
1, 162777, Note_off_c, 5, 65, 127
1, 162777, Note_off_c, 2, 74, 127
1, 162811, Note_on_c, 10, 69, 127
1, 163044, Note_off_c, 10, 69, 127
1, 163046, Note_on_c, 7, 67, 127
1, 163279, Note_off_c, 7, 67, 127
1, 163281, Note_on_c, 10, 69, 127
1, 163514, Note_off_c, 10, 69, 127
1, 163516, Note_on_c, 5, 77, 127
1, 163749, Note_off_c, 5, 77, 127
1, 163751, Note_on_c, 2, 74, 127
1, 163984, Note_off_c, 2, 74, 127
1, 163986, Note_on_c, 1, 73, 127
1, 164219, Note_off_c, 1, 73, 127
1, 164221, Note_on_c, 2, 74, 127
1, 164454, Note_off_c, 2, 74, 127
1, 164456, Note_on_c, 10, 81, 127
1, 164699, Note_on_c, 5, 77, 127
1, 164705, Note_off_c, 10, 81, 127
1, 164932, Note_off_c, 5, 77, 127
1, 164934, Note_on_c, 4, 76, 127
1, 164990, Note_off_c, 2, 62, 127
1, 164990, Note_off_c, 5, 53, 127
1, 164990, Note_off_c, 10, 57, 127
1, 164990, Note_off_c, 2, 50, 127
1, 165167, Note_off_c, 4, 76, 127
1, 165169, Note_on_c, 2, 74, 127
1, 165402, Note_off_c, 2, 74, 127
1, 165404, Note_on_c, 10, 45, 127
1, 165404, Note_on_c, 4, 52, 127
1, 165404, Note_on_c, 7, 55, 127
1, 165404, Note_on_c, 10, 57, 127
1, 165404, Note_on_c, 10, 69, 127
1, 165404, Note_on_c, 7, 67, 127
1, 165404, Note_on_c, 4, 64, 127
1, 165404, Note_on_c, 1, 73, 127
1, 166338, Note_off_c, 1, 73, 127
1, 166338, Note_off_c, 4, 64, 127
1, 166338, Note_off_c, 7, 67, 127
1, 166338, Note_off_c, 10, 69, 127
1, 166338, Note_off_c, 10, 57, 127
1, 166338, Note_off_c, 7, 55, 127
1, 166338, Note_off_c, 4, 52, 127
1, 166338, Note_off_c, 10, 45, 127
1, 166344, Note_on_c, 10, 45, 127
1, 166344, Note_on_c, 4, 52, 127
1, 166344, Note_on_c, 7, 55, 127
1, 166344, Note_on_c, 10, 57, 127
1, 166344, Note_on_c, 4, 64, 127
1, 166344, Note_on_c, 1, 73, 127
1, 166344, Note_on_c, 10, 69, 127
1, 166344, Note_on_c, 7, 67, 127
1, 167278, Note_off_c, 7, 67, 127
1, 167278, Note_off_c, 10, 69, 127
1, 167278, Note_off_c, 1, 73, 127
1, 167278, Note_off_c, 4, 64, 127
1, 167278, Note_off_c, 10, 57, 127
1, 167278, Note_off_c, 7, 55, 127
1, 167278, Note_off_c, 4, 52, 127
1, 167278, Note_off_c, 10, 45, 127
1, 167284, Note_on_c, 10, 45, 127
1, 167284, Note_on_c, 7, 55, 127
1, 167284, Note_on_c, 4, 52, 127
1, 167284, Note_on_c, 10, 57, 127
1, 167284, Note_on_c, 1, 73, 127
1, 167284, Note_on_c, 10, 69, 127
1, 167284, Note_on_c, 7, 67, 127
1, 167284, Note_on_c, 4, 64, 127
1, 168218, Note_off_c, 4, 64, 127
1, 168218, Note_off_c, 7, 67, 127
1, 168218, Note_off_c, 10, 69, 127
1, 168218, Note_off_c, 1, 73, 127
1, 168218, Note_off_c, 10, 57, 127
1, 168218, Note_off_c, 4, 52, 127
1, 168218, Note_off_c, 7, 55, 127
1, 168218, Note_off_c, 10, 45, 127
1, 168224, Note_on_c, 7, 55, 127
1, 168224, Note_on_c, 4, 52, 127
1, 168224, Note_on_c, 10, 45, 127
1, 168224, Note_on_c, 10, 57, 127
1, 168224, Note_on_c, 1, 73, 127
1, 168224, Note_on_c, 4, 64, 127
1, 168457, Note_off_c, 1, 73, 127
1, 168491, Note_on_c, 10, 69, 127
1, 168504, Note_off_c, 4, 64, 127
1, 168724, Note_off_c, 10, 69, 127
1, 168726, Note_on_c, 7, 67, 127
1, 168959, Note_off_c, 7, 67, 127
1, 168961, Note_on_c, 10, 69, 127
1, 169194, Note_off_c, 10, 69, 127
1, 169196, Note_on_c, 4, 76, 127
1, 169429, Note_off_c, 4, 76, 127
1, 169431, Note_on_c, 10, 69, 127
1, 169664, Note_off_c, 10, 69, 127
1, 169666, Note_on_c, 7, 67, 127
1, 169899, Note_off_c, 7, 67, 127
1, 169901, Note_on_c, 10, 69, 127
1, 170134, Note_off_c, 10, 69, 127
1, 170136, Note_on_c, 7, 79, 127
1, 170379, Note_on_c, 10, 69, 127
1, 170388, Note_off_c, 7, 79, 127
1, 170612, Note_off_c, 10, 69, 127
1, 170614, Note_on_c, 7, 67, 127
1, 170670, Note_off_c, 10, 57, 127
1, 170670, Note_off_c, 10, 45, 127
1, 170670, Note_off_c, 4, 52, 127
1, 170670, Note_off_c, 7, 55, 127
1, 170847, Note_off_c, 7, 67, 127
1, 170849, Note_on_c, 10, 69, 127
1, 171082, Note_off_c, 10, 69, 127
1, 171084, Note_on_c, 2, 50, 127
1, 171084, Note_on_c, 10, 57, 127
1, 171084, Note_on_c, 5, 53, 127
1, 171084, Note_on_c, 2, 62, 127
1, 171084, Note_on_c, 2, 74, 127
1, 171084, Note_on_c, 10, 69, 127
1, 171084, Note_on_c, 5, 65, 127
1, 172018, Note_off_c, 5, 65, 127
1, 172018, Note_off_c, 10, 69, 127
1, 172018, Note_off_c, 2, 74, 127
1, 172018, Note_off_c, 2, 62, 127
1, 172018, Note_off_c, 5, 53, 127
1, 172018, Note_off_c, 10, 57, 127
1, 172018, Note_off_c, 2, 50, 127
1, 172024, Note_on_c, 2, 50, 127
1, 172024, Note_on_c, 10, 57, 127
1, 172024, Note_on_c, 5, 53, 127
1, 172024, Note_on_c, 2, 62, 127
1, 172024, Note_on_c, 5, 65, 127
1, 172024, Note_on_c, 2, 74, 127
1, 172024, Note_on_c, 10, 69, 127
1, 172958, Note_off_c, 10, 69, 127
1, 172958, Note_off_c, 2, 74, 127
1, 172958, Note_off_c, 5, 65, 127
1, 172958, Note_off_c, 2, 62, 127
1, 172958, Note_off_c, 5, 53, 127
1, 172958, Note_off_c, 10, 57, 127
1, 172958, Note_off_c, 2, 50, 127
1, 172964, Note_on_c, 10, 57, 127
1, 172964, Note_on_c, 5, 53, 127
1, 172964, Note_on_c, 2, 50, 127
1, 172964, Note_on_c, 2, 62, 127
1, 172964, Note_on_c, 2, 74, 127
1, 172964, Note_on_c, 10, 69, 127
1, 172964, Note_on_c, 5, 65, 127
1, 173898, Note_off_c, 5, 65, 127
1, 173898, Note_off_c, 10, 69, 127
1, 173898, Note_off_c, 2, 74, 127
1, 173898, Note_off_c, 2, 62, 127
1, 173898, Note_off_c, 2, 50, 127
1, 173898, Note_off_c, 5, 53, 127
1, 173898, Note_off_c, 10, 57, 127
1, 173904, Note_on_c, 10, 57, 127
1, 173904, Note_on_c, 5, 53, 127
1, 173904, Note_on_c, 2, 50, 127
1, 173904, Note_on_c, 2, 62, 127
1, 173904, Note_on_c, 5, 65, 127
1, 173904, Note_on_c, 2, 74, 127
1, 173904, Note_on_c, 10, 69, 127
1, 174137, Note_off_c, 2, 74, 127
1, 174164, Note_off_c, 10, 69, 127
1, 174164, Note_off_c, 5, 65, 127
1, 174171, Note_on_c, 5, 77, 127
1, 174404, Note_off_c, 5, 77, 127
1, 174406, Note_on_c, 4, 76, 127
1, 174639, Note_off_c, 4, 76, 127
1, 174641, Note_on_c, 2, 74, 127
1, 174874, Note_off_c, 2, 74, 127
1, 174876, Note_on_c, 10, 81, 127
1, 175109, Note_off_c, 10, 81, 127
1, 175111, Note_on_c, 5, 77, 127
1, 175344, Note_off_c, 5, 77, 127
1, 175346, Note_on_c, 4, 76, 127
1, 175579, Note_off_c, 4, 76, 127
1, 175581, Note_on_c, 2, 74, 127
1, 175782, Note_off_c, 2, 62, 127
1, 175782, Note_off_c, 2, 50, 127
1, 175782, Note_off_c, 5, 53, 127
1, 175782, Note_off_c, 10, 57, 127
1, 175814, Note_off_c, 2, 74, 127
1, 175816, Note_on_c, 10, 81, 127
1, 176059, Note_on_c, 6, 78, 127
1, 176068, Note_off_c, 10, 81, 127
1, 176292, Note_off_c, 6, 78, 127
1, 176294, Note_on_c, 4, 76, 127
1, 176527, Note_off_c, 4, 76, 127
1, 176529, Note_on_c, 2, 74, 127
1, 176762, Note_off_c, 2, 74, 127
1, 176764, Note_on_c, 10, 57, 127
1, 176764, Note_on_c, 6, 54, 127
1, 176764, Note_on_c, 10, 69, 127
1, 176764, Note_on_c, 6, 66, 127
1, 176764, Note_on_c, 2, 62, 127
1, 176764, Note_on_c, 0, 72, 127
1, 177698, Note_off_c, 0, 72, 127
1, 177698, Note_off_c, 2, 62, 127
1, 177698, Note_off_c, 6, 66, 127
1, 177698, Note_off_c, 10, 69, 127
1, 177698, Note_off_c, 6, 54, 127
1, 177698, Note_off_c, 10, 57, 127
1, 177704, Note_on_c, 6, 54, 127
1, 177704, Note_on_c, 10, 57, 127
1, 177704, Note_on_c, 10, 69, 127
1, 177704, Note_on_c, 6, 66, 127
1, 177704, Note_on_c, 2, 62, 127
1, 177704, Note_on_c, 0, 72, 127
1, 178638, Note_off_c, 0, 72, 127
1, 178638, Note_off_c, 2, 62, 127
1, 178638, Note_off_c, 6, 66, 127
1, 178638, Note_off_c, 10, 69, 127
1, 178638, Note_off_c, 10, 57, 127
1, 178638, Note_off_c, 6, 54, 127
1, 178644, Note_on_c, 6, 54, 127
1, 178644, Note_on_c, 10, 57, 127
1, 178644, Note_on_c, 10, 69, 127
1, 178644, Note_on_c, 6, 66, 127
1, 178644, Note_on_c, 2, 62, 127
1, 178644, Note_on_c, 0, 72, 127
1, 179578, Note_off_c, 0, 72, 127
1, 179578, Note_off_c, 2, 62, 127
1, 179578, Note_off_c, 6, 66, 127
1, 179578, Note_off_c, 10, 69, 127
1, 179578, Note_off_c, 10, 57, 127
1, 179578, Note_off_c, 6, 54, 127
1, 179584, Note_on_c, 6, 54, 127
1, 179584, Note_on_c, 10, 57, 127
1, 179584, Note_on_c, 10, 69, 127
1, 179584, Note_on_c, 6, 66, 127
1, 179584, Note_on_c, 0, 72, 127
1, 179584, Note_on_c, 2, 62, 127
1, 179817, Note_off_c, 0, 72, 127
1, 179854, Note_off_c, 6, 66, 127
1, 179854, Note_off_c, 10, 69, 127
1, 179859, Note_on_c, 12, 71, 127
1, 180092, Note_off_c, 12, 71, 127
1, 180094, Note_on_c, 0, 72, 127
1, 180327, Note_off_c, 0, 72, 127
1, 180329, Note_on_c, 10, 81, 127
1, 180562, Note_off_c, 10, 81, 127
1, 180564, Note_on_c, 6, 78, 127
1, 180797, Note_off_c, 6, 78, 127
1, 180799, Note_on_c, 0, 72, 127
1, 181032, Note_off_c, 0, 72, 127
1, 181034, Note_on_c, 12, 71, 127
1, 181267, Note_off_c, 12, 71, 127
1, 181269, Note_on_c, 0, 72, 127
1, 181502, Note_off_c, 0, 72, 127
1, 181504, Note_on_c, 10, 81, 127
1, 181747, Note_on_c, 0, 72, 127
1, 181754, Note_off_c, 10, 81, 127
1, 181980, Note_off_c, 0, 72, 127
1, 181982, Note_on_c, 11, 70, 127
1, 182030, Note_off_c, 2, 62, 127
1, 182030, Note_off_c, 10, 57, 127
1, 182030, Note_off_c, 6, 54, 127
1, 182215, Note_off_c, 11, 70, 127
1, 182217, Note_on_c, 10, 69, 127
1, 182450, Note_off_c, 10, 69, 127
1, 182452, Note_on_c, 7, 55, 127
1, 182452, Note_on_c, 11, 58, 127
1, 182452, Note_on_c, 11, 70, 127
1, 182452, Note_on_c, 7, 67, 127
1, 182452, Note_on_c, 2, 62, 127
1, 183386, Note_off_c, 2, 62, 127
1, 183386, Note_off_c, 7, 67, 127
1, 183386, Note_off_c, 11, 70, 127
1, 183386, Note_off_c, 11, 58, 127
1, 183386, Note_off_c, 7, 55, 127
1, 183392, Note_on_c, 11, 58, 127
1, 183392, Note_on_c, 7, 55, 127
1, 183392, Note_on_c, 11, 70, 127
1, 183392, Note_on_c, 7, 67, 127
1, 183392, Note_on_c, 2, 62, 127
1, 184326, Note_off_c, 2, 62, 127
1, 184326, Note_off_c, 7, 67, 127
1, 184326, Note_off_c, 11, 70, 127
1, 184326, Note_off_c, 7, 55, 127
1, 184326, Note_off_c, 11, 58, 127
1, 184332, Note_on_c, 11, 58, 127
1, 184332, Note_on_c, 7, 55, 127
1, 184332, Note_on_c, 2, 62, 127
1, 184332, Note_on_c, 11, 70, 127
1, 184332, Note_on_c, 7, 67, 127
1, 185266, Note_off_c, 7, 67, 127
1, 185266, Note_off_c, 11, 70, 127
1, 185266, Note_off_c, 2, 62, 127
1, 185266, Note_off_c, 7, 55, 127
1, 185266, Note_off_c, 11, 58, 127
1, 185272, Note_on_c, 11, 58, 127
1, 185272, Note_on_c, 7, 55, 127
1, 185272, Note_on_c, 11, 70, 127
1, 185272, Note_on_c, 7, 67, 127
1, 185272, Note_on_c, 2, 62, 127
1, 185522, Note_off_c, 7, 67, 127
1, 185522, Note_off_c, 11, 70, 127
1, 185539, Note_on_c, 2, 74, 127
1, 185552, Note_off_c, 2, 62, 127
1, 185772, Note_off_c, 2, 74, 127
1, 185774, Note_on_c, 11, 70, 127
1, 186007, Note_off_c, 11, 70, 127
1, 186009, Note_on_c, 10, 69, 127
1, 186242, Note_off_c, 10, 69, 127
1, 186244, Note_on_c, 7, 67, 127
1, 186477, Note_off_c, 7, 67, 127
1, 186479, Note_on_c, 2, 62, 127
1, 186712, Note_off_c, 2, 62, 127
1, 186714, Note_on_c, 7, 67, 127
1, 186947, Note_off_c, 7, 67, 127
1, 186949, Note_on_c, 11, 70, 127
1, 187182, Note_off_c, 11, 70, 127
1, 187184, Note_on_c, 2, 74, 127
1, 187427, Note_on_c, 7, 67, 127
1, 187434, Note_off_c, 2, 74, 127
1, 187660, Note_off_c, 7, 67, 127
1, 187662, Note_on_c, 11, 70, 127
1, 187718, Note_off_c, 7, 55, 127
1, 187718, Note_off_c, 11, 58, 127
1, 187895, Note_off_c, 11, 70, 127
1, 187897, Note_on_c, 2, 74, 127
1, 188130, Note_off_c, 2, 74, 127
1, 188132, Note_on_c, 12, 59, 127
1, 188132, Note_on_c, 8, 56, 127
1, 188132, Note_on_c, 4, 52, 127
1, 188132, Note_on_c, 4, 64, 127
1, 188132, Note_on_c, 12, 71, 127
1, 188132, Note_on_c, 2, 74, 127
1, 188132, Note_on_c, 4, 76, 127
1, 188132, Note_on_c, 8, 80, 127
1, 189066, Note_off_c, 8, 80, 127
1, 189066, Note_off_c, 4, 76, 127
1, 189066, Note_off_c, 2, 74, 127
1, 189066, Note_off_c, 12, 71, 127
1, 189066, Note_off_c, 4, 64, 127
1, 189066, Note_off_c, 4, 52, 127
1, 189066, Note_off_c, 8, 56, 127
1, 189066, Note_off_c, 12, 59, 127
1, 189072, Note_on_c, 4, 52, 127
1, 189072, Note_on_c, 12, 59, 127
1, 189072, Note_on_c, 8, 56, 127
1, 189072, Note_on_c, 4, 64, 127
1, 189072, Note_on_c, 8, 80, 127
1, 189072, Note_on_c, 4, 76, 127
1, 189072, Note_on_c, 2, 74, 127
1, 189072, Note_on_c, 12, 71, 127
1, 190006, Note_off_c, 12, 71, 127
1, 190006, Note_off_c, 2, 74, 127
1, 190006, Note_off_c, 4, 76, 127
1, 190006, Note_off_c, 8, 80, 127
1, 190006, Note_off_c, 4, 64, 127
1, 190006, Note_off_c, 8, 56, 127
1, 190006, Note_off_c, 12, 59, 127
1, 190006, Note_off_c, 4, 52, 127
1, 190012, Note_on_c, 8, 56, 127
1, 190012, Note_on_c, 4, 52, 127
1, 190012, Note_on_c, 4, 64, 127
1, 190012, Note_on_c, 12, 59, 127
1, 190012, Note_on_c, 2, 74, 127
1, 190012, Note_on_c, 12, 71, 127
1, 190012, Note_on_c, 8, 80, 127
1, 190012, Note_on_c, 4, 76, 127
1, 190946, Note_off_c, 4, 76, 127
1, 190946, Note_off_c, 8, 80, 127
1, 190946, Note_off_c, 12, 71, 127
1, 190946, Note_off_c, 2, 74, 127
1, 190946, Note_off_c, 12, 59, 127
1, 190946, Note_off_c, 4, 64, 127
1, 190946, Note_off_c, 4, 52, 127
1, 190946, Note_off_c, 8, 56, 127
1, 190952, Note_on_c, 10, 45, 127
1, 190952, Note_on_c, 0, 48, 127
1, 190952, Note_on_c, 10, 57, 127
1, 190952, Note_on_c, 4, 52, 127
1, 190952, Note_on_c, 10, 81, 127
1, 191200, Note_off_c, 10, 81, 127
1, 191211, Note_on_c, 4, 76, 127
1, 191444, Note_off_c, 4, 76, 127
1, 191446, Note_on_c, 0, 72, 127
1, 191679, Note_off_c, 0, 72, 127
1, 191681, Note_on_c, 12, 71, 127
1, 191914, Note_off_c, 12, 71, 127
1, 191916, Note_on_c, 10, 69, 127
1, 192149, Note_off_c, 10, 69, 127
1, 192151, Note_on_c, 0, 72, 127
1, 192384, Note_off_c, 0, 72, 127
1, 192386, Note_on_c, 12, 71, 127
1, 192619, Note_off_c, 12, 71, 127
1, 192621, Note_on_c, 10, 69, 127
1, 192830, Note_off_c, 4, 52, 127
1, 192830, Note_off_c, 10, 57, 127
1, 192830, Note_off_c, 0, 48, 127
1, 192830, Note_off_c, 10, 45, 127
1, 192854, Note_off_c, 10, 69, 127
1, 192856, Note_on_c, 4, 76, 127
1, 193089, Note_off_c, 4, 76, 127
1, 193091, Note_on_c, 0, 72, 127
1, 193324, Note_off_c, 0, 72, 127
1, 193326, Note_on_c, 12, 71, 127
1, 193559, Note_off_c, 12, 71, 127
1, 193561, Note_on_c, 10, 69, 127
1, 193794, Note_off_c, 10, 69, 127
1, 193796, Note_on_c, 10, 81, 127
1, 193796, Note_on_c, 2, 62, 127
1, 193796, Note_on_c, 10, 57, 127
1, 193796, Note_on_c, 12, 59, 127
1, 193796, Note_on_c, 5, 53, 127
1, 193796, Note_on_c, 2, 50, 127
1, 194046, Note_off_c, 10, 81, 127
1, 194055, Note_on_c, 5, 77, 127
1, 194288, Note_off_c, 5, 77, 127
1, 194290, Note_on_c, 4, 76, 127
1, 194523, Note_off_c, 4, 76, 127
1, 194525, Note_on_c, 2, 74, 127
1, 194758, Note_off_c, 2, 74, 127
1, 194760, Note_on_c, 10, 81, 127
1, 194993, Note_off_c, 10, 81, 127
1, 194995, Note_on_c, 5, 77, 127
1, 195228, Note_off_c, 5, 77, 127
1, 195230, Note_on_c, 4, 76, 127
1, 195463, Note_off_c, 4, 76, 127
1, 195465, Note_on_c, 2, 74, 127
1, 195674, Note_off_c, 2, 50, 127
1, 195674, Note_off_c, 5, 53, 127
1, 195674, Note_off_c, 12, 59, 127
1, 195674, Note_off_c, 10, 57, 127
1, 195674, Note_off_c, 2, 62, 127
1, 195698, Note_off_c, 2, 74, 127
1, 195700, Note_on_c, 10, 81, 127
1, 195933, Note_off_c, 10, 81, 127
1, 195935, Note_on_c, 5, 77, 127
1, 196168, Note_off_c, 5, 77, 127
1, 196170, Note_on_c, 4, 76, 127
1, 196403, Note_off_c, 4, 76, 127
1, 196405, Note_on_c, 2, 74, 127
1, 196638, Note_off_c, 2, 74, 127
1, 196640, Note_on_c, 12, 59, 127
1, 196640, Note_on_c, 8, 56, 127
1, 196640, Note_on_c, 2, 62, 127
1, 196640, Note_on_c, 4, 52, 127
1, 196640, Note_on_c, 8, 80, 127
1, 196891, Note_off_c, 8, 80, 127
1, 196899, Note_on_c, 4, 76, 127
1, 197132, Note_off_c, 4, 76, 127
1, 197134, Note_on_c, 2, 74, 127
1, 197367, Note_off_c, 2, 74, 127
1, 197369, Note_on_c, 12, 71, 127
1, 197602, Note_off_c, 12, 71, 127
1, 197604, Note_on_c, 8, 68, 127
1, 197837, Note_off_c, 8, 68, 127
1, 197839, Note_on_c, 4, 64, 127
1, 198040, Note_off_c, 2, 62, 127
1, 198072, Note_off_c, 4, 64, 127
1, 198074, Note_on_c, 2, 62, 127
1, 198309, Note_on_c, 4, 64, 127
1, 198518, Note_off_c, 4, 52, 127
1, 198518, Note_off_c, 8, 56, 127
1, 198518, Note_off_c, 12, 59, 127
1, 198542, Note_off_c, 4, 64, 127
1, 198542, Note_off_c, 2, 62, 127
1, 198544, Note_on_c, 8, 68, 127
1, 198777, Note_off_c, 8, 68, 127
1, 198779, Note_on_c, 12, 71, 127
1, 199012, Note_off_c, 12, 71, 127
1, 199014, Note_on_c, 2, 74, 127
1, 199247, Note_off_c, 2, 74, 127
1, 199249, Note_on_c, 8, 80, 127
1, 199492, Note_on_c, 10, 69, 127
1, 199492, Note_on_c, 10, 81, 127
1, 199492, Note_on_c, 0, 72, 127
1, 199492, Note_on_c, 4, 76, 127
1, 199492, Note_on_c, 10, 57, 127
1, 199492, Note_on_c, 10, 45, 127
1, 199492, Note_on_c, 0, 48, 127
1, 199492, Note_on_c, 4, 52, 127
1, 199497, Note_off_c, 8, 80, 127
1, 200426, Note_off_c, 4, 52, 127
1, 200426, Note_off_c, 0, 48, 127
1, 200426, Note_off_c, 10, 45, 127
1, 200426, Note_off_c, 10, 57, 127
1, 200426, Note_off_c, 4, 76, 127
1, 200426, Note_off_c, 0, 72, 127
1, 200426, Note_off_c, 10, 81, 127
1, 200426, Note_off_c, 10, 69, 127
1, 200432, Note_on_c, 10, 69, 127
1, 200432, Note_on_c, 10, 81, 127
1, 200432, Note_on_c, 0, 72, 127
1, 200432, Note_on_c, 4, 76, 127
1, 200432, Note_on_c, 10, 57, 127
1, 200432, Note_on_c, 4, 52, 127
1, 200432, Note_on_c, 10, 45, 127
1, 200432, Note_on_c, 0, 48, 127
1, 201366, Note_off_c, 0, 48, 127
1, 201366, Note_off_c, 10, 45, 127
1, 201366, Note_off_c, 4, 52, 127
1, 201366, Note_off_c, 10, 57, 127
1, 201366, Note_off_c, 4, 76, 127
1, 201366, Note_off_c, 0, 72, 127
1, 201366, Note_off_c, 10, 81, 127
1, 201366, Note_off_c, 10, 69, 127
1, 201372, Note_on_c, 4, 76, 127
1, 201372, Note_on_c, 10, 81, 127
1, 201372, Note_on_c, 10, 69, 127
1, 201372, Note_on_c, 0, 72, 127
1, 201372, Note_on_c, 10, 57, 127
1, 201372, Note_on_c, 4, 52, 127
1, 201372, Note_on_c, 10, 45, 127
1, 201372, Note_on_c, 0, 48, 127
1, 202306, Note_off_c, 0, 48, 127
1, 202306, Note_off_c, 10, 45, 127
1, 202306, Note_off_c, 4, 52, 127
1, 202306, Note_off_c, 10, 57, 127
1, 202306, Note_off_c, 0, 72, 127
1, 202306, Note_off_c, 10, 69, 127
1, 202306, Note_off_c, 10, 81, 127
1, 202306, Note_off_c, 4, 76, 127
1, 202312, Note_on_c, 4, 76, 127
1, 202312, Note_on_c, 7, 79, 127
1, 202312, Note_on_c, 1, 73, 127
1, 202312, Note_on_c, 10, 69, 127
1, 202312, Note_on_c, 10, 57, 127
1, 202312, Note_on_c, 10, 45, 127
1, 202312, Note_on_c, 4, 52, 127
1, 202312, Note_on_c, 1, 49, 127
1, 203246, Note_off_c, 1, 49, 127
1, 203246, Note_off_c, 4, 52, 127
1, 203246, Note_off_c, 10, 45, 127
1, 203246, Note_off_c, 10, 57, 127
1, 203246, Note_off_c, 10, 69, 127
1, 203246, Note_off_c, 1, 73, 127
1, 203246, Note_off_c, 7, 79, 127
1, 203246, Note_off_c, 4, 76, 127
1, 203252, Note_on_c, 10, 69, 127
1, 203252, Note_on_c, 4, 76, 127
1, 203252, Note_on_c, 1, 73, 127
1, 203252, Note_on_c, 7, 79, 127
1, 203252, Note_on_c, 1, 49, 127
1, 203252, Note_on_c, 4, 52, 127
1, 203252, Note_on_c, 10, 57, 127
1, 203252, Note_on_c, 10, 45, 127
1, 204186, Note_off_c, 10, 45, 127
1, 204186, Note_off_c, 10, 57, 127
1, 204186, Note_off_c, 4, 52, 127
1, 204186, Note_off_c, 1, 49, 127
1, 204186, Note_off_c, 7, 79, 127
1, 204186, Note_off_c, 1, 73, 127
1, 204186, Note_off_c, 4, 76, 127
1, 204186, Note_off_c, 10, 69, 127
1, 204192, Note_on_c, 4, 76, 127
1, 204192, Note_on_c, 7, 79, 127
1, 204192, Note_on_c, 10, 69, 127
1, 204192, Note_on_c, 1, 73, 127
1, 204192, Note_on_c, 10, 57, 127
1, 204192, Note_on_c, 1, 49, 127
1, 204192, Note_on_c, 4, 52, 127
1, 204192, Note_on_c, 10, 45, 127
1, 205126, Note_off_c, 10, 45, 127
1, 205126, Note_off_c, 4, 52, 127
1, 205126, Note_off_c, 1, 49, 127
1, 205126, Note_off_c, 10, 57, 127
1, 205126, Note_off_c, 1, 73, 127
1, 205126, Note_off_c, 10, 69, 127
1, 205126, Note_off_c, 7, 79, 127
1, 205126, Note_off_c, 4, 76, 127
1, 205132, Note_on_c, 6, 78, 127
1, 205132, Note_on_c, 10, 69, 127
1, 205132, Note_on_c, 2, 50, 127
1, 205132, Note_on_c, 10, 57, 127
1, 205132, Note_on_c, 6, 54, 127
1, 205382, Note_off_c, 10, 69, 127
1, 205382, Note_off_c, 6, 78, 127
1, 205399, Note_on_c, 0, 72, 127
1, 205632, Note_off_c, 0, 72, 127
1, 205634, Note_on_c, 0, 72, 127
1, 205867, Note_off_c, 0, 72, 127
1, 205869, Note_on_c, 10, 81, 127
1, 206102, Note_off_c, 10, 81, 127
1, 206104, Note_on_c, 10, 81, 127
1, 206337, Note_off_c, 10, 81, 127
1, 206339, Note_on_c, 0, 72, 127
1, 206572, Note_off_c, 0, 72, 127
1, 206574, Note_on_c, 0, 72, 127
1, 206807, Note_off_c, 0, 72, 127
1, 206809, Note_on_c, 6, 78, 127
1, 207010, Note_off_c, 6, 54, 127
1, 207010, Note_off_c, 10, 57, 127
1, 207010, Note_off_c, 2, 50, 127
1, 207042, Note_off_c, 6, 78, 127
1, 207044, Note_on_c, 6, 78, 127
1, 207277, Note_off_c, 6, 78, 127
1, 207279, Note_on_c, 10, 81, 127
1, 207512, Note_off_c, 10, 81, 127
1, 207514, Note_on_c, 7, 79, 127
1, 207747, Note_off_c, 7, 79, 127
1, 207749, Note_on_c, 6, 78, 127
1, 207982, Note_off_c, 6, 78, 127
1, 207984, Note_on_c, 7, 67, 127
1, 207984, Note_on_c, 2, 74, 127
1, 207984, Note_on_c, 7, 79, 127
1, 207984, Note_on_c, 11, 70, 127
1, 207984, Note_on_c, 7, 55, 127
1, 207984, Note_on_c, 7, 43, 127
1, 207984, Note_on_c, 2, 50, 127
1, 207984, Note_on_c, 11, 46, 127
1, 208918, Note_off_c, 11, 46, 127
1, 208918, Note_off_c, 2, 50, 127
1, 208918, Note_off_c, 7, 43, 127
1, 208918, Note_off_c, 7, 55, 127
1, 208918, Note_off_c, 11, 70, 127
1, 208918, Note_off_c, 7, 79, 127
1, 208918, Note_off_c, 2, 74, 127
1, 208918, Note_off_c, 7, 67, 127
1, 208924, Note_on_c, 7, 79, 127
1, 208924, Note_on_c, 7, 67, 127
1, 208924, Note_on_c, 11, 70, 127
1, 208924, Note_on_c, 2, 74, 127
1, 208924, Note_on_c, 7, 55, 127
1, 208924, Note_on_c, 2, 50, 127
1, 208924, Note_on_c, 7, 43, 127
1, 208924, Note_on_c, 11, 46, 127
1, 209858, Note_off_c, 11, 46, 127
1, 209858, Note_off_c, 7, 43, 127
1, 209858, Note_off_c, 2, 50, 127
1, 209858, Note_off_c, 7, 55, 127
1, 209858, Note_off_c, 2, 74, 127
1, 209858, Note_off_c, 11, 70, 127
1, 209858, Note_off_c, 7, 67, 127
1, 209858, Note_off_c, 7, 79, 127
1, 209864, Note_on_c, 7, 67, 127
1, 209864, Note_on_c, 2, 74, 127
1, 209864, Note_on_c, 7, 79, 127
1, 209864, Note_on_c, 11, 70, 127
1, 209864, Note_on_c, 7, 43, 127
1, 209864, Note_on_c, 2, 50, 127
1, 209864, Note_on_c, 7, 55, 127
1, 209864, Note_on_c, 11, 46, 127
1, 210798, Note_off_c, 11, 46, 127
1, 210798, Note_off_c, 7, 55, 127
1, 210798, Note_off_c, 2, 50, 127
1, 210798, Note_off_c, 7, 43, 127
1, 210798, Note_off_c, 11, 70, 127
1, 210798, Note_off_c, 7, 79, 127
1, 210798, Note_off_c, 2, 74, 127
1, 210798, Note_off_c, 7, 67, 127
1, 210804, Note_on_c, 12, 71, 127
1, 210804, Note_on_c, 2, 74, 127
1, 210804, Note_on_c, 5, 77, 127
1, 210804, Note_on_c, 7, 67, 127
1, 210804, Note_on_c, 7, 55, 127
1, 210804, Note_on_c, 7, 43, 127
1, 210804, Note_on_c, 12, 47, 127
1, 210804, Note_on_c, 2, 50, 127
1, 211738, Note_off_c, 2, 50, 127
1, 211738, Note_off_c, 12, 47, 127
1, 211738, Note_off_c, 7, 43, 127
1, 211738, Note_off_c, 7, 55, 127
1, 211738, Note_off_c, 7, 67, 127
1, 211738, Note_off_c, 5, 77, 127
1, 211738, Note_off_c, 2, 74, 127
1, 211738, Note_off_c, 12, 71, 127
1, 211744, Note_on_c, 2, 74, 127
1, 211744, Note_on_c, 5, 77, 127
1, 211744, Note_on_c, 7, 67, 127
1, 211744, Note_on_c, 12, 71, 127
1, 211744, Note_on_c, 7, 55, 127
1, 211744, Note_on_c, 12, 47, 127
1, 211744, Note_on_c, 2, 50, 127
1, 211744, Note_on_c, 7, 43, 127
1, 212678, Note_off_c, 7, 43, 127
1, 212678, Note_off_c, 2, 50, 127
1, 212678, Note_off_c, 12, 47, 127
1, 212678, Note_off_c, 7, 55, 127
1, 212678, Note_off_c, 12, 71, 127
1, 212678, Note_off_c, 7, 67, 127
1, 212678, Note_off_c, 5, 77, 127
1, 212678, Note_off_c, 2, 74, 127
1, 212684, Note_on_c, 2, 74, 127
1, 212684, Note_on_c, 5, 77, 127
1, 212684, Note_on_c, 7, 67, 127
1, 212684, Note_on_c, 12, 71, 127
1, 212684, Note_on_c, 2, 50, 127
1, 212684, Note_on_c, 7, 55, 127
1, 212684, Note_on_c, 7, 43, 127
1, 212684, Note_on_c, 12, 47, 127
1, 213618, Note_off_c, 12, 47, 127
1, 213618, Note_off_c, 7, 43, 127
1, 213618, Note_off_c, 7, 55, 127
1, 213618, Note_off_c, 2, 50, 127
1, 213618, Note_off_c, 12, 71, 127
1, 213618, Note_off_c, 7, 67, 127
1, 213618, Note_off_c, 5, 77, 127
1, 213618, Note_off_c, 2, 74, 127
1, 213624, Note_on_c, 4, 76, 127
1, 213624, Note_on_c, 7, 67, 127
1, 213624, Note_on_c, 0, 60, 127
1, 213624, Note_on_c, 4, 52, 127
1, 213624, Note_on_c, 7, 55, 127
1, 213624, Note_on_c, 0, 48, 127
1, 213874, Note_off_c, 7, 67, 127
1, 213874, Note_off_c, 4, 76, 127
1, 213887, Note_on_c, 0, 72, 127
1, 214120, Note_off_c, 0, 72, 127
1, 214126, Note_on_c, 0, 72, 127
1, 214359, Note_off_c, 0, 72, 127
1, 214361, Note_on_c, 7, 79, 127
1, 214558, Note_off_c, 0, 48, 127
1, 214558, Note_off_c, 7, 55, 127
1, 214558, Note_off_c, 4, 52, 127
1, 214558, Note_off_c, 0, 60, 127
1, 214594, Note_off_c, 7, 79, 127
1, 214596, Note_on_c, 7, 79, 127
1, 214596, Note_on_c, 7, 55, 127
1, 214596, Note_on_c, 0, 60, 127
1, 214596, Note_on_c, 0, 48, 127
1, 214596, Note_on_c, 4, 52, 127
1, 214829, Note_off_c, 7, 79, 127
1, 214831, Note_on_c, 0, 72, 127
1, 215064, Note_off_c, 0, 72, 127
1, 215066, Note_on_c, 0, 72, 127
1, 215299, Note_off_c, 0, 72, 127
1, 215301, Note_on_c, 4, 76, 127
1, 215530, Note_off_c, 4, 52, 127
1, 215530, Note_off_c, 0, 48, 127
1, 215530, Note_off_c, 0, 60, 127
1, 215530, Note_off_c, 7, 55, 127
1, 215534, Note_off_c, 4, 76, 127
1, 215536, Note_on_c, 4, 76, 127
1, 215536, Note_on_c, 11, 58, 127
1, 215536, Note_on_c, 0, 48, 127
1, 215536, Note_on_c, 4, 52, 127
1, 215536, Note_on_c, 7, 55, 127
1, 215769, Note_off_c, 4, 76, 127
1, 215771, Note_on_c, 7, 79, 127
1, 216004, Note_off_c, 7, 79, 127
1, 216006, Note_on_c, 5, 77, 127
1, 216239, Note_off_c, 5, 77, 127
1, 216241, Note_on_c, 4, 76, 127
1, 216470, Note_off_c, 7, 55, 127
1, 216470, Note_off_c, 4, 52, 127
1, 216470, Note_off_c, 0, 48, 127
1, 216470, Note_off_c, 11, 58, 127
1, 216474, Note_off_c, 4, 76, 127
1, 216476, Note_on_c, 10, 81, 127
1, 216476, Note_on_c, 10, 57, 127
1, 216476, Note_on_c, 1, 49, 127
1, 216476, Note_on_c, 7, 55, 127
1, 216476, Note_on_c, 4, 52, 127
1, 216709, Note_off_c, 10, 81, 127
1, 216711, Note_on_c, 1, 73, 127
1, 216944, Note_off_c, 1, 73, 127
1, 216946, Note_on_c, 1, 73, 127
1, 217179, Note_off_c, 1, 73, 127
1, 217181, Note_on_c, 4, 76, 127
1, 217410, Note_off_c, 4, 52, 127
1, 217410, Note_off_c, 7, 55, 127
1, 217410, Note_off_c, 1, 49, 127
1, 217410, Note_off_c, 10, 57, 127
1, 217414, Note_off_c, 4, 76, 127
1, 217416, Note_on_c, 4, 76, 127
1, 217416, Note_on_c, 10, 57, 127
1, 217416, Note_on_c, 4, 52, 127
1, 217416, Note_on_c, 7, 55, 127
1, 217416, Note_on_c, 1, 49, 127
1, 217649, Note_off_c, 4, 76, 127
1, 217651, Note_on_c, 10, 69, 127
1, 217884, Note_off_c, 10, 69, 127
1, 217886, Note_on_c, 10, 69, 127
1, 218119, Note_off_c, 10, 69, 127
1, 218121, Note_on_c, 4, 76, 127
1, 218350, Note_off_c, 1, 49, 127
1, 218350, Note_off_c, 7, 55, 127
1, 218350, Note_off_c, 4, 52, 127
1, 218350, Note_off_c, 10, 57, 127
1, 218354, Note_off_c, 4, 76, 127
1, 218356, Note_on_c, 4, 76, 127
1, 218356, Note_on_c, 4, 52, 127
1, 218356, Note_on_c, 7, 55, 127
1, 218356, Note_on_c, 10, 57, 127
1, 218356, Note_on_c, 1, 49, 127
1, 218589, Note_off_c, 4, 76, 127
1, 218591, Note_on_c, 7, 79, 127
1, 218824, Note_off_c, 7, 79, 127
1, 218826, Note_on_c, 5, 77, 127
1, 219059, Note_off_c, 5, 77, 127
1, 219061, Note_on_c, 4, 76, 127
1, 219290, Note_off_c, 1, 49, 127
1, 219290, Note_off_c, 10, 57, 127
1, 219290, Note_off_c, 7, 55, 127
1, 219290, Note_off_c, 4, 52, 127
1, 219294, Note_off_c, 4, 76, 127
1, 219296, Note_on_c, 5, 77, 127
1, 219296, Note_on_c, 2, 62, 127
1, 219296, Note_on_c, 5, 53, 127
1, 219296, Note_on_c, 10, 57, 127
1, 219296, Note_on_c, 2, 50, 127
1, 219561, Note_off_c, 5, 77, 127
1, 219563, Note_on_c, 2, 74, 127
1, 219761, Note_off_c, 2, 50, 127
1, 219761, Note_off_c, 10, 57, 127
1, 219761, Note_off_c, 5, 53, 127
1, 219797, Note_off_c, 2, 74, 127
1, 219807, Note_on_c, 2, 74, 127
1, 219998, Note_off_c, 2, 62, 127
1, 220042, Note_off_c, 2, 74, 127
1, 220051, Note_on_c, 7, 67, 127
1, 220051, Note_on_c, 3, 75, 127
1, 220286, Note_off_c, 3, 75, 127
1, 220286, Note_off_c, 7, 67, 127
1, 220295, Note_on_c, 7, 67, 127
1, 220295, Note_on_c, 3, 75, 127
1, 220530, Note_off_c, 3, 75, 127
1, 220530, Note_off_c, 7, 67, 127
1, 220540, Note_on_c, 10, 69, 127
1, 220540, Note_on_c, 6, 78, 127
1, 220775, Note_off_c, 6, 78, 127
1, 220775, Note_off_c, 10, 69, 127
1, 220784, Note_on_c, 10, 69, 127
1, 220784, Note_on_c, 6, 78, 127
1, 221019, Note_off_c, 6, 78, 127
1, 221019, Note_off_c, 10, 69, 127
1, 221029, Note_on_c, 11, 70, 127
1, 221029, Note_on_c, 7, 79, 127
1, 221264, Note_off_c, 7, 79, 127
1, 221264, Note_off_c, 11, 70, 127
1, 221274, Note_on_c, 11, 70, 127
1, 221274, Note_on_c, 7, 79, 127
1, 221509, Note_off_c, 7, 79, 127
1, 221509, Note_off_c, 11, 70, 127
1, 221518, Note_on_c, 12, 71, 127
1, 221518, Note_on_c, 8, 80, 127
1, 221753, Note_off_c, 8, 80, 127
1, 221753, Note_off_c, 12, 71, 127
1, 221762, Note_on_c, 12, 71, 127
1, 221762, Note_on_c, 8, 80, 127
1, 221997, Note_off_c, 8, 80, 127
1, 222007, Note_on_c, 10, 81, 127
1, 222157, Note_off_c, 12, 71, 127
1, 222242, Note_off_c, 10, 81, 127
1, 222249, Note_on_c, 1, 49, 127
1, 222249, Note_on_c, 4, 52, 127
1, 222249, Note_on_c, 7, 55, 127
1, 222249, Note_on_c, 10, 57, 127
1, 222249, Note_on_c, 10, 81, 127
1, 223183, Note_off_c, 10, 57, 127
1, 223183, Note_off_c, 7, 55, 127
1, 223183, Note_off_c, 4, 52, 127
1, 223183, Note_off_c, 1, 49, 127
1, 223189, Note_on_c, 4, 52, 127
1, 223189, Note_on_c, 1, 49, 127
1, 223189, Note_on_c, 7, 55, 127
1, 223189, Note_on_c, 10, 57, 127
1, 223422, Note_off_c, 10, 81, 127
1, 223424, Note_on_c, 10, 69, 127
1, 223657, Note_off_c, 10, 69, 127
1, 223659, Note_on_c, 7, 67, 127
1, 223892, Note_off_c, 7, 67, 127
1, 223894, Note_on_c, 10, 69, 127
1, 224123, Note_off_c, 10, 57, 127
1, 224123, Note_off_c, 7, 55, 127
1, 224123, Note_off_c, 1, 49, 127
1, 224123, Note_off_c, 4, 52, 127
1, 224129, Note_on_c, 7, 55, 127
1, 224129, Note_on_c, 1, 49, 127
1, 224129, Note_on_c, 10, 57, 127
1, 224129, Note_on_c, 4, 52, 127
1, 224129, Note_on_c, 7, 79, 127
1, 224359, Note_off_c, 10, 69, 127
1, 224364, Note_on_c, 10, 69, 127
1, 224594, Note_off_c, 7, 79, 127
1, 224596, Note_off_c, 10, 69, 127
1, 224598, Note_on_c, 7, 67, 127
1, 224831, Note_off_c, 7, 67, 127
1, 224833, Note_on_c, 10, 69, 127
1, 225066, Note_off_c, 10, 69, 127
1, 225066, Note_off_c, 4, 52, 127
1, 225066, Note_off_c, 10, 57, 127
1, 225066, Note_off_c, 1, 49, 127
1, 225066, Note_off_c, 7, 55, 127
1, 225068, Note_on_c, 10, 57, 127
1, 225068, Note_on_c, 2, 50, 127
1, 225068, Note_on_c, 5, 77, 127
1, 225068, Note_on_c, 10, 69, 127
1, 225536, Note_off_c, 10, 69, 127
1, 225536, Note_off_c, 5, 77, 127
1, 225536, Note_off_c, 2, 50, 127
1, 225536, Note_off_c, 10, 57, 127
1, 225538, Note_on_c, 11, 58, 127
1, 225538, Note_on_c, 7, 55, 127
1, 225538, Note_on_c, 4, 76, 127
1, 225538, Note_on_c, 7, 67, 127
1, 225771, Note_off_c, 4, 76, 127
1, 225773, Note_on_c, 2, 74, 127
1, 226003, Note_off_c, 7, 67, 127
1, 226005, Note_off_c, 2, 74, 127
1, 226005, Note_off_c, 7, 55, 127
1, 226005, Note_off_c, 11, 58, 127
1, 226007, Note_on_c, 10, 57, 127
1, 226007, Note_on_c, 2, 74, 127
1, 226007, Note_on_c, 7, 67, 127
1, 226007, Note_on_c, 4, 64, 127
1, 226472, Note_off_c, 2, 74, 127
1, 226477, Note_on_c, 1, 73, 127
1, 226592, Note_off_c, 1, 73, 127
1, 226594, Note_on_c, 2, 74, 127
1, 226709, Note_off_c, 2, 74, 127
1, 226711, Note_on_c, 1, 73, 127
1, 226826, Note_off_c, 1, 73, 127
1, 226828, Note_on_c, 2, 74, 127
1, 226943, Note_off_c, 2, 74, 127
1, 226945, Note_on_c, 10, 45, 127
1, 226945, Note_on_c, 1, 73, 127
1, 227410, Note_off_c, 1, 73, 127
1, 227412, Note_off_c, 4, 64, 127
1, 227412, Note_off_c, 7, 67, 127
1, 227430, Note_on_c, 2, 74, 127
1, 227882, Note_off_c, 10, 45, 127
1, 227882, Note_off_c, 10, 57, 127
1, 227898, Note_off_c, 2, 74, 127
1, 227916, Note_on_c, 10, 57, 127
1, 227916, Note_on_c, 5, 53, 127
1, 227916, Note_on_c, 2, 50, 127
1, 227916, Note_on_c, 10, 69, 127
1, 227916, Note_on_c, 5, 65, 127
1, 227916, Note_on_c, 2, 74, 127
1, 227916, Note_on_c, 2, 62, 127
1, 228850, Note_off_c, 2, 62, 127
1, 228850, Note_off_c, 2, 74, 127
1, 228850, Note_off_c, 5, 65, 127
1, 228850, Note_off_c, 10, 69, 127
1, 228850, Note_off_c, 2, 50, 127
1, 228850, Note_off_c, 5, 53, 127
1, 228850, Note_off_c, 10, 57, 127
1, 228856, Note_on_c, 5, 53, 127
1, 228856, Note_on_c, 2, 50, 127
1, 228856, Note_on_c, 10, 57, 127
1, 228856, Note_on_c, 2, 62, 127
1, 228856, Note_on_c, 2, 74, 127
1, 228856, Note_on_c, 10, 69, 127
1, 228856, Note_on_c, 5, 65, 127
1, 229790, Note_off_c, 5, 65, 127
1, 229790, Note_off_c, 10, 69, 127
1, 229790, Note_off_c, 2, 74, 127
1, 229790, Note_off_c, 2, 62, 127
1, 229790, Note_off_c, 10, 57, 127
1, 229790, Note_off_c, 2, 50, 127
1, 229790, Note_off_c, 5, 53, 127
1, 229796, Note_on_c, 10, 57, 127
1, 229796, Note_on_c, 2, 50, 127
1, 229796, Note_on_c, 5, 53, 127
1, 229796, Note_on_c, 5, 65, 127
1, 229796, Note_on_c, 2, 62, 127
1, 229796, Note_on_c, 2, 74, 127
1, 229796, Note_on_c, 10, 69, 127
1, 230730, Note_off_c, 10, 69, 127
1, 230730, Note_off_c, 2, 74, 127
1, 230730, Note_off_c, 2, 62, 127
1, 230730, Note_off_c, 5, 65, 127
1, 230730, Note_off_c, 5, 53, 127
1, 230730, Note_off_c, 2, 50, 127
1, 230730, Note_off_c, 10, 57, 127
1, 230736, Note_on_c, 10, 57, 127
1, 230736, Note_on_c, 6, 54, 127
1, 230736, Note_on_c, 2, 50, 127
1, 230736, Note_on_c, 2, 62, 127
1, 230736, Note_on_c, 10, 69, 127
1, 230736, Note_on_c, 6, 78, 127
1, 230736, Note_on_c, 0, 72, 127
1, 231204, Note_off_c, 6, 78, 127
1, 231206, Note_on_c, 10, 81, 127
1, 231666, Note_off_c, 0, 72, 127
1, 231666, Note_off_c, 10, 69, 127
1, 231673, Note_off_c, 10, 81, 127
1, 231675, Note_on_c, 10, 81, 127
1, 231908, Note_off_c, 10, 81, 127
1, 231910, Note_on_c, 7, 79, 127
1, 232143, Note_off_c, 7, 79, 127
1, 232143, Note_off_c, 2, 62, 127
1, 232143, Note_off_c, 2, 50, 127
1, 232143, Note_off_c, 6, 54, 127
1, 232143, Note_off_c, 10, 57, 127
1, 232145, Note_on_c, 10, 57, 127
1, 232145, Note_on_c, 6, 78, 127
1, 232378, Note_off_c, 6, 78, 127
1, 232378, Note_off_c, 10, 57, 127
1, 232380, Note_on_c, 7, 55, 127
1, 232380, Note_on_c, 4, 76, 127
1, 232613, Note_off_c, 4, 76, 127
1, 232613, Note_off_c, 7, 55, 127
1, 232615, Note_on_c, 6, 54, 127
1, 232615, Note_on_c, 2, 74, 127
1, 232848, Note_off_c, 2, 74, 127
1, 232848, Note_off_c, 6, 54, 127
1, 232850, Note_on_c, 10, 57, 127
1, 232850, Note_on_c, 0, 72, 127
1, 233083, Note_off_c, 0, 72, 127
1, 233083, Note_off_c, 10, 57, 127
1, 233085, Note_on_c, 7, 55, 127
1, 233085, Note_on_c, 11, 70, 127
1, 233318, Note_off_c, 11, 70, 127
1, 233318, Note_off_c, 7, 55, 127
1, 233320, Note_on_c, 6, 54, 127
1, 233320, Note_on_c, 10, 69, 127
1, 233553, Note_off_c, 10, 69, 127
1, 233553, Note_off_c, 6, 54, 127
1, 233555, Note_on_c, 2, 50, 127
1, 233555, Note_on_c, 7, 43, 127
1, 233555, Note_on_c, 7, 55, 127
1, 233555, Note_on_c, 11, 70, 127
1, 233555, Note_on_c, 7, 67, 127
1, 233555, Note_on_c, 2, 62, 127
1, 234023, Note_off_c, 11, 70, 127
1, 234025, Note_on_c, 2, 74, 127
1, 234485, Note_off_c, 2, 62, 127
1, 234485, Note_off_c, 7, 67, 127
1, 234492, Note_off_c, 2, 74, 127
1, 234494, Note_on_c, 2, 74, 127
1, 234727, Note_off_c, 2, 74, 127
1, 234729, Note_on_c, 0, 72, 127
1, 234962, Note_off_c, 0, 72, 127
1, 234962, Note_off_c, 7, 55, 127
1, 234962, Note_off_c, 7, 43, 127
1, 234962, Note_off_c, 2, 50, 127
1, 234964, Note_on_c, 2, 62, 127
1, 234964, Note_on_c, 11, 70, 127
1, 235197, Note_off_c, 11, 70, 127
1, 235197, Note_off_c, 2, 62, 127
1, 235199, Note_on_c, 0, 60, 127
1, 235199, Note_on_c, 10, 69, 127
1, 235432, Note_off_c, 10, 69, 127
1, 235432, Note_off_c, 0, 60, 127
1, 235434, Note_on_c, 11, 58, 127
1, 235434, Note_on_c, 7, 67, 127
1, 235667, Note_off_c, 7, 67, 127
1, 235667, Note_off_c, 11, 58, 127
1, 235669, Note_on_c, 10, 57, 127
1, 235669, Note_on_c, 5, 65, 127
1, 235902, Note_off_c, 5, 65, 127
1, 235902, Note_off_c, 10, 57, 127
1, 235904, Note_on_c, 7, 55, 127
1, 235904, Note_on_c, 4, 64, 127
1, 236137, Note_off_c, 4, 64, 127
1, 236137, Note_off_c, 7, 55, 127
1, 236139, Note_on_c, 5, 53, 127
1, 236139, Note_on_c, 2, 62, 127
1, 236372, Note_off_c, 2, 62, 127
1, 236372, Note_off_c, 5, 53, 127
1, 236390, Note_on_c, 1, 73, 127
1, 236390, Note_on_c, 10, 57, 127
1, 236390, Note_on_c, 1, 49, 127
1, 236390, Note_on_c, 4, 52, 127
1, 236390, Note_on_c, 10, 45, 127
1, 236623, Note_off_c, 1, 73, 127
1, 236625, Note_on_c, 10, 69, 127
1, 236858, Note_off_c, 10, 69, 127
1, 236860, Note_on_c, 7, 67, 127
1, 237093, Note_off_c, 7, 67, 127
1, 237095, Note_on_c, 10, 69, 127
1, 237324, Note_off_c, 10, 45, 127
1, 237324, Note_off_c, 4, 52, 127
1, 237324, Note_off_c, 1, 49, 127
1, 237324, Note_off_c, 10, 57, 127
1, 237328, Note_off_c, 10, 69, 127
1, 237330, Note_on_c, 4, 76, 127
1, 237330, Note_on_c, 10, 57, 127
1, 237330, Note_on_c, 4, 52, 127
1, 237330, Note_on_c, 7, 55, 127
1, 237330, Note_on_c, 10, 45, 127
1, 237330, Note_on_c, 1, 49, 127
1, 237563, Note_off_c, 4, 76, 127
1, 237565, Note_on_c, 10, 69, 127
1, 237798, Note_off_c, 10, 69, 127
1, 237800, Note_on_c, 7, 67, 127
1, 238033, Note_off_c, 7, 67, 127
1, 238035, Note_on_c, 10, 69, 127
1, 238264, Note_off_c, 1, 49, 127
1, 238264, Note_off_c, 10, 45, 127
1, 238264, Note_off_c, 7, 55, 127
1, 238264, Note_off_c, 4, 52, 127
1, 238264, Note_off_c, 10, 57, 127
1, 238268, Note_off_c, 10, 69, 127
1, 238270, Note_on_c, 7, 79, 127
1, 238270, Note_on_c, 7, 55, 127
1, 238270, Note_on_c, 10, 57, 127
1, 238270, Note_on_c, 1, 49, 127
1, 238270, Note_on_c, 4, 52, 127
1, 238270, Note_on_c, 10, 45, 127
1, 238503, Note_off_c, 7, 79, 127
1, 238505, Note_on_c, 10, 69, 127
1, 238738, Note_off_c, 10, 69, 127
1, 238740, Note_on_c, 7, 67, 127
1, 238973, Note_off_c, 7, 67, 127
1, 238975, Note_on_c, 10, 69, 127
1, 239204, Note_off_c, 10, 45, 127
1, 239204, Note_off_c, 4, 52, 127
1, 239204, Note_off_c, 1, 49, 127
1, 239204, Note_off_c, 10, 57, 127
1, 239204, Note_off_c, 7, 55, 127
1, 239208, Note_off_c, 10, 69, 127
1, 239210, Note_on_c, 10, 69, 127
1, 239210, Note_on_c, 5, 77, 127
1, 239210, Note_on_c, 10, 57, 127
1, 239210, Note_on_c, 2, 50, 127
1, 239210, Note_on_c, 5, 53, 127
1, 239678, Note_off_c, 5, 53, 127
1, 239678, Note_off_c, 2, 50, 127
1, 239678, Note_off_c, 10, 57, 127
1, 239678, Note_off_c, 5, 77, 127
1, 239678, Note_off_c, 10, 69, 127
1, 239680, Note_on_c, 7, 67, 127
1, 239680, Note_on_c, 4, 76, 127
1, 239680, Note_on_c, 11, 58, 127
1, 239680, Note_on_c, 7, 55, 127
1, 239913, Note_off_c, 4, 76, 127
1, 239915, Note_on_c, 2, 74, 127
1, 240145, Note_off_c, 7, 67, 127
1, 240147, Note_off_c, 2, 74, 127
1, 240147, Note_off_c, 7, 55, 127
1, 240147, Note_off_c, 11, 58, 127
1, 240149, Note_on_c, 2, 74, 127
1, 240149, Note_on_c, 4, 64, 127
1, 240149, Note_on_c, 7, 67, 127
1, 240149, Note_on_c, 10, 57, 127
1, 240614, Note_off_c, 2, 74, 127
1, 240619, Note_on_c, 1, 73, 127
1, 240734, Note_off_c, 1, 73, 127
1, 240736, Note_on_c, 12, 71, 127
1, 240851, Note_off_c, 12, 71, 127
1, 240853, Note_on_c, 1, 73, 127
1, 240968, Note_off_c, 1, 73, 127
1, 240970, Note_on_c, 2, 74, 127
1, 241085, Note_off_c, 2, 74, 127
1, 241087, Note_on_c, 1, 73, 127
1, 241087, Note_on_c, 10, 45, 127
1, 241552, Note_off_c, 1, 73, 127
1, 241554, Note_off_c, 7, 67, 127
1, 241554, Note_off_c, 4, 64, 127
1, 241556, Note_on_c, 2, 74, 127
1, 242024, Note_off_c, 2, 74, 127
1, 242024, Note_off_c, 10, 45, 127
1, 242024, Note_off_c, 10, 57, 127
1, 242026, Note_on_c, 5, 65, 127
1, 242026, Note_on_c, 2, 74, 127
1, 242026, Note_on_c, 2, 62, 127
1, 242026, Note_on_c, 2, 50, 127
1, 242026, Note_on_c, 10, 57, 127
1, 242960, Note_off_c, 10, 57, 127
1, 242960, Note_off_c, 2, 50, 127
1, 242960, Note_off_c, 2, 62, 127
1, 242960, Note_off_c, 2, 74, 127
1, 242960, Note_off_c, 5, 65, 127
1, 242982, Note_on_c, 5, 53, 127
1, 242982, Note_on_c, 2, 50, 127
1, 242982, Note_on_c, 10, 57, 127
1, 242982, Note_on_c, 2, 62, 127
1, 242982, Note_on_c, 5, 65, 127
1, 242982, Note_on_c, 5, 77, 127
1, 242982, Note_on_c, 2, 74, 127
1, 242982, Note_on_c, 10, 69, 127
1, 243916, Note_off_c, 10, 69, 127
1, 243916, Note_off_c, 2, 74, 127
1, 243916, Note_off_c, 5, 77, 127
1, 243916, Note_off_c, 5, 65, 127
1, 243916, Note_off_c, 2, 62, 127
1, 243916, Note_off_c, 10, 57, 127
1, 243916, Note_off_c, 2, 50, 127
1, 243916, Note_off_c, 5, 53, 127
1, 243922, Note_on_c, 5, 53, 127
1, 243922, Note_on_c, 2, 50, 127
1, 243922, Note_on_c, 2, 62, 127
1, 243922, Note_on_c, 10, 57, 127
1, 243922, Note_on_c, 5, 65, 127
1, 243922, Note_on_c, 2, 74, 127
1, 243922, Note_on_c, 10, 69, 127
1, 243922, Note_on_c, 5, 77, 127
1, 244856, Note_off_c, 5, 77, 127
1, 244856, Note_off_c, 10, 69, 127
1, 244856, Note_off_c, 2, 74, 127
1, 244856, Note_off_c, 5, 65, 127
1, 244856, Note_off_c, 10, 57, 127
1, 244856, Note_off_c, 2, 62, 127
1, 244856, Note_off_c, 2, 50, 127
1, 244856, Note_off_c, 5, 53, 127
1, 244862, Note_on_c, 11, 58, 127
1, 244862, Note_on_c, 7, 55, 127
1, 244862, Note_on_c, 4, 64, 127
1, 244862, Note_on_c, 7, 67, 127
1, 244862, Note_on_c, 4, 76, 127
1, 244862, Note_on_c, 11, 70, 127
1, 244862, Note_on_c, 2, 74, 127
1, 245796, Note_off_c, 2, 74, 127
1, 245796, Note_off_c, 11, 70, 127
1, 245796, Note_off_c, 4, 76, 127
1, 245796, Note_off_c, 7, 67, 127
1, 245796, Note_off_c, 4, 64, 127
1, 245796, Note_off_c, 7, 55, 127
1, 245796, Note_off_c, 11, 58, 127
1, 245802, Note_on_c, 10, 57, 127
1, 245802, Note_on_c, 4, 76, 127
1, 245802, Note_on_c, 1, 73, 127
1, 245802, Note_on_c, 10, 69, 127
1, 245802, Note_on_c, 7, 67, 127
1, 246736, Note_off_c, 7, 67, 127
1, 246736, Note_off_c, 10, 69, 127
1, 246736, Note_off_c, 1, 73, 127
1, 246736, Note_off_c, 4, 76, 127
1, 246736, Note_off_c, 10, 57, 127
1, 246742, Note_on_c, 4, 52, 127
1, 246742, Note_on_c, 1, 49, 127
1, 246742, Note_on_c, 10, 45, 127
1, 246742, Note_on_c, 10, 57, 127
1, 246742, Note_on_c, 4, 76, 127
1, 246742, Note_on_c, 1, 73, 127
1, 246742, Note_on_c, 10, 69, 127
1, 246742, Note_on_c, 7, 67, 127
1, 247712, Note_off_c, 7, 67, 127
1, 247712, Note_off_c, 10, 69, 127
1, 247712, Note_off_c, 1, 73, 127
1, 247712, Note_off_c, 4, 76, 127
1, 247712, Note_off_c, 10, 57, 127
1, 247712, Note_off_c, 10, 45, 127
1, 247712, Note_off_c, 1, 49, 127
1, 247712, Note_off_c, 4, 52, 127
1, 247730, Note_on_c, 10, 69, 127
1, 247730, Note_on_c, 2, 74, 127
1, 247730, Note_on_c, 2, 62, 127
1, 247730, Note_on_c, 5, 65, 127
1, 247730, Note_on_c, 5, 53, 127
1, 247730, Note_on_c, 2, 50, 127
1, 247730, Note_on_c, 10, 57, 127
1, 251130, Note_off_c, 10, 57, 127
1, 251130, Note_off_c, 2, 50, 127
1, 251130, Note_off_c, 5, 53, 127
1, 251130, Note_off_c, 5, 65, 127
1, 251130, Note_off_c, 2, 62, 127
1, 251130, Note_off_c, 2, 74, 127
1, 251130, Note_off_c, 10, 69, 127
1, 253372, Note_on_c, 5, 77, 127
1, 253372, Note_on_c, 5, 41, 127
1, 253522, Note_off_c, 5, 41, 127
1, 253524, Note_on_c, 7, 43, 127
1, 253674, Note_off_c, 7, 43, 127
1, 253674, Note_off_c, 5, 77, 127
1, 253676, Note_on_c, 0, 72, 127
1, 253676, Note_on_c, 10, 45, 127
1, 253826, Note_off_c, 10, 45, 127
1, 253828, Note_on_c, 7, 43, 127
1, 253978, Note_off_c, 7, 43, 127
1, 253978, Note_off_c, 0, 72, 127
1, 253980, Note_on_c, 5, 77, 127
1, 253980, Note_on_c, 10, 45, 127
1, 254130, Note_off_c, 10, 45, 127
1, 254132, Note_on_c, 5, 41, 127
1, 254282, Note_off_c, 5, 41, 127
1, 254282, Note_off_c, 5, 77, 127
1, 254284, Note_on_c, 7, 79, 127
1, 254284, Note_on_c, 0, 48, 127
1, 254434, Note_off_c, 0, 48, 127
1, 254436, Note_on_c, 2, 50, 127
1, 254586, Note_off_c, 2, 50, 127
1, 254586, Note_off_c, 7, 79, 127
1, 254588, Note_on_c, 0, 72, 127
1, 254588, Note_on_c, 4, 52, 127
1, 254738, Note_off_c, 4, 52, 127
1, 254740, Note_on_c, 2, 50, 127
1, 254890, Note_off_c, 2, 50, 127
1, 254890, Note_off_c, 0, 72, 127
1, 254892, Note_on_c, 7, 79, 127
1, 254892, Note_on_c, 4, 52, 127
1, 255042, Note_off_c, 4, 52, 127
1, 255044, Note_on_c, 0, 48, 127
1, 255194, Note_off_c, 0, 48, 127
1, 255194, Note_off_c, 7, 79, 127
1, 255196, Note_on_c, 10, 81, 127
1, 255196, Note_on_c, 5, 53, 127
1, 255346, Note_off_c, 5, 53, 127
1, 255348, Note_on_c, 7, 55, 127
1, 255498, Note_off_c, 7, 55, 127
1, 255498, Note_off_c, 10, 81, 127
1, 255500, Note_on_c, 0, 72, 127
1, 255500, Note_on_c, 10, 57, 127
1, 255650, Note_off_c, 10, 57, 127
1, 255652, Note_on_c, 7, 55, 127
1, 255802, Note_off_c, 7, 55, 127
1, 255802, Note_off_c, 0, 72, 127
1, 255804, Note_on_c, 10, 81, 127
1, 255804, Note_on_c, 10, 57, 127
1, 255954, Note_off_c, 10, 57, 127
1, 255956, Note_on_c, 5, 53, 127
1, 256106, Note_off_c, 5, 53, 127
1, 256106, Note_off_c, 10, 81, 127
1, 256108, Note_on_c, 7, 79, 127
1, 256108, Note_on_c, 0, 60, 127
1, 256258, Note_off_c, 7, 79, 127
1, 256260, Note_on_c, 5, 77, 127
1, 256410, Note_off_c, 5, 77, 127
1, 256412, Note_on_c, 7, 79, 127
1, 256412, Note_on_c, 0, 48, 127
1, 256709, Note_off_c, 0, 60, 127
1, 256854, Note_off_c, 0, 48, 127
1, 256854, Note_off_c, 7, 79, 127
1, 257034, Note_on_c, 5, 41, 127
1, 257034, Note_on_c, 5, 77, 127
1, 257184, Note_off_c, 5, 41, 127
1, 257186, Note_on_c, 7, 43, 127
1, 257336, Note_off_c, 7, 43, 127
1, 257336, Note_off_c, 5, 77, 127
1, 257338, Note_on_c, 10, 45, 127
1, 257338, Note_on_c, 0, 72, 127
1, 257488, Note_off_c, 10, 45, 127
1, 257490, Note_on_c, 7, 43, 127
1, 257640, Note_off_c, 7, 43, 127
1, 257640, Note_off_c, 0, 72, 127
1, 257642, Note_on_c, 10, 45, 127
1, 257642, Note_on_c, 5, 77, 127
1, 257792, Note_off_c, 10, 45, 127
1, 257794, Note_on_c, 5, 41, 127
1, 257944, Note_off_c, 5, 41, 127
1, 257944, Note_off_c, 5, 77, 127
1, 257946, Note_on_c, 0, 48, 127
1, 257946, Note_on_c, 7, 79, 127
1, 258096, Note_off_c, 0, 48, 127
1, 258098, Note_on_c, 2, 50, 127
1, 258248, Note_off_c, 2, 50, 127
1, 258248, Note_off_c, 7, 79, 127
1, 258250, Note_on_c, 4, 52, 127
1, 258250, Note_on_c, 0, 72, 127
1, 258400, Note_off_c, 4, 52, 127
1, 258402, Note_on_c, 2, 50, 127
1, 258552, Note_off_c, 2, 50, 127
1, 258552, Note_off_c, 0, 72, 127
1, 258554, Note_on_c, 4, 52, 127
1, 258554, Note_on_c, 7, 79, 127
1, 258704, Note_off_c, 4, 52, 127
1, 258706, Note_on_c, 0, 48, 127
1, 258856, Note_off_c, 0, 48, 127
1, 258856, Note_off_c, 7, 79, 127
1, 258858, Note_on_c, 5, 53, 127
1, 258858, Note_on_c, 10, 81, 127
1, 259008, Note_off_c, 5, 53, 127
1, 259010, Note_on_c, 7, 55, 127
1, 259160, Note_off_c, 7, 55, 127
1, 259160, Note_off_c, 10, 81, 127
1, 259162, Note_on_c, 10, 57, 127
1, 259162, Note_on_c, 0, 72, 127
1, 259312, Note_off_c, 10, 57, 127
1, 259314, Note_on_c, 7, 55, 127
1, 259464, Note_off_c, 7, 55, 127
1, 259464, Note_off_c, 0, 72, 127
1, 259466, Note_on_c, 10, 57, 127
1, 259466, Note_on_c, 10, 81, 127
1, 259616, Note_off_c, 10, 57, 127
1, 259618, Note_on_c, 5, 53, 127
1, 259768, Note_off_c, 5, 53, 127
1, 259768, Note_off_c, 10, 81, 127
1, 259770, Note_on_c, 7, 55, 127
1, 259770, Note_on_c, 12, 71, 127
1, 259920, Note_off_c, 7, 55, 127
1, 259922, Note_on_c, 10, 57, 127
1, 260072, Note_off_c, 10, 57, 127
1, 260074, Note_on_c, 12, 59, 127
1, 260074, Note_on_c, 7, 67, 127
1, 260090, Note_off_c, 12, 71, 127
1, 260224, Note_off_c, 12, 59, 127
1, 260226, Note_on_c, 10, 57, 127
1, 260376, Note_off_c, 10, 57, 127
1, 260378, Note_on_c, 12, 59, 127
1, 260378, Note_on_c, 7, 79, 127
1, 260528, Note_off_c, 12, 59, 127
1, 260530, Note_on_c, 7, 55, 127
1, 260675, Note_off_c, 7, 67, 127
1, 260680, Note_off_c, 7, 55, 127
1, 260682, Note_on_c, 10, 57, 127
1, 260682, Note_on_c, 0, 72, 127
1, 260682, Note_on_c, 4, 76, 127
1, 260832, Note_off_c, 10, 57, 127
1, 260834, Note_on_c, 7, 55, 127
1, 260979, Note_off_c, 7, 79, 127
1, 260984, Note_off_c, 7, 55, 127
1, 260984, Note_off_c, 4, 76, 127
1, 260984, Note_off_c, 0, 72, 127
1, 260986, Note_on_c, 10, 57, 127
1, 260986, Note_on_c, 10, 69, 127
1, 260986, Note_on_c, 5, 77, 127
1, 260986, Note_on_c, 0, 72, 127
1, 261136, Note_off_c, 10, 57, 127
1, 261138, Note_on_c, 12, 59, 127
1, 261288, Note_off_c, 12, 59, 127
1, 261288, Note_off_c, 0, 72, 127
1, 261288, Note_off_c, 10, 69, 127
1, 261290, Note_on_c, 0, 60, 127
1, 261290, Note_on_c, 5, 65, 127
1, 261290, Note_on_c, 10, 69, 127
1, 261440, Note_off_c, 0, 60, 127
1, 261442, Note_on_c, 2, 62, 127
1, 261592, Note_off_c, 2, 62, 127
1, 261592, Note_off_c, 10, 69, 127
1, 261592, Note_off_c, 5, 65, 127
1, 261594, Note_on_c, 7, 55, 127
1, 261594, Note_on_c, 12, 71, 127
1, 261594, Note_on_c, 2, 74, 127
1, 261744, Note_off_c, 7, 55, 127
1, 261746, Note_on_c, 5, 53, 127
1, 261896, Note_off_c, 5, 53, 127
1, 261896, Note_off_c, 2, 74, 127
1, 261896, Note_off_c, 12, 71, 127
1, 261896, Note_off_c, 5, 77, 127
1, 261898, Note_on_c, 7, 55, 127
1, 261898, Note_on_c, 4, 76, 127
1, 261898, Note_on_c, 7, 67, 127
1, 261898, Note_on_c, 12, 71, 127
1, 262048, Note_off_c, 7, 55, 127
1, 262050, Note_on_c, 10, 57, 127
1, 262200, Note_off_c, 10, 57, 127
1, 262200, Note_off_c, 12, 71, 127
1, 262200, Note_off_c, 7, 67, 127
1, 262202, Note_on_c, 12, 59, 127
1, 262202, Note_on_c, 7, 67, 127
1, 262202, Note_on_c, 4, 64, 127
1, 262352, Note_off_c, 12, 59, 127
1, 262354, Note_on_c, 0, 60, 127
1, 262504, Note_off_c, 0, 60, 127
1, 262504, Note_off_c, 4, 64, 127
1, 262504, Note_off_c, 7, 67, 127
1, 262506, Note_on_c, 5, 53, 127
1, 262506, Note_on_c, 0, 72, 127
1, 262506, Note_on_c, 10, 69, 127
1, 262656, Note_off_c, 5, 53, 127
1, 262658, Note_on_c, 4, 52, 127
1, 262808, Note_off_c, 4, 52, 127
1, 262808, Note_off_c, 10, 69, 127
1, 262808, Note_off_c, 0, 72, 127
1, 262808, Note_off_c, 4, 76, 127
1, 262810, Note_on_c, 5, 53, 127
1, 262810, Note_on_c, 10, 69, 127
1, 262810, Note_on_c, 5, 65, 127
1, 262810, Note_on_c, 2, 74, 127
1, 262960, Note_off_c, 5, 53, 127
1, 262962, Note_on_c, 7, 55, 127
1, 263112, Note_off_c, 7, 55, 127
1, 263112, Note_off_c, 5, 65, 127
1, 263112, Note_off_c, 10, 69, 127
1, 263114, Note_on_c, 10, 57, 127
1, 263114, Note_on_c, 5, 65, 127
1, 263114, Note_on_c, 2, 62, 127
1, 263264, Note_off_c, 10, 57, 127
1, 263266, Note_on_c, 12, 59, 127
1, 263416, Note_off_c, 12, 59, 127
1, 263416, Note_off_c, 2, 62, 127
1, 263416, Note_off_c, 5, 65, 127
1, 263418, Note_on_c, 4, 52, 127
1, 263418, Note_on_c, 7, 67, 127
1, 263418, Note_on_c, 12, 71, 127
1, 263568, Note_off_c, 4, 52, 127
1, 263570, Note_on_c, 2, 50, 127
1, 263720, Note_off_c, 2, 50, 127
1, 263720, Note_off_c, 12, 71, 127
1, 263720, Note_off_c, 7, 67, 127
1, 263720, Note_off_c, 2, 74, 127
1, 263722, Note_on_c, 4, 52, 127
1, 263722, Note_on_c, 4, 64, 127
1, 263722, Note_on_c, 7, 67, 127
1, 263722, Note_on_c, 0, 72, 127
1, 263872, Note_off_c, 4, 52, 127
1, 263874, Note_on_c, 5, 53, 127
1, 264024, Note_off_c, 5, 53, 127
1, 264024, Note_off_c, 7, 67, 127
1, 264024, Note_off_c, 4, 64, 127
1, 264026, Note_on_c, 7, 55, 127
1, 264026, Note_on_c, 4, 64, 127
1, 264026, Note_on_c, 0, 60, 127
1, 264176, Note_off_c, 7, 55, 127
1, 264178, Note_on_c, 10, 57, 127
1, 264328, Note_off_c, 10, 57, 127
1, 264328, Note_off_c, 0, 60, 127
1, 264328, Note_off_c, 4, 64, 127
1, 264330, Note_on_c, 2, 50, 127
1, 264330, Note_on_c, 10, 69, 127
1, 264330, Note_on_c, 5, 65, 127
1, 264480, Note_off_c, 2, 50, 127
1, 264482, Note_on_c, 0, 48, 127
1, 264632, Note_off_c, 0, 48, 127
1, 264632, Note_off_c, 5, 65, 127
1, 264632, Note_off_c, 10, 69, 127
1, 264632, Note_off_c, 0, 72, 127
1, 264634, Note_on_c, 2, 50, 127
1, 264634, Note_on_c, 5, 65, 127
1, 264634, Note_on_c, 2, 62, 127
1, 264634, Note_on_c, 12, 71, 127
1, 264784, Note_off_c, 2, 50, 127
1, 264786, Note_on_c, 4, 52, 127
1, 264936, Note_off_c, 4, 52, 127
1, 264936, Note_off_c, 2, 62, 127
1, 264936, Note_off_c, 5, 65, 127
1, 264938, Note_on_c, 5, 53, 127
1, 264938, Note_on_c, 2, 62, 127
1, 264938, Note_on_c, 7, 67, 127
1, 265088, Note_off_c, 5, 53, 127
1, 265090, Note_on_c, 7, 55, 127
1, 265235, Note_off_c, 12, 71, 127
1, 265240, Note_off_c, 7, 55, 127
1, 265240, Note_off_c, 7, 67, 127
1, 265240, Note_off_c, 2, 62, 127
1, 265242, Note_on_c, 0, 48, 127
1, 265242, Note_on_c, 7, 67, 127
1, 265242, Note_on_c, 4, 64, 127
1, 265242, Note_on_c, 0, 72, 127
1, 266000, Note_off_c, 0, 72, 127
1, 266000, Note_off_c, 7, 67, 127
1, 266012, Note_off_c, 4, 64, 127
1, 266150, Note_off_c, 0, 48, 127
1, 266152, Note_on_c, 5, 65, 127
1, 266304, Note_on_c, 5, 77, 127
1, 266454, Note_off_c, 5, 77, 127
1, 266454, Note_off_c, 5, 65, 127
1, 266456, Note_on_c, 5, 53, 127
1, 266456, Note_on_c, 4, 76, 127
1, 266606, Note_off_c, 4, 76, 127
1, 266608, Note_on_c, 2, 74, 127
1, 266758, Note_off_c, 2, 74, 127
1, 266758, Note_off_c, 5, 53, 127
1, 266760, Note_on_c, 5, 65, 127
1, 266760, Note_on_c, 0, 72, 127
1, 266910, Note_off_c, 0, 72, 127
1, 266912, Note_on_c, 11, 70, 127
1, 267062, Note_off_c, 11, 70, 127
1, 267062, Note_off_c, 5, 65, 127
1, 267064, Note_on_c, 5, 65, 127
1, 267064, Note_on_c, 10, 69, 127
1, 267214, Note_off_c, 10, 69, 127
1, 267216, Note_on_c, 7, 67, 127
1, 267366, Note_off_c, 7, 67, 127
1, 267366, Note_off_c, 5, 65, 127
1, 267368, Note_on_c, 5, 53, 127
1, 267368, Note_on_c, 5, 65, 127
1, 267518, Note_off_c, 5, 65, 127
1, 267520, Note_on_c, 7, 67, 127
1, 267670, Note_off_c, 7, 67, 127
1, 267670, Note_off_c, 5, 53, 127
1, 267672, Note_on_c, 5, 65, 127
1, 267672, Note_on_c, 10, 69, 127
1, 267822, Note_off_c, 10, 69, 127
1, 267824, Note_on_c, 11, 70, 127
1, 267974, Note_off_c, 11, 70, 127
1, 267974, Note_off_c, 5, 65, 127
1, 267976, Note_on_c, 5, 65, 127
1, 267976, Note_on_c, 0, 72, 127
1, 268126, Note_off_c, 0, 72, 127
1, 268128, Note_on_c, 11, 70, 127
1, 268278, Note_off_c, 11, 70, 127
1, 268278, Note_off_c, 5, 65, 127
1, 268280, Note_on_c, 5, 53, 127
1, 268280, Note_on_c, 10, 69, 127
1, 268430, Note_off_c, 10, 69, 127
1, 268432, Note_on_c, 11, 70, 127
1, 268582, Note_off_c, 11, 70, 127
1, 268582, Note_off_c, 5, 53, 127
1, 268584, Note_on_c, 5, 65, 127
1, 268584, Note_on_c, 0, 72, 127
1, 268734, Note_off_c, 0, 72, 127
1, 268736, Note_on_c, 2, 74, 127
1, 268886, Note_off_c, 2, 74, 127
1, 268886, Note_off_c, 5, 65, 127
1, 268888, Note_on_c, 5, 65, 127
1, 268888, Note_on_c, 3, 75, 127
1, 269038, Note_off_c, 3, 75, 127
1, 269040, Note_on_c, 2, 74, 127
1, 269190, Note_off_c, 2, 74, 127
1, 269190, Note_off_c, 5, 65, 127
1, 269192, Note_on_c, 5, 53, 127
1, 269192, Note_on_c, 0, 72, 127
1, 269342, Note_off_c, 0, 72, 127
1, 269344, Note_on_c, 2, 74, 127
1, 269494, Note_off_c, 2, 74, 127
1, 269494, Note_off_c, 5, 53, 127
1, 269496, Note_on_c, 5, 65, 127
1, 269496, Note_on_c, 3, 75, 127
1, 269646, Note_off_c, 3, 75, 127
1, 269648, Note_on_c, 5, 77, 127
1, 269798, Note_off_c, 5, 77, 127
1, 269798, Note_off_c, 5, 65, 127
1, 269800, Note_on_c, 11, 58, 127
1, 269800, Note_on_c, 2, 74, 127
1, 269950, Note_off_c, 2, 74, 127
1, 269952, Note_on_c, 3, 75, 127
1, 270102, Note_off_c, 3, 75, 127
1, 270104, Note_on_c, 2, 74, 127
1, 270254, Note_off_c, 2, 74, 127
1, 270256, Note_on_c, 0, 72, 127
1, 270406, Note_off_c, 0, 72, 127
1, 270408, Note_on_c, 11, 70, 127
1, 270480, Note_off_c, 11, 58, 127
1, 270558, Note_off_c, 11, 70, 127
1, 270560, Note_on_c, 10, 69, 127
1, 270710, Note_off_c, 10, 69, 127
1, 270712, Note_on_c, 7, 67, 127
1, 270864, Note_on_c, 7, 79, 127
1, 271014, Note_off_c, 7, 79, 127
1, 271016, Note_on_c, 7, 55, 127
1, 271016, Note_on_c, 5, 77, 127
1, 271155, Note_off_c, 7, 67, 127
1, 271166, Note_off_c, 5, 77, 127
1, 271168, Note_on_c, 4, 76, 127
1, 271318, Note_off_c, 4, 76, 127
1, 271318, Note_off_c, 7, 55, 127
1, 271320, Note_on_c, 7, 67, 127
1, 271320, Note_on_c, 2, 74, 127
1, 271470, Note_off_c, 2, 74, 127
1, 271472, Note_on_c, 0, 72, 127
1, 271622, Note_off_c, 0, 72, 127
1, 271622, Note_off_c, 7, 67, 127
1, 271624, Note_on_c, 7, 67, 127
1, 271624, Note_on_c, 12, 71, 127
1, 271774, Note_off_c, 12, 71, 127
1, 271776, Note_on_c, 10, 69, 127
1, 271926, Note_off_c, 10, 69, 127
1, 271926, Note_off_c, 7, 67, 127
1, 271928, Note_on_c, 7, 55, 127
1, 271928, Note_on_c, 7, 67, 127
1, 272078, Note_off_c, 7, 67, 127
1, 272080, Note_on_c, 10, 69, 127
1, 272230, Note_off_c, 10, 69, 127
1, 272230, Note_off_c, 7, 55, 127
1, 272232, Note_on_c, 7, 67, 127
1, 272232, Note_on_c, 12, 71, 127
1, 272382, Note_off_c, 12, 71, 127
1, 272384, Note_on_c, 0, 72, 127
1, 272534, Note_off_c, 0, 72, 127
1, 272534, Note_off_c, 7, 67, 127
1, 272536, Note_on_c, 7, 67, 127
1, 272536, Note_on_c, 2, 74, 127
1, 272686, Note_off_c, 2, 74, 127
1, 272688, Note_on_c, 0, 72, 127
1, 272838, Note_off_c, 0, 72, 127
1, 272838, Note_off_c, 7, 67, 127
1, 272840, Note_on_c, 7, 55, 127
1, 272840, Note_on_c, 12, 71, 127
1, 272990, Note_off_c, 12, 71, 127
1, 272992, Note_on_c, 0, 72, 127
1, 273142, Note_off_c, 0, 72, 127
1, 273142, Note_off_c, 7, 55, 127
1, 273144, Note_on_c, 7, 67, 127
1, 273144, Note_on_c, 2, 74, 127
1, 273294, Note_off_c, 2, 74, 127
1, 273296, Note_on_c, 4, 76, 127
1, 273446, Note_off_c, 4, 76, 127
1, 273446, Note_off_c, 7, 67, 127
1, 273448, Note_on_c, 7, 67, 127
1, 273448, Note_on_c, 5, 77, 127
1, 273598, Note_off_c, 5, 77, 127
1, 273600, Note_on_c, 4, 76, 127
1, 273750, Note_off_c, 4, 76, 127
1, 273750, Note_off_c, 7, 67, 127
1, 273752, Note_on_c, 7, 55, 127
1, 273752, Note_on_c, 2, 74, 127
1, 273902, Note_off_c, 2, 74, 127
1, 273904, Note_on_c, 4, 76, 127
1, 274054, Note_off_c, 4, 76, 127
1, 274054, Note_off_c, 7, 55, 127
1, 274056, Note_on_c, 7, 67, 127
1, 274056, Note_on_c, 5, 77, 127
1, 274206, Note_off_c, 5, 77, 127
1, 274208, Note_on_c, 7, 79, 127
1, 274358, Note_off_c, 7, 79, 127
1, 274358, Note_off_c, 7, 67, 127
1, 274360, Note_on_c, 0, 60, 127
1, 274360, Note_on_c, 4, 76, 127
1, 274510, Note_off_c, 4, 76, 127
1, 274512, Note_on_c, 5, 77, 127
1, 274662, Note_off_c, 5, 77, 127
1, 274664, Note_on_c, 4, 76, 127
1, 274814, Note_off_c, 4, 76, 127
1, 274816, Note_on_c, 2, 74, 127
1, 274966, Note_off_c, 2, 74, 127
1, 274968, Note_on_c, 0, 72, 127
1, 275118, Note_off_c, 0, 72, 127
1, 275120, Note_off_c, 0, 60, 127
1, 275120, Note_on_c, 11, 70, 127
1, 275270, Note_off_c, 11, 70, 127
1, 275272, Note_on_c, 10, 69, 127
1, 275424, Note_on_c, 10, 81, 127
1, 275574, Note_off_c, 10, 81, 127
1, 275576, Note_on_c, 10, 57, 127
1, 275576, Note_on_c, 7, 79, 127
1, 275715, Note_off_c, 10, 69, 127
1, 275726, Note_off_c, 7, 79, 127
1, 275728, Note_on_c, 5, 77, 127
1, 275878, Note_off_c, 5, 77, 127
1, 275878, Note_off_c, 10, 57, 127
1, 275880, Note_on_c, 10, 69, 127
1, 275880, Note_on_c, 4, 76, 127
1, 276030, Note_off_c, 4, 76, 127
1, 276032, Note_on_c, 2, 74, 127
1, 276182, Note_off_c, 2, 74, 127
1, 276182, Note_off_c, 10, 69, 127
1, 276184, Note_on_c, 10, 69, 127
1, 276184, Note_on_c, 1, 73, 127
1, 276334, Note_off_c, 1, 73, 127
1, 276336, Note_on_c, 12, 71, 127
1, 276486, Note_off_c, 12, 71, 127
1, 276486, Note_off_c, 10, 69, 127
1, 276488, Note_on_c, 10, 57, 127
1, 276488, Note_on_c, 10, 69, 127
1, 276638, Note_off_c, 10, 69, 127
1, 276640, Note_on_c, 12, 71, 127
1, 276790, Note_off_c, 12, 71, 127
1, 276790, Note_off_c, 10, 57, 127
1, 276792, Note_on_c, 10, 69, 127
1, 276792, Note_on_c, 1, 73, 127
1, 276942, Note_off_c, 1, 73, 127
1, 276944, Note_on_c, 2, 74, 127
1, 277094, Note_off_c, 2, 74, 127
1, 277094, Note_off_c, 10, 69, 127
1, 277096, Note_on_c, 10, 69, 127
1, 277096, Note_on_c, 4, 76, 127
1, 277246, Note_off_c, 4, 76, 127
1, 277248, Note_on_c, 2, 74, 127
1, 277398, Note_off_c, 2, 74, 127
1, 277398, Note_off_c, 10, 69, 127
1, 277400, Note_on_c, 10, 57, 127
1, 277400, Note_on_c, 1, 73, 127
1, 277550, Note_off_c, 1, 73, 127
1, 277552, Note_on_c, 2, 74, 127
1, 277702, Note_off_c, 2, 74, 127
1, 277702, Note_off_c, 10, 57, 127
1, 277704, Note_on_c, 10, 69, 127
1, 277704, Note_on_c, 4, 76, 127
1, 277854, Note_off_c, 4, 76, 127
1, 277856, Note_on_c, 5, 77, 127
1, 278006, Note_off_c, 5, 77, 127
1, 278006, Note_off_c, 10, 69, 127
1, 278008, Note_on_c, 10, 69, 127
1, 278008, Note_on_c, 7, 79, 127
1, 278158, Note_off_c, 7, 79, 127
1, 278160, Note_on_c, 5, 77, 127
1, 278310, Note_off_c, 5, 77, 127
1, 278310, Note_off_c, 10, 69, 127
1, 278312, Note_on_c, 10, 57, 127
1, 278312, Note_on_c, 4, 76, 127
1, 278462, Note_off_c, 4, 76, 127
1, 278464, Note_on_c, 5, 77, 127
1, 278614, Note_off_c, 5, 77, 127
1, 278614, Note_off_c, 10, 57, 127
1, 278616, Note_on_c, 10, 69, 127
1, 278616, Note_on_c, 7, 79, 127
1, 278766, Note_off_c, 7, 79, 127
1, 278768, Note_on_c, 10, 81, 127
1, 278918, Note_off_c, 10, 81, 127
1, 278918, Note_off_c, 10, 69, 127
1, 278920, Note_on_c, 2, 62, 127
1, 278920, Note_on_c, 5, 77, 127
1, 279070, Note_off_c, 2, 62, 127
1, 279072, Note_on_c, 1, 61, 127
1, 279222, Note_off_c, 1, 61, 127
1, 279224, Note_on_c, 2, 62, 127
1, 279374, Note_off_c, 2, 62, 127
1, 279374, Note_off_c, 5, 77, 127
1, 279376, Note_on_c, 4, 64, 127
1, 279376, Note_on_c, 4, 76, 127
1, 279526, Note_off_c, 4, 76, 127
1, 279526, Note_off_c, 4, 64, 127
1, 279528, Note_on_c, 5, 65, 127
1, 279528, Note_on_c, 2, 74, 127
1, 279668, Note_off_c, 5, 65, 127
1, 279680, Note_on_c, 7, 67, 127
1, 279830, Note_off_c, 7, 67, 127
1, 279832, Note_on_c, 5, 65, 127
1, 279832, Note_on_c, 10, 69, 127
1, 279903, Note_off_c, 2, 74, 127
1, 279982, Note_off_c, 5, 65, 127
1, 279984, Note_on_c, 4, 64, 127
1, 279984, Note_on_c, 2, 74, 127
1, 280006, Note_off_c, 10, 69, 127
1, 280134, Note_off_c, 4, 64, 127
1, 280136, Note_on_c, 2, 62, 127
1, 280136, Note_on_c, 10, 69, 127
1, 280158, Note_off_c, 2, 74, 127
1, 280286, Note_off_c, 2, 62, 127
1, 280288, Note_on_c, 4, 64, 127
1, 280288, Note_on_c, 2, 74, 127
1, 280310, Note_off_c, 10, 69, 127
1, 280438, Note_off_c, 4, 64, 127
1, 280440, Note_on_c, 5, 65, 127
1, 280440, Note_on_c, 10, 69, 127
1, 280462, Note_off_c, 2, 74, 127
1, 280590, Note_off_c, 5, 65, 127
1, 280592, Note_on_c, 2, 62, 127
1, 280592, Note_on_c, 2, 74, 127
1, 280614, Note_off_c, 10, 69, 127
1, 280742, Note_off_c, 2, 62, 127
1, 280744, Note_on_c, 7, 67, 127
1, 280744, Note_on_c, 12, 71, 127
1, 280766, Note_off_c, 2, 74, 127
1, 280894, Note_off_c, 7, 67, 127
1, 280896, Note_on_c, 2, 62, 127
1, 280896, Note_on_c, 2, 74, 127
1, 280918, Note_off_c, 12, 71, 127
1, 281046, Note_off_c, 2, 62, 127
1, 281048, Note_on_c, 4, 64, 127
1, 281048, Note_on_c, 12, 71, 127
1, 281070, Note_off_c, 2, 74, 127
1, 281198, Note_off_c, 4, 64, 127
1, 281200, Note_on_c, 6, 66, 127
1, 281200, Note_on_c, 2, 74, 127
1, 281222, Note_off_c, 12, 71, 127
1, 281350, Note_off_c, 6, 66, 127
1, 281352, Note_on_c, 7, 67, 127
1, 281352, Note_on_c, 12, 71, 127
1, 281374, Note_off_c, 2, 74, 127
1, 281502, Note_off_c, 7, 67, 127
1, 281504, Note_on_c, 10, 69, 127
1, 281504, Note_on_c, 2, 74, 127
1, 281526, Note_off_c, 12, 71, 127
1, 281654, Note_off_c, 10, 69, 127
1, 281656, Note_on_c, 7, 67, 127
1, 281656, Note_on_c, 12, 71, 127
1, 281678, Note_off_c, 2, 74, 127
1, 281806, Note_off_c, 7, 67, 127
1, 281808, Note_on_c, 5, 65, 127
1, 281808, Note_on_c, 4, 76, 127
1, 281846, Note_off_c, 12, 71, 127
1, 281958, Note_off_c, 5, 65, 127
1, 281960, Note_on_c, 4, 64, 127
1, 281960, Note_on_c, 12, 71, 127
1, 281998, Note_off_c, 4, 76, 127
1, 282110, Note_off_c, 4, 64, 127
1, 282112, Note_on_c, 5, 65, 127
1, 282112, Note_on_c, 4, 76, 127
1, 282150, Note_off_c, 12, 71, 127
1, 282262, Note_off_c, 5, 65, 127
1, 282264, Note_on_c, 7, 67, 127
1, 282264, Note_on_c, 12, 71, 127
1, 282302, Note_off_c, 4, 76, 127
1, 282414, Note_off_c, 7, 67, 127
1, 282416, Note_on_c, 4, 64, 127
1, 282416, Note_on_c, 4, 76, 127
1, 282454, Note_off_c, 12, 71, 127
1, 282566, Note_off_c, 4, 64, 127
1, 282568, Note_on_c, 10, 69, 127
1, 282568, Note_on_c, 1, 73, 127
1, 282606, Note_off_c, 4, 76, 127
1, 282718, Note_off_c, 10, 69, 127
1, 282720, Note_on_c, 4, 64, 127
1, 282720, Note_on_c, 4, 76, 127
1, 282758, Note_off_c, 1, 73, 127
1, 282870, Note_off_c, 4, 64, 127
1, 282872, Note_on_c, 5, 65, 127
1, 282872, Note_on_c, 1, 73, 127
1, 282910, Note_off_c, 4, 76, 127
1, 283022, Note_off_c, 5, 65, 127
1, 283024, Note_on_c, 7, 67, 127
1, 283024, Note_on_c, 4, 76, 127
1, 283062, Note_off_c, 1, 73, 127
1, 283174, Note_off_c, 7, 67, 127
1, 283176, Note_on_c, 10, 69, 127
1, 283176, Note_on_c, 1, 73, 127
1, 283214, Note_off_c, 4, 76, 127
1, 283326, Note_off_c, 10, 69, 127
1, 283328, Note_on_c, 11, 70, 127
1, 283328, Note_on_c, 4, 76, 127
1, 283366, Note_off_c, 1, 73, 127
1, 283478, Note_off_c, 11, 70, 127
1, 283480, Note_on_c, 10, 69, 127
1, 283480, Note_on_c, 1, 73, 127
1, 283518, Note_off_c, 4, 76, 127
1, 283630, Note_off_c, 10, 69, 127
1, 283632, Note_on_c, 7, 67, 127
1, 283632, Note_on_c, 5, 77, 127
1, 283686, Note_off_c, 1, 73, 127
1, 283782, Note_off_c, 7, 67, 127
1, 283784, Note_on_c, 5, 65, 127
1, 283784, Note_on_c, 1, 73, 127
1, 283838, Note_off_c, 5, 77, 127
1, 283934, Note_off_c, 5, 65, 127
1, 283936, Note_on_c, 7, 67, 127
1, 283936, Note_on_c, 5, 77, 127
1, 283990, Note_off_c, 1, 73, 127
1, 284086, Note_off_c, 7, 67, 127
1, 284088, Note_on_c, 10, 69, 127
1, 284088, Note_on_c, 1, 73, 127
1, 284142, Note_off_c, 5, 77, 127
1, 284238, Note_off_c, 10, 69, 127
1, 284240, Note_on_c, 5, 65, 127
1, 284240, Note_on_c, 5, 77, 127
1, 284294, Note_off_c, 1, 73, 127
1, 284390, Note_off_c, 5, 65, 127
1, 284392, Note_on_c, 11, 70, 127
1, 284392, Note_on_c, 2, 74, 127
1, 284446, Note_off_c, 5, 77, 127
1, 284542, Note_off_c, 11, 70, 127
1, 284544, Note_on_c, 5, 65, 127
1, 284544, Note_on_c, 5, 77, 127
1, 284598, Note_off_c, 2, 74, 127
1, 284694, Note_off_c, 5, 65, 127
1, 284696, Note_on_c, 7, 67, 127
1, 284696, Note_on_c, 2, 74, 127
1, 284750, Note_off_c, 5, 77, 127
1, 284846, Note_off_c, 7, 67, 127
1, 284848, Note_on_c, 10, 69, 127
1, 284848, Note_on_c, 5, 77, 127
1, 284902, Note_off_c, 2, 74, 127
1, 284998, Note_off_c, 10, 69, 127
1, 285000, Note_on_c, 11, 70, 127
1, 285000, Note_on_c, 2, 74, 127
1, 285054, Note_off_c, 5, 77, 127
1, 285150, Note_off_c, 11, 70, 127
1, 285152, Note_on_c, 0, 72, 127
1, 285152, Note_on_c, 5, 77, 127
1, 285206, Note_off_c, 2, 74, 127
1, 285302, Note_off_c, 0, 72, 127
1, 285304, Note_on_c, 11, 70, 127
1, 285304, Note_on_c, 2, 74, 127
1, 285358, Note_off_c, 5, 77, 127
1, 285454, Note_off_c, 11, 70, 127
1, 285456, Note_on_c, 10, 69, 127
1, 285456, Note_on_c, 7, 79, 127
1, 285478, Note_off_c, 2, 74, 127
1, 285606, Note_off_c, 10, 69, 127
1, 285608, Note_on_c, 7, 67, 127
1, 285608, Note_on_c, 2, 74, 127
1, 285630, Note_off_c, 7, 79, 127
1, 285758, Note_off_c, 7, 67, 127
1, 285760, Note_on_c, 10, 69, 127
1, 285760, Note_on_c, 7, 79, 127
1, 285782, Note_off_c, 2, 74, 127
1, 285910, Note_off_c, 10, 69, 127
1, 285912, Note_on_c, 11, 70, 127
1, 285912, Note_on_c, 2, 74, 127
1, 285934, Note_off_c, 7, 79, 127
1, 286062, Note_off_c, 11, 70, 127
1, 286064, Note_on_c, 7, 67, 127
1, 286064, Note_on_c, 7, 79, 127
1, 286086, Note_off_c, 2, 74, 127
1, 286214, Note_off_c, 7, 67, 127
1, 286216, Note_on_c, 10, 69, 127
1, 286216, Note_on_c, 1, 73, 127
1, 286238, Note_off_c, 7, 79, 127
1, 286366, Note_off_c, 1, 73, 127
1, 286368, Note_on_c, 12, 71, 127
1, 286518, Note_off_c, 12, 71, 127
1, 286518, Note_off_c, 10, 69, 127
1, 286520, Note_on_c, 7, 67, 127
1, 286520, Note_on_c, 10, 69, 127
1, 286670, Note_off_c, 10, 69, 127
1, 286670, Note_off_c, 7, 67, 127
1, 286672, Note_on_c, 5, 65, 127
1, 286672, Note_on_c, 12, 71, 127
1, 286822, Note_off_c, 12, 71, 127
1, 286822, Note_off_c, 5, 65, 127
1, 286824, Note_on_c, 4, 64, 127
1, 286824, Note_on_c, 1, 73, 127
1, 286974, Note_off_c, 1, 73, 127
1, 286974, Note_off_c, 4, 64, 127
1, 286976, Note_on_c, 2, 62, 127
1, 286976, Note_on_c, 2, 74, 127
1, 287126, Note_off_c, 2, 74, 127
1, 287126, Note_off_c, 2, 62, 127
1, 287128, Note_on_c, 1, 61, 127
1, 287128, Note_on_c, 4, 76, 127
1, 287278, Note_off_c, 4, 76, 127
1, 287278, Note_off_c, 1, 61, 127
1, 287280, Note_on_c, 12, 59, 127
1, 287280, Note_on_c, 2, 74, 127
1, 287430, Note_off_c, 2, 74, 127
1, 287430, Note_off_c, 12, 59, 127
1, 287432, Note_on_c, 10, 57, 127
1, 287432, Note_on_c, 1, 73, 127
1, 287582, Note_off_c, 1, 73, 127
1, 287582, Note_off_c, 10, 57, 127
1, 287584, Note_on_c, 12, 59, 127
1, 287584, Note_on_c, 2, 74, 127
1, 287734, Note_off_c, 2, 74, 127
1, 287734, Note_off_c, 12, 59, 127
1, 287736, Note_on_c, 1, 61, 127
1, 287736, Note_on_c, 4, 76, 127
1, 287886, Note_off_c, 4, 76, 127
1, 287886, Note_off_c, 1, 61, 127
1, 287888, Note_on_c, 2, 62, 127
1, 287888, Note_on_c, 5, 77, 127
1, 288038, Note_off_c, 5, 77, 127
1, 288038, Note_off_c, 2, 62, 127
1, 288040, Note_on_c, 4, 64, 127
1, 288040, Note_on_c, 7, 79, 127
1, 288190, Note_off_c, 7, 79, 127
1, 288190, Note_off_c, 4, 64, 127
1, 288192, Note_on_c, 2, 62, 127
1, 288192, Note_on_c, 5, 77, 127
1, 288342, Note_off_c, 5, 77, 127
1, 288342, Note_off_c, 2, 62, 127
1, 288344, Note_on_c, 1, 61, 127
1, 288344, Note_on_c, 4, 76, 127
1, 288494, Note_off_c, 4, 76, 127
1, 288494, Note_off_c, 1, 61, 127
1, 288496, Note_on_c, 2, 62, 127
1, 288496, Note_on_c, 5, 77, 127
1, 288646, Note_off_c, 5, 77, 127
1, 288646, Note_off_c, 2, 62, 127
1, 288648, Note_on_c, 4, 64, 127
1, 288648, Note_on_c, 7, 79, 127
1, 288798, Note_off_c, 7, 79, 127
1, 288798, Note_off_c, 4, 64, 127
1, 288800, Note_on_c, 5, 65, 127
1, 288800, Note_on_c, 10, 81, 127
1, 288950, Note_off_c, 10, 81, 127
1, 288950, Note_off_c, 5, 65, 127
1, 288952, Note_on_c, 7, 67, 127
1, 288952, Note_on_c, 11, 82, 127
1, 289102, Note_off_c, 11, 82, 127
1, 289102, Note_off_c, 7, 67, 127
1, 289104, Note_on_c, 5, 65, 127
1, 289104, Note_on_c, 10, 81, 127
1, 289254, Note_off_c, 10, 81, 127
1, 289254, Note_off_c, 5, 65, 127
1, 289256, Note_on_c, 4, 64, 127
1, 289256, Note_on_c, 7, 79, 127
1, 289406, Note_off_c, 7, 79, 127
1, 289406, Note_off_c, 4, 64, 127
1, 289408, Note_on_c, 2, 62, 127
1, 289408, Note_on_c, 11, 82, 127
1, 289558, Note_off_c, 11, 82, 127
1, 289558, Note_off_c, 2, 62, 127
1, 289560, Note_on_c, 1, 61, 127
1, 289560, Note_on_c, 10, 81, 127
1, 289710, Note_off_c, 10, 81, 127
1, 289710, Note_off_c, 1, 61, 127
1, 289712, Note_on_c, 4, 64, 127
1, 289712, Note_on_c, 7, 79, 127
1, 289862, Note_off_c, 7, 79, 127
1, 289862, Note_off_c, 4, 64, 127
1, 289864, Note_on_c, 2, 62, 127
1, 289864, Note_on_c, 5, 77, 127
1, 290014, Note_off_c, 2, 62, 127
1, 290016, Note_on_c, 10, 57, 127
1, 290166, Note_off_c, 10, 57, 127
1, 290168, Note_on_c, 2, 62, 127
1, 290318, Note_off_c, 2, 62, 127
1, 290318, Note_off_c, 5, 77, 127
1, 290320, Note_on_c, 0, 60, 127
1, 290320, Note_on_c, 4, 76, 127
1, 290470, Note_off_c, 4, 76, 127
1, 290470, Note_off_c, 0, 60, 127
1, 290472, Note_on_c, 11, 58, 127
1, 290472, Note_on_c, 2, 74, 127
1, 290622, Note_off_c, 11, 58, 127
1, 290624, Note_on_c, 10, 57, 127
1, 290774, Note_off_c, 10, 57, 127
1, 290774, Note_off_c, 2, 74, 127
1, 290776, Note_on_c, 7, 55, 127
1, 290776, Note_on_c, 4, 76, 127
1, 291078, Note_off_c, 4, 76, 127
1, 291078, Note_off_c, 7, 55, 127
1, 291080, Note_on_c, 10, 57, 127
1, 291080, Note_on_c, 10, 69, 127
1, 291382, Note_off_c, 10, 69, 127
1, 291382, Note_off_c, 10, 57, 127
1, 291384, Note_on_c, 10, 45, 127
1, 291384, Note_on_c, 1, 73, 127
1, 291686, Note_off_c, 1, 73, 127
1, 291686, Note_off_c, 10, 45, 127
1, 291696, Note_on_c, 2, 38, 127
1, 291696, Note_on_c, 2, 74, 127
1, 291846, Note_off_c, 2, 38, 127
1, 291848, Note_on_c, 4, 40, 127
1, 291998, Note_off_c, 4, 40, 127
1, 291998, Note_off_c, 2, 74, 127
1, 292000, Note_on_c, 5, 41, 127
1, 292000, Note_on_c, 10, 69, 127
1, 292150, Note_off_c, 5, 41, 127
1, 292152, Note_on_c, 4, 40, 127
1, 292302, Note_off_c, 4, 40, 127
1, 292302, Note_off_c, 10, 69, 127
1, 292304, Note_on_c, 5, 41, 127
1, 292304, Note_on_c, 2, 74, 127
1, 292454, Note_off_c, 5, 41, 127
1, 292456, Note_on_c, 2, 38, 127
1, 292606, Note_off_c, 2, 38, 127
1, 292606, Note_off_c, 2, 74, 127
1, 292608, Note_on_c, 10, 45, 127
1, 292608, Note_on_c, 4, 76, 127
1, 292758, Note_off_c, 10, 45, 127
1, 292760, Note_on_c, 12, 47, 127
1, 292910, Note_off_c, 12, 47, 127
1, 292910, Note_off_c, 4, 76, 127
1, 292912, Note_on_c, 1, 49, 127
1, 292912, Note_on_c, 10, 69, 127
1, 293062, Note_off_c, 1, 49, 127
1, 293064, Note_on_c, 12, 47, 127
1, 293214, Note_off_c, 12, 47, 127
1, 293214, Note_off_c, 10, 69, 127
1, 293216, Note_on_c, 1, 49, 127
1, 293216, Note_on_c, 4, 76, 127
1, 293366, Note_off_c, 1, 49, 127
1, 293368, Note_on_c, 10, 45, 127
1, 293518, Note_off_c, 10, 45, 127
1, 293518, Note_off_c, 4, 76, 127
1, 293520, Note_on_c, 2, 50, 127
1, 293520, Note_on_c, 5, 77, 127
1, 293670, Note_off_c, 2, 50, 127
1, 293672, Note_on_c, 4, 52, 127
1, 293822, Note_off_c, 4, 52, 127
1, 293822, Note_off_c, 5, 77, 127
1, 293824, Note_on_c, 5, 53, 127
1, 293824, Note_on_c, 10, 69, 127
1, 293974, Note_off_c, 5, 53, 127
1, 293976, Note_on_c, 4, 52, 127
1, 294126, Note_off_c, 4, 52, 127
1, 294126, Note_off_c, 10, 69, 127
1, 294128, Note_on_c, 5, 53, 127
1, 294128, Note_on_c, 5, 77, 127
1, 294278, Note_off_c, 5, 53, 127
1, 294280, Note_on_c, 2, 50, 127
1, 294430, Note_off_c, 2, 50, 127
1, 294430, Note_off_c, 5, 77, 127
1, 294432, Note_on_c, 10, 57, 127
1, 294432, Note_on_c, 4, 76, 127
1, 294582, Note_off_c, 4, 76, 127
1, 294584, Note_on_c, 2, 74, 127
1, 294734, Note_off_c, 2, 74, 127
1, 294734, Note_off_c, 10, 57, 127
1, 294736, Note_on_c, 10, 45, 127
1, 294736, Note_on_c, 4, 76, 127
1, 295178, Note_off_c, 4, 76, 127
1, 295178, Note_off_c, 10, 45, 127
1, 295342, Note_on_c, 2, 50, 127
1, 295342, Note_on_c, 2, 74, 127
1, 295492, Note_off_c, 2, 50, 127
1, 295494, Note_on_c, 4, 52, 127
1, 295644, Note_off_c, 4, 52, 127
1, 295644, Note_off_c, 2, 74, 127
1, 295646, Note_on_c, 5, 53, 127
1, 295646, Note_on_c, 10, 69, 127
1, 295796, Note_off_c, 5, 53, 127
1, 295798, Note_on_c, 4, 52, 127
1, 295948, Note_off_c, 4, 52, 127
1, 295948, Note_off_c, 10, 69, 127
1, 295950, Note_on_c, 5, 53, 127
1, 295950, Note_on_c, 2, 74, 127
1, 296100, Note_off_c, 5, 53, 127
1, 296102, Note_on_c, 2, 50, 127
1, 296252, Note_off_c, 2, 50, 127
1, 296252, Note_off_c, 2, 74, 127
1, 296254, Note_on_c, 10, 45, 127
1, 296254, Note_on_c, 4, 76, 127
1, 296404, Note_off_c, 10, 45, 127
1, 296406, Note_on_c, 12, 47, 127
1, 296556, Note_off_c, 12, 47, 127
1, 296556, Note_off_c, 4, 76, 127
1, 296558, Note_on_c, 1, 49, 127
1, 296558, Note_on_c, 10, 69, 127
1, 296708, Note_off_c, 1, 49, 127
1, 296710, Note_on_c, 12, 47, 127
1, 296860, Note_off_c, 12, 47, 127
1, 296860, Note_off_c, 10, 69, 127
1, 296862, Note_on_c, 1, 49, 127
1, 296862, Note_on_c, 4, 76, 127
1, 297012, Note_off_c, 1, 49, 127
1, 297014, Note_on_c, 10, 45, 127
1, 297164, Note_off_c, 10, 45, 127
1, 297164, Note_off_c, 4, 76, 127
1, 297166, Note_on_c, 2, 50, 127
1, 297166, Note_on_c, 5, 77, 127
1, 297316, Note_off_c, 2, 50, 127
1, 297318, Note_on_c, 4, 52, 127
1, 297468, Note_off_c, 4, 52, 127
1, 297468, Note_off_c, 5, 77, 127
1, 297470, Note_on_c, 5, 53, 127
1, 297470, Note_on_c, 10, 69, 127
1, 297620, Note_off_c, 5, 53, 127
1, 297622, Note_on_c, 4, 52, 127
1, 297772, Note_off_c, 4, 52, 127
1, 297772, Note_off_c, 10, 69, 127
1, 297774, Note_on_c, 5, 53, 127
1, 297774, Note_on_c, 5, 77, 127
1, 297924, Note_off_c, 5, 53, 127
1, 297926, Note_on_c, 2, 50, 127
1, 298044, Note_off_c, 5, 77, 127
1, 298076, Note_off_c, 2, 50, 127
1, 298078, Note_on_c, 4, 52, 127
1, 298078, Note_on_c, 8, 68, 127
1, 298228, Note_off_c, 4, 52, 127
1, 298230, Note_on_c, 6, 54, 127
1, 298380, Note_off_c, 6, 54, 127
1, 298380, Note_off_c, 8, 68, 127
1, 298382, Note_on_c, 8, 56, 127
1, 298382, Note_on_c, 4, 64, 127
1, 298532, Note_off_c, 8, 56, 127
1, 298534, Note_on_c, 6, 54, 127
1, 298684, Note_off_c, 6, 54, 127
1, 298686, Note_on_c, 8, 56, 127
1, 298686, Note_on_c, 4, 76, 127
1, 298836, Note_off_c, 8, 56, 127
1, 298838, Note_on_c, 4, 52, 127
1, 298983, Note_off_c, 4, 64, 127
1, 298988, Note_off_c, 4, 52, 127
1, 298990, Note_on_c, 5, 53, 127
1, 298990, Note_on_c, 0, 72, 127
1, 298990, Note_on_c, 10, 69, 127
1, 299140, Note_off_c, 5, 53, 127
1, 299142, Note_on_c, 4, 52, 127
1, 299287, Note_off_c, 4, 76, 127
1, 299292, Note_off_c, 4, 52, 127
1, 299292, Note_off_c, 10, 69, 127
1, 299292, Note_off_c, 0, 72, 127
1, 299294, Note_on_c, 5, 53, 127
1, 299294, Note_on_c, 5, 65, 127
1, 299294, Note_on_c, 10, 69, 127
1, 299294, Note_on_c, 2, 74, 127
1, 299444, Note_off_c, 5, 53, 127
1, 299446, Note_on_c, 7, 55, 127
1, 299596, Note_off_c, 7, 55, 127
1, 299596, Note_off_c, 10, 69, 127
1, 299596, Note_off_c, 5, 65, 127
1, 299598, Note_on_c, 10, 57, 127
1, 299598, Note_on_c, 2, 62, 127
1, 299598, Note_on_c, 5, 65, 127
1, 299748, Note_off_c, 10, 57, 127
1, 299750, Note_on_c, 12, 59, 127
1, 299900, Note_off_c, 12, 59, 127
1, 299900, Note_off_c, 5, 65, 127
1, 299900, Note_off_c, 2, 62, 127
1, 299902, Note_on_c, 4, 52, 127
1, 299902, Note_on_c, 12, 71, 127
1, 299902, Note_on_c, 7, 67, 127
1, 300052, Note_off_c, 4, 52, 127
1, 300054, Note_on_c, 2, 50, 127
1, 300204, Note_off_c, 2, 50, 127
1, 300204, Note_off_c, 7, 67, 127
1, 300204, Note_off_c, 12, 71, 127
1, 300204, Note_off_c, 2, 74, 127
1, 300206, Note_on_c, 4, 52, 127
1, 300206, Note_on_c, 0, 72, 127
1, 300206, Note_on_c, 7, 67, 127
1, 300206, Note_on_c, 4, 64, 127
1, 300356, Note_off_c, 4, 52, 127
1, 300358, Note_on_c, 5, 53, 127
1, 300508, Note_off_c, 5, 53, 127
1, 300508, Note_off_c, 4, 64, 127
1, 300508, Note_off_c, 7, 67, 127
1, 300510, Note_on_c, 7, 55, 127
1, 300510, Note_on_c, 0, 60, 127
1, 300510, Note_on_c, 4, 64, 127
1, 300660, Note_off_c, 7, 55, 127
1, 300662, Note_on_c, 10, 57, 127
1, 300812, Note_off_c, 10, 57, 127
1, 300812, Note_off_c, 4, 64, 127
1, 300812, Note_off_c, 0, 60, 127
1, 300814, Note_on_c, 2, 50, 127
1, 300814, Note_on_c, 5, 65, 127
1, 300814, Note_on_c, 10, 69, 127
1, 300964, Note_off_c, 2, 50, 127
1, 300966, Note_on_c, 0, 48, 127
1, 301116, Note_off_c, 0, 48, 127
1, 301116, Note_off_c, 10, 69, 127
1, 301116, Note_off_c, 5, 65, 127
1, 301116, Note_off_c, 0, 72, 127
1, 301118, Note_on_c, 2, 50, 127
1, 301118, Note_on_c, 2, 62, 127
1, 301118, Note_on_c, 12, 71, 127
1, 301118, Note_on_c, 5, 65, 127
1, 301268, Note_off_c, 2, 50, 127
1, 301270, Note_on_c, 4, 52, 127
1, 301420, Note_off_c, 4, 52, 127
1, 301420, Note_off_c, 5, 65, 127
1, 301420, Note_off_c, 2, 62, 127
1, 301422, Note_on_c, 5, 53, 127
1, 301422, Note_on_c, 12, 59, 127
1, 301422, Note_on_c, 2, 62, 127
1, 301572, Note_off_c, 5, 53, 127
1, 301574, Note_on_c, 7, 55, 127
1, 301724, Note_off_c, 7, 55, 127
1, 301724, Note_off_c, 2, 62, 127
1, 301724, Note_off_c, 12, 59, 127
1, 301726, Note_on_c, 0, 48, 127
1, 301726, Note_on_c, 4, 64, 127
1, 301726, Note_on_c, 7, 67, 127
1, 301876, Note_off_c, 0, 48, 127
1, 301878, Note_on_c, 12, 47, 127
1, 302028, Note_off_c, 12, 47, 127
1, 302028, Note_off_c, 7, 67, 127
1, 302028, Note_off_c, 4, 64, 127
1, 302028, Note_off_c, 12, 71, 127
1, 302030, Note_on_c, 0, 48, 127
1, 302030, Note_on_c, 4, 64, 127
1, 302030, Note_on_c, 0, 60, 127
1, 302030, Note_on_c, 10, 69, 127
1, 302180, Note_off_c, 0, 48, 127
1, 302182, Note_on_c, 2, 50, 127
1, 302332, Note_off_c, 2, 50, 127
1, 302332, Note_off_c, 0, 60, 127
1, 302332, Note_off_c, 4, 64, 127
1, 302334, Note_on_c, 4, 52, 127
1, 302334, Note_on_c, 10, 57, 127
1, 302334, Note_on_c, 0, 60, 127
1, 302484, Note_off_c, 4, 52, 127
1, 302486, Note_on_c, 5, 53, 127
1, 302636, Note_off_c, 5, 53, 127
1, 302636, Note_off_c, 0, 60, 127
1, 302636, Note_off_c, 10, 57, 127
1, 302638, Note_on_c, 12, 47, 127
1, 302638, Note_on_c, 2, 62, 127
1, 302638, Note_on_c, 5, 65, 127
1, 302788, Note_off_c, 12, 47, 127
1, 302790, Note_on_c, 10, 45, 127
1, 302940, Note_off_c, 10, 45, 127
1, 302940, Note_off_c, 5, 65, 127
1, 302940, Note_off_c, 2, 62, 127
1, 302940, Note_off_c, 10, 69, 127
1, 302942, Note_on_c, 12, 47, 127
1, 302942, Note_on_c, 8, 68, 127
1, 302942, Note_on_c, 2, 62, 127
1, 302942, Note_on_c, 12, 59, 127
1, 303092, Note_off_c, 12, 47, 127
1, 303094, Note_on_c, 0, 48, 127
1, 303244, Note_off_c, 0, 48, 127
1, 303244, Note_off_c, 12, 59, 127
1, 303244, Note_off_c, 2, 62, 127
1, 303246, Note_on_c, 2, 50, 127
1, 303246, Note_on_c, 4, 64, 127
1, 303246, Note_on_c, 12, 59, 127
1, 303396, Note_off_c, 2, 50, 127
1, 303398, Note_on_c, 4, 52, 127
1, 303543, Note_off_c, 8, 68, 127
1, 303548, Note_off_c, 4, 52, 127
1, 303548, Note_off_c, 12, 59, 127
1, 303548, Note_off_c, 4, 64, 127
1, 303550, Note_on_c, 10, 45, 127
1, 303550, Note_on_c, 10, 69, 127
1, 303550, Note_on_c, 4, 64, 127
1, 303550, Note_on_c, 0, 60, 127
1, 303700, Note_off_c, 0, 60, 127
1, 303700, Note_off_c, 4, 64, 127
1, 303718, Note_on_c, 10, 81, 127
1, 303750, Note_off_c, 10, 69, 127
1, 303868, Note_off_c, 10, 81, 127
1, 303870, Note_on_c, 7, 79, 127
1, 304020, Note_off_c, 7, 79, 127
1, 304022, Note_on_c, 5, 77, 127
1, 304151, Note_off_c, 10, 45, 127
1, 304172, Note_off_c, 5, 77, 127
1, 304174, Note_on_c, 4, 76, 127
1, 304324, Note_off_c, 4, 76, 127
1, 304326, Note_on_c, 2, 74, 127
1, 304476, Note_off_c, 2, 74, 127
1, 304478, Note_on_c, 1, 73, 127
1, 304630, Note_on_c, 10, 81, 127
1, 304630, Note_on_c, 10, 57, 127
1, 304660, Note_off_c, 1, 73, 127
1, 304780, Note_off_c, 10, 57, 127
1, 304782, Note_on_c, 10, 69, 127
1, 304782, Note_on_c, 7, 55, 127
1, 304812, Note_off_c, 10, 81, 127
1, 304932, Note_off_c, 7, 55, 127
1, 304934, Note_on_c, 10, 81, 127
1, 304934, Note_on_c, 5, 53, 127
1, 304964, Note_off_c, 10, 69, 127
1, 305084, Note_off_c, 5, 53, 127
1, 305086, Note_on_c, 1, 73, 127
1, 305086, Note_on_c, 4, 52, 127
1, 305116, Note_off_c, 10, 81, 127
1, 305236, Note_off_c, 4, 52, 127
1, 305238, Note_on_c, 10, 81, 127
1, 305238, Note_on_c, 2, 50, 127
1, 305268, Note_off_c, 1, 73, 127
1, 305388, Note_off_c, 2, 50, 127
1, 305390, Note_on_c, 4, 76, 127
1, 305390, Note_on_c, 1, 49, 127
1, 305420, Note_off_c, 10, 81, 127
1, 305540, Note_off_c, 1, 49, 127
1, 305542, Note_on_c, 10, 81, 127
1, 305542, Note_on_c, 12, 47, 127
1, 305572, Note_off_c, 4, 76, 127
1, 305692, Note_off_c, 12, 47, 127
1, 305694, Note_on_c, 1, 73, 127
1, 305694, Note_on_c, 10, 45, 127
1, 305724, Note_off_c, 10, 81, 127
1, 305844, Note_off_c, 10, 45, 127
1, 305846, Note_on_c, 10, 81, 127
1, 305846, Note_on_c, 12, 47, 127
1, 305876, Note_off_c, 1, 73, 127
1, 305996, Note_off_c, 12, 47, 127
1, 305998, Note_on_c, 4, 76, 127
1, 305998, Note_on_c, 1, 49, 127
1, 306028, Note_off_c, 10, 81, 127
1, 306148, Note_off_c, 1, 49, 127
1, 306150, Note_on_c, 10, 81, 127
1, 306150, Note_on_c, 2, 50, 127
1, 306180, Note_off_c, 4, 76, 127
1, 306300, Note_off_c, 2, 50, 127
1, 306302, Note_on_c, 7, 79, 127
1, 306302, Note_on_c, 4, 52, 127
1, 306332, Note_off_c, 10, 81, 127
1, 306452, Note_off_c, 4, 52, 127
1, 306454, Note_on_c, 10, 81, 127
1, 306454, Note_on_c, 2, 50, 127
1, 306476, Note_off_c, 7, 79, 127
1, 306604, Note_off_c, 2, 50, 127
1, 306606, Note_on_c, 4, 76, 127
1, 306606, Note_on_c, 1, 49, 127
1, 306628, Note_off_c, 10, 81, 127
1, 306756, Note_off_c, 1, 49, 127
1, 306758, Note_on_c, 10, 81, 127
1, 306758, Note_on_c, 2, 50, 127
1, 306780, Note_off_c, 4, 76, 127
1, 306908, Note_off_c, 2, 50, 127
1, 306910, Note_on_c, 7, 79, 127
1, 306910, Note_on_c, 4, 52, 127
1, 306932, Note_off_c, 10, 81, 127
1, 307060, Note_off_c, 4, 52, 127
1, 307062, Note_on_c, 10, 81, 127
1, 307062, Note_on_c, 1, 49, 127
1, 307084, Note_off_c, 7, 79, 127
1, 307212, Note_off_c, 1, 49, 127
1, 307214, Note_on_c, 6, 78, 127
1, 307214, Note_on_c, 2, 50, 127
1, 307236, Note_off_c, 10, 81, 127
1, 307364, Note_off_c, 6, 78, 127
1, 307366, Note_on_c, 2, 74, 127
1, 307516, Note_off_c, 2, 74, 127
1, 307518, Note_on_c, 0, 72, 127
1, 307668, Note_off_c, 0, 72, 127
1, 307670, Note_on_c, 12, 71, 127
1, 307815, Note_off_c, 2, 50, 127
1, 307820, Note_off_c, 12, 71, 127
1, 307822, Note_on_c, 10, 69, 127
1, 307972, Note_off_c, 10, 69, 127
1, 307974, Note_on_c, 7, 67, 127
1, 308124, Note_off_c, 7, 67, 127
1, 308126, Note_on_c, 6, 66, 127
1, 308278, Note_on_c, 2, 74, 127
1, 308278, Note_on_c, 2, 50, 127
1, 308324, Note_off_c, 6, 66, 127
1, 308428, Note_off_c, 2, 50, 127
1, 308430, Note_on_c, 2, 62, 127
1, 308430, Note_on_c, 0, 48, 127
1, 308476, Note_off_c, 2, 74, 127
1, 308580, Note_off_c, 0, 48, 127
1, 308582, Note_on_c, 2, 74, 127
1, 308582, Note_on_c, 12, 47, 127
1, 308628, Note_off_c, 2, 62, 127
1, 308732, Note_off_c, 12, 47, 127
1, 308734, Note_on_c, 6, 66, 127
1, 308734, Note_on_c, 10, 45, 127
1, 308780, Note_off_c, 2, 74, 127
1, 308884, Note_off_c, 10, 45, 127
1, 308886, Note_on_c, 2, 74, 127
1, 308886, Note_on_c, 7, 43, 127
1, 308932, Note_off_c, 6, 66, 127
1, 309036, Note_off_c, 7, 43, 127
1, 309038, Note_on_c, 10, 69, 127
1, 309038, Note_on_c, 6, 42, 127
1, 309084, Note_off_c, 2, 74, 127
1, 309188, Note_off_c, 6, 42, 127
1, 309190, Note_on_c, 2, 74, 127
1, 309190, Note_on_c, 4, 40, 127
1, 309236, Note_off_c, 10, 69, 127
1, 309340, Note_off_c, 4, 40, 127
1, 309342, Note_on_c, 6, 66, 127
1, 309342, Note_on_c, 2, 38, 127
1, 309388, Note_off_c, 2, 74, 127
1, 309492, Note_off_c, 2, 38, 127
1, 309494, Note_on_c, 2, 74, 127
1, 309494, Note_on_c, 4, 40, 127
1, 309540, Note_off_c, 6, 66, 127
1, 309644, Note_off_c, 4, 40, 127
1, 309646, Note_on_c, 10, 69, 127
1, 309646, Note_on_c, 6, 42, 127
1, 309692, Note_off_c, 2, 74, 127
1, 309796, Note_off_c, 6, 42, 127
1, 309798, Note_on_c, 2, 74, 127
1, 309798, Note_on_c, 7, 43, 127
1, 309844, Note_off_c, 10, 69, 127
1, 309948, Note_off_c, 7, 43, 127
1, 309950, Note_on_c, 0, 72, 127
1, 309950, Note_on_c, 10, 45, 127
1, 309996, Note_off_c, 2, 74, 127
1, 310100, Note_off_c, 10, 45, 127
1, 310102, Note_on_c, 2, 74, 127
1, 310102, Note_on_c, 7, 43, 127
1, 310124, Note_off_c, 0, 72, 127
1, 310252, Note_off_c, 7, 43, 127
1, 310254, Note_on_c, 10, 69, 127
1, 310254, Note_on_c, 6, 42, 127
1, 310276, Note_off_c, 2, 74, 127
1, 310404, Note_off_c, 6, 42, 127
1, 310406, Note_on_c, 2, 74, 127
1, 310406, Note_on_c, 7, 43, 127
1, 310428, Note_off_c, 10, 69, 127
1, 310556, Note_off_c, 7, 43, 127
1, 310558, Note_on_c, 0, 72, 127
1, 310558, Note_on_c, 10, 45, 127
1, 310580, Note_off_c, 2, 74, 127
1, 310708, Note_off_c, 10, 45, 127
1, 310710, Note_on_c, 2, 74, 127
1, 310710, Note_on_c, 6, 42, 127
1, 310732, Note_off_c, 0, 72, 127
1, 310860, Note_off_c, 6, 42, 127
1, 310862, Note_on_c, 12, 71, 127
1, 310862, Note_on_c, 7, 43, 127
1, 310884, Note_off_c, 2, 74, 127
1, 311012, Note_off_c, 12, 71, 127
1, 311014, Note_on_c, 7, 79, 127
1, 311164, Note_off_c, 7, 79, 127
1, 311166, Note_on_c, 5, 77, 127
1, 311316, Note_off_c, 5, 77, 127
1, 311318, Note_on_c, 4, 76, 127
1, 311463, Note_off_c, 7, 43, 127
1, 311468, Note_off_c, 4, 76, 127
1, 311470, Note_on_c, 2, 74, 127
1, 311620, Note_off_c, 2, 74, 127
1, 311622, Note_on_c, 0, 72, 127
1, 311772, Note_off_c, 0, 72, 127
1, 311774, Note_on_c, 12, 71, 127
1, 311926, Note_on_c, 7, 79, 127
1, 311926, Note_on_c, 7, 55, 127
1, 311980, Note_off_c, 12, 71, 127
1, 312076, Note_off_c, 7, 55, 127
1, 312078, Note_on_c, 7, 67, 127
1, 312078, Note_on_c, 5, 53, 127
1, 312132, Note_off_c, 7, 79, 127
1, 312228, Note_off_c, 5, 53, 127
1, 312230, Note_on_c, 7, 79, 127
1, 312230, Note_on_c, 4, 52, 127
1, 312284, Note_off_c, 7, 67, 127
1, 312380, Note_off_c, 4, 52, 127
1, 312382, Note_on_c, 12, 71, 127
1, 312382, Note_on_c, 2, 50, 127
1, 312436, Note_off_c, 7, 79, 127
1, 312532, Note_off_c, 2, 50, 127
1, 312534, Note_on_c, 7, 79, 127
1, 312534, Note_on_c, 0, 48, 127
1, 312588, Note_off_c, 12, 71, 127
1, 312684, Note_off_c, 0, 48, 127
1, 312686, Note_on_c, 2, 74, 127
1, 312686, Note_on_c, 12, 47, 127
1, 312740, Note_off_c, 7, 79, 127
1, 312836, Note_off_c, 12, 47, 127
1, 312838, Note_on_c, 7, 79, 127
1, 312838, Note_on_c, 10, 45, 127
1, 312892, Note_off_c, 2, 74, 127
1, 312988, Note_off_c, 10, 45, 127
1, 312990, Note_on_c, 12, 71, 127
1, 312990, Note_on_c, 7, 43, 127
1, 313044, Note_off_c, 7, 79, 127
1, 313140, Note_off_c, 7, 43, 127
1, 313142, Note_on_c, 7, 79, 127
1, 313142, Note_on_c, 10, 45, 127
1, 313196, Note_off_c, 12, 71, 127
1, 313292, Note_off_c, 10, 45, 127
1, 313294, Note_on_c, 2, 74, 127
1, 313294, Note_on_c, 12, 47, 127
1, 313348, Note_off_c, 7, 79, 127
1, 313444, Note_off_c, 12, 47, 127
1, 313446, Note_on_c, 7, 79, 127
1, 313446, Note_on_c, 0, 48, 127
1, 313500, Note_off_c, 2, 74, 127
1, 313596, Note_off_c, 0, 48, 127
1, 313598, Note_on_c, 5, 77, 127
1, 313598, Note_on_c, 2, 50, 127
1, 313652, Note_off_c, 7, 79, 127
1, 313748, Note_off_c, 2, 50, 127
1, 313750, Note_on_c, 7, 79, 127
1, 313750, Note_on_c, 0, 48, 127
1, 313764, Note_off_c, 5, 77, 127
1, 313900, Note_off_c, 0, 48, 127
1, 313902, Note_on_c, 2, 74, 127
1, 313902, Note_on_c, 12, 47, 127
1, 313916, Note_off_c, 7, 79, 127
1, 314052, Note_off_c, 12, 47, 127
1, 314054, Note_on_c, 7, 79, 127
1, 314054, Note_on_c, 0, 48, 127
1, 314068, Note_off_c, 2, 74, 127
1, 314204, Note_off_c, 0, 48, 127
1, 314206, Note_on_c, 5, 77, 127
1, 314206, Note_on_c, 2, 50, 127
1, 314220, Note_off_c, 7, 79, 127
1, 314356, Note_off_c, 2, 50, 127
1, 314358, Note_on_c, 7, 79, 127
1, 314358, Note_on_c, 12, 47, 127
1, 314372, Note_off_c, 5, 77, 127
1, 314508, Note_off_c, 12, 47, 127
1, 314510, Note_on_c, 4, 76, 127
1, 314510, Note_on_c, 0, 48, 127
1, 314524, Note_off_c, 7, 79, 127
1, 314660, Note_off_c, 4, 76, 127
1, 314662, Note_on_c, 0, 72, 127
1, 314812, Note_off_c, 0, 72, 127
1, 314814, Note_on_c, 11, 70, 127
1, 314964, Note_off_c, 11, 70, 127
1, 314966, Note_on_c, 10, 69, 127
1, 315111, Note_off_c, 0, 48, 127
1, 315116, Note_off_c, 10, 69, 127
1, 315118, Note_on_c, 7, 67, 127
1, 315268, Note_off_c, 7, 67, 127
1, 315270, Note_on_c, 5, 65, 127
1, 315420, Note_off_c, 5, 65, 127
1, 315422, Note_on_c, 4, 64, 127
1, 315574, Note_on_c, 0, 72, 127
1, 315574, Note_on_c, 0, 48, 127
1, 315643, Note_off_c, 4, 64, 127
1, 315724, Note_off_c, 0, 48, 127
1, 315726, Note_on_c, 0, 60, 127
1, 315726, Note_on_c, 11, 46, 127
1, 315795, Note_off_c, 0, 72, 127
1, 315876, Note_off_c, 11, 46, 127
1, 315878, Note_on_c, 0, 72, 127
1, 315878, Note_on_c, 10, 45, 127
1, 315947, Note_off_c, 0, 60, 127
1, 316028, Note_off_c, 10, 45, 127
1, 316030, Note_on_c, 4, 64, 127
1, 316030, Note_on_c, 7, 43, 127
1, 316099, Note_off_c, 0, 72, 127
1, 316180, Note_off_c, 7, 43, 127
1, 316182, Note_on_c, 0, 72, 127
1, 316182, Note_on_c, 5, 41, 127
1, 316251, Note_off_c, 4, 64, 127
1, 316332, Note_off_c, 5, 41, 127
1, 316334, Note_on_c, 7, 67, 127
1, 316334, Note_on_c, 4, 40, 127
1, 316403, Note_off_c, 0, 72, 127
1, 316484, Note_off_c, 4, 40, 127
1, 316486, Note_on_c, 0, 72, 127
1, 316486, Note_on_c, 2, 38, 127
1, 316555, Note_off_c, 7, 67, 127
1, 316636, Note_off_c, 2, 38, 127
1, 316638, Note_on_c, 4, 64, 127
1, 316638, Note_on_c, 0, 36, 127
1, 316707, Note_off_c, 0, 72, 127
1, 316788, Note_off_c, 0, 36, 127
1, 316790, Note_on_c, 0, 72, 127
1, 316790, Note_on_c, 2, 38, 127
1, 316859, Note_off_c, 4, 64, 127
1, 316940, Note_off_c, 2, 38, 127
1, 316942, Note_on_c, 7, 67, 127
1, 316942, Note_on_c, 4, 40, 127
1, 317011, Note_off_c, 0, 72, 127
1, 317092, Note_off_c, 4, 40, 127
1, 317094, Note_on_c, 0, 72, 127
1, 317094, Note_on_c, 5, 41, 127
1, 317163, Note_off_c, 7, 67, 127
1, 317244, Note_off_c, 5, 41, 127
1, 317246, Note_on_c, 11, 70, 127
1, 317246, Note_on_c, 7, 43, 127
1, 317260, Note_off_c, 0, 72, 127
1, 317396, Note_off_c, 7, 43, 127
1, 317398, Note_on_c, 0, 72, 127
1, 317398, Note_on_c, 5, 41, 127
1, 317412, Note_off_c, 11, 70, 127
1, 317548, Note_off_c, 5, 41, 127
1, 317550, Note_on_c, 7, 67, 127
1, 317550, Note_on_c, 4, 40, 127
1, 317564, Note_off_c, 0, 72, 127
1, 317700, Note_off_c, 4, 40, 127
1, 317702, Note_on_c, 0, 72, 127
1, 317702, Note_on_c, 5, 41, 127
1, 317716, Note_off_c, 7, 67, 127
1, 317852, Note_off_c, 5, 41, 127
1, 317854, Note_on_c, 11, 70, 127
1, 317854, Note_on_c, 7, 43, 127
1, 317868, Note_off_c, 0, 72, 127
1, 318004, Note_off_c, 7, 43, 127
1, 318006, Note_on_c, 0, 72, 127
1, 318006, Note_on_c, 4, 40, 127
1, 318020, Note_off_c, 11, 70, 127
1, 318156, Note_off_c, 4, 40, 127
1, 318158, Note_on_c, 10, 69, 127
1, 318158, Note_on_c, 5, 41, 127
1, 318172, Note_off_c, 0, 72, 127
1, 318232, Note_off_c, 10, 69, 127
1, 318234, Note_on_c, 0, 72, 127
1, 318308, Note_off_c, 0, 72, 127
1, 318310, Note_on_c, 2, 74, 127
1, 318384, Note_off_c, 2, 74, 127
1, 318386, Note_on_c, 4, 76, 127
1, 318460, Note_off_c, 4, 76, 127
1, 318460, Note_off_c, 5, 41, 127
1, 318462, Note_on_c, 5, 77, 127
1, 318462, Note_on_c, 10, 45, 127
1, 318612, Note_off_c, 5, 77, 127
1, 318614, Note_on_c, 3, 75, 127
1, 318764, Note_off_c, 3, 75, 127
1, 318764, Note_off_c, 10, 45, 127
1, 318766, Note_on_c, 3, 75, 127
1, 318766, Note_on_c, 5, 41, 127
1, 318916, Note_off_c, 3, 75, 127
1, 318918, Note_on_c, 2, 74, 127
1, 319068, Note_off_c, 2, 74, 127
1, 319068, Note_off_c, 5, 41, 127
1, 319070, Note_on_c, 2, 74, 127
1, 319070, Note_on_c, 11, 46, 127
1, 319220, Note_off_c, 2, 74, 127
1, 319222, Note_on_c, 7, 79, 127
1, 319372, Note_off_c, 7, 79, 127
1, 319372, Note_off_c, 11, 46, 127
1, 319374, Note_on_c, 7, 79, 127
1, 319374, Note_on_c, 2, 50, 127
1, 319524, Note_off_c, 7, 79, 127
1, 319526, Note_on_c, 5, 77, 127
1, 319676, Note_off_c, 5, 77, 127
1, 319676, Note_off_c, 2, 50, 127
1, 319678, Note_on_c, 5, 77, 127
1, 319678, Note_on_c, 7, 55, 127
1, 319678, Note_on_c, 12, 47, 127
1, 319828, Note_off_c, 5, 77, 127
1, 319830, Note_on_c, 4, 76, 127
1, 319980, Note_off_c, 4, 76, 127
1, 319980, Note_off_c, 12, 47, 127
1, 319982, Note_on_c, 4, 76, 127
1, 319982, Note_on_c, 0, 48, 127
1, 320132, Note_off_c, 4, 76, 127
1, 320134, Note_on_c, 10, 81, 127
1, 320279, Note_off_c, 7, 55, 127
1, 320284, Note_off_c, 10, 81, 127
1, 320286, Note_on_c, 10, 81, 127
1, 320286, Note_on_c, 4, 52, 127
1, 320436, Note_off_c, 10, 81, 127
1, 320438, Note_on_c, 7, 79, 127
1, 320583, Note_off_c, 0, 48, 127
1, 320588, Note_off_c, 7, 79, 127
1, 320588, Note_off_c, 4, 52, 127
1, 320590, Note_on_c, 7, 79, 127
1, 320590, Note_on_c, 10, 57, 127
1, 320590, Note_on_c, 1, 49, 127
1, 320740, Note_off_c, 7, 79, 127
1, 320742, Note_on_c, 5, 77, 127
1, 320892, Note_off_c, 5, 77, 127
1, 320892, Note_off_c, 1, 49, 127
1, 320894, Note_on_c, 5, 77, 127
1, 320894, Note_on_c, 2, 50, 127
1, 321044, Note_off_c, 5, 77, 127
1, 321046, Note_on_c, 11, 82, 127
1, 321191, Note_off_c, 10, 57, 127
1, 321196, Note_off_c, 11, 82, 127
1, 321198, Note_on_c, 11, 82, 127
1, 321198, Note_on_c, 2, 62, 127
1, 321348, Note_off_c, 11, 82, 127
1, 321350, Note_on_c, 10, 81, 127
1, 321495, Note_off_c, 2, 50, 127
1, 321500, Note_off_c, 10, 81, 127
1, 321500, Note_off_c, 2, 62, 127
1, 321502, Note_on_c, 10, 81, 127
1, 321502, Note_on_c, 2, 50, 127
1, 321502, Note_on_c, 0, 60, 127
1, 321652, Note_off_c, 10, 81, 127
1, 321654, Note_on_c, 8, 80, 127
1, 321804, Note_off_c, 8, 80, 127
1, 321804, Note_off_c, 0, 60, 127
1, 321804, Note_off_c, 2, 50, 127
1, 321806, Note_on_c, 8, 80, 127
1, 321806, Note_on_c, 4, 52, 127
1, 321806, Note_on_c, 12, 59, 127
1, 321956, Note_off_c, 8, 80, 127
1, 321958, Note_on_c, 10, 81, 127
1, 322108, Note_off_c, 10, 81, 127
1, 322108, Note_off_c, 12, 59, 127
1, 322110, Note_on_c, 12, 83, 127
1, 322110, Note_on_c, 8, 56, 127
1, 322260, Note_off_c, 12, 83, 127
1, 322262, Note_on_c, 10, 81, 127
1, 322407, Note_off_c, 4, 52, 127
1, 322412, Note_off_c, 10, 81, 127
1, 322414, Note_on_c, 12, 83, 127
1, 322414, Note_on_c, 2, 50, 127
1, 322564, Note_off_c, 12, 83, 127
1, 322566, Note_on_c, 8, 80, 127
1, 322711, Note_off_c, 8, 56, 127
1, 322716, Note_off_c, 8, 80, 127
1, 322716, Note_off_c, 2, 50, 127
1, 322718, Note_on_c, 10, 81, 127
1, 322718, Note_on_c, 0, 48, 127
1, 322718, Note_on_c, 4, 52, 127
1, 322868, Note_off_c, 10, 81, 127
1, 322870, Note_on_c, 12, 83, 127
1, 323020, Note_off_c, 12, 83, 127
1, 323020, Note_off_c, 0, 48, 127
1, 323022, Note_on_c, 0, 84, 127
1, 323022, Note_on_c, 10, 45, 127
1, 323172, Note_off_c, 0, 84, 127
1, 323174, Note_on_c, 12, 83, 127
1, 323324, Note_off_c, 12, 83, 127
1, 323324, Note_off_c, 10, 45, 127
1, 323326, Note_on_c, 0, 84, 127
1, 323326, Note_on_c, 0, 48, 127
1, 323476, Note_off_c, 0, 84, 127
1, 323478, Note_on_c, 10, 81, 127
1, 323628, Note_off_c, 10, 81, 127
1, 323628, Note_off_c, 0, 48, 127
1, 323628, Note_off_c, 4, 52, 127
1, 323630, Note_on_c, 11, 82, 127
1, 323630, Note_on_c, 2, 50, 127
1, 323630, Note_on_c, 5, 53, 127
1, 323780, Note_off_c, 11, 82, 127
1, 323782, Note_on_c, 10, 81, 127
1, 323932, Note_off_c, 10, 81, 127
1, 323932, Note_off_c, 5, 53, 127
1, 323934, Note_on_c, 11, 82, 127
1, 323934, Note_on_c, 2, 62, 127
1, 324084, Note_off_c, 11, 82, 127
1, 324086, Note_on_c, 0, 84, 127
1, 324236, Note_off_c, 0, 84, 127
1, 324236, Note_off_c, 2, 62, 127
1, 324238, Note_on_c, 11, 82, 127
1, 324238, Note_on_c, 0, 60, 127
1, 324388, Note_off_c, 11, 82, 127
1, 324390, Note_on_c, 10, 81, 127
1, 324540, Note_off_c, 10, 81, 127
1, 324540, Note_off_c, 0, 60, 127
1, 324540, Note_off_c, 2, 50, 127
1, 324542, Note_on_c, 8, 80, 127
1, 324542, Note_on_c, 4, 52, 127
1, 324542, Note_on_c, 12, 59, 127
1, 324692, Note_off_c, 8, 80, 127
1, 324694, Note_on_c, 10, 81, 127
1, 324844, Note_off_c, 10, 81, 127
1, 324844, Note_off_c, 12, 59, 127
1, 324846, Note_on_c, 12, 83, 127
1, 324846, Note_on_c, 8, 56, 127
1, 324996, Note_off_c, 12, 83, 127
1, 324998, Note_on_c, 10, 81, 127
1, 325143, Note_off_c, 4, 52, 127
1, 325148, Note_off_c, 10, 81, 127
1, 325150, Note_on_c, 12, 83, 127
1, 325150, Note_on_c, 2, 50, 127
1, 325300, Note_off_c, 12, 83, 127
1, 325302, Note_on_c, 8, 80, 127
1, 325447, Note_off_c, 8, 56, 127
1, 325452, Note_off_c, 8, 80, 127
1, 325452, Note_off_c, 2, 50, 127
1, 325454, Note_on_c, 10, 81, 127
1, 325454, Note_on_c, 4, 52, 127
1, 325454, Note_on_c, 0, 48, 127
1, 325604, Note_off_c, 10, 81, 127
1, 325606, Note_on_c, 12, 83, 127
1, 325756, Note_off_c, 12, 83, 127
1, 325756, Note_off_c, 0, 48, 127
1, 325758, Note_on_c, 0, 84, 127
1, 325758, Note_on_c, 10, 45, 127
1, 325908, Note_off_c, 0, 84, 127
1, 325910, Note_on_c, 12, 83, 127
1, 326060, Note_off_c, 12, 83, 127
1, 326060, Note_off_c, 10, 45, 127
1, 326062, Note_on_c, 0, 84, 127
1, 326062, Note_on_c, 0, 48, 127
1, 326212, Note_off_c, 0, 84, 127
1, 326214, Note_on_c, 10, 81, 127
1, 326364, Note_off_c, 10, 81, 127
1, 326364, Note_off_c, 0, 48, 127
1, 326364, Note_off_c, 4, 52, 127
1, 326366, Note_on_c, 11, 82, 127
1, 326366, Note_on_c, 5, 53, 127
1, 326366, Note_on_c, 2, 50, 127
1, 326516, Note_off_c, 11, 82, 127
1, 326518, Note_on_c, 10, 81, 127
1, 326668, Note_off_c, 10, 81, 127
1, 326668, Note_off_c, 5, 53, 127
1, 326670, Note_on_c, 11, 82, 127
1, 326670, Note_on_c, 2, 62, 127
1, 326820, Note_off_c, 11, 82, 127
1, 326822, Note_on_c, 0, 84, 127
1, 326972, Note_off_c, 0, 84, 127
1, 326972, Note_off_c, 2, 62, 127
1, 326974, Note_on_c, 11, 82, 127
1, 326974, Note_on_c, 0, 60, 127
1, 327124, Note_off_c, 11, 82, 127
1, 327126, Note_on_c, 10, 81, 127
1, 327276, Note_off_c, 10, 81, 127
1, 327276, Note_off_c, 0, 60, 127
1, 327276, Note_off_c, 2, 50, 127
1, 327278, Note_on_c, 8, 80, 127
1, 327278, Note_on_c, 4, 52, 127
1, 327278, Note_on_c, 12, 59, 127
1, 327428, Note_off_c, 12, 59, 127
1, 327428, Note_off_c, 8, 80, 127
1, 327430, Note_on_c, 6, 78, 127
1, 327430, Note_on_c, 10, 57, 127
1, 327580, Note_off_c, 10, 57, 127
1, 327580, Note_off_c, 6, 78, 127
1, 327582, Note_on_c, 4, 76, 127
1, 327582, Note_on_c, 8, 56, 127
1, 327721, Note_off_c, 4, 52, 127
1, 327732, Note_off_c, 8, 56, 127
1, 327739, Note_on_c, 2, 50, 127
1, 327739, Note_on_c, 6, 54, 127
1, 327884, Note_off_c, 4, 76, 127
1, 327889, Note_off_c, 6, 54, 127
1, 327889, Note_off_c, 2, 50, 127
1, 327894, Note_on_c, 0, 48, 127
1, 327894, Note_on_c, 4, 52, 127
1, 327894, Note_on_c, 10, 81, 127
1, 328196, Note_off_c, 10, 81, 127
1, 328196, Note_off_c, 4, 52, 127
1, 328196, Note_off_c, 0, 48, 127
1, 328198, Note_on_c, 10, 57, 127
1, 328198, Note_on_c, 2, 50, 127
1, 328198, Note_on_c, 5, 77, 127
1, 328348, Note_off_c, 5, 77, 127
1, 328350, Note_on_c, 4, 76, 127
1, 328500, Note_off_c, 4, 76, 127
1, 328500, Note_off_c, 2, 50, 127
1, 328500, Note_off_c, 10, 57, 127
1, 328502, Note_on_c, 8, 56, 127
1, 328502, Note_on_c, 12, 59, 127
1, 328502, Note_on_c, 2, 74, 127
1, 328652, Note_off_c, 2, 74, 127
1, 328654, Note_on_c, 5, 77, 127
1, 328804, Note_off_c, 5, 77, 127
1, 328806, Note_on_c, 4, 76, 127
1, 328956, Note_off_c, 4, 76, 127
1, 328958, Note_on_c, 2, 74, 127
1, 329108, Note_off_c, 2, 74, 127
1, 329108, Note_off_c, 12, 59, 127
1, 329108, Note_off_c, 8, 56, 127
1, 329110, Note_on_c, 10, 57, 127
1, 329110, Note_on_c, 0, 72, 127
1, 329260, Note_off_c, 0, 72, 127
1, 329262, Note_on_c, 12, 71, 127
1, 329412, Note_off_c, 12, 71, 127
1, 329414, Note_on_c, 10, 45, 127
1, 329414, Note_on_c, 10, 69, 127
1, 329564, Note_off_c, 10, 45, 127
1, 329566, Note_on_c, 12, 47, 127
1, 329716, Note_off_c, 12, 47, 127
1, 329716, Note_off_c, 10, 69, 127
1, 329718, Note_on_c, 0, 48, 127
1, 329718, Note_on_c, 10, 81, 127
1, 329868, Note_off_c, 0, 48, 127
1, 329870, Note_on_c, 10, 45, 127
1, 330020, Note_off_c, 10, 45, 127
1, 330020, Note_off_c, 10, 81, 127
1, 330020, Note_off_c, 10, 57, 127
1, 330022, Note_on_c, 2, 50, 127
1, 330022, Note_on_c, 5, 77, 127
1, 330172, Note_off_c, 5, 77, 127
1, 330174, Note_on_c, 4, 76, 127
1, 330324, Note_off_c, 4, 76, 127
1, 330324, Note_off_c, 2, 50, 127
1, 330326, Note_on_c, 12, 59, 127
1, 330326, Note_on_c, 8, 56, 127
1, 330326, Note_on_c, 2, 74, 127
1, 330476, Note_off_c, 2, 74, 127
1, 330478, Note_on_c, 5, 77, 127
1, 330628, Note_off_c, 5, 77, 127
1, 330630, Note_on_c, 4, 76, 127
1, 330780, Note_off_c, 4, 76, 127
1, 330782, Note_on_c, 2, 74, 127
1, 330932, Note_off_c, 2, 74, 127
1, 330932, Note_off_c, 8, 56, 127
1, 330932, Note_off_c, 12, 59, 127
1, 330934, Note_on_c, 10, 57, 127
1, 330934, Note_on_c, 0, 72, 127
1, 331084, Note_off_c, 0, 72, 127
1, 331086, Note_on_c, 12, 71, 127
1, 331236, Note_off_c, 12, 71, 127
1, 331238, Note_on_c, 10, 45, 127
1, 331238, Note_on_c, 10, 69, 127
1, 331388, Note_off_c, 10, 45, 127
1, 331390, Note_on_c, 12, 47, 127
1, 331535, Note_off_c, 10, 57, 127
1, 331540, Note_off_c, 12, 47, 127
1, 331540, Note_off_c, 10, 69, 127
1, 331542, Note_on_c, 0, 48, 127
1, 331542, Note_on_c, 10, 81, 127
1, 331692, Note_off_c, 0, 48, 127
1, 331694, Note_on_c, 10, 45, 127
1, 331844, Note_off_c, 10, 45, 127
1, 331844, Note_off_c, 10, 81, 127
1, 331846, Note_on_c, 2, 50, 127
1, 331846, Note_on_c, 0, 72, 127
1, 332148, Note_off_c, 2, 50, 127
1, 332150, Note_on_c, 4, 52, 127
1, 332210, Note_off_c, 0, 72, 127
1, 332213, Note_on_c, 12, 71, 127
1, 332273, Note_on_c, 0, 72, 127
1, 332276, Note_off_c, 12, 71, 127
1, 332333, Note_on_c, 12, 71, 127
1, 332336, Note_off_c, 0, 72, 127
1, 332393, Note_on_c, 0, 72, 127
1, 332396, Note_off_c, 12, 71, 127
1, 332453, Note_on_c, 8, 56, 127
1, 332453, Note_on_c, 12, 71, 127
1, 332456, Note_off_c, 0, 72, 127
1, 332755, Note_off_c, 12, 71, 127
1, 332755, Note_off_c, 8, 56, 127
1, 332765, Note_on_c, 10, 45, 127
1, 332765, Note_on_c, 10, 69, 127
1, 332767, Note_off_c, 4, 52, 127
1, 332915, Note_off_c, 10, 45, 127
1, 332917, Note_on_c, 12, 47, 127
1, 333067, Note_off_c, 12, 47, 127
1, 333067, Note_off_c, 10, 69, 127
1, 333069, Note_on_c, 0, 48, 127
1, 333069, Note_on_c, 4, 64, 127
1, 333219, Note_off_c, 0, 48, 127
1, 333221, Note_on_c, 12, 47, 127
1, 333371, Note_off_c, 12, 47, 127
1, 333371, Note_off_c, 4, 64, 127
1, 333373, Note_on_c, 0, 48, 127
1, 333373, Note_on_c, 10, 69, 127
1, 333523, Note_off_c, 0, 48, 127
1, 333525, Note_on_c, 10, 45, 127
1, 333675, Note_off_c, 10, 45, 127
1, 333675, Note_off_c, 10, 69, 127
1, 333677, Note_on_c, 4, 52, 127
1, 333677, Note_on_c, 12, 71, 127
1, 333827, Note_off_c, 4, 52, 127
1, 333829, Note_on_c, 6, 54, 127
1, 333979, Note_off_c, 6, 54, 127
1, 333979, Note_off_c, 12, 71, 127
1, 333981, Note_on_c, 8, 56, 127
1, 333981, Note_on_c, 4, 64, 127
1, 334131, Note_off_c, 8, 56, 127
1, 334133, Note_on_c, 6, 54, 127
1, 334283, Note_off_c, 6, 54, 127
1, 334283, Note_off_c, 4, 64, 127
1, 334285, Note_on_c, 8, 56, 127
1, 334285, Note_on_c, 12, 71, 127
1, 334435, Note_off_c, 8, 56, 127
1, 334437, Note_on_c, 4, 52, 127
1, 334587, Note_off_c, 4, 52, 127
1, 334587, Note_off_c, 12, 71, 127
1, 334589, Note_on_c, 10, 57, 127
1, 334589, Note_on_c, 0, 72, 127
1, 334739, Note_off_c, 10, 57, 127
1, 334741, Note_on_c, 12, 59, 127
1, 334891, Note_off_c, 12, 59, 127
1, 334891, Note_off_c, 0, 72, 127
1, 334893, Note_on_c, 0, 60, 127
1, 334893, Note_on_c, 4, 64, 127
1, 335043, Note_off_c, 0, 60, 127
1, 335045, Note_on_c, 12, 59, 127
1, 335195, Note_off_c, 12, 59, 127
1, 335195, Note_off_c, 4, 64, 127
1, 335197, Note_on_c, 0, 60, 127
1, 335197, Note_on_c, 0, 72, 127
1, 335347, Note_off_c, 0, 60, 127
1, 335349, Note_on_c, 10, 57, 127
1, 335499, Note_off_c, 10, 57, 127
1, 335499, Note_off_c, 0, 72, 127
1, 335501, Note_on_c, 4, 64, 127
1, 335501, Note_on_c, 12, 71, 127
1, 335651, Note_off_c, 12, 71, 127
1, 335653, Note_on_c, 10, 69, 127
1, 335803, Note_off_c, 10, 69, 127
1, 335805, Note_on_c, 4, 52, 127
1, 335805, Note_on_c, 12, 71, 127
1, 336102, Note_off_c, 4, 64, 127
1, 336247, Note_off_c, 12, 71, 127
1, 336247, Note_off_c, 4, 52, 127
1, 336411, Note_on_c, 10, 45, 127
1, 336411, Note_on_c, 10, 69, 127
1, 336561, Note_off_c, 10, 45, 127
1, 336563, Note_on_c, 12, 47, 127
1, 336713, Note_off_c, 12, 47, 127
1, 336713, Note_off_c, 10, 69, 127
1, 336715, Note_on_c, 0, 48, 127
1, 336715, Note_on_c, 4, 64, 127
1, 336865, Note_off_c, 0, 48, 127
1, 336867, Note_on_c, 12, 47, 127
1, 337017, Note_off_c, 12, 47, 127
1, 337017, Note_off_c, 4, 64, 127
1, 337019, Note_on_c, 0, 48, 127
1, 337019, Note_on_c, 10, 69, 127
1, 337169, Note_off_c, 0, 48, 127
1, 337171, Note_on_c, 10, 45, 127
1, 337321, Note_off_c, 10, 45, 127
1, 337321, Note_off_c, 10, 69, 127
1, 337323, Note_on_c, 4, 52, 127
1, 337323, Note_on_c, 12, 71, 127
1, 337473, Note_off_c, 4, 52, 127
1, 337475, Note_on_c, 6, 54, 127
1, 337625, Note_off_c, 6, 54, 127
1, 337625, Note_off_c, 12, 71, 127
1, 337627, Note_on_c, 8, 56, 127
1, 337627, Note_on_c, 4, 64, 127
1, 337777, Note_off_c, 8, 56, 127
1, 337779, Note_on_c, 6, 54, 127
1, 337929, Note_off_c, 6, 54, 127
1, 337929, Note_off_c, 4, 64, 127
1, 337931, Note_on_c, 8, 56, 127
1, 337931, Note_on_c, 12, 71, 127
1, 338081, Note_off_c, 8, 56, 127
1, 338083, Note_on_c, 4, 52, 127
1, 338233, Note_off_c, 4, 52, 127
1, 338233, Note_off_c, 12, 71, 127
1, 338235, Note_on_c, 10, 57, 127
1, 338235, Note_on_c, 0, 72, 127
1, 338385, Note_off_c, 10, 57, 127
1, 338387, Note_on_c, 12, 59, 127
1, 338537, Note_off_c, 12, 59, 127
1, 338537, Note_off_c, 0, 72, 127
1, 338539, Note_on_c, 0, 60, 127
1, 338539, Note_on_c, 4, 64, 127
1, 338689, Note_off_c, 0, 60, 127
1, 338691, Note_on_c, 12, 59, 127
1, 338841, Note_off_c, 12, 59, 127
1, 338841, Note_off_c, 4, 64, 127
1, 338843, Note_on_c, 0, 60, 127
1, 338843, Note_on_c, 0, 72, 127
1, 338993, Note_off_c, 0, 60, 127
1, 338995, Note_on_c, 10, 57, 127
1, 339145, Note_off_c, 10, 57, 127
1, 339145, Note_off_c, 0, 72, 127
1, 339147, Note_on_c, 4, 64, 127
1, 339147, Note_on_c, 12, 71, 127
1, 339297, Note_off_c, 12, 71, 127
1, 339299, Note_on_c, 10, 69, 127
1, 339449, Note_off_c, 10, 69, 127
1, 339451, Note_on_c, 4, 52, 127
1, 339451, Note_on_c, 12, 71, 127
1, 339748, Note_off_c, 4, 64, 127
1, 339751, Note_off_c, 4, 52, 127
1, 339893, Note_off_c, 12, 71, 127
1, 340057, Note_on_c, 0, 48, 127
1, 340057, Note_on_c, 0, 72, 127
1, 340207, Note_off_c, 0, 48, 127
1, 340209, Note_on_c, 2, 50, 127
1, 340359, Note_off_c, 2, 50, 127
1, 340359, Note_off_c, 0, 72, 127
1, 340361, Note_on_c, 4, 52, 127
1, 340361, Note_on_c, 7, 67, 127
1, 340511, Note_off_c, 4, 52, 127
1, 340513, Note_on_c, 2, 50, 127
1, 340663, Note_off_c, 2, 50, 127
1, 340663, Note_off_c, 7, 67, 127
1, 340665, Note_on_c, 4, 52, 127
1, 340665, Note_on_c, 0, 72, 127
1, 340815, Note_off_c, 4, 52, 127
1, 340817, Note_on_c, 0, 48, 127
1, 340967, Note_off_c, 0, 48, 127
1, 340967, Note_off_c, 0, 72, 127
1, 340969, Note_on_c, 7, 55, 127
1, 340969, Note_on_c, 2, 74, 127
1, 341119, Note_off_c, 7, 55, 127
1, 341121, Note_on_c, 10, 57, 127
1, 341271, Note_off_c, 10, 57, 127
1, 341271, Note_off_c, 2, 74, 127
1, 341273, Note_on_c, 12, 59, 127
1, 341273, Note_on_c, 7, 67, 127
1, 341423, Note_off_c, 12, 59, 127
1, 341425, Note_on_c, 10, 57, 127
1, 341575, Note_off_c, 10, 57, 127
1, 341575, Note_off_c, 7, 67, 127
1, 341577, Note_on_c, 12, 59, 127
1, 341577, Note_on_c, 2, 74, 127
1, 341727, Note_off_c, 12, 59, 127
1, 341729, Note_on_c, 7, 55, 127
1, 341879, Note_off_c, 7, 55, 127
1, 341879, Note_off_c, 2, 74, 127
1, 341881, Note_on_c, 0, 60, 127
1, 341881, Note_on_c, 4, 76, 127
1, 342031, Note_off_c, 0, 60, 127
1, 342033, Note_on_c, 2, 62, 127
1, 342183, Note_off_c, 2, 62, 127
1, 342183, Note_off_c, 4, 76, 127
1, 342185, Note_on_c, 4, 64, 127
1, 342185, Note_on_c, 7, 67, 127
1, 342335, Note_off_c, 4, 64, 127
1, 342337, Note_on_c, 2, 62, 127
1, 342487, Note_off_c, 2, 62, 127
1, 342487, Note_off_c, 7, 67, 127
1, 342489, Note_on_c, 4, 64, 127
1, 342489, Note_on_c, 4, 76, 127
1, 342639, Note_off_c, 4, 64, 127
1, 342641, Note_on_c, 0, 60, 127
1, 342791, Note_off_c, 0, 60, 127
1, 342791, Note_off_c, 4, 76, 127
1, 342793, Note_on_c, 7, 67, 127
1, 342793, Note_on_c, 2, 74, 127
1, 342943, Note_off_c, 2, 74, 127
1, 342945, Note_on_c, 0, 72, 127
1, 343095, Note_off_c, 0, 72, 127
1, 343095, Note_off_c, 7, 67, 127
1, 343097, Note_on_c, 7, 55, 127
1, 343097, Note_on_c, 2, 74, 127
1, 343539, Note_off_c, 2, 74, 127
1, 343539, Note_off_c, 7, 55, 127
1, 343703, Note_on_c, 0, 36, 127
1, 343703, Note_on_c, 0, 72, 127
1, 343853, Note_off_c, 0, 36, 127
1, 343855, Note_on_c, 2, 38, 127
1, 344005, Note_off_c, 2, 38, 127
1, 344005, Note_off_c, 0, 72, 127
1, 344007, Note_on_c, 4, 40, 127
1, 344007, Note_on_c, 7, 67, 127
1, 344157, Note_off_c, 4, 40, 127
1, 344159, Note_on_c, 2, 38, 127
1, 344309, Note_off_c, 2, 38, 127
1, 344309, Note_off_c, 7, 67, 127
1, 344311, Note_on_c, 4, 40, 127
1, 344311, Note_on_c, 0, 72, 127
1, 344461, Note_off_c, 4, 40, 127
1, 344463, Note_on_c, 0, 36, 127
1, 344613, Note_off_c, 0, 36, 127
1, 344613, Note_off_c, 0, 72, 127
1, 344615, Note_on_c, 7, 43, 127
1, 344615, Note_on_c, 2, 74, 127
1, 344765, Note_off_c, 7, 43, 127
1, 344767, Note_on_c, 10, 45, 127
1, 344917, Note_off_c, 10, 45, 127
1, 344917, Note_off_c, 2, 74, 127
1, 344919, Note_on_c, 12, 47, 127
1, 344919, Note_on_c, 7, 67, 127
1, 345069, Note_off_c, 12, 47, 127
1, 345071, Note_on_c, 10, 45, 127
1, 345221, Note_off_c, 10, 45, 127
1, 345221, Note_off_c, 7, 67, 127
1, 345223, Note_on_c, 12, 47, 127
1, 345223, Note_on_c, 2, 74, 127
1, 345373, Note_off_c, 12, 47, 127
1, 345375, Note_on_c, 7, 43, 127
1, 345525, Note_off_c, 7, 43, 127
1, 345525, Note_off_c, 2, 74, 127
1, 345527, Note_on_c, 0, 48, 127
1, 345527, Note_on_c, 4, 76, 127
1, 345677, Note_off_c, 0, 48, 127
1, 345679, Note_on_c, 2, 50, 127
1, 345829, Note_off_c, 2, 50, 127
1, 345829, Note_off_c, 4, 76, 127
1, 345831, Note_on_c, 4, 52, 127
1, 345831, Note_on_c, 7, 67, 127
1, 345981, Note_off_c, 4, 52, 127
1, 345983, Note_on_c, 2, 50, 127
1, 346133, Note_off_c, 2, 50, 127
1, 346133, Note_off_c, 7, 67, 127
1, 346135, Note_on_c, 4, 52, 127
1, 346135, Note_on_c, 4, 76, 127
1, 346285, Note_off_c, 4, 52, 127
1, 346287, Note_on_c, 0, 48, 127
1, 346437, Note_off_c, 0, 48, 127
1, 346437, Note_off_c, 4, 76, 127
1, 346439, Note_on_c, 7, 55, 127
1, 346439, Note_on_c, 2, 74, 127
1, 346589, Note_off_c, 7, 55, 127
1, 346591, Note_on_c, 10, 57, 127
1, 346741, Note_off_c, 10, 57, 127
1, 346741, Note_off_c, 2, 74, 127
1, 346743, Note_on_c, 12, 59, 127
1, 346743, Note_on_c, 7, 67, 127
1, 346893, Note_off_c, 12, 59, 127
1, 346895, Note_on_c, 10, 57, 127
1, 347045, Note_off_c, 10, 57, 127
1, 347047, Note_on_c, 12, 59, 127
1, 347047, Note_on_c, 7, 79, 127
1, 347197, Note_off_c, 12, 59, 127
1, 347199, Note_on_c, 7, 55, 127
1, 347344, Note_off_c, 7, 67, 127
1, 347349, Note_off_c, 7, 55, 127
1, 347351, Note_on_c, 10, 57, 127
1, 347351, Note_on_c, 4, 76, 127
1, 347351, Note_on_c, 0, 72, 127
1, 347501, Note_off_c, 10, 57, 127
1, 347503, Note_on_c, 7, 55, 127
1, 347648, Note_off_c, 7, 79, 127
1, 347653, Note_off_c, 7, 55, 127
1, 347653, Note_off_c, 0, 72, 127
1, 347653, Note_off_c, 4, 76, 127
1, 347655, Note_on_c, 10, 57, 127
1, 347655, Note_on_c, 10, 69, 127
1, 347655, Note_on_c, 0, 72, 127
1, 347655, Note_on_c, 5, 77, 127
1, 347805, Note_off_c, 10, 57, 127
1, 347807, Note_on_c, 12, 59, 127
1, 347957, Note_off_c, 12, 59, 127
1, 347957, Note_off_c, 0, 72, 127
1, 347957, Note_off_c, 10, 69, 127
1, 347959, Note_on_c, 0, 60, 127
1, 347959, Note_on_c, 10, 69, 127
1, 347959, Note_on_c, 5, 65, 127
1, 348109, Note_off_c, 0, 60, 127
1, 348111, Note_on_c, 2, 62, 127
1, 348261, Note_off_c, 2, 62, 127
1, 348261, Note_off_c, 5, 65, 127
1, 348261, Note_off_c, 10, 69, 127
1, 348263, Note_on_c, 7, 55, 127
1, 348263, Note_on_c, 12, 71, 127
1, 348263, Note_on_c, 2, 74, 127
1, 348413, Note_off_c, 7, 55, 127
1, 348415, Note_on_c, 5, 53, 127
1, 348565, Note_off_c, 5, 53, 127
1, 348565, Note_off_c, 2, 74, 127
1, 348565, Note_off_c, 12, 71, 127
1, 348565, Note_off_c, 5, 77, 127
1, 348567, Note_on_c, 7, 55, 127
1, 348567, Note_on_c, 12, 71, 127
1, 348567, Note_on_c, 7, 67, 127
1, 348567, Note_on_c, 4, 76, 127
1, 348717, Note_off_c, 7, 55, 127
1, 348719, Note_on_c, 10, 57, 127
1, 348869, Note_off_c, 10, 57, 127
1, 348869, Note_off_c, 7, 67, 127
1, 348869, Note_off_c, 12, 71, 127
1, 348871, Note_on_c, 12, 59, 127
1, 348871, Note_on_c, 4, 64, 127
1, 348871, Note_on_c, 7, 67, 127
1, 349021, Note_off_c, 12, 59, 127
1, 349023, Note_on_c, 0, 60, 127
1, 349173, Note_off_c, 0, 60, 127
1, 349173, Note_off_c, 7, 67, 127
1, 349173, Note_off_c, 4, 64, 127
1, 349175, Note_on_c, 5, 53, 127
1, 349175, Note_on_c, 10, 69, 127
1, 349175, Note_on_c, 0, 72, 127
1, 349325, Note_off_c, 5, 53, 127
1, 349327, Note_on_c, 4, 52, 127
1, 349477, Note_off_c, 4, 52, 127
1, 349477, Note_off_c, 0, 72, 127
1, 349477, Note_off_c, 10, 69, 127
1, 349477, Note_off_c, 4, 76, 127
1, 349479, Note_on_c, 5, 53, 127
1, 349479, Note_on_c, 5, 65, 127
1, 349479, Note_on_c, 2, 74, 127
1, 349479, Note_on_c, 10, 69, 127
1, 349629, Note_off_c, 5, 53, 127
1, 349631, Note_on_c, 7, 55, 127
1, 349781, Note_off_c, 7, 55, 127
1, 349781, Note_off_c, 10, 69, 127
1, 349781, Note_off_c, 5, 65, 127
1, 349783, Note_on_c, 10, 57, 127
1, 349783, Note_on_c, 5, 65, 127
1, 349783, Note_on_c, 2, 62, 127
1, 349933, Note_off_c, 10, 57, 127
1, 349935, Note_on_c, 12, 59, 127
1, 350085, Note_off_c, 12, 59, 127
1, 350085, Note_off_c, 2, 62, 127
1, 350085, Note_off_c, 5, 65, 127
1, 350087, Note_on_c, 4, 52, 127
1, 350087, Note_on_c, 7, 67, 127
1, 350087, Note_on_c, 12, 71, 127
1, 350237, Note_off_c, 4, 52, 127
1, 350239, Note_on_c, 2, 50, 127
1, 350389, Note_off_c, 2, 50, 127
1, 350389, Note_off_c, 12, 71, 127
1, 350389, Note_off_c, 7, 67, 127
1, 350389, Note_off_c, 2, 74, 127
1, 350391, Note_on_c, 4, 52, 127
1, 350391, Note_on_c, 4, 64, 127
1, 350391, Note_on_c, 0, 72, 127
1, 350391, Note_on_c, 7, 67, 127
1, 350541, Note_off_c, 4, 52, 127
1, 350543, Note_on_c, 5, 53, 127
1, 350693, Note_off_c, 5, 53, 127
1, 350693, Note_off_c, 7, 67, 127
1, 350693, Note_off_c, 4, 64, 127
1, 350695, Note_on_c, 7, 55, 127
1, 350695, Note_on_c, 4, 64, 127
1, 350695, Note_on_c, 0, 60, 127
1, 350845, Note_off_c, 7, 55, 127
1, 350847, Note_on_c, 10, 57, 127
1, 350997, Note_off_c, 10, 57, 127
1, 350997, Note_off_c, 0, 60, 127
1, 350997, Note_off_c, 4, 64, 127
1, 350999, Note_on_c, 2, 50, 127
1, 350999, Note_on_c, 10, 69, 127
1, 350999, Note_on_c, 5, 65, 127
1, 351149, Note_off_c, 2, 50, 127
1, 351151, Note_on_c, 0, 48, 127
1, 351301, Note_off_c, 0, 48, 127
1, 351301, Note_off_c, 5, 65, 127
1, 351301, Note_off_c, 10, 69, 127
1, 351301, Note_off_c, 0, 72, 127
1, 351303, Note_on_c, 2, 50, 127
1, 351303, Note_on_c, 5, 65, 127
1, 351303, Note_on_c, 11, 70, 127
1, 351303, Note_on_c, 2, 62, 127
1, 351453, Note_off_c, 2, 50, 127
1, 351455, Note_on_c, 4, 52, 127
1, 351605, Note_off_c, 4, 52, 127
1, 351605, Note_off_c, 2, 62, 127
1, 351605, Note_off_c, 5, 65, 127
1, 351607, Note_on_c, 5, 53, 127
1, 351607, Note_on_c, 2, 62, 127
1, 351607, Note_on_c, 11, 58, 127
1, 351757, Note_off_c, 5, 53, 127
1, 351759, Note_on_c, 7, 55, 127
1, 351904, Note_off_c, 11, 70, 127
1, 351909, Note_off_c, 7, 55, 127
1, 351909, Note_off_c, 11, 58, 127
1, 351909, Note_off_c, 2, 62, 127
1, 351911, Note_on_c, 4, 52, 127
1, 351911, Note_on_c, 0, 48, 127
1, 351911, Note_on_c, 7, 55, 127
1, 351911, Note_on_c, 0, 60, 127
1, 352061, Note_off_c, 0, 60, 127
1, 352063, Note_on_c, 10, 69, 127
1, 352213, Note_off_c, 10, 69, 127
1, 352215, Note_on_c, 11, 70, 127
1, 352365, Note_off_c, 11, 70, 127
1, 352367, Note_on_c, 4, 76, 127
1, 352512, Note_off_c, 7, 55, 127
1, 352512, Note_off_c, 0, 48, 127
1, 352512, Note_off_c, 4, 52, 127
1, 352517, Note_off_c, 4, 76, 127
1, 352519, Note_on_c, 5, 77, 127
1, 352669, Note_off_c, 5, 77, 127
1, 352671, Note_on_c, 7, 79, 127
1, 352821, Note_off_c, 7, 79, 127
1, 352823, Note_on_c, 7, 55, 127
1, 352823, Note_on_c, 4, 52, 127
1, 352823, Note_on_c, 0, 48, 127
1, 352823, Note_on_c, 0, 60, 127
1, 352823, Note_on_c, 11, 70, 127
1, 352973, Note_off_c, 11, 70, 127
1, 352975, Note_on_c, 10, 69, 127
1, 353125, Note_off_c, 10, 69, 127
1, 353127, Note_on_c, 11, 70, 127
1, 353277, Note_off_c, 11, 70, 127
1, 353279, Note_on_c, 4, 76, 127
1, 353424, Note_off_c, 0, 60, 127
1, 353424, Note_off_c, 0, 48, 127
1, 353424, Note_off_c, 4, 52, 127
1, 353424, Note_off_c, 7, 55, 127
1, 353429, Note_off_c, 4, 76, 127
1, 353431, Note_on_c, 5, 77, 127
1, 353581, Note_off_c, 5, 77, 127
1, 353583, Note_on_c, 7, 79, 127
1, 353733, Note_off_c, 7, 79, 127
1, 353735, Note_on_c, 4, 52, 127
1, 353735, Note_on_c, 0, 48, 127
1, 353735, Note_on_c, 0, 60, 127
1, 353735, Note_on_c, 7, 55, 127
1, 353735, Note_on_c, 11, 70, 127
1, 353885, Note_off_c, 11, 70, 127
1, 353887, Note_on_c, 10, 69, 127
1, 354037, Note_off_c, 10, 69, 127
1, 354039, Note_on_c, 11, 70, 127
1, 354189, Note_off_c, 11, 70, 127
1, 354191, Note_on_c, 4, 76, 127
1, 354336, Note_off_c, 7, 55, 127
1, 354336, Note_off_c, 0, 48, 127
1, 354336, Note_off_c, 4, 52, 127
1, 354341, Note_off_c, 4, 76, 127
1, 354343, Note_on_c, 5, 77, 127
1, 354493, Note_off_c, 5, 77, 127
1, 354495, Note_on_c, 7, 79, 127
1, 354645, Note_off_c, 7, 79, 127
1, 354645, Note_off_c, 0, 60, 127
1, 354647, Note_on_c, 5, 41, 127
1, 354647, Note_on_c, 10, 69, 127
1, 354797, Note_off_c, 5, 41, 127
1, 354799, Note_on_c, 7, 43, 127
1, 354949, Note_off_c, 7, 43, 127
1, 354949, Note_off_c, 10, 69, 127
1, 354951, Note_on_c, 10, 45, 127
1, 354951, Note_on_c, 0, 72, 127
1, 355101, Note_off_c, 10, 45, 127
1, 355103, Note_on_c, 7, 43, 127
1, 355253, Note_off_c, 7, 43, 127
1, 355253, Note_off_c, 0, 72, 127
1, 355255, Note_on_c, 10, 45, 127
1, 355255, Note_on_c, 5, 77, 127
1, 355405, Note_off_c, 10, 45, 127
1, 355407, Note_on_c, 5, 41, 127
1, 355557, Note_off_c, 5, 41, 127
1, 355557, Note_off_c, 5, 77, 127
1, 355559, Note_on_c, 11, 46, 127
1, 355559, Note_on_c, 5, 77, 127
1, 355709, Note_off_c, 11, 46, 127
1, 355711, Note_on_c, 0, 48, 127
1, 355861, Note_off_c, 0, 48, 127
1, 355863, Note_on_c, 2, 50, 127
1, 355863, Note_on_c, 2, 74, 127
1, 356013, Note_off_c, 2, 50, 127
1, 356015, Note_on_c, 0, 48, 127
1, 356160, Note_off_c, 5, 77, 127
1, 356165, Note_off_c, 0, 48, 127
1, 356165, Note_off_c, 2, 74, 127
1, 356167, Note_on_c, 2, 50, 127
1, 356167, Note_on_c, 5, 77, 127
1, 356317, Note_off_c, 2, 50, 127
1, 356319, Note_on_c, 11, 46, 127
1, 356469, Note_off_c, 11, 46, 127
1, 356469, Note_off_c, 5, 77, 127
1, 356471, Note_on_c, 5, 53, 127
1, 356471, Note_on_c, 10, 69, 127
1, 356621, Note_off_c, 5, 53, 127
1, 356623, Note_on_c, 7, 55, 127
1, 356773, Note_off_c, 7, 55, 127
1, 356775, Note_on_c, 10, 57, 127
1, 356775, Note_on_c, 0, 72, 127
1, 356925, Note_off_c, 10, 57, 127
1, 356927, Note_on_c, 7, 55, 127
1, 357072, Note_off_c, 10, 69, 127
1, 357077, Note_off_c, 7, 55, 127
1, 357077, Note_off_c, 0, 72, 127
1, 357079, Note_on_c, 10, 57, 127
1, 357079, Note_on_c, 5, 77, 127
1, 357229, Note_off_c, 10, 57, 127
1, 357231, Note_on_c, 5, 53, 127
1, 357381, Note_off_c, 5, 53, 127
1, 357381, Note_off_c, 5, 77, 127
1, 357383, Note_on_c, 11, 58, 127
1, 357383, Note_on_c, 5, 77, 127
1, 357533, Note_off_c, 11, 58, 127
1, 357535, Note_on_c, 0, 60, 127
1, 357685, Note_off_c, 0, 60, 127
1, 357687, Note_on_c, 2, 62, 127
1, 357687, Note_on_c, 2, 74, 127
1, 357837, Note_off_c, 2, 62, 127
1, 357839, Note_on_c, 0, 60, 127
1, 357984, Note_off_c, 5, 77, 127
1, 357989, Note_off_c, 0, 60, 127
1, 357989, Note_off_c, 2, 74, 127
1, 357991, Note_on_c, 2, 62, 127
1, 357991, Note_on_c, 5, 77, 127
1, 358141, Note_off_c, 2, 62, 127
1, 358143, Note_on_c, 11, 58, 127
1, 358293, Note_off_c, 11, 58, 127
1, 358295, Note_on_c, 5, 65, 127
1, 358295, Note_on_c, 10, 69, 127
1, 358445, Note_off_c, 5, 65, 127
1, 358447, Note_on_c, 7, 67, 127
1, 358592, Note_off_c, 5, 77, 127
1, 358597, Note_off_c, 7, 67, 127
1, 358599, Note_on_c, 5, 65, 127
1, 358599, Note_on_c, 0, 72, 127
1, 358749, Note_off_c, 5, 65, 127
1, 358751, Note_on_c, 4, 64, 127
1, 358896, Note_off_c, 10, 69, 127
1, 358901, Note_off_c, 4, 64, 127
1, 358901, Note_off_c, 0, 72, 127
1, 358903, Note_on_c, 2, 62, 127
1, 358903, Note_on_c, 5, 77, 127
1, 359053, Note_off_c, 2, 62, 127
1, 359055, Note_on_c, 0, 60, 127
1, 359205, Note_off_c, 0, 60, 127
1, 359207, Note_on_c, 11, 58, 127
1, 359207, Note_on_c, 7, 67, 127
1, 359357, Note_off_c, 11, 58, 127
1, 359359, Note_on_c, 0, 60, 127
1, 359504, Note_off_c, 5, 77, 127
1, 359509, Note_off_c, 0, 60, 127
1, 359511, Note_on_c, 11, 58, 127
1, 359511, Note_on_c, 11, 70, 127
1, 359661, Note_off_c, 11, 58, 127
1, 359663, Note_on_c, 10, 57, 127
1, 359808, Note_off_c, 7, 67, 127
1, 359813, Note_off_c, 10, 57, 127
1, 359815, Note_on_c, 11, 58, 127
1, 359815, Note_on_c, 5, 77, 127
1, 359965, Note_off_c, 11, 58, 127
1, 359967, Note_on_c, 7, 55, 127
1, 360112, Note_off_c, 11, 70, 127
1, 360117, Note_off_c, 7, 55, 127
1, 360119, Note_on_c, 0, 60, 127
1, 360119, Note_on_c, 7, 67, 127
1, 360269, Note_off_c, 0, 60, 127
1, 360271, Note_on_c, 2, 62, 127
1, 360416, Note_off_c, 5, 77, 127
1, 360421, Note_off_c, 2, 62, 127
1, 360423, Note_on_c, 0, 60, 127
1, 360423, Note_on_c, 11, 70, 127
1, 360573, Note_off_c, 0, 60, 127
1, 360575, Note_on_c, 11, 58, 127
1, 360720, Note_off_c, 7, 67, 127
1, 360725, Note_off_c, 11, 58, 127
1, 360725, Note_off_c, 11, 70, 127
1, 360727, Note_on_c, 0, 60, 127
1, 360727, Note_on_c, 4, 76, 127
1, 360886, Note_on_c, 0, 48, 127
1, 360908, Note_off_c, 0, 60, 127
1, 361029, Note_off_c, 4, 76, 127
1, 361046, Note_off_c, 0, 48, 127
1, 361047, Note_on_c, 10, 81, 127
1, 361047, Note_on_c, 5, 77, 127
1, 361047, Note_on_c, 5, 53, 127
1, 361197, Note_off_c, 10, 81, 127
1, 361199, Note_on_c, 11, 82, 127
1, 361349, Note_off_c, 11, 82, 127
1, 361349, Note_off_c, 5, 53, 127
1, 361351, Note_on_c, 0, 84, 127
1, 361351, Note_on_c, 10, 57, 127
1, 361501, Note_off_c, 0, 84, 127
1, 361503, Note_on_c, 11, 82, 127
1, 361648, Note_off_c, 5, 77, 127
1, 361653, Note_off_c, 11, 82, 127
1, 361653, Note_off_c, 10, 57, 127
1, 361655, Note_on_c, 0, 84, 127
1, 361655, Note_on_c, 5, 77, 127
1, 361655, Note_on_c, 5, 53, 127
1, 361805, Note_off_c, 0, 84, 127
1, 361807, Note_on_c, 10, 81, 127
1, 361955, Note_off_c, 5, 77, 127
1, 361957, Note_off_c, 10, 81, 127
1, 361957, Note_off_c, 5, 53, 127
1, 361959, Note_on_c, 7, 79, 127
1, 361959, Note_on_c, 4, 76, 127
1, 361959, Note_on_c, 0, 60, 127
1, 362109, Note_off_c, 7, 79, 127
1, 362111, Note_on_c, 10, 81, 127
1, 362261, Note_off_c, 10, 81, 127
1, 362261, Note_off_c, 0, 60, 127
1, 362263, Note_on_c, 11, 82, 127
1, 362263, Note_on_c, 0, 48, 127
1, 362413, Note_off_c, 11, 82, 127
1, 362415, Note_on_c, 10, 81, 127
1, 362560, Note_off_c, 4, 76, 127
1, 362565, Note_off_c, 10, 81, 127
1, 362565, Note_off_c, 0, 48, 127
1, 362567, Note_on_c, 4, 76, 127
1, 362567, Note_on_c, 11, 82, 127
1, 362567, Note_on_c, 0, 60, 127
1, 362717, Note_off_c, 11, 82, 127
1, 362719, Note_on_c, 7, 79, 127
1, 362867, Note_off_c, 4, 76, 127
1, 362869, Note_off_c, 7, 79, 127
1, 362869, Note_off_c, 0, 60, 127
1, 362871, Note_on_c, 10, 81, 127
1, 362871, Note_on_c, 5, 77, 127
1, 362871, Note_on_c, 5, 53, 127
1, 363021, Note_off_c, 10, 81, 127
1, 363023, Note_on_c, 11, 82, 127
1, 363173, Note_off_c, 11, 82, 127
1, 363173, Note_off_c, 5, 53, 127
1, 363175, Note_on_c, 0, 84, 127
1, 363175, Note_on_c, 10, 57, 127
1, 363325, Note_off_c, 0, 84, 127
1, 363327, Note_on_c, 11, 82, 127
1, 363472, Note_off_c, 5, 77, 127
1, 363477, Note_off_c, 11, 82, 127
1, 363477, Note_off_c, 10, 57, 127
1, 363479, Note_on_c, 5, 77, 127
1, 363479, Note_on_c, 0, 84, 127
1, 363479, Note_on_c, 5, 53, 127
1, 363629, Note_off_c, 0, 84, 127
1, 363631, Note_on_c, 10, 81, 127
1, 363779, Note_off_c, 5, 77, 127
1, 363781, Note_off_c, 10, 81, 127
1, 363781, Note_off_c, 5, 53, 127
1, 363783, Note_on_c, 4, 76, 127
1, 363783, Note_on_c, 7, 79, 127
1, 363783, Note_on_c, 0, 60, 127
1, 363933, Note_off_c, 0, 60, 127
1, 363935, Note_on_c, 2, 62, 127
1, 364085, Note_off_c, 2, 62, 127
1, 364087, Note_on_c, 0, 72, 127
1, 364087, Note_on_c, 0, 60, 127
1, 364237, Note_off_c, 0, 60, 127
1, 364239, Note_on_c, 11, 58, 127
1, 364384, Note_off_c, 7, 79, 127
1, 364384, Note_off_c, 4, 76, 127
1, 364389, Note_off_c, 11, 58, 127
1, 364391, Note_on_c, 10, 57, 127
1, 364541, Note_off_c, 10, 57, 127
1, 364543, Note_on_c, 7, 55, 127
1, 364693, Note_off_c, 7, 55, 127
1, 364693, Note_off_c, 0, 72, 127
1, 364695, Note_on_c, 10, 69, 127
1, 364695, Note_on_c, 5, 77, 127
1, 364695, Note_on_c, 5, 53, 127
1, 364845, Note_off_c, 10, 69, 127
1, 364847, Note_on_c, 11, 70, 127
1, 364997, Note_off_c, 11, 70, 127
1, 364997, Note_off_c, 5, 53, 127
1, 364999, Note_on_c, 0, 72, 127
1, 364999, Note_on_c, 10, 57, 127
1, 365149, Note_off_c, 0, 72, 127
1, 365151, Note_on_c, 11, 70, 127
1, 365296, Note_off_c, 5, 77, 127
1, 365301, Note_off_c, 11, 70, 127
1, 365301, Note_off_c, 10, 57, 127
1, 365303, Note_on_c, 5, 77, 127
1, 365303, Note_on_c, 0, 72, 127
1, 365303, Note_on_c, 5, 53, 127
1, 365453, Note_off_c, 0, 72, 127
1, 365455, Note_on_c, 10, 69, 127
1, 365531, Note_off_c, 5, 77, 127
1, 365605, Note_off_c, 10, 69, 127
1, 365605, Note_off_c, 5, 53, 127
1, 365607, Note_on_c, 7, 67, 127
1, 365607, Note_on_c, 4, 76, 127
1, 365607, Note_on_c, 0, 60, 127
1, 365757, Note_off_c, 7, 67, 127
1, 365759, Note_on_c, 10, 69, 127
1, 365909, Note_off_c, 10, 69, 127
1, 365909, Note_off_c, 0, 60, 127
1, 365911, Note_on_c, 11, 70, 127
1, 365911, Note_on_c, 0, 48, 127
1, 366061, Note_off_c, 11, 70, 127
1, 366063, Note_on_c, 10, 69, 127
1, 366208, Note_off_c, 4, 76, 127
1, 366213, Note_off_c, 10, 69, 127
1, 366213, Note_off_c, 0, 48, 127
1, 366215, Note_on_c, 11, 70, 127
1, 366215, Note_on_c, 4, 76, 127
1, 366215, Note_on_c, 0, 60, 127
1, 366365, Note_off_c, 11, 70, 127
1, 366367, Note_on_c, 7, 67, 127
1, 366443, Note_off_c, 4, 76, 127
1, 366517, Note_off_c, 7, 67, 127
1, 366517, Note_off_c, 0, 60, 127
1, 366519, Note_on_c, 5, 77, 127
1, 366519, Note_on_c, 10, 69, 127
1, 366519, Note_on_c, 5, 53, 127
1, 366669, Note_off_c, 10, 69, 127
1, 366671, Note_on_c, 11, 70, 127
1, 366821, Note_off_c, 11, 70, 127
1, 366821, Note_off_c, 5, 53, 127
1, 366823, Note_on_c, 0, 72, 127
1, 366823, Note_on_c, 10, 57, 127
1, 366973, Note_off_c, 0, 72, 127
1, 366975, Note_on_c, 11, 70, 127
1, 367120, Note_off_c, 5, 77, 127
1, 367125, Note_off_c, 11, 70, 127
1, 367125, Note_off_c, 10, 57, 127
1, 367127, Note_on_c, 0, 72, 127
1, 367127, Note_on_c, 5, 77, 127
1, 367127, Note_on_c, 5, 53, 127
1, 367277, Note_off_c, 0, 72, 127
1, 367279, Note_on_c, 10, 69, 127
1, 367355, Note_off_c, 5, 77, 127
1, 367429, Note_off_c, 10, 69, 127
1, 367429, Note_off_c, 5, 53, 127
1, 367431, Note_on_c, 4, 76, 127
1, 367431, Note_on_c, 7, 67, 127
1, 367431, Note_on_c, 0, 60, 127
1, 367581, Note_off_c, 0, 60, 127
1, 367583, Note_on_c, 11, 58, 127
1, 367733, Note_off_c, 11, 58, 127
1, 367735, Note_on_c, 0, 60, 127
1, 367885, Note_off_c, 0, 60, 127
1, 367887, Note_on_c, 2, 62, 127
1, 368037, Note_off_c, 2, 62, 127
1, 368039, Note_on_c, 0, 60, 127
1, 368189, Note_off_c, 0, 60, 127
1, 368191, Note_off_c, 7, 67, 127
1, 368191, Note_off_c, 4, 76, 127
1, 368191, Note_on_c, 11, 58, 127
1, 368341, Note_off_c, 11, 58, 127
1, 368343, Note_on_c, 10, 57, 127
1, 368495, Note_on_c, 5, 77, 127
1, 368645, Note_off_c, 5, 77, 127
1, 368645, Note_off_c, 10, 57, 127
1, 368647, Note_on_c, 4, 76, 127
1, 368647, Note_on_c, 10, 69, 127
1, 368797, Note_off_c, 4, 76, 127
1, 368799, Note_on_c, 5, 77, 127
1, 368949, Note_off_c, 5, 77, 127
1, 368949, Note_off_c, 10, 69, 127
1, 368951, Note_on_c, 0, 72, 127
1, 368951, Note_on_c, 10, 57, 127
1, 369101, Note_off_c, 0, 72, 127
1, 369103, Note_on_c, 5, 77, 127
1, 369253, Note_off_c, 5, 77, 127
1, 369253, Note_off_c, 10, 57, 127
1, 369255, Note_on_c, 2, 74, 127
1, 369255, Note_on_c, 11, 58, 127
1, 369405, Note_off_c, 2, 74, 127
1, 369407, Note_on_c, 5, 77, 127
1, 369557, Note_off_c, 5, 77, 127
1, 369557, Note_off_c, 11, 58, 127
1, 369559, Note_on_c, 4, 76, 127
1, 369559, Note_on_c, 11, 70, 127
1, 369709, Note_off_c, 4, 76, 127
1, 369711, Note_on_c, 2, 74, 127
1, 369861, Note_off_c, 2, 74, 127
1, 369863, Note_on_c, 7, 79, 127
1, 369863, Note_on_c, 11, 58, 127
1, 369876, Note_off_c, 11, 70, 127
1, 370163, Note_off_c, 7, 79, 127
1, 370165, Note_off_c, 11, 58, 127
1, 370167, Note_on_c, 12, 59, 127
1, 370319, Note_on_c, 7, 79, 127
1, 370469, Note_off_c, 7, 79, 127
1, 370469, Note_off_c, 12, 59, 127
1, 370471, Note_on_c, 5, 77, 127
1, 370471, Note_on_c, 12, 71, 127
1, 370621, Note_off_c, 5, 77, 127
1, 370623, Note_on_c, 7, 79, 127
1, 370773, Note_off_c, 7, 79, 127
1, 370775, Note_on_c, 2, 74, 127
1, 370775, Note_on_c, 12, 59, 127
1, 370803, Note_off_c, 12, 71, 127
1, 370925, Note_off_c, 2, 74, 127
1, 370927, Note_on_c, 7, 79, 127
1, 371077, Note_off_c, 7, 79, 127
1, 371077, Note_off_c, 12, 59, 127
1, 371079, Note_on_c, 4, 76, 127
1, 371079, Note_on_c, 0, 60, 127
1, 371229, Note_off_c, 4, 76, 127
1, 371231, Note_on_c, 7, 79, 127
1, 371381, Note_off_c, 7, 79, 127
1, 371381, Note_off_c, 0, 60, 127
1, 371383, Note_on_c, 5, 77, 127
1, 371383, Note_on_c, 0, 72, 127
1, 371533, Note_off_c, 5, 77, 127
1, 371535, Note_on_c, 4, 76, 127
1, 371685, Note_off_c, 4, 76, 127
1, 371687, Note_on_c, 10, 81, 127
1, 371687, Note_on_c, 0, 60, 127
1, 371731, Note_off_c, 0, 72, 127
1, 371988, Note_off_c, 0, 60, 127
1, 371990, Note_on_c, 1, 61, 127
1, 372034, Note_off_c, 10, 81, 127
1, 372141, Note_on_c, 10, 81, 127
1, 372291, Note_off_c, 10, 81, 127
1, 372291, Note_off_c, 1, 61, 127
1, 372293, Note_on_c, 7, 79, 127
1, 372293, Note_on_c, 1, 73, 127
1, 372443, Note_off_c, 7, 79, 127
1, 372445, Note_on_c, 10, 81, 127
1, 372595, Note_off_c, 10, 81, 127
1, 372597, Note_on_c, 4, 76, 127
1, 372597, Note_on_c, 1, 61, 127
1, 372657, Note_off_c, 1, 73, 127
1, 372747, Note_off_c, 4, 76, 127
1, 372749, Note_on_c, 10, 81, 127
1, 372899, Note_off_c, 10, 81, 127
1, 372899, Note_off_c, 1, 61, 127
1, 372901, Note_on_c, 5, 77, 127
1, 372901, Note_on_c, 2, 62, 127
1, 373051, Note_off_c, 5, 77, 127
1, 373053, Note_on_c, 10, 81, 127
1, 373203, Note_off_c, 10, 81, 127
1, 373203, Note_off_c, 2, 62, 127
1, 373205, Note_on_c, 7, 79, 127
1, 373205, Note_on_c, 2, 74, 127
1, 373355, Note_off_c, 7, 79, 127
1, 373357, Note_on_c, 5, 77, 127
1, 373507, Note_off_c, 5, 77, 127
1, 373509, Note_on_c, 11, 82, 127
1, 373509, Note_on_c, 2, 62, 127
1, 373585, Note_off_c, 2, 74, 127
1, 373811, Note_off_c, 2, 62, 127
1, 373813, Note_on_c, 2, 62, 127
1, 373905, Note_off_c, 11, 82, 127
1, 373965, Note_on_c, 11, 82, 127
1, 374115, Note_off_c, 11, 82, 127
1, 374115, Note_off_c, 2, 62, 127
1, 374117, Note_on_c, 10, 81, 127
1, 374117, Note_on_c, 2, 74, 127
1, 374267, Note_off_c, 10, 81, 127
1, 374269, Note_on_c, 11, 82, 127
1, 374419, Note_off_c, 11, 82, 127
1, 374421, Note_on_c, 5, 77, 127
1, 374421, Note_on_c, 2, 62, 127
1, 374513, Note_off_c, 2, 74, 127
1, 374571, Note_off_c, 5, 77, 127
1, 374573, Note_on_c, 11, 82, 127
1, 374723, Note_off_c, 11, 82, 127
1, 374723, Note_off_c, 2, 62, 127
1, 374725, Note_on_c, 7, 79, 127
1, 374725, Note_on_c, 4, 64, 127
1, 374875, Note_off_c, 7, 79, 127
1, 374877, Note_on_c, 11, 82, 127
1, 375027, Note_off_c, 11, 82, 127
1, 375027, Note_off_c, 4, 64, 127
1, 375029, Note_on_c, 10, 81, 127
1, 375029, Note_on_c, 4, 76, 127
1, 375179, Note_off_c, 10, 81, 127
1, 375181, Note_on_c, 7, 79, 127
1, 375331, Note_off_c, 7, 79, 127
1, 375333, Note_on_c, 0, 84, 127
1, 375333, Note_on_c, 4, 64, 127
1, 375440, Note_off_c, 4, 76, 127
1, 375634, Note_off_c, 4, 64, 127
1, 375636, Note_on_c, 4, 64, 127
1, 375786, Note_off_c, 0, 84, 127
1, 375788, Note_on_c, 0, 84, 127
1, 375938, Note_off_c, 0, 84, 127
1, 375938, Note_off_c, 4, 64, 127
1, 375940, Note_on_c, 11, 82, 127
1, 375940, Note_on_c, 4, 76, 127
1, 376090, Note_off_c, 11, 82, 127
1, 376092, Note_on_c, 0, 84, 127
1, 376242, Note_off_c, 0, 84, 127
1, 376244, Note_on_c, 7, 79, 127
1, 376244, Note_on_c, 4, 64, 127
1, 376351, Note_off_c, 4, 76, 127
1, 376394, Note_off_c, 7, 79, 127
1, 376396, Note_on_c, 0, 84, 127
1, 376546, Note_off_c, 0, 84, 127
1, 376546, Note_off_c, 4, 64, 127
1, 376548, Note_on_c, 10, 81, 127
1, 376548, Note_on_c, 5, 65, 127
1, 376698, Note_off_c, 10, 81, 127
1, 376700, Note_on_c, 5, 77, 127
1, 376850, Note_off_c, 5, 77, 127
1, 376852, Note_on_c, 0, 72, 127
1, 377002, Note_off_c, 0, 72, 127
1, 377004, Note_on_c, 10, 69, 127
1, 377154, Note_off_c, 10, 69, 127
1, 377154, Note_off_c, 5, 65, 127
1, 377156, Note_on_c, 5, 65, 127
1, 377306, Note_off_c, 5, 65, 127
1, 377308, Note_on_c, 0, 60, 127
1, 377458, Note_off_c, 0, 60, 127
1, 377460, Note_on_c, 5, 77, 127
1, 377460, Note_on_c, 10, 69, 127
1, 377460, Note_on_c, 0, 72, 127
1, 377460, Note_on_c, 5, 53, 127
1, 377762, Note_off_c, 5, 53, 127
1, 377762, Note_off_c, 0, 72, 127
1, 377762, Note_off_c, 10, 69, 127
1, 377762, Note_off_c, 5, 77, 127
1, 377764, Note_on_c, 4, 76, 127
1, 377764, Note_on_c, 7, 67, 127
1, 377764, Note_on_c, 0, 72, 127
1, 377764, Note_on_c, 0, 60, 127
1, 378064, Note_off_c, 0, 60, 127
1, 378064, Note_off_c, 0, 72, 127
1, 378064, Note_off_c, 7, 67, 127
1, 378064, Note_off_c, 4, 76, 127
1, 378370, Note_on_c, 5, 65, 127
1, 378370, Note_on_c, 10, 69, 127
1, 378370, Note_on_c, 0, 72, 127
1, 378370, Note_on_c, 4, 76, 127
1, 378370, Note_on_c, 5, 53, 127
1, 378672, Note_off_c, 5, 53, 127
1, 378672, Note_off_c, 4, 76, 127
1, 378672, Note_off_c, 0, 72, 127
1, 378672, Note_off_c, 10, 69, 127
1, 378672, Note_off_c, 5, 65, 127
1, 378674, Note_on_c, 10, 69, 127
1, 378674, Note_on_c, 11, 70, 127
1, 378674, Note_on_c, 5, 65, 127
1, 378674, Note_on_c, 2, 74, 127
1, 378674, Note_on_c, 11, 58, 127
1, 378974, Note_off_c, 11, 58, 127
1, 378974, Note_off_c, 2, 74, 127
1, 378974, Note_off_c, 5, 65, 127
1, 378974, Note_off_c, 11, 70, 127
1, 378974, Note_off_c, 10, 69, 127
1, 379280, Note_on_c, 11, 70, 127
1, 379280, Note_on_c, 2, 74, 127
1, 379280, Note_on_c, 4, 64, 127
1, 379280, Note_on_c, 7, 67, 127
1, 379280, Note_on_c, 4, 52, 127
1, 379582, Note_off_c, 4, 52, 127
1, 379582, Note_off_c, 7, 67, 127
1, 379582, Note_off_c, 4, 64, 127
1, 379582, Note_off_c, 2, 74, 127
1, 379582, Note_off_c, 11, 70, 127
1, 379584, Note_on_c, 7, 67, 127
1, 379584, Note_on_c, 0, 72, 127
1, 379584, Note_on_c, 4, 64, 127
1, 379584, Note_on_c, 10, 69, 127
1, 379584, Note_on_c, 10, 57, 127
1, 379884, Note_off_c, 10, 57, 127
1, 379884, Note_off_c, 10, 69, 127
1, 379884, Note_off_c, 4, 64, 127
1, 379884, Note_off_c, 0, 72, 127
1, 379884, Note_off_c, 7, 67, 127
1, 380190, Note_on_c, 0, 72, 127
1, 380190, Note_on_c, 5, 65, 127
1, 380190, Note_on_c, 10, 69, 127
1, 380190, Note_on_c, 2, 62, 127
1, 380190, Note_on_c, 2, 50, 127
1, 380492, Note_off_c, 2, 50, 127
1, 380492, Note_off_c, 2, 62, 127
1, 380492, Note_off_c, 10, 69, 127
1, 380492, Note_off_c, 5, 65, 127
1, 380492, Note_off_c, 0, 72, 127
1, 380494, Note_on_c, 11, 70, 127
1, 380494, Note_on_c, 2, 62, 127
1, 380494, Note_on_c, 7, 67, 127
1, 380494, Note_on_c, 7, 55, 127
1, 380794, Note_off_c, 7, 55, 127
1, 380794, Note_off_c, 7, 67, 127
1, 380794, Note_off_c, 2, 62, 127
1, 380794, Note_off_c, 11, 70, 127
1, 381100, Note_on_c, 11, 70, 127
1, 381100, Note_on_c, 7, 67, 127
1, 381100, Note_on_c, 4, 64, 127
1, 381100, Note_on_c, 0, 60, 127
1, 381100, Note_on_c, 0, 48, 127
1, 381402, Note_off_c, 0, 48, 127
1, 381402, Note_off_c, 0, 60, 127
1, 381402, Note_off_c, 4, 64, 127
1, 381402, Note_off_c, 7, 67, 127
1, 381402, Note_off_c, 11, 70, 127
1, 381404, Note_on_c, 5, 65, 127
1, 381404, Note_on_c, 10, 69, 127
1, 381404, Note_on_c, 0, 60, 127
1, 381404, Note_on_c, 5, 53, 127
1, 381706, Note_off_c, 5, 53, 127
1, 381706, Note_off_c, 0, 60, 127
1, 381706, Note_off_c, 10, 69, 127
1, 381706, Note_off_c, 5, 65, 127
1, 381708, Note_on_c, 10, 69, 127
1, 381708, Note_on_c, 0, 72, 127
1, 381708, Note_on_c, 5, 77, 127
1, 381708, Note_on_c, 10, 45, 127
1, 381708, Note_on_c, 0, 48, 127
1, 381708, Note_on_c, 5, 53, 127
1, 382010, Note_off_c, 5, 53, 127
1, 382010, Note_off_c, 0, 48, 127
1, 382010, Note_off_c, 10, 45, 127
1, 382012, Note_on_c, 7, 55, 127
1, 382012, Note_on_c, 2, 50, 127
1, 382012, Note_on_c, 11, 46, 127
1, 382309, Note_off_c, 0, 72, 127
1, 382309, Note_off_c, 10, 69, 127
1, 382314, Note_off_c, 11, 46, 127
1, 382314, Note_off_c, 2, 50, 127
1, 382316, Note_on_c, 7, 67, 127
1, 382316, Note_on_c, 11, 70, 127
1, 382316, Note_on_c, 0, 48, 127
1, 382613, Note_off_c, 7, 55, 127
1, 382618, Note_off_c, 0, 48, 127
1, 382618, Note_off_c, 11, 70, 127
1, 382618, Note_off_c, 7, 67, 127
1, 382618, Note_off_c, 5, 77, 127
1, 382620, Note_on_c, 4, 76, 127
1, 382620, Note_on_c, 0, 72, 127
1, 382620, Note_on_c, 11, 70, 127
1, 382620, Note_on_c, 7, 67, 127
1, 382620, Note_on_c, 0, 36, 127
1, 382904, Note_off_c, 0, 36, 127
1, 382921, Note_off_c, 7, 67, 127
1, 382921, Note_off_c, 11, 70, 127
1, 382921, Note_off_c, 0, 72, 127
1, 382921, Note_off_c, 4, 76, 127
1, 382923, Note_on_c, 0, 72, 127
1, 382923, Note_on_c, 10, 69, 127
1, 382923, Note_on_c, 5, 77, 127
1, 382923, Note_on_c, 5, 65, 127
1, 383075, Note_on_c, 5, 41, 127
1, 383225, Note_off_c, 5, 41, 127
1, 383227, Note_on_c, 10, 45, 127
1, 383377, Note_off_c, 10, 45, 127
1, 383379, Note_on_c, 0, 48, 127
1, 383529, Note_off_c, 0, 48, 127
1, 383531, Note_on_c, 5, 53, 127
1, 383683, Note_off_c, 5, 53, 127
1, 383685, Note_off_c, 5, 65, 127
1, 383685, Note_off_c, 5, 77, 127
1, 383685, Note_off_c, 10, 69, 127
1, 383685, Note_off_c, 0, 72, 127
1, 383685, Note_on_c, 4, 52, 127
1, 383837, Note_off_c, 4, 52, 127
1, 383839, Note_on_c, 0, 72, 127
1, 383839, Note_on_c, 5, 77, 127
1, 383839, Note_on_c, 10, 69, 127
1, 383839, Note_on_c, 5, 53, 127
1, 384145, Note_off_c, 5, 53, 127
1, 384145, Note_off_c, 10, 69, 127
1, 384145, Note_off_c, 5, 77, 127
1, 384145, Note_off_c, 0, 72, 127
1, 384147, Note_on_c, 0, 72, 127
1, 384147, Note_on_c, 4, 76, 127
1, 384147, Note_on_c, 7, 67, 127
1, 384147, Note_on_c, 0, 60, 127
1, 384595, Note_off_c, 0, 60, 127
1, 384595, Note_off_c, 7, 67, 127
1, 384595, Note_off_c, 4, 76, 127
1, 384595, Note_off_c, 0, 72, 127
1, 384761, Note_on_c, 4, 76, 127
1, 384761, Note_on_c, 5, 65, 127
1, 384761, Note_on_c, 10, 69, 127
1, 384761, Note_on_c, 0, 72, 127
1, 384761, Note_on_c, 5, 53, 127
1, 385067, Note_off_c, 5, 53, 127
1, 385067, Note_off_c, 0, 72, 127
1, 385067, Note_off_c, 10, 69, 127
1, 385067, Note_off_c, 5, 65, 127
1, 385067, Note_off_c, 4, 76, 127
1, 385069, Note_on_c, 11, 70, 127
1, 385069, Note_on_c, 2, 74, 127
1, 385069, Note_on_c, 5, 65, 127
1, 385069, Note_on_c, 10, 69, 127
1, 385069, Note_on_c, 11, 58, 127
1, 385517, Note_off_c, 11, 58, 127
1, 385517, Note_off_c, 10, 69, 127
1, 385517, Note_off_c, 5, 65, 127
1, 385517, Note_off_c, 2, 74, 127
1, 385517, Note_off_c, 11, 70, 127
1, 385683, Note_on_c, 7, 67, 127
1, 385683, Note_on_c, 11, 70, 127
1, 385683, Note_on_c, 2, 74, 127
1, 385683, Note_on_c, 4, 64, 127
1, 385683, Note_on_c, 4, 52, 127
1, 385989, Note_off_c, 4, 52, 127
1, 385989, Note_off_c, 4, 64, 127
1, 385989, Note_off_c, 2, 74, 127
1, 385989, Note_off_c, 11, 70, 127
1, 385989, Note_off_c, 7, 67, 127
1, 385991, Note_on_c, 10, 69, 127
1, 385991, Note_on_c, 0, 72, 127
1, 385991, Note_on_c, 4, 64, 127
1, 385991, Note_on_c, 7, 67, 127
1, 385991, Note_on_c, 10, 57, 127
1, 386439, Note_off_c, 10, 57, 127
1, 386439, Note_off_c, 7, 67, 127
1, 386439, Note_off_c, 4, 64, 127
1, 386439, Note_off_c, 0, 72, 127
1, 386439, Note_off_c, 10, 69, 127
1, 386605, Note_on_c, 10, 69, 127
1, 386605, Note_on_c, 0, 72, 127
1, 386605, Note_on_c, 2, 62, 127
1, 386605, Note_on_c, 5, 65, 127
1, 386605, Note_on_c, 2, 50, 127
1, 386911, Note_off_c, 2, 50, 127
1, 386911, Note_off_c, 5, 65, 127
1, 386911, Note_off_c, 2, 62, 127
1, 386911, Note_off_c, 0, 72, 127
1, 386911, Note_off_c, 10, 69, 127
1, 386913, Note_on_c, 11, 70, 127
1, 386913, Note_on_c, 2, 62, 127
1, 386913, Note_on_c, 5, 65, 127
1, 386913, Note_on_c, 7, 67, 127
1, 386913, Note_on_c, 7, 55, 127
1, 387367, Note_off_c, 7, 55, 127
1, 387367, Note_off_c, 7, 67, 127
1, 387367, Note_off_c, 5, 65, 127
1, 387367, Note_off_c, 2, 62, 127
1, 387367, Note_off_c, 11, 70, 127
1, 387536, Note_on_c, 11, 70, 127
1, 387536, Note_on_c, 4, 64, 127
1, 387536, Note_on_c, 7, 67, 127
1, 387536, Note_on_c, 0, 60, 127
1, 387536, Note_on_c, 0, 48, 127
1, 387846, Note_off_c, 0, 48, 127
1, 387846, Note_off_c, 0, 60, 127
1, 387846, Note_off_c, 7, 67, 127
1, 387846, Note_off_c, 4, 64, 127
1, 387846, Note_off_c, 11, 70, 127
1, 387848, Note_on_c, 10, 69, 127
1, 387848, Note_on_c, 5, 65, 127
1, 387848, Note_on_c, 5, 53, 127
1, 387848, Note_on_c, 0, 60, 127
1, 388158, Note_off_c, 0, 60, 127
1, 388158, Note_off_c, 5, 53, 127
1, 388158, Note_off_c, 5, 65, 127
1, 388158, Note_off_c, 10, 69, 127
1, 388176, Note_on_c, 5, 53, 127
1, 388176, Note_on_c, 10, 45, 127
1, 388176, Note_on_c, 0, 48, 127
1, 388176, Note_on_c, 10, 69, 127
1, 388176, Note_on_c, 5, 77, 127
1, 388176, Note_on_c, 0, 72, 127
1, 388494, Note_off_c, 0, 48, 127
1, 388494, Note_off_c, 10, 45, 127
1, 388494, Note_off_c, 5, 53, 127
1, 388496, Note_on_c, 11, 46, 127
1, 388496, Note_on_c, 2, 50, 127
1, 388496, Note_on_c, 7, 55, 127
1, 388647, Note_off_c, 0, 72, 127
1, 388647, Note_off_c, 10, 69, 127
1, 388824, Note_off_c, 7, 55, 127
1, 388824, Note_off_c, 2, 50, 127
1, 388824, Note_off_c, 11, 46, 127
1, 388826, Note_on_c, 0, 48, 127
1, 388826, Note_on_c, 11, 70, 127
1, 388826, Note_on_c, 7, 67, 127
1, 389163, Note_off_c, 7, 67, 127
1, 389163, Note_off_c, 11, 70, 127
1, 389163, Note_off_c, 0, 48, 127
1, 389163, Note_off_c, 5, 77, 127
1, 389165, Note_on_c, 0, 36, 127
1, 389165, Note_on_c, 11, 70, 127
1, 389165, Note_on_c, 7, 67, 127
1, 389165, Note_on_c, 4, 76, 127
1, 389165, Note_on_c, 0, 72, 127
1, 389502, Note_off_c, 0, 72, 127
1, 389502, Note_off_c, 4, 76, 127
1, 389502, Note_off_c, 7, 67, 127
1, 389502, Note_off_c, 11, 70, 127
1, 389502, Note_off_c, 0, 36, 127
1, 389504, Note_on_c, 5, 41, 127
1, 389504, Note_on_c, 5, 65, 127
1, 389504, Note_on_c, 5, 77, 127
1, 389504, Note_on_c, 0, 72, 127
1, 389504, Note_on_c, 10, 69, 127
1, 389672, Note_off_c, 5, 41, 127
1, 389674, Note_on_c, 7, 43, 127
1, 389842, Note_off_c, 7, 43, 127
1, 389844, Note_on_c, 10, 45, 127
1, 390012, Note_off_c, 10, 45, 127
1, 390014, Note_on_c, 7, 43, 127
1, 390182, Note_off_c, 7, 43, 127
1, 390182, Note_off_c, 10, 69, 127
1, 390182, Note_off_c, 0, 72, 127
1, 390182, Note_off_c, 5, 77, 127
1, 390182, Note_off_c, 5, 65, 127
1, 390184, Note_on_c, 10, 45, 127
1, 390184, Note_on_c, 10, 69, 127
1, 390184, Note_on_c, 0, 72, 127
1, 390184, Note_on_c, 5, 77, 127
1, 390352, Note_off_c, 10, 45, 127
1, 390354, Note_on_c, 5, 41, 127
1, 390522, Note_off_c, 5, 41, 127
1, 390522, Note_off_c, 5, 77, 127
1, 390522, Note_off_c, 0, 72, 127
1, 390522, Note_off_c, 10, 69, 127
1, 390524, Note_on_c, 11, 46, 127
1, 390524, Note_on_c, 11, 70, 127
1, 390524, Note_on_c, 7, 67, 127
1, 390524, Note_on_c, 5, 77, 127
1, 390524, Note_on_c, 2, 74, 127
1, 390692, Note_off_c, 11, 46, 127
1, 390694, Note_on_c, 7, 43, 127
1, 390862, Note_off_c, 7, 43, 127
1, 390862, Note_off_c, 2, 74, 127
1, 390862, Note_off_c, 5, 77, 127
1, 390862, Note_off_c, 7, 67, 127
1, 390862, Note_off_c, 11, 70, 127
1, 390864, Note_on_c, 0, 48, 127
1, 390864, Note_on_c, 11, 70, 127
1, 390864, Note_on_c, 4, 76, 127
1, 390864, Note_on_c, 0, 72, 127
1, 390864, Note_on_c, 7, 67, 127
1, 391032, Note_off_c, 0, 48, 127
1, 391034, Note_on_c, 11, 46, 127
1, 391202, Note_off_c, 11, 46, 127
1, 391202, Note_off_c, 7, 67, 127
1, 391202, Note_off_c, 0, 72, 127
1, 391202, Note_off_c, 4, 76, 127
1, 391202, Note_off_c, 11, 70, 127
1, 391204, Note_on_c, 0, 48, 127
1, 391204, Note_on_c, 7, 67, 127
1, 391204, Note_on_c, 4, 76, 127
1, 391204, Note_on_c, 0, 72, 127
1, 391204, Note_on_c, 11, 70, 127
1, 391394, Note_off_c, 0, 48, 127
1, 391412, Note_on_c, 0, 36, 127
1, 391586, Note_off_c, 11, 70, 127
1, 391586, Note_off_c, 0, 72, 127
1, 391586, Note_off_c, 4, 76, 127
1, 391586, Note_off_c, 7, 67, 127
1, 391602, Note_off_c, 0, 36, 127
1, 391652, Note_on_c, 5, 41, 127
1, 391652, Note_on_c, 5, 65, 127
1, 391652, Note_on_c, 10, 69, 127
1, 391652, Note_on_c, 5, 77, 127
1, 391652, Note_on_c, 0, 72, 127
1, 393852, Note_off_c, 0, 72, 127
1, 393852, Note_off_c, 5, 77, 127
1, 393852, Note_off_c, 10, 69, 127
1, 393852, Note_off_c, 5, 65, 127
1, 393852, Note_off_c, 5, 41, 127
1, 399360, End_track
0, 0, End_of_file
