0, 0, Header, 0, 1, 384
1, 0, Start_track
1, 0, Copyright_t, "(C) John Sankey 1998"
1, 0, Program_c, 0, 6
1, 0, Pitch_bend_c, 0, 8192
1, 0, Program_c, 1, 6
1, 0, Pitch_bend_c, 1, 7792
1, 0, Program_c, 2, 6
1, 0, Pitch_bend_c, 2, 7876
1, 0, Program_c, 3, 6
1, 0, Pitch_bend_c, 3, 7952
1, 0, Program_c, 4, 6
1, 0, Pitch_bend_c, 4, 7792
1, 0, Program_c, 5, 6
1, 0, Pitch_bend_c, 5, 8112
1, 0, Program_c, 6, 6
1, 0, Pitch_bend_c, 6, 7712
1, 0, Program_c, 7, 6
1, 0, Pitch_bend_c, 7, 8037
1, 0, Program_c, 8, 6
1, 0, Pitch_bend_c, 8, 7872
1, 0, Program_c, 10, 6
1, 0, Pitch_bend_c, 10, 7712
1, 0, Program_c, 11, 6
1, 0, Pitch_bend_c, 11, 8032
1, 0, Program_c, 12, 6
1, 0, Pitch_bend_c, 12, 7872
1, 0, Tempo, 500000
1, 52, Note_on_c, 0, 72, 127
1, 220, Note_off_c, 0, 72, 127
1, 222, Note_on_c, 0, 72, 127
1, 728, Note_off_c, 0, 72, 127
1, 730, Note_on_c, 2, 74, 127
1, 898, Note_off_c, 2, 74, 127
1, 900, Note_on_c, 2, 74, 127
1, 1406, Note_off_c, 2, 74, 127
1, 1408, Note_on_c, 3, 75, 127
1, 1576, Note_off_c, 3, 75, 127
1, 1578, Note_on_c, 3, 75, 127
1, 2084, Note_off_c, 3, 75, 127
1, 2102, Note_on_c, 3, 75, 127
1, 2102, Note_on_c, 0, 72, 127
1, 2270, Note_off_c, 0, 72, 127
1, 2270, Note_off_c, 3, 75, 127
1, 2272, Note_on_c, 3, 75, 127
1, 2272, Note_on_c, 0, 72, 127
1, 2778, Note_off_c, 0, 72, 127
1, 2778, Note_off_c, 3, 75, 127
1, 2780, Note_on_c, 2, 74, 127
1, 2780, Note_on_c, 5, 77, 127
1, 2948, Note_off_c, 5, 77, 127
1, 2948, Note_off_c, 2, 74, 127
1, 2950, Note_on_c, 2, 74, 127
1, 2950, Note_on_c, 5, 77, 127
1, 3456, Note_off_c, 5, 77, 127
1, 3456, Note_off_c, 2, 74, 127
1, 3458, Note_on_c, 3, 75, 127
1, 3458, Note_on_c, 7, 79, 127
1, 3626, Note_off_c, 7, 79, 127
1, 3626, Note_off_c, 3, 75, 127
1, 3628, Note_on_c, 7, 79, 127
1, 3628, Note_on_c, 3, 75, 127
1, 4134, Note_off_c, 3, 75, 127
1, 4134, Note_off_c, 7, 79, 127
1, 4152, Note_on_c, 0, 48, 127
1, 4152, Note_on_c, 7, 79, 127
1, 4152, Note_on_c, 3, 75, 127
1, 4152, Note_on_c, 0, 72, 127
1, 4320, Note_off_c, 0, 72, 127
1, 4320, Note_off_c, 3, 75, 127
1, 4320, Note_off_c, 7, 79, 127
1, 4320, Note_off_c, 0, 48, 127
1, 4322, Note_on_c, 0, 48, 127
1, 4322, Note_on_c, 3, 75, 127
1, 4322, Note_on_c, 0, 72, 127
1, 4322, Note_on_c, 7, 79, 127
1, 4828, Note_off_c, 7, 79, 127
1, 4828, Note_off_c, 0, 72, 127
1, 4828, Note_off_c, 3, 75, 127
1, 4828, Note_off_c, 0, 48, 127
1, 4830, Note_on_c, 2, 50, 127
1, 4830, Note_on_c, 12, 71, 127
1, 4830, Note_on_c, 5, 77, 127
1, 4830, Note_on_c, 2, 74, 127
1, 4998, Note_off_c, 2, 74, 127
1, 4998, Note_off_c, 5, 77, 127
1, 4998, Note_off_c, 12, 71, 127
1, 4998, Note_off_c, 2, 50, 127
1, 5000, Note_on_c, 2, 50, 127
1, 5000, Note_on_c, 2, 74, 127
1, 5000, Note_on_c, 12, 71, 127
1, 5000, Note_on_c, 5, 77, 127
1, 5506, Note_off_c, 5, 77, 127
1, 5506, Note_off_c, 12, 71, 127
1, 5506, Note_off_c, 2, 74, 127
1, 5506, Note_off_c, 2, 50, 127
1, 5508, Note_on_c, 3, 51, 127
1, 5508, Note_on_c, 0, 72, 127
1, 5508, Note_on_c, 3, 75, 127
1, 5508, Note_on_c, 7, 67, 127
1, 5676, Note_off_c, 7, 67, 127
1, 5676, Note_off_c, 3, 75, 127
1, 5676, Note_off_c, 0, 72, 127
1, 5676, Note_off_c, 3, 51, 127
1, 5678, Note_on_c, 3, 51, 127
1, 5678, Note_on_c, 3, 75, 127
1, 5678, Note_on_c, 0, 72, 127
1, 5678, Note_on_c, 7, 67, 127
1, 6184, Note_off_c, 7, 67, 127
1, 6184, Note_off_c, 0, 72, 127
1, 6184, Note_off_c, 3, 75, 127
1, 6184, Note_off_c, 3, 51, 127
1, 6202, Note_on_c, 0, 72, 127
1, 6202, Note_on_c, 7, 67, 127
1, 6202, Note_on_c, 3, 75, 127
1, 6202, Note_on_c, 3, 51, 127
1, 6370, Note_off_c, 3, 51, 127
1, 6370, Note_off_c, 3, 75, 127
1, 6370, Note_off_c, 7, 67, 127
1, 6370, Note_off_c, 0, 72, 127
1, 6372, Note_on_c, 0, 72, 127
1, 6372, Note_on_c, 3, 75, 127
1, 6372, Note_on_c, 7, 67, 127
1, 6372, Note_on_c, 3, 51, 127
1, 6878, Note_off_c, 3, 51, 127
1, 6878, Note_off_c, 7, 67, 127
1, 6878, Note_off_c, 3, 75, 127
1, 6878, Note_off_c, 0, 72, 127
1, 6880, Note_on_c, 3, 75, 127
1, 6880, Note_on_c, 8, 68, 127
1, 6880, Note_on_c, 0, 72, 127
1, 6880, Note_on_c, 5, 53, 127
1, 7048, Note_off_c, 5, 53, 127
1, 7048, Note_off_c, 0, 72, 127
1, 7048, Note_off_c, 8, 68, 127
1, 7048, Note_off_c, 3, 75, 127
1, 7050, Note_on_c, 2, 74, 127
1, 7050, Note_on_c, 8, 68, 127
1, 7050, Note_on_c, 0, 72, 127
1, 7050, Note_on_c, 5, 53, 127
1, 7556, Note_off_c, 5, 53, 127
1, 7556, Note_off_c, 0, 72, 127
1, 7556, Note_off_c, 8, 68, 127
1, 7556, Note_off_c, 2, 74, 127
1, 7574, Note_on_c, 5, 53, 127
1, 7574, Note_on_c, 8, 68, 127
1, 7574, Note_on_c, 0, 72, 127
1, 7574, Note_on_c, 2, 74, 127
1, 7742, Note_off_c, 2, 74, 127
1, 7742, Note_off_c, 0, 72, 127
1, 7742, Note_off_c, 8, 68, 127
1, 7742, Note_off_c, 5, 53, 127
1, 7744, Note_on_c, 7, 55, 127
1, 7744, Note_on_c, 0, 72, 127
1, 7744, Note_on_c, 7, 67, 127
1, 7744, Note_on_c, 2, 74, 127
1, 8420, Note_off_c, 0, 72, 127
1, 8422, Note_on_c, 12, 71, 127
1, 9293, Note_off_c, 12, 71, 127
1, 9298, Note_off_c, 2, 74, 127
1, 9298, Note_off_c, 7, 67, 127
1, 9298, Note_off_c, 7, 55, 127
1, 9777, Note_on_c, 7, 55, 127
1, 9777, Note_on_c, 12, 59, 127
1, 10244, Note_on_c, 7, 79, 127
1, 10398, Note_off_c, 7, 79, 127
1, 10400, Note_on_c, 7, 79, 127
1, 10865, Note_off_c, 7, 79, 127
1, 10867, Note_on_c, 2, 74, 127
1, 11021, Note_off_c, 2, 74, 127
1, 11023, Note_on_c, 2, 74, 127
1, 11398, Note_off_c, 12, 59, 127
1, 11398, Note_off_c, 7, 55, 127
1, 11489, Note_off_c, 2, 74, 127
1, 11491, Note_on_c, 3, 75, 127
1, 11645, Note_off_c, 3, 75, 127
1, 11647, Note_on_c, 0, 48, 127
1, 11647, Note_on_c, 7, 55, 127
1, 11647, Note_on_c, 0, 60, 127
1, 11647, Note_on_c, 3, 75, 127
1, 12114, Note_on_c, 0, 72, 127
1, 12268, Note_off_c, 0, 72, 127
1, 12268, Note_off_c, 0, 60, 127
1, 12268, Note_off_c, 7, 55, 127
1, 12268, Note_off_c, 0, 48, 127
1, 12270, Note_on_c, 0, 48, 127
1, 12270, Note_on_c, 0, 60, 127
1, 12270, Note_on_c, 7, 55, 127
1, 12270, Note_on_c, 0, 72, 127
1, 12735, Note_off_c, 0, 72, 127
1, 12737, Note_on_c, 7, 67, 127
1, 12891, Note_off_c, 7, 67, 127
1, 12891, Note_off_c, 7, 55, 127
1, 12891, Note_off_c, 0, 60, 127
1, 12891, Note_off_c, 0, 48, 127
1, 12891, Note_off_c, 3, 75, 127
1, 12893, Note_on_c, 0, 60, 127
1, 12893, Note_on_c, 7, 55, 127
1, 12893, Note_on_c, 0, 48, 127
1, 12893, Note_on_c, 7, 67, 127
1, 13358, Note_off_c, 7, 67, 127
1, 13360, Note_on_c, 8, 68, 127
1, 13514, Note_off_c, 8, 68, 127
1, 13514, Note_off_c, 0, 48, 127
1, 13514, Note_off_c, 7, 55, 127
1, 13514, Note_off_c, 0, 60, 127
1, 13516, Note_on_c, 5, 53, 127
1, 13516, Note_on_c, 0, 60, 127
1, 13516, Note_on_c, 8, 68, 127
1, 13983, Note_on_c, 5, 77, 127
1, 14137, Note_off_c, 5, 77, 127
1, 14139, Note_on_c, 5, 77, 127
1, 14604, Note_off_c, 5, 77, 127
1, 14606, Note_on_c, 0, 72, 127
1, 14760, Note_off_c, 0, 72, 127
1, 14760, Note_off_c, 8, 68, 127
1, 14762, Note_on_c, 0, 72, 127
1, 15137, Note_off_c, 0, 60, 127
1, 15137, Note_off_c, 5, 53, 127
1, 15228, Note_off_c, 0, 72, 127
1, 15230, Note_on_c, 2, 74, 127
1, 15384, Note_off_c, 2, 74, 127
1, 15386, Note_on_c, 11, 46, 127
1, 15386, Note_on_c, 5, 53, 127
1, 15386, Note_on_c, 11, 58, 127
1, 15386, Note_on_c, 2, 74, 127
1, 15853, Note_on_c, 11, 70, 127
1, 16007, Note_off_c, 11, 70, 127
1, 16007, Note_off_c, 11, 58, 127
1, 16007, Note_off_c, 5, 53, 127
1, 16007, Note_off_c, 11, 46, 127
1, 16009, Note_on_c, 11, 46, 127
1, 16009, Note_on_c, 11, 58, 127
1, 16009, Note_on_c, 5, 53, 127
1, 16009, Note_on_c, 11, 70, 127
1, 16474, Note_off_c, 11, 70, 127
1, 16476, Note_on_c, 5, 65, 127
1, 16630, Note_off_c, 5, 65, 127
1, 16630, Note_off_c, 5, 53, 127
1, 16630, Note_off_c, 11, 58, 127
1, 16630, Note_off_c, 11, 46, 127
1, 16630, Note_off_c, 2, 74, 127
1, 16632, Note_on_c, 11, 46, 127
1, 16632, Note_on_c, 11, 58, 127
1, 16632, Note_on_c, 5, 53, 127
1, 16632, Note_on_c, 5, 65, 127
1, 17097, Note_off_c, 5, 65, 127
1, 17099, Note_on_c, 7, 67, 127
1, 17253, Note_off_c, 7, 67, 127
1, 17253, Note_off_c, 5, 53, 127
1, 17253, Note_off_c, 11, 58, 127
1, 17253, Note_off_c, 11, 46, 127
1, 17255, Note_on_c, 3, 51, 127
1, 17255, Note_on_c, 11, 58, 127
1, 17255, Note_on_c, 7, 67, 127
1, 17722, Note_on_c, 3, 75, 127
1, 17876, Note_off_c, 3, 75, 127
1, 17878, Note_on_c, 3, 75, 127
1, 18188, Note_off_c, 11, 58, 127
1, 18188, Note_off_c, 3, 51, 127
1, 18344, Note_off_c, 3, 75, 127
1, 18346, Note_on_c, 12, 71, 127
1, 18500, Note_off_c, 12, 71, 127
1, 18500, Note_off_c, 7, 67, 127
1, 18502, Note_on_c, 12, 71, 127
1, 18967, Note_off_c, 12, 71, 127
1, 18969, Note_on_c, 0, 72, 127
1, 19123, Note_off_c, 0, 72, 127
1, 19125, Note_on_c, 8, 44, 127
1, 19125, Note_on_c, 8, 56, 127
1, 19125, Note_on_c, 3, 51, 127
1, 19125, Note_on_c, 0, 72, 127
1, 19592, Note_on_c, 8, 68, 127
1, 19746, Note_off_c, 8, 68, 127
1, 19746, Note_off_c, 3, 51, 127
1, 19746, Note_off_c, 8, 56, 127
1, 19746, Note_off_c, 8, 44, 127
1, 19748, Note_on_c, 8, 44, 127
1, 19748, Note_on_c, 3, 51, 127
1, 19748, Note_on_c, 8, 56, 127
1, 19748, Note_on_c, 8, 68, 127
1, 20213, Note_off_c, 8, 68, 127
1, 20215, Note_on_c, 3, 63, 127
1, 20369, Note_off_c, 3, 63, 127
1, 20369, Note_off_c, 8, 56, 127
1, 20369, Note_off_c, 3, 51, 127
1, 20369, Note_off_c, 8, 44, 127
1, 20369, Note_off_c, 0, 72, 127
1, 20371, Note_on_c, 8, 44, 127
1, 20371, Note_on_c, 8, 56, 127
1, 20371, Note_on_c, 3, 51, 127
1, 20371, Note_on_c, 3, 63, 127
1, 20836, Note_off_c, 3, 63, 127
1, 20838, Note_on_c, 5, 65, 127
1, 20992, Note_off_c, 5, 65, 127
1, 20992, Note_off_c, 3, 51, 127
1, 20992, Note_off_c, 8, 56, 127
1, 20992, Note_off_c, 8, 44, 127
1, 20994, Note_on_c, 5, 53, 127
1, 20994, Note_on_c, 2, 50, 127
1, 20994, Note_on_c, 5, 65, 127
1, 21461, Note_on_c, 2, 74, 127
1, 21615, Note_off_c, 2, 74, 127
1, 21617, Note_on_c, 2, 74, 127
1, 22082, Note_off_c, 2, 74, 127
1, 22084, Note_on_c, 10, 69, 127
1, 22238, Note_off_c, 10, 69, 127
1, 22238, Note_off_c, 5, 65, 127
1, 22240, Note_on_c, 5, 77, 127
1, 22240, Note_on_c, 10, 69, 127
1, 22615, Note_off_c, 2, 50, 127
1, 22615, Note_off_c, 5, 53, 127
1, 22706, Note_off_c, 10, 69, 127
1, 22708, Note_on_c, 12, 71, 127
1, 22862, Note_off_c, 12, 71, 127
1, 22864, Note_on_c, 7, 43, 127
1, 22864, Note_on_c, 7, 55, 127
1, 22864, Note_on_c, 2, 50, 127
1, 22864, Note_on_c, 12, 71, 127
1, 23485, Note_off_c, 5, 77, 127
1, 23798, Note_on_c, 7, 79, 127
1, 24108, Note_off_c, 7, 79, 127
1, 24108, Note_off_c, 12, 71, 127
1, 24108, Note_off_c, 2, 50, 127
1, 24108, Note_off_c, 7, 55, 127
1, 24108, Note_off_c, 7, 43, 127
1, 24110, Note_on_c, 0, 48, 127
1, 24110, Note_on_c, 7, 55, 127
1, 24110, Note_on_c, 0, 72, 127
1, 24110, Note_on_c, 3, 75, 127
1, 24575, Note_off_c, 3, 75, 127
1, 24577, Note_on_c, 2, 74, 127
1, 24731, Note_off_c, 2, 74, 127
1, 24731, Note_off_c, 7, 55, 127
1, 24731, Note_off_c, 0, 48, 127
1, 24733, Note_on_c, 5, 41, 127
1, 24733, Note_on_c, 5, 53, 127
1, 24733, Note_on_c, 3, 75, 127
1, 25043, Note_off_c, 3, 75, 127
1, 25043, Note_off_c, 0, 72, 127
1, 25045, Note_on_c, 2, 74, 127
1, 25199, Note_off_c, 2, 74, 127
1, 25199, Note_off_c, 5, 53, 127
1, 25201, Note_on_c, 3, 51, 127
1, 25201, Note_on_c, 0, 72, 127
1, 25350, Note_off_c, 5, 41, 127
1, 25355, Note_off_c, 0, 72, 127
1, 25355, Note_off_c, 3, 51, 127
1, 25357, Note_on_c, 7, 43, 127
1, 25357, Note_on_c, 2, 50, 127
1, 25357, Note_on_c, 7, 67, 127
1, 25357, Note_on_c, 0, 72, 127
1, 25511, Note_off_c, 0, 72, 127
1, 25513, Note_on_c, 12, 71, 127
1, 25589, Note_off_c, 12, 71, 127
1, 25591, Note_on_c, 0, 72, 127
1, 25667, Note_off_c, 0, 72, 127
1, 25669, Note_on_c, 12, 71, 127
1, 25745, Note_off_c, 12, 71, 127
1, 25747, Note_on_c, 0, 72, 127
1, 25823, Note_off_c, 0, 72, 127
1, 25825, Note_on_c, 12, 71, 127
1, 25901, Note_off_c, 12, 71, 127
1, 25903, Note_on_c, 0, 72, 127
1, 25974, Note_off_c, 7, 67, 127
1, 25979, Note_off_c, 0, 72, 127
1, 25979, Note_off_c, 2, 50, 127
1, 25981, Note_on_c, 7, 55, 127
1, 25981, Note_on_c, 5, 65, 127
1, 25981, Note_on_c, 12, 71, 127
1, 26581, Note_off_c, 12, 71, 127
1, 26602, Note_off_c, 5, 65, 127
1, 26602, Note_off_c, 7, 55, 127
1, 26602, Note_off_c, 7, 43, 127
1, 26604, Note_on_c, 0, 48, 127
1, 26604, Note_on_c, 7, 55, 127
1, 26604, Note_on_c, 3, 63, 127
1, 26604, Note_on_c, 0, 72, 127
1, 27069, Note_off_c, 0, 72, 127
1, 27071, Note_on_c, 7, 79, 127
1, 27225, Note_off_c, 7, 79, 127
1, 27225, Note_off_c, 7, 55, 127
1, 27227, Note_on_c, 0, 60, 127
1, 27227, Note_on_c, 7, 79, 127
1, 27692, Note_off_c, 7, 79, 127
1, 27694, Note_on_c, 3, 75, 127
1, 27848, Note_off_c, 3, 75, 127
1, 27848, Note_off_c, 0, 60, 127
1, 27848, Note_off_c, 3, 63, 127
1, 27848, Note_off_c, 0, 48, 127
1, 27850, Note_on_c, 0, 60, 127
1, 27850, Note_on_c, 3, 75, 127
1, 28315, Note_off_c, 3, 75, 127
1, 28317, Note_on_c, 0, 72, 127
1, 28471, Note_off_c, 0, 72, 127
1, 28471, Note_off_c, 0, 60, 127
1, 28473, Note_on_c, 0, 60, 127
1, 28473, Note_on_c, 0, 72, 127
1, 28938, Note_off_c, 0, 72, 127
1, 28940, Note_on_c, 3, 75, 127
1, 29094, Note_off_c, 3, 75, 127
1, 29094, Note_off_c, 0, 60, 127
1, 29096, Note_on_c, 0, 60, 127
1, 29096, Note_on_c, 3, 75, 127
1, 29561, Note_off_c, 3, 75, 127
1, 29563, Note_on_c, 0, 72, 127
1, 29717, Note_off_c, 0, 72, 127
1, 29717, Note_off_c, 0, 60, 127
1, 29719, Note_on_c, 0, 60, 127
1, 29719, Note_on_c, 0, 72, 127
1, 30184, Note_off_c, 0, 72, 127
1, 30186, Note_on_c, 8, 68, 127
1, 30340, Note_off_c, 8, 68, 127
1, 30340, Note_off_c, 0, 60, 127
1, 30342, Note_on_c, 0, 60, 127
1, 30342, Note_on_c, 8, 68, 127
1, 30807, Note_off_c, 8, 68, 127
1, 30809, Note_on_c, 0, 72, 127
1, 30963, Note_off_c, 0, 72, 127
1, 30963, Note_off_c, 0, 60, 127
1, 30965, Note_on_c, 0, 60, 127
1, 30965, Note_on_c, 0, 72, 127
1, 31432, Note_on_c, 8, 68, 127
1, 31586, Note_off_c, 8, 68, 127
1, 31586, Note_off_c, 0, 60, 127
1, 31588, Note_on_c, 0, 60, 127
1, 31588, Note_on_c, 8, 68, 127
1, 32053, Note_off_c, 8, 68, 127
1, 32055, Note_on_c, 6, 66, 127
1, 32209, Note_off_c, 6, 66, 127
1, 32209, Note_off_c, 0, 60, 127
1, 32211, Note_on_c, 2, 50, 127
1, 32211, Note_on_c, 10, 57, 127
1, 32211, Note_on_c, 6, 66, 127
1, 33145, Note_on_c, 2, 74, 127
1, 33155, Note_off_c, 0, 72, 127
1, 33455, Note_off_c, 2, 74, 127
1, 33455, Note_off_c, 6, 66, 127
1, 33455, Note_off_c, 10, 57, 127
1, 33455, Note_off_c, 2, 50, 127
1, 33457, Note_on_c, 7, 55, 127
1, 33457, Note_on_c, 3, 51, 127
1, 33457, Note_on_c, 11, 70, 127
1, 33457, Note_on_c, 7, 67, 127
1, 33922, Note_off_c, 11, 70, 127
1, 33924, Note_on_c, 10, 69, 127
1, 34073, Note_off_c, 7, 67, 127
1, 34078, Note_off_c, 10, 69, 127
1, 34078, Note_off_c, 3, 51, 127
1, 34078, Note_off_c, 7, 55, 127
1, 34080, Note_on_c, 0, 48, 127
1, 34080, Note_on_c, 7, 55, 127
1, 34080, Note_on_c, 7, 67, 127
1, 34080, Note_on_c, 11, 70, 127
1, 34545, Note_off_c, 11, 70, 127
1, 34547, Note_on_c, 0, 72, 127
1, 34701, Note_off_c, 0, 72, 127
1, 34701, Note_off_c, 0, 48, 127
1, 34703, Note_on_c, 2, 50, 127
1, 34703, Note_on_c, 11, 70, 127
1, 34940, Note_on_c, 10, 69, 127
1, 34942, Note_off_c, 11, 70, 127
1, 35002, Note_on_c, 11, 70, 127
1, 35005, Note_off_c, 10, 69, 127
1, 35063, Note_on_c, 10, 69, 127
1, 35066, Note_off_c, 11, 70, 127
1, 35124, Note_on_c, 11, 70, 127
1, 35127, Note_off_c, 10, 69, 127
1, 35185, Note_on_c, 10, 69, 127
1, 35188, Note_off_c, 11, 70, 127
1, 35246, Note_on_c, 11, 70, 127
1, 35249, Note_off_c, 10, 69, 127
1, 35311, Note_off_c, 11, 70, 127
1, 35322, Note_off_c, 7, 67, 127
1, 35322, Note_off_c, 7, 55, 127
1, 35324, Note_on_c, 2, 38, 127
1, 35324, Note_on_c, 6, 66, 127
1, 35324, Note_on_c, 10, 69, 127
1, 35945, Note_off_c, 10, 69, 127
1, 35945, Note_off_c, 6, 66, 127
1, 35945, Note_off_c, 2, 38, 127
1, 35945, Note_off_c, 2, 50, 127
1, 35947, Note_on_c, 7, 43, 127
1, 35947, Note_on_c, 7, 67, 127
1, 36107, Note_on_c, 2, 74, 127
1, 36116, Note_off_c, 7, 67, 127
1, 36249, Note_off_c, 2, 74, 127
1, 36251, Note_on_c, 2, 74, 127
1, 36395, Note_on_c, 11, 70, 127
1, 36431, Note_off_c, 2, 74, 127
1, 36537, Note_off_c, 11, 70, 127
1, 36539, Note_on_c, 11, 70, 127
1, 36683, Note_on_c, 7, 67, 127
1, 36719, Note_off_c, 11, 70, 127
1, 36825, Note_off_c, 7, 67, 127
1, 36827, Note_on_c, 7, 67, 127
1, 36971, Note_on_c, 2, 62, 127
1, 37007, Note_off_c, 7, 67, 127
1, 37097, Note_off_c, 7, 43, 127
1, 37113, Note_off_c, 2, 62, 127
1, 37115, Note_on_c, 2, 62, 127
1, 37259, Note_on_c, 11, 58, 127
1, 37295, Note_off_c, 2, 62, 127
1, 37401, Note_off_c, 11, 58, 127
1, 37403, Note_on_c, 11, 58, 127
1, 37547, Note_on_c, 7, 55, 127
1, 37583, Note_off_c, 11, 58, 127
1, 37689, Note_off_c, 7, 55, 127
1, 37691, Note_on_c, 7, 55, 127
1, 37835, Note_on_c, 12, 59, 127
1, 37977, Note_off_c, 12, 59, 127
1, 37979, Note_on_c, 12, 59, 127
1, 38121, Note_off_c, 12, 59, 127
1, 38123, Note_on_c, 2, 62, 127
1, 38265, Note_off_c, 2, 62, 127
1, 38265, Note_off_c, 7, 55, 127
1, 38267, Note_on_c, 2, 62, 127
1, 38267, Note_on_c, 7, 55, 127
1, 38267, Note_on_c, 12, 59, 127
1, 38409, Note_off_c, 2, 62, 127
1, 38411, Note_on_c, 7, 67, 127
1, 38553, Note_off_c, 7, 67, 127
1, 38555, Note_on_c, 7, 67, 127
1, 38697, Note_off_c, 7, 67, 127
1, 38699, Note_on_c, 12, 71, 127
1, 38841, Note_off_c, 12, 71, 127
1, 38841, Note_off_c, 12, 59, 127
1, 38841, Note_off_c, 7, 55, 127
1, 38843, Note_on_c, 12, 71, 127
1, 38843, Note_on_c, 12, 59, 127
1, 38843, Note_on_c, 2, 62, 127
1, 38843, Note_on_c, 7, 55, 127
1, 38985, Note_off_c, 12, 71, 127
1, 38987, Note_on_c, 2, 74, 127
1, 39129, Note_off_c, 2, 74, 127
1, 39131, Note_on_c, 2, 74, 127
1, 39273, Note_off_c, 2, 74, 127
1, 39275, Note_on_c, 3, 75, 127
1, 39417, Note_off_c, 3, 75, 127
1, 39417, Note_off_c, 7, 55, 127
1, 39417, Note_off_c, 2, 62, 127
1, 39417, Note_off_c, 12, 59, 127
1, 39419, Note_on_c, 3, 75, 127
1, 39419, Note_on_c, 7, 55, 127
1, 39419, Note_on_c, 0, 60, 127
1, 39419, Note_on_c, 0, 48, 127
1, 39561, Note_off_c, 3, 75, 127
1, 39563, Note_on_c, 7, 79, 127
1, 39705, Note_off_c, 7, 79, 127
1, 39707, Note_on_c, 7, 79, 127
1, 39851, Note_on_c, 3, 75, 127
1, 39923, Note_off_c, 7, 79, 127
1, 39993, Note_off_c, 3, 75, 127
1, 39995, Note_on_c, 3, 75, 127
1, 40139, Note_on_c, 0, 72, 127
1, 40211, Note_off_c, 3, 75, 127
1, 40281, Note_off_c, 0, 72, 127
1, 40283, Note_on_c, 0, 72, 127
1, 40427, Note_on_c, 7, 67, 127
1, 40499, Note_off_c, 0, 72, 127
1, 40569, Note_off_c, 7, 67, 127
1, 40571, Note_on_c, 7, 67, 127
1, 40715, Note_on_c, 3, 63, 127
1, 40787, Note_off_c, 7, 67, 127
1, 40857, Note_off_c, 3, 63, 127
1, 40859, Note_on_c, 3, 63, 127
1, 40917, Note_off_c, 0, 48, 127
1, 40917, Note_off_c, 0, 60, 127
1, 40917, Note_off_c, 7, 55, 127
1, 41003, Note_on_c, 0, 60, 127
1, 41039, Note_off_c, 3, 63, 127
1, 41145, Note_off_c, 0, 60, 127
1, 41147, Note_on_c, 0, 60, 127
1, 41291, Note_on_c, 4, 64, 127
1, 41433, Note_off_c, 4, 64, 127
1, 41435, Note_on_c, 4, 64, 127
1, 41577, Note_off_c, 4, 64, 127
1, 41579, Note_on_c, 7, 67, 127
1, 41721, Note_off_c, 7, 67, 127
1, 41721, Note_off_c, 0, 60, 127
1, 41723, Note_on_c, 7, 67, 127
1, 41723, Note_on_c, 4, 64, 127
1, 41723, Note_on_c, 0, 60, 127
1, 41865, Note_off_c, 7, 67, 127
1, 41867, Note_on_c, 0, 72, 127
1, 42009, Note_off_c, 0, 72, 127
1, 42011, Note_on_c, 0, 72, 127
1, 42153, Note_off_c, 0, 72, 127
1, 42155, Note_on_c, 4, 76, 127
1, 42297, Note_off_c, 4, 76, 127
1, 42297, Note_off_c, 0, 60, 127
1, 42297, Note_off_c, 4, 64, 127
1, 42299, Note_on_c, 4, 76, 127
1, 42299, Note_on_c, 7, 67, 127
1, 42299, Note_on_c, 4, 64, 127
1, 42299, Note_on_c, 0, 60, 127
1, 42441, Note_off_c, 4, 76, 127
1, 42443, Note_on_c, 7, 79, 127
1, 42585, Note_off_c, 7, 79, 127
1, 42587, Note_on_c, 7, 79, 127
1, 42729, Note_off_c, 7, 79, 127
1, 42731, Note_on_c, 8, 80, 127
1, 42873, Note_off_c, 8, 80, 127
1, 42873, Note_off_c, 0, 60, 127
1, 42873, Note_off_c, 4, 64, 127
1, 42873, Note_off_c, 7, 67, 127
1, 42875, Note_on_c, 8, 80, 127
1, 42875, Note_on_c, 0, 60, 127
1, 42875, Note_on_c, 5, 65, 127
1, 42875, Note_on_c, 5, 53, 127
1, 43019, Note_on_c, 0, 72, 127
1, 43160, Note_off_c, 8, 80, 127
1, 43162, Note_off_c, 0, 72, 127
1, 43164, Note_on_c, 0, 72, 127
1, 43308, Note_on_c, 8, 68, 127
1, 43380, Note_off_c, 0, 72, 127
1, 43450, Note_off_c, 8, 68, 127
1, 43452, Note_on_c, 8, 68, 127
1, 43578, Note_off_c, 5, 65, 127
1, 43596, Note_on_c, 5, 65, 127
1, 43668, Note_off_c, 8, 68, 127
1, 43738, Note_off_c, 5, 65, 127
1, 43740, Note_on_c, 5, 65, 127
1, 43868, Note_off_c, 0, 60, 127
1, 43884, Note_on_c, 0, 60, 127
1, 43956, Note_off_c, 5, 65, 127
1, 44026, Note_off_c, 0, 60, 127
1, 44028, Note_on_c, 0, 60, 127
1, 44172, Note_on_c, 8, 56, 127
1, 44244, Note_off_c, 0, 60, 127
1, 44314, Note_off_c, 8, 56, 127
1, 44316, Note_on_c, 8, 56, 127
1, 44374, Note_off_c, 5, 53, 127
1, 44460, Note_on_c, 5, 53, 127
1, 44496, Note_off_c, 8, 56, 127
1, 44602, Note_off_c, 5, 53, 127
1, 44604, Note_on_c, 5, 53, 127
1, 44748, Note_on_c, 10, 57, 127
1, 44890, Note_off_c, 10, 57, 127
1, 44892, Note_on_c, 10, 57, 127
1, 45034, Note_off_c, 10, 57, 127
1, 45036, Note_on_c, 0, 60, 127
1, 45178, Note_off_c, 0, 60, 127
1, 45178, Note_off_c, 5, 53, 127
1, 45180, Note_on_c, 0, 60, 127
1, 45180, Note_on_c, 10, 57, 127
1, 45180, Note_on_c, 5, 53, 127
1, 45322, Note_off_c, 0, 60, 127
1, 45324, Note_on_c, 5, 65, 127
1, 45466, Note_off_c, 5, 65, 127
1, 45468, Note_on_c, 5, 65, 127
1, 45610, Note_off_c, 5, 65, 127
1, 45612, Note_on_c, 10, 69, 127
1, 45754, Note_off_c, 10, 69, 127
1, 45754, Note_off_c, 5, 53, 127
1, 45754, Note_off_c, 10, 57, 127
1, 45756, Note_on_c, 10, 69, 127
1, 45756, Note_on_c, 0, 60, 127
1, 45756, Note_on_c, 10, 57, 127
1, 45756, Note_on_c, 5, 53, 127
1, 45898, Note_off_c, 10, 69, 127
1, 45900, Note_on_c, 0, 72, 127
1, 46042, Note_off_c, 0, 72, 127
1, 46044, Note_on_c, 0, 72, 127
1, 46186, Note_off_c, 0, 72, 127
1, 46188, Note_on_c, 1, 73, 127
1, 46330, Note_off_c, 1, 73, 127
1, 46330, Note_off_c, 5, 53, 127
1, 46330, Note_off_c, 10, 57, 127
1, 46330, Note_off_c, 0, 60, 127
1, 46332, Note_on_c, 1, 73, 127
1, 46332, Note_on_c, 11, 58, 127
1, 46332, Note_on_c, 11, 46, 127
1, 46332, Note_on_c, 5, 53, 127
1, 46474, Note_off_c, 1, 73, 127
1, 46476, Note_on_c, 5, 77, 127
1, 46618, Note_off_c, 5, 77, 127
1, 46620, Note_on_c, 5, 77, 127
1, 46764, Note_on_c, 1, 73, 127
1, 46836, Note_off_c, 5, 77, 127
1, 46906, Note_off_c, 1, 73, 127
1, 46908, Note_on_c, 1, 73, 127
1, 47052, Note_on_c, 11, 70, 127
1, 47124, Note_off_c, 1, 73, 127
1, 47194, Note_off_c, 11, 70, 127
1, 47196, Note_on_c, 11, 70, 127
1, 47340, Note_on_c, 5, 65, 127
1, 47412, Note_off_c, 11, 70, 127
1, 47482, Note_off_c, 5, 65, 127
1, 47484, Note_on_c, 5, 65, 127
1, 47628, Note_on_c, 1, 61, 127
1, 47700, Note_off_c, 5, 65, 127
1, 47770, Note_off_c, 1, 61, 127
1, 47772, Note_on_c, 1, 61, 127
1, 47830, Note_off_c, 5, 53, 127
1, 47830, Note_off_c, 11, 46, 127
1, 47830, Note_off_c, 11, 58, 127
1, 47916, Note_on_c, 11, 58, 127
1, 47952, Note_off_c, 1, 61, 127
1, 48058, Note_off_c, 11, 58, 127
1, 48060, Note_on_c, 11, 58, 127
1, 48204, Note_on_c, 2, 62, 127
1, 48346, Note_off_c, 2, 62, 127
1, 48348, Note_on_c, 2, 62, 127
1, 48490, Note_off_c, 2, 62, 127
1, 48492, Note_on_c, 5, 65, 127
1, 48634, Note_off_c, 5, 65, 127
1, 48634, Note_off_c, 11, 58, 127
1, 48636, Note_on_c, 5, 65, 127
1, 48636, Note_on_c, 11, 58, 127
1, 48636, Note_on_c, 2, 62, 127
1, 48778, Note_off_c, 5, 65, 127
1, 48780, Note_on_c, 11, 70, 127
1, 48922, Note_off_c, 11, 70, 127
1, 48924, Note_on_c, 11, 70, 127
1, 49066, Note_off_c, 11, 70, 127
1, 49068, Note_on_c, 2, 74, 127
1, 49210, Note_off_c, 2, 74, 127
1, 49210, Note_off_c, 2, 62, 127
1, 49210, Note_off_c, 11, 58, 127
1, 49212, Note_on_c, 2, 74, 127
1, 49212, Note_on_c, 5, 65, 127
1, 49212, Note_on_c, 11, 58, 127
1, 49212, Note_on_c, 2, 62, 127
1, 49354, Note_off_c, 2, 74, 127
1, 49356, Note_on_c, 5, 77, 127
1, 49498, Note_off_c, 5, 77, 127
1, 49500, Note_on_c, 5, 77, 127
1, 49642, Note_off_c, 5, 77, 127
1, 49644, Note_on_c, 7, 79, 127
1, 49786, Note_off_c, 7, 79, 127
1, 49786, Note_off_c, 2, 62, 127
1, 49786, Note_off_c, 11, 58, 127
1, 49786, Note_off_c, 5, 65, 127
1, 49788, Note_on_c, 7, 79, 127
1, 49788, Note_on_c, 3, 63, 127
1, 49788, Note_on_c, 3, 51, 127
1, 49788, Note_on_c, 11, 58, 127
1, 49932, Note_on_c, 11, 70, 127
1, 50073, Note_off_c, 7, 79, 127
1, 50075, Note_off_c, 11, 70, 127
1, 50077, Note_on_c, 11, 70, 127
1, 50221, Note_on_c, 7, 67, 127
1, 50293, Note_off_c, 11, 70, 127
1, 50363, Note_off_c, 7, 67, 127
1, 50365, Note_on_c, 7, 67, 127
1, 50449, Note_off_c, 3, 63, 127
1, 50509, Note_on_c, 3, 63, 127
1, 50581, Note_off_c, 7, 67, 127
1, 50651, Note_off_c, 3, 63, 127
1, 50653, Note_on_c, 3, 63, 127
1, 50773, Note_off_c, 11, 58, 127
1, 50797, Note_on_c, 11, 58, 127
1, 50869, Note_off_c, 3, 63, 127
1, 50939, Note_off_c, 11, 58, 127
1, 50941, Note_on_c, 11, 58, 127
1, 51085, Note_on_c, 7, 55, 127
1, 51157, Note_off_c, 11, 58, 127
1, 51227, Note_off_c, 7, 55, 127
1, 51229, Note_on_c, 7, 55, 127
1, 51287, Note_off_c, 3, 51, 127
1, 51373, Note_on_c, 3, 51, 127
1, 51409, Note_off_c, 7, 55, 127
1, 51515, Note_off_c, 3, 51, 127
1, 51517, Note_on_c, 3, 51, 127
1, 51661, Note_on_c, 7, 55, 127
1, 51803, Note_off_c, 7, 55, 127
1, 51805, Note_on_c, 7, 55, 127
1, 51947, Note_off_c, 7, 55, 127
1, 51949, Note_on_c, 11, 58, 127
1, 52091, Note_off_c, 11, 58, 127
1, 52091, Note_off_c, 3, 51, 127
1, 52093, Note_on_c, 11, 58, 127
1, 52093, Note_on_c, 7, 55, 127
1, 52093, Note_on_c, 3, 51, 127
1, 52235, Note_off_c, 11, 58, 127
1, 52237, Note_on_c, 3, 63, 127
1, 52379, Note_off_c, 3, 63, 127
1, 52381, Note_on_c, 3, 63, 127
1, 52523, Note_off_c, 3, 63, 127
1, 52525, Note_on_c, 7, 67, 127
1, 52667, Note_off_c, 7, 67, 127
1, 52667, Note_off_c, 3, 51, 127
1, 52667, Note_off_c, 7, 55, 127
1, 52669, Note_on_c, 7, 67, 127
1, 52669, Note_on_c, 7, 55, 127
1, 52669, Note_on_c, 3, 51, 127
1, 52811, Note_off_c, 7, 67, 127
1, 52813, Note_on_c, 12, 71, 127
1, 52955, Note_off_c, 12, 71, 127
1, 52957, Note_on_c, 12, 71, 127
1, 53099, Note_off_c, 12, 71, 127
1, 53101, Note_on_c, 0, 72, 127
1, 53243, Note_off_c, 0, 72, 127
1, 53243, Note_off_c, 3, 51, 127
1, 53243, Note_off_c, 7, 55, 127
1, 53245, Note_on_c, 0, 72, 127
1, 53245, Note_on_c, 7, 55, 127
1, 53245, Note_on_c, 3, 51, 127
1, 53245, Note_on_c, 8, 44, 127
1, 53387, Note_off_c, 0, 72, 127
1, 53389, Note_on_c, 3, 75, 127
1, 53531, Note_off_c, 3, 75, 127
1, 53533, Note_on_c, 3, 75, 127
1, 53677, Note_on_c, 0, 72, 127
1, 53749, Note_off_c, 3, 75, 127
1, 53819, Note_off_c, 0, 72, 127
1, 53821, Note_on_c, 0, 72, 127
1, 53965, Note_on_c, 8, 68, 127
1, 54037, Note_off_c, 0, 72, 127
1, 54107, Note_off_c, 8, 68, 127
1, 54109, Note_on_c, 8, 68, 127
1, 54253, Note_on_c, 3, 63, 127
1, 54325, Note_off_c, 8, 68, 127
1, 54395, Note_off_c, 3, 63, 127
1, 54397, Note_on_c, 3, 63, 127
1, 54541, Note_on_c, 0, 60, 127
1, 54613, Note_off_c, 3, 63, 127
1, 54683, Note_off_c, 0, 60, 127
1, 54685, Note_on_c, 0, 60, 127
1, 54743, Note_off_c, 8, 44, 127
1, 54743, Note_off_c, 3, 51, 127
1, 54743, Note_off_c, 7, 55, 127
1, 54829, Note_on_c, 8, 56, 127
1, 54865, Note_off_c, 0, 60, 127
1, 54971, Note_off_c, 8, 56, 127
1, 54973, Note_on_c, 8, 56, 127
1, 55117, Note_on_c, 0, 60, 127
1, 55259, Note_off_c, 0, 60, 127
1, 55261, Note_on_c, 0, 60, 127
1, 55403, Note_off_c, 0, 60, 127
1, 55405, Note_on_c, 3, 63, 127
1, 55547, Note_off_c, 3, 63, 127
1, 55547, Note_off_c, 8, 56, 127
1, 55549, Note_on_c, 3, 63, 127
1, 55549, Note_on_c, 0, 60, 127
1, 55549, Note_on_c, 8, 56, 127
1, 55691, Note_off_c, 3, 63, 127
1, 55693, Note_on_c, 8, 68, 127
1, 55835, Note_off_c, 8, 68, 127
1, 55837, Note_on_c, 8, 68, 127
1, 55979, Note_off_c, 8, 68, 127
1, 55981, Note_on_c, 0, 72, 127
1, 56123, Note_off_c, 0, 72, 127
1, 56123, Note_off_c, 8, 56, 127
1, 56123, Note_off_c, 0, 60, 127
1, 56125, Note_on_c, 0, 72, 127
1, 56125, Note_on_c, 8, 56, 127
1, 56125, Note_on_c, 0, 60, 127
1, 56267, Note_off_c, 0, 72, 127
1, 56269, Note_on_c, 4, 76, 127
1, 56411, Note_off_c, 4, 76, 127
1, 56413, Note_on_c, 4, 76, 127
1, 56555, Note_off_c, 4, 76, 127
1, 56557, Note_on_c, 5, 77, 127
1, 56699, Note_off_c, 5, 77, 127
1, 56699, Note_off_c, 0, 60, 127
1, 56699, Note_off_c, 8, 56, 127
1, 56701, Note_on_c, 5, 77, 127
1, 56701, Note_on_c, 0, 60, 127
1, 56701, Note_on_c, 2, 50, 127
1, 56701, Note_on_c, 8, 56, 127
1, 56845, Note_on_c, 2, 74, 127
1, 56986, Note_off_c, 5, 77, 127
1, 56988, Note_off_c, 2, 74, 127
1, 56990, Note_on_c, 2, 74, 127
1, 57134, Note_on_c, 8, 68, 127
1, 57206, Note_off_c, 2, 74, 127
1, 57276, Note_off_c, 8, 68, 127
1, 57278, Note_on_c, 8, 68, 127
1, 57422, Note_on_c, 5, 65, 127
1, 57494, Note_off_c, 8, 68, 127
1, 57564, Note_off_c, 5, 65, 127
1, 57566, Note_on_c, 5, 65, 127
1, 57707, Note_off_c, 0, 60, 127
1, 57710, Note_on_c, 2, 62, 127
1, 57782, Note_off_c, 5, 65, 127
1, 57852, Note_off_c, 2, 62, 127
1, 57854, Note_on_c, 2, 62, 127
1, 57977, Note_off_c, 8, 56, 127
1, 57998, Note_on_c, 8, 56, 127
1, 58070, Note_off_c, 2, 62, 127
1, 58140, Note_off_c, 8, 56, 127
1, 58142, Note_on_c, 8, 56, 127
1, 58200, Note_off_c, 2, 50, 127
1, 58286, Note_on_c, 5, 53, 127
1, 58322, Note_off_c, 8, 56, 127
1, 58428, Note_off_c, 5, 53, 127
1, 58430, Note_on_c, 5, 53, 127
1, 58430, Note_on_c, 2, 50, 127
1, 58572, Note_off_c, 5, 53, 127
1, 58574, Note_on_c, 8, 56, 127
1, 58716, Note_off_c, 8, 56, 127
1, 58718, Note_on_c, 8, 56, 127
1, 58860, Note_off_c, 8, 56, 127
1, 58862, Note_on_c, 2, 62, 127
1, 59004, Note_off_c, 2, 62, 127
1, 59004, Note_off_c, 2, 50, 127
1, 59006, Note_on_c, 2, 62, 127
1, 59006, Note_on_c, 2, 50, 127
1, 59006, Note_on_c, 5, 53, 127
1, 59148, Note_off_c, 2, 62, 127
1, 59150, Note_on_c, 5, 65, 127
1, 59292, Note_off_c, 5, 65, 127
1, 59294, Note_on_c, 5, 65, 127
1, 59436, Note_off_c, 5, 65, 127
1, 59438, Note_on_c, 8, 68, 127
1, 59580, Note_off_c, 8, 68, 127
1, 59580, Note_off_c, 5, 53, 127
1, 59580, Note_off_c, 2, 50, 127
1, 59582, Note_on_c, 8, 68, 127
1, 59582, Note_on_c, 5, 53, 127
1, 59582, Note_on_c, 2, 50, 127
1, 59724, Note_off_c, 8, 68, 127
1, 59726, Note_on_c, 0, 72, 127
1, 59868, Note_off_c, 0, 72, 127
1, 59870, Note_on_c, 0, 72, 127
1, 60012, Note_off_c, 0, 72, 127
1, 60014, Note_on_c, 12, 71, 127
1, 60156, Note_off_c, 12, 71, 127
1, 60156, Note_off_c, 2, 50, 127
1, 60156, Note_off_c, 5, 53, 127
1, 60158, Note_on_c, 12, 71, 127
1, 60158, Note_on_c, 5, 53, 127
1, 60158, Note_on_c, 7, 43, 127
1, 60590, Note_on_c, 2, 74, 127
1, 60732, Note_off_c, 2, 74, 127
1, 60732, Note_off_c, 5, 53, 127
1, 60734, Note_on_c, 7, 79, 127
1, 60734, Note_on_c, 3, 51, 127
1, 61020, Note_off_c, 12, 71, 127
1, 61022, Note_on_c, 7, 67, 127
1, 61154, Note_off_c, 7, 79, 127
1, 61164, Note_off_c, 3, 51, 127
1, 61166, Note_on_c, 5, 77, 127
1, 61166, Note_on_c, 2, 50, 127
1, 61307, Note_off_c, 7, 67, 127
1, 61309, Note_off_c, 2, 50, 127
1, 61309, Note_off_c, 5, 77, 127
1, 61309, Note_off_c, 7, 43, 127
1, 61311, Note_on_c, 0, 72, 127
1, 61311, Note_on_c, 3, 75, 127
1, 61311, Note_on_c, 8, 44, 127
1, 61311, Note_on_c, 0, 48, 127
1, 61741, Note_off_c, 3, 75, 127
1, 61743, Note_on_c, 3, 75, 127
1, 61885, Note_off_c, 3, 75, 127
1, 61885, Note_off_c, 0, 48, 127
1, 61885, Note_off_c, 8, 44, 127
1, 61887, Note_on_c, 8, 80, 127
1, 61887, Note_on_c, 5, 41, 127
1, 62173, Note_off_c, 0, 72, 127
1, 62317, Note_off_c, 8, 80, 127
1, 62319, Note_on_c, 2, 74, 127
1, 62319, Note_on_c, 0, 72, 127
1, 62461, Note_off_c, 0, 72, 127
1, 62461, Note_off_c, 2, 74, 127
1, 62461, Note_off_c, 5, 41, 127
1, 62463, Note_on_c, 3, 75, 127
1, 62463, Note_on_c, 0, 72, 127
1, 62463, Note_on_c, 7, 43, 127
1, 62533, Note_off_c, 3, 75, 127
1, 62535, Note_on_c, 2, 74, 127
1, 62605, Note_off_c, 2, 74, 127
1, 62607, Note_on_c, 3, 75, 127
1, 62677, Note_off_c, 3, 75, 127
1, 62679, Note_on_c, 2, 74, 127
1, 62895, Note_on_c, 2, 50, 127
1, 63037, Note_off_c, 2, 50, 127
1, 63037, Note_off_c, 0, 72, 127
1, 63039, Note_on_c, 12, 71, 127
1, 63039, Note_on_c, 7, 55, 127
1, 63469, Note_off_c, 7, 55, 127
1, 63471, Note_on_c, 5, 53, 127
1, 63605, Note_off_c, 2, 74, 127
1, 63614, Note_off_c, 5, 53, 127
1, 63614, Note_off_c, 12, 71, 127
1, 63614, Note_off_c, 7, 43, 127
1, 63616, Note_on_c, 0, 72, 127
1, 63616, Note_on_c, 3, 51, 127
1, 63616, Note_on_c, 0, 48, 127
1, 64119, Note_on_c, 7, 79, 127
1, 64269, Note_off_c, 7, 79, 127
1, 64271, Note_on_c, 8, 80, 127
1, 64525, Note_off_c, 0, 72, 127
1, 64725, Note_off_c, 8, 80, 127
1, 64727, Note_on_c, 7, 79, 127
1, 64829, Note_off_c, 0, 48, 127
1, 64829, Note_off_c, 3, 51, 127
1, 64877, Note_off_c, 7, 79, 127
1, 64879, Note_on_c, 7, 79, 127
1, 65332, Note_off_c, 7, 79, 127
1, 65334, Note_on_c, 5, 77, 127
1, 65484, Note_off_c, 5, 77, 127
1, 65486, Note_on_c, 5, 53, 127
1, 65486, Note_on_c, 8, 56, 127
1, 65486, Note_on_c, 5, 77, 127
1, 65941, Note_on_c, 0, 72, 127
1, 66091, Note_off_c, 0, 72, 127
1, 66093, Note_on_c, 1, 73, 127
1, 66546, Note_off_c, 1, 73, 127
1, 66548, Note_on_c, 0, 72, 127
1, 66698, Note_off_c, 0, 72, 127
1, 66700, Note_on_c, 0, 72, 127
1, 67065, Note_off_c, 8, 56, 127
1, 67065, Note_off_c, 5, 53, 127
1, 67153, Note_off_c, 0, 72, 127
1, 67155, Note_on_c, 12, 71, 127
1, 67305, Note_off_c, 12, 71, 127
1, 67307, Note_on_c, 7, 55, 127
1, 67307, Note_on_c, 12, 71, 127
1, 67787, Note_on_c, 12, 59, 127
1, 67937, Note_off_c, 5, 77, 127
1, 67945, Note_off_c, 12, 59, 127
1, 67947, Note_on_c, 2, 62, 127
1, 68265, Note_off_c, 12, 71, 127
1, 68267, Note_on_c, 7, 79, 127
1, 68267, Note_on_c, 7, 67, 127
1, 68425, Note_off_c, 2, 62, 127
1, 68427, Note_on_c, 3, 63, 127
1, 68585, Note_off_c, 3, 63, 127
1, 68585, Note_off_c, 7, 67, 127
1, 68585, Note_off_c, 7, 79, 127
1, 68585, Note_off_c, 7, 55, 127
1, 68587, Note_on_c, 8, 56, 127
1, 68587, Note_on_c, 0, 60, 127
1, 68587, Note_on_c, 3, 75, 127
1, 68587, Note_on_c, 0, 72, 127
1, 69065, Note_off_c, 3, 75, 127
1, 69065, Note_off_c, 0, 60, 127
1, 69067, Note_on_c, 12, 59, 127
1, 69067, Note_on_c, 2, 74, 127
1, 69220, Note_off_c, 8, 56, 127
1, 69225, Note_off_c, 2, 74, 127
1, 69225, Note_off_c, 12, 59, 127
1, 69227, Note_on_c, 0, 60, 127
1, 69227, Note_on_c, 5, 53, 127
1, 69227, Note_on_c, 3, 75, 127
1, 69545, Note_off_c, 0, 72, 127
1, 69705, Note_off_c, 3, 75, 127
1, 69705, Note_off_c, 0, 60, 127
1, 69707, Note_on_c, 8, 56, 127
1, 69707, Note_on_c, 5, 77, 127
1, 69707, Note_on_c, 2, 74, 127
1, 69860, Note_off_c, 5, 53, 127
1, 69865, Note_off_c, 2, 74, 127
1, 69865, Note_off_c, 5, 77, 127
1, 69865, Note_off_c, 8, 56, 127
1, 69867, Note_on_c, 7, 55, 127
1, 69867, Note_on_c, 3, 75, 127
1, 69867, Note_on_c, 12, 71, 127
1, 70184, Note_off_c, 3, 75, 127
1, 70187, Note_on_c, 2, 74, 127
1, 70265, Note_off_c, 2, 74, 127
1, 70267, Note_on_c, 3, 75, 127
1, 70345, Note_off_c, 3, 75, 127
1, 70347, Note_on_c, 2, 74, 127
1, 70425, Note_off_c, 2, 74, 127
1, 70427, Note_on_c, 3, 75, 127
1, 70505, Note_off_c, 3, 75, 127
1, 70507, Note_on_c, 7, 43, 127
1, 70507, Note_on_c, 2, 74, 127
1, 71140, Note_off_c, 2, 74, 127
1, 71145, Note_off_c, 7, 43, 127
1, 71145, Note_off_c, 12, 71, 127
1, 71187, Note_on_c, 0, 48, 127
1, 71187, Note_on_c, 3, 63, 127
1, 71187, Note_on_c, 0, 72, 127
1, 71187, Note_on_c, 7, 67, 127
1, 73571, Note_off_c, 7, 55, 127
1, 73587, Note_off_c, 7, 67, 127
1, 73587, Note_off_c, 0, 72, 127
1, 73587, Note_off_c, 3, 63, 127
1, 73587, Note_off_c, 0, 48, 127
1, 75138, Note_on_c, 0, 60, 127
1, 75288, Note_off_c, 0, 60, 127
1, 75290, Note_on_c, 2, 62, 127
1, 75440, Note_off_c, 2, 62, 127
1, 75442, Note_on_c, 3, 63, 127
1, 75744, Note_off_c, 3, 63, 127
1, 75746, Note_on_c, 0, 60, 127
1, 76048, Note_off_c, 0, 60, 127
1, 76050, Note_on_c, 2, 62, 127
1, 76352, Note_off_c, 2, 62, 127
1, 76354, Note_on_c, 2, 62, 127
1, 76504, Note_off_c, 2, 62, 127
1, 76506, Note_on_c, 3, 63, 127
1, 76656, Note_off_c, 3, 63, 127
1, 76658, Note_on_c, 5, 65, 127
1, 76960, Note_off_c, 5, 65, 127
1, 76962, Note_on_c, 2, 62, 127
1, 77264, Note_off_c, 2, 62, 127
1, 77266, Note_on_c, 3, 63, 127
1, 77569, Note_on_c, 0, 72, 127
1, 77719, Note_off_c, 0, 72, 127
1, 77721, Note_on_c, 2, 74, 127
1, 77819, Note_off_c, 3, 63, 127
1, 77871, Note_off_c, 2, 74, 127
1, 77873, Note_on_c, 3, 75, 127
1, 77873, Note_on_c, 0, 60, 127
1, 78175, Note_off_c, 3, 75, 127
1, 78177, Note_on_c, 0, 72, 127
1, 78479, Note_off_c, 0, 72, 127
1, 78481, Note_on_c, 2, 74, 127
1, 78783, Note_off_c, 2, 74, 127
1, 78785, Note_on_c, 2, 74, 127
1, 78935, Note_off_c, 2, 74, 127
1, 78937, Note_on_c, 3, 75, 127
1, 79087, Note_off_c, 3, 75, 127
1, 79087, Note_off_c, 0, 60, 127
1, 79089, Note_on_c, 5, 77, 127
1, 79089, Note_on_c, 12, 59, 127
1, 79391, Note_off_c, 5, 77, 127
1, 79393, Note_on_c, 2, 74, 127
1, 79695, Note_off_c, 2, 74, 127
1, 79695, Note_off_c, 12, 59, 127
1, 79697, Note_on_c, 3, 75, 127
1, 79697, Note_on_c, 0, 60, 127
1, 79999, Note_off_c, 0, 60, 127
1, 80001, Note_on_c, 0, 60, 127
1, 80001, Note_on_c, 11, 58, 127
1, 80151, Note_off_c, 0, 60, 127
1, 80153, Note_on_c, 2, 62, 127
1, 80298, Note_off_c, 3, 75, 127
1, 80303, Note_off_c, 2, 62, 127
1, 80303, Note_off_c, 11, 58, 127
1, 80305, Note_on_c, 0, 72, 127
1, 80305, Note_on_c, 3, 63, 127
1, 80305, Note_on_c, 8, 56, 127
1, 80607, Note_off_c, 8, 56, 127
1, 80607, Note_off_c, 3, 63, 127
1, 80609, Note_on_c, 0, 60, 127
1, 80609, Note_on_c, 7, 55, 127
1, 80911, Note_off_c, 7, 55, 127
1, 80911, Note_off_c, 0, 60, 127
1, 80913, Note_on_c, 2, 62, 127
1, 80913, Note_on_c, 5, 53, 127
1, 81215, Note_off_c, 2, 62, 127
1, 81217, Note_on_c, 2, 62, 127
1, 81367, Note_off_c, 2, 62, 127
1, 81369, Note_on_c, 3, 63, 127
1, 81519, Note_off_c, 3, 63, 127
1, 81519, Note_off_c, 5, 53, 127
1, 81519, Note_off_c, 0, 72, 127
1, 81521, Note_on_c, 12, 71, 127
1, 81521, Note_on_c, 5, 65, 127
1, 81521, Note_on_c, 7, 55, 127
1, 81823, Note_off_c, 5, 65, 127
1, 81825, Note_on_c, 2, 62, 127
1, 82122, Note_off_c, 12, 71, 127
1, 82127, Note_off_c, 2, 62, 127
1, 82127, Note_off_c, 7, 55, 127
1, 82129, Note_on_c, 0, 72, 127
1, 82129, Note_on_c, 3, 63, 127
1, 82129, Note_on_c, 0, 60, 127
1, 82431, Note_off_c, 0, 60, 127
1, 82433, Note_on_c, 0, 60, 127
1, 82583, Note_off_c, 0, 60, 127
1, 82585, Note_on_c, 2, 62, 127
1, 82699, Note_off_c, 3, 63, 127
1, 82735, Note_off_c, 2, 62, 127
1, 82737, Note_on_c, 3, 63, 127
1, 82889, Note_off_c, 0, 72, 127
1, 83039, Note_off_c, 3, 63, 127
1, 83041, Note_on_c, 3, 75, 127
1, 83041, Note_on_c, 0, 60, 127
1, 83343, Note_off_c, 0, 60, 127
1, 83343, Note_off_c, 3, 75, 127
1, 83345, Note_on_c, 3, 75, 127
1, 83345, Note_on_c, 11, 58, 127
1, 83495, Note_off_c, 3, 75, 127
1, 83497, Note_on_c, 2, 74, 127
1, 83647, Note_off_c, 2, 74, 127
1, 83647, Note_off_c, 11, 58, 127
1, 83649, Note_on_c, 2, 74, 127
1, 83649, Note_on_c, 7, 55, 127
1, 83799, Note_off_c, 7, 55, 127
1, 83799, Note_off_c, 2, 74, 127
1, 83801, Note_on_c, 7, 79, 127
1, 83801, Note_on_c, 8, 56, 127
1, 83951, Note_off_c, 8, 56, 127
1, 83951, Note_off_c, 7, 79, 127
1, 83953, Note_on_c, 7, 79, 127
1, 83953, Note_on_c, 11, 58, 127
1, 84103, Note_off_c, 7, 79, 127
1, 84105, Note_on_c, 7, 67, 127
1, 84255, Note_off_c, 7, 67, 127
1, 84255, Note_off_c, 11, 58, 127
1, 84257, Note_on_c, 7, 67, 127
1, 84257, Note_on_c, 7, 55, 127
1, 84407, Note_off_c, 7, 67, 127
1, 84409, Note_on_c, 3, 75, 127
1, 84559, Note_off_c, 3, 75, 127
1, 84559, Note_off_c, 7, 55, 127
1, 84561, Note_on_c, 2, 74, 127
1, 84561, Note_on_c, 8, 56, 127
1, 84711, Note_off_c, 2, 74, 127
1, 84713, Note_on_c, 0, 72, 127
1, 84863, Note_off_c, 0, 72, 127
1, 84863, Note_off_c, 8, 56, 127
1, 84865, Note_on_c, 0, 72, 127
1, 84865, Note_on_c, 5, 53, 127
1, 85015, Note_off_c, 5, 53, 127
1, 85015, Note_off_c, 0, 72, 127
1, 85017, Note_on_c, 5, 77, 127
1, 85017, Note_on_c, 7, 55, 127
1, 85167, Note_off_c, 7, 55, 127
1, 85167, Note_off_c, 5, 77, 127
1, 85169, Note_on_c, 5, 77, 127
1, 85169, Note_on_c, 8, 56, 127
1, 85319, Note_off_c, 5, 77, 127
1, 85321, Note_on_c, 5, 65, 127
1, 85471, Note_off_c, 5, 65, 127
1, 85471, Note_off_c, 8, 56, 127
1, 85473, Note_on_c, 5, 65, 127
1, 85473, Note_on_c, 5, 53, 127
1, 85623, Note_off_c, 5, 65, 127
1, 85625, Note_on_c, 2, 74, 127
1, 85775, Note_off_c, 2, 74, 127
1, 85775, Note_off_c, 5, 53, 127
1, 85777, Note_on_c, 0, 72, 127
1, 85777, Note_on_c, 7, 55, 127
1, 86077, Note_off_c, 7, 55, 127
1, 86079, Note_off_c, 0, 72, 127
1, 86081, Note_on_c, 7, 67, 127
1, 86081, Note_on_c, 12, 71, 127
1, 86231, Note_off_c, 7, 67, 127
1, 86233, Note_on_c, 5, 65, 127
1, 86381, Note_off_c, 12, 71, 127
1, 86383, Note_off_c, 5, 65, 127
1, 86385, Note_on_c, 3, 63, 127
1, 86535, Note_off_c, 3, 63, 127
1, 86537, Note_on_c, 2, 62, 127
1, 86687, Note_off_c, 2, 62, 127
1, 86689, Note_on_c, 3, 63, 127
1, 86689, Note_on_c, 7, 67, 127
1, 86839, Note_off_c, 3, 63, 127
1, 86841, Note_on_c, 0, 60, 127
1, 86989, Note_off_c, 7, 67, 127
1, 86991, Note_off_c, 0, 60, 127
1, 86993, Note_on_c, 10, 69, 127
1, 86993, Note_on_c, 5, 65, 127
1, 87143, Note_off_c, 10, 69, 127
1, 87145, Note_on_c, 2, 74, 127
1, 87293, Note_off_c, 5, 65, 127
1, 87295, Note_off_c, 2, 74, 127
1, 87297, Note_on_c, 2, 74, 127
1, 87297, Note_on_c, 5, 53, 127
1, 87447, Note_off_c, 2, 74, 127
1, 87449, Note_on_c, 10, 69, 127
1, 87599, Note_off_c, 10, 69, 127
1, 87599, Note_off_c, 5, 53, 127
1, 87601, Note_on_c, 10, 69, 127
1, 87601, Note_on_c, 6, 54, 127
1, 87751, Note_off_c, 10, 69, 127
1, 87753, Note_on_c, 2, 74, 127
1, 87903, Note_off_c, 2, 74, 127
1, 87903, Note_off_c, 6, 54, 127
1, 87905, Note_on_c, 2, 74, 127
1, 87905, Note_on_c, 6, 66, 127
1, 88055, Note_off_c, 2, 74, 127
1, 88057, Note_on_c, 10, 69, 127
1, 88207, Note_off_c, 10, 69, 127
1, 88207, Note_off_c, 6, 66, 127
1, 88209, Note_on_c, 12, 71, 127
1, 88209, Note_on_c, 7, 67, 127
1, 88359, Note_off_c, 12, 71, 127
1, 88361, Note_on_c, 4, 76, 127
1, 88511, Note_off_c, 4, 76, 127
1, 88511, Note_off_c, 7, 67, 127
1, 88513, Note_on_c, 4, 76, 127
1, 88513, Note_on_c, 7, 55, 127
1, 88663, Note_off_c, 4, 76, 127
1, 88665, Note_on_c, 12, 71, 127
1, 88815, Note_off_c, 12, 71, 127
1, 88815, Note_off_c, 7, 55, 127
1, 88817, Note_on_c, 12, 71, 127
1, 88817, Note_on_c, 7, 55, 127
1, 88967, Note_off_c, 12, 71, 127
1, 88969, Note_on_c, 4, 76, 127
1, 89119, Note_off_c, 4, 76, 127
1, 89119, Note_off_c, 7, 55, 127
1, 89121, Note_on_c, 4, 76, 127
1, 89121, Note_on_c, 7, 67, 127
1, 89271, Note_off_c, 4, 76, 127
1, 89273, Note_on_c, 12, 71, 127
1, 89423, Note_off_c, 12, 71, 127
1, 89423, Note_off_c, 7, 67, 127
1, 89425, Note_on_c, 0, 72, 127
1, 89425, Note_on_c, 8, 68, 127
1, 89575, Note_off_c, 0, 72, 127
1, 89577, Note_on_c, 5, 77, 127
1, 89727, Note_off_c, 5, 77, 127
1, 89727, Note_off_c, 8, 68, 127
1, 89729, Note_on_c, 5, 77, 127
1, 89729, Note_on_c, 8, 56, 127
1, 89879, Note_off_c, 5, 77, 127
1, 89881, Note_on_c, 0, 72, 127
1, 90031, Note_off_c, 0, 72, 127
1, 90031, Note_off_c, 8, 56, 127
1, 90033, Note_on_c, 0, 72, 127
1, 90033, Note_on_c, 10, 57, 127
1, 90183, Note_off_c, 0, 72, 127
1, 90185, Note_on_c, 5, 77, 127
1, 90335, Note_off_c, 5, 77, 127
1, 90335, Note_off_c, 10, 57, 127
1, 90337, Note_on_c, 5, 77, 127
1, 90337, Note_on_c, 10, 69, 127
1, 90487, Note_off_c, 5, 77, 127
1, 90489, Note_on_c, 0, 72, 127
1, 90639, Note_off_c, 0, 72, 127
1, 90639, Note_off_c, 10, 69, 127
1, 90641, Note_on_c, 2, 74, 127
1, 90641, Note_on_c, 11, 70, 127
1, 90791, Note_off_c, 2, 74, 127
1, 90793, Note_on_c, 7, 79, 127
1, 90943, Note_off_c, 7, 79, 127
1, 90943, Note_off_c, 11, 70, 127
1, 90945, Note_on_c, 7, 79, 127
1, 90945, Note_on_c, 11, 58, 127
1, 91095, Note_off_c, 7, 79, 127
1, 91097, Note_on_c, 2, 74, 127
1, 91247, Note_off_c, 2, 74, 127
1, 91247, Note_off_c, 11, 58, 127
1, 91249, Note_on_c, 2, 74, 127
1, 91249, Note_on_c, 12, 59, 127
1, 91399, Note_off_c, 2, 74, 127
1, 91401, Note_on_c, 7, 79, 127
1, 91551, Note_off_c, 7, 79, 127
1, 91551, Note_off_c, 12, 59, 127
1, 91553, Note_on_c, 7, 79, 127
1, 91553, Note_on_c, 12, 71, 127
1, 91703, Note_off_c, 7, 79, 127
1, 91705, Note_on_c, 2, 74, 127
1, 91855, Note_off_c, 2, 74, 127
1, 91855, Note_off_c, 12, 71, 127
1, 91857, Note_on_c, 3, 75, 127
1, 91857, Note_on_c, 0, 72, 127
1, 92159, Note_off_c, 0, 72, 127
1, 92159, Note_off_c, 3, 75, 127
1, 92161, Note_on_c, 2, 74, 127
1, 92161, Note_on_c, 5, 65, 127
1, 92311, Note_off_c, 2, 74, 127
1, 92313, Note_on_c, 0, 72, 127
1, 92463, Note_off_c, 0, 72, 127
1, 92463, Note_off_c, 5, 65, 127
1, 92465, Note_on_c, 0, 72, 127
1, 92465, Note_on_c, 7, 67, 127
1, 92539, Note_off_c, 0, 72, 127
1, 92541, Note_on_c, 12, 71, 127
1, 92615, Note_off_c, 12, 71, 127
1, 92617, Note_on_c, 0, 72, 127
1, 92691, Note_off_c, 0, 72, 127
1, 92693, Note_on_c, 12, 71, 127
1, 92767, Note_off_c, 7, 67, 127
1, 92769, Note_on_c, 7, 55, 127
1, 92921, Note_off_c, 12, 71, 127
1, 92921, Note_on_c, 0, 72, 127
1, 93069, Note_off_c, 7, 55, 127
1, 93071, Note_off_c, 0, 72, 127
1, 93073, Note_on_c, 0, 72, 127
1, 93073, Note_on_c, 0, 60, 127
1, 93375, Note_off_c, 0, 60, 127
1, 93377, Note_on_c, 3, 63, 127
1, 93377, Note_on_c, 0, 48, 127
1, 93527, Note_off_c, 0, 48, 127
1, 93527, Note_off_c, 3, 63, 127
1, 93529, Note_on_c, 5, 65, 127
1, 93529, Note_on_c, 2, 50, 127
1, 93679, Note_off_c, 2, 50, 127
1, 93679, Note_off_c, 5, 65, 127
1, 93681, Note_on_c, 7, 67, 127
1, 93681, Note_on_c, 3, 51, 127
1, 93983, Note_off_c, 3, 51, 127
1, 93983, Note_off_c, 7, 67, 127
1, 93983, Note_off_c, 0, 72, 127
1, 93985, Note_on_c, 4, 64, 127
1, 93985, Note_on_c, 7, 67, 127
1, 93985, Note_on_c, 0, 60, 127
1, 93985, Note_on_c, 0, 48, 127
1, 94287, Note_off_c, 0, 48, 127
1, 94287, Note_off_c, 0, 60, 127
1, 94287, Note_off_c, 7, 67, 127
1, 94287, Note_off_c, 4, 64, 127
1, 94289, Note_on_c, 10, 69, 127
1, 94289, Note_on_c, 5, 65, 127
1, 94289, Note_on_c, 5, 53, 127
1, 94289, Note_on_c, 0, 60, 127
1, 94439, Note_off_c, 10, 69, 127
1, 94441, Note_on_c, 2, 74, 127
1, 94589, Note_off_c, 0, 60, 127
1, 94589, Note_off_c, 5, 65, 127
1, 94591, Note_off_c, 2, 74, 127
1, 94591, Note_off_c, 5, 53, 127
1, 94593, Note_on_c, 2, 74, 127
1, 94593, Note_on_c, 2, 50, 127
1, 94743, Note_off_c, 2, 50, 127
1, 94743, Note_off_c, 2, 74, 127
1, 94745, Note_on_c, 10, 69, 127
1, 94745, Note_on_c, 3, 51, 127
1, 94895, Note_off_c, 3, 51, 127
1, 94895, Note_off_c, 10, 69, 127
1, 94897, Note_on_c, 10, 69, 127
1, 94897, Note_on_c, 5, 53, 127
1, 95047, Note_off_c, 10, 69, 127
1, 95049, Note_on_c, 2, 74, 127
1, 95199, Note_off_c, 2, 74, 127
1, 95199, Note_off_c, 5, 53, 127
1, 95201, Note_on_c, 2, 62, 127
1, 95201, Note_on_c, 2, 74, 127
1, 95201, Note_on_c, 10, 57, 127
1, 95201, Note_on_c, 6, 54, 127
1, 95351, Note_off_c, 2, 74, 127
1, 95353, Note_on_c, 10, 69, 127
1, 95501, Note_off_c, 2, 62, 127
1, 95503, Note_off_c, 10, 69, 127
1, 95503, Note_off_c, 6, 54, 127
1, 95503, Note_off_c, 10, 57, 127
1, 95505, Note_on_c, 2, 62, 127
1, 95505, Note_on_c, 12, 71, 127
1, 95505, Note_on_c, 7, 55, 127
1, 95655, Note_off_c, 12, 71, 127
1, 95657, Note_on_c, 3, 75, 127
1, 95805, Note_off_c, 2, 62, 127
1, 95807, Note_off_c, 3, 75, 127
1, 95807, Note_off_c, 7, 55, 127
1, 95809, Note_on_c, 3, 75, 127
1, 95809, Note_on_c, 3, 51, 127
1, 95959, Note_off_c, 3, 51, 127
1, 95959, Note_off_c, 3, 75, 127
1, 95961, Note_on_c, 12, 71, 127
1, 95961, Note_on_c, 5, 53, 127
1, 96111, Note_off_c, 5, 53, 127
1, 96111, Note_off_c, 12, 71, 127
1, 96113, Note_on_c, 12, 71, 127
1, 96113, Note_on_c, 7, 55, 127
1, 96263, Note_off_c, 12, 71, 127
1, 96265, Note_on_c, 3, 75, 127
1, 96415, Note_off_c, 3, 75, 127
1, 96415, Note_off_c, 7, 55, 127
1, 96417, Note_on_c, 3, 75, 127
1, 96417, Note_on_c, 3, 63, 127
1, 96417, Note_on_c, 3, 51, 127
1, 96417, Note_on_c, 7, 55, 127
1, 96567, Note_off_c, 3, 75, 127
1, 96569, Note_on_c, 12, 71, 127
1, 96717, Note_off_c, 3, 63, 127
1, 96719, Note_off_c, 12, 71, 127
1, 96719, Note_off_c, 7, 55, 127
1, 96719, Note_off_c, 3, 51, 127
1, 96721, Note_on_c, 3, 63, 127
1, 96721, Note_on_c, 0, 72, 127
1, 96721, Note_on_c, 0, 60, 127
1, 96721, Note_on_c, 8, 56, 127
1, 96871, Note_off_c, 0, 72, 127
1, 96873, Note_on_c, 5, 77, 127
1, 97021, Note_off_c, 3, 63, 127
1, 97023, Note_off_c, 5, 77, 127
1, 97023, Note_off_c, 8, 56, 127
1, 97023, Note_off_c, 0, 60, 127
1, 97025, Note_on_c, 5, 77, 127
1, 97025, Note_on_c, 5, 53, 127
1, 97175, Note_off_c, 5, 53, 127
1, 97175, Note_off_c, 5, 77, 127
1, 97177, Note_on_c, 0, 72, 127
1, 97177, Note_on_c, 7, 55, 127
1, 97327, Note_off_c, 7, 55, 127
1, 97327, Note_off_c, 0, 72, 127
1, 97329, Note_on_c, 0, 72, 127
1, 97329, Note_on_c, 8, 56, 127
1, 97479, Note_off_c, 0, 72, 127
1, 97481, Note_on_c, 5, 77, 127
1, 97631, Note_off_c, 5, 77, 127
1, 97631, Note_off_c, 8, 56, 127
1, 97633, Note_on_c, 5, 77, 127
1, 97633, Note_on_c, 5, 65, 127
1, 97633, Note_on_c, 0, 60, 127
1, 97633, Note_on_c, 10, 57, 127
1, 97783, Note_off_c, 5, 77, 127
1, 97785, Note_on_c, 0, 72, 127
1, 97933, Note_off_c, 5, 65, 127
1, 97935, Note_off_c, 0, 72, 127
1, 97935, Note_off_c, 10, 57, 127
1, 97935, Note_off_c, 0, 60, 127
1, 97937, Note_on_c, 5, 65, 127
1, 97937, Note_on_c, 2, 74, 127
1, 97937, Note_on_c, 11, 58, 127
1, 98087, Note_off_c, 2, 74, 127
1, 98089, Note_on_c, 7, 79, 127
1, 98237, Note_off_c, 5, 65, 127
1, 98239, Note_off_c, 7, 79, 127
1, 98239, Note_off_c, 11, 58, 127
1, 98241, Note_on_c, 7, 79, 127
1, 98241, Note_on_c, 7, 55, 127
1, 98391, Note_off_c, 7, 55, 127
1, 98391, Note_off_c, 7, 79, 127
1, 98393, Note_on_c, 2, 74, 127
1, 98393, Note_on_c, 8, 56, 127
1, 98543, Note_off_c, 8, 56, 127
1, 98543, Note_off_c, 2, 74, 127
1, 98545, Note_on_c, 2, 74, 127
1, 98545, Note_on_c, 11, 58, 127
1, 98695, Note_off_c, 2, 74, 127
1, 98697, Note_on_c, 7, 79, 127
1, 98847, Note_off_c, 7, 79, 127
1, 98847, Note_off_c, 11, 58, 127
1, 98849, Note_on_c, 7, 67, 127
1, 98849, Note_on_c, 7, 79, 127
1, 98849, Note_on_c, 2, 62, 127
1, 98849, Note_on_c, 12, 59, 127
1, 98999, Note_off_c, 7, 79, 127
1, 99001, Note_on_c, 2, 74, 127
1, 99149, Note_off_c, 7, 67, 127
1, 99151, Note_off_c, 2, 74, 127
1, 99151, Note_off_c, 12, 59, 127
1, 99151, Note_off_c, 2, 62, 127
1, 99153, Note_on_c, 3, 75, 127
1, 99153, Note_on_c, 0, 60, 127
1, 99455, Note_off_c, 0, 60, 127
1, 99455, Note_off_c, 3, 75, 127
1, 99457, Note_on_c, 8, 80, 127
1, 99457, Note_on_c, 2, 74, 127
1, 99457, Note_on_c, 5, 53, 127
1, 99607, Note_off_c, 2, 74, 127
1, 99609, Note_on_c, 0, 72, 127
1, 99757, Note_off_c, 8, 80, 127
1, 99759, Note_off_c, 0, 72, 127
1, 99759, Note_off_c, 5, 53, 127
1, 99761, Note_on_c, 12, 71, 127
1, 99761, Note_on_c, 7, 55, 127
1, 99862, Note_on_c, 0, 72, 127
1, 99961, Note_off_c, 0, 72, 127
1, 99963, Note_on_c, 2, 74, 127
1, 100064, Note_on_c, 7, 43, 127
1, 100203, Note_off_c, 2, 74, 127
1, 100214, Note_off_c, 12, 71, 127
1, 100216, Note_on_c, 0, 72, 127
1, 100361, Note_off_c, 7, 55, 127
1, 100366, Note_off_c, 0, 72, 127
1, 100366, Note_off_c, 7, 43, 127
1, 100368, Note_on_c, 0, 72, 127
1, 100368, Note_on_c, 0, 48, 127
1, 100368, Note_on_c, 3, 51, 127
1, 100518, Note_off_c, 0, 72, 127
1, 100520, Note_on_c, 7, 67, 127
1, 100670, Note_off_c, 7, 67, 127
1, 100670, Note_off_c, 3, 51, 127
1, 100670, Note_off_c, 0, 48, 127
1, 100672, Note_on_c, 7, 67, 127
1, 100672, Note_on_c, 0, 60, 127
1, 100822, Note_off_c, 7, 67, 127
1, 100824, Note_on_c, 0, 72, 127
1, 100974, Note_off_c, 0, 72, 127
1, 100974, Note_off_c, 0, 60, 127
1, 100976, Note_on_c, 0, 72, 127
1, 100976, Note_on_c, 3, 63, 127
1, 101126, Note_off_c, 0, 72, 127
1, 101128, Note_on_c, 7, 67, 127
1, 101278, Note_off_c, 7, 67, 127
1, 101278, Note_off_c, 3, 63, 127
1, 101280, Note_on_c, 0, 72, 127
1, 101280, Note_on_c, 0, 60, 127
1, 101430, Note_off_c, 0, 72, 127
1, 101432, Note_on_c, 3, 75, 127
1, 101582, Note_off_c, 3, 75, 127
1, 101582, Note_off_c, 0, 60, 127
1, 101584, Note_on_c, 2, 74, 127
1, 101584, Note_on_c, 7, 67, 127
1, 101729, Note_off_c, 7, 67, 127
1, 101734, Note_off_c, 2, 74, 127
1, 101736, Note_on_c, 7, 67, 127
1, 101886, Note_off_c, 7, 67, 127
1, 101888, Note_on_c, 7, 67, 127
1, 101888, Note_on_c, 7, 55, 127
1, 102038, Note_off_c, 7, 67, 127
1, 102040, Note_on_c, 2, 74, 127
1, 102190, Note_off_c, 2, 74, 127
1, 102190, Note_off_c, 7, 55, 127
1, 102192, Note_on_c, 2, 74, 127
1, 102192, Note_on_c, 12, 59, 127
1, 102342, Note_off_c, 2, 74, 127
1, 102344, Note_on_c, 7, 67, 127
1, 102494, Note_off_c, 7, 67, 127
1, 102494, Note_off_c, 12, 59, 127
1, 102496, Note_on_c, 2, 74, 127
1, 102496, Note_on_c, 7, 55, 127
1, 102646, Note_off_c, 2, 74, 127
1, 102648, Note_on_c, 5, 77, 127
1, 102798, Note_off_c, 5, 77, 127
1, 102798, Note_off_c, 7, 55, 127
1, 102800, Note_on_c, 3, 75, 127
1, 102800, Note_on_c, 0, 60, 127
1, 102950, Note_off_c, 3, 75, 127
1, 102952, Note_on_c, 0, 72, 127
1, 103102, Note_off_c, 0, 72, 127
1, 103102, Note_off_c, 0, 60, 127
1, 103104, Note_on_c, 0, 72, 127
1, 103104, Note_on_c, 7, 67, 127
1, 103254, Note_off_c, 0, 72, 127
1, 103256, Note_on_c, 3, 75, 127
1, 103406, Note_off_c, 3, 75, 127
1, 103406, Note_off_c, 7, 67, 127
1, 103408, Note_on_c, 3, 75, 127
1, 103408, Note_on_c, 3, 63, 127
1, 103558, Note_off_c, 3, 75, 127
1, 103560, Note_on_c, 0, 72, 127
1, 103710, Note_off_c, 0, 72, 127
1, 103710, Note_off_c, 3, 63, 127
1, 103712, Note_on_c, 3, 75, 127
1, 103712, Note_on_c, 0, 60, 127
1, 103862, Note_off_c, 3, 75, 127
1, 103864, Note_on_c, 7, 79, 127
1, 104014, Note_off_c, 7, 79, 127
1, 104014, Note_off_c, 0, 60, 127
1, 104016, Note_on_c, 5, 77, 127
1, 104016, Note_on_c, 2, 62, 127
1, 104166, Note_off_c, 5, 77, 127
1, 104168, Note_on_c, 11, 70, 127
1, 104318, Note_off_c, 11, 70, 127
1, 104318, Note_off_c, 2, 62, 127
1, 104320, Note_on_c, 11, 70, 127
1, 104320, Note_on_c, 5, 65, 127
1, 104470, Note_off_c, 11, 70, 127
1, 104472, Note_on_c, 5, 77, 127
1, 104622, Note_off_c, 5, 77, 127
1, 104622, Note_off_c, 5, 65, 127
1, 104624, Note_on_c, 5, 77, 127
1, 104624, Note_on_c, 2, 62, 127
1, 104774, Note_off_c, 5, 77, 127
1, 104776, Note_on_c, 11, 70, 127
1, 104926, Note_off_c, 11, 70, 127
1, 104926, Note_off_c, 2, 62, 127
1, 104928, Note_on_c, 5, 77, 127
1, 104928, Note_on_c, 11, 58, 127
1, 105078, Note_off_c, 5, 77, 127
1, 105080, Note_on_c, 11, 82, 127
1, 105230, Note_off_c, 11, 82, 127
1, 105230, Note_off_c, 11, 58, 127
1, 105232, Note_on_c, 7, 79, 127
1, 105232, Note_on_c, 3, 51, 127
1, 105534, Note_off_c, 3, 51, 127
1, 105536, Note_on_c, 3, 63, 127
1, 105686, Note_off_c, 3, 63, 127
1, 105688, Note_on_c, 5, 65, 127
1, 105802, Note_off_c, 7, 79, 127
1, 105838, Note_off_c, 5, 65, 127
1, 105840, Note_on_c, 3, 75, 127
1, 105840, Note_on_c, 7, 67, 127
1, 106142, Note_off_c, 7, 67, 127
1, 106144, Note_on_c, 3, 63, 127
1, 106446, Note_off_c, 3, 63, 127
1, 106448, Note_on_c, 5, 65, 127
1, 106750, Note_off_c, 5, 65, 127
1, 106752, Note_on_c, 5, 65, 127
1, 106902, Note_off_c, 5, 65, 127
1, 106904, Note_on_c, 7, 67, 127
1, 107054, Note_off_c, 7, 67, 127
1, 107054, Note_off_c, 3, 75, 127
1, 107056, Note_on_c, 2, 74, 127
1, 107056, Note_on_c, 8, 68, 127
1, 107358, Note_off_c, 8, 68, 127
1, 107360, Note_on_c, 5, 65, 127
1, 107662, Note_off_c, 5, 65, 127
1, 107662, Note_off_c, 2, 74, 127
1, 107664, Note_on_c, 3, 75, 127
1, 107664, Note_on_c, 7, 67, 127
1, 107966, Note_off_c, 3, 75, 127
1, 107968, Note_on_c, 3, 75, 127
1, 108118, Note_off_c, 3, 75, 127
1, 108120, Note_on_c, 5, 77, 127
1, 108218, Note_off_c, 7, 67, 127
1, 108270, Note_off_c, 5, 77, 127
1, 108272, Note_on_c, 7, 79, 127
1, 108272, Note_on_c, 3, 63, 127
1, 108574, Note_off_c, 7, 79, 127
1, 108576, Note_on_c, 3, 75, 127
1, 108878, Note_off_c, 3, 75, 127
1, 108880, Note_on_c, 5, 77, 127
1, 109182, Note_off_c, 5, 77, 127
1, 109184, Note_on_c, 5, 77, 127
1, 109334, Note_off_c, 5, 77, 127
1, 109336, Note_on_c, 7, 79, 127
1, 109486, Note_off_c, 7, 79, 127
1, 109486, Note_off_c, 3, 63, 127
1, 109488, Note_on_c, 8, 80, 127
1, 109488, Note_on_c, 2, 62, 127
1, 109790, Note_off_c, 8, 80, 127
1, 109792, Note_on_c, 5, 77, 127
1, 110094, Note_off_c, 5, 77, 127
1, 110094, Note_off_c, 2, 62, 127
1, 110096, Note_on_c, 7, 79, 127
1, 110096, Note_on_c, 3, 63, 127
1, 110398, Note_off_c, 3, 63, 127
1, 110398, Note_off_c, 7, 79, 127
1, 110400, Note_on_c, 7, 79, 127
1, 110400, Note_on_c, 3, 75, 127
1, 110400, Note_on_c, 0, 48, 127
1, 110550, Note_off_c, 0, 48, 127
1, 110552, Note_on_c, 2, 50, 127
1, 110702, Note_off_c, 2, 50, 127
1, 110702, Note_off_c, 3, 75, 127
1, 110702, Note_off_c, 7, 79, 127
1, 110704, Note_on_c, 3, 75, 127
1, 110704, Note_on_c, 8, 80, 127
1, 110704, Note_on_c, 3, 51, 127
1, 110778, Note_off_c, 8, 80, 127
1, 110780, Note_on_c, 7, 79, 127
1, 110854, Note_off_c, 7, 79, 127
1, 110856, Note_on_c, 8, 80, 127
1, 110930, Note_off_c, 8, 80, 127
1, 110932, Note_on_c, 7, 79, 127
1, 111006, Note_off_c, 7, 79, 127
1, 111006, Note_off_c, 3, 51, 127
1, 111008, Note_on_c, 8, 80, 127
1, 111008, Note_on_c, 0, 48, 127
1, 111082, Note_off_c, 8, 80, 127
1, 111084, Note_on_c, 7, 79, 127
1, 111158, Note_off_c, 7, 79, 127
1, 111160, Note_on_c, 5, 77, 127
1, 111234, Note_off_c, 5, 77, 127
1, 111236, Note_on_c, 7, 79, 127
1, 111305, Note_off_c, 3, 75, 127
1, 111310, Note_off_c, 7, 79, 127
1, 111310, Note_off_c, 0, 48, 127
1, 111312, Note_on_c, 5, 77, 127
1, 111312, Note_on_c, 8, 80, 127
1, 111312, Note_on_c, 5, 53, 127
1, 111462, Note_off_c, 5, 53, 127
1, 111462, Note_off_c, 5, 77, 127
1, 111464, Note_on_c, 0, 72, 127
1, 111464, Note_on_c, 8, 68, 127
1, 111612, Note_off_c, 8, 80, 127
1, 111614, Note_off_c, 8, 68, 127
1, 111614, Note_off_c, 0, 72, 127
1, 111616, Note_on_c, 11, 70, 127
1, 111616, Note_on_c, 5, 53, 127
1, 111766, Note_off_c, 5, 53, 127
1, 111766, Note_off_c, 11, 70, 127
1, 111768, Note_on_c, 0, 72, 127
1, 111768, Note_on_c, 7, 67, 127
1, 111918, Note_off_c, 7, 67, 127
1, 111918, Note_off_c, 0, 72, 127
1, 111920, Note_on_c, 8, 68, 127
1, 111920, Note_on_c, 5, 53, 127
1, 112070, Note_off_c, 5, 53, 127
1, 112070, Note_off_c, 8, 68, 127
1, 112072, Note_on_c, 11, 70, 127
1, 112072, Note_on_c, 5, 65, 127
1, 112222, Note_off_c, 5, 65, 127
1, 112222, Note_off_c, 11, 70, 127
1, 112224, Note_on_c, 7, 67, 127
1, 112224, Note_on_c, 5, 53, 127
1, 112374, Note_off_c, 5, 53, 127
1, 112374, Note_off_c, 7, 67, 127
1, 112376, Note_on_c, 8, 68, 127
1, 112376, Note_on_c, 3, 63, 127
1, 112526, Note_off_c, 3, 63, 127
1, 112526, Note_off_c, 8, 68, 127
1, 112528, Note_on_c, 5, 65, 127
1, 112528, Note_on_c, 11, 58, 127
1, 112528, Note_on_c, 2, 62, 127
1, 112830, Note_off_c, 2, 62, 127
1, 112830, Note_off_c, 11, 58, 127
1, 112830, Note_off_c, 5, 65, 127
1, 112832, Note_on_c, 5, 77, 127
1, 112832, Note_on_c, 2, 74, 127
1, 112832, Note_on_c, 11, 46, 127
1, 112982, Note_off_c, 11, 46, 127
1, 112984, Note_on_c, 0, 48, 127
1, 113134, Note_off_c, 0, 48, 127
1, 113134, Note_off_c, 2, 74, 127
1, 113134, Note_off_c, 5, 77, 127
1, 113136, Note_on_c, 7, 79, 127
1, 113136, Note_on_c, 2, 74, 127
1, 113136, Note_on_c, 2, 50, 127
1, 113210, Note_off_c, 7, 79, 127
1, 113212, Note_on_c, 5, 77, 127
1, 113286, Note_off_c, 5, 77, 127
1, 113288, Note_on_c, 7, 79, 127
1, 113362, Note_off_c, 7, 79, 127
1, 113364, Note_on_c, 5, 77, 127
1, 113438, Note_off_c, 5, 77, 127
1, 113438, Note_off_c, 2, 50, 127
1, 113440, Note_on_c, 7, 79, 127
1, 113440, Note_on_c, 11, 46, 127
1, 113514, Note_off_c, 7, 79, 127
1, 113516, Note_on_c, 5, 77, 127
1, 113590, Note_off_c, 5, 77, 127
1, 113592, Note_on_c, 3, 75, 127
1, 113666, Note_off_c, 3, 75, 127
1, 113668, Note_on_c, 5, 77, 127
1, 113737, Note_off_c, 2, 74, 127
1, 113742, Note_off_c, 5, 77, 127
1, 113742, Note_off_c, 11, 46, 127
1, 113744, Note_on_c, 7, 79, 127
1, 113744, Note_on_c, 3, 51, 127
1, 113894, Note_off_c, 3, 51, 127
1, 113896, Note_on_c, 11, 70, 127
1, 113896, Note_on_c, 7, 67, 127
1, 114044, Note_off_c, 7, 79, 127
1, 114046, Note_off_c, 7, 67, 127
1, 114046, Note_off_c, 11, 70, 127
1, 114048, Note_on_c, 8, 68, 127
1, 114048, Note_on_c, 3, 51, 127
1, 114198, Note_off_c, 3, 51, 127
1, 114198, Note_off_c, 8, 68, 127
1, 114200, Note_on_c, 11, 70, 127
1, 114200, Note_on_c, 5, 65, 127
1, 114350, Note_off_c, 5, 65, 127
1, 114350, Note_off_c, 11, 70, 127
1, 114352, Note_on_c, 7, 67, 127
1, 114352, Note_on_c, 3, 51, 127
1, 114502, Note_off_c, 3, 51, 127
1, 114502, Note_off_c, 7, 67, 127
1, 114504, Note_on_c, 8, 68, 127
1, 114504, Note_on_c, 3, 63, 127
1, 114654, Note_off_c, 3, 63, 127
1, 114654, Note_off_c, 8, 68, 127
1, 114656, Note_on_c, 5, 65, 127
1, 114656, Note_on_c, 3, 51, 127
1, 114806, Note_off_c, 3, 51, 127
1, 114806, Note_off_c, 5, 65, 127
1, 114808, Note_on_c, 7, 67, 127
1, 114808, Note_on_c, 2, 62, 127
1, 114958, Note_off_c, 2, 62, 127
1, 114958, Note_off_c, 7, 67, 127
1, 114960, Note_on_c, 3, 63, 127
1, 114960, Note_on_c, 0, 60, 127
1, 114960, Note_on_c, 8, 56, 127
1, 115262, Note_off_c, 8, 56, 127
1, 115262, Note_off_c, 0, 60, 127
1, 115262, Note_off_c, 3, 63, 127
1, 115264, Note_on_c, 3, 75, 127
1, 115264, Note_on_c, 0, 72, 127
1, 115264, Note_on_c, 8, 44, 127
1, 115414, Note_off_c, 8, 44, 127
1, 115416, Note_on_c, 11, 46, 127
1, 115566, Note_off_c, 11, 46, 127
1, 115566, Note_off_c, 0, 72, 127
1, 115566, Note_off_c, 3, 75, 127
1, 115568, Note_on_c, 0, 72, 127
1, 115568, Note_on_c, 5, 77, 127
1, 115568, Note_on_c, 0, 48, 127
1, 115642, Note_off_c, 5, 77, 127
1, 115644, Note_on_c, 3, 75, 127
1, 115718, Note_off_c, 3, 75, 127
1, 115720, Note_on_c, 5, 77, 127
1, 115794, Note_off_c, 5, 77, 127
1, 115796, Note_on_c, 3, 75, 127
1, 115870, Note_off_c, 3, 75, 127
1, 115870, Note_off_c, 0, 48, 127
1, 115872, Note_on_c, 5, 77, 127
1, 115872, Note_on_c, 8, 44, 127
1, 115946, Note_off_c, 5, 77, 127
1, 115948, Note_on_c, 3, 75, 127
1, 116022, Note_off_c, 3, 75, 127
1, 116024, Note_on_c, 2, 74, 127
1, 116098, Note_off_c, 2, 74, 127
1, 116100, Note_on_c, 3, 75, 127
1, 116169, Note_off_c, 0, 72, 127
1, 116174, Note_off_c, 3, 75, 127
1, 116174, Note_off_c, 8, 44, 127
1, 116176, Note_on_c, 2, 74, 127
1, 116176, Note_on_c, 5, 77, 127
1, 116176, Note_on_c, 2, 50, 127
1, 116326, Note_off_c, 2, 50, 127
1, 116326, Note_off_c, 2, 74, 127
1, 116328, Note_on_c, 8, 68, 127
1, 116328, Note_on_c, 5, 65, 127
1, 116476, Note_off_c, 5, 77, 127
1, 116478, Note_off_c, 5, 65, 127
1, 116478, Note_off_c, 8, 68, 127
1, 116480, Note_on_c, 7, 67, 127
1, 116480, Note_on_c, 2, 50, 127
1, 116630, Note_off_c, 2, 50, 127
1, 116630, Note_off_c, 7, 67, 127
1, 116632, Note_on_c, 8, 68, 127
1, 116632, Note_on_c, 3, 63, 127
1, 116782, Note_off_c, 3, 63, 127
1, 116782, Note_off_c, 8, 68, 127
1, 116784, Note_on_c, 5, 65, 127
1, 116784, Note_on_c, 2, 50, 127
1, 116934, Note_off_c, 2, 50, 127
1, 116934, Note_off_c, 5, 65, 127
1, 116936, Note_on_c, 7, 67, 127
1, 116936, Note_on_c, 2, 62, 127
1, 117086, Note_off_c, 2, 62, 127
1, 117086, Note_off_c, 7, 67, 127
1, 117088, Note_on_c, 3, 63, 127
1, 117088, Note_on_c, 2, 50, 127
1, 117238, Note_off_c, 2, 50, 127
1, 117238, Note_off_c, 3, 63, 127
1, 117240, Note_on_c, 5, 65, 127
1, 117240, Note_on_c, 0, 60, 127
1, 117390, Note_off_c, 0, 60, 127
1, 117390, Note_off_c, 5, 65, 127
1, 117392, Note_on_c, 2, 62, 127
1, 117392, Note_on_c, 12, 59, 127
1, 117392, Note_on_c, 7, 55, 127
1, 117694, Note_off_c, 7, 55, 127
1, 117694, Note_off_c, 12, 59, 127
1, 117694, Note_off_c, 2, 62, 127
1, 117696, Note_on_c, 12, 71, 127
1, 117696, Note_on_c, 2, 74, 127
1, 117696, Note_on_c, 7, 43, 127
1, 117846, Note_off_c, 7, 43, 127
1, 117848, Note_on_c, 10, 45, 127
1, 117998, Note_off_c, 10, 45, 127
1, 117998, Note_off_c, 2, 74, 127
1, 117998, Note_off_c, 12, 71, 127
1, 118000, Note_on_c, 3, 75, 127
1, 118000, Note_on_c, 12, 71, 127
1, 118000, Note_on_c, 12, 47, 127
1, 118074, Note_off_c, 3, 75, 127
1, 118076, Note_on_c, 2, 74, 127
1, 118150, Note_off_c, 2, 74, 127
1, 118152, Note_on_c, 3, 75, 127
1, 118226, Note_off_c, 3, 75, 127
1, 118228, Note_on_c, 2, 74, 127
1, 118302, Note_off_c, 2, 74, 127
1, 118302, Note_off_c, 12, 47, 127
1, 118304, Note_on_c, 3, 75, 127
1, 118304, Note_on_c, 7, 43, 127
1, 118378, Note_off_c, 3, 75, 127
1, 118380, Note_on_c, 2, 74, 127
1, 118454, Note_off_c, 2, 74, 127
1, 118456, Note_on_c, 0, 72, 127
1, 118530, Note_off_c, 0, 72, 127
1, 118532, Note_on_c, 2, 74, 127
1, 118601, Note_off_c, 12, 71, 127
1, 118606, Note_off_c, 2, 74, 127
1, 118606, Note_off_c, 7, 43, 127
1, 118608, Note_on_c, 3, 75, 127
1, 118608, Note_on_c, 0, 48, 127
1, 118758, Note_off_c, 3, 75, 127
1, 118760, Note_on_c, 0, 72, 127
1, 118910, Note_off_c, 0, 72, 127
1, 118910, Note_off_c, 0, 48, 127
1, 118912, Note_on_c, 3, 75, 127
1, 118912, Note_on_c, 7, 67, 127
1, 118912, Note_on_c, 3, 63, 127
1, 118912, Note_on_c, 0, 60, 127
1, 119062, Note_off_c, 3, 75, 127
1, 119064, Note_on_c, 7, 79, 127
1, 119214, Note_off_c, 7, 79, 127
1, 119214, Note_off_c, 0, 60, 127
1, 119214, Note_off_c, 3, 63, 127
1, 119214, Note_off_c, 7, 67, 127
1, 119216, Note_on_c, 3, 75, 127
1, 119216, Note_on_c, 7, 67, 127
1, 119216, Note_on_c, 0, 60, 127
1, 119216, Note_on_c, 3, 63, 127
1, 119366, Note_off_c, 3, 75, 127
1, 119368, Note_on_c, 0, 72, 127
1, 119518, Note_off_c, 0, 72, 127
1, 119518, Note_off_c, 3, 63, 127
1, 119518, Note_off_c, 0, 60, 127
1, 119518, Note_off_c, 7, 67, 127
1, 119520, Note_on_c, 3, 75, 127
1, 119520, Note_on_c, 7, 67, 127
1, 119520, Note_on_c, 3, 63, 127
1, 119520, Note_on_c, 0, 60, 127
1, 119670, Note_off_c, 3, 75, 127
1, 119672, Note_on_c, 7, 79, 127
1, 119822, Note_off_c, 7, 79, 127
1, 119822, Note_off_c, 0, 60, 127
1, 119822, Note_off_c, 3, 63, 127
1, 119822, Note_off_c, 7, 67, 127
1, 119824, Note_on_c, 4, 76, 127
1, 119824, Note_on_c, 7, 67, 127
1, 119824, Note_on_c, 11, 58, 127
1, 119824, Note_on_c, 0, 60, 127
1, 119976, Note_on_c, 0, 72, 127
1, 120014, Note_off_c, 4, 76, 127
1, 120126, Note_off_c, 0, 72, 127
1, 120126, Note_off_c, 0, 60, 127
1, 120126, Note_off_c, 11, 58, 127
1, 120126, Note_off_c, 7, 67, 127
1, 120128, Note_on_c, 4, 76, 127
1, 120128, Note_on_c, 0, 60, 127
1, 120128, Note_on_c, 7, 67, 127
1, 120128, Note_on_c, 11, 58, 127
1, 120278, Note_off_c, 4, 76, 127
1, 120280, Note_on_c, 7, 79, 127
1, 120430, Note_off_c, 7, 79, 127
1, 120430, Note_off_c, 11, 58, 127
1, 120430, Note_off_c, 7, 67, 127
1, 120430, Note_off_c, 0, 60, 127
1, 120432, Note_on_c, 4, 76, 127
1, 120432, Note_on_c, 0, 60, 127
1, 120432, Note_on_c, 7, 67, 127
1, 120432, Note_on_c, 11, 58, 127
1, 120582, Note_off_c, 4, 76, 127
1, 120584, Note_on_c, 0, 72, 127
1, 120734, Note_off_c, 0, 72, 127
1, 120734, Note_off_c, 11, 58, 127
1, 120734, Note_off_c, 7, 67, 127
1, 120734, Note_off_c, 0, 60, 127
1, 120736, Note_on_c, 4, 76, 127
1, 120736, Note_on_c, 7, 67, 127
1, 120736, Note_on_c, 0, 60, 127
1, 120736, Note_on_c, 11, 58, 127
1, 120886, Note_off_c, 4, 76, 127
1, 120888, Note_on_c, 7, 79, 127
1, 121038, Note_off_c, 7, 79, 127
1, 121038, Note_off_c, 11, 58, 127
1, 121038, Note_off_c, 0, 60, 127
1, 121038, Note_off_c, 7, 67, 127
1, 121040, Note_on_c, 8, 80, 127
1, 121040, Note_on_c, 5, 65, 127
1, 121040, Note_on_c, 0, 60, 127
1, 121040, Note_on_c, 8, 56, 127
1, 121192, Note_on_c, 5, 77, 127
1, 121230, Note_off_c, 8, 80, 127
1, 121342, Note_off_c, 5, 77, 127
1, 121342, Note_off_c, 8, 56, 127
1, 121342, Note_off_c, 0, 60, 127
1, 121342, Note_off_c, 5, 65, 127
1, 121344, Note_on_c, 8, 80, 127
1, 121344, Note_on_c, 0, 60, 127
1, 121344, Note_on_c, 5, 65, 127
1, 121344, Note_on_c, 8, 56, 127
1, 121494, Note_off_c, 8, 80, 127
1, 121496, Note_on_c, 0, 84, 127
1, 121646, Note_off_c, 0, 84, 127
1, 121646, Note_off_c, 8, 56, 127
1, 121646, Note_off_c, 5, 65, 127
1, 121646, Note_off_c, 0, 60, 127
1, 121648, Note_on_c, 8, 80, 127
1, 121648, Note_on_c, 0, 60, 127
1, 121648, Note_on_c, 5, 65, 127
1, 121648, Note_on_c, 8, 56, 127
1, 121798, Note_off_c, 8, 80, 127
1, 121800, Note_on_c, 5, 77, 127
1, 121950, Note_off_c, 5, 77, 127
1, 121950, Note_off_c, 8, 56, 127
1, 121950, Note_off_c, 5, 65, 127
1, 121950, Note_off_c, 0, 60, 127
1, 121952, Note_on_c, 8, 80, 127
1, 121952, Note_on_c, 8, 56, 127
1, 121952, Note_on_c, 0, 60, 127
1, 121952, Note_on_c, 5, 65, 127
1, 122102, Note_off_c, 8, 80, 127
1, 122104, Note_on_c, 0, 84, 127
1, 122254, Note_off_c, 0, 84, 127
1, 122254, Note_off_c, 5, 65, 127
1, 122254, Note_off_c, 0, 60, 127
1, 122254, Note_off_c, 8, 56, 127
1, 122256, Note_on_c, 6, 78, 127
1, 122256, Note_on_c, 10, 57, 127
1, 122256, Note_on_c, 2, 50, 127
1, 122256, Note_on_c, 0, 60, 127
1, 122406, Note_off_c, 6, 78, 127
1, 122408, Note_on_c, 2, 74, 127
1, 122558, Note_off_c, 2, 74, 127
1, 122558, Note_off_c, 0, 60, 127
1, 122558, Note_off_c, 2, 50, 127
1, 122558, Note_off_c, 10, 57, 127
1, 122560, Note_on_c, 6, 78, 127
1, 122560, Note_on_c, 0, 60, 127
1, 122560, Note_on_c, 10, 57, 127
1, 122560, Note_on_c, 2, 50, 127
1, 122710, Note_off_c, 6, 78, 127
1, 122712, Note_on_c, 10, 81, 127
1, 122862, Note_off_c, 10, 81, 127
1, 122862, Note_off_c, 2, 50, 127
1, 122862, Note_off_c, 10, 57, 127
1, 122862, Note_off_c, 0, 60, 127
1, 122864, Note_on_c, 6, 78, 127
1, 122864, Note_on_c, 0, 60, 127
1, 122864, Note_on_c, 10, 57, 127
1, 122864, Note_on_c, 2, 50, 127
1, 123014, Note_off_c, 6, 78, 127
1, 123016, Note_on_c, 2, 74, 127
1, 123166, Note_off_c, 2, 74, 127
1, 123166, Note_off_c, 2, 50, 127
1, 123166, Note_off_c, 10, 57, 127
1, 123166, Note_off_c, 0, 60, 127
1, 123168, Note_on_c, 6, 78, 127
1, 123168, Note_on_c, 0, 60, 127
1, 123168, Note_on_c, 10, 57, 127
1, 123168, Note_on_c, 2, 50, 127
1, 123318, Note_off_c, 6, 78, 127
1, 123320, Note_on_c, 10, 81, 127
1, 123470, Note_off_c, 10, 81, 127
1, 123470, Note_off_c, 2, 50, 127
1, 123470, Note_off_c, 10, 57, 127
1, 123470, Note_off_c, 0, 60, 127
1, 123472, Note_on_c, 11, 82, 127
1, 123472, Note_on_c, 2, 62, 127
1, 123472, Note_on_c, 11, 58, 127
1, 123472, Note_on_c, 7, 55, 127
1, 123622, Note_off_c, 11, 58, 127
1, 123622, Note_off_c, 2, 62, 127
1, 123624, Note_on_c, 0, 60, 127
1, 123772, Note_off_c, 7, 55, 127
1, 123774, Note_off_c, 0, 60, 127
1, 123774, Note_off_c, 11, 82, 127
1, 123776, Note_on_c, 7, 79, 127
1, 123776, Note_on_c, 11, 58, 127
1, 123926, Note_off_c, 11, 58, 127
1, 123928, Note_on_c, 0, 60, 127
1, 124076, Note_off_c, 7, 79, 127
1, 124078, Note_off_c, 0, 60, 127
1, 124080, Note_on_c, 2, 62, 127
1, 124230, Note_off_c, 2, 62, 127
1, 124232, Note_on_c, 0, 60, 127
1, 124382, Note_off_c, 0, 60, 127
1, 124384, Note_on_c, 2, 74, 127
1, 124384, Note_on_c, 11, 58, 127
1, 124534, Note_off_c, 11, 58, 127
1, 124536, Note_on_c, 10, 57, 127
1, 124686, Note_off_c, 10, 57, 127
1, 124686, Note_off_c, 2, 74, 127
1, 124688, Note_on_c, 7, 79, 127
1, 124688, Note_on_c, 7, 55, 127
1, 124838, Note_off_c, 7, 79, 127
1, 124840, Note_on_c, 2, 74, 127
1, 124990, Note_off_c, 2, 74, 127
1, 124990, Note_off_c, 7, 55, 127
1, 124992, Note_on_c, 2, 74, 127
1, 124992, Note_on_c, 7, 43, 127
1, 125142, Note_off_c, 2, 74, 127
1, 125144, Note_on_c, 7, 79, 127
1, 125294, Note_off_c, 7, 79, 127
1, 125296, Note_on_c, 7, 79, 127
1, 125446, Note_off_c, 7, 79, 127
1, 125448, Note_on_c, 2, 74, 127
1, 125467, Note_off_c, 7, 43, 127
1, 125598, Note_off_c, 2, 74, 127
1, 125600, Note_on_c, 2, 74, 127
1, 125600, Note_on_c, 7, 55, 127
1, 125750, Note_off_c, 2, 74, 127
1, 125752, Note_on_c, 7, 79, 127
1, 125902, Note_off_c, 7, 79, 127
1, 125902, Note_off_c, 7, 55, 127
1, 125904, Note_on_c, 10, 81, 127
1, 125904, Note_on_c, 6, 54, 127
1, 126054, Note_off_c, 6, 54, 127
1, 126056, Note_on_c, 7, 55, 127
1, 126206, Note_off_c, 7, 55, 127
1, 126206, Note_off_c, 10, 81, 127
1, 126208, Note_on_c, 2, 74, 127
1, 126208, Note_on_c, 6, 54, 127
1, 126358, Note_off_c, 6, 54, 127
1, 126360, Note_on_c, 7, 55, 127
1, 126510, Note_off_c, 7, 55, 127
1, 126512, Note_on_c, 10, 57, 127
1, 126651, Note_off_c, 2, 74, 127
1, 126662, Note_off_c, 10, 57, 127
1, 126664, Note_on_c, 7, 55, 127
1, 126814, Note_off_c, 7, 55, 127
1, 126816, Note_on_c, 2, 74, 127
1, 126816, Note_on_c, 6, 54, 127
1, 126966, Note_off_c, 6, 54, 127
1, 126968, Note_on_c, 4, 52, 127
1, 127118, Note_off_c, 4, 52, 127
1, 127118, Note_off_c, 2, 74, 127
1, 127120, Note_on_c, 10, 81, 127
1, 127120, Note_on_c, 2, 50, 127
1, 127270, Note_off_c, 10, 81, 127
1, 127272, Note_on_c, 2, 74, 127
1, 127422, Note_off_c, 2, 74, 127
1, 127422, Note_off_c, 2, 50, 127
1, 127424, Note_on_c, 2, 74, 127
1, 127424, Note_on_c, 2, 38, 127
1, 127574, Note_off_c, 2, 74, 127
1, 127576, Note_on_c, 10, 81, 127
1, 127726, Note_off_c, 10, 81, 127
1, 127728, Note_on_c, 10, 81, 127
1, 127878, Note_off_c, 10, 81, 127
1, 127880, Note_on_c, 2, 74, 127
1, 127899, Note_off_c, 2, 38, 127
1, 128030, Note_off_c, 2, 74, 127
1, 128032, Note_on_c, 2, 74, 127
1, 128032, Note_on_c, 6, 54, 127
1, 128182, Note_off_c, 2, 74, 127
1, 128184, Note_on_c, 10, 81, 127
1, 128334, Note_off_c, 10, 81, 127
1, 128334, Note_off_c, 6, 54, 127
1, 128336, Note_on_c, 11, 82, 127
1, 128336, Note_on_c, 7, 55, 127
1, 128486, Note_off_c, 7, 55, 127
1, 128488, Note_on_c, 2, 50, 127
1, 128638, Note_off_c, 2, 50, 127
1, 128638, Note_off_c, 11, 82, 127
1, 128640, Note_on_c, 2, 74, 127
1, 128640, Note_on_c, 11, 46, 127
1, 128790, Note_off_c, 11, 46, 127
1, 128792, Note_on_c, 0, 48, 127
1, 128942, Note_off_c, 0, 48, 127
1, 128944, Note_on_c, 2, 50, 127
1, 129083, Note_off_c, 2, 74, 127
1, 129094, Note_off_c, 2, 50, 127
1, 129096, Note_on_c, 0, 48, 127
1, 129246, Note_off_c, 0, 48, 127
1, 129248, Note_on_c, 2, 74, 127
1, 129248, Note_on_c, 11, 46, 127
1, 129398, Note_off_c, 11, 46, 127
1, 129400, Note_on_c, 10, 45, 127
1, 129550, Note_off_c, 10, 45, 127
1, 129550, Note_off_c, 2, 74, 127
1, 129552, Note_on_c, 12, 83, 127
1, 129552, Note_on_c, 7, 43, 127
1, 129702, Note_off_c, 12, 83, 127
1, 129704, Note_on_c, 2, 74, 127
1, 129854, Note_off_c, 2, 74, 127
1, 129854, Note_off_c, 7, 43, 127
1, 129856, Note_on_c, 2, 74, 127
1, 129856, Note_on_c, 8, 56, 127
1, 130006, Note_off_c, 2, 74, 127
1, 130008, Note_on_c, 12, 83, 127
1, 130158, Note_off_c, 12, 83, 127
1, 130158, Note_off_c, 8, 56, 127
1, 130160, Note_on_c, 12, 83, 127
1, 130160, Note_on_c, 7, 55, 127
1, 130310, Note_off_c, 12, 83, 127
1, 130312, Note_on_c, 2, 74, 127
1, 130462, Note_off_c, 2, 74, 127
1, 130462, Note_off_c, 7, 55, 127
1, 130464, Note_on_c, 2, 74, 127
1, 130464, Note_on_c, 5, 53, 127
1, 130614, Note_off_c, 2, 74, 127
1, 130616, Note_on_c, 12, 83, 127
1, 130766, Note_off_c, 12, 83, 127
1, 130766, Note_off_c, 5, 53, 127
1, 130768, Note_on_c, 0, 84, 127
1, 130768, Note_on_c, 3, 51, 127
1, 130920, Note_on_c, 10, 81, 127
1, 130996, Note_off_c, 0, 84, 127
1, 131070, Note_off_c, 10, 81, 127
1, 131070, Note_off_c, 3, 51, 127
1, 131072, Note_on_c, 10, 81, 127
1, 131072, Note_on_c, 3, 63, 127
1, 131222, Note_off_c, 10, 81, 127
1, 131224, Note_on_c, 11, 82, 127
1, 131374, Note_off_c, 11, 82, 127
1, 131374, Note_off_c, 3, 63, 127
1, 131376, Note_on_c, 11, 82, 127
1, 131376, Note_on_c, 2, 62, 127
1, 131528, Note_on_c, 6, 78, 127
1, 131604, Note_off_c, 11, 82, 127
1, 131678, Note_off_c, 6, 78, 127
1, 131678, Note_off_c, 2, 62, 127
1, 131680, Note_on_c, 6, 78, 127
1, 131680, Note_on_c, 0, 60, 127
1, 131830, Note_off_c, 6, 78, 127
1, 131832, Note_on_c, 7, 79, 127
1, 131982, Note_off_c, 7, 79, 127
1, 131982, Note_off_c, 0, 60, 127
1, 131984, Note_on_c, 7, 79, 127
1, 131984, Note_on_c, 11, 58, 127
1, 132136, Note_on_c, 2, 74, 127
1, 132212, Note_off_c, 7, 79, 127
1, 132286, Note_off_c, 2, 74, 127
1, 132286, Note_off_c, 11, 58, 127
1, 132288, Note_on_c, 2, 74, 127
1, 132288, Note_on_c, 8, 56, 127
1, 132438, Note_off_c, 2, 74, 127
1, 132440, Note_on_c, 3, 75, 127
1, 132590, Note_off_c, 3, 75, 127
1, 132590, Note_off_c, 8, 56, 127
1, 132592, Note_on_c, 3, 75, 127
1, 132592, Note_on_c, 7, 55, 127
1, 132744, Note_on_c, 12, 71, 127
1, 132820, Note_off_c, 3, 75, 127
1, 132894, Note_off_c, 12, 71, 127
1, 132894, Note_off_c, 7, 55, 127
1, 132896, Note_on_c, 12, 71, 127
1, 132896, Note_on_c, 5, 53, 127
1, 133046, Note_off_c, 12, 71, 127
1, 133048, Note_on_c, 0, 72, 127
1, 133198, Note_off_c, 0, 72, 127
1, 133198, Note_off_c, 5, 53, 127
1, 133200, Note_on_c, 0, 72, 127
1, 133200, Note_on_c, 3, 51, 127
1, 133350, Note_off_c, 3, 51, 127
1, 133352, Note_on_c, 11, 58, 127
1, 133502, Note_off_c, 11, 58, 127
1, 133504, Note_on_c, 8, 56, 127
1, 133654, Note_off_c, 8, 56, 127
1, 133656, Note_on_c, 7, 55, 127
1, 133806, Note_off_c, 7, 55, 127
1, 133808, Note_on_c, 6, 54, 127
1, 133958, Note_off_c, 0, 72, 127
1, 133960, Note_on_c, 3, 75, 127
1, 134110, Note_off_c, 3, 75, 127
1, 134110, Note_off_c, 6, 54, 127
1, 134112, Note_on_c, 2, 74, 127
1, 134112, Note_on_c, 2, 50, 127
1, 134262, Note_off_c, 2, 74, 127
1, 134264, Note_on_c, 0, 72, 127
1, 134414, Note_off_c, 0, 72, 127
1, 134414, Note_off_c, 2, 50, 127
1, 134416, Note_on_c, 11, 70, 127
1, 134416, Note_on_c, 7, 55, 127
1, 134566, Note_off_c, 7, 55, 127
1, 134566, Note_off_c, 11, 70, 127
1, 134568, Note_on_c, 2, 74, 127
1, 134568, Note_on_c, 10, 57, 127
1, 134718, Note_off_c, 10, 57, 127
1, 134718, Note_off_c, 2, 74, 127
1, 134720, Note_on_c, 7, 79, 127
1, 134720, Note_on_c, 11, 58, 127
1, 134870, Note_off_c, 11, 58, 127
1, 134870, Note_off_c, 7, 79, 127
1, 134872, Note_on_c, 11, 70, 127
1, 134872, Note_on_c, 0, 60, 127
1, 135022, Note_off_c, 0, 60, 127
1, 135022, Note_off_c, 11, 70, 127
1, 135024, Note_on_c, 11, 70, 127
1, 135024, Note_on_c, 2, 62, 127
1, 135100, Note_on_c, 10, 69, 127
1, 135106, Note_off_c, 11, 70, 127
1, 135157, Note_on_c, 11, 70, 127
1, 135163, Note_off_c, 10, 69, 127
1, 135214, Note_on_c, 10, 69, 127
1, 135220, Note_off_c, 11, 70, 127
1, 135271, Note_on_c, 11, 70, 127
1, 135277, Note_off_c, 10, 69, 127
1, 135326, Note_off_c, 2, 62, 127
1, 135328, Note_on_c, 10, 69, 127
1, 135328, Note_on_c, 2, 50, 127
1, 135334, Note_off_c, 11, 70, 127
1, 135628, Note_off_c, 10, 69, 127
1, 135630, Note_off_c, 2, 50, 127
1, 135632, Note_on_c, 7, 67, 127
1, 135632, Note_on_c, 7, 55, 127
1, 135935, Note_on_c, 11, 58, 127
1, 135935, Note_on_c, 7, 43, 127
1, 136074, Note_off_c, 7, 55, 127
1, 136085, Note_off_c, 7, 43, 127
1, 136085, Note_off_c, 11, 58, 127
1, 136087, Note_on_c, 0, 60, 127
1, 136087, Note_on_c, 10, 45, 127
1, 136237, Note_off_c, 10, 45, 127
1, 136237, Note_off_c, 0, 60, 127
1, 136239, Note_on_c, 2, 62, 127
1, 136239, Note_on_c, 11, 46, 127
1, 136541, Note_off_c, 11, 46, 127
1, 136541, Note_off_c, 2, 62, 127
1, 136541, Note_off_c, 7, 67, 127
1, 136543, Note_on_c, 12, 59, 127
1, 136543, Note_on_c, 2, 62, 127
1, 136543, Note_on_c, 7, 55, 127
1, 136543, Note_on_c, 7, 43, 127
1, 136845, Note_off_c, 7, 43, 127
1, 136845, Note_off_c, 7, 55, 127
1, 136845, Note_off_c, 2, 62, 127
1, 136845, Note_off_c, 12, 59, 127
1, 136847, Note_on_c, 0, 60, 127
1, 136847, Note_on_c, 4, 64, 127
1, 136847, Note_on_c, 7, 55, 127
1, 136847, Note_on_c, 0, 48, 127
1, 136997, Note_off_c, 4, 64, 127
1, 136999, Note_on_c, 10, 69, 127
1, 137147, Note_off_c, 0, 60, 127
1, 137149, Note_off_c, 10, 69, 127
1, 137149, Note_off_c, 0, 48, 127
1, 137149, Note_off_c, 7, 55, 127
1, 137151, Note_on_c, 10, 69, 127
1, 137151, Note_on_c, 10, 45, 127
1, 137301, Note_off_c, 10, 45, 127
1, 137301, Note_off_c, 10, 69, 127
1, 137303, Note_on_c, 4, 64, 127
1, 137303, Note_on_c, 12, 47, 127
1, 137453, Note_off_c, 12, 47, 127
1, 137453, Note_off_c, 4, 64, 127
1, 137455, Note_on_c, 4, 64, 127
1, 137455, Note_on_c, 0, 48, 127
1, 137605, Note_off_c, 4, 64, 127
1, 137607, Note_on_c, 10, 69, 127
1, 137757, Note_off_c, 10, 69, 127
1, 137757, Note_off_c, 0, 48, 127
1, 137759, Note_on_c, 10, 69, 127
1, 137759, Note_on_c, 10, 57, 127
1, 137759, Note_on_c, 1, 49, 127
1, 137909, Note_off_c, 10, 69, 127
1, 137911, Note_on_c, 4, 64, 127
1, 138061, Note_off_c, 4, 64, 127
1, 138061, Note_off_c, 1, 49, 127
1, 138061, Note_off_c, 10, 57, 127
1, 138063, Note_on_c, 6, 66, 127
1, 138063, Note_on_c, 2, 62, 127
1, 138063, Note_on_c, 10, 57, 127
1, 138063, Note_on_c, 2, 50, 127
1, 138213, Note_off_c, 6, 66, 127
1, 138215, Note_on_c, 11, 70, 127
1, 138363, Note_off_c, 2, 62, 127
1, 138365, Note_off_c, 11, 70, 127
1, 138365, Note_off_c, 2, 50, 127
1, 138365, Note_off_c, 10, 57, 127
1, 138367, Note_on_c, 11, 70, 127
1, 138367, Note_on_c, 11, 46, 127
1, 138517, Note_off_c, 11, 46, 127
1, 138517, Note_off_c, 11, 70, 127
1, 138519, Note_on_c, 6, 66, 127
1, 138519, Note_on_c, 0, 48, 127
1, 138669, Note_off_c, 0, 48, 127
1, 138669, Note_off_c, 6, 66, 127
1, 138671, Note_on_c, 6, 66, 127
1, 138671, Note_on_c, 2, 50, 127
1, 138821, Note_off_c, 6, 66, 127
1, 138823, Note_on_c, 11, 70, 127
1, 138973, Note_off_c, 11, 70, 127
1, 138973, Note_off_c, 2, 50, 127
1, 138975, Note_on_c, 11, 70, 127
1, 138975, Note_on_c, 2, 62, 127
1, 138975, Note_on_c, 11, 58, 127
1, 138975, Note_on_c, 11, 46, 127
1, 139125, Note_off_c, 11, 70, 127
1, 139127, Note_on_c, 6, 66, 127
1, 139275, Note_off_c, 2, 62, 127
1, 139277, Note_off_c, 6, 66, 127
1, 139277, Note_off_c, 11, 46, 127
1, 139277, Note_off_c, 11, 58, 127
1, 139279, Note_on_c, 3, 63, 127
1, 139279, Note_on_c, 7, 67, 127
1, 139279, Note_on_c, 11, 58, 127
1, 139279, Note_on_c, 3, 51, 127
1, 139429, Note_off_c, 7, 67, 127
1, 139431, Note_on_c, 0, 72, 127
1, 139579, Note_off_c, 3, 63, 127
1, 139581, Note_off_c, 0, 72, 127
1, 139581, Note_off_c, 3, 51, 127
1, 139581, Note_off_c, 11, 58, 127
1, 139583, Note_on_c, 0, 72, 127
1, 139583, Note_on_c, 0, 48, 127
1, 139733, Note_off_c, 0, 48, 127
1, 139733, Note_off_c, 0, 72, 127
1, 139735, Note_on_c, 7, 67, 127
1, 139735, Note_on_c, 2, 50, 127
1, 139885, Note_off_c, 2, 50, 127
1, 139885, Note_off_c, 7, 67, 127
1, 139887, Note_on_c, 7, 67, 127
1, 139887, Note_on_c, 3, 51, 127
1, 140037, Note_off_c, 7, 67, 127
1, 140039, Note_on_c, 0, 72, 127
1, 140189, Note_off_c, 0, 72, 127
1, 140189, Note_off_c, 3, 51, 127
1, 140191, Note_on_c, 0, 60, 127
1, 140191, Note_on_c, 0, 72, 127
1, 140191, Note_on_c, 4, 52, 127
1, 140341, Note_off_c, 0, 72, 127
1, 140343, Note_on_c, 7, 67, 127
1, 140491, Note_off_c, 0, 60, 127
1, 140493, Note_off_c, 7, 67, 127
1, 140493, Note_off_c, 4, 52, 127
1, 140495, Note_on_c, 10, 69, 127
1, 140495, Note_on_c, 5, 65, 127
1, 140495, Note_on_c, 0, 60, 127
1, 140495, Note_on_c, 5, 53, 127
1, 140645, Note_off_c, 10, 69, 127
1, 140647, Note_on_c, 2, 74, 127
1, 140795, Note_off_c, 5, 65, 127
1, 140797, Note_off_c, 2, 74, 127
1, 140797, Note_off_c, 5, 53, 127
1, 140797, Note_off_c, 0, 60, 127
1, 140799, Note_on_c, 2, 74, 127
1, 140799, Note_on_c, 2, 50, 127
1, 140949, Note_off_c, 2, 50, 127
1, 140949, Note_off_c, 2, 74, 127
1, 140951, Note_on_c, 10, 69, 127
1, 140951, Note_on_c, 4, 52, 127
1, 141101, Note_off_c, 4, 52, 127
1, 141101, Note_off_c, 10, 69, 127
1, 141103, Note_on_c, 10, 69, 127
1, 141103, Note_on_c, 6, 54, 127
1, 141253, Note_off_c, 10, 69, 127
1, 141255, Note_on_c, 2, 74, 127
1, 141405, Note_off_c, 2, 74, 127
1, 141405, Note_off_c, 6, 54, 127
1, 141407, Note_on_c, 6, 66, 127
1, 141407, Note_on_c, 2, 74, 127
1, 141407, Note_on_c, 2, 62, 127
1, 141407, Note_on_c, 2, 50, 127
1, 141557, Note_off_c, 2, 74, 127
1, 141559, Note_on_c, 10, 69, 127
1, 141707, Note_off_c, 6, 66, 127
1, 141709, Note_off_c, 10, 69, 127
1, 141709, Note_off_c, 2, 50, 127
1, 141709, Note_off_c, 2, 62, 127
1, 141711, Note_on_c, 11, 70, 127
1, 141711, Note_on_c, 7, 67, 127
1, 141711, Note_on_c, 2, 62, 127
1, 141711, Note_on_c, 7, 55, 127
1, 142013, Note_off_c, 7, 55, 127
1, 142013, Note_off_c, 2, 62, 127
1, 142013, Note_off_c, 7, 67, 127
1, 142013, Note_off_c, 11, 70, 127
1, 142015, Note_on_c, 3, 75, 127
1, 142015, Note_on_c, 0, 60, 127
1, 142015, Note_on_c, 0, 48, 127
1, 142165, Note_off_c, 0, 60, 127
1, 142167, Note_on_c, 11, 58, 127
1, 142315, Note_off_c, 0, 48, 127
1, 142317, Note_off_c, 11, 58, 127
1, 142317, Note_off_c, 3, 75, 127
1, 142319, Note_on_c, 11, 70, 127
1, 142319, Note_on_c, 2, 50, 127
1, 142319, Note_on_c, 10, 57, 127
1, 142406, Note_off_c, 11, 70, 127
1, 142406, Note_on_c, 10, 69, 127
1, 142493, Note_off_c, 10, 69, 127
1, 142493, Note_on_c, 11, 70, 127
1, 142580, Note_off_c, 11, 70, 127
1, 142580, Note_on_c, 10, 69, 127
1, 142621, Note_off_c, 10, 57, 127
1, 142623, Note_on_c, 6, 66, 127
1, 142623, Note_on_c, 0, 60, 127
1, 142773, Note_off_c, 6, 66, 127
1, 142773, Note_off_c, 10, 69, 127
1, 142775, Note_on_c, 7, 67, 127
1, 142920, Note_off_c, 2, 50, 127
1, 142925, Note_off_c, 7, 67, 127
1, 142925, Note_off_c, 0, 60, 127
1, 142927, Note_on_c, 7, 67, 127
1, 142927, Note_on_c, 7, 43, 127
1, 142927, Note_on_c, 11, 58, 127
1, 143229, Note_off_c, 7, 67, 127
1, 143231, Note_on_c, 7, 67, 127
1, 143381, Note_off_c, 7, 67, 127
1, 143383, Note_on_c, 10, 69, 127
1, 143533, Note_off_c, 10, 69, 127
1, 143533, Note_off_c, 11, 58, 127
1, 143533, Note_off_c, 7, 43, 127
1, 143535, Note_on_c, 11, 70, 127
1, 143535, Note_on_c, 7, 55, 127
1, 143837, Note_off_c, 11, 70, 127
1, 143839, Note_on_c, 7, 67, 127
1, 144141, Note_off_c, 7, 67, 127
1, 144143, Note_on_c, 10, 69, 127
1, 144445, Note_off_c, 10, 69, 127
1, 144447, Note_on_c, 10, 69, 127
1, 144597, Note_off_c, 10, 69, 127
1, 144599, Note_on_c, 11, 70, 127
1, 144749, Note_off_c, 11, 70, 127
1, 144749, Note_off_c, 7, 55, 127
1, 144751, Note_on_c, 0, 72, 127
1, 144751, Note_on_c, 6, 54, 127
1, 145053, Note_off_c, 0, 72, 127
1, 145055, Note_on_c, 10, 69, 127
1, 145357, Note_off_c, 10, 69, 127
1, 145357, Note_off_c, 6, 54, 127
1, 145359, Note_on_c, 11, 70, 127
1, 145359, Note_on_c, 7, 55, 127
1, 145661, Note_off_c, 7, 55, 127
1, 145661, Note_off_c, 11, 70, 127
1, 145663, Note_on_c, 0, 60, 127
1, 145663, Note_on_c, 7, 67, 127
1, 145663, Note_on_c, 3, 51, 127
1, 145813, Note_off_c, 0, 60, 127
1, 145815, Note_on_c, 2, 62, 127
1, 145963, Note_off_c, 7, 67, 127
1, 145965, Note_off_c, 2, 62, 127
1, 145965, Note_off_c, 3, 51, 127
1, 145967, Note_on_c, 0, 72, 127
1, 145967, Note_on_c, 3, 63, 127
1, 145967, Note_on_c, 0, 48, 127
1, 146269, Note_off_c, 0, 48, 127
1, 146269, Note_off_c, 3, 63, 127
1, 146271, Note_on_c, 0, 60, 127
1, 146271, Note_on_c, 3, 51, 127
1, 146573, Note_off_c, 3, 51, 127
1, 146573, Note_off_c, 0, 60, 127
1, 146575, Note_on_c, 2, 62, 127
1, 146575, Note_on_c, 5, 53, 127
1, 146877, Note_off_c, 5, 53, 127
1, 146877, Note_off_c, 2, 62, 127
1, 146879, Note_on_c, 2, 62, 127
1, 146879, Note_on_c, 2, 50, 127
1, 147029, Note_off_c, 2, 62, 127
1, 147031, Note_on_c, 3, 63, 127
1, 147181, Note_off_c, 3, 63, 127
1, 147181, Note_off_c, 2, 50, 127
1, 147181, Note_off_c, 0, 72, 127
1, 147183, Note_on_c, 12, 71, 127
1, 147183, Note_on_c, 5, 65, 127
1, 147183, Note_on_c, 7, 55, 127
1, 147485, Note_off_c, 7, 55, 127
1, 147485, Note_off_c, 5, 65, 127
1, 147487, Note_on_c, 2, 62, 127
1, 147487, Note_on_c, 7, 43, 127
1, 147784, Note_off_c, 12, 71, 127
1, 147789, Note_off_c, 7, 43, 127
1, 147789, Note_off_c, 2, 62, 127
1, 147791, Note_on_c, 3, 63, 127
1, 147791, Note_on_c, 0, 72, 127
1, 147791, Note_on_c, 0, 48, 127
1, 148093, Note_off_c, 3, 63, 127
1, 148095, Note_on_c, 0, 60, 127
1, 148245, Note_off_c, 0, 60, 127
1, 148247, Note_on_c, 2, 62, 127
1, 148392, Note_off_c, 0, 72, 127
1, 148397, Note_off_c, 2, 62, 127
1, 148397, Note_off_c, 0, 48, 127
1, 148399, Note_on_c, 3, 63, 127
1, 148399, Note_on_c, 0, 60, 127
1, 148549, Note_off_c, 3, 63, 127
1, 148551, Note_on_c, 5, 65, 127
1, 148701, Note_off_c, 5, 65, 127
1, 148703, Note_on_c, 3, 75, 127
1, 148703, Note_on_c, 7, 67, 127
1, 148853, Note_off_c, 7, 67, 127
1, 148855, Note_on_c, 3, 63, 127
1, 149003, Note_off_c, 3, 75, 127
1, 149005, Note_off_c, 3, 63, 127
1, 149007, Note_on_c, 3, 75, 127
1, 149007, Note_on_c, 8, 68, 127
1, 149157, Note_off_c, 3, 75, 127
1, 149159, Note_on_c, 2, 74, 127
1, 149307, Note_off_c, 8, 68, 127
1, 149309, Note_off_c, 2, 74, 127
1, 149311, Note_on_c, 5, 65, 127
1, 149311, Note_on_c, 2, 74, 127
1, 149461, Note_off_c, 2, 74, 127
1, 149463, Note_on_c, 7, 79, 127
1, 149611, Note_off_c, 5, 65, 127
1, 149613, Note_off_c, 7, 79, 127
1, 149613, Note_off_c, 0, 60, 127
1, 149615, Note_on_c, 2, 62, 127
1, 149615, Note_on_c, 7, 79, 127
1, 149615, Note_on_c, 12, 59, 127
1, 149765, Note_off_c, 7, 79, 127
1, 149767, Note_on_c, 7, 67, 127
1, 149915, Note_off_c, 2, 62, 127
1, 149917, Note_off_c, 7, 67, 127
1, 149919, Note_on_c, 7, 67, 127
1, 150071, Note_on_c, 7, 79, 127
1, 150219, Note_off_c, 7, 67, 127
1, 150221, Note_off_c, 7, 79, 127
1, 150221, Note_off_c, 12, 59, 127
1, 150223, Note_on_c, 3, 75, 127
1, 150223, Note_on_c, 0, 60, 127
1, 150525, Note_off_c, 0, 60, 127
1, 150525, Note_off_c, 3, 75, 127
1, 150527, Note_on_c, 0, 72, 127
1, 150527, Note_on_c, 0, 48, 127
1, 150677, Note_off_c, 0, 48, 127
1, 150679, Note_on_c, 2, 50, 127
1, 150829, Note_off_c, 2, 50, 127
1, 150829, Note_off_c, 0, 72, 127
1, 150831, Note_on_c, 0, 60, 127
1, 150831, Note_on_c, 3, 51, 127
1, 150981, Note_off_c, 3, 51, 127
1, 150983, Note_on_c, 5, 53, 127
1, 151133, Note_off_c, 5, 53, 127
1, 151135, Note_on_c, 0, 72, 127
1, 151135, Note_on_c, 7, 55, 127
1, 151285, Note_off_c, 7, 55, 127
1, 151287, Note_on_c, 3, 51, 127
1, 151437, Note_off_c, 3, 51, 127
1, 151437, Note_off_c, 0, 72, 127
1, 151439, Note_on_c, 8, 68, 127
1, 151439, Note_on_c, 5, 53, 127
1, 151589, Note_off_c, 5, 53, 127
1, 151591, Note_on_c, 3, 51, 127
1, 151741, Note_off_c, 3, 51, 127
1, 151741, Note_off_c, 8, 68, 127
1, 151743, Note_on_c, 5, 65, 127
1, 151743, Note_on_c, 2, 50, 127
1, 151893, Note_off_c, 2, 50, 127
1, 151895, Note_on_c, 3, 51, 127
1, 152045, Note_off_c, 3, 51, 127
1, 152045, Note_off_c, 5, 65, 127
1, 152045, Note_off_c, 0, 60, 127
1, 152047, Note_on_c, 2, 62, 127
1, 152047, Note_on_c, 5, 53, 127
1, 152197, Note_off_c, 5, 53, 127
1, 152199, Note_on_c, 7, 55, 127
1, 152349, Note_off_c, 7, 55, 127
1, 152351, Note_on_c, 2, 74, 127
1, 152351, Note_on_c, 8, 56, 127
1, 152501, Note_off_c, 8, 56, 127
1, 152503, Note_on_c, 5, 53, 127
1, 152653, Note_off_c, 5, 53, 127
1, 152653, Note_off_c, 2, 74, 127
1, 152655, Note_on_c, 11, 70, 127
1, 152655, Note_on_c, 7, 55, 127
1, 152805, Note_off_c, 7, 55, 127
1, 152807, Note_on_c, 5, 53, 127
1, 152957, Note_off_c, 5, 53, 127
1, 152957, Note_off_c, 11, 70, 127
1, 152959, Note_on_c, 7, 67, 127
1, 152959, Note_on_c, 3, 51, 127
1, 153100, Note_off_c, 2, 62, 127
1, 153109, Note_off_c, 3, 51, 127
1, 153111, Note_on_c, 5, 53, 127
1, 153261, Note_off_c, 5, 53, 127
1, 153261, Note_off_c, 7, 67, 127
1, 153263, Note_on_c, 3, 63, 127
1, 153263, Note_on_c, 7, 55, 127
1, 153413, Note_off_c, 7, 55, 127
1, 153415, Note_on_c, 8, 56, 127
1, 153565, Note_off_c, 8, 56, 127
1, 153567, Note_on_c, 3, 75, 127
1, 153567, Note_on_c, 11, 58, 127
1, 153717, Note_off_c, 11, 58, 127
1, 153719, Note_on_c, 7, 55, 127
1, 153869, Note_off_c, 7, 55, 127
1, 153869, Note_off_c, 3, 75, 127
1, 153871, Note_on_c, 0, 72, 127
1, 153871, Note_on_c, 8, 56, 127
1, 154021, Note_off_c, 8, 56, 127
1, 154023, Note_on_c, 7, 55, 127
1, 154173, Note_off_c, 7, 55, 127
1, 154173, Note_off_c, 0, 72, 127
1, 154175, Note_on_c, 8, 68, 127
1, 154175, Note_on_c, 5, 53, 127
1, 154316, Note_off_c, 3, 63, 127
1, 154325, Note_off_c, 5, 53, 127
1, 154327, Note_on_c, 7, 55, 127
1, 154477, Note_off_c, 7, 55, 127
1, 154477, Note_off_c, 8, 68, 127
1, 154479, Note_on_c, 5, 65, 127
1, 154479, Note_on_c, 8, 56, 127
1, 154629, Note_off_c, 8, 56, 127
1, 154631, Note_on_c, 11, 58, 127
1, 154781, Note_off_c, 11, 58, 127
1, 154783, Note_on_c, 5, 77, 127
1, 154783, Note_on_c, 0, 60, 127
1, 154933, Note_off_c, 0, 60, 127
1, 154935, Note_on_c, 8, 56, 127
1, 155085, Note_off_c, 8, 56, 127
1, 155085, Note_off_c, 5, 77, 127
1, 155087, Note_on_c, 2, 74, 127
1, 155087, Note_on_c, 11, 58, 127
1, 155237, Note_off_c, 11, 58, 127
1, 155239, Note_on_c, 8, 56, 127
1, 155389, Note_off_c, 8, 56, 127
1, 155389, Note_off_c, 2, 74, 127
1, 155391, Note_on_c, 11, 70, 127
1, 155391, Note_on_c, 7, 55, 127
1, 155532, Note_off_c, 5, 65, 127
1, 155541, Note_off_c, 7, 55, 127
1, 155543, Note_on_c, 8, 56, 127
1, 155693, Note_off_c, 8, 56, 127
1, 155693, Note_off_c, 11, 70, 127
1, 155695, Note_on_c, 7, 67, 127
1, 155695, Note_on_c, 11, 58, 127
1, 155845, Note_off_c, 11, 58, 127
1, 155847, Note_on_c, 0, 60, 127
1, 155997, Note_off_c, 0, 60, 127
1, 155999, Note_on_c, 7, 79, 127
1, 155999, Note_on_c, 2, 62, 127
1, 156149, Note_off_c, 2, 62, 127
1, 156151, Note_on_c, 11, 58, 127
1, 156301, Note_off_c, 11, 58, 127
1, 156301, Note_off_c, 7, 79, 127
1, 156303, Note_on_c, 3, 75, 127
1, 156303, Note_on_c, 0, 60, 127
1, 156453, Note_off_c, 0, 60, 127
1, 156455, Note_on_c, 2, 62, 127
1, 156605, Note_off_c, 2, 62, 127
1, 156605, Note_off_c, 3, 75, 127
1, 156607, Note_on_c, 0, 72, 127
1, 156607, Note_on_c, 3, 63, 127
1, 156748, Note_off_c, 7, 67, 127
1, 156757, Note_off_c, 3, 63, 127
1, 156759, Note_on_c, 0, 60, 127
1, 156909, Note_off_c, 0, 60, 127
1, 156909, Note_off_c, 0, 72, 127
1, 156911, Note_on_c, 8, 80, 127
1, 156911, Note_on_c, 5, 65, 127
1, 157063, Note_on_c, 3, 63, 127
1, 157213, Note_off_c, 3, 63, 127
1, 157213, Note_off_c, 8, 80, 127
1, 157215, Note_on_c, 5, 77, 127
1, 157215, Note_on_c, 2, 62, 127
1, 157365, Note_off_c, 2, 62, 127
1, 157367, Note_on_c, 0, 60, 127
1, 157517, Note_off_c, 0, 60, 127
1, 157517, Note_off_c, 5, 77, 127
1, 157519, Note_on_c, 2, 74, 127
1, 157519, Note_on_c, 11, 58, 127
1, 157669, Note_off_c, 11, 58, 127
1, 157671, Note_on_c, 0, 60, 127
1, 157821, Note_off_c, 0, 60, 127
1, 157821, Note_off_c, 2, 74, 127
1, 157823, Note_on_c, 11, 70, 127
1, 157823, Note_on_c, 2, 62, 127
1, 157964, Note_off_c, 5, 65, 127
1, 157973, Note_off_c, 2, 62, 127
1, 157975, Note_on_c, 11, 58, 127
1, 158125, Note_off_c, 11, 58, 127
1, 158125, Note_off_c, 11, 70, 127
1, 158127, Note_on_c, 7, 79, 127
1, 158127, Note_on_c, 3, 63, 127
1, 158279, Note_on_c, 2, 62, 127
1, 158429, Note_off_c, 2, 62, 127
1, 158429, Note_off_c, 7, 79, 127
1, 158431, Note_on_c, 3, 75, 127
1, 158431, Note_on_c, 0, 60, 127
1, 158581, Note_off_c, 0, 60, 127
1, 158583, Note_on_c, 11, 58, 127
1, 158733, Note_off_c, 11, 58, 127
1, 158733, Note_off_c, 3, 75, 127
1, 158735, Note_on_c, 0, 72, 127
1, 158735, Note_on_c, 5, 77, 127
1, 158735, Note_on_c, 8, 56, 127
1, 158885, Note_off_c, 8, 56, 127
1, 158887, Note_on_c, 11, 58, 127
1, 159037, Note_off_c, 11, 58, 127
1, 159037, Note_off_c, 0, 72, 127
1, 159039, Note_on_c, 8, 68, 127
1, 159039, Note_on_c, 0, 60, 127
1, 159180, Note_off_c, 3, 63, 127
1, 159189, Note_off_c, 0, 60, 127
1, 159191, Note_on_c, 8, 56, 127
1, 159341, Note_off_c, 8, 56, 127
1, 159341, Note_off_c, 8, 68, 127
1, 159343, Note_on_c, 2, 62, 127
1, 159343, Note_on_c, 11, 58, 127
1, 159493, Note_off_c, 11, 58, 127
1, 159495, Note_on_c, 7, 55, 127
1, 159645, Note_off_c, 7, 55, 127
1, 159647, Note_on_c, 11, 70, 127
1, 159647, Note_on_c, 8, 56, 127
1, 159788, Note_off_c, 5, 77, 127
1, 159797, Note_off_c, 8, 56, 127
1, 159799, Note_on_c, 11, 58, 127
1, 159949, Note_off_c, 11, 58, 127
1, 159949, Note_off_c, 11, 70, 127
1, 159951, Note_on_c, 3, 75, 127
1, 159951, Note_on_c, 7, 67, 127
1, 159951, Note_on_c, 3, 51, 127
1, 160101, Note_off_c, 3, 51, 127
1, 160103, Note_on_c, 5, 53, 127
1, 160253, Note_off_c, 5, 53, 127
1, 160253, Note_off_c, 7, 67, 127
1, 160255, Note_on_c, 3, 63, 127
1, 160255, Note_on_c, 7, 55, 127
1, 160396, Note_off_c, 2, 62, 127
1, 160405, Note_off_c, 7, 55, 127
1, 160407, Note_on_c, 3, 51, 127
1, 160555, Note_off_c, 3, 63, 127
1, 160557, Note_off_c, 3, 51, 127
1, 160559, Note_on_c, 8, 56, 127
1, 160559, Note_on_c, 0, 60, 127
1, 160709, Note_off_c, 8, 56, 127
1, 160711, Note_on_c, 7, 55, 127
1, 160861, Note_off_c, 7, 55, 127
1, 160863, Note_on_c, 8, 68, 127
1, 160863, Note_on_c, 5, 53, 127
1, 161004, Note_off_c, 3, 75, 127
1, 161013, Note_off_c, 5, 53, 127
1, 161015, Note_on_c, 3, 51, 127
1, 161165, Note_off_c, 3, 51, 127
1, 161165, Note_off_c, 8, 68, 127
1, 161167, Note_on_c, 5, 65, 127
1, 161167, Note_on_c, 2, 74, 127
1, 161167, Note_on_c, 5, 53, 127
1, 161317, Note_off_c, 5, 53, 127
1, 161319, Note_on_c, 2, 50, 127
1, 161469, Note_off_c, 2, 50, 127
1, 161469, Note_off_c, 5, 65, 127
1, 161471, Note_on_c, 2, 62, 127
1, 161471, Note_on_c, 3, 51, 127
1, 161612, Note_off_c, 0, 60, 127
1, 161621, Note_off_c, 3, 51, 127
1, 161623, Note_on_c, 5, 53, 127
1, 161771, Note_off_c, 2, 62, 127
1, 161773, Note_off_c, 5, 53, 127
1, 161775, Note_on_c, 12, 59, 127
1, 161775, Note_on_c, 7, 55, 127
1, 161925, Note_off_c, 7, 55, 127
1, 161927, Note_on_c, 3, 51, 127
1, 162077, Note_off_c, 3, 51, 127
1, 162079, Note_on_c, 7, 67, 127
1, 162079, Note_on_c, 5, 53, 127
1, 162220, Note_off_c, 2, 74, 127
1, 162229, Note_off_c, 5, 53, 127
1, 162231, Note_on_c, 7, 55, 127
1, 162376, Note_off_c, 12, 59, 127
1, 162381, Note_off_c, 7, 55, 127
1, 162381, Note_off_c, 7, 67, 127
1, 162383, Note_on_c, 3, 63, 127
1, 162383, Note_on_c, 0, 72, 127
1, 162383, Note_on_c, 0, 48, 127
1, 162383, Note_on_c, 0, 60, 127
1, 162533, Note_off_c, 3, 63, 127
1, 162535, Note_on_c, 2, 62, 127
1, 162685, Note_off_c, 2, 62, 127
1, 162687, Note_on_c, 3, 63, 127
1, 162826, Note_off_c, 0, 72, 127
1, 162837, Note_off_c, 3, 63, 127
1, 162839, Note_on_c, 5, 65, 127
1, 162989, Note_off_c, 5, 65, 127
1, 162991, Note_on_c, 7, 67, 127
1, 163141, Note_off_c, 7, 67, 127
1, 163143, Note_off_c, 0, 60, 127
1, 163143, Note_off_c, 0, 48, 127
1, 163143, Note_on_c, 5, 65, 127
1, 163293, Note_off_c, 5, 65, 127
1, 163295, Note_on_c, 3, 63, 127
1, 163295, Note_on_c, 7, 67, 127
1, 163445, Note_off_c, 3, 63, 127
1, 163447, Note_on_c, 2, 62, 127
1, 163595, Note_off_c, 7, 67, 127
1, 163597, Note_off_c, 2, 62, 127
1, 163599, Note_on_c, 0, 72, 127
1, 163599, Note_on_c, 0, 60, 127
1, 163749, Note_off_c, 0, 72, 127
1, 163751, Note_on_c, 7, 67, 127
1, 163901, Note_off_c, 7, 67, 127
1, 163901, Note_off_c, 0, 60, 127
1, 163903, Note_on_c, 7, 67, 127
1, 163903, Note_on_c, 0, 48, 127
1, 164053, Note_off_c, 7, 67, 127
1, 164055, Note_on_c, 0, 72, 127
1, 164205, Note_off_c, 0, 72, 127
1, 164207, Note_on_c, 0, 72, 127
1, 164346, Note_off_c, 0, 48, 127
1, 164357, Note_off_c, 0, 72, 127
1, 164359, Note_on_c, 7, 67, 127
1, 164509, Note_off_c, 7, 67, 127
1, 164511, Note_on_c, 7, 67, 127
1, 164511, Note_on_c, 0, 60, 127
1, 164661, Note_off_c, 7, 67, 127
1, 164663, Note_on_c, 0, 72, 127
1, 164813, Note_off_c, 0, 72, 127
1, 164813, Note_off_c, 0, 60, 127
1, 164815, Note_on_c, 2, 74, 127
1, 164815, Note_on_c, 12, 59, 127
1, 164965, Note_off_c, 12, 59, 127
1, 164967, Note_on_c, 0, 60, 127
1, 165117, Note_off_c, 0, 60, 127
1, 165117, Note_off_c, 2, 74, 127
1, 165119, Note_on_c, 7, 67, 127
1, 165119, Note_on_c, 12, 59, 127
1, 165269, Note_off_c, 12, 59, 127
1, 165271, Note_on_c, 0, 60, 127
1, 165421, Note_off_c, 0, 60, 127
1, 165423, Note_on_c, 2, 62, 127
1, 165562, Note_off_c, 7, 67, 127
1, 165573, Note_off_c, 2, 62, 127
1, 165575, Note_on_c, 0, 60, 127
1, 165725, Note_off_c, 0, 60, 127
1, 165727, Note_on_c, 7, 67, 127
1, 165727, Note_on_c, 12, 59, 127
1, 165877, Note_off_c, 12, 59, 127
1, 165879, Note_on_c, 10, 57, 127
1, 166029, Note_off_c, 10, 57, 127
1, 166029, Note_off_c, 7, 67, 127
1, 166031, Note_on_c, 2, 74, 127
1, 166031, Note_on_c, 7, 55, 127
1, 166181, Note_off_c, 2, 74, 127
1, 166183, Note_on_c, 7, 67, 127
1, 166333, Note_off_c, 7, 67, 127
1, 166333, Note_off_c, 7, 55, 127
1, 166335, Note_on_c, 7, 67, 127
1, 166335, Note_on_c, 7, 43, 127
1, 166485, Note_off_c, 7, 67, 127
1, 166487, Note_on_c, 2, 74, 127
1, 166637, Note_off_c, 2, 74, 127
1, 166639, Note_on_c, 2, 74, 127
1, 166778, Note_off_c, 7, 43, 127
1, 166789, Note_off_c, 2, 74, 127
1, 166791, Note_on_c, 7, 67, 127
1, 166941, Note_off_c, 7, 67, 127
1, 166943, Note_on_c, 7, 67, 127
1, 166943, Note_on_c, 12, 59, 127
1, 167093, Note_off_c, 7, 67, 127
1, 167095, Note_on_c, 2, 74, 127
1, 167245, Note_off_c, 2, 74, 127
1, 167245, Note_off_c, 12, 59, 127
1, 167247, Note_on_c, 3, 75, 127
1, 167247, Note_on_c, 0, 60, 127
1, 167397, Note_off_c, 0, 60, 127
1, 167399, Note_on_c, 7, 55, 127
1, 167549, Note_off_c, 7, 55, 127
1, 167549, Note_off_c, 3, 75, 127
1, 167551, Note_on_c, 7, 67, 127
1, 167551, Note_on_c, 3, 51, 127
1, 167701, Note_off_c, 3, 51, 127
1, 167703, Note_on_c, 5, 53, 127
1, 167853, Note_off_c, 5, 53, 127
1, 167855, Note_on_c, 7, 55, 127
1, 167994, Note_off_c, 7, 67, 127
1, 168005, Note_off_c, 7, 55, 127
1, 168007, Note_on_c, 5, 53, 127
1, 168157, Note_off_c, 5, 53, 127
1, 168159, Note_on_c, 7, 67, 127
1, 168159, Note_on_c, 3, 51, 127
1, 168309, Note_off_c, 3, 51, 127
1, 168311, Note_on_c, 2, 50, 127
1, 168461, Note_off_c, 2, 50, 127
1, 168461, Note_off_c, 7, 67, 127
1, 168463, Note_on_c, 4, 76, 127
1, 168463, Note_on_c, 0, 48, 127
1, 168613, Note_off_c, 4, 76, 127
1, 168615, Note_on_c, 7, 67, 127
1, 168765, Note_off_c, 7, 67, 127
1, 168765, Note_off_c, 0, 48, 127
1, 168767, Note_on_c, 7, 67, 127
1, 168767, Note_on_c, 1, 61, 127
1, 168917, Note_off_c, 7, 67, 127
1, 168919, Note_on_c, 4, 76, 127
1, 169069, Note_off_c, 4, 76, 127
1, 169069, Note_off_c, 1, 61, 127
1, 169071, Note_on_c, 4, 76, 127
1, 169071, Note_on_c, 0, 60, 127
1, 169221, Note_off_c, 4, 76, 127
1, 169223, Note_on_c, 7, 67, 127
1, 169373, Note_off_c, 7, 67, 127
1, 169373, Note_off_c, 0, 60, 127
1, 169375, Note_on_c, 7, 67, 127
1, 169375, Note_on_c, 11, 58, 127
1, 169525, Note_off_c, 7, 67, 127
1, 169527, Note_on_c, 4, 76, 127
1, 169677, Note_off_c, 4, 76, 127
1, 169677, Note_off_c, 11, 58, 127
1, 169679, Note_on_c, 5, 77, 127
1, 169679, Note_on_c, 8, 56, 127
1, 169829, Note_off_c, 5, 77, 127
1, 169831, Note_on_c, 2, 74, 127
1, 169981, Note_off_c, 2, 74, 127
1, 169981, Note_off_c, 8, 56, 127
1, 169983, Note_on_c, 2, 74, 127
1, 169983, Note_on_c, 8, 68, 127
1, 170133, Note_off_c, 2, 74, 127
1, 170135, Note_on_c, 3, 75, 127
1, 170285, Note_off_c, 3, 75, 127
1, 170285, Note_off_c, 8, 68, 127
1, 170287, Note_on_c, 3, 75, 127
1, 170287, Note_on_c, 7, 67, 127
1, 170437, Note_off_c, 3, 75, 127
1, 170439, Note_on_c, 12, 71, 127
1, 170589, Note_off_c, 12, 71, 127
1, 170589, Note_off_c, 7, 67, 127
1, 170591, Note_on_c, 12, 71, 127
1, 170591, Note_on_c, 5, 65, 127
1, 170741, Note_off_c, 12, 71, 127
1, 170743, Note_on_c, 0, 72, 127
1, 170893, Note_off_c, 0, 72, 127
1, 170893, Note_off_c, 5, 65, 127
1, 170895, Note_on_c, 0, 72, 127
1, 170895, Note_on_c, 3, 63, 127
1, 171045, Note_off_c, 0, 72, 127
1, 171047, Note_on_c, 7, 67, 127
1, 171197, Note_off_c, 7, 67, 127
1, 171197, Note_off_c, 3, 63, 127
1, 171199, Note_on_c, 7, 67, 127
1, 171199, Note_on_c, 1, 61, 127
1, 171349, Note_off_c, 7, 67, 127
1, 171351, Note_on_c, 8, 68, 127
1, 171501, Note_off_c, 8, 68, 127
1, 171501, Note_off_c, 1, 61, 127
1, 171503, Note_on_c, 8, 68, 127
1, 171503, Note_on_c, 0, 60, 127
1, 171653, Note_off_c, 8, 68, 127
1, 171655, Note_on_c, 4, 64, 127
1, 171805, Note_off_c, 4, 64, 127
1, 171805, Note_off_c, 0, 60, 127
1, 171807, Note_on_c, 4, 64, 127
1, 171807, Note_on_c, 11, 58, 127
1, 171957, Note_off_c, 4, 64, 127
1, 171959, Note_on_c, 5, 65, 127
1, 172109, Note_off_c, 5, 65, 127
1, 172109, Note_off_c, 11, 58, 127
1, 172111, Note_on_c, 5, 65, 127
1, 172111, Note_on_c, 8, 56, 127
1, 172261, Note_off_c, 8, 56, 127
1, 172263, Note_on_c, 3, 63, 127
1, 172413, Note_off_c, 3, 63, 127
1, 172415, Note_on_c, 2, 62, 127
1, 172567, Note_off_c, 2, 62, 127
1, 172569, Note_on_c, 0, 60, 127
1, 172721, Note_off_c, 0, 60, 127
1, 172723, Note_on_c, 12, 59, 127
1, 172813, Note_off_c, 5, 65, 127
1, 172877, Note_on_c, 8, 68, 127
1, 173029, Note_off_c, 8, 68, 127
1, 173029, Note_off_c, 12, 59, 127
1, 173031, Note_on_c, 7, 67, 127
1, 173031, Note_on_c, 7, 55, 127
1, 173183, Note_off_c, 7, 67, 127
1, 173185, Note_on_c, 5, 65, 127
1, 173337, Note_off_c, 5, 65, 127
1, 173337, Note_off_c, 7, 55, 127
1, 173339, Note_on_c, 3, 63, 127
1, 173339, Note_on_c, 0, 60, 127
1, 173491, Note_off_c, 3, 63, 127
1, 173493, Note_on_c, 7, 67, 127
1, 173645, Note_off_c, 7, 67, 127
1, 173645, Note_off_c, 0, 60, 127
1, 173647, Note_on_c, 0, 72, 127
1, 173647, Note_on_c, 3, 51, 127
1, 173799, Note_off_c, 3, 51, 127
1, 173799, Note_off_c, 0, 72, 127
1, 173801, Note_on_c, 3, 63, 127
1, 173801, Note_on_c, 5, 53, 127
1, 173953, Note_off_c, 5, 53, 127
1, 173953, Note_off_c, 3, 63, 127
1, 173955, Note_on_c, 3, 63, 127
1, 173955, Note_on_c, 7, 55, 127
1, 174019, Note_off_c, 3, 63, 127
1, 174019, Note_on_c, 2, 62, 127
1, 174083, Note_off_c, 2, 62, 127
1, 174083, Note_on_c, 3, 63, 127
1, 174147, Note_off_c, 3, 63, 127
1, 174147, Note_on_c, 2, 62, 127
1, 174211, Note_off_c, 2, 62, 127
1, 174211, Note_on_c, 3, 63, 127
1, 174261, Note_off_c, 7, 55, 127
1, 174263, Note_on_c, 7, 43, 127
1, 174276, Note_off_c, 3, 63, 127
1, 174276, Note_on_c, 2, 62, 127
1, 174551, Note_off_c, 2, 62, 127
1, 174569, Note_off_c, 7, 43, 127
1, 174571, Note_on_c, 0, 60, 127
1, 174571, Note_on_c, 0, 36, 127
1, 174877, Note_off_c, 0, 36, 127
1, 174879, Note_on_c, 0, 48, 127
1, 174879, Note_on_c, 3, 51, 127
1, 175031, Note_off_c, 3, 51, 127
1, 175031, Note_off_c, 0, 48, 127
1, 175033, Note_on_c, 2, 50, 127
1, 175033, Note_on_c, 5, 53, 127
1, 175185, Note_off_c, 5, 53, 127
1, 175185, Note_off_c, 2, 50, 127
1, 175187, Note_on_c, 3, 51, 127
1, 175187, Note_on_c, 7, 55, 127
1, 175493, Note_off_c, 7, 55, 127
1, 175493, Note_off_c, 3, 51, 127
1, 175493, Note_off_c, 0, 60, 127
1, 175495, Note_on_c, 7, 67, 127
1, 175495, Note_on_c, 4, 64, 127
1, 175495, Note_on_c, 0, 60, 127
1, 175495, Note_on_c, 0, 48, 127
1, 175801, Note_off_c, 0, 48, 127
1, 175801, Note_off_c, 0, 60, 127
1, 175801, Note_off_c, 4, 64, 127
1, 175801, Note_off_c, 7, 67, 127
1, 175803, Note_on_c, 5, 65, 127
1, 175803, Note_on_c, 10, 69, 127
1, 175803, Note_on_c, 5, 53, 127
1, 175803, Note_on_c, 0, 60, 127
1, 175955, Note_off_c, 10, 69, 127
1, 175957, Note_on_c, 2, 74, 127
1, 176107, Note_off_c, 5, 65, 127
1, 176109, Note_off_c, 2, 74, 127
1, 176109, Note_off_c, 0, 60, 127
1, 176109, Note_off_c, 5, 53, 127
1, 176111, Note_on_c, 2, 74, 127
1, 176111, Note_on_c, 2, 50, 127
1, 176263, Note_off_c, 2, 50, 127
1, 176263, Note_off_c, 2, 74, 127
1, 176265, Note_on_c, 10, 69, 127
1, 176265, Note_on_c, 4, 52, 127
1, 176417, Note_off_c, 4, 52, 127
1, 176417, Note_off_c, 10, 69, 127
1, 176419, Note_on_c, 10, 69, 127
1, 176419, Note_on_c, 5, 53, 127
1, 176571, Note_off_c, 10, 69, 127
1, 176573, Note_on_c, 2, 74, 127
1, 176725, Note_off_c, 2, 74, 127
1, 176725, Note_off_c, 5, 53, 127
1, 176727, Note_on_c, 2, 62, 127
1, 176727, Note_on_c, 2, 74, 127
1, 176727, Note_on_c, 6, 54, 127
1, 176879, Note_off_c, 2, 74, 127
1, 176881, Note_on_c, 10, 69, 127
1, 177031, Note_off_c, 2, 62, 127
1, 177033, Note_off_c, 10, 69, 127
1, 177033, Note_off_c, 6, 54, 127
1, 177035, Note_on_c, 12, 71, 127
1, 177035, Note_on_c, 7, 67, 127
1, 177035, Note_on_c, 2, 62, 127
1, 177035, Note_on_c, 7, 55, 127
1, 177187, Note_off_c, 12, 71, 127
1, 177189, Note_on_c, 3, 75, 127
1, 177339, Note_off_c, 7, 67, 127
1, 177341, Note_off_c, 3, 75, 127
1, 177341, Note_off_c, 7, 55, 127
1, 177341, Note_off_c, 2, 62, 127
1, 177343, Note_on_c, 3, 75, 127
1, 177343, Note_on_c, 3, 51, 127
1, 177495, Note_off_c, 3, 51, 127
1, 177495, Note_off_c, 3, 75, 127
1, 177497, Note_on_c, 12, 71, 127
1, 177497, Note_on_c, 5, 53, 127
1, 177649, Note_off_c, 5, 53, 127
1, 177649, Note_off_c, 12, 71, 127
1, 177651, Note_on_c, 12, 71, 127
1, 177651, Note_on_c, 7, 55, 127
1, 177803, Note_off_c, 12, 71, 127
1, 177805, Note_on_c, 3, 75, 127
1, 177957, Note_off_c, 3, 75, 127
1, 177957, Note_off_c, 7, 55, 127
1, 177959, Note_on_c, 7, 67, 127
1, 177959, Note_on_c, 3, 75, 127
1, 177959, Note_on_c, 3, 51, 127
1, 177959, Note_on_c, 3, 63, 127
1, 178111, Note_off_c, 3, 75, 127
1, 178113, Note_on_c, 12, 71, 127
1, 178263, Note_off_c, 7, 67, 127
1, 178265, Note_off_c, 12, 71, 127
1, 178265, Note_off_c, 3, 63, 127
1, 178265, Note_off_c, 3, 51, 127
1, 178267, Note_on_c, 8, 68, 127
1, 178267, Note_on_c, 0, 72, 127
1, 178267, Note_on_c, 8, 56, 127
1, 178267, Note_on_c, 3, 63, 127
1, 178421, Note_off_c, 0, 72, 127
1, 178423, Note_on_c, 5, 77, 127
1, 178575, Note_off_c, 8, 68, 127
1, 178577, Note_off_c, 5, 77, 127
1, 178577, Note_off_c, 3, 63, 127
1, 178577, Note_off_c, 8, 56, 127
1, 178579, Note_on_c, 5, 77, 127
1, 178579, Note_on_c, 5, 53, 127
1, 178733, Note_off_c, 5, 53, 127
1, 178733, Note_off_c, 5, 77, 127
1, 178735, Note_on_c, 0, 72, 127
1, 178735, Note_on_c, 7, 55, 127
1, 178889, Note_off_c, 7, 55, 127
1, 178889, Note_off_c, 0, 72, 127
1, 178891, Note_on_c, 0, 72, 127
1, 178891, Note_on_c, 8, 56, 127
1, 179045, Note_off_c, 0, 72, 127
1, 179047, Note_on_c, 5, 77, 127
1, 179201, Note_off_c, 5, 77, 127
1, 179201, Note_off_c, 8, 56, 127
1, 179203, Note_on_c, 5, 77, 127
1, 179203, Note_on_c, 5, 65, 127
1, 179203, Note_on_c, 10, 57, 127
1, 179357, Note_off_c, 5, 77, 127
1, 179359, Note_on_c, 0, 72, 127
1, 179513, Note_off_c, 0, 72, 127
1, 179513, Note_off_c, 10, 57, 127
1, 179513, Note_off_c, 5, 65, 127
1, 179515, Note_on_c, 5, 65, 127
1, 179515, Note_on_c, 2, 74, 127
1, 179515, Note_on_c, 2, 62, 127
1, 179515, Note_on_c, 11, 58, 127
1, 179671, Note_off_c, 2, 74, 127
1, 179673, Note_on_c, 7, 79, 127
1, 179828, Note_off_c, 5, 65, 127
1, 179830, Note_off_c, 7, 79, 127
1, 179830, Note_off_c, 11, 58, 127
1, 179830, Note_off_c, 2, 62, 127
1, 179832, Note_on_c, 7, 79, 127
1, 179832, Note_on_c, 7, 55, 127
1, 179988, Note_off_c, 7, 55, 127
1, 179988, Note_off_c, 7, 79, 127
1, 179990, Note_on_c, 2, 74, 127
1, 179990, Note_on_c, 8, 56, 127
1, 180146, Note_off_c, 8, 56, 127
1, 180146, Note_off_c, 2, 74, 127
1, 180148, Note_on_c, 2, 74, 127
1, 180148, Note_on_c, 11, 58, 127
1, 180304, Note_off_c, 2, 74, 127
1, 180306, Note_on_c, 7, 79, 127
1, 180462, Note_off_c, 7, 79, 127
1, 180462, Note_off_c, 11, 58, 127
1, 180464, Note_on_c, 7, 79, 127
1, 180464, Note_on_c, 7, 67, 127
1, 180464, Note_on_c, 2, 62, 127
1, 180464, Note_on_c, 12, 59, 127
1, 180620, Note_off_c, 7, 79, 127
1, 180622, Note_on_c, 2, 74, 127
1, 180777, Note_off_c, 7, 67, 127
1, 180779, Note_off_c, 2, 74, 127
1, 180779, Note_off_c, 12, 59, 127
1, 180779, Note_off_c, 2, 62, 127
1, 180781, Note_on_c, 3, 75, 127
1, 180781, Note_on_c, 7, 67, 127
1, 180781, Note_on_c, 0, 60, 127
1, 181123, Note_off_c, 0, 60, 127
1, 181123, Note_off_c, 7, 67, 127
1, 181123, Note_off_c, 3, 75, 127
1, 181125, Note_on_c, 8, 80, 127
1, 181125, Note_on_c, 2, 74, 127
1, 181125, Note_on_c, 5, 65, 127
1, 181125, Note_on_c, 5, 53, 127
1, 181295, Note_off_c, 5, 65, 127
1, 181295, Note_off_c, 2, 74, 127
1, 181297, Note_on_c, 0, 72, 127
1, 181297, Note_on_c, 3, 63, 127
1, 181465, Note_off_c, 5, 53, 127
1, 181465, Note_off_c, 8, 80, 127
1, 181467, Note_off_c, 3, 63, 127
1, 181467, Note_off_c, 0, 72, 127
1, 181469, Note_on_c, 12, 71, 127
1, 181469, Note_on_c, 2, 74, 127
1, 181469, Note_on_c, 2, 62, 127
1, 181469, Note_on_c, 7, 55, 127
1, 181811, Note_off_c, 7, 55, 127
1, 181811, Note_off_c, 2, 62, 127
1, 181813, Note_on_c, 5, 65, 127
1, 181813, Note_on_c, 7, 43, 127
1, 182169, Note_off_c, 2, 74, 127
1, 182169, Note_off_c, 12, 71, 127
1, 182183, Note_off_c, 7, 43, 127
1, 182183, Note_off_c, 5, 65, 127
1, 182229, Note_on_c, 0, 48, 127
1, 182229, Note_on_c, 3, 63, 127
1, 182229, Note_on_c, 0, 72, 127
1, 182229, Note_on_c, 7, 67, 127
1, 184976, Note_off_c, 7, 67, 127
1, 184976, Note_off_c, 0, 72, 127
1, 184976, Note_off_c, 3, 63, 127
1, 184976, Note_off_c, 0, 48, 127
1, 187443, Note_on_c, 3, 75, 127
1, 187443, Note_on_c, 0, 72, 127
1, 187443, Note_on_c, 7, 67, 127
1, 187443, Note_on_c, 0, 48, 127
1, 188593, Note_off_c, 0, 48, 127
1, 188593, Note_off_c, 7, 67, 127
1, 188593, Note_off_c, 0, 72, 127
1, 188593, Note_off_c, 3, 75, 127
1, 188756, Note_on_c, 0, 48, 127
1, 188756, Note_on_c, 3, 75, 127
1, 188756, Note_on_c, 7, 67, 127
1, 188756, Note_on_c, 0, 72, 127
1, 188756, Note_on_c, 10, 69, 127
1, 189302, Note_off_c, 10, 69, 127
1, 189302, Note_off_c, 0, 72, 127
1, 189302, Note_off_c, 7, 67, 127
1, 189302, Note_off_c, 3, 75, 127
1, 189302, Note_off_c, 0, 48, 127
1, 189305, Note_on_c, 5, 53, 127
1, 189305, Note_on_c, 0, 72, 127
1, 189305, Note_on_c, 8, 68, 127
1, 189305, Note_on_c, 1, 73, 127
1, 190399, Note_off_c, 1, 73, 127
1, 190399, Note_off_c, 8, 68, 127
1, 190399, Note_off_c, 0, 72, 127
1, 190399, Note_off_c, 5, 53, 127
1, 190402, Note_on_c, 5, 53, 127
1, 190402, Note_on_c, 0, 72, 127
1, 190402, Note_on_c, 8, 68, 127
1, 190402, Note_on_c, 1, 73, 127
1, 190948, Note_off_c, 1, 73, 127
1, 190948, Note_off_c, 8, 68, 127
1, 190948, Note_off_c, 0, 72, 127
1, 190948, Note_off_c, 5, 53, 127
1, 190951, Note_on_c, 7, 55, 127
1, 190951, Note_on_c, 11, 70, 127
1, 190951, Note_on_c, 3, 63, 127
1, 190951, Note_on_c, 1, 73, 127
1, 192045, Note_off_c, 1, 73, 127
1, 192045, Note_off_c, 3, 63, 127
1, 192045, Note_off_c, 11, 70, 127
1, 192045, Note_off_c, 7, 55, 127
1, 192048, Note_on_c, 7, 55, 127
1, 192048, Note_on_c, 11, 70, 127
1, 192048, Note_on_c, 3, 63, 127
1, 192048, Note_on_c, 1, 73, 127
1, 192594, Note_off_c, 1, 73, 127
1, 192594, Note_off_c, 3, 63, 127
1, 192594, Note_off_c, 11, 70, 127
1, 192594, Note_off_c, 7, 55, 127
1, 192597, Note_on_c, 4, 52, 127
1, 192597, Note_on_c, 11, 70, 127
1, 192597, Note_on_c, 7, 67, 127
1, 192597, Note_on_c, 0, 72, 127
1, 193691, Note_off_c, 0, 72, 127
1, 193691, Note_off_c, 7, 67, 127
1, 193691, Note_off_c, 11, 70, 127
1, 193691, Note_off_c, 4, 52, 127
1, 193694, Note_on_c, 4, 52, 127
1, 193694, Note_on_c, 11, 70, 127
1, 193694, Note_on_c, 7, 67, 127
1, 193694, Note_on_c, 0, 72, 127
1, 194240, Note_off_c, 0, 72, 127
1, 194240, Note_off_c, 7, 67, 127
1, 194240, Note_off_c, 11, 70, 127
1, 194240, Note_off_c, 4, 52, 127
1, 194243, Note_on_c, 3, 51, 127
1, 194243, Note_on_c, 10, 69, 127
1, 194243, Note_on_c, 5, 65, 127
1, 194243, Note_on_c, 0, 72, 127
1, 195337, Note_off_c, 0, 72, 127
1, 195337, Note_off_c, 5, 65, 127
1, 195337, Note_off_c, 10, 69, 127
1, 195337, Note_off_c, 3, 51, 127
1, 195340, Note_on_c, 3, 51, 127
1, 195340, Note_on_c, 5, 65, 127
1, 195340, Note_on_c, 10, 69, 127
1, 195340, Note_on_c, 0, 72, 127
1, 195886, Note_off_c, 0, 72, 127
1, 195886, Note_off_c, 10, 69, 127
1, 195886, Note_off_c, 5, 65, 127
1, 195886, Note_off_c, 3, 51, 127
1, 195889, Note_on_c, 1, 49, 127
1, 195889, Note_on_c, 11, 70, 127
1, 195889, Note_on_c, 1, 73, 127
1, 195889, Note_on_c, 5, 65, 127
1, 196983, Note_off_c, 5, 65, 127
1, 196983, Note_off_c, 1, 73, 127
1, 196983, Note_off_c, 11, 70, 127
1, 196983, Note_off_c, 1, 49, 127
1, 196986, Note_on_c, 1, 49, 127
1, 196986, Note_on_c, 5, 65, 127
1, 196986, Note_on_c, 1, 73, 127
1, 196986, Note_on_c, 11, 70, 127
1, 197532, Note_off_c, 11, 70, 127
1, 197532, Note_off_c, 1, 73, 127
1, 197532, Note_off_c, 5, 65, 127
1, 197532, Note_off_c, 1, 49, 127
1, 197535, Note_on_c, 3, 51, 127
1, 197535, Note_on_c, 0, 72, 127
1, 197535, Note_on_c, 11, 70, 127
1, 197535, Note_on_c, 7, 67, 127
1, 198629, Note_off_c, 7, 67, 127
1, 198629, Note_off_c, 11, 70, 127
1, 198629, Note_off_c, 0, 72, 127
1, 198629, Note_off_c, 3, 51, 127
1, 198632, Note_on_c, 3, 51, 127
1, 198632, Note_on_c, 11, 70, 127
1, 198632, Note_on_c, 7, 67, 127
1, 198632, Note_on_c, 0, 72, 127
1, 199178, Note_off_c, 0, 72, 127
1, 199178, Note_off_c, 7, 67, 127
1, 199178, Note_off_c, 11, 70, 127
1, 199178, Note_off_c, 3, 51, 127
1, 199181, Note_on_c, 12, 47, 127
1, 199181, Note_on_c, 8, 68, 127
1, 199181, Note_on_c, 5, 65, 127
1, 199181, Note_on_c, 2, 74, 127
1, 200275, Note_off_c, 2, 74, 127
1, 200275, Note_off_c, 5, 65, 127
1, 200275, Note_off_c, 8, 68, 127
1, 200275, Note_off_c, 12, 47, 127
1, 200278, Note_on_c, 12, 47, 127
1, 200278, Note_on_c, 2, 74, 127
1, 200278, Note_on_c, 8, 68, 127
1, 200278, Note_on_c, 5, 65, 127
1, 200824, Note_off_c, 5, 65, 127
1, 200824, Note_off_c, 8, 68, 127
1, 200824, Note_off_c, 2, 74, 127
1, 200824, Note_off_c, 12, 47, 127
1, 200827, Note_on_c, 0, 48, 127
1, 200827, Note_on_c, 7, 67, 127
1, 200827, Note_on_c, 4, 64, 127
1, 200827, Note_on_c, 4, 76, 127
1, 201921, Note_off_c, 4, 76, 127
1, 201921, Note_off_c, 4, 64, 127
1, 201921, Note_off_c, 7, 67, 127
1, 201921, Note_off_c, 0, 48, 127
1, 201924, Note_on_c, 0, 48, 127
1, 201924, Note_on_c, 0, 60, 127
1, 201924, Note_on_c, 4, 76, 127
1, 201924, Note_on_c, 7, 67, 127
1, 202470, Note_off_c, 7, 67, 127
1, 202470, Note_off_c, 4, 76, 127
1, 202470, Note_off_c, 0, 60, 127
1, 202470, Note_off_c, 0, 48, 127
1, 202473, Note_on_c, 5, 41, 127
1, 202473, Note_on_c, 5, 77, 127
1, 202473, Note_on_c, 10, 69, 127
1, 202473, Note_on_c, 0, 72, 127
1, 203019, Note_off_c, 0, 72, 127
1, 203019, Note_off_c, 10, 69, 127
1, 203019, Note_off_c, 5, 77, 127
1, 203022, Note_on_c, 0, 72, 127
1, 203022, Note_on_c, 10, 69, 127
1, 203022, Note_on_c, 5, 65, 127
1, 203273, Note_off_c, 5, 41, 127
1, 203567, Note_off_c, 5, 65, 127
1, 203567, Note_off_c, 10, 69, 127
1, 203567, Note_off_c, 0, 72, 127
1, 203570, Note_on_c, 0, 72, 127
1, 203570, Note_on_c, 10, 69, 127
1, 203570, Note_on_c, 5, 65, 127
1, 204116, Note_off_c, 5, 65, 127
1, 204116, Note_off_c, 10, 69, 127
1, 204116, Note_off_c, 0, 72, 127
1, 204119, Note_on_c, 11, 70, 127
1, 204119, Note_on_c, 5, 65, 127
1, 204119, Note_on_c, 11, 58, 127
1, 204119, Note_on_c, 1, 73, 127
1, 204528, Note_off_c, 1, 73, 127
1, 204531, Note_on_c, 0, 72, 127
1, 204665, Note_off_c, 0, 72, 127
1, 204665, Note_off_c, 11, 58, 127
1, 204665, Note_off_c, 5, 65, 127
1, 204665, Note_off_c, 11, 70, 127
1, 204668, Note_on_c, 11, 70, 127
1, 204668, Note_on_c, 5, 65, 127
1, 204668, Note_on_c, 11, 58, 127
1, 204668, Note_on_c, 1, 73, 127
1, 204939, Note_off_c, 1, 73, 127
1, 204942, Note_on_c, 1, 73, 127
1, 205213, Note_off_c, 1, 73, 127
1, 205213, Note_off_c, 11, 58, 127
1, 205213, Note_off_c, 5, 65, 127
1, 205213, Note_off_c, 11, 70, 127
1, 205216, Note_on_c, 7, 67, 127
1, 205216, Note_on_c, 3, 63, 127
1, 205216, Note_on_c, 11, 70, 127
1, 205216, Note_on_c, 3, 75, 127
1, 205487, Note_off_c, 3, 75, 127
1, 205490, Note_on_c, 1, 73, 127
1, 205761, Note_off_c, 1, 73, 127
1, 205761, Note_off_c, 3, 63, 127
1, 205761, Note_off_c, 7, 67, 127
1, 205764, Note_on_c, 3, 63, 127
1, 205764, Note_on_c, 8, 56, 127
1, 205764, Note_on_c, 0, 72, 127
1, 206015, Note_off_c, 11, 70, 127
1, 206172, Note_off_c, 0, 72, 127
1, 206175, Note_on_c, 11, 70, 127
1, 206309, Note_off_c, 11, 70, 127
1, 206309, Note_off_c, 8, 56, 127
1, 206309, Note_off_c, 3, 63, 127
1, 206312, Note_on_c, 8, 68, 127
1, 206312, Note_on_c, 3, 63, 127
1, 206312, Note_on_c, 8, 56, 127
1, 206312, Note_on_c, 0, 72, 127
1, 206583, Note_off_c, 0, 72, 127
1, 206586, Note_on_c, 0, 72, 127
1, 206857, Note_off_c, 0, 72, 127
1, 206857, Note_off_c, 8, 56, 127
1, 206857, Note_off_c, 3, 63, 127
1, 206857, Note_off_c, 8, 68, 127
1, 206860, Note_on_c, 1, 61, 127
1, 206860, Note_on_c, 5, 65, 127
1, 206860, Note_on_c, 8, 68, 127
1, 206860, Note_on_c, 5, 77, 127
1, 207131, Note_off_c, 5, 77, 127
1, 207134, Note_on_c, 1, 73, 127
1, 207405, Note_off_c, 1, 73, 127
1, 207405, Note_off_c, 1, 61, 127
1, 207408, Note_on_c, 7, 55, 127
1, 207408, Note_on_c, 11, 70, 127
1, 207817, Note_off_c, 11, 70, 127
1, 207820, Note_on_c, 10, 69, 127
1, 207823, Note_off_c, 8, 68, 127
1, 207946, Note_off_c, 5, 65, 127
1, 207955, Note_off_c, 10, 69, 127
1, 207955, Note_off_c, 7, 55, 127
1, 207958, Note_on_c, 5, 65, 127
1, 207958, Note_on_c, 7, 55, 127
1, 207958, Note_on_c, 7, 67, 127
1, 207958, Note_on_c, 11, 70, 127
1, 208229, Note_off_c, 11, 70, 127
1, 208232, Note_on_c, 11, 70, 127
1, 208503, Note_off_c, 11, 70, 127
1, 208503, Note_off_c, 7, 67, 127
1, 208503, Note_off_c, 7, 55, 127
1, 208503, Note_off_c, 5, 65, 127
1, 208506, Note_on_c, 4, 64, 127
1, 208506, Note_on_c, 0, 60, 127
1, 208506, Note_on_c, 7, 67, 127
1, 208506, Note_on_c, 7, 79, 127
1, 208777, Note_off_c, 7, 79, 127
1, 208780, Note_on_c, 11, 70, 127
1, 209051, Note_off_c, 11, 70, 127
1, 209051, Note_off_c, 0, 60, 127
1, 209051, Note_off_c, 4, 64, 127
1, 209054, Note_on_c, 5, 53, 127
1, 209054, Note_on_c, 0, 60, 127
1, 209054, Note_on_c, 8, 68, 127
1, 209305, Note_off_c, 7, 67, 127
1, 209462, Note_off_c, 8, 68, 127
1, 209465, Note_on_c, 7, 67, 127
1, 209599, Note_off_c, 7, 67, 127
1, 209599, Note_off_c, 0, 60, 127
1, 209599, Note_off_c, 5, 53, 127
1, 209602, Note_on_c, 5, 53, 127
1, 209602, Note_on_c, 0, 60, 127
1, 209602, Note_on_c, 5, 65, 127
1, 209602, Note_on_c, 8, 68, 127
1, 209873, Note_off_c, 8, 68, 127
1, 209876, Note_on_c, 5, 77, 127
1, 210147, Note_off_c, 5, 77, 127
1, 210147, Note_off_c, 5, 65, 127
1, 210147, Note_off_c, 0, 60, 127
1, 210147, Note_off_c, 5, 53, 127
1, 210150, Note_on_c, 5, 65, 127
1, 210150, Note_on_c, 1, 61, 127
1, 210150, Note_on_c, 11, 58, 127
1, 210150, Note_on_c, 1, 73, 127
1, 210421, Note_off_c, 1, 73, 127
1, 210424, Note_on_c, 11, 70, 127
1, 210695, Note_off_c, 11, 70, 127
1, 210695, Note_off_c, 11, 58, 127
1, 210695, Note_off_c, 1, 61, 127
1, 210698, Note_on_c, 11, 58, 127
1, 210698, Note_on_c, 3, 51, 127
1, 210698, Note_on_c, 7, 67, 127
1, 210949, Note_off_c, 5, 65, 127
1, 211106, Note_off_c, 7, 67, 127
1, 211109, Note_on_c, 5, 65, 127
1, 211243, Note_off_c, 5, 65, 127
1, 211243, Note_off_c, 3, 51, 127
1, 211243, Note_off_c, 11, 58, 127
1, 211246, Note_on_c, 11, 58, 127
1, 211246, Note_on_c, 3, 51, 127
1, 211246, Note_on_c, 3, 63, 127
1, 211246, Note_on_c, 7, 67, 127
1, 211517, Note_off_c, 7, 67, 127
1, 211520, Note_on_c, 3, 75, 127
1, 211791, Note_off_c, 3, 75, 127
1, 211791, Note_off_c, 3, 63, 127
1, 211791, Note_off_c, 3, 51, 127
1, 211791, Note_off_c, 11, 58, 127
1, 211794, Note_on_c, 8, 56, 127
1, 211794, Note_on_c, 0, 60, 127
1, 211794, Note_on_c, 3, 63, 127
1, 211794, Note_on_c, 0, 72, 127
1, 212065, Note_off_c, 0, 72, 127
1, 212068, Note_on_c, 8, 68, 127
1, 212339, Note_off_c, 8, 68, 127
1, 212339, Note_off_c, 0, 60, 127
1, 212339, Note_off_c, 8, 56, 127
1, 212342, Note_on_c, 8, 56, 127
1, 212342, Note_on_c, 1, 49, 127
1, 212342, Note_on_c, 5, 65, 127
1, 212751, Note_off_c, 5, 65, 127
1, 212754, Note_off_c, 3, 63, 127
1, 212754, Note_on_c, 4, 64, 127
1, 212889, Note_off_c, 4, 64, 127
1, 212889, Note_off_c, 1, 49, 127
1, 212889, Note_off_c, 8, 56, 127
1, 212892, Note_on_c, 8, 56, 127
1, 212892, Note_on_c, 1, 49, 127
1, 212892, Note_on_c, 1, 61, 127
1, 212892, Note_on_c, 5, 65, 127
1, 213163, Note_off_c, 5, 65, 127
1, 213166, Note_on_c, 1, 73, 127
1, 213437, Note_off_c, 1, 73, 127
1, 213437, Note_off_c, 1, 61, 127
1, 213437, Note_off_c, 1, 49, 127
1, 213437, Note_off_c, 8, 56, 127
1, 213440, Note_on_c, 1, 61, 127
1, 213440, Note_on_c, 5, 65, 127
1, 213440, Note_on_c, 11, 70, 127
1, 213711, Note_off_c, 11, 70, 127
1, 213714, Note_on_c, 7, 67, 127
1, 213985, Note_off_c, 7, 67, 127
1, 213985, Note_off_c, 5, 65, 127
1, 213985, Note_off_c, 1, 61, 127
1, 213988, Note_on_c, 0, 48, 127
1, 213988, Note_on_c, 4, 76, 127
1, 213988, Note_on_c, 7, 67, 127
1, 213988, Note_on_c, 11, 70, 127
1, 214534, Note_off_c, 0, 48, 127
1, 214537, Note_on_c, 0, 60, 127
1, 215093, Note_off_c, 11, 70, 127
1, 215093, Note_off_c, 7, 67, 127
1, 215093, Note_off_c, 4, 76, 127
1, 215094, Note_off_c, 0, 60, 127
1, 215102, Note_on_c, 5, 65, 127
1, 215102, Note_on_c, 5, 77, 127
1, 215102, Note_on_c, 8, 68, 127
1, 215102, Note_on_c, 1, 61, 127
1, 215645, Note_off_c, 8, 68, 127
1, 215645, Note_off_c, 5, 65, 127
1, 215648, Note_off_c, 1, 61, 127
1, 215651, Note_on_c, 7, 67, 127
1, 215651, Note_on_c, 1, 61, 127
1, 215651, Note_on_c, 11, 58, 127
1, 215922, Note_off_c, 5, 77, 127
1, 215925, Note_on_c, 7, 79, 127
1, 216196, Note_off_c, 7, 79, 127
1, 216196, Note_off_c, 11, 58, 127
1, 216196, Note_off_c, 1, 61, 127
1, 216196, Note_off_c, 7, 67, 127
1, 216199, Note_on_c, 5, 77, 127
1, 216199, Note_on_c, 7, 67, 127
1, 216199, Note_on_c, 0, 60, 127
1, 216290, Note_on_c, 4, 76, 127
1, 216313, Note_off_c, 5, 77, 127
1, 216382, Note_on_c, 5, 77, 127
1, 216405, Note_off_c, 4, 76, 127
1, 216474, Note_on_c, 4, 76, 127
1, 216497, Note_off_c, 5, 77, 127
1, 216748, Note_on_c, 0, 48, 127
1, 217274, Note_off_c, 4, 76, 127
1, 217285, Note_off_c, 0, 60, 127
1, 217285, Note_off_c, 7, 67, 127
1, 217294, Note_off_c, 0, 48, 127
1, 217297, Note_on_c, 5, 77, 127
1, 217297, Note_on_c, 5, 65, 127
1, 217297, Note_on_c, 0, 60, 127
1, 217297, Note_on_c, 5, 53, 127
1, 218506, Note_off_c, 5, 53, 127
1, 218506, Note_off_c, 0, 60, 127
1, 218506, Note_off_c, 5, 65, 127
1, 218506, Note_off_c, 5, 77, 127
1, 218573, Note_on_c, 0, 72, 127
1, 218573, Note_on_c, 5, 77, 127
1, 218573, Note_on_c, 8, 56, 127
1, 218573, Note_on_c, 5, 53, 127
1, 219176, Note_off_c, 5, 53, 127
1, 219176, Note_off_c, 8, 56, 127
1, 219176, Note_off_c, 5, 77, 127
1, 219176, Note_off_c, 0, 72, 127
1, 219179, Note_on_c, 10, 69, 127
1, 219179, Note_on_c, 5, 77, 127
1, 219179, Note_on_c, 0, 60, 127
1, 219179, Note_on_c, 3, 51, 127
1, 220359, Note_off_c, 3, 51, 127
1, 220359, Note_off_c, 0, 60, 127
1, 220359, Note_off_c, 5, 77, 127
1, 220359, Note_off_c, 10, 69, 127
1, 220391, Note_on_c, 10, 69, 127
1, 220391, Note_on_c, 5, 77, 127
1, 220391, Note_on_c, 3, 51, 127
1, 220391, Note_on_c, 0, 60, 127
1, 220994, Note_off_c, 0, 60, 127
1, 220994, Note_off_c, 3, 51, 127
1, 220994, Note_off_c, 5, 77, 127
1, 220994, Note_off_c, 10, 69, 127
1, 220997, Note_on_c, 12, 71, 127
1, 220997, Note_on_c, 5, 77, 127
1, 220997, Note_on_c, 2, 62, 127
1, 220997, Note_on_c, 2, 50, 127
1, 222177, Note_off_c, 2, 50, 127
1, 222177, Note_off_c, 2, 62, 127
1, 222177, Note_off_c, 5, 77, 127
1, 222177, Note_off_c, 12, 71, 127
1, 222209, Note_on_c, 12, 71, 127
1, 222209, Note_on_c, 5, 77, 127
1, 222209, Note_on_c, 2, 50, 127
1, 222209, Note_on_c, 2, 62, 127
1, 222812, Note_off_c, 2, 62, 127
1, 222812, Note_off_c, 2, 50, 127
1, 222812, Note_off_c, 5, 77, 127
1, 222812, Note_off_c, 12, 71, 127
1, 222815, Note_on_c, 0, 72, 127
1, 222815, Note_on_c, 4, 76, 127
1, 222815, Note_on_c, 7, 67, 127
1, 222815, Note_on_c, 0, 48, 127
1, 223395, Note_off_c, 0, 48, 127
1, 223395, Note_off_c, 4, 76, 127
1, 223395, Note_off_c, 0, 72, 127
1, 223399, Note_on_c, 0, 72, 127
1, 223399, Note_on_c, 4, 76, 127
1, 223399, Note_on_c, 7, 79, 127
1, 223415, Note_off_c, 7, 67, 127
1, 223932, Note_off_c, 7, 79, 127
1, 223932, Note_off_c, 4, 76, 127
1, 223932, Note_off_c, 0, 72, 127
1, 223935, Note_on_c, 0, 72, 127
1, 223935, Note_on_c, 7, 79, 127
1, 223935, Note_on_c, 4, 76, 127
1, 224475, Note_off_c, 0, 72, 127
1, 224479, Note_on_c, 5, 65, 127
1, 224479, Note_on_c, 0, 72, 127
1, 224479, Note_on_c, 8, 80, 127
1, 224479, Note_on_c, 5, 77, 127
1, 224485, Note_off_c, 4, 76, 127
1, 224485, Note_off_c, 7, 79, 127
1, 224878, Note_off_c, 8, 80, 127
1, 224881, Note_on_c, 7, 79, 127
1, 225009, Note_off_c, 5, 77, 127
1, 225012, Note_off_c, 7, 79, 127
1, 225012, Note_off_c, 0, 72, 127
1, 225012, Note_off_c, 5, 65, 127
1, 225015, Note_on_c, 5, 65, 127
1, 225015, Note_on_c, 0, 72, 127
1, 225015, Note_on_c, 5, 77, 127
1, 225015, Note_on_c, 8, 80, 127
1, 225280, Note_off_c, 8, 80, 127
1, 225283, Note_on_c, 8, 80, 127
1, 225545, Note_off_c, 5, 77, 127
1, 225548, Note_off_c, 8, 80, 127
1, 225548, Note_off_c, 0, 72, 127
1, 225548, Note_off_c, 5, 65, 127
1, 225551, Note_on_c, 11, 70, 127
1, 225551, Note_on_c, 1, 73, 127
1, 225551, Note_on_c, 11, 82, 127
1, 225551, Note_on_c, 5, 77, 127
1, 225816, Note_off_c, 11, 82, 127
1, 225819, Note_on_c, 8, 80, 127
1, 226084, Note_off_c, 8, 80, 127
1, 226084, Note_off_c, 1, 73, 127
1, 226084, Note_off_c, 11, 70, 127
1, 226087, Note_on_c, 3, 63, 127
1, 226087, Note_on_c, 11, 70, 127
1, 226087, Note_on_c, 7, 79, 127
1, 226333, Note_off_c, 5, 77, 127
1, 226486, Note_off_c, 7, 79, 127
1, 226489, Note_on_c, 5, 77, 127
1, 226620, Note_off_c, 5, 77, 127
1, 226620, Note_off_c, 11, 70, 127
1, 226620, Note_off_c, 3, 63, 127
1, 226623, Note_on_c, 11, 70, 127
1, 226623, Note_on_c, 3, 63, 127
1, 226623, Note_on_c, 3, 75, 127
1, 226623, Note_on_c, 7, 79, 127
1, 226888, Note_off_c, 7, 79, 127
1, 226891, Note_on_c, 7, 79, 127
1, 227153, Note_off_c, 3, 75, 127
1, 227156, Note_off_c, 7, 79, 127
1, 227156, Note_off_c, 3, 63, 127
1, 227156, Note_off_c, 11, 70, 127
1, 227159, Note_on_c, 8, 68, 127
1, 227159, Note_on_c, 0, 72, 127
1, 227159, Note_on_c, 0, 84, 127
1, 227159, Note_on_c, 3, 75, 127
1, 227424, Note_off_c, 0, 84, 127
1, 227427, Note_on_c, 8, 80, 127
1, 227692, Note_off_c, 8, 80, 127
1, 227692, Note_off_c, 8, 68, 127
1, 227695, Note_on_c, 1, 61, 127
1, 227695, Note_on_c, 5, 77, 127
1, 227941, Note_off_c, 3, 75, 127
1, 228094, Note_off_c, 5, 77, 127
1, 228097, Note_on_c, 4, 76, 127
1, 228220, Note_off_c, 0, 72, 127
1, 228228, Note_off_c, 4, 76, 127
1, 228228, Note_off_c, 1, 61, 127
1, 228231, Note_on_c, 1, 61, 127
1, 228231, Note_on_c, 0, 72, 127
1, 228231, Note_on_c, 1, 73, 127
1, 228231, Note_on_c, 5, 77, 127
1, 228496, Note_off_c, 5, 77, 127
1, 228496, Note_off_c, 1, 73, 127
1, 228499, Note_on_c, 7, 67, 127
1, 228764, Note_off_c, 7, 67, 127
1, 228764, Note_off_c, 0, 72, 127
1, 228764, Note_off_c, 1, 61, 127
1, 228767, Note_on_c, 7, 67, 127
1, 228767, Note_on_c, 12, 71, 127
1, 228767, Note_on_c, 7, 79, 127
1, 228767, Note_on_c, 2, 74, 127
1, 229032, Note_off_c, 7, 79, 127
1, 229035, Note_on_c, 5, 77, 127
1, 229300, Note_off_c, 5, 77, 127
1, 229300, Note_off_c, 12, 71, 127
1, 229300, Note_off_c, 7, 67, 127
1, 229303, Note_on_c, 7, 67, 127
1, 229303, Note_on_c, 0, 60, 127
1, 229303, Note_on_c, 3, 75, 127
1, 229549, Note_off_c, 2, 74, 127
1, 229702, Note_off_c, 3, 75, 127
1, 229705, Note_on_c, 2, 74, 127
1, 229836, Note_off_c, 2, 74, 127
1, 229836, Note_off_c, 0, 60, 127
1, 229836, Note_off_c, 7, 67, 127
1, 229839, Note_on_c, 7, 67, 127
1, 229839, Note_on_c, 0, 60, 127
1, 229839, Note_on_c, 3, 75, 127
1, 229839, Note_on_c, 0, 72, 127
1, 230104, Note_off_c, 0, 72, 127
1, 230104, Note_off_c, 3, 75, 127
1, 230107, Note_on_c, 0, 72, 127
1, 230372, Note_off_c, 0, 72, 127
1, 230372, Note_off_c, 0, 60, 127
1, 230372, Note_off_c, 7, 67, 127
1, 230375, Note_on_c, 5, 65, 127
1, 230375, Note_on_c, 8, 68, 127
1, 230375, Note_on_c, 8, 80, 127
1, 230375, Note_on_c, 0, 72, 127
1, 230640, Note_off_c, 8, 80, 127
1, 230643, Note_on_c, 5, 77, 127
1, 230908, Note_off_c, 5, 77, 127
1, 230908, Note_off_c, 8, 68, 127
1, 230908, Note_off_c, 5, 65, 127
1, 230911, Note_on_c, 11, 58, 127
1, 230911, Note_on_c, 5, 65, 127
1, 230911, Note_on_c, 2, 74, 127
1, 231157, Note_off_c, 0, 72, 127
1, 231310, Note_off_c, 2, 74, 127
1, 231313, Note_on_c, 0, 72, 127
1, 231444, Note_off_c, 0, 72, 127
1, 231444, Note_off_c, 5, 65, 127
1, 231444, Note_off_c, 11, 58, 127
1, 231447, Note_on_c, 11, 58, 127
1, 231447, Note_on_c, 5, 65, 127
1, 231447, Note_on_c, 2, 74, 127
1, 231447, Note_on_c, 11, 70, 127
1, 231712, Note_off_c, 11, 70, 127
1, 231712, Note_off_c, 2, 74, 127
1, 231715, Note_on_c, 11, 70, 127
1, 231980, Note_off_c, 11, 70, 127
1, 231980, Note_off_c, 5, 65, 127
1, 231980, Note_off_c, 11, 58, 127
1, 231983, Note_on_c, 3, 63, 127
1, 231983, Note_on_c, 7, 67, 127
1, 231983, Note_on_c, 7, 79, 127
1, 231983, Note_on_c, 11, 70, 127
1, 232248, Note_off_c, 7, 79, 127
1, 232251, Note_on_c, 3, 75, 127
1, 232516, Note_off_c, 3, 75, 127
1, 232516, Note_off_c, 7, 67, 127
1, 232516, Note_off_c, 3, 63, 127
1, 232519, Note_on_c, 8, 56, 127
1, 232519, Note_on_c, 3, 63, 127
1, 232519, Note_on_c, 0, 72, 127
1, 232765, Note_off_c, 11, 70, 127
1, 232918, Note_off_c, 0, 72, 127
1, 232921, Note_on_c, 12, 71, 127
1, 233052, Note_off_c, 12, 71, 127
1, 233052, Note_off_c, 3, 63, 127
1, 233052, Note_off_c, 8, 56, 127
1, 233055, Note_on_c, 0, 60, 127
1, 233055, Note_on_c, 8, 56, 127
1, 233055, Note_on_c, 0, 72, 127
1, 233055, Note_on_c, 8, 68, 127
1, 233320, Note_off_c, 0, 72, 127
1, 233323, Note_on_c, 4, 76, 127
1, 233585, Note_off_c, 8, 68, 127
1, 233588, Note_off_c, 4, 76, 127
1, 233588, Note_off_c, 8, 56, 127
1, 233588, Note_off_c, 0, 60, 127
1, 233591, Note_on_c, 0, 60, 127
1, 233591, Note_on_c, 8, 56, 127
1, 233591, Note_on_c, 5, 77, 127
1, 233591, Note_on_c, 5, 65, 127
1, 233856, Note_off_c, 5, 77, 127
1, 233859, Note_on_c, 5, 77, 127
1, 234121, Note_off_c, 5, 65, 127
1, 234124, Note_off_c, 5, 77, 127
1, 234124, Note_off_c, 8, 56, 127
1, 234124, Note_off_c, 0, 60, 127
1, 234127, Note_on_c, 7, 55, 127
1, 234127, Note_on_c, 2, 62, 127
1, 234127, Note_on_c, 5, 77, 127
1, 234127, Note_on_c, 7, 67, 127
1, 234127, Note_on_c, 12, 71, 127
1, 235126, Note_off_c, 12, 71, 127
1, 235126, Note_off_c, 7, 67, 127
1, 235126, Note_off_c, 5, 77, 127
1, 235126, Note_off_c, 2, 62, 127
1, 235126, Note_off_c, 7, 55, 127
1, 235199, Note_on_c, 0, 60, 127
1, 235199, Note_on_c, 8, 56, 127
1, 235199, Note_on_c, 0, 72, 127
1, 235199, Note_on_c, 3, 75, 127
1, 235732, Note_off_c, 8, 56, 127
1, 235732, Note_off_c, 0, 60, 127
1, 235735, Note_on_c, 8, 56, 127
1, 235735, Note_on_c, 5, 53, 127
1, 236000, Note_off_c, 3, 75, 127
1, 236000, Note_off_c, 0, 72, 127
1, 236003, Note_on_c, 5, 77, 127
1, 236003, Note_on_c, 2, 74, 127
1, 236268, Note_off_c, 2, 74, 127
1, 236268, Note_off_c, 5, 77, 127
1, 236268, Note_off_c, 5, 53, 127
1, 236268, Note_off_c, 8, 56, 127
1, 236271, Note_on_c, 7, 55, 127
1, 236271, Note_on_c, 12, 71, 127
1, 236271, Note_on_c, 3, 75, 127
1, 236371, Note_on_c, 2, 74, 127
1, 236382, Note_off_c, 3, 75, 127
1, 236471, Note_on_c, 3, 75, 127
1, 236482, Note_off_c, 2, 74, 127
1, 236571, Note_on_c, 2, 74, 127
1, 236582, Note_off_c, 3, 75, 127
1, 236805, Note_on_c, 7, 43, 127
1, 237330, Note_off_c, 7, 55, 127
1, 237336, Note_off_c, 2, 74, 127
1, 237339, Note_off_c, 7, 43, 127
1, 237339, Note_off_c, 12, 71, 127
1, 237342, Note_on_c, 0, 48, 127
1, 237342, Note_on_c, 7, 55, 127
1, 237342, Note_on_c, 3, 63, 127
1, 237342, Note_on_c, 0, 72, 127
1, 237342, Note_on_c, 7, 67, 127
1, 239025, Note_off_c, 7, 67, 127
1, 239025, Note_off_c, 0, 72, 127
1, 239025, Note_off_c, 3, 63, 127
1, 239025, Note_off_c, 7, 55, 127
1, 239025, Note_off_c, 0, 48, 127
1, 239028, Note_on_c, 3, 63, 127
1, 239028, Note_on_c, 0, 60, 127
1, 239028, Note_on_c, 3, 75, 127
1, 239028, Note_on_c, 8, 80, 127
1, 240149, Note_off_c, 8, 80, 127
1, 240149, Note_off_c, 3, 75, 127
1, 240149, Note_off_c, 0, 60, 127
1, 240149, Note_off_c, 3, 63, 127
1, 240152, Note_on_c, 0, 60, 127
1, 240152, Note_on_c, 3, 63, 127
1, 240152, Note_on_c, 8, 80, 127
1, 240152, Note_on_c, 3, 75, 127
1, 240711, Note_off_c, 3, 75, 127
1, 240711, Note_off_c, 8, 80, 127
1, 240711, Note_off_c, 3, 63, 127
1, 240711, Note_off_c, 0, 60, 127
1, 240714, Note_on_c, 12, 59, 127
1, 240714, Note_on_c, 5, 65, 127
1, 240714, Note_on_c, 2, 74, 127
1, 240714, Note_on_c, 8, 80, 127
1, 242374, Note_off_c, 8, 80, 127
1, 242374, Note_off_c, 2, 74, 127
1, 242374, Note_off_c, 5, 65, 127
1, 242374, Note_off_c, 12, 59, 127
1, 242400, Note_on_c, 11, 58, 127
1, 242400, Note_on_c, 0, 60, 127
1, 242400, Note_on_c, 4, 76, 127
1, 242400, Note_on_c, 7, 79, 127
1, 243521, Note_off_c, 7, 79, 127
1, 243521, Note_off_c, 4, 76, 127
1, 243521, Note_off_c, 0, 60, 127
1, 243521, Note_off_c, 11, 58, 127
1, 243524, Note_on_c, 11, 58, 127
1, 243524, Note_on_c, 0, 60, 127
1, 243524, Note_on_c, 4, 76, 127
1, 243524, Note_on_c, 7, 79, 127
1, 244083, Note_off_c, 7, 79, 127
1, 244083, Note_off_c, 4, 76, 127
1, 244083, Note_off_c, 0, 60, 127
1, 244083, Note_off_c, 11, 58, 127
1, 244086, Note_on_c, 0, 60, 127
1, 244086, Note_on_c, 10, 57, 127
1, 244086, Note_on_c, 5, 77, 127
1, 244086, Note_on_c, 0, 72, 127
1, 245746, Note_off_c, 0, 72, 127
1, 245746, Note_off_c, 5, 77, 127
1, 245746, Note_off_c, 10, 57, 127
1, 245746, Note_off_c, 0, 60, 127
1, 245772, Note_on_c, 8, 56, 127
1, 245772, Note_on_c, 0, 60, 127
1, 245772, Note_on_c, 2, 74, 127
1, 245772, Note_on_c, 5, 77, 127
1, 246893, Note_off_c, 5, 77, 127
1, 246893, Note_off_c, 2, 74, 127
1, 246893, Note_off_c, 0, 60, 127
1, 246893, Note_off_c, 8, 56, 127
1, 246896, Note_on_c, 0, 60, 127
1, 246896, Note_on_c, 8, 56, 127
1, 246896, Note_on_c, 2, 74, 127
1, 246896, Note_on_c, 5, 77, 127
1, 247455, Note_off_c, 5, 77, 127
1, 247455, Note_off_c, 2, 74, 127
1, 247455, Note_off_c, 8, 56, 127
1, 247455, Note_off_c, 0, 60, 127
1, 247458, Note_on_c, 7, 55, 127
1, 247458, Note_on_c, 12, 59, 127
1, 247458, Note_on_c, 2, 74, 127
1, 247458, Note_on_c, 5, 77, 127
1, 247979, Note_off_c, 12, 59, 127
1, 247979, Note_off_c, 7, 55, 127
1, 247982, Note_on_c, 7, 55, 127
1, 247982, Note_on_c, 12, 59, 127
1, 248503, Note_off_c, 12, 59, 127
1, 248503, Note_off_c, 7, 55, 127
1, 248506, Note_on_c, 12, 59, 127
1, 248506, Note_on_c, 7, 55, 127
1, 249027, Note_off_c, 7, 55, 127
1, 249027, Note_off_c, 12, 59, 127
1, 249030, Note_on_c, 12, 47, 127
1, 249030, Note_on_c, 7, 67, 127
1, 249551, Note_off_c, 7, 67, 127
1, 249551, Note_off_c, 12, 47, 127
1, 249554, Note_on_c, 12, 47, 127
1, 249554, Note_on_c, 7, 67, 127
1, 250075, Note_off_c, 7, 67, 127
1, 250075, Note_off_c, 12, 47, 127
1, 250078, Note_on_c, 12, 47, 127
1, 250078, Note_on_c, 7, 67, 127
1, 250599, Note_off_c, 7, 67, 127
1, 250599, Note_off_c, 12, 47, 127
1, 250599, Note_off_c, 5, 77, 127
1, 250602, Note_on_c, 0, 48, 127
1, 250602, Note_on_c, 7, 67, 127
1, 250602, Note_on_c, 3, 75, 127
1, 251123, Note_off_c, 7, 67, 127
1, 251123, Note_off_c, 0, 48, 127
1, 251126, Note_on_c, 0, 48, 127
1, 251126, Note_on_c, 7, 67, 127
1, 251647, Note_off_c, 7, 67, 127
1, 251647, Note_off_c, 0, 48, 127
1, 251650, Note_on_c, 0, 48, 127
1, 251650, Note_on_c, 7, 67, 127
1, 252152, Note_off_c, 2, 74, 127
1, 252171, Note_off_c, 7, 67, 127
1, 252171, Note_off_c, 0, 48, 127
1, 252174, Note_on_c, 3, 51, 127
1, 252174, Note_on_c, 7, 67, 127
1, 252174, Note_on_c, 0, 72, 127
1, 252695, Note_off_c, 7, 67, 127
1, 252695, Note_off_c, 3, 51, 127
1, 252698, Note_on_c, 3, 51, 127
1, 252698, Note_on_c, 7, 67, 127
1, 253219, Note_off_c, 7, 67, 127
1, 253219, Note_off_c, 3, 51, 127
1, 253222, Note_on_c, 7, 67, 127
1, 253222, Note_on_c, 3, 51, 127
1, 253740, Note_off_c, 3, 75, 127
1, 253743, Note_off_c, 3, 51, 127
1, 253743, Note_off_c, 7, 67, 127
1, 253746, Note_on_c, 8, 68, 127
1, 253746, Note_on_c, 5, 53, 127
1, 253746, Note_on_c, 2, 74, 127
1, 254267, Note_off_c, 5, 53, 127
1, 254267, Note_off_c, 8, 68, 127
1, 254270, Note_on_c, 8, 68, 127
1, 254270, Note_on_c, 5, 53, 127
1, 254791, Note_off_c, 5, 53, 127
1, 254791, Note_off_c, 8, 68, 127
1, 254794, Note_on_c, 8, 68, 127
1, 254794, Note_on_c, 5, 53, 127
1, 255312, Note_off_c, 0, 72, 127
1, 255315, Note_off_c, 5, 53, 127
1, 255315, Note_off_c, 8, 68, 127
1, 255318, Note_on_c, 7, 67, 127
1, 255318, Note_on_c, 7, 55, 127
1, 255318, Note_on_c, 11, 70, 127
1, 255839, Note_off_c, 7, 55, 127
1, 255839, Note_off_c, 7, 67, 127
1, 255842, Note_on_c, 7, 55, 127
1, 255842, Note_on_c, 7, 67, 127
1, 256363, Note_off_c, 7, 67, 127
1, 256363, Note_off_c, 7, 55, 127
1, 256366, Note_on_c, 7, 67, 127
1, 256366, Note_on_c, 7, 55, 127
1, 256884, Note_off_c, 2, 74, 127
1, 256887, Note_off_c, 7, 55, 127
1, 256887, Note_off_c, 7, 67, 127
1, 256887, Note_off_c, 11, 70, 127
1, 256890, Note_on_c, 4, 52, 127
1, 256890, Note_on_c, 7, 67, 127
1, 256890, Note_on_c, 1, 73, 127
1, 256890, Note_on_c, 11, 70, 127
1, 257411, Note_off_c, 7, 67, 127
1, 257411, Note_off_c, 4, 52, 127
1, 257414, Note_on_c, 7, 67, 127
1, 257414, Note_on_c, 4, 52, 127
1, 257935, Note_off_c, 4, 52, 127
1, 257935, Note_off_c, 7, 67, 127
1, 257938, Note_on_c, 7, 67, 127
1, 257938, Note_on_c, 4, 52, 127
1, 258459, Note_off_c, 4, 52, 127
1, 258459, Note_off_c, 7, 67, 127
1, 258462, Note_on_c, 4, 52, 127
1, 258462, Note_on_c, 7, 67, 127
1, 258983, Note_off_c, 7, 67, 127
1, 258983, Note_off_c, 4, 52, 127
1, 258986, Note_on_c, 4, 52, 127
1, 258986, Note_on_c, 7, 67, 127
1, 259507, Note_off_c, 7, 67, 127
1, 259507, Note_off_c, 4, 52, 127
1, 259510, Note_on_c, 4, 52, 127
1, 259510, Note_on_c, 7, 67, 127
1, 260031, Note_off_c, 7, 67, 127
1, 260031, Note_off_c, 4, 52, 127
1, 260031, Note_off_c, 11, 70, 127
1, 260031, Note_off_c, 1, 73, 127
1, 260034, Note_on_c, 5, 53, 127
1, 260034, Note_on_c, 5, 65, 127
1, 260034, Note_on_c, 0, 72, 127
1, 260034, Note_on_c, 11, 70, 127
1, 260555, Note_off_c, 5, 65, 127
1, 260555, Note_off_c, 5, 53, 127
1, 260558, Note_on_c, 5, 65, 127
1, 260558, Note_on_c, 5, 53, 127
1, 261079, Note_off_c, 5, 53, 127
1, 261079, Note_off_c, 5, 65, 127
1, 261082, Note_on_c, 5, 65, 127
1, 261082, Note_on_c, 5, 53, 127
1, 261603, Note_off_c, 5, 53, 127
1, 261603, Note_off_c, 5, 65, 127
1, 261603, Note_off_c, 11, 70, 127
1, 261606, Note_on_c, 6, 54, 127
1, 261606, Note_on_c, 3, 63, 127
1, 261606, Note_on_c, 10, 69, 127
1, 262127, Note_off_c, 6, 54, 127
1, 262130, Note_on_c, 6, 54, 127
1, 262651, Note_off_c, 6, 54, 127
1, 262654, Note_on_c, 6, 54, 127
1, 263172, Note_off_c, 0, 72, 127
1, 263175, Note_off_c, 6, 54, 127
1, 263175, Note_off_c, 10, 69, 127
1, 263175, Note_off_c, 3, 63, 127
1, 263178, Note_on_c, 7, 55, 127
1, 263178, Note_on_c, 2, 62, 127
1, 263178, Note_on_c, 12, 71, 127
1, 263766, Note_on_c, 7, 67, 127
1, 264802, Note_off_c, 7, 67, 127
1, 264828, Note_off_c, 12, 71, 127
1, 264828, Note_off_c, 2, 62, 127
1, 264828, Note_off_c, 7, 55, 127
1, 265336, Note_on_c, 6, 54, 127
1, 265336, Note_on_c, 10, 57, 127
1, 265336, Note_on_c, 0, 60, 127
1, 265336, Note_on_c, 10, 69, 127
1, 265336, Note_on_c, 0, 72, 127
1, 265336, Note_on_c, 3, 75, 127
1, 266381, Note_off_c, 10, 69, 127
1, 266381, Note_off_c, 10, 57, 127
1, 266381, Note_off_c, 6, 54, 127
1, 266384, Note_on_c, 7, 55, 127
1, 266384, Note_on_c, 7, 67, 127
1, 266646, Note_off_c, 3, 75, 127
1, 266646, Note_off_c, 0, 72, 127
1, 266646, Note_on_c, 5, 77, 127
1, 266646, Note_on_c, 2, 74, 127
1, 266905, Note_off_c, 2, 74, 127
1, 266905, Note_off_c, 5, 77, 127
1, 266905, Note_off_c, 0, 60, 127
1, 266908, Note_on_c, 2, 62, 127
1, 266908, Note_on_c, 2, 74, 127
1, 266908, Note_on_c, 12, 71, 127
1, 267421, Note_off_c, 7, 67, 127
1, 267432, Note_on_c, 7, 43, 127
1, 267432, Note_on_c, 5, 65, 127
1, 267945, Note_off_c, 12, 71, 127
1, 267945, Note_off_c, 2, 74, 127
1, 267945, Note_off_c, 2, 62, 127
1, 267953, Note_off_c, 5, 65, 127
1, 267953, Note_off_c, 7, 43, 127
1, 267953, Note_off_c, 7, 55, 127
1, 267956, Note_on_c, 7, 55, 127
1, 267956, Note_on_c, 0, 48, 127
1, 267956, Note_on_c, 7, 67, 127
1, 267956, Note_on_c, 3, 63, 127
1, 267956, Note_on_c, 0, 72, 127
1, 269856, Note_off_c, 0, 72, 127
1, 269856, Note_off_c, 3, 63, 127
1, 269856, Note_off_c, 7, 67, 127
1, 269856, Note_off_c, 0, 48, 127
1, 269856, Note_off_c, 7, 55, 127
1, 271886, Note_on_c, 0, 72, 127
1, 271886, Note_on_c, 0, 60, 127
1, 272156, Note_off_c, 0, 72, 127
1, 272157, Note_on_c, 3, 75, 127
1, 272291, Note_off_c, 3, 75, 127
1, 272292, Note_on_c, 2, 74, 127
1, 272426, Note_off_c, 2, 74, 127
1, 272427, Note_on_c, 0, 72, 127
1, 272697, Note_off_c, 0, 72, 127
1, 272697, Note_off_c, 0, 60, 127
1, 272698, Note_on_c, 2, 74, 127
1, 272698, Note_on_c, 12, 59, 127
1, 272968, Note_off_c, 2, 74, 127
1, 272969, Note_on_c, 5, 77, 127
1, 273103, Note_off_c, 5, 77, 127
1, 273104, Note_on_c, 3, 75, 127
1, 273238, Note_off_c, 3, 75, 127
1, 273239, Note_on_c, 2, 74, 127
1, 273509, Note_off_c, 2, 74, 127
1, 273509, Note_off_c, 12, 59, 127
1, 273510, Note_on_c, 0, 72, 127
1, 273510, Note_on_c, 3, 75, 127
1, 273510, Note_on_c, 0, 60, 127
1, 273780, Note_off_c, 3, 75, 127
1, 273780, Note_off_c, 0, 72, 127
1, 273781, Note_on_c, 3, 75, 127
1, 273781, Note_on_c, 7, 79, 127
1, 273915, Note_off_c, 7, 79, 127
1, 273915, Note_off_c, 3, 75, 127
1, 273916, Note_on_c, 2, 74, 127
1, 273916, Note_on_c, 5, 77, 127
1, 274050, Note_off_c, 5, 77, 127
1, 274050, Note_off_c, 2, 74, 127
1, 274051, Note_on_c, 0, 72, 127
1, 274051, Note_on_c, 3, 75, 127
1, 274321, Note_off_c, 3, 75, 127
1, 274321, Note_off_c, 0, 72, 127
1, 274321, Note_off_c, 0, 60, 127
1, 274322, Note_on_c, 5, 77, 127
1, 274322, Note_on_c, 2, 74, 127
1, 274322, Note_on_c, 5, 65, 127
1, 274592, Note_off_c, 2, 74, 127
1, 274592, Note_off_c, 5, 77, 127
1, 274593, Note_on_c, 8, 80, 127
1, 274593, Note_on_c, 5, 77, 127
1, 274727, Note_off_c, 5, 77, 127
1, 274727, Note_off_c, 8, 80, 127
1, 274728, Note_on_c, 7, 79, 127
1, 274728, Note_on_c, 3, 75, 127
1, 274862, Note_off_c, 3, 75, 127
1, 274862, Note_off_c, 7, 79, 127
1, 274863, Note_on_c, 5, 77, 127
1, 274863, Note_on_c, 2, 74, 127
1, 275133, Note_off_c, 2, 74, 127
1, 275133, Note_off_c, 5, 77, 127
1, 275133, Note_off_c, 5, 65, 127
1, 275134, Note_on_c, 7, 79, 127
1, 275134, Note_on_c, 3, 75, 127
1, 275134, Note_on_c, 0, 72, 127
1, 275404, Note_off_c, 0, 72, 127
1, 275404, Note_off_c, 3, 75, 127
1, 275404, Note_off_c, 7, 79, 127
1, 275405, Note_on_c, 8, 80, 127
1, 275405, Note_on_c, 5, 77, 127
1, 275405, Note_on_c, 5, 65, 127
1, 275539, Note_off_c, 5, 77, 127
1, 275539, Note_off_c, 8, 80, 127
1, 275540, Note_on_c, 7, 79, 127
1, 275540, Note_on_c, 3, 75, 127
1, 275674, Note_off_c, 3, 75, 127
1, 275674, Note_off_c, 7, 79, 127
1, 275675, Note_on_c, 2, 74, 127
1, 275675, Note_on_c, 5, 77, 127
1, 275809, Note_off_c, 5, 77, 127
1, 275809, Note_off_c, 2, 74, 127
1, 275810, Note_on_c, 0, 72, 127
1, 275810, Note_on_c, 3, 75, 127
1, 275944, Note_off_c, 3, 75, 127
1, 275944, Note_off_c, 0, 72, 127
1, 275944, Note_off_c, 5, 65, 127
1, 275945, Note_on_c, 2, 74, 127
1, 275945, Note_on_c, 12, 71, 127
1, 275945, Note_on_c, 7, 67, 127
1, 276623, Note_off_c, 7, 67, 127
1, 276623, Note_off_c, 12, 71, 127
1, 276623, Note_off_c, 2, 74, 127
1, 276759, Note_on_c, 2, 74, 127
1, 276759, Note_on_c, 7, 55, 127
1, 276893, Note_off_c, 2, 74, 127
1, 276894, Note_on_c, 7, 79, 127
1, 277028, Note_off_c, 7, 79, 127
1, 277028, Note_off_c, 7, 55, 127
1, 277029, Note_on_c, 2, 74, 127
1, 277029, Note_on_c, 12, 59, 127
1, 277163, Note_off_c, 2, 74, 127
1, 277164, Note_on_c, 7, 79, 127
1, 277298, Note_off_c, 7, 79, 127
1, 277298, Note_off_c, 12, 59, 127
1, 277299, Note_on_c, 2, 74, 127
1, 277299, Note_on_c, 7, 55, 127
1, 277433, Note_off_c, 2, 74, 127
1, 277434, Note_on_c, 7, 79, 127
1, 277568, Note_off_c, 7, 79, 127
1, 277568, Note_off_c, 7, 55, 127
1, 277569, Note_on_c, 3, 75, 127
1, 277569, Note_on_c, 7, 67, 127
1, 277569, Note_on_c, 0, 48, 127
1, 277569, Note_on_c, 0, 60, 127
1, 277703, Note_off_c, 7, 67, 127
1, 277704, Note_on_c, 0, 72, 127
1, 277838, Note_off_c, 0, 72, 127
1, 277838, Note_off_c, 0, 60, 127
1, 277838, Note_off_c, 0, 48, 127
1, 277839, Note_on_c, 7, 67, 127
1, 277839, Note_on_c, 0, 60, 127
1, 277839, Note_on_c, 3, 51, 127
1, 277973, Note_off_c, 7, 67, 127
1, 277974, Note_on_c, 0, 72, 127
1, 278104, Note_off_c, 3, 75, 127
1, 278108, Note_off_c, 0, 72, 127
1, 278108, Note_off_c, 3, 51, 127
1, 278108, Note_off_c, 0, 60, 127
1, 278109, Note_on_c, 7, 67, 127
1, 278109, Note_on_c, 0, 60, 127
1, 278109, Note_on_c, 0, 48, 127
1, 278243, Note_off_c, 7, 67, 127
1, 278244, Note_on_c, 0, 72, 127
1, 278378, Note_off_c, 0, 72, 127
1, 278378, Note_off_c, 0, 48, 127
1, 278378, Note_off_c, 0, 60, 127
1, 278379, Note_on_c, 8, 68, 127
1, 278379, Note_on_c, 0, 72, 127
1, 278379, Note_on_c, 0, 60, 127
1, 278379, Note_on_c, 5, 53, 127
1, 278513, Note_off_c, 0, 72, 127
1, 278514, Note_on_c, 5, 77, 127
1, 278648, Note_off_c, 5, 77, 127
1, 278648, Note_off_c, 5, 53, 127
1, 278649, Note_on_c, 0, 72, 127
1, 278649, Note_on_c, 8, 56, 127
1, 278783, Note_off_c, 0, 72, 127
1, 278784, Note_on_c, 5, 77, 127
1, 278914, Note_off_c, 0, 60, 127
1, 278914, Note_off_c, 8, 68, 127
1, 278918, Note_off_c, 5, 77, 127
1, 278918, Note_off_c, 8, 56, 127
1, 278919, Note_on_c, 0, 72, 127
1, 278919, Note_on_c, 5, 53, 127
1, 279053, Note_off_c, 0, 72, 127
1, 279054, Note_on_c, 5, 77, 127
1, 279188, Note_off_c, 5, 77, 127
1, 279188, Note_off_c, 5, 53, 127
1, 279189, Note_on_c, 5, 65, 127
1, 279189, Note_on_c, 2, 74, 127
1, 279189, Note_on_c, 11, 58, 127
1, 279189, Note_on_c, 11, 46, 127
1, 279323, Note_off_c, 5, 65, 127
1, 279324, Note_on_c, 11, 70, 127
1, 279458, Note_off_c, 11, 70, 127
1, 279458, Note_off_c, 11, 46, 127
1, 279458, Note_off_c, 11, 58, 127
1, 279459, Note_on_c, 5, 65, 127
1, 279459, Note_on_c, 11, 58, 127
1, 279459, Note_on_c, 2, 50, 127
1, 279593, Note_off_c, 5, 65, 127
1, 279594, Note_on_c, 11, 70, 127
1, 279724, Note_off_c, 2, 74, 127
1, 279728, Note_off_c, 11, 70, 127
1, 279728, Note_off_c, 2, 50, 127
1, 279728, Note_off_c, 11, 58, 127
1, 279729, Note_on_c, 5, 65, 127
1, 279729, Note_on_c, 11, 58, 127
1, 279729, Note_on_c, 11, 46, 127
1, 279863, Note_off_c, 5, 65, 127
1, 279864, Note_on_c, 11, 70, 127
1, 279998, Note_off_c, 11, 70, 127
1, 279998, Note_off_c, 11, 46, 127
1, 279998, Note_off_c, 11, 58, 127
1, 279999, Note_on_c, 11, 70, 127
1, 279999, Note_on_c, 7, 67, 127
1, 279999, Note_on_c, 11, 58, 127
1, 279999, Note_on_c, 3, 51, 127
1, 280133, Note_off_c, 11, 70, 127
1, 280134, Note_on_c, 3, 75, 127
1, 280268, Note_off_c, 3, 75, 127
1, 280268, Note_off_c, 3, 51, 127
1, 280269, Note_on_c, 11, 70, 127
1, 280269, Note_on_c, 7, 55, 127
1, 280403, Note_off_c, 11, 70, 127
1, 280404, Note_on_c, 3, 75, 127
1, 280534, Note_off_c, 11, 58, 127
1, 280534, Note_off_c, 7, 67, 127
1, 280538, Note_off_c, 3, 75, 127
1, 280538, Note_off_c, 7, 55, 127
1, 280539, Note_on_c, 11, 70, 127
1, 280539, Note_on_c, 3, 51, 127
1, 280673, Note_off_c, 11, 70, 127
1, 280674, Note_on_c, 3, 75, 127
1, 280808, Note_off_c, 3, 75, 127
1, 280808, Note_off_c, 3, 51, 127
1, 280809, Note_on_c, 3, 63, 127
1, 280809, Note_on_c, 0, 72, 127
1, 280809, Note_on_c, 8, 56, 127
1, 280809, Note_on_c, 8, 44, 127
1, 280943, Note_off_c, 3, 63, 127
1, 280944, Note_on_c, 8, 68, 127
1, 281078, Note_off_c, 8, 68, 127
1, 281078, Note_off_c, 8, 44, 127
1, 281078, Note_off_c, 8, 56, 127
1, 281079, Note_on_c, 3, 63, 127
1, 281079, Note_on_c, 8, 56, 127
1, 281079, Note_on_c, 0, 48, 127
1, 281213, Note_off_c, 3, 63, 127
1, 281214, Note_on_c, 8, 68, 127
1, 281344, Note_off_c, 0, 72, 127
1, 281348, Note_off_c, 8, 68, 127
1, 281348, Note_off_c, 0, 48, 127
1, 281348, Note_off_c, 8, 56, 127
1, 281349, Note_on_c, 3, 63, 127
1, 281349, Note_on_c, 8, 44, 127
1, 281349, Note_on_c, 0, 60, 127
1, 281483, Note_off_c, 3, 63, 127
1, 281484, Note_on_c, 8, 68, 127
1, 281618, Note_off_c, 8, 68, 127
1, 281618, Note_off_c, 0, 60, 127
1, 281618, Note_off_c, 8, 44, 127
1, 281619, Note_on_c, 5, 65, 127
1, 281619, Note_on_c, 10, 69, 127
1, 281619, Note_on_c, 2, 62, 127
1, 281619, Note_on_c, 2, 50, 127
1, 281753, Note_off_c, 10, 69, 127
1, 281754, Note_on_c, 2, 74, 127
1, 281888, Note_off_c, 2, 74, 127
1, 281888, Note_off_c, 2, 50, 127
1, 281889, Note_on_c, 10, 69, 127
1, 281889, Note_on_c, 5, 53, 127
1, 282013, Note_off_c, 2, 62, 127
1, 282023, Note_off_c, 10, 69, 127
1, 282024, Note_on_c, 2, 74, 127
1, 282154, Note_off_c, 5, 65, 127
1, 282158, Note_off_c, 2, 74, 127
1, 282158, Note_off_c, 5, 53, 127
1, 282159, Note_on_c, 5, 65, 127
1, 282159, Note_on_c, 10, 69, 127
1, 282159, Note_on_c, 2, 50, 127
1, 282159, Note_on_c, 2, 62, 127
1, 282293, Note_off_c, 10, 69, 127
1, 282294, Note_on_c, 2, 74, 127
1, 282427, Note_off_c, 5, 65, 127
1, 282428, Note_off_c, 2, 74, 127
1, 282428, Note_off_c, 2, 62, 127
1, 282428, Note_off_c, 2, 50, 127
1, 282429, Note_on_c, 12, 71, 127
1, 282429, Note_on_c, 5, 65, 127
1, 282429, Note_on_c, 7, 43, 127
1, 282699, Note_off_c, 7, 43, 127
1, 282700, Note_on_c, 2, 62, 127
1, 282700, Note_on_c, 7, 55, 127
1, 282834, Note_off_c, 5, 65, 127
1, 282834, Note_off_c, 12, 71, 127
1, 282835, Note_on_c, 7, 67, 127
1, 282969, Note_off_c, 7, 67, 127
1, 282969, Note_off_c, 7, 55, 127
1, 282969, Note_off_c, 2, 62, 127
1, 282970, Note_on_c, 3, 63, 127
1, 282970, Note_on_c, 0, 72, 127
1, 282970, Note_on_c, 0, 60, 127
1, 282970, Note_on_c, 8, 56, 127
1, 283104, Note_off_c, 3, 63, 127
1, 283105, Note_on_c, 2, 62, 127
1, 283239, Note_off_c, 2, 62, 127
1, 283239, Note_off_c, 8, 56, 127
1, 283240, Note_on_c, 3, 63, 127
1, 283240, Note_on_c, 5, 53, 127
1, 283364, Note_off_c, 0, 72, 127
1, 283374, Note_off_c, 3, 63, 127
1, 283375, Note_on_c, 5, 65, 127
1, 283375, Note_on_c, 2, 74, 127
1, 283505, Note_off_c, 0, 60, 127
1, 283509, Note_off_c, 2, 74, 127
1, 283509, Note_off_c, 5, 65, 127
1, 283509, Note_off_c, 5, 53, 127
1, 283510, Note_on_c, 2, 62, 127
1, 283510, Note_on_c, 0, 72, 127
1, 283510, Note_on_c, 7, 55, 127
1, 283644, Note_off_c, 0, 72, 127
1, 283645, Note_on_c, 12, 71, 127
1, 283711, Note_off_c, 12, 71, 127
1, 283712, Note_on_c, 0, 72, 127
1, 283778, Note_off_c, 0, 72, 127
1, 283779, Note_on_c, 12, 71, 127
1, 283779, Note_on_c, 7, 43, 127
1, 283913, Note_off_c, 12, 71, 127
1, 283913, Note_off_c, 2, 62, 127
1, 283914, Note_on_c, 0, 72, 127
1, 283914, Note_on_c, 0, 60, 127
1, 284044, Note_off_c, 7, 55, 127
1, 284048, Note_off_c, 0, 60, 127
1, 284048, Note_off_c, 0, 72, 127
1, 284048, Note_off_c, 7, 43, 127
1, 284049, Note_on_c, 0, 60, 127
1, 284049, Note_on_c, 0, 72, 127
1, 284049, Note_on_c, 7, 55, 127
1, 284049, Note_on_c, 3, 51, 127
1, 284049, Note_on_c, 0, 48, 127
1, 284192, Note_on_c, 7, 67, 127
1, 284193, Note_off_c, 0, 72, 127
1, 284319, Note_off_c, 0, 60, 127
1, 284326, Note_off_c, 7, 67, 127
1, 284327, Note_on_c, 3, 63, 127
1, 284443, Note_off_c, 0, 48, 127
1, 284443, Note_off_c, 3, 51, 127
1, 284443, Note_off_c, 7, 55, 127
1, 284461, Note_off_c, 3, 63, 127
1, 284462, Note_on_c, 0, 60, 127
1, 284596, Note_off_c, 0, 60, 127
1, 284597, Note_on_c, 7, 67, 127
1, 284731, Note_off_c, 7, 67, 127
1, 284732, Note_on_c, 0, 72, 127
1, 284866, Note_off_c, 0, 72, 127
1, 284867, Note_on_c, 12, 71, 127
1, 284867, Note_on_c, 7, 55, 127
1, 284867, Note_on_c, 2, 62, 127
1, 285001, Note_off_c, 12, 71, 127
1, 285002, Note_on_c, 2, 74, 127
1, 285136, Note_off_c, 2, 74, 127
1, 285137, Note_on_c, 12, 71, 127
1, 285261, Note_off_c, 2, 62, 127
1, 285261, Note_off_c, 7, 55, 127
1, 285271, Note_off_c, 12, 71, 127
1, 285272, Note_on_c, 7, 67, 127
1, 285406, Note_off_c, 7, 67, 127
1, 285407, Note_on_c, 2, 74, 127
1, 285541, Note_off_c, 2, 74, 127
1, 285542, Note_on_c, 7, 79, 127
1, 285676, Note_off_c, 7, 79, 127
1, 285677, Note_on_c, 3, 75, 127
1, 285677, Note_on_c, 7, 55, 127
1, 285677, Note_on_c, 0, 60, 127
1, 285677, Note_on_c, 0, 48, 127
1, 285811, Note_off_c, 3, 75, 127
1, 285812, Note_on_c, 0, 72, 127
1, 285946, Note_off_c, 0, 72, 127
1, 285946, Note_off_c, 0, 48, 127
1, 285946, Note_off_c, 0, 60, 127
1, 285946, Note_off_c, 7, 55, 127
1, 285947, Note_on_c, 10, 69, 127
1, 285947, Note_on_c, 5, 53, 127
1, 285947, Note_on_c, 0, 60, 127
1, 286081, Note_off_c, 10, 69, 127
1, 286082, Note_on_c, 5, 65, 127
1, 286216, Note_off_c, 5, 65, 127
1, 286217, Note_on_c, 0, 72, 127
1, 286341, Note_off_c, 0, 60, 127
1, 286341, Note_off_c, 5, 53, 127
1, 286351, Note_off_c, 0, 72, 127
1, 286352, Note_on_c, 5, 77, 127
1, 286486, Note_off_c, 5, 77, 127
1, 286487, Note_on_c, 2, 74, 127
1, 286487, Note_on_c, 5, 53, 127
1, 286487, Note_on_c, 11, 58, 127
1, 286487, Note_on_c, 11, 46, 127
1, 286621, Note_off_c, 2, 74, 127
1, 286622, Note_on_c, 5, 65, 127
1, 286756, Note_off_c, 5, 65, 127
1, 286757, Note_on_c, 2, 62, 127
1, 286881, Note_off_c, 11, 46, 127
1, 286881, Note_off_c, 11, 58, 127
1, 286881, Note_off_c, 5, 53, 127
1, 286891, Note_off_c, 2, 62, 127
1, 286892, Note_on_c, 11, 58, 127
1, 287026, Note_off_c, 11, 58, 127
1, 287027, Note_on_c, 5, 65, 127
1, 287161, Note_off_c, 5, 65, 127
1, 287162, Note_on_c, 11, 70, 127
1, 287296, Note_off_c, 11, 70, 127
1, 287297, Note_on_c, 7, 67, 127
1, 287297, Note_on_c, 7, 55, 127
1, 287297, Note_on_c, 11, 58, 127
1, 287297, Note_on_c, 3, 51, 127
1, 287431, Note_off_c, 7, 67, 127
1, 287432, Note_on_c, 11, 70, 127
1, 287566, Note_off_c, 11, 70, 127
1, 287567, Note_on_c, 7, 67, 127
1, 287691, Note_off_c, 3, 51, 127
1, 287691, Note_off_c, 11, 58, 127
1, 287691, Note_off_c, 7, 55, 127
1, 287701, Note_off_c, 7, 67, 127
1, 287702, Note_on_c, 3, 63, 127
1, 287836, Note_off_c, 3, 63, 127
1, 287837, Note_on_c, 11, 70, 127
1, 287971, Note_off_c, 11, 70, 127
1, 287972, Note_on_c, 3, 75, 127
1, 288106, Note_off_c, 3, 75, 127
1, 288107, Note_on_c, 0, 72, 127
1, 288107, Note_on_c, 3, 51, 127
1, 288107, Note_on_c, 8, 56, 127
1, 288107, Note_on_c, 8, 44, 127
1, 288241, Note_off_c, 0, 72, 127
1, 288242, Note_on_c, 3, 75, 127
1, 288376, Note_off_c, 3, 75, 127
1, 288377, Note_on_c, 0, 72, 127
1, 288501, Note_off_c, 8, 44, 127
1, 288501, Note_off_c, 8, 56, 127
1, 288501, Note_off_c, 3, 51, 127
1, 288511, Note_off_c, 0, 72, 127
1, 288512, Note_on_c, 8, 68, 127
1, 288646, Note_off_c, 8, 68, 127
1, 288647, Note_on_c, 0, 72, 127
1, 288781, Note_off_c, 0, 72, 127
1, 288782, Note_on_c, 5, 77, 127
1, 288916, Note_off_c, 5, 77, 127
1, 288917, Note_on_c, 2, 74, 127
1, 288917, Note_on_c, 11, 46, 127
1, 288917, Note_on_c, 5, 53, 127
1, 289051, Note_off_c, 2, 74, 127
1, 289052, Note_on_c, 5, 77, 127
1, 289186, Note_off_c, 5, 77, 127
1, 289187, Note_on_c, 2, 74, 127
1, 289311, Note_off_c, 5, 53, 127
1, 289311, Note_off_c, 11, 46, 127
1, 289321, Note_off_c, 2, 74, 127
1, 289322, Note_on_c, 11, 70, 127
1, 289456, Note_off_c, 11, 70, 127
1, 289457, Note_on_c, 5, 77, 127
1, 289591, Note_off_c, 5, 77, 127
1, 289592, Note_on_c, 11, 82, 127
1, 289726, Note_off_c, 11, 82, 127
1, 289727, Note_on_c, 7, 79, 127
1, 289727, Note_on_c, 3, 51, 127
1, 289727, Note_on_c, 3, 39, 127
1, 289861, Note_off_c, 7, 79, 127
1, 289862, Note_on_c, 3, 75, 127
1, 289996, Note_off_c, 3, 75, 127
1, 289996, Note_off_c, 3, 39, 127
1, 289996, Note_off_c, 3, 51, 127
1, 289997, Note_on_c, 11, 70, 127
1, 289997, Note_on_c, 7, 67, 127
1, 289997, Note_on_c, 3, 51, 127
1, 289997, Note_on_c, 11, 58, 127
1, 290131, Note_off_c, 11, 70, 127
1, 290132, Note_on_c, 3, 75, 127
1, 290265, Note_off_c, 7, 67, 127
1, 290266, Note_off_c, 3, 75, 127
1, 290266, Note_off_c, 11, 58, 127
1, 290266, Note_off_c, 3, 51, 127
1, 290267, Note_on_c, 7, 67, 127
1, 290267, Note_on_c, 11, 70, 127
1, 290267, Note_on_c, 11, 58, 127
1, 290267, Note_on_c, 3, 51, 127
1, 290401, Note_off_c, 11, 70, 127
1, 290402, Note_on_c, 3, 75, 127
1, 290535, Note_off_c, 7, 67, 127
1, 290536, Note_off_c, 3, 75, 127
1, 290536, Note_off_c, 3, 51, 127
1, 290536, Note_off_c, 11, 58, 127
1, 290537, Note_on_c, 8, 68, 127
1, 290537, Note_on_c, 0, 72, 127
1, 290537, Note_on_c, 8, 56, 127
1, 290537, Note_on_c, 8, 44, 127
1, 290671, Note_off_c, 0, 72, 127
1, 290672, Note_on_c, 5, 77, 127
1, 290805, Note_off_c, 8, 68, 127
1, 290806, Note_off_c, 5, 77, 127
1, 290806, Note_off_c, 8, 44, 127
1, 290806, Note_off_c, 8, 56, 127
1, 290807, Note_on_c, 5, 65, 127
1, 290807, Note_on_c, 0, 72, 127
1, 290807, Note_on_c, 8, 56, 127
1, 290807, Note_on_c, 8, 44, 127
1, 290941, Note_off_c, 0, 72, 127
1, 290942, Note_on_c, 5, 77, 127
1, 291075, Note_off_c, 5, 65, 127
1, 291076, Note_off_c, 5, 77, 127
1, 291076, Note_off_c, 8, 44, 127
1, 291076, Note_off_c, 8, 56, 127
1, 291077, Note_on_c, 5, 65, 127
1, 291077, Note_on_c, 0, 72, 127
1, 291077, Note_on_c, 8, 56, 127
1, 291077, Note_on_c, 8, 44, 127
1, 291211, Note_off_c, 0, 72, 127
1, 291212, Note_on_c, 5, 77, 127
1, 291345, Note_off_c, 5, 65, 127
1, 291346, Note_off_c, 5, 77, 127
1, 291346, Note_off_c, 8, 44, 127
1, 291346, Note_off_c, 8, 56, 127
1, 291347, Note_on_c, 11, 70, 127
1, 291347, Note_on_c, 2, 74, 127
1, 291347, Note_on_c, 11, 46, 127
1, 291347, Note_on_c, 5, 53, 127
1, 291481, Note_off_c, 2, 74, 127
1, 291482, Note_on_c, 7, 79, 127
1, 291615, Note_off_c, 11, 70, 127
1, 291616, Note_off_c, 7, 79, 127
1, 291616, Note_off_c, 5, 53, 127
1, 291616, Note_off_c, 11, 46, 127
1, 291617, Note_on_c, 7, 67, 127
1, 291617, Note_on_c, 2, 74, 127
1, 291617, Note_on_c, 11, 46, 127
1, 291617, Note_on_c, 11, 58, 127
1, 291751, Note_off_c, 2, 74, 127
1, 291752, Note_on_c, 7, 79, 127
1, 291885, Note_off_c, 7, 67, 127
1, 291886, Note_off_c, 7, 79, 127
1, 291886, Note_off_c, 11, 58, 127
1, 291886, Note_off_c, 11, 46, 127
1, 291887, Note_on_c, 7, 67, 127
1, 291887, Note_on_c, 2, 74, 127
1, 291887, Note_on_c, 11, 58, 127
1, 291887, Note_on_c, 11, 46, 127
1, 292021, Note_off_c, 2, 74, 127
1, 292022, Note_on_c, 7, 79, 127
1, 292155, Note_off_c, 7, 67, 127
1, 292156, Note_off_c, 7, 79, 127
1, 292156, Note_off_c, 11, 46, 127
1, 292156, Note_off_c, 11, 58, 127
1, 292157, Note_on_c, 0, 72, 127
1, 292157, Note_on_c, 3, 75, 127
1, 292157, Note_on_c, 0, 48, 127
1, 292157, Note_on_c, 7, 55, 127
1, 292291, Note_off_c, 3, 75, 127
1, 292292, Note_on_c, 8, 80, 127
1, 292425, Note_off_c, 0, 72, 127
1, 292426, Note_off_c, 8, 80, 127
1, 292426, Note_off_c, 7, 55, 127
1, 292426, Note_off_c, 0, 48, 127
1, 292427, Note_on_c, 3, 75, 127
1, 292427, Note_on_c, 8, 68, 127
1, 292427, Note_on_c, 0, 48, 127
1, 292427, Note_on_c, 0, 60, 127
1, 292561, Note_off_c, 3, 75, 127
1, 292562, Note_on_c, 8, 80, 127
1, 292695, Note_off_c, 8, 68, 127
1, 292696, Note_off_c, 8, 80, 127
1, 292696, Note_off_c, 0, 60, 127
1, 292696, Note_off_c, 0, 48, 127
1, 292697, Note_on_c, 8, 68, 127
1, 292697, Note_on_c, 3, 75, 127
1, 292697, Note_on_c, 0, 48, 127
1, 292697, Note_on_c, 0, 60, 127
1, 292831, Note_off_c, 3, 75, 127
1, 292832, Note_on_c, 8, 80, 127
1, 292965, Note_off_c, 8, 68, 127
1, 292966, Note_off_c, 8, 80, 127
1, 292966, Note_off_c, 0, 60, 127
1, 292966, Note_off_c, 0, 48, 127
1, 292967, Note_on_c, 5, 77, 127
1, 292967, Note_on_c, 11, 70, 127
1, 292967, Note_on_c, 11, 58, 127
1, 292967, Note_on_c, 2, 50, 127
1, 293101, Note_off_c, 5, 77, 127
1, 293102, Note_on_c, 11, 82, 127
1, 293235, Note_off_c, 11, 70, 127
1, 293236, Note_off_c, 11, 82, 127
1, 293236, Note_off_c, 2, 50, 127
1, 293236, Note_off_c, 11, 58, 127
1, 293237, Note_on_c, 5, 77, 127
1, 293237, Note_on_c, 11, 70, 127
1, 293237, Note_on_c, 2, 50, 127
1, 293237, Note_on_c, 11, 58, 127
1, 293371, Note_off_c, 5, 77, 127
1, 293372, Note_on_c, 11, 82, 127
1, 293505, Note_off_c, 11, 70, 127
1, 293506, Note_off_c, 11, 82, 127
1, 293506, Note_off_c, 11, 58, 127
1, 293506, Note_off_c, 2, 50, 127
1, 293507, Note_on_c, 11, 70, 127
1, 293507, Note_on_c, 5, 77, 127
1, 293507, Note_on_c, 11, 58, 127
1, 293507, Note_on_c, 2, 50, 127
1, 293641, Note_off_c, 5, 77, 127
1, 293642, Note_on_c, 11, 82, 127
1, 293775, Note_off_c, 11, 70, 127
1, 293776, Note_off_c, 11, 82, 127
1, 293776, Note_off_c, 2, 50, 127
1, 293776, Note_off_c, 11, 58, 127
1, 293777, Note_on_c, 11, 70, 127
1, 293777, Note_on_c, 7, 79, 127
1, 293777, Note_on_c, 3, 63, 127
1, 293777, Note_on_c, 3, 51, 127
1, 293911, Note_off_c, 11, 70, 127
1, 293912, Note_on_c, 2, 74, 127
1, 294045, Note_off_c, 7, 79, 127
1, 294046, Note_off_c, 2, 74, 127
1, 294047, Note_on_c, 3, 75, 127
1, 294171, Note_off_c, 3, 51, 127
1, 294171, Note_off_c, 3, 63, 127
1, 294181, Note_off_c, 3, 75, 127
1, 294182, Note_on_c, 11, 70, 127
1, 294316, Note_off_c, 11, 70, 127
1, 294317, Note_on_c, 0, 72, 127
1, 294451, Note_off_c, 0, 72, 127
1, 294452, Note_on_c, 7, 67, 127
1, 294586, Note_off_c, 7, 67, 127
1, 294587, Note_on_c, 8, 68, 127
1, 294587, Note_on_c, 5, 53, 127
1, 294587, Note_on_c, 0, 60, 127
1, 294721, Note_off_c, 8, 68, 127
1, 294722, Note_on_c, 7, 67, 127
1, 294856, Note_off_c, 7, 67, 127
1, 294857, Note_on_c, 8, 68, 127
1, 294981, Note_off_c, 0, 60, 127
1, 294981, Note_off_c, 5, 53, 127
1, 294992, Note_on_c, 3, 63, 127
1, 295126, Note_off_c, 3, 63, 127
1, 295127, Note_on_c, 5, 65, 127
1, 295261, Note_off_c, 5, 65, 127
1, 295262, Note_on_c, 0, 60, 127
1, 295396, Note_off_c, 0, 60, 127
1, 295397, Note_on_c, 2, 62, 127
1, 295397, Note_on_c, 11, 58, 127
1, 295397, Note_on_c, 11, 46, 127
1, 295667, Note_off_c, 11, 46, 127
1, 295667, Note_off_c, 11, 58, 127
1, 295667, Note_off_c, 2, 62, 127
1, 295667, Note_off_c, 8, 68, 127
1, 295668, Note_on_c, 7, 67, 127
1, 295668, Note_on_c, 3, 63, 127
1, 295668, Note_on_c, 0, 48, 127
1, 295668, Note_on_c, 7, 55, 127
1, 295938, Note_off_c, 7, 55, 127
1, 295938, Note_off_c, 0, 48, 127
1, 295938, Note_off_c, 3, 63, 127
1, 295938, Note_off_c, 7, 67, 127
1, 295939, Note_on_c, 11, 70, 127
1, 295939, Note_on_c, 3, 75, 127
1, 295939, Note_on_c, 7, 43, 127
1, 295939, Note_on_c, 7, 55, 127
1, 296209, Note_off_c, 7, 55, 127
1, 296209, Note_off_c, 7, 43, 127
1, 296209, Note_off_c, 11, 70, 127
1, 296210, Note_on_c, 0, 72, 127
1, 296210, Note_on_c, 5, 53, 127
1, 296210, Note_on_c, 8, 44, 127
1, 296334, Note_off_c, 3, 75, 127
1, 296345, Note_on_c, 5, 77, 127
1, 296478, Note_off_c, 0, 72, 127
1, 296479, Note_off_c, 5, 77, 127
1, 296479, Note_off_c, 8, 44, 127
1, 296479, Note_off_c, 5, 53, 127
1, 296480, Note_on_c, 3, 75, 127
1, 296480, Note_on_c, 5, 65, 127
1, 296480, Note_on_c, 11, 46, 127
1, 296480, Note_on_c, 11, 58, 127
1, 296614, Note_off_c, 3, 75, 127
1, 296615, Note_on_c, 2, 74, 127
1, 296681, Note_off_c, 2, 74, 127
1, 296682, Note_on_c, 3, 75, 127
1, 296748, Note_off_c, 3, 75, 127
1, 296748, Note_off_c, 11, 58, 127
1, 296749, Note_on_c, 2, 74, 127
1, 296749, Note_on_c, 8, 56, 127
1, 296883, Note_off_c, 2, 74, 127
1, 296884, Note_on_c, 3, 75, 127
1, 297014, Note_off_c, 11, 46, 127
1, 297014, Note_off_c, 5, 65, 127
1, 297018, Note_off_c, 3, 75, 127
1, 297018, Note_off_c, 8, 56, 127
1, 297019, Note_on_c, 3, 63, 127
1, 297019, Note_on_c, 3, 75, 127
1, 297019, Note_on_c, 3, 51, 127
1, 297019, Note_on_c, 7, 55, 127
1, 297153, Note_off_c, 3, 63, 127
1, 297165, Note_on_c, 3, 63, 127
1, 297287, Note_off_c, 3, 75, 127
1, 297288, Note_off_c, 7, 55, 127
1, 297288, Note_off_c, 3, 51, 127
1, 297299, Note_off_c, 3, 63, 127
1, 297305, Note_on_c, 3, 51, 127
1, 297305, Note_on_c, 11, 58, 127
1, 297305, Note_on_c, 7, 55, 127
1, 297441, Note_on_c, 3, 63, 127
1, 297575, Note_off_c, 3, 63, 127
1, 297575, Note_off_c, 7, 55, 127
1, 297575, Note_off_c, 11, 58, 127
1, 297575, Note_off_c, 3, 51, 127
1, 297576, Note_on_c, 3, 51, 127
1, 297576, Note_on_c, 11, 58, 127
1, 297576, Note_on_c, 7, 55, 127
1, 297712, Note_on_c, 3, 63, 127
1, 297846, Note_off_c, 3, 63, 127
1, 297846, Note_off_c, 7, 55, 127
1, 297846, Note_off_c, 11, 58, 127
1, 297846, Note_off_c, 3, 51, 127
1, 297847, Note_on_c, 8, 44, 127
1, 297847, Note_on_c, 3, 51, 127
1, 297847, Note_on_c, 8, 56, 127
1, 297847, Note_on_c, 0, 60, 127
1, 297981, Note_off_c, 0, 60, 127
1, 297982, Note_on_c, 5, 65, 127
1, 298116, Note_off_c, 5, 65, 127
1, 298116, Note_off_c, 8, 56, 127
1, 298116, Note_off_c, 3, 51, 127
1, 298116, Note_off_c, 8, 44, 127
1, 298117, Note_on_c, 5, 53, 127
1, 298117, Note_on_c, 8, 44, 127
1, 298117, Note_on_c, 0, 48, 127
1, 298117, Note_on_c, 0, 60, 127
1, 298251, Note_off_c, 0, 60, 127
1, 298252, Note_on_c, 5, 65, 127
1, 298386, Note_off_c, 5, 65, 127
1, 298386, Note_off_c, 0, 48, 127
1, 298386, Note_off_c, 8, 44, 127
1, 298386, Note_off_c, 5, 53, 127
1, 298387, Note_on_c, 5, 53, 127
1, 298387, Note_on_c, 0, 48, 127
1, 298387, Note_on_c, 8, 44, 127
1, 298387, Note_on_c, 0, 60, 127
1, 298521, Note_off_c, 0, 60, 127
1, 298522, Note_on_c, 5, 65, 127
1, 298656, Note_off_c, 5, 65, 127
1, 298656, Note_off_c, 8, 44, 127
1, 298656, Note_off_c, 0, 48, 127
1, 298656, Note_off_c, 5, 53, 127
1, 298657, Note_on_c, 11, 46, 127
1, 298657, Note_on_c, 11, 58, 127
1, 298657, Note_on_c, 5, 53, 127
1, 298657, Note_on_c, 2, 62, 127
1, 298791, Note_off_c, 2, 62, 127
1, 298792, Note_on_c, 7, 67, 127
1, 298926, Note_off_c, 7, 67, 127
1, 298926, Note_off_c, 5, 53, 127
1, 298926, Note_off_c, 11, 58, 127
1, 298926, Note_off_c, 11, 46, 127
1, 298927, Note_on_c, 11, 46, 127
1, 298927, Note_on_c, 7, 55, 127
1, 298927, Note_on_c, 2, 50, 127
1, 298927, Note_on_c, 2, 62, 127
1, 299061, Note_off_c, 2, 62, 127
1, 299062, Note_on_c, 7, 67, 127
1, 299196, Note_off_c, 7, 67, 127
1, 299196, Note_off_c, 2, 50, 127
1, 299196, Note_off_c, 7, 55, 127
1, 299196, Note_off_c, 11, 46, 127
1, 299197, Note_on_c, 11, 46, 127
1, 299197, Note_on_c, 7, 55, 127
1, 299197, Note_on_c, 2, 50, 127
1, 299197, Note_on_c, 2, 62, 127
1, 299331, Note_off_c, 2, 62, 127
1, 299332, Note_on_c, 7, 67, 127
1, 299466, Note_off_c, 7, 67, 127
1, 299466, Note_off_c, 2, 50, 127
1, 299466, Note_off_c, 7, 55, 127
1, 299466, Note_off_c, 11, 46, 127
1, 299467, Note_on_c, 7, 55, 127
1, 299467, Note_on_c, 0, 48, 127
1, 299467, Note_on_c, 3, 63, 127
1, 299601, Note_off_c, 3, 63, 127
1, 299602, Note_on_c, 8, 68, 127
1, 299736, Note_off_c, 8, 68, 127
1, 299736, Note_off_c, 0, 48, 127
1, 299736, Note_off_c, 7, 55, 127
1, 299737, Note_on_c, 3, 51, 127
1, 299737, Note_on_c, 0, 48, 127
1, 299737, Note_on_c, 8, 56, 127
1, 299737, Note_on_c, 3, 63, 127
1, 299871, Note_off_c, 3, 63, 127
1, 299872, Note_on_c, 8, 68, 127
1, 300006, Note_off_c, 8, 68, 127
1, 300006, Note_off_c, 8, 56, 127
1, 300006, Note_off_c, 0, 48, 127
1, 300006, Note_off_c, 3, 51, 127
1, 300007, Note_on_c, 0, 48, 127
1, 300007, Note_on_c, 3, 51, 127
1, 300007, Note_on_c, 8, 56, 127
1, 300007, Note_on_c, 3, 63, 127
1, 300141, Note_off_c, 3, 63, 127
1, 300142, Note_on_c, 8, 68, 127
1, 300276, Note_off_c, 8, 68, 127
1, 300276, Note_off_c, 8, 56, 127
1, 300276, Note_off_c, 3, 51, 127
1, 300276, Note_off_c, 0, 48, 127
1, 300277, Note_on_c, 5, 53, 127
1, 300277, Note_on_c, 2, 50, 127
1, 300277, Note_on_c, 11, 58, 127
1, 300277, Note_on_c, 5, 65, 127
1, 300411, Note_off_c, 5, 65, 127
1, 300412, Note_on_c, 11, 70, 127
1, 300546, Note_off_c, 11, 70, 127
1, 300546, Note_off_c, 11, 58, 127
1, 300546, Note_off_c, 2, 50, 127
1, 300546, Note_off_c, 5, 53, 127
1, 300547, Note_on_c, 5, 53, 127
1, 300547, Note_on_c, 2, 50, 127
1, 300547, Note_on_c, 11, 58, 127
1, 300547, Note_on_c, 5, 65, 127
1, 300681, Note_off_c, 5, 65, 127
1, 300682, Note_on_c, 11, 70, 127
1, 300816, Note_off_c, 11, 70, 127
1, 300816, Note_off_c, 11, 58, 127
1, 300816, Note_off_c, 2, 50, 127
1, 300816, Note_off_c, 5, 53, 127
1, 300817, Note_on_c, 11, 58, 127
1, 300817, Note_on_c, 5, 53, 127
1, 300817, Note_on_c, 2, 50, 127
1, 300817, Note_on_c, 5, 65, 127
1, 300951, Note_off_c, 5, 65, 127
1, 300952, Note_on_c, 11, 70, 127
1, 301086, Note_off_c, 11, 70, 127
1, 301086, Note_off_c, 2, 50, 127
1, 301086, Note_off_c, 5, 53, 127
1, 301086, Note_off_c, 11, 58, 127
1, 301087, Note_on_c, 3, 51, 127
1, 301087, Note_on_c, 11, 58, 127
1, 301087, Note_on_c, 7, 67, 127
1, 301087, Note_on_c, 3, 63, 127
1, 301221, Note_off_c, 7, 67, 127
1, 301222, Note_on_c, 11, 70, 127
1, 301356, Note_off_c, 11, 70, 127
1, 301356, Note_off_c, 11, 58, 127
1, 301357, Note_on_c, 7, 55, 127
1, 301357, Note_on_c, 3, 75, 127
1, 301481, Note_off_c, 3, 63, 127
1, 301491, Note_off_c, 3, 75, 127
1, 301492, Note_on_c, 11, 70, 127
1, 301622, Note_off_c, 3, 51, 127
1, 301626, Note_off_c, 11, 70, 127
1, 301626, Note_off_c, 7, 55, 127
1, 301627, Note_on_c, 3, 51, 127
1, 301627, Note_on_c, 0, 72, 127
1, 301761, Note_off_c, 0, 72, 127
1, 301762, Note_on_c, 7, 67, 127
1, 301896, Note_off_c, 7, 67, 127
1, 301896, Note_off_c, 3, 51, 127
1, 301897, Note_on_c, 5, 53, 127
1, 301897, Note_on_c, 8, 68, 127
1, 301897, Note_on_c, 3, 63, 127
1, 302031, Note_off_c, 8, 68, 127
1, 302032, Note_on_c, 7, 67, 127
1, 302165, Note_off_c, 3, 63, 127
1, 302166, Note_off_c, 7, 67, 127
1, 302166, Note_off_c, 5, 53, 127
1, 302167, Note_on_c, 0, 48, 127
1, 302167, Note_on_c, 5, 65, 127
1, 302167, Note_on_c, 8, 68, 127
1, 302301, Note_off_c, 5, 65, 127
1, 302302, Note_on_c, 3, 63, 127
1, 302436, Note_off_c, 3, 63, 127
1, 302436, Note_off_c, 0, 48, 127
1, 302437, Note_on_c, 8, 44, 127
1, 302437, Note_on_c, 5, 65, 127
1, 302571, Note_off_c, 5, 65, 127
1, 302572, Note_on_c, 0, 60, 127
1, 302706, Note_off_c, 0, 60, 127
1, 302706, Note_off_c, 8, 44, 127
1, 302707, Note_on_c, 11, 46, 127
1, 302707, Note_on_c, 5, 53, 127
1, 302707, Note_on_c, 2, 62, 127
1, 302977, Note_off_c, 2, 62, 127
1, 302977, Note_off_c, 5, 53, 127
1, 302977, Note_off_c, 11, 46, 127
1, 302977, Note_off_c, 8, 68, 127
1, 302978, Note_on_c, 3, 51, 127
1, 302978, Note_on_c, 0, 48, 127
1, 302978, Note_on_c, 7, 67, 127
1, 302978, Note_on_c, 3, 63, 127
1, 303112, Note_off_c, 7, 67, 127
1, 303113, Note_on_c, 8, 68, 127
1, 303247, Note_off_c, 8, 68, 127
1, 303247, Note_off_c, 3, 63, 127
1, 303247, Note_off_c, 0, 48, 127
1, 303248, Note_on_c, 7, 43, 127
1, 303248, Note_on_c, 11, 70, 127
1, 303248, Note_on_c, 3, 63, 127
1, 303518, Note_off_c, 7, 43, 127
1, 303519, Note_on_c, 8, 44, 127
1, 303653, Note_off_c, 11, 70, 127
1, 303654, Note_on_c, 0, 72, 127
1, 303784, Note_off_c, 3, 63, 127
1, 303788, Note_off_c, 0, 72, 127
1, 303788, Note_off_c, 8, 44, 127
1, 303788, Note_off_c, 3, 51, 127
1, 303789, Note_on_c, 11, 46, 127
1, 303789, Note_on_c, 11, 58, 127
1, 303789, Note_on_c, 2, 62, 127
1, 303789, Note_on_c, 7, 67, 127
1, 303855, Note_off_c, 7, 67, 127
1, 303856, Note_on_c, 5, 65, 127
1, 303922, Note_off_c, 5, 65, 127
1, 303923, Note_on_c, 7, 67, 127
1, 303989, Note_off_c, 7, 67, 127
1, 303990, Note_on_c, 5, 65, 127
1, 304056, Note_off_c, 5, 65, 127
1, 304056, Note_off_c, 11, 58, 127
1, 304057, Note_on_c, 8, 56, 127
1, 304057, Note_on_c, 7, 67, 127
1, 304123, Note_off_c, 7, 67, 127
1, 304124, Note_on_c, 5, 65, 127
1, 304180, Note_off_c, 2, 62, 127
1, 304190, Note_off_c, 5, 65, 127
1, 304191, Note_on_c, 3, 63, 127
1, 304257, Note_off_c, 3, 63, 127
1, 304258, Note_on_c, 5, 65, 127
1, 304320, Note_off_c, 8, 56, 127
1, 304320, Note_off_c, 11, 46, 127
1, 304324, Note_off_c, 5, 65, 127
1, 304325, Note_on_c, 7, 55, 127
1, 304325, Note_on_c, 3, 39, 127
1, 304325, Note_on_c, 3, 63, 127
1, 304465, Note_off_c, 7, 55, 127
1, 304485, Note_on_c, 3, 75, 127
1, 304599, Note_off_c, 3, 39, 127
1, 304604, Note_on_c, 3, 51, 127
1, 304604, Note_on_c, 11, 70, 127
1, 304604, Note_on_c, 7, 67, 127
1, 304619, Note_off_c, 3, 75, 127
1, 304738, Note_off_c, 11, 70, 127
1, 304739, Note_on_c, 3, 75, 127
1, 304872, Note_off_c, 7, 67, 127
1, 304873, Note_off_c, 3, 75, 127
1, 304873, Note_off_c, 3, 51, 127
1, 304874, Note_on_c, 3, 51, 127
1, 304874, Note_on_c, 11, 70, 127
1, 304874, Note_on_c, 7, 67, 127
1, 305008, Note_off_c, 11, 70, 127
1, 305009, Note_on_c, 3, 75, 127
1, 305142, Note_off_c, 7, 67, 127
1, 305143, Note_off_c, 3, 75, 127
1, 305143, Note_off_c, 3, 51, 127
1, 305144, Note_on_c, 3, 51, 127
1, 305144, Note_on_c, 8, 68, 127
1, 305144, Note_on_c, 0, 72, 127
1, 305278, Note_off_c, 0, 72, 127
1, 305279, Note_on_c, 3, 75, 127
1, 305412, Note_off_c, 8, 68, 127
1, 305413, Note_off_c, 3, 75, 127
1, 305413, Note_off_c, 3, 51, 127
1, 305414, Note_on_c, 3, 51, 127
1, 305414, Note_on_c, 0, 72, 127
1, 305414, Note_on_c, 8, 68, 127
1, 305548, Note_off_c, 0, 72, 127
1, 305549, Note_on_c, 3, 75, 127
1, 305682, Note_off_c, 8, 68, 127
1, 305683, Note_off_c, 3, 75, 127
1, 305683, Note_off_c, 3, 51, 127
1, 305684, Note_on_c, 3, 51, 127
1, 305684, Note_on_c, 0, 72, 127
1, 305684, Note_on_c, 8, 68, 127
1, 305818, Note_off_c, 0, 72, 127
1, 305819, Note_on_c, 3, 75, 127
1, 305952, Note_off_c, 8, 68, 127
1, 305953, Note_off_c, 3, 75, 127
1, 305953, Note_off_c, 3, 51, 127
1, 305954, Note_on_c, 3, 51, 127
1, 305954, Note_on_c, 7, 67, 127
1, 305954, Note_on_c, 11, 70, 127
1, 306088, Note_off_c, 11, 70, 127
1, 306089, Note_on_c, 3, 75, 127
1, 306222, Note_off_c, 7, 67, 127
1, 306223, Note_off_c, 3, 75, 127
1, 306223, Note_off_c, 3, 51, 127
1, 306224, Note_on_c, 3, 51, 127
1, 306224, Note_on_c, 11, 70, 127
1, 306224, Note_on_c, 7, 67, 127
1, 306358, Note_off_c, 11, 70, 127
1, 306359, Note_on_c, 3, 75, 127
1, 306492, Note_off_c, 7, 67, 127
1, 306493, Note_off_c, 3, 75, 127
1, 306493, Note_off_c, 3, 51, 127
1, 306494, Note_on_c, 3, 51, 127
1, 306494, Note_on_c, 11, 70, 127
1, 306494, Note_on_c, 7, 67, 127
1, 306628, Note_off_c, 11, 70, 127
1, 306629, Note_on_c, 3, 75, 127
1, 306762, Note_off_c, 7, 67, 127
1, 306763, Note_off_c, 3, 75, 127
1, 306763, Note_off_c, 3, 51, 127
1, 306764, Note_on_c, 3, 51, 127
1, 306764, Note_on_c, 0, 72, 127
1, 306764, Note_on_c, 8, 68, 127
1, 306898, Note_off_c, 0, 72, 127
1, 306899, Note_on_c, 3, 75, 127
1, 307032, Note_off_c, 8, 68, 127
1, 307033, Note_off_c, 3, 75, 127
1, 307033, Note_off_c, 3, 51, 127
1, 307034, Note_on_c, 3, 51, 127
1, 307034, Note_on_c, 8, 68, 127
1, 307034, Note_on_c, 0, 72, 127
1, 307168, Note_off_c, 0, 72, 127
1, 307169, Note_on_c, 3, 75, 127
1, 307302, Note_off_c, 8, 68, 127
1, 307303, Note_off_c, 3, 75, 127
1, 307303, Note_off_c, 3, 51, 127
1, 307304, Note_on_c, 3, 51, 127
1, 307304, Note_on_c, 8, 68, 127
1, 307304, Note_on_c, 0, 72, 127
1, 307438, Note_off_c, 0, 72, 127
1, 307439, Note_on_c, 3, 75, 127
1, 307561, Note_off_c, 3, 63, 127
1, 307572, Note_off_c, 8, 68, 127
1, 307573, Note_off_c, 3, 75, 127
1, 307573, Note_off_c, 3, 51, 127
1, 307574, Note_on_c, 3, 51, 127
1, 307574, Note_on_c, 11, 70, 127
1, 307574, Note_on_c, 7, 67, 127
1, 307708, Note_off_c, 7, 67, 127
1, 307708, Note_off_c, 11, 70, 127
1, 307709, Note_on_c, 7, 67, 127
1, 307842, Note_off_c, 3, 51, 127
1, 307843, Note_off_c, 7, 67, 127
1, 307844, Note_on_c, 5, 65, 127
1, 307978, Note_off_c, 5, 65, 127
1, 307979, Note_on_c, 3, 63, 127
1, 308113, Note_off_c, 3, 63, 127
1, 308114, Note_on_c, 2, 62, 127
1, 308248, Note_off_c, 2, 62, 127
1, 308249, Note_on_c, 0, 60, 127
1, 308383, Note_off_c, 0, 60, 127
1, 308384, Note_on_c, 11, 58, 127
1, 308384, Note_on_c, 11, 70, 127
1, 308520, Note_on_c, 11, 82, 127
1, 308654, Note_off_c, 11, 82, 127
1, 308654, Note_off_c, 11, 58, 127
1, 308655, Note_on_c, 11, 58, 127
1, 308655, Note_on_c, 5, 77, 127
1, 308655, Note_on_c, 2, 74, 127
1, 308789, Note_off_c, 5, 77, 127
1, 308790, Note_on_c, 11, 82, 127
1, 308923, Note_off_c, 2, 74, 127
1, 308924, Note_off_c, 11, 82, 127
1, 308924, Note_off_c, 11, 58, 127
1, 308925, Note_on_c, 11, 58, 127
1, 308925, Note_on_c, 5, 77, 127
1, 308925, Note_on_c, 2, 74, 127
1, 309059, Note_off_c, 5, 77, 127
1, 309060, Note_on_c, 11, 82, 127
1, 309193, Note_off_c, 2, 74, 127
1, 309194, Note_off_c, 11, 82, 127
1, 309194, Note_off_c, 11, 58, 127
1, 309195, Note_on_c, 11, 58, 127
1, 309195, Note_on_c, 7, 79, 127
1, 309195, Note_on_c, 3, 75, 127
1, 309329, Note_off_c, 7, 79, 127
1, 309330, Note_on_c, 11, 82, 127
1, 309463, Note_off_c, 3, 75, 127
1, 309464, Note_off_c, 11, 82, 127
1, 309464, Note_off_c, 11, 58, 127
1, 309465, Note_on_c, 11, 58, 127
1, 309465, Note_on_c, 7, 79, 127
1, 309465, Note_on_c, 3, 75, 127
1, 309599, Note_off_c, 7, 79, 127
1, 309600, Note_on_c, 11, 82, 127
1, 309733, Note_off_c, 3, 75, 127
1, 309734, Note_off_c, 11, 82, 127
1, 309734, Note_off_c, 11, 58, 127
1, 309735, Note_on_c, 11, 58, 127
1, 309735, Note_on_c, 7, 79, 127
1, 309735, Note_on_c, 3, 75, 127
1, 309869, Note_off_c, 7, 79, 127
1, 309870, Note_on_c, 11, 82, 127
1, 310003, Note_off_c, 3, 75, 127
1, 310004, Note_off_c, 11, 82, 127
1, 310004, Note_off_c, 11, 58, 127
1, 310005, Note_on_c, 11, 58, 127
1, 310005, Note_on_c, 2, 74, 127
1, 310005, Note_on_c, 5, 77, 127
1, 310139, Note_off_c, 5, 77, 127
1, 310140, Note_on_c, 11, 82, 127
1, 310273, Note_off_c, 2, 74, 127
1, 310274, Note_off_c, 11, 82, 127
1, 310274, Note_off_c, 11, 58, 127
1, 310275, Note_on_c, 11, 58, 127
1, 310275, Note_on_c, 2, 74, 127
1, 310275, Note_on_c, 5, 77, 127
1, 310409, Note_off_c, 5, 77, 127
1, 310410, Note_on_c, 11, 82, 127
1, 310543, Note_off_c, 2, 74, 127
1, 310544, Note_off_c, 11, 82, 127
1, 310544, Note_off_c, 11, 58, 127
1, 310545, Note_on_c, 11, 58, 127
1, 310545, Note_on_c, 5, 77, 127
1, 310545, Note_on_c, 2, 74, 127
1, 310679, Note_off_c, 5, 77, 127
1, 310680, Note_on_c, 11, 82, 127
1, 310813, Note_off_c, 2, 74, 127
1, 310814, Note_off_c, 11, 82, 127
1, 310814, Note_off_c, 11, 58, 127
1, 310815, Note_on_c, 11, 58, 127
1, 310815, Note_on_c, 3, 75, 127
1, 310815, Note_on_c, 7, 79, 127
1, 310949, Note_off_c, 7, 79, 127
1, 310950, Note_on_c, 11, 82, 127
1, 311083, Note_off_c, 3, 75, 127
1, 311084, Note_off_c, 11, 82, 127
1, 311084, Note_off_c, 11, 58, 127
1, 311085, Note_on_c, 11, 58, 127
1, 311085, Note_on_c, 7, 79, 127
1, 311085, Note_on_c, 3, 75, 127
1, 311219, Note_off_c, 7, 79, 127
1, 311220, Note_on_c, 11, 82, 127
1, 311353, Note_off_c, 3, 75, 127
1, 311354, Note_off_c, 11, 82, 127
1, 311354, Note_off_c, 11, 58, 127
1, 311355, Note_on_c, 11, 58, 127
1, 311355, Note_on_c, 3, 75, 127
1, 311355, Note_on_c, 7, 79, 127
1, 311489, Note_off_c, 7, 79, 127
1, 311490, Note_on_c, 11, 82, 127
1, 311620, Note_off_c, 11, 70, 127
1, 311623, Note_off_c, 3, 75, 127
1, 311624, Note_off_c, 11, 82, 127
1, 311624, Note_off_c, 11, 58, 127
1, 311625, Note_on_c, 11, 58, 127
1, 311625, Note_on_c, 5, 77, 127
1, 311625, Note_on_c, 2, 74, 127
1, 311759, Note_off_c, 11, 58, 127
1, 311760, Note_on_c, 3, 63, 127
1, 311894, Note_off_c, 3, 63, 127
1, 311895, Note_on_c, 2, 62, 127
1, 312019, Note_off_c, 2, 74, 127
1, 312019, Note_off_c, 5, 77, 127
1, 312029, Note_off_c, 2, 62, 127
1, 312030, Note_on_c, 0, 60, 127
1, 312164, Note_off_c, 0, 60, 127
1, 312165, Note_on_c, 12, 59, 127
1, 312299, Note_off_c, 12, 59, 127
1, 312300, Note_on_c, 10, 57, 127
1, 312434, Note_off_c, 10, 57, 127
1, 312435, Note_on_c, 7, 67, 127
1, 312435, Note_on_c, 7, 55, 127
1, 312571, Note_on_c, 7, 79, 127
1, 312705, Note_off_c, 7, 79, 127
1, 312705, Note_off_c, 7, 55, 127
1, 312706, Note_on_c, 7, 55, 127
1, 312706, Note_on_c, 2, 74, 127
1, 312706, Note_on_c, 12, 71, 127
1, 312840, Note_off_c, 2, 74, 127
1, 312841, Note_on_c, 7, 79, 127
1, 312974, Note_off_c, 12, 71, 127
1, 312975, Note_off_c, 7, 79, 127
1, 312975, Note_off_c, 7, 55, 127
1, 312976, Note_on_c, 7, 55, 127
1, 312976, Note_on_c, 12, 71, 127
1, 312976, Note_on_c, 2, 74, 127
1, 313110, Note_off_c, 2, 74, 127
1, 313111, Note_on_c, 7, 79, 127
1, 313244, Note_off_c, 12, 71, 127
1, 313245, Note_off_c, 7, 79, 127
1, 313245, Note_off_c, 7, 55, 127
1, 313246, Note_on_c, 7, 55, 127
1, 313246, Note_on_c, 0, 72, 127
1, 313246, Note_on_c, 3, 75, 127
1, 313380, Note_off_c, 3, 75, 127
1, 313381, Note_on_c, 7, 79, 127
1, 313514, Note_off_c, 0, 72, 127
1, 313515, Note_off_c, 7, 79, 127
1, 313515, Note_off_c, 7, 55, 127
1, 313516, Note_on_c, 7, 55, 127
1, 313516, Note_on_c, 0, 72, 127
1, 313516, Note_on_c, 3, 75, 127
1, 313650, Note_off_c, 3, 75, 127
1, 313651, Note_on_c, 7, 79, 127
1, 313784, Note_off_c, 0, 72, 127
1, 313785, Note_off_c, 7, 79, 127
1, 313785, Note_off_c, 7, 55, 127
1, 313786, Note_on_c, 7, 55, 127
1, 313786, Note_on_c, 3, 75, 127
1, 313786, Note_on_c, 0, 72, 127
1, 313920, Note_off_c, 3, 75, 127
1, 313921, Note_on_c, 7, 79, 127
1, 314054, Note_off_c, 0, 72, 127
1, 314055, Note_off_c, 7, 79, 127
1, 314055, Note_off_c, 7, 55, 127
1, 314056, Note_on_c, 7, 55, 127
1, 314056, Note_on_c, 2, 74, 127
1, 314056, Note_on_c, 12, 71, 127
1, 314190, Note_off_c, 2, 74, 127
1, 314191, Note_on_c, 7, 79, 127
1, 314324, Note_off_c, 12, 71, 127
1, 314325, Note_off_c, 7, 79, 127
1, 314325, Note_off_c, 7, 55, 127
1, 314326, Note_on_c, 7, 55, 127
1, 314326, Note_on_c, 12, 71, 127
1, 314326, Note_on_c, 2, 74, 127
1, 314460, Note_off_c, 2, 74, 127
1, 314461, Note_on_c, 7, 79, 127
1, 314594, Note_off_c, 12, 71, 127
1, 314595, Note_off_c, 7, 79, 127
1, 314595, Note_off_c, 7, 55, 127
1, 314596, Note_on_c, 7, 55, 127
1, 314596, Note_on_c, 12, 71, 127
1, 314596, Note_on_c, 2, 74, 127
1, 314730, Note_off_c, 2, 74, 127
1, 314731, Note_on_c, 7, 79, 127
1, 314864, Note_off_c, 12, 71, 127
1, 314865, Note_off_c, 7, 79, 127
1, 314865, Note_off_c, 7, 55, 127
1, 314866, Note_on_c, 7, 55, 127
1, 314866, Note_on_c, 0, 72, 127
1, 314866, Note_on_c, 3, 75, 127
1, 315000, Note_off_c, 3, 75, 127
1, 315001, Note_on_c, 7, 79, 127
1, 315134, Note_off_c, 0, 72, 127
1, 315135, Note_off_c, 7, 79, 127
1, 315135, Note_off_c, 7, 55, 127
1, 315136, Note_on_c, 7, 55, 127
1, 315136, Note_on_c, 0, 72, 127
1, 315136, Note_on_c, 3, 75, 127
1, 315270, Note_off_c, 3, 75, 127
1, 315271, Note_on_c, 7, 79, 127
1, 315404, Note_off_c, 0, 72, 127
1, 315405, Note_off_c, 7, 79, 127
1, 315405, Note_off_c, 7, 55, 127
1, 315406, Note_on_c, 7, 55, 127
1, 315406, Note_on_c, 0, 72, 127
1, 315406, Note_on_c, 3, 75, 127
1, 315540, Note_off_c, 3, 75, 127
1, 315541, Note_on_c, 7, 79, 127
1, 315671, Note_off_c, 7, 67, 127
1, 315674, Note_off_c, 0, 72, 127
1, 315675, Note_off_c, 7, 79, 127
1, 315675, Note_off_c, 7, 55, 127
1, 315676, Note_on_c, 7, 55, 127
1, 315676, Note_on_c, 12, 71, 127
1, 315676, Note_on_c, 2, 74, 127
1, 315810, Note_off_c, 2, 74, 127
1, 315810, Note_off_c, 12, 71, 127
1, 315811, Note_on_c, 2, 74, 127
1, 315945, Note_off_c, 2, 74, 127
1, 315946, Note_on_c, 12, 71, 127
1, 316070, Note_off_c, 7, 55, 127
1, 316080, Note_off_c, 12, 71, 127
1, 316081, Note_on_c, 7, 67, 127
1, 316215, Note_off_c, 7, 67, 127
1, 316216, Note_on_c, 2, 74, 127
1, 316350, Note_off_c, 2, 74, 127
1, 316351, Note_on_c, 7, 79, 127
1, 316485, Note_off_c, 7, 79, 127
1, 316486, Note_on_c, 0, 48, 127
1, 316486, Note_on_c, 7, 55, 127
1, 316486, Note_on_c, 0, 60, 127
1, 316486, Note_on_c, 3, 75, 127
1, 316620, Note_off_c, 3, 75, 127
1, 316621, Note_on_c, 7, 79, 127
1, 316755, Note_off_c, 7, 79, 127
1, 316756, Note_on_c, 3, 75, 127
1, 316880, Note_off_c, 0, 60, 127
1, 316880, Note_off_c, 7, 55, 127
1, 316880, Note_off_c, 0, 48, 127
1, 316890, Note_off_c, 3, 75, 127
1, 316891, Note_on_c, 0, 72, 127
1, 317025, Note_off_c, 0, 72, 127
1, 317026, Note_on_c, 7, 79, 127
1, 317160, Note_off_c, 7, 79, 127
1, 317161, Note_on_c, 10, 81, 127
1, 317295, Note_off_c, 10, 81, 127
1, 317296, Note_on_c, 2, 62, 127
1, 317296, Note_on_c, 6, 78, 127
1, 317430, Note_off_c, 6, 78, 127
1, 317431, Note_on_c, 2, 74, 127
1, 317565, Note_off_c, 2, 74, 127
1, 317565, Note_off_c, 2, 62, 127
1, 317566, Note_on_c, 11, 58, 127
1, 317566, Note_on_c, 7, 79, 127
1, 317700, Note_off_c, 7, 79, 127
1, 317701, Note_on_c, 2, 74, 127
1, 317835, Note_off_c, 2, 74, 127
1, 317835, Note_off_c, 11, 58, 127
1, 317836, Note_on_c, 7, 55, 127
1, 317836, Note_on_c, 3, 75, 127
1, 317970, Note_off_c, 3, 75, 127
1, 317971, Note_on_c, 11, 70, 127
1, 318105, Note_off_c, 11, 70, 127
1, 318105, Note_off_c, 7, 55, 127
1, 318106, Note_on_c, 10, 57, 127
1, 318106, Note_on_c, 0, 72, 127
1, 318240, Note_off_c, 0, 72, 127
1, 318241, Note_on_c, 11, 70, 127
1, 318375, Note_off_c, 11, 70, 127
1, 318376, Note_on_c, 3, 51, 127
1, 318376, Note_on_c, 0, 72, 127
1, 318512, Note_on_c, 7, 67, 127
1, 318646, Note_off_c, 7, 67, 127
1, 318646, Note_off_c, 3, 51, 127
1, 318647, Note_on_c, 0, 48, 127
1, 318647, Note_on_c, 10, 69, 127
1, 318781, Note_off_c, 10, 69, 127
1, 318782, Note_on_c, 4, 64, 127
1, 318916, Note_off_c, 4, 64, 127
1, 318916, Note_off_c, 0, 48, 127
1, 318917, Note_on_c, 2, 50, 127
1, 318917, Note_on_c, 6, 66, 127
1, 319187, Note_off_c, 6, 66, 127
1, 319187, Note_off_c, 2, 50, 127
1, 319187, Note_off_c, 0, 72, 127
1, 319187, Note_off_c, 10, 57, 127
1, 319188, Note_on_c, 3, 51, 127
1, 319188, Note_on_c, 7, 55, 127
1, 319188, Note_on_c, 11, 70, 127
1, 319188, Note_on_c, 7, 67, 127
1, 319458, Note_off_c, 7, 67, 127
1, 319458, Note_off_c, 11, 70, 127
1, 319458, Note_off_c, 7, 55, 127
1, 319458, Note_off_c, 3, 51, 127
1, 319459, Note_on_c, 11, 46, 127
1, 319459, Note_on_c, 11, 58, 127
1, 319459, Note_on_c, 2, 74, 127
1, 319459, Note_on_c, 7, 79, 127
1, 319729, Note_off_c, 2, 74, 127
1, 319729, Note_off_c, 11, 58, 127
1, 319729, Note_off_c, 11, 46, 127
1, 319730, Note_on_c, 0, 48, 127
1, 319730, Note_on_c, 10, 57, 127
1, 319730, Note_on_c, 3, 75, 127
1, 319854, Note_off_c, 7, 79, 127
1, 319865, Note_on_c, 10, 81, 127
1, 319998, Note_off_c, 3, 75, 127
1, 319999, Note_off_c, 10, 81, 127
1, 319999, Note_off_c, 0, 48, 127
1, 320000, Note_on_c, 2, 50, 127
1, 320000, Note_on_c, 6, 78, 127
1, 320000, Note_on_c, 10, 69, 127
1, 320265, Note_off_c, 10, 57, 127
1, 320269, Note_off_c, 2, 50, 127
1, 320270, Note_on_c, 2, 38, 127
1, 320270, Note_on_c, 2, 50, 127
1, 320404, Note_off_c, 6, 78, 127
1, 320405, Note_on_c, 7, 79, 127
1, 320535, Note_off_c, 10, 69, 127
1, 320539, Note_off_c, 7, 79, 127
1, 320539, Note_off_c, 2, 50, 127
1, 320539, Note_off_c, 2, 38, 127
1, 320540, Note_on_c, 7, 43, 127
1, 320540, Note_on_c, 7, 79, 127
1, 320540, Note_on_c, 7, 67, 127
1, 320674, Note_off_c, 7, 67, 127
1, 320675, Note_on_c, 7, 67, 127
1, 320809, Note_off_c, 7, 67, 127
1, 320809, Note_off_c, 7, 43, 127
1, 320810, Note_on_c, 11, 58, 127
1, 320810, Note_on_c, 7, 55, 127
1, 320810, Note_on_c, 2, 62, 127
1, 320944, Note_off_c, 2, 62, 127
1, 320945, Note_on_c, 7, 67, 127
1, 321079, Note_off_c, 7, 67, 127
1, 321079, Note_off_c, 7, 55, 127
1, 321079, Note_off_c, 11, 58, 127
1, 321080, Note_on_c, 11, 58, 127
1, 321080, Note_on_c, 7, 55, 127
1, 321080, Note_on_c, 2, 62, 127
1, 321214, Note_off_c, 2, 62, 127
1, 321215, Note_on_c, 7, 67, 127
1, 321349, Note_off_c, 7, 67, 127
1, 321349, Note_off_c, 7, 55, 127
1, 321349, Note_off_c, 11, 58, 127
1, 321350, Note_on_c, 0, 60, 127
1, 321350, Note_on_c, 7, 55, 127
1, 321350, Note_on_c, 3, 63, 127
1, 321484, Note_off_c, 3, 63, 127
1, 321485, Note_on_c, 7, 67, 127
1, 321619, Note_off_c, 7, 67, 127
1, 321619, Note_off_c, 7, 55, 127
1, 321619, Note_off_c, 0, 60, 127
1, 321620, Note_on_c, 7, 55, 127
1, 321620, Note_on_c, 0, 60, 127
1, 321620, Note_on_c, 3, 63, 127
1, 321754, Note_off_c, 3, 63, 127
1, 321755, Note_on_c, 7, 67, 127
1, 321889, Note_off_c, 7, 67, 127
1, 321889, Note_off_c, 0, 60, 127
1, 321889, Note_off_c, 7, 55, 127
1, 321890, Note_on_c, 0, 60, 127
1, 321890, Note_on_c, 7, 55, 127
1, 321890, Note_on_c, 3, 63, 127
1, 322024, Note_off_c, 3, 63, 127
1, 322025, Note_on_c, 7, 67, 127
1, 322158, Note_off_c, 7, 79, 127
1, 322159, Note_off_c, 7, 67, 127
1, 322159, Note_off_c, 7, 55, 127
1, 322159, Note_off_c, 0, 60, 127
1, 322160, Note_on_c, 11, 58, 127
1, 322160, Note_on_c, 7, 55, 127
1, 322160, Note_on_c, 2, 62, 127
1, 322296, Note_on_c, 7, 67, 127
1, 322364, Note_off_c, 2, 62, 127
1, 322430, Note_off_c, 7, 67, 127
1, 322430, Note_off_c, 7, 55, 127
1, 322430, Note_off_c, 11, 58, 127
1, 322431, Note_on_c, 7, 55, 127
1, 322431, Note_on_c, 11, 58, 127
1, 322431, Note_on_c, 2, 62, 127
1, 322567, Note_on_c, 7, 67, 127
1, 322635, Note_off_c, 2, 62, 127
1, 322701, Note_off_c, 7, 67, 127
1, 322701, Note_off_c, 11, 58, 127
1, 322701, Note_off_c, 7, 55, 127
1, 322702, Note_on_c, 7, 55, 127
1, 322702, Note_on_c, 11, 58, 127
1, 322702, Note_on_c, 2, 62, 127
1, 322838, Note_on_c, 7, 67, 127
1, 322906, Note_off_c, 2, 62, 127
1, 322972, Note_off_c, 7, 67, 127
1, 322972, Note_off_c, 11, 58, 127
1, 322972, Note_off_c, 7, 55, 127
1, 322973, Note_on_c, 7, 55, 127
1, 322973, Note_on_c, 0, 60, 127
1, 322973, Note_on_c, 3, 63, 127
1, 323109, Note_on_c, 7, 67, 127
1, 323177, Note_off_c, 3, 63, 127
1, 323243, Note_off_c, 7, 67, 127
1, 323243, Note_off_c, 0, 60, 127
1, 323243, Note_off_c, 7, 55, 127
1, 323244, Note_on_c, 7, 55, 127
1, 323244, Note_on_c, 0, 60, 127
1, 323244, Note_on_c, 3, 63, 127
1, 323380, Note_on_c, 7, 67, 127
1, 323448, Note_off_c, 3, 63, 127
1, 323514, Note_off_c, 7, 67, 127
1, 323514, Note_off_c, 0, 60, 127
1, 323514, Note_off_c, 7, 55, 127
1, 323515, Note_on_c, 7, 55, 127
1, 323515, Note_on_c, 0, 60, 127
1, 323515, Note_on_c, 3, 63, 127
1, 323651, Note_on_c, 7, 67, 127
1, 323719, Note_off_c, 3, 63, 127
1, 323785, Note_off_c, 7, 67, 127
1, 323785, Note_off_c, 0, 60, 127
1, 323785, Note_off_c, 7, 55, 127
1, 323786, Note_on_c, 7, 55, 127
1, 323786, Note_on_c, 11, 58, 127
1, 323786, Note_on_c, 2, 62, 127
1, 323920, Note_off_c, 2, 62, 127
1, 323921, Note_on_c, 2, 62, 127
1, 324040, Note_off_c, 11, 58, 127
1, 324056, Note_off_c, 2, 62, 127
1, 324057, Note_on_c, 11, 58, 127
1, 324181, Note_off_c, 7, 55, 127
1, 324191, Note_off_c, 11, 58, 127
1, 324192, Note_on_c, 7, 55, 127
1, 324326, Note_off_c, 7, 55, 127
1, 324327, Note_on_c, 2, 62, 127
1, 324461, Note_off_c, 2, 62, 127
1, 324462, Note_on_c, 7, 67, 127
1, 324596, Note_off_c, 7, 67, 127
1, 324597, Note_on_c, 0, 48, 127
1, 324597, Note_on_c, 7, 55, 127
1, 324597, Note_on_c, 0, 60, 127
1, 324597, Note_on_c, 3, 63, 127
1, 324731, Note_off_c, 3, 63, 127
1, 324732, Note_on_c, 7, 67, 127
1, 324866, Note_off_c, 7, 67, 127
1, 324867, Note_on_c, 3, 63, 127
1, 324991, Note_off_c, 0, 60, 127
1, 324991, Note_off_c, 7, 55, 127
1, 324991, Note_off_c, 0, 48, 127
1, 325001, Note_off_c, 3, 63, 127
1, 325002, Note_on_c, 0, 60, 127
1, 325136, Note_off_c, 0, 60, 127
1, 325137, Note_on_c, 7, 67, 127
1, 325271, Note_off_c, 7, 67, 127
1, 325272, Note_on_c, 0, 72, 127
1, 325406, Note_off_c, 0, 72, 127
1, 325407, Note_on_c, 0, 60, 127
1, 325407, Note_on_c, 6, 66, 127
1, 325541, Note_off_c, 6, 66, 127
1, 325542, Note_on_c, 2, 62, 127
1, 325676, Note_off_c, 2, 62, 127
1, 325676, Note_off_c, 0, 60, 127
1, 325677, Note_on_c, 11, 58, 127
1, 325677, Note_on_c, 7, 67, 127
1, 325811, Note_off_c, 7, 67, 127
1, 325812, Note_on_c, 2, 62, 127
1, 325946, Note_off_c, 2, 62, 127
1, 325946, Note_off_c, 11, 58, 127
1, 325947, Note_on_c, 7, 55, 127
1, 325947, Note_on_c, 3, 63, 127
1, 326081, Note_off_c, 3, 63, 127
1, 326082, Note_on_c, 11, 58, 127
1, 326216, Note_off_c, 11, 58, 127
1, 326216, Note_off_c, 7, 55, 127
1, 326217, Note_on_c, 10, 57, 127
1, 326217, Note_on_c, 0, 60, 127
1, 326351, Note_off_c, 0, 60, 127
1, 326352, Note_on_c, 11, 58, 127
1, 326486, Note_off_c, 11, 58, 127
1, 326486, Note_off_c, 10, 57, 127
1, 326487, Note_on_c, 3, 51, 127
1, 326487, Note_on_c, 0, 60, 127
1, 326623, Note_on_c, 7, 55, 127
1, 326756, Note_off_c, 3, 51, 127
1, 326757, Note_off_c, 7, 55, 127
1, 326758, Note_on_c, 0, 48, 127
1, 326758, Note_on_c, 10, 57, 127
1, 326892, Note_off_c, 10, 57, 127
1, 326893, Note_on_c, 4, 52, 127
1, 327026, Note_off_c, 0, 48, 127
1, 327027, Note_off_c, 4, 52, 127
1, 327028, Note_on_c, 2, 50, 127
1, 327028, Note_on_c, 6, 54, 127
1, 327298, Note_off_c, 6, 54, 127
1, 327298, Note_off_c, 2, 50, 127
1, 327298, Note_off_c, 0, 60, 127
1, 327299, Note_on_c, 3, 51, 127
1, 327299, Note_on_c, 7, 55, 127
1, 327299, Note_on_c, 11, 58, 127
1, 327569, Note_off_c, 11, 58, 127
1, 327569, Note_off_c, 7, 55, 127
1, 327569, Note_off_c, 3, 51, 127
1, 327570, Note_on_c, 11, 46, 127
1, 327570, Note_on_c, 11, 58, 127
1, 327570, Note_on_c, 7, 67, 127
1, 327570, Note_on_c, 2, 62, 127
1, 327840, Note_off_c, 2, 62, 127
1, 327840, Note_off_c, 11, 46, 127
1, 327841, Note_on_c, 0, 48, 127
1, 327841, Note_on_c, 3, 63, 127
1, 327965, Note_off_c, 7, 67, 127
1, 327976, Note_on_c, 10, 69, 127
1, 328106, Note_off_c, 11, 58, 127
1, 328109, Note_off_c, 3, 63, 127
1, 328110, Note_off_c, 10, 69, 127
1, 328110, Note_off_c, 0, 48, 127
1, 328111, Note_on_c, 2, 50, 127
1, 328111, Note_on_c, 10, 57, 127
1, 328111, Note_on_c, 6, 66, 127
1, 328111, Note_on_c, 2, 62, 127
1, 328381, Note_off_c, 10, 57, 127
1, 328381, Note_off_c, 2, 50, 127
1, 328382, Note_on_c, 2, 50, 127
1, 328382, Note_on_c, 2, 38, 127
1, 328516, Note_off_c, 6, 66, 127
1, 328517, Note_on_c, 7, 67, 127
1, 328647, Note_off_c, 2, 62, 127
1, 328651, Note_off_c, 7, 67, 127
1, 328651, Note_off_c, 2, 38, 127
1, 328651, Note_off_c, 2, 50, 127
1, 328668, Note_on_c, 12, 59, 127
1, 328668, Note_on_c, 2, 62, 127
1, 328668, Note_on_c, 7, 67, 127
1, 328668, Note_on_c, 2, 50, 127
1, 328668, Note_on_c, 7, 43, 127
1, 329346, Note_off_c, 7, 43, 127
1, 329346, Note_off_c, 2, 50, 127
1, 329346, Note_off_c, 7, 67, 127
1, 329346, Note_off_c, 2, 62, 127
1, 329346, Note_off_c, 12, 59, 127
1, 329482, Note_on_c, 7, 67, 127
1, 329482, Note_on_c, 7, 55, 127
1, 329752, Note_off_c, 7, 67, 127
1, 329753, Note_on_c, 11, 70, 127
1, 329887, Note_off_c, 11, 70, 127
1, 329888, Note_on_c, 10, 69, 127
1, 330022, Note_off_c, 10, 69, 127
1, 330023, Note_on_c, 7, 67, 127
1, 330159, Note_off_c, 7, 55, 127
1, 330293, Note_off_c, 7, 67, 127
1, 330294, Note_on_c, 10, 69, 127
1, 330294, Note_on_c, 6, 54, 127
1, 330564, Note_off_c, 10, 69, 127
1, 330565, Note_on_c, 0, 72, 127
1, 330699, Note_off_c, 0, 72, 127
1, 330700, Note_on_c, 11, 70, 127
1, 330834, Note_off_c, 11, 70, 127
1, 330835, Note_on_c, 10, 69, 127
1, 330971, Note_off_c, 6, 54, 127
1, 331105, Note_off_c, 10, 69, 127
1, 331106, Note_on_c, 7, 67, 127
1, 331106, Note_on_c, 11, 70, 127
1, 331106, Note_on_c, 7, 55, 127
1, 331376, Note_off_c, 11, 70, 127
1, 331376, Note_off_c, 7, 67, 127
1, 331377, Note_on_c, 2, 74, 127
1, 331377, Note_on_c, 11, 70, 127
1, 331511, Note_off_c, 11, 70, 127
1, 331511, Note_off_c, 2, 74, 127
1, 331512, Note_on_c, 0, 72, 127
1, 331512, Note_on_c, 10, 69, 127
1, 331646, Note_off_c, 10, 69, 127
1, 331646, Note_off_c, 0, 72, 127
1, 331647, Note_on_c, 7, 67, 127
1, 331647, Note_on_c, 11, 70, 127
1, 331783, Note_off_c, 7, 55, 127
1, 331917, Note_off_c, 11, 70, 127
1, 331917, Note_off_c, 7, 67, 127
1, 331918, Note_on_c, 10, 69, 127
1, 331918, Note_on_c, 0, 72, 127
1, 331918, Note_on_c, 0, 60, 127
1, 332188, Note_off_c, 0, 72, 127
1, 332188, Note_off_c, 10, 69, 127
1, 332189, Note_on_c, 0, 72, 127
1, 332189, Note_on_c, 3, 75, 127
1, 332323, Note_off_c, 3, 75, 127
1, 332323, Note_off_c, 0, 72, 127
1, 332324, Note_on_c, 2, 74, 127
1, 332324, Note_on_c, 11, 70, 127
1, 332458, Note_off_c, 11, 70, 127
1, 332458, Note_off_c, 2, 74, 127
1, 332459, Note_on_c, 10, 69, 127
1, 332459, Note_on_c, 0, 72, 127
1, 332595, Note_off_c, 0, 60, 127
1, 332729, Note_off_c, 0, 72, 127
1, 332729, Note_off_c, 10, 69, 127
1, 332730, Note_on_c, 2, 74, 127
1, 332730, Note_on_c, 11, 70, 127
1, 332730, Note_on_c, 7, 67, 127
1, 333000, Note_off_c, 7, 67, 127
1, 333000, Note_off_c, 11, 70, 127
1, 333000, Note_off_c, 2, 74, 127
1, 333001, Note_on_c, 0, 72, 127
1, 333001, Note_on_c, 3, 75, 127
1, 333001, Note_on_c, 0, 60, 127
1, 333135, Note_off_c, 3, 75, 127
1, 333135, Note_off_c, 0, 72, 127
1, 333136, Note_on_c, 11, 70, 127
1, 333136, Note_on_c, 2, 74, 127
1, 333270, Note_off_c, 2, 74, 127
1, 333270, Note_off_c, 11, 70, 127
1, 333271, Note_on_c, 10, 69, 127
1, 333271, Note_on_c, 0, 72, 127
1, 333405, Note_off_c, 0, 72, 127
1, 333405, Note_off_c, 10, 69, 127
1, 333406, Note_on_c, 7, 67, 127
1, 333406, Note_on_c, 11, 70, 127
1, 333540, Note_off_c, 11, 70, 127
1, 333540, Note_off_c, 7, 67, 127
1, 333540, Note_off_c, 0, 60, 127
1, 333541, Note_on_c, 6, 66, 127
1, 333541, Note_on_c, 10, 69, 127
1, 333541, Note_on_c, 2, 62, 127
1, 334219, Note_off_c, 2, 62, 127
1, 334219, Note_off_c, 10, 69, 127
1, 334219, Note_off_c, 6, 66, 127
1, 334355, Note_on_c, 10, 69, 127
1, 334355, Note_on_c, 2, 50, 127
1, 334489, Note_off_c, 10, 69, 127
1, 334490, Note_on_c, 2, 74, 127
1, 334624, Note_off_c, 2, 74, 127
1, 334624, Note_off_c, 2, 50, 127
1, 334625, Note_on_c, 10, 69, 127
1, 334625, Note_on_c, 6, 54, 127
1, 334759, Note_off_c, 10, 69, 127
1, 334760, Note_on_c, 2, 74, 127
1, 334894, Note_off_c, 2, 74, 127
1, 334894, Note_off_c, 6, 54, 127
1, 334895, Note_on_c, 10, 69, 127
1, 334895, Note_on_c, 2, 50, 127
1, 335029, Note_off_c, 10, 69, 127
1, 335030, Note_on_c, 2, 74, 127
1, 335164, Note_off_c, 2, 74, 127
1, 335164, Note_off_c, 2, 50, 127
1, 335165, Note_on_c, 11, 70, 127
1, 335165, Note_on_c, 2, 62, 127
1, 335165, Note_on_c, 7, 55, 127
1, 335299, Note_off_c, 2, 62, 127
1, 335300, Note_on_c, 7, 67, 127
1, 335434, Note_off_c, 7, 67, 127
1, 335434, Note_off_c, 7, 55, 127
1, 335435, Note_on_c, 2, 62, 127
1, 335435, Note_on_c, 11, 58, 127
1, 335569, Note_off_c, 2, 62, 127
1, 335570, Note_on_c, 7, 67, 127
1, 335700, Note_off_c, 11, 70, 127
1, 335704, Note_off_c, 7, 67, 127
1, 335704, Note_off_c, 11, 58, 127
1, 335705, Note_on_c, 2, 62, 127
1, 335705, Note_on_c, 7, 55, 127
1, 335839, Note_off_c, 2, 62, 127
1, 335840, Note_on_c, 7, 67, 127
1, 335974, Note_off_c, 7, 67, 127
1, 335974, Note_off_c, 7, 55, 127
1, 335975, Note_on_c, 3, 63, 127
1, 335975, Note_on_c, 7, 67, 127
1, 335975, Note_on_c, 0, 48, 127
1, 336109, Note_off_c, 7, 67, 127
1, 336110, Note_on_c, 0, 72, 127
1, 336244, Note_off_c, 0, 72, 127
1, 336244, Note_off_c, 0, 48, 127
1, 336245, Note_on_c, 7, 67, 127
1, 336245, Note_on_c, 3, 51, 127
1, 336379, Note_off_c, 7, 67, 127
1, 336380, Note_on_c, 0, 72, 127
1, 336510, Note_off_c, 3, 63, 127
1, 336514, Note_off_c, 0, 72, 127
1, 336514, Note_off_c, 3, 51, 127
1, 336515, Note_on_c, 7, 67, 127
1, 336515, Note_on_c, 0, 48, 127
1, 336649, Note_off_c, 7, 67, 127
1, 336650, Note_on_c, 0, 72, 127
1, 336784, Note_off_c, 0, 72, 127
1, 336784, Note_off_c, 0, 48, 127
1, 336785, Note_on_c, 0, 60, 127
1, 336785, Note_on_c, 10, 69, 127
1, 336785, Note_on_c, 5, 53, 127
1, 336919, Note_off_c, 0, 60, 127
1, 336920, Note_on_c, 5, 65, 127
1, 337054, Note_off_c, 5, 65, 127
1, 337054, Note_off_c, 5, 53, 127
1, 337055, Note_on_c, 0, 60, 127
1, 337055, Note_on_c, 10, 57, 127
1, 337189, Note_off_c, 0, 60, 127
1, 337190, Note_on_c, 5, 65, 127
1, 337320, Note_off_c, 10, 69, 127
1, 337324, Note_off_c, 5, 65, 127
1, 337324, Note_off_c, 10, 57, 127
1, 337325, Note_on_c, 0, 60, 127
1, 337325, Note_on_c, 5, 53, 127
1, 337459, Note_off_c, 0, 60, 127
1, 337460, Note_on_c, 5, 65, 127
1, 337594, Note_off_c, 5, 65, 127
1, 337594, Note_off_c, 5, 53, 127
1, 337595, Note_on_c, 2, 62, 127
1, 337595, Note_on_c, 5, 65, 127
1, 337595, Note_on_c, 11, 46, 127
1, 337729, Note_off_c, 5, 65, 127
1, 337730, Note_on_c, 11, 70, 127
1, 337864, Note_off_c, 11, 70, 127
1, 337864, Note_off_c, 11, 46, 127
1, 337865, Note_on_c, 5, 65, 127
1, 337865, Note_on_c, 2, 50, 127
1, 337999, Note_off_c, 5, 65, 127
1, 338000, Note_on_c, 11, 70, 127
1, 338130, Note_off_c, 2, 62, 127
1, 338134, Note_off_c, 11, 70, 127
1, 338134, Note_off_c, 2, 50, 127
1, 338135, Note_on_c, 5, 65, 127
1, 338135, Note_on_c, 11, 46, 127
1, 338269, Note_off_c, 5, 65, 127
1, 338270, Note_on_c, 11, 70, 127
1, 338404, Note_off_c, 11, 70, 127
1, 338404, Note_off_c, 11, 46, 127
1, 338405, Note_on_c, 11, 58, 127
1, 338405, Note_on_c, 7, 67, 127
1, 338405, Note_on_c, 3, 51, 127
1, 338539, Note_off_c, 11, 58, 127
1, 338540, Note_on_c, 3, 63, 127
1, 338674, Note_off_c, 3, 63, 127
1, 338674, Note_off_c, 3, 51, 127
1, 338675, Note_on_c, 11, 58, 127
1, 338675, Note_on_c, 7, 55, 127
1, 338809, Note_off_c, 11, 58, 127
1, 338810, Note_on_c, 3, 63, 127
1, 338940, Note_off_c, 7, 67, 127
1, 338944, Note_off_c, 3, 63, 127
1, 338944, Note_off_c, 7, 55, 127
1, 338945, Note_on_c, 11, 58, 127
1, 338945, Note_on_c, 3, 51, 127
1, 339079, Note_off_c, 11, 58, 127
1, 339080, Note_on_c, 3, 63, 127
1, 339214, Note_off_c, 3, 63, 127
1, 339214, Note_off_c, 3, 51, 127
1, 339215, Note_on_c, 0, 60, 127
1, 339215, Note_on_c, 4, 64, 127
1, 339215, Note_on_c, 10, 45, 127
1, 339349, Note_off_c, 4, 64, 127
1, 339350, Note_on_c, 10, 69, 127
1, 339484, Note_off_c, 10, 69, 127
1, 339484, Note_off_c, 10, 45, 127
1, 339485, Note_on_c, 4, 64, 127
1, 339485, Note_on_c, 0, 48, 127
1, 339609, Note_off_c, 0, 60, 127
1, 339619, Note_off_c, 4, 64, 127
1, 339620, Note_on_c, 10, 69, 127
1, 339754, Note_off_c, 10, 69, 127
1, 339754, Note_off_c, 0, 48, 127
1, 339755, Note_on_c, 0, 60, 127
1, 339755, Note_on_c, 4, 64, 127
1, 339755, Note_on_c, 10, 45, 127
1, 339889, Note_off_c, 4, 64, 127
1, 339890, Note_on_c, 10, 69, 127
1, 340023, Note_off_c, 0, 60, 127
1, 340024, Note_off_c, 10, 69, 127
1, 340024, Note_off_c, 10, 45, 127
1, 340025, Note_on_c, 6, 66, 127
1, 340025, Note_on_c, 0, 60, 127
1, 340025, Note_on_c, 2, 50, 127
1, 340430, Note_off_c, 0, 60, 127
1, 340430, Note_off_c, 6, 66, 127
1, 340431, Note_on_c, 2, 62, 127
1, 340565, Note_off_c, 2, 62, 127
1, 340565, Note_off_c, 2, 50, 127
1, 340566, Note_on_c, 11, 58, 127
1, 340566, Note_on_c, 7, 67, 127
1, 340566, Note_on_c, 3, 51, 127
1, 340700, Note_off_c, 11, 58, 127
1, 340701, Note_on_c, 10, 57, 127
1, 340835, Note_off_c, 10, 57, 127
1, 340835, Note_off_c, 3, 51, 127
1, 340836, Note_on_c, 11, 58, 127
1, 340836, Note_on_c, 0, 48, 127
1, 340960, Note_off_c, 7, 67, 127
1, 340970, Note_off_c, 11, 58, 127
1, 340971, Note_on_c, 0, 60, 127
1, 340971, Note_on_c, 10, 69, 127
1, 341105, Note_off_c, 10, 69, 127
1, 341105, Note_off_c, 0, 60, 127
1, 341105, Note_off_c, 0, 48, 127
1, 341106, Note_on_c, 6, 66, 127
1, 341106, Note_on_c, 10, 57, 127
1, 341106, Note_on_c, 2, 50, 127
1, 341374, Note_off_c, 6, 66, 127
1, 341377, Note_on_c, 7, 67, 127
1, 341377, Note_on_c, 2, 38, 127
1, 341443, Note_off_c, 7, 67, 127
1, 341444, Note_on_c, 6, 66, 127
1, 341510, Note_off_c, 6, 66, 127
1, 341510, Note_off_c, 10, 57, 127
1, 341511, Note_on_c, 4, 64, 127
1, 341577, Note_off_c, 4, 64, 127
1, 341578, Note_on_c, 6, 66, 127
1, 341640, Note_off_c, 2, 50, 127
1, 341644, Note_off_c, 6, 66, 127
1, 341644, Note_off_c, 2, 38, 127
1, 341645, Note_on_c, 7, 67, 127
1, 341645, Note_on_c, 7, 55, 127
1, 341645, Note_on_c, 7, 43, 127
1, 341779, Note_off_c, 7, 67, 127
1, 341780, Note_on_c, 7, 67, 127
1, 341914, Note_off_c, 7, 67, 127
1, 341914, Note_off_c, 7, 43, 127
1, 341915, Note_on_c, 12, 59, 127
1, 341915, Note_on_c, 2, 62, 127
1, 341915, Note_on_c, 7, 43, 127
1, 342049, Note_off_c, 2, 62, 127
1, 342050, Note_on_c, 7, 67, 127
1, 342169, Note_off_c, 12, 59, 127
1, 342185, Note_off_c, 7, 67, 127
1, 342185, Note_off_c, 7, 43, 127
1, 342186, Note_on_c, 12, 59, 127
1, 342186, Note_on_c, 2, 62, 127
1, 342186, Note_on_c, 7, 43, 127
1, 342320, Note_off_c, 2, 62, 127
1, 342321, Note_on_c, 7, 67, 127
1, 342440, Note_off_c, 12, 59, 127
1, 342456, Note_off_c, 7, 67, 127
1, 342456, Note_off_c, 7, 43, 127
1, 342457, Note_on_c, 3, 63, 127
1, 342457, Note_on_c, 0, 60, 127
1, 342457, Note_on_c, 7, 43, 127
1, 342591, Note_off_c, 3, 63, 127
1, 342592, Note_on_c, 7, 67, 127
1, 342711, Note_off_c, 0, 60, 127
1, 342727, Note_off_c, 7, 67, 127
1, 342727, Note_off_c, 7, 43, 127
1, 342728, Note_on_c, 0, 60, 127
1, 342728, Note_on_c, 3, 63, 127
1, 342728, Note_on_c, 7, 43, 127
1, 342862, Note_off_c, 3, 63, 127
1, 342863, Note_on_c, 7, 67, 127
1, 342982, Note_off_c, 0, 60, 127
1, 342998, Note_off_c, 7, 67, 127
1, 342998, Note_off_c, 7, 43, 127
1, 342999, Note_on_c, 0, 60, 127
1, 342999, Note_on_c, 3, 63, 127
1, 342999, Note_on_c, 7, 43, 127
1, 343133, Note_off_c, 3, 63, 127
1, 343134, Note_on_c, 7, 67, 127
1, 343253, Note_off_c, 0, 60, 127
1, 343269, Note_off_c, 7, 67, 127
1, 343269, Note_off_c, 7, 43, 127
1, 343270, Note_on_c, 2, 62, 127
1, 343270, Note_on_c, 12, 59, 127
1, 343270, Note_on_c, 7, 43, 127
1, 343404, Note_off_c, 2, 62, 127
1, 343405, Note_on_c, 7, 67, 127
1, 343524, Note_off_c, 12, 59, 127
1, 343540, Note_off_c, 7, 67, 127
1, 343540, Note_off_c, 7, 43, 127
1, 343541, Note_on_c, 12, 59, 127
1, 343541, Note_on_c, 2, 62, 127
1, 343541, Note_on_c, 7, 43, 127
1, 343675, Note_off_c, 2, 62, 127
1, 343676, Note_on_c, 7, 67, 127
1, 343795, Note_off_c, 12, 59, 127
1, 343811, Note_off_c, 7, 67, 127
1, 343811, Note_off_c, 7, 43, 127
1, 343812, Note_on_c, 12, 59, 127
1, 343812, Note_on_c, 2, 62, 127
1, 343812, Note_on_c, 7, 43, 127
1, 343946, Note_off_c, 2, 62, 127
1, 343947, Note_on_c, 7, 67, 127
1, 344066, Note_off_c, 12, 59, 127
1, 344082, Note_off_c, 7, 67, 127
1, 344082, Note_off_c, 7, 43, 127
1, 344083, Note_on_c, 3, 63, 127
1, 344083, Note_on_c, 0, 60, 127
1, 344083, Note_on_c, 7, 43, 127
1, 344217, Note_off_c, 3, 63, 127
1, 344218, Note_on_c, 7, 67, 127
1, 344308, Note_off_c, 0, 60, 127
1, 344352, Note_off_c, 7, 67, 127
1, 344352, Note_off_c, 7, 43, 127
1, 344353, Note_on_c, 0, 60, 127
1, 344353, Note_on_c, 3, 63, 127
1, 344353, Note_on_c, 7, 43, 127
1, 344487, Note_off_c, 3, 63, 127
1, 344488, Note_on_c, 7, 67, 127
1, 344550, Note_off_c, 0, 60, 127
1, 344622, Note_off_c, 7, 67, 127
1, 344622, Note_off_c, 7, 43, 127
1, 344623, Note_on_c, 3, 63, 127
1, 344623, Note_on_c, 0, 60, 127
1, 344623, Note_on_c, 7, 43, 127
1, 344757, Note_off_c, 3, 63, 127
1, 344758, Note_on_c, 7, 67, 127
1, 344792, Note_off_c, 0, 60, 127
1, 344888, Note_off_c, 7, 55, 127
1, 344892, Note_off_c, 7, 67, 127
1, 344892, Note_off_c, 7, 43, 127
1, 344893, Note_on_c, 12, 59, 127
1, 344893, Note_on_c, 2, 62, 127
1, 344893, Note_on_c, 7, 43, 127
1, 345027, Note_off_c, 7, 43, 127
1, 345028, Note_on_c, 8, 56, 127
1, 345161, Note_off_c, 2, 62, 127
1, 345161, Note_off_c, 12, 59, 127
1, 345162, Note_off_c, 8, 56, 127
1, 345163, Note_on_c, 7, 55, 127
1, 345297, Note_off_c, 7, 55, 127
1, 345298, Note_on_c, 5, 53, 127
1, 345432, Note_off_c, 5, 53, 127
1, 345433, Note_on_c, 3, 51, 127
1, 345567, Note_off_c, 3, 51, 127
1, 345568, Note_on_c, 2, 50, 127
1, 345702, Note_off_c, 2, 50, 127
1, 345703, Note_on_c, 0, 60, 127
1, 345703, Note_on_c, 0, 48, 127
1, 345839, Note_on_c, 0, 72, 127
1, 345973, Note_off_c, 0, 72, 127
1, 345973, Note_off_c, 0, 48, 127
1, 345974, Note_on_c, 3, 63, 127
1, 345974, Note_on_c, 7, 67, 127
1, 345974, Note_on_c, 0, 48, 127
1, 346108, Note_off_c, 7, 67, 127
1, 346109, Note_on_c, 0, 72, 127
1, 346242, Note_off_c, 3, 63, 127
1, 346243, Note_off_c, 0, 72, 127
1, 346243, Note_off_c, 0, 48, 127
1, 346244, Note_on_c, 3, 63, 127
1, 346244, Note_on_c, 7, 67, 127
1, 346244, Note_on_c, 0, 48, 127
1, 346378, Note_off_c, 7, 67, 127
1, 346379, Note_on_c, 0, 72, 127
1, 346512, Note_off_c, 3, 63, 127
1, 346513, Note_off_c, 0, 72, 127
1, 346513, Note_off_c, 0, 48, 127
1, 346514, Note_on_c, 5, 65, 127
1, 346514, Note_on_c, 8, 68, 127
1, 346514, Note_on_c, 0, 48, 127
1, 346648, Note_off_c, 8, 68, 127
1, 346649, Note_on_c, 0, 72, 127
1, 346782, Note_off_c, 5, 65, 127
1, 346783, Note_off_c, 0, 72, 127
1, 346783, Note_off_c, 0, 48, 127
1, 346784, Note_on_c, 8, 68, 127
1, 346784, Note_on_c, 5, 65, 127
1, 346784, Note_on_c, 0, 48, 127
1, 346918, Note_off_c, 8, 68, 127
1, 346919, Note_on_c, 0, 72, 127
1, 347052, Note_off_c, 5, 65, 127
1, 347053, Note_off_c, 0, 72, 127
1, 347053, Note_off_c, 0, 48, 127
1, 347054, Note_on_c, 5, 65, 127
1, 347054, Note_on_c, 8, 68, 127
1, 347054, Note_on_c, 0, 48, 127
1, 347188, Note_off_c, 8, 68, 127
1, 347189, Note_on_c, 0, 72, 127
1, 347322, Note_off_c, 5, 65, 127
1, 347323, Note_off_c, 0, 72, 127
1, 347323, Note_off_c, 0, 48, 127
1, 347324, Note_on_c, 3, 63, 127
1, 347324, Note_on_c, 7, 67, 127
1, 347324, Note_on_c, 0, 48, 127
1, 347458, Note_off_c, 7, 67, 127
1, 347459, Note_on_c, 0, 72, 127
1, 347592, Note_off_c, 3, 63, 127
1, 347593, Note_off_c, 0, 72, 127
1, 347593, Note_off_c, 0, 48, 127
1, 347594, Note_on_c, 3, 63, 127
1, 347594, Note_on_c, 7, 67, 127
1, 347594, Note_on_c, 0, 48, 127
1, 347728, Note_off_c, 7, 67, 127
1, 347729, Note_on_c, 0, 72, 127
1, 347862, Note_off_c, 3, 63, 127
1, 347863, Note_off_c, 0, 72, 127
1, 347863, Note_off_c, 0, 48, 127
1, 347864, Note_on_c, 7, 67, 127
1, 347864, Note_on_c, 3, 63, 127
1, 347864, Note_on_c, 0, 48, 127
1, 347998, Note_off_c, 7, 67, 127
1, 347999, Note_on_c, 0, 72, 127
1, 348132, Note_off_c, 3, 63, 127
1, 348133, Note_off_c, 0, 72, 127
1, 348133, Note_off_c, 0, 48, 127
1, 348134, Note_on_c, 5, 65, 127
1, 348134, Note_on_c, 8, 68, 127
1, 348134, Note_on_c, 0, 48, 127
1, 348268, Note_off_c, 8, 68, 127
1, 348269, Note_on_c, 0, 72, 127
1, 348388, Note_off_c, 5, 65, 127
1, 348404, Note_off_c, 0, 72, 127
1, 348404, Note_off_c, 0, 48, 127
1, 348405, Note_on_c, 5, 65, 127
1, 348405, Note_on_c, 8, 68, 127
1, 348405, Note_on_c, 0, 48, 127
1, 348539, Note_off_c, 8, 68, 127
1, 348540, Note_on_c, 0, 72, 127
1, 348644, Note_off_c, 5, 65, 127
1, 348674, Note_off_c, 0, 72, 127
1, 348674, Note_off_c, 0, 48, 127
1, 348675, Note_on_c, 5, 65, 127
1, 348675, Note_on_c, 8, 68, 127
1, 348675, Note_on_c, 0, 48, 127
1, 348809, Note_off_c, 8, 68, 127
1, 348810, Note_on_c, 0, 72, 127
1, 348878, Note_off_c, 5, 65, 127
1, 348940, Note_off_c, 0, 60, 127
1, 348944, Note_off_c, 0, 72, 127
1, 348944, Note_off_c, 0, 48, 127
1, 348945, Note_on_c, 7, 67, 127
1, 348945, Note_on_c, 4, 64, 127
1, 348945, Note_on_c, 0, 48, 127
1, 349079, Note_off_c, 0, 48, 127
1, 349080, Note_on_c, 1, 49, 127
1, 349214, Note_off_c, 1, 49, 127
1, 349215, Note_on_c, 0, 48, 127
1, 349339, Note_off_c, 4, 64, 127
1, 349339, Note_off_c, 7, 67, 127
1, 349349, Note_off_c, 0, 48, 127
1, 349350, Note_on_c, 11, 46, 127
1, 349484, Note_off_c, 11, 46, 127
1, 349485, Note_on_c, 8, 44, 127
1, 349619, Note_off_c, 8, 44, 127
1, 349620, Note_on_c, 7, 43, 127
1, 349754, Note_off_c, 7, 43, 127
1, 349755, Note_on_c, 5, 53, 127
1, 349755, Note_on_c, 5, 41, 127
1, 349891, Note_on_c, 5, 65, 127
1, 350025, Note_off_c, 5, 65, 127
1, 350025, Note_off_c, 5, 41, 127
1, 350026, Note_on_c, 8, 56, 127
1, 350026, Note_on_c, 0, 60, 127
1, 350026, Note_on_c, 5, 41, 127
1, 350160, Note_off_c, 0, 60, 127
1, 350161, Note_on_c, 5, 65, 127
1, 350280, Note_off_c, 8, 56, 127
1, 350296, Note_off_c, 5, 65, 127
1, 350296, Note_off_c, 5, 41, 127
1, 350297, Note_on_c, 0, 60, 127
1, 350297, Note_on_c, 8, 56, 127
1, 350297, Note_on_c, 5, 41, 127
1, 350431, Note_off_c, 0, 60, 127
1, 350432, Note_on_c, 5, 65, 127
1, 350551, Note_off_c, 8, 56, 127
1, 350567, Note_off_c, 5, 65, 127
1, 350567, Note_off_c, 5, 41, 127
1, 350568, Note_on_c, 11, 58, 127
1, 350568, Note_on_c, 1, 61, 127
1, 350568, Note_on_c, 5, 41, 127
1, 350702, Note_off_c, 1, 61, 127
1, 350703, Note_on_c, 5, 65, 127
1, 350822, Note_off_c, 11, 58, 127
1, 350838, Note_off_c, 5, 65, 127
1, 350838, Note_off_c, 5, 41, 127
1, 350839, Note_on_c, 1, 61, 127
1, 350839, Note_on_c, 11, 58, 127
1, 350839, Note_on_c, 5, 41, 127
1, 350973, Note_off_c, 1, 61, 127
1, 350974, Note_on_c, 5, 65, 127
1, 351093, Note_off_c, 11, 58, 127
1, 351109, Note_off_c, 5, 65, 127
1, 351109, Note_off_c, 5, 41, 127
1, 351110, Note_on_c, 11, 58, 127
1, 351110, Note_on_c, 1, 61, 127
1, 351110, Note_on_c, 5, 41, 127
1, 351244, Note_off_c, 1, 61, 127
1, 351245, Note_on_c, 5, 65, 127
1, 351364, Note_off_c, 11, 58, 127
1, 351380, Note_off_c, 5, 65, 127
1, 351380, Note_off_c, 5, 41, 127
1, 351381, Note_on_c, 8, 56, 127
1, 351381, Note_on_c, 0, 60, 127
1, 351381, Note_on_c, 5, 41, 127
1, 351515, Note_off_c, 0, 60, 127
1, 351516, Note_on_c, 5, 65, 127
1, 351635, Note_off_c, 8, 56, 127
1, 351651, Note_off_c, 5, 65, 127
1, 351651, Note_off_c, 5, 41, 127
1, 351652, Note_on_c, 8, 56, 127
1, 351652, Note_on_c, 0, 60, 127
1, 351652, Note_on_c, 5, 41, 127
1, 351786, Note_off_c, 0, 60, 127
1, 351787, Note_on_c, 5, 65, 127
1, 351906, Note_off_c, 8, 56, 127
1, 351922, Note_off_c, 5, 65, 127
1, 351922, Note_off_c, 5, 41, 127
1, 351923, Note_on_c, 8, 56, 127
1, 351923, Note_on_c, 0, 60, 127
1, 351923, Note_on_c, 5, 41, 127
1, 352057, Note_off_c, 0, 60, 127
1, 352058, Note_on_c, 5, 65, 127
1, 352177, Note_off_c, 8, 56, 127
1, 352193, Note_off_c, 5, 65, 127
1, 352193, Note_off_c, 5, 41, 127
1, 352194, Note_on_c, 1, 61, 127
1, 352194, Note_on_c, 11, 58, 127
1, 352194, Note_on_c, 5, 41, 127
1, 352328, Note_off_c, 1, 61, 127
1, 352329, Note_on_c, 5, 65, 127
1, 352448, Note_off_c, 11, 58, 127
1, 352464, Note_off_c, 5, 65, 127
1, 352464, Note_off_c, 5, 41, 127
1, 352465, Note_on_c, 11, 58, 127
1, 352465, Note_on_c, 1, 61, 127
1, 352465, Note_on_c, 5, 41, 127
1, 352599, Note_off_c, 1, 61, 127
1, 352600, Note_on_c, 5, 65, 127
1, 352719, Note_off_c, 11, 58, 127
1, 352735, Note_off_c, 5, 65, 127
1, 352735, Note_off_c, 5, 41, 127
1, 352736, Note_on_c, 11, 58, 127
1, 352736, Note_on_c, 1, 61, 127
1, 352736, Note_on_c, 5, 41, 127
1, 352870, Note_off_c, 1, 61, 127
1, 352871, Note_on_c, 5, 65, 127
1, 352939, Note_off_c, 11, 58, 127
1, 353001, Note_off_c, 5, 53, 127
1, 353005, Note_off_c, 5, 65, 127
1, 353005, Note_off_c, 5, 41, 127
1, 353006, Note_on_c, 0, 60, 127
1, 353006, Note_on_c, 8, 56, 127
1, 353006, Note_on_c, 5, 53, 127
1, 353140, Note_off_c, 0, 60, 127
1, 353141, Note_on_c, 0, 72, 127
1, 353275, Note_off_c, 0, 72, 127
1, 353276, Note_on_c, 8, 68, 127
1, 353400, Note_off_c, 5, 53, 127
1, 353400, Note_off_c, 8, 56, 127
1, 353410, Note_off_c, 8, 68, 127
1, 353411, Note_on_c, 5, 65, 127
1, 353545, Note_off_c, 5, 65, 127
1, 353546, Note_on_c, 0, 72, 127
1, 353680, Note_off_c, 0, 72, 127
1, 353681, Note_on_c, 5, 77, 127
1, 353815, Note_off_c, 5, 77, 127
1, 353816, Note_on_c, 1, 73, 127
1, 353816, Note_on_c, 11, 58, 127
1, 353816, Note_on_c, 5, 53, 127
1, 353816, Note_on_c, 11, 46, 127
1, 353950, Note_off_c, 1, 73, 127
1, 353951, Note_on_c, 5, 77, 127
1, 354085, Note_off_c, 5, 77, 127
1, 354086, Note_on_c, 1, 73, 127
1, 354210, Note_off_c, 11, 46, 127
1, 354210, Note_off_c, 5, 53, 127
1, 354210, Note_off_c, 11, 58, 127
1, 354220, Note_off_c, 1, 73, 127
1, 354221, Note_on_c, 11, 70, 127
1, 354355, Note_off_c, 11, 70, 127
1, 354356, Note_on_c, 5, 77, 127
1, 354490, Note_off_c, 5, 77, 127
1, 354491, Note_on_c, 7, 79, 127
1, 354625, Note_off_c, 7, 79, 127
1, 354626, Note_on_c, 4, 76, 127
1, 354626, Note_on_c, 0, 60, 127
1, 354760, Note_off_c, 4, 76, 127
1, 354761, Note_on_c, 0, 72, 127
1, 354895, Note_off_c, 0, 72, 127
1, 354895, Note_off_c, 0, 60, 127
1, 354896, Note_on_c, 5, 77, 127
1, 354896, Note_on_c, 8, 56, 127
1, 355030, Note_off_c, 5, 77, 127
1, 355031, Note_on_c, 0, 72, 127
1, 355165, Note_off_c, 0, 72, 127
1, 355165, Note_off_c, 8, 56, 127
1, 355166, Note_on_c, 1, 73, 127
1, 355166, Note_on_c, 5, 53, 127
1, 355300, Note_off_c, 1, 73, 127
1, 355301, Note_on_c, 8, 68, 127
1, 355435, Note_off_c, 8, 68, 127
1, 355435, Note_off_c, 5, 53, 127
1, 355436, Note_on_c, 11, 70, 127
1, 355436, Note_on_c, 7, 55, 127
1, 355570, Note_off_c, 11, 70, 127
1, 355571, Note_on_c, 8, 68, 127
1, 355705, Note_off_c, 8, 68, 127
1, 355705, Note_off_c, 7, 55, 127
1, 355706, Note_on_c, 11, 70, 127
1, 355706, Note_on_c, 1, 49, 127
1, 355842, Note_on_c, 5, 65, 127
1, 355976, Note_off_c, 5, 65, 127
1, 355976, Note_off_c, 1, 49, 127
1, 355977, Note_on_c, 7, 67, 127
1, 355977, Note_on_c, 11, 46, 127
1, 356111, Note_off_c, 7, 67, 127
1, 356112, Note_on_c, 2, 62, 127
1, 356246, Note_off_c, 2, 62, 127
1, 356246, Note_off_c, 11, 46, 127
1, 356247, Note_on_c, 4, 64, 127
1, 356247, Note_on_c, 0, 48, 127
1, 356517, Note_off_c, 0, 48, 127
1, 356517, Note_off_c, 4, 64, 127
1, 356517, Note_off_c, 11, 70, 127
1, 356518, Note_on_c, 5, 65, 127
1, 356518, Note_on_c, 8, 68, 127
1, 356518, Note_on_c, 1, 49, 127
1, 356788, Note_off_c, 1, 49, 127
1, 356788, Note_off_c, 8, 68, 127
1, 356788, Note_off_c, 5, 65, 127
1, 356789, Note_on_c, 0, 72, 127
1, 356789, Note_on_c, 5, 77, 127
1, 356789, Note_on_c, 8, 44, 127
1, 357059, Note_off_c, 8, 44, 127
1, 357059, Note_off_c, 0, 72, 127
1, 357060, Note_on_c, 1, 73, 127
1, 357060, Note_on_c, 11, 46, 127
1, 357184, Note_off_c, 5, 77, 127
1, 357195, Note_on_c, 7, 79, 127
1, 357328, Note_off_c, 1, 73, 127
1, 357329, Note_off_c, 7, 79, 127
1, 357329, Note_off_c, 11, 46, 127
1, 357330, Note_on_c, 7, 67, 127
1, 357330, Note_on_c, 5, 77, 127
1, 357330, Note_on_c, 0, 48, 127
1, 357396, Note_off_c, 5, 77, 127
1, 357397, Note_on_c, 4, 76, 127
1, 357463, Note_off_c, 4, 76, 127
1, 357464, Note_on_c, 5, 77, 127
1, 357530, Note_off_c, 5, 77, 127
1, 357531, Note_on_c, 4, 76, 127
1, 357599, Note_on_c, 0, 36, 127
1, 357735, Note_off_c, 4, 76, 127
1, 357735, Note_on_c, 5, 77, 127
1, 357865, Note_off_c, 0, 48, 127
1, 357865, Note_off_c, 7, 67, 127
1, 357869, Note_off_c, 5, 77, 127
1, 357869, Note_off_c, 0, 36, 127
1, 357870, Note_on_c, 5, 65, 127
1, 357870, Note_on_c, 5, 77, 127
1, 357870, Note_on_c, 5, 41, 127
1, 358004, Note_off_c, 5, 77, 127
1, 358016, Note_on_c, 5, 77, 127
1, 358139, Note_off_c, 5, 41, 127
1, 358150, Note_off_c, 5, 77, 127
1, 358156, Note_on_c, 5, 53, 127
1, 358156, Note_on_c, 0, 72, 127
1, 358156, Note_on_c, 8, 68, 127
1, 358290, Note_off_c, 0, 72, 127
1, 358291, Note_on_c, 5, 77, 127
1, 358424, Note_off_c, 8, 68, 127
1, 358425, Note_off_c, 5, 77, 127
1, 358425, Note_off_c, 5, 53, 127
1, 358426, Note_on_c, 5, 53, 127
1, 358426, Note_on_c, 0, 72, 127
1, 358426, Note_on_c, 8, 68, 127
1, 358560, Note_off_c, 0, 72, 127
1, 358561, Note_on_c, 5, 77, 127
1, 358694, Note_off_c, 8, 68, 127
1, 358695, Note_off_c, 5, 77, 127
1, 358695, Note_off_c, 5, 53, 127
1, 358696, Note_on_c, 5, 53, 127
1, 358696, Note_on_c, 11, 70, 127
1, 358696, Note_on_c, 1, 73, 127
1, 358830, Note_off_c, 1, 73, 127
1, 358831, Note_on_c, 5, 77, 127
1, 358964, Note_off_c, 11, 70, 127
1, 358965, Note_off_c, 5, 77, 127
1, 358965, Note_off_c, 5, 53, 127
1, 358966, Note_on_c, 5, 53, 127
1, 358966, Note_on_c, 1, 73, 127
1, 358966, Note_on_c, 11, 70, 127
1, 359100, Note_off_c, 1, 73, 127
1, 359101, Note_on_c, 5, 77, 127
1, 359234, Note_off_c, 11, 70, 127
1, 359235, Note_off_c, 5, 77, 127
1, 359235, Note_off_c, 5, 53, 127
1, 359236, Note_on_c, 5, 53, 127
1, 359236, Note_on_c, 1, 73, 127
1, 359236, Note_on_c, 11, 70, 127
1, 359370, Note_off_c, 1, 73, 127
1, 359371, Note_on_c, 5, 77, 127
1, 359504, Note_off_c, 11, 70, 127
1, 359505, Note_off_c, 5, 77, 127
1, 359505, Note_off_c, 5, 53, 127
1, 359506, Note_on_c, 5, 53, 127
1, 359506, Note_on_c, 0, 72, 127
1, 359506, Note_on_c, 8, 68, 127
1, 359640, Note_off_c, 0, 72, 127
1, 359641, Note_on_c, 5, 77, 127
1, 359774, Note_off_c, 8, 68, 127
1, 359775, Note_off_c, 5, 77, 127
1, 359775, Note_off_c, 5, 53, 127
1, 359776, Note_on_c, 5, 53, 127
1, 359776, Note_on_c, 0, 72, 127
1, 359776, Note_on_c, 8, 68, 127
1, 359910, Note_off_c, 0, 72, 127
1, 359911, Note_on_c, 5, 77, 127
1, 360044, Note_off_c, 8, 68, 127
1, 360045, Note_off_c, 5, 77, 127
1, 360045, Note_off_c, 5, 53, 127
1, 360046, Note_on_c, 5, 53, 127
1, 360046, Note_on_c, 0, 72, 127
1, 360046, Note_on_c, 8, 68, 127
1, 360180, Note_off_c, 0, 72, 127
1, 360181, Note_on_c, 5, 77, 127
1, 360314, Note_off_c, 8, 68, 127
1, 360315, Note_off_c, 5, 77, 127
1, 360315, Note_off_c, 5, 53, 127
1, 360316, Note_on_c, 5, 53, 127
1, 360316, Note_on_c, 1, 73, 127
1, 360316, Note_on_c, 11, 70, 127
1, 360450, Note_off_c, 1, 73, 127
1, 360451, Note_on_c, 5, 77, 127
1, 360584, Note_off_c, 11, 70, 127
1, 360585, Note_off_c, 5, 77, 127
1, 360585, Note_off_c, 5, 53, 127
1, 360586, Note_on_c, 5, 53, 127
1, 360586, Note_on_c, 1, 73, 127
1, 360586, Note_on_c, 11, 70, 127
1, 360720, Note_off_c, 1, 73, 127
1, 360721, Note_on_c, 5, 77, 127
1, 360854, Note_off_c, 11, 70, 127
1, 360855, Note_off_c, 5, 77, 127
1, 360855, Note_off_c, 5, 53, 127
1, 360856, Note_on_c, 5, 53, 127
1, 360856, Note_on_c, 11, 70, 127
1, 360856, Note_on_c, 1, 73, 127
1, 360990, Note_off_c, 1, 73, 127
1, 360991, Note_on_c, 5, 77, 127
1, 361059, Note_off_c, 11, 70, 127
1, 361105, Note_off_c, 5, 65, 127
1, 361125, Note_off_c, 5, 77, 127
1, 361125, Note_off_c, 5, 53, 127
1, 361126, Note_on_c, 5, 53, 127
1, 361126, Note_on_c, 0, 72, 127
1, 361126, Note_on_c, 8, 68, 127
1, 361260, Note_off_c, 0, 72, 127
1, 361261, Note_on_c, 0, 72, 127
1, 361394, Note_off_c, 8, 68, 127
1, 361395, Note_off_c, 0, 72, 127
1, 361396, Note_on_c, 8, 68, 127
1, 361464, Note_off_c, 5, 53, 127
1, 361530, Note_off_c, 8, 68, 127
1, 361531, Note_on_c, 1, 73, 127
1, 361665, Note_off_c, 1, 73, 127
1, 361666, Note_on_c, 8, 68, 127
1, 361800, Note_off_c, 8, 68, 127
1, 361801, Note_on_c, 1, 73, 127
1, 361935, Note_off_c, 1, 73, 127
1, 361936, Note_on_c, 7, 55, 127
1, 361936, Note_on_c, 11, 58, 127
1, 361936, Note_on_c, 11, 70, 127
1, 361936, Note_on_c, 3, 63, 127
1, 362070, Note_off_c, 11, 70, 127
1, 362071, Note_on_c, 3, 75, 127
1, 362205, Note_off_c, 3, 75, 127
1, 362206, Note_on_c, 11, 70, 127
1, 362330, Note_off_c, 3, 63, 127
1, 362330, Note_off_c, 11, 58, 127
1, 362330, Note_off_c, 7, 55, 127
1, 362340, Note_off_c, 11, 70, 127
1, 362341, Note_on_c, 3, 75, 127
1, 362475, Note_off_c, 3, 75, 127
1, 362476, Note_on_c, 11, 70, 127
1, 362610, Note_off_c, 11, 70, 127
1, 362611, Note_on_c, 3, 75, 127
1, 362745, Note_off_c, 3, 75, 127
1, 362746, Note_on_c, 8, 56, 127
1, 362746, Note_on_c, 8, 68, 127
1, 362746, Note_on_c, 0, 72, 127
1, 362746, Note_on_c, 3, 63, 127
1, 362880, Note_off_c, 0, 72, 127
1, 362881, Note_on_c, 3, 75, 127
1, 363015, Note_off_c, 3, 75, 127
1, 363016, Note_on_c, 8, 80, 127
1, 363140, Note_off_c, 3, 63, 127
1, 363140, Note_off_c, 8, 68, 127
1, 363140, Note_off_c, 8, 56, 127
1, 363150, Note_off_c, 8, 80, 127
1, 363151, Note_on_c, 3, 75, 127
1, 363285, Note_off_c, 3, 75, 127
1, 363286, Note_on_c, 5, 77, 127
1, 363420, Note_off_c, 5, 77, 127
1, 363421, Note_on_c, 0, 72, 127
1, 363555, Note_off_c, 0, 72, 127
1, 363556, Note_on_c, 11, 58, 127
1, 363556, Note_on_c, 5, 65, 127
1, 363556, Note_on_c, 1, 73, 127
1, 363690, Note_off_c, 1, 73, 127
1, 363691, Note_on_c, 0, 72, 127
1, 363825, Note_off_c, 0, 72, 127
1, 363826, Note_on_c, 1, 73, 127
1, 363950, Note_off_c, 5, 65, 127
1, 363950, Note_off_c, 11, 58, 127
1, 363961, Note_on_c, 8, 68, 127
1, 364095, Note_off_c, 8, 68, 127
1, 364096, Note_on_c, 11, 70, 127
1, 364230, Note_off_c, 11, 70, 127
1, 364231, Note_on_c, 5, 65, 127
1, 364365, Note_off_c, 5, 65, 127
1, 364366, Note_on_c, 3, 51, 127
1, 364366, Note_on_c, 11, 58, 127
1, 364366, Note_on_c, 7, 67, 127
1, 364636, Note_off_c, 7, 67, 127
1, 364636, Note_off_c, 11, 58, 127
1, 364636, Note_off_c, 3, 51, 127
1, 364636, Note_off_c, 1, 73, 127
1, 364637, Note_on_c, 8, 56, 127
1, 364637, Note_on_c, 5, 53, 127
1, 364637, Note_on_c, 0, 72, 127
1, 364637, Note_on_c, 8, 68, 127
1, 364907, Note_off_c, 8, 68, 127
1, 364907, Note_off_c, 0, 72, 127
1, 364907, Note_off_c, 5, 53, 127
1, 364907, Note_off_c, 8, 56, 127
1, 364908, Note_on_c, 0, 48, 127
1, 364908, Note_on_c, 0, 60, 127
1, 364908, Note_on_c, 3, 75, 127
1, 364908, Note_on_c, 8, 80, 127
1, 365178, Note_off_c, 3, 75, 127
1, 365178, Note_off_c, 0, 60, 127
1, 365178, Note_off_c, 0, 48, 127
1, 365179, Note_on_c, 1, 49, 127
1, 365179, Note_on_c, 11, 58, 127
1, 365179, Note_on_c, 5, 77, 127
1, 365444, Note_off_c, 8, 80, 127
1, 365447, Note_off_c, 5, 77, 127
1, 365448, Note_off_c, 1, 49, 127
1, 365449, Note_on_c, 3, 51, 127
1, 365449, Note_on_c, 7, 79, 127
1, 365585, Note_on_c, 5, 77, 127
1, 365715, Note_off_c, 11, 58, 127
1, 365719, Note_off_c, 5, 77, 127
1, 365720, Note_on_c, 3, 39, 127
1, 365720, Note_on_c, 3, 75, 127
1, 365856, Note_on_c, 1, 73, 127
1, 365986, Note_off_c, 3, 51, 127
1, 365989, Note_off_c, 3, 75, 127
1, 365990, Note_off_c, 1, 73, 127
1, 365990, Note_off_c, 3, 39, 127
1, 365990, Note_off_c, 7, 79, 127
1, 365991, Note_on_c, 8, 44, 127
1, 365991, Note_on_c, 8, 80, 127
1, 365991, Note_on_c, 0, 72, 127
1, 366125, Note_off_c, 0, 72, 127
1, 366126, Note_on_c, 8, 68, 127
1, 366194, Note_off_c, 8, 80, 127
1, 366260, Note_off_c, 8, 68, 127
1, 366260, Note_off_c, 8, 44, 127
1, 366261, Note_on_c, 8, 44, 127
1, 366261, Note_on_c, 0, 60, 127
1, 366261, Note_on_c, 3, 63, 127
1, 366397, Note_on_c, 8, 68, 127
1, 366531, Note_off_c, 8, 68, 127
1, 366531, Note_off_c, 3, 63, 127
1, 366531, Note_off_c, 0, 60, 127
1, 366531, Note_off_c, 8, 44, 127
1, 366532, Note_on_c, 3, 63, 127
1, 366532, Note_on_c, 0, 60, 127
1, 366532, Note_on_c, 8, 44, 127
1, 366668, Note_on_c, 8, 68, 127
1, 366802, Note_off_c, 8, 68, 127
1, 366802, Note_off_c, 8, 44, 127
1, 366802, Note_off_c, 0, 60, 127
1, 366802, Note_off_c, 3, 63, 127
1, 366803, Note_on_c, 1, 49, 127
1, 366803, Note_on_c, 8, 56, 127
1, 366803, Note_on_c, 5, 65, 127
1, 366803, Note_on_c, 1, 61, 127
1, 366937, Note_off_c, 5, 65, 127
1, 366938, Note_on_c, 11, 70, 127
1, 367071, Note_off_c, 1, 61, 127
1, 367072, Note_off_c, 11, 70, 127
1, 367072, Note_off_c, 8, 56, 127
1, 367072, Note_off_c, 1, 49, 127
1, 367073, Note_on_c, 1, 49, 127
1, 367073, Note_on_c, 5, 53, 127
1, 367073, Note_on_c, 5, 65, 127
1, 367073, Note_on_c, 11, 58, 127
1, 367207, Note_off_c, 5, 65, 127
1, 367208, Note_on_c, 11, 70, 127
1, 367341, Note_off_c, 11, 58, 127
1, 367342, Note_off_c, 11, 70, 127
1, 367342, Note_off_c, 5, 53, 127
1, 367342, Note_off_c, 1, 49, 127
1, 367343, Note_on_c, 5, 53, 127
1, 367343, Note_on_c, 1, 49, 127
1, 367343, Note_on_c, 5, 65, 127
1, 367343, Note_on_c, 11, 58, 127
1, 367477, Note_off_c, 5, 65, 127
1, 367478, Note_on_c, 11, 70, 127
1, 367611, Note_off_c, 11, 58, 127
1, 367612, Note_off_c, 11, 70, 127
1, 367612, Note_off_c, 1, 49, 127
1, 367612, Note_off_c, 5, 53, 127
1, 367613, Note_on_c, 3, 51, 127
1, 367613, Note_on_c, 11, 58, 127
1, 367613, Note_on_c, 7, 67, 127
1, 367613, Note_on_c, 3, 63, 127
1, 367747, Note_off_c, 7, 67, 127
1, 367748, Note_on_c, 0, 72, 127
1, 367881, Note_off_c, 3, 63, 127
1, 367882, Note_off_c, 0, 72, 127
1, 367882, Note_off_c, 11, 58, 127
1, 367882, Note_off_c, 3, 51, 127
1, 367883, Note_on_c, 3, 51, 127
1, 367883, Note_on_c, 7, 55, 127
1, 367883, Note_on_c, 7, 67, 127
1, 367883, Note_on_c, 0, 60, 127
1, 368017, Note_off_c, 7, 67, 127
1, 368018, Note_on_c, 0, 72, 127
1, 368151, Note_off_c, 0, 60, 127
1, 368152, Note_off_c, 0, 72, 127
1, 368152, Note_off_c, 7, 55, 127
1, 368152, Note_off_c, 3, 51, 127
1, 368153, Note_on_c, 7, 55, 127
1, 368153, Note_on_c, 3, 51, 127
1, 368153, Note_on_c, 0, 60, 127
1, 368153, Note_on_c, 7, 67, 127
1, 368287, Note_off_c, 7, 67, 127
1, 368288, Note_on_c, 0, 72, 127
1, 368421, Note_off_c, 0, 60, 127
1, 368422, Note_off_c, 0, 72, 127
1, 368422, Note_off_c, 3, 51, 127
1, 368422, Note_off_c, 7, 55, 127
1, 368423, Note_on_c, 5, 53, 127
1, 368423, Note_on_c, 0, 60, 127
1, 368423, Note_on_c, 8, 68, 127
1, 368423, Note_on_c, 5, 65, 127
1, 368557, Note_off_c, 8, 68, 127
1, 368558, Note_on_c, 1, 73, 127
1, 368691, Note_off_c, 5, 65, 127
1, 368692, Note_off_c, 1, 73, 127
1, 368692, Note_off_c, 0, 60, 127
1, 368692, Note_off_c, 5, 53, 127
1, 368693, Note_on_c, 8, 56, 127
1, 368693, Note_on_c, 5, 53, 127
1, 368693, Note_on_c, 1, 61, 127
1, 368693, Note_on_c, 8, 68, 127
1, 368827, Note_off_c, 8, 68, 127
1, 368828, Note_on_c, 1, 73, 127
1, 368961, Note_off_c, 1, 61, 127
1, 368962, Note_off_c, 1, 73, 127
1, 368962, Note_off_c, 5, 53, 127
1, 368962, Note_off_c, 8, 56, 127
1, 368963, Note_on_c, 5, 53, 127
1, 368963, Note_on_c, 8, 56, 127
1, 368963, Note_on_c, 8, 68, 127
1, 368963, Note_on_c, 1, 61, 127
1, 369097, Note_off_c, 8, 68, 127
1, 369098, Note_on_c, 1, 73, 127
1, 369231, Note_off_c, 1, 61, 127
1, 369232, Note_off_c, 1, 73, 127
1, 369232, Note_off_c, 8, 56, 127
1, 369232, Note_off_c, 5, 53, 127
1, 369233, Note_on_c, 7, 55, 127
1, 369233, Note_on_c, 11, 58, 127
1, 369233, Note_on_c, 11, 70, 127
1, 369233, Note_on_c, 3, 63, 127
1, 369367, Note_off_c, 11, 70, 127
1, 369368, Note_on_c, 3, 75, 127
1, 369501, Note_off_c, 3, 63, 127
1, 369502, Note_off_c, 3, 75, 127
1, 369502, Note_off_c, 11, 58, 127
1, 369502, Note_off_c, 7, 55, 127
1, 369503, Note_on_c, 11, 58, 127
1, 369503, Note_on_c, 7, 55, 127
1, 369503, Note_on_c, 3, 63, 127
1, 369503, Note_on_c, 11, 70, 127
1, 369637, Note_off_c, 11, 70, 127
1, 369638, Note_on_c, 3, 75, 127
1, 369771, Note_off_c, 3, 63, 127
1, 369772, Note_off_c, 3, 75, 127
1, 369772, Note_off_c, 7, 55, 127
1, 369772, Note_off_c, 11, 58, 127
1, 369773, Note_on_c, 7, 55, 127
1, 369773, Note_on_c, 11, 58, 127
1, 369773, Note_on_c, 3, 63, 127
1, 369773, Note_on_c, 11, 70, 127
1, 369907, Note_off_c, 11, 70, 127
1, 369908, Note_on_c, 3, 75, 127
1, 370041, Note_off_c, 3, 63, 127
1, 370042, Note_off_c, 3, 75, 127
1, 370042, Note_off_c, 11, 58, 127
1, 370042, Note_off_c, 7, 55, 127
1, 370043, Note_on_c, 8, 56, 127
1, 370043, Note_on_c, 3, 63, 127
1, 370043, Note_on_c, 0, 72, 127
1, 370177, Note_off_c, 0, 72, 127
1, 370177, Note_off_c, 3, 63, 127
1, 370178, Note_on_c, 7, 67, 127
1, 370312, Note_off_c, 7, 67, 127
1, 370313, Note_on_c, 8, 68, 127
1, 370437, Note_off_c, 8, 56, 127
1, 370447, Note_off_c, 8, 68, 127
1, 370448, Note_on_c, 3, 63, 127
1, 370582, Note_off_c, 3, 63, 127
1, 370583, Note_on_c, 5, 65, 127
1, 370717, Note_off_c, 5, 65, 127
1, 370718, Note_on_c, 0, 60, 127
1, 370852, Note_off_c, 0, 60, 127
1, 370853, Note_on_c, 11, 58, 127
1, 370853, Note_on_c, 1, 61, 127
1, 370987, Note_off_c, 1, 61, 127
1, 370988, Note_on_c, 0, 60, 127
1, 371122, Note_off_c, 0, 60, 127
1, 371123, Note_on_c, 1, 61, 127
1, 371257, Note_off_c, 11, 58, 127
1, 371258, Note_on_c, 8, 56, 127
1, 371392, Note_off_c, 8, 56, 127
1, 371393, Note_on_c, 11, 58, 127
1, 371527, Note_off_c, 11, 58, 127
1, 371528, Note_on_c, 5, 53, 127
1, 371662, Note_off_c, 5, 53, 127
1, 371663, Note_on_c, 7, 55, 127
1, 371663, Note_on_c, 3, 51, 127
1, 371855, Note_off_c, 1, 61, 127
1, 371933, Note_off_c, 3, 51, 127
1, 371933, Note_off_c, 7, 55, 127
1, 371934, Note_on_c, 8, 56, 127
1, 371934, Note_on_c, 5, 53, 127
1, 371934, Note_on_c, 0, 60, 127
1, 372204, Note_off_c, 0, 60, 127
1, 372204, Note_off_c, 5, 53, 127
1, 372204, Note_off_c, 8, 56, 127
1, 372205, Note_on_c, 0, 48, 127
1, 372205, Note_on_c, 8, 68, 127
1, 372205, Note_on_c, 3, 63, 127
1, 372475, Note_off_c, 3, 63, 127
1, 372475, Note_off_c, 0, 48, 127
1, 372476, Note_on_c, 1, 49, 127
1, 372476, Note_on_c, 5, 65, 127
1, 372600, Note_off_c, 8, 68, 127
1, 372610, Note_off_c, 5, 65, 127
1, 372611, Note_on_c, 11, 70, 127
1, 372745, Note_off_c, 11, 70, 127
1, 372745, Note_off_c, 1, 49, 127
1, 372746, Note_on_c, 3, 51, 127
1, 372746, Note_on_c, 8, 68, 127
1, 372746, Note_on_c, 11, 58, 127
1, 372879, Note_off_c, 8, 68, 127
1, 372882, Note_on_c, 7, 67, 127
1, 372948, Note_off_c, 7, 67, 127
1, 372949, Note_on_c, 8, 68, 127
1, 373003, Note_on_c, 7, 67, 127
1, 373006, Note_off_c, 8, 68, 127
1, 373017, Note_on_c, 3, 39, 127
1, 373059, Note_off_c, 7, 67, 127
1, 373062, Note_on_c, 8, 68, 127
1, 373118, Note_off_c, 8, 68, 127
1, 373118, Note_on_c, 7, 67, 127
1, 373174, Note_off_c, 7, 67, 127
1, 373174, Note_on_c, 5, 65, 127
1, 373230, Note_off_c, 5, 65, 127
1, 373230, Note_on_c, 7, 67, 127
1, 373279, Note_off_c, 7, 67, 127
1, 373280, Note_off_c, 3, 51, 127
1, 373284, Note_off_c, 3, 39, 127
1, 373284, Note_off_c, 11, 58, 127
1, 373285, Note_on_c, 8, 44, 127
1, 373285, Note_on_c, 8, 56, 127
1, 373285, Note_on_c, 8, 68, 127
1, 373421, Note_on_c, 8, 80, 127
1, 373555, Note_off_c, 8, 80, 127
1, 373555, Note_off_c, 8, 56, 127
1, 373555, Note_off_c, 8, 44, 127
1, 373556, Note_on_c, 8, 56, 127
1, 373556, Note_on_c, 0, 72, 127
1, 373556, Note_on_c, 3, 75, 127
1, 373690, Note_off_c, 3, 75, 127
1, 373691, Note_on_c, 8, 80, 127
1, 373824, Note_off_c, 0, 72, 127
1, 373825, Note_off_c, 8, 80, 127
1, 373825, Note_off_c, 8, 56, 127
1, 373826, Note_on_c, 8, 56, 127
1, 373826, Note_on_c, 3, 75, 127
1, 373826, Note_on_c, 0, 72, 127
1, 373960, Note_off_c, 3, 75, 127
1, 373961, Note_on_c, 8, 80, 127
1, 374094, Note_off_c, 0, 72, 127
1, 374095, Note_off_c, 8, 80, 127
1, 374095, Note_off_c, 8, 56, 127
1, 374096, Note_on_c, 8, 56, 127
1, 374096, Note_on_c, 5, 77, 127
1, 374096, Note_on_c, 1, 73, 127
1, 374230, Note_off_c, 5, 77, 127
1, 374231, Note_on_c, 8, 80, 127
1, 374364, Note_off_c, 1, 73, 127
1, 374365, Note_off_c, 8, 80, 127
1, 374365, Note_off_c, 8, 56, 127
1, 374366, Note_on_c, 8, 56, 127
1, 374366, Note_on_c, 5, 77, 127
1, 374366, Note_on_c, 1, 73, 127
1, 374500, Note_off_c, 5, 77, 127
1, 374501, Note_on_c, 8, 80, 127
1, 374634, Note_off_c, 1, 73, 127
1, 374635, Note_off_c, 8, 80, 127
1, 374635, Note_off_c, 8, 56, 127
1, 374636, Note_on_c, 8, 56, 127
1, 374636, Note_on_c, 5, 77, 127
1, 374636, Note_on_c, 1, 73, 127
1, 374770, Note_off_c, 5, 77, 127
1, 374771, Note_on_c, 8, 80, 127
1, 374904, Note_off_c, 1, 73, 127
1, 374905, Note_off_c, 8, 80, 127
1, 374905, Note_off_c, 8, 56, 127
1, 374906, Note_on_c, 8, 56, 127
1, 374906, Note_on_c, 3, 75, 127
1, 374906, Note_on_c, 0, 72, 127
1, 375040, Note_off_c, 3, 75, 127
1, 375041, Note_on_c, 8, 80, 127
1, 375174, Note_off_c, 0, 72, 127
1, 375175, Note_off_c, 8, 80, 127
1, 375175, Note_off_c, 8, 56, 127
1, 375176, Note_on_c, 8, 56, 127
1, 375176, Note_on_c, 0, 72, 127
1, 375176, Note_on_c, 3, 75, 127
1, 375310, Note_off_c, 3, 75, 127
1, 375311, Note_on_c, 8, 80, 127
1, 375444, Note_off_c, 0, 72, 127
1, 375445, Note_off_c, 8, 80, 127
1, 375445, Note_off_c, 8, 56, 127
1, 375446, Note_on_c, 8, 56, 127
1, 375446, Note_on_c, 3, 75, 127
1, 375446, Note_on_c, 0, 72, 127
1, 375580, Note_off_c, 3, 75, 127
1, 375581, Note_on_c, 8, 80, 127
1, 375714, Note_off_c, 0, 72, 127
1, 375715, Note_off_c, 8, 80, 127
1, 375715, Note_off_c, 8, 56, 127
1, 375716, Note_on_c, 8, 56, 127
1, 375716, Note_on_c, 5, 77, 127
1, 375716, Note_on_c, 1, 73, 127
1, 375850, Note_off_c, 5, 77, 127
1, 375851, Note_on_c, 8, 80, 127
1, 375984, Note_off_c, 1, 73, 127
1, 375985, Note_off_c, 8, 80, 127
1, 375985, Note_off_c, 8, 56, 127
1, 375986, Note_on_c, 8, 56, 127
1, 375986, Note_on_c, 5, 77, 127
1, 375986, Note_on_c, 1, 73, 127
1, 376120, Note_off_c, 5, 77, 127
1, 376121, Note_on_c, 8, 80, 127
1, 376254, Note_off_c, 1, 73, 127
1, 376255, Note_off_c, 8, 80, 127
1, 376255, Note_off_c, 8, 56, 127
1, 376256, Note_on_c, 8, 56, 127
1, 376256, Note_on_c, 5, 77, 127
1, 376256, Note_on_c, 1, 73, 127
1, 376390, Note_off_c, 5, 77, 127
1, 376391, Note_on_c, 8, 80, 127
1, 376459, Note_off_c, 1, 73, 127
1, 376521, Note_off_c, 8, 68, 127
1, 376525, Note_off_c, 8, 80, 127
1, 376525, Note_off_c, 8, 56, 127
1, 376526, Note_on_c, 8, 56, 127
1, 376526, Note_on_c, 0, 72, 127
1, 376526, Note_on_c, 3, 75, 127
1, 376660, Note_off_c, 8, 56, 127
1, 376661, Note_on_c, 0, 60, 127
1, 376795, Note_off_c, 0, 60, 127
1, 376796, Note_on_c, 11, 58, 127
1, 376920, Note_off_c, 3, 75, 127
1, 376920, Note_off_c, 0, 72, 127
1, 376930, Note_off_c, 11, 58, 127
1, 376931, Note_on_c, 8, 56, 127
1, 377065, Note_off_c, 8, 56, 127
1, 377066, Note_on_c, 7, 55, 127
1, 377200, Note_off_c, 7, 55, 127
1, 377201, Note_on_c, 5, 53, 127
1, 377335, Note_off_c, 5, 53, 127
1, 377336, Note_on_c, 3, 51, 127
1, 377336, Note_on_c, 3, 63, 127
1, 377472, Note_on_c, 3, 75, 127
1, 377606, Note_off_c, 3, 75, 127
1, 377606, Note_off_c, 3, 51, 127
1, 377607, Note_on_c, 3, 51, 127
1, 377607, Note_on_c, 11, 70, 127
1, 377607, Note_on_c, 7, 67, 127
1, 377741, Note_off_c, 11, 70, 127
1, 377742, Note_on_c, 3, 75, 127
1, 377875, Note_off_c, 7, 67, 127
1, 377876, Note_off_c, 3, 75, 127
1, 377876, Note_off_c, 3, 51, 127
1, 377877, Note_on_c, 3, 51, 127
1, 377877, Note_on_c, 7, 67, 127
1, 377877, Note_on_c, 11, 70, 127
1, 378011, Note_off_c, 11, 70, 127
1, 378012, Note_on_c, 3, 75, 127
1, 378145, Note_off_c, 7, 67, 127
1, 378146, Note_off_c, 3, 75, 127
1, 378146, Note_off_c, 3, 51, 127
1, 378147, Note_on_c, 3, 51, 127
1, 378147, Note_on_c, 0, 72, 127
1, 378147, Note_on_c, 8, 68, 127
1, 378281, Note_off_c, 0, 72, 127
1, 378282, Note_on_c, 3, 75, 127
1, 378415, Note_off_c, 8, 68, 127
1, 378416, Note_off_c, 3, 75, 127
1, 378416, Note_off_c, 3, 51, 127
1, 378417, Note_on_c, 3, 51, 127
1, 378417, Note_on_c, 0, 72, 127
1, 378417, Note_on_c, 8, 68, 127
1, 378551, Note_off_c, 0, 72, 127
1, 378552, Note_on_c, 3, 75, 127
1, 378685, Note_off_c, 8, 68, 127
1, 378686, Note_off_c, 3, 75, 127
1, 378686, Note_off_c, 3, 51, 127
1, 378687, Note_on_c, 3, 51, 127
1, 378687, Note_on_c, 0, 72, 127
1, 378687, Note_on_c, 8, 68, 127
1, 378821, Note_off_c, 0, 72, 127
1, 378822, Note_on_c, 3, 75, 127
1, 378955, Note_off_c, 8, 68, 127
1, 378956, Note_off_c, 3, 75, 127
1, 378956, Note_off_c, 3, 51, 127
1, 378957, Note_on_c, 3, 51, 127
1, 378957, Note_on_c, 11, 70, 127
1, 378957, Note_on_c, 7, 67, 127
1, 379091, Note_off_c, 11, 70, 127
1, 379092, Note_on_c, 3, 75, 127
1, 379225, Note_off_c, 7, 67, 127
1, 379226, Note_off_c, 3, 75, 127
1, 379226, Note_off_c, 3, 51, 127
1, 379227, Note_on_c, 3, 51, 127
1, 379227, Note_on_c, 11, 70, 127
1, 379227, Note_on_c, 7, 67, 127
1, 379361, Note_off_c, 11, 70, 127
1, 379362, Note_on_c, 3, 75, 127
1, 379495, Note_off_c, 7, 67, 127
1, 379496, Note_off_c, 3, 75, 127
1, 379496, Note_off_c, 3, 51, 127
1, 379497, Note_on_c, 3, 51, 127
1, 379497, Note_on_c, 7, 67, 127
1, 379497, Note_on_c, 11, 70, 127
1, 379631, Note_off_c, 11, 70, 127
1, 379632, Note_on_c, 3, 75, 127
1, 379765, Note_off_c, 7, 67, 127
1, 379766, Note_off_c, 3, 75, 127
1, 379766, Note_off_c, 3, 51, 127
1, 379767, Note_on_c, 3, 51, 127
1, 379767, Note_on_c, 0, 72, 127
1, 379767, Note_on_c, 8, 68, 127
1, 379901, Note_off_c, 0, 72, 127
1, 379902, Note_on_c, 3, 75, 127
1, 380035, Note_off_c, 8, 68, 127
1, 380036, Note_off_c, 3, 75, 127
1, 380036, Note_off_c, 3, 51, 127
1, 380037, Note_on_c, 3, 51, 127
1, 380037, Note_on_c, 0, 72, 127
1, 380037, Note_on_c, 8, 68, 127
1, 380171, Note_off_c, 0, 72, 127
1, 380172, Note_on_c, 3, 75, 127
1, 380305, Note_off_c, 8, 68, 127
1, 380306, Note_off_c, 3, 75, 127
1, 380306, Note_off_c, 3, 51, 127
1, 380307, Note_on_c, 3, 51, 127
1, 380307, Note_on_c, 0, 72, 127
1, 380307, Note_on_c, 8, 68, 127
1, 380441, Note_off_c, 0, 72, 127
1, 380442, Note_on_c, 3, 75, 127
1, 380510, Note_off_c, 8, 68, 127
1, 380572, Note_off_c, 3, 63, 127
1, 380576, Note_off_c, 3, 75, 127
1, 380576, Note_off_c, 3, 51, 127
1, 380577, Note_on_c, 3, 51, 127
1, 380577, Note_on_c, 7, 67, 127
1, 380577, Note_on_c, 11, 70, 127
1, 380711, Note_off_c, 3, 51, 127
1, 380712, Note_on_c, 8, 56, 127
1, 380846, Note_off_c, 8, 56, 127
1, 380847, Note_on_c, 7, 55, 127
1, 380971, Note_off_c, 11, 70, 127
1, 380971, Note_off_c, 7, 67, 127
1, 380981, Note_off_c, 7, 55, 127
1, 380982, Note_on_c, 5, 53, 127
1, 381116, Note_off_c, 5, 53, 127
1, 381117, Note_on_c, 3, 51, 127
1, 381251, Note_off_c, 3, 51, 127
1, 381252, Note_on_c, 2, 50, 127
1, 381386, Note_off_c, 2, 50, 127
1, 381387, Note_on_c, 0, 48, 127
1, 381387, Note_on_c, 0, 60, 127
1, 381523, Note_on_c, 0, 72, 127
1, 381657, Note_off_c, 0, 72, 127
1, 381657, Note_off_c, 0, 48, 127
1, 381658, Note_on_c, 0, 48, 127
1, 381658, Note_on_c, 7, 67, 127
1, 381658, Note_on_c, 3, 63, 127
1, 381792, Note_off_c, 7, 67, 127
1, 381793, Note_on_c, 0, 72, 127
1, 381912, Note_off_c, 3, 63, 127
1, 381928, Note_off_c, 0, 72, 127
1, 381928, Note_off_c, 0, 48, 127
1, 381929, Note_on_c, 0, 48, 127
1, 381929, Note_on_c, 7, 67, 127
1, 381929, Note_on_c, 3, 63, 127
1, 382063, Note_off_c, 7, 67, 127
1, 382064, Note_on_c, 0, 72, 127
1, 382183, Note_off_c, 3, 63, 127
1, 382199, Note_off_c, 0, 72, 127
1, 382199, Note_off_c, 0, 48, 127
1, 382200, Note_on_c, 0, 48, 127
1, 382200, Note_on_c, 5, 65, 127
1, 382200, Note_on_c, 8, 68, 127
1, 382334, Note_off_c, 8, 68, 127
1, 382335, Note_on_c, 0, 72, 127
1, 382454, Note_off_c, 5, 65, 127
1, 382470, Note_off_c, 0, 72, 127
1, 382470, Note_off_c, 0, 48, 127
1, 382471, Note_on_c, 0, 48, 127
1, 382471, Note_on_c, 5, 65, 127
1, 382471, Note_on_c, 8, 68, 127
1, 382605, Note_off_c, 8, 68, 127
1, 382606, Note_on_c, 0, 72, 127
1, 382725, Note_off_c, 5, 65, 127
1, 382741, Note_off_c, 0, 72, 127
1, 382741, Note_off_c, 0, 48, 127
1, 382742, Note_on_c, 0, 48, 127
1, 382742, Note_on_c, 8, 68, 127
1, 382742, Note_on_c, 5, 65, 127
1, 382876, Note_off_c, 8, 68, 127
1, 382877, Note_on_c, 0, 72, 127
1, 382996, Note_off_c, 5, 65, 127
1, 383012, Note_off_c, 0, 72, 127
1, 383012, Note_off_c, 0, 48, 127
1, 383013, Note_on_c, 0, 48, 127
1, 383013, Note_on_c, 7, 67, 127
1, 383013, Note_on_c, 3, 63, 127
1, 383147, Note_off_c, 7, 67, 127
1, 383148, Note_on_c, 0, 72, 127
1, 383267, Note_off_c, 3, 63, 127
1, 383283, Note_off_c, 0, 72, 127
1, 383283, Note_off_c, 0, 48, 127
1, 383284, Note_on_c, 0, 48, 127
1, 383284, Note_on_c, 7, 67, 127
1, 383284, Note_on_c, 3, 63, 127
1, 383418, Note_off_c, 7, 67, 127
1, 383419, Note_on_c, 0, 72, 127
1, 383538, Note_off_c, 3, 63, 127
1, 383554, Note_off_c, 0, 72, 127
1, 383554, Note_off_c, 0, 48, 127
1, 383555, Note_on_c, 0, 48, 127
1, 383555, Note_on_c, 7, 67, 127
1, 383555, Note_on_c, 3, 63, 127
1, 383689, Note_off_c, 7, 67, 127
1, 383690, Note_on_c, 0, 72, 127
1, 383809, Note_off_c, 3, 63, 127
1, 383825, Note_off_c, 0, 72, 127
1, 383825, Note_off_c, 0, 48, 127
1, 383826, Note_on_c, 0, 48, 127
1, 383826, Note_on_c, 8, 68, 127
1, 383826, Note_on_c, 5, 65, 127
1, 383960, Note_off_c, 8, 68, 127
1, 383961, Note_on_c, 0, 72, 127
1, 384080, Note_off_c, 5, 65, 127
1, 384096, Note_off_c, 0, 72, 127
1, 384096, Note_off_c, 0, 48, 127
1, 384097, Note_on_c, 0, 48, 127
1, 384097, Note_on_c, 8, 68, 127
1, 384097, Note_on_c, 5, 65, 127
1, 384231, Note_off_c, 8, 68, 127
1, 384232, Note_on_c, 0, 72, 127
1, 384351, Note_off_c, 5, 65, 127
1, 384367, Note_off_c, 0, 72, 127
1, 384367, Note_off_c, 0, 48, 127
1, 384368, Note_on_c, 0, 48, 127
1, 384368, Note_on_c, 8, 68, 127
1, 384368, Note_on_c, 5, 65, 127
1, 384502, Note_off_c, 8, 68, 127
1, 384503, Note_on_c, 0, 72, 127
1, 384571, Note_off_c, 5, 65, 127
1, 384633, Note_off_c, 0, 60, 127
1, 384637, Note_off_c, 0, 72, 127
1, 384637, Note_off_c, 0, 48, 127
1, 384638, Note_on_c, 0, 48, 127
1, 384638, Note_on_c, 3, 63, 127
1, 384638, Note_on_c, 7, 67, 127
1, 384772, Note_off_c, 7, 67, 127
1, 384772, Note_off_c, 3, 63, 127
1, 384773, Note_on_c, 7, 67, 127
1, 384907, Note_off_c, 7, 67, 127
1, 384908, Note_on_c, 3, 63, 127
1, 385032, Note_off_c, 0, 48, 127
1, 385042, Note_off_c, 3, 63, 127
1, 385043, Note_on_c, 0, 60, 127
1, 385177, Note_off_c, 0, 60, 127
1, 385178, Note_on_c, 7, 67, 127
1, 385312, Note_off_c, 7, 67, 127
1, 385313, Note_on_c, 0, 72, 127
1, 385447, Note_off_c, 0, 72, 127
1, 385448, Note_on_c, 0, 60, 127
1, 385448, Note_on_c, 5, 53, 127
1, 385448, Note_on_c, 5, 65, 127
1, 385448, Note_on_c, 8, 68, 127
1, 385582, Note_off_c, 8, 68, 127
1, 385582, Note_off_c, 5, 65, 127
1, 385583, Note_on_c, 0, 72, 127
1, 385717, Note_off_c, 0, 72, 127
1, 385718, Note_on_c, 8, 68, 127
1, 385842, Note_off_c, 5, 53, 127
1, 385842, Note_off_c, 0, 60, 127
1, 385852, Note_off_c, 8, 68, 127
1, 385853, Note_on_c, 5, 65, 127
1, 385987, Note_off_c, 5, 65, 127
1, 385988, Note_on_c, 0, 72, 127
1, 386122, Note_off_c, 0, 72, 127
1, 386123, Note_on_c, 2, 74, 127
1, 386257, Note_off_c, 2, 74, 127
1, 386258, Note_on_c, 7, 67, 127
1, 386258, Note_on_c, 12, 71, 127
1, 386392, Note_off_c, 12, 71, 127
1, 386393, Note_on_c, 7, 79, 127
1, 386527, Note_off_c, 7, 79, 127
1, 386527, Note_off_c, 7, 67, 127
1, 386528, Note_on_c, 3, 63, 127
1, 386528, Note_on_c, 0, 84, 127
1, 386662, Note_off_c, 0, 84, 127
1, 386663, Note_on_c, 7, 79, 127
1, 386797, Note_off_c, 7, 79, 127
1, 386797, Note_off_c, 3, 63, 127
1, 386798, Note_on_c, 0, 60, 127
1, 386798, Note_on_c, 8, 80, 127
1, 386932, Note_off_c, 8, 80, 127
1, 386933, Note_on_c, 3, 75, 127
1, 387067, Note_off_c, 3, 75, 127
1, 387067, Note_off_c, 0, 60, 127
1, 387068, Note_on_c, 2, 62, 127
1, 387068, Note_on_c, 5, 77, 127
1, 387202, Note_off_c, 5, 77, 127
1, 387203, Note_on_c, 3, 75, 127
1, 387337, Note_off_c, 3, 75, 127
1, 387337, Note_off_c, 2, 62, 127
1, 387338, Note_on_c, 8, 56, 127
1, 387338, Note_on_c, 5, 77, 127
1, 387474, Note_on_c, 0, 72, 127
1, 387608, Note_off_c, 0, 72, 127
1, 387608, Note_off_c, 8, 56, 127
1, 387609, Note_on_c, 5, 53, 127
1, 387609, Note_on_c, 2, 74, 127
1, 387743, Note_off_c, 2, 74, 127
1, 387744, Note_on_c, 10, 69, 127
1, 387878, Note_off_c, 10, 69, 127
1, 387878, Note_off_c, 5, 53, 127
1, 387879, Note_on_c, 7, 55, 127
1, 387879, Note_on_c, 12, 71, 127
1, 388149, Note_off_c, 12, 71, 127
1, 388149, Note_off_c, 7, 55, 127
1, 388149, Note_off_c, 5, 77, 127
1, 388150, Note_on_c, 8, 56, 127
1, 388150, Note_on_c, 0, 72, 127
1, 388150, Note_on_c, 3, 75, 127
1, 388284, Note_off_c, 3, 75, 127
1, 388285, Note_on_c, 5, 77, 127
1, 388419, Note_off_c, 5, 77, 127
1, 388419, Note_off_c, 8, 56, 127
1, 388420, Note_on_c, 3, 51, 127
1, 388420, Note_on_c, 7, 79, 127
1, 388690, Note_off_c, 3, 51, 127
1, 388691, Note_on_c, 5, 53, 127
1, 388825, Note_off_c, 7, 79, 127
1, 388826, Note_on_c, 8, 80, 127
1, 388960, Note_off_c, 8, 80, 127
1, 388960, Note_off_c, 5, 53, 127
1, 388960, Note_off_c, 0, 72, 127
1, 388961, Note_on_c, 7, 55, 127
1, 388961, Note_on_c, 5, 77, 127
1, 388961, Note_on_c, 12, 71, 127
1, 389060, Note_on_c, 3, 75, 127
1, 389074, Note_off_c, 5, 77, 127
1, 389157, Note_off_c, 3, 75, 127
1, 389158, Note_on_c, 2, 74, 127
1, 389231, Note_on_c, 7, 43, 127
1, 389365, Note_off_c, 2, 74, 127
1, 389365, Note_off_c, 12, 71, 127
1, 389366, Note_on_c, 0, 72, 127
1, 389496, Note_off_c, 7, 55, 127
1, 389500, Note_off_c, 0, 72, 127
1, 389500, Note_off_c, 7, 43, 127
1, 389501, Note_on_c, 0, 48, 127
1, 389501, Note_on_c, 0, 72, 127
1, 389638, Note_off_c, 0, 72, 127
1, 389639, Note_on_c, 0, 72, 127
1, 389776, Note_off_c, 0, 72, 127
1, 389776, Note_off_c, 0, 48, 127
1, 389777, Note_on_c, 0, 60, 127
1, 389777, Note_on_c, 0, 36, 127
1, 389777, Note_on_c, 0, 48, 127
1, 389777, Note_on_c, 7, 67, 127
1, 389777, Note_on_c, 3, 63, 127
1, 389914, Note_off_c, 3, 63, 127
1, 389914, Note_off_c, 7, 67, 127
1, 389915, Note_on_c, 0, 72, 127
1, 390052, Note_off_c, 0, 72, 127
1, 390052, Note_off_c, 0, 36, 127
1, 390052, Note_off_c, 0, 60, 127
1, 390053, Note_on_c, 0, 36, 127
1, 390053, Note_on_c, 0, 60, 127
1, 390053, Note_on_c, 7, 67, 127
1, 390053, Note_on_c, 3, 63, 127
1, 390190, Note_off_c, 3, 63, 127
1, 390190, Note_off_c, 7, 67, 127
1, 390191, Note_on_c, 0, 72, 127
1, 390328, Note_off_c, 0, 72, 127
1, 390328, Note_off_c, 0, 60, 127
1, 390328, Note_off_c, 0, 36, 127
1, 390329, Note_on_c, 0, 60, 127
1, 390329, Note_on_c, 0, 36, 127
1, 390329, Note_on_c, 5, 65, 127
1, 390329, Note_on_c, 8, 68, 127
1, 390466, Note_off_c, 8, 68, 127
1, 390466, Note_off_c, 5, 65, 127
1, 390467, Note_on_c, 0, 72, 127
1, 390604, Note_off_c, 0, 72, 127
1, 390604, Note_off_c, 0, 36, 127
1, 390604, Note_off_c, 0, 60, 127
1, 390605, Note_on_c, 0, 36, 127
1, 390605, Note_on_c, 0, 60, 127
1, 390605, Note_on_c, 5, 65, 127
1, 390605, Note_on_c, 8, 68, 127
1, 390742, Note_off_c, 8, 68, 127
1, 390742, Note_off_c, 5, 65, 127
1, 390743, Note_on_c, 0, 72, 127
1, 390880, Note_off_c, 0, 72, 127
1, 390880, Note_off_c, 0, 60, 127
1, 390880, Note_off_c, 0, 36, 127
1, 390881, Note_on_c, 0, 36, 127
1, 390881, Note_on_c, 0, 60, 127
1, 390881, Note_on_c, 8, 68, 127
1, 390881, Note_on_c, 5, 65, 127
1, 391018, Note_off_c, 5, 65, 127
1, 391018, Note_off_c, 8, 68, 127
1, 391019, Note_on_c, 0, 72, 127
1, 391156, Note_off_c, 0, 72, 127
1, 391156, Note_off_c, 0, 60, 127
1, 391156, Note_off_c, 0, 36, 127
1, 391157, Note_on_c, 0, 36, 127
1, 391157, Note_on_c, 0, 60, 127
1, 391157, Note_on_c, 3, 63, 127
1, 391157, Note_on_c, 7, 67, 127
1, 391294, Note_off_c, 7, 67, 127
1, 391294, Note_off_c, 3, 63, 127
1, 391295, Note_on_c, 0, 72, 127
1, 391432, Note_off_c, 0, 72, 127
1, 391432, Note_off_c, 0, 60, 127
1, 391432, Note_off_c, 0, 36, 127
1, 391433, Note_on_c, 0, 36, 127
1, 391433, Note_on_c, 0, 60, 127
1, 391433, Note_on_c, 7, 67, 127
1, 391433, Note_on_c, 3, 63, 127
1, 391570, Note_off_c, 3, 63, 127
1, 391570, Note_off_c, 7, 67, 127
1, 391571, Note_on_c, 0, 72, 127
1, 391708, Note_off_c, 0, 72, 127
1, 391708, Note_off_c, 0, 60, 127
1, 391708, Note_off_c, 0, 36, 127
1, 391709, Note_on_c, 0, 36, 127
1, 391709, Note_on_c, 0, 60, 127
1, 391709, Note_on_c, 7, 67, 127
1, 391709, Note_on_c, 3, 63, 127
1, 391846, Note_off_c, 3, 63, 127
1, 391846, Note_off_c, 7, 67, 127
1, 391847, Note_on_c, 0, 72, 127
1, 391984, Note_off_c, 0, 72, 127
1, 391984, Note_off_c, 0, 60, 127
1, 391984, Note_off_c, 0, 36, 127
1, 391985, Note_on_c, 0, 60, 127
1, 391985, Note_on_c, 0, 36, 127
1, 391985, Note_on_c, 5, 65, 127
1, 391985, Note_on_c, 8, 68, 127
1, 392122, Note_off_c, 8, 68, 127
1, 392122, Note_off_c, 5, 65, 127
1, 392123, Note_on_c, 0, 72, 127
1, 392260, Note_off_c, 0, 72, 127
1, 392260, Note_off_c, 0, 36, 127
1, 392260, Note_off_c, 0, 60, 127
1, 392261, Note_on_c, 0, 36, 127
1, 392261, Note_on_c, 0, 60, 127
1, 392261, Note_on_c, 8, 68, 127
1, 392261, Note_on_c, 5, 65, 127
1, 392398, Note_off_c, 5, 65, 127
1, 392398, Note_off_c, 8, 68, 127
1, 392399, Note_on_c, 0, 72, 127
1, 392536, Note_off_c, 0, 72, 127
1, 392536, Note_off_c, 0, 60, 127
1, 392536, Note_off_c, 0, 36, 127
1, 392537, Note_on_c, 0, 36, 127
1, 392537, Note_on_c, 0, 60, 127
1, 392537, Note_on_c, 8, 68, 127
1, 392537, Note_on_c, 5, 65, 127
1, 392674, Note_off_c, 5, 65, 127
1, 392674, Note_off_c, 8, 68, 127
1, 392675, Note_on_c, 0, 72, 127
1, 392812, Note_off_c, 0, 72, 127
1, 392812, Note_off_c, 0, 60, 127
1, 392812, Note_off_c, 0, 36, 127
1, 392813, Note_on_c, 0, 36, 127
1, 392813, Note_on_c, 0, 60, 127
1, 392813, Note_on_c, 3, 63, 127
1, 392813, Note_on_c, 7, 67, 127
1, 392952, Note_off_c, 7, 67, 127
1, 392952, Note_off_c, 3, 63, 127
1, 392953, Note_on_c, 7, 67, 127
1, 393088, Note_off_c, 0, 48, 127
1, 393092, Note_off_c, 7, 67, 127
1, 393093, Note_on_c, 3, 63, 127
1, 393222, Note_off_c, 0, 60, 127
1, 393232, Note_off_c, 3, 63, 127
1, 393233, Note_on_c, 0, 60, 127
1, 393368, Note_off_c, 0, 36, 127
1, 393372, Note_off_c, 0, 60, 127
1, 393373, Note_on_c, 7, 67, 127
1, 393512, Note_off_c, 7, 67, 127
1, 393513, Note_on_c, 0, 72, 127
1, 393652, Note_off_c, 0, 72, 127
1, 393653, Note_on_c, 5, 41, 127
1, 393653, Note_on_c, 0, 48, 127
1, 393653, Note_on_c, 8, 68, 127
1, 393653, Note_on_c, 5, 65, 127
1, 393792, Note_off_c, 5, 65, 127
1, 393792, Note_off_c, 8, 68, 127
1, 393793, Note_on_c, 0, 72, 127
1, 393932, Note_off_c, 0, 72, 127
1, 393933, Note_on_c, 8, 68, 127
1, 394072, Note_off_c, 8, 68, 127
1, 394073, Note_on_c, 5, 65, 127
1, 394208, Note_off_c, 0, 48, 127
1, 394208, Note_off_c, 5, 41, 127
1, 394212, Note_off_c, 5, 65, 127
1, 394213, Note_on_c, 0, 72, 127
1, 394352, Note_off_c, 0, 72, 127
1, 394353, Note_on_c, 5, 77, 127
1, 394492, Note_off_c, 5, 77, 127
1, 394493, Note_on_c, 7, 43, 127
1, 394493, Note_on_c, 7, 55, 127
1, 394493, Note_on_c, 12, 71, 127
1, 394634, Note_off_c, 12, 71, 127
1, 394635, Note_on_c, 7, 67, 127
1, 394776, Note_off_c, 7, 67, 127
1, 394776, Note_off_c, 7, 55, 127
1, 394776, Note_off_c, 7, 43, 127
1, 394777, Note_on_c, 3, 51, 127
1, 394777, Note_on_c, 0, 72, 127
1, 394918, Note_off_c, 0, 72, 127
1, 394919, Note_on_c, 7, 67, 127
1, 395060, Note_off_c, 7, 67, 127
1, 395060, Note_off_c, 3, 51, 127
1, 395061, Note_on_c, 0, 48, 127
1, 395061, Note_on_c, 8, 68, 127
1, 395202, Note_off_c, 8, 68, 127
1, 395203, Note_on_c, 3, 63, 127
1, 395344, Note_off_c, 3, 63, 127
1, 395344, Note_off_c, 0, 48, 127
1, 395345, Note_on_c, 2, 50, 127
1, 395345, Note_on_c, 5, 65, 127
1, 395487, Note_off_c, 5, 65, 127
1, 395489, Note_on_c, 3, 63, 127
1, 395631, Note_off_c, 3, 63, 127
1, 395631, Note_off_c, 2, 50, 127
1, 395633, Note_on_c, 8, 44, 127
1, 395633, Note_on_c, 5, 65, 127
1, 395777, Note_on_c, 0, 60, 127
1, 395919, Note_off_c, 0, 60, 127
1, 395919, Note_off_c, 8, 44, 127
1, 395921, Note_on_c, 5, 41, 127
1, 395921, Note_on_c, 2, 62, 127
1, 396063, Note_off_c, 2, 62, 127
1, 396065, Note_on_c, 10, 57, 127
1, 396207, Note_off_c, 10, 57, 127
1, 396207, Note_off_c, 5, 41, 127
1, 396209, Note_on_c, 7, 43, 127
1, 396209, Note_on_c, 12, 59, 127
1, 396499, Note_off_c, 12, 59, 127
1, 396499, Note_off_c, 7, 43, 127
1, 396499, Note_off_c, 5, 65, 127
1, 396501, Note_on_c, 8, 44, 127
1, 396501, Note_on_c, 3, 63, 127
1, 396501, Note_on_c, 0, 60, 127
1, 396791, Note_off_c, 0, 60, 127
1, 396791, Note_off_c, 3, 63, 127
1, 396791, Note_off_c, 8, 44, 127
1, 396793, Note_on_c, 3, 39, 127
1, 396793, Note_on_c, 0, 48, 127
1, 396793, Note_on_c, 7, 67, 127
1, 396793, Note_on_c, 0, 72, 127
1, 396793, Note_on_c, 3, 63, 127
1, 397083, Note_off_c, 3, 63, 127
1, 397083, Note_off_c, 7, 67, 127
1, 397083, Note_off_c, 0, 48, 127
1, 397083, Note_off_c, 3, 39, 127
1, 397085, Note_on_c, 5, 41, 127
1, 397085, Note_on_c, 5, 53, 127
1, 397085, Note_on_c, 8, 68, 127
1, 397085, Note_on_c, 2, 62, 127
1, 397224, Note_off_c, 0, 72, 127
1, 397235, Note_off_c, 8, 68, 127
1, 397237, Note_on_c, 2, 74, 127
1, 397385, Note_off_c, 2, 62, 127
1, 397387, Note_off_c, 2, 74, 127
1, 397387, Note_off_c, 5, 53, 127
1, 397387, Note_off_c, 5, 41, 127
1, 397389, Note_on_c, 2, 50, 127
1, 397389, Note_on_c, 7, 43, 127
1, 397389, Note_on_c, 7, 67, 127
1, 397389, Note_on_c, 2, 62, 127
1, 397389, Note_on_c, 12, 71, 127
1, 397926, Note_off_c, 12, 71, 127
1, 397926, Note_off_c, 2, 62, 127
1, 397926, Note_off_c, 7, 67, 127
1, 397926, Note_off_c, 7, 43, 127
1, 397926, Note_off_c, 2, 50, 127
1, 397995, Note_on_c, 0, 60, 127
1, 397995, Note_on_c, 0, 36, 127
1, 397995, Note_on_c, 0, 48, 127
1, 397995, Note_on_c, 0, 72, 127
1, 397995, Note_on_c, 7, 67, 127
1, 397995, Note_on_c, 3, 63, 127
1, 399895, Note_off_c, 3, 63, 127
1, 399895, Note_off_c, 7, 67, 127
1, 399895, Note_off_c, 0, 72, 127
1, 399895, Note_off_c, 0, 48, 127
1, 399895, Note_off_c, 0, 36, 127
1, 399895, Note_off_c, 0, 60, 127
1, 405504, End_track
0, 0, End_of_file
