0, 0, Header, 0, 1, 384
1, 0, Start_track
1, 0, Copyright_t, "(C) John Sankey 1998"
1, 0, Program_c, 0, 6
1, 0, Pitch_bend_c, 0, 8192
1, 0, Program_c, 1, 6
1, 0, Pitch_bend_c, 1, 7792
1, 0, Program_c, 2, 6
1, 0, Pitch_bend_c, 2, 7876
1, 0, Program_c, 3, 6
1, 0, Pitch_bend_c, 3, 7952
1, 0, Program_c, 4, 6
1, 0, Pitch_bend_c, 4, 7792
1, 0, Program_c, 5, 6
1, 0, Pitch_bend_c, 5, 8112
1, 0, Program_c, 6, 6
1, 0, Pitch_bend_c, 6, 7712
1, 0, Program_c, 7, 6
1, 0, Pitch_bend_c, 7, 8037
1, 0, Program_c, 8, 6
1, 0, Pitch_bend_c, 8, 7872
1, 0, Program_c, 10, 6
1, 0, Pitch_bend_c, 10, 7712
1, 0, Program_c, 11, 6
1, 0, Pitch_bend_c, 11, 8032
1, 0, Program_c, 12, 6
1, 0, Pitch_bend_c, 12, 7872
1, 0, Tempo, 500000
1, 40, Note_on_c, 7, 67, 127
1, 40, Note_on_c, 7, 55, 127
1, 40, Note_on_c, 12, 59, 127
1, 40, Note_on_c, 2, 74, 127
1, 342, Note_off_c, 2, 74, 127
1, 342, Note_off_c, 12, 59, 127
1, 342, Note_off_c, 7, 55, 127
1, 342, Note_off_c, 7, 67, 127
1, 352, Note_on_c, 10, 57, 127
1, 352, Note_on_c, 0, 60, 127
1, 352, Note_on_c, 6, 66, 127
1, 352, Note_on_c, 2, 74, 127
1, 654, Note_off_c, 2, 74, 127
1, 654, Note_off_c, 6, 66, 127
1, 654, Note_off_c, 0, 60, 127
1, 654, Note_off_c, 10, 57, 127
1, 656, Note_on_c, 12, 59, 127
1, 656, Note_on_c, 2, 62, 127
1, 656, Note_on_c, 2, 74, 127
1, 656, Note_on_c, 7, 67, 127
1, 958, Note_off_c, 7, 67, 127
1, 958, Note_off_c, 2, 74, 127
1, 958, Note_off_c, 2, 62, 127
1, 958, Note_off_c, 12, 59, 127
1, 960, Note_on_c, 10, 57, 127
1, 960, Note_on_c, 0, 60, 127
1, 960, Note_on_c, 0, 72, 127
1, 960, Note_on_c, 4, 76, 127
1, 1110, Note_off_c, 4, 76, 127
1, 1110, Note_off_c, 0, 72, 127
1, 1112, Note_on_c, 6, 78, 127
1, 1262, Note_off_c, 6, 78, 127
1, 1262, Note_off_c, 0, 60, 127
1, 1262, Note_off_c, 10, 57, 127
1, 1264, Note_on_c, 7, 55, 127
1, 1264, Note_on_c, 2, 62, 127
1, 1264, Note_on_c, 7, 79, 127
1, 1264, Note_on_c, 12, 71, 127
1, 1566, Note_off_c, 7, 79, 127
1, 1568, Note_on_c, 2, 74, 127
1, 1865, Note_off_c, 12, 71, 127
1, 1865, Note_off_c, 2, 62, 127
1, 1865, Note_off_c, 7, 55, 127
1, 1870, Note_off_c, 2, 74, 127
1, 1872, Note_on_c, 12, 71, 127
1, 2174, Note_off_c, 12, 71, 127
1, 2176, Note_on_c, 12, 59, 127
1, 2176, Note_on_c, 2, 62, 127
1, 2176, Note_on_c, 7, 67, 127
1, 2478, Note_off_c, 7, 67, 127
1, 2478, Note_off_c, 2, 62, 127
1, 2478, Note_off_c, 12, 59, 127
1, 2480, Note_on_c, 0, 60, 127
1, 2480, Note_on_c, 4, 76, 127
1, 2782, Note_off_c, 4, 76, 127
1, 2784, Note_on_c, 4, 64, 127
1, 2784, Note_on_c, 7, 67, 127
1, 3081, Note_off_c, 0, 60, 127
1, 3086, Note_off_c, 7, 67, 127
1, 3086, Note_off_c, 4, 64, 127
1, 3088, Note_on_c, 12, 59, 127
1, 3088, Note_on_c, 2, 74, 127
1, 3390, Note_off_c, 2, 74, 127
1, 3392, Note_on_c, 2, 62, 127
1, 3392, Note_on_c, 7, 67, 127
1, 3689, Note_off_c, 12, 59, 127
1, 3694, Note_off_c, 7, 67, 127
1, 3694, Note_off_c, 2, 62, 127
1, 3696, Note_on_c, 10, 57, 127
1, 3696, Note_on_c, 4, 64, 127
1, 3696, Note_on_c, 0, 72, 127
1, 3846, Note_off_c, 0, 72, 127
1, 3848, Note_on_c, 12, 71, 127
1, 3998, Note_off_c, 12, 71, 127
1, 3998, Note_off_c, 10, 57, 127
1, 4000, Note_on_c, 7, 55, 127
1, 4000, Note_on_c, 10, 69, 127
1, 4150, Note_off_c, 10, 69, 127
1, 4152, Note_on_c, 12, 71, 127
1, 4297, Note_off_c, 4, 64, 127
1, 4302, Note_off_c, 12, 71, 127
1, 4302, Note_off_c, 7, 55, 127
1, 4304, Note_on_c, 6, 54, 127
1, 4304, Note_on_c, 10, 57, 127
1, 4304, Note_on_c, 2, 62, 127
1, 4304, Note_on_c, 0, 72, 127
1, 4454, Note_off_c, 0, 72, 127
1, 4456, Note_on_c, 12, 71, 127
1, 4606, Note_off_c, 12, 71, 127
1, 4606, Note_off_c, 6, 54, 127
1, 4608, Note_on_c, 2, 50, 127
1, 4608, Note_on_c, 0, 72, 127
1, 4758, Note_off_c, 0, 72, 127
1, 4760, Note_on_c, 10, 69, 127
1, 4905, Note_off_c, 2, 62, 127
1, 4905, Note_off_c, 10, 57, 127
1, 4910, Note_off_c, 10, 69, 127
1, 4910, Note_off_c, 2, 50, 127
1, 4912, Note_on_c, 7, 55, 127
1, 4912, Note_on_c, 2, 62, 127
1, 4912, Note_on_c, 12, 71, 127
1, 5062, Note_off_c, 12, 71, 127
1, 5064, Note_on_c, 7, 67, 127
1, 5214, Note_off_c, 7, 67, 127
1, 5216, Note_on_c, 12, 71, 127
1, 5366, Note_off_c, 12, 71, 127
1, 5368, Note_on_c, 2, 74, 127
1, 5513, Note_off_c, 2, 62, 127
1, 5513, Note_off_c, 7, 55, 127
1, 5518, Note_off_c, 2, 74, 127
1, 5520, Note_on_c, 4, 76, 127
1, 5670, Note_off_c, 4, 76, 127
1, 5672, Note_on_c, 7, 79, 127
1, 5822, Note_off_c, 7, 79, 127
1, 5824, Note_on_c, 7, 55, 127
1, 5824, Note_on_c, 4, 64, 127
1, 5824, Note_on_c, 12, 59, 127
1, 5824, Note_on_c, 4, 76, 127
1, 5974, Note_off_c, 4, 76, 127
1, 5976, Note_on_c, 12, 71, 127
1, 6126, Note_off_c, 12, 71, 127
1, 6126, Note_off_c, 12, 59, 127
1, 6126, Note_off_c, 4, 64, 127
1, 6126, Note_off_c, 7, 55, 127
1, 6128, Note_on_c, 10, 57, 127
1, 6128, Note_on_c, 4, 64, 127
1, 6128, Note_on_c, 1, 73, 127
1, 6278, Note_off_c, 1, 73, 127
1, 6280, Note_on_c, 10, 69, 127
1, 6430, Note_off_c, 10, 69, 127
1, 6432, Note_on_c, 1, 73, 127
1, 6582, Note_off_c, 1, 73, 127
1, 6584, Note_on_c, 4, 76, 127
1, 6729, Note_off_c, 4, 64, 127
1, 6729, Note_off_c, 10, 57, 127
1, 6734, Note_off_c, 4, 76, 127
1, 6736, Note_on_c, 6, 78, 127
1, 6886, Note_off_c, 6, 78, 127
1, 6888, Note_on_c, 10, 81, 127
1, 7038, Note_off_c, 10, 81, 127
1, 7040, Note_on_c, 1, 61, 127
1, 7040, Note_on_c, 10, 57, 127
1, 7040, Note_on_c, 6, 66, 127
1, 7040, Note_on_c, 6, 78, 127
1, 7190, Note_off_c, 6, 78, 127
1, 7192, Note_on_c, 1, 73, 127
1, 7342, Note_off_c, 1, 73, 127
1, 7342, Note_off_c, 6, 66, 127
1, 7342, Note_off_c, 10, 57, 127
1, 7342, Note_off_c, 1, 61, 127
1, 7344, Note_on_c, 12, 59, 127
1, 7344, Note_on_c, 6, 66, 127
1, 7344, Note_on_c, 2, 74, 127
1, 7494, Note_off_c, 2, 74, 127
1, 7496, Note_on_c, 12, 71, 127
1, 7646, Note_off_c, 12, 71, 127
1, 7648, Note_on_c, 2, 74, 127
1, 7798, Note_off_c, 2, 74, 127
1, 7800, Note_on_c, 6, 78, 127
1, 7945, Note_off_c, 6, 66, 127
1, 7945, Note_off_c, 12, 59, 127
1, 7950, Note_off_c, 6, 78, 127
1, 7952, Note_on_c, 7, 79, 127
1, 8102, Note_off_c, 7, 79, 127
1, 8104, Note_on_c, 12, 83, 127
1, 8254, Note_off_c, 12, 83, 127
1, 8256, Note_on_c, 7, 67, 127
1, 8256, Note_on_c, 12, 59, 127
1, 8256, Note_on_c, 2, 62, 127
1, 8256, Note_on_c, 7, 79, 127
1, 8406, Note_off_c, 7, 79, 127
1, 8408, Note_on_c, 2, 74, 127
1, 8558, Note_off_c, 2, 74, 127
1, 8558, Note_off_c, 2, 62, 127
1, 8558, Note_off_c, 12, 59, 127
1, 8558, Note_off_c, 7, 67, 127
1, 8560, Note_on_c, 1, 61, 127
1, 8560, Note_on_c, 7, 67, 127
1, 8560, Note_on_c, 4, 76, 127
1, 8710, Note_off_c, 4, 76, 127
1, 8712, Note_on_c, 1, 73, 127
1, 8862, Note_off_c, 1, 73, 127
1, 8864, Note_on_c, 4, 76, 127
1, 9014, Note_off_c, 4, 76, 127
1, 9016, Note_on_c, 7, 79, 127
1, 9161, Note_off_c, 7, 67, 127
1, 9161, Note_off_c, 1, 61, 127
1, 9166, Note_off_c, 7, 79, 127
1, 9168, Note_on_c, 10, 81, 127
1, 9318, Note_off_c, 10, 81, 127
1, 9320, Note_on_c, 12, 83, 127
1, 9470, Note_off_c, 12, 83, 127
1, 9472, Note_on_c, 1, 61, 127
1, 9472, Note_on_c, 10, 69, 127
1, 9472, Note_on_c, 4, 64, 127
1, 9472, Note_on_c, 10, 81, 127
1, 9622, Note_off_c, 10, 81, 127
1, 9624, Note_on_c, 4, 76, 127
1, 9774, Note_off_c, 4, 76, 127
1, 9774, Note_off_c, 4, 64, 127
1, 9774, Note_off_c, 10, 69, 127
1, 9774, Note_off_c, 1, 61, 127
1, 9776, Note_on_c, 2, 62, 127
1, 9776, Note_on_c, 6, 78, 127
1, 9926, Note_off_c, 6, 78, 127
1, 9928, Note_on_c, 10, 81, 127
1, 10078, Note_off_c, 10, 81, 127
1, 10078, Note_off_c, 2, 62, 127
1, 10080, Note_on_c, 10, 57, 127
1, 10080, Note_on_c, 7, 79, 127
1, 10230, Note_off_c, 7, 79, 127
1, 10232, Note_on_c, 6, 78, 127
1, 10382, Note_off_c, 6, 78, 127
1, 10382, Note_off_c, 10, 57, 127
1, 10384, Note_on_c, 10, 57, 127
1, 10384, Note_on_c, 4, 76, 127
1, 10534, Note_off_c, 4, 76, 127
1, 10536, Note_on_c, 2, 74, 127
1, 10686, Note_off_c, 2, 74, 127
1, 10686, Note_off_c, 10, 57, 127
1, 10688, Note_on_c, 12, 59, 127
1, 10688, Note_on_c, 1, 73, 127
1, 10838, Note_off_c, 1, 73, 127
1, 10838, Note_off_c, 12, 59, 127
1, 10840, Note_on_c, 1, 61, 127
1, 10840, Note_on_c, 12, 71, 127
1, 10990, Note_off_c, 12, 71, 127
1, 10990, Note_off_c, 1, 61, 127
1, 10992, Note_on_c, 2, 62, 127
1, 10992, Note_on_c, 10, 69, 127
1, 11142, Note_off_c, 10, 69, 127
1, 11144, Note_on_c, 12, 71, 127
1, 11285, Note_off_c, 2, 62, 127
1, 11294, Note_off_c, 12, 71, 127
1, 11296, Note_on_c, 10, 57, 127
1, 11296, Note_on_c, 1, 73, 127
1, 11446, Note_off_c, 1, 73, 127
1, 11448, Note_on_c, 2, 74, 127
1, 11589, Note_off_c, 10, 57, 127
1, 11598, Note_off_c, 2, 74, 127
1, 11600, Note_on_c, 6, 54, 127
1, 11600, Note_on_c, 4, 76, 127
1, 11750, Note_off_c, 4, 76, 127
1, 11752, Note_on_c, 6, 78, 127
1, 11893, Note_off_c, 6, 54, 127
1, 11902, Note_off_c, 6, 78, 127
1, 11904, Note_on_c, 2, 50, 127
1, 11904, Note_on_c, 7, 79, 127
1, 12054, Note_off_c, 7, 79, 127
1, 12056, Note_on_c, 10, 81, 127
1, 12206, Note_off_c, 10, 81, 127
1, 12206, Note_off_c, 2, 50, 127
1, 12208, Note_on_c, 7, 55, 127
1, 12208, Note_on_c, 12, 83, 127
1, 12358, Note_off_c, 7, 55, 127
1, 12360, Note_on_c, 6, 54, 127
1, 12510, Note_off_c, 6, 54, 127
1, 12510, Note_off_c, 12, 83, 127
1, 12512, Note_on_c, 7, 55, 127
1, 12512, Note_on_c, 2, 74, 127
1, 12662, Note_off_c, 7, 55, 127
1, 12664, Note_on_c, 4, 52, 127
1, 12814, Note_off_c, 4, 52, 127
1, 12814, Note_off_c, 2, 74, 127
1, 12816, Note_on_c, 6, 54, 127
1, 12816, Note_on_c, 10, 81, 127
1, 12966, Note_off_c, 6, 54, 127
1, 12968, Note_on_c, 4, 52, 127
1, 13118, Note_off_c, 4, 52, 127
1, 13118, Note_off_c, 10, 81, 127
1, 13120, Note_on_c, 6, 54, 127
1, 13120, Note_on_c, 2, 74, 127
1, 13270, Note_off_c, 6, 54, 127
1, 13272, Note_on_c, 2, 50, 127
1, 13422, Note_off_c, 2, 50, 127
1, 13422, Note_off_c, 2, 74, 127
1, 13424, Note_on_c, 4, 52, 127
1, 13424, Note_on_c, 7, 79, 127
1, 13574, Note_off_c, 7, 79, 127
1, 13574, Note_off_c, 4, 52, 127
1, 13576, Note_on_c, 6, 54, 127
1, 13576, Note_on_c, 6, 78, 127
1, 13726, Note_off_c, 6, 78, 127
1, 13726, Note_off_c, 6, 54, 127
1, 13728, Note_on_c, 7, 55, 127
1, 13728, Note_on_c, 4, 76, 127
1, 13878, Note_off_c, 4, 76, 127
1, 13878, Note_off_c, 7, 55, 127
1, 13880, Note_on_c, 6, 54, 127
1, 13880, Note_on_c, 6, 78, 127
1, 14030, Note_off_c, 6, 78, 127
1, 14030, Note_off_c, 6, 54, 127
1, 14032, Note_on_c, 4, 52, 127
1, 14032, Note_on_c, 7, 79, 127
1, 14182, Note_off_c, 7, 79, 127
1, 14182, Note_off_c, 4, 52, 127
1, 14184, Note_on_c, 2, 50, 127
1, 14184, Note_on_c, 6, 78, 127
1, 14334, Note_off_c, 6, 78, 127
1, 14334, Note_off_c, 2, 50, 127
1, 14336, Note_on_c, 4, 52, 127
1, 14336, Note_on_c, 7, 79, 127
1, 14486, Note_off_c, 7, 79, 127
1, 14486, Note_off_c, 4, 52, 127
1, 14488, Note_on_c, 1, 49, 127
1, 14488, Note_on_c, 4, 76, 127
1, 14638, Note_off_c, 4, 76, 127
1, 14638, Note_off_c, 1, 49, 127
1, 14640, Note_on_c, 2, 50, 127
1, 14640, Note_on_c, 6, 78, 127
1, 14790, Note_off_c, 6, 78, 127
1, 14790, Note_off_c, 2, 50, 127
1, 14792, Note_on_c, 4, 52, 127
1, 14792, Note_on_c, 4, 76, 127
1, 14942, Note_off_c, 4, 76, 127
1, 14942, Note_off_c, 4, 52, 127
1, 14944, Note_on_c, 6, 54, 127
1, 14944, Note_on_c, 2, 74, 127
1, 15094, Note_off_c, 2, 74, 127
1, 15094, Note_off_c, 6, 54, 127
1, 15096, Note_on_c, 4, 52, 127
1, 15096, Note_on_c, 4, 76, 127
1, 15246, Note_off_c, 4, 76, 127
1, 15246, Note_off_c, 4, 52, 127
1, 15248, Note_on_c, 2, 50, 127
1, 15248, Note_on_c, 6, 78, 127
1, 15398, Note_off_c, 6, 78, 127
1, 15398, Note_off_c, 2, 50, 127
1, 15400, Note_on_c, 1, 49, 127
1, 15400, Note_on_c, 4, 76, 127
1, 15550, Note_off_c, 4, 76, 127
1, 15550, Note_off_c, 1, 49, 127
1, 15552, Note_on_c, 12, 47, 127
1, 15552, Note_on_c, 6, 78, 127
1, 15702, Note_off_c, 6, 78, 127
1, 15702, Note_off_c, 12, 47, 127
1, 15704, Note_on_c, 10, 45, 127
1, 15704, Note_on_c, 2, 74, 127
1, 15854, Note_off_c, 2, 74, 127
1, 15854, Note_off_c, 10, 45, 127
1, 15856, Note_on_c, 7, 43, 127
1, 15856, Note_on_c, 4, 76, 127
1, 16006, Note_off_c, 4, 76, 127
1, 16008, Note_on_c, 2, 74, 127
1, 16158, Note_off_c, 2, 74, 127
1, 16158, Note_off_c, 7, 43, 127
1, 16160, Note_on_c, 4, 52, 127
1, 16160, Note_on_c, 1, 73, 127
1, 16310, Note_off_c, 1, 73, 127
1, 16312, Note_on_c, 2, 74, 127
1, 16462, Note_off_c, 2, 74, 127
1, 16462, Note_off_c, 4, 52, 127
1, 16464, Note_on_c, 10, 57, 127
1, 16464, Note_on_c, 4, 76, 127
1, 16614, Note_off_c, 4, 76, 127
1, 16616, Note_on_c, 2, 74, 127
1, 16766, Note_off_c, 2, 74, 127
1, 16766, Note_off_c, 10, 57, 127
1, 16768, Note_on_c, 10, 45, 127
1, 16768, Note_on_c, 7, 55, 127
1, 16768, Note_on_c, 4, 76, 127
1, 16918, Note_off_c, 4, 76, 127
1, 16920, Note_on_c, 1, 73, 127
1, 17070, Note_off_c, 1, 73, 127
1, 17070, Note_off_c, 7, 55, 127
1, 17070, Note_off_c, 10, 45, 127
1, 17072, Note_on_c, 2, 50, 127
1, 17072, Note_on_c, 6, 54, 127
1, 17072, Note_on_c, 2, 74, 127
1, 17222, Note_off_c, 6, 54, 127
1, 17222, Note_off_c, 2, 50, 127
1, 17224, Note_on_c, 4, 52, 127
1, 17374, Note_off_c, 4, 52, 127
1, 17376, Note_on_c, 2, 50, 127
1, 17376, Note_on_c, 2, 62, 127
1, 17526, Note_off_c, 2, 50, 127
1, 17528, Note_on_c, 4, 52, 127
1, 17678, Note_off_c, 4, 52, 127
1, 17680, Note_on_c, 6, 54, 127
1, 17772, Note_off_c, 2, 74, 127
1, 17830, Note_off_c, 6, 54, 127
1, 17832, Note_on_c, 4, 52, 127
1, 17856, Note_off_c, 2, 62, 127
1, 17982, Note_off_c, 4, 52, 127
1, 17984, Note_on_c, 6, 54, 127
1, 17984, Note_on_c, 2, 74, 127
1, 18134, Note_off_c, 6, 54, 127
1, 18144, Note_on_c, 2, 50, 127
1, 18294, Note_off_c, 2, 50, 127
1, 18303, Note_off_c, 2, 74, 127
1, 18304, Note_on_c, 7, 55, 127
1, 18304, Note_on_c, 12, 71, 127
1, 18505, Note_off_c, 12, 71, 127
1, 18507, Note_on_c, 0, 72, 127
1, 18608, Note_on_c, 12, 59, 127
1, 18707, Note_off_c, 0, 72, 127
1, 18709, Note_on_c, 2, 74, 127
1, 18905, Note_off_c, 7, 55, 127
1, 18910, Note_off_c, 2, 74, 127
1, 18910, Note_off_c, 12, 59, 127
1, 18912, Note_on_c, 10, 57, 127
1, 18912, Note_on_c, 0, 72, 127
1, 19113, Note_off_c, 0, 72, 127
1, 19115, Note_on_c, 2, 74, 127
1, 19216, Note_on_c, 0, 60, 127
1, 19315, Note_off_c, 2, 74, 127
1, 19317, Note_on_c, 4, 76, 127
1, 19513, Note_off_c, 10, 57, 127
1, 19518, Note_off_c, 4, 76, 127
1, 19518, Note_off_c, 0, 60, 127
1, 19520, Note_on_c, 12, 59, 127
1, 19520, Note_on_c, 2, 74, 127
1, 19823, Note_on_c, 2, 62, 127
1, 20120, Note_off_c, 12, 59, 127
1, 20123, Note_off_c, 2, 62, 127
1, 20125, Note_off_c, 2, 74, 127
1, 20127, Note_on_c, 7, 67, 127
1, 20430, Note_on_c, 4, 52, 127
1, 20430, Note_on_c, 0, 60, 127
1, 20430, Note_on_c, 7, 79, 127
1, 20569, Note_off_c, 7, 67, 127
1, 20732, Note_off_c, 7, 79, 127
1, 20732, Note_off_c, 4, 52, 127
1, 20734, Note_on_c, 2, 50, 127
1, 20734, Note_on_c, 6, 78, 127
1, 20935, Note_off_c, 6, 78, 127
1, 20937, Note_on_c, 4, 76, 127
1, 21032, Note_off_c, 0, 60, 127
1, 21037, Note_off_c, 2, 50, 127
1, 21039, Note_on_c, 4, 52, 127
1, 21039, Note_on_c, 12, 59, 127
1, 21138, Note_off_c, 4, 76, 127
1, 21140, Note_on_c, 2, 74, 127
1, 21341, Note_off_c, 2, 74, 127
1, 21341, Note_off_c, 12, 59, 127
1, 21341, Note_off_c, 4, 52, 127
1, 21343, Note_on_c, 6, 54, 127
1, 21343, Note_on_c, 10, 57, 127
1, 21343, Note_on_c, 0, 72, 127
1, 21544, Note_off_c, 0, 72, 127
1, 21546, Note_on_c, 12, 71, 127
1, 21645, Note_off_c, 10, 57, 127
1, 21645, Note_off_c, 6, 54, 127
1, 21647, Note_on_c, 2, 50, 127
1, 21647, Note_on_c, 6, 54, 127
1, 21746, Note_off_c, 12, 71, 127
1, 21748, Note_on_c, 0, 72, 127
1, 21949, Note_off_c, 0, 72, 127
1, 21949, Note_off_c, 6, 54, 127
1, 21949, Note_off_c, 2, 50, 127
1, 21951, Note_on_c, 7, 55, 127
1, 21951, Note_on_c, 12, 71, 127
1, 22271, Note_on_c, 2, 74, 127
1, 22271, Note_on_c, 6, 66, 127
1, 22271, Note_on_c, 0, 60, 127
1, 22271, Note_on_c, 10, 57, 127
1, 22281, Note_off_c, 12, 71, 127
1, 22281, Note_off_c, 7, 55, 127
1, 22573, Note_off_c, 10, 57, 127
1, 22573, Note_off_c, 0, 60, 127
1, 22573, Note_off_c, 6, 66, 127
1, 22573, Note_off_c, 2, 74, 127
1, 22575, Note_on_c, 2, 74, 127
1, 22575, Note_on_c, 7, 67, 127
1, 22575, Note_on_c, 2, 62, 127
1, 22575, Note_on_c, 12, 59, 127
1, 22877, Note_off_c, 12, 59, 127
1, 22877, Note_off_c, 2, 62, 127
1, 22877, Note_off_c, 7, 67, 127
1, 22877, Note_off_c, 2, 74, 127
1, 22879, Note_on_c, 4, 76, 127
1, 22879, Note_on_c, 0, 72, 127
1, 22879, Note_on_c, 0, 60, 127
1, 22879, Note_on_c, 10, 57, 127
1, 23029, Note_off_c, 4, 76, 127
1, 23031, Note_on_c, 6, 78, 127
1, 23179, Note_off_c, 0, 72, 127
1, 23181, Note_off_c, 6, 78, 127
1, 23181, Note_off_c, 10, 57, 127
1, 23181, Note_off_c, 0, 60, 127
1, 23183, Note_on_c, 12, 71, 127
1, 23183, Note_on_c, 7, 79, 127
1, 23183, Note_on_c, 2, 62, 127
1, 23183, Note_on_c, 7, 55, 127
1, 23485, Note_off_c, 7, 79, 127
1, 23487, Note_on_c, 2, 74, 127
1, 23784, Note_off_c, 7, 55, 127
1, 23784, Note_off_c, 2, 62, 127
1, 23784, Note_off_c, 12, 71, 127
1, 23789, Note_off_c, 2, 74, 127
1, 23791, Note_on_c, 12, 71, 127
1, 23943, Note_on_c, 7, 43, 127
1, 24093, Note_off_c, 7, 43, 127
1, 24093, Note_off_c, 12, 71, 127
1, 24095, Note_on_c, 7, 67, 127
1, 24095, Note_on_c, 10, 45, 127
1, 24245, Note_off_c, 10, 45, 127
1, 24247, Note_on_c, 12, 47, 127
1, 24397, Note_off_c, 12, 47, 127
1, 24397, Note_off_c, 7, 67, 127
1, 24399, Note_on_c, 4, 76, 127
1, 24399, Note_on_c, 0, 48, 127
1, 24549, Note_off_c, 0, 48, 127
1, 24551, Note_on_c, 12, 47, 127
1, 24701, Note_off_c, 12, 47, 127
1, 24701, Note_off_c, 4, 76, 127
1, 24703, Note_on_c, 7, 67, 127
1, 24703, Note_on_c, 0, 48, 127
1, 24853, Note_off_c, 0, 48, 127
1, 24855, Note_on_c, 10, 45, 127
1, 25005, Note_off_c, 10, 45, 127
1, 25005, Note_off_c, 7, 67, 127
1, 25007, Note_on_c, 2, 74, 127
1, 25007, Note_on_c, 12, 47, 127
1, 25157, Note_off_c, 12, 47, 127
1, 25159, Note_on_c, 10, 45, 127
1, 25309, Note_off_c, 10, 45, 127
1, 25309, Note_off_c, 2, 74, 127
1, 25311, Note_on_c, 7, 67, 127
1, 25311, Note_on_c, 12, 47, 127
1, 25461, Note_off_c, 12, 47, 127
1, 25463, Note_on_c, 7, 43, 127
1, 25613, Note_off_c, 7, 43, 127
1, 25613, Note_off_c, 7, 67, 127
1, 25615, Note_on_c, 0, 72, 127
1, 25615, Note_on_c, 10, 45, 127
1, 25765, Note_off_c, 0, 72, 127
1, 25767, Note_on_c, 12, 71, 127
1, 25917, Note_off_c, 12, 71, 127
1, 25917, Note_off_c, 10, 45, 127
1, 25919, Note_on_c, 10, 69, 127
1, 25919, Note_on_c, 0, 48, 127
1, 26069, Note_off_c, 10, 69, 127
1, 26071, Note_on_c, 12, 71, 127
1, 26221, Note_off_c, 12, 71, 127
1, 26221, Note_off_c, 0, 48, 127
1, 26223, Note_on_c, 0, 72, 127
1, 26223, Note_on_c, 2, 50, 127
1, 26373, Note_off_c, 0, 72, 127
1, 26375, Note_on_c, 12, 71, 127
1, 26525, Note_off_c, 12, 71, 127
1, 26525, Note_off_c, 2, 50, 127
1, 26527, Note_on_c, 0, 72, 127
1, 26527, Note_on_c, 2, 38, 127
1, 26677, Note_off_c, 0, 72, 127
1, 26679, Note_on_c, 10, 69, 127
1, 26829, Note_off_c, 10, 69, 127
1, 26829, Note_off_c, 2, 38, 127
1, 26831, Note_on_c, 12, 71, 127
1, 26831, Note_on_c, 7, 43, 127
1, 26981, Note_off_c, 7, 43, 127
1, 26983, Note_on_c, 2, 38, 127
1, 27133, Note_off_c, 2, 38, 127
1, 27133, Note_off_c, 12, 71, 127
1, 27135, Note_on_c, 7, 67, 127
1, 27135, Note_on_c, 7, 43, 127
1, 27285, Note_off_c, 7, 43, 127
1, 27287, Note_on_c, 12, 47, 127
1, 27437, Note_off_c, 12, 47, 127
1, 27439, Note_on_c, 2, 50, 127
1, 27578, Note_off_c, 7, 67, 127
1, 27589, Note_off_c, 2, 50, 127
1, 27591, Note_on_c, 7, 55, 127
1, 27741, Note_off_c, 7, 55, 127
1, 27743, Note_on_c, 2, 74, 127
1, 27743, Note_on_c, 2, 50, 127
1, 27893, Note_off_c, 2, 50, 127
1, 27895, Note_on_c, 12, 47, 127
1, 28045, Note_off_c, 12, 47, 127
1, 28045, Note_off_c, 2, 74, 127
1, 28055, Note_on_c, 12, 71, 127
1, 28055, Note_on_c, 7, 43, 127
1, 28256, Note_off_c, 12, 71, 127
1, 28258, Note_on_c, 0, 72, 127
1, 28459, Note_off_c, 0, 72, 127
1, 28461, Note_on_c, 2, 74, 127
1, 28657, Note_off_c, 7, 43, 127
1, 28662, Note_off_c, 2, 74, 127
1, 28664, Note_on_c, 0, 72, 127
1, 28865, Note_off_c, 0, 72, 127
1, 28867, Note_on_c, 2, 74, 127
1, 29068, Note_off_c, 2, 74, 127
1, 29070, Note_on_c, 4, 76, 127
1, 29070, Note_on_c, 10, 45, 127
1, 29271, Note_off_c, 10, 45, 127
1, 29271, Note_off_c, 4, 76, 127
1, 29273, Note_on_c, 2, 74, 127
1, 29273, Note_on_c, 12, 47, 127
1, 29474, Note_off_c, 12, 47, 127
1, 29476, Note_on_c, 0, 48, 127
1, 29677, Note_off_c, 0, 48, 127
1, 29679, Note_on_c, 2, 50, 127
1, 29880, Note_off_c, 2, 50, 127
1, 29880, Note_off_c, 2, 74, 127
1, 29882, Note_on_c, 7, 67, 127
1, 29882, Note_on_c, 0, 48, 127
1, 30083, Note_off_c, 0, 48, 127
1, 30085, Note_on_c, 2, 50, 127
1, 30286, Note_off_c, 2, 50, 127
1, 30286, Note_off_c, 7, 67, 127
1, 30288, Note_on_c, 7, 79, 127
1, 30288, Note_on_c, 4, 52, 127
1, 30489, Note_off_c, 4, 52, 127
1, 30491, Note_off_c, 7, 79, 127
1, 30491, Note_on_c, 6, 78, 127
1, 30491, Note_on_c, 2, 50, 127
1, 30692, Note_off_c, 2, 50, 127
1, 30692, Note_off_c, 6, 78, 127
1, 30694, Note_on_c, 4, 76, 127
1, 30694, Note_on_c, 4, 52, 127
1, 30895, Note_off_c, 4, 52, 127
1, 30895, Note_off_c, 4, 76, 127
1, 30897, Note_on_c, 2, 74, 127
1, 30897, Note_on_c, 6, 54, 127
1, 31098, Note_off_c, 6, 54, 127
1, 31098, Note_off_c, 2, 74, 127
1, 31100, Note_on_c, 0, 72, 127
1, 31100, Note_on_c, 6, 54, 127
1, 31301, Note_off_c, 6, 54, 127
1, 31301, Note_off_c, 0, 72, 127
1, 31303, Note_on_c, 12, 71, 127
1, 31303, Note_on_c, 7, 55, 127
1, 31504, Note_off_c, 7, 55, 127
1, 31504, Note_off_c, 12, 71, 127
1, 31506, Note_on_c, 0, 72, 127
1, 31506, Note_on_c, 10, 57, 127
1, 31695, Note_off_c, 10, 57, 127
1, 31706, Note_off_c, 0, 72, 127
1, 31708, Note_on_c, 12, 71, 127
1, 32091, Note_on_c, 7, 55, 127
1, 32091, Note_on_c, 7, 67, 127
1, 32091, Note_on_c, 2, 62, 127
1, 32308, Note_off_c, 12, 71, 127
1, 32393, Note_off_c, 2, 62, 127
1, 32393, Note_off_c, 7, 67, 127
1, 32395, Note_on_c, 7, 43, 127
1, 32395, Note_on_c, 2, 62, 127
1, 32395, Note_on_c, 12, 59, 127
1, 32692, Note_off_c, 7, 55, 127
1, 32697, Note_off_c, 12, 59, 127
1, 32697, Note_off_c, 2, 62, 127
1, 32715, Note_on_c, 12, 83, 127
1, 32996, Note_off_c, 7, 43, 127
1, 33017, Note_off_c, 12, 83, 127
1, 33019, Note_on_c, 12, 83, 127
1, 33220, Note_off_c, 12, 83, 127
1, 33222, Note_on_c, 10, 81, 127
1, 33423, Note_off_c, 10, 81, 127
1, 33425, Note_on_c, 7, 79, 127
1, 33626, Note_off_c, 7, 79, 127
1, 33628, Note_on_c, 7, 79, 127
1, 33628, Note_on_c, 7, 67, 127
1, 33628, Note_on_c, 2, 62, 127
1, 33628, Note_on_c, 12, 59, 127
1, 33829, Note_off_c, 7, 79, 127
1, 33831, Note_on_c, 6, 78, 127
1, 34032, Note_off_c, 6, 78, 127
1, 34034, Note_on_c, 4, 76, 127
1, 34230, Note_off_c, 12, 59, 127
1, 34230, Note_off_c, 2, 62, 127
1, 34230, Note_off_c, 7, 67, 127
1, 34235, Note_off_c, 4, 76, 127
1, 34237, Note_on_c, 4, 76, 127
1, 34588, Note_on_c, 0, 60, 127
1, 34588, Note_on_c, 7, 67, 127
1, 34588, Note_on_c, 0, 72, 127
1, 34837, Note_off_c, 4, 76, 127
1, 34890, Note_off_c, 0, 72, 127
1, 34890, Note_off_c, 7, 67, 127
1, 34892, Note_on_c, 0, 48, 127
1, 34892, Note_on_c, 4, 64, 127
1, 34892, Note_on_c, 7, 67, 127
1, 35189, Note_off_c, 0, 60, 127
1, 35194, Note_off_c, 7, 67, 127
1, 35194, Note_off_c, 4, 64, 127
1, 35212, Note_on_c, 10, 81, 127
1, 35493, Note_off_c, 0, 48, 127
1, 35514, Note_off_c, 10, 81, 127
1, 35516, Note_on_c, 10, 81, 127
1, 35717, Note_off_c, 10, 81, 127
1, 35719, Note_on_c, 7, 79, 127
1, 35920, Note_off_c, 7, 79, 127
1, 35922, Note_on_c, 6, 78, 127
1, 36123, Note_off_c, 6, 78, 127
1, 36125, Note_on_c, 6, 78, 127
1, 36125, Note_on_c, 6, 66, 127
1, 36125, Note_on_c, 1, 61, 127
1, 36125, Note_on_c, 10, 57, 127
1, 36326, Note_off_c, 6, 78, 127
1, 36328, Note_on_c, 4, 76, 127
1, 36529, Note_off_c, 4, 76, 127
1, 36531, Note_on_c, 3, 75, 127
1, 36727, Note_off_c, 10, 57, 127
1, 36727, Note_off_c, 1, 61, 127
1, 36727, Note_off_c, 6, 66, 127
1, 36732, Note_off_c, 3, 75, 127
1, 36734, Note_on_c, 3, 75, 127
1, 37085, Note_on_c, 12, 59, 127
1, 37085, Note_on_c, 6, 66, 127
1, 37085, Note_on_c, 12, 71, 127
1, 37334, Note_off_c, 3, 75, 127
1, 37387, Note_off_c, 12, 71, 127
1, 37387, Note_off_c, 6, 66, 127
1, 37387, Note_off_c, 12, 59, 127
1, 37389, Note_on_c, 12, 47, 127
1, 37389, Note_on_c, 3, 63, 127
1, 37389, Note_on_c, 6, 66, 127
1, 37691, Note_off_c, 6, 66, 127
1, 37691, Note_off_c, 3, 63, 127
1, 37691, Note_off_c, 12, 47, 127
1, 37709, Note_on_c, 12, 71, 127
1, 37709, Note_on_c, 12, 59, 127
1, 38029, Note_off_c, 12, 59, 127
1, 38029, Note_off_c, 12, 71, 127
1, 38029, Note_on_c, 7, 55, 127
1, 38029, Note_on_c, 4, 76, 127
1, 38230, Note_off_c, 4, 76, 127
1, 38232, Note_on_c, 6, 78, 127
1, 38331, Note_off_c, 7, 55, 127
1, 38333, Note_on_c, 12, 59, 127
1, 38432, Note_off_c, 6, 78, 127
1, 38434, Note_on_c, 7, 79, 127
1, 38635, Note_off_c, 7, 79, 127
1, 38635, Note_off_c, 12, 59, 127
1, 38637, Note_on_c, 6, 54, 127
1, 38637, Note_on_c, 6, 78, 127
1, 38838, Note_off_c, 6, 78, 127
1, 38840, Note_on_c, 7, 79, 127
1, 38939, Note_off_c, 6, 54, 127
1, 38941, Note_on_c, 12, 59, 127
1, 39040, Note_off_c, 7, 79, 127
1, 39042, Note_on_c, 10, 81, 127
1, 39243, Note_off_c, 10, 81, 127
1, 39243, Note_off_c, 12, 59, 127
1, 39245, Note_on_c, 4, 52, 127
1, 39245, Note_on_c, 7, 79, 127
1, 39446, Note_off_c, 7, 79, 127
1, 39446, Note_off_c, 4, 52, 127
1, 39448, Note_on_c, 6, 54, 127
1, 39448, Note_on_c, 4, 76, 127
1, 39649, Note_off_c, 4, 76, 127
1, 39649, Note_off_c, 6, 54, 127
1, 39651, Note_on_c, 7, 55, 127
1, 39651, Note_on_c, 12, 71, 127
1, 39852, Note_off_c, 12, 71, 127
1, 39852, Note_off_c, 7, 55, 127
1, 39854, Note_on_c, 6, 54, 127
1, 39854, Note_on_c, 6, 78, 127
1, 40055, Note_off_c, 6, 78, 127
1, 40055, Note_off_c, 6, 54, 127
1, 40057, Note_on_c, 7, 55, 127
1, 40057, Note_on_c, 3, 75, 127
1, 40258, Note_off_c, 3, 75, 127
1, 40258, Note_off_c, 7, 55, 127
1, 40260, Note_on_c, 10, 57, 127
1, 40260, Note_on_c, 12, 71, 127
1, 40461, Note_off_c, 12, 71, 127
1, 40461, Note_off_c, 10, 57, 127
1, 40471, Note_on_c, 7, 55, 127
1, 40471, Note_on_c, 4, 76, 127
1, 40672, Note_off_c, 4, 76, 127
1, 40674, Note_on_c, 6, 78, 127
1, 40773, Note_off_c, 7, 55, 127
1, 40775, Note_on_c, 12, 59, 127
1, 40874, Note_off_c, 6, 78, 127
1, 40876, Note_on_c, 7, 79, 127
1, 41077, Note_off_c, 7, 79, 127
1, 41077, Note_off_c, 12, 59, 127
1, 41079, Note_on_c, 3, 51, 127
1, 41079, Note_on_c, 6, 78, 127
1, 41280, Note_off_c, 6, 78, 127
1, 41282, Note_on_c, 7, 79, 127
1, 41381, Note_off_c, 3, 51, 127
1, 41383, Note_on_c, 12, 59, 127
1, 41482, Note_off_c, 7, 79, 127
1, 41484, Note_on_c, 10, 81, 127
1, 41685, Note_off_c, 10, 81, 127
1, 41685, Note_off_c, 12, 59, 127
1, 41687, Note_on_c, 4, 52, 127
1, 41687, Note_on_c, 7, 79, 127
1, 41888, Note_off_c, 7, 79, 127
1, 41888, Note_off_c, 4, 52, 127
1, 41890, Note_on_c, 6, 54, 127
1, 41890, Note_on_c, 6, 78, 127
1, 42091, Note_off_c, 6, 78, 127
1, 42091, Note_off_c, 6, 54, 127
1, 42093, Note_on_c, 7, 55, 127
1, 42093, Note_on_c, 4, 76, 127
1, 42294, Note_off_c, 4, 76, 127
1, 42294, Note_off_c, 7, 55, 127
1, 42296, Note_on_c, 6, 54, 127
1, 42296, Note_on_c, 10, 81, 127
1, 42497, Note_off_c, 10, 81, 127
1, 42497, Note_off_c, 6, 54, 127
1, 42499, Note_on_c, 7, 55, 127
1, 42499, Note_on_c, 7, 79, 127
1, 42700, Note_off_c, 7, 79, 127
1, 42700, Note_off_c, 7, 55, 127
1, 42702, Note_on_c, 10, 57, 127
1, 42702, Note_on_c, 6, 78, 127
1, 42903, Note_off_c, 6, 78, 127
1, 42903, Note_off_c, 10, 57, 127
1, 42913, Note_on_c, 7, 55, 127
1, 42913, Note_on_c, 12, 83, 127
1, 43114, Note_off_c, 12, 83, 127
1, 43116, Note_on_c, 10, 81, 127
1, 43317, Note_off_c, 10, 81, 127
1, 43317, Note_off_c, 7, 55, 127
1, 43319, Note_on_c, 7, 79, 127
1, 43319, Note_on_c, 10, 57, 127
1, 43520, Note_off_c, 7, 79, 127
1, 43522, Note_off_c, 10, 57, 127
1, 43522, Note_on_c, 12, 59, 127
1, 43522, Note_on_c, 7, 79, 127
1, 43577, Note_on_c, 6, 78, 127
1, 43585, Note_off_c, 7, 79, 127
1, 43632, Note_on_c, 7, 79, 127
1, 43640, Note_off_c, 6, 78, 127
1, 43687, Note_on_c, 6, 78, 127
1, 43695, Note_off_c, 7, 79, 127
1, 43824, Note_on_c, 12, 47, 127
1, 43903, Note_off_c, 6, 78, 127
1, 43925, Note_on_c, 4, 76, 127
1, 44121, Note_off_c, 12, 59, 127
1, 44126, Note_off_c, 4, 76, 127
1, 44126, Note_off_c, 12, 47, 127
1, 44128, Note_on_c, 4, 52, 127
1, 44128, Note_on_c, 4, 76, 127
1, 44448, Note_on_c, 3, 63, 127
1, 44448, Note_on_c, 12, 71, 127
1, 44448, Note_on_c, 10, 57, 127
1, 44448, Note_on_c, 6, 54, 127
1, 44458, Note_off_c, 4, 76, 127
1, 44458, Note_off_c, 4, 52, 127
1, 44750, Note_off_c, 6, 54, 127
1, 44750, Note_off_c, 10, 57, 127
1, 44750, Note_off_c, 12, 71, 127
1, 44750, Note_off_c, 3, 63, 127
1, 44752, Note_on_c, 12, 71, 127
1, 44752, Note_on_c, 4, 64, 127
1, 44752, Note_on_c, 12, 59, 127
1, 44752, Note_on_c, 7, 55, 127
1, 45054, Note_off_c, 7, 55, 127
1, 45054, Note_off_c, 12, 59, 127
1, 45054, Note_off_c, 4, 64, 127
1, 45054, Note_off_c, 12, 71, 127
1, 45056, Note_on_c, 10, 69, 127
1, 45056, Note_on_c, 1, 73, 127
1, 45056, Note_on_c, 6, 54, 127
1, 45056, Note_on_c, 10, 57, 127
1, 45206, Note_off_c, 1, 73, 127
1, 45206, Note_off_c, 10, 69, 127
1, 45208, Note_on_c, 3, 75, 127
1, 45358, Note_off_c, 3, 75, 127
1, 45358, Note_off_c, 10, 57, 127
1, 45358, Note_off_c, 6, 54, 127
1, 45360, Note_on_c, 4, 76, 127
1, 45360, Note_on_c, 7, 67, 127
1, 45360, Note_on_c, 12, 59, 127
1, 45360, Note_on_c, 4, 52, 127
1, 45662, Note_off_c, 7, 67, 127
1, 45662, Note_off_c, 4, 76, 127
1, 45664, Note_on_c, 12, 71, 127
1, 45966, Note_off_c, 12, 71, 127
1, 45968, Note_on_c, 7, 67, 127
1, 46118, Note_off_c, 4, 52, 127
1, 46118, Note_off_c, 12, 59, 127
1, 46120, Note_on_c, 4, 52, 127
1, 46270, Note_off_c, 4, 52, 127
1, 46270, Note_off_c, 7, 67, 127
1, 46272, Note_on_c, 4, 64, 127
1, 46272, Note_on_c, 6, 54, 127
1, 46422, Note_off_c, 6, 54, 127
1, 46424, Note_on_c, 7, 55, 127
1, 46574, Note_off_c, 7, 55, 127
1, 46574, Note_off_c, 4, 64, 127
1, 46576, Note_on_c, 0, 72, 127
1, 46576, Note_on_c, 10, 57, 127
1, 46726, Note_off_c, 10, 57, 127
1, 46728, Note_on_c, 7, 55, 127
1, 46878, Note_off_c, 7, 55, 127
1, 46878, Note_off_c, 0, 72, 127
1, 46880, Note_on_c, 4, 64, 127
1, 46880, Note_on_c, 10, 57, 127
1, 47030, Note_off_c, 10, 57, 127
1, 47032, Note_on_c, 6, 54, 127
1, 47182, Note_off_c, 6, 54, 127
1, 47182, Note_off_c, 4, 64, 127
1, 47184, Note_on_c, 12, 71, 127
1, 47184, Note_on_c, 7, 55, 127
1, 47334, Note_off_c, 7, 55, 127
1, 47336, Note_on_c, 6, 54, 127
1, 47486, Note_off_c, 6, 54, 127
1, 47486, Note_off_c, 12, 71, 127
1, 47488, Note_on_c, 4, 64, 127
1, 47488, Note_on_c, 7, 55, 127
1, 47638, Note_off_c, 7, 55, 127
1, 47640, Note_on_c, 4, 52, 127
1, 47790, Note_off_c, 4, 52, 127
1, 47790, Note_off_c, 4, 64, 127
1, 47792, Note_on_c, 10, 69, 127
1, 47792, Note_on_c, 6, 54, 127
1, 47942, Note_off_c, 10, 69, 127
1, 47944, Note_on_c, 7, 67, 127
1, 48085, Note_off_c, 6, 54, 127
1, 48094, Note_off_c, 7, 67, 127
1, 48096, Note_on_c, 6, 66, 127
1, 48096, Note_on_c, 4, 52, 127
1, 48246, Note_off_c, 6, 66, 127
1, 48248, Note_on_c, 7, 67, 127
1, 48389, Note_off_c, 4, 52, 127
1, 48398, Note_off_c, 7, 67, 127
1, 48400, Note_on_c, 10, 69, 127
1, 48400, Note_on_c, 3, 51, 127
1, 48550, Note_off_c, 10, 69, 127
1, 48552, Note_on_c, 7, 67, 127
1, 48693, Note_off_c, 3, 51, 127
1, 48702, Note_off_c, 7, 67, 127
1, 48704, Note_on_c, 10, 69, 127
1, 48704, Note_on_c, 12, 47, 127
1, 48854, Note_off_c, 10, 69, 127
1, 48856, Note_on_c, 6, 66, 127
1, 49006, Note_off_c, 6, 66, 127
1, 49006, Note_off_c, 12, 47, 127
1, 49008, Note_on_c, 7, 67, 127
1, 49008, Note_on_c, 4, 52, 127
1, 49158, Note_off_c, 4, 52, 127
1, 49160, Note_on_c, 4, 40, 127
1, 49310, Note_off_c, 4, 40, 127
1, 49310, Note_off_c, 7, 67, 127
1, 49312, Note_on_c, 4, 64, 127
1, 49312, Note_on_c, 7, 43, 127
1, 49462, Note_off_c, 7, 43, 127
1, 49464, Note_on_c, 12, 47, 127
1, 49614, Note_off_c, 12, 47, 127
1, 49616, Note_on_c, 4, 52, 127
1, 49755, Note_off_c, 4, 64, 127
1, 49766, Note_off_c, 4, 52, 127
1, 49768, Note_on_c, 7, 55, 127
1, 49918, Note_off_c, 7, 55, 127
1, 49920, Note_on_c, 7, 79, 127
1, 49920, Note_on_c, 4, 52, 127
1, 50070, Note_off_c, 4, 52, 127
1, 50072, Note_on_c, 12, 47, 127
1, 50222, Note_off_c, 12, 47, 127
1, 50222, Note_off_c, 7, 79, 127
1, 50224, Note_on_c, 7, 79, 127
1, 50224, Note_on_c, 4, 40, 127
1, 50425, Note_off_c, 7, 79, 127
1, 50427, Note_on_c, 6, 78, 127
1, 50628, Note_off_c, 6, 78, 127
1, 50630, Note_on_c, 4, 76, 127
1, 50763, Note_off_c, 4, 40, 127
1, 50831, Note_off_c, 4, 76, 127
1, 50833, Note_on_c, 4, 76, 127
1, 50833, Note_on_c, 4, 64, 127
1, 50833, Note_on_c, 12, 59, 127
1, 50833, Note_on_c, 7, 55, 127
1, 51034, Note_off_c, 4, 76, 127
1, 51036, Note_on_c, 6, 78, 127
1, 51237, Note_off_c, 6, 78, 127
1, 51239, Note_on_c, 7, 79, 127
1, 51435, Note_off_c, 7, 55, 127
1, 51435, Note_off_c, 12, 59, 127
1, 51435, Note_off_c, 4, 64, 127
1, 51440, Note_off_c, 7, 79, 127
1, 51442, Note_on_c, 1, 73, 127
1, 51785, Note_on_c, 4, 64, 127
1, 51785, Note_on_c, 10, 69, 127
1, 51785, Note_on_c, 10, 57, 127
1, 52042, Note_off_c, 1, 73, 127
1, 52087, Note_off_c, 10, 57, 127
1, 52087, Note_off_c, 10, 69, 127
1, 52087, Note_off_c, 4, 64, 127
1, 52089, Note_on_c, 1, 61, 127
1, 52089, Note_on_c, 4, 64, 127
1, 52089, Note_on_c, 10, 45, 127
1, 52391, Note_off_c, 4, 64, 127
1, 52391, Note_off_c, 1, 61, 127
1, 52409, Note_on_c, 10, 81, 127
1, 52627, Note_off_c, 10, 45, 127
1, 52711, Note_off_c, 10, 81, 127
1, 52713, Note_on_c, 6, 42, 127
1, 52713, Note_on_c, 10, 81, 127
1, 52914, Note_off_c, 10, 81, 127
1, 52916, Note_on_c, 7, 79, 127
1, 53117, Note_off_c, 7, 79, 127
1, 53119, Note_on_c, 6, 78, 127
1, 53320, Note_off_c, 6, 78, 127
1, 53320, Note_off_c, 6, 42, 127
1, 53322, Note_on_c, 10, 57, 127
1, 53322, Note_on_c, 1, 61, 127
1, 53322, Note_on_c, 6, 66, 127
1, 53322, Note_on_c, 6, 78, 127
1, 53523, Note_off_c, 6, 78, 127
1, 53525, Note_on_c, 7, 79, 127
1, 53726, Note_off_c, 7, 79, 127
1, 53728, Note_on_c, 10, 81, 127
1, 53924, Note_off_c, 6, 66, 127
1, 53924, Note_off_c, 1, 61, 127
1, 53924, Note_off_c, 10, 57, 127
1, 53929, Note_off_c, 10, 81, 127
1, 53931, Note_on_c, 2, 74, 127
1, 54274, Note_on_c, 12, 59, 127
1, 54274, Note_on_c, 6, 66, 127
1, 54274, Note_on_c, 12, 71, 127
1, 54531, Note_off_c, 2, 74, 127
1, 54576, Note_off_c, 12, 71, 127
1, 54576, Note_off_c, 6, 66, 127
1, 54576, Note_off_c, 12, 59, 127
1, 54578, Note_on_c, 12, 47, 127
1, 54578, Note_on_c, 2, 62, 127
1, 54578, Note_on_c, 6, 66, 127
1, 54880, Note_off_c, 6, 66, 127
1, 54880, Note_off_c, 2, 62, 127
1, 54898, Note_on_c, 12, 83, 127
1, 55131, Note_off_c, 12, 47, 127
1, 55199, Note_off_c, 12, 83, 127
1, 55201, Note_on_c, 12, 83, 127
1, 55201, Note_on_c, 7, 43, 127
1, 55402, Note_off_c, 12, 83, 127
1, 55404, Note_on_c, 10, 81, 127
1, 55605, Note_off_c, 10, 81, 127
1, 55607, Note_on_c, 7, 79, 127
1, 55808, Note_off_c, 7, 79, 127
1, 55808, Note_off_c, 7, 43, 127
1, 55810, Note_on_c, 7, 79, 127
1, 55810, Note_on_c, 7, 67, 127
1, 55810, Note_on_c, 2, 62, 127
1, 55810, Note_on_c, 12, 59, 127
1, 56011, Note_off_c, 7, 79, 127
1, 56013, Note_on_c, 10, 81, 127
1, 56214, Note_off_c, 10, 81, 127
1, 56216, Note_on_c, 12, 83, 127
1, 56417, Note_off_c, 12, 83, 127
1, 56417, Note_off_c, 12, 59, 127
1, 56417, Note_off_c, 2, 62, 127
1, 56417, Note_off_c, 7, 67, 127
1, 56419, Note_on_c, 4, 76, 127
1, 56419, Note_on_c, 1, 49, 127
1, 56620, Note_off_c, 4, 76, 127
1, 56622, Note_on_c, 2, 74, 127
1, 56823, Note_off_c, 2, 74, 127
1, 56825, Note_on_c, 1, 73, 127
1, 57026, Note_off_c, 1, 73, 127
1, 57026, Note_off_c, 1, 49, 127
1, 57028, Note_on_c, 1, 73, 127
1, 57028, Note_on_c, 7, 67, 127
1, 57028, Note_on_c, 4, 64, 127
1, 57229, Note_off_c, 1, 73, 127
1, 57231, Note_on_c, 2, 74, 127
1, 57432, Note_off_c, 2, 74, 127
1, 57434, Note_on_c, 4, 76, 127
1, 57630, Note_off_c, 4, 64, 127
1, 57630, Note_off_c, 7, 67, 127
1, 57635, Note_off_c, 4, 76, 127
1, 57637, Note_on_c, 11, 70, 127
1, 57964, Note_on_c, 6, 54, 127
1, 57964, Note_on_c, 6, 66, 127
1, 57964, Note_on_c, 1, 61, 127
1, 58237, Note_off_c, 11, 70, 127
1, 58278, Note_off_c, 1, 61, 127
1, 58278, Note_off_c, 6, 66, 127
1, 58278, Note_off_c, 6, 54, 127
1, 58300, Note_on_c, 1, 61, 127
1, 58300, Note_on_c, 11, 58, 127
1, 58300, Note_on_c, 6, 42, 127
1, 58640, Note_off_c, 6, 42, 127
1, 58640, Note_off_c, 11, 58, 127
1, 58640, Note_off_c, 1, 61, 127
1, 58658, Note_on_c, 3, 63, 127
1, 58658, Note_on_c, 6, 78, 127
1, 58973, Note_off_c, 3, 63, 127
1, 58978, Note_off_c, 6, 78, 127
1, 58980, Note_on_c, 4, 52, 127
1, 58980, Note_on_c, 7, 79, 127
1, 59088, Note_off_c, 7, 79, 127
1, 59090, Note_on_c, 10, 81, 127
1, 59198, Note_off_c, 10, 81, 127
1, 59200, Note_on_c, 7, 79, 127
1, 59308, Note_off_c, 7, 79, 127
1, 59308, Note_off_c, 4, 52, 127
1, 59310, Note_on_c, 1, 61, 127
1, 59310, Note_on_c, 6, 78, 127
1, 59418, Note_off_c, 6, 78, 127
1, 59420, Note_on_c, 7, 79, 127
1, 59528, Note_off_c, 7, 79, 127
1, 59530, Note_on_c, 4, 76, 127
1, 59638, Note_off_c, 4, 76, 127
1, 59638, Note_off_c, 1, 61, 127
1, 59640, Note_on_c, 2, 50, 127
1, 59640, Note_on_c, 6, 78, 127
1, 59748, Note_off_c, 6, 78, 127
1, 59750, Note_on_c, 7, 79, 127
1, 59858, Note_off_c, 7, 79, 127
1, 59860, Note_on_c, 6, 78, 127
1, 59968, Note_off_c, 6, 78, 127
1, 59968, Note_off_c, 2, 50, 127
1, 59970, Note_on_c, 12, 59, 127
1, 59970, Note_on_c, 4, 76, 127
1, 60078, Note_off_c, 4, 76, 127
1, 60080, Note_on_c, 6, 78, 127
1, 60188, Note_off_c, 6, 78, 127
1, 60190, Note_on_c, 2, 74, 127
1, 60298, Note_off_c, 2, 74, 127
1, 60298, Note_off_c, 12, 59, 127
1, 60300, Note_on_c, 1, 49, 127
1, 60300, Note_on_c, 4, 76, 127
1, 60408, Note_off_c, 4, 76, 127
1, 60410, Note_on_c, 6, 78, 127
1, 60518, Note_off_c, 6, 78, 127
1, 60520, Note_on_c, 4, 76, 127
1, 60628, Note_off_c, 4, 76, 127
1, 60628, Note_off_c, 1, 49, 127
1, 60630, Note_on_c, 11, 58, 127
1, 60630, Note_on_c, 2, 74, 127
1, 60738, Note_off_c, 2, 74, 127
1, 60740, Note_on_c, 4, 76, 127
1, 60848, Note_off_c, 4, 76, 127
1, 60850, Note_on_c, 1, 73, 127
1, 60958, Note_off_c, 1, 73, 127
1, 60958, Note_off_c, 11, 58, 127
1, 60960, Note_on_c, 12, 47, 127
1, 60960, Note_on_c, 2, 74, 127
1, 61068, Note_off_c, 2, 74, 127
1, 61070, Note_on_c, 4, 76, 127
1, 61178, Note_off_c, 4, 76, 127
1, 61180, Note_on_c, 2, 74, 127
1, 61288, Note_off_c, 2, 74, 127
1, 61288, Note_off_c, 12, 47, 127
1, 61290, Note_on_c, 2, 62, 127
1, 61290, Note_on_c, 1, 73, 127
1, 61398, Note_off_c, 1, 73, 127
1, 61400, Note_on_c, 2, 74, 127
1, 61508, Note_off_c, 2, 74, 127
1, 61510, Note_on_c, 12, 71, 127
1, 61618, Note_off_c, 12, 71, 127
1, 61618, Note_off_c, 2, 62, 127
1, 61628, Note_on_c, 4, 52, 127
1, 61628, Note_on_c, 0, 72, 127
1, 61955, Note_off_c, 4, 52, 127
1, 61957, Note_on_c, 4, 64, 127
1, 62284, Note_off_c, 4, 64, 127
1, 62286, Note_on_c, 6, 54, 127
1, 62394, Note_off_c, 0, 72, 127
1, 62396, Note_on_c, 2, 74, 127
1, 62504, Note_off_c, 2, 74, 127
1, 62506, Note_on_c, 12, 71, 127
1, 62614, Note_off_c, 12, 71, 127
1, 62614, Note_off_c, 6, 54, 127
1, 62616, Note_on_c, 4, 64, 127
1, 62616, Note_on_c, 0, 72, 127
1, 62724, Note_off_c, 0, 72, 127
1, 62726, Note_on_c, 2, 74, 127
1, 62834, Note_off_c, 2, 74, 127
1, 62836, Note_on_c, 12, 71, 127
1, 62944, Note_off_c, 12, 71, 127
1, 62944, Note_off_c, 4, 64, 127
1, 62946, Note_on_c, 7, 55, 127
1, 62946, Note_on_c, 0, 72, 127
1, 63273, Note_off_c, 7, 55, 127
1, 63275, Note_on_c, 4, 64, 127
1, 63602, Note_off_c, 4, 64, 127
1, 63604, Note_on_c, 4, 52, 127
1, 63712, Note_off_c, 0, 72, 127
1, 63714, Note_on_c, 2, 74, 127
1, 63822, Note_off_c, 2, 74, 127
1, 63824, Note_on_c, 12, 71, 127
1, 63932, Note_off_c, 12, 71, 127
1, 63932, Note_off_c, 4, 52, 127
1, 63934, Note_on_c, 4, 64, 127
1, 63934, Note_on_c, 0, 72, 127
1, 64042, Note_off_c, 0, 72, 127
1, 64044, Note_on_c, 2, 74, 127
1, 64152, Note_off_c, 2, 74, 127
1, 64154, Note_on_c, 12, 71, 127
1, 64262, Note_off_c, 12, 71, 127
1, 64272, Note_on_c, 11, 82, 127
1, 64354, Note_off_c, 4, 64, 127
1, 64436, Note_on_c, 6, 54, 127
1, 64599, Note_off_c, 6, 54, 127
1, 64601, Note_on_c, 11, 58, 127
1, 64764, Note_off_c, 11, 58, 127
1, 64766, Note_on_c, 1, 61, 127
1, 64929, Note_off_c, 1, 61, 127
1, 64931, Note_on_c, 4, 64, 127
1, 65094, Note_off_c, 4, 64, 127
1, 65096, Note_off_c, 11, 82, 127
1, 65096, Note_on_c, 1, 61, 127
1, 65259, Note_off_c, 1, 61, 127
1, 65261, Note_on_c, 11, 58, 127
1, 65261, Note_on_c, 6, 78, 127
1, 65424, Note_off_c, 11, 58, 127
1, 65426, Note_on_c, 6, 54, 127
1, 65589, Note_off_c, 6, 54, 127
1, 65589, Note_off_c, 6, 78, 127
1, 65591, Note_on_c, 7, 55, 127
1, 65591, Note_on_c, 12, 83, 127
1, 65792, Note_off_c, 12, 83, 127
1, 65794, Note_on_c, 10, 81, 127
1, 65893, Note_off_c, 7, 55, 127
1, 65895, Note_on_c, 12, 59, 127
1, 65994, Note_off_c, 10, 81, 127
1, 65996, Note_on_c, 7, 79, 127
1, 66197, Note_off_c, 7, 79, 127
1, 66197, Note_off_c, 12, 59, 127
1, 66199, Note_on_c, 2, 50, 127
1, 66199, Note_on_c, 6, 78, 127
1, 66400, Note_off_c, 6, 78, 127
1, 66402, Note_on_c, 4, 76, 127
1, 66501, Note_off_c, 2, 50, 127
1, 66503, Note_on_c, 12, 59, 127
1, 66602, Note_off_c, 4, 76, 127
1, 66604, Note_on_c, 2, 74, 127
1, 66805, Note_off_c, 2, 74, 127
1, 66805, Note_off_c, 12, 59, 127
1, 66807, Note_on_c, 4, 52, 127
1, 66807, Note_on_c, 7, 79, 127
1, 67008, Note_off_c, 7, 79, 127
1, 67010, Note_on_c, 6, 78, 127
1, 67109, Note_off_c, 4, 52, 127
1, 67111, Note_on_c, 12, 59, 127
1, 67210, Note_off_c, 6, 78, 127
1, 67212, Note_on_c, 4, 76, 127
1, 67413, Note_off_c, 4, 76, 127
1, 67413, Note_off_c, 12, 59, 127
1, 67415, Note_on_c, 12, 47, 127
1, 67415, Note_on_c, 2, 74, 127
1, 67616, Note_off_c, 2, 74, 127
1, 67618, Note_on_c, 1, 73, 127
1, 67717, Note_off_c, 12, 47, 127
1, 67719, Note_on_c, 12, 59, 127
1, 67818, Note_off_c, 1, 73, 127
1, 67820, Note_on_c, 12, 71, 127
1, 68021, Note_off_c, 12, 71, 127
1, 68023, Note_on_c, 2, 50, 127
1, 68023, Note_on_c, 6, 78, 127
1, 68224, Note_off_c, 6, 78, 127
1, 68226, Note_on_c, 4, 76, 127
1, 68325, Note_off_c, 2, 50, 127
1, 68327, Note_on_c, 4, 52, 127
1, 68426, Note_off_c, 4, 76, 127
1, 68428, Note_on_c, 2, 74, 127
1, 68629, Note_off_c, 2, 74, 127
1, 68629, Note_off_c, 4, 52, 127
1, 68631, Note_on_c, 6, 54, 127
1, 68631, Note_on_c, 2, 74, 127
1, 68686, Note_on_c, 1, 73, 127
1, 68694, Note_off_c, 2, 74, 127
1, 68741, Note_on_c, 2, 74, 127
1, 68749, Note_off_c, 1, 73, 127
1, 68796, Note_on_c, 1, 73, 127
1, 68804, Note_off_c, 2, 74, 127
1, 68932, Note_off_c, 12, 59, 127
1, 68934, Note_on_c, 11, 58, 127
1, 69018, Note_off_c, 1, 73, 127
1, 69035, Note_on_c, 12, 71, 127
1, 69231, Note_off_c, 6, 54, 127
1, 69234, Note_off_c, 12, 71, 127
1, 69236, Note_off_c, 11, 58, 127
1, 69238, Note_on_c, 12, 59, 127
1, 69238, Note_on_c, 12, 71, 127
1, 69588, Note_off_c, 12, 71, 127
1, 69588, Note_off_c, 12, 59, 127
1, 69590, Note_on_c, 4, 64, 127
1, 69590, Note_on_c, 1, 61, 127
1, 69590, Note_on_c, 6, 78, 127
1, 69590, Note_on_c, 11, 70, 127
1, 69892, Note_off_c, 11, 70, 127
1, 69892, Note_off_c, 6, 78, 127
1, 69892, Note_off_c, 1, 61, 127
1, 69892, Note_off_c, 4, 64, 127
1, 69902, Note_on_c, 6, 66, 127
1, 69902, Note_on_c, 2, 62, 127
1, 69902, Note_on_c, 12, 71, 127
1, 69902, Note_on_c, 6, 78, 127
1, 70204, Note_off_c, 6, 78, 127
1, 70204, Note_off_c, 12, 71, 127
1, 70204, Note_off_c, 2, 62, 127
1, 70204, Note_off_c, 6, 66, 127
1, 70206, Note_on_c, 4, 64, 127
1, 70206, Note_on_c, 1, 61, 127
1, 70206, Note_on_c, 8, 80, 127
1, 70206, Note_on_c, 4, 76, 127
1, 70356, Note_off_c, 8, 80, 127
1, 70358, Note_on_c, 11, 82, 127
1, 70506, Note_off_c, 4, 76, 127
1, 70508, Note_off_c, 11, 82, 127
1, 70508, Note_off_c, 1, 61, 127
1, 70508, Note_off_c, 4, 64, 127
1, 70510, Note_on_c, 12, 59, 127
1, 70510, Note_on_c, 6, 66, 127
1, 70510, Note_on_c, 12, 83, 127
1, 70510, Note_on_c, 2, 74, 127
1, 70812, Note_off_c, 2, 74, 127
1, 70812, Note_off_c, 12, 83, 127
1, 70814, Note_on_c, 6, 78, 127
1, 71111, Note_off_c, 6, 66, 127
1, 71116, Note_off_c, 6, 78, 127
1, 71118, Note_on_c, 2, 74, 127
1, 71268, Note_off_c, 12, 59, 127
1, 71270, Note_on_c, 12, 59, 127
1, 71420, Note_off_c, 12, 59, 127
1, 71420, Note_off_c, 2, 74, 127
1, 71422, Note_on_c, 1, 61, 127
1, 71422, Note_on_c, 12, 71, 127
1, 71572, Note_off_c, 1, 61, 127
1, 71574, Note_on_c, 2, 62, 127
1, 71724, Note_off_c, 2, 62, 127
1, 71724, Note_off_c, 12, 71, 127
1, 71726, Note_on_c, 4, 64, 127
1, 71726, Note_on_c, 7, 79, 127
1, 71876, Note_off_c, 4, 64, 127
1, 71878, Note_on_c, 2, 62, 127
1, 72028, Note_off_c, 2, 62, 127
1, 72028, Note_off_c, 7, 79, 127
1, 72030, Note_on_c, 4, 64, 127
1, 72030, Note_on_c, 12, 71, 127
1, 72180, Note_off_c, 4, 64, 127
1, 72182, Note_on_c, 1, 61, 127
1, 72332, Note_off_c, 1, 61, 127
1, 72332, Note_off_c, 12, 71, 127
1, 72334, Note_on_c, 2, 62, 127
1, 72334, Note_on_c, 6, 78, 127
1, 72484, Note_off_c, 2, 62, 127
1, 72486, Note_on_c, 1, 61, 127
1, 72636, Note_off_c, 1, 61, 127
1, 72636, Note_off_c, 6, 78, 127
1, 72638, Note_on_c, 2, 62, 127
1, 72638, Note_on_c, 12, 71, 127
1, 72788, Note_off_c, 2, 62, 127
1, 72790, Note_on_c, 12, 59, 127
1, 72940, Note_off_c, 12, 59, 127
1, 72940, Note_off_c, 12, 71, 127
1, 72942, Note_on_c, 1, 61, 127
1, 72942, Note_on_c, 4, 76, 127
1, 73092, Note_off_c, 4, 76, 127
1, 73094, Note_on_c, 2, 74, 127
1, 73235, Note_off_c, 1, 61, 127
1, 73244, Note_off_c, 2, 74, 127
1, 73246, Note_on_c, 12, 59, 127
1, 73246, Note_on_c, 1, 73, 127
1, 73396, Note_off_c, 1, 73, 127
1, 73398, Note_on_c, 2, 74, 127
1, 73539, Note_off_c, 12, 59, 127
1, 73548, Note_off_c, 2, 74, 127
1, 73550, Note_on_c, 11, 58, 127
1, 73550, Note_on_c, 4, 76, 127
1, 73700, Note_off_c, 4, 76, 127
1, 73702, Note_on_c, 2, 74, 127
1, 73843, Note_off_c, 11, 58, 127
1, 73852, Note_off_c, 2, 74, 127
1, 73854, Note_on_c, 6, 54, 127
1, 73854, Note_on_c, 4, 76, 127
1, 74004, Note_off_c, 4, 76, 127
1, 74006, Note_on_c, 1, 73, 127
1, 74156, Note_off_c, 1, 73, 127
1, 74156, Note_off_c, 6, 54, 127
1, 74158, Note_on_c, 12, 59, 127
1, 74158, Note_on_c, 2, 74, 127
1, 74460, Note_off_c, 2, 74, 127
1, 74460, Note_off_c, 12, 59, 127
1, 74462, Note_on_c, 2, 50, 127
1, 74462, Note_on_c, 12, 47, 127
1, 74462, Note_on_c, 12, 59, 127
1, 74462, Note_on_c, 6, 54, 127
1, 74462, Note_on_c, 12, 71, 127
1, 74764, Note_off_c, 6, 54, 127
1, 74764, Note_off_c, 12, 59, 127
1, 74764, Note_off_c, 12, 47, 127
1, 74764, Note_off_c, 2, 50, 127
1, 74766, Note_on_c, 2, 50, 127
1, 74766, Note_on_c, 12, 47, 127
1, 74766, Note_on_c, 12, 59, 127
1, 74766, Note_on_c, 6, 54, 127
1, 75068, Note_off_c, 6, 54, 127
1, 75068, Note_off_c, 12, 59, 127
1, 75068, Note_off_c, 12, 47, 127
1, 75068, Note_off_c, 2, 50, 127
1, 75070, Note_on_c, 2, 50, 127
1, 75070, Note_on_c, 6, 54, 127
1, 75070, Note_on_c, 12, 47, 127
1, 75070, Note_on_c, 12, 59, 127
1, 75070, Note_on_c, 6, 78, 127
1, 75372, Note_off_c, 6, 78, 127
1, 75372, Note_off_c, 12, 59, 127
1, 75372, Note_off_c, 12, 47, 127
1, 75372, Note_off_c, 6, 54, 127
1, 75372, Note_off_c, 2, 50, 127
1, 75372, Note_off_c, 12, 71, 127
1, 75374, Note_on_c, 12, 47, 127
1, 75374, Note_on_c, 6, 54, 127
1, 75374, Note_on_c, 3, 51, 127
1, 75374, Note_on_c, 12, 59, 127
1, 75374, Note_on_c, 12, 83, 127
1, 75526, Note_on_c, 6, 78, 127
1, 75674, Note_off_c, 12, 83, 127
1, 75676, Note_off_c, 6, 78, 127
1, 75678, Note_on_c, 12, 83, 127
1, 75828, Note_off_c, 12, 83, 127
1, 75830, Note_on_c, 6, 78, 127
1, 75980, Note_off_c, 6, 78, 127
1, 75980, Note_off_c, 12, 59, 127
1, 75980, Note_off_c, 3, 51, 127
1, 75980, Note_off_c, 6, 54, 127
1, 75980, Note_off_c, 12, 47, 127
1, 75982, Note_on_c, 12, 59, 127
1, 75982, Note_on_c, 3, 75, 127
1, 76132, Note_off_c, 12, 59, 127
1, 76134, Note_on_c, 6, 54, 127
1, 76134, Note_on_c, 12, 71, 127
1, 76262, Note_off_c, 3, 75, 127
1, 76284, Note_off_c, 12, 71, 127
1, 76284, Note_off_c, 6, 54, 127
1, 76286, Note_on_c, 12, 59, 127
1, 76286, Note_on_c, 3, 75, 127
1, 76436, Note_off_c, 3, 75, 127
1, 76436, Note_off_c, 12, 59, 127
1, 76438, Note_on_c, 6, 54, 127
1, 76438, Note_on_c, 12, 71, 127
1, 76588, Note_off_c, 12, 71, 127
1, 76588, Note_off_c, 6, 54, 127
1, 76590, Note_on_c, 3, 51, 127
1, 76590, Note_on_c, 12, 83, 127
1, 76740, Note_off_c, 3, 51, 127
1, 76742, Note_on_c, 12, 47, 127
1, 76742, Note_on_c, 6, 78, 127
1, 76890, Note_off_c, 12, 83, 127
1, 76892, Note_off_c, 6, 78, 127
1, 76892, Note_off_c, 12, 47, 127
1, 76894, Note_on_c, 3, 51, 127
1, 76894, Note_on_c, 12, 83, 127
1, 77044, Note_off_c, 12, 83, 127
1, 77044, Note_off_c, 3, 51, 127
1, 77046, Note_on_c, 12, 47, 127
1, 77046, Note_on_c, 6, 78, 127
1, 77196, Note_off_c, 6, 78, 127
1, 77196, Note_off_c, 12, 47, 127
1, 77198, Note_on_c, 12, 59, 127
1, 77198, Note_on_c, 3, 75, 127
1, 77348, Note_off_c, 12, 59, 127
1, 77350, Note_on_c, 10, 57, 127
1, 77350, Note_on_c, 12, 71, 127
1, 77478, Note_off_c, 3, 75, 127
1, 77500, Note_off_c, 12, 71, 127
1, 77500, Note_off_c, 10, 57, 127
1, 77502, Note_on_c, 7, 55, 127
1, 77502, Note_on_c, 3, 75, 127
1, 77652, Note_off_c, 3, 75, 127
1, 77652, Note_off_c, 7, 55, 127
1, 77654, Note_on_c, 6, 54, 127
1, 77654, Note_on_c, 12, 71, 127
1, 77804, Note_off_c, 12, 71, 127
1, 77804, Note_off_c, 6, 54, 127
1, 77806, Note_on_c, 4, 52, 127
1, 77806, Note_on_c, 7, 79, 127
1, 77956, Note_off_c, 7, 79, 127
1, 77958, Note_on_c, 6, 78, 127
1, 78108, Note_off_c, 6, 78, 127
1, 78108, Note_off_c, 4, 52, 127
1, 78110, Note_on_c, 7, 43, 127
1, 78110, Note_on_c, 4, 40, 127
1, 78110, Note_on_c, 4, 52, 127
1, 78110, Note_on_c, 12, 47, 127
1, 78110, Note_on_c, 7, 79, 127
1, 78412, Note_off_c, 12, 47, 127
1, 78412, Note_off_c, 4, 52, 127
1, 78412, Note_off_c, 4, 40, 127
1, 78412, Note_off_c, 7, 43, 127
1, 78414, Note_on_c, 12, 47, 127
1, 78414, Note_on_c, 7, 43, 127
1, 78414, Note_on_c, 4, 40, 127
1, 78414, Note_on_c, 4, 52, 127
1, 78716, Note_off_c, 4, 52, 127
1, 78716, Note_off_c, 4, 40, 127
1, 78716, Note_off_c, 7, 43, 127
1, 78716, Note_off_c, 12, 47, 127
1, 78716, Note_off_c, 7, 79, 127
1, 78718, Note_on_c, 7, 43, 127
1, 78718, Note_on_c, 4, 40, 127
1, 78718, Note_on_c, 4, 52, 127
1, 78718, Note_on_c, 12, 47, 127
1, 78718, Note_on_c, 12, 71, 127
1, 79020, Note_off_c, 12, 71, 127
1, 79020, Note_off_c, 12, 47, 127
1, 79020, Note_off_c, 4, 52, 127
1, 79020, Note_off_c, 4, 40, 127
1, 79020, Note_off_c, 7, 43, 127
1, 79022, Note_on_c, 4, 40, 127
1, 79022, Note_on_c, 12, 47, 127
1, 79022, Note_on_c, 8, 44, 127
1, 79022, Note_on_c, 4, 52, 127
1, 79022, Note_on_c, 4, 76, 127
1, 79174, Note_on_c, 12, 71, 127
1, 79322, Note_off_c, 4, 76, 127
1, 79324, Note_off_c, 12, 71, 127
1, 79326, Note_on_c, 4, 76, 127
1, 79476, Note_off_c, 4, 76, 127
1, 79478, Note_on_c, 12, 71, 127
1, 79628, Note_off_c, 12, 71, 127
1, 79628, Note_off_c, 4, 52, 127
1, 79628, Note_off_c, 8, 44, 127
1, 79628, Note_off_c, 12, 47, 127
1, 79628, Note_off_c, 4, 40, 127
1, 79630, Note_on_c, 4, 52, 127
1, 79630, Note_on_c, 8, 68, 127
1, 79780, Note_off_c, 4, 52, 127
1, 79782, Note_on_c, 12, 47, 127
1, 79782, Note_on_c, 4, 64, 127
1, 79910, Note_off_c, 8, 68, 127
1, 79932, Note_off_c, 4, 64, 127
1, 79932, Note_off_c, 12, 47, 127
1, 79934, Note_on_c, 4, 52, 127
1, 79934, Note_on_c, 8, 68, 127
1, 80084, Note_off_c, 8, 68, 127
1, 80084, Note_off_c, 4, 52, 127
1, 80086, Note_on_c, 12, 47, 127
1, 80086, Note_on_c, 4, 64, 127
1, 80236, Note_off_c, 4, 64, 127
1, 80236, Note_off_c, 12, 47, 127
1, 80238, Note_on_c, 8, 44, 127
1, 80238, Note_on_c, 4, 76, 127
1, 80388, Note_off_c, 8, 44, 127
1, 80390, Note_on_c, 4, 40, 127
1, 80390, Note_on_c, 12, 71, 127
1, 80538, Note_off_c, 4, 76, 127
1, 80540, Note_off_c, 12, 71, 127
1, 80540, Note_off_c, 4, 40, 127
1, 80542, Note_on_c, 8, 44, 127
1, 80542, Note_on_c, 4, 76, 127
1, 80692, Note_off_c, 4, 76, 127
1, 80692, Note_off_c, 8, 44, 127
1, 80694, Note_on_c, 4, 40, 127
1, 80694, Note_on_c, 12, 71, 127
1, 80844, Note_off_c, 12, 71, 127
1, 80844, Note_off_c, 4, 40, 127
1, 80846, Note_on_c, 4, 52, 127
1, 80846, Note_on_c, 8, 68, 127
1, 80996, Note_off_c, 4, 52, 127
1, 80998, Note_on_c, 2, 50, 127
1, 80998, Note_on_c, 4, 64, 127
1, 81126, Note_off_c, 8, 68, 127
1, 81148, Note_off_c, 4, 64, 127
1, 81148, Note_off_c, 2, 50, 127
1, 81150, Note_on_c, 0, 48, 127
1, 81150, Note_on_c, 8, 68, 127
1, 81300, Note_off_c, 8, 68, 127
1, 81300, Note_off_c, 0, 48, 127
1, 81302, Note_on_c, 12, 47, 127
1, 81302, Note_on_c, 4, 64, 127
1, 81452, Note_off_c, 4, 64, 127
1, 81452, Note_off_c, 12, 47, 127
1, 81454, Note_on_c, 10, 45, 127
1, 81454, Note_on_c, 0, 72, 127
1, 81604, Note_off_c, 0, 72, 127
1, 81606, Note_on_c, 12, 71, 127
1, 81756, Note_off_c, 12, 71, 127
1, 81756, Note_off_c, 10, 45, 127
1, 81758, Note_on_c, 10, 45, 127
1, 81758, Note_on_c, 4, 52, 127
1, 81758, Note_on_c, 0, 48, 127
1, 81758, Note_on_c, 10, 57, 127
1, 81758, Note_on_c, 0, 72, 127
1, 82060, Note_off_c, 10, 57, 127
1, 82060, Note_off_c, 0, 48, 127
1, 82060, Note_off_c, 4, 52, 127
1, 82060, Note_off_c, 10, 45, 127
1, 82062, Note_on_c, 10, 45, 127
1, 82062, Note_on_c, 4, 52, 127
1, 82062, Note_on_c, 0, 48, 127
1, 82062, Note_on_c, 10, 57, 127
1, 82364, Note_off_c, 10, 57, 127
1, 82364, Note_off_c, 0, 48, 127
1, 82364, Note_off_c, 4, 52, 127
1, 82364, Note_off_c, 10, 45, 127
1, 82364, Note_off_c, 0, 72, 127
1, 82366, Note_on_c, 10, 45, 127
1, 82366, Note_on_c, 4, 52, 127
1, 82366, Note_on_c, 0, 48, 127
1, 82366, Note_on_c, 10, 57, 127
1, 82366, Note_on_c, 4, 76, 127
1, 82668, Note_off_c, 4, 76, 127
1, 82668, Note_off_c, 10, 57, 127
1, 82668, Note_off_c, 0, 48, 127
1, 82668, Note_off_c, 4, 52, 127
1, 82668, Note_off_c, 10, 45, 127
1, 82670, Note_on_c, 10, 45, 127
1, 82670, Note_on_c, 4, 52, 127
1, 82670, Note_on_c, 1, 49, 127
1, 82670, Note_on_c, 10, 57, 127
1, 82670, Note_on_c, 10, 81, 127
1, 82822, Note_on_c, 4, 76, 127
1, 82970, Note_off_c, 10, 81, 127
1, 82972, Note_off_c, 4, 76, 127
1, 82974, Note_on_c, 10, 81, 127
1, 83124, Note_off_c, 10, 81, 127
1, 83126, Note_on_c, 4, 76, 127
1, 83276, Note_off_c, 4, 76, 127
1, 83276, Note_off_c, 10, 57, 127
1, 83276, Note_off_c, 1, 49, 127
1, 83276, Note_off_c, 4, 52, 127
1, 83276, Note_off_c, 10, 45, 127
1, 83278, Note_on_c, 10, 57, 127
1, 83278, Note_on_c, 1, 73, 127
1, 83428, Note_off_c, 10, 57, 127
1, 83430, Note_on_c, 4, 52, 127
1, 83430, Note_on_c, 10, 69, 127
1, 83578, Note_off_c, 1, 73, 127
1, 83580, Note_off_c, 10, 69, 127
1, 83580, Note_off_c, 4, 52, 127
1, 83582, Note_on_c, 10, 57, 127
1, 83582, Note_on_c, 1, 73, 127
1, 83732, Note_off_c, 1, 73, 127
1, 83732, Note_off_c, 10, 57, 127
1, 83734, Note_on_c, 4, 52, 127
1, 83734, Note_on_c, 10, 69, 127
1, 83884, Note_off_c, 10, 69, 127
1, 83884, Note_off_c, 4, 52, 127
1, 83886, Note_on_c, 1, 49, 127
1, 83886, Note_on_c, 10, 81, 127
1, 84036, Note_off_c, 1, 49, 127
1, 84038, Note_on_c, 10, 45, 127
1, 84038, Note_on_c, 4, 76, 127
1, 84186, Note_off_c, 10, 81, 127
1, 84188, Note_off_c, 4, 76, 127
1, 84188, Note_off_c, 10, 45, 127
1, 84190, Note_on_c, 1, 49, 127
1, 84190, Note_on_c, 10, 81, 127
1, 84340, Note_off_c, 10, 81, 127
1, 84340, Note_off_c, 1, 49, 127
1, 84342, Note_on_c, 10, 45, 127
1, 84342, Note_on_c, 4, 76, 127
1, 84492, Note_off_c, 4, 76, 127
1, 84492, Note_off_c, 10, 45, 127
1, 84494, Note_on_c, 10, 57, 127
1, 84494, Note_on_c, 1, 73, 127
1, 84644, Note_off_c, 10, 57, 127
1, 84646, Note_on_c, 12, 59, 127
1, 84646, Note_on_c, 10, 69, 127
1, 84722, Note_off_c, 1, 73, 127
1, 84796, Note_off_c, 10, 69, 127
1, 84796, Note_off_c, 12, 59, 127
1, 84798, Note_on_c, 10, 57, 127
1, 84798, Note_on_c, 1, 73, 127
1, 84948, Note_off_c, 1, 73, 127
1, 84948, Note_off_c, 10, 57, 127
1, 84950, Note_on_c, 7, 55, 127
1, 84950, Note_on_c, 10, 69, 127
1, 85100, Note_off_c, 10, 69, 127
1, 85100, Note_off_c, 7, 55, 127
1, 85102, Note_on_c, 6, 54, 127
1, 85102, Note_on_c, 2, 74, 127
1, 85252, Note_off_c, 6, 54, 127
1, 85254, Note_on_c, 7, 55, 127
1, 85254, Note_on_c, 10, 69, 127
1, 85355, Note_off_c, 2, 74, 127
1, 85404, Note_off_c, 10, 69, 127
1, 85404, Note_off_c, 7, 55, 127
1, 85406, Note_on_c, 6, 54, 127
1, 85406, Note_on_c, 2, 74, 127
1, 85556, Note_off_c, 6, 54, 127
1, 85558, Note_on_c, 4, 52, 127
1, 85558, Note_on_c, 10, 69, 127
1, 85634, Note_off_c, 2, 74, 127
1, 85708, Note_off_c, 10, 69, 127
1, 85708, Note_off_c, 4, 52, 127
1, 85710, Note_on_c, 2, 50, 127
1, 85710, Note_on_c, 6, 66, 127
1, 85860, Note_off_c, 2, 50, 127
1, 85862, Note_on_c, 10, 45, 127
1, 85862, Note_on_c, 2, 62, 127
1, 85916, Note_off_c, 6, 66, 127
1, 86012, Note_off_c, 2, 62, 127
1, 86012, Note_off_c, 10, 45, 127
1, 86014, Note_on_c, 2, 50, 127
1, 86014, Note_on_c, 6, 66, 127
1, 86164, Note_off_c, 2, 50, 127
1, 86166, Note_on_c, 10, 45, 127
1, 86166, Note_on_c, 2, 62, 127
1, 86220, Note_off_c, 6, 66, 127
1, 86316, Note_off_c, 2, 62, 127
1, 86316, Note_off_c, 10, 45, 127
1, 86318, Note_on_c, 6, 42, 127
1, 86318, Note_on_c, 2, 74, 127
1, 86468, Note_off_c, 6, 42, 127
1, 86470, Note_on_c, 2, 38, 127
1, 86470, Note_on_c, 10, 69, 127
1, 86508, Note_off_c, 2, 74, 127
1, 86620, Note_off_c, 10, 69, 127
1, 86620, Note_off_c, 2, 38, 127
1, 86622, Note_on_c, 6, 42, 127
1, 86622, Note_on_c, 2, 74, 127
1, 86772, Note_off_c, 6, 42, 127
1, 86774, Note_on_c, 2, 38, 127
1, 86774, Note_on_c, 10, 69, 127
1, 86812, Note_off_c, 2, 74, 127
1, 86924, Note_off_c, 10, 69, 127
1, 86924, Note_off_c, 2, 38, 127
1, 86926, Note_on_c, 2, 50, 127
1, 86926, Note_on_c, 6, 66, 127
1, 87076, Note_off_c, 2, 50, 127
1, 87078, Note_on_c, 4, 52, 127
1, 87078, Note_on_c, 2, 62, 127
1, 87116, Note_off_c, 6, 66, 127
1, 87228, Note_off_c, 2, 62, 127
1, 87228, Note_off_c, 4, 52, 127
1, 87230, Note_on_c, 2, 50, 127
1, 87230, Note_on_c, 6, 66, 127
1, 87380, Note_off_c, 6, 66, 127
1, 87380, Note_off_c, 2, 50, 127
1, 87382, Note_on_c, 0, 48, 127
1, 87382, Note_on_c, 2, 62, 127
1, 87532, Note_off_c, 2, 62, 127
1, 87532, Note_off_c, 0, 48, 127
1, 87534, Note_on_c, 12, 47, 127
1, 87534, Note_on_c, 7, 67, 127
1, 87684, Note_off_c, 7, 67, 127
1, 87684, Note_off_c, 12, 47, 127
1, 87686, Note_on_c, 0, 48, 127
1, 87686, Note_on_c, 2, 62, 127
1, 87836, Note_off_c, 2, 62, 127
1, 87836, Note_off_c, 0, 48, 127
1, 87838, Note_on_c, 12, 47, 127
1, 87838, Note_on_c, 4, 64, 127
1, 87988, Note_off_c, 4, 64, 127
1, 87988, Note_off_c, 12, 47, 127
1, 87990, Note_on_c, 10, 45, 127
1, 87990, Note_on_c, 6, 66, 127
1, 88140, Note_off_c, 6, 66, 127
1, 88140, Note_off_c, 10, 45, 127
1, 88142, Note_on_c, 7, 43, 127
1, 88142, Note_on_c, 7, 67, 127
1, 88292, Note_off_c, 7, 67, 127
1, 88292, Note_off_c, 7, 43, 127
1, 88294, Note_on_c, 6, 42, 127
1, 88294, Note_on_c, 10, 69, 127
1, 88444, Note_off_c, 10, 69, 127
1, 88444, Note_off_c, 6, 42, 127
1, 88446, Note_on_c, 7, 43, 127
1, 88446, Note_on_c, 12, 71, 127
1, 88596, Note_off_c, 12, 71, 127
1, 88596, Note_off_c, 7, 43, 127
1, 88598, Note_on_c, 10, 45, 127
1, 88598, Note_on_c, 0, 72, 127
1, 88748, Note_off_c, 0, 72, 127
1, 88748, Note_off_c, 10, 45, 127
1, 88750, Note_on_c, 12, 47, 127
1, 88750, Note_on_c, 2, 74, 127
1, 88900, Note_off_c, 2, 74, 127
1, 88900, Note_off_c, 12, 47, 127
1, 88902, Note_on_c, 7, 43, 127
1, 88902, Note_on_c, 12, 71, 127
1, 89052, Note_off_c, 12, 71, 127
1, 89052, Note_off_c, 7, 43, 127
1, 89054, Note_on_c, 10, 45, 127
1, 89054, Note_on_c, 0, 72, 127
1, 89204, Note_off_c, 0, 72, 127
1, 89204, Note_off_c, 10, 45, 127
1, 89206, Note_on_c, 12, 47, 127
1, 89206, Note_on_c, 2, 74, 127
1, 89356, Note_off_c, 2, 74, 127
1, 89356, Note_off_c, 12, 47, 127
1, 89358, Note_on_c, 0, 48, 127
1, 89358, Note_on_c, 4, 76, 127
1, 89508, Note_off_c, 4, 76, 127
1, 89508, Note_off_c, 0, 48, 127
1, 89510, Note_on_c, 2, 50, 127
1, 89510, Note_on_c, 6, 78, 127
1, 89660, Note_off_c, 6, 78, 127
1, 89660, Note_off_c, 2, 50, 127
1, 89662, Note_on_c, 4, 52, 127
1, 89662, Note_on_c, 7, 79, 127
1, 89812, Note_off_c, 7, 79, 127
1, 89812, Note_off_c, 4, 52, 127
1, 89814, Note_on_c, 6, 54, 127
1, 89814, Note_on_c, 10, 81, 127
1, 89964, Note_off_c, 10, 81, 127
1, 89964, Note_off_c, 6, 54, 127
1, 89966, Note_on_c, 7, 55, 127
1, 89966, Note_on_c, 12, 83, 127
1, 90116, Note_off_c, 7, 55, 127
1, 90118, Note_on_c, 12, 59, 127
1, 90118, Note_on_c, 7, 79, 127
1, 90266, Note_off_c, 12, 83, 127
1, 90268, Note_off_c, 7, 79, 127
1, 90268, Note_off_c, 12, 59, 127
1, 90270, Note_on_c, 7, 55, 127
1, 90270, Note_on_c, 12, 83, 127
1, 90420, Note_off_c, 7, 55, 127
1, 90422, Note_on_c, 12, 59, 127
1, 90422, Note_on_c, 7, 79, 127
1, 90570, Note_off_c, 12, 83, 127
1, 90572, Note_off_c, 7, 79, 127
1, 90572, Note_off_c, 12, 59, 127
1, 90574, Note_on_c, 0, 60, 127
1, 90574, Note_on_c, 4, 76, 127
1, 90724, Note_off_c, 0, 60, 127
1, 90726, Note_on_c, 4, 64, 127
1, 90726, Note_on_c, 7, 79, 127
1, 90802, Note_off_c, 4, 76, 127
1, 90876, Note_off_c, 7, 79, 127
1, 90876, Note_off_c, 4, 64, 127
1, 90878, Note_on_c, 0, 60, 127
1, 90878, Note_on_c, 4, 76, 127
1, 91028, Note_off_c, 0, 60, 127
1, 91030, Note_on_c, 4, 64, 127
1, 91030, Note_on_c, 7, 79, 127
1, 91106, Note_off_c, 4, 76, 127
1, 91180, Note_off_c, 7, 79, 127
1, 91180, Note_off_c, 4, 64, 127
1, 91182, Note_on_c, 6, 54, 127
1, 91182, Note_on_c, 10, 81, 127
1, 91332, Note_off_c, 6, 54, 127
1, 91334, Note_on_c, 10, 57, 127
1, 91334, Note_on_c, 6, 78, 127
1, 91482, Note_off_c, 10, 81, 127
1, 91484, Note_off_c, 6, 78, 127
1, 91484, Note_off_c, 10, 57, 127
1, 91486, Note_on_c, 6, 54, 127
1, 91486, Note_on_c, 10, 81, 127
1, 91636, Note_off_c, 6, 54, 127
1, 91638, Note_on_c, 10, 57, 127
1, 91638, Note_on_c, 6, 78, 127
1, 91786, Note_off_c, 10, 81, 127
1, 91788, Note_off_c, 6, 78, 127
1, 91788, Note_off_c, 10, 57, 127
1, 91790, Note_on_c, 12, 59, 127
1, 91790, Note_on_c, 2, 74, 127
1, 91940, Note_off_c, 12, 59, 127
1, 91942, Note_on_c, 2, 62, 127
1, 91942, Note_on_c, 6, 78, 127
1, 92018, Note_off_c, 2, 74, 127
1, 92092, Note_off_c, 6, 78, 127
1, 92092, Note_off_c, 2, 62, 127
1, 92094, Note_on_c, 12, 59, 127
1, 92094, Note_on_c, 2, 74, 127
1, 92244, Note_off_c, 12, 59, 127
1, 92246, Note_on_c, 2, 62, 127
1, 92246, Note_on_c, 6, 78, 127
1, 92322, Note_off_c, 2, 74, 127
1, 92396, Note_off_c, 6, 78, 127
1, 92396, Note_off_c, 2, 62, 127
1, 92398, Note_on_c, 4, 52, 127
1, 92398, Note_on_c, 7, 79, 127
1, 92548, Note_off_c, 4, 52, 127
1, 92550, Note_on_c, 7, 55, 127
1, 92550, Note_on_c, 4, 76, 127
1, 92698, Note_off_c, 7, 79, 127
1, 92700, Note_off_c, 4, 76, 127
1, 92700, Note_off_c, 7, 55, 127
1, 92702, Note_on_c, 4, 52, 127
1, 92702, Note_on_c, 7, 79, 127
1, 92852, Note_off_c, 4, 52, 127
1, 92854, Note_on_c, 7, 55, 127
1, 92854, Note_on_c, 4, 76, 127
1, 93002, Note_off_c, 7, 79, 127
1, 93004, Note_off_c, 4, 76, 127
1, 93004, Note_off_c, 7, 55, 127
1, 93006, Note_on_c, 10, 57, 127
1, 93006, Note_on_c, 0, 72, 127
1, 93156, Note_off_c, 10, 57, 127
1, 93158, Note_on_c, 0, 60, 127
1, 93158, Note_on_c, 4, 76, 127
1, 93234, Note_off_c, 0, 72, 127
1, 93308, Note_off_c, 4, 76, 127
1, 93308, Note_off_c, 0, 60, 127
1, 93310, Note_on_c, 10, 57, 127
1, 93310, Note_on_c, 0, 72, 127
1, 93460, Note_off_c, 10, 57, 127
1, 93462, Note_on_c, 0, 60, 127
1, 93462, Note_on_c, 4, 76, 127
1, 93538, Note_off_c, 0, 72, 127
1, 93612, Note_off_c, 4, 76, 127
1, 93612, Note_off_c, 0, 60, 127
1, 93614, Note_on_c, 2, 50, 127
1, 93614, Note_on_c, 6, 78, 127
1, 93764, Note_off_c, 2, 50, 127
1, 93766, Note_on_c, 6, 54, 127
1, 93766, Note_on_c, 2, 74, 127
1, 93914, Note_off_c, 6, 78, 127
1, 93916, Note_off_c, 2, 74, 127
1, 93916, Note_off_c, 6, 54, 127
1, 93918, Note_on_c, 2, 50, 127
1, 93918, Note_on_c, 6, 78, 127
1, 94068, Note_off_c, 2, 50, 127
1, 94070, Note_on_c, 6, 54, 127
1, 94070, Note_on_c, 2, 74, 127
1, 94218, Note_off_c, 6, 78, 127
1, 94220, Note_off_c, 2, 74, 127
1, 94220, Note_off_c, 6, 54, 127
1, 94222, Note_on_c, 7, 55, 127
1, 94222, Note_on_c, 12, 71, 127
1, 94372, Note_off_c, 7, 55, 127
1, 94374, Note_on_c, 12, 59, 127
1, 94374, Note_on_c, 2, 74, 127
1, 94450, Note_off_c, 12, 71, 127
1, 94524, Note_off_c, 2, 74, 127
1, 94524, Note_off_c, 12, 59, 127
1, 94526, Note_on_c, 7, 55, 127
1, 94526, Note_on_c, 12, 71, 127
1, 94676, Note_off_c, 7, 55, 127
1, 94678, Note_on_c, 12, 59, 127
1, 94678, Note_on_c, 2, 74, 127
1, 94754, Note_off_c, 12, 71, 127
1, 94828, Note_off_c, 2, 74, 127
1, 94828, Note_off_c, 12, 59, 127
1, 94830, Note_on_c, 0, 48, 127
1, 94830, Note_on_c, 4, 76, 127
1, 94980, Note_off_c, 0, 48, 127
1, 94982, Note_on_c, 4, 52, 127
1, 94982, Note_on_c, 0, 72, 127
1, 95130, Note_off_c, 4, 76, 127
1, 95132, Note_off_c, 0, 72, 127
1, 95132, Note_off_c, 4, 52, 127
1, 95134, Note_on_c, 0, 48, 127
1, 95134, Note_on_c, 4, 76, 127
1, 95284, Note_off_c, 4, 76, 127
1, 95284, Note_off_c, 0, 48, 127
1, 95286, Note_on_c, 4, 52, 127
1, 95286, Note_on_c, 0, 72, 127
1, 95436, Note_off_c, 0, 72, 127
1, 95436, Note_off_c, 4, 52, 127
1, 95438, Note_on_c, 6, 54, 127
1, 95438, Note_on_c, 10, 69, 127
1, 95588, Note_off_c, 6, 54, 127
1, 95590, Note_on_c, 10, 57, 127
1, 95590, Note_on_c, 0, 72, 127
1, 95666, Note_off_c, 10, 69, 127
1, 95740, Note_off_c, 0, 72, 127
1, 95740, Note_off_c, 10, 57, 127
1, 95742, Note_on_c, 6, 54, 127
1, 95742, Note_on_c, 10, 69, 127
1, 95892, Note_off_c, 6, 54, 127
1, 95894, Note_on_c, 10, 57, 127
1, 95894, Note_on_c, 0, 72, 127
1, 95970, Note_off_c, 10, 69, 127
1, 96044, Note_off_c, 0, 72, 127
1, 96044, Note_off_c, 10, 57, 127
1, 96046, Note_on_c, 12, 47, 127
1, 96046, Note_on_c, 2, 74, 127
1, 96196, Note_off_c, 12, 47, 127
1, 96198, Note_on_c, 2, 50, 127
1, 96198, Note_on_c, 12, 71, 127
1, 96274, Note_off_c, 2, 74, 127
1, 96348, Note_off_c, 12, 71, 127
1, 96348, Note_off_c, 2, 50, 127
1, 96350, Note_on_c, 12, 47, 127
1, 96350, Note_on_c, 2, 74, 127
1, 96500, Note_off_c, 2, 74, 127
1, 96500, Note_off_c, 12, 47, 127
1, 96502, Note_on_c, 2, 50, 127
1, 96502, Note_on_c, 12, 71, 127
1, 96652, Note_off_c, 12, 71, 127
1, 96652, Note_off_c, 2, 50, 127
1, 96654, Note_on_c, 4, 52, 127
1, 96654, Note_on_c, 7, 67, 127
1, 96804, Note_off_c, 7, 67, 127
1, 96804, Note_off_c, 4, 52, 127
1, 96806, Note_on_c, 7, 55, 127
1, 96806, Note_on_c, 12, 71, 127
1, 96956, Note_off_c, 12, 71, 127
1, 96956, Note_off_c, 7, 55, 127
1, 96958, Note_on_c, 4, 52, 127
1, 96958, Note_on_c, 7, 67, 127
1, 97108, Note_off_c, 7, 67, 127
1, 97108, Note_off_c, 4, 52, 127
1, 97110, Note_on_c, 7, 55, 127
1, 97110, Note_on_c, 12, 71, 127
1, 97260, Note_off_c, 12, 71, 127
1, 97260, Note_off_c, 7, 55, 127
1, 97262, Note_on_c, 10, 45, 127
1, 97262, Note_on_c, 0, 72, 127
1, 97412, Note_off_c, 10, 45, 127
1, 97414, Note_on_c, 0, 48, 127
1, 97564, Note_off_c, 0, 48, 127
1, 97566, Note_on_c, 10, 45, 127
1, 97716, Note_off_c, 10, 45, 127
1, 97718, Note_on_c, 0, 48, 127
1, 97868, Note_off_c, 0, 48, 127
1, 97870, Note_on_c, 2, 50, 127
1, 98020, Note_off_c, 2, 50, 127
1, 98022, Note_on_c, 6, 54, 127
1, 98098, Note_off_c, 0, 72, 127
1, 98126, Note_on_c, 0, 72, 127
1, 98172, Note_off_c, 6, 54, 127
1, 98174, Note_on_c, 2, 50, 127
1, 98243, Note_on_c, 12, 71, 127
1, 98245, Note_off_c, 0, 72, 127
1, 98324, Note_off_c, 2, 50, 127
1, 98326, Note_on_c, 6, 54, 127
1, 98361, Note_on_c, 10, 69, 127
1, 98363, Note_off_c, 12, 71, 127
1, 98475, Note_off_c, 10, 69, 127
1, 98477, Note_off_c, 6, 54, 127
1, 98479, Note_on_c, 7, 43, 127
1, 98479, Note_on_c, 12, 71, 127
1, 98680, Note_off_c, 12, 71, 127
1, 98682, Note_on_c, 0, 72, 127
1, 98781, Note_off_c, 7, 43, 127
1, 98783, Note_on_c, 0, 48, 127
1, 98882, Note_off_c, 0, 72, 127
1, 98884, Note_on_c, 2, 74, 127
1, 99085, Note_off_c, 2, 74, 127
1, 99085, Note_off_c, 0, 48, 127
1, 99087, Note_on_c, 2, 50, 127
1, 99087, Note_on_c, 12, 71, 127
1, 99288, Note_off_c, 12, 71, 127
1, 99290, Note_on_c, 10, 69, 127
1, 99389, Note_off_c, 2, 50, 127
1, 99391, Note_on_c, 2, 38, 127
1, 99490, Note_off_c, 10, 69, 127
1, 99492, Note_on_c, 7, 67, 127
1, 99693, Note_off_c, 7, 67, 127
1, 99693, Note_off_c, 2, 38, 127
1, 99695, Note_on_c, 7, 43, 127
1, 99695, Note_on_c, 7, 67, 127
1, 99755, Note_on_c, 6, 66, 127
1, 99760, Note_off_c, 7, 67, 127
1, 99815, Note_on_c, 7, 67, 127
1, 99820, Note_off_c, 6, 66, 127
1, 99913, Note_on_c, 10, 45, 127
1, 99915, Note_off_c, 7, 43, 127
1, 100114, Note_off_c, 10, 45, 127
1, 100116, Note_on_c, 12, 47, 127
1, 100317, Note_off_c, 12, 47, 127
1, 100319, Note_on_c, 10, 45, 127
1, 100520, Note_off_c, 10, 45, 127
1, 100522, Note_on_c, 6, 42, 127
1, 100627, Note_off_c, 7, 67, 127
1, 100723, Note_off_c, 6, 42, 127
1, 100725, Note_on_c, 10, 69, 127
1, 100725, Note_on_c, 2, 38, 127
1, 100926, Note_off_c, 2, 38, 127
1, 100936, Note_on_c, 12, 71, 127
1, 100936, Note_on_c, 7, 43, 127
1, 100941, Note_off_c, 10, 69, 127
1, 101137, Note_off_c, 12, 71, 127
1, 101139, Note_on_c, 0, 72, 127
1, 101238, Note_off_c, 7, 43, 127
1, 101240, Note_on_c, 7, 55, 127
1, 101339, Note_off_c, 0, 72, 127
1, 101341, Note_on_c, 2, 74, 127
1, 101542, Note_off_c, 2, 74, 127
1, 101542, Note_off_c, 7, 55, 127
1, 101544, Note_on_c, 10, 69, 127
1, 101544, Note_on_c, 6, 54, 127
1, 101745, Note_off_c, 6, 54, 127
1, 101747, Note_on_c, 7, 55, 127
1, 101829, Note_off_c, 10, 69, 127
1, 101848, Note_on_c, 10, 81, 127
1, 101947, Note_off_c, 7, 55, 127
1, 101949, Note_on_c, 10, 57, 127
1, 102132, Note_off_c, 10, 81, 127
1, 102149, Note_off_c, 10, 57, 127
1, 102151, Note_on_c, 6, 78, 127
1, 102151, Note_on_c, 2, 50, 127
1, 102352, Note_off_c, 6, 78, 127
1, 102354, Note_on_c, 7, 79, 127
1, 102453, Note_off_c, 2, 50, 127
1, 102455, Note_on_c, 2, 62, 127
1, 102554, Note_off_c, 7, 79, 127
1, 102556, Note_on_c, 10, 81, 127
1, 102757, Note_off_c, 10, 81, 127
1, 102757, Note_off_c, 2, 62, 127
1, 102759, Note_on_c, 2, 74, 127
1, 102759, Note_on_c, 12, 59, 127
1, 102960, Note_off_c, 12, 59, 127
1, 102962, Note_on_c, 0, 60, 127
1, 103044, Note_off_c, 2, 74, 127
1, 103063, Note_on_c, 10, 69, 127
1, 103162, Note_off_c, 0, 60, 127
1, 103164, Note_on_c, 2, 62, 127
1, 103347, Note_off_c, 10, 69, 127
1, 103364, Note_off_c, 2, 62, 127
1, 103366, Note_on_c, 12, 71, 127
1, 103366, Note_on_c, 7, 55, 127
1, 103567, Note_off_c, 12, 71, 127
1, 103569, Note_on_c, 0, 72, 127
1, 103670, Note_on_c, 12, 47, 127
1, 103769, Note_off_c, 0, 72, 127
1, 103771, Note_on_c, 2, 74, 127
1, 103972, Note_off_c, 2, 74, 127
1, 103972, Note_off_c, 12, 47, 127
1, 103974, Note_on_c, 10, 69, 127
1, 103974, Note_on_c, 0, 48, 127
1, 104175, Note_off_c, 10, 69, 127
1, 104177, Note_on_c, 12, 71, 127
1, 104276, Note_off_c, 0, 48, 127
1, 104276, Note_off_c, 7, 55, 127
1, 104278, Note_on_c, 6, 54, 127
1, 104278, Note_on_c, 2, 50, 127
1, 104377, Note_off_c, 12, 71, 127
1, 104379, Note_on_c, 0, 72, 127
1, 104580, Note_off_c, 0, 72, 127
1, 104580, Note_off_c, 2, 50, 127
1, 104580, Note_off_c, 6, 54, 127
1, 104582, Note_on_c, 12, 71, 127
1, 104582, Note_on_c, 7, 55, 127
1, 104783, Note_off_c, 12, 71, 127
1, 104785, Note_on_c, 0, 72, 127
1, 104886, Note_on_c, 12, 47, 127
1, 104985, Note_off_c, 0, 72, 127
1, 104987, Note_on_c, 2, 74, 127
1, 105188, Note_off_c, 2, 74, 127
1, 105188, Note_off_c, 12, 47, 127
1, 105190, Note_on_c, 0, 72, 127
1, 105190, Note_on_c, 0, 48, 127
1, 105253, Note_off_c, 0, 72, 127
1, 105253, Note_on_c, 12, 71, 127
1, 105316, Note_off_c, 12, 71, 127
1, 105316, Note_on_c, 0, 72, 127
1, 105379, Note_off_c, 0, 72, 127
1, 105379, Note_on_c, 12, 71, 127
1, 105442, Note_off_c, 12, 71, 127
1, 105442, Note_on_c, 10, 69, 127
1, 105491, Note_off_c, 0, 48, 127
1, 105491, Note_off_c, 7, 55, 127
1, 105493, Note_on_c, 6, 54, 127
1, 105493, Note_on_c, 2, 50, 127
1, 105643, Note_off_c, 10, 69, 127
1, 105650, Note_on_c, 7, 67, 127
1, 105795, Note_off_c, 2, 50, 127
1, 105795, Note_off_c, 6, 54, 127
1, 105819, Note_off_c, 7, 67, 127
1, 105829, Note_on_c, 7, 55, 127
1, 105829, Note_on_c, 12, 59, 127
1, 105829, Note_on_c, 7, 67, 127
1, 106159, Note_off_c, 7, 67, 127
1, 106159, Note_off_c, 12, 59, 127
1, 106159, Note_off_c, 7, 55, 127
1, 106165, Note_on_c, 2, 74, 127
1, 106165, Note_on_c, 6, 66, 127
1, 106165, Note_on_c, 0, 60, 127
1, 106165, Note_on_c, 10, 57, 127
1, 106467, Note_off_c, 10, 57, 127
1, 106467, Note_off_c, 0, 60, 127
1, 106467, Note_off_c, 6, 66, 127
1, 106467, Note_off_c, 2, 74, 127
1, 106469, Note_on_c, 2, 74, 127
1, 106469, Note_on_c, 7, 67, 127
1, 106469, Note_on_c, 2, 62, 127
1, 106469, Note_on_c, 12, 59, 127
1, 106771, Note_off_c, 12, 59, 127
1, 106771, Note_off_c, 2, 62, 127
1, 106771, Note_off_c, 7, 67, 127
1, 106771, Note_off_c, 2, 74, 127
1, 106773, Note_on_c, 4, 76, 127
1, 106773, Note_on_c, 0, 72, 127
1, 106773, Note_on_c, 0, 60, 127
1, 106773, Note_on_c, 10, 57, 127
1, 106923, Note_off_c, 0, 72, 127
1, 106923, Note_off_c, 4, 76, 127
1, 106925, Note_on_c, 6, 78, 127
1, 107075, Note_off_c, 6, 78, 127
1, 107075, Note_off_c, 10, 57, 127
1, 107075, Note_off_c, 0, 60, 127
1, 107077, Note_on_c, 7, 79, 127
1, 107077, Note_on_c, 12, 71, 127
1, 107077, Note_on_c, 2, 62, 127
1, 107077, Note_on_c, 7, 55, 127
1, 107379, Note_off_c, 12, 71, 127
1, 107379, Note_off_c, 7, 79, 127
1, 107381, Note_on_c, 2, 74, 127
1, 107678, Note_off_c, 7, 55, 127
1, 107678, Note_off_c, 2, 62, 127
1, 107683, Note_off_c, 2, 74, 127
1, 107685, Note_on_c, 12, 71, 127
1, 107987, Note_off_c, 12, 71, 127
1, 107989, Note_on_c, 7, 67, 127
1, 107989, Note_on_c, 12, 47, 127
1, 108291, Note_off_c, 12, 47, 127
1, 108291, Note_off_c, 7, 67, 127
1, 108293, Note_on_c, 4, 76, 127
1, 108293, Note_on_c, 0, 48, 127
1, 108494, Note_off_c, 4, 76, 127
1, 108496, Note_on_c, 0, 72, 127
1, 108597, Note_on_c, 7, 55, 127
1, 108696, Note_off_c, 0, 72, 127
1, 108698, Note_on_c, 7, 67, 127
1, 108894, Note_off_c, 0, 48, 127
1, 108899, Note_off_c, 7, 67, 127
1, 108899, Note_off_c, 7, 55, 127
1, 108901, Note_on_c, 2, 74, 127
1, 108901, Note_on_c, 2, 50, 127
1, 108901, Note_on_c, 12, 47, 127
1, 109102, Note_off_c, 2, 74, 127
1, 109104, Note_on_c, 12, 71, 127
1, 109203, Note_off_c, 2, 50, 127
1, 109205, Note_on_c, 7, 55, 127
1, 109304, Note_off_c, 12, 71, 127
1, 109306, Note_on_c, 7, 67, 127
1, 109502, Note_off_c, 12, 47, 127
1, 109507, Note_off_c, 7, 67, 127
1, 109507, Note_off_c, 7, 55, 127
1, 109509, Note_on_c, 0, 72, 127
1, 109509, Note_on_c, 4, 52, 127
1, 109509, Note_on_c, 10, 45, 127
1, 109659, Note_off_c, 0, 72, 127
1, 109661, Note_on_c, 12, 71, 127
1, 109811, Note_off_c, 12, 71, 127
1, 109811, Note_off_c, 4, 52, 127
1, 109813, Note_on_c, 10, 69, 127
1, 109813, Note_on_c, 7, 55, 127
1, 109963, Note_off_c, 10, 69, 127
1, 109965, Note_on_c, 12, 71, 127
1, 110110, Note_off_c, 10, 45, 127
1, 110115, Note_off_c, 12, 71, 127
1, 110115, Note_off_c, 7, 55, 127
1, 110117, Note_on_c, 0, 72, 127
1, 110117, Note_on_c, 2, 50, 127
1, 110267, Note_off_c, 0, 72, 127
1, 110269, Note_on_c, 12, 71, 127
1, 110419, Note_off_c, 12, 71, 127
1, 110421, Note_on_c, 0, 72, 127
1, 110421, Note_on_c, 6, 54, 127
1, 110571, Note_off_c, 0, 72, 127
1, 110573, Note_on_c, 10, 69, 127
1, 110718, Note_off_c, 2, 50, 127
1, 110723, Note_off_c, 10, 69, 127
1, 110723, Note_off_c, 6, 54, 127
1, 110725, Note_on_c, 12, 71, 127
1, 110725, Note_on_c, 7, 55, 127
1, 110725, Note_on_c, 2, 50, 127
1, 110725, Note_on_c, 7, 43, 127
1, 110877, Note_on_c, 7, 67, 127
1, 111025, Note_off_c, 12, 71, 127
1, 111027, Note_off_c, 7, 67, 127
1, 111029, Note_on_c, 12, 71, 127
1, 111179, Note_off_c, 12, 71, 127
1, 111181, Note_on_c, 2, 74, 127
1, 111331, Note_off_c, 2, 74, 127
1, 111333, Note_on_c, 7, 79, 127
1, 111483, Note_off_c, 7, 79, 127
1, 111485, Note_off_c, 7, 43, 127
1, 111485, Note_off_c, 2, 50, 127
1, 111485, Note_off_c, 7, 55, 127
1, 111485, Note_on_c, 12, 83, 127
1, 111635, Note_off_c, 12, 83, 127
1, 111637, Note_on_c, 7, 79, 127
1, 111637, Note_on_c, 2, 62, 127
1, 111637, Note_on_c, 12, 59, 127
1, 111637, Note_on_c, 7, 55, 127
1, 111787, Note_off_c, 7, 79, 127
1, 111789, Note_on_c, 2, 74, 127
1, 111939, Note_off_c, 2, 74, 127
1, 111939, Note_off_c, 7, 55, 127
1, 111939, Note_off_c, 12, 59, 127
1, 111939, Note_off_c, 2, 62, 127
1, 111941, Note_on_c, 4, 76, 127
1, 111941, Note_on_c, 0, 60, 127
1, 111941, Note_on_c, 7, 55, 127
1, 111941, Note_on_c, 0, 48, 127
1, 112093, Note_on_c, 0, 72, 127
1, 112241, Note_off_c, 4, 76, 127
1, 112243, Note_off_c, 0, 72, 127
1, 112245, Note_on_c, 4, 76, 127
1, 112395, Note_off_c, 4, 76, 127
1, 112397, Note_on_c, 7, 79, 127
1, 112547, Note_off_c, 7, 79, 127
1, 112549, Note_on_c, 10, 81, 127
1, 112699, Note_off_c, 10, 81, 127
1, 112701, Note_off_c, 0, 48, 127
1, 112701, Note_off_c, 7, 55, 127
1, 112701, Note_off_c, 0, 60, 127
1, 112701, Note_on_c, 0, 84, 127
1, 112851, Note_off_c, 0, 84, 127
1, 112853, Note_on_c, 10, 81, 127
1, 112853, Note_on_c, 4, 64, 127
1, 112853, Note_on_c, 0, 60, 127
1, 112853, Note_on_c, 10, 57, 127
1, 113003, Note_off_c, 10, 81, 127
1, 113005, Note_on_c, 4, 76, 127
1, 113155, Note_off_c, 4, 76, 127
1, 113155, Note_off_c, 10, 57, 127
1, 113155, Note_off_c, 0, 60, 127
1, 113155, Note_off_c, 4, 64, 127
1, 113157, Note_on_c, 6, 78, 127
1, 113157, Note_on_c, 2, 50, 127
1, 113307, Note_off_c, 2, 50, 127
1, 113307, Note_off_c, 6, 78, 127
1, 113309, Note_on_c, 4, 76, 127
1, 113309, Note_on_c, 4, 52, 127
1, 113459, Note_off_c, 4, 52, 127
1, 113459, Note_off_c, 4, 76, 127
1, 113461, Note_on_c, 2, 74, 127
1, 113461, Note_on_c, 6, 54, 127
1, 113611, Note_off_c, 6, 54, 127
1, 113611, Note_off_c, 2, 74, 127
1, 113613, Note_on_c, 4, 76, 127
1, 113613, Note_on_c, 7, 55, 127
1, 113763, Note_off_c, 7, 55, 127
1, 113763, Note_off_c, 4, 76, 127
1, 113765, Note_on_c, 6, 78, 127
1, 113765, Note_on_c, 10, 57, 127
1, 113915, Note_off_c, 10, 57, 127
1, 113915, Note_off_c, 6, 78, 127
1, 113917, Note_on_c, 4, 76, 127
1, 113917, Note_on_c, 12, 59, 127
1, 114067, Note_off_c, 12, 59, 127
1, 114067, Note_off_c, 4, 76, 127
1, 114069, Note_on_c, 6, 78, 127
1, 114069, Note_on_c, 0, 60, 127
1, 114219, Note_off_c, 0, 60, 127
1, 114219, Note_off_c, 6, 78, 127
1, 114221, Note_on_c, 2, 74, 127
1, 114221, Note_on_c, 2, 62, 127
1, 114371, Note_off_c, 2, 62, 127
1, 114371, Note_off_c, 2, 74, 127
1, 114373, Note_on_c, 7, 79, 127
1, 114373, Note_on_c, 4, 52, 127
1, 114523, Note_off_c, 4, 52, 127
1, 114523, Note_off_c, 7, 79, 127
1, 114525, Note_on_c, 6, 78, 127
1, 114525, Note_on_c, 6, 54, 127
1, 114675, Note_off_c, 6, 54, 127
1, 114675, Note_off_c, 6, 78, 127
1, 114677, Note_on_c, 4, 76, 127
1, 114677, Note_on_c, 7, 55, 127
1, 114827, Note_off_c, 7, 55, 127
1, 114827, Note_off_c, 4, 76, 127
1, 114829, Note_on_c, 6, 78, 127
1, 114829, Note_on_c, 10, 57, 127
1, 114979, Note_off_c, 10, 57, 127
1, 114979, Note_off_c, 6, 78, 127
1, 114981, Note_on_c, 7, 79, 127
1, 114981, Note_on_c, 12, 59, 127
1, 115131, Note_off_c, 12, 59, 127
1, 115131, Note_off_c, 7, 79, 127
1, 115133, Note_on_c, 6, 78, 127
1, 115133, Note_on_c, 0, 60, 127
1, 115283, Note_off_c, 0, 60, 127
1, 115283, Note_off_c, 6, 78, 127
1, 115285, Note_on_c, 7, 79, 127
1, 115285, Note_on_c, 2, 62, 127
1, 115435, Note_off_c, 2, 62, 127
1, 115435, Note_off_c, 7, 79, 127
1, 115437, Note_on_c, 4, 76, 127
1, 115437, Note_on_c, 4, 64, 127
1, 115587, Note_off_c, 4, 64, 127
1, 115587, Note_off_c, 4, 76, 127
1, 115589, Note_on_c, 10, 81, 127
1, 115589, Note_on_c, 6, 54, 127
1, 115739, Note_off_c, 6, 54, 127
1, 115739, Note_off_c, 10, 81, 127
1, 115741, Note_on_c, 7, 79, 127
1, 115741, Note_on_c, 7, 55, 127
1, 115891, Note_off_c, 7, 55, 127
1, 115891, Note_off_c, 7, 79, 127
1, 115893, Note_on_c, 6, 78, 127
1, 115893, Note_on_c, 10, 57, 127
1, 116043, Note_off_c, 10, 57, 127
1, 116043, Note_off_c, 6, 78, 127
1, 116045, Note_on_c, 7, 79, 127
1, 116045, Note_on_c, 12, 59, 127
1, 116195, Note_off_c, 12, 59, 127
1, 116195, Note_off_c, 7, 79, 127
1, 116197, Note_on_c, 10, 81, 127
1, 116197, Note_on_c, 0, 60, 127
1, 116347, Note_off_c, 0, 60, 127
1, 116347, Note_off_c, 10, 81, 127
1, 116349, Note_on_c, 7, 79, 127
1, 116349, Note_on_c, 2, 62, 127
1, 116499, Note_off_c, 2, 62, 127
1, 116499, Note_off_c, 7, 79, 127
1, 116501, Note_on_c, 10, 81, 127
1, 116501, Note_on_c, 4, 64, 127
1, 116651, Note_off_c, 4, 64, 127
1, 116651, Note_off_c, 10, 81, 127
1, 116653, Note_on_c, 6, 78, 127
1, 116653, Note_on_c, 6, 66, 127
1, 116803, Note_off_c, 6, 66, 127
1, 116803, Note_off_c, 6, 78, 127
1, 116805, Note_on_c, 12, 83, 127
1, 116805, Note_on_c, 7, 55, 127
1, 116955, Note_off_c, 7, 55, 127
1, 116955, Note_off_c, 12, 83, 127
1, 116957, Note_on_c, 10, 81, 127
1, 116957, Note_on_c, 10, 57, 127
1, 117107, Note_off_c, 10, 57, 127
1, 117107, Note_off_c, 10, 81, 127
1, 117109, Note_on_c, 7, 79, 127
1, 117109, Note_on_c, 12, 59, 127
1, 117259, Note_off_c, 12, 59, 127
1, 117259, Note_off_c, 7, 79, 127
1, 117261, Note_on_c, 10, 81, 127
1, 117261, Note_on_c, 0, 60, 127
1, 117411, Note_off_c, 0, 60, 127
1, 117411, Note_off_c, 10, 81, 127
1, 117413, Note_on_c, 7, 79, 127
1, 117413, Note_on_c, 2, 62, 127
1, 117563, Note_off_c, 7, 79, 127
1, 117565, Note_on_c, 6, 78, 127
1, 117614, Note_off_c, 6, 78, 127
1, 117616, Note_on_c, 7, 79, 127
1, 117665, Note_off_c, 7, 79, 127
1, 117667, Note_on_c, 6, 78, 127
1, 117716, Note_off_c, 2, 62, 127
1, 117718, Note_on_c, 2, 50, 127
1, 117868, Note_off_c, 6, 78, 127
1, 117870, Note_on_c, 7, 79, 127
1, 118020, Note_off_c, 7, 79, 127
1, 118020, Note_off_c, 2, 50, 127
1, 118022, Note_on_c, 7, 79, 127
1, 118022, Note_on_c, 7, 55, 127
1, 118324, Note_off_c, 7, 79, 127
1, 118326, Note_on_c, 6, 78, 127
1, 118326, Note_on_c, 7, 43, 127
1, 118476, Note_off_c, 6, 78, 127
1, 118478, Note_on_c, 4, 76, 127
1, 118628, Note_off_c, 4, 76, 127
1, 118630, Note_on_c, 2, 74, 127
1, 118693, Note_off_c, 7, 55, 127
1, 118706, Note_off_c, 7, 43, 127
1, 118780, Note_off_c, 2, 74, 127
1, 118782, Note_on_c, 0, 72, 127
1, 118782, Note_on_c, 2, 50, 127
1, 118932, Note_off_c, 2, 50, 127
1, 118932, Note_off_c, 0, 72, 127
1, 118934, Note_on_c, 12, 71, 127
1, 118934, Note_on_c, 4, 52, 127
1, 119084, Note_off_c, 4, 52, 127
1, 119084, Note_off_c, 12, 71, 127
1, 119086, Note_on_c, 10, 69, 127
1, 119086, Note_on_c, 6, 54, 127
1, 119236, Note_off_c, 6, 54, 127
1, 119236, Note_off_c, 10, 69, 127
1, 119238, Note_on_c, 7, 67, 127
1, 119238, Note_on_c, 7, 55, 127
1, 119540, Note_off_c, 7, 55, 127
1, 119542, Note_on_c, 6, 54, 127
1, 119692, Note_off_c, 6, 54, 127
1, 119694, Note_on_c, 4, 52, 127
1, 119844, Note_off_c, 4, 52, 127
1, 119846, Note_on_c, 2, 50, 127
1, 119996, Note_off_c, 2, 50, 127
1, 119998, Note_off_c, 7, 67, 127
1, 119998, Note_on_c, 0, 48, 127
1, 120148, Note_off_c, 0, 48, 127
1, 120150, Note_on_c, 7, 67, 127
1, 120150, Note_on_c, 12, 71, 127
1, 120150, Note_on_c, 2, 74, 127
1, 120150, Note_on_c, 12, 47, 127
1, 120300, Note_off_c, 12, 47, 127
1, 120318, Note_on_c, 10, 45, 127
1, 120452, Note_off_c, 2, 74, 127
1, 120452, Note_off_c, 12, 71, 127
1, 120452, Note_off_c, 7, 67, 127
1, 120468, Note_off_c, 10, 45, 127
1, 120486, Note_on_c, 2, 74, 127
1, 120486, Note_on_c, 7, 79, 127
1, 120486, Note_on_c, 7, 67, 127
1, 120486, Note_on_c, 12, 71, 127
1, 120486, Note_on_c, 7, 43, 127
1, 122908, Note_off_c, 7, 43, 127
1, 122908, Note_off_c, 12, 71, 127
1, 122908, Note_off_c, 7, 67, 127
1, 122908, Note_off_c, 7, 79, 127
1, 122908, Note_off_c, 2, 74, 127
1, 125336, Note_on_c, 4, 64, 127
1, 125336, Note_on_c, 12, 71, 127
1, 125336, Note_on_c, 12, 59, 127
1, 125336, Note_on_c, 7, 55, 127
1, 125336, Note_on_c, 4, 52, 127
1, 127009, Note_off_c, 4, 52, 127
1, 127009, Note_off_c, 7, 55, 127
1, 127009, Note_off_c, 12, 59, 127
1, 127009, Note_off_c, 12, 71, 127
1, 127009, Note_off_c, 4, 64, 127
1, 127406, Note_on_c, 10, 69, 127
1, 127845, Note_off_c, 10, 69, 127
1, 127849, Note_on_c, 10, 69, 127
1, 127849, Note_on_c, 4, 64, 127
1, 127849, Note_on_c, 10, 57, 127
1, 127849, Note_on_c, 0, 48, 127
1, 127849, Note_on_c, 4, 52, 127
1, 128266, Note_off_c, 10, 69, 127
1, 128268, Note_on_c, 10, 69, 127
1, 128678, Note_off_c, 4, 64, 127
1, 128685, Note_off_c, 10, 69, 127
1, 128685, Note_off_c, 4, 52, 127
1, 128685, Note_off_c, 0, 48, 127
1, 128685, Note_off_c, 10, 57, 127
1, 128687, Note_on_c, 10, 69, 127
1, 128687, Note_on_c, 3, 63, 127
1, 128687, Note_on_c, 12, 59, 127
1, 128687, Note_on_c, 12, 47, 127
1, 128687, Note_on_c, 6, 54, 127
1, 129516, Note_off_c, 3, 63, 127
1, 129712, Note_off_c, 12, 47, 127
1, 129723, Note_off_c, 6, 54, 127
1, 129734, Note_off_c, 12, 59, 127
1, 129734, Note_on_c, 10, 81, 127
1, 129941, Note_off_c, 10, 81, 127
1, 129941, Note_off_c, 10, 69, 127
1, 129943, Note_on_c, 6, 78, 127
1, 130150, Note_off_c, 6, 78, 127
1, 130152, Note_on_c, 3, 75, 127
1, 130359, Note_off_c, 3, 75, 127
1, 130361, Note_on_c, 10, 69, 127
1, 130568, Note_off_c, 10, 69, 127
1, 130570, Note_on_c, 6, 78, 127
1, 130777, Note_off_c, 6, 78, 127
1, 130779, Note_on_c, 3, 75, 127
1, 130986, Note_off_c, 3, 75, 127
1, 130988, Note_on_c, 10, 69, 127
1, 131195, Note_off_c, 10, 69, 127
1, 131197, Note_on_c, 6, 66, 127
1, 131404, Note_off_c, 6, 66, 127
1, 131406, Note_on_c, 3, 75, 127
1, 131613, Note_off_c, 3, 75, 127
1, 131615, Note_on_c, 10, 69, 127
1, 131822, Note_off_c, 10, 69, 127
1, 131824, Note_on_c, 6, 66, 127
1, 132031, Note_off_c, 6, 66, 127
1, 132033, Note_on_c, 12, 59, 127
1, 132240, Note_off_c, 12, 59, 127
1, 132242, Note_on_c, 3, 63, 127
1, 132449, Note_off_c, 3, 63, 127
1, 132451, Note_on_c, 6, 66, 127
1, 132658, Note_off_c, 6, 66, 127
1, 132660, Note_on_c, 10, 69, 127
1, 132867, Note_off_c, 10, 69, 127
1, 132869, Note_on_c, 3, 63, 127
1, 133085, Note_off_c, 3, 63, 127
1, 133086, Note_on_c, 0, 72, 127
1, 133293, Note_off_c, 0, 72, 127
1, 133295, Note_on_c, 12, 71, 127
1, 133295, Note_on_c, 3, 63, 127
1, 133295, Note_on_c, 12, 59, 127
1, 133295, Note_on_c, 6, 54, 127
1, 133295, Note_on_c, 12, 47, 127
1, 133502, Note_off_c, 12, 71, 127
1, 133504, Note_on_c, 10, 69, 127
1, 133711, Note_off_c, 10, 69, 127
1, 133711, Note_off_c, 12, 47, 127
1, 133711, Note_off_c, 6, 54, 127
1, 133711, Note_off_c, 12, 59, 127
1, 133711, Note_off_c, 3, 63, 127
1, 133713, Note_on_c, 7, 67, 127
1, 133713, Note_on_c, 4, 64, 127
1, 133713, Note_on_c, 12, 59, 127
1, 133713, Note_on_c, 4, 52, 127
1, 133713, Note_on_c, 4, 40, 127
1, 135386, Note_off_c, 4, 40, 127
1, 135386, Note_off_c, 4, 52, 127
1, 135386, Note_off_c, 12, 59, 127
1, 135386, Note_off_c, 4, 64, 127
1, 135386, Note_off_c, 7, 67, 127
1, 135463, Note_on_c, 1, 73, 127
1, 135902, Note_off_c, 1, 73, 127
1, 135906, Note_on_c, 1, 73, 127
1, 135906, Note_on_c, 7, 67, 127
1, 135906, Note_on_c, 1, 61, 127
1, 135906, Note_on_c, 4, 52, 127
1, 136323, Note_off_c, 1, 73, 127
1, 136325, Note_on_c, 1, 73, 127
1, 136735, Note_off_c, 7, 67, 127
1, 136742, Note_off_c, 1, 73, 127
1, 136742, Note_off_c, 4, 52, 127
1, 136742, Note_off_c, 1, 61, 127
1, 136744, Note_on_c, 6, 66, 127
1, 136744, Note_on_c, 6, 78, 127
1, 136744, Note_on_c, 1, 61, 127
1, 136744, Note_on_c, 2, 50, 127
1, 137106, Note_off_c, 6, 78, 127
1, 137108, Note_on_c, 2, 74, 127
1, 137259, Note_on_c, 1, 73, 127
1, 137266, Note_off_c, 2, 74, 127
1, 137417, Note_off_c, 1, 73, 127
1, 137421, Note_on_c, 12, 71, 127
1, 137572, Note_off_c, 12, 71, 127
1, 137574, Note_off_c, 1, 61, 127
1, 137574, Note_off_c, 6, 66, 127
1, 137583, Note_on_c, 12, 71, 127
1, 137792, Note_off_c, 2, 50, 127
1, 138001, Note_on_c, 6, 66, 127
1, 138001, Note_on_c, 2, 50, 127
1, 138001, Note_on_c, 12, 59, 127
1, 138418, Note_off_c, 12, 59, 127
1, 138418, Note_off_c, 2, 50, 127
1, 138418, Note_off_c, 6, 66, 127
1, 138420, Note_on_c, 4, 64, 127
1, 138420, Note_on_c, 0, 48, 127
1, 138420, Note_on_c, 0, 60, 127
1, 138629, Note_off_c, 12, 71, 127
1, 138836, Note_off_c, 4, 64, 127
1, 138838, Note_on_c, 4, 76, 127
1, 139045, Note_off_c, 4, 76, 127
1, 139047, Note_on_c, 0, 72, 127
1, 139254, Note_off_c, 0, 72, 127
1, 139256, Note_on_c, 10, 69, 127
1, 139463, Note_off_c, 10, 69, 127
1, 139465, Note_off_c, 0, 60, 127
1, 139465, Note_off_c, 0, 48, 127
1, 139465, Note_on_c, 4, 64, 127
1, 139672, Note_off_c, 4, 64, 127
1, 139674, Note_on_c, 6, 66, 127
1, 139674, Note_on_c, 4, 64, 127
1, 139674, Note_on_c, 12, 59, 127
1, 139674, Note_on_c, 0, 48, 127
1, 139881, Note_off_c, 6, 66, 127
1, 139883, Note_on_c, 7, 67, 127
1, 140088, Note_off_c, 4, 64, 127
1, 140090, Note_off_c, 7, 67, 127
1, 140090, Note_off_c, 0, 48, 127
1, 140090, Note_off_c, 12, 59, 127
1, 140092, Note_on_c, 6, 66, 127
1, 140092, Note_on_c, 2, 62, 127
1, 140092, Note_on_c, 0, 48, 127
1, 140092, Note_on_c, 10, 57, 127
1, 141742, Note_off_c, 10, 57, 127
1, 141742, Note_off_c, 0, 48, 127
1, 141742, Note_off_c, 2, 62, 127
1, 141742, Note_off_c, 6, 66, 127
1, 141768, Note_on_c, 2, 62, 127
1, 141768, Note_on_c, 8, 68, 127
1, 141768, Note_on_c, 12, 59, 127
1, 141768, Note_on_c, 12, 47, 127
1, 142187, Note_on_c, 5, 77, 127
1, 142597, Note_off_c, 8, 68, 127
1, 142597, Note_off_c, 2, 62, 127
1, 142604, Note_off_c, 5, 77, 127
1, 142606, Note_on_c, 5, 77, 127
1, 142815, Note_off_c, 12, 47, 127
1, 142815, Note_off_c, 12, 59, 127
1, 143022, Note_off_c, 5, 77, 127
1, 143024, Note_on_c, 2, 74, 127
1, 143024, Note_on_c, 5, 77, 127
1, 143024, Note_on_c, 12, 71, 127
1, 143024, Note_on_c, 2, 50, 127
1, 143024, Note_on_c, 12, 47, 127
1, 143441, Note_off_c, 12, 47, 127
1, 143441, Note_off_c, 2, 50, 127
1, 143441, Note_off_c, 12, 71, 127
1, 143441, Note_off_c, 5, 77, 127
1, 143441, Note_off_c, 2, 74, 127
1, 143443, Note_on_c, 8, 68, 127
1, 143443, Note_on_c, 2, 74, 127
1, 143443, Note_on_c, 5, 77, 127
1, 143443, Note_on_c, 4, 52, 127
1, 143443, Note_on_c, 4, 40, 127
1, 144490, Note_off_c, 4, 40, 127
1, 144501, Note_off_c, 4, 52, 127
1, 144512, Note_off_c, 8, 68, 127
1, 144523, Note_off_c, 2, 74, 127
1, 144698, Note_off_c, 5, 77, 127
1, 144700, Note_on_c, 12, 83, 127
1, 144907, Note_off_c, 12, 83, 127
1, 144909, Note_on_c, 8, 80, 127
1, 145116, Note_off_c, 8, 80, 127
1, 145118, Note_on_c, 2, 74, 127
1, 145325, Note_off_c, 2, 74, 127
1, 145327, Note_on_c, 12, 71, 127
1, 145534, Note_off_c, 12, 71, 127
1, 145536, Note_on_c, 8, 80, 127
1, 145743, Note_off_c, 8, 80, 127
1, 145745, Note_on_c, 2, 74, 127
1, 145952, Note_off_c, 2, 74, 127
1, 145954, Note_on_c, 12, 71, 127
1, 146161, Note_off_c, 12, 71, 127
1, 146163, Note_on_c, 5, 65, 127
1, 146370, Note_off_c, 5, 65, 127
1, 146372, Note_on_c, 2, 74, 127
1, 146579, Note_off_c, 2, 74, 127
1, 146581, Note_on_c, 12, 71, 127
1, 146788, Note_off_c, 12, 71, 127
1, 146790, Note_on_c, 5, 65, 127
1, 146997, Note_off_c, 5, 65, 127
1, 146999, Note_on_c, 2, 62, 127
1, 147206, Note_off_c, 2, 62, 127
1, 147208, Note_on_c, 12, 59, 127
1, 147415, Note_off_c, 12, 59, 127
1, 147417, Note_on_c, 5, 77, 127
1, 147624, Note_off_c, 5, 77, 127
1, 147626, Note_on_c, 4, 76, 127
1, 147626, Note_on_c, 12, 71, 127
1, 147626, Note_on_c, 4, 64, 127
1, 147626, Note_on_c, 8, 56, 127
1, 147626, Note_on_c, 4, 52, 127
1, 148252, Note_off_c, 4, 76, 127
1, 148254, Note_on_c, 2, 74, 127
1, 148455, Note_off_c, 4, 64, 127
1, 148455, Note_off_c, 12, 71, 127
1, 148462, Note_off_c, 2, 74, 127
1, 148462, Note_off_c, 4, 52, 127
1, 148462, Note_off_c, 8, 56, 127
1, 148464, Note_on_c, 0, 72, 127
1, 148464, Note_on_c, 10, 57, 127
1, 148464, Note_on_c, 4, 64, 127
1, 148671, Note_off_c, 4, 64, 127
1, 148671, Note_off_c, 0, 72, 127
1, 148673, Note_on_c, 12, 71, 127
1, 148673, Note_on_c, 2, 62, 127
1, 148880, Note_off_c, 2, 62, 127
1, 148880, Note_off_c, 12, 71, 127
1, 148882, Note_on_c, 0, 72, 127
1, 148882, Note_on_c, 10, 69, 127
1, 148882, Note_on_c, 0, 60, 127
1, 149074, Note_off_c, 10, 57, 127
1, 149089, Note_off_c, 0, 60, 127
1, 149089, Note_off_c, 10, 69, 127
1, 149091, Note_on_c, 7, 67, 127
1, 149091, Note_on_c, 12, 59, 127
1, 149298, Note_off_c, 12, 59, 127
1, 149298, Note_off_c, 7, 67, 127
1, 149300, Note_on_c, 6, 66, 127
1, 149300, Note_on_c, 3, 51, 127
1, 149300, Note_on_c, 10, 57, 127
1, 149507, Note_off_c, 10, 57, 127
1, 149509, Note_on_c, 6, 54, 127
1, 149710, Note_off_c, 0, 72, 127
1, 149717, Note_off_c, 6, 54, 127
1, 149719, Note_on_c, 12, 71, 127
1, 149719, Note_on_c, 12, 59, 127
1, 149926, Note_off_c, 12, 71, 127
1, 149928, Note_on_c, 10, 69, 127
1, 150129, Note_off_c, 3, 51, 127
1, 150136, Note_off_c, 10, 69, 127
1, 150138, Note_on_c, 7, 67, 127
1, 150138, Note_on_c, 4, 52, 127
1, 150330, Note_off_c, 12, 59, 127
1, 150345, Note_off_c, 7, 67, 127
1, 150347, Note_off_c, 6, 66, 127
1, 150347, Note_on_c, 6, 66, 127
1, 150347, Note_on_c, 10, 57, 127
1, 150554, Note_off_c, 10, 57, 127
1, 150554, Note_off_c, 6, 66, 127
1, 150556, Note_on_c, 7, 67, 127
1, 150556, Note_on_c, 4, 64, 127
1, 150556, Note_on_c, 7, 55, 127
1, 150763, Note_off_c, 7, 55, 127
1, 150763, Note_off_c, 4, 64, 127
1, 150765, Note_on_c, 2, 62, 127
1, 150765, Note_on_c, 6, 54, 127
1, 150966, Note_off_c, 4, 52, 127
1, 150973, Note_off_c, 6, 54, 127
1, 150973, Note_off_c, 2, 62, 127
1, 150975, Note_on_c, 1, 61, 127
1, 150975, Note_on_c, 11, 46, 127
1, 150975, Note_on_c, 4, 52, 127
1, 151182, Note_off_c, 4, 52, 127
1, 151192, Note_on_c, 1, 49, 127
1, 151385, Note_off_c, 7, 67, 127
1, 151400, Note_off_c, 1, 49, 127
1, 151410, Note_on_c, 6, 54, 127
1, 151410, Note_on_c, 6, 66, 127
1, 151617, Note_off_c, 6, 66, 127
1, 151617, Note_off_c, 6, 54, 127
1, 151651, Note_on_c, 4, 64, 127
1, 151651, Note_on_c, 7, 55, 127
1, 151866, Note_off_c, 11, 46, 127
1, 151869, Note_off_c, 4, 64, 127
1, 151869, Note_off_c, 1, 61, 127
1, 151870, Note_off_c, 7, 55, 127
1, 151909, Note_on_c, 10, 45, 127
1, 151909, Note_on_c, 0, 48, 127
1, 151909, Note_on_c, 5, 53, 127
1, 151909, Note_on_c, 0, 60, 127
1, 151909, Note_on_c, 5, 65, 127
1, 151909, Note_on_c, 10, 57, 127
1, 153009, Note_off_c, 10, 57, 127
1, 153009, Note_off_c, 5, 65, 127
1, 153009, Note_off_c, 0, 60, 127
1, 153009, Note_off_c, 5, 53, 127
1, 153009, Note_off_c, 0, 48, 127
1, 153009, Note_off_c, 10, 45, 127
1, 153550, Note_on_c, 3, 75, 127
1, 153550, Note_on_c, 12, 71, 127
1, 153550, Note_on_c, 6, 66, 127
1, 153550, Note_on_c, 10, 45, 127
1, 153550, Note_on_c, 6, 54, 127
1, 153550, Note_on_c, 12, 47, 127
1, 153550, Note_on_c, 3, 51, 127
1, 153967, Note_off_c, 3, 51, 127
1, 153967, Note_off_c, 12, 47, 127
1, 153967, Note_off_c, 6, 54, 127
1, 153967, Note_off_c, 10, 45, 127
1, 153967, Note_off_c, 6, 66, 127
1, 153967, Note_off_c, 12, 71, 127
1, 153967, Note_off_c, 3, 75, 127
1, 153969, Note_on_c, 4, 64, 127
1, 153969, Note_on_c, 4, 76, 127
1, 153969, Note_on_c, 12, 71, 127
1, 153969, Note_on_c, 7, 55, 127
1, 153969, Note_on_c, 4, 52, 127
1, 153969, Note_on_c, 12, 47, 127
1, 153969, Note_on_c, 7, 43, 127
1, 154386, Note_off_c, 7, 43, 127
1, 154386, Note_off_c, 12, 47, 127
1, 154386, Note_off_c, 4, 52, 127
1, 154386, Note_off_c, 7, 55, 127
1, 154386, Note_off_c, 12, 71, 127
1, 154386, Note_off_c, 4, 76, 127
1, 154386, Note_off_c, 4, 64, 127
1, 154388, Note_on_c, 4, 64, 127
1, 154388, Note_on_c, 7, 67, 127
1, 154388, Note_on_c, 4, 52, 127
1, 154388, Note_on_c, 10, 45, 127
1, 154388, Note_on_c, 0, 60, 127
1, 154595, Note_off_c, 7, 67, 127
1, 154595, Note_off_c, 4, 64, 127
1, 154597, Note_on_c, 6, 66, 127
1, 154804, Note_off_c, 6, 66, 127
1, 154804, Note_off_c, 0, 60, 127
1, 154804, Note_off_c, 10, 45, 127
1, 154804, Note_off_c, 4, 52, 127
1, 154806, Note_on_c, 6, 66, 127
1, 154806, Note_on_c, 12, 47, 127
1, 154806, Note_on_c, 6, 54, 127
1, 155223, Note_off_c, 6, 54, 127
1, 155225, Note_on_c, 3, 63, 127
1, 155225, Note_on_c, 10, 57, 127
1, 155417, Note_off_c, 6, 66, 127
1, 155432, Note_off_c, 3, 63, 127
1, 155434, Note_on_c, 4, 64, 127
1, 155635, Note_off_c, 12, 47, 127
1, 155642, Note_off_c, 4, 64, 127
1, 155642, Note_off_c, 10, 57, 127
1, 155644, Note_on_c, 12, 59, 127
1, 155644, Note_on_c, 4, 64, 127
1, 155644, Note_on_c, 7, 55, 127
1, 155644, Note_on_c, 4, 40, 127
1, 158944, Note_off_c, 4, 40, 127
1, 158944, Note_off_c, 7, 55, 127
1, 158944, Note_off_c, 4, 64, 127
1, 158944, Note_off_c, 12, 59, 127
1, 161223, Note_on_c, 12, 71, 127
1, 161223, Note_on_c, 7, 55, 127
1, 161441, Note_off_c, 7, 55, 127
1, 161441, Note_off_c, 12, 71, 127
1, 161450, Note_on_c, 12, 71, 127
1, 161450, Note_on_c, 12, 59, 127
1, 161558, Note_off_c, 12, 71, 127
1, 161560, Note_on_c, 10, 69, 127
1, 161668, Note_off_c, 10, 69, 127
1, 161668, Note_off_c, 12, 59, 127
1, 161670, Note_on_c, 7, 67, 127
1, 161670, Note_on_c, 2, 62, 127
1, 161888, Note_off_c, 2, 62, 127
1, 161888, Note_off_c, 7, 67, 127
1, 161890, Note_on_c, 2, 74, 127
1, 161890, Note_on_c, 12, 59, 127
1, 162108, Note_off_c, 12, 59, 127
1, 162108, Note_off_c, 2, 74, 127
1, 162110, Note_on_c, 2, 74, 127
1, 162110, Note_on_c, 2, 62, 127
1, 162218, Note_off_c, 2, 74, 127
1, 162220, Note_on_c, 0, 72, 127
1, 162328, Note_off_c, 0, 72, 127
1, 162328, Note_off_c, 2, 62, 127
1, 162330, Note_on_c, 12, 71, 127
1, 162330, Note_on_c, 7, 67, 127
1, 162548, Note_off_c, 7, 67, 127
1, 162548, Note_off_c, 12, 71, 127
1, 162550, Note_on_c, 4, 76, 127
1, 162550, Note_on_c, 0, 60, 127
1, 162768, Note_off_c, 0, 60, 127
1, 162768, Note_off_c, 4, 76, 127
1, 162770, Note_on_c, 4, 76, 127
1, 162770, Note_on_c, 4, 64, 127
1, 162878, Note_off_c, 4, 76, 127
1, 162880, Note_on_c, 2, 74, 127
1, 162988, Note_off_c, 2, 74, 127
1, 162988, Note_off_c, 4, 64, 127
1, 162990, Note_on_c, 0, 72, 127
1, 162990, Note_on_c, 7, 67, 127
1, 163208, Note_off_c, 7, 67, 127
1, 163208, Note_off_c, 0, 72, 127
1, 163210, Note_on_c, 2, 74, 127
1, 163210, Note_on_c, 7, 55, 127
1, 163428, Note_off_c, 7, 55, 127
1, 163430, Note_on_c, 6, 54, 127
1, 163538, Note_off_c, 6, 54, 127
1, 163540, Note_on_c, 4, 52, 127
1, 163648, Note_off_c, 4, 52, 127
1, 163650, Note_on_c, 2, 50, 127
1, 163691, Note_off_c, 2, 74, 127
1, 163758, Note_off_c, 2, 50, 127
1, 163760, Note_on_c, 0, 48, 127
1, 163868, Note_off_c, 0, 48, 127
1, 163870, Note_on_c, 7, 79, 127
1, 163870, Note_on_c, 12, 47, 127
1, 164088, Note_off_c, 12, 47, 127
1, 164088, Note_off_c, 7, 79, 127
1, 164090, Note_on_c, 7, 79, 127
1, 164090, Note_on_c, 2, 50, 127
1, 164198, Note_off_c, 7, 79, 127
1, 164200, Note_on_c, 5, 77, 127
1, 164308, Note_off_c, 5, 77, 127
1, 164308, Note_off_c, 2, 50, 127
1, 164310, Note_on_c, 4, 76, 127
1, 164310, Note_on_c, 7, 55, 127
1, 164418, Note_off_c, 4, 76, 127
1, 164420, Note_on_c, 2, 74, 127
1, 164528, Note_off_c, 2, 74, 127
1, 164528, Note_off_c, 7, 55, 127
1, 164530, Note_on_c, 4, 76, 127
1, 164530, Note_on_c, 0, 48, 127
1, 164748, Note_off_c, 0, 48, 127
1, 164748, Note_off_c, 4, 76, 127
1, 164750, Note_on_c, 4, 76, 127
1, 164750, Note_on_c, 4, 52, 127
1, 164858, Note_off_c, 4, 76, 127
1, 164860, Note_on_c, 2, 74, 127
1, 164968, Note_off_c, 2, 74, 127
1, 164968, Note_off_c, 4, 52, 127
1, 164970, Note_on_c, 0, 72, 127
1, 164970, Note_on_c, 7, 55, 127
1, 165078, Note_off_c, 0, 72, 127
1, 165080, Note_on_c, 12, 71, 127
1, 165188, Note_off_c, 12, 71, 127
1, 165188, Note_off_c, 7, 55, 127
1, 165190, Note_on_c, 10, 69, 127
1, 165190, Note_on_c, 2, 50, 127
1, 165408, Note_off_c, 2, 50, 127
1, 165408, Note_off_c, 10, 69, 127
1, 165410, Note_on_c, 2, 74, 127
1, 165410, Note_on_c, 7, 55, 127
1, 165518, Note_off_c, 2, 74, 127
1, 165520, Note_on_c, 0, 72, 127
1, 165628, Note_off_c, 0, 72, 127
1, 165628, Note_off_c, 7, 55, 127
1, 165630, Note_on_c, 12, 71, 127
1, 165630, Note_on_c, 6, 54, 127
1, 165738, Note_off_c, 12, 71, 127
1, 165740, Note_on_c, 10, 69, 127
1, 165848, Note_off_c, 10, 69, 127
1, 165848, Note_off_c, 6, 54, 127
1, 165850, Note_on_c, 12, 71, 127
1, 165850, Note_on_c, 7, 55, 127
1, 165960, Note_on_c, 7, 67, 127
1, 165987, Note_off_c, 12, 71, 127
1, 166068, Note_off_c, 7, 67, 127
1, 166068, Note_off_c, 7, 55, 127
1, 166070, Note_on_c, 2, 62, 127
1, 166070, Note_on_c, 12, 59, 127
1, 166178, Note_off_c, 2, 62, 127
1, 166180, Note_on_c, 7, 67, 127
1, 166288, Note_off_c, 7, 67, 127
1, 166288, Note_off_c, 12, 59, 127
1, 166290, Note_on_c, 12, 71, 127
1, 166290, Note_on_c, 2, 62, 127
1, 166398, Note_off_c, 12, 71, 127
1, 166400, Note_on_c, 7, 67, 127
1, 166508, Note_off_c, 7, 67, 127
1, 166508, Note_off_c, 2, 62, 127
1, 166510, Note_on_c, 10, 69, 127
1, 166510, Note_on_c, 6, 54, 127
1, 166618, Note_off_c, 10, 69, 127
1, 166620, Note_on_c, 6, 66, 127
1, 166728, Note_off_c, 6, 66, 127
1, 166728, Note_off_c, 6, 54, 127
1, 166730, Note_on_c, 2, 62, 127
1, 166730, Note_on_c, 10, 57, 127
1, 166838, Note_off_c, 2, 62, 127
1, 166840, Note_on_c, 6, 66, 127
1, 166948, Note_off_c, 6, 66, 127
1, 166948, Note_off_c, 10, 57, 127
1, 166950, Note_on_c, 10, 69, 127
1, 166950, Note_on_c, 2, 62, 127
1, 167058, Note_off_c, 10, 69, 127
1, 167060, Note_on_c, 6, 66, 127
1, 167168, Note_off_c, 6, 66, 127
1, 167168, Note_off_c, 2, 62, 127
1, 167170, Note_on_c, 12, 71, 127
1, 167170, Note_on_c, 7, 55, 127
1, 167280, Note_on_c, 7, 67, 127
1, 167290, Note_off_c, 12, 71, 127
1, 167388, Note_off_c, 7, 67, 127
1, 167388, Note_off_c, 7, 55, 127
1, 167390, Note_on_c, 4, 64, 127
1, 167390, Note_on_c, 12, 59, 127
1, 167498, Note_off_c, 4, 64, 127
1, 167500, Note_on_c, 7, 67, 127
1, 167608, Note_off_c, 7, 67, 127
1, 167608, Note_off_c, 12, 59, 127
1, 167610, Note_on_c, 12, 71, 127
1, 167610, Note_on_c, 4, 64, 127
1, 167718, Note_off_c, 12, 71, 127
1, 167720, Note_on_c, 7, 67, 127
1, 167828, Note_off_c, 7, 67, 127
1, 167828, Note_off_c, 4, 64, 127
1, 167830, Note_on_c, 1, 73, 127
1, 167830, Note_on_c, 10, 57, 127
1, 167940, Note_on_c, 10, 69, 127
1, 167967, Note_off_c, 1, 73, 127
1, 168048, Note_off_c, 10, 69, 127
1, 168048, Note_off_c, 10, 57, 127
1, 168050, Note_on_c, 6, 66, 127
1, 168050, Note_on_c, 1, 61, 127
1, 168158, Note_off_c, 6, 66, 127
1, 168160, Note_on_c, 10, 69, 127
1, 168268, Note_off_c, 10, 69, 127
1, 168268, Note_off_c, 1, 61, 127
1, 168270, Note_on_c, 1, 73, 127
1, 168270, Note_on_c, 6, 66, 127
1, 168378, Note_off_c, 1, 73, 127
1, 168380, Note_on_c, 10, 69, 127
1, 168488, Note_off_c, 10, 69, 127
1, 168488, Note_off_c, 6, 66, 127
1, 168490, Note_on_c, 2, 74, 127
1, 168490, Note_on_c, 12, 59, 127
1, 168600, Note_on_c, 12, 71, 127
1, 168645, Note_off_c, 2, 74, 127
1, 168708, Note_off_c, 12, 71, 127
1, 168708, Note_off_c, 12, 59, 127
1, 168710, Note_on_c, 7, 67, 127
1, 168710, Note_on_c, 2, 62, 127
1, 168818, Note_off_c, 7, 67, 127
1, 168820, Note_on_c, 12, 71, 127
1, 168928, Note_off_c, 12, 71, 127
1, 168928, Note_off_c, 2, 62, 127
1, 168930, Note_on_c, 2, 74, 127
1, 168930, Note_on_c, 7, 67, 127
1, 169038, Note_off_c, 2, 74, 127
1, 169040, Note_on_c, 12, 71, 127
1, 169148, Note_off_c, 12, 71, 127
1, 169148, Note_off_c, 7, 67, 127
1, 169150, Note_on_c, 4, 76, 127
1, 169150, Note_on_c, 1, 61, 127
1, 169260, Note_on_c, 1, 73, 127
1, 169322, Note_off_c, 4, 76, 127
1, 169368, Note_off_c, 1, 73, 127
1, 169368, Note_off_c, 1, 61, 127
1, 169370, Note_on_c, 10, 69, 127
1, 169370, Note_on_c, 4, 64, 127
1, 169478, Note_off_c, 10, 69, 127
1, 169480, Note_on_c, 1, 73, 127
1, 169588, Note_off_c, 1, 73, 127
1, 169588, Note_off_c, 4, 64, 127
1, 169590, Note_on_c, 4, 76, 127
1, 169590, Note_on_c, 10, 69, 127
1, 169698, Note_off_c, 4, 76, 127
1, 169700, Note_on_c, 1, 73, 127
1, 169808, Note_off_c, 1, 73, 127
1, 169808, Note_off_c, 10, 69, 127
1, 169810, Note_on_c, 6, 78, 127
1, 169810, Note_on_c, 2, 62, 127
1, 169920, Note_on_c, 2, 74, 127
1, 169999, Note_off_c, 6, 78, 127
1, 170028, Note_off_c, 2, 74, 127
1, 170028, Note_off_c, 2, 62, 127
1, 170030, Note_on_c, 12, 71, 127
1, 170030, Note_on_c, 6, 66, 127
1, 170138, Note_off_c, 12, 71, 127
1, 170140, Note_on_c, 2, 74, 127
1, 170248, Note_off_c, 2, 74, 127
1, 170248, Note_off_c, 6, 66, 127
1, 170250, Note_on_c, 6, 78, 127
1, 170250, Note_on_c, 12, 71, 127
1, 170358, Note_off_c, 6, 78, 127
1, 170360, Note_on_c, 2, 74, 127
1, 170468, Note_off_c, 2, 74, 127
1, 170468, Note_off_c, 12, 71, 127
1, 170470, Note_on_c, 7, 79, 127
1, 170470, Note_on_c, 7, 55, 127
1, 170578, Note_off_c, 7, 79, 127
1, 170580, Note_on_c, 12, 83, 127
1, 170688, Note_off_c, 12, 83, 127
1, 170688, Note_off_c, 7, 55, 127
1, 170690, Note_on_c, 4, 76, 127
1, 170690, Note_on_c, 12, 59, 127
1, 170798, Note_off_c, 4, 76, 127
1, 170800, Note_on_c, 7, 79, 127
1, 170908, Note_off_c, 7, 79, 127
1, 170908, Note_off_c, 12, 59, 127
1, 170910, Note_on_c, 12, 71, 127
1, 170910, Note_on_c, 4, 64, 127
1, 171018, Note_off_c, 12, 71, 127
1, 171020, Note_on_c, 2, 74, 127
1, 171128, Note_off_c, 2, 74, 127
1, 171128, Note_off_c, 4, 64, 127
1, 171130, Note_on_c, 1, 73, 127
1, 171130, Note_on_c, 10, 57, 127
1, 171238, Note_off_c, 1, 73, 127
1, 171240, Note_on_c, 4, 76, 127
1, 171348, Note_off_c, 4, 76, 127
1, 171348, Note_off_c, 10, 57, 127
1, 171350, Note_on_c, 10, 69, 127
1, 171350, Note_on_c, 1, 61, 127
1, 171458, Note_off_c, 10, 69, 127
1, 171460, Note_on_c, 1, 73, 127
1, 171568, Note_off_c, 1, 73, 127
1, 171568, Note_off_c, 1, 61, 127
1, 171570, Note_on_c, 1, 61, 127
1, 171570, Note_on_c, 4, 64, 127
1, 171678, Note_off_c, 1, 61, 127
1, 171680, Note_on_c, 7, 67, 127
1, 171767, Note_off_c, 4, 64, 127
1, 171784, Note_off_c, 7, 67, 127
1, 171797, Note_on_c, 6, 66, 127
1, 171797, Note_on_c, 2, 50, 127
1, 172015, Note_off_c, 2, 50, 127
1, 172015, Note_off_c, 6, 66, 127
1, 172017, Note_on_c, 6, 66, 127
1, 172017, Note_on_c, 6, 54, 127
1, 172125, Note_off_c, 6, 66, 127
1, 172127, Note_on_c, 4, 64, 127
1, 172235, Note_off_c, 4, 64, 127
1, 172235, Note_off_c, 6, 54, 127
1, 172237, Note_on_c, 2, 62, 127
1, 172237, Note_on_c, 10, 57, 127
1, 172434, Note_off_c, 2, 62, 127
1, 172455, Note_off_c, 10, 57, 127
1, 172457, Note_on_c, 10, 69, 127
1, 172457, Note_on_c, 6, 54, 127
1, 172675, Note_off_c, 6, 54, 127
1, 172675, Note_off_c, 10, 69, 127
1, 172677, Note_on_c, 10, 69, 127
1, 172677, Note_on_c, 10, 57, 127
1, 172785, Note_off_c, 10, 69, 127
1, 172787, Note_on_c, 7, 67, 127
1, 172895, Note_off_c, 7, 67, 127
1, 172895, Note_off_c, 10, 57, 127
1, 172897, Note_on_c, 6, 66, 127
1, 172897, Note_on_c, 2, 62, 127
1, 173094, Note_off_c, 6, 66, 127
1, 173115, Note_off_c, 2, 62, 127
1, 173117, Note_on_c, 12, 71, 127
1, 173117, Note_on_c, 7, 55, 127
1, 173335, Note_off_c, 7, 55, 127
1, 173335, Note_off_c, 12, 71, 127
1, 173337, Note_on_c, 12, 71, 127
1, 173337, Note_on_c, 12, 59, 127
1, 173445, Note_off_c, 12, 71, 127
1, 173447, Note_on_c, 10, 69, 127
1, 173555, Note_off_c, 10, 69, 127
1, 173555, Note_off_c, 12, 59, 127
1, 173557, Note_on_c, 7, 67, 127
1, 173557, Note_on_c, 2, 62, 127
1, 173754, Note_off_c, 7, 67, 127
1, 173775, Note_off_c, 2, 62, 127
1, 173777, Note_on_c, 10, 69, 127
1, 173777, Note_on_c, 2, 50, 127
1, 173995, Note_off_c, 2, 50, 127
1, 173997, Note_on_c, 1, 49, 127
1, 174105, Note_off_c, 1, 49, 127
1, 174107, Note_on_c, 12, 47, 127
1, 174215, Note_off_c, 12, 47, 127
1, 174217, Note_on_c, 10, 45, 127
1, 174325, Note_off_c, 10, 45, 127
1, 174327, Note_on_c, 7, 43, 127
1, 174435, Note_off_c, 7, 43, 127
1, 174435, Note_off_c, 10, 69, 127
1, 174437, Note_on_c, 2, 74, 127
1, 174437, Note_on_c, 6, 42, 127
1, 174655, Note_off_c, 6, 42, 127
1, 174655, Note_off_c, 2, 74, 127
1, 174657, Note_on_c, 2, 74, 127
1, 174657, Note_on_c, 10, 45, 127
1, 174765, Note_off_c, 2, 74, 127
1, 174767, Note_on_c, 0, 72, 127
1, 174875, Note_off_c, 0, 72, 127
1, 174875, Note_off_c, 10, 45, 127
1, 174877, Note_on_c, 12, 71, 127
1, 174877, Note_on_c, 2, 50, 127
1, 174985, Note_off_c, 12, 71, 127
1, 174987, Note_on_c, 10, 69, 127
1, 175095, Note_off_c, 10, 69, 127
1, 175095, Note_off_c, 2, 50, 127
1, 175097, Note_on_c, 12, 71, 127
1, 175097, Note_on_c, 7, 43, 127
1, 175303, Note_off_c, 12, 71, 127
1, 175315, Note_off_c, 7, 43, 127
1, 175317, Note_on_c, 4, 76, 127
1, 175317, Note_on_c, 12, 47, 127
1, 175425, Note_off_c, 4, 76, 127
1, 175427, Note_on_c, 2, 74, 127
1, 175535, Note_off_c, 2, 74, 127
1, 175535, Note_off_c, 12, 47, 127
1, 175537, Note_on_c, 1, 73, 127
1, 175537, Note_on_c, 4, 52, 127
1, 175645, Note_off_c, 1, 73, 127
1, 175647, Note_on_c, 12, 71, 127
1, 175755, Note_off_c, 12, 71, 127
1, 175755, Note_off_c, 4, 52, 127
1, 175757, Note_on_c, 1, 73, 127
1, 175757, Note_on_c, 10, 45, 127
1, 175963, Note_off_c, 1, 73, 127
1, 175975, Note_off_c, 10, 45, 127
1, 175977, Note_on_c, 6, 78, 127
1, 175977, Note_on_c, 1, 49, 127
1, 176085, Note_off_c, 6, 78, 127
1, 176087, Note_on_c, 4, 76, 127
1, 176195, Note_off_c, 4, 76, 127
1, 176195, Note_off_c, 1, 49, 127
1, 176197, Note_on_c, 2, 74, 127
1, 176197, Note_on_c, 4, 52, 127
1, 176305, Note_off_c, 2, 74, 127
1, 176307, Note_on_c, 1, 73, 127
1, 176415, Note_off_c, 1, 73, 127
1, 176415, Note_off_c, 4, 52, 127
1, 176417, Note_on_c, 2, 74, 127
1, 176417, Note_on_c, 2, 50, 127
1, 176525, Note_off_c, 2, 74, 127
1, 176527, Note_on_c, 6, 78, 127
1, 176635, Note_off_c, 6, 78, 127
1, 176635, Note_off_c, 2, 50, 127
1, 176637, Note_on_c, 10, 81, 127
1, 176637, Note_on_c, 6, 54, 127
1, 176745, Note_off_c, 10, 81, 127
1, 176747, Note_on_c, 6, 78, 127
1, 176855, Note_off_c, 6, 78, 127
1, 176855, Note_off_c, 6, 54, 127
1, 176857, Note_on_c, 2, 74, 127
1, 176857, Note_on_c, 10, 57, 127
1, 176965, Note_off_c, 2, 74, 127
1, 176967, Note_on_c, 10, 69, 127
1, 177075, Note_off_c, 10, 57, 127
1, 177085, Note_on_c, 2, 74, 127
1, 177085, Note_on_c, 6, 54, 127
1, 177087, Note_off_c, 10, 69, 127
1, 177291, Note_off_c, 2, 74, 127
1, 177303, Note_off_c, 6, 54, 127
1, 177305, Note_on_c, 2, 74, 127
1, 177305, Note_on_c, 10, 57, 127
1, 177413, Note_off_c, 2, 74, 127
1, 177415, Note_on_c, 0, 72, 127
1, 177523, Note_off_c, 0, 72, 127
1, 177523, Note_off_c, 10, 57, 127
1, 177525, Note_on_c, 12, 71, 127
1, 177525, Note_on_c, 2, 62, 127
1, 177633, Note_off_c, 12, 71, 127
1, 177635, Note_on_c, 10, 69, 127
1, 177743, Note_off_c, 10, 69, 127
1, 177743, Note_off_c, 2, 62, 127
1, 177745, Note_on_c, 12, 71, 127
1, 177745, Note_on_c, 7, 55, 127
1, 177951, Note_off_c, 12, 71, 127
1, 177963, Note_off_c, 7, 55, 127
1, 177965, Note_on_c, 4, 76, 127
1, 177965, Note_on_c, 12, 59, 127
1, 178073, Note_off_c, 4, 76, 127
1, 178075, Note_on_c, 2, 74, 127
1, 178183, Note_off_c, 2, 74, 127
1, 178183, Note_off_c, 12, 59, 127
1, 178185, Note_on_c, 1, 73, 127
1, 178185, Note_on_c, 4, 64, 127
1, 178293, Note_off_c, 1, 73, 127
1, 178295, Note_on_c, 12, 71, 127
1, 178403, Note_off_c, 12, 71, 127
1, 178403, Note_off_c, 4, 64, 127
1, 178405, Note_on_c, 1, 73, 127
1, 178405, Note_on_c, 10, 57, 127
1, 178611, Note_off_c, 1, 73, 127
1, 178623, Note_off_c, 10, 57, 127
1, 178625, Note_on_c, 6, 78, 127
1, 178625, Note_on_c, 1, 61, 127
1, 178733, Note_off_c, 6, 78, 127
1, 178735, Note_on_c, 4, 76, 127
1, 178843, Note_off_c, 4, 76, 127
1, 178843, Note_off_c, 1, 61, 127
1, 178845, Note_on_c, 2, 74, 127
1, 178845, Note_on_c, 4, 64, 127
1, 178953, Note_off_c, 2, 74, 127
1, 178955, Note_on_c, 1, 73, 127
1, 179063, Note_off_c, 1, 73, 127
1, 179063, Note_off_c, 4, 64, 127
1, 179065, Note_on_c, 2, 74, 127
1, 179065, Note_on_c, 2, 62, 127
1, 179283, Note_off_c, 2, 62, 127
1, 179285, Note_on_c, 10, 57, 127
1, 179393, Note_off_c, 10, 57, 127
1, 179395, Note_on_c, 7, 55, 127
1, 179503, Note_off_c, 7, 55, 127
1, 179505, Note_on_c, 6, 54, 127
1, 179613, Note_off_c, 6, 54, 127
1, 179615, Note_on_c, 4, 52, 127
1, 179649, Note_off_c, 2, 74, 127
1, 179723, Note_off_c, 4, 52, 127
1, 179725, Note_on_c, 6, 78, 127
1, 179725, Note_on_c, 2, 50, 127
1, 179943, Note_off_c, 2, 50, 127
1, 179943, Note_off_c, 6, 78, 127
1, 179945, Note_on_c, 6, 78, 127
1, 179945, Note_on_c, 2, 62, 127
1, 180053, Note_off_c, 6, 78, 127
1, 180055, Note_on_c, 7, 79, 127
1, 180163, Note_off_c, 7, 79, 127
1, 180163, Note_off_c, 2, 62, 127
1, 180165, Note_on_c, 10, 81, 127
1, 180165, Note_on_c, 6, 66, 127
1, 180383, Note_off_c, 6, 66, 127
1, 180383, Note_off_c, 10, 81, 127
1, 180385, Note_on_c, 2, 74, 127
1, 180385, Note_on_c, 0, 60, 127
1, 180603, Note_off_c, 0, 60, 127
1, 180603, Note_off_c, 2, 74, 127
1, 180605, Note_on_c, 2, 74, 127
1, 180605, Note_on_c, 6, 66, 127
1, 180713, Note_off_c, 2, 74, 127
1, 180715, Note_on_c, 4, 76, 127
1, 180823, Note_off_c, 4, 76, 127
1, 180823, Note_off_c, 6, 66, 127
1, 180825, Note_on_c, 6, 78, 127
1, 180825, Note_on_c, 10, 69, 127
1, 181043, Note_off_c, 10, 69, 127
1, 181043, Note_off_c, 6, 78, 127
1, 181045, Note_on_c, 7, 79, 127
1, 181045, Note_on_c, 12, 59, 127
1, 181263, Note_off_c, 12, 59, 127
1, 181263, Note_off_c, 7, 79, 127
1, 181265, Note_on_c, 7, 79, 127
1, 181265, Note_on_c, 2, 62, 127
1, 181373, Note_off_c, 7, 79, 127
1, 181375, Note_on_c, 10, 81, 127
1, 181483, Note_off_c, 10, 81, 127
1, 181483, Note_off_c, 2, 62, 127
1, 181485, Note_on_c, 12, 83, 127
1, 181485, Note_on_c, 7, 67, 127
1, 181703, Note_off_c, 7, 67, 127
1, 181703, Note_off_c, 12, 83, 127
1, 181705, Note_on_c, 4, 76, 127
1, 181705, Note_on_c, 0, 60, 127
1, 181813, Note_off_c, 0, 60, 127
1, 181815, Note_on_c, 12, 59, 127
1, 181923, Note_off_c, 12, 59, 127
1, 181925, Note_on_c, 0, 60, 127
1, 182033, Note_off_c, 0, 60, 127
1, 182035, Note_on_c, 2, 62, 127
1, 182143, Note_off_c, 2, 62, 127
1, 182145, Note_on_c, 0, 60, 127
1, 182253, Note_off_c, 0, 60, 127
1, 182255, Note_on_c, 12, 59, 127
1, 182363, Note_off_c, 12, 59, 127
1, 182363, Note_off_c, 4, 76, 127
1, 182365, Note_on_c, 6, 78, 127
1, 182365, Note_on_c, 10, 57, 127
1, 182473, Note_off_c, 10, 57, 127
1, 182473, Note_off_c, 6, 78, 127
1, 182475, Note_on_c, 4, 76, 127
1, 182475, Note_on_c, 0, 60, 127
1, 182583, Note_off_c, 0, 60, 127
1, 182583, Note_off_c, 4, 76, 127
1, 182585, Note_on_c, 6, 78, 127
1, 182585, Note_on_c, 10, 57, 127
1, 182693, Note_off_c, 10, 57, 127
1, 182693, Note_off_c, 6, 78, 127
1, 182695, Note_on_c, 7, 79, 127
1, 182695, Note_on_c, 0, 60, 127
1, 182803, Note_off_c, 0, 60, 127
1, 182803, Note_off_c, 7, 79, 127
1, 182805, Note_on_c, 6, 78, 127
1, 182805, Note_on_c, 6, 54, 127
1, 182913, Note_off_c, 6, 54, 127
1, 182913, Note_off_c, 6, 78, 127
1, 182915, Note_on_c, 4, 76, 127
1, 182915, Note_on_c, 10, 57, 127
1, 183023, Note_off_c, 10, 57, 127
1, 183023, Note_off_c, 4, 76, 127
1, 183025, Note_on_c, 3, 75, 127
1, 183025, Note_on_c, 12, 59, 127
1, 183133, Note_off_c, 12, 59, 127
1, 183133, Note_off_c, 3, 75, 127
1, 183135, Note_on_c, 6, 78, 127
1, 183135, Note_on_c, 10, 57, 127
1, 183243, Note_off_c, 10, 57, 127
1, 183243, Note_off_c, 6, 78, 127
1, 183245, Note_on_c, 3, 75, 127
1, 183245, Note_on_c, 12, 59, 127
1, 183353, Note_off_c, 12, 59, 127
1, 183353, Note_off_c, 3, 75, 127
1, 183355, Note_on_c, 6, 78, 127
1, 183355, Note_on_c, 0, 60, 127
1, 183463, Note_off_c, 0, 60, 127
1, 183463, Note_off_c, 6, 78, 127
1, 183465, Note_on_c, 12, 71, 127
1, 183465, Note_on_c, 12, 59, 127
1, 183573, Note_off_c, 12, 59, 127
1, 183573, Note_off_c, 12, 71, 127
1, 183575, Note_on_c, 3, 75, 127
1, 183575, Note_on_c, 10, 57, 127
1, 183683, Note_off_c, 10, 57, 127
1, 183683, Note_off_c, 3, 75, 127
1, 183685, Note_on_c, 4, 76, 127
1, 183685, Note_on_c, 7, 55, 127
1, 183793, Note_off_c, 7, 55, 127
1, 183793, Note_off_c, 4, 76, 127
1, 183795, Note_on_c, 3, 75, 127
1, 183795, Note_on_c, 12, 59, 127
1, 183903, Note_off_c, 12, 59, 127
1, 183903, Note_off_c, 3, 75, 127
1, 183905, Note_on_c, 4, 76, 127
1, 183905, Note_on_c, 7, 55, 127
1, 184013, Note_off_c, 7, 55, 127
1, 184013, Note_off_c, 4, 76, 127
1, 184015, Note_on_c, 6, 78, 127
1, 184015, Note_on_c, 12, 59, 127
1, 184123, Note_off_c, 12, 59, 127
1, 184123, Note_off_c, 6, 78, 127
1, 184125, Note_on_c, 4, 76, 127
1, 184125, Note_on_c, 4, 52, 127
1, 184233, Note_off_c, 4, 52, 127
1, 184233, Note_off_c, 4, 76, 127
1, 184235, Note_on_c, 2, 74, 127
1, 184235, Note_on_c, 7, 55, 127
1, 184343, Note_off_c, 7, 55, 127
1, 184343, Note_off_c, 2, 74, 127
1, 184345, Note_on_c, 1, 73, 127
1, 184345, Note_on_c, 10, 57, 127
1, 184453, Note_off_c, 10, 57, 127
1, 184453, Note_off_c, 1, 73, 127
1, 184455, Note_on_c, 4, 76, 127
1, 184455, Note_on_c, 7, 55, 127
1, 184563, Note_off_c, 7, 55, 127
1, 184563, Note_off_c, 4, 76, 127
1, 184565, Note_on_c, 1, 73, 127
1, 184565, Note_on_c, 10, 57, 127
1, 184673, Note_off_c, 10, 57, 127
1, 184673, Note_off_c, 1, 73, 127
1, 184675, Note_on_c, 4, 76, 127
1, 184675, Note_on_c, 12, 59, 127
1, 184783, Note_off_c, 12, 59, 127
1, 184783, Note_off_c, 4, 76, 127
1, 184785, Note_on_c, 10, 69, 127
1, 184785, Note_on_c, 10, 57, 127
1, 184893, Note_off_c, 10, 57, 127
1, 184893, Note_off_c, 10, 69, 127
1, 184895, Note_on_c, 1, 73, 127
1, 184895, Note_on_c, 7, 55, 127
1, 185003, Note_off_c, 7, 55, 127
1, 185003, Note_off_c, 1, 73, 127
1, 185005, Note_on_c, 2, 74, 127
1, 185005, Note_on_c, 6, 54, 127
1, 185113, Note_off_c, 6, 54, 127
1, 185113, Note_off_c, 2, 74, 127
1, 185115, Note_on_c, 1, 73, 127
1, 185115, Note_on_c, 10, 57, 127
1, 185223, Note_off_c, 10, 57, 127
1, 185223, Note_off_c, 1, 73, 127
1, 185225, Note_on_c, 2, 74, 127
1, 185225, Note_on_c, 6, 54, 127
1, 185333, Note_off_c, 6, 54, 127
1, 185333, Note_off_c, 2, 74, 127
1, 185335, Note_on_c, 4, 76, 127
1, 185335, Note_on_c, 10, 57, 127
1, 185443, Note_off_c, 10, 57, 127
1, 185443, Note_off_c, 4, 76, 127
1, 185445, Note_on_c, 2, 74, 127
1, 185445, Note_on_c, 2, 50, 127
1, 185553, Note_off_c, 2, 50, 127
1, 185553, Note_off_c, 2, 74, 127
1, 185555, Note_on_c, 0, 72, 127
1, 185555, Note_on_c, 6, 54, 127
1, 185663, Note_off_c, 6, 54, 127
1, 185663, Note_off_c, 0, 72, 127
1, 185665, Note_on_c, 12, 71, 127
1, 185665, Note_on_c, 7, 55, 127
1, 185773, Note_off_c, 7, 55, 127
1, 185773, Note_off_c, 12, 71, 127
1, 185775, Note_on_c, 10, 69, 127
1, 185775, Note_on_c, 10, 57, 127
1, 185883, Note_off_c, 10, 57, 127
1, 185883, Note_off_c, 10, 69, 127
1, 185885, Note_on_c, 12, 71, 127
1, 185885, Note_on_c, 7, 55, 127
1, 185993, Note_off_c, 7, 55, 127
1, 185993, Note_off_c, 12, 71, 127
1, 185995, Note_on_c, 2, 74, 127
1, 185995, Note_on_c, 6, 54, 127
1, 186103, Note_off_c, 6, 54, 127
1, 186103, Note_off_c, 2, 74, 127
1, 186105, Note_on_c, 0, 72, 127
1, 186105, Note_on_c, 4, 52, 127
1, 186213, Note_off_c, 4, 52, 127
1, 186213, Note_off_c, 0, 72, 127
1, 186215, Note_on_c, 12, 71, 127
1, 186215, Note_on_c, 7, 55, 127
1, 186323, Note_off_c, 7, 55, 127
1, 186323, Note_off_c, 12, 71, 127
1, 186325, Note_on_c, 10, 69, 127
1, 186325, Note_on_c, 6, 54, 127
1, 186433, Note_off_c, 6, 54, 127
1, 186433, Note_off_c, 10, 69, 127
1, 186435, Note_on_c, 7, 67, 127
1, 186435, Note_on_c, 7, 55, 127
1, 186543, Note_off_c, 7, 55, 127
1, 186543, Note_off_c, 7, 67, 127
1, 186545, Note_on_c, 10, 69, 127
1, 186545, Note_on_c, 6, 54, 127
1, 186653, Note_off_c, 6, 54, 127
1, 186653, Note_off_c, 10, 69, 127
1, 186655, Note_on_c, 0, 72, 127
1, 186655, Note_on_c, 4, 52, 127
1, 186763, Note_off_c, 4, 52, 127
1, 186763, Note_off_c, 0, 72, 127
1, 186765, Note_on_c, 12, 71, 127
1, 186765, Note_on_c, 3, 51, 127
1, 186873, Note_off_c, 3, 51, 127
1, 186873, Note_off_c, 12, 71, 127
1, 186875, Note_on_c, 10, 69, 127
1, 186875, Note_on_c, 6, 54, 127
1, 186983, Note_off_c, 6, 54, 127
1, 186983, Note_off_c, 10, 69, 127
1, 186985, Note_on_c, 7, 67, 127
1, 186985, Note_on_c, 4, 52, 127
1, 187093, Note_off_c, 4, 52, 127
1, 187093, Note_off_c, 7, 67, 127
1, 187095, Note_on_c, 6, 66, 127
1, 187095, Note_on_c, 6, 54, 127
1, 187203, Note_off_c, 6, 54, 127
1, 187203, Note_off_c, 6, 66, 127
1, 187205, Note_on_c, 7, 67, 127
1, 187205, Note_on_c, 4, 52, 127
1, 187313, Note_off_c, 4, 52, 127
1, 187313, Note_off_c, 7, 67, 127
1, 187315, Note_on_c, 12, 71, 127
1, 187315, Note_on_c, 2, 50, 127
1, 187423, Note_off_c, 2, 50, 127
1, 187423, Note_off_c, 12, 71, 127
1, 187425, Note_on_c, 10, 69, 127
1, 187425, Note_on_c, 0, 48, 127
1, 187533, Note_off_c, 0, 48, 127
1, 187533, Note_off_c, 10, 69, 127
1, 187535, Note_on_c, 7, 67, 127
1, 187535, Note_on_c, 12, 47, 127
1, 187643, Note_off_c, 12, 47, 127
1, 187643, Note_off_c, 7, 67, 127
1, 187645, Note_on_c, 6, 66, 127
1, 187645, Note_on_c, 10, 45, 127
1, 187753, Note_off_c, 10, 45, 127
1, 187753, Note_off_c, 6, 66, 127
1, 187755, Note_on_c, 4, 64, 127
1, 187755, Note_on_c, 7, 43, 127
1, 187863, Note_off_c, 7, 43, 127
1, 187863, Note_off_c, 4, 64, 127
1, 187865, Note_on_c, 6, 66, 127
1, 187865, Note_on_c, 10, 45, 127
1, 187973, Note_off_c, 10, 45, 127
1, 187973, Note_off_c, 6, 66, 127
1, 187975, Note_on_c, 10, 69, 127
1, 187975, Note_on_c, 0, 48, 127
1, 188083, Note_off_c, 0, 48, 127
1, 188083, Note_off_c, 10, 69, 127
1, 188085, Note_on_c, 7, 67, 127
1, 188085, Note_on_c, 12, 47, 127
1, 188193, Note_off_c, 12, 47, 127
1, 188193, Note_off_c, 7, 67, 127
1, 188195, Note_on_c, 6, 66, 127
1, 188195, Note_on_c, 10, 45, 127
1, 188303, Note_off_c, 10, 45, 127
1, 188303, Note_off_c, 6, 66, 127
1, 188305, Note_on_c, 4, 64, 127
1, 188305, Note_on_c, 7, 43, 127
1, 188413, Note_off_c, 4, 64, 127
1, 188415, Note_on_c, 7, 67, 127
1, 188523, Note_off_c, 7, 67, 127
1, 188523, Note_off_c, 7, 43, 127
1, 188525, Note_on_c, 12, 71, 127
1, 188525, Note_on_c, 7, 55, 127
1, 188635, Note_on_c, 4, 76, 127
1, 188743, Note_off_c, 4, 76, 127
1, 188743, Note_off_c, 7, 55, 127
1, 188745, Note_on_c, 7, 79, 127
1, 188745, Note_on_c, 4, 52, 127
1, 188853, Note_off_c, 7, 79, 127
1, 188855, Note_on_c, 12, 83, 127
1, 188961, Note_off_c, 12, 71, 127
1, 188963, Note_off_c, 4, 52, 127
1, 188965, Note_on_c, 12, 71, 127
1, 188965, Note_on_c, 12, 59, 127
1, 189181, Note_off_c, 12, 83, 127
1, 189183, Note_off_c, 12, 59, 127
1, 189183, Note_off_c, 12, 71, 127
1, 189185, Note_on_c, 4, 76, 127
1, 189185, Note_on_c, 10, 57, 127
1, 189403, Note_off_c, 10, 57, 127
1, 189403, Note_off_c, 4, 76, 127
1, 189405, Note_on_c, 3, 75, 127
1, 189405, Note_on_c, 12, 59, 127
1, 189623, Note_off_c, 12, 59, 127
1, 189623, Note_off_c, 3, 75, 127
1, 189625, Note_on_c, 4, 76, 127
1, 189625, Note_on_c, 4, 52, 127
1, 189843, Note_off_c, 4, 52, 127
1, 189845, Note_on_c, 12, 47, 127
1, 189953, Note_off_c, 12, 47, 127
1, 189955, Note_on_c, 10, 45, 127
1, 190063, Note_off_c, 10, 45, 127
1, 190065, Note_on_c, 7, 43, 127
1, 190106, Note_off_c, 4, 76, 127
1, 190173, Note_off_c, 7, 43, 127
1, 190175, Note_on_c, 6, 42, 127
1, 190283, Note_off_c, 6, 42, 127
1, 190285, Note_on_c, 12, 71, 127
1, 190285, Note_on_c, 4, 40, 127
1, 190503, Note_off_c, 4, 40, 127
1, 190503, Note_off_c, 12, 71, 127
1, 190505, Note_on_c, 12, 71, 127
1, 190505, Note_on_c, 4, 52, 127
1, 190613, Note_off_c, 12, 71, 127
1, 190615, Note_on_c, 0, 72, 127
1, 190723, Note_off_c, 0, 72, 127
1, 190723, Note_off_c, 4, 52, 127
1, 190725, Note_on_c, 2, 74, 127
1, 190725, Note_on_c, 2, 50, 127
1, 190896, Note_off_c, 2, 74, 127
1, 190942, Note_off_c, 2, 50, 127
1, 190944, Note_on_c, 4, 76, 127
1, 190944, Note_on_c, 0, 48, 127
1, 191162, Note_off_c, 0, 48, 127
1, 191162, Note_off_c, 4, 76, 127
1, 191164, Note_on_c, 4, 76, 127
1, 191164, Note_on_c, 0, 60, 127
1, 191272, Note_off_c, 4, 76, 127
1, 191274, Note_on_c, 6, 78, 127
1, 191382, Note_off_c, 6, 78, 127
1, 191382, Note_off_c, 0, 60, 127
1, 191384, Note_on_c, 7, 79, 127
1, 191384, Note_on_c, 12, 59, 127
1, 191555, Note_off_c, 7, 79, 127
1, 191601, Note_off_c, 12, 59, 127
1, 191603, Note_on_c, 0, 72, 127
1, 191603, Note_on_c, 10, 57, 127
1, 191821, Note_off_c, 10, 57, 127
1, 191821, Note_off_c, 0, 72, 127
1, 191823, Note_on_c, 0, 72, 127
1, 191823, Note_on_c, 10, 45, 127
1, 191931, Note_off_c, 10, 45, 127
1, 191931, Note_off_c, 0, 72, 127
1, 191933, Note_on_c, 2, 74, 127
1, 191933, Note_on_c, 12, 47, 127
1, 192041, Note_off_c, 12, 47, 127
1, 192041, Note_off_c, 2, 74, 127
1, 192043, Note_on_c, 4, 76, 127
1, 192043, Note_on_c, 0, 48, 127
1, 192214, Note_off_c, 4, 76, 127
1, 192260, Note_off_c, 0, 48, 127
1, 192262, Note_on_c, 10, 69, 127
1, 192262, Note_on_c, 2, 50, 127
1, 192480, Note_off_c, 2, 50, 127
1, 192482, Note_on_c, 2, 50, 127
1, 192590, Note_off_c, 2, 50, 127
1, 192592, Note_on_c, 4, 52, 127
1, 192700, Note_off_c, 4, 52, 127
1, 192702, Note_on_c, 6, 54, 127
1, 192846, Note_off_c, 10, 69, 127
1, 192938, Note_on_c, 7, 55, 127
1, 192938, Note_on_c, 12, 71, 127
1, 192941, Note_off_c, 6, 54, 127
1, 193156, Note_off_c, 12, 71, 127
1, 193156, Note_off_c, 7, 55, 127
1, 193158, Note_on_c, 12, 59, 127
1, 193158, Note_on_c, 12, 71, 127
1, 193266, Note_off_c, 12, 71, 127
1, 193268, Note_on_c, 10, 69, 127
1, 193376, Note_off_c, 10, 69, 127
1, 193376, Note_off_c, 12, 59, 127
1, 193378, Note_on_c, 2, 62, 127
1, 193378, Note_on_c, 7, 67, 127
1, 193596, Note_off_c, 7, 67, 127
1, 193596, Note_off_c, 2, 62, 127
1, 193598, Note_on_c, 12, 59, 127
1, 193598, Note_on_c, 2, 74, 127
1, 193816, Note_off_c, 2, 74, 127
1, 193816, Note_off_c, 12, 59, 127
1, 193818, Note_on_c, 2, 62, 127
1, 193818, Note_on_c, 2, 74, 127
1, 193926, Note_off_c, 2, 74, 127
1, 193928, Note_on_c, 0, 72, 127
1, 194036, Note_off_c, 0, 72, 127
1, 194036, Note_off_c, 2, 62, 127
1, 194038, Note_on_c, 7, 67, 127
1, 194038, Note_on_c, 12, 71, 127
1, 194256, Note_off_c, 12, 71, 127
1, 194256, Note_off_c, 7, 67, 127
1, 194258, Note_on_c, 0, 60, 127
1, 194258, Note_on_c, 4, 76, 127
1, 194476, Note_off_c, 4, 76, 127
1, 194476, Note_off_c, 0, 60, 127
1, 194478, Note_on_c, 4, 64, 127
1, 194478, Note_on_c, 4, 76, 127
1, 194586, Note_off_c, 4, 76, 127
1, 194588, Note_on_c, 2, 74, 127
1, 194696, Note_off_c, 2, 74, 127
1, 194696, Note_off_c, 4, 64, 127
1, 194698, Note_on_c, 7, 67, 127
1, 194698, Note_on_c, 0, 72, 127
1, 194916, Note_off_c, 0, 72, 127
1, 194916, Note_off_c, 7, 67, 127
1, 194918, Note_on_c, 7, 55, 127
1, 194918, Note_on_c, 2, 74, 127
1, 195136, Note_off_c, 7, 55, 127
1, 195138, Note_on_c, 6, 54, 127
1, 195246, Note_off_c, 6, 54, 127
1, 195248, Note_on_c, 4, 52, 127
1, 195356, Note_off_c, 4, 52, 127
1, 195358, Note_on_c, 2, 50, 127
1, 195466, Note_off_c, 2, 50, 127
1, 195468, Note_on_c, 0, 48, 127
1, 195576, Note_off_c, 0, 48, 127
1, 195576, Note_off_c, 2, 74, 127
1, 195578, Note_on_c, 12, 47, 127
1, 195578, Note_on_c, 2, 74, 127
1, 195686, Note_off_c, 2, 74, 127
1, 195688, Note_on_c, 12, 71, 127
1, 195796, Note_off_c, 12, 71, 127
1, 195796, Note_off_c, 12, 47, 127
1, 195798, Note_on_c, 2, 50, 127
1, 195798, Note_on_c, 7, 67, 127
1, 195906, Note_off_c, 7, 67, 127
1, 195908, Note_on_c, 12, 71, 127
1, 196016, Note_off_c, 12, 71, 127
1, 196016, Note_off_c, 2, 50, 127
1, 196018, Note_on_c, 7, 55, 127
1, 196018, Note_on_c, 2, 74, 127
1, 196126, Note_off_c, 2, 74, 127
1, 196128, Note_on_c, 12, 71, 127
1, 196236, Note_off_c, 12, 71, 127
1, 196236, Note_off_c, 7, 55, 127
1, 196238, Note_on_c, 0, 48, 127
1, 196238, Note_on_c, 4, 76, 127
1, 196346, Note_off_c, 4, 76, 127
1, 196348, Note_on_c, 0, 72, 127
1, 196456, Note_off_c, 0, 72, 127
1, 196456, Note_off_c, 0, 48, 127
1, 196458, Note_on_c, 4, 52, 127
1, 196458, Note_on_c, 7, 67, 127
1, 196566, Note_off_c, 7, 67, 127
1, 196568, Note_on_c, 0, 72, 127
1, 196676, Note_off_c, 0, 72, 127
1, 196676, Note_off_c, 4, 52, 127
1, 196678, Note_on_c, 7, 55, 127
1, 196678, Note_on_c, 4, 76, 127
1, 196786, Note_off_c, 4, 76, 127
1, 196788, Note_on_c, 0, 72, 127
1, 196896, Note_off_c, 0, 72, 127
1, 196896, Note_off_c, 7, 55, 127
1, 196898, Note_on_c, 1, 49, 127
1, 196898, Note_on_c, 4, 76, 127
1, 197006, Note_off_c, 4, 76, 127
1, 197008, Note_on_c, 1, 73, 127
1, 197116, Note_off_c, 1, 73, 127
1, 197116, Note_off_c, 1, 49, 127
1, 197118, Note_on_c, 4, 52, 127
1, 197118, Note_on_c, 10, 69, 127
1, 197226, Note_off_c, 10, 69, 127
1, 197228, Note_on_c, 1, 73, 127
1, 197336, Note_off_c, 1, 73, 127
1, 197336, Note_off_c, 4, 52, 127
1, 197338, Note_on_c, 10, 57, 127
1, 197338, Note_on_c, 4, 76, 127
1, 197446, Note_off_c, 4, 76, 127
1, 197448, Note_on_c, 1, 73, 127
1, 197556, Note_off_c, 1, 73, 127
1, 197556, Note_off_c, 10, 57, 127
1, 197558, Note_on_c, 2, 50, 127
1, 197558, Note_on_c, 6, 78, 127
1, 197666, Note_off_c, 6, 78, 127
1, 197668, Note_on_c, 2, 74, 127
1, 197776, Note_off_c, 2, 74, 127
1, 197776, Note_off_c, 2, 50, 127
1, 197778, Note_on_c, 6, 54, 127
1, 197778, Note_on_c, 10, 69, 127
1, 197886, Note_off_c, 10, 69, 127
1, 197888, Note_on_c, 2, 74, 127
1, 197996, Note_off_c, 2, 74, 127
1, 197996, Note_off_c, 6, 54, 127
1, 197998, Note_on_c, 10, 57, 127
1, 197998, Note_on_c, 6, 78, 127
1, 198106, Note_off_c, 6, 78, 127
1, 198108, Note_on_c, 2, 74, 127
1, 198216, Note_off_c, 2, 74, 127
1, 198216, Note_off_c, 10, 57, 127
1, 198218, Note_on_c, 3, 51, 127
1, 198218, Note_on_c, 6, 78, 127
1, 198326, Note_off_c, 6, 78, 127
1, 198328, Note_on_c, 3, 75, 127
1, 198436, Note_off_c, 3, 75, 127
1, 198436, Note_off_c, 3, 51, 127
1, 198438, Note_on_c, 6, 54, 127
1, 198438, Note_on_c, 12, 71, 127
1, 198546, Note_off_c, 12, 71, 127
1, 198548, Note_on_c, 3, 75, 127
1, 198656, Note_off_c, 3, 75, 127
1, 198656, Note_off_c, 6, 54, 127
1, 198658, Note_on_c, 10, 57, 127
1, 198658, Note_on_c, 6, 78, 127
1, 198766, Note_off_c, 6, 78, 127
1, 198768, Note_on_c, 3, 75, 127
1, 198876, Note_off_c, 3, 75, 127
1, 198876, Note_off_c, 10, 57, 127
1, 198878, Note_on_c, 4, 52, 127
1, 198878, Note_on_c, 7, 79, 127
1, 198986, Note_off_c, 7, 79, 127
1, 198988, Note_on_c, 4, 76, 127
1, 199096, Note_off_c, 4, 76, 127
1, 199096, Note_off_c, 4, 52, 127
1, 199098, Note_on_c, 7, 55, 127
1, 199098, Note_on_c, 12, 71, 127
1, 199206, Note_off_c, 12, 71, 127
1, 199208, Note_on_c, 4, 76, 127
1, 199316, Note_off_c, 4, 76, 127
1, 199316, Note_off_c, 7, 55, 127
1, 199318, Note_on_c, 12, 59, 127
1, 199318, Note_on_c, 7, 79, 127
1, 199426, Note_off_c, 7, 79, 127
1, 199428, Note_on_c, 4, 76, 127
1, 199536, Note_off_c, 4, 76, 127
1, 199536, Note_off_c, 12, 59, 127
1, 199538, Note_on_c, 4, 52, 127
1, 199538, Note_on_c, 7, 79, 127
1, 199646, Note_off_c, 7, 79, 127
1, 199648, Note_on_c, 4, 76, 127
1, 199756, Note_off_c, 4, 76, 127
1, 199756, Note_off_c, 4, 52, 127
1, 199758, Note_on_c, 7, 55, 127
1, 199758, Note_on_c, 0, 72, 127
1, 199866, Note_off_c, 0, 72, 127
1, 199868, Note_on_c, 4, 76, 127
1, 199976, Note_off_c, 4, 76, 127
1, 199976, Note_off_c, 7, 55, 127
1, 199978, Note_on_c, 0, 60, 127
1, 199978, Note_on_c, 7, 79, 127
1, 200086, Note_off_c, 7, 79, 127
1, 200088, Note_on_c, 4, 76, 127
1, 200196, Note_off_c, 4, 76, 127
1, 200196, Note_off_c, 0, 60, 127
1, 200198, Note_on_c, 6, 54, 127
1, 200198, Note_on_c, 10, 81, 127
1, 200306, Note_off_c, 10, 81, 127
1, 200308, Note_on_c, 6, 78, 127
1, 200416, Note_off_c, 6, 78, 127
1, 200416, Note_off_c, 6, 54, 127
1, 200418, Note_on_c, 10, 57, 127
1, 200418, Note_on_c, 0, 72, 127
1, 200526, Note_off_c, 0, 72, 127
1, 200528, Note_on_c, 6, 78, 127
1, 200636, Note_off_c, 6, 78, 127
1, 200636, Note_off_c, 10, 57, 127
1, 200638, Note_on_c, 0, 60, 127
1, 200638, Note_on_c, 10, 81, 127
1, 200746, Note_off_c, 10, 81, 127
1, 200748, Note_on_c, 6, 78, 127
1, 200856, Note_off_c, 6, 78, 127
1, 200856, Note_off_c, 0, 60, 127
1, 200858, Note_on_c, 6, 54, 127
1, 200858, Note_on_c, 10, 81, 127
1, 200966, Note_off_c, 10, 81, 127
1, 200968, Note_on_c, 6, 78, 127
1, 201076, Note_off_c, 6, 78, 127
1, 201076, Note_off_c, 6, 54, 127
1, 201078, Note_on_c, 10, 57, 127
1, 201078, Note_on_c, 2, 74, 127
1, 201186, Note_off_c, 2, 74, 127
1, 201188, Note_on_c, 6, 78, 127
1, 201296, Note_off_c, 6, 78, 127
1, 201296, Note_off_c, 10, 57, 127
1, 201298, Note_on_c, 2, 62, 127
1, 201298, Note_on_c, 10, 81, 127
1, 201406, Note_off_c, 10, 81, 127
1, 201408, Note_on_c, 6, 78, 127
1, 201516, Note_off_c, 6, 78, 127
1, 201516, Note_off_c, 2, 62, 127
1, 201518, Note_on_c, 7, 55, 127
1, 201518, Note_on_c, 12, 83, 127
1, 201626, Note_off_c, 12, 83, 127
1, 201628, Note_on_c, 7, 79, 127
1, 201736, Note_off_c, 7, 79, 127
1, 201736, Note_off_c, 7, 55, 127
1, 201738, Note_on_c, 6, 54, 127
1, 201738, Note_on_c, 2, 74, 127
1, 201846, Note_off_c, 2, 74, 127
1, 201846, Note_off_c, 6, 54, 127
1, 201848, Note_on_c, 4, 52, 127
1, 201848, Note_on_c, 7, 79, 127
1, 201956, Note_off_c, 7, 79, 127
1, 201956, Note_off_c, 4, 52, 127
1, 201958, Note_on_c, 2, 50, 127
1, 201958, Note_on_c, 12, 71, 127
1, 202066, Note_off_c, 12, 71, 127
1, 202066, Note_off_c, 2, 50, 127
1, 202068, Note_on_c, 0, 48, 127
1, 202068, Note_on_c, 2, 74, 127
1, 202176, Note_off_c, 2, 74, 127
1, 202176, Note_off_c, 0, 48, 127
1, 202178, Note_on_c, 12, 47, 127
1, 202178, Note_on_c, 7, 79, 127
1, 202286, Note_off_c, 7, 79, 127
1, 202288, Note_on_c, 2, 74, 127
1, 202396, Note_off_c, 2, 74, 127
1, 202396, Note_off_c, 12, 47, 127
1, 202398, Note_on_c, 2, 50, 127
1, 202398, Note_on_c, 12, 71, 127
1, 202506, Note_off_c, 12, 71, 127
1, 202508, Note_on_c, 2, 74, 127
1, 202616, Note_off_c, 2, 74, 127
1, 202616, Note_off_c, 2, 50, 127
1, 202618, Note_on_c, 7, 55, 127
1, 202618, Note_on_c, 7, 67, 127
1, 202726, Note_off_c, 7, 67, 127
1, 202728, Note_on_c, 12, 71, 127
1, 202836, Note_off_c, 12, 71, 127
1, 202836, Note_off_c, 7, 55, 127
1, 202838, Note_on_c, 0, 48, 127
1, 202838, Note_on_c, 4, 76, 127
1, 202946, Note_off_c, 4, 76, 127
1, 202948, Note_on_c, 0, 72, 127
1, 203056, Note_off_c, 0, 72, 127
1, 203056, Note_off_c, 0, 48, 127
1, 203058, Note_on_c, 4, 52, 127
1, 203058, Note_on_c, 7, 67, 127
1, 203166, Note_off_c, 7, 67, 127
1, 203168, Note_on_c, 0, 72, 127
1, 203276, Note_off_c, 0, 72, 127
1, 203276, Note_off_c, 4, 52, 127
1, 203278, Note_on_c, 7, 55, 127
1, 203278, Note_on_c, 4, 64, 127
1, 203386, Note_off_c, 4, 64, 127
1, 203388, Note_on_c, 7, 67, 127
1, 203496, Note_off_c, 7, 67, 127
1, 203496, Note_off_c, 7, 55, 127
1, 203498, Note_on_c, 4, 52, 127
1, 203498, Note_on_c, 0, 72, 127
1, 203606, Note_off_c, 0, 72, 127
1, 203608, Note_on_c, 7, 67, 127
1, 203716, Note_off_c, 7, 67, 127
1, 203716, Note_off_c, 4, 52, 127
1, 203718, Note_on_c, 7, 55, 127
1, 203718, Note_on_c, 4, 64, 127
1, 203826, Note_off_c, 4, 64, 127
1, 203828, Note_on_c, 7, 67, 127
1, 203936, Note_off_c, 7, 67, 127
1, 203936, Note_off_c, 7, 55, 127
1, 203938, Note_on_c, 0, 60, 127
1, 203938, Note_on_c, 6, 66, 127
1, 204046, Note_off_c, 6, 66, 127
1, 204048, Note_on_c, 4, 64, 127
1, 204156, Note_off_c, 4, 64, 127
1, 204156, Note_off_c, 0, 60, 127
1, 204166, Note_on_c, 2, 50, 127
1, 204166, Note_on_c, 6, 78, 127
1, 204274, Note_off_c, 6, 78, 127
1, 204276, Note_on_c, 2, 74, 127
1, 204384, Note_off_c, 2, 74, 127
1, 204384, Note_off_c, 2, 50, 127
1, 204386, Note_on_c, 6, 54, 127
1, 204386, Note_on_c, 10, 69, 127
1, 204494, Note_off_c, 10, 69, 127
1, 204496, Note_on_c, 2, 74, 127
1, 204604, Note_off_c, 2, 74, 127
1, 204604, Note_off_c, 6, 54, 127
1, 204606, Note_on_c, 10, 57, 127
1, 204606, Note_on_c, 6, 66, 127
1, 204714, Note_off_c, 6, 66, 127
1, 204716, Note_on_c, 10, 69, 127
1, 204824, Note_off_c, 10, 69, 127
1, 204824, Note_off_c, 10, 57, 127
1, 204826, Note_on_c, 6, 54, 127
1, 204826, Note_on_c, 2, 74, 127
1, 204934, Note_off_c, 2, 74, 127
1, 204936, Note_on_c, 10, 69, 127
1, 205044, Note_off_c, 10, 69, 127
1, 205044, Note_off_c, 6, 54, 127
1, 205046, Note_on_c, 10, 57, 127
1, 205046, Note_on_c, 6, 66, 127
1, 205154, Note_off_c, 6, 66, 127
1, 205156, Note_on_c, 10, 69, 127
1, 205264, Note_off_c, 10, 69, 127
1, 205264, Note_off_c, 10, 57, 127
1, 205266, Note_on_c, 2, 62, 127
1, 205266, Note_on_c, 7, 67, 127
1, 205374, Note_off_c, 7, 67, 127
1, 205382, Note_on_c, 6, 66, 127
1, 205490, Note_off_c, 6, 66, 127
1, 205496, Note_off_c, 2, 62, 127
1, 205502, Note_on_c, 12, 71, 127
1, 205502, Note_on_c, 7, 55, 127
1, 205720, Note_off_c, 7, 55, 127
1, 205720, Note_off_c, 12, 71, 127
1, 205722, Note_on_c, 12, 71, 127
1, 205722, Note_on_c, 7, 43, 127
1, 205830, Note_off_c, 7, 43, 127
1, 205830, Note_off_c, 12, 71, 127
1, 205832, Note_on_c, 0, 72, 127
1, 205832, Note_on_c, 10, 45, 127
1, 205940, Note_off_c, 10, 45, 127
1, 205940, Note_off_c, 0, 72, 127
1, 205942, Note_on_c, 2, 74, 127
1, 205942, Note_on_c, 12, 47, 127
1, 206160, Note_off_c, 12, 47, 127
1, 206160, Note_off_c, 2, 74, 127
1, 206162, Note_on_c, 7, 67, 127
1, 206162, Note_on_c, 0, 48, 127
1, 206380, Note_off_c, 0, 48, 127
1, 206380, Note_off_c, 7, 67, 127
1, 206382, Note_on_c, 7, 67, 127
1, 206382, Note_on_c, 0, 60, 127
1, 206490, Note_off_c, 7, 67, 127
1, 206492, Note_on_c, 10, 69, 127
1, 206600, Note_off_c, 10, 69, 127
1, 206600, Note_off_c, 0, 60, 127
1, 206602, Note_on_c, 12, 71, 127
1, 206602, Note_on_c, 12, 59, 127
1, 206820, Note_off_c, 12, 59, 127
1, 206820, Note_off_c, 12, 71, 127
1, 206822, Note_on_c, 0, 72, 127
1, 206822, Note_on_c, 10, 57, 127
1, 207040, Note_off_c, 10, 57, 127
1, 207040, Note_off_c, 0, 72, 127
1, 207042, Note_on_c, 0, 72, 127
1, 207042, Note_on_c, 10, 45, 127
1, 207150, Note_off_c, 10, 45, 127
1, 207150, Note_off_c, 0, 72, 127
1, 207152, Note_on_c, 2, 74, 127
1, 207152, Note_on_c, 12, 47, 127
1, 207260, Note_off_c, 12, 47, 127
1, 207260, Note_off_c, 2, 74, 127
1, 207262, Note_on_c, 4, 76, 127
1, 207262, Note_on_c, 0, 48, 127
1, 207480, Note_off_c, 0, 48, 127
1, 207480, Note_off_c, 4, 76, 127
1, 207482, Note_on_c, 10, 69, 127
1, 207482, Note_on_c, 2, 50, 127
1, 207700, Note_off_c, 2, 50, 127
1, 207700, Note_off_c, 10, 69, 127
1, 207702, Note_on_c, 10, 69, 127
1, 207702, Note_on_c, 2, 62, 127
1, 207810, Note_off_c, 10, 69, 127
1, 207812, Note_on_c, 12, 71, 127
1, 207920, Note_off_c, 12, 71, 127
1, 207920, Note_off_c, 2, 62, 127
1, 207922, Note_on_c, 0, 72, 127
1, 207922, Note_on_c, 0, 60, 127
1, 208140, Note_off_c, 0, 60, 127
1, 208140, Note_off_c, 0, 72, 127
1, 208142, Note_on_c, 2, 74, 127
1, 208142, Note_on_c, 12, 59, 127
1, 208360, Note_off_c, 12, 59, 127
1, 208360, Note_off_c, 2, 74, 127
1, 208362, Note_on_c, 2, 74, 127
1, 208362, Note_on_c, 12, 47, 127
1, 208470, Note_off_c, 12, 47, 127
1, 208470, Note_off_c, 2, 74, 127
1, 208472, Note_on_c, 4, 76, 127
1, 208472, Note_on_c, 0, 48, 127
1, 208580, Note_off_c, 0, 48, 127
1, 208580, Note_off_c, 4, 76, 127
1, 208582, Note_on_c, 6, 78, 127
1, 208582, Note_on_c, 2, 50, 127
1, 208800, Note_off_c, 2, 50, 127
1, 208800, Note_off_c, 6, 78, 127
1, 208802, Note_on_c, 7, 79, 127
1, 208802, Note_on_c, 4, 52, 127
1, 209020, Note_off_c, 4, 52, 127
1, 209020, Note_off_c, 7, 79, 127
1, 209022, Note_on_c, 7, 79, 127
1, 209022, Note_on_c, 4, 52, 127
1, 209130, Note_off_c, 4, 52, 127
1, 209130, Note_off_c, 7, 79, 127
1, 209132, Note_on_c, 10, 81, 127
1, 209132, Note_on_c, 6, 54, 127
1, 209240, Note_off_c, 6, 54, 127
1, 209240, Note_off_c, 10, 81, 127
1, 209242, Note_on_c, 12, 83, 127
1, 209242, Note_on_c, 7, 55, 127
1, 209460, Note_off_c, 7, 55, 127
1, 209460, Note_off_c, 12, 83, 127
1, 209462, Note_on_c, 0, 72, 127
1, 209462, Note_on_c, 10, 57, 127
1, 209680, Note_off_c, 10, 57, 127
1, 209680, Note_off_c, 0, 72, 127
1, 209682, Note_on_c, 2, 74, 127
1, 209682, Note_on_c, 6, 54, 127
1, 209790, Note_off_c, 2, 74, 127
1, 209792, Note_on_c, 0, 72, 127
1, 209900, Note_off_c, 0, 72, 127
1, 209900, Note_off_c, 6, 54, 127
1, 209902, Note_on_c, 12, 71, 127
1, 209902, Note_on_c, 7, 55, 127
1, 210010, Note_off_c, 12, 71, 127
1, 210012, Note_on_c, 10, 69, 127
1, 210120, Note_off_c, 10, 69, 127
1, 210120, Note_off_c, 7, 55, 127
1, 210122, Note_on_c, 12, 71, 127
1, 210122, Note_on_c, 2, 62, 127
1, 210192, Note_off_c, 12, 71, 127
1, 210194, Note_on_c, 10, 69, 127
1, 210264, Note_off_c, 10, 69, 127
1, 210266, Note_on_c, 7, 67, 127
1, 210336, Note_off_c, 7, 67, 127
1, 210338, Note_on_c, 10, 69, 127
1, 210345, Note_off_c, 2, 62, 127
1, 210347, Note_on_c, 0, 60, 127
1, 210408, Note_off_c, 10, 69, 127
1, 210410, Note_on_c, 12, 71, 127
1, 210480, Note_off_c, 12, 71, 127
1, 210482, Note_on_c, 10, 69, 127
1, 210552, Note_off_c, 10, 69, 127
1, 210554, Note_on_c, 12, 71, 127
1, 210570, Note_off_c, 0, 60, 127
1, 210572, Note_on_c, 2, 62, 127
1, 210624, Note_off_c, 12, 71, 127
1, 210626, Note_on_c, 10, 69, 127
1, 210774, Note_off_c, 10, 69, 127
1, 210793, Note_off_c, 2, 62, 127
1, 210795, Note_on_c, 7, 67, 127
1, 210795, Note_on_c, 7, 55, 127
1, 211016, Note_off_c, 7, 55, 127
1, 211018, Note_on_c, 7, 43, 127
1, 211128, Note_off_c, 7, 43, 127
1, 211130, Note_on_c, 10, 45, 127
1, 211240, Note_off_c, 10, 45, 127
1, 211242, Note_on_c, 12, 47, 127
1, 211463, Note_off_c, 12, 47, 127
1, 211463, Note_off_c, 7, 67, 127
1, 211465, Note_on_c, 7, 67, 127
1, 211465, Note_on_c, 0, 48, 127
1, 211686, Note_off_c, 0, 48, 127
1, 211686, Note_off_c, 7, 67, 127
1, 211688, Note_on_c, 7, 67, 127
1, 211688, Note_on_c, 0, 60, 127
1, 211798, Note_off_c, 7, 67, 127
1, 211800, Note_on_c, 10, 69, 127
1, 211910, Note_off_c, 10, 69, 127
1, 211910, Note_off_c, 0, 60, 127
1, 211912, Note_on_c, 12, 71, 127
1, 211912, Note_on_c, 12, 59, 127
1, 212133, Note_off_c, 12, 59, 127
1, 212133, Note_off_c, 12, 71, 127
1, 212135, Note_on_c, 0, 72, 127
1, 212135, Note_on_c, 10, 57, 127
1, 212356, Note_off_c, 10, 57, 127
1, 212356, Note_off_c, 0, 72, 127
1, 212358, Note_on_c, 0, 72, 127
1, 212358, Note_on_c, 10, 45, 127
1, 212468, Note_off_c, 10, 45, 127
1, 212468, Note_off_c, 0, 72, 127
1, 212470, Note_on_c, 2, 74, 127
1, 212470, Note_on_c, 12, 47, 127
1, 212580, Note_off_c, 12, 47, 127
1, 212580, Note_off_c, 2, 74, 127
1, 212582, Note_on_c, 4, 76, 127
1, 212582, Note_on_c, 0, 48, 127
1, 212803, Note_off_c, 0, 48, 127
1, 212803, Note_off_c, 4, 76, 127
1, 212805, Note_on_c, 10, 69, 127
1, 212805, Note_on_c, 2, 50, 127
1, 213026, Note_off_c, 2, 50, 127
1, 213026, Note_off_c, 10, 69, 127
1, 213028, Note_on_c, 10, 69, 127
1, 213028, Note_on_c, 2, 62, 127
1, 213138, Note_off_c, 10, 69, 127
1, 213140, Note_on_c, 12, 71, 127
1, 213250, Note_off_c, 12, 71, 127
1, 213250, Note_off_c, 2, 62, 127
1, 213252, Note_on_c, 0, 72, 127
1, 213252, Note_on_c, 0, 60, 127
1, 213473, Note_off_c, 0, 60, 127
1, 213473, Note_off_c, 0, 72, 127
1, 213475, Note_on_c, 2, 74, 127
1, 213475, Note_on_c, 12, 59, 127
1, 213696, Note_off_c, 12, 59, 127
1, 213696, Note_off_c, 2, 74, 127
1, 213698, Note_on_c, 2, 74, 127
1, 213698, Note_on_c, 12, 47, 127
1, 213808, Note_off_c, 12, 47, 127
1, 213808, Note_off_c, 2, 74, 127
1, 213810, Note_on_c, 4, 76, 127
1, 213810, Note_on_c, 0, 48, 127
1, 213920, Note_off_c, 0, 48, 127
1, 213920, Note_off_c, 4, 76, 127
1, 213922, Note_on_c, 6, 78, 127
1, 213922, Note_on_c, 2, 50, 127
1, 214143, Note_off_c, 2, 50, 127
1, 214143, Note_off_c, 6, 78, 127
1, 214145, Note_on_c, 7, 79, 127
1, 214145, Note_on_c, 4, 52, 127
1, 214366, Note_off_c, 4, 52, 127
1, 214366, Note_off_c, 7, 79, 127
1, 214368, Note_on_c, 7, 79, 127
1, 214368, Note_on_c, 4, 52, 127
1, 214478, Note_off_c, 4, 52, 127
1, 214478, Note_off_c, 7, 79, 127
1, 214480, Note_on_c, 10, 81, 127
1, 214480, Note_on_c, 6, 54, 127
1, 214590, Note_off_c, 6, 54, 127
1, 214590, Note_off_c, 10, 81, 127
1, 214592, Note_on_c, 12, 83, 127
1, 214592, Note_on_c, 7, 55, 127
1, 214813, Note_off_c, 7, 55, 127
1, 214813, Note_off_c, 12, 83, 127
1, 214815, Note_on_c, 0, 72, 127
1, 214815, Note_on_c, 10, 57, 127
1, 215042, Note_off_c, 10, 57, 127
1, 215042, Note_off_c, 0, 72, 127
1, 215044, Note_on_c, 2, 74, 127
1, 215044, Note_on_c, 6, 54, 127
1, 215157, Note_off_c, 2, 74, 127
1, 215159, Note_on_c, 0, 72, 127
1, 215272, Note_off_c, 0, 72, 127
1, 215272, Note_off_c, 6, 54, 127
1, 215274, Note_on_c, 12, 71, 127
1, 215274, Note_on_c, 7, 55, 127
1, 215387, Note_off_c, 12, 71, 127
1, 215389, Note_on_c, 10, 69, 127
1, 215502, Note_off_c, 10, 69, 127
1, 215502, Note_off_c, 7, 55, 127
1, 215504, Note_on_c, 2, 62, 127
1, 215504, Note_on_c, 6, 66, 127
1, 215504, Note_on_c, 10, 69, 127
1, 215760, Note_on_c, 2, 50, 127
1, 216014, Note_off_c, 10, 69, 127
1, 216014, Note_off_c, 6, 66, 127
1, 216032, Note_on_c, 2, 38, 127
1, 216032, Note_on_c, 7, 67, 127
1, 216264, Note_off_c, 2, 62, 127
1, 216270, Note_off_c, 2, 50, 127
1, 216300, Note_off_c, 7, 67, 127
1, 216300, Note_off_c, 2, 38, 127
1, 216360, Note_on_c, 7, 67, 127
1, 216360, Note_on_c, 12, 59, 127
1, 216360, Note_on_c, 2, 62, 127
1, 216360, Note_on_c, 7, 43, 127
1, 219428, Note_off_c, 7, 43, 127
1, 219428, Note_off_c, 2, 62, 127
1, 219428, Note_off_c, 12, 59, 127
1, 219428, Note_off_c, 7, 67, 127
1, 225792, End_track
0, 0, End_of_file
