0, 0, Header, 0, 1, 384
1, 0, Start_track
1, 0, Copyright_t, "(C) John Sankey 1998"
1, 0, Program_c, 0, 6
1, 0, Pitch_bend_c, 0, 8192
1, 0, Program_c, 1, 6
1, 0, Pitch_bend_c, 1, 7792
1, 0, Program_c, 2, 6
1, 0, Pitch_bend_c, 2, 7876
1, 0, Program_c, 3, 6
1, 0, Pitch_bend_c, 3, 7952
1, 0, Program_c, 4, 6
1, 0, Pitch_bend_c, 4, 7792
1, 0, Program_c, 5, 6
1, 0, Pitch_bend_c, 5, 8112
1, 0, Program_c, 6, 6
1, 0, Pitch_bend_c, 6, 7712
1, 0, Program_c, 7, 6
1, 0, Pitch_bend_c, 7, 8037
1, 0, Program_c, 8, 6
1, 0, Pitch_bend_c, 8, 7872
1, 0, Program_c, 10, 6
1, 0, Pitch_bend_c, 10, 7712
1, 0, Program_c, 11, 6
1, 0, Pitch_bend_c, 11, 8032
1, 0, Program_c, 12, 6
1, 0, Pitch_bend_c, 12, 7872
1, 0, Tempo, 500000
1, 48, Note_on_c, 2, 62, 127
1, 48, Note_on_c, 2, 74, 127
1, 366, Note_off_c, 2, 74, 127
1, 366, Note_off_c, 2, 62, 127
1, 368, Note_on_c, 2, 50, 127
1, 368, Note_on_c, 2, 62, 127
1, 835, Note_off_c, 2, 62, 127
1, 835, Note_off_c, 2, 50, 127
1, 1008, Note_on_c, 2, 50, 127
1, 1008, Note_on_c, 2, 62, 127
1, 1326, Note_off_c, 2, 62, 127
1, 1326, Note_off_c, 2, 50, 127
1, 1328, Note_on_c, 4, 52, 127
1, 1328, Note_on_c, 4, 64, 127
1, 1646, Note_off_c, 4, 64, 127
1, 1646, Note_off_c, 4, 52, 127
1, 1648, Note_on_c, 10, 45, 127
1, 1648, Note_on_c, 10, 57, 127
1, 1966, Note_off_c, 10, 57, 127
1, 1966, Note_off_c, 10, 45, 127
1, 1968, Note_on_c, 10, 57, 127
1, 1968, Note_on_c, 10, 69, 127
1, 2286, Note_off_c, 10, 69, 127
1, 2286, Note_off_c, 10, 57, 127
1, 2288, Note_on_c, 4, 52, 127
1, 2288, Note_on_c, 4, 64, 127
1, 2606, Note_off_c, 4, 64, 127
1, 2606, Note_off_c, 4, 52, 127
1, 2608, Note_on_c, 5, 53, 127
1, 2608, Note_on_c, 5, 65, 127
1, 2926, Note_off_c, 5, 65, 127
1, 2926, Note_off_c, 5, 53, 127
1, 2928, Note_on_c, 2, 50, 127
1, 2928, Note_on_c, 2, 62, 127
1, 3395, Note_off_c, 2, 62, 127
1, 3395, Note_off_c, 2, 50, 127
1, 3568, Note_on_c, 11, 58, 127
1, 3568, Note_on_c, 11, 70, 127
1, 3886, Note_off_c, 11, 70, 127
1, 3886, Note_off_c, 11, 58, 127
1, 3888, Note_on_c, 0, 48, 127
1, 3888, Note_on_c, 0, 60, 127
1, 4206, Note_off_c, 0, 60, 127
1, 4206, Note_off_c, 0, 48, 127
1, 4208, Note_on_c, 10, 57, 127
1, 4208, Note_on_c, 10, 69, 127
1, 4526, Note_off_c, 10, 69, 127
1, 4526, Note_off_c, 10, 57, 127
1, 4528, Note_on_c, 11, 46, 127
1, 4528, Note_on_c, 11, 58, 127
1, 4846, Note_off_c, 11, 58, 127
1, 4846, Note_off_c, 11, 46, 127
1, 4848, Note_on_c, 7, 55, 127
1, 4848, Note_on_c, 7, 67, 127
1, 5166, Note_off_c, 7, 67, 127
1, 5166, Note_off_c, 7, 55, 127
1, 5168, Note_on_c, 10, 45, 127
1, 5168, Note_on_c, 10, 57, 127
1, 5885, Note_off_c, 10, 57, 127
1, 5885, Note_off_c, 10, 45, 127
1, 5968, Note_on_c, 10, 45, 127
1, 5968, Note_on_c, 10, 57, 127
1, 6126, Note_off_c, 10, 57, 127
1, 6126, Note_off_c, 10, 45, 127
1, 6128, Note_on_c, 12, 47, 127
1, 6128, Note_on_c, 12, 59, 127
1, 6286, Note_off_c, 12, 59, 127
1, 6286, Note_off_c, 12, 47, 127
1, 6288, Note_on_c, 1, 49, 127
1, 6288, Note_on_c, 1, 61, 127
1, 6446, Note_off_c, 1, 61, 127
1, 6446, Note_off_c, 1, 49, 127
1, 6448, Note_on_c, 2, 50, 127
1, 6448, Note_on_c, 2, 62, 127
1, 6606, Note_off_c, 2, 62, 127
1, 6606, Note_off_c, 2, 50, 127
1, 6608, Note_on_c, 4, 52, 127
1, 6608, Note_on_c, 4, 64, 127
1, 6766, Note_off_c, 4, 64, 127
1, 6766, Note_off_c, 4, 52, 127
1, 6768, Note_on_c, 5, 53, 127
1, 6768, Note_on_c, 5, 65, 127
1, 6926, Note_off_c, 5, 65, 127
1, 6926, Note_off_c, 5, 53, 127
1, 6928, Note_on_c, 7, 55, 127
1, 6928, Note_on_c, 7, 67, 127
1, 7086, Note_off_c, 7, 67, 127
1, 7086, Note_off_c, 7, 55, 127
1, 7088, Note_on_c, 10, 57, 127
1, 7088, Note_on_c, 10, 69, 127
1, 7406, Note_off_c, 10, 69, 127
1, 7406, Note_off_c, 10, 57, 127
1, 7408, Note_on_c, 10, 45, 127
1, 7408, Note_on_c, 10, 57, 127
1, 7726, Note_off_c, 10, 57, 127
1, 7726, Note_off_c, 10, 45, 127
1, 7728, Note_on_c, 2, 50, 127
1, 7728, Note_on_c, 5, 53, 127
1, 7728, Note_on_c, 10, 57, 127
1, 7728, Note_on_c, 2, 62, 127
1, 7728, Note_on_c, 2, 74, 127
1, 7728, Note_on_c, 10, 69, 127
1, 7728, Note_on_c, 5, 65, 127
1, 8046, Note_off_c, 10, 57, 127
1, 8046, Note_off_c, 5, 53, 127
1, 8046, Note_off_c, 2, 50, 127
1, 8048, Note_on_c, 4, 52, 127
1, 8366, Note_off_c, 4, 52, 127
1, 8368, Note_on_c, 5, 53, 127
1, 8526, Note_off_c, 5, 65, 127
1, 8526, Note_off_c, 10, 69, 127
1, 8526, Note_off_c, 2, 74, 127
1, 8526, Note_off_c, 2, 62, 127
1, 8528, Note_on_c, 2, 74, 127
1, 8686, Note_off_c, 2, 74, 127
1, 8686, Note_off_c, 5, 53, 127
1, 8688, Note_on_c, 2, 50, 127
1, 8688, Note_on_c, 4, 76, 127
1, 8846, Note_off_c, 4, 76, 127
1, 8848, Note_on_c, 5, 77, 127
1, 9006, Note_off_c, 5, 77, 127
1, 9006, Note_off_c, 2, 50, 127
1, 9008, Note_on_c, 1, 49, 127
1, 9008, Note_on_c, 4, 52, 127
1, 9008, Note_on_c, 10, 57, 127
1, 9008, Note_on_c, 5, 77, 127
1, 9073, Note_off_c, 5, 77, 127
1, 9075, Note_on_c, 4, 76, 127
1, 9140, Note_off_c, 4, 76, 127
1, 9142, Note_on_c, 5, 77, 127
1, 9207, Note_off_c, 5, 77, 127
1, 9209, Note_on_c, 4, 76, 127
1, 9327, Note_off_c, 4, 76, 127
1, 9329, Note_on_c, 10, 69, 127
1, 9642, Note_off_c, 10, 57, 127
1, 9642, Note_off_c, 4, 52, 127
1, 9642, Note_off_c, 1, 49, 127
1, 9647, Note_off_c, 10, 69, 127
1, 9649, Note_on_c, 10, 81, 127
1, 9807, Note_off_c, 10, 81, 127
1, 9809, Note_on_c, 7, 79, 127
1, 9967, Note_off_c, 7, 79, 127
1, 9969, Note_on_c, 1, 49, 127
1, 9969, Note_on_c, 10, 45, 127
1, 9969, Note_on_c, 10, 81, 127
1, 10127, Note_off_c, 10, 81, 127
1, 10129, Note_on_c, 4, 76, 127
1, 10287, Note_off_c, 4, 76, 127
1, 10287, Note_off_c, 10, 45, 127
1, 10287, Note_off_c, 1, 49, 127
1, 10289, Note_on_c, 2, 38, 127
1, 10289, Note_on_c, 2, 50, 127
1, 10289, Note_on_c, 5, 77, 127
1, 10607, Note_off_c, 5, 77, 127
1, 10607, Note_off_c, 2, 50, 127
1, 10607, Note_off_c, 2, 38, 127
1, 10609, Note_on_c, 2, 50, 127
1, 10609, Note_on_c, 2, 74, 127
1, 10767, Note_off_c, 2, 50, 127
1, 10769, Note_on_c, 4, 52, 127
1, 10926, Note_off_c, 2, 74, 127
1, 10928, Note_off_c, 4, 52, 127
1, 10930, Note_on_c, 5, 53, 127
1, 11088, Note_off_c, 5, 53, 127
1, 11090, Note_on_c, 7, 55, 127
1, 11248, Note_off_c, 7, 55, 127
1, 11250, Note_on_c, 10, 57, 127
1, 11250, Note_on_c, 11, 70, 127
1, 11408, Note_off_c, 10, 57, 127
1, 11410, Note_on_c, 11, 58, 127
1, 11568, Note_off_c, 11, 58, 127
1, 11568, Note_off_c, 11, 70, 127
1, 11570, Note_on_c, 0, 48, 127
1, 11570, Note_on_c, 0, 60, 127
1, 11728, Note_off_c, 0, 60, 127
1, 11730, Note_on_c, 4, 64, 127
1, 11888, Note_off_c, 4, 64, 127
1, 11888, Note_off_c, 0, 48, 127
1, 11890, Note_on_c, 10, 57, 127
1, 11890, Note_on_c, 5, 65, 127
1, 12048, Note_off_c, 5, 65, 127
1, 12050, Note_on_c, 10, 69, 127
1, 12208, Note_off_c, 10, 69, 127
1, 12208, Note_off_c, 10, 57, 127
1, 12210, Note_on_c, 11, 46, 127
1, 12210, Note_on_c, 11, 58, 127
1, 12368, Note_off_c, 11, 58, 127
1, 12370, Note_on_c, 2, 62, 127
1, 12528, Note_off_c, 2, 62, 127
1, 12528, Note_off_c, 11, 46, 127
1, 12530, Note_on_c, 7, 55, 127
1, 12530, Note_on_c, 4, 64, 127
1, 12688, Note_off_c, 4, 64, 127
1, 12690, Note_on_c, 7, 67, 127
1, 12848, Note_off_c, 7, 67, 127
1, 12848, Note_off_c, 7, 55, 127
1, 12850, Note_on_c, 10, 45, 127
1, 12850, Note_on_c, 10, 57, 127
1, 13570, Note_off_c, 10, 57, 127
1, 13570, Note_off_c, 10, 45, 127
1, 13650, Note_on_c, 10, 45, 127
1, 13650, Note_on_c, 10, 57, 127
1, 13808, Note_off_c, 10, 57, 127
1, 13808, Note_off_c, 10, 45, 127
1, 13810, Note_on_c, 12, 47, 127
1, 13810, Note_on_c, 12, 59, 127
1, 13968, Note_off_c, 12, 59, 127
1, 13968, Note_off_c, 12, 47, 127
1, 13970, Note_on_c, 1, 49, 127
1, 13970, Note_on_c, 1, 61, 127
1, 14128, Note_off_c, 1, 61, 127
1, 14128, Note_off_c, 1, 49, 127
1, 14130, Note_on_c, 2, 50, 127
1, 14130, Note_on_c, 2, 62, 127
1, 14288, Note_off_c, 2, 62, 127
1, 14288, Note_off_c, 2, 50, 127
1, 14290, Note_on_c, 4, 52, 127
1, 14290, Note_on_c, 4, 64, 127
1, 14448, Note_off_c, 4, 64, 127
1, 14448, Note_off_c, 4, 52, 127
1, 14450, Note_on_c, 5, 53, 127
1, 14450, Note_on_c, 5, 65, 127
1, 14608, Note_off_c, 5, 65, 127
1, 14608, Note_off_c, 5, 53, 127
1, 14610, Note_on_c, 7, 55, 127
1, 14610, Note_on_c, 7, 67, 127
1, 14768, Note_off_c, 7, 67, 127
1, 14768, Note_off_c, 7, 55, 127
1, 14770, Note_on_c, 10, 57, 127
1, 14770, Note_on_c, 10, 69, 127
1, 15088, Note_off_c, 10, 69, 127
1, 15088, Note_off_c, 10, 57, 127
1, 15090, Note_on_c, 10, 45, 127
1, 15090, Note_on_c, 10, 57, 127
1, 15408, Note_off_c, 10, 57, 127
1, 15408, Note_off_c, 10, 45, 127
1, 15410, Note_on_c, 5, 53, 127
1, 15410, Note_on_c, 2, 50, 127
1, 15410, Note_on_c, 10, 57, 127
1, 15410, Note_on_c, 10, 69, 127
1, 15410, Note_on_c, 5, 65, 127
1, 15410, Note_on_c, 2, 62, 127
1, 15410, Note_on_c, 2, 74, 127
1, 15728, Note_off_c, 10, 57, 127
1, 15728, Note_off_c, 2, 50, 127
1, 15728, Note_off_c, 5, 53, 127
1, 15730, Note_on_c, 4, 52, 127
1, 16043, Note_off_c, 2, 62, 127
1, 16043, Note_off_c, 5, 65, 127
1, 16043, Note_off_c, 10, 69, 127
1, 16048, Note_off_c, 4, 52, 127
1, 16050, Note_on_c, 5, 53, 127
1, 16208, Note_off_c, 2, 74, 127
1, 16210, Note_on_c, 2, 74, 127
1, 16368, Note_off_c, 2, 74, 127
1, 16368, Note_off_c, 5, 53, 127
1, 16370, Note_on_c, 2, 50, 127
1, 16370, Note_on_c, 4, 76, 127
1, 16528, Note_off_c, 4, 76, 127
1, 16530, Note_on_c, 5, 77, 127
1, 16688, Note_off_c, 5, 77, 127
1, 16688, Note_off_c, 2, 50, 127
1, 16690, Note_on_c, 4, 52, 127
1, 16690, Note_on_c, 1, 49, 127
1, 16690, Note_on_c, 10, 57, 127
1, 16690, Note_on_c, 4, 76, 127
1, 16928, Note_off_c, 4, 76, 127
1, 16930, Note_on_c, 2, 74, 127
1, 17008, Note_off_c, 2, 74, 127
1, 17010, Note_on_c, 1, 73, 127
1, 17088, Note_off_c, 1, 73, 127
1, 17090, Note_on_c, 12, 71, 127
1, 17168, Note_off_c, 12, 71, 127
1, 17170, Note_on_c, 10, 69, 127
1, 17328, Note_off_c, 10, 69, 127
1, 17330, Note_on_c, 10, 81, 127
1, 17488, Note_off_c, 10, 81, 127
1, 17490, Note_off_c, 10, 57, 127
1, 17490, Note_off_c, 1, 49, 127
1, 17490, Note_on_c, 7, 79, 127
1, 17648, Note_off_c, 7, 79, 127
1, 17650, Note_on_c, 10, 45, 127
1, 17650, Note_on_c, 10, 81, 127
1, 17808, Note_off_c, 10, 81, 127
1, 17810, Note_on_c, 4, 76, 127
1, 17968, Note_off_c, 4, 76, 127
1, 17968, Note_off_c, 10, 45, 127
1, 17968, Note_off_c, 4, 52, 127
1, 17970, Note_on_c, 2, 50, 127
1, 17970, Note_on_c, 10, 57, 127
1, 17970, Note_on_c, 5, 53, 127
1, 17970, Note_on_c, 5, 77, 127
1, 18288, Note_off_c, 5, 77, 127
1, 18288, Note_off_c, 5, 53, 127
1, 18288, Note_off_c, 10, 57, 127
1, 18288, Note_off_c, 2, 50, 127
1, 18290, Note_on_c, 2, 62, 127
1, 18290, Note_on_c, 2, 74, 127
1, 18590, Note_off_c, 2, 74, 127
1, 18608, Note_off_c, 2, 62, 127
1, 18610, Note_on_c, 11, 58, 127
1, 18770, Note_on_c, 5, 77, 127
1, 18928, Note_off_c, 5, 77, 127
1, 18928, Note_off_c, 11, 58, 127
1, 18930, Note_on_c, 7, 55, 127
1, 18930, Note_on_c, 7, 79, 127
1, 19088, Note_off_c, 7, 79, 127
1, 19090, Note_on_c, 5, 77, 127
1, 19248, Note_off_c, 5, 77, 127
1, 19248, Note_off_c, 7, 55, 127
1, 19250, Note_on_c, 11, 58, 127
1, 19250, Note_on_c, 7, 55, 127
1, 19250, Note_on_c, 0, 48, 127
1, 19250, Note_on_c, 5, 77, 127
1, 19408, Note_off_c, 5, 77, 127
1, 19410, Note_on_c, 4, 76, 127
1, 19568, Note_off_c, 4, 76, 127
1, 19570, Note_on_c, 4, 76, 127
1, 19728, Note_off_c, 4, 76, 127
1, 19730, Note_on_c, 10, 81, 127
1, 19817, Note_off_c, 0, 48, 127
1, 19884, Note_off_c, 11, 58, 127
1, 19889, Note_off_c, 10, 81, 127
1, 19891, Note_on_c, 10, 81, 127
1, 19984, Note_off_c, 7, 55, 127
1, 20049, Note_off_c, 10, 81, 127
1, 20051, Note_on_c, 4, 76, 127
1, 20209, Note_off_c, 4, 76, 127
1, 20211, Note_on_c, 10, 57, 127
1, 20211, Note_on_c, 10, 81, 127
1, 20369, Note_off_c, 10, 81, 127
1, 20371, Note_on_c, 4, 76, 127
1, 20529, Note_off_c, 4, 76, 127
1, 20529, Note_off_c, 10, 57, 127
1, 20531, Note_on_c, 11, 46, 127
1, 20531, Note_on_c, 10, 57, 127
1, 20531, Note_on_c, 5, 53, 127
1, 20531, Note_on_c, 4, 76, 127
1, 20689, Note_off_c, 4, 76, 127
1, 20691, Note_on_c, 2, 74, 127
1, 20849, Note_off_c, 2, 74, 127
1, 20851, Note_on_c, 2, 74, 127
1, 21009, Note_off_c, 2, 74, 127
1, 21011, Note_on_c, 7, 79, 127
1, 21098, Note_off_c, 11, 46, 127
1, 21165, Note_off_c, 10, 57, 127
1, 21170, Note_off_c, 7, 79, 127
1, 21172, Note_on_c, 7, 79, 127
1, 21265, Note_off_c, 5, 53, 127
1, 21330, Note_off_c, 7, 79, 127
1, 21332, Note_on_c, 2, 74, 127
1, 21490, Note_off_c, 2, 74, 127
1, 21492, Note_on_c, 7, 55, 127
1, 21492, Note_on_c, 7, 79, 127
1, 21650, Note_off_c, 7, 79, 127
1, 21652, Note_on_c, 2, 74, 127
1, 21810, Note_off_c, 2, 74, 127
1, 21810, Note_off_c, 7, 55, 127
1, 21812, Note_on_c, 10, 45, 127
1, 21812, Note_on_c, 7, 55, 127
1, 21812, Note_on_c, 4, 52, 127
1, 21812, Note_on_c, 4, 76, 127
1, 21890, Note_off_c, 4, 76, 127
1, 21892, Note_on_c, 2, 74, 127
1, 21970, Note_off_c, 2, 74, 127
1, 21972, Note_on_c, 4, 76, 127
1, 22050, Note_off_c, 4, 76, 127
1, 22052, Note_on_c, 2, 74, 127
1, 22130, Note_off_c, 2, 74, 127
1, 22130, Note_off_c, 4, 52, 127
1, 22130, Note_off_c, 7, 55, 127
1, 22130, Note_off_c, 10, 45, 127
1, 22132, Note_on_c, 10, 57, 127
1, 22132, Note_on_c, 1, 73, 127
1, 22290, Note_off_c, 10, 57, 127
1, 22292, Note_on_c, 7, 55, 127
1, 22449, Note_off_c, 1, 73, 127
1, 22451, Note_off_c, 7, 55, 127
1, 22453, Note_on_c, 5, 53, 127
1, 22771, Note_off_c, 5, 53, 127
1, 22773, Note_on_c, 5, 53, 127
1, 22773, Note_on_c, 2, 50, 127
1, 22773, Note_on_c, 10, 69, 127
1, 23091, Note_off_c, 10, 69, 127
1, 23091, Note_off_c, 2, 50, 127
1, 23091, Note_off_c, 5, 53, 127
1, 23093, Note_on_c, 2, 50, 127
1, 23093, Note_on_c, 7, 43, 127
1, 23093, Note_on_c, 7, 55, 127
1, 23093, Note_on_c, 12, 71, 127
1, 23251, Note_off_c, 12, 71, 127
1, 23253, Note_on_c, 1, 73, 127
1, 23411, Note_off_c, 1, 73, 127
1, 23411, Note_off_c, 7, 55, 127
1, 23411, Note_off_c, 2, 50, 127
1, 23413, Note_on_c, 7, 55, 127
1, 23413, Note_on_c, 1, 73, 127
1, 23571, Note_off_c, 1, 73, 127
1, 23573, Note_on_c, 2, 74, 127
1, 23726, Note_off_c, 7, 43, 127
1, 23731, Note_off_c, 2, 74, 127
1, 23733, Note_on_c, 5, 53, 127
1, 23733, Note_on_c, 2, 74, 127
1, 23891, Note_off_c, 2, 74, 127
1, 23893, Note_on_c, 4, 76, 127
1, 24046, Note_off_c, 7, 55, 127
1, 24051, Note_off_c, 4, 76, 127
1, 24051, Note_off_c, 5, 53, 127
1, 24053, Note_on_c, 4, 52, 127
1, 24053, Note_on_c, 1, 61, 127
1, 24053, Note_on_c, 7, 55, 127
1, 24053, Note_on_c, 4, 76, 127
1, 24211, Note_off_c, 4, 76, 127
1, 24213, Note_on_c, 5, 77, 127
1, 24371, Note_off_c, 5, 77, 127
1, 24371, Note_off_c, 7, 55, 127
1, 24371, Note_off_c, 1, 61, 127
1, 24371, Note_off_c, 4, 52, 127
1, 24373, Note_on_c, 10, 57, 127
1, 24373, Note_on_c, 2, 50, 127
1, 24373, Note_on_c, 2, 62, 127
1, 24373, Note_on_c, 5, 77, 127
1, 24531, Note_off_c, 5, 77, 127
1, 24533, Note_on_c, 2, 74, 127
1, 24691, Note_off_c, 2, 74, 127
1, 24691, Note_off_c, 2, 62, 127
1, 24691, Note_off_c, 2, 50, 127
1, 24693, Note_on_c, 0, 48, 127
1, 24693, Note_on_c, 2, 74, 127
1, 24851, Note_off_c, 2, 74, 127
1, 24853, Note_on_c, 4, 76, 127
1, 25006, Note_off_c, 10, 57, 127
1, 25011, Note_off_c, 4, 76, 127
1, 25011, Note_off_c, 0, 48, 127
1, 25013, Note_on_c, 11, 46, 127
1, 25013, Note_on_c, 4, 76, 127
1, 25171, Note_off_c, 4, 76, 127
1, 25173, Note_on_c, 6, 78, 127
1, 25331, Note_off_c, 6, 78, 127
1, 25331, Note_off_c, 11, 46, 127
1, 25333, Note_on_c, 0, 48, 127
1, 25333, Note_on_c, 10, 45, 127
1, 25333, Note_on_c, 10, 57, 127
1, 25333, Note_on_c, 6, 78, 127
1, 25491, Note_off_c, 6, 78, 127
1, 25493, Note_on_c, 7, 79, 127
1, 25651, Note_off_c, 7, 79, 127
1, 25651, Note_off_c, 10, 57, 127
1, 25651, Note_off_c, 10, 45, 127
1, 25651, Note_off_c, 0, 48, 127
1, 25653, Note_on_c, 2, 50, 127
1, 25653, Note_on_c, 11, 46, 127
1, 25653, Note_on_c, 7, 79, 127
1, 25971, Note_off_c, 11, 46, 127
1, 25973, Note_on_c, 11, 58, 127
1, 26286, Note_off_c, 2, 50, 127
1, 26291, Note_off_c, 11, 58, 127
1, 26293, Note_on_c, 1, 49, 127
1, 26293, Note_on_c, 4, 52, 127
1, 26451, Note_off_c, 7, 79, 127
1, 26453, Note_on_c, 10, 81, 127
1, 26531, Note_off_c, 10, 81, 127
1, 26533, Note_on_c, 11, 82, 127
1, 26611, Note_off_c, 11, 82, 127
1, 26611, Note_off_c, 4, 52, 127
1, 26611, Note_off_c, 1, 49, 127
1, 26613, Note_on_c, 10, 57, 127
1, 26613, Note_on_c, 10, 45, 127
1, 26613, Note_on_c, 10, 81, 127
1, 26771, Note_off_c, 10, 81, 127
1, 26773, Note_on_c, 7, 79, 127
1, 26931, Note_off_c, 7, 79, 127
1, 26931, Note_off_c, 10, 45, 127
1, 26931, Note_off_c, 10, 57, 127
1, 26933, Note_on_c, 2, 50, 127
1, 26933, Note_on_c, 10, 57, 127
1, 26933, Note_on_c, 5, 77, 127
1, 27021, Note_off_c, 5, 77, 127
1, 27023, Note_on_c, 4, 76, 127
1, 27111, Note_off_c, 4, 76, 127
1, 27113, Note_on_c, 7, 79, 127
1, 27198, Note_off_c, 7, 79, 127
1, 27203, Note_on_c, 5, 77, 127
1, 27251, Note_off_c, 10, 57, 127
1, 27251, Note_off_c, 2, 50, 127
1, 27253, Note_on_c, 7, 55, 127
1, 27253, Note_on_c, 11, 58, 127
1, 27331, Note_off_c, 5, 77, 127
1, 27333, Note_on_c, 4, 76, 127
1, 27411, Note_off_c, 4, 76, 127
1, 27413, Note_on_c, 5, 77, 127
1, 27491, Note_off_c, 5, 77, 127
1, 27493, Note_on_c, 2, 74, 127
1, 27571, Note_off_c, 2, 74, 127
1, 27571, Note_off_c, 11, 58, 127
1, 27571, Note_off_c, 7, 55, 127
1, 27573, Note_on_c, 10, 57, 127
1, 27573, Note_on_c, 2, 74, 127
1, 27731, Note_off_c, 2, 74, 127
1, 27733, Note_on_c, 1, 73, 127
1, 27811, Note_off_c, 1, 73, 127
1, 27813, Note_on_c, 2, 74, 127
1, 27891, Note_off_c, 2, 74, 127
1, 27891, Note_off_c, 10, 57, 127
1, 27893, Note_on_c, 10, 45, 127
1, 27893, Note_on_c, 7, 55, 127
1, 27893, Note_on_c, 1, 73, 127
1, 28051, Note_off_c, 1, 73, 127
1, 28053, Note_on_c, 2, 74, 127
1, 28211, Note_off_c, 2, 74, 127
1, 28211, Note_off_c, 7, 55, 127
1, 28211, Note_off_c, 10, 45, 127
1, 28213, Note_on_c, 5, 53, 127
1, 28213, Note_on_c, 2, 50, 127
1, 28213, Note_on_c, 10, 57, 127
1, 28213, Note_on_c, 2, 74, 127
1, 28531, Note_off_c, 2, 50, 127
1, 28531, Note_off_c, 5, 53, 127
1, 28533, Note_on_c, 4, 52, 127
1, 28846, Note_off_c, 2, 74, 127
1, 28851, Note_off_c, 4, 52, 127
1, 28853, Note_on_c, 5, 53, 127
1, 29013, Note_off_c, 10, 57, 127
1, 29171, Note_off_c, 5, 53, 127
1, 29173, Note_on_c, 2, 50, 127
1, 29173, Note_on_c, 2, 62, 127
1, 29173, Note_on_c, 10, 69, 127
1, 29173, Note_on_c, 5, 65, 127
1, 29491, Note_off_c, 5, 65, 127
1, 29491, Note_off_c, 10, 69, 127
1, 29491, Note_off_c, 2, 62, 127
1, 29491, Note_off_c, 2, 50, 127
1, 29493, Note_on_c, 2, 62, 127
1, 29493, Note_on_c, 7, 55, 127
1, 29493, Note_on_c, 12, 71, 127
1, 29493, Note_on_c, 7, 67, 127
1, 29651, Note_off_c, 7, 67, 127
1, 29651, Note_off_c, 12, 71, 127
1, 29651, Note_off_c, 2, 62, 127
1, 29653, Note_on_c, 4, 64, 127
1, 29653, Note_on_c, 1, 73, 127
1, 29811, Note_off_c, 1, 73, 127
1, 29811, Note_off_c, 4, 64, 127
1, 29813, Note_on_c, 4, 64, 127
1, 29813, Note_on_c, 10, 69, 127
1, 29813, Note_on_c, 1, 73, 127
1, 29960, Note_off_c, 7, 55, 127
1, 29972, Note_off_c, 1, 73, 127
1, 29972, Note_off_c, 10, 69, 127
1, 29972, Note_off_c, 4, 64, 127
1, 29974, Note_on_c, 5, 65, 127
1, 29974, Note_on_c, 2, 74, 127
1, 30132, Note_off_c, 2, 74, 127
1, 30132, Note_off_c, 5, 65, 127
1, 30134, Note_on_c, 5, 65, 127
1, 30134, Note_on_c, 5, 53, 127
1, 30134, Note_on_c, 12, 71, 127
1, 30134, Note_on_c, 2, 74, 127
1, 30292, Note_off_c, 2, 74, 127
1, 30292, Note_off_c, 12, 71, 127
1, 30292, Note_off_c, 5, 65, 127
1, 30294, Note_on_c, 1, 61, 127
1, 30294, Note_on_c, 4, 76, 127
1, 30434, Note_off_c, 5, 53, 127
1, 30452, Note_off_c, 4, 76, 127
1, 30452, Note_off_c, 1, 61, 127
1, 30454, Note_on_c, 4, 52, 127
1, 30454, Note_on_c, 1, 61, 127
1, 30454, Note_on_c, 4, 76, 127
1, 30612, Note_off_c, 4, 76, 127
1, 30612, Note_off_c, 1, 61, 127
1, 30614, Note_on_c, 2, 62, 127
1, 30614, Note_on_c, 5, 77, 127
1, 30754, Note_off_c, 4, 52, 127
1, 30772, Note_off_c, 5, 77, 127
1, 30772, Note_off_c, 2, 62, 127
1, 30774, Note_on_c, 2, 50, 127
1, 30774, Note_on_c, 2, 62, 127
1, 30774, Note_on_c, 5, 77, 127
1, 30932, Note_off_c, 5, 77, 127
1, 30932, Note_off_c, 2, 50, 127
1, 30934, Note_on_c, 5, 53, 127
1, 30934, Note_on_c, 2, 74, 127
1, 31092, Note_off_c, 2, 74, 127
1, 31092, Note_off_c, 5, 53, 127
1, 31094, Note_on_c, 5, 53, 127
1, 31094, Note_on_c, 10, 69, 127
1, 31094, Note_on_c, 2, 74, 127
1, 31241, Note_off_c, 2, 62, 127
1, 31253, Note_off_c, 2, 74, 127
1, 31253, Note_off_c, 10, 69, 127
1, 31253, Note_off_c, 5, 53, 127
1, 31255, Note_on_c, 7, 55, 127
1, 31255, Note_on_c, 4, 76, 127
1, 31413, Note_off_c, 4, 76, 127
1, 31413, Note_off_c, 7, 55, 127
1, 31415, Note_on_c, 2, 50, 127
1, 31415, Note_on_c, 7, 55, 127
1, 31415, Note_on_c, 4, 76, 127
1, 31415, Note_on_c, 11, 70, 127
1, 31573, Note_off_c, 11, 70, 127
1, 31573, Note_off_c, 4, 76, 127
1, 31573, Note_off_c, 7, 55, 127
1, 31575, Note_on_c, 10, 57, 127
1, 31575, Note_on_c, 6, 78, 127
1, 31715, Note_off_c, 2, 50, 127
1, 31733, Note_off_c, 6, 78, 127
1, 31733, Note_off_c, 10, 57, 127
1, 31735, Note_on_c, 0, 48, 127
1, 31735, Note_on_c, 10, 57, 127
1, 31735, Note_on_c, 6, 78, 127
1, 31735, Note_on_c, 2, 74, 127
1, 31735, Note_on_c, 10, 69, 127
1, 31893, Note_off_c, 10, 69, 127
1, 31893, Note_off_c, 2, 74, 127
1, 31893, Note_off_c, 6, 78, 127
1, 31893, Note_off_c, 10, 57, 127
1, 31895, Note_on_c, 11, 58, 127
1, 31895, Note_on_c, 7, 79, 127
1, 32035, Note_off_c, 0, 48, 127
1, 32053, Note_off_c, 7, 79, 127
1, 32053, Note_off_c, 11, 58, 127
1, 32055, Note_on_c, 11, 46, 127
1, 32055, Note_on_c, 11, 70, 127
1, 32055, Note_on_c, 7, 67, 127
1, 32055, Note_on_c, 7, 79, 127
1, 32055, Note_on_c, 2, 74, 127
1, 32213, Note_off_c, 11, 46, 127
1, 32215, Note_on_c, 2, 50, 127
1, 32373, Note_off_c, 2, 50, 127
1, 32375, Note_on_c, 7, 55, 127
1, 32522, Note_off_c, 2, 74, 127
1, 32522, Note_off_c, 7, 67, 127
1, 32522, Note_off_c, 11, 70, 127
1, 32534, Note_off_c, 7, 55, 127
1, 32536, Note_on_c, 11, 58, 127
1, 32694, Note_off_c, 11, 58, 127
1, 32696, Note_on_c, 1, 49, 127
1, 32854, Note_off_c, 1, 49, 127
1, 32854, Note_off_c, 7, 79, 127
1, 32856, Note_on_c, 7, 55, 127
1, 32856, Note_on_c, 4, 76, 127
1, 33014, Note_off_c, 4, 76, 127
1, 33014, Note_off_c, 7, 55, 127
1, 33016, Note_on_c, 5, 53, 127
1, 33016, Note_on_c, 10, 69, 127
1, 33174, Note_off_c, 5, 53, 127
1, 33176, Note_on_c, 4, 52, 127
1, 33176, Note_on_c, 10, 81, 127
1, 33334, Note_off_c, 10, 81, 127
1, 33334, Note_off_c, 4, 52, 127
1, 33336, Note_on_c, 2, 50, 127
1, 33336, Note_on_c, 5, 77, 127
1, 33483, Note_off_c, 10, 69, 127
1, 33655, Note_off_c, 5, 77, 127
1, 33655, Note_off_c, 2, 50, 127
1, 33657, Note_on_c, 7, 55, 127
1, 33657, Note_on_c, 4, 76, 127
1, 33657, Note_on_c, 7, 67, 127
1, 33815, Note_off_c, 7, 67, 127
1, 33815, Note_off_c, 4, 76, 127
1, 33817, Note_on_c, 2, 74, 127
1, 33817, Note_on_c, 5, 65, 127
1, 33975, Note_off_c, 5, 65, 127
1, 33975, Note_off_c, 2, 74, 127
1, 33975, Note_off_c, 7, 55, 127
1, 33977, Note_on_c, 10, 57, 127
1, 33977, Note_on_c, 2, 74, 127
1, 33977, Note_on_c, 4, 64, 127
1, 34042, Note_off_c, 2, 74, 127
1, 34044, Note_on_c, 1, 73, 127
1, 34109, Note_off_c, 1, 73, 127
1, 34111, Note_on_c, 2, 74, 127
1, 34176, Note_off_c, 2, 74, 127
1, 34178, Note_on_c, 1, 73, 127
1, 34278, Note_off_c, 4, 64, 127
1, 34298, Note_on_c, 10, 45, 127
1, 34456, Note_off_c, 1, 73, 127
1, 34458, Note_on_c, 2, 74, 127
1, 34611, Note_off_c, 10, 57, 127
1, 34616, Note_off_c, 2, 74, 127
1, 34616, Note_off_c, 10, 45, 127
1, 34618, Note_on_c, 2, 50, 127
1, 34618, Note_on_c, 2, 74, 127
1, 34776, Note_off_c, 2, 74, 127
1, 34778, Note_on_c, 2, 74, 127
1, 34936, Note_off_c, 2, 74, 127
1, 34936, Note_off_c, 2, 50, 127
1, 34938, Note_on_c, 2, 62, 127
1, 34938, Note_on_c, 5, 65, 127
1, 34938, Note_on_c, 2, 74, 127
1, 35096, Note_off_c, 2, 74, 127
1, 35098, Note_on_c, 5, 77, 127
1, 35256, Note_off_c, 5, 77, 127
1, 35256, Note_off_c, 5, 65, 127
1, 35256, Note_off_c, 2, 62, 127
1, 35258, Note_on_c, 2, 62, 127
1, 35258, Note_on_c, 5, 65, 127
1, 35258, Note_on_c, 5, 77, 127
1, 35416, Note_off_c, 5, 77, 127
1, 35418, Note_on_c, 10, 81, 127
1, 35576, Note_off_c, 10, 81, 127
1, 35576, Note_off_c, 5, 65, 127
1, 35576, Note_off_c, 2, 62, 127
1, 35578, Note_on_c, 2, 62, 127
1, 35578, Note_on_c, 5, 65, 127
1, 35578, Note_on_c, 10, 81, 127
1, 35736, Note_off_c, 10, 81, 127
1, 35738, Note_on_c, 0, 72, 127
1, 35896, Note_off_c, 0, 72, 127
1, 35896, Note_off_c, 5, 65, 127
1, 35896, Note_off_c, 2, 62, 127
1, 35898, Note_on_c, 5, 65, 127
1, 35898, Note_on_c, 2, 62, 127
1, 35898, Note_on_c, 7, 55, 127
1, 35898, Note_on_c, 0, 72, 127
1, 36056, Note_off_c, 0, 72, 127
1, 36058, Note_on_c, 11, 70, 127
1, 36216, Note_off_c, 11, 70, 127
1, 36216, Note_off_c, 7, 55, 127
1, 36216, Note_off_c, 2, 62, 127
1, 36216, Note_off_c, 5, 65, 127
1, 36218, Note_on_c, 5, 65, 127
1, 36218, Note_on_c, 2, 62, 127
1, 36218, Note_on_c, 7, 55, 127
1, 36218, Note_on_c, 11, 70, 127
1, 36376, Note_off_c, 11, 70, 127
1, 36378, Note_on_c, 4, 76, 127
1, 36536, Note_off_c, 4, 76, 127
1, 36536, Note_off_c, 7, 55, 127
1, 36536, Note_off_c, 2, 62, 127
1, 36536, Note_off_c, 5, 65, 127
1, 36538, Note_on_c, 0, 60, 127
1, 36538, Note_on_c, 4, 64, 127
1, 36538, Note_on_c, 4, 76, 127
1, 36696, Note_off_c, 4, 76, 127
1, 36698, Note_on_c, 7, 79, 127
1, 36856, Note_off_c, 7, 79, 127
1, 36856, Note_off_c, 4, 64, 127
1, 36856, Note_off_c, 0, 60, 127
1, 36858, Note_on_c, 0, 60, 127
1, 36858, Note_on_c, 4, 64, 127
1, 36858, Note_on_c, 7, 79, 127
1, 37016, Note_off_c, 7, 79, 127
1, 37018, Note_on_c, 11, 70, 127
1, 37176, Note_off_c, 11, 70, 127
1, 37176, Note_off_c, 4, 64, 127
1, 37176, Note_off_c, 0, 60, 127
1, 37178, Note_on_c, 0, 60, 127
1, 37178, Note_on_c, 5, 53, 127
1, 37178, Note_on_c, 4, 64, 127
1, 37178, Note_on_c, 11, 70, 127
1, 37336, Note_off_c, 11, 70, 127
1, 37338, Note_on_c, 10, 69, 127
1, 37496, Note_off_c, 10, 69, 127
1, 37496, Note_off_c, 4, 64, 127
1, 37496, Note_off_c, 5, 53, 127
1, 37496, Note_off_c, 0, 60, 127
1, 37498, Note_on_c, 0, 60, 127
1, 37498, Note_on_c, 5, 53, 127
1, 37498, Note_on_c, 4, 64, 127
1, 37498, Note_on_c, 10, 69, 127
1, 37656, Note_off_c, 10, 69, 127
1, 37658, Note_on_c, 0, 72, 127
1, 37816, Note_off_c, 0, 72, 127
1, 37816, Note_off_c, 4, 64, 127
1, 37816, Note_off_c, 5, 53, 127
1, 37816, Note_off_c, 0, 60, 127
1, 37818, Note_on_c, 2, 62, 127
1, 37818, Note_on_c, 11, 58, 127
1, 37818, Note_on_c, 0, 72, 127
1, 37976, Note_off_c, 0, 72, 127
1, 37978, Note_on_c, 5, 77, 127
1, 38136, Note_off_c, 5, 77, 127
1, 38136, Note_off_c, 11, 58, 127
1, 38136, Note_off_c, 2, 62, 127
1, 38138, Note_on_c, 11, 58, 127
1, 38138, Note_on_c, 2, 62, 127
1, 38138, Note_on_c, 5, 77, 127
1, 38296, Note_off_c, 5, 77, 127
1, 38298, Note_on_c, 10, 69, 127
1, 38456, Note_off_c, 10, 69, 127
1, 38456, Note_off_c, 2, 62, 127
1, 38456, Note_off_c, 11, 58, 127
1, 38458, Note_on_c, 4, 52, 127
1, 38458, Note_on_c, 2, 62, 127
1, 38458, Note_on_c, 11, 58, 127
1, 38458, Note_on_c, 10, 69, 127
1, 38616, Note_off_c, 10, 69, 127
1, 38618, Note_on_c, 7, 67, 127
1, 38776, Note_off_c, 7, 67, 127
1, 38776, Note_off_c, 11, 58, 127
1, 38776, Note_off_c, 2, 62, 127
1, 38776, Note_off_c, 4, 52, 127
1, 38778, Note_on_c, 11, 58, 127
1, 38778, Note_on_c, 2, 62, 127
1, 38778, Note_on_c, 4, 52, 127
1, 38778, Note_on_c, 7, 67, 127
1, 38936, Note_off_c, 7, 67, 127
1, 38938, Note_on_c, 11, 70, 127
1, 39096, Note_off_c, 11, 70, 127
1, 39096, Note_off_c, 4, 52, 127
1, 39096, Note_off_c, 2, 62, 127
1, 39096, Note_off_c, 11, 58, 127
1, 39098, Note_on_c, 10, 57, 127
1, 39098, Note_on_c, 0, 60, 127
1, 39098, Note_on_c, 11, 70, 127
1, 39256, Note_off_c, 11, 70, 127
1, 39258, Note_on_c, 4, 76, 127
1, 39416, Note_off_c, 4, 76, 127
1, 39416, Note_off_c, 0, 60, 127
1, 39416, Note_off_c, 10, 57, 127
1, 39418, Note_on_c, 0, 60, 127
1, 39418, Note_on_c, 10, 57, 127
1, 39418, Note_on_c, 4, 76, 127
1, 39576, Note_off_c, 4, 76, 127
1, 39578, Note_on_c, 7, 67, 127
1, 39736, Note_off_c, 7, 67, 127
1, 39736, Note_off_c, 10, 57, 127
1, 39736, Note_off_c, 0, 60, 127
1, 39738, Note_on_c, 2, 50, 127
1, 39738, Note_on_c, 10, 57, 127
1, 39738, Note_on_c, 0, 60, 127
1, 39738, Note_on_c, 7, 67, 127
1, 39896, Note_off_c, 7, 67, 127
1, 39898, Note_on_c, 5, 65, 127
1, 40056, Note_off_c, 5, 65, 127
1, 40056, Note_off_c, 0, 60, 127
1, 40056, Note_off_c, 10, 57, 127
1, 40056, Note_off_c, 2, 50, 127
1, 40058, Note_on_c, 2, 50, 127
1, 40058, Note_on_c, 0, 60, 127
1, 40058, Note_on_c, 10, 57, 127
1, 40058, Note_on_c, 5, 65, 127
1, 40216, Note_off_c, 5, 65, 127
1, 40218, Note_on_c, 0, 72, 127
1, 40376, Note_off_c, 0, 72, 127
1, 40376, Note_off_c, 10, 57, 127
1, 40376, Note_off_c, 0, 60, 127
1, 40376, Note_off_c, 2, 50, 127
1, 40378, Note_on_c, 11, 58, 127
1, 40378, Note_on_c, 7, 55, 127
1, 40378, Note_on_c, 5, 77, 127
1, 40536, Note_off_c, 5, 77, 127
1, 40538, Note_on_c, 7, 79, 127
1, 40616, Note_off_c, 7, 79, 127
1, 40618, Note_on_c, 10, 81, 127
1, 40696, Note_off_c, 10, 81, 127
1, 40696, Note_off_c, 7, 55, 127
1, 40696, Note_off_c, 11, 58, 127
1, 40698, Note_on_c, 11, 58, 127
1, 40698, Note_on_c, 7, 55, 127
1, 40698, Note_on_c, 7, 79, 127
1, 40856, Note_off_c, 7, 79, 127
1, 40858, Note_on_c, 10, 81, 127
1, 40936, Note_off_c, 10, 81, 127
1, 40938, Note_on_c, 5, 77, 127
1, 41016, Note_off_c, 5, 77, 127
1, 41016, Note_off_c, 7, 55, 127
1, 41016, Note_off_c, 11, 58, 127
1, 41018, Note_on_c, 11, 58, 127
1, 41018, Note_on_c, 7, 55, 127
1, 41018, Note_on_c, 0, 48, 127
1, 41018, Note_on_c, 5, 77, 127
1, 41083, Note_off_c, 5, 77, 127
1, 41085, Note_on_c, 4, 76, 127
1, 41150, Note_off_c, 4, 76, 127
1, 41152, Note_on_c, 5, 77, 127
1, 41217, Note_off_c, 5, 77, 127
1, 41219, Note_on_c, 4, 76, 127
1, 41337, Note_off_c, 0, 48, 127
1, 41337, Note_off_c, 7, 55, 127
1, 41337, Note_off_c, 11, 58, 127
1, 41339, Note_on_c, 0, 60, 127
1, 41657, Note_off_c, 0, 60, 127
1, 41659, Note_on_c, 10, 57, 127
1, 41686, Note_off_c, 4, 76, 127
1, 41978, Note_off_c, 10, 57, 127
1, 41980, Note_on_c, 5, 53, 127
1, 41980, Note_on_c, 0, 72, 127
1, 42298, Note_off_c, 0, 72, 127
1, 42298, Note_off_c, 5, 53, 127
1, 42300, Note_on_c, 11, 58, 127
1, 42300, Note_on_c, 2, 74, 127
1, 42458, Note_off_c, 2, 74, 127
1, 42460, Note_on_c, 0, 72, 127
1, 42618, Note_off_c, 0, 72, 127
1, 42618, Note_off_c, 11, 58, 127
1, 42620, Note_on_c, 10, 57, 127
1, 42620, Note_on_c, 0, 72, 127
1, 42778, Note_off_c, 0, 72, 127
1, 42780, Note_on_c, 2, 74, 127
1, 42938, Note_off_c, 2, 74, 127
1, 42938, Note_off_c, 10, 57, 127
1, 42940, Note_on_c, 11, 58, 127
1, 42940, Note_on_c, 2, 74, 127
1, 43098, Note_off_c, 2, 74, 127
1, 43100, Note_on_c, 0, 72, 127
1, 43258, Note_off_c, 0, 72, 127
1, 43258, Note_off_c, 11, 58, 127
1, 43260, Note_on_c, 10, 57, 127
1, 43260, Note_on_c, 0, 72, 127
1, 43418, Note_off_c, 0, 72, 127
1, 43420, Note_on_c, 2, 74, 127
1, 43578, Note_off_c, 2, 74, 127
1, 43578, Note_off_c, 10, 57, 127
1, 43580, Note_on_c, 11, 58, 127
1, 43580, Note_on_c, 2, 74, 127
1, 43738, Note_off_c, 11, 58, 127
1, 43740, Note_on_c, 11, 46, 127
1, 43898, Note_off_c, 11, 46, 127
1, 43898, Note_off_c, 2, 74, 127
1, 43900, Note_on_c, 2, 50, 127
1, 43900, Note_on_c, 7, 67, 127
1, 44058, Note_off_c, 2, 50, 127
1, 44060, Note_on_c, 7, 55, 127
1, 44217, Note_off_c, 7, 67, 127
1, 44219, Note_off_c, 7, 55, 127
1, 44221, Note_on_c, 11, 58, 127
1, 44379, Note_off_c, 11, 58, 127
1, 44381, Note_on_c, 2, 62, 127
1, 44539, Note_off_c, 2, 62, 127
1, 44541, Note_on_c, 7, 55, 127
1, 44541, Note_on_c, 2, 74, 127
1, 44699, Note_off_c, 7, 55, 127
1, 44701, Note_on_c, 12, 59, 127
1, 44859, Note_off_c, 12, 59, 127
1, 44859, Note_off_c, 2, 74, 127
1, 44861, Note_on_c, 0, 60, 127
1, 44861, Note_on_c, 4, 76, 127
1, 45019, Note_off_c, 4, 76, 127
1, 45021, Note_on_c, 2, 74, 127
1, 45179, Note_off_c, 2, 74, 127
1, 45179, Note_off_c, 0, 60, 127
1, 45181, Note_on_c, 12, 59, 127
1, 45181, Note_on_c, 2, 74, 127
1, 45339, Note_off_c, 2, 74, 127
1, 45341, Note_on_c, 4, 76, 127
1, 45499, Note_off_c, 4, 76, 127
1, 45499, Note_off_c, 12, 59, 127
1, 45501, Note_on_c, 0, 60, 127
1, 45501, Note_on_c, 4, 76, 127
1, 45659, Note_off_c, 4, 76, 127
1, 45661, Note_on_c, 2, 74, 127
1, 45819, Note_off_c, 2, 74, 127
1, 45819, Note_off_c, 0, 60, 127
1, 45821, Note_on_c, 12, 59, 127
1, 45821, Note_on_c, 2, 74, 127
1, 45979, Note_off_c, 2, 74, 127
1, 45981, Note_on_c, 4, 76, 127
1, 46139, Note_off_c, 4, 76, 127
1, 46139, Note_off_c, 12, 59, 127
1, 46141, Note_on_c, 0, 60, 127
1, 46141, Note_on_c, 4, 76, 127
1, 46299, Note_off_c, 0, 60, 127
1, 46301, Note_on_c, 0, 48, 127
1, 46459, Note_off_c, 0, 48, 127
1, 46459, Note_off_c, 4, 76, 127
1, 46461, Note_on_c, 4, 52, 127
1, 46461, Note_on_c, 10, 69, 127
1, 46619, Note_off_c, 4, 52, 127
1, 46621, Note_on_c, 10, 57, 127
1, 46778, Note_off_c, 10, 69, 127
1, 46780, Note_off_c, 10, 57, 127
1, 46782, Note_on_c, 0, 60, 127
1, 46940, Note_off_c, 0, 60, 127
1, 46942, Note_on_c, 4, 64, 127
1, 47100, Note_off_c, 4, 64, 127
1, 47102, Note_on_c, 10, 57, 127
1, 47102, Note_on_c, 4, 76, 127
1, 47260, Note_off_c, 10, 57, 127
1, 47262, Note_on_c, 1, 61, 127
1, 47420, Note_off_c, 1, 61, 127
1, 47420, Note_off_c, 4, 76, 127
1, 47422, Note_on_c, 2, 62, 127
1, 47422, Note_on_c, 5, 77, 127
1, 47580, Note_off_c, 5, 77, 127
1, 47582, Note_on_c, 4, 76, 127
1, 47740, Note_off_c, 4, 76, 127
1, 47740, Note_off_c, 2, 62, 127
1, 47742, Note_on_c, 1, 61, 127
1, 47742, Note_on_c, 4, 76, 127
1, 47900, Note_off_c, 4, 76, 127
1, 47902, Note_on_c, 5, 77, 127
1, 48060, Note_off_c, 5, 77, 127
1, 48060, Note_off_c, 1, 61, 127
1, 48062, Note_on_c, 2, 62, 127
1, 48062, Note_on_c, 5, 77, 127
1, 48220, Note_off_c, 5, 77, 127
1, 48222, Note_on_c, 4, 76, 127
1, 48380, Note_off_c, 4, 76, 127
1, 48380, Note_off_c, 2, 62, 127
1, 48382, Note_on_c, 1, 61, 127
1, 48382, Note_on_c, 4, 76, 127
1, 48540, Note_off_c, 4, 76, 127
1, 48542, Note_on_c, 5, 77, 127
1, 48700, Note_off_c, 5, 77, 127
1, 48700, Note_off_c, 1, 61, 127
1, 48702, Note_on_c, 2, 62, 127
1, 48702, Note_on_c, 5, 77, 127
1, 48860, Note_off_c, 2, 62, 127
1, 48862, Note_on_c, 2, 50, 127
1, 49020, Note_off_c, 2, 50, 127
1, 49020, Note_off_c, 5, 77, 127
1, 49022, Note_on_c, 5, 53, 127
1, 49022, Note_on_c, 11, 70, 127
1, 49180, Note_off_c, 5, 53, 127
1, 49182, Note_on_c, 11, 58, 127
1, 49339, Note_off_c, 11, 70, 127
1, 49341, Note_off_c, 11, 58, 127
1, 49343, Note_on_c, 2, 62, 127
1, 49501, Note_off_c, 2, 62, 127
1, 49503, Note_on_c, 5, 65, 127
1, 49661, Note_off_c, 5, 65, 127
1, 49663, Note_on_c, 11, 58, 127
1, 49663, Note_on_c, 5, 77, 127
1, 49821, Note_off_c, 11, 58, 127
1, 49823, Note_on_c, 2, 62, 127
1, 49981, Note_off_c, 2, 62, 127
1, 49981, Note_off_c, 5, 77, 127
1, 49983, Note_on_c, 4, 64, 127
1, 49983, Note_on_c, 7, 79, 127
1, 50141, Note_off_c, 7, 79, 127
1, 50143, Note_on_c, 11, 82, 127
1, 50301, Note_off_c, 11, 82, 127
1, 50301, Note_off_c, 4, 64, 127
1, 50303, Note_on_c, 2, 62, 127
1, 50303, Note_on_c, 11, 82, 127
1, 50461, Note_off_c, 11, 82, 127
1, 50463, Note_on_c, 7, 79, 127
1, 50621, Note_off_c, 7, 79, 127
1, 50621, Note_off_c, 2, 62, 127
1, 50623, Note_on_c, 4, 64, 127
1, 50623, Note_on_c, 7, 79, 127
1, 50781, Note_off_c, 7, 79, 127
1, 50783, Note_on_c, 4, 76, 127
1, 50941, Note_off_c, 4, 76, 127
1, 50941, Note_off_c, 4, 64, 127
1, 50943, Note_on_c, 0, 60, 127
1, 50943, Note_on_c, 4, 76, 127
1, 51101, Note_off_c, 4, 76, 127
1, 51103, Note_on_c, 0, 72, 127
1, 51261, Note_off_c, 0, 72, 127
1, 51261, Note_off_c, 0, 60, 127
1, 51263, Note_on_c, 5, 65, 127
1, 51263, Note_on_c, 0, 72, 127
1, 51421, Note_off_c, 0, 72, 127
1, 51423, Note_on_c, 4, 76, 127
1, 51581, Note_off_c, 4, 76, 127
1, 51581, Note_off_c, 5, 65, 127
1, 51583, Note_on_c, 10, 57, 127
1, 51583, Note_on_c, 5, 77, 127
1, 51741, Note_off_c, 5, 77, 127
1, 51741, Note_off_c, 10, 57, 127
1, 51743, Note_on_c, 11, 58, 127
1, 51743, Note_on_c, 7, 79, 127
1, 51901, Note_off_c, 7, 79, 127
1, 51901, Note_off_c, 11, 58, 127
1, 51903, Note_on_c, 0, 60, 127
1, 51903, Note_on_c, 5, 77, 127
1, 52008, Note_off_c, 5, 77, 127
1, 52010, Note_on_c, 4, 76, 127
1, 52062, Note_off_c, 4, 76, 127
1, 52064, Note_on_c, 5, 77, 127
1, 52116, Note_off_c, 5, 77, 127
1, 52118, Note_on_c, 4, 76, 127
1, 52170, Note_off_c, 4, 76, 127
1, 52172, Note_on_c, 5, 77, 127
1, 52224, Note_off_c, 5, 77, 127
1, 52224, Note_off_c, 0, 60, 127
1, 52226, Note_on_c, 0, 48, 127
1, 52226, Note_on_c, 4, 76, 127
1, 52384, Note_off_c, 4, 76, 127
1, 52386, Note_on_c, 5, 77, 127
1, 52544, Note_off_c, 5, 77, 127
1, 52544, Note_off_c, 0, 48, 127
1, 52546, Note_on_c, 10, 57, 127
1, 52546, Note_on_c, 5, 53, 127
1, 52546, Note_on_c, 0, 60, 127
1, 52546, Note_on_c, 5, 77, 127
1, 52866, Note_on_c, 5, 65, 127
1, 53179, Note_off_c, 5, 77, 127
1, 53332, Note_off_c, 5, 65, 127
1, 53345, Note_off_c, 0, 60, 127
1, 53345, Note_off_c, 5, 53, 127
1, 53345, Note_off_c, 10, 57, 127
1, 53505, Note_on_c, 5, 53, 127
1, 53505, Note_on_c, 5, 65, 127
1, 53823, Note_off_c, 5, 65, 127
1, 53823, Note_off_c, 5, 53, 127
1, 53825, Note_on_c, 7, 55, 127
1, 53825, Note_on_c, 7, 67, 127
1, 53983, Note_off_c, 7, 67, 127
1, 53985, Note_on_c, 5, 65, 127
1, 54143, Note_off_c, 5, 65, 127
1, 54143, Note_off_c, 7, 55, 127
1, 54145, Note_on_c, 0, 48, 127
1, 54145, Note_on_c, 7, 67, 127
1, 54303, Note_off_c, 7, 67, 127
1, 54305, Note_on_c, 0, 60, 127
1, 54463, Note_off_c, 0, 60, 127
1, 54463, Note_off_c, 0, 48, 127
1, 54465, Note_on_c, 0, 60, 127
1, 54465, Note_on_c, 0, 72, 127
1, 54623, Note_off_c, 0, 72, 127
1, 54625, Note_on_c, 11, 70, 127
1, 54783, Note_off_c, 11, 70, 127
1, 54783, Note_off_c, 0, 60, 127
1, 54785, Note_on_c, 7, 55, 127
1, 54785, Note_on_c, 0, 72, 127
1, 54943, Note_off_c, 0, 72, 127
1, 54945, Note_on_c, 7, 67, 127
1, 55103, Note_off_c, 7, 67, 127
1, 55103, Note_off_c, 7, 55, 127
1, 55105, Note_on_c, 10, 57, 127
1, 55105, Note_on_c, 10, 69, 127
1, 55423, Note_off_c, 10, 69, 127
1, 55423, Note_off_c, 10, 57, 127
1, 55425, Note_on_c, 5, 53, 127
1, 55425, Note_on_c, 5, 65, 127
1, 55892, Note_off_c, 5, 65, 127
1, 55892, Note_off_c, 5, 53, 127
1, 56065, Note_on_c, 2, 62, 127
1, 56065, Note_on_c, 2, 74, 127
1, 56383, Note_off_c, 2, 74, 127
1, 56383, Note_off_c, 2, 62, 127
1, 56385, Note_on_c, 4, 52, 127
1, 56385, Note_on_c, 4, 64, 127
1, 56543, Note_off_c, 4, 64, 127
1, 56545, Note_on_c, 7, 67, 127
1, 56703, Note_off_c, 7, 67, 127
1, 56703, Note_off_c, 4, 52, 127
1, 56705, Note_on_c, 0, 60, 127
1, 56705, Note_on_c, 10, 69, 127
1, 56863, Note_off_c, 10, 69, 127
1, 56865, Note_on_c, 0, 72, 127
1, 57023, Note_off_c, 0, 72, 127
1, 57023, Note_off_c, 0, 60, 127
1, 57025, Note_on_c, 2, 50, 127
1, 57025, Note_on_c, 2, 62, 127
1, 57183, Note_off_c, 2, 62, 127
1, 57185, Note_on_c, 5, 65, 127
1, 57343, Note_off_c, 5, 65, 127
1, 57343, Note_off_c, 2, 50, 127
1, 57345, Note_on_c, 11, 58, 127
1, 57345, Note_on_c, 7, 67, 127
1, 57503, Note_off_c, 7, 67, 127
1, 57505, Note_on_c, 11, 70, 127
1, 57663, Note_off_c, 11, 70, 127
1, 57663, Note_off_c, 11, 58, 127
1, 57665, Note_on_c, 0, 48, 127
1, 57665, Note_on_c, 0, 60, 127
1, 58298, Note_off_c, 0, 60, 127
1, 58298, Note_off_c, 0, 48, 127
1, 58465, Note_on_c, 0, 48, 127
1, 58465, Note_on_c, 0, 60, 127
1, 58623, Note_off_c, 0, 60, 127
1, 58623, Note_off_c, 0, 48, 127
1, 58625, Note_on_c, 2, 50, 127
1, 58625, Note_on_c, 2, 62, 127
1, 58783, Note_off_c, 2, 62, 127
1, 58783, Note_off_c, 2, 50, 127
1, 58785, Note_on_c, 4, 52, 127
1, 58785, Note_on_c, 4, 64, 127
1, 58943, Note_off_c, 4, 64, 127
1, 58943, Note_off_c, 4, 52, 127
1, 58945, Note_on_c, 5, 53, 127
1, 58945, Note_on_c, 5, 65, 127
1, 59103, Note_off_c, 5, 65, 127
1, 59103, Note_off_c, 5, 53, 127
1, 59105, Note_on_c, 7, 55, 127
1, 59105, Note_on_c, 7, 67, 127
1, 59263, Note_off_c, 7, 67, 127
1, 59263, Note_off_c, 7, 55, 127
1, 59265, Note_on_c, 10, 57, 127
1, 59265, Note_on_c, 10, 69, 127
1, 59423, Note_off_c, 10, 69, 127
1, 59423, Note_off_c, 10, 57, 127
1, 59425, Note_on_c, 11, 58, 127
1, 59425, Note_on_c, 11, 70, 127
1, 59583, Note_off_c, 11, 70, 127
1, 59583, Note_off_c, 11, 58, 127
1, 59585, Note_on_c, 0, 60, 127
1, 59585, Note_on_c, 0, 72, 127
1, 59903, Note_off_c, 0, 72, 127
1, 59903, Note_off_c, 0, 60, 127
1, 59905, Note_on_c, 0, 48, 127
1, 59905, Note_on_c, 0, 60, 127
1, 60223, Note_off_c, 0, 60, 127
1, 60223, Note_off_c, 0, 48, 127
1, 60225, Note_on_c, 5, 53, 127
1, 60225, Note_on_c, 10, 57, 127
1, 60225, Note_on_c, 0, 60, 127
1, 60225, Note_on_c, 10, 69, 127
1, 60225, Note_on_c, 5, 65, 127
1, 60225, Note_on_c, 5, 77, 127
1, 60225, Note_on_c, 0, 72, 127
1, 60543, Note_off_c, 0, 60, 127
1, 60543, Note_off_c, 10, 57, 127
1, 60543, Note_off_c, 5, 53, 127
1, 60545, Note_on_c, 7, 55, 127
1, 60858, Note_off_c, 0, 72, 127
1, 60858, Note_off_c, 5, 65, 127
1, 60858, Note_off_c, 10, 69, 127
1, 60863, Note_off_c, 7, 55, 127
1, 60865, Note_on_c, 10, 57, 127
1, 61023, Note_off_c, 5, 77, 127
1, 61025, Note_on_c, 5, 77, 127
1, 61183, Note_off_c, 5, 77, 127
1, 61183, Note_off_c, 10, 57, 127
1, 61185, Note_on_c, 5, 53, 127
1, 61185, Note_on_c, 7, 79, 127
1, 61343, Note_off_c, 7, 79, 127
1, 61345, Note_on_c, 10, 81, 127
1, 61503, Note_off_c, 10, 81, 127
1, 61503, Note_off_c, 5, 53, 127
1, 61505, Note_on_c, 4, 52, 127
1, 61505, Note_on_c, 7, 55, 127
1, 61505, Note_on_c, 0, 60, 127
1, 61505, Note_on_c, 7, 79, 127
1, 61823, Note_off_c, 7, 79, 127
1, 61825, Note_on_c, 0, 72, 127
1, 62143, Note_off_c, 0, 72, 127
1, 62145, Note_on_c, 7, 79, 127
1, 62303, Note_off_c, 7, 79, 127
1, 62305, Note_off_c, 0, 60, 127
1, 62305, Note_off_c, 7, 55, 127
1, 62305, Note_off_c, 4, 52, 127
1, 62305, Note_on_c, 11, 70, 127
1, 62463, Note_off_c, 11, 70, 127
1, 62465, Note_on_c, 0, 48, 127
1, 62465, Note_on_c, 4, 52, 127
1, 62465, Note_on_c, 7, 79, 127
1, 62623, Note_off_c, 7, 79, 127
1, 62625, Note_on_c, 11, 70, 127
1, 62783, Note_off_c, 11, 70, 127
1, 62783, Note_off_c, 4, 52, 127
1, 62783, Note_off_c, 0, 48, 127
1, 62785, Note_on_c, 0, 60, 127
1, 62785, Note_on_c, 5, 53, 127
1, 62785, Note_on_c, 0, 72, 127
1, 62863, Note_off_c, 0, 72, 127
1, 62865, Note_on_c, 11, 70, 127
1, 62943, Note_off_c, 11, 70, 127
1, 62945, Note_on_c, 0, 72, 127
1, 63023, Note_off_c, 0, 72, 127
1, 63025, Note_on_c, 11, 70, 127
1, 63103, Note_off_c, 11, 70, 127
1, 63103, Note_off_c, 5, 53, 127
1, 63105, Note_on_c, 7, 55, 127
1, 63105, Note_on_c, 10, 69, 127
1, 63418, Note_off_c, 0, 60, 127
1, 63421, Note_off_c, 10, 69, 127
1, 63423, Note_off_c, 7, 55, 127
1, 63425, Note_on_c, 10, 57, 127
1, 63585, Note_on_c, 0, 72, 127
1, 63743, Note_off_c, 0, 72, 127
1, 63743, Note_off_c, 10, 57, 127
1, 63745, Note_on_c, 5, 53, 127
1, 63745, Note_on_c, 5, 77, 127
1, 63903, Note_off_c, 5, 77, 127
1, 63905, Note_on_c, 0, 72, 127
1, 64063, Note_off_c, 0, 72, 127
1, 64063, Note_off_c, 5, 53, 127
1, 64065, Note_on_c, 11, 58, 127
1, 64065, Note_on_c, 2, 74, 127
1, 64223, Note_off_c, 2, 74, 127
1, 64225, Note_on_c, 11, 70, 127
1, 64383, Note_off_c, 11, 70, 127
1, 64385, Note_on_c, 5, 65, 127
1, 64385, Note_on_c, 2, 74, 127
1, 64543, Note_off_c, 2, 74, 127
1, 64545, Note_on_c, 5, 77, 127
1, 64665, Note_off_c, 11, 58, 127
1, 64703, Note_off_c, 5, 77, 127
1, 64705, Note_on_c, 10, 57, 127
1, 64705, Note_on_c, 0, 72, 127
1, 64863, Note_off_c, 0, 72, 127
1, 64865, Note_on_c, 10, 69, 127
1, 64985, Note_off_c, 5, 65, 127
1, 65023, Note_off_c, 10, 69, 127
1, 65025, Note_on_c, 5, 65, 127
1, 65025, Note_on_c, 0, 72, 127
1, 65183, Note_off_c, 0, 72, 127
1, 65185, Note_on_c, 5, 77, 127
1, 65305, Note_off_c, 10, 57, 127
1, 65343, Note_off_c, 5, 77, 127
1, 65345, Note_on_c, 11, 58, 127
1, 65345, Note_on_c, 2, 74, 127
1, 65503, Note_off_c, 2, 74, 127
1, 65505, Note_on_c, 11, 70, 127
1, 65625, Note_off_c, 5, 65, 127
1, 65663, Note_off_c, 11, 70, 127
1, 65665, Note_on_c, 5, 65, 127
1, 65823, Note_off_c, 5, 65, 127
1, 65825, Note_on_c, 11, 70, 127
1, 65983, Note_off_c, 11, 70, 127
1, 65983, Note_off_c, 11, 58, 127
1, 65985, Note_on_c, 2, 62, 127
1, 66143, Note_off_c, 2, 62, 127
1, 66145, Note_on_c, 5, 65, 127
1, 66145, Note_on_c, 2, 74, 127
1, 66303, Note_off_c, 2, 74, 127
1, 66303, Note_off_c, 5, 65, 127
1, 66305, Note_on_c, 12, 59, 127
1, 66305, Note_on_c, 7, 79, 127
1, 66463, Note_off_c, 7, 79, 127
1, 66463, Note_off_c, 12, 59, 127
1, 66465, Note_on_c, 2, 62, 127
1, 66465, Note_on_c, 2, 74, 127
1, 66623, Note_off_c, 2, 74, 127
1, 66623, Note_off_c, 2, 62, 127
1, 66625, Note_on_c, 0, 60, 127
1, 66625, Note_on_c, 4, 76, 127
1, 66783, Note_off_c, 4, 76, 127
1, 66785, Note_on_c, 0, 72, 127
1, 66943, Note_off_c, 0, 72, 127
1, 66945, Note_on_c, 7, 67, 127
1, 66945, Note_on_c, 4, 76, 127
1, 67103, Note_off_c, 4, 76, 127
1, 67105, Note_on_c, 7, 79, 127
1, 67225, Note_off_c, 0, 60, 127
1, 67263, Note_off_c, 7, 79, 127
1, 67265, Note_on_c, 12, 59, 127
1, 67265, Note_on_c, 2, 74, 127
1, 67423, Note_off_c, 2, 74, 127
1, 67425, Note_on_c, 12, 71, 127
1, 67545, Note_off_c, 7, 67, 127
1, 67583, Note_off_c, 12, 71, 127
1, 67585, Note_on_c, 7, 67, 127
1, 67585, Note_on_c, 2, 74, 127
1, 67743, Note_off_c, 2, 74, 127
1, 67745, Note_on_c, 7, 79, 127
1, 67865, Note_off_c, 12, 59, 127
1, 67903, Note_off_c, 7, 79, 127
1, 67905, Note_on_c, 0, 60, 127
1, 67905, Note_on_c, 4, 76, 127
1, 68063, Note_off_c, 4, 76, 127
1, 68065, Note_on_c, 0, 72, 127
1, 68185, Note_off_c, 7, 67, 127
1, 68223, Note_off_c, 0, 72, 127
1, 68225, Note_on_c, 7, 67, 127
1, 68383, Note_off_c, 7, 67, 127
1, 68385, Note_on_c, 0, 72, 127
1, 68543, Note_off_c, 0, 72, 127
1, 68543, Note_off_c, 0, 60, 127
1, 68545, Note_on_c, 4, 64, 127
1, 68703, Note_off_c, 4, 64, 127
1, 68705, Note_on_c, 7, 67, 127
1, 68705, Note_on_c, 4, 76, 127
1, 68863, Note_off_c, 4, 76, 127
1, 68863, Note_off_c, 7, 67, 127
1, 68865, Note_on_c, 1, 61, 127
1, 68865, Note_on_c, 10, 81, 127
1, 69023, Note_off_c, 10, 81, 127
1, 69023, Note_off_c, 1, 61, 127
1, 69025, Note_on_c, 4, 64, 127
1, 69025, Note_on_c, 4, 76, 127
1, 69183, Note_off_c, 4, 76, 127
1, 69183, Note_off_c, 4, 64, 127
1, 69185, Note_on_c, 2, 62, 127
1, 69185, Note_on_c, 5, 77, 127
1, 69343, Note_off_c, 5, 77, 127
1, 69345, Note_on_c, 2, 74, 127
1, 69503, Note_off_c, 2, 74, 127
1, 69505, Note_on_c, 10, 69, 127
1, 69505, Note_on_c, 5, 77, 127
1, 69663, Note_off_c, 5, 77, 127
1, 69665, Note_on_c, 10, 81, 127
1, 69785, Note_off_c, 2, 62, 127
1, 69823, Note_off_c, 10, 81, 127
1, 69825, Note_on_c, 1, 61, 127
1, 69825, Note_on_c, 4, 76, 127
1, 69983, Note_off_c, 4, 76, 127
1, 69985, Note_on_c, 1, 73, 127
1, 70105, Note_off_c, 10, 69, 127
1, 70143, Note_off_c, 1, 73, 127
1, 70145, Note_on_c, 10, 69, 127
1, 70145, Note_on_c, 4, 76, 127
1, 70303, Note_off_c, 4, 76, 127
1, 70305, Note_on_c, 10, 81, 127
1, 70458, Note_off_c, 1, 61, 127
1, 70463, Note_off_c, 10, 81, 127
1, 70465, Note_on_c, 2, 62, 127
1, 70465, Note_on_c, 5, 77, 127
1, 70623, Note_off_c, 5, 77, 127
1, 70625, Note_on_c, 10, 81, 127
1, 70745, Note_off_c, 10, 69, 127
1, 70783, Note_off_c, 10, 81, 127
1, 70785, Note_on_c, 5, 65, 127
1, 70785, Note_on_c, 10, 81, 127
1, 70943, Note_off_c, 10, 81, 127
1, 70945, Note_on_c, 5, 77, 127
1, 71065, Note_off_c, 2, 62, 127
1, 71103, Note_off_c, 5, 77, 127
1, 71103, Note_off_c, 5, 65, 127
1, 71105, Note_on_c, 2, 62, 127
1, 71105, Note_on_c, 5, 77, 127
1, 71263, Note_off_c, 5, 77, 127
1, 71265, Note_on_c, 2, 74, 127
1, 71423, Note_off_c, 2, 74, 127
1, 71423, Note_off_c, 2, 62, 127
1, 71425, Note_on_c, 5, 65, 127
1, 71425, Note_on_c, 2, 74, 127
1, 71583, Note_off_c, 2, 74, 127
1, 71585, Note_on_c, 11, 70, 127
1, 71743, Note_off_c, 11, 70, 127
1, 71743, Note_off_c, 5, 65, 127
1, 71745, Note_on_c, 7, 55, 127
1, 71745, Note_on_c, 11, 70, 127
1, 71903, Note_off_c, 11, 70, 127
1, 71905, Note_on_c, 7, 79, 127
1, 72063, Note_off_c, 7, 79, 127
1, 72065, Note_on_c, 5, 65, 127
1, 72065, Note_on_c, 7, 79, 127
1, 72223, Note_off_c, 7, 79, 127
1, 72225, Note_on_c, 4, 76, 127
1, 72345, Note_off_c, 7, 55, 127
1, 72383, Note_off_c, 4, 76, 127
1, 72385, Note_on_c, 0, 60, 127
1, 72385, Note_on_c, 4, 76, 127
1, 72532, Note_off_c, 5, 65, 127
1, 72544, Note_off_c, 4, 76, 127
1, 72546, Note_on_c, 0, 72, 127
1, 72704, Note_off_c, 0, 72, 127
1, 72706, Note_on_c, 4, 64, 127
1, 72706, Note_on_c, 0, 72, 127
1, 72864, Note_off_c, 0, 72, 127
1, 72866, Note_on_c, 10, 69, 127
1, 72986, Note_off_c, 0, 60, 127
1, 73024, Note_off_c, 10, 69, 127
1, 73024, Note_off_c, 4, 64, 127
1, 73026, Note_on_c, 5, 53, 127
1, 73026, Note_on_c, 10, 69, 127
1, 73184, Note_off_c, 10, 69, 127
1, 73186, Note_on_c, 5, 77, 127
1, 73344, Note_off_c, 5, 77, 127
1, 73346, Note_on_c, 4, 64, 127
1, 73346, Note_on_c, 5, 77, 127
1, 73504, Note_off_c, 5, 77, 127
1, 73506, Note_on_c, 2, 74, 127
1, 73626, Note_off_c, 5, 53, 127
1, 73664, Note_off_c, 2, 74, 127
1, 73666, Note_on_c, 12, 59, 127
1, 73666, Note_on_c, 2, 74, 127
1, 73813, Note_off_c, 4, 64, 127
1, 73825, Note_off_c, 2, 74, 127
1, 73827, Note_on_c, 12, 71, 127
1, 73985, Note_off_c, 12, 71, 127
1, 73987, Note_on_c, 2, 62, 127
1, 73987, Note_on_c, 12, 71, 127
1, 74145, Note_off_c, 12, 71, 127
1, 74147, Note_on_c, 8, 68, 127
1, 74267, Note_off_c, 12, 59, 127
1, 74305, Note_off_c, 8, 68, 127
1, 74305, Note_off_c, 2, 62, 127
1, 74307, Note_on_c, 4, 52, 127
1, 74307, Note_on_c, 12, 59, 127
1, 74307, Note_on_c, 8, 56, 127
1, 74307, Note_on_c, 2, 62, 127
1, 74307, Note_on_c, 8, 68, 127
1, 74385, Note_off_c, 8, 68, 127
1, 74387, Note_on_c, 12, 71, 127
1, 74465, Note_off_c, 12, 71, 127
1, 74467, Note_on_c, 0, 72, 127
1, 74545, Note_off_c, 0, 72, 127
1, 74547, Note_on_c, 2, 74, 127
1, 74625, Note_off_c, 2, 74, 127
1, 74627, Note_on_c, 4, 76, 127
1, 74785, Note_off_c, 4, 76, 127
1, 74787, Note_on_c, 12, 71, 127
1, 74940, Note_off_c, 2, 62, 127
1, 74940, Note_off_c, 8, 56, 127
1, 74940, Note_off_c, 12, 59, 127
1, 74940, Note_off_c, 4, 52, 127
1, 74945, Note_off_c, 12, 71, 127
1, 74947, Note_on_c, 8, 68, 127
1, 75105, Note_off_c, 8, 68, 127
1, 75107, Note_on_c, 12, 71, 127
1, 75265, Note_off_c, 12, 71, 127
1, 75267, Note_on_c, 4, 76, 127
1, 75425, Note_off_c, 4, 76, 127
1, 75427, Note_on_c, 12, 71, 127
1, 75585, Note_off_c, 12, 71, 127
1, 75587, Note_on_c, 10, 45, 127
1, 75587, Note_on_c, 0, 48, 127
1, 75587, Note_on_c, 10, 57, 127
1, 75587, Note_on_c, 4, 52, 127
1, 75587, Note_on_c, 0, 72, 127
1, 75665, Note_off_c, 0, 72, 127
1, 75667, Note_on_c, 4, 76, 127
1, 75745, Note_off_c, 4, 76, 127
1, 75747, Note_on_c, 5, 77, 127
1, 75825, Note_off_c, 5, 77, 127
1, 75827, Note_on_c, 7, 79, 127
1, 75905, Note_off_c, 7, 79, 127
1, 75907, Note_on_c, 10, 81, 127
1, 76049, Note_off_c, 10, 81, 127
1, 76054, Note_off_c, 4, 52, 127
1, 76054, Note_off_c, 10, 57, 127
1, 76054, Note_off_c, 0, 48, 127
1, 76054, Note_off_c, 10, 45, 127
1, 76067, Note_on_c, 4, 76, 127
1, 76209, Note_off_c, 4, 76, 127
1, 76227, Note_on_c, 1, 73, 127
1, 76385, Note_off_c, 1, 73, 127
1, 76387, Note_on_c, 4, 76, 127
1, 76545, Note_off_c, 4, 76, 127
1, 76547, Note_on_c, 10, 81, 127
1, 76705, Note_off_c, 10, 81, 127
1, 76707, Note_on_c, 4, 76, 127
1, 76865, Note_off_c, 4, 76, 127
1, 76867, Note_on_c, 10, 57, 127
1, 76867, Note_on_c, 2, 50, 127
1, 76867, Note_on_c, 2, 62, 127
1, 76867, Note_on_c, 5, 53, 127
1, 76867, Note_on_c, 5, 77, 127
1, 77025, Note_off_c, 5, 77, 127
1, 77027, Note_on_c, 10, 81, 127
1, 77185, Note_off_c, 10, 81, 127
1, 77187, Note_on_c, 10, 81, 127
1, 77345, Note_off_c, 10, 81, 127
1, 77347, Note_on_c, 5, 77, 127
1, 77500, Note_off_c, 5, 53, 127
1, 77500, Note_off_c, 2, 62, 127
1, 77500, Note_off_c, 2, 50, 127
1, 77500, Note_off_c, 10, 57, 127
1, 77505, Note_off_c, 5, 77, 127
1, 77507, Note_on_c, 5, 77, 127
1, 77665, Note_off_c, 5, 77, 127
1, 77667, Note_on_c, 2, 74, 127
1, 77825, Note_off_c, 2, 74, 127
1, 77827, Note_on_c, 2, 74, 127
1, 77985, Note_off_c, 2, 74, 127
1, 77987, Note_on_c, 8, 80, 127
1, 78145, Note_off_c, 8, 80, 127
1, 78147, Note_on_c, 12, 59, 127
1, 78147, Note_on_c, 4, 52, 127
1, 78147, Note_on_c, 2, 74, 127
1, 78147, Note_on_c, 10, 81, 127
1, 78235, Note_off_c, 10, 81, 127
1, 78237, Note_on_c, 8, 80, 127
1, 78305, Note_off_c, 8, 80, 127
1, 78305, Note_off_c, 12, 59, 127
1, 78307, Note_on_c, 2, 62, 127
1, 78307, Note_on_c, 10, 81, 127
1, 78337, Note_off_c, 2, 74, 127
1, 78375, Note_off_c, 10, 81, 127
1, 78377, Note_on_c, 8, 80, 127
1, 78447, Note_off_c, 4, 52, 127
1, 78467, Note_on_c, 10, 57, 127
1, 78467, Note_on_c, 6, 54, 127
1, 78507, Note_off_c, 2, 62, 127
1, 78625, Note_off_c, 10, 57, 127
1, 78627, Note_on_c, 2, 62, 127
1, 78767, Note_off_c, 6, 54, 127
1, 78787, Note_on_c, 12, 59, 127
1, 78787, Note_on_c, 8, 56, 127
1, 78827, Note_off_c, 2, 62, 127
1, 78945, Note_off_c, 12, 59, 127
1, 78945, Note_off_c, 8, 80, 127
1, 78947, Note_on_c, 2, 62, 127
1, 78947, Note_on_c, 4, 76, 127
1, 79087, Note_off_c, 8, 56, 127
1, 79105, Note_off_c, 4, 76, 127
1, 79107, Note_on_c, 4, 52, 127
1, 79107, Note_on_c, 12, 59, 127
1, 79107, Note_on_c, 6, 78, 127
1, 79147, Note_off_c, 2, 62, 127
1, 79265, Note_off_c, 6, 78, 127
1, 79265, Note_off_c, 12, 59, 127
1, 79267, Note_on_c, 2, 62, 127
1, 79267, Note_on_c, 8, 80, 127
1, 79340, Note_off_c, 4, 52, 127
1, 79425, Note_off_c, 8, 80, 127
1, 79425, Note_off_c, 2, 62, 127
1, 79427, Note_on_c, 0, 60, 127
1, 79427, Note_on_c, 10, 57, 127
1, 79427, Note_on_c, 10, 81, 127
1, 79585, Note_off_c, 10, 81, 127
1, 79587, Note_on_c, 4, 76, 127
1, 79745, Note_off_c, 4, 76, 127
1, 79745, Note_off_c, 0, 60, 127
1, 79747, Note_on_c, 2, 50, 127
1, 79747, Note_on_c, 0, 72, 127
1, 79905, Note_off_c, 0, 72, 127
1, 79907, Note_on_c, 5, 77, 127
1, 80060, Note_off_c, 10, 57, 127
1, 80065, Note_off_c, 5, 77, 127
1, 80065, Note_off_c, 2, 50, 127
1, 80067, Note_on_c, 4, 52, 127
1, 80067, Note_on_c, 12, 71, 127
1, 80225, Note_off_c, 12, 71, 127
1, 80227, Note_on_c, 10, 81, 127
1, 80385, Note_off_c, 10, 81, 127
1, 80387, Note_on_c, 4, 40, 127
1, 80387, Note_on_c, 8, 80, 127
1, 80545, Note_off_c, 8, 80, 127
1, 80547, Note_on_c, 12, 83, 127
1, 80700, Note_off_c, 4, 52, 127
1, 80705, Note_off_c, 12, 83, 127
1, 80705, Note_off_c, 4, 40, 127
1, 80707, Note_on_c, 10, 45, 127
1, 80707, Note_on_c, 0, 72, 127
1, 80867, Note_on_c, 4, 76, 127
1, 81024, Note_off_c, 0, 72, 127
1, 81026, Note_off_c, 4, 76, 127
1, 81028, Note_on_c, 10, 81, 127
1, 81186, Note_off_c, 10, 45, 127
1, 81188, Note_on_c, 4, 52, 127
1, 81345, Note_off_c, 10, 81, 127
1, 81347, Note_off_c, 4, 52, 127
1, 81349, Note_on_c, 10, 57, 127
1, 81509, Note_on_c, 10, 69, 127
1, 81587, Note_off_c, 10, 69, 127
1, 81589, Note_on_c, 12, 71, 127
1, 81667, Note_off_c, 12, 71, 127
1, 81667, Note_off_c, 10, 57, 127
1, 81669, Note_on_c, 10, 69, 127
1, 81669, Note_on_c, 0, 72, 127
1, 81747, Note_off_c, 0, 72, 127
1, 81749, Note_on_c, 2, 74, 127
1, 81827, Note_off_c, 2, 74, 127
1, 81829, Note_on_c, 4, 76, 127
1, 81907, Note_off_c, 4, 76, 127
1, 81909, Note_on_c, 5, 77, 127
1, 81987, Note_off_c, 5, 77, 127
1, 81987, Note_off_c, 10, 69, 127
1, 81989, Note_on_c, 7, 55, 127
1, 81989, Note_on_c, 7, 67, 127
1, 82147, Note_off_c, 7, 67, 127
1, 82149, Note_on_c, 12, 71, 127
1, 82307, Note_off_c, 12, 71, 127
1, 82307, Note_off_c, 7, 55, 127
1, 82309, Note_on_c, 4, 64, 127
1, 82309, Note_on_c, 0, 72, 127
1, 82467, Note_off_c, 0, 72, 127
1, 82469, Note_on_c, 4, 76, 127
1, 82627, Note_off_c, 4, 76, 127
1, 82627, Note_off_c, 4, 64, 127
1, 82629, Note_on_c, 5, 53, 127
1, 82629, Note_on_c, 5, 65, 127
1, 82787, Note_off_c, 5, 65, 127
1, 82789, Note_on_c, 10, 69, 127
1, 82947, Note_off_c, 10, 69, 127
1, 82947, Note_off_c, 5, 53, 127
1, 82949, Note_on_c, 2, 62, 127
1, 82949, Note_on_c, 12, 71, 127
1, 83107, Note_off_c, 12, 71, 127
1, 83109, Note_on_c, 2, 74, 127
1, 83267, Note_off_c, 2, 74, 127
1, 83267, Note_off_c, 2, 62, 127
1, 83269, Note_on_c, 4, 52, 127
1, 83269, Note_on_c, 4, 64, 127
1, 83902, Note_off_c, 4, 64, 127
1, 83902, Note_off_c, 4, 52, 127
1, 84069, Note_on_c, 4, 52, 127
1, 84069, Note_on_c, 4, 64, 127
1, 84227, Note_off_c, 4, 64, 127
1, 84227, Note_off_c, 4, 52, 127
1, 84229, Note_on_c, 6, 54, 127
1, 84229, Note_on_c, 6, 66, 127
1, 84387, Note_off_c, 6, 66, 127
1, 84387, Note_off_c, 6, 54, 127
1, 84389, Note_on_c, 8, 56, 127
1, 84389, Note_on_c, 8, 68, 127
1, 84547, Note_off_c, 8, 68, 127
1, 84547, Note_off_c, 8, 56, 127
1, 84549, Note_on_c, 10, 57, 127
1, 84549, Note_on_c, 10, 69, 127
1, 84707, Note_off_c, 10, 69, 127
1, 84707, Note_off_c, 10, 57, 127
1, 84709, Note_on_c, 12, 59, 127
1, 84709, Note_on_c, 12, 71, 127
1, 84867, Note_off_c, 12, 71, 127
1, 84867, Note_off_c, 12, 59, 127
1, 84869, Note_on_c, 0, 60, 127
1, 84869, Note_on_c, 0, 72, 127
1, 85027, Note_off_c, 0, 72, 127
1, 85027, Note_off_c, 0, 60, 127
1, 85029, Note_on_c, 2, 62, 127
1, 85029, Note_on_c, 2, 74, 127
1, 85187, Note_off_c, 2, 74, 127
1, 85187, Note_off_c, 2, 62, 127
1, 85189, Note_on_c, 4, 64, 127
1, 85189, Note_on_c, 4, 76, 127
1, 85507, Note_off_c, 4, 76, 127
1, 85507, Note_off_c, 4, 64, 127
1, 85509, Note_on_c, 4, 52, 127
1, 85509, Note_on_c, 4, 64, 127
1, 85827, Note_off_c, 4, 64, 127
1, 85827, Note_off_c, 4, 52, 127
1, 85829, Note_on_c, 10, 57, 127
1, 85829, Note_on_c, 10, 69, 127
1, 85989, Note_on_c, 10, 81, 127
1, 86147, Note_off_c, 10, 81, 127
1, 86149, Note_on_c, 10, 81, 127
1, 86296, Note_off_c, 10, 69, 127
1, 86308, Note_off_c, 10, 81, 127
1, 86310, Note_on_c, 1, 73, 127
1, 86310, Note_on_c, 10, 69, 127
1, 86310, Note_on_c, 4, 76, 127
1, 86468, Note_off_c, 4, 76, 127
1, 86468, Note_off_c, 10, 69, 127
1, 86468, Note_off_c, 1, 73, 127
1, 86470, Note_on_c, 1, 73, 127
1, 86470, Note_on_c, 4, 76, 127
1, 86470, Note_on_c, 10, 69, 127
1, 86628, Note_off_c, 10, 69, 127
1, 86628, Note_off_c, 4, 76, 127
1, 86628, Note_off_c, 1, 73, 127
1, 86630, Note_on_c, 4, 64, 127
1, 86630, Note_on_c, 10, 69, 127
1, 86630, Note_on_c, 1, 73, 127
1, 86788, Note_off_c, 1, 73, 127
1, 86788, Note_off_c, 10, 69, 127
1, 86788, Note_off_c, 4, 64, 127
1, 86790, Note_on_c, 10, 69, 127
1, 86790, Note_on_c, 1, 73, 127
1, 86790, Note_on_c, 4, 64, 127
1, 86948, Note_off_c, 4, 64, 127
1, 86948, Note_off_c, 1, 73, 127
1, 86948, Note_off_c, 10, 69, 127
1, 86950, Note_on_c, 10, 69, 127
1, 86950, Note_on_c, 4, 64, 127
1, 86950, Note_on_c, 1, 61, 127
1, 87108, Note_off_c, 1, 61, 127
1, 87108, Note_off_c, 4, 64, 127
1, 87108, Note_off_c, 10, 69, 127
1, 87108, Note_off_c, 10, 57, 127
1, 87110, Note_on_c, 1, 61, 127
1, 87110, Note_on_c, 10, 69, 127
1, 87110, Note_on_c, 4, 64, 127
1, 87268, Note_off_c, 4, 64, 127
1, 87268, Note_off_c, 10, 69, 127
1, 87268, Note_off_c, 1, 61, 127
1, 87270, Note_on_c, 10, 57, 127
1, 87270, Note_on_c, 4, 64, 127
1, 87270, Note_on_c, 1, 73, 127
1, 87270, Note_on_c, 10, 69, 127
1, 87428, Note_off_c, 10, 69, 127
1, 87428, Note_off_c, 1, 73, 127
1, 87428, Note_off_c, 4, 64, 127
1, 87428, Note_off_c, 10, 57, 127
1, 87430, Note_on_c, 10, 57, 127
1, 87430, Note_on_c, 10, 69, 127
1, 87430, Note_on_c, 4, 64, 127
1, 87430, Note_on_c, 1, 73, 127
1, 87588, Note_off_c, 1, 73, 127
1, 87588, Note_off_c, 4, 64, 127
1, 87588, Note_off_c, 10, 69, 127
1, 87588, Note_off_c, 10, 57, 127
1, 87590, Note_on_c, 10, 57, 127
1, 87590, Note_on_c, 4, 52, 127
1, 87590, Note_on_c, 1, 73, 127
1, 87590, Note_on_c, 4, 76, 127
1, 87590, Note_on_c, 10, 69, 127
1, 87748, Note_off_c, 10, 69, 127
1, 87748, Note_off_c, 4, 76, 127
1, 87748, Note_off_c, 1, 73, 127
1, 87748, Note_off_c, 4, 52, 127
1, 87748, Note_off_c, 10, 57, 127
1, 87750, Note_on_c, 4, 52, 127
1, 87750, Note_on_c, 10, 57, 127
1, 87750, Note_on_c, 4, 76, 127
1, 87750, Note_on_c, 1, 73, 127
1, 87750, Note_on_c, 10, 69, 127
1, 87908, Note_off_c, 10, 69, 127
1, 87908, Note_off_c, 1, 73, 127
1, 87908, Note_off_c, 4, 76, 127
1, 87908, Note_off_c, 10, 57, 127
1, 87908, Note_off_c, 4, 52, 127
1, 87910, Note_on_c, 4, 52, 127
1, 87910, Note_on_c, 1, 49, 127
1, 87910, Note_on_c, 10, 57, 127
1, 87910, Note_on_c, 1, 73, 127
1, 87910, Note_on_c, 10, 69, 127
1, 87910, Note_on_c, 10, 81, 127
1, 87910, Note_on_c, 4, 76, 127
1, 88068, Note_off_c, 4, 76, 127
1, 88068, Note_off_c, 10, 81, 127
1, 88068, Note_off_c, 10, 69, 127
1, 88068, Note_off_c, 1, 73, 127
1, 88068, Note_off_c, 10, 57, 127
1, 88068, Note_off_c, 1, 49, 127
1, 88068, Note_off_c, 4, 52, 127
1, 88070, Note_on_c, 10, 57, 127
1, 88070, Note_on_c, 4, 52, 127
1, 88070, Note_on_c, 1, 49, 127
1, 88070, Note_on_c, 10, 69, 127
1, 88070, Note_on_c, 4, 76, 127
1, 88070, Note_on_c, 1, 73, 127
1, 88070, Note_on_c, 10, 81, 127
1, 88228, Note_off_c, 10, 81, 127
1, 88228, Note_off_c, 1, 73, 127
1, 88228, Note_off_c, 4, 76, 127
1, 88228, Note_off_c, 10, 69, 127
1, 88228, Note_off_c, 1, 49, 127
1, 88228, Note_off_c, 4, 52, 127
1, 88228, Note_off_c, 10, 57, 127
1, 88230, Note_on_c, 1, 49, 127
1, 88230, Note_on_c, 10, 45, 127
1, 88230, Note_on_c, 10, 57, 127
1, 88230, Note_on_c, 4, 52, 127
1, 88230, Note_on_c, 1, 73, 127
1, 88230, Note_on_c, 10, 69, 127
1, 88230, Note_on_c, 7, 79, 127
1, 88230, Note_on_c, 4, 76, 127
1, 88388, Note_off_c, 4, 76, 127
1, 88388, Note_off_c, 7, 79, 127
1, 88388, Note_off_c, 10, 69, 127
1, 88388, Note_off_c, 1, 73, 127
1, 88388, Note_off_c, 4, 52, 127
1, 88388, Note_off_c, 10, 57, 127
1, 88388, Note_off_c, 10, 45, 127
1, 88388, Note_off_c, 1, 49, 127
1, 88390, Note_on_c, 2, 50, 127
1, 88390, Note_on_c, 2, 74, 127
1, 88390, Note_on_c, 10, 69, 127
1, 88390, Note_on_c, 6, 78, 127
1, 88548, Note_off_c, 2, 50, 127
1, 88550, Note_on_c, 6, 54, 127
1, 88708, Note_off_c, 6, 54, 127
1, 88710, Note_on_c, 10, 57, 127
1, 88868, Note_off_c, 10, 57, 127
1, 88870, Note_on_c, 0, 60, 127
1, 89028, Note_off_c, 0, 60, 127
1, 89028, Note_off_c, 6, 78, 127
1, 89028, Note_off_c, 10, 69, 127
1, 89028, Note_off_c, 2, 74, 127
1, 89030, Note_on_c, 2, 62, 127
1, 89188, Note_off_c, 2, 62, 127
1, 89190, Note_on_c, 6, 66, 127
1, 89348, Note_off_c, 6, 66, 127
1, 89350, Note_on_c, 10, 69, 127
1, 89508, Note_off_c, 10, 69, 127
1, 89510, Note_on_c, 0, 72, 127
1, 89668, Note_off_c, 0, 72, 127
1, 89670, Note_on_c, 7, 55, 127
1, 89670, Note_on_c, 12, 59, 127
1, 89670, Note_on_c, 12, 71, 127
1, 89830, Note_on_c, 7, 79, 127
1, 89988, Note_off_c, 7, 79, 127
1, 89990, Note_on_c, 7, 79, 127
1, 90137, Note_off_c, 12, 71, 127
1, 90149, Note_off_c, 7, 79, 127
1, 90151, Note_on_c, 12, 71, 127
1, 90151, Note_on_c, 7, 67, 127
1, 90151, Note_on_c, 2, 74, 127
1, 90309, Note_off_c, 2, 74, 127
1, 90309, Note_off_c, 7, 67, 127
1, 90309, Note_off_c, 12, 71, 127
1, 90311, Note_on_c, 7, 67, 127
1, 90311, Note_on_c, 2, 74, 127
1, 90311, Note_on_c, 12, 71, 127
1, 90469, Note_off_c, 12, 71, 127
1, 90469, Note_off_c, 2, 74, 127
1, 90469, Note_off_c, 7, 67, 127
1, 90471, Note_on_c, 7, 67, 127
1, 90471, Note_on_c, 2, 62, 127
1, 90471, Note_on_c, 12, 71, 127
1, 90629, Note_off_c, 12, 71, 127
1, 90629, Note_off_c, 2, 62, 127
1, 90629, Note_off_c, 7, 67, 127
1, 90629, Note_off_c, 12, 59, 127
1, 90631, Note_on_c, 7, 67, 127
1, 90631, Note_on_c, 2, 62, 127
1, 90631, Note_on_c, 12, 71, 127
1, 90789, Note_off_c, 12, 71, 127
1, 90789, Note_off_c, 2, 62, 127
1, 90789, Note_off_c, 7, 67, 127
1, 90791, Note_on_c, 12, 59, 127
1, 90791, Note_on_c, 7, 67, 127
1, 90791, Note_on_c, 2, 62, 127
1, 90949, Note_off_c, 2, 62, 127
1, 90949, Note_off_c, 7, 67, 127
1, 90949, Note_off_c, 12, 59, 127
1, 90949, Note_off_c, 7, 55, 127
1, 90951, Note_on_c, 2, 62, 127
1, 90951, Note_on_c, 12, 59, 127
1, 90951, Note_on_c, 7, 67, 127
1, 91109, Note_off_c, 7, 67, 127
1, 91109, Note_off_c, 12, 59, 127
1, 91109, Note_off_c, 2, 62, 127
1, 91111, Note_on_c, 7, 55, 127
1, 91111, Note_on_c, 7, 67, 127
1, 91111, Note_on_c, 2, 62, 127
1, 91111, Note_on_c, 12, 71, 127
1, 91269, Note_off_c, 12, 71, 127
1, 91269, Note_off_c, 2, 62, 127
1, 91269, Note_off_c, 7, 67, 127
1, 91269, Note_off_c, 7, 55, 127
1, 91271, Note_on_c, 7, 55, 127
1, 91271, Note_on_c, 2, 62, 127
1, 91271, Note_on_c, 12, 71, 127
1, 91271, Note_on_c, 7, 67, 127
1, 91429, Note_off_c, 7, 67, 127
1, 91429, Note_off_c, 12, 71, 127
1, 91429, Note_off_c, 2, 62, 127
1, 91429, Note_off_c, 7, 55, 127
1, 91431, Note_on_c, 2, 50, 127
1, 91431, Note_on_c, 7, 55, 127
1, 91431, Note_on_c, 2, 74, 127
1, 91431, Note_on_c, 7, 67, 127
1, 91431, Note_on_c, 12, 71, 127
1, 91589, Note_off_c, 12, 71, 127
1, 91589, Note_off_c, 7, 67, 127
1, 91589, Note_off_c, 2, 74, 127
1, 91589, Note_off_c, 7, 55, 127
1, 91589, Note_off_c, 2, 50, 127
1, 91591, Note_on_c, 2, 50, 127
1, 91591, Note_on_c, 7, 55, 127
1, 91591, Note_on_c, 7, 67, 127
1, 91591, Note_on_c, 2, 74, 127
1, 91591, Note_on_c, 12, 71, 127
1, 91749, Note_off_c, 12, 71, 127
1, 91749, Note_off_c, 2, 74, 127
1, 91749, Note_off_c, 7, 67, 127
1, 91749, Note_off_c, 7, 55, 127
1, 91749, Note_off_c, 2, 50, 127
1, 91751, Note_on_c, 12, 47, 127
1, 91751, Note_on_c, 7, 55, 127
1, 91751, Note_on_c, 2, 50, 127
1, 91751, Note_on_c, 12, 71, 127
1, 91751, Note_on_c, 2, 74, 127
1, 91751, Note_on_c, 7, 67, 127
1, 91751, Note_on_c, 7, 79, 127
1, 91909, Note_off_c, 7, 79, 127
1, 91909, Note_off_c, 7, 67, 127
1, 91909, Note_off_c, 2, 74, 127
1, 91909, Note_off_c, 12, 71, 127
1, 91909, Note_off_c, 2, 50, 127
1, 91909, Note_off_c, 7, 55, 127
1, 91909, Note_off_c, 12, 47, 127
1, 91911, Note_on_c, 2, 50, 127
1, 91911, Note_on_c, 12, 47, 127
1, 91911, Note_on_c, 7, 55, 127
1, 91911, Note_on_c, 12, 71, 127
1, 91911, Note_on_c, 7, 67, 127
1, 91911, Note_on_c, 7, 79, 127
1, 91911, Note_on_c, 2, 74, 127
1, 92069, Note_off_c, 2, 74, 127
1, 92069, Note_off_c, 7, 79, 127
1, 92069, Note_off_c, 7, 67, 127
1, 92069, Note_off_c, 12, 71, 127
1, 92069, Note_off_c, 7, 55, 127
1, 92069, Note_off_c, 12, 47, 127
1, 92069, Note_off_c, 2, 50, 127
1, 92071, Note_on_c, 2, 50, 127
1, 92071, Note_on_c, 12, 47, 127
1, 92071, Note_on_c, 7, 43, 127
1, 92071, Note_on_c, 7, 55, 127
1, 92071, Note_on_c, 7, 67, 127
1, 92071, Note_on_c, 5, 77, 127
1, 92071, Note_on_c, 2, 74, 127
1, 92071, Note_on_c, 12, 71, 127
1, 92229, Note_off_c, 12, 71, 127
1, 92229, Note_off_c, 2, 74, 127
1, 92229, Note_off_c, 5, 77, 127
1, 92229, Note_off_c, 7, 67, 127
1, 92229, Note_off_c, 7, 55, 127
1, 92229, Note_off_c, 7, 43, 127
1, 92229, Note_off_c, 12, 47, 127
1, 92229, Note_off_c, 2, 50, 127
1, 92231, Note_on_c, 0, 48, 127
1, 92231, Note_on_c, 0, 72, 127
1, 92231, Note_on_c, 4, 76, 127
1, 92231, Note_on_c, 7, 67, 127
1, 92389, Note_off_c, 0, 48, 127
1, 92391, Note_on_c, 4, 52, 127
1, 92549, Note_off_c, 4, 52, 127
1, 92551, Note_on_c, 7, 55, 127
1, 92709, Note_off_c, 7, 55, 127
1, 92711, Note_on_c, 11, 58, 127
1, 92869, Note_off_c, 11, 58, 127
1, 92869, Note_off_c, 7, 67, 127
1, 92869, Note_off_c, 4, 76, 127
1, 92869, Note_off_c, 0, 72, 127
1, 92871, Note_on_c, 0, 60, 127
1, 93029, Note_off_c, 0, 60, 127
1, 93031, Note_on_c, 4, 64, 127
1, 93189, Note_off_c, 4, 64, 127
1, 93191, Note_on_c, 7, 67, 127
1, 93349, Note_off_c, 7, 67, 127
1, 93351, Note_on_c, 11, 70, 127
1, 93501, Note_off_c, 11, 70, 127
1, 93511, Note_on_c, 10, 57, 127
1, 93511, Note_on_c, 5, 53, 127
1, 93671, Note_on_c, 5, 77, 127
1, 93829, Note_off_c, 5, 77, 127
1, 93831, Note_on_c, 5, 77, 127
1, 93989, Note_off_c, 5, 77, 127
1, 93991, Note_on_c, 0, 72, 127
1, 93991, Note_on_c, 10, 69, 127
1, 93991, Note_on_c, 5, 65, 127
1, 94149, Note_off_c, 5, 65, 127
1, 94149, Note_off_c, 10, 69, 127
1, 94149, Note_off_c, 0, 72, 127
1, 94151, Note_on_c, 0, 72, 127
1, 94151, Note_on_c, 10, 69, 127
1, 94151, Note_on_c, 5, 65, 127
1, 94309, Note_off_c, 5, 65, 127
1, 94309, Note_off_c, 10, 69, 127
1, 94309, Note_off_c, 0, 72, 127
1, 94311, Note_on_c, 0, 60, 127
1, 94311, Note_on_c, 10, 69, 127
1, 94311, Note_on_c, 5, 65, 127
1, 94469, Note_off_c, 5, 65, 127
1, 94469, Note_off_c, 10, 69, 127
1, 94469, Note_off_c, 0, 60, 127
1, 94469, Note_off_c, 10, 57, 127
1, 94471, Note_on_c, 10, 69, 127
1, 94471, Note_on_c, 5, 65, 127
1, 94471, Note_on_c, 0, 60, 127
1, 94629, Note_off_c, 0, 60, 127
1, 94629, Note_off_c, 5, 65, 127
1, 94629, Note_off_c, 10, 69, 127
1, 94631, Note_on_c, 0, 60, 127
1, 94631, Note_on_c, 10, 57, 127
1, 94631, Note_on_c, 5, 65, 127
1, 94789, Note_off_c, 5, 65, 127
1, 94789, Note_off_c, 10, 57, 127
1, 94789, Note_off_c, 0, 60, 127
1, 94789, Note_off_c, 5, 53, 127
1, 94791, Note_on_c, 5, 65, 127
1, 94791, Note_on_c, 10, 57, 127
1, 94791, Note_on_c, 0, 60, 127
1, 94949, Note_off_c, 0, 60, 127
1, 94949, Note_off_c, 10, 57, 127
1, 94949, Note_off_c, 5, 65, 127
1, 94951, Note_on_c, 5, 53, 127
1, 94951, Note_on_c, 10, 69, 127
1, 94951, Note_on_c, 5, 65, 127
1, 94951, Note_on_c, 0, 60, 127
1, 95109, Note_off_c, 0, 60, 127
1, 95109, Note_off_c, 5, 65, 127
1, 95109, Note_off_c, 10, 69, 127
1, 95109, Note_off_c, 5, 53, 127
1, 95111, Note_on_c, 5, 53, 127
1, 95111, Note_on_c, 10, 69, 127
1, 95111, Note_on_c, 5, 65, 127
1, 95111, Note_on_c, 0, 60, 127
1, 95269, Note_off_c, 0, 60, 127
1, 95269, Note_off_c, 5, 65, 127
1, 95269, Note_off_c, 10, 69, 127
1, 95269, Note_off_c, 5, 53, 127
1, 95271, Note_on_c, 5, 53, 127
1, 95271, Note_on_c, 0, 48, 127
1, 95271, Note_on_c, 5, 65, 127
1, 95271, Note_on_c, 10, 69, 127
1, 95271, Note_on_c, 0, 72, 127
1, 95429, Note_off_c, 0, 72, 127
1, 95429, Note_off_c, 10, 69, 127
1, 95429, Note_off_c, 5, 65, 127
1, 95429, Note_off_c, 0, 48, 127
1, 95429, Note_off_c, 5, 53, 127
1, 95431, Note_on_c, 0, 48, 127
1, 95431, Note_on_c, 5, 53, 127
1, 95431, Note_on_c, 10, 69, 127
1, 95431, Note_on_c, 5, 65, 127
1, 95431, Note_on_c, 0, 72, 127
1, 95589, Note_off_c, 0, 72, 127
1, 95589, Note_off_c, 5, 65, 127
1, 95589, Note_off_c, 10, 69, 127
1, 95589, Note_off_c, 5, 53, 127
1, 95589, Note_off_c, 0, 48, 127
1, 95591, Note_on_c, 5, 53, 127
1, 95591, Note_on_c, 0, 48, 127
1, 95591, Note_on_c, 10, 45, 127
1, 95591, Note_on_c, 5, 65, 127
1, 95591, Note_on_c, 10, 69, 127
1, 95591, Note_on_c, 0, 72, 127
1, 95591, Note_on_c, 5, 77, 127
1, 95749, Note_off_c, 5, 77, 127
1, 95749, Note_off_c, 0, 72, 127
1, 95749, Note_off_c, 10, 69, 127
1, 95749, Note_off_c, 5, 65, 127
1, 95749, Note_off_c, 10, 45, 127
1, 95749, Note_off_c, 0, 48, 127
1, 95749, Note_off_c, 5, 53, 127
1, 95751, Note_on_c, 10, 45, 127
1, 95751, Note_on_c, 5, 53, 127
1, 95751, Note_on_c, 0, 48, 127
1, 95751, Note_on_c, 10, 69, 127
1, 95751, Note_on_c, 5, 65, 127
1, 95751, Note_on_c, 0, 72, 127
1, 95751, Note_on_c, 5, 77, 127
1, 95909, Note_off_c, 5, 77, 127
1, 95909, Note_off_c, 0, 72, 127
1, 95909, Note_off_c, 5, 65, 127
1, 95909, Note_off_c, 10, 69, 127
1, 95909, Note_off_c, 0, 48, 127
1, 95909, Note_off_c, 5, 53, 127
1, 95909, Note_off_c, 10, 45, 127
1, 95911, Note_on_c, 5, 41, 127
1, 95911, Note_on_c, 5, 53, 127
1, 95911, Note_on_c, 0, 48, 127
1, 95911, Note_on_c, 10, 45, 127
1, 95911, Note_on_c, 10, 69, 127
1, 95911, Note_on_c, 5, 65, 127
1, 95911, Note_on_c, 0, 72, 127
1, 95911, Note_on_c, 4, 76, 127
1, 96069, Note_off_c, 4, 76, 127
1, 96069, Note_off_c, 0, 72, 127
1, 96069, Note_off_c, 5, 65, 127
1, 96069, Note_off_c, 10, 69, 127
1, 96069, Note_off_c, 10, 45, 127
1, 96069, Note_off_c, 0, 48, 127
1, 96069, Note_off_c, 5, 53, 127
1, 96069, Note_off_c, 5, 41, 127
1, 96071, Note_on_c, 11, 46, 127
1, 96071, Note_on_c, 5, 65, 127
1, 96071, Note_on_c, 11, 70, 127
1, 96071, Note_on_c, 2, 74, 127
1, 96229, Note_off_c, 11, 46, 127
1, 96231, Note_on_c, 2, 50, 127
1, 96389, Note_off_c, 2, 50, 127
1, 96391, Note_on_c, 5, 53, 127
1, 96549, Note_off_c, 5, 53, 127
1, 96551, Note_on_c, 10, 57, 127
1, 96709, Note_off_c, 10, 57, 127
1, 96709, Note_off_c, 2, 74, 127
1, 96709, Note_off_c, 11, 70, 127
1, 96709, Note_off_c, 5, 65, 127
1, 96711, Note_on_c, 11, 58, 127
1, 96869, Note_off_c, 11, 58, 127
1, 96871, Note_on_c, 2, 62, 127
1, 97029, Note_off_c, 2, 62, 127
1, 97031, Note_on_c, 5, 65, 127
1, 97189, Note_off_c, 5, 65, 127
1, 97191, Note_on_c, 10, 69, 127
1, 97341, Note_off_c, 10, 69, 127
1, 97351, Note_on_c, 4, 52, 127
1, 97351, Note_on_c, 7, 55, 127
1, 97511, Note_on_c, 4, 76, 127
1, 97669, Note_off_c, 4, 76, 127
1, 97671, Note_on_c, 4, 76, 127
1, 97829, Note_off_c, 4, 76, 127
1, 97829, Note_off_c, 7, 55, 127
1, 97831, Note_on_c, 4, 64, 127
1, 97831, Note_on_c, 7, 67, 127
1, 97831, Note_on_c, 11, 70, 127
1, 97989, Note_off_c, 11, 70, 127
1, 97989, Note_off_c, 7, 67, 127
1, 97989, Note_off_c, 4, 64, 127
1, 97991, Note_on_c, 4, 64, 127
1, 97991, Note_on_c, 7, 67, 127
1, 97991, Note_on_c, 11, 70, 127
1, 98149, Note_off_c, 11, 70, 127
1, 98149, Note_off_c, 7, 67, 127
1, 98149, Note_off_c, 4, 64, 127
1, 98151, Note_off_c, 4, 52, 127
1, 98151, Note_on_c, 11, 58, 127
1, 98151, Note_on_c, 4, 64, 127
1, 98151, Note_on_c, 7, 67, 127
1, 98309, Note_off_c, 7, 67, 127
1, 98309, Note_off_c, 4, 64, 127
1, 98309, Note_off_c, 11, 58, 127
1, 98311, Note_on_c, 11, 58, 127
1, 98311, Note_on_c, 4, 64, 127
1, 98311, Note_on_c, 7, 67, 127
1, 98469, Note_off_c, 7, 67, 127
1, 98469, Note_off_c, 4, 64, 127
1, 98469, Note_off_c, 11, 58, 127
1, 98471, Note_on_c, 7, 55, 127
1, 98471, Note_on_c, 1, 61, 127
1, 98471, Note_on_c, 4, 64, 127
1, 98629, Note_off_c, 4, 64, 127
1, 98629, Note_off_c, 1, 61, 127
1, 98629, Note_off_c, 7, 55, 127
1, 98631, Note_on_c, 7, 55, 127
1, 98631, Note_on_c, 1, 61, 127
1, 98631, Note_on_c, 4, 64, 127
1, 98789, Note_off_c, 4, 64, 127
1, 98789, Note_off_c, 1, 61, 127
1, 98789, Note_off_c, 7, 55, 127
1, 98791, Note_on_c, 11, 58, 127
1, 98791, Note_on_c, 1, 61, 127
1, 98791, Note_on_c, 4, 64, 127
1, 98791, Note_on_c, 7, 67, 127
1, 98949, Note_off_c, 7, 67, 127
1, 98949, Note_off_c, 4, 64, 127
1, 98949, Note_off_c, 1, 61, 127
1, 98949, Note_off_c, 11, 58, 127
1, 98951, Note_on_c, 11, 58, 127
1, 98951, Note_on_c, 1, 61, 127
1, 98951, Note_on_c, 4, 64, 127
1, 98951, Note_on_c, 7, 67, 127
1, 99109, Note_off_c, 7, 67, 127
1, 99109, Note_off_c, 4, 64, 127
1, 99109, Note_off_c, 1, 61, 127
1, 99109, Note_off_c, 11, 58, 127
1, 99111, Note_on_c, 7, 55, 127
1, 99111, Note_on_c, 4, 64, 127
1, 99111, Note_on_c, 7, 67, 127
1, 99111, Note_on_c, 11, 70, 127
1, 99269, Note_off_c, 11, 70, 127
1, 99269, Note_off_c, 7, 67, 127
1, 99269, Note_off_c, 4, 64, 127
1, 99269, Note_off_c, 7, 55, 127
1, 99271, Note_on_c, 7, 55, 127
1, 99271, Note_on_c, 4, 64, 127
1, 99271, Note_on_c, 7, 67, 127
1, 99271, Note_on_c, 11, 70, 127
1, 99429, Note_off_c, 11, 70, 127
1, 99429, Note_off_c, 7, 67, 127
1, 99429, Note_off_c, 4, 64, 127
1, 99429, Note_off_c, 7, 55, 127
1, 99431, Note_on_c, 4, 52, 127
1, 99431, Note_on_c, 7, 67, 127
1, 99431, Note_on_c, 11, 70, 127
1, 99431, Note_on_c, 2, 74, 127
1, 99589, Note_off_c, 2, 74, 127
1, 99589, Note_off_c, 11, 70, 127
1, 99589, Note_off_c, 7, 67, 127
1, 99589, Note_off_c, 4, 52, 127
1, 99591, Note_on_c, 4, 52, 127
1, 99591, Note_on_c, 7, 67, 127
1, 99591, Note_on_c, 11, 70, 127
1, 99591, Note_on_c, 2, 74, 127
1, 99749, Note_off_c, 2, 74, 127
1, 99751, Note_on_c, 7, 55, 127
1, 99751, Note_on_c, 1, 73, 127
1, 99891, Note_off_c, 4, 52, 127
1, 99908, Note_off_c, 11, 70, 127
1, 99908, Note_off_c, 7, 67, 127
1, 99910, Note_off_c, 1, 73, 127
1, 99912, Note_on_c, 10, 45, 127
1, 99912, Note_on_c, 1, 73, 127
1, 100070, Note_off_c, 1, 73, 127
1, 100072, Note_on_c, 10, 69, 127
1, 100202, Note_off_c, 7, 55, 127
1, 100230, Note_off_c, 10, 69, 127
1, 100230, Note_off_c, 10, 45, 127
1, 100232, Note_on_c, 4, 52, 127
1, 100232, Note_on_c, 10, 45, 127
1, 100232, Note_on_c, 7, 55, 127
1, 100232, Note_on_c, 1, 73, 127
1, 100390, Note_off_c, 1, 73, 127
1, 100392, Note_on_c, 2, 74, 127
1, 100470, Note_off_c, 2, 74, 127
1, 100472, Note_on_c, 4, 76, 127
1, 100550, Note_off_c, 4, 76, 127
1, 100550, Note_off_c, 7, 55, 127
1, 100550, Note_off_c, 10, 45, 127
1, 100550, Note_off_c, 4, 52, 127
1, 100552, Note_on_c, 4, 52, 127
1, 100552, Note_on_c, 10, 45, 127
1, 100552, Note_on_c, 7, 55, 127
1, 100552, Note_on_c, 1, 73, 127
1, 100710, Note_off_c, 1, 73, 127
1, 100712, Note_on_c, 10, 69, 127
1, 100870, Note_off_c, 10, 69, 127
1, 100870, Note_off_c, 7, 55, 127
1, 100870, Note_off_c, 10, 45, 127
1, 100870, Note_off_c, 4, 52, 127
1, 100872, Note_on_c, 4, 52, 127
1, 100872, Note_on_c, 10, 45, 127
1, 100872, Note_on_c, 7, 55, 127
1, 100872, Note_on_c, 1, 73, 127
1, 101030, Note_off_c, 1, 73, 127
1, 101032, Note_on_c, 4, 76, 127
1, 101190, Note_off_c, 4, 76, 127
1, 101190, Note_off_c, 7, 55, 127
1, 101190, Note_off_c, 10, 45, 127
1, 101190, Note_off_c, 4, 52, 127
1, 101192, Note_on_c, 2, 50, 127
1, 101192, Note_on_c, 6, 78, 127
1, 101350, Note_off_c, 6, 78, 127
1, 101352, Note_on_c, 2, 74, 127
1, 101510, Note_off_c, 2, 74, 127
1, 101510, Note_off_c, 2, 50, 127
1, 101512, Note_on_c, 10, 57, 127
1, 101512, Note_on_c, 2, 50, 127
1, 101512, Note_on_c, 0, 60, 127
1, 101512, Note_on_c, 6, 78, 127
1, 101670, Note_off_c, 6, 78, 127
1, 101672, Note_on_c, 7, 79, 127
1, 101750, Note_off_c, 7, 79, 127
1, 101752, Note_on_c, 10, 81, 127
1, 101830, Note_off_c, 10, 81, 127
1, 101830, Note_off_c, 0, 60, 127
1, 101830, Note_off_c, 2, 50, 127
1, 101830, Note_off_c, 10, 57, 127
1, 101832, Note_on_c, 2, 50, 127
1, 101832, Note_on_c, 0, 60, 127
1, 101832, Note_on_c, 10, 57, 127
1, 101832, Note_on_c, 6, 78, 127
1, 101990, Note_off_c, 6, 78, 127
1, 101992, Note_on_c, 2, 74, 127
1, 102150, Note_off_c, 2, 74, 127
1, 102150, Note_off_c, 10, 57, 127
1, 102150, Note_off_c, 0, 60, 127
1, 102150, Note_off_c, 2, 50, 127
1, 102152, Note_on_c, 10, 57, 127
1, 102152, Note_on_c, 2, 50, 127
1, 102152, Note_on_c, 0, 60, 127
1, 102152, Note_on_c, 6, 78, 127
1, 102310, Note_off_c, 6, 78, 127
1, 102312, Note_on_c, 10, 81, 127
1, 102470, Note_off_c, 10, 81, 127
1, 102470, Note_off_c, 0, 60, 127
1, 102470, Note_off_c, 2, 50, 127
1, 102470, Note_off_c, 10, 57, 127
1, 102472, Note_on_c, 7, 43, 127
1, 102472, Note_on_c, 12, 83, 127
1, 102630, Note_off_c, 12, 83, 127
1, 102632, Note_on_c, 7, 67, 127
1, 102790, Note_off_c, 7, 67, 127
1, 102790, Note_off_c, 7, 43, 127
1, 102792, Note_on_c, 7, 43, 127
1, 102792, Note_on_c, 5, 53, 127
1, 102792, Note_on_c, 2, 50, 127
1, 102792, Note_on_c, 12, 71, 127
1, 102950, Note_off_c, 12, 71, 127
1, 102952, Note_on_c, 0, 72, 127
1, 103030, Note_off_c, 0, 72, 127
1, 103032, Note_on_c, 2, 74, 127
1, 103110, Note_off_c, 2, 74, 127
1, 103110, Note_off_c, 2, 50, 127
1, 103110, Note_off_c, 5, 53, 127
1, 103110, Note_off_c, 7, 43, 127
1, 103112, Note_on_c, 7, 43, 127
1, 103112, Note_on_c, 5, 53, 127
1, 103112, Note_on_c, 2, 50, 127
1, 103112, Note_on_c, 12, 71, 127
1, 103270, Note_off_c, 12, 71, 127
1, 103272, Note_on_c, 7, 67, 127
1, 103430, Note_off_c, 7, 67, 127
1, 103430, Note_off_c, 2, 50, 127
1, 103430, Note_off_c, 5, 53, 127
1, 103430, Note_off_c, 7, 43, 127
1, 103432, Note_on_c, 7, 43, 127
1, 103432, Note_on_c, 5, 53, 127
1, 103432, Note_on_c, 2, 50, 127
1, 103432, Note_on_c, 12, 71, 127
1, 103590, Note_off_c, 12, 71, 127
1, 103592, Note_on_c, 2, 74, 127
1, 103750, Note_off_c, 2, 74, 127
1, 103750, Note_off_c, 2, 50, 127
1, 103750, Note_off_c, 5, 53, 127
1, 103750, Note_off_c, 7, 43, 127
1, 103752, Note_on_c, 0, 48, 127
1, 103752, Note_on_c, 4, 76, 127
1, 103910, Note_off_c, 4, 76, 127
1, 103912, Note_on_c, 0, 72, 127
1, 104070, Note_off_c, 0, 72, 127
1, 104070, Note_off_c, 0, 48, 127
1, 104072, Note_on_c, 0, 48, 127
1, 104072, Note_on_c, 11, 58, 127
1, 104072, Note_on_c, 7, 55, 127
1, 104072, Note_on_c, 4, 76, 127
1, 104230, Note_off_c, 4, 76, 127
1, 104232, Note_on_c, 5, 77, 127
1, 104310, Note_off_c, 5, 77, 127
1, 104312, Note_on_c, 7, 79, 127
1, 104390, Note_off_c, 7, 79, 127
1, 104390, Note_off_c, 7, 55, 127
1, 104390, Note_off_c, 11, 58, 127
1, 104390, Note_off_c, 0, 48, 127
1, 104392, Note_on_c, 7, 55, 127
1, 104392, Note_on_c, 0, 48, 127
1, 104392, Note_on_c, 11, 58, 127
1, 104392, Note_on_c, 4, 76, 127
1, 104550, Note_off_c, 4, 76, 127
1, 104552, Note_on_c, 0, 72, 127
1, 104710, Note_off_c, 0, 72, 127
1, 104710, Note_off_c, 11, 58, 127
1, 104710, Note_off_c, 0, 48, 127
1, 104710, Note_off_c, 7, 55, 127
1, 104712, Note_on_c, 0, 48, 127
1, 104712, Note_on_c, 11, 58, 127
1, 104712, Note_on_c, 7, 55, 127
1, 104712, Note_on_c, 4, 76, 127
1, 104870, Note_off_c, 4, 76, 127
1, 104872, Note_on_c, 7, 79, 127
1, 105030, Note_off_c, 7, 79, 127
1, 105030, Note_off_c, 7, 55, 127
1, 105030, Note_off_c, 11, 58, 127
1, 105030, Note_off_c, 0, 48, 127
1, 105032, Note_on_c, 5, 41, 127
1, 105032, Note_on_c, 10, 81, 127
1, 105190, Note_off_c, 10, 81, 127
1, 105192, Note_on_c, 5, 65, 127
1, 105350, Note_off_c, 5, 65, 127
1, 105350, Note_off_c, 5, 41, 127
1, 105352, Note_on_c, 5, 41, 127
1, 105352, Note_on_c, 3, 51, 127
1, 105352, Note_on_c, 0, 48, 127
1, 105352, Note_on_c, 10, 69, 127
1, 105510, Note_off_c, 10, 69, 127
1, 105512, Note_on_c, 11, 70, 127
1, 105590, Note_off_c, 11, 70, 127
1, 105592, Note_on_c, 0, 72, 127
1, 105670, Note_off_c, 0, 72, 127
1, 105670, Note_off_c, 0, 48, 127
1, 105670, Note_off_c, 3, 51, 127
1, 105670, Note_off_c, 5, 41, 127
1, 105672, Note_on_c, 0, 48, 127
1, 105672, Note_on_c, 5, 41, 127
1, 105672, Note_on_c, 3, 51, 127
1, 105672, Note_on_c, 10, 69, 127
1, 105830, Note_off_c, 10, 69, 127
1, 105832, Note_on_c, 5, 65, 127
1, 105990, Note_off_c, 5, 65, 127
1, 105990, Note_off_c, 3, 51, 127
1, 105990, Note_off_c, 5, 41, 127
1, 105990, Note_off_c, 0, 48, 127
1, 105992, Note_on_c, 3, 51, 127
1, 105992, Note_on_c, 0, 48, 127
1, 105992, Note_on_c, 5, 41, 127
1, 105992, Note_on_c, 10, 69, 127
1, 106150, Note_off_c, 10, 69, 127
1, 106152, Note_on_c, 0, 72, 127
1, 106310, Note_off_c, 0, 72, 127
1, 106310, Note_off_c, 5, 41, 127
1, 106310, Note_off_c, 0, 48, 127
1, 106310, Note_off_c, 3, 51, 127
1, 106312, Note_on_c, 11, 46, 127
1, 106312, Note_on_c, 2, 74, 127
1, 106470, Note_off_c, 2, 74, 127
1, 106472, Note_on_c, 11, 70, 127
1, 106630, Note_off_c, 11, 70, 127
1, 106630, Note_off_c, 11, 46, 127
1, 106632, Note_on_c, 5, 53, 127
1, 106632, Note_on_c, 11, 46, 127
1, 106632, Note_on_c, 2, 50, 127
1, 106632, Note_on_c, 2, 74, 127
1, 106790, Note_off_c, 2, 74, 127
1, 106792, Note_on_c, 3, 75, 127
1, 106870, Note_off_c, 3, 75, 127
1, 106872, Note_on_c, 5, 77, 127
1, 106950, Note_off_c, 5, 77, 127
1, 106950, Note_off_c, 2, 50, 127
1, 106950, Note_off_c, 11, 46, 127
1, 106950, Note_off_c, 5, 53, 127
1, 106952, Note_on_c, 5, 53, 127
1, 106952, Note_on_c, 2, 50, 127
1, 106952, Note_on_c, 11, 46, 127
1, 106952, Note_on_c, 2, 74, 127
1, 107110, Note_off_c, 2, 74, 127
1, 107112, Note_on_c, 11, 70, 127
1, 107270, Note_off_c, 11, 70, 127
1, 107270, Note_off_c, 11, 46, 127
1, 107270, Note_off_c, 2, 50, 127
1, 107270, Note_off_c, 5, 53, 127
1, 107272, Note_on_c, 10, 57, 127
1, 107272, Note_on_c, 10, 45, 127
1, 107272, Note_on_c, 0, 48, 127
1, 107272, Note_on_c, 2, 74, 127
1, 107430, Note_off_c, 2, 74, 127
1, 107432, Note_on_c, 6, 78, 127
1, 107590, Note_off_c, 6, 78, 127
1, 107590, Note_off_c, 0, 48, 127
1, 107590, Note_off_c, 10, 45, 127
1, 107590, Note_off_c, 10, 57, 127
1, 107592, Note_on_c, 7, 43, 127
1, 107592, Note_on_c, 2, 50, 127
1, 107592, Note_on_c, 11, 46, 127
1, 107592, Note_on_c, 7, 79, 127
1, 107750, Note_off_c, 11, 46, 127
1, 107750, Note_off_c, 2, 50, 127
1, 107750, Note_off_c, 7, 43, 127
1, 107752, Note_on_c, 7, 55, 127
1, 107752, Note_on_c, 7, 67, 127
1, 107910, Note_off_c, 7, 67, 127
1, 107910, Note_off_c, 7, 55, 127
1, 107912, Note_on_c, 2, 50, 127
1, 107912, Note_on_c, 11, 70, 127
1, 108070, Note_off_c, 11, 70, 127
1, 108070, Note_off_c, 2, 50, 127
1, 108072, Note_on_c, 11, 46, 127
1, 108072, Note_on_c, 2, 74, 127
1, 108230, Note_off_c, 2, 74, 127
1, 108230, Note_off_c, 11, 46, 127
1, 108232, Note_on_c, 7, 43, 127
1, 108232, Note_on_c, 11, 70, 127
1, 108390, Note_off_c, 11, 70, 127
1, 108390, Note_off_c, 7, 43, 127
1, 108392, Note_on_c, 7, 55, 127
1, 108392, Note_on_c, 7, 67, 127
1, 108550, Note_off_c, 7, 67, 127
1, 108550, Note_off_c, 7, 55, 127
1, 108550, Note_off_c, 7, 79, 127
1, 108552, Note_on_c, 2, 50, 127
1, 108552, Note_on_c, 11, 70, 127
1, 108710, Note_off_c, 11, 70, 127
1, 108710, Note_off_c, 2, 50, 127
1, 108712, Note_on_c, 11, 46, 127
1, 108712, Note_on_c, 2, 74, 127
1, 108870, Note_off_c, 2, 74, 127
1, 108870, Note_off_c, 11, 46, 127
1, 108872, Note_on_c, 7, 43, 127
1, 108872, Note_on_c, 7, 79, 127
1, 109030, Note_off_c, 7, 79, 127
1, 109030, Note_off_c, 7, 43, 127
1, 109032, Note_on_c, 11, 46, 127
1, 109032, Note_on_c, 2, 74, 127
1, 109190, Note_off_c, 2, 74, 127
1, 109190, Note_off_c, 11, 46, 127
1, 109192, Note_on_c, 2, 50, 127
1, 109192, Note_on_c, 7, 79, 127
1, 109350, Note_off_c, 7, 79, 127
1, 109350, Note_off_c, 2, 50, 127
1, 109352, Note_on_c, 7, 55, 127
1, 109352, Note_on_c, 11, 82, 127
1, 109510, Note_off_c, 11, 82, 127
1, 109510, Note_off_c, 7, 55, 127
1, 109512, Note_on_c, 7, 43, 127
1, 109512, Note_on_c, 7, 79, 127
1, 109670, Note_off_c, 7, 79, 127
1, 109670, Note_off_c, 7, 43, 127
1, 109672, Note_on_c, 11, 46, 127
1, 109672, Note_on_c, 2, 74, 127
1, 109830, Note_off_c, 2, 74, 127
1, 109830, Note_off_c, 11, 46, 127
1, 109832, Note_on_c, 2, 50, 127
1, 109832, Note_on_c, 7, 79, 127
1, 109990, Note_off_c, 7, 79, 127
1, 109990, Note_off_c, 2, 50, 127
1, 109992, Note_on_c, 7, 55, 127
1, 109992, Note_on_c, 11, 82, 127
1, 110150, Note_off_c, 11, 82, 127
1, 110150, Note_off_c, 7, 55, 127
1, 110152, Note_on_c, 10, 45, 127
1, 110152, Note_on_c, 1, 73, 127
1, 110310, Note_off_c, 10, 45, 127
1, 110312, Note_on_c, 10, 57, 127
1, 110312, Note_on_c, 7, 79, 127
1, 110469, Note_off_c, 1, 73, 127
1, 110471, Note_off_c, 7, 79, 127
1, 110471, Note_off_c, 10, 57, 127
1, 110473, Note_on_c, 2, 50, 127
1, 110473, Note_on_c, 2, 74, 127
1, 110473, Note_on_c, 5, 77, 127
1, 110631, Note_off_c, 5, 77, 127
1, 110633, Note_on_c, 7, 79, 127
1, 110711, Note_off_c, 7, 79, 127
1, 110713, Note_on_c, 4, 76, 127
1, 110791, Note_off_c, 4, 76, 127
1, 110791, Note_off_c, 2, 50, 127
1, 110793, Note_on_c, 10, 57, 127
1, 110793, Note_on_c, 5, 77, 127
1, 110940, Note_off_c, 2, 74, 127
1, 110968, Note_off_c, 5, 77, 127
1, 110970, Note_on_c, 4, 76, 127
1, 111040, Note_off_c, 4, 76, 127
1, 111042, Note_on_c, 5, 77, 127
1, 111112, Note_off_c, 5, 77, 127
1, 111112, Note_off_c, 10, 57, 127
1, 111114, Note_on_c, 10, 45, 127
1, 111114, Note_on_c, 1, 73, 127
1, 111114, Note_on_c, 4, 76, 127
1, 111272, Note_off_c, 4, 76, 127
1, 111272, Note_off_c, 1, 73, 127
1, 111274, Note_on_c, 2, 74, 127
1, 111432, Note_off_c, 2, 74, 127
1, 111432, Note_off_c, 10, 45, 127
1, 111434, Note_on_c, 2, 38, 127
1, 111434, Note_on_c, 2, 74, 127
1, 111752, Note_off_c, 2, 38, 127
1, 111754, Note_on_c, 2, 50, 127
1, 111901, Note_off_c, 2, 74, 127
1, 111913, Note_off_c, 2, 50, 127
1, 111915, Note_on_c, 4, 52, 127
1, 112073, Note_off_c, 4, 52, 127
1, 112075, Note_on_c, 6, 54, 127
1, 112233, Note_off_c, 6, 54, 127
1, 112235, Note_on_c, 7, 55, 127
1, 112393, Note_off_c, 7, 55, 127
1, 112395, Note_on_c, 10, 57, 127
1, 112395, Note_on_c, 7, 79, 127
1, 112473, Note_off_c, 7, 79, 127
1, 112475, Note_on_c, 6, 78, 127
1, 112553, Note_off_c, 6, 78, 127
1, 112553, Note_off_c, 10, 57, 127
1, 112555, Note_on_c, 2, 50, 127
1, 112555, Note_on_c, 4, 76, 127
1, 112633, Note_off_c, 4, 76, 127
1, 112635, Note_on_c, 6, 78, 127
1, 112713, Note_off_c, 6, 78, 127
1, 112713, Note_off_c, 2, 50, 127
1, 112715, Note_on_c, 11, 58, 127
1, 112715, Note_on_c, 7, 79, 127
1, 112873, Note_off_c, 7, 79, 127
1, 112873, Note_off_c, 11, 58, 127
1, 112875, Note_on_c, 2, 50, 127
1, 112875, Note_on_c, 6, 78, 127
1, 113033, Note_off_c, 6, 78, 127
1, 113033, Note_off_c, 2, 50, 127
1, 113035, Note_on_c, 10, 57, 127
1, 113035, Note_on_c, 6, 78, 127
1, 113193, Note_off_c, 6, 78, 127
1, 113193, Note_off_c, 10, 57, 127
1, 113195, Note_on_c, 2, 50, 127
1, 113195, Note_on_c, 7, 79, 127
1, 113353, Note_off_c, 7, 79, 127
1, 113353, Note_off_c, 2, 50, 127
1, 113355, Note_on_c, 11, 58, 127
1, 113355, Note_on_c, 7, 79, 127
1, 113513, Note_off_c, 7, 79, 127
1, 113513, Note_off_c, 11, 58, 127
1, 113515, Note_on_c, 2, 50, 127
1, 113515, Note_on_c, 6, 78, 127
1, 113673, Note_off_c, 6, 78, 127
1, 113673, Note_off_c, 2, 50, 127
1, 113675, Note_on_c, 10, 57, 127
1, 113675, Note_on_c, 6, 78, 127
1, 113833, Note_off_c, 6, 78, 127
1, 113833, Note_off_c, 10, 57, 127
1, 113835, Note_on_c, 2, 50, 127
1, 113835, Note_on_c, 7, 79, 127
1, 113993, Note_off_c, 7, 79, 127
1, 113993, Note_off_c, 2, 50, 127
1, 113995, Note_on_c, 11, 58, 127
1, 113995, Note_on_c, 7, 79, 127
1, 114153, Note_off_c, 11, 58, 127
1, 114155, Note_on_c, 2, 50, 127
1, 114313, Note_off_c, 2, 50, 127
1, 114313, Note_off_c, 7, 79, 127
1, 114315, Note_on_c, 10, 57, 127
1, 114315, Note_on_c, 6, 78, 127
1, 114393, Note_off_c, 6, 78, 127
1, 114395, Note_on_c, 7, 79, 127
1, 114473, Note_off_c, 7, 79, 127
1, 114473, Note_off_c, 10, 57, 127
1, 114475, Note_on_c, 2, 50, 127
1, 114475, Note_on_c, 6, 78, 127
1, 114633, Note_off_c, 2, 50, 127
1, 114635, Note_on_c, 11, 58, 127
1, 114715, Note_off_c, 6, 78, 127
1, 114793, Note_off_c, 11, 58, 127
1, 114795, Note_on_c, 2, 50, 127
1, 114953, Note_off_c, 2, 50, 127
1, 114955, Note_on_c, 12, 59, 127
1, 114955, Note_on_c, 8, 80, 127
1, 115113, Note_off_c, 12, 59, 127
1, 115115, Note_on_c, 4, 52, 127
1, 115273, Note_off_c, 4, 52, 127
1, 115273, Note_off_c, 8, 80, 127
1, 115275, Note_on_c, 0, 60, 127
1, 115275, Note_on_c, 10, 81, 127
1, 115433, Note_off_c, 10, 81, 127
1, 115433, Note_off_c, 0, 60, 127
1, 115435, Note_on_c, 4, 52, 127
1, 115435, Note_on_c, 8, 80, 127
1, 115593, Note_off_c, 8, 80, 127
1, 115593, Note_off_c, 4, 52, 127
1, 115595, Note_on_c, 12, 59, 127
1, 115595, Note_on_c, 8, 80, 127
1, 115753, Note_off_c, 8, 80, 127
1, 115753, Note_off_c, 12, 59, 127
1, 115755, Note_on_c, 4, 52, 127
1, 115755, Note_on_c, 10, 81, 127
1, 115913, Note_off_c, 10, 81, 127
1, 115913, Note_off_c, 4, 52, 127
1, 115915, Note_on_c, 0, 60, 127
1, 115915, Note_on_c, 10, 81, 127
1, 116073, Note_off_c, 10, 81, 127
1, 116073, Note_off_c, 0, 60, 127
1, 116075, Note_on_c, 4, 52, 127
1, 116075, Note_on_c, 8, 80, 127
1, 116233, Note_off_c, 8, 80, 127
1, 116233, Note_off_c, 4, 52, 127
1, 116235, Note_on_c, 12, 59, 127
1, 116235, Note_on_c, 8, 80, 127
1, 116393, Note_off_c, 8, 80, 127
1, 116393, Note_off_c, 12, 59, 127
1, 116395, Note_on_c, 4, 52, 127
1, 116395, Note_on_c, 10, 81, 127
1, 116553, Note_off_c, 10, 81, 127
1, 116553, Note_off_c, 4, 52, 127
1, 116555, Note_on_c, 0, 60, 127
1, 116555, Note_on_c, 10, 81, 127
1, 116713, Note_off_c, 10, 81, 127
1, 116713, Note_off_c, 0, 60, 127
1, 116715, Note_on_c, 10, 57, 127
1, 116715, Note_on_c, 4, 76, 127
1, 116873, Note_off_c, 4, 76, 127
1, 116873, Note_off_c, 10, 57, 127
1, 116875, Note_on_c, 1, 61, 127
1, 116875, Note_on_c, 4, 76, 127
1, 117033, Note_off_c, 4, 76, 127
1, 117033, Note_off_c, 1, 61, 127
1, 117035, Note_on_c, 10, 57, 127
1, 117035, Note_on_c, 5, 77, 127
1, 117193, Note_off_c, 5, 77, 127
1, 117193, Note_off_c, 10, 57, 127
1, 117195, Note_on_c, 2, 62, 127
1, 117195, Note_on_c, 5, 77, 127
1, 117353, Note_off_c, 5, 77, 127
1, 117353, Note_off_c, 2, 62, 127
1, 117355, Note_on_c, 10, 57, 127
1, 117355, Note_on_c, 1, 73, 127
1, 117513, Note_off_c, 1, 73, 127
1, 117513, Note_off_c, 10, 57, 127
1, 117515, Note_on_c, 4, 64, 127
1, 117515, Note_on_c, 1, 73, 127
1, 117673, Note_off_c, 1, 73, 127
1, 117673, Note_off_c, 4, 64, 127
1, 117675, Note_on_c, 10, 57, 127
1, 117675, Note_on_c, 2, 74, 127
1, 117833, Note_off_c, 2, 74, 127
1, 117833, Note_off_c, 10, 57, 127
1, 117835, Note_on_c, 5, 65, 127
1, 117835, Note_on_c, 2, 74, 127
1, 117993, Note_off_c, 2, 74, 127
1, 117993, Note_off_c, 5, 65, 127
1, 117995, Note_on_c, 2, 62, 127
1, 117995, Note_on_c, 10, 69, 127
1, 118153, Note_off_c, 10, 69, 127
1, 118153, Note_off_c, 2, 62, 127
1, 118155, Note_on_c, 6, 66, 127
1, 118155, Note_on_c, 10, 69, 127
1, 118313, Note_off_c, 10, 69, 127
1, 118313, Note_off_c, 6, 66, 127
1, 118315, Note_on_c, 2, 62, 127
1, 118315, Note_on_c, 11, 70, 127
1, 118473, Note_off_c, 11, 70, 127
1, 118473, Note_off_c, 2, 62, 127
1, 118475, Note_on_c, 7, 67, 127
1, 118475, Note_on_c, 11, 70, 127
1, 118633, Note_off_c, 11, 70, 127
1, 118633, Note_off_c, 7, 67, 127
1, 118635, Note_on_c, 2, 62, 127
1, 118635, Note_on_c, 6, 66, 127
1, 118793, Note_off_c, 6, 66, 127
1, 118793, Note_off_c, 2, 62, 127
1, 118795, Note_on_c, 10, 69, 127
1, 118795, Note_on_c, 6, 66, 127
1, 118953, Note_off_c, 6, 66, 127
1, 118953, Note_off_c, 10, 69, 127
1, 118955, Note_on_c, 2, 62, 127
1, 118955, Note_on_c, 7, 67, 127
1, 119113, Note_off_c, 7, 67, 127
1, 119113, Note_off_c, 2, 62, 127
1, 119115, Note_on_c, 11, 70, 127
1, 119115, Note_on_c, 7, 67, 127
1, 119273, Note_off_c, 11, 70, 127
1, 119275, Note_on_c, 4, 64, 127
1, 119433, Note_off_c, 4, 64, 127
1, 119435, Note_on_c, 5, 65, 127
1, 119548, Note_off_c, 7, 67, 127
1, 119593, Note_off_c, 5, 65, 127
1, 119595, Note_on_c, 7, 67, 127
1, 119753, Note_off_c, 7, 67, 127
1, 119755, Note_on_c, 2, 62, 127
1, 119820, Note_off_c, 2, 62, 127
1, 119822, Note_on_c, 1, 61, 127
1, 119887, Note_off_c, 1, 61, 127
1, 119889, Note_on_c, 2, 62, 127
1, 119916, Note_on_c, 11, 70, 127
1, 119954, Note_off_c, 2, 62, 127
1, 119956, Note_on_c, 1, 61, 127
1, 120074, Note_off_c, 11, 70, 127
1, 120076, Note_on_c, 10, 69, 127
1, 120234, Note_off_c, 10, 69, 127
1, 120236, Note_on_c, 7, 67, 127
1, 120338, Note_off_c, 1, 61, 127
1, 120395, Note_off_c, 7, 67, 127
1, 120397, Note_on_c, 5, 65, 127
1, 120557, Note_on_c, 2, 62, 127
1, 120557, Note_on_c, 10, 69, 127
1, 120714, Note_off_c, 5, 65, 127
1, 120716, Note_off_c, 10, 69, 127
1, 120716, Note_off_c, 2, 62, 127
1, 120718, Note_on_c, 11, 58, 127
1, 120718, Note_on_c, 2, 74, 127
1, 120876, Note_off_c, 2, 74, 127
1, 120876, Note_off_c, 11, 58, 127
1, 120878, Note_on_c, 7, 55, 127
1, 120878, Note_on_c, 4, 76, 127
1, 121036, Note_off_c, 4, 76, 127
1, 121036, Note_off_c, 7, 55, 127
1, 121038, Note_on_c, 10, 57, 127
1, 121038, Note_on_c, 1, 73, 127
1, 121038, Note_on_c, 5, 77, 127
1, 121143, Note_off_c, 5, 77, 127
1, 121145, Note_on_c, 4, 76, 127
1, 121197, Note_off_c, 4, 76, 127
1, 121197, Note_off_c, 10, 57, 127
1, 121199, Note_on_c, 7, 55, 127
1, 121199, Note_on_c, 5, 77, 127
1, 121251, Note_off_c, 5, 77, 127
1, 121253, Note_on_c, 4, 76, 127
1, 121305, Note_off_c, 4, 76, 127
1, 121307, Note_on_c, 5, 77, 127
1, 121340, Note_off_c, 1, 73, 127
1, 121358, Note_off_c, 5, 77, 127
1, 121358, Note_off_c, 7, 55, 127
1, 121360, Note_on_c, 10, 57, 127
1, 121360, Note_on_c, 4, 76, 127
1, 121518, Note_off_c, 4, 76, 127
1, 121518, Note_off_c, 10, 57, 127
1, 121520, Note_on_c, 10, 45, 127
1, 121520, Note_on_c, 2, 74, 127
1, 121678, Note_off_c, 2, 74, 127
1, 121678, Note_off_c, 10, 45, 127
1, 121680, Note_on_c, 2, 50, 127
1, 121680, Note_on_c, 2, 74, 127
1, 121838, Note_off_c, 2, 50, 127
1, 121840, Note_on_c, 2, 38, 127
1, 121998, Note_off_c, 2, 38, 127
1, 122000, Note_on_c, 5, 41, 127
1, 122158, Note_off_c, 5, 41, 127
1, 122160, Note_on_c, 10, 45, 127
1, 122318, Note_off_c, 10, 45, 127
1, 122320, Note_on_c, 2, 50, 127
1, 122478, Note_off_c, 2, 50, 127
1, 122480, Note_off_c, 2, 74, 127
1, 122480, Note_on_c, 5, 53, 127
1, 122638, Note_off_c, 5, 53, 127
1, 122640, Note_on_c, 10, 57, 127
1, 122640, Note_on_c, 5, 77, 127
1, 122798, Note_off_c, 10, 57, 127
1, 122800, Note_on_c, 2, 62, 127
1, 122958, Note_off_c, 2, 62, 127
1, 122958, Note_off_c, 5, 77, 127
1, 122960, Note_on_c, 10, 57, 127
1, 122960, Note_on_c, 5, 77, 127
1, 123118, Note_off_c, 5, 77, 127
1, 123120, Note_on_c, 1, 61, 127
1, 123120, Note_on_c, 4, 76, 127
1, 123278, Note_off_c, 4, 76, 127
1, 123278, Note_off_c, 1, 61, 127
1, 123280, Note_on_c, 1, 61, 127
1, 123280, Note_on_c, 4, 76, 127
1, 123438, Note_off_c, 4, 76, 127
1, 123438, Note_off_c, 1, 61, 127
1, 123440, Note_on_c, 2, 62, 127
1, 123440, Note_on_c, 5, 77, 127
1, 123598, Note_off_c, 5, 77, 127
1, 123598, Note_off_c, 2, 62, 127
1, 123600, Note_on_c, 4, 64, 127
1, 123600, Note_on_c, 7, 79, 127
1, 123758, Note_off_c, 7, 79, 127
1, 123758, Note_off_c, 4, 64, 127
1, 123760, Note_on_c, 5, 65, 127
1, 123760, Note_on_c, 10, 81, 127
1, 123918, Note_off_c, 10, 81, 127
1, 123918, Note_off_c, 5, 65, 127
1, 123920, Note_on_c, 4, 64, 127
1, 123920, Note_on_c, 7, 79, 127
1, 124078, Note_off_c, 7, 79, 127
1, 124078, Note_off_c, 4, 64, 127
1, 124080, Note_on_c, 2, 62, 127
1, 124080, Note_on_c, 5, 77, 127
1, 124238, Note_off_c, 5, 77, 127
1, 124238, Note_off_c, 2, 62, 127
1, 124240, Note_on_c, 2, 62, 127
1, 124240, Note_on_c, 5, 77, 127
1, 124398, Note_off_c, 5, 77, 127
1, 124398, Note_off_c, 2, 62, 127
1, 124400, Note_on_c, 1, 61, 127
1, 124400, Note_on_c, 4, 76, 127
1, 124558, Note_off_c, 4, 76, 127
1, 124558, Note_off_c, 1, 61, 127
1, 124560, Note_on_c, 1, 61, 127
1, 124560, Note_on_c, 4, 76, 127
1, 124718, Note_off_c, 4, 76, 127
1, 124718, Note_off_c, 1, 61, 127
1, 124720, Note_on_c, 2, 62, 127
1, 124720, Note_on_c, 5, 77, 127
1, 124878, Note_off_c, 5, 77, 127
1, 124878, Note_off_c, 2, 62, 127
1, 124880, Note_on_c, 4, 64, 127
1, 124880, Note_on_c, 7, 79, 127
1, 125038, Note_off_c, 7, 79, 127
1, 125038, Note_off_c, 4, 64, 127
1, 125040, Note_on_c, 5, 65, 127
1, 125040, Note_on_c, 10, 81, 127
1, 125198, Note_off_c, 10, 81, 127
1, 125198, Note_off_c, 5, 65, 127
1, 125200, Note_on_c, 4, 64, 127
1, 125200, Note_on_c, 7, 79, 127
1, 125358, Note_off_c, 7, 79, 127
1, 125358, Note_off_c, 4, 64, 127
1, 125360, Note_on_c, 2, 62, 127
1, 125360, Note_on_c, 5, 77, 127
1, 125510, Note_off_c, 10, 57, 127
1, 125518, Note_off_c, 5, 77, 127
1, 125518, Note_off_c, 2, 62, 127
1, 125520, Note_on_c, 2, 62, 127
1, 125520, Note_on_c, 5, 77, 127
1, 125678, Note_off_c, 2, 62, 127
1, 125680, Note_on_c, 1, 61, 127
1, 125758, Note_off_c, 1, 61, 127
1, 125760, Note_on_c, 2, 62, 127
1, 125838, Note_off_c, 2, 62, 127
1, 125838, Note_off_c, 5, 77, 127
1, 125840, Note_on_c, 1, 61, 127
1, 125840, Note_on_c, 4, 76, 127
1, 125918, Note_off_c, 4, 76, 127
1, 125920, Note_on_c, 5, 77, 127
1, 125998, Note_off_c, 5, 77, 127
1, 125998, Note_off_c, 1, 61, 127
1, 126000, Note_on_c, 7, 55, 127
1, 126000, Note_on_c, 4, 76, 127
1, 126158, Note_off_c, 7, 55, 127
1, 126160, Note_on_c, 5, 53, 127
1, 126318, Note_off_c, 5, 53, 127
1, 126320, Note_on_c, 4, 52, 127
1, 126400, Note_off_c, 4, 76, 127
1, 126478, Note_off_c, 4, 52, 127
1, 126480, Note_on_c, 5, 53, 127
1, 126480, Note_on_c, 10, 69, 127
1, 126638, Note_off_c, 5, 53, 127
1, 126640, Note_on_c, 2, 50, 127
1, 126798, Note_off_c, 2, 50, 127
1, 126798, Note_off_c, 10, 69, 127
1, 126800, Note_on_c, 7, 55, 127
1, 126800, Note_on_c, 12, 71, 127
1, 126958, Note_off_c, 12, 71, 127
1, 126960, Note_on_c, 1, 73, 127
1, 127118, Note_off_c, 1, 73, 127
1, 127120, Note_on_c, 10, 57, 127
1, 127120, Note_on_c, 1, 73, 127
1, 127278, Note_off_c, 1, 73, 127
1, 127280, Note_on_c, 2, 74, 127
1, 127433, Note_off_c, 7, 55, 127
1, 127438, Note_off_c, 2, 74, 127
1, 127438, Note_off_c, 10, 57, 127
1, 127440, Note_on_c, 5, 53, 127
1, 127440, Note_on_c, 12, 59, 127
1, 127440, Note_on_c, 2, 74, 127
1, 127598, Note_off_c, 2, 74, 127
1, 127600, Note_on_c, 4, 76, 127
1, 127758, Note_off_c, 4, 76, 127
1, 127758, Note_off_c, 12, 59, 127
1, 127758, Note_off_c, 5, 53, 127
1, 127760, Note_on_c, 4, 52, 127
1, 127760, Note_on_c, 1, 61, 127
1, 127760, Note_on_c, 4, 76, 127
1, 127918, Note_off_c, 4, 76, 127
1, 127920, Note_on_c, 5, 77, 127
1, 128078, Note_off_c, 5, 77, 127
1, 128078, Note_off_c, 1, 61, 127
1, 128078, Note_off_c, 4, 52, 127
1, 128080, Note_on_c, 2, 62, 127
1, 128080, Note_on_c, 2, 50, 127
1, 128080, Note_on_c, 5, 77, 127
1, 128238, Note_off_c, 5, 77, 127
1, 128240, Note_on_c, 2, 74, 127
1, 128398, Note_off_c, 2, 74, 127
1, 128398, Note_off_c, 2, 50, 127
1, 128400, Note_on_c, 5, 53, 127
1, 128400, Note_on_c, 2, 74, 127
1, 128558, Note_off_c, 2, 74, 127
1, 128560, Note_on_c, 4, 76, 127
1, 128713, Note_off_c, 2, 62, 127
1, 128718, Note_off_c, 4, 76, 127
1, 128718, Note_off_c, 5, 53, 127
1, 128720, Note_on_c, 2, 50, 127
1, 128720, Note_on_c, 7, 55, 127
1, 128720, Note_on_c, 4, 76, 127
1, 128878, Note_off_c, 4, 76, 127
1, 128880, Note_on_c, 6, 78, 127
1, 129038, Note_off_c, 6, 78, 127
1, 129038, Note_off_c, 7, 55, 127
1, 129038, Note_off_c, 2, 50, 127
1, 129040, Note_on_c, 10, 57, 127
1, 129040, Note_on_c, 0, 48, 127
1, 129040, Note_on_c, 6, 78, 127
1, 129198, Note_off_c, 6, 78, 127
1, 129200, Note_on_c, 7, 79, 127
1, 129358, Note_off_c, 7, 79, 127
1, 129358, Note_off_c, 0, 48, 127
1, 129358, Note_off_c, 10, 57, 127
1, 129360, Note_on_c, 2, 50, 127
1, 129360, Note_on_c, 11, 46, 127
1, 129360, Note_on_c, 7, 79, 127
1, 129523, Note_off_c, 2, 50, 127
1, 129525, Note_on_c, 11, 58, 127
1, 129606, Note_off_c, 11, 58, 127
1, 129608, Note_off_c, 11, 46, 127
1, 129608, Note_on_c, 10, 57, 127
1, 129689, Note_off_c, 10, 57, 127
1, 129691, Note_on_c, 7, 55, 127
1, 129772, Note_off_c, 7, 55, 127
1, 129774, Note_on_c, 5, 53, 127
1, 129855, Note_off_c, 5, 53, 127
1, 129857, Note_on_c, 4, 52, 127
1, 129938, Note_off_c, 4, 52, 127
1, 129940, Note_on_c, 2, 50, 127
1, 130021, Note_off_c, 2, 50, 127
1, 130023, Note_on_c, 1, 49, 127
1, 130186, Note_off_c, 1, 49, 127
1, 130188, Note_on_c, 4, 52, 127
1, 130351, Note_off_c, 4, 52, 127
1, 130351, Note_off_c, 7, 79, 127
1, 130353, Note_on_c, 10, 57, 127
1, 130353, Note_on_c, 5, 77, 127
1, 130516, Note_off_c, 5, 77, 127
1, 130516, Note_off_c, 10, 57, 127
1, 130518, Note_on_c, 1, 49, 127
1, 130518, Note_on_c, 7, 79, 127
1, 130599, Note_off_c, 7, 79, 127
1, 130601, Note_on_c, 10, 81, 127
1, 130682, Note_off_c, 10, 81, 127
1, 130682, Note_off_c, 1, 49, 127
1, 130684, Note_on_c, 2, 50, 127
1, 130684, Note_on_c, 10, 57, 127
1, 130684, Note_on_c, 7, 79, 127
1, 130753, Note_off_c, 7, 79, 127
1, 130755, Note_on_c, 5, 77, 127
1, 130824, Note_off_c, 5, 77, 127
1, 130826, Note_on_c, 7, 79, 127
1, 130895, Note_off_c, 7, 79, 127
1, 130897, Note_on_c, 5, 77, 127
1, 131022, Note_off_c, 5, 77, 127
1, 131022, Note_off_c, 10, 57, 127
1, 131022, Note_off_c, 2, 50, 127
1, 131024, Note_on_c, 11, 58, 127
1, 131024, Note_on_c, 7, 55, 127
1, 131024, Note_on_c, 4, 76, 127
1, 131192, Note_off_c, 4, 76, 127
1, 131194, Note_on_c, 2, 74, 127
1, 131362, Note_off_c, 2, 74, 127
1, 131362, Note_off_c, 7, 55, 127
1, 131362, Note_off_c, 11, 58, 127
1, 131364, Note_on_c, 10, 57, 127
1, 131364, Note_on_c, 2, 74, 127
1, 131475, Note_off_c, 2, 74, 127
1, 131477, Note_on_c, 1, 73, 127
1, 131532, Note_off_c, 1, 73, 127
1, 131534, Note_on_c, 2, 74, 127
1, 131589, Note_off_c, 2, 74, 127
1, 131591, Note_on_c, 1, 73, 127
1, 131646, Note_off_c, 1, 73, 127
1, 131648, Note_on_c, 2, 74, 127
1, 131703, Note_off_c, 2, 74, 127
1, 131703, Note_off_c, 10, 57, 127
1, 131705, Note_on_c, 10, 45, 127
1, 131705, Note_on_c, 1, 73, 127
1, 132042, Note_off_c, 1, 73, 127
1, 132042, Note_off_c, 10, 45, 127
1, 132044, Note_on_c, 2, 50, 127
1, 132044, Note_on_c, 5, 53, 127
1, 132044, Note_on_c, 2, 74, 127
1, 132381, Note_off_c, 5, 53, 127
1, 132381, Note_off_c, 2, 50, 127
1, 132383, Note_on_c, 4, 52, 127
1, 132720, Note_off_c, 4, 52, 127
1, 132722, Note_on_c, 5, 53, 127
1, 132882, Note_off_c, 2, 74, 127
1, 133040, Note_off_c, 5, 53, 127
1, 133042, Note_on_c, 5, 53, 127
1, 133042, Note_on_c, 2, 50, 127
1, 133042, Note_on_c, 10, 57, 127
1, 133360, Note_off_c, 10, 57, 127
1, 133360, Note_off_c, 2, 50, 127
1, 133360, Note_off_c, 5, 53, 127
1, 133362, Note_on_c, 7, 43, 127
1, 133362, Note_on_c, 7, 55, 127
1, 133362, Note_on_c, 12, 59, 127
1, 133520, Note_off_c, 12, 59, 127
1, 133522, Note_on_c, 1, 61, 127
1, 133680, Note_off_c, 1, 61, 127
1, 133680, Note_off_c, 7, 55, 127
1, 133680, Note_off_c, 7, 43, 127
1, 133682, Note_on_c, 10, 57, 127
1, 133682, Note_on_c, 7, 55, 127
1, 133682, Note_on_c, 1, 61, 127
1, 133840, Note_off_c, 1, 61, 127
1, 133842, Note_on_c, 2, 62, 127
1, 134000, Note_off_c, 2, 62, 127
1, 134000, Note_off_c, 7, 55, 127
1, 134000, Note_off_c, 10, 57, 127
1, 134002, Note_on_c, 5, 53, 127
1, 134002, Note_on_c, 12, 59, 127
1, 134002, Note_on_c, 2, 62, 127
1, 134160, Note_off_c, 2, 62, 127
1, 134162, Note_on_c, 4, 64, 127
1, 134320, Note_off_c, 4, 64, 127
1, 134320, Note_off_c, 12, 59, 127
1, 134320, Note_off_c, 5, 53, 127
1, 134322, Note_on_c, 1, 61, 127
1, 134322, Note_on_c, 4, 52, 127
1, 134322, Note_on_c, 4, 64, 127
1, 134480, Note_off_c, 4, 64, 127
1, 134482, Note_on_c, 5, 65, 127
1, 134640, Note_off_c, 5, 65, 127
1, 134640, Note_off_c, 4, 52, 127
1, 134640, Note_off_c, 1, 61, 127
1, 134642, Note_on_c, 2, 50, 127
1, 134642, Note_on_c, 2, 62, 127
1, 134642, Note_on_c, 5, 65, 127
1, 134800, Note_off_c, 5, 65, 127
1, 134800, Note_off_c, 2, 62, 127
1, 134802, Note_on_c, 10, 57, 127
1, 134802, Note_on_c, 6, 66, 127
1, 134802, Note_on_c, 2, 62, 127
1, 134959, Note_off_c, 2, 50, 127
1, 134961, Note_off_c, 2, 62, 127
1, 134961, Note_off_c, 6, 66, 127
1, 134961, Note_off_c, 10, 57, 127
1, 134963, Note_on_c, 0, 48, 127
1, 134963, Note_on_c, 10, 57, 127
1, 134963, Note_on_c, 6, 66, 127
1, 134963, Note_on_c, 2, 62, 127
1, 135121, Note_off_c, 2, 62, 127
1, 135121, Note_off_c, 6, 66, 127
1, 135121, Note_off_c, 10, 57, 127
1, 135123, Note_on_c, 11, 58, 127
1, 135123, Note_on_c, 7, 67, 127
1, 135123, Note_on_c, 4, 64, 127
1, 135280, Note_off_c, 0, 48, 127
1, 135282, Note_off_c, 4, 64, 127
1, 135282, Note_off_c, 7, 67, 127
1, 135282, Note_off_c, 11, 58, 127
1, 135284, Note_on_c, 11, 46, 127
1, 135284, Note_on_c, 11, 58, 127
1, 135284, Note_on_c, 7, 67, 127
1, 135284, Note_on_c, 4, 64, 127
1, 135442, Note_off_c, 4, 64, 127
1, 135442, Note_off_c, 7, 67, 127
1, 135442, Note_off_c, 11, 58, 127
1, 135444, Note_on_c, 0, 60, 127
1, 135444, Note_on_c, 10, 69, 127
1, 135444, Note_on_c, 6, 66, 127
1, 135601, Note_off_c, 11, 46, 127
1, 135603, Note_off_c, 6, 66, 127
1, 135603, Note_off_c, 10, 69, 127
1, 135603, Note_off_c, 0, 60, 127
1, 135605, Note_on_c, 0, 60, 127
1, 135605, Note_on_c, 10, 45, 127
1, 135605, Note_on_c, 6, 66, 127
1, 135605, Note_on_c, 10, 69, 127
1, 135763, Note_off_c, 10, 69, 127
1, 135763, Note_off_c, 6, 66, 127
1, 135763, Note_off_c, 0, 60, 127
1, 135765, Note_on_c, 2, 62, 127
1, 135765, Note_on_c, 11, 70, 127
1, 135765, Note_on_c, 7, 67, 127
1, 135922, Note_off_c, 10, 45, 127
1, 135924, Note_off_c, 7, 67, 127
1, 135924, Note_off_c, 11, 70, 127
1, 135924, Note_off_c, 2, 62, 127
1, 135926, Note_on_c, 7, 43, 127
1, 135926, Note_on_c, 2, 62, 127
1, 135926, Note_on_c, 11, 70, 127
1, 136084, Note_off_c, 7, 43, 127
1, 136086, Note_on_c, 11, 46, 127
1, 136086, Note_on_c, 7, 67, 127
1, 136243, Note_off_c, 11, 70, 127
1, 136245, Note_off_c, 7, 67, 127
1, 136245, Note_off_c, 11, 46, 127
1, 136247, Note_on_c, 2, 50, 127
1, 136247, Note_on_c, 10, 69, 127
1, 136405, Note_off_c, 10, 69, 127
1, 136405, Note_off_c, 2, 50, 127
1, 136407, Note_on_c, 7, 55, 127
1, 136407, Note_on_c, 11, 70, 127
1, 136560, Note_off_c, 2, 62, 127
1, 136565, Note_off_c, 7, 55, 127
1, 136567, Note_on_c, 1, 49, 127
1, 136567, Note_on_c, 4, 64, 127
1, 136724, Note_off_c, 11, 70, 127
1, 136726, Note_off_c, 1, 49, 127
1, 136728, Note_on_c, 11, 58, 127
1, 136728, Note_on_c, 11, 70, 127
1, 136886, Note_off_c, 11, 70, 127
1, 136886, Note_off_c, 11, 58, 127
1, 136888, Note_on_c, 10, 57, 127
1, 136888, Note_on_c, 10, 69, 127
1, 137035, Note_off_c, 4, 64, 127
1, 137047, Note_off_c, 10, 69, 127
1, 137047, Note_off_c, 10, 57, 127
1, 137049, Note_on_c, 7, 55, 127
1, 137049, Note_on_c, 7, 67, 127
1, 137207, Note_off_c, 7, 67, 127
1, 137207, Note_off_c, 7, 55, 127
1, 137209, Note_on_c, 7, 55, 127
1, 137209, Note_on_c, 7, 67, 127
1, 137367, Note_off_c, 7, 67, 127
1, 137367, Note_off_c, 7, 55, 127
1, 137377, Note_on_c, 5, 65, 127
1, 137377, Note_on_c, 5, 53, 127
1, 137535, Note_off_c, 5, 53, 127
1, 137535, Note_off_c, 5, 65, 127
1, 137545, Note_on_c, 4, 64, 127
1, 137545, Note_on_c, 4, 52, 127
1, 137703, Note_off_c, 4, 52, 127
1, 137703, Note_off_c, 4, 64, 127
1, 137713, Note_on_c, 2, 62, 127
1, 137713, Note_on_c, 2, 50, 127
1, 137871, Note_off_c, 2, 50, 127
1, 137871, Note_off_c, 2, 62, 127
1, 137901, Note_on_c, 10, 57, 127
1, 137901, Note_on_c, 10, 69, 127
1, 137961, Note_on_c, 7, 55, 127
1, 137961, Note_on_c, 7, 67, 127
1, 137981, Note_off_c, 10, 69, 127
1, 137981, Note_off_c, 10, 57, 127
1, 138021, Note_on_c, 10, 57, 127
1, 138021, Note_on_c, 10, 69, 127
1, 138029, Note_off_c, 7, 67, 127
1, 138029, Note_off_c, 7, 55, 127
1, 138261, Note_off_c, 10, 69, 127
1, 138261, Note_off_c, 10, 57, 127
1, 138289, Note_on_c, 10, 69, 127
1, 138289, Note_on_c, 1, 73, 127
1, 138289, Note_on_c, 4, 64, 127
1, 138289, Note_on_c, 7, 67, 127
1, 138289, Note_on_c, 10, 45, 127
1, 138607, Note_off_c, 10, 45, 127
1, 138607, Note_off_c, 7, 67, 127
1, 138607, Note_off_c, 4, 64, 127
1, 138607, Note_off_c, 1, 73, 127
1, 138607, Note_off_c, 10, 69, 127
1, 138729, Note_on_c, 2, 50, 127
1, 138729, Note_on_c, 2, 38, 127
1, 138729, Note_on_c, 6, 66, 127
1, 138729, Note_on_c, 10, 69, 127
1, 138729, Note_on_c, 2, 74, 127
1, 141286, Note_off_c, 2, 74, 127
1, 141286, Note_off_c, 10, 69, 127
1, 141286, Note_off_c, 6, 66, 127
1, 141286, Note_off_c, 2, 38, 127
1, 141286, Note_off_c, 2, 50, 127
1, 144617, Note_on_c, 2, 62, 127
1, 145105, Note_off_c, 2, 62, 127
1, 145108, Note_on_c, 2, 62, 127
1, 145596, Note_off_c, 2, 62, 127
1, 145599, Note_on_c, 2, 62, 127
1, 146087, Note_off_c, 2, 62, 127
1, 146090, Note_on_c, 2, 62, 127
1, 146578, Note_off_c, 2, 62, 127
1, 146581, Note_on_c, 2, 62, 127
1, 147069, Note_off_c, 2, 62, 127
1, 147072, Note_on_c, 2, 62, 127
1, 147560, Note_off_c, 2, 62, 127
1, 147563, Note_on_c, 4, 64, 127
1, 147563, Note_on_c, 2, 62, 127
1, 148051, Note_off_c, 2, 62, 127
1, 148051, Note_off_c, 4, 64, 127
1, 148054, Note_on_c, 4, 64, 127
1, 148054, Note_on_c, 2, 62, 127
1, 148542, Note_off_c, 2, 62, 127
1, 148542, Note_off_c, 4, 64, 127
1, 148545, Note_on_c, 4, 64, 127
1, 148545, Note_on_c, 2, 62, 127
1, 149033, Note_off_c, 2, 62, 127
1, 149033, Note_off_c, 4, 64, 127
1, 149036, Note_on_c, 4, 64, 127
1, 149036, Note_on_c, 2, 62, 127
1, 149524, Note_off_c, 2, 62, 127
1, 149524, Note_off_c, 4, 64, 127
1, 149527, Note_on_c, 4, 64, 127
1, 149527, Note_on_c, 2, 62, 127
1, 150015, Note_off_c, 2, 62, 127
1, 150015, Note_off_c, 4, 64, 127
1, 150021, Note_on_c, 2, 62, 127
1, 150021, Note_on_c, 4, 64, 127
1, 150509, Note_off_c, 4, 64, 127
1, 150509, Note_off_c, 2, 62, 127
1, 150517, Note_on_c, 7, 67, 127
1, 150517, Note_on_c, 4, 64, 127
1, 150517, Note_on_c, 10, 57, 127
1, 150517, Note_on_c, 1, 61, 127
1, 151005, Note_off_c, 1, 61, 127
1, 151005, Note_off_c, 10, 57, 127
1, 151005, Note_off_c, 4, 64, 127
1, 151005, Note_off_c, 7, 67, 127
1, 151008, Note_on_c, 7, 67, 127
1, 151008, Note_on_c, 4, 64, 127
1, 151008, Note_on_c, 10, 57, 127
1, 151008, Note_on_c, 1, 61, 127
1, 151496, Note_off_c, 1, 61, 127
1, 151496, Note_off_c, 10, 57, 127
1, 151496, Note_off_c, 4, 64, 127
1, 151496, Note_off_c, 7, 67, 127
1, 151499, Note_on_c, 4, 64, 127
1, 151499, Note_on_c, 7, 67, 127
1, 151499, Note_on_c, 1, 61, 127
1, 151499, Note_on_c, 10, 57, 127
1, 151987, Note_off_c, 10, 57, 127
1, 151987, Note_off_c, 1, 61, 127
1, 151987, Note_off_c, 7, 67, 127
1, 151987, Note_off_c, 4, 64, 127
1, 151990, Note_on_c, 7, 67, 127
1, 151990, Note_on_c, 4, 64, 127
1, 151990, Note_on_c, 1, 61, 127
1, 151990, Note_on_c, 10, 57, 127
1, 152478, Note_off_c, 10, 57, 127
1, 152478, Note_off_c, 1, 61, 127
1, 152478, Note_off_c, 4, 64, 127
1, 152478, Note_off_c, 7, 67, 127
1, 152481, Note_on_c, 4, 64, 127
1, 152481, Note_on_c, 7, 67, 127
1, 152481, Note_on_c, 10, 57, 127
1, 152481, Note_on_c, 1, 61, 127
1, 152969, Note_off_c, 1, 61, 127
1, 152969, Note_off_c, 10, 57, 127
1, 152969, Note_off_c, 7, 67, 127
1, 152969, Note_off_c, 4, 64, 127
1, 152976, Note_on_c, 7, 67, 127
1, 152976, Note_on_c, 4, 64, 127
1, 152976, Note_on_c, 10, 57, 127
1, 152976, Note_on_c, 1, 61, 127
1, 153472, Note_off_c, 1, 61, 127
1, 153472, Note_off_c, 10, 57, 127
1, 153472, Note_off_c, 4, 64, 127
1, 153472, Note_off_c, 7, 67, 127
1, 153495, Note_on_c, 2, 50, 127
1, 153495, Note_on_c, 2, 62, 127
1, 153495, Note_on_c, 2, 74, 127
1, 153495, Note_on_c, 5, 65, 127
1, 153998, Note_off_c, 5, 65, 127
1, 153998, Note_off_c, 2, 62, 127
1, 154010, Note_on_c, 5, 77, 127
1, 154010, Note_on_c, 5, 65, 127
1, 154010, Note_on_c, 2, 62, 127
1, 154017, Note_off_c, 2, 74, 127
1, 154466, Note_off_c, 2, 50, 127
1, 154498, Note_off_c, 2, 62, 127
1, 154498, Note_off_c, 5, 65, 127
1, 154498, Note_off_c, 5, 77, 127
1, 154501, Note_on_c, 5, 77, 127
1, 154501, Note_on_c, 2, 62, 127
1, 154501, Note_on_c, 5, 65, 127
1, 154989, Note_off_c, 5, 65, 127
1, 154989, Note_off_c, 2, 62, 127
1, 154989, Note_off_c, 5, 77, 127
1, 154992, Note_on_c, 10, 81, 127
1, 154992, Note_on_c, 2, 62, 127
1, 154992, Note_on_c, 5, 65, 127
1, 155480, Note_off_c, 5, 65, 127
1, 155480, Note_off_c, 2, 62, 127
1, 155480, Note_off_c, 10, 81, 127
1, 155483, Note_on_c, 10, 81, 127
1, 155483, Note_on_c, 5, 65, 127
1, 155483, Note_on_c, 2, 62, 127
1, 155971, Note_off_c, 2, 62, 127
1, 155971, Note_off_c, 5, 65, 127
1, 155971, Note_off_c, 10, 81, 127
1, 155974, Note_on_c, 0, 84, 127
1, 155974, Note_on_c, 5, 65, 127
1, 155974, Note_on_c, 2, 62, 127
1, 156217, Note_off_c, 0, 84, 127
1, 156220, Note_on_c, 11, 82, 127
1, 156463, Note_off_c, 11, 82, 127
1, 156463, Note_off_c, 2, 62, 127
1, 156463, Note_off_c, 5, 65, 127
1, 156466, Note_on_c, 11, 82, 127
1, 156466, Note_on_c, 5, 65, 127
1, 156466, Note_on_c, 2, 62, 127
1, 156466, Note_on_c, 7, 55, 127
1, 156709, Note_off_c, 11, 82, 127
1, 156712, Note_on_c, 10, 81, 127
1, 156955, Note_off_c, 10, 81, 127
1, 156955, Note_off_c, 7, 55, 127
1, 156955, Note_off_c, 2, 62, 127
1, 156955, Note_off_c, 5, 65, 127
1, 156958, Note_on_c, 11, 82, 127
1, 156958, Note_on_c, 7, 55, 127
1, 156958, Note_on_c, 2, 62, 127
1, 156958, Note_on_c, 5, 65, 127
1, 157446, Note_off_c, 5, 65, 127
1, 157446, Note_off_c, 2, 62, 127
1, 157446, Note_off_c, 7, 55, 127
1, 157449, Note_on_c, 2, 62, 127
1, 157449, Note_on_c, 5, 65, 127
1, 157449, Note_on_c, 7, 55, 127
1, 157937, Note_off_c, 7, 55, 127
1, 157937, Note_off_c, 5, 65, 127
1, 157937, Note_off_c, 2, 62, 127
1, 157940, Note_on_c, 5, 65, 127
1, 157940, Note_on_c, 7, 55, 127
1, 157940, Note_on_c, 2, 62, 127
1, 158428, Note_off_c, 2, 62, 127
1, 158428, Note_off_c, 7, 55, 127
1, 158428, Note_off_c, 5, 65, 127
1, 158431, Note_on_c, 5, 65, 127
1, 158431, Note_on_c, 2, 62, 127
1, 158431, Note_on_c, 7, 55, 127
1, 158919, Note_off_c, 7, 55, 127
1, 158919, Note_off_c, 2, 62, 127
1, 158919, Note_off_c, 5, 65, 127
1, 158922, Note_on_c, 2, 62, 127
1, 158922, Note_on_c, 5, 65, 127
1, 158922, Note_on_c, 7, 55, 127
1, 159259, Note_off_c, 11, 82, 127
1, 159410, Note_off_c, 7, 55, 127
1, 159410, Note_off_c, 5, 65, 127
1, 159410, Note_off_c, 2, 62, 127
1, 159429, Note_on_c, 4, 64, 127
1, 159429, Note_on_c, 0, 60, 127
1, 159429, Note_on_c, 0, 72, 127
1, 159917, Note_off_c, 0, 72, 127
1, 159917, Note_off_c, 0, 60, 127
1, 159917, Note_off_c, 4, 64, 127
1, 159920, Note_on_c, 4, 64, 127
1, 159920, Note_on_c, 0, 60, 127
1, 159920, Note_on_c, 4, 76, 127
1, 160163, Note_off_c, 4, 76, 127
1, 160166, Note_on_c, 2, 74, 127
1, 160409, Note_off_c, 2, 74, 127
1, 160409, Note_off_c, 0, 60, 127
1, 160409, Note_off_c, 4, 64, 127
1, 160412, Note_on_c, 4, 64, 127
1, 160412, Note_on_c, 0, 60, 127
1, 160412, Note_on_c, 4, 76, 127
1, 160900, Note_off_c, 4, 76, 127
1, 160900, Note_off_c, 0, 60, 127
1, 160900, Note_off_c, 4, 64, 127
1, 160903, Note_on_c, 0, 60, 127
1, 160903, Note_on_c, 4, 64, 127
1, 160903, Note_on_c, 7, 79, 127
1, 161146, Note_off_c, 7, 79, 127
1, 161149, Note_on_c, 5, 77, 127
1, 161392, Note_off_c, 5, 77, 127
1, 161392, Note_off_c, 4, 64, 127
1, 161392, Note_off_c, 0, 60, 127
1, 161395, Note_on_c, 0, 60, 127
1, 161395, Note_on_c, 4, 64, 127
1, 161395, Note_on_c, 7, 79, 127
1, 161883, Note_off_c, 7, 79, 127
1, 161883, Note_off_c, 4, 64, 127
1, 161883, Note_off_c, 0, 60, 127
1, 161886, Note_on_c, 0, 60, 127
1, 161886, Note_on_c, 4, 64, 127
1, 161886, Note_on_c, 11, 82, 127
1, 162129, Note_off_c, 11, 82, 127
1, 162132, Note_on_c, 10, 81, 127
1, 162375, Note_off_c, 10, 81, 127
1, 162375, Note_off_c, 4, 64, 127
1, 162375, Note_off_c, 0, 60, 127
1, 162378, Note_on_c, 5, 53, 127
1, 162378, Note_on_c, 0, 60, 127
1, 162378, Note_on_c, 4, 64, 127
1, 162378, Note_on_c, 10, 81, 127
1, 162621, Note_off_c, 10, 81, 127
1, 162624, Note_on_c, 7, 79, 127
1, 162867, Note_off_c, 7, 79, 127
1, 162867, Note_off_c, 4, 64, 127
1, 162867, Note_off_c, 0, 60, 127
1, 162867, Note_off_c, 5, 53, 127
1, 162870, Note_on_c, 4, 64, 127
1, 162870, Note_on_c, 0, 60, 127
1, 162870, Note_on_c, 5, 53, 127
1, 162870, Note_on_c, 10, 81, 127
1, 163358, Note_off_c, 5, 53, 127
1, 163358, Note_off_c, 0, 60, 127
1, 163358, Note_off_c, 4, 64, 127
1, 163361, Note_on_c, 4, 64, 127
1, 163361, Note_on_c, 0, 60, 127
1, 163361, Note_on_c, 5, 53, 127
1, 163849, Note_off_c, 5, 53, 127
1, 163849, Note_off_c, 0, 60, 127
1, 163849, Note_off_c, 4, 64, 127
1, 163852, Note_on_c, 0, 60, 127
1, 163852, Note_on_c, 5, 53, 127
1, 163852, Note_on_c, 4, 64, 127
1, 164340, Note_off_c, 4, 64, 127
1, 164340, Note_off_c, 5, 53, 127
1, 164340, Note_off_c, 0, 60, 127
1, 164343, Note_on_c, 4, 64, 127
1, 164343, Note_on_c, 0, 60, 127
1, 164343, Note_on_c, 5, 53, 127
1, 164831, Note_off_c, 5, 53, 127
1, 164831, Note_off_c, 0, 60, 127
1, 164831, Note_off_c, 4, 64, 127
1, 164834, Note_on_c, 0, 60, 127
1, 164834, Note_on_c, 5, 53, 127
1, 164834, Note_on_c, 4, 64, 127
1, 165171, Note_off_c, 10, 81, 127
1, 165322, Note_off_c, 4, 64, 127
1, 165322, Note_off_c, 5, 53, 127
1, 165322, Note_off_c, 0, 60, 127
1, 165341, Note_on_c, 11, 70, 127
1, 165341, Note_on_c, 11, 58, 127
1, 165341, Note_on_c, 2, 62, 127
1, 165584, Note_off_c, 11, 70, 127
1, 165587, Note_on_c, 0, 72, 127
1, 165707, Note_off_c, 0, 72, 127
1, 165710, Note_on_c, 10, 69, 127
1, 165830, Note_off_c, 10, 69, 127
1, 165830, Note_off_c, 2, 62, 127
1, 165830, Note_off_c, 11, 58, 127
1, 165833, Note_on_c, 11, 70, 127
1, 165833, Note_on_c, 2, 62, 127
1, 165833, Note_on_c, 11, 58, 127
1, 166076, Note_off_c, 11, 70, 127
1, 166079, Note_on_c, 2, 74, 127
1, 166199, Note_off_c, 2, 74, 127
1, 166202, Note_on_c, 1, 73, 127
1, 166322, Note_off_c, 1, 73, 127
1, 166322, Note_off_c, 11, 58, 127
1, 166322, Note_off_c, 2, 62, 127
1, 166325, Note_on_c, 2, 74, 127
1, 166325, Note_on_c, 11, 58, 127
1, 166325, Note_on_c, 2, 62, 127
1, 166568, Note_off_c, 2, 74, 127
1, 166571, Note_on_c, 4, 76, 127
1, 166691, Note_off_c, 4, 76, 127
1, 166694, Note_on_c, 1, 73, 127
1, 166814, Note_off_c, 1, 73, 127
1, 166814, Note_off_c, 2, 62, 127
1, 166814, Note_off_c, 11, 58, 127
1, 166817, Note_on_c, 2, 74, 127
1, 166817, Note_on_c, 11, 58, 127
1, 166817, Note_on_c, 2, 62, 127
1, 167060, Note_off_c, 2, 74, 127
1, 167063, Note_on_c, 5, 77, 127
1, 167183, Note_off_c, 5, 77, 127
1, 167186, Note_on_c, 4, 76, 127
1, 167306, Note_off_c, 4, 76, 127
1, 167306, Note_off_c, 2, 62, 127
1, 167306, Note_off_c, 11, 58, 127
1, 167309, Note_on_c, 5, 77, 127
1, 167309, Note_on_c, 11, 58, 127
1, 167309, Note_on_c, 2, 62, 127
1, 167552, Note_off_c, 5, 77, 127
1, 167555, Note_on_c, 7, 79, 127
1, 167675, Note_off_c, 7, 79, 127
1, 167678, Note_on_c, 4, 76, 127
1, 167798, Note_off_c, 4, 76, 127
1, 167798, Note_off_c, 2, 62, 127
1, 167798, Note_off_c, 11, 58, 127
1, 167801, Note_on_c, 5, 77, 127
1, 167801, Note_on_c, 2, 62, 127
1, 167801, Note_on_c, 11, 58, 127
1, 168044, Note_off_c, 5, 77, 127
1, 168047, Note_on_c, 10, 81, 127
1, 168167, Note_off_c, 10, 81, 127
1, 168170, Note_on_c, 7, 79, 127
1, 168290, Note_off_c, 7, 79, 127
1, 168290, Note_off_c, 11, 58, 127
1, 168290, Note_off_c, 2, 62, 127
1, 168293, Note_on_c, 7, 79, 127
1, 168293, Note_on_c, 2, 62, 127
1, 168293, Note_on_c, 11, 58, 127
1, 168293, Note_on_c, 4, 52, 127
1, 168536, Note_off_c, 7, 79, 127
1, 168539, Note_on_c, 5, 77, 127
1, 168782, Note_off_c, 5, 77, 127
1, 168782, Note_off_c, 4, 52, 127
1, 168782, Note_off_c, 11, 58, 127
1, 168782, Note_off_c, 2, 62, 127
1, 168785, Note_on_c, 7, 79, 127
1, 168785, Note_on_c, 4, 52, 127
1, 168785, Note_on_c, 2, 62, 127
1, 168785, Note_on_c, 11, 58, 127
1, 169273, Note_off_c, 11, 58, 127
1, 169273, Note_off_c, 2, 62, 127
1, 169273, Note_off_c, 4, 52, 127
1, 169276, Note_on_c, 2, 62, 127
1, 169276, Note_on_c, 4, 52, 127
1, 169276, Note_on_c, 11, 58, 127
1, 169764, Note_off_c, 11, 58, 127
1, 169764, Note_off_c, 4, 52, 127
1, 169764, Note_off_c, 2, 62, 127
1, 169767, Note_on_c, 11, 58, 127
1, 169767, Note_on_c, 2, 62, 127
1, 169767, Note_on_c, 4, 52, 127
1, 170255, Note_off_c, 4, 52, 127
1, 170255, Note_off_c, 2, 62, 127
1, 170255, Note_off_c, 11, 58, 127
1, 170258, Note_on_c, 2, 62, 127
1, 170258, Note_on_c, 4, 52, 127
1, 170258, Note_on_c, 11, 58, 127
1, 170746, Note_off_c, 11, 58, 127
1, 170746, Note_off_c, 4, 52, 127
1, 170746, Note_off_c, 2, 62, 127
1, 170749, Note_on_c, 2, 62, 127
1, 170749, Note_on_c, 4, 52, 127
1, 170749, Note_on_c, 11, 58, 127
1, 171086, Note_off_c, 7, 79, 127
1, 171237, Note_off_c, 11, 58, 127
1, 171237, Note_off_c, 4, 52, 127
1, 171237, Note_off_c, 2, 62, 127
1, 171256, Note_on_c, 1, 61, 127
1, 171256, Note_on_c, 10, 57, 127
1, 171256, Note_on_c, 10, 69, 127
1, 171376, Note_off_c, 10, 69, 127
1, 171379, Note_on_c, 8, 68, 127
1, 171499, Note_off_c, 8, 68, 127
1, 171502, Note_on_c, 10, 69, 127
1, 171622, Note_off_c, 10, 69, 127
1, 171625, Note_on_c, 12, 71, 127
1, 171745, Note_off_c, 12, 71, 127
1, 171745, Note_off_c, 10, 57, 127
1, 171745, Note_off_c, 1, 61, 127
1, 171748, Note_on_c, 1, 61, 127
1, 171748, Note_on_c, 10, 57, 127
1, 171748, Note_on_c, 10, 69, 127
1, 171868, Note_off_c, 10, 69, 127
1, 171871, Note_on_c, 12, 71, 127
1, 171991, Note_off_c, 12, 71, 127
1, 171994, Note_on_c, 1, 73, 127
1, 172114, Note_off_c, 1, 73, 127
1, 172117, Note_on_c, 12, 71, 127
1, 172237, Note_off_c, 12, 71, 127
1, 172237, Note_off_c, 10, 57, 127
1, 172237, Note_off_c, 1, 61, 127
1, 172240, Note_on_c, 1, 61, 127
1, 172240, Note_on_c, 10, 57, 127
1, 172240, Note_on_c, 1, 73, 127
1, 172360, Note_off_c, 1, 73, 127
1, 172363, Note_on_c, 2, 74, 127
1, 172483, Note_off_c, 2, 74, 127
1, 172486, Note_on_c, 1, 73, 127
1, 172606, Note_off_c, 1, 73, 127
1, 172609, Note_on_c, 2, 74, 127
1, 172729, Note_off_c, 2, 74, 127
1, 172729, Note_off_c, 10, 57, 127
1, 172729, Note_off_c, 1, 61, 127
1, 172732, Note_on_c, 1, 61, 127
1, 172732, Note_on_c, 10, 57, 127
1, 172732, Note_on_c, 4, 76, 127
1, 172852, Note_off_c, 4, 76, 127
1, 172855, Note_on_c, 2, 74, 127
1, 172975, Note_off_c, 2, 74, 127
1, 172978, Note_on_c, 4, 76, 127
1, 173098, Note_off_c, 4, 76, 127
1, 173101, Note_on_c, 5, 77, 127
1, 173221, Note_off_c, 5, 77, 127
1, 173221, Note_off_c, 10, 57, 127
1, 173221, Note_off_c, 1, 61, 127
1, 173224, Note_on_c, 1, 61, 127
1, 173224, Note_on_c, 10, 57, 127
1, 173224, Note_on_c, 4, 76, 127
1, 173344, Note_off_c, 4, 76, 127
1, 173347, Note_on_c, 5, 77, 127
1, 173467, Note_off_c, 5, 77, 127
1, 173470, Note_on_c, 7, 79, 127
1, 173590, Note_off_c, 7, 79, 127
1, 173593, Note_on_c, 5, 77, 127
1, 173713, Note_off_c, 5, 77, 127
1, 173713, Note_off_c, 10, 57, 127
1, 173713, Note_off_c, 1, 61, 127
1, 173716, Note_on_c, 1, 61, 127
1, 173716, Note_on_c, 10, 57, 127
1, 173716, Note_on_c, 7, 79, 127
1, 173836, Note_off_c, 7, 79, 127
1, 173839, Note_on_c, 5, 77, 127
1, 173959, Note_off_c, 5, 77, 127
1, 173962, Note_on_c, 7, 79, 127
1, 174082, Note_off_c, 7, 79, 127
1, 174085, Note_on_c, 4, 76, 127
1, 174205, Note_off_c, 4, 76, 127
1, 174205, Note_off_c, 10, 57, 127
1, 174205, Note_off_c, 1, 61, 127
1, 174208, Note_on_c, 2, 50, 127
1, 174208, Note_on_c, 2, 62, 127
1, 174208, Note_on_c, 5, 77, 127
1, 174451, Note_off_c, 5, 77, 127
1, 174454, Note_on_c, 4, 76, 127
1, 174697, Note_off_c, 4, 76, 127
1, 174697, Note_off_c, 2, 62, 127
1, 174697, Note_off_c, 2, 50, 127
1, 174700, Note_on_c, 2, 50, 127
1, 174700, Note_on_c, 2, 62, 127
1, 174700, Note_on_c, 5, 77, 127
1, 175188, Note_off_c, 2, 62, 127
1, 175188, Note_off_c, 2, 50, 127
1, 175207, Note_on_c, 5, 65, 127
1, 175207, Note_on_c, 11, 70, 127
1, 175207, Note_on_c, 2, 62, 127
1, 175365, Note_off_c, 5, 77, 127
1, 175452, Note_on_c, 5, 77, 127
1, 175695, Note_off_c, 5, 77, 127
1, 175695, Note_off_c, 2, 62, 127
1, 175695, Note_off_c, 11, 70, 127
1, 175695, Note_off_c, 5, 65, 127
1, 175698, Note_on_c, 11, 82, 127
1, 175698, Note_on_c, 2, 62, 127
1, 175698, Note_on_c, 5, 65, 127
1, 175698, Note_on_c, 11, 70, 127
1, 175941, Note_off_c, 11, 82, 127
1, 175944, Note_on_c, 10, 81, 127
1, 176187, Note_off_c, 10, 81, 127
1, 176187, Note_off_c, 11, 70, 127
1, 176187, Note_off_c, 5, 65, 127
1, 176187, Note_off_c, 2, 62, 127
1, 176190, Note_on_c, 11, 82, 127
1, 176190, Note_on_c, 2, 62, 127
1, 176190, Note_on_c, 5, 65, 127
1, 176190, Note_on_c, 11, 70, 127
1, 176328, Note_off_c, 11, 82, 127
1, 176435, Note_on_c, 7, 79, 127
1, 176678, Note_off_c, 11, 70, 127
1, 176678, Note_off_c, 5, 65, 127
1, 176678, Note_off_c, 2, 62, 127
1, 176681, Note_on_c, 11, 70, 127
1, 176681, Note_on_c, 2, 62, 127
1, 176681, Note_on_c, 5, 65, 127
1, 176801, Note_off_c, 7, 79, 127
1, 176804, Note_on_c, 5, 77, 127
1, 176924, Note_off_c, 5, 77, 127
1, 176927, Note_on_c, 4, 76, 127
1, 177047, Note_off_c, 4, 76, 127
1, 177050, Note_on_c, 5, 77, 127
1, 177170, Note_off_c, 5, 77, 127
1, 177170, Note_off_c, 5, 65, 127
1, 177170, Note_off_c, 2, 62, 127
1, 177170, Note_off_c, 11, 70, 127
1, 177173, Note_on_c, 5, 77, 127
1, 177173, Note_on_c, 2, 62, 127
1, 177173, Note_on_c, 7, 67, 127
1, 177173, Note_on_c, 11, 70, 127
1, 177262, Note_on_c, 4, 76, 127
1, 177277, Note_off_c, 5, 77, 127
1, 177351, Note_on_c, 5, 77, 127
1, 177366, Note_off_c, 4, 76, 127
1, 177440, Note_on_c, 4, 76, 127
1, 177455, Note_off_c, 5, 77, 127
1, 177659, Note_off_c, 11, 70, 127
1, 177659, Note_off_c, 7, 67, 127
1, 177659, Note_off_c, 2, 62, 127
1, 177662, Note_on_c, 7, 67, 127
1, 177662, Note_on_c, 2, 62, 127
1, 177662, Note_on_c, 11, 70, 127
1, 178150, Note_off_c, 11, 70, 127
1, 178150, Note_off_c, 2, 62, 127
1, 178150, Note_off_c, 7, 67, 127
1, 178153, Note_on_c, 10, 69, 127
1, 178153, Note_on_c, 0, 60, 127
1, 178153, Note_on_c, 4, 64, 127
1, 178342, Note_off_c, 4, 76, 127
1, 178398, Note_on_c, 4, 76, 127
1, 178641, Note_off_c, 4, 76, 127
1, 178641, Note_off_c, 4, 64, 127
1, 178641, Note_off_c, 0, 60, 127
1, 178641, Note_off_c, 10, 69, 127
1, 178644, Note_on_c, 5, 77, 127
1, 178644, Note_on_c, 0, 60, 127
1, 178644, Note_on_c, 10, 69, 127
1, 178644, Note_on_c, 4, 64, 127
1, 178887, Note_off_c, 5, 77, 127
1, 178890, Note_on_c, 10, 81, 127
1, 179010, Note_off_c, 10, 81, 127
1, 179013, Note_on_c, 7, 79, 127
1, 179133, Note_off_c, 7, 79, 127
1, 179133, Note_off_c, 4, 64, 127
1, 179133, Note_off_c, 10, 69, 127
1, 179133, Note_off_c, 0, 60, 127
1, 179136, Note_on_c, 10, 81, 127
1, 179136, Note_on_c, 10, 69, 127
1, 179136, Note_on_c, 4, 64, 127
1, 179136, Note_on_c, 0, 60, 127
1, 179297, Note_off_c, 10, 81, 127
1, 179300, Note_on_c, 5, 77, 127
1, 179461, Note_off_c, 5, 77, 127
1, 179464, Note_on_c, 7, 79, 127
1, 179625, Note_off_c, 7, 79, 127
1, 179625, Note_off_c, 0, 60, 127
1, 179625, Note_off_c, 4, 64, 127
1, 179625, Note_off_c, 10, 69, 127
1, 179628, Note_on_c, 5, 77, 127
1, 179628, Note_on_c, 10, 69, 127
1, 179628, Note_on_c, 0, 60, 127
1, 179628, Note_on_c, 4, 64, 127
1, 179789, Note_off_c, 5, 77, 127
1, 179792, Note_on_c, 4, 76, 127
1, 179953, Note_off_c, 4, 76, 127
1, 179956, Note_on_c, 5, 77, 127
1, 180117, Note_off_c, 5, 77, 127
1, 180117, Note_off_c, 4, 64, 127
1, 180117, Note_off_c, 0, 60, 127
1, 180117, Note_off_c, 10, 69, 127
1, 180120, Note_on_c, 4, 76, 127
1, 180120, Note_on_c, 5, 65, 127
1, 180120, Note_on_c, 10, 69, 127
1, 180120, Note_on_c, 0, 60, 127
1, 180608, Note_off_c, 0, 60, 127
1, 180608, Note_off_c, 10, 69, 127
1, 180608, Note_off_c, 5, 65, 127
1, 180608, Note_off_c, 4, 76, 127
1, 180611, Note_on_c, 2, 74, 127
1, 180611, Note_on_c, 5, 65, 127
1, 180611, Note_on_c, 10, 69, 127
1, 180611, Note_on_c, 0, 60, 127
1, 181099, Note_off_c, 0, 60, 127
1, 181099, Note_off_c, 10, 69, 127
1, 181099, Note_off_c, 5, 65, 127
1, 181102, Note_on_c, 11, 58, 127
1, 181102, Note_on_c, 7, 67, 127
1, 181102, Note_on_c, 2, 62, 127
1, 181222, Note_off_c, 2, 74, 127
1, 181225, Note_on_c, 2, 74, 127
1, 181345, Note_off_c, 2, 74, 127
1, 181348, Note_on_c, 4, 76, 127
1, 181468, Note_off_c, 4, 76, 127
1, 181471, Note_on_c, 5, 77, 127
1, 181591, Note_off_c, 5, 77, 127
1, 181591, Note_off_c, 2, 62, 127
1, 181591, Note_off_c, 7, 67, 127
1, 181591, Note_off_c, 11, 58, 127
1, 181594, Note_on_c, 7, 79, 127
1, 181594, Note_on_c, 7, 67, 127
1, 181594, Note_on_c, 11, 58, 127
1, 181594, Note_on_c, 2, 62, 127
1, 181714, Note_off_c, 7, 79, 127
1, 181717, Note_on_c, 5, 77, 127
1, 181837, Note_off_c, 5, 77, 127
1, 181840, Note_on_c, 4, 76, 127
1, 181960, Note_off_c, 4, 76, 127
1, 181963, Note_on_c, 5, 77, 127
1, 182083, Note_off_c, 5, 77, 127
1, 182083, Note_off_c, 2, 62, 127
1, 182083, Note_off_c, 11, 58, 127
1, 182083, Note_off_c, 7, 67, 127
1, 182086, Note_on_c, 7, 79, 127
1, 182086, Note_on_c, 7, 67, 127
1, 182086, Note_on_c, 11, 58, 127
1, 182086, Note_on_c, 2, 62, 127
1, 182329, Note_off_c, 7, 79, 127
1, 182332, Note_on_c, 5, 77, 127
1, 182452, Note_off_c, 5, 77, 127
1, 182455, Note_on_c, 4, 76, 127
1, 182575, Note_off_c, 4, 76, 127
1, 182575, Note_off_c, 2, 62, 127
1, 182575, Note_off_c, 11, 58, 127
1, 182575, Note_off_c, 7, 67, 127
1, 182578, Note_on_c, 5, 77, 127
1, 182578, Note_on_c, 7, 67, 127
1, 182578, Note_on_c, 11, 58, 127
1, 182578, Note_on_c, 2, 62, 127
1, 182821, Note_off_c, 5, 77, 127
1, 182824, Note_on_c, 7, 79, 127
1, 183067, Note_off_c, 7, 79, 127
1, 183067, Note_off_c, 2, 62, 127
1, 183067, Note_off_c, 11, 58, 127
1, 183067, Note_off_c, 7, 67, 127
1, 183070, Note_on_c, 2, 74, 127
1, 183070, Note_on_c, 4, 64, 127
1, 183070, Note_on_c, 7, 67, 127
1, 183070, Note_on_c, 10, 57, 127
1, 183152, Note_on_c, 1, 73, 127
1, 183172, Note_off_c, 2, 74, 127
1, 183233, Note_on_c, 2, 74, 127
1, 183253, Note_off_c, 1, 73, 127
1, 183314, Note_on_c, 1, 73, 127
1, 183334, Note_off_c, 2, 74, 127
1, 183556, Note_off_c, 10, 57, 127
1, 183556, Note_off_c, 7, 67, 127
1, 183556, Note_off_c, 4, 64, 127
1, 183559, Note_on_c, 4, 64, 127
1, 183559, Note_on_c, 7, 67, 127
1, 183559, Note_on_c, 10, 57, 127
1, 184047, Note_off_c, 10, 57, 127
1, 184047, Note_off_c, 7, 67, 127
1, 184047, Note_off_c, 4, 64, 127
1, 184050, Note_on_c, 4, 64, 127
1, 184050, Note_on_c, 7, 67, 127
1, 184050, Note_on_c, 10, 45, 127
1, 184050, Note_on_c, 10, 57, 127
1, 184538, Note_off_c, 10, 57, 127
1, 184538, Note_off_c, 10, 45, 127
1, 184538, Note_off_c, 7, 67, 127
1, 184538, Note_off_c, 4, 64, 127
1, 184541, Note_on_c, 4, 64, 127
1, 184541, Note_on_c, 7, 67, 127
1, 184541, Note_on_c, 10, 69, 127
1, 184541, Note_on_c, 10, 45, 127
1, 184541, Note_on_c, 10, 57, 127
1, 185029, Note_off_c, 10, 57, 127
1, 185029, Note_off_c, 10, 45, 127
1, 185029, Note_off_c, 10, 69, 127
1, 185029, Note_off_c, 7, 67, 127
1, 185029, Note_off_c, 4, 64, 127
1, 185032, Note_on_c, 10, 69, 127
1, 185032, Note_on_c, 4, 64, 127
1, 185032, Note_on_c, 7, 67, 127
1, 185032, Note_on_c, 10, 45, 127
1, 185032, Note_on_c, 10, 57, 127
1, 185275, Note_off_c, 1, 73, 127
1, 185520, Note_off_c, 10, 57, 127
1, 185520, Note_off_c, 10, 45, 127
1, 185520, Note_off_c, 7, 67, 127
1, 185520, Note_off_c, 4, 64, 127
1, 185520, Note_off_c, 10, 69, 127
1, 185523, Note_on_c, 4, 64, 127
1, 185523, Note_on_c, 7, 67, 127
1, 185523, Note_on_c, 10, 69, 127
1, 185523, Note_on_c, 10, 57, 127
1, 185523, Note_on_c, 10, 45, 127
1, 186011, Note_off_c, 10, 45, 127
1, 186011, Note_off_c, 10, 57, 127
1, 186011, Note_off_c, 10, 69, 127
1, 186011, Note_off_c, 7, 67, 127
1, 186011, Note_off_c, 4, 64, 127
1, 186030, Note_on_c, 10, 57, 127
1, 186030, Note_on_c, 2, 50, 127
1, 186030, Note_on_c, 10, 69, 127
1, 186030, Note_on_c, 0, 72, 127
1, 186030, Note_on_c, 6, 78, 127
1, 186518, Note_off_c, 6, 78, 127
1, 186518, Note_off_c, 0, 72, 127
1, 186518, Note_off_c, 10, 69, 127
1, 186518, Note_off_c, 10, 57, 127
1, 186521, Note_on_c, 2, 62, 127
1, 186521, Note_on_c, 10, 81, 127
1, 187001, Note_off_c, 2, 50, 127
1, 187009, Note_off_c, 10, 81, 127
1, 187009, Note_off_c, 2, 62, 127
1, 187012, Note_on_c, 2, 62, 127
1, 187012, Note_on_c, 10, 69, 127
1, 187012, Note_on_c, 6, 66, 127
1, 187012, Note_on_c, 10, 81, 127
1, 187500, Note_off_c, 10, 81, 127
1, 187500, Note_off_c, 6, 66, 127
1, 187500, Note_off_c, 10, 69, 127
1, 187500, Note_off_c, 2, 62, 127
1, 187503, Note_on_c, 6, 66, 127
1, 187503, Note_on_c, 2, 62, 127
1, 187503, Note_on_c, 10, 69, 127
1, 187503, Note_on_c, 6, 78, 127
1, 187991, Note_off_c, 6, 78, 127
1, 187991, Note_off_c, 10, 69, 127
1, 187991, Note_off_c, 2, 62, 127
1, 187991, Note_off_c, 6, 66, 127
1, 187994, Note_on_c, 2, 62, 127
1, 187994, Note_on_c, 6, 66, 127
1, 187994, Note_on_c, 10, 69, 127
1, 187994, Note_on_c, 0, 72, 127
1, 188237, Note_off_c, 0, 72, 127
1, 188240, Note_on_c, 10, 81, 127
1, 188483, Note_off_c, 10, 81, 127
1, 188483, Note_off_c, 10, 69, 127
1, 188483, Note_off_c, 6, 66, 127
1, 188483, Note_off_c, 2, 62, 127
1, 188486, Note_on_c, 6, 66, 127
1, 188486, Note_on_c, 2, 62, 127
1, 188486, Note_on_c, 10, 69, 127
1, 188486, Note_on_c, 6, 78, 127
1, 188729, Note_off_c, 6, 78, 127
1, 188732, Note_on_c, 0, 72, 127
1, 188975, Note_off_c, 0, 72, 127
1, 188975, Note_off_c, 10, 69, 127
1, 188975, Note_off_c, 2, 62, 127
1, 188975, Note_off_c, 6, 66, 127
1, 188978, Note_on_c, 7, 55, 127
1, 188978, Note_on_c, 2, 62, 127
1, 188978, Note_on_c, 7, 67, 127
1, 188978, Note_on_c, 0, 72, 127
1, 189466, Note_off_c, 7, 67, 127
1, 189466, Note_off_c, 2, 62, 127
1, 189466, Note_off_c, 7, 55, 127
1, 189469, Note_on_c, 7, 55, 127
1, 189469, Note_on_c, 2, 62, 127
1, 189469, Note_on_c, 7, 67, 127
1, 189712, Note_off_c, 0, 72, 127
1, 189730, Note_on_c, 12, 71, 127
1, 189845, Note_on_c, 0, 72, 127
1, 189850, Note_off_c, 12, 71, 127
1, 189957, Note_off_c, 7, 67, 127
1, 189957, Note_off_c, 2, 62, 127
1, 189957, Note_off_c, 7, 55, 127
1, 189960, Note_on_c, 7, 55, 127
1, 189960, Note_on_c, 2, 62, 127
1, 189960, Note_on_c, 7, 67, 127
1, 189960, Note_on_c, 12, 71, 127
1, 189965, Note_off_c, 0, 72, 127
1, 190448, Note_off_c, 7, 67, 127
1, 190448, Note_off_c, 2, 62, 127
1, 190448, Note_off_c, 7, 55, 127
1, 190451, Note_on_c, 7, 55, 127
1, 190451, Note_on_c, 2, 62, 127
1, 190451, Note_on_c, 7, 67, 127
1, 190939, Note_off_c, 7, 67, 127
1, 190939, Note_off_c, 2, 62, 127
1, 190939, Note_off_c, 7, 55, 127
1, 190942, Note_on_c, 7, 55, 127
1, 190942, Note_on_c, 2, 62, 127
1, 190942, Note_on_c, 7, 67, 127
1, 191430, Note_off_c, 7, 67, 127
1, 191430, Note_off_c, 2, 62, 127
1, 191430, Note_off_c, 7, 55, 127
1, 191430, Note_off_c, 12, 71, 127
1, 191433, Note_on_c, 7, 55, 127
1, 191433, Note_on_c, 2, 62, 127
1, 191433, Note_on_c, 7, 67, 127
1, 191921, Note_off_c, 7, 67, 127
1, 191921, Note_off_c, 2, 62, 127
1, 191921, Note_off_c, 7, 55, 127
1, 191924, Note_on_c, 4, 64, 127
1, 191924, Note_on_c, 8, 68, 127
1, 191924, Note_on_c, 12, 71, 127
1, 191924, Note_on_c, 8, 80, 127
1, 192167, Note_off_c, 8, 80, 127
1, 192170, Note_on_c, 12, 83, 127
1, 192413, Note_off_c, 12, 83, 127
1, 192413, Note_off_c, 12, 71, 127
1, 192413, Note_off_c, 8, 68, 127
1, 192413, Note_off_c, 4, 64, 127
1, 192416, Note_on_c, 8, 68, 127
1, 192416, Note_on_c, 4, 64, 127
1, 192416, Note_on_c, 12, 71, 127
1, 192416, Note_on_c, 8, 80, 127
1, 192659, Note_off_c, 8, 80, 127
1, 192662, Note_on_c, 10, 81, 127
1, 192905, Note_off_c, 10, 81, 127
1, 192905, Note_off_c, 12, 71, 127
1, 192905, Note_off_c, 4, 64, 127
1, 192905, Note_off_c, 8, 68, 127
1, 192908, Note_on_c, 8, 68, 127
1, 192908, Note_on_c, 4, 64, 127
1, 192908, Note_on_c, 12, 71, 127
1, 192908, Note_on_c, 12, 83, 127
1, 193151, Note_off_c, 12, 83, 127
1, 193154, Note_on_c, 8, 80, 127
1, 193397, Note_off_c, 8, 80, 127
1, 193397, Note_off_c, 12, 71, 127
1, 193397, Note_off_c, 4, 64, 127
1, 193397, Note_off_c, 8, 68, 127
1, 193400, Note_on_c, 8, 68, 127
1, 193400, Note_on_c, 12, 71, 127
1, 193400, Note_on_c, 4, 64, 127
1, 193400, Note_on_c, 4, 76, 127
1, 193643, Note_off_c, 4, 76, 127
1, 193646, Note_on_c, 12, 83, 127
1, 193889, Note_off_c, 12, 83, 127
1, 193889, Note_off_c, 4, 64, 127
1, 193889, Note_off_c, 12, 71, 127
1, 193889, Note_off_c, 8, 68, 127
1, 193892, Note_on_c, 4, 64, 127
1, 193892, Note_on_c, 8, 68, 127
1, 193892, Note_on_c, 12, 71, 127
1, 193892, Note_on_c, 8, 80, 127
1, 194135, Note_off_c, 8, 80, 127
1, 194138, Note_on_c, 4, 76, 127
1, 194381, Note_off_c, 4, 76, 127
1, 194381, Note_off_c, 12, 71, 127
1, 194381, Note_off_c, 8, 68, 127
1, 194381, Note_off_c, 4, 64, 127
1, 194384, Note_on_c, 8, 68, 127
1, 194384, Note_on_c, 4, 64, 127
1, 194384, Note_on_c, 12, 71, 127
1, 194384, Note_on_c, 2, 74, 127
1, 194627, Note_off_c, 2, 74, 127
1, 194630, Note_on_c, 12, 83, 127
1, 194873, Note_off_c, 12, 83, 127
1, 194873, Note_off_c, 12, 71, 127
1, 194873, Note_off_c, 4, 64, 127
1, 194873, Note_off_c, 8, 68, 127
1, 194876, Note_on_c, 4, 64, 127
1, 194876, Note_on_c, 10, 57, 127
1, 194876, Note_on_c, 10, 69, 127
1, 194876, Note_on_c, 2, 74, 127
1, 195364, Note_off_c, 2, 74, 127
1, 195364, Note_off_c, 10, 69, 127
1, 195364, Note_off_c, 10, 57, 127
1, 195364, Note_off_c, 4, 64, 127
1, 195367, Note_on_c, 4, 64, 127
1, 195367, Note_on_c, 10, 69, 127
1, 195367, Note_on_c, 10, 57, 127
1, 195367, Note_on_c, 0, 72, 127
1, 195724, Note_off_c, 0, 72, 127
1, 195854, Note_off_c, 10, 57, 127
1, 195854, Note_off_c, 10, 69, 127
1, 195854, Note_off_c, 4, 64, 127
1, 195857, Note_on_c, 0, 72, 127
1, 195857, Note_on_c, 10, 69, 127
1, 195857, Note_on_c, 5, 77, 127
1, 196345, Note_off_c, 5, 77, 127
1, 196345, Note_off_c, 10, 69, 127
1, 196345, Note_off_c, 0, 72, 127
1, 196348, Note_on_c, 0, 72, 127
1, 196348, Note_on_c, 10, 69, 127
1, 196348, Note_on_c, 4, 76, 127
1, 196836, Note_off_c, 4, 76, 127
1, 196836, Note_off_c, 10, 69, 127
1, 196836, Note_off_c, 0, 72, 127
1, 196839, Note_on_c, 0, 72, 127
1, 196839, Note_on_c, 10, 69, 127
1, 196839, Note_on_c, 4, 76, 127
1, 197327, Note_off_c, 4, 76, 127
1, 197327, Note_off_c, 10, 69, 127
1, 197327, Note_off_c, 0, 72, 127
1, 197330, Note_on_c, 0, 72, 127
1, 197330, Note_on_c, 10, 69, 127
1, 197330, Note_on_c, 5, 77, 127
1, 197450, Note_off_c, 5, 77, 127
1, 197453, Note_on_c, 4, 76, 127
1, 197573, Note_off_c, 4, 76, 127
1, 197576, Note_on_c, 5, 77, 127
1, 197819, Note_off_c, 10, 69, 127
1, 197819, Note_off_c, 0, 72, 127
1, 197822, Note_on_c, 11, 70, 127
1, 197822, Note_on_c, 7, 67, 127
1, 198062, Note_off_c, 5, 77, 127
1, 198310, Note_off_c, 7, 67, 127
1, 198310, Note_off_c, 11, 70, 127
1, 198313, Note_on_c, 11, 70, 127
1, 198313, Note_on_c, 7, 67, 127
1, 198313, Note_on_c, 7, 79, 127
1, 198556, Note_off_c, 7, 79, 127
1, 198559, Note_on_c, 5, 77, 127
1, 198802, Note_off_c, 5, 77, 127
1, 198802, Note_off_c, 7, 67, 127
1, 198802, Note_off_c, 11, 70, 127
1, 198805, Note_on_c, 11, 70, 127
1, 198805, Note_on_c, 7, 67, 127
1, 198805, Note_on_c, 4, 76, 127
1, 199293, Note_off_c, 4, 76, 127
1, 199293, Note_off_c, 7, 67, 127
1, 199293, Note_off_c, 11, 70, 127
1, 199296, Note_on_c, 11, 70, 127
1, 199296, Note_on_c, 7, 67, 127
1, 199296, Note_on_c, 5, 77, 127
1, 199539, Note_off_c, 5, 77, 127
1, 199542, Note_on_c, 2, 74, 127
1, 199785, Note_off_c, 2, 74, 127
1, 199785, Note_off_c, 7, 67, 127
1, 199785, Note_off_c, 11, 70, 127
1, 199788, Note_on_c, 11, 70, 127
1, 199788, Note_on_c, 7, 67, 127
1, 199788, Note_on_c, 4, 76, 127
1, 200031, Note_off_c, 4, 76, 127
1, 200034, Note_on_c, 2, 74, 127
1, 200277, Note_off_c, 2, 74, 127
1, 200277, Note_off_c, 7, 67, 127
1, 200277, Note_off_c, 11, 70, 127
1, 200280, Note_on_c, 11, 70, 127
1, 200280, Note_on_c, 7, 67, 127
1, 200280, Note_on_c, 4, 76, 127
1, 200765, Note_off_c, 4, 76, 127
1, 200768, Note_off_c, 7, 67, 127
1, 200768, Note_off_c, 11, 70, 127
1, 200771, Note_on_c, 10, 69, 127
1, 200771, Note_on_c, 5, 65, 127
1, 201016, Note_on_c, 7, 79, 127
1, 201259, Note_off_c, 7, 79, 127
1, 201259, Note_off_c, 5, 65, 127
1, 201259, Note_off_c, 10, 69, 127
1, 201262, Note_on_c, 10, 69, 127
1, 201262, Note_on_c, 5, 65, 127
1, 201262, Note_on_c, 5, 77, 127
1, 201505, Note_off_c, 5, 77, 127
1, 201508, Note_on_c, 4, 76, 127
1, 201751, Note_off_c, 4, 76, 127
1, 201751, Note_off_c, 5, 65, 127
1, 201751, Note_off_c, 10, 69, 127
1, 201754, Note_on_c, 10, 69, 127
1, 201754, Note_on_c, 5, 65, 127
1, 201754, Note_on_c, 2, 74, 127
1, 201997, Note_off_c, 2, 74, 127
1, 202000, Note_on_c, 1, 73, 127
1, 202243, Note_off_c, 1, 73, 127
1, 202243, Note_off_c, 5, 65, 127
1, 202243, Note_off_c, 10, 69, 127
1, 202246, Note_on_c, 10, 69, 127
1, 202246, Note_on_c, 5, 65, 127
1, 202246, Note_on_c, 4, 76, 127
1, 202489, Note_off_c, 4, 76, 127
1, 202492, Note_on_c, 2, 74, 127
1, 202735, Note_off_c, 2, 74, 127
1, 202735, Note_off_c, 5, 65, 127
1, 202735, Note_off_c, 10, 69, 127
1, 202738, Note_on_c, 5, 65, 127
1, 202738, Note_on_c, 10, 69, 127
1, 202738, Note_on_c, 2, 74, 127
1, 202858, Note_off_c, 2, 74, 127
1, 202861, Note_on_c, 1, 73, 127
1, 202981, Note_off_c, 1, 73, 127
1, 202984, Note_on_c, 2, 74, 127
1, 203227, Note_off_c, 10, 69, 127
1, 203227, Note_off_c, 5, 65, 127
1, 203230, Note_on_c, 10, 69, 127
1, 203230, Note_on_c, 5, 65, 127
1, 203718, Note_off_c, 5, 65, 127
1, 203718, Note_off_c, 10, 69, 127
1, 203718, Note_off_c, 2, 74, 127
1, 203721, Note_on_c, 4, 64, 127
1, 203721, Note_on_c, 7, 67, 127
1, 203721, Note_on_c, 2, 74, 127
1, 203964, Note_off_c, 2, 74, 127
1, 203967, Note_on_c, 0, 72, 127
1, 204210, Note_off_c, 0, 72, 127
1, 204210, Note_off_c, 7, 67, 127
1, 204210, Note_off_c, 4, 64, 127
1, 204213, Note_on_c, 7, 67, 127
1, 204213, Note_on_c, 4, 64, 127
1, 204213, Note_on_c, 12, 71, 127
1, 204456, Note_off_c, 12, 71, 127
1, 204459, Note_on_c, 0, 72, 127
1, 204702, Note_off_c, 0, 72, 127
1, 204702, Note_off_c, 4, 64, 127
1, 204702, Note_off_c, 7, 67, 127
1, 204705, Note_on_c, 7, 67, 127
1, 204705, Note_on_c, 4, 64, 127
1, 204705, Note_on_c, 2, 74, 127
1, 204948, Note_off_c, 2, 74, 127
1, 204951, Note_on_c, 4, 76, 127
1, 205194, Note_off_c, 4, 76, 127
1, 205194, Note_off_c, 4, 64, 127
1, 205194, Note_off_c, 7, 67, 127
1, 205197, Note_on_c, 7, 67, 127
1, 205197, Note_on_c, 4, 64, 127
1, 205197, Note_on_c, 5, 77, 127
1, 205440, Note_off_c, 5, 77, 127
1, 205443, Note_on_c, 4, 76, 127
1, 205686, Note_off_c, 4, 76, 127
1, 205686, Note_off_c, 4, 64, 127
1, 205686, Note_off_c, 7, 67, 127
1, 205689, Note_on_c, 7, 67, 127
1, 205689, Note_on_c, 4, 64, 127
1, 205689, Note_on_c, 2, 74, 127
1, 206098, Note_off_c, 2, 74, 127
1, 206177, Note_off_c, 4, 64, 127
1, 206177, Note_off_c, 7, 67, 127
1, 206180, Note_on_c, 7, 67, 127
1, 206180, Note_on_c, 4, 64, 127
1, 206180, Note_on_c, 0, 72, 127
1, 206668, Note_off_c, 4, 64, 127
1, 206668, Note_off_c, 7, 67, 127
1, 206671, Note_on_c, 5, 65, 127
1, 206671, Note_on_c, 2, 62, 127
1, 206914, Note_off_c, 0, 72, 127
1, 206917, Note_on_c, 11, 70, 127
1, 207160, Note_off_c, 11, 70, 127
1, 207160, Note_off_c, 2, 62, 127
1, 207160, Note_off_c, 5, 65, 127
1, 207163, Note_on_c, 5, 65, 127
1, 207163, Note_on_c, 2, 62, 127
1, 207163, Note_on_c, 0, 72, 127
1, 207406, Note_off_c, 0, 72, 127
1, 207409, Note_on_c, 10, 69, 127
1, 207652, Note_off_c, 10, 69, 127
1, 207652, Note_off_c, 2, 62, 127
1, 207652, Note_off_c, 5, 65, 127
1, 207655, Note_on_c, 5, 65, 127
1, 207655, Note_on_c, 2, 62, 127
1, 207655, Note_on_c, 11, 70, 127
1, 207898, Note_off_c, 11, 70, 127
1, 207901, Note_on_c, 0, 72, 127
1, 208144, Note_off_c, 0, 72, 127
1, 208144, Note_off_c, 2, 62, 127
1, 208144, Note_off_c, 5, 65, 127
1, 208147, Note_on_c, 5, 65, 127
1, 208147, Note_on_c, 2, 62, 127
1, 208147, Note_on_c, 2, 74, 127
1, 208390, Note_off_c, 2, 74, 127
1, 208393, Note_on_c, 4, 76, 127
1, 208636, Note_off_c, 4, 76, 127
1, 208636, Note_off_c, 2, 62, 127
1, 208636, Note_off_c, 5, 65, 127
1, 208639, Note_on_c, 2, 62, 127
1, 208639, Note_on_c, 11, 70, 127
1, 208639, Note_on_c, 5, 65, 127
1, 208639, Note_on_c, 5, 77, 127
1, 208882, Note_off_c, 5, 77, 127
1, 208885, Note_on_c, 7, 79, 127
1, 209128, Note_off_c, 7, 79, 127
1, 209128, Note_off_c, 5, 65, 127
1, 209128, Note_off_c, 11, 70, 127
1, 209128, Note_off_c, 2, 62, 127
1, 209131, Note_on_c, 11, 70, 127
1, 209131, Note_on_c, 5, 65, 127
1, 209131, Note_on_c, 2, 62, 127
1, 209131, Note_on_c, 10, 81, 127
1, 209374, Note_off_c, 10, 81, 127
1, 209377, Note_on_c, 11, 82, 127
1, 209620, Note_off_c, 11, 82, 127
1, 209620, Note_off_c, 2, 62, 127
1, 209620, Note_off_c, 5, 65, 127
1, 209620, Note_off_c, 11, 70, 127
1, 209623, Note_on_c, 7, 67, 127
1, 209623, Note_on_c, 11, 70, 127
1, 209623, Note_on_c, 0, 60, 127
1, 209623, Note_on_c, 5, 77, 127
1, 209743, Note_off_c, 5, 77, 127
1, 209746, Note_on_c, 4, 76, 127
1, 209866, Note_off_c, 4, 76, 127
1, 209869, Note_on_c, 5, 77, 127
1, 209989, Note_off_c, 5, 77, 127
1, 209992, Note_on_c, 4, 76, 127
1, 210112, Note_off_c, 0, 60, 127
1, 210112, Note_off_c, 11, 70, 127
1, 210112, Note_off_c, 7, 67, 127
1, 210115, Note_on_c, 7, 67, 127
1, 210115, Note_on_c, 0, 60, 127
1, 210115, Note_on_c, 11, 70, 127
1, 210603, Note_off_c, 11, 70, 127
1, 210603, Note_off_c, 0, 60, 127
1, 210603, Note_off_c, 7, 67, 127
1, 210606, Note_on_c, 11, 70, 127
1, 210606, Note_on_c, 7, 67, 127
1, 210606, Note_on_c, 0, 60, 127
1, 210708, Note_off_c, 4, 76, 127
1, 210728, Note_on_c, 2, 74, 127
1, 210848, Note_off_c, 2, 74, 127
1, 210851, Note_on_c, 0, 72, 127
1, 210971, Note_off_c, 0, 72, 127
1, 210974, Note_on_c, 2, 74, 127
1, 211094, Note_off_c, 2, 74, 127
1, 211094, Note_off_c, 0, 60, 127
1, 211094, Note_off_c, 7, 67, 127
1, 211094, Note_off_c, 11, 70, 127
1, 211097, Note_on_c, 7, 67, 127
1, 211097, Note_on_c, 11, 70, 127
1, 211097, Note_on_c, 0, 60, 127
1, 211097, Note_on_c, 4, 76, 127
1, 211217, Note_off_c, 4, 76, 127
1, 211220, Note_on_c, 2, 74, 127
1, 211340, Note_off_c, 2, 74, 127
1, 211343, Note_on_c, 5, 77, 127
1, 211463, Note_off_c, 5, 77, 127
1, 211466, Note_on_c, 4, 76, 127
1, 211586, Note_off_c, 4, 76, 127
1, 211586, Note_off_c, 0, 60, 127
1, 211586, Note_off_c, 11, 70, 127
1, 211586, Note_off_c, 7, 67, 127
1, 211589, Note_on_c, 10, 69, 127
1, 211589, Note_on_c, 5, 65, 127
1, 211589, Note_on_c, 2, 62, 127
1, 211589, Note_on_c, 5, 77, 127
1, 211750, Note_off_c, 5, 77, 127
1, 211753, Note_on_c, 4, 76, 127
1, 211914, Note_off_c, 4, 76, 127
1, 211917, Note_on_c, 5, 77, 127
1, 212078, Note_off_c, 2, 62, 127
1, 212078, Note_off_c, 5, 65, 127
1, 212078, Note_off_c, 10, 69, 127
1, 212081, Note_on_c, 10, 69, 127
1, 212081, Note_on_c, 5, 65, 127
1, 212081, Note_on_c, 2, 62, 127
1, 212569, Note_off_c, 2, 62, 127
1, 212569, Note_off_c, 5, 65, 127
1, 212569, Note_off_c, 10, 69, 127
1, 212572, Note_on_c, 7, 67, 127
1, 212572, Note_on_c, 2, 62, 127
1, 212572, Note_on_c, 11, 58, 127
1, 212697, Note_off_c, 5, 77, 127
1, 212740, Note_on_c, 7, 79, 127
1, 212842, Note_off_c, 7, 79, 127
1, 212847, Note_on_c, 5, 77, 127
1, 212949, Note_off_c, 5, 77, 127
1, 212954, Note_on_c, 4, 76, 127
1, 213056, Note_off_c, 4, 76, 127
1, 213059, Note_off_c, 7, 67, 127
1, 213062, Note_on_c, 5, 65, 127
1, 213062, Note_on_c, 5, 77, 127
1, 213386, Note_off_c, 5, 77, 127
1, 213389, Note_on_c, 7, 79, 127
1, 213542, Note_off_c, 11, 58, 127
1, 213542, Note_off_c, 2, 62, 127
1, 213550, Note_off_c, 7, 79, 127
1, 213553, Note_on_c, 0, 60, 127
1, 213553, Note_on_c, 10, 81, 127
1, 213962, Note_off_c, 10, 81, 127
1, 213962, Note_on_c, 7, 79, 127
1, 214044, Note_on_c, 10, 81, 127
1, 214064, Note_off_c, 7, 79, 127
1, 214125, Note_on_c, 7, 79, 127
1, 214145, Note_off_c, 10, 81, 127
1, 214206, Note_on_c, 10, 81, 127
1, 214226, Note_off_c, 7, 79, 127
1, 214287, Note_on_c, 7, 79, 127
1, 214307, Note_off_c, 10, 81, 127
1, 214368, Note_on_c, 10, 81, 127
1, 214388, Note_off_c, 7, 79, 127
1, 214449, Note_on_c, 7, 79, 127
1, 214469, Note_off_c, 10, 81, 127
1, 214528, Note_off_c, 5, 65, 127
1, 214531, Note_on_c, 4, 64, 127
1, 214687, Note_off_c, 7, 79, 127
1, 214776, Note_on_c, 5, 77, 127
1, 215019, Note_off_c, 5, 77, 127
1, 215022, Note_on_c, 7, 79, 127
1, 215142, Note_off_c, 7, 79, 127
1, 215145, Note_on_c, 4, 76, 127
1, 215265, Note_off_c, 4, 76, 127
1, 215268, Note_on_c, 5, 77, 127
1, 215350, Note_on_c, 2, 74, 127
1, 215370, Note_off_c, 5, 77, 127
1, 215390, Note_off_c, 0, 60, 127
1, 215400, Note_off_c, 4, 64, 127
1, 215431, Note_on_c, 3, 75, 127
1, 215451, Note_off_c, 2, 74, 127
1, 215502, Note_off_c, 3, 75, 127
1, 215512, Note_on_c, 7, 67, 127
1, 215512, Note_on_c, 7, 55, 127
1, 215512, Note_on_c, 11, 58, 127
1, 215512, Note_on_c, 3, 75, 127
1, 215632, Note_off_c, 3, 75, 127
1, 215635, Note_on_c, 2, 74, 127
1, 215755, Note_off_c, 2, 74, 127
1, 215758, Note_on_c, 3, 75, 127
1, 216001, Note_off_c, 11, 58, 127
1, 216001, Note_off_c, 7, 55, 127
1, 216001, Note_off_c, 7, 67, 127
1, 216004, Note_on_c, 7, 67, 127
1, 216004, Note_on_c, 7, 55, 127
1, 216004, Note_on_c, 11, 58, 127
1, 216492, Note_off_c, 11, 58, 127
1, 216492, Note_off_c, 7, 55, 127
1, 216492, Note_off_c, 7, 67, 127
1, 216495, Note_on_c, 7, 55, 127
1, 216495, Note_on_c, 7, 67, 127
1, 216495, Note_on_c, 11, 58, 127
1, 216983, Note_off_c, 11, 58, 127
1, 216983, Note_off_c, 7, 67, 127
1, 216983, Note_off_c, 7, 55, 127
1, 216983, Note_off_c, 3, 75, 127
1, 216986, Note_on_c, 11, 58, 127
1, 216986, Note_on_c, 7, 67, 127
1, 216986, Note_on_c, 7, 55, 127
1, 216986, Note_on_c, 7, 79, 127
1, 217474, Note_off_c, 7, 79, 127
1, 217474, Note_off_c, 7, 55, 127
1, 217474, Note_off_c, 7, 67, 127
1, 217474, Note_off_c, 11, 58, 127
1, 217477, Note_on_c, 7, 55, 127
1, 217477, Note_on_c, 11, 58, 127
1, 217477, Note_on_c, 7, 67, 127
1, 217477, Note_on_c, 11, 82, 127
1, 217720, Note_off_c, 11, 82, 127
1, 217723, Note_on_c, 7, 79, 127
1, 217966, Note_off_c, 7, 79, 127
1, 217966, Note_off_c, 7, 67, 127
1, 217966, Note_off_c, 11, 58, 127
1, 217966, Note_off_c, 7, 55, 127
1, 217969, Note_on_c, 7, 67, 127
1, 217969, Note_on_c, 7, 55, 127
1, 217969, Note_on_c, 11, 58, 127
1, 217969, Note_on_c, 5, 77, 127
1, 218212, Note_off_c, 5, 77, 127
1, 218215, Note_on_c, 3, 75, 127
1, 218458, Note_off_c, 3, 75, 127
1, 218458, Note_off_c, 11, 58, 127
1, 218458, Note_off_c, 7, 55, 127
1, 218458, Note_off_c, 7, 67, 127
1, 218461, Note_on_c, 10, 57, 127
1, 218461, Note_on_c, 0, 60, 127
1, 218461, Note_on_c, 5, 65, 127
1, 218461, Note_on_c, 3, 75, 127
1, 218622, Note_off_c, 3, 75, 127
1, 218625, Note_on_c, 2, 74, 127
1, 218786, Note_off_c, 2, 74, 127
1, 218789, Note_on_c, 3, 75, 127
1, 218950, Note_off_c, 5, 65, 127
1, 218950, Note_off_c, 0, 60, 127
1, 218950, Note_off_c, 10, 57, 127
1, 218953, Note_on_c, 5, 65, 127
1, 218953, Note_on_c, 10, 57, 127
1, 218953, Note_on_c, 0, 60, 127
1, 219441, Note_off_c, 0, 60, 127
1, 219441, Note_off_c, 10, 57, 127
1, 219441, Note_off_c, 5, 65, 127
1, 219444, Note_on_c, 10, 57, 127
1, 219444, Note_on_c, 5, 65, 127
1, 219444, Note_on_c, 0, 60, 127
1, 219684, Note_off_c, 3, 75, 127
1, 219689, Note_on_c, 7, 79, 127
1, 219932, Note_off_c, 7, 79, 127
1, 219932, Note_off_c, 0, 60, 127
1, 219932, Note_off_c, 5, 65, 127
1, 219932, Note_off_c, 10, 57, 127
1, 219935, Note_on_c, 10, 57, 127
1, 219935, Note_on_c, 0, 60, 127
1, 219935, Note_on_c, 5, 65, 127
1, 219935, Note_on_c, 10, 81, 127
1, 220178, Note_off_c, 10, 81, 127
1, 220181, Note_on_c, 11, 82, 127
1, 220424, Note_off_c, 11, 82, 127
1, 220424, Note_off_c, 5, 65, 127
1, 220424, Note_off_c, 0, 60, 127
1, 220424, Note_off_c, 10, 57, 127
1, 220427, Note_on_c, 0, 60, 127
1, 220427, Note_on_c, 5, 65, 127
1, 220427, Note_on_c, 10, 57, 127
1, 220427, Note_on_c, 0, 84, 127
1, 220670, Note_off_c, 0, 84, 127
1, 220673, Note_on_c, 10, 81, 127
1, 220916, Note_off_c, 10, 81, 127
1, 220916, Note_off_c, 10, 57, 127
1, 220916, Note_off_c, 5, 65, 127
1, 220916, Note_off_c, 0, 60, 127
1, 220919, Note_on_c, 5, 65, 127
1, 220919, Note_on_c, 10, 57, 127
1, 220919, Note_on_c, 0, 60, 127
1, 220919, Note_on_c, 5, 77, 127
1, 221162, Note_off_c, 5, 77, 127
1, 221165, Note_on_c, 3, 75, 127
1, 221408, Note_off_c, 3, 75, 127
1, 221408, Note_off_c, 0, 60, 127
1, 221408, Note_off_c, 10, 57, 127
1, 221408, Note_off_c, 5, 65, 127
1, 221411, Note_on_c, 11, 58, 127
1, 221411, Note_on_c, 5, 65, 127
1, 221411, Note_on_c, 3, 75, 127
1, 221791, Note_off_c, 3, 75, 127
1, 221794, Note_on_c, 5, 77, 127
1, 221899, Note_off_c, 5, 65, 127
1, 221899, Note_off_c, 11, 58, 127
1, 221902, Note_on_c, 11, 58, 127
1, 221902, Note_on_c, 5, 65, 127
1, 221902, Note_on_c, 3, 75, 127
1, 221922, Note_off_c, 5, 77, 127
1, 222004, Note_off_c, 3, 75, 127
1, 222004, Note_on_c, 5, 77, 127
1, 222101, Note_on_c, 3, 75, 127
1, 222106, Note_off_c, 5, 77, 127
1, 222198, Note_on_c, 2, 74, 127
1, 222203, Note_off_c, 3, 75, 127
1, 222295, Note_on_c, 3, 75, 127
1, 222300, Note_off_c, 2, 74, 127
1, 222382, Note_off_c, 3, 75, 127
1, 222390, Note_off_c, 5, 65, 127
1, 222390, Note_off_c, 11, 58, 127
1, 222393, Note_on_c, 5, 65, 127
1, 222393, Note_on_c, 11, 58, 127
1, 222393, Note_on_c, 2, 74, 127
1, 222881, Note_off_c, 11, 58, 127
1, 222881, Note_off_c, 5, 65, 127
1, 222884, Note_on_c, 5, 65, 127
1, 222884, Note_on_c, 11, 58, 127
1, 223127, Note_off_c, 2, 74, 127
1, 223146, Note_on_c, 4, 76, 127
1, 223266, Note_off_c, 4, 76, 127
1, 223269, Note_on_c, 6, 78, 127
1, 223373, Note_off_c, 11, 58, 127
1, 223373, Note_off_c, 5, 65, 127
1, 223389, Note_off_c, 6, 78, 127
1, 223392, Note_on_c, 7, 79, 127
1, 223392, Note_on_c, 11, 58, 127
1, 223392, Note_on_c, 2, 62, 127
1, 223512, Note_off_c, 7, 79, 127
1, 223515, Note_on_c, 10, 81, 127
1, 223635, Note_off_c, 10, 81, 127
1, 223638, Note_on_c, 11, 82, 127
1, 223758, Note_off_c, 11, 82, 127
1, 223761, Note_on_c, 10, 81, 127
1, 223881, Note_off_c, 10, 81, 127
1, 223881, Note_off_c, 2, 62, 127
1, 223881, Note_off_c, 11, 58, 127
1, 223884, Note_on_c, 7, 79, 127
1, 223884, Note_on_c, 7, 67, 127
1, 223884, Note_on_c, 11, 58, 127
1, 224045, Note_off_c, 7, 79, 127
1, 224048, Note_on_c, 5, 77, 127
1, 224130, Note_on_c, 4, 76, 127
1, 224150, Note_off_c, 5, 77, 127
1, 224211, Note_on_c, 7, 79, 127
1, 224231, Note_off_c, 4, 76, 127
1, 224292, Note_off_c, 11, 58, 127
1, 224292, Note_off_c, 7, 67, 127
1, 224292, Note_on_c, 5, 77, 127
1, 224312, Note_off_c, 7, 79, 127
1, 224363, Note_off_c, 5, 77, 127
1, 224373, Note_on_c, 5, 77, 127
1, 224373, Note_on_c, 10, 57, 127
1, 224373, Note_on_c, 1, 61, 127
1, 224782, Note_off_c, 5, 77, 127
1, 224861, Note_off_c, 1, 61, 127
1, 224861, Note_off_c, 10, 57, 127
1, 224864, Note_on_c, 7, 79, 127
1, 224864, Note_on_c, 1, 61, 127
1, 224864, Note_on_c, 10, 57, 127
1, 225025, Note_off_c, 7, 79, 127
1, 225028, Note_on_c, 5, 77, 127
1, 225189, Note_off_c, 5, 77, 127
1, 225192, Note_on_c, 7, 79, 127
1, 225353, Note_off_c, 10, 57, 127
1, 225353, Note_off_c, 1, 61, 127
1, 225356, Note_on_c, 10, 57, 127
1, 225356, Note_on_c, 1, 61, 127
1, 225844, Note_off_c, 1, 61, 127
1, 225844, Note_off_c, 10, 57, 127
1, 225847, Note_off_c, 7, 79, 127
1, 225847, Note_on_c, 10, 81, 127
1, 225847, Note_on_c, 10, 57, 127
1, 225847, Note_on_c, 1, 61, 127
1, 226335, Note_off_c, 1, 61, 127
1, 226335, Note_off_c, 10, 57, 127
1, 226335, Note_off_c, 10, 81, 127
1, 226338, Note_on_c, 7, 79, 127
1, 226338, Note_on_c, 2, 62, 127
1, 226338, Note_on_c, 11, 58, 127
1, 226823, Note_off_c, 7, 79, 127
1, 226826, Note_off_c, 11, 58, 127
1, 226826, Note_off_c, 2, 62, 127
1, 226829, Note_on_c, 5, 77, 127
1, 226829, Note_on_c, 2, 62, 127
1, 226829, Note_on_c, 11, 58, 127
1, 226990, Note_off_c, 5, 77, 127
1, 226993, Note_on_c, 7, 79, 127
1, 227154, Note_off_c, 7, 79, 127
1, 227157, Note_on_c, 4, 76, 127
1, 227318, Note_off_c, 4, 76, 127
1, 227318, Note_off_c, 11, 58, 127
1, 227318, Note_off_c, 2, 62, 127
1, 227321, Note_on_c, 5, 77, 127
1, 227321, Note_on_c, 2, 62, 127
1, 227321, Note_on_c, 7, 55, 127
1, 227321, Note_on_c, 11, 58, 127
1, 227520, Note_on_c, 4, 76, 127
1, 227528, Note_off_c, 5, 77, 127
1, 227617, Note_on_c, 5, 77, 127
1, 227622, Note_off_c, 4, 76, 127
1, 227714, Note_on_c, 7, 79, 127
1, 227719, Note_off_c, 5, 77, 127
1, 227808, Note_off_c, 11, 58, 127
1, 227808, Note_off_c, 7, 55, 127
1, 227808, Note_off_c, 2, 62, 127
1, 227811, Note_on_c, 5, 77, 127
1, 227811, Note_on_c, 7, 55, 127
1, 227811, Note_on_c, 4, 64, 127
1, 227811, Note_on_c, 11, 58, 127
1, 227816, Note_off_c, 7, 79, 127
1, 227931, Note_off_c, 5, 77, 127
1, 227934, Note_on_c, 4, 76, 127
1, 228054, Note_off_c, 4, 76, 127
1, 228057, Note_on_c, 5, 77, 127
1, 228177, Note_off_c, 5, 77, 127
1, 228180, Note_on_c, 7, 79, 127
1, 228300, Note_off_c, 7, 79, 127
1, 228300, Note_off_c, 11, 58, 127
1, 228300, Note_off_c, 4, 64, 127
1, 228300, Note_off_c, 7, 55, 127
1, 228303, Note_on_c, 2, 74, 127
1, 228303, Note_on_c, 10, 57, 127
1, 228303, Note_on_c, 4, 64, 127
1, 228791, Note_off_c, 4, 64, 127
1, 228791, Note_off_c, 10, 57, 127
1, 228794, Note_on_c, 7, 67, 127
1, 228794, Note_on_c, 10, 57, 127
1, 228914, Note_off_c, 2, 74, 127
1, 228917, Note_on_c, 1, 73, 127
1, 229037, Note_off_c, 1, 73, 127
1, 229040, Note_on_c, 12, 71, 127
1, 229160, Note_off_c, 12, 71, 127
1, 229163, Note_on_c, 1, 73, 127
1, 229283, Note_off_c, 1, 73, 127
1, 229283, Note_off_c, 10, 57, 127
1, 229283, Note_off_c, 7, 67, 127
1, 229286, Note_on_c, 1, 73, 127
1, 229286, Note_on_c, 10, 57, 127
1, 229286, Note_on_c, 5, 65, 127
1, 229758, Note_off_c, 1, 73, 127
1, 229773, Note_off_c, 5, 65, 127
1, 229773, Note_off_c, 10, 57, 127
1, 229792, Note_on_c, 4, 64, 127
1, 229792, Note_on_c, 10, 57, 127
1, 229792, Note_on_c, 2, 74, 127
1, 229932, Note_off_c, 2, 74, 127
1, 229935, Note_on_c, 1, 73, 127
1, 230075, Note_off_c, 1, 73, 127
1, 230078, Note_on_c, 2, 74, 127
1, 230180, Note_off_c, 2, 74, 127
1, 230180, Note_on_c, 11, 70, 127
1, 230277, Note_off_c, 11, 70, 127
1, 230280, Note_off_c, 10, 57, 127
1, 230280, Note_off_c, 4, 64, 127
1, 230283, Note_on_c, 11, 58, 127
1, 230283, Note_on_c, 2, 62, 127
1, 230283, Note_on_c, 11, 70, 127
1, 230531, Note_off_c, 2, 62, 127
1, 230534, Note_on_c, 1, 61, 127
1, 230753, Note_off_c, 11, 58, 127
1, 230782, Note_off_c, 1, 61, 127
1, 230782, Note_off_c, 11, 70, 127
1, 230785, Note_on_c, 4, 64, 127
1, 230785, Note_on_c, 11, 58, 127
1, 230785, Note_on_c, 10, 69, 127
1, 231033, Note_off_c, 4, 64, 127
1, 231036, Note_on_c, 2, 62, 127
1, 231255, Note_off_c, 11, 58, 127
1, 231284, Note_off_c, 2, 62, 127
1, 231287, Note_on_c, 5, 65, 127
1, 231287, Note_on_c, 11, 58, 127
1, 231535, Note_off_c, 5, 65, 127
1, 231538, Note_on_c, 4, 64, 127
1, 231757, Note_off_c, 11, 58, 127
1, 231778, Note_off_c, 10, 69, 127
1, 231786, Note_off_c, 4, 64, 127
1, 231789, Note_on_c, 11, 58, 127
1, 231789, Note_on_c, 7, 67, 127
1, 232039, Note_on_c, 5, 65, 127
1, 232258, Note_off_c, 11, 58, 127
1, 232287, Note_off_c, 5, 65, 127
1, 232290, Note_on_c, 4, 64, 127
1, 232290, Note_on_c, 11, 58, 127
1, 232538, Note_off_c, 4, 64, 127
1, 232541, Note_on_c, 2, 62, 127
1, 232760, Note_off_c, 11, 58, 127
1, 232789, Note_off_c, 2, 62, 127
1, 232792, Note_on_c, 11, 58, 127
1, 232792, Note_on_c, 1, 61, 127
1, 233040, Note_off_c, 1, 61, 127
1, 233043, Note_on_c, 2, 62, 127
1, 233262, Note_off_c, 11, 58, 127
1, 233291, Note_off_c, 2, 62, 127
1, 233291, Note_off_c, 7, 67, 127
1, 233294, Note_on_c, 10, 57, 127
1, 233294, Note_on_c, 1, 61, 127
1, 233544, Note_on_c, 5, 65, 127
1, 233792, Note_off_c, 5, 65, 127
1, 233792, Note_off_c, 1, 61, 127
1, 233792, Note_off_c, 10, 57, 127
1, 233795, Note_on_c, 1, 61, 127
1, 233795, Note_on_c, 10, 57, 127
1, 233795, Note_on_c, 4, 64, 127
1, 234043, Note_off_c, 4, 64, 127
1, 234046, Note_on_c, 5, 65, 127
1, 234294, Note_off_c, 5, 65, 127
1, 234294, Note_off_c, 10, 57, 127
1, 234294, Note_off_c, 1, 61, 127
1, 234297, Note_on_c, 1, 61, 127
1, 234297, Note_on_c, 10, 57, 127
1, 234297, Note_on_c, 7, 67, 127
1, 234545, Note_off_c, 7, 67, 127
1, 234548, Note_on_c, 10, 69, 127
1, 234796, Note_off_c, 10, 69, 127
1, 234796, Note_off_c, 10, 57, 127
1, 234796, Note_off_c, 1, 61, 127
1, 234799, Note_on_c, 10, 57, 127
1, 234799, Note_on_c, 1, 61, 127
1, 234799, Note_on_c, 11, 70, 127
1, 235047, Note_off_c, 11, 70, 127
1, 235050, Note_on_c, 10, 69, 127
1, 235298, Note_off_c, 10, 69, 127
1, 235305, Note_off_c, 1, 61, 127
1, 235305, Note_off_c, 10, 57, 127
1, 235309, Note_on_c, 7, 79, 127
1, 235309, Note_on_c, 5, 53, 127
1, 235309, Note_on_c, 10, 57, 127
1, 235309, Note_on_c, 1, 61, 127
1, 235557, Note_off_c, 7, 79, 127
1, 235560, Note_on_c, 4, 76, 127
1, 235808, Note_off_c, 4, 76, 127
1, 235808, Note_off_c, 1, 61, 127
1, 235808, Note_off_c, 10, 57, 127
1, 235808, Note_off_c, 5, 53, 127
1, 235811, Note_on_c, 5, 77, 127
1, 235811, Note_on_c, 5, 53, 127
1, 235811, Note_on_c, 2, 62, 127
1, 235811, Note_on_c, 10, 57, 127
1, 236059, Note_off_c, 5, 77, 127
1, 236062, Note_on_c, 1, 73, 127
1, 236310, Note_off_c, 1, 73, 127
1, 236310, Note_off_c, 10, 57, 127
1, 236310, Note_off_c, 2, 62, 127
1, 236310, Note_off_c, 5, 53, 127
1, 236313, Note_on_c, 2, 74, 127
1, 236313, Note_on_c, 2, 62, 127
1, 236313, Note_on_c, 7, 55, 127
1, 236313, Note_on_c, 11, 58, 127
1, 236673, Note_on_c, 4, 76, 127
1, 236676, Note_off_c, 2, 74, 127
1, 236812, Note_off_c, 4, 76, 127
1, 236812, Note_off_c, 11, 58, 127
1, 236812, Note_off_c, 7, 55, 127
1, 236812, Note_off_c, 2, 62, 127
1, 236815, Note_on_c, 2, 74, 127
1, 236815, Note_on_c, 2, 62, 127
1, 236815, Note_on_c, 7, 55, 127
1, 236815, Note_on_c, 11, 58, 127
1, 236964, Note_off_c, 2, 74, 127
1, 236964, Note_on_c, 1, 73, 127
1, 237081, Note_on_c, 2, 74, 127
1, 237086, Note_off_c, 1, 73, 127
1, 237198, Note_on_c, 4, 76, 127
1, 237203, Note_off_c, 2, 74, 127
1, 237313, Note_off_c, 11, 58, 127
1, 237313, Note_off_c, 7, 55, 127
1, 237313, Note_off_c, 2, 62, 127
1, 237316, Note_on_c, 5, 77, 127
1, 237316, Note_on_c, 10, 57, 127
1, 237316, Note_on_c, 1, 61, 127
1, 237321, Note_off_c, 4, 76, 127
1, 237650, Note_off_c, 5, 77, 127
1, 237655, Note_on_c, 4, 76, 127
1, 237780, Note_on_c, 5, 77, 127
1, 237783, Note_off_c, 4, 76, 127
1, 237814, Note_off_c, 1, 61, 127
1, 237814, Note_off_c, 10, 57, 127
1, 237817, Note_on_c, 7, 67, 127
1, 237817, Note_on_c, 10, 57, 127
1, 237869, Note_on_c, 4, 76, 127
1, 237885, Note_off_c, 5, 77, 127
1, 237958, Note_on_c, 5, 77, 127
1, 237974, Note_off_c, 4, 76, 127
1, 238047, Note_on_c, 4, 76, 127
1, 238063, Note_off_c, 5, 77, 127
1, 238316, Note_off_c, 10, 57, 127
1, 238316, Note_off_c, 7, 67, 127
1, 238319, Note_on_c, 10, 57, 127
1, 238319, Note_on_c, 5, 65, 127
1, 238548, Note_off_c, 4, 76, 127
1, 238575, Note_on_c, 2, 74, 127
1, 238828, Note_off_c, 2, 74, 127
1, 238828, Note_off_c, 5, 65, 127
1, 238828, Note_off_c, 10, 57, 127
1, 238847, Note_on_c, 4, 64, 127
1, 238847, Note_on_c, 10, 57, 127
1, 238847, Note_on_c, 12, 71, 127
1, 239055, Note_off_c, 12, 71, 127
1, 239055, Note_on_c, 2, 74, 127
1, 239156, Note_on_c, 5, 77, 127
1, 239180, Note_off_c, 2, 74, 127
1, 239257, Note_on_c, 10, 81, 127
1, 239273, Note_off_c, 10, 57, 127
1, 239273, Note_off_c, 4, 64, 127
1, 239281, Note_off_c, 5, 77, 127
1, 239342, Note_off_c, 10, 81, 127
1, 239358, Note_on_c, 4, 52, 127
1, 239358, Note_on_c, 2, 62, 127
1, 239358, Note_on_c, 12, 59, 127
1, 239358, Note_on_c, 10, 81, 127
1, 239443, Note_on_c, 8, 80, 127
1, 239464, Note_off_c, 10, 81, 127
1, 239528, Note_on_c, 10, 81, 127
1, 239549, Note_off_c, 8, 80, 127
1, 239613, Note_on_c, 8, 80, 127
1, 239634, Note_off_c, 10, 81, 127
1, 239866, Note_off_c, 12, 59, 127
1, 239866, Note_off_c, 2, 62, 127
1, 239866, Note_off_c, 4, 52, 127
1, 239869, Note_on_c, 4, 52, 127
1, 239869, Note_on_c, 2, 62, 127
1, 239869, Note_on_c, 12, 59, 127
1, 239989, Note_off_c, 8, 80, 127
1, 239997, Note_on_c, 10, 81, 127
1, 240122, Note_off_c, 10, 81, 127
1, 240125, Note_on_c, 8, 80, 127
1, 240250, Note_off_c, 8, 80, 127
1, 240253, Note_on_c, 6, 78, 127
1, 240378, Note_off_c, 6, 78, 127
1, 240378, Note_off_c, 12, 59, 127
1, 240378, Note_off_c, 2, 62, 127
1, 240378, Note_off_c, 4, 52, 127
1, 240381, Note_on_c, 4, 52, 127
1, 240381, Note_on_c, 2, 62, 127
1, 240381, Note_on_c, 12, 59, 127
1, 240381, Note_on_c, 4, 76, 127
1, 240506, Note_off_c, 4, 76, 127
1, 240509, Note_on_c, 6, 78, 127
1, 240634, Note_off_c, 6, 78, 127
1, 240637, Note_on_c, 8, 80, 127
1, 240762, Note_off_c, 8, 80, 127
1, 240765, Note_on_c, 6, 78, 127
1, 240890, Note_off_c, 6, 78, 127
1, 240890, Note_off_c, 12, 59, 127
1, 240890, Note_off_c, 2, 62, 127
1, 240890, Note_off_c, 4, 52, 127
1, 240893, Note_on_c, 4, 52, 127
1, 240893, Note_on_c, 2, 62, 127
1, 240893, Note_on_c, 12, 59, 127
1, 240893, Note_on_c, 8, 80, 127
1, 241018, Note_off_c, 8, 80, 127
1, 241021, Note_on_c, 10, 81, 127
1, 241146, Note_off_c, 10, 81, 127
1, 241149, Note_on_c, 8, 80, 127
1, 241234, Note_on_c, 6, 78, 127
1, 241255, Note_off_c, 8, 80, 127
1, 241319, Note_on_c, 8, 80, 127
1, 241340, Note_off_c, 6, 78, 127
1, 241401, Note_off_c, 8, 80, 127
1, 241401, Note_off_c, 12, 59, 127
1, 241401, Note_off_c, 2, 62, 127
1, 241401, Note_off_c, 4, 52, 127
1, 241404, Note_on_c, 1, 61, 127
1, 241404, Note_on_c, 10, 57, 127
1, 241404, Note_on_c, 10, 81, 127
1, 241529, Note_off_c, 10, 81, 127
1, 241532, Note_on_c, 11, 82, 127
1, 241657, Note_off_c, 11, 82, 127
1, 241660, Note_on_c, 10, 81, 127
1, 241785, Note_off_c, 10, 81, 127
1, 241788, Note_on_c, 7, 79, 127
1, 241913, Note_off_c, 7, 79, 127
1, 241913, Note_off_c, 10, 57, 127
1, 241913, Note_off_c, 1, 61, 127
1, 241916, Note_on_c, 1, 61, 127
1, 241916, Note_on_c, 10, 57, 127
1, 241916, Note_on_c, 5, 77, 127
1, 242169, Note_off_c, 5, 77, 127
1, 242172, Note_on_c, 7, 79, 127
1, 242297, Note_off_c, 7, 79, 127
1, 242300, Note_on_c, 4, 76, 127
1, 242425, Note_off_c, 4, 76, 127
1, 242425, Note_off_c, 10, 57, 127
1, 242425, Note_off_c, 1, 61, 127
1, 242428, Note_on_c, 2, 50, 127
1, 242428, Note_on_c, 2, 62, 127
1, 242428, Note_on_c, 5, 77, 127
1, 242636, Note_off_c, 5, 77, 127
1, 242636, Note_on_c, 7, 79, 127
1, 242737, Note_on_c, 10, 81, 127
1, 242742, Note_off_c, 7, 79, 127
1, 242838, Note_on_c, 7, 79, 127
1, 242843, Note_off_c, 10, 81, 127
1, 242936, Note_off_c, 2, 62, 127
1, 242936, Note_off_c, 2, 50, 127
1, 242939, Note_on_c, 11, 58, 127
1, 242939, Note_on_c, 7, 55, 127
1, 242939, Note_on_c, 5, 77, 127
1, 242944, Note_off_c, 7, 79, 127
1, 243088, Note_off_c, 5, 77, 127
1, 243091, Note_on_c, 4, 76, 127
1, 243211, Note_on_c, 5, 77, 127
1, 243216, Note_off_c, 4, 76, 127
1, 243331, Note_on_c, 2, 74, 127
1, 243336, Note_off_c, 5, 77, 127
1, 243437, Note_off_c, 2, 74, 127
1, 243448, Note_off_c, 7, 55, 127
1, 243448, Note_off_c, 11, 58, 127
1, 243451, Note_on_c, 10, 57, 127
1, 243451, Note_on_c, 2, 74, 127
1, 243792, Note_off_c, 2, 74, 127
1, 243792, Note_on_c, 1, 73, 127
1, 243960, Note_off_c, 1, 73, 127
1, 243960, Note_off_c, 10, 57, 127
1, 243963, Note_on_c, 7, 55, 127
1, 243963, Note_on_c, 2, 74, 127
1, 244131, Note_off_c, 2, 74, 127
1, 244134, Note_on_c, 12, 71, 127
1, 244302, Note_off_c, 12, 71, 127
1, 244305, Note_on_c, 1, 73, 127
1, 244473, Note_off_c, 1, 73, 127
1, 244473, Note_off_c, 7, 55, 127
1, 244476, Note_on_c, 10, 57, 127
1, 244476, Note_on_c, 2, 74, 127
1, 244644, Note_off_c, 2, 74, 127
1, 244647, Note_on_c, 1, 73, 127
1, 244732, Note_on_c, 2, 74, 127
1, 244753, Note_off_c, 1, 73, 127
1, 244817, Note_on_c, 1, 73, 127
1, 244838, Note_off_c, 2, 74, 127
1, 244902, Note_on_c, 2, 74, 127
1, 244923, Note_off_c, 1, 73, 127
1, 244984, Note_off_c, 10, 57, 127
1, 244987, Note_on_c, 10, 45, 127
1, 244987, Note_on_c, 1, 73, 127
1, 245008, Note_off_c, 2, 74, 127
1, 245272, Note_off_c, 1, 73, 127
1, 245277, Note_on_c, 2, 74, 127
1, 245496, Note_off_c, 10, 45, 127
1, 245499, Note_off_c, 2, 74, 127
1, 245515, Note_on_c, 2, 74, 127
1, 245515, Note_on_c, 2, 50, 127
1, 246098, Note_off_c, 2, 50, 127
1, 246118, Note_on_c, 2, 38, 127
1, 246118, Note_on_c, 2, 50, 127
1, 246118, Note_on_c, 5, 65, 127
1, 246118, Note_on_c, 2, 62, 127
1, 246514, Note_off_c, 2, 74, 127
1, 246606, Note_off_c, 2, 62, 127
1, 246606, Note_off_c, 5, 65, 127
1, 246606, Note_off_c, 2, 50, 127
1, 246606, Note_off_c, 2, 38, 127
1, 246625, Note_on_c, 10, 57, 127
1, 246625, Note_on_c, 5, 65, 127
1, 246625, Note_on_c, 2, 62, 127
1, 246625, Note_on_c, 2, 50, 127
1, 246625, Note_on_c, 2, 38, 127
1, 247113, Note_off_c, 2, 38, 127
1, 247113, Note_off_c, 2, 50, 127
1, 247113, Note_off_c, 2, 62, 127
1, 247113, Note_off_c, 5, 65, 127
1, 247113, Note_off_c, 10, 57, 127
1, 247116, Note_on_c, 10, 57, 127
1, 247116, Note_on_c, 2, 62, 127
1, 247116, Note_on_c, 5, 65, 127
1, 247116, Note_on_c, 2, 38, 127
1, 247116, Note_on_c, 2, 50, 127
1, 247604, Note_off_c, 2, 50, 127
1, 247604, Note_off_c, 2, 38, 127
1, 247604, Note_off_c, 5, 65, 127
1, 247604, Note_off_c, 2, 62, 127
1, 247604, Note_off_c, 10, 57, 127
1, 247607, Note_on_c, 10, 57, 127
1, 247607, Note_on_c, 2, 62, 127
1, 247607, Note_on_c, 5, 65, 127
1, 247607, Note_on_c, 2, 50, 127
1, 247607, Note_on_c, 2, 38, 127
1, 248095, Note_off_c, 2, 38, 127
1, 248095, Note_off_c, 2, 50, 127
1, 248095, Note_off_c, 5, 65, 127
1, 248095, Note_off_c, 2, 62, 127
1, 248095, Note_off_c, 10, 57, 127
1, 248098, Note_on_c, 10, 57, 127
1, 248098, Note_on_c, 2, 62, 127
1, 248098, Note_on_c, 5, 65, 127
1, 248098, Note_on_c, 2, 50, 127
1, 248098, Note_on_c, 2, 38, 127
1, 248586, Note_off_c, 2, 38, 127
1, 248586, Note_off_c, 2, 50, 127
1, 248586, Note_off_c, 5, 65, 127
1, 248586, Note_off_c, 2, 62, 127
1, 248586, Note_off_c, 10, 57, 127
1, 248589, Note_on_c, 10, 57, 127
1, 248589, Note_on_c, 2, 62, 127
1, 248589, Note_on_c, 4, 64, 127
1, 248589, Note_on_c, 10, 45, 127
1, 248589, Note_on_c, 4, 52, 127
1, 249077, Note_off_c, 4, 52, 127
1, 249077, Note_off_c, 10, 45, 127
1, 249077, Note_off_c, 4, 64, 127
1, 249077, Note_off_c, 2, 62, 127
1, 249077, Note_off_c, 10, 57, 127
1, 249080, Note_on_c, 4, 64, 127
1, 249080, Note_on_c, 10, 57, 127
1, 249080, Note_on_c, 2, 62, 127
1, 249080, Note_on_c, 10, 45, 127
1, 249080, Note_on_c, 4, 52, 127
1, 249568, Note_off_c, 4, 52, 127
1, 249568, Note_off_c, 10, 45, 127
1, 249568, Note_off_c, 2, 62, 127
1, 249568, Note_off_c, 10, 57, 127
1, 249568, Note_off_c, 4, 64, 127
1, 249571, Note_on_c, 10, 57, 127
1, 249571, Note_on_c, 4, 64, 127
1, 249571, Note_on_c, 2, 62, 127
1, 249571, Note_on_c, 10, 45, 127
1, 249571, Note_on_c, 4, 52, 127
1, 250059, Note_off_c, 4, 52, 127
1, 250059, Note_off_c, 10, 45, 127
1, 250059, Note_off_c, 2, 62, 127
1, 250059, Note_off_c, 4, 64, 127
1, 250059, Note_off_c, 10, 57, 127
1, 250062, Note_on_c, 10, 57, 127
1, 250062, Note_on_c, 4, 64, 127
1, 250062, Note_on_c, 2, 62, 127
1, 250062, Note_on_c, 10, 45, 127
1, 250062, Note_on_c, 4, 52, 127
1, 250550, Note_off_c, 4, 52, 127
1, 250550, Note_off_c, 10, 45, 127
1, 250550, Note_off_c, 2, 62, 127
1, 250550, Note_off_c, 4, 64, 127
1, 250550, Note_off_c, 10, 57, 127
1, 250553, Note_on_c, 10, 57, 127
1, 250553, Note_on_c, 0, 60, 127
1, 250553, Note_on_c, 4, 64, 127
1, 250553, Note_on_c, 4, 52, 127
1, 250553, Note_on_c, 10, 45, 127
1, 251041, Note_off_c, 10, 45, 127
1, 251041, Note_off_c, 4, 52, 127
1, 251041, Note_off_c, 4, 64, 127
1, 251041, Note_off_c, 0, 60, 127
1, 251041, Note_off_c, 10, 57, 127
1, 251044, Note_on_c, 10, 57, 127
1, 251044, Note_on_c, 0, 60, 127
1, 251044, Note_on_c, 4, 64, 127
1, 251044, Note_on_c, 10, 45, 127
1, 251044, Note_on_c, 4, 52, 127
1, 251532, Note_off_c, 4, 52, 127
1, 251532, Note_off_c, 10, 45, 127
1, 251532, Note_off_c, 4, 64, 127
1, 251532, Note_off_c, 0, 60, 127
1, 251532, Note_off_c, 10, 57, 127
1, 251535, Note_on_c, 2, 62, 127
1, 251535, Note_on_c, 10, 57, 127
1, 251535, Note_on_c, 0, 60, 127
1, 251535, Note_on_c, 6, 66, 127
1, 251535, Note_on_c, 2, 50, 127
1, 251535, Note_on_c, 2, 38, 127
1, 252023, Note_off_c, 2, 38, 127
1, 252023, Note_off_c, 2, 50, 127
1, 252023, Note_off_c, 6, 66, 127
1, 252023, Note_off_c, 0, 60, 127
1, 252023, Note_off_c, 10, 57, 127
1, 252023, Note_off_c, 2, 62, 127
1, 252026, Note_on_c, 2, 62, 127
1, 252026, Note_on_c, 10, 57, 127
1, 252026, Note_on_c, 0, 60, 127
1, 252026, Note_on_c, 6, 66, 127
1, 252026, Note_on_c, 2, 38, 127
1, 252026, Note_on_c, 2, 50, 127
1, 252514, Note_off_c, 2, 50, 127
1, 252514, Note_off_c, 2, 38, 127
1, 252514, Note_off_c, 6, 66, 127
1, 252514, Note_off_c, 0, 60, 127
1, 252514, Note_off_c, 10, 57, 127
1, 252514, Note_off_c, 2, 62, 127
1, 252517, Note_on_c, 6, 66, 127
1, 252517, Note_on_c, 10, 57, 127
1, 252517, Note_on_c, 0, 60, 127
1, 252517, Note_on_c, 2, 62, 127
1, 252517, Note_on_c, 2, 38, 127
1, 252517, Note_on_c, 2, 50, 127
1, 253005, Note_off_c, 2, 50, 127
1, 253005, Note_off_c, 2, 38, 127
1, 253005, Note_off_c, 2, 62, 127
1, 253005, Note_off_c, 0, 60, 127
1, 253005, Note_off_c, 10, 57, 127
1, 253005, Note_off_c, 6, 66, 127
1, 253008, Note_on_c, 0, 60, 127
1, 253008, Note_on_c, 2, 62, 127
1, 253008, Note_on_c, 10, 57, 127
1, 253008, Note_on_c, 6, 66, 127
1, 253008, Note_on_c, 2, 38, 127
1, 253008, Note_on_c, 2, 50, 127
1, 253496, Note_off_c, 2, 50, 127
1, 253496, Note_off_c, 2, 38, 127
1, 253496, Note_off_c, 6, 66, 127
1, 253496, Note_off_c, 10, 57, 127
1, 253496, Note_off_c, 2, 62, 127
1, 253496, Note_off_c, 0, 60, 127
1, 253499, Note_on_c, 10, 57, 127
1, 253499, Note_on_c, 0, 60, 127
1, 253499, Note_on_c, 2, 62, 127
1, 253499, Note_on_c, 6, 66, 127
1, 253499, Note_on_c, 2, 38, 127
1, 253499, Note_on_c, 2, 50, 127
1, 253987, Note_off_c, 2, 50, 127
1, 253987, Note_off_c, 2, 38, 127
1, 253987, Note_off_c, 6, 66, 127
1, 253987, Note_off_c, 2, 62, 127
1, 253987, Note_off_c, 0, 60, 127
1, 253987, Note_off_c, 10, 57, 127
1, 253990, Note_on_c, 2, 62, 127
1, 253990, Note_on_c, 10, 57, 127
1, 253990, Note_on_c, 0, 60, 127
1, 253990, Note_on_c, 6, 66, 127
1, 253990, Note_on_c, 2, 38, 127
1, 253990, Note_on_c, 2, 50, 127
1, 254478, Note_off_c, 2, 50, 127
1, 254478, Note_off_c, 2, 38, 127
1, 254478, Note_off_c, 6, 66, 127
1, 254478, Note_off_c, 0, 60, 127
1, 254478, Note_off_c, 10, 57, 127
1, 254478, Note_off_c, 2, 62, 127
1, 254481, Note_on_c, 0, 60, 127
1, 254481, Note_on_c, 2, 62, 127
1, 254481, Note_on_c, 7, 67, 127
1, 254481, Note_on_c, 7, 55, 127
1, 254481, Note_on_c, 2, 50, 127
1, 254481, Note_on_c, 7, 43, 127
1, 254969, Note_off_c, 7, 43, 127
1, 254969, Note_off_c, 2, 50, 127
1, 254969, Note_off_c, 7, 55, 127
1, 254969, Note_off_c, 7, 67, 127
1, 254969, Note_off_c, 2, 62, 127
1, 254969, Note_off_c, 0, 60, 127
1, 254972, Note_on_c, 7, 55, 127
1, 254972, Note_on_c, 7, 67, 127
1, 254972, Note_on_c, 11, 58, 127
1, 254972, Note_on_c, 2, 62, 127
1, 254972, Note_on_c, 2, 50, 127
1, 254972, Note_on_c, 7, 43, 127
1, 255460, Note_off_c, 7, 43, 127
1, 255460, Note_off_c, 2, 50, 127
1, 255460, Note_off_c, 2, 62, 127
1, 255460, Note_off_c, 11, 58, 127
1, 255460, Note_off_c, 7, 67, 127
1, 255460, Note_off_c, 7, 55, 127
1, 255463, Note_on_c, 11, 58, 127
1, 255463, Note_on_c, 2, 62, 127
1, 255463, Note_on_c, 7, 67, 127
1, 255463, Note_on_c, 4, 52, 127
1, 255463, Note_on_c, 7, 43, 127
1, 255951, Note_off_c, 7, 43, 127
1, 255951, Note_off_c, 4, 52, 127
1, 255951, Note_off_c, 7, 67, 127
1, 255951, Note_off_c, 2, 62, 127
1, 255951, Note_off_c, 11, 58, 127
1, 255954, Note_on_c, 11, 58, 127
1, 255954, Note_on_c, 7, 67, 127
1, 255954, Note_on_c, 2, 62, 127
1, 255954, Note_on_c, 4, 52, 127
1, 255954, Note_on_c, 7, 43, 127
1, 256442, Note_off_c, 7, 43, 127
1, 256442, Note_off_c, 4, 52, 127
1, 256442, Note_off_c, 2, 62, 127
1, 256442, Note_off_c, 7, 67, 127
1, 256442, Note_off_c, 11, 58, 127
1, 256445, Note_on_c, 2, 62, 127
1, 256445, Note_on_c, 7, 67, 127
1, 256445, Note_on_c, 11, 58, 127
1, 256445, Note_on_c, 7, 43, 127
1, 256445, Note_on_c, 4, 52, 127
1, 256933, Note_off_c, 4, 52, 127
1, 256933, Note_off_c, 7, 43, 127
1, 256933, Note_off_c, 11, 58, 127
1, 256933, Note_off_c, 7, 67, 127
1, 256933, Note_off_c, 2, 62, 127
1, 256936, Note_on_c, 7, 67, 127
1, 256936, Note_on_c, 2, 62, 127
1, 256936, Note_on_c, 11, 58, 127
1, 256936, Note_on_c, 7, 43, 127
1, 256936, Note_on_c, 4, 52, 127
1, 257424, Note_off_c, 4, 52, 127
1, 257424, Note_off_c, 7, 43, 127
1, 257424, Note_off_c, 11, 58, 127
1, 257424, Note_off_c, 2, 62, 127
1, 257424, Note_off_c, 7, 67, 127
1, 257427, Note_on_c, 7, 67, 127
1, 257427, Note_on_c, 10, 57, 127
1, 257427, Note_on_c, 1, 61, 127
1, 257427, Note_on_c, 4, 52, 127
1, 257427, Note_on_c, 10, 45, 127
1, 257915, Note_off_c, 10, 45, 127
1, 257915, Note_off_c, 4, 52, 127
1, 257915, Note_off_c, 1, 61, 127
1, 257934, Note_on_c, 10, 45, 127
1, 257934, Note_on_c, 4, 52, 127
1, 257934, Note_on_c, 1, 61, 127
1, 258406, Note_off_c, 10, 57, 127
1, 258422, Note_off_c, 1, 61, 127
1, 258422, Note_off_c, 4, 52, 127
1, 258422, Note_off_c, 10, 45, 127
1, 258425, Note_on_c, 10, 45, 127
1, 258425, Note_on_c, 4, 52, 127
1, 258425, Note_on_c, 1, 61, 127
1, 258654, Note_off_c, 7, 67, 127
1, 258913, Note_off_c, 1, 61, 127
1, 258913, Note_off_c, 4, 52, 127
1, 258913, Note_off_c, 10, 45, 127
1, 258932, Note_on_c, 10, 69, 127
1, 258932, Note_on_c, 4, 52, 127
1, 258932, Note_on_c, 10, 45, 127
1, 259420, Note_off_c, 10, 45, 127
1, 259420, Note_off_c, 4, 52, 127
1, 259420, Note_off_c, 10, 69, 127
1, 259423, Note_on_c, 5, 65, 127
1, 259423, Note_on_c, 2, 62, 127
1, 259423, Note_on_c, 2, 50, 127
1, 259423, Note_on_c, 11, 46, 127
1, 259911, Note_off_c, 11, 46, 127
1, 259911, Note_off_c, 2, 62, 127
1, 259914, Note_on_c, 1, 61, 127
1, 259914, Note_on_c, 11, 46, 127
1, 260126, Note_off_c, 5, 65, 127
1, 260134, Note_on_c, 4, 64, 127
1, 260402, Note_off_c, 4, 64, 127
1, 260402, Note_off_c, 11, 46, 127
1, 260402, Note_off_c, 1, 61, 127
1, 260405, Note_on_c, 2, 62, 127
1, 260405, Note_on_c, 5, 65, 127
1, 260405, Note_on_c, 7, 43, 127
1, 260650, Note_on_c, 1, 49, 127
1, 260864, Note_off_c, 7, 43, 127
1, 260892, Note_off_c, 1, 49, 127
1, 260892, Note_off_c, 2, 50, 127
1, 260895, Note_on_c, 7, 43, 127
1, 260895, Note_on_c, 2, 50, 127
1, 261120, Note_off_c, 5, 65, 127
1, 261138, Note_off_c, 2, 50, 127
1, 261141, Note_on_c, 7, 67, 127
1, 261141, Note_on_c, 4, 52, 127
1, 261355, Note_off_c, 7, 43, 127
1, 261375, Note_off_c, 2, 62, 127
1, 261383, Note_off_c, 4, 52, 127
1, 261383, Note_off_c, 7, 67, 127
1, 261386, Note_on_c, 5, 65, 127
1, 261386, Note_on_c, 10, 45, 127
1, 261631, Note_on_c, 2, 50, 127
1, 261787, Note_on_c, 4, 64, 127
1, 261795, Note_off_c, 5, 65, 127
1, 261846, Note_off_c, 10, 45, 127
1, 261874, Note_off_c, 2, 50, 127
1, 261877, Note_on_c, 5, 65, 127
1, 261877, Note_on_c, 10, 45, 127
1, 261877, Note_on_c, 4, 52, 127
1, 261890, Note_off_c, 4, 64, 127
1, 261967, Note_on_c, 4, 64, 127
1, 261980, Note_off_c, 5, 65, 127
1, 262057, Note_on_c, 5, 65, 127
1, 262070, Note_off_c, 4, 64, 127
1, 262121, Note_off_c, 4, 52, 127
1, 262124, Note_on_c, 5, 53, 127
1, 262147, Note_on_c, 4, 64, 127
1, 262160, Note_off_c, 5, 65, 127
1, 262237, Note_on_c, 5, 65, 127
1, 262250, Note_off_c, 4, 64, 127
1, 262327, Note_on_c, 4, 64, 127
1, 262340, Note_off_c, 5, 65, 127
1, 262340, Note_off_c, 10, 45, 127
1, 262368, Note_off_c, 5, 53, 127
1, 262371, Note_on_c, 1, 61, 127
1, 262371, Note_on_c, 4, 52, 127
1, 262371, Note_on_c, 10, 45, 127
1, 262859, Note_off_c, 10, 45, 127
1, 262859, Note_off_c, 4, 52, 127
1, 262886, Note_on_c, 10, 45, 127
1, 262886, Note_on_c, 6, 54, 127
1, 263164, Note_off_c, 6, 54, 127
1, 263180, Note_on_c, 7, 55, 127
1, 263197, Note_off_c, 4, 64, 127
1, 263369, Note_off_c, 1, 61, 127
1, 263456, Note_off_c, 10, 45, 127
1, 263480, Note_off_c, 7, 55, 127
1, 263498, Note_on_c, 2, 62, 127
1, 263498, Note_on_c, 10, 57, 127
1, 263498, Note_on_c, 6, 54, 127
1, 263498, Note_on_c, 2, 38, 127
1, 266698, Note_off_c, 2, 38, 127
1, 266698, Note_off_c, 6, 54, 127
1, 266698, Note_off_c, 10, 57, 127
1, 266698, Note_off_c, 2, 62, 127
1, 267891, Note_on_c, 2, 74, 127
1, 267891, Note_on_c, 2, 62, 127
1, 268025, Note_off_c, 2, 74, 127
1, 268026, Note_on_c, 10, 69, 127
1, 268160, Note_off_c, 10, 69, 127
1, 268161, Note_on_c, 2, 74, 127
1, 268295, Note_off_c, 2, 74, 127
1, 268296, Note_on_c, 4, 76, 127
1, 268430, Note_off_c, 4, 76, 127
1, 268431, Note_on_c, 5, 77, 127
1, 268565, Note_off_c, 5, 77, 127
1, 268566, Note_on_c, 2, 74, 127
1, 268700, Note_off_c, 2, 74, 127
1, 268700, Note_off_c, 2, 62, 127
1, 268701, Note_on_c, 4, 76, 127
1, 268701, Note_on_c, 1, 61, 127
1, 268835, Note_off_c, 4, 76, 127
1, 268836, Note_on_c, 10, 69, 127
1, 268970, Note_off_c, 10, 69, 127
1, 268971, Note_on_c, 4, 76, 127
1, 269105, Note_off_c, 4, 76, 127
1, 269106, Note_on_c, 5, 77, 127
1, 269240, Note_off_c, 5, 77, 127
1, 269241, Note_on_c, 7, 79, 127
1, 269375, Note_off_c, 7, 79, 127
1, 269376, Note_on_c, 4, 76, 127
1, 269510, Note_off_c, 4, 76, 127
1, 269510, Note_off_c, 1, 61, 127
1, 269511, Note_on_c, 5, 77, 127
1, 269511, Note_on_c, 2, 62, 127
1, 269645, Note_off_c, 5, 77, 127
1, 269646, Note_on_c, 4, 76, 127
1, 269755, Note_off_c, 2, 62, 127
1, 269780, Note_off_c, 4, 76, 127
1, 269781, Note_on_c, 2, 74, 127
1, 269781, Note_on_c, 11, 58, 127
1, 269915, Note_off_c, 2, 74, 127
1, 269916, Note_on_c, 4, 76, 127
1, 270050, Note_off_c, 4, 76, 127
1, 270051, Note_on_c, 5, 77, 127
1, 270185, Note_off_c, 5, 77, 127
1, 270186, Note_on_c, 7, 79, 127
1, 270320, Note_off_c, 7, 79, 127
1, 270320, Note_off_c, 11, 58, 127
1, 270321, Note_on_c, 10, 81, 127
1, 270321, Note_on_c, 10, 57, 127
1, 270455, Note_off_c, 10, 57, 127
1, 270456, Note_on_c, 11, 58, 127
1, 270590, Note_off_c, 11, 58, 127
1, 270591, Note_on_c, 10, 57, 127
1, 270725, Note_off_c, 10, 57, 127
1, 270726, Note_on_c, 7, 55, 127
1, 270860, Note_off_c, 7, 55, 127
1, 270860, Note_off_c, 10, 81, 127
1, 270861, Note_on_c, 10, 69, 127
1, 270861, Note_on_c, 5, 53, 127
1, 270995, Note_off_c, 5, 53, 127
1, 270996, Note_on_c, 4, 52, 127
1, 271130, Note_off_c, 4, 52, 127
1, 271130, Note_off_c, 10, 69, 127
1, 271131, Note_on_c, 10, 81, 127
1, 271131, Note_on_c, 2, 50, 127
1, 271265, Note_off_c, 10, 81, 127
1, 271266, Note_on_c, 7, 79, 127
1, 271266, Note_on_c, 10, 57, 127
1, 271400, Note_off_c, 10, 57, 127
1, 271400, Note_off_c, 7, 79, 127
1, 271401, Note_on_c, 5, 77, 127
1, 271401, Note_on_c, 2, 62, 127
1, 271535, Note_off_c, 5, 77, 127
1, 271536, Note_on_c, 4, 76, 127
1, 271666, Note_off_c, 2, 50, 127
1, 271670, Note_off_c, 4, 76, 127
1, 271671, Note_on_c, 2, 74, 127
1, 271805, Note_off_c, 2, 74, 127
1, 271806, Note_on_c, 0, 72, 127
1, 271940, Note_off_c, 0, 72, 127
1, 271941, Note_on_c, 11, 70, 127
1, 271941, Note_on_c, 7, 55, 127
1, 272075, Note_off_c, 7, 55, 127
1, 272075, Note_off_c, 11, 70, 127
1, 272076, Note_on_c, 2, 74, 127
1, 272076, Note_on_c, 0, 60, 127
1, 272210, Note_off_c, 0, 60, 127
1, 272210, Note_off_c, 2, 74, 127
1, 272211, Note_on_c, 7, 79, 127
1, 272211, Note_on_c, 11, 58, 127
1, 272344, Note_off_c, 2, 62, 127
1, 272345, Note_off_c, 11, 58, 127
1, 272346, Note_on_c, 10, 57, 127
1, 272480, Note_off_c, 10, 57, 127
1, 272481, Note_on_c, 7, 55, 127
1, 272605, Note_off_c, 7, 79, 127
1, 272615, Note_off_c, 7, 55, 127
1, 272616, Note_on_c, 5, 53, 127
1, 272750, Note_off_c, 5, 53, 127
1, 272751, Note_on_c, 7, 79, 127
1, 272751, Note_on_c, 4, 52, 127
1, 272885, Note_off_c, 7, 79, 127
1, 272886, Note_on_c, 5, 77, 127
1, 272886, Note_on_c, 7, 55, 127
1, 273020, Note_off_c, 7, 55, 127
1, 273020, Note_off_c, 5, 77, 127
1, 273021, Note_on_c, 4, 76, 127
1, 273021, Note_on_c, 0, 60, 127
1, 273155, Note_off_c, 4, 76, 127
1, 273156, Note_on_c, 2, 74, 127
1, 273286, Note_off_c, 4, 52, 127
1, 273290, Note_off_c, 2, 74, 127
1, 273291, Note_on_c, 0, 72, 127
1, 273425, Note_off_c, 0, 72, 127
1, 273426, Note_on_c, 11, 70, 127
1, 273560, Note_off_c, 11, 70, 127
1, 273561, Note_on_c, 10, 69, 127
1, 273561, Note_on_c, 5, 53, 127
1, 273695, Note_off_c, 5, 53, 127
1, 273695, Note_off_c, 10, 69, 127
1, 273696, Note_on_c, 0, 72, 127
1, 273696, Note_on_c, 11, 58, 127
1, 273830, Note_off_c, 11, 58, 127
1, 273830, Note_off_c, 0, 72, 127
1, 273831, Note_on_c, 5, 77, 127
1, 273831, Note_on_c, 10, 57, 127
1, 273964, Note_off_c, 0, 60, 127
1, 273965, Note_off_c, 10, 57, 127
1, 273966, Note_on_c, 7, 55, 127
1, 274100, Note_off_c, 7, 55, 127
1, 274101, Note_on_c, 5, 53, 127
1, 274225, Note_off_c, 5, 77, 127
1, 274235, Note_off_c, 5, 53, 127
1, 274236, Note_on_c, 4, 52, 127
1, 274370, Note_off_c, 4, 52, 127
1, 274371, Note_on_c, 5, 77, 127
1, 274371, Note_on_c, 2, 50, 127
1, 274505, Note_off_c, 5, 77, 127
1, 274506, Note_on_c, 4, 76, 127
1, 274506, Note_on_c, 5, 53, 127
1, 274640, Note_off_c, 5, 53, 127
1, 274640, Note_off_c, 4, 76, 127
1, 274641, Note_on_c, 2, 74, 127
1, 274641, Note_on_c, 11, 58, 127
1, 274775, Note_off_c, 2, 74, 127
1, 274776, Note_on_c, 0, 72, 127
1, 274906, Note_off_c, 2, 50, 127
1, 274910, Note_off_c, 0, 72, 127
1, 274911, Note_on_c, 11, 70, 127
1, 275045, Note_off_c, 11, 70, 127
1, 275046, Note_on_c, 10, 69, 127
1, 275180, Note_off_c, 10, 69, 127
1, 275181, Note_on_c, 7, 67, 127
1, 275181, Note_on_c, 4, 52, 127
1, 275315, Note_off_c, 7, 67, 127
1, 275316, Note_on_c, 11, 70, 127
1, 275316, Note_on_c, 10, 57, 127
1, 275450, Note_off_c, 10, 57, 127
1, 275450, Note_off_c, 11, 70, 127
1, 275451, Note_on_c, 4, 76, 127
1, 275451, Note_on_c, 7, 55, 127
1, 275575, Note_off_c, 4, 52, 127
1, 275583, Note_off_c, 11, 58, 127
1, 275584, Note_off_c, 7, 55, 127
1, 275585, Note_on_c, 5, 53, 127
1, 275719, Note_off_c, 5, 53, 127
1, 275720, Note_on_c, 4, 52, 127
1, 275844, Note_off_c, 4, 76, 127
1, 275854, Note_off_c, 4, 52, 127
1, 275855, Note_on_c, 2, 50, 127
1, 275989, Note_off_c, 2, 50, 127
1, 275990, Note_on_c, 4, 76, 127
1, 275990, Note_on_c, 1, 49, 127
1, 276124, Note_off_c, 4, 76, 127
1, 276125, Note_on_c, 2, 74, 127
1, 276125, Note_on_c, 4, 52, 127
1, 276259, Note_off_c, 4, 52, 127
1, 276259, Note_off_c, 2, 74, 127
1, 276260, Note_on_c, 1, 73, 127
1, 276260, Note_on_c, 10, 57, 127
1, 276384, Note_off_c, 1, 49, 127
1, 276394, Note_off_c, 1, 73, 127
1, 276395, Note_on_c, 12, 71, 127
1, 276529, Note_off_c, 12, 71, 127
1, 276530, Note_on_c, 10, 69, 127
1, 276664, Note_off_c, 10, 69, 127
1, 276665, Note_on_c, 7, 67, 127
1, 276799, Note_off_c, 7, 67, 127
1, 276800, Note_on_c, 5, 65, 127
1, 276800, Note_on_c, 2, 50, 127
1, 276934, Note_off_c, 2, 50, 127
1, 276935, Note_on_c, 10, 69, 127
1, 276935, Note_on_c, 1, 49, 127
1, 277069, Note_off_c, 1, 49, 127
1, 277069, Note_off_c, 10, 69, 127
1, 277070, Note_on_c, 2, 74, 127
1, 277070, Note_on_c, 2, 50, 127
1, 277194, Note_off_c, 5, 65, 127
1, 277202, Note_off_c, 10, 57, 127
1, 277203, Note_off_c, 2, 50, 127
1, 277204, Note_on_c, 7, 67, 127
1, 277204, Note_on_c, 4, 52, 127
1, 277338, Note_off_c, 4, 52, 127
1, 277338, Note_off_c, 7, 67, 127
1, 277339, Note_on_c, 10, 69, 127
1, 277339, Note_on_c, 5, 53, 127
1, 277473, Note_off_c, 5, 53, 127
1, 277473, Note_off_c, 10, 69, 127
1, 277474, Note_on_c, 5, 65, 127
1, 277474, Note_on_c, 2, 50, 127
1, 277608, Note_off_c, 2, 50, 127
1, 277608, Note_off_c, 5, 65, 127
1, 277609, Note_on_c, 11, 70, 127
1, 277609, Note_on_c, 7, 55, 127
1, 277743, Note_off_c, 7, 55, 127
1, 277744, Note_off_c, 2, 74, 127
1, 277744, Note_on_c, 4, 76, 127
1, 277744, Note_on_c, 4, 52, 127
1, 277877, Note_off_c, 11, 70, 127
1, 277878, Note_off_c, 4, 52, 127
1, 277878, Note_off_c, 4, 76, 127
1, 277879, Note_on_c, 10, 69, 127
1, 277879, Note_on_c, 4, 64, 127
1, 277879, Note_on_c, 1, 73, 127
1, 277879, Note_on_c, 10, 57, 127
1, 278013, Note_off_c, 10, 57, 127
1, 278014, Note_on_c, 7, 55, 127
1, 278148, Note_off_c, 7, 55, 127
1, 278149, Note_on_c, 10, 57, 127
1, 278285, Note_on_c, 10, 45, 127
1, 278418, Note_off_c, 10, 57, 127
1, 278419, Note_off_c, 10, 45, 127
1, 278419, Note_off_c, 1, 73, 127
1, 278419, Note_off_c, 4, 64, 127
1, 278419, Note_off_c, 10, 69, 127
1, 278420, Note_on_c, 2, 74, 127
1, 278420, Note_on_c, 2, 62, 127
1, 278420, Note_on_c, 2, 50, 127
1, 278554, Note_off_c, 2, 74, 127
1, 278555, Note_on_c, 10, 69, 127
1, 278688, Note_off_c, 2, 62, 127
1, 278689, Note_off_c, 10, 69, 127
1, 278689, Note_off_c, 2, 50, 127
1, 278690, Note_on_c, 2, 74, 127
1, 278690, Note_on_c, 5, 53, 127
1, 278824, Note_off_c, 2, 74, 127
1, 278825, Note_on_c, 4, 76, 127
1, 278959, Note_off_c, 4, 76, 127
1, 278959, Note_off_c, 5, 53, 127
1, 278960, Note_on_c, 5, 77, 127
1, 278960, Note_on_c, 10, 57, 127
1, 279094, Note_off_c, 5, 77, 127
1, 279095, Note_on_c, 2, 74, 127
1, 279229, Note_off_c, 2, 74, 127
1, 279229, Note_off_c, 10, 57, 127
1, 279230, Note_on_c, 4, 76, 127
1, 279230, Note_on_c, 1, 49, 127
1, 279364, Note_off_c, 4, 76, 127
1, 279365, Note_on_c, 10, 69, 127
1, 279499, Note_off_c, 10, 69, 127
1, 279499, Note_off_c, 1, 49, 127
1, 279500, Note_on_c, 4, 76, 127
1, 279500, Note_on_c, 4, 52, 127
1, 279634, Note_off_c, 4, 76, 127
1, 279635, Note_on_c, 5, 77, 127
1, 279769, Note_off_c, 5, 77, 127
1, 279769, Note_off_c, 4, 52, 127
1, 279770, Note_on_c, 7, 79, 127
1, 279770, Note_on_c, 10, 57, 127
1, 279904, Note_off_c, 7, 79, 127
1, 279905, Note_on_c, 4, 76, 127
1, 280039, Note_off_c, 4, 76, 127
1, 280039, Note_off_c, 10, 57, 127
1, 280040, Note_on_c, 5, 77, 127
1, 280040, Note_on_c, 2, 50, 127
1, 280174, Note_off_c, 5, 77, 127
1, 280175, Note_on_c, 4, 76, 127
1, 280309, Note_off_c, 4, 76, 127
1, 280309, Note_off_c, 2, 50, 127
1, 280310, Note_on_c, 2, 74, 127
1, 280310, Note_on_c, 5, 53, 127
1, 280444, Note_off_c, 2, 74, 127
1, 280445, Note_on_c, 4, 76, 127
1, 280579, Note_off_c, 4, 76, 127
1, 280579, Note_off_c, 5, 53, 127
1, 280580, Note_on_c, 5, 77, 127
1, 280580, Note_on_c, 10, 57, 127
1, 280714, Note_off_c, 5, 77, 127
1, 280715, Note_on_c, 7, 79, 127
1, 280849, Note_off_c, 7, 79, 127
1, 280849, Note_off_c, 10, 57, 127
1, 280850, Note_on_c, 10, 81, 127
1, 280850, Note_on_c, 10, 45, 127
1, 280984, Note_off_c, 10, 45, 127
1, 280985, Note_on_c, 11, 58, 127
1, 281119, Note_off_c, 11, 58, 127
1, 281120, Note_on_c, 10, 57, 127
1, 281254, Note_off_c, 10, 57, 127
1, 281255, Note_on_c, 7, 55, 127
1, 281389, Note_off_c, 7, 55, 127
1, 281390, Note_on_c, 10, 69, 127
1, 281390, Note_on_c, 5, 53, 127
1, 281524, Note_off_c, 5, 53, 127
1, 281525, Note_off_c, 10, 81, 127
1, 281525, Note_on_c, 4, 52, 127
1, 281593, Note_off_c, 10, 69, 127
1, 281659, Note_off_c, 4, 52, 127
1, 281660, Note_on_c, 10, 81, 127
1, 281660, Note_on_c, 2, 50, 127
1, 281794, Note_off_c, 10, 81, 127
1, 281795, Note_on_c, 5, 77, 127
1, 281929, Note_off_c, 5, 77, 127
1, 281929, Note_off_c, 2, 50, 127
1, 281930, Note_on_c, 2, 74, 127
1, 281930, Note_on_c, 5, 53, 127
1, 282064, Note_off_c, 2, 74, 127
1, 282065, Note_on_c, 5, 77, 127
1, 282199, Note_off_c, 5, 77, 127
1, 282199, Note_off_c, 5, 53, 127
1, 282200, Note_on_c, 11, 82, 127
1, 282200, Note_on_c, 7, 43, 127
1, 282334, Note_off_c, 11, 82, 127
1, 282335, Note_on_c, 7, 79, 127
1, 282469, Note_off_c, 7, 79, 127
1, 282469, Note_off_c, 7, 43, 127
1, 282470, Note_on_c, 4, 76, 127
1, 282470, Note_on_c, 0, 48, 127
1, 282604, Note_off_c, 0, 48, 127
1, 282604, Note_off_c, 4, 76, 127
1, 282605, Note_on_c, 7, 79, 127
1, 282605, Note_on_c, 4, 52, 127
1, 282739, Note_off_c, 4, 52, 127
1, 282739, Note_off_c, 7, 79, 127
1, 282740, Note_on_c, 0, 72, 127
1, 282740, Note_on_c, 7, 55, 127
1, 282874, Note_off_c, 7, 55, 127
1, 282875, Note_on_c, 11, 46, 127
1, 283009, Note_off_c, 11, 46, 127
1, 283010, Note_on_c, 10, 45, 127
1, 283134, Note_off_c, 0, 72, 127
1, 283144, Note_off_c, 10, 45, 127
1, 283145, Note_on_c, 5, 53, 127
1, 283279, Note_off_c, 5, 53, 127
1, 283280, Note_on_c, 5, 77, 127
1, 283280, Note_on_c, 11, 46, 127
1, 283414, Note_off_c, 5, 77, 127
1, 283415, Note_on_c, 2, 74, 127
1, 283549, Note_off_c, 2, 74, 127
1, 283549, Note_off_c, 11, 46, 127
1, 283550, Note_on_c, 11, 70, 127
1, 283550, Note_on_c, 2, 50, 127
1, 283684, Note_off_c, 11, 70, 127
1, 283685, Note_on_c, 2, 74, 127
1, 283819, Note_off_c, 2, 74, 127
1, 283819, Note_off_c, 2, 50, 127
1, 283820, Note_on_c, 7, 79, 127
1, 283820, Note_on_c, 4, 40, 127
1, 283954, Note_off_c, 7, 79, 127
1, 283955, Note_on_c, 4, 76, 127
1, 284089, Note_off_c, 4, 76, 127
1, 284089, Note_off_c, 4, 40, 127
1, 284090, Note_on_c, 1, 73, 127
1, 284090, Note_on_c, 10, 45, 127
1, 284224, Note_off_c, 10, 45, 127
1, 284224, Note_off_c, 1, 73, 127
1, 284225, Note_on_c, 4, 76, 127
1, 284225, Note_on_c, 1, 49, 127
1, 284359, Note_off_c, 1, 49, 127
1, 284359, Note_off_c, 4, 76, 127
1, 284360, Note_on_c, 10, 69, 127
1, 284360, Note_on_c, 4, 52, 127
1, 284494, Note_off_c, 4, 52, 127
1, 284495, Note_on_c, 1, 49, 127
1, 284629, Note_off_c, 1, 49, 127
1, 284630, Note_on_c, 10, 45, 127
1, 284754, Note_off_c, 10, 69, 127
1, 284764, Note_off_c, 10, 45, 127
1, 284765, Note_on_c, 1, 49, 127
1, 284899, Note_off_c, 1, 49, 127
1, 284900, Note_on_c, 5, 77, 127
1, 284900, Note_on_c, 2, 50, 127
1, 285034, Note_off_c, 2, 50, 127
1, 285034, Note_off_c, 5, 77, 127
1, 285035, Note_on_c, 4, 76, 127
1, 285035, Note_on_c, 4, 52, 127
1, 285169, Note_off_c, 4, 52, 127
1, 285169, Note_off_c, 4, 76, 127
1, 285170, Note_on_c, 2, 74, 127
1, 285170, Note_on_c, 5, 53, 127
1, 285304, Note_off_c, 5, 53, 127
1, 285304, Note_off_c, 2, 74, 127
1, 285305, Note_on_c, 4, 76, 127
1, 285305, Note_on_c, 7, 55, 127
1, 285439, Note_off_c, 7, 55, 127
1, 285439, Note_off_c, 4, 76, 127
1, 285440, Note_on_c, 5, 77, 127
1, 285440, Note_on_c, 10, 57, 127
1, 285574, Note_off_c, 10, 57, 127
1, 285574, Note_off_c, 5, 77, 127
1, 285575, Note_on_c, 2, 74, 127
1, 285575, Note_on_c, 11, 58, 127
1, 285709, Note_off_c, 11, 58, 127
1, 285709, Note_off_c, 2, 74, 127
1, 285710, Note_on_c, 7, 79, 127
1, 285710, Note_on_c, 4, 52, 127
1, 285844, Note_off_c, 4, 52, 127
1, 285844, Note_off_c, 7, 79, 127
1, 285845, Note_on_c, 5, 77, 127
1, 285845, Note_on_c, 5, 53, 127
1, 285979, Note_off_c, 5, 53, 127
1, 285979, Note_off_c, 5, 77, 127
1, 285980, Note_on_c, 4, 76, 127
1, 285980, Note_on_c, 7, 55, 127
1, 286114, Note_off_c, 7, 55, 127
1, 286114, Note_off_c, 4, 76, 127
1, 286115, Note_on_c, 5, 77, 127
1, 286115, Note_on_c, 10, 57, 127
1, 286249, Note_off_c, 10, 57, 127
1, 286249, Note_off_c, 5, 77, 127
1, 286250, Note_on_c, 7, 79, 127
1, 286250, Note_on_c, 11, 58, 127
1, 286384, Note_off_c, 11, 58, 127
1, 286384, Note_off_c, 7, 79, 127
1, 286385, Note_on_c, 4, 76, 127
1, 286385, Note_on_c, 0, 60, 127
1, 286519, Note_off_c, 0, 60, 127
1, 286519, Note_off_c, 4, 76, 127
1, 286520, Note_on_c, 10, 81, 127
1, 286520, Note_on_c, 5, 53, 127
1, 286654, Note_off_c, 5, 53, 127
1, 286654, Note_off_c, 10, 81, 127
1, 286655, Note_on_c, 7, 79, 127
1, 286655, Note_on_c, 7, 55, 127
1, 286789, Note_off_c, 7, 55, 127
1, 286789, Note_off_c, 7, 79, 127
1, 286790, Note_on_c, 5, 77, 127
1, 286790, Note_on_c, 10, 57, 127
1, 286924, Note_off_c, 10, 57, 127
1, 286924, Note_off_c, 5, 77, 127
1, 286925, Note_on_c, 7, 79, 127
1, 286925, Note_on_c, 11, 58, 127
1, 287059, Note_off_c, 11, 58, 127
1, 287059, Note_off_c, 7, 79, 127
1, 287060, Note_on_c, 10, 81, 127
1, 287060, Note_on_c, 0, 60, 127
1, 287194, Note_off_c, 0, 60, 127
1, 287194, Note_off_c, 10, 81, 127
1, 287195, Note_on_c, 5, 77, 127
1, 287195, Note_on_c, 2, 62, 127
1, 287329, Note_off_c, 2, 62, 127
1, 287329, Note_off_c, 5, 77, 127
1, 287330, Note_on_c, 11, 82, 127
1, 287330, Note_on_c, 7, 55, 127
1, 287464, Note_off_c, 7, 55, 127
1, 287464, Note_off_c, 11, 82, 127
1, 287465, Note_on_c, 10, 81, 127
1, 287465, Note_on_c, 10, 57, 127
1, 287599, Note_off_c, 10, 57, 127
1, 287599, Note_off_c, 10, 81, 127
1, 287600, Note_on_c, 7, 79, 127
1, 287600, Note_on_c, 11, 58, 127
1, 287734, Note_off_c, 11, 58, 127
1, 287734, Note_off_c, 7, 79, 127
1, 287735, Note_on_c, 5, 77, 127
1, 287735, Note_on_c, 10, 57, 127
1, 287869, Note_off_c, 10, 57, 127
1, 287869, Note_off_c, 5, 77, 127
1, 287870, Note_on_c, 4, 76, 127
1, 287870, Note_on_c, 7, 55, 127
1, 288004, Note_off_c, 7, 55, 127
1, 288004, Note_off_c, 4, 76, 127
1, 288005, Note_on_c, 2, 74, 127
1, 288005, Note_on_c, 11, 58, 127
1, 288139, Note_off_c, 11, 58, 127
1, 288139, Note_off_c, 2, 74, 127
1, 288140, Note_on_c, 0, 72, 127
1, 288140, Note_on_c, 10, 57, 127
1, 288274, Note_off_c, 10, 57, 127
1, 288275, Note_on_c, 7, 55, 127
1, 288409, Note_off_c, 7, 55, 127
1, 288410, Note_on_c, 5, 53, 127
1, 288544, Note_off_c, 5, 53, 127
1, 288544, Note_off_c, 0, 72, 127
1, 288545, Note_on_c, 0, 72, 127
1, 288545, Note_on_c, 4, 52, 127
1, 288679, Note_off_c, 4, 52, 127
1, 288679, Note_off_c, 0, 72, 127
1, 288680, Note_on_c, 5, 77, 127
1, 288680, Note_on_c, 2, 50, 127
1, 288736, Note_off_c, 5, 77, 127
1, 288736, Note_on_c, 4, 76, 127
1, 288792, Note_off_c, 4, 76, 127
1, 288792, Note_on_c, 5, 77, 127
1, 288813, Note_off_c, 2, 50, 127
1, 288814, Note_on_c, 0, 48, 127
1, 288948, Note_off_c, 0, 48, 127
1, 288949, Note_on_c, 2, 50, 127
1, 289083, Note_off_c, 2, 50, 127
1, 289084, Note_on_c, 11, 46, 127
1, 289125, Note_off_c, 5, 77, 127
1, 289129, Note_on_c, 7, 79, 127
1, 289218, Note_off_c, 11, 46, 127
1, 289219, Note_off_c, 7, 79, 127
1, 289219, Note_on_c, 10, 81, 127
1, 289219, Note_on_c, 0, 48, 127
1, 289308, Note_off_c, 10, 81, 127
1, 289309, Note_on_c, 7, 79, 127
1, 289353, Note_off_c, 0, 48, 127
1, 289354, Note_on_c, 10, 81, 127
1, 289354, Note_on_c, 11, 46, 127
1, 289365, Note_off_c, 7, 79, 127
1, 289399, Note_on_c, 7, 79, 127
1, 289410, Note_off_c, 10, 81, 127
1, 289444, Note_on_c, 10, 81, 127
1, 289455, Note_off_c, 7, 79, 127
1, 289487, Note_off_c, 11, 46, 127
1, 289488, Note_on_c, 7, 79, 127
1, 289488, Note_on_c, 0, 48, 127
1, 289499, Note_off_c, 10, 81, 127
1, 289622, Note_off_c, 0, 48, 127
1, 289622, Note_off_c, 7, 79, 127
1, 289623, Note_on_c, 5, 77, 127
1, 289623, Note_on_c, 0, 36, 127
1, 289757, Note_off_c, 0, 36, 127
1, 289757, Note_off_c, 5, 77, 127
1, 289758, Note_on_c, 5, 77, 127
1, 289758, Note_on_c, 5, 41, 127
1, 289892, Note_off_c, 5, 77, 127
1, 289893, Note_on_c, 0, 72, 127
1, 290027, Note_off_c, 0, 72, 127
1, 290027, Note_off_c, 5, 41, 127
1, 290028, Note_on_c, 5, 77, 127
1, 290028, Note_on_c, 10, 45, 127
1, 290162, Note_off_c, 5, 77, 127
1, 290163, Note_on_c, 7, 79, 127
1, 290297, Note_off_c, 7, 79, 127
1, 290297, Note_off_c, 10, 45, 127
1, 290298, Note_on_c, 10, 81, 127
1, 290298, Note_on_c, 5, 41, 127
1, 290432, Note_off_c, 10, 81, 127
1, 290433, Note_on_c, 5, 77, 127
1, 290567, Note_off_c, 5, 77, 127
1, 290567, Note_off_c, 5, 41, 127
1, 290568, Note_on_c, 7, 79, 127
1, 290568, Note_on_c, 0, 48, 127
1, 290702, Note_off_c, 7, 79, 127
1, 290703, Note_on_c, 0, 72, 127
1, 290837, Note_off_c, 0, 72, 127
1, 290837, Note_off_c, 0, 48, 127
1, 290838, Note_on_c, 7, 79, 127
1, 290838, Note_on_c, 4, 52, 127
1, 290972, Note_off_c, 7, 79, 127
1, 290973, Note_on_c, 10, 81, 127
1, 291107, Note_off_c, 10, 81, 127
1, 291107, Note_off_c, 4, 52, 127
1, 291108, Note_on_c, 11, 82, 127
1, 291108, Note_on_c, 0, 48, 127
1, 291242, Note_off_c, 11, 82, 127
1, 291243, Note_on_c, 7, 79, 127
1, 291377, Note_off_c, 7, 79, 127
1, 291377, Note_off_c, 0, 48, 127
1, 291378, Note_on_c, 10, 81, 127
1, 291378, Note_on_c, 5, 53, 127
1, 291512, Note_off_c, 10, 81, 127
1, 291513, Note_on_c, 7, 79, 127
1, 291647, Note_off_c, 7, 79, 127
1, 291647, Note_off_c, 5, 53, 127
1, 291648, Note_on_c, 5, 77, 127
1, 291648, Note_on_c, 10, 57, 127
1, 291782, Note_off_c, 5, 77, 127
1, 291783, Note_on_c, 7, 79, 127
1, 291917, Note_off_c, 7, 79, 127
1, 291917, Note_off_c, 10, 57, 127
1, 291918, Note_on_c, 10, 81, 127
1, 291918, Note_on_c, 5, 53, 127
1, 292052, Note_off_c, 10, 81, 127
1, 292053, Note_on_c, 11, 82, 127
1, 292187, Note_off_c, 11, 82, 127
1, 292187, Note_off_c, 5, 53, 127
1, 292188, Note_on_c, 0, 84, 127
1, 292188, Note_on_c, 0, 60, 127
1, 292322, Note_off_c, 0, 60, 127
1, 292323, Note_on_c, 2, 62, 127
1, 292457, Note_off_c, 2, 62, 127
1, 292458, Note_on_c, 0, 60, 127
1, 292592, Note_off_c, 0, 60, 127
1, 292593, Note_on_c, 11, 58, 127
1, 292727, Note_off_c, 11, 58, 127
1, 292728, Note_on_c, 0, 72, 127
1, 292728, Note_on_c, 10, 57, 127
1, 292862, Note_off_c, 10, 57, 127
1, 292863, Note_off_c, 0, 84, 127
1, 292863, Note_on_c, 7, 55, 127
1, 292931, Note_off_c, 0, 72, 127
1, 292997, Note_off_c, 7, 55, 127
1, 292998, Note_on_c, 5, 77, 127
1, 292998, Note_on_c, 5, 53, 127
1, 293132, Note_off_c, 5, 77, 127
1, 293133, Note_on_c, 0, 72, 127
1, 293267, Note_off_c, 0, 72, 127
1, 293267, Note_off_c, 5, 53, 127
1, 293268, Note_on_c, 5, 77, 127
1, 293268, Note_on_c, 10, 57, 127
1, 293402, Note_off_c, 5, 77, 127
1, 293403, Note_on_c, 7, 79, 127
1, 293537, Note_off_c, 7, 79, 127
1, 293537, Note_off_c, 10, 57, 127
1, 293538, Note_on_c, 10, 81, 127
1, 293538, Note_on_c, 5, 53, 127
1, 293672, Note_off_c, 10, 81, 127
1, 293673, Note_on_c, 5, 77, 127
1, 293807, Note_off_c, 5, 77, 127
1, 293807, Note_off_c, 5, 53, 127
1, 293808, Note_on_c, 7, 79, 127
1, 293808, Note_on_c, 0, 60, 127
1, 293942, Note_off_c, 7, 79, 127
1, 293943, Note_on_c, 0, 72, 127
1, 294077, Note_off_c, 0, 72, 127
1, 294077, Note_off_c, 0, 60, 127
1, 294078, Note_on_c, 7, 79, 127
1, 294078, Note_on_c, 4, 64, 127
1, 294212, Note_off_c, 7, 79, 127
1, 294213, Note_on_c, 10, 81, 127
1, 294347, Note_off_c, 10, 81, 127
1, 294347, Note_off_c, 4, 64, 127
1, 294348, Note_on_c, 11, 82, 127
1, 294348, Note_on_c, 0, 60, 127
1, 294482, Note_off_c, 11, 82, 127
1, 294483, Note_on_c, 7, 79, 127
1, 294617, Note_off_c, 7, 79, 127
1, 294617, Note_off_c, 0, 60, 127
1, 294618, Note_on_c, 10, 81, 127
1, 294618, Note_on_c, 5, 65, 127
1, 294752, Note_off_c, 10, 81, 127
1, 294753, Note_on_c, 7, 79, 127
1, 294887, Note_off_c, 7, 79, 127
1, 294887, Note_off_c, 5, 65, 127
1, 294888, Note_on_c, 5, 77, 127
1, 294888, Note_on_c, 10, 69, 127
1, 295022, Note_off_c, 5, 77, 127
1, 295023, Note_on_c, 7, 79, 127
1, 295157, Note_off_c, 7, 79, 127
1, 295157, Note_off_c, 10, 69, 127
1, 295158, Note_on_c, 10, 81, 127
1, 295158, Note_on_c, 5, 65, 127
1, 295292, Note_off_c, 10, 81, 127
1, 295293, Note_on_c, 11, 82, 127
1, 295427, Note_off_c, 11, 82, 127
1, 295427, Note_off_c, 5, 65, 127
1, 295428, Note_on_c, 0, 84, 127
1, 295428, Note_on_c, 0, 72, 127
1, 295564, Note_on_c, 0, 60, 127
1, 295697, Note_off_c, 0, 72, 127
1, 295698, Note_off_c, 0, 60, 127
1, 295699, Note_on_c, 4, 64, 127
1, 295833, Note_off_c, 4, 64, 127
1, 295834, Note_on_c, 7, 67, 127
1, 295968, Note_off_c, 7, 67, 127
1, 295969, Note_on_c, 0, 72, 127
1, 296105, Note_on_c, 11, 58, 127
1, 296195, Note_off_c, 0, 72, 127
1, 296239, Note_off_c, 11, 58, 127
1, 296239, Note_off_c, 0, 84, 127
1, 296240, Note_on_c, 5, 77, 127
1, 296240, Note_on_c, 10, 57, 127
1, 296374, Note_off_c, 5, 77, 127
1, 296375, Note_on_c, 0, 72, 127
1, 296509, Note_off_c, 0, 72, 127
1, 296509, Note_off_c, 10, 57, 127
1, 296510, Note_on_c, 10, 69, 127
1, 296510, Note_on_c, 5, 53, 127
1, 296644, Note_off_c, 10, 69, 127
1, 296645, Note_on_c, 0, 72, 127
1, 296779, Note_off_c, 0, 72, 127
1, 296779, Note_off_c, 5, 53, 127
1, 296780, Note_on_c, 5, 77, 127
1, 296780, Note_on_c, 10, 57, 127
1, 296914, Note_off_c, 5, 77, 127
1, 296915, Note_on_c, 0, 72, 127
1, 297049, Note_off_c, 0, 72, 127
1, 297049, Note_off_c, 10, 57, 127
1, 297050, Note_on_c, 2, 74, 127
1, 297050, Note_on_c, 11, 58, 127
1, 297184, Note_off_c, 11, 58, 127
1, 297184, Note_off_c, 2, 74, 127
1, 297185, Note_on_c, 5, 77, 127
1, 297185, Note_on_c, 2, 62, 127
1, 297319, Note_off_c, 2, 62, 127
1, 297319, Note_off_c, 5, 77, 127
1, 297320, Note_on_c, 11, 70, 127
1, 297320, Note_on_c, 5, 65, 127
1, 297454, Note_off_c, 5, 65, 127
1, 297455, Note_on_c, 4, 64, 127
1, 297589, Note_off_c, 4, 64, 127
1, 297590, Note_on_c, 2, 62, 127
1, 297658, Note_off_c, 11, 70, 127
1, 297724, Note_off_c, 2, 62, 127
1, 297725, Note_on_c, 0, 60, 127
1, 297859, Note_off_c, 0, 60, 127
1, 297860, Note_on_c, 7, 79, 127
1, 297860, Note_on_c, 12, 59, 127
1, 297994, Note_off_c, 7, 79, 127
1, 297995, Note_on_c, 2, 74, 127
1, 298129, Note_off_c, 2, 74, 127
1, 298129, Note_off_c, 12, 59, 127
1, 298130, Note_on_c, 12, 71, 127
1, 298130, Note_on_c, 7, 55, 127
1, 298264, Note_off_c, 12, 71, 127
1, 298265, Note_on_c, 2, 74, 127
1, 298399, Note_off_c, 2, 74, 127
1, 298399, Note_off_c, 7, 55, 127
1, 298400, Note_on_c, 7, 79, 127
1, 298400, Note_on_c, 12, 59, 127
1, 298534, Note_off_c, 7, 79, 127
1, 298535, Note_on_c, 2, 74, 127
1, 298669, Note_off_c, 2, 74, 127
1, 298669, Note_off_c, 12, 59, 127
1, 298670, Note_on_c, 4, 76, 127
1, 298670, Note_on_c, 0, 60, 127
1, 298804, Note_off_c, 0, 60, 127
1, 298804, Note_off_c, 4, 76, 127
1, 298805, Note_on_c, 7, 79, 127
1, 298805, Note_on_c, 4, 64, 127
1, 298939, Note_off_c, 4, 64, 127
1, 298939, Note_off_c, 7, 79, 127
1, 298940, Note_on_c, 0, 72, 127
1, 298940, Note_on_c, 7, 67, 127
1, 299074, Note_off_c, 7, 67, 127
1, 299075, Note_on_c, 5, 65, 127
1, 299209, Note_off_c, 5, 65, 127
1, 299210, Note_on_c, 4, 64, 127
1, 299278, Note_off_c, 0, 72, 127
1, 299344, Note_off_c, 4, 64, 127
1, 299345, Note_on_c, 2, 62, 127
1, 299479, Note_off_c, 2, 62, 127
1, 299480, Note_on_c, 10, 81, 127
1, 299480, Note_on_c, 1, 61, 127
1, 299614, Note_off_c, 10, 81, 127
1, 299615, Note_on_c, 4, 76, 127
1, 299749, Note_off_c, 4, 76, 127
1, 299749, Note_off_c, 1, 61, 127
1, 299750, Note_on_c, 1, 73, 127
1, 299750, Note_on_c, 10, 57, 127
1, 299884, Note_off_c, 1, 73, 127
1, 299885, Note_on_c, 4, 76, 127
1, 300019, Note_off_c, 4, 76, 127
1, 300019, Note_off_c, 10, 57, 127
1, 300020, Note_on_c, 10, 81, 127
1, 300020, Note_on_c, 1, 61, 127
1, 300154, Note_off_c, 10, 81, 127
1, 300155, Note_on_c, 4, 76, 127
1, 300289, Note_off_c, 4, 76, 127
1, 300289, Note_off_c, 1, 61, 127
1, 300290, Note_on_c, 5, 77, 127
1, 300290, Note_on_c, 2, 62, 127
1, 300424, Note_off_c, 5, 77, 127
1, 300425, Note_on_c, 10, 81, 127
1, 300559, Note_off_c, 10, 81, 127
1, 300559, Note_off_c, 2, 62, 127
1, 300560, Note_on_c, 5, 77, 127
1, 300560, Note_on_c, 2, 50, 127
1, 300694, Note_off_c, 5, 77, 127
1, 300695, Note_on_c, 2, 74, 127
1, 300829, Note_off_c, 2, 74, 127
1, 300829, Note_off_c, 2, 50, 127
1, 300830, Note_on_c, 11, 82, 127
1, 300830, Note_on_c, 7, 55, 127
1, 300964, Note_off_c, 11, 82, 127
1, 300965, Note_on_c, 7, 79, 127
1, 301099, Note_off_c, 7, 79, 127
1, 301099, Note_off_c, 7, 55, 127
1, 301100, Note_on_c, 4, 76, 127
1, 301100, Note_on_c, 0, 60, 127
1, 301234, Note_off_c, 4, 76, 127
1, 301235, Note_on_c, 7, 79, 127
1, 301369, Note_off_c, 7, 79, 127
1, 301369, Note_off_c, 0, 60, 127
1, 301370, Note_on_c, 4, 76, 127
1, 301370, Note_on_c, 0, 48, 127
1, 301504, Note_off_c, 4, 76, 127
1, 301505, Note_on_c, 0, 72, 127
1, 301639, Note_off_c, 0, 72, 127
1, 301639, Note_off_c, 0, 48, 127
1, 301640, Note_on_c, 10, 81, 127
1, 301640, Note_on_c, 5, 53, 127
1, 301774, Note_off_c, 10, 81, 127
1, 301775, Note_on_c, 5, 77, 127
1, 301909, Note_off_c, 5, 77, 127
1, 301909, Note_off_c, 5, 53, 127
1, 301910, Note_on_c, 2, 74, 127
1, 301910, Note_on_c, 11, 58, 127
1, 302044, Note_off_c, 2, 74, 127
1, 302045, Note_on_c, 5, 77, 127
1, 302179, Note_off_c, 5, 77, 127
1, 302179, Note_off_c, 11, 58, 127
1, 302180, Note_on_c, 2, 74, 127
1, 302180, Note_on_c, 11, 46, 127
1, 302314, Note_off_c, 2, 74, 127
1, 302315, Note_on_c, 11, 70, 127
1, 302449, Note_off_c, 11, 70, 127
1, 302449, Note_off_c, 11, 46, 127
1, 302450, Note_on_c, 7, 79, 127
1, 302450, Note_on_c, 4, 52, 127
1, 302584, Note_off_c, 7, 79, 127
1, 302585, Note_on_c, 4, 76, 127
1, 302719, Note_off_c, 4, 76, 127
1, 302719, Note_off_c, 4, 52, 127
1, 302720, Note_on_c, 0, 72, 127
1, 302720, Note_on_c, 10, 57, 127
1, 302854, Note_off_c, 0, 72, 127
1, 302855, Note_on_c, 4, 76, 127
1, 302989, Note_off_c, 4, 76, 127
1, 302989, Note_off_c, 10, 57, 127
1, 302990, Note_on_c, 0, 72, 127
1, 302990, Note_on_c, 10, 45, 127
1, 303124, Note_off_c, 0, 72, 127
1, 303125, Note_on_c, 10, 69, 127
1, 303259, Note_off_c, 10, 69, 127
1, 303259, Note_off_c, 10, 45, 127
1, 303260, Note_on_c, 5, 77, 127
1, 303260, Note_on_c, 2, 50, 127
1, 303394, Note_off_c, 5, 77, 127
1, 303395, Note_on_c, 2, 74, 127
1, 303529, Note_off_c, 2, 74, 127
1, 303529, Note_off_c, 2, 50, 127
1, 303530, Note_on_c, 11, 70, 127
1, 303530, Note_on_c, 7, 55, 127
1, 303664, Note_off_c, 11, 70, 127
1, 303665, Note_on_c, 2, 74, 127
1, 303799, Note_off_c, 2, 74, 127
1, 303799, Note_off_c, 7, 55, 127
1, 303800, Note_on_c, 11, 70, 127
1, 303800, Note_on_c, 7, 43, 127
1, 303934, Note_off_c, 11, 70, 127
1, 303935, Note_on_c, 7, 67, 127
1, 304069, Note_off_c, 7, 67, 127
1, 304069, Note_off_c, 7, 43, 127
1, 304070, Note_on_c, 4, 76, 127
1, 304070, Note_on_c, 0, 48, 127
1, 304204, Note_off_c, 4, 76, 127
1, 304205, Note_on_c, 0, 72, 127
1, 304339, Note_off_c, 0, 72, 127
1, 304339, Note_off_c, 0, 48, 127
1, 304340, Note_on_c, 10, 69, 127
1, 304340, Note_on_c, 5, 53, 127
1, 304474, Note_off_c, 5, 53, 127
1, 304474, Note_off_c, 10, 69, 127
1, 304475, Note_on_c, 0, 72, 127
1, 304475, Note_on_c, 10, 57, 127
1, 304609, Note_off_c, 10, 57, 127
1, 304609, Note_off_c, 0, 72, 127
1, 304610, Note_on_c, 10, 69, 127
1, 304610, Note_on_c, 5, 53, 127
1, 304744, Note_off_c, 5, 53, 127
1, 304744, Note_off_c, 10, 69, 127
1, 304745, Note_on_c, 5, 65, 127
1, 304745, Note_on_c, 2, 50, 127
1, 304879, Note_off_c, 2, 50, 127
1, 304879, Note_off_c, 5, 65, 127
1, 304880, Note_on_c, 2, 74, 127
1, 304880, Note_on_c, 12, 47, 127
1, 305014, Note_off_c, 12, 47, 127
1, 305014, Note_off_c, 2, 74, 127
1, 305015, Note_on_c, 12, 71, 127
1, 305015, Note_on_c, 2, 50, 127
1, 305149, Note_off_c, 2, 50, 127
1, 305149, Note_off_c, 12, 71, 127
1, 305150, Note_on_c, 8, 68, 127
1, 305150, Note_on_c, 4, 52, 127
1, 305284, Note_off_c, 4, 52, 127
1, 305284, Note_off_c, 8, 68, 127
1, 305285, Note_on_c, 4, 64, 127
1, 305285, Note_on_c, 2, 50, 127
1, 305419, Note_off_c, 2, 50, 127
1, 305419, Note_off_c, 4, 64, 127
1, 305420, Note_on_c, 8, 68, 127
1, 305420, Note_on_c, 4, 52, 127
1, 305554, Note_off_c, 4, 52, 127
1, 305554, Note_off_c, 8, 68, 127
1, 305555, Note_on_c, 12, 71, 127
1, 305555, Note_on_c, 6, 54, 127
1, 305689, Note_off_c, 6, 54, 127
1, 305689, Note_off_c, 12, 71, 127
1, 305690, Note_on_c, 4, 76, 127
1, 305690, Note_on_c, 8, 56, 127
1, 305824, Note_off_c, 8, 56, 127
1, 305824, Note_off_c, 4, 76, 127
1, 305825, Note_on_c, 12, 71, 127
1, 305825, Note_on_c, 4, 52, 127
1, 305959, Note_off_c, 4, 52, 127
1, 305959, Note_off_c, 12, 71, 127
1, 305960, Note_on_c, 0, 72, 127
1, 305960, Note_on_c, 10, 57, 127
1, 306094, Note_off_c, 10, 57, 127
1, 306094, Note_off_c, 0, 72, 127
1, 306095, Note_on_c, 10, 69, 127
1, 306095, Note_on_c, 8, 56, 127
1, 306229, Note_off_c, 8, 56, 127
1, 306229, Note_off_c, 10, 69, 127
1, 306230, Note_on_c, 0, 72, 127
1, 306230, Note_on_c, 10, 57, 127
1, 306364, Note_off_c, 10, 57, 127
1, 306364, Note_off_c, 0, 72, 127
1, 306365, Note_on_c, 4, 76, 127
1, 306365, Note_on_c, 12, 59, 127
1, 306499, Note_off_c, 12, 59, 127
1, 306499, Note_off_c, 4, 76, 127
1, 306500, Note_on_c, 10, 81, 127
1, 306500, Note_on_c, 0, 60, 127
1, 306634, Note_off_c, 0, 60, 127
1, 306634, Note_off_c, 10, 81, 127
1, 306635, Note_on_c, 4, 76, 127
1, 306635, Note_on_c, 10, 57, 127
1, 306769, Note_off_c, 10, 57, 127
1, 306769, Note_off_c, 4, 76, 127
1, 306770, Note_on_c, 5, 77, 127
1, 306770, Note_on_c, 2, 62, 127
1, 306904, Note_off_c, 2, 62, 127
1, 306904, Note_off_c, 5, 77, 127
1, 306905, Note_on_c, 2, 74, 127
1, 306905, Note_on_c, 1, 61, 127
1, 307039, Note_off_c, 1, 61, 127
1, 307039, Note_off_c, 2, 74, 127
1, 307040, Note_on_c, 5, 77, 127
1, 307040, Note_on_c, 2, 62, 127
1, 307174, Note_off_c, 2, 62, 127
1, 307174, Note_off_c, 5, 77, 127
1, 307175, Note_on_c, 10, 81, 127
1, 307175, Note_on_c, 4, 64, 127
1, 307309, Note_off_c, 4, 64, 127
1, 307309, Note_off_c, 10, 81, 127
1, 307310, Note_on_c, 2, 86, 127
1, 307310, Note_on_c, 5, 65, 127
1, 307444, Note_off_c, 5, 65, 127
1, 307444, Note_off_c, 2, 86, 127
1, 307445, Note_on_c, 12, 83, 127
1, 307445, Note_on_c, 2, 62, 127
1, 307579, Note_off_c, 2, 62, 127
1, 307579, Note_off_c, 12, 83, 127
1, 307580, Note_on_c, 8, 80, 127
1, 307580, Note_on_c, 4, 64, 127
1, 307714, Note_off_c, 4, 64, 127
1, 307715, Note_on_c, 5, 65, 127
1, 307849, Note_off_c, 5, 65, 127
1, 307850, Note_on_c, 4, 64, 127
1, 307984, Note_off_c, 4, 64, 127
1, 307984, Note_off_c, 8, 80, 127
1, 307985, Note_on_c, 4, 76, 127
1, 307985, Note_on_c, 2, 62, 127
1, 308119, Note_off_c, 2, 62, 127
1, 308119, Note_off_c, 4, 76, 127
1, 308120, Note_on_c, 10, 81, 127
1, 308120, Note_on_c, 0, 60, 127
1, 308176, Note_off_c, 10, 81, 127
1, 308176, Note_on_c, 8, 80, 127
1, 308232, Note_off_c, 8, 80, 127
1, 308232, Note_on_c, 10, 81, 127
1, 308253, Note_off_c, 0, 60, 127
1, 308254, Note_on_c, 12, 59, 127
1, 308388, Note_off_c, 12, 59, 127
1, 308389, Note_on_c, 10, 57, 127
1, 308523, Note_off_c, 10, 57, 127
1, 308524, Note_on_c, 2, 62, 127
1, 308527, Note_off_c, 10, 81, 127
1, 308538, Note_on_c, 12, 83, 127
1, 308658, Note_off_c, 12, 83, 127
1, 308658, Note_off_c, 2, 62, 127
1, 308659, Note_on_c, 10, 81, 127
1, 308659, Note_on_c, 4, 64, 127
1, 308748, Note_off_c, 10, 81, 127
1, 308749, Note_on_c, 8, 80, 127
1, 308793, Note_off_c, 4, 64, 127
1, 308794, Note_on_c, 10, 81, 127
1, 308794, Note_on_c, 2, 62, 127
1, 308805, Note_off_c, 8, 80, 127
1, 308839, Note_on_c, 8, 80, 127
1, 308850, Note_off_c, 10, 81, 127
1, 308884, Note_on_c, 10, 81, 127
1, 308895, Note_off_c, 8, 80, 127
1, 308927, Note_off_c, 2, 62, 127
1, 308928, Note_on_c, 8, 80, 127
1, 308928, Note_on_c, 4, 64, 127
1, 308939, Note_off_c, 10, 81, 127
1, 309062, Note_off_c, 4, 64, 127
1, 309062, Note_off_c, 8, 80, 127
1, 309063, Note_on_c, 10, 81, 127
1, 309063, Note_on_c, 4, 52, 127
1, 309197, Note_off_c, 4, 52, 127
1, 309197, Note_off_c, 10, 81, 127
1, 309198, Note_on_c, 10, 81, 127
1, 309198, Note_on_c, 10, 57, 127
1, 309332, Note_off_c, 10, 57, 127
1, 309333, Note_on_c, 8, 56, 127
1, 309467, Note_off_c, 8, 56, 127
1, 309468, Note_on_c, 10, 57, 127
1, 309602, Note_off_c, 10, 57, 127
1, 309603, Note_on_c, 4, 52, 127
1, 309737, Note_off_c, 4, 52, 127
1, 309738, Note_on_c, 0, 48, 127
1, 309872, Note_off_c, 0, 48, 127
1, 309873, Note_off_c, 10, 81, 127
1, 309873, Note_on_c, 4, 52, 127
1, 310007, Note_off_c, 4, 52, 127
1, 310008, Note_on_c, 4, 76, 127
1, 310008, Note_on_c, 10, 45, 127
1, 310142, Note_off_c, 10, 45, 127
1, 310142, Note_off_c, 4, 76, 127
1, 310143, Note_on_c, 2, 74, 127
1, 310143, Note_on_c, 4, 52, 127
1, 310277, Note_off_c, 4, 52, 127
1, 310277, Note_off_c, 2, 74, 127
1, 310278, Note_on_c, 0, 72, 127
1, 310278, Note_on_c, 10, 57, 127
1, 310412, Note_off_c, 0, 72, 127
1, 310413, Note_on_c, 12, 71, 127
1, 310547, Note_off_c, 12, 71, 127
1, 310548, Note_on_c, 10, 69, 127
1, 310682, Note_off_c, 10, 69, 127
1, 310683, Note_on_c, 7, 67, 127
1, 310817, Note_off_c, 7, 67, 127
1, 310818, Note_on_c, 5, 65, 127
1, 310818, Note_on_c, 2, 50, 127
1, 310952, Note_off_c, 5, 65, 127
1, 310953, Note_off_c, 10, 57, 127
1, 310953, Note_on_c, 10, 69, 127
1, 310953, Note_on_c, 7, 55, 127
1, 311087, Note_off_c, 7, 55, 127
1, 311087, Note_off_c, 10, 69, 127
1, 311088, Note_on_c, 2, 74, 127
1, 311088, Note_on_c, 5, 53, 127
1, 311212, Note_off_c, 2, 50, 127
1, 311222, Note_off_c, 5, 53, 127
1, 311223, Note_on_c, 4, 52, 127
1, 311357, Note_off_c, 4, 52, 127
1, 311358, Note_on_c, 2, 50, 127
1, 311482, Note_off_c, 2, 74, 127
1, 311492, Note_off_c, 2, 50, 127
1, 311493, Note_on_c, 0, 48, 127
1, 311627, Note_off_c, 0, 48, 127
1, 311628, Note_on_c, 2, 74, 127
1, 311628, Note_on_c, 12, 47, 127
1, 311762, Note_off_c, 12, 47, 127
1, 311762, Note_off_c, 2, 74, 127
1, 311763, Note_on_c, 0, 72, 127
1, 311763, Note_on_c, 2, 50, 127
1, 311897, Note_off_c, 2, 50, 127
1, 311897, Note_off_c, 0, 72, 127
1, 311898, Note_on_c, 12, 71, 127
1, 311898, Note_on_c, 7, 55, 127
1, 312032, Note_off_c, 12, 71, 127
1, 312033, Note_on_c, 10, 69, 127
1, 312167, Note_off_c, 10, 69, 127
1, 312168, Note_on_c, 7, 67, 127
1, 312302, Note_off_c, 7, 67, 127
1, 312303, Note_on_c, 5, 65, 127
1, 312437, Note_off_c, 5, 65, 127
1, 312438, Note_on_c, 4, 64, 127
1, 312438, Note_on_c, 0, 48, 127
1, 312572, Note_off_c, 4, 64, 127
1, 312573, Note_off_c, 7, 55, 127
1, 312573, Note_on_c, 7, 67, 127
1, 312573, Note_on_c, 5, 53, 127
1, 312707, Note_off_c, 5, 53, 127
1, 312707, Note_off_c, 7, 67, 127
1, 312708, Note_on_c, 0, 72, 127
1, 312708, Note_on_c, 4, 52, 127
1, 312832, Note_off_c, 0, 48, 127
1, 312842, Note_off_c, 4, 52, 127
1, 312843, Note_on_c, 2, 50, 127
1, 312977, Note_off_c, 2, 50, 127
1, 312978, Note_on_c, 0, 48, 127
1, 313102, Note_off_c, 0, 72, 127
1, 313112, Note_off_c, 0, 48, 127
1, 313113, Note_on_c, 12, 47, 127
1, 313247, Note_off_c, 12, 47, 127
1, 313248, Note_on_c, 0, 72, 127
1, 313248, Note_on_c, 10, 45, 127
1, 313382, Note_off_c, 10, 45, 127
1, 313382, Note_off_c, 0, 72, 127
1, 313383, Note_on_c, 12, 71, 127
1, 313383, Note_on_c, 0, 48, 127
1, 313517, Note_off_c, 0, 48, 127
1, 313517, Note_off_c, 12, 71, 127
1, 313518, Note_on_c, 10, 69, 127
1, 313518, Note_on_c, 5, 53, 127
1, 313652, Note_off_c, 10, 69, 127
1, 313653, Note_on_c, 7, 67, 127
1, 313787, Note_off_c, 7, 67, 127
1, 313788, Note_on_c, 5, 65, 127
1, 313922, Note_off_c, 5, 65, 127
1, 313923, Note_on_c, 4, 64, 127
1, 314057, Note_off_c, 4, 64, 127
1, 314058, Note_on_c, 2, 62, 127
1, 314058, Note_on_c, 12, 47, 127
1, 314192, Note_off_c, 2, 62, 127
1, 314193, Note_off_c, 5, 53, 127
1, 314193, Note_on_c, 5, 65, 127
1, 314193, Note_on_c, 4, 52, 127
1, 314327, Note_off_c, 4, 52, 127
1, 314327, Note_off_c, 5, 65, 127
1, 314328, Note_on_c, 12, 71, 127
1, 314328, Note_on_c, 2, 50, 127
1, 314452, Note_off_c, 12, 47, 127
1, 314462, Note_off_c, 2, 50, 127
1, 314463, Note_on_c, 0, 48, 127
1, 314597, Note_off_c, 0, 48, 127
1, 314598, Note_on_c, 12, 47, 127
1, 314722, Note_off_c, 12, 71, 127
1, 314732, Note_off_c, 12, 47, 127
1, 314733, Note_on_c, 10, 45, 127
1, 314867, Note_off_c, 10, 45, 127
1, 314868, Note_on_c, 12, 71, 127
1, 314868, Note_on_c, 8, 44, 127
1, 315002, Note_off_c, 8, 44, 127
1, 315002, Note_off_c, 12, 71, 127
1, 315003, Note_on_c, 10, 69, 127
1, 315003, Note_on_c, 12, 47, 127
1, 315137, Note_off_c, 12, 47, 127
1, 315137, Note_off_c, 10, 69, 127
1, 315138, Note_on_c, 8, 68, 127
1, 315138, Note_on_c, 4, 52, 127
1, 315272, Note_off_c, 8, 68, 127
1, 315273, Note_on_c, 6, 66, 127
1, 315407, Note_off_c, 6, 66, 127
1, 315408, Note_on_c, 4, 64, 127
1, 315542, Note_off_c, 4, 64, 127
1, 315543, Note_on_c, 2, 62, 127
1, 315673, Note_off_c, 4, 52, 127
1, 315677, Note_off_c, 2, 62, 127
1, 315678, Note_on_c, 0, 60, 127
1, 315678, Note_on_c, 10, 45, 127
1, 315812, Note_off_c, 10, 45, 127
1, 315813, Note_on_c, 4, 64, 127
1, 315813, Note_on_c, 8, 44, 127
1, 315947, Note_off_c, 8, 44, 127
1, 315947, Note_off_c, 4, 64, 127
1, 315948, Note_on_c, 10, 69, 127
1, 315948, Note_on_c, 10, 45, 127
1, 316072, Note_off_c, 0, 60, 127
1, 316082, Note_off_c, 10, 45, 127
1, 316083, Note_on_c, 2, 62, 127
1, 316083, Note_on_c, 12, 47, 127
1, 316217, Note_off_c, 12, 47, 127
1, 316217, Note_off_c, 2, 62, 127
1, 316218, Note_on_c, 4, 64, 127
1, 316218, Note_on_c, 0, 48, 127
1, 316352, Note_off_c, 0, 48, 127
1, 316352, Note_off_c, 4, 64, 127
1, 316353, Note_on_c, 0, 60, 127
1, 316353, Note_on_c, 10, 45, 127
1, 316487, Note_off_c, 10, 45, 127
1, 316487, Note_off_c, 0, 60, 127
1, 316488, Note_on_c, 5, 65, 127
1, 316488, Note_on_c, 2, 50, 127
1, 316622, Note_off_c, 2, 50, 127
1, 316623, Note_off_c, 10, 69, 127
1, 316623, Note_on_c, 12, 71, 127
1, 316623, Note_on_c, 12, 47, 127
1, 316756, Note_off_c, 5, 65, 127
1, 316757, Note_off_c, 12, 47, 127
1, 316757, Note_off_c, 12, 71, 127
1, 316768, Note_on_c, 4, 52, 127
1, 316768, Note_on_c, 12, 59, 127
1, 316768, Note_on_c, 8, 68, 127
1, 316902, Note_off_c, 4, 52, 127
1, 316909, Note_on_c, 2, 50, 127
1, 317043, Note_off_c, 2, 50, 127
1, 317060, Note_on_c, 4, 52, 127
1, 317194, Note_off_c, 4, 52, 127
1, 317195, Note_on_c, 4, 40, 127
1, 317307, Note_off_c, 8, 68, 127
1, 317307, Note_off_c, 12, 59, 127
1, 317329, Note_off_c, 4, 40, 127
1, 317330, Note_on_c, 4, 64, 127
1, 317330, Note_on_c, 10, 69, 127
1, 317330, Note_on_c, 1, 61, 127
1, 317330, Note_on_c, 10, 45, 127
1, 318142, Note_off_c, 10, 45, 127
1, 318142, Note_off_c, 1, 61, 127
1, 318142, Note_off_c, 10, 69, 127
1, 318142, Note_off_c, 4, 64, 127
1, 318159, Note_on_c, 10, 57, 127
1, 318159, Note_on_c, 10, 81, 127
1, 318293, Note_off_c, 10, 81, 127
1, 318294, Note_on_c, 4, 76, 127
1, 318428, Note_off_c, 4, 76, 127
1, 318428, Note_off_c, 10, 57, 127
1, 318429, Note_on_c, 0, 60, 127
1, 318429, Note_on_c, 10, 81, 127
1, 318563, Note_off_c, 10, 81, 127
1, 318564, Note_on_c, 11, 82, 127
1, 318698, Note_off_c, 11, 82, 127
1, 318698, Note_off_c, 0, 60, 127
1, 318699, Note_on_c, 10, 57, 127
1, 318699, Note_on_c, 0, 84, 127
1, 318833, Note_off_c, 0, 84, 127
1, 318834, Note_on_c, 10, 81, 127
1, 318968, Note_off_c, 10, 81, 127
1, 318968, Note_off_c, 10, 57, 127
1, 318969, Note_on_c, 2, 62, 127
1, 318969, Note_on_c, 6, 78, 127
1, 319103, Note_off_c, 2, 62, 127
1, 319104, Note_on_c, 3, 63, 127
1, 319238, Note_off_c, 3, 63, 127
1, 319239, Note_on_c, 2, 62, 127
1, 319373, Note_off_c, 2, 62, 127
1, 319373, Note_off_c, 6, 78, 127
1, 319374, Note_on_c, 0, 60, 127
1, 319374, Note_on_c, 2, 74, 127
1, 319508, Note_off_c, 2, 74, 127
1, 319508, Note_off_c, 0, 60, 127
1, 319509, Note_on_c, 11, 58, 127
1, 319509, Note_on_c, 7, 79, 127
1, 319643, Note_off_c, 7, 79, 127
1, 319644, Note_on_c, 11, 70, 127
1, 319778, Note_off_c, 11, 70, 127
1, 319778, Note_off_c, 11, 58, 127
1, 319779, Note_on_c, 0, 60, 127
1, 319779, Note_on_c, 10, 69, 127
1, 319913, Note_off_c, 10, 69, 127
1, 319914, Note_on_c, 7, 79, 127
1, 320048, Note_off_c, 7, 79, 127
1, 320048, Note_off_c, 0, 60, 127
1, 320049, Note_on_c, 2, 62, 127
1, 320049, Note_on_c, 10, 69, 127
1, 320183, Note_off_c, 10, 69, 127
1, 320184, Note_on_c, 7, 79, 127
1, 320318, Note_off_c, 7, 79, 127
1, 320318, Note_off_c, 2, 62, 127
1, 320319, Note_on_c, 2, 50, 127
1, 320319, Note_on_c, 10, 69, 127
1, 320453, Note_off_c, 10, 69, 127
1, 320454, Note_on_c, 6, 78, 127
1, 320588, Note_off_c, 6, 78, 127
1, 320588, Note_off_c, 2, 50, 127
1, 320589, Note_on_c, 7, 55, 127
1, 320589, Note_on_c, 7, 79, 127
1, 320723, Note_off_c, 7, 79, 127
1, 320724, Note_on_c, 2, 74, 127
1, 320858, Note_off_c, 2, 74, 127
1, 320858, Note_off_c, 7, 55, 127
1, 320859, Note_on_c, 11, 58, 127
1, 320859, Note_on_c, 7, 79, 127
1, 320993, Note_off_c, 7, 79, 127
1, 320994, Note_on_c, 10, 81, 127
1, 321128, Note_off_c, 10, 81, 127
1, 321128, Note_off_c, 11, 58, 127
1, 321129, Note_on_c, 7, 55, 127
1, 321129, Note_on_c, 11, 82, 127
1, 321263, Note_off_c, 11, 82, 127
1, 321264, Note_on_c, 7, 79, 127
1, 321398, Note_off_c, 7, 79, 127
1, 321398, Note_off_c, 7, 55, 127
1, 321399, Note_on_c, 0, 60, 127
1, 321399, Note_on_c, 4, 76, 127
1, 321533, Note_off_c, 0, 60, 127
1, 321534, Note_on_c, 2, 62, 127
1, 321668, Note_off_c, 2, 62, 127
1, 321669, Note_on_c, 0, 60, 127
1, 321803, Note_off_c, 0, 60, 127
1, 321803, Note_off_c, 4, 76, 127
1, 321804, Note_on_c, 11, 58, 127
1, 321804, Note_on_c, 0, 72, 127
1, 321938, Note_off_c, 0, 72, 127
1, 321938, Note_off_c, 11, 58, 127
1, 321939, Note_on_c, 10, 57, 127
1, 321939, Note_on_c, 5, 77, 127
1, 322073, Note_off_c, 5, 77, 127
1, 322074, Note_on_c, 10, 69, 127
1, 322208, Note_off_c, 10, 69, 127
1, 322208, Note_off_c, 10, 57, 127
1, 322209, Note_on_c, 11, 58, 127
1, 322209, Note_on_c, 7, 67, 127
1, 322343, Note_off_c, 7, 67, 127
1, 322344, Note_on_c, 5, 77, 127
1, 322478, Note_off_c, 5, 77, 127
1, 322478, Note_off_c, 11, 58, 127
1, 322479, Note_on_c, 0, 60, 127
1, 322479, Note_on_c, 7, 67, 127
1, 322613, Note_off_c, 7, 67, 127
1, 322614, Note_on_c, 5, 77, 127
1, 322748, Note_off_c, 5, 77, 127
1, 322748, Note_off_c, 0, 60, 127
1, 322749, Note_on_c, 0, 48, 127
1, 322749, Note_on_c, 7, 67, 127
1, 322883, Note_off_c, 7, 67, 127
1, 322884, Note_on_c, 4, 76, 127
1, 323018, Note_off_c, 4, 76, 127
1, 323018, Note_off_c, 0, 48, 127
1, 323019, Note_on_c, 5, 53, 127
1, 323019, Note_on_c, 5, 77, 127
1, 323153, Note_off_c, 5, 77, 127
1, 323154, Note_on_c, 0, 72, 127
1, 323288, Note_off_c, 0, 72, 127
1, 323288, Note_off_c, 5, 53, 127
1, 323289, Note_on_c, 10, 57, 127
1, 323289, Note_on_c, 5, 77, 127
1, 323423, Note_off_c, 5, 77, 127
1, 323424, Note_on_c, 7, 79, 127
1, 323558, Note_off_c, 7, 79, 127
1, 323558, Note_off_c, 10, 57, 127
1, 323559, Note_on_c, 5, 53, 127
1, 323559, Note_on_c, 10, 81, 127
1, 323693, Note_off_c, 10, 81, 127
1, 323694, Note_on_c, 5, 77, 127
1, 323828, Note_off_c, 5, 77, 127
1, 323828, Note_off_c, 5, 53, 127
1, 323829, Note_on_c, 0, 60, 127
1, 323829, Note_on_c, 7, 79, 127
1, 323963, Note_off_c, 7, 79, 127
1, 323964, Note_on_c, 0, 72, 127
1, 324098, Note_off_c, 0, 72, 127
1, 324098, Note_off_c, 0, 60, 127
1, 324099, Note_on_c, 4, 64, 127
1, 324099, Note_on_c, 7, 79, 127
1, 324233, Note_off_c, 7, 79, 127
1, 324234, Note_on_c, 10, 81, 127
1, 324368, Note_off_c, 10, 81, 127
1, 324368, Note_off_c, 4, 64, 127
1, 324369, Note_on_c, 0, 60, 127
1, 324369, Note_on_c, 11, 82, 127
1, 324503, Note_off_c, 11, 82, 127
1, 324504, Note_on_c, 7, 79, 127
1, 324638, Note_off_c, 7, 79, 127
1, 324638, Note_off_c, 0, 60, 127
1, 324639, Note_on_c, 5, 65, 127
1, 324639, Note_on_c, 10, 81, 127
1, 324773, Note_off_c, 10, 81, 127
1, 324774, Note_on_c, 7, 79, 127
1, 324908, Note_off_c, 7, 79, 127
1, 324908, Note_off_c, 5, 65, 127
1, 324909, Note_on_c, 10, 69, 127
1, 324909, Note_on_c, 5, 77, 127
1, 325043, Note_off_c, 5, 77, 127
1, 325044, Note_on_c, 7, 79, 127
1, 325178, Note_off_c, 7, 79, 127
1, 325178, Note_off_c, 10, 69, 127
1, 325179, Note_on_c, 5, 65, 127
1, 325179, Note_on_c, 10, 81, 127
1, 325313, Note_off_c, 10, 81, 127
1, 325314, Note_on_c, 11, 82, 127
1, 325448, Note_off_c, 11, 82, 127
1, 325448, Note_off_c, 5, 65, 127
1, 325449, Note_on_c, 4, 64, 127
1, 325449, Note_on_c, 0, 84, 127
1, 325583, Note_off_c, 4, 64, 127
1, 325584, Note_on_c, 5, 65, 127
1, 325718, Note_off_c, 5, 65, 127
1, 325719, Note_on_c, 4, 64, 127
1, 325719, Note_on_c, 0, 72, 127
1, 325853, Note_off_c, 4, 64, 127
1, 325854, Note_on_c, 2, 62, 127
1, 325988, Note_off_c, 2, 62, 127
1, 325989, Note_on_c, 0, 60, 127
1, 326113, Note_off_c, 0, 72, 127
1, 326123, Note_off_c, 0, 60, 127
1, 326124, Note_off_c, 0, 84, 127
1, 326124, Note_on_c, 11, 58, 127
1, 326258, Note_off_c, 11, 58, 127
1, 326259, Note_on_c, 10, 57, 127
1, 326259, Note_on_c, 5, 77, 127
1, 326398, Note_off_c, 5, 77, 127
1, 326398, Note_off_c, 10, 57, 127
1, 326399, Note_on_c, 0, 60, 127
1, 326399, Note_on_c, 0, 72, 127
1, 326538, Note_off_c, 0, 72, 127
1, 326538, Note_off_c, 0, 60, 127
1, 326539, Note_on_c, 5, 65, 127
1, 326539, Note_on_c, 0, 72, 127
1, 326678, Note_off_c, 0, 72, 127
1, 326679, Note_on_c, 3, 75, 127
1, 326748, Note_off_c, 3, 75, 127
1, 326749, Note_on_c, 2, 74, 127
1, 326818, Note_off_c, 2, 74, 127
1, 326819, Note_on_c, 3, 75, 127
1, 326948, Note_off_c, 5, 65, 127
1, 326958, Note_off_c, 3, 75, 127
1, 326959, Note_on_c, 3, 75, 127
1, 327098, Note_off_c, 3, 75, 127
1, 327099, Note_on_c, 11, 58, 127
1, 327099, Note_on_c, 5, 77, 127
1, 327156, Note_off_c, 5, 77, 127
1, 327157, Note_on_c, 3, 75, 127
1, 327214, Note_off_c, 3, 75, 127
1, 327215, Note_on_c, 5, 77, 127
1, 327237, Note_off_c, 11, 58, 127
1, 327238, Note_on_c, 2, 62, 127
1, 327272, Note_off_c, 5, 77, 127
1, 327272, Note_on_c, 3, 75, 127
1, 327329, Note_off_c, 3, 75, 127
1, 327329, Note_on_c, 2, 74, 127
1, 327374, Note_off_c, 2, 74, 127
1, 327377, Note_off_c, 2, 62, 127
1, 327378, Note_on_c, 5, 65, 127
1, 327378, Note_on_c, 2, 74, 127
1, 327517, Note_off_c, 5, 65, 127
1, 327518, Note_on_c, 3, 63, 127
1, 327657, Note_off_c, 3, 63, 127
1, 327658, Note_on_c, 2, 62, 127
1, 327787, Note_off_c, 2, 74, 127
1, 327797, Note_off_c, 2, 62, 127
1, 327798, Note_on_c, 0, 60, 127
1, 327937, Note_off_c, 0, 60, 127
1, 327938, Note_on_c, 12, 59, 127
1, 327938, Note_on_c, 7, 79, 127
1, 328077, Note_off_c, 7, 79, 127
1, 328077, Note_off_c, 12, 59, 127
1, 328078, Note_on_c, 2, 62, 127
1, 328078, Note_on_c, 2, 74, 127
1, 328217, Note_off_c, 2, 74, 127
1, 328217, Note_off_c, 2, 62, 127
1, 328218, Note_on_c, 7, 67, 127
1, 328218, Note_on_c, 2, 74, 127
1, 328357, Note_off_c, 2, 74, 127
1, 328358, Note_on_c, 5, 77, 127
1, 328427, Note_off_c, 5, 77, 127
1, 328428, Note_on_c, 4, 76, 127
1, 328497, Note_off_c, 4, 76, 127
1, 328498, Note_on_c, 5, 77, 127
1, 328627, Note_off_c, 7, 67, 127
1, 328637, Note_off_c, 5, 77, 127
1, 328638, Note_on_c, 5, 77, 127
1, 328777, Note_off_c, 5, 77, 127
1, 328778, Note_on_c, 0, 60, 127
1, 328778, Note_on_c, 7, 79, 127
1, 328835, Note_off_c, 7, 79, 127
1, 328836, Note_on_c, 5, 77, 127
1, 328893, Note_off_c, 5, 77, 127
1, 328894, Note_on_c, 7, 79, 127
1, 328916, Note_off_c, 0, 60, 127
1, 328917, Note_on_c, 4, 64, 127
1, 328951, Note_off_c, 7, 79, 127
1, 328951, Note_on_c, 5, 77, 127
1, 329008, Note_off_c, 5, 77, 127
1, 329008, Note_on_c, 4, 76, 127
1, 329053, Note_off_c, 4, 76, 127
1, 329056, Note_off_c, 4, 64, 127
1, 329057, Note_on_c, 7, 67, 127
1, 329057, Note_on_c, 4, 76, 127
1, 329196, Note_off_c, 7, 67, 127
1, 329197, Note_on_c, 5, 65, 127
1, 329336, Note_off_c, 5, 65, 127
1, 329337, Note_on_c, 4, 64, 127
1, 329466, Note_off_c, 4, 76, 127
1, 329476, Note_off_c, 4, 64, 127
1, 329477, Note_on_c, 2, 62, 127
1, 329616, Note_off_c, 2, 62, 127
1, 329617, Note_on_c, 1, 61, 127
1, 329617, Note_on_c, 10, 81, 127
1, 329756, Note_off_c, 10, 81, 127
1, 329756, Note_off_c, 1, 61, 127
1, 329757, Note_on_c, 4, 64, 127
1, 329757, Note_on_c, 4, 76, 127
1, 329896, Note_off_c, 4, 76, 127
1, 329896, Note_off_c, 4, 64, 127
1, 329897, Note_on_c, 10, 69, 127
1, 329897, Note_on_c, 4, 76, 127
1, 330036, Note_off_c, 4, 76, 127
1, 330037, Note_on_c, 7, 79, 127
1, 330106, Note_off_c, 7, 79, 127
1, 330107, Note_on_c, 6, 78, 127
1, 330176, Note_off_c, 6, 78, 127
1, 330177, Note_on_c, 7, 79, 127
1, 330306, Note_off_c, 10, 69, 127
1, 330316, Note_off_c, 7, 79, 127
1, 330317, Note_on_c, 7, 79, 127
1, 330456, Note_off_c, 7, 79, 127
1, 330457, Note_on_c, 2, 62, 127
1, 330457, Note_on_c, 10, 81, 127
1, 330514, Note_off_c, 10, 81, 127
1, 330515, Note_on_c, 7, 79, 127
1, 330572, Note_off_c, 7, 79, 127
1, 330573, Note_on_c, 10, 81, 127
1, 330595, Note_off_c, 2, 62, 127
1, 330596, Note_on_c, 6, 66, 127
1, 330630, Note_off_c, 10, 81, 127
1, 330630, Note_on_c, 7, 79, 127
1, 330687, Note_off_c, 7, 79, 127
1, 330687, Note_on_c, 6, 78, 127
1, 330732, Note_off_c, 6, 78, 127
1, 330735, Note_off_c, 6, 66, 127
1, 330736, Note_on_c, 10, 69, 127
1, 330736, Note_on_c, 6, 78, 127
1, 330875, Note_off_c, 10, 69, 127
1, 330876, Note_on_c, 7, 67, 127
1, 331015, Note_off_c, 7, 67, 127
1, 331016, Note_on_c, 6, 66, 127
1, 331145, Note_off_c, 6, 78, 127
1, 331155, Note_off_c, 6, 66, 127
1, 331156, Note_on_c, 4, 64, 127
1, 331295, Note_off_c, 4, 64, 127
1, 331296, Note_on_c, 2, 62, 127
1, 331296, Note_on_c, 11, 82, 127
1, 331435, Note_off_c, 11, 82, 127
1, 331435, Note_off_c, 2, 62, 127
1, 331436, Note_on_c, 5, 65, 127
1, 331436, Note_on_c, 5, 77, 127
1, 331575, Note_off_c, 5, 77, 127
1, 331575, Note_off_c, 5, 65, 127
1, 331576, Note_on_c, 11, 70, 127
1, 331576, Note_on_c, 5, 77, 127
1, 331715, Note_off_c, 5, 77, 127
1, 331716, Note_on_c, 8, 80, 127
1, 331785, Note_off_c, 8, 80, 127
1, 331786, Note_on_c, 7, 79, 127
1, 331855, Note_off_c, 7, 79, 127
1, 331856, Note_on_c, 8, 80, 127
1, 331985, Note_off_c, 11, 70, 127
1, 331995, Note_off_c, 8, 80, 127
1, 331996, Note_on_c, 8, 80, 127
1, 332135, Note_off_c, 8, 80, 127
1, 332136, Note_on_c, 3, 63, 127
1, 332136, Note_on_c, 11, 82, 127
1, 332205, Note_off_c, 11, 82, 127
1, 332206, Note_on_c, 8, 80, 127
1, 332275, Note_off_c, 8, 80, 127
1, 332275, Note_off_c, 3, 63, 127
1, 332276, Note_on_c, 5, 65, 127
1, 332276, Note_on_c, 7, 79, 127
1, 332415, Note_off_c, 7, 79, 127
1, 332415, Note_off_c, 5, 65, 127
1, 332416, Note_on_c, 3, 63, 127
1, 332416, Note_on_c, 7, 79, 127
1, 332555, Note_off_c, 7, 79, 127
1, 332555, Note_off_c, 3, 63, 127
1, 332556, Note_on_c, 2, 62, 127
1, 332556, Note_on_c, 11, 82, 127
1, 332625, Note_off_c, 11, 82, 127
1, 332626, Note_on_c, 10, 81, 127
1, 332695, Note_off_c, 10, 81, 127
1, 332695, Note_off_c, 2, 62, 127
1, 332696, Note_on_c, 0, 60, 127
1, 332696, Note_on_c, 11, 82, 127
1, 332835, Note_off_c, 11, 82, 127
1, 332836, Note_on_c, 0, 84, 127
1, 332975, Note_off_c, 0, 84, 127
1, 332975, Note_off_c, 0, 60, 127
1, 332976, Note_on_c, 5, 65, 127
1, 332976, Note_on_c, 3, 75, 127
1, 333115, Note_off_c, 3, 75, 127
1, 333116, Note_on_c, 5, 77, 127
1, 333255, Note_off_c, 5, 77, 127
1, 333256, Note_on_c, 10, 81, 127
1, 333395, Note_off_c, 10, 81, 127
1, 333395, Note_off_c, 5, 65, 127
1, 333396, Note_on_c, 3, 63, 127
1, 333396, Note_on_c, 7, 79, 127
1, 333535, Note_off_c, 7, 79, 127
1, 333535, Note_off_c, 3, 63, 127
1, 333536, Note_on_c, 2, 62, 127
1, 333536, Note_on_c, 5, 77, 127
1, 333675, Note_off_c, 5, 77, 127
1, 333675, Note_off_c, 2, 62, 127
1, 333676, Note_on_c, 0, 60, 127
1, 333676, Note_on_c, 3, 75, 127
1, 333815, Note_off_c, 3, 75, 127
1, 333815, Note_off_c, 0, 60, 127
1, 333816, Note_on_c, 11, 58, 127
1, 333816, Note_on_c, 2, 74, 127
1, 333955, Note_off_c, 11, 58, 127
1, 333956, Note_on_c, 3, 63, 127
1, 333956, Note_on_c, 11, 82, 127
1, 334079, Note_off_c, 2, 74, 127
1, 334095, Note_off_c, 3, 63, 127
1, 334096, Note_on_c, 5, 65, 127
1, 334096, Note_on_c, 0, 72, 127
1, 334216, Note_off_c, 11, 82, 127
1, 334232, Note_off_c, 5, 65, 127
1, 334233, Note_on_c, 3, 63, 127
1, 334233, Note_on_c, 11, 82, 127
1, 334353, Note_off_c, 0, 72, 127
1, 334369, Note_off_c, 3, 63, 127
1, 334370, Note_on_c, 5, 65, 127
1, 334370, Note_on_c, 0, 72, 127
1, 334490, Note_off_c, 11, 82, 127
1, 334506, Note_off_c, 0, 72, 127
1, 334506, Note_off_c, 5, 65, 127
1, 334507, Note_on_c, 5, 53, 127
1, 334507, Note_on_c, 10, 81, 127
1, 334643, Note_off_c, 10, 81, 127
1, 334643, Note_off_c, 5, 53, 127
1, 334644, Note_on_c, 11, 58, 127
1, 334644, Note_on_c, 11, 70, 127
1, 334780, Note_on_c, 5, 65, 127
1, 334913, Note_off_c, 11, 70, 127
1, 334914, Note_off_c, 5, 65, 127
1, 334914, Note_off_c, 11, 58, 127
1, 334915, Note_on_c, 2, 62, 127
1, 334915, Note_on_c, 11, 70, 127
1, 335049, Note_off_c, 11, 70, 127
1, 335050, Note_on_c, 0, 72, 127
1, 335184, Note_off_c, 0, 72, 127
1, 335184, Note_off_c, 2, 62, 127
1, 335185, Note_on_c, 11, 58, 127
1, 335185, Note_on_c, 2, 74, 127
1, 335319, Note_off_c, 2, 74, 127
1, 335320, Note_on_c, 11, 70, 127
1, 335454, Note_off_c, 11, 70, 127
1, 335454, Note_off_c, 11, 58, 127
1, 335455, Note_on_c, 5, 53, 127
1, 335455, Note_on_c, 0, 72, 127
1, 335591, Note_on_c, 5, 65, 127
1, 335710, Note_off_c, 0, 72, 127
1, 335726, Note_off_c, 5, 65, 127
1, 335726, Note_off_c, 5, 53, 127
1, 335727, Note_on_c, 10, 57, 127
1, 335727, Note_on_c, 0, 72, 127
1, 335861, Note_off_c, 0, 72, 127
1, 335862, Note_on_c, 2, 74, 127
1, 335996, Note_off_c, 2, 74, 127
1, 335996, Note_off_c, 10, 57, 127
1, 335997, Note_on_c, 5, 53, 127
1, 335997, Note_on_c, 3, 75, 127
1, 336131, Note_off_c, 3, 75, 127
1, 336132, Note_on_c, 0, 72, 127
1, 336266, Note_off_c, 0, 72, 127
1, 336266, Note_off_c, 5, 53, 127
1, 336267, Note_on_c, 11, 46, 127
1, 336267, Note_on_c, 2, 74, 127
1, 336401, Note_off_c, 2, 74, 127
1, 336402, Note_on_c, 0, 72, 127
1, 336536, Note_off_c, 0, 72, 127
1, 336536, Note_off_c, 11, 46, 127
1, 336537, Note_on_c, 2, 50, 127
1, 336537, Note_on_c, 11, 70, 127
1, 336671, Note_off_c, 11, 70, 127
1, 336672, Note_on_c, 0, 72, 127
1, 336806, Note_off_c, 0, 72, 127
1, 336806, Note_off_c, 2, 50, 127
1, 336807, Note_on_c, 11, 46, 127
1, 336807, Note_on_c, 2, 74, 127
1, 336941, Note_off_c, 2, 74, 127
1, 336942, Note_on_c, 3, 75, 127
1, 337076, Note_off_c, 3, 75, 127
1, 337076, Note_off_c, 11, 46, 127
1, 337077, Note_on_c, 5, 41, 127
1, 337077, Note_on_c, 5, 77, 127
1, 337213, Note_on_c, 0, 72, 127
1, 337346, Note_off_c, 5, 77, 127
1, 337347, Note_off_c, 0, 72, 127
1, 337348, Note_on_c, 10, 69, 127
1, 337484, Note_on_c, 0, 72, 127
1, 337614, Note_off_c, 5, 41, 127
1, 337617, Note_off_c, 10, 69, 127
1, 337618, Note_off_c, 0, 72, 127
1, 337619, Note_on_c, 5, 65, 127
1, 337755, Note_on_c, 3, 63, 127
1, 337823, Note_off_c, 5, 65, 127
1, 337889, Note_off_c, 3, 63, 127
1, 337890, Note_on_c, 2, 62, 127
1, 337890, Note_on_c, 11, 70, 127
1, 337890, Note_on_c, 5, 77, 127
1, 338024, Note_off_c, 5, 77, 127
1, 338025, Note_on_c, 2, 74, 127
1, 338158, Note_off_c, 11, 70, 127
1, 338159, Note_off_c, 2, 74, 127
1, 338160, Note_on_c, 11, 70, 127
1, 338284, Note_off_c, 2, 62, 127
1, 338295, Note_on_c, 2, 74, 127
1, 338363, Note_off_c, 11, 70, 127
1, 338429, Note_off_c, 2, 74, 127
1, 338430, Note_on_c, 5, 77, 127
1, 338564, Note_off_c, 5, 77, 127
1, 338565, Note_on_c, 11, 70, 127
1, 338699, Note_off_c, 11, 70, 127
1, 338700, Note_on_c, 3, 63, 127
1, 338700, Note_on_c, 7, 79, 127
1, 338836, Note_on_c, 7, 67, 127
1, 338969, Note_off_c, 3, 63, 127
1, 338970, Note_off_c, 7, 67, 127
1, 338971, Note_on_c, 3, 63, 127
1, 339105, Note_off_c, 3, 63, 127
1, 339106, Note_on_c, 7, 67, 127
1, 339240, Note_off_c, 7, 67, 127
1, 339241, Note_on_c, 11, 70, 127
1, 339375, Note_off_c, 11, 70, 127
1, 339376, Note_on_c, 7, 67, 127
1, 339510, Note_off_c, 7, 67, 127
1, 339510, Note_off_c, 7, 79, 127
1, 339511, Note_on_c, 0, 72, 127
1, 339511, Note_on_c, 4, 64, 127
1, 339511, Note_on_c, 7, 79, 127
1, 339645, Note_off_c, 7, 79, 127
1, 339646, Note_on_c, 4, 76, 127
1, 339779, Note_off_c, 0, 72, 127
1, 339780, Note_off_c, 4, 76, 127
1, 339781, Note_on_c, 0, 72, 127
1, 339905, Note_off_c, 4, 64, 127
1, 339916, Note_on_c, 4, 76, 127
1, 339984, Note_off_c, 0, 72, 127
1, 340050, Note_off_c, 4, 76, 127
1, 340051, Note_on_c, 7, 79, 127
1, 340185, Note_off_c, 7, 79, 127
1, 340186, Note_on_c, 0, 72, 127
1, 340320, Note_off_c, 0, 72, 127
1, 340321, Note_on_c, 5, 65, 127
1, 340321, Note_on_c, 10, 81, 127
1, 340457, Note_on_c, 10, 69, 127
1, 340590, Note_off_c, 5, 65, 127
1, 340591, Note_off_c, 10, 69, 127
1, 340592, Note_on_c, 5, 65, 127
1, 340726, Note_off_c, 5, 65, 127
1, 340727, Note_on_c, 10, 69, 127
1, 340861, Note_off_c, 10, 69, 127
1, 340862, Note_on_c, 0, 72, 127
1, 340996, Note_off_c, 0, 72, 127
1, 340997, Note_on_c, 10, 69, 127
1, 341131, Note_off_c, 10, 69, 127
1, 341131, Note_off_c, 10, 81, 127
1, 341132, Note_on_c, 2, 74, 127
1, 341132, Note_on_c, 6, 66, 127
1, 341132, Note_on_c, 10, 81, 127
1, 341266, Note_off_c, 10, 81, 127
1, 341267, Note_on_c, 6, 78, 127
1, 341400, Note_off_c, 2, 74, 127
1, 341401, Note_off_c, 6, 78, 127
1, 341402, Note_on_c, 2, 74, 127
1, 341526, Note_off_c, 6, 66, 127
1, 341537, Note_on_c, 6, 78, 127
1, 341605, Note_off_c, 2, 74, 127
1, 341671, Note_off_c, 6, 78, 127
1, 341672, Note_on_c, 10, 81, 127
1, 341806, Note_off_c, 10, 81, 127
1, 341807, Note_on_c, 2, 74, 127
1, 341941, Note_off_c, 2, 74, 127
1, 341942, Note_on_c, 7, 67, 127
1, 341942, Note_on_c, 11, 82, 127
1, 342076, Note_off_c, 7, 67, 127
1, 342077, Note_on_c, 10, 69, 127
1, 342211, Note_off_c, 10, 69, 127
1, 342212, Note_on_c, 7, 67, 127
1, 342346, Note_off_c, 7, 67, 127
1, 342346, Note_off_c, 11, 82, 127
1, 342347, Note_on_c, 5, 65, 127
1, 342347, Note_on_c, 10, 81, 127
1, 342481, Note_off_c, 10, 81, 127
1, 342481, Note_off_c, 5, 65, 127
1, 342482, Note_on_c, 3, 63, 127
1, 342482, Note_on_c, 7, 79, 127
1, 342616, Note_off_c, 7, 79, 127
1, 342616, Note_off_c, 3, 63, 127
1, 342617, Note_on_c, 2, 62, 127
1, 342617, Note_on_c, 6, 78, 127
1, 342751, Note_off_c, 6, 78, 127
1, 342751, Note_off_c, 2, 62, 127
1, 342752, Note_on_c, 3, 63, 127
1, 342752, Note_on_c, 7, 79, 127
1, 342886, Note_off_c, 7, 79, 127
1, 342886, Note_off_c, 3, 63, 127
1, 342887, Note_on_c, 0, 60, 127
1, 342887, Note_on_c, 10, 81, 127
1, 343021, Note_off_c, 10, 81, 127
1, 343021, Note_off_c, 0, 60, 127
1, 343022, Note_on_c, 2, 62, 127
1, 343022, Note_on_c, 7, 79, 127
1, 343078, Note_off_c, 7, 79, 127
1, 343080, Note_on_c, 6, 78, 127
1, 343136, Note_off_c, 6, 78, 127
1, 343138, Note_on_c, 7, 79, 127
1, 343155, Note_off_c, 2, 62, 127
1, 343156, Note_on_c, 0, 60, 127
1, 343194, Note_off_c, 7, 79, 127
1, 343196, Note_on_c, 6, 78, 127
1, 343290, Note_off_c, 0, 60, 127
1, 343291, Note_on_c, 2, 62, 127
1, 343406, Note_off_c, 6, 78, 127
1, 343425, Note_off_c, 2, 62, 127
1, 343426, Note_on_c, 2, 50, 127
1, 343426, Note_on_c, 7, 79, 127
1, 343546, Note_off_c, 7, 79, 127
1, 343560, Note_off_c, 2, 50, 127
1, 343561, Note_on_c, 7, 55, 127
1, 343561, Note_on_c, 7, 79, 127
1, 343695, Note_off_c, 7, 79, 127
1, 343696, Note_on_c, 2, 74, 127
1, 343830, Note_off_c, 2, 74, 127
1, 343830, Note_off_c, 7, 55, 127
1, 343831, Note_on_c, 11, 58, 127
1, 343831, Note_on_c, 7, 67, 127
1, 343965, Note_off_c, 7, 67, 127
1, 343966, Note_on_c, 11, 70, 127
1, 344100, Note_off_c, 11, 70, 127
1, 344100, Note_off_c, 11, 58, 127
1, 344101, Note_on_c, 7, 55, 127
1, 344101, Note_on_c, 2, 74, 127
1, 344235, Note_off_c, 2, 74, 127
1, 344236, Note_on_c, 5, 77, 127
1, 344370, Note_off_c, 5, 77, 127
1, 344370, Note_off_c, 7, 55, 127
1, 344371, Note_on_c, 0, 48, 127
1, 344371, Note_on_c, 3, 75, 127
1, 344505, Note_off_c, 3, 75, 127
1, 344506, Note_on_c, 7, 79, 127
1, 344640, Note_off_c, 7, 79, 127
1, 344640, Note_off_c, 0, 48, 127
1, 344641, Note_on_c, 3, 51, 127
1, 344641, Note_on_c, 0, 72, 127
1, 344775, Note_off_c, 0, 72, 127
1, 344776, Note_on_c, 3, 75, 127
1, 344910, Note_off_c, 3, 75, 127
1, 344910, Note_off_c, 3, 51, 127
1, 344911, Note_on_c, 0, 48, 127
1, 344911, Note_on_c, 7, 79, 127
1, 345045, Note_off_c, 7, 79, 127
1, 345046, Note_on_c, 11, 70, 127
1, 345180, Note_off_c, 11, 70, 127
1, 345180, Note_off_c, 0, 48, 127
1, 345181, Note_on_c, 5, 53, 127
1, 345181, Note_on_c, 10, 69, 127
1, 345315, Note_off_c, 10, 69, 127
1, 345316, Note_on_c, 0, 72, 127
1, 345450, Note_off_c, 0, 72, 127
1, 345450, Note_off_c, 5, 53, 127
1, 345451, Note_on_c, 10, 57, 127
1, 345451, Note_on_c, 5, 65, 127
1, 345585, Note_off_c, 5, 65, 127
1, 345586, Note_on_c, 10, 69, 127
1, 345720, Note_off_c, 10, 69, 127
1, 345720, Note_off_c, 10, 57, 127
1, 345721, Note_on_c, 5, 53, 127
1, 345721, Note_on_c, 0, 72, 127
1, 345855, Note_off_c, 0, 72, 127
1, 345856, Note_on_c, 3, 75, 127
1, 345990, Note_off_c, 3, 75, 127
1, 345990, Note_off_c, 5, 53, 127
1, 345991, Note_on_c, 11, 46, 127
1, 345991, Note_on_c, 2, 74, 127
1, 346125, Note_off_c, 2, 74, 127
1, 346126, Note_on_c, 5, 77, 127
1, 346260, Note_off_c, 5, 77, 127
1, 346260, Note_off_c, 11, 46, 127
1, 346261, Note_on_c, 2, 50, 127
1, 346261, Note_on_c, 11, 70, 127
1, 346395, Note_off_c, 11, 70, 127
1, 346396, Note_on_c, 2, 74, 127
1, 346530, Note_off_c, 2, 74, 127
1, 346530, Note_off_c, 2, 50, 127
1, 346531, Note_on_c, 11, 46, 127
1, 346531, Note_on_c, 5, 77, 127
1, 346665, Note_off_c, 5, 77, 127
1, 346666, Note_on_c, 8, 68, 127
1, 346800, Note_off_c, 8, 68, 127
1, 346800, Note_off_c, 11, 46, 127
1, 346801, Note_on_c, 3, 51, 127
1, 346801, Note_on_c, 7, 67, 127
1, 346935, Note_off_c, 7, 67, 127
1, 346936, Note_on_c, 11, 70, 127
1, 347070, Note_off_c, 11, 70, 127
1, 347070, Note_off_c, 3, 51, 127
1, 347071, Note_on_c, 7, 55, 127
1, 347071, Note_on_c, 3, 63, 127
1, 347205, Note_off_c, 3, 63, 127
1, 347206, Note_on_c, 7, 67, 127
1, 347340, Note_off_c, 7, 67, 127
1, 347340, Note_off_c, 7, 55, 127
1, 347341, Note_on_c, 3, 51, 127
1, 347341, Note_on_c, 11, 70, 127
1, 347475, Note_off_c, 11, 70, 127
1, 347476, Note_on_c, 2, 74, 127
1, 347610, Note_off_c, 2, 74, 127
1, 347610, Note_off_c, 3, 51, 127
1, 347611, Note_on_c, 10, 45, 127
1, 347611, Note_on_c, 0, 72, 127
1, 347745, Note_off_c, 0, 72, 127
1, 347746, Note_on_c, 3, 75, 127
1, 347880, Note_off_c, 3, 75, 127
1, 347880, Note_off_c, 10, 45, 127
1, 347881, Note_on_c, 0, 48, 127
1, 347881, Note_on_c, 10, 69, 127
1, 348015, Note_off_c, 10, 69, 127
1, 348016, Note_on_c, 0, 72, 127
1, 348150, Note_off_c, 0, 72, 127
1, 348150, Note_off_c, 0, 48, 127
1, 348151, Note_on_c, 10, 45, 127
1, 348151, Note_on_c, 3, 75, 127
1, 348285, Note_off_c, 3, 75, 127
1, 348286, Note_on_c, 7, 67, 127
1, 348420, Note_off_c, 7, 67, 127
1, 348420, Note_off_c, 10, 45, 127
1, 348421, Note_on_c, 2, 50, 127
1, 348421, Note_on_c, 6, 66, 127
1, 348555, Note_off_c, 6, 66, 127
1, 348556, Note_on_c, 10, 69, 127
1, 348690, Note_off_c, 10, 69, 127
1, 348690, Note_off_c, 2, 50, 127
1, 348691, Note_on_c, 6, 54, 127
1, 348691, Note_on_c, 2, 62, 127
1, 348825, Note_off_c, 2, 62, 127
1, 348826, Note_on_c, 6, 66, 127
1, 348960, Note_off_c, 6, 66, 127
1, 348960, Note_off_c, 6, 54, 127
1, 348961, Note_on_c, 2, 50, 127
1, 348961, Note_on_c, 10, 69, 127
1, 349095, Note_off_c, 10, 69, 127
1, 349096, Note_on_c, 0, 72, 127
1, 349230, Note_off_c, 0, 72, 127
1, 349230, Note_off_c, 2, 50, 127
1, 349231, Note_on_c, 7, 43, 127
1, 349231, Note_on_c, 11, 70, 127
1, 349365, Note_off_c, 11, 70, 127
1, 349366, Note_on_c, 2, 74, 127
1, 349500, Note_off_c, 2, 74, 127
1, 349500, Note_off_c, 7, 43, 127
1, 349501, Note_on_c, 11, 46, 127
1, 349501, Note_on_c, 7, 67, 127
1, 349635, Note_off_c, 7, 67, 127
1, 349636, Note_on_c, 11, 70, 127
1, 349770, Note_off_c, 11, 70, 127
1, 349770, Note_off_c, 11, 46, 127
1, 349771, Note_on_c, 7, 43, 127
1, 349771, Note_on_c, 2, 74, 127
1, 349905, Note_off_c, 2, 74, 127
1, 349906, Note_on_c, 7, 79, 127
1, 350040, Note_off_c, 7, 79, 127
1, 350040, Note_off_c, 7, 43, 127
1, 350041, Note_on_c, 10, 45, 127
1, 350041, Note_on_c, 1, 73, 127
1, 350175, Note_off_c, 1, 73, 127
1, 350176, Note_on_c, 10, 69, 127
1, 350310, Note_off_c, 10, 69, 127
1, 350310, Note_off_c, 10, 45, 127
1, 350311, Note_on_c, 10, 57, 127
1, 350311, Note_on_c, 1, 73, 127
1, 350445, Note_off_c, 1, 73, 127
1, 350446, Note_on_c, 10, 69, 127
1, 350580, Note_off_c, 10, 69, 127
1, 350580, Note_off_c, 10, 57, 127
1, 350581, Note_on_c, 7, 55, 127
1, 350581, Note_on_c, 1, 73, 127
1, 350715, Note_off_c, 1, 73, 127
1, 350716, Note_on_c, 10, 69, 127
1, 350850, Note_off_c, 10, 69, 127
1, 350850, Note_off_c, 7, 55, 127
1, 350851, Note_on_c, 5, 53, 127
1, 350851, Note_on_c, 2, 74, 127
1, 350985, Note_off_c, 2, 74, 127
1, 350986, Note_on_c, 10, 69, 127
1, 351120, Note_off_c, 10, 69, 127
1, 351121, Note_on_c, 2, 62, 127
1, 351121, Note_on_c, 2, 74, 127
1, 351255, Note_off_c, 2, 74, 127
1, 351256, Note_on_c, 10, 69, 127
1, 351386, Note_off_c, 5, 53, 127
1, 351390, Note_off_c, 10, 69, 127
1, 351390, Note_off_c, 2, 62, 127
1, 351391, Note_on_c, 4, 52, 127
1, 351391, Note_on_c, 1, 61, 127
1, 351391, Note_on_c, 4, 76, 127
1, 351527, Note_off_c, 4, 76, 127
1, 351528, Note_on_c, 10, 69, 127
1, 351664, Note_off_c, 10, 69, 127
1, 351664, Note_off_c, 1, 61, 127
1, 351664, Note_off_c, 4, 52, 127
1, 351665, Note_on_c, 2, 50, 127
1, 351665, Note_on_c, 2, 62, 127
1, 351665, Note_on_c, 5, 77, 127
1, 351802, Note_on_c, 10, 69, 127
1, 351936, Note_off_c, 5, 77, 127
1, 351937, Note_off_c, 10, 69, 127
1, 351937, Note_off_c, 2, 62, 127
1, 351937, Note_off_c, 2, 50, 127
1, 351938, Note_on_c, 0, 48, 127
1, 351938, Note_on_c, 10, 57, 127
1, 351938, Note_on_c, 5, 77, 127
1, 351938, Note_on_c, 2, 74, 127
1, 352075, Note_on_c, 10, 69, 127
1, 352195, Note_off_c, 2, 74, 127
1, 352195, Note_off_c, 5, 77, 127
1, 352211, Note_off_c, 10, 69, 127
1, 352211, Note_off_c, 10, 57, 127
1, 352211, Note_off_c, 0, 48, 127
1, 352212, Note_on_c, 11, 58, 127
1, 352212, Note_on_c, 11, 46, 127
1, 352212, Note_on_c, 7, 79, 127
1, 352212, Note_on_c, 2, 74, 127
1, 352349, Note_on_c, 7, 67, 127
1, 352469, Note_off_c, 2, 74, 127
1, 352469, Note_off_c, 7, 79, 127
1, 352485, Note_off_c, 7, 67, 127
1, 352485, Note_off_c, 11, 46, 127
1, 352485, Note_off_c, 11, 58, 127
1, 352496, Note_on_c, 1, 73, 127
1, 352496, Note_on_c, 10, 45, 127
1, 352496, Note_on_c, 4, 52, 127
1, 352635, Note_off_c, 1, 73, 127
1, 352642, Note_on_c, 4, 76, 127
1, 352775, Note_off_c, 10, 45, 127
1, 352781, Note_off_c, 4, 76, 127
1, 352782, Note_on_c, 10, 81, 127
1, 352782, Note_on_c, 1, 49, 127
1, 352921, Note_off_c, 10, 81, 127
1, 352922, Note_on_c, 7, 79, 127
1, 353051, Note_off_c, 4, 52, 127
1, 353061, Note_off_c, 7, 79, 127
1, 353061, Note_off_c, 1, 49, 127
1, 353062, Note_on_c, 5, 77, 127
1, 353062, Note_on_c, 2, 50, 127
1, 353062, Note_on_c, 10, 57, 127
1, 353201, Note_off_c, 5, 77, 127
1, 353202, Note_on_c, 4, 76, 127
1, 353341, Note_off_c, 4, 76, 127
1, 353341, Note_off_c, 10, 57, 127
1, 353341, Note_off_c, 2, 50, 127
1, 353342, Note_on_c, 2, 74, 127
1, 353342, Note_on_c, 5, 77, 127
1, 353342, Note_on_c, 7, 55, 127
1, 353342, Note_on_c, 11, 58, 127
1, 353481, Note_off_c, 5, 77, 127
1, 353482, Note_on_c, 7, 79, 127
1, 353551, Note_off_c, 7, 79, 127
1, 353552, Note_on_c, 4, 76, 127
1, 353621, Note_off_c, 4, 76, 127
1, 353621, Note_off_c, 11, 58, 127
1, 353621, Note_off_c, 7, 55, 127
1, 353622, Note_on_c, 5, 77, 127
1, 353622, Note_on_c, 10, 57, 127
1, 353681, Note_off_c, 5, 77, 127
1, 353681, Note_on_c, 4, 76, 127
1, 353740, Note_off_c, 4, 76, 127
1, 353740, Note_on_c, 5, 77, 127
1, 353752, Note_off_c, 2, 74, 127
1, 353799, Note_off_c, 5, 77, 127
1, 353799, Note_on_c, 4, 76, 127
1, 353904, Note_on_c, 1, 73, 127
1, 353904, Note_on_c, 10, 45, 127
1, 354140, Note_off_c, 1, 73, 127
1, 354165, Note_off_c, 4, 76, 127
1, 354180, Note_off_c, 10, 57, 127
1, 354184, Note_off_c, 10, 45, 127
1, 354201, Note_on_c, 2, 50, 127
1, 354201, Note_on_c, 2, 74, 127
1, 354337, Note_off_c, 2, 74, 127
1, 354338, Note_on_c, 10, 69, 127
1, 354474, Note_off_c, 10, 69, 127
1, 354474, Note_off_c, 2, 50, 127
1, 354475, Note_on_c, 5, 53, 127
1, 354475, Note_on_c, 2, 74, 127
1, 354611, Note_off_c, 2, 74, 127
1, 354612, Note_on_c, 4, 76, 127
1, 354748, Note_off_c, 4, 76, 127
1, 354748, Note_off_c, 5, 53, 127
1, 354749, Note_on_c, 2, 50, 127
1, 354749, Note_on_c, 5, 77, 127
1, 354885, Note_off_c, 5, 77, 127
1, 354886, Note_on_c, 2, 74, 127
1, 355022, Note_off_c, 2, 74, 127
1, 355022, Note_off_c, 2, 50, 127
1, 355023, Note_on_c, 10, 57, 127
1, 355023, Note_on_c, 4, 76, 127
1, 355159, Note_off_c, 4, 76, 127
1, 355160, Note_on_c, 10, 69, 127
1, 355296, Note_off_c, 10, 69, 127
1, 355296, Note_off_c, 10, 57, 127
1, 355297, Note_on_c, 1, 61, 127
1, 355297, Note_on_c, 4, 76, 127
1, 355433, Note_off_c, 4, 76, 127
1, 355434, Note_on_c, 5, 77, 127
1, 355570, Note_off_c, 5, 77, 127
1, 355570, Note_off_c, 1, 61, 127
1, 355571, Note_on_c, 10, 57, 127
1, 355571, Note_on_c, 7, 79, 127
1, 355707, Note_off_c, 7, 79, 127
1, 355708, Note_on_c, 4, 76, 127
1, 355844, Note_off_c, 4, 76, 127
1, 355844, Note_off_c, 10, 57, 127
1, 355845, Note_on_c, 2, 62, 127
1, 355845, Note_on_c, 5, 77, 127
1, 355981, Note_off_c, 5, 77, 127
1, 355981, Note_off_c, 2, 62, 127
1, 355982, Note_on_c, 4, 64, 127
1, 355982, Note_on_c, 4, 76, 127
1, 356118, Note_off_c, 4, 76, 127
1, 356118, Note_off_c, 4, 64, 127
1, 356119, Note_on_c, 5, 65, 127
1, 356119, Note_on_c, 2, 74, 127
1, 356255, Note_off_c, 2, 74, 127
1, 356255, Note_off_c, 5, 65, 127
1, 356256, Note_on_c, 7, 67, 127
1, 356256, Note_on_c, 4, 76, 127
1, 356392, Note_off_c, 4, 76, 127
1, 356392, Note_off_c, 7, 67, 127
1, 356393, Note_on_c, 10, 69, 127
1, 356393, Note_on_c, 5, 77, 127
1, 356529, Note_off_c, 5, 77, 127
1, 356529, Note_off_c, 10, 69, 127
1, 356530, Note_on_c, 11, 70, 127
1, 356530, Note_on_c, 7, 79, 127
1, 356666, Note_off_c, 7, 79, 127
1, 356666, Note_off_c, 11, 70, 127
1, 356667, Note_on_c, 1, 61, 127
1, 356667, Note_on_c, 10, 81, 127
1, 356803, Note_off_c, 1, 61, 127
1, 356804, Note_on_c, 2, 62, 127
1, 356940, Note_off_c, 2, 62, 127
1, 356941, Note_on_c, 1, 61, 127
1, 357077, Note_off_c, 1, 61, 127
1, 357078, Note_on_c, 12, 59, 127
1, 357214, Note_off_c, 12, 59, 127
1, 357215, Note_on_c, 10, 57, 127
1, 357215, Note_on_c, 10, 69, 127
1, 357351, Note_off_c, 10, 57, 127
1, 357352, Note_off_c, 10, 81, 127
1, 357352, Note_on_c, 7, 55, 127
1, 357421, Note_off_c, 10, 69, 127
1, 357488, Note_off_c, 7, 55, 127
1, 357489, Note_on_c, 5, 53, 127
1, 357489, Note_on_c, 10, 81, 127
1, 357625, Note_off_c, 10, 81, 127
1, 357625, Note_off_c, 5, 53, 127
1, 357626, Note_on_c, 4, 52, 127
1, 357626, Note_on_c, 7, 79, 127
1, 357762, Note_off_c, 7, 79, 127
1, 357762, Note_off_c, 4, 52, 127
1, 357763, Note_on_c, 2, 50, 127
1, 357763, Note_on_c, 5, 77, 127
1, 357899, Note_off_c, 5, 77, 127
1, 357899, Note_off_c, 2, 50, 127
1, 357900, Note_on_c, 4, 52, 127
1, 357900, Note_on_c, 4, 76, 127
1, 358036, Note_off_c, 4, 76, 127
1, 358036, Note_off_c, 4, 52, 127
1, 358037, Note_on_c, 5, 53, 127
1, 358037, Note_on_c, 2, 74, 127
1, 358173, Note_off_c, 2, 74, 127
1, 358173, Note_off_c, 5, 53, 127
1, 358174, Note_on_c, 2, 50, 127
1, 358174, Note_on_c, 0, 72, 127
1, 358310, Note_off_c, 0, 72, 127
1, 358310, Note_off_c, 2, 50, 127
1, 358311, Note_on_c, 7, 55, 127
1, 358311, Note_on_c, 11, 70, 127
1, 358447, Note_off_c, 11, 70, 127
1, 358447, Note_off_c, 7, 55, 127
1, 358448, Note_on_c, 10, 57, 127
1, 358448, Note_on_c, 2, 74, 127
1, 358584, Note_off_c, 2, 74, 127
1, 358584, Note_off_c, 10, 57, 127
1, 358585, Note_on_c, 11, 58, 127
1, 358585, Note_on_c, 7, 79, 127
1, 358721, Note_off_c, 11, 58, 127
1, 358722, Note_on_c, 10, 57, 127
1, 358858, Note_off_c, 10, 57, 127
1, 358859, Note_on_c, 7, 55, 127
1, 358985, Note_off_c, 7, 79, 127
1, 358995, Note_off_c, 7, 55, 127
1, 358996, Note_on_c, 5, 53, 127
1, 359132, Note_off_c, 5, 53, 127
1, 359133, Note_on_c, 4, 52, 127
1, 359133, Note_on_c, 7, 79, 127
1, 359269, Note_off_c, 7, 79, 127
1, 359269, Note_off_c, 4, 52, 127
1, 359270, Note_on_c, 2, 50, 127
1, 359270, Note_on_c, 5, 77, 127
1, 359406, Note_off_c, 5, 77, 127
1, 359406, Note_off_c, 2, 50, 127
1, 359407, Note_on_c, 0, 48, 127
1, 359407, Note_on_c, 4, 76, 127
1, 359543, Note_off_c, 4, 76, 127
1, 359543, Note_off_c, 0, 48, 127
1, 359544, Note_on_c, 2, 50, 127
1, 359544, Note_on_c, 2, 74, 127
1, 359680, Note_off_c, 2, 74, 127
1, 359680, Note_off_c, 2, 50, 127
1, 359681, Note_on_c, 4, 52, 127
1, 359681, Note_on_c, 0, 72, 127
1, 359817, Note_off_c, 0, 72, 127
1, 359817, Note_off_c, 4, 52, 127
1, 359818, Note_on_c, 0, 48, 127
1, 359818, Note_on_c, 11, 70, 127
1, 359954, Note_off_c, 11, 70, 127
1, 359954, Note_off_c, 0, 48, 127
1, 359955, Note_on_c, 5, 53, 127
1, 359955, Note_on_c, 10, 69, 127
1, 360091, Note_off_c, 10, 69, 127
1, 360091, Note_off_c, 5, 53, 127
1, 360092, Note_on_c, 7, 55, 127
1, 360092, Note_on_c, 0, 72, 127
1, 360228, Note_off_c, 0, 72, 127
1, 360228, Note_off_c, 7, 55, 127
1, 360229, Note_on_c, 10, 57, 127
1, 360229, Note_on_c, 5, 77, 127
1, 360365, Note_off_c, 10, 57, 127
1, 360366, Note_on_c, 7, 55, 127
1, 360502, Note_off_c, 7, 55, 127
1, 360503, Note_on_c, 5, 53, 127
1, 360629, Note_off_c, 5, 77, 127
1, 360639, Note_off_c, 5, 53, 127
1, 360640, Note_on_c, 4, 52, 127
1, 360776, Note_off_c, 4, 52, 127
1, 360777, Note_on_c, 2, 50, 127
1, 360777, Note_on_c, 5, 77, 127
1, 360913, Note_off_c, 5, 77, 127
1, 360913, Note_off_c, 2, 50, 127
1, 360914, Note_on_c, 0, 48, 127
1, 360914, Note_on_c, 4, 76, 127
1, 361050, Note_off_c, 4, 76, 127
1, 361050, Note_off_c, 0, 48, 127
1, 361051, Note_on_c, 11, 46, 127
1, 361051, Note_on_c, 2, 74, 127
1, 361187, Note_off_c, 2, 74, 127
1, 361187, Note_off_c, 11, 46, 127
1, 361188, Note_on_c, 0, 48, 127
1, 361188, Note_on_c, 0, 72, 127
1, 361324, Note_off_c, 0, 72, 127
1, 361324, Note_off_c, 0, 48, 127
1, 361325, Note_on_c, 2, 50, 127
1, 361325, Note_on_c, 11, 70, 127
1, 361461, Note_off_c, 11, 70, 127
1, 361461, Note_off_c, 2, 50, 127
1, 361462, Note_on_c, 11, 46, 127
1, 361462, Note_on_c, 10, 69, 127
1, 361598, Note_off_c, 10, 69, 127
1, 361598, Note_off_c, 11, 46, 127
1, 361599, Note_on_c, 4, 52, 127
1, 361599, Note_on_c, 7, 67, 127
1, 361735, Note_off_c, 7, 67, 127
1, 361735, Note_off_c, 4, 52, 127
1, 361736, Note_on_c, 5, 53, 127
1, 361736, Note_on_c, 11, 70, 127
1, 361872, Note_off_c, 11, 70, 127
1, 361872, Note_off_c, 5, 53, 127
1, 361873, Note_on_c, 7, 55, 127
1, 361873, Note_on_c, 4, 76, 127
1, 362009, Note_off_c, 7, 55, 127
1, 362010, Note_on_c, 5, 53, 127
1, 362146, Note_off_c, 5, 53, 127
1, 362147, Note_on_c, 4, 52, 127
1, 362273, Note_off_c, 4, 76, 127
1, 362283, Note_off_c, 4, 52, 127
1, 362284, Note_on_c, 2, 50, 127
1, 362420, Note_off_c, 2, 50, 127
1, 362421, Note_on_c, 1, 49, 127
1, 362421, Note_on_c, 4, 76, 127
1, 362557, Note_off_c, 4, 76, 127
1, 362557, Note_off_c, 1, 49, 127
1, 362558, Note_on_c, 12, 47, 127
1, 362558, Note_on_c, 2, 74, 127
1, 362694, Note_off_c, 2, 74, 127
1, 362694, Note_off_c, 12, 47, 127
1, 362695, Note_on_c, 10, 45, 127
1, 362695, Note_on_c, 1, 73, 127
1, 362831, Note_off_c, 1, 73, 127
1, 362831, Note_off_c, 10, 45, 127
1, 362832, Note_on_c, 12, 47, 127
1, 362832, Note_on_c, 12, 71, 127
1, 362968, Note_off_c, 12, 71, 127
1, 362968, Note_off_c, 12, 47, 127
1, 362969, Note_on_c, 1, 49, 127
1, 362969, Note_on_c, 10, 69, 127
1, 363106, Note_off_c, 10, 69, 127
1, 363106, Note_off_c, 1, 49, 127
1, 363107, Note_on_c, 10, 45, 127
1, 363107, Note_on_c, 7, 67, 127
1, 363244, Note_off_c, 7, 67, 127
1, 363244, Note_off_c, 10, 45, 127
1, 363245, Note_on_c, 2, 50, 127
1, 363245, Note_on_c, 5, 65, 127
1, 363382, Note_off_c, 2, 50, 127
1, 363383, Note_on_c, 1, 49, 127
1, 363383, Note_on_c, 10, 69, 127
1, 363520, Note_off_c, 10, 69, 127
1, 363520, Note_off_c, 1, 49, 127
1, 363521, Note_on_c, 2, 50, 127
1, 363521, Note_on_c, 2, 74, 127
1, 363648, Note_off_c, 5, 65, 127
1, 363658, Note_off_c, 2, 50, 127
1, 363659, Note_on_c, 4, 52, 127
1, 363659, Note_on_c, 7, 67, 127
1, 363796, Note_off_c, 7, 67, 127
1, 363796, Note_off_c, 4, 52, 127
1, 363797, Note_on_c, 5, 53, 127
1, 363797, Note_on_c, 10, 69, 127
1, 363934, Note_off_c, 10, 69, 127
1, 363934, Note_off_c, 5, 53, 127
1, 363935, Note_on_c, 2, 50, 127
1, 363935, Note_on_c, 5, 65, 127
1, 364072, Note_off_c, 5, 65, 127
1, 364072, Note_off_c, 2, 50, 127
1, 364073, Note_on_c, 7, 55, 127
1, 364073, Note_on_c, 11, 70, 127
1, 364210, Note_off_c, 7, 55, 127
1, 364211, Note_off_c, 2, 74, 127
1, 364211, Note_on_c, 4, 52, 127
1, 364211, Note_on_c, 4, 76, 127
1, 364347, Note_off_c, 11, 70, 127
1, 364348, Note_off_c, 4, 76, 127
1, 364348, Note_off_c, 4, 52, 127
1, 364360, Note_on_c, 4, 64, 127
1, 364360, Note_on_c, 10, 57, 127
1, 364360, Note_on_c, 1, 73, 127
1, 364497, Note_off_c, 10, 57, 127
1, 364503, Note_on_c, 7, 55, 127
1, 364640, Note_off_c, 7, 55, 127
1, 364641, Note_on_c, 10, 57, 127
1, 364783, Note_off_c, 10, 57, 127
1, 364785, Note_on_c, 10, 45, 127
1, 364922, Note_off_c, 1, 73, 127
1, 364922, Note_off_c, 4, 64, 127
1, 364927, Note_off_c, 10, 45, 127
1, 364945, Note_on_c, 2, 50, 127
1, 364945, Note_on_c, 2, 62, 127
1, 365089, Note_on_c, 11, 82, 127
1, 365230, Note_off_c, 2, 62, 127
1, 365232, Note_off_c, 11, 82, 127
1, 365232, Note_off_c, 2, 50, 127
1, 365234, Note_on_c, 2, 62, 127
1, 365234, Note_on_c, 11, 82, 127
1, 365378, Note_off_c, 11, 82, 127
1, 365380, Note_on_c, 10, 81, 127
1, 365524, Note_off_c, 10, 81, 127
1, 365524, Note_off_c, 2, 62, 127
1, 365526, Note_on_c, 0, 60, 127
1, 365526, Note_on_c, 10, 81, 127
1, 365670, Note_off_c, 10, 81, 127
1, 365672, Note_on_c, 7, 79, 127
1, 365816, Note_off_c, 7, 79, 127
1, 365816, Note_off_c, 0, 60, 127
1, 365818, Note_on_c, 11, 58, 127
1, 365818, Note_on_c, 7, 79, 127
1, 365964, Note_off_c, 7, 79, 127
1, 365966, Note_on_c, 4, 76, 127
1, 365966, Note_on_c, 7, 79, 127
1, 366112, Note_off_c, 7, 79, 127
1, 366112, Note_off_c, 4, 76, 127
1, 366112, Note_off_c, 11, 58, 127
1, 366114, Note_on_c, 7, 55, 127
1, 366114, Note_on_c, 7, 79, 127
1, 366114, Note_on_c, 4, 76, 127
1, 366260, Note_off_c, 4, 76, 127
1, 366260, Note_off_c, 7, 79, 127
1, 366262, Note_on_c, 2, 74, 127
1, 366262, Note_on_c, 5, 77, 127
1, 366408, Note_off_c, 5, 77, 127
1, 366408, Note_off_c, 2, 74, 127
1, 366408, Note_off_c, 7, 55, 127
1, 366410, Note_on_c, 4, 52, 127
1, 366410, Note_on_c, 2, 74, 127
1, 366410, Note_on_c, 5, 77, 127
1, 366558, Note_off_c, 5, 77, 127
1, 366558, Note_off_c, 2, 74, 127
1, 366560, Note_on_c, 1, 73, 127
1, 366560, Note_on_c, 4, 76, 127
1, 366708, Note_off_c, 4, 76, 127
1, 366708, Note_off_c, 1, 73, 127
1, 366708, Note_off_c, 4, 52, 127
1, 366710, Note_on_c, 10, 57, 127
1, 366710, Note_on_c, 1, 73, 127
1, 366710, Note_on_c, 4, 76, 127
1, 366858, Note_off_c, 1, 73, 127
1, 366860, Note_on_c, 10, 69, 127
1, 366933, Note_off_c, 10, 69, 127
1, 366935, Note_on_c, 12, 71, 127
1, 367007, Note_off_c, 4, 76, 127
1, 367009, Note_off_c, 12, 71, 127
1, 367009, Note_off_c, 10, 57, 127
1, 367011, Note_on_c, 10, 45, 127
1, 367011, Note_on_c, 1, 73, 127
1, 367161, Note_on_c, 10, 69, 127
1, 367307, Note_off_c, 1, 73, 127
1, 367309, Note_off_c, 10, 69, 127
1, 367309, Note_off_c, 10, 45, 127
1, 367311, Note_on_c, 7, 43, 127
1, 367311, Note_on_c, 1, 73, 127
1, 367461, Note_on_c, 10, 69, 127
1, 367607, Note_off_c, 1, 73, 127
1, 367609, Note_off_c, 10, 69, 127
1, 367609, Note_off_c, 7, 43, 127
1, 367611, Note_on_c, 5, 41, 127
1, 367611, Note_on_c, 2, 74, 127
1, 367687, Note_on_c, 10, 69, 127
1, 367761, Note_off_c, 10, 69, 127
1, 367763, Note_on_c, 12, 71, 127
1, 367839, Note_off_c, 2, 74, 127
1, 367839, Note_on_c, 1, 73, 127
1, 367874, Note_off_c, 12, 71, 127
1, 367913, Note_off_c, 1, 73, 127
1, 367913, Note_off_c, 5, 41, 127
1, 367915, Note_on_c, 5, 53, 127
1, 367915, Note_on_c, 2, 62, 127
1, 367915, Note_on_c, 2, 74, 127
1, 368067, Note_on_c, 10, 69, 127
1, 368089, Note_off_c, 2, 74, 127
1, 368217, Note_off_c, 10, 69, 127
1, 368217, Note_off_c, 2, 62, 127
1, 368217, Note_off_c, 5, 53, 127
1, 368219, Note_on_c, 1, 61, 127
1, 368219, Note_on_c, 4, 52, 127
1, 368219, Note_on_c, 4, 76, 127
1, 368371, Note_on_c, 10, 69, 127
1, 368393, Note_off_c, 4, 76, 127
1, 368521, Note_off_c, 10, 69, 127
1, 368521, Note_off_c, 4, 52, 127
1, 368521, Note_off_c, 1, 61, 127
1, 368523, Note_on_c, 2, 62, 127
1, 368523, Note_on_c, 2, 50, 127
1, 368523, Note_on_c, 5, 77, 127
1, 368675, Note_on_c, 10, 69, 127
1, 368751, Note_off_c, 5, 77, 127
1, 368825, Note_off_c, 10, 69, 127
1, 368825, Note_off_c, 2, 50, 127
1, 368825, Note_off_c, 2, 62, 127
1, 368827, Note_on_c, 10, 57, 127
1, 368827, Note_on_c, 0, 48, 127
1, 368827, Note_on_c, 5, 77, 127
1, 368827, Note_on_c, 2, 74, 127
1, 368979, Note_on_c, 10, 69, 127
1, 369112, Note_off_c, 2, 74, 127
1, 369112, Note_off_c, 5, 77, 127
1, 369129, Note_off_c, 10, 69, 127
1, 369129, Note_off_c, 0, 48, 127
1, 369129, Note_off_c, 10, 57, 127
1, 369131, Note_on_c, 11, 58, 127
1, 369131, Note_on_c, 11, 46, 127
1, 369131, Note_on_c, 2, 74, 127
1, 369131, Note_on_c, 7, 79, 127
1, 369283, Note_on_c, 7, 67, 127
1, 369416, Note_off_c, 7, 79, 127
1, 369416, Note_off_c, 2, 74, 127
1, 369433, Note_off_c, 7, 67, 127
1, 369433, Note_off_c, 11, 46, 127
1, 369433, Note_off_c, 11, 58, 127
1, 369445, Note_on_c, 10, 45, 127
1, 369445, Note_on_c, 4, 52, 127
1, 369445, Note_on_c, 1, 73, 127
1, 369597, Note_off_c, 1, 73, 127
1, 369605, Note_on_c, 4, 76, 127
1, 369751, Note_off_c, 10, 45, 127
1, 369757, Note_off_c, 4, 76, 127
1, 369759, Note_on_c, 10, 81, 127
1, 369759, Note_on_c, 1, 49, 127
1, 369911, Note_off_c, 10, 81, 127
1, 369913, Note_on_c, 7, 79, 127
1, 370054, Note_off_c, 4, 52, 127
1, 370065, Note_off_c, 7, 79, 127
1, 370065, Note_off_c, 1, 49, 127
1, 370067, Note_on_c, 5, 77, 127
1, 370067, Note_on_c, 2, 50, 127
1, 370067, Note_on_c, 10, 57, 127
1, 370219, Note_off_c, 5, 77, 127
1, 370221, Note_on_c, 4, 76, 127
1, 370373, Note_off_c, 4, 76, 127
1, 370373, Note_off_c, 10, 57, 127
1, 370373, Note_off_c, 2, 50, 127
1, 370375, Note_on_c, 2, 74, 127
1, 370375, Note_on_c, 5, 77, 127
1, 370375, Note_on_c, 7, 55, 127
1, 370375, Note_on_c, 11, 58, 127
1, 370527, Note_off_c, 5, 77, 127
1, 370529, Note_on_c, 7, 79, 127
1, 370604, Note_off_c, 7, 79, 127
1, 370606, Note_off_c, 2, 74, 127
1, 370606, Note_on_c, 4, 76, 127
1, 370681, Note_off_c, 4, 76, 127
1, 370681, Note_off_c, 11, 58, 127
1, 370681, Note_off_c, 7, 55, 127
1, 370683, Note_on_c, 1, 73, 127
1, 370683, Note_on_c, 5, 77, 127
1, 370683, Note_on_c, 10, 57, 127
1, 370777, Note_off_c, 5, 77, 127
1, 370779, Note_on_c, 4, 76, 127
1, 370873, Note_off_c, 4, 76, 127
1, 370875, Note_on_c, 5, 77, 127
1, 370969, Note_off_c, 5, 77, 127
1, 370971, Note_on_c, 4, 76, 127
1, 371065, Note_off_c, 4, 76, 127
1, 371067, Note_on_c, 5, 77, 127
1, 371067, Note_on_c, 10, 45, 127
1, 371161, Note_off_c, 5, 77, 127
1, 371163, Note_on_c, 4, 76, 127
1, 371363, Note_off_c, 1, 73, 127
1, 371474, Note_off_c, 4, 76, 127
1, 371474, Note_off_c, 10, 57, 127
1, 371487, Note_off_c, 10, 45, 127
1, 371531, Note_on_c, 2, 50, 127
1, 371531, Note_on_c, 2, 74, 127
1, 371531, Note_on_c, 10, 69, 127
1, 371531, Note_on_c, 6, 66, 127
1, 373529, Note_off_c, 6, 66, 127
1, 373529, Note_off_c, 10, 69, 127
1, 373529, Note_off_c, 2, 74, 127
1, 373529, Note_off_c, 2, 50, 127
1, 379392, End_track
0, 0, End_of_file
