0, 0, Header, 0, 1, 384
1, 0, Start_track
1, 0, Copyright_t, "(C) John Sankey 1998"
1, 0, Program_c, 0, 6
1, 0, Pitch_bend_c, 0, 8192
1, 0, Program_c, 1, 6
1, 0, Pitch_bend_c, 1, 7792
1, 0, Program_c, 2, 6
1, 0, Pitch_bend_c, 2, 7876
1, 0, Program_c, 3, 6
1, 0, Pitch_bend_c, 3, 7952
1, 0, Program_c, 4, 6
1, 0, Pitch_bend_c, 4, 7792
1, 0, Program_c, 5, 6
1, 0, Pitch_bend_c, 5, 8112
1, 0, Program_c, 6, 6
1, 0, Pitch_bend_c, 6, 7712
1, 0, Program_c, 7, 6
1, 0, Pitch_bend_c, 7, 8037
1, 0, Program_c, 8, 6
1, 0, Pitch_bend_c, 8, 7872
1, 0, Program_c, 10, 6
1, 0, Pitch_bend_c, 10, 7712
1, 0, Program_c, 11, 6
1, 0, Pitch_bend_c, 11, 8032
1, 0, Program_c, 12, 6
1, 0, Pitch_bend_c, 12, 7872
1, 0, Tempo, 500000
1, 48, Note_on_c, 5, 53, 127
1, 48, Note_on_c, 10, 57, 127
1, 48, Note_on_c, 5, 65, 127
1, 346, Note_off_c, 5, 65, 127
1, 347, Note_on_c, 10, 69, 127
1, 635, Note_off_c, 10, 69, 127
1, 646, Note_on_c, 0, 72, 127
1, 924, Note_off_c, 0, 72, 127
1, 943, Note_off_c, 10, 57, 127
1, 943, Note_off_c, 5, 53, 127
1, 945, Note_on_c, 5, 77, 127
1, 1543, Note_on_c, 5, 53, 127
1, 1543, Note_on_c, 10, 57, 127
1, 1841, Note_off_c, 10, 57, 127
1, 1841, Note_off_c, 5, 53, 127
1, 1843, Note_on_c, 7, 55, 127
1, 1843, Note_on_c, 11, 58, 127
1, 1991, Note_off_c, 5, 77, 127
1, 1993, Note_on_c, 4, 76, 127
1, 2141, Note_off_c, 4, 76, 127
1, 2143, Note_on_c, 2, 74, 127
1, 2291, Note_off_c, 2, 74, 127
1, 2293, Note_on_c, 0, 72, 127
1, 2441, Note_off_c, 0, 72, 127
1, 2443, Note_on_c, 11, 70, 127
1, 2591, Note_off_c, 11, 70, 127
1, 2593, Note_on_c, 10, 69, 127
1, 2731, Note_off_c, 10, 69, 127
1, 2741, Note_off_c, 11, 58, 127
1, 2741, Note_off_c, 7, 55, 127
1, 2743, Note_on_c, 7, 67, 127
1, 2893, Note_on_c, 5, 65, 127
1, 2901, Note_off_c, 7, 67, 127
1, 3041, Note_off_c, 5, 65, 127
1, 3043, Note_on_c, 4, 64, 127
1, 3191, Note_off_c, 4, 64, 127
1, 3193, Note_on_c, 2, 62, 127
1, 3341, Note_off_c, 2, 62, 127
1, 3343, Note_on_c, 0, 60, 127
1, 3491, Note_off_c, 0, 60, 127
1, 3493, Note_on_c, 11, 58, 127
1, 3631, Note_off_c, 11, 58, 127
1, 3643, Note_on_c, 10, 57, 127
1, 3643, Note_on_c, 0, 60, 127
1, 3793, Note_on_c, 0, 72, 127
1, 3941, Note_off_c, 0, 72, 127
1, 3943, Note_on_c, 2, 74, 127
1, 4091, Note_off_c, 2, 74, 127
1, 4093, Note_on_c, 4, 76, 127
1, 4241, Note_off_c, 4, 76, 127
1, 4243, Note_on_c, 5, 77, 127
1, 4391, Note_off_c, 5, 77, 127
1, 4393, Note_on_c, 7, 79, 127
1, 4541, Note_off_c, 7, 79, 127
1, 4541, Note_off_c, 0, 60, 127
1, 4541, Note_off_c, 10, 57, 127
1, 4543, Note_on_c, 10, 81, 127
1, 4691, Note_off_c, 10, 81, 127
1, 4693, Note_on_c, 11, 82, 127
1, 4831, Note_off_c, 11, 82, 127
1, 4843, Note_on_c, 0, 84, 127
1, 5142, Note_on_c, 10, 57, 127
1, 5142, Note_on_c, 0, 60, 127
1, 5440, Note_off_c, 0, 60, 127
1, 5440, Note_off_c, 10, 57, 127
1, 5442, Note_on_c, 11, 58, 127
1, 5442, Note_on_c, 2, 62, 127
1, 5590, Note_off_c, 0, 84, 127
1, 5592, Note_on_c, 3, 75, 127
1, 5740, Note_off_c, 3, 75, 127
1, 5742, Note_on_c, 2, 74, 127
1, 5890, Note_off_c, 2, 74, 127
1, 5892, Note_on_c, 0, 72, 127
1, 6040, Note_off_c, 0, 72, 127
1, 6042, Note_on_c, 2, 74, 127
1, 6190, Note_off_c, 2, 74, 127
1, 6192, Note_on_c, 5, 77, 127
1, 6340, Note_off_c, 5, 77, 127
1, 6340, Note_off_c, 2, 62, 127
1, 6340, Note_off_c, 11, 58, 127
1, 6342, Note_on_c, 7, 79, 127
1, 6490, Note_off_c, 7, 79, 127
1, 6492, Note_on_c, 10, 81, 127
1, 6640, Note_off_c, 10, 81, 127
1, 6642, Note_on_c, 11, 82, 127
1, 6790, Note_off_c, 11, 82, 127
1, 6792, Note_on_c, 4, 76, 127
1, 6940, Note_off_c, 4, 76, 127
1, 6942, Note_on_c, 11, 58, 127
1, 6942, Note_on_c, 2, 62, 127
1, 6942, Note_on_c, 5, 77, 127
1, 7090, Note_off_c, 5, 77, 127
1, 7092, Note_on_c, 7, 79, 127
1, 7240, Note_off_c, 7, 79, 127
1, 7240, Note_off_c, 2, 62, 127
1, 7242, Note_on_c, 4, 64, 127
1, 7242, Note_on_c, 0, 72, 127
1, 7390, Note_off_c, 11, 58, 127
1, 7392, Note_on_c, 11, 58, 127
1, 7540, Note_off_c, 11, 58, 127
1, 7542, Note_on_c, 10, 57, 127
1, 7690, Note_off_c, 10, 57, 127
1, 7692, Note_on_c, 7, 55, 127
1, 7840, Note_off_c, 7, 55, 127
1, 7842, Note_on_c, 10, 57, 127
1, 7990, Note_off_c, 4, 64, 127
1, 7992, Note_on_c, 0, 60, 127
1, 8140, Note_off_c, 0, 60, 127
1, 8142, Note_on_c, 5, 65, 127
1, 8290, Note_off_c, 0, 72, 127
1, 8292, Note_on_c, 7, 67, 127
1, 8440, Note_off_c, 7, 67, 127
1, 8442, Note_on_c, 10, 69, 127
1, 8590, Note_off_c, 10, 69, 127
1, 8592, Note_on_c, 0, 72, 127
1, 8740, Note_off_c, 0, 72, 127
1, 8740, Note_off_c, 5, 65, 127
1, 8742, Note_on_c, 0, 60, 127
1, 8742, Note_on_c, 4, 76, 127
1, 8890, Note_off_c, 4, 76, 127
1, 8892, Note_on_c, 5, 77, 127
1, 9040, Note_off_c, 5, 77, 127
1, 9040, Note_off_c, 0, 60, 127
1, 9042, Note_on_c, 2, 62, 127
1, 9042, Note_on_c, 11, 70, 127
1, 9190, Note_off_c, 10, 57, 127
1, 9192, Note_on_c, 10, 57, 127
1, 9340, Note_off_c, 10, 57, 127
1, 9342, Note_on_c, 7, 55, 127
1, 9490, Note_off_c, 7, 55, 127
1, 9492, Note_on_c, 5, 53, 127
1, 9640, Note_off_c, 5, 53, 127
1, 9642, Note_on_c, 7, 55, 127
1, 9790, Note_off_c, 2, 62, 127
1, 9792, Note_on_c, 2, 62, 127
1, 9940, Note_off_c, 2, 62, 127
1, 9942, Note_on_c, 4, 64, 127
1, 10090, Note_off_c, 11, 70, 127
1, 10092, Note_on_c, 10, 69, 127
1, 10240, Note_off_c, 10, 69, 127
1, 10242, Note_on_c, 7, 67, 127
1, 10390, Note_off_c, 7, 67, 127
1, 10392, Note_on_c, 11, 70, 127
1, 10540, Note_off_c, 11, 70, 127
1, 10540, Note_off_c, 7, 55, 127
1, 10542, Note_on_c, 0, 60, 127
1, 10542, Note_on_c, 4, 76, 127
1, 10690, Note_off_c, 4, 76, 127
1, 10692, Note_on_c, 7, 79, 127
1, 10840, Note_off_c, 7, 79, 127
1, 10840, Note_off_c, 0, 60, 127
1, 10840, Note_off_c, 4, 64, 127
1, 10842, Note_on_c, 5, 53, 127
1, 10842, Note_on_c, 5, 65, 127
1, 10842, Note_on_c, 10, 69, 127
1, 10990, Note_off_c, 10, 69, 127
1, 10992, Note_on_c, 0, 72, 127
1, 11140, Note_off_c, 0, 72, 127
1, 11140, Note_off_c, 5, 53, 127
1, 11142, Note_on_c, 7, 55, 127
1, 11142, Note_on_c, 11, 70, 127
1, 11290, Note_off_c, 11, 70, 127
1, 11292, Note_on_c, 10, 69, 127
1, 11435, Note_off_c, 5, 65, 127
1, 11440, Note_off_c, 10, 69, 127
1, 11440, Note_off_c, 7, 55, 127
1, 11442, Note_on_c, 10, 57, 127
1, 11442, Note_on_c, 7, 67, 127
1, 11590, Note_off_c, 7, 67, 127
1, 11592, Note_on_c, 5, 65, 127
1, 11740, Note_off_c, 5, 65, 127
1, 11740, Note_off_c, 10, 57, 127
1, 11742, Note_on_c, 12, 47, 127
1, 11742, Note_on_c, 2, 74, 127
1, 11892, Note_on_c, 0, 72, 127
1, 12040, Note_off_c, 0, 72, 127
1, 12040, Note_off_c, 12, 47, 127
1, 12042, Note_on_c, 0, 48, 127
1, 12042, Note_on_c, 12, 71, 127
1, 12190, Note_off_c, 12, 71, 127
1, 12192, Note_on_c, 10, 69, 127
1, 12340, Note_off_c, 10, 69, 127
1, 12340, Note_off_c, 0, 48, 127
1, 12342, Note_on_c, 2, 50, 127
1, 12342, Note_on_c, 7, 67, 127
1, 12490, Note_off_c, 7, 67, 127
1, 12492, Note_on_c, 5, 65, 127
1, 12640, Note_off_c, 5, 65, 127
1, 12640, Note_off_c, 2, 50, 127
1, 12642, Note_on_c, 4, 52, 127
1, 12642, Note_on_c, 7, 67, 127
1, 12790, Note_off_c, 2, 74, 127
1, 12792, Note_on_c, 12, 71, 127
1, 12940, Note_off_c, 12, 71, 127
1, 12940, Note_off_c, 4, 52, 127
1, 12942, Note_on_c, 5, 53, 127
1, 12942, Note_on_c, 10, 69, 127
1, 13079, Note_off_c, 7, 67, 127
1, 13090, Note_off_c, 10, 69, 127
1, 13092, Note_on_c, 7, 67, 127
1, 13240, Note_off_c, 7, 67, 127
1, 13240, Note_off_c, 5, 53, 127
1, 13242, Note_on_c, 7, 55, 127
1, 13242, Note_on_c, 5, 65, 127
1, 13390, Note_off_c, 5, 65, 127
1, 13392, Note_on_c, 4, 64, 127
1, 13540, Note_off_c, 4, 64, 127
1, 13540, Note_off_c, 7, 55, 127
1, 13542, Note_on_c, 10, 45, 127
1, 13542, Note_on_c, 0, 72, 127
1, 13692, Note_on_c, 11, 70, 127
1, 13840, Note_off_c, 11, 70, 127
1, 13840, Note_off_c, 10, 45, 127
1, 13842, Note_on_c, 12, 47, 127
1, 13842, Note_on_c, 10, 69, 127
1, 13990, Note_off_c, 10, 69, 127
1, 13992, Note_on_c, 7, 67, 127
1, 14140, Note_off_c, 7, 67, 127
1, 14140, Note_off_c, 12, 47, 127
1, 14142, Note_on_c, 0, 48, 127
1, 14142, Note_on_c, 5, 65, 127
1, 14290, Note_off_c, 5, 65, 127
1, 14292, Note_on_c, 4, 64, 127
1, 14440, Note_off_c, 4, 64, 127
1, 14440, Note_off_c, 0, 48, 127
1, 14442, Note_on_c, 2, 50, 127
1, 14442, Note_on_c, 5, 65, 127
1, 14590, Note_off_c, 2, 50, 127
1, 14592, Note_on_c, 4, 52, 127
1, 14740, Note_off_c, 4, 52, 127
1, 14740, Note_off_c, 0, 72, 127
1, 14742, Note_on_c, 2, 50, 127
1, 14742, Note_on_c, 10, 69, 127
1, 14890, Note_off_c, 2, 50, 127
1, 14892, Note_on_c, 0, 48, 127
1, 15002, Note_off_c, 10, 69, 127
1, 15040, Note_off_c, 0, 48, 127
1, 15042, Note_on_c, 12, 47, 127
1, 15042, Note_on_c, 2, 74, 127
1, 15190, Note_off_c, 12, 47, 127
1, 15192, Note_on_c, 10, 45, 127
1, 15302, Note_off_c, 2, 74, 127
1, 15340, Note_off_c, 10, 45, 127
1, 15342, Note_on_c, 7, 43, 127
1, 15342, Note_on_c, 12, 71, 127
1, 15490, Note_off_c, 7, 43, 127
1, 15492, Note_on_c, 10, 45, 127
1, 15640, Note_off_c, 10, 45, 127
1, 15640, Note_off_c, 5, 65, 127
1, 15642, Note_on_c, 7, 43, 127
1, 15642, Note_on_c, 2, 62, 127
1, 15790, Note_off_c, 7, 43, 127
1, 15792, Note_on_c, 5, 41, 127
1, 15920, Note_off_c, 2, 62, 127
1, 15940, Note_off_c, 5, 41, 127
1, 15942, Note_on_c, 4, 40, 127
1, 15942, Note_on_c, 7, 67, 127
1, 16090, Note_off_c, 4, 40, 127
1, 16092, Note_on_c, 2, 38, 127
1, 16154, Note_off_c, 12, 71, 127
1, 16220, Note_off_c, 7, 67, 127
1, 16239, Note_off_c, 2, 38, 127
1, 16241, Note_on_c, 0, 36, 127
1, 16241, Note_on_c, 4, 64, 127
1, 16241, Note_on_c, 0, 72, 127
1, 16539, Note_off_c, 0, 36, 127
1, 16541, Note_on_c, 4, 40, 127
1, 16839, Note_off_c, 4, 40, 127
1, 16841, Note_on_c, 7, 43, 127
1, 17139, Note_off_c, 7, 43, 127
1, 17141, Note_on_c, 0, 48, 127
1, 17289, Note_off_c, 0, 72, 127
1, 17291, Note_on_c, 12, 71, 127
1, 17439, Note_off_c, 12, 71, 127
1, 17441, Note_on_c, 10, 69, 127
1, 17589, Note_off_c, 10, 69, 127
1, 17591, Note_on_c, 7, 67, 127
1, 17737, Note_off_c, 4, 64, 127
1, 17739, Note_off_c, 7, 67, 127
1, 17741, Note_on_c, 5, 65, 127
1, 17889, Note_off_c, 5, 65, 127
1, 17891, Note_on_c, 4, 64, 127
1, 18039, Note_off_c, 4, 64, 127
1, 18041, Note_on_c, 2, 62, 127
1, 18041, Note_on_c, 5, 65, 127
1, 18189, Note_off_c, 0, 48, 127
1, 18191, Note_on_c, 4, 52, 127
1, 18339, Note_off_c, 4, 52, 127
1, 18339, Note_off_c, 5, 65, 127
1, 18341, Note_on_c, 2, 50, 127
1, 18341, Note_on_c, 10, 69, 127
1, 18489, Note_off_c, 2, 50, 127
1, 18491, Note_on_c, 0, 48, 127
1, 18611, Note_off_c, 10, 69, 127
1, 18639, Note_off_c, 0, 48, 127
1, 18641, Note_on_c, 12, 47, 127
1, 18641, Note_on_c, 2, 74, 127
1, 18789, Note_off_c, 12, 47, 127
1, 18791, Note_on_c, 10, 45, 127
1, 18911, Note_off_c, 2, 74, 127
1, 18939, Note_off_c, 10, 45, 127
1, 18941, Note_on_c, 12, 47, 127
1, 18941, Note_on_c, 7, 67, 127
1, 19089, Note_off_c, 12, 47, 127
1, 19091, Note_on_c, 2, 50, 127
1, 19239, Note_off_c, 2, 50, 127
1, 19239, Note_off_c, 2, 62, 127
1, 19241, Note_on_c, 0, 48, 127
1, 19241, Note_on_c, 4, 64, 127
1, 19389, Note_off_c, 0, 48, 127
1, 19391, Note_on_c, 12, 47, 127
1, 19509, Note_off_c, 4, 64, 127
1, 19539, Note_off_c, 12, 47, 127
1, 19541, Note_on_c, 10, 45, 127
1, 19541, Note_on_c, 5, 65, 127
1, 19689, Note_off_c, 10, 45, 127
1, 19691, Note_on_c, 7, 43, 127
1, 19809, Note_off_c, 5, 65, 127
1, 19839, Note_off_c, 7, 43, 127
1, 19841, Note_on_c, 0, 48, 127
1, 19841, Note_on_c, 4, 64, 127
1, 19989, Note_off_c, 7, 67, 127
1, 19991, Note_on_c, 7, 67, 127
1, 20137, Note_off_c, 4, 64, 127
1, 20139, Note_off_c, 7, 67, 127
1, 20139, Note_off_c, 0, 48, 127
1, 20141, Note_on_c, 4, 52, 127
1, 20141, Note_on_c, 10, 69, 127
1, 20289, Note_off_c, 10, 69, 127
1, 20291, Note_on_c, 12, 71, 127
1, 20439, Note_off_c, 12, 71, 127
1, 20439, Note_off_c, 4, 52, 127
1, 20441, Note_on_c, 7, 55, 127
1, 20441, Note_on_c, 0, 72, 127
1, 20589, Note_off_c, 0, 72, 127
1, 20591, Note_on_c, 2, 74, 127
1, 20739, Note_off_c, 2, 74, 127
1, 20739, Note_off_c, 7, 55, 127
1, 20741, Note_on_c, 0, 60, 127
1, 20741, Note_on_c, 4, 76, 127
1, 20889, Note_off_c, 4, 76, 127
1, 20891, Note_on_c, 5, 77, 127
1, 21039, Note_off_c, 5, 77, 127
1, 21041, Note_on_c, 7, 79, 127
1, 21189, Note_off_c, 7, 79, 127
1, 21191, Note_on_c, 10, 81, 127
1, 21339, Note_off_c, 10, 81, 127
1, 21341, Note_on_c, 12, 83, 127
1, 21489, Note_off_c, 12, 83, 127
1, 21491, Note_on_c, 0, 84, 127
1, 21639, Note_off_c, 0, 84, 127
1, 21641, Note_on_c, 6, 78, 127
1, 21789, Note_off_c, 0, 60, 127
1, 21791, Note_on_c, 2, 62, 127
1, 21939, Note_off_c, 2, 62, 127
1, 21939, Note_off_c, 6, 78, 127
1, 21941, Note_on_c, 0, 60, 127
1, 21941, Note_on_c, 2, 74, 127
1, 22089, Note_off_c, 2, 74, 127
1, 22089, Note_off_c, 0, 60, 127
1, 22091, Note_on_c, 11, 58, 127
1, 22091, Note_on_c, 4, 76, 127
1, 22239, Note_off_c, 4, 76, 127
1, 22239, Note_off_c, 11, 58, 127
1, 22241, Note_on_c, 10, 57, 127
1, 22241, Note_on_c, 6, 78, 127
1, 22389, Note_off_c, 6, 78, 127
1, 22389, Note_off_c, 10, 57, 127
1, 22391, Note_on_c, 7, 55, 127
1, 22391, Note_on_c, 7, 79, 127
1, 22539, Note_off_c, 7, 79, 127
1, 22539, Note_off_c, 7, 55, 127
1, 22541, Note_on_c, 6, 54, 127
1, 22541, Note_on_c, 10, 81, 127
1, 22689, Note_off_c, 6, 54, 127
1, 22691, Note_on_c, 10, 57, 127
1, 22839, Note_off_c, 10, 57, 127
1, 22841, Note_on_c, 7, 55, 127
1, 22841, Note_on_c, 10, 69, 127
1, 22989, Note_off_c, 7, 55, 127
1, 22991, Note_on_c, 6, 54, 127
1, 23111, Note_off_c, 10, 69, 127
1, 23139, Note_off_c, 6, 54, 127
1, 23141, Note_on_c, 4, 52, 127
1, 23141, Note_on_c, 0, 72, 127
1, 23289, Note_off_c, 4, 52, 127
1, 23291, Note_on_c, 2, 50, 127
1, 23411, Note_off_c, 0, 72, 127
1, 23439, Note_off_c, 2, 50, 127
1, 23441, Note_on_c, 7, 55, 127
1, 23441, Note_on_c, 11, 70, 127
1, 23589, Note_off_c, 11, 70, 127
1, 23591, Note_on_c, 10, 69, 127
1, 23593, Note_off_c, 10, 81, 127
1, 23739, Note_off_c, 10, 69, 127
1, 23739, Note_off_c, 7, 55, 127
1, 23741, Note_on_c, 11, 58, 127
1, 23741, Note_on_c, 7, 67, 127
1, 23889, Note_off_c, 7, 67, 127
1, 23891, Note_on_c, 10, 69, 127
1, 24039, Note_off_c, 10, 69, 127
1, 24039, Note_off_c, 11, 58, 127
1, 24041, Note_on_c, 2, 62, 127
1, 24041, Note_on_c, 11, 70, 127
1, 24189, Note_off_c, 11, 70, 127
1, 24191, Note_on_c, 0, 72, 127
1, 24339, Note_off_c, 0, 72, 127
1, 24339, Note_off_c, 2, 62, 127
1, 24341, Note_on_c, 7, 67, 127
1, 24341, Note_on_c, 2, 74, 127
1, 24489, Note_off_c, 2, 74, 127
1, 24491, Note_on_c, 4, 76, 127
1, 24639, Note_off_c, 4, 76, 127
1, 24641, Note_on_c, 5, 77, 127
1, 24789, Note_off_c, 5, 77, 127
1, 24791, Note_on_c, 7, 79, 127
1, 24939, Note_off_c, 7, 79, 127
1, 24941, Note_on_c, 10, 81, 127
1, 25089, Note_off_c, 10, 81, 127
1, 25091, Note_on_c, 11, 82, 127
1, 25239, Note_off_c, 11, 82, 127
1, 25241, Note_on_c, 1, 73, 127
1, 25389, Note_off_c, 7, 67, 127
1, 25391, Note_on_c, 10, 69, 127
1, 25539, Note_off_c, 10, 69, 127
1, 25539, Note_off_c, 1, 73, 127
1, 25541, Note_on_c, 7, 67, 127
1, 25541, Note_on_c, 4, 76, 127
1, 25689, Note_off_c, 7, 67, 127
1, 25691, Note_on_c, 5, 65, 127
1, 25839, Note_off_c, 5, 65, 127
1, 25839, Note_off_c, 4, 76, 127
1, 25841, Note_on_c, 4, 64, 127
1, 25841, Note_on_c, 7, 79, 127
1, 25989, Note_off_c, 4, 64, 127
1, 25991, Note_on_c, 2, 62, 127
1, 26139, Note_off_c, 2, 62, 127
1, 26141, Note_on_c, 1, 61, 127
1, 26141, Note_on_c, 10, 69, 127
1, 26289, Note_off_c, 1, 61, 127
1, 26291, Note_on_c, 4, 64, 127
1, 26439, Note_off_c, 4, 64, 127
1, 26441, Note_on_c, 2, 62, 127
1, 26441, Note_on_c, 12, 71, 127
1, 26589, Note_off_c, 12, 71, 127
1, 26589, Note_off_c, 2, 62, 127
1, 26591, Note_on_c, 1, 61, 127
1, 26591, Note_on_c, 1, 73, 127
1, 26739, Note_off_c, 1, 73, 127
1, 26739, Note_off_c, 1, 61, 127
1, 26741, Note_on_c, 12, 59, 127
1, 26741, Note_on_c, 2, 74, 127
1, 26887, Note_off_c, 7, 79, 127
1, 26889, Note_off_c, 2, 74, 127
1, 26889, Note_off_c, 12, 59, 127
1, 26891, Note_on_c, 10, 57, 127
1, 26891, Note_on_c, 4, 76, 127
1, 27039, Note_off_c, 4, 76, 127
1, 27039, Note_off_c, 10, 57, 127
1, 27039, Note_off_c, 10, 69, 127
1, 27041, Note_on_c, 2, 62, 127
1, 27041, Note_on_c, 5, 77, 127
1, 27189, Note_off_c, 5, 77, 127
1, 27191, Note_on_c, 10, 81, 127
1, 27339, Note_off_c, 10, 81, 127
1, 27339, Note_off_c, 2, 62, 127
1, 27341, Note_on_c, 10, 57, 127
1, 27341, Note_on_c, 5, 77, 127
1, 27489, Note_off_c, 5, 77, 127
1, 27491, Note_on_c, 2, 74, 127
1, 27639, Note_off_c, 2, 74, 127
1, 27639, Note_off_c, 10, 57, 127
1, 27641, Note_on_c, 5, 53, 127
1, 27641, Note_on_c, 0, 72, 127
1, 27789, Note_off_c, 0, 72, 127
1, 27791, Note_on_c, 2, 74, 127
1, 27939, Note_off_c, 2, 74, 127
1, 27939, Note_off_c, 5, 53, 127
1, 27941, Note_on_c, 2, 50, 127
1, 27941, Note_on_c, 5, 77, 127
1, 28091, Note_on_c, 11, 82, 127
1, 28222, Note_off_c, 5, 77, 127
1, 28239, Note_off_c, 11, 82, 127
1, 28241, Note_on_c, 5, 77, 127
1, 28389, Note_off_c, 5, 77, 127
1, 28391, Note_on_c, 2, 74, 127
1, 28534, Note_off_c, 2, 50, 127
1, 28539, Note_off_c, 2, 74, 127
1, 28541, Note_on_c, 0, 72, 127
1, 28689, Note_off_c, 0, 72, 127
1, 28691, Note_on_c, 2, 74, 127
1, 28839, Note_off_c, 2, 74, 127
1, 28841, Note_on_c, 4, 76, 127
1, 28989, Note_off_c, 4, 76, 127
1, 28991, Note_on_c, 7, 79, 127
1, 29139, Note_off_c, 7, 79, 127
1, 29141, Note_on_c, 7, 55, 127
1, 29141, Note_on_c, 4, 76, 127
1, 29289, Note_off_c, 4, 76, 127
1, 29291, Note_on_c, 11, 70, 127
1, 29439, Note_off_c, 11, 70, 127
1, 29439, Note_off_c, 7, 55, 127
1, 29441, Note_on_c, 11, 58, 127
1, 29441, Note_on_c, 10, 69, 127
1, 29589, Note_off_c, 10, 69, 127
1, 29591, Note_on_c, 11, 70, 127
1, 29739, Note_off_c, 11, 70, 127
1, 29739, Note_off_c, 11, 58, 127
1, 29741, Note_on_c, 0, 48, 127
1, 29741, Note_on_c, 3, 75, 127
1, 29891, Note_on_c, 10, 81, 127
1, 30022, Note_off_c, 3, 75, 127
1, 30039, Note_off_c, 10, 81, 127
1, 30041, Note_on_c, 3, 75, 127
1, 30189, Note_off_c, 3, 75, 127
1, 30191, Note_on_c, 0, 72, 127
1, 30339, Note_off_c, 0, 72, 127
1, 30341, Note_on_c, 12, 71, 127
1, 30489, Note_off_c, 12, 71, 127
1, 30491, Note_on_c, 0, 72, 127
1, 30639, Note_off_c, 0, 72, 127
1, 30641, Note_on_c, 2, 74, 127
1, 30787, Note_off_c, 0, 48, 127
1, 30789, Note_off_c, 2, 74, 127
1, 30791, Note_on_c, 6, 78, 127
1, 30939, Note_off_c, 6, 78, 127
1, 30941, Note_on_c, 6, 54, 127
1, 30941, Note_on_c, 2, 74, 127
1, 31089, Note_off_c, 2, 74, 127
1, 31091, Note_on_c, 10, 69, 127
1, 31239, Note_off_c, 10, 69, 127
1, 31239, Note_off_c, 6, 54, 127
1, 31241, Note_on_c, 10, 57, 127
1, 31241, Note_on_c, 7, 67, 127
1, 31389, Note_off_c, 7, 67, 127
1, 31391, Note_on_c, 10, 69, 127
1, 31539, Note_off_c, 10, 69, 127
1, 31539, Note_off_c, 10, 57, 127
1, 31541, Note_on_c, 11, 46, 127
1, 31541, Note_on_c, 2, 74, 127
1, 31691, Note_on_c, 7, 79, 127
1, 31760, Note_off_c, 2, 74, 127
1, 31839, Note_off_c, 7, 79, 127
1, 31839, Note_off_c, 11, 46, 127
1, 31841, Note_on_c, 7, 55, 127
1, 31841, Note_on_c, 2, 74, 127
1, 31989, Note_off_c, 2, 74, 127
1, 31991, Note_on_c, 11, 70, 127
1, 32139, Note_off_c, 11, 70, 127
1, 32139, Note_off_c, 7, 55, 127
1, 32141, Note_on_c, 11, 58, 127
1, 32141, Note_on_c, 10, 69, 127
1, 32289, Note_off_c, 10, 69, 127
1, 32291, Note_on_c, 11, 70, 127
1, 32439, Note_off_c, 11, 70, 127
1, 32439, Note_off_c, 11, 58, 127
1, 32441, Note_on_c, 1, 49, 127
1, 32441, Note_on_c, 4, 76, 127
1, 32591, Note_on_c, 7, 79, 127
1, 32644, Note_off_c, 4, 76, 127
1, 32739, Note_off_c, 7, 79, 127
1, 32739, Note_off_c, 1, 49, 127
1, 32741, Note_on_c, 7, 55, 127
1, 32741, Note_on_c, 4, 76, 127
1, 32889, Note_off_c, 4, 76, 127
1, 32891, Note_on_c, 11, 70, 127
1, 33039, Note_off_c, 11, 70, 127
1, 33039, Note_off_c, 7, 55, 127
1, 33041, Note_on_c, 11, 58, 127
1, 33041, Note_on_c, 10, 69, 127
1, 33189, Note_off_c, 10, 69, 127
1, 33191, Note_on_c, 11, 70, 127
1, 33339, Note_off_c, 11, 70, 127
1, 33339, Note_off_c, 11, 58, 127
1, 33341, Note_on_c, 10, 45, 127
1, 33341, Note_on_c, 4, 76, 127
1, 33491, Note_on_c, 7, 79, 127
1, 33544, Note_off_c, 4, 76, 127
1, 33639, Note_off_c, 7, 79, 127
1, 33639, Note_off_c, 10, 45, 127
1, 33641, Note_on_c, 1, 49, 127
1, 33641, Note_on_c, 4, 76, 127
1, 33789, Note_off_c, 4, 76, 127
1, 33791, Note_on_c, 1, 73, 127
1, 33939, Note_off_c, 1, 73, 127
1, 33939, Note_off_c, 1, 49, 127
1, 33941, Note_on_c, 4, 52, 127
1, 33941, Note_on_c, 10, 69, 127
1, 34089, Note_off_c, 10, 69, 127
1, 34091, Note_on_c, 1, 73, 127
1, 34239, Note_off_c, 1, 73, 127
1, 34239, Note_off_c, 4, 52, 127
1, 34241, Note_on_c, 2, 50, 127
1, 34241, Note_on_c, 5, 77, 127
1, 34389, Note_off_c, 5, 77, 127
1, 34391, Note_on_c, 4, 76, 127
1, 34521, Note_off_c, 2, 50, 127
1, 34539, Note_off_c, 4, 76, 127
1, 34541, Note_on_c, 5, 53, 127
1, 34541, Note_on_c, 2, 74, 127
1, 34689, Note_off_c, 2, 74, 127
1, 34691, Note_on_c, 0, 72, 127
1, 34821, Note_off_c, 5, 53, 127
1, 34839, Note_off_c, 0, 72, 127
1, 34841, Note_on_c, 10, 57, 127
1, 34841, Note_on_c, 11, 70, 127
1, 34989, Note_off_c, 11, 70, 127
1, 34991, Note_on_c, 10, 69, 127
1, 35121, Note_off_c, 10, 57, 127
1, 35139, Note_off_c, 10, 69, 127
1, 35141, Note_on_c, 2, 62, 127
1, 35141, Note_on_c, 11, 70, 127
1, 35289, Note_off_c, 11, 70, 127
1, 35291, Note_on_c, 5, 77, 127
1, 35439, Note_off_c, 5, 77, 127
1, 35441, Note_on_c, 2, 74, 127
1, 35589, Note_off_c, 2, 74, 127
1, 35591, Note_on_c, 11, 70, 127
1, 35739, Note_off_c, 11, 70, 127
1, 35741, Note_on_c, 10, 69, 127
1, 35889, Note_off_c, 10, 69, 127
1, 35891, Note_on_c, 11, 70, 127
1, 36039, Note_off_c, 11, 70, 127
1, 36041, Note_on_c, 8, 68, 127
1, 36176, Note_off_c, 2, 62, 127
1, 36191, Note_on_c, 4, 64, 127
1, 36339, Note_off_c, 4, 64, 127
1, 36339, Note_off_c, 8, 68, 127
1, 36341, Note_on_c, 2, 62, 127
1, 36341, Note_on_c, 12, 71, 127
1, 36489, Note_off_c, 2, 62, 127
1, 36491, Note_on_c, 0, 60, 127
1, 36639, Note_off_c, 0, 60, 127
1, 36641, Note_on_c, 12, 59, 127
1, 36641, Note_on_c, 2, 74, 127
1, 36789, Note_off_c, 12, 59, 127
1, 36791, Note_on_c, 10, 57, 127
1, 36939, Note_off_c, 10, 57, 127
1, 36939, Note_off_c, 2, 74, 127
1, 36941, Note_on_c, 8, 56, 127
1, 36941, Note_on_c, 5, 77, 127
1, 37089, Note_off_c, 8, 56, 127
1, 37091, Note_on_c, 10, 57, 127
1, 37239, Note_off_c, 10, 57, 127
1, 37239, Note_off_c, 5, 77, 127
1, 37241, Note_on_c, 8, 56, 127
1, 37241, Note_on_c, 4, 76, 127
1, 37389, Note_off_c, 8, 56, 127
1, 37389, Note_off_c, 12, 71, 127
1, 37391, Note_on_c, 6, 54, 127
1, 37391, Note_on_c, 2, 74, 127
1, 37539, Note_off_c, 2, 74, 127
1, 37539, Note_off_c, 6, 54, 127
1, 37541, Note_on_c, 4, 52, 127
1, 37541, Note_on_c, 0, 72, 127
1, 37689, Note_off_c, 0, 72, 127
1, 37689, Note_off_c, 4, 52, 127
1, 37691, Note_on_c, 2, 50, 127
1, 37691, Note_on_c, 12, 71, 127
1, 37839, Note_off_c, 12, 71, 127
1, 37839, Note_off_c, 2, 50, 127
1, 37841, Note_on_c, 0, 48, 127
1, 37841, Note_on_c, 10, 69, 127
1, 37989, Note_off_c, 4, 76, 127
1, 37991, Note_on_c, 5, 77, 127
1, 38121, Note_off_c, 0, 48, 127
1, 38137, Note_off_c, 10, 69, 127
1, 38139, Note_off_c, 5, 77, 127
1, 38141, Note_on_c, 4, 52, 127
1, 38141, Note_on_c, 4, 76, 127
1, 38289, Note_off_c, 4, 76, 127
1, 38291, Note_on_c, 2, 74, 127
1, 38421, Note_off_c, 4, 52, 127
1, 38439, Note_off_c, 2, 74, 127
1, 38441, Note_on_c, 10, 57, 127
1, 38441, Note_on_c, 0, 72, 127
1, 38589, Note_off_c, 0, 72, 127
1, 38591, Note_on_c, 12, 71, 127
1, 38721, Note_off_c, 10, 57, 127
1, 38739, Note_off_c, 12, 71, 127
1, 38741, Note_on_c, 0, 60, 127
1, 38741, Note_on_c, 10, 69, 127
1, 38889, Note_off_c, 10, 69, 127
1, 38891, Note_on_c, 3, 75, 127
1, 39039, Note_off_c, 3, 75, 127
1, 39041, Note_on_c, 0, 72, 127
1, 39189, Note_off_c, 0, 72, 127
1, 39191, Note_on_c, 10, 69, 127
1, 39339, Note_off_c, 10, 69, 127
1, 39341, Note_on_c, 7, 67, 127
1, 39489, Note_off_c, 7, 67, 127
1, 39491, Note_on_c, 10, 69, 127
1, 39639, Note_off_c, 10, 69, 127
1, 39641, Note_on_c, 6, 66, 127
1, 39767, Note_off_c, 0, 60, 127
1, 39790, Note_on_c, 2, 62, 127
1, 39938, Note_off_c, 2, 62, 127
1, 39938, Note_off_c, 6, 66, 127
1, 39940, Note_on_c, 0, 60, 127
1, 39940, Note_on_c, 10, 69, 127
1, 40088, Note_off_c, 0, 60, 127
1, 40090, Note_on_c, 11, 58, 127
1, 40238, Note_off_c, 11, 58, 127
1, 40240, Note_on_c, 10, 57, 127
1, 40240, Note_on_c, 0, 72, 127
1, 40388, Note_off_c, 10, 57, 127
1, 40390, Note_on_c, 7, 55, 127
1, 40538, Note_off_c, 7, 55, 127
1, 40538, Note_off_c, 0, 72, 127
1, 40540, Note_on_c, 6, 54, 127
1, 40540, Note_on_c, 3, 75, 127
1, 40688, Note_off_c, 6, 54, 127
1, 40690, Note_on_c, 7, 55, 127
1, 40821, Note_off_c, 3, 75, 127
1, 40838, Note_off_c, 7, 55, 127
1, 40840, Note_on_c, 6, 54, 127
1, 40840, Note_on_c, 2, 74, 127
1, 40988, Note_off_c, 6, 54, 127
1, 40988, Note_off_c, 10, 69, 127
1, 40990, Note_on_c, 4, 52, 127
1, 40990, Note_on_c, 0, 72, 127
1, 41138, Note_off_c, 0, 72, 127
1, 41138, Note_off_c, 4, 52, 127
1, 41140, Note_on_c, 2, 50, 127
1, 41140, Note_on_c, 11, 70, 127
1, 41288, Note_off_c, 11, 70, 127
1, 41288, Note_off_c, 2, 50, 127
1, 41290, Note_on_c, 0, 48, 127
1, 41290, Note_on_c, 10, 69, 127
1, 41438, Note_off_c, 10, 69, 127
1, 41438, Note_off_c, 0, 48, 127
1, 41440, Note_on_c, 11, 46, 127
1, 41440, Note_on_c, 7, 67, 127
1, 41588, Note_off_c, 2, 74, 127
1, 41590, Note_on_c, 3, 75, 127
1, 41736, Note_off_c, 7, 67, 127
1, 41738, Note_off_c, 3, 75, 127
1, 41738, Note_off_c, 11, 46, 127
1, 41740, Note_on_c, 2, 50, 127
1, 41740, Note_on_c, 2, 74, 127
1, 41888, Note_off_c, 2, 74, 127
1, 41890, Note_on_c, 0, 72, 127
1, 42038, Note_off_c, 0, 72, 127
1, 42038, Note_off_c, 2, 50, 127
1, 42040, Note_on_c, 7, 55, 127
1, 42040, Note_on_c, 11, 70, 127
1, 42188, Note_off_c, 11, 70, 127
1, 42190, Note_on_c, 10, 69, 127
1, 42338, Note_off_c, 10, 69, 127
1, 42338, Note_off_c, 7, 55, 127
1, 42340, Note_on_c, 11, 58, 127
1, 42340, Note_on_c, 7, 67, 127
1, 42488, Note_off_c, 7, 67, 127
1, 42490, Note_on_c, 10, 69, 127
1, 42638, Note_off_c, 10, 69, 127
1, 42640, Note_on_c, 2, 62, 127
1, 42640, Note_on_c, 11, 70, 127
1, 42788, Note_off_c, 11, 70, 127
1, 42790, Note_on_c, 0, 72, 127
1, 42938, Note_off_c, 0, 72, 127
1, 42938, Note_off_c, 2, 62, 127
1, 42940, Note_on_c, 7, 67, 127
1, 42940, Note_on_c, 2, 74, 127
1, 43088, Note_off_c, 2, 74, 127
1, 43090, Note_on_c, 4, 76, 127
1, 43238, Note_off_c, 4, 76, 127
1, 43238, Note_off_c, 7, 67, 127
1, 43240, Note_on_c, 0, 60, 127
1, 43240, Note_on_c, 5, 77, 127
1, 43388, Note_off_c, 5, 77, 127
1, 43390, Note_on_c, 4, 76, 127
1, 43538, Note_off_c, 4, 76, 127
1, 43538, Note_off_c, 11, 58, 127
1, 43540, Note_on_c, 10, 57, 127
1, 43540, Note_on_c, 2, 74, 127
1, 43688, Note_off_c, 2, 74, 127
1, 43690, Note_on_c, 0, 72, 127
1, 43838, Note_off_c, 0, 72, 127
1, 43838, Note_off_c, 10, 57, 127
1, 43840, Note_on_c, 7, 55, 127
1, 43840, Note_on_c, 2, 74, 127
1, 43988, Note_off_c, 2, 74, 127
1, 43990, Note_on_c, 4, 76, 127
1, 44138, Note_off_c, 4, 76, 127
1, 44138, Note_off_c, 7, 55, 127
1, 44138, Note_off_c, 0, 60, 127
1, 44140, Note_on_c, 10, 57, 127
1, 44140, Note_on_c, 5, 77, 127
1, 44288, Note_off_c, 5, 77, 127
1, 44288, Note_off_c, 10, 57, 127
1, 44290, Note_on_c, 11, 58, 127
1, 44290, Note_on_c, 7, 79, 127
1, 44438, Note_off_c, 7, 79, 127
1, 44438, Note_off_c, 11, 58, 127
1, 44440, Note_on_c, 0, 60, 127
1, 44440, Note_on_c, 10, 81, 127
1, 44588, Note_off_c, 10, 81, 127
1, 44590, Note_on_c, 11, 82, 127
1, 44738, Note_off_c, 11, 82, 127
1, 44738, Note_off_c, 0, 60, 127
1, 44740, Note_on_c, 5, 53, 127
1, 44740, Note_on_c, 0, 84, 127
1, 44890, Note_on_c, 3, 75, 127
1, 45038, Note_off_c, 3, 75, 127
1, 45038, Note_off_c, 5, 53, 127
1, 45040, Note_on_c, 11, 58, 127
1, 45040, Note_on_c, 2, 74, 127
1, 45177, Note_off_c, 0, 84, 127
1, 45189, Note_on_c, 0, 84, 127
1, 45337, Note_off_c, 0, 84, 127
1, 45337, Note_off_c, 11, 58, 127
1, 45339, Note_on_c, 7, 55, 127
1, 45339, Note_on_c, 11, 82, 127
1, 45487, Note_off_c, 11, 82, 127
1, 45489, Note_on_c, 10, 81, 127
1, 45637, Note_off_c, 10, 81, 127
1, 45637, Note_off_c, 7, 55, 127
1, 45639, Note_on_c, 5, 53, 127
1, 45639, Note_on_c, 11, 82, 127
1, 45787, Note_off_c, 2, 74, 127
1, 45789, Note_on_c, 7, 79, 127
1, 45937, Note_off_c, 7, 79, 127
1, 45937, Note_off_c, 5, 53, 127
1, 45939, Note_on_c, 4, 52, 127
1, 45939, Note_on_c, 0, 72, 127
1, 46087, Note_off_c, 11, 82, 127
1, 46089, Note_on_c, 11, 82, 127
1, 46237, Note_off_c, 11, 82, 127
1, 46237, Note_off_c, 4, 52, 127
1, 46239, Note_on_c, 5, 53, 127
1, 46239, Note_on_c, 10, 81, 127
1, 46387, Note_off_c, 10, 81, 127
1, 46389, Note_on_c, 7, 79, 127
1, 46537, Note_off_c, 7, 79, 127
1, 46537, Note_off_c, 5, 53, 127
1, 46539, Note_on_c, 4, 52, 127
1, 46539, Note_on_c, 10, 81, 127
1, 46687, Note_off_c, 0, 72, 127
1, 46689, Note_on_c, 5, 77, 127
1, 46837, Note_off_c, 5, 77, 127
1, 46837, Note_off_c, 4, 52, 127
1, 46839, Note_on_c, 2, 50, 127
1, 46839, Note_on_c, 11, 70, 127
1, 46987, Note_off_c, 10, 81, 127
1, 46989, Note_on_c, 10, 81, 127
1, 47137, Note_off_c, 10, 81, 127
1, 47137, Note_off_c, 2, 50, 127
1, 47139, Note_on_c, 4, 52, 127
1, 47139, Note_on_c, 7, 79, 127
1, 47287, Note_off_c, 7, 79, 127
1, 47289, Note_on_c, 5, 77, 127
1, 47437, Note_off_c, 5, 77, 127
1, 47437, Note_off_c, 4, 52, 127
1, 47439, Note_on_c, 0, 48, 127
1, 47439, Note_on_c, 7, 79, 127
1, 47587, Note_off_c, 11, 70, 127
1, 47589, Note_on_c, 11, 70, 127
1, 47737, Note_off_c, 11, 70, 127
1, 47737, Note_off_c, 0, 48, 127
1, 47739, Note_on_c, 5, 53, 127
1, 47739, Note_on_c, 10, 69, 127
1, 47887, Note_off_c, 7, 79, 127
1, 47889, Note_on_c, 0, 72, 127
1, 48037, Note_off_c, 0, 72, 127
1, 48037, Note_off_c, 5, 53, 127
1, 48039, Note_on_c, 10, 45, 127
1, 48039, Note_on_c, 5, 77, 127
1, 48187, Note_off_c, 5, 77, 127
1, 48189, Note_on_c, 3, 75, 127
1, 48337, Note_off_c, 3, 75, 127
1, 48337, Note_off_c, 10, 45, 127
1, 48339, Note_on_c, 5, 41, 127
1, 48339, Note_on_c, 2, 74, 127
1, 48487, Note_off_c, 2, 74, 127
1, 48489, Note_on_c, 0, 72, 127
1, 48637, Note_off_c, 0, 72, 127
1, 48637, Note_off_c, 5, 41, 127
1, 48639, Note_on_c, 11, 46, 127
1, 48639, Note_on_c, 2, 74, 127
1, 48787, Note_off_c, 10, 69, 127
1, 48789, Note_on_c, 10, 69, 127
1, 48937, Note_off_c, 10, 69, 127
1, 48939, Note_on_c, 7, 67, 127
1, 49087, Note_off_c, 7, 67, 127
1, 49089, Note_on_c, 5, 65, 127
1, 49237, Note_off_c, 5, 65, 127
1, 49239, Note_on_c, 7, 67, 127
1, 49387, Note_off_c, 7, 67, 127
1, 49389, Note_on_c, 11, 70, 127
1, 49537, Note_off_c, 11, 70, 127
1, 49537, Note_off_c, 2, 74, 127
1, 49539, Note_on_c, 4, 64, 127
1, 49689, Note_on_c, 7, 67, 127
1, 49837, Note_off_c, 7, 67, 127
1, 49837, Note_off_c, 11, 46, 127
1, 49839, Note_on_c, 10, 45, 127
1, 49839, Note_on_c, 0, 72, 127
1, 49987, Note_off_c, 4, 64, 127
1, 49989, Note_on_c, 10, 69, 127
1, 50137, Note_off_c, 10, 69, 127
1, 50137, Note_off_c, 10, 45, 127
1, 50139, Note_on_c, 2, 50, 127
1, 50139, Note_on_c, 5, 65, 127
1, 50287, Note_off_c, 5, 65, 127
1, 50289, Note_on_c, 10, 69, 127
1, 50437, Note_off_c, 10, 69, 127
1, 50437, Note_off_c, 2, 50, 127
1, 50439, Note_on_c, 5, 53, 127
1, 50439, Note_on_c, 2, 62, 127
1, 50587, Note_off_c, 0, 72, 127
1, 50589, Note_on_c, 5, 65, 127
1, 50737, Note_off_c, 5, 65, 127
1, 50737, Note_off_c, 5, 53, 127
1, 50739, Note_on_c, 7, 55, 127
1, 50739, Note_on_c, 11, 70, 127
1, 50887, Note_off_c, 2, 62, 127
1, 50889, Note_on_c, 7, 67, 127
1, 51037, Note_off_c, 7, 67, 127
1, 51037, Note_off_c, 7, 55, 127
1, 51039, Note_on_c, 11, 58, 127
1, 51039, Note_on_c, 4, 64, 127
1, 51187, Note_off_c, 4, 64, 127
1, 51189, Note_on_c, 7, 67, 127
1, 51337, Note_off_c, 7, 67, 127
1, 51337, Note_off_c, 11, 58, 127
1, 51339, Note_on_c, 4, 52, 127
1, 51339, Note_on_c, 0, 60, 127
1, 51489, Note_off_c, 11, 70, 127
1, 51491, Note_on_c, 11, 70, 127
1, 51641, Note_off_c, 11, 70, 127
1, 51641, Note_off_c, 4, 52, 127
1, 51643, Note_on_c, 5, 53, 127
1, 51643, Note_on_c, 10, 69, 127
1, 51793, Note_off_c, 10, 69, 127
1, 51795, Note_on_c, 7, 67, 127
1, 51945, Note_off_c, 7, 67, 127
1, 51945, Note_off_c, 5, 53, 127
1, 51947, Note_on_c, 10, 45, 127
1, 51947, Note_on_c, 5, 65, 127
1, 52097, Note_off_c, 5, 65, 127
1, 52099, Note_on_c, 3, 63, 127
1, 52249, Note_off_c, 3, 63, 127
1, 52249, Note_off_c, 10, 45, 127
1, 52249, Note_off_c, 0, 60, 127
1, 52251, Note_on_c, 11, 46, 127
1, 52251, Note_on_c, 2, 62, 127
1, 52409, Note_on_c, 0, 60, 127
1, 52565, Note_off_c, 0, 60, 127
1, 52565, Note_off_c, 11, 46, 127
1, 52567, Note_on_c, 7, 43, 127
1, 52567, Note_on_c, 11, 58, 127
1, 52723, Note_off_c, 2, 62, 127
1, 52725, Note_on_c, 4, 64, 127
1, 52881, Note_off_c, 4, 64, 127
1, 52881, Note_off_c, 7, 43, 127
1, 52883, Note_on_c, 10, 45, 127
1, 52883, Note_on_c, 5, 65, 127
1, 53039, Note_off_c, 11, 58, 127
1, 53041, Note_on_c, 10, 57, 127
1, 53197, Note_off_c, 10, 57, 127
1, 53197, Note_off_c, 10, 45, 127
1, 53199, Note_on_c, 11, 46, 127
1, 53199, Note_on_c, 7, 55, 127
1, 53372, Note_off_c, 5, 65, 127
1, 53374, Note_on_c, 5, 65, 127
1, 53547, Note_off_c, 7, 55, 127
1, 53547, Note_off_c, 11, 46, 127
1, 53549, Note_on_c, 0, 48, 127
1, 53549, Note_on_c, 10, 57, 127
1, 53733, Note_off_c, 5, 65, 127
1, 53735, Note_on_c, 5, 65, 127
1, 53919, Note_off_c, 10, 57, 127
1, 53919, Note_off_c, 0, 48, 127
1, 53921, Note_on_c, 0, 36, 127
1, 53921, Note_on_c, 11, 58, 127
1, 54149, Note_off_c, 5, 65, 127
1, 54151, Note_on_c, 4, 64, 127
1, 54379, Note_off_c, 4, 64, 127
1, 54379, Note_off_c, 11, 58, 127
1, 54379, Note_off_c, 0, 36, 127
1, 54381, Note_on_c, 5, 41, 127
1, 54381, Note_on_c, 10, 57, 127
1, 54381, Note_on_c, 5, 65, 127
1, 54381, Note_on_c, 0, 60, 127
1, 56915, Note_off_c, 0, 60, 127
1, 56915, Note_off_c, 5, 65, 127
1, 56915, Note_off_c, 10, 57, 127
1, 56915, Note_off_c, 5, 41, 127
1, 61440, End_track
0, 0, End_of_file
