0, 0, Header, 0, 1, 384
1, 0, Start_track
1, 0, Copyright_t, "(C) John Sankey 1998"
1, 0, Program_c, 0, 6
1, 0, Pitch_bend_c, 0, 8192
1, 0, Program_c, 1, 6
1, 0, Pitch_bend_c, 1, 7792
1, 0, Program_c, 2, 6
1, 0, Pitch_bend_c, 2, 7876
1, 0, Program_c, 3, 6
1, 0, Pitch_bend_c, 3, 7952
1, 0, Program_c, 4, 6
1, 0, Pitch_bend_c, 4, 7792
1, 0, Program_c, 5, 6
1, 0, Pitch_bend_c, 5, 8112
1, 0, Program_c, 6, 6
1, 0, Pitch_bend_c, 6, 7712
1, 0, Program_c, 7, 6
1, 0, Pitch_bend_c, 7, 8037
1, 0, Program_c, 8, 6
1, 0, Pitch_bend_c, 8, 7872
1, 0, Program_c, 10, 6
1, 0, Pitch_bend_c, 10, 7712
1, 0, Program_c, 11, 6
1, 0, Pitch_bend_c, 11, 8032
1, 0, Program_c, 12, 6
1, 0, Pitch_bend_c, 12, 7872
1, 0, Tempo, 500000
1, 104, Note_on_c, 10, 69, 127
1, 207, Note_off_c, 10, 69, 127
1, 208, Note_on_c, 12, 71, 127
1, 311, Note_off_c, 12, 71, 127
1, 312, Note_on_c, 1, 73, 127
1, 415, Note_off_c, 1, 73, 127
1, 417, Note_on_c, 2, 74, 127
1, 520, Note_off_c, 2, 74, 127
1, 521, Note_on_c, 4, 76, 127
1, 624, Note_off_c, 4, 76, 127
1, 625, Note_on_c, 6, 78, 127
1, 728, Note_off_c, 6, 78, 127
1, 729, Note_on_c, 7, 79, 127
1, 832, Note_off_c, 7, 79, 127
1, 834, Note_on_c, 10, 81, 127
1, 938, Note_on_c, 4, 76, 127
1, 1040, Note_off_c, 10, 81, 127
1, 1041, Note_off_c, 4, 76, 127
1, 1042, Note_on_c, 10, 81, 127
1, 1042, Note_on_c, 6, 78, 127
1, 1148, Note_on_c, 1, 73, 127
1, 1249, Note_off_c, 6, 78, 127
1, 1250, Note_off_c, 10, 81, 127
1, 1251, Note_off_c, 1, 73, 127
1, 1252, Note_on_c, 6, 78, 127
1, 1252, Note_on_c, 10, 81, 127
1, 1252, Note_on_c, 2, 74, 127
1, 1356, Note_on_c, 7, 67, 127
1, 1458, Note_off_c, 2, 74, 127
1, 1459, Note_off_c, 7, 67, 127
1, 1459, Note_off_c, 10, 81, 127
1, 1459, Note_off_c, 6, 78, 127
1, 1460, Note_on_c, 6, 78, 127
1, 1460, Note_on_c, 2, 74, 127
1, 1460, Note_on_c, 10, 81, 127
1, 1460, Note_on_c, 10, 69, 127
1, 1566, Note_on_c, 4, 64, 127
1, 1667, Note_off_c, 10, 69, 127
1, 1668, Note_off_c, 10, 81, 127
1, 1668, Note_off_c, 2, 74, 127
1, 1668, Note_off_c, 6, 78, 127
1, 1669, Note_off_c, 4, 64, 127
1, 1670, Note_on_c, 10, 69, 127
1, 1670, Note_on_c, 10, 81, 127
1, 1670, Note_on_c, 6, 78, 127
1, 1670, Note_on_c, 2, 74, 127
1, 1670, Note_on_c, 6, 66, 127
1, 1801, Note_off_c, 6, 66, 127
1, 1809, Note_on_c, 2, 62, 127
1, 1912, Note_off_c, 2, 62, 127
1, 1914, Note_on_c, 4, 64, 127
1, 2017, Note_off_c, 4, 64, 127
1, 2018, Note_on_c, 6, 66, 127
1, 2083, Note_off_c, 10, 69, 127
1, 2121, Note_off_c, 6, 66, 127
1, 2122, Note_on_c, 7, 67, 127
1, 2225, Note_off_c, 7, 67, 127
1, 2226, Note_on_c, 10, 69, 127
1, 2329, Note_off_c, 10, 69, 127
1, 2331, Note_on_c, 12, 71, 127
1, 2434, Note_off_c, 12, 71, 127
1, 2435, Note_on_c, 1, 73, 127
1, 2503, Note_off_c, 2, 74, 127
1, 2503, Note_off_c, 6, 78, 127
1, 2503, Note_off_c, 10, 81, 127
1, 2538, Note_off_c, 1, 73, 127
1, 2539, Note_on_c, 2, 74, 127
1, 2643, Note_on_c, 7, 67, 127
1, 2745, Note_off_c, 2, 74, 127
1, 2746, Note_off_c, 7, 67, 127
1, 2748, Note_on_c, 2, 74, 127
1, 2748, Note_on_c, 10, 69, 127
1, 2852, Note_on_c, 4, 64, 127
1, 2954, Note_off_c, 10, 69, 127
1, 2955, Note_off_c, 4, 64, 127
1, 2955, Note_off_c, 2, 74, 127
1, 2956, Note_on_c, 2, 74, 127
1, 2956, Note_on_c, 10, 69, 127
1, 2956, Note_on_c, 6, 66, 127
1, 3062, Note_on_c, 1, 61, 127
1, 3163, Note_off_c, 6, 66, 127
1, 3164, Note_off_c, 10, 69, 127
1, 3164, Note_off_c, 2, 74, 127
1, 3165, Note_off_c, 1, 61, 127
1, 3166, Note_on_c, 6, 66, 127
1, 3166, Note_on_c, 2, 74, 127
1, 3166, Note_on_c, 10, 69, 127
1, 3166, Note_on_c, 2, 62, 127
1, 3269, Note_off_c, 2, 62, 127
1, 3270, Note_on_c, 1, 61, 127
1, 3373, Note_off_c, 1, 61, 127
1, 3373, Note_off_c, 10, 69, 127
1, 3373, Note_off_c, 2, 74, 127
1, 3373, Note_off_c, 6, 66, 127
1, 3374, Note_on_c, 6, 66, 127
1, 3374, Note_on_c, 10, 69, 127
1, 3374, Note_on_c, 2, 74, 127
1, 3374, Note_on_c, 2, 62, 127
1, 3526, Note_off_c, 2, 62, 127
1, 3531, Note_on_c, 10, 57, 127
1, 3634, Note_off_c, 10, 57, 127
1, 3636, Note_on_c, 12, 59, 127
1, 3739, Note_off_c, 12, 59, 127
1, 3740, Note_on_c, 1, 61, 127
1, 3787, Note_off_c, 6, 66, 127
1, 3843, Note_off_c, 1, 61, 127
1, 3844, Note_on_c, 2, 62, 127
1, 3947, Note_off_c, 2, 62, 127
1, 3948, Note_on_c, 4, 64, 127
1, 4051, Note_off_c, 4, 64, 127
1, 4053, Note_on_c, 6, 66, 127
1, 4103, Note_off_c, 10, 69, 127
1, 4156, Note_off_c, 6, 66, 127
1, 4157, Note_on_c, 7, 67, 127
1, 4207, Note_off_c, 2, 74, 127
1, 4260, Note_off_c, 7, 67, 127
1, 4261, Note_on_c, 10, 69, 127
1, 4365, Note_on_c, 4, 64, 127
1, 4467, Note_off_c, 10, 69, 127
1, 4468, Note_off_c, 4, 64, 127
1, 4470, Note_on_c, 6, 66, 127
1, 4470, Note_on_c, 10, 69, 127
1, 4574, Note_on_c, 1, 61, 127
1, 4676, Note_off_c, 6, 66, 127
1, 4677, Note_off_c, 1, 61, 127
1, 4677, Note_off_c, 10, 69, 127
1, 4678, Note_on_c, 2, 62, 127
1, 4678, Note_on_c, 10, 69, 127
1, 4678, Note_on_c, 6, 66, 127
1, 4784, Note_on_c, 7, 55, 127
1, 4885, Note_off_c, 2, 62, 127
1, 4886, Note_off_c, 6, 66, 127
1, 4886, Note_off_c, 10, 69, 127
1, 4887, Note_off_c, 7, 55, 127
1, 4888, Note_on_c, 10, 57, 127
1, 4888, Note_on_c, 6, 66, 127
1, 4888, Note_on_c, 10, 69, 127
1, 4888, Note_on_c, 2, 62, 127
1, 5010, Note_on_c, 4, 52, 127
1, 5094, Note_off_c, 10, 57, 127
1, 5095, Note_off_c, 2, 62, 127
1, 5095, Note_off_c, 10, 69, 127
1, 5095, Note_off_c, 6, 66, 127
1, 5096, Note_on_c, 6, 54, 127
1, 5096, Note_on_c, 10, 69, 127
1, 5096, Note_on_c, 10, 57, 127
1, 5096, Note_on_c, 2, 62, 127
1, 5096, Note_on_c, 6, 66, 127
1, 5113, Note_off_c, 4, 52, 127
1, 5237, Note_on_c, 2, 50, 127
1, 5238, Note_off_c, 6, 54, 127
1, 5340, Note_off_c, 2, 50, 127
1, 5341, Note_on_c, 4, 52, 127
1, 5444, Note_off_c, 4, 52, 127
1, 5445, Note_on_c, 6, 54, 127
1, 5510, Note_off_c, 10, 57, 127
1, 5548, Note_off_c, 6, 54, 127
1, 5550, Note_on_c, 7, 55, 127
1, 5653, Note_off_c, 7, 55, 127
1, 5654, Note_on_c, 10, 57, 127
1, 5757, Note_off_c, 10, 57, 127
1, 5758, Note_on_c, 12, 59, 127
1, 5825, Note_off_c, 2, 62, 127
1, 5861, Note_off_c, 12, 59, 127
1, 5862, Note_on_c, 1, 61, 127
1, 5930, Note_off_c, 6, 66, 127
1, 5930, Note_off_c, 10, 69, 127
1, 5965, Note_off_c, 1, 61, 127
1, 5967, Note_on_c, 2, 62, 127
1, 6071, Note_on_c, 7, 55, 127
1, 6173, Note_off_c, 2, 62, 127
1, 6174, Note_off_c, 7, 55, 127
1, 6175, Note_on_c, 10, 57, 127
1, 6175, Note_on_c, 2, 62, 127
1, 6279, Note_on_c, 4, 52, 127
1, 6381, Note_off_c, 10, 57, 127
1, 6382, Note_off_c, 4, 52, 127
1, 6382, Note_off_c, 2, 62, 127
1, 6384, Note_on_c, 6, 54, 127
1, 6384, Note_on_c, 10, 57, 127
1, 6384, Note_on_c, 2, 62, 127
1, 6488, Note_on_c, 1, 49, 127
1, 6590, Note_off_c, 6, 54, 127
1, 6591, Note_off_c, 1, 49, 127
1, 6591, Note_off_c, 2, 62, 127
1, 6591, Note_off_c, 10, 57, 127
1, 6592, Note_on_c, 2, 50, 127
1, 6592, Note_on_c, 10, 57, 127
1, 6592, Note_on_c, 2, 62, 127
1, 6592, Note_on_c, 6, 54, 127
1, 6695, Note_off_c, 2, 50, 127
1, 6697, Note_on_c, 1, 49, 127
1, 6799, Note_off_c, 6, 54, 127
1, 6799, Note_off_c, 2, 62, 127
1, 6799, Note_off_c, 10, 57, 127
1, 6800, Note_off_c, 1, 49, 127
1, 6801, Note_on_c, 2, 50, 127
1, 6801, Note_on_c, 10, 57, 127
1, 6801, Note_on_c, 2, 62, 127
1, 6801, Note_on_c, 6, 54, 127
1, 6953, Note_off_c, 2, 50, 127
1, 6958, Note_on_c, 10, 45, 127
1, 7061, Note_off_c, 10, 45, 127
1, 7062, Note_on_c, 12, 47, 127
1, 7165, Note_off_c, 12, 47, 127
1, 7166, Note_on_c, 1, 49, 127
1, 7214, Note_off_c, 6, 54, 127
1, 7269, Note_off_c, 1, 49, 127
1, 7271, Note_on_c, 2, 50, 127
1, 7374, Note_off_c, 2, 50, 127
1, 7375, Note_on_c, 4, 52, 127
1, 7478, Note_off_c, 4, 52, 127
1, 7479, Note_on_c, 6, 54, 127
1, 7529, Note_off_c, 10, 57, 127
1, 7582, Note_off_c, 6, 54, 127
1, 7583, Note_on_c, 7, 55, 127
1, 7635, Note_off_c, 2, 62, 127
1, 7687, Note_off_c, 7, 55, 127
1, 7689, Note_on_c, 10, 57, 127
1, 7793, Note_on_c, 4, 52, 127
1, 7895, Note_off_c, 10, 57, 127
1, 7896, Note_off_c, 4, 52, 127
1, 7897, Note_on_c, 10, 57, 127
1, 7897, Note_on_c, 6, 54, 127
1, 8001, Note_on_c, 1, 49, 127
1, 8103, Note_off_c, 6, 54, 127
1, 8104, Note_off_c, 1, 49, 127
1, 8104, Note_off_c, 10, 57, 127
1, 8106, Note_on_c, 6, 54, 127
1, 8106, Note_on_c, 10, 57, 127
1, 8106, Note_on_c, 2, 50, 127
1, 8210, Note_on_c, 7, 43, 127
1, 8312, Note_off_c, 2, 50, 127
1, 8313, Note_off_c, 7, 43, 127
1, 8313, Note_off_c, 10, 57, 127
1, 8313, Note_off_c, 6, 54, 127
1, 8314, Note_on_c, 6, 54, 127
1, 8314, Note_on_c, 2, 50, 127
1, 8314, Note_on_c, 10, 57, 127
1, 8314, Note_on_c, 10, 45, 127
1, 8420, Note_on_c, 4, 40, 127
1, 8521, Note_off_c, 10, 45, 127
1, 8522, Note_off_c, 10, 57, 127
1, 8522, Note_off_c, 2, 50, 127
1, 8522, Note_off_c, 6, 54, 127
1, 8523, Note_off_c, 4, 40, 127
1, 8524, Note_on_c, 10, 45, 127
1, 8524, Note_on_c, 6, 54, 127
1, 8524, Note_on_c, 2, 50, 127
1, 8524, Note_on_c, 10, 57, 127
1, 8524, Note_on_c, 6, 42, 127
1, 8632, Note_off_c, 6, 42, 127
1, 8643, Note_on_c, 2, 38, 127
1, 8732, Note_off_c, 2, 38, 127
1, 8745, Note_on_c, 4, 40, 127
1, 8800, Note_off_c, 10, 45, 127
1, 8813, Note_off_c, 4, 40, 127
1, 8814, Note_on_c, 6, 42, 127
1, 8883, Note_off_c, 6, 42, 127
1, 8885, Note_on_c, 7, 43, 127
1, 8953, Note_off_c, 7, 43, 127
1, 8954, Note_on_c, 10, 45, 127
1, 9022, Note_off_c, 10, 45, 127
1, 9023, Note_on_c, 12, 47, 127
1, 9044, Note_off_c, 2, 50, 127
1, 9078, Note_off_c, 6, 54, 127
1, 9091, Note_off_c, 12, 47, 127
1, 9092, Note_on_c, 1, 49, 127
1, 9161, Note_off_c, 1, 49, 127
1, 9162, Note_on_c, 2, 50, 127
1, 9204, Note_off_c, 10, 57, 127
1, 9230, Note_off_c, 2, 50, 127
1, 9232, Note_on_c, 4, 52, 127
1, 9300, Note_off_c, 4, 52, 127
1, 9301, Note_on_c, 6, 54, 127
1, 9369, Note_off_c, 6, 54, 127
1, 9370, Note_on_c, 7, 55, 127
1, 9438, Note_off_c, 7, 55, 127
1, 9439, Note_on_c, 10, 57, 127
1, 9507, Note_off_c, 10, 57, 127
1, 9508, Note_on_c, 12, 59, 127
1, 9576, Note_off_c, 12, 59, 127
1, 9577, Note_on_c, 1, 61, 127
1, 9645, Note_off_c, 1, 61, 127
1, 9647, Note_on_c, 2, 62, 127
1, 9715, Note_off_c, 2, 62, 127
1, 9716, Note_on_c, 10, 57, 127
1, 9716, Note_on_c, 6, 54, 127
1, 9873, Note_on_c, 2, 50, 127
1, 9922, Note_off_c, 6, 54, 127
1, 9941, Note_off_c, 2, 50, 127
1, 9942, Note_on_c, 4, 52, 127
1, 10010, Note_off_c, 4, 52, 127
1, 10011, Note_on_c, 6, 54, 127
1, 10063, Note_off_c, 10, 57, 127
1, 10080, Note_off_c, 6, 54, 127
1, 10081, Note_on_c, 7, 55, 127
1, 10149, Note_off_c, 7, 55, 127
1, 10150, Note_on_c, 10, 57, 127
1, 10218, Note_off_c, 10, 57, 127
1, 10220, Note_on_c, 12, 59, 127
1, 10288, Note_off_c, 12, 59, 127
1, 10289, Note_on_c, 1, 61, 127
1, 10357, Note_off_c, 1, 61, 127
1, 10358, Note_on_c, 2, 62, 127
1, 10426, Note_off_c, 2, 62, 127
1, 10427, Note_on_c, 4, 64, 127
1, 10495, Note_off_c, 4, 64, 127
1, 10496, Note_on_c, 6, 66, 127
1, 10564, Note_off_c, 6, 66, 127
1, 10566, Note_on_c, 7, 67, 127
1, 10634, Note_off_c, 7, 67, 127
1, 10635, Note_on_c, 10, 69, 127
1, 10703, Note_off_c, 10, 69, 127
1, 10704, Note_on_c, 12, 71, 127
1, 10772, Note_off_c, 12, 71, 127
1, 10773, Note_on_c, 1, 73, 127
1, 10841, Note_off_c, 1, 73, 127
1, 10842, Note_on_c, 2, 74, 127
1, 10910, Note_off_c, 2, 74, 127
1, 10929, Note_on_c, 8, 44, 127
1, 11198, Note_on_c, 4, 76, 127
1, 11256, Note_on_c, 12, 71, 127
1, 11317, Note_on_c, 2, 62, 127
1, 11375, Note_on_c, 8, 56, 127
1, 11984, Note_off_c, 8, 44, 127
1, 11991, Note_off_c, 8, 56, 127
1, 12230, Note_off_c, 4, 76, 127
1, 12246, Note_off_c, 12, 71, 127
1, 12264, Note_off_c, 2, 62, 127
1, 12637, Note_on_c, 4, 52, 127
1, 12758, Note_on_c, 6, 54, 127
1, 12760, Note_off_c, 4, 52, 127
1, 12845, Note_off_c, 6, 54, 127
1, 12850, Note_on_c, 8, 56, 127
1, 12938, Note_off_c, 8, 56, 127
1, 12942, Note_on_c, 10, 57, 127
1, 13030, Note_off_c, 10, 57, 127
1, 13034, Note_on_c, 12, 59, 127
1, 13122, Note_off_c, 12, 59, 127
1, 13126, Note_on_c, 1, 61, 127
1, 13214, Note_off_c, 1, 61, 127
1, 13219, Note_on_c, 2, 62, 127
1, 13442, Note_off_c, 2, 62, 127
1, 13449, Note_on_c, 8, 44, 127
1, 13449, Note_on_c, 4, 64, 127
1, 13582, Note_off_c, 4, 64, 127
1, 13620, Note_on_c, 12, 59, 127
1, 13620, Note_on_c, 2, 62, 127
1, 13620, Note_on_c, 4, 52, 127
1, 13644, Note_off_c, 8, 44, 127
1, 13685, Note_off_c, 2, 62, 127
1, 13685, Note_off_c, 12, 59, 127
1, 13725, Note_on_c, 8, 44, 127
1, 13725, Note_on_c, 4, 64, 127
1, 13745, Note_off_c, 4, 52, 127
1, 13789, Note_off_c, 4, 64, 127
1, 13815, Note_on_c, 2, 62, 127
1, 13815, Note_on_c, 12, 59, 127
1, 13815, Note_on_c, 4, 52, 127
1, 13849, Note_off_c, 8, 44, 127
1, 13880, Note_off_c, 12, 59, 127
1, 13880, Note_off_c, 2, 62, 127
1, 13920, Note_on_c, 4, 64, 127
1, 13920, Note_on_c, 8, 44, 127
1, 13940, Note_off_c, 4, 52, 127
1, 13992, Note_off_c, 4, 64, 127
1, 14009, Note_on_c, 2, 62, 127
1, 14009, Note_on_c, 12, 59, 127
1, 14009, Note_on_c, 4, 52, 127
1, 14059, Note_off_c, 8, 44, 127
1, 14081, Note_off_c, 12, 59, 127
1, 14081, Note_off_c, 2, 62, 127
1, 14085, Note_on_c, 4, 64, 127
1, 14085, Note_on_c, 8, 44, 127
1, 14149, Note_off_c, 4, 52, 127
1, 14157, Note_off_c, 4, 64, 127
1, 14162, Note_on_c, 12, 59, 127
1, 14162, Note_on_c, 2, 62, 127
1, 14162, Note_on_c, 4, 52, 127
1, 14224, Note_off_c, 8, 44, 127
1, 14234, Note_off_c, 2, 62, 127
1, 14234, Note_off_c, 12, 59, 127
1, 14238, Note_on_c, 4, 64, 127
1, 14238, Note_on_c, 8, 44, 127
1, 14302, Note_off_c, 4, 52, 127
1, 14310, Note_off_c, 4, 64, 127
1, 14314, Note_on_c, 12, 59, 127
1, 14314, Note_on_c, 2, 62, 127
1, 14314, Note_on_c, 4, 52, 127
1, 14378, Note_off_c, 8, 44, 127
1, 14386, Note_off_c, 2, 62, 127
1, 14386, Note_off_c, 12, 59, 127
1, 14388, Note_on_c, 4, 64, 127
1, 14388, Note_on_c, 8, 44, 127
1, 14453, Note_off_c, 4, 52, 127
1, 14460, Note_off_c, 4, 64, 127
1, 14464, Note_on_c, 2, 62, 127
1, 14464, Note_on_c, 12, 59, 127
1, 14464, Note_on_c, 4, 52, 127
1, 14528, Note_off_c, 8, 44, 127
1, 14536, Note_off_c, 12, 59, 127
1, 14536, Note_off_c, 2, 62, 127
1, 14540, Note_on_c, 4, 64, 127
1, 14540, Note_on_c, 8, 44, 127
1, 14604, Note_off_c, 4, 52, 127
1, 14612, Note_off_c, 4, 64, 127
1, 14616, Note_on_c, 12, 59, 127
1, 14616, Note_on_c, 2, 62, 127
1, 14616, Note_on_c, 4, 52, 127
1, 14976, Note_off_c, 8, 44, 127
1, 15216, Note_off_c, 12, 59, 127
1, 15295, Note_off_c, 4, 52, 127
1, 15316, Note_off_c, 2, 62, 127
1, 15871, Note_on_c, 10, 69, 127
1, 16016, Note_off_c, 10, 69, 127
1, 16024, Note_on_c, 8, 68, 127
1, 16156, Note_off_c, 8, 68, 127
1, 16160, Note_on_c, 6, 66, 127
1, 16292, Note_off_c, 6, 66, 127
1, 16292, Note_on_c, 4, 64, 127
1, 16431, Note_on_c, 2, 62, 127
1, 16452, Note_off_c, 4, 64, 127
1, 16581, Note_off_c, 2, 62, 127
1, 16581, Note_on_c, 1, 61, 127
1, 16730, Note_on_c, 12, 59, 127
1, 16731, Note_off_c, 1, 61, 127
1, 16879, Note_on_c, 1, 61, 127
1, 16880, Note_off_c, 12, 59, 127
1, 17029, Note_off_c, 1, 61, 127
1, 17029, Note_on_c, 2, 62, 127
1, 17178, Note_on_c, 4, 64, 127
1, 17179, Note_off_c, 2, 62, 127
1, 17327, Note_on_c, 12, 59, 127
1, 17429, Note_off_c, 4, 64, 127
1, 17477, Note_off_c, 12, 59, 127
1, 17477, Note_on_c, 1, 61, 127
1, 17626, Note_on_c, 8, 56, 127
1, 17728, Note_off_c, 1, 61, 127
1, 17775, Note_on_c, 10, 57, 127
1, 17776, Note_off_c, 8, 56, 127
1, 17925, Note_on_c, 4, 52, 127
1, 18026, Note_off_c, 10, 57, 127
1, 18050, Note_off_c, 4, 52, 127
1, 18052, Note_on_c, 1, 49, 127
1, 18180, Note_on_c, 10, 45, 127
1, 18302, Note_off_c, 1, 49, 127
1, 18307, Note_on_c, 1, 49, 127
1, 18432, Note_off_c, 1, 49, 127
1, 18436, Note_on_c, 4, 52, 127
1, 18563, Note_on_c, 10, 57, 127
1, 18819, Note_on_c, 10, 69, 127
1, 19076, Note_on_c, 2, 62, 127
1, 19076, Note_on_c, 12, 59, 127
1, 19321, Note_off_c, 10, 69, 127
1, 19332, Note_on_c, 8, 68, 127
1, 19578, Note_off_c, 12, 59, 127
1, 19578, Note_off_c, 2, 62, 127
1, 19584, Note_off_c, 8, 68, 127
1, 19606, Note_on_c, 10, 69, 127
1, 19606, Note_on_c, 1, 61, 127
1, 19606, Note_on_c, 4, 64, 127
1, 21764, Note_off_c, 4, 52, 127
1, 21963, Note_off_c, 10, 57, 127
1, 21980, Note_off_c, 10, 45, 127
1, 22006, Note_off_c, 4, 64, 127
1, 22006, Note_off_c, 1, 61, 127
1, 22006, Note_off_c, 10, 69, 127
1, 22285, Note_on_c, 1, 49, 127
1, 22285, Note_on_c, 4, 64, 127
1, 22514, Note_off_c, 4, 64, 127
1, 22515, Note_on_c, 4, 52, 127
1, 22573, Note_off_c, 1, 49, 127
1, 22745, Note_off_c, 4, 52, 127
1, 22746, Note_on_c, 2, 50, 127
1, 22746, Note_on_c, 6, 54, 127
1, 22975, Note_off_c, 6, 54, 127
1, 22976, Note_on_c, 2, 62, 127
1, 23034, Note_off_c, 2, 50, 127
1, 23206, Note_off_c, 2, 62, 127
1, 23207, Note_on_c, 4, 52, 127
1, 23207, Note_on_c, 8, 56, 127
1, 23436, Note_off_c, 8, 56, 127
1, 23437, Note_on_c, 4, 64, 127
1, 23495, Note_off_c, 4, 52, 127
1, 23667, Note_off_c, 4, 64, 127
1, 23668, Note_on_c, 10, 57, 127
1, 23668, Note_on_c, 1, 61, 127
1, 23898, Note_on_c, 12, 59, 127
1, 24004, Note_off_c, 10, 57, 127
1, 24012, Note_off_c, 12, 59, 127
1, 24013, Note_on_c, 10, 57, 127
1, 24123, Note_off_c, 1, 61, 127
1, 24127, Note_off_c, 10, 57, 127
1, 24128, Note_on_c, 6, 54, 127
1, 24128, Note_on_c, 2, 62, 127
1, 24128, Note_on_c, 10, 69, 127
1, 24357, Note_off_c, 10, 69, 127
1, 24358, Note_on_c, 10, 57, 127
1, 24416, Note_off_c, 2, 62, 127
1, 24416, Note_off_c, 6, 54, 127
1, 24588, Note_off_c, 10, 57, 127
1, 24589, Note_on_c, 7, 55, 127
1, 24589, Note_on_c, 4, 64, 127
1, 24589, Note_on_c, 12, 59, 127
1, 24818, Note_off_c, 12, 59, 127
1, 24819, Note_on_c, 7, 67, 127
1, 24877, Note_off_c, 4, 64, 127
1, 24877, Note_off_c, 7, 55, 127
1, 25049, Note_off_c, 7, 67, 127
1, 25050, Note_on_c, 4, 64, 127
1, 25050, Note_on_c, 10, 57, 127
1, 25050, Note_on_c, 1, 61, 127
1, 25279, Note_off_c, 1, 61, 127
1, 25280, Note_on_c, 10, 69, 127
1, 25338, Note_off_c, 10, 57, 127
1, 25338, Note_off_c, 4, 64, 127
1, 25510, Note_off_c, 10, 69, 127
1, 25511, Note_on_c, 2, 50, 127
1, 25511, Note_on_c, 2, 62, 127
1, 25511, Note_on_c, 6, 66, 127
1, 25740, Note_off_c, 6, 66, 127
1, 25741, Note_on_c, 4, 64, 127
1, 25847, Note_off_c, 2, 62, 127
1, 25855, Note_off_c, 4, 64, 127
1, 25856, Note_on_c, 2, 62, 127
1, 25966, Note_off_c, 2, 50, 127
1, 25970, Note_off_c, 2, 62, 127
1, 25971, Note_on_c, 1, 61, 127
1, 25971, Note_on_c, 10, 69, 127
1, 25971, Note_on_c, 4, 76, 127
1, 26200, Note_off_c, 4, 76, 127
1, 26201, Note_on_c, 4, 64, 127
1, 26259, Note_off_c, 10, 69, 127
1, 26259, Note_off_c, 1, 61, 127
1, 26431, Note_off_c, 4, 64, 127
1, 26432, Note_on_c, 2, 62, 127
1, 26432, Note_on_c, 12, 71, 127
1, 26432, Note_on_c, 6, 66, 127
1, 26661, Note_off_c, 6, 66, 127
1, 26662, Note_on_c, 2, 74, 127
1, 26720, Note_off_c, 12, 71, 127
1, 26720, Note_off_c, 2, 62, 127
1, 26892, Note_off_c, 2, 74, 127
1, 26893, Note_on_c, 4, 64, 127
1, 26893, Note_on_c, 12, 71, 127
1, 26893, Note_on_c, 8, 68, 127
1, 27122, Note_off_c, 8, 68, 127
1, 27123, Note_on_c, 4, 76, 127
1, 27181, Note_off_c, 12, 71, 127
1, 27181, Note_off_c, 4, 64, 127
1, 27353, Note_off_c, 4, 76, 127
1, 27354, Note_on_c, 10, 69, 127
1, 27354, Note_on_c, 10, 57, 127
1, 27354, Note_on_c, 1, 73, 127
1, 27584, Note_on_c, 12, 71, 127
1, 27690, Note_off_c, 10, 69, 127
1, 27698, Note_off_c, 12, 71, 127
1, 27699, Note_on_c, 10, 69, 127
1, 27809, Note_off_c, 1, 73, 127
1, 27809, Note_off_c, 10, 57, 127
1, 27813, Note_off_c, 10, 69, 127
1, 27814, Note_on_c, 6, 66, 127
1, 27814, Note_on_c, 2, 74, 127
1, 27814, Note_on_c, 10, 81, 127
1, 28043, Note_off_c, 10, 81, 127
1, 28044, Note_on_c, 10, 69, 127
1, 28102, Note_off_c, 2, 74, 127
1, 28102, Note_off_c, 6, 66, 127
1, 28274, Note_off_c, 10, 69, 127
1, 28275, Note_on_c, 7, 67, 127
1, 28275, Note_on_c, 4, 76, 127
1, 28275, Note_on_c, 12, 71, 127
1, 28504, Note_off_c, 12, 71, 127
1, 28505, Note_on_c, 7, 79, 127
1, 28563, Note_off_c, 4, 76, 127
1, 28563, Note_off_c, 7, 67, 127
1, 28735, Note_off_c, 7, 79, 127
1, 28736, Note_on_c, 10, 69, 127
1, 28736, Note_on_c, 4, 76, 127
1, 28736, Note_on_c, 1, 73, 127
1, 28965, Note_off_c, 1, 73, 127
1, 28966, Note_on_c, 10, 81, 127
1, 29024, Note_off_c, 4, 76, 127
1, 29024, Note_off_c, 10, 69, 127
1, 29196, Note_off_c, 10, 81, 127
1, 29197, Note_on_c, 2, 74, 127
1, 29197, Note_on_c, 2, 62, 127
1, 29197, Note_on_c, 6, 78, 127
1, 29426, Note_off_c, 6, 78, 127
1, 29427, Note_on_c, 4, 76, 127
1, 29533, Note_off_c, 2, 74, 127
1, 29541, Note_off_c, 4, 76, 127
1, 29542, Note_on_c, 2, 74, 127
1, 29652, Note_off_c, 2, 62, 127
1, 29656, Note_off_c, 2, 74, 127
1, 29657, Note_on_c, 6, 66, 127
1, 29657, Note_on_c, 6, 78, 127
1, 29657, Note_on_c, 11, 70, 127
1, 29886, Note_off_c, 6, 66, 127
1, 29887, Note_on_c, 6, 54, 127
1, 29945, Note_off_c, 11, 70, 127
1, 29945, Note_off_c, 6, 78, 127
1, 30117, Note_off_c, 6, 54, 127
1, 30118, Note_on_c, 8, 56, 127
1, 30118, Note_on_c, 2, 74, 127
1, 30118, Note_on_c, 12, 71, 127
1, 30118, Note_on_c, 4, 76, 127
1, 30347, Note_off_c, 8, 56, 127
1, 30348, Note_on_c, 4, 64, 127
1, 30406, Note_off_c, 4, 76, 127
1, 30406, Note_off_c, 12, 71, 127
1, 30406, Note_off_c, 2, 74, 127
1, 30578, Note_off_c, 4, 64, 127
1, 30579, Note_on_c, 11, 58, 127
1, 30579, Note_on_c, 4, 76, 127
1, 30579, Note_on_c, 1, 73, 127
1, 30579, Note_on_c, 6, 66, 127
1, 30807, Note_off_c, 6, 66, 127
1, 30808, Note_off_c, 11, 58, 127
1, 30809, Note_on_c, 6, 66, 127
1, 30867, Note_off_c, 1, 73, 127
1, 30867, Note_off_c, 4, 76, 127
1, 31039, Note_off_c, 6, 66, 127
1, 31040, Note_on_c, 2, 62, 127
1, 31040, Note_on_c, 2, 74, 127
1, 31040, Note_on_c, 12, 71, 127
1, 31040, Note_on_c, 6, 66, 127
1, 31269, Note_off_c, 2, 62, 127
1, 31270, Note_on_c, 1, 61, 127
1, 31328, Note_off_c, 6, 66, 127
1, 31384, Note_off_c, 1, 61, 127
1, 31385, Note_on_c, 12, 59, 127
1, 31495, Note_off_c, 12, 71, 127
1, 31495, Note_off_c, 2, 74, 127
1, 31499, Note_off_c, 12, 59, 127
1, 31500, Note_on_c, 4, 64, 127
1, 31500, Note_on_c, 8, 80, 127
1, 31500, Note_on_c, 4, 76, 127
1, 31500, Note_on_c, 12, 71, 127
1, 31729, Note_off_c, 4, 64, 127
1, 31730, Note_on_c, 4, 52, 127
1, 31788, Note_off_c, 12, 71, 127
1, 31788, Note_off_c, 4, 76, 127
1, 31788, Note_off_c, 8, 80, 127
1, 31960, Note_off_c, 4, 52, 127
1, 31961, Note_on_c, 6, 54, 127
1, 31961, Note_on_c, 10, 81, 127
1, 31961, Note_on_c, 2, 74, 127
1, 31961, Note_on_c, 10, 69, 127
1, 32190, Note_off_c, 6, 54, 127
1, 32191, Note_on_c, 2, 62, 127
1, 32249, Note_off_c, 10, 69, 127
1, 32249, Note_off_c, 2, 74, 127
1, 32249, Note_off_c, 10, 81, 127
1, 32421, Note_off_c, 2, 62, 127
1, 32422, Note_on_c, 8, 56, 127
1, 32422, Note_on_c, 12, 83, 127
1, 32422, Note_on_c, 4, 76, 127
1, 32422, Note_on_c, 2, 74, 127
1, 32651, Note_off_c, 8, 56, 127
1, 32652, Note_on_c, 4, 64, 127
1, 32710, Note_off_c, 2, 74, 127
1, 32710, Note_off_c, 4, 76, 127
1, 32710, Note_off_c, 12, 83, 127
1, 32882, Note_off_c, 4, 64, 127
1, 32883, Note_on_c, 1, 61, 127
1, 32883, Note_on_c, 10, 81, 127
1, 32883, Note_on_c, 4, 76, 127
1, 32883, Note_on_c, 10, 69, 127
1, 33112, Note_off_c, 1, 61, 127
1, 33113, Note_on_c, 12, 59, 127
1, 33171, Note_off_c, 10, 81, 127
1, 33227, Note_off_c, 12, 59, 127
1, 33228, Note_on_c, 10, 57, 127
1, 33338, Note_off_c, 10, 69, 127
1, 33338, Note_off_c, 4, 76, 127
1, 33342, Note_off_c, 10, 57, 127
1, 33343, Note_on_c, 2, 62, 127
1, 33343, Note_on_c, 6, 78, 127
1, 33343, Note_on_c, 2, 74, 127
1, 33343, Note_on_c, 10, 69, 127
1, 33572, Note_off_c, 2, 62, 127
1, 33573, Note_on_c, 2, 50, 127
1, 33631, Note_off_c, 10, 69, 127
1, 33631, Note_off_c, 2, 74, 127
1, 33631, Note_off_c, 6, 78, 127
1, 33803, Note_off_c, 2, 50, 127
1, 33804, Note_on_c, 4, 52, 127
1, 33804, Note_on_c, 0, 72, 127
1, 33804, Note_on_c, 7, 67, 127
1, 33804, Note_on_c, 7, 79, 127
1, 34033, Note_off_c, 4, 52, 127
1, 34034, Note_on_c, 0, 60, 127
1, 34092, Note_off_c, 7, 79, 127
1, 34092, Note_off_c, 7, 67, 127
1, 34092, Note_off_c, 0, 72, 127
1, 34264, Note_off_c, 0, 60, 127
1, 34265, Note_on_c, 6, 54, 127
1, 34265, Note_on_c, 10, 81, 127
1, 34265, Note_on_c, 0, 72, 127
1, 34265, Note_on_c, 2, 74, 127
1, 34494, Note_off_c, 6, 54, 127
1, 34495, Note_on_c, 2, 62, 127
1, 34553, Note_off_c, 2, 74, 127
1, 34553, Note_off_c, 0, 72, 127
1, 34553, Note_off_c, 10, 81, 127
1, 34725, Note_off_c, 2, 62, 127
1, 34726, Note_on_c, 12, 59, 127
1, 34726, Note_on_c, 7, 67, 127
1, 34726, Note_on_c, 7, 79, 127
1, 34726, Note_on_c, 2, 74, 127
1, 34955, Note_off_c, 12, 59, 127
1, 34956, Note_on_c, 10, 57, 127
1, 35014, Note_off_c, 7, 79, 127
1, 35070, Note_off_c, 10, 57, 127
1, 35071, Note_on_c, 7, 55, 127
1, 35181, Note_off_c, 2, 74, 127
1, 35181, Note_off_c, 7, 67, 127
1, 35185, Note_off_c, 7, 55, 127
1, 35186, Note_on_c, 2, 50, 127
1, 35186, Note_on_c, 6, 66, 127
1, 35300, Note_off_c, 2, 50, 127
1, 35301, Note_on_c, 6, 54, 127
1, 35415, Note_off_c, 6, 54, 127
1, 35415, Note_off_c, 6, 66, 127
1, 35416, Note_on_c, 12, 59, 127
1, 35416, Note_on_c, 2, 62, 127
1, 35530, Note_off_c, 12, 59, 127
1, 35531, Note_on_c, 6, 54, 127
1, 35645, Note_off_c, 6, 54, 127
1, 35645, Note_off_c, 2, 62, 127
1, 35646, Note_on_c, 1, 49, 127
1, 35646, Note_on_c, 4, 64, 127
1, 35760, Note_off_c, 1, 49, 127
1, 35761, Note_on_c, 4, 52, 127
1, 35875, Note_off_c, 4, 52, 127
1, 35875, Note_off_c, 4, 64, 127
1, 35876, Note_on_c, 10, 57, 127
1, 35876, Note_on_c, 1, 61, 127
1, 35990, Note_off_c, 10, 57, 127
1, 35991, Note_on_c, 4, 52, 127
1, 36105, Note_off_c, 4, 52, 127
1, 36105, Note_off_c, 1, 61, 127
1, 36106, Note_on_c, 12, 47, 127
1, 36106, Note_on_c, 2, 62, 127
1, 36220, Note_off_c, 12, 47, 127
1, 36221, Note_on_c, 2, 50, 127
1, 36335, Note_off_c, 2, 50, 127
1, 36335, Note_off_c, 2, 62, 127
1, 36336, Note_on_c, 8, 56, 127
1, 36336, Note_on_c, 12, 59, 127
1, 36450, Note_off_c, 8, 56, 127
1, 36451, Note_on_c, 2, 50, 127
1, 36565, Note_off_c, 2, 50, 127
1, 36565, Note_off_c, 12, 59, 127
1, 36566, Note_on_c, 10, 45, 127
1, 36566, Note_on_c, 1, 61, 127
1, 36680, Note_off_c, 10, 45, 127
1, 36681, Note_on_c, 1, 49, 127
1, 36795, Note_off_c, 1, 49, 127
1, 36796, Note_on_c, 4, 52, 127
1, 36910, Note_off_c, 4, 52, 127
1, 36911, Note_on_c, 10, 57, 127
1, 37021, Note_off_c, 1, 61, 127
1, 37025, Note_off_c, 10, 57, 127
1, 37026, Note_on_c, 12, 59, 127
1, 37026, Note_on_c, 7, 67, 127
1, 37140, Note_off_c, 7, 67, 127
1, 37141, Note_on_c, 12, 71, 127
1, 37255, Note_off_c, 12, 71, 127
1, 37255, Note_off_c, 12, 59, 127
1, 37256, Note_on_c, 7, 55, 127
1, 37256, Note_on_c, 4, 76, 127
1, 37370, Note_off_c, 4, 76, 127
1, 37371, Note_on_c, 12, 71, 127
1, 37485, Note_off_c, 12, 71, 127
1, 37485, Note_off_c, 7, 55, 127
1, 37486, Note_on_c, 10, 57, 127
1, 37486, Note_on_c, 6, 66, 127
1, 37600, Note_off_c, 6, 66, 127
1, 37601, Note_on_c, 10, 69, 127
1, 37715, Note_off_c, 10, 69, 127
1, 37715, Note_off_c, 10, 57, 127
1, 37716, Note_on_c, 6, 54, 127
1, 37716, Note_on_c, 2, 74, 127
1, 37830, Note_off_c, 2, 74, 127
1, 37831, Note_on_c, 10, 69, 127
1, 37945, Note_off_c, 10, 69, 127
1, 37945, Note_off_c, 6, 54, 127
1, 37946, Note_on_c, 7, 55, 127
1, 37946, Note_on_c, 4, 64, 127
1, 38060, Note_off_c, 4, 64, 127
1, 38061, Note_on_c, 7, 67, 127
1, 38175, Note_off_c, 7, 67, 127
1, 38175, Note_off_c, 7, 55, 127
1, 38176, Note_on_c, 4, 52, 127
1, 38176, Note_on_c, 1, 73, 127
1, 38290, Note_off_c, 1, 73, 127
1, 38291, Note_on_c, 7, 67, 127
1, 38405, Note_off_c, 7, 67, 127
1, 38405, Note_off_c, 4, 52, 127
1, 38406, Note_on_c, 6, 54, 127
1, 38406, Note_on_c, 2, 62, 127
1, 38521, Note_on_c, 6, 66, 127
1, 38635, Note_off_c, 6, 66, 127
1, 38636, Note_on_c, 10, 69, 127
1, 38694, Note_off_c, 6, 54, 127
1, 38750, Note_off_c, 10, 69, 127
1, 38751, Note_on_c, 2, 74, 127
1, 38861, Note_off_c, 2, 62, 127
1, 38865, Note_off_c, 2, 74, 127
1, 38866, Note_on_c, 2, 62, 127
1, 38866, Note_on_c, 12, 71, 127
1, 38980, Note_off_c, 12, 71, 127
1, 38981, Note_on_c, 2, 74, 127
1, 39095, Note_off_c, 2, 74, 127
1, 39095, Note_off_c, 2, 62, 127
1, 39096, Note_on_c, 12, 59, 127
1, 39096, Note_on_c, 7, 79, 127
1, 39210, Note_off_c, 7, 79, 127
1, 39211, Note_on_c, 2, 74, 127
1, 39325, Note_off_c, 2, 74, 127
1, 39325, Note_off_c, 12, 59, 127
1, 39326, Note_on_c, 1, 61, 127
1, 39326, Note_on_c, 10, 69, 127
1, 39440, Note_off_c, 10, 69, 127
1, 39441, Note_on_c, 1, 73, 127
1, 39555, Note_off_c, 1, 73, 127
1, 39555, Note_off_c, 1, 61, 127
1, 39556, Note_on_c, 10, 57, 127
1, 39556, Note_on_c, 6, 78, 127
1, 39670, Note_off_c, 6, 78, 127
1, 39671, Note_on_c, 1, 73, 127
1, 39785, Note_off_c, 1, 73, 127
1, 39785, Note_off_c, 10, 57, 127
1, 39786, Note_on_c, 12, 59, 127
1, 39786, Note_on_c, 8, 68, 127
1, 39900, Note_off_c, 8, 68, 127
1, 39901, Note_on_c, 12, 71, 127
1, 40015, Note_off_c, 12, 71, 127
1, 40015, Note_off_c, 12, 59, 127
1, 40016, Note_on_c, 8, 56, 127
1, 40016, Note_on_c, 5, 77, 127
1, 40130, Note_off_c, 5, 77, 127
1, 40131, Note_on_c, 12, 71, 127
1, 40245, Note_off_c, 12, 71, 127
1, 40245, Note_off_c, 8, 56, 127
1, 40246, Note_on_c, 10, 57, 127
1, 40246, Note_on_c, 6, 66, 127
1, 40360, Note_off_c, 6, 66, 127
1, 40361, Note_on_c, 10, 69, 127
1, 40475, Note_off_c, 10, 69, 127
1, 40476, Note_on_c, 1, 73, 127
1, 40590, Note_off_c, 1, 73, 127
1, 40591, Note_on_c, 6, 78, 127
1, 40701, Note_off_c, 10, 57, 127
1, 40705, Note_off_c, 6, 78, 127
1, 40706, Note_on_c, 12, 59, 127
1, 40706, Note_on_c, 2, 74, 127
1, 40820, Note_off_c, 12, 59, 127
1, 40821, Note_on_c, 2, 62, 127
1, 40935, Note_off_c, 2, 62, 127
1, 40935, Note_off_c, 2, 74, 127
1, 40936, Note_on_c, 8, 68, 127
1, 40936, Note_on_c, 12, 71, 127
1, 41050, Note_off_c, 8, 68, 127
1, 41051, Note_on_c, 2, 62, 127
1, 41165, Note_off_c, 2, 62, 127
1, 41165, Note_off_c, 12, 71, 127
1, 41166, Note_on_c, 10, 57, 127
1, 41166, Note_on_c, 1, 73, 127
1, 41280, Note_off_c, 10, 57, 127
1, 41281, Note_on_c, 1, 61, 127
1, 41395, Note_off_c, 1, 61, 127
1, 41395, Note_off_c, 1, 73, 127
1, 41396, Note_on_c, 6, 66, 127
1, 41396, Note_on_c, 10, 69, 127
1, 41510, Note_off_c, 6, 66, 127
1, 41511, Note_on_c, 1, 61, 127
1, 41625, Note_off_c, 1, 61, 127
1, 41625, Note_off_c, 10, 69, 127
1, 41626, Note_on_c, 8, 56, 127
1, 41626, Note_on_c, 12, 71, 127
1, 41740, Note_off_c, 8, 56, 127
1, 41741, Note_on_c, 12, 59, 127
1, 41855, Note_off_c, 12, 59, 127
1, 41855, Note_off_c, 12, 71, 127
1, 41856, Note_on_c, 5, 65, 127
1, 41856, Note_on_c, 8, 68, 127
1, 41970, Note_off_c, 5, 65, 127
1, 41971, Note_on_c, 12, 59, 127
1, 42085, Note_off_c, 12, 59, 127
1, 42085, Note_off_c, 8, 68, 127
1, 42086, Note_on_c, 6, 54, 127
1, 42086, Note_on_c, 10, 69, 127
1, 42200, Note_off_c, 6, 54, 127
1, 42201, Note_on_c, 10, 57, 127
1, 42315, Note_off_c, 10, 57, 127
1, 42316, Note_on_c, 1, 61, 127
1, 42430, Note_off_c, 1, 61, 127
1, 42431, Note_on_c, 6, 66, 127
1, 42541, Note_off_c, 10, 69, 127
1, 42545, Note_off_c, 6, 66, 127
1, 42546, Note_on_c, 12, 59, 127
1, 42546, Note_on_c, 7, 67, 127
1, 42660, Note_off_c, 7, 67, 127
1, 42661, Note_on_c, 12, 71, 127
1, 42775, Note_off_c, 12, 71, 127
1, 42775, Note_off_c, 12, 59, 127
1, 42776, Note_on_c, 7, 55, 127
1, 42776, Note_on_c, 4, 76, 127
1, 42890, Note_off_c, 4, 76, 127
1, 42891, Note_on_c, 12, 71, 127
1, 43005, Note_off_c, 12, 71, 127
1, 43005, Note_off_c, 7, 55, 127
1, 43006, Note_on_c, 10, 57, 127
1, 43006, Note_on_c, 6, 66, 127
1, 43120, Note_off_c, 6, 66, 127
1, 43121, Note_on_c, 10, 69, 127
1, 43235, Note_off_c, 10, 69, 127
1, 43235, Note_off_c, 10, 57, 127
1, 43236, Note_on_c, 6, 54, 127
1, 43236, Note_on_c, 2, 74, 127
1, 43350, Note_off_c, 2, 74, 127
1, 43351, Note_on_c, 10, 69, 127
1, 43465, Note_off_c, 10, 69, 127
1, 43465, Note_off_c, 6, 54, 127
1, 43466, Note_on_c, 7, 55, 127
1, 43466, Note_on_c, 4, 64, 127
1, 43580, Note_off_c, 4, 64, 127
1, 43581, Note_on_c, 7, 67, 127
1, 43695, Note_off_c, 7, 67, 127
1, 43695, Note_off_c, 7, 55, 127
1, 43696, Note_on_c, 4, 52, 127
1, 43696, Note_on_c, 1, 73, 127
1, 43810, Note_off_c, 1, 73, 127
1, 43811, Note_on_c, 7, 67, 127
1, 43925, Note_off_c, 7, 67, 127
1, 43925, Note_off_c, 4, 52, 127
1, 43926, Note_on_c, 6, 54, 127
1, 43926, Note_on_c, 2, 62, 127
1, 44041, Note_on_c, 6, 66, 127
1, 44155, Note_off_c, 6, 66, 127
1, 44156, Note_on_c, 10, 69, 127
1, 44214, Note_off_c, 6, 54, 127
1, 44270, Note_off_c, 10, 69, 127
1, 44271, Note_on_c, 2, 74, 127
1, 44381, Note_off_c, 2, 62, 127
1, 44385, Note_off_c, 2, 74, 127
1, 44386, Note_on_c, 7, 55, 127
1, 44386, Note_on_c, 12, 71, 127
1, 44500, Note_off_c, 7, 55, 127
1, 44501, Note_on_c, 12, 59, 127
1, 44615, Note_off_c, 12, 59, 127
1, 44615, Note_off_c, 12, 71, 127
1, 44616, Note_on_c, 4, 64, 127
1, 44616, Note_on_c, 7, 67, 127
1, 44730, Note_off_c, 4, 64, 127
1, 44731, Note_on_c, 12, 59, 127
1, 44845, Note_off_c, 12, 59, 127
1, 44845, Note_off_c, 7, 67, 127
1, 44846, Note_on_c, 6, 54, 127
1, 44846, Note_on_c, 10, 69, 127
1, 44960, Note_off_c, 6, 54, 127
1, 44961, Note_on_c, 10, 57, 127
1, 45075, Note_off_c, 10, 57, 127
1, 45075, Note_off_c, 10, 69, 127
1, 45076, Note_on_c, 2, 62, 127
1, 45076, Note_on_c, 6, 66, 127
1, 45190, Note_off_c, 2, 62, 127
1, 45191, Note_on_c, 10, 57, 127
1, 45305, Note_off_c, 10, 57, 127
1, 45305, Note_off_c, 6, 66, 127
1, 45306, Note_on_c, 4, 52, 127
1, 45306, Note_on_c, 7, 67, 127
1, 45420, Note_off_c, 4, 52, 127
1, 45421, Note_on_c, 7, 55, 127
1, 45535, Note_off_c, 7, 55, 127
1, 45535, Note_off_c, 7, 67, 127
1, 45536, Note_on_c, 1, 61, 127
1, 45536, Note_on_c, 4, 64, 127
1, 45650, Note_off_c, 1, 61, 127
1, 45651, Note_on_c, 7, 55, 127
1, 45765, Note_off_c, 7, 55, 127
1, 45765, Note_off_c, 4, 64, 127
1, 45766, Note_on_c, 2, 50, 127
1, 45766, Note_on_c, 6, 66, 127
1, 45880, Note_off_c, 2, 50, 127
1, 45881, Note_on_c, 6, 54, 127
1, 45989, Note_off_c, 6, 54, 127
1, 45996, Note_on_c, 10, 57, 127
1, 46054, Note_off_c, 6, 66, 127
1, 46098, Note_off_c, 10, 57, 127
1, 46111, Note_on_c, 2, 62, 127
1, 46207, Note_off_c, 2, 62, 127
1, 46245, Note_on_c, 10, 69, 127
1, 46245, Note_on_c, 6, 54, 127
1, 46245, Note_on_c, 6, 42, 127
1, 46475, Note_on_c, 10, 57, 127
1, 46581, Note_off_c, 6, 54, 127
1, 46653, Note_off_c, 6, 42, 127
1, 46705, Note_off_c, 10, 57, 127
1, 46706, Note_on_c, 12, 59, 127
1, 46706, Note_on_c, 7, 43, 127
1, 46706, Note_on_c, 4, 52, 127
1, 46935, Note_off_c, 10, 69, 127
1, 46936, Note_on_c, 7, 67, 127
1, 47042, Note_off_c, 4, 52, 127
1, 47114, Note_off_c, 7, 43, 127
1, 47162, Note_off_c, 12, 59, 127
1, 47167, Note_on_c, 1, 61, 127
1, 47167, Note_on_c, 4, 52, 127
1, 47167, Note_on_c, 10, 45, 127
1, 47393, Note_off_c, 7, 67, 127
1, 47398, Note_on_c, 10, 69, 127
1, 47576, Note_off_c, 10, 45, 127
1, 47576, Note_off_c, 4, 52, 127
1, 47624, Note_off_c, 1, 61, 127
1, 47628, Note_off_c, 10, 69, 127
1, 47629, Note_on_c, 6, 66, 127
1, 47629, Note_on_c, 2, 38, 127
1, 47629, Note_on_c, 2, 50, 127
1, 47858, Note_off_c, 6, 66, 127
1, 47859, Note_on_c, 4, 64, 127
1, 47973, Note_off_c, 4, 64, 127
1, 47974, Note_on_c, 2, 62, 127
1, 48060, Note_off_c, 2, 38, 127
1, 48084, Note_off_c, 2, 50, 127
1, 48088, Note_off_c, 2, 62, 127
1, 48089, Note_on_c, 6, 78, 127
1, 48089, Note_on_c, 2, 62, 127
1, 48203, Note_off_c, 2, 62, 127
1, 48204, Note_on_c, 6, 66, 127
1, 48318, Note_off_c, 6, 66, 127
1, 48318, Note_off_c, 6, 78, 127
1, 48319, Note_on_c, 2, 74, 127
1, 48319, Note_on_c, 12, 71, 127
1, 48433, Note_off_c, 12, 71, 127
1, 48434, Note_on_c, 6, 66, 127
1, 48548, Note_off_c, 6, 66, 127
1, 48548, Note_off_c, 2, 74, 127
1, 48549, Note_on_c, 4, 76, 127
1, 48549, Note_on_c, 1, 61, 127
1, 48663, Note_off_c, 1, 61, 127
1, 48664, Note_on_c, 4, 64, 127
1, 48778, Note_off_c, 4, 64, 127
1, 48778, Note_off_c, 4, 76, 127
1, 48779, Note_on_c, 1, 73, 127
1, 48779, Note_on_c, 10, 69, 127
1, 48893, Note_off_c, 10, 69, 127
1, 48894, Note_on_c, 4, 64, 127
1, 49008, Note_off_c, 4, 64, 127
1, 49008, Note_off_c, 1, 73, 127
1, 49009, Note_on_c, 2, 74, 127
1, 49009, Note_on_c, 12, 59, 127
1, 49123, Note_off_c, 12, 59, 127
1, 49124, Note_on_c, 2, 62, 127
1, 49238, Note_off_c, 2, 62, 127
1, 49238, Note_off_c, 2, 74, 127
1, 49239, Note_on_c, 12, 71, 127
1, 49239, Note_on_c, 8, 68, 127
1, 49353, Note_off_c, 8, 68, 127
1, 49354, Note_on_c, 2, 62, 127
1, 49468, Note_off_c, 2, 62, 127
1, 49468, Note_off_c, 12, 71, 127
1, 49469, Note_on_c, 1, 73, 127
1, 49469, Note_on_c, 10, 57, 127
1, 49583, Note_off_c, 10, 57, 127
1, 49584, Note_on_c, 1, 61, 127
1, 49692, Note_off_c, 1, 61, 127
1, 49697, Note_off_c, 1, 73, 127
1, 49699, Note_on_c, 4, 64, 127
1, 49801, Note_off_c, 4, 64, 127
1, 49814, Note_on_c, 10, 69, 127
1, 49910, Note_off_c, 10, 69, 127
1, 49948, Note_on_c, 1, 49, 127
1, 49948, Note_on_c, 1, 61, 127
1, 49948, Note_on_c, 4, 76, 127
1, 50178, Note_on_c, 4, 64, 127
1, 50356, Note_off_c, 1, 61, 127
1, 50356, Note_off_c, 1, 49, 127
1, 50408, Note_off_c, 4, 64, 127
1, 50409, Note_on_c, 2, 50, 127
1, 50409, Note_on_c, 12, 59, 127
1, 50409, Note_on_c, 6, 66, 127
1, 50638, Note_off_c, 4, 76, 127
1, 50639, Note_on_c, 2, 74, 127
1, 50817, Note_off_c, 12, 59, 127
1, 50817, Note_off_c, 2, 50, 127
1, 50865, Note_off_c, 6, 66, 127
1, 50870, Note_on_c, 12, 59, 127
1, 50870, Note_on_c, 4, 52, 127
1, 50870, Note_on_c, 8, 68, 127
1, 51096, Note_off_c, 2, 74, 127
1, 51101, Note_on_c, 4, 76, 127
1, 51279, Note_off_c, 4, 52, 127
1, 51279, Note_off_c, 12, 59, 127
1, 51327, Note_off_c, 8, 68, 127
1, 51331, Note_off_c, 4, 76, 127
1, 51332, Note_on_c, 10, 57, 127
1, 51332, Note_on_c, 10, 45, 127
1, 51332, Note_on_c, 1, 73, 127
1, 51561, Note_off_c, 1, 73, 127
1, 51562, Note_on_c, 12, 71, 127
1, 51676, Note_off_c, 12, 71, 127
1, 51677, Note_on_c, 10, 69, 127
1, 51763, Note_off_c, 10, 45, 127
1, 51787, Note_off_c, 10, 57, 127
1, 51791, Note_off_c, 10, 69, 127
1, 51792, Note_on_c, 10, 69, 127
1, 51792, Note_on_c, 0, 84, 127
1, 51906, Note_off_c, 10, 69, 127
1, 51907, Note_on_c, 0, 72, 127
1, 52021, Note_off_c, 0, 72, 127
1, 52021, Note_off_c, 0, 84, 127
1, 52022, Note_on_c, 6, 78, 127
1, 52022, Note_on_c, 10, 81, 127
1, 52136, Note_off_c, 6, 78, 127
1, 52137, Note_on_c, 0, 72, 127
1, 52251, Note_off_c, 0, 72, 127
1, 52251, Note_off_c, 10, 81, 127
1, 52252, Note_on_c, 7, 67, 127
1, 52252, Note_on_c, 12, 83, 127
1, 52366, Note_off_c, 7, 67, 127
1, 52367, Note_on_c, 12, 71, 127
1, 52481, Note_off_c, 12, 71, 127
1, 52481, Note_off_c, 12, 83, 127
1, 52482, Note_on_c, 4, 76, 127
1, 52482, Note_on_c, 7, 79, 127
1, 52596, Note_off_c, 4, 76, 127
1, 52597, Note_on_c, 12, 71, 127
1, 52711, Note_off_c, 12, 71, 127
1, 52711, Note_off_c, 7, 79, 127
1, 52712, Note_on_c, 6, 66, 127
1, 52712, Note_on_c, 10, 81, 127
1, 52826, Note_off_c, 6, 66, 127
1, 52827, Note_on_c, 10, 69, 127
1, 52941, Note_off_c, 10, 69, 127
1, 52941, Note_off_c, 10, 81, 127
1, 52942, Note_on_c, 3, 75, 127
1, 52942, Note_on_c, 6, 78, 127
1, 53056, Note_off_c, 3, 75, 127
1, 53057, Note_on_c, 10, 69, 127
1, 53171, Note_off_c, 10, 69, 127
1, 53171, Note_off_c, 6, 78, 127
1, 53172, Note_on_c, 4, 64, 127
1, 53172, Note_on_c, 7, 79, 127
1, 53286, Note_off_c, 4, 64, 127
1, 53287, Note_on_c, 7, 67, 127
1, 53395, Note_off_c, 7, 67, 127
1, 53400, Note_off_c, 7, 79, 127
1, 53402, Note_on_c, 12, 71, 127
1, 53504, Note_off_c, 12, 71, 127
1, 53517, Note_on_c, 4, 76, 127
1, 53613, Note_off_c, 4, 76, 127
1, 53651, Note_on_c, 12, 71, 127
1, 53651, Note_on_c, 3, 75, 127
1, 53651, Note_on_c, 6, 66, 127
1, 53651, Note_on_c, 12, 59, 127
1, 53881, Note_on_c, 12, 47, 127
1, 54083, Note_off_c, 6, 66, 127
1, 54083, Note_off_c, 3, 75, 127
1, 54083, Note_off_c, 12, 71, 127
1, 54107, Note_off_c, 12, 59, 127
1, 54111, Note_off_c, 12, 47, 127
1, 54112, Note_on_c, 10, 69, 127
1, 54112, Note_on_c, 4, 64, 127
1, 54112, Note_on_c, 4, 76, 127
1, 54112, Note_on_c, 1, 49, 127
1, 54341, Note_off_c, 1, 49, 127
1, 54342, Note_on_c, 10, 57, 127
1, 54544, Note_off_c, 4, 76, 127
1, 54544, Note_off_c, 4, 64, 127
1, 54544, Note_off_c, 10, 69, 127
1, 54572, Note_off_c, 10, 57, 127
1, 54573, Note_on_c, 12, 71, 127
1, 54573, Note_on_c, 10, 69, 127
1, 54573, Note_on_c, 6, 78, 127
1, 54573, Note_on_c, 3, 51, 127
1, 54802, Note_off_c, 3, 51, 127
1, 54803, Note_on_c, 12, 59, 127
1, 55005, Note_off_c, 6, 78, 127
1, 55005, Note_off_c, 10, 69, 127
1, 55005, Note_off_c, 12, 71, 127
1, 55033, Note_off_c, 12, 59, 127
1, 55034, Note_on_c, 12, 71, 127
1, 55034, Note_on_c, 4, 76, 127
1, 55034, Note_on_c, 4, 64, 127
1, 55034, Note_on_c, 7, 55, 127
1, 55263, Note_off_c, 7, 55, 127
1, 55264, Note_on_c, 6, 54, 127
1, 55378, Note_off_c, 6, 54, 127
1, 55379, Note_on_c, 4, 52, 127
1, 55465, Note_off_c, 4, 64, 127
1, 55465, Note_off_c, 4, 76, 127
1, 55465, Note_off_c, 12, 71, 127
1, 55493, Note_off_c, 4, 52, 127
1, 55494, Note_on_c, 4, 64, 127
1, 55494, Note_on_c, 7, 55, 127
1, 55608, Note_off_c, 4, 64, 127
1, 55609, Note_on_c, 7, 67, 127
1, 55723, Note_off_c, 7, 67, 127
1, 55723, Note_off_c, 7, 55, 127
1, 55724, Note_on_c, 0, 72, 127
1, 55724, Note_on_c, 4, 52, 127
1, 55838, Note_off_c, 0, 72, 127
1, 55839, Note_on_c, 7, 67, 127
1, 55953, Note_off_c, 7, 67, 127
1, 55953, Note_off_c, 4, 52, 127
1, 55954, Note_on_c, 2, 62, 127
1, 55954, Note_on_c, 6, 54, 127
1, 56068, Note_off_c, 2, 62, 127
1, 56069, Note_on_c, 6, 66, 127
1, 56183, Note_off_c, 6, 66, 127
1, 56183, Note_off_c, 6, 54, 127
1, 56184, Note_on_c, 12, 71, 127
1, 56184, Note_on_c, 2, 50, 127
1, 56298, Note_off_c, 12, 71, 127
1, 56299, Note_on_c, 6, 66, 127
1, 56413, Note_off_c, 6, 66, 127
1, 56413, Note_off_c, 2, 50, 127
1, 56414, Note_on_c, 1, 61, 127
1, 56414, Note_on_c, 4, 52, 127
1, 56528, Note_off_c, 1, 61, 127
1, 56529, Note_on_c, 4, 64, 127
1, 56643, Note_off_c, 4, 64, 127
1, 56643, Note_off_c, 4, 52, 127
1, 56644, Note_on_c, 11, 70, 127
1, 56644, Note_on_c, 1, 49, 127
1, 56758, Note_off_c, 11, 70, 127
1, 56759, Note_on_c, 4, 64, 127
1, 56873, Note_off_c, 4, 64, 127
1, 56873, Note_off_c, 1, 49, 127
1, 56874, Note_on_c, 12, 59, 127
1, 56874, Note_on_c, 2, 50, 127
1, 56988, Note_off_c, 12, 59, 127
1, 56989, Note_on_c, 2, 62, 127
1, 57097, Note_off_c, 2, 62, 127
1, 57104, Note_on_c, 6, 66, 127
1, 57162, Note_off_c, 2, 50, 127
1, 57206, Note_off_c, 6, 66, 127
1, 57219, Note_on_c, 12, 71, 127
1, 57321, Note_off_c, 12, 71, 127
1, 57353, Note_on_c, 6, 54, 127
1, 57353, Note_on_c, 1, 61, 127
1, 57353, Note_on_c, 11, 70, 127
1, 57583, Note_on_c, 6, 42, 127
1, 57785, Note_off_c, 11, 70, 127
1, 57785, Note_off_c, 1, 61, 127
1, 57809, Note_off_c, 6, 54, 127
1, 57813, Note_off_c, 6, 42, 127
1, 57814, Note_on_c, 8, 44, 127
1, 57814, Note_on_c, 4, 64, 127
1, 57814, Note_on_c, 12, 59, 127
1, 57814, Note_on_c, 12, 71, 127
1, 58043, Note_off_c, 8, 44, 127
1, 58044, Note_on_c, 4, 52, 127
1, 58246, Note_off_c, 12, 71, 127
1, 58246, Note_off_c, 12, 59, 127
1, 58246, Note_off_c, 4, 64, 127
1, 58274, Note_off_c, 4, 52, 127
1, 58275, Note_on_c, 11, 46, 127
1, 58275, Note_on_c, 1, 73, 127
1, 58275, Note_on_c, 6, 66, 127
1, 58275, Note_on_c, 4, 64, 127
1, 58504, Note_off_c, 11, 46, 127
1, 58505, Note_on_c, 6, 54, 127
1, 58707, Note_off_c, 4, 64, 127
1, 58707, Note_off_c, 6, 66, 127
1, 58707, Note_off_c, 1, 73, 127
1, 58735, Note_off_c, 6, 54, 127
1, 58736, Note_on_c, 2, 50, 127
1, 58736, Note_on_c, 6, 66, 127
1, 58736, Note_on_c, 12, 71, 127
1, 58736, Note_on_c, 12, 59, 127
1, 58965, Note_off_c, 2, 50, 127
1, 58966, Note_on_c, 1, 49, 127
1, 59080, Note_off_c, 1, 49, 127
1, 59081, Note_on_c, 12, 47, 127
1, 59167, Note_off_c, 12, 59, 127
1, 59167, Note_off_c, 12, 71, 127
1, 59167, Note_off_c, 6, 66, 127
1, 59195, Note_off_c, 12, 47, 127
1, 59196, Note_on_c, 2, 62, 127
1, 59196, Note_on_c, 12, 71, 127
1, 59310, Note_off_c, 12, 71, 127
1, 59311, Note_on_c, 2, 74, 127
1, 59425, Note_off_c, 2, 74, 127
1, 59425, Note_off_c, 2, 62, 127
1, 59426, Note_on_c, 12, 59, 127
1, 59426, Note_on_c, 7, 79, 127
1, 59540, Note_off_c, 7, 79, 127
1, 59541, Note_on_c, 2, 74, 127
1, 59655, Note_off_c, 2, 74, 127
1, 59655, Note_off_c, 12, 59, 127
1, 59656, Note_on_c, 1, 61, 127
1, 59656, Note_on_c, 10, 69, 127
1, 59770, Note_off_c, 10, 69, 127
1, 59771, Note_on_c, 1, 73, 127
1, 59885, Note_off_c, 1, 73, 127
1, 59885, Note_off_c, 1, 61, 127
1, 59886, Note_on_c, 10, 57, 127
1, 59886, Note_on_c, 6, 78, 127
1, 60000, Note_off_c, 6, 78, 127
1, 60001, Note_on_c, 1, 73, 127
1, 60115, Note_off_c, 1, 73, 127
1, 60115, Note_off_c, 10, 57, 127
1, 60116, Note_on_c, 12, 59, 127
1, 60116, Note_on_c, 8, 68, 127
1, 60230, Note_off_c, 8, 68, 127
1, 60231, Note_on_c, 12, 71, 127
1, 60345, Note_off_c, 12, 71, 127
1, 60345, Note_off_c, 12, 59, 127
1, 60346, Note_on_c, 8, 56, 127
1, 60346, Note_on_c, 5, 77, 127
1, 60460, Note_off_c, 5, 77, 127
1, 60461, Note_on_c, 12, 71, 127
1, 60575, Note_off_c, 12, 71, 127
1, 60575, Note_off_c, 8, 56, 127
1, 60576, Note_on_c, 10, 57, 127
1, 60576, Note_on_c, 6, 66, 127
1, 60690, Note_off_c, 6, 66, 127
1, 60691, Note_on_c, 10, 69, 127
1, 60805, Note_off_c, 10, 69, 127
1, 60806, Note_on_c, 1, 73, 127
1, 60864, Note_off_c, 10, 57, 127
1, 60920, Note_off_c, 1, 73, 127
1, 60921, Note_on_c, 6, 78, 127
1, 61035, Note_off_c, 6, 78, 127
1, 61036, Note_on_c, 12, 47, 127
1, 61036, Note_on_c, 2, 74, 127
1, 61150, Note_off_c, 12, 47, 127
1, 61151, Note_on_c, 2, 50, 127
1, 61265, Note_off_c, 2, 50, 127
1, 61265, Note_off_c, 2, 74, 127
1, 61266, Note_on_c, 8, 56, 127
1, 61266, Note_on_c, 12, 71, 127
1, 61380, Note_off_c, 8, 56, 127
1, 61381, Note_on_c, 2, 50, 127
1, 61495, Note_off_c, 2, 50, 127
1, 61495, Note_off_c, 12, 71, 127
1, 61496, Note_on_c, 10, 45, 127
1, 61496, Note_on_c, 1, 73, 127
1, 61610, Note_off_c, 10, 45, 127
1, 61611, Note_on_c, 1, 49, 127
1, 61725, Note_off_c, 1, 49, 127
1, 61725, Note_off_c, 1, 73, 127
1, 61726, Note_on_c, 6, 54, 127
1, 61726, Note_on_c, 10, 69, 127
1, 61840, Note_off_c, 6, 54, 127
1, 61841, Note_on_c, 1, 49, 127
1, 61955, Note_off_c, 1, 49, 127
1, 61955, Note_off_c, 10, 69, 127
1, 61956, Note_on_c, 8, 44, 127
1, 61956, Note_on_c, 12, 71, 127
1, 62070, Note_off_c, 8, 44, 127
1, 62071, Note_on_c, 12, 47, 127
1, 62185, Note_off_c, 12, 47, 127
1, 62185, Note_off_c, 12, 71, 127
1, 62186, Note_on_c, 5, 53, 127
1, 62186, Note_on_c, 8, 68, 127
1, 62300, Note_off_c, 5, 53, 127
1, 62301, Note_on_c, 12, 47, 127
1, 62415, Note_off_c, 12, 47, 127
1, 62415, Note_off_c, 8, 68, 127
1, 62416, Note_on_c, 6, 42, 127
1, 62416, Note_on_c, 10, 69, 127
1, 62530, Note_off_c, 6, 42, 127
1, 62531, Note_on_c, 10, 45, 127
1, 62645, Note_off_c, 10, 45, 127
1, 62646, Note_on_c, 1, 49, 127
1, 62760, Note_off_c, 1, 49, 127
1, 62761, Note_on_c, 6, 54, 127
1, 62875, Note_off_c, 6, 54, 127
1, 62876, Note_on_c, 6, 42, 127
1, 62876, Note_on_c, 1, 61, 127
1, 62989, Note_off_c, 10, 69, 127
1, 62991, Note_on_c, 10, 69, 127
1, 63104, Note_off_c, 1, 61, 127
1, 63105, Note_off_c, 10, 69, 127
1, 63105, Note_off_c, 6, 42, 127
1, 63106, Note_on_c, 4, 52, 127
1, 63106, Note_on_c, 8, 68, 127
1, 63220, Note_off_c, 8, 68, 127
1, 63221, Note_on_c, 10, 69, 127
1, 63335, Note_off_c, 4, 52, 127
1, 63336, Note_on_c, 3, 51, 127
1, 63336, Note_on_c, 12, 59, 127
1, 63449, Note_off_c, 10, 69, 127
1, 63451, Note_on_c, 10, 69, 127
1, 63564, Note_off_c, 12, 59, 127
1, 63565, Note_off_c, 10, 69, 127
1, 63565, Note_off_c, 3, 51, 127
1, 63566, Note_on_c, 1, 49, 127
1, 63566, Note_on_c, 8, 68, 127
1, 63680, Note_off_c, 8, 68, 127
1, 63681, Note_on_c, 10, 69, 127
1, 63795, Note_off_c, 1, 49, 127
1, 63796, Note_on_c, 3, 51, 127
1, 63796, Note_on_c, 12, 59, 127
1, 63909, Note_off_c, 10, 69, 127
1, 63910, Note_off_c, 12, 59, 127
1, 63911, Note_on_c, 10, 69, 127
1, 64025, Note_off_c, 10, 69, 127
1, 64025, Note_off_c, 3, 51, 127
1, 64026, Note_on_c, 12, 47, 127
1, 64026, Note_on_c, 8, 68, 127
1, 64140, Note_off_c, 8, 68, 127
1, 64141, Note_on_c, 10, 69, 127
1, 64255, Note_off_c, 10, 69, 127
1, 64255, Note_off_c, 12, 47, 127
1, 64256, Note_on_c, 4, 52, 127
1, 64256, Note_on_c, 12, 59, 127
1, 64370, Note_off_c, 12, 59, 127
1, 64371, Note_on_c, 7, 67, 127
1, 64485, Note_off_c, 7, 67, 127
1, 64486, Note_on_c, 4, 40, 127
1, 64486, Note_on_c, 6, 66, 127
1, 64600, Note_off_c, 6, 66, 127
1, 64601, Note_on_c, 7, 67, 127
1, 64711, Note_off_c, 4, 52, 127
1, 64715, Note_off_c, 4, 40, 127
1, 64716, Note_on_c, 4, 52, 127
1, 64716, Note_on_c, 12, 59, 127
1, 64829, Note_off_c, 7, 67, 127
1, 64831, Note_on_c, 7, 67, 127
1, 64944, Note_off_c, 12, 59, 127
1, 64945, Note_off_c, 7, 67, 127
1, 64945, Note_off_c, 4, 52, 127
1, 64946, Note_on_c, 2, 50, 127
1, 64946, Note_on_c, 6, 66, 127
1, 65060, Note_off_c, 6, 66, 127
1, 65061, Note_on_c, 7, 67, 127
1, 65175, Note_off_c, 2, 50, 127
1, 65176, Note_on_c, 1, 49, 127
1, 65176, Note_on_c, 10, 57, 127
1, 65289, Note_off_c, 7, 67, 127
1, 65291, Note_on_c, 7, 67, 127
1, 65404, Note_off_c, 10, 57, 127
1, 65405, Note_off_c, 7, 67, 127
1, 65405, Note_off_c, 1, 49, 127
1, 65406, Note_on_c, 12, 47, 127
1, 65406, Note_on_c, 6, 66, 127
1, 65520, Note_off_c, 6, 66, 127
1, 65521, Note_on_c, 7, 67, 127
1, 65635, Note_off_c, 12, 47, 127
1, 65636, Note_on_c, 1, 49, 127
1, 65636, Note_on_c, 10, 57, 127
1, 65749, Note_off_c, 7, 67, 127
1, 65750, Note_off_c, 10, 57, 127
1, 65751, Note_on_c, 7, 67, 127
1, 65865, Note_off_c, 7, 67, 127
1, 65865, Note_off_c, 1, 49, 127
1, 65866, Note_on_c, 10, 45, 127
1, 65866, Note_on_c, 6, 66, 127
1, 65980, Note_off_c, 6, 66, 127
1, 65981, Note_on_c, 7, 67, 127
1, 66095, Note_off_c, 7, 67, 127
1, 66095, Note_off_c, 10, 45, 127
1, 66096, Note_on_c, 2, 50, 127
1, 66096, Note_on_c, 10, 57, 127
1, 66210, Note_off_c, 10, 57, 127
1, 66211, Note_on_c, 6, 66, 127
1, 66325, Note_off_c, 6, 66, 127
1, 66326, Note_on_c, 2, 38, 127
1, 66326, Note_on_c, 4, 64, 127
1, 66440, Note_off_c, 4, 64, 127
1, 66441, Note_on_c, 6, 66, 127
1, 66551, Note_off_c, 2, 50, 127
1, 66555, Note_off_c, 2, 38, 127
1, 66556, Note_on_c, 2, 50, 127
1, 66556, Note_on_c, 10, 57, 127
1, 66669, Note_off_c, 6, 66, 127
1, 66671, Note_on_c, 6, 66, 127
1, 66784, Note_off_c, 10, 57, 127
1, 66785, Note_off_c, 6, 66, 127
1, 66785, Note_off_c, 2, 50, 127
1, 66786, Note_on_c, 12, 47, 127
1, 66786, Note_on_c, 4, 64, 127
1, 66900, Note_off_c, 4, 64, 127
1, 66901, Note_on_c, 6, 66, 127
1, 67015, Note_off_c, 6, 66, 127
1, 67015, Note_off_c, 12, 47, 127
1, 67016, Note_on_c, 1, 49, 127
1, 67016, Note_on_c, 7, 55, 127
1, 67131, Note_on_c, 4, 64, 127
1, 67244, Note_off_c, 7, 55, 127
1, 67245, Note_off_c, 4, 64, 127
1, 67245, Note_off_c, 1, 49, 127
1, 67246, Note_on_c, 2, 50, 127
1, 67246, Note_on_c, 6, 54, 127
1, 67354, Note_off_c, 6, 54, 127
1, 67361, Note_on_c, 2, 62, 127
1, 67475, Note_off_c, 2, 62, 127
1, 67475, Note_off_c, 2, 50, 127
1, 67476, Note_on_c, 7, 43, 127
1, 67476, Note_on_c, 4, 52, 127
1, 67590, Note_off_c, 4, 52, 127
1, 67591, Note_on_c, 2, 62, 127
1, 67705, Note_off_c, 2, 62, 127
1, 67705, Note_off_c, 7, 43, 127
1, 67706, Note_on_c, 10, 45, 127
1, 67706, Note_on_c, 4, 52, 127
1, 67820, Note_off_c, 4, 52, 127
1, 67821, Note_on_c, 1, 61, 127
1, 67935, Note_off_c, 1, 61, 127
1, 67935, Note_off_c, 10, 45, 127
1, 67936, Note_on_c, 2, 38, 127
1, 67936, Note_on_c, 2, 50, 127
1, 67936, Note_on_c, 6, 54, 127
1, 67936, Note_on_c, 10, 57, 127
1, 67936, Note_on_c, 2, 62, 127
1, 68224, Note_off_c, 10, 57, 127
1, 68224, Note_off_c, 6, 54, 127
1, 68224, Note_off_c, 2, 38, 127
1, 68344, Note_off_c, 2, 62, 127
1, 68377, Note_off_c, 2, 50, 127
1, 68397, Note_on_c, 10, 57, 127
1, 68397, Note_on_c, 6, 78, 127
1, 68511, Note_off_c, 10, 57, 127
1, 68512, Note_on_c, 6, 66, 127
1, 68626, Note_off_c, 6, 66, 127
1, 68626, Note_off_c, 6, 78, 127
1, 68627, Note_on_c, 4, 64, 127
1, 68627, Note_on_c, 10, 81, 127
1, 68741, Note_off_c, 4, 64, 127
1, 68742, Note_on_c, 6, 66, 127
1, 68856, Note_off_c, 6, 66, 127
1, 68856, Note_off_c, 10, 81, 127
1, 68857, Note_on_c, 10, 57, 127
1, 68857, Note_on_c, 4, 76, 127
1, 68913, Note_off_c, 4, 76, 127
1, 68914, Note_on_c, 3, 75, 127
1, 68970, Note_off_c, 3, 75, 127
1, 68971, Note_on_c, 6, 66, 127
1, 68971, Note_on_c, 4, 76, 127
1, 69027, Note_off_c, 4, 76, 127
1, 69028, Note_on_c, 3, 75, 127
1, 69083, Note_off_c, 10, 57, 127
1, 69084, Note_off_c, 3, 75, 127
1, 69084, Note_off_c, 6, 66, 127
1, 69085, Note_on_c, 4, 64, 127
1, 69085, Note_on_c, 1, 73, 127
1, 69199, Note_off_c, 4, 64, 127
1, 69200, Note_on_c, 6, 66, 127
1, 69314, Note_off_c, 6, 66, 127
1, 69314, Note_off_c, 1, 73, 127
1, 69315, Note_on_c, 10, 57, 127
1, 69315, Note_on_c, 3, 75, 127
1, 69429, Note_off_c, 10, 57, 127
1, 69430, Note_on_c, 6, 66, 127
1, 69544, Note_off_c, 6, 66, 127
1, 69544, Note_off_c, 3, 75, 127
1, 69545, Note_on_c, 4, 64, 127
1, 69545, Note_on_c, 12, 71, 127
1, 69659, Note_off_c, 4, 64, 127
1, 69660, Note_on_c, 6, 66, 127
1, 69774, Note_off_c, 6, 66, 127
1, 69774, Note_off_c, 12, 71, 127
1, 69775, Note_on_c, 7, 55, 127
1, 69775, Note_on_c, 4, 76, 127
1, 69889, Note_off_c, 7, 55, 127
1, 69890, Note_on_c, 4, 64, 127
1, 70004, Note_off_c, 4, 64, 127
1, 70004, Note_off_c, 4, 76, 127
1, 70005, Note_on_c, 3, 63, 127
1, 70005, Note_on_c, 4, 64, 127
1, 70113, Note_off_c, 4, 64, 127
1, 70119, Note_off_c, 3, 63, 127
1, 70120, Note_on_c, 4, 64, 127
1, 70234, Note_off_c, 4, 64, 127
1, 70235, Note_on_c, 7, 55, 127
1, 70235, Note_on_c, 4, 76, 127
1, 70349, Note_off_c, 7, 55, 127
1, 70350, Note_on_c, 4, 64, 127
1, 70464, Note_off_c, 4, 64, 127
1, 70464, Note_off_c, 4, 76, 127
1, 70465, Note_on_c, 3, 63, 127
1, 70465, Note_on_c, 7, 79, 127
1, 70579, Note_off_c, 3, 63, 127
1, 70580, Note_on_c, 4, 64, 127
1, 70694, Note_off_c, 4, 64, 127
1, 70694, Note_off_c, 7, 79, 127
1, 70695, Note_on_c, 7, 55, 127
1, 70695, Note_on_c, 2, 74, 127
1, 70751, Note_off_c, 2, 74, 127
1, 70752, Note_on_c, 1, 73, 127
1, 70808, Note_off_c, 1, 73, 127
1, 70809, Note_on_c, 4, 64, 127
1, 70809, Note_on_c, 2, 74, 127
1, 70865, Note_off_c, 2, 74, 127
1, 70866, Note_on_c, 1, 73, 127
1, 70921, Note_off_c, 7, 55, 127
1, 70922, Note_off_c, 1, 73, 127
1, 70922, Note_off_c, 4, 64, 127
1, 70923, Note_on_c, 2, 62, 127
1, 70923, Note_on_c, 12, 71, 127
1, 71037, Note_off_c, 2, 62, 127
1, 71038, Note_on_c, 4, 64, 127
1, 71152, Note_off_c, 4, 64, 127
1, 71152, Note_off_c, 12, 71, 127
1, 71153, Note_on_c, 7, 55, 127
1, 71153, Note_on_c, 1, 73, 127
1, 71267, Note_off_c, 7, 55, 127
1, 71268, Note_on_c, 4, 64, 127
1, 71382, Note_off_c, 4, 64, 127
1, 71382, Note_off_c, 1, 73, 127
1, 71383, Note_on_c, 2, 62, 127
1, 71383, Note_on_c, 10, 69, 127
1, 71497, Note_off_c, 2, 62, 127
1, 71498, Note_on_c, 4, 64, 127
1, 71612, Note_off_c, 4, 64, 127
1, 71612, Note_off_c, 10, 69, 127
1, 71613, Note_on_c, 6, 54, 127
1, 71613, Note_on_c, 2, 74, 127
1, 71727, Note_off_c, 6, 54, 127
1, 71728, Note_on_c, 2, 62, 127
1, 71842, Note_off_c, 2, 62, 127
1, 71842, Note_off_c, 2, 74, 127
1, 71843, Note_on_c, 1, 61, 127
1, 71843, Note_on_c, 2, 62, 127
1, 71951, Note_off_c, 2, 62, 127
1, 71957, Note_off_c, 1, 61, 127
1, 71958, Note_on_c, 2, 62, 127
1, 72072, Note_off_c, 2, 62, 127
1, 72073, Note_on_c, 6, 54, 127
1, 72073, Note_on_c, 2, 74, 127
1, 72187, Note_off_c, 6, 54, 127
1, 72188, Note_on_c, 2, 62, 127
1, 72302, Note_off_c, 2, 62, 127
1, 72302, Note_off_c, 2, 74, 127
1, 72303, Note_on_c, 1, 61, 127
1, 72303, Note_on_c, 6, 78, 127
1, 72417, Note_off_c, 1, 61, 127
1, 72418, Note_on_c, 2, 62, 127
1, 72532, Note_off_c, 2, 62, 127
1, 72532, Note_off_c, 6, 78, 127
1, 72533, Note_on_c, 4, 52, 127
1, 72533, Note_on_c, 7, 79, 127
1, 72647, Note_off_c, 7, 79, 127
1, 72647, Note_off_c, 4, 52, 127
1, 72648, Note_on_c, 1, 61, 127
1, 72648, Note_on_c, 10, 81, 127
1, 72762, Note_off_c, 10, 81, 127
1, 72762, Note_off_c, 1, 61, 127
1, 72763, Note_on_c, 2, 50, 127
1, 72763, Note_on_c, 6, 78, 127
1, 72877, Note_off_c, 6, 78, 127
1, 72877, Note_off_c, 2, 50, 127
1, 72878, Note_on_c, 2, 62, 127
1, 72878, Note_on_c, 7, 79, 127
1, 72992, Note_off_c, 7, 79, 127
1, 72992, Note_off_c, 2, 62, 127
1, 72993, Note_on_c, 7, 55, 127
1, 72993, Note_on_c, 6, 78, 127
1, 73049, Note_off_c, 6, 78, 127
1, 73050, Note_on_c, 4, 76, 127
1, 73106, Note_off_c, 4, 76, 127
1, 73106, Note_off_c, 7, 55, 127
1, 73107, Note_on_c, 2, 62, 127
1, 73107, Note_on_c, 6, 78, 127
1, 73163, Note_off_c, 6, 78, 127
1, 73164, Note_on_c, 4, 76, 127
1, 73220, Note_off_c, 2, 62, 127
1, 73221, Note_on_c, 10, 57, 127
1, 73335, Note_off_c, 10, 57, 127
1, 73335, Note_off_c, 4, 76, 127
1, 73336, Note_on_c, 1, 61, 127
1, 73336, Note_on_c, 2, 74, 127
1, 73450, Note_off_c, 2, 74, 127
1, 73450, Note_off_c, 1, 61, 127
1, 73451, Note_on_c, 2, 50, 127
1, 73451, Note_on_c, 2, 74, 127
1, 73565, Note_off_c, 2, 50, 127
1, 73566, Note_on_c, 6, 54, 127
1, 73674, Note_off_c, 6, 54, 127
1, 73681, Note_on_c, 10, 57, 127
1, 73739, Note_off_c, 2, 74, 127
1, 73783, Note_off_c, 10, 57, 127
1, 73796, Note_on_c, 2, 62, 127
1, 73892, Note_off_c, 2, 62, 127
1, 73926, Note_on_c, 6, 54, 127
1, 73926, Note_on_c, 6, 42, 127
1, 73926, Note_on_c, 10, 69, 127
1, 74161, Note_on_c, 10, 57, 127
1, 74334, Note_off_c, 6, 42, 127
1, 74334, Note_off_c, 6, 54, 127
1, 74390, Note_off_c, 10, 57, 127
1, 74391, Note_on_c, 12, 59, 127
1, 74391, Note_on_c, 4, 52, 127
1, 74391, Note_on_c, 7, 43, 127
1, 74615, Note_off_c, 10, 69, 127
1, 74621, Note_on_c, 7, 67, 127
1, 74799, Note_off_c, 7, 43, 127
1, 74799, Note_off_c, 4, 52, 127
1, 74847, Note_off_c, 12, 59, 127
1, 74852, Note_on_c, 1, 61, 127
1, 74852, Note_on_c, 10, 45, 127
1, 74852, Note_on_c, 4, 52, 127
1, 75078, Note_off_c, 7, 67, 127
1, 75083, Note_on_c, 10, 69, 127
1, 75261, Note_off_c, 4, 52, 127
1, 75261, Note_off_c, 10, 45, 127
1, 75309, Note_off_c, 1, 61, 127
1, 75313, Note_off_c, 10, 69, 127
1, 75314, Note_on_c, 6, 66, 127
1, 75314, Note_on_c, 2, 50, 127
1, 75314, Note_on_c, 2, 38, 127
1, 75543, Note_off_c, 6, 66, 127
1, 75544, Note_on_c, 4, 64, 127
1, 75658, Note_off_c, 4, 64, 127
1, 75659, Note_on_c, 2, 62, 127
1, 75721, Note_off_c, 2, 38, 127
1, 75769, Note_off_c, 2, 50, 127
1, 75773, Note_off_c, 2, 62, 127
1, 75784, Note_on_c, 12, 59, 127
1, 75784, Note_on_c, 8, 68, 127
1, 75784, Note_on_c, 4, 64, 127
1, 75784, Note_on_c, 4, 52, 127
1, 76013, Note_off_c, 4, 52, 127
1, 76014, Note_on_c, 4, 40, 127
1, 76216, Note_off_c, 4, 64, 127
1, 76216, Note_off_c, 8, 68, 127
1, 76216, Note_off_c, 12, 59, 127
1, 76244, Note_off_c, 4, 40, 127
1, 76245, Note_on_c, 2, 62, 127
1, 76245, Note_on_c, 10, 69, 127
1, 76245, Note_on_c, 10, 57, 127
1, 76245, Note_on_c, 6, 42, 127
1, 76474, Note_off_c, 6, 42, 127
1, 76475, Note_on_c, 2, 50, 127
1, 76677, Note_off_c, 10, 57, 127
1, 76677, Note_off_c, 10, 69, 127
1, 76677, Note_off_c, 2, 62, 127
1, 76705, Note_off_c, 2, 50, 127
1, 76706, Note_on_c, 12, 71, 127
1, 76706, Note_on_c, 2, 62, 127
1, 76706, Note_on_c, 4, 64, 127
1, 76706, Note_on_c, 8, 44, 127
1, 76935, Note_off_c, 8, 44, 127
1, 76936, Note_on_c, 4, 52, 127
1, 77138, Note_off_c, 4, 64, 127
1, 77138, Note_off_c, 2, 62, 127
1, 77138, Note_off_c, 12, 71, 127
1, 77166, Note_off_c, 4, 52, 127
1, 77167, Note_on_c, 10, 57, 127
1, 77167, Note_on_c, 4, 64, 127
1, 77167, Note_on_c, 10, 69, 127
1, 77167, Note_on_c, 1, 49, 127
1, 77396, Note_off_c, 1, 49, 127
1, 77397, Note_on_c, 12, 47, 127
1, 77511, Note_off_c, 12, 47, 127
1, 77512, Note_on_c, 10, 45, 127
1, 77598, Note_off_c, 10, 69, 127
1, 77598, Note_off_c, 4, 64, 127
1, 77622, Note_off_c, 10, 57, 127
1, 77626, Note_off_c, 10, 45, 127
1, 77656, Note_on_c, 10, 57, 127
1, 77656, Note_on_c, 10, 45, 127
1, 77656, Note_on_c, 1, 73, 127
1, 77885, Note_off_c, 1, 73, 127
1, 77886, Note_on_c, 1, 61, 127
1, 77944, Note_off_c, 10, 45, 127
1, 77944, Note_off_c, 10, 57, 127
1, 78116, Note_off_c, 1, 61, 127
1, 78117, Note_on_c, 8, 56, 127
1, 78117, Note_on_c, 12, 47, 127
1, 78117, Note_on_c, 3, 63, 127
1, 78346, Note_off_c, 3, 63, 127
1, 78347, Note_on_c, 12, 71, 127
1, 78405, Note_off_c, 12, 47, 127
1, 78405, Note_off_c, 8, 56, 127
1, 78577, Note_off_c, 12, 71, 127
1, 78578, Note_on_c, 1, 49, 127
1, 78578, Note_on_c, 8, 56, 127
1, 78578, Note_on_c, 5, 65, 127
1, 78807, Note_off_c, 5, 65, 127
1, 78808, Note_on_c, 1, 73, 127
1, 78866, Note_off_c, 8, 56, 127
1, 78866, Note_off_c, 1, 49, 127
1, 79038, Note_off_c, 1, 73, 127
1, 79039, Note_on_c, 6, 54, 127
1, 79039, Note_on_c, 6, 42, 127
1, 79039, Note_on_c, 10, 69, 127
1, 79268, Note_off_c, 10, 69, 127
1, 79269, Note_on_c, 8, 68, 127
1, 79327, Note_off_c, 6, 42, 127
1, 79383, Note_off_c, 8, 68, 127
1, 79384, Note_on_c, 6, 66, 127
1, 79494, Note_off_c, 6, 54, 127
1, 79498, Note_off_c, 6, 66, 127
1, 79499, Note_on_c, 1, 61, 127
1, 79499, Note_on_c, 5, 65, 127
1, 79728, Note_off_c, 1, 61, 127
1, 79729, Note_on_c, 1, 49, 127
1, 79787, Note_off_c, 5, 65, 127
1, 79959, Note_off_c, 1, 49, 127
1, 79960, Note_on_c, 3, 51, 127
1, 79960, Note_on_c, 12, 59, 127
1, 79960, Note_on_c, 6, 66, 127
1, 80188, Note_off_c, 12, 59, 127
1, 80189, Note_off_c, 3, 51, 127
1, 80190, Note_on_c, 12, 59, 127
1, 80248, Note_off_c, 6, 66, 127
1, 80420, Note_off_c, 12, 59, 127
1, 80421, Note_on_c, 5, 53, 127
1, 80421, Note_on_c, 8, 68, 127
1, 80421, Note_on_c, 12, 59, 127
1, 80650, Note_off_c, 5, 53, 127
1, 80651, Note_on_c, 1, 61, 127
1, 80709, Note_off_c, 12, 59, 127
1, 80709, Note_off_c, 8, 68, 127
1, 80881, Note_off_c, 1, 61, 127
1, 80882, Note_on_c, 10, 57, 127
1, 80882, Note_on_c, 1, 61, 127
1, 80882, Note_on_c, 6, 66, 127
1, 81111, Note_off_c, 10, 57, 127
1, 81112, Note_on_c, 8, 56, 127
1, 81170, Note_off_c, 1, 61, 127
1, 81226, Note_off_c, 8, 56, 127
1, 81227, Note_on_c, 6, 54, 127
1, 81341, Note_off_c, 6, 54, 127
1, 81342, Note_on_c, 10, 45, 127
1, 81342, Note_on_c, 1, 73, 127
1, 81457, Note_off_c, 6, 66, 127
1, 81457, Note_on_c, 6, 66, 127
1, 81571, Note_off_c, 6, 66, 127
1, 81571, Note_off_c, 10, 45, 127
1, 81572, Note_on_c, 6, 54, 127
1, 81572, Note_on_c, 5, 65, 127
1, 81686, Note_off_c, 5, 65, 127
1, 81687, Note_on_c, 6, 66, 127
1, 81797, Note_off_c, 1, 73, 127
1, 81801, Note_off_c, 6, 66, 127
1, 81801, Note_off_c, 6, 54, 127
1, 81802, Note_on_c, 12, 47, 127
1, 81802, Note_on_c, 2, 74, 127
1, 81917, Note_on_c, 6, 66, 127
1, 82031, Note_off_c, 6, 66, 127
1, 82031, Note_off_c, 12, 47, 127
1, 82032, Note_on_c, 8, 56, 127
1, 82032, Note_on_c, 5, 65, 127
1, 82146, Note_off_c, 5, 65, 127
1, 82147, Note_on_c, 6, 66, 127
1, 82257, Note_off_c, 2, 74, 127
1, 82261, Note_off_c, 6, 66, 127
1, 82261, Note_off_c, 8, 56, 127
1, 82262, Note_on_c, 1, 49, 127
1, 82262, Note_on_c, 1, 73, 127
1, 82377, Note_on_c, 6, 66, 127
1, 82491, Note_off_c, 6, 66, 127
1, 82491, Note_off_c, 1, 49, 127
1, 82492, Note_on_c, 10, 57, 127
1, 82492, Note_on_c, 5, 65, 127
1, 82606, Note_off_c, 5, 65, 127
1, 82607, Note_on_c, 6, 66, 127
1, 82717, Note_off_c, 1, 73, 127
1, 82721, Note_off_c, 6, 66, 127
1, 82721, Note_off_c, 10, 57, 127
1, 82722, Note_on_c, 2, 50, 127
1, 82722, Note_on_c, 12, 71, 127
1, 82837, Note_on_c, 6, 66, 127
1, 82951, Note_off_c, 6, 66, 127
1, 82951, Note_off_c, 2, 50, 127
1, 82952, Note_on_c, 12, 59, 127
1, 82952, Note_on_c, 5, 65, 127
1, 83066, Note_off_c, 5, 65, 127
1, 83067, Note_on_c, 6, 66, 127
1, 83177, Note_off_c, 12, 71, 127
1, 83181, Note_off_c, 6, 66, 127
1, 83181, Note_off_c, 12, 59, 127
1, 83182, Note_on_c, 1, 49, 127
1, 83182, Note_on_c, 1, 73, 127
1, 83297, Note_on_c, 6, 66, 127
1, 83411, Note_off_c, 6, 66, 127
1, 83411, Note_off_c, 1, 49, 127
1, 83412, Note_on_c, 10, 57, 127
1, 83412, Note_on_c, 5, 65, 127
1, 83526, Note_off_c, 5, 65, 127
1, 83527, Note_on_c, 6, 66, 127
1, 83637, Note_off_c, 1, 73, 127
1, 83641, Note_off_c, 6, 66, 127
1, 83641, Note_off_c, 10, 57, 127
1, 83642, Note_on_c, 12, 47, 127
1, 83642, Note_on_c, 2, 74, 127
1, 83757, Note_on_c, 6, 66, 127
1, 83871, Note_off_c, 6, 66, 127
1, 83871, Note_off_c, 12, 47, 127
1, 83872, Note_on_c, 8, 56, 127
1, 83872, Note_on_c, 5, 65, 127
1, 83986, Note_off_c, 5, 65, 127
1, 83987, Note_on_c, 6, 66, 127
1, 84097, Note_off_c, 2, 74, 127
1, 84101, Note_off_c, 6, 66, 127
1, 84101, Note_off_c, 8, 56, 127
1, 84102, Note_on_c, 1, 49, 127
1, 84102, Note_on_c, 12, 71, 127
1, 84217, Note_on_c, 5, 65, 127
1, 84331, Note_off_c, 5, 65, 127
1, 84331, Note_off_c, 1, 49, 127
1, 84332, Note_on_c, 8, 56, 127
1, 84332, Note_on_c, 3, 63, 127
1, 84446, Note_off_c, 3, 63, 127
1, 84447, Note_on_c, 5, 65, 127
1, 84557, Note_off_c, 12, 71, 127
1, 84561, Note_off_c, 5, 65, 127
1, 84561, Note_off_c, 8, 56, 127
1, 84562, Note_on_c, 6, 42, 127
1, 84562, Note_on_c, 6, 54, 127
1, 84562, Note_on_c, 10, 69, 127
1, 84562, Note_on_c, 6, 66, 127
1, 84912, Note_off_c, 6, 66, 127
1, 84922, Note_off_c, 6, 54, 127
1, 84922, Note_off_c, 6, 42, 127
1, 85018, Note_off_c, 10, 69, 127
1, 85023, Note_on_c, 10, 45, 127
1, 85023, Note_on_c, 1, 73, 127
1, 85138, Note_on_c, 6, 54, 127
1, 85251, Note_off_c, 10, 45, 127
1, 85252, Note_off_c, 6, 54, 127
1, 85252, Note_off_c, 1, 73, 127
1, 85253, Note_on_c, 5, 53, 127
1, 85253, Note_on_c, 6, 78, 127
1, 85367, Note_off_c, 5, 53, 127
1, 85368, Note_on_c, 6, 54, 127
1, 85482, Note_off_c, 6, 54, 127
1, 85482, Note_off_c, 6, 78, 127
1, 85483, Note_on_c, 12, 47, 127
1, 85483, Note_on_c, 3, 75, 127
1, 85598, Note_on_c, 6, 54, 127
1, 85711, Note_off_c, 12, 47, 127
1, 85712, Note_off_c, 6, 54, 127
1, 85712, Note_off_c, 3, 75, 127
1, 85713, Note_on_c, 5, 53, 127
1, 85713, Note_on_c, 8, 80, 127
1, 85827, Note_off_c, 5, 53, 127
1, 85828, Note_on_c, 6, 54, 127
1, 85942, Note_off_c, 6, 54, 127
1, 85942, Note_off_c, 8, 80, 127
1, 85943, Note_on_c, 1, 49, 127
1, 85943, Note_on_c, 5, 77, 127
1, 86058, Note_on_c, 6, 54, 127
1, 86171, Note_off_c, 1, 49, 127
1, 86172, Note_off_c, 6, 54, 127
1, 86172, Note_off_c, 5, 77, 127
1, 86173, Note_on_c, 5, 53, 127
1, 86173, Note_on_c, 10, 81, 127
1, 86287, Note_off_c, 5, 53, 127
1, 86288, Note_on_c, 6, 54, 127
1, 86402, Note_off_c, 6, 54, 127
1, 86402, Note_off_c, 10, 81, 127
1, 86403, Note_on_c, 2, 50, 127
1, 86403, Note_on_c, 6, 78, 127
1, 86518, Note_on_c, 6, 54, 127
1, 86631, Note_off_c, 2, 50, 127
1, 86632, Note_off_c, 6, 54, 127
1, 86632, Note_off_c, 6, 78, 127
1, 86633, Note_on_c, 5, 53, 127
1, 86633, Note_on_c, 12, 83, 127
1, 86747, Note_off_c, 5, 53, 127
1, 86748, Note_on_c, 6, 54, 127
1, 86862, Note_off_c, 6, 54, 127
1, 86862, Note_off_c, 12, 83, 127
1, 86863, Note_on_c, 1, 49, 127
1, 86863, Note_on_c, 12, 83, 127
1, 86919, Note_off_c, 12, 83, 127
1, 86920, Note_on_c, 10, 81, 127
1, 86976, Note_off_c, 10, 81, 127
1, 86977, Note_on_c, 6, 54, 127
1, 86977, Note_on_c, 12, 83, 127
1, 87033, Note_off_c, 12, 83, 127
1, 87034, Note_on_c, 10, 81, 127
1, 87089, Note_off_c, 1, 49, 127
1, 87090, Note_off_c, 10, 81, 127
1, 87090, Note_off_c, 6, 54, 127
1, 87091, Note_on_c, 5, 53, 127
1, 87091, Note_on_c, 8, 80, 127
1, 87205, Note_off_c, 5, 53, 127
1, 87206, Note_on_c, 6, 54, 127
1, 87320, Note_off_c, 6, 54, 127
1, 87320, Note_off_c, 8, 80, 127
1, 87321, Note_on_c, 12, 47, 127
1, 87321, Note_on_c, 10, 81, 127
1, 87436, Note_on_c, 6, 54, 127
1, 87549, Note_off_c, 12, 47, 127
1, 87550, Note_off_c, 6, 54, 127
1, 87550, Note_off_c, 10, 81, 127
1, 87551, Note_on_c, 5, 53, 127
1, 87551, Note_on_c, 1, 73, 127
1, 87665, Note_off_c, 5, 53, 127
1, 87666, Note_on_c, 6, 54, 127
1, 87780, Note_off_c, 6, 54, 127
1, 87780, Note_off_c, 1, 73, 127
1, 87781, Note_on_c, 1, 49, 127
1, 87781, Note_on_c, 8, 80, 127
1, 87896, Note_on_c, 5, 53, 127
1, 88009, Note_off_c, 1, 49, 127
1, 88010, Note_off_c, 5, 53, 127
1, 88010, Note_off_c, 8, 80, 127
1, 88011, Note_on_c, 3, 51, 127
1, 88011, Note_on_c, 12, 71, 127
1, 88125, Note_off_c, 3, 51, 127
1, 88126, Note_on_c, 5, 53, 127
1, 88240, Note_off_c, 5, 53, 127
1, 88240, Note_off_c, 12, 71, 127
1, 88241, Note_on_c, 6, 42, 127
1, 88241, Note_on_c, 6, 54, 127
1, 88241, Note_on_c, 6, 78, 127
1, 88241, Note_on_c, 11, 70, 127
1, 88529, Note_off_c, 11, 70, 127
1, 88575, Note_off_c, 6, 42, 127
1, 88604, Note_off_c, 6, 54, 127
1, 88697, Note_off_c, 6, 78, 127
1, 88702, Note_on_c, 4, 52, 127
1, 88702, Note_on_c, 7, 79, 127
1, 88816, Note_off_c, 4, 52, 127
1, 88817, Note_on_c, 7, 55, 127
1, 88931, Note_off_c, 7, 55, 127
1, 88931, Note_off_c, 7, 79, 127
1, 88932, Note_on_c, 1, 61, 127
1, 88932, Note_on_c, 4, 76, 127
1, 89046, Note_off_c, 1, 61, 127
1, 89047, Note_on_c, 7, 55, 127
1, 89161, Note_off_c, 7, 55, 127
1, 89161, Note_off_c, 4, 76, 127
1, 89162, Note_on_c, 2, 50, 127
1, 89162, Note_on_c, 6, 78, 127
1, 89276, Note_off_c, 2, 50, 127
1, 89277, Note_on_c, 6, 54, 127
1, 89391, Note_off_c, 6, 54, 127
1, 89391, Note_off_c, 6, 78, 127
1, 89392, Note_on_c, 12, 59, 127
1, 89392, Note_on_c, 2, 74, 127
1, 89506, Note_off_c, 12, 59, 127
1, 89507, Note_on_c, 6, 54, 127
1, 89621, Note_off_c, 6, 54, 127
1, 89621, Note_off_c, 2, 74, 127
1, 89622, Note_on_c, 1, 49, 127
1, 89622, Note_on_c, 4, 76, 127
1, 89736, Note_off_c, 1, 49, 127
1, 89737, Note_on_c, 4, 52, 127
1, 89851, Note_off_c, 4, 52, 127
1, 89851, Note_off_c, 4, 76, 127
1, 89852, Note_on_c, 11, 58, 127
1, 89852, Note_on_c, 1, 73, 127
1, 89966, Note_off_c, 11, 58, 127
1, 89967, Note_on_c, 4, 52, 127
1, 90081, Note_off_c, 4, 52, 127
1, 90081, Note_off_c, 1, 73, 127
1, 90082, Note_on_c, 12, 47, 127
1, 90082, Note_on_c, 2, 74, 127
1, 90196, Note_off_c, 12, 47, 127
1, 90197, Note_on_c, 2, 50, 127
1, 90311, Note_off_c, 2, 50, 127
1, 90312, Note_on_c, 6, 54, 127
1, 90370, Note_off_c, 2, 74, 127
1, 90426, Note_off_c, 6, 54, 127
1, 90427, Note_on_c, 12, 59, 127
1, 90541, Note_off_c, 12, 59, 127
1, 90542, Note_on_c, 7, 55, 127
1, 90542, Note_on_c, 4, 64, 127
1, 90656, Note_off_c, 4, 64, 127
1, 90657, Note_on_c, 7, 67, 127
1, 90771, Note_off_c, 7, 67, 127
1, 90771, Note_off_c, 7, 55, 127
1, 90772, Note_on_c, 4, 52, 127
1, 90772, Note_on_c, 1, 73, 127
1, 90886, Note_off_c, 1, 73, 127
1, 90887, Note_on_c, 7, 67, 127
1, 91001, Note_off_c, 7, 67, 127
1, 91001, Note_off_c, 4, 52, 127
1, 91002, Note_on_c, 6, 54, 127
1, 91002, Note_on_c, 2, 62, 127
1, 91116, Note_off_c, 2, 62, 127
1, 91117, Note_on_c, 6, 66, 127
1, 91231, Note_off_c, 6, 66, 127
1, 91231, Note_off_c, 6, 54, 127
1, 91232, Note_on_c, 2, 50, 127
1, 91232, Note_on_c, 12, 71, 127
1, 91346, Note_off_c, 12, 71, 127
1, 91347, Note_on_c, 6, 66, 127
1, 91461, Note_off_c, 6, 66, 127
1, 91461, Note_off_c, 2, 50, 127
1, 91462, Note_on_c, 4, 52, 127
1, 91462, Note_on_c, 1, 61, 127
1, 91576, Note_off_c, 1, 61, 127
1, 91577, Note_on_c, 4, 64, 127
1, 91691, Note_off_c, 4, 64, 127
1, 91691, Note_off_c, 4, 52, 127
1, 91692, Note_on_c, 1, 49, 127
1, 91692, Note_on_c, 11, 70, 127
1, 91806, Note_off_c, 11, 70, 127
1, 91807, Note_on_c, 4, 64, 127
1, 91921, Note_off_c, 4, 64, 127
1, 91921, Note_off_c, 1, 49, 127
1, 91922, Note_on_c, 2, 50, 127
1, 91922, Note_on_c, 12, 59, 127
1, 92037, Note_on_c, 2, 62, 127
1, 92151, Note_off_c, 2, 62, 127
1, 92151, Note_off_c, 2, 50, 127
1, 92152, Note_on_c, 12, 47, 127
1, 92152, Note_on_c, 6, 66, 127
1, 92266, Note_off_c, 6, 66, 127
1, 92267, Note_on_c, 12, 71, 127
1, 92377, Note_off_c, 12, 59, 127
1, 92381, Note_off_c, 12, 71, 127
1, 92381, Note_off_c, 12, 47, 127
1, 92382, Note_on_c, 7, 55, 127
1, 92382, Note_on_c, 12, 59, 127
1, 92497, Note_on_c, 4, 64, 127
1, 92611, Note_off_c, 4, 64, 127
1, 92611, Note_off_c, 7, 55, 127
1, 92612, Note_on_c, 12, 47, 127
1, 92612, Note_on_c, 7, 67, 127
1, 92726, Note_off_c, 7, 67, 127
1, 92727, Note_on_c, 12, 71, 127
1, 92837, Note_off_c, 12, 59, 127
1, 92841, Note_off_c, 12, 71, 127
1, 92841, Note_off_c, 12, 47, 127
1, 92842, Note_on_c, 6, 54, 127
1, 92842, Note_on_c, 12, 59, 127
1, 92957, Note_on_c, 2, 62, 127
1, 93071, Note_off_c, 2, 62, 127
1, 93071, Note_off_c, 6, 54, 127
1, 93072, Note_on_c, 12, 47, 127
1, 93072, Note_on_c, 6, 66, 127
1, 93186, Note_off_c, 6, 66, 127
1, 93187, Note_on_c, 12, 71, 127
1, 93297, Note_off_c, 12, 59, 127
1, 93301, Note_off_c, 12, 71, 127
1, 93301, Note_off_c, 12, 47, 127
1, 93302, Note_on_c, 6, 54, 127
1, 93302, Note_on_c, 1, 61, 127
1, 93417, Note_on_c, 4, 64, 127
1, 93531, Note_off_c, 4, 64, 127
1, 93531, Note_off_c, 6, 54, 127
1, 93532, Note_on_c, 6, 42, 127
1, 93532, Note_on_c, 12, 71, 127
1, 93552, Note_off_c, 1, 61, 127
1, 93646, Note_off_c, 12, 71, 127
1, 93647, Note_on_c, 11, 70, 127
1, 93761, Note_off_c, 11, 70, 127
1, 93761, Note_off_c, 6, 42, 127
1, 93762, Note_on_c, 12, 47, 127
1, 93762, Note_on_c, 2, 62, 127
1, 93877, Note_on_c, 6, 66, 127
1, 93991, Note_off_c, 6, 66, 127
1, 93992, Note_on_c, 12, 71, 127
1, 94050, Note_off_c, 12, 47, 127
1, 94098, Note_off_c, 2, 62, 127
1, 94106, Note_off_c, 12, 71, 127
1, 94107, Note_on_c, 11, 70, 127
1, 94221, Note_off_c, 11, 70, 127
1, 94222, Note_on_c, 1, 49, 127
1, 94222, Note_on_c, 4, 64, 127
1, 94337, Note_on_c, 6, 66, 127
1, 94451, Note_off_c, 6, 66, 127
1, 94452, Note_on_c, 12, 71, 127
1, 94510, Note_off_c, 1, 49, 127
1, 94558, Note_off_c, 4, 64, 127
1, 94566, Note_off_c, 12, 71, 127
1, 94567, Note_on_c, 11, 70, 127
1, 94681, Note_off_c, 11, 70, 127
1, 94682, Note_on_c, 2, 50, 127
1, 94682, Note_on_c, 6, 66, 127
1, 94797, Note_on_c, 11, 70, 127
1, 94911, Note_off_c, 11, 70, 127
1, 94912, Note_on_c, 12, 71, 127
1, 94970, Note_off_c, 2, 50, 127
1, 95018, Note_off_c, 6, 66, 127
1, 95026, Note_off_c, 12, 71, 127
1, 95027, Note_on_c, 11, 70, 127
1, 95141, Note_off_c, 11, 70, 127
1, 95142, Note_on_c, 4, 52, 127
1, 95142, Note_on_c, 7, 67, 127
1, 95257, Note_on_c, 11, 70, 127
1, 95370, Note_off_c, 7, 67, 127
1, 95371, Note_off_c, 11, 70, 127
1, 95372, Note_on_c, 12, 71, 127
1, 95430, Note_off_c, 4, 52, 127
1, 95486, Note_off_c, 12, 71, 127
1, 95487, Note_on_c, 11, 70, 127
1, 95601, Note_off_c, 11, 70, 127
1, 95602, Note_on_c, 6, 54, 127
1, 95602, Note_on_c, 2, 62, 127
1, 95717, Note_on_c, 6, 66, 127
1, 95831, Note_off_c, 6, 66, 127
1, 95832, Note_on_c, 12, 71, 127
1, 95890, Note_off_c, 6, 54, 127
1, 95938, Note_off_c, 2, 62, 127
1, 95946, Note_off_c, 12, 71, 127
1, 95947, Note_on_c, 11, 70, 127
1, 96061, Note_off_c, 11, 70, 127
1, 96062, Note_on_c, 6, 42, 127
1, 96062, Note_on_c, 1, 61, 127
1, 96177, Note_on_c, 4, 64, 127
1, 96290, Note_off_c, 1, 61, 127
1, 96291, Note_off_c, 4, 64, 127
1, 96292, Note_on_c, 12, 71, 127
1, 96350, Note_off_c, 6, 42, 127
1, 96406, Note_off_c, 12, 71, 127
1, 96407, Note_on_c, 11, 70, 127
1, 96521, Note_off_c, 11, 70, 127
1, 96522, Note_on_c, 12, 47, 127
1, 96522, Note_on_c, 12, 59, 127
1, 96637, Note_on_c, 2, 62, 127
1, 96751, Note_off_c, 2, 62, 127
1, 96752, Note_on_c, 6, 66, 127
1, 96810, Note_off_c, 12, 47, 127
1, 96866, Note_off_c, 6, 66, 127
1, 96867, Note_on_c, 12, 71, 127
1, 96977, Note_off_c, 12, 59, 127
1, 96981, Note_off_c, 12, 71, 127
1, 96982, Note_on_c, 2, 50, 127
1, 96982, Note_on_c, 6, 66, 127
1, 97097, Note_on_c, 12, 59, 127
1, 97097, Note_on_c, 2, 74, 127
1, 97210, Note_off_c, 2, 50, 127
1, 97211, Note_off_c, 2, 74, 127
1, 97211, Note_off_c, 12, 59, 127
1, 97212, Note_on_c, 11, 58, 127
1, 97212, Note_on_c, 4, 76, 127
1, 97326, Note_off_c, 4, 76, 127
1, 97326, Note_off_c, 11, 58, 127
1, 97327, Note_on_c, 12, 59, 127
1, 97327, Note_on_c, 2, 74, 127
1, 97437, Note_off_c, 6, 66, 127
1, 97441, Note_off_c, 2, 74, 127
1, 97441, Note_off_c, 12, 59, 127
1, 97442, Note_on_c, 4, 52, 127
1, 97442, Note_on_c, 8, 68, 127
1, 97557, Note_on_c, 12, 59, 127
1, 97557, Note_on_c, 2, 74, 127
1, 97670, Note_off_c, 4, 52, 127
1, 97671, Note_off_c, 2, 74, 127
1, 97671, Note_off_c, 12, 59, 127
1, 97672, Note_on_c, 11, 58, 127
1, 97672, Note_on_c, 4, 76, 127
1, 97786, Note_off_c, 4, 76, 127
1, 97786, Note_off_c, 11, 58, 127
1, 97787, Note_on_c, 12, 59, 127
1, 97787, Note_on_c, 2, 74, 127
1, 97897, Note_off_c, 8, 68, 127
1, 97901, Note_off_c, 2, 74, 127
1, 97901, Note_off_c, 12, 59, 127
1, 97902, Note_on_c, 6, 54, 127
1, 97902, Note_on_c, 11, 70, 127
1, 98017, Note_on_c, 12, 59, 127
1, 98017, Note_on_c, 2, 74, 127
1, 98130, Note_off_c, 6, 54, 127
1, 98131, Note_off_c, 2, 74, 127
1, 98131, Note_off_c, 12, 59, 127
1, 98132, Note_on_c, 11, 58, 127
1, 98132, Note_on_c, 4, 76, 127
1, 98246, Note_off_c, 4, 76, 127
1, 98246, Note_off_c, 11, 58, 127
1, 98247, Note_on_c, 12, 59, 127
1, 98247, Note_on_c, 2, 74, 127
1, 98357, Note_off_c, 11, 70, 127
1, 98361, Note_off_c, 2, 74, 127
1, 98361, Note_off_c, 12, 59, 127
1, 98362, Note_on_c, 7, 55, 127
1, 98362, Note_on_c, 12, 71, 127
1, 98477, Note_on_c, 12, 59, 127
1, 98477, Note_on_c, 2, 74, 127
1, 98590, Note_off_c, 7, 55, 127
1, 98591, Note_off_c, 2, 74, 127
1, 98591, Note_off_c, 12, 59, 127
1, 98592, Note_on_c, 11, 58, 127
1, 98592, Note_on_c, 4, 76, 127
1, 98706, Note_off_c, 4, 76, 127
1, 98706, Note_off_c, 11, 58, 127
1, 98707, Note_on_c, 12, 59, 127
1, 98707, Note_on_c, 2, 74, 127
1, 98817, Note_off_c, 12, 71, 127
1, 98821, Note_off_c, 2, 74, 127
1, 98821, Note_off_c, 12, 59, 127
1, 98822, Note_on_c, 6, 54, 127
1, 98822, Note_on_c, 11, 70, 127
1, 98937, Note_on_c, 12, 59, 127
1, 98937, Note_on_c, 2, 74, 127
1, 99050, Note_off_c, 6, 54, 127
1, 99051, Note_off_c, 2, 74, 127
1, 99051, Note_off_c, 12, 59, 127
1, 99052, Note_on_c, 11, 58, 127
1, 99052, Note_on_c, 4, 76, 127
1, 99166, Note_off_c, 4, 76, 127
1, 99166, Note_off_c, 11, 58, 127
1, 99167, Note_on_c, 12, 59, 127
1, 99167, Note_on_c, 2, 74, 127
1, 99277, Note_off_c, 11, 70, 127
1, 99281, Note_off_c, 2, 74, 127
1, 99281, Note_off_c, 12, 59, 127
1, 99282, Note_on_c, 4, 52, 127
1, 99282, Note_on_c, 7, 67, 127
1, 99397, Note_on_c, 12, 59, 127
1, 99397, Note_on_c, 2, 74, 127
1, 99510, Note_off_c, 4, 52, 127
1, 99511, Note_off_c, 2, 74, 127
1, 99511, Note_off_c, 12, 59, 127
1, 99512, Note_on_c, 11, 58, 127
1, 99512, Note_on_c, 4, 76, 127
1, 99626, Note_off_c, 4, 76, 127
1, 99626, Note_off_c, 11, 58, 127
1, 99627, Note_on_c, 12, 59, 127
1, 99627, Note_on_c, 2, 74, 127
1, 99737, Note_off_c, 7, 67, 127
1, 99741, Note_off_c, 2, 74, 127
1, 99741, Note_off_c, 12, 59, 127
1, 99742, Note_on_c, 6, 54, 127
1, 99742, Note_on_c, 4, 64, 127
1, 99856, Note_off_c, 6, 54, 127
1, 99857, Note_on_c, 11, 58, 127
1, 99857, Note_on_c, 1, 73, 127
1, 99970, Note_off_c, 4, 64, 127
1, 99971, Note_off_c, 1, 73, 127
1, 99971, Note_off_c, 11, 58, 127
1, 99972, Note_on_c, 8, 56, 127
1, 99972, Note_on_c, 2, 74, 127
1, 100086, Note_off_c, 2, 74, 127
1, 100086, Note_off_c, 8, 56, 127
1, 100087, Note_on_c, 11, 58, 127
1, 100087, Note_on_c, 1, 73, 127
1, 100201, Note_off_c, 1, 73, 127
1, 100201, Note_off_c, 11, 58, 127
1, 100202, Note_on_c, 12, 47, 127
1, 100202, Note_on_c, 12, 59, 127
1, 100202, Note_on_c, 2, 62, 127
1, 100202, Note_on_c, 12, 71, 127
1, 100738, Note_off_c, 2, 62, 127
1, 100740, Note_off_c, 12, 71, 127
1, 100740, Note_off_c, 12, 59, 127
1, 100740, Note_off_c, 12, 47, 127
1, 100771, Note_on_c, 6, 66, 127
1, 100771, Note_on_c, 2, 50, 127
1, 100771, Note_on_c, 2, 38, 127
1, 101000, Note_off_c, 6, 66, 127
1, 101008, Note_on_c, 6, 54, 127
1, 101059, Note_off_c, 2, 38, 127
1, 101059, Note_off_c, 2, 50, 127
1, 101238, Note_off_c, 6, 54, 127
1, 101239, Note_on_c, 8, 56, 127
1, 101239, Note_on_c, 4, 52, 127
1, 101239, Note_on_c, 4, 40, 127
1, 101468, Note_off_c, 8, 56, 127
1, 101469, Note_on_c, 4, 64, 127
1, 101527, Note_off_c, 4, 40, 127
1, 101527, Note_off_c, 4, 52, 127
1, 101699, Note_off_c, 4, 64, 127
1, 101700, Note_on_c, 11, 58, 127
1, 101700, Note_on_c, 1, 49, 127
1, 101700, Note_on_c, 6, 42, 127
1, 101929, Note_off_c, 11, 58, 127
1, 101930, Note_on_c, 6, 66, 127
1, 101988, Note_off_c, 6, 42, 127
1, 101988, Note_off_c, 1, 49, 127
1, 102160, Note_off_c, 6, 66, 127
1, 102161, Note_on_c, 2, 62, 127
1, 102161, Note_on_c, 12, 47, 127
1, 102391, Note_on_c, 1, 61, 127
1, 102497, Note_off_c, 12, 47, 127
1, 102497, Note_off_c, 2, 62, 127
1, 102505, Note_off_c, 1, 61, 127
1, 102506, Note_on_c, 12, 59, 127
1, 102650, Note_on_c, 6, 54, 127
1, 102651, Note_on_c, 10, 57, 127
1, 102652, Note_on_c, 2, 62, 127
1, 102653, Note_on_c, 10, 81, 127
1, 102667, Note_off_c, 12, 59, 127
1, 102879, Note_on_c, 10, 69, 127
1, 102937, Note_off_c, 6, 54, 127
1, 102938, Note_off_c, 10, 57, 127
1, 102939, Note_off_c, 2, 62, 127
1, 102940, Note_off_c, 10, 81, 127
1, 103108, Note_off_c, 10, 69, 127
1, 103109, Note_on_c, 12, 59, 127
1, 103109, Note_on_c, 7, 55, 127
1, 103109, Note_on_c, 4, 64, 127
1, 103109, Note_on_c, 12, 71, 127
1, 103338, Note_off_c, 12, 71, 127
1, 103339, Note_on_c, 7, 79, 127
1, 103397, Note_off_c, 4, 64, 127
1, 103397, Note_off_c, 7, 55, 127
1, 103397, Note_off_c, 12, 59, 127
1, 103569, Note_off_c, 7, 79, 127
1, 103570, Note_on_c, 10, 57, 127
1, 103570, Note_on_c, 10, 69, 127
1, 103570, Note_on_c, 4, 64, 127
1, 103570, Note_on_c, 1, 73, 127
1, 103799, Note_off_c, 1, 73, 127
1, 103800, Note_on_c, 10, 81, 127
1, 103858, Note_off_c, 4, 64, 127
1, 103858, Note_off_c, 10, 69, 127
1, 103858, Note_off_c, 10, 57, 127
1, 104030, Note_off_c, 10, 81, 127
1, 104031, Note_on_c, 2, 50, 127
1, 104031, Note_on_c, 2, 62, 127
1, 104031, Note_on_c, 10, 57, 127
1, 104031, Note_on_c, 6, 78, 127
1, 104260, Note_off_c, 6, 78, 127
1, 104261, Note_on_c, 4, 76, 127
1, 104319, Note_off_c, 2, 62, 127
1, 104319, Note_off_c, 2, 50, 127
1, 104375, Note_off_c, 4, 76, 127
1, 104376, Note_on_c, 2, 74, 127
1, 104486, Note_off_c, 10, 57, 127
1, 104490, Note_off_c, 2, 74, 127
1, 104520, Note_on_c, 4, 64, 127
1, 104520, Note_on_c, 1, 73, 127
1, 104520, Note_on_c, 10, 69, 127
1, 104520, Note_on_c, 10, 57, 127
1, 104749, Note_off_c, 10, 57, 127
1, 104750, Note_on_c, 10, 45, 127
1, 104808, Note_off_c, 10, 69, 127
1, 104808, Note_off_c, 1, 73, 127
1, 104808, Note_off_c, 4, 64, 127
1, 104980, Note_off_c, 10, 45, 127
1, 104981, Note_on_c, 2, 74, 127
1, 104981, Note_on_c, 2, 62, 127
1, 104981, Note_on_c, 7, 67, 127
1, 104981, Note_on_c, 12, 47, 127
1, 105210, Note_off_c, 12, 47, 127
1, 105211, Note_on_c, 7, 55, 127
1, 105269, Note_off_c, 7, 67, 127
1, 105269, Note_off_c, 2, 62, 127
1, 105269, Note_off_c, 2, 74, 127
1, 105441, Note_off_c, 7, 55, 127
1, 105442, Note_on_c, 10, 69, 127
1, 105442, Note_on_c, 4, 76, 127
1, 105442, Note_on_c, 7, 67, 127
1, 105442, Note_on_c, 1, 49, 127
1, 105671, Note_off_c, 1, 49, 127
1, 105672, Note_on_c, 10, 57, 127
1, 105730, Note_off_c, 7, 67, 127
1, 105730, Note_off_c, 4, 76, 127
1, 105730, Note_off_c, 10, 69, 127
1, 105902, Note_off_c, 10, 57, 127
1, 105903, Note_on_c, 2, 62, 127
1, 105903, Note_on_c, 10, 69, 127
1, 105903, Note_on_c, 2, 74, 127
1, 105903, Note_on_c, 6, 54, 127
1, 106132, Note_off_c, 6, 54, 127
1, 106133, Note_on_c, 4, 52, 127
1, 106191, Note_off_c, 10, 69, 127
1, 106191, Note_off_c, 2, 62, 127
1, 106247, Note_off_c, 4, 52, 127
1, 106248, Note_on_c, 2, 50, 127
1, 106370, Note_off_c, 2, 50, 127
1, 106382, Note_on_c, 10, 57, 127
1, 106382, Note_on_c, 6, 66, 127
1, 106478, Note_off_c, 2, 74, 127
1, 106497, Note_on_c, 2, 74, 127
1, 106611, Note_off_c, 2, 74, 127
1, 106611, Note_off_c, 10, 57, 127
1, 106612, Note_on_c, 2, 50, 127
1, 106612, Note_on_c, 4, 76, 127
1, 106726, Note_off_c, 4, 76, 127
1, 106727, Note_on_c, 2, 74, 127
1, 106837, Note_off_c, 6, 66, 127
1, 106841, Note_off_c, 2, 74, 127
1, 106841, Note_off_c, 2, 50, 127
1, 106842, Note_on_c, 12, 59, 127
1, 106842, Note_on_c, 7, 67, 127
1, 106957, Note_on_c, 2, 74, 127
1, 107071, Note_off_c, 2, 74, 127
1, 107071, Note_off_c, 12, 59, 127
1, 107072, Note_on_c, 2, 50, 127
1, 107072, Note_on_c, 4, 76, 127
1, 107186, Note_off_c, 4, 76, 127
1, 107187, Note_on_c, 2, 74, 127
1, 107297, Note_off_c, 7, 67, 127
1, 107301, Note_off_c, 2, 74, 127
1, 107301, Note_off_c, 2, 50, 127
1, 107302, Note_on_c, 6, 54, 127
1, 107302, Note_on_c, 10, 69, 127
1, 107417, Note_on_c, 2, 74, 127
1, 107531, Note_off_c, 2, 74, 127
1, 107531, Note_off_c, 6, 54, 127
1, 107532, Note_on_c, 2, 50, 127
1, 107532, Note_on_c, 4, 76, 127
1, 107646, Note_off_c, 4, 76, 127
1, 107647, Note_on_c, 2, 74, 127
1, 107757, Note_off_c, 10, 69, 127
1, 107761, Note_off_c, 2, 74, 127
1, 107761, Note_off_c, 2, 50, 127
1, 107762, Note_on_c, 7, 55, 127
1, 107762, Note_on_c, 12, 71, 127
1, 107877, Note_on_c, 2, 74, 127
1, 107991, Note_off_c, 2, 74, 127
1, 107991, Note_off_c, 7, 55, 127
1, 107992, Note_on_c, 2, 50, 127
1, 107992, Note_on_c, 4, 76, 127
1, 108106, Note_off_c, 4, 76, 127
1, 108107, Note_on_c, 2, 74, 127
1, 108217, Note_off_c, 12, 71, 127
1, 108221, Note_off_c, 2, 74, 127
1, 108221, Note_off_c, 2, 50, 127
1, 108222, Note_on_c, 10, 57, 127
1, 108222, Note_on_c, 6, 66, 127
1, 108337, Note_on_c, 2, 74, 127
1, 108451, Note_off_c, 2, 74, 127
1, 108451, Note_off_c, 10, 57, 127
1, 108452, Note_on_c, 2, 50, 127
1, 108452, Note_on_c, 4, 76, 127
1, 108566, Note_off_c, 4, 76, 127
1, 108567, Note_on_c, 2, 74, 127
1, 108677, Note_off_c, 6, 66, 127
1, 108681, Note_off_c, 2, 74, 127
1, 108681, Note_off_c, 2, 50, 127
1, 108682, Note_on_c, 12, 59, 127
1, 108682, Note_on_c, 4, 64, 127
1, 108797, Note_on_c, 2, 74, 127
1, 108911, Note_off_c, 2, 74, 127
1, 108911, Note_off_c, 12, 59, 127
1, 108912, Note_on_c, 7, 55, 127
1, 108912, Note_on_c, 4, 76, 127
1, 109026, Note_off_c, 4, 76, 127
1, 109027, Note_on_c, 2, 74, 127
1, 109137, Note_off_c, 4, 64, 127
1, 109141, Note_off_c, 2, 74, 127
1, 109141, Note_off_c, 7, 55, 127
1, 109142, Note_on_c, 10, 57, 127
1, 109142, Note_on_c, 4, 64, 127
1, 109257, Note_on_c, 1, 73, 127
1, 109371, Note_off_c, 1, 73, 127
1, 109371, Note_off_c, 10, 57, 127
1, 109372, Note_on_c, 10, 45, 127
1, 109372, Note_on_c, 2, 74, 127
1, 109486, Note_off_c, 2, 74, 127
1, 109487, Note_on_c, 1, 73, 127
1, 109597, Note_off_c, 4, 64, 127
1, 109601, Note_off_c, 1, 73, 127
1, 109601, Note_off_c, 10, 45, 127
1, 109602, Note_on_c, 2, 50, 127
1, 109602, Note_on_c, 2, 62, 127
1, 109717, Note_on_c, 6, 66, 127
1, 109831, Note_off_c, 6, 66, 127
1, 109832, Note_on_c, 10, 69, 127
1, 109946, Note_off_c, 10, 69, 127
1, 109947, Note_on_c, 2, 74, 127
1, 110057, Note_off_c, 2, 62, 127
1, 110057, Note_off_c, 2, 50, 127
1, 110061, Note_off_c, 2, 74, 127
1, 110062, Note_on_c, 6, 42, 127
1, 110062, Note_on_c, 10, 69, 127
1, 110177, Note_on_c, 2, 50, 127
1, 110177, Note_on_c, 6, 78, 127
1, 110290, Note_off_c, 6, 42, 127
1, 110291, Note_off_c, 6, 78, 127
1, 110291, Note_off_c, 2, 50, 127
1, 110292, Note_on_c, 4, 52, 127
1, 110292, Note_on_c, 7, 79, 127
1, 110406, Note_off_c, 7, 79, 127
1, 110406, Note_off_c, 4, 52, 127
1, 110407, Note_on_c, 2, 50, 127
1, 110407, Note_on_c, 6, 78, 127
1, 110517, Note_off_c, 10, 69, 127
1, 110521, Note_off_c, 6, 78, 127
1, 110521, Note_off_c, 2, 50, 127
1, 110522, Note_on_c, 7, 43, 127
1, 110522, Note_on_c, 12, 71, 127
1, 110637, Note_on_c, 2, 50, 127
1, 110637, Note_on_c, 6, 78, 127
1, 110750, Note_off_c, 7, 43, 127
1, 110751, Note_off_c, 6, 78, 127
1, 110751, Note_off_c, 2, 50, 127
1, 110752, Note_on_c, 4, 52, 127
1, 110752, Note_on_c, 7, 79, 127
1, 110866, Note_off_c, 7, 79, 127
1, 110866, Note_off_c, 4, 52, 127
1, 110867, Note_on_c, 2, 50, 127
1, 110867, Note_on_c, 6, 78, 127
1, 110977, Note_off_c, 12, 71, 127
1, 110981, Note_off_c, 6, 78, 127
1, 110981, Note_off_c, 2, 50, 127
1, 110982, Note_on_c, 10, 45, 127
1, 110982, Note_on_c, 1, 73, 127
1, 111097, Note_on_c, 2, 50, 127
1, 111097, Note_on_c, 6, 78, 127
1, 111210, Note_off_c, 10, 45, 127
1, 111211, Note_off_c, 6, 78, 127
1, 111211, Note_off_c, 2, 50, 127
1, 111212, Note_on_c, 4, 52, 127
1, 111212, Note_on_c, 7, 79, 127
1, 111326, Note_off_c, 7, 79, 127
1, 111326, Note_off_c, 4, 52, 127
1, 111327, Note_on_c, 2, 50, 127
1, 111327, Note_on_c, 6, 78, 127
1, 111437, Note_off_c, 1, 73, 127
1, 111441, Note_off_c, 6, 78, 127
1, 111441, Note_off_c, 2, 50, 127
1, 111442, Note_on_c, 12, 47, 127
1, 111442, Note_on_c, 2, 74, 127
1, 111557, Note_on_c, 2, 50, 127
1, 111557, Note_on_c, 6, 78, 127
1, 111670, Note_off_c, 12, 47, 127
1, 111671, Note_off_c, 6, 78, 127
1, 111671, Note_off_c, 2, 50, 127
1, 111672, Note_on_c, 4, 52, 127
1, 111672, Note_on_c, 7, 79, 127
1, 111786, Note_off_c, 7, 79, 127
1, 111786, Note_off_c, 4, 52, 127
1, 111787, Note_on_c, 2, 50, 127
1, 111787, Note_on_c, 6, 78, 127
1, 111897, Note_off_c, 2, 74, 127
1, 111901, Note_off_c, 6, 78, 127
1, 111901, Note_off_c, 2, 50, 127
1, 111902, Note_on_c, 6, 42, 127
1, 111902, Note_on_c, 10, 69, 127
1, 112017, Note_on_c, 2, 50, 127
1, 112017, Note_on_c, 6, 78, 127
1, 112130, Note_off_c, 6, 42, 127
1, 112131, Note_off_c, 6, 78, 127
1, 112131, Note_off_c, 2, 50, 127
1, 112132, Note_on_c, 4, 52, 127
1, 112132, Note_on_c, 7, 79, 127
1, 112246, Note_off_c, 7, 79, 127
1, 112246, Note_off_c, 4, 52, 127
1, 112247, Note_on_c, 2, 50, 127
1, 112247, Note_on_c, 6, 78, 127
1, 112357, Note_off_c, 10, 69, 127
1, 112361, Note_off_c, 6, 78, 127
1, 112361, Note_off_c, 2, 50, 127
1, 112362, Note_on_c, 7, 43, 127
1, 112362, Note_on_c, 12, 71, 127
1, 112477, Note_on_c, 2, 50, 127
1, 112477, Note_on_c, 6, 78, 127
1, 112590, Note_off_c, 7, 43, 127
1, 112591, Note_off_c, 6, 78, 127
1, 112591, Note_off_c, 2, 50, 127
1, 112592, Note_on_c, 4, 52, 127
1, 112592, Note_on_c, 7, 79, 127
1, 112706, Note_off_c, 7, 79, 127
1, 112706, Note_off_c, 4, 52, 127
1, 112707, Note_on_c, 2, 50, 127
1, 112707, Note_on_c, 6, 78, 127
1, 112817, Note_off_c, 12, 71, 127
1, 112821, Note_off_c, 6, 78, 127
1, 112821, Note_off_c, 2, 50, 127
1, 112822, Note_on_c, 10, 45, 127
1, 112822, Note_on_c, 7, 67, 127
1, 112937, Note_on_c, 1, 49, 127
1, 112937, Note_on_c, 4, 76, 127
1, 113050, Note_off_c, 10, 45, 127
1, 113051, Note_off_c, 4, 76, 127
1, 113051, Note_off_c, 1, 49, 127
1, 113052, Note_on_c, 2, 50, 127
1, 113052, Note_on_c, 6, 78, 127
1, 113166, Note_off_c, 6, 78, 127
1, 113166, Note_off_c, 2, 50, 127
1, 113167, Note_on_c, 1, 49, 127
1, 113167, Note_on_c, 4, 76, 127
1, 113277, Note_off_c, 7, 67, 127
1, 113281, Note_off_c, 4, 76, 127
1, 113281, Note_off_c, 1, 49, 127
1, 113283, Note_on_c, 6, 66, 127
1, 113283, Note_on_c, 2, 38, 127
1, 113432, Note_on_c, 2, 74, 127
1, 113515, Note_off_c, 6, 66, 127
1, 113550, Note_off_c, 2, 74, 127
1, 113554, Note_on_c, 4, 76, 127
1, 113672, Note_off_c, 4, 76, 127
1, 113676, Note_on_c, 2, 74, 127
1, 113794, Note_off_c, 2, 74, 127
1, 113798, Note_on_c, 5, 65, 127
1, 113916, Note_off_c, 5, 65, 127
1, 113920, Note_on_c, 2, 74, 127
1, 113990, Note_off_c, 2, 38, 127
1, 114038, Note_off_c, 2, 74, 127
1, 114042, Note_on_c, 4, 76, 127
1, 114042, Note_on_c, 2, 50, 127
1, 114160, Note_off_c, 4, 76, 127
1, 114164, Note_on_c, 2, 74, 127
1, 114282, Note_off_c, 2, 74, 127
1, 114282, Note_off_c, 2, 50, 127
1, 114286, Note_on_c, 4, 64, 127
1, 114286, Note_on_c, 7, 55, 127
1, 114404, Note_off_c, 4, 64, 127
1, 114408, Note_on_c, 2, 74, 127
1, 114526, Note_off_c, 2, 74, 127
1, 114526, Note_off_c, 7, 55, 127
1, 114530, Note_on_c, 4, 76, 127
1, 114530, Note_on_c, 11, 58, 127
1, 114648, Note_off_c, 4, 76, 127
1, 114652, Note_on_c, 2, 74, 127
1, 114770, Note_off_c, 2, 74, 127
1, 114770, Note_off_c, 11, 58, 127
1, 114774, Note_on_c, 6, 66, 127
1, 114774, Note_on_c, 10, 57, 127
1, 114894, Note_on_c, 2, 74, 127
1, 114949, Note_off_c, 6, 66, 127
1, 115011, Note_off_c, 2, 74, 127
1, 115012, Note_off_c, 10, 57, 127
1, 115014, Note_on_c, 4, 76, 127
1, 115014, Note_on_c, 0, 60, 127
1, 115132, Note_off_c, 4, 76, 127
1, 115136, Note_on_c, 2, 74, 127
1, 115254, Note_off_c, 2, 74, 127
1, 115254, Note_off_c, 0, 60, 127
1, 115256, Note_on_c, 7, 67, 127
1, 115256, Note_on_c, 11, 58, 127
1, 115377, Note_on_c, 2, 74, 127
1, 115493, Note_off_c, 7, 67, 127
1, 115494, Note_off_c, 2, 74, 127
1, 115494, Note_off_c, 11, 58, 127
1, 115498, Note_on_c, 4, 76, 127
1, 115498, Note_on_c, 11, 46, 127
1, 115616, Note_off_c, 4, 76, 127
1, 115620, Note_on_c, 2, 74, 127
1, 115738, Note_off_c, 2, 74, 127
1, 115738, Note_off_c, 11, 46, 127
1, 115742, Note_on_c, 5, 65, 127
1, 115742, Note_on_c, 10, 45, 127
1, 115863, Note_on_c, 2, 74, 127
1, 115917, Note_off_c, 5, 65, 127
1, 115981, Note_off_c, 2, 74, 127
1, 115981, Note_off_c, 10, 45, 127
1, 115985, Note_on_c, 4, 76, 127
1, 115985, Note_on_c, 10, 57, 127
1, 116103, Note_off_c, 4, 76, 127
1, 116107, Note_on_c, 2, 74, 127
1, 116225, Note_off_c, 2, 74, 127
1, 116225, Note_off_c, 10, 57, 127
1, 116229, Note_on_c, 4, 64, 127
1, 116229, Note_on_c, 7, 55, 127
1, 116350, Note_on_c, 2, 74, 127
1, 116404, Note_off_c, 4, 64, 127
1, 116468, Note_off_c, 2, 74, 127
1, 116468, Note_off_c, 7, 55, 127
1, 116470, Note_on_c, 4, 76, 127
1, 116470, Note_on_c, 7, 43, 127
1, 116588, Note_off_c, 4, 76, 127
1, 116592, Note_on_c, 2, 74, 127
1, 116710, Note_off_c, 2, 74, 127
1, 116710, Note_off_c, 7, 43, 127
1, 116714, Note_on_c, 6, 66, 127
1, 116714, Note_on_c, 10, 45, 127
1, 116835, Note_on_c, 2, 74, 127
1, 116951, Note_off_c, 6, 66, 127
1, 116952, Note_off_c, 2, 74, 127
1, 116952, Note_off_c, 10, 45, 127
1, 116956, Note_on_c, 4, 76, 127
1, 116956, Note_on_c, 10, 57, 127
1, 117074, Note_off_c, 4, 76, 127
1, 117078, Note_on_c, 2, 74, 127
1, 117196, Note_off_c, 2, 74, 127
1, 117196, Note_off_c, 10, 57, 127
1, 117198, Note_on_c, 7, 67, 127
1, 117198, Note_on_c, 11, 58, 127
1, 117319, Note_on_c, 2, 74, 127
1, 117437, Note_off_c, 2, 74, 127
1, 117437, Note_off_c, 11, 58, 127
1, 117441, Note_on_c, 4, 76, 127
1, 117441, Note_on_c, 11, 46, 127
1, 117550, Note_off_c, 7, 67, 127
1, 117558, Note_off_c, 4, 76, 127
1, 117562, Note_on_c, 2, 74, 127
1, 117680, Note_off_c, 2, 74, 127
1, 117680, Note_off_c, 11, 46, 127
1, 117684, Note_on_c, 5, 65, 127
1, 117684, Note_on_c, 10, 45, 127
1, 117805, Note_on_c, 2, 74, 127
1, 117921, Note_off_c, 5, 65, 127
1, 117922, Note_off_c, 2, 74, 127
1, 117922, Note_off_c, 10, 45, 127
1, 117924, Note_on_c, 4, 76, 127
1, 117924, Note_on_c, 10, 57, 127
1, 118042, Note_off_c, 4, 76, 127
1, 118046, Note_on_c, 2, 74, 127
1, 118164, Note_off_c, 2, 74, 127
1, 118164, Note_off_c, 10, 57, 127
1, 118168, Note_on_c, 4, 64, 127
1, 118168, Note_on_c, 7, 55, 127
1, 118289, Note_on_c, 2, 74, 127
1, 118407, Note_off_c, 2, 74, 127
1, 118407, Note_off_c, 7, 55, 127
1, 118411, Note_on_c, 4, 76, 127
1, 118411, Note_on_c, 7, 43, 127
1, 118520, Note_off_c, 4, 64, 127
1, 118528, Note_off_c, 4, 76, 127
1, 118532, Note_on_c, 2, 74, 127
1, 118650, Note_off_c, 2, 74, 127
1, 118650, Note_off_c, 7, 43, 127
1, 118654, Note_on_c, 5, 65, 127
1, 118654, Note_on_c, 10, 45, 127
1, 118775, Note_on_c, 2, 74, 127
1, 118893, Note_off_c, 2, 74, 127
1, 118893, Note_off_c, 10, 45, 127
1, 118897, Note_on_c, 4, 76, 127
1, 118897, Note_on_c, 10, 57, 127
1, 119006, Note_off_c, 5, 65, 127
1, 119014, Note_off_c, 4, 76, 127
1, 119018, Note_on_c, 2, 74, 127
1, 119136, Note_off_c, 2, 74, 127
1, 119136, Note_off_c, 10, 57, 127
1, 119140, Note_on_c, 7, 67, 127
1, 119140, Note_on_c, 11, 58, 127
1, 119260, Note_on_c, 2, 74, 127
1, 119378, Note_off_c, 2, 74, 127
1, 119378, Note_off_c, 7, 67, 127
1, 119379, Note_off_c, 11, 58, 127
1, 119381, Note_on_c, 4, 76, 127
1, 119381, Note_on_c, 10, 57, 127
1, 119499, Note_off_c, 10, 57, 127
1, 119499, Note_off_c, 4, 76, 127
1, 119501, Note_on_c, 5, 77, 127
1, 119501, Note_on_c, 7, 55, 127
1, 119619, Note_off_c, 7, 55, 127
1, 119619, Note_off_c, 5, 77, 127
1, 119623, Note_on_c, 2, 74, 127
1, 119623, Note_on_c, 10, 57, 127
1, 119681, Note_off_c, 2, 74, 127
1, 119685, Note_on_c, 1, 73, 127
1, 119743, Note_off_c, 1, 73, 127
1, 119745, Note_on_c, 2, 74, 127
1, 119803, Note_off_c, 2, 74, 127
1, 119807, Note_on_c, 1, 73, 127
1, 119867, Note_on_c, 10, 45, 127
1, 119986, Note_off_c, 1, 73, 127
1, 119988, Note_on_c, 2, 74, 127
1, 120102, Note_off_c, 10, 57, 127
1, 120106, Note_off_c, 2, 74, 127
1, 120106, Note_off_c, 10, 45, 127
1, 120110, Note_on_c, 2, 74, 127
1, 120110, Note_on_c, 2, 62, 127
1, 120110, Note_on_c, 2, 50, 127
1, 120640, Note_off_c, 2, 50, 127
1, 120640, Note_off_c, 2, 62, 127
1, 120640, Note_off_c, 2, 74, 127
1, 120736, Note_on_c, 6, 42, 127
1, 120736, Note_on_c, 2, 50, 127
1, 120736, Note_on_c, 10, 57, 127
1, 120736, Note_on_c, 2, 62, 127
1, 120875, Note_on_c, 0, 60, 127
1, 121011, Note_off_c, 0, 60, 127
1, 121012, Note_on_c, 12, 59, 127
1, 121137, Note_off_c, 10, 57, 127
1, 121148, Note_off_c, 12, 59, 127
1, 121152, Note_on_c, 10, 57, 127
1, 121282, Note_off_c, 2, 62, 127
1, 121286, Note_off_c, 2, 50, 127
1, 121286, Note_off_c, 6, 42, 127
1, 121288, Note_off_c, 10, 57, 127
1, 121290, Note_on_c, 7, 43, 127
1, 121290, Note_on_c, 4, 52, 127
1, 121290, Note_on_c, 2, 50, 127
1, 121290, Note_on_c, 7, 67, 127
1, 121427, Note_on_c, 6, 66, 127
1, 121563, Note_off_c, 6, 66, 127
1, 121565, Note_on_c, 4, 64, 127
1, 121701, Note_off_c, 4, 64, 127
1, 121703, Note_on_c, 2, 62, 127
1, 121835, Note_off_c, 7, 67, 127
1, 121839, Note_off_c, 2, 62, 127
1, 121839, Note_off_c, 2, 50, 127
1, 121839, Note_off_c, 4, 52, 127
1, 121839, Note_off_c, 7, 43, 127
1, 121841, Note_on_c, 10, 45, 127
1, 121841, Note_on_c, 4, 52, 127
1, 121841, Note_on_c, 1, 61, 127
1, 121979, Note_on_c, 12, 59, 127
1, 122115, Note_off_c, 12, 59, 127
1, 122119, Note_on_c, 10, 57, 127
1, 122255, Note_off_c, 10, 57, 127
1, 122256, Note_on_c, 7, 55, 127
1, 122387, Note_off_c, 1, 61, 127
1, 122391, Note_off_c, 4, 52, 127
1, 122391, Note_off_c, 10, 45, 127
1, 122392, Note_off_c, 7, 55, 127
1, 122394, Note_on_c, 12, 47, 127
1, 122394, Note_on_c, 12, 59, 127
1, 122394, Note_on_c, 2, 62, 127
1, 122394, Note_on_c, 6, 54, 127
1, 122532, Note_on_c, 1, 49, 127
1, 122668, Note_off_c, 1, 49, 127
1, 122670, Note_on_c, 2, 50, 127
1, 122806, Note_off_c, 2, 50, 127
1, 122808, Note_on_c, 4, 52, 127
1, 122939, Note_off_c, 6, 54, 127
1, 122943, Note_off_c, 2, 62, 127
1, 122943, Note_off_c, 12, 59, 127
1, 122943, Note_off_c, 12, 47, 127
1, 122944, Note_off_c, 4, 52, 127
1, 122946, Note_on_c, 10, 57, 127
1, 122946, Note_on_c, 6, 54, 127
1, 122946, Note_on_c, 2, 62, 127
1, 123084, Note_on_c, 6, 42, 127
1, 123220, Note_off_c, 6, 42, 127
1, 123221, Note_on_c, 4, 40, 127
1, 123357, Note_off_c, 4, 40, 127
1, 123362, Note_on_c, 2, 38, 127
1, 123492, Note_off_c, 2, 62, 127
1, 123492, Note_off_c, 6, 54, 127
1, 123492, Note_off_c, 10, 57, 127
1, 123498, Note_off_c, 2, 38, 127
1, 123499, Note_on_c, 7, 43, 127
1, 123637, Note_on_c, 0, 48, 127
1, 123773, Note_off_c, 0, 48, 127
1, 123775, Note_on_c, 12, 47, 127
1, 123900, Note_off_c, 7, 43, 127
1, 123911, Note_off_c, 12, 47, 127
1, 123912, Note_on_c, 10, 45, 127
1, 124048, Note_off_c, 10, 45, 127
1, 124053, Note_on_c, 12, 47, 127
1, 124190, Note_on_c, 2, 50, 127
1, 124326, Note_off_c, 2, 50, 127
1, 124328, Note_on_c, 4, 52, 127
1, 124464, Note_off_c, 4, 52, 127
1, 124466, Note_on_c, 6, 54, 127
1, 124598, Note_off_c, 12, 47, 127
1, 124602, Note_off_c, 6, 54, 127
1, 124604, Note_on_c, 7, 55, 127
1, 124741, Note_on_c, 10, 57, 127
1, 124877, Note_off_c, 10, 57, 127
1, 124881, Note_on_c, 12, 59, 127
1, 125017, Note_off_c, 12, 59, 127
1, 125019, Note_on_c, 0, 60, 127
1, 125150, Note_off_c, 7, 55, 127
1, 125155, Note_off_c, 0, 60, 127
1, 125156, Note_on_c, 2, 50, 127
1, 125156, Note_on_c, 12, 59, 127
1, 125156, Note_on_c, 7, 55, 127
1, 125284, Note_off_c, 2, 50, 127
1, 125295, Note_on_c, 2, 50, 127
1, 125428, Note_off_c, 7, 55, 127
1, 125428, Note_off_c, 12, 59, 127
1, 125430, Note_off_c, 2, 50, 127
1, 125431, Note_on_c, 4, 52, 127
1, 125431, Note_on_c, 1, 61, 127
1, 125431, Note_on_c, 10, 57, 127
1, 125431, Note_on_c, 1, 49, 127
1, 125567, Note_off_c, 1, 49, 127
1, 125571, Note_on_c, 12, 47, 127
1, 125704, Note_off_c, 10, 57, 127
1, 125704, Note_off_c, 1, 61, 127
1, 125704, Note_off_c, 4, 52, 127
1, 125706, Note_off_c, 12, 47, 127
1, 125708, Note_on_c, 6, 54, 127
1, 125708, Note_on_c, 2, 50, 127
1, 125708, Note_on_c, 2, 62, 127
1, 125848, Note_on_c, 10, 57, 127
1, 125988, Note_off_c, 10, 57, 127
1, 125990, Note_on_c, 12, 59, 127
1, 126108, Note_off_c, 6, 54, 127
1, 126131, Note_off_c, 12, 59, 127
1, 126133, Note_on_c, 6, 54, 127
1, 126273, Note_off_c, 6, 54, 127
1, 126278, Note_on_c, 7, 55, 127
1, 126394, Note_off_c, 2, 62, 127
1, 126418, Note_off_c, 7, 55, 127
1, 126420, Note_on_c, 2, 62, 127
1, 126560, Note_off_c, 2, 62, 127
1, 126564, Note_on_c, 7, 67, 127
1, 126707, Note_on_c, 1, 61, 127
1, 126847, Note_off_c, 1, 61, 127
1, 126851, Note_on_c, 10, 57, 127
1, 126851, Note_on_c, 2, 62, 127
1, 126982, Note_off_c, 7, 67, 127
1, 126996, Note_on_c, 7, 67, 127
1, 127140, Note_off_c, 7, 67, 127
1, 127145, Note_on_c, 6, 66, 127
1, 127269, Note_off_c, 2, 62, 127
1, 127293, Note_on_c, 2, 62, 127
1, 127417, Note_off_c, 10, 57, 127
1, 127436, Note_off_c, 6, 66, 127
1, 127441, Note_on_c, 7, 67, 127
1, 127441, Note_on_c, 12, 59, 127
1, 127584, Note_off_c, 2, 62, 127
1, 127589, Note_on_c, 2, 62, 127
1, 127732, Note_off_c, 7, 67, 127
1, 127737, Note_on_c, 12, 71, 127
1, 127737, Note_on_c, 7, 67, 127
1, 127870, Note_off_c, 12, 59, 127
1, 127880, Note_off_c, 2, 62, 127
1, 127887, Note_on_c, 1, 61, 127
1, 127910, Note_off_c, 2, 50, 127
1, 128028, Note_off_c, 7, 67, 127
1, 128028, Note_off_c, 12, 71, 127
1, 128032, Note_off_c, 1, 61, 127
1, 128034, Note_on_c, 10, 69, 127
1, 128034, Note_on_c, 2, 62, 127
1, 128034, Note_on_c, 2, 50, 127
1, 128178, Note_off_c, 10, 69, 127
1, 128186, Note_on_c, 7, 67, 127
1, 128334, Note_off_c, 7, 67, 127
1, 128339, Note_on_c, 6, 66, 127
1, 128491, Note_on_c, 2, 74, 127
1, 128617, Note_off_c, 2, 62, 127
1, 128636, Note_off_c, 6, 66, 127
1, 128647, Note_on_c, 4, 64, 127
1, 128647, Note_on_c, 7, 67, 127
1, 128789, Note_off_c, 2, 74, 127
1, 128826, Note_on_c, 4, 76, 127
1, 128974, Note_off_c, 4, 76, 127
1, 129006, Note_on_c, 2, 74, 127
1, 129154, Note_off_c, 2, 74, 127
1, 129185, Note_on_c, 1, 73, 127
1, 129341, Note_off_c, 7, 67, 127
1, 129341, Note_off_c, 4, 64, 127
1, 129355, Note_off_c, 1, 73, 127
1, 129417, Note_on_c, 6, 66, 127
1, 129417, Note_on_c, 2, 62, 127
1, 129417, Note_on_c, 2, 74, 127
1, 129417, Note_on_c, 10, 69, 127
1, 132204, Note_off_c, 2, 50, 127
1, 132682, Note_off_c, 2, 62, 127
1, 132692, Note_off_c, 6, 66, 127
1, 132705, Note_off_c, 10, 69, 127
1, 132715, Note_off_c, 2, 74, 127
1, 134110, Note_on_c, 2, 62, 127
1, 134110, Note_on_c, 6, 66, 127
1, 134430, Note_on_c, 10, 69, 127
1, 134743, Note_off_c, 6, 66, 127
1, 134748, Note_off_c, 10, 69, 127
1, 134750, Note_on_c, 7, 67, 127
1, 135228, Note_off_c, 7, 67, 127
1, 135230, Note_on_c, 6, 66, 127
1, 135388, Note_off_c, 6, 66, 127
1, 135388, Note_off_c, 2, 62, 127
1, 135390, Note_on_c, 12, 71, 127
1, 135710, Note_on_c, 2, 62, 127
1, 136028, Note_off_c, 2, 62, 127
1, 136030, Note_on_c, 6, 66, 127
1, 136030, Note_on_c, 1, 61, 127
1, 136508, Note_off_c, 1, 61, 127
1, 136510, Note_on_c, 12, 59, 127
1, 136663, Note_off_c, 6, 66, 127
1, 136668, Note_off_c, 12, 59, 127
1, 136668, Note_off_c, 12, 71, 127
1, 136670, Note_on_c, 11, 58, 127
1, 136672, Note_on_c, 4, 64, 127
1, 136674, Note_on_c, 6, 66, 127
1, 136676, Note_on_c, 1, 73, 127
1, 137949, Note_off_c, 11, 58, 127
1, 137951, Note_off_c, 4, 64, 127
1, 137953, Note_off_c, 6, 66, 127
1, 137955, Note_off_c, 1, 73, 127
1, 138032, Note_on_c, 6, 54, 127
1, 138032, Note_on_c, 1, 61, 127
1, 138032, Note_on_c, 4, 64, 127
1, 138190, Note_off_c, 4, 64, 127
1, 138190, Note_off_c, 1, 61, 127
1, 138192, Note_on_c, 6, 66, 127
1, 138192, Note_on_c, 11, 46, 127
1, 138349, Note_off_c, 6, 54, 127
1, 138351, Note_off_c, 6, 66, 127
1, 138353, Note_on_c, 4, 64, 127
1, 138353, Note_on_c, 1, 61, 127
1, 138353, Note_on_c, 6, 54, 127
1, 138510, Note_off_c, 11, 46, 127
1, 138512, Note_off_c, 1, 61, 127
1, 138512, Note_off_c, 4, 64, 127
1, 138514, Note_on_c, 6, 66, 127
1, 138514, Note_on_c, 11, 46, 127
1, 138671, Note_off_c, 6, 54, 127
1, 138673, Note_off_c, 6, 66, 127
1, 138675, Note_on_c, 4, 64, 127
1, 138675, Note_on_c, 1, 61, 127
1, 138675, Note_on_c, 6, 54, 127
1, 138832, Note_off_c, 11, 46, 127
1, 138834, Note_off_c, 1, 61, 127
1, 138834, Note_off_c, 4, 64, 127
1, 138836, Note_on_c, 6, 66, 127
1, 138836, Note_on_c, 11, 46, 127
1, 138993, Note_off_c, 6, 54, 127
1, 138995, Note_off_c, 6, 66, 127
1, 138997, Note_on_c, 4, 64, 127
1, 138997, Note_on_c, 1, 61, 127
1, 138997, Note_on_c, 6, 54, 127
1, 139154, Note_off_c, 11, 46, 127
1, 139181, Note_off_c, 1, 61, 127
1, 139181, Note_off_c, 4, 64, 127
1, 139183, Note_on_c, 6, 66, 127
1, 139183, Note_on_c, 11, 46, 127
1, 139315, Note_off_c, 6, 54, 127
1, 139500, Note_off_c, 11, 46, 127
1, 139500, Note_off_c, 6, 66, 127
1, 140695, Note_on_c, 12, 59, 127
1, 140695, Note_on_c, 2, 62, 127
1, 141025, Note_on_c, 6, 66, 127
1, 141328, Note_off_c, 2, 62, 127
1, 141343, Note_off_c, 6, 66, 127
1, 141345, Note_on_c, 4, 64, 127
1, 141823, Note_off_c, 4, 64, 127
1, 141825, Note_on_c, 2, 62, 127
1, 141973, Note_off_c, 12, 59, 127
1, 141985, Note_on_c, 7, 67, 127
1, 142292, Note_off_c, 2, 62, 127
1, 142305, Note_on_c, 12, 59, 127
1, 142618, Note_off_c, 7, 67, 127
1, 142623, Note_off_c, 12, 59, 127
1, 142625, Note_on_c, 10, 57, 127
1, 142625, Note_on_c, 2, 62, 127
1, 143103, Note_off_c, 10, 57, 127
1, 143105, Note_on_c, 7, 55, 127
1, 143258, Note_off_c, 2, 62, 127
1, 143263, Note_off_c, 7, 55, 127
1, 143265, Note_on_c, 6, 54, 127
1, 143267, Note_on_c, 0, 60, 127
1, 143269, Note_on_c, 2, 62, 127
1, 143271, Note_on_c, 10, 69, 127
1, 144544, Note_off_c, 6, 54, 127
1, 144546, Note_off_c, 0, 60, 127
1, 144548, Note_off_c, 2, 62, 127
1, 144550, Note_off_c, 10, 69, 127
1, 144627, Note_on_c, 10, 57, 127
1, 144627, Note_on_c, 0, 60, 127
1, 144627, Note_on_c, 2, 50, 127
1, 144785, Note_off_c, 0, 60, 127
1, 144785, Note_off_c, 10, 57, 127
1, 144787, Note_on_c, 2, 62, 127
1, 144787, Note_on_c, 10, 45, 127
1, 144787, Note_on_c, 6, 42, 127
1, 144944, Note_off_c, 2, 50, 127
1, 144946, Note_off_c, 10, 45, 127
1, 144946, Note_off_c, 2, 62, 127
1, 144948, Note_on_c, 2, 50, 127
1, 144948, Note_on_c, 10, 57, 127
1, 144948, Note_on_c, 0, 60, 127
1, 145105, Note_off_c, 6, 42, 127
1, 145107, Note_off_c, 0, 60, 127
1, 145107, Note_off_c, 10, 57, 127
1, 145109, Note_on_c, 6, 42, 127
1, 145109, Note_on_c, 10, 45, 127
1, 145109, Note_on_c, 2, 62, 127
1, 145266, Note_off_c, 2, 50, 127
1, 145268, Note_off_c, 2, 62, 127
1, 145268, Note_off_c, 10, 45, 127
1, 145270, Note_on_c, 2, 50, 127
1, 145270, Note_on_c, 10, 57, 127
1, 145270, Note_on_c, 0, 60, 127
1, 145427, Note_off_c, 6, 42, 127
1, 145429, Note_off_c, 0, 60, 127
1, 145429, Note_off_c, 10, 57, 127
1, 145431, Note_on_c, 6, 42, 127
1, 145431, Note_on_c, 10, 45, 127
1, 145431, Note_on_c, 2, 62, 127
1, 145588, Note_off_c, 2, 50, 127
1, 145590, Note_off_c, 2, 62, 127
1, 145590, Note_off_c, 10, 45, 127
1, 145592, Note_on_c, 2, 50, 127
1, 145592, Note_on_c, 10, 57, 127
1, 145592, Note_on_c, 0, 60, 127
1, 145749, Note_off_c, 6, 42, 127
1, 145776, Note_off_c, 0, 60, 127
1, 145776, Note_off_c, 10, 57, 127
1, 145778, Note_on_c, 2, 62, 127
1, 145778, Note_on_c, 6, 42, 127
1, 145778, Note_on_c, 10, 45, 127
1, 145910, Note_off_c, 2, 50, 127
1, 146012, Note_off_c, 10, 45, 127
1, 146012, Note_off_c, 6, 42, 127
1, 146012, Note_off_c, 2, 62, 127
1, 147034, Note_on_c, 12, 59, 127
1, 147034, Note_on_c, 7, 55, 127
1, 147354, Note_on_c, 2, 74, 127
1, 147672, Note_off_c, 2, 74, 127
1, 147674, Note_on_c, 0, 72, 127
1, 148152, Note_off_c, 0, 72, 127
1, 148154, Note_on_c, 12, 71, 127
1, 148312, Note_off_c, 7, 55, 127
1, 148312, Note_off_c, 12, 59, 127
1, 148314, Note_on_c, 4, 76, 127
1, 148621, Note_off_c, 12, 71, 127
1, 148634, Note_on_c, 7, 67, 127
1, 148947, Note_off_c, 4, 76, 127
1, 148952, Note_off_c, 7, 67, 127
1, 148954, Note_on_c, 6, 66, 127
1, 148954, Note_on_c, 12, 71, 127
1, 149432, Note_off_c, 6, 66, 127
1, 149434, Note_on_c, 4, 64, 127
1, 149587, Note_off_c, 12, 71, 127
1, 149592, Note_off_c, 4, 64, 127
1, 149594, Note_on_c, 3, 63, 127
1, 149596, Note_on_c, 10, 69, 127
1, 149598, Note_on_c, 12, 71, 127
1, 149600, Note_on_c, 6, 78, 127
1, 150873, Note_off_c, 3, 63, 127
1, 150875, Note_off_c, 10, 69, 127
1, 150875, Note_on_c, 6, 66, 127
1, 150875, Note_on_c, 10, 69, 127
1, 150875, Note_on_c, 12, 59, 127
1, 150877, Note_off_c, 12, 71, 127
1, 150879, Note_off_c, 6, 78, 127
1, 151034, Note_off_c, 10, 69, 127
1, 151034, Note_off_c, 6, 66, 127
1, 151036, Note_on_c, 6, 54, 127
1, 151036, Note_on_c, 3, 51, 127
1, 151036, Note_on_c, 12, 71, 127
1, 151193, Note_off_c, 12, 59, 127
1, 151195, Note_off_c, 12, 71, 127
1, 151195, Note_off_c, 6, 54, 127
1, 151197, Note_on_c, 12, 59, 127
1, 151197, Note_on_c, 6, 66, 127
1, 151197, Note_on_c, 10, 69, 127
1, 151354, Note_off_c, 3, 51, 127
1, 151356, Note_off_c, 10, 69, 127
1, 151356, Note_off_c, 6, 66, 127
1, 151358, Note_on_c, 3, 51, 127
1, 151358, Note_on_c, 6, 54, 127
1, 151358, Note_on_c, 12, 71, 127
1, 151515, Note_off_c, 12, 59, 127
1, 151517, Note_off_c, 12, 71, 127
1, 151517, Note_off_c, 6, 54, 127
1, 151519, Note_on_c, 12, 59, 127
1, 151519, Note_on_c, 6, 66, 127
1, 151519, Note_on_c, 10, 69, 127
1, 151676, Note_off_c, 3, 51, 127
1, 151678, Note_off_c, 10, 69, 127
1, 151678, Note_off_c, 6, 66, 127
1, 151680, Note_on_c, 3, 51, 127
1, 151680, Note_on_c, 6, 54, 127
1, 151680, Note_on_c, 12, 71, 127
1, 151837, Note_off_c, 12, 59, 127
1, 151839, Note_off_c, 12, 71, 127
1, 151839, Note_off_c, 6, 54, 127
1, 151841, Note_on_c, 12, 59, 127
1, 151841, Note_on_c, 6, 66, 127
1, 151841, Note_on_c, 10, 69, 127
1, 151998, Note_off_c, 3, 51, 127
1, 152025, Note_off_c, 10, 69, 127
1, 152027, Note_on_c, 6, 54, 127
1, 152027, Note_on_c, 3, 51, 127
1, 152027, Note_on_c, 12, 71, 127
1, 152159, Note_off_c, 12, 59, 127
1, 152227, Note_off_c, 12, 71, 127
1, 152506, Note_off_c, 3, 51, 127
1, 152506, Note_off_c, 6, 54, 127
1, 152541, Note_off_c, 6, 66, 127
1, 152853, Note_on_c, 6, 78, 127
1, 153326, Note_off_c, 6, 78, 127
1, 153347, Note_on_c, 10, 69, 127
1, 153825, Note_off_c, 10, 69, 127
1, 153827, Note_on_c, 10, 69, 127
1, 153985, Note_off_c, 10, 69, 127
1, 153987, Note_on_c, 10, 69, 127
1, 154627, Note_on_c, 6, 66, 127
1, 154627, Note_on_c, 3, 51, 127
1, 154627, Note_on_c, 12, 59, 127
1, 154627, Note_on_c, 6, 54, 127
1, 154627, Note_on_c, 3, 63, 127
1, 155260, Note_off_c, 6, 66, 127
1, 155265, Note_off_c, 3, 63, 127
1, 155265, Note_off_c, 6, 54, 127
1, 155265, Note_off_c, 12, 59, 127
1, 155265, Note_off_c, 3, 51, 127
1, 155265, Note_off_c, 10, 69, 127
1, 155267, Note_on_c, 12, 59, 127
1, 155267, Note_on_c, 6, 54, 127
1, 155267, Note_on_c, 3, 63, 127
1, 155267, Note_on_c, 3, 51, 127
1, 155267, Note_on_c, 6, 66, 127
1, 155667, Note_on_c, 6, 78, 127
1, 155900, Note_off_c, 6, 66, 127
1, 155985, Note_off_c, 6, 78, 127
1, 155987, Note_on_c, 10, 69, 127
1, 156465, Note_off_c, 10, 69, 127
1, 156467, Note_on_c, 10, 69, 127
1, 156545, Note_off_c, 3, 51, 127
1, 156545, Note_off_c, 3, 63, 127
1, 156545, Note_off_c, 6, 54, 127
1, 156545, Note_off_c, 12, 59, 127
1, 156625, Note_off_c, 10, 69, 127
1, 156627, Note_on_c, 10, 69, 127
1, 157267, Note_on_c, 6, 66, 127
1, 157267, Note_on_c, 3, 63, 127
1, 157267, Note_on_c, 6, 54, 127
1, 157267, Note_on_c, 3, 51, 127
1, 157267, Note_on_c, 12, 59, 127
1, 157905, Note_off_c, 12, 59, 127
1, 157905, Note_off_c, 3, 51, 127
1, 157905, Note_off_c, 6, 54, 127
1, 157905, Note_off_c, 3, 63, 127
1, 157905, Note_off_c, 6, 66, 127
1, 157905, Note_off_c, 10, 69, 127
1, 157907, Note_on_c, 4, 52, 127
1, 157907, Note_on_c, 10, 57, 127
1, 157907, Note_on_c, 6, 54, 127
1, 157907, Note_on_c, 3, 63, 127
1, 157907, Note_on_c, 12, 59, 127
1, 157907, Note_on_c, 6, 66, 127
1, 158307, Note_on_c, 6, 78, 127
1, 158625, Note_off_c, 6, 78, 127
1, 158627, Note_on_c, 10, 69, 127
1, 159105, Note_off_c, 10, 69, 127
1, 159107, Note_on_c, 10, 69, 127
1, 159185, Note_off_c, 6, 66, 127
1, 159185, Note_off_c, 12, 59, 127
1, 159185, Note_off_c, 3, 63, 127
1, 159185, Note_off_c, 6, 54, 127
1, 159185, Note_off_c, 10, 57, 127
1, 159185, Note_off_c, 4, 52, 127
1, 159265, Note_off_c, 10, 69, 127
1, 159267, Note_on_c, 10, 69, 127
1, 159907, Note_on_c, 10, 57, 127
1, 159907, Note_on_c, 12, 59, 127
1, 159907, Note_on_c, 4, 52, 127
1, 159907, Note_on_c, 3, 63, 127
1, 159907, Note_on_c, 6, 54, 127
1, 159907, Note_on_c, 6, 66, 127
1, 160545, Note_off_c, 6, 66, 127
1, 160545, Note_off_c, 6, 54, 127
1, 160545, Note_off_c, 3, 63, 127
1, 160545, Note_off_c, 4, 52, 127
1, 160545, Note_off_c, 12, 59, 127
1, 160545, Note_off_c, 10, 57, 127
1, 160545, Note_off_c, 10, 69, 127
1, 160547, Note_on_c, 12, 59, 127
1, 160547, Note_on_c, 4, 64, 127
1, 160547, Note_on_c, 4, 52, 127
1, 160547, Note_on_c, 7, 55, 127
1, 160947, Note_on_c, 4, 76, 127
1, 161265, Note_off_c, 4, 76, 127
1, 161267, Note_on_c, 7, 67, 127
1, 161745, Note_off_c, 7, 67, 127
1, 161747, Note_on_c, 7, 67, 127
1, 161825, Note_off_c, 7, 55, 127
1, 161825, Note_off_c, 4, 52, 127
1, 161825, Note_off_c, 4, 64, 127
1, 161825, Note_off_c, 12, 59, 127
1, 161905, Note_off_c, 7, 67, 127
1, 161907, Note_on_c, 7, 67, 127
1, 162547, Note_on_c, 12, 59, 127
1, 162547, Note_on_c, 4, 64, 127
1, 162547, Note_on_c, 7, 55, 127
1, 162547, Note_on_c, 4, 52, 127
1, 163185, Note_off_c, 4, 52, 127
1, 163185, Note_off_c, 7, 55, 127
1, 163185, Note_off_c, 4, 64, 127
1, 163185, Note_off_c, 12, 59, 127
1, 163185, Note_off_c, 7, 67, 127
1, 163187, Note_on_c, 7, 55, 127
1, 163187, Note_on_c, 4, 64, 127
1, 163187, Note_on_c, 12, 59, 127
1, 163587, Note_on_c, 4, 76, 127
1, 163905, Note_off_c, 4, 76, 127
1, 163907, Note_on_c, 7, 67, 127
1, 164385, Note_off_c, 7, 67, 127
1, 164387, Note_on_c, 7, 67, 127
1, 164465, Note_off_c, 12, 59, 127
1, 164465, Note_off_c, 4, 64, 127
1, 164465, Note_off_c, 7, 55, 127
1, 164545, Note_off_c, 7, 67, 127
1, 164547, Note_on_c, 7, 67, 127
1, 165187, Note_on_c, 4, 64, 127
1, 165187, Note_on_c, 0, 60, 127
1, 165825, Note_off_c, 0, 60, 127
1, 165825, Note_off_c, 4, 64, 127
1, 165825, Note_off_c, 7, 67, 127
1, 165827, Note_on_c, 1, 61, 127
1, 165827, Note_on_c, 4, 64, 127
1, 165827, Note_on_c, 11, 58, 127
1, 166227, Note_on_c, 4, 76, 127
1, 166545, Note_off_c, 4, 76, 127
1, 166547, Note_on_c, 7, 67, 127
1, 167025, Note_off_c, 7, 67, 127
1, 167027, Note_on_c, 7, 67, 127
1, 167105, Note_off_c, 11, 58, 127
1, 167105, Note_off_c, 4, 64, 127
1, 167105, Note_off_c, 1, 61, 127
1, 167185, Note_off_c, 7, 67, 127
1, 167187, Note_on_c, 7, 67, 127
1, 167787, Note_off_c, 7, 67, 127
1, 167827, Note_on_c, 7, 67, 127
1, 167988, Note_on_c, 1, 49, 127
1, 167988, Note_on_c, 11, 46, 127
1, 167988, Note_on_c, 4, 52, 127
1, 167988, Note_on_c, 4, 76, 127
1, 167988, Note_on_c, 4, 64, 127
1, 167998, Note_off_c, 7, 67, 127
1, 168466, Note_off_c, 4, 76, 127
1, 168491, Note_on_c, 7, 67, 127
1, 168621, Note_off_c, 4, 52, 127
1, 168621, Note_off_c, 11, 46, 127
1, 168621, Note_off_c, 1, 49, 127
1, 168626, Note_off_c, 7, 67, 127
1, 168628, Note_on_c, 6, 54, 127
1, 168628, Note_on_c, 12, 59, 127
1, 168628, Note_on_c, 12, 47, 127
1, 168628, Note_on_c, 6, 66, 127
1, 169266, Note_off_c, 4, 64, 127
1, 169334, Note_on_c, 3, 63, 127
1, 169679, Note_off_c, 3, 63, 127
1, 169681, Note_on_c, 1, 61, 127
1, 170026, Note_off_c, 1, 61, 127
1, 170028, Note_on_c, 3, 63, 127
1, 170461, Note_off_c, 6, 66, 127
1, 170461, Note_off_c, 12, 47, 127
1, 170461, Note_off_c, 12, 59, 127
1, 170461, Note_off_c, 6, 54, 127
1, 170844, Note_off_c, 3, 63, 127
1, 170907, Note_on_c, 12, 59, 127
1, 170907, Note_on_c, 6, 54, 127
1, 170907, Note_on_c, 3, 63, 127
1, 170907, Note_on_c, 12, 47, 127
1, 170907, Note_on_c, 3, 51, 127
1, 170907, Note_on_c, 6, 66, 127
1, 170907, Note_on_c, 12, 71, 127
1, 171225, Note_off_c, 12, 47, 127
1, 171227, Note_on_c, 10, 45, 127
1, 171540, Note_off_c, 12, 71, 127
1, 171540, Note_off_c, 6, 66, 127
1, 171540, Note_off_c, 3, 51, 127
1, 171540, Note_off_c, 3, 63, 127
1, 171540, Note_off_c, 6, 54, 127
1, 171540, Note_off_c, 12, 59, 127
1, 171545, Note_off_c, 10, 45, 127
1, 171547, Note_on_c, 12, 71, 127
1, 171547, Note_on_c, 8, 68, 127
1, 171547, Note_on_c, 5, 65, 127
1, 171547, Note_on_c, 12, 59, 127
1, 171547, Note_on_c, 5, 53, 127
1, 171547, Note_on_c, 12, 47, 127
1, 171547, Note_on_c, 8, 44, 127
1, 172399, Note_off_c, 5, 65, 127
1, 172399, Note_off_c, 8, 68, 127
1, 172399, Note_off_c, 12, 71, 127
1, 172447, Note_on_c, 12, 71, 127
1, 172547, Note_on_c, 10, 69, 127
1, 172552, Note_off_c, 12, 71, 127
1, 172647, Note_on_c, 8, 68, 127
1, 172652, Note_off_c, 10, 69, 127
1, 172747, Note_on_c, 6, 66, 127
1, 172780, Note_off_c, 8, 68, 127
1, 172825, Note_off_c, 8, 44, 127
1, 172825, Note_off_c, 12, 47, 127
1, 172825, Note_off_c, 5, 53, 127
1, 172825, Note_off_c, 12, 59, 127
1, 172847, Note_on_c, 4, 64, 127
1, 172852, Note_off_c, 6, 66, 127
1, 172947, Note_on_c, 2, 62, 127
1, 172952, Note_off_c, 4, 64, 127
1, 173047, Note_on_c, 1, 61, 127
1, 173052, Note_off_c, 2, 62, 127
1, 173147, Note_on_c, 12, 59, 127
1, 173152, Note_off_c, 1, 61, 127
1, 173307, Note_on_c, 10, 57, 127
1, 173347, Note_off_c, 12, 59, 127
1, 173465, Note_off_c, 10, 57, 127
1, 173467, Note_on_c, 8, 56, 127
1, 173627, Note_on_c, 6, 54, 127
1, 173667, Note_off_c, 8, 56, 127
1, 173785, Note_off_c, 6, 54, 127
1, 173787, Note_on_c, 5, 53, 127
1, 174107, Note_on_c, 12, 71, 127
1, 174107, Note_on_c, 1, 61, 127
1, 174107, Note_on_c, 8, 68, 127
1, 174107, Note_on_c, 1, 49, 127
1, 174420, Note_off_c, 5, 53, 127
1, 174425, Note_off_c, 8, 68, 127
1, 174425, Note_off_c, 1, 61, 127
1, 174425, Note_off_c, 12, 71, 127
1, 174427, Note_on_c, 12, 71, 127
1, 174427, Note_on_c, 1, 61, 127
1, 174427, Note_on_c, 6, 54, 127
1, 174427, Note_on_c, 6, 42, 127
1, 174427, Note_on_c, 8, 68, 127
1, 175082, Note_off_c, 8, 68, 127
1, 175082, Note_off_c, 1, 61, 127
1, 175082, Note_off_c, 12, 71, 127
1, 175092, Note_off_c, 1, 49, 127
1, 175094, Note_on_c, 6, 66, 127
1, 175094, Note_on_c, 10, 69, 127
1, 175094, Note_on_c, 1, 61, 127
1, 175431, Note_off_c, 1, 61, 127
1, 175431, Note_off_c, 10, 69, 127
1, 175431, Note_off_c, 6, 66, 127
1, 175441, Note_on_c, 12, 59, 127
1, 175441, Note_on_c, 8, 68, 127
1, 175441, Note_on_c, 5, 65, 127
1, 175759, Note_off_c, 12, 59, 127
1, 175777, Note_off_c, 5, 65, 127
1, 175777, Note_off_c, 8, 68, 127
1, 175787, Note_on_c, 1, 61, 127
1, 175789, Note_on_c, 6, 66, 127
1, 175791, Note_on_c, 10, 69, 127
1, 176260, Note_off_c, 6, 42, 127
1, 176260, Note_off_c, 6, 54, 127
1, 176485, Note_off_c, 1, 61, 127
1, 176487, Note_off_c, 6, 66, 127
1, 176489, Note_off_c, 10, 69, 127
1, 176930, Note_on_c, 6, 66, 127
1, 177035, Note_off_c, 6, 66, 127
1, 177037, Note_on_c, 4, 64, 127
1, 177142, Note_off_c, 4, 64, 127
1, 177144, Note_on_c, 2, 62, 127
1, 177249, Note_off_c, 2, 62, 127
1, 177251, Note_on_c, 1, 61, 127
1, 177354, Note_on_c, 12, 59, 127
1, 177356, Note_off_c, 1, 61, 127
1, 177454, Note_on_c, 10, 57, 127
1, 177459, Note_off_c, 12, 59, 127
1, 177554, Note_on_c, 8, 56, 127
1, 177559, Note_off_c, 10, 57, 127
1, 177654, Note_on_c, 6, 54, 127
1, 177659, Note_off_c, 8, 56, 127
1, 177807, Note_on_c, 4, 52, 127
1, 177812, Note_off_c, 6, 54, 127
1, 177960, Note_on_c, 2, 50, 127
1, 177965, Note_off_c, 4, 52, 127
1, 178113, Note_on_c, 1, 49, 127
1, 178118, Note_off_c, 2, 50, 127
1, 178266, Note_on_c, 0, 48, 127
1, 178271, Note_off_c, 1, 49, 127
1, 178938, Note_on_c, 3, 75, 127
1, 178938, Note_on_c, 8, 68, 127
1, 178938, Note_on_c, 6, 66, 127
1, 178938, Note_on_c, 3, 51, 127
1, 178938, Note_on_c, 8, 56, 127
1, 179544, Note_off_c, 0, 48, 127
1, 179576, Note_off_c, 8, 56, 127
1, 179576, Note_off_c, 3, 51, 127
1, 179576, Note_off_c, 6, 66, 127
1, 179576, Note_off_c, 8, 68, 127
1, 179576, Note_off_c, 3, 75, 127
1, 179578, Note_on_c, 5, 65, 127
1, 179578, Note_on_c, 8, 68, 127
1, 179578, Note_on_c, 1, 49, 127
1, 179898, Note_on_c, 10, 57, 127
1, 180056, Note_off_c, 10, 57, 127
1, 180058, Note_on_c, 12, 59, 127
1, 180211, Note_off_c, 8, 68, 127
1, 180211, Note_off_c, 5, 65, 127
1, 180216, Note_off_c, 12, 59, 127
1, 180218, Note_on_c, 10, 57, 127
1, 180218, Note_on_c, 6, 66, 127
1, 180218, Note_on_c, 10, 69, 127
1, 180536, Note_off_c, 10, 69, 127
1, 180536, Note_off_c, 6, 66, 127
1, 180536, Note_off_c, 10, 57, 127
1, 180538, Note_on_c, 8, 56, 127
1, 180538, Note_on_c, 5, 65, 127
1, 180538, Note_on_c, 12, 71, 127
1, 180856, Note_off_c, 12, 71, 127
1, 180856, Note_off_c, 5, 65, 127
1, 180856, Note_off_c, 8, 56, 127
1, 180858, Note_on_c, 1, 73, 127
1, 180858, Note_on_c, 6, 66, 127
1, 180858, Note_on_c, 10, 57, 127
1, 181016, Note_off_c, 6, 66, 127
1, 181018, Note_on_c, 5, 65, 127
1, 181165, Note_off_c, 1, 49, 127
1, 181177, Note_off_c, 5, 65, 127
1, 181179, Note_on_c, 6, 66, 127
1, 181179, Note_on_c, 0, 48, 127
1, 181337, Note_off_c, 6, 66, 127
1, 181339, Note_on_c, 8, 68, 127
1, 181492, Note_off_c, 10, 57, 127
1, 181492, Note_off_c, 1, 73, 127
1, 181495, Note_off_c, 0, 48, 127
1, 181497, Note_off_c, 8, 68, 127
1, 181499, Note_on_c, 5, 53, 127
1, 181499, Note_on_c, 1, 49, 127
1, 181499, Note_on_c, 8, 68, 127
1, 181659, Note_on_c, 5, 65, 127
1, 181766, Note_off_c, 8, 68, 127
1, 181819, Note_on_c, 8, 68, 127
1, 181926, Note_off_c, 5, 65, 127
1, 181979, Note_on_c, 5, 65, 127
1, 182102, Note_off_c, 8, 68, 127
1, 182132, Note_off_c, 5, 53, 127
1, 182139, Note_on_c, 8, 68, 127
1, 182139, Note_on_c, 12, 59, 127
1, 182262, Note_off_c, 5, 65, 127
1, 182299, Note_on_c, 5, 65, 127
1, 182439, Note_off_c, 8, 68, 127
1, 182476, Note_on_c, 8, 68, 127
1, 182599, Note_off_c, 5, 65, 127
1, 182647, Note_off_c, 8, 68, 127
1, 182657, Note_on_c, 5, 65, 127
1, 182772, Note_off_c, 12, 59, 127
1, 182777, Note_off_c, 1, 49, 127
1, 183135, Note_off_c, 5, 65, 127
1, 183410, Note_on_c, 6, 66, 127
1, 183592, Note_on_c, 1, 61, 127
1, 183750, Note_off_c, 1, 61, 127
1, 183758, Note_on_c, 2, 62, 127
1, 183925, Note_on_c, 11, 58, 127
1, 184083, Note_off_c, 11, 58, 127
1, 184101, Note_on_c, 12, 59, 127
1, 184458, Note_on_c, 6, 54, 127
1, 184623, Note_off_c, 6, 54, 127
1, 184625, Note_on_c, 1, 49, 127
1, 184790, Note_off_c, 1, 49, 127
1, 184792, Note_on_c, 2, 50, 127
1, 184957, Note_off_c, 2, 50, 127
1, 184959, Note_on_c, 11, 46, 127
1, 185124, Note_off_c, 11, 46, 127
1, 185126, Note_on_c, 12, 47, 127
1, 185291, Note_off_c, 12, 47, 127
1, 185326, Note_on_c, 5, 41, 127
1, 185503, Note_off_c, 5, 41, 127
1, 185550, Note_on_c, 6, 42, 127
1, 186010, Note_off_c, 2, 62, 127
1, 186020, Note_off_c, 12, 59, 127
1, 186245, Note_off_c, 6, 66, 127
1, 186340, Note_on_c, 2, 62, 127
1, 186340, Note_on_c, 8, 68, 127
1, 186340, Note_on_c, 12, 59, 127
1, 186340, Note_on_c, 12, 47, 127
1, 186340, Note_on_c, 5, 53, 127
1, 186818, Note_off_c, 12, 47, 127
1, 186873, Note_off_c, 5, 53, 127
1, 186873, Note_off_c, 12, 59, 127
1, 186873, Note_off_c, 8, 68, 127
1, 186873, Note_off_c, 2, 62, 127
1, 186980, Note_on_c, 6, 54, 127
1, 186980, Note_on_c, 1, 49, 127
1, 186980, Note_on_c, 1, 61, 127
1, 186980, Note_on_c, 6, 66, 127
1, 186980, Note_on_c, 11, 58, 127
1, 187513, Note_off_c, 11, 58, 127
1, 187513, Note_off_c, 6, 66, 127
1, 187513, Note_off_c, 1, 61, 127
1, 187513, Note_off_c, 1, 49, 127
1, 187513, Note_off_c, 6, 54, 127
1, 187620, Note_on_c, 12, 59, 127
1, 187620, Note_on_c, 5, 65, 127
1, 187620, Note_on_c, 8, 56, 127
1, 187620, Note_on_c, 2, 50, 127
1, 188153, Note_off_c, 2, 50, 127
1, 188153, Note_off_c, 8, 56, 127
1, 188153, Note_off_c, 5, 65, 127
1, 188153, Note_off_c, 12, 59, 127
1, 188260, Note_on_c, 1, 49, 127
1, 188260, Note_on_c, 6, 54, 127
1, 188260, Note_on_c, 11, 58, 127
1, 188260, Note_on_c, 1, 61, 127
1, 188260, Note_on_c, 6, 66, 127
1, 190550, Note_off_c, 6, 42, 127
1, 190790, Note_off_c, 1, 49, 127
1, 190797, Note_off_c, 6, 54, 127
1, 190804, Note_off_c, 11, 58, 127
1, 190811, Note_off_c, 1, 61, 127
1, 190818, Note_off_c, 6, 66, 127
1, 191706, Note_on_c, 6, 54, 127
1, 191882, Note_off_c, 6, 54, 127
1, 191885, Note_on_c, 8, 56, 127
1, 192061, Note_off_c, 8, 56, 127
1, 192063, Note_on_c, 10, 57, 127
1, 192416, Note_off_c, 10, 57, 127
1, 192419, Note_on_c, 10, 57, 127
1, 192595, Note_off_c, 10, 57, 127
1, 192598, Note_on_c, 12, 59, 127
1, 192774, Note_off_c, 12, 59, 127
1, 192776, Note_on_c, 1, 61, 127
1, 193129, Note_off_c, 1, 61, 127
1, 193132, Note_on_c, 10, 57, 127
1, 193132, Note_on_c, 1, 73, 127
1, 193308, Note_off_c, 1, 73, 127
1, 193311, Note_on_c, 6, 66, 127
1, 193486, Note_off_c, 10, 57, 127
1, 193487, Note_off_c, 6, 66, 127
1, 193489, Note_on_c, 12, 59, 127
1, 193489, Note_on_c, 2, 74, 127
1, 193842, Note_off_c, 2, 74, 127
1, 193842, Note_off_c, 12, 59, 127
1, 193845, Note_on_c, 1, 61, 127
1, 193845, Note_on_c, 1, 73, 127
1, 194198, Note_off_c, 1, 73, 127
1, 194198, Note_off_c, 1, 61, 127
1, 194201, Note_on_c, 2, 62, 127
1, 194201, Note_on_c, 12, 71, 127
1, 194377, Note_off_c, 2, 62, 127
1, 194380, Note_on_c, 12, 59, 127
1, 194555, Note_off_c, 12, 71, 127
1, 194556, Note_off_c, 12, 59, 127
1, 194558, Note_on_c, 6, 66, 127
1, 194558, Note_on_c, 10, 69, 127
1, 194911, Note_off_c, 10, 69, 127
1, 194914, Note_on_c, 10, 69, 127
1, 195001, Note_off_c, 10, 69, 127
1, 195003, Note_on_c, 8, 68, 127
1, 195090, Note_off_c, 8, 68, 127
1, 195093, Note_on_c, 10, 69, 127
1, 195180, Note_off_c, 10, 69, 127
1, 195182, Note_on_c, 8, 68, 127
1, 195268, Note_off_c, 6, 66, 127
1, 195271, Note_on_c, 5, 65, 127
1, 195447, Note_off_c, 8, 68, 127
1, 195450, Note_on_c, 6, 66, 127
1, 195625, Note_off_c, 5, 65, 127
1, 195626, Note_off_c, 6, 66, 127
1, 195628, Note_on_c, 6, 66, 127
1, 195981, Note_off_c, 6, 66, 127
1, 195984, Note_on_c, 6, 54, 127
1, 195984, Note_on_c, 1, 61, 127
1, 195984, Note_on_c, 10, 81, 127
1, 196160, Note_off_c, 1, 61, 127
1, 196163, Note_on_c, 3, 63, 127
1, 196338, Note_off_c, 10, 81, 127
1, 196338, Note_off_c, 6, 54, 127
1, 196339, Note_off_c, 3, 63, 127
1, 196341, Note_on_c, 1, 61, 127
1, 196341, Note_on_c, 4, 64, 127
1, 196341, Note_on_c, 8, 80, 127
1, 196517, Note_off_c, 8, 80, 127
1, 196520, Note_on_c, 10, 81, 127
1, 196695, Note_off_c, 4, 64, 127
1, 196696, Note_off_c, 10, 81, 127
1, 196698, Note_on_c, 4, 64, 127
1, 196698, Note_on_c, 8, 80, 127
1, 196874, Note_off_c, 8, 80, 127
1, 196874, Note_off_c, 4, 64, 127
1, 196877, Note_on_c, 6, 66, 127
1, 196877, Note_on_c, 6, 78, 127
1, 197053, Note_off_c, 6, 78, 127
1, 197053, Note_off_c, 6, 66, 127
1, 197055, Note_on_c, 8, 68, 127
1, 197055, Note_on_c, 4, 76, 127
1, 197408, Note_off_c, 4, 76, 127
1, 197408, Note_off_c, 8, 68, 127
1, 197408, Note_off_c, 1, 61, 127
1, 197411, Note_on_c, 8, 56, 127
1, 197411, Note_on_c, 4, 64, 127
1, 197411, Note_on_c, 1, 73, 127
1, 197587, Note_off_c, 8, 56, 127
1, 197590, Note_on_c, 1, 49, 127
1, 197765, Note_off_c, 1, 73, 127
1, 197765, Note_off_c, 4, 64, 127
1, 197766, Note_off_c, 1, 49, 127
1, 197768, Note_on_c, 10, 57, 127
1, 197768, Note_on_c, 6, 66, 127
1, 197768, Note_on_c, 3, 75, 127
1, 198121, Note_off_c, 3, 75, 127
1, 198121, Note_off_c, 6, 66, 127
1, 198121, Note_off_c, 10, 57, 127
1, 198124, Note_on_c, 8, 56, 127
1, 198124, Note_on_c, 8, 68, 127
1, 198124, Note_on_c, 5, 77, 127
1, 198477, Note_off_c, 5, 77, 127
1, 198477, Note_off_c, 8, 68, 127
1, 198477, Note_off_c, 8, 56, 127
1, 198480, Note_on_c, 6, 54, 127
1, 198480, Note_on_c, 10, 69, 127
1, 198480, Note_on_c, 6, 78, 127
1, 198656, Note_off_c, 10, 69, 127
1, 198658, Note_on_c, 6, 66, 127
1, 198834, Note_off_c, 6, 66, 127
1, 198834, Note_off_c, 6, 78, 127
1, 198834, Note_off_c, 6, 54, 127
1, 198837, Note_on_c, 4, 52, 127
1, 198837, Note_on_c, 1, 73, 127
1, 198837, Note_on_c, 8, 80, 127
1, 199190, Note_off_c, 8, 80, 127
1, 199190, Note_off_c, 4, 52, 127
1, 199193, Note_on_c, 3, 51, 127
1, 199193, Note_on_c, 6, 78, 127
1, 199546, Note_off_c, 1, 73, 127
1, 199549, Note_on_c, 0, 72, 127
1, 199725, Note_off_c, 3, 51, 127
1, 199727, Note_on_c, 1, 49, 127
1, 199903, Note_off_c, 1, 49, 127
1, 199903, Note_off_c, 0, 72, 127
1, 199903, Note_off_c, 6, 78, 127
1, 199906, Note_on_c, 1, 49, 127
1, 199906, Note_on_c, 1, 73, 127
1, 199906, Note_on_c, 5, 77, 127
1, 200082, Note_off_c, 1, 73, 127
1, 200084, Note_on_c, 8, 68, 127
1, 200260, Note_off_c, 8, 68, 127
1, 200260, Note_off_c, 5, 77, 127
1, 200260, Note_off_c, 1, 49, 127
1, 200263, Note_on_c, 1, 61, 127
1, 200263, Note_on_c, 11, 70, 127
1, 200263, Note_on_c, 4, 76, 127
1, 200439, Note_off_c, 1, 61, 127
1, 200441, Note_on_c, 6, 54, 127
1, 200617, Note_off_c, 6, 54, 127
1, 200617, Note_off_c, 4, 76, 127
1, 200617, Note_off_c, 11, 70, 127
1, 200620, Note_on_c, 12, 59, 127
1, 200620, Note_on_c, 12, 71, 127
1, 200620, Note_on_c, 3, 75, 127
1, 200796, Note_off_c, 12, 71, 127
1, 200798, Note_on_c, 6, 66, 127
1, 200974, Note_off_c, 6, 66, 127
1, 200974, Note_off_c, 3, 75, 127
1, 200974, Note_off_c, 12, 59, 127
1, 200977, Note_on_c, 12, 59, 127
1, 200977, Note_on_c, 8, 68, 127
1, 200977, Note_on_c, 2, 74, 127
1, 201153, Note_off_c, 12, 59, 127
1, 201155, Note_on_c, 4, 52, 127
1, 201331, Note_off_c, 4, 52, 127
1, 201331, Note_off_c, 2, 74, 127
1, 201331, Note_off_c, 8, 68, 127
1, 201334, Note_on_c, 10, 57, 127
1, 201334, Note_on_c, 10, 69, 127
1, 201334, Note_on_c, 1, 73, 127
1, 201510, Note_off_c, 10, 69, 127
1, 201512, Note_on_c, 4, 64, 127
1, 201688, Note_off_c, 4, 64, 127
1, 201688, Note_off_c, 1, 73, 127
1, 201688, Note_off_c, 10, 57, 127
1, 201691, Note_on_c, 10, 57, 127
1, 201691, Note_on_c, 10, 69, 127
1, 201691, Note_on_c, 1, 73, 127
1, 201867, Note_off_c, 10, 57, 127
1, 201869, Note_on_c, 1, 49, 127
1, 202045, Note_off_c, 1, 49, 127
1, 202045, Note_off_c, 1, 73, 127
1, 202048, Note_on_c, 3, 51, 127
1, 202048, Note_on_c, 0, 72, 127
1, 202224, Note_off_c, 10, 69, 127
1, 202226, Note_on_c, 3, 63, 127
1, 202402, Note_off_c, 3, 63, 127
1, 202402, Note_off_c, 0, 72, 127
1, 202402, Note_off_c, 3, 51, 127
1, 202405, Note_on_c, 5, 53, 127
1, 202405, Note_on_c, 8, 68, 127
1, 202405, Note_on_c, 12, 71, 127
1, 202581, Note_off_c, 5, 53, 127
1, 202583, Note_on_c, 1, 49, 127
1, 202759, Note_off_c, 1, 49, 127
1, 202759, Note_off_c, 12, 71, 127
1, 202762, Note_on_c, 6, 54, 127
1, 202762, Note_on_c, 11, 70, 127
1, 202938, Note_off_c, 8, 68, 127
1, 202940, Note_on_c, 1, 61, 127
1, 203116, Note_off_c, 1, 61, 127
1, 203116, Note_off_c, 11, 70, 127
1, 203116, Note_off_c, 6, 54, 127
1, 203119, Note_on_c, 2, 50, 127
1, 203119, Note_on_c, 6, 66, 127
1, 203119, Note_on_c, 10, 69, 127
1, 203295, Note_off_c, 2, 50, 127
1, 203297, Note_on_c, 10, 45, 127
1, 203473, Note_off_c, 10, 45, 127
1, 203473, Note_off_c, 10, 69, 127
1, 203476, Note_on_c, 12, 47, 127
1, 203476, Note_on_c, 8, 68, 127
1, 203652, Note_off_c, 12, 47, 127
1, 203654, Note_on_c, 8, 44, 127
1, 203830, Note_off_c, 8, 44, 127
1, 203830, Note_off_c, 8, 68, 127
1, 203830, Note_off_c, 6, 66, 127
1, 203833, Note_on_c, 1, 49, 127
1, 203833, Note_on_c, 5, 65, 127
1, 203833, Note_on_c, 8, 68, 127
1, 204186, Note_off_c, 8, 68, 127
1, 204186, Note_off_c, 5, 65, 127
1, 204186, Note_off_c, 1, 49, 127
1, 204189, Note_on_c, 6, 42, 127
1, 204189, Note_on_c, 6, 66, 127
1, 204542, Note_off_c, 6, 66, 127
1, 204545, Note_on_c, 2, 62, 127
1, 204545, Note_on_c, 6, 66, 127
1, 204721, Note_off_c, 6, 66, 127
1, 204723, Note_on_c, 8, 68, 127
1, 204899, Note_off_c, 8, 68, 127
1, 204899, Note_off_c, 2, 62, 127
1, 204902, Note_on_c, 1, 61, 127
1, 204902, Note_on_c, 10, 69, 127
1, 205078, Note_off_c, 1, 61, 127
1, 205080, Note_on_c, 2, 62, 127
1, 205256, Note_off_c, 2, 62, 127
1, 205256, Note_off_c, 10, 69, 127
1, 205256, Note_off_c, 6, 42, 127
1, 205259, Note_on_c, 1, 61, 127
1, 205259, Note_on_c, 10, 69, 127
1, 205435, Note_off_c, 10, 69, 127
1, 205435, Note_off_c, 1, 61, 127
1, 205437, Note_on_c, 12, 59, 127
1, 205437, Note_on_c, 12, 71, 127
1, 205613, Note_off_c, 12, 71, 127
1, 205613, Note_off_c, 12, 59, 127
1, 205616, Note_on_c, 10, 57, 127
1, 205616, Note_on_c, 1, 73, 127
1, 205969, Note_off_c, 1, 73, 127
1, 205969, Note_off_c, 10, 57, 127
1, 205972, Note_on_c, 6, 54, 127
1, 205972, Note_on_c, 1, 61, 127
1, 205972, Note_on_c, 10, 69, 127
1, 206138, Note_off_c, 6, 54, 127
1, 206148, Note_off_c, 1, 61, 127
1, 206150, Note_on_c, 6, 54, 127
1, 206326, Note_off_c, 6, 54, 127
1, 206326, Note_off_c, 10, 69, 127
1, 206329, Note_on_c, 8, 56, 127
1, 206329, Note_on_c, 2, 62, 127
1, 206329, Note_on_c, 12, 71, 127
1, 206682, Note_off_c, 12, 71, 127
1, 206682, Note_off_c, 2, 62, 127
1, 206682, Note_off_c, 8, 56, 127
1, 206685, Note_on_c, 11, 58, 127
1, 206685, Note_on_c, 1, 61, 127
1, 206685, Note_on_c, 1, 73, 127
1, 207038, Note_off_c, 1, 73, 127
1, 207038, Note_off_c, 1, 61, 127
1, 207038, Note_off_c, 11, 58, 127
1, 207041, Note_on_c, 12, 59, 127
1, 207041, Note_on_c, 2, 74, 127
1, 207217, Note_off_c, 2, 74, 127
1, 207219, Note_on_c, 12, 71, 127
1, 207395, Note_off_c, 12, 71, 127
1, 207395, Note_off_c, 12, 59, 127
1, 207398, Note_on_c, 10, 57, 127
1, 207398, Note_on_c, 1, 61, 127
1, 207398, Note_on_c, 6, 78, 127
1, 207751, Note_off_c, 1, 61, 127
1, 207751, Note_off_c, 10, 57, 127
1, 207754, Note_on_c, 8, 56, 127
1, 207754, Note_on_c, 12, 59, 127
1, 208107, Note_off_c, 8, 56, 127
1, 208109, Note_on_c, 1, 49, 127
1, 208286, Note_off_c, 6, 78, 127
1, 208288, Note_on_c, 5, 77, 127
1, 208463, Note_off_c, 1, 49, 127
1, 208464, Note_off_c, 5, 77, 127
1, 208464, Note_off_c, 12, 59, 127
1, 208466, Note_on_c, 6, 54, 127
1, 208466, Note_on_c, 11, 58, 127
1, 208466, Note_on_c, 6, 78, 127
1, 208642, Note_off_c, 6, 78, 127
1, 208645, Note_on_c, 1, 73, 127
1, 208820, Note_off_c, 11, 58, 127
1, 208820, Note_off_c, 6, 54, 127
1, 208821, Note_off_c, 1, 73, 127
1, 208823, Note_on_c, 6, 54, 127
1, 208823, Note_on_c, 10, 57, 127
1, 208823, Note_on_c, 3, 75, 127
1, 208999, Note_off_c, 6, 54, 127
1, 209002, Note_on_c, 12, 47, 127
1, 209177, Note_off_c, 3, 75, 127
1, 209177, Note_off_c, 10, 57, 127
1, 209178, Note_off_c, 12, 47, 127
1, 209180, Note_on_c, 4, 52, 127
1, 209180, Note_on_c, 8, 56, 127
1, 209180, Note_on_c, 4, 76, 127
1, 209356, Note_off_c, 4, 76, 127
1, 209359, Note_on_c, 12, 71, 127
1, 209534, Note_off_c, 8, 56, 127
1, 209534, Note_off_c, 4, 52, 127
1, 209535, Note_off_c, 12, 71, 127
1, 209537, Note_on_c, 4, 52, 127
1, 209537, Note_on_c, 7, 55, 127
1, 209537, Note_on_c, 1, 73, 127
1, 209713, Note_off_c, 4, 52, 127
1, 209716, Note_on_c, 10, 45, 127
1, 209891, Note_off_c, 1, 73, 127
1, 209891, Note_off_c, 7, 55, 127
1, 209892, Note_off_c, 10, 45, 127
1, 209894, Note_on_c, 2, 50, 127
1, 209894, Note_on_c, 6, 54, 127
1, 209894, Note_on_c, 2, 74, 127
1, 210070, Note_off_c, 2, 74, 127
1, 210073, Note_on_c, 10, 69, 127
1, 210248, Note_off_c, 6, 54, 127
1, 210248, Note_off_c, 2, 50, 127
1, 210249, Note_off_c, 10, 69, 127
1, 210251, Note_on_c, 2, 50, 127
1, 210251, Note_on_c, 6, 66, 127
1, 210251, Note_on_c, 2, 74, 127
1, 210427, Note_off_c, 2, 50, 127
1, 210430, Note_on_c, 6, 42, 127
1, 210605, Note_off_c, 6, 66, 127
1, 210606, Note_off_c, 6, 42, 127
1, 210608, Note_on_c, 8, 44, 127
1, 210608, Note_on_c, 5, 65, 127
1, 210784, Note_off_c, 2, 74, 127
1, 210787, Note_on_c, 8, 68, 127
1, 210962, Note_off_c, 5, 65, 127
1, 210962, Note_off_c, 8, 44, 127
1, 210963, Note_off_c, 8, 68, 127
1, 210965, Note_on_c, 11, 46, 127
1, 210965, Note_on_c, 4, 64, 127
1, 210965, Note_on_c, 1, 73, 127
1, 211141, Note_off_c, 11, 46, 127
1, 211144, Note_on_c, 6, 42, 127
1, 211319, Note_off_c, 4, 64, 127
1, 211320, Note_off_c, 6, 42, 127
1, 211322, Note_on_c, 12, 47, 127
1, 211322, Note_on_c, 3, 63, 127
1, 211498, Note_off_c, 1, 73, 127
1, 211501, Note_on_c, 6, 66, 127
1, 211676, Note_off_c, 3, 63, 127
1, 211676, Note_off_c, 12, 47, 127
1, 211677, Note_off_c, 6, 66, 127
1, 211679, Note_on_c, 2, 50, 127
1, 211679, Note_on_c, 2, 62, 127
1, 211679, Note_on_c, 12, 71, 127
1, 211855, Note_off_c, 2, 50, 127
1, 211858, Note_on_c, 12, 47, 127
1, 212033, Note_off_c, 2, 62, 127
1, 212034, Note_off_c, 12, 47, 127
1, 212036, Note_on_c, 4, 52, 127
1, 212036, Note_on_c, 1, 61, 127
1, 212212, Note_off_c, 4, 52, 127
1, 212215, Note_on_c, 1, 49, 127
1, 212390, Note_off_c, 1, 61, 127
1, 212390, Note_off_c, 12, 71, 127
1, 212391, Note_off_c, 1, 49, 127
1, 212393, Note_on_c, 6, 54, 127
1, 212393, Note_on_c, 1, 61, 127
1, 212393, Note_on_c, 11, 70, 127
1, 212689, Note_off_c, 11, 70, 127
1, 212746, Note_off_c, 1, 61, 127
1, 212749, Note_on_c, 3, 63, 127
1, 212749, Note_on_c, 0, 72, 127
1, 212925, Note_off_c, 0, 72, 127
1, 212928, Note_on_c, 8, 68, 127
1, 213103, Note_off_c, 3, 63, 127
1, 213103, Note_off_c, 6, 54, 127
1, 213104, Note_off_c, 8, 68, 127
1, 213106, Note_on_c, 4, 52, 127
1, 213106, Note_on_c, 4, 64, 127
1, 213106, Note_on_c, 1, 73, 127
1, 213282, Note_off_c, 4, 52, 127
1, 213285, Note_on_c, 1, 49, 127
1, 213460, Note_off_c, 4, 64, 127
1, 213461, Note_off_c, 1, 49, 127
1, 213463, Note_on_c, 6, 54, 127
1, 213463, Note_on_c, 3, 63, 127
1, 213639, Note_off_c, 6, 54, 127
1, 213642, Note_on_c, 3, 51, 127
1, 213817, Note_off_c, 3, 63, 127
1, 213817, Note_off_c, 1, 73, 127
1, 213818, Note_off_c, 3, 51, 127
1, 213820, Note_on_c, 8, 56, 127
1, 213820, Note_on_c, 3, 63, 127
1, 213820, Note_on_c, 12, 71, 127
1, 213996, Note_off_c, 8, 56, 127
1, 213999, Note_on_c, 3, 51, 127
1, 214174, Note_off_c, 3, 63, 127
1, 214175, Note_off_c, 3, 51, 127
1, 214177, Note_on_c, 5, 53, 127
1, 214177, Note_on_c, 1, 61, 127
1, 214353, Note_off_c, 5, 53, 127
1, 214356, Note_on_c, 1, 49, 127
1, 214531, Note_off_c, 1, 61, 127
1, 214531, Note_off_c, 12, 71, 127
1, 214532, Note_off_c, 1, 49, 127
1, 214534, Note_on_c, 6, 54, 127
1, 214534, Note_on_c, 1, 61, 127
1, 214534, Note_on_c, 10, 69, 127
1, 214710, Note_off_c, 6, 54, 127
1, 214713, Note_on_c, 10, 45, 127
1, 214889, Note_off_c, 10, 45, 127
1, 214891, Note_on_c, 12, 47, 127
1, 215067, Note_off_c, 10, 69, 127
1, 215070, Note_on_c, 3, 63, 127
1, 215245, Note_off_c, 12, 47, 127
1, 215245, Note_off_c, 1, 61, 127
1, 215246, Note_off_c, 3, 63, 127
1, 215248, Note_on_c, 8, 44, 127
1, 215248, Note_on_c, 12, 59, 127
1, 215248, Note_on_c, 8, 68, 127
1, 215424, Note_off_c, 8, 68, 127
1, 215427, Note_on_c, 3, 63, 127
1, 215602, Note_off_c, 12, 59, 127
1, 215602, Note_off_c, 8, 44, 127
1, 215603, Note_off_c, 3, 63, 127
1, 215605, Note_on_c, 1, 49, 127
1, 215605, Note_on_c, 12, 59, 127
1, 215605, Note_on_c, 5, 65, 127
1, 215783, Note_on_c, 1, 61, 127
1, 215871, Note_off_c, 5, 65, 127
1, 215979, Note_on_c, 10, 57, 127
1, 215979, Note_on_c, 1, 73, 127
1, 215988, Note_off_c, 12, 59, 127
1, 216134, Note_off_c, 1, 61, 127
1, 216154, Note_off_c, 1, 73, 127
1, 216157, Note_on_c, 6, 66, 127
1, 216332, Note_off_c, 10, 57, 127
1, 216333, Note_off_c, 6, 66, 127
1, 216335, Note_on_c, 8, 56, 127
1, 216335, Note_on_c, 12, 71, 127
1, 216511, Note_off_c, 12, 71, 127
1, 216514, Note_on_c, 5, 65, 127
1, 216670, Note_off_c, 1, 49, 127
1, 216689, Note_off_c, 8, 56, 127
1, 216690, Note_off_c, 5, 65, 127
1, 216692, Note_on_c, 0, 48, 127
1, 216692, Note_on_c, 6, 54, 127
1, 216692, Note_on_c, 10, 69, 127
1, 216868, Note_off_c, 10, 69, 127
1, 216871, Note_on_c, 3, 63, 127
1, 217046, Note_off_c, 6, 54, 127
1, 217046, Note_off_c, 0, 48, 127
1, 217047, Note_off_c, 3, 63, 127
1, 217049, Note_on_c, 1, 49, 127
1, 217049, Note_on_c, 5, 53, 127
1, 217049, Note_on_c, 8, 68, 127
1, 217270, Note_on_c, 1, 61, 127
1, 217323, Note_off_c, 8, 68, 127
1, 217381, Note_off_c, 5, 53, 127
1, 217381, Note_off_c, 1, 49, 127
1, 217466, Note_on_c, 4, 76, 127
1, 217466, Note_on_c, 1, 73, 127
1, 217536, Note_off_c, 1, 61, 127
1, 217642, Note_off_c, 1, 73, 127
1, 217657, Note_on_c, 8, 68, 127
1, 217833, Note_off_c, 8, 68, 127
1, 217836, Note_on_c, 11, 70, 127
1, 218012, Note_off_c, 11, 70, 127
1, 218014, Note_on_c, 6, 66, 127
1, 218190, Note_off_c, 6, 66, 127
1, 218193, Note_on_c, 12, 71, 127
1, 218356, Note_off_c, 4, 76, 127
1, 218371, Note_on_c, 2, 74, 127
1, 218547, Note_off_c, 2, 74, 127
1, 218550, Note_on_c, 1, 73, 127
1, 218726, Note_off_c, 12, 71, 127
1, 218728, Note_on_c, 10, 69, 127
1, 218924, Note_on_c, 8, 68, 127
1, 218924, Note_on_c, 6, 78, 127
1, 218928, Note_off_c, 10, 69, 127
1, 218934, Note_off_c, 1, 73, 127
1, 219100, Note_off_c, 8, 68, 127
1, 219103, Note_on_c, 6, 66, 127
1, 219279, Note_off_c, 6, 66, 127
1, 219281, Note_on_c, 8, 68, 127
1, 219457, Note_off_c, 8, 68, 127
1, 219460, Note_on_c, 1, 61, 127
1, 219636, Note_off_c, 1, 61, 127
1, 219638, Note_on_c, 1, 73, 127
1, 219814, Note_off_c, 6, 78, 127
1, 219817, Note_on_c, 4, 76, 127
1, 219993, Note_off_c, 4, 76, 127
1, 219995, Note_on_c, 3, 75, 127
1, 220173, Note_on_c, 12, 71, 127
1, 220185, Note_off_c, 1, 73, 127
1, 220369, Note_on_c, 11, 70, 127
1, 220369, Note_on_c, 8, 80, 127
1, 220373, Note_off_c, 12, 71, 127
1, 220377, Note_off_c, 3, 75, 127
1, 220546, Note_off_c, 11, 70, 127
1, 220549, Note_on_c, 8, 68, 127
1, 220725, Note_off_c, 8, 68, 127
1, 220727, Note_on_c, 11, 70, 127
1, 220903, Note_off_c, 11, 70, 127
1, 220906, Note_on_c, 3, 63, 127
1, 221081, Note_off_c, 8, 80, 127
1, 221082, Note_off_c, 3, 63, 127
1, 221084, Note_on_c, 3, 75, 127
1, 221084, Note_on_c, 6, 78, 127
1, 221260, Note_off_c, 3, 75, 127
1, 221263, Note_on_c, 11, 70, 127
1, 221439, Note_off_c, 11, 70, 127
1, 221441, Note_on_c, 0, 72, 127
1, 221617, Note_off_c, 0, 72, 127
1, 221620, Note_on_c, 8, 68, 127
1, 221795, Note_off_c, 6, 78, 127
1, 221796, Note_off_c, 8, 68, 127
1, 221798, Note_on_c, 1, 73, 127
1, 221798, Note_on_c, 4, 76, 127
1, 221964, Note_off_c, 1, 73, 127
1, 221974, Note_off_c, 4, 76, 127
1, 221977, Note_on_c, 1, 73, 127
1, 222154, Note_on_c, 6, 78, 127
1, 222330, Note_off_c, 6, 78, 127
1, 222333, Note_on_c, 3, 75, 127
1, 222495, Note_off_c, 1, 73, 127
1, 222508, Note_off_c, 3, 75, 127
1, 222510, Note_on_c, 0, 72, 127
1, 222510, Note_on_c, 8, 80, 127
1, 222686, Note_off_c, 8, 80, 127
1, 222689, Note_on_c, 3, 75, 127
1, 222864, Note_off_c, 0, 72, 127
1, 222865, Note_off_c, 3, 75, 127
1, 222867, Note_on_c, 1, 73, 127
1, 222867, Note_on_c, 4, 76, 127
1, 223220, Note_off_c, 1, 73, 127
1, 223253, Note_on_c, 10, 69, 127
1, 223253, Note_on_c, 1, 49, 127
1, 223400, Note_off_c, 4, 76, 127
1, 223428, Note_off_c, 1, 49, 127
1, 223430, Note_on_c, 3, 51, 127
1, 223606, Note_off_c, 3, 51, 127
1, 223606, Note_off_c, 10, 69, 127
1, 223609, Note_on_c, 8, 68, 127
1, 223609, Note_on_c, 4, 52, 127
1, 223785, Note_off_c, 8, 68, 127
1, 223787, Note_on_c, 10, 69, 127
1, 223963, Note_off_c, 10, 69, 127
1, 223963, Note_off_c, 4, 52, 127
1, 223966, Note_on_c, 8, 68, 127
1, 223966, Note_on_c, 4, 52, 127
1, 224142, Note_off_c, 4, 52, 127
1, 224142, Note_off_c, 8, 68, 127
1, 224144, Note_on_c, 6, 66, 127
1, 224144, Note_on_c, 6, 54, 127
1, 224320, Note_off_c, 6, 54, 127
1, 224320, Note_off_c, 6, 66, 127
1, 224323, Note_on_c, 4, 64, 127
1, 224323, Note_on_c, 8, 56, 127
1, 224676, Note_off_c, 8, 56, 127
1, 224678, Note_on_c, 8, 80, 127
1, 224678, Note_on_c, 1, 61, 127
1, 224678, Note_on_c, 4, 52, 127
1, 224854, Note_off_c, 8, 80, 127
1, 224857, Note_on_c, 1, 73, 127
1, 225027, Note_off_c, 4, 64, 127
1, 225031, Note_off_c, 4, 52, 127
1, 225031, Note_off_c, 1, 61, 127
1, 225032, Note_off_c, 1, 73, 127
1, 225034, Note_on_c, 10, 81, 127
1, 225034, Note_on_c, 3, 63, 127
1, 225034, Note_on_c, 6, 54, 127
1, 225387, Note_off_c, 6, 54, 127
1, 225387, Note_off_c, 3, 63, 127
1, 225387, Note_off_c, 10, 81, 127
1, 225390, Note_on_c, 8, 80, 127
1, 225390, Note_on_c, 4, 64, 127
1, 225390, Note_on_c, 8, 56, 127
1, 225743, Note_off_c, 8, 56, 127
1, 225743, Note_off_c, 4, 64, 127
1, 225743, Note_off_c, 8, 80, 127
1, 225746, Note_on_c, 6, 78, 127
1, 225746, Note_on_c, 6, 66, 127
1, 225746, Note_on_c, 10, 57, 127
1, 225922, Note_off_c, 10, 57, 127
1, 225925, Note_on_c, 6, 54, 127
1, 226100, Note_off_c, 6, 66, 127
1, 226100, Note_off_c, 6, 78, 127
1, 226101, Note_off_c, 6, 54, 127
1, 226103, Note_on_c, 4, 76, 127
1, 226103, Note_on_c, 8, 68, 127
1, 226103, Note_on_c, 1, 61, 127
1, 226456, Note_off_c, 8, 68, 127
1, 226456, Note_off_c, 4, 76, 127
1, 226459, Note_on_c, 4, 76, 127
1, 226459, Note_on_c, 6, 66, 127
1, 226546, Note_off_c, 4, 76, 127
1, 226549, Note_on_c, 3, 75, 127
1, 226636, Note_off_c, 3, 75, 127
1, 226638, Note_on_c, 4, 76, 127
1, 226725, Note_off_c, 4, 76, 127
1, 226727, Note_on_c, 3, 75, 127
1, 226813, Note_off_c, 1, 61, 127
1, 226816, Note_on_c, 0, 60, 127
1, 226992, Note_off_c, 3, 75, 127
1, 226995, Note_on_c, 1, 73, 127
1, 227170, Note_off_c, 0, 60, 127
1, 227170, Note_off_c, 6, 66, 127
1, 227171, Note_off_c, 1, 73, 127
1, 227173, Note_on_c, 1, 73, 127
1, 227173, Note_on_c, 4, 64, 127
1, 227173, Note_on_c, 1, 61, 127
1, 227526, Note_off_c, 4, 64, 127
1, 227526, Note_off_c, 1, 73, 127
1, 227559, Note_on_c, 1, 73, 127
1, 227559, Note_on_c, 4, 76, 127
1, 227704, Note_off_c, 1, 61, 127
1, 227736, Note_on_c, 12, 59, 127
1, 227912, Note_off_c, 12, 59, 127
1, 227915, Note_on_c, 11, 58, 127
1, 228091, Note_off_c, 11, 58, 127
1, 228093, Note_on_c, 6, 54, 127
1, 228269, Note_off_c, 6, 54, 127
1, 228269, Note_off_c, 4, 76, 127
1, 228272, Note_on_c, 12, 59, 127
1, 228272, Note_on_c, 2, 74, 127
1, 228448, Note_off_c, 1, 73, 127
1, 228450, Note_on_c, 6, 66, 127
1, 228626, Note_off_c, 6, 66, 127
1, 228629, Note_on_c, 12, 71, 127
1, 228805, Note_off_c, 12, 59, 127
1, 228807, Note_on_c, 10, 57, 127
1, 228983, Note_off_c, 10, 57, 127
1, 228983, Note_off_c, 2, 74, 127
1, 228986, Note_on_c, 8, 56, 127
1, 228986, Note_on_c, 2, 74, 127
1, 229162, Note_off_c, 8, 56, 127
1, 229164, Note_on_c, 4, 52, 127
1, 229340, Note_off_c, 4, 52, 127
1, 229340, Note_off_c, 2, 74, 127
1, 229343, Note_on_c, 10, 57, 127
1, 229343, Note_on_c, 1, 73, 127
1, 229519, Note_off_c, 12, 71, 127
1, 229521, Note_on_c, 4, 64, 127
1, 229697, Note_off_c, 4, 64, 127
1, 229700, Note_on_c, 10, 69, 127
1, 229876, Note_off_c, 10, 57, 127
1, 229878, Note_on_c, 8, 56, 127
1, 230054, Note_off_c, 8, 56, 127
1, 230057, Note_on_c, 6, 54, 127
1, 230233, Note_off_c, 6, 54, 127
1, 230235, Note_on_c, 4, 52, 127
1, 230411, Note_off_c, 4, 52, 127
1, 230411, Note_off_c, 1, 73, 127
1, 230414, Note_on_c, 2, 50, 127
1, 230414, Note_on_c, 6, 78, 127
1, 230590, Note_off_c, 6, 78, 127
1, 230590, Note_off_c, 2, 50, 127
1, 230592, Note_on_c, 1, 49, 127
1, 230592, Note_on_c, 4, 76, 127
1, 230768, Note_off_c, 4, 76, 127
1, 230768, Note_off_c, 1, 49, 127
1, 230771, Note_on_c, 12, 47, 127
1, 230771, Note_on_c, 2, 74, 127
1, 230947, Note_off_c, 10, 69, 127
1, 230949, Note_on_c, 8, 68, 127
1, 231125, Note_off_c, 8, 68, 127
1, 231125, Note_off_c, 2, 74, 127
1, 231125, Note_off_c, 12, 47, 127
1, 231128, Note_on_c, 10, 45, 127
1, 231128, Note_on_c, 10, 69, 127
1, 231128, Note_on_c, 1, 73, 127
1, 231304, Note_off_c, 10, 69, 127
1, 231306, Note_on_c, 4, 64, 127
1, 231482, Note_off_c, 1, 73, 127
1, 231482, Note_off_c, 10, 45, 127
1, 231485, Note_on_c, 2, 50, 127
1, 231485, Note_on_c, 6, 66, 127
1, 231660, Note_off_c, 4, 64, 127
1, 231661, Note_off_c, 6, 66, 127
1, 231661, Note_off_c, 2, 50, 127
1, 231663, Note_on_c, 4, 52, 127
1, 231663, Note_on_c, 2, 62, 127
1, 231663, Note_on_c, 8, 68, 127
1, 231839, Note_off_c, 8, 68, 127
1, 231839, Note_off_c, 2, 62, 127
1, 231839, Note_off_c, 4, 52, 127
1, 231842, Note_on_c, 6, 54, 127
1, 231842, Note_on_c, 1, 61, 127
1, 231842, Note_on_c, 10, 69, 127
1, 232018, Note_off_c, 6, 54, 127
1, 232020, Note_on_c, 1, 49, 127
1, 232196, Note_off_c, 1, 49, 127
1, 232196, Note_off_c, 1, 61, 127
1, 232199, Note_on_c, 2, 50, 127
1, 232199, Note_on_c, 12, 59, 127
1, 232375, Note_off_c, 2, 50, 127
1, 232377, Note_on_c, 12, 47, 127
1, 232553, Note_off_c, 12, 47, 127
1, 232553, Note_off_c, 10, 69, 127
1, 232556, Note_on_c, 4, 52, 127
1, 232556, Note_on_c, 8, 68, 127
1, 232732, Note_off_c, 4, 52, 127
1, 232734, Note_on_c, 4, 40, 127
1, 232910, Note_off_c, 4, 40, 127
1, 232910, Note_off_c, 8, 68, 127
1, 232910, Note_off_c, 12, 59, 127
1, 232913, Note_on_c, 10, 45, 127
1, 232913, Note_on_c, 1, 61, 127
1, 232913, Note_on_c, 10, 69, 127
1, 233266, Note_off_c, 1, 61, 127
1, 233291, Note_on_c, 6, 54, 127
1, 233291, Note_on_c, 10, 57, 127
1, 233467, Note_off_c, 10, 57, 127
1, 233476, Note_on_c, 12, 59, 127
1, 233645, Note_off_c, 6, 54, 127
1, 233652, Note_off_c, 12, 59, 127
1, 233655, Note_on_c, 1, 61, 127
1, 233655, Note_on_c, 4, 52, 127
1, 233831, Note_off_c, 4, 52, 127
1, 233833, Note_on_c, 6, 54, 127
1, 233979, Note_off_c, 10, 45, 127
1, 234008, Note_off_c, 6, 54, 127
1, 234008, Note_off_c, 1, 61, 127
1, 234011, Note_on_c, 1, 61, 127
1, 234011, Note_on_c, 4, 52, 127
1, 234187, Note_off_c, 4, 52, 127
1, 234187, Note_off_c, 1, 61, 127
1, 234189, Note_on_c, 2, 62, 127
1, 234189, Note_on_c, 2, 50, 127
1, 234335, Note_off_c, 10, 69, 127
1, 234364, Note_off_c, 2, 50, 127
1, 234364, Note_off_c, 2, 62, 127
1, 234367, Note_on_c, 4, 64, 127
1, 234367, Note_on_c, 1, 49, 127
1, 234720, Note_off_c, 1, 49, 127
1, 234720, Note_off_c, 4, 64, 127
1, 234723, Note_on_c, 4, 76, 127
1, 234723, Note_on_c, 4, 64, 127
1, 234723, Note_on_c, 1, 61, 127
1, 234899, Note_off_c, 4, 76, 127
1, 234901, Note_on_c, 10, 69, 127
1, 235077, Note_off_c, 10, 69, 127
1, 235077, Note_off_c, 1, 61, 127
1, 235077, Note_off_c, 4, 64, 127
1, 235080, Note_on_c, 6, 78, 127
1, 235080, Note_on_c, 2, 62, 127
1, 235433, Note_off_c, 2, 62, 127
1, 235433, Note_off_c, 6, 78, 127
1, 235436, Note_on_c, 4, 76, 127
1, 235436, Note_on_c, 4, 64, 127
1, 235436, Note_on_c, 1, 61, 127
1, 235789, Note_off_c, 1, 61, 127
1, 235789, Note_off_c, 4, 64, 127
1, 235789, Note_off_c, 4, 76, 127
1, 235792, Note_on_c, 2, 74, 127
1, 235792, Note_on_c, 6, 66, 127
1, 235792, Note_on_c, 12, 59, 127
1, 235968, Note_off_c, 6, 66, 127
1, 235970, Note_on_c, 2, 62, 127
1, 236146, Note_off_c, 2, 62, 127
1, 236146, Note_off_c, 12, 59, 127
1, 236146, Note_off_c, 2, 74, 127
1, 236149, Note_on_c, 1, 73, 127
1, 236149, Note_on_c, 10, 69, 127
1, 236149, Note_on_c, 1, 61, 127
1, 236502, Note_off_c, 1, 61, 127
1, 236502, Note_off_c, 1, 73, 127
1, 236505, Note_on_c, 12, 71, 127
1, 236505, Note_on_c, 2, 62, 127
1, 236858, Note_off_c, 2, 62, 127
1, 236858, Note_off_c, 10, 69, 127
1, 236861, Note_on_c, 8, 68, 127
1, 236861, Note_on_c, 4, 64, 127
1, 237037, Note_off_c, 12, 71, 127
1, 237054, Note_on_c, 10, 69, 127
1, 237215, Note_off_c, 4, 64, 127
1, 237215, Note_off_c, 8, 68, 127
1, 237230, Note_off_c, 10, 69, 127
1, 237240, Note_on_c, 10, 57, 127
1, 237242, Note_on_c, 10, 69, 127
1, 237425, Note_on_c, 4, 64, 127
1, 237594, Note_off_c, 10, 57, 127
1, 237601, Note_off_c, 4, 64, 127
1, 237604, Note_on_c, 10, 45, 127
1, 237604, Note_on_c, 1, 61, 127
1, 237773, Note_off_c, 10, 69, 127
1, 237782, Note_on_c, 10, 69, 127
1, 237958, Note_off_c, 1, 61, 127
1, 237958, Note_off_c, 10, 45, 127
1, 237961, Note_on_c, 12, 47, 127
1, 237961, Note_on_c, 2, 62, 127
1, 238049, Note_off_c, 10, 69, 127
1, 238139, Note_on_c, 8, 68, 127
1, 238315, Note_off_c, 2, 62, 127
1, 238315, Note_off_c, 12, 47, 127
1, 238318, Note_on_c, 1, 49, 127
1, 238318, Note_on_c, 4, 64, 127
1, 238493, Note_off_c, 8, 68, 127
1, 238496, Note_on_c, 10, 69, 127
1, 238672, Note_off_c, 10, 69, 127
1, 238672, Note_off_c, 1, 49, 127
1, 238675, Note_on_c, 2, 50, 127
1, 238675, Note_on_c, 6, 66, 127
1, 238851, Note_off_c, 4, 64, 127
1, 238861, Note_on_c, 2, 62, 127
1, 239029, Note_off_c, 6, 66, 127
1, 239029, Note_off_c, 2, 50, 127
1, 239047, Note_on_c, 12, 47, 127
1, 239047, Note_on_c, 12, 71, 127
1, 239215, Note_off_c, 2, 62, 127
1, 239233, Note_on_c, 3, 63, 127
1, 239401, Note_off_c, 12, 47, 127
1, 239409, Note_off_c, 3, 63, 127
1, 239411, Note_on_c, 1, 49, 127
1, 239411, Note_on_c, 4, 64, 127
1, 239580, Note_off_c, 12, 71, 127
1, 239590, Note_on_c, 10, 69, 127
1, 239765, Note_off_c, 4, 64, 127
1, 239765, Note_off_c, 1, 49, 127
1, 239768, Note_on_c, 3, 51, 127
1, 239768, Note_on_c, 6, 66, 127
1, 239944, Note_off_c, 10, 69, 127
1, 239947, Note_on_c, 12, 71, 127
1, 240122, Note_off_c, 3, 51, 127
1, 240123, Note_off_c, 12, 71, 127
1, 240125, Note_on_c, 4, 52, 127
1, 240125, Note_on_c, 8, 68, 127
1, 240299, Note_on_c, 4, 64, 127
1, 240301, Note_off_c, 6, 66, 127
1, 240478, Note_off_c, 8, 68, 127
1, 240478, Note_off_c, 4, 52, 127
1, 240496, Note_on_c, 1, 49, 127
1, 240496, Note_on_c, 4, 76, 127
1, 240652, Note_off_c, 4, 64, 127
1, 240680, Note_on_c, 8, 68, 127
1, 240849, Note_off_c, 1, 49, 127
1, 240856, Note_off_c, 8, 68, 127
1, 240859, Note_on_c, 6, 54, 127
1, 240859, Note_on_c, 10, 69, 127
1, 241028, Note_off_c, 4, 76, 127
1, 241037, Note_on_c, 2, 74, 127
1, 241213, Note_off_c, 10, 69, 127
1, 241213, Note_off_c, 6, 54, 127
1, 241216, Note_on_c, 8, 56, 127
1, 241216, Note_on_c, 12, 71, 127
1, 241391, Note_off_c, 2, 74, 127
1, 241394, Note_on_c, 4, 76, 127
1, 241570, Note_off_c, 4, 76, 127
1, 241570, Note_off_c, 8, 56, 127
1, 241573, Note_on_c, 10, 57, 127
1, 241573, Note_on_c, 1, 73, 127
1, 241749, Note_off_c, 12, 71, 127
1, 241751, Note_on_c, 10, 69, 127
1, 241927, Note_off_c, 1, 73, 127
1, 241927, Note_off_c, 10, 57, 127
1, 241930, Note_on_c, 6, 54, 127
1, 241930, Note_on_c, 2, 74, 127
1, 242105, Note_off_c, 10, 69, 127
1, 242108, Note_on_c, 10, 69, 127
1, 242284, Note_off_c, 2, 74, 127
1, 242284, Note_off_c, 6, 54, 127
1, 242287, Note_on_c, 8, 56, 127
1, 242287, Note_on_c, 12, 71, 127
1, 242462, Note_off_c, 10, 69, 127
1, 242465, Note_on_c, 8, 68, 127
1, 242620, Note_off_c, 12, 71, 127
1, 242640, Note_off_c, 8, 56, 127
1, 242643, Note_on_c, 4, 52, 127
1, 242643, Note_on_c, 1, 73, 127
1, 242818, Note_off_c, 8, 68, 127
1, 242821, Note_on_c, 8, 68, 127
1, 242997, Note_off_c, 1, 73, 127
1, 242997, Note_off_c, 4, 52, 127
1, 243000, Note_on_c, 6, 54, 127
1, 243000, Note_on_c, 10, 69, 127
1, 243175, Note_off_c, 8, 68, 127
1, 243178, Note_on_c, 6, 66, 127
1, 243333, Note_off_c, 10, 69, 127
1, 243353, Note_off_c, 6, 54, 127
1, 243356, Note_on_c, 3, 51, 127
1, 243356, Note_on_c, 12, 71, 127
1, 243531, Note_off_c, 6, 66, 127
1, 243534, Note_on_c, 6, 66, 127
1, 243710, Note_off_c, 12, 71, 127
1, 243710, Note_off_c, 3, 51, 127
1, 243713, Note_on_c, 4, 52, 127
1, 243713, Note_on_c, 8, 68, 127
1, 243888, Note_off_c, 6, 66, 127
1, 243891, Note_on_c, 12, 59, 127
1, 244067, Note_off_c, 12, 59, 127
1, 244067, Note_off_c, 4, 52, 127
1, 244070, Note_on_c, 1, 49, 127
1, 244070, Note_on_c, 4, 64, 127
1, 244246, Note_off_c, 8, 68, 127
1, 244248, Note_on_c, 10, 69, 127
1, 244424, Note_off_c, 10, 69, 127
1, 244424, Note_off_c, 1, 49, 127
1, 244427, Note_on_c, 8, 44, 127
1, 244427, Note_on_c, 12, 71, 127
1, 244603, Note_off_c, 4, 64, 127
1, 244605, Note_on_c, 12, 59, 127
1, 244781, Note_off_c, 12, 59, 127
1, 244781, Note_off_c, 8, 44, 127
1, 244784, Note_on_c, 10, 45, 127
1, 244784, Note_on_c, 1, 61, 127
1, 244960, Note_off_c, 12, 71, 127
1, 244962, Note_on_c, 4, 64, 127
1, 245138, Note_off_c, 4, 64, 127
1, 245138, Note_off_c, 10, 45, 127
1, 245141, Note_on_c, 6, 42, 127
1, 245141, Note_on_c, 10, 69, 127
1, 245317, Note_off_c, 1, 61, 127
1, 245319, Note_on_c, 1, 61, 127
1, 245495, Note_off_c, 1, 61, 127
1, 245495, Note_off_c, 6, 42, 127
1, 245498, Note_on_c, 12, 47, 127
1, 245498, Note_on_c, 3, 63, 127
1, 245674, Note_off_c, 10, 69, 127
1, 245676, Note_on_c, 6, 66, 127
1, 245852, Note_off_c, 6, 66, 127
1, 245852, Note_off_c, 12, 47, 127
1, 245855, Note_on_c, 8, 44, 127
1, 245855, Note_on_c, 12, 71, 127
1, 246031, Note_off_c, 3, 63, 127
1, 246033, Note_on_c, 3, 63, 127
1, 246209, Note_off_c, 3, 63, 127
1, 246209, Note_off_c, 8, 44, 127
1, 246212, Note_on_c, 1, 49, 127
1, 246212, Note_on_c, 4, 64, 127
1, 246388, Note_off_c, 12, 71, 127
1, 246390, Note_on_c, 8, 68, 127
1, 246566, Note_off_c, 8, 68, 127
1, 246566, Note_off_c, 1, 49, 127
1, 246569, Note_on_c, 10, 45, 127
1, 246569, Note_on_c, 1, 73, 127
1, 246745, Note_off_c, 4, 64, 127
1, 246747, Note_on_c, 4, 64, 127
1, 246923, Note_off_c, 4, 64, 127
1, 246923, Note_off_c, 10, 45, 127
1, 246926, Note_on_c, 6, 54, 127
1, 246926, Note_on_c, 10, 69, 127
1, 247102, Note_off_c, 1, 73, 127
1, 247104, Note_on_c, 1, 73, 127
1, 247280, Note_off_c, 1, 73, 127
1, 247280, Note_off_c, 6, 54, 127
1, 247283, Note_on_c, 3, 51, 127
1, 247283, Note_on_c, 6, 78, 127
1, 247459, Note_off_c, 10, 69, 127
1, 247461, Note_on_c, 10, 69, 127
1, 247637, Note_off_c, 10, 69, 127
1, 247637, Note_off_c, 3, 51, 127
1, 247640, Note_on_c, 4, 52, 127
1, 247640, Note_on_c, 8, 68, 127
1, 247816, Note_off_c, 6, 78, 127
1, 247818, Note_on_c, 4, 76, 127
1, 247994, Note_off_c, 8, 68, 127
1, 247994, Note_off_c, 4, 52, 127
1, 247997, Note_on_c, 10, 45, 127
1, 247997, Note_on_c, 6, 66, 127
1, 248085, Note_off_c, 4, 76, 127
1, 248175, Note_on_c, 4, 76, 127
1, 248351, Note_off_c, 6, 66, 127
1, 248351, Note_off_c, 10, 45, 127
1, 248354, Note_on_c, 12, 47, 127
1, 248354, Note_on_c, 6, 66, 127
1, 248529, Note_off_c, 4, 76, 127
1, 248532, Note_on_c, 3, 75, 127
1, 248708, Note_off_c, 3, 75, 127
1, 248708, Note_off_c, 6, 66, 127
1, 248721, Note_off_c, 12, 47, 127
1, 248725, Note_on_c, 4, 76, 127
1, 248725, Note_on_c, 4, 40, 127
1, 248725, Note_on_c, 4, 64, 127
1, 249355, Note_off_c, 4, 64, 127
1, 249429, Note_off_c, 4, 40, 127
1, 249566, Note_off_c, 4, 76, 127
1, 249584, Note_on_c, 4, 76, 127
1, 249762, Note_on_c, 8, 80, 127
1, 249937, Note_off_c, 4, 76, 127
1, 249940, Note_on_c, 0, 72, 127
1, 250116, Note_off_c, 8, 80, 127
1, 250119, Note_on_c, 6, 78, 127
1, 250294, Note_off_c, 0, 72, 127
1, 250297, Note_on_c, 1, 73, 127
1, 250473, Note_off_c, 6, 78, 127
1, 250476, Note_on_c, 4, 76, 127
1, 250651, Note_off_c, 1, 73, 127
1, 250654, Note_on_c, 6, 66, 127
1, 250830, Note_off_c, 4, 76, 127
1, 250833, Note_on_c, 3, 75, 127
1, 251008, Note_off_c, 6, 66, 127
1, 251011, Note_on_c, 10, 69, 127
1, 251187, Note_off_c, 3, 75, 127
1, 251190, Note_on_c, 1, 73, 127
1, 251365, Note_off_c, 10, 69, 127
1, 251368, Note_on_c, 8, 68, 127
1, 251544, Note_off_c, 1, 73, 127
1, 251547, Note_on_c, 0, 72, 127
1, 251722, Note_off_c, 8, 68, 127
1, 251725, Note_on_c, 6, 66, 127
1, 251901, Note_off_c, 0, 72, 127
1, 251904, Note_on_c, 3, 75, 127
1, 252079, Note_off_c, 6, 66, 127
1, 252080, Note_off_c, 3, 75, 127
1, 252082, Note_on_c, 4, 64, 127
1, 252082, Note_on_c, 8, 68, 127
1, 252260, Note_on_c, 4, 52, 127
1, 252435, Note_off_c, 8, 68, 127
1, 252435, Note_off_c, 4, 64, 127
1, 252436, Note_off_c, 4, 52, 127
1, 252438, Note_on_c, 3, 51, 127
1, 252438, Note_on_c, 4, 64, 127
1, 252438, Note_on_c, 1, 73, 127
1, 252614, Note_off_c, 3, 51, 127
1, 252617, Note_on_c, 1, 49, 127
1, 252792, Note_off_c, 1, 73, 127
1, 252793, Note_off_c, 1, 49, 127
1, 252795, Note_on_c, 3, 51, 127
1, 252795, Note_on_c, 6, 66, 127
1, 252971, Note_off_c, 3, 51, 127
1, 252974, Note_on_c, 11, 46, 127
1, 253149, Note_off_c, 6, 66, 127
1, 253149, Note_off_c, 4, 64, 127
1, 253150, Note_off_c, 11, 46, 127
1, 253152, Note_on_c, 0, 48, 127
1, 253152, Note_on_c, 3, 63, 127
1, 253152, Note_on_c, 6, 66, 127
1, 253328, Note_off_c, 0, 48, 127
1, 253331, Note_on_c, 8, 44, 127
1, 253506, Note_off_c, 6, 66, 127
1, 253507, Note_off_c, 8, 44, 127
1, 253509, Note_on_c, 1, 49, 127
1, 253509, Note_on_c, 4, 64, 127
1, 253685, Note_off_c, 1, 49, 127
1, 253688, Note_on_c, 3, 51, 127
1, 253863, Note_off_c, 4, 64, 127
1, 253863, Note_off_c, 3, 63, 127
1, 253864, Note_off_c, 3, 51, 127
1, 253866, Note_on_c, 4, 52, 127
1, 253866, Note_on_c, 1, 61, 127
1, 253866, Note_on_c, 4, 64, 127
1, 254042, Note_off_c, 4, 52, 127
1, 254045, Note_on_c, 1, 49, 127
1, 254220, Note_off_c, 4, 64, 127
1, 254221, Note_off_c, 1, 49, 127
1, 254223, Note_on_c, 6, 54, 127
1, 254223, Note_on_c, 3, 63, 127
1, 254399, Note_off_c, 6, 54, 127
1, 254402, Note_on_c, 3, 51, 127
1, 254577, Note_off_c, 3, 63, 127
1, 254577, Note_off_c, 1, 61, 127
1, 254578, Note_off_c, 3, 51, 127
1, 254580, Note_on_c, 8, 56, 127
1, 254580, Note_on_c, 0, 60, 127
1, 254580, Note_on_c, 3, 63, 127
1, 254933, Note_off_c, 3, 63, 127
1, 254933, Note_off_c, 0, 60, 127
1, 254933, Note_off_c, 8, 56, 127
1, 254936, Note_on_c, 1, 49, 127
1, 254936, Note_on_c, 1, 61, 127
1, 255454, Note_off_c, 1, 49, 127
1, 255517, Note_on_c, 10, 69, 127
1, 255584, Note_off_c, 1, 61, 127
1, 255733, Note_on_c, 1, 73, 127
1, 255871, Note_off_c, 10, 69, 127
1, 255916, Note_on_c, 5, 65, 127
1, 256087, Note_off_c, 1, 73, 127
1, 256094, Note_on_c, 12, 71, 127
1, 256270, Note_off_c, 5, 65, 127
1, 256273, Note_on_c, 6, 66, 127
1, 256448, Note_off_c, 12, 71, 127
1, 256451, Note_on_c, 10, 69, 127
1, 256627, Note_off_c, 6, 66, 127
1, 256630, Note_on_c, 12, 59, 127
1, 256805, Note_off_c, 10, 69, 127
1, 256808, Note_on_c, 8, 68, 127
1, 256984, Note_off_c, 12, 59, 127
1, 256987, Note_on_c, 2, 62, 127
1, 257162, Note_off_c, 8, 68, 127
1, 257165, Note_on_c, 6, 66, 127
1, 257341, Note_off_c, 2, 62, 127
1, 257344, Note_on_c, 1, 61, 127
1, 257519, Note_off_c, 6, 66, 127
1, 257522, Note_on_c, 5, 65, 127
1, 257698, Note_off_c, 1, 61, 127
1, 257701, Note_on_c, 12, 59, 127
1, 257876, Note_off_c, 5, 65, 127
1, 257879, Note_on_c, 8, 68, 127
1, 258055, Note_off_c, 8, 68, 127
1, 258055, Note_off_c, 12, 59, 127
1, 258058, Note_on_c, 10, 57, 127
1, 258058, Note_on_c, 1, 61, 127
1, 258224, Note_off_c, 10, 57, 127
1, 258236, Note_on_c, 10, 57, 127
1, 258412, Note_off_c, 10, 57, 127
1, 258412, Note_off_c, 1, 61, 127
1, 258415, Note_on_c, 8, 56, 127
1, 258415, Note_on_c, 1, 61, 127
1, 258415, Note_on_c, 10, 69, 127
1, 258591, Note_off_c, 8, 56, 127
1, 258593, Note_on_c, 6, 54, 127
1, 258769, Note_off_c, 6, 54, 127
1, 258769, Note_off_c, 1, 61, 127
1, 258772, Note_on_c, 8, 56, 127
1, 258772, Note_on_c, 12, 59, 127
1, 258948, Note_off_c, 8, 56, 127
1, 258950, Note_on_c, 3, 51, 127
1, 259126, Note_off_c, 3, 51, 127
1, 259126, Note_off_c, 12, 59, 127
1, 259126, Note_off_c, 10, 69, 127
1, 259129, Note_on_c, 5, 53, 127
1, 259129, Note_on_c, 12, 59, 127
1, 259129, Note_on_c, 8, 68, 127
1, 259305, Note_off_c, 5, 53, 127
1, 259307, Note_on_c, 1, 49, 127
1, 259483, Note_off_c, 1, 49, 127
1, 259483, Note_off_c, 12, 59, 127
1, 259486, Note_on_c, 6, 54, 127
1, 259486, Note_on_c, 10, 57, 127
1, 259662, Note_off_c, 6, 54, 127
1, 259664, Note_on_c, 1, 49, 127
1, 259840, Note_off_c, 1, 49, 127
1, 259840, Note_off_c, 10, 57, 127
1, 259840, Note_off_c, 8, 68, 127
1, 259843, Note_on_c, 2, 50, 127
1, 259843, Note_on_c, 10, 57, 127
1, 259843, Note_on_c, 6, 66, 127
1, 260019, Note_off_c, 2, 50, 127
1, 260021, Note_on_c, 10, 45, 127
1, 260197, Note_off_c, 10, 45, 127
1, 260197, Note_off_c, 10, 57, 127
1, 260200, Note_on_c, 12, 47, 127
1, 260200, Note_on_c, 8, 56, 127
1, 260376, Note_off_c, 12, 47, 127
1, 260378, Note_on_c, 8, 44, 127
1, 260554, Note_off_c, 8, 44, 127
1, 260554, Note_off_c, 8, 56, 127
1, 260554, Note_off_c, 6, 66, 127
1, 260557, Note_on_c, 1, 49, 127
1, 260557, Note_on_c, 8, 56, 127
1, 260557, Note_on_c, 5, 65, 127
1, 260910, Note_off_c, 5, 65, 127
1, 260910, Note_off_c, 8, 56, 127
1, 260910, Note_off_c, 1, 49, 127
1, 260913, Note_on_c, 6, 42, 127
1, 260913, Note_on_c, 6, 54, 127
1, 260913, Note_on_c, 6, 66, 127
1, 261358, Note_off_c, 6, 66, 127
1, 261358, Note_on_c, 6, 66, 127
1, 261534, Note_off_c, 6, 66, 127
1, 261537, Note_on_c, 8, 68, 127
1, 261713, Note_off_c, 8, 68, 127
1, 261715, Note_on_c, 10, 69, 127
1, 261979, Note_off_c, 6, 54, 127
1, 262068, Note_off_c, 10, 69, 127
1, 262071, Note_on_c, 10, 69, 127
1, 262071, Note_on_c, 6, 66, 127
1, 262247, Note_off_c, 6, 66, 127
1, 262247, Note_off_c, 10, 69, 127
1, 262250, Note_on_c, 12, 71, 127
1, 262250, Note_on_c, 8, 68, 127
1, 262336, Note_off_c, 6, 42, 127
1, 262426, Note_off_c, 8, 68, 127
1, 262426, Note_off_c, 12, 71, 127
1, 262428, Note_on_c, 1, 73, 127
1, 262428, Note_on_c, 10, 69, 127
1, 262781, Note_off_c, 10, 69, 127
1, 262781, Note_off_c, 1, 73, 127
1, 262784, Note_on_c, 1, 73, 127
1, 262784, Note_on_c, 10, 69, 127
1, 262784, Note_on_c, 1, 49, 127
1, 262960, Note_off_c, 1, 49, 127
1, 262963, Note_on_c, 6, 42, 127
1, 263138, Note_off_c, 10, 69, 127
1, 263138, Note_off_c, 1, 73, 127
1, 263139, Note_off_c, 6, 42, 127
1, 263141, Note_on_c, 2, 74, 127
1, 263141, Note_on_c, 12, 71, 127
1, 263141, Note_on_c, 12, 47, 127
1, 263494, Note_off_c, 12, 47, 127
1, 263494, Note_off_c, 12, 71, 127
1, 263494, Note_off_c, 2, 74, 127
1, 263497, Note_on_c, 1, 73, 127
1, 263497, Note_on_c, 10, 69, 127
1, 263497, Note_on_c, 1, 49, 127
1, 263850, Note_off_c, 1, 49, 127
1, 263850, Note_off_c, 10, 69, 127
1, 263850, Note_off_c, 1, 73, 127
1, 263853, Note_on_c, 12, 71, 127
1, 263853, Note_on_c, 8, 68, 127
1, 263853, Note_on_c, 2, 50, 127
1, 264029, Note_off_c, 2, 50, 127
1, 264031, Note_on_c, 12, 47, 127
1, 264207, Note_off_c, 12, 47, 127
1, 264207, Note_off_c, 12, 71, 127
1, 264210, Note_on_c, 10, 69, 127
1, 264210, Note_on_c, 6, 54, 127
1, 264386, Note_off_c, 6, 54, 127
1, 264386, Note_off_c, 8, 68, 127
1, 264388, Note_on_c, 6, 66, 127
1, 264388, Note_on_c, 10, 45, 127
1, 264564, Note_off_c, 10, 45, 127
1, 264564, Note_off_c, 10, 69, 127
1, 264567, Note_on_c, 8, 68, 127
1, 264567, Note_on_c, 12, 47, 127
1, 264742, Note_off_c, 6, 66, 127
1, 264743, Note_off_c, 12, 47, 127
1, 264745, Note_on_c, 6, 66, 127
1, 264745, Note_on_c, 8, 44, 127
1, 264921, Note_off_c, 8, 44, 127
1, 264921, Note_off_c, 6, 66, 127
1, 264924, Note_on_c, 4, 64, 127
1, 264924, Note_on_c, 1, 49, 127
1, 265100, Note_off_c, 8, 68, 127
1, 265113, Note_on_c, 8, 68, 127
1, 265277, Note_off_c, 1, 49, 127
1, 265289, Note_off_c, 8, 68, 127
1, 265299, Note_on_c, 11, 70, 127
1, 265299, Note_on_c, 6, 42, 127
1, 265475, Note_off_c, 11, 70, 127
1, 265477, Note_on_c, 6, 66, 127
1, 265653, Note_off_c, 6, 66, 127
1, 265656, Note_on_c, 12, 71, 127
1, 265813, Note_off_c, 4, 64, 127
1, 265833, Note_on_c, 2, 62, 127
1, 266009, Note_off_c, 2, 62, 127
1, 266012, Note_on_c, 1, 61, 127
1, 266188, Note_off_c, 12, 71, 127
1, 266190, Note_on_c, 12, 71, 127
1, 266366, Note_off_c, 1, 61, 127
1, 266366, Note_off_c, 6, 42, 127
1, 266369, Note_on_c, 6, 66, 127
1, 266369, Note_on_c, 6, 42, 127
1, 266369, Note_on_c, 10, 69, 127
1, 266381, Note_off_c, 12, 71, 127
1, 266544, Note_off_c, 10, 69, 127
1, 266544, Note_off_c, 6, 42, 127
1, 266546, Note_on_c, 2, 74, 127
1, 266546, Note_on_c, 2, 38, 127
1, 266722, Note_off_c, 2, 38, 127
1, 266722, Note_off_c, 6, 66, 127
1, 266725, Note_on_c, 4, 64, 127
1, 266725, Note_on_c, 10, 45, 127
1, 266900, Note_off_c, 2, 74, 127
1, 266903, Note_on_c, 2, 74, 127
1, 267079, Note_off_c, 10, 45, 127
1, 267079, Note_off_c, 4, 64, 127
1, 267082, Note_on_c, 1, 73, 127
1, 267082, Note_on_c, 10, 69, 127
1, 267082, Note_on_c, 10, 45, 127
1, 267094, Note_off_c, 2, 74, 127
1, 267257, Note_off_c, 10, 45, 127
1, 267257, Note_off_c, 1, 73, 127
1, 267259, Note_on_c, 6, 78, 127
1, 267259, Note_on_c, 6, 42, 127
1, 267435, Note_off_c, 6, 42, 127
1, 267435, Note_off_c, 10, 69, 127
1, 267438, Note_on_c, 8, 68, 127
1, 267438, Note_on_c, 1, 49, 127
1, 267613, Note_off_c, 6, 78, 127
1, 267616, Note_on_c, 6, 78, 127
1, 267792, Note_off_c, 6, 78, 127
1, 267792, Note_off_c, 8, 68, 127
1, 267795, Note_on_c, 5, 77, 127
1, 267795, Note_on_c, 8, 68, 127
1, 267971, Note_off_c, 1, 49, 127
1, 267973, Note_on_c, 1, 61, 127
1, 268149, Note_off_c, 1, 61, 127
1, 268149, Note_off_c, 8, 68, 127
1, 268149, Note_off_c, 5, 77, 127
1, 268152, Note_on_c, 6, 78, 127
1, 268152, Note_on_c, 1, 73, 127
1, 268152, Note_on_c, 11, 58, 127
1, 268328, Note_off_c, 11, 58, 127
1, 268330, Note_on_c, 6, 54, 127
1, 268506, Note_off_c, 6, 54, 127
1, 268506, Note_off_c, 1, 73, 127
1, 268509, Note_on_c, 2, 74, 127
1, 268509, Note_on_c, 12, 59, 127
1, 268685, Note_off_c, 2, 74, 127
1, 268685, Note_off_c, 6, 78, 127
1, 268687, Note_on_c, 4, 76, 127
1, 268687, Note_on_c, 1, 73, 127
1, 268863, Note_off_c, 1, 73, 127
1, 268863, Note_off_c, 4, 76, 127
1, 268866, Note_on_c, 2, 74, 127
1, 268866, Note_on_c, 12, 71, 127
1, 269042, Note_off_c, 12, 59, 127
1, 269044, Note_on_c, 10, 57, 127
1, 269220, Note_off_c, 10, 57, 127
1, 269220, Note_off_c, 12, 71, 127
1, 269220, Note_off_c, 2, 74, 127
1, 269223, Note_on_c, 3, 75, 127
1, 269223, Note_on_c, 12, 71, 127
1, 269223, Note_on_c, 8, 56, 127
1, 269399, Note_off_c, 8, 56, 127
1, 269401, Note_on_c, 6, 54, 127
1, 269577, Note_off_c, 6, 54, 127
1, 269577, Note_off_c, 3, 75, 127
1, 269580, Note_on_c, 4, 76, 127
1, 269580, Note_on_c, 8, 56, 127
1, 269756, Note_off_c, 8, 56, 127
1, 269758, Note_on_c, 4, 52, 127
1, 269934, Note_off_c, 4, 52, 127
1, 269934, Note_off_c, 12, 71, 127
1, 269937, Note_on_c, 1, 73, 127
1, 269937, Note_on_c, 10, 57, 127
1, 270113, Note_off_c, 1, 73, 127
1, 270113, Note_off_c, 4, 76, 127
1, 270115, Note_on_c, 2, 74, 127
1, 270115, Note_on_c, 12, 71, 127
1, 270291, Note_off_c, 12, 71, 127
1, 270291, Note_off_c, 2, 74, 127
1, 270294, Note_on_c, 1, 73, 127
1, 270294, Note_on_c, 10, 69, 127
1, 270470, Note_off_c, 10, 57, 127
1, 270472, Note_on_c, 10, 57, 127
1, 270648, Note_off_c, 10, 57, 127
1, 270648, Note_off_c, 10, 69, 127
1, 270648, Note_off_c, 1, 73, 127
1, 270651, Note_on_c, 1, 73, 127
1, 270651, Note_on_c, 10, 69, 127
1, 270651, Note_on_c, 8, 56, 127
1, 270827, Note_off_c, 8, 56, 127
1, 270829, Note_on_c, 6, 54, 127
1, 271005, Note_off_c, 6, 54, 127
1, 271005, Note_off_c, 10, 69, 127
1, 271005, Note_off_c, 1, 73, 127
1, 271008, Note_on_c, 1, 73, 127
1, 271008, Note_on_c, 8, 68, 127
1, 271008, Note_on_c, 5, 53, 127
1, 271184, Note_off_c, 5, 53, 127
1, 271186, Note_on_c, 1, 49, 127
1, 271362, Note_off_c, 1, 49, 127
1, 271362, Note_off_c, 8, 68, 127
1, 271365, Note_on_c, 10, 69, 127
1, 271365, Note_on_c, 6, 54, 127
1, 271541, Note_off_c, 10, 69, 127
1, 271541, Note_off_c, 1, 73, 127
1, 271543, Note_on_c, 12, 71, 127
1, 271543, Note_on_c, 8, 68, 127
1, 271719, Note_off_c, 8, 68, 127
1, 271719, Note_off_c, 12, 71, 127
1, 271722, Note_on_c, 10, 69, 127
1, 271722, Note_on_c, 6, 66, 127
1, 271898, Note_off_c, 6, 54, 127
1, 271900, Note_on_c, 4, 52, 127
1, 272076, Note_off_c, 4, 52, 127
1, 272076, Note_off_c, 6, 66, 127
1, 272076, Note_off_c, 10, 69, 127
1, 272079, Note_on_c, 10, 69, 127
1, 272079, Note_on_c, 6, 66, 127
1, 272079, Note_on_c, 2, 50, 127
1, 272255, Note_off_c, 2, 50, 127
1, 272257, Note_on_c, 1, 49, 127
1, 272433, Note_off_c, 1, 49, 127
1, 272436, Note_on_c, 2, 50, 127
1, 272612, Note_off_c, 10, 69, 127
1, 272614, Note_on_c, 10, 69, 127
1, 272790, Note_off_c, 10, 69, 127
1, 272790, Note_off_c, 2, 50, 127
1, 272793, Note_on_c, 12, 71, 127
1, 272793, Note_on_c, 3, 51, 127
1, 272969, Note_off_c, 6, 66, 127
1, 272971, Note_on_c, 6, 66, 127
1, 273147, Note_off_c, 6, 66, 127
1, 273147, Note_off_c, 3, 51, 127
1, 273150, Note_on_c, 8, 68, 127
1, 273150, Note_on_c, 4, 52, 127
1, 273326, Note_off_c, 12, 71, 127
1, 273328, Note_on_c, 12, 71, 127
1, 273504, Note_off_c, 12, 71, 127
1, 273504, Note_off_c, 4, 52, 127
1, 273507, Note_on_c, 1, 73, 127
1, 273507, Note_on_c, 5, 53, 127
1, 273683, Note_off_c, 8, 68, 127
1, 273685, Note_on_c, 8, 68, 127
1, 273861, Note_off_c, 8, 68, 127
1, 273861, Note_off_c, 5, 53, 127
1, 273864, Note_on_c, 10, 69, 127
1, 273864, Note_on_c, 6, 54, 127
1, 274040, Note_off_c, 1, 73, 127
1, 274042, Note_on_c, 1, 73, 127
1, 274218, Note_off_c, 1, 73, 127
1, 274218, Note_off_c, 6, 54, 127
1, 274221, Note_on_c, 2, 74, 127
1, 274221, Note_on_c, 6, 42, 127
1, 274397, Note_off_c, 10, 69, 127
1, 274399, Note_on_c, 10, 69, 127
1, 274575, Note_off_c, 10, 69, 127
1, 274575, Note_off_c, 6, 42, 127
1, 274578, Note_on_c, 12, 71, 127
1, 274578, Note_on_c, 8, 44, 127
1, 274754, Note_off_c, 2, 74, 127
1, 274756, Note_on_c, 2, 74, 127
1, 274932, Note_off_c, 2, 74, 127
1, 274932, Note_off_c, 8, 44, 127
1, 274935, Note_on_c, 4, 76, 127
1, 274935, Note_on_c, 8, 56, 127
1, 275111, Note_off_c, 12, 71, 127
1, 275113, Note_on_c, 12, 71, 127
1, 275289, Note_off_c, 12, 71, 127
1, 275289, Note_off_c, 8, 56, 127
1, 275292, Note_on_c, 1, 73, 127
1, 275292, Note_on_c, 10, 57, 127
1, 275468, Note_off_c, 4, 76, 127
1, 275470, Note_on_c, 4, 76, 127
1, 275646, Note_off_c, 4, 76, 127
1, 275646, Note_off_c, 10, 57, 127
1, 275649, Note_on_c, 6, 78, 127
1, 275649, Note_on_c, 10, 45, 127
1, 275825, Note_off_c, 1, 73, 127
1, 275827, Note_on_c, 1, 73, 127
1, 276003, Note_off_c, 1, 73, 127
1, 276003, Note_off_c, 10, 45, 127
1, 276006, Note_on_c, 2, 74, 127
1, 276006, Note_on_c, 12, 47, 127
1, 276182, Note_off_c, 6, 78, 127
1, 276184, Note_on_c, 6, 78, 127
1, 276360, Note_off_c, 6, 78, 127
1, 276360, Note_off_c, 12, 47, 127
1, 276363, Note_on_c, 7, 79, 127
1, 276363, Note_on_c, 12, 59, 127
1, 276539, Note_off_c, 7, 79, 127
1, 276541, Note_on_c, 6, 78, 127
1, 276711, Note_off_c, 2, 74, 127
1, 276716, Note_off_c, 6, 78, 127
1, 276716, Note_off_c, 12, 59, 127
1, 276719, Note_on_c, 5, 77, 127
1, 276719, Note_on_c, 1, 61, 127
1, 276896, Note_on_c, 1, 73, 127
1, 277072, Note_off_c, 1, 73, 127
1, 277072, Note_off_c, 1, 61, 127
1, 277075, Note_on_c, 8, 68, 127
1, 277075, Note_on_c, 1, 49, 127
1, 277251, Note_off_c, 8, 68, 127
1, 277253, Note_on_c, 12, 71, 127
1, 277423, Note_off_c, 5, 77, 127
1, 277428, Note_off_c, 12, 71, 127
1, 277428, Note_off_c, 1, 49, 127
1, 277430, Note_on_c, 10, 69, 127
1, 277430, Note_on_c, 6, 54, 127
1, 277608, Note_on_c, 6, 78, 127
1, 277783, Note_off_c, 6, 54, 127
1, 277784, Note_off_c, 6, 78, 127
1, 277786, Note_on_c, 1, 73, 127
1, 277786, Note_on_c, 6, 42, 127
1, 277962, Note_off_c, 1, 73, 127
1, 277965, Note_on_c, 4, 76, 127
1, 278140, Note_off_c, 6, 42, 127
1, 278141, Note_off_c, 4, 76, 127
1, 278143, Note_on_c, 2, 74, 127
1, 278143, Note_on_c, 12, 47, 127
1, 278319, Note_off_c, 10, 69, 127
1, 278322, Note_on_c, 10, 69, 127
1, 278497, Note_off_c, 12, 47, 127
1, 278498, Note_off_c, 10, 69, 127
1, 278500, Note_on_c, 8, 68, 127
1, 278500, Note_on_c, 12, 59, 127
1, 278676, Note_off_c, 8, 68, 127
1, 278679, Note_on_c, 12, 71, 127
1, 278848, Note_off_c, 2, 74, 127
1, 278853, Note_off_c, 12, 59, 127
1, 278854, Note_off_c, 12, 71, 127
1, 278856, Note_on_c, 5, 65, 127
1, 278856, Note_on_c, 1, 61, 127
1, 279034, Note_on_c, 1, 73, 127
1, 279209, Note_off_c, 1, 61, 127
1, 279210, Note_off_c, 1, 73, 127
1, 279212, Note_on_c, 8, 68, 127
1, 279212, Note_on_c, 1, 49, 127
1, 279388, Note_off_c, 8, 68, 127
1, 279391, Note_on_c, 12, 71, 127
1, 279560, Note_off_c, 5, 65, 127
1, 279565, Note_off_c, 1, 49, 127
1, 279566, Note_off_c, 12, 71, 127
1, 279568, Note_on_c, 10, 69, 127
1, 279568, Note_on_c, 6, 54, 127
1, 279746, Note_on_c, 6, 66, 127
1, 279921, Note_off_c, 6, 54, 127
1, 279922, Note_off_c, 6, 66, 127
1, 279924, Note_on_c, 1, 61, 127
1, 279924, Note_on_c, 6, 42, 127
1, 280100, Note_off_c, 1, 61, 127
1, 280103, Note_on_c, 4, 64, 127
1, 280278, Note_off_c, 6, 42, 127
1, 280279, Note_off_c, 4, 64, 127
1, 280281, Note_on_c, 2, 62, 127
1, 280281, Note_on_c, 12, 47, 127
1, 280457, Note_off_c, 10, 69, 127
1, 280460, Note_on_c, 10, 69, 127
1, 280636, Note_off_c, 10, 69, 127
1, 280638, Note_on_c, 7, 67, 127
1, 280814, Note_off_c, 7, 67, 127
1, 280817, Note_on_c, 12, 71, 127
1, 280993, Note_off_c, 12, 71, 127
1, 280995, Note_on_c, 5, 65, 127
1, 281171, Note_off_c, 2, 62, 127
1, 281188, Note_on_c, 1, 61, 127
1, 281391, Note_off_c, 12, 47, 127
1, 281392, Note_on_c, 10, 45, 127
1, 281392, Note_on_c, 6, 66, 127
1, 281394, Note_off_c, 5, 65, 127
1, 281568, Note_off_c, 1, 61, 127
1, 281600, Note_on_c, 1, 61, 127
1, 281776, Note_off_c, 10, 45, 127
1, 281795, Note_off_c, 1, 61, 127
1, 281797, Note_on_c, 8, 44, 127
1, 281797, Note_on_c, 12, 59, 127
1, 281989, Note_on_c, 2, 62, 127
1, 281992, Note_off_c, 12, 59, 127
1, 282125, Note_off_c, 6, 66, 127
1, 282179, Note_off_c, 8, 44, 127
1, 282184, Note_off_c, 2, 62, 127
1, 282184, Note_on_c, 5, 65, 127
1, 282184, Note_on_c, 8, 56, 127
1, 282184, Note_on_c, 1, 49, 127
1, 282377, Note_on_c, 12, 59, 127
1, 282379, Note_off_c, 8, 56, 127
1, 282555, Note_off_c, 1, 49, 127
1, 282584, Note_off_c, 5, 65, 127
1, 282589, Note_off_c, 12, 59, 127
1, 282598, Note_on_c, 6, 42, 127
1, 282598, Note_on_c, 10, 57, 127
1, 282598, Note_on_c, 6, 66, 127
1, 285013, Note_off_c, 6, 66, 127
1, 285013, Note_off_c, 10, 57, 127
1, 285013, Note_off_c, 6, 42, 127
1, 285751, Note_on_c, 1, 61, 127
1, 285952, Note_on_c, 8, 56, 127
1, 286151, Note_off_c, 8, 56, 127
1, 286154, Note_on_c, 10, 57, 127
1, 286356, Note_on_c, 5, 53, 127
1, 286549, Note_off_c, 1, 61, 127
1, 286555, Note_off_c, 5, 53, 127
1, 286557, Note_on_c, 6, 54, 127
1, 286759, Note_on_c, 1, 49, 127
1, 286826, Note_off_c, 10, 57, 127
1, 286958, Note_off_c, 1, 49, 127
1, 286960, Note_on_c, 2, 50, 127
1, 287061, Note_off_c, 6, 54, 127
1, 287397, Note_on_c, 6, 66, 127
1, 287599, Note_on_c, 1, 61, 127
1, 287798, Note_off_c, 1, 61, 127
1, 287800, Note_on_c, 2, 62, 127
1, 288002, Note_on_c, 11, 58, 127
1, 288195, Note_off_c, 6, 66, 127
1, 288201, Note_off_c, 11, 58, 127
1, 288204, Note_on_c, 12, 59, 127
1, 288405, Note_on_c, 6, 54, 127
1, 288472, Note_off_c, 2, 62, 127
1, 288604, Note_off_c, 6, 54, 127
1, 288607, Note_on_c, 8, 56, 127
1, 288708, Note_off_c, 12, 59, 127
1, 288842, Note_on_c, 12, 71, 127
1, 289044, Note_on_c, 8, 68, 127
1, 289245, Note_on_c, 4, 64, 127
1, 289447, Note_on_c, 4, 76, 127
1, 290173, Note_off_c, 2, 50, 127
1, 290217, Note_off_c, 8, 56, 127
1, 290245, Note_off_c, 4, 76, 127
1, 290253, Note_off_c, 4, 64, 127
1, 290259, Note_off_c, 12, 71, 127
1, 290262, Note_off_c, 8, 68, 127
1, 290656, Note_on_c, 8, 56, 127
1, 290855, Note_off_c, 8, 56, 127
1, 290858, Note_on_c, 11, 58, 127
1, 290956, Note_off_c, 11, 58, 127
1, 290959, Note_on_c, 12, 59, 127
1, 291057, Note_off_c, 12, 59, 127
1, 291060, Note_on_c, 1, 49, 127
1, 291463, Note_on_c, 7, 67, 127
1, 291664, Note_on_c, 3, 63, 127
1, 291863, Note_off_c, 3, 63, 127
1, 291866, Note_on_c, 4, 64, 127
1, 292068, Note_on_c, 12, 59, 127
1, 292261, Note_off_c, 7, 67, 127
1, 292267, Note_off_c, 12, 59, 127
1, 292269, Note_on_c, 1, 61, 127
1, 292471, Note_on_c, 8, 56, 127
1, 292538, Note_off_c, 4, 64, 127
1, 292670, Note_off_c, 8, 56, 127
1, 292672, Note_on_c, 11, 58, 127
1, 292773, Note_off_c, 1, 61, 127
1, 292908, Note_on_c, 1, 73, 127
1, 293109, Note_on_c, 11, 70, 127
1, 293311, Note_on_c, 4, 64, 127
1, 293512, Note_on_c, 4, 76, 127
1, 294273, Note_off_c, 1, 49, 127
1, 294282, Note_off_c, 11, 58, 127
1, 294310, Note_off_c, 4, 76, 127
1, 294319, Note_off_c, 4, 64, 127
1, 294325, Note_off_c, 1, 73, 127
1, 294327, Note_off_c, 11, 70, 127
1, 294405, Note_on_c, 12, 59, 127
1, 294604, Note_off_c, 12, 59, 127
1, 294621, Note_on_c, 11, 58, 127
1, 294820, Note_off_c, 11, 58, 127
1, 294823, Note_on_c, 12, 59, 127
1, 294921, Note_off_c, 12, 59, 127
1, 294940, Note_on_c, 1, 61, 127
1, 295038, Note_off_c, 1, 61, 127
1, 295058, Note_on_c, 2, 50, 127
1, 295461, Note_on_c, 7, 67, 127
1, 295663, Note_on_c, 4, 64, 127
1, 295839, Note_off_c, 7, 67, 127
1, 295862, Note_off_c, 4, 64, 127
1, 295864, Note_on_c, 6, 66, 127
1, 296066, Note_on_c, 1, 61, 127
1, 296265, Note_off_c, 1, 61, 127
1, 296268, Note_on_c, 2, 62, 127
1, 296469, Note_on_c, 11, 58, 127
1, 296662, Note_off_c, 6, 66, 127
1, 296668, Note_off_c, 11, 58, 127
1, 296671, Note_on_c, 12, 59, 127
1, 296772, Note_off_c, 2, 62, 127
1, 296872, Note_on_c, 6, 78, 127
1, 297074, Note_on_c, 2, 74, 127
1, 297276, Note_on_c, 12, 71, 127
1, 297473, Note_off_c, 2, 50, 127
1, 297477, Note_on_c, 12, 83, 127
1, 298275, Note_off_c, 12, 83, 127
1, 298284, Note_off_c, 12, 71, 127
1, 298289, Note_off_c, 6, 78, 127
1, 298292, Note_off_c, 2, 74, 127
1, 298519, Note_on_c, 2, 62, 127
1, 298573, Note_off_c, 12, 59, 127
1, 298653, Note_on_c, 12, 59, 127
1, 298718, Note_off_c, 2, 62, 127
1, 298788, Note_on_c, 2, 62, 127
1, 298852, Note_off_c, 12, 59, 127
1, 298922, Note_on_c, 12, 59, 127
1, 298987, Note_off_c, 2, 62, 127
1, 299056, Note_on_c, 2, 62, 127
1, 299121, Note_off_c, 12, 59, 127
1, 299191, Note_on_c, 12, 59, 127
1, 299255, Note_off_c, 2, 62, 127
1, 299325, Note_on_c, 2, 62, 127
1, 299390, Note_off_c, 12, 59, 127
1, 299460, Note_on_c, 8, 56, 127
1, 299524, Note_off_c, 2, 62, 127
1, 300165, Note_on_c, 12, 71, 127
1, 300165, Note_on_c, 8, 68, 127
1, 300165, Note_on_c, 4, 64, 127
1, 300165, Note_on_c, 2, 50, 127
1, 300969, Note_off_c, 2, 50, 127
1, 300969, Note_off_c, 8, 68, 127
1, 300969, Note_off_c, 12, 71, 127
1, 300972, Note_on_c, 4, 76, 127
1, 300972, Note_on_c, 12, 71, 127
1, 300972, Note_on_c, 1, 49, 127
1, 301373, Note_off_c, 12, 71, 127
1, 301375, Note_on_c, 6, 54, 127
1, 301476, Note_off_c, 8, 56, 127
1, 301574, Note_off_c, 6, 54, 127
1, 301576, Note_on_c, 4, 52, 127
1, 301775, Note_off_c, 4, 52, 127
1, 301778, Note_on_c, 10, 69, 127
1, 301778, Note_on_c, 10, 57, 127
1, 301977, Note_off_c, 10, 69, 127
1, 301980, Note_off_c, 4, 76, 127
1, 302013, Note_on_c, 2, 74, 127
1, 302244, Note_off_c, 2, 74, 127
1, 302248, Note_on_c, 1, 73, 127
1, 302479, Note_off_c, 1, 73, 127
1, 302484, Note_on_c, 12, 71, 127
1, 302576, Note_off_c, 10, 57, 127
1, 302580, Note_off_c, 4, 64, 127
1, 302582, Note_off_c, 12, 71, 127
1, 302582, Note_off_c, 1, 49, 127
1, 302584, Note_on_c, 10, 69, 127
1, 302682, Note_off_c, 10, 69, 127
1, 302685, Note_on_c, 10, 69, 127
1, 303590, Note_off_c, 10, 69, 127
1, 303592, Note_on_c, 12, 71, 127
1, 303690, Note_off_c, 12, 71, 127
1, 303693, Note_on_c, 10, 69, 127
1, 303791, Note_off_c, 10, 69, 127
1, 303794, Note_on_c, 7, 67, 127
1, 303892, Note_off_c, 7, 67, 127
1, 303895, Note_on_c, 6, 66, 127
1, 303960, Note_off_c, 6, 66, 127
1, 303962, Note_on_c, 4, 64, 127
1, 304027, Note_off_c, 4, 64, 127
1, 304029, Note_on_c, 3, 63, 127
1, 304094, Note_off_c, 3, 63, 127
1, 304096, Note_on_c, 1, 61, 127
1, 304161, Note_off_c, 1, 61, 127
1, 304164, Note_on_c, 12, 59, 127
1, 304229, Note_off_c, 12, 59, 127
1, 304231, Note_on_c, 1, 61, 127
1, 304296, Note_off_c, 1, 61, 127
1, 304298, Note_on_c, 3, 63, 127
1, 304363, Note_off_c, 3, 63, 127
1, 304365, Note_on_c, 4, 64, 127
1, 304430, Note_off_c, 4, 64, 127
1, 304432, Note_on_c, 6, 66, 127
1, 304497, Note_off_c, 6, 66, 127
1, 304500, Note_on_c, 7, 67, 127
1, 304565, Note_off_c, 7, 67, 127
1, 304567, Note_on_c, 10, 69, 127
1, 305004, Note_on_c, 12, 59, 127
1, 305004, Note_on_c, 6, 66, 127
1, 305004, Note_on_c, 3, 51, 127
1, 305004, Note_on_c, 6, 54, 127
1, 305505, Note_off_c, 6, 54, 127
1, 305505, Note_off_c, 3, 51, 127
1, 305505, Note_off_c, 6, 66, 127
1, 305505, Note_off_c, 12, 59, 127
1, 305508, Note_on_c, 12, 59, 127
1, 305508, Note_on_c, 7, 55, 127
1, 305508, Note_on_c, 4, 52, 127
1, 305508, Note_on_c, 6, 66, 127
1, 306100, Note_off_c, 10, 69, 127
1, 306110, Note_off_c, 6, 66, 127
1, 306112, Note_on_c, 4, 64, 127
1, 306112, Note_on_c, 10, 69, 127
1, 306196, Note_on_c, 7, 67, 127
1, 306212, Note_off_c, 10, 69, 127
1, 306280, Note_on_c, 10, 69, 127
1, 306296, Note_off_c, 7, 67, 127
1, 306364, Note_on_c, 7, 67, 127
1, 306380, Note_off_c, 10, 69, 127
1, 306448, Note_on_c, 6, 66, 127
1, 306464, Note_off_c, 7, 67, 127
1, 306558, Note_on_c, 7, 67, 127
1, 306574, Note_off_c, 6, 66, 127
1, 306613, Note_off_c, 4, 64, 127
1, 306910, Note_on_c, 4, 76, 127
1, 306912, Note_off_c, 7, 67, 127
1, 307118, Note_off_c, 4, 52, 127
1, 307118, Note_off_c, 7, 55, 127
1, 307118, Note_off_c, 12, 59, 127
1, 307154, Note_on_c, 7, 67, 127
1, 307212, Note_off_c, 4, 76, 127
1, 307353, Note_off_c, 7, 67, 127
1, 307356, Note_on_c, 7, 67, 127
1, 307958, Note_off_c, 7, 67, 127
1, 307960, Note_on_c, 10, 69, 127
1, 308058, Note_off_c, 10, 69, 127
1, 308061, Note_on_c, 7, 67, 127
1, 308159, Note_off_c, 7, 67, 127
1, 308162, Note_on_c, 6, 66, 127
1, 308260, Note_off_c, 6, 66, 127
1, 308263, Note_on_c, 4, 64, 127
1, 308361, Note_off_c, 4, 64, 127
1, 308364, Note_on_c, 6, 66, 127
1, 308412, Note_off_c, 6, 66, 127
1, 308414, Note_on_c, 7, 67, 127
1, 308462, Note_off_c, 7, 67, 127
1, 308464, Note_on_c, 10, 69, 127
1, 308512, Note_off_c, 10, 69, 127
1, 308515, Note_on_c, 12, 71, 127
1, 308563, Note_off_c, 12, 71, 127
1, 308565, Note_on_c, 1, 73, 127
1, 308616, Note_on_c, 3, 75, 127
1, 308619, Note_off_c, 1, 73, 127
1, 308664, Note_off_c, 3, 75, 127
1, 308666, Note_on_c, 4, 76, 127
1, 308966, Note_off_c, 4, 76, 127
1, 308968, Note_on_c, 7, 67, 127
1, 309066, Note_off_c, 7, 67, 127
1, 309069, Note_on_c, 6, 66, 127
1, 309573, Note_on_c, 11, 46, 127
1, 309573, Note_on_c, 1, 49, 127
1, 309573, Note_on_c, 4, 64, 127
1, 309573, Note_on_c, 6, 54, 127
1, 309573, Note_on_c, 1, 61, 127
1, 309974, Note_off_c, 1, 61, 127
1, 309974, Note_off_c, 4, 64, 127
1, 310056, Note_off_c, 6, 54, 127
1, 310056, Note_off_c, 1, 49, 127
1, 310056, Note_off_c, 11, 46, 127
1, 310077, Note_on_c, 1, 61, 127
1, 310077, Note_on_c, 4, 64, 127
1, 310077, Note_on_c, 2, 50, 127
1, 310077, Note_on_c, 6, 54, 127
1, 310077, Note_on_c, 12, 47, 127
1, 310578, Note_off_c, 4, 64, 127
1, 310578, Note_off_c, 1, 61, 127
1, 310581, Note_on_c, 2, 62, 127
1, 310679, Note_off_c, 6, 66, 127
1, 310881, Note_off_c, 2, 62, 127
1, 310884, Note_on_c, 1, 61, 127
1, 310959, Note_off_c, 12, 47, 127
1, 310959, Note_off_c, 6, 54, 127
1, 310959, Note_off_c, 2, 50, 127
1, 311083, Note_off_c, 1, 61, 127
1, 311085, Note_on_c, 12, 71, 127
1, 311085, Note_on_c, 7, 67, 127
1, 311085, Note_on_c, 2, 62, 127
1, 311085, Note_on_c, 7, 55, 127
1, 311085, Note_on_c, 12, 47, 127
1, 311085, Note_on_c, 2, 50, 127
1, 311486, Note_off_c, 12, 71, 127
1, 311589, Note_on_c, 0, 72, 127
1, 311788, Note_off_c, 0, 72, 127
1, 311791, Note_on_c, 2, 74, 127
1, 311883, Note_off_c, 7, 67, 127
1, 311988, Note_off_c, 2, 50, 127
1, 311988, Note_off_c, 12, 47, 127
1, 311990, Note_off_c, 2, 74, 127
1, 311992, Note_on_c, 4, 64, 127
1, 311992, Note_on_c, 0, 48, 127
1, 312292, Note_off_c, 2, 62, 127
1, 312396, Note_on_c, 0, 60, 127
1, 312429, Note_off_c, 7, 55, 127
1, 312595, Note_off_c, 0, 60, 127
1, 312597, Note_on_c, 12, 59, 127
1, 312796, Note_off_c, 12, 59, 127
1, 312799, Note_on_c, 0, 60, 127
1, 313000, Note_off_c, 4, 64, 127
1, 313246, Note_off_c, 0, 48, 127
1, 313672, Note_off_c, 0, 60, 127
1, 313807, Note_on_c, 7, 55, 127
1, 313937, Note_on_c, 10, 57, 127
1, 313939, Note_off_c, 7, 55, 127
1, 314058, Note_off_c, 10, 57, 127
1, 314063, Note_on_c, 12, 59, 127
1, 314184, Note_off_c, 12, 59, 127
1, 314187, Note_on_c, 0, 60, 127
1, 314308, Note_off_c, 0, 60, 127
1, 314311, Note_on_c, 2, 62, 127
1, 314432, Note_off_c, 2, 62, 127
1, 314435, Note_on_c, 4, 64, 127
1, 314561, Note_on_c, 12, 59, 127
1, 314617, Note_off_c, 4, 64, 127
1, 314682, Note_off_c, 12, 59, 127
1, 314685, Note_on_c, 0, 60, 127
1, 314808, Note_on_c, 7, 55, 127
1, 314867, Note_off_c, 0, 60, 127
1, 314929, Note_off_c, 7, 55, 127
1, 314932, Note_on_c, 4, 52, 127
1, 315053, Note_off_c, 4, 52, 127
1, 315058, Note_on_c, 7, 55, 127
1, 315179, Note_off_c, 7, 55, 127
1, 315182, Note_on_c, 0, 48, 127
1, 315306, Note_on_c, 4, 52, 127
1, 315364, Note_off_c, 0, 48, 127
1, 315427, Note_off_c, 4, 52, 127
1, 315430, Note_on_c, 7, 55, 127
1, 315556, Note_on_c, 2, 50, 127
1, 315612, Note_off_c, 7, 55, 127
1, 315677, Note_off_c, 2, 50, 127
1, 315680, Note_on_c, 4, 52, 127
1, 315804, Note_on_c, 12, 47, 127
1, 315862, Note_off_c, 4, 52, 127
1, 315925, Note_off_c, 12, 47, 127
1, 315928, Note_on_c, 0, 48, 127
1, 316054, Note_on_c, 7, 43, 127
1, 316110, Note_off_c, 0, 48, 127
1, 316175, Note_off_c, 7, 43, 127
1, 316178, Note_on_c, 4, 40, 127
1, 316299, Note_off_c, 4, 40, 127
1, 316302, Note_on_c, 7, 43, 127
1, 316423, Note_off_c, 7, 43, 127
1, 316428, Note_on_c, 0, 36, 127
1, 317436, Note_on_c, 7, 79, 127
1, 317534, Note_off_c, 7, 79, 127
1, 317536, Note_on_c, 5, 77, 127
1, 317545, Note_off_c, 0, 36, 127
1, 317634, Note_off_c, 5, 77, 127
1, 317637, Note_on_c, 4, 76, 127
1, 317735, Note_off_c, 4, 76, 127
1, 317738, Note_on_c, 2, 74, 127
1, 317836, Note_off_c, 2, 74, 127
1, 317839, Note_on_c, 0, 72, 127
1, 317937, Note_off_c, 0, 72, 127
1, 317940, Note_on_c, 12, 71, 127
1, 318038, Note_off_c, 12, 71, 127
1, 318040, Note_on_c, 11, 70, 127
1, 318441, Note_off_c, 11, 70, 127
1, 318444, Note_on_c, 4, 64, 127
1, 318444, Note_on_c, 1, 49, 127
1, 318444, Note_on_c, 4, 52, 127
1, 318444, Note_on_c, 6, 66, 127
1, 318643, Note_off_c, 4, 52, 127
1, 318645, Note_on_c, 7, 55, 127
1, 318844, Note_off_c, 7, 55, 127
1, 318847, Note_on_c, 6, 54, 127
1, 319046, Note_off_c, 6, 54, 127
1, 319048, Note_on_c, 4, 52, 127
1, 319242, Note_off_c, 6, 66, 127
1, 319242, Note_off_c, 1, 49, 127
1, 319242, Note_off_c, 4, 64, 127
1, 319247, Note_off_c, 4, 52, 127
1, 319250, Note_on_c, 4, 64, 127
1, 319250, Note_on_c, 12, 47, 127
1, 319250, Note_on_c, 12, 59, 127
1, 319250, Note_on_c, 6, 54, 127
1, 319250, Note_on_c, 12, 71, 127
1, 319250, Note_on_c, 6, 66, 127
1, 319786, Note_off_c, 4, 64, 127
1, 319847, Note_on_c, 3, 63, 127
1, 320324, Note_off_c, 6, 66, 127
1, 320324, Note_off_c, 6, 54, 127
1, 320324, Note_off_c, 12, 59, 127
1, 320324, Note_off_c, 12, 47, 127
1, 320436, Note_off_c, 12, 71, 127
1, 320595, Note_off_c, 3, 63, 127
1, 321400, Note_on_c, 10, 45, 127
1, 321434, Note_on_c, 0, 48, 127
1, 321468, Note_on_c, 5, 53, 127
1, 321501, Note_on_c, 10, 57, 127
1, 321535, Note_on_c, 0, 60, 127
1, 321568, Note_on_c, 5, 65, 127
1, 321602, Note_on_c, 10, 69, 127
1, 321636, Note_on_c, 0, 72, 127
1, 322604, Note_off_c, 5, 65, 127
1, 322607, Note_off_c, 10, 57, 127
1, 322607, Note_off_c, 0, 48, 127
1, 322609, Note_off_c, 0, 72, 127
1, 322616, Note_off_c, 5, 53, 127
1, 322617, Note_off_c, 10, 69, 127
1, 322618, Note_off_c, 10, 45, 127
1, 322619, Note_off_c, 0, 60, 127
1, 322744, Note_on_c, 4, 64, 127
1, 322744, Note_on_c, 12, 59, 127
1, 322744, Note_on_c, 10, 45, 127
1, 322744, Note_on_c, 6, 54, 127
1, 322878, Note_off_c, 4, 64, 127
1, 322879, Note_on_c, 3, 63, 127
1, 322945, Note_off_c, 3, 63, 127
1, 322946, Note_on_c, 4, 64, 127
1, 323012, Note_off_c, 4, 64, 127
1, 323013, Note_on_c, 3, 63, 127
1, 323079, Note_off_c, 3, 63, 127
1, 323080, Note_on_c, 4, 64, 127
1, 323146, Note_off_c, 4, 64, 127
1, 323148, Note_on_c, 3, 63, 127
1, 323214, Note_off_c, 3, 63, 127
1, 323215, Note_on_c, 4, 64, 127
1, 323281, Note_off_c, 4, 64, 127
1, 323282, Note_on_c, 3, 63, 127
1, 323814, Note_off_c, 3, 63, 127
1, 323818, Note_off_c, 6, 54, 127
1, 323818, Note_off_c, 10, 45, 127
1, 323818, Note_off_c, 12, 59, 127
1, 324088, Note_on_c, 10, 45, 127
1, 324088, Note_on_c, 12, 59, 127
1, 324088, Note_on_c, 3, 63, 127
1, 324088, Note_on_c, 6, 54, 127
1, 324221, Note_off_c, 6, 54, 127
1, 324221, Note_off_c, 3, 63, 127
1, 324221, Note_off_c, 12, 59, 127
1, 324221, Note_off_c, 10, 45, 127
1, 324223, Note_on_c, 12, 59, 127
1, 324223, Note_on_c, 7, 43, 127
1, 324223, Note_on_c, 4, 64, 127
1, 324223, Note_on_c, 7, 55, 127
1, 325028, Note_off_c, 7, 55, 127
1, 325028, Note_off_c, 4, 64, 127
1, 325028, Note_off_c, 7, 43, 127
1, 325028, Note_off_c, 12, 59, 127
1, 325500, Note_on_c, 12, 71, 127
1, 325566, Note_off_c, 12, 71, 127
1, 325567, Note_on_c, 1, 73, 127
1, 325633, Note_off_c, 1, 73, 127
1, 325634, Note_on_c, 3, 75, 127
1, 325700, Note_off_c, 3, 75, 127
1, 325701, Note_on_c, 4, 76, 127
1, 325767, Note_off_c, 4, 76, 127
1, 325768, Note_on_c, 6, 78, 127
1, 325834, Note_off_c, 6, 78, 127
1, 325836, Note_on_c, 7, 79, 127
1, 325902, Note_off_c, 7, 79, 127
1, 325903, Note_on_c, 10, 81, 127
1, 325969, Note_off_c, 10, 81, 127
1, 325970, Note_on_c, 12, 83, 127
1, 326058, Note_off_c, 12, 83, 127
1, 326059, Note_on_c, 10, 81, 127
1, 326147, Note_off_c, 10, 81, 127
1, 326148, Note_on_c, 7, 79, 127
1, 326236, Note_off_c, 7, 79, 127
1, 326238, Note_on_c, 10, 81, 127
1, 326326, Note_off_c, 10, 81, 127
1, 326327, Note_on_c, 7, 79, 127
1, 326415, Note_off_c, 7, 79, 127
1, 326416, Note_on_c, 6, 78, 127
1, 326504, Note_off_c, 6, 78, 127
1, 326505, Note_on_c, 7, 79, 127
1, 326593, Note_off_c, 7, 79, 127
1, 326595, Note_on_c, 6, 78, 127
1, 326683, Note_off_c, 6, 78, 127
1, 326684, Note_on_c, 4, 76, 127
1, 326772, Note_off_c, 4, 76, 127
1, 326773, Note_on_c, 6, 78, 127
1, 326861, Note_off_c, 6, 78, 127
1, 326862, Note_on_c, 4, 76, 127
1, 326950, Note_off_c, 4, 76, 127
1, 326952, Note_on_c, 3, 75, 127
1, 327040, Note_off_c, 3, 75, 127
1, 327041, Note_on_c, 4, 76, 127
1, 327130, Note_on_c, 7, 79, 127
1, 327167, Note_off_c, 4, 76, 127
1, 327218, Note_off_c, 7, 79, 127
1, 327219, Note_on_c, 4, 76, 127
1, 327307, Note_off_c, 4, 76, 127
1, 327309, Note_on_c, 12, 71, 127
1, 327398, Note_on_c, 4, 76, 127
1, 327435, Note_off_c, 12, 71, 127
1, 327486, Note_off_c, 4, 76, 127
1, 327487, Note_on_c, 12, 71, 127
1, 327575, Note_off_c, 12, 71, 127
1, 327576, Note_on_c, 7, 67, 127
1, 327666, Note_on_c, 12, 71, 127
1, 327702, Note_off_c, 7, 67, 127
1, 327754, Note_off_c, 12, 71, 127
1, 327755, Note_on_c, 7, 67, 127
1, 327843, Note_off_c, 7, 67, 127
1, 327844, Note_on_c, 4, 64, 127
1, 327933, Note_on_c, 4, 76, 127
1, 327970, Note_off_c, 4, 64, 127
1, 328021, Note_off_c, 4, 76, 127
1, 328023, Note_on_c, 12, 71, 127
1, 328111, Note_off_c, 12, 71, 127
1, 328112, Note_on_c, 1, 73, 127
1, 328201, Note_on_c, 4, 76, 127
1, 328251, Note_off_c, 1, 73, 127
1, 328289, Note_off_c, 4, 76, 127
1, 328290, Note_on_c, 1, 73, 127
1, 328378, Note_off_c, 1, 73, 127
1, 328380, Note_on_c, 10, 69, 127
1, 328469, Note_on_c, 1, 73, 127
1, 328558, Note_on_c, 4, 76, 127
1, 328575, Note_off_c, 10, 69, 127
1, 328608, Note_off_c, 1, 73, 127
1, 328647, Note_on_c, 10, 81, 127
1, 328669, Note_off_c, 4, 76, 127
1, 329051, Note_on_c, 10, 57, 127
1, 329051, Note_on_c, 7, 55, 127
1, 329051, Note_on_c, 1, 73, 127
1, 329051, Note_on_c, 10, 69, 127
1, 329051, Note_on_c, 1, 61, 127
1, 329051, Note_on_c, 4, 76, 127
1, 329051, Note_on_c, 4, 64, 127
1, 329318, Note_off_c, 4, 64, 127
1, 329318, Note_off_c, 4, 76, 127
1, 329318, Note_off_c, 1, 61, 127
1, 329318, Note_off_c, 10, 69, 127
1, 329318, Note_off_c, 1, 73, 127
1, 329318, Note_off_c, 7, 55, 127
1, 329318, Note_off_c, 10, 57, 127
1, 329319, Note_off_c, 10, 81, 127
1, 329454, Note_on_c, 6, 54, 127
1, 329454, Note_on_c, 10, 81, 127
1, 329454, Note_on_c, 2, 62, 127
1, 329454, Note_on_c, 10, 57, 127
1, 329454, Note_on_c, 6, 66, 127
1, 329454, Note_on_c, 10, 69, 127
1, 329454, Note_on_c, 2, 74, 127
1, 329454, Note_on_c, 6, 78, 127
1, 329856, Note_off_c, 6, 78, 127
1, 329856, Note_off_c, 10, 81, 127
1, 330259, Note_off_c, 2, 74, 127
1, 330259, Note_off_c, 10, 69, 127
1, 330260, Note_on_c, 7, 79, 127
1, 330397, Note_off_c, 7, 79, 127
1, 330398, Note_on_c, 6, 78, 127
1, 330574, Note_off_c, 6, 66, 127
1, 330574, Note_off_c, 10, 57, 127
1, 330574, Note_off_c, 2, 62, 127
1, 330574, Note_off_c, 6, 54, 127
1, 330584, Note_on_c, 4, 76, 127
1, 330594, Note_off_c, 6, 78, 127
1, 330707, Note_on_c, 2, 74, 127
1, 330713, Note_off_c, 4, 76, 127
1, 330791, Note_on_c, 1, 73, 127
1, 330793, Note_off_c, 2, 74, 127
1, 330931, Note_on_c, 7, 67, 127
1, 330931, Note_on_c, 12, 59, 127
1, 330931, Note_on_c, 2, 62, 127
1, 330931, Note_on_c, 7, 55, 127
1, 330931, Note_on_c, 6, 54, 127
1, 330931, Note_on_c, 12, 71, 127
1, 330935, Note_off_c, 1, 73, 127
1, 331645, Note_off_c, 12, 71, 127
1, 331645, Note_off_c, 6, 54, 127
1, 331645, Note_off_c, 7, 55, 127
1, 331645, Note_off_c, 2, 62, 127
1, 331645, Note_off_c, 12, 59, 127
1, 331645, Note_off_c, 7, 67, 127
1, 331670, Note_on_c, 7, 55, 127
1, 331670, Note_on_c, 1, 61, 127
1, 331670, Note_on_c, 4, 52, 127
1, 331670, Note_on_c, 1, 73, 127
1, 331670, Note_on_c, 7, 67, 127
1, 331670, Note_on_c, 4, 64, 127
1, 332412, Note_off_c, 4, 64, 127
1, 332412, Note_off_c, 7, 67, 127
1, 332412, Note_off_c, 1, 73, 127
1, 332412, Note_off_c, 4, 52, 127
1, 332412, Note_off_c, 1, 61, 127
1, 332412, Note_off_c, 7, 55, 127
1, 332443, Note_on_c, 2, 62, 127
1, 332443, Note_on_c, 6, 54, 127
1, 332443, Note_on_c, 10, 57, 127
1, 332443, Note_on_c, 2, 74, 127
1, 332443, Note_on_c, 10, 69, 127
1, 333650, Note_off_c, 2, 74, 127
1, 333650, Note_off_c, 10, 57, 127
1, 333650, Note_off_c, 6, 54, 127
1, 333650, Note_off_c, 2, 62, 127
1, 333812, Note_off_c, 10, 69, 127
1, 333819, Note_on_c, 10, 69, 127
1, 334071, Note_off_c, 10, 69, 127
1, 334094, Note_on_c, 7, 55, 127
1, 334094, Note_on_c, 2, 62, 127
1, 334094, Note_on_c, 10, 69, 127
1, 334094, Note_on_c, 7, 67, 127
1, 334495, Note_off_c, 10, 69, 127
1, 334560, Note_on_c, 12, 71, 127
1, 334934, Note_off_c, 7, 67, 127
1, 334934, Note_off_c, 2, 62, 127
1, 334934, Note_off_c, 7, 55, 127
1, 334946, Note_on_c, 7, 43, 127
1, 334946, Note_on_c, 7, 55, 127
1, 334946, Note_on_c, 12, 59, 127
1, 334946, Note_on_c, 4, 64, 127
1, 334961, Note_off_c, 12, 71, 127
1, 335399, Note_off_c, 4, 64, 127
1, 335417, Note_on_c, 6, 66, 127
1, 335669, Note_off_c, 6, 66, 127
1, 335669, Note_on_c, 2, 62, 127
1, 335870, Note_off_c, 12, 59, 127
1, 335870, Note_off_c, 7, 55, 127
1, 335870, Note_off_c, 7, 43, 127
1, 335885, Note_off_c, 2, 62, 127
1, 335921, Note_on_c, 2, 62, 127
1, 335921, Note_on_c, 10, 57, 127
1, 335921, Note_on_c, 4, 52, 127
1, 335921, Note_on_c, 7, 43, 127
1, 336022, Note_on_c, 1, 61, 127
1, 336038, Note_off_c, 2, 62, 127
1, 336122, Note_on_c, 2, 62, 127
1, 336131, Note_off_c, 1, 61, 127
1, 336220, Note_off_c, 2, 62, 127
1, 336223, Note_on_c, 1, 61, 127
1, 336320, Note_off_c, 10, 57, 127
1, 336324, Note_on_c, 2, 62, 127
1, 336330, Note_off_c, 1, 61, 127
1, 336422, Note_off_c, 2, 62, 127
1, 336425, Note_on_c, 1, 61, 127
1, 336523, Note_off_c, 1, 61, 127
1, 336526, Note_on_c, 12, 59, 127
1, 336624, Note_off_c, 12, 59, 127
1, 336626, Note_on_c, 10, 57, 127
1, 336719, Note_off_c, 7, 43, 127
1, 336719, Note_off_c, 4, 52, 127
1, 336724, Note_off_c, 10, 57, 127
1, 336727, Note_on_c, 6, 54, 127
1, 336727, Note_on_c, 2, 62, 127
1, 336727, Note_on_c, 6, 42, 127
1, 336727, Note_on_c, 10, 57, 127
1, 337525, Note_off_c, 10, 57, 127
1, 337525, Note_off_c, 6, 42, 127
1, 337525, Note_off_c, 6, 54, 127
1, 337534, Note_on_c, 6, 54, 127
1, 337534, Note_on_c, 12, 47, 127
1, 337718, Note_off_c, 2, 62, 127
1, 337735, Note_on_c, 1, 61, 127
1, 337934, Note_off_c, 1, 61, 127
1, 337937, Note_on_c, 12, 59, 127
1, 338136, Note_off_c, 12, 59, 127
1, 338138, Note_on_c, 10, 57, 127
1, 338311, Note_off_c, 6, 54, 127
1, 338337, Note_off_c, 10, 57, 127
1, 338340, Note_on_c, 8, 56, 127
1, 338374, Note_off_c, 12, 47, 127
1, 338542, Note_on_c, 6, 54, 127
1, 338739, Note_off_c, 8, 56, 127
1, 338741, Note_off_c, 6, 54, 127
1, 338743, Note_on_c, 4, 52, 127
1, 338743, Note_on_c, 7, 55, 127
1, 338942, Note_off_c, 4, 52, 127
1, 338945, Note_on_c, 2, 50, 127
1, 339144, Note_off_c, 2, 50, 127
1, 339146, Note_on_c, 10, 45, 127
1, 339146, Note_on_c, 1, 49, 127
1, 339146, Note_on_c, 10, 69, 127
1, 339146, Note_on_c, 4, 64, 127
1, 339146, Note_on_c, 1, 61, 127
1, 339541, Note_off_c, 7, 55, 127
1, 339550, Note_on_c, 4, 52, 127
1, 339944, Note_off_c, 1, 61, 127
1, 339944, Note_off_c, 4, 64, 127
1, 339944, Note_off_c, 10, 69, 127
1, 339944, Note_off_c, 1, 49, 127
1, 339949, Note_off_c, 4, 52, 127
1, 339953, Note_on_c, 2, 50, 127
1, 339953, Note_on_c, 10, 69, 127
1, 339953, Note_on_c, 6, 66, 127
1, 339953, Note_on_c, 2, 62, 127
1, 339953, Note_on_c, 6, 54, 127
1, 340352, Note_off_c, 6, 54, 127
1, 340356, Note_on_c, 7, 55, 127
1, 340751, Note_off_c, 2, 62, 127
1, 340751, Note_off_c, 6, 66, 127
1, 340751, Note_off_c, 10, 69, 127
1, 340751, Note_off_c, 2, 50, 127
1, 340755, Note_off_c, 7, 55, 127
1, 340759, Note_on_c, 4, 52, 127
1, 340759, Note_on_c, 10, 57, 127
1, 340759, Note_on_c, 4, 64, 127
1, 340759, Note_on_c, 10, 69, 127
1, 341515, Note_on_c, 6, 54, 127
1, 341515, Note_on_c, 1, 61, 127
1, 341542, Note_off_c, 4, 52, 127
1, 341890, Note_off_c, 6, 54, 127
1, 341908, Note_on_c, 7, 55, 127
1, 342313, Note_off_c, 1, 61, 127
1, 342359, Note_off_c, 10, 45, 127
1, 342369, Note_off_c, 10, 57, 127
1, 342435, Note_on_c, 6, 54, 127
1, 342435, Note_on_c, 2, 50, 127
1, 342435, Note_on_c, 2, 62, 127
1, 342447, Note_off_c, 4, 64, 127
1, 342454, Note_off_c, 7, 55, 127
1, 342855, Note_on_c, 6, 66, 127
1, 342928, Note_off_c, 2, 62, 127
1, 342983, Note_off_c, 6, 66, 127
1, 342989, Note_on_c, 2, 62, 127
1, 343069, Note_off_c, 10, 69, 127
1, 343117, Note_off_c, 2, 62, 127
1, 343124, Note_on_c, 2, 62, 127
1, 343233, Note_off_c, 2, 50, 127
1, 343233, Note_off_c, 6, 54, 127
1, 343252, Note_off_c, 2, 62, 127
1, 343258, Note_on_c, 6, 66, 127
1, 343386, Note_off_c, 6, 66, 127
1, 343393, Note_on_c, 2, 62, 127
1, 343521, Note_off_c, 2, 62, 127
1, 343527, Note_on_c, 1, 61, 127
1, 343655, Note_off_c, 1, 61, 127
1, 343661, Note_on_c, 4, 64, 127
1, 343789, Note_off_c, 4, 64, 127
1, 343796, Note_on_c, 1, 61, 127
1, 343924, Note_off_c, 1, 61, 127
1, 343930, Note_on_c, 1, 61, 127
1, 344058, Note_off_c, 1, 61, 127
1, 344065, Note_on_c, 4, 64, 127
1, 344193, Note_off_c, 4, 64, 127
1, 344199, Note_on_c, 1, 61, 127
1, 344327, Note_off_c, 1, 61, 127
1, 344333, Note_on_c, 2, 62, 127
1, 344461, Note_off_c, 2, 62, 127
1, 344468, Note_on_c, 6, 66, 127
1, 344596, Note_off_c, 6, 66, 127
1, 344602, Note_on_c, 2, 62, 127
1, 344730, Note_off_c, 2, 62, 127
1, 344737, Note_on_c, 2, 62, 127
1, 344865, Note_off_c, 2, 62, 127
1, 344871, Note_on_c, 6, 66, 127
1, 344999, Note_off_c, 6, 66, 127
1, 345005, Note_on_c, 2, 62, 127
1, 345133, Note_off_c, 2, 62, 127
1, 345140, Note_on_c, 1, 61, 127
1, 345268, Note_off_c, 1, 61, 127
1, 345274, Note_on_c, 4, 64, 127
1, 345402, Note_off_c, 4, 64, 127
1, 345409, Note_on_c, 1, 61, 127
1, 345537, Note_off_c, 1, 61, 127
1, 345543, Note_on_c, 1, 61, 127
1, 345671, Note_off_c, 1, 61, 127
1, 345677, Note_on_c, 4, 64, 127
1, 345805, Note_off_c, 4, 64, 127
1, 345812, Note_on_c, 1, 61, 127
1, 345940, Note_off_c, 1, 61, 127
1, 345946, Note_on_c, 10, 57, 127
1, 345946, Note_on_c, 10, 69, 127
1, 346074, Note_off_c, 10, 69, 127
1, 346081, Note_on_c, 1, 73, 127
1, 346208, Note_off_c, 10, 57, 127
1, 346209, Note_off_c, 1, 73, 127
1, 346215, Note_on_c, 12, 59, 127
1, 346215, Note_on_c, 10, 69, 127
1, 346343, Note_off_c, 10, 69, 127
1, 346343, Note_off_c, 12, 59, 127
1, 346349, Note_on_c, 1, 61, 127
1, 346349, Note_on_c, 10, 69, 127
1, 346477, Note_off_c, 10, 69, 127
1, 346484, Note_on_c, 1, 73, 127
1, 346611, Note_off_c, 1, 61, 127
1, 346612, Note_off_c, 1, 73, 127
1, 346618, Note_on_c, 2, 62, 127
1, 346618, Note_on_c, 10, 69, 127
1, 346746, Note_off_c, 10, 69, 127
1, 346746, Note_off_c, 2, 62, 127
1, 346753, Note_on_c, 4, 64, 127
1, 346753, Note_on_c, 8, 68, 127
1, 346881, Note_off_c, 8, 68, 127
1, 346887, Note_on_c, 12, 71, 127
1, 347015, Note_off_c, 12, 71, 127
1, 347015, Note_off_c, 4, 64, 127
1, 347021, Note_on_c, 12, 59, 127
1, 347021, Note_on_c, 8, 68, 127
1, 347149, Note_off_c, 8, 68, 127
1, 347149, Note_off_c, 12, 59, 127
1, 347156, Note_on_c, 4, 52, 127
1, 347156, Note_on_c, 8, 68, 127
1, 347284, Note_off_c, 8, 68, 127
1, 347290, Note_on_c, 12, 71, 127
1, 347418, Note_off_c, 12, 71, 127
1, 347418, Note_off_c, 4, 52, 127
1, 347425, Note_on_c, 4, 64, 127
1, 347425, Note_on_c, 8, 68, 127
1, 347553, Note_off_c, 8, 68, 127
1, 347553, Note_off_c, 4, 64, 127
1, 347559, Note_on_c, 10, 57, 127
1, 347559, Note_on_c, 10, 69, 127
1, 347687, Note_off_c, 10, 69, 127
1, 347693, Note_on_c, 1, 73, 127
1, 347821, Note_off_c, 1, 73, 127
1, 347821, Note_off_c, 10, 57, 127
1, 347828, Note_on_c, 12, 59, 127
1, 347828, Note_on_c, 10, 69, 127
1, 347956, Note_off_c, 10, 69, 127
1, 347956, Note_off_c, 12, 59, 127
1, 347962, Note_on_c, 1, 61, 127
1, 347962, Note_on_c, 10, 69, 127
1, 348090, Note_off_c, 10, 69, 127
1, 348097, Note_on_c, 1, 73, 127
1, 348224, Note_off_c, 1, 61, 127
1, 348225, Note_off_c, 1, 73, 127
1, 348231, Note_on_c, 2, 62, 127
1, 348231, Note_on_c, 10, 69, 127
1, 348359, Note_off_c, 10, 69, 127
1, 348359, Note_off_c, 2, 62, 127
1, 348365, Note_on_c, 4, 64, 127
1, 348365, Note_on_c, 8, 68, 127
1, 348493, Note_off_c, 8, 68, 127
1, 348500, Note_on_c, 12, 71, 127
1, 348627, Note_off_c, 4, 64, 127
1, 348628, Note_off_c, 12, 71, 127
1, 348634, Note_on_c, 12, 59, 127
1, 348634, Note_on_c, 8, 68, 127
1, 348762, Note_off_c, 8, 68, 127
1, 348762, Note_off_c, 12, 59, 127
1, 348769, Note_on_c, 4, 52, 127
1, 348769, Note_on_c, 8, 68, 127
1, 348897, Note_off_c, 8, 68, 127
1, 348903, Note_on_c, 12, 71, 127
1, 349031, Note_off_c, 12, 71, 127
1, 349031, Note_off_c, 4, 52, 127
1, 349037, Note_on_c, 4, 64, 127
1, 349037, Note_on_c, 8, 68, 127
1, 349165, Note_off_c, 8, 68, 127
1, 349165, Note_off_c, 4, 64, 127
1, 349172, Note_on_c, 1, 61, 127
1, 349172, Note_on_c, 10, 69, 127
1, 349300, Note_off_c, 10, 69, 127
1, 349306, Note_on_c, 1, 73, 127
1, 349434, Note_off_c, 1, 73, 127
1, 349434, Note_off_c, 1, 61, 127
1, 349441, Note_on_c, 1, 61, 127
1, 349441, Note_on_c, 10, 69, 127
1, 349569, Note_off_c, 10, 69, 127
1, 349569, Note_off_c, 1, 61, 127
1, 349575, Note_on_c, 2, 62, 127
1, 349575, Note_on_c, 6, 66, 127
1, 349701, Note_off_c, 6, 66, 127
1, 349703, Note_off_c, 2, 62, 127
1, 349709, Note_on_c, 6, 66, 127
1, 349837, Note_off_c, 6, 66, 127
1, 349844, Note_on_c, 2, 62, 127
1, 349844, Note_on_c, 6, 66, 127
1, 349972, Note_off_c, 6, 66, 127
1, 349972, Note_off_c, 2, 62, 127
1, 349978, Note_on_c, 12, 59, 127
1, 349978, Note_on_c, 7, 67, 127
1, 350106, Note_off_c, 7, 67, 127
1, 350113, Note_on_c, 12, 71, 127
1, 350240, Note_off_c, 12, 59, 127
1, 350241, Note_off_c, 12, 71, 127
1, 350247, Note_on_c, 12, 59, 127
1, 350247, Note_on_c, 7, 67, 127
1, 350375, Note_off_c, 7, 67, 127
1, 350375, Note_off_c, 12, 59, 127
1, 350381, Note_on_c, 1, 61, 127
1, 350381, Note_on_c, 4, 64, 127
1, 350507, Note_off_c, 4, 64, 127
1, 350509, Note_off_c, 1, 61, 127
1, 350516, Note_on_c, 4, 64, 127
1, 350644, Note_off_c, 4, 64, 127
1, 350650, Note_on_c, 1, 61, 127
1, 350650, Note_on_c, 4, 64, 127
1, 350778, Note_off_c, 4, 64, 127
1, 350778, Note_off_c, 1, 61, 127
1, 350785, Note_on_c, 10, 57, 127
1, 350785, Note_on_c, 6, 66, 127
1, 350913, Note_off_c, 6, 66, 127
1, 350919, Note_on_c, 10, 69, 127
1, 351047, Note_off_c, 10, 69, 127
1, 351047, Note_off_c, 10, 57, 127
1, 351053, Note_on_c, 10, 57, 127
1, 351053, Note_on_c, 6, 66, 127
1, 351181, Note_off_c, 6, 66, 127
1, 351181, Note_off_c, 10, 57, 127
1, 351188, Note_on_c, 12, 59, 127
1, 351188, Note_on_c, 2, 62, 127
1, 351314, Note_off_c, 2, 62, 127
1, 351316, Note_off_c, 12, 59, 127
1, 351322, Note_on_c, 2, 62, 127
1, 351450, Note_off_c, 2, 62, 127
1, 351457, Note_on_c, 12, 59, 127
1, 351457, Note_on_c, 2, 62, 127
1, 351585, Note_off_c, 2, 62, 127
1, 351585, Note_off_c, 12, 59, 127
1, 351591, Note_on_c, 7, 55, 127
1, 351591, Note_on_c, 4, 64, 127
1, 351719, Note_off_c, 4, 64, 127
1, 351725, Note_on_c, 7, 67, 127
1, 351853, Note_off_c, 7, 67, 127
1, 351853, Note_off_c, 7, 55, 127
1, 351860, Note_on_c, 7, 55, 127
1, 351860, Note_on_c, 4, 64, 127
1, 351988, Note_off_c, 4, 64, 127
1, 351988, Note_off_c, 7, 55, 127
1, 351994, Note_on_c, 10, 57, 127
1, 351994, Note_on_c, 1, 61, 127
1, 352120, Note_off_c, 1, 61, 127
1, 352122, Note_off_c, 10, 57, 127
1, 352129, Note_on_c, 1, 61, 127
1, 352257, Note_off_c, 1, 61, 127
1, 352263, Note_on_c, 10, 57, 127
1, 352263, Note_on_c, 1, 61, 127
1, 352391, Note_off_c, 1, 61, 127
1, 352391, Note_off_c, 10, 57, 127
1, 352397, Note_on_c, 2, 50, 127
1, 352397, Note_on_c, 6, 54, 127
1, 352397, Note_on_c, 2, 62, 127
1, 352523, Note_off_c, 6, 54, 127
1, 352525, Note_off_c, 2, 50, 127
1, 352532, Note_on_c, 6, 54, 127
1, 352659, Note_off_c, 2, 62, 127
1, 352660, Note_off_c, 6, 54, 127
1, 352666, Note_on_c, 2, 50, 127
1, 352666, Note_on_c, 7, 55, 127
1, 352666, Note_on_c, 4, 64, 127
1, 352794, Note_off_c, 4, 64, 127
1, 352794, Note_off_c, 7, 55, 127
1, 352794, Note_off_c, 2, 50, 127
1, 352801, Note_on_c, 2, 50, 127
1, 352801, Note_on_c, 10, 57, 127
1, 352801, Note_on_c, 6, 66, 127
1, 352929, Note_off_c, 2, 50, 127
1, 352935, Note_on_c, 6, 54, 127
1, 353063, Note_off_c, 6, 54, 127
1, 353063, Note_off_c, 6, 66, 127
1, 353063, Note_off_c, 10, 57, 127
1, 353069, Note_on_c, 2, 50, 127
1, 353069, Note_on_c, 12, 59, 127
1, 353069, Note_on_c, 8, 68, 127
1, 353197, Note_off_c, 8, 68, 127
1, 353197, Note_off_c, 12, 59, 127
1, 353197, Note_off_c, 2, 50, 127
1, 353204, Note_on_c, 1, 49, 127
1, 353204, Note_on_c, 4, 64, 127
1, 353204, Note_on_c, 10, 69, 127
1, 353332, Note_off_c, 1, 49, 127
1, 353338, Note_on_c, 4, 52, 127
1, 353456, Note_off_c, 4, 64, 127
1, 353466, Note_off_c, 4, 52, 127
1, 353473, Note_on_c, 1, 49, 127
1, 353473, Note_on_c, 4, 64, 127
1, 353601, Note_off_c, 4, 64, 127
1, 353601, Note_off_c, 1, 49, 127
1, 353603, Note_off_c, 10, 69, 127
1, 353607, Note_on_c, 1, 49, 127
1, 353607, Note_on_c, 10, 57, 127
1, 353735, Note_off_c, 1, 49, 127
1, 353741, Note_on_c, 4, 52, 127
1, 353869, Note_off_c, 4, 52, 127
1, 353869, Note_off_c, 10, 57, 127
1, 353876, Note_on_c, 1, 49, 127
1, 353876, Note_on_c, 10, 69, 127
1, 354004, Note_off_c, 10, 69, 127
1, 354004, Note_off_c, 1, 49, 127
1, 354010, Note_on_c, 2, 50, 127
1, 354010, Note_on_c, 2, 62, 127
1, 354010, Note_on_c, 6, 66, 127
1, 354138, Note_off_c, 2, 50, 127
1, 354145, Note_on_c, 6, 54, 127
1, 354272, Note_off_c, 6, 66, 127
1, 354272, Note_off_c, 2, 62, 127
1, 354273, Note_off_c, 6, 54, 127
1, 354279, Note_on_c, 2, 50, 127
1, 354279, Note_on_c, 4, 64, 127
1, 354279, Note_on_c, 8, 68, 127
1, 354407, Note_off_c, 8, 68, 127
1, 354407, Note_off_c, 4, 64, 127
1, 354407, Note_off_c, 2, 50, 127
1, 354413, Note_on_c, 2, 50, 127
1, 354413, Note_on_c, 6, 66, 127
1, 354413, Note_on_c, 10, 69, 127
1, 354541, Note_off_c, 2, 50, 127
1, 354548, Note_on_c, 6, 54, 127
1, 354675, Note_off_c, 10, 69, 127
1, 354675, Note_off_c, 6, 66, 127
1, 354676, Note_off_c, 6, 54, 127
1, 354682, Note_on_c, 2, 50, 127
1, 354682, Note_on_c, 8, 68, 127
1, 354682, Note_on_c, 12, 71, 127
1, 354810, Note_off_c, 12, 71, 127
1, 354810, Note_off_c, 8, 68, 127
1, 354810, Note_off_c, 2, 50, 127
1, 354817, Note_on_c, 1, 49, 127
1, 354817, Note_on_c, 4, 64, 127
1, 354817, Note_on_c, 10, 69, 127
1, 354945, Note_off_c, 1, 49, 127
1, 354951, Note_on_c, 4, 52, 127
1, 355069, Note_off_c, 4, 64, 127
1, 355079, Note_off_c, 4, 52, 127
1, 355085, Note_on_c, 1, 49, 127
1, 355085, Note_on_c, 4, 64, 127
1, 355213, Note_off_c, 4, 64, 127
1, 355213, Note_off_c, 1, 49, 127
1, 355216, Note_off_c, 10, 69, 127
1, 355220, Note_on_c, 1, 49, 127
1, 355220, Note_on_c, 10, 57, 127
1, 355348, Note_off_c, 1, 49, 127
1, 355354, Note_on_c, 4, 52, 127
1, 355482, Note_off_c, 4, 52, 127
1, 355482, Note_off_c, 10, 57, 127
1, 355489, Note_on_c, 1, 49, 127
1, 355489, Note_on_c, 10, 69, 127
1, 355617, Note_off_c, 10, 69, 127
1, 355617, Note_off_c, 1, 49, 127
1, 355623, Note_on_c, 2, 50, 127
1, 355623, Note_on_c, 6, 66, 127
1, 355751, Note_off_c, 6, 66, 127
1, 355757, Note_on_c, 10, 69, 127
1, 355885, Note_off_c, 10, 69, 127
1, 355885, Note_off_c, 2, 50, 127
1, 355892, Note_on_c, 4, 52, 127
1, 355892, Note_on_c, 1, 61, 127
1, 356020, Note_off_c, 1, 61, 127
1, 356020, Note_off_c, 4, 52, 127
1, 356026, Note_on_c, 6, 54, 127
1, 356026, Note_on_c, 2, 62, 127
1, 356154, Note_off_c, 2, 62, 127
1, 356161, Note_on_c, 6, 66, 127
1, 356288, Note_off_c, 6, 54, 127
1, 356289, Note_off_c, 6, 66, 127
1, 356295, Note_on_c, 2, 50, 127
1, 356295, Note_on_c, 10, 57, 127
1, 356423, Note_off_c, 10, 57, 127
1, 356423, Note_off_c, 2, 50, 127
1, 356429, Note_on_c, 7, 55, 127
1, 356429, Note_on_c, 12, 59, 127
1, 356555, Note_off_c, 12, 59, 127
1, 356557, Note_off_c, 7, 55, 127
1, 356564, Note_on_c, 12, 59, 127
1, 356692, Note_off_c, 12, 59, 127
1, 356698, Note_on_c, 12, 47, 127
1, 356698, Note_on_c, 2, 62, 127
1, 356826, Note_off_c, 2, 62, 127
1, 356826, Note_off_c, 12, 47, 127
1, 356833, Note_on_c, 2, 50, 127
1, 356833, Note_on_c, 12, 59, 127
1, 356961, Note_off_c, 2, 50, 127
1, 356967, Note_on_c, 7, 55, 127
1, 357095, Note_off_c, 7, 55, 127
1, 357095, Note_off_c, 12, 59, 127
1, 357101, Note_on_c, 7, 43, 127
1, 357101, Note_on_c, 2, 62, 127
1, 357229, Note_off_c, 2, 62, 127
1, 357229, Note_off_c, 7, 43, 127
1, 357236, Note_on_c, 4, 52, 127
1, 357236, Note_on_c, 7, 67, 127
1, 357364, Note_off_c, 7, 67, 127
1, 357370, Note_on_c, 12, 71, 127
1, 357498, Note_off_c, 12, 71, 127
1, 357498, Note_off_c, 4, 52, 127
1, 357505, Note_on_c, 6, 54, 127
1, 357505, Note_on_c, 3, 63, 127
1, 357633, Note_off_c, 3, 63, 127
1, 357633, Note_off_c, 6, 54, 127
1, 357639, Note_on_c, 7, 55, 127
1, 357639, Note_on_c, 4, 64, 127
1, 357767, Note_off_c, 4, 64, 127
1, 357773, Note_on_c, 7, 67, 127
1, 357901, Note_off_c, 7, 67, 127
1, 357901, Note_off_c, 7, 55, 127
1, 357908, Note_on_c, 4, 52, 127
1, 357908, Note_on_c, 12, 59, 127
1, 358036, Note_off_c, 12, 59, 127
1, 358036, Note_off_c, 4, 52, 127
1, 358042, Note_on_c, 10, 57, 127
1, 358042, Note_on_c, 1, 61, 127
1, 358168, Note_off_c, 1, 61, 127
1, 358170, Note_off_c, 10, 57, 127
1, 358177, Note_on_c, 1, 61, 127
1, 358305, Note_off_c, 1, 61, 127
1, 358311, Note_on_c, 1, 49, 127
1, 358311, Note_on_c, 4, 64, 127
1, 358439, Note_off_c, 4, 64, 127
1, 358439, Note_off_c, 1, 49, 127
1, 358445, Note_on_c, 4, 52, 127
1, 358445, Note_on_c, 1, 61, 127
1, 358573, Note_off_c, 4, 52, 127
1, 358580, Note_on_c, 10, 57, 127
1, 358707, Note_off_c, 1, 61, 127
1, 358708, Note_off_c, 10, 57, 127
1, 358714, Note_on_c, 10, 45, 127
1, 358714, Note_on_c, 4, 64, 127
1, 358842, Note_off_c, 4, 64, 127
1, 358842, Note_off_c, 10, 45, 127
1, 358849, Note_on_c, 6, 54, 127
1, 358849, Note_on_c, 10, 69, 127
1, 358977, Note_off_c, 10, 69, 127
1, 358983, Note_on_c, 1, 73, 127
1, 359111, Note_off_c, 1, 73, 127
1, 359111, Note_off_c, 6, 54, 127
1, 359117, Note_on_c, 8, 56, 127
1, 359117, Note_on_c, 5, 65, 127
1, 359245, Note_off_c, 5, 65, 127
1, 359245, Note_off_c, 8, 56, 127
1, 359252, Note_on_c, 10, 57, 127
1, 359252, Note_on_c, 6, 66, 127
1, 359380, Note_off_c, 6, 66, 127
1, 359386, Note_on_c, 10, 69, 127
1, 359514, Note_off_c, 10, 69, 127
1, 359514, Note_off_c, 10, 57, 127
1, 359521, Note_on_c, 6, 54, 127
1, 359521, Note_on_c, 1, 61, 127
1, 359649, Note_off_c, 1, 61, 127
1, 359649, Note_off_c, 6, 54, 127
1, 359655, Note_on_c, 12, 59, 127
1, 359655, Note_on_c, 2, 62, 127
1, 359783, Note_off_c, 2, 62, 127
1, 359789, Note_on_c, 6, 66, 127
1, 359907, Note_off_c, 12, 59, 127
1, 359917, Note_off_c, 6, 66, 127
1, 359924, Note_on_c, 12, 59, 127
1, 360052, Note_off_c, 12, 59, 127
1, 360058, Note_on_c, 7, 67, 127
1, 360193, Note_on_c, 10, 57, 127
1, 360321, Note_off_c, 10, 57, 127
1, 360327, Note_on_c, 7, 55, 127
1, 360455, Note_off_c, 7, 55, 127
1, 360461, Note_on_c, 10, 57, 127
1, 360589, Note_off_c, 10, 57, 127
1, 360596, Note_on_c, 2, 50, 127
1, 360723, Note_off_c, 7, 67, 127
1, 360724, Note_off_c, 2, 50, 127
1, 360730, Note_on_c, 2, 62, 127
1, 360730, Note_on_c, 6, 66, 127
1, 360858, Note_off_c, 6, 66, 127
1, 360858, Note_off_c, 2, 62, 127
1, 360865, Note_on_c, 2, 62, 127
1, 360865, Note_on_c, 4, 64, 127
1, 360993, Note_off_c, 4, 64, 127
1, 360999, Note_on_c, 10, 69, 127
1, 361127, Note_off_c, 10, 69, 127
1, 361127, Note_off_c, 2, 62, 127
1, 361133, Note_on_c, 1, 61, 127
1, 361133, Note_on_c, 4, 64, 127
1, 361239, Note_off_c, 4, 64, 127
1, 361261, Note_off_c, 1, 61, 127
1, 361268, Note_on_c, 2, 62, 127
1, 361268, Note_on_c, 6, 66, 127
1, 361268, Note_on_c, 2, 74, 127
1, 361396, Note_off_c, 2, 74, 127
1, 361411, Note_on_c, 6, 78, 127
1, 361530, Note_off_c, 6, 66, 127
1, 361530, Note_off_c, 2, 62, 127
1, 361539, Note_off_c, 6, 78, 127
1, 361545, Note_on_c, 2, 74, 127
1, 361545, Note_on_c, 7, 67, 127
1, 361545, Note_on_c, 4, 64, 127
1, 361673, Note_off_c, 4, 64, 127
1, 361673, Note_off_c, 7, 67, 127
1, 361673, Note_off_c, 2, 74, 127
1, 361679, Note_on_c, 2, 74, 127
1, 361679, Note_on_c, 10, 69, 127
1, 361679, Note_on_c, 6, 66, 127
1, 361807, Note_off_c, 2, 74, 127
1, 361814, Note_on_c, 6, 78, 127
1, 361941, Note_off_c, 6, 66, 127
1, 361941, Note_off_c, 10, 69, 127
1, 361942, Note_off_c, 6, 78, 127
1, 361948, Note_on_c, 2, 74, 127
1, 361948, Note_on_c, 12, 71, 127
1, 361948, Note_on_c, 8, 68, 127
1, 362076, Note_off_c, 8, 68, 127
1, 362076, Note_off_c, 12, 71, 127
1, 362076, Note_off_c, 2, 74, 127
1, 362083, Note_on_c, 1, 73, 127
1, 362083, Note_on_c, 10, 69, 127
1, 362211, Note_off_c, 1, 73, 127
1, 362217, Note_on_c, 4, 76, 127
1, 362345, Note_off_c, 4, 76, 127
1, 362345, Note_off_c, 10, 69, 127
1, 362351, Note_on_c, 1, 73, 127
1, 362351, Note_on_c, 4, 64, 127
1, 362479, Note_off_c, 4, 64, 127
1, 362479, Note_off_c, 1, 73, 127
1, 362486, Note_on_c, 1, 73, 127
1, 362486, Note_on_c, 10, 57, 127
1, 362614, Note_off_c, 1, 73, 127
1, 362620, Note_on_c, 4, 76, 127
1, 362748, Note_off_c, 4, 76, 127
1, 362748, Note_off_c, 10, 57, 127
1, 362755, Note_on_c, 1, 73, 127
1, 362755, Note_on_c, 10, 69, 127
1, 362883, Note_off_c, 10, 69, 127
1, 362883, Note_off_c, 1, 73, 127
1, 362889, Note_on_c, 2, 74, 127
1, 362889, Note_on_c, 6, 66, 127
1, 362889, Note_on_c, 2, 62, 127
1, 363017, Note_off_c, 2, 74, 127
1, 363023, Note_on_c, 6, 78, 127
1, 363151, Note_off_c, 6, 78, 127
1, 363151, Note_off_c, 2, 62, 127
1, 363151, Note_off_c, 6, 66, 127
1, 363158, Note_on_c, 2, 74, 127
1, 363158, Note_on_c, 7, 67, 127
1, 363158, Note_on_c, 4, 64, 127
1, 363286, Note_off_c, 4, 64, 127
1, 363286, Note_off_c, 7, 67, 127
1, 363286, Note_off_c, 2, 74, 127
1, 363292, Note_on_c, 2, 74, 127
1, 363292, Note_on_c, 10, 69, 127
1, 363292, Note_on_c, 6, 66, 127
1, 363420, Note_off_c, 2, 74, 127
1, 363427, Note_on_c, 6, 78, 127
1, 363554, Note_off_c, 6, 66, 127
1, 363554, Note_off_c, 10, 69, 127
1, 363555, Note_off_c, 6, 78, 127
1, 363561, Note_on_c, 2, 74, 127
1, 363561, Note_on_c, 12, 71, 127
1, 363561, Note_on_c, 8, 68, 127
1, 363689, Note_off_c, 8, 68, 127
1, 363689, Note_off_c, 12, 71, 127
1, 363689, Note_off_c, 2, 74, 127
1, 363695, Note_on_c, 1, 73, 127
1, 363695, Note_on_c, 10, 69, 127
1, 363823, Note_off_c, 1, 73, 127
1, 363830, Note_on_c, 4, 76, 127
1, 363957, Note_off_c, 10, 69, 127
1, 363958, Note_off_c, 4, 76, 127
1, 363964, Note_on_c, 1, 73, 127
1, 363964, Note_on_c, 4, 64, 127
1, 364092, Note_off_c, 4, 64, 127
1, 364092, Note_off_c, 1, 73, 127
1, 364099, Note_on_c, 1, 73, 127
1, 364099, Note_on_c, 10, 57, 127
1, 364227, Note_off_c, 1, 73, 127
1, 364233, Note_on_c, 4, 76, 127
1, 364361, Note_off_c, 4, 76, 127
1, 364361, Note_off_c, 10, 57, 127
1, 364376, Note_on_c, 6, 66, 127
1, 364376, Note_on_c, 10, 69, 127
1, 364376, Note_on_c, 3, 75, 127
1, 364504, Note_off_c, 3, 75, 127
1, 364504, Note_off_c, 10, 69, 127
1, 364504, Note_off_c, 6, 66, 127
1, 364510, Note_on_c, 4, 64, 127
1, 364510, Note_on_c, 7, 67, 127
1, 364510, Note_on_c, 4, 76, 127
1, 364638, Note_off_c, 4, 76, 127
1, 364645, Note_on_c, 7, 79, 127
1, 364772, Note_off_c, 7, 67, 127
1, 364772, Note_off_c, 4, 64, 127
1, 364773, Note_off_c, 7, 79, 127
1, 364779, Note_on_c, 6, 66, 127
1, 364779, Note_on_c, 10, 69, 127
1, 364779, Note_on_c, 4, 76, 127
1, 364907, Note_off_c, 4, 76, 127
1, 364907, Note_off_c, 10, 69, 127
1, 364907, Note_off_c, 6, 66, 127
1, 364913, Note_on_c, 7, 67, 127
1, 364913, Note_on_c, 12, 71, 127
1, 364913, Note_on_c, 4, 76, 127
1, 365041, Note_off_c, 4, 76, 127
1, 365048, Note_on_c, 7, 79, 127
1, 365175, Note_off_c, 12, 71, 127
1, 365175, Note_off_c, 7, 67, 127
1, 365176, Note_off_c, 7, 79, 127
1, 365182, Note_on_c, 10, 69, 127
1, 365182, Note_on_c, 0, 72, 127
1, 365182, Note_on_c, 4, 76, 127
1, 365310, Note_off_c, 4, 76, 127
1, 365310, Note_off_c, 0, 72, 127
1, 365310, Note_off_c, 10, 69, 127
1, 365317, Note_on_c, 12, 71, 127
1, 365317, Note_on_c, 3, 75, 127
1, 365445, Note_off_c, 3, 75, 127
1, 365451, Note_on_c, 6, 78, 127
1, 365579, Note_off_c, 6, 78, 127
1, 365579, Note_off_c, 12, 71, 127
1, 365585, Note_on_c, 6, 66, 127
1, 365585, Note_on_c, 3, 75, 127
1, 365713, Note_off_c, 3, 75, 127
1, 365713, Note_off_c, 6, 66, 127
1, 365720, Note_on_c, 12, 59, 127
1, 365720, Note_on_c, 3, 75, 127
1, 365848, Note_off_c, 3, 75, 127
1, 365854, Note_on_c, 6, 78, 127
1, 365982, Note_off_c, 6, 78, 127
1, 365982, Note_off_c, 12, 59, 127
1, 365989, Note_on_c, 12, 71, 127
1, 365989, Note_on_c, 3, 75, 127
1, 366117, Note_off_c, 3, 75, 127
1, 366117, Note_off_c, 12, 71, 127
1, 366123, Note_on_c, 4, 64, 127
1, 366123, Note_on_c, 7, 67, 127
1, 366123, Note_on_c, 4, 76, 127
1, 366251, Note_off_c, 4, 76, 127
1, 366257, Note_on_c, 7, 79, 127
1, 366385, Note_off_c, 7, 79, 127
1, 366385, Note_off_c, 7, 67, 127
1, 366385, Note_off_c, 4, 64, 127
1, 366392, Note_on_c, 6, 66, 127
1, 366392, Note_on_c, 10, 69, 127
1, 366392, Note_on_c, 4, 76, 127
1, 366520, Note_off_c, 4, 76, 127
1, 366520, Note_off_c, 10, 69, 127
1, 366520, Note_off_c, 6, 66, 127
1, 366526, Note_on_c, 7, 67, 127
1, 366526, Note_on_c, 12, 71, 127
1, 366526, Note_on_c, 4, 76, 127
1, 366654, Note_off_c, 4, 76, 127
1, 366661, Note_on_c, 7, 79, 127
1, 366788, Note_off_c, 12, 71, 127
1, 366788, Note_off_c, 7, 67, 127
1, 366789, Note_off_c, 7, 79, 127
1, 366795, Note_on_c, 10, 69, 127
1, 366795, Note_on_c, 0, 72, 127
1, 366795, Note_on_c, 4, 76, 127
1, 366923, Note_off_c, 4, 76, 127
1, 366923, Note_off_c, 0, 72, 127
1, 366923, Note_off_c, 10, 69, 127
1, 366929, Note_on_c, 12, 71, 127
1, 366929, Note_on_c, 3, 75, 127
1, 367057, Note_off_c, 3, 75, 127
1, 367064, Note_on_c, 6, 78, 127
1, 367191, Note_off_c, 12, 71, 127
1, 367192, Note_off_c, 6, 78, 127
1, 367198, Note_on_c, 6, 66, 127
1, 367198, Note_on_c, 3, 75, 127
1, 367326, Note_off_c, 3, 75, 127
1, 367326, Note_off_c, 6, 66, 127
1, 367333, Note_on_c, 12, 59, 127
1, 367333, Note_on_c, 3, 75, 127
1, 367461, Note_off_c, 3, 75, 127
1, 367467, Note_on_c, 6, 78, 127
1, 367595, Note_off_c, 6, 78, 127
1, 367595, Note_off_c, 12, 59, 127
1, 367601, Note_on_c, 12, 71, 127
1, 367601, Note_on_c, 3, 75, 127
1, 367706, Note_off_c, 3, 75, 127
1, 367706, Note_off_c, 12, 71, 127
1, 367744, Note_on_c, 7, 79, 127
1, 367744, Note_on_c, 12, 71, 127
1, 367744, Note_on_c, 7, 67, 127
1, 367872, Note_off_c, 7, 79, 127
1, 367879, Note_on_c, 12, 83, 127
1, 368006, Note_off_c, 7, 67, 127
1, 368006, Note_off_c, 12, 71, 127
1, 368007, Note_off_c, 12, 83, 127
1, 368013, Note_on_c, 7, 79, 127
1, 368013, Note_on_c, 0, 72, 127
1, 368013, Note_on_c, 10, 69, 127
1, 368141, Note_off_c, 10, 69, 127
1, 368141, Note_off_c, 0, 72, 127
1, 368141, Note_off_c, 7, 79, 127
1, 368147, Note_on_c, 7, 79, 127
1, 368147, Note_on_c, 2, 74, 127
1, 368147, Note_on_c, 12, 71, 127
1, 368275, Note_off_c, 7, 79, 127
1, 368282, Note_on_c, 12, 83, 127
1, 368409, Note_off_c, 12, 71, 127
1, 368409, Note_off_c, 2, 74, 127
1, 368410, Note_off_c, 12, 83, 127
1, 368416, Note_on_c, 7, 79, 127
1, 368416, Note_on_c, 4, 76, 127
1, 368416, Note_on_c, 0, 72, 127
1, 368544, Note_off_c, 0, 72, 127
1, 368544, Note_off_c, 4, 76, 127
1, 368544, Note_off_c, 7, 79, 127
1, 368551, Note_on_c, 6, 78, 127
1, 368551, Note_on_c, 2, 74, 127
1, 368679, Note_off_c, 6, 78, 127
1, 368685, Note_on_c, 10, 81, 127
1, 368813, Note_off_c, 10, 81, 127
1, 368813, Note_off_c, 2, 74, 127
1, 368819, Note_on_c, 6, 78, 127
1, 368819, Note_on_c, 10, 69, 127
1, 368947, Note_off_c, 10, 69, 127
1, 368947, Note_off_c, 6, 78, 127
1, 368954, Note_on_c, 6, 78, 127
1, 368954, Note_on_c, 2, 62, 127
1, 369082, Note_off_c, 6, 78, 127
1, 369088, Note_on_c, 10, 81, 127
1, 369216, Note_off_c, 10, 81, 127
1, 369216, Note_off_c, 2, 62, 127
1, 369223, Note_on_c, 6, 78, 127
1, 369223, Note_on_c, 2, 74, 127
1, 369351, Note_off_c, 2, 74, 127
1, 369351, Note_off_c, 6, 78, 127
1, 369357, Note_on_c, 7, 79, 127
1, 369357, Note_on_c, 12, 71, 127
1, 369357, Note_on_c, 7, 67, 127
1, 369485, Note_off_c, 7, 79, 127
1, 369491, Note_on_c, 12, 83, 127
1, 369619, Note_off_c, 12, 83, 127
1, 369619, Note_off_c, 7, 67, 127
1, 369619, Note_off_c, 12, 71, 127
1, 369626, Note_on_c, 7, 79, 127
1, 369626, Note_on_c, 0, 72, 127
1, 369626, Note_on_c, 10, 69, 127
1, 369754, Note_off_c, 10, 69, 127
1, 369754, Note_off_c, 0, 72, 127
1, 369754, Note_off_c, 7, 79, 127
1, 369760, Note_on_c, 7, 79, 127
1, 369760, Note_on_c, 2, 74, 127
1, 369760, Note_on_c, 12, 71, 127
1, 369888, Note_off_c, 7, 79, 127
1, 369895, Note_on_c, 12, 83, 127
1, 370022, Note_off_c, 12, 71, 127
1, 370022, Note_off_c, 2, 74, 127
1, 370023, Note_off_c, 12, 83, 127
1, 370029, Note_on_c, 7, 79, 127
1, 370029, Note_on_c, 4, 76, 127
1, 370029, Note_on_c, 1, 73, 127
1, 370157, Note_off_c, 1, 73, 127
1, 370157, Note_off_c, 4, 76, 127
1, 370157, Note_off_c, 7, 79, 127
1, 370163, Note_on_c, 6, 78, 127
1, 370163, Note_on_c, 2, 74, 127
1, 370291, Note_off_c, 6, 78, 127
1, 370298, Note_on_c, 10, 81, 127
1, 370425, Note_off_c, 2, 74, 127
1, 370432, Note_on_c, 4, 76, 127
1, 370432, Note_on_c, 1, 73, 127
1, 370445, Note_off_c, 10, 81, 127
1, 370560, Note_off_c, 1, 73, 127
1, 370560, Note_off_c, 4, 76, 127
1, 370567, Note_on_c, 6, 78, 127
1, 370567, Note_on_c, 2, 74, 127
1, 370695, Note_off_c, 6, 78, 127
1, 370701, Note_on_c, 10, 81, 127
1, 370829, Note_off_c, 2, 74, 127
1, 370835, Note_on_c, 2, 74, 127
1, 370835, Note_on_c, 12, 71, 127
1, 370911, Note_off_c, 10, 81, 127
1, 370963, Note_off_c, 12, 71, 127
1, 370963, Note_off_c, 2, 74, 127
1, 370970, Note_on_c, 4, 76, 127
1, 370970, Note_on_c, 1, 73, 127
1, 371098, Note_off_c, 4, 76, 127
1, 371104, Note_on_c, 10, 81, 127
1, 371232, Note_off_c, 1, 73, 127
1, 371239, Note_on_c, 2, 74, 127
1, 371239, Note_on_c, 12, 71, 127
1, 371367, Note_off_c, 12, 71, 127
1, 371367, Note_off_c, 2, 74, 127
1, 371373, Note_on_c, 4, 76, 127
1, 371373, Note_on_c, 1, 73, 127
1, 371419, Note_off_c, 10, 81, 127
1, 371501, Note_off_c, 4, 76, 127
1, 371507, Note_on_c, 10, 81, 127
1, 371635, Note_off_c, 1, 73, 127
1, 371642, Note_on_c, 1, 73, 127
1, 371642, Note_on_c, 10, 69, 127
1, 371770, Note_off_c, 10, 69, 127
1, 371770, Note_off_c, 1, 73, 127
1, 371776, Note_on_c, 2, 74, 127
1, 371776, Note_on_c, 12, 71, 127
1, 371885, Note_off_c, 10, 81, 127
1, 371904, Note_off_c, 2, 74, 127
1, 371911, Note_on_c, 10, 81, 127
1, 372038, Note_off_c, 12, 71, 127
1, 372045, Note_on_c, 1, 73, 127
1, 372045, Note_on_c, 10, 69, 127
1, 372173, Note_off_c, 10, 69, 127
1, 372173, Note_off_c, 1, 73, 127
1, 372179, Note_on_c, 2, 74, 127
1, 372179, Note_on_c, 12, 71, 127
1, 372307, Note_off_c, 2, 74, 127
1, 372310, Note_off_c, 10, 81, 127
1, 372314, Note_on_c, 10, 81, 127
1, 372441, Note_off_c, 12, 71, 127
1, 372442, Note_off_c, 10, 81, 127
1, 372448, Note_on_c, 8, 80, 127
1, 372448, Note_on_c, 4, 64, 127
1, 372576, Note_off_c, 4, 64, 127
1, 372576, Note_off_c, 8, 80, 127
1, 372583, Note_on_c, 10, 81, 127
1, 372583, Note_on_c, 10, 69, 127
1, 372583, Note_on_c, 1, 73, 127
1, 372583, Note_on_c, 10, 45, 127
1, 372711, Note_off_c, 10, 45, 127
1, 372717, Note_on_c, 1, 49, 127
1, 372845, Note_off_c, 1, 49, 127
1, 372845, Note_off_c, 1, 73, 127
1, 372845, Note_off_c, 10, 69, 127
1, 372845, Note_off_c, 10, 81, 127
1, 372851, Note_on_c, 12, 71, 127
1, 372851, Note_on_c, 10, 45, 127
1, 372979, Note_off_c, 10, 45, 127
1, 372979, Note_off_c, 12, 71, 127
1, 372986, Note_on_c, 1, 73, 127
1, 372986, Note_on_c, 4, 64, 127
1, 372986, Note_on_c, 10, 45, 127
1, 373114, Note_off_c, 10, 45, 127
1, 373120, Note_on_c, 1, 49, 127
1, 373248, Note_off_c, 1, 49, 127
1, 373248, Note_off_c, 4, 64, 127
1, 373248, Note_off_c, 1, 73, 127
1, 373255, Note_on_c, 3, 75, 127
1, 373255, Note_on_c, 6, 66, 127
1, 373255, Note_on_c, 10, 45, 127
1, 373383, Note_off_c, 10, 45, 127
1, 373383, Note_off_c, 6, 66, 127
1, 373383, Note_off_c, 3, 75, 127
1, 373389, Note_on_c, 4, 76, 127
1, 373389, Note_on_c, 8, 68, 127
1, 373389, Note_on_c, 8, 44, 127
1, 373517, Note_off_c, 8, 44, 127
1, 373523, Note_on_c, 12, 47, 127
1, 373651, Note_off_c, 12, 47, 127
1, 373651, Note_off_c, 8, 68, 127
1, 373651, Note_off_c, 4, 76, 127
1, 373658, Note_on_c, 4, 76, 127
1, 373658, Note_on_c, 12, 71, 127
1, 373658, Note_on_c, 8, 44, 127
1, 373786, Note_off_c, 8, 44, 127
1, 373786, Note_off_c, 12, 71, 127
1, 373786, Note_off_c, 4, 76, 127
1, 373792, Note_on_c, 4, 76, 127
1, 373792, Note_on_c, 4, 64, 127
1, 373792, Note_on_c, 8, 44, 127
1, 373920, Note_off_c, 8, 44, 127
1, 373927, Note_on_c, 12, 47, 127
1, 374054, Note_off_c, 4, 76, 127
1, 374055, Note_off_c, 12, 47, 127
1, 374061, Note_on_c, 4, 76, 127
1, 374061, Note_on_c, 8, 44, 127
1, 374188, Note_off_c, 4, 64, 127
1, 374189, Note_off_c, 8, 44, 127
1, 374189, Note_off_c, 4, 76, 127
1, 374195, Note_on_c, 10, 69, 127
1, 374195, Note_on_c, 1, 61, 127
1, 374195, Note_on_c, 10, 45, 127
1, 374323, Note_off_c, 10, 45, 127
1, 374330, Note_on_c, 1, 49, 127
1, 374457, Note_off_c, 1, 61, 127
1, 374457, Note_off_c, 10, 69, 127
1, 374458, Note_off_c, 1, 49, 127
1, 374464, Note_on_c, 12, 71, 127
1, 374464, Note_on_c, 2, 62, 127
1, 374464, Note_on_c, 10, 45, 127
1, 374592, Note_off_c, 10, 45, 127
1, 374592, Note_off_c, 2, 62, 127
1, 374592, Note_off_c, 12, 71, 127
1, 374599, Note_on_c, 1, 73, 127
1, 374599, Note_on_c, 4, 64, 127
1, 374599, Note_on_c, 10, 45, 127
1, 374727, Note_off_c, 10, 45, 127
1, 374733, Note_on_c, 1, 49, 127
1, 374861, Note_off_c, 1, 49, 127
1, 374861, Note_off_c, 4, 64, 127
1, 374861, Note_off_c, 1, 73, 127
1, 374867, Note_on_c, 3, 75, 127
1, 374867, Note_on_c, 6, 66, 127
1, 374867, Note_on_c, 10, 45, 127
1, 374995, Note_off_c, 10, 45, 127
1, 374995, Note_off_c, 6, 66, 127
1, 374995, Note_off_c, 3, 75, 127
1, 375002, Note_on_c, 4, 76, 127
1, 375002, Note_on_c, 8, 68, 127
1, 375002, Note_on_c, 8, 44, 127
1, 375130, Note_off_c, 8, 44, 127
1, 375136, Note_on_c, 12, 47, 127
1, 375264, Note_off_c, 12, 47, 127
1, 375264, Note_off_c, 8, 68, 127
1, 375264, Note_off_c, 4, 76, 127
1, 375271, Note_on_c, 4, 76, 127
1, 375271, Note_on_c, 12, 71, 127
1, 375271, Note_on_c, 8, 44, 127
1, 375399, Note_off_c, 8, 44, 127
1, 375399, Note_off_c, 12, 71, 127
1, 375399, Note_off_c, 4, 76, 127
1, 375405, Note_on_c, 4, 76, 127
1, 375405, Note_on_c, 4, 64, 127
1, 375405, Note_on_c, 8, 44, 127
1, 375533, Note_off_c, 8, 44, 127
1, 375539, Note_on_c, 12, 47, 127
1, 375667, Note_off_c, 12, 47, 127
1, 375667, Note_off_c, 4, 64, 127
1, 375667, Note_off_c, 4, 76, 127
1, 375682, Note_on_c, 11, 46, 127
1, 375682, Note_on_c, 6, 66, 127
1, 375682, Note_on_c, 1, 73, 127
1, 375810, Note_off_c, 1, 73, 127
1, 375810, Note_off_c, 6, 66, 127
1, 375810, Note_off_c, 11, 46, 127
1, 375817, Note_on_c, 12, 47, 127
1, 375817, Note_on_c, 2, 62, 127
1, 375817, Note_on_c, 12, 71, 127
1, 375945, Note_off_c, 12, 47, 127
1, 375951, Note_on_c, 2, 50, 127
1, 376079, Note_off_c, 2, 50, 127
1, 376079, Note_off_c, 12, 71, 127
1, 376079, Note_off_c, 2, 62, 127
1, 376085, Note_on_c, 12, 47, 127
1, 376085, Note_on_c, 4, 64, 127
1, 376085, Note_on_c, 1, 73, 127
1, 376213, Note_off_c, 1, 73, 127
1, 376213, Note_off_c, 4, 64, 127
1, 376213, Note_off_c, 12, 47, 127
1, 376220, Note_on_c, 12, 47, 127
1, 376220, Note_on_c, 6, 66, 127
1, 376220, Note_on_c, 2, 74, 127
1, 376348, Note_off_c, 12, 47, 127
1, 376354, Note_on_c, 2, 50, 127
1, 376482, Note_off_c, 2, 50, 127
1, 376482, Note_off_c, 2, 74, 127
1, 376482, Note_off_c, 6, 66, 127
1, 376489, Note_on_c, 12, 47, 127
1, 376489, Note_on_c, 8, 68, 127
1, 376489, Note_on_c, 4, 76, 127
1, 376617, Note_off_c, 4, 76, 127
1, 376617, Note_off_c, 8, 68, 127
1, 376617, Note_off_c, 12, 47, 127
1, 376623, Note_on_c, 11, 46, 127
1, 376623, Note_on_c, 11, 70, 127
1, 376623, Note_on_c, 6, 78, 127
1, 376751, Note_off_c, 11, 46, 127
1, 376757, Note_on_c, 1, 49, 127
1, 376885, Note_off_c, 1, 49, 127
1, 376885, Note_off_c, 6, 78, 127
1, 376885, Note_off_c, 11, 70, 127
1, 376892, Note_on_c, 11, 46, 127
1, 376892, Note_on_c, 1, 73, 127
1, 376892, Note_on_c, 6, 78, 127
1, 377020, Note_off_c, 6, 78, 127
1, 377020, Note_off_c, 1, 73, 127
1, 377020, Note_off_c, 11, 46, 127
1, 377026, Note_on_c, 11, 46, 127
1, 377026, Note_on_c, 6, 66, 127
1, 377026, Note_on_c, 6, 78, 127
1, 377154, Note_off_c, 11, 46, 127
1, 377161, Note_on_c, 1, 49, 127
1, 377288, Note_off_c, 6, 78, 127
1, 377289, Note_off_c, 1, 49, 127
1, 377295, Note_on_c, 11, 46, 127
1, 377295, Note_on_c, 6, 78, 127
1, 377422, Note_off_c, 6, 66, 127
1, 377423, Note_off_c, 6, 78, 127
1, 377423, Note_off_c, 11, 46, 127
1, 377429, Note_on_c, 12, 47, 127
1, 377429, Note_on_c, 2, 62, 127
1, 377429, Note_on_c, 12, 71, 127
1, 377557, Note_off_c, 12, 47, 127
1, 377564, Note_on_c, 2, 50, 127
1, 377691, Note_off_c, 12, 71, 127
1, 377691, Note_off_c, 2, 62, 127
1, 377692, Note_off_c, 2, 50, 127
1, 377698, Note_on_c, 12, 47, 127
1, 377698, Note_on_c, 4, 64, 127
1, 377698, Note_on_c, 1, 73, 127
1, 377826, Note_off_c, 1, 73, 127
1, 377826, Note_off_c, 4, 64, 127
1, 377826, Note_off_c, 12, 47, 127
1, 377833, Note_on_c, 12, 47, 127
1, 377833, Note_on_c, 6, 66, 127
1, 377833, Note_on_c, 2, 74, 127
1, 377961, Note_off_c, 12, 47, 127
1, 377967, Note_on_c, 2, 50, 127
1, 378095, Note_off_c, 2, 50, 127
1, 378095, Note_off_c, 2, 74, 127
1, 378095, Note_off_c, 6, 66, 127
1, 378101, Note_on_c, 12, 47, 127
1, 378101, Note_on_c, 8, 68, 127
1, 378101, Note_on_c, 4, 76, 127
1, 378229, Note_off_c, 4, 76, 127
1, 378229, Note_off_c, 8, 68, 127
1, 378229, Note_off_c, 12, 47, 127
1, 378236, Note_on_c, 11, 46, 127
1, 378236, Note_on_c, 11, 70, 127
1, 378236, Note_on_c, 6, 78, 127
1, 378364, Note_off_c, 11, 46, 127
1, 378370, Note_on_c, 1, 49, 127
1, 378498, Note_off_c, 1, 49, 127
1, 378498, Note_off_c, 6, 78, 127
1, 378498, Note_off_c, 11, 70, 127
1, 378505, Note_on_c, 11, 46, 127
1, 378505, Note_on_c, 1, 73, 127
1, 378505, Note_on_c, 6, 78, 127
1, 378633, Note_off_c, 6, 78, 127
1, 378633, Note_off_c, 1, 73, 127
1, 378633, Note_off_c, 11, 46, 127
1, 378639, Note_on_c, 11, 46, 127
1, 378639, Note_on_c, 6, 66, 127
1, 378639, Note_on_c, 6, 78, 127
1, 378767, Note_off_c, 11, 46, 127
1, 378773, Note_on_c, 1, 49, 127
1, 378901, Note_off_c, 1, 49, 127
1, 378901, Note_off_c, 6, 78, 127
1, 378901, Note_off_c, 6, 66, 127
1, 378908, Note_on_c, 11, 46, 127
1, 378908, Note_on_c, 1, 73, 127
1, 378908, Note_on_c, 6, 78, 127
1, 379036, Note_off_c, 6, 78, 127
1, 379036, Note_off_c, 1, 73, 127
1, 379036, Note_off_c, 11, 46, 127
1, 379042, Note_on_c, 12, 47, 127
1, 379042, Note_on_c, 2, 74, 127
1, 379042, Note_on_c, 7, 79, 127
1, 379170, Note_off_c, 2, 74, 127
1, 379170, Note_off_c, 12, 47, 127
1, 379177, Note_on_c, 2, 50, 127
1, 379177, Note_on_c, 12, 71, 127
1, 379304, Note_off_c, 7, 79, 127
1, 379305, Note_off_c, 12, 71, 127
1, 379305, Note_off_c, 2, 50, 127
1, 379311, Note_on_c, 12, 47, 127
1, 379311, Note_on_c, 2, 74, 127
1, 379311, Note_on_c, 7, 79, 127
1, 379439, Note_off_c, 7, 79, 127
1, 379439, Note_off_c, 2, 74, 127
1, 379439, Note_off_c, 12, 47, 127
1, 379445, Note_on_c, 10, 45, 127
1, 379445, Note_on_c, 1, 73, 127
1, 379445, Note_on_c, 6, 78, 127
1, 379573, Note_off_c, 1, 73, 127
1, 379573, Note_off_c, 10, 45, 127
1, 379580, Note_on_c, 1, 49, 127
1, 379580, Note_on_c, 10, 69, 127
1, 379707, Note_off_c, 6, 78, 127
1, 379708, Note_off_c, 10, 69, 127
1, 379708, Note_off_c, 1, 49, 127
1, 379714, Note_on_c, 10, 45, 127
1, 379714, Note_on_c, 1, 73, 127
1, 379714, Note_on_c, 6, 78, 127
1, 379842, Note_off_c, 6, 78, 127
1, 379842, Note_off_c, 1, 73, 127
1, 379842, Note_off_c, 10, 45, 127
1, 379849, Note_on_c, 7, 43, 127
1, 379849, Note_on_c, 12, 71, 127
1, 379849, Note_on_c, 4, 76, 127
1, 379977, Note_off_c, 12, 71, 127
1, 379977, Note_off_c, 7, 43, 127
1, 379983, Note_on_c, 12, 47, 127
1, 379983, Note_on_c, 7, 67, 127
1, 380111, Note_off_c, 7, 67, 127
1, 380111, Note_off_c, 12, 47, 127
1, 380111, Note_off_c, 4, 76, 127
1, 380117, Note_on_c, 7, 43, 127
1, 380117, Note_on_c, 12, 71, 127
1, 380117, Note_on_c, 4, 76, 127
1, 380245, Note_off_c, 4, 76, 127
1, 380245, Note_off_c, 12, 71, 127
1, 380245, Note_off_c, 7, 43, 127
1, 380252, Note_on_c, 6, 42, 127
1, 380252, Note_on_c, 10, 69, 127
1, 380252, Note_on_c, 2, 74, 127
1, 380380, Note_off_c, 10, 69, 127
1, 380380, Note_off_c, 6, 42, 127
1, 380386, Note_on_c, 10, 45, 127
1, 380386, Note_on_c, 6, 66, 127
1, 380514, Note_off_c, 6, 66, 127
1, 380514, Note_off_c, 10, 45, 127
1, 380514, Note_off_c, 2, 74, 127
1, 380521, Note_on_c, 6, 42, 127
1, 380521, Note_on_c, 10, 69, 127
1, 380521, Note_on_c, 2, 74, 127
1, 380649, Note_off_c, 2, 74, 127
1, 380649, Note_off_c, 10, 69, 127
1, 380649, Note_off_c, 6, 42, 127
1, 380655, Note_on_c, 4, 40, 127
1, 380655, Note_on_c, 7, 67, 127
1, 380655, Note_on_c, 1, 73, 127
1, 380783, Note_off_c, 7, 67, 127
1, 380783, Note_off_c, 4, 40, 127
1, 380789, Note_on_c, 7, 43, 127
1, 380789, Note_on_c, 4, 64, 127
1, 380917, Note_off_c, 4, 64, 127
1, 380917, Note_off_c, 7, 43, 127
1, 380917, Note_off_c, 1, 73, 127
1, 380924, Note_on_c, 4, 40, 127
1, 380924, Note_on_c, 7, 67, 127
1, 380924, Note_on_c, 1, 73, 127
1, 381052, Note_off_c, 1, 73, 127
1, 381052, Note_off_c, 7, 67, 127
1, 381052, Note_off_c, 4, 40, 127
1, 381058, Note_on_c, 2, 38, 127
1, 381058, Note_on_c, 6, 66, 127
1, 381058, Note_on_c, 12, 71, 127
1, 381186, Note_off_c, 2, 38, 127
1, 381193, Note_on_c, 2, 50, 127
1, 381320, Note_off_c, 12, 71, 127
1, 381320, Note_off_c, 6, 66, 127
1, 381321, Note_off_c, 2, 50, 127
1, 381327, Note_on_c, 12, 47, 127
1, 381327, Note_on_c, 2, 62, 127
1, 381327, Note_on_c, 12, 71, 127
1, 381455, Note_off_c, 12, 71, 127
1, 381455, Note_off_c, 2, 62, 127
1, 381455, Note_off_c, 12, 47, 127
1, 381461, Note_on_c, 4, 52, 127
1, 381461, Note_on_c, 1, 61, 127
1, 381461, Note_on_c, 12, 71, 127
1, 381589, Note_off_c, 4, 52, 127
1, 381596, Note_on_c, 7, 55, 127
1, 381723, Note_off_c, 12, 71, 127
1, 381723, Note_off_c, 1, 61, 127
1, 381724, Note_off_c, 7, 55, 127
1, 381730, Note_on_c, 1, 49, 127
1, 381730, Note_on_c, 4, 64, 127
1, 381730, Note_on_c, 12, 71, 127
1, 381858, Note_off_c, 12, 71, 127
1, 381858, Note_off_c, 4, 64, 127
1, 381858, Note_off_c, 1, 49, 127
1, 381865, Note_on_c, 6, 54, 127
1, 381865, Note_on_c, 2, 62, 127
1, 381865, Note_on_c, 12, 71, 127
1, 381993, Note_off_c, 2, 62, 127
1, 381999, Note_on_c, 6, 66, 127
1, 382127, Note_off_c, 6, 66, 127
1, 382127, Note_off_c, 12, 71, 127
1, 382127, Note_off_c, 6, 54, 127
1, 382133, Note_on_c, 6, 42, 127
1, 382133, Note_on_c, 1, 61, 127
1, 382133, Note_on_c, 11, 70, 127
1, 382238, Note_off_c, 11, 70, 127
1, 382238, Note_off_c, 1, 61, 127
1, 382261, Note_off_c, 6, 42, 127
1, 382276, Note_on_c, 12, 71, 127
1, 382276, Note_on_c, 2, 62, 127
1, 382276, Note_on_c, 12, 47, 127
1, 382404, Note_off_c, 12, 71, 127
1, 382411, Note_on_c, 2, 74, 127
1, 382538, Note_off_c, 12, 47, 127
1, 382538, Note_off_c, 2, 62, 127
1, 382539, Note_off_c, 2, 74, 127
1, 382545, Note_on_c, 12, 71, 127
1, 382545, Note_on_c, 4, 64, 127
1, 382545, Note_on_c, 1, 49, 127
1, 382673, Note_off_c, 1, 49, 127
1, 382673, Note_off_c, 4, 64, 127
1, 382673, Note_off_c, 12, 71, 127
1, 382679, Note_on_c, 12, 71, 127
1, 382679, Note_on_c, 6, 66, 127
1, 382679, Note_on_c, 2, 50, 127
1, 382807, Note_off_c, 12, 71, 127
1, 382814, Note_on_c, 2, 74, 127
1, 382941, Note_off_c, 2, 50, 127
1, 382941, Note_off_c, 6, 66, 127
1, 382942, Note_off_c, 2, 74, 127
1, 382948, Note_on_c, 12, 71, 127
1, 382948, Note_on_c, 7, 67, 127
1, 382948, Note_on_c, 4, 52, 127
1, 383076, Note_off_c, 4, 52, 127
1, 383076, Note_off_c, 7, 67, 127
1, 383076, Note_off_c, 12, 71, 127
1, 383083, Note_on_c, 11, 70, 127
1, 383083, Note_on_c, 1, 61, 127
1, 383083, Note_on_c, 6, 54, 127
1, 383211, Note_off_c, 11, 70, 127
1, 383217, Note_on_c, 1, 73, 127
1, 383345, Note_off_c, 1, 73, 127
1, 383345, Note_off_c, 6, 54, 127
1, 383345, Note_off_c, 1, 61, 127
1, 383351, Note_on_c, 11, 70, 127
1, 383351, Note_on_c, 4, 64, 127
1, 383351, Note_on_c, 1, 49, 127
1, 383479, Note_off_c, 1, 49, 127
1, 383479, Note_off_c, 4, 64, 127
1, 383479, Note_off_c, 11, 70, 127
1, 383486, Note_on_c, 11, 70, 127
1, 383486, Note_on_c, 4, 64, 127
1, 383486, Note_on_c, 6, 42, 127
1, 383614, Note_off_c, 11, 70, 127
1, 383620, Note_on_c, 1, 73, 127
1, 383748, Note_off_c, 1, 73, 127
1, 383748, Note_off_c, 6, 42, 127
1, 383748, Note_off_c, 4, 64, 127
1, 383755, Note_on_c, 11, 70, 127
1, 383755, Note_on_c, 4, 64, 127
1, 383755, Note_on_c, 6, 54, 127
1, 383883, Note_off_c, 6, 54, 127
1, 383883, Note_off_c, 4, 64, 127
1, 383883, Note_off_c, 11, 70, 127
1, 383889, Note_on_c, 12, 71, 127
1, 383889, Note_on_c, 2, 62, 127
1, 383889, Note_on_c, 12, 47, 127
1, 384017, Note_off_c, 12, 71, 127
1, 384023, Note_on_c, 2, 74, 127
1, 384151, Note_off_c, 2, 74, 127
1, 384151, Note_off_c, 12, 47, 127
1, 384151, Note_off_c, 2, 62, 127
1, 384158, Note_on_c, 12, 71, 127
1, 384158, Note_on_c, 4, 64, 127
1, 384158, Note_on_c, 1, 49, 127
1, 384286, Note_off_c, 1, 49, 127
1, 384286, Note_off_c, 4, 64, 127
1, 384286, Note_off_c, 12, 71, 127
1, 384292, Note_on_c, 12, 71, 127
1, 384292, Note_on_c, 6, 66, 127
1, 384292, Note_on_c, 2, 50, 127
1, 384420, Note_off_c, 12, 71, 127
1, 384427, Note_on_c, 2, 74, 127
1, 384554, Note_off_c, 2, 50, 127
1, 384554, Note_off_c, 6, 66, 127
1, 384555, Note_off_c, 2, 74, 127
1, 384561, Note_on_c, 12, 71, 127
1, 384561, Note_on_c, 7, 67, 127
1, 384561, Note_on_c, 4, 52, 127
1, 384689, Note_off_c, 4, 52, 127
1, 384689, Note_off_c, 7, 67, 127
1, 384689, Note_off_c, 12, 71, 127
1, 384695, Note_on_c, 11, 70, 127
1, 384695, Note_on_c, 1, 61, 127
1, 384695, Note_on_c, 6, 54, 127
1, 384823, Note_off_c, 11, 70, 127
1, 384830, Note_on_c, 1, 73, 127
1, 384957, Note_off_c, 6, 54, 127
1, 384957, Note_off_c, 1, 61, 127
1, 384958, Note_off_c, 1, 73, 127
1, 384964, Note_on_c, 11, 70, 127
1, 384964, Note_on_c, 1, 61, 127
1, 384964, Note_on_c, 1, 49, 127
1, 385092, Note_off_c, 1, 49, 127
1, 385092, Note_off_c, 1, 61, 127
1, 385092, Note_off_c, 11, 70, 127
1, 385099, Note_on_c, 11, 70, 127
1, 385099, Note_on_c, 1, 61, 127
1, 385099, Note_on_c, 6, 42, 127
1, 385227, Note_off_c, 11, 70, 127
1, 385233, Note_on_c, 1, 73, 127
1, 385338, Note_off_c, 1, 73, 127
1, 385338, Note_off_c, 1, 61, 127
1, 385361, Note_off_c, 6, 42, 127
1, 385367, Note_on_c, 10, 69, 127
1, 385367, Note_on_c, 7, 67, 127
1, 385367, Note_on_c, 4, 52, 127
1, 385495, Note_off_c, 4, 52, 127
1, 385495, Note_off_c, 7, 67, 127
1, 385495, Note_off_c, 10, 69, 127
1, 385502, Note_on_c, 2, 74, 127
1, 385502, Note_on_c, 6, 66, 127
1, 385502, Note_on_c, 2, 50, 127
1, 385630, Note_off_c, 2, 74, 127
1, 385636, Note_on_c, 6, 78, 127
1, 385764, Note_off_c, 6, 78, 127
1, 385764, Note_off_c, 2, 50, 127
1, 385764, Note_off_c, 6, 66, 127
1, 385771, Note_on_c, 2, 74, 127
1, 385771, Note_on_c, 7, 67, 127
1, 385771, Note_on_c, 4, 52, 127
1, 385899, Note_off_c, 4, 52, 127
1, 385899, Note_off_c, 7, 67, 127
1, 385899, Note_off_c, 2, 74, 127
1, 385905, Note_on_c, 2, 74, 127
1, 385905, Note_on_c, 10, 69, 127
1, 385905, Note_on_c, 6, 54, 127
1, 386033, Note_off_c, 2, 74, 127
1, 386039, Note_on_c, 6, 78, 127
1, 386167, Note_off_c, 6, 78, 127
1, 386167, Note_off_c, 6, 54, 127
1, 386167, Note_off_c, 10, 69, 127
1, 386174, Note_on_c, 2, 74, 127
1, 386174, Note_on_c, 12, 71, 127
1, 386174, Note_on_c, 7, 55, 127
1, 386302, Note_off_c, 7, 55, 127
1, 386302, Note_off_c, 12, 71, 127
1, 386302, Note_off_c, 2, 74, 127
1, 386308, Note_on_c, 1, 73, 127
1, 386308, Note_on_c, 4, 64, 127
1, 386308, Note_on_c, 10, 57, 127
1, 386436, Note_off_c, 1, 73, 127
1, 386443, Note_on_c, 4, 76, 127
1, 386570, Note_off_c, 10, 57, 127
1, 386570, Note_off_c, 4, 64, 127
1, 386571, Note_off_c, 4, 76, 127
1, 386577, Note_on_c, 1, 73, 127
1, 386577, Note_on_c, 7, 67, 127
1, 386577, Note_on_c, 4, 52, 127
1, 386705, Note_off_c, 4, 52, 127
1, 386705, Note_off_c, 7, 67, 127
1, 386705, Note_off_c, 1, 73, 127
1, 386711, Note_on_c, 1, 73, 127
1, 386711, Note_on_c, 7, 67, 127
1, 386711, Note_on_c, 10, 45, 127
1, 386839, Note_off_c, 1, 73, 127
1, 386846, Note_on_c, 4, 76, 127
1, 386973, Note_off_c, 10, 45, 127
1, 386973, Note_off_c, 7, 67, 127
1, 386974, Note_off_c, 4, 76, 127
1, 386980, Note_on_c, 1, 73, 127
1, 386980, Note_on_c, 7, 67, 127
1, 386980, Note_on_c, 10, 57, 127
1, 387108, Note_off_c, 10, 57, 127
1, 387108, Note_off_c, 7, 67, 127
1, 387108, Note_off_c, 1, 73, 127
1, 387115, Note_on_c, 2, 74, 127
1, 387115, Note_on_c, 6, 66, 127
1, 387115, Note_on_c, 2, 50, 127
1, 387243, Note_off_c, 2, 74, 127
1, 387249, Note_on_c, 6, 78, 127
1, 387377, Note_off_c, 6, 78, 127
1, 387377, Note_off_c, 2, 50, 127
1, 387377, Note_off_c, 6, 66, 127
1, 387383, Note_on_c, 2, 74, 127
1, 387383, Note_on_c, 7, 67, 127
1, 387383, Note_on_c, 4, 52, 127
1, 387511, Note_off_c, 4, 52, 127
1, 387511, Note_off_c, 7, 67, 127
1, 387511, Note_off_c, 2, 74, 127
1, 387518, Note_on_c, 2, 74, 127
1, 387518, Note_on_c, 10, 69, 127
1, 387518, Note_on_c, 6, 54, 127
1, 387646, Note_off_c, 2, 74, 127
1, 387652, Note_on_c, 6, 78, 127
1, 387780, Note_off_c, 6, 78, 127
1, 387780, Note_off_c, 6, 54, 127
1, 387780, Note_off_c, 10, 69, 127
1, 387787, Note_on_c, 2, 74, 127
1, 387787, Note_on_c, 12, 71, 127
1, 387787, Note_on_c, 7, 55, 127
1, 387915, Note_off_c, 7, 55, 127
1, 387915, Note_off_c, 12, 71, 127
1, 387915, Note_off_c, 2, 74, 127
1, 387921, Note_on_c, 1, 73, 127
1, 387921, Note_on_c, 4, 64, 127
1, 387921, Note_on_c, 10, 57, 127
1, 388049, Note_off_c, 1, 73, 127
1, 388055, Note_on_c, 4, 76, 127
1, 388183, Note_off_c, 4, 76, 127
1, 388183, Note_off_c, 10, 57, 127
1, 388183, Note_off_c, 4, 64, 127
1, 388190, Note_on_c, 1, 73, 127
1, 388190, Note_on_c, 10, 69, 127
1, 388190, Note_on_c, 4, 52, 127
1, 388318, Note_off_c, 4, 52, 127
1, 388318, Note_off_c, 10, 69, 127
1, 388318, Note_off_c, 1, 73, 127
1, 388324, Note_on_c, 1, 73, 127
1, 388324, Note_on_c, 10, 69, 127
1, 388324, Note_on_c, 10, 45, 127
1, 388452, Note_off_c, 1, 73, 127
1, 388459, Note_on_c, 4, 76, 127
1, 388586, Note_off_c, 10, 45, 127
1, 388586, Note_off_c, 10, 69, 127
1, 388587, Note_off_c, 4, 76, 127
1, 388606, Note_on_c, 10, 57, 127
1, 388606, Note_on_c, 10, 69, 127
1, 388606, Note_on_c, 1, 73, 127
1, 388734, Note_off_c, 1, 73, 127
1, 388734, Note_off_c, 10, 69, 127
1, 388734, Note_off_c, 10, 57, 127
1, 388740, Note_on_c, 6, 54, 127
1, 388740, Note_on_c, 10, 69, 127
1, 388740, Note_on_c, 6, 78, 127
1, 388868, Note_off_c, 6, 78, 127
1, 388874, Note_on_c, 2, 74, 127
1, 389002, Note_off_c, 2, 74, 127
1, 389002, Note_off_c, 6, 54, 127
1, 389009, Note_on_c, 2, 62, 127
1, 389009, Note_on_c, 6, 78, 127
1, 389137, Note_off_c, 6, 78, 127
1, 389137, Note_off_c, 2, 62, 127
1, 389139, Note_off_c, 10, 69, 127
1, 389143, Note_on_c, 12, 59, 127
1, 389143, Note_on_c, 8, 80, 127
1, 389271, Note_off_c, 8, 80, 127
1, 389271, Note_off_c, 12, 59, 127
1, 389278, Note_on_c, 8, 56, 127
1, 389278, Note_on_c, 12, 83, 127
1, 389406, Note_off_c, 12, 83, 127
1, 389406, Note_off_c, 8, 56, 127
1, 389412, Note_on_c, 12, 59, 127
1, 389412, Note_on_c, 8, 80, 127
1, 389540, Note_off_c, 8, 80, 127
1, 389540, Note_off_c, 12, 59, 127
1, 389546, Note_on_c, 1, 61, 127
1, 389546, Note_on_c, 4, 76, 127
1, 389674, Note_off_c, 4, 76, 127
1, 389674, Note_off_c, 1, 61, 127
1, 389681, Note_on_c, 4, 64, 127
1, 389681, Note_on_c, 1, 73, 127
1, 389809, Note_off_c, 1, 73, 127
1, 389809, Note_off_c, 4, 64, 127
1, 389815, Note_on_c, 1, 61, 127
1, 389815, Note_on_c, 4, 76, 127
1, 389943, Note_off_c, 4, 76, 127
1, 389943, Note_off_c, 1, 61, 127
1, 389950, Note_on_c, 10, 57, 127
1, 389950, Note_on_c, 6, 78, 127
1, 390078, Note_off_c, 6, 78, 127
1, 390078, Note_off_c, 10, 57, 127
1, 390084, Note_on_c, 6, 54, 127
1, 390084, Note_on_c, 10, 81, 127
1, 390212, Note_off_c, 10, 81, 127
1, 390212, Note_off_c, 6, 54, 127
1, 390218, Note_on_c, 10, 57, 127
1, 390218, Note_on_c, 6, 78, 127
1, 390346, Note_off_c, 6, 78, 127
1, 390346, Note_off_c, 10, 57, 127
1, 390353, Note_on_c, 12, 59, 127
1, 390353, Note_on_c, 2, 74, 127
1, 390481, Note_off_c, 2, 74, 127
1, 390481, Note_off_c, 12, 59, 127
1, 390487, Note_on_c, 2, 62, 127
1, 390487, Note_on_c, 12, 71, 127
1, 390615, Note_off_c, 12, 71, 127
1, 390615, Note_off_c, 2, 62, 127
1, 390622, Note_on_c, 12, 59, 127
1, 390622, Note_on_c, 2, 74, 127
1, 390750, Note_off_c, 2, 74, 127
1, 390750, Note_off_c, 12, 59, 127
1, 390756, Note_on_c, 8, 56, 127
1, 390756, Note_on_c, 4, 76, 127
1, 390884, Note_off_c, 4, 76, 127
1, 390884, Note_off_c, 8, 56, 127
1, 390890, Note_on_c, 4, 52, 127
1, 390890, Note_on_c, 8, 80, 127
1, 391018, Note_off_c, 8, 80, 127
1, 391018, Note_off_c, 4, 52, 127
1, 391025, Note_on_c, 8, 56, 127
1, 391025, Note_on_c, 4, 76, 127
1, 391153, Note_off_c, 4, 76, 127
1, 391153, Note_off_c, 8, 56, 127
1, 391159, Note_on_c, 10, 57, 127
1, 391159, Note_on_c, 1, 73, 127
1, 391287, Note_off_c, 1, 73, 127
1, 391287, Note_off_c, 10, 57, 127
1, 391294, Note_on_c, 1, 61, 127
1, 391294, Note_on_c, 10, 69, 127
1, 391422, Note_off_c, 10, 69, 127
1, 391422, Note_off_c, 1, 61, 127
1, 391428, Note_on_c, 10, 57, 127
1, 391428, Note_on_c, 10, 69, 127
1, 391428, Note_on_c, 1, 73, 127
1, 391556, Note_off_c, 1, 73, 127
1, 391556, Note_off_c, 10, 69, 127
1, 391556, Note_off_c, 10, 57, 127
1, 391562, Note_on_c, 12, 59, 127
1, 391562, Note_on_c, 10, 69, 127
1, 391562, Note_on_c, 2, 74, 127
1, 391690, Note_off_c, 12, 59, 127
1, 391697, Note_on_c, 2, 62, 127
1, 391824, Note_off_c, 2, 74, 127
1, 391824, Note_off_c, 10, 69, 127
1, 391825, Note_off_c, 2, 62, 127
1, 391831, Note_on_c, 12, 59, 127
1, 391831, Note_on_c, 8, 68, 127
1, 391831, Note_on_c, 2, 74, 127
1, 391959, Note_off_c, 2, 74, 127
1, 391959, Note_off_c, 8, 68, 127
1, 391959, Note_off_c, 12, 59, 127
1, 391966, Note_on_c, 1, 61, 127
1, 391966, Note_on_c, 10, 69, 127
1, 391966, Note_on_c, 4, 76, 127
1, 392094, Note_off_c, 4, 76, 127
1, 392094, Note_off_c, 1, 61, 127
1, 392100, Note_on_c, 4, 64, 127
1, 392100, Note_on_c, 1, 73, 127
1, 392228, Note_off_c, 1, 73, 127
1, 392228, Note_off_c, 4, 64, 127
1, 392228, Note_off_c, 10, 69, 127
1, 392234, Note_on_c, 1, 61, 127
1, 392234, Note_on_c, 10, 69, 127
1, 392234, Note_on_c, 4, 76, 127
1, 392362, Note_off_c, 4, 76, 127
1, 392362, Note_off_c, 10, 69, 127
1, 392362, Note_off_c, 1, 61, 127
1, 392369, Note_on_c, 2, 62, 127
1, 392369, Note_on_c, 10, 69, 127
1, 392369, Note_on_c, 6, 78, 127
1, 392497, Note_off_c, 2, 62, 127
1, 392503, Note_on_c, 6, 66, 127
1, 392631, Note_off_c, 6, 66, 127
1, 392631, Note_off_c, 6, 78, 127
1, 392631, Note_off_c, 10, 69, 127
1, 392638, Note_on_c, 2, 62, 127
1, 392638, Note_on_c, 10, 69, 127
1, 392638, Note_on_c, 12, 71, 127
1, 392766, Note_off_c, 12, 71, 127
1, 392766, Note_off_c, 10, 69, 127
1, 392766, Note_off_c, 2, 62, 127
1, 392772, Note_on_c, 4, 64, 127
1, 392772, Note_on_c, 8, 68, 127
1, 392772, Note_on_c, 12, 71, 127
1, 392898, Note_off_c, 12, 71, 127
1, 392900, Note_off_c, 8, 68, 127
1, 392906, Note_on_c, 12, 71, 127
1, 393041, Note_on_c, 8, 68, 127
1, 393169, Note_off_c, 8, 68, 127
1, 393175, Note_on_c, 8, 68, 127
1, 393303, Note_off_c, 8, 68, 127
1, 393310, Note_on_c, 4, 76, 127
1, 393437, Note_off_c, 4, 64, 127
1, 393438, Note_off_c, 4, 76, 127
1, 393444, Note_on_c, 4, 64, 127
1, 393444, Note_on_c, 8, 68, 127
1, 393536, Note_off_c, 12, 71, 127
1, 393572, Note_off_c, 8, 68, 127
1, 393572, Note_off_c, 4, 64, 127
1, 393578, Note_on_c, 11, 58, 127
1, 393578, Note_on_c, 6, 66, 127
1, 393706, Note_off_c, 6, 66, 127
1, 393713, Note_on_c, 4, 76, 127
1, 393840, Note_off_c, 11, 58, 127
1, 393841, Note_off_c, 4, 76, 127
1, 393847, Note_on_c, 6, 54, 127
1, 393847, Note_on_c, 6, 66, 127
1, 393975, Note_off_c, 6, 66, 127
1, 393975, Note_off_c, 6, 54, 127
1, 393982, Note_on_c, 12, 47, 127
1, 393982, Note_on_c, 6, 66, 127
1, 394110, Note_off_c, 6, 66, 127
1, 394116, Note_on_c, 2, 74, 127
1, 394244, Note_off_c, 2, 74, 127
1, 394244, Note_off_c, 12, 47, 127
1, 394250, Note_on_c, 12, 59, 127
1, 394250, Note_on_c, 6, 66, 127
1, 394378, Note_off_c, 6, 66, 127
1, 394378, Note_off_c, 12, 59, 127
1, 394385, Note_on_c, 8, 56, 127
1, 394385, Note_on_c, 4, 64, 127
1, 394513, Note_off_c, 4, 64, 127
1, 394519, Note_on_c, 2, 74, 127
1, 394647, Note_off_c, 2, 74, 127
1, 394647, Note_off_c, 8, 56, 127
1, 394654, Note_on_c, 4, 52, 127
1, 394654, Note_on_c, 4, 64, 127
1, 394782, Note_off_c, 4, 64, 127
1, 394782, Note_off_c, 4, 52, 127
1, 394788, Note_on_c, 10, 45, 127
1, 394788, Note_on_c, 4, 64, 127
1, 394916, Note_off_c, 4, 64, 127
1, 394922, Note_on_c, 1, 73, 127
1, 395050, Note_off_c, 1, 73, 127
1, 395050, Note_off_c, 10, 45, 127
1, 395057, Note_on_c, 10, 57, 127
1, 395057, Note_on_c, 1, 61, 127
1, 395057, Note_on_c, 4, 64, 127
1, 395185, Note_off_c, 4, 64, 127
1, 395185, Note_off_c, 1, 61, 127
1, 395185, Note_off_c, 10, 57, 127
1, 395191, Note_on_c, 2, 50, 127
1, 395191, Note_on_c, 2, 62, 127
1, 395191, Note_on_c, 6, 66, 127
1, 395319, Note_off_c, 6, 66, 127
1, 395319, Note_off_c, 2, 50, 127
1, 395326, Note_on_c, 4, 52, 127
1, 395326, Note_on_c, 8, 68, 127
1, 395453, Note_off_c, 2, 62, 127
1, 395454, Note_off_c, 8, 68, 127
1, 395454, Note_off_c, 4, 52, 127
1, 395460, Note_on_c, 6, 54, 127
1, 395460, Note_on_c, 1, 61, 127
1, 395460, Note_on_c, 10, 69, 127
1, 395588, Note_off_c, 10, 69, 127
1, 395588, Note_off_c, 1, 61, 127
1, 395588, Note_off_c, 6, 54, 127
1, 395594, Note_on_c, 2, 50, 127
1, 395594, Note_on_c, 12, 59, 127
1, 395594, Note_on_c, 10, 69, 127
1, 395722, Note_off_c, 2, 50, 127
1, 395729, Note_on_c, 12, 47, 127
1, 395856, Note_off_c, 10, 69, 127
1, 395856, Note_off_c, 12, 59, 127
1, 395857, Note_off_c, 12, 47, 127
1, 395863, Note_on_c, 4, 52, 127
1, 395863, Note_on_c, 12, 59, 127
1, 395863, Note_on_c, 8, 68, 127
1, 395991, Note_off_c, 8, 68, 127
1, 395991, Note_off_c, 12, 59, 127
1, 395991, Note_off_c, 4, 52, 127
1, 395998, Note_on_c, 10, 45, 127
1, 395998, Note_on_c, 1, 61, 127
1, 395998, Note_on_c, 10, 69, 127
1, 396126, Note_off_c, 10, 45, 127
1, 396132, Note_on_c, 4, 52, 127
1, 396260, Note_off_c, 4, 52, 127
1, 396266, Note_on_c, 10, 57, 127
1, 396394, Note_off_c, 10, 57, 127
1, 396397, Note_off_c, 1, 61, 127
1, 396401, Note_on_c, 4, 52, 127
1, 396529, Note_off_c, 4, 52, 127
1, 396535, Note_on_c, 1, 61, 127
1, 396663, Note_off_c, 1, 61, 127
1, 396663, Note_off_c, 10, 69, 127
1, 396678, Note_on_c, 1, 73, 127
1, 396678, Note_on_c, 4, 52, 127
1, 396806, Note_off_c, 4, 52, 127
1, 396806, Note_off_c, 1, 73, 127
1, 396812, Note_on_c, 11, 70, 127
1, 396812, Note_on_c, 4, 52, 127
1, 396940, Note_off_c, 4, 52, 127
1, 396947, Note_on_c, 1, 61, 127
1, 397074, Note_off_c, 11, 70, 127
1, 397075, Note_off_c, 1, 61, 127
1, 397081, Note_on_c, 6, 66, 127
1, 397081, Note_on_c, 4, 52, 127
1, 397209, Note_off_c, 4, 52, 127
1, 397209, Note_off_c, 6, 66, 127
1, 397216, Note_on_c, 12, 71, 127
1, 397216, Note_on_c, 2, 50, 127
1, 397344, Note_off_c, 2, 50, 127
1, 397344, Note_off_c, 12, 71, 127
1, 397350, Note_on_c, 2, 74, 127
1, 397350, Note_on_c, 12, 59, 127
1, 397478, Note_off_c, 12, 59, 127
1, 397478, Note_off_c, 2, 74, 127
1, 397484, Note_on_c, 12, 71, 127
1, 397484, Note_on_c, 2, 50, 127
1, 397612, Note_off_c, 2, 50, 127
1, 397612, Note_off_c, 12, 71, 127
1, 397619, Note_on_c, 8, 68, 127
1, 397619, Note_on_c, 2, 50, 127
1, 397747, Note_off_c, 2, 50, 127
1, 397753, Note_on_c, 12, 59, 127
1, 397881, Note_off_c, 12, 59, 127
1, 397881, Note_off_c, 8, 68, 127
1, 397888, Note_on_c, 4, 64, 127
1, 397888, Note_on_c, 2, 50, 127
1, 398016, Note_off_c, 2, 50, 127
1, 398016, Note_off_c, 4, 64, 127
1, 398022, Note_on_c, 10, 69, 127
1, 398022, Note_on_c, 1, 49, 127
1, 398150, Note_off_c, 1, 49, 127
1, 398150, Note_off_c, 10, 69, 127
1, 398156, Note_on_c, 1, 73, 127
1, 398156, Note_on_c, 10, 57, 127
1, 398284, Note_off_c, 10, 57, 127
1, 398284, Note_off_c, 1, 73, 127
1, 398291, Note_on_c, 10, 69, 127
1, 398291, Note_on_c, 1, 49, 127
1, 398419, Note_off_c, 1, 49, 127
1, 398419, Note_off_c, 10, 69, 127
1, 398425, Note_on_c, 6, 66, 127
1, 398425, Note_on_c, 2, 50, 127
1, 398553, Note_off_c, 2, 50, 127
1, 398560, Note_on_c, 2, 74, 127
1, 398560, Note_on_c, 10, 57, 127
1, 398677, Note_off_c, 6, 66, 127
1, 398688, Note_off_c, 10, 57, 127
1, 398694, Note_on_c, 6, 66, 127
1, 398694, Note_on_c, 2, 50, 127
1, 398749, Note_off_c, 2, 74, 127
1, 398822, Note_off_c, 2, 50, 127
1, 398822, Note_off_c, 6, 66, 127
1, 398828, Note_on_c, 4, 64, 127
1, 398828, Note_on_c, 4, 52, 127
1, 398956, Note_off_c, 4, 52, 127
1, 398963, Note_on_c, 1, 73, 127
1, 398963, Note_on_c, 10, 57, 127
1, 399080, Note_off_c, 4, 64, 127
1, 399091, Note_off_c, 10, 57, 127
1, 399091, Note_off_c, 1, 73, 127
1, 399097, Note_on_c, 12, 71, 127
1, 399097, Note_on_c, 2, 62, 127
1, 399097, Note_on_c, 4, 52, 127
1, 399097, Note_on_c, 8, 56, 127
1, 399225, Note_off_c, 8, 56, 127
1, 399225, Note_off_c, 4, 52, 127
1, 399225, Note_off_c, 2, 62, 127
1, 399225, Note_off_c, 12, 71, 127
1, 399232, Note_on_c, 10, 69, 127
1, 399232, Note_on_c, 1, 61, 127
1, 399232, Note_on_c, 10, 57, 127
1, 399232, Note_on_c, 10, 45, 127
1, 399360, Note_off_c, 10, 69, 127
1, 399366, Note_on_c, 1, 73, 127
1, 399494, Note_off_c, 1, 73, 127
1, 399494, Note_off_c, 10, 45, 127
1, 399494, Note_off_c, 10, 57, 127
1, 399494, Note_off_c, 1, 61, 127
1, 399500, Note_on_c, 10, 69, 127
1, 399500, Note_on_c, 2, 62, 127
1, 399500, Note_on_c, 12, 59, 127
1, 399628, Note_off_c, 12, 59, 127
1, 399628, Note_off_c, 2, 62, 127
1, 399628, Note_off_c, 10, 69, 127
1, 399635, Note_on_c, 10, 69, 127
1, 399635, Note_on_c, 4, 64, 127
1, 399635, Note_on_c, 1, 61, 127
1, 399763, Note_off_c, 10, 69, 127
1, 399769, Note_on_c, 1, 73, 127
1, 399897, Note_off_c, 1, 73, 127
1, 399897, Note_off_c, 1, 61, 127
1, 399897, Note_off_c, 4, 64, 127
1, 399904, Note_on_c, 10, 69, 127
1, 399904, Note_on_c, 6, 66, 127
1, 399904, Note_on_c, 2, 62, 127
1, 400032, Note_off_c, 2, 62, 127
1, 400032, Note_off_c, 6, 66, 127
1, 400032, Note_off_c, 10, 69, 127
1, 400038, Note_on_c, 8, 68, 127
1, 400038, Note_on_c, 4, 64, 127
1, 400166, Note_off_c, 8, 68, 127
1, 400172, Note_on_c, 12, 71, 127
1, 400300, Note_off_c, 12, 71, 127
1, 400300, Note_off_c, 4, 64, 127
1, 400307, Note_on_c, 8, 68, 127
1, 400307, Note_on_c, 12, 59, 127
1, 400435, Note_off_c, 12, 59, 127
1, 400435, Note_off_c, 8, 68, 127
1, 400441, Note_on_c, 8, 68, 127
1, 400441, Note_on_c, 4, 52, 127
1, 400569, Note_off_c, 8, 68, 127
1, 400576, Note_on_c, 12, 71, 127
1, 400703, Note_off_c, 4, 52, 127
1, 400704, Note_off_c, 12, 71, 127
1, 400710, Note_on_c, 8, 68, 127
1, 400710, Note_on_c, 4, 64, 127
1, 400838, Note_off_c, 4, 64, 127
1, 400838, Note_off_c, 8, 68, 127
1, 400844, Note_on_c, 10, 69, 127
1, 400844, Note_on_c, 1, 61, 127
1, 400844, Note_on_c, 10, 57, 127
1, 400972, Note_off_c, 10, 69, 127
1, 400979, Note_on_c, 1, 73, 127
1, 401106, Note_off_c, 10, 57, 127
1, 401106, Note_off_c, 1, 61, 127
1, 401107, Note_off_c, 1, 73, 127
1, 401113, Note_on_c, 10, 69, 127
1, 401113, Note_on_c, 2, 62, 127
1, 401113, Note_on_c, 12, 59, 127
1, 401241, Note_off_c, 12, 59, 127
1, 401241, Note_off_c, 2, 62, 127
1, 401241, Note_off_c, 10, 69, 127
1, 401248, Note_on_c, 10, 69, 127
1, 401248, Note_on_c, 4, 64, 127
1, 401248, Note_on_c, 1, 61, 127
1, 401376, Note_off_c, 10, 69, 127
1, 401382, Note_on_c, 1, 73, 127
1, 401510, Note_off_c, 1, 73, 127
1, 401510, Note_off_c, 1, 61, 127
1, 401510, Note_off_c, 4, 64, 127
1, 401516, Note_on_c, 10, 69, 127
1, 401516, Note_on_c, 6, 66, 127
1, 401516, Note_on_c, 2, 62, 127
1, 401644, Note_off_c, 2, 62, 127
1, 401644, Note_off_c, 6, 66, 127
1, 401644, Note_off_c, 10, 69, 127
1, 401651, Note_on_c, 8, 68, 127
1, 401651, Note_on_c, 4, 64, 127
1, 401779, Note_off_c, 8, 68, 127
1, 401785, Note_on_c, 12, 71, 127
1, 401913, Note_off_c, 12, 71, 127
1, 401913, Note_off_c, 4, 64, 127
1, 401920, Note_on_c, 8, 68, 127
1, 401920, Note_on_c, 12, 59, 127
1, 402048, Note_off_c, 12, 59, 127
1, 402048, Note_off_c, 8, 68, 127
1, 402054, Note_on_c, 8, 68, 127
1, 402054, Note_on_c, 4, 52, 127
1, 402182, Note_off_c, 8, 68, 127
1, 402188, Note_on_c, 12, 71, 127
1, 402316, Note_off_c, 12, 71, 127
1, 402316, Note_off_c, 4, 52, 127
1, 402323, Note_on_c, 8, 68, 127
1, 402323, Note_on_c, 4, 64, 127
1, 402428, Note_off_c, 4, 64, 127
1, 402428, Note_off_c, 8, 68, 127
1, 402466, Note_on_c, 4, 52, 127
1, 402466, Note_on_c, 7, 67, 127
1, 402594, Note_off_c, 7, 67, 127
1, 402600, Note_on_c, 4, 76, 127
1, 402728, Note_off_c, 4, 76, 127
1, 402728, Note_off_c, 4, 52, 127
1, 402734, Note_on_c, 6, 54, 127
1, 402734, Note_on_c, 7, 67, 127
1, 402862, Note_off_c, 7, 67, 127
1, 402862, Note_off_c, 6, 54, 127
1, 402869, Note_on_c, 7, 55, 127
1, 402869, Note_on_c, 7, 67, 127
1, 402997, Note_off_c, 7, 67, 127
1, 403003, Note_on_c, 4, 76, 127
1, 403131, Note_off_c, 4, 76, 127
1, 403131, Note_off_c, 7, 55, 127
1, 403138, Note_on_c, 10, 57, 127
1, 403138, Note_on_c, 7, 67, 127
1, 403266, Note_off_c, 7, 67, 127
1, 403266, Note_off_c, 10, 57, 127
1, 403272, Note_on_c, 12, 59, 127
1, 403272, Note_on_c, 6, 66, 127
1, 403400, Note_off_c, 6, 66, 127
1, 403406, Note_on_c, 3, 75, 127
1, 403534, Note_off_c, 3, 75, 127
1, 403534, Note_off_c, 12, 59, 127
1, 403541, Note_on_c, 6, 54, 127
1, 403541, Note_on_c, 6, 66, 127
1, 403669, Note_off_c, 6, 66, 127
1, 403669, Note_off_c, 6, 54, 127
1, 403675, Note_on_c, 12, 47, 127
1, 403675, Note_on_c, 6, 66, 127
1, 403803, Note_off_c, 6, 66, 127
1, 403810, Note_on_c, 3, 75, 127
1, 403937, Note_off_c, 12, 47, 127
1, 403938, Note_off_c, 3, 75, 127
1, 403944, Note_on_c, 12, 59, 127
1, 403944, Note_on_c, 6, 66, 127
1, 404072, Note_off_c, 6, 66, 127
1, 404072, Note_off_c, 12, 59, 127
1, 404078, Note_on_c, 4, 52, 127
1, 404078, Note_on_c, 7, 67, 127
1, 404206, Note_off_c, 7, 67, 127
1, 404213, Note_on_c, 4, 76, 127
1, 404340, Note_off_c, 4, 52, 127
1, 404341, Note_off_c, 4, 76, 127
1, 404347, Note_on_c, 6, 54, 127
1, 404347, Note_on_c, 7, 67, 127
1, 404475, Note_off_c, 7, 67, 127
1, 404475, Note_off_c, 6, 54, 127
1, 404482, Note_on_c, 7, 55, 127
1, 404482, Note_on_c, 7, 67, 127
1, 404610, Note_off_c, 7, 67, 127
1, 404616, Note_on_c, 4, 76, 127
1, 404744, Note_off_c, 4, 76, 127
1, 404744, Note_off_c, 7, 55, 127
1, 404750, Note_on_c, 10, 57, 127
1, 404750, Note_on_c, 7, 67, 127
1, 404878, Note_off_c, 7, 67, 127
1, 404878, Note_off_c, 10, 57, 127
1, 404885, Note_on_c, 12, 59, 127
1, 404885, Note_on_c, 6, 66, 127
1, 405013, Note_off_c, 6, 66, 127
1, 405019, Note_on_c, 3, 75, 127
1, 405147, Note_off_c, 3, 75, 127
1, 405147, Note_off_c, 12, 59, 127
1, 405154, Note_on_c, 6, 54, 127
1, 405154, Note_on_c, 6, 66, 127
1, 405282, Note_off_c, 6, 66, 127
1, 405282, Note_off_c, 6, 54, 127
1, 405288, Note_on_c, 12, 47, 127
1, 405288, Note_on_c, 6, 66, 127
1, 405416, Note_off_c, 6, 66, 127
1, 405422, Note_on_c, 3, 75, 127
1, 405550, Note_off_c, 3, 75, 127
1, 405550, Note_off_c, 12, 47, 127
1, 405557, Note_on_c, 12, 59, 127
1, 405557, Note_on_c, 6, 66, 127
1, 405672, Note_off_c, 12, 59, 127
1, 405676, Note_off_c, 6, 66, 127
1, 405700, Note_on_c, 12, 71, 127
1, 405700, Note_on_c, 7, 67, 127
1, 405700, Note_on_c, 7, 55, 127
1, 405828, Note_off_c, 7, 55, 127
1, 405834, Note_on_c, 12, 59, 127
1, 405962, Note_off_c, 12, 59, 127
1, 405962, Note_off_c, 7, 67, 127
1, 405962, Note_off_c, 12, 71, 127
1, 405968, Note_on_c, 0, 72, 127
1, 405968, Note_on_c, 10, 69, 127
1, 405968, Note_on_c, 7, 55, 127
1, 406096, Note_off_c, 7, 55, 127
1, 406096, Note_off_c, 10, 69, 127
1, 406096, Note_off_c, 0, 72, 127
1, 406103, Note_on_c, 2, 74, 127
1, 406103, Note_on_c, 12, 71, 127
1, 406103, Note_on_c, 7, 55, 127
1, 406231, Note_off_c, 7, 55, 127
1, 406237, Note_on_c, 12, 59, 127
1, 406365, Note_off_c, 12, 59, 127
1, 406365, Note_off_c, 12, 71, 127
1, 406365, Note_off_c, 2, 74, 127
1, 406372, Note_on_c, 4, 76, 127
1, 406372, Note_on_c, 1, 73, 127
1, 406372, Note_on_c, 7, 55, 127
1, 406500, Note_off_c, 7, 55, 127
1, 406500, Note_off_c, 1, 73, 127
1, 406500, Note_off_c, 4, 76, 127
1, 406506, Note_on_c, 6, 78, 127
1, 406506, Note_on_c, 2, 74, 127
1, 406506, Note_on_c, 6, 54, 127
1, 406634, Note_off_c, 6, 54, 127
1, 406640, Note_on_c, 10, 57, 127
1, 406768, Note_off_c, 10, 57, 127
1, 406768, Note_off_c, 2, 74, 127
1, 406768, Note_off_c, 6, 78, 127
1, 406775, Note_on_c, 7, 79, 127
1, 406775, Note_on_c, 4, 76, 127
1, 406775, Note_on_c, 6, 54, 127
1, 406903, Note_off_c, 6, 54, 127
1, 406903, Note_off_c, 4, 76, 127
1, 406903, Note_off_c, 7, 79, 127
1, 406909, Note_on_c, 10, 81, 127
1, 406909, Note_on_c, 2, 74, 127
1, 406909, Note_on_c, 6, 54, 127
1, 407037, Note_off_c, 6, 54, 127
1, 407044, Note_on_c, 10, 57, 127
1, 407171, Note_off_c, 2, 74, 127
1, 407171, Note_off_c, 10, 81, 127
1, 407172, Note_off_c, 10, 57, 127
1, 407178, Note_on_c, 2, 74, 127
1, 407178, Note_on_c, 0, 72, 127
1, 407178, Note_on_c, 6, 54, 127
1, 407283, Note_off_c, 0, 72, 127
1, 407283, Note_off_c, 2, 74, 127
1, 407306, Note_off_c, 6, 54, 127
1, 407312, Note_on_c, 7, 79, 127
1, 407312, Note_on_c, 12, 71, 127
1, 407312, Note_on_c, 7, 55, 127
1, 407440, Note_off_c, 7, 79, 127
1, 407447, Note_on_c, 12, 83, 127
1, 407574, Note_off_c, 7, 55, 127
1, 407574, Note_off_c, 12, 71, 127
1, 407575, Note_off_c, 12, 83, 127
1, 407581, Note_on_c, 7, 79, 127
1, 407581, Note_on_c, 0, 72, 127
1, 407581, Note_on_c, 10, 57, 127
1, 407709, Note_off_c, 10, 57, 127
1, 407709, Note_off_c, 0, 72, 127
1, 407709, Note_off_c, 7, 79, 127
1, 407716, Note_on_c, 7, 79, 127
1, 407716, Note_on_c, 2, 74, 127
1, 407716, Note_on_c, 12, 59, 127
1, 407844, Note_off_c, 7, 79, 127
1, 407850, Note_on_c, 12, 83, 127
1, 407978, Note_off_c, 12, 83, 127
1, 407978, Note_off_c, 12, 59, 127
1, 407978, Note_off_c, 2, 74, 127
1, 407984, Note_on_c, 7, 79, 127
1, 407984, Note_on_c, 4, 76, 127
1, 407984, Note_on_c, 0, 60, 127
1, 408112, Note_off_c, 0, 60, 127
1, 408112, Note_off_c, 4, 76, 127
1, 408112, Note_off_c, 7, 79, 127
1, 408119, Note_on_c, 6, 78, 127
1, 408119, Note_on_c, 10, 69, 127
1, 408119, Note_on_c, 2, 62, 127
1, 408247, Note_off_c, 6, 78, 127
1, 408253, Note_on_c, 10, 81, 127
1, 408381, Note_off_c, 10, 81, 127
1, 408381, Note_off_c, 2, 62, 127
1, 408381, Note_off_c, 10, 69, 127
1, 408388, Note_on_c, 6, 78, 127
1, 408388, Note_on_c, 10, 69, 127
1, 408388, Note_on_c, 10, 57, 127
1, 408516, Note_off_c, 10, 57, 127
1, 408516, Note_off_c, 10, 69, 127
1, 408516, Note_off_c, 6, 78, 127
1, 408522, Note_on_c, 6, 78, 127
1, 408522, Note_on_c, 10, 69, 127
1, 408522, Note_on_c, 2, 50, 127
1, 408650, Note_off_c, 6, 78, 127
1, 408656, Note_on_c, 10, 81, 127
1, 408784, Note_off_c, 10, 81, 127
1, 408784, Note_off_c, 2, 50, 127
1, 408784, Note_off_c, 10, 69, 127
1, 408791, Note_on_c, 6, 78, 127
1, 408791, Note_on_c, 10, 69, 127
1, 408791, Note_on_c, 2, 62, 127
1, 408938, Note_off_c, 2, 62, 127
1, 408938, Note_off_c, 10, 69, 127
1, 408956, Note_off_c, 6, 78, 127
1, 408959, Note_on_c, 12, 71, 127
1, 408959, Note_on_c, 2, 74, 127
1, 408961, Note_on_c, 12, 59, 127
1, 409089, Note_off_c, 12, 59, 127
1, 409112, Note_on_c, 2, 62, 127
1, 409240, Note_off_c, 2, 62, 127
1, 409244, Note_off_c, 2, 74, 127
1, 409244, Note_off_c, 12, 71, 127
1, 409253, Note_on_c, 4, 76, 127
1, 409253, Note_on_c, 1, 73, 127
1, 409253, Note_on_c, 12, 59, 127
1, 409381, Note_off_c, 12, 59, 127
1, 409381, Note_off_c, 1, 73, 127
1, 409381, Note_off_c, 4, 76, 127
1, 409387, Note_on_c, 6, 78, 127
1, 409387, Note_on_c, 2, 74, 127
1, 409387, Note_on_c, 12, 59, 127
1, 409515, Note_off_c, 12, 59, 127
1, 409522, Note_on_c, 2, 62, 127
1, 409649, Note_off_c, 2, 74, 127
1, 409649, Note_off_c, 6, 78, 127
1, 409650, Note_off_c, 2, 62, 127
1, 409656, Note_on_c, 7, 79, 127
1, 409656, Note_on_c, 4, 76, 127
1, 409656, Note_on_c, 12, 59, 127
1, 409784, Note_off_c, 12, 59, 127
1, 409784, Note_off_c, 4, 76, 127
1, 409784, Note_off_c, 7, 79, 127
1, 409790, Note_on_c, 6, 78, 127
1, 409790, Note_on_c, 1, 73, 127
1, 409790, Note_on_c, 11, 58, 127
1, 409918, Note_off_c, 11, 58, 127
1, 409925, Note_on_c, 1, 61, 127
1, 410052, Note_off_c, 1, 73, 127
1, 410052, Note_off_c, 6, 78, 127
1, 410053, Note_off_c, 1, 61, 127
1, 410059, Note_on_c, 7, 79, 127
1, 410059, Note_on_c, 1, 73, 127
1, 410059, Note_on_c, 11, 58, 127
1, 410187, Note_off_c, 11, 58, 127
1, 410187, Note_off_c, 1, 73, 127
1, 410187, Note_off_c, 7, 79, 127
1, 410194, Note_on_c, 6, 78, 127
1, 410194, Note_on_c, 1, 73, 127
1, 410194, Note_on_c, 11, 58, 127
1, 410322, Note_off_c, 11, 58, 127
1, 410328, Note_on_c, 1, 61, 127
1, 410456, Note_off_c, 1, 61, 127
1, 410456, Note_off_c, 1, 73, 127
1, 410456, Note_off_c, 6, 78, 127
1, 410462, Note_on_c, 4, 76, 127
1, 410462, Note_on_c, 1, 73, 127
1, 410462, Note_on_c, 11, 58, 127
1, 410590, Note_off_c, 11, 58, 127
1, 410590, Note_off_c, 1, 73, 127
1, 410590, Note_off_c, 4, 76, 127
1, 410597, Note_on_c, 2, 74, 127
1, 410597, Note_on_c, 12, 71, 127
1, 410597, Note_on_c, 12, 59, 127
1, 410725, Note_off_c, 12, 59, 127
1, 410731, Note_on_c, 2, 62, 127
1, 410859, Note_off_c, 2, 62, 127
1, 410859, Note_off_c, 12, 71, 127
1, 410859, Note_off_c, 2, 74, 127
1, 410866, Note_on_c, 12, 83, 127
1, 410866, Note_on_c, 2, 74, 127
1, 410866, Note_on_c, 12, 59, 127
1, 410994, Note_off_c, 12, 59, 127
1, 410994, Note_off_c, 2, 74, 127
1, 410994, Note_off_c, 12, 83, 127
1, 411000, Note_on_c, 11, 82, 127
1, 411000, Note_on_c, 1, 73, 127
1, 411000, Note_on_c, 12, 59, 127
1, 411128, Note_off_c, 12, 59, 127
1, 411134, Note_on_c, 2, 62, 127
1, 411262, Note_off_c, 2, 62, 127
1, 411262, Note_off_c, 1, 73, 127
1, 411262, Note_off_c, 11, 82, 127
1, 411269, Note_on_c, 12, 83, 127
1, 411269, Note_on_c, 2, 74, 127
1, 411269, Note_on_c, 12, 59, 127
1, 411397, Note_off_c, 12, 59, 127
1, 411397, Note_off_c, 2, 74, 127
1, 411397, Note_off_c, 12, 83, 127
1, 411403, Note_on_c, 6, 78, 127
1, 411403, Note_on_c, 1, 73, 127
1, 411403, Note_on_c, 11, 58, 127
1, 411531, Note_off_c, 11, 58, 127
1, 411538, Note_on_c, 1, 61, 127
1, 411666, Note_off_c, 1, 61, 127
1, 411672, Note_on_c, 11, 58, 127
1, 411800, Note_off_c, 11, 58, 127
1, 411806, Note_on_c, 11, 58, 127
1, 411934, Note_off_c, 11, 58, 127
1, 411941, Note_on_c, 1, 61, 127
1, 412068, Note_off_c, 6, 78, 127
1, 412069, Note_off_c, 1, 61, 127
1, 412075, Note_on_c, 6, 78, 127
1, 412075, Note_on_c, 11, 58, 127
1, 412203, Note_off_c, 11, 58, 127
1, 412203, Note_off_c, 6, 78, 127
1, 412203, Note_off_c, 1, 73, 127
1, 412210, Note_on_c, 8, 80, 127
1, 412210, Note_on_c, 6, 78, 127
1, 412210, Note_on_c, 12, 59, 127
1, 412338, Note_off_c, 12, 59, 127
1, 412344, Note_on_c, 2, 62, 127
1, 412472, Note_off_c, 2, 62, 127
1, 412472, Note_off_c, 6, 78, 127
1, 412472, Note_off_c, 8, 80, 127
1, 412478, Note_on_c, 8, 80, 127
1, 412478, Note_on_c, 6, 78, 127
1, 412478, Note_on_c, 12, 59, 127
1, 412606, Note_off_c, 12, 59, 127
1, 412606, Note_off_c, 6, 78, 127
1, 412606, Note_off_c, 8, 80, 127
1, 412613, Note_on_c, 8, 80, 127
1, 412613, Note_on_c, 6, 78, 127
1, 412613, Note_on_c, 0, 60, 127
1, 412741, Note_off_c, 0, 60, 127
1, 412747, Note_on_c, 3, 63, 127
1, 412875, Note_off_c, 3, 63, 127
1, 412875, Note_off_c, 6, 78, 127
1, 412875, Note_off_c, 8, 80, 127
1, 412882, Note_on_c, 8, 80, 127
1, 412882, Note_on_c, 6, 78, 127
1, 412882, Note_on_c, 0, 60, 127
1, 413010, Note_off_c, 0, 60, 127
1, 413010, Note_off_c, 6, 78, 127
1, 413010, Note_off_c, 8, 80, 127
1, 413016, Note_on_c, 8, 80, 127
1, 413016, Note_on_c, 5, 77, 127
1, 413016, Note_on_c, 1, 61, 127
1, 413144, Note_off_c, 1, 61, 127
1, 413150, Note_on_c, 5, 65, 127
1, 413278, Note_off_c, 5, 65, 127
1, 413278, Note_off_c, 5, 77, 127
1, 413278, Note_off_c, 8, 80, 127
1, 413285, Note_on_c, 8, 80, 127
1, 413285, Note_on_c, 5, 77, 127
1, 413285, Note_on_c, 1, 61, 127
1, 413413, Note_off_c, 1, 61, 127
1, 413413, Note_off_c, 5, 77, 127
1, 413413, Note_off_c, 8, 80, 127
1, 413419, Note_on_c, 8, 80, 127
1, 413419, Note_on_c, 2, 74, 127
1, 413419, Note_on_c, 12, 59, 127
1, 413547, Note_off_c, 12, 59, 127
1, 413554, Note_on_c, 5, 65, 127
1, 413681, Note_off_c, 2, 74, 127
1, 413681, Note_off_c, 8, 80, 127
1, 413682, Note_off_c, 5, 65, 127
1, 413688, Note_on_c, 8, 80, 127
1, 413688, Note_on_c, 2, 74, 127
1, 413688, Note_on_c, 12, 59, 127
1, 413816, Note_off_c, 12, 59, 127
1, 413816, Note_off_c, 2, 74, 127
1, 413816, Note_off_c, 8, 80, 127
1, 413822, Note_on_c, 10, 81, 127
1, 413822, Note_on_c, 1, 73, 127
1, 413822, Note_on_c, 10, 57, 127
1, 413950, Note_off_c, 10, 57, 127
1, 413957, Note_on_c, 6, 66, 127
1, 414084, Note_off_c, 1, 73, 127
1, 414084, Note_off_c, 10, 81, 127
1, 414085, Note_off_c, 6, 66, 127
1, 414091, Note_on_c, 6, 78, 127
1, 414091, Note_on_c, 2, 74, 127
1, 414091, Note_on_c, 12, 59, 127
1, 414219, Note_off_c, 12, 59, 127
1, 414219, Note_off_c, 2, 74, 127
1, 414219, Note_off_c, 6, 78, 127
1, 414226, Note_on_c, 6, 78, 127
1, 414226, Note_on_c, 1, 73, 127
1, 414226, Note_on_c, 1, 61, 127
1, 414354, Note_off_c, 1, 73, 127
1, 414360, Note_on_c, 10, 69, 127
1, 414488, Note_off_c, 10, 69, 127
1, 414488, Note_off_c, 1, 61, 127
1, 414488, Note_off_c, 6, 78, 127
1, 414494, Note_on_c, 5, 77, 127
1, 414494, Note_on_c, 12, 71, 127
1, 414494, Note_on_c, 8, 68, 127
1, 414494, Note_on_c, 1, 61, 127
1, 414622, Note_off_c, 1, 61, 127
1, 414622, Note_off_c, 8, 68, 127
1, 414622, Note_off_c, 12, 71, 127
1, 414622, Note_off_c, 5, 77, 127
1, 414629, Note_on_c, 6, 78, 127
1, 414629, Note_on_c, 10, 69, 127
1, 414629, Note_on_c, 6, 66, 127
1, 414629, Note_on_c, 6, 54, 127
1, 414757, Note_off_c, 6, 78, 127
1, 414763, Note_on_c, 10, 81, 127
1, 414891, Note_off_c, 10, 81, 127
1, 414891, Note_off_c, 6, 54, 127
1, 414891, Note_off_c, 6, 66, 127
1, 414891, Note_off_c, 10, 69, 127
1, 414898, Note_on_c, 6, 78, 127
1, 414898, Note_on_c, 12, 71, 127
1, 414898, Note_on_c, 8, 56, 127
1, 415026, Note_off_c, 8, 56, 127
1, 415026, Note_off_c, 12, 71, 127
1, 415026, Note_off_c, 6, 78, 127
1, 415032, Note_on_c, 6, 78, 127
1, 415032, Note_on_c, 1, 73, 127
1, 415032, Note_on_c, 10, 57, 127
1, 415160, Note_off_c, 6, 78, 127
1, 415166, Note_on_c, 10, 81, 127
1, 415294, Note_off_c, 10, 81, 127
1, 415294, Note_off_c, 10, 57, 127
1, 415294, Note_off_c, 1, 73, 127
1, 415301, Note_on_c, 6, 78, 127
1, 415301, Note_on_c, 2, 74, 127
1, 415301, Note_on_c, 12, 59, 127
1, 415429, Note_off_c, 12, 59, 127
1, 415429, Note_off_c, 2, 74, 127
1, 415429, Note_off_c, 6, 78, 127
1, 415435, Note_on_c, 5, 77, 127
1, 415435, Note_on_c, 8, 68, 127
1, 415435, Note_on_c, 1, 61, 127
1, 415563, Note_off_c, 5, 77, 127
1, 415570, Note_on_c, 8, 80, 127
1, 415697, Note_off_c, 1, 61, 127
1, 415697, Note_off_c, 8, 68, 127
1, 415698, Note_off_c, 8, 80, 127
1, 415704, Note_on_c, 5, 77, 127
1, 415704, Note_on_c, 12, 71, 127
1, 415704, Note_on_c, 8, 56, 127
1, 415832, Note_off_c, 8, 56, 127
1, 415832, Note_off_c, 12, 71, 127
1, 415832, Note_off_c, 5, 77, 127
1, 415838, Note_on_c, 5, 77, 127
1, 415838, Note_on_c, 12, 71, 127
1, 415838, Note_on_c, 1, 49, 127
1, 415966, Note_off_c, 5, 77, 127
1, 415973, Note_on_c, 8, 80, 127
1, 416100, Note_off_c, 1, 49, 127
1, 416100, Note_off_c, 12, 71, 127
1, 416101, Note_off_c, 8, 80, 127
1, 416107, Note_on_c, 5, 77, 127
1, 416107, Note_on_c, 12, 71, 127
1, 416107, Note_on_c, 1, 61, 127
1, 416235, Note_off_c, 1, 61, 127
1, 416235, Note_off_c, 12, 71, 127
1, 416235, Note_off_c, 5, 77, 127
1, 416242, Note_on_c, 6, 78, 127
1, 416242, Note_on_c, 10, 69, 127
1, 416242, Note_on_c, 6, 54, 127
1, 416370, Note_off_c, 6, 78, 127
1, 416376, Note_on_c, 10, 81, 127
1, 416504, Note_off_c, 10, 81, 127
1, 416504, Note_off_c, 6, 54, 127
1, 416504, Note_off_c, 10, 69, 127
1, 416510, Note_on_c, 6, 78, 127
1, 416510, Note_on_c, 12, 71, 127
1, 416510, Note_on_c, 8, 56, 127
1, 416638, Note_off_c, 8, 56, 127
1, 416638, Note_off_c, 12, 71, 127
1, 416638, Note_off_c, 6, 78, 127
1, 416645, Note_on_c, 6, 78, 127
1, 416645, Note_on_c, 1, 73, 127
1, 416645, Note_on_c, 10, 57, 127
1, 416773, Note_off_c, 6, 78, 127
1, 416779, Note_on_c, 10, 81, 127
1, 416907, Note_off_c, 10, 81, 127
1, 416907, Note_off_c, 10, 57, 127
1, 416907, Note_off_c, 1, 73, 127
1, 416914, Note_on_c, 6, 78, 127
1, 416914, Note_on_c, 2, 74, 127
1, 416914, Note_on_c, 12, 59, 127
1, 417042, Note_off_c, 12, 59, 127
1, 417042, Note_off_c, 2, 74, 127
1, 417042, Note_off_c, 6, 78, 127
1, 417048, Note_on_c, 5, 77, 127
1, 417048, Note_on_c, 8, 68, 127
1, 417048, Note_on_c, 1, 61, 127
1, 417176, Note_off_c, 1, 61, 127
1, 417182, Note_on_c, 8, 56, 127
1, 417310, Note_off_c, 8, 56, 127
1, 417317, Note_on_c, 5, 53, 127
1, 417445, Note_off_c, 5, 53, 127
1, 417451, Note_on_c, 1, 49, 127
1, 417510, Note_off_c, 5, 77, 127
1, 417579, Note_off_c, 1, 49, 127
1, 417592, Note_on_c, 8, 56, 127
1, 417720, Note_off_c, 8, 56, 127
1, 417733, Note_on_c, 1, 61, 127
1, 417762, Note_off_c, 8, 68, 127
1, 417892, Note_off_c, 1, 61, 127
1, 417922, Note_on_c, 1, 61, 127
1, 418050, Note_off_c, 1, 61, 127
1, 418056, Note_on_c, 4, 64, 127
1, 418184, Note_off_c, 4, 64, 127
1, 418190, Note_on_c, 1, 61, 127
1, 418318, Note_off_c, 1, 61, 127
1, 418325, Note_on_c, 1, 61, 127
1, 418453, Note_off_c, 1, 61, 127
1, 418459, Note_on_c, 4, 64, 127
1, 418587, Note_off_c, 4, 64, 127
1, 418594, Note_on_c, 1, 61, 127
1, 418722, Note_off_c, 1, 61, 127
1, 418728, Note_on_c, 0, 60, 127
1, 418856, Note_off_c, 0, 60, 127
1, 418862, Note_on_c, 3, 63, 127
1, 418990, Note_off_c, 3, 63, 127
1, 418997, Note_on_c, 8, 68, 127
1, 418997, Note_on_c, 0, 60, 127
1, 419125, Note_off_c, 0, 60, 127
1, 419125, Note_off_c, 8, 68, 127
1, 419131, Note_on_c, 3, 75, 127
1, 419131, Note_on_c, 0, 60, 127
1, 419259, Note_off_c, 0, 60, 127
1, 419266, Note_on_c, 3, 63, 127
1, 419393, Note_off_c, 3, 75, 127
1, 419394, Note_off_c, 3, 63, 127
1, 419400, Note_on_c, 6, 66, 127
1, 419400, Note_on_c, 0, 60, 127
1, 419528, Note_off_c, 0, 60, 127
1, 419528, Note_off_c, 6, 66, 127
1, 419534, Note_on_c, 4, 64, 127
1, 419534, Note_on_c, 1, 61, 127
1, 419660, Note_off_c, 4, 64, 127
1, 419662, Note_off_c, 1, 61, 127
1, 419669, Note_on_c, 4, 64, 127
1, 419797, Note_off_c, 4, 64, 127
1, 419803, Note_on_c, 8, 68, 127
1, 419803, Note_on_c, 1, 61, 127
1, 419931, Note_off_c, 1, 61, 127
1, 419931, Note_off_c, 8, 68, 127
1, 419938, Note_on_c, 1, 73, 127
1, 419938, Note_on_c, 1, 61, 127
1, 420066, Note_off_c, 1, 61, 127
1, 420072, Note_on_c, 4, 64, 127
1, 420200, Note_off_c, 4, 64, 127
1, 420200, Note_off_c, 1, 73, 127
1, 420206, Note_on_c, 4, 76, 127
1, 420206, Note_on_c, 1, 61, 127
1, 420334, Note_off_c, 1, 61, 127
1, 420334, Note_off_c, 4, 76, 127
1, 420341, Note_on_c, 3, 75, 127
1, 420341, Note_on_c, 0, 60, 127
1, 420469, Note_off_c, 0, 60, 127
1, 420475, Note_on_c, 3, 63, 127
1, 420603, Note_off_c, 3, 63, 127
1, 420603, Note_off_c, 3, 75, 127
1, 420610, Note_on_c, 8, 68, 127
1, 420610, Note_on_c, 0, 60, 127
1, 420738, Note_off_c, 0, 60, 127
1, 420738, Note_off_c, 8, 68, 127
1, 420744, Note_on_c, 8, 80, 127
1, 420744, Note_on_c, 0, 60, 127
1, 420872, Note_off_c, 0, 60, 127
1, 420878, Note_on_c, 3, 63, 127
1, 421006, Note_off_c, 3, 63, 127
1, 421006, Note_off_c, 8, 80, 127
1, 421013, Note_on_c, 8, 80, 127
1, 421013, Note_on_c, 6, 78, 127
1, 421013, Note_on_c, 0, 60, 127
1, 421141, Note_off_c, 0, 60, 127
1, 421141, Note_off_c, 6, 78, 127
1, 421141, Note_off_c, 8, 80, 127
1, 421147, Note_on_c, 10, 81, 127
1, 421147, Note_on_c, 4, 76, 127
1, 421147, Note_on_c, 1, 61, 127
1, 421275, Note_off_c, 1, 61, 127
1, 421282, Note_on_c, 4, 64, 127
1, 421409, Note_off_c, 4, 76, 127
1, 421409, Note_off_c, 10, 81, 127
1, 421410, Note_off_c, 4, 64, 127
1, 421416, Note_on_c, 10, 81, 127
1, 421416, Note_on_c, 4, 76, 127
1, 421416, Note_on_c, 1, 61, 127
1, 421544, Note_off_c, 1, 61, 127
1, 421544, Note_off_c, 4, 76, 127
1, 421544, Note_off_c, 10, 81, 127
1, 421550, Note_on_c, 8, 80, 127
1, 421550, Note_on_c, 4, 76, 127
1, 421550, Note_on_c, 1, 61, 127
1, 421678, Note_off_c, 1, 61, 127
1, 421685, Note_on_c, 4, 64, 127
1, 421812, Note_off_c, 4, 76, 127
1, 421812, Note_off_c, 8, 80, 127
1, 421813, Note_off_c, 4, 64, 127
1, 421819, Note_on_c, 8, 80, 127
1, 421819, Note_on_c, 4, 76, 127
1, 421819, Note_on_c, 1, 61, 127
1, 421947, Note_off_c, 1, 61, 127
1, 421947, Note_off_c, 4, 76, 127
1, 421947, Note_off_c, 8, 80, 127
1, 421954, Note_on_c, 7, 79, 127
1, 421954, Note_on_c, 11, 70, 127
1, 421954, Note_on_c, 1, 61, 127
1, 422082, Note_off_c, 1, 61, 127
1, 422088, Note_on_c, 4, 64, 127
1, 422216, Note_off_c, 4, 64, 127
1, 422216, Note_off_c, 11, 70, 127
1, 422216, Note_off_c, 7, 79, 127
1, 422222, Note_on_c, 7, 79, 127
1, 422222, Note_on_c, 11, 70, 127
1, 422222, Note_on_c, 1, 61, 127
1, 422350, Note_off_c, 1, 61, 127
1, 422350, Note_off_c, 11, 70, 127
1, 422350, Note_off_c, 7, 79, 127
1, 422357, Note_on_c, 8, 80, 127
1, 422357, Note_on_c, 12, 71, 127
1, 422357, Note_on_c, 12, 59, 127
1, 422485, Note_off_c, 12, 59, 127
1, 422491, Note_on_c, 3, 63, 127
1, 422619, Note_off_c, 3, 63, 127
1, 422619, Note_off_c, 12, 71, 127
1, 422619, Note_off_c, 8, 80, 127
1, 422626, Note_on_c, 8, 80, 127
1, 422626, Note_on_c, 3, 75, 127
1, 422626, Note_on_c, 12, 59, 127
1, 422754, Note_off_c, 12, 59, 127
1, 422754, Note_off_c, 3, 75, 127
1, 422754, Note_off_c, 8, 80, 127
1, 422760, Note_on_c, 8, 80, 127
1, 422760, Note_on_c, 4, 76, 127
1, 422760, Note_on_c, 1, 61, 127
1, 422888, Note_off_c, 1, 61, 127
1, 422894, Note_on_c, 4, 64, 127
1, 423022, Note_off_c, 4, 64, 127
1, 423022, Note_off_c, 4, 76, 127
1, 423022, Note_off_c, 8, 80, 127
1, 423029, Note_on_c, 8, 80, 127
1, 423029, Note_on_c, 11, 70, 127
1, 423029, Note_on_c, 1, 61, 127
1, 423157, Note_off_c, 1, 61, 127
1, 423157, Note_off_c, 11, 70, 127
1, 423157, Note_off_c, 8, 80, 127
1, 423163, Note_on_c, 7, 79, 127
1, 423163, Note_on_c, 11, 70, 127
1, 423163, Note_on_c, 3, 63, 127
1, 423291, Note_off_c, 3, 63, 127
1, 423298, Note_on_c, 1, 61, 127
1, 423425, Note_off_c, 11, 70, 127
1, 423425, Note_off_c, 7, 79, 127
1, 423426, Note_off_c, 1, 61, 127
1, 423432, Note_on_c, 7, 79, 127
1, 423432, Note_on_c, 1, 73, 127
1, 423432, Note_on_c, 3, 63, 127
1, 423560, Note_off_c, 3, 63, 127
1, 423560, Note_off_c, 1, 73, 127
1, 423560, Note_off_c, 7, 79, 127
1, 423566, Note_on_c, 8, 80, 127
1, 423566, Note_on_c, 12, 71, 127
1, 423566, Note_on_c, 8, 56, 127
1, 423701, Note_on_c, 3, 75, 127
1, 423818, Note_off_c, 12, 71, 127
1, 423829, Note_off_c, 3, 75, 127
1, 423835, Note_on_c, 12, 71, 127
1, 423963, Note_off_c, 12, 71, 127
1, 423965, Note_off_c, 8, 80, 127
1, 423970, Note_on_c, 8, 68, 127
1, 424097, Note_off_c, 8, 56, 127
1, 424098, Note_off_c, 8, 68, 127
1, 424104, Note_on_c, 8, 80, 127
1, 424104, Note_on_c, 8, 68, 127
1, 424232, Note_off_c, 8, 68, 127
1, 424232, Note_off_c, 8, 80, 127
1, 424238, Note_on_c, 10, 81, 127
1, 424238, Note_on_c, 6, 66, 127
1, 424366, Note_off_c, 6, 66, 127
1, 424366, Note_off_c, 10, 81, 127
1, 424373, Note_on_c, 12, 83, 127
1, 424373, Note_on_c, 5, 65, 127
1, 424501, Note_off_c, 5, 65, 127
1, 424501, Note_off_c, 12, 83, 127
1, 424507, Note_on_c, 2, 74, 127
1, 424507, Note_on_c, 8, 68, 127
1, 424635, Note_off_c, 8, 68, 127
1, 424635, Note_off_c, 2, 74, 127
1, 424642, Note_on_c, 12, 83, 127
1, 424642, Note_on_c, 5, 65, 127
1, 424770, Note_off_c, 5, 65, 127
1, 424770, Note_off_c, 12, 83, 127
1, 424776, Note_on_c, 12, 83, 127
1, 424776, Note_on_c, 5, 65, 127
1, 424904, Note_off_c, 5, 65, 127
1, 424904, Note_off_c, 12, 83, 127
1, 424910, Note_on_c, 2, 74, 127
1, 424910, Note_on_c, 8, 68, 127
1, 425038, Note_off_c, 8, 68, 127
1, 425038, Note_off_c, 2, 74, 127
1, 425045, Note_on_c, 12, 83, 127
1, 425045, Note_on_c, 5, 65, 127
1, 425173, Note_off_c, 5, 65, 127
1, 425173, Note_off_c, 12, 83, 127
1, 425179, Note_on_c, 12, 83, 127
1, 425179, Note_on_c, 5, 65, 127
1, 425307, Note_off_c, 5, 65, 127
1, 425307, Note_off_c, 12, 83, 127
1, 425314, Note_on_c, 1, 73, 127
1, 425314, Note_on_c, 8, 68, 127
1, 425442, Note_off_c, 8, 68, 127
1, 425448, Note_on_c, 12, 83, 127
1, 425448, Note_on_c, 5, 65, 127
1, 425503, Note_off_c, 1, 73, 127
1, 425576, Note_off_c, 5, 65, 127
1, 425576, Note_off_c, 12, 83, 127
1, 425582, Note_on_c, 10, 81, 127
1, 425582, Note_on_c, 1, 73, 127
1, 425582, Note_on_c, 6, 66, 127
1, 425710, Note_off_c, 6, 66, 127
1, 425710, Note_off_c, 10, 81, 127
1, 425717, Note_on_c, 6, 78, 127
1, 425717, Note_on_c, 10, 69, 127
1, 425845, Note_off_c, 10, 69, 127
1, 425845, Note_off_c, 6, 78, 127
1, 425851, Note_on_c, 8, 80, 127
1, 425851, Note_on_c, 4, 64, 127
1, 425979, Note_off_c, 4, 64, 127
1, 425979, Note_off_c, 8, 80, 127
1, 425981, Note_off_c, 1, 73, 127
1, 425986, Note_on_c, 10, 81, 127
1, 425986, Note_on_c, 3, 63, 127
1, 426114, Note_off_c, 3, 63, 127
1, 426114, Note_off_c, 10, 81, 127
1, 426120, Note_on_c, 0, 72, 127
1, 426120, Note_on_c, 6, 66, 127
1, 426248, Note_off_c, 6, 66, 127
1, 426248, Note_off_c, 0, 72, 127
1, 426254, Note_on_c, 10, 81, 127
1, 426254, Note_on_c, 3, 63, 127
1, 426382, Note_off_c, 3, 63, 127
1, 426382, Note_off_c, 10, 81, 127
1, 426389, Note_on_c, 10, 81, 127
1, 426389, Note_on_c, 3, 63, 127
1, 426517, Note_off_c, 3, 63, 127
1, 426517, Note_off_c, 10, 81, 127
1, 426523, Note_on_c, 0, 72, 127
1, 426523, Note_on_c, 6, 66, 127
1, 426651, Note_off_c, 6, 66, 127
1, 426651, Note_off_c, 0, 72, 127
1, 426658, Note_on_c, 10, 81, 127
1, 426658, Note_on_c, 3, 63, 127
1, 426786, Note_off_c, 3, 63, 127
1, 426786, Note_off_c, 10, 81, 127
1, 426792, Note_on_c, 10, 81, 127
1, 426792, Note_on_c, 3, 63, 127
1, 426920, Note_off_c, 3, 63, 127
1, 426920, Note_off_c, 10, 81, 127
1, 426926, Note_on_c, 12, 71, 127
1, 426926, Note_on_c, 6, 66, 127
1, 427054, Note_off_c, 6, 66, 127
1, 427061, Note_on_c, 10, 81, 127
1, 427061, Note_on_c, 3, 63, 127
1, 427115, Note_off_c, 12, 71, 127
1, 427189, Note_off_c, 3, 63, 127
1, 427189, Note_off_c, 10, 81, 127
1, 427195, Note_on_c, 8, 80, 127
1, 427195, Note_on_c, 12, 71, 127
1, 427195, Note_on_c, 4, 64, 127
1, 427323, Note_off_c, 4, 64, 127
1, 427323, Note_off_c, 8, 80, 127
1, 427330, Note_on_c, 4, 76, 127
1, 427330, Note_on_c, 8, 68, 127
1, 427458, Note_off_c, 8, 68, 127
1, 427458, Note_off_c, 4, 76, 127
1, 427464, Note_on_c, 8, 80, 127
1, 427464, Note_on_c, 4, 64, 127
1, 427592, Note_off_c, 4, 64, 127
1, 427592, Note_off_c, 8, 80, 127
1, 427594, Note_off_c, 12, 71, 127
1, 427598, Note_on_c, 6, 78, 127
1, 427598, Note_on_c, 0, 60, 127
1, 427726, Note_off_c, 0, 60, 127
1, 427726, Note_off_c, 6, 78, 127
1, 427733, Note_on_c, 10, 69, 127
1, 427733, Note_on_c, 3, 63, 127
1, 427861, Note_off_c, 3, 63, 127
1, 427861, Note_off_c, 10, 69, 127
1, 427867, Note_on_c, 6, 78, 127
1, 427867, Note_on_c, 0, 60, 127
1, 427995, Note_off_c, 0, 60, 127
1, 427995, Note_off_c, 6, 78, 127
1, 428002, Note_on_c, 6, 78, 127
1, 428002, Note_on_c, 0, 60, 127
1, 428130, Note_off_c, 0, 60, 127
1, 428130, Note_off_c, 6, 78, 127
1, 428136, Note_on_c, 10, 69, 127
1, 428136, Note_on_c, 3, 63, 127
1, 428264, Note_off_c, 3, 63, 127
1, 428264, Note_off_c, 10, 69, 127
1, 428270, Note_on_c, 6, 78, 127
1, 428270, Note_on_c, 0, 60, 127
1, 428398, Note_off_c, 0, 60, 127
1, 428398, Note_off_c, 6, 78, 127
1, 428405, Note_on_c, 6, 78, 127
1, 428405, Note_on_c, 0, 60, 127
1, 428533, Note_off_c, 0, 60, 127
1, 428533, Note_off_c, 6, 78, 127
1, 428539, Note_on_c, 8, 68, 127
1, 428539, Note_on_c, 3, 63, 127
1, 428667, Note_off_c, 3, 63, 127
1, 428667, Note_off_c, 8, 68, 127
1, 428674, Note_on_c, 6, 78, 127
1, 428674, Note_on_c, 0, 60, 127
1, 428802, Note_off_c, 0, 60, 127
1, 428802, Note_off_c, 6, 78, 127
1, 428808, Note_on_c, 4, 76, 127
1, 428808, Note_on_c, 1, 61, 127
1, 428936, Note_off_c, 4, 76, 127
1, 428942, Note_on_c, 8, 68, 127
1, 429070, Note_off_c, 1, 61, 127
1, 429077, Note_on_c, 5, 77, 127
1, 429077, Note_on_c, 1, 61, 127
1, 429077, Note_on_c, 12, 59, 127
1, 429194, Note_off_c, 8, 68, 127
1, 429205, Note_off_c, 12, 59, 127
1, 429205, Note_off_c, 1, 61, 127
1, 429205, Note_off_c, 5, 77, 127
1, 429211, Note_on_c, 6, 78, 127
1, 429211, Note_on_c, 1, 61, 127
1, 429211, Note_on_c, 11, 58, 127
1, 429339, Note_off_c, 6, 78, 127
1, 429346, Note_on_c, 1, 73, 127
1, 429473, Note_off_c, 11, 58, 127
1, 429473, Note_off_c, 1, 61, 127
1, 429474, Note_off_c, 1, 73, 127
1, 429480, Note_on_c, 4, 76, 127
1, 429480, Note_on_c, 11, 58, 127
1, 429480, Note_on_c, 6, 54, 127
1, 429608, Note_off_c, 6, 54, 127
1, 429608, Note_off_c, 11, 58, 127
1, 429608, Note_off_c, 4, 76, 127
1, 429614, Note_on_c, 2, 74, 127
1, 429614, Note_on_c, 12, 59, 127
1, 429742, Note_off_c, 2, 74, 127
1, 429749, Note_on_c, 12, 71, 127
1, 429876, Note_off_c, 12, 59, 127
1, 429877, Note_off_c, 12, 71, 127
1, 429883, Note_on_c, 2, 74, 127
1, 429883, Note_on_c, 12, 59, 127
1, 429883, Note_on_c, 8, 56, 127
1, 430011, Note_off_c, 8, 56, 127
1, 430011, Note_off_c, 12, 59, 127
1, 430011, Note_off_c, 2, 74, 127
1, 430018, Note_on_c, 1, 73, 127
1, 430018, Note_on_c, 8, 68, 127
1, 430018, Note_on_c, 1, 61, 127
1, 430018, Note_on_c, 5, 53, 127
1, 430146, Note_off_c, 5, 53, 127
1, 430152, Note_on_c, 8, 56, 127
1, 430280, Note_off_c, 8, 56, 127
1, 430280, Note_off_c, 1, 61, 127
1, 430280, Note_off_c, 8, 68, 127
1, 430280, Note_off_c, 1, 73, 127
1, 430286, Note_on_c, 12, 71, 127
1, 430286, Note_on_c, 8, 68, 127
1, 430286, Note_on_c, 1, 61, 127
1, 430286, Note_on_c, 5, 53, 127
1, 430414, Note_off_c, 5, 53, 127
1, 430414, Note_off_c, 1, 61, 127
1, 430414, Note_off_c, 8, 68, 127
1, 430414, Note_off_c, 12, 71, 127
1, 430421, Note_on_c, 10, 69, 127
1, 430421, Note_on_c, 8, 68, 127
1, 430421, Note_on_c, 1, 61, 127
1, 430421, Note_on_c, 6, 54, 127
1, 430549, Note_off_c, 6, 54, 127
1, 430555, Note_on_c, 10, 57, 127
1, 430683, Note_off_c, 10, 57, 127
1, 430683, Note_off_c, 1, 61, 127
1, 430683, Note_off_c, 8, 68, 127
1, 430683, Note_off_c, 10, 69, 127
1, 430690, Note_on_c, 10, 69, 127
1, 430690, Note_on_c, 6, 66, 127
1, 430690, Note_on_c, 1, 61, 127
1, 430690, Note_on_c, 6, 54, 127
1, 430818, Note_off_c, 6, 54, 127
1, 430818, Note_off_c, 1, 61, 127
1, 430818, Note_off_c, 6, 66, 127
1, 430818, Note_off_c, 10, 69, 127
1, 430824, Note_on_c, 7, 67, 127
1, 430824, Note_on_c, 2, 62, 127
1, 430824, Note_on_c, 12, 59, 127
1, 430952, Note_off_c, 7, 67, 127
1, 430958, Note_on_c, 12, 71, 127
1, 431086, Note_off_c, 12, 71, 127
1, 431086, Note_off_c, 12, 59, 127
1, 431086, Note_off_c, 2, 62, 127
1, 431093, Note_on_c, 7, 67, 127
1, 431093, Note_on_c, 2, 62, 127
1, 431093, Note_on_c, 12, 59, 127
1, 431093, Note_on_c, 12, 47, 127
1, 431221, Note_off_c, 12, 47, 127
1, 431221, Note_off_c, 12, 59, 127
1, 431221, Note_off_c, 2, 62, 127
1, 431221, Note_off_c, 7, 67, 127
1, 431227, Note_on_c, 5, 65, 127
1, 431227, Note_on_c, 1, 61, 127
1, 431227, Note_on_c, 12, 47, 127
1, 431227, Note_on_c, 8, 56, 127
1, 431355, Note_off_c, 5, 65, 127
1, 431362, Note_on_c, 1, 73, 127
1, 431489, Note_off_c, 8, 56, 127
1, 431489, Note_off_c, 12, 47, 127
1, 431489, Note_off_c, 1, 61, 127
1, 431490, Note_off_c, 1, 73, 127
1, 431496, Note_on_c, 6, 66, 127
1, 431496, Note_on_c, 1, 61, 127
1, 431496, Note_on_c, 10, 57, 127
1, 431496, Note_on_c, 10, 45, 127
1, 431624, Note_off_c, 10, 45, 127
1, 431624, Note_off_c, 10, 57, 127
1, 431624, Note_off_c, 1, 61, 127
1, 431624, Note_off_c, 6, 66, 127
1, 431630, Note_on_c, 6, 66, 127
1, 431630, Note_on_c, 2, 62, 127
1, 431630, Note_on_c, 8, 56, 127
1, 431630, Note_on_c, 12, 47, 127
1, 431758, Note_off_c, 6, 66, 127
1, 431765, Note_on_c, 8, 68, 127
1, 431892, Note_off_c, 12, 47, 127
1, 431892, Note_off_c, 8, 56, 127
1, 431892, Note_off_c, 2, 62, 127
1, 431893, Note_off_c, 8, 68, 127
1, 431899, Note_on_c, 5, 65, 127
1, 431899, Note_on_c, 1, 61, 127
1, 431899, Note_on_c, 8, 56, 127
1, 431899, Note_on_c, 1, 49, 127
1, 432027, Note_off_c, 1, 49, 127
1, 432027, Note_off_c, 8, 56, 127
1, 432027, Note_off_c, 1, 61, 127
1, 432027, Note_off_c, 5, 65, 127
1, 432034, Note_on_c, 6, 66, 127
1, 432034, Note_on_c, 10, 57, 127
1, 432034, Note_on_c, 6, 54, 127
1, 432168, Note_on_c, 6, 78, 127
1, 432223, Note_off_c, 10, 57, 127
1, 432286, Note_off_c, 6, 66, 127
1, 432296, Note_off_c, 6, 78, 127
1, 432302, Note_on_c, 8, 68, 127
1, 432302, Note_on_c, 5, 77, 127
1, 432391, Note_off_c, 6, 54, 127
1, 432432, Note_off_c, 5, 77, 127
1, 432432, Note_off_c, 8, 68, 127
1, 432439, Note_on_c, 6, 54, 127
1, 432439, Note_on_c, 10, 69, 127
1, 432439, Note_on_c, 6, 78, 127
1, 432569, Note_off_c, 6, 54, 127
1, 432575, Note_on_c, 10, 57, 127
1, 432695, Note_off_c, 10, 69, 127
1, 432705, Note_off_c, 10, 57, 127
1, 432705, Note_off_c, 6, 78, 127
1, 432712, Note_on_c, 6, 54, 127
1, 432712, Note_on_c, 10, 69, 127
1, 432842, Note_off_c, 10, 69, 127
1, 432842, Note_off_c, 6, 54, 127
1, 432851, Note_on_c, 6, 54, 127
1, 432851, Note_on_c, 2, 74, 127
1, 432981, Note_off_c, 6, 54, 127
1, 432987, Note_on_c, 10, 57, 127
1, 433117, Note_off_c, 10, 57, 127
1, 433124, Note_on_c, 6, 54, 127
1, 433124, Note_on_c, 10, 69, 127
1, 433254, Note_off_c, 10, 69, 127
1, 433254, Note_off_c, 6, 54, 127
1, 433262, Note_on_c, 5, 53, 127
1, 433262, Note_on_c, 8, 68, 127
1, 433392, Note_off_c, 5, 53, 127
1, 433399, Note_on_c, 8, 56, 127
1, 433529, Note_off_c, 8, 56, 127
1, 433529, Note_off_c, 2, 74, 127
1, 433535, Note_on_c, 5, 53, 127
1, 433535, Note_on_c, 2, 74, 127
1, 433665, Note_off_c, 2, 74, 127
1, 433665, Note_off_c, 5, 53, 127
1, 433672, Note_on_c, 5, 53, 127
1, 433672, Note_on_c, 1, 73, 127
1, 433802, Note_off_c, 5, 53, 127
1, 433810, Note_on_c, 8, 56, 127
1, 433938, Note_off_c, 1, 73, 127
1, 433940, Note_off_c, 8, 56, 127
1, 433947, Note_on_c, 5, 53, 127
1, 433947, Note_on_c, 12, 71, 127
1, 434077, Note_off_c, 12, 71, 127
1, 434077, Note_off_c, 5, 53, 127
1, 434083, Note_on_c, 6, 54, 127
1, 434083, Note_on_c, 10, 69, 127
1, 434213, Note_off_c, 6, 54, 127
1, 434222, Note_on_c, 10, 57, 127
1, 434351, Note_off_c, 8, 68, 127
1, 434352, Note_off_c, 10, 57, 127
1, 434358, Note_on_c, 6, 54, 127
1, 434358, Note_on_c, 8, 68, 127
1, 434486, Note_off_c, 10, 69, 127
1, 434488, Note_off_c, 8, 68, 127
1, 434488, Note_off_c, 6, 54, 127
1, 434495, Note_on_c, 2, 50, 127
1, 434495, Note_on_c, 6, 66, 127
1, 434495, Note_on_c, 10, 69, 127
1, 434625, Note_off_c, 2, 50, 127
1, 434631, Note_on_c, 6, 54, 127
1, 434761, Note_off_c, 6, 54, 127
1, 434761, Note_off_c, 10, 69, 127
1, 434770, Note_on_c, 2, 50, 127
1, 434770, Note_on_c, 10, 69, 127
1, 434898, Note_off_c, 6, 66, 127
1, 434900, Note_off_c, 2, 50, 127
1, 434906, Note_on_c, 12, 47, 127
1, 434906, Note_on_c, 2, 62, 127
1, 435036, Note_off_c, 12, 47, 127
1, 435043, Note_on_c, 2, 50, 127
1, 435173, Note_off_c, 2, 50, 127
1, 435173, Note_off_c, 10, 69, 127
1, 435182, Note_on_c, 12, 47, 127
1, 435182, Note_on_c, 10, 69, 127
1, 435309, Note_off_c, 2, 62, 127
1, 435312, Note_off_c, 12, 47, 127
1, 435318, Note_on_c, 12, 47, 127
1, 435318, Note_on_c, 2, 62, 127
1, 435448, Note_off_c, 12, 47, 127
1, 435455, Note_on_c, 2, 50, 127
1, 435585, Note_off_c, 2, 50, 127
1, 435585, Note_off_c, 10, 69, 127
1, 435591, Note_on_c, 12, 47, 127
1, 435591, Note_on_c, 7, 67, 127
1, 435721, Note_off_c, 12, 47, 127
1, 435721, Note_off_c, 2, 62, 127
1, 435730, Note_on_c, 11, 46, 127
1, 435730, Note_on_c, 1, 61, 127
1, 435860, Note_off_c, 11, 46, 127
1, 435866, Note_on_c, 1, 49, 127
1, 435994, Note_off_c, 7, 67, 127
1, 435996, Note_off_c, 1, 49, 127
1, 436003, Note_on_c, 11, 46, 127
1, 436003, Note_on_c, 7, 67, 127
1, 436133, Note_off_c, 11, 46, 127
1, 436133, Note_off_c, 1, 61, 127
1, 436139, Note_on_c, 10, 45, 127
1, 436139, Note_on_c, 1, 61, 127
1, 436269, Note_off_c, 10, 45, 127
1, 436278, Note_on_c, 1, 49, 127
1, 436406, Note_off_c, 7, 67, 127
1, 436408, Note_off_c, 1, 49, 127
1, 436414, Note_on_c, 10, 45, 127
1, 436414, Note_on_c, 6, 66, 127
1, 436542, Note_off_c, 1, 61, 127
1, 436544, Note_off_c, 10, 45, 127
1, 436551, Note_on_c, 8, 44, 127
1, 436551, Note_on_c, 12, 59, 127
1, 436681, Note_off_c, 8, 44, 127
1, 436689, Note_on_c, 12, 47, 127
1, 436817, Note_off_c, 6, 66, 127
1, 436819, Note_off_c, 12, 47, 127
1, 436826, Note_on_c, 8, 44, 127
1, 436826, Note_on_c, 6, 66, 127
1, 436954, Note_off_c, 12, 59, 127
1, 436956, Note_off_c, 6, 66, 127
1, 436956, Note_off_c, 8, 44, 127
1, 436962, Note_on_c, 8, 44, 127
1, 436962, Note_on_c, 12, 59, 127
1, 436962, Note_on_c, 5, 65, 127
1, 437092, Note_off_c, 8, 44, 127
1, 437099, Note_on_c, 12, 47, 127
1, 437228, Note_off_c, 5, 65, 127
1, 437229, Note_off_c, 12, 47, 127
1, 437237, Note_on_c, 8, 44, 127
1, 437237, Note_on_c, 12, 71, 127
1, 437365, Note_off_c, 12, 59, 127
1, 437367, Note_off_c, 8, 44, 127
1, 437376, Note_on_c, 6, 66, 127
1, 437376, Note_on_c, 1, 61, 127
1, 437376, Note_on_c, 6, 42, 127
1, 437510, Note_off_c, 6, 42, 127
1, 437517, Note_on_c, 10, 45, 127
1, 437640, Note_off_c, 12, 71, 127
1, 437651, Note_off_c, 10, 45, 127
1, 437657, Note_on_c, 12, 71, 127
1, 437657, Note_on_c, 6, 42, 127
1, 437791, Note_off_c, 6, 42, 127
1, 437791, Note_off_c, 1, 61, 127
1, 437791, Note_off_c, 6, 66, 127
1, 437798, Note_on_c, 6, 66, 127
1, 437798, Note_on_c, 1, 61, 127
1, 437798, Note_on_c, 6, 42, 127
1, 437932, Note_off_c, 6, 42, 127
1, 437939, Note_on_c, 10, 45, 127
1, 438072, Note_off_c, 12, 71, 127
1, 438073, Note_off_c, 10, 45, 127
1, 438080, Note_on_c, 10, 69, 127
1, 438080, Note_on_c, 6, 42, 127
1, 438213, Note_off_c, 1, 61, 127
1, 438213, Note_off_c, 6, 66, 127
1, 438214, Note_off_c, 6, 42, 127
1, 438222, Note_on_c, 1, 61, 127
1, 438222, Note_on_c, 4, 64, 127
1, 438222, Note_on_c, 1, 49, 127
1, 438356, Note_off_c, 1, 49, 127
1, 438363, Note_on_c, 4, 52, 127
1, 438495, Note_off_c, 10, 69, 127
1, 438497, Note_off_c, 4, 52, 127
1, 438504, Note_on_c, 11, 70, 127
1, 438504, Note_on_c, 1, 49, 127
1, 438637, Note_off_c, 4, 64, 127
1, 438637, Note_off_c, 1, 61, 127
1, 438638, Note_off_c, 1, 49, 127
1, 438644, Note_on_c, 1, 61, 127
1, 438644, Note_on_c, 4, 64, 127
1, 438644, Note_on_c, 1, 49, 127
1, 438778, Note_off_c, 1, 49, 127
1, 438785, Note_on_c, 4, 52, 127
1, 438919, Note_off_c, 4, 52, 127
1, 438919, Note_off_c, 11, 70, 127
1, 438928, Note_on_c, 4, 76, 127
1, 438928, Note_on_c, 1, 49, 127
1, 439059, Note_off_c, 4, 64, 127
1, 439059, Note_off_c, 1, 61, 127
1, 439062, Note_off_c, 1, 49, 127
1, 439069, Note_on_c, 6, 66, 127
1, 439069, Note_on_c, 11, 70, 127
1, 439069, Note_on_c, 2, 50, 127
1, 439203, Note_off_c, 2, 50, 127
1, 439209, Note_on_c, 6, 54, 127
1, 439343, Note_off_c, 6, 54, 127
1, 439343, Note_off_c, 4, 76, 127
1, 439350, Note_on_c, 4, 76, 127
1, 439350, Note_on_c, 2, 50, 127
1, 439484, Note_off_c, 2, 50, 127
1, 439484, Note_off_c, 11, 70, 127
1, 439484, Note_off_c, 6, 66, 127
1, 439491, Note_on_c, 12, 71, 127
1, 439491, Note_on_c, 6, 66, 127
1, 439491, Note_on_c, 2, 50, 127
1, 439625, Note_off_c, 2, 50, 127
1, 439634, Note_on_c, 6, 54, 127
1, 439765, Note_off_c, 4, 76, 127
1, 439768, Note_off_c, 6, 54, 127
1, 439774, Note_on_c, 2, 74, 127
1, 439774, Note_on_c, 2, 50, 127
1, 439906, Note_off_c, 6, 66, 127
1, 439906, Note_off_c, 12, 71, 127
1, 439908, Note_off_c, 2, 50, 127
1, 439915, Note_on_c, 12, 71, 127
1, 439915, Note_on_c, 7, 67, 127
1, 439915, Note_on_c, 4, 52, 127
1, 440049, Note_off_c, 4, 52, 127
1, 440056, Note_on_c, 7, 55, 127
1, 440189, Note_off_c, 2, 74, 127
1, 440190, Note_off_c, 7, 55, 127
1, 440196, Note_on_c, 7, 79, 127
1, 440196, Note_on_c, 4, 52, 127
1, 440330, Note_off_c, 4, 52, 127
1, 440330, Note_off_c, 7, 67, 127
1, 440330, Note_off_c, 12, 71, 127
1, 440339, Note_on_c, 0, 72, 127
1, 440339, Note_on_c, 7, 67, 127
1, 440339, Note_on_c, 4, 52, 127
1, 440473, Note_off_c, 4, 52, 127
1, 440480, Note_on_c, 7, 55, 127
1, 440611, Note_off_c, 7, 79, 127
1, 440614, Note_off_c, 7, 55, 127
1, 440621, Note_on_c, 7, 79, 127
1, 440621, Note_on_c, 4, 52, 127
1, 440712, Note_off_c, 7, 67, 127
1, 440712, Note_off_c, 0, 72, 127
1, 440763, Note_off_c, 4, 52, 127
1, 440789, Note_on_c, 7, 67, 127
1, 440789, Note_on_c, 1, 61, 127
1, 440789, Note_on_c, 4, 52, 127
1, 440812, Note_off_c, 7, 79, 127
1, 440923, Note_off_c, 4, 52, 127
1, 440938, Note_on_c, 7, 55, 127
1, 441072, Note_off_c, 7, 55, 127
1, 441078, Note_on_c, 4, 52, 127
1, 441078, Note_on_c, 11, 70, 127
1, 441204, Note_off_c, 1, 61, 127
1, 441204, Note_off_c, 7, 67, 127
1, 441212, Note_off_c, 4, 52, 127
1, 441221, Note_on_c, 4, 52, 127
1, 441221, Note_on_c, 7, 67, 127
1, 441221, Note_on_c, 1, 61, 127
1, 441355, Note_off_c, 4, 52, 127
1, 441362, Note_on_c, 7, 55, 127
1, 441493, Note_off_c, 11, 70, 127
1, 441496, Note_off_c, 7, 55, 127
1, 441503, Note_on_c, 4, 52, 127
1, 441503, Note_on_c, 11, 70, 127
1, 441636, Note_off_c, 1, 61, 127
1, 441636, Note_off_c, 7, 67, 127
1, 441637, Note_off_c, 4, 52, 127
1, 441643, Note_on_c, 2, 50, 127
1, 441643, Note_on_c, 6, 66, 127
1, 441643, Note_on_c, 2, 62, 127
1, 441777, Note_off_c, 2, 50, 127
1, 441784, Note_on_c, 6, 54, 127
1, 441918, Note_off_c, 6, 54, 127
1, 441918, Note_off_c, 11, 70, 127
1, 441927, Note_on_c, 2, 50, 127
1, 441927, Note_on_c, 12, 71, 127
1, 442058, Note_off_c, 2, 62, 127
1, 442058, Note_off_c, 6, 66, 127
1, 442061, Note_off_c, 2, 50, 127
1, 442067, Note_on_c, 4, 52, 127
1, 442067, Note_on_c, 1, 61, 127
1, 442067, Note_on_c, 7, 67, 127
1, 442201, Note_off_c, 4, 52, 127
1, 442208, Note_on_c, 7, 55, 127
1, 442342, Note_off_c, 7, 55, 127
1, 442342, Note_off_c, 12, 71, 127
1, 442349, Note_on_c, 4, 52, 127
1, 442349, Note_on_c, 12, 71, 127
1, 442482, Note_off_c, 7, 67, 127
1, 442482, Note_off_c, 1, 61, 127
1, 442483, Note_off_c, 4, 52, 127
1, 442490, Note_on_c, 6, 54, 127
1, 442490, Note_on_c, 6, 66, 127
1, 442490, Note_on_c, 4, 64, 127
1, 442490, Note_on_c, 1, 61, 127
1, 442624, Note_off_c, 6, 54, 127
1, 442632, Note_on_c, 4, 52, 127
1, 442764, Note_off_c, 12, 71, 127
1, 442766, Note_off_c, 4, 52, 127
1, 442773, Note_on_c, 6, 54, 127
1, 442773, Note_on_c, 11, 70, 127
1, 442905, Note_off_c, 1, 61, 127
1, 442905, Note_off_c, 4, 64, 127
1, 442905, Note_off_c, 6, 66, 127
1, 442907, Note_off_c, 6, 54, 127
1, 442914, Note_on_c, 12, 47, 127
1, 442914, Note_on_c, 6, 66, 127
1, 442914, Note_on_c, 2, 62, 127
1, 443048, Note_off_c, 11, 70, 127
1, 443054, Note_on_c, 12, 71, 127
1, 443189, Note_off_c, 2, 62, 127
1, 443189, Note_off_c, 6, 66, 127
1, 443195, Note_on_c, 6, 66, 127
1, 443195, Note_on_c, 2, 62, 127
1, 443342, Note_off_c, 2, 62, 127
1, 443342, Note_off_c, 6, 66, 127
1, 443357, Note_off_c, 12, 47, 127
1, 443403, Note_on_c, 2, 62, 127
1, 443403, Note_on_c, 12, 59, 127
1, 443403, Note_on_c, 6, 66, 127
1, 443438, Note_off_c, 12, 71, 127
1, 443569, Note_on_c, 12, 71, 127
1, 443690, Note_off_c, 6, 66, 127
1, 443690, Note_off_c, 12, 59, 127
1, 443690, Note_off_c, 2, 62, 127
1, 443718, Note_on_c, 10, 57, 127
1, 443718, Note_on_c, 2, 62, 127
1, 443718, Note_on_c, 6, 66, 127
1, 443858, Note_off_c, 6, 66, 127
1, 443858, Note_off_c, 2, 62, 127
1, 443858, Note_off_c, 10, 57, 127
1, 443865, Note_on_c, 7, 55, 127
1, 443865, Note_on_c, 7, 67, 127
1, 443865, Note_on_c, 4, 64, 127
1, 444003, Note_off_c, 12, 71, 127
1, 444014, Note_on_c, 12, 71, 127
1, 444152, Note_off_c, 4, 64, 127
1, 444152, Note_off_c, 7, 67, 127
1, 444152, Note_off_c, 7, 55, 127
1, 444161, Note_on_c, 4, 52, 127
1, 444161, Note_on_c, 7, 67, 127
1, 444161, Note_on_c, 2, 62, 127
1, 444301, Note_off_c, 2, 62, 127
1, 444301, Note_off_c, 7, 67, 127
1, 444301, Note_off_c, 4, 52, 127
1, 444308, Note_on_c, 4, 52, 127
1, 444308, Note_on_c, 1, 61, 127
1, 444308, Note_on_c, 7, 67, 127
1, 444448, Note_off_c, 12, 71, 127
1, 444457, Note_on_c, 12, 71, 127
1, 444595, Note_off_c, 7, 67, 127
1, 444595, Note_off_c, 1, 61, 127
1, 444595, Note_off_c, 4, 52, 127
1, 444597, Note_off_c, 12, 71, 127
1, 444604, Note_on_c, 6, 54, 127
1, 444604, Note_on_c, 1, 61, 127
1, 444604, Note_on_c, 6, 66, 127
1, 444604, Note_on_c, 11, 70, 127
1, 444744, Note_off_c, 6, 66, 127
1, 444744, Note_off_c, 1, 61, 127
1, 444744, Note_off_c, 6, 54, 127
1, 444753, Note_on_c, 12, 47, 127
1, 444753, Note_on_c, 6, 66, 127
1, 444753, Note_on_c, 2, 62, 127
1, 444891, Note_off_c, 11, 70, 127
1, 444900, Note_on_c, 12, 71, 127
1, 445053, Note_off_c, 2, 62, 127
1, 445053, Note_off_c, 6, 66, 127
1, 445061, Note_off_c, 12, 71, 127
1, 445066, Note_on_c, 1, 61, 127
1, 445066, Note_on_c, 4, 64, 127
1, 445066, Note_on_c, 11, 70, 127
1, 445267, Note_off_c, 12, 47, 127
1, 445293, Note_on_c, 12, 47, 127
1, 445293, Note_on_c, 2, 62, 127
1, 445293, Note_on_c, 6, 66, 127
1, 445402, Note_off_c, 11, 70, 127
1, 445402, Note_off_c, 4, 64, 127
1, 445402, Note_off_c, 1, 61, 127
1, 445442, Note_on_c, 12, 71, 127
1, 445580, Note_off_c, 6, 66, 127
1, 445580, Note_off_c, 2, 62, 127
1, 445580, Note_off_c, 12, 47, 127
1, 445589, Note_on_c, 1, 49, 127
1, 445589, Note_on_c, 2, 62, 127
1, 445589, Note_on_c, 6, 66, 127
1, 445729, Note_off_c, 6, 66, 127
1, 445729, Note_off_c, 2, 62, 127
1, 445729, Note_off_c, 1, 49, 127
1, 445738, Note_on_c, 2, 50, 127
1, 445738, Note_on_c, 2, 62, 127
1, 445738, Note_on_c, 6, 66, 127
1, 445876, Note_off_c, 12, 71, 127
1, 445885, Note_on_c, 12, 71, 127
1, 446025, Note_off_c, 6, 66, 127
1, 446025, Note_off_c, 2, 62, 127
1, 446025, Note_off_c, 2, 50, 127
1, 446032, Note_on_c, 4, 52, 127
1, 446032, Note_on_c, 2, 62, 127
1, 446032, Note_on_c, 6, 66, 127
1, 446172, Note_off_c, 6, 66, 127
1, 446172, Note_off_c, 2, 62, 127
1, 446172, Note_off_c, 4, 52, 127
1, 446181, Note_on_c, 6, 54, 127
1, 446181, Note_on_c, 1, 61, 127
1, 446181, Note_on_c, 4, 64, 127
1, 446319, Note_off_c, 12, 71, 127
1, 446328, Note_on_c, 11, 70, 127
1, 446468, Note_off_c, 4, 64, 127
1, 446468, Note_off_c, 1, 61, 127
1, 446468, Note_off_c, 6, 54, 127
1, 446477, Note_on_c, 1, 49, 127
1, 446477, Note_on_c, 1, 61, 127
1, 446477, Note_on_c, 4, 64, 127
1, 446617, Note_off_c, 4, 64, 127
1, 446617, Note_off_c, 1, 61, 127
1, 446617, Note_off_c, 1, 49, 127
1, 446624, Note_on_c, 6, 42, 127
1, 446624, Note_on_c, 4, 64, 127
1, 446624, Note_on_c, 1, 61, 127
1, 446762, Note_off_c, 11, 70, 127
1, 446771, Note_on_c, 11, 70, 127
1, 446911, Note_off_c, 1, 61, 127
1, 446911, Note_off_c, 4, 64, 127
1, 446911, Note_off_c, 6, 42, 127
1, 446921, Note_on_c, 6, 54, 127
1, 446921, Note_on_c, 1, 61, 127
1, 446921, Note_on_c, 4, 64, 127
1, 447061, Note_off_c, 4, 64, 127
1, 447061, Note_off_c, 1, 61, 127
1, 447061, Note_off_c, 6, 54, 127
1, 447068, Note_on_c, 12, 47, 127
1, 447068, Note_on_c, 2, 62, 127
1, 447068, Note_on_c, 12, 59, 127
1, 447068, Note_on_c, 6, 66, 127
1, 447205, Note_off_c, 11, 70, 127
1, 447217, Note_on_c, 12, 71, 127
1, 447355, Note_off_c, 6, 66, 127
1, 447355, Note_off_c, 12, 59, 127
1, 447355, Note_off_c, 2, 62, 127
1, 447355, Note_off_c, 12, 47, 127
1, 447364, Note_on_c, 1, 49, 127
1, 447364, Note_on_c, 2, 62, 127
1, 447364, Note_on_c, 6, 66, 127
1, 447364, Note_on_c, 12, 59, 127
1, 447504, Note_off_c, 12, 59, 127
1, 447504, Note_off_c, 6, 66, 127
1, 447504, Note_off_c, 2, 62, 127
1, 447504, Note_off_c, 1, 49, 127
1, 447511, Note_on_c, 2, 50, 127
1, 447511, Note_on_c, 12, 59, 127
1, 447511, Note_on_c, 2, 62, 127
1, 447511, Note_on_c, 6, 66, 127
1, 447651, Note_off_c, 12, 71, 127
1, 447660, Note_on_c, 12, 71, 127
1, 447798, Note_off_c, 6, 66, 127
1, 447798, Note_off_c, 2, 62, 127
1, 447798, Note_off_c, 12, 59, 127
1, 447798, Note_off_c, 2, 50, 127
1, 447807, Note_on_c, 4, 52, 127
1, 447807, Note_on_c, 2, 62, 127
1, 447807, Note_on_c, 6, 66, 127
1, 447807, Note_on_c, 12, 59, 127
1, 447947, Note_off_c, 12, 59, 127
1, 447947, Note_off_c, 6, 66, 127
1, 447947, Note_off_c, 2, 62, 127
1, 447947, Note_off_c, 4, 52, 127
1, 447956, Note_on_c, 6, 54, 127
1, 447956, Note_on_c, 1, 61, 127
1, 447956, Note_on_c, 6, 66, 127
1, 448094, Note_off_c, 12, 71, 127
1, 448103, Note_on_c, 11, 70, 127
1, 448243, Note_off_c, 6, 66, 127
1, 448243, Note_off_c, 1, 61, 127
1, 448243, Note_off_c, 6, 54, 127
1, 448250, Note_on_c, 1, 49, 127
1, 448250, Note_on_c, 1, 61, 127
1, 448250, Note_on_c, 6, 66, 127
1, 448390, Note_off_c, 6, 66, 127
1, 448390, Note_off_c, 1, 61, 127
1, 448390, Note_off_c, 1, 49, 127
1, 448390, Note_off_c, 11, 70, 127
1, 448399, Note_on_c, 6, 42, 127
1, 448399, Note_on_c, 1, 61, 127
1, 448399, Note_on_c, 6, 66, 127
1, 448399, Note_on_c, 11, 70, 127
1, 448588, Note_off_c, 6, 42, 127
1, 448603, Note_on_c, 1, 49, 127
1, 448815, Note_on_c, 6, 54, 127
1, 448817, Note_off_c, 1, 49, 127
1, 448861, Note_off_c, 11, 70, 127
1, 448861, Note_off_c, 6, 66, 127
1, 448861, Note_off_c, 1, 61, 127
1, 449215, Note_off_c, 6, 54, 127
1, 449487, Note_on_c, 2, 50, 127
1, 449487, Note_on_c, 5, 65, 127
1, 449487, Note_on_c, 10, 69, 127
1, 449625, Note_on_c, 2, 74, 127
1, 449755, Note_off_c, 10, 69, 127
1, 449755, Note_off_c, 5, 65, 127
1, 449755, Note_off_c, 2, 50, 127
1, 449764, Note_on_c, 4, 52, 127
1, 449764, Note_on_c, 5, 65, 127
1, 449764, Note_on_c, 10, 69, 127
1, 449894, Note_off_c, 10, 69, 127
1, 449894, Note_off_c, 5, 65, 127
1, 449894, Note_off_c, 4, 52, 127
1, 449903, Note_on_c, 5, 53, 127
1, 449903, Note_on_c, 5, 65, 127
1, 449903, Note_on_c, 10, 69, 127
1, 450032, Note_off_c, 2, 74, 127
1, 450041, Note_on_c, 2, 74, 127
1, 450171, Note_off_c, 10, 69, 127
1, 450171, Note_off_c, 5, 65, 127
1, 450171, Note_off_c, 5, 53, 127
1, 450180, Note_on_c, 7, 55, 127
1, 450180, Note_on_c, 5, 65, 127
1, 450180, Note_on_c, 10, 69, 127
1, 450310, Note_off_c, 10, 69, 127
1, 450310, Note_off_c, 5, 65, 127
1, 450310, Note_off_c, 7, 55, 127
1, 450318, Note_on_c, 10, 57, 127
1, 450318, Note_on_c, 4, 64, 127
1, 450318, Note_on_c, 7, 67, 127
1, 450448, Note_off_c, 2, 74, 127
1, 450457, Note_on_c, 1, 73, 127
1, 450586, Note_off_c, 7, 67, 127
1, 450586, Note_off_c, 4, 64, 127
1, 450586, Note_off_c, 10, 57, 127
1, 450596, Note_on_c, 4, 52, 127
1, 450596, Note_on_c, 4, 64, 127
1, 450596, Note_on_c, 7, 67, 127
1, 450726, Note_off_c, 7, 67, 127
1, 450726, Note_off_c, 4, 64, 127
1, 450726, Note_off_c, 4, 52, 127
1, 450732, Note_on_c, 10, 45, 127
1, 450732, Note_on_c, 4, 64, 127
1, 450732, Note_on_c, 7, 67, 127
1, 450864, Note_off_c, 1, 73, 127
1, 450871, Note_on_c, 1, 73, 127
1, 451000, Note_off_c, 7, 67, 127
1, 451000, Note_off_c, 4, 64, 127
1, 451000, Note_off_c, 10, 45, 127
1, 451009, Note_on_c, 10, 57, 127
1, 451009, Note_on_c, 4, 64, 127
1, 451009, Note_on_c, 7, 67, 127
1, 451139, Note_off_c, 7, 67, 127
1, 451139, Note_off_c, 4, 64, 127
1, 451139, Note_off_c, 10, 57, 127
1, 451148, Note_on_c, 2, 50, 127
1, 451148, Note_on_c, 5, 65, 127
1, 451148, Note_on_c, 10, 69, 127
1, 451148, Note_on_c, 2, 62, 127
1, 451278, Note_off_c, 1, 73, 127
1, 451286, Note_on_c, 2, 74, 127
1, 451416, Note_off_c, 2, 62, 127
1, 451416, Note_off_c, 10, 69, 127
1, 451416, Note_off_c, 5, 65, 127
1, 451416, Note_off_c, 2, 50, 127
1, 451425, Note_on_c, 4, 52, 127
1, 451425, Note_on_c, 10, 69, 127
1, 451425, Note_on_c, 5, 65, 127
1, 451425, Note_on_c, 2, 62, 127
1, 451555, Note_off_c, 2, 62, 127
1, 451555, Note_off_c, 5, 65, 127
1, 451555, Note_off_c, 10, 69, 127
1, 451555, Note_off_c, 4, 52, 127
1, 451564, Note_on_c, 5, 53, 127
1, 451564, Note_on_c, 10, 69, 127
1, 451564, Note_on_c, 5, 65, 127
1, 451564, Note_on_c, 2, 62, 127
1, 451693, Note_off_c, 2, 74, 127
1, 451702, Note_on_c, 2, 74, 127
1, 451832, Note_off_c, 2, 62, 127
1, 451832, Note_off_c, 5, 65, 127
1, 451832, Note_off_c, 10, 69, 127
1, 451832, Note_off_c, 5, 53, 127
1, 451841, Note_on_c, 7, 55, 127
1, 451841, Note_on_c, 10, 69, 127
1, 451841, Note_on_c, 5, 65, 127
1, 451841, Note_on_c, 2, 62, 127
1, 451971, Note_off_c, 2, 62, 127
1, 451971, Note_off_c, 5, 65, 127
1, 451971, Note_off_c, 10, 69, 127
1, 451971, Note_off_c, 7, 55, 127
1, 451979, Note_on_c, 10, 57, 127
1, 451979, Note_on_c, 8, 68, 127
1, 451979, Note_on_c, 5, 65, 127
1, 451979, Note_on_c, 2, 62, 127
1, 451979, Note_on_c, 12, 71, 127
1, 452109, Note_off_c, 2, 74, 127
1, 452118, Note_on_c, 2, 74, 127
1, 452247, Note_off_c, 12, 71, 127
1, 452247, Note_off_c, 2, 62, 127
1, 452247, Note_off_c, 5, 65, 127
1, 452247, Note_off_c, 8, 68, 127
1, 452247, Note_off_c, 10, 57, 127
1, 452257, Note_on_c, 10, 45, 127
1, 452257, Note_on_c, 2, 62, 127
1, 452257, Note_on_c, 5, 65, 127
1, 452257, Note_on_c, 8, 68, 127
1, 452257, Note_on_c, 12, 71, 127
1, 452376, Note_off_c, 2, 74, 127
1, 452387, Note_off_c, 12, 71, 127
1, 452387, Note_off_c, 8, 68, 127
1, 452387, Note_off_c, 5, 65, 127
1, 452387, Note_off_c, 2, 62, 127
1, 452387, Note_off_c, 10, 45, 127
1, 452429, Note_on_c, 10, 45, 127
1, 452429, Note_on_c, 4, 64, 127
1, 452429, Note_on_c, 10, 69, 127
1, 452429, Note_on_c, 1, 73, 127
1, 453422, Note_off_c, 1, 73, 127
1, 453422, Note_off_c, 10, 69, 127
1, 453422, Note_off_c, 4, 64, 127
1, 453422, Note_off_c, 10, 45, 127
1, 453592, Note_on_c, 2, 74, 127
1, 453592, Note_on_c, 5, 77, 127
1, 453592, Note_on_c, 5, 53, 127
1, 453720, Note_off_c, 5, 53, 127
1, 453746, Note_on_c, 1, 61, 127
1, 453746, Note_on_c, 10, 69, 127
1, 453854, Note_off_c, 5, 77, 127
1, 453854, Note_off_c, 2, 74, 127
1, 453874, Note_off_c, 1, 61, 127
1, 453886, Note_on_c, 5, 77, 127
1, 453886, Note_on_c, 2, 74, 127
1, 453886, Note_on_c, 2, 62, 127
1, 454008, Note_off_c, 10, 69, 127
1, 454014, Note_off_c, 2, 62, 127
1, 454014, Note_off_c, 2, 74, 127
1, 454014, Note_off_c, 5, 77, 127
1, 454033, Note_on_c, 2, 74, 127
1, 454033, Note_on_c, 5, 77, 127
1, 454033, Note_on_c, 7, 55, 127
1, 454161, Note_off_c, 7, 55, 127
1, 454180, Note_on_c, 1, 61, 127
1, 454180, Note_on_c, 10, 69, 127
1, 454295, Note_off_c, 5, 77, 127
1, 454295, Note_off_c, 2, 74, 127
1, 454308, Note_off_c, 1, 61, 127
1, 454327, Note_on_c, 2, 62, 127
1, 454327, Note_on_c, 5, 77, 127
1, 454327, Note_on_c, 2, 74, 127
1, 454455, Note_off_c, 2, 74, 127
1, 454455, Note_off_c, 5, 77, 127
1, 454455, Note_off_c, 2, 62, 127
1, 454474, Note_on_c, 5, 77, 127
1, 454474, Note_on_c, 2, 74, 127
1, 454474, Note_on_c, 10, 57, 127
1, 454576, Note_off_c, 10, 69, 127
1, 454614, Note_off_c, 10, 57, 127
1, 454621, Note_on_c, 10, 69, 127
1, 454621, Note_on_c, 1, 61, 127
1, 454761, Note_off_c, 1, 61, 127
1, 454761, Note_off_c, 2, 74, 127
1, 454761, Note_off_c, 5, 77, 127
1, 454768, Note_on_c, 2, 74, 127
1, 454768, Note_on_c, 5, 77, 127
1, 454768, Note_on_c, 2, 62, 127
1, 454908, Note_off_c, 2, 62, 127
1, 454908, Note_off_c, 5, 77, 127
1, 454908, Note_off_c, 2, 74, 127
1, 454917, Note_on_c, 5, 77, 127
1, 454917, Note_on_c, 2, 74, 127
1, 454917, Note_on_c, 11, 58, 127
1, 455055, Note_off_c, 10, 69, 127
1, 455057, Note_off_c, 11, 58, 127
1, 455064, Note_on_c, 10, 69, 127
1, 455064, Note_on_c, 1, 61, 127
1, 455204, Note_off_c, 1, 61, 127
1, 455204, Note_off_c, 2, 74, 127
1, 455204, Note_off_c, 5, 77, 127
1, 455213, Note_on_c, 5, 77, 127
1, 455213, Note_on_c, 2, 74, 127
1, 455213, Note_on_c, 2, 62, 127
1, 455353, Note_off_c, 2, 62, 127
1, 455353, Note_off_c, 2, 74, 127
1, 455353, Note_off_c, 5, 77, 127
1, 455360, Note_on_c, 2, 74, 127
1, 455360, Note_on_c, 5, 77, 127
1, 455360, Note_on_c, 5, 53, 127
1, 455498, Note_off_c, 10, 69, 127
1, 455500, Note_off_c, 5, 53, 127
1, 455507, Note_on_c, 10, 69, 127
1, 455507, Note_on_c, 1, 61, 127
1, 455647, Note_off_c, 1, 61, 127
1, 455647, Note_off_c, 5, 77, 127
1, 455647, Note_off_c, 2, 74, 127
1, 455657, Note_on_c, 5, 77, 127
1, 455657, Note_on_c, 2, 74, 127
1, 455657, Note_on_c, 2, 62, 127
1, 455797, Note_off_c, 2, 62, 127
1, 455797, Note_off_c, 2, 74, 127
1, 455797, Note_off_c, 5, 77, 127
1, 455804, Note_on_c, 5, 77, 127
1, 455804, Note_on_c, 2, 74, 127
1, 455804, Note_on_c, 7, 55, 127
1, 455941, Note_off_c, 10, 69, 127
1, 455944, Note_off_c, 7, 55, 127
1, 455953, Note_on_c, 10, 69, 127
1, 455953, Note_on_c, 1, 61, 127
1, 456091, Note_off_c, 2, 74, 127
1, 456091, Note_off_c, 5, 77, 127
1, 456093, Note_off_c, 1, 61, 127
1, 456100, Note_on_c, 5, 77, 127
1, 456100, Note_on_c, 2, 74, 127
1, 456100, Note_on_c, 2, 62, 127
1, 456240, Note_off_c, 2, 62, 127
1, 456240, Note_off_c, 2, 74, 127
1, 456240, Note_off_c, 5, 77, 127
1, 456247, Note_on_c, 5, 77, 127
1, 456247, Note_on_c, 2, 74, 127
1, 456247, Note_on_c, 10, 57, 127
1, 456387, Note_off_c, 10, 69, 127
1, 456396, Note_on_c, 10, 69, 127
1, 456534, Note_off_c, 10, 57, 127
1, 456534, Note_off_c, 2, 74, 127
1, 456534, Note_off_c, 5, 77, 127
1, 456536, Note_off_c, 10, 69, 127
1, 456543, Note_on_c, 1, 73, 127
1, 456543, Note_on_c, 4, 76, 127
1, 456543, Note_on_c, 7, 67, 127
1, 456543, Note_on_c, 10, 45, 127
1, 456683, Note_off_c, 10, 45, 127
1, 456683, Note_off_c, 7, 67, 127
1, 456683, Note_off_c, 4, 76, 127
1, 456683, Note_off_c, 1, 73, 127
1, 456692, Note_on_c, 10, 69, 127
1, 456692, Note_on_c, 2, 74, 127
1, 456692, Note_on_c, 5, 65, 127
1, 456692, Note_on_c, 2, 50, 127
1, 456742, Note_on_c, 10, 45, 127
1, 456818, Note_on_c, 2, 38, 127
1, 456881, Note_off_c, 2, 50, 127
1, 456882, Note_off_c, 10, 45, 127
1, 456893, Note_on_c, 10, 45, 127
1, 456964, Note_off_c, 10, 45, 127
1, 456969, Note_on_c, 2, 50, 127
1, 456986, Note_off_c, 2, 38, 127
1, 457040, Note_off_c, 2, 50, 127
1, 457045, Note_on_c, 4, 52, 127
1, 457112, Note_off_c, 5, 65, 127
1, 457112, Note_off_c, 2, 74, 127
1, 457112, Note_off_c, 10, 69, 127
1, 457116, Note_off_c, 4, 52, 127
1, 457122, Note_on_c, 2, 74, 127
1, 457122, Note_on_c, 5, 53, 127
1, 457198, Note_on_c, 10, 69, 127
1, 457269, Note_off_c, 10, 69, 127
1, 457269, Note_off_c, 5, 53, 127
1, 457274, Note_on_c, 2, 62, 127
1, 457274, Note_on_c, 2, 50, 127
1, 457311, Note_off_c, 2, 74, 127
1, 457345, Note_off_c, 2, 62, 127
1, 457351, Note_on_c, 10, 69, 127
1, 457421, Note_off_c, 2, 50, 127
1, 457422, Note_off_c, 10, 69, 127
1, 457427, Note_on_c, 2, 74, 127
1, 457427, Note_on_c, 5, 53, 127
1, 457498, Note_off_c, 2, 74, 127
1, 457502, Note_on_c, 10, 69, 127
1, 457573, Note_off_c, 10, 69, 127
1, 457574, Note_off_c, 5, 53, 127
1, 457580, Note_on_c, 11, 70, 127
1, 457580, Note_on_c, 7, 55, 127
1, 457656, Note_on_c, 7, 67, 127
1, 457727, Note_off_c, 7, 67, 127
1, 457727, Note_off_c, 7, 55, 127
1, 457733, Note_on_c, 2, 62, 127
1, 457733, Note_on_c, 7, 43, 127
1, 457769, Note_off_c, 11, 70, 127
1, 457804, Note_off_c, 2, 62, 127
1, 457809, Note_on_c, 7, 67, 127
1, 457880, Note_off_c, 7, 67, 127
1, 457880, Note_off_c, 7, 43, 127
1, 457885, Note_on_c, 11, 70, 127
1, 457885, Note_on_c, 7, 55, 127
1, 457956, Note_off_c, 11, 70, 127
1, 457962, Note_on_c, 7, 67, 127
1, 458032, Note_off_c, 7, 55, 127
1, 458033, Note_off_c, 7, 67, 127
1, 458038, Note_on_c, 10, 69, 127
1, 458038, Note_on_c, 10, 57, 127
1, 458114, Note_on_c, 4, 64, 127
1, 458185, Note_off_c, 4, 64, 127
1, 458185, Note_off_c, 10, 57, 127
1, 458191, Note_on_c, 1, 61, 127
1, 458191, Note_on_c, 10, 45, 127
1, 458227, Note_off_c, 10, 69, 127
1, 458262, Note_off_c, 1, 61, 127
1, 458267, Note_on_c, 4, 64, 127
1, 458338, Note_off_c, 4, 64, 127
1, 458338, Note_off_c, 10, 45, 127
1, 458342, Note_on_c, 10, 69, 127
1, 458342, Note_on_c, 10, 57, 127
1, 458413, Note_off_c, 10, 69, 127
1, 458420, Note_on_c, 4, 64, 127
1, 458489, Note_off_c, 10, 57, 127
1, 458491, Note_off_c, 4, 64, 127
1, 458496, Note_on_c, 5, 65, 127
1, 458496, Note_on_c, 2, 50, 127
1, 458573, Note_on_c, 2, 62, 127
1, 458643, Note_off_c, 2, 50, 127
1, 458644, Note_off_c, 2, 62, 127
1, 458649, Note_on_c, 10, 57, 127
1, 458649, Note_on_c, 5, 53, 127
1, 458685, Note_off_c, 5, 65, 127
1, 458720, Note_off_c, 10, 57, 127
1, 458725, Note_on_c, 2, 62, 127
1, 458796, Note_off_c, 2, 62, 127
1, 458796, Note_off_c, 5, 53, 127
1, 458802, Note_on_c, 5, 65, 127
1, 458802, Note_on_c, 11, 46, 127
1, 458873, Note_off_c, 5, 65, 127
1, 458878, Note_on_c, 2, 62, 127
1, 458949, Note_off_c, 2, 62, 127
1, 458949, Note_off_c, 11, 46, 127
1, 458954, Note_on_c, 10, 69, 127
1, 458954, Note_on_c, 5, 41, 127
1, 459031, Note_on_c, 5, 65, 127
1, 459080, Note_off_c, 10, 69, 127
1, 459101, Note_off_c, 5, 41, 127
1, 459102, Note_off_c, 5, 65, 127
1, 459107, Note_on_c, 2, 62, 127
1, 459107, Note_on_c, 5, 53, 127
1, 459178, Note_off_c, 2, 62, 127
1, 459182, Note_on_c, 10, 69, 127
1, 459253, Note_off_c, 10, 69, 127
1, 459254, Note_off_c, 5, 53, 127
1, 459260, Note_on_c, 2, 74, 127
1, 459260, Note_on_c, 2, 50, 127
1, 459331, Note_off_c, 2, 74, 127
1, 459336, Note_on_c, 10, 69, 127
1, 459407, Note_off_c, 10, 69, 127
1, 459407, Note_off_c, 2, 50, 127
1, 459413, Note_on_c, 11, 70, 127
1, 459413, Note_on_c, 7, 55, 127
1, 459489, Note_on_c, 7, 67, 127
1, 459539, Note_off_c, 11, 70, 127
1, 459560, Note_off_c, 7, 67, 127
1, 459560, Note_off_c, 7, 55, 127
1, 459565, Note_on_c, 2, 62, 127
1, 459565, Note_on_c, 7, 43, 127
1, 459636, Note_off_c, 2, 62, 127
1, 459642, Note_on_c, 7, 67, 127
1, 459712, Note_off_c, 7, 43, 127
1, 459713, Note_off_c, 7, 67, 127
1, 459718, Note_on_c, 11, 70, 127
1, 459718, Note_on_c, 7, 55, 127
1, 459789, Note_off_c, 11, 70, 127
1, 459794, Note_on_c, 7, 67, 127
1, 459865, Note_off_c, 7, 67, 127
1, 459865, Note_off_c, 7, 55, 127
1, 459871, Note_on_c, 12, 71, 127
1, 459871, Note_on_c, 8, 56, 127
1, 459947, Note_on_c, 8, 68, 127
1, 459997, Note_off_c, 12, 71, 127
1, 460018, Note_off_c, 8, 68, 127
1, 460018, Note_off_c, 8, 56, 127
1, 460022, Note_on_c, 4, 64, 127
1, 460022, Note_on_c, 12, 59, 127
1, 460093, Note_off_c, 4, 64, 127
1, 460100, Note_on_c, 12, 71, 127
1, 460169, Note_off_c, 12, 59, 127
1, 460171, Note_off_c, 12, 71, 127
1, 460176, Note_on_c, 4, 76, 127
1, 460176, Note_on_c, 8, 56, 127
1, 460247, Note_off_c, 4, 76, 127
1, 460253, Note_on_c, 12, 71, 127
1, 460323, Note_off_c, 8, 56, 127
1, 460324, Note_off_c, 12, 71, 127
1, 460329, Note_on_c, 1, 73, 127
1, 460329, Note_on_c, 10, 57, 127
1, 460405, Note_on_c, 10, 69, 127
1, 460455, Note_off_c, 1, 73, 127
1, 460476, Note_off_c, 10, 69, 127
1, 460476, Note_off_c, 10, 57, 127
1, 460482, Note_on_c, 4, 64, 127
1, 460482, Note_on_c, 10, 45, 127
1, 460553, Note_off_c, 4, 64, 127
1, 460558, Note_on_c, 10, 69, 127
1, 460629, Note_off_c, 10, 69, 127
1, 460629, Note_off_c, 10, 45, 127
1, 460634, Note_on_c, 1, 73, 127
1, 460634, Note_on_c, 10, 57, 127
1, 460705, Note_off_c, 1, 73, 127
1, 460711, Note_on_c, 10, 69, 127
1, 460781, Note_off_c, 10, 57, 127
1, 460804, Note_on_c, 4, 76, 127
1, 460804, Note_on_c, 1, 61, 127
1, 460826, Note_off_c, 10, 69, 127
1, 460879, Note_on_c, 1, 73, 127
1, 460950, Note_off_c, 1, 73, 127
1, 460951, Note_off_c, 1, 61, 127
1, 460957, Note_on_c, 10, 69, 127
1, 460957, Note_on_c, 4, 64, 127
1, 460993, Note_off_c, 4, 76, 127
1, 461028, Note_off_c, 10, 69, 127
1, 461033, Note_on_c, 4, 76, 127
1, 461104, Note_off_c, 4, 76, 127
1, 461104, Note_off_c, 4, 64, 127
1, 461110, Note_on_c, 10, 81, 127
1, 461110, Note_on_c, 1, 61, 127
1, 461181, Note_off_c, 10, 81, 127
1, 461186, Note_on_c, 4, 76, 127
1, 461257, Note_off_c, 4, 76, 127
1, 461257, Note_off_c, 1, 61, 127
1, 461261, Note_on_c, 6, 78, 127
1, 461261, Note_on_c, 2, 62, 127
1, 461339, Note_on_c, 2, 74, 127
1, 461408, Note_off_c, 2, 62, 127
1, 461410, Note_off_c, 2, 74, 127
1, 461415, Note_on_c, 10, 69, 127
1, 461415, Note_on_c, 2, 50, 127
1, 461486, Note_off_c, 10, 69, 127
1, 461490, Note_on_c, 2, 74, 127
1, 461513, Note_off_c, 6, 78, 127
1, 461561, Note_off_c, 2, 74, 127
1, 461562, Note_off_c, 2, 50, 127
1, 461568, Note_on_c, 6, 78, 127
1, 461568, Note_on_c, 1, 61, 127
1, 461639, Note_off_c, 6, 78, 127
1, 461644, Note_on_c, 10, 69, 127
1, 461715, Note_off_c, 10, 69, 127
1, 461715, Note_off_c, 1, 61, 127
1, 461719, Note_on_c, 2, 74, 127
1, 461719, Note_on_c, 12, 59, 127
1, 461797, Note_on_c, 12, 71, 127
1, 461866, Note_off_c, 12, 59, 127
1, 461868, Note_off_c, 12, 71, 127
1, 461873, Note_on_c, 6, 66, 127
1, 461873, Note_on_c, 12, 47, 127
1, 461944, Note_off_c, 6, 66, 127
1, 461950, Note_on_c, 12, 71, 127
1, 461971, Note_off_c, 2, 74, 127
1, 462020, Note_off_c, 12, 47, 127
1, 462021, Note_off_c, 12, 71, 127
1, 462026, Note_on_c, 2, 74, 127
1, 462026, Note_on_c, 10, 57, 127
1, 462097, Note_off_c, 2, 74, 127
1, 462101, Note_on_c, 6, 66, 127
1, 462172, Note_off_c, 6, 66, 127
1, 462173, Note_off_c, 10, 57, 127
1, 462179, Note_on_c, 12, 71, 127
1, 462179, Note_on_c, 7, 55, 127
1, 462255, Note_on_c, 7, 67, 127
1, 462326, Note_off_c, 7, 67, 127
1, 462326, Note_off_c, 7, 55, 127
1, 462330, Note_on_c, 2, 62, 127
1, 462330, Note_on_c, 7, 43, 127
1, 462368, Note_off_c, 12, 71, 127
1, 462401, Note_off_c, 2, 62, 127
1, 462408, Note_on_c, 7, 67, 127
1, 462477, Note_off_c, 7, 43, 127
1, 462479, Note_off_c, 7, 67, 127
1, 462484, Note_on_c, 12, 71, 127
1, 462484, Note_on_c, 6, 54, 127
1, 462555, Note_off_c, 12, 71, 127
1, 462559, Note_on_c, 2, 62, 127
1, 462630, Note_off_c, 2, 62, 127
1, 462631, Note_off_c, 6, 54, 127
1, 462637, Note_on_c, 1, 73, 127
1, 462637, Note_on_c, 4, 52, 127
1, 462713, Note_on_c, 7, 67, 127
1, 462784, Note_off_c, 7, 67, 127
1, 462784, Note_off_c, 4, 52, 127
1, 462790, Note_on_c, 4, 64, 127
1, 462790, Note_on_c, 10, 57, 127
1, 462826, Note_off_c, 1, 73, 127
1, 462861, Note_off_c, 4, 64, 127
1, 462866, Note_on_c, 7, 67, 127
1, 462937, Note_off_c, 7, 67, 127
1, 462937, Note_off_c, 10, 57, 127
1, 462941, Note_on_c, 1, 73, 127
1, 462941, Note_on_c, 7, 55, 127
1, 463012, Note_off_c, 1, 73, 127
1, 463019, Note_on_c, 4, 64, 127
1, 463088, Note_off_c, 7, 55, 127
1, 463090, Note_off_c, 4, 64, 127
1, 463095, Note_on_c, 2, 74, 127
1, 463095, Note_on_c, 6, 54, 127
1, 463170, Note_on_c, 10, 69, 127
1, 463241, Note_off_c, 10, 69, 127
1, 463242, Note_off_c, 6, 54, 127
1, 463248, Note_on_c, 6, 66, 127
1, 463248, Note_on_c, 2, 50, 127
1, 463284, Note_off_c, 2, 74, 127
1, 463319, Note_off_c, 6, 66, 127
1, 463324, Note_on_c, 10, 69, 127
1, 463395, Note_off_c, 10, 69, 127
1, 463395, Note_off_c, 2, 50, 127
1, 463399, Note_on_c, 2, 74, 127
1, 463399, Note_on_c, 6, 54, 127
1, 463470, Note_off_c, 2, 74, 127
1, 463477, Note_on_c, 6, 66, 127
1, 463546, Note_off_c, 6, 54, 127
1, 463548, Note_off_c, 6, 66, 127
1, 463563, Note_on_c, 10, 57, 127
1, 463563, Note_on_c, 1, 73, 127
1, 463634, Note_on_c, 10, 69, 127
1, 463697, Note_off_c, 10, 69, 127
1, 463704, Note_on_c, 4, 64, 127
1, 463752, Note_off_c, 1, 73, 127
1, 463767, Note_off_c, 4, 64, 127
1, 463773, Note_on_c, 10, 69, 127
1, 463836, Note_off_c, 10, 69, 127
1, 463842, Note_on_c, 1, 73, 127
1, 463905, Note_off_c, 1, 73, 127
1, 463912, Note_on_c, 10, 69, 127
1, 463975, Note_off_c, 10, 69, 127
1, 463983, Note_on_c, 2, 74, 127
1, 464050, Note_on_c, 10, 69, 127
1, 464113, Note_off_c, 10, 69, 127
1, 464120, Note_on_c, 6, 66, 127
1, 464172, Note_off_c, 2, 74, 127
1, 464183, Note_off_c, 6, 66, 127
1, 464191, Note_on_c, 10, 69, 127
1, 464254, Note_off_c, 10, 69, 127
1, 464258, Note_on_c, 2, 74, 127
1, 464321, Note_off_c, 2, 74, 127
1, 464327, Note_on_c, 10, 69, 127
1, 464390, Note_off_c, 10, 69, 127
1, 464399, Note_on_c, 4, 76, 127
1, 464466, Note_on_c, 1, 73, 127
1, 464529, Note_off_c, 1, 73, 127
1, 464535, Note_on_c, 10, 69, 127
1, 464588, Note_off_c, 4, 76, 127
1, 464598, Note_off_c, 10, 69, 127
1, 464607, Note_on_c, 1, 73, 127
1, 464670, Note_off_c, 1, 73, 127
1, 464676, Note_on_c, 4, 76, 127
1, 464739, Note_off_c, 4, 76, 127
1, 464745, Note_on_c, 1, 73, 127
1, 464808, Note_off_c, 1, 73, 127
1, 464815, Note_on_c, 6, 78, 127
1, 464884, Note_on_c, 2, 74, 127
1, 464947, Note_off_c, 2, 74, 127
1, 464953, Note_on_c, 10, 69, 127
1, 465004, Note_off_c, 6, 78, 127
1, 465016, Note_off_c, 10, 69, 127
1, 465023, Note_on_c, 2, 74, 127
1, 465086, Note_off_c, 2, 74, 127
1, 465092, Note_on_c, 6, 78, 127
1, 465201, Note_on_c, 2, 74, 127
1, 465218, Note_off_c, 6, 78, 127
1, 465298, Note_on_c, 10, 69, 127
1, 465303, Note_off_c, 2, 74, 127
1, 465384, Note_on_c, 2, 74, 127
1, 465398, Note_off_c, 10, 69, 127
1, 465447, Note_off_c, 2, 74, 127
1, 465453, Note_on_c, 10, 69, 127
1, 465513, Note_off_c, 10, 57, 127
1, 465516, Note_off_c, 10, 69, 127
1, 465522, Note_on_c, 6, 66, 127
1, 465594, Note_on_c, 10, 69, 127
1, 465622, Note_off_c, 6, 66, 127
1, 465657, Note_off_c, 10, 69, 127
1, 465663, Note_on_c, 6, 66, 127
1, 465726, Note_off_c, 6, 66, 127
1, 465730, Note_on_c, 2, 62, 127
1, 465802, Note_on_c, 6, 66, 127
1, 465830, Note_off_c, 2, 62, 127
1, 465865, Note_off_c, 6, 66, 127
1, 465871, Note_on_c, 2, 62, 127
1, 465934, Note_off_c, 2, 62, 127
1, 465938, Note_on_c, 10, 57, 127
1, 466010, Note_on_c, 2, 62, 127
1, 466038, Note_off_c, 10, 57, 127
1, 466073, Note_off_c, 2, 62, 127
1, 466079, Note_on_c, 10, 57, 127
1, 466142, Note_off_c, 10, 57, 127
1, 466146, Note_on_c, 6, 54, 127
1, 466217, Note_on_c, 10, 57, 127
1, 466246, Note_off_c, 6, 54, 127
1, 466280, Note_off_c, 10, 57, 127
1, 466287, Note_on_c, 6, 54, 127
1, 466350, Note_off_c, 6, 54, 127
1, 466356, Note_on_c, 2, 50, 127
1, 466425, Note_on_c, 6, 54, 127
1, 466456, Note_off_c, 2, 50, 127
1, 466488, Note_off_c, 6, 54, 127
1, 466495, Note_on_c, 2, 50, 127
1, 466558, Note_off_c, 2, 50, 127
1, 466566, Note_on_c, 12, 47, 127
1, 466633, Note_on_c, 2, 50, 127
1, 466666, Note_off_c, 12, 47, 127
1, 466696, Note_off_c, 2, 50, 127
1, 466700, Note_on_c, 12, 47, 127
1, 466763, Note_off_c, 12, 47, 127
1, 466772, Note_on_c, 2, 50, 127
1, 466843, Note_on_c, 6, 54, 127
1, 466900, Note_off_c, 2, 50, 127
1, 466915, Note_on_c, 12, 59, 127
1, 466971, Note_off_c, 6, 54, 127
1, 467024, Note_on_c, 8, 44, 127
1, 467043, Note_off_c, 12, 59, 127
1, 468200, Note_on_c, 12, 71, 127
1, 468200, Note_on_c, 4, 64, 127
1, 468200, Note_on_c, 4, 52, 127
1, 468200, Note_on_c, 12, 47, 127
1, 468596, Note_off_c, 12, 71, 127
1, 468603, Note_on_c, 1, 73, 127
1, 468798, Note_off_c, 1, 73, 127
1, 468805, Note_on_c, 2, 74, 127
1, 468998, Note_off_c, 4, 64, 127
1, 469000, Note_off_c, 2, 74, 127
1, 469000, Note_off_c, 12, 47, 127
1, 469000, Note_off_c, 4, 52, 127
1, 469006, Note_on_c, 1, 61, 127
1, 469006, Note_on_c, 10, 45, 127
1, 469010, Note_off_c, 8, 44, 127
1, 469409, Note_on_c, 4, 64, 127
1, 469409, Note_on_c, 7, 55, 127
1, 469804, Note_off_c, 1, 61, 127
1, 469805, Note_off_c, 7, 55, 127
1, 469805, Note_off_c, 4, 64, 127
1, 469813, Note_on_c, 2, 62, 127
1, 469813, Note_on_c, 6, 66, 127
1, 469813, Note_on_c, 6, 54, 127
1, 470209, Note_off_c, 6, 66, 127
1, 470216, Note_on_c, 7, 67, 127
1, 470612, Note_off_c, 7, 67, 127
1, 470613, Note_off_c, 6, 54, 127
1, 470619, Note_on_c, 10, 69, 127
1, 470619, Note_on_c, 4, 52, 127
1, 471020, Note_off_c, 2, 62, 127
1, 471022, Note_on_c, 2, 62, 127
1, 471418, Note_off_c, 2, 62, 127
1, 471425, Note_on_c, 1, 61, 127
1, 471826, Note_off_c, 10, 69, 127
1, 471879, Note_on_c, 7, 67, 127
1, 472219, Note_off_c, 10, 45, 127
1, 472223, Note_off_c, 1, 61, 127
1, 472225, Note_off_c, 4, 52, 127
1, 472232, Note_on_c, 6, 66, 127
1, 472232, Note_on_c, 2, 38, 127
1, 472232, Note_on_c, 2, 50, 127
1, 472242, Note_off_c, 7, 67, 127
1, 472433, Note_on_c, 1, 61, 127
1, 472628, Note_off_c, 1, 61, 127
1, 472635, Note_on_c, 2, 62, 127
1, 472837, Note_on_c, 10, 69, 127
1, 473030, Note_off_c, 6, 66, 127
1, 473034, Note_off_c, 2, 62, 127
1, 473038, Note_on_c, 6, 66, 127
1, 473236, Note_off_c, 10, 69, 127
1, 473240, Note_on_c, 2, 74, 127
1, 473437, Note_off_c, 6, 66, 127
1, 473441, Note_on_c, 10, 69, 127
1, 473639, Note_off_c, 2, 74, 127
1, 473643, Note_on_c, 6, 78, 127
1, 473838, Note_off_c, 6, 78, 127
1, 473840, Note_off_c, 10, 69, 127
1, 473845, Note_on_c, 2, 74, 127
1, 473903, Note_on_c, 1, 73, 127
1, 473933, Note_off_c, 2, 74, 127
1, 473962, Note_on_c, 2, 74, 127
1, 474005, Note_off_c, 1, 73, 127
1, 476012, Note_off_c, 2, 50, 127
1, 476012, Note_off_c, 2, 38, 127
1, 476062, Note_off_c, 2, 74, 127
1, 480768, End_track
0, 0, End_of_file
