0, 0, Header, 0, 1, 384
1, 0, Start_track
1, 0, Copyright_t, "(C) John Sankey 1998"
1, 0, Program_c, 0, 6
1, 0, Pitch_bend_c, 0, 8192
1, 0, Program_c, 1, 6
1, 0, Pitch_bend_c, 1, 7792
1, 0, Program_c, 2, 6
1, 0, Pitch_bend_c, 2, 7876
1, 0, Program_c, 3, 6
1, 0, Pitch_bend_c, 3, 7952
1, 0, Program_c, 4, 6
1, 0, Pitch_bend_c, 4, 7792
1, 0, Program_c, 5, 6
1, 0, Pitch_bend_c, 5, 8112
1, 0, Program_c, 6, 6
1, 0, Pitch_bend_c, 6, 7712
1, 0, Program_c, 7, 6
1, 0, Pitch_bend_c, 7, 8037
1, 0, Program_c, 8, 6
1, 0, Pitch_bend_c, 8, 7872
1, 0, Program_c, 10, 6
1, 0, Pitch_bend_c, 10, 7712
1, 0, Program_c, 11, 6
1, 0, Pitch_bend_c, 11, 8032
1, 0, Program_c, 12, 6
1, 0, Pitch_bend_c, 12, 7872
1, 0, Tempo, 500000
1, 48, Note_on_c, 0, 48, 127
1, 48, Note_on_c, 7, 55, 127
1, 48, Note_on_c, 4, 52, 127
1, 48, Note_on_c, 0, 60, 127
1, 48, Note_on_c, 4, 64, 127
1, 48, Note_on_c, 7, 67, 127
1, 48, Note_on_c, 0, 72, 127
1, 332, Note_off_c, 4, 52, 127
1, 332, Note_off_c, 0, 48, 127
1, 336, Note_on_c, 2, 50, 127
1, 615, Note_off_c, 0, 72, 127
1, 615, Note_off_c, 7, 67, 127
1, 615, Note_off_c, 4, 64, 127
1, 615, Note_off_c, 0, 60, 127
1, 615, Note_off_c, 7, 55, 127
1, 619, Note_off_c, 2, 50, 127
1, 623, Note_on_c, 4, 52, 127
1, 767, Note_on_c, 0, 72, 127
1, 907, Note_off_c, 0, 72, 127
1, 907, Note_off_c, 4, 52, 127
1, 911, Note_on_c, 0, 48, 127
1, 911, Note_on_c, 4, 52, 127
1, 911, Note_on_c, 7, 55, 127
1, 911, Note_on_c, 4, 76, 127
1, 1051, Note_off_c, 4, 76, 127
1, 1055, Note_on_c, 5, 77, 127
1, 1195, Note_off_c, 5, 77, 127
1, 1195, Note_off_c, 7, 55, 127
1, 1195, Note_off_c, 4, 52, 127
1, 1195, Note_off_c, 0, 48, 127
1, 1199, Note_on_c, 2, 50, 127
1, 1199, Note_on_c, 12, 47, 127
1, 1199, Note_on_c, 7, 55, 127
1, 1199, Note_on_c, 7, 79, 127
1, 1481, Note_off_c, 7, 55, 127
1, 1483, Note_off_c, 7, 79, 127
1, 1483, Note_off_c, 12, 47, 127
1, 1487, Note_on_c, 10, 45, 127
1, 1487, Note_on_c, 0, 72, 127
1, 1487, Note_on_c, 7, 79, 127
1, 1616, Note_off_c, 2, 50, 127
1, 1770, Note_off_c, 7, 79, 127
1, 1770, Note_off_c, 0, 72, 127
1, 1770, Note_off_c, 10, 45, 127
1, 1774, Note_on_c, 12, 47, 127
1, 1774, Note_on_c, 7, 79, 127
1, 1774, Note_on_c, 2, 74, 127
1, 2058, Note_off_c, 2, 74, 127
1, 2058, Note_off_c, 7, 79, 127
1, 2058, Note_off_c, 12, 47, 127
1, 2062, Note_on_c, 7, 43, 127
1, 2062, Note_on_c, 7, 55, 127
1, 2062, Note_on_c, 2, 50, 127
1, 2062, Note_on_c, 7, 79, 127
1, 2062, Note_on_c, 12, 71, 127
1, 2346, Note_off_c, 12, 71, 127
1, 2346, Note_off_c, 7, 79, 127
1, 2346, Note_off_c, 2, 50, 127
1, 2346, Note_off_c, 7, 55, 127
1, 2346, Note_off_c, 7, 43, 127
1, 2350, Note_on_c, 0, 48, 127
1, 2350, Note_on_c, 7, 55, 127
1, 2350, Note_on_c, 0, 72, 127
1, 2350, Note_on_c, 4, 76, 127
1, 2634, Note_off_c, 4, 76, 127
1, 2634, Note_off_c, 0, 72, 127
1, 2634, Note_off_c, 0, 48, 127
1, 2638, Note_on_c, 2, 50, 127
1, 2638, Note_on_c, 0, 72, 127
1, 2917, Note_off_c, 7, 55, 127
1, 2920, Note_off_c, 0, 72, 127
1, 2922, Note_off_c, 2, 50, 127
1, 2926, Note_on_c, 4, 52, 127
1, 3070, Note_on_c, 0, 72, 127
1, 3210, Note_off_c, 0, 72, 127
1, 3210, Note_off_c, 4, 52, 127
1, 3214, Note_on_c, 0, 48, 127
1, 3214, Note_on_c, 4, 52, 127
1, 3214, Note_on_c, 7, 55, 127
1, 3214, Note_on_c, 4, 76, 127
1, 3354, Note_off_c, 4, 76, 127
1, 3358, Note_on_c, 5, 77, 127
1, 3498, Note_off_c, 5, 77, 127
1, 3498, Note_off_c, 7, 55, 127
1, 3498, Note_off_c, 4, 52, 127
1, 3498, Note_off_c, 0, 48, 127
1, 3502, Note_on_c, 12, 47, 127
1, 3502, Note_on_c, 2, 50, 127
1, 3502, Note_on_c, 7, 55, 127
1, 3502, Note_on_c, 7, 79, 127
1, 3784, Note_off_c, 7, 55, 127
1, 3786, Note_off_c, 7, 79, 127
1, 3786, Note_off_c, 12, 47, 127
1, 3790, Note_on_c, 10, 45, 127
1, 3790, Note_on_c, 0, 72, 127
1, 3790, Note_on_c, 7, 79, 127
1, 3919, Note_off_c, 2, 50, 127
1, 4073, Note_off_c, 7, 79, 127
1, 4073, Note_off_c, 0, 72, 127
1, 4073, Note_off_c, 10, 45, 127
1, 4077, Note_on_c, 12, 47, 127
1, 4077, Note_on_c, 2, 74, 127
1, 4077, Note_on_c, 7, 79, 127
1, 4361, Note_off_c, 7, 79, 127
1, 4361, Note_off_c, 2, 74, 127
1, 4361, Note_off_c, 12, 47, 127
1, 4365, Note_on_c, 7, 43, 127
1, 4365, Note_on_c, 7, 55, 127
1, 4365, Note_on_c, 2, 50, 127
1, 4365, Note_on_c, 12, 71, 127
1, 4365, Note_on_c, 7, 79, 127
1, 4649, Note_off_c, 7, 79, 127
1, 4649, Note_off_c, 12, 71, 127
1, 4649, Note_off_c, 2, 50, 127
1, 4649, Note_off_c, 7, 55, 127
1, 4649, Note_off_c, 7, 43, 127
1, 4653, Note_on_c, 0, 48, 127
1, 4653, Note_on_c, 7, 55, 127
1, 4653, Note_on_c, 4, 76, 127
1, 4653, Note_on_c, 0, 72, 127
1, 4937, Note_off_c, 0, 72, 127
1, 4937, Note_off_c, 4, 76, 127
1, 4937, Note_off_c, 0, 48, 127
1, 4941, Note_on_c, 2, 50, 127
1, 4941, Note_on_c, 0, 72, 127
1, 5220, Note_off_c, 7, 55, 127
1, 5223, Note_off_c, 0, 72, 127
1, 5225, Note_off_c, 2, 50, 127
1, 5229, Note_on_c, 4, 52, 127
1, 5373, Note_on_c, 0, 72, 127
1, 5513, Note_off_c, 0, 72, 127
1, 5513, Note_off_c, 4, 52, 127
1, 5517, Note_on_c, 4, 52, 127
1, 5517, Note_on_c, 0, 48, 127
1, 5517, Note_on_c, 7, 55, 127
1, 5517, Note_on_c, 4, 76, 127
1, 5657, Note_off_c, 4, 76, 127
1, 5661, Note_on_c, 5, 77, 127
1, 5801, Note_off_c, 5, 77, 127
1, 5801, Note_off_c, 7, 55, 127
1, 5801, Note_off_c, 0, 48, 127
1, 5801, Note_off_c, 4, 52, 127
1, 5805, Note_on_c, 12, 47, 127
1, 5805, Note_on_c, 7, 55, 127
1, 5805, Note_on_c, 2, 50, 127
1, 5805, Note_on_c, 7, 79, 127
1, 6089, Note_off_c, 7, 79, 127
1, 6089, Note_off_c, 2, 50, 127
1, 6089, Note_off_c, 7, 55, 127
1, 6089, Note_off_c, 12, 47, 127
1, 6093, Note_on_c, 0, 48, 127
1, 6093, Note_on_c, 4, 52, 127
1, 6093, Note_on_c, 5, 77, 127
1, 6233, Note_off_c, 5, 77, 127
1, 6237, Note_on_c, 4, 76, 127
1, 6377, Note_off_c, 4, 76, 127
1, 6377, Note_off_c, 4, 52, 127
1, 6377, Note_off_c, 0, 48, 127
1, 6381, Note_on_c, 5, 53, 127
1, 6381, Note_on_c, 10, 57, 127
1, 6381, Note_on_c, 2, 74, 127
1, 6665, Note_off_c, 2, 74, 127
1, 6665, Note_off_c, 10, 57, 127
1, 6665, Note_off_c, 5, 53, 127
1, 6669, Note_on_c, 6, 54, 127
1, 6669, Note_on_c, 2, 50, 127
1, 6669, Note_on_c, 10, 57, 127
1, 6669, Note_on_c, 0, 72, 127
1, 6953, Note_off_c, 0, 72, 127
1, 6953, Note_off_c, 10, 57, 127
1, 6953, Note_off_c, 2, 50, 127
1, 6953, Note_off_c, 6, 54, 127
1, 6957, Note_on_c, 7, 55, 127
1, 6957, Note_on_c, 12, 59, 127
1, 6957, Note_on_c, 12, 71, 127
1, 7241, Note_off_c, 12, 71, 127
1, 7241, Note_off_c, 12, 59, 127
1, 7241, Note_off_c, 7, 55, 127
1, 7245, Note_on_c, 10, 57, 127
1, 7245, Note_on_c, 7, 67, 127
1, 7527, Note_off_c, 7, 67, 127
1, 7529, Note_off_c, 10, 57, 127
1, 7533, Note_on_c, 12, 59, 127
1, 7677, Note_on_c, 7, 67, 127
1, 7817, Note_off_c, 7, 67, 127
1, 7817, Note_off_c, 12, 59, 127
1, 7821, Note_on_c, 2, 62, 127
1, 7821, Note_on_c, 7, 55, 127
1, 7821, Note_on_c, 12, 59, 127
1, 7821, Note_on_c, 12, 71, 127
1, 7961, Note_off_c, 12, 71, 127
1, 7965, Note_on_c, 0, 72, 127
1, 8105, Note_off_c, 0, 72, 127
1, 8105, Note_off_c, 12, 59, 127
1, 8105, Note_off_c, 7, 55, 127
1, 8105, Note_off_c, 2, 62, 127
1, 8109, Note_on_c, 6, 54, 127
1, 8109, Note_on_c, 2, 62, 127
1, 8109, Note_on_c, 10, 57, 127
1, 8109, Note_on_c, 2, 74, 127
1, 8393, Note_off_c, 2, 74, 127
1, 8393, Note_off_c, 2, 62, 127
1, 8393, Note_off_c, 6, 54, 127
1, 8397, Note_on_c, 4, 52, 127
1, 8397, Note_on_c, 7, 67, 127
1, 8397, Note_on_c, 2, 74, 127
1, 8526, Note_off_c, 10, 57, 127
1, 8680, Note_off_c, 2, 74, 127
1, 8680, Note_off_c, 7, 67, 127
1, 8680, Note_off_c, 4, 52, 127
1, 8684, Note_on_c, 6, 54, 127
1, 8684, Note_on_c, 10, 69, 127
1, 8684, Note_on_c, 2, 74, 127
1, 8968, Note_off_c, 2, 74, 127
1, 8968, Note_off_c, 10, 69, 127
1, 8968, Note_off_c, 6, 54, 127
1, 8972, Note_on_c, 2, 50, 127
1, 8972, Note_on_c, 10, 57, 127
1, 8972, Note_on_c, 2, 62, 127
1, 8972, Note_on_c, 6, 66, 127
1, 8972, Note_on_c, 2, 74, 127
1, 9256, Note_off_c, 2, 74, 127
1, 9256, Note_off_c, 6, 66, 127
1, 9256, Note_off_c, 2, 62, 127
1, 9256, Note_off_c, 10, 57, 127
1, 9256, Note_off_c, 2, 50, 127
1, 9260, Note_on_c, 2, 62, 127
1, 9260, Note_on_c, 7, 55, 127
1, 9260, Note_on_c, 7, 67, 127
1, 9260, Note_on_c, 12, 71, 127
1, 9544, Note_off_c, 12, 71, 127
1, 9544, Note_off_c, 7, 67, 127
1, 9544, Note_off_c, 7, 55, 127
1, 9548, Note_on_c, 10, 57, 127
1, 9548, Note_on_c, 7, 67, 127
1, 9827, Note_off_c, 2, 62, 127
1, 9830, Note_off_c, 7, 67, 127
1, 9832, Note_off_c, 10, 57, 127
1, 9836, Note_on_c, 12, 59, 127
1, 9980, Note_on_c, 7, 67, 127
1, 10120, Note_off_c, 7, 67, 127
1, 10120, Note_off_c, 12, 59, 127
1, 10124, Note_on_c, 12, 59, 127
1, 10124, Note_on_c, 7, 55, 127
1, 10124, Note_on_c, 2, 62, 127
1, 10124, Note_on_c, 12, 71, 127
1, 10264, Note_off_c, 12, 71, 127
1, 10268, Note_on_c, 0, 72, 127
1, 10408, Note_off_c, 0, 72, 127
1, 10408, Note_off_c, 2, 62, 127
1, 10408, Note_off_c, 7, 55, 127
1, 10408, Note_off_c, 12, 59, 127
1, 10412, Note_on_c, 6, 54, 127
1, 10412, Note_on_c, 2, 62, 127
1, 10412, Note_on_c, 10, 57, 127
1, 10412, Note_on_c, 2, 74, 127
1, 10694, Note_off_c, 10, 57, 127
1, 10696, Note_off_c, 2, 74, 127
1, 10696, Note_off_c, 6, 54, 127
1, 10700, Note_on_c, 4, 52, 127
1, 10700, Note_on_c, 7, 67, 127
1, 10700, Note_on_c, 2, 74, 127
1, 10979, Note_off_c, 2, 62, 127
1, 10983, Note_off_c, 2, 74, 127
1, 10983, Note_off_c, 7, 67, 127
1, 10983, Note_off_c, 4, 52, 127
1, 10987, Note_on_c, 6, 54, 127
1, 10987, Note_on_c, 10, 69, 127
1, 10987, Note_on_c, 2, 74, 127
1, 11271, Note_off_c, 2, 74, 127
1, 11271, Note_off_c, 10, 69, 127
1, 11271, Note_off_c, 6, 54, 127
1, 11275, Note_on_c, 2, 50, 127
1, 11275, Note_on_c, 10, 57, 127
1, 11275, Note_on_c, 2, 62, 127
1, 11275, Note_on_c, 6, 66, 127
1, 11275, Note_on_c, 2, 74, 127
1, 11559, Note_off_c, 2, 74, 127
1, 11559, Note_off_c, 6, 66, 127
1, 11559, Note_off_c, 2, 62, 127
1, 11559, Note_off_c, 10, 57, 127
1, 11559, Note_off_c, 2, 50, 127
1, 11563, Note_on_c, 12, 59, 127
1, 11563, Note_on_c, 7, 55, 127
1, 11563, Note_on_c, 2, 62, 127
1, 11563, Note_on_c, 12, 71, 127
1, 11563, Note_on_c, 7, 67, 127
1, 11847, Note_off_c, 7, 67, 127
1, 11847, Note_off_c, 12, 71, 127
1, 11847, Note_off_c, 2, 62, 127
1, 11847, Note_off_c, 7, 55, 127
1, 11847, Note_off_c, 12, 59, 127
1, 11851, Note_on_c, 0, 60, 127
1, 11851, Note_on_c, 10, 57, 127
1, 11851, Note_on_c, 7, 67, 127
1, 12133, Note_off_c, 7, 67, 127
1, 12135, Note_off_c, 10, 57, 127
1, 12135, Note_off_c, 0, 60, 127
1, 12139, Note_on_c, 12, 59, 127
1, 12139, Note_on_c, 2, 62, 127
1, 12283, Note_on_c, 7, 67, 127
1, 12423, Note_off_c, 7, 67, 127
1, 12423, Note_off_c, 2, 62, 127
1, 12423, Note_off_c, 12, 59, 127
1, 12427, Note_on_c, 10, 57, 127
1, 12427, Note_on_c, 0, 60, 127
1, 12427, Note_on_c, 12, 71, 127
1, 12567, Note_off_c, 12, 71, 127
1, 12571, Note_on_c, 2, 74, 127
1, 12711, Note_off_c, 2, 74, 127
1, 12711, Note_off_c, 0, 60, 127
1, 12711, Note_off_c, 10, 57, 127
1, 12715, Note_on_c, 12, 59, 127
1, 12715, Note_on_c, 7, 55, 127
1, 12715, Note_on_c, 7, 79, 127
1, 12855, Note_off_c, 7, 79, 127
1, 12859, Note_on_c, 7, 67, 127
1, 12999, Note_off_c, 7, 67, 127
1, 12999, Note_off_c, 7, 55, 127
1, 12999, Note_off_c, 12, 59, 127
1, 13003, Note_on_c, 10, 57, 127
1, 13003, Note_on_c, 0, 60, 127
1, 13003, Note_on_c, 12, 71, 127
1, 13143, Note_off_c, 12, 71, 127
1, 13147, Note_on_c, 2, 74, 127
1, 13287, Note_off_c, 2, 74, 127
1, 13287, Note_off_c, 0, 60, 127
1, 13287, Note_off_c, 10, 57, 127
1, 13291, Note_on_c, 12, 59, 127
1, 13291, Note_on_c, 2, 62, 127
1, 13291, Note_on_c, 7, 79, 127
1, 13431, Note_off_c, 7, 79, 127
1, 13435, Note_on_c, 7, 67, 127
1, 13575, Note_off_c, 7, 67, 127
1, 13575, Note_off_c, 2, 62, 127
1, 13575, Note_off_c, 12, 59, 127
1, 13579, Note_on_c, 0, 60, 127
1, 13579, Note_on_c, 10, 57, 127
1, 13579, Note_on_c, 12, 71, 127
1, 13719, Note_off_c, 12, 71, 127
1, 13723, Note_on_c, 2, 74, 127
1, 13863, Note_off_c, 2, 74, 127
1, 13863, Note_off_c, 10, 57, 127
1, 13863, Note_off_c, 0, 60, 127
1, 13867, Note_on_c, 12, 59, 127
1, 13867, Note_on_c, 7, 55, 127
1, 13867, Note_on_c, 7, 79, 127
1, 14151, Note_off_c, 7, 79, 127
1, 14151, Note_off_c, 7, 55, 127
1, 14151, Note_off_c, 12, 59, 127
1, 14155, Note_on_c, 0, 60, 127
1, 14155, Note_on_c, 10, 57, 127
1, 14155, Note_on_c, 6, 78, 127
1, 14295, Note_off_c, 6, 78, 127
1, 14299, Note_on_c, 4, 76, 127
1, 14439, Note_off_c, 4, 76, 127
1, 14439, Note_off_c, 10, 57, 127
1, 14439, Note_off_c, 0, 60, 127
1, 14443, Note_on_c, 12, 59, 127
1, 14443, Note_on_c, 2, 62, 127
1, 14443, Note_on_c, 2, 74, 127
1, 14727, Note_off_c, 2, 74, 127
1, 14727, Note_off_c, 2, 62, 127
1, 14727, Note_off_c, 12, 59, 127
1, 14731, Note_on_c, 6, 54, 127
1, 14731, Note_on_c, 10, 57, 127
1, 14731, Note_on_c, 0, 72, 127
1, 15015, Note_off_c, 0, 72, 127
1, 15015, Note_off_c, 10, 57, 127
1, 15015, Note_off_c, 6, 54, 127
1, 15019, Note_on_c, 7, 55, 127
1, 15019, Note_on_c, 12, 71, 127
1, 15303, Note_off_c, 12, 71, 127
1, 15303, Note_off_c, 7, 55, 127
1, 15307, Note_on_c, 12, 47, 127
1, 15307, Note_on_c, 7, 79, 127
1, 15447, Note_off_c, 12, 47, 127
1, 15451, Note_on_c, 0, 48, 127
1, 15591, Note_off_c, 0, 48, 127
1, 15591, Note_off_c, 7, 79, 127
1, 15595, Note_on_c, 2, 50, 127
1, 15595, Note_on_c, 10, 69, 127
1, 15879, Note_off_c, 10, 69, 127
1, 15883, Note_on_c, 2, 38, 127
1, 15883, Note_on_c, 6, 78, 127
1, 16132, Note_off_c, 2, 50, 127
1, 16135, Note_off_c, 2, 38, 127
1, 16167, Note_off_c, 6, 78, 127
1, 16171, Note_on_c, 7, 79, 127
1, 16171, Note_on_c, 12, 71, 127
1, 16171, Note_on_c, 7, 67, 127
1, 16171, Note_on_c, 2, 74, 127
1, 16315, Note_on_c, 7, 43, 127
1, 16455, Note_off_c, 7, 43, 127
1, 16459, Note_on_c, 12, 47, 127
1, 16599, Note_off_c, 12, 47, 127
1, 16606, Note_on_c, 2, 50, 127
1, 16746, Note_off_c, 2, 50, 127
1, 16754, Note_on_c, 7, 55, 127
1, 16887, Note_off_c, 2, 74, 127
1, 16887, Note_off_c, 7, 67, 127
1, 16887, Note_off_c, 12, 71, 127
1, 16887, Note_off_c, 7, 79, 127
1, 16898, Note_on_c, 7, 67, 127
1, 17043, Note_off_c, 7, 67, 127
1, 17045, Note_on_c, 12, 71, 127
1, 17183, Note_on_c, 2, 74, 127
1, 17185, Note_off_c, 12, 71, 127
1, 17261, Note_off_c, 7, 55, 127
1, 17322, Note_off_c, 2, 74, 127
1, 17322, Note_on_c, 7, 79, 127
1, 17466, Note_on_c, 4, 52, 127
1, 17606, Note_off_c, 4, 52, 127
1, 17606, Note_off_c, 7, 79, 127
1, 17610, Note_on_c, 7, 55, 127
1, 17610, Note_on_c, 7, 79, 127
1, 17750, Note_off_c, 7, 55, 127
1, 17754, Note_on_c, 12, 59, 127
1, 17894, Note_off_c, 12, 59, 127
1, 17894, Note_off_c, 7, 79, 127
1, 17898, Note_on_c, 4, 64, 127
1, 17898, Note_on_c, 7, 79, 127
1, 18038, Note_off_c, 4, 64, 127
1, 18042, Note_on_c, 0, 60, 127
1, 18182, Note_off_c, 0, 60, 127
1, 18182, Note_off_c, 7, 79, 127
1, 18186, Note_on_c, 2, 62, 127
1, 18186, Note_on_c, 7, 79, 127
1, 18326, Note_off_c, 2, 62, 127
1, 18330, Note_on_c, 4, 64, 127
1, 18470, Note_off_c, 4, 64, 127
1, 18470, Note_off_c, 7, 79, 127
1, 18474, Note_on_c, 10, 57, 127
1, 18474, Note_on_c, 10, 81, 127
1, 18542, Note_off_c, 10, 81, 127
1, 18546, Note_on_c, 7, 79, 127
1, 18614, Note_off_c, 7, 79, 127
1, 18618, Note_on_c, 10, 81, 127
1, 18686, Note_off_c, 10, 81, 127
1, 18690, Note_on_c, 7, 79, 127
1, 18758, Note_off_c, 7, 79, 127
1, 18762, Note_on_c, 5, 77, 127
1, 18902, Note_off_c, 5, 77, 127
1, 18906, Note_on_c, 4, 76, 127
1, 18981, Note_off_c, 10, 57, 127
1, 19045, Note_off_c, 4, 76, 127
1, 19049, Note_on_c, 5, 77, 127
1, 19189, Note_off_c, 5, 77, 127
1, 19193, Note_on_c, 7, 67, 127
1, 19333, Note_off_c, 7, 67, 127
1, 19337, Note_on_c, 12, 71, 127
1, 19477, Note_off_c, 12, 71, 127
1, 19481, Note_on_c, 2, 74, 127
1, 19621, Note_off_c, 2, 74, 127
1, 19625, Note_on_c, 5, 77, 127
1, 19769, Note_on_c, 2, 50, 127
1, 19909, Note_off_c, 2, 50, 127
1, 19909, Note_off_c, 5, 77, 127
1, 19913, Note_on_c, 5, 53, 127
1, 19913, Note_on_c, 5, 77, 127
1, 20053, Note_off_c, 5, 53, 127
1, 20057, Note_on_c, 10, 57, 127
1, 20197, Note_off_c, 10, 57, 127
1, 20197, Note_off_c, 5, 77, 127
1, 20201, Note_on_c, 2, 62, 127
1, 20201, Note_on_c, 5, 77, 127
1, 20341, Note_off_c, 2, 62, 127
1, 20345, Note_on_c, 12, 59, 127
1, 20485, Note_off_c, 12, 59, 127
1, 20485, Note_off_c, 5, 77, 127
1, 20489, Note_on_c, 0, 60, 127
1, 20489, Note_on_c, 5, 77, 127
1, 20629, Note_off_c, 0, 60, 127
1, 20633, Note_on_c, 2, 62, 127
1, 20773, Note_off_c, 2, 62, 127
1, 20773, Note_off_c, 5, 77, 127
1, 20777, Note_on_c, 7, 55, 127
1, 20777, Note_on_c, 7, 79, 127
1, 20845, Note_off_c, 7, 79, 127
1, 20849, Note_on_c, 5, 77, 127
1, 20917, Note_off_c, 5, 77, 127
1, 20921, Note_on_c, 7, 79, 127
1, 20989, Note_off_c, 7, 79, 127
1, 20993, Note_on_c, 5, 77, 127
1, 21061, Note_off_c, 5, 77, 127
1, 21065, Note_on_c, 4, 76, 127
1, 21205, Note_off_c, 4, 76, 127
1, 21209, Note_on_c, 2, 74, 127
1, 21284, Note_off_c, 7, 55, 127
1, 21348, Note_off_c, 2, 74, 127
1, 21352, Note_on_c, 4, 76, 127
1, 21492, Note_off_c, 4, 76, 127
1, 21496, Note_on_c, 7, 67, 127
1, 21636, Note_off_c, 7, 67, 127
1, 21640, Note_on_c, 0, 72, 127
1, 21780, Note_off_c, 0, 72, 127
1, 21784, Note_on_c, 2, 74, 127
1, 21924, Note_off_c, 2, 74, 127
1, 21928, Note_on_c, 4, 76, 127
1, 22072, Note_on_c, 0, 48, 127
1, 22212, Note_off_c, 0, 48, 127
1, 22212, Note_off_c, 4, 76, 127
1, 22216, Note_on_c, 4, 52, 127
1, 22216, Note_on_c, 4, 76, 127
1, 22356, Note_off_c, 4, 52, 127
1, 22360, Note_on_c, 7, 55, 127
1, 22500, Note_off_c, 7, 55, 127
1, 22500, Note_off_c, 4, 76, 127
1, 22504, Note_on_c, 0, 60, 127
1, 22504, Note_on_c, 4, 76, 127
1, 22644, Note_off_c, 0, 60, 127
1, 22648, Note_on_c, 10, 57, 127
1, 22788, Note_off_c, 10, 57, 127
1, 22788, Note_off_c, 4, 76, 127
1, 22792, Note_on_c, 12, 59, 127
1, 22792, Note_on_c, 4, 76, 127
1, 22932, Note_off_c, 12, 59, 127
1, 22936, Note_on_c, 0, 60, 127
1, 23076, Note_off_c, 0, 60, 127
1, 23076, Note_off_c, 4, 76, 127
1, 23080, Note_on_c, 5, 53, 127
1, 23080, Note_on_c, 5, 77, 127
1, 23148, Note_off_c, 5, 77, 127
1, 23152, Note_on_c, 4, 76, 127
1, 23220, Note_off_c, 4, 76, 127
1, 23224, Note_on_c, 5, 77, 127
1, 23292, Note_off_c, 5, 77, 127
1, 23296, Note_on_c, 4, 76, 127
1, 23364, Note_off_c, 4, 76, 127
1, 23368, Note_on_c, 2, 74, 127
1, 23508, Note_off_c, 2, 74, 127
1, 23512, Note_on_c, 0, 72, 127
1, 23587, Note_off_c, 5, 53, 127
1, 23651, Note_off_c, 0, 72, 127
1, 23655, Note_on_c, 2, 74, 127
1, 23795, Note_off_c, 2, 74, 127
1, 23799, Note_on_c, 7, 67, 127
1, 23939, Note_off_c, 7, 67, 127
1, 23943, Note_on_c, 12, 71, 127
1, 24083, Note_off_c, 12, 71, 127
1, 24087, Note_on_c, 0, 72, 127
1, 24227, Note_off_c, 0, 72, 127
1, 24231, Note_on_c, 2, 74, 127
1, 24375, Note_on_c, 12, 47, 127
1, 24515, Note_off_c, 12, 47, 127
1, 24515, Note_off_c, 2, 74, 127
1, 24519, Note_on_c, 2, 50, 127
1, 24519, Note_on_c, 2, 74, 127
1, 24659, Note_off_c, 2, 50, 127
1, 24663, Note_on_c, 5, 53, 127
1, 24803, Note_off_c, 5, 53, 127
1, 24803, Note_off_c, 2, 74, 127
1, 24807, Note_on_c, 12, 59, 127
1, 24807, Note_on_c, 2, 74, 127
1, 24947, Note_off_c, 12, 59, 127
1, 24951, Note_on_c, 7, 55, 127
1, 25091, Note_off_c, 7, 55, 127
1, 25091, Note_off_c, 2, 74, 127
1, 25095, Note_on_c, 10, 57, 127
1, 25095, Note_on_c, 2, 74, 127
1, 25235, Note_off_c, 10, 57, 127
1, 25239, Note_on_c, 12, 59, 127
1, 25379, Note_off_c, 12, 59, 127
1, 25379, Note_off_c, 2, 74, 127
1, 25383, Note_on_c, 4, 52, 127
1, 25383, Note_on_c, 4, 76, 127
1, 25451, Note_off_c, 4, 76, 127
1, 25455, Note_on_c, 2, 74, 127
1, 25523, Note_off_c, 2, 74, 127
1, 25527, Note_on_c, 4, 76, 127
1, 25595, Note_off_c, 4, 76, 127
1, 25599, Note_on_c, 2, 74, 127
1, 25667, Note_off_c, 2, 74, 127
1, 25671, Note_on_c, 0, 72, 127
1, 25811, Note_off_c, 0, 72, 127
1, 25815, Note_on_c, 12, 71, 127
1, 25890, Note_off_c, 4, 52, 127
1, 25954, Note_off_c, 12, 71, 127
1, 25958, Note_on_c, 0, 72, 127
1, 26098, Note_off_c, 0, 72, 127
1, 26102, Note_on_c, 7, 67, 127
1, 26242, Note_off_c, 7, 67, 127
1, 26246, Note_on_c, 10, 69, 127
1, 26386, Note_off_c, 10, 69, 127
1, 26390, Note_on_c, 12, 71, 127
1, 26530, Note_off_c, 12, 71, 127
1, 26534, Note_on_c, 0, 72, 127
1, 26678, Note_on_c, 12, 59, 127
1, 26818, Note_off_c, 12, 59, 127
1, 26818, Note_off_c, 0, 72, 127
1, 26822, Note_on_c, 10, 57, 127
1, 26822, Note_on_c, 2, 74, 127
1, 26962, Note_off_c, 2, 74, 127
1, 26962, Note_off_c, 10, 57, 127
1, 26966, Note_on_c, 7, 55, 127
1, 26966, Note_on_c, 4, 76, 127
1, 27106, Note_off_c, 4, 76, 127
1, 27106, Note_off_c, 7, 55, 127
1, 27110, Note_on_c, 6, 54, 127
1, 27110, Note_on_c, 2, 74, 127
1, 27250, Note_off_c, 6, 54, 127
1, 27254, Note_on_c, 4, 52, 127
1, 27394, Note_off_c, 4, 52, 127
1, 27394, Note_off_c, 2, 74, 127
1, 27398, Note_on_c, 6, 54, 127
1, 27398, Note_on_c, 0, 72, 127
1, 27538, Note_off_c, 6, 54, 127
1, 27542, Note_on_c, 2, 50, 127
1, 27682, Note_off_c, 2, 50, 127
1, 27682, Note_off_c, 0, 72, 127
1, 27686, Note_on_c, 7, 55, 127
1, 27686, Note_on_c, 12, 71, 127
1, 27826, Note_off_c, 12, 71, 127
1, 27830, Note_on_c, 7, 67, 127
1, 27974, Note_on_c, 7, 43, 127
1, 27974, Note_on_c, 12, 71, 127
1, 28022, Note_off_c, 7, 67, 127
1, 28114, Note_off_c, 12, 71, 127
1, 28118, Note_on_c, 7, 67, 127
1, 28253, Note_off_c, 7, 55, 127
1, 28262, Note_on_c, 12, 71, 127
1, 28310, Note_off_c, 7, 67, 127
1, 28391, Note_off_c, 7, 43, 127
1, 28401, Note_off_c, 12, 71, 127
1, 28405, Note_on_c, 7, 67, 127
1, 28549, Note_on_c, 12, 71, 127
1, 28597, Note_off_c, 7, 67, 127
1, 28689, Note_off_c, 12, 71, 127
1, 28693, Note_on_c, 7, 67, 127
1, 28837, Note_on_c, 7, 43, 127
1, 28837, Note_on_c, 2, 74, 127
1, 28885, Note_off_c, 7, 67, 127
1, 28977, Note_off_c, 2, 74, 127
1, 28977, Note_off_c, 7, 43, 127
1, 28981, Note_on_c, 12, 47, 127
1, 28981, Note_on_c, 7, 67, 127
1, 29121, Note_off_c, 7, 67, 127
1, 29121, Note_off_c, 12, 47, 127
1, 29125, Note_on_c, 2, 50, 127
1, 29125, Note_on_c, 12, 71, 127
1, 29193, Note_off_c, 12, 71, 127
1, 29197, Note_on_c, 10, 69, 127
1, 29265, Note_off_c, 10, 69, 127
1, 29265, Note_off_c, 2, 50, 127
1, 29269, Note_on_c, 7, 55, 127
1, 29269, Note_on_c, 7, 67, 127
1, 29409, Note_off_c, 7, 67, 127
1, 29409, Note_off_c, 7, 55, 127
1, 29413, Note_on_c, 7, 43, 127
1, 29413, Note_on_c, 12, 71, 127
1, 29553, Note_off_c, 12, 71, 127
1, 29553, Note_off_c, 7, 43, 127
1, 29557, Note_on_c, 12, 47, 127
1, 29557, Note_on_c, 7, 67, 127
1, 29697, Note_off_c, 12, 47, 127
1, 29701, Note_on_c, 2, 50, 127
1, 29701, Note_on_c, 12, 71, 127
1, 29770, Note_off_c, 7, 67, 127
1, 29840, Note_off_c, 12, 71, 127
1, 29840, Note_off_c, 2, 50, 127
1, 29844, Note_on_c, 7, 55, 127
1, 29844, Note_on_c, 7, 67, 127
1, 29984, Note_off_c, 7, 55, 127
1, 29988, Note_on_c, 7, 43, 127
1, 29988, Note_on_c, 5, 77, 127
1, 30057, Note_off_c, 7, 67, 127
1, 30127, Note_off_c, 5, 77, 127
1, 30131, Note_on_c, 7, 67, 127
1, 30271, Note_off_c, 7, 67, 127
1, 30271, Note_off_c, 7, 43, 127
1, 30275, Note_on_c, 5, 53, 127
1, 30275, Note_on_c, 12, 71, 127
1, 30343, Note_off_c, 12, 71, 127
1, 30347, Note_on_c, 10, 69, 127
1, 30415, Note_off_c, 10, 69, 127
1, 30419, Note_on_c, 7, 67, 127
1, 30559, Note_off_c, 7, 67, 127
1, 30563, Note_on_c, 12, 71, 127
1, 30692, Note_off_c, 5, 53, 127
1, 30702, Note_off_c, 12, 71, 127
1, 30706, Note_on_c, 7, 67, 127
1, 30850, Note_on_c, 12, 71, 127
1, 30898, Note_off_c, 7, 67, 127
1, 30990, Note_off_c, 12, 71, 127
1, 30994, Note_on_c, 7, 67, 127
1, 31138, Note_on_c, 7, 43, 127
1, 31138, Note_on_c, 2, 74, 127
1, 31171, Note_off_c, 7, 67, 127
1, 31277, Note_off_c, 2, 74, 127
1, 31277, Note_off_c, 7, 43, 127
1, 31281, Note_on_c, 12, 47, 127
1, 31281, Note_on_c, 7, 67, 127
1, 31421, Note_off_c, 7, 67, 127
1, 31421, Note_off_c, 12, 47, 127
1, 31425, Note_on_c, 2, 50, 127
1, 31425, Note_on_c, 12, 71, 127
1, 31493, Note_off_c, 12, 71, 127
1, 31497, Note_on_c, 10, 69, 127
1, 31565, Note_off_c, 10, 69, 127
1, 31565, Note_off_c, 2, 50, 127
1, 31569, Note_on_c, 5, 53, 127
1, 31569, Note_on_c, 7, 67, 127
1, 31709, Note_off_c, 7, 67, 127
1, 31709, Note_off_c, 5, 53, 127
1, 31713, Note_on_c, 7, 43, 127
1, 31713, Note_on_c, 12, 71, 127
1, 31853, Note_off_c, 12, 71, 127
1, 31853, Note_off_c, 7, 43, 127
1, 31857, Note_on_c, 12, 47, 127
1, 31857, Note_on_c, 7, 67, 127
1, 31997, Note_off_c, 7, 67, 127
1, 31997, Note_off_c, 12, 47, 127
1, 32001, Note_on_c, 2, 50, 127
1, 32001, Note_on_c, 12, 71, 127
1, 32117, Note_off_c, 12, 71, 127
1, 32141, Note_off_c, 2, 50, 127
1, 32145, Note_on_c, 5, 53, 127
1, 32145, Note_on_c, 7, 67, 127
1, 32249, Note_off_c, 7, 67, 127
1, 32285, Note_off_c, 5, 53, 127
1, 32289, Note_on_c, 0, 48, 127
1, 32289, Note_on_c, 4, 76, 127
1, 32429, Note_off_c, 0, 48, 127
1, 32433, Note_on_c, 4, 52, 127
1, 32573, Note_off_c, 4, 52, 127
1, 32573, Note_off_c, 4, 76, 127
1, 32577, Note_on_c, 7, 55, 127
1, 32577, Note_on_c, 2, 74, 127
1, 32717, Note_off_c, 2, 74, 127
1, 32717, Note_off_c, 7, 55, 127
1, 32721, Note_on_c, 0, 60, 127
1, 32721, Note_on_c, 0, 72, 127
1, 32861, Note_off_c, 0, 72, 127
1, 32861, Note_off_c, 0, 60, 127
1, 32865, Note_on_c, 2, 50, 127
1, 32865, Note_on_c, 5, 77, 127
1, 33005, Note_off_c, 2, 50, 127
1, 33009, Note_on_c, 5, 53, 127
1, 33149, Note_off_c, 5, 53, 127
1, 33149, Note_off_c, 5, 77, 127
1, 33153, Note_on_c, 0, 60, 127
1, 33153, Note_on_c, 4, 76, 127
1, 33293, Note_off_c, 4, 76, 127
1, 33293, Note_off_c, 0, 60, 127
1, 33297, Note_on_c, 12, 59, 127
1, 33297, Note_on_c, 2, 74, 127
1, 33437, Note_off_c, 2, 74, 127
1, 33437, Note_off_c, 12, 59, 127
1, 33441, Note_on_c, 4, 52, 127
1, 33441, Note_on_c, 7, 79, 127
1, 33581, Note_off_c, 4, 52, 127
1, 33585, Note_on_c, 5, 53, 127
1, 33725, Note_off_c, 5, 53, 127
1, 33725, Note_off_c, 7, 79, 127
1, 33729, Note_on_c, 7, 55, 127
1, 33729, Note_on_c, 12, 71, 127
1, 33869, Note_off_c, 7, 55, 127
1, 33873, Note_on_c, 4, 52, 127
1, 34013, Note_off_c, 4, 52, 127
1, 34013, Note_off_c, 12, 71, 127
1, 34017, Note_on_c, 10, 57, 127
1, 34017, Note_on_c, 0, 72, 127
1, 34157, Note_off_c, 10, 57, 127
1, 34161, Note_on_c, 4, 52, 127
1, 34301, Note_off_c, 4, 52, 127
1, 34301, Note_off_c, 0, 72, 127
1, 34305, Note_on_c, 0, 48, 127
1, 34305, Note_on_c, 4, 64, 127
1, 34445, Note_off_c, 0, 48, 127
1, 34449, Note_on_c, 10, 45, 127
1, 34589, Note_off_c, 10, 45, 127
1, 34589, Note_off_c, 4, 64, 127
1, 34593, Note_on_c, 2, 50, 127
1, 34593, Note_on_c, 5, 65, 127
1, 34733, Note_off_c, 2, 50, 127
1, 34737, Note_on_c, 4, 52, 127
1, 34877, Note_off_c, 4, 52, 127
1, 34877, Note_off_c, 5, 65, 127
1, 34881, Note_on_c, 5, 53, 127
1, 34881, Note_on_c, 0, 72, 127
1, 35021, Note_off_c, 5, 53, 127
1, 35025, Note_on_c, 2, 50, 127
1, 35165, Note_off_c, 2, 50, 127
1, 35165, Note_off_c, 0, 72, 127
1, 35169, Note_on_c, 7, 55, 127
1, 35169, Note_on_c, 2, 62, 127
1, 35309, Note_off_c, 7, 55, 127
1, 35313, Note_on_c, 5, 53, 127
1, 35453, Note_off_c, 5, 53, 127
1, 35453, Note_off_c, 2, 62, 127
1, 35457, Note_on_c, 7, 55, 127
1, 35457, Note_on_c, 12, 71, 127
1, 35597, Note_off_c, 7, 55, 127
1, 35601, Note_on_c, 7, 43, 127
1, 35741, Note_off_c, 7, 43, 127
1, 35741, Note_off_c, 12, 71, 127
1, 35761, Note_on_c, 0, 72, 127
1, 35761, Note_on_c, 7, 67, 127
1, 35761, Note_on_c, 0, 60, 127
1, 35761, Note_on_c, 4, 64, 127
1, 35761, Note_on_c, 0, 48, 127
1, 35905, Note_on_c, 0, 36, 127
1, 36043, Note_off_c, 0, 48, 127
1, 36045, Note_off_c, 0, 36, 127
1, 36049, Note_on_c, 4, 40, 127
1, 36189, Note_off_c, 4, 40, 127
1, 36193, Note_on_c, 7, 43, 127
1, 36328, Note_off_c, 4, 64, 127
1, 36328, Note_off_c, 0, 60, 127
1, 36328, Note_off_c, 7, 67, 127
1, 36332, Note_off_c, 7, 43, 127
1, 36336, Note_on_c, 0, 48, 127
1, 36476, Note_off_c, 0, 72, 127
1, 36480, Note_on_c, 0, 72, 127
1, 36620, Note_off_c, 0, 72, 127
1, 36620, Note_off_c, 0, 48, 127
1, 36624, Note_on_c, 4, 76, 127
1, 36624, Note_on_c, 0, 48, 127
1, 36624, Note_on_c, 4, 52, 127
1, 36624, Note_on_c, 7, 55, 127
1, 36764, Note_off_c, 4, 76, 127
1, 36768, Note_on_c, 5, 77, 127
1, 36908, Note_off_c, 5, 77, 127
1, 36908, Note_off_c, 7, 55, 127
1, 36908, Note_off_c, 4, 52, 127
1, 36908, Note_off_c, 0, 48, 127
1, 36912, Note_on_c, 7, 79, 127
1, 36912, Note_on_c, 12, 47, 127
1, 36912, Note_on_c, 2, 50, 127
1, 36912, Note_on_c, 7, 55, 127
1, 37196, Note_off_c, 2, 50, 127
1, 37196, Note_off_c, 12, 47, 127
1, 37196, Note_off_c, 7, 79, 127
1, 37200, Note_on_c, 7, 79, 127
1, 37200, Note_on_c, 0, 72, 127
1, 37200, Note_on_c, 10, 45, 127
1, 37269, Note_off_c, 7, 55, 127
1, 37483, Note_off_c, 10, 45, 127
1, 37483, Note_off_c, 0, 72, 127
1, 37483, Note_off_c, 7, 79, 127
1, 37487, Note_on_c, 2, 74, 127
1, 37487, Note_on_c, 7, 79, 127
1, 37487, Note_on_c, 12, 47, 127
1, 37771, Note_off_c, 12, 47, 127
1, 37771, Note_off_c, 7, 79, 127
1, 37771, Note_off_c, 2, 74, 127
1, 37775, Note_on_c, 12, 71, 127
1, 37775, Note_on_c, 7, 79, 127
1, 37775, Note_on_c, 7, 55, 127
1, 37775, Note_on_c, 2, 50, 127
1, 37775, Note_on_c, 7, 43, 127
1, 38059, Note_off_c, 7, 43, 127
1, 38059, Note_off_c, 2, 50, 127
1, 38059, Note_off_c, 7, 55, 127
1, 38059, Note_off_c, 7, 79, 127
1, 38059, Note_off_c, 12, 71, 127
1, 38063, Note_on_c, 0, 72, 127
1, 38063, Note_on_c, 4, 76, 127
1, 38063, Note_on_c, 0, 48, 127
1, 38063, Note_on_c, 7, 55, 127
1, 38347, Note_off_c, 7, 55, 127
1, 38347, Note_off_c, 0, 48, 127
1, 38347, Note_off_c, 4, 76, 127
1, 38347, Note_off_c, 0, 72, 127
1, 38351, Note_on_c, 0, 72, 127
1, 38351, Note_on_c, 2, 50, 127
1, 38633, Note_off_c, 0, 72, 127
1, 38635, Note_off_c, 2, 50, 127
1, 38639, Note_on_c, 4, 52, 127
1, 38783, Note_on_c, 0, 72, 127
1, 38923, Note_off_c, 0, 72, 127
1, 38923, Note_off_c, 4, 52, 127
1, 38927, Note_on_c, 4, 76, 127
1, 38927, Note_on_c, 0, 48, 127
1, 38927, Note_on_c, 7, 55, 127
1, 38927, Note_on_c, 4, 52, 127
1, 39067, Note_off_c, 4, 76, 127
1, 39071, Note_on_c, 5, 77, 127
1, 39211, Note_off_c, 5, 77, 127
1, 39211, Note_off_c, 4, 52, 127
1, 39211, Note_off_c, 7, 55, 127
1, 39211, Note_off_c, 0, 48, 127
1, 39215, Note_on_c, 7, 79, 127
1, 39215, Note_on_c, 12, 47, 127
1, 39215, Note_on_c, 2, 50, 127
1, 39215, Note_on_c, 7, 55, 127
1, 39499, Note_off_c, 2, 50, 127
1, 39499, Note_off_c, 12, 47, 127
1, 39499, Note_off_c, 7, 79, 127
1, 39503, Note_on_c, 0, 72, 127
1, 39503, Note_on_c, 7, 79, 127
1, 39503, Note_on_c, 10, 45, 127
1, 39572, Note_off_c, 7, 55, 127
1, 39786, Note_off_c, 10, 45, 127
1, 39786, Note_off_c, 7, 79, 127
1, 39786, Note_off_c, 0, 72, 127
1, 39790, Note_on_c, 7, 79, 127
1, 39790, Note_on_c, 2, 74, 127
1, 39790, Note_on_c, 12, 47, 127
1, 40074, Note_off_c, 12, 47, 127
1, 40074, Note_off_c, 2, 74, 127
1, 40074, Note_off_c, 7, 79, 127
1, 40078, Note_on_c, 7, 79, 127
1, 40078, Note_on_c, 12, 71, 127
1, 40078, Note_on_c, 7, 55, 127
1, 40078, Note_on_c, 2, 50, 127
1, 40078, Note_on_c, 7, 43, 127
1, 40362, Note_off_c, 7, 43, 127
1, 40362, Note_off_c, 2, 50, 127
1, 40362, Note_off_c, 7, 55, 127
1, 40362, Note_off_c, 12, 71, 127
1, 40362, Note_off_c, 7, 79, 127
1, 40366, Note_on_c, 0, 72, 127
1, 40366, Note_on_c, 4, 76, 127
1, 40366, Note_on_c, 7, 55, 127
1, 40366, Note_on_c, 0, 48, 127
1, 40506, Note_off_c, 0, 48, 127
1, 40506, Note_off_c, 7, 55, 127
1, 40510, Note_on_c, 4, 52, 127
1, 40650, Note_off_c, 4, 52, 127
1, 40650, Note_off_c, 4, 76, 127
1, 40650, Note_off_c, 0, 72, 127
1, 40654, Note_on_c, 0, 72, 127
1, 40654, Note_on_c, 2, 50, 127
1, 40794, Note_off_c, 2, 50, 127
1, 40798, Note_on_c, 5, 53, 127
1, 40936, Note_off_c, 0, 72, 127
1, 40938, Note_off_c, 5, 53, 127
1, 40942, Note_on_c, 4, 52, 127
1, 41082, Note_off_c, 4, 52, 127
1, 41086, Note_on_c, 7, 79, 127
1, 41086, Note_on_c, 7, 55, 127
1, 41226, Note_off_c, 7, 55, 127
1, 41226, Note_off_c, 7, 79, 127
1, 41230, Note_on_c, 10, 81, 127
1, 41230, Note_on_c, 5, 53, 127
1, 41370, Note_off_c, 5, 53, 127
1, 41370, Note_off_c, 10, 81, 127
1, 41374, Note_on_c, 7, 79, 127
1, 41374, Note_on_c, 7, 55, 127
1, 41514, Note_off_c, 7, 55, 127
1, 41514, Note_off_c, 7, 79, 127
1, 41518, Note_on_c, 0, 84, 127
1, 41518, Note_on_c, 4, 52, 127
1, 41662, Note_on_c, 7, 79, 127
1, 41802, Note_off_c, 7, 79, 127
1, 41802, Note_off_c, 4, 52, 127
1, 41806, Note_on_c, 10, 81, 127
1, 41806, Note_on_c, 0, 60, 127
1, 41875, Note_off_c, 0, 84, 127
1, 41945, Note_off_c, 10, 81, 127
1, 41949, Note_on_c, 7, 79, 127
1, 42087, Note_off_c, 0, 60, 127
1, 42089, Note_off_c, 7, 79, 127
1, 42093, Note_on_c, 0, 84, 127
1, 42237, Note_on_c, 7, 79, 127
1, 42237, Note_on_c, 0, 60, 127
1, 42377, Note_off_c, 0, 60, 127
1, 42377, Note_off_c, 7, 79, 127
1, 42381, Note_on_c, 10, 81, 127
1, 42381, Note_on_c, 12, 59, 127
1, 42450, Note_off_c, 0, 84, 127
1, 42520, Note_off_c, 12, 59, 127
1, 42520, Note_off_c, 10, 81, 127
1, 42524, Note_on_c, 7, 79, 127
1, 42524, Note_on_c, 0, 60, 127
1, 42664, Note_off_c, 0, 60, 127
1, 42664, Note_off_c, 7, 79, 127
1, 42668, Note_on_c, 0, 84, 127
1, 42668, Note_on_c, 4, 52, 127
1, 42812, Note_on_c, 7, 79, 127
1, 42952, Note_off_c, 7, 79, 127
1, 42952, Note_off_c, 4, 52, 127
1, 42956, Note_on_c, 10, 81, 127
1, 42956, Note_on_c, 0, 60, 127
1, 43025, Note_off_c, 0, 84, 127
1, 43095, Note_off_c, 10, 81, 127
1, 43099, Note_on_c, 7, 79, 127
1, 43237, Note_off_c, 0, 60, 127
1, 43239, Note_off_c, 7, 79, 127
1, 43243, Note_on_c, 0, 84, 127
1, 43383, Note_off_c, 0, 84, 127
1, 43387, Note_on_c, 11, 82, 127
1, 43387, Note_on_c, 0, 48, 127
1, 43527, Note_off_c, 0, 48, 127
1, 43527, Note_off_c, 11, 82, 127
1, 43531, Note_on_c, 10, 81, 127
1, 43531, Note_on_c, 2, 50, 127
1, 43671, Note_off_c, 2, 50, 127
1, 43671, Note_off_c, 10, 81, 127
1, 43675, Note_on_c, 7, 79, 127
1, 43675, Note_on_c, 4, 52, 127
1, 43815, Note_off_c, 4, 52, 127
1, 43815, Note_off_c, 7, 79, 127
1, 43819, Note_on_c, 10, 81, 127
1, 43819, Note_on_c, 5, 53, 127
1, 43959, Note_off_c, 5, 53, 127
1, 43963, Note_on_c, 5, 41, 127
1, 44103, Note_off_c, 5, 41, 127
1, 44107, Note_on_c, 10, 45, 127
1, 44247, Note_off_c, 10, 45, 127
1, 44251, Note_on_c, 0, 48, 127
1, 44386, Note_off_c, 10, 81, 127
1, 44390, Note_off_c, 0, 48, 127
1, 44394, Note_on_c, 5, 53, 127
1, 44534, Note_off_c, 5, 53, 127
1, 44538, Note_on_c, 2, 74, 127
1, 44538, Note_on_c, 4, 52, 127
1, 44678, Note_off_c, 4, 52, 127
1, 44678, Note_off_c, 2, 74, 127
1, 44682, Note_on_c, 4, 76, 127
1, 44682, Note_on_c, 2, 50, 127
1, 44822, Note_off_c, 2, 50, 127
1, 44822, Note_off_c, 4, 76, 127
1, 44826, Note_on_c, 2, 74, 127
1, 44826, Note_on_c, 0, 48, 127
1, 44966, Note_off_c, 0, 48, 127
1, 44966, Note_off_c, 2, 74, 127
1, 44970, Note_on_c, 7, 79, 127
1, 44970, Note_on_c, 12, 47, 127
1, 45114, Note_on_c, 2, 74, 127
1, 45252, Note_off_c, 7, 79, 127
1, 45254, Note_off_c, 2, 74, 127
1, 45254, Note_off_c, 12, 47, 127
1, 45258, Note_on_c, 4, 76, 127
1, 45258, Note_on_c, 7, 55, 127
1, 45398, Note_off_c, 4, 76, 127
1, 45402, Note_on_c, 2, 74, 127
1, 45540, Note_off_c, 7, 55, 127
1, 45542, Note_off_c, 2, 74, 127
1, 45546, Note_on_c, 7, 79, 127
1, 45690, Note_on_c, 2, 74, 127
1, 45690, Note_on_c, 7, 55, 127
1, 45828, Note_off_c, 7, 79, 127
1, 45830, Note_off_c, 7, 55, 127
1, 45830, Note_off_c, 2, 74, 127
1, 45834, Note_on_c, 4, 76, 127
1, 45834, Note_on_c, 5, 53, 127
1, 45974, Note_off_c, 5, 53, 127
1, 45974, Note_off_c, 4, 76, 127
1, 45978, Note_on_c, 2, 74, 127
1, 45978, Note_on_c, 7, 55, 127
1, 46118, Note_off_c, 7, 55, 127
1, 46118, Note_off_c, 2, 74, 127
1, 46122, Note_on_c, 7, 79, 127
1, 46122, Note_on_c, 12, 47, 127
1, 46266, Note_on_c, 2, 74, 127
1, 46404, Note_off_c, 7, 79, 127
1, 46406, Note_off_c, 2, 74, 127
1, 46406, Note_off_c, 12, 47, 127
1, 46410, Note_on_c, 4, 76, 127
1, 46410, Note_on_c, 7, 55, 127
1, 46550, Note_off_c, 4, 76, 127
1, 46554, Note_on_c, 2, 74, 127
1, 46692, Note_off_c, 7, 55, 127
1, 46694, Note_off_c, 2, 74, 127
1, 46698, Note_on_c, 7, 79, 127
1, 46838, Note_off_c, 7, 79, 127
1, 46842, Note_on_c, 5, 77, 127
1, 46842, Note_on_c, 7, 43, 127
1, 46982, Note_off_c, 7, 43, 127
1, 46982, Note_off_c, 5, 77, 127
1, 46986, Note_on_c, 4, 76, 127
1, 46986, Note_on_c, 10, 45, 127
1, 47126, Note_off_c, 10, 45, 127
1, 47126, Note_off_c, 4, 76, 127
1, 47130, Note_on_c, 2, 74, 127
1, 47130, Note_on_c, 12, 47, 127
1, 47270, Note_off_c, 12, 47, 127
1, 47270, Note_off_c, 2, 74, 127
1, 47274, Note_on_c, 4, 76, 127
1, 47274, Note_on_c, 0, 48, 127
1, 47414, Note_off_c, 0, 48, 127
1, 47418, Note_on_c, 0, 36, 127
1, 47558, Note_off_c, 0, 36, 127
1, 47562, Note_on_c, 4, 40, 127
1, 47702, Note_off_c, 4, 40, 127
1, 47706, Note_on_c, 7, 43, 127
1, 47841, Note_off_c, 4, 76, 127
1, 47845, Note_off_c, 7, 43, 127
1, 47849, Note_on_c, 0, 48, 127
1, 47989, Note_off_c, 0, 48, 127
1, 47993, Note_on_c, 7, 67, 127
1, 47993, Note_on_c, 10, 45, 127
1, 48133, Note_off_c, 10, 45, 127
1, 48133, Note_off_c, 7, 67, 127
1, 48137, Note_on_c, 10, 69, 127
1, 48137, Note_on_c, 7, 43, 127
1, 48277, Note_off_c, 7, 43, 127
1, 48277, Note_off_c, 10, 69, 127
1, 48281, Note_on_c, 7, 67, 127
1, 48281, Note_on_c, 5, 41, 127
1, 48421, Note_off_c, 5, 41, 127
1, 48421, Note_off_c, 7, 67, 127
1, 48425, Note_on_c, 0, 72, 127
1, 48425, Note_on_c, 4, 40, 127
1, 48569, Note_on_c, 7, 67, 127
1, 48617, Note_off_c, 0, 72, 127
1, 48709, Note_off_c, 7, 67, 127
1, 48709, Note_off_c, 4, 40, 127
1, 48713, Note_on_c, 10, 69, 127
1, 48713, Note_on_c, 0, 48, 127
1, 48853, Note_off_c, 10, 69, 127
1, 48857, Note_on_c, 7, 67, 127
1, 48995, Note_off_c, 0, 48, 127
1, 48997, Note_off_c, 7, 67, 127
1, 49001, Note_on_c, 0, 72, 127
1, 49145, Note_on_c, 7, 67, 127
1, 49145, Note_on_c, 0, 48, 127
1, 49193, Note_off_c, 0, 72, 127
1, 49285, Note_off_c, 0, 48, 127
1, 49285, Note_off_c, 7, 67, 127
1, 49289, Note_on_c, 10, 69, 127
1, 49289, Note_on_c, 12, 47, 127
1, 49429, Note_off_c, 12, 47, 127
1, 49429, Note_off_c, 10, 69, 127
1, 49433, Note_on_c, 7, 67, 127
1, 49433, Note_on_c, 0, 48, 127
1, 49573, Note_off_c, 0, 48, 127
1, 49573, Note_off_c, 7, 67, 127
1, 49577, Note_on_c, 0, 72, 127
1, 49577, Note_on_c, 4, 40, 127
1, 49721, Note_on_c, 7, 67, 127
1, 49769, Note_off_c, 0, 72, 127
1, 49861, Note_off_c, 7, 67, 127
1, 49861, Note_off_c, 4, 40, 127
1, 49865, Note_on_c, 10, 69, 127
1, 49865, Note_on_c, 0, 48, 127
1, 50005, Note_off_c, 10, 69, 127
1, 50009, Note_on_c, 7, 67, 127
1, 50147, Note_off_c, 0, 48, 127
1, 50149, Note_off_c, 7, 67, 127
1, 50153, Note_on_c, 0, 72, 127
1, 50293, Note_off_c, 0, 72, 127
1, 50297, Note_on_c, 11, 70, 127
1, 50297, Note_on_c, 0, 48, 127
1, 50437, Note_off_c, 0, 48, 127
1, 50437, Note_off_c, 11, 70, 127
1, 50441, Note_on_c, 10, 69, 127
1, 50441, Note_on_c, 2, 50, 127
1, 50581, Note_off_c, 2, 50, 127
1, 50581, Note_off_c, 10, 69, 127
1, 50585, Note_on_c, 7, 67, 127
1, 50585, Note_on_c, 4, 52, 127
1, 50725, Note_off_c, 4, 52, 127
1, 50725, Note_off_c, 7, 67, 127
1, 50729, Note_on_c, 10, 69, 127
1, 50729, Note_on_c, 5, 53, 127
1, 50869, Note_off_c, 5, 53, 127
1, 50873, Note_on_c, 5, 41, 127
1, 51013, Note_off_c, 5, 41, 127
1, 51017, Note_on_c, 10, 45, 127
1, 51157, Note_off_c, 10, 45, 127
1, 51161, Note_on_c, 0, 48, 127
1, 51296, Note_off_c, 10, 69, 127
1, 51300, Note_off_c, 0, 48, 127
1, 51304, Note_on_c, 5, 53, 127
1, 51444, Note_off_c, 5, 53, 127
1, 51448, Note_on_c, 10, 69, 127
1, 51448, Note_on_c, 0, 48, 127
1, 51588, Note_off_c, 0, 48, 127
1, 51588, Note_off_c, 10, 69, 127
1, 51592, Note_on_c, 12, 71, 127
1, 51592, Note_on_c, 10, 45, 127
1, 51732, Note_off_c, 10, 45, 127
1, 51732, Note_off_c, 12, 71, 127
1, 51736, Note_on_c, 10, 69, 127
1, 51736, Note_on_c, 7, 43, 127
1, 51876, Note_off_c, 7, 43, 127
1, 51876, Note_off_c, 10, 69, 127
1, 51880, Note_on_c, 2, 74, 127
1, 51880, Note_on_c, 6, 42, 127
1, 52024, Note_on_c, 10, 69, 127
1, 52087, Note_off_c, 2, 74, 127
1, 52163, Note_off_c, 10, 69, 127
1, 52163, Note_off_c, 6, 42, 127
1, 52167, Note_on_c, 12, 71, 127
1, 52167, Note_on_c, 2, 50, 127
1, 52307, Note_off_c, 12, 71, 127
1, 52311, Note_on_c, 10, 69, 127
1, 52449, Note_off_c, 2, 50, 127
1, 52451, Note_off_c, 10, 69, 127
1, 52455, Note_on_c, 2, 74, 127
1, 52599, Note_on_c, 10, 69, 127
1, 52599, Note_on_c, 2, 50, 127
1, 52662, Note_off_c, 2, 74, 127
1, 52738, Note_off_c, 2, 50, 127
1, 52738, Note_off_c, 10, 69, 127
1, 52742, Note_on_c, 12, 71, 127
1, 52742, Note_on_c, 0, 48, 127
1, 52882, Note_off_c, 0, 48, 127
1, 52882, Note_off_c, 12, 71, 127
1, 52886, Note_on_c, 10, 69, 127
1, 52886, Note_on_c, 2, 50, 127
1, 53026, Note_off_c, 2, 50, 127
1, 53026, Note_off_c, 10, 69, 127
1, 53030, Note_on_c, 2, 74, 127
1, 53030, Note_on_c, 6, 42, 127
1, 53174, Note_on_c, 10, 69, 127
1, 53237, Note_off_c, 2, 74, 127
1, 53313, Note_off_c, 10, 69, 127
1, 53313, Note_off_c, 6, 42, 127
1, 53317, Note_on_c, 12, 71, 127
1, 53317, Note_on_c, 2, 50, 127
1, 53457, Note_off_c, 12, 71, 127
1, 53461, Note_on_c, 10, 69, 127
1, 53599, Note_off_c, 2, 50, 127
1, 53601, Note_off_c, 10, 69, 127
1, 53605, Note_on_c, 2, 74, 127
1, 53745, Note_off_c, 2, 74, 127
1, 53749, Note_on_c, 0, 72, 127
1, 53749, Note_on_c, 2, 50, 127
1, 53889, Note_off_c, 2, 50, 127
1, 53889, Note_off_c, 0, 72, 127
1, 53893, Note_on_c, 12, 71, 127
1, 53893, Note_on_c, 4, 52, 127
1, 54033, Note_off_c, 4, 52, 127
1, 54033, Note_off_c, 12, 71, 127
1, 54037, Note_on_c, 10, 69, 127
1, 54037, Note_on_c, 6, 54, 127
1, 54177, Note_off_c, 6, 54, 127
1, 54177, Note_off_c, 10, 69, 127
1, 54181, Note_on_c, 12, 71, 127
1, 54181, Note_on_c, 7, 55, 127
1, 54321, Note_off_c, 7, 55, 127
1, 54325, Note_on_c, 7, 43, 127
1, 54465, Note_off_c, 7, 43, 127
1, 54469, Note_on_c, 12, 47, 127
1, 54609, Note_off_c, 12, 47, 127
1, 54613, Note_on_c, 2, 50, 127
1, 54748, Note_off_c, 12, 71, 127
1, 54752, Note_off_c, 2, 50, 127
1, 54756, Note_on_c, 7, 55, 127
1, 54896, Note_off_c, 7, 55, 127
1, 54900, Note_on_c, 12, 71, 127
1, 54900, Note_on_c, 2, 50, 127
1, 55040, Note_off_c, 2, 50, 127
1, 55040, Note_off_c, 12, 71, 127
1, 55044, Note_on_c, 0, 72, 127
1, 55044, Note_on_c, 12, 47, 127
1, 55184, Note_off_c, 12, 47, 127
1, 55184, Note_off_c, 0, 72, 127
1, 55188, Note_on_c, 12, 71, 127
1, 55188, Note_on_c, 10, 45, 127
1, 55328, Note_off_c, 10, 45, 127
1, 55328, Note_off_c, 12, 71, 127
1, 55332, Note_on_c, 4, 76, 127
1, 55332, Note_on_c, 8, 44, 127
1, 55476, Note_on_c, 12, 71, 127
1, 55554, Note_off_c, 4, 76, 127
1, 55616, Note_off_c, 12, 71, 127
1, 55616, Note_off_c, 8, 44, 127
1, 55620, Note_on_c, 0, 72, 127
1, 55620, Note_on_c, 4, 52, 127
1, 55760, Note_off_c, 0, 72, 127
1, 55764, Note_on_c, 12, 71, 127
1, 55902, Note_off_c, 4, 52, 127
1, 55904, Note_off_c, 12, 71, 127
1, 55908, Note_on_c, 4, 76, 127
1, 56052, Note_on_c, 12, 71, 127
1, 56052, Note_on_c, 4, 52, 127
1, 56130, Note_off_c, 4, 76, 127
1, 56192, Note_off_c, 4, 52, 127
1, 56192, Note_off_c, 12, 71, 127
1, 56196, Note_on_c, 0, 72, 127
1, 56196, Note_on_c, 2, 50, 127
1, 56336, Note_off_c, 2, 50, 127
1, 56336, Note_off_c, 0, 72, 127
1, 56340, Note_on_c, 12, 71, 127
1, 56340, Note_on_c, 4, 52, 127
1, 56480, Note_off_c, 4, 52, 127
1, 56480, Note_off_c, 12, 71, 127
1, 56484, Note_on_c, 4, 76, 127
1, 56484, Note_on_c, 8, 44, 127
1, 56628, Note_on_c, 12, 71, 127
1, 56706, Note_off_c, 4, 76, 127
1, 56768, Note_off_c, 12, 71, 127
1, 56768, Note_off_c, 8, 44, 127
1, 56772, Note_on_c, 0, 72, 127
1, 56772, Note_on_c, 4, 52, 127
1, 56912, Note_off_c, 0, 72, 127
1, 56916, Note_on_c, 12, 71, 127
1, 57054, Note_off_c, 4, 52, 127
1, 57056, Note_off_c, 12, 71, 127
1, 57060, Note_on_c, 4, 76, 127
1, 57200, Note_off_c, 4, 76, 127
1, 57204, Note_on_c, 2, 74, 127
1, 57204, Note_on_c, 4, 52, 127
1, 57344, Note_off_c, 4, 52, 127
1, 57344, Note_off_c, 2, 74, 127
1, 57348, Note_on_c, 0, 72, 127
1, 57348, Note_on_c, 6, 54, 127
1, 57488, Note_off_c, 6, 54, 127
1, 57488, Note_off_c, 0, 72, 127
1, 57492, Note_on_c, 12, 71, 127
1, 57492, Note_on_c, 8, 56, 127
1, 57632, Note_off_c, 8, 56, 127
1, 57632, Note_off_c, 12, 71, 127
1, 57636, Note_on_c, 0, 72, 127
1, 57636, Note_on_c, 10, 57, 127
1, 57780, Note_on_c, 10, 69, 127
1, 57813, Note_off_c, 0, 72, 127
1, 57919, Note_off_c, 10, 69, 127
1, 57919, Note_off_c, 10, 57, 127
1, 57923, Note_on_c, 8, 68, 127
1, 57923, Note_on_c, 4, 52, 127
1, 58063, Note_off_c, 8, 68, 127
1, 58067, Note_on_c, 10, 69, 127
1, 58207, Note_off_c, 10, 69, 127
1, 58207, Note_off_c, 4, 52, 127
1, 58211, Note_on_c, 0, 72, 127
1, 58211, Note_on_c, 10, 45, 127
1, 58355, Note_on_c, 10, 69, 127
1, 58373, Note_off_c, 0, 72, 127
1, 58495, Note_off_c, 10, 69, 127
1, 58495, Note_off_c, 10, 45, 127
1, 58499, Note_on_c, 8, 68, 127
1, 58499, Note_on_c, 12, 47, 127
1, 58639, Note_off_c, 8, 68, 127
1, 58643, Note_on_c, 10, 69, 127
1, 58783, Note_off_c, 10, 69, 127
1, 58783, Note_off_c, 12, 47, 127
1, 58787, Note_on_c, 4, 64, 127
1, 58787, Note_on_c, 0, 48, 127
1, 58931, Note_on_c, 10, 69, 127
1, 58949, Note_off_c, 4, 64, 127
1, 59071, Note_off_c, 10, 69, 127
1, 59071, Note_off_c, 0, 48, 127
1, 59075, Note_on_c, 8, 68, 127
1, 59075, Note_on_c, 12, 47, 127
1, 59215, Note_off_c, 8, 68, 127
1, 59219, Note_on_c, 10, 69, 127
1, 59359, Note_off_c, 10, 69, 127
1, 59359, Note_off_c, 12, 47, 127
1, 59363, Note_on_c, 0, 72, 127
1, 59363, Note_on_c, 10, 45, 127
1, 59507, Note_on_c, 10, 69, 127
1, 59525, Note_off_c, 0, 72, 127
1, 59647, Note_off_c, 10, 69, 127
1, 59647, Note_off_c, 10, 45, 127
1, 59651, Note_on_c, 8, 68, 127
1, 59651, Note_on_c, 0, 48, 127
1, 59791, Note_off_c, 8, 68, 127
1, 59795, Note_on_c, 10, 69, 127
1, 59935, Note_off_c, 10, 69, 127
1, 59935, Note_off_c, 0, 48, 127
1, 59939, Note_on_c, 5, 65, 127
1, 59939, Note_on_c, 2, 50, 127
1, 60083, Note_on_c, 10, 69, 127
1, 60116, Note_off_c, 5, 65, 127
1, 60222, Note_off_c, 10, 69, 127
1, 60222, Note_off_c, 2, 50, 127
1, 60226, Note_on_c, 8, 68, 127
1, 60226, Note_on_c, 4, 52, 127
1, 60366, Note_off_c, 8, 68, 127
1, 60370, Note_on_c, 10, 69, 127
1, 60510, Note_off_c, 10, 69, 127
1, 60510, Note_off_c, 4, 52, 127
1, 60514, Note_on_c, 0, 72, 127
1, 60514, Note_on_c, 5, 53, 127
1, 60658, Note_on_c, 10, 69, 127
1, 60676, Note_off_c, 0, 72, 127
1, 60798, Note_off_c, 10, 69, 127
1, 60798, Note_off_c, 5, 53, 127
1, 60802, Note_on_c, 8, 68, 127
1, 60802, Note_on_c, 2, 50, 127
1, 60942, Note_off_c, 8, 68, 127
1, 60946, Note_on_c, 10, 69, 127
1, 61086, Note_off_c, 10, 69, 127
1, 61086, Note_off_c, 2, 50, 127
1, 61090, Note_on_c, 4, 64, 127
1, 61090, Note_on_c, 0, 48, 127
1, 61234, Note_on_c, 10, 69, 127
1, 61252, Note_off_c, 4, 64, 127
1, 61374, Note_off_c, 10, 69, 127
1, 61374, Note_off_c, 0, 48, 127
1, 61378, Note_on_c, 8, 68, 127
1, 61378, Note_on_c, 12, 47, 127
1, 61518, Note_off_c, 8, 68, 127
1, 61522, Note_on_c, 10, 69, 127
1, 61662, Note_off_c, 10, 69, 127
1, 61662, Note_off_c, 12, 47, 127
1, 61666, Note_on_c, 0, 72, 127
1, 61666, Note_on_c, 10, 45, 127
1, 61810, Note_on_c, 10, 69, 127
1, 61828, Note_off_c, 0, 72, 127
1, 61950, Note_off_c, 10, 69, 127
1, 61950, Note_off_c, 10, 45, 127
1, 61954, Note_on_c, 8, 68, 127
1, 61954, Note_on_c, 0, 48, 127
1, 62094, Note_off_c, 8, 68, 127
1, 62098, Note_on_c, 10, 69, 127
1, 62238, Note_off_c, 10, 69, 127
1, 62238, Note_off_c, 0, 48, 127
1, 62242, Note_on_c, 2, 62, 127
1, 62242, Note_on_c, 12, 47, 127
1, 62386, Note_on_c, 10, 69, 127
1, 62419, Note_off_c, 2, 62, 127
1, 62525, Note_off_c, 10, 69, 127
1, 62525, Note_off_c, 12, 47, 127
1, 62529, Note_on_c, 8, 68, 127
1, 62529, Note_on_c, 4, 52, 127
1, 62669, Note_off_c, 8, 68, 127
1, 62673, Note_on_c, 10, 69, 127
1, 62813, Note_off_c, 10, 69, 127
1, 62813, Note_off_c, 4, 52, 127
1, 62817, Note_on_c, 0, 72, 127
1, 62817, Note_on_c, 10, 45, 127
1, 62961, Note_on_c, 10, 69, 127
1, 62979, Note_off_c, 0, 72, 127
1, 63101, Note_off_c, 10, 69, 127
1, 63101, Note_off_c, 10, 45, 127
1, 63105, Note_on_c, 8, 68, 127
1, 63105, Note_on_c, 0, 48, 127
1, 63245, Note_off_c, 8, 68, 127
1, 63249, Note_on_c, 10, 69, 127
1, 63389, Note_off_c, 10, 69, 127
1, 63389, Note_off_c, 0, 48, 127
1, 63393, Note_on_c, 11, 70, 127
1, 63393, Note_on_c, 2, 38, 127
1, 63533, Note_off_c, 11, 70, 127
1, 63537, Note_on_c, 10, 69, 127
1, 63645, Note_off_c, 2, 38, 127
1, 63677, Note_off_c, 10, 69, 127
1, 63681, Note_on_c, 11, 70, 127
1, 63681, Note_on_c, 2, 50, 127
1, 63821, Note_off_c, 11, 70, 127
1, 63825, Note_on_c, 2, 74, 127
1, 63933, Note_off_c, 2, 50, 127
1, 63965, Note_off_c, 2, 74, 127
1, 63969, Note_on_c, 2, 74, 127
1, 64109, Note_off_c, 2, 74, 127
1, 64113, Note_on_c, 4, 76, 127
1, 64113, Note_on_c, 2, 50, 127
1, 64253, Note_off_c, 2, 50, 127
1, 64253, Note_off_c, 4, 76, 127
1, 64257, Note_on_c, 5, 77, 127
1, 64257, Note_on_c, 1, 49, 127
1, 64397, Note_off_c, 1, 49, 127
1, 64397, Note_off_c, 5, 77, 127
1, 64401, Note_on_c, 2, 74, 127
1, 64401, Note_on_c, 2, 50, 127
1, 64541, Note_off_c, 2, 74, 127
1, 64545, Note_on_c, 11, 70, 127
1, 64545, Note_on_c, 2, 38, 127
1, 64578, Note_off_c, 2, 50, 127
1, 64684, Note_off_c, 11, 70, 127
1, 64688, Note_on_c, 10, 69, 127
1, 64811, Note_off_c, 2, 38, 127
1, 64827, Note_off_c, 10, 69, 127
1, 64831, Note_on_c, 11, 70, 127
1, 64831, Note_on_c, 2, 50, 127
1, 64971, Note_off_c, 11, 70, 127
1, 64975, Note_on_c, 2, 74, 127
1, 65098, Note_off_c, 2, 50, 127
1, 65114, Note_off_c, 2, 74, 127
1, 65118, Note_on_c, 2, 74, 127
1, 65258, Note_off_c, 2, 74, 127
1, 65262, Note_on_c, 4, 76, 127
1, 65262, Note_on_c, 2, 50, 127
1, 65402, Note_off_c, 2, 50, 127
1, 65402, Note_off_c, 4, 76, 127
1, 65406, Note_on_c, 5, 77, 127
1, 65406, Note_on_c, 1, 49, 127
1, 65546, Note_off_c, 1, 49, 127
1, 65546, Note_off_c, 5, 77, 127
1, 65550, Note_on_c, 2, 74, 127
1, 65550, Note_on_c, 2, 50, 127
1, 65690, Note_off_c, 2, 74, 127
1, 65694, Note_on_c, 11, 70, 127
1, 65694, Note_on_c, 2, 38, 127
1, 65832, Note_off_c, 2, 50, 127
1, 65834, Note_off_c, 11, 70, 127
1, 65838, Note_on_c, 10, 69, 127
1, 65978, Note_off_c, 10, 69, 127
1, 65982, Note_on_c, 11, 70, 127
1, 65982, Note_on_c, 2, 50, 127
1, 66021, Note_off_c, 2, 38, 127
1, 66121, Note_off_c, 11, 70, 127
1, 66125, Note_on_c, 2, 74, 127
1, 66263, Note_off_c, 2, 50, 127
1, 66265, Note_off_c, 2, 74, 127
1, 66269, Note_on_c, 2, 74, 127
1, 66409, Note_off_c, 2, 74, 127
1, 66413, Note_on_c, 4, 76, 127
1, 66413, Note_on_c, 2, 50, 127
1, 66553, Note_off_c, 2, 50, 127
1, 66553, Note_off_c, 4, 76, 127
1, 66557, Note_on_c, 5, 77, 127
1, 66557, Note_on_c, 1, 49, 127
1, 66697, Note_off_c, 1, 49, 127
1, 66697, Note_off_c, 5, 77, 127
1, 66701, Note_on_c, 2, 74, 127
1, 66701, Note_on_c, 2, 50, 127
1, 66841, Note_off_c, 2, 74, 127
1, 66845, Note_on_c, 11, 70, 127
1, 66845, Note_on_c, 2, 38, 127
1, 66985, Note_off_c, 11, 70, 127
1, 66989, Note_on_c, 10, 69, 127
1, 67118, Note_off_c, 2, 50, 127
1, 67128, Note_off_c, 10, 69, 127
1, 67132, Note_on_c, 11, 70, 127
1, 67132, Note_on_c, 2, 50, 127
1, 67261, Note_off_c, 2, 38, 127
1, 67271, Note_off_c, 11, 70, 127
1, 67275, Note_on_c, 0, 72, 127
1, 67413, Note_off_c, 2, 50, 127
1, 67415, Note_off_c, 0, 72, 127
1, 67419, Note_on_c, 11, 70, 127
1, 67559, Note_off_c, 11, 70, 127
1, 67563, Note_on_c, 10, 69, 127
1, 67563, Note_on_c, 2, 50, 127
1, 67703, Note_off_c, 2, 50, 127
1, 67703, Note_off_c, 10, 69, 127
1, 67707, Note_on_c, 8, 68, 127
1, 67707, Note_on_c, 4, 52, 127
1, 67847, Note_off_c, 4, 52, 127
1, 67847, Note_off_c, 8, 68, 127
1, 67851, Note_on_c, 10, 69, 127
1, 67851, Note_on_c, 5, 53, 127
1, 67991, Note_off_c, 5, 53, 127
1, 67991, Note_off_c, 10, 69, 127
1, 67995, Note_on_c, 8, 68, 127
1, 67995, Note_on_c, 4, 40, 127
1, 68135, Note_off_c, 8, 68, 127
1, 68139, Note_on_c, 10, 69, 127
1, 68279, Note_off_c, 10, 69, 127
1, 68283, Note_on_c, 12, 71, 127
1, 68283, Note_on_c, 4, 52, 127
1, 68352, Note_off_c, 4, 40, 127
1, 68422, Note_off_c, 12, 71, 127
1, 68426, Note_on_c, 10, 69, 127
1, 68564, Note_off_c, 4, 52, 127
1, 68566, Note_off_c, 10, 69, 127
1, 68570, Note_on_c, 8, 68, 127
1, 68710, Note_off_c, 8, 68, 127
1, 68714, Note_on_c, 6, 66, 127
1, 68714, Note_on_c, 4, 52, 127
1, 68854, Note_off_c, 4, 52, 127
1, 68854, Note_off_c, 6, 66, 127
1, 68858, Note_on_c, 4, 64, 127
1, 68858, Note_on_c, 6, 54, 127
1, 68998, Note_off_c, 6, 54, 127
1, 68998, Note_off_c, 4, 64, 127
1, 69002, Note_on_c, 2, 62, 127
1, 69002, Note_on_c, 8, 56, 127
1, 69142, Note_off_c, 8, 56, 127
1, 69142, Note_off_c, 2, 62, 127
1, 69146, Note_on_c, 0, 60, 127
1, 69146, Note_on_c, 10, 57, 127
1, 69286, Note_off_c, 10, 57, 127
1, 69290, Note_on_c, 12, 47, 127
1, 69430, Note_off_c, 12, 47, 127
1, 69434, Note_on_c, 10, 69, 127
1, 69434, Note_on_c, 0, 48, 127
1, 69526, Note_off_c, 0, 60, 127
1, 69574, Note_off_c, 0, 48, 127
1, 69578, Note_on_c, 2, 50, 127
1, 69718, Note_off_c, 2, 50, 127
1, 69722, Note_on_c, 12, 59, 127
1, 69722, Note_on_c, 4, 52, 127
1, 69814, Note_off_c, 10, 69, 127
1, 69862, Note_off_c, 4, 52, 127
1, 69866, Note_on_c, 2, 50, 127
1, 70006, Note_off_c, 2, 50, 127
1, 70010, Note_on_c, 8, 68, 127
1, 70010, Note_on_c, 4, 52, 127
1, 70106, Note_off_c, 12, 59, 127
1, 70150, Note_off_c, 4, 52, 127
1, 70154, Note_on_c, 4, 40, 127
1, 70294, Note_off_c, 4, 40, 127
1, 70294, Note_off_c, 8, 68, 127
1, 70298, Note_on_c, 10, 69, 127
1, 70298, Note_on_c, 0, 60, 127
1, 70298, Note_on_c, 4, 64, 127
1, 70298, Note_on_c, 10, 57, 127
1, 70298, Note_on_c, 10, 45, 127
1, 70582, Note_off_c, 10, 45, 127
1, 70586, Note_on_c, 12, 47, 127
1, 70865, Note_off_c, 10, 57, 127
1, 70865, Note_off_c, 4, 64, 127
1, 70865, Note_off_c, 0, 60, 127
1, 70869, Note_off_c, 12, 47, 127
1, 70873, Note_on_c, 0, 48, 127
1, 71013, Note_off_c, 10, 69, 127
1, 71017, Note_on_c, 10, 69, 127
1, 71157, Note_off_c, 10, 69, 127
1, 71157, Note_off_c, 0, 48, 127
1, 71161, Note_on_c, 0, 72, 127
1, 71161, Note_on_c, 0, 48, 127
1, 71161, Note_on_c, 4, 52, 127
1, 71161, Note_on_c, 10, 45, 127
1, 71301, Note_off_c, 0, 72, 127
1, 71305, Note_on_c, 2, 74, 127
1, 71445, Note_off_c, 2, 74, 127
1, 71445, Note_off_c, 10, 45, 127
1, 71445, Note_off_c, 4, 52, 127
1, 71445, Note_off_c, 0, 48, 127
1, 71449, Note_on_c, 4, 76, 127
1, 71449, Note_on_c, 4, 52, 127
1, 71449, Note_on_c, 12, 47, 127
1, 71449, Note_on_c, 8, 44, 127
1, 71733, Note_off_c, 8, 44, 127
1, 71733, Note_off_c, 12, 47, 127
1, 71733, Note_off_c, 4, 76, 127
1, 71737, Note_on_c, 4, 76, 127
1, 71737, Note_on_c, 10, 69, 127
1, 71737, Note_on_c, 6, 42, 127
1, 71806, Note_off_c, 4, 52, 127
1, 72020, Note_off_c, 6, 42, 127
1, 72020, Note_off_c, 10, 69, 127
1, 72020, Note_off_c, 4, 76, 127
1, 72024, Note_on_c, 12, 71, 127
1, 72024, Note_on_c, 4, 76, 127
1, 72024, Note_on_c, 8, 44, 127
1, 72308, Note_off_c, 8, 44, 127
1, 72308, Note_off_c, 4, 76, 127
1, 72308, Note_off_c, 12, 71, 127
1, 72312, Note_on_c, 8, 68, 127
1, 72312, Note_on_c, 4, 76, 127
1, 72312, Note_on_c, 4, 52, 127
1, 72312, Note_on_c, 12, 47, 127
1, 72312, Note_on_c, 4, 40, 127
1, 72596, Note_off_c, 4, 40, 127
1, 72596, Note_off_c, 12, 47, 127
1, 72596, Note_off_c, 4, 52, 127
1, 72596, Note_off_c, 4, 76, 127
1, 72596, Note_off_c, 8, 68, 127
1, 72600, Note_on_c, 0, 72, 127
1, 72600, Note_on_c, 10, 69, 127
1, 72600, Note_on_c, 10, 45, 127
1, 72600, Note_on_c, 4, 52, 127
1, 72884, Note_off_c, 4, 52, 127
1, 72884, Note_off_c, 10, 45, 127
1, 72884, Note_off_c, 10, 69, 127
1, 72884, Note_off_c, 0, 72, 127
1, 72888, Note_on_c, 10, 69, 127
1, 72888, Note_on_c, 12, 47, 127
1, 73170, Note_off_c, 10, 69, 127
1, 73172, Note_off_c, 12, 47, 127
1, 73176, Note_on_c, 0, 48, 127
1, 73320, Note_on_c, 10, 69, 127
1, 73460, Note_off_c, 10, 69, 127
1, 73460, Note_off_c, 0, 48, 127
1, 73464, Note_on_c, 0, 72, 127
1, 73464, Note_on_c, 10, 45, 127
1, 73464, Note_on_c, 4, 52, 127
1, 73464, Note_on_c, 0, 48, 127
1, 73604, Note_off_c, 0, 72, 127
1, 73608, Note_on_c, 2, 74, 127
1, 73748, Note_off_c, 2, 74, 127
1, 73748, Note_off_c, 0, 48, 127
1, 73748, Note_off_c, 4, 52, 127
1, 73748, Note_off_c, 10, 45, 127
1, 73752, Note_on_c, 4, 76, 127
1, 73752, Note_on_c, 4, 52, 127
1, 73752, Note_on_c, 12, 47, 127
1, 73752, Note_on_c, 8, 44, 127
1, 74036, Note_off_c, 8, 44, 127
1, 74036, Note_off_c, 12, 47, 127
1, 74036, Note_off_c, 4, 76, 127
1, 74040, Note_on_c, 4, 76, 127
1, 74040, Note_on_c, 10, 69, 127
1, 74040, Note_on_c, 6, 42, 127
1, 74109, Note_off_c, 4, 52, 127
1, 74323, Note_off_c, 6, 42, 127
1, 74323, Note_off_c, 10, 69, 127
1, 74323, Note_off_c, 4, 76, 127
1, 74327, Note_on_c, 12, 71, 127
1, 74327, Note_on_c, 4, 76, 127
1, 74327, Note_on_c, 8, 44, 127
1, 74611, Note_off_c, 8, 44, 127
1, 74611, Note_off_c, 4, 76, 127
1, 74611, Note_off_c, 12, 71, 127
1, 74615, Note_on_c, 4, 76, 127
1, 74615, Note_on_c, 8, 68, 127
1, 74615, Note_on_c, 12, 47, 127
1, 74615, Note_on_c, 4, 52, 127
1, 74615, Note_on_c, 4, 40, 127
1, 74899, Note_off_c, 4, 40, 127
1, 74899, Note_off_c, 4, 52, 127
1, 74899, Note_off_c, 12, 47, 127
1, 74899, Note_off_c, 8, 68, 127
1, 74899, Note_off_c, 4, 76, 127
1, 74903, Note_on_c, 0, 72, 127
1, 74903, Note_on_c, 10, 69, 127
1, 74903, Note_on_c, 10, 45, 127
1, 74903, Note_on_c, 4, 52, 127
1, 75043, Note_off_c, 4, 52, 127
1, 75043, Note_off_c, 10, 45, 127
1, 75047, Note_on_c, 10, 57, 127
1, 75187, Note_off_c, 10, 57, 127
1, 75187, Note_off_c, 10, 69, 127
1, 75187, Note_off_c, 0, 72, 127
1, 75191, Note_on_c, 10, 69, 127
1, 75191, Note_on_c, 0, 60, 127
1, 75331, Note_off_c, 0, 60, 127
1, 75335, Note_on_c, 4, 64, 127
1, 75473, Note_off_c, 10, 69, 127
1, 75475, Note_off_c, 4, 64, 127
1, 75479, Note_on_c, 10, 69, 127
1, 75623, Note_on_c, 10, 57, 127
1, 75761, Note_off_c, 10, 69, 127
1, 75763, Note_off_c, 10, 57, 127
1, 75767, Note_on_c, 7, 55, 127
1, 75907, Note_off_c, 7, 55, 127
1, 75911, Note_on_c, 5, 53, 127
1, 76051, Note_off_c, 5, 53, 127
1, 76055, Note_on_c, 0, 72, 127
1, 76055, Note_on_c, 7, 67, 127
1, 76055, Note_on_c, 4, 64, 127
1, 76055, Note_on_c, 0, 60, 127
1, 76055, Note_on_c, 4, 52, 127
1, 76195, Note_off_c, 4, 52, 127
1, 76199, Note_on_c, 0, 48, 127
1, 76339, Note_off_c, 0, 48, 127
1, 76343, Note_on_c, 4, 52, 127
1, 76483, Note_off_c, 4, 52, 127
1, 76487, Note_on_c, 7, 55, 127
1, 76622, Note_off_c, 0, 60, 127
1, 76622, Note_off_c, 4, 64, 127
1, 76622, Note_off_c, 7, 67, 127
1, 76626, Note_off_c, 7, 55, 127
1, 76630, Note_on_c, 0, 60, 127
1, 76770, Note_off_c, 0, 60, 127
1, 76770, Note_off_c, 0, 72, 127
1, 76774, Note_on_c, 0, 72, 127
1, 76774, Note_on_c, 4, 52, 127
1, 76914, Note_off_c, 4, 52, 127
1, 76914, Note_off_c, 0, 72, 127
1, 76918, Note_on_c, 4, 76, 127
1, 76918, Note_on_c, 2, 50, 127
1, 77058, Note_off_c, 2, 50, 127
1, 77058, Note_off_c, 4, 76, 127
1, 77062, Note_on_c, 5, 77, 127
1, 77062, Note_on_c, 0, 48, 127
1, 77202, Note_off_c, 0, 48, 127
1, 77202, Note_off_c, 5, 77, 127
1, 77206, Note_on_c, 7, 79, 127
1, 77206, Note_on_c, 12, 47, 127
1, 77490, Note_off_c, 12, 47, 127
1, 77490, Note_off_c, 7, 79, 127
1, 77494, Note_on_c, 7, 79, 127
1, 77494, Note_on_c, 0, 72, 127
1, 77494, Note_on_c, 10, 45, 127
1, 77778, Note_off_c, 10, 45, 127
1, 77778, Note_off_c, 0, 72, 127
1, 77778, Note_off_c, 7, 79, 127
1, 77782, Note_on_c, 2, 74, 127
1, 77782, Note_on_c, 7, 79, 127
1, 77782, Note_on_c, 12, 47, 127
1, 78066, Note_off_c, 12, 47, 127
1, 78066, Note_off_c, 7, 79, 127
1, 78066, Note_off_c, 2, 74, 127
1, 78070, Note_on_c, 12, 71, 127
1, 78070, Note_on_c, 7, 79, 127
1, 78070, Note_on_c, 7, 55, 127
1, 78070, Note_on_c, 2, 50, 127
1, 78070, Note_on_c, 7, 43, 127
1, 78354, Note_off_c, 7, 43, 127
1, 78354, Note_off_c, 2, 50, 127
1, 78354, Note_off_c, 7, 55, 127
1, 78354, Note_off_c, 7, 79, 127
1, 78354, Note_off_c, 12, 71, 127
1, 78358, Note_on_c, 0, 72, 127
1, 78358, Note_on_c, 4, 76, 127
1, 78358, Note_on_c, 7, 55, 127
1, 78358, Note_on_c, 0, 48, 127
1, 78642, Note_off_c, 0, 48, 127
1, 78642, Note_off_c, 7, 55, 127
1, 78642, Note_off_c, 4, 76, 127
1, 78642, Note_off_c, 0, 72, 127
1, 78646, Note_on_c, 0, 72, 127
1, 78646, Note_on_c, 2, 50, 127
1, 78928, Note_off_c, 0, 72, 127
1, 78930, Note_off_c, 2, 50, 127
1, 78934, Note_on_c, 4, 52, 127
1, 79078, Note_on_c, 0, 72, 127
1, 79218, Note_off_c, 0, 72, 127
1, 79218, Note_off_c, 4, 52, 127
1, 79222, Note_on_c, 4, 76, 127
1, 79222, Note_on_c, 7, 55, 127
1, 79222, Note_on_c, 0, 48, 127
1, 79222, Note_on_c, 4, 52, 127
1, 79362, Note_off_c, 4, 76, 127
1, 79366, Note_on_c, 5, 77, 127
1, 79506, Note_off_c, 5, 77, 127
1, 79506, Note_off_c, 4, 52, 127
1, 79506, Note_off_c, 0, 48, 127
1, 79506, Note_off_c, 7, 55, 127
1, 79510, Note_on_c, 7, 79, 127
1, 79510, Note_on_c, 7, 55, 127
1, 79510, Note_on_c, 12, 47, 127
1, 79510, Note_on_c, 2, 50, 127
1, 79794, Note_off_c, 2, 50, 127
1, 79794, Note_off_c, 12, 47, 127
1, 79794, Note_off_c, 7, 55, 127
1, 79794, Note_off_c, 7, 79, 127
1, 79798, Note_on_c, 0, 72, 127
1, 79798, Note_on_c, 7, 79, 127
1, 79798, Note_on_c, 10, 45, 127
1, 80082, Note_off_c, 10, 45, 127
1, 80082, Note_off_c, 7, 79, 127
1, 80082, Note_off_c, 0, 72, 127
1, 80086, Note_on_c, 7, 79, 127
1, 80086, Note_on_c, 2, 74, 127
1, 80086, Note_on_c, 12, 47, 127
1, 80370, Note_off_c, 12, 47, 127
1, 80370, Note_off_c, 2, 74, 127
1, 80370, Note_off_c, 7, 79, 127
1, 80374, Note_on_c, 12, 71, 127
1, 80374, Note_on_c, 7, 79, 127
1, 80374, Note_on_c, 7, 55, 127
1, 80374, Note_on_c, 2, 50, 127
1, 80374, Note_on_c, 7, 43, 127
1, 80658, Note_off_c, 7, 43, 127
1, 80658, Note_off_c, 2, 50, 127
1, 80658, Note_off_c, 7, 55, 127
1, 80658, Note_off_c, 7, 79, 127
1, 80658, Note_off_c, 12, 71, 127
1, 80662, Note_on_c, 0, 72, 127
1, 80662, Note_on_c, 4, 76, 127
1, 80662, Note_on_c, 0, 48, 127
1, 80662, Note_on_c, 7, 55, 127
1, 80946, Note_off_c, 7, 55, 127
1, 80946, Note_off_c, 0, 48, 127
1, 80946, Note_off_c, 4, 76, 127
1, 80946, Note_off_c, 0, 72, 127
1, 80950, Note_on_c, 0, 72, 127
1, 80950, Note_on_c, 2, 50, 127
1, 81232, Note_off_c, 0, 72, 127
1, 81234, Note_off_c, 2, 50, 127
1, 81238, Note_on_c, 4, 52, 127
1, 81382, Note_on_c, 0, 72, 127
1, 81522, Note_off_c, 0, 72, 127
1, 81522, Note_off_c, 4, 52, 127
1, 81526, Note_on_c, 4, 76, 127
1, 81526, Note_on_c, 0, 48, 127
1, 81526, Note_on_c, 7, 55, 127
1, 81526, Note_on_c, 4, 52, 127
1, 81666, Note_off_c, 4, 76, 127
1, 81670, Note_on_c, 5, 77, 127
1, 81810, Note_off_c, 5, 77, 127
1, 81810, Note_off_c, 4, 52, 127
1, 81810, Note_off_c, 7, 55, 127
1, 81810, Note_off_c, 0, 48, 127
1, 81814, Note_on_c, 7, 79, 127
1, 81814, Note_on_c, 7, 55, 127
1, 81814, Note_on_c, 12, 47, 127
1, 81814, Note_on_c, 2, 50, 127
1, 82098, Note_off_c, 2, 50, 127
1, 82098, Note_off_c, 12, 47, 127
1, 82098, Note_off_c, 7, 55, 127
1, 82098, Note_off_c, 7, 79, 127
1, 82102, Note_on_c, 5, 77, 127
1, 82102, Note_on_c, 0, 48, 127
1, 82102, Note_on_c, 4, 52, 127
1, 82242, Note_off_c, 5, 77, 127
1, 82246, Note_on_c, 4, 76, 127
1, 82386, Note_off_c, 4, 76, 127
1, 82386, Note_off_c, 4, 52, 127
1, 82386, Note_off_c, 0, 48, 127
1, 82390, Note_on_c, 2, 74, 127
1, 82390, Note_on_c, 10, 57, 127
1, 82390, Note_on_c, 5, 53, 127
1, 82674, Note_off_c, 5, 53, 127
1, 82674, Note_off_c, 10, 57, 127
1, 82674, Note_off_c, 2, 74, 127
1, 82678, Note_on_c, 0, 72, 127
1, 82678, Note_on_c, 10, 57, 127
1, 82678, Note_on_c, 2, 50, 127
1, 82678, Note_on_c, 6, 54, 127
1, 82962, Note_off_c, 6, 54, 127
1, 82962, Note_off_c, 2, 50, 127
1, 82962, Note_off_c, 10, 57, 127
1, 82962, Note_off_c, 0, 72, 127
1, 82966, Note_on_c, 12, 71, 127
1, 82966, Note_on_c, 12, 59, 127
1, 82966, Note_on_c, 7, 55, 127
1, 83154, Note_on_c, 10, 69, 127
1, 83166, Note_off_c, 12, 71, 127
1, 83244, Note_off_c, 10, 69, 127
1, 83250, Note_off_c, 7, 55, 127
1, 83250, Note_off_c, 12, 59, 127
1, 83254, Note_on_c, 7, 67, 127
1, 83254, Note_on_c, 10, 57, 127
1, 83254, Note_on_c, 0, 60, 127
1, 83534, Note_off_c, 7, 67, 127
1, 83538, Note_off_c, 0, 60, 127
1, 83538, Note_off_c, 10, 57, 127
1, 83542, Note_on_c, 12, 59, 127
1, 83542, Note_on_c, 2, 62, 127
1, 83686, Note_on_c, 7, 67, 127
1, 83826, Note_off_c, 7, 67, 127
1, 83826, Note_off_c, 2, 62, 127
1, 83826, Note_off_c, 12, 59, 127
1, 83830, Note_on_c, 12, 71, 127
1, 83830, Note_on_c, 12, 59, 127
1, 83830, Note_on_c, 7, 55, 127
1, 83970, Note_off_c, 12, 71, 127
1, 83974, Note_on_c, 0, 72, 127
1, 84114, Note_off_c, 0, 72, 127
1, 84114, Note_off_c, 7, 55, 127
1, 84114, Note_off_c, 12, 59, 127
1, 84118, Note_on_c, 2, 74, 127
1, 84118, Note_on_c, 10, 57, 127
1, 84118, Note_on_c, 6, 54, 127
1, 84258, Note_off_c, 2, 74, 127
1, 84262, Note_on_c, 4, 76, 127
1, 84402, Note_off_c, 4, 76, 127
1, 84402, Note_off_c, 6, 54, 127
1, 84402, Note_off_c, 10, 57, 127
1, 84406, Note_on_c, 2, 74, 127
1, 84406, Note_on_c, 7, 55, 127
1, 84406, Note_on_c, 4, 52, 127
1, 84546, Note_off_c, 2, 74, 127
1, 84550, Note_on_c, 4, 76, 127
1, 84690, Note_off_c, 4, 76, 127
1, 84690, Note_off_c, 4, 52, 127
1, 84690, Note_off_c, 7, 55, 127
1, 84694, Note_on_c, 2, 74, 127
1, 84694, Note_on_c, 10, 57, 127
1, 84694, Note_on_c, 6, 54, 127
1, 84834, Note_off_c, 2, 74, 127
1, 84838, Note_on_c, 4, 76, 127
1, 84978, Note_off_c, 4, 76, 127
1, 84978, Note_off_c, 6, 54, 127
1, 84978, Note_off_c, 10, 57, 127
1, 84982, Note_on_c, 2, 74, 127
1, 84982, Note_on_c, 2, 50, 127
1, 84982, Note_on_c, 6, 54, 127
1, 85122, Note_off_c, 2, 74, 127
1, 85126, Note_on_c, 4, 76, 127
1, 85266, Note_off_c, 4, 76, 127
1, 85266, Note_off_c, 6, 54, 127
1, 85266, Note_off_c, 2, 50, 127
1, 85270, Note_on_c, 2, 74, 127
1, 85270, Note_on_c, 12, 59, 127
1, 85270, Note_on_c, 7, 55, 127
1, 85410, Note_off_c, 2, 74, 127
1, 85414, Note_on_c, 0, 72, 127
1, 85554, Note_off_c, 0, 72, 127
1, 85554, Note_off_c, 7, 55, 127
1, 85554, Note_off_c, 12, 59, 127
1, 85558, Note_on_c, 12, 71, 127
1, 85558, Note_on_c, 10, 57, 127
1, 85558, Note_on_c, 0, 60, 127
1, 85698, Note_off_c, 12, 71, 127
1, 85702, Note_on_c, 10, 69, 127
1, 85842, Note_off_c, 10, 69, 127
1, 85842, Note_off_c, 0, 60, 127
1, 85842, Note_off_c, 10, 57, 127
1, 85846, Note_on_c, 7, 67, 127
1, 85846, Note_on_c, 2, 62, 127
1, 85846, Note_on_c, 12, 59, 127
1, 85986, Note_off_c, 7, 67, 127
1, 85990, Note_on_c, 10, 69, 127
1, 86130, Note_off_c, 10, 69, 127
1, 86130, Note_off_c, 12, 59, 127
1, 86130, Note_off_c, 2, 62, 127
1, 86134, Note_on_c, 12, 71, 127
1, 86134, Note_on_c, 12, 59, 127
1, 86134, Note_on_c, 7, 55, 127
1, 86274, Note_off_c, 12, 71, 127
1, 86278, Note_on_c, 0, 72, 127
1, 86418, Note_off_c, 0, 72, 127
1, 86418, Note_off_c, 7, 55, 127
1, 86418, Note_off_c, 12, 59, 127
1, 86422, Note_on_c, 2, 74, 127
1, 86422, Note_on_c, 10, 57, 127
1, 86422, Note_on_c, 6, 54, 127
1, 86562, Note_off_c, 2, 74, 127
1, 86566, Note_on_c, 4, 76, 127
1, 86706, Note_off_c, 4, 76, 127
1, 86706, Note_off_c, 6, 54, 127
1, 86706, Note_off_c, 10, 57, 127
1, 86710, Note_on_c, 2, 74, 127
1, 86710, Note_on_c, 7, 55, 127
1, 86710, Note_on_c, 4, 52, 127
1, 86850, Note_off_c, 2, 74, 127
1, 86854, Note_on_c, 4, 76, 127
1, 86994, Note_off_c, 4, 76, 127
1, 86994, Note_off_c, 4, 52, 127
1, 86994, Note_off_c, 7, 55, 127
1, 86998, Note_on_c, 2, 74, 127
1, 86998, Note_on_c, 6, 54, 127
1, 86998, Note_on_c, 10, 57, 127
1, 87138, Note_off_c, 2, 74, 127
1, 87142, Note_on_c, 4, 76, 127
1, 87282, Note_off_c, 4, 76, 127
1, 87282, Note_off_c, 10, 57, 127
1, 87282, Note_off_c, 6, 54, 127
1, 87286, Note_on_c, 2, 74, 127
1, 87286, Note_on_c, 2, 50, 127
1, 87286, Note_on_c, 6, 54, 127
1, 87426, Note_off_c, 2, 74, 127
1, 87430, Note_on_c, 4, 76, 127
1, 87570, Note_off_c, 4, 76, 127
1, 87570, Note_off_c, 6, 54, 127
1, 87570, Note_off_c, 2, 50, 127
1, 87574, Note_on_c, 2, 74, 127
1, 87574, Note_on_c, 12, 59, 127
1, 87574, Note_on_c, 7, 55, 127
1, 87714, Note_off_c, 2, 74, 127
1, 87718, Note_on_c, 0, 72, 127
1, 87858, Note_off_c, 0, 72, 127
1, 87858, Note_off_c, 7, 55, 127
1, 87858, Note_off_c, 12, 59, 127
1, 87862, Note_on_c, 12, 71, 127
1, 87862, Note_on_c, 0, 60, 127
1, 87862, Note_on_c, 10, 57, 127
1, 88002, Note_off_c, 12, 71, 127
1, 88006, Note_on_c, 10, 69, 127
1, 88146, Note_off_c, 10, 69, 127
1, 88146, Note_off_c, 10, 57, 127
1, 88146, Note_off_c, 0, 60, 127
1, 88150, Note_on_c, 7, 67, 127
1, 88150, Note_on_c, 12, 59, 127
1, 88150, Note_on_c, 2, 62, 127
1, 88290, Note_off_c, 7, 67, 127
1, 88294, Note_on_c, 10, 69, 127
1, 88434, Note_off_c, 10, 69, 127
1, 88434, Note_off_c, 2, 62, 127
1, 88434, Note_off_c, 12, 59, 127
1, 88438, Note_on_c, 12, 71, 127
1, 88438, Note_on_c, 12, 59, 127
1, 88438, Note_on_c, 7, 55, 127
1, 88578, Note_off_c, 12, 71, 127
1, 88582, Note_on_c, 0, 72, 127
1, 88722, Note_off_c, 0, 72, 127
1, 88722, Note_off_c, 7, 55, 127
1, 88722, Note_off_c, 12, 59, 127
1, 88726, Note_on_c, 2, 74, 127
1, 88726, Note_on_c, 10, 57, 127
1, 88726, Note_on_c, 6, 54, 127
1, 88866, Note_off_c, 2, 74, 127
1, 88870, Note_on_c, 4, 76, 127
1, 89010, Note_off_c, 4, 76, 127
1, 89010, Note_off_c, 6, 54, 127
1, 89010, Note_off_c, 10, 57, 127
1, 89014, Note_on_c, 2, 74, 127
1, 89014, Note_on_c, 4, 52, 127
1, 89014, Note_on_c, 7, 55, 127
1, 89154, Note_off_c, 2, 74, 127
1, 89158, Note_on_c, 4, 76, 127
1, 89298, Note_off_c, 4, 76, 127
1, 89298, Note_off_c, 7, 55, 127
1, 89298, Note_off_c, 4, 52, 127
1, 89302, Note_on_c, 2, 74, 127
1, 89302, Note_on_c, 6, 54, 127
1, 89302, Note_on_c, 10, 57, 127
1, 89442, Note_off_c, 2, 74, 127
1, 89446, Note_on_c, 4, 76, 127
1, 89586, Note_off_c, 4, 76, 127
1, 89586, Note_off_c, 10, 57, 127
1, 89586, Note_off_c, 6, 54, 127
1, 89590, Note_on_c, 2, 74, 127
1, 89590, Note_on_c, 6, 54, 127
1, 89590, Note_on_c, 2, 50, 127
1, 89730, Note_off_c, 2, 74, 127
1, 89734, Note_on_c, 4, 76, 127
1, 89874, Note_off_c, 4, 76, 127
1, 89874, Note_off_c, 2, 50, 127
1, 89874, Note_off_c, 6, 54, 127
1, 89878, Note_on_c, 2, 74, 127
1, 89878, Note_on_c, 12, 59, 127
1, 89878, Note_on_c, 7, 55, 127
1, 90162, Note_off_c, 7, 55, 127
1, 90162, Note_off_c, 12, 59, 127
1, 90162, Note_off_c, 2, 74, 127
1, 90166, Note_on_c, 7, 67, 127
1, 90166, Note_on_c, 10, 57, 127
1, 90166, Note_on_c, 0, 60, 127
1, 90448, Note_off_c, 7, 67, 127
1, 90450, Note_off_c, 0, 60, 127
1, 90450, Note_off_c, 10, 57, 127
1, 90454, Note_on_c, 2, 62, 127
1, 90454, Note_on_c, 12, 59, 127
1, 90598, Note_on_c, 12, 71, 127
1, 90738, Note_off_c, 12, 71, 127
1, 90738, Note_off_c, 12, 59, 127
1, 90738, Note_off_c, 2, 62, 127
1, 90742, Note_on_c, 0, 72, 127
1, 90742, Note_on_c, 10, 57, 127
1, 90742, Note_on_c, 0, 60, 127
1, 90882, Note_off_c, 0, 72, 127
1, 90886, Note_on_c, 2, 74, 127
1, 91026, Note_off_c, 2, 74, 127
1, 91026, Note_off_c, 0, 60, 127
1, 91026, Note_off_c, 10, 57, 127
1, 91030, Note_on_c, 4, 76, 127
1, 91030, Note_on_c, 8, 56, 127
1, 91030, Note_on_c, 12, 59, 127
1, 91170, Note_off_c, 4, 76, 127
1, 91174, Note_on_c, 5, 77, 127
1, 91314, Note_off_c, 5, 77, 127
1, 91314, Note_off_c, 12, 59, 127
1, 91314, Note_off_c, 8, 56, 127
1, 91318, Note_on_c, 4, 76, 127
1, 91318, Note_on_c, 10, 57, 127
1, 91318, Note_on_c, 6, 54, 127
1, 91458, Note_off_c, 4, 76, 127
1, 91462, Note_on_c, 5, 77, 127
1, 91602, Note_off_c, 5, 77, 127
1, 91602, Note_off_c, 6, 54, 127
1, 91602, Note_off_c, 10, 57, 127
1, 91606, Note_on_c, 4, 76, 127
1, 91606, Note_on_c, 12, 59, 127
1, 91606, Note_on_c, 8, 56, 127
1, 91746, Note_off_c, 4, 76, 127
1, 91750, Note_on_c, 5, 77, 127
1, 91890, Note_off_c, 5, 77, 127
1, 91890, Note_off_c, 8, 56, 127
1, 91890, Note_off_c, 12, 59, 127
1, 91894, Note_on_c, 4, 76, 127
1, 91894, Note_on_c, 4, 52, 127
1, 91894, Note_on_c, 8, 56, 127
1, 92034, Note_off_c, 4, 76, 127
1, 92038, Note_on_c, 5, 77, 127
1, 92178, Note_off_c, 5, 77, 127
1, 92178, Note_off_c, 8, 56, 127
1, 92178, Note_off_c, 4, 52, 127
1, 92182, Note_on_c, 4, 76, 127
1, 92182, Note_on_c, 0, 60, 127
1, 92182, Note_on_c, 10, 57, 127
1, 92322, Note_off_c, 4, 76, 127
1, 92326, Note_on_c, 2, 74, 127
1, 92466, Note_off_c, 2, 74, 127
1, 92466, Note_off_c, 10, 57, 127
1, 92466, Note_off_c, 0, 60, 127
1, 92470, Note_on_c, 0, 72, 127
1, 92470, Note_on_c, 2, 62, 127
1, 92470, Note_on_c, 12, 59, 127
1, 92610, Note_off_c, 0, 72, 127
1, 92614, Note_on_c, 12, 71, 127
1, 92754, Note_off_c, 12, 71, 127
1, 92754, Note_off_c, 12, 59, 127
1, 92754, Note_off_c, 2, 62, 127
1, 92758, Note_on_c, 10, 69, 127
1, 92758, Note_on_c, 4, 64, 127
1, 92758, Note_on_c, 0, 60, 127
1, 92898, Note_off_c, 10, 69, 127
1, 92902, Note_on_c, 12, 71, 127
1, 93042, Note_off_c, 12, 71, 127
1, 93042, Note_off_c, 0, 60, 127
1, 93042, Note_off_c, 4, 64, 127
1, 93046, Note_on_c, 0, 72, 127
1, 93046, Note_on_c, 10, 57, 127
1, 93046, Note_on_c, 0, 60, 127
1, 93186, Note_off_c, 0, 72, 127
1, 93190, Note_on_c, 2, 74, 127
1, 93330, Note_off_c, 2, 74, 127
1, 93330, Note_off_c, 0, 60, 127
1, 93330, Note_off_c, 10, 57, 127
1, 93334, Note_on_c, 4, 76, 127
1, 93334, Note_on_c, 12, 59, 127
1, 93334, Note_on_c, 8, 56, 127
1, 93474, Note_off_c, 4, 76, 127
1, 93478, Note_on_c, 5, 77, 127
1, 93618, Note_off_c, 5, 77, 127
1, 93618, Note_off_c, 8, 56, 127
1, 93618, Note_off_c, 12, 59, 127
1, 93622, Note_on_c, 4, 76, 127
1, 93622, Note_on_c, 10, 57, 127
1, 93622, Note_on_c, 6, 54, 127
1, 93762, Note_off_c, 4, 76, 127
1, 93766, Note_on_c, 5, 77, 127
1, 93906, Note_off_c, 5, 77, 127
1, 93906, Note_off_c, 6, 54, 127
1, 93906, Note_off_c, 10, 57, 127
1, 93910, Note_on_c, 4, 76, 127
1, 93910, Note_on_c, 12, 59, 127
1, 93910, Note_on_c, 8, 56, 127
1, 94050, Note_off_c, 4, 76, 127
1, 94054, Note_on_c, 5, 77, 127
1, 94194, Note_off_c, 5, 77, 127
1, 94194, Note_off_c, 8, 56, 127
1, 94194, Note_off_c, 12, 59, 127
1, 94198, Note_on_c, 4, 76, 127
1, 94198, Note_on_c, 4, 52, 127
1, 94198, Note_on_c, 8, 56, 127
1, 94338, Note_off_c, 4, 76, 127
1, 94342, Note_on_c, 5, 77, 127
1, 94482, Note_off_c, 5, 77, 127
1, 94482, Note_off_c, 8, 56, 127
1, 94482, Note_off_c, 4, 52, 127
1, 94486, Note_on_c, 4, 76, 127
1, 94486, Note_on_c, 0, 60, 127
1, 94486, Note_on_c, 10, 57, 127
1, 94626, Note_off_c, 4, 76, 127
1, 94630, Note_on_c, 2, 74, 127
1, 94770, Note_off_c, 2, 74, 127
1, 94770, Note_off_c, 10, 57, 127
1, 94770, Note_off_c, 0, 60, 127
1, 94774, Note_on_c, 0, 72, 127
1, 94774, Note_on_c, 2, 62, 127
1, 94774, Note_on_c, 12, 59, 127
1, 94914, Note_off_c, 0, 72, 127
1, 94918, Note_on_c, 12, 71, 127
1, 95058, Note_off_c, 12, 71, 127
1, 95058, Note_off_c, 12, 59, 127
1, 95058, Note_off_c, 2, 62, 127
1, 95062, Note_on_c, 10, 69, 127
1, 95062, Note_on_c, 4, 64, 127
1, 95062, Note_on_c, 0, 60, 127
1, 95202, Note_off_c, 10, 69, 127
1, 95206, Note_on_c, 12, 71, 127
1, 95346, Note_off_c, 12, 71, 127
1, 95346, Note_off_c, 0, 60, 127
1, 95346, Note_off_c, 4, 64, 127
1, 95350, Note_on_c, 0, 72, 127
1, 95350, Note_on_c, 10, 57, 127
1, 95350, Note_on_c, 0, 60, 127
1, 95490, Note_off_c, 0, 72, 127
1, 95494, Note_on_c, 2, 74, 127
1, 95634, Note_off_c, 2, 74, 127
1, 95634, Note_off_c, 0, 60, 127
1, 95634, Note_off_c, 10, 57, 127
1, 95638, Note_on_c, 4, 76, 127
1, 95638, Note_on_c, 12, 59, 127
1, 95638, Note_on_c, 8, 56, 127
1, 95778, Note_off_c, 4, 76, 127
1, 95782, Note_on_c, 5, 77, 127
1, 95922, Note_off_c, 5, 77, 127
1, 95922, Note_off_c, 8, 56, 127
1, 95922, Note_off_c, 12, 59, 127
1, 95926, Note_on_c, 4, 76, 127
1, 95926, Note_on_c, 10, 57, 127
1, 95926, Note_on_c, 6, 54, 127
1, 96066, Note_off_c, 4, 76, 127
1, 96070, Note_on_c, 5, 77, 127
1, 96210, Note_off_c, 5, 77, 127
1, 96210, Note_off_c, 6, 54, 127
1, 96210, Note_off_c, 10, 57, 127
1, 96214, Note_on_c, 4, 76, 127
1, 96214, Note_on_c, 12, 59, 127
1, 96214, Note_on_c, 8, 56, 127
1, 96354, Note_off_c, 4, 76, 127
1, 96358, Note_on_c, 5, 77, 127
1, 96498, Note_off_c, 5, 77, 127
1, 96498, Note_off_c, 8, 56, 127
1, 96498, Note_off_c, 12, 59, 127
1, 96502, Note_on_c, 4, 76, 127
1, 96502, Note_on_c, 4, 52, 127
1, 96502, Note_on_c, 8, 56, 127
1, 96642, Note_off_c, 4, 76, 127
1, 96646, Note_on_c, 5, 77, 127
1, 96786, Note_off_c, 5, 77, 127
1, 96786, Note_off_c, 8, 56, 127
1, 96786, Note_off_c, 4, 52, 127
1, 96790, Note_on_c, 4, 76, 127
1, 96790, Note_on_c, 0, 60, 127
1, 96790, Note_on_c, 10, 57, 127
1, 96930, Note_off_c, 10, 57, 127
1, 96930, Note_off_c, 0, 60, 127
1, 96934, Note_on_c, 12, 59, 127
1, 97074, Note_off_c, 12, 59, 127
1, 97074, Note_off_c, 4, 76, 127
1, 97078, Note_on_c, 10, 69, 127
1, 97078, Note_on_c, 0, 60, 127
1, 97218, Note_off_c, 0, 60, 127
1, 97222, Note_on_c, 12, 59, 127
1, 97291, Note_off_c, 10, 69, 127
1, 97361, Note_off_c, 12, 59, 127
1, 97365, Note_on_c, 10, 57, 127
1, 97505, Note_off_c, 10, 57, 127
1, 97509, Note_on_c, 0, 72, 127
1, 97509, Note_on_c, 7, 55, 127
1, 97649, Note_off_c, 7, 55, 127
1, 97649, Note_off_c, 0, 72, 127
1, 97653, Note_on_c, 2, 74, 127
1, 97653, Note_on_c, 5, 53, 127
1, 97793, Note_off_c, 5, 53, 127
1, 97793, Note_off_c, 2, 74, 127
1, 97797, Note_on_c, 4, 76, 127
1, 97797, Note_on_c, 4, 52, 127
1, 97937, Note_off_c, 4, 52, 127
1, 97937, Note_off_c, 4, 76, 127
1, 97941, Note_on_c, 5, 77, 127
1, 97941, Note_on_c, 2, 50, 127
1, 98081, Note_off_c, 2, 50, 127
1, 98081, Note_off_c, 5, 77, 127
1, 98085, Note_on_c, 4, 76, 127
1, 98085, Note_on_c, 10, 57, 127
1, 98225, Note_off_c, 10, 57, 127
1, 98225, Note_off_c, 4, 76, 127
1, 98229, Note_on_c, 2, 74, 127
1, 98229, Note_on_c, 12, 59, 127
1, 98369, Note_off_c, 12, 59, 127
1, 98369, Note_off_c, 2, 74, 127
1, 98373, Note_on_c, 0, 72, 127
1, 98373, Note_on_c, 0, 60, 127
1, 98513, Note_off_c, 0, 60, 127
1, 98513, Note_off_c, 0, 72, 127
1, 98517, Note_on_c, 12, 71, 127
1, 98517, Note_on_c, 2, 62, 127
1, 98657, Note_off_c, 2, 62, 127
1, 98657, Note_off_c, 12, 71, 127
1, 98661, Note_on_c, 2, 74, 127
1, 98661, Note_on_c, 12, 59, 127
1, 98801, Note_off_c, 12, 59, 127
1, 98801, Note_off_c, 2, 74, 127
1, 98805, Note_on_c, 4, 76, 127
1, 98805, Note_on_c, 0, 60, 127
1, 98945, Note_off_c, 0, 60, 127
1, 98945, Note_off_c, 4, 76, 127
1, 98949, Note_on_c, 5, 77, 127
1, 98949, Note_on_c, 2, 62, 127
1, 99089, Note_off_c, 2, 62, 127
1, 99089, Note_off_c, 5, 77, 127
1, 99093, Note_on_c, 7, 79, 127
1, 99093, Note_on_c, 4, 64, 127
1, 99233, Note_off_c, 4, 64, 127
1, 99233, Note_off_c, 7, 79, 127
1, 99237, Note_on_c, 5, 77, 127
1, 99237, Note_on_c, 5, 65, 127
1, 99377, Note_off_c, 5, 65, 127
1, 99377, Note_off_c, 5, 77, 127
1, 99381, Note_on_c, 4, 76, 127
1, 99381, Note_on_c, 7, 67, 127
1, 99521, Note_off_c, 7, 67, 127
1, 99521, Note_off_c, 4, 76, 127
1, 99525, Note_on_c, 2, 74, 127
1, 99525, Note_on_c, 5, 65, 127
1, 99665, Note_off_c, 5, 65, 127
1, 99665, Note_off_c, 2, 74, 127
1, 99669, Note_on_c, 0, 72, 127
1, 99669, Note_on_c, 4, 64, 127
1, 99809, Note_off_c, 4, 64, 127
1, 99809, Note_off_c, 0, 72, 127
1, 99813, Note_on_c, 4, 76, 127
1, 99813, Note_on_c, 0, 60, 127
1, 99953, Note_off_c, 0, 60, 127
1, 99953, Note_off_c, 4, 76, 127
1, 99957, Note_on_c, 5, 77, 127
1, 99957, Note_on_c, 2, 62, 127
1, 100097, Note_off_c, 2, 62, 127
1, 100097, Note_off_c, 5, 77, 127
1, 100101, Note_on_c, 7, 79, 127
1, 100101, Note_on_c, 4, 64, 127
1, 100241, Note_off_c, 4, 64, 127
1, 100241, Note_off_c, 7, 79, 127
1, 100245, Note_on_c, 10, 81, 127
1, 100245, Note_on_c, 5, 65, 127
1, 100385, Note_off_c, 5, 65, 127
1, 100385, Note_off_c, 10, 81, 127
1, 100389, Note_on_c, 7, 79, 127
1, 100389, Note_on_c, 4, 64, 127
1, 100529, Note_off_c, 4, 64, 127
1, 100529, Note_off_c, 7, 79, 127
1, 100533, Note_on_c, 10, 81, 127
1, 100533, Note_on_c, 5, 65, 127
1, 100673, Note_off_c, 5, 65, 127
1, 100673, Note_off_c, 10, 81, 127
1, 100677, Note_on_c, 5, 77, 127
1, 100677, Note_on_c, 7, 67, 127
1, 100817, Note_off_c, 7, 67, 127
1, 100817, Note_off_c, 5, 77, 127
1, 100821, Note_on_c, 12, 83, 127
1, 100821, Note_on_c, 5, 65, 127
1, 100961, Note_off_c, 5, 65, 127
1, 100961, Note_off_c, 12, 83, 127
1, 100965, Note_on_c, 10, 81, 127
1, 100965, Note_on_c, 10, 69, 127
1, 101105, Note_off_c, 10, 69, 127
1, 101105, Note_off_c, 10, 81, 127
1, 101109, Note_on_c, 12, 83, 127
1, 101109, Note_on_c, 7, 67, 127
1, 101249, Note_off_c, 7, 67, 127
1, 101249, Note_off_c, 12, 83, 127
1, 101253, Note_on_c, 7, 79, 127
1, 101253, Note_on_c, 5, 65, 127
1, 101393, Note_off_c, 5, 65, 127
1, 101393, Note_off_c, 7, 79, 127
1, 101397, Note_on_c, 0, 84, 127
1, 101397, Note_on_c, 4, 64, 127
1, 101537, Note_off_c, 4, 64, 127
1, 101541, Note_on_c, 7, 79, 127
1, 101541, Note_on_c, 5, 65, 127
1, 101681, Note_off_c, 5, 65, 127
1, 101681, Note_off_c, 7, 79, 127
1, 101685, Note_on_c, 4, 76, 127
1, 101685, Note_on_c, 7, 67, 127
1, 101814, Note_off_c, 0, 84, 127
1, 101824, Note_off_c, 7, 67, 127
1, 101824, Note_off_c, 4, 76, 127
1, 101828, Note_on_c, 0, 72, 127
1, 101828, Note_on_c, 5, 65, 127
1, 101960, Note_off_c, 0, 72, 127
1, 101968, Note_off_c, 5, 65, 127
1, 101972, Note_on_c, 4, 64, 127
1, 102112, Note_off_c, 4, 64, 127
1, 102116, Note_on_c, 0, 72, 127
1, 102116, Note_on_c, 2, 62, 127
1, 102256, Note_off_c, 2, 62, 127
1, 102256, Note_off_c, 0, 72, 127
1, 102260, Note_on_c, 4, 76, 127
1, 102260, Note_on_c, 0, 60, 127
1, 102400, Note_off_c, 0, 60, 127
1, 102400, Note_off_c, 4, 76, 127
1, 102404, Note_on_c, 0, 72, 127
1, 102404, Note_on_c, 12, 59, 127
1, 102544, Note_off_c, 12, 59, 127
1, 102544, Note_off_c, 0, 72, 127
1, 102548, Note_on_c, 5, 77, 127
1, 102548, Note_on_c, 10, 57, 127
1, 102692, Note_on_c, 5, 65, 127
1, 102830, Note_off_c, 5, 77, 127
1, 102832, Note_off_c, 5, 65, 127
1, 102836, Note_on_c, 10, 69, 127
1, 102976, Note_off_c, 10, 69, 127
1, 102980, Note_on_c, 5, 65, 127
1, 103120, Note_off_c, 5, 65, 127
1, 103124, Note_on_c, 0, 72, 127
1, 103268, Note_on_c, 0, 60, 127
1, 103406, Note_off_c, 0, 72, 127
1, 103408, Note_off_c, 0, 60, 127
1, 103412, Note_on_c, 4, 64, 127
1, 103552, Note_off_c, 4, 64, 127
1, 103556, Note_on_c, 0, 60, 127
1, 103696, Note_off_c, 0, 60, 127
1, 103696, Note_off_c, 10, 57, 127
1, 103700, Note_on_c, 5, 65, 127
1, 103844, Note_on_c, 5, 53, 127
1, 103982, Note_off_c, 5, 65, 127
1, 103984, Note_off_c, 5, 53, 127
1, 103988, Note_on_c, 10, 57, 127
1, 104128, Note_off_c, 10, 57, 127
1, 104132, Note_on_c, 5, 53, 127
1, 104272, Note_off_c, 5, 53, 127
1, 104276, Note_on_c, 0, 60, 127
1, 104416, Note_off_c, 0, 60, 127
1, 104420, Note_on_c, 4, 64, 127
1, 104560, Note_off_c, 4, 64, 127
1, 104564, Note_on_c, 2, 62, 127
1, 104704, Note_off_c, 2, 62, 127
1, 104708, Note_on_c, 0, 60, 127
1, 104848, Note_off_c, 0, 60, 127
1, 104852, Note_on_c, 5, 65, 127
1, 104992, Note_off_c, 5, 65, 127
1, 104996, Note_on_c, 10, 69, 127
1, 105136, Note_off_c, 10, 69, 127
1, 105140, Note_on_c, 7, 67, 127
1, 105280, Note_off_c, 7, 67, 127
1, 105284, Note_on_c, 5, 65, 127
1, 105424, Note_off_c, 5, 65, 127
1, 105428, Note_on_c, 0, 72, 127
1, 105568, Note_off_c, 0, 72, 127
1, 105572, Note_on_c, 4, 76, 127
1, 105712, Note_off_c, 4, 76, 127
1, 105720, Note_on_c, 2, 74, 127
1, 105860, Note_off_c, 2, 74, 127
1, 105868, Note_on_c, 0, 72, 127
1, 106008, Note_off_c, 0, 72, 127
1, 106020, Note_on_c, 10, 57, 127
1, 106020, Note_on_c, 5, 77, 127
1, 106160, Note_off_c, 5, 77, 127
1, 106164, Note_on_c, 0, 72, 127
1, 106304, Note_off_c, 0, 72, 127
1, 106304, Note_off_c, 10, 57, 127
1, 106308, Note_on_c, 5, 65, 127
1, 106308, Note_on_c, 10, 69, 127
1, 106448, Note_off_c, 10, 69, 127
1, 106452, Note_on_c, 0, 72, 127
1, 106592, Note_off_c, 0, 72, 127
1, 106592, Note_off_c, 5, 65, 127
1, 106596, Note_on_c, 10, 69, 127
1, 106596, Note_on_c, 5, 77, 127
1, 106736, Note_off_c, 5, 77, 127
1, 106740, Note_on_c, 3, 75, 127
1, 106880, Note_off_c, 3, 75, 127
1, 106880, Note_off_c, 10, 69, 127
1, 106884, Note_on_c, 5, 65, 127
1, 106884, Note_on_c, 2, 74, 127
1, 107024, Note_off_c, 2, 74, 127
1, 107028, Note_on_c, 0, 72, 127
1, 107168, Note_off_c, 0, 72, 127
1, 107168, Note_off_c, 5, 65, 127
1, 107172, Note_on_c, 11, 58, 127
1, 107172, Note_on_c, 2, 74, 127
1, 107312, Note_off_c, 2, 74, 127
1, 107316, Note_on_c, 11, 70, 127
1, 107456, Note_off_c, 11, 70, 127
1, 107460, Note_on_c, 5, 65, 127
1, 107600, Note_off_c, 5, 65, 127
1, 107604, Note_on_c, 11, 70, 127
1, 107739, Note_off_c, 11, 58, 127
1, 107743, Note_off_c, 11, 70, 127
1, 107747, Note_on_c, 2, 74, 127
1, 107887, Note_off_c, 2, 74, 127
1, 107891, Note_on_c, 0, 72, 127
1, 108031, Note_off_c, 0, 72, 127
1, 108035, Note_on_c, 11, 70, 127
1, 108175, Note_off_c, 11, 70, 127
1, 108179, Note_on_c, 10, 69, 127
1, 108319, Note_off_c, 10, 69, 127
1, 108323, Note_on_c, 4, 52, 127
1, 108323, Note_on_c, 7, 67, 127
1, 108463, Note_off_c, 7, 67, 127
1, 108467, Note_on_c, 5, 65, 127
1, 108607, Note_off_c, 5, 65, 127
1, 108607, Note_off_c, 4, 52, 127
1, 108611, Note_on_c, 7, 55, 127
1, 108611, Note_on_c, 4, 64, 127
1, 108751, Note_off_c, 4, 64, 127
1, 108755, Note_on_c, 7, 67, 127
1, 108895, Note_off_c, 7, 67, 127
1, 108895, Note_off_c, 7, 55, 127
1, 108899, Note_on_c, 4, 52, 127
1, 108899, Note_on_c, 0, 72, 127
1, 109039, Note_off_c, 0, 72, 127
1, 109043, Note_on_c, 11, 70, 127
1, 109183, Note_off_c, 11, 70, 127
1, 109183, Note_off_c, 4, 52, 127
1, 109187, Note_on_c, 0, 48, 127
1, 109187, Note_on_c, 10, 69, 127
1, 109327, Note_off_c, 10, 69, 127
1, 109331, Note_on_c, 7, 67, 127
1, 109471, Note_off_c, 7, 67, 127
1, 109471, Note_off_c, 0, 48, 127
1, 109475, Note_on_c, 5, 53, 127
1, 109475, Note_on_c, 10, 69, 127
1, 109615, Note_off_c, 10, 69, 127
1, 109619, Note_on_c, 5, 65, 127
1, 109759, Note_off_c, 5, 65, 127
1, 109763, Note_on_c, 0, 60, 127
1, 109903, Note_off_c, 0, 60, 127
1, 109907, Note_on_c, 5, 65, 127
1, 110042, Note_off_c, 5, 53, 127
1, 110046, Note_off_c, 5, 65, 127
1, 110050, Note_on_c, 10, 69, 127
1, 110190, Note_off_c, 10, 69, 127
1, 110194, Note_on_c, 7, 67, 127
1, 110334, Note_off_c, 7, 67, 127
1, 110338, Note_on_c, 5, 65, 127
1, 110478, Note_off_c, 5, 65, 127
1, 110482, Note_on_c, 4, 64, 127
1, 110622, Note_off_c, 4, 64, 127
1, 110626, Note_on_c, 12, 47, 127
1, 110626, Note_on_c, 2, 62, 127
1, 110766, Note_off_c, 2, 62, 127
1, 110770, Note_on_c, 7, 55, 127
1, 110910, Note_off_c, 7, 55, 127
1, 110910, Note_off_c, 12, 47, 127
1, 110914, Note_on_c, 2, 50, 127
1, 110914, Note_on_c, 12, 59, 127
1, 111054, Note_off_c, 12, 59, 127
1, 111058, Note_on_c, 2, 62, 127
1, 111198, Note_off_c, 2, 62, 127
1, 111198, Note_off_c, 2, 50, 127
1, 111202, Note_on_c, 12, 47, 127
1, 111202, Note_on_c, 5, 65, 127
1, 111342, Note_off_c, 5, 65, 127
1, 111346, Note_on_c, 10, 69, 127
1, 111486, Note_off_c, 10, 69, 127
1, 111486, Note_off_c, 12, 47, 127
1, 111490, Note_on_c, 7, 43, 127
1, 111490, Note_on_c, 7, 67, 127
1, 111630, Note_off_c, 7, 67, 127
1, 111634, Note_on_c, 5, 65, 127
1, 111774, Note_off_c, 5, 65, 127
1, 111774, Note_off_c, 7, 43, 127
1, 111778, Note_on_c, 0, 48, 127
1, 111778, Note_on_c, 4, 64, 127
1, 111918, Note_off_c, 4, 64, 127
1, 111922, Note_on_c, 2, 62, 127
1, 112062, Note_off_c, 2, 62, 127
1, 112066, Note_on_c, 0, 60, 127
1, 112206, Note_off_c, 0, 60, 127
1, 112210, Note_on_c, 7, 67, 127
1, 112345, Note_off_c, 0, 48, 127
1, 112349, Note_off_c, 7, 67, 127
1, 112353, Note_on_c, 0, 72, 127
1, 112493, Note_off_c, 0, 72, 127
1, 112497, Note_on_c, 7, 67, 127
1, 112637, Note_off_c, 7, 67, 127
1, 112641, Note_on_c, 10, 69, 127
1, 112781, Note_off_c, 10, 69, 127
1, 112785, Note_on_c, 12, 71, 127
1, 112925, Note_off_c, 12, 71, 127
1, 112929, Note_on_c, 6, 54, 127
1, 112929, Note_on_c, 0, 72, 127
1, 113073, Note_on_c, 2, 62, 127
1, 113213, Note_off_c, 2, 62, 127
1, 113213, Note_off_c, 6, 54, 127
1, 113217, Note_on_c, 10, 57, 127
1, 113217, Note_on_c, 6, 66, 127
1, 113346, Note_off_c, 0, 72, 127
1, 113356, Note_off_c, 6, 66, 127
1, 113360, Note_on_c, 10, 69, 127
1, 113500, Note_off_c, 10, 69, 127
1, 113500, Note_off_c, 10, 57, 127
1, 113504, Note_on_c, 6, 54, 127
1, 113504, Note_on_c, 0, 72, 127
1, 113644, Note_off_c, 0, 72, 127
1, 113648, Note_on_c, 4, 76, 127
1, 113788, Note_off_c, 4, 76, 127
1, 113788, Note_off_c, 6, 54, 127
1, 113792, Note_on_c, 2, 50, 127
1, 113792, Note_on_c, 2, 74, 127
1, 113932, Note_off_c, 2, 74, 127
1, 113936, Note_on_c, 0, 72, 127
1, 114076, Note_off_c, 0, 72, 127
1, 114076, Note_off_c, 2, 50, 127
1, 114080, Note_on_c, 7, 55, 127
1, 114080, Note_on_c, 12, 71, 127
1, 114220, Note_off_c, 12, 71, 127
1, 114224, Note_on_c, 10, 69, 127
1, 114364, Note_off_c, 10, 69, 127
1, 114368, Note_on_c, 10, 57, 127
1, 114368, Note_on_c, 7, 67, 127
1, 114508, Note_off_c, 7, 67, 127
1, 114512, Note_on_c, 12, 71, 127
1, 114652, Note_off_c, 12, 71, 127
1, 114652, Note_off_c, 10, 57, 127
1, 114656, Note_on_c, 12, 59, 127
1, 114656, Note_on_c, 2, 74, 127
1, 114796, Note_off_c, 2, 74, 127
1, 114800, Note_on_c, 5, 77, 127
1, 114940, Note_off_c, 5, 77, 127
1, 114940, Note_off_c, 12, 59, 127
1, 114944, Note_on_c, 0, 60, 127
1, 114944, Note_on_c, 7, 79, 127
1, 115084, Note_off_c, 7, 79, 127
1, 115088, Note_on_c, 5, 77, 127
1, 115228, Note_off_c, 5, 77, 127
1, 115228, Note_off_c, 0, 60, 127
1, 115232, Note_on_c, 2, 62, 127
1, 115232, Note_on_c, 12, 71, 127
1, 115376, Note_on_c, 5, 77, 127
1, 115406, Note_off_c, 12, 71, 127
1, 115516, Note_off_c, 2, 62, 127
1, 115520, Note_on_c, 0, 60, 127
1, 115520, Note_on_c, 10, 69, 127
1, 115558, Note_off_c, 5, 77, 127
1, 115664, Note_on_c, 5, 77, 127
1, 115694, Note_off_c, 10, 69, 127
1, 115804, Note_off_c, 0, 60, 127
1, 115808, Note_on_c, 12, 59, 127
1, 115808, Note_on_c, 7, 67, 127
1, 115846, Note_off_c, 5, 77, 127
1, 115952, Note_on_c, 5, 77, 127
1, 115982, Note_off_c, 7, 67, 127
1, 116092, Note_off_c, 12, 59, 127
1, 116096, Note_on_c, 0, 60, 127
1, 116096, Note_on_c, 10, 69, 127
1, 116134, Note_off_c, 5, 77, 127
1, 116240, Note_on_c, 5, 77, 127
1, 116270, Note_off_c, 10, 69, 127
1, 116380, Note_off_c, 0, 60, 127
1, 116384, Note_on_c, 2, 62, 127
1, 116384, Note_on_c, 12, 71, 127
1, 116422, Note_off_c, 5, 77, 127
1, 116528, Note_on_c, 5, 77, 127
1, 116558, Note_off_c, 12, 71, 127
1, 116668, Note_off_c, 2, 62, 127
1, 116672, Note_on_c, 0, 60, 127
1, 116672, Note_on_c, 10, 69, 127
1, 116710, Note_off_c, 5, 77, 127
1, 116816, Note_on_c, 5, 77, 127
1, 116846, Note_off_c, 10, 69, 127
1, 116956, Note_off_c, 0, 60, 127
1, 116960, Note_on_c, 12, 59, 127
1, 116960, Note_on_c, 7, 67, 127
1, 116998, Note_off_c, 5, 77, 127
1, 117104, Note_on_c, 5, 77, 127
1, 117134, Note_off_c, 7, 67, 127
1, 117244, Note_off_c, 12, 59, 127
1, 117248, Note_on_c, 0, 60, 127
1, 117248, Note_on_c, 10, 69, 127
1, 117286, Note_off_c, 5, 77, 127
1, 117392, Note_on_c, 5, 77, 127
1, 117422, Note_off_c, 10, 69, 127
1, 117532, Note_off_c, 0, 60, 127
1, 117536, Note_on_c, 2, 62, 127
1, 117536, Note_on_c, 12, 71, 127
1, 117574, Note_off_c, 5, 77, 127
1, 117680, Note_on_c, 5, 77, 127
1, 117710, Note_off_c, 12, 71, 127
1, 117820, Note_off_c, 2, 62, 127
1, 117824, Note_on_c, 0, 60, 127
1, 117824, Note_on_c, 10, 69, 127
1, 117862, Note_off_c, 5, 77, 127
1, 117968, Note_on_c, 5, 77, 127
1, 117998, Note_off_c, 10, 69, 127
1, 118108, Note_off_c, 0, 60, 127
1, 118112, Note_on_c, 12, 59, 127
1, 118112, Note_on_c, 7, 67, 127
1, 118150, Note_off_c, 5, 77, 127
1, 118256, Note_on_c, 5, 77, 127
1, 118286, Note_off_c, 7, 67, 127
1, 118396, Note_off_c, 12, 59, 127
1, 118400, Note_on_c, 0, 60, 127
1, 118400, Note_on_c, 10, 69, 127
1, 118438, Note_off_c, 5, 77, 127
1, 118544, Note_on_c, 5, 77, 127
1, 118574, Note_off_c, 10, 69, 127
1, 118684, Note_off_c, 0, 60, 127
1, 118688, Note_on_c, 2, 62, 127
1, 118688, Note_on_c, 12, 71, 127
1, 118726, Note_off_c, 5, 77, 127
1, 118832, Note_on_c, 5, 77, 127
1, 118862, Note_off_c, 12, 71, 127
1, 118972, Note_off_c, 2, 62, 127
1, 118976, Note_on_c, 0, 60, 127
1, 118976, Note_on_c, 10, 69, 127
1, 119014, Note_off_c, 5, 77, 127
1, 119120, Note_on_c, 5, 77, 127
1, 119150, Note_off_c, 10, 69, 127
1, 119260, Note_off_c, 0, 60, 127
1, 119264, Note_on_c, 2, 62, 127
1, 119264, Note_on_c, 12, 71, 127
1, 119302, Note_off_c, 5, 77, 127
1, 119408, Note_on_c, 5, 77, 127
1, 119438, Note_off_c, 12, 71, 127
1, 119548, Note_off_c, 2, 62, 127
1, 119552, Note_on_c, 12, 59, 127
1, 119552, Note_on_c, 7, 67, 127
1, 119590, Note_off_c, 5, 77, 127
1, 119696, Note_on_c, 5, 77, 127
1, 119726, Note_off_c, 7, 67, 127
1, 119830, Note_off_c, 7, 55, 127
1, 119836, Note_off_c, 5, 77, 127
1, 119836, Note_off_c, 12, 59, 127
1, 119840, Note_on_c, 0, 60, 127
1, 119840, Note_on_c, 4, 76, 127
1, 119984, Note_on_c, 0, 72, 127
1, 120017, Note_off_c, 4, 76, 127
1, 120123, Note_off_c, 0, 60, 127
1, 120127, Note_on_c, 7, 55, 127
1, 120127, Note_on_c, 12, 71, 127
1, 120167, Note_off_c, 0, 72, 127
1, 120271, Note_on_c, 0, 72, 127
1, 120304, Note_off_c, 12, 71, 127
1, 120415, Note_on_c, 4, 52, 127
1, 120415, Note_on_c, 7, 67, 127
1, 120455, Note_off_c, 0, 72, 127
1, 120559, Note_on_c, 0, 72, 127
1, 120592, Note_off_c, 7, 67, 127
1, 120698, Note_off_c, 4, 52, 127
1, 120702, Note_on_c, 2, 50, 127
1, 120702, Note_on_c, 5, 65, 127
1, 120742, Note_off_c, 0, 72, 127
1, 120846, Note_on_c, 0, 72, 127
1, 120879, Note_off_c, 5, 65, 127
1, 120985, Note_off_c, 2, 50, 127
1, 120989, Note_on_c, 0, 48, 127
1, 120989, Note_on_c, 4, 64, 127
1, 121029, Note_off_c, 0, 72, 127
1, 121133, Note_on_c, 0, 72, 127
1, 121166, Note_off_c, 4, 64, 127
1, 121272, Note_off_c, 7, 55, 127
1, 121276, Note_on_c, 5, 53, 127
1, 121276, Note_on_c, 2, 62, 127
1, 121316, Note_off_c, 0, 72, 127
1, 121420, Note_on_c, 0, 72, 127
1, 121453, Note_off_c, 2, 62, 127
1, 121559, Note_off_c, 5, 53, 127
1, 121563, Note_on_c, 4, 52, 127
1, 121563, Note_on_c, 0, 60, 127
1, 121603, Note_off_c, 0, 72, 127
1, 121707, Note_on_c, 0, 72, 127
1, 121740, Note_off_c, 0, 60, 127
1, 121846, Note_off_c, 4, 52, 127
1, 121850, Note_on_c, 5, 53, 127
1, 121850, Note_on_c, 2, 62, 127
1, 121890, Note_off_c, 0, 72, 127
1, 121994, Note_on_c, 0, 72, 127
1, 122027, Note_off_c, 2, 62, 127
1, 122133, Note_off_c, 5, 53, 127
1, 122137, Note_on_c, 7, 55, 127
1, 122137, Note_on_c, 4, 64, 127
1, 122177, Note_off_c, 0, 72, 127
1, 122281, Note_on_c, 0, 72, 127
1, 122314, Note_off_c, 4, 64, 127
1, 122420, Note_off_c, 7, 55, 127
1, 122424, Note_on_c, 5, 53, 127
1, 122424, Note_on_c, 2, 62, 127
1, 122464, Note_off_c, 0, 72, 127
1, 122568, Note_on_c, 0, 72, 127
1, 122601, Note_off_c, 2, 62, 127
1, 122707, Note_off_c, 5, 53, 127
1, 122711, Note_on_c, 4, 52, 127
1, 122711, Note_on_c, 0, 60, 127
1, 122751, Note_off_c, 0, 72, 127
1, 122855, Note_on_c, 0, 72, 127
1, 122888, Note_off_c, 0, 60, 127
1, 122994, Note_off_c, 4, 52, 127
1, 122998, Note_on_c, 5, 53, 127
1, 122998, Note_on_c, 2, 62, 127
1, 123038, Note_off_c, 0, 72, 127
1, 123142, Note_on_c, 0, 72, 127
1, 123175, Note_off_c, 2, 62, 127
1, 123281, Note_off_c, 5, 53, 127
1, 123285, Note_on_c, 7, 55, 127
1, 123285, Note_on_c, 4, 64, 127
1, 123325, Note_off_c, 0, 72, 127
1, 123429, Note_on_c, 0, 72, 127
1, 123462, Note_off_c, 4, 64, 127
1, 123568, Note_off_c, 7, 55, 127
1, 123572, Note_on_c, 5, 53, 127
1, 123572, Note_on_c, 2, 62, 127
1, 123612, Note_off_c, 0, 72, 127
1, 123716, Note_on_c, 0, 72, 127
1, 123749, Note_off_c, 2, 62, 127
1, 123855, Note_off_c, 5, 53, 127
1, 123859, Note_on_c, 4, 52, 127
1, 123859, Note_on_c, 0, 60, 127
1, 123899, Note_off_c, 0, 72, 127
1, 124003, Note_on_c, 0, 72, 127
1, 124036, Note_off_c, 0, 60, 127
1, 124142, Note_off_c, 4, 52, 127
1, 124146, Note_on_c, 5, 53, 127
1, 124146, Note_on_c, 2, 62, 127
1, 124186, Note_off_c, 0, 72, 127
1, 124290, Note_on_c, 0, 72, 127
1, 124323, Note_off_c, 2, 62, 127
1, 124429, Note_off_c, 5, 53, 127
1, 124433, Note_on_c, 7, 55, 127
1, 124433, Note_on_c, 4, 64, 127
1, 124473, Note_off_c, 0, 72, 127
1, 124577, Note_on_c, 0, 72, 127
1, 124610, Note_off_c, 4, 64, 127
1, 124716, Note_off_c, 7, 55, 127
1, 124720, Note_on_c, 5, 53, 127
1, 124720, Note_on_c, 2, 62, 127
1, 124760, Note_off_c, 0, 72, 127
1, 124864, Note_on_c, 0, 72, 127
1, 124897, Note_off_c, 2, 62, 127
1, 125003, Note_off_c, 5, 53, 127
1, 125007, Note_on_c, 7, 55, 127
1, 125007, Note_on_c, 4, 64, 127
1, 125047, Note_off_c, 0, 72, 127
1, 125151, Note_on_c, 0, 72, 127
1, 125184, Note_off_c, 4, 64, 127
1, 125290, Note_off_c, 7, 55, 127
1, 125294, Note_on_c, 4, 52, 127
1, 125294, Note_on_c, 0, 60, 127
1, 125334, Note_off_c, 0, 72, 127
1, 125438, Note_on_c, 11, 70, 127
1, 125471, Note_off_c, 0, 60, 127
1, 125576, Note_off_c, 11, 70, 127
1, 125578, Note_off_c, 4, 52, 127
1, 125582, Note_on_c, 5, 53, 127
1, 125582, Note_on_c, 10, 69, 127
1, 125586, Note_off_c, 0, 48, 127
1, 125726, Note_on_c, 5, 77, 127
1, 125766, Note_off_c, 10, 69, 127
1, 125865, Note_off_c, 5, 53, 127
1, 125869, Note_on_c, 11, 58, 127
1, 125869, Note_on_c, 7, 55, 127
1, 125869, Note_on_c, 4, 76, 127
1, 125917, Note_off_c, 5, 77, 127
1, 126013, Note_on_c, 5, 77, 127
1, 126053, Note_off_c, 4, 76, 127
1, 126152, Note_off_c, 7, 55, 127
1, 126152, Note_off_c, 11, 58, 127
1, 126156, Note_on_c, 10, 57, 127
1, 126156, Note_on_c, 0, 60, 127
1, 126156, Note_on_c, 0, 72, 127
1, 126204, Note_off_c, 5, 77, 127
1, 126300, Note_on_c, 5, 77, 127
1, 126340, Note_off_c, 0, 72, 127
1, 126439, Note_off_c, 10, 57, 127
1, 126443, Note_on_c, 7, 55, 127
1, 126443, Note_on_c, 11, 70, 127
1, 126491, Note_off_c, 5, 77, 127
1, 126587, Note_on_c, 5, 77, 127
1, 126627, Note_off_c, 11, 70, 127
1, 126726, Note_off_c, 7, 55, 127
1, 126730, Note_on_c, 5, 53, 127
1, 126730, Note_on_c, 10, 69, 127
1, 126778, Note_off_c, 5, 77, 127
1, 126874, Note_on_c, 5, 77, 127
1, 126914, Note_off_c, 10, 69, 127
1, 127013, Note_off_c, 0, 60, 127
1, 127017, Note_on_c, 11, 58, 127
1, 127017, Note_on_c, 7, 67, 127
1, 127065, Note_off_c, 5, 77, 127
1, 127161, Note_on_c, 5, 77, 127
1, 127201, Note_off_c, 7, 67, 127
1, 127300, Note_off_c, 11, 58, 127
1, 127304, Note_on_c, 10, 57, 127
1, 127304, Note_on_c, 5, 65, 127
1, 127352, Note_off_c, 5, 77, 127
1, 127448, Note_on_c, 5, 77, 127
1, 127488, Note_off_c, 5, 65, 127
1, 127587, Note_off_c, 10, 57, 127
1, 127591, Note_on_c, 11, 58, 127
1, 127591, Note_on_c, 7, 67, 127
1, 127639, Note_off_c, 5, 77, 127
1, 127735, Note_on_c, 5, 77, 127
1, 127775, Note_off_c, 7, 67, 127
1, 127874, Note_off_c, 11, 58, 127
1, 127878, Note_on_c, 0, 60, 127
1, 127878, Note_on_c, 10, 69, 127
1, 127926, Note_off_c, 5, 77, 127
1, 128022, Note_on_c, 5, 77, 127
1, 128062, Note_off_c, 10, 69, 127
1, 128161, Note_off_c, 0, 60, 127
1, 128165, Note_on_c, 11, 58, 127
1, 128165, Note_on_c, 7, 67, 127
1, 128213, Note_off_c, 5, 77, 127
1, 128309, Note_on_c, 5, 77, 127
1, 128349, Note_off_c, 7, 67, 127
1, 128448, Note_off_c, 11, 58, 127
1, 128452, Note_on_c, 10, 57, 127
1, 128452, Note_on_c, 5, 65, 127
1, 128500, Note_off_c, 5, 77, 127
1, 128596, Note_on_c, 5, 77, 127
1, 128636, Note_off_c, 5, 65, 127
1, 128735, Note_off_c, 10, 57, 127
1, 128739, Note_on_c, 11, 58, 127
1, 128739, Note_on_c, 7, 67, 127
1, 128787, Note_off_c, 5, 77, 127
1, 128883, Note_on_c, 5, 77, 127
1, 128923, Note_off_c, 7, 67, 127
1, 129022, Note_off_c, 11, 58, 127
1, 129026, Note_on_c, 0, 60, 127
1, 129026, Note_on_c, 10, 69, 127
1, 129074, Note_off_c, 5, 77, 127
1, 129170, Note_on_c, 5, 77, 127
1, 129210, Note_off_c, 10, 69, 127
1, 129309, Note_off_c, 0, 60, 127
1, 129313, Note_on_c, 11, 58, 127
1, 129313, Note_on_c, 7, 67, 127
1, 129361, Note_off_c, 5, 77, 127
1, 129457, Note_on_c, 5, 77, 127
1, 129497, Note_off_c, 7, 67, 127
1, 129596, Note_off_c, 11, 58, 127
1, 129600, Note_on_c, 10, 57, 127
1, 129600, Note_on_c, 5, 65, 127
1, 129648, Note_off_c, 5, 77, 127
1, 129744, Note_on_c, 5, 77, 127
1, 129784, Note_off_c, 5, 65, 127
1, 129883, Note_off_c, 10, 57, 127
1, 129887, Note_on_c, 11, 58, 127
1, 129887, Note_on_c, 7, 67, 127
1, 129935, Note_off_c, 5, 77, 127
1, 130031, Note_on_c, 5, 77, 127
1, 130071, Note_off_c, 7, 67, 127
1, 130170, Note_off_c, 11, 58, 127
1, 130174, Note_on_c, 0, 60, 127
1, 130174, Note_on_c, 10, 69, 127
1, 130222, Note_off_c, 5, 77, 127
1, 130318, Note_on_c, 5, 77, 127
1, 130358, Note_off_c, 10, 69, 127
1, 130457, Note_off_c, 0, 60, 127
1, 130461, Note_on_c, 11, 58, 127
1, 130461, Note_on_c, 7, 67, 127
1, 130509, Note_off_c, 5, 77, 127
1, 130605, Note_on_c, 5, 77, 127
1, 130645, Note_off_c, 7, 67, 127
1, 130744, Note_off_c, 11, 58, 127
1, 130748, Note_on_c, 0, 60, 127
1, 130748, Note_on_c, 10, 69, 127
1, 130796, Note_off_c, 5, 77, 127
1, 130892, Note_on_c, 5, 77, 127
1, 130932, Note_off_c, 10, 69, 127
1, 131031, Note_off_c, 0, 60, 127
1, 131035, Note_on_c, 10, 57, 127
1, 131035, Note_on_c, 5, 65, 127
1, 131083, Note_off_c, 5, 77, 127
1, 131179, Note_on_c, 3, 75, 127
1, 131219, Note_off_c, 5, 65, 127
1, 131318, Note_off_c, 3, 75, 127
1, 131318, Note_off_c, 10, 57, 127
1, 131322, Note_on_c, 11, 58, 127
1, 131322, Note_on_c, 11, 70, 127
1, 131326, Note_off_c, 5, 53, 127
1, 131466, Note_on_c, 2, 74, 127
1, 131492, Note_off_c, 11, 70, 127
1, 131610, Note_on_c, 0, 60, 127
1, 131610, Note_on_c, 10, 69, 127
1, 131636, Note_off_c, 2, 74, 127
1, 131754, Note_on_c, 0, 72, 127
1, 131780, Note_off_c, 10, 69, 127
1, 131894, Note_off_c, 0, 60, 127
1, 131898, Note_on_c, 2, 62, 127
1, 131898, Note_on_c, 11, 70, 127
1, 131924, Note_off_c, 0, 72, 127
1, 132042, Note_on_c, 2, 74, 127
1, 132068, Note_off_c, 11, 70, 127
1, 132182, Note_off_c, 2, 62, 127
1, 132186, Note_on_c, 3, 63, 127
1, 132186, Note_on_c, 10, 69, 127
1, 132212, Note_off_c, 2, 74, 127
1, 132330, Note_on_c, 0, 72, 127
1, 132356, Note_off_c, 10, 69, 127
1, 132470, Note_off_c, 3, 63, 127
1, 132474, Note_on_c, 5, 65, 127
1, 132474, Note_on_c, 11, 70, 127
1, 132500, Note_off_c, 0, 72, 127
1, 132618, Note_on_c, 2, 74, 127
1, 132644, Note_off_c, 11, 70, 127
1, 132758, Note_off_c, 5, 65, 127
1, 132762, Note_on_c, 3, 63, 127
1, 132762, Note_on_c, 10, 69, 127
1, 132788, Note_off_c, 2, 74, 127
1, 132906, Note_on_c, 0, 72, 127
1, 132932, Note_off_c, 10, 69, 127
1, 133046, Note_off_c, 3, 63, 127
1, 133050, Note_on_c, 5, 65, 127
1, 133050, Note_on_c, 11, 70, 127
1, 133076, Note_off_c, 0, 72, 127
1, 133194, Note_on_c, 2, 74, 127
1, 133220, Note_off_c, 11, 70, 127
1, 133334, Note_off_c, 5, 65, 127
1, 133338, Note_on_c, 3, 63, 127
1, 133338, Note_on_c, 10, 69, 127
1, 133364, Note_off_c, 2, 74, 127
1, 133482, Note_on_c, 0, 72, 127
1, 133508, Note_off_c, 10, 69, 127
1, 133622, Note_off_c, 3, 63, 127
1, 133626, Note_on_c, 2, 62, 127
1, 133626, Note_on_c, 11, 70, 127
1, 133652, Note_off_c, 0, 72, 127
1, 133770, Note_on_c, 5, 65, 127
1, 133796, Note_off_c, 11, 70, 127
1, 133910, Note_off_c, 2, 62, 127
1, 133914, Note_on_c, 3, 63, 127
1, 133914, Note_on_c, 11, 70, 127
1, 134058, Note_on_c, 2, 74, 127
1, 134084, Note_off_c, 11, 70, 127
1, 134188, Note_off_c, 5, 65, 127
1, 134198, Note_off_c, 3, 63, 127
1, 134202, Note_on_c, 2, 62, 127
1, 134202, Note_on_c, 5, 77, 127
1, 134228, Note_off_c, 2, 74, 127
1, 134346, Note_on_c, 5, 65, 127
1, 134372, Note_off_c, 5, 77, 127
1, 134486, Note_off_c, 2, 62, 127
1, 134490, Note_on_c, 0, 60, 127
1, 134490, Note_on_c, 11, 70, 127
1, 134634, Note_on_c, 2, 74, 127
1, 134660, Note_off_c, 11, 70, 127
1, 134764, Note_off_c, 5, 65, 127
1, 134774, Note_off_c, 0, 60, 127
1, 134778, Note_on_c, 2, 62, 127
1, 134778, Note_on_c, 5, 77, 127
1, 134804, Note_off_c, 2, 74, 127
1, 134922, Note_on_c, 5, 65, 127
1, 134948, Note_off_c, 5, 77, 127
1, 135066, Note_on_c, 0, 60, 127
1, 135066, Note_on_c, 11, 70, 127
1, 135069, Note_off_c, 11, 58, 127
1, 135210, Note_on_c, 2, 74, 127
1, 135236, Note_off_c, 11, 70, 127
1, 135340, Note_off_c, 5, 65, 127
1, 135350, Note_off_c, 0, 60, 127
1, 135354, Note_on_c, 11, 58, 127
1, 135354, Note_on_c, 5, 77, 127
1, 135380, Note_off_c, 2, 74, 127
1, 135498, Note_on_c, 2, 74, 127
1, 135524, Note_off_c, 5, 77, 127
1, 135638, Note_off_c, 11, 58, 127
1, 135642, Note_on_c, 8, 56, 127
1, 135642, Note_on_c, 3, 75, 127
1, 135668, Note_off_c, 2, 74, 127
1, 135786, Note_on_c, 0, 72, 127
1, 135812, Note_off_c, 3, 75, 127
1, 135926, Note_off_c, 0, 72, 127
1, 135926, Note_off_c, 8, 56, 127
1, 135930, Note_on_c, 7, 55, 127
1, 135930, Note_on_c, 12, 71, 127
1, 136074, Note_on_c, 7, 79, 127
1, 136137, Note_off_c, 12, 71, 127
1, 136215, Note_off_c, 2, 62, 127
1, 136218, Note_on_c, 0, 60, 127
1, 136218, Note_on_c, 10, 69, 127
1, 136281, Note_off_c, 7, 79, 127
1, 136362, Note_on_c, 7, 79, 127
1, 136425, Note_off_c, 10, 69, 127
1, 136501, Note_off_c, 0, 60, 127
1, 136505, Note_on_c, 12, 59, 127
1, 136505, Note_on_c, 7, 67, 127
1, 136568, Note_off_c, 7, 79, 127
1, 136649, Note_on_c, 7, 79, 127
1, 136712, Note_off_c, 7, 67, 127
1, 136788, Note_off_c, 12, 59, 127
1, 136792, Note_on_c, 0, 60, 127
1, 136792, Note_on_c, 10, 69, 127
1, 136855, Note_off_c, 7, 79, 127
1, 136936, Note_on_c, 7, 79, 127
1, 136999, Note_off_c, 10, 69, 127
1, 137075, Note_off_c, 0, 60, 127
1, 137079, Note_on_c, 2, 62, 127
1, 137079, Note_on_c, 12, 71, 127
1, 137142, Note_off_c, 7, 79, 127
1, 137223, Note_on_c, 7, 79, 127
1, 137286, Note_off_c, 12, 71, 127
1, 137362, Note_off_c, 2, 62, 127
1, 137366, Note_on_c, 0, 60, 127
1, 137366, Note_on_c, 10, 69, 127
1, 137429, Note_off_c, 7, 79, 127
1, 137510, Note_on_c, 7, 79, 127
1, 137573, Note_off_c, 10, 69, 127
1, 137649, Note_off_c, 0, 60, 127
1, 137653, Note_on_c, 12, 59, 127
1, 137653, Note_on_c, 7, 67, 127
1, 137716, Note_off_c, 7, 79, 127
1, 137797, Note_on_c, 7, 79, 127
1, 137860, Note_off_c, 7, 67, 127
1, 137936, Note_off_c, 12, 59, 127
1, 137940, Note_on_c, 0, 60, 127
1, 137940, Note_on_c, 10, 69, 127
1, 138003, Note_off_c, 7, 79, 127
1, 138084, Note_on_c, 7, 79, 127
1, 138147, Note_off_c, 10, 69, 127
1, 138223, Note_off_c, 0, 60, 127
1, 138227, Note_on_c, 2, 62, 127
1, 138227, Note_on_c, 12, 71, 127
1, 138290, Note_off_c, 7, 79, 127
1, 138371, Note_on_c, 7, 79, 127
1, 138434, Note_off_c, 12, 71, 127
1, 138510, Note_off_c, 2, 62, 127
1, 138514, Note_on_c, 0, 60, 127
1, 138514, Note_on_c, 10, 69, 127
1, 138577, Note_off_c, 7, 79, 127
1, 138658, Note_on_c, 7, 79, 127
1, 138721, Note_off_c, 10, 69, 127
1, 138797, Note_off_c, 0, 60, 127
1, 138801, Note_on_c, 12, 59, 127
1, 138801, Note_on_c, 7, 67, 127
1, 138864, Note_off_c, 7, 79, 127
1, 138945, Note_on_c, 7, 79, 127
1, 139008, Note_off_c, 7, 67, 127
1, 139084, Note_off_c, 12, 59, 127
1, 139088, Note_on_c, 0, 60, 127
1, 139088, Note_on_c, 10, 69, 127
1, 139151, Note_off_c, 7, 79, 127
1, 139232, Note_on_c, 7, 79, 127
1, 139295, Note_off_c, 10, 69, 127
1, 139371, Note_off_c, 0, 60, 127
1, 139375, Note_on_c, 2, 62, 127
1, 139375, Note_on_c, 12, 71, 127
1, 139438, Note_off_c, 7, 79, 127
1, 139519, Note_on_c, 7, 79, 127
1, 139582, Note_off_c, 12, 71, 127
1, 139658, Note_off_c, 2, 62, 127
1, 139662, Note_on_c, 0, 60, 127
1, 139662, Note_on_c, 10, 69, 127
1, 139725, Note_off_c, 7, 79, 127
1, 139806, Note_on_c, 7, 79, 127
1, 139869, Note_off_c, 10, 69, 127
1, 139945, Note_off_c, 0, 60, 127
1, 139949, Note_on_c, 2, 62, 127
1, 139949, Note_on_c, 12, 71, 127
1, 140012, Note_off_c, 7, 79, 127
1, 140093, Note_on_c, 7, 79, 127
1, 140156, Note_off_c, 12, 71, 127
1, 140232, Note_off_c, 2, 62, 127
1, 140236, Note_on_c, 12, 59, 127
1, 140236, Note_on_c, 7, 67, 127
1, 140299, Note_off_c, 7, 79, 127
1, 140380, Note_on_c, 5, 77, 127
1, 140443, Note_off_c, 7, 67, 127
1, 140519, Note_off_c, 5, 77, 127
1, 140519, Note_off_c, 12, 59, 127
1, 140523, Note_on_c, 0, 48, 127
1, 140523, Note_on_c, 0, 60, 127
1, 140523, Note_on_c, 0, 72, 127
1, 140667, Note_on_c, 4, 76, 127
1, 140697, Note_off_c, 0, 72, 127
1, 140797, Note_off_c, 7, 55, 127
1, 140806, Note_off_c, 0, 60, 127
1, 140810, Note_on_c, 5, 53, 127
1, 140810, Note_on_c, 12, 59, 127
1, 140810, Note_on_c, 2, 74, 127
1, 140840, Note_off_c, 4, 76, 127
1, 140954, Note_on_c, 4, 76, 127
1, 140984, Note_off_c, 2, 74, 127
1, 141094, Note_off_c, 12, 59, 127
1, 141094, Note_off_c, 5, 53, 127
1, 141098, Note_on_c, 0, 60, 127
1, 141098, Note_on_c, 7, 55, 127
1, 141098, Note_on_c, 0, 72, 127
1, 141128, Note_off_c, 4, 76, 127
1, 141242, Note_on_c, 4, 76, 127
1, 141272, Note_off_c, 0, 72, 127
1, 141382, Note_off_c, 7, 55, 127
1, 141386, Note_on_c, 10, 57, 127
1, 141386, Note_on_c, 0, 72, 127
1, 141416, Note_off_c, 4, 76, 127
1, 141530, Note_on_c, 5, 77, 127
1, 141560, Note_off_c, 0, 72, 127
1, 141670, Note_off_c, 10, 57, 127
1, 141674, Note_on_c, 7, 55, 127
1, 141674, Note_on_c, 0, 72, 127
1, 141704, Note_off_c, 5, 77, 127
1, 141818, Note_on_c, 4, 76, 127
1, 141848, Note_off_c, 0, 72, 127
1, 141958, Note_off_c, 7, 55, 127
1, 141958, Note_off_c, 0, 60, 127
1, 141962, Note_on_c, 5, 53, 127
1, 141962, Note_on_c, 12, 59, 127
1, 141962, Note_on_c, 2, 74, 127
1, 141992, Note_off_c, 4, 76, 127
1, 142106, Note_on_c, 4, 76, 127
1, 142136, Note_off_c, 2, 74, 127
1, 142246, Note_off_c, 12, 59, 127
1, 142246, Note_off_c, 5, 53, 127
1, 142250, Note_on_c, 7, 55, 127
1, 142250, Note_on_c, 0, 60, 127
1, 142250, Note_on_c, 0, 72, 127
1, 142280, Note_off_c, 4, 76, 127
1, 142394, Note_on_c, 4, 76, 127
1, 142424, Note_off_c, 0, 72, 127
1, 142534, Note_off_c, 7, 55, 127
1, 142538, Note_on_c, 10, 57, 127
1, 142538, Note_on_c, 0, 72, 127
1, 142568, Note_off_c, 4, 76, 127
1, 142682, Note_on_c, 5, 77, 127
1, 142712, Note_off_c, 0, 72, 127
1, 142822, Note_off_c, 10, 57, 127
1, 142826, Note_on_c, 7, 55, 127
1, 142826, Note_on_c, 7, 67, 127
1, 142826, Note_on_c, 0, 72, 127
1, 142856, Note_off_c, 5, 77, 127
1, 142970, Note_on_c, 3, 75, 127
1, 143000, Note_off_c, 0, 72, 127
1, 143110, Note_off_c, 7, 67, 127
1, 143110, Note_off_c, 7, 55, 127
1, 143110, Note_off_c, 0, 60, 127
1, 143114, Note_on_c, 8, 56, 127
1, 143114, Note_on_c, 12, 59, 127
1, 143114, Note_on_c, 5, 65, 127
1, 143114, Note_on_c, 0, 72, 127
1, 143144, Note_off_c, 3, 75, 127
1, 143258, Note_on_c, 2, 74, 127
1, 143288, Note_off_c, 0, 72, 127
1, 143398, Note_off_c, 5, 65, 127
1, 143398, Note_off_c, 12, 59, 127
1, 143398, Note_off_c, 8, 56, 127
1, 143402, Note_on_c, 7, 67, 127
1, 143402, Note_on_c, 0, 60, 127
1, 143402, Note_on_c, 7, 55, 127
1, 143402, Note_on_c, 0, 72, 127
1, 143432, Note_off_c, 2, 74, 127
1, 143546, Note_on_c, 3, 75, 127
1, 143576, Note_off_c, 0, 72, 127
1, 143686, Note_off_c, 7, 55, 127
1, 143686, Note_off_c, 7, 67, 127
1, 143690, Note_on_c, 5, 53, 127
1, 143690, Note_on_c, 8, 68, 127
1, 143690, Note_on_c, 0, 72, 127
1, 143720, Note_off_c, 3, 75, 127
1, 143834, Note_on_c, 5, 77, 127
1, 143864, Note_off_c, 0, 72, 127
1, 143974, Note_off_c, 8, 68, 127
1, 143974, Note_off_c, 5, 53, 127
1, 143978, Note_on_c, 7, 67, 127
1, 143978, Note_on_c, 7, 55, 127
1, 143978, Note_on_c, 0, 72, 127
1, 144008, Note_off_c, 5, 77, 127
1, 144122, Note_on_c, 3, 75, 127
1, 144152, Note_off_c, 0, 72, 127
1, 144262, Note_off_c, 7, 55, 127
1, 144262, Note_off_c, 7, 67, 127
1, 144262, Note_off_c, 0, 60, 127
1, 144266, Note_on_c, 8, 56, 127
1, 144266, Note_on_c, 12, 59, 127
1, 144266, Note_on_c, 5, 65, 127
1, 144266, Note_on_c, 0, 72, 127
1, 144296, Note_off_c, 3, 75, 127
1, 144410, Note_on_c, 2, 74, 127
1, 144440, Note_off_c, 0, 72, 127
1, 144550, Note_off_c, 5, 65, 127
1, 144550, Note_off_c, 12, 59, 127
1, 144550, Note_off_c, 8, 56, 127
1, 144554, Note_on_c, 7, 55, 127
1, 144554, Note_on_c, 0, 60, 127
1, 144554, Note_on_c, 7, 67, 127
1, 144554, Note_on_c, 0, 72, 127
1, 144584, Note_off_c, 2, 74, 127
1, 144702, Note_on_c, 3, 75, 127
1, 144728, Note_off_c, 0, 72, 127
1, 144838, Note_off_c, 7, 67, 127
1, 144838, Note_off_c, 0, 60, 127
1, 144851, Note_on_c, 11, 58, 127
1, 144851, Note_on_c, 0, 72, 127
1, 144851, Note_on_c, 7, 67, 127
1, 144876, Note_off_c, 3, 75, 127
1, 144983, Note_off_c, 0, 72, 127
1, 145008, Note_on_c, 0, 72, 127
1, 145121, Note_off_c, 7, 55, 127
1, 145133, Note_off_c, 0, 48, 127
1, 145134, Note_off_c, 7, 67, 127
1, 145134, Note_off_c, 11, 58, 127
1, 145145, Note_on_c, 10, 57, 127
1, 145145, Note_on_c, 2, 50, 127
1, 145145, Note_on_c, 6, 66, 127
1, 145183, Note_off_c, 0, 72, 127
1, 145289, Note_on_c, 0, 72, 127
1, 145427, Note_off_c, 6, 66, 127
1, 145429, Note_off_c, 0, 72, 127
1, 145429, Note_off_c, 10, 57, 127
1, 145433, Note_on_c, 6, 54, 127
1, 145433, Note_on_c, 10, 69, 127
1, 145573, Note_off_c, 10, 69, 127
1, 145577, Note_on_c, 0, 72, 127
1, 145712, Note_off_c, 2, 50, 127
1, 145716, Note_off_c, 0, 72, 127
1, 145720, Note_on_c, 2, 50, 127
1, 145720, Note_on_c, 6, 66, 127
1, 145860, Note_off_c, 6, 66, 127
1, 145864, Note_on_c, 0, 72, 127
1, 145999, Note_off_c, 6, 54, 127
1, 146003, Note_off_c, 0, 72, 127
1, 146007, Note_on_c, 6, 54, 127
1, 146007, Note_on_c, 10, 69, 127
1, 146147, Note_off_c, 10, 69, 127
1, 146151, Note_on_c, 0, 72, 127
1, 146291, Note_off_c, 0, 72, 127
1, 146291, Note_off_c, 6, 54, 127
1, 146295, Note_on_c, 10, 57, 127
1, 146295, Note_on_c, 6, 66, 127
1, 146435, Note_off_c, 6, 66, 127
1, 146439, Note_on_c, 0, 72, 127
1, 146579, Note_off_c, 0, 72, 127
1, 146579, Note_off_c, 10, 57, 127
1, 146583, Note_on_c, 6, 54, 127
1, 146583, Note_on_c, 10, 69, 127
1, 146723, Note_off_c, 10, 69, 127
1, 146727, Note_on_c, 0, 72, 127
1, 146867, Note_off_c, 0, 72, 127
1, 146867, Note_off_c, 6, 54, 127
1, 146867, Note_off_c, 2, 50, 127
1, 146871, Note_on_c, 2, 50, 127
1, 146871, Note_on_c, 6, 66, 127
1, 147011, Note_off_c, 6, 66, 127
1, 147015, Note_on_c, 0, 72, 127
1, 147155, Note_off_c, 0, 72, 127
1, 147159, Note_on_c, 4, 52, 127
1, 147159, Note_on_c, 10, 69, 127
1, 147299, Note_off_c, 10, 69, 127
1, 147303, Note_on_c, 0, 72, 127
1, 147443, Note_off_c, 0, 72, 127
1, 147443, Note_off_c, 4, 52, 127
1, 147447, Note_on_c, 6, 54, 127
1, 147447, Note_on_c, 2, 62, 127
1, 147591, Note_on_c, 0, 72, 127
1, 147654, Note_off_c, 2, 62, 127
1, 147730, Note_off_c, 0, 72, 127
1, 147730, Note_off_c, 6, 54, 127
1, 147734, Note_on_c, 10, 57, 127
1, 147734, Note_on_c, 6, 66, 127
1, 147878, Note_on_c, 0, 72, 127
1, 147926, Note_off_c, 6, 66, 127
1, 148018, Note_off_c, 0, 72, 127
1, 148018, Note_off_c, 10, 57, 127
1, 148022, Note_on_c, 6, 54, 127
1, 148022, Note_on_c, 10, 69, 127
1, 148166, Note_on_c, 0, 72, 127
1, 148214, Note_off_c, 10, 69, 127
1, 148306, Note_off_c, 0, 72, 127
1, 148306, Note_off_c, 6, 54, 127
1, 148310, Note_on_c, 10, 57, 127
1, 148310, Note_on_c, 6, 66, 127
1, 148454, Note_on_c, 0, 72, 127
1, 148502, Note_off_c, 6, 66, 127
1, 148594, Note_off_c, 0, 72, 127
1, 148594, Note_off_c, 10, 57, 127
1, 148598, Note_on_c, 6, 54, 127
1, 148598, Note_on_c, 2, 62, 127
1, 148742, Note_on_c, 0, 72, 127
1, 148805, Note_off_c, 2, 62, 127
1, 148881, Note_off_c, 0, 72, 127
1, 148881, Note_off_c, 6, 54, 127
1, 148885, Note_on_c, 10, 57, 127
1, 148885, Note_on_c, 6, 66, 127
1, 149029, Note_on_c, 0, 72, 127
1, 149077, Note_off_c, 6, 66, 127
1, 149169, Note_off_c, 0, 72, 127
1, 149169, Note_off_c, 10, 57, 127
1, 149173, Note_on_c, 6, 54, 127
1, 149173, Note_on_c, 10, 69, 127
1, 149317, Note_on_c, 0, 72, 127
1, 149365, Note_off_c, 10, 69, 127
1, 149457, Note_off_c, 0, 72, 127
1, 149457, Note_off_c, 6, 54, 127
1, 149461, Note_on_c, 10, 57, 127
1, 149461, Note_on_c, 6, 66, 127
1, 149601, Note_off_c, 6, 66, 127
1, 149605, Note_on_c, 0, 72, 127
1, 149739, Note_off_c, 2, 50, 127
1, 149745, Note_off_c, 0, 72, 127
1, 149745, Note_off_c, 10, 57, 127
1, 149749, Note_on_c, 7, 43, 127
1, 149749, Note_on_c, 12, 71, 127
1, 149889, Note_off_c, 12, 71, 127
1, 149889, Note_off_c, 7, 43, 127
1, 149893, Note_on_c, 7, 55, 127
1, 149893, Note_on_c, 7, 67, 127
1, 150033, Note_off_c, 7, 67, 127
1, 150033, Note_off_c, 7, 55, 127
1, 150037, Note_on_c, 6, 54, 127
1, 150037, Note_on_c, 10, 69, 127
1, 150177, Note_off_c, 10, 69, 127
1, 150177, Note_off_c, 6, 54, 127
1, 150181, Note_on_c, 4, 52, 127
1, 150181, Note_on_c, 12, 71, 127
1, 150321, Note_off_c, 12, 71, 127
1, 150321, Note_off_c, 4, 52, 127
1, 150325, Note_on_c, 2, 50, 127
1, 150325, Note_on_c, 0, 72, 127
1, 150465, Note_off_c, 0, 72, 127
1, 150465, Note_off_c, 2, 50, 127
1, 150469, Note_on_c, 0, 48, 127
1, 150469, Note_on_c, 2, 74, 127
1, 150609, Note_off_c, 2, 74, 127
1, 150609, Note_off_c, 0, 48, 127
1, 150613, Note_on_c, 12, 47, 127
1, 150613, Note_on_c, 4, 76, 127
1, 150753, Note_off_c, 4, 76, 127
1, 150753, Note_off_c, 12, 47, 127
1, 150757, Note_on_c, 10, 45, 127
1, 150757, Note_on_c, 6, 78, 127
1, 150897, Note_off_c, 6, 78, 127
1, 150897, Note_off_c, 10, 45, 127
1, 150901, Note_on_c, 7, 43, 127
1, 150901, Note_on_c, 7, 79, 127
1, 151045, Note_on_c, 12, 71, 127
1, 151114, Note_off_c, 7, 79, 127
1, 151184, Note_off_c, 12, 71, 127
1, 151184, Note_off_c, 7, 43, 127
1, 151188, Note_on_c, 10, 45, 127
1, 151188, Note_on_c, 10, 69, 127
1, 151328, Note_off_c, 10, 69, 127
1, 151332, Note_on_c, 12, 71, 127
1, 151472, Note_off_c, 12, 71, 127
1, 151472, Note_off_c, 10, 45, 127
1, 151476, Note_on_c, 12, 47, 127
1, 151476, Note_on_c, 7, 79, 127
1, 151620, Note_on_c, 12, 71, 127
1, 151758, Note_off_c, 7, 79, 127
1, 151760, Note_off_c, 12, 71, 127
1, 151760, Note_off_c, 12, 47, 127
1, 151764, Note_on_c, 7, 43, 127
1, 151764, Note_on_c, 10, 69, 127
1, 151904, Note_off_c, 10, 69, 127
1, 151908, Note_on_c, 12, 71, 127
1, 152048, Note_off_c, 12, 71, 127
1, 152048, Note_off_c, 7, 43, 127
1, 152052, Note_on_c, 0, 48, 127
1, 152052, Note_on_c, 7, 79, 127
1, 152196, Note_on_c, 10, 69, 127
1, 152336, Note_off_c, 10, 69, 127
1, 152336, Note_off_c, 0, 48, 127
1, 152340, Note_on_c, 12, 47, 127
1, 152340, Note_on_c, 7, 67, 127
1, 152469, Note_off_c, 7, 79, 127
1, 152479, Note_off_c, 7, 67, 127
1, 152483, Note_on_c, 10, 69, 127
1, 152623, Note_off_c, 10, 69, 127
1, 152623, Note_off_c, 12, 47, 127
1, 152627, Note_on_c, 0, 48, 127
1, 152627, Note_on_c, 7, 79, 127
1, 152771, Note_on_c, 10, 69, 127
1, 152911, Note_off_c, 10, 69, 127
1, 152911, Note_off_c, 0, 48, 127
1, 152915, Note_on_c, 10, 45, 127
1, 152915, Note_on_c, 7, 67, 127
1, 153044, Note_off_c, 7, 79, 127
1, 153054, Note_off_c, 7, 67, 127
1, 153058, Note_on_c, 10, 69, 127
1, 153198, Note_off_c, 10, 69, 127
1, 153198, Note_off_c, 10, 45, 127
1, 153202, Note_on_c, 2, 50, 127
1, 153202, Note_on_c, 6, 78, 127
1, 153346, Note_on_c, 10, 69, 127
1, 153486, Note_off_c, 10, 69, 127
1, 153486, Note_off_c, 2, 50, 127
1, 153490, Note_on_c, 4, 52, 127
1, 153490, Note_on_c, 7, 67, 127
1, 153619, Note_off_c, 6, 78, 127
1, 153629, Note_off_c, 7, 67, 127
1, 153629, Note_off_c, 4, 52, 127
1, 153633, Note_on_c, 0, 48, 127
1, 153633, Note_on_c, 10, 69, 127
1, 153773, Note_off_c, 10, 69, 127
1, 153773, Note_off_c, 0, 48, 127
1, 153777, Note_on_c, 2, 50, 127
1, 153777, Note_on_c, 6, 78, 127
1, 153921, Note_on_c, 10, 69, 127
1, 153990, Note_off_c, 6, 78, 127
1, 154060, Note_off_c, 10, 69, 127
1, 154060, Note_off_c, 2, 50, 127
1, 154064, Note_on_c, 2, 38, 127
1, 154064, Note_on_c, 7, 67, 127
1, 154204, Note_off_c, 7, 67, 127
1, 154208, Note_on_c, 10, 69, 127
1, 154348, Note_off_c, 10, 69, 127
1, 154348, Note_off_c, 2, 38, 127
1, 154352, Note_on_c, 7, 43, 127
1, 154352, Note_on_c, 7, 67, 127
1, 154496, Note_on_c, 7, 79, 127
1, 154634, Note_off_c, 7, 67, 127
1, 154636, Note_off_c, 7, 79, 127
1, 154636, Note_off_c, 7, 43, 127
1, 154640, Note_on_c, 10, 45, 127
1, 154640, Note_on_c, 6, 78, 127
1, 154780, Note_off_c, 6, 78, 127
1, 154780, Note_off_c, 10, 45, 127
1, 154784, Note_on_c, 12, 47, 127
1, 154784, Note_on_c, 4, 76, 127
1, 154924, Note_off_c, 4, 76, 127
1, 154924, Note_off_c, 12, 47, 127
1, 154928, Note_on_c, 0, 48, 127
1, 154928, Note_on_c, 2, 74, 127
1, 155068, Note_off_c, 2, 74, 127
1, 155068, Note_off_c, 0, 48, 127
1, 155072, Note_on_c, 2, 50, 127
1, 155072, Note_on_c, 0, 72, 127
1, 155212, Note_off_c, 0, 72, 127
1, 155212, Note_off_c, 2, 50, 127
1, 155219, Note_on_c, 12, 71, 127
1, 155219, Note_on_c, 4, 52, 127
1, 155359, Note_off_c, 4, 52, 127
1, 155359, Note_off_c, 12, 71, 127
1, 155359, Note_on_c, 6, 54, 127
1, 155359, Note_on_c, 10, 69, 127
1, 155499, Note_off_c, 10, 69, 127
1, 155499, Note_off_c, 6, 54, 127
1, 155513, Note_on_c, 7, 67, 127
1, 155513, Note_on_c, 7, 55, 127
1, 155800, Note_on_c, 10, 57, 127
1, 155814, Note_off_c, 7, 55, 127
1, 156080, Note_off_c, 7, 67, 127
1, 156083, Note_off_c, 10, 57, 127
1, 156087, Note_on_c, 12, 59, 127
1, 156231, Note_on_c, 7, 67, 127
1, 156371, Note_off_c, 7, 67, 127
1, 156371, Note_off_c, 12, 59, 127
1, 156375, Note_on_c, 12, 59, 127
1, 156375, Note_on_c, 7, 55, 127
1, 156375, Note_on_c, 2, 62, 127
1, 156375, Note_on_c, 12, 71, 127
1, 156515, Note_off_c, 12, 71, 127
1, 156519, Note_on_c, 0, 72, 127
1, 156659, Note_off_c, 0, 72, 127
1, 156659, Note_off_c, 2, 62, 127
1, 156659, Note_off_c, 7, 55, 127
1, 156659, Note_off_c, 12, 59, 127
1, 156663, Note_on_c, 6, 54, 127
1, 156663, Note_on_c, 10, 57, 127
1, 156663, Note_on_c, 2, 62, 127
1, 156663, Note_on_c, 2, 74, 127
1, 156947, Note_off_c, 2, 74, 127
1, 156947, Note_off_c, 2, 62, 127
1, 156947, Note_off_c, 10, 57, 127
1, 156947, Note_off_c, 6, 54, 127
1, 156951, Note_on_c, 4, 52, 127
1, 156951, Note_on_c, 7, 67, 127
1, 156951, Note_on_c, 2, 74, 127
1, 157235, Note_off_c, 2, 74, 127
1, 157235, Note_off_c, 7, 67, 127
1, 157235, Note_off_c, 4, 52, 127
1, 157239, Note_on_c, 6, 54, 127
1, 157239, Note_on_c, 10, 69, 127
1, 157239, Note_on_c, 2, 74, 127
1, 157523, Note_off_c, 2, 74, 127
1, 157523, Note_off_c, 10, 69, 127
1, 157523, Note_off_c, 6, 54, 127
1, 157527, Note_on_c, 2, 50, 127
1, 157527, Note_on_c, 10, 57, 127
1, 157527, Note_on_c, 2, 62, 127
1, 157527, Note_on_c, 6, 66, 127
1, 157527, Note_on_c, 2, 74, 127
1, 157811, Note_off_c, 2, 74, 127
1, 157811, Note_off_c, 6, 66, 127
1, 157811, Note_off_c, 2, 62, 127
1, 157811, Note_off_c, 10, 57, 127
1, 157811, Note_off_c, 2, 50, 127
1, 157815, Note_on_c, 7, 55, 127
1, 157815, Note_on_c, 2, 62, 127
1, 157815, Note_on_c, 12, 71, 127
1, 157815, Note_on_c, 7, 67, 127
1, 158099, Note_off_c, 7, 67, 127
1, 158099, Note_off_c, 12, 71, 127
1, 158099, Note_off_c, 2, 62, 127
1, 158099, Note_off_c, 7, 55, 127
1, 158103, Note_on_c, 10, 57, 127
1, 158103, Note_on_c, 7, 67, 127
1, 158387, Note_off_c, 10, 57, 127
1, 158391, Note_on_c, 12, 59, 127
1, 158531, Note_off_c, 7, 67, 127
1, 158535, Note_on_c, 7, 67, 127
1, 158675, Note_off_c, 7, 67, 127
1, 158675, Note_off_c, 12, 59, 127
1, 158679, Note_on_c, 7, 55, 127
1, 158679, Note_on_c, 2, 62, 127
1, 158679, Note_on_c, 12, 59, 127
1, 158679, Note_on_c, 12, 71, 127
1, 158819, Note_off_c, 12, 71, 127
1, 158823, Note_on_c, 0, 72, 127
1, 158963, Note_off_c, 0, 72, 127
1, 158963, Note_off_c, 12, 59, 127
1, 158963, Note_off_c, 2, 62, 127
1, 158963, Note_off_c, 7, 55, 127
1, 158967, Note_on_c, 2, 62, 127
1, 158967, Note_on_c, 10, 57, 127
1, 158967, Note_on_c, 6, 54, 127
1, 158967, Note_on_c, 2, 74, 127
1, 159251, Note_off_c, 2, 74, 127
1, 159251, Note_off_c, 6, 54, 127
1, 159251, Note_off_c, 10, 57, 127
1, 159251, Note_off_c, 2, 62, 127
1, 159255, Note_on_c, 4, 52, 127
1, 159255, Note_on_c, 2, 74, 127
1, 159255, Note_on_c, 7, 67, 127
1, 159539, Note_off_c, 7, 67, 127
1, 159539, Note_off_c, 2, 74, 127
1, 159539, Note_off_c, 4, 52, 127
1, 159543, Note_on_c, 6, 54, 127
1, 159543, Note_on_c, 2, 74, 127
1, 159543, Note_on_c, 10, 69, 127
1, 159827, Note_off_c, 10, 69, 127
1, 159827, Note_off_c, 2, 74, 127
1, 159827, Note_off_c, 6, 54, 127
1, 159831, Note_on_c, 10, 57, 127
1, 159831, Note_on_c, 2, 50, 127
1, 159831, Note_on_c, 2, 62, 127
1, 159831, Note_on_c, 6, 66, 127
1, 159831, Note_on_c, 2, 74, 127
1, 160115, Note_off_c, 2, 74, 127
1, 160115, Note_off_c, 6, 66, 127
1, 160115, Note_off_c, 2, 62, 127
1, 160115, Note_off_c, 2, 50, 127
1, 160115, Note_off_c, 10, 57, 127
1, 160119, Note_on_c, 7, 55, 127
1, 160119, Note_on_c, 12, 71, 127
1, 160119, Note_on_c, 7, 67, 127
1, 160259, Note_off_c, 7, 55, 127
1, 160263, Note_on_c, 7, 43, 127
1, 160403, Note_off_c, 7, 43, 127
1, 160403, Note_off_c, 7, 67, 127
1, 160403, Note_off_c, 12, 71, 127
1, 160407, Note_on_c, 12, 47, 127
1, 160407, Note_on_c, 7, 67, 127
1, 160547, Note_off_c, 12, 47, 127
1, 160551, Note_on_c, 2, 50, 127
1, 160691, Note_off_c, 2, 50, 127
1, 160695, Note_on_c, 7, 55, 127
1, 160824, Note_off_c, 7, 67, 127
1, 160834, Note_off_c, 7, 55, 127
1, 160838, Note_on_c, 10, 57, 127
1, 160978, Note_off_c, 10, 57, 127
1, 160982, Note_on_c, 7, 55, 127
1, 161122, Note_off_c, 7, 55, 127
1, 161126, Note_on_c, 5, 53, 127
1, 161266, Note_off_c, 5, 53, 127
1, 161270, Note_on_c, 4, 52, 127
1, 161270, Note_on_c, 7, 67, 127
1, 161270, Note_on_c, 4, 64, 127
1, 161270, Note_on_c, 0, 72, 127
1, 161270, Note_on_c, 0, 60, 127
1, 161410, Note_off_c, 4, 52, 127
1, 161414, Note_on_c, 0, 48, 127
1, 161554, Note_off_c, 0, 48, 127
1, 161558, Note_on_c, 4, 52, 127
1, 161698, Note_off_c, 4, 52, 127
1, 161702, Note_on_c, 7, 55, 127
1, 161837, Note_off_c, 0, 60, 127
1, 161837, Note_off_c, 4, 64, 127
1, 161837, Note_off_c, 7, 67, 127
1, 161841, Note_off_c, 7, 55, 127
1, 161845, Note_on_c, 0, 60, 127
1, 161985, Note_off_c, 0, 60, 127
1, 161985, Note_off_c, 0, 72, 127
1, 161989, Note_on_c, 4, 64, 127
1, 161989, Note_on_c, 0, 72, 127
1, 162129, Note_off_c, 0, 72, 127
1, 162129, Note_off_c, 4, 64, 127
1, 162133, Note_on_c, 2, 62, 127
1, 162133, Note_on_c, 4, 76, 127
1, 162273, Note_off_c, 4, 76, 127
1, 162273, Note_off_c, 2, 62, 127
1, 162277, Note_on_c, 0, 60, 127
1, 162277, Note_on_c, 5, 77, 127
1, 162417, Note_off_c, 5, 77, 127
1, 162417, Note_off_c, 0, 60, 127
1, 162421, Note_on_c, 12, 59, 127
1, 162421, Note_on_c, 7, 79, 127
1, 162705, Note_off_c, 7, 79, 127
1, 162705, Note_off_c, 12, 59, 127
1, 162709, Note_on_c, 10, 57, 127
1, 162709, Note_on_c, 0, 72, 127
1, 162709, Note_on_c, 7, 79, 127
1, 162993, Note_off_c, 7, 79, 127
1, 162993, Note_off_c, 0, 72, 127
1, 162993, Note_off_c, 10, 57, 127
1, 162997, Note_on_c, 12, 59, 127
1, 162997, Note_on_c, 7, 79, 127
1, 162997, Note_on_c, 2, 74, 127
1, 163281, Note_off_c, 2, 74, 127
1, 163281, Note_off_c, 7, 79, 127
1, 163281, Note_off_c, 12, 59, 127
1, 163285, Note_on_c, 7, 55, 127
1, 163285, Note_on_c, 2, 62, 127
1, 163285, Note_on_c, 7, 67, 127
1, 163285, Note_on_c, 7, 79, 127
1, 163285, Note_on_c, 12, 71, 127
1, 163569, Note_off_c, 12, 71, 127
1, 163569, Note_off_c, 7, 79, 127
1, 163569, Note_off_c, 7, 67, 127
1, 163569, Note_off_c, 2, 62, 127
1, 163569, Note_off_c, 7, 55, 127
1, 163573, Note_on_c, 0, 60, 127
1, 163573, Note_on_c, 7, 67, 127
1, 163573, Note_on_c, 4, 76, 127
1, 163573, Note_on_c, 0, 72, 127
1, 163857, Note_off_c, 0, 72, 127
1, 163857, Note_off_c, 4, 76, 127
1, 163857, Note_off_c, 7, 67, 127
1, 163857, Note_off_c, 0, 60, 127
1, 163861, Note_on_c, 2, 62, 127
1, 163861, Note_on_c, 0, 72, 127
1, 164143, Note_off_c, 0, 72, 127
1, 164145, Note_off_c, 2, 62, 127
1, 164149, Note_on_c, 4, 64, 127
1, 164293, Note_on_c, 0, 72, 127
1, 164433, Note_off_c, 0, 72, 127
1, 164433, Note_off_c, 4, 64, 127
1, 164437, Note_on_c, 4, 64, 127
1, 164437, Note_on_c, 0, 60, 127
1, 164437, Note_on_c, 7, 67, 127
1, 164437, Note_on_c, 4, 76, 127
1, 164577, Note_off_c, 4, 76, 127
1, 164581, Note_on_c, 5, 77, 127
1, 164721, Note_off_c, 5, 77, 127
1, 164721, Note_off_c, 7, 67, 127
1, 164721, Note_off_c, 0, 60, 127
1, 164721, Note_off_c, 4, 64, 127
1, 164725, Note_on_c, 12, 59, 127
1, 164725, Note_on_c, 7, 67, 127
1, 164725, Note_on_c, 2, 62, 127
1, 164725, Note_on_c, 7, 79, 127
1, 165009, Note_off_c, 7, 79, 127
1, 165009, Note_off_c, 2, 62, 127
1, 165009, Note_off_c, 7, 67, 127
1, 165009, Note_off_c, 12, 59, 127
1, 165013, Note_on_c, 10, 57, 127
1, 165013, Note_on_c, 0, 72, 127
1, 165013, Note_on_c, 7, 79, 127
1, 165297, Note_off_c, 7, 79, 127
1, 165297, Note_off_c, 0, 72, 127
1, 165297, Note_off_c, 10, 57, 127
1, 165301, Note_on_c, 12, 59, 127
1, 165301, Note_on_c, 2, 74, 127
1, 165301, Note_on_c, 7, 79, 127
1, 165585, Note_off_c, 7, 79, 127
1, 165585, Note_off_c, 2, 74, 127
1, 165585, Note_off_c, 12, 59, 127
1, 165589, Note_on_c, 2, 62, 127
1, 165589, Note_on_c, 7, 55, 127
1, 165589, Note_on_c, 7, 67, 127
1, 165589, Note_on_c, 7, 79, 127
1, 165589, Note_on_c, 12, 71, 127
1, 165873, Note_off_c, 12, 71, 127
1, 165873, Note_off_c, 7, 79, 127
1, 165873, Note_off_c, 7, 67, 127
1, 165873, Note_off_c, 7, 55, 127
1, 165873, Note_off_c, 2, 62, 127
1, 165877, Note_on_c, 0, 60, 127
1, 165877, Note_on_c, 7, 67, 127
1, 165877, Note_on_c, 4, 76, 127
1, 165877, Note_on_c, 0, 72, 127
1, 166161, Note_off_c, 0, 72, 127
1, 166161, Note_off_c, 4, 76, 127
1, 166161, Note_off_c, 7, 67, 127
1, 166161, Note_off_c, 0, 60, 127
1, 166165, Note_on_c, 2, 62, 127
1, 166165, Note_on_c, 0, 72, 127
1, 166447, Note_off_c, 0, 72, 127
1, 166449, Note_off_c, 2, 62, 127
1, 166453, Note_on_c, 4, 64, 127
1, 166597, Note_on_c, 0, 72, 127
1, 166737, Note_off_c, 0, 72, 127
1, 166737, Note_off_c, 4, 64, 127
1, 166741, Note_on_c, 4, 64, 127
1, 166741, Note_on_c, 0, 60, 127
1, 166741, Note_on_c, 7, 67, 127
1, 166741, Note_on_c, 4, 76, 127
1, 166881, Note_off_c, 4, 76, 127
1, 166885, Note_on_c, 5, 77, 127
1, 167025, Note_off_c, 5, 77, 127
1, 167025, Note_off_c, 7, 67, 127
1, 167025, Note_off_c, 0, 60, 127
1, 167025, Note_off_c, 4, 64, 127
1, 167029, Note_on_c, 2, 62, 127
1, 167029, Note_on_c, 12, 59, 127
1, 167029, Note_on_c, 7, 67, 127
1, 167029, Note_on_c, 7, 79, 127
1, 167313, Note_off_c, 7, 79, 127
1, 167313, Note_off_c, 7, 67, 127
1, 167313, Note_off_c, 12, 59, 127
1, 167313, Note_off_c, 2, 62, 127
1, 167317, Note_on_c, 0, 60, 127
1, 167317, Note_on_c, 7, 67, 127
1, 167317, Note_on_c, 5, 77, 127
1, 167457, Note_off_c, 5, 77, 127
1, 167461, Note_on_c, 4, 76, 127
1, 167601, Note_off_c, 4, 76, 127
1, 167601, Note_off_c, 7, 67, 127
1, 167601, Note_off_c, 0, 60, 127
1, 167605, Note_on_c, 10, 57, 127
1, 167605, Note_on_c, 5, 65, 127
1, 167605, Note_on_c, 2, 74, 127
1, 167889, Note_off_c, 2, 74, 127
1, 167889, Note_off_c, 5, 65, 127
1, 167889, Note_off_c, 10, 57, 127
1, 167893, Note_on_c, 5, 53, 127
1, 167893, Note_on_c, 4, 64, 127
1, 167893, Note_on_c, 0, 72, 127
1, 168177, Note_off_c, 0, 72, 127
1, 168177, Note_off_c, 4, 64, 127
1, 168177, Note_off_c, 5, 53, 127
1, 168181, Note_on_c, 7, 55, 127
1, 168181, Note_on_c, 12, 71, 127
1, 168181, Note_on_c, 2, 62, 127
1, 168321, Note_off_c, 7, 55, 127
1, 168325, Note_on_c, 7, 43, 127
1, 168465, Note_off_c, 7, 43, 127
1, 168465, Note_off_c, 2, 62, 127
1, 168465, Note_off_c, 12, 71, 127
1, 168469, Note_on_c, 12, 47, 127
1, 168469, Note_on_c, 7, 67, 127
1, 168609, Note_off_c, 12, 47, 127
1, 168613, Note_on_c, 2, 50, 127
1, 168751, Note_off_c, 7, 67, 127
1, 168753, Note_off_c, 2, 50, 127
1, 168757, Note_on_c, 7, 55, 127
1, 168901, Note_on_c, 7, 67, 127
1, 169041, Note_off_c, 7, 67, 127
1, 169045, Note_on_c, 12, 71, 127
1, 169185, Note_off_c, 12, 71, 127
1, 169189, Note_on_c, 2, 74, 127
1, 169324, Note_off_c, 7, 55, 127
1, 169328, Note_off_c, 2, 74, 127
1, 169332, Note_on_c, 7, 79, 127
1, 169472, Note_off_c, 7, 79, 127
1, 169476, Note_on_c, 4, 52, 127
1, 169476, Note_on_c, 5, 77, 127
1, 169616, Note_off_c, 5, 77, 127
1, 169616, Note_off_c, 4, 52, 127
1, 169620, Note_on_c, 7, 55, 127
1, 169620, Note_on_c, 7, 79, 127
1, 169688, Note_off_c, 7, 79, 127
1, 169692, Note_on_c, 5, 77, 127
1, 169760, Note_off_c, 5, 77, 127
1, 169760, Note_off_c, 7, 55, 127
1, 169764, Note_on_c, 12, 59, 127
1, 169764, Note_on_c, 7, 79, 127
1, 169904, Note_off_c, 12, 59, 127
1, 169908, Note_on_c, 4, 64, 127
1, 170048, Note_off_c, 4, 64, 127
1, 170048, Note_off_c, 7, 79, 127
1, 170052, Note_on_c, 2, 62, 127
1, 170052, Note_on_c, 7, 79, 127
1, 170192, Note_off_c, 7, 79, 127
1, 170192, Note_off_c, 2, 62, 127
1, 170196, Note_on_c, 0, 60, 127
1, 170196, Note_on_c, 10, 81, 127
1, 170336, Note_off_c, 10, 81, 127
1, 170336, Note_off_c, 0, 60, 127
1, 170340, Note_on_c, 12, 59, 127
1, 170340, Note_on_c, 7, 79, 127
1, 170480, Note_off_c, 7, 79, 127
1, 170480, Note_off_c, 12, 59, 127
1, 170484, Note_on_c, 10, 57, 127
1, 170484, Note_on_c, 0, 84, 127
1, 170624, Note_off_c, 10, 57, 127
1, 170628, Note_on_c, 0, 60, 127
1, 170768, Note_off_c, 0, 60, 127
1, 170768, Note_off_c, 0, 84, 127
1, 170772, Note_on_c, 4, 64, 127
1, 170772, Note_on_c, 5, 77, 127
1, 170912, Note_off_c, 5, 77, 127
1, 170912, Note_off_c, 4, 64, 127
1, 170916, Note_on_c, 7, 67, 127
1, 170916, Note_on_c, 4, 76, 127
1, 171056, Note_off_c, 4, 76, 127
1, 171056, Note_off_c, 7, 67, 127
1, 171060, Note_on_c, 5, 77, 127
1, 171200, Note_off_c, 5, 77, 127
1, 171204, Note_on_c, 7, 67, 127
1, 171344, Note_off_c, 7, 67, 127
1, 171348, Note_on_c, 12, 71, 127
1, 171488, Note_off_c, 12, 71, 127
1, 171492, Note_on_c, 2, 74, 127
1, 171632, Note_off_c, 2, 74, 127
1, 171636, Note_on_c, 5, 77, 127
1, 171776, Note_off_c, 5, 77, 127
1, 171780, Note_on_c, 2, 50, 127
1, 171780, Note_on_c, 4, 76, 127
1, 171920, Note_off_c, 4, 76, 127
1, 171920, Note_off_c, 2, 50, 127
1, 171924, Note_on_c, 5, 53, 127
1, 171924, Note_on_c, 5, 77, 127
1, 171992, Note_off_c, 5, 77, 127
1, 171996, Note_on_c, 4, 76, 127
1, 172064, Note_off_c, 4, 76, 127
1, 172064, Note_off_c, 5, 53, 127
1, 172068, Note_on_c, 10, 57, 127
1, 172068, Note_on_c, 5, 77, 127
1, 172208, Note_off_c, 10, 57, 127
1, 172212, Note_on_c, 2, 62, 127
1, 172352, Note_off_c, 2, 62, 127
1, 172352, Note_off_c, 5, 77, 127
1, 172356, Note_on_c, 0, 60, 127
1, 172356, Note_on_c, 5, 77, 127
1, 172496, Note_off_c, 5, 77, 127
1, 172496, Note_off_c, 0, 60, 127
1, 172500, Note_on_c, 12, 59, 127
1, 172500, Note_on_c, 7, 79, 127
1, 172640, Note_off_c, 7, 79, 127
1, 172640, Note_off_c, 12, 59, 127
1, 172644, Note_on_c, 10, 57, 127
1, 172644, Note_on_c, 5, 77, 127
1, 172784, Note_off_c, 5, 77, 127
1, 172784, Note_off_c, 10, 57, 127
1, 172788, Note_on_c, 7, 55, 127
1, 172788, Note_on_c, 12, 83, 127
1, 172928, Note_off_c, 7, 55, 127
1, 172932, Note_on_c, 12, 59, 127
1, 173072, Note_off_c, 12, 59, 127
1, 173072, Note_off_c, 12, 83, 127
1, 173076, Note_on_c, 2, 62, 127
1, 173076, Note_on_c, 4, 76, 127
1, 173216, Note_off_c, 4, 76, 127
1, 173216, Note_off_c, 2, 62, 127
1, 173220, Note_on_c, 5, 65, 127
1, 173220, Note_on_c, 2, 74, 127
1, 173360, Note_off_c, 2, 74, 127
1, 173360, Note_off_c, 5, 65, 127
1, 173364, Note_on_c, 4, 76, 127
1, 173504, Note_off_c, 4, 76, 127
1, 173508, Note_on_c, 7, 67, 127
1, 173648, Note_off_c, 7, 67, 127
1, 173652, Note_on_c, 0, 72, 127
1, 173792, Note_off_c, 0, 72, 127
1, 173796, Note_on_c, 2, 74, 127
1, 173936, Note_off_c, 2, 74, 127
1, 173940, Note_on_c, 4, 76, 127
1, 174080, Note_off_c, 4, 76, 127
1, 174084, Note_on_c, 0, 48, 127
1, 174084, Note_on_c, 2, 74, 127
1, 174224, Note_off_c, 2, 74, 127
1, 174224, Note_off_c, 0, 48, 127
1, 174228, Note_on_c, 4, 52, 127
1, 174228, Note_on_c, 4, 76, 127
1, 174296, Note_off_c, 4, 76, 127
1, 174300, Note_on_c, 2, 74, 127
1, 174368, Note_off_c, 2, 74, 127
1, 174368, Note_off_c, 4, 52, 127
1, 174372, Note_on_c, 7, 55, 127
1, 174372, Note_on_c, 4, 76, 127
1, 174512, Note_off_c, 7, 55, 127
1, 174516, Note_on_c, 0, 60, 127
1, 174656, Note_off_c, 0, 60, 127
1, 174656, Note_off_c, 4, 76, 127
1, 174660, Note_on_c, 12, 59, 127
1, 174660, Note_on_c, 4, 76, 127
1, 174800, Note_off_c, 4, 76, 127
1, 174800, Note_off_c, 12, 59, 127
1, 174804, Note_on_c, 10, 57, 127
1, 174804, Note_on_c, 5, 77, 127
1, 174944, Note_off_c, 5, 77, 127
1, 174944, Note_off_c, 10, 57, 127
1, 174948, Note_on_c, 7, 55, 127
1, 174948, Note_on_c, 4, 76, 127
1, 175088, Note_off_c, 4, 76, 127
1, 175088, Note_off_c, 7, 55, 127
1, 175092, Note_on_c, 5, 53, 127
1, 175092, Note_on_c, 10, 81, 127
1, 175232, Note_off_c, 5, 53, 127
1, 175236, Note_on_c, 10, 57, 127
1, 175376, Note_off_c, 10, 57, 127
1, 175376, Note_off_c, 10, 81, 127
1, 175380, Note_on_c, 0, 60, 127
1, 175380, Note_on_c, 2, 74, 127
1, 175520, Note_off_c, 2, 74, 127
1, 175520, Note_off_c, 0, 60, 127
1, 175524, Note_on_c, 4, 64, 127
1, 175524, Note_on_c, 0, 72, 127
1, 175664, Note_off_c, 0, 72, 127
1, 175664, Note_off_c, 4, 64, 127
1, 175668, Note_on_c, 2, 74, 127
1, 175808, Note_off_c, 2, 74, 127
1, 175812, Note_on_c, 7, 67, 127
1, 175952, Note_off_c, 7, 67, 127
1, 175956, Note_on_c, 12, 71, 127
1, 176096, Note_off_c, 12, 71, 127
1, 176100, Note_on_c, 0, 72, 127
1, 176240, Note_off_c, 0, 72, 127
1, 176244, Note_on_c, 2, 74, 127
1, 176384, Note_off_c, 2, 74, 127
1, 176388, Note_on_c, 12, 47, 127
1, 176388, Note_on_c, 0, 72, 127
1, 176528, Note_off_c, 0, 72, 127
1, 176528, Note_off_c, 12, 47, 127
1, 176532, Note_on_c, 2, 50, 127
1, 176532, Note_on_c, 2, 74, 127
1, 176600, Note_off_c, 2, 74, 127
1, 176604, Note_on_c, 0, 72, 127
1, 176672, Note_off_c, 0, 72, 127
1, 176672, Note_off_c, 2, 50, 127
1, 176676, Note_on_c, 7, 55, 127
1, 176676, Note_on_c, 2, 74, 127
1, 176816, Note_off_c, 7, 55, 127
1, 176820, Note_on_c, 12, 59, 127
1, 176960, Note_off_c, 12, 59, 127
1, 176960, Note_off_c, 2, 74, 127
1, 176964, Note_on_c, 10, 57, 127
1, 176964, Note_on_c, 2, 74, 127
1, 177104, Note_off_c, 2, 74, 127
1, 177104, Note_off_c, 10, 57, 127
1, 177108, Note_on_c, 7, 55, 127
1, 177108, Note_on_c, 4, 76, 127
1, 177248, Note_off_c, 4, 76, 127
1, 177248, Note_off_c, 7, 55, 127
1, 177252, Note_on_c, 5, 53, 127
1, 177252, Note_on_c, 2, 74, 127
1, 177392, Note_off_c, 2, 74, 127
1, 177392, Note_off_c, 5, 53, 127
1, 177396, Note_on_c, 4, 52, 127
1, 177396, Note_on_c, 7, 79, 127
1, 177536, Note_off_c, 4, 52, 127
1, 177540, Note_on_c, 7, 55, 127
1, 177680, Note_off_c, 7, 55, 127
1, 177680, Note_off_c, 7, 79, 127
1, 177684, Note_on_c, 12, 59, 127
1, 177684, Note_on_c, 0, 72, 127
1, 177824, Note_off_c, 0, 72, 127
1, 177824, Note_off_c, 12, 59, 127
1, 177828, Note_on_c, 2, 62, 127
1, 177828, Note_on_c, 12, 71, 127
1, 177968, Note_off_c, 12, 71, 127
1, 177968, Note_off_c, 2, 62, 127
1, 177972, Note_on_c, 0, 72, 127
1, 178112, Note_off_c, 0, 72, 127
1, 178116, Note_on_c, 7, 67, 127
1, 178256, Note_off_c, 7, 67, 127
1, 178260, Note_on_c, 10, 69, 127
1, 178400, Note_off_c, 10, 69, 127
1, 178404, Note_on_c, 12, 71, 127
1, 178544, Note_off_c, 12, 71, 127
1, 178548, Note_on_c, 0, 72, 127
1, 178692, Note_on_c, 12, 59, 127
1, 178832, Note_off_c, 12, 59, 127
1, 178832, Note_off_c, 0, 72, 127
1, 178836, Note_on_c, 10, 57, 127
1, 178836, Note_on_c, 2, 74, 127
1, 178976, Note_off_c, 2, 74, 127
1, 178976, Note_off_c, 10, 57, 127
1, 178980, Note_on_c, 7, 55, 127
1, 178980, Note_on_c, 4, 76, 127
1, 179120, Note_off_c, 4, 76, 127
1, 179120, Note_off_c, 7, 55, 127
1, 179124, Note_on_c, 6, 54, 127
1, 179124, Note_on_c, 2, 74, 127
1, 179264, Note_off_c, 6, 54, 127
1, 179268, Note_on_c, 4, 52, 127
1, 179408, Note_off_c, 4, 52, 127
1, 179408, Note_off_c, 2, 74, 127
1, 179412, Note_on_c, 6, 54, 127
1, 179412, Note_on_c, 0, 72, 127
1, 179552, Note_off_c, 6, 54, 127
1, 179556, Note_on_c, 2, 50, 127
1, 179696, Note_off_c, 2, 50, 127
1, 179696, Note_off_c, 0, 72, 127
1, 179700, Note_on_c, 7, 43, 127
1, 179700, Note_on_c, 12, 71, 127
1, 179840, Note_off_c, 12, 71, 127
1, 179844, Note_on_c, 10, 69, 127
1, 179984, Note_off_c, 10, 69, 127
1, 179988, Note_on_c, 7, 55, 127
1, 179988, Note_on_c, 7, 67, 127
1, 180128, Note_off_c, 7, 67, 127
1, 180132, Note_on_c, 5, 65, 127
1, 180207, Note_off_c, 7, 43, 127
1, 180271, Note_off_c, 5, 65, 127
1, 180275, Note_on_c, 7, 67, 127
1, 180415, Note_off_c, 7, 67, 127
1, 180415, Note_off_c, 7, 55, 127
1, 180419, Note_on_c, 7, 55, 127
1, 180419, Note_on_c, 12, 71, 127
1, 180559, Note_off_c, 12, 71, 127
1, 180559, Note_off_c, 7, 55, 127
1, 180563, Note_on_c, 6, 54, 127
1, 180563, Note_on_c, 10, 69, 127
1, 180703, Note_off_c, 10, 69, 127
1, 180703, Note_off_c, 6, 54, 127
1, 180707, Note_on_c, 7, 55, 127
1, 180707, Note_on_c, 12, 71, 127
1, 180847, Note_off_c, 12, 71, 127
1, 180847, Note_off_c, 7, 55, 127
1, 180851, Note_on_c, 10, 45, 127
1, 180851, Note_on_c, 0, 72, 127
1, 180991, Note_off_c, 0, 72, 127
1, 180995, Note_on_c, 10, 69, 127
1, 181135, Note_off_c, 10, 69, 127
1, 181139, Note_on_c, 10, 57, 127
1, 181139, Note_on_c, 7, 67, 127
1, 181268, Note_off_c, 10, 45, 127
1, 181278, Note_off_c, 7, 67, 127
1, 181282, Note_on_c, 5, 65, 127
1, 181422, Note_off_c, 5, 65, 127
1, 181426, Note_on_c, 7, 67, 127
1, 181566, Note_off_c, 7, 67, 127
1, 181566, Note_off_c, 10, 57, 127
1, 181570, Note_on_c, 10, 57, 127
1, 181570, Note_on_c, 0, 72, 127
1, 181710, Note_off_c, 0, 72, 127
1, 181710, Note_off_c, 10, 57, 127
1, 181714, Note_on_c, 7, 55, 127
1, 181714, Note_on_c, 12, 71, 127
1, 181854, Note_off_c, 12, 71, 127
1, 181854, Note_off_c, 7, 55, 127
1, 181858, Note_on_c, 10, 57, 127
1, 181858, Note_on_c, 0, 72, 127
1, 181998, Note_off_c, 0, 72, 127
1, 181998, Note_off_c, 10, 57, 127
1, 182002, Note_on_c, 12, 47, 127
1, 182002, Note_on_c, 2, 74, 127
1, 182146, Note_on_c, 10, 69, 127
1, 182152, Note_off_c, 2, 74, 127
1, 182286, Note_off_c, 10, 69, 127
1, 182290, Note_on_c, 12, 59, 127
1, 182290, Note_on_c, 7, 67, 127
1, 182419, Note_off_c, 12, 47, 127
1, 182429, Note_off_c, 7, 67, 127
1, 182433, Note_on_c, 5, 65, 127
1, 182573, Note_off_c, 5, 65, 127
1, 182577, Note_on_c, 7, 67, 127
1, 182717, Note_off_c, 7, 67, 127
1, 182717, Note_off_c, 12, 59, 127
1, 182721, Note_on_c, 12, 59, 127
1, 182721, Note_on_c, 2, 74, 127
1, 182861, Note_off_c, 2, 74, 127
1, 182861, Note_off_c, 12, 59, 127
1, 182865, Note_on_c, 10, 57, 127
1, 182865, Note_on_c, 0, 72, 127
1, 183005, Note_off_c, 0, 72, 127
1, 183005, Note_off_c, 10, 57, 127
1, 183009, Note_on_c, 12, 59, 127
1, 183009, Note_on_c, 2, 74, 127
1, 183149, Note_off_c, 2, 74, 127
1, 183149, Note_off_c, 12, 59, 127
1, 183153, Note_on_c, 0, 48, 127
1, 183153, Note_on_c, 4, 76, 127
1, 183297, Note_on_c, 10, 69, 127
1, 183313, Note_off_c, 4, 76, 127
1, 183437, Note_off_c, 10, 69, 127
1, 183441, Note_on_c, 0, 60, 127
1, 183441, Note_on_c, 7, 67, 127
1, 183570, Note_off_c, 0, 48, 127
1, 183580, Note_off_c, 7, 67, 127
1, 183584, Note_on_c, 5, 65, 127
1, 183724, Note_off_c, 5, 65, 127
1, 183728, Note_on_c, 7, 67, 127
1, 183868, Note_off_c, 7, 67, 127
1, 183868, Note_off_c, 0, 60, 127
1, 183872, Note_on_c, 0, 60, 127
1, 183872, Note_on_c, 4, 76, 127
1, 184012, Note_off_c, 4, 76, 127
1, 184012, Note_off_c, 0, 60, 127
1, 184016, Note_on_c, 12, 59, 127
1, 184016, Note_on_c, 2, 74, 127
1, 184156, Note_off_c, 2, 74, 127
1, 184156, Note_off_c, 12, 59, 127
1, 184160, Note_on_c, 0, 60, 127
1, 184160, Note_on_c, 4, 76, 127
1, 184300, Note_off_c, 4, 76, 127
1, 184300, Note_off_c, 0, 60, 127
1, 184304, Note_on_c, 2, 50, 127
1, 184304, Note_on_c, 5, 77, 127
1, 184448, Note_on_c, 10, 69, 127
1, 184474, Note_off_c, 5, 77, 127
1, 184588, Note_off_c, 10, 69, 127
1, 184592, Note_on_c, 2, 62, 127
1, 184592, Note_on_c, 7, 67, 127
1, 184721, Note_off_c, 2, 50, 127
1, 184731, Note_off_c, 7, 67, 127
1, 184735, Note_on_c, 5, 65, 127
1, 184875, Note_off_c, 5, 65, 127
1, 184879, Note_on_c, 7, 67, 127
1, 185019, Note_off_c, 7, 67, 127
1, 185019, Note_off_c, 2, 62, 127
1, 185023, Note_on_c, 2, 62, 127
1, 185023, Note_on_c, 5, 77, 127
1, 185163, Note_off_c, 5, 77, 127
1, 185163, Note_off_c, 2, 62, 127
1, 185167, Note_on_c, 0, 60, 127
1, 185167, Note_on_c, 4, 76, 127
1, 185307, Note_off_c, 4, 76, 127
1, 185307, Note_off_c, 0, 60, 127
1, 185311, Note_on_c, 2, 62, 127
1, 185311, Note_on_c, 5, 77, 127
1, 185451, Note_off_c, 5, 77, 127
1, 185451, Note_off_c, 2, 62, 127
1, 185455, Note_on_c, 4, 52, 127
1, 185455, Note_on_c, 7, 79, 127
1, 185599, Note_on_c, 10, 69, 127
1, 185635, Note_off_c, 7, 79, 127
1, 185739, Note_off_c, 10, 69, 127
1, 185743, Note_on_c, 4, 64, 127
1, 185743, Note_on_c, 7, 67, 127
1, 185872, Note_off_c, 4, 52, 127
1, 185882, Note_off_c, 7, 67, 127
1, 185886, Note_on_c, 5, 65, 127
1, 186026, Note_off_c, 5, 65, 127
1, 186030, Note_on_c, 7, 67, 127
1, 186159, Note_off_c, 4, 64, 127
1, 186174, Note_on_c, 7, 79, 127
1, 186312, Note_off_c, 7, 67, 127
1, 186314, Note_off_c, 7, 79, 127
1, 186318, Note_on_c, 0, 60, 127
1, 186318, Note_on_c, 10, 57, 127
1, 186318, Note_on_c, 5, 77, 127
1, 186458, Note_off_c, 5, 77, 127
1, 186462, Note_on_c, 4, 76, 127
1, 186602, Note_off_c, 4, 76, 127
1, 186602, Note_off_c, 10, 57, 127
1, 186606, Note_on_c, 2, 50, 127
1, 186606, Note_on_c, 5, 77, 127
1, 186746, Note_off_c, 5, 77, 127
1, 186750, Note_on_c, 2, 74, 127
1, 186885, Note_off_c, 0, 60, 127
1, 186889, Note_off_c, 2, 74, 127
1, 186889, Note_off_c, 2, 50, 127
1, 186893, Note_on_c, 7, 55, 127
1, 186893, Note_on_c, 12, 59, 127
1, 186893, Note_on_c, 0, 72, 127
1, 187033, Note_off_c, 0, 72, 127
1, 187037, Note_on_c, 2, 74, 127
1, 187177, Note_off_c, 2, 74, 127
1, 187177, Note_off_c, 7, 55, 127
1, 187181, Note_on_c, 0, 48, 127
1, 187181, Note_on_c, 4, 76, 127
1, 187321, Note_off_c, 4, 76, 127
1, 187325, Note_on_c, 0, 72, 127
1, 187430, Note_off_c, 12, 59, 127
1, 187464, Note_off_c, 0, 72, 127
1, 187464, Note_off_c, 0, 48, 127
1, 187468, Note_on_c, 10, 57, 127
1, 187468, Note_on_c, 5, 53, 127
1, 187468, Note_on_c, 12, 71, 127
1, 187608, Note_off_c, 12, 71, 127
1, 187612, Note_on_c, 0, 72, 127
1, 187752, Note_off_c, 0, 72, 127
1, 187752, Note_off_c, 5, 53, 127
1, 187756, Note_on_c, 12, 47, 127
1, 187756, Note_on_c, 2, 74, 127
1, 187896, Note_off_c, 2, 74, 127
1, 187900, Note_on_c, 12, 71, 127
1, 187975, Note_off_c, 10, 57, 127
1, 188039, Note_off_c, 12, 71, 127
1, 188039, Note_off_c, 12, 47, 127
1, 188043, Note_on_c, 7, 55, 127
1, 188043, Note_on_c, 4, 52, 127
1, 188043, Note_on_c, 10, 69, 127
1, 188183, Note_off_c, 10, 69, 127
1, 188187, Note_on_c, 12, 71, 127
1, 188327, Note_off_c, 12, 71, 127
1, 188327, Note_off_c, 4, 52, 127
1, 188331, Note_on_c, 10, 45, 127
1, 188331, Note_on_c, 0, 72, 127
1, 188471, Note_off_c, 0, 72, 127
1, 188475, Note_on_c, 10, 69, 127
1, 188520, Note_off_c, 7, 55, 127
1, 188614, Note_off_c, 10, 69, 127
1, 188614, Note_off_c, 10, 45, 127
1, 188618, Note_on_c, 5, 53, 127
1, 188618, Note_on_c, 2, 50, 127
1, 188618, Note_on_c, 7, 67, 127
1, 188758, Note_off_c, 7, 67, 127
1, 188762, Note_on_c, 10, 69, 127
1, 188902, Note_off_c, 10, 69, 127
1, 188902, Note_off_c, 2, 50, 127
1, 188906, Note_on_c, 7, 43, 127
1, 188906, Note_on_c, 12, 71, 127
1, 189046, Note_off_c, 12, 71, 127
1, 189050, Note_on_c, 7, 67, 127
1, 189065, Note_off_c, 5, 53, 127
1, 189189, Note_off_c, 7, 67, 127
1, 189189, Note_off_c, 7, 43, 127
1, 189193, Note_on_c, 0, 48, 127
1, 189193, Note_on_c, 4, 52, 127
1, 189193, Note_on_c, 5, 65, 127
1, 189333, Note_off_c, 5, 65, 127
1, 189337, Note_on_c, 7, 67, 127
1, 189477, Note_off_c, 7, 67, 127
1, 189477, Note_off_c, 0, 48, 127
1, 189481, Note_on_c, 5, 41, 127
1, 189481, Note_on_c, 10, 69, 127
1, 189610, Note_off_c, 4, 52, 127
1, 189620, Note_off_c, 10, 69, 127
1, 189624, Note_on_c, 5, 65, 127
1, 189764, Note_off_c, 5, 65, 127
1, 189764, Note_off_c, 5, 41, 127
1, 189768, Note_on_c, 2, 50, 127
1, 189768, Note_on_c, 12, 47, 127
1, 189768, Note_on_c, 4, 64, 127
1, 189908, Note_off_c, 4, 64, 127
1, 189912, Note_on_c, 5, 65, 127
1, 190052, Note_off_c, 5, 65, 127
1, 190052, Note_off_c, 12, 47, 127
1, 190056, Note_on_c, 4, 40, 127
1, 190056, Note_on_c, 7, 67, 127
1, 190155, Note_off_c, 2, 50, 127
1, 190195, Note_off_c, 7, 67, 127
1, 190199, Note_on_c, 4, 64, 127
1, 190339, Note_off_c, 4, 64, 127
1, 190339, Note_off_c, 4, 40, 127
1, 190343, Note_on_c, 0, 48, 127
1, 190343, Note_on_c, 10, 45, 127
1, 190343, Note_on_c, 2, 62, 127
1, 190483, Note_off_c, 2, 62, 127
1, 190487, Note_on_c, 4, 64, 127
1, 190627, Note_off_c, 4, 64, 127
1, 190627, Note_off_c, 10, 45, 127
1, 190631, Note_on_c, 2, 38, 127
1, 190631, Note_on_c, 5, 65, 127
1, 190700, Note_off_c, 0, 48, 127
1, 190770, Note_off_c, 5, 65, 127
1, 190774, Note_on_c, 2, 62, 127
1, 190914, Note_off_c, 2, 62, 127
1, 190914, Note_off_c, 2, 38, 127
1, 190918, Note_on_c, 7, 43, 127
1, 190918, Note_on_c, 12, 47, 127
1, 190918, Note_on_c, 0, 60, 127
1, 191058, Note_off_c, 0, 60, 127
1, 191062, Note_on_c, 2, 62, 127
1, 191202, Note_off_c, 2, 62, 127
1, 191202, Note_off_c, 12, 47, 127
1, 191202, Note_off_c, 7, 43, 127
1, 191206, Note_on_c, 0, 48, 127
1, 191206, Note_on_c, 0, 36, 127
1, 191206, Note_on_c, 4, 64, 127
1, 191346, Note_off_c, 4, 64, 127
1, 191350, Note_on_c, 0, 60, 127
1, 191490, Note_off_c, 0, 60, 127
1, 191494, Note_on_c, 4, 64, 127
1, 191623, Note_off_c, 0, 48, 127
1, 191633, Note_off_c, 4, 64, 127
1, 191637, Note_on_c, 7, 67, 127
1, 191772, Note_off_c, 0, 36, 127
1, 191776, Note_off_c, 7, 67, 127
1, 191780, Note_on_c, 0, 72, 127
1, 191907, Note_on_c, 0, 36, 127
1, 192047, Note_off_c, 0, 36, 127
1, 192052, Note_on_c, 4, 40, 127
1, 192192, Note_off_c, 4, 40, 127
1, 192196, Note_on_c, 7, 43, 127
1, 192336, Note_off_c, 7, 43, 127
1, 192340, Note_on_c, 0, 48, 127
1, 192484, Note_on_c, 4, 64, 127
1, 192624, Note_off_c, 4, 64, 127
1, 192628, Note_on_c, 7, 67, 127
1, 192640, Note_off_c, 0, 72, 127
1, 192768, Note_off_c, 7, 67, 127
1, 192772, Note_on_c, 0, 72, 127
1, 192912, Note_off_c, 0, 72, 127
1, 192916, Note_on_c, 4, 76, 127
1, 193056, Note_off_c, 0, 48, 127
1, 193060, Note_on_c, 0, 48, 127
1, 193200, Note_off_c, 0, 48, 127
1, 193204, Note_on_c, 4, 52, 127
1, 193344, Note_off_c, 4, 52, 127
1, 193348, Note_on_c, 7, 55, 127
1, 193488, Note_off_c, 7, 55, 127
1, 193492, Note_on_c, 0, 60, 127
1, 193636, Note_on_c, 7, 67, 127
1, 193776, Note_off_c, 7, 67, 127
1, 193776, Note_off_c, 4, 76, 127
1, 193780, Note_on_c, 0, 72, 127
1, 193920, Note_off_c, 0, 72, 127
1, 193924, Note_on_c, 4, 76, 127
1, 194064, Note_off_c, 4, 76, 127
1, 194068, Note_on_c, 7, 79, 127
1, 194208, Note_off_c, 0, 60, 127
1, 194212, Note_on_c, 0, 60, 127
1, 194352, Note_off_c, 0, 60, 127
1, 194356, Note_on_c, 4, 64, 127
1, 194496, Note_off_c, 4, 64, 127
1, 194500, Note_on_c, 7, 67, 127
1, 194640, Note_off_c, 7, 67, 127
1, 194644, Note_on_c, 0, 72, 127
1, 194784, Note_off_c, 0, 72, 127
1, 194788, Note_on_c, 0, 72, 127
1, 194928, Note_off_c, 7, 79, 127
1, 194932, Note_on_c, 4, 76, 127
1, 195072, Note_off_c, 4, 76, 127
1, 195076, Note_on_c, 7, 79, 127
1, 195216, Note_off_c, 7, 79, 127
1, 195220, Note_on_c, 0, 84, 127
1, 195355, Note_off_c, 0, 72, 127
1, 195364, Note_on_c, 0, 72, 127
1, 195504, Note_off_c, 0, 72, 127
1, 195508, Note_on_c, 12, 71, 127
1, 195648, Note_off_c, 12, 71, 127
1, 195652, Note_on_c, 10, 69, 127
1, 195792, Note_off_c, 10, 69, 127
1, 195796, Note_on_c, 7, 67, 127
1, 195936, Note_off_c, 7, 67, 127
1, 195940, Note_on_c, 0, 72, 127
1, 195940, Note_on_c, 10, 69, 127
1, 196080, Note_off_c, 10, 69, 127
1, 196080, Note_off_c, 0, 72, 127
1, 196084, Note_on_c, 4, 76, 127
1, 196084, Note_on_c, 7, 67, 127
1, 196224, Note_off_c, 7, 67, 127
1, 196224, Note_off_c, 4, 76, 127
1, 196228, Note_on_c, 7, 79, 127
1, 196228, Note_on_c, 5, 65, 127
1, 196368, Note_off_c, 5, 65, 127
1, 196368, Note_off_c, 7, 79, 127
1, 196368, Note_off_c, 0, 84, 127
1, 196372, Note_on_c, 0, 84, 127
1, 196372, Note_on_c, 4, 64, 127
1, 196512, Note_off_c, 4, 64, 127
1, 196516, Note_on_c, 0, 72, 127
1, 196516, Note_on_c, 5, 65, 127
1, 196656, Note_off_c, 5, 65, 127
1, 196656, Note_off_c, 0, 72, 127
1, 196660, Note_on_c, 4, 76, 127
1, 196660, Note_on_c, 4, 64, 127
1, 196800, Note_off_c, 4, 64, 127
1, 196800, Note_off_c, 4, 76, 127
1, 196804, Note_on_c, 7, 79, 127
1, 196804, Note_on_c, 2, 62, 127
1, 196939, Note_off_c, 0, 84, 127
1, 196943, Note_off_c, 2, 62, 127
1, 196943, Note_off_c, 7, 79, 127
1, 196947, Note_on_c, 0, 84, 127
1, 196947, Note_on_c, 0, 60, 127
1, 197087, Note_off_c, 0, 60, 127
1, 197091, Note_on_c, 0, 72, 127
1, 197091, Note_on_c, 0, 60, 127
1, 197231, Note_off_c, 0, 60, 127
1, 197231, Note_off_c, 0, 72, 127
1, 197235, Note_on_c, 4, 76, 127
1, 197235, Note_on_c, 12, 59, 127
1, 197375, Note_off_c, 12, 59, 127
1, 197375, Note_off_c, 4, 76, 127
1, 197379, Note_on_c, 7, 79, 127
1, 197379, Note_on_c, 10, 57, 127
1, 197514, Note_off_c, 0, 84, 127
1, 197518, Note_off_c, 10, 57, 127
1, 197518, Note_off_c, 7, 79, 127
1, 197522, Note_on_c, 0, 84, 127
1, 197522, Note_on_c, 7, 55, 127
1, 197662, Note_off_c, 7, 55, 127
1, 197666, Note_on_c, 0, 72, 127
1, 197666, Note_on_c, 10, 57, 127
1, 197806, Note_off_c, 10, 57, 127
1, 197806, Note_off_c, 0, 72, 127
1, 197810, Note_on_c, 4, 76, 127
1, 197810, Note_on_c, 7, 55, 127
1, 197950, Note_off_c, 7, 55, 127
1, 197950, Note_off_c, 4, 76, 127
1, 197952, Note_off_c, 0, 84, 127
1, 197955, Note_on_c, 7, 79, 127
1, 197955, Note_on_c, 5, 53, 127
1, 198095, Note_off_c, 5, 53, 127
1, 198095, Note_off_c, 7, 79, 127
1, 198099, Note_on_c, 0, 84, 127
1, 198099, Note_on_c, 4, 52, 127
1, 198239, Note_off_c, 4, 52, 127
1, 198243, Note_on_c, 0, 72, 127
1, 198243, Note_on_c, 5, 53, 127
1, 198381, Note_off_c, 0, 84, 127
1, 198383, Note_off_c, 5, 53, 127
1, 198383, Note_off_c, 0, 72, 127
1, 198387, Note_on_c, 4, 76, 127
1, 198387, Note_on_c, 4, 52, 127
1, 198527, Note_off_c, 4, 52, 127
1, 198527, Note_off_c, 4, 76, 127
1, 198531, Note_on_c, 7, 79, 127
1, 198531, Note_on_c, 2, 50, 127
1, 198671, Note_off_c, 2, 50, 127
1, 198671, Note_off_c, 7, 79, 127
1, 198675, Note_on_c, 0, 84, 127
1, 198675, Note_on_c, 0, 48, 127
1, 198815, Note_off_c, 0, 48, 127
1, 198815, Note_off_c, 0, 84, 127
1, 198819, Note_on_c, 4, 76, 127
1, 198819, Note_on_c, 4, 52, 127
1, 198887, Note_off_c, 4, 76, 127
1, 198891, Note_on_c, 5, 77, 127
1, 198959, Note_off_c, 5, 77, 127
1, 198959, Note_off_c, 4, 52, 127
1, 198963, Note_on_c, 7, 79, 127
1, 198963, Note_on_c, 2, 50, 127
1, 199031, Note_off_c, 7, 79, 127
1, 199035, Note_on_c, 10, 81, 127
1, 199103, Note_off_c, 10, 81, 127
1, 199103, Note_off_c, 2, 50, 127
1, 199107, Note_on_c, 12, 83, 127
1, 199107, Note_on_c, 0, 48, 127
1, 199175, Note_off_c, 12, 83, 127
1, 199179, Note_on_c, 0, 84, 127
1, 199247, Note_off_c, 0, 84, 127
1, 199247, Note_off_c, 0, 48, 127
1, 199251, Note_on_c, 12, 83, 127
1, 199251, Note_on_c, 7, 55, 127
1, 199395, Note_on_c, 7, 43, 127
1, 199533, Note_off_c, 7, 55, 127
1, 199535, Note_off_c, 7, 43, 127
1, 199535, Note_off_c, 12, 83, 127
1, 199539, Note_on_c, 7, 79, 127
1, 199539, Note_on_c, 12, 47, 127
1, 199679, Note_off_c, 12, 47, 127
1, 199683, Note_on_c, 2, 50, 127
1, 199823, Note_off_c, 2, 50, 127
1, 199827, Note_on_c, 7, 55, 127
1, 199845, Note_off_c, 7, 79, 127
1, 199983, Note_on_c, 7, 67, 127
1, 200111, Note_off_c, 7, 55, 127
1, 200123, Note_on_c, 12, 71, 127
1, 200123, Note_on_c, 7, 55, 127
1, 200123, Note_on_c, 12, 59, 127
1, 200123, Note_on_c, 2, 62, 127
1, 200131, Note_off_c, 7, 67, 127
1, 200263, Note_off_c, 12, 71, 127
1, 200267, Note_on_c, 0, 72, 127
1, 200407, Note_off_c, 0, 72, 127
1, 200407, Note_off_c, 2, 62, 127
1, 200407, Note_off_c, 12, 59, 127
1, 200407, Note_off_c, 7, 55, 127
1, 200411, Note_on_c, 2, 74, 127
1, 200411, Note_on_c, 2, 62, 127
1, 200411, Note_on_c, 10, 57, 127
1, 200411, Note_on_c, 6, 54, 127
1, 200695, Note_off_c, 6, 54, 127
1, 200695, Note_off_c, 10, 57, 127
1, 200695, Note_off_c, 2, 62, 127
1, 200695, Note_off_c, 2, 74, 127
1, 200699, Note_on_c, 7, 67, 127
1, 200699, Note_on_c, 2, 74, 127
1, 200699, Note_on_c, 4, 52, 127
1, 200983, Note_off_c, 4, 52, 127
1, 200983, Note_off_c, 2, 74, 127
1, 200983, Note_off_c, 7, 67, 127
1, 200987, Note_on_c, 10, 69, 127
1, 200987, Note_on_c, 2, 74, 127
1, 200987, Note_on_c, 6, 54, 127
1, 201271, Note_off_c, 6, 54, 127
1, 201271, Note_off_c, 2, 74, 127
1, 201271, Note_off_c, 10, 69, 127
1, 201275, Note_on_c, 6, 66, 127
1, 201275, Note_on_c, 2, 74, 127
1, 201275, Note_on_c, 2, 62, 127
1, 201275, Note_on_c, 10, 57, 127
1, 201275, Note_on_c, 2, 50, 127
1, 201559, Note_off_c, 2, 50, 127
1, 201559, Note_off_c, 10, 57, 127
1, 201559, Note_off_c, 2, 62, 127
1, 201559, Note_off_c, 2, 74, 127
1, 201559, Note_off_c, 6, 66, 127
1, 201563, Note_on_c, 7, 67, 127
1, 201563, Note_on_c, 12, 71, 127
1, 201563, Note_on_c, 2, 62, 127
1, 201563, Note_on_c, 7, 55, 127
1, 201703, Note_off_c, 7, 55, 127
1, 201703, Note_off_c, 2, 62, 127
1, 201707, Note_on_c, 7, 55, 127
1, 201847, Note_off_c, 7, 55, 127
1, 201847, Note_off_c, 12, 71, 127
1, 201847, Note_off_c, 7, 67, 127
1, 201851, Note_on_c, 7, 67, 127
1, 201851, Note_on_c, 12, 59, 127
1, 201991, Note_off_c, 12, 59, 127
1, 201995, Note_on_c, 2, 62, 127
1, 202133, Note_off_c, 7, 67, 127
1, 202135, Note_off_c, 2, 62, 127
1, 202139, Note_on_c, 7, 67, 127
1, 202279, Note_off_c, 7, 67, 127
1, 202283, Note_on_c, 7, 67, 127
1, 202423, Note_off_c, 7, 67, 127
1, 202427, Note_on_c, 12, 71, 127
1, 202567, Note_off_c, 12, 71, 127
1, 202571, Note_on_c, 2, 74, 127
1, 202711, Note_off_c, 2, 74, 127
1, 202715, Note_on_c, 5, 77, 127
1, 202859, Note_on_c, 7, 67, 127
1, 202999, Note_off_c, 7, 67, 127
1, 202999, Note_off_c, 5, 77, 127
1, 203003, Note_on_c, 5, 77, 127
1, 203003, Note_on_c, 2, 62, 127
1, 203143, Note_off_c, 2, 62, 127
1, 203147, Note_on_c, 12, 59, 127
1, 203287, Note_off_c, 12, 59, 127
1, 203287, Note_off_c, 5, 77, 127
1, 203291, Note_on_c, 5, 77, 127
1, 203291, Note_on_c, 7, 55, 127
1, 203431, Note_off_c, 7, 55, 127
1, 203435, Note_on_c, 2, 62, 127
1, 203575, Note_off_c, 2, 62, 127
1, 203575, Note_off_c, 5, 77, 127
1, 203579, Note_on_c, 5, 77, 127
1, 203579, Note_on_c, 12, 59, 127
1, 203719, Note_off_c, 12, 59, 127
1, 203723, Note_on_c, 7, 55, 127
1, 203863, Note_off_c, 7, 55, 127
1, 203863, Note_off_c, 5, 77, 127
1, 203867, Note_on_c, 12, 71, 127
1, 203867, Note_on_c, 2, 50, 127
1, 204007, Note_off_c, 2, 50, 127
1, 204011, Note_on_c, 7, 55, 127
1, 204151, Note_off_c, 7, 55, 127
1, 204151, Note_off_c, 12, 71, 127
1, 204155, Note_on_c, 7, 67, 127
1, 204155, Note_on_c, 2, 50, 127
1, 204295, Note_off_c, 2, 50, 127
1, 204299, Note_on_c, 12, 47, 127
1, 204437, Note_off_c, 7, 67, 127
1, 204439, Note_off_c, 12, 47, 127
1, 204443, Note_on_c, 7, 43, 127
1, 204583, Note_off_c, 7, 43, 127
1, 204587, Note_on_c, 7, 67, 127
1, 204587, Note_on_c, 12, 47, 127
1, 204727, Note_off_c, 12, 47, 127
1, 204727, Note_off_c, 7, 67, 127
1, 204731, Note_on_c, 12, 71, 127
1, 204731, Note_on_c, 2, 50, 127
1, 204871, Note_off_c, 2, 50, 127
1, 204871, Note_off_c, 12, 71, 127
1, 204875, Note_on_c, 2, 74, 127
1, 204875, Note_on_c, 7, 55, 127
1, 205015, Note_off_c, 2, 74, 127
1, 205019, Note_on_c, 5, 77, 127
1, 205019, Note_on_c, 0, 48, 127
1, 205160, Note_off_c, 5, 77, 127
1, 205165, Note_on_c, 4, 76, 127
1, 205296, Note_off_c, 7, 55, 127
1, 205307, Note_off_c, 4, 76, 127
1, 205312, Note_on_c, 2, 74, 127
1, 205312, Note_on_c, 10, 57, 127
1, 205453, Note_off_c, 2, 74, 127
1, 205458, Note_on_c, 0, 72, 127
1, 205595, Note_off_c, 0, 48, 127
1, 205600, Note_off_c, 0, 72, 127
1, 205605, Note_on_c, 4, 76, 127
1, 205605, Note_on_c, 2, 50, 127
1, 205746, Note_off_c, 4, 76, 127
1, 205751, Note_on_c, 5, 77, 127
1, 205888, Note_off_c, 10, 57, 127
1, 205893, Note_off_c, 5, 77, 127
1, 205898, Note_on_c, 4, 76, 127
1, 205898, Note_on_c, 12, 59, 127
1, 206039, Note_off_c, 4, 76, 127
1, 206044, Note_on_c, 2, 74, 127
1, 206150, Note_off_c, 2, 50, 127
1, 206153, Note_off_c, 12, 59, 127
1, 206185, Note_off_c, 2, 74, 127
1, 206190, Note_on_c, 7, 79, 127
1, 206190, Note_on_c, 0, 36, 127
1, 206333, Note_off_c, 0, 36, 127
1, 206338, Note_on_c, 4, 52, 127
1, 206481, Note_off_c, 4, 52, 127
1, 206481, Note_off_c, 7, 79, 127
1, 206486, Note_on_c, 12, 71, 127
1, 206486, Note_on_c, 5, 53, 127
1, 206629, Note_off_c, 5, 53, 127
1, 206634, Note_on_c, 7, 55, 127
1, 206777, Note_off_c, 7, 55, 127
1, 206777, Note_off_c, 12, 71, 127
1, 206782, Note_on_c, 0, 72, 127
1, 206782, Note_on_c, 10, 57, 127
1, 206929, Note_off_c, 10, 57, 127
1, 206934, Note_on_c, 10, 45, 127
1, 207081, Note_off_c, 10, 45, 127
1, 207081, Note_off_c, 0, 72, 127
1, 207086, Note_on_c, 4, 64, 127
1, 207086, Note_on_c, 12, 47, 127
1, 207233, Note_off_c, 12, 47, 127
1, 207238, Note_on_c, 0, 48, 127
1, 207385, Note_off_c, 0, 48, 127
1, 207385, Note_off_c, 4, 64, 127
1, 207390, Note_on_c, 5, 65, 127
1, 207390, Note_on_c, 2, 38, 127
1, 207541, Note_off_c, 2, 38, 127
1, 207546, Note_on_c, 2, 50, 127
1, 207697, Note_off_c, 2, 50, 127
1, 207697, Note_off_c, 5, 65, 127
1, 207702, Note_on_c, 0, 72, 127
1, 207702, Note_on_c, 4, 52, 127
1, 207861, Note_off_c, 4, 52, 127
1, 207866, Note_on_c, 5, 53, 127
1, 208025, Note_off_c, 5, 53, 127
1, 208030, Note_on_c, 2, 62, 127
1, 208030, Note_on_c, 7, 55, 127
1, 208210, Note_off_c, 7, 55, 127
1, 208216, Note_on_c, 5, 53, 127
1, 208390, Note_off_c, 0, 72, 127
1, 208396, Note_off_c, 5, 53, 127
1, 208402, Note_on_c, 12, 71, 127
1, 208402, Note_on_c, 7, 55, 127
1, 208634, Note_on_c, 7, 43, 127
1, 208757, Note_off_c, 7, 55, 127
1, 208867, Note_off_c, 7, 43, 127
1, 208867, Note_off_c, 2, 62, 127
1, 208875, Note_off_c, 12, 71, 127
1, 208899, Note_on_c, 0, 36, 127
1, 208899, Note_on_c, 0, 48, 127
1, 208899, Note_on_c, 4, 64, 127
1, 208899, Note_on_c, 0, 60, 127
1, 208899, Note_on_c, 0, 72, 127
1, 208899, Note_on_c, 7, 67, 127
1, 210809, Note_off_c, 7, 67, 127
1, 210809, Note_off_c, 0, 72, 127
1, 210809, Note_off_c, 0, 60, 127
1, 210809, Note_off_c, 4, 64, 127
1, 210809, Note_off_c, 0, 48, 127
1, 210809, Note_off_c, 0, 36, 127
1, 214275, Note_on_c, 0, 72, 127
1, 215111, Note_off_c, 0, 72, 127
1, 215113, Note_on_c, 4, 76, 127
1, 215739, Note_off_c, 4, 76, 127
1, 215741, Note_on_c, 5, 77, 127
1, 215948, Note_off_c, 5, 77, 127
1, 215950, Note_on_c, 7, 67, 127
1, 215950, Note_on_c, 7, 79, 127
1, 216786, Note_off_c, 7, 67, 127
1, 216788, Note_on_c, 10, 69, 127
1, 217205, Note_off_c, 7, 79, 127
1, 217207, Note_on_c, 5, 77, 127
1, 217399, Note_off_c, 10, 69, 127
1, 217416, Note_on_c, 12, 71, 127
1, 217621, Note_off_c, 5, 77, 127
1, 217623, Note_off_c, 12, 71, 127
1, 217625, Note_on_c, 0, 48, 127
1, 217625, Note_on_c, 4, 76, 127
1, 217625, Note_on_c, 0, 72, 127
1, 218042, Note_off_c, 4, 76, 127
1, 218044, Note_on_c, 4, 76, 127
1, 218251, Note_off_c, 4, 76, 127
1, 218253, Note_on_c, 5, 77, 127
1, 218460, Note_off_c, 5, 77, 127
1, 218460, Note_off_c, 0, 48, 127
1, 218462, Note_on_c, 4, 52, 127
1, 218462, Note_on_c, 7, 79, 127
1, 218879, Note_off_c, 7, 79, 127
1, 218879, Note_off_c, 0, 72, 127
1, 218881, Note_on_c, 5, 77, 127
1, 218881, Note_on_c, 0, 72, 127
1, 219088, Note_off_c, 5, 77, 127
1, 219088, Note_off_c, 4, 52, 127
1, 219090, Note_on_c, 5, 53, 127
1, 219090, Note_on_c, 4, 76, 127
1, 219295, Note_off_c, 0, 72, 127
1, 219297, Note_off_c, 4, 76, 127
1, 219297, Note_off_c, 5, 53, 127
1, 219299, Note_on_c, 7, 55, 127
1, 219299, Note_on_c, 12, 71, 127
1, 219299, Note_on_c, 2, 74, 127
1, 219506, Note_off_c, 2, 74, 127
1, 219506, Note_off_c, 12, 71, 127
1, 219508, Note_on_c, 0, 72, 127
1, 219508, Note_on_c, 10, 69, 127
1, 219715, Note_off_c, 10, 69, 127
1, 219715, Note_off_c, 0, 72, 127
1, 219717, Note_on_c, 12, 71, 127
1, 219717, Note_on_c, 2, 74, 127
1, 220134, Note_off_c, 7, 55, 127
1, 220136, Note_on_c, 10, 57, 127
1, 220328, Note_off_c, 2, 74, 127
1, 220328, Note_off_c, 12, 71, 127
1, 220555, Note_on_c, 5, 53, 127
1, 220747, Note_off_c, 10, 57, 127
1, 220764, Note_on_c, 12, 59, 127
1, 220969, Note_off_c, 5, 53, 127
1, 220971, Note_off_c, 12, 59, 127
1, 220973, Note_on_c, 4, 52, 127
1, 220973, Note_on_c, 0, 60, 127
1, 220973, Note_on_c, 4, 76, 127
1, 220973, Note_on_c, 0, 72, 127
1, 221390, Note_off_c, 4, 52, 127
1, 221392, Note_on_c, 0, 48, 127
1, 221802, Note_off_c, 0, 60, 127
1, 221809, Note_off_c, 0, 72, 127
1, 221809, Note_off_c, 4, 76, 127
1, 221811, Note_on_c, 7, 79, 127
1, 221811, Note_on_c, 4, 76, 127
1, 222003, Note_off_c, 0, 48, 127
1, 222437, Note_off_c, 4, 76, 127
1, 222437, Note_off_c, 7, 79, 127
1, 222439, Note_on_c, 5, 77, 127
1, 222439, Note_on_c, 10, 81, 127
1, 222646, Note_off_c, 10, 81, 127
1, 222646, Note_off_c, 5, 77, 127
1, 222648, Note_on_c, 7, 55, 127
1, 222648, Note_on_c, 4, 52, 127
1, 222648, Note_on_c, 0, 48, 127
1, 222648, Note_on_c, 0, 72, 127
1, 222648, Note_on_c, 11, 82, 127
1, 222648, Note_on_c, 7, 79, 127
1, 223484, Note_off_c, 0, 48, 127
1, 223484, Note_off_c, 4, 52, 127
1, 223484, Note_off_c, 7, 55, 127
1, 223486, Note_on_c, 4, 52, 127
1, 223486, Note_on_c, 7, 55, 127
1, 223486, Note_on_c, 0, 60, 127
1, 223903, Note_off_c, 7, 79, 127
1, 223903, Note_off_c, 11, 82, 127
1, 223903, Note_off_c, 0, 72, 127
1, 223905, Note_on_c, 0, 72, 127
1, 223905, Note_on_c, 11, 82, 127
1, 223905, Note_on_c, 7, 79, 127
1, 224112, Note_off_c, 0, 60, 127
1, 224112, Note_off_c, 7, 55, 127
1, 224112, Note_off_c, 4, 52, 127
1, 224114, Note_on_c, 4, 52, 127
1, 224114, Note_on_c, 0, 48, 127
1, 224114, Note_on_c, 0, 60, 127
1, 224321, Note_off_c, 0, 60, 127
1, 224321, Note_off_c, 0, 48, 127
1, 224321, Note_off_c, 4, 52, 127
1, 224321, Note_off_c, 7, 79, 127
1, 224321, Note_off_c, 11, 82, 127
1, 224321, Note_off_c, 0, 72, 127
1, 224323, Note_on_c, 5, 53, 127
1, 224323, Note_on_c, 0, 60, 127
1, 224323, Note_on_c, 10, 81, 127
1, 224323, Note_on_c, 5, 77, 127
1, 224323, Note_on_c, 0, 72, 127
1, 224949, Note_off_c, 0, 72, 127
1, 224949, Note_off_c, 5, 77, 127
1, 224949, Note_off_c, 10, 81, 127
1, 224951, Note_on_c, 7, 55, 127
1, 224951, Note_on_c, 4, 76, 127
1, 224951, Note_on_c, 11, 70, 127
1, 224951, Note_on_c, 7, 79, 127
1, 225152, Note_off_c, 0, 60, 127
1, 225159, Note_off_c, 7, 79, 127
1, 225159, Note_off_c, 11, 70, 127
1, 225159, Note_off_c, 4, 76, 127
1, 225159, Note_off_c, 7, 55, 127
1, 225161, Note_on_c, 2, 62, 127
1, 225161, Note_on_c, 10, 57, 127
1, 225161, Note_on_c, 5, 77, 127
1, 225161, Note_on_c, 2, 74, 127
1, 225161, Note_on_c, 10, 69, 127
1, 225368, Note_off_c, 10, 69, 127
1, 225368, Note_off_c, 2, 74, 127
1, 225368, Note_off_c, 5, 77, 127
1, 225368, Note_off_c, 10, 57, 127
1, 225368, Note_off_c, 2, 62, 127
1, 225370, Note_on_c, 10, 57, 127
1, 225370, Note_on_c, 0, 72, 127
1, 225370, Note_on_c, 7, 67, 127
1, 225370, Note_on_c, 4, 76, 127
1, 225577, Note_off_c, 4, 76, 127
1, 225577, Note_off_c, 7, 67, 127
1, 225577, Note_off_c, 0, 72, 127
1, 225577, Note_off_c, 10, 57, 127
1, 225579, Note_on_c, 12, 59, 127
1, 225579, Note_on_c, 5, 65, 127
1, 225579, Note_on_c, 12, 71, 127
1, 225579, Note_on_c, 2, 74, 127
1, 225786, Note_off_c, 2, 74, 127
1, 225786, Note_off_c, 12, 71, 127
1, 225786, Note_off_c, 5, 65, 127
1, 225786, Note_off_c, 12, 59, 127
1, 225788, Note_on_c, 0, 60, 127
1, 225788, Note_on_c, 4, 64, 127
1, 225788, Note_on_c, 0, 72, 127
1, 225788, Note_on_c, 10, 69, 127
1, 225995, Note_off_c, 10, 69, 127
1, 225995, Note_off_c, 0, 72, 127
1, 225995, Note_off_c, 4, 64, 127
1, 225995, Note_off_c, 0, 60, 127
1, 225995, Note_off_c, 5, 53, 127
1, 225997, Note_on_c, 5, 53, 127
1, 225997, Note_on_c, 7, 55, 127
1, 225997, Note_on_c, 12, 71, 127
1, 225997, Note_on_c, 7, 67, 127
1, 225997, Note_on_c, 2, 62, 127
1, 227670, Note_off_c, 2, 62, 127
1, 227670, Note_off_c, 7, 67, 127
1, 227670, Note_off_c, 12, 71, 127
1, 227670, Note_off_c, 7, 55, 127
1, 227670, Note_off_c, 5, 53, 127
1, 227672, Note_on_c, 7, 55, 127
1, 227672, Note_on_c, 4, 52, 127
1, 227672, Note_on_c, 0, 60, 127
1, 227672, Note_on_c, 0, 72, 127
1, 227672, Note_on_c, 7, 67, 127
1, 227672, Note_on_c, 4, 64, 127
1, 228508, Note_off_c, 4, 64, 127
1, 228508, Note_off_c, 7, 67, 127
1, 228508, Note_off_c, 0, 72, 127
1, 228508, Note_off_c, 0, 60, 127
1, 228508, Note_off_c, 4, 52, 127
1, 228508, Note_off_c, 7, 55, 127
1, 228510, Note_on_c, 0, 48, 127
1, 228510, Note_on_c, 10, 57, 127
1, 228510, Note_on_c, 4, 52, 127
1, 228510, Note_on_c, 10, 81, 127
1, 228510, Note_on_c, 0, 72, 127
1, 228510, Note_on_c, 4, 76, 127
1, 229136, Note_off_c, 4, 76, 127
1, 229136, Note_off_c, 0, 72, 127
1, 229136, Note_off_c, 10, 81, 127
1, 229136, Note_off_c, 4, 52, 127
1, 229136, Note_off_c, 10, 57, 127
1, 229136, Note_off_c, 0, 48, 127
1, 229138, Note_on_c, 4, 52, 127
1, 229138, Note_on_c, 10, 57, 127
1, 229138, Note_on_c, 0, 48, 127
1, 229138, Note_on_c, 12, 71, 127
1, 229138, Note_on_c, 7, 79, 127
1, 229138, Note_on_c, 4, 76, 127
1, 229345, Note_off_c, 4, 76, 127
1, 229345, Note_off_c, 7, 79, 127
1, 229345, Note_off_c, 12, 71, 127
1, 229345, Note_off_c, 0, 48, 127
1, 229345, Note_off_c, 10, 57, 127
1, 229345, Note_off_c, 4, 52, 127
1, 229347, Note_on_c, 6, 54, 127
1, 229347, Note_on_c, 10, 57, 127
1, 229347, Note_on_c, 0, 48, 127
1, 229347, Note_on_c, 2, 74, 127
1, 229347, Note_on_c, 10, 69, 127
1, 229347, Note_on_c, 6, 78, 127
1, 230183, Note_off_c, 6, 78, 127
1, 230183, Note_off_c, 10, 69, 127
1, 230183, Note_off_c, 2, 74, 127
1, 230183, Note_off_c, 0, 48, 127
1, 230183, Note_off_c, 10, 57, 127
1, 230183, Note_off_c, 6, 54, 127
1, 230185, Note_on_c, 12, 47, 127
1, 230185, Note_on_c, 7, 55, 127
1, 230185, Note_on_c, 2, 50, 127
1, 230185, Note_on_c, 2, 74, 127
1, 230185, Note_on_c, 7, 79, 127
1, 230185, Note_on_c, 12, 71, 127
1, 230811, Note_off_c, 12, 71, 127
1, 230811, Note_off_c, 2, 74, 127
1, 230811, Note_off_c, 2, 50, 127
1, 230811, Note_off_c, 7, 55, 127
1, 230811, Note_off_c, 12, 47, 127
1, 230813, Note_on_c, 2, 50, 127
1, 230813, Note_on_c, 12, 47, 127
1, 230813, Note_on_c, 7, 55, 127
1, 230813, Note_on_c, 2, 74, 127
1, 230813, Note_on_c, 12, 71, 127
1, 231020, Note_off_c, 12, 71, 127
1, 231020, Note_off_c, 2, 74, 127
1, 231020, Note_off_c, 7, 55, 127
1, 231020, Note_off_c, 12, 47, 127
1, 231020, Note_off_c, 2, 50, 127
1, 231022, Note_on_c, 0, 48, 127
1, 231022, Note_on_c, 4, 52, 127
1, 231022, Note_on_c, 10, 57, 127
1, 231022, Note_on_c, 0, 72, 127
1, 231022, Note_on_c, 4, 76, 127
1, 231648, Note_off_c, 4, 76, 127
1, 231648, Note_off_c, 0, 72, 127
1, 231648, Note_off_c, 10, 57, 127
1, 231648, Note_off_c, 4, 52, 127
1, 231648, Note_off_c, 0, 48, 127
1, 231650, Note_on_c, 0, 48, 127
1, 231650, Note_on_c, 10, 57, 127
1, 231650, Note_on_c, 4, 52, 127
1, 231650, Note_on_c, 10, 69, 127
1, 231650, Note_on_c, 0, 72, 127
1, 231857, Note_off_c, 0, 72, 127
1, 231857, Note_off_c, 10, 69, 127
1, 231857, Note_off_c, 4, 52, 127
1, 231857, Note_off_c, 10, 57, 127
1, 231857, Note_off_c, 0, 48, 127
1, 231857, Note_off_c, 7, 79, 127
1, 231859, Note_on_c, 10, 57, 127
1, 231859, Note_on_c, 2, 50, 127
1, 231859, Note_on_c, 6, 78, 127
1, 231859, Note_on_c, 0, 72, 127
1, 231859, Note_on_c, 10, 69, 127
1, 232485, Note_off_c, 10, 69, 127
1, 232485, Note_off_c, 0, 72, 127
1, 232485, Note_off_c, 2, 50, 127
1, 232485, Note_off_c, 10, 57, 127
1, 232487, Note_on_c, 2, 38, 127
1, 232487, Note_on_c, 2, 50, 127
1, 232487, Note_on_c, 0, 72, 127
1, 232487, Note_on_c, 10, 69, 127
1, 232688, Note_off_c, 6, 78, 127
1, 232695, Note_off_c, 10, 69, 127
1, 232695, Note_off_c, 0, 72, 127
1, 232695, Note_off_c, 2, 50, 127
1, 232695, Note_off_c, 2, 38, 127
1, 232697, Note_on_c, 2, 50, 127
1, 232697, Note_on_c, 7, 43, 127
1, 232697, Note_on_c, 12, 71, 127
1, 232697, Note_on_c, 7, 67, 127
1, 232697, Note_on_c, 7, 79, 127
1, 234370, Note_off_c, 7, 79, 127
1, 234370, Note_off_c, 7, 67, 127
1, 234370, Note_off_c, 12, 71, 127
1, 234370, Note_off_c, 7, 43, 127
1, 234370, Note_off_c, 2, 50, 127
1, 234388, Note_on_c, 0, 72, 127
1, 234388, Note_on_c, 0, 60, 127
1, 234388, Note_on_c, 4, 64, 127
1, 234805, Note_off_c, 0, 72, 127
1, 234807, Note_on_c, 4, 76, 127
1, 235014, Note_off_c, 4, 76, 127
1, 235014, Note_off_c, 4, 64, 127
1, 235014, Note_off_c, 0, 60, 127
1, 235016, Note_on_c, 5, 77, 127
1, 235016, Note_on_c, 4, 64, 127
1, 235016, Note_on_c, 0, 60, 127
1, 235223, Note_off_c, 0, 60, 127
1, 235223, Note_off_c, 4, 64, 127
1, 235223, Note_off_c, 5, 77, 127
1, 235225, Note_on_c, 7, 79, 127
1, 235225, Note_on_c, 2, 62, 127
1, 235225, Note_on_c, 12, 59, 127
1, 235642, Note_off_c, 7, 79, 127
1, 235644, Note_on_c, 0, 72, 127
1, 235747, Note_off_c, 0, 72, 127
1, 235749, Note_on_c, 12, 71, 127
1, 235852, Note_off_c, 12, 71, 127
1, 235852, Note_off_c, 12, 59, 127
1, 235852, Note_off_c, 2, 62, 127
1, 235854, Note_on_c, 10, 69, 127
1, 235854, Note_on_c, 2, 62, 127
1, 235854, Note_on_c, 12, 59, 127
1, 235957, Note_off_c, 10, 69, 127
1, 235959, Note_on_c, 12, 71, 127
1, 236062, Note_off_c, 12, 71, 127
1, 236062, Note_off_c, 12, 59, 127
1, 236062, Note_off_c, 2, 62, 127
1, 236064, Note_on_c, 0, 72, 127
1, 236064, Note_on_c, 4, 64, 127
1, 236064, Note_on_c, 10, 57, 127
1, 236271, Note_off_c, 0, 72, 127
1, 236273, Note_on_c, 12, 71, 127
1, 236480, Note_off_c, 12, 71, 127
1, 236482, Note_on_c, 0, 72, 127
1, 237093, Note_off_c, 0, 72, 127
1, 237110, Note_off_c, 10, 57, 127
1, 237317, Note_off_c, 4, 64, 127
1, 237319, Note_on_c, 0, 72, 127
1, 237319, Note_on_c, 5, 65, 127
1, 237319, Note_on_c, 10, 57, 127
1, 237736, Note_off_c, 10, 57, 127
1, 237736, Note_off_c, 0, 72, 127
1, 237738, Note_on_c, 2, 74, 127
1, 237738, Note_on_c, 12, 59, 127
1, 238155, Note_off_c, 2, 74, 127
1, 238157, Note_on_c, 4, 76, 127
1, 238364, Note_off_c, 12, 59, 127
1, 238366, Note_off_c, 5, 65, 127
1, 238366, Note_on_c, 7, 67, 127
1, 238366, Note_on_c, 12, 59, 127
1, 238573, Note_off_c, 12, 59, 127
1, 238573, Note_off_c, 7, 67, 127
1, 238573, Note_off_c, 4, 76, 127
1, 238575, Note_on_c, 5, 77, 127
1, 238575, Note_on_c, 7, 67, 127
1, 238575, Note_on_c, 12, 59, 127
1, 238992, Note_off_c, 5, 77, 127
1, 238994, Note_on_c, 7, 79, 127
1, 239201, Note_off_c, 7, 79, 127
1, 239201, Note_off_c, 12, 59, 127
1, 239201, Note_off_c, 7, 67, 127
1, 239203, Note_on_c, 5, 77, 127
1, 239203, Note_on_c, 7, 67, 127
1, 239203, Note_on_c, 12, 59, 127
1, 239410, Note_off_c, 12, 59, 127
1, 239410, Note_off_c, 7, 67, 127
1, 239410, Note_off_c, 5, 77, 127
1, 239412, Note_on_c, 4, 76, 127
1, 239412, Note_on_c, 0, 60, 127
1, 239412, Note_on_c, 0, 48, 127
1, 239412, Note_on_c, 7, 67, 127
1, 239619, Note_off_c, 4, 76, 127
1, 239621, Note_on_c, 2, 74, 127
1, 239828, Note_off_c, 2, 74, 127
1, 239830, Note_on_c, 0, 72, 127
1, 240247, Note_off_c, 7, 67, 127
1, 240247, Note_off_c, 0, 48, 127
1, 240249, Note_on_c, 4, 52, 127
1, 240441, Note_off_c, 0, 72, 127
1, 240875, Note_off_c, 4, 52, 127
1, 240877, Note_on_c, 5, 53, 127
1, 241084, Note_off_c, 5, 53, 127
1, 241084, Note_off_c, 0, 60, 127
1, 241086, Note_on_c, 2, 74, 127
1, 241086, Note_on_c, 7, 55, 127
1, 241086, Note_on_c, 12, 59, 127
1, 241086, Note_on_c, 7, 67, 127
1, 241503, Note_off_c, 12, 59, 127
1, 241503, Note_off_c, 2, 74, 127
1, 241505, Note_on_c, 4, 76, 127
1, 241505, Note_on_c, 7, 43, 127
1, 241697, Note_off_c, 7, 67, 127
1, 241712, Note_off_c, 7, 43, 127
1, 241712, Note_off_c, 4, 76, 127
1, 241714, Note_on_c, 5, 77, 127
1, 241714, Note_on_c, 7, 67, 127
1, 241714, Note_on_c, 12, 59, 127
1, 241915, Note_off_c, 7, 55, 127
1, 241922, Note_off_c, 12, 59, 127
1, 241922, Note_off_c, 7, 67, 127
1, 241922, Note_off_c, 5, 77, 127
1, 241924, Note_on_c, 7, 79, 127
1, 241924, Note_on_c, 12, 59, 127
1, 241924, Note_on_c, 2, 62, 127
1, 242341, Note_off_c, 7, 79, 127
1, 242343, Note_on_c, 12, 71, 127
1, 242550, Note_off_c, 2, 62, 127
1, 242550, Note_off_c, 12, 59, 127
1, 242552, Note_on_c, 12, 59, 127
1, 242552, Note_on_c, 2, 62, 127
1, 242759, Note_off_c, 2, 62, 127
1, 242759, Note_off_c, 12, 59, 127
1, 242759, Note_off_c, 12, 71, 127
1, 242761, Note_on_c, 0, 72, 127
1, 242761, Note_on_c, 4, 64, 127
1, 242761, Note_on_c, 10, 57, 127
1, 243387, Note_off_c, 0, 72, 127
1, 243389, Note_on_c, 12, 71, 127
1, 243590, Note_off_c, 10, 57, 127
1, 243590, Note_off_c, 4, 64, 127
1, 243597, Note_off_c, 12, 71, 127
1, 243599, Note_on_c, 0, 72, 127
1, 243806, Note_off_c, 0, 72, 127
1, 243808, Note_on_c, 2, 74, 127
1, 244015, Note_off_c, 2, 74, 127
1, 244017, Note_on_c, 4, 76, 127
1, 244224, Note_off_c, 4, 76, 127
1, 244226, Note_on_c, 5, 77, 127
1, 244433, Note_off_c, 5, 77, 127
1, 244435, Note_on_c, 12, 71, 127
1, 244435, Note_on_c, 7, 55, 127
1, 244435, Note_on_c, 4, 64, 127
1, 244852, Note_off_c, 12, 71, 127
1, 244854, Note_on_c, 0, 72, 127
1, 245061, Note_off_c, 0, 72, 127
1, 245061, Note_off_c, 4, 64, 127
1, 245061, Note_off_c, 7, 55, 127
1, 245063, Note_on_c, 2, 74, 127
1, 245063, Note_on_c, 4, 64, 127
1, 245063, Note_on_c, 7, 55, 127
1, 245270, Note_off_c, 7, 55, 127
1, 245270, Note_off_c, 4, 64, 127
1, 245270, Note_off_c, 2, 74, 127
1, 245272, Note_on_c, 4, 76, 127
1, 245272, Note_on_c, 12, 59, 127
1, 245272, Note_on_c, 7, 55, 127
1, 245689, Note_off_c, 4, 76, 127
1, 245691, Note_on_c, 7, 67, 127
1, 245898, Note_off_c, 7, 55, 127
1, 245898, Note_off_c, 12, 59, 127
1, 245900, Note_on_c, 12, 59, 127
1, 245900, Note_on_c, 7, 55, 127
1, 246107, Note_off_c, 7, 55, 127
1, 246107, Note_off_c, 12, 59, 127
1, 246107, Note_off_c, 7, 67, 127
1, 246109, Note_on_c, 10, 69, 127
1, 246109, Note_on_c, 0, 60, 127
1, 246109, Note_on_c, 5, 53, 127
1, 246735, Note_off_c, 10, 69, 127
1, 246737, Note_on_c, 7, 67, 127
1, 246938, Note_off_c, 5, 53, 127
1, 246938, Note_off_c, 0, 60, 127
1, 246945, Note_off_c, 7, 67, 127
1, 246947, Note_on_c, 5, 65, 127
1, 247154, Note_off_c, 5, 65, 127
1, 247156, Note_on_c, 7, 67, 127
1, 247363, Note_off_c, 7, 67, 127
1, 247365, Note_on_c, 10, 69, 127
1, 247572, Note_off_c, 10, 69, 127
1, 247574, Note_on_c, 12, 71, 127
1, 247781, Note_off_c, 12, 71, 127
1, 247783, Note_on_c, 0, 72, 127
1, 247783, Note_on_c, 6, 54, 127
1, 247783, Note_on_c, 10, 57, 127
1, 248200, Note_off_c, 0, 72, 127
1, 248202, Note_on_c, 2, 74, 127
1, 248409, Note_off_c, 2, 74, 127
1, 248409, Note_off_c, 10, 57, 127
1, 248409, Note_off_c, 6, 54, 127
1, 248411, Note_on_c, 4, 76, 127
1, 248411, Note_on_c, 6, 54, 127
1, 248411, Note_on_c, 10, 57, 127
1, 248618, Note_off_c, 10, 57, 127
1, 248618, Note_off_c, 6, 54, 127
1, 248618, Note_off_c, 4, 76, 127
1, 248620, Note_on_c, 2, 74, 127
1, 248620, Note_on_c, 2, 50, 127
1, 248620, Note_on_c, 6, 54, 127
1, 249037, Note_off_c, 2, 74, 127
1, 249039, Note_on_c, 0, 72, 127
1, 249246, Note_off_c, 6, 54, 127
1, 249246, Note_off_c, 2, 50, 127
1, 249248, Note_on_c, 2, 50, 127
1, 249248, Note_on_c, 6, 54, 127
1, 249455, Note_off_c, 6, 54, 127
1, 249455, Note_off_c, 2, 50, 127
1, 249455, Note_off_c, 0, 72, 127
1, 249457, Note_on_c, 12, 71, 127
1, 249457, Note_on_c, 7, 55, 127
1, 249874, Note_off_c, 12, 71, 127
1, 249876, Note_on_c, 10, 69, 127
1, 250083, Note_off_c, 10, 69, 127
1, 250083, Note_off_c, 7, 55, 127
1, 250085, Note_on_c, 7, 67, 127
1, 250085, Note_on_c, 12, 59, 127
1, 250085, Note_on_c, 7, 55, 127
1, 250292, Note_off_c, 7, 55, 127
1, 250292, Note_off_c, 12, 59, 127
1, 250292, Note_off_c, 7, 67, 127
1, 250294, Note_on_c, 7, 79, 127
1, 250294, Note_on_c, 2, 62, 127
1, 250294, Note_on_c, 12, 59, 127
1, 250711, Note_off_c, 7, 79, 127
1, 250713, Note_on_c, 6, 78, 127
1, 250920, Note_off_c, 6, 78, 127
1, 250920, Note_off_c, 12, 59, 127
1, 250920, Note_off_c, 2, 62, 127
1, 250922, Note_on_c, 4, 76, 127
1, 250922, Note_on_c, 2, 62, 127
1, 250922, Note_on_c, 12, 59, 127
1, 251129, Note_off_c, 12, 59, 127
1, 251129, Note_off_c, 2, 62, 127
1, 251129, Note_off_c, 4, 76, 127
1, 251131, Note_on_c, 2, 74, 127
1, 251131, Note_on_c, 0, 60, 127
1, 251131, Note_on_c, 7, 67, 127
1, 251548, Note_off_c, 2, 74, 127
1, 251550, Note_on_c, 0, 72, 127
1, 251757, Note_off_c, 0, 72, 127
1, 251757, Note_off_c, 7, 67, 127
1, 251757, Note_off_c, 0, 60, 127
1, 251759, Note_on_c, 12, 71, 127
1, 251759, Note_on_c, 0, 60, 127
1, 251759, Note_on_c, 7, 67, 127
1, 251966, Note_off_c, 7, 67, 127
1, 251966, Note_off_c, 0, 60, 127
1, 251966, Note_off_c, 12, 71, 127
1, 251968, Note_on_c, 12, 71, 127
1, 251968, Note_on_c, 7, 67, 127
1, 251968, Note_on_c, 2, 62, 127
1, 252105, Note_off_c, 12, 71, 127
1, 252107, Note_on_c, 10, 69, 127
1, 252175, Note_off_c, 10, 69, 127
1, 252177, Note_on_c, 12, 71, 127
1, 252245, Note_off_c, 12, 71, 127
1, 252247, Note_on_c, 10, 69, 127
1, 252315, Note_off_c, 10, 69, 127
1, 252317, Note_on_c, 12, 71, 127
1, 252385, Note_off_c, 12, 71, 127
1, 252385, Note_off_c, 7, 67, 127
1, 252387, Note_on_c, 10, 69, 127
1, 252387, Note_on_c, 6, 66, 127
1, 252579, Note_off_c, 2, 62, 127
1, 252594, Note_off_c, 10, 69, 127
1, 252596, Note_on_c, 7, 67, 127
1, 252596, Note_on_c, 2, 62, 127
1, 252801, Note_off_c, 6, 66, 127
1, 252803, Note_off_c, 2, 62, 127
1, 252803, Note_off_c, 7, 67, 127
1, 252805, Note_on_c, 7, 67, 127
1, 252805, Note_on_c, 7, 43, 127
1, 252805, Note_on_c, 7, 55, 127
1, 253641, Note_off_c, 7, 43, 127
1, 253643, Note_on_c, 10, 45, 127
1, 254267, Note_off_c, 7, 55, 127
1, 254269, Note_off_c, 10, 45, 127
1, 254271, Note_on_c, 12, 47, 127
1, 254478, Note_off_c, 12, 47, 127
1, 254478, Note_off_c, 7, 67, 127
1, 254480, Note_on_c, 0, 72, 127
1, 254480, Note_on_c, 4, 64, 127
1, 254480, Note_on_c, 0, 48, 127
1, 254480, Note_on_c, 7, 67, 127
1, 254897, Note_off_c, 0, 72, 127
1, 254899, Note_on_c, 4, 76, 127
1, 254899, Note_on_c, 0, 36, 127
1, 255004, Note_off_c, 0, 48, 127
1, 255091, Note_off_c, 7, 67, 127
1, 255091, Note_off_c, 4, 64, 127
1, 255106, Note_off_c, 0, 36, 127
1, 255106, Note_off_c, 4, 76, 127
1, 255108, Note_on_c, 5, 77, 127
1, 255108, Note_on_c, 4, 64, 127
1, 255108, Note_on_c, 0, 60, 127
1, 255315, Note_off_c, 0, 60, 127
1, 255315, Note_off_c, 4, 64, 127
1, 255315, Note_off_c, 5, 77, 127
1, 255317, Note_on_c, 7, 79, 127
1, 255317, Note_on_c, 2, 62, 127
1, 255317, Note_on_c, 12, 59, 127
1, 255734, Note_off_c, 7, 79, 127
1, 255736, Note_on_c, 12, 71, 127
1, 255943, Note_off_c, 12, 59, 127
1, 255943, Note_off_c, 2, 62, 127
1, 255945, Note_on_c, 2, 62, 127
1, 255945, Note_on_c, 12, 59, 127
1, 256152, Note_off_c, 12, 59, 127
1, 256152, Note_off_c, 2, 62, 127
1, 256152, Note_off_c, 12, 71, 127
1, 256154, Note_on_c, 0, 72, 127
1, 256154, Note_on_c, 4, 64, 127
1, 256154, Note_on_c, 10, 57, 127
1, 256361, Note_off_c, 0, 72, 127
1, 256363, Note_on_c, 12, 71, 127
1, 256570, Note_off_c, 12, 71, 127
1, 256572, Note_on_c, 0, 72, 127
1, 257183, Note_off_c, 0, 72, 127
1, 257200, Note_off_c, 10, 57, 127
1, 257407, Note_off_c, 4, 64, 127
1, 257409, Note_on_c, 0, 72, 127
1, 257409, Note_on_c, 0, 60, 127
1, 257409, Note_on_c, 4, 52, 127
1, 257826, Note_off_c, 4, 52, 127
1, 257826, Note_off_c, 0, 60, 127
1, 257826, Note_off_c, 0, 72, 127
1, 257828, Note_on_c, 2, 74, 127
1, 257828, Note_on_c, 0, 60, 127
1, 257828, Note_on_c, 5, 53, 127
1, 258245, Note_off_c, 2, 74, 127
1, 258247, Note_on_c, 4, 76, 127
1, 258454, Note_off_c, 5, 53, 127
1, 258454, Note_off_c, 0, 60, 127
1, 258456, Note_on_c, 0, 60, 127
1, 258456, Note_on_c, 5, 53, 127
1, 258663, Note_off_c, 5, 53, 127
1, 258663, Note_off_c, 0, 60, 127
1, 258663, Note_off_c, 4, 76, 127
1, 258665, Note_on_c, 5, 77, 127
1, 258665, Note_on_c, 12, 59, 127
1, 258665, Note_on_c, 7, 55, 127
1, 259082, Note_off_c, 5, 77, 127
1, 259084, Note_on_c, 7, 79, 127
1, 259291, Note_off_c, 7, 79, 127
1, 259291, Note_off_c, 7, 55, 127
1, 259291, Note_off_c, 12, 59, 127
1, 259293, Note_on_c, 5, 77, 127
1, 259293, Note_on_c, 12, 59, 127
1, 259293, Note_on_c, 7, 55, 127
1, 259500, Note_off_c, 7, 55, 127
1, 259500, Note_off_c, 12, 59, 127
1, 259500, Note_off_c, 5, 77, 127
1, 259502, Note_on_c, 4, 76, 127
1, 259502, Note_on_c, 0, 60, 127
1, 259502, Note_on_c, 0, 48, 127
1, 259502, Note_on_c, 7, 55, 127
1, 259709, Note_off_c, 4, 76, 127
1, 259711, Note_on_c, 2, 74, 127
1, 259918, Note_off_c, 2, 74, 127
1, 259920, Note_on_c, 0, 72, 127
1, 260337, Note_off_c, 7, 55, 127
1, 260337, Note_off_c, 0, 48, 127
1, 260337, Note_off_c, 0, 60, 127
1, 260339, Note_on_c, 4, 52, 127
1, 260749, Note_off_c, 0, 72, 127
1, 260965, Note_off_c, 4, 52, 127
1, 260967, Note_on_c, 5, 53, 127
1, 261174, Note_off_c, 5, 53, 127
1, 261176, Note_on_c, 2, 74, 127
1, 261176, Note_on_c, 12, 59, 127
1, 261176, Note_on_c, 7, 55, 127
1, 261593, Note_off_c, 12, 59, 127
1, 261593, Note_off_c, 2, 74, 127
1, 261595, Note_on_c, 4, 76, 127
1, 261595, Note_on_c, 7, 43, 127
1, 261787, Note_off_c, 7, 55, 127
1, 261802, Note_off_c, 7, 43, 127
1, 261802, Note_off_c, 4, 76, 127
1, 261804, Note_on_c, 5, 77, 127
1, 261804, Note_on_c, 7, 55, 127
1, 261804, Note_on_c, 12, 59, 127
1, 262011, Note_off_c, 12, 59, 127
1, 262011, Note_off_c, 7, 55, 127
1, 262011, Note_off_c, 5, 77, 127
1, 262013, Note_on_c, 4, 76, 127
1, 262013, Note_on_c, 8, 56, 127
1, 262013, Note_on_c, 12, 59, 127
1, 262220, Note_off_c, 4, 76, 127
1, 262222, Note_on_c, 2, 74, 127
1, 262429, Note_off_c, 2, 74, 127
1, 262431, Note_on_c, 0, 72, 127
1, 262638, Note_off_c, 0, 72, 127
1, 262638, Note_off_c, 12, 59, 127
1, 262638, Note_off_c, 8, 56, 127
1, 262640, Note_on_c, 12, 71, 127
1, 262640, Note_on_c, 12, 59, 127
1, 262640, Note_on_c, 8, 56, 127
1, 262847, Note_off_c, 8, 56, 127
1, 262847, Note_off_c, 12, 59, 127
1, 262847, Note_off_c, 12, 71, 127
1, 262849, Note_on_c, 0, 72, 127
1, 262849, Note_on_c, 10, 57, 127
1, 262849, Note_on_c, 4, 64, 127
1, 263266, Note_off_c, 0, 72, 127
1, 263268, Note_on_c, 12, 71, 127
1, 263475, Note_off_c, 12, 71, 127
1, 263477, Note_on_c, 10, 69, 127
1, 263684, Note_off_c, 10, 69, 127
1, 263686, Note_on_c, 5, 77, 127
1, 263893, Note_off_c, 5, 77, 127
1, 263895, Note_on_c, 2, 74, 127
1, 264102, Note_off_c, 2, 74, 127
1, 264102, Note_off_c, 4, 64, 127
1, 264102, Note_off_c, 10, 57, 127
1, 264104, Note_on_c, 4, 76, 127
1, 264311, Note_off_c, 4, 76, 127
1, 264313, Note_on_c, 0, 72, 127
1, 264313, Note_on_c, 5, 65, 127
1, 264313, Note_on_c, 10, 57, 127
1, 264520, Note_off_c, 10, 57, 127
1, 264520, Note_off_c, 5, 65, 127
1, 264520, Note_off_c, 0, 72, 127
1, 264522, Note_on_c, 12, 71, 127
1, 264522, Note_on_c, 7, 55, 127
1, 264522, Note_on_c, 5, 65, 127
1, 264939, Note_off_c, 12, 71, 127
1, 264941, Note_on_c, 0, 72, 127
1, 265148, Note_off_c, 0, 72, 127
1, 265148, Note_off_c, 5, 65, 127
1, 265148, Note_off_c, 7, 55, 127
1, 265150, Note_on_c, 2, 74, 127
1, 265150, Note_on_c, 12, 59, 127
1, 265150, Note_on_c, 7, 55, 127
1, 265357, Note_off_c, 7, 55, 127
1, 265357, Note_off_c, 12, 59, 127
1, 265357, Note_off_c, 2, 74, 127
1, 265359, Note_on_c, 4, 76, 127
1, 265359, Note_on_c, 7, 55, 127
1, 265359, Note_on_c, 12, 59, 127
1, 265566, Note_off_c, 4, 76, 127
1, 265568, Note_on_c, 2, 74, 127
1, 265775, Note_off_c, 2, 74, 127
1, 265777, Note_on_c, 0, 72, 127
1, 265984, Note_off_c, 0, 72, 127
1, 265984, Note_off_c, 12, 59, 127
1, 265984, Note_off_c, 7, 55, 127
1, 265986, Note_on_c, 12, 71, 127
1, 265986, Note_on_c, 4, 64, 127
1, 265986, Note_on_c, 7, 55, 127
1, 266193, Note_off_c, 7, 55, 127
1, 266193, Note_off_c, 4, 64, 127
1, 266193, Note_off_c, 12, 71, 127
1, 266195, Note_on_c, 10, 69, 127
1, 266195, Note_on_c, 5, 53, 127
1, 266195, Note_on_c, 4, 64, 127
1, 266612, Note_off_c, 10, 69, 127
1, 266614, Note_on_c, 12, 71, 127
1, 266821, Note_off_c, 12, 71, 127
1, 266821, Note_off_c, 4, 64, 127
1, 266821, Note_off_c, 5, 53, 127
1, 266823, Note_on_c, 0, 72, 127
1, 266823, Note_on_c, 5, 53, 127
1, 266823, Note_on_c, 10, 57, 127
1, 267030, Note_off_c, 10, 57, 127
1, 267030, Note_off_c, 5, 53, 127
1, 267030, Note_off_c, 0, 72, 127
1, 267032, Note_on_c, 2, 74, 127
1, 267032, Note_on_c, 10, 57, 127
1, 267032, Note_on_c, 5, 53, 127
1, 267239, Note_off_c, 2, 74, 127
1, 267241, Note_on_c, 12, 71, 127
1, 267448, Note_off_c, 12, 71, 127
1, 267450, Note_on_c, 0, 72, 127
1, 267657, Note_off_c, 0, 72, 127
1, 267657, Note_off_c, 5, 53, 127
1, 267657, Note_off_c, 10, 57, 127
1, 267659, Note_on_c, 10, 69, 127
1, 267659, Note_on_c, 5, 53, 127
1, 267659, Note_on_c, 2, 62, 127
1, 267866, Note_off_c, 2, 62, 127
1, 267866, Note_off_c, 5, 53, 127
1, 267866, Note_off_c, 10, 69, 127
1, 267868, Note_on_c, 8, 68, 127
1, 267868, Note_on_c, 4, 52, 127
1, 267868, Note_on_c, 2, 62, 127
1, 268285, Note_off_c, 8, 68, 127
1, 268287, Note_on_c, 4, 64, 127
1, 268704, Note_off_c, 4, 64, 127
1, 268704, Note_off_c, 2, 62, 127
1, 268704, Note_off_c, 4, 52, 127
1, 268706, Note_on_c, 4, 76, 127
1, 268706, Note_on_c, 12, 59, 127
1, 268706, Note_on_c, 8, 56, 127
1, 269332, Note_off_c, 8, 56, 127
1, 269332, Note_off_c, 12, 59, 127
1, 269332, Note_off_c, 4, 76, 127
1, 269334, Note_on_c, 2, 74, 127
1, 269334, Note_on_c, 8, 56, 127
1, 269334, Note_on_c, 12, 59, 127
1, 269541, Note_off_c, 12, 59, 127
1, 269541, Note_off_c, 8, 56, 127
1, 269541, Note_off_c, 2, 74, 127
1, 269543, Note_on_c, 0, 72, 127
1, 269543, Note_on_c, 4, 64, 127
1, 269543, Note_on_c, 10, 57, 127
1, 269960, Note_off_c, 0, 72, 127
1, 269962, Note_on_c, 12, 71, 127
1, 270169, Note_off_c, 12, 71, 127
1, 270169, Note_off_c, 10, 57, 127
1, 270169, Note_off_c, 4, 64, 127
1, 270171, Note_on_c, 10, 69, 127
1, 270171, Note_on_c, 2, 62, 127
1, 270171, Note_on_c, 5, 65, 127
1, 270378, Note_off_c, 5, 65, 127
1, 270378, Note_off_c, 2, 62, 127
1, 270378, Note_off_c, 10, 69, 127
1, 270380, Note_on_c, 10, 69, 127
1, 270380, Note_on_c, 4, 64, 127
1, 270587, Note_off_c, 10, 69, 127
1, 270589, Note_on_c, 8, 68, 127
1, 270692, Note_off_c, 8, 68, 127
1, 270694, Note_on_c, 10, 69, 127
1, 270797, Note_off_c, 10, 69, 127
1, 270799, Note_on_c, 8, 68, 127
1, 270799, Note_on_c, 4, 52, 127
1, 270991, Note_off_c, 4, 64, 127
1, 271006, Note_off_c, 8, 68, 127
1, 271008, Note_on_c, 10, 69, 127
1, 271008, Note_on_c, 2, 62, 127
1, 271213, Note_off_c, 4, 52, 127
1, 271215, Note_off_c, 2, 62, 127
1, 271215, Note_off_c, 10, 69, 127
1, 271217, Note_on_c, 10, 69, 127
1, 271217, Note_on_c, 0, 60, 127
1, 271217, Note_on_c, 10, 57, 127
1, 271217, Note_on_c, 10, 45, 127
1, 272046, Note_off_c, 10, 69, 127
1, 272053, Note_off_c, 10, 45, 127
1, 272053, Note_off_c, 0, 60, 127
1, 272055, Note_on_c, 0, 48, 127
1, 272679, Note_off_c, 10, 57, 127
1, 272681, Note_off_c, 0, 48, 127
1, 272683, Note_on_c, 2, 50, 127
1, 272890, Note_off_c, 2, 50, 127
1, 272892, Note_on_c, 12, 71, 127
1, 272892, Note_on_c, 4, 52, 127
1, 272892, Note_on_c, 8, 56, 127
1, 272892, Note_on_c, 4, 64, 127
1, 273309, Note_off_c, 8, 56, 127
1, 273309, Note_off_c, 12, 71, 127
1, 273311, Note_on_c, 0, 72, 127
1, 273311, Note_on_c, 4, 40, 127
1, 273503, Note_off_c, 4, 64, 127
1, 273518, Note_off_c, 4, 40, 127
1, 273518, Note_off_c, 0, 72, 127
1, 273520, Note_on_c, 2, 74, 127
1, 273520, Note_on_c, 8, 56, 127
1, 273520, Note_on_c, 4, 64, 127
1, 273721, Note_off_c, 4, 52, 127
1, 273728, Note_off_c, 4, 64, 127
1, 273728, Note_off_c, 8, 56, 127
1, 273728, Note_off_c, 2, 74, 127
1, 273730, Note_on_c, 4, 76, 127
1, 273730, Note_on_c, 8, 56, 127
1, 273730, Note_on_c, 12, 59, 127
1, 274356, Note_off_c, 12, 59, 127
1, 274356, Note_off_c, 8, 56, 127
1, 274356, Note_off_c, 4, 76, 127
1, 274358, Note_on_c, 2, 74, 127
1, 274358, Note_on_c, 8, 56, 127
1, 274358, Note_on_c, 12, 59, 127
1, 274565, Note_off_c, 12, 59, 127
1, 274565, Note_off_c, 8, 56, 127
1, 274565, Note_off_c, 2, 74, 127
1, 274567, Note_on_c, 0, 72, 127
1, 274567, Note_on_c, 4, 64, 127
1, 274567, Note_on_c, 10, 57, 127
1, 274774, Note_off_c, 0, 72, 127
1, 274776, Note_on_c, 12, 71, 127
1, 274983, Note_off_c, 12, 71, 127
1, 274983, Note_off_c, 4, 64, 127
1, 274985, Note_on_c, 10, 69, 127
1, 274985, Note_on_c, 5, 65, 127
1, 275192, Note_off_c, 5, 65, 127
1, 275194, Note_on_c, 7, 67, 127
1, 275395, Note_off_c, 10, 57, 127
1, 275399, Note_off_c, 10, 69, 127
1, 275401, Note_off_c, 7, 67, 127
1, 275403, Note_on_c, 10, 69, 127
1, 275612, Note_on_c, 7, 67, 127
1, 275819, Note_off_c, 7, 67, 127
1, 275821, Note_on_c, 5, 65, 127
1, 276013, Note_off_c, 10, 69, 127
1, 276028, Note_off_c, 5, 65, 127
1, 276030, Note_on_c, 4, 64, 127
1, 276237, Note_off_c, 4, 64, 127
1, 276239, Note_on_c, 0, 72, 127
1, 276239, Note_on_c, 10, 57, 127
1, 276239, Note_on_c, 5, 65, 127
1, 276656, Note_off_c, 0, 72, 127
1, 276658, Note_on_c, 2, 74, 127
1, 276865, Note_off_c, 2, 74, 127
1, 276865, Note_off_c, 5, 65, 127
1, 276865, Note_off_c, 10, 57, 127
1, 276867, Note_on_c, 4, 76, 127
1, 276867, Note_on_c, 10, 57, 127
1, 276867, Note_on_c, 5, 65, 127
1, 277074, Note_off_c, 5, 65, 127
1, 277074, Note_off_c, 10, 57, 127
1, 277074, Note_off_c, 4, 76, 127
1, 277076, Note_on_c, 5, 77, 127
1, 277076, Note_on_c, 0, 60, 127
1, 277076, Note_on_c, 5, 65, 127
1, 277076, Note_on_c, 10, 57, 127
1, 277283, Note_off_c, 5, 77, 127
1, 277285, Note_on_c, 4, 76, 127
1, 277492, Note_off_c, 4, 76, 127
1, 277494, Note_on_c, 2, 74, 127
1, 277701, Note_off_c, 2, 74, 127
1, 277701, Note_off_c, 10, 57, 127
1, 277701, Note_off_c, 5, 65, 127
1, 277701, Note_off_c, 0, 60, 127
1, 277703, Note_on_c, 0, 72, 127
1, 277703, Note_on_c, 10, 57, 127
1, 277703, Note_on_c, 0, 60, 127
1, 277910, Note_off_c, 0, 60, 127
1, 277910, Note_off_c, 10, 57, 127
1, 277910, Note_off_c, 0, 72, 127
1, 277912, Note_on_c, 2, 74, 127
1, 277912, Note_on_c, 12, 59, 127
1, 277912, Note_on_c, 7, 67, 127
1, 278119, Note_off_c, 2, 74, 127
1, 278121, Note_on_c, 0, 72, 127
1, 278328, Note_off_c, 0, 72, 127
1, 278330, Note_on_c, 12, 71, 127
1, 278537, Note_off_c, 7, 67, 127
1, 278537, Note_off_c, 12, 59, 127
1, 278539, Note_on_c, 7, 67, 127
1, 278744, Note_off_c, 12, 71, 127
1, 278746, Note_off_c, 7, 67, 127
1, 278748, Note_on_c, 5, 65, 127
1, 278955, Note_off_c, 5, 65, 127
1, 278957, Note_on_c, 4, 64, 127
1, 279164, Note_off_c, 4, 64, 127
1, 279166, Note_on_c, 2, 62, 127
1, 279373, Note_off_c, 2, 62, 127
1, 279375, Note_on_c, 0, 60, 127
1, 279582, Note_off_c, 0, 60, 127
1, 279584, Note_on_c, 2, 74, 127
1, 279584, Note_on_c, 12, 59, 127
1, 279584, Note_on_c, 7, 67, 127
1, 280001, Note_off_c, 2, 74, 127
1, 280003, Note_on_c, 4, 76, 127
1, 280210, Note_off_c, 4, 76, 127
1, 280210, Note_off_c, 7, 67, 127
1, 280210, Note_off_c, 12, 59, 127
1, 280212, Note_on_c, 5, 77, 127
1, 280212, Note_on_c, 12, 59, 127
1, 280212, Note_on_c, 7, 67, 127
1, 280419, Note_off_c, 7, 67, 127
1, 280419, Note_off_c, 12, 59, 127
1, 280419, Note_off_c, 5, 77, 127
1, 280421, Note_on_c, 7, 79, 127
1, 280421, Note_on_c, 12, 59, 127
1, 280421, Note_on_c, 2, 62, 127
1, 280628, Note_off_c, 7, 79, 127
1, 280630, Note_on_c, 5, 77, 127
1, 280837, Note_off_c, 5, 77, 127
1, 280839, Note_on_c, 4, 76, 127
1, 281046, Note_off_c, 4, 76, 127
1, 281046, Note_off_c, 2, 62, 127
1, 281046, Note_off_c, 12, 59, 127
1, 281048, Note_on_c, 2, 74, 127
1, 281048, Note_on_c, 2, 62, 127
1, 281048, Note_on_c, 12, 59, 127
1, 281255, Note_off_c, 12, 59, 127
1, 281255, Note_off_c, 2, 62, 127
1, 281255, Note_off_c, 2, 74, 127
1, 281257, Note_on_c, 4, 76, 127
1, 281257, Note_on_c, 7, 67, 127
1, 281257, Note_on_c, 0, 60, 127
1, 281257, Note_on_c, 0, 48, 127
1, 281464, Note_off_c, 4, 76, 127
1, 281466, Note_on_c, 2, 74, 127
1, 281673, Note_off_c, 2, 74, 127
1, 281675, Note_on_c, 0, 72, 127
1, 282092, Note_off_c, 0, 48, 127
1, 282092, Note_off_c, 7, 67, 127
1, 282094, Note_on_c, 4, 52, 127
1, 282504, Note_off_c, 0, 72, 127
1, 282718, Note_off_c, 0, 60, 127
1, 282720, Note_off_c, 4, 52, 127
1, 282722, Note_on_c, 5, 53, 127
1, 282929, Note_off_c, 5, 53, 127
1, 282931, Note_on_c, 2, 74, 127
1, 282931, Note_on_c, 12, 59, 127
1, 282931, Note_on_c, 7, 55, 127
1, 282931, Note_on_c, 7, 67, 127
1, 283348, Note_off_c, 12, 59, 127
1, 283348, Note_off_c, 2, 74, 127
1, 283350, Note_on_c, 4, 76, 127
1, 283350, Note_on_c, 7, 43, 127
1, 283542, Note_off_c, 7, 67, 127
1, 283557, Note_off_c, 7, 43, 127
1, 283557, Note_off_c, 4, 76, 127
1, 283559, Note_on_c, 5, 77, 127
1, 283559, Note_on_c, 12, 59, 127
1, 283559, Note_on_c, 7, 67, 127
1, 283760, Note_off_c, 7, 55, 127
1, 283767, Note_off_c, 7, 67, 127
1, 283767, Note_off_c, 12, 59, 127
1, 283767, Note_off_c, 5, 77, 127
1, 283769, Note_on_c, 7, 79, 127
1, 283769, Note_on_c, 12, 59, 127
1, 283769, Note_on_c, 2, 62, 127
1, 283976, Note_off_c, 7, 79, 127
1, 283978, Note_on_c, 5, 77, 127
1, 284185, Note_off_c, 5, 77, 127
1, 284187, Note_on_c, 4, 76, 127
1, 284394, Note_off_c, 4, 76, 127
1, 284394, Note_off_c, 2, 62, 127
1, 284394, Note_off_c, 12, 59, 127
1, 284396, Note_on_c, 2, 74, 127
1, 284396, Note_on_c, 12, 59, 127
1, 284396, Note_on_c, 7, 67, 127
1, 284603, Note_off_c, 7, 67, 127
1, 284603, Note_off_c, 12, 59, 127
1, 284603, Note_off_c, 2, 74, 127
1, 284605, Note_on_c, 0, 72, 127
1, 284605, Note_on_c, 10, 57, 127
1, 284605, Note_on_c, 7, 67, 127
1, 285022, Note_off_c, 0, 72, 127
1, 285024, Note_on_c, 2, 74, 127
1, 285231, Note_off_c, 2, 74, 127
1, 285233, Note_on_c, 4, 76, 127
1, 285434, Note_off_c, 7, 67, 127
1, 285434, Note_off_c, 10, 57, 127
1, 285441, Note_off_c, 4, 76, 127
1, 285443, Note_on_c, 5, 77, 127
1, 285650, Note_off_c, 5, 77, 127
1, 285652, Note_on_c, 4, 76, 127
1, 285859, Note_off_c, 4, 76, 127
1, 285861, Note_on_c, 2, 74, 127
1, 286068, Note_off_c, 2, 74, 127
1, 286070, Note_on_c, 0, 72, 127
1, 286070, Note_on_c, 10, 57, 127
1, 286070, Note_on_c, 5, 65, 127
1, 286277, Note_off_c, 5, 65, 127
1, 286277, Note_off_c, 10, 57, 127
1, 286277, Note_off_c, 0, 72, 127
1, 286279, Note_on_c, 12, 71, 127
1, 286279, Note_on_c, 5, 65, 127
1, 286279, Note_on_c, 7, 55, 127
1, 286696, Note_off_c, 12, 71, 127
1, 286698, Note_on_c, 0, 72, 127
1, 286905, Note_off_c, 0, 72, 127
1, 286905, Note_off_c, 7, 55, 127
1, 286905, Note_off_c, 5, 65, 127
1, 286907, Note_on_c, 2, 74, 127
1, 286907, Note_on_c, 12, 59, 127
1, 286907, Note_on_c, 7, 55, 127
1, 287114, Note_off_c, 7, 55, 127
1, 287114, Note_off_c, 12, 59, 127
1, 287114, Note_off_c, 2, 74, 127
1, 287116, Note_on_c, 4, 76, 127
1, 287116, Note_on_c, 7, 55, 127
1, 287116, Note_on_c, 12, 59, 127
1, 287323, Note_off_c, 4, 76, 127
1, 287325, Note_on_c, 2, 74, 127
1, 287532, Note_off_c, 2, 74, 127
1, 287534, Note_on_c, 0, 72, 127
1, 287741, Note_off_c, 0, 72, 127
1, 287741, Note_off_c, 12, 59, 127
1, 287741, Note_off_c, 7, 55, 127
1, 287743, Note_on_c, 12, 71, 127
1, 287743, Note_on_c, 7, 55, 127
1, 287743, Note_on_c, 4, 64, 127
1, 287950, Note_off_c, 4, 64, 127
1, 287950, Note_off_c, 7, 55, 127
1, 287950, Note_off_c, 12, 71, 127
1, 287952, Note_on_c, 10, 69, 127
1, 287952, Note_on_c, 4, 64, 127
1, 287952, Note_on_c, 5, 53, 127
1, 288369, Note_off_c, 10, 69, 127
1, 288371, Note_on_c, 12, 71, 127
1, 288578, Note_off_c, 12, 71, 127
1, 288580, Note_on_c, 0, 72, 127
1, 288781, Note_off_c, 5, 53, 127
1, 288781, Note_off_c, 4, 64, 127
1, 288788, Note_off_c, 0, 72, 127
1, 288790, Note_on_c, 2, 74, 127
1, 289207, Note_off_c, 2, 74, 127
1, 289209, Note_on_c, 4, 76, 127
1, 289416, Note_off_c, 4, 76, 127
1, 289418, Note_on_c, 5, 77, 127
1, 289418, Note_on_c, 2, 62, 127
1, 289418, Note_on_c, 5, 53, 127
1, 289625, Note_off_c, 5, 53, 127
1, 289625, Note_off_c, 2, 62, 127
1, 289625, Note_off_c, 5, 77, 127
1, 289627, Note_on_c, 12, 71, 127
1, 289627, Note_on_c, 2, 62, 127
1, 289627, Note_on_c, 7, 55, 127
1, 290044, Note_off_c, 12, 71, 127
1, 290046, Note_on_c, 10, 69, 127
1, 290253, Note_off_c, 10, 69, 127
1, 290253, Note_off_c, 7, 55, 127
1, 290253, Note_off_c, 2, 62, 127
1, 290255, Note_on_c, 7, 67, 127
1, 290255, Note_on_c, 12, 59, 127
1, 290255, Note_on_c, 7, 55, 127
1, 290462, Note_off_c, 7, 55, 127
1, 290462, Note_off_c, 12, 59, 127
1, 290462, Note_off_c, 7, 67, 127
1, 290464, Note_on_c, 0, 72, 127
1, 290464, Note_on_c, 7, 55, 127
1, 290464, Note_on_c, 4, 52, 127
1, 291090, Note_off_c, 4, 52, 127
1, 291090, Note_off_c, 7, 55, 127
1, 291092, Note_on_c, 0, 60, 127
1, 291092, Note_on_c, 4, 52, 127
1, 291299, Note_off_c, 4, 52, 127
1, 291299, Note_off_c, 0, 60, 127
1, 291301, Note_on_c, 10, 57, 127
1, 291301, Note_on_c, 5, 53, 127
1, 291508, Note_off_c, 0, 72, 127
1, 291510, Note_on_c, 4, 76, 127
1, 291717, Note_off_c, 4, 76, 127
1, 291719, Note_on_c, 2, 74, 127
1, 291926, Note_off_c, 2, 74, 127
1, 291926, Note_off_c, 5, 53, 127
1, 291926, Note_off_c, 10, 57, 127
1, 291928, Note_on_c, 0, 72, 127
1, 291928, Note_on_c, 5, 53, 127
1, 291928, Note_on_c, 2, 62, 127
1, 292135, Note_off_c, 2, 62, 127
1, 292135, Note_off_c, 5, 53, 127
1, 292135, Note_off_c, 0, 72, 127
1, 292137, Note_on_c, 12, 71, 127
1, 292137, Note_on_c, 2, 62, 127
1, 292137, Note_on_c, 7, 55, 127
1, 292763, Note_off_c, 7, 55, 127
1, 292763, Note_off_c, 2, 62, 127
1, 292763, Note_off_c, 12, 71, 127
1, 292765, Note_on_c, 0, 72, 127
1, 292765, Note_on_c, 7, 55, 127
1, 292765, Note_on_c, 5, 65, 127
1, 292972, Note_off_c, 5, 65, 127
1, 292972, Note_off_c, 7, 55, 127
1, 292972, Note_off_c, 0, 72, 127
1, 292974, Note_on_c, 0, 72, 127
1, 292974, Note_on_c, 4, 64, 127
1, 292974, Note_on_c, 7, 55, 127
1, 292974, Note_on_c, 0, 48, 127
1, 293803, Note_off_c, 0, 72, 127
1, 293810, Note_off_c, 0, 48, 127
1, 293810, Note_off_c, 4, 64, 127
1, 293812, Note_on_c, 4, 52, 127
1, 294229, Note_off_c, 7, 55, 127
1, 294438, Note_off_c, 4, 52, 127
1, 294440, Note_on_c, 5, 53, 127
1, 294647, Note_off_c, 5, 53, 127
1, 294649, Note_on_c, 2, 74, 127
1, 294649, Note_on_c, 7, 67, 127
1, 294649, Note_on_c, 7, 55, 127
1, 295066, Note_off_c, 2, 74, 127
1, 295068, Note_on_c, 4, 76, 127
1, 295068, Note_on_c, 7, 43, 127
1, 295260, Note_off_c, 7, 67, 127
1, 295275, Note_off_c, 7, 43, 127
1, 295275, Note_off_c, 4, 76, 127
1, 295277, Note_on_c, 5, 77, 127
1, 295277, Note_on_c, 7, 67, 127
1, 295277, Note_on_c, 12, 59, 127
1, 295478, Note_off_c, 7, 55, 127
1, 295485, Note_off_c, 12, 59, 127
1, 295485, Note_off_c, 7, 67, 127
1, 295485, Note_off_c, 5, 77, 127
1, 295487, Note_on_c, 7, 79, 127
1, 295487, Note_on_c, 2, 62, 127
1, 295487, Note_on_c, 12, 59, 127
1, 295694, Note_off_c, 7, 79, 127
1, 295696, Note_on_c, 5, 77, 127
1, 295903, Note_off_c, 5, 77, 127
1, 295905, Note_on_c, 4, 76, 127
1, 296112, Note_off_c, 4, 76, 127
1, 296112, Note_off_c, 12, 59, 127
1, 296112, Note_off_c, 2, 62, 127
1, 296114, Note_on_c, 2, 74, 127
1, 296114, Note_on_c, 12, 59, 127
1, 296114, Note_on_c, 7, 67, 127
1, 296321, Note_off_c, 7, 67, 127
1, 296321, Note_off_c, 12, 59, 127
1, 296321, Note_off_c, 2, 74, 127
1, 296323, Note_on_c, 0, 72, 127
1, 296323, Note_on_c, 7, 67, 127
1, 296323, Note_on_c, 10, 57, 127
1, 296740, Note_off_c, 0, 72, 127
1, 296742, Note_on_c, 2, 74, 127
1, 296949, Note_off_c, 2, 74, 127
1, 296951, Note_on_c, 4, 76, 127
1, 297152, Note_off_c, 10, 57, 127
1, 297152, Note_off_c, 7, 67, 127
1, 297159, Note_off_c, 4, 76, 127
1, 297161, Note_on_c, 5, 77, 127
1, 297368, Note_off_c, 5, 77, 127
1, 297370, Note_on_c, 4, 76, 127
1, 297577, Note_off_c, 4, 76, 127
1, 297579, Note_on_c, 2, 74, 127
1, 297786, Note_off_c, 2, 74, 127
1, 297788, Note_on_c, 0, 72, 127
1, 297788, Note_on_c, 10, 57, 127
1, 297788, Note_on_c, 5, 65, 127
1, 297995, Note_off_c, 5, 65, 127
1, 297995, Note_off_c, 10, 57, 127
1, 297995, Note_off_c, 0, 72, 127
1, 297997, Note_on_c, 12, 71, 127
1, 297997, Note_on_c, 7, 55, 127
1, 297997, Note_on_c, 5, 65, 127
1, 298414, Note_off_c, 12, 71, 127
1, 298416, Note_on_c, 10, 69, 127
1, 298623, Note_off_c, 10, 69, 127
1, 298623, Note_off_c, 5, 65, 127
1, 298623, Note_off_c, 7, 55, 127
1, 298625, Note_on_c, 7, 67, 127
1, 298625, Note_on_c, 12, 59, 127
1, 298625, Note_on_c, 7, 55, 127
1, 298832, Note_off_c, 7, 55, 127
1, 298832, Note_off_c, 12, 59, 127
1, 298832, Note_off_c, 7, 67, 127
1, 298834, Note_on_c, 0, 72, 127
1, 298834, Note_on_c, 7, 55, 127
1, 298834, Note_on_c, 4, 52, 127
1, 299460, Note_off_c, 4, 52, 127
1, 299460, Note_off_c, 7, 55, 127
1, 299462, Note_on_c, 4, 52, 127
1, 299462, Note_on_c, 0, 60, 127
1, 299669, Note_off_c, 0, 60, 127
1, 299669, Note_off_c, 4, 52, 127
1, 299671, Note_on_c, 10, 57, 127
1, 299671, Note_on_c, 5, 53, 127
1, 299878, Note_off_c, 0, 72, 127
1, 299880, Note_on_c, 4, 76, 127
1, 300087, Note_off_c, 4, 76, 127
1, 300089, Note_on_c, 2, 74, 127
1, 300296, Note_off_c, 2, 74, 127
1, 300296, Note_off_c, 5, 53, 127
1, 300296, Note_off_c, 10, 57, 127
1, 300298, Note_on_c, 0, 72, 127
1, 300298, Note_on_c, 2, 62, 127
1, 300298, Note_on_c, 5, 53, 127
1, 300505, Note_off_c, 5, 53, 127
1, 300505, Note_off_c, 2, 62, 127
1, 300505, Note_off_c, 0, 72, 127
1, 300507, Note_on_c, 0, 72, 127
1, 300507, Note_on_c, 2, 62, 127
1, 300507, Note_on_c, 7, 55, 127
1, 300644, Note_off_c, 0, 72, 127
1, 300646, Note_on_c, 12, 71, 127
1, 300714, Note_off_c, 12, 71, 127
1, 300716, Note_on_c, 0, 72, 127
1, 300784, Note_off_c, 0, 72, 127
1, 300786, Note_on_c, 12, 71, 127
1, 300854, Note_off_c, 12, 71, 127
1, 300856, Note_on_c, 0, 72, 127
1, 300924, Note_off_c, 0, 72, 127
1, 300926, Note_on_c, 12, 71, 127
1, 301133, Note_off_c, 12, 71, 127
1, 301133, Note_off_c, 7, 55, 127
1, 301133, Note_off_c, 2, 62, 127
1, 301135, Note_on_c, 0, 72, 127
1, 301135, Note_on_c, 5, 65, 127
1, 301135, Note_on_c, 7, 55, 127
1, 301342, Note_off_c, 7, 55, 127
1, 301342, Note_off_c, 5, 65, 127
1, 301342, Note_off_c, 0, 72, 127
1, 301344, Note_on_c, 0, 72, 127
1, 301344, Note_on_c, 0, 60, 127
1, 301344, Note_on_c, 4, 64, 127
1, 302204, Note_off_c, 4, 64, 127
1, 302204, Note_off_c, 0, 60, 127
1, 302204, Note_off_c, 0, 72, 127
1, 302206, Note_on_c, 4, 76, 127
1, 302832, Note_off_c, 4, 76, 127
1, 302834, Note_on_c, 5, 77, 127
1, 303041, Note_off_c, 5, 77, 127
1, 303043, Note_on_c, 7, 67, 127
1, 303043, Note_on_c, 7, 79, 127
1, 303879, Note_off_c, 7, 67, 127
1, 303881, Note_on_c, 10, 69, 127
1, 304298, Note_off_c, 7, 79, 127
1, 304300, Note_on_c, 5, 77, 127
1, 304492, Note_off_c, 10, 69, 127
1, 304509, Note_on_c, 12, 71, 127
1, 304714, Note_off_c, 5, 77, 127
1, 304716, Note_off_c, 12, 71, 127
1, 304718, Note_on_c, 0, 48, 127
1, 304718, Note_on_c, 0, 72, 127
1, 304718, Note_on_c, 4, 76, 127
1, 305135, Note_off_c, 4, 76, 127
1, 305137, Note_on_c, 4, 76, 127
1, 305344, Note_off_c, 4, 76, 127
1, 305346, Note_on_c, 5, 77, 127
1, 305553, Note_off_c, 5, 77, 127
1, 305553, Note_off_c, 0, 48, 127
1, 305555, Note_on_c, 4, 52, 127
1, 305555, Note_on_c, 7, 79, 127
1, 305972, Note_off_c, 7, 79, 127
1, 305972, Note_off_c, 0, 72, 127
1, 305974, Note_on_c, 0, 72, 127
1, 305974, Note_on_c, 5, 77, 127
1, 306181, Note_off_c, 5, 77, 127
1, 306181, Note_off_c, 4, 52, 127
1, 306183, Note_on_c, 5, 53, 127
1, 306183, Note_on_c, 4, 76, 127
1, 306388, Note_off_c, 0, 72, 127
1, 306390, Note_off_c, 4, 76, 127
1, 306390, Note_off_c, 5, 53, 127
1, 306392, Note_on_c, 7, 55, 127
1, 306392, Note_on_c, 2, 74, 127
1, 306392, Note_on_c, 12, 71, 127
1, 306599, Note_off_c, 12, 71, 127
1, 306599, Note_off_c, 2, 74, 127
1, 306601, Note_on_c, 0, 72, 127
1, 306601, Note_on_c, 10, 69, 127
1, 306808, Note_off_c, 10, 69, 127
1, 306808, Note_off_c, 0, 72, 127
1, 306810, Note_on_c, 12, 71, 127
1, 306810, Note_on_c, 2, 74, 127
1, 307229, Note_on_c, 10, 57, 127
1, 307639, Note_off_c, 2, 74, 127
1, 307639, Note_off_c, 12, 71, 127
1, 307646, Note_off_c, 7, 55, 127
1, 307648, Note_on_c, 5, 53, 127
1, 307840, Note_off_c, 10, 57, 127
1, 307857, Note_on_c, 12, 59, 127
1, 308062, Note_off_c, 5, 53, 127
1, 308064, Note_off_c, 12, 59, 127
1, 308066, Note_on_c, 4, 52, 127
1, 308066, Note_on_c, 0, 60, 127
1, 308066, Note_on_c, 4, 76, 127
1, 308066, Note_on_c, 0, 72, 127
1, 308483, Note_off_c, 4, 52, 127
1, 308485, Note_on_c, 0, 48, 127
1, 308895, Note_off_c, 0, 60, 127
1, 308902, Note_off_c, 0, 72, 127
1, 308902, Note_off_c, 4, 76, 127
1, 308904, Note_on_c, 4, 76, 127
1, 308904, Note_on_c, 7, 79, 127
1, 309314, Note_off_c, 0, 48, 127
1, 309530, Note_off_c, 7, 79, 127
1, 309530, Note_off_c, 4, 76, 127
1, 309532, Note_on_c, 10, 81, 127
1, 309532, Note_on_c, 5, 77, 127
1, 309739, Note_off_c, 5, 77, 127
1, 309739, Note_off_c, 10, 81, 127
1, 309741, Note_on_c, 0, 48, 127
1, 309741, Note_on_c, 4, 52, 127
1, 309741, Note_on_c, 7, 55, 127
1, 309741, Note_on_c, 7, 79, 127
1, 309741, Note_on_c, 0, 72, 127
1, 309741, Note_on_c, 11, 82, 127
1, 310577, Note_off_c, 7, 55, 127
1, 310577, Note_off_c, 4, 52, 127
1, 310577, Note_off_c, 0, 48, 127
1, 310579, Note_on_c, 4, 52, 127
1, 310579, Note_on_c, 7, 55, 127
1, 310579, Note_on_c, 0, 60, 127
1, 310996, Note_off_c, 11, 82, 127
1, 310996, Note_off_c, 0, 72, 127
1, 310996, Note_off_c, 7, 79, 127
1, 310998, Note_on_c, 7, 79, 127
1, 310998, Note_on_c, 0, 72, 127
1, 310998, Note_on_c, 11, 82, 127
1, 311205, Note_off_c, 0, 60, 127
1, 311205, Note_off_c, 7, 55, 127
1, 311205, Note_off_c, 4, 52, 127
1, 311207, Note_on_c, 4, 52, 127
1, 311207, Note_on_c, 0, 48, 127
1, 311207, Note_on_c, 0, 60, 127
1, 311414, Note_off_c, 0, 60, 127
1, 311414, Note_off_c, 0, 48, 127
1, 311414, Note_off_c, 4, 52, 127
1, 311414, Note_off_c, 11, 82, 127
1, 311414, Note_off_c, 0, 72, 127
1, 311414, Note_off_c, 7, 79, 127
1, 311416, Note_on_c, 5, 53, 127
1, 311416, Note_on_c, 0, 60, 127
1, 311416, Note_on_c, 5, 77, 127
1, 311416, Note_on_c, 0, 72, 127
1, 311416, Note_on_c, 10, 81, 127
1, 312042, Note_off_c, 10, 81, 127
1, 312042, Note_off_c, 0, 72, 127
1, 312042, Note_off_c, 5, 77, 127
1, 312042, Note_off_c, 0, 60, 127
1, 312044, Note_on_c, 7, 55, 127
1, 312044, Note_on_c, 7, 79, 127
1, 312044, Note_on_c, 4, 76, 127
1, 312044, Note_on_c, 11, 70, 127
1, 312251, Note_off_c, 11, 70, 127
1, 312251, Note_off_c, 4, 76, 127
1, 312251, Note_off_c, 7, 79, 127
1, 312251, Note_off_c, 7, 55, 127
1, 312253, Note_on_c, 2, 62, 127
1, 312253, Note_on_c, 10, 57, 127
1, 312253, Note_on_c, 5, 77, 127
1, 312253, Note_on_c, 2, 74, 127
1, 312253, Note_on_c, 10, 69, 127
1, 312460, Note_off_c, 10, 69, 127
1, 312460, Note_off_c, 2, 74, 127
1, 312460, Note_off_c, 5, 77, 127
1, 312460, Note_off_c, 10, 57, 127
1, 312460, Note_off_c, 2, 62, 127
1, 312462, Note_on_c, 10, 57, 127
1, 312462, Note_on_c, 0, 72, 127
1, 312462, Note_on_c, 7, 67, 127
1, 312462, Note_on_c, 4, 76, 127
1, 312669, Note_off_c, 4, 76, 127
1, 312669, Note_off_c, 7, 67, 127
1, 312669, Note_off_c, 0, 72, 127
1, 312669, Note_off_c, 10, 57, 127
1, 312671, Note_on_c, 12, 59, 127
1, 312671, Note_on_c, 12, 71, 127
1, 312671, Note_on_c, 2, 74, 127
1, 312671, Note_on_c, 5, 65, 127
1, 312878, Note_off_c, 5, 65, 127
1, 312878, Note_off_c, 2, 74, 127
1, 312878, Note_off_c, 12, 71, 127
1, 312878, Note_off_c, 12, 59, 127
1, 312880, Note_on_c, 0, 60, 127
1, 312880, Note_on_c, 10, 69, 127
1, 312880, Note_on_c, 0, 72, 127
1, 312880, Note_on_c, 4, 64, 127
1, 313087, Note_off_c, 4, 64, 127
1, 313087, Note_off_c, 0, 72, 127
1, 313087, Note_off_c, 10, 69, 127
1, 313087, Note_off_c, 0, 60, 127
1, 313087, Note_off_c, 5, 53, 127
1, 313089, Note_on_c, 5, 53, 127
1, 313089, Note_on_c, 7, 55, 127
1, 313089, Note_on_c, 2, 62, 127
1, 313089, Note_on_c, 12, 71, 127
1, 313089, Note_on_c, 7, 67, 127
1, 314762, Note_off_c, 7, 67, 127
1, 314762, Note_off_c, 12, 71, 127
1, 314762, Note_off_c, 2, 62, 127
1, 314762, Note_off_c, 7, 55, 127
1, 314762, Note_off_c, 5, 53, 127
1, 314764, Note_on_c, 0, 60, 127
1, 314764, Note_on_c, 7, 55, 127
1, 314764, Note_on_c, 4, 52, 127
1, 314764, Note_on_c, 0, 72, 127
1, 314764, Note_on_c, 7, 67, 127
1, 314764, Note_on_c, 4, 64, 127
1, 315615, Note_off_c, 4, 64, 127
1, 315615, Note_off_c, 7, 67, 127
1, 315615, Note_off_c, 0, 72, 127
1, 315615, Note_off_c, 4, 52, 127
1, 315615, Note_off_c, 7, 55, 127
1, 315615, Note_off_c, 0, 60, 127
1, 315617, Note_on_c, 0, 48, 127
1, 315617, Note_on_c, 4, 52, 127
1, 315617, Note_on_c, 10, 57, 127
1, 315617, Note_on_c, 10, 81, 127
1, 315617, Note_on_c, 4, 76, 127
1, 315617, Note_on_c, 0, 72, 127
1, 316255, Note_off_c, 0, 72, 127
1, 316255, Note_off_c, 4, 76, 127
1, 316255, Note_off_c, 10, 81, 127
1, 316255, Note_off_c, 10, 57, 127
1, 316255, Note_off_c, 4, 52, 127
1, 316255, Note_off_c, 0, 48, 127
1, 316257, Note_on_c, 4, 52, 127
1, 316257, Note_on_c, 10, 57, 127
1, 316257, Note_on_c, 0, 48, 127
1, 316257, Note_on_c, 12, 71, 127
1, 316257, Note_on_c, 7, 79, 127
1, 316257, Note_on_c, 4, 76, 127
1, 316468, Note_off_c, 4, 76, 127
1, 316468, Note_off_c, 7, 79, 127
1, 316468, Note_off_c, 12, 71, 127
1, 316468, Note_off_c, 0, 48, 127
1, 316468, Note_off_c, 10, 57, 127
1, 316468, Note_off_c, 4, 52, 127
1, 316470, Note_on_c, 6, 54, 127
1, 316470, Note_on_c, 0, 48, 127
1, 316470, Note_on_c, 10, 57, 127
1, 316470, Note_on_c, 6, 78, 127
1, 316470, Note_on_c, 2, 74, 127
1, 316470, Note_on_c, 10, 69, 127
1, 317321, Note_off_c, 10, 69, 127
1, 317321, Note_off_c, 2, 74, 127
1, 317321, Note_off_c, 6, 78, 127
1, 317321, Note_off_c, 10, 57, 127
1, 317321, Note_off_c, 0, 48, 127
1, 317321, Note_off_c, 6, 54, 127
1, 317323, Note_on_c, 2, 50, 127
1, 317323, Note_on_c, 12, 47, 127
1, 317323, Note_on_c, 7, 55, 127
1, 317323, Note_on_c, 7, 79, 127
1, 317323, Note_on_c, 2, 74, 127
1, 317323, Note_on_c, 12, 71, 127
1, 317961, Note_off_c, 12, 71, 127
1, 317961, Note_off_c, 2, 74, 127
1, 317961, Note_off_c, 7, 55, 127
1, 317961, Note_off_c, 12, 47, 127
1, 317961, Note_off_c, 2, 50, 127
1, 317995, Note_on_c, 2, 50, 127
1, 317995, Note_on_c, 7, 55, 127
1, 317995, Note_on_c, 12, 47, 127
1, 317995, Note_on_c, 12, 71, 127
1, 317995, Note_on_c, 2, 74, 127
1, 318206, Note_off_c, 2, 74, 127
1, 318206, Note_off_c, 12, 71, 127
1, 318206, Note_off_c, 12, 47, 127
1, 318206, Note_off_c, 7, 55, 127
1, 318206, Note_off_c, 2, 50, 127
1, 318208, Note_on_c, 4, 52, 127
1, 318208, Note_on_c, 10, 57, 127
1, 318208, Note_on_c, 0, 48, 127
1, 318208, Note_on_c, 0, 72, 127
1, 318208, Note_on_c, 10, 69, 127
1, 318897, Note_off_c, 10, 69, 127
1, 318897, Note_off_c, 0, 72, 127
1, 318897, Note_off_c, 0, 48, 127
1, 318897, Note_off_c, 10, 57, 127
1, 318897, Note_off_c, 4, 52, 127
1, 318915, Note_on_c, 10, 69, 127
1, 318915, Note_on_c, 0, 72, 127
1, 318915, Note_on_c, 4, 52, 127
1, 318915, Note_on_c, 10, 57, 127
1, 318915, Note_on_c, 0, 48, 127
1, 319095, Note_off_c, 7, 79, 127
1, 319143, Note_off_c, 0, 48, 127
1, 319143, Note_off_c, 10, 57, 127
1, 319143, Note_off_c, 4, 52, 127
1, 319143, Note_off_c, 0, 72, 127
1, 319143, Note_off_c, 10, 69, 127
1, 319145, Note_on_c, 10, 69, 127
1, 319145, Note_on_c, 0, 72, 127
1, 319145, Note_on_c, 6, 78, 127
1, 319145, Note_on_c, 10, 57, 127
1, 319145, Note_on_c, 2, 50, 127
1, 319910, Note_off_c, 2, 50, 127
1, 319910, Note_off_c, 10, 57, 127
1, 319910, Note_off_c, 0, 72, 127
1, 319910, Note_off_c, 10, 69, 127
1, 319913, Note_on_c, 10, 69, 127
1, 319913, Note_on_c, 0, 72, 127
1, 319913, Note_on_c, 2, 50, 127
1, 319913, Note_on_c, 2, 38, 127
1, 320158, Note_off_c, 6, 78, 127
1, 320166, Note_off_c, 2, 38, 127
1, 320166, Note_off_c, 2, 50, 127
1, 320166, Note_off_c, 0, 72, 127
1, 320166, Note_off_c, 10, 69, 127
1, 320169, Note_on_c, 7, 79, 127
1, 320169, Note_on_c, 7, 67, 127
1, 320169, Note_on_c, 12, 71, 127
1, 320169, Note_on_c, 2, 50, 127
1, 320169, Note_on_c, 7, 43, 127
1, 322212, Note_off_c, 7, 43, 127
1, 322212, Note_off_c, 2, 50, 127
1, 322212, Note_off_c, 12, 71, 127
1, 322212, Note_off_c, 7, 67, 127
1, 322212, Note_off_c, 7, 79, 127
1, 325737, Note_on_c, 0, 48, 127
1, 325737, Note_on_c, 0, 72, 127
1, 325955, Note_off_c, 0, 72, 127
1, 325956, Note_on_c, 4, 76, 127
1, 326174, Note_off_c, 4, 76, 127
1, 326174, Note_off_c, 0, 48, 127
1, 326175, Note_on_c, 0, 60, 127
1, 326175, Note_on_c, 0, 72, 127
1, 326393, Note_off_c, 0, 72, 127
1, 326394, Note_on_c, 7, 67, 127
1, 326609, Note_off_c, 0, 60, 127
1, 326612, Note_off_c, 7, 67, 127
1, 326613, Note_on_c, 4, 64, 127
1, 326831, Note_off_c, 4, 64, 127
1, 326832, Note_on_c, 7, 67, 127
1, 327050, Note_off_c, 7, 67, 127
1, 327051, Note_on_c, 0, 72, 127
1, 327051, Note_on_c, 4, 64, 127
1, 327051, Note_on_c, 7, 67, 127
1, 327161, Note_on_c, 0, 60, 127
1, 327270, Note_off_c, 0, 60, 127
1, 327271, Note_on_c, 12, 59, 127
1, 327380, Note_off_c, 12, 59, 127
1, 327381, Note_on_c, 10, 57, 127
1, 327490, Note_off_c, 10, 57, 127
1, 327490, Note_off_c, 7, 67, 127
1, 327490, Note_off_c, 4, 64, 127
1, 327490, Note_off_c, 0, 72, 127
1, 327491, Note_on_c, 7, 55, 127
1, 327491, Note_on_c, 0, 72, 127
1, 327491, Note_on_c, 7, 67, 127
1, 327491, Note_on_c, 4, 76, 127
1, 327600, Note_off_c, 7, 55, 127
1, 327601, Note_on_c, 5, 53, 127
1, 327710, Note_off_c, 5, 53, 127
1, 327711, Note_on_c, 4, 52, 127
1, 327820, Note_off_c, 4, 52, 127
1, 327821, Note_on_c, 2, 50, 127
1, 327926, Note_off_c, 4, 76, 127
1, 327926, Note_off_c, 7, 67, 127
1, 327926, Note_off_c, 0, 72, 127
1, 327929, Note_off_c, 2, 50, 127
1, 327930, Note_on_c, 0, 48, 127
1, 328039, Note_off_c, 0, 48, 127
1, 328040, Note_on_c, 4, 52, 127
1, 328149, Note_off_c, 4, 52, 127
1, 328150, Note_on_c, 2, 50, 127
1, 328259, Note_off_c, 2, 50, 127
1, 328260, Note_on_c, 0, 48, 127
1, 328369, Note_off_c, 0, 48, 127
1, 328370, Note_on_c, 7, 43, 127
1, 328370, Note_on_c, 2, 74, 127
1, 328588, Note_off_c, 2, 74, 127
1, 328589, Note_on_c, 7, 79, 127
1, 328807, Note_off_c, 7, 79, 127
1, 328807, Note_off_c, 7, 43, 127
1, 328808, Note_on_c, 7, 55, 127
1, 328808, Note_on_c, 2, 74, 127
1, 329026, Note_off_c, 2, 74, 127
1, 329027, Note_on_c, 12, 71, 127
1, 329242, Note_off_c, 7, 55, 127
1, 329245, Note_off_c, 12, 71, 127
1, 329246, Note_on_c, 7, 67, 127
1, 329464, Note_off_c, 7, 67, 127
1, 329465, Note_on_c, 12, 71, 127
1, 329683, Note_off_c, 12, 71, 127
1, 329684, Note_on_c, 12, 71, 127
1, 329684, Note_on_c, 7, 67, 127
1, 329684, Note_on_c, 2, 74, 127
1, 329794, Note_on_c, 7, 55, 127
1, 329903, Note_off_c, 7, 55, 127
1, 329904, Note_on_c, 5, 53, 127
1, 330013, Note_off_c, 5, 53, 127
1, 330014, Note_on_c, 4, 52, 127
1, 330123, Note_off_c, 4, 52, 127
1, 330123, Note_off_c, 2, 74, 127
1, 330123, Note_off_c, 7, 67, 127
1, 330123, Note_off_c, 12, 71, 127
1, 330124, Note_on_c, 2, 50, 127
1, 330124, Note_on_c, 12, 71, 127
1, 330124, Note_on_c, 7, 79, 127
1, 330124, Note_on_c, 2, 74, 127
1, 330233, Note_off_c, 2, 50, 127
1, 330234, Note_on_c, 0, 48, 127
1, 330343, Note_off_c, 0, 48, 127
1, 330344, Note_on_c, 12, 47, 127
1, 330453, Note_off_c, 12, 47, 127
1, 330454, Note_on_c, 10, 45, 127
1, 330559, Note_off_c, 2, 74, 127
1, 330559, Note_off_c, 7, 79, 127
1, 330559, Note_off_c, 12, 71, 127
1, 330562, Note_off_c, 10, 45, 127
1, 330563, Note_on_c, 7, 43, 127
1, 330672, Note_off_c, 7, 43, 127
1, 330673, Note_on_c, 12, 47, 127
1, 330782, Note_off_c, 12, 47, 127
1, 330783, Note_on_c, 10, 45, 127
1, 330892, Note_off_c, 10, 45, 127
1, 330893, Note_on_c, 7, 43, 127
1, 331002, Note_off_c, 7, 43, 127
1, 331003, Note_on_c, 0, 36, 127
1, 331003, Note_on_c, 0, 72, 127
1, 331003, Note_on_c, 7, 67, 127
1, 331003, Note_on_c, 4, 76, 127
1, 331221, Note_off_c, 4, 76, 127
1, 331221, Note_off_c, 7, 67, 127
1, 331222, Note_on_c, 5, 77, 127
1, 331331, Note_off_c, 5, 77, 127
1, 331332, Note_on_c, 7, 79, 127
1, 331437, Note_off_c, 0, 72, 127
1, 331440, Note_off_c, 7, 79, 127
1, 331440, Note_off_c, 0, 36, 127
1, 331441, Note_on_c, 0, 48, 127
1, 331441, Note_on_c, 5, 77, 127
1, 331441, Note_on_c, 10, 69, 127
1, 331659, Note_off_c, 10, 69, 127
1, 331659, Note_off_c, 5, 77, 127
1, 331660, Note_on_c, 4, 76, 127
1, 331660, Note_on_c, 7, 67, 127
1, 331878, Note_off_c, 7, 67, 127
1, 331878, Note_off_c, 4, 76, 127
1, 331878, Note_off_c, 0, 48, 127
1, 331879, Note_on_c, 5, 41, 127
1, 331879, Note_on_c, 5, 65, 127
1, 331879, Note_on_c, 2, 74, 127
1, 332097, Note_off_c, 2, 74, 127
1, 332097, Note_off_c, 5, 65, 127
1, 332098, Note_on_c, 4, 64, 127
1, 332098, Note_on_c, 0, 72, 127
1, 332316, Note_off_c, 0, 72, 127
1, 332316, Note_off_c, 4, 64, 127
1, 332316, Note_off_c, 5, 41, 127
1, 332317, Note_on_c, 7, 43, 127
1, 332317, Note_on_c, 12, 71, 127
1, 332317, Note_on_c, 2, 62, 127
1, 332535, Note_off_c, 2, 62, 127
1, 332535, Note_off_c, 12, 71, 127
1, 332535, Note_off_c, 7, 43, 127
1, 332536, Note_on_c, 2, 50, 127
1, 332536, Note_on_c, 7, 67, 127
1, 332753, Note_off_c, 7, 67, 127
1, 332754, Note_off_c, 2, 50, 127
1, 332755, Note_on_c, 7, 55, 127
1, 332864, Note_off_c, 7, 55, 127
1, 332865, Note_on_c, 10, 57, 127
1, 332974, Note_off_c, 10, 57, 127
1, 332975, Note_on_c, 7, 55, 127
1, 333084, Note_off_c, 7, 55, 127
1, 333085, Note_on_c, 10, 57, 127
1, 333194, Note_off_c, 10, 57, 127
1, 333195, Note_on_c, 5, 53, 127
1, 333304, Note_off_c, 5, 53, 127
1, 333305, Note_on_c, 7, 55, 127
1, 333414, Note_off_c, 7, 55, 127
1, 333415, Note_on_c, 5, 53, 127
1, 333524, Note_off_c, 5, 53, 127
1, 333525, Note_on_c, 7, 55, 127
1, 333634, Note_off_c, 7, 55, 127
1, 333635, Note_on_c, 4, 52, 127
1, 333635, Note_on_c, 0, 72, 127
1, 333853, Note_off_c, 0, 72, 127
1, 333854, Note_on_c, 0, 72, 127
1, 334072, Note_off_c, 0, 72, 127
1, 334072, Note_off_c, 4, 52, 127
1, 334073, Note_on_c, 4, 52, 127
1, 334073, Note_on_c, 0, 60, 127
1, 334073, Note_on_c, 7, 67, 127
1, 334073, Note_on_c, 4, 64, 127
1, 334291, Note_off_c, 4, 64, 127
1, 334291, Note_off_c, 7, 67, 127
1, 334291, Note_off_c, 0, 60, 127
1, 334292, Note_on_c, 0, 60, 127
1, 334292, Note_on_c, 4, 64, 127
1, 334292, Note_on_c, 7, 67, 127
1, 334507, Note_off_c, 4, 52, 127
1, 334510, Note_off_c, 7, 67, 127
1, 334510, Note_off_c, 4, 64, 127
1, 334510, Note_off_c, 0, 60, 127
1, 334511, Note_on_c, 4, 52, 127
1, 334511, Note_on_c, 7, 55, 127
1, 334511, Note_on_c, 0, 60, 127
1, 334511, Note_on_c, 4, 64, 127
1, 334729, Note_off_c, 4, 64, 127
1, 334729, Note_off_c, 0, 60, 127
1, 334729, Note_off_c, 7, 55, 127
1, 334730, Note_on_c, 7, 55, 127
1, 334730, Note_on_c, 4, 64, 127
1, 334730, Note_on_c, 0, 60, 127
1, 334945, Note_off_c, 4, 52, 127
1, 334948, Note_off_c, 0, 60, 127
1, 334948, Note_off_c, 4, 64, 127
1, 334948, Note_off_c, 7, 55, 127
1, 334949, Note_on_c, 5, 53, 127
1, 334949, Note_on_c, 0, 72, 127
1, 335167, Note_off_c, 0, 72, 127
1, 335168, Note_on_c, 0, 72, 127
1, 335386, Note_off_c, 0, 72, 127
1, 335386, Note_off_c, 5, 53, 127
1, 335387, Note_on_c, 5, 53, 127
1, 335387, Note_on_c, 0, 60, 127
1, 335387, Note_on_c, 5, 65, 127
1, 335387, Note_on_c, 10, 69, 127
1, 335605, Note_off_c, 10, 69, 127
1, 335605, Note_off_c, 5, 65, 127
1, 335605, Note_off_c, 0, 60, 127
1, 335606, Note_on_c, 0, 60, 127
1, 335606, Note_on_c, 10, 69, 127
1, 335606, Note_on_c, 5, 65, 127
1, 335821, Note_off_c, 5, 53, 127
1, 335824, Note_off_c, 5, 65, 127
1, 335824, Note_off_c, 10, 69, 127
1, 335824, Note_off_c, 0, 60, 127
1, 335825, Note_on_c, 10, 57, 127
1, 335825, Note_on_c, 5, 53, 127
1, 335825, Note_on_c, 0, 60, 127
1, 335825, Note_on_c, 5, 65, 127
1, 336043, Note_off_c, 5, 65, 127
1, 336043, Note_off_c, 0, 60, 127
1, 336043, Note_off_c, 10, 57, 127
1, 336044, Note_on_c, 10, 57, 127
1, 336044, Note_on_c, 5, 65, 127
1, 336044, Note_on_c, 0, 60, 127
1, 336259, Note_off_c, 5, 53, 127
1, 336262, Note_off_c, 0, 60, 127
1, 336262, Note_off_c, 5, 65, 127
1, 336262, Note_off_c, 10, 57, 127
1, 336263, Note_on_c, 6, 54, 127
1, 336263, Note_on_c, 2, 74, 127
1, 336481, Note_off_c, 2, 74, 127
1, 336482, Note_on_c, 2, 74, 127
1, 336700, Note_off_c, 2, 74, 127
1, 336700, Note_off_c, 6, 54, 127
1, 336701, Note_on_c, 6, 54, 127
1, 336701, Note_on_c, 2, 62, 127
1, 336701, Note_on_c, 10, 69, 127
1, 336701, Note_on_c, 6, 66, 127
1, 336919, Note_off_c, 6, 66, 127
1, 336919, Note_off_c, 10, 69, 127
1, 336919, Note_off_c, 2, 62, 127
1, 336920, Note_on_c, 2, 62, 127
1, 336920, Note_on_c, 10, 69, 127
1, 336920, Note_on_c, 6, 66, 127
1, 337135, Note_off_c, 6, 54, 127
1, 337138, Note_off_c, 6, 66, 127
1, 337138, Note_off_c, 10, 69, 127
1, 337138, Note_off_c, 2, 62, 127
1, 337139, Note_on_c, 10, 57, 127
1, 337139, Note_on_c, 6, 54, 127
1, 337139, Note_on_c, 6, 66, 127
1, 337139, Note_on_c, 2, 62, 127
1, 337357, Note_off_c, 2, 62, 127
1, 337357, Note_off_c, 6, 66, 127
1, 337357, Note_off_c, 10, 57, 127
1, 337358, Note_on_c, 10, 57, 127
1, 337358, Note_on_c, 6, 66, 127
1, 337358, Note_on_c, 2, 62, 127
1, 337573, Note_off_c, 6, 54, 127
1, 337576, Note_off_c, 2, 62, 127
1, 337576, Note_off_c, 6, 66, 127
1, 337576, Note_off_c, 10, 57, 127
1, 337577, Note_on_c, 7, 55, 127
1, 337577, Note_on_c, 2, 74, 127
1, 337795, Note_off_c, 2, 74, 127
1, 337796, Note_on_c, 2, 74, 127
1, 338014, Note_off_c, 2, 74, 127
1, 338014, Note_off_c, 7, 55, 127
1, 338015, Note_on_c, 7, 55, 127
1, 338015, Note_on_c, 2, 62, 127
1, 338015, Note_on_c, 12, 71, 127
1, 338015, Note_on_c, 7, 67, 127
1, 338233, Note_off_c, 7, 67, 127
1, 338233, Note_off_c, 12, 71, 127
1, 338233, Note_off_c, 2, 62, 127
1, 338234, Note_on_c, 2, 62, 127
1, 338234, Note_on_c, 12, 71, 127
1, 338234, Note_on_c, 7, 67, 127
1, 338449, Note_off_c, 7, 55, 127
1, 338452, Note_off_c, 7, 67, 127
1, 338452, Note_off_c, 12, 71, 127
1, 338452, Note_off_c, 2, 62, 127
1, 338453, Note_on_c, 7, 55, 127
1, 338453, Note_on_c, 12, 59, 127
1, 338453, Note_on_c, 7, 67, 127
1, 338453, Note_on_c, 2, 62, 127
1, 338671, Note_off_c, 2, 62, 127
1, 338671, Note_off_c, 7, 67, 127
1, 338671, Note_off_c, 12, 59, 127
1, 338672, Note_on_c, 12, 59, 127
1, 338672, Note_on_c, 2, 62, 127
1, 338672, Note_on_c, 7, 67, 127
1, 338887, Note_off_c, 7, 55, 127
1, 338890, Note_off_c, 7, 67, 127
1, 338890, Note_off_c, 2, 62, 127
1, 338890, Note_off_c, 12, 59, 127
1, 338891, Note_on_c, 8, 56, 127
1, 338891, Note_on_c, 4, 76, 127
1, 339109, Note_off_c, 4, 76, 127
1, 339110, Note_on_c, 4, 76, 127
1, 339328, Note_off_c, 4, 76, 127
1, 339328, Note_off_c, 8, 56, 127
1, 339329, Note_on_c, 8, 56, 127
1, 339329, Note_on_c, 4, 64, 127
1, 339329, Note_on_c, 12, 71, 127
1, 339329, Note_on_c, 8, 68, 127
1, 339547, Note_off_c, 8, 68, 127
1, 339547, Note_off_c, 12, 71, 127
1, 339547, Note_off_c, 4, 64, 127
1, 339548, Note_on_c, 4, 64, 127
1, 339548, Note_on_c, 8, 68, 127
1, 339548, Note_on_c, 12, 71, 127
1, 339763, Note_off_c, 8, 56, 127
1, 339766, Note_off_c, 12, 71, 127
1, 339766, Note_off_c, 8, 68, 127
1, 339766, Note_off_c, 4, 64, 127
1, 339767, Note_on_c, 8, 56, 127
1, 339767, Note_on_c, 12, 59, 127
1, 339767, Note_on_c, 4, 64, 127
1, 339767, Note_on_c, 8, 68, 127
1, 339985, Note_off_c, 8, 68, 127
1, 339985, Note_off_c, 4, 64, 127
1, 339985, Note_off_c, 12, 59, 127
1, 339986, Note_on_c, 12, 59, 127
1, 339986, Note_on_c, 8, 68, 127
1, 339986, Note_on_c, 4, 64, 127
1, 340201, Note_off_c, 8, 56, 127
1, 340204, Note_off_c, 4, 64, 127
1, 340204, Note_off_c, 8, 68, 127
1, 340204, Note_off_c, 12, 59, 127
1, 340205, Note_on_c, 10, 57, 127
1, 340205, Note_on_c, 4, 76, 127
1, 340423, Note_off_c, 4, 76, 127
1, 340424, Note_on_c, 4, 76, 127
1, 340642, Note_off_c, 4, 76, 127
1, 340642, Note_off_c, 10, 57, 127
1, 340643, Note_on_c, 10, 57, 127
1, 340643, Note_on_c, 4, 64, 127
1, 340643, Note_on_c, 10, 69, 127
1, 340643, Note_on_c, 0, 72, 127
1, 340861, Note_off_c, 0, 72, 127
1, 340861, Note_off_c, 10, 69, 127
1, 340861, Note_off_c, 4, 64, 127
1, 340862, Note_on_c, 4, 64, 127
1, 340862, Note_on_c, 10, 69, 127
1, 340862, Note_on_c, 0, 72, 127
1, 341077, Note_off_c, 10, 57, 127
1, 341080, Note_off_c, 0, 72, 127
1, 341080, Note_off_c, 10, 69, 127
1, 341080, Note_off_c, 4, 64, 127
1, 341081, Note_on_c, 10, 57, 127
1, 341081, Note_on_c, 0, 60, 127
1, 341081, Note_on_c, 4, 64, 127
1, 341081, Note_on_c, 10, 69, 127
1, 341299, Note_off_c, 10, 69, 127
1, 341299, Note_off_c, 4, 64, 127
1, 341299, Note_off_c, 0, 60, 127
1, 341300, Note_on_c, 0, 60, 127
1, 341300, Note_on_c, 10, 69, 127
1, 341300, Note_on_c, 4, 64, 127
1, 341515, Note_off_c, 10, 57, 127
1, 341518, Note_off_c, 4, 64, 127
1, 341518, Note_off_c, 10, 69, 127
1, 341518, Note_off_c, 0, 60, 127
1, 341519, Note_on_c, 10, 57, 127
1, 341519, Note_on_c, 5, 77, 127
1, 341737, Note_off_c, 5, 77, 127
1, 341738, Note_on_c, 5, 77, 127
1, 341956, Note_off_c, 5, 77, 127
1, 341956, Note_off_c, 10, 57, 127
1, 341957, Note_on_c, 5, 65, 127
1, 341957, Note_on_c, 10, 57, 127
1, 341957, Note_on_c, 0, 72, 127
1, 341957, Note_on_c, 10, 69, 127
1, 342175, Note_off_c, 10, 69, 127
1, 342175, Note_off_c, 0, 72, 127
1, 342175, Note_off_c, 5, 65, 127
1, 342176, Note_on_c, 5, 65, 127
1, 342176, Note_on_c, 10, 69, 127
1, 342176, Note_on_c, 0, 72, 127
1, 342391, Note_off_c, 10, 57, 127
1, 342394, Note_off_c, 0, 72, 127
1, 342394, Note_off_c, 10, 69, 127
1, 342394, Note_off_c, 5, 65, 127
1, 342395, Note_on_c, 10, 57, 127
1, 342395, Note_on_c, 0, 60, 127
1, 342395, Note_on_c, 10, 69, 127
1, 342395, Note_on_c, 5, 65, 127
1, 342613, Note_off_c, 5, 65, 127
1, 342613, Note_off_c, 10, 69, 127
1, 342613, Note_off_c, 0, 60, 127
1, 342614, Note_on_c, 0, 60, 127
1, 342614, Note_on_c, 10, 69, 127
1, 342614, Note_on_c, 5, 65, 127
1, 342829, Note_off_c, 10, 57, 127
1, 342832, Note_off_c, 5, 65, 127
1, 342832, Note_off_c, 10, 69, 127
1, 342832, Note_off_c, 0, 60, 127
1, 342833, Note_on_c, 12, 59, 127
1, 342833, Note_on_c, 5, 77, 127
1, 343051, Note_off_c, 5, 77, 127
1, 343052, Note_on_c, 5, 77, 127
1, 343270, Note_off_c, 5, 77, 127
1, 343270, Note_off_c, 12, 59, 127
1, 343271, Note_on_c, 12, 59, 127
1, 343271, Note_on_c, 7, 67, 127
1, 343271, Note_on_c, 2, 74, 127
1, 343271, Note_on_c, 12, 71, 127
1, 343489, Note_off_c, 12, 71, 127
1, 343489, Note_off_c, 2, 74, 127
1, 343489, Note_off_c, 7, 67, 127
1, 343490, Note_on_c, 7, 67, 127
1, 343490, Note_on_c, 2, 74, 127
1, 343490, Note_on_c, 12, 71, 127
1, 343705, Note_off_c, 12, 59, 127
1, 343708, Note_off_c, 12, 71, 127
1, 343708, Note_off_c, 2, 74, 127
1, 343708, Note_off_c, 7, 67, 127
1, 343709, Note_on_c, 2, 62, 127
1, 343709, Note_on_c, 12, 59, 127
1, 343709, Note_on_c, 12, 71, 127
1, 343709, Note_on_c, 7, 67, 127
1, 343927, Note_off_c, 7, 67, 127
1, 343927, Note_off_c, 12, 71, 127
1, 343927, Note_off_c, 2, 62, 127
1, 343928, Note_on_c, 2, 62, 127
1, 343928, Note_on_c, 12, 71, 127
1, 343928, Note_on_c, 7, 67, 127
1, 344143, Note_off_c, 12, 59, 127
1, 344146, Note_off_c, 7, 67, 127
1, 344146, Note_off_c, 12, 71, 127
1, 344146, Note_off_c, 2, 62, 127
1, 344147, Note_on_c, 12, 59, 127
1, 344147, Note_on_c, 7, 79, 127
1, 344365, Note_off_c, 7, 79, 127
1, 344366, Note_on_c, 7, 79, 127
1, 344584, Note_off_c, 7, 79, 127
1, 344584, Note_off_c, 12, 59, 127
1, 344585, Note_on_c, 12, 59, 127
1, 344585, Note_on_c, 7, 67, 127
1, 344585, Note_on_c, 2, 74, 127
1, 344585, Note_on_c, 12, 71, 127
1, 344803, Note_off_c, 12, 71, 127
1, 344803, Note_off_c, 2, 74, 127
1, 344803, Note_off_c, 7, 67, 127
1, 344804, Note_on_c, 7, 67, 127
1, 344804, Note_on_c, 12, 71, 127
1, 344804, Note_on_c, 2, 74, 127
1, 345019, Note_off_c, 12, 59, 127
1, 345022, Note_off_c, 2, 74, 127
1, 345022, Note_off_c, 12, 71, 127
1, 345022, Note_off_c, 7, 67, 127
1, 345023, Note_on_c, 12, 59, 127
1, 345023, Note_on_c, 2, 62, 127
1, 345023, Note_on_c, 12, 71, 127
1, 345023, Note_on_c, 7, 67, 127
1, 345241, Note_off_c, 7, 67, 127
1, 345241, Note_off_c, 12, 71, 127
1, 345241, Note_off_c, 2, 62, 127
1, 345242, Note_on_c, 2, 62, 127
1, 345242, Note_on_c, 12, 71, 127
1, 345242, Note_on_c, 7, 67, 127
1, 345457, Note_off_c, 12, 59, 127
1, 345460, Note_off_c, 7, 67, 127
1, 345460, Note_off_c, 12, 71, 127
1, 345460, Note_off_c, 2, 62, 127
1, 345461, Note_on_c, 0, 60, 127
1, 345461, Note_on_c, 7, 79, 127
1, 345679, Note_off_c, 7, 79, 127
1, 345680, Note_on_c, 7, 79, 127
1, 345898, Note_off_c, 7, 79, 127
1, 345898, Note_off_c, 0, 60, 127
1, 345899, Note_on_c, 0, 60, 127
1, 345899, Note_on_c, 7, 67, 127
1, 345899, Note_on_c, 0, 72, 127
1, 345899, Note_on_c, 4, 76, 127
1, 346117, Note_off_c, 4, 76, 127
1, 346117, Note_off_c, 0, 72, 127
1, 346117, Note_off_c, 7, 67, 127
1, 346118, Note_on_c, 7, 67, 127
1, 346118, Note_on_c, 4, 76, 127
1, 346118, Note_on_c, 0, 72, 127
1, 346333, Note_off_c, 0, 60, 127
1, 346336, Note_off_c, 0, 72, 127
1, 346336, Note_off_c, 4, 76, 127
1, 346336, Note_off_c, 7, 67, 127
1, 346337, Note_on_c, 0, 60, 127
1, 346337, Note_on_c, 4, 64, 127
1, 346337, Note_on_c, 0, 72, 127
1, 346337, Note_on_c, 7, 67, 127
1, 346555, Note_off_c, 7, 67, 127
1, 346555, Note_off_c, 0, 72, 127
1, 346555, Note_off_c, 4, 64, 127
1, 346556, Note_on_c, 4, 64, 127
1, 346556, Note_on_c, 0, 72, 127
1, 346556, Note_on_c, 7, 67, 127
1, 346771, Note_off_c, 0, 60, 127
1, 346774, Note_off_c, 7, 67, 127
1, 346774, Note_off_c, 0, 72, 127
1, 346774, Note_off_c, 4, 64, 127
1, 346775, Note_on_c, 2, 62, 127
1, 346775, Note_on_c, 2, 74, 127
1, 346775, Note_on_c, 12, 71, 127
1, 346775, Note_on_c, 7, 67, 127
1, 346775, Note_on_c, 5, 77, 127
1, 346993, Note_off_c, 2, 62, 127
1, 346994, Note_on_c, 2, 62, 127
1, 346994, Note_on_c, 2, 50, 127
1, 347212, Note_off_c, 2, 50, 127
1, 347212, Note_off_c, 2, 62, 127
1, 347213, Note_on_c, 12, 47, 127
1, 347213, Note_on_c, 12, 59, 127
1, 347431, Note_off_c, 12, 59, 127
1, 347431, Note_off_c, 12, 47, 127
1, 347432, Note_on_c, 12, 47, 127
1, 347432, Note_on_c, 12, 59, 127
1, 347650, Note_off_c, 12, 59, 127
1, 347650, Note_off_c, 12, 47, 127
1, 347651, Note_on_c, 7, 55, 127
1, 347651, Note_on_c, 7, 43, 127
1, 347869, Note_off_c, 7, 43, 127
1, 347869, Note_off_c, 7, 55, 127
1, 347870, Note_on_c, 7, 43, 127
1, 347870, Note_on_c, 7, 55, 127
1, 348088, Note_off_c, 7, 55, 127
1, 348088, Note_off_c, 7, 43, 127
1, 348088, Note_off_c, 5, 77, 127
1, 348088, Note_off_c, 7, 67, 127
1, 348088, Note_off_c, 12, 71, 127
1, 348088, Note_off_c, 2, 74, 127
1, 348089, Note_on_c, 2, 50, 127
1, 348089, Note_on_c, 2, 62, 127
1, 348089, Note_on_c, 12, 71, 127
1, 348089, Note_on_c, 7, 67, 127
1, 348089, Note_on_c, 5, 77, 127
1, 348089, Note_on_c, 2, 74, 127
1, 348307, Note_off_c, 2, 62, 127
1, 348307, Note_off_c, 2, 50, 127
1, 348308, Note_on_c, 2, 62, 127
1, 348308, Note_on_c, 2, 50, 127
1, 348526, Note_off_c, 2, 50, 127
1, 348526, Note_off_c, 2, 62, 127
1, 348527, Note_on_c, 12, 59, 127
1, 348527, Note_on_c, 12, 47, 127
1, 348745, Note_off_c, 12, 47, 127
1, 348745, Note_off_c, 12, 59, 127
1, 348746, Note_on_c, 12, 47, 127
1, 348746, Note_on_c, 12, 59, 127
1, 348964, Note_off_c, 12, 59, 127
1, 348964, Note_off_c, 12, 47, 127
1, 348965, Note_on_c, 7, 55, 127
1, 348965, Note_on_c, 7, 43, 127
1, 349183, Note_off_c, 7, 43, 127
1, 349183, Note_off_c, 7, 55, 127
1, 349184, Note_on_c, 7, 43, 127
1, 349184, Note_on_c, 7, 55, 127
1, 349402, Note_off_c, 7, 55, 127
1, 349402, Note_off_c, 7, 43, 127
1, 349402, Note_off_c, 2, 74, 127
1, 349402, Note_off_c, 5, 77, 127
1, 349402, Note_off_c, 7, 67, 127
1, 349402, Note_off_c, 12, 71, 127
1, 349403, Note_on_c, 2, 62, 127
1, 349403, Note_on_c, 2, 50, 127
1, 349403, Note_on_c, 12, 71, 127
1, 349403, Note_on_c, 7, 67, 127
1, 349403, Note_on_c, 2, 74, 127
1, 349403, Note_on_c, 5, 77, 127
1, 349621, Note_off_c, 2, 50, 127
1, 349621, Note_off_c, 2, 62, 127
1, 349622, Note_on_c, 2, 50, 127
1, 349622, Note_on_c, 2, 62, 127
1, 349840, Note_off_c, 2, 62, 127
1, 349840, Note_off_c, 2, 50, 127
1, 349841, Note_on_c, 12, 59, 127
1, 349841, Note_on_c, 12, 47, 127
1, 350059, Note_off_c, 12, 47, 127
1, 350059, Note_off_c, 12, 59, 127
1, 350060, Note_on_c, 12, 47, 127
1, 350060, Note_on_c, 12, 59, 127
1, 350278, Note_off_c, 12, 59, 127
1, 350278, Note_off_c, 12, 47, 127
1, 350279, Note_on_c, 7, 55, 127
1, 350279, Note_on_c, 7, 43, 127
1, 350497, Note_off_c, 7, 43, 127
1, 350497, Note_off_c, 7, 55, 127
1, 350498, Note_on_c, 7, 43, 127
1, 350498, Note_on_c, 7, 55, 127
1, 350716, Note_off_c, 7, 55, 127
1, 350716, Note_off_c, 7, 43, 127
1, 350716, Note_off_c, 5, 77, 127
1, 350716, Note_off_c, 2, 74, 127
1, 350716, Note_off_c, 7, 67, 127
1, 350716, Note_off_c, 12, 71, 127
1, 350717, Note_on_c, 0, 60, 127
1, 350717, Note_on_c, 0, 48, 127
1, 350717, Note_on_c, 0, 72, 127
1, 350717, Note_on_c, 4, 76, 127
1, 350717, Note_on_c, 7, 67, 127
1, 351374, Note_off_c, 7, 67, 127
1, 351374, Note_off_c, 4, 76, 127
1, 351374, Note_off_c, 0, 72, 127
1, 351374, Note_off_c, 0, 48, 127
1, 351375, Note_on_c, 2, 50, 127
1, 351375, Note_on_c, 5, 65, 127
1, 351375, Note_on_c, 12, 71, 127
1, 351375, Note_on_c, 2, 74, 127
1, 351593, Note_off_c, 2, 74, 127
1, 351593, Note_off_c, 12, 71, 127
1, 351593, Note_off_c, 5, 65, 127
1, 351593, Note_off_c, 2, 50, 127
1, 351593, Note_off_c, 0, 60, 127
1, 351594, Note_on_c, 4, 52, 127
1, 351594, Note_on_c, 0, 60, 127
1, 351594, Note_on_c, 4, 64, 127
1, 351594, Note_on_c, 7, 67, 127
1, 351594, Note_on_c, 0, 72, 127
1, 352032, Note_off_c, 0, 72, 127
1, 352032, Note_off_c, 7, 67, 127
1, 352032, Note_off_c, 4, 64, 127
1, 352032, Note_off_c, 0, 60, 127
1, 352032, Note_off_c, 4, 52, 127
1, 352033, Note_on_c, 5, 53, 127
1, 352033, Note_on_c, 0, 60, 127
1, 352033, Note_on_c, 2, 62, 127
1, 352033, Note_on_c, 10, 69, 127
1, 352033, Note_on_c, 2, 74, 127
1, 352471, Note_off_c, 2, 74, 127
1, 352471, Note_off_c, 10, 69, 127
1, 352471, Note_off_c, 2, 62, 127
1, 352471, Note_off_c, 5, 53, 127
1, 352472, Note_on_c, 7, 55, 127
1, 352472, Note_on_c, 7, 67, 127
1, 352472, Note_on_c, 4, 64, 127
1, 352910, Note_off_c, 4, 64, 127
1, 352910, Note_off_c, 7, 67, 127
1, 352910, Note_off_c, 7, 55, 127
1, 352910, Note_off_c, 0, 60, 127
1, 352911, Note_on_c, 7, 43, 127
1, 352911, Note_on_c, 7, 67, 127
1, 352911, Note_on_c, 5, 65, 127
1, 352911, Note_on_c, 12, 71, 127
1, 352911, Note_on_c, 2, 62, 127
1, 353349, Note_off_c, 2, 62, 127
1, 353349, Note_off_c, 12, 71, 127
1, 353349, Note_off_c, 5, 65, 127
1, 353349, Note_off_c, 7, 67, 127
1, 353349, Note_off_c, 7, 43, 127
1, 353362, Note_on_c, 0, 48, 127
1, 353362, Note_on_c, 0, 72, 127
1, 353471, Note_off_c, 0, 72, 127
1, 353476, Note_on_c, 12, 71, 127
1, 353581, Note_off_c, 0, 48, 127
1, 353585, Note_off_c, 12, 71, 127
1, 353586, Note_on_c, 0, 72, 127
1, 353586, Note_on_c, 7, 55, 127
1, 353695, Note_off_c, 0, 72, 127
1, 353696, Note_on_c, 2, 74, 127
1, 353805, Note_off_c, 2, 74, 127
1, 353805, Note_off_c, 7, 55, 127
1, 353806, Note_on_c, 0, 72, 127
1, 353806, Note_on_c, 4, 52, 127
1, 353915, Note_off_c, 0, 72, 127
1, 353916, Note_on_c, 7, 67, 127
1, 354025, Note_off_c, 7, 67, 127
1, 354025, Note_off_c, 4, 52, 127
1, 354026, Note_on_c, 4, 64, 127
1, 354026, Note_on_c, 0, 48, 127
1, 354135, Note_off_c, 4, 64, 127
1, 354136, Note_on_c, 7, 67, 127
1, 354245, Note_off_c, 7, 67, 127
1, 354245, Note_off_c, 0, 48, 127
1, 354246, Note_on_c, 0, 72, 127
1, 354246, Note_on_c, 7, 55, 127
1, 354355, Note_off_c, 0, 72, 127
1, 354356, Note_on_c, 4, 64, 127
1, 354465, Note_off_c, 4, 64, 127
1, 354465, Note_off_c, 7, 55, 127
1, 354466, Note_on_c, 7, 67, 127
1, 354466, Note_on_c, 0, 48, 127
1, 354575, Note_off_c, 7, 67, 127
1, 354576, Note_on_c, 0, 72, 127
1, 354685, Note_off_c, 0, 72, 127
1, 354685, Note_off_c, 0, 48, 127
1, 354686, Note_on_c, 2, 74, 127
1, 354686, Note_on_c, 12, 47, 127
1, 354795, Note_off_c, 2, 74, 127
1, 354796, Note_on_c, 0, 72, 127
1, 354905, Note_off_c, 0, 72, 127
1, 354905, Note_off_c, 12, 47, 127
1, 354906, Note_on_c, 2, 74, 127
1, 354906, Note_on_c, 7, 55, 127
1, 355015, Note_off_c, 2, 74, 127
1, 355016, Note_on_c, 4, 76, 127
1, 355125, Note_off_c, 4, 76, 127
1, 355125, Note_off_c, 7, 55, 127
1, 355126, Note_on_c, 2, 74, 127
1, 355126, Note_on_c, 2, 50, 127
1, 355235, Note_off_c, 2, 74, 127
1, 355236, Note_on_c, 12, 71, 127
1, 355345, Note_off_c, 12, 71, 127
1, 355345, Note_off_c, 2, 50, 127
1, 355346, Note_on_c, 7, 67, 127
1, 355346, Note_on_c, 12, 47, 127
1, 355455, Note_off_c, 7, 67, 127
1, 355456, Note_on_c, 12, 71, 127
1, 355565, Note_off_c, 12, 71, 127
1, 355565, Note_off_c, 12, 47, 127
1, 355566, Note_on_c, 2, 74, 127
1, 355566, Note_on_c, 7, 55, 127
1, 355675, Note_off_c, 2, 74, 127
1, 355676, Note_on_c, 7, 67, 127
1, 355785, Note_off_c, 7, 67, 127
1, 355785, Note_off_c, 7, 55, 127
1, 355786, Note_on_c, 12, 71, 127
1, 355786, Note_on_c, 12, 47, 127
1, 355895, Note_off_c, 12, 71, 127
1, 355896, Note_on_c, 2, 74, 127
1, 356005, Note_off_c, 2, 74, 127
1, 356005, Note_off_c, 12, 47, 127
1, 356006, Note_on_c, 4, 76, 127
1, 356006, Note_on_c, 0, 48, 127
1, 356115, Note_off_c, 4, 76, 127
1, 356116, Note_on_c, 2, 74, 127
1, 356225, Note_off_c, 2, 74, 127
1, 356225, Note_off_c, 0, 48, 127
1, 356226, Note_on_c, 4, 76, 127
1, 356226, Note_on_c, 7, 55, 127
1, 356335, Note_off_c, 4, 76, 127
1, 356336, Note_on_c, 5, 77, 127
1, 356445, Note_off_c, 5, 77, 127
1, 356445, Note_off_c, 7, 55, 127
1, 356446, Note_on_c, 4, 76, 127
1, 356446, Note_on_c, 4, 52, 127
1, 356555, Note_off_c, 4, 76, 127
1, 356556, Note_on_c, 0, 72, 127
1, 356665, Note_off_c, 0, 72, 127
1, 356665, Note_off_c, 4, 52, 127
1, 356666, Note_on_c, 7, 67, 127
1, 356666, Note_on_c, 0, 48, 127
1, 356775, Note_off_c, 7, 67, 127
1, 356776, Note_on_c, 0, 72, 127
1, 356885, Note_off_c, 0, 72, 127
1, 356885, Note_off_c, 0, 48, 127
1, 356886, Note_on_c, 4, 76, 127
1, 356886, Note_on_c, 7, 55, 127
1, 356995, Note_off_c, 4, 76, 127
1, 356996, Note_on_c, 7, 67, 127
1, 357105, Note_off_c, 7, 67, 127
1, 357105, Note_off_c, 7, 55, 127
1, 357106, Note_on_c, 0, 72, 127
1, 357106, Note_on_c, 0, 48, 127
1, 357215, Note_off_c, 0, 72, 127
1, 357216, Note_on_c, 4, 76, 127
1, 357325, Note_off_c, 4, 76, 127
1, 357325, Note_off_c, 0, 48, 127
1, 357326, Note_on_c, 5, 77, 127
1, 357326, Note_on_c, 12, 47, 127
1, 357435, Note_off_c, 5, 77, 127
1, 357436, Note_on_c, 4, 76, 127
1, 357545, Note_off_c, 4, 76, 127
1, 357545, Note_off_c, 12, 47, 127
1, 357546, Note_on_c, 5, 77, 127
1, 357546, Note_on_c, 7, 55, 127
1, 357655, Note_off_c, 5, 77, 127
1, 357656, Note_on_c, 7, 79, 127
1, 357765, Note_off_c, 7, 79, 127
1, 357765, Note_off_c, 7, 55, 127
1, 357766, Note_on_c, 5, 77, 127
1, 357766, Note_on_c, 2, 50, 127
1, 357875, Note_off_c, 5, 77, 127
1, 357876, Note_on_c, 12, 71, 127
1, 357985, Note_off_c, 12, 71, 127
1, 357985, Note_off_c, 2, 50, 127
1, 357986, Note_on_c, 7, 67, 127
1, 357986, Note_on_c, 12, 47, 127
1, 358095, Note_off_c, 7, 67, 127
1, 358096, Note_on_c, 12, 71, 127
1, 358205, Note_off_c, 12, 71, 127
1, 358205, Note_off_c, 12, 47, 127
1, 358206, Note_on_c, 5, 77, 127
1, 358206, Note_on_c, 7, 55, 127
1, 358315, Note_off_c, 5, 77, 127
1, 358316, Note_on_c, 7, 67, 127
1, 358425, Note_off_c, 7, 67, 127
1, 358425, Note_off_c, 7, 55, 127
1, 358426, Note_on_c, 12, 71, 127
1, 358426, Note_on_c, 12, 47, 127
1, 358535, Note_off_c, 12, 71, 127
1, 358536, Note_on_c, 5, 77, 127
1, 358645, Note_off_c, 5, 77, 127
1, 358645, Note_off_c, 12, 47, 127
1, 358646, Note_on_c, 4, 76, 127
1, 358646, Note_on_c, 0, 48, 127
1, 358755, Note_off_c, 4, 76, 127
1, 358756, Note_on_c, 2, 74, 127
1, 358865, Note_off_c, 2, 74, 127
1, 358865, Note_off_c, 0, 48, 127
1, 358866, Note_on_c, 4, 76, 127
1, 358866, Note_on_c, 7, 55, 127
1, 358975, Note_off_c, 4, 76, 127
1, 358976, Note_on_c, 5, 77, 127
1, 359085, Note_off_c, 5, 77, 127
1, 359085, Note_off_c, 7, 55, 127
1, 359086, Note_on_c, 4, 76, 127
1, 359086, Note_on_c, 4, 52, 127
1, 359195, Note_off_c, 4, 76, 127
1, 359196, Note_on_c, 0, 72, 127
1, 359305, Note_off_c, 0, 72, 127
1, 359305, Note_off_c, 4, 52, 127
1, 359306, Note_on_c, 7, 67, 127
1, 359306, Note_on_c, 0, 48, 127
1, 359415, Note_off_c, 7, 67, 127
1, 359416, Note_on_c, 0, 72, 127
1, 359525, Note_off_c, 0, 72, 127
1, 359525, Note_off_c, 0, 48, 127
1, 359526, Note_on_c, 4, 76, 127
1, 359526, Note_on_c, 7, 55, 127
1, 359635, Note_off_c, 4, 76, 127
1, 359636, Note_on_c, 7, 67, 127
1, 359745, Note_off_c, 7, 67, 127
1, 359745, Note_off_c, 7, 55, 127
1, 359746, Note_on_c, 0, 72, 127
1, 359746, Note_on_c, 0, 48, 127
1, 359855, Note_off_c, 0, 72, 127
1, 359856, Note_on_c, 4, 76, 127
1, 359965, Note_off_c, 4, 76, 127
1, 359965, Note_off_c, 0, 48, 127
1, 359966, Note_on_c, 2, 74, 127
1, 359966, Note_on_c, 7, 55, 127
1, 360075, Note_off_c, 7, 55, 127
1, 360076, Note_on_c, 6, 54, 127
1, 360185, Note_off_c, 6, 54, 127
1, 360186, Note_on_c, 7, 55, 127
1, 360295, Note_off_c, 7, 55, 127
1, 360296, Note_on_c, 10, 57, 127
1, 360405, Note_off_c, 10, 57, 127
1, 360405, Note_off_c, 2, 74, 127
1, 360406, Note_on_c, 7, 67, 127
1, 360406, Note_on_c, 7, 55, 127
1, 360515, Note_off_c, 7, 55, 127
1, 360516, Note_on_c, 2, 50, 127
1, 360625, Note_off_c, 2, 50, 127
1, 360626, Note_on_c, 12, 47, 127
1, 360735, Note_off_c, 12, 47, 127
1, 360736, Note_on_c, 2, 50, 127
1, 360841, Note_off_c, 7, 67, 127
1, 360844, Note_off_c, 2, 50, 127
1, 360845, Note_on_c, 7, 55, 127
1, 360954, Note_off_c, 7, 55, 127
1, 360955, Note_on_c, 12, 47, 127
1, 361064, Note_off_c, 12, 47, 127
1, 361065, Note_on_c, 2, 50, 127
1, 361174, Note_off_c, 2, 50, 127
1, 361175, Note_on_c, 5, 53, 127
1, 361284, Note_off_c, 5, 53, 127
1, 361285, Note_on_c, 7, 79, 127
1, 361285, Note_on_c, 4, 52, 127
1, 361394, Note_off_c, 7, 79, 127
1, 361395, Note_on_c, 4, 76, 127
1, 361504, Note_off_c, 4, 76, 127
1, 361504, Note_off_c, 4, 52, 127
1, 361505, Note_on_c, 2, 74, 127
1, 361505, Note_on_c, 0, 60, 127
1, 361614, Note_off_c, 2, 74, 127
1, 361615, Note_on_c, 0, 72, 127
1, 361724, Note_off_c, 0, 72, 127
1, 361724, Note_off_c, 0, 60, 127
1, 361725, Note_on_c, 7, 79, 127
1, 361725, Note_on_c, 7, 55, 127
1, 361834, Note_off_c, 7, 79, 127
1, 361835, Note_on_c, 4, 76, 127
1, 361944, Note_off_c, 4, 76, 127
1, 361944, Note_off_c, 7, 55, 127
1, 361945, Note_on_c, 2, 74, 127
1, 361945, Note_on_c, 4, 52, 127
1, 362054, Note_off_c, 2, 74, 127
1, 362055, Note_on_c, 0, 72, 127
1, 362164, Note_off_c, 0, 72, 127
1, 362164, Note_off_c, 4, 52, 127
1, 362165, Note_on_c, 7, 79, 127
1, 362165, Note_on_c, 0, 60, 127
1, 362274, Note_off_c, 7, 79, 127
1, 362275, Note_on_c, 4, 76, 127
1, 362384, Note_off_c, 4, 76, 127
1, 362384, Note_off_c, 0, 60, 127
1, 362385, Note_on_c, 2, 74, 127
1, 362385, Note_on_c, 4, 52, 127
1, 362494, Note_off_c, 2, 74, 127
1, 362495, Note_on_c, 0, 72, 127
1, 362604, Note_off_c, 0, 72, 127
1, 362604, Note_off_c, 4, 52, 127
1, 362605, Note_on_c, 10, 81, 127
1, 362605, Note_on_c, 5, 53, 127
1, 362823, Note_off_c, 5, 53, 127
1, 362824, Note_on_c, 0, 60, 127
1, 363042, Note_off_c, 0, 60, 127
1, 363043, Note_on_c, 10, 57, 127
1, 363152, Note_off_c, 10, 81, 127
1, 363153, Note_on_c, 10, 81, 127
1, 363262, Note_off_c, 10, 81, 127
1, 363262, Note_off_c, 10, 57, 127
1, 363263, Note_on_c, 7, 79, 127
1, 363263, Note_on_c, 5, 53, 127
1, 363372, Note_off_c, 7, 79, 127
1, 363373, Note_on_c, 10, 81, 127
1, 363482, Note_off_c, 10, 81, 127
1, 363482, Note_off_c, 5, 53, 127
1, 363483, Note_on_c, 5, 77, 127
1, 363483, Note_on_c, 0, 60, 127
1, 363592, Note_off_c, 5, 77, 127
1, 363593, Note_on_c, 4, 76, 127
1, 363702, Note_off_c, 4, 76, 127
1, 363702, Note_off_c, 0, 60, 127
1, 363703, Note_on_c, 2, 74, 127
1, 363703, Note_on_c, 4, 52, 127
1, 363812, Note_off_c, 2, 74, 127
1, 363813, Note_on_c, 0, 72, 127
1, 363922, Note_off_c, 0, 72, 127
1, 363922, Note_off_c, 4, 52, 127
1, 363923, Note_on_c, 12, 71, 127
1, 363923, Note_on_c, 2, 50, 127
1, 364032, Note_off_c, 12, 71, 127
1, 364033, Note_on_c, 0, 72, 127
1, 364142, Note_off_c, 0, 72, 127
1, 364142, Note_off_c, 2, 50, 127
1, 364143, Note_on_c, 2, 74, 127
1, 364143, Note_on_c, 12, 59, 127
1, 364252, Note_off_c, 2, 74, 127
1, 364253, Note_on_c, 0, 72, 127
1, 364362, Note_off_c, 0, 72, 127
1, 364362, Note_off_c, 12, 59, 127
1, 364363, Note_on_c, 12, 71, 127
1, 364363, Note_on_c, 5, 53, 127
1, 364472, Note_off_c, 12, 71, 127
1, 364473, Note_on_c, 0, 72, 127
1, 364582, Note_off_c, 0, 72, 127
1, 364582, Note_off_c, 5, 53, 127
1, 364583, Note_on_c, 2, 74, 127
1, 364583, Note_on_c, 2, 50, 127
1, 364692, Note_off_c, 2, 74, 127
1, 364693, Note_on_c, 0, 72, 127
1, 364802, Note_off_c, 0, 72, 127
1, 364802, Note_off_c, 2, 50, 127
1, 364803, Note_on_c, 12, 71, 127
1, 364803, Note_on_c, 12, 59, 127
1, 364912, Note_off_c, 12, 71, 127
1, 364913, Note_on_c, 0, 72, 127
1, 365022, Note_off_c, 0, 72, 127
1, 365022, Note_off_c, 12, 59, 127
1, 365023, Note_on_c, 2, 74, 127
1, 365023, Note_on_c, 2, 50, 127
1, 365132, Note_off_c, 2, 74, 127
1, 365133, Note_on_c, 12, 71, 127
1, 365242, Note_off_c, 12, 71, 127
1, 365242, Note_off_c, 2, 50, 127
1, 365243, Note_on_c, 7, 79, 127
1, 365243, Note_on_c, 4, 52, 127
1, 365461, Note_off_c, 4, 52, 127
1, 365462, Note_on_c, 12, 59, 127
1, 365680, Note_off_c, 12, 59, 127
1, 365681, Note_on_c, 7, 55, 127
1, 365790, Note_off_c, 7, 79, 127
1, 365791, Note_on_c, 7, 79, 127
1, 365900, Note_off_c, 7, 79, 127
1, 365900, Note_off_c, 7, 55, 127
1, 365901, Note_on_c, 5, 77, 127
1, 365901, Note_on_c, 4, 52, 127
1, 366010, Note_off_c, 5, 77, 127
1, 366011, Note_on_c, 7, 79, 127
1, 366120, Note_off_c, 7, 79, 127
1, 366120, Note_off_c, 4, 52, 127
1, 366121, Note_on_c, 4, 76, 127
1, 366121, Note_on_c, 12, 59, 127
1, 366230, Note_off_c, 4, 76, 127
1, 366231, Note_on_c, 2, 74, 127
1, 366340, Note_off_c, 2, 74, 127
1, 366340, Note_off_c, 12, 59, 127
1, 366341, Note_on_c, 0, 72, 127
1, 366341, Note_on_c, 2, 50, 127
1, 366450, Note_off_c, 0, 72, 127
1, 366451, Note_on_c, 12, 71, 127
1, 366560, Note_off_c, 12, 71, 127
1, 366560, Note_off_c, 2, 50, 127
1, 366561, Note_on_c, 10, 69, 127
1, 366561, Note_on_c, 0, 48, 127
1, 366670, Note_off_c, 10, 69, 127
1, 366671, Note_on_c, 12, 71, 127
1, 366780, Note_off_c, 12, 71, 127
1, 366780, Note_off_c, 0, 48, 127
1, 366781, Note_on_c, 0, 72, 127
1, 366781, Note_on_c, 10, 57, 127
1, 366890, Note_off_c, 0, 72, 127
1, 366891, Note_on_c, 12, 71, 127
1, 367000, Note_off_c, 12, 71, 127
1, 367000, Note_off_c, 10, 57, 127
1, 367001, Note_on_c, 10, 69, 127
1, 367001, Note_on_c, 4, 52, 127
1, 367110, Note_off_c, 10, 69, 127
1, 367111, Note_on_c, 12, 71, 127
1, 367220, Note_off_c, 12, 71, 127
1, 367220, Note_off_c, 4, 52, 127
1, 367221, Note_on_c, 0, 72, 127
1, 367221, Note_on_c, 0, 48, 127
1, 367330, Note_off_c, 0, 72, 127
1, 367331, Note_on_c, 12, 71, 127
1, 367440, Note_off_c, 12, 71, 127
1, 367440, Note_off_c, 0, 48, 127
1, 367441, Note_on_c, 10, 69, 127
1, 367441, Note_on_c, 10, 57, 127
1, 367550, Note_off_c, 10, 69, 127
1, 367551, Note_on_c, 12, 71, 127
1, 367660, Note_off_c, 12, 71, 127
1, 367660, Note_off_c, 10, 57, 127
1, 367661, Note_on_c, 0, 72, 127
1, 367661, Note_on_c, 0, 48, 127
1, 367770, Note_off_c, 0, 72, 127
1, 367771, Note_on_c, 10, 69, 127
1, 367880, Note_off_c, 10, 69, 127
1, 367880, Note_off_c, 0, 48, 127
1, 367881, Note_on_c, 5, 77, 127
1, 367881, Note_on_c, 2, 50, 127
1, 368099, Note_off_c, 2, 50, 127
1, 368100, Note_on_c, 10, 57, 127
1, 368318, Note_off_c, 10, 57, 127
1, 368319, Note_on_c, 5, 53, 127
1, 368428, Note_off_c, 5, 77, 127
1, 368429, Note_on_c, 5, 77, 127
1, 368538, Note_off_c, 5, 77, 127
1, 368538, Note_off_c, 5, 53, 127
1, 368539, Note_on_c, 4, 76, 127
1, 368539, Note_on_c, 2, 50, 127
1, 368648, Note_off_c, 4, 76, 127
1, 368649, Note_on_c, 5, 77, 127
1, 368758, Note_off_c, 5, 77, 127
1, 368758, Note_off_c, 2, 50, 127
1, 368759, Note_on_c, 2, 74, 127
1, 368759, Note_on_c, 10, 57, 127
1, 368868, Note_off_c, 2, 74, 127
1, 368869, Note_on_c, 0, 72, 127
1, 368978, Note_off_c, 0, 72, 127
1, 368978, Note_off_c, 10, 57, 127
1, 368979, Note_on_c, 12, 71, 127
1, 368979, Note_on_c, 0, 48, 127
1, 369088, Note_off_c, 12, 71, 127
1, 369089, Note_on_c, 10, 69, 127
1, 369198, Note_off_c, 10, 69, 127
1, 369198, Note_off_c, 0, 48, 127
1, 369199, Note_on_c, 7, 67, 127
1, 369199, Note_on_c, 12, 47, 127
1, 369308, Note_off_c, 7, 67, 127
1, 369309, Note_on_c, 10, 69, 127
1, 369418, Note_off_c, 10, 69, 127
1, 369418, Note_off_c, 12, 47, 127
1, 369419, Note_on_c, 12, 71, 127
1, 369419, Note_on_c, 7, 55, 127
1, 369528, Note_off_c, 12, 71, 127
1, 369529, Note_on_c, 10, 69, 127
1, 369638, Note_off_c, 10, 69, 127
1, 369638, Note_off_c, 7, 55, 127
1, 369639, Note_on_c, 7, 67, 127
1, 369639, Note_on_c, 2, 50, 127
1, 369748, Note_off_c, 7, 67, 127
1, 369749, Note_on_c, 10, 69, 127
1, 369858, Note_off_c, 10, 69, 127
1, 369858, Note_off_c, 2, 50, 127
1, 369859, Note_on_c, 12, 71, 127
1, 369859, Note_on_c, 12, 47, 127
1, 369968, Note_off_c, 12, 71, 127
1, 369969, Note_on_c, 10, 69, 127
1, 370078, Note_off_c, 10, 69, 127
1, 370078, Note_off_c, 12, 47, 127
1, 370079, Note_on_c, 7, 67, 127
1, 370079, Note_on_c, 7, 55, 127
1, 370188, Note_off_c, 7, 67, 127
1, 370189, Note_on_c, 10, 69, 127
1, 370298, Note_off_c, 10, 69, 127
1, 370298, Note_off_c, 7, 55, 127
1, 370299, Note_on_c, 12, 71, 127
1, 370299, Note_on_c, 12, 47, 127
1, 370408, Note_off_c, 12, 71, 127
1, 370409, Note_on_c, 7, 67, 127
1, 370518, Note_off_c, 7, 67, 127
1, 370518, Note_off_c, 12, 47, 127
1, 370519, Note_on_c, 0, 72, 127
1, 370519, Note_on_c, 4, 52, 127
1, 370628, Note_off_c, 0, 72, 127
1, 370629, Note_on_c, 4, 76, 127
1, 370738, Note_off_c, 4, 76, 127
1, 370738, Note_off_c, 4, 52, 127
1, 370739, Note_on_c, 2, 74, 127
1, 370739, Note_on_c, 7, 55, 127
1, 370848, Note_off_c, 2, 74, 127
1, 370849, Note_on_c, 4, 76, 127
1, 370958, Note_off_c, 4, 76, 127
1, 370958, Note_off_c, 7, 55, 127
1, 370959, Note_on_c, 0, 72, 127
1, 370959, Note_on_c, 4, 52, 127
1, 371068, Note_off_c, 0, 72, 127
1, 371069, Note_on_c, 2, 74, 127
1, 371178, Note_off_c, 2, 74, 127
1, 371178, Note_off_c, 4, 52, 127
1, 371179, Note_on_c, 12, 71, 127
1, 371179, Note_on_c, 0, 48, 127
1, 371288, Note_off_c, 12, 71, 127
1, 371289, Note_on_c, 0, 72, 127
1, 371398, Note_off_c, 0, 72, 127
1, 371398, Note_off_c, 0, 48, 127
1, 371399, Note_on_c, 10, 69, 127
1, 371399, Note_on_c, 10, 57, 127
1, 371508, Note_off_c, 10, 69, 127
1, 371509, Note_on_c, 12, 71, 127
1, 371618, Note_off_c, 12, 71, 127
1, 371618, Note_off_c, 10, 57, 127
1, 371619, Note_on_c, 7, 67, 127
1, 371619, Note_on_c, 4, 52, 127
1, 371728, Note_off_c, 7, 67, 127
1, 371729, Note_on_c, 10, 69, 127
1, 371838, Note_off_c, 10, 69, 127
1, 371838, Note_off_c, 4, 52, 127
1, 371839, Note_on_c, 2, 62, 127
1, 371839, Note_on_c, 6, 54, 127
1, 371948, Note_off_c, 6, 54, 127
1, 371949, Note_on_c, 7, 55, 127
1, 372058, Note_off_c, 7, 55, 127
1, 372059, Note_on_c, 6, 66, 127
1, 372059, Note_on_c, 10, 57, 127
1, 372168, Note_off_c, 10, 57, 127
1, 372169, Note_on_c, 12, 59, 127
1, 372278, Note_off_c, 12, 59, 127
1, 372279, Note_on_c, 0, 72, 127
1, 372279, Note_on_c, 10, 57, 127
1, 372388, Note_off_c, 10, 57, 127
1, 372389, Note_on_c, 7, 55, 127
1, 372498, Note_off_c, 7, 55, 127
1, 372499, Note_on_c, 4, 76, 127
1, 372499, Note_on_c, 6, 54, 127
1, 372608, Note_off_c, 6, 54, 127
1, 372609, Note_on_c, 7, 55, 127
1, 372714, Note_off_c, 0, 72, 127
1, 372717, Note_off_c, 7, 55, 127
1, 372717, Note_off_c, 4, 76, 127
1, 372718, Note_on_c, 0, 72, 127
1, 372718, Note_on_c, 10, 57, 127
1, 372827, Note_off_c, 10, 57, 127
1, 372828, Note_on_c, 12, 59, 127
1, 372937, Note_off_c, 12, 59, 127
1, 372937, Note_off_c, 0, 72, 127
1, 372937, Note_off_c, 6, 66, 127
1, 372938, Note_on_c, 6, 66, 127
1, 372938, Note_on_c, 10, 57, 127
1, 373047, Note_off_c, 10, 57, 127
1, 373048, Note_on_c, 7, 55, 127
1, 373155, Note_off_c, 2, 62, 127
1, 373156, Note_off_c, 7, 55, 127
1, 373156, Note_off_c, 6, 66, 127
1, 373157, Note_on_c, 2, 62, 127
1, 373157, Note_on_c, 6, 54, 127
1, 373266, Note_off_c, 6, 54, 127
1, 373267, Note_on_c, 7, 55, 127
1, 373376, Note_off_c, 7, 55, 127
1, 373377, Note_on_c, 6, 66, 127
1, 373377, Note_on_c, 10, 57, 127
1, 373486, Note_off_c, 10, 57, 127
1, 373487, Note_on_c, 12, 59, 127
1, 373596, Note_off_c, 12, 59, 127
1, 373597, Note_on_c, 0, 72, 127
1, 373597, Note_on_c, 10, 57, 127
1, 373706, Note_off_c, 10, 57, 127
1, 373707, Note_on_c, 7, 55, 127
1, 373816, Note_off_c, 7, 55, 127
1, 373817, Note_on_c, 4, 76, 127
1, 373817, Note_on_c, 6, 54, 127
1, 373926, Note_off_c, 6, 54, 127
1, 373927, Note_on_c, 7, 55, 127
1, 374032, Note_off_c, 0, 72, 127
1, 374035, Note_off_c, 7, 55, 127
1, 374035, Note_off_c, 4, 76, 127
1, 374036, Note_on_c, 0, 72, 127
1, 374036, Note_on_c, 10, 57, 127
1, 374145, Note_off_c, 10, 57, 127
1, 374146, Note_on_c, 12, 59, 127
1, 374255, Note_off_c, 12, 59, 127
1, 374255, Note_off_c, 0, 72, 127
1, 374255, Note_off_c, 6, 66, 127
1, 374256, Note_on_c, 6, 66, 127
1, 374256, Note_on_c, 10, 57, 127
1, 374365, Note_off_c, 10, 57, 127
1, 374366, Note_on_c, 7, 55, 127
1, 374473, Note_off_c, 2, 62, 127
1, 374474, Note_off_c, 7, 55, 127
1, 374474, Note_off_c, 6, 66, 127
1, 374475, Note_on_c, 2, 62, 127
1, 374475, Note_on_c, 6, 54, 127
1, 374584, Note_off_c, 6, 54, 127
1, 374585, Note_on_c, 7, 55, 127
1, 374694, Note_off_c, 7, 55, 127
1, 374695, Note_on_c, 6, 66, 127
1, 374695, Note_on_c, 10, 57, 127
1, 374804, Note_off_c, 10, 57, 127
1, 374805, Note_on_c, 12, 59, 127
1, 374910, Note_off_c, 2, 62, 127
1, 374913, Note_off_c, 12, 59, 127
1, 374914, Note_on_c, 0, 72, 127
1, 374914, Note_on_c, 10, 57, 127
1, 375015, Note_off_c, 6, 66, 127
1, 375023, Note_off_c, 10, 57, 127
1, 375024, Note_on_c, 7, 55, 127
1, 375133, Note_off_c, 7, 55, 127
1, 375133, Note_off_c, 0, 72, 127
1, 375134, Note_on_c, 4, 76, 127
1, 375134, Note_on_c, 6, 54, 127
1, 375243, Note_off_c, 6, 54, 127
1, 375244, Note_on_c, 7, 55, 127
1, 375353, Note_off_c, 7, 55, 127
1, 375353, Note_off_c, 4, 76, 127
1, 375354, Note_on_c, 2, 74, 127
1, 375354, Note_on_c, 6, 54, 127
1, 375463, Note_off_c, 6, 54, 127
1, 375463, Note_off_c, 2, 74, 127
1, 375464, Note_on_c, 0, 72, 127
1, 375464, Note_on_c, 10, 57, 127
1, 375573, Note_off_c, 10, 57, 127
1, 375573, Note_off_c, 0, 72, 127
1, 375574, Note_on_c, 12, 71, 127
1, 375574, Note_on_c, 7, 55, 127
1, 375683, Note_off_c, 7, 55, 127
1, 375683, Note_off_c, 12, 71, 127
1, 375684, Note_on_c, 10, 69, 127
1, 375684, Note_on_c, 6, 54, 127
1, 375793, Note_off_c, 6, 54, 127
1, 375793, Note_off_c, 10, 69, 127
1, 375794, Note_on_c, 0, 72, 127
1, 375794, Note_on_c, 7, 55, 127
1, 375903, Note_off_c, 0, 72, 127
1, 375904, Note_on_c, 12, 71, 127
1, 376013, Note_off_c, 12, 71, 127
1, 376013, Note_off_c, 7, 55, 127
1, 376014, Note_on_c, 10, 69, 127
1, 376014, Note_on_c, 2, 62, 127
1, 376123, Note_off_c, 10, 69, 127
1, 376124, Note_on_c, 7, 67, 127
1, 376233, Note_off_c, 7, 67, 127
1, 376233, Note_off_c, 2, 62, 127
1, 376234, Note_on_c, 10, 69, 127
1, 376234, Note_on_c, 12, 59, 127
1, 376343, Note_off_c, 10, 69, 127
1, 376344, Note_on_c, 12, 71, 127
1, 376453, Note_off_c, 12, 71, 127
1, 376453, Note_off_c, 12, 59, 127
1, 376454, Note_on_c, 0, 72, 127
1, 376454, Note_on_c, 5, 53, 127
1, 376563, Note_off_c, 0, 72, 127
1, 376564, Note_on_c, 2, 74, 127
1, 376673, Note_off_c, 2, 74, 127
1, 376673, Note_off_c, 5, 53, 127
1, 376674, Note_on_c, 4, 76, 127
1, 376674, Note_on_c, 0, 60, 127
1, 376783, Note_off_c, 4, 76, 127
1, 376784, Note_on_c, 2, 74, 127
1, 376893, Note_off_c, 2, 74, 127
1, 376893, Note_off_c, 0, 60, 127
1, 376894, Note_on_c, 4, 76, 127
1, 376894, Note_on_c, 4, 52, 127
1, 377003, Note_off_c, 4, 76, 127
1, 377004, Note_on_c, 0, 72, 127
1, 377113, Note_off_c, 0, 72, 127
1, 377113, Note_off_c, 4, 52, 127
1, 377114, Note_on_c, 7, 79, 127
1, 377114, Note_on_c, 2, 50, 127
1, 377223, Note_off_c, 7, 79, 127
1, 377224, Note_on_c, 6, 78, 127
1, 377333, Note_off_c, 6, 78, 127
1, 377333, Note_off_c, 2, 50, 127
1, 377334, Note_on_c, 4, 76, 127
1, 377334, Note_on_c, 10, 57, 127
1, 377443, Note_off_c, 4, 76, 127
1, 377444, Note_on_c, 2, 74, 127
1, 377553, Note_off_c, 2, 74, 127
1, 377553, Note_off_c, 10, 57, 127
1, 377554, Note_on_c, 4, 76, 127
1, 377554, Note_on_c, 6, 54, 127
1, 377663, Note_off_c, 4, 76, 127
1, 377664, Note_on_c, 6, 78, 127
1, 377773, Note_off_c, 6, 78, 127
1, 377773, Note_off_c, 6, 54, 127
1, 377774, Note_on_c, 7, 79, 127
1, 377774, Note_on_c, 0, 48, 127
1, 377883, Note_off_c, 7, 79, 127
1, 377884, Note_on_c, 10, 81, 127
1, 377993, Note_off_c, 10, 81, 127
1, 377993, Note_off_c, 0, 48, 127
1, 377994, Note_on_c, 12, 83, 127
1, 377994, Note_on_c, 7, 55, 127
1, 378103, Note_off_c, 12, 83, 127
1, 378104, Note_on_c, 10, 81, 127
1, 378213, Note_off_c, 10, 81, 127
1, 378213, Note_off_c, 7, 55, 127
1, 378214, Note_on_c, 12, 83, 127
1, 378214, Note_on_c, 12, 47, 127
1, 378323, Note_off_c, 12, 83, 127
1, 378324, Note_on_c, 6, 78, 127
1, 378433, Note_off_c, 6, 78, 127
1, 378433, Note_off_c, 12, 47, 127
1, 378434, Note_on_c, 7, 79, 127
1, 378434, Note_on_c, 4, 52, 127
1, 378543, Note_off_c, 7, 79, 127
1, 378544, Note_on_c, 12, 71, 127
1, 378653, Note_off_c, 12, 71, 127
1, 378653, Note_off_c, 4, 52, 127
1, 378654, Note_on_c, 0, 72, 127
1, 378654, Note_on_c, 0, 48, 127
1, 378763, Note_off_c, 0, 72, 127
1, 378764, Note_on_c, 2, 74, 127
1, 378873, Note_off_c, 2, 74, 127
1, 378873, Note_off_c, 0, 48, 127
1, 378874, Note_on_c, 12, 71, 127
1, 378874, Note_on_c, 2, 50, 127
1, 378983, Note_off_c, 2, 50, 127
1, 378984, Note_on_c, 0, 48, 127
1, 379093, Note_off_c, 0, 48, 127
1, 379094, Note_on_c, 12, 47, 127
1, 379203, Note_off_c, 12, 47, 127
1, 379204, Note_on_c, 0, 48, 127
1, 379313, Note_off_c, 0, 48, 127
1, 379313, Note_off_c, 12, 71, 127
1, 379314, Note_on_c, 10, 69, 127
1, 379314, Note_on_c, 2, 50, 127
1, 379368, Note_off_c, 10, 69, 127
1, 379369, Note_on_c, 12, 71, 127
1, 379423, Note_off_c, 12, 71, 127
1, 379424, Note_on_c, 10, 69, 127
1, 379478, Note_off_c, 10, 69, 127
1, 379479, Note_on_c, 12, 71, 127
1, 379533, Note_off_c, 12, 71, 127
1, 379533, Note_off_c, 2, 50, 127
1, 379534, Note_on_c, 10, 69, 127
1, 379534, Note_on_c, 2, 38, 127
1, 379643, Note_off_c, 10, 69, 127
1, 379644, Note_on_c, 7, 67, 127
1, 379753, Note_off_c, 7, 67, 127
1, 379753, Note_off_c, 2, 38, 127
1, 379754, Note_on_c, 7, 67, 127
1, 379754, Note_on_c, 7, 43, 127
1, 379972, Note_off_c, 7, 67, 127
1, 379973, Note_on_c, 12, 71, 127
1, 380191, Note_off_c, 12, 71, 127
1, 380191, Note_off_c, 7, 43, 127
1, 380192, Note_on_c, 7, 67, 127
1, 380192, Note_on_c, 7, 55, 127
1, 380410, Note_off_c, 7, 67, 127
1, 380411, Note_on_c, 2, 62, 127
1, 380626, Note_off_c, 7, 55, 127
1, 380629, Note_off_c, 2, 62, 127
1, 380630, Note_on_c, 12, 59, 127
1, 380848, Note_off_c, 12, 59, 127
1, 380849, Note_on_c, 2, 62, 127
1, 381067, Note_off_c, 2, 62, 127
1, 381068, Note_on_c, 2, 62, 127
1, 381068, Note_on_c, 7, 67, 127
1, 381068, Note_on_c, 12, 59, 127
1, 381178, Note_on_c, 7, 55, 127
1, 381287, Note_off_c, 7, 55, 127
1, 381288, Note_on_c, 6, 54, 127
1, 381397, Note_off_c, 6, 54, 127
1, 381398, Note_on_c, 4, 52, 127
1, 381507, Note_off_c, 4, 52, 127
1, 381507, Note_off_c, 12, 59, 127
1, 381507, Note_off_c, 7, 67, 127
1, 381507, Note_off_c, 2, 62, 127
1, 381508, Note_on_c, 7, 67, 127
1, 381508, Note_on_c, 2, 62, 127
1, 381508, Note_on_c, 12, 71, 127
1, 381508, Note_on_c, 2, 50, 127
1, 381617, Note_off_c, 2, 50, 127
1, 381618, Note_on_c, 0, 48, 127
1, 381727, Note_off_c, 0, 48, 127
1, 381728, Note_on_c, 12, 47, 127
1, 381837, Note_off_c, 12, 47, 127
1, 381838, Note_on_c, 10, 45, 127
1, 381943, Note_off_c, 12, 71, 127
1, 381943, Note_off_c, 2, 62, 127
1, 381943, Note_off_c, 7, 67, 127
1, 381946, Note_off_c, 10, 45, 127
1, 381947, Note_on_c, 7, 43, 127
1, 382056, Note_off_c, 7, 43, 127
1, 382057, Note_on_c, 12, 47, 127
1, 382166, Note_off_c, 12, 47, 127
1, 382167, Note_on_c, 10, 45, 127
1, 382276, Note_off_c, 10, 45, 127
1, 382277, Note_on_c, 7, 43, 127
1, 382386, Note_off_c, 7, 43, 127
1, 382387, Note_on_c, 10, 69, 127
1, 382387, Note_on_c, 2, 38, 127
1, 382605, Note_off_c, 10, 69, 127
1, 382606, Note_on_c, 2, 74, 127
1, 382824, Note_off_c, 2, 74, 127
1, 382824, Note_off_c, 2, 38, 127
1, 382825, Note_on_c, 10, 69, 127
1, 382825, Note_on_c, 2, 50, 127
1, 383043, Note_off_c, 10, 69, 127
1, 383044, Note_on_c, 6, 66, 127
1, 383259, Note_off_c, 2, 50, 127
1, 383262, Note_off_c, 6, 66, 127
1, 383263, Note_on_c, 2, 62, 127
1, 383481, Note_off_c, 2, 62, 127
1, 383482, Note_on_c, 6, 66, 127
1, 383700, Note_off_c, 6, 66, 127
1, 383701, Note_on_c, 2, 62, 127
1, 383701, Note_on_c, 6, 66, 127
1, 383701, Note_on_c, 10, 69, 127
1, 383811, Note_on_c, 2, 50, 127
1, 383920, Note_off_c, 2, 50, 127
1, 383921, Note_on_c, 0, 48, 127
1, 384030, Note_off_c, 0, 48, 127
1, 384031, Note_on_c, 12, 47, 127
1, 384140, Note_off_c, 12, 47, 127
1, 384140, Note_off_c, 10, 69, 127
1, 384140, Note_off_c, 6, 66, 127
1, 384140, Note_off_c, 2, 62, 127
1, 384141, Note_on_c, 2, 74, 127
1, 384141, Note_on_c, 6, 66, 127
1, 384141, Note_on_c, 10, 69, 127
1, 384141, Note_on_c, 10, 45, 127
1, 384250, Note_off_c, 10, 45, 127
1, 384251, Note_on_c, 7, 43, 127
1, 384360, Note_off_c, 7, 43, 127
1, 384361, Note_on_c, 6, 42, 127
1, 384470, Note_off_c, 6, 42, 127
1, 384471, Note_on_c, 4, 40, 127
1, 384576, Note_off_c, 10, 69, 127
1, 384576, Note_off_c, 6, 66, 127
1, 384576, Note_off_c, 2, 74, 127
1, 384579, Note_off_c, 4, 40, 127
1, 384580, Note_on_c, 2, 38, 127
1, 384689, Note_off_c, 2, 38, 127
1, 384690, Note_on_c, 6, 42, 127
1, 384799, Note_off_c, 6, 42, 127
1, 384800, Note_on_c, 4, 40, 127
1, 384909, Note_off_c, 4, 40, 127
1, 384910, Note_on_c, 2, 38, 127
1, 385019, Note_off_c, 2, 38, 127
1, 385020, Note_on_c, 12, 71, 127
1, 385020, Note_on_c, 7, 43, 127
1, 385238, Note_off_c, 12, 71, 127
1, 385239, Note_on_c, 7, 79, 127
1, 385454, Note_off_c, 7, 43, 127
1, 385457, Note_off_c, 7, 79, 127
1, 385458, Note_on_c, 2, 74, 127
1, 385568, Note_on_c, 7, 55, 127
1, 385677, Note_off_c, 7, 55, 127
1, 385677, Note_off_c, 2, 74, 127
1, 385678, Note_on_c, 12, 71, 127
1, 385678, Note_on_c, 5, 53, 127
1, 385787, Note_off_c, 5, 53, 127
1, 385788, Note_on_c, 4, 52, 127
1, 385897, Note_off_c, 4, 52, 127
1, 385897, Note_off_c, 12, 71, 127
1, 385898, Note_on_c, 7, 67, 127
1, 385898, Note_on_c, 2, 50, 127
1, 386007, Note_off_c, 2, 50, 127
1, 386008, Note_on_c, 4, 52, 127
1, 386117, Note_off_c, 4, 52, 127
1, 386117, Note_off_c, 7, 67, 127
1, 386118, Note_on_c, 12, 71, 127
1, 386118, Note_on_c, 2, 50, 127
1, 386227, Note_off_c, 2, 50, 127
1, 386228, Note_on_c, 0, 48, 127
1, 386337, Note_off_c, 0, 48, 127
1, 386337, Note_off_c, 12, 71, 127
1, 386338, Note_on_c, 2, 74, 127
1, 386338, Note_on_c, 12, 47, 127
1, 386447, Note_off_c, 12, 47, 127
1, 386448, Note_on_c, 0, 48, 127
1, 386557, Note_off_c, 0, 48, 127
1, 386557, Note_off_c, 2, 74, 127
1, 386558, Note_on_c, 5, 77, 127
1, 386558, Note_on_c, 12, 47, 127
1, 386667, Note_off_c, 12, 47, 127
1, 386668, Note_on_c, 10, 45, 127
1, 386777, Note_off_c, 10, 45, 127
1, 386777, Note_off_c, 5, 77, 127
1, 386778, Note_on_c, 2, 74, 127
1, 386778, Note_on_c, 7, 43, 127
1, 386887, Note_off_c, 7, 43, 127
1, 386888, Note_on_c, 10, 45, 127
1, 386997, Note_off_c, 10, 45, 127
1, 386997, Note_off_c, 2, 74, 127
1, 386998, Note_on_c, 12, 71, 127
1, 386998, Note_on_c, 7, 43, 127
1, 387107, Note_off_c, 7, 43, 127
1, 387108, Note_on_c, 5, 41, 127
1, 387217, Note_off_c, 5, 41, 127
1, 387217, Note_off_c, 12, 71, 127
1, 387218, Note_on_c, 7, 67, 127
1, 387218, Note_on_c, 4, 40, 127
1, 387327, Note_off_c, 4, 40, 127
1, 387328, Note_on_c, 5, 41, 127
1, 387437, Note_off_c, 5, 41, 127
1, 387437, Note_off_c, 7, 67, 127
1, 387438, Note_on_c, 5, 77, 127
1, 387438, Note_on_c, 4, 40, 127
1, 387547, Note_off_c, 4, 40, 127
1, 387548, Note_on_c, 2, 38, 127
1, 387657, Note_off_c, 2, 38, 127
1, 387657, Note_off_c, 5, 77, 127
1, 387658, Note_on_c, 4, 76, 127
1, 387658, Note_on_c, 0, 36, 127
1, 387876, Note_off_c, 4, 76, 127
1, 387877, Note_on_c, 0, 72, 127
1, 388092, Note_off_c, 0, 36, 127
1, 388095, Note_off_c, 0, 72, 127
1, 388096, Note_on_c, 7, 67, 127
1, 388206, Note_on_c, 0, 60, 127
1, 388315, Note_off_c, 0, 60, 127
1, 388315, Note_off_c, 7, 67, 127
1, 388316, Note_on_c, 4, 64, 127
1, 388316, Note_on_c, 12, 59, 127
1, 388425, Note_off_c, 12, 59, 127
1, 388426, Note_on_c, 10, 57, 127
1, 388535, Note_off_c, 10, 57, 127
1, 388535, Note_off_c, 4, 64, 127
1, 388536, Note_on_c, 0, 60, 127
1, 388536, Note_on_c, 7, 55, 127
1, 388645, Note_off_c, 7, 55, 127
1, 388646, Note_on_c, 10, 57, 127
1, 388755, Note_off_c, 10, 57, 127
1, 388755, Note_off_c, 0, 60, 127
1, 388756, Note_on_c, 4, 64, 127
1, 388756, Note_on_c, 7, 55, 127
1, 388865, Note_off_c, 7, 55, 127
1, 388866, Note_on_c, 5, 53, 127
1, 388975, Note_off_c, 5, 53, 127
1, 388975, Note_off_c, 4, 64, 127
1, 388976, Note_on_c, 7, 67, 127
1, 388976, Note_on_c, 4, 52, 127
1, 389085, Note_off_c, 4, 52, 127
1, 389086, Note_on_c, 5, 53, 127
1, 389195, Note_off_c, 5, 53, 127
1, 389195, Note_off_c, 7, 67, 127
1, 389196, Note_on_c, 11, 70, 127
1, 389196, Note_on_c, 4, 52, 127
1, 389305, Note_off_c, 4, 52, 127
1, 389306, Note_on_c, 2, 50, 127
1, 389415, Note_off_c, 2, 50, 127
1, 389415, Note_off_c, 11, 70, 127
1, 389416, Note_on_c, 7, 67, 127
1, 389416, Note_on_c, 0, 48, 127
1, 389525, Note_off_c, 0, 48, 127
1, 389526, Note_on_c, 2, 50, 127
1, 389635, Note_off_c, 2, 50, 127
1, 389635, Note_off_c, 7, 67, 127
1, 389636, Note_on_c, 4, 64, 127
1, 389636, Note_on_c, 0, 48, 127
1, 389745, Note_off_c, 0, 48, 127
1, 389746, Note_on_c, 11, 46, 127
1, 389855, Note_off_c, 11, 46, 127
1, 389855, Note_off_c, 4, 64, 127
1, 389856, Note_on_c, 0, 60, 127
1, 389856, Note_on_c, 10, 45, 127
1, 389965, Note_off_c, 10, 45, 127
1, 389966, Note_on_c, 11, 46, 127
1, 390075, Note_off_c, 11, 46, 127
1, 390075, Note_off_c, 0, 60, 127
1, 390076, Note_on_c, 11, 70, 127
1, 390076, Note_on_c, 10, 45, 127
1, 390185, Note_off_c, 10, 45, 127
1, 390186, Note_on_c, 7, 43, 127
1, 390295, Note_off_c, 7, 43, 127
1, 390295, Note_off_c, 11, 70, 127
1, 390296, Note_on_c, 10, 69, 127
1, 390296, Note_on_c, 5, 41, 127
1, 390514, Note_off_c, 10, 69, 127
1, 390515, Note_on_c, 5, 77, 127
1, 390730, Note_off_c, 5, 41, 127
1, 390733, Note_off_c, 5, 77, 127
1, 390734, Note_on_c, 0, 72, 127
1, 390844, Note_on_c, 5, 65, 127
1, 390953, Note_off_c, 5, 65, 127
1, 390953, Note_off_c, 0, 72, 127
1, 390954, Note_on_c, 10, 69, 127
1, 390954, Note_on_c, 4, 64, 127
1, 391063, Note_off_c, 4, 64, 127
1, 391064, Note_on_c, 2, 62, 127
1, 391173, Note_off_c, 2, 62, 127
1, 391173, Note_off_c, 10, 69, 127
1, 391174, Note_on_c, 5, 65, 127
1, 391174, Note_on_c, 0, 60, 127
1, 391283, Note_off_c, 0, 60, 127
1, 391284, Note_on_c, 2, 62, 127
1, 391393, Note_off_c, 2, 62, 127
1, 391393, Note_off_c, 5, 65, 127
1, 391394, Note_on_c, 10, 69, 127
1, 391394, Note_on_c, 0, 60, 127
1, 391503, Note_off_c, 0, 60, 127
1, 391504, Note_on_c, 11, 58, 127
1, 391613, Note_off_c, 11, 58, 127
1, 391613, Note_off_c, 10, 69, 127
1, 391614, Note_on_c, 0, 72, 127
1, 391614, Note_on_c, 10, 57, 127
1, 391723, Note_off_c, 10, 57, 127
1, 391724, Note_on_c, 11, 58, 127
1, 391833, Note_off_c, 11, 58, 127
1, 391833, Note_off_c, 0, 72, 127
1, 391834, Note_on_c, 3, 75, 127
1, 391834, Note_on_c, 10, 57, 127
1, 391943, Note_off_c, 10, 57, 127
1, 391944, Note_on_c, 7, 55, 127
1, 392053, Note_off_c, 7, 55, 127
1, 392053, Note_off_c, 3, 75, 127
1, 392054, Note_on_c, 0, 72, 127
1, 392054, Note_on_c, 5, 53, 127
1, 392163, Note_off_c, 5, 53, 127
1, 392164, Note_on_c, 7, 55, 127
1, 392273, Note_off_c, 7, 55, 127
1, 392273, Note_off_c, 0, 72, 127
1, 392274, Note_on_c, 10, 69, 127
1, 392274, Note_on_c, 5, 53, 127
1, 392383, Note_off_c, 5, 53, 127
1, 392384, Note_on_c, 3, 51, 127
1, 392493, Note_off_c, 3, 51, 127
1, 392493, Note_off_c, 10, 69, 127
1, 392494, Note_on_c, 5, 65, 127
1, 392494, Note_on_c, 2, 50, 127
1, 392603, Note_off_c, 2, 50, 127
1, 392604, Note_on_c, 3, 51, 127
1, 392713, Note_off_c, 3, 51, 127
1, 392713, Note_off_c, 5, 65, 127
1, 392714, Note_on_c, 3, 75, 127
1, 392714, Note_on_c, 2, 50, 127
1, 392823, Note_off_c, 2, 50, 127
1, 392824, Note_on_c, 0, 48, 127
1, 392933, Note_off_c, 0, 48, 127
1, 392933, Note_off_c, 3, 75, 127
1, 392934, Note_on_c, 2, 74, 127
1, 392934, Note_on_c, 12, 47, 127
1, 393152, Note_off_c, 2, 74, 127
1, 393153, Note_on_c, 7, 79, 127
1, 393368, Note_off_c, 12, 47, 127
1, 393371, Note_off_c, 7, 79, 127
1, 393372, Note_on_c, 2, 74, 127
1, 393482, Note_on_c, 7, 67, 127
1, 393591, Note_off_c, 7, 67, 127
1, 393591, Note_off_c, 2, 74, 127
1, 393592, Note_on_c, 12, 71, 127
1, 393592, Note_on_c, 5, 65, 127
1, 393701, Note_off_c, 5, 65, 127
1, 393702, Note_on_c, 4, 64, 127
1, 393811, Note_off_c, 4, 64, 127
1, 393811, Note_off_c, 12, 71, 127
1, 393812, Note_on_c, 7, 67, 127
1, 393812, Note_on_c, 2, 62, 127
1, 393921, Note_off_c, 2, 62, 127
1, 393922, Note_on_c, 4, 64, 127
1, 394031, Note_off_c, 4, 64, 127
1, 394031, Note_off_c, 7, 67, 127
1, 394032, Note_on_c, 12, 71, 127
1, 394032, Note_on_c, 2, 62, 127
1, 394141, Note_off_c, 2, 62, 127
1, 394142, Note_on_c, 0, 60, 127
1, 394251, Note_off_c, 0, 60, 127
1, 394251, Note_off_c, 12, 71, 127
1, 394252, Note_on_c, 2, 74, 127
1, 394252, Note_on_c, 12, 59, 127
1, 394361, Note_off_c, 12, 59, 127
1, 394362, Note_on_c, 0, 60, 127
1, 394471, Note_off_c, 0, 60, 127
1, 394471, Note_off_c, 2, 74, 127
1, 394472, Note_on_c, 5, 77, 127
1, 394472, Note_on_c, 12, 59, 127
1, 394581, Note_off_c, 12, 59, 127
1, 394582, Note_on_c, 10, 57, 127
1, 394691, Note_off_c, 10, 57, 127
1, 394691, Note_off_c, 5, 77, 127
1, 394692, Note_on_c, 2, 74, 127
1, 394692, Note_on_c, 7, 55, 127
1, 394801, Note_off_c, 7, 55, 127
1, 394802, Note_on_c, 10, 57, 127
1, 394911, Note_off_c, 10, 57, 127
1, 394911, Note_off_c, 2, 74, 127
1, 394912, Note_on_c, 12, 71, 127
1, 394912, Note_on_c, 7, 55, 127
1, 395021, Note_off_c, 7, 55, 127
1, 395022, Note_on_c, 5, 53, 127
1, 395131, Note_off_c, 5, 53, 127
1, 395131, Note_off_c, 12, 71, 127
1, 395132, Note_on_c, 7, 67, 127
1, 395132, Note_on_c, 4, 52, 127
1, 395241, Note_off_c, 4, 52, 127
1, 395242, Note_on_c, 5, 53, 127
1, 395351, Note_off_c, 5, 53, 127
1, 395351, Note_off_c, 7, 67, 127
1, 395352, Note_on_c, 5, 77, 127
1, 395352, Note_on_c, 4, 52, 127
1, 395461, Note_off_c, 4, 52, 127
1, 395462, Note_on_c, 2, 50, 127
1, 395571, Note_off_c, 2, 50, 127
1, 395571, Note_off_c, 5, 77, 127
1, 395572, Note_on_c, 4, 76, 127
1, 395572, Note_on_c, 0, 48, 127
1, 395790, Note_off_c, 4, 76, 127
1, 395791, Note_on_c, 4, 76, 127
1, 396009, Note_off_c, 4, 76, 127
1, 396009, Note_off_c, 0, 48, 127
1, 396010, Note_on_c, 7, 67, 127
1, 396010, Note_on_c, 4, 64, 127
1, 396010, Note_on_c, 0, 72, 127
1, 396010, Note_on_c, 0, 48, 127
1, 396228, Note_off_c, 0, 72, 127
1, 396228, Note_off_c, 4, 64, 127
1, 396228, Note_off_c, 7, 67, 127
1, 396229, Note_on_c, 7, 67, 127
1, 396229, Note_on_c, 4, 64, 127
1, 396229, Note_on_c, 0, 72, 127
1, 396447, Note_off_c, 0, 72, 127
1, 396447, Note_off_c, 4, 64, 127
1, 396447, Note_off_c, 7, 67, 127
1, 396447, Note_off_c, 0, 48, 127
1, 396448, Note_on_c, 0, 60, 127
1, 396448, Note_on_c, 4, 64, 127
1, 396448, Note_on_c, 7, 67, 127
1, 396448, Note_on_c, 0, 48, 127
1, 396666, Note_off_c, 7, 67, 127
1, 396666, Note_off_c, 4, 64, 127
1, 396666, Note_off_c, 0, 60, 127
1, 396667, Note_on_c, 4, 64, 127
1, 396667, Note_on_c, 7, 67, 127
1, 396667, Note_on_c, 0, 60, 127
1, 396885, Note_off_c, 0, 60, 127
1, 396885, Note_off_c, 7, 67, 127
1, 396885, Note_off_c, 4, 64, 127
1, 396885, Note_off_c, 0, 48, 127
1, 396886, Note_on_c, 4, 76, 127
1, 396886, Note_on_c, 0, 48, 127
1, 397104, Note_off_c, 4, 76, 127
1, 397105, Note_on_c, 4, 76, 127
1, 397323, Note_off_c, 4, 76, 127
1, 397323, Note_off_c, 0, 48, 127
1, 397324, Note_on_c, 0, 72, 127
1, 397324, Note_on_c, 4, 64, 127
1, 397324, Note_on_c, 7, 67, 127
1, 397324, Note_on_c, 0, 48, 127
1, 397542, Note_off_c, 7, 67, 127
1, 397542, Note_off_c, 4, 64, 127
1, 397542, Note_off_c, 0, 72, 127
1, 397543, Note_on_c, 0, 72, 127
1, 397543, Note_on_c, 4, 64, 127
1, 397543, Note_on_c, 7, 67, 127
1, 397761, Note_off_c, 7, 67, 127
1, 397761, Note_off_c, 4, 64, 127
1, 397761, Note_off_c, 0, 72, 127
1, 397761, Note_off_c, 0, 48, 127
1, 397762, Note_on_c, 7, 67, 127
1, 397762, Note_on_c, 0, 60, 127
1, 397762, Note_on_c, 4, 64, 127
1, 397762, Note_on_c, 0, 48, 127
1, 397980, Note_off_c, 4, 64, 127
1, 397980, Note_off_c, 0, 60, 127
1, 397980, Note_off_c, 7, 67, 127
1, 397981, Note_on_c, 4, 64, 127
1, 397981, Note_on_c, 7, 67, 127
1, 397981, Note_on_c, 0, 60, 127
1, 398199, Note_off_c, 0, 60, 127
1, 398199, Note_off_c, 7, 67, 127
1, 398199, Note_off_c, 4, 64, 127
1, 398199, Note_off_c, 0, 48, 127
1, 398200, Note_on_c, 4, 76, 127
1, 398200, Note_on_c, 1, 49, 127
1, 398418, Note_off_c, 4, 76, 127
1, 398419, Note_on_c, 4, 76, 127
1, 398637, Note_off_c, 4, 76, 127
1, 398637, Note_off_c, 1, 49, 127
1, 398638, Note_on_c, 1, 73, 127
1, 398638, Note_on_c, 4, 64, 127
1, 398638, Note_on_c, 10, 69, 127
1, 398638, Note_on_c, 1, 49, 127
1, 398856, Note_off_c, 10, 69, 127
1, 398856, Note_off_c, 4, 64, 127
1, 398856, Note_off_c, 1, 73, 127
1, 398857, Note_on_c, 4, 64, 127
1, 398857, Note_on_c, 1, 73, 127
1, 398857, Note_on_c, 10, 69, 127
1, 399075, Note_off_c, 10, 69, 127
1, 399075, Note_off_c, 1, 73, 127
1, 399075, Note_off_c, 4, 64, 127
1, 399075, Note_off_c, 1, 49, 127
1, 399076, Note_on_c, 4, 64, 127
1, 399076, Note_on_c, 10, 69, 127
1, 399076, Note_on_c, 1, 61, 127
1, 399076, Note_on_c, 1, 49, 127
1, 399294, Note_off_c, 1, 61, 127
1, 399294, Note_off_c, 10, 69, 127
1, 399294, Note_off_c, 4, 64, 127
1, 399295, Note_on_c, 10, 69, 127
1, 399295, Note_on_c, 1, 61, 127
1, 399295, Note_on_c, 4, 64, 127
1, 399513, Note_off_c, 4, 64, 127
1, 399513, Note_off_c, 1, 61, 127
1, 399513, Note_off_c, 10, 69, 127
1, 399513, Note_off_c, 1, 49, 127
1, 399514, Note_on_c, 4, 76, 127
1, 399514, Note_on_c, 1, 49, 127
1, 399732, Note_off_c, 4, 76, 127
1, 399733, Note_on_c, 4, 76, 127
1, 399951, Note_off_c, 4, 76, 127
1, 399951, Note_off_c, 1, 49, 127
1, 399952, Note_on_c, 10, 69, 127
1, 399952, Note_on_c, 1, 73, 127
1, 399952, Note_on_c, 4, 64, 127
1, 399952, Note_on_c, 1, 49, 127
1, 400170, Note_off_c, 4, 64, 127
1, 400170, Note_off_c, 1, 73, 127
1, 400170, Note_off_c, 10, 69, 127
1, 400171, Note_on_c, 1, 73, 127
1, 400171, Note_on_c, 4, 64, 127
1, 400171, Note_on_c, 10, 69, 127
1, 400389, Note_off_c, 10, 69, 127
1, 400389, Note_off_c, 4, 64, 127
1, 400389, Note_off_c, 1, 73, 127
1, 400389, Note_off_c, 1, 49, 127
1, 400390, Note_on_c, 10, 69, 127
1, 400390, Note_on_c, 1, 61, 127
1, 400390, Note_on_c, 4, 64, 127
1, 400390, Note_on_c, 1, 49, 127
1, 400608, Note_off_c, 4, 64, 127
1, 400608, Note_off_c, 1, 61, 127
1, 400608, Note_off_c, 10, 69, 127
1, 400609, Note_on_c, 10, 69, 127
1, 400609, Note_on_c, 1, 61, 127
1, 400609, Note_on_c, 4, 64, 127
1, 400827, Note_off_c, 4, 64, 127
1, 400827, Note_off_c, 1, 61, 127
1, 400827, Note_off_c, 10, 69, 127
1, 400827, Note_off_c, 1, 49, 127
1, 400828, Note_on_c, 5, 65, 127
1, 400828, Note_on_c, 2, 50, 127
1, 401046, Note_off_c, 5, 65, 127
1, 401047, Note_on_c, 5, 65, 127
1, 401265, Note_off_c, 5, 65, 127
1, 401265, Note_off_c, 2, 50, 127
1, 401266, Note_on_c, 10, 69, 127
1, 401266, Note_on_c, 2, 62, 127
1, 401266, Note_on_c, 5, 65, 127
1, 401266, Note_on_c, 2, 50, 127
1, 401484, Note_off_c, 5, 65, 127
1, 401484, Note_off_c, 2, 62, 127
1, 401484, Note_off_c, 10, 69, 127
1, 401485, Note_on_c, 10, 69, 127
1, 401485, Note_on_c, 2, 62, 127
1, 401485, Note_on_c, 5, 65, 127
1, 401703, Note_off_c, 5, 65, 127
1, 401703, Note_off_c, 2, 62, 127
1, 401703, Note_off_c, 10, 69, 127
1, 401703, Note_off_c, 2, 50, 127
1, 401704, Note_on_c, 10, 69, 127
1, 401704, Note_on_c, 2, 74, 127
1, 401704, Note_on_c, 5, 65, 127
1, 401704, Note_on_c, 2, 50, 127
1, 401922, Note_off_c, 5, 65, 127
1, 401922, Note_off_c, 2, 74, 127
1, 401922, Note_off_c, 10, 69, 127
1, 401923, Note_on_c, 2, 74, 127
1, 401923, Note_on_c, 5, 65, 127
1, 401923, Note_on_c, 10, 69, 127
1, 402141, Note_off_c, 10, 69, 127
1, 402141, Note_off_c, 5, 65, 127
1, 402141, Note_off_c, 2, 74, 127
1, 402141, Note_off_c, 2, 50, 127
1, 402142, Note_on_c, 5, 77, 127
1, 402142, Note_on_c, 2, 50, 127
1, 402360, Note_off_c, 5, 77, 127
1, 402361, Note_on_c, 5, 77, 127
1, 402579, Note_off_c, 5, 77, 127
1, 402579, Note_off_c, 2, 50, 127
1, 402580, Note_on_c, 10, 69, 127
1, 402580, Note_on_c, 2, 74, 127
1, 402580, Note_on_c, 5, 65, 127
1, 402580, Note_on_c, 2, 50, 127
1, 402798, Note_off_c, 5, 65, 127
1, 402798, Note_off_c, 2, 74, 127
1, 402798, Note_off_c, 10, 69, 127
1, 402799, Note_on_c, 2, 74, 127
1, 402799, Note_on_c, 5, 65, 127
1, 402799, Note_on_c, 10, 69, 127
1, 403017, Note_off_c, 10, 69, 127
1, 403017, Note_off_c, 5, 65, 127
1, 403017, Note_off_c, 2, 74, 127
1, 403017, Note_off_c, 2, 50, 127
1, 403018, Note_on_c, 10, 69, 127
1, 403018, Note_on_c, 5, 65, 127
1, 403018, Note_on_c, 2, 62, 127
1, 403018, Note_on_c, 2, 50, 127
1, 403236, Note_off_c, 2, 62, 127
1, 403236, Note_off_c, 5, 65, 127
1, 403236, Note_off_c, 10, 69, 127
1, 403237, Note_on_c, 10, 69, 127
1, 403237, Note_on_c, 5, 65, 127
1, 403237, Note_on_c, 2, 62, 127
1, 403455, Note_off_c, 2, 62, 127
1, 403455, Note_off_c, 5, 65, 127
1, 403455, Note_off_c, 10, 69, 127
1, 403455, Note_off_c, 2, 50, 127
1, 403456, Note_on_c, 12, 71, 127
1, 403456, Note_on_c, 2, 50, 127
1, 403674, Note_off_c, 12, 71, 127
1, 403675, Note_on_c, 12, 71, 127
1, 403893, Note_off_c, 12, 71, 127
1, 403893, Note_off_c, 2, 50, 127
1, 403894, Note_on_c, 2, 74, 127
1, 403894, Note_on_c, 5, 65, 127
1, 403894, Note_on_c, 12, 71, 127
1, 403894, Note_on_c, 2, 50, 127
1, 404112, Note_off_c, 12, 71, 127
1, 404112, Note_off_c, 5, 65, 127
1, 404112, Note_off_c, 2, 74, 127
1, 404113, Note_on_c, 12, 71, 127
1, 404113, Note_on_c, 2, 74, 127
1, 404113, Note_on_c, 5, 65, 127
1, 404331, Note_off_c, 5, 65, 127
1, 404331, Note_off_c, 2, 74, 127
1, 404331, Note_off_c, 12, 71, 127
1, 404331, Note_off_c, 2, 50, 127
1, 404332, Note_on_c, 12, 71, 127
1, 404332, Note_on_c, 5, 77, 127
1, 404332, Note_on_c, 2, 74, 127
1, 404332, Note_on_c, 2, 50, 127
1, 404550, Note_off_c, 2, 74, 127
1, 404550, Note_off_c, 5, 77, 127
1, 404550, Note_off_c, 12, 71, 127
1, 404551, Note_on_c, 2, 74, 127
1, 404551, Note_on_c, 5, 77, 127
1, 404551, Note_on_c, 12, 71, 127
1, 404769, Note_off_c, 12, 71, 127
1, 404769, Note_off_c, 5, 77, 127
1, 404769, Note_off_c, 2, 74, 127
1, 404769, Note_off_c, 2, 50, 127
1, 404770, Note_on_c, 12, 71, 127
1, 404770, Note_on_c, 2, 50, 127
1, 404988, Note_off_c, 12, 71, 127
1, 404989, Note_on_c, 12, 71, 127
1, 405207, Note_off_c, 12, 71, 127
1, 405207, Note_off_c, 2, 50, 127
1, 405208, Note_on_c, 2, 74, 127
1, 405208, Note_on_c, 5, 65, 127
1, 405208, Note_on_c, 12, 71, 127
1, 405208, Note_on_c, 2, 50, 127
1, 405426, Note_off_c, 12, 71, 127
1, 405426, Note_off_c, 5, 65, 127
1, 405426, Note_off_c, 2, 74, 127
1, 405427, Note_on_c, 12, 71, 127
1, 405427, Note_on_c, 2, 74, 127
1, 405427, Note_on_c, 5, 65, 127
1, 405645, Note_off_c, 5, 65, 127
1, 405645, Note_off_c, 2, 74, 127
1, 405645, Note_off_c, 12, 71, 127
1, 405645, Note_off_c, 2, 50, 127
1, 405646, Note_on_c, 5, 77, 127
1, 405646, Note_on_c, 10, 69, 127
1, 405646, Note_on_c, 12, 71, 127
1, 405646, Note_on_c, 2, 50, 127
1, 405864, Note_off_c, 12, 71, 127
1, 405864, Note_off_c, 10, 69, 127
1, 405864, Note_off_c, 5, 77, 127
1, 405865, Note_on_c, 10, 69, 127
1, 405865, Note_on_c, 12, 71, 127
1, 405865, Note_on_c, 5, 77, 127
1, 406083, Note_off_c, 5, 77, 127
1, 406083, Note_off_c, 12, 71, 127
1, 406083, Note_off_c, 10, 69, 127
1, 406083, Note_off_c, 2, 50, 127
1, 406084, Note_on_c, 4, 76, 127
1, 406084, Note_on_c, 4, 64, 127
1, 406084, Note_on_c, 12, 71, 127
1, 406084, Note_on_c, 8, 44, 127
1, 406741, Note_off_c, 4, 64, 127
1, 406741, Note_off_c, 4, 76, 127
1, 406742, Note_on_c, 2, 74, 127
1, 406960, Note_off_c, 2, 74, 127
1, 406960, Note_off_c, 8, 44, 127
1, 406960, Note_off_c, 12, 71, 127
1, 406961, Note_on_c, 0, 72, 127
1, 406961, Note_on_c, 10, 69, 127
1, 406961, Note_on_c, 10, 45, 127
1, 407179, Note_off_c, 0, 72, 127
1, 407180, Note_on_c, 12, 71, 127
1, 407395, Note_off_c, 10, 69, 127
1, 407398, Note_off_c, 12, 71, 127
1, 407398, Note_off_c, 10, 45, 127
1, 407399, Note_on_c, 0, 72, 127
1, 407399, Note_on_c, 10, 69, 127
1, 407399, Note_on_c, 2, 50, 127
1, 407399, Note_on_c, 10, 57, 127
1, 407617, Note_off_c, 0, 72, 127
1, 407618, Note_on_c, 2, 74, 127
1, 407836, Note_off_c, 2, 74, 127
1, 407836, Note_off_c, 10, 57, 127
1, 407836, Note_off_c, 2, 50, 127
1, 407837, Note_on_c, 0, 72, 127
1, 407837, Note_on_c, 4, 52, 127
1, 407891, Note_off_c, 0, 72, 127
1, 407892, Note_on_c, 12, 71, 127
1, 407946, Note_off_c, 12, 71, 127
1, 407947, Note_off_c, 10, 69, 127
1, 407947, Note_on_c, 0, 72, 127
1, 408001, Note_off_c, 0, 72, 127
1, 408002, Note_on_c, 12, 71, 127
1, 408275, Note_off_c, 12, 71, 127
1, 408276, Note_on_c, 8, 68, 127
1, 408276, Note_on_c, 4, 40, 127
1, 408494, Note_off_c, 8, 68, 127
1, 408495, Note_on_c, 10, 69, 127
1, 408713, Note_off_c, 10, 69, 127
1, 408713, Note_off_c, 4, 40, 127
1, 408713, Note_off_c, 4, 52, 127
1, 408714, Note_on_c, 10, 69, 127
1, 408714, Note_on_c, 10, 45, 127
1, 408823, Note_off_c, 10, 69, 127
1, 408824, Note_on_c, 8, 68, 127
1, 408933, Note_off_c, 8, 68, 127
1, 408933, Note_off_c, 10, 45, 127
1, 408934, Note_on_c, 10, 69, 127
1, 408934, Note_on_c, 4, 64, 127
1, 409043, Note_off_c, 10, 69, 127
1, 409044, Note_on_c, 12, 71, 127
1, 409153, Note_off_c, 12, 71, 127
1, 409153, Note_off_c, 4, 64, 127
1, 409154, Note_on_c, 10, 69, 127
1, 409154, Note_on_c, 0, 60, 127
1, 409263, Note_off_c, 10, 69, 127
1, 409264, Note_on_c, 8, 68, 127
1, 409373, Note_off_c, 8, 68, 127
1, 409373, Note_off_c, 0, 60, 127
1, 409374, Note_on_c, 10, 69, 127
1, 409374, Note_on_c, 10, 57, 127
1, 409483, Note_off_c, 10, 69, 127
1, 409484, Note_on_c, 12, 71, 127
1, 409593, Note_off_c, 12, 71, 127
1, 409593, Note_off_c, 10, 57, 127
1, 409594, Note_on_c, 10, 69, 127
1, 409594, Note_on_c, 4, 64, 127
1, 409703, Note_off_c, 10, 69, 127
1, 409704, Note_on_c, 8, 68, 127
1, 409813, Note_off_c, 8, 68, 127
1, 409813, Note_off_c, 4, 64, 127
1, 409814, Note_on_c, 10, 69, 127
1, 409814, Note_on_c, 0, 60, 127
1, 409923, Note_off_c, 10, 69, 127
1, 409924, Note_on_c, 12, 71, 127
1, 410033, Note_off_c, 12, 71, 127
1, 410033, Note_off_c, 0, 60, 127
1, 410034, Note_on_c, 10, 69, 127
1, 410034, Note_on_c, 10, 57, 127
1, 410143, Note_off_c, 10, 69, 127
1, 410144, Note_on_c, 8, 68, 127
1, 410253, Note_off_c, 8, 68, 127
1, 410253, Note_off_c, 10, 57, 127
1, 410254, Note_on_c, 10, 69, 127
1, 410254, Note_on_c, 4, 64, 127
1, 410364, Note_on_c, 0, 72, 127
1, 410380, Note_off_c, 10, 69, 127
1, 410473, Note_off_c, 0, 72, 127
1, 410473, Note_off_c, 4, 64, 127
1, 410474, Note_on_c, 10, 69, 127
1, 410474, Note_on_c, 0, 60, 127
1, 410583, Note_off_c, 10, 69, 127
1, 410584, Note_on_c, 8, 68, 127
1, 410693, Note_off_c, 8, 68, 127
1, 410693, Note_off_c, 0, 60, 127
1, 410694, Note_on_c, 10, 69, 127
1, 410694, Note_on_c, 10, 57, 127
1, 410804, Note_on_c, 0, 72, 127
1, 410820, Note_off_c, 10, 69, 127
1, 410913, Note_off_c, 0, 72, 127
1, 410913, Note_off_c, 10, 57, 127
1, 410914, Note_on_c, 10, 69, 127
1, 410914, Note_on_c, 4, 64, 127
1, 411023, Note_off_c, 10, 69, 127
1, 411024, Note_on_c, 8, 68, 127
1, 411133, Note_off_c, 8, 68, 127
1, 411133, Note_off_c, 4, 64, 127
1, 411134, Note_on_c, 10, 69, 127
1, 411134, Note_on_c, 10, 57, 127
1, 411244, Note_on_c, 0, 72, 127
1, 411260, Note_off_c, 10, 69, 127
1, 411353, Note_off_c, 0, 72, 127
1, 411353, Note_off_c, 10, 57, 127
1, 411354, Note_on_c, 12, 71, 127
1, 411354, Note_on_c, 8, 56, 127
1, 411463, Note_off_c, 12, 71, 127
1, 411464, Note_on_c, 10, 69, 127
1, 411573, Note_off_c, 10, 69, 127
1, 411573, Note_off_c, 8, 56, 127
1, 411574, Note_on_c, 12, 71, 127
1, 411574, Note_on_c, 4, 64, 127
1, 411683, Note_off_c, 12, 71, 127
1, 411684, Note_on_c, 0, 72, 127
1, 411793, Note_off_c, 0, 72, 127
1, 411793, Note_off_c, 4, 64, 127
1, 411794, Note_on_c, 12, 71, 127
1, 411794, Note_on_c, 12, 59, 127
1, 411903, Note_off_c, 12, 71, 127
1, 411904, Note_on_c, 10, 69, 127
1, 412013, Note_off_c, 10, 69, 127
1, 412013, Note_off_c, 12, 59, 127
1, 412014, Note_on_c, 12, 71, 127
1, 412014, Note_on_c, 8, 56, 127
1, 412123, Note_off_c, 12, 71, 127
1, 412124, Note_on_c, 0, 72, 127
1, 412233, Note_off_c, 0, 72, 127
1, 412233, Note_off_c, 8, 56, 127
1, 412234, Note_on_c, 12, 71, 127
1, 412234, Note_on_c, 4, 64, 127
1, 412343, Note_off_c, 12, 71, 127
1, 412344, Note_on_c, 10, 69, 127
1, 412453, Note_off_c, 10, 69, 127
1, 412453, Note_off_c, 4, 64, 127
1, 412454, Note_on_c, 12, 71, 127
1, 412454, Note_on_c, 12, 59, 127
1, 412563, Note_off_c, 12, 71, 127
1, 412564, Note_on_c, 0, 72, 127
1, 412673, Note_off_c, 0, 72, 127
1, 412673, Note_off_c, 12, 59, 127
1, 412674, Note_on_c, 12, 71, 127
1, 412674, Note_on_c, 8, 56, 127
1, 412783, Note_off_c, 12, 71, 127
1, 412784, Note_on_c, 10, 69, 127
1, 412893, Note_off_c, 10, 69, 127
1, 412893, Note_off_c, 8, 56, 127
1, 412894, Note_on_c, 12, 71, 127
1, 412894, Note_on_c, 4, 64, 127
1, 413004, Note_on_c, 2, 74, 127
1, 413020, Note_off_c, 12, 71, 127
1, 413113, Note_off_c, 2, 74, 127
1, 413113, Note_off_c, 4, 64, 127
1, 413114, Note_on_c, 12, 71, 127
1, 413114, Note_on_c, 12, 59, 127
1, 413223, Note_off_c, 12, 71, 127
1, 413224, Note_on_c, 10, 69, 127
1, 413333, Note_off_c, 10, 69, 127
1, 413333, Note_off_c, 12, 59, 127
1, 413334, Note_on_c, 12, 71, 127
1, 413334, Note_on_c, 8, 56, 127
1, 413444, Note_on_c, 2, 74, 127
1, 413460, Note_off_c, 12, 71, 127
1, 413553, Note_off_c, 2, 74, 127
1, 413553, Note_off_c, 8, 56, 127
1, 413554, Note_on_c, 12, 71, 127
1, 413554, Note_on_c, 4, 64, 127
1, 413663, Note_off_c, 12, 71, 127
1, 413664, Note_on_c, 10, 69, 127
1, 413773, Note_off_c, 10, 69, 127
1, 413773, Note_off_c, 4, 64, 127
1, 413774, Note_on_c, 12, 71, 127
1, 413774, Note_on_c, 8, 56, 127
1, 413884, Note_on_c, 2, 74, 127
1, 413900, Note_off_c, 12, 71, 127
1, 413993, Note_off_c, 2, 74, 127
1, 413993, Note_off_c, 8, 56, 127
1, 413994, Note_on_c, 0, 72, 127
1, 413994, Note_on_c, 10, 57, 127
1, 414103, Note_off_c, 0, 72, 127
1, 414104, Note_on_c, 12, 71, 127
1, 414213, Note_off_c, 12, 71, 127
1, 414213, Note_off_c, 10, 57, 127
1, 414214, Note_on_c, 0, 72, 127
1, 414214, Note_on_c, 4, 64, 127
1, 414323, Note_off_c, 0, 72, 127
1, 414324, Note_on_c, 2, 74, 127
1, 414433, Note_off_c, 2, 74, 127
1, 414433, Note_off_c, 4, 64, 127
1, 414434, Note_on_c, 0, 72, 127
1, 414434, Note_on_c, 0, 60, 127
1, 414543, Note_off_c, 0, 72, 127
1, 414544, Note_on_c, 12, 71, 127
1, 414653, Note_off_c, 12, 71, 127
1, 414653, Note_off_c, 0, 60, 127
1, 414654, Note_on_c, 0, 72, 127
1, 414654, Note_on_c, 10, 57, 127
1, 414763, Note_off_c, 0, 72, 127
1, 414764, Note_on_c, 2, 74, 127
1, 414873, Note_off_c, 2, 74, 127
1, 414873, Note_off_c, 10, 57, 127
1, 414874, Note_on_c, 0, 72, 127
1, 414874, Note_on_c, 4, 64, 127
1, 414983, Note_off_c, 0, 72, 127
1, 414984, Note_on_c, 12, 71, 127
1, 415093, Note_off_c, 12, 71, 127
1, 415093, Note_off_c, 4, 64, 127
1, 415094, Note_on_c, 0, 72, 127
1, 415094, Note_on_c, 0, 60, 127
1, 415203, Note_off_c, 0, 72, 127
1, 415204, Note_on_c, 2, 74, 127
1, 415313, Note_off_c, 2, 74, 127
1, 415313, Note_off_c, 0, 60, 127
1, 415314, Note_on_c, 0, 72, 127
1, 415314, Note_on_c, 10, 57, 127
1, 415423, Note_off_c, 0, 72, 127
1, 415424, Note_on_c, 12, 71, 127
1, 415533, Note_off_c, 12, 71, 127
1, 415533, Note_off_c, 10, 57, 127
1, 415534, Note_on_c, 0, 72, 127
1, 415534, Note_on_c, 4, 64, 127
1, 415644, Note_on_c, 4, 76, 127
1, 415683, Note_off_c, 0, 72, 127
1, 415753, Note_off_c, 4, 76, 127
1, 415753, Note_off_c, 4, 64, 127
1, 415754, Note_on_c, 0, 72, 127
1, 415754, Note_on_c, 0, 60, 127
1, 415863, Note_off_c, 0, 72, 127
1, 415864, Note_on_c, 12, 71, 127
1, 415973, Note_off_c, 12, 71, 127
1, 415973, Note_off_c, 0, 60, 127
1, 415974, Note_on_c, 0, 72, 127
1, 415974, Note_on_c, 10, 57, 127
1, 416084, Note_on_c, 4, 76, 127
1, 416123, Note_off_c, 0, 72, 127
1, 416193, Note_off_c, 4, 76, 127
1, 416193, Note_off_c, 10, 57, 127
1, 416194, Note_on_c, 0, 72, 127
1, 416194, Note_on_c, 4, 64, 127
1, 416303, Note_off_c, 0, 72, 127
1, 416304, Note_on_c, 12, 71, 127
1, 416413, Note_off_c, 12, 71, 127
1, 416413, Note_off_c, 4, 64, 127
1, 416414, Note_on_c, 0, 72, 127
1, 416414, Note_on_c, 10, 57, 127
1, 416524, Note_on_c, 4, 76, 127
1, 416563, Note_off_c, 0, 72, 127
1, 416633, Note_off_c, 4, 76, 127
1, 416633, Note_off_c, 10, 57, 127
1, 416634, Note_on_c, 0, 72, 127
1, 416634, Note_on_c, 2, 62, 127
1, 416743, Note_off_c, 0, 72, 127
1, 416744, Note_on_c, 12, 71, 127
1, 416853, Note_off_c, 12, 71, 127
1, 416853, Note_off_c, 2, 62, 127
1, 416854, Note_on_c, 0, 72, 127
1, 416854, Note_on_c, 10, 69, 127
1, 416964, Note_on_c, 5, 77, 127
1, 417026, Note_off_c, 0, 72, 127
1, 417073, Note_off_c, 5, 77, 127
1, 417073, Note_off_c, 10, 69, 127
1, 417074, Note_on_c, 0, 72, 127
1, 417074, Note_on_c, 5, 65, 127
1, 417183, Note_off_c, 0, 72, 127
1, 417184, Note_on_c, 12, 71, 127
1, 417293, Note_off_c, 12, 71, 127
1, 417293, Note_off_c, 5, 65, 127
1, 417294, Note_on_c, 0, 72, 127
1, 417294, Note_on_c, 2, 62, 127
1, 417404, Note_on_c, 5, 77, 127
1, 417466, Note_off_c, 0, 72, 127
1, 417513, Note_off_c, 5, 77, 127
1, 417513, Note_off_c, 2, 62, 127
1, 417514, Note_on_c, 0, 72, 127
1, 417514, Note_on_c, 10, 69, 127
1, 417623, Note_off_c, 0, 72, 127
1, 417624, Note_on_c, 12, 71, 127
1, 417733, Note_off_c, 12, 71, 127
1, 417733, Note_off_c, 10, 69, 127
1, 417734, Note_on_c, 0, 72, 127
1, 417734, Note_on_c, 5, 65, 127
1, 417844, Note_on_c, 5, 77, 127
1, 417906, Note_off_c, 0, 72, 127
1, 417953, Note_off_c, 5, 77, 127
1, 417953, Note_off_c, 5, 65, 127
1, 417954, Note_on_c, 0, 72, 127
1, 417954, Note_on_c, 2, 62, 127
1, 418063, Note_off_c, 0, 72, 127
1, 418064, Note_on_c, 12, 71, 127
1, 418173, Note_off_c, 12, 71, 127
1, 418173, Note_off_c, 2, 62, 127
1, 418174, Note_on_c, 0, 72, 127
1, 418174, Note_on_c, 10, 69, 127
1, 418284, Note_on_c, 5, 77, 127
1, 418369, Note_off_c, 0, 72, 127
1, 418393, Note_off_c, 5, 77, 127
1, 418393, Note_off_c, 10, 69, 127
1, 418394, Note_on_c, 0, 72, 127
1, 418394, Note_on_c, 5, 65, 127
1, 418503, Note_off_c, 0, 72, 127
1, 418504, Note_on_c, 12, 71, 127
1, 418613, Note_off_c, 12, 71, 127
1, 418613, Note_off_c, 5, 65, 127
1, 418614, Note_on_c, 0, 72, 127
1, 418614, Note_on_c, 2, 62, 127
1, 418724, Note_on_c, 5, 77, 127
1, 418809, Note_off_c, 0, 72, 127
1, 418833, Note_off_c, 5, 77, 127
1, 418833, Note_off_c, 2, 62, 127
1, 418834, Note_on_c, 0, 72, 127
1, 418834, Note_on_c, 10, 69, 127
1, 418943, Note_off_c, 0, 72, 127
1, 418944, Note_on_c, 12, 71, 127
1, 419053, Note_off_c, 12, 71, 127
1, 419053, Note_off_c, 10, 69, 127
1, 419054, Note_on_c, 0, 72, 127
1, 419054, Note_on_c, 2, 62, 127
1, 419164, Note_on_c, 5, 77, 127
1, 419249, Note_off_c, 0, 72, 127
1, 419273, Note_off_c, 5, 77, 127
1, 419273, Note_off_c, 2, 62, 127
1, 419274, Note_on_c, 12, 71, 127
1, 419274, Note_on_c, 7, 55, 127
1, 419383, Note_off_c, 12, 71, 127
1, 419384, Note_on_c, 10, 69, 127
1, 419493, Note_off_c, 10, 69, 127
1, 419493, Note_off_c, 7, 55, 127
1, 419494, Note_on_c, 12, 71, 127
1, 419494, Note_on_c, 2, 62, 127
1, 419604, Note_on_c, 5, 77, 127
1, 419666, Note_off_c, 12, 71, 127
1, 419713, Note_off_c, 5, 77, 127
1, 419713, Note_off_c, 2, 62, 127
1, 419714, Note_on_c, 12, 71, 127
1, 419714, Note_on_c, 12, 59, 127
1, 419823, Note_off_c, 12, 71, 127
1, 419824, Note_on_c, 10, 69, 127
1, 419933, Note_off_c, 10, 69, 127
1, 419933, Note_off_c, 12, 59, 127
1, 419934, Note_on_c, 12, 71, 127
1, 419934, Note_on_c, 7, 55, 127
1, 420044, Note_on_c, 5, 77, 127
1, 420106, Note_off_c, 12, 71, 127
1, 420153, Note_off_c, 5, 77, 127
1, 420153, Note_off_c, 7, 55, 127
1, 420154, Note_on_c, 12, 71, 127
1, 420154, Note_on_c, 2, 62, 127
1, 420263, Note_off_c, 12, 71, 127
1, 420264, Note_on_c, 10, 69, 127
1, 420373, Note_off_c, 10, 69, 127
1, 420373, Note_off_c, 2, 62, 127
1, 420374, Note_on_c, 12, 71, 127
1, 420374, Note_on_c, 12, 59, 127
1, 420484, Note_on_c, 5, 77, 127
1, 420546, Note_off_c, 12, 71, 127
1, 420593, Note_off_c, 5, 77, 127
1, 420593, Note_off_c, 12, 59, 127
1, 420594, Note_on_c, 12, 71, 127
1, 420594, Note_on_c, 7, 55, 127
1, 420703, Note_off_c, 12, 71, 127
1, 420704, Note_on_c, 10, 69, 127
1, 420813, Note_off_c, 10, 69, 127
1, 420813, Note_off_c, 7, 55, 127
1, 420814, Note_on_c, 12, 71, 127
1, 420814, Note_on_c, 2, 62, 127
1, 420924, Note_on_c, 5, 77, 127
1, 420986, Note_off_c, 12, 71, 127
1, 421033, Note_off_c, 5, 77, 127
1, 421033, Note_off_c, 2, 62, 127
1, 421034, Note_on_c, 12, 71, 127
1, 421034, Note_on_c, 12, 59, 127
1, 421143, Note_off_c, 12, 71, 127
1, 421144, Note_on_c, 10, 69, 127
1, 421253, Note_off_c, 10, 69, 127
1, 421253, Note_off_c, 12, 59, 127
1, 421254, Note_on_c, 12, 71, 127
1, 421254, Note_on_c, 7, 55, 127
1, 421364, Note_on_c, 5, 77, 127
1, 421426, Note_off_c, 12, 71, 127
1, 421473, Note_off_c, 5, 77, 127
1, 421473, Note_off_c, 7, 55, 127
1, 421474, Note_on_c, 12, 71, 127
1, 421474, Note_on_c, 2, 62, 127
1, 421583, Note_off_c, 12, 71, 127
1, 421584, Note_on_c, 10, 69, 127
1, 421693, Note_off_c, 10, 69, 127
1, 421693, Note_off_c, 2, 62, 127
1, 421694, Note_on_c, 12, 71, 127
1, 421694, Note_on_c, 7, 55, 127
1, 421803, Note_off_c, 12, 71, 127
1, 421804, Note_on_c, 5, 77, 127
1, 421913, Note_off_c, 5, 77, 127
1, 421913, Note_off_c, 7, 55, 127
1, 421914, Note_on_c, 0, 72, 127
1, 421914, Note_on_c, 0, 60, 127
1, 422023, Note_off_c, 0, 72, 127
1, 422024, Note_on_c, 12, 71, 127
1, 422133, Note_off_c, 12, 71, 127
1, 422133, Note_off_c, 0, 60, 127
1, 422134, Note_on_c, 0, 72, 127
1, 422134, Note_on_c, 7, 67, 127
1, 422244, Note_on_c, 4, 76, 127
1, 422340, Note_off_c, 0, 72, 127
1, 422353, Note_off_c, 4, 76, 127
1, 422353, Note_off_c, 7, 67, 127
1, 422354, Note_on_c, 0, 72, 127
1, 422354, Note_on_c, 4, 64, 127
1, 422463, Note_off_c, 0, 72, 127
1, 422464, Note_on_c, 12, 71, 127
1, 422573, Note_off_c, 12, 71, 127
1, 422573, Note_off_c, 4, 64, 127
1, 422574, Note_on_c, 0, 72, 127
1, 422574, Note_on_c, 0, 60, 127
1, 422684, Note_on_c, 4, 76, 127
1, 422780, Note_off_c, 0, 72, 127
1, 422793, Note_off_c, 4, 76, 127
1, 422793, Note_off_c, 0, 60, 127
1, 422794, Note_on_c, 0, 72, 127
1, 422794, Note_on_c, 7, 67, 127
1, 422903, Note_off_c, 0, 72, 127
1, 422904, Note_on_c, 12, 71, 127
1, 423013, Note_off_c, 12, 71, 127
1, 423013, Note_off_c, 7, 67, 127
1, 423014, Note_on_c, 0, 72, 127
1, 423014, Note_on_c, 4, 64, 127
1, 423124, Note_on_c, 4, 76, 127
1, 423220, Note_off_c, 0, 72, 127
1, 423233, Note_off_c, 4, 76, 127
1, 423233, Note_off_c, 4, 64, 127
1, 423234, Note_on_c, 0, 72, 127
1, 423234, Note_on_c, 10, 57, 127
1, 423343, Note_off_c, 0, 72, 127
1, 423344, Note_on_c, 12, 71, 127
1, 423453, Note_off_c, 12, 71, 127
1, 423453, Note_off_c, 10, 57, 127
1, 423454, Note_on_c, 0, 72, 127
1, 423454, Note_on_c, 10, 69, 127
1, 423564, Note_on_c, 4, 76, 127
1, 423671, Note_off_c, 0, 72, 127
1, 423672, Note_off_c, 4, 76, 127
1, 423672, Note_off_c, 10, 69, 127
1, 423673, Note_on_c, 0, 72, 127
1, 423673, Note_on_c, 4, 64, 127
1, 423782, Note_off_c, 0, 72, 127
1, 423783, Note_on_c, 12, 71, 127
1, 423892, Note_off_c, 12, 71, 127
1, 423892, Note_off_c, 4, 64, 127
1, 423893, Note_on_c, 0, 72, 127
1, 423893, Note_on_c, 0, 60, 127
1, 424003, Note_on_c, 4, 76, 127
1, 424110, Note_off_c, 0, 72, 127
1, 424111, Note_off_c, 4, 76, 127
1, 424111, Note_off_c, 0, 60, 127
1, 424112, Note_on_c, 0, 72, 127
1, 424112, Note_on_c, 10, 69, 127
1, 424221, Note_off_c, 0, 72, 127
1, 424222, Note_on_c, 12, 71, 127
1, 424331, Note_off_c, 12, 71, 127
1, 424331, Note_off_c, 10, 69, 127
1, 424332, Note_on_c, 0, 72, 127
1, 424332, Note_on_c, 0, 60, 127
1, 424442, Note_on_c, 4, 76, 127
1, 424549, Note_off_c, 0, 72, 127
1, 424550, Note_off_c, 4, 76, 127
1, 424550, Note_off_c, 0, 60, 127
1, 424551, Note_on_c, 0, 72, 127
1, 424551, Note_on_c, 2, 62, 127
1, 424660, Note_off_c, 0, 72, 127
1, 424661, Note_on_c, 12, 71, 127
1, 424770, Note_off_c, 12, 71, 127
1, 424770, Note_off_c, 2, 62, 127
1, 424771, Note_on_c, 0, 72, 127
1, 424771, Note_on_c, 10, 69, 127
1, 424881, Note_on_c, 6, 78, 127
1, 424988, Note_off_c, 0, 72, 127
1, 424989, Note_off_c, 6, 78, 127
1, 424989, Note_off_c, 10, 69, 127
1, 424990, Note_on_c, 0, 72, 127
1, 424990, Note_on_c, 6, 66, 127
1, 425099, Note_off_c, 0, 72, 127
1, 425100, Note_on_c, 12, 71, 127
1, 425209, Note_off_c, 12, 71, 127
1, 425209, Note_off_c, 6, 66, 127
1, 425210, Note_on_c, 0, 72, 127
1, 425210, Note_on_c, 2, 62, 127
1, 425320, Note_on_c, 6, 78, 127
1, 425427, Note_off_c, 0, 72, 127
1, 425428, Note_off_c, 6, 78, 127
1, 425428, Note_off_c, 2, 62, 127
1, 425429, Note_on_c, 0, 72, 127
1, 425429, Note_on_c, 10, 69, 127
1, 425538, Note_off_c, 0, 72, 127
1, 425539, Note_on_c, 12, 71, 127
1, 425648, Note_off_c, 12, 71, 127
1, 425648, Note_off_c, 10, 69, 127
1, 425649, Note_on_c, 0, 72, 127
1, 425649, Note_on_c, 2, 62, 127
1, 425758, Note_off_c, 0, 72, 127
1, 425759, Note_on_c, 6, 78, 127
1, 425868, Note_off_c, 6, 78, 127
1, 425868, Note_off_c, 2, 62, 127
1, 425869, Note_on_c, 12, 71, 127
1, 425869, Note_on_c, 7, 55, 127
1, 425978, Note_off_c, 12, 71, 127
1, 425979, Note_on_c, 10, 69, 127
1, 426088, Note_off_c, 10, 69, 127
1, 426088, Note_off_c, 7, 55, 127
1, 426089, Note_on_c, 12, 71, 127
1, 426089, Note_on_c, 2, 62, 127
1, 426199, Note_on_c, 7, 79, 127
1, 426306, Note_off_c, 12, 71, 127
1, 426307, Note_off_c, 7, 79, 127
1, 426307, Note_off_c, 2, 62, 127
1, 426308, Note_on_c, 12, 71, 127
1, 426308, Note_on_c, 12, 59, 127
1, 426417, Note_off_c, 12, 71, 127
1, 426418, Note_on_c, 10, 69, 127
1, 426527, Note_off_c, 10, 69, 127
1, 426527, Note_off_c, 12, 59, 127
1, 426528, Note_on_c, 12, 71, 127
1, 426528, Note_on_c, 7, 55, 127
1, 426638, Note_on_c, 7, 79, 127
1, 426745, Note_off_c, 12, 71, 127
1, 426746, Note_off_c, 7, 79, 127
1, 426746, Note_off_c, 7, 55, 127
1, 426747, Note_on_c, 12, 71, 127
1, 426747, Note_on_c, 2, 62, 127
1, 426856, Note_off_c, 12, 71, 127
1, 426857, Note_on_c, 10, 69, 127
1, 426966, Note_off_c, 10, 69, 127
1, 426966, Note_off_c, 2, 62, 127
1, 426967, Note_on_c, 12, 71, 127
1, 426967, Note_on_c, 7, 55, 127
1, 427076, Note_off_c, 12, 71, 127
1, 427077, Note_on_c, 7, 79, 127
1, 427186, Note_off_c, 7, 79, 127
1, 427186, Note_off_c, 7, 55, 127
1, 427187, Note_on_c, 10, 69, 127
1, 427187, Note_on_c, 0, 60, 127
1, 427296, Note_off_c, 10, 69, 127
1, 427297, Note_on_c, 7, 67, 127
1, 427406, Note_off_c, 7, 67, 127
1, 427406, Note_off_c, 0, 60, 127
1, 427407, Note_on_c, 10, 69, 127
1, 427407, Note_on_c, 4, 64, 127
1, 427517, Note_on_c, 7, 79, 127
1, 427624, Note_off_c, 10, 69, 127
1, 427625, Note_off_c, 7, 79, 127
1, 427625, Note_off_c, 4, 64, 127
1, 427626, Note_on_c, 10, 69, 127
1, 427626, Note_on_c, 0, 60, 127
1, 427735, Note_off_c, 10, 69, 127
1, 427736, Note_on_c, 7, 67, 127
1, 427845, Note_off_c, 7, 67, 127
1, 427845, Note_off_c, 0, 60, 127
1, 427846, Note_on_c, 10, 69, 127
1, 427846, Note_on_c, 10, 57, 127
1, 427956, Note_on_c, 7, 79, 127
1, 428063, Note_off_c, 10, 69, 127
1, 428064, Note_off_c, 7, 79, 127
1, 428064, Note_off_c, 10, 57, 127
1, 428065, Note_on_c, 10, 69, 127
1, 428065, Note_on_c, 4, 64, 127
1, 428174, Note_off_c, 10, 69, 127
1, 428175, Note_on_c, 7, 67, 127
1, 428284, Note_off_c, 7, 67, 127
1, 428284, Note_off_c, 4, 64, 127
1, 428285, Note_on_c, 10, 69, 127
1, 428285, Note_on_c, 0, 60, 127
1, 428394, Note_off_c, 10, 69, 127
1, 428395, Note_on_c, 7, 79, 127
1, 428504, Note_off_c, 7, 79, 127
1, 428504, Note_off_c, 0, 60, 127
1, 428505, Note_on_c, 10, 69, 127
1, 428505, Note_on_c, 2, 62, 127
1, 428614, Note_off_c, 10, 69, 127
1, 428615, Note_on_c, 7, 67, 127
1, 428724, Note_off_c, 7, 67, 127
1, 428724, Note_off_c, 2, 62, 127
1, 428725, Note_on_c, 10, 69, 127
1, 428725, Note_on_c, 10, 57, 127
1, 428835, Note_on_c, 6, 78, 127
1, 428942, Note_off_c, 10, 69, 127
1, 428943, Note_off_c, 6, 78, 127
1, 428943, Note_off_c, 10, 57, 127
1, 428944, Note_on_c, 10, 69, 127
1, 428944, Note_on_c, 6, 54, 127
1, 429053, Note_off_c, 10, 69, 127
1, 429054, Note_on_c, 7, 67, 127
1, 429163, Note_off_c, 7, 67, 127
1, 429163, Note_off_c, 6, 54, 127
1, 429164, Note_on_c, 10, 69, 127
1, 429164, Note_on_c, 2, 50, 127
1, 429274, Note_on_c, 6, 78, 127
1, 429329, Note_off_c, 10, 69, 127
1, 429383, Note_off_c, 6, 78, 127
1, 429383, Note_off_c, 2, 50, 127
1, 429384, Note_on_c, 10, 69, 127
1, 429384, Note_on_c, 0, 60, 127
1, 429493, Note_off_c, 10, 69, 127
1, 429494, Note_on_c, 7, 67, 127
1, 429603, Note_off_c, 7, 67, 127
1, 429603, Note_off_c, 0, 60, 127
1, 429604, Note_on_c, 10, 69, 127
1, 429604, Note_on_c, 2, 50, 127
1, 429713, Note_off_c, 10, 69, 127
1, 429714, Note_on_c, 6, 78, 127
1, 429823, Note_off_c, 6, 78, 127
1, 429823, Note_off_c, 2, 50, 127
1, 429824, Note_on_c, 7, 67, 127
1, 429824, Note_on_c, 12, 59, 127
1, 429824, Note_on_c, 7, 55, 127
1, 430042, Note_off_c, 7, 67, 127
1, 430043, Note_on_c, 7, 79, 127
1, 430261, Note_off_c, 7, 79, 127
1, 430261, Note_off_c, 7, 55, 127
1, 430261, Note_off_c, 12, 59, 127
1, 430262, Note_on_c, 2, 74, 127
1, 430262, Note_on_c, 7, 55, 127
1, 430262, Note_on_c, 12, 47, 127
1, 430262, Note_on_c, 2, 50, 127
1, 430480, Note_off_c, 2, 74, 127
1, 430481, Note_on_c, 12, 71, 127
1, 430699, Note_off_c, 12, 71, 127
1, 430699, Note_off_c, 2, 50, 127
1, 430699, Note_off_c, 12, 47, 127
1, 430699, Note_off_c, 7, 55, 127
1, 430700, Note_on_c, 2, 74, 127
1, 430700, Note_on_c, 12, 47, 127
1, 430700, Note_on_c, 7, 55, 127
1, 430700, Note_on_c, 2, 50, 127
1, 430918, Note_off_c, 2, 74, 127
1, 430919, Note_on_c, 12, 71, 127
1, 431137, Note_off_c, 12, 71, 127
1, 431137, Note_off_c, 2, 50, 127
1, 431137, Note_off_c, 7, 55, 127
1, 431137, Note_off_c, 12, 47, 127
1, 431138, Note_on_c, 7, 67, 127
1, 431138, Note_on_c, 12, 47, 127
1, 431138, Note_on_c, 2, 50, 127
1, 431138, Note_on_c, 7, 55, 127
1, 431356, Note_off_c, 7, 67, 127
1, 431357, Note_on_c, 7, 79, 127
1, 431575, Note_off_c, 7, 79, 127
1, 431575, Note_off_c, 7, 55, 127
1, 431575, Note_off_c, 2, 50, 127
1, 431575, Note_off_c, 12, 47, 127
1, 431576, Note_on_c, 2, 74, 127
1, 431576, Note_on_c, 12, 47, 127
1, 431576, Note_on_c, 2, 50, 127
1, 431576, Note_on_c, 7, 55, 127
1, 431794, Note_off_c, 2, 74, 127
1, 431795, Note_on_c, 12, 71, 127
1, 431904, Note_off_c, 12, 71, 127
1, 431905, Note_on_c, 0, 72, 127
1, 432014, Note_off_c, 0, 72, 127
1, 432014, Note_off_c, 7, 55, 127
1, 432014, Note_off_c, 2, 50, 127
1, 432014, Note_off_c, 12, 47, 127
1, 432015, Note_on_c, 2, 74, 127
1, 432015, Note_on_c, 12, 47, 127
1, 432015, Note_on_c, 2, 50, 127
1, 432015, Note_on_c, 7, 55, 127
1, 432124, Note_off_c, 2, 74, 127
1, 432125, Note_on_c, 0, 72, 127
1, 432234, Note_off_c, 0, 72, 127
1, 432235, Note_on_c, 12, 71, 127
1, 432344, Note_off_c, 12, 71, 127
1, 432345, Note_on_c, 10, 69, 127
1, 432454, Note_off_c, 10, 69, 127
1, 432454, Note_off_c, 7, 55, 127
1, 432454, Note_off_c, 2, 50, 127
1, 432454, Note_off_c, 12, 47, 127
1, 432455, Note_on_c, 7, 67, 127
1, 432455, Note_on_c, 12, 47, 127
1, 432455, Note_on_c, 2, 50, 127
1, 432455, Note_on_c, 7, 55, 127
1, 432673, Note_off_c, 7, 67, 127
1, 432674, Note_on_c, 5, 77, 127
1, 432783, Note_off_c, 5, 77, 127
1, 432784, Note_on_c, 4, 76, 127
1, 432893, Note_off_c, 4, 76, 127
1, 432893, Note_off_c, 7, 55, 127
1, 432893, Note_off_c, 2, 50, 127
1, 432893, Note_off_c, 12, 47, 127
1, 432894, Note_on_c, 2, 74, 127
1, 432894, Note_on_c, 2, 50, 127
1, 432894, Note_on_c, 7, 55, 127
1, 432894, Note_on_c, 12, 47, 127
1, 433003, Note_off_c, 2, 74, 127
1, 433004, Note_on_c, 0, 72, 127
1, 433113, Note_off_c, 0, 72, 127
1, 433114, Note_on_c, 12, 71, 127
1, 433223, Note_off_c, 12, 71, 127
1, 433224, Note_on_c, 0, 72, 127
1, 433333, Note_off_c, 0, 72, 127
1, 433333, Note_off_c, 12, 47, 127
1, 433333, Note_off_c, 7, 55, 127
1, 433333, Note_off_c, 2, 50, 127
1, 433334, Note_on_c, 2, 74, 127
1, 433334, Note_on_c, 12, 47, 127
1, 433334, Note_on_c, 2, 50, 127
1, 433334, Note_on_c, 7, 55, 127
1, 433443, Note_off_c, 2, 74, 127
1, 433444, Note_on_c, 12, 71, 127
1, 433553, Note_off_c, 12, 71, 127
1, 433554, Note_on_c, 0, 72, 127
1, 433663, Note_off_c, 0, 72, 127
1, 433664, Note_on_c, 2, 74, 127
1, 433773, Note_off_c, 2, 74, 127
1, 433773, Note_off_c, 7, 55, 127
1, 433773, Note_off_c, 2, 50, 127
1, 433773, Note_off_c, 12, 47, 127
1, 433774, Note_on_c, 7, 67, 127
1, 433774, Note_on_c, 12, 47, 127
1, 433774, Note_on_c, 2, 50, 127
1, 433774, Note_on_c, 7, 55, 127
1, 433883, Note_off_c, 7, 67, 127
1, 433884, Note_on_c, 10, 69, 127
1, 433993, Note_off_c, 10, 69, 127
1, 433994, Note_on_c, 12, 71, 127
1, 434103, Note_off_c, 12, 71, 127
1, 434104, Note_on_c, 0, 72, 127
1, 434213, Note_off_c, 0, 72, 127
1, 434213, Note_off_c, 7, 55, 127
1, 434213, Note_off_c, 2, 50, 127
1, 434213, Note_off_c, 12, 47, 127
1, 434214, Note_on_c, 2, 74, 127
1, 434214, Note_on_c, 12, 47, 127
1, 434214, Note_on_c, 7, 55, 127
1, 434214, Note_on_c, 2, 50, 127
1, 434323, Note_off_c, 2, 74, 127
1, 434324, Note_on_c, 4, 76, 127
1, 434433, Note_off_c, 4, 76, 127
1, 434434, Note_on_c, 5, 77, 127
1, 434543, Note_off_c, 5, 77, 127
1, 434544, Note_on_c, 4, 76, 127
1, 434653, Note_off_c, 4, 76, 127
1, 434653, Note_off_c, 2, 50, 127
1, 434653, Note_off_c, 7, 55, 127
1, 434653, Note_off_c, 12, 47, 127
1, 434654, Note_on_c, 2, 74, 127
1, 434654, Note_on_c, 7, 55, 127
1, 434654, Note_on_c, 12, 47, 127
1, 434654, Note_on_c, 2, 50, 127
1, 434763, Note_off_c, 2, 74, 127
1, 434764, Note_on_c, 0, 72, 127
1, 434873, Note_off_c, 0, 72, 127
1, 434874, Note_on_c, 12, 71, 127
1, 434983, Note_off_c, 12, 71, 127
1, 434984, Note_on_c, 10, 69, 127
1, 435093, Note_off_c, 10, 69, 127
1, 435093, Note_off_c, 2, 50, 127
1, 435093, Note_off_c, 12, 47, 127
1, 435093, Note_off_c, 7, 55, 127
1, 435094, Note_on_c, 7, 67, 127
1, 435094, Note_on_c, 4, 52, 127
1, 435094, Note_on_c, 7, 55, 127
1, 435094, Note_on_c, 0, 48, 127
1, 435312, Note_off_c, 7, 67, 127
1, 435313, Note_on_c, 0, 72, 127
1, 435531, Note_off_c, 0, 72, 127
1, 435531, Note_off_c, 0, 48, 127
1, 435531, Note_off_c, 7, 55, 127
1, 435531, Note_off_c, 4, 52, 127
1, 435532, Note_on_c, 0, 72, 127
1, 435532, Note_on_c, 0, 60, 127
1, 435532, Note_on_c, 7, 55, 127
1, 435532, Note_on_c, 4, 52, 127
1, 435750, Note_off_c, 0, 72, 127
1, 435751, Note_on_c, 4, 76, 127
1, 435969, Note_off_c, 4, 76, 127
1, 435969, Note_off_c, 4, 52, 127
1, 435969, Note_off_c, 7, 55, 127
1, 435969, Note_off_c, 0, 60, 127
1, 435970, Note_on_c, 4, 76, 127
1, 435970, Note_on_c, 0, 60, 127
1, 435970, Note_on_c, 4, 52, 127
1, 435970, Note_on_c, 7, 55, 127
1, 436188, Note_off_c, 4, 76, 127
1, 436189, Note_on_c, 7, 79, 127
1, 436407, Note_off_c, 7, 79, 127
1, 436407, Note_off_c, 7, 55, 127
1, 436407, Note_off_c, 4, 52, 127
1, 436407, Note_off_c, 0, 60, 127
1, 436408, Note_on_c, 7, 79, 127
1, 436408, Note_on_c, 0, 60, 127
1, 436408, Note_on_c, 4, 52, 127
1, 436408, Note_on_c, 7, 55, 127
1, 436626, Note_off_c, 7, 79, 127
1, 436627, Note_on_c, 0, 72, 127
1, 436845, Note_off_c, 0, 72, 127
1, 436845, Note_off_c, 7, 55, 127
1, 436845, Note_off_c, 4, 52, 127
1, 436845, Note_off_c, 0, 60, 127
1, 436846, Note_on_c, 0, 72, 127
1, 436846, Note_on_c, 0, 60, 127
1, 436846, Note_on_c, 4, 52, 127
1, 436846, Note_on_c, 7, 55, 127
1, 437064, Note_off_c, 0, 72, 127
1, 437065, Note_on_c, 11, 70, 127
1, 437283, Note_off_c, 11, 70, 127
1, 437283, Note_off_c, 7, 55, 127
1, 437283, Note_off_c, 4, 52, 127
1, 437283, Note_off_c, 0, 60, 127
1, 437284, Note_on_c, 11, 70, 127
1, 437284, Note_on_c, 4, 52, 127
1, 437284, Note_on_c, 7, 55, 127
1, 437284, Note_on_c, 0, 60, 127
1, 437502, Note_off_c, 11, 70, 127
1, 437503, Note_on_c, 10, 69, 127
1, 437721, Note_off_c, 10, 69, 127
1, 437721, Note_off_c, 0, 60, 127
1, 437721, Note_off_c, 7, 55, 127
1, 437721, Note_off_c, 4, 52, 127
1, 437722, Note_on_c, 10, 69, 127
1, 437722, Note_on_c, 10, 57, 127
1, 437722, Note_on_c, 0, 60, 127
1, 437722, Note_on_c, 5, 53, 127
1, 437940, Note_off_c, 10, 69, 127
1, 437941, Note_on_c, 0, 72, 127
1, 438159, Note_off_c, 0, 72, 127
1, 438159, Note_off_c, 5, 53, 127
1, 438159, Note_off_c, 0, 60, 127
1, 438159, Note_off_c, 10, 57, 127
1, 438160, Note_on_c, 0, 72, 127
1, 438160, Note_on_c, 10, 57, 127
1, 438160, Note_on_c, 0, 60, 127
1, 438160, Note_on_c, 5, 53, 127
1, 438378, Note_off_c, 0, 72, 127
1, 438379, Note_on_c, 5, 77, 127
1, 438597, Note_off_c, 5, 77, 127
1, 438597, Note_off_c, 5, 53, 127
1, 438597, Note_off_c, 0, 60, 127
1, 438597, Note_off_c, 10, 57, 127
1, 438598, Note_on_c, 5, 77, 127
1, 438598, Note_on_c, 5, 53, 127
1, 438598, Note_on_c, 10, 57, 127
1, 438598, Note_on_c, 0, 60, 127
1, 438816, Note_off_c, 5, 77, 127
1, 438817, Note_on_c, 10, 81, 127
1, 439035, Note_off_c, 10, 81, 127
1, 439035, Note_off_c, 0, 60, 127
1, 439035, Note_off_c, 10, 57, 127
1, 439035, Note_off_c, 5, 53, 127
1, 439036, Note_on_c, 10, 81, 127
1, 439036, Note_on_c, 2, 62, 127
1, 439036, Note_on_c, 6, 54, 127
1, 439036, Note_on_c, 10, 57, 127
1, 439254, Note_off_c, 10, 81, 127
1, 439255, Note_on_c, 2, 74, 127
1, 439473, Note_off_c, 2, 74, 127
1, 439473, Note_off_c, 10, 57, 127
1, 439473, Note_off_c, 6, 54, 127
1, 439473, Note_off_c, 2, 62, 127
1, 439474, Note_on_c, 2, 74, 127
1, 439474, Note_on_c, 2, 62, 127
1, 439474, Note_on_c, 6, 54, 127
1, 439474, Note_on_c, 10, 57, 127
1, 439692, Note_off_c, 2, 74, 127
1, 439693, Note_on_c, 0, 72, 127
1, 439911, Note_off_c, 0, 72, 127
1, 439911, Note_off_c, 10, 57, 127
1, 439911, Note_off_c, 6, 54, 127
1, 439911, Note_off_c, 2, 62, 127
1, 439912, Note_on_c, 0, 72, 127
1, 439912, Note_on_c, 10, 57, 127
1, 439912, Note_on_c, 2, 62, 127
1, 439912, Note_on_c, 6, 54, 127
1, 440130, Note_off_c, 0, 72, 127
1, 440131, Note_on_c, 12, 71, 127
1, 440349, Note_off_c, 12, 71, 127
1, 440349, Note_off_c, 6, 54, 127
1, 440349, Note_off_c, 2, 62, 127
1, 440349, Note_off_c, 10, 57, 127
1, 440350, Note_on_c, 12, 71, 127
1, 440350, Note_on_c, 12, 59, 127
1, 440350, Note_on_c, 2, 62, 127
1, 440350, Note_on_c, 7, 55, 127
1, 440568, Note_off_c, 12, 71, 127
1, 440569, Note_on_c, 7, 67, 127
1, 440678, Note_off_c, 7, 67, 127
1, 440679, Note_on_c, 10, 69, 127
1, 440788, Note_off_c, 10, 69, 127
1, 440788, Note_off_c, 7, 55, 127
1, 440788, Note_off_c, 2, 62, 127
1, 440788, Note_off_c, 12, 59, 127
1, 440789, Note_on_c, 12, 71, 127
1, 440789, Note_on_c, 7, 55, 127
1, 440789, Note_on_c, 12, 59, 127
1, 440789, Note_on_c, 2, 62, 127
1, 441007, Note_off_c, 12, 71, 127
1, 441008, Note_on_c, 0, 72, 127
1, 441226, Note_off_c, 0, 72, 127
1, 441226, Note_off_c, 2, 62, 127
1, 441226, Note_off_c, 12, 59, 127
1, 441226, Note_off_c, 7, 55, 127
1, 441227, Note_on_c, 2, 74, 127
1, 441227, Note_on_c, 12, 59, 127
1, 441227, Note_on_c, 2, 62, 127
1, 441227, Note_on_c, 7, 55, 127
1, 441445, Note_off_c, 2, 74, 127
1, 441446, Note_on_c, 4, 76, 127
1, 441664, Note_off_c, 4, 76, 127
1, 441664, Note_off_c, 7, 55, 127
1, 441664, Note_off_c, 2, 62, 127
1, 441664, Note_off_c, 12, 59, 127
1, 441665, Note_on_c, 5, 77, 127
1, 441665, Note_on_c, 2, 62, 127
1, 441665, Note_on_c, 7, 55, 127
1, 441665, Note_on_c, 12, 59, 127
1, 441774, Note_off_c, 5, 77, 127
1, 441775, Note_on_c, 4, 76, 127
1, 441884, Note_off_c, 4, 76, 127
1, 441885, Note_on_c, 2, 74, 127
1, 441994, Note_off_c, 2, 74, 127
1, 441995, Note_on_c, 0, 72, 127
1, 442104, Note_off_c, 0, 72, 127
1, 442104, Note_off_c, 12, 59, 127
1, 442104, Note_off_c, 7, 55, 127
1, 442104, Note_off_c, 2, 62, 127
1, 442105, Note_on_c, 12, 71, 127
1, 442105, Note_on_c, 2, 62, 127
1, 442105, Note_on_c, 7, 55, 127
1, 442105, Note_on_c, 12, 59, 127
1, 442214, Note_off_c, 12, 71, 127
1, 442215, Note_on_c, 10, 69, 127
1, 442324, Note_off_c, 10, 69, 127
1, 442325, Note_on_c, 7, 67, 127
1, 442434, Note_off_c, 7, 67, 127
1, 442435, Note_on_c, 10, 69, 127
1, 442544, Note_off_c, 10, 69, 127
1, 442544, Note_off_c, 12, 59, 127
1, 442544, Note_off_c, 7, 55, 127
1, 442544, Note_off_c, 2, 62, 127
1, 442545, Note_on_c, 12, 71, 127
1, 442545, Note_on_c, 7, 55, 127
1, 442545, Note_on_c, 2, 62, 127
1, 442545, Note_on_c, 12, 59, 127
1, 442654, Note_off_c, 12, 71, 127
1, 442655, Note_on_c, 0, 72, 127
1, 442764, Note_off_c, 0, 72, 127
1, 442765, Note_on_c, 2, 74, 127
1, 442874, Note_off_c, 2, 74, 127
1, 442875, Note_on_c, 4, 76, 127
1, 442984, Note_off_c, 4, 76, 127
1, 442984, Note_off_c, 12, 59, 127
1, 442984, Note_off_c, 2, 62, 127
1, 442984, Note_off_c, 7, 55, 127
1, 442985, Note_on_c, 5, 77, 127
1, 442985, Note_on_c, 7, 55, 127
1, 442985, Note_on_c, 12, 59, 127
1, 442985, Note_on_c, 2, 62, 127
1, 443203, Note_off_c, 5, 77, 127
1, 443204, Note_on_c, 12, 71, 127
1, 443313, Note_off_c, 12, 71, 127
1, 443314, Note_on_c, 0, 72, 127
1, 443423, Note_off_c, 0, 72, 127
1, 443423, Note_off_c, 2, 62, 127
1, 443423, Note_off_c, 12, 59, 127
1, 443423, Note_off_c, 7, 55, 127
1, 443424, Note_on_c, 2, 74, 127
1, 443424, Note_on_c, 7, 55, 127
1, 443424, Note_on_c, 12, 59, 127
1, 443424, Note_on_c, 2, 62, 127
1, 443642, Note_off_c, 2, 74, 127
1, 443643, Note_on_c, 2, 74, 127
1, 443861, Note_off_c, 2, 74, 127
1, 443861, Note_off_c, 2, 62, 127
1, 443861, Note_off_c, 12, 59, 127
1, 443861, Note_off_c, 7, 55, 127
1, 443862, Note_on_c, 12, 71, 127
1, 443862, Note_on_c, 7, 55, 127
1, 443862, Note_on_c, 12, 59, 127
1, 443862, Note_on_c, 2, 62, 127
1, 444080, Note_off_c, 12, 71, 127
1, 444081, Note_on_c, 2, 74, 127
1, 444299, Note_off_c, 2, 74, 127
1, 444299, Note_off_c, 2, 62, 127
1, 444299, Note_off_c, 12, 59, 127
1, 444299, Note_off_c, 7, 55, 127
1, 444300, Note_on_c, 7, 67, 127
1, 444300, Note_on_c, 7, 55, 127
1, 444300, Note_on_c, 2, 62, 127
1, 444300, Note_on_c, 12, 59, 127
1, 444409, Note_off_c, 7, 67, 127
1, 444410, Note_on_c, 10, 69, 127
1, 444519, Note_off_c, 10, 69, 127
1, 444520, Note_on_c, 12, 71, 127
1, 444629, Note_off_c, 12, 71, 127
1, 444630, Note_on_c, 0, 72, 127
1, 444739, Note_off_c, 0, 72, 127
1, 444739, Note_off_c, 12, 59, 127
1, 444739, Note_off_c, 2, 62, 127
1, 444739, Note_off_c, 7, 55, 127
1, 444740, Note_on_c, 2, 74, 127
1, 444740, Note_on_c, 7, 55, 127
1, 444740, Note_on_c, 2, 62, 127
1, 444740, Note_on_c, 12, 59, 127
1, 444849, Note_off_c, 2, 74, 127
1, 444850, Note_on_c, 4, 76, 127
1, 444959, Note_off_c, 4, 76, 127
1, 444960, Note_on_c, 2, 74, 127
1, 445069, Note_off_c, 2, 74, 127
1, 445070, Note_on_c, 0, 72, 127
1, 445179, Note_off_c, 0, 72, 127
1, 445179, Note_off_c, 12, 59, 127
1, 445179, Note_off_c, 2, 62, 127
1, 445179, Note_off_c, 7, 55, 127
1, 445180, Note_on_c, 12, 71, 127
1, 445180, Note_on_c, 2, 62, 127
1, 445180, Note_on_c, 7, 55, 127
1, 445180, Note_on_c, 12, 59, 127
1, 445289, Note_off_c, 12, 71, 127
1, 445290, Note_on_c, 0, 72, 127
1, 445399, Note_off_c, 0, 72, 127
1, 445400, Note_on_c, 2, 74, 127
1, 445509, Note_off_c, 2, 74, 127
1, 445510, Note_on_c, 12, 71, 127
1, 445619, Note_off_c, 12, 71, 127
1, 445619, Note_off_c, 12, 59, 127
1, 445619, Note_off_c, 7, 55, 127
1, 445619, Note_off_c, 2, 62, 127
1, 445620, Note_on_c, 5, 65, 127
1, 445620, Note_on_c, 2, 62, 127
1, 445620, Note_on_c, 7, 55, 127
1, 445620, Note_on_c, 12, 59, 127
1, 445838, Note_off_c, 5, 65, 127
1, 445839, Note_on_c, 12, 71, 127
1, 445948, Note_off_c, 12, 71, 127
1, 445949, Note_on_c, 0, 72, 127
1, 446058, Note_off_c, 0, 72, 127
1, 446058, Note_off_c, 12, 59, 127
1, 446058, Note_off_c, 7, 55, 127
1, 446058, Note_off_c, 2, 62, 127
1, 446059, Note_on_c, 2, 74, 127
1, 446059, Note_on_c, 2, 62, 127
1, 446059, Note_on_c, 7, 55, 127
1, 446059, Note_on_c, 12, 59, 127
1, 446168, Note_off_c, 2, 74, 127
1, 446169, Note_on_c, 0, 72, 127
1, 446278, Note_off_c, 0, 72, 127
1, 446279, Note_on_c, 12, 71, 127
1, 446388, Note_off_c, 12, 71, 127
1, 446389, Note_on_c, 0, 72, 127
1, 446498, Note_off_c, 0, 72, 127
1, 446498, Note_off_c, 12, 59, 127
1, 446498, Note_off_c, 7, 55, 127
1, 446498, Note_off_c, 2, 62, 127
1, 446499, Note_on_c, 2, 74, 127
1, 446499, Note_on_c, 7, 55, 127
1, 446499, Note_on_c, 12, 59, 127
1, 446499, Note_on_c, 2, 62, 127
1, 446608, Note_off_c, 2, 74, 127
1, 446609, Note_on_c, 12, 71, 127
1, 446718, Note_off_c, 12, 71, 127
1, 446719, Note_on_c, 0, 72, 127
1, 446828, Note_off_c, 0, 72, 127
1, 446829, Note_on_c, 2, 74, 127
1, 446938, Note_off_c, 2, 74, 127
1, 446938, Note_off_c, 2, 62, 127
1, 446938, Note_off_c, 12, 59, 127
1, 446938, Note_off_c, 7, 55, 127
1, 446939, Note_on_c, 3, 75, 127
1, 446939, Note_on_c, 7, 55, 127
1, 446939, Note_on_c, 0, 60, 127
1, 447048, Note_off_c, 3, 75, 127
1, 447049, Note_on_c, 2, 74, 127
1, 447158, Note_off_c, 2, 74, 127
1, 447159, Note_on_c, 0, 72, 127
1, 447268, Note_off_c, 0, 72, 127
1, 447269, Note_on_c, 2, 74, 127
1, 447378, Note_off_c, 2, 74, 127
1, 447378, Note_off_c, 0, 60, 127
1, 447378, Note_off_c, 7, 55, 127
1, 447379, Note_on_c, 3, 75, 127
1, 447379, Note_on_c, 7, 55, 127
1, 447379, Note_on_c, 0, 60, 127
1, 447488, Note_off_c, 3, 75, 127
1, 447489, Note_on_c, 0, 72, 127
1, 447598, Note_off_c, 0, 72, 127
1, 447599, Note_on_c, 2, 74, 127
1, 447708, Note_off_c, 2, 74, 127
1, 447709, Note_on_c, 3, 75, 127
1, 447818, Note_off_c, 3, 75, 127
1, 447818, Note_off_c, 0, 60, 127
1, 447818, Note_off_c, 7, 55, 127
1, 447819, Note_on_c, 7, 67, 127
1, 447819, Note_on_c, 7, 55, 127
1, 447819, Note_on_c, 0, 60, 127
1, 447928, Note_off_c, 7, 67, 127
1, 447929, Note_on_c, 0, 72, 127
1, 448038, Note_off_c, 0, 72, 127
1, 448039, Note_on_c, 2, 74, 127
1, 448148, Note_off_c, 2, 74, 127
1, 448149, Note_on_c, 3, 75, 127
1, 448258, Note_off_c, 3, 75, 127
1, 448258, Note_off_c, 0, 60, 127
1, 448258, Note_off_c, 7, 55, 127
1, 448259, Note_on_c, 6, 66, 127
1, 448259, Note_on_c, 10, 57, 127
1, 448259, Note_on_c, 0, 60, 127
1, 448477, Note_off_c, 6, 66, 127
1, 448478, Note_on_c, 0, 72, 127
1, 448587, Note_off_c, 0, 72, 127
1, 448588, Note_on_c, 2, 74, 127
1, 448697, Note_off_c, 2, 74, 127
1, 448697, Note_off_c, 0, 60, 127
1, 448697, Note_off_c, 10, 57, 127
1, 448698, Note_on_c, 3, 75, 127
1, 448698, Note_on_c, 10, 57, 127
1, 448698, Note_on_c, 0, 60, 127
1, 448916, Note_off_c, 3, 75, 127
1, 448917, Note_on_c, 3, 75, 127
1, 449135, Note_off_c, 3, 75, 127
1, 449135, Note_off_c, 0, 60, 127
1, 449135, Note_off_c, 10, 57, 127
1, 449136, Note_on_c, 7, 67, 127
1, 449136, Note_on_c, 0, 60, 127
1, 449136, Note_on_c, 10, 57, 127
1, 449354, Note_off_c, 7, 67, 127
1, 449355, Note_on_c, 3, 75, 127
1, 449573, Note_off_c, 3, 75, 127
1, 449573, Note_off_c, 10, 57, 127
1, 449573, Note_off_c, 0, 60, 127
1, 449574, Note_on_c, 6, 66, 127
1, 449574, Note_on_c, 10, 57, 127
1, 449574, Note_on_c, 0, 60, 127
1, 449792, Note_off_c, 6, 66, 127
1, 449793, Note_on_c, 0, 72, 127
1, 449902, Note_off_c, 0, 72, 127
1, 449903, Note_on_c, 2, 74, 127
1, 450012, Note_off_c, 2, 74, 127
1, 450012, Note_off_c, 0, 60, 127
1, 450012, Note_off_c, 10, 57, 127
1, 450013, Note_on_c, 3, 75, 127
1, 450013, Note_on_c, 0, 60, 127
1, 450013, Note_on_c, 10, 57, 127
1, 450122, Note_off_c, 3, 75, 127
1, 450123, Note_on_c, 2, 74, 127
1, 450232, Note_off_c, 2, 74, 127
1, 450233, Note_on_c, 0, 72, 127
1, 450342, Note_off_c, 0, 72, 127
1, 450343, Note_on_c, 12, 71, 127
1, 450452, Note_off_c, 12, 71, 127
1, 450452, Note_off_c, 10, 57, 127
1, 450452, Note_off_c, 0, 60, 127
1, 450453, Note_on_c, 0, 72, 127
1, 450453, Note_on_c, 0, 60, 127
1, 450453, Note_on_c, 10, 57, 127
1, 450562, Note_off_c, 0, 72, 127
1, 450563, Note_on_c, 2, 74, 127
1, 450672, Note_off_c, 2, 74, 127
1, 450673, Note_on_c, 4, 76, 127
1, 450782, Note_off_c, 4, 76, 127
1, 450783, Note_on_c, 6, 78, 127
1, 450892, Note_off_c, 6, 78, 127
1, 450892, Note_off_c, 10, 57, 127
1, 450892, Note_off_c, 0, 60, 127
1, 450893, Note_on_c, 7, 79, 127
1, 450893, Note_on_c, 2, 62, 127
1, 450893, Note_on_c, 12, 59, 127
1, 451239, Note_off_c, 7, 79, 127
1, 451254, Note_on_c, 2, 74, 127
1, 451293, Note_off_c, 12, 59, 127
1, 451293, Note_off_c, 2, 62, 127
1, 451363, Note_off_c, 2, 74, 127
1, 451364, Note_on_c, 4, 76, 127
1, 451364, Note_on_c, 0, 60, 127
1, 451364, Note_on_c, 7, 67, 127
1, 451692, Note_off_c, 0, 60, 127
1, 451692, Note_off_c, 4, 76, 127
1, 451709, Note_on_c, 2, 62, 127
1, 451709, Note_on_c, 12, 71, 127
1, 451798, Note_off_c, 7, 67, 127
1, 451817, Note_off_c, 12, 71, 127
1, 451817, Note_off_c, 2, 62, 127
1, 451818, Note_on_c, 7, 67, 127
1, 451818, Note_on_c, 4, 64, 127
1, 451818, Note_on_c, 0, 72, 127
1, 451981, Note_off_c, 0, 72, 127
1, 451998, Note_on_c, 2, 74, 127
1, 452063, Note_off_c, 2, 74, 127
1, 452064, Note_on_c, 0, 72, 127
1, 452129, Note_off_c, 0, 72, 127
1, 452130, Note_on_c, 12, 71, 127
1, 452195, Note_off_c, 12, 71, 127
1, 452208, Note_on_c, 0, 72, 127
1, 452254, Note_off_c, 4, 64, 127
1, 452254, Note_off_c, 7, 67, 127
1, 452267, Note_off_c, 0, 72, 127
1, 452271, Note_on_c, 2, 74, 127
1, 452271, Note_on_c, 5, 65, 127
1, 452580, Note_off_c, 2, 74, 127
1, 452605, Note_on_c, 5, 77, 127
1, 452709, Note_off_c, 5, 65, 127
1, 452726, Note_off_c, 5, 77, 127
1, 452726, Note_on_c, 7, 67, 127
1, 452726, Note_on_c, 12, 71, 127
1, 452726, Note_on_c, 4, 76, 127
1, 452791, Note_off_c, 4, 76, 127
1, 452792, Note_on_c, 2, 74, 127
1, 452857, Note_off_c, 2, 74, 127
1, 452858, Note_on_c, 4, 76, 127
1, 452923, Note_off_c, 4, 76, 127
1, 452924, Note_on_c, 2, 74, 127
1, 453159, Note_off_c, 12, 71, 127
1, 453164, Note_on_c, 7, 55, 127
1, 453381, Note_off_c, 2, 74, 127
1, 453383, Note_on_c, 0, 72, 127
1, 453601, Note_off_c, 0, 72, 127
1, 453601, Note_off_c, 7, 55, 127
1, 453601, Note_off_c, 7, 67, 127
1, 453618, Note_on_c, 0, 72, 127
1, 453618, Note_on_c, 0, 60, 127
1, 453836, Note_off_c, 0, 72, 127
1, 453837, Note_on_c, 4, 76, 127
1, 454052, Note_off_c, 0, 60, 127
1, 454055, Note_off_c, 4, 76, 127
1, 454056, Note_on_c, 0, 72, 127
1, 454166, Note_on_c, 0, 48, 127
1, 454275, Note_off_c, 0, 48, 127
1, 454275, Note_off_c, 0, 72, 127
1, 454276, Note_on_c, 7, 67, 127
1, 454276, Note_on_c, 2, 50, 127
1, 454385, Note_off_c, 2, 50, 127
1, 454386, Note_on_c, 4, 52, 127
1, 454495, Note_off_c, 4, 52, 127
1, 454495, Note_off_c, 7, 67, 127
1, 454496, Note_on_c, 4, 64, 127
1, 454496, Note_on_c, 5, 53, 127
1, 454605, Note_off_c, 5, 53, 127
1, 454605, Note_off_c, 4, 64, 127
1, 454606, Note_on_c, 12, 71, 127
1, 454606, Note_on_c, 7, 55, 127
1, 454715, Note_off_c, 7, 55, 127
1, 454715, Note_off_c, 12, 71, 127
1, 454716, Note_on_c, 0, 72, 127
1, 454716, Note_on_c, 10, 57, 127
1, 454825, Note_off_c, 10, 57, 127
1, 454825, Note_off_c, 0, 72, 127
1, 454826, Note_on_c, 2, 74, 127
1, 454826, Note_on_c, 12, 59, 127
1, 454935, Note_off_c, 12, 59, 127
1, 454935, Note_off_c, 2, 74, 127
1, 454936, Note_on_c, 4, 76, 127
1, 454936, Note_on_c, 0, 60, 127
1, 455154, Note_off_c, 4, 76, 127
1, 455155, Note_on_c, 7, 79, 127
1, 455373, Note_off_c, 7, 79, 127
1, 455374, Note_on_c, 4, 76, 127
1, 455484, Note_off_c, 0, 60, 127
1, 455484, Note_on_c, 0, 48, 127
1, 455593, Note_off_c, 0, 48, 127
1, 455593, Note_off_c, 4, 76, 127
1, 455594, Note_on_c, 0, 72, 127
1, 455594, Note_on_c, 2, 50, 127
1, 455703, Note_off_c, 2, 50, 127
1, 455704, Note_on_c, 4, 52, 127
1, 455813, Note_off_c, 4, 52, 127
1, 455813, Note_off_c, 0, 72, 127
1, 455814, Note_on_c, 7, 67, 127
1, 455814, Note_on_c, 5, 53, 127
1, 455923, Note_off_c, 5, 53, 127
1, 455923, Note_off_c, 7, 67, 127
1, 455924, Note_on_c, 12, 71, 127
1, 455924, Note_on_c, 7, 55, 127
1, 456033, Note_off_c, 7, 55, 127
1, 456033, Note_off_c, 12, 71, 127
1, 456034, Note_on_c, 10, 69, 127
1, 456034, Note_on_c, 10, 57, 127
1, 456143, Note_off_c, 10, 57, 127
1, 456143, Note_off_c, 10, 69, 127
1, 456144, Note_on_c, 7, 67, 127
1, 456144, Note_on_c, 12, 59, 127
1, 456253, Note_off_c, 12, 59, 127
1, 456253, Note_off_c, 7, 67, 127
1, 456254, Note_on_c, 0, 72, 127
1, 456254, Note_on_c, 0, 60, 127
1, 456472, Note_off_c, 0, 72, 127
1, 456473, Note_on_c, 4, 76, 127
1, 456691, Note_off_c, 4, 76, 127
1, 456692, Note_on_c, 0, 72, 127
1, 456802, Note_on_c, 0, 48, 127
1, 456911, Note_off_c, 0, 48, 127
1, 456911, Note_off_c, 0, 72, 127
1, 456912, Note_on_c, 7, 67, 127
1, 456912, Note_on_c, 2, 50, 127
1, 457021, Note_off_c, 2, 50, 127
1, 457022, Note_on_c, 4, 52, 127
1, 457031, Note_off_c, 0, 60, 127
1, 457130, Note_off_c, 4, 52, 127
1, 457130, Note_off_c, 7, 67, 127
1, 457131, Note_on_c, 4, 64, 127
1, 457131, Note_on_c, 5, 53, 127
1, 457240, Note_off_c, 5, 53, 127
1, 457240, Note_off_c, 4, 64, 127
1, 457241, Note_on_c, 12, 71, 127
1, 457241, Note_on_c, 7, 55, 127
1, 457350, Note_off_c, 7, 55, 127
1, 457350, Note_off_c, 12, 71, 127
1, 457351, Note_on_c, 0, 72, 127
1, 457351, Note_on_c, 10, 57, 127
1, 457460, Note_off_c, 10, 57, 127
1, 457460, Note_off_c, 0, 72, 127
1, 457461, Note_on_c, 2, 74, 127
1, 457461, Note_on_c, 12, 59, 127
1, 457570, Note_off_c, 12, 59, 127
1, 457570, Note_off_c, 2, 74, 127
1, 457571, Note_on_c, 4, 76, 127
1, 457571, Note_on_c, 0, 60, 127
1, 457789, Note_off_c, 4, 76, 127
1, 457790, Note_on_c, 7, 79, 127
1, 458008, Note_off_c, 7, 79, 127
1, 458009, Note_on_c, 4, 76, 127
1, 458119, Note_on_c, 0, 48, 127
1, 458228, Note_off_c, 0, 48, 127
1, 458228, Note_off_c, 4, 76, 127
1, 458229, Note_on_c, 0, 72, 127
1, 458229, Note_on_c, 2, 50, 127
1, 458338, Note_off_c, 2, 50, 127
1, 458339, Note_on_c, 4, 52, 127
1, 458448, Note_off_c, 4, 52, 127
1, 458448, Note_off_c, 0, 72, 127
1, 458449, Note_on_c, 7, 67, 127
1, 458449, Note_on_c, 5, 53, 127
1, 458558, Note_off_c, 5, 53, 127
1, 458558, Note_off_c, 7, 67, 127
1, 458559, Note_on_c, 12, 71, 127
1, 458559, Note_on_c, 7, 55, 127
1, 458668, Note_off_c, 7, 55, 127
1, 458668, Note_off_c, 12, 71, 127
1, 458669, Note_on_c, 10, 69, 127
1, 458669, Note_on_c, 10, 57, 127
1, 458714, Note_off_c, 0, 60, 127
1, 458778, Note_off_c, 10, 57, 127
1, 458778, Note_off_c, 10, 69, 127
1, 458779, Note_on_c, 7, 67, 127
1, 458779, Note_on_c, 12, 59, 127
1, 458888, Note_off_c, 12, 59, 127
1, 458888, Note_off_c, 7, 67, 127
1, 458889, Note_on_c, 0, 72, 127
1, 458889, Note_on_c, 0, 60, 127
1, 458992, Note_off_c, 0, 60, 127
1, 458999, Note_on_c, 0, 60, 127
1, 459108, Note_off_c, 0, 60, 127
1, 459109, Note_on_c, 2, 62, 127
1, 459109, Note_on_c, 12, 59, 127
1, 459218, Note_off_c, 12, 59, 127
1, 459218, Note_off_c, 2, 62, 127
1, 459219, Note_on_c, 4, 64, 127
1, 459219, Note_on_c, 10, 57, 127
1, 459324, Note_off_c, 0, 72, 127
1, 459327, Note_off_c, 10, 57, 127
1, 459327, Note_off_c, 4, 64, 127
1, 459328, Note_on_c, 5, 65, 127
1, 459328, Note_on_c, 7, 55, 127
1, 459437, Note_off_c, 7, 55, 127
1, 459437, Note_off_c, 5, 65, 127
1, 459438, Note_on_c, 7, 67, 127
1, 459438, Note_on_c, 5, 53, 127
1, 459547, Note_off_c, 5, 53, 127
1, 459547, Note_off_c, 7, 67, 127
1, 459548, Note_on_c, 10, 69, 127
1, 459548, Note_on_c, 4, 52, 127
1, 459657, Note_off_c, 4, 52, 127
1, 459657, Note_off_c, 10, 69, 127
1, 459658, Note_on_c, 12, 71, 127
1, 459658, Note_on_c, 2, 50, 127
1, 459767, Note_off_c, 2, 50, 127
1, 459767, Note_off_c, 12, 71, 127
1, 459768, Note_on_c, 0, 72, 127
1, 459768, Note_on_c, 0, 48, 127
1, 459877, Note_off_c, 0, 48, 127
1, 459877, Note_off_c, 0, 72, 127
1, 459878, Note_on_c, 7, 67, 127
1, 459878, Note_on_c, 11, 58, 127
1, 459987, Note_off_c, 11, 58, 127
1, 459987, Note_off_c, 7, 67, 127
1, 459988, Note_on_c, 10, 69, 127
1, 459988, Note_on_c, 10, 57, 127
1, 460097, Note_off_c, 10, 57, 127
1, 460097, Note_off_c, 10, 69, 127
1, 460098, Note_on_c, 11, 70, 127
1, 460098, Note_on_c, 7, 55, 127
1, 460207, Note_off_c, 7, 55, 127
1, 460207, Note_off_c, 11, 70, 127
1, 460208, Note_on_c, 10, 69, 127
1, 460208, Note_on_c, 5, 53, 127
1, 460317, Note_off_c, 5, 53, 127
1, 460318, Note_on_c, 5, 65, 127
1, 460318, Note_on_c, 2, 62, 127
1, 460425, Note_off_c, 10, 69, 127
1, 460426, Note_off_c, 2, 62, 127
1, 460426, Note_off_c, 5, 65, 127
1, 460427, Note_on_c, 7, 67, 127
1, 460427, Note_on_c, 0, 60, 127
1, 460536, Note_off_c, 0, 60, 127
1, 460536, Note_off_c, 7, 67, 127
1, 460537, Note_on_c, 10, 69, 127
1, 460537, Note_on_c, 12, 59, 127
1, 460646, Note_off_c, 12, 59, 127
1, 460646, Note_off_c, 10, 69, 127
1, 460647, Note_on_c, 12, 71, 127
1, 460647, Note_on_c, 10, 57, 127
1, 460756, Note_off_c, 10, 57, 127
1, 460756, Note_off_c, 12, 71, 127
1, 460757, Note_on_c, 0, 72, 127
1, 460757, Note_on_c, 7, 55, 127
1, 460866, Note_off_c, 7, 55, 127
1, 460866, Note_off_c, 0, 72, 127
1, 460867, Note_on_c, 2, 74, 127
1, 460867, Note_on_c, 5, 53, 127
1, 460976, Note_off_c, 5, 53, 127
1, 460976, Note_off_c, 2, 74, 127
1, 460977, Note_on_c, 4, 76, 127
1, 460977, Note_on_c, 4, 52, 127
1, 461086, Note_off_c, 4, 52, 127
1, 461086, Note_off_c, 4, 76, 127
1, 461087, Note_on_c, 5, 77, 127
1, 461087, Note_on_c, 2, 50, 127
1, 461196, Note_off_c, 2, 50, 127
1, 461196, Note_off_c, 5, 77, 127
1, 461197, Note_on_c, 10, 69, 127
1, 461197, Note_on_c, 5, 53, 127
1, 461306, Note_off_c, 5, 53, 127
1, 461306, Note_off_c, 10, 69, 127
1, 461307, Note_on_c, 12, 71, 127
1, 461307, Note_on_c, 4, 52, 127
1, 461416, Note_off_c, 4, 52, 127
1, 461416, Note_off_c, 12, 71, 127
1, 461417, Note_on_c, 0, 72, 127
1, 461417, Note_on_c, 2, 50, 127
1, 461526, Note_off_c, 2, 50, 127
1, 461526, Note_off_c, 0, 72, 127
1, 461527, Note_on_c, 12, 71, 127
1, 461527, Note_on_c, 7, 55, 127
1, 461636, Note_off_c, 12, 71, 127
1, 461637, Note_on_c, 7, 67, 127
1, 461746, Note_off_c, 7, 67, 127
1, 461746, Note_off_c, 7, 55, 127
1, 461747, Note_on_c, 10, 69, 127
1, 461747, Note_on_c, 5, 53, 127
1, 461856, Note_off_c, 5, 53, 127
1, 461856, Note_off_c, 10, 69, 127
1, 461857, Note_on_c, 12, 71, 127
1, 461857, Note_on_c, 4, 52, 127
1, 461966, Note_off_c, 4, 52, 127
1, 461966, Note_off_c, 12, 71, 127
1, 461967, Note_on_c, 0, 72, 127
1, 461967, Note_on_c, 2, 50, 127
1, 462076, Note_off_c, 2, 50, 127
1, 462076, Note_off_c, 0, 72, 127
1, 462077, Note_on_c, 2, 74, 127
1, 462077, Note_on_c, 0, 48, 127
1, 462186, Note_off_c, 0, 48, 127
1, 462186, Note_off_c, 2, 74, 127
1, 462187, Note_on_c, 4, 76, 127
1, 462187, Note_on_c, 12, 47, 127
1, 462296, Note_off_c, 12, 47, 127
1, 462296, Note_off_c, 4, 76, 127
1, 462297, Note_on_c, 5, 77, 127
1, 462297, Note_on_c, 10, 45, 127
1, 462406, Note_off_c, 10, 45, 127
1, 462406, Note_off_c, 5, 77, 127
1, 462407, Note_on_c, 7, 79, 127
1, 462407, Note_on_c, 7, 43, 127
1, 462516, Note_off_c, 7, 43, 127
1, 462516, Note_off_c, 7, 79, 127
1, 462517, Note_on_c, 2, 74, 127
1, 462517, Note_on_c, 5, 41, 127
1, 462626, Note_off_c, 5, 41, 127
1, 462626, Note_off_c, 2, 74, 127
1, 462627, Note_on_c, 4, 76, 127
1, 462627, Note_on_c, 4, 40, 127
1, 462736, Note_off_c, 4, 40, 127
1, 462736, Note_off_c, 4, 76, 127
1, 462737, Note_on_c, 5, 77, 127
1, 462737, Note_on_c, 2, 38, 127
1, 462846, Note_off_c, 2, 38, 127
1, 462846, Note_off_c, 5, 77, 127
1, 462863, Note_on_c, 0, 36, 127
1, 462863, Note_on_c, 4, 76, 127
1, 462973, Note_on_c, 7, 79, 127
1, 462989, Note_off_c, 4, 76, 127
1, 463082, Note_off_c, 0, 36, 127
1, 463083, Note_on_c, 7, 43, 127
1, 463083, Note_on_c, 4, 76, 127
1, 463099, Note_off_c, 7, 79, 127
1, 463193, Note_on_c, 7, 79, 127
1, 463209, Note_off_c, 4, 76, 127
1, 463302, Note_off_c, 7, 43, 127
1, 463303, Note_on_c, 4, 40, 127
1, 463303, Note_on_c, 0, 72, 127
1, 463319, Note_off_c, 7, 79, 127
1, 463413, Note_on_c, 7, 79, 127
1, 463429, Note_off_c, 0, 72, 127
1, 463522, Note_off_c, 4, 40, 127
1, 463523, Note_on_c, 0, 36, 127
1, 463523, Note_on_c, 4, 76, 127
1, 463539, Note_off_c, 7, 79, 127
1, 463633, Note_on_c, 7, 79, 127
1, 463649, Note_off_c, 4, 76, 127
1, 463742, Note_off_c, 0, 36, 127
1, 463743, Note_on_c, 0, 48, 127
1, 463743, Note_on_c, 0, 72, 127
1, 463759, Note_off_c, 7, 79, 127
1, 463853, Note_on_c, 7, 79, 127
1, 463869, Note_off_c, 0, 72, 127
1, 463962, Note_off_c, 0, 48, 127
1, 463963, Note_on_c, 0, 36, 127
1, 463963, Note_on_c, 4, 76, 127
1, 463979, Note_off_c, 7, 79, 127
1, 464073, Note_on_c, 7, 79, 127
1, 464089, Note_off_c, 4, 76, 127
1, 464182, Note_off_c, 0, 36, 127
1, 464183, Note_on_c, 7, 43, 127
1, 464183, Note_on_c, 12, 71, 127
1, 464199, Note_off_c, 7, 79, 127
1, 464293, Note_on_c, 7, 79, 127
1, 464309, Note_off_c, 12, 71, 127
1, 464402, Note_off_c, 7, 43, 127
1, 464403, Note_on_c, 7, 55, 127
1, 464403, Note_on_c, 2, 74, 127
1, 464419, Note_off_c, 7, 79, 127
1, 464513, Note_on_c, 7, 79, 127
1, 464529, Note_off_c, 2, 74, 127
1, 464622, Note_off_c, 7, 55, 127
1, 464623, Note_on_c, 2, 50, 127
1, 464623, Note_on_c, 12, 71, 127
1, 464639, Note_off_c, 7, 79, 127
1, 464733, Note_on_c, 7, 79, 127
1, 464749, Note_off_c, 12, 71, 127
1, 464842, Note_off_c, 2, 50, 127
1, 464843, Note_on_c, 12, 47, 127
1, 464843, Note_on_c, 2, 74, 127
1, 464859, Note_off_c, 7, 79, 127
1, 464953, Note_on_c, 7, 79, 127
1, 464969, Note_off_c, 2, 74, 127
1, 465062, Note_off_c, 12, 47, 127
1, 465063, Note_on_c, 7, 55, 127
1, 465063, Note_on_c, 12, 71, 127
1, 465079, Note_off_c, 7, 79, 127
1, 465173, Note_on_c, 7, 79, 127
1, 465189, Note_off_c, 12, 71, 127
1, 465282, Note_off_c, 7, 55, 127
1, 465283, Note_on_c, 12, 47, 127
1, 465283, Note_on_c, 2, 74, 127
1, 465299, Note_off_c, 7, 79, 127
1, 465393, Note_on_c, 7, 79, 127
1, 465409, Note_off_c, 2, 74, 127
1, 465502, Note_off_c, 12, 47, 127
1, 465503, Note_on_c, 0, 48, 127
1, 465503, Note_on_c, 0, 72, 127
1, 465519, Note_off_c, 7, 79, 127
1, 465613, Note_on_c, 7, 79, 127
1, 465640, Note_off_c, 0, 72, 127
1, 465721, Note_off_c, 0, 48, 127
1, 465722, Note_on_c, 7, 55, 127
1, 465722, Note_on_c, 4, 76, 127
1, 465749, Note_off_c, 7, 79, 127
1, 465831, Note_on_c, 7, 79, 127
1, 465858, Note_off_c, 4, 76, 127
1, 465939, Note_off_c, 7, 55, 127
1, 465940, Note_on_c, 4, 52, 127
1, 465940, Note_on_c, 0, 72, 127
1, 465967, Note_off_c, 7, 79, 127
1, 466049, Note_on_c, 7, 79, 127
1, 466076, Note_off_c, 0, 72, 127
1, 466157, Note_off_c, 4, 52, 127
1, 466158, Note_on_c, 0, 48, 127
1, 466158, Note_on_c, 4, 76, 127
1, 466185, Note_off_c, 7, 79, 127
1, 466267, Note_on_c, 7, 79, 127
1, 466294, Note_off_c, 4, 76, 127
1, 466375, Note_off_c, 0, 48, 127
1, 466376, Note_on_c, 0, 60, 127
1, 466376, Note_on_c, 0, 72, 127
1, 466403, Note_off_c, 7, 79, 127
1, 466485, Note_on_c, 7, 79, 127
1, 466512, Note_off_c, 0, 72, 127
1, 466593, Note_off_c, 0, 60, 127
1, 466594, Note_on_c, 0, 48, 127
1, 466594, Note_on_c, 4, 76, 127
1, 466621, Note_off_c, 7, 79, 127
1, 466703, Note_on_c, 7, 79, 127
1, 466730, Note_off_c, 4, 76, 127
1, 466811, Note_off_c, 0, 48, 127
1, 466812, Note_on_c, 7, 55, 127
1, 466812, Note_on_c, 12, 71, 127
1, 466839, Note_off_c, 7, 79, 127
1, 466921, Note_on_c, 7, 79, 127
1, 466948, Note_off_c, 12, 71, 127
1, 467029, Note_off_c, 7, 55, 127
1, 467030, Note_on_c, 7, 67, 127
1, 467030, Note_on_c, 2, 74, 127
1, 467057, Note_off_c, 7, 79, 127
1, 467139, Note_on_c, 7, 79, 127
1, 467166, Note_off_c, 2, 74, 127
1, 467247, Note_off_c, 7, 67, 127
1, 467248, Note_on_c, 2, 62, 127
1, 467248, Note_on_c, 12, 71, 127
1, 467275, Note_off_c, 7, 79, 127
1, 467357, Note_on_c, 7, 79, 127
1, 467384, Note_off_c, 12, 71, 127
1, 467465, Note_off_c, 2, 62, 127
1, 467466, Note_on_c, 12, 59, 127
1, 467466, Note_on_c, 2, 74, 127
1, 467493, Note_off_c, 7, 79, 127
1, 467575, Note_on_c, 7, 79, 127
1, 467602, Note_off_c, 2, 74, 127
1, 467683, Note_off_c, 12, 59, 127
1, 467684, Note_on_c, 7, 67, 127
1, 467684, Note_on_c, 12, 71, 127
1, 467711, Note_off_c, 7, 79, 127
1, 467793, Note_on_c, 7, 79, 127
1, 467820, Note_off_c, 12, 71, 127
1, 467901, Note_off_c, 7, 67, 127
1, 467902, Note_on_c, 7, 55, 127
1, 467902, Note_on_c, 2, 74, 127
1, 467929, Note_off_c, 7, 79, 127
1, 468011, Note_on_c, 7, 79, 127
1, 468038, Note_off_c, 2, 74, 127
1, 468119, Note_off_c, 7, 55, 127
1, 468120, Note_on_c, 10, 57, 127
1, 468120, Note_on_c, 10, 69, 127
1, 468147, Note_off_c, 7, 79, 127
1, 468229, Note_on_c, 7, 79, 127
1, 468268, Note_off_c, 10, 69, 127
1, 468338, Note_off_c, 10, 57, 127
1, 468339, Note_on_c, 4, 64, 127
1, 468339, Note_on_c, 0, 72, 127
1, 468378, Note_off_c, 7, 79, 127
1, 468449, Note_on_c, 7, 79, 127
1, 468488, Note_off_c, 0, 72, 127
1, 468558, Note_off_c, 4, 64, 127
1, 468559, Note_on_c, 0, 60, 127
1, 468559, Note_on_c, 10, 69, 127
1, 468598, Note_off_c, 7, 79, 127
1, 468669, Note_on_c, 7, 79, 127
1, 468708, Note_off_c, 10, 69, 127
1, 468778, Note_off_c, 0, 60, 127
1, 468779, Note_on_c, 10, 57, 127
1, 468779, Note_on_c, 0, 72, 127
1, 468818, Note_off_c, 7, 79, 127
1, 468889, Note_on_c, 7, 79, 127
1, 468928, Note_off_c, 0, 72, 127
1, 468998, Note_off_c, 10, 57, 127
1, 468999, Note_on_c, 4, 64, 127
1, 468999, Note_on_c, 10, 69, 127
1, 469038, Note_off_c, 7, 79, 127
1, 469109, Note_on_c, 7, 79, 127
1, 469148, Note_off_c, 10, 69, 127
1, 469218, Note_off_c, 4, 64, 127
1, 469219, Note_on_c, 10, 57, 127
1, 469219, Note_on_c, 0, 72, 127
1, 469258, Note_off_c, 7, 79, 127
1, 469329, Note_on_c, 7, 79, 127
1, 469368, Note_off_c, 0, 72, 127
1, 469438, Note_off_c, 10, 57, 127
1, 469439, Note_on_c, 2, 62, 127
1, 469439, Note_on_c, 10, 69, 127
1, 469478, Note_off_c, 7, 79, 127
1, 469549, Note_on_c, 5, 77, 127
1, 469588, Note_off_c, 10, 69, 127
1, 469658, Note_off_c, 2, 62, 127
1, 469659, Note_on_c, 10, 57, 127
1, 469659, Note_on_c, 0, 72, 127
1, 469698, Note_off_c, 5, 77, 127
1, 469769, Note_on_c, 5, 77, 127
1, 469808, Note_off_c, 0, 72, 127
1, 469878, Note_off_c, 10, 57, 127
1, 469879, Note_on_c, 5, 53, 127
1, 469879, Note_on_c, 10, 69, 127
1, 469918, Note_off_c, 5, 77, 127
1, 469989, Note_on_c, 5, 77, 127
1, 470028, Note_off_c, 10, 69, 127
1, 470098, Note_off_c, 5, 53, 127
1, 470099, Note_on_c, 2, 50, 127
1, 470099, Note_on_c, 0, 72, 127
1, 470138, Note_off_c, 5, 77, 127
1, 470209, Note_on_c, 5, 77, 127
1, 470242, Note_off_c, 0, 72, 127
1, 470317, Note_off_c, 2, 50, 127
1, 470318, Note_on_c, 10, 57, 127
1, 470318, Note_on_c, 10, 69, 127
1, 470345, Note_off_c, 5, 77, 127
1, 470427, Note_on_c, 5, 77, 127
1, 470449, Note_off_c, 10, 69, 127
1, 470536, Note_off_c, 10, 57, 127
1, 470537, Note_on_c, 5, 53, 127
1, 470537, Note_on_c, 0, 72, 127
1, 470553, Note_off_c, 5, 77, 127
1, 470653, Note_on_c, 5, 77, 127
1, 470657, Note_off_c, 0, 72, 127
1, 470751, Note_off_c, 5, 77, 127
1, 470755, Note_off_c, 5, 53, 127
1, 470772, Note_on_c, 2, 74, 127
1, 470772, Note_on_c, 5, 77, 127
1, 470772, Note_on_c, 7, 67, 127
1, 470772, Note_on_c, 12, 71, 127
1, 470772, Note_on_c, 2, 50, 127
1, 470990, Note_off_c, 2, 50, 127
1, 470991, Note_on_c, 2, 62, 127
1, 470991, Note_on_c, 2, 50, 127
1, 471209, Note_off_c, 2, 50, 127
1, 471209, Note_off_c, 2, 62, 127
1, 471210, Note_on_c, 12, 59, 127
1, 471210, Note_on_c, 12, 47, 127
1, 471428, Note_off_c, 12, 47, 127
1, 471428, Note_off_c, 12, 59, 127
1, 471429, Note_on_c, 12, 47, 127
1, 471429, Note_on_c, 12, 59, 127
1, 471647, Note_off_c, 12, 59, 127
1, 471647, Note_off_c, 12, 47, 127
1, 471648, Note_on_c, 7, 43, 127
1, 471648, Note_on_c, 7, 55, 127
1, 471866, Note_off_c, 7, 55, 127
1, 471866, Note_off_c, 7, 43, 127
1, 471867, Note_on_c, 7, 43, 127
1, 471867, Note_on_c, 7, 55, 127
1, 472085, Note_off_c, 7, 55, 127
1, 472085, Note_off_c, 7, 43, 127
1, 472085, Note_off_c, 12, 71, 127
1, 472085, Note_off_c, 7, 67, 127
1, 472085, Note_off_c, 5, 77, 127
1, 472085, Note_off_c, 2, 74, 127
1, 472086, Note_on_c, 5, 77, 127
1, 472086, Note_on_c, 12, 71, 127
1, 472086, Note_on_c, 2, 74, 127
1, 472086, Note_on_c, 7, 67, 127
1, 472086, Note_on_c, 2, 62, 127
1, 472086, Note_on_c, 2, 50, 127
1, 472304, Note_off_c, 2, 50, 127
1, 472304, Note_off_c, 2, 62, 127
1, 472305, Note_on_c, 2, 62, 127
1, 472305, Note_on_c, 2, 50, 127
1, 472523, Note_off_c, 2, 50, 127
1, 472523, Note_off_c, 2, 62, 127
1, 472524, Note_on_c, 12, 47, 127
1, 472524, Note_on_c, 12, 59, 127
1, 472742, Note_off_c, 12, 59, 127
1, 472742, Note_off_c, 12, 47, 127
1, 472743, Note_on_c, 12, 59, 127
1, 472743, Note_on_c, 12, 47, 127
1, 472961, Note_off_c, 12, 47, 127
1, 472961, Note_off_c, 12, 59, 127
1, 472962, Note_on_c, 7, 43, 127
1, 472962, Note_on_c, 7, 55, 127
1, 473180, Note_off_c, 7, 55, 127
1, 473180, Note_off_c, 7, 43, 127
1, 473181, Note_on_c, 7, 43, 127
1, 473181, Note_on_c, 7, 55, 127
1, 473399, Note_off_c, 7, 55, 127
1, 473399, Note_off_c, 7, 43, 127
1, 473399, Note_off_c, 7, 67, 127
1, 473399, Note_off_c, 2, 74, 127
1, 473399, Note_off_c, 12, 71, 127
1, 473399, Note_off_c, 5, 77, 127
1, 473400, Note_on_c, 2, 74, 127
1, 473400, Note_on_c, 5, 77, 127
1, 473400, Note_on_c, 7, 67, 127
1, 473400, Note_on_c, 12, 71, 127
1, 473400, Note_on_c, 2, 50, 127
1, 473400, Note_on_c, 2, 62, 127
1, 473618, Note_off_c, 2, 62, 127
1, 473618, Note_off_c, 2, 50, 127
1, 473619, Note_on_c, 2, 62, 127
1, 473619, Note_on_c, 2, 50, 127
1, 473837, Note_off_c, 2, 50, 127
1, 473837, Note_off_c, 2, 62, 127
1, 473838, Note_on_c, 12, 47, 127
1, 473838, Note_on_c, 12, 59, 127
1, 474056, Note_off_c, 12, 59, 127
1, 474056, Note_off_c, 12, 47, 127
1, 474057, Note_on_c, 12, 59, 127
1, 474057, Note_on_c, 12, 47, 127
1, 474275, Note_off_c, 12, 47, 127
1, 474275, Note_off_c, 12, 59, 127
1, 474276, Note_on_c, 7, 55, 127
1, 474276, Note_on_c, 7, 43, 127
1, 474494, Note_off_c, 7, 43, 127
1, 474494, Note_off_c, 7, 55, 127
1, 474495, Note_on_c, 7, 55, 127
1, 474495, Note_on_c, 7, 43, 127
1, 474713, Note_off_c, 7, 43, 127
1, 474713, Note_off_c, 7, 55, 127
1, 474713, Note_off_c, 12, 71, 127
1, 474713, Note_off_c, 7, 67, 127
1, 474713, Note_off_c, 5, 77, 127
1, 474713, Note_off_c, 2, 74, 127
1, 474730, Note_on_c, 0, 48, 127
1, 474730, Note_on_c, 0, 60, 127
1, 474730, Note_on_c, 0, 72, 127
1, 474730, Note_on_c, 7, 67, 127
1, 474730, Note_on_c, 4, 76, 127
1, 475387, Note_off_c, 4, 76, 127
1, 475387, Note_off_c, 7, 67, 127
1, 475387, Note_off_c, 0, 72, 127
1, 475387, Note_off_c, 0, 48, 127
1, 475388, Note_on_c, 2, 50, 127
1, 475388, Note_on_c, 12, 71, 127
1, 475388, Note_on_c, 5, 65, 127
1, 475388, Note_on_c, 2, 74, 127
1, 475606, Note_off_c, 2, 74, 127
1, 475606, Note_off_c, 5, 65, 127
1, 475606, Note_off_c, 12, 71, 127
1, 475606, Note_off_c, 2, 50, 127
1, 475606, Note_off_c, 0, 60, 127
1, 475607, Note_on_c, 4, 52, 127
1, 475607, Note_on_c, 0, 60, 127
1, 475607, Note_on_c, 7, 67, 127
1, 475607, Note_on_c, 4, 64, 127
1, 475607, Note_on_c, 0, 72, 127
1, 476045, Note_off_c, 0, 72, 127
1, 476045, Note_off_c, 4, 64, 127
1, 476045, Note_off_c, 7, 67, 127
1, 476045, Note_off_c, 0, 60, 127
1, 476045, Note_off_c, 4, 52, 127
1, 476046, Note_on_c, 5, 53, 127
1, 476046, Note_on_c, 0, 60, 127
1, 476046, Note_on_c, 10, 69, 127
1, 476046, Note_on_c, 2, 62, 127
1, 476046, Note_on_c, 2, 74, 127
1, 476484, Note_off_c, 2, 74, 127
1, 476484, Note_off_c, 2, 62, 127
1, 476484, Note_off_c, 10, 69, 127
1, 476484, Note_off_c, 5, 53, 127
1, 476485, Note_on_c, 7, 55, 127
1, 476485, Note_on_c, 4, 64, 127
1, 476485, Note_on_c, 7, 67, 127
1, 476923, Note_off_c, 7, 67, 127
1, 476923, Note_off_c, 4, 64, 127
1, 476923, Note_off_c, 7, 55, 127
1, 476923, Note_off_c, 0, 60, 127
1, 476924, Note_on_c, 7, 43, 127
1, 476924, Note_on_c, 7, 55, 127
1, 476924, Note_on_c, 7, 67, 127
1, 476924, Note_on_c, 2, 62, 127
1, 476924, Note_on_c, 12, 71, 127
1, 477362, Note_off_c, 12, 71, 127
1, 477362, Note_off_c, 2, 62, 127
1, 477362, Note_off_c, 7, 67, 127
1, 477362, Note_off_c, 7, 55, 127
1, 477362, Note_off_c, 7, 43, 127
1, 477363, Note_on_c, 0, 36, 127
1, 477363, Note_on_c, 0, 72, 127
1, 477473, Note_off_c, 0, 36, 127
1, 477474, Note_on_c, 0, 48, 127
1, 477584, Note_off_c, 0, 48, 127
1, 477584, Note_off_c, 0, 72, 127
1, 477585, Note_on_c, 12, 47, 127
1, 477585, Note_on_c, 0, 72, 127
1, 477695, Note_off_c, 12, 47, 127
1, 477696, Note_on_c, 0, 48, 127
1, 477806, Note_off_c, 0, 48, 127
1, 477806, Note_off_c, 0, 72, 127
1, 477807, Note_on_c, 0, 36, 127
1, 477807, Note_on_c, 4, 64, 127
1, 477807, Note_on_c, 0, 60, 127
1, 477807, Note_on_c, 7, 67, 127
1, 477917, Note_off_c, 0, 36, 127
1, 477918, Note_on_c, 0, 48, 127
1, 478028, Note_off_c, 0, 48, 127
1, 478028, Note_off_c, 7, 67, 127
1, 478028, Note_off_c, 0, 60, 127
1, 478028, Note_off_c, 4, 64, 127
1, 478029, Note_on_c, 12, 47, 127
1, 478029, Note_on_c, 0, 60, 127
1, 478029, Note_on_c, 7, 67, 127
1, 478029, Note_on_c, 4, 64, 127
1, 478139, Note_off_c, 12, 47, 127
1, 478140, Note_on_c, 0, 48, 127
1, 478250, Note_off_c, 0, 48, 127
1, 478250, Note_off_c, 4, 64, 127
1, 478250, Note_off_c, 7, 67, 127
1, 478250, Note_off_c, 0, 60, 127
1, 478251, Note_on_c, 0, 36, 127
1, 478251, Note_on_c, 0, 60, 127
1, 478251, Note_on_c, 7, 55, 127
1, 478251, Note_on_c, 4, 64, 127
1, 478361, Note_off_c, 0, 36, 127
1, 478362, Note_on_c, 0, 48, 127
1, 478472, Note_off_c, 0, 48, 127
1, 478472, Note_off_c, 4, 64, 127
1, 478472, Note_off_c, 7, 55, 127
1, 478472, Note_off_c, 0, 60, 127
1, 478473, Note_on_c, 12, 47, 127
1, 478473, Note_on_c, 7, 55, 127
1, 478473, Note_on_c, 4, 64, 127
1, 478473, Note_on_c, 0, 60, 127
1, 478583, Note_off_c, 12, 47, 127
1, 478584, Note_on_c, 0, 48, 127
1, 478694, Note_off_c, 0, 48, 127
1, 478694, Note_off_c, 0, 60, 127
1, 478694, Note_off_c, 4, 64, 127
1, 478694, Note_off_c, 7, 55, 127
1, 478695, Note_on_c, 0, 36, 127
1, 478695, Note_on_c, 4, 76, 127
1, 478805, Note_off_c, 0, 36, 127
1, 478806, Note_on_c, 0, 48, 127
1, 478916, Note_off_c, 0, 48, 127
1, 478916, Note_off_c, 4, 76, 127
1, 478917, Note_on_c, 12, 47, 127
1, 478917, Note_on_c, 4, 76, 127
1, 479027, Note_off_c, 12, 47, 127
1, 479028, Note_on_c, 0, 48, 127
1, 479138, Note_off_c, 0, 48, 127
1, 479138, Note_off_c, 4, 76, 127
1, 479139, Note_on_c, 0, 36, 127
1, 479139, Note_on_c, 4, 64, 127
1, 479139, Note_on_c, 0, 72, 127
1, 479139, Note_on_c, 7, 67, 127
1, 479249, Note_off_c, 0, 36, 127
1, 479250, Note_on_c, 0, 48, 127
1, 479360, Note_off_c, 0, 48, 127
1, 479360, Note_off_c, 7, 67, 127
1, 479360, Note_off_c, 0, 72, 127
1, 479360, Note_off_c, 4, 64, 127
1, 479361, Note_on_c, 12, 47, 127
1, 479361, Note_on_c, 7, 67, 127
1, 479361, Note_on_c, 0, 72, 127
1, 479361, Note_on_c, 4, 64, 127
1, 479471, Note_off_c, 12, 47, 127
1, 479472, Note_on_c, 0, 48, 127
1, 479582, Note_off_c, 0, 48, 127
1, 479582, Note_off_c, 4, 64, 127
1, 479582, Note_off_c, 0, 72, 127
1, 479582, Note_off_c, 7, 67, 127
1, 479583, Note_on_c, 0, 36, 127
1, 479583, Note_on_c, 4, 64, 127
1, 479583, Note_on_c, 0, 60, 127
1, 479583, Note_on_c, 7, 67, 127
1, 479693, Note_off_c, 0, 36, 127
1, 479694, Note_on_c, 0, 48, 127
1, 479804, Note_off_c, 0, 48, 127
1, 479804, Note_off_c, 7, 67, 127
1, 479804, Note_off_c, 0, 60, 127
1, 479804, Note_off_c, 4, 64, 127
1, 479805, Note_on_c, 12, 47, 127
1, 479805, Note_on_c, 4, 64, 127
1, 479805, Note_on_c, 0, 60, 127
1, 479805, Note_on_c, 7, 67, 127
1, 479915, Note_off_c, 12, 47, 127
1, 479916, Note_on_c, 0, 48, 127
1, 480026, Note_off_c, 0, 48, 127
1, 480026, Note_off_c, 7, 67, 127
1, 480026, Note_off_c, 0, 60, 127
1, 480026, Note_off_c, 4, 64, 127
1, 480027, Note_on_c, 0, 36, 127
1, 480027, Note_on_c, 7, 79, 127
1, 480138, Note_off_c, 0, 36, 127
1, 480139, Note_on_c, 0, 48, 127
1, 480250, Note_off_c, 0, 48, 127
1, 480250, Note_off_c, 7, 79, 127
1, 480251, Note_on_c, 12, 47, 127
1, 480251, Note_on_c, 7, 79, 127
1, 480362, Note_off_c, 12, 47, 127
1, 480363, Note_on_c, 0, 48, 127
1, 480474, Note_off_c, 0, 48, 127
1, 480474, Note_off_c, 7, 79, 127
1, 480475, Note_on_c, 0, 36, 127
1, 480475, Note_on_c, 0, 72, 127
1, 480475, Note_on_c, 7, 67, 127
1, 480475, Note_on_c, 4, 76, 127
1, 480586, Note_off_c, 0, 36, 127
1, 480587, Note_on_c, 0, 48, 127
1, 480698, Note_off_c, 0, 48, 127
1, 480698, Note_off_c, 4, 76, 127
1, 480698, Note_off_c, 7, 67, 127
1, 480698, Note_off_c, 0, 72, 127
1, 480699, Note_on_c, 12, 47, 127
1, 480699, Note_on_c, 0, 72, 127
1, 480699, Note_on_c, 7, 67, 127
1, 480699, Note_on_c, 4, 76, 127
1, 480810, Note_off_c, 12, 47, 127
1, 480811, Note_on_c, 0, 48, 127
1, 480922, Note_off_c, 0, 48, 127
1, 480922, Note_off_c, 4, 76, 127
1, 480922, Note_off_c, 7, 67, 127
1, 480922, Note_off_c, 0, 72, 127
1, 480923, Note_on_c, 0, 36, 127
1, 480923, Note_on_c, 0, 72, 127
1, 480923, Note_on_c, 7, 67, 127
1, 480923, Note_on_c, 4, 64, 127
1, 481034, Note_off_c, 0, 36, 127
1, 481035, Note_on_c, 0, 48, 127
1, 481146, Note_off_c, 0, 48, 127
1, 481146, Note_off_c, 4, 64, 127
1, 481146, Note_off_c, 7, 67, 127
1, 481146, Note_off_c, 0, 72, 127
1, 481147, Note_on_c, 12, 47, 127
1, 481147, Note_on_c, 4, 64, 127
1, 481147, Note_on_c, 0, 72, 127
1, 481147, Note_on_c, 7, 67, 127
1, 481258, Note_off_c, 12, 47, 127
1, 481259, Note_on_c, 0, 48, 127
1, 481370, Note_off_c, 0, 48, 127
1, 481370, Note_off_c, 7, 67, 127
1, 481370, Note_off_c, 0, 72, 127
1, 481370, Note_off_c, 4, 64, 127
1, 481371, Note_on_c, 0, 36, 127
1, 481371, Note_on_c, 4, 76, 127
1, 481482, Note_off_c, 0, 36, 127
1, 481483, Note_on_c, 0, 48, 127
1, 481594, Note_off_c, 0, 48, 127
1, 481594, Note_off_c, 4, 76, 127
1, 481595, Note_on_c, 12, 47, 127
1, 481595, Note_on_c, 4, 76, 127
1, 481706, Note_off_c, 12, 47, 127
1, 481707, Note_on_c, 0, 48, 127
1, 481818, Note_off_c, 0, 48, 127
1, 481818, Note_off_c, 4, 76, 127
1, 481819, Note_on_c, 0, 36, 127
1, 481819, Note_on_c, 7, 67, 127
1, 481819, Note_on_c, 4, 64, 127
1, 481819, Note_on_c, 0, 72, 127
1, 481930, Note_off_c, 0, 36, 127
1, 481931, Note_on_c, 0, 48, 127
1, 482042, Note_off_c, 0, 48, 127
1, 482042, Note_off_c, 0, 72, 127
1, 482042, Note_off_c, 4, 64, 127
1, 482042, Note_off_c, 7, 67, 127
1, 482043, Note_on_c, 12, 47, 127
1, 482043, Note_on_c, 4, 64, 127
1, 482043, Note_on_c, 0, 72, 127
1, 482043, Note_on_c, 7, 67, 127
1, 482154, Note_off_c, 12, 47, 127
1, 482155, Note_on_c, 0, 48, 127
1, 482266, Note_off_c, 0, 48, 127
1, 482266, Note_off_c, 7, 67, 127
1, 482266, Note_off_c, 0, 72, 127
1, 482266, Note_off_c, 4, 64, 127
1, 482267, Note_on_c, 0, 36, 127
1, 482267, Note_on_c, 4, 64, 127
1, 482267, Note_on_c, 0, 60, 127
1, 482267, Note_on_c, 7, 67, 127
1, 482378, Note_off_c, 0, 36, 127
1, 482379, Note_on_c, 0, 48, 127
1, 482490, Note_off_c, 0, 48, 127
1, 482490, Note_off_c, 7, 67, 127
1, 482490, Note_off_c, 0, 60, 127
1, 482490, Note_off_c, 4, 64, 127
1, 482491, Note_on_c, 12, 47, 127
1, 482491, Note_on_c, 4, 64, 127
1, 482491, Note_on_c, 7, 67, 127
1, 482491, Note_on_c, 0, 60, 127
1, 482602, Note_off_c, 12, 47, 127
1, 482603, Note_on_c, 0, 48, 127
1, 482714, Note_off_c, 0, 48, 127
1, 482714, Note_off_c, 0, 60, 127
1, 482714, Note_off_c, 7, 67, 127
1, 482714, Note_off_c, 4, 64, 127
1, 482715, Note_on_c, 0, 36, 127
1, 482715, Note_on_c, 0, 72, 127
1, 482827, Note_off_c, 0, 36, 127
1, 482828, Note_on_c, 0, 48, 127
1, 482940, Note_off_c, 0, 48, 127
1, 482940, Note_off_c, 0, 72, 127
1, 482941, Note_on_c, 12, 47, 127
1, 482941, Note_on_c, 0, 72, 127
1, 483053, Note_off_c, 12, 47, 127
1, 483054, Note_on_c, 0, 48, 127
1, 483166, Note_off_c, 0, 48, 127
1, 483166, Note_off_c, 0, 72, 127
1, 483167, Note_on_c, 0, 36, 127
1, 483167, Note_on_c, 0, 60, 127
1, 483167, Note_on_c, 4, 64, 127
1, 483167, Note_on_c, 7, 67, 127
1, 483279, Note_off_c, 0, 36, 127
1, 483280, Note_on_c, 0, 48, 127
1, 483392, Note_off_c, 0, 48, 127
1, 483392, Note_off_c, 7, 67, 127
1, 483392, Note_off_c, 4, 64, 127
1, 483392, Note_off_c, 0, 60, 127
1, 483393, Note_on_c, 12, 47, 127
1, 483393, Note_on_c, 0, 60, 127
1, 483393, Note_on_c, 7, 67, 127
1, 483393, Note_on_c, 4, 64, 127
1, 483505, Note_off_c, 12, 47, 127
1, 483506, Note_on_c, 0, 48, 127
1, 483618, Note_off_c, 0, 48, 127
1, 483618, Note_off_c, 4, 64, 127
1, 483618, Note_off_c, 7, 67, 127
1, 483618, Note_off_c, 0, 60, 127
1, 483619, Note_on_c, 0, 36, 127
1, 483619, Note_on_c, 7, 55, 127
1, 483619, Note_on_c, 4, 64, 127
1, 483619, Note_on_c, 0, 60, 127
1, 483731, Note_off_c, 0, 36, 127
1, 483732, Note_on_c, 0, 48, 127
1, 483844, Note_off_c, 0, 48, 127
1, 483844, Note_off_c, 0, 60, 127
1, 483844, Note_off_c, 4, 64, 127
1, 483844, Note_off_c, 7, 55, 127
1, 483845, Note_on_c, 12, 47, 127
1, 483845, Note_on_c, 0, 60, 127
1, 483845, Note_on_c, 7, 55, 127
1, 483845, Note_on_c, 4, 64, 127
1, 483957, Note_off_c, 12, 47, 127
1, 483958, Note_on_c, 0, 48, 127
1, 484070, Note_off_c, 0, 48, 127
1, 484070, Note_off_c, 4, 64, 127
1, 484070, Note_off_c, 7, 55, 127
1, 484070, Note_off_c, 0, 60, 127
1, 484071, Note_on_c, 0, 36, 127
1, 484071, Note_on_c, 7, 55, 127
1, 484071, Note_on_c, 4, 52, 127
1, 484071, Note_on_c, 0, 60, 127
1, 484522, Note_off_c, 0, 60, 127
1, 484522, Note_off_c, 4, 52, 127
1, 484522, Note_off_c, 7, 55, 127
1, 484522, Note_off_c, 0, 36, 127
1, 484539, Note_on_c, 0, 72, 127
1, 484539, Note_on_c, 4, 76, 127
1, 484539, Note_on_c, 7, 67, 127
1, 484539, Note_on_c, 0, 60, 127
1, 484539, Note_on_c, 0, 48, 127
1, 484539, Note_on_c, 4, 52, 127
1, 484539, Note_on_c, 7, 55, 127
1, 485215, Note_off_c, 7, 55, 127
1, 485215, Note_off_c, 4, 52, 127
1, 485215, Note_off_c, 0, 48, 127
1, 485215, Note_off_c, 0, 60, 127
1, 485215, Note_off_c, 7, 67, 127
1, 485215, Note_off_c, 4, 76, 127
1, 485215, Note_off_c, 0, 72, 127
1, 485329, Note_on_c, 0, 72, 127
1, 485329, Note_on_c, 4, 76, 127
1, 485329, Note_on_c, 7, 67, 127
1, 485329, Note_on_c, 4, 52, 127
1, 485329, Note_on_c, 0, 60, 127
1, 485329, Note_on_c, 7, 55, 127
1, 485329, Note_on_c, 0, 48, 127
1, 485441, Note_off_c, 0, 48, 127
1, 485441, Note_off_c, 7, 55, 127
1, 485441, Note_off_c, 0, 60, 127
1, 485441, Note_off_c, 4, 52, 127
1, 485441, Note_off_c, 7, 67, 127
1, 485441, Note_off_c, 4, 76, 127
1, 485441, Note_off_c, 0, 72, 127
1, 485442, Note_on_c, 10, 69, 127
1, 485442, Note_on_c, 0, 72, 127
1, 485442, Note_on_c, 2, 74, 127
1, 485442, Note_on_c, 10, 57, 127
1, 485442, Note_on_c, 2, 62, 127
1, 485442, Note_on_c, 5, 53, 127
1, 485897, Note_off_c, 5, 53, 127
1, 485897, Note_off_c, 2, 62, 127
1, 485897, Note_off_c, 10, 57, 127
1, 485897, Note_off_c, 2, 74, 127
1, 485897, Note_off_c, 0, 72, 127
1, 485897, Note_off_c, 10, 69, 127
1, 485898, Note_on_c, 2, 74, 127
1, 485898, Note_on_c, 12, 71, 127
1, 485898, Note_on_c, 7, 67, 127
1, 485898, Note_on_c, 2, 62, 127
1, 485898, Note_on_c, 7, 55, 127
1, 486581, Note_off_c, 7, 55, 127
1, 486581, Note_off_c, 2, 62, 127
1, 486581, Note_off_c, 7, 67, 127
1, 486581, Note_off_c, 12, 71, 127
1, 486581, Note_off_c, 2, 74, 127
1, 486696, Note_on_c, 2, 74, 127
1, 486696, Note_on_c, 12, 71, 127
1, 486696, Note_on_c, 7, 67, 127
1, 486696, Note_on_c, 2, 50, 127
1, 486696, Note_on_c, 7, 55, 127
1, 486696, Note_on_c, 7, 43, 127
1, 486809, Note_off_c, 7, 43, 127
1, 486809, Note_off_c, 7, 55, 127
1, 486809, Note_off_c, 2, 50, 127
1, 486809, Note_off_c, 7, 67, 127
1, 486809, Note_off_c, 12, 71, 127
1, 486809, Note_off_c, 2, 74, 127
1, 486810, Note_on_c, 4, 76, 127
1, 486810, Note_on_c, 7, 67, 127
1, 486810, Note_on_c, 0, 72, 127
1, 486810, Note_on_c, 7, 55, 127
1, 486810, Note_on_c, 0, 48, 127
1, 487265, Note_off_c, 0, 48, 127
1, 487265, Note_off_c, 7, 55, 127
1, 487265, Note_off_c, 0, 72, 127
1, 487265, Note_off_c, 7, 67, 127
1, 487265, Note_off_c, 4, 76, 127
1, 487266, Note_on_c, 4, 64, 127
1, 487266, Note_on_c, 0, 60, 127
1, 487266, Note_on_c, 0, 48, 127
1, 487266, Note_on_c, 0, 36, 127
1, 487266, Note_on_c, 7, 43, 127
1, 487985, Note_off_c, 7, 43, 127
1, 487985, Note_off_c, 0, 36, 127
1, 487985, Note_off_c, 0, 48, 127
1, 487985, Note_off_c, 0, 60, 127
1, 487985, Note_off_c, 4, 64, 127
1, 488106, Note_on_c, 4, 64, 127
1, 488106, Note_on_c, 0, 60, 127
1, 488106, Note_on_c, 0, 36, 127
1, 488106, Note_on_c, 7, 43, 127
1, 488106, Note_on_c, 0, 48, 127
1, 488225, Note_off_c, 0, 48, 127
1, 488225, Note_off_c, 7, 43, 127
1, 488225, Note_off_c, 0, 36, 127
1, 488225, Note_off_c, 0, 60, 127
1, 488225, Note_off_c, 4, 64, 127
1, 488226, Note_on_c, 2, 62, 127
1, 488226, Note_on_c, 10, 57, 127
1, 488226, Note_on_c, 0, 60, 127
1, 488226, Note_on_c, 5, 41, 127
1, 488226, Note_on_c, 2, 50, 127
1, 488226, Note_on_c, 5, 53, 127
1, 488705, Note_off_c, 5, 53, 127
1, 488705, Note_off_c, 2, 50, 127
1, 488705, Note_off_c, 5, 41, 127
1, 488705, Note_off_c, 0, 60, 127
1, 488705, Note_off_c, 10, 57, 127
1, 488705, Note_off_c, 2, 62, 127
1, 488706, Note_on_c, 2, 62, 127
1, 488706, Note_on_c, 7, 55, 127
1, 488706, Note_on_c, 12, 59, 127
1, 488706, Note_on_c, 2, 50, 127
1, 488706, Note_on_c, 7, 43, 127
1, 489473, Note_off_c, 7, 43, 127
1, 489473, Note_off_c, 2, 50, 127
1, 489473, Note_off_c, 12, 59, 127
1, 489473, Note_off_c, 7, 55, 127
1, 489473, Note_off_c, 2, 62, 127
1, 489602, Note_on_c, 12, 59, 127
1, 489602, Note_on_c, 2, 62, 127
1, 489602, Note_on_c, 7, 55, 127
1, 489602, Note_on_c, 2, 50, 127
1, 489602, Note_on_c, 5, 53, 127
1, 489602, Note_on_c, 7, 43, 127
1, 489729, Note_off_c, 7, 43, 127
1, 489729, Note_off_c, 5, 53, 127
1, 489729, Note_off_c, 2, 50, 127
1, 489729, Note_off_c, 7, 55, 127
1, 489729, Note_off_c, 2, 62, 127
1, 489729, Note_off_c, 12, 59, 127
1, 489730, Note_on_c, 0, 60, 127
1, 489730, Note_on_c, 7, 55, 127
1, 489730, Note_on_c, 4, 52, 127
1, 489730, Note_on_c, 0, 48, 127
1, 489730, Note_on_c, 0, 36, 127
1, 491930, Note_off_c, 0, 36, 127
1, 491930, Note_off_c, 0, 48, 127
1, 491930, Note_off_c, 4, 52, 127
1, 491930, Note_off_c, 7, 55, 127
1, 491930, Note_off_c, 0, 60, 127
1, 497664, End_track
0, 0, End_of_file
