0, 0, Header, 0, 1, 384
1, 0, Start_track
1, 0, Copyright_t, "(C) John Sankey 1998"
1, 0, Program_c, 0, 6
1, 0, Pitch_bend_c, 0, 8192
1, 0, Program_c, 1, 6
1, 0, Pitch_bend_c, 1, 7792
1, 0, Program_c, 2, 6
1, 0, Pitch_bend_c, 2, 7876
1, 0, Program_c, 3, 6
1, 0, Pitch_bend_c, 3, 7952
1, 0, Program_c, 4, 6
1, 0, Pitch_bend_c, 4, 7792
1, 0, Program_c, 5, 6
1, 0, Pitch_bend_c, 5, 8112
1, 0, Program_c, 6, 6
1, 0, Pitch_bend_c, 6, 7712
1, 0, Program_c, 7, 6
1, 0, Pitch_bend_c, 7, 8037
1, 0, Program_c, 8, 6
1, 0, Pitch_bend_c, 8, 7872
1, 0, Program_c, 10, 6
1, 0, Pitch_bend_c, 10, 7712
1, 0, Program_c, 11, 6
1, 0, Pitch_bend_c, 11, 8032
1, 0, Program_c, 12, 6
1, 0, Pitch_bend_c, 12, 7872
1, 0, Tempo, 500000
1, 85, Note_on_c, 7, 79, 127
1, 389, Note_on_c, 11, 82, 127
1, 472, Note_off_c, 11, 82, 127
1, 475, Note_on_c, 10, 81, 127
1, 502, Note_off_c, 7, 79, 127
1, 558, Note_off_c, 10, 81, 127
1, 561, Note_on_c, 7, 79, 127
1, 644, Note_off_c, 7, 79, 127
1, 647, Note_on_c, 6, 78, 127
1, 730, Note_off_c, 6, 78, 127
1, 733, Note_on_c, 10, 81, 127
1, 816, Note_off_c, 10, 81, 127
1, 819, Note_on_c, 2, 74, 127
1, 902, Note_off_c, 2, 74, 127
1, 905, Note_on_c, 0, 72, 127
1, 988, Note_off_c, 0, 72, 127
1, 991, Note_on_c, 2, 74, 127
1, 1074, Note_off_c, 2, 74, 127
1, 1077, Note_on_c, 10, 69, 127
1, 1160, Note_off_c, 10, 69, 127
1, 1163, Note_on_c, 11, 70, 127
1, 1246, Note_off_c, 11, 70, 127
1, 1249, Note_on_c, 2, 74, 127
1, 1332, Note_off_c, 2, 74, 127
1, 1335, Note_on_c, 7, 67, 127
1, 1676, Note_on_c, 11, 70, 127
1, 1759, Note_off_c, 11, 70, 127
1, 1762, Note_on_c, 10, 69, 127
1, 1837, Note_off_c, 7, 67, 127
1, 1845, Note_off_c, 10, 69, 127
1, 1848, Note_on_c, 7, 67, 127
1, 1931, Note_off_c, 7, 67, 127
1, 1934, Note_on_c, 6, 66, 127
1, 2017, Note_off_c, 6, 66, 127
1, 2020, Note_on_c, 10, 69, 127
1, 2103, Note_off_c, 10, 69, 127
1, 2106, Note_on_c, 2, 62, 127
1, 2189, Note_off_c, 2, 62, 127
1, 2192, Note_on_c, 0, 60, 127
1, 2275, Note_off_c, 0, 60, 127
1, 2278, Note_on_c, 2, 62, 127
1, 2361, Note_off_c, 2, 62, 127
1, 2364, Note_on_c, 10, 57, 127
1, 2447, Note_off_c, 10, 57, 127
1, 2450, Note_on_c, 11, 58, 127
1, 2533, Note_off_c, 11, 58, 127
1, 2536, Note_on_c, 2, 62, 127
1, 2619, Note_off_c, 2, 62, 127
1, 2622, Note_on_c, 7, 55, 127
1, 2878, Note_on_c, 11, 58, 127
1, 2961, Note_off_c, 11, 58, 127
1, 2964, Note_on_c, 10, 57, 127
1, 3039, Note_off_c, 7, 55, 127
1, 3047, Note_off_c, 10, 57, 127
1, 3050, Note_on_c, 7, 55, 127
1, 3133, Note_off_c, 7, 55, 127
1, 3136, Note_on_c, 6, 54, 127
1, 3219, Note_off_c, 6, 54, 127
1, 3222, Note_on_c, 10, 57, 127
1, 3305, Note_off_c, 10, 57, 127
1, 3308, Note_on_c, 2, 50, 127
1, 3391, Note_off_c, 2, 50, 127
1, 3394, Note_on_c, 0, 48, 127
1, 3477, Note_off_c, 0, 48, 127
1, 3480, Note_on_c, 2, 50, 127
1, 3563, Note_off_c, 2, 50, 127
1, 3566, Note_on_c, 10, 45, 127
1, 3649, Note_off_c, 10, 45, 127
1, 3652, Note_on_c, 11, 46, 127
1, 3735, Note_off_c, 11, 46, 127
1, 3738, Note_on_c, 2, 50, 127
1, 3821, Note_off_c, 2, 50, 127
1, 3824, Note_on_c, 7, 43, 127
1, 4203, Note_off_c, 7, 43, 127
1, 4291, Note_on_c, 11, 46, 127
1, 4416, Note_off_c, 11, 46, 127
1, 4419, Note_on_c, 10, 45, 127
1, 4544, Note_off_c, 10, 45, 127
1, 4547, Note_on_c, 7, 43, 127
1, 4672, Note_off_c, 7, 43, 127
1, 4675, Note_on_c, 6, 42, 127
1, 4800, Note_off_c, 6, 42, 127
1, 4803, Note_on_c, 10, 45, 127
1, 4928, Note_off_c, 10, 45, 127
1, 4931, Note_on_c, 2, 38, 127
1, 5080, Note_on_c, 3, 51, 127
1, 5123, Note_off_c, 2, 38, 127
1, 5206, Note_off_c, 3, 51, 127
1, 5209, Note_on_c, 2, 50, 127
1, 5334, Note_off_c, 2, 50, 127
1, 5337, Note_on_c, 0, 48, 127
1, 5462, Note_off_c, 0, 48, 127
1, 5465, Note_on_c, 11, 46, 127
1, 5590, Note_off_c, 11, 46, 127
1, 5593, Note_on_c, 2, 50, 127
1, 5718, Note_off_c, 2, 50, 127
1, 5721, Note_on_c, 7, 43, 127
1, 5885, Note_on_c, 11, 58, 127
1, 5913, Note_off_c, 7, 43, 127
1, 6010, Note_off_c, 11, 58, 127
1, 6020, Note_on_c, 10, 57, 127
1, 6145, Note_off_c, 10, 57, 127
1, 6148, Note_on_c, 7, 55, 127
1, 6273, Note_off_c, 7, 55, 127
1, 6276, Note_on_c, 6, 54, 127
1, 6401, Note_off_c, 6, 54, 127
1, 6404, Note_on_c, 10, 57, 127
1, 6529, Note_off_c, 10, 57, 127
1, 6532, Note_on_c, 2, 50, 127
1, 6660, Note_on_c, 3, 63, 127
1, 6724, Note_off_c, 2, 50, 127
1, 6785, Note_off_c, 3, 63, 127
1, 6788, Note_on_c, 2, 62, 127
1, 6913, Note_off_c, 2, 62, 127
1, 6916, Note_on_c, 0, 60, 127
1, 7041, Note_off_c, 0, 60, 127
1, 7044, Note_on_c, 12, 59, 127
1, 7169, Note_off_c, 12, 59, 127
1, 7172, Note_on_c, 2, 62, 127
1, 7300, Note_on_c, 7, 55, 127
1, 7337, Note_off_c, 2, 62, 127
1, 7460, Note_off_c, 7, 55, 127
1, 7462, Note_on_c, 8, 56, 127
1, 7587, Note_off_c, 8, 56, 127
1, 7599, Note_on_c, 7, 55, 127
1, 7724, Note_off_c, 7, 55, 127
1, 7727, Note_on_c, 5, 53, 127
1, 7852, Note_off_c, 5, 53, 127
1, 7855, Note_on_c, 3, 51, 127
1, 7980, Note_off_c, 3, 51, 127
1, 7983, Note_on_c, 7, 55, 127
1, 8108, Note_off_c, 7, 55, 127
1, 8111, Note_on_c, 0, 48, 127
1, 8256, Note_on_c, 11, 58, 127
1, 8303, Note_off_c, 0, 48, 127
1, 8382, Note_off_c, 11, 58, 127
1, 8389, Note_on_c, 10, 57, 127
1, 8514, Note_off_c, 10, 57, 127
1, 8517, Note_on_c, 7, 55, 127
1, 8642, Note_off_c, 7, 55, 127
1, 8645, Note_on_c, 6, 54, 127
1, 8770, Note_off_c, 6, 54, 127
1, 8773, Note_on_c, 10, 57, 127
1, 8898, Note_off_c, 10, 57, 127
1, 8901, Note_on_c, 2, 50, 127
1, 9041, Note_off_c, 2, 50, 127
1, 9050, Note_on_c, 3, 51, 127
1, 9175, Note_off_c, 3, 51, 127
1, 9178, Note_on_c, 2, 50, 127
1, 9303, Note_off_c, 2, 50, 127
1, 9306, Note_on_c, 0, 48, 127
1, 9431, Note_off_c, 0, 48, 127
1, 9434, Note_on_c, 11, 46, 127
1, 9559, Note_off_c, 11, 46, 127
1, 9562, Note_on_c, 2, 50, 127
1, 9687, Note_off_c, 2, 50, 127
1, 9690, Note_on_c, 7, 43, 127
1, 9854, Note_off_c, 7, 43, 127
1, 9867, Note_on_c, 3, 51, 127
1, 9999, Note_off_c, 3, 51, 127
1, 10010, Note_on_c, 2, 50, 127
1, 10135, Note_off_c, 2, 50, 127
1, 10138, Note_on_c, 0, 48, 127
1, 10263, Note_off_c, 0, 48, 127
1, 10266, Note_on_c, 11, 46, 127
1, 10391, Note_off_c, 11, 46, 127
1, 10394, Note_on_c, 2, 50, 127
1, 10519, Note_off_c, 2, 50, 127
1, 10522, Note_on_c, 7, 43, 127
1, 10681, Note_off_c, 7, 43, 127
1, 10702, Note_on_c, 3, 51, 127
1, 10839, Note_off_c, 3, 51, 127
1, 10847, Note_on_c, 2, 50, 127
1, 10984, Note_off_c, 2, 50, 127
1, 10992, Note_on_c, 0, 48, 127
1, 11129, Note_off_c, 0, 48, 127
1, 11137, Note_on_c, 11, 46, 127
1, 11274, Note_off_c, 11, 46, 127
1, 11282, Note_on_c, 2, 50, 127
1, 11411, Note_off_c, 2, 50, 127
1, 11430, Note_on_c, 7, 43, 127
1, 11618, Note_off_c, 7, 43, 127
1, 11657, Note_on_c, 10, 45, 127
1, 11866, Note_off_c, 10, 45, 127
1, 11898, Note_on_c, 0, 48, 127
1, 12107, Note_off_c, 0, 48, 127
1, 12131, Note_on_c, 6, 42, 127
1, 12340, Note_off_c, 6, 42, 127
1, 12357, Note_on_c, 7, 43, 127
1, 12429, Note_on_c, 0, 60, 127
1, 12433, Note_on_c, 3, 63, 127
1, 12437, Note_on_c, 7, 67, 127
1, 12441, Note_on_c, 0, 72, 127
1, 13126, Note_on_c, 6, 66, 127
1, 13131, Note_off_c, 0, 72, 127
1, 13136, Note_off_c, 7, 67, 127
1, 13270, Note_off_c, 0, 60, 127
1, 13274, Note_off_c, 3, 63, 127
1, 13276, Note_off_c, 6, 66, 127
1, 13280, Note_on_c, 7, 67, 127
1, 13280, Note_on_c, 7, 55, 127
1, 13280, Note_on_c, 0, 60, 127
1, 13280, Note_on_c, 10, 57, 127
1, 13664, Note_off_c, 7, 67, 127
1, 13664, Note_on_c, 6, 66, 127
1, 13738, Note_off_c, 0, 60, 127
1, 13740, Note_off_c, 6, 66, 127
1, 13740, Note_on_c, 7, 67, 127
1, 13740, Note_on_c, 3, 63, 127
1, 13817, Note_off_c, 7, 67, 127
1, 13817, Note_on_c, 6, 66, 127
1, 13894, Note_off_c, 6, 66, 127
1, 13894, Note_on_c, 7, 67, 127
1, 13971, Note_off_c, 7, 67, 127
1, 13971, Note_on_c, 6, 66, 127
1, 14048, Note_off_c, 6, 66, 127
1, 14048, Note_on_c, 7, 67, 127
1, 14101, Note_on_c, 6, 66, 127
1, 14114, Note_off_c, 7, 67, 127
1, 14199, Note_off_c, 3, 63, 127
1, 14201, Note_on_c, 2, 62, 127
1, 14646, Note_off_c, 6, 66, 127
1, 14659, Note_off_c, 2, 62, 127
1, 14659, Note_off_c, 10, 57, 127
1, 14661, Note_on_c, 10, 57, 127
1, 14662, Note_on_c, 0, 60, 127
1, 14663, Note_on_c, 6, 66, 127
1, 15117, Note_off_c, 7, 55, 127
1, 15117, Note_off_c, 7, 43, 127
1, 15119, Note_off_c, 6, 66, 127
1, 15119, Note_off_c, 0, 60, 127
1, 15119, Note_off_c, 10, 57, 127
1, 15121, Note_on_c, 7, 43, 127
1, 15122, Note_on_c, 11, 58, 127
1, 15122, Note_on_c, 7, 55, 127
1, 15123, Note_on_c, 7, 67, 127
1, 15123, Note_on_c, 2, 62, 127
1, 16503, Note_off_c, 7, 67, 127
1, 16503, Note_on_c, 5, 65, 127
1, 16959, Note_off_c, 7, 43, 127
1, 16960, Note_off_c, 7, 55, 127
1, 16960, Note_off_c, 11, 58, 127
1, 16961, Note_off_c, 5, 65, 127
1, 16961, Note_off_c, 2, 62, 127
1, 16963, Note_on_c, 4, 64, 127
1, 17191, Note_off_c, 4, 64, 127
1, 17193, Note_on_c, 7, 67, 127
1, 17421, Note_off_c, 7, 67, 127
1, 17423, Note_on_c, 6, 66, 127
1, 17651, Note_off_c, 6, 66, 127
1, 17653, Note_on_c, 10, 69, 127
1, 17766, Note_off_c, 10, 69, 127
1, 17768, Note_on_c, 7, 67, 127
1, 17881, Note_off_c, 7, 67, 127
1, 17883, Note_on_c, 7, 67, 127
1, 17883, Note_on_c, 7, 43, 127
1, 17883, Note_on_c, 11, 58, 127
1, 17883, Note_on_c, 4, 52, 127
1, 17941, Note_off_c, 7, 67, 127
1, 17941, Note_on_c, 6, 66, 127
1, 17999, Note_off_c, 6, 66, 127
1, 17999, Note_on_c, 7, 67, 127
1, 18689, Note_off_c, 7, 67, 127
1, 18690, Note_on_c, 5, 65, 127
1, 18798, Note_off_c, 5, 65, 127
1, 18803, Note_off_c, 4, 52, 127
1, 18805, Note_on_c, 5, 65, 127
1, 18805, Note_on_c, 7, 55, 127
1, 18978, Note_off_c, 5, 65, 127
1, 18978, Note_on_c, 4, 64, 127
1, 19036, Note_off_c, 4, 64, 127
1, 19036, Note_on_c, 5, 65, 127
1, 19094, Note_off_c, 5, 65, 127
1, 19094, Note_on_c, 4, 64, 127
1, 19152, Note_off_c, 4, 64, 127
1, 19152, Note_on_c, 5, 65, 127
1, 19210, Note_off_c, 5, 65, 127
1, 19210, Note_on_c, 4, 64, 127
1, 19726, Note_off_c, 7, 55, 127
1, 19728, Note_on_c, 5, 53, 127
1, 20184, Note_off_c, 4, 64, 127
1, 20189, Note_off_c, 11, 58, 127
1, 20189, Note_on_c, 2, 62, 127
1, 20645, Note_off_c, 7, 43, 127
1, 20647, Note_off_c, 2, 62, 127
1, 20648, Note_off_c, 5, 53, 127
1, 20649, Note_on_c, 1, 61, 127
1, 20649, Note_on_c, 10, 57, 127
1, 20649, Note_on_c, 7, 43, 127
1, 20649, Note_on_c, 4, 52, 127
1, 20707, Note_off_c, 1, 61, 127
1, 20714, Note_on_c, 12, 59, 127
1, 20772, Note_off_c, 12, 59, 127
1, 20779, Note_on_c, 1, 61, 127
1, 21787, Note_off_c, 1, 61, 127
1, 21801, Note_on_c, 2, 62, 127
1, 22029, Note_off_c, 2, 62, 127
1, 22031, Note_on_c, 1, 61, 127
1, 22259, Note_off_c, 1, 61, 127
1, 22261, Note_on_c, 12, 59, 127
1, 22487, Note_off_c, 4, 52, 127
1, 22487, Note_off_c, 7, 43, 127
1, 22487, Note_off_c, 10, 57, 127
1, 22489, Note_off_c, 12, 59, 127
1, 22491, Note_on_c, 10, 57, 127
1, 22949, Note_off_c, 10, 57, 127
1, 22951, Note_on_c, 12, 59, 127
1, 23064, Note_off_c, 12, 59, 127
1, 23066, Note_on_c, 1, 61, 127
1, 23179, Note_off_c, 1, 61, 127
1, 23181, Note_on_c, 2, 62, 127
1, 23294, Note_off_c, 2, 62, 127
1, 23296, Note_on_c, 4, 64, 127
1, 23409, Note_off_c, 4, 64, 127
1, 23411, Note_on_c, 5, 65, 127
1, 23411, Note_on_c, 10, 57, 127
1, 23411, Note_on_c, 2, 50, 127
1, 23411, Note_on_c, 5, 41, 127
1, 23639, Note_off_c, 5, 65, 127
1, 23641, Note_on_c, 10, 69, 127
1, 23869, Note_off_c, 10, 69, 127
1, 23871, Note_on_c, 5, 65, 127
1, 24099, Note_off_c, 5, 65, 127
1, 24101, Note_on_c, 3, 63, 127
1, 24329, Note_off_c, 3, 63, 127
1, 24330, Note_off_c, 2, 50, 127
1, 24330, Note_off_c, 10, 57, 127
1, 24331, Note_on_c, 5, 53, 127
1, 24331, Note_on_c, 2, 62, 127
1, 24331, Note_on_c, 8, 56, 127
1, 25001, Note_off_c, 2, 62, 127
1, 25023, Note_on_c, 5, 65, 127
1, 25251, Note_off_c, 5, 65, 127
1, 25252, Note_off_c, 5, 53, 127
1, 25253, Note_on_c, 2, 62, 127
1, 25253, Note_on_c, 3, 51, 127
1, 25481, Note_off_c, 2, 62, 127
1, 25483, Note_on_c, 0, 60, 127
1, 25711, Note_off_c, 0, 60, 127
1, 25713, Note_on_c, 12, 59, 127
1, 25941, Note_off_c, 12, 59, 127
1, 25943, Note_on_c, 0, 60, 127
1, 26169, Note_off_c, 8, 56, 127
1, 26169, Note_off_c, 5, 41, 127
1, 26171, Note_off_c, 0, 60, 127
1, 26172, Note_off_c, 3, 51, 127
1, 26173, Note_on_c, 0, 60, 127
1, 26173, Note_on_c, 5, 41, 127
1, 26173, Note_on_c, 2, 50, 127
1, 26173, Note_on_c, 7, 55, 127
1, 26401, Note_off_c, 0, 60, 127
1, 26403, Note_on_c, 12, 59, 127
1, 26475, Note_on_c, 0, 60, 127
1, 26479, Note_off_c, 12, 59, 127
1, 26547, Note_on_c, 12, 59, 127
1, 26551, Note_off_c, 0, 60, 127
1, 26619, Note_on_c, 0, 60, 127
1, 26623, Note_off_c, 12, 59, 127
1, 26691, Note_on_c, 12, 59, 127
1, 26695, Note_off_c, 0, 60, 127
1, 26763, Note_on_c, 0, 60, 127
1, 26767, Note_off_c, 12, 59, 127
1, 26835, Note_on_c, 12, 59, 127
1, 26839, Note_off_c, 0, 60, 127
1, 27411, Note_off_c, 12, 59, 127
1, 27555, Note_on_c, 7, 67, 127
1, 27889, Note_off_c, 7, 55, 127
1, 28011, Note_off_c, 2, 50, 127
1, 28011, Note_off_c, 5, 41, 127
1, 28013, Note_off_c, 7, 67, 127
1, 28015, Note_on_c, 10, 69, 127
1, 28073, Note_off_c, 10, 69, 127
1, 28073, Note_on_c, 7, 67, 127
1, 28131, Note_off_c, 7, 67, 127
1, 28131, Note_on_c, 10, 69, 127
1, 28707, Note_off_c, 10, 69, 127
1, 28707, Note_on_c, 12, 71, 127
1, 28935, Note_off_c, 12, 71, 127
1, 28937, Note_on_c, 0, 60, 127
1, 28937, Note_on_c, 0, 72, 127
1, 28937, Note_on_c, 7, 67, 127
1, 28937, Note_on_c, 3, 39, 127
1, 29781, Note_off_c, 0, 72, 127
1, 29782, Note_on_c, 11, 70, 127
1, 29853, Note_off_c, 11, 70, 127
1, 29857, Note_off_c, 3, 39, 127
1, 29857, Note_off_c, 7, 67, 127
1, 29857, Note_off_c, 0, 60, 127
1, 29859, Note_on_c, 11, 70, 127
1, 29859, Note_on_c, 3, 63, 127
1, 29859, Note_on_c, 0, 48, 127
1, 30087, Note_off_c, 11, 70, 127
1, 30089, Note_on_c, 10, 69, 127
1, 30159, Note_on_c, 11, 70, 127
1, 30165, Note_off_c, 10, 69, 127
1, 30229, Note_on_c, 10, 69, 127
1, 30235, Note_off_c, 11, 70, 127
1, 30299, Note_on_c, 11, 70, 127
1, 30305, Note_off_c, 10, 69, 127
1, 30369, Note_on_c, 10, 69, 127
1, 30375, Note_off_c, 11, 70, 127
1, 30439, Note_on_c, 11, 70, 127
1, 30445, Note_off_c, 10, 69, 127
1, 30509, Note_on_c, 10, 69, 127
1, 30515, Note_off_c, 11, 70, 127
1, 30780, Note_off_c, 3, 63, 127
1, 30782, Note_on_c, 11, 58, 127
1, 31000, Note_off_c, 10, 69, 127
1, 31012, Note_on_c, 11, 70, 127
1, 31240, Note_off_c, 11, 70, 127
1, 31242, Note_on_c, 0, 72, 127
1, 31470, Note_off_c, 0, 72, 127
1, 31472, Note_on_c, 2, 74, 127
1, 31585, Note_off_c, 2, 74, 127
1, 31587, Note_on_c, 7, 67, 127
1, 31697, Note_off_c, 0, 48, 127
1, 31699, Note_off_c, 7, 67, 127
1, 31700, Note_off_c, 11, 58, 127
1, 31701, Note_on_c, 6, 66, 127
1, 31701, Note_on_c, 0, 48, 127
1, 31701, Note_on_c, 10, 57, 127
1, 31701, Note_on_c, 2, 62, 127
1, 32275, Note_off_c, 6, 66, 127
1, 32277, Note_on_c, 7, 67, 127
1, 32390, Note_off_c, 7, 67, 127
1, 32392, Note_on_c, 6, 66, 127
1, 32505, Note_off_c, 6, 66, 127
1, 32507, Note_on_c, 4, 64, 127
1, 32620, Note_off_c, 4, 64, 127
1, 32621, Note_off_c, 2, 62, 127
1, 32621, Note_off_c, 10, 57, 127
1, 32621, Note_off_c, 0, 48, 127
1, 32622, Note_on_c, 2, 62, 127
1, 32850, Note_off_c, 2, 62, 127
1, 32852, Note_on_c, 4, 64, 127
1, 32965, Note_off_c, 4, 64, 127
1, 32967, Note_on_c, 6, 66, 127
1, 33080, Note_off_c, 6, 66, 127
1, 33082, Note_on_c, 7, 67, 127
1, 33195, Note_off_c, 7, 67, 127
1, 33197, Note_on_c, 10, 69, 127
1, 33310, Note_off_c, 10, 69, 127
1, 33312, Note_on_c, 11, 70, 127
1, 33425, Note_off_c, 11, 70, 127
1, 33427, Note_on_c, 0, 72, 127
1, 33540, Note_off_c, 0, 72, 127
1, 33542, Note_on_c, 11, 46, 127
1, 33542, Note_on_c, 2, 74, 127
1, 33542, Note_on_c, 11, 58, 127
1, 33772, Note_on_c, 2, 62, 127
1, 34000, Note_off_c, 11, 58, 127
1, 34000, Note_off_c, 2, 74, 127
1, 34002, Note_on_c, 7, 67, 127
1, 34002, Note_on_c, 10, 57, 127
1, 34230, Note_off_c, 7, 67, 127
1, 34232, Note_on_c, 10, 69, 127
1, 34345, Note_off_c, 10, 69, 127
1, 34347, Note_on_c, 11, 70, 127
1, 34460, Note_off_c, 11, 70, 127
1, 34460, Note_off_c, 10, 57, 127
1, 34461, Note_off_c, 2, 62, 127
1, 34461, Note_off_c, 11, 46, 127
1, 34462, Note_on_c, 5, 65, 127
1, 34462, Note_on_c, 11, 46, 127
1, 34462, Note_on_c, 7, 55, 127
1, 34462, Note_on_c, 0, 60, 127
1, 34690, Note_off_c, 5, 65, 127
1, 34692, Note_on_c, 4, 64, 127
1, 34759, Note_on_c, 5, 65, 127
1, 34767, Note_off_c, 4, 64, 127
1, 34826, Note_on_c, 4, 64, 127
1, 34834, Note_off_c, 5, 65, 127
1, 34893, Note_on_c, 5, 65, 127
1, 34901, Note_off_c, 4, 64, 127
1, 34960, Note_on_c, 4, 64, 127
1, 34968, Note_off_c, 5, 65, 127
1, 35368, Note_off_c, 4, 64, 127
1, 35382, Note_on_c, 4, 64, 127
1, 35838, Note_off_c, 4, 64, 127
1, 35843, Note_on_c, 0, 72, 127
1, 36297, Note_off_c, 0, 60, 127
1, 36297, Note_off_c, 7, 55, 127
1, 36297, Note_off_c, 11, 46, 127
1, 36304, Note_on_c, 11, 46, 127
1, 36304, Note_on_c, 7, 55, 127
1, 36304, Note_on_c, 0, 60, 127
1, 36983, Note_off_c, 0, 72, 127
1, 36995, Note_on_c, 4, 64, 127
1, 37223, Note_off_c, 4, 64, 127
1, 37224, Note_off_c, 0, 60, 127
1, 37224, Note_off_c, 7, 55, 127
1, 37224, Note_off_c, 11, 46, 127
1, 37225, Note_on_c, 0, 60, 127
1, 37225, Note_on_c, 10, 45, 127
1, 37225, Note_on_c, 6, 66, 127
1, 37225, Note_on_c, 10, 57, 127
1, 38145, Note_off_c, 10, 57, 127
1, 38353, Note_off_c, 6, 66, 127
1, 38377, Note_on_c, 10, 69, 127
1, 38605, Note_off_c, 10, 69, 127
1, 38607, Note_on_c, 7, 67, 127
1, 38835, Note_off_c, 7, 67, 127
1, 38837, Note_on_c, 10, 69, 127
1, 39054, Note_off_c, 10, 45, 127
1, 39060, Note_off_c, 0, 60, 127
1, 39065, Note_off_c, 10, 69, 127
1, 39067, Note_on_c, 7, 43, 127
1, 39067, Note_on_c, 11, 70, 127
1, 39067, Note_on_c, 2, 62, 127
1, 39067, Note_on_c, 7, 67, 127
1, 39180, Note_off_c, 7, 67, 127
1, 39180, Note_off_c, 11, 70, 127
1, 39182, Note_on_c, 7, 67, 127
1, 39295, Note_off_c, 7, 67, 127
1, 39297, Note_on_c, 10, 69, 127
1, 39410, Note_off_c, 10, 69, 127
1, 39412, Note_on_c, 11, 70, 127
1, 39522, Note_off_c, 2, 62, 127
1, 39522, Note_off_c, 7, 43, 127
1, 39524, Note_off_c, 11, 70, 127
1, 39526, Note_on_c, 0, 72, 127
1, 39526, Note_on_c, 5, 41, 127
1, 39639, Note_off_c, 0, 72, 127
1, 39641, Note_on_c, 2, 74, 127
1, 39754, Note_off_c, 2, 74, 127
1, 39756, Note_on_c, 4, 76, 127
1, 39869, Note_off_c, 4, 76, 127
1, 39871, Note_on_c, 5, 77, 127
1, 39981, Note_off_c, 5, 41, 127
1, 39983, Note_off_c, 5, 77, 127
1, 39985, Note_on_c, 4, 40, 127
1, 39985, Note_on_c, 7, 79, 127
1, 40211, Note_off_c, 7, 79, 127
1, 40211, Note_on_c, 4, 76, 127
1, 40437, Note_off_c, 4, 76, 127
1, 40437, Note_on_c, 0, 72, 127
1, 40653, Note_off_c, 0, 72, 127
1, 40663, Note_on_c, 4, 76, 127
1, 40785, Note_on_c, 12, 71, 127
1, 40791, Note_off_c, 4, 76, 127
1, 40903, Note_off_c, 12, 71, 127
1, 40908, Note_on_c, 0, 72, 127
1, 41136, Note_off_c, 0, 72, 127
1, 41138, Note_on_c, 7, 67, 127
1, 41246, Note_off_c, 4, 40, 127
1, 41366, Note_off_c, 7, 67, 127
1, 41368, Note_on_c, 4, 64, 127
1, 41596, Note_off_c, 4, 64, 127
1, 41618, Note_on_c, 7, 67, 127
1, 41724, Note_on_c, 2, 62, 127
1, 41731, Note_off_c, 7, 67, 127
1, 41822, Note_off_c, 2, 62, 127
1, 41829, Note_on_c, 4, 40, 127
1, 41829, Note_on_c, 10, 57, 127
1, 41829, Note_on_c, 7, 55, 127
1, 41829, Note_on_c, 1, 61, 127
1, 42518, Note_off_c, 1, 61, 127
1, 42520, Note_on_c, 2, 62, 127
1, 42748, Note_off_c, 2, 62, 127
1, 42749, Note_off_c, 7, 55, 127
1, 42749, Note_off_c, 10, 57, 127
1, 42749, Note_off_c, 4, 40, 127
1, 42750, Note_on_c, 7, 55, 127
1, 42750, Note_on_c, 2, 38, 127
1, 42750, Note_on_c, 2, 62, 127
1, 42750, Note_on_c, 11, 58, 127
1, 43261, Note_off_c, 11, 58, 127
1, 43261, Note_off_c, 7, 55, 127
1, 43268, Note_on_c, 10, 57, 127
1, 43268, Note_on_c, 6, 54, 127
1, 43706, Note_off_c, 2, 62, 127
1, 43706, Note_off_c, 2, 38, 127
1, 43726, Note_off_c, 6, 54, 127
1, 43726, Note_off_c, 10, 57, 127
1, 43810, Note_on_c, 7, 67, 127
1, 43810, Note_on_c, 2, 62, 127
1, 43810, Note_on_c, 11, 58, 127
1, 44040, Note_on_c, 7, 55, 127
1, 44268, Note_off_c, 7, 55, 127
1, 44270, Note_on_c, 3, 51, 127
1, 44498, Note_off_c, 3, 51, 127
1, 44500, Note_on_c, 7, 55, 127
1, 44613, Note_off_c, 7, 55, 127
1, 44615, Note_on_c, 2, 50, 127
1, 44728, Note_off_c, 2, 50, 127
1, 44729, Note_off_c, 11, 58, 127
1, 44729, Note_off_c, 2, 62, 127
1, 44729, Note_off_c, 7, 67, 127
1, 44730, Note_on_c, 1, 49, 127
1, 45191, Note_on_c, 4, 64, 127
1, 45191, Note_on_c, 7, 67, 127
1, 45191, Note_on_c, 11, 58, 127
1, 45354, Note_off_c, 1, 49, 127
1, 45421, Note_on_c, 1, 49, 127
1, 45647, Note_off_c, 11, 58, 127
1, 45647, Note_off_c, 7, 67, 127
1, 45647, Note_off_c, 4, 64, 127
1, 45649, Note_off_c, 1, 49, 127
1, 45651, Note_on_c, 7, 67, 127
1, 45651, Note_on_c, 11, 58, 127
1, 45651, Note_on_c, 2, 50, 127
1, 45651, Note_on_c, 2, 62, 127
1, 46109, Note_off_c, 11, 58, 127
1, 46145, Note_off_c, 7, 67, 127
1, 46169, Note_on_c, 10, 69, 127
1, 46169, Note_on_c, 0, 60, 127
1, 46571, Note_off_c, 2, 62, 127
1, 46627, Note_off_c, 0, 60, 127
1, 46663, Note_off_c, 10, 69, 127
1, 46687, Note_on_c, 10, 57, 127
1, 46687, Note_on_c, 2, 62, 127
1, 46687, Note_on_c, 6, 66, 127
1, 47720, Note_on_c, 2, 38, 127
1, 48650, Note_off_c, 2, 50, 127
1, 48800, Note_off_c, 2, 62, 127
1, 48800, Note_off_c, 10, 57, 127
1, 48816, Note_off_c, 6, 66, 127
1, 50020, Note_off_c, 2, 38, 127
1, 50685, Note_on_c, 11, 58, 127
1, 50685, Note_on_c, 11, 70, 127
1, 50917, Note_off_c, 11, 70, 127
1, 50917, Note_off_c, 11, 58, 127
1, 50928, Note_on_c, 10, 57, 127
1, 50928, Note_on_c, 5, 77, 127
1, 51067, Note_off_c, 5, 77, 127
1, 51149, Note_off_c, 10, 57, 127
1, 51159, Note_on_c, 5, 65, 127
1, 51159, Note_on_c, 7, 55, 127
1, 51268, Note_off_c, 7, 55, 127
1, 51273, Note_on_c, 5, 53, 127
1, 51297, Note_off_c, 5, 65, 127
1, 51382, Note_off_c, 5, 53, 127
1, 51388, Note_on_c, 11, 70, 127
1, 51388, Note_on_c, 7, 55, 127
1, 51609, Note_off_c, 7, 55, 127
1, 51614, Note_on_c, 5, 53, 127
1, 51723, Note_off_c, 5, 53, 127
1, 51726, Note_on_c, 3, 51, 127
1, 51830, Note_off_c, 11, 70, 127
1, 51835, Note_off_c, 3, 51, 127
1, 51838, Note_on_c, 2, 50, 127
1, 52059, Note_off_c, 2, 50, 127
1, 52064, Note_on_c, 5, 77, 127
1, 52064, Note_on_c, 3, 51, 127
1, 52173, Note_off_c, 3, 51, 127
1, 52177, Note_on_c, 5, 53, 127
1, 52203, Note_off_c, 5, 77, 127
1, 52287, Note_off_c, 5, 53, 127
1, 52290, Note_on_c, 11, 70, 127
1, 52290, Note_on_c, 7, 55, 127
1, 52511, Note_off_c, 7, 55, 127
1, 52516, Note_on_c, 5, 53, 127
1, 52625, Note_off_c, 5, 53, 127
1, 52628, Note_on_c, 3, 51, 127
1, 52732, Note_off_c, 11, 70, 127
1, 52737, Note_off_c, 3, 51, 127
1, 52741, Note_on_c, 2, 50, 127
1, 52962, Note_off_c, 2, 50, 127
1, 52966, Note_on_c, 5, 77, 127
1, 52966, Note_on_c, 3, 51, 127
1, 53075, Note_off_c, 3, 51, 127
1, 53079, Note_on_c, 5, 53, 127
1, 53186, Note_off_c, 5, 77, 127
1, 53188, Note_off_c, 5, 53, 127
1, 53191, Note_on_c, 3, 75, 127
1, 53191, Note_on_c, 7, 55, 127
1, 53412, Note_off_c, 7, 55, 127
1, 53412, Note_off_c, 3, 75, 127
1, 53417, Note_on_c, 5, 77, 127
1, 53417, Note_on_c, 5, 53, 127
1, 53526, Note_off_c, 5, 53, 127
1, 53526, Note_off_c, 5, 77, 127
1, 53529, Note_on_c, 7, 79, 127
1, 53529, Note_on_c, 3, 51, 127
1, 53638, Note_off_c, 3, 51, 127
1, 53638, Note_off_c, 7, 79, 127
1, 53642, Note_on_c, 0, 72, 127
1, 53642, Note_on_c, 5, 53, 127
1, 53781, Note_off_c, 0, 72, 127
1, 53852, Note_off_c, 5, 53, 127
1, 53867, Note_on_c, 5, 77, 127
1, 53867, Note_on_c, 5, 41, 127
1, 54006, Note_off_c, 5, 77, 127
1, 54077, Note_off_c, 5, 41, 127
1, 54093, Note_on_c, 2, 74, 127
1, 54093, Note_on_c, 11, 46, 127
1, 54232, Note_off_c, 2, 74, 127
1, 54314, Note_off_c, 11, 46, 127
1, 54319, Note_on_c, 11, 82, 127
1, 54319, Note_on_c, 11, 58, 127
1, 54540, Note_off_c, 11, 58, 127
1, 54540, Note_off_c, 11, 82, 127
1, 54545, Note_on_c, 10, 81, 127
1, 54545, Note_on_c, 5, 65, 127
1, 54766, Note_off_c, 5, 65, 127
1, 54766, Note_off_c, 10, 81, 127
1, 54770, Note_on_c, 7, 79, 127
1, 54770, Note_on_c, 11, 58, 127
1, 54879, Note_off_c, 7, 79, 127
1, 54883, Note_on_c, 5, 77, 127
1, 54990, Note_off_c, 11, 58, 127
1, 54992, Note_off_c, 5, 77, 127
1, 54995, Note_on_c, 7, 79, 127
1, 54995, Note_on_c, 3, 63, 127
1, 55216, Note_off_c, 7, 79, 127
1, 55221, Note_on_c, 5, 77, 127
1, 55321, Note_off_c, 3, 63, 127
1, 55331, Note_off_c, 5, 77, 127
1, 55334, Note_on_c, 3, 75, 127
1, 55443, Note_off_c, 3, 75, 127
1, 55447, Note_on_c, 2, 74, 127
1, 55668, Note_off_c, 2, 74, 127
1, 55672, Note_on_c, 3, 75, 127
1, 55672, Note_on_c, 11, 58, 127
1, 55781, Note_off_c, 3, 75, 127
1, 55785, Note_on_c, 5, 77, 127
1, 55892, Note_off_c, 11, 58, 127
1, 55894, Note_off_c, 5, 77, 127
1, 55897, Note_on_c, 7, 79, 127
1, 55897, Note_on_c, 3, 51, 127
1, 56118, Note_off_c, 7, 79, 127
1, 56123, Note_on_c, 5, 77, 127
1, 56223, Note_off_c, 3, 51, 127
1, 56233, Note_off_c, 5, 77, 127
1, 56236, Note_on_c, 3, 75, 127
1, 56345, Note_off_c, 3, 75, 127
1, 56349, Note_on_c, 2, 74, 127
1, 56570, Note_off_c, 2, 74, 127
1, 56575, Note_on_c, 3, 75, 127
1, 56575, Note_on_c, 11, 58, 127
1, 56684, Note_off_c, 3, 75, 127
1, 56687, Note_on_c, 5, 77, 127
1, 56795, Note_off_c, 11, 58, 127
1, 56796, Note_off_c, 5, 77, 127
1, 56799, Note_on_c, 7, 79, 127
1, 56799, Note_on_c, 3, 51, 127
1, 57020, Note_off_c, 3, 51, 127
1, 57020, Note_off_c, 7, 79, 127
1, 57025, Note_on_c, 10, 81, 127
1, 57025, Note_on_c, 7, 55, 127
1, 57134, Note_off_c, 10, 81, 127
1, 57137, Note_on_c, 11, 82, 127
1, 57245, Note_off_c, 7, 55, 127
1, 57246, Note_off_c, 11, 82, 127
1, 57250, Note_on_c, 0, 72, 127
1, 57250, Note_on_c, 5, 53, 127
1, 57389, Note_off_c, 0, 72, 127
1, 57471, Note_off_c, 5, 53, 127
1, 57476, Note_on_c, 10, 81, 127
1, 57476, Note_on_c, 3, 51, 127
1, 57615, Note_off_c, 10, 81, 127
1, 57697, Note_off_c, 3, 51, 127
1, 57701, Note_on_c, 11, 70, 127
1, 57701, Note_on_c, 2, 50, 127
1, 57922, Note_off_c, 2, 50, 127
1, 57927, Note_on_c, 11, 82, 127
1, 57927, Note_on_c, 0, 48, 127
1, 58027, Note_off_c, 11, 70, 127
1, 58037, Note_off_c, 0, 48, 127
1, 58041, Note_on_c, 11, 46, 127
1, 58148, Note_off_c, 11, 82, 127
1, 58150, Note_off_c, 11, 46, 127
1, 58153, Note_on_c, 10, 81, 127
1, 58153, Note_on_c, 0, 48, 127
1, 58374, Note_off_c, 0, 48, 127
1, 58374, Note_off_c, 10, 81, 127
1, 58379, Note_on_c, 7, 79, 127
1, 58379, Note_on_c, 5, 53, 127
1, 58488, Note_off_c, 7, 79, 127
1, 58491, Note_on_c, 5, 77, 127
1, 58599, Note_off_c, 5, 53, 127
1, 58600, Note_off_c, 5, 77, 127
1, 58603, Note_on_c, 7, 79, 127
1, 58603, Note_on_c, 4, 52, 127
1, 58742, Note_off_c, 7, 79, 127
1, 58824, Note_off_c, 4, 52, 127
1, 58829, Note_on_c, 0, 84, 127
1, 58829, Note_on_c, 2, 50, 127
1, 58938, Note_off_c, 2, 50, 127
1, 58942, Note_on_c, 0, 48, 127
1, 58968, Note_off_c, 0, 84, 127
1, 59052, Note_off_c, 0, 48, 127
1, 59055, Note_on_c, 11, 82, 127
1, 59055, Note_on_c, 2, 50, 127
1, 59276, Note_off_c, 2, 50, 127
1, 59276, Note_off_c, 11, 82, 127
1, 59281, Note_on_c, 10, 81, 127
1, 59281, Note_on_c, 4, 52, 127
1, 59390, Note_off_c, 10, 81, 127
1, 59393, Note_on_c, 7, 79, 127
1, 59501, Note_off_c, 4, 52, 127
1, 59502, Note_off_c, 7, 79, 127
1, 59505, Note_on_c, 10, 81, 127
1, 59505, Note_on_c, 5, 41, 127
1, 59726, Note_off_c, 5, 41, 127
1, 59726, Note_off_c, 10, 81, 127
1, 59731, Note_on_c, 5, 65, 127
1, 59731, Note_on_c, 5, 53, 127
1, 59870, Note_off_c, 5, 65, 127
1, 59952, Note_off_c, 5, 53, 127
1, 59957, Note_on_c, 0, 72, 127
1, 59957, Note_on_c, 4, 52, 127
1, 60096, Note_off_c, 0, 72, 127
1, 60178, Note_off_c, 4, 52, 127
1, 60183, Note_on_c, 0, 60, 127
1, 60183, Note_on_c, 2, 50, 127
1, 60292, Note_off_c, 2, 50, 127
1, 60295, Note_on_c, 0, 48, 127
1, 60322, Note_off_c, 0, 60, 127
1, 60405, Note_off_c, 0, 48, 127
1, 60409, Note_on_c, 5, 65, 127
1, 60409, Note_on_c, 2, 50, 127
1, 60630, Note_off_c, 2, 50, 127
1, 60634, Note_on_c, 0, 48, 127
1, 60743, Note_off_c, 0, 48, 127
1, 60747, Note_on_c, 11, 46, 127
1, 60851, Note_off_c, 5, 65, 127
1, 60856, Note_off_c, 11, 46, 127
1, 60859, Note_on_c, 10, 45, 127
1, 61080, Note_off_c, 10, 45, 127
1, 61085, Note_on_c, 0, 72, 127
1, 61085, Note_on_c, 11, 46, 127
1, 61194, Note_off_c, 11, 46, 127
1, 61197, Note_on_c, 0, 48, 127
1, 61305, Note_off_c, 0, 72, 127
1, 61306, Note_off_c, 0, 48, 127
1, 61310, Note_on_c, 5, 65, 127
1, 61310, Note_on_c, 2, 50, 127
1, 61531, Note_off_c, 2, 50, 127
1, 61535, Note_on_c, 0, 48, 127
1, 61636, Note_off_c, 5, 65, 127
1, 61645, Note_off_c, 0, 48, 127
1, 61649, Note_on_c, 11, 46, 127
1, 61758, Note_off_c, 11, 46, 127
1, 61761, Note_on_c, 10, 45, 127
1, 61982, Note_off_c, 10, 45, 127
1, 61987, Note_on_c, 0, 72, 127
1, 61987, Note_on_c, 11, 46, 127
1, 62096, Note_off_c, 11, 46, 127
1, 62099, Note_on_c, 0, 48, 127
1, 62207, Note_off_c, 0, 72, 127
1, 62208, Note_off_c, 0, 48, 127
1, 62212, Note_on_c, 11, 70, 127
1, 62212, Note_on_c, 2, 50, 127
1, 62433, Note_off_c, 2, 50, 127
1, 62433, Note_off_c, 11, 70, 127
1, 62437, Note_on_c, 0, 72, 127
1, 62437, Note_on_c, 0, 48, 127
1, 62546, Note_off_c, 0, 48, 127
1, 62546, Note_off_c, 0, 72, 127
1, 62550, Note_on_c, 2, 74, 127
1, 62550, Note_on_c, 11, 46, 127
1, 62659, Note_off_c, 11, 46, 127
1, 62659, Note_off_c, 2, 74, 127
1, 62662, Note_on_c, 7, 67, 127
1, 62662, Note_on_c, 0, 48, 127
1, 62801, Note_off_c, 7, 67, 127
1, 62872, Note_off_c, 0, 48, 127
1, 62888, Note_on_c, 0, 72, 127
1, 62888, Note_on_c, 0, 36, 127
1, 63027, Note_off_c, 0, 72, 127
1, 63098, Note_off_c, 0, 36, 127
1, 63114, Note_on_c, 10, 69, 127
1, 63114, Note_on_c, 5, 41, 127
1, 63335, Note_off_c, 5, 41, 127
1, 63335, Note_off_c, 10, 69, 127
1, 63339, Note_on_c, 5, 77, 127
1, 63339, Note_on_c, 5, 53, 127
1, 63560, Note_off_c, 5, 53, 127
1, 63560, Note_off_c, 5, 77, 127
1, 63565, Note_on_c, 3, 75, 127
1, 63565, Note_on_c, 0, 60, 127
1, 63786, Note_off_c, 0, 60, 127
1, 63786, Note_off_c, 3, 75, 127
1, 63791, Note_on_c, 2, 74, 127
1, 63791, Note_on_c, 5, 53, 127
1, 63900, Note_off_c, 2, 74, 127
1, 63903, Note_on_c, 0, 72, 127
1, 64011, Note_off_c, 5, 53, 127
1, 64012, Note_off_c, 0, 72, 127
1, 64016, Note_on_c, 2, 74, 127
1, 64016, Note_on_c, 11, 58, 127
1, 64237, Note_off_c, 2, 74, 127
1, 64242, Note_on_c, 0, 72, 127
1, 64342, Note_off_c, 11, 58, 127
1, 64352, Note_off_c, 0, 72, 127
1, 64355, Note_on_c, 11, 70, 127
1, 64464, Note_off_c, 11, 70, 127
1, 64467, Note_on_c, 10, 69, 127
1, 64688, Note_off_c, 10, 69, 127
1, 64693, Note_on_c, 11, 70, 127
1, 64693, Note_on_c, 5, 53, 127
1, 64802, Note_off_c, 11, 70, 127
1, 64805, Note_on_c, 0, 72, 127
1, 64913, Note_off_c, 5, 53, 127
1, 64914, Note_off_c, 0, 72, 127
1, 64918, Note_on_c, 2, 74, 127
1, 64918, Note_on_c, 11, 46, 127
1, 65139, Note_off_c, 2, 74, 127
1, 65144, Note_on_c, 0, 72, 127
1, 65244, Note_off_c, 11, 46, 127
1, 65254, Note_off_c, 0, 72, 127
1, 65257, Note_on_c, 11, 70, 127
1, 65366, Note_off_c, 11, 70, 127
1, 65369, Note_on_c, 10, 69, 127
1, 65590, Note_off_c, 10, 69, 127
1, 65595, Note_on_c, 11, 70, 127
1, 65595, Note_on_c, 5, 53, 127
1, 65704, Note_off_c, 11, 70, 127
1, 65707, Note_on_c, 0, 72, 127
1, 65815, Note_off_c, 5, 53, 127
1, 65816, Note_off_c, 0, 72, 127
1, 65820, Note_on_c, 2, 74, 127
1, 65820, Note_on_c, 11, 46, 127
1, 66041, Note_off_c, 11, 46, 127
1, 66041, Note_off_c, 2, 74, 127
1, 66046, Note_on_c, 4, 76, 127
1, 66046, Note_on_c, 2, 50, 127
1, 66155, Note_off_c, 4, 76, 127
1, 66158, Note_on_c, 5, 77, 127
1, 66266, Note_off_c, 2, 50, 127
1, 66267, Note_off_c, 5, 77, 127
1, 66270, Note_on_c, 7, 67, 127
1, 66270, Note_on_c, 0, 48, 127
1, 66409, Note_off_c, 7, 67, 127
1, 66491, Note_off_c, 0, 48, 127
1, 66496, Note_on_c, 4, 76, 127
1, 66496, Note_on_c, 11, 46, 127
1, 66635, Note_off_c, 4, 76, 127
1, 66717, Note_off_c, 11, 46, 127
1, 66722, Note_on_c, 5, 65, 127
1, 66722, Note_on_c, 10, 45, 127
1, 66943, Note_off_c, 10, 45, 127
1, 66948, Note_on_c, 5, 77, 127
1, 66948, Note_on_c, 7, 43, 127
1, 67048, Note_off_c, 5, 65, 127
1, 67058, Note_off_c, 7, 43, 127
1, 67061, Note_on_c, 5, 41, 127
1, 67169, Note_off_c, 5, 77, 127
1, 67170, Note_off_c, 5, 41, 127
1, 67173, Note_on_c, 3, 75, 127
1, 67173, Note_on_c, 7, 43, 127
1, 67394, Note_off_c, 7, 43, 127
1, 67394, Note_off_c, 3, 75, 127
1, 67399, Note_on_c, 2, 74, 127
1, 67399, Note_on_c, 10, 45, 127
1, 67508, Note_off_c, 2, 74, 127
1, 67512, Note_on_c, 0, 72, 127
1, 67619, Note_off_c, 10, 45, 127
1, 67621, Note_off_c, 0, 72, 127
1, 67624, Note_on_c, 2, 74, 127
1, 67624, Note_on_c, 11, 46, 127
1, 67763, Note_off_c, 2, 74, 127
1, 67845, Note_off_c, 11, 46, 127
1, 67850, Note_on_c, 11, 82, 127
1, 67850, Note_on_c, 10, 45, 127
1, 67959, Note_off_c, 10, 45, 127
1, 67962, Note_on_c, 7, 43, 127
1, 68070, Note_off_c, 11, 82, 127
1, 68071, Note_off_c, 7, 43, 127
1, 68074, Note_on_c, 8, 80, 127
1, 68074, Note_on_c, 0, 48, 127
1, 68295, Note_off_c, 0, 48, 127
1, 68295, Note_off_c, 8, 80, 127
1, 68300, Note_on_c, 7, 79, 127
1, 68300, Note_on_c, 2, 50, 127
1, 68409, Note_off_c, 7, 79, 127
1, 68413, Note_on_c, 5, 77, 127
1, 68520, Note_off_c, 2, 50, 127
1, 68522, Note_off_c, 5, 77, 127
1, 68525, Note_on_c, 7, 79, 127
1, 68525, Note_on_c, 3, 51, 127
1, 68664, Note_off_c, 7, 79, 127
1, 68746, Note_off_c, 3, 51, 127
1, 68751, Note_on_c, 0, 72, 127
1, 68751, Note_on_c, 2, 50, 127
1, 68860, Note_off_c, 2, 50, 127
1, 68863, Note_on_c, 0, 48, 127
1, 68971, Note_off_c, 0, 72, 127
1, 68972, Note_off_c, 0, 48, 127
1, 68975, Note_on_c, 11, 70, 127
1, 68975, Note_on_c, 2, 50, 127
1, 69196, Note_off_c, 2, 50, 127
1, 69196, Note_off_c, 11, 70, 127
1, 69201, Note_on_c, 10, 69, 127
1, 69201, Note_on_c, 3, 51, 127
1, 69310, Note_off_c, 10, 69, 127
1, 69314, Note_on_c, 7, 67, 127
1, 69421, Note_off_c, 3, 51, 127
1, 69423, Note_off_c, 7, 67, 127
1, 69426, Note_on_c, 10, 69, 127
1, 69426, Note_on_c, 5, 53, 127
1, 69565, Note_off_c, 10, 69, 127
1, 69647, Note_off_c, 5, 53, 127
1, 69652, Note_on_c, 5, 77, 127
1, 69652, Note_on_c, 3, 51, 127
1, 69761, Note_off_c, 3, 51, 127
1, 69764, Note_on_c, 2, 50, 127
1, 69872, Note_off_c, 5, 77, 127
1, 69873, Note_off_c, 2, 50, 127
1, 69876, Note_on_c, 2, 74, 127
1, 69876, Note_on_c, 3, 51, 127
1, 70097, Note_off_c, 3, 51, 127
1, 70097, Note_off_c, 2, 74, 127
1, 70102, Note_on_c, 0, 72, 127
1, 70102, Note_on_c, 5, 53, 127
1, 70211, Note_off_c, 0, 72, 127
1, 70215, Note_on_c, 11, 70, 127
1, 70322, Note_off_c, 5, 53, 127
1, 70324, Note_off_c, 11, 70, 127
1, 70327, Note_on_c, 11, 70, 127
1, 70327, Note_on_c, 11, 46, 127
1, 70548, Note_off_c, 11, 70, 127
1, 70553, Note_on_c, 5, 65, 127
1, 70553, Note_on_c, 11, 70, 127
1, 70553, Note_on_c, 11, 58, 127
1, 70553, Note_on_c, 2, 62, 127
1, 70716, Note_off_c, 2, 62, 127
1, 70716, Note_off_c, 5, 65, 127
1, 70770, Note_off_c, 11, 46, 127
1, 70774, Note_off_c, 11, 58, 127
1, 70774, Note_off_c, 11, 70, 127
1, 70779, Note_on_c, 5, 65, 127
1, 70779, Note_on_c, 5, 77, 127
1, 70779, Note_on_c, 10, 57, 127
1, 70779, Note_on_c, 0, 60, 127
1, 70918, Note_off_c, 0, 60, 127
1, 70918, Note_off_c, 5, 65, 127
1, 71000, Note_off_c, 10, 57, 127
1, 71000, Note_off_c, 5, 77, 127
1, 71004, Note_on_c, 5, 65, 127
1, 71004, Note_on_c, 0, 60, 127
1, 71004, Note_on_c, 10, 57, 127
1, 71004, Note_on_c, 7, 55, 127
1, 71113, Note_off_c, 7, 55, 127
1, 71117, Note_on_c, 5, 53, 127
1, 71143, Note_off_c, 10, 57, 127
1, 71143, Note_off_c, 0, 60, 127
1, 71143, Note_off_c, 5, 65, 127
1, 71227, Note_off_c, 5, 53, 127
1, 71230, Note_on_c, 2, 62, 127
1, 71230, Note_on_c, 11, 70, 127
1, 71230, Note_on_c, 7, 67, 127
1, 71230, Note_on_c, 7, 55, 127
1, 71451, Note_off_c, 7, 55, 127
1, 71456, Note_on_c, 5, 53, 127
1, 71565, Note_off_c, 5, 53, 127
1, 71568, Note_on_c, 3, 51, 127
1, 71672, Note_off_c, 7, 67, 127
1, 71672, Note_off_c, 11, 70, 127
1, 71672, Note_off_c, 2, 62, 127
1, 71677, Note_off_c, 3, 51, 127
1, 71681, Note_on_c, 2, 50, 127
1, 71902, Note_off_c, 2, 50, 127
1, 71906, Note_on_c, 5, 65, 127
1, 71906, Note_on_c, 5, 77, 127
1, 71906, Note_on_c, 3, 51, 127
1, 72015, Note_off_c, 3, 51, 127
1, 72019, Note_on_c, 5, 53, 127
1, 72045, Note_off_c, 5, 65, 127
1, 72127, Note_off_c, 5, 77, 127
1, 72129, Note_off_c, 5, 53, 127
1, 72132, Note_on_c, 11, 70, 127
1, 72132, Note_on_c, 7, 67, 127
1, 72132, Note_on_c, 3, 63, 127
1, 72132, Note_on_c, 7, 55, 127
1, 72353, Note_off_c, 7, 55, 127
1, 72358, Note_on_c, 5, 53, 127
1, 72467, Note_off_c, 5, 53, 127
1, 72470, Note_on_c, 3, 51, 127
1, 72574, Note_off_c, 3, 63, 127
1, 72574, Note_off_c, 7, 67, 127
1, 72574, Note_off_c, 11, 70, 127
1, 72579, Note_off_c, 3, 51, 127
1, 72583, Note_on_c, 2, 50, 127
1, 72804, Note_off_c, 2, 50, 127
1, 72808, Note_on_c, 10, 69, 127
1, 72808, Note_on_c, 5, 65, 127
1, 72808, Note_on_c, 5, 77, 127
1, 72808, Note_on_c, 3, 51, 127
1, 72917, Note_off_c, 3, 51, 127
1, 72921, Note_on_c, 5, 53, 127
1, 72947, Note_off_c, 5, 65, 127
1, 72947, Note_off_c, 10, 69, 127
1, 73029, Note_off_c, 5, 77, 127
1, 73031, Note_off_c, 5, 53, 127
1, 73034, Note_on_c, 7, 67, 127
1, 73034, Note_on_c, 11, 70, 127
1, 73034, Note_on_c, 2, 62, 127
1, 73034, Note_on_c, 7, 55, 127
1, 73173, Note_off_c, 2, 62, 127
1, 73173, Note_off_c, 7, 67, 127
1, 73255, Note_off_c, 7, 55, 127
1, 73255, Note_off_c, 11, 70, 127
1, 73260, Note_on_c, 3, 75, 127
1, 73260, Note_on_c, 11, 70, 127
1, 73260, Note_on_c, 7, 67, 127
1, 73260, Note_on_c, 5, 53, 127
1, 73369, Note_off_c, 5, 53, 127
1, 73372, Note_on_c, 3, 51, 127
1, 73399, Note_off_c, 7, 67, 127
1, 73399, Note_off_c, 11, 70, 127
1, 73481, Note_off_c, 3, 75, 127
1, 73482, Note_off_c, 3, 51, 127
1, 73486, Note_on_c, 5, 65, 127
1, 73486, Note_on_c, 10, 69, 127
1, 73486, Note_on_c, 0, 72, 127
1, 73486, Note_on_c, 5, 53, 127
1, 73625, Note_off_c, 10, 69, 127
1, 73625, Note_off_c, 5, 65, 127
1, 73707, Note_off_c, 5, 53, 127
1, 73707, Note_off_c, 0, 72, 127
1, 73712, Note_on_c, 5, 65, 127
1, 73712, Note_on_c, 5, 77, 127
1, 73712, Note_on_c, 7, 55, 127
1, 73821, Note_off_c, 7, 55, 127
1, 73824, Note_on_c, 10, 57, 127
1, 73851, Note_off_c, 5, 65, 127
1, 73933, Note_off_c, 5, 77, 127
1, 73934, Note_off_c, 10, 57, 127
1, 73937, Note_on_c, 2, 74, 127
1, 73937, Note_on_c, 5, 65, 127
1, 73937, Note_on_c, 11, 70, 127
1, 73937, Note_on_c, 11, 58, 127
1, 74076, Note_off_c, 11, 70, 127
1, 74076, Note_off_c, 5, 65, 127
1, 74158, Note_off_c, 11, 58, 127
1, 74158, Note_off_c, 2, 74, 127
1, 74163, Note_on_c, 7, 79, 127
1, 74163, Note_on_c, 11, 70, 127
1, 74163, Note_on_c, 2, 74, 127
1, 74163, Note_on_c, 10, 57, 127
1, 74272, Note_off_c, 10, 57, 127
1, 74275, Note_on_c, 7, 55, 127
1, 74302, Note_off_c, 2, 74, 127
1, 74302, Note_off_c, 11, 70, 127
1, 74384, Note_off_c, 7, 79, 127
1, 74385, Note_off_c, 7, 55, 127
1, 74389, Note_on_c, 7, 67, 127
1, 74389, Note_on_c, 0, 72, 127
1, 74389, Note_on_c, 4, 76, 127
1, 74389, Note_on_c, 0, 60, 127
1, 74528, Note_off_c, 0, 72, 127
1, 74528, Note_off_c, 7, 67, 127
1, 74610, Note_off_c, 0, 60, 127
1, 74610, Note_off_c, 4, 76, 127
1, 74615, Note_on_c, 10, 81, 127
1, 74615, Note_on_c, 0, 72, 127
1, 74615, Note_on_c, 4, 76, 127
1, 74615, Note_on_c, 11, 58, 127
1, 74724, Note_off_c, 11, 58, 127
1, 74727, Note_on_c, 10, 57, 127
1, 74754, Note_off_c, 4, 76, 127
1, 74754, Note_off_c, 0, 72, 127
1, 74836, Note_off_c, 10, 81, 127
1, 74837, Note_off_c, 10, 57, 127
1, 74840, Note_on_c, 2, 74, 127
1, 74840, Note_on_c, 5, 77, 127
1, 74840, Note_on_c, 10, 69, 127
1, 74840, Note_on_c, 2, 62, 127
1, 74979, Note_off_c, 10, 69, 127
1, 74979, Note_off_c, 2, 74, 127
1, 75061, Note_off_c, 2, 62, 127
1, 75061, Note_off_c, 5, 77, 127
1, 75066, Note_on_c, 11, 82, 127
1, 75066, Note_on_c, 2, 74, 127
1, 75066, Note_on_c, 5, 77, 127
1, 75066, Note_on_c, 0, 60, 127
1, 75175, Note_off_c, 0, 60, 127
1, 75179, Note_on_c, 11, 58, 127
1, 75205, Note_off_c, 5, 77, 127
1, 75205, Note_off_c, 2, 74, 127
1, 75287, Note_off_c, 11, 82, 127
1, 75289, Note_off_c, 11, 58, 127
1, 75292, Note_on_c, 7, 79, 127
1, 75292, Note_on_c, 0, 72, 127
1, 75292, Note_on_c, 4, 64, 127
1, 75431, Note_off_c, 0, 72, 127
1, 75513, Note_off_c, 4, 64, 127
1, 75513, Note_off_c, 7, 79, 127
1, 75518, Note_on_c, 7, 79, 127
1, 75518, Note_on_c, 0, 84, 127
1, 75518, Note_on_c, 4, 76, 127
1, 75518, Note_on_c, 2, 62, 127
1, 75627, Note_off_c, 2, 62, 127
1, 75630, Note_on_c, 0, 60, 127
1, 75657, Note_off_c, 4, 76, 127
1, 75657, Note_off_c, 7, 79, 127
1, 75739, Note_off_c, 0, 84, 127
1, 75740, Note_off_c, 0, 60, 127
1, 75744, Note_on_c, 0, 72, 127
1, 75744, Note_on_c, 5, 77, 127
1, 75744, Note_on_c, 10, 81, 127
1, 75744, Note_on_c, 5, 65, 127
1, 75965, Note_off_c, 5, 65, 127
1, 75965, Note_off_c, 10, 81, 127
1, 75965, Note_off_c, 5, 77, 127
1, 75965, Note_off_c, 0, 72, 127
1, 75969, Note_on_c, 10, 69, 127
1, 75969, Note_on_c, 7, 79, 127
1, 75969, Note_on_c, 5, 53, 127
1, 76078, Note_off_c, 7, 79, 127
1, 76078, Note_off_c, 10, 69, 127
1, 76082, Note_on_c, 5, 77, 127
1, 76189, Note_off_c, 5, 53, 127
1, 76191, Note_off_c, 5, 77, 127
1, 76194, Note_on_c, 7, 67, 127
1, 76194, Note_on_c, 4, 76, 127
1, 76194, Note_on_c, 0, 60, 127
1, 76357, Note_off_c, 7, 67, 127
1, 76416, Note_off_c, 0, 60, 127
1, 76416, Note_off_c, 4, 76, 127
1, 76421, Note_on_c, 4, 64, 127
1, 76421, Note_on_c, 2, 74, 127
1, 76421, Note_on_c, 0, 60, 127
1, 76421, Note_on_c, 0, 48, 127
1, 76530, Note_off_c, 2, 74, 127
1, 76533, Note_on_c, 0, 72, 127
1, 76641, Note_off_c, 0, 48, 127
1, 76641, Note_off_c, 0, 60, 127
1, 76641, Note_off_c, 4, 64, 127
1, 76642, Note_off_c, 0, 72, 127
1, 76646, Note_on_c, 2, 74, 127
1, 76646, Note_on_c, 5, 65, 127
1, 76646, Note_on_c, 10, 57, 127
1, 76646, Note_on_c, 5, 53, 127
1, 76809, Note_off_c, 10, 57, 127
1, 76809, Note_off_c, 5, 65, 127
1, 76868, Note_off_c, 5, 53, 127
1, 76868, Note_off_c, 2, 74, 127
1, 76872, Note_on_c, 0, 72, 127
1, 76872, Note_on_c, 5, 65, 127
1, 76872, Note_on_c, 2, 62, 127
1, 76872, Note_on_c, 11, 58, 127
1, 76981, Note_off_c, 0, 72, 127
1, 76985, Note_on_c, 11, 70, 127
1, 77092, Note_off_c, 11, 58, 127
1, 77092, Note_off_c, 2, 62, 127
1, 77092, Note_off_c, 5, 65, 127
1, 77094, Note_off_c, 11, 70, 127
1, 77097, Note_on_c, 0, 72, 127
1, 77097, Note_on_c, 7, 67, 127
1, 77097, Note_on_c, 7, 55, 127
1, 77097, Note_on_c, 4, 52, 127
1, 77260, Note_off_c, 7, 55, 127
1, 77260, Note_off_c, 7, 67, 127
1, 77319, Note_off_c, 4, 52, 127
1, 77319, Note_off_c, 0, 72, 127
1, 77324, Note_on_c, 11, 70, 127
1, 77324, Note_on_c, 5, 65, 127
1, 77324, Note_on_c, 0, 60, 127
1, 77324, Note_on_c, 10, 57, 127
1, 77433, Note_off_c, 11, 70, 127
1, 77436, Note_on_c, 10, 69, 127
1, 77544, Note_off_c, 10, 57, 127
1, 77544, Note_off_c, 0, 60, 127
1, 77544, Note_off_c, 5, 65, 127
1, 77545, Note_off_c, 10, 69, 127
1, 77549, Note_on_c, 5, 65, 127
1, 77549, Note_on_c, 11, 70, 127
1, 77549, Note_on_c, 2, 50, 127
1, 77549, Note_on_c, 5, 53, 127
1, 77735, Note_off_c, 5, 53, 127
1, 77735, Note_off_c, 5, 65, 127
1, 77770, Note_off_c, 2, 50, 127
1, 77770, Note_off_c, 11, 70, 127
1, 77775, Note_on_c, 10, 69, 127
1, 77775, Note_on_c, 0, 60, 127
1, 77775, Note_on_c, 4, 52, 127
1, 77775, Note_on_c, 7, 55, 127
1, 77884, Note_off_c, 10, 69, 127
1, 77887, Note_on_c, 7, 67, 127
1, 77995, Note_off_c, 7, 55, 127
1, 77995, Note_off_c, 4, 52, 127
1, 77995, Note_off_c, 0, 60, 127
1, 77996, Note_off_c, 7, 67, 127
1, 77999, Note_on_c, 10, 69, 127
1, 77999, Note_on_c, 0, 60, 127
1, 77999, Note_on_c, 5, 53, 127
1, 78220, Note_off_c, 10, 69, 127
1, 78225, Note_on_c, 7, 67, 127
1, 78225, Note_on_c, 5, 41, 127
1, 78334, Note_off_c, 7, 67, 127
1, 78337, Note_on_c, 5, 65, 127
1, 78394, Note_off_c, 0, 60, 127
1, 78441, Note_off_c, 5, 53, 127
1, 78445, Note_off_c, 5, 41, 127
1, 78446, Note_off_c, 5, 65, 127
1, 78450, Note_on_c, 0, 72, 127
1, 78676, Note_on_c, 10, 69, 127
1, 78676, Note_on_c, 5, 65, 127
1, 78897, Note_off_c, 5, 65, 127
1, 78897, Note_off_c, 10, 69, 127
1, 78901, Note_on_c, 7, 67, 127
1, 78901, Note_on_c, 4, 64, 127
1, 79122, Note_off_c, 4, 64, 127
1, 79122, Note_off_c, 7, 67, 127
1, 79127, Note_on_c, 5, 65, 127
1, 79127, Note_on_c, 2, 62, 127
1, 79236, Note_off_c, 2, 62, 127
1, 79236, Note_off_c, 5, 65, 127
1, 79239, Note_on_c, 4, 64, 127
1, 79239, Note_on_c, 0, 60, 127
1, 79348, Note_off_c, 0, 60, 127
1, 79348, Note_off_c, 4, 64, 127
1, 79352, Note_on_c, 10, 69, 127
1, 79352, Note_on_c, 5, 65, 127
1, 79573, Note_off_c, 5, 65, 127
1, 79573, Note_off_c, 10, 69, 127
1, 79578, Note_on_c, 0, 60, 127
1, 79578, Note_on_c, 10, 69, 127
1, 79578, Note_on_c, 5, 53, 127
1, 79717, Note_off_c, 0, 60, 127
1, 79799, Note_off_c, 5, 53, 127
1, 79799, Note_off_c, 10, 69, 127
1, 79803, Note_on_c, 7, 67, 127
1, 79803, Note_on_c, 0, 60, 127
1, 79803, Note_on_c, 4, 52, 127
1, 79942, Note_off_c, 0, 60, 127
1, 80024, Note_off_c, 4, 52, 127
1, 80024, Note_off_c, 7, 67, 127
1, 80029, Note_on_c, 0, 60, 127
1, 80029, Note_on_c, 4, 64, 127
1, 80029, Note_on_c, 2, 50, 127
1, 80138, Note_off_c, 2, 50, 127
1, 80142, Note_on_c, 0, 48, 127
1, 80168, Note_off_c, 0, 60, 127
1, 80230, Note_off_c, 0, 72, 127
1, 80249, Note_off_c, 4, 64, 127
1, 80251, Note_off_c, 0, 48, 127
1, 80254, Note_on_c, 0, 60, 127
1, 80254, Note_on_c, 10, 69, 127
1, 80254, Note_on_c, 5, 53, 127
1, 80475, Note_off_c, 5, 53, 127
1, 80475, Note_off_c, 10, 69, 127
1, 80475, Note_off_c, 0, 60, 127
1, 80480, Note_on_c, 5, 65, 127
1, 80480, Note_on_c, 11, 70, 127
1, 80480, Note_on_c, 2, 62, 127
1, 80480, Note_on_c, 11, 58, 127
1, 80589, Note_off_c, 11, 70, 127
1, 80592, Note_on_c, 0, 72, 127
1, 80700, Note_off_c, 11, 58, 127
1, 80700, Note_off_c, 2, 62, 127
1, 80700, Note_off_c, 5, 65, 127
1, 80701, Note_off_c, 0, 72, 127
1, 80704, Note_on_c, 5, 65, 127
1, 80704, Note_on_c, 10, 69, 127
1, 80704, Note_on_c, 0, 60, 127
1, 80925, Note_off_c, 0, 60, 127
1, 80925, Note_off_c, 10, 69, 127
1, 80925, Note_off_c, 5, 65, 127
1, 80930, Note_on_c, 4, 64, 127
1, 80930, Note_on_c, 7, 67, 127
1, 80930, Note_on_c, 0, 48, 127
1, 80930, Note_on_c, 11, 58, 127
1, 81039, Note_off_c, 7, 67, 127
1, 81043, Note_on_c, 5, 65, 127
1, 81069, Note_off_c, 4, 64, 127
1, 81151, Note_off_c, 11, 58, 127
1, 81151, Note_off_c, 0, 48, 127
1, 81153, Note_off_c, 5, 65, 127
1, 81156, Note_on_c, 5, 65, 127
1, 81156, Note_on_c, 10, 57, 127
1, 81156, Note_on_c, 5, 53, 127
1, 81377, Note_off_c, 10, 57, 127
1, 81377, Note_off_c, 5, 65, 127
1, 81382, Note_on_c, 0, 72, 127
1, 81382, Note_on_c, 5, 41, 127
1, 81599, Note_off_c, 5, 53, 127
1, 81603, Note_off_c, 0, 72, 127
1, 81607, Note_on_c, 10, 69, 127
1, 81828, Note_off_c, 10, 69, 127
1, 81833, Note_on_c, 7, 67, 127
1, 81942, Note_off_c, 7, 67, 127
1, 81946, Note_on_c, 5, 65, 127
1, 82055, Note_off_c, 5, 65, 127
1, 82058, Note_on_c, 0, 72, 127
1, 82273, Note_off_c, 5, 41, 127
1, 82284, Note_on_c, 10, 69, 127
1, 82284, Note_on_c, 5, 65, 127
1, 82505, Note_off_c, 5, 65, 127
1, 82505, Note_off_c, 10, 69, 127
1, 82510, Note_on_c, 7, 67, 127
1, 82510, Note_on_c, 4, 64, 127
1, 82731, Note_off_c, 4, 64, 127
1, 82731, Note_off_c, 7, 67, 127
1, 82735, Note_on_c, 5, 65, 127
1, 82735, Note_on_c, 2, 62, 127
1, 82844, Note_off_c, 2, 62, 127
1, 82844, Note_off_c, 5, 65, 127
1, 82848, Note_on_c, 4, 64, 127
1, 82848, Note_on_c, 0, 60, 127
1, 82957, Note_off_c, 0, 60, 127
1, 82957, Note_off_c, 4, 64, 127
1, 82960, Note_on_c, 10, 69, 127
1, 82960, Note_on_c, 5, 65, 127
1, 83181, Note_off_c, 5, 65, 127
1, 83181, Note_off_c, 10, 69, 127
1, 83186, Note_on_c, 0, 60, 127
1, 83186, Note_on_c, 10, 69, 127
1, 83186, Note_on_c, 5, 53, 127
1, 83407, Note_off_c, 5, 53, 127
1, 83407, Note_off_c, 10, 69, 127
1, 83407, Note_off_c, 0, 60, 127
1, 83412, Note_on_c, 0, 60, 127
1, 83412, Note_on_c, 7, 67, 127
1, 83412, Note_on_c, 4, 52, 127
1, 83633, Note_off_c, 4, 52, 127
1, 83633, Note_off_c, 7, 67, 127
1, 83633, Note_off_c, 0, 60, 127
1, 83637, Note_on_c, 0, 60, 127
1, 83637, Note_on_c, 4, 64, 127
1, 83637, Note_on_c, 2, 50, 127
1, 83746, Note_off_c, 2, 50, 127
1, 83750, Note_on_c, 0, 48, 127
1, 83838, Note_off_c, 0, 72, 127
1, 83857, Note_off_c, 4, 64, 127
1, 83857, Note_off_c, 0, 60, 127
1, 83859, Note_off_c, 0, 48, 127
1, 83862, Note_on_c, 10, 69, 127
1, 83862, Note_on_c, 0, 60, 127
1, 83862, Note_on_c, 5, 53, 127
1, 84083, Note_off_c, 5, 53, 127
1, 84083, Note_off_c, 0, 60, 127
1, 84083, Note_off_c, 10, 69, 127
1, 84088, Note_on_c, 5, 65, 127
1, 84088, Note_on_c, 11, 70, 127
1, 84088, Note_on_c, 2, 62, 127
1, 84088, Note_on_c, 11, 58, 127
1, 84197, Note_off_c, 11, 70, 127
1, 84197, Note_off_c, 5, 65, 127
1, 84200, Note_on_c, 0, 72, 127
1, 84308, Note_off_c, 11, 58, 127
1, 84308, Note_off_c, 2, 62, 127
1, 84309, Note_off_c, 0, 72, 127
1, 84313, Note_on_c, 10, 69, 127
1, 84313, Note_on_c, 5, 65, 127
1, 84313, Note_on_c, 0, 60, 127
1, 84534, Note_off_c, 0, 60, 127
1, 84534, Note_off_c, 5, 65, 127
1, 84534, Note_off_c, 10, 69, 127
1, 84538, Note_on_c, 4, 64, 127
1, 84538, Note_on_c, 7, 67, 127
1, 84538, Note_on_c, 0, 48, 127
1, 84538, Note_on_c, 11, 58, 127
1, 84647, Note_off_c, 7, 67, 127
1, 84647, Note_off_c, 4, 64, 127
1, 84651, Note_on_c, 5, 65, 127
1, 84758, Note_off_c, 11, 58, 127
1, 84758, Note_off_c, 0, 48, 127
1, 84760, Note_off_c, 5, 65, 127
1, 84763, Note_on_c, 5, 65, 127
1, 84763, Note_on_c, 0, 60, 127
1, 84763, Note_on_c, 10, 57, 127
1, 84763, Note_on_c, 5, 53, 127
1, 84984, Note_off_c, 5, 53, 127
1, 84984, Note_off_c, 10, 57, 127
1, 84984, Note_off_c, 0, 60, 127
1, 84984, Note_off_c, 5, 65, 127
1, 84989, Note_on_c, 5, 65, 127
1, 85210, Note_off_c, 5, 65, 127
1, 85215, Note_on_c, 3, 63, 127
1, 85436, Note_off_c, 3, 63, 127
1, 85440, Note_on_c, 2, 62, 127
1, 85440, Note_on_c, 10, 69, 127
1, 85440, Note_on_c, 5, 77, 127
1, 85549, Note_off_c, 10, 69, 127
1, 85549, Note_off_c, 2, 62, 127
1, 85553, Note_on_c, 0, 60, 127
1, 85660, Note_off_c, 5, 77, 127
1, 85662, Note_off_c, 0, 60, 127
1, 85665, Note_on_c, 11, 70, 127
1, 85665, Note_on_c, 2, 62, 127
1, 85665, Note_on_c, 5, 65, 127
1, 85886, Note_off_c, 5, 65, 127
1, 85886, Note_off_c, 2, 62, 127
1, 85886, Note_off_c, 11, 70, 127
1, 85891, Note_on_c, 11, 58, 127
1, 86000, Note_off_c, 11, 58, 127
1, 86003, Note_on_c, 0, 60, 127
1, 86112, Note_off_c, 0, 60, 127
1, 86116, Note_on_c, 2, 62, 127
1, 86337, Note_off_c, 2, 62, 127
1, 86341, Note_on_c, 10, 69, 127
1, 86341, Note_on_c, 5, 77, 127
1, 86341, Note_on_c, 3, 63, 127
1, 86450, Note_off_c, 3, 63, 127
1, 86450, Note_off_c, 10, 69, 127
1, 86454, Note_on_c, 5, 65, 127
1, 86561, Note_off_c, 5, 77, 127
1, 86563, Note_off_c, 5, 65, 127
1, 86566, Note_on_c, 7, 67, 127
1, 86566, Note_on_c, 11, 70, 127
1, 86787, Note_off_c, 7, 67, 127
1, 86792, Note_on_c, 5, 65, 127
1, 86901, Note_off_c, 5, 65, 127
1, 86904, Note_on_c, 3, 63, 127
1, 87008, Note_off_c, 11, 70, 127
1, 87013, Note_off_c, 3, 63, 127
1, 87017, Note_on_c, 2, 62, 127
1, 87238, Note_off_c, 2, 62, 127
1, 87242, Note_on_c, 5, 77, 127
1, 87242, Note_on_c, 3, 63, 127
1, 87242, Note_on_c, 10, 69, 127
1, 87351, Note_off_c, 10, 69, 127
1, 87351, Note_off_c, 3, 63, 127
1, 87355, Note_on_c, 5, 65, 127
1, 87462, Note_off_c, 5, 77, 127
1, 87464, Note_off_c, 5, 65, 127
1, 87467, Note_on_c, 11, 70, 127
1, 87467, Note_on_c, 7, 67, 127
1, 87688, Note_off_c, 7, 67, 127
1, 87688, Note_off_c, 11, 70, 127
1, 87693, Note_on_c, 5, 65, 127
1, 87693, Note_on_c, 0, 72, 127
1, 87693, Note_on_c, 3, 75, 127
1, 87802, Note_off_c, 0, 72, 127
1, 87802, Note_off_c, 5, 65, 127
1, 87805, Note_on_c, 3, 63, 127
1, 87913, Note_off_c, 3, 75, 127
1, 87914, Note_off_c, 3, 63, 127
1, 87918, Note_on_c, 5, 65, 127
1, 87918, Note_on_c, 0, 72, 127
1, 88139, Note_off_c, 0, 72, 127
1, 88139, Note_off_c, 5, 65, 127
1, 88143, Note_on_c, 7, 67, 127
1, 88143, Note_on_c, 0, 72, 127
1, 88143, Note_on_c, 5, 77, 127
1, 88252, Note_off_c, 0, 72, 127
1, 88252, Note_off_c, 7, 67, 127
1, 88256, Note_on_c, 10, 69, 127
1, 88363, Note_off_c, 5, 77, 127
1, 88365, Note_off_c, 10, 69, 127
1, 88368, Note_on_c, 2, 74, 127
1, 88368, Note_on_c, 11, 70, 127
1, 88589, Note_off_c, 11, 70, 127
1, 88589, Note_off_c, 2, 74, 127
1, 88594, Note_on_c, 2, 74, 127
1, 88594, Note_on_c, 11, 82, 127
1, 88594, Note_on_c, 5, 65, 127
1, 88594, Note_on_c, 11, 58, 127
1, 88815, Note_off_c, 11, 58, 127
1, 88815, Note_off_c, 5, 65, 127
1, 88815, Note_off_c, 11, 82, 127
1, 88815, Note_off_c, 2, 74, 127
1, 88820, Note_on_c, 0, 72, 127
1, 88820, Note_on_c, 8, 80, 127
1, 88820, Note_on_c, 5, 65, 127
1, 89041, Note_off_c, 5, 65, 127
1, 89041, Note_off_c, 8, 80, 127
1, 89041, Note_off_c, 0, 72, 127
1, 89046, Note_on_c, 11, 70, 127
1, 89046, Note_on_c, 7, 79, 127
1, 89046, Note_on_c, 2, 62, 127
1, 89046, Note_on_c, 11, 58, 127
1, 89155, Note_off_c, 7, 79, 127
1, 89155, Note_off_c, 11, 70, 127
1, 89158, Note_on_c, 5, 77, 127
1, 89266, Note_off_c, 11, 58, 127
1, 89266, Note_off_c, 2, 62, 127
1, 89267, Note_off_c, 5, 77, 127
1, 89270, Note_on_c, 11, 70, 127
1, 89270, Note_on_c, 7, 79, 127
1, 89270, Note_on_c, 3, 63, 127
1, 89491, Note_off_c, 3, 63, 127
1, 89491, Note_off_c, 7, 79, 127
1, 89491, Note_off_c, 11, 70, 127
1, 89496, Note_on_c, 5, 77, 127
1, 89605, Note_off_c, 5, 77, 127
1, 89608, Note_on_c, 3, 75, 127
1, 89717, Note_off_c, 3, 75, 127
1, 89721, Note_on_c, 2, 74, 127
1, 89942, Note_off_c, 2, 74, 127
1, 89947, Note_on_c, 11, 70, 127
1, 89947, Note_on_c, 3, 75, 127
1, 89947, Note_on_c, 11, 58, 127
1, 89947, Note_on_c, 5, 65, 127
1, 90056, Note_off_c, 3, 75, 127
1, 90059, Note_on_c, 5, 77, 127
1, 90167, Note_off_c, 5, 65, 127
1, 90167, Note_off_c, 11, 58, 127
1, 90167, Note_off_c, 11, 70, 127
1, 90168, Note_off_c, 5, 77, 127
1, 90171, Note_on_c, 11, 70, 127
1, 90171, Note_on_c, 7, 79, 127
1, 90171, Note_on_c, 3, 63, 127
1, 90171, Note_on_c, 3, 51, 127
1, 90392, Note_off_c, 3, 51, 127
1, 90392, Note_off_c, 3, 63, 127
1, 90392, Note_off_c, 7, 79, 127
1, 90392, Note_off_c, 11, 70, 127
1, 90397, Note_on_c, 5, 77, 127
1, 90506, Note_off_c, 5, 77, 127
1, 90509, Note_on_c, 3, 75, 127
1, 90618, Note_off_c, 3, 75, 127
1, 90622, Note_on_c, 2, 74, 127
1, 90843, Note_off_c, 2, 74, 127
1, 90848, Note_on_c, 3, 75, 127
1, 90848, Note_on_c, 11, 70, 127
1, 90848, Note_on_c, 5, 65, 127
1, 90848, Note_on_c, 11, 58, 127
1, 90957, Note_off_c, 3, 75, 127
1, 90960, Note_on_c, 5, 77, 127
1, 91068, Note_off_c, 11, 58, 127
1, 91068, Note_off_c, 5, 65, 127
1, 91068, Note_off_c, 11, 70, 127
1, 91069, Note_off_c, 5, 77, 127
1, 91072, Note_on_c, 11, 70, 127
1, 91072, Note_on_c, 7, 79, 127
1, 91072, Note_on_c, 3, 63, 127
1, 91072, Note_on_c, 3, 51, 127
1, 91293, Note_off_c, 3, 51, 127
1, 91293, Note_off_c, 3, 63, 127
1, 91293, Note_off_c, 7, 79, 127
1, 91293, Note_off_c, 11, 70, 127
1, 91298, Note_on_c, 11, 70, 127
1, 91298, Note_on_c, 3, 75, 127
1, 91298, Note_on_c, 7, 67, 127
1, 91298, Note_on_c, 0, 48, 127
1, 91407, Note_off_c, 3, 75, 127
1, 91410, Note_on_c, 2, 74, 127
1, 91518, Note_off_c, 0, 48, 127
1, 91518, Note_off_c, 7, 67, 127
1, 91518, Note_off_c, 11, 70, 127
1, 91519, Note_off_c, 2, 74, 127
1, 91523, Note_on_c, 0, 72, 127
1, 91523, Note_on_c, 10, 69, 127
1, 91523, Note_on_c, 5, 53, 127
1, 91744, Note_off_c, 10, 69, 127
1, 91744, Note_off_c, 0, 72, 127
1, 91749, Note_on_c, 10, 69, 127
1, 91749, Note_on_c, 0, 72, 127
1, 91749, Note_on_c, 5, 77, 127
1, 91749, Note_on_c, 5, 41, 127
1, 91966, Note_off_c, 5, 53, 127
1, 91970, Note_off_c, 5, 41, 127
1, 91970, Note_off_c, 5, 77, 127
1, 91970, Note_off_c, 0, 72, 127
1, 91970, Note_off_c, 10, 69, 127
1, 91974, Note_on_c, 2, 74, 127
1, 91974, Note_on_c, 5, 65, 127
1, 91974, Note_on_c, 11, 70, 127
1, 91974, Note_on_c, 11, 46, 127
1, 92195, Note_off_c, 11, 46, 127
1, 92195, Note_off_c, 11, 70, 127
1, 92195, Note_off_c, 5, 65, 127
1, 92195, Note_off_c, 2, 74, 127
1, 92200, Note_on_c, 5, 65, 127
1, 92421, Note_off_c, 5, 65, 127
1, 92426, Note_on_c, 2, 62, 127
1, 92647, Note_off_c, 2, 62, 127
1, 92652, Note_on_c, 0, 60, 127
1, 92761, Note_off_c, 0, 60, 127
1, 92764, Note_on_c, 11, 58, 127
1, 92873, Note_off_c, 11, 58, 127
1, 92876, Note_on_c, 5, 65, 127
1, 93102, Note_on_c, 2, 74, 127
1, 93102, Note_on_c, 11, 58, 127
1, 93323, Note_off_c, 11, 58, 127
1, 93323, Note_off_c, 2, 74, 127
1, 93328, Note_on_c, 0, 72, 127
1, 93328, Note_on_c, 10, 57, 127
1, 93549, Note_off_c, 10, 57, 127
1, 93549, Note_off_c, 0, 72, 127
1, 93554, Note_on_c, 11, 70, 127
1, 93554, Note_on_c, 7, 55, 127
1, 93663, Note_off_c, 7, 55, 127
1, 93663, Note_off_c, 11, 70, 127
1, 93666, Note_on_c, 10, 69, 127
1, 93666, Note_on_c, 5, 53, 127
1, 93775, Note_off_c, 5, 53, 127
1, 93775, Note_off_c, 10, 69, 127
1, 93778, Note_on_c, 2, 74, 127
1, 93778, Note_on_c, 11, 58, 127
1, 93999, Note_off_c, 11, 58, 127
1, 93999, Note_off_c, 2, 74, 127
1, 94004, Note_on_c, 2, 74, 127
1, 94004, Note_on_c, 11, 70, 127
1, 94004, Note_on_c, 11, 46, 127
1, 94225, Note_off_c, 11, 46, 127
1, 94225, Note_off_c, 11, 70, 127
1, 94225, Note_off_c, 2, 74, 127
1, 94230, Note_on_c, 0, 72, 127
1, 94230, Note_on_c, 10, 45, 127
1, 94451, Note_off_c, 10, 45, 127
1, 94451, Note_off_c, 0, 72, 127
1, 94456, Note_on_c, 10, 69, 127
1, 94456, Note_on_c, 5, 77, 127
1, 94456, Note_on_c, 7, 43, 127
1, 94565, Note_off_c, 7, 43, 127
1, 94568, Note_on_c, 5, 41, 127
1, 94656, Note_off_c, 5, 65, 127
1, 94676, Note_off_c, 5, 77, 127
1, 94676, Note_off_c, 10, 69, 127
1, 94677, Note_off_c, 5, 41, 127
1, 94680, Note_on_c, 11, 70, 127
1, 94680, Note_on_c, 2, 74, 127
1, 94680, Note_on_c, 11, 46, 127
1, 94901, Note_off_c, 11, 46, 127
1, 94901, Note_off_c, 2, 74, 127
1, 94901, Note_off_c, 11, 70, 127
1, 94906, Note_on_c, 3, 63, 127
1, 94906, Note_on_c, 11, 70, 127
1, 94906, Note_on_c, 3, 51, 127
1, 94906, Note_on_c, 7, 55, 127
1, 95015, Note_off_c, 3, 63, 127
1, 95019, Note_on_c, 5, 65, 127
1, 95126, Note_off_c, 7, 55, 127
1, 95126, Note_off_c, 3, 51, 127
1, 95126, Note_off_c, 11, 70, 127
1, 95128, Note_off_c, 5, 65, 127
1, 95131, Note_on_c, 2, 62, 127
1, 95131, Note_on_c, 11, 70, 127
1, 95131, Note_on_c, 5, 53, 127
1, 95352, Note_off_c, 5, 53, 127
1, 95352, Note_off_c, 11, 70, 127
1, 95352, Note_off_c, 2, 62, 127
1, 95357, Note_on_c, 0, 60, 127
1, 95357, Note_on_c, 10, 69, 127
1, 95357, Note_on_c, 5, 41, 127
1, 95357, Note_on_c, 5, 53, 127
1, 95466, Note_off_c, 0, 60, 127
1, 95469, Note_on_c, 11, 58, 127
1, 95577, Note_off_c, 5, 53, 127
1, 95577, Note_off_c, 5, 41, 127
1, 95577, Note_off_c, 10, 69, 127
1, 95578, Note_off_c, 11, 58, 127
1, 95581, Note_on_c, 11, 58, 127
1, 95581, Note_on_c, 11, 70, 127
1, 95581, Note_on_c, 11, 46, 127
1, 95581, Note_on_c, 5, 53, 127
1, 95802, Note_off_c, 5, 53, 127
1, 95802, Note_off_c, 11, 46, 127
1, 95802, Note_off_c, 11, 58, 127
1, 95807, Note_on_c, 5, 65, 127
1, 96028, Note_off_c, 5, 65, 127
1, 96033, Note_on_c, 2, 62, 127
1, 96254, Note_off_c, 2, 62, 127
1, 96259, Note_on_c, 0, 60, 127
1, 96368, Note_off_c, 0, 60, 127
1, 96371, Note_on_c, 11, 58, 127
1, 96472, Note_off_c, 11, 70, 127
1, 96480, Note_off_c, 11, 58, 127
1, 96484, Note_on_c, 5, 65, 127
1, 96709, Note_on_c, 2, 74, 127
1, 96709, Note_on_c, 11, 58, 127
1, 96930, Note_off_c, 11, 58, 127
1, 96930, Note_off_c, 2, 74, 127
1, 96935, Note_on_c, 0, 72, 127
1, 96935, Note_on_c, 10, 57, 127
1, 97156, Note_off_c, 10, 57, 127
1, 97156, Note_off_c, 0, 72, 127
1, 97161, Note_on_c, 11, 70, 127
1, 97161, Note_on_c, 7, 55, 127
1, 97270, Note_off_c, 7, 55, 127
1, 97270, Note_off_c, 11, 70, 127
1, 97273, Note_on_c, 10, 69, 127
1, 97273, Note_on_c, 5, 53, 127
1, 97382, Note_off_c, 5, 53, 127
1, 97382, Note_off_c, 10, 69, 127
1, 97386, Note_on_c, 2, 74, 127
1, 97386, Note_on_c, 11, 58, 127
1, 97607, Note_off_c, 11, 58, 127
1, 97611, Note_on_c, 11, 46, 127
1, 97781, Note_off_c, 2, 74, 127
1, 97832, Note_off_c, 11, 46, 127
1, 97837, Note_on_c, 0, 72, 127
1, 97837, Note_on_c, 10, 45, 127
1, 98058, Note_off_c, 10, 45, 127
1, 98058, Note_off_c, 0, 72, 127
1, 98063, Note_on_c, 10, 69, 127
1, 98063, Note_on_c, 5, 77, 127
1, 98063, Note_on_c, 7, 43, 127
1, 98172, Note_off_c, 7, 43, 127
1, 98175, Note_on_c, 5, 41, 127
1, 98264, Note_off_c, 5, 65, 127
1, 98283, Note_off_c, 5, 77, 127
1, 98283, Note_off_c, 10, 69, 127
1, 98284, Note_off_c, 5, 41, 127
1, 98288, Note_on_c, 2, 74, 127
1, 98288, Note_on_c, 11, 70, 127
1, 98288, Note_on_c, 11, 46, 127
1, 98509, Note_off_c, 11, 46, 127
1, 98509, Note_off_c, 11, 70, 127
1, 98509, Note_off_c, 2, 74, 127
1, 98513, Note_on_c, 3, 63, 127
1, 98513, Note_on_c, 11, 70, 127
1, 98513, Note_on_c, 7, 55, 127
1, 98513, Note_on_c, 3, 51, 127
1, 98622, Note_off_c, 3, 63, 127
1, 98734, Note_off_c, 3, 51, 127
1, 98734, Note_off_c, 7, 55, 127
1, 98734, Note_off_c, 11, 70, 127
1, 98739, Note_on_c, 2, 62, 127
1, 98739, Note_on_c, 11, 70, 127
1, 98739, Note_on_c, 5, 53, 127
1, 98960, Note_off_c, 5, 53, 127
1, 98960, Note_off_c, 11, 70, 127
1, 98960, Note_off_c, 2, 62, 127
1, 98965, Note_on_c, 0, 60, 127
1, 98965, Note_on_c, 10, 69, 127
1, 98965, Note_on_c, 5, 53, 127
1, 98965, Note_on_c, 5, 41, 127
1, 99186, Note_off_c, 5, 41, 127
1, 99186, Note_off_c, 5, 53, 127
1, 99186, Note_off_c, 10, 69, 127
1, 99186, Note_off_c, 0, 60, 127
1, 99191, Note_on_c, 11, 70, 127
1, 99191, Note_on_c, 11, 58, 127
1, 99191, Note_on_c, 11, 46, 127
1, 99191, Note_on_c, 5, 53, 127
1, 99412, Note_off_c, 5, 53, 127
1, 99412, Note_off_c, 11, 46, 127
1, 99412, Note_off_c, 11, 58, 127
1, 99412, Note_off_c, 11, 70, 127
1, 99417, Note_on_c, 2, 62, 127
1, 99417, Note_on_c, 11, 70, 127
1, 99417, Note_on_c, 7, 55, 127
1, 99417, Note_on_c, 11, 58, 127
1, 99592, Note_off_c, 11, 58, 127
1, 99592, Note_off_c, 2, 62, 127
1, 99638, Note_off_c, 7, 55, 127
1, 99638, Note_off_c, 11, 70, 127
1, 99642, Note_on_c, 2, 62, 127
1, 99642, Note_on_c, 2, 74, 127
1, 99642, Note_on_c, 10, 57, 127
1, 99642, Note_on_c, 5, 53, 127
1, 99817, Note_off_c, 10, 57, 127
1, 99817, Note_off_c, 2, 62, 127
1, 99863, Note_off_c, 5, 53, 127
1, 99863, Note_off_c, 2, 74, 127
1, 99868, Note_on_c, 2, 62, 127
1, 99868, Note_on_c, 3, 51, 127
1, 99868, Note_on_c, 5, 53, 127
1, 99977, Note_off_c, 3, 51, 127
1, 99980, Note_on_c, 2, 50, 127
1, 100053, Note_off_c, 5, 53, 127
1, 100088, Note_off_c, 2, 62, 127
1, 100089, Note_off_c, 2, 50, 127
1, 100093, Note_on_c, 11, 58, 127
1, 100093, Note_on_c, 7, 67, 127
1, 100093, Note_on_c, 3, 51, 127
1, 100093, Note_on_c, 7, 55, 127
1, 100314, Note_off_c, 3, 51, 127
1, 100319, Note_on_c, 2, 50, 127
1, 100428, Note_off_c, 2, 50, 127
1, 100431, Note_on_c, 0, 48, 127
1, 100535, Note_off_c, 7, 55, 127
1, 100535, Note_off_c, 7, 67, 127
1, 100535, Note_off_c, 11, 58, 127
1, 100540, Note_off_c, 0, 48, 127
1, 100543, Note_on_c, 11, 46, 127
1, 100764, Note_off_c, 11, 46, 127
1, 100769, Note_on_c, 5, 65, 127
1, 100769, Note_on_c, 10, 69, 127
1, 100769, Note_on_c, 2, 74, 127
1, 100769, Note_on_c, 0, 48, 127
1, 100878, Note_off_c, 0, 48, 127
1, 100881, Note_on_c, 2, 50, 127
1, 100966, Note_off_c, 2, 74, 127
1, 100966, Note_off_c, 10, 69, 127
1, 100966, Note_off_c, 5, 65, 127
1, 100990, Note_off_c, 2, 50, 127
1, 100994, Note_on_c, 7, 67, 127
1, 100994, Note_on_c, 3, 63, 127
1, 100994, Note_on_c, 11, 58, 127
1, 100994, Note_on_c, 3, 51, 127
1, 101215, Note_off_c, 3, 51, 127
1, 101220, Note_on_c, 2, 50, 127
1, 101329, Note_off_c, 2, 50, 127
1, 101332, Note_on_c, 0, 48, 127
1, 101436, Note_off_c, 11, 58, 127
1, 101436, Note_off_c, 3, 63, 127
1, 101436, Note_off_c, 7, 67, 127
1, 101441, Note_off_c, 0, 48, 127
1, 101444, Note_on_c, 11, 46, 127
1, 101665, Note_off_c, 11, 46, 127
1, 101670, Note_on_c, 2, 62, 127
1, 101670, Note_on_c, 6, 66, 127
1, 101670, Note_on_c, 2, 74, 127
1, 101670, Note_on_c, 0, 48, 127
1, 101779, Note_off_c, 0, 48, 127
1, 101782, Note_on_c, 2, 50, 127
1, 101855, Note_off_c, 6, 66, 127
1, 101855, Note_off_c, 2, 62, 127
1, 101890, Note_off_c, 2, 74, 127
1, 101891, Note_off_c, 2, 50, 127
1, 101895, Note_on_c, 7, 67, 127
1, 101895, Note_on_c, 0, 60, 127
1, 101895, Note_on_c, 3, 51, 127
1, 102046, Note_off_c, 0, 60, 127
1, 102116, Note_off_c, 3, 51, 127
1, 102116, Note_off_c, 7, 67, 127
1, 102121, Note_on_c, 3, 63, 127
1, 102121, Note_on_c, 7, 67, 127
1, 102121, Note_on_c, 0, 72, 127
1, 102121, Note_on_c, 2, 50, 127
1, 102230, Note_off_c, 2, 50, 127
1, 102233, Note_on_c, 0, 48, 127
1, 102272, Note_off_c, 3, 63, 127
1, 102342, Note_off_c, 0, 72, 127
1, 102343, Note_off_c, 0, 48, 127
1, 102346, Note_on_c, 2, 62, 127
1, 102346, Note_on_c, 10, 69, 127
1, 102346, Note_on_c, 2, 50, 127
1, 102509, Note_off_c, 2, 62, 127
1, 102564, Note_off_c, 7, 67, 127
1, 102567, Note_off_c, 2, 50, 127
1, 102567, Note_off_c, 10, 69, 127
1, 102572, Note_on_c, 6, 66, 127
1, 102572, Note_on_c, 10, 69, 127
1, 102572, Note_on_c, 2, 74, 127
1, 102572, Note_on_c, 2, 38, 127
1, 102723, Note_off_c, 10, 69, 127
1, 102723, Note_off_c, 6, 66, 127
1, 102793, Note_off_c, 2, 38, 127
1, 102793, Note_off_c, 2, 74, 127
1, 102798, Note_on_c, 2, 62, 127
1, 102798, Note_on_c, 7, 67, 127
1, 102798, Note_on_c, 11, 70, 127
1, 102798, Note_on_c, 7, 43, 127
1, 102937, Note_off_c, 7, 67, 127
1, 103019, Note_off_c, 7, 43, 127
1, 103019, Note_off_c, 11, 70, 127
1, 103019, Note_off_c, 2, 62, 127
1, 103024, Note_on_c, 11, 70, 127
1, 103024, Note_on_c, 7, 79, 127
1, 103024, Note_on_c, 2, 62, 127
1, 103024, Note_on_c, 7, 55, 127
1, 103210, Note_off_c, 2, 62, 127
1, 103210, Note_off_c, 11, 70, 127
1, 103245, Note_off_c, 7, 55, 127
1, 103245, Note_off_c, 7, 79, 127
1, 103250, Note_on_c, 5, 77, 127
1, 103250, Note_on_c, 10, 69, 127
1, 103250, Note_on_c, 2, 62, 127
1, 103471, Note_off_c, 2, 62, 127
1, 103471, Note_off_c, 10, 69, 127
1, 103471, Note_off_c, 5, 77, 127
1, 103475, Note_on_c, 10, 69, 127
1, 103475, Note_on_c, 3, 75, 127
1, 103475, Note_on_c, 0, 60, 127
1, 103475, Note_on_c, 2, 50, 127
1, 103584, Note_off_c, 3, 75, 127
1, 103588, Note_on_c, 2, 74, 127
1, 103695, Note_off_c, 2, 50, 127
1, 103695, Note_off_c, 0, 60, 127
1, 103695, Note_off_c, 10, 69, 127
1, 103697, Note_off_c, 2, 74, 127
1, 103700, Note_on_c, 3, 75, 127
1, 103700, Note_on_c, 7, 67, 127
1, 103700, Note_on_c, 11, 58, 127
1, 103700, Note_on_c, 7, 55, 127
1, 103921, Note_off_c, 3, 75, 127
1, 103926, Note_on_c, 2, 74, 127
1, 103956, Note_off_c, 7, 55, 127
1, 103956, Note_off_c, 11, 58, 127
1, 103956, Note_off_c, 7, 67, 127
1, 104035, Note_off_c, 2, 74, 127
1, 104038, Note_on_c, 0, 72, 127
1, 104147, Note_off_c, 0, 72, 127
1, 104151, Note_on_c, 11, 70, 127
1, 104372, Note_off_c, 11, 70, 127
1, 104376, Note_on_c, 0, 72, 127
1, 104376, Note_on_c, 10, 69, 127
1, 104376, Note_on_c, 6, 54, 127
1, 104376, Note_on_c, 10, 57, 127
1, 104485, Note_off_c, 0, 72, 127
1, 104489, Note_on_c, 2, 74, 127
1, 104584, Note_off_c, 10, 57, 127
1, 104584, Note_off_c, 6, 54, 127
1, 104596, Note_off_c, 10, 69, 127
1, 104598, Note_off_c, 2, 74, 127
1, 104601, Note_on_c, 7, 67, 127
1, 104601, Note_on_c, 3, 75, 127
1, 104601, Note_on_c, 7, 55, 127
1, 104601, Note_on_c, 11, 58, 127
1, 104822, Note_off_c, 3, 75, 127
1, 104822, Note_off_c, 7, 67, 127
1, 104827, Note_on_c, 2, 74, 127
1, 104927, Note_off_c, 11, 58, 127
1, 104927, Note_off_c, 7, 55, 127
1, 104937, Note_off_c, 2, 74, 127
1, 104940, Note_on_c, 0, 72, 127
1, 105049, Note_off_c, 0, 72, 127
1, 105053, Note_on_c, 11, 70, 127
1, 105274, Note_off_c, 11, 70, 127
1, 105278, Note_on_c, 0, 72, 127
1, 105278, Note_on_c, 10, 69, 127
1, 105278, Note_on_c, 10, 57, 127
1, 105278, Note_on_c, 6, 54, 127
1, 105387, Note_off_c, 10, 69, 127
1, 105387, Note_off_c, 0, 72, 127
1, 105391, Note_on_c, 2, 74, 127
1, 105486, Note_off_c, 6, 54, 127
1, 105486, Note_off_c, 10, 57, 127
1, 105500, Note_off_c, 2, 74, 127
1, 105503, Note_on_c, 7, 67, 127
1, 105503, Note_on_c, 3, 75, 127
1, 105503, Note_on_c, 7, 55, 127
1, 105503, Note_on_c, 11, 58, 127
1, 105724, Note_off_c, 11, 58, 127
1, 105724, Note_off_c, 7, 55, 127
1, 105724, Note_off_c, 3, 75, 127
1, 105724, Note_off_c, 7, 67, 127
1, 105729, Note_on_c, 0, 72, 127
1, 105729, Note_on_c, 7, 67, 127
1, 105729, Note_on_c, 0, 60, 127
1, 105729, Note_on_c, 3, 51, 127
1, 105838, Note_off_c, 7, 67, 127
1, 105838, Note_off_c, 0, 72, 127
1, 105841, Note_on_c, 2, 74, 127
1, 105949, Note_off_c, 3, 51, 127
1, 105949, Note_off_c, 0, 60, 127
1, 105950, Note_off_c, 2, 74, 127
1, 105954, Note_on_c, 11, 70, 127
1, 105954, Note_on_c, 7, 67, 127
1, 105954, Note_on_c, 2, 62, 127
1, 105954, Note_on_c, 2, 50, 127
1, 106175, Note_off_c, 2, 50, 127
1, 106175, Note_off_c, 2, 62, 127
1, 106175, Note_off_c, 7, 67, 127
1, 106175, Note_off_c, 11, 70, 127
1, 106179, Note_on_c, 10, 69, 127
1, 106179, Note_on_c, 6, 66, 127
1, 106179, Note_on_c, 2, 38, 127
1, 106179, Note_on_c, 0, 60, 127
1, 106288, Note_off_c, 10, 69, 127
1, 106292, Note_on_c, 7, 67, 127
1, 106399, Note_off_c, 0, 60, 127
1, 106399, Note_off_c, 2, 38, 127
1, 106399, Note_off_c, 6, 66, 127
1, 106401, Note_off_c, 7, 67, 127
1, 106404, Note_on_c, 11, 58, 127
1, 106404, Note_on_c, 7, 67, 127
1, 106404, Note_on_c, 7, 43, 127
1, 106625, Note_off_c, 11, 58, 127
1, 106658, Note_on_c, 7, 79, 127
1, 106730, Note_off_c, 7, 43, 127
1, 106797, Note_off_c, 7, 79, 127
1, 106847, Note_off_c, 7, 67, 127
1, 106884, Note_on_c, 1, 73, 127
1, 107105, Note_off_c, 1, 73, 127
1, 107110, Note_on_c, 1, 61, 127
1, 107110, Note_on_c, 10, 57, 127
1, 107110, Note_on_c, 4, 64, 127
1, 107110, Note_on_c, 12, 71, 127
1, 107219, Note_off_c, 12, 71, 127
1, 107222, Note_on_c, 10, 69, 127
1, 107330, Note_off_c, 4, 64, 127
1, 107330, Note_off_c, 10, 57, 127
1, 107330, Note_off_c, 1, 61, 127
1, 107331, Note_off_c, 10, 69, 127
1, 107335, Note_on_c, 5, 53, 127
1, 107335, Note_on_c, 2, 62, 127
1, 107335, Note_on_c, 10, 69, 127
1, 107335, Note_on_c, 2, 74, 127
1, 107556, Note_off_c, 2, 74, 127
1, 107556, Note_off_c, 10, 69, 127
1, 107556, Note_off_c, 2, 62, 127
1, 107556, Note_off_c, 5, 53, 127
1, 107561, Note_on_c, 7, 55, 127
1, 107561, Note_on_c, 10, 81, 127
1, 107561, Note_on_c, 3, 75, 127
1, 107561, Note_on_c, 0, 72, 127
1, 107670, Note_off_c, 7, 55, 127
1, 107673, Note_on_c, 10, 57, 127
1, 107700, Note_off_c, 0, 72, 127
1, 107700, Note_off_c, 3, 75, 127
1, 107782, Note_off_c, 10, 81, 127
1, 107783, Note_off_c, 10, 57, 127
1, 107786, Note_on_c, 2, 50, 127
1, 107786, Note_on_c, 6, 78, 127
1, 107786, Note_on_c, 10, 69, 127
1, 107786, Note_on_c, 2, 74, 127
1, 107972, Note_off_c, 2, 74, 127
1, 107972, Note_off_c, 10, 69, 127
1, 108007, Note_off_c, 6, 78, 127
1, 108007, Note_off_c, 2, 50, 127
1, 108012, Note_on_c, 6, 66, 127
1, 108012, Note_on_c, 2, 62, 127
1, 108012, Note_on_c, 4, 76, 127
1, 108012, Note_on_c, 10, 69, 127
1, 108121, Note_off_c, 4, 76, 127
1, 108124, Note_on_c, 2, 74, 127
1, 108232, Note_off_c, 10, 69, 127
1, 108232, Note_off_c, 2, 62, 127
1, 108232, Note_off_c, 6, 66, 127
1, 108233, Note_off_c, 2, 74, 127
1, 108237, Note_on_c, 11, 58, 127
1, 108237, Note_on_c, 7, 79, 127
1, 108237, Note_on_c, 2, 74, 127
1, 108237, Note_on_c, 11, 70, 127
1, 108376, Note_off_c, 11, 70, 127
1, 108376, Note_off_c, 2, 74, 127
1, 108475, Note_off_c, 7, 79, 127
1, 108480, Note_off_c, 11, 58, 127
1, 108481, Note_on_c, 11, 70, 127
1, 108481, Note_on_c, 2, 74, 127
1, 108481, Note_on_c, 11, 82, 127
1, 108481, Note_on_c, 10, 57, 127
1, 108590, Note_off_c, 10, 57, 127
1, 108603, Note_on_c, 7, 55, 127
1, 108620, Note_off_c, 2, 74, 127
1, 108620, Note_off_c, 11, 70, 127
1, 108702, Note_off_c, 11, 82, 127
1, 108713, Note_off_c, 7, 55, 127
1, 108716, Note_on_c, 4, 76, 127
1, 108716, Note_on_c, 7, 67, 127
1, 108716, Note_on_c, 0, 72, 127
1, 108716, Note_on_c, 0, 60, 127
1, 108926, Note_off_c, 0, 72, 127
1, 108926, Note_off_c, 7, 67, 127
1, 108937, Note_off_c, 0, 60, 127
1, 108937, Note_off_c, 4, 76, 127
1, 108942, Note_on_c, 7, 67, 127
1, 108942, Note_on_c, 2, 74, 127
1, 108942, Note_on_c, 4, 64, 127
1, 109051, Note_off_c, 2, 74, 127
1, 109054, Note_on_c, 0, 72, 127
1, 109162, Note_off_c, 4, 64, 127
1, 109162, Note_off_c, 7, 67, 127
1, 109163, Note_off_c, 0, 72, 127
1, 109166, Note_on_c, 5, 77, 127
1, 109166, Note_on_c, 10, 69, 127
1, 109166, Note_on_c, 0, 72, 127
1, 109166, Note_on_c, 10, 57, 127
1, 109305, Note_off_c, 0, 72, 127
1, 109305, Note_off_c, 10, 69, 127
1, 109387, Note_off_c, 10, 57, 127
1, 109387, Note_off_c, 5, 77, 127
1, 109392, Note_on_c, 10, 69, 127
1, 109392, Note_on_c, 0, 72, 127
1, 109392, Note_on_c, 10, 81, 127
1, 109392, Note_on_c, 7, 55, 127
1, 109501, Note_off_c, 7, 55, 127
1, 109505, Note_on_c, 5, 53, 127
1, 109531, Note_off_c, 0, 72, 127
1, 109531, Note_off_c, 10, 69, 127
1, 109613, Note_off_c, 10, 81, 127
1, 109615, Note_off_c, 5, 53, 127
1, 109618, Note_on_c, 5, 65, 127
1, 109618, Note_on_c, 2, 74, 127
1, 109618, Note_on_c, 11, 70, 127
1, 109618, Note_on_c, 11, 58, 127
1, 109839, Note_off_c, 11, 58, 127
1, 109839, Note_off_c, 11, 70, 127
1, 109839, Note_off_c, 2, 74, 127
1, 109839, Note_off_c, 5, 65, 127
1, 109844, Note_on_c, 7, 79, 127
1, 109844, Note_on_c, 2, 74, 127
1, 109844, Note_on_c, 11, 70, 127
1, 109844, Note_on_c, 10, 57, 127
1, 109953, Note_off_c, 10, 57, 127
1, 109956, Note_on_c, 7, 55, 127
1, 110064, Note_off_c, 11, 70, 127
1, 110064, Note_off_c, 2, 74, 127
1, 110064, Note_off_c, 7, 79, 127
1, 110065, Note_off_c, 7, 55, 127
1, 110068, Note_on_c, 10, 69, 127
1, 110068, Note_on_c, 1, 73, 127
1, 110068, Note_on_c, 10, 57, 127
1, 110068, Note_on_c, 4, 64, 127
1, 110289, Note_off_c, 4, 64, 127
1, 110289, Note_off_c, 10, 57, 127
1, 110289, Note_off_c, 1, 73, 127
1, 110289, Note_off_c, 10, 69, 127
1, 110294, Note_on_c, 12, 71, 127
1, 110294, Note_on_c, 2, 62, 127
1, 110403, Note_off_c, 2, 62, 127
1, 110403, Note_off_c, 12, 71, 127
1, 110407, Note_on_c, 10, 69, 127
1, 110407, Note_on_c, 1, 61, 127
1, 110516, Note_off_c, 1, 61, 127
1, 110516, Note_off_c, 10, 69, 127
1, 110519, Note_on_c, 5, 77, 127
1, 110519, Note_on_c, 2, 62, 127
1, 110740, Note_off_c, 2, 62, 127
1, 110740, Note_off_c, 5, 77, 127
1, 110745, Note_on_c, 10, 69, 127
1, 110745, Note_on_c, 7, 79, 127
1, 110745, Note_on_c, 4, 64, 127
1, 110745, Note_on_c, 10, 57, 127
1, 110854, Note_off_c, 10, 57, 127
1, 110854, Note_off_c, 4, 64, 127
1, 110854, Note_off_c, 7, 79, 127
1, 110857, Note_on_c, 5, 77, 127
1, 110857, Note_on_c, 2, 62, 127
1, 110965, Note_off_c, 10, 69, 127
1, 110966, Note_off_c, 2, 62, 127
1, 110966, Note_off_c, 5, 77, 127
1, 110969, Note_on_c, 10, 69, 127
1, 110969, Note_on_c, 4, 76, 127
1, 110969, Note_on_c, 10, 57, 127
1, 110969, Note_on_c, 1, 61, 127
1, 111190, Note_off_c, 1, 61, 127
1, 111190, Note_off_c, 10, 57, 127
1, 111190, Note_off_c, 4, 76, 127
1, 111190, Note_off_c, 10, 69, 127
1, 111195, Note_on_c, 2, 74, 127
1, 111195, Note_on_c, 12, 59, 127
1, 111304, Note_off_c, 12, 59, 127
1, 111304, Note_off_c, 2, 74, 127
1, 111308, Note_on_c, 1, 73, 127
1, 111308, Note_on_c, 10, 57, 127
1, 111417, Note_off_c, 10, 57, 127
1, 111417, Note_off_c, 1, 73, 127
1, 111420, Note_on_c, 2, 74, 127
1, 111420, Note_on_c, 5, 65, 127
1, 111641, Note_off_c, 5, 65, 127
1, 111641, Note_off_c, 2, 74, 127
1, 111646, Note_on_c, 10, 69, 127
1, 111646, Note_on_c, 7, 67, 127
1, 111646, Note_on_c, 4, 76, 127
1, 111646, Note_on_c, 10, 57, 127
1, 111755, Note_off_c, 4, 76, 127
1, 111755, Note_off_c, 7, 67, 127
1, 111758, Note_on_c, 5, 65, 127
1, 111758, Note_on_c, 2, 74, 127
1, 111866, Note_off_c, 10, 57, 127
1, 111866, Note_off_c, 10, 69, 127
1, 111867, Note_off_c, 2, 74, 127
1, 111867, Note_off_c, 5, 65, 127
1, 111870, Note_on_c, 10, 69, 127
1, 111870, Note_on_c, 4, 64, 127
1, 111870, Note_on_c, 1, 73, 127
1, 111870, Note_on_c, 10, 45, 127
1, 112091, Note_off_c, 10, 45, 127
1, 112091, Note_off_c, 1, 73, 127
1, 112091, Note_off_c, 4, 64, 127
1, 112091, Note_off_c, 10, 69, 127
1, 112096, Note_on_c, 7, 67, 127
1, 112096, Note_on_c, 0, 72, 127
1, 112096, Note_on_c, 2, 62, 127
1, 112096, Note_on_c, 2, 50, 127
1, 112205, Note_off_c, 7, 67, 127
1, 112209, Note_on_c, 6, 66, 127
1, 112316, Note_off_c, 2, 50, 127
1, 112316, Note_off_c, 2, 62, 127
1, 112316, Note_off_c, 0, 72, 127
1, 112318, Note_off_c, 6, 66, 127
1, 112321, Note_on_c, 12, 71, 127
1, 112321, Note_on_c, 7, 67, 127
1, 112321, Note_on_c, 2, 62, 127
1, 112321, Note_on_c, 7, 55, 127
1, 112542, Note_off_c, 7, 55, 127
1, 112542, Note_off_c, 2, 62, 127
1, 112542, Note_off_c, 7, 67, 127
1, 112542, Note_off_c, 12, 71, 127
1, 112547, Note_on_c, 11, 70, 127
1, 112547, Note_on_c, 7, 67, 127
1, 112547, Note_on_c, 4, 52, 127
1, 112547, Note_on_c, 7, 55, 127
1, 112656, Note_off_c, 4, 52, 127
1, 112656, Note_off_c, 7, 67, 127
1, 112659, Note_on_c, 5, 65, 127
1, 112659, Note_on_c, 2, 50, 127
1, 112767, Note_off_c, 7, 55, 127
1, 112767, Note_off_c, 11, 70, 127
1, 112768, Note_off_c, 2, 50, 127
1, 112768, Note_off_c, 5, 65, 127
1, 112771, Note_on_c, 10, 69, 127
1, 112771, Note_on_c, 4, 64, 127
1, 112771, Note_on_c, 10, 57, 127
1, 112771, Note_on_c, 1, 49, 127
1, 112992, Note_off_c, 1, 49, 127
1, 112992, Note_off_c, 10, 57, 127
1, 112992, Note_off_c, 4, 64, 127
1, 112992, Note_off_c, 10, 69, 127
1, 112997, Note_on_c, 7, 67, 127
1, 112997, Note_on_c, 2, 62, 127
1, 112997, Note_on_c, 2, 50, 127
1, 112997, Note_on_c, 10, 57, 127
1, 113106, Note_off_c, 7, 67, 127
1, 113110, Note_on_c, 5, 65, 127
1, 113217, Note_off_c, 10, 57, 127
1, 113217, Note_off_c, 2, 50, 127
1, 113217, Note_off_c, 2, 62, 127
1, 113219, Note_off_c, 5, 65, 127
1, 113222, Note_on_c, 5, 65, 127
1, 113222, Note_on_c, 2, 62, 127
1, 113222, Note_on_c, 10, 57, 127
1, 113443, Note_off_c, 10, 57, 127
1, 113443, Note_off_c, 2, 62, 127
1, 113443, Note_off_c, 5, 65, 127
1, 113448, Note_on_c, 4, 64, 127
1, 113448, Note_on_c, 1, 61, 127
1, 113448, Note_on_c, 10, 45, 127
1, 113448, Note_on_c, 7, 55, 127
1, 113557, Note_off_c, 4, 64, 127
1, 113560, Note_on_c, 2, 62, 127
1, 113668, Note_off_c, 7, 55, 127
1, 113668, Note_off_c, 10, 45, 127
1, 113668, Note_off_c, 1, 61, 127
1, 113669, Note_off_c, 2, 62, 127
1, 113672, Note_on_c, 2, 62, 127
1, 113672, Note_on_c, 5, 53, 127
1, 113672, Note_on_c, 2, 50, 127
1, 113893, Note_off_c, 2, 50, 127
1, 113893, Note_off_c, 5, 53, 127
1, 113893, Note_off_c, 2, 62, 127
1, 113927, Note_on_c, 2, 62, 127
1, 113927, Note_on_c, 5, 65, 127
1, 113927, Note_on_c, 2, 74, 127
1, 113927, Note_on_c, 10, 69, 127
1, 114066, Note_off_c, 10, 69, 127
1, 114066, Note_off_c, 5, 65, 127
1, 114148, Note_off_c, 2, 74, 127
1, 114148, Note_off_c, 2, 62, 127
1, 114153, Note_on_c, 0, 60, 127
1, 114153, Note_on_c, 4, 64, 127
1, 114153, Note_on_c, 10, 81, 127
1, 114153, Note_on_c, 10, 69, 127
1, 114292, Note_off_c, 10, 69, 127
1, 114292, Note_off_c, 4, 64, 127
1, 114374, Note_off_c, 10, 81, 127
1, 114374, Note_off_c, 0, 60, 127
1, 114378, Note_on_c, 0, 60, 127
1, 114378, Note_on_c, 11, 58, 127
1, 114378, Note_on_c, 10, 69, 127
1, 114487, Note_off_c, 11, 58, 127
1, 114491, Note_on_c, 10, 57, 127
1, 114517, Note_off_c, 0, 60, 127
1, 114599, Note_off_c, 10, 69, 127
1, 114601, Note_off_c, 10, 57, 127
1, 114604, Note_on_c, 11, 58, 127
1, 114604, Note_on_c, 2, 62, 127
1, 114604, Note_on_c, 5, 65, 127
1, 114604, Note_on_c, 2, 74, 127
1, 114825, Note_off_c, 11, 58, 127
1, 114830, Note_on_c, 10, 57, 127
1, 114939, Note_off_c, 10, 57, 127
1, 114942, Note_on_c, 7, 55, 127
1, 115046, Note_off_c, 2, 74, 127
1, 115046, Note_off_c, 5, 65, 127
1, 115046, Note_off_c, 2, 62, 127
1, 115051, Note_off_c, 7, 55, 127
1, 115055, Note_on_c, 5, 53, 127
1, 115276, Note_off_c, 5, 53, 127
1, 115281, Note_on_c, 7, 55, 127
1, 115281, Note_on_c, 10, 69, 127
1, 115281, Note_on_c, 10, 81, 127
1, 115281, Note_on_c, 1, 73, 127
1, 115390, Note_off_c, 7, 55, 127
1, 115393, Note_on_c, 10, 57, 127
1, 115420, Note_off_c, 1, 73, 127
1, 115420, Note_off_c, 10, 69, 127
1, 115502, Note_off_c, 10, 81, 127
1, 115503, Note_off_c, 10, 57, 127
1, 115506, Note_on_c, 11, 58, 127
1, 115506, Note_on_c, 5, 65, 127
1, 115506, Note_on_c, 2, 74, 127
1, 115727, Note_off_c, 11, 58, 127
1, 115732, Note_on_c, 10, 57, 127
1, 115841, Note_off_c, 10, 57, 127
1, 115844, Note_on_c, 7, 55, 127
1, 115948, Note_off_c, 2, 74, 127
1, 115948, Note_off_c, 5, 65, 127
1, 115953, Note_off_c, 7, 55, 127
1, 115957, Note_on_c, 5, 53, 127
1, 116178, Note_off_c, 5, 53, 127
1, 116183, Note_on_c, 7, 55, 127
1, 116183, Note_on_c, 10, 81, 127
1, 116183, Note_on_c, 1, 73, 127
1, 116183, Note_on_c, 10, 69, 127
1, 116292, Note_off_c, 7, 55, 127
1, 116295, Note_on_c, 10, 57, 127
1, 116322, Note_off_c, 1, 73, 127
1, 116404, Note_off_c, 10, 69, 127
1, 116404, Note_off_c, 10, 81, 127
1, 116405, Note_off_c, 10, 57, 127
1, 116408, Note_on_c, 11, 58, 127
1, 116408, Note_on_c, 2, 74, 127
1, 116408, Note_on_c, 5, 65, 127
1, 116629, Note_off_c, 5, 65, 127
1, 116629, Note_off_c, 2, 74, 127
1, 116629, Note_off_c, 11, 58, 127
1, 116634, Note_on_c, 10, 57, 127
1, 116634, Note_on_c, 2, 74, 127
1, 116634, Note_on_c, 11, 70, 127
1, 116634, Note_on_c, 7, 79, 127
1, 116743, Note_off_c, 10, 57, 127
1, 116746, Note_on_c, 7, 55, 127
1, 116854, Note_off_c, 7, 79, 127
1, 116854, Note_off_c, 11, 70, 127
1, 116855, Note_off_c, 7, 55, 127
1, 116859, Note_on_c, 10, 57, 127
1, 116859, Note_on_c, 5, 77, 127
1, 116859, Note_on_c, 10, 69, 127
1, 117076, Note_off_c, 2, 74, 127
1, 117080, Note_off_c, 10, 69, 127
1, 117080, Note_off_c, 5, 77, 127
1, 117080, Note_off_c, 10, 57, 127
1, 117085, Note_on_c, 10, 45, 127
1, 117085, Note_on_c, 4, 76, 127
1, 117085, Note_on_c, 1, 73, 127
1, 117085, Note_on_c, 7, 67, 127
1, 117194, Note_off_c, 4, 76, 127
1, 117197, Note_on_c, 2, 74, 127
1, 117305, Note_off_c, 7, 67, 127
1, 117305, Note_off_c, 1, 73, 127
1, 117305, Note_off_c, 10, 45, 127
1, 117306, Note_off_c, 2, 74, 127
1, 117309, Note_on_c, 2, 50, 127
1, 117309, Note_on_c, 2, 74, 127
1, 117309, Note_on_c, 5, 65, 127
1, 117530, Note_off_c, 5, 65, 127
1, 117530, Note_off_c, 2, 74, 127
1, 117530, Note_off_c, 2, 50, 127
1, 117535, Note_on_c, 2, 62, 127
1, 117535, Note_on_c, 10, 69, 127
1, 117535, Note_on_c, 5, 65, 127
1, 117756, Note_off_c, 10, 69, 127
1, 117756, Note_off_c, 2, 62, 127
1, 117761, Note_on_c, 7, 55, 127
1, 117761, Note_on_c, 11, 70, 127
1, 117978, Note_off_c, 5, 65, 127
1, 117982, Note_off_c, 11, 70, 127
1, 117982, Note_off_c, 7, 55, 127
1, 117987, Note_on_c, 0, 60, 127
1, 117987, Note_on_c, 4, 64, 127
1, 117987, Note_on_c, 10, 69, 127
1, 118096, Note_off_c, 10, 69, 127
1, 118099, Note_on_c, 7, 67, 127
1, 118207, Note_off_c, 0, 60, 127
1, 118208, Note_off_c, 7, 67, 127
1, 118211, Note_on_c, 5, 53, 127
1, 118211, Note_on_c, 10, 69, 127
1, 118429, Note_off_c, 4, 64, 127
1, 118432, Note_off_c, 10, 69, 127
1, 118432, Note_off_c, 5, 53, 127
1, 118437, Note_on_c, 11, 58, 127
1, 118437, Note_on_c, 7, 67, 127
1, 118437, Note_on_c, 2, 62, 127
1, 118546, Note_off_c, 7, 67, 127
1, 118550, Note_on_c, 5, 65, 127
1, 118657, Note_off_c, 11, 58, 127
1, 118659, Note_off_c, 5, 65, 127
1, 118662, Note_on_c, 4, 52, 127
1, 118662, Note_on_c, 7, 67, 127
1, 118879, Note_off_c, 2, 62, 127
1, 118883, Note_off_c, 7, 67, 127
1, 118883, Note_off_c, 4, 52, 127
1, 118888, Note_on_c, 10, 57, 127
1, 118888, Note_on_c, 1, 61, 127
1, 118888, Note_on_c, 5, 65, 127
1, 118997, Note_off_c, 5, 65, 127
1, 119000, Note_on_c, 4, 64, 127
1, 119108, Note_off_c, 1, 61, 127
1, 119108, Note_off_c, 10, 57, 127
1, 119109, Note_off_c, 4, 64, 127
1, 119112, Note_on_c, 2, 50, 127
1, 119112, Note_on_c, 2, 62, 127
1, 119112, Note_on_c, 5, 65, 127
1, 119333, Note_off_c, 5, 65, 127
1, 119333, Note_off_c, 2, 62, 127
1, 119333, Note_off_c, 2, 50, 127
1, 119338, Note_on_c, 2, 50, 127
1, 119338, Note_on_c, 6, 66, 127
1, 119338, Note_on_c, 2, 62, 127
1, 119447, Note_off_c, 2, 62, 127
1, 119451, Note_on_c, 0, 60, 127
1, 119558, Note_off_c, 6, 66, 127
1, 119558, Note_off_c, 2, 50, 127
1, 119560, Note_off_c, 0, 60, 127
1, 119563, Note_on_c, 3, 51, 127
1, 119563, Note_on_c, 7, 67, 127
1, 119563, Note_on_c, 11, 58, 127
1, 119784, Note_off_c, 11, 58, 127
1, 119784, Note_off_c, 7, 67, 127
1, 119784, Note_off_c, 3, 51, 127
1, 119789, Note_on_c, 2, 50, 127
1, 119789, Note_on_c, 0, 72, 127
1, 119789, Note_on_c, 3, 63, 127
1, 119898, Note_off_c, 2, 50, 127
1, 119901, Note_on_c, 0, 48, 127
1, 120009, Note_off_c, 0, 72, 127
1, 120010, Note_off_c, 0, 48, 127
1, 120013, Note_on_c, 2, 50, 127
1, 120013, Note_on_c, 5, 65, 127
1, 120231, Note_off_c, 3, 63, 127
1, 120234, Note_off_c, 5, 65, 127
1, 120234, Note_off_c, 2, 50, 127
1, 120239, Note_on_c, 0, 48, 127
1, 120239, Note_on_c, 11, 70, 127
1, 120239, Note_on_c, 2, 62, 127
1, 120348, Note_off_c, 0, 48, 127
1, 120352, Note_on_c, 11, 46, 127
1, 120459, Note_off_c, 11, 70, 127
1, 120461, Note_off_c, 11, 46, 127
1, 120464, Note_on_c, 0, 48, 127
1, 120464, Note_on_c, 4, 64, 127
1, 120681, Note_off_c, 2, 62, 127
1, 120685, Note_off_c, 4, 64, 127
1, 120685, Note_off_c, 0, 48, 127
1, 120690, Note_on_c, 11, 46, 127
1, 120690, Note_on_c, 10, 69, 127
1, 120690, Note_on_c, 0, 60, 127
1, 120799, Note_off_c, 11, 46, 127
1, 120802, Note_on_c, 10, 45, 127
1, 120910, Note_off_c, 10, 69, 127
1, 120911, Note_off_c, 10, 45, 127
1, 120914, Note_on_c, 11, 46, 127
1, 120914, Note_on_c, 2, 62, 127
1, 121132, Note_off_c, 0, 60, 127
1, 121135, Note_off_c, 2, 62, 127
1, 121135, Note_off_c, 11, 46, 127
1, 121140, Note_on_c, 10, 45, 127
1, 121140, Note_on_c, 7, 67, 127
1, 121140, Note_on_c, 11, 58, 127
1, 121249, Note_off_c, 10, 45, 127
1, 121253, Note_on_c, 7, 43, 127
1, 121360, Note_off_c, 7, 67, 127
1, 121362, Note_off_c, 7, 43, 127
1, 121365, Note_on_c, 10, 45, 127
1, 121365, Note_on_c, 0, 60, 127
1, 121582, Note_off_c, 11, 58, 127
1, 121586, Note_off_c, 0, 60, 127
1, 121586, Note_off_c, 10, 45, 127
1, 121591, Note_on_c, 7, 43, 127
1, 121591, Note_on_c, 2, 62, 127
1, 121591, Note_on_c, 10, 57, 127
1, 121700, Note_off_c, 7, 43, 127
1, 121703, Note_on_c, 6, 42, 127
1, 121811, Note_off_c, 10, 57, 127
1, 121811, Note_off_c, 2, 62, 127
1, 121812, Note_off_c, 6, 42, 127
1, 121815, Note_on_c, 7, 43, 127
1, 121815, Note_on_c, 11, 58, 127
1, 121815, Note_on_c, 7, 55, 127
1, 122036, Note_off_c, 7, 55, 127
1, 122036, Note_off_c, 11, 58, 127
1, 122036, Note_off_c, 7, 43, 127
1, 122041, Note_on_c, 7, 55, 127
1, 122041, Note_on_c, 11, 58, 127
1, 122041, Note_on_c, 7, 67, 127
1, 122041, Note_on_c, 2, 74, 127
1, 122262, Note_off_c, 2, 74, 127
1, 122262, Note_off_c, 7, 55, 127
1, 122267, Note_on_c, 0, 48, 127
1, 122267, Note_on_c, 3, 75, 127
1, 122484, Note_off_c, 7, 67, 127
1, 122484, Note_off_c, 11, 58, 127
1, 122488, Note_off_c, 3, 75, 127
1, 122488, Note_off_c, 0, 48, 127
1, 122493, Note_on_c, 5, 53, 127
1, 122493, Note_on_c, 10, 57, 127
1, 122493, Note_on_c, 2, 74, 127
1, 122493, Note_on_c, 5, 65, 127
1, 122602, Note_off_c, 2, 74, 127
1, 122605, Note_on_c, 0, 72, 127
1, 122713, Note_off_c, 5, 65, 127
1, 122713, Note_off_c, 10, 57, 127
1, 122713, Note_off_c, 5, 53, 127
1, 122714, Note_off_c, 0, 72, 127
1, 122717, Note_on_c, 11, 46, 127
1, 122717, Note_on_c, 11, 58, 127
1, 122717, Note_on_c, 2, 74, 127
1, 122717, Note_on_c, 2, 62, 127
1, 122938, Note_off_c, 2, 62, 127
1, 122938, Note_off_c, 2, 74, 127
1, 122938, Note_off_c, 11, 58, 127
1, 122938, Note_off_c, 11, 46, 127
1, 122943, Note_on_c, 0, 48, 127
1, 122943, Note_on_c, 10, 57, 127
1, 122943, Note_on_c, 0, 72, 127
1, 122943, Note_on_c, 3, 63, 127
1, 123052, Note_off_c, 0, 72, 127
1, 123052, Note_off_c, 10, 57, 127
1, 123056, Note_on_c, 7, 55, 127
1, 123056, Note_on_c, 11, 70, 127
1, 123163, Note_off_c, 3, 63, 127
1, 123163, Note_off_c, 0, 48, 127
1, 123165, Note_off_c, 11, 70, 127
1, 123165, Note_off_c, 7, 55, 127
1, 123168, Note_on_c, 10, 57, 127
1, 123168, Note_on_c, 6, 54, 127
1, 123168, Note_on_c, 2, 50, 127
1, 123168, Note_on_c, 10, 69, 127
1, 123389, Note_off_c, 10, 69, 127
1, 123389, Note_off_c, 2, 50, 127
1, 123389, Note_off_c, 6, 54, 127
1, 123389, Note_off_c, 10, 57, 127
1, 123394, Note_on_c, 7, 55, 127
1, 123394, Note_on_c, 11, 70, 127
1, 123503, Note_off_c, 11, 70, 127
1, 123503, Note_off_c, 7, 55, 127
1, 123506, Note_on_c, 10, 57, 127
1, 123506, Note_on_c, 0, 72, 127
1, 123615, Note_off_c, 0, 72, 127
1, 123615, Note_off_c, 10, 57, 127
1, 123618, Note_on_c, 11, 58, 127
1, 123618, Note_on_c, 2, 74, 127
1, 123839, Note_off_c, 2, 74, 127
1, 123839, Note_off_c, 11, 58, 127
1, 123844, Note_on_c, 7, 43, 127
1, 123844, Note_on_c, 10, 57, 127
1, 123844, Note_on_c, 2, 62, 127
1, 123844, Note_on_c, 0, 72, 127
1, 123953, Note_off_c, 0, 72, 127
1, 123954, Note_off_c, 10, 57, 127
1, 123957, Note_on_c, 7, 55, 127
1, 123957, Note_on_c, 11, 70, 127
1, 124064, Note_off_c, 2, 62, 127
1, 124064, Note_off_c, 7, 43, 127
1, 124066, Note_off_c, 11, 70, 127
1, 124066, Note_off_c, 7, 55, 127
1, 124069, Note_on_c, 6, 54, 127
1, 124069, Note_on_c, 2, 50, 127
1, 124069, Note_on_c, 10, 69, 127
1, 124069, Note_on_c, 2, 62, 127
1, 124290, Note_off_c, 2, 62, 127
1, 124290, Note_off_c, 10, 69, 127
1, 124290, Note_off_c, 2, 50, 127
1, 124290, Note_off_c, 6, 54, 127
1, 124295, Note_on_c, 7, 55, 127
1, 124295, Note_on_c, 11, 70, 127
1, 124404, Note_off_c, 11, 70, 127
1, 124404, Note_off_c, 7, 55, 127
1, 124407, Note_on_c, 10, 57, 127
1, 124407, Note_on_c, 0, 72, 127
1, 124516, Note_off_c, 0, 72, 127
1, 124516, Note_off_c, 10, 57, 127
1, 124519, Note_on_c, 11, 58, 127
1, 124519, Note_on_c, 2, 74, 127
1, 124740, Note_off_c, 2, 74, 127
1, 124740, Note_off_c, 11, 58, 127
1, 124745, Note_on_c, 7, 43, 127
1, 124745, Note_on_c, 10, 57, 127
1, 124745, Note_on_c, 0, 72, 127
1, 124745, Note_on_c, 2, 62, 127
1, 124854, Note_off_c, 0, 72, 127
1, 124854, Note_off_c, 10, 57, 127
1, 124858, Note_on_c, 7, 55, 127
1, 124858, Note_on_c, 11, 70, 127
1, 124965, Note_off_c, 2, 62, 127
1, 124965, Note_off_c, 7, 43, 127
1, 124967, Note_off_c, 11, 70, 127
1, 124967, Note_off_c, 7, 55, 127
1, 124970, Note_on_c, 6, 54, 127
1, 124970, Note_on_c, 2, 50, 127
1, 124970, Note_on_c, 10, 69, 127
1, 124970, Note_on_c, 2, 62, 127
1, 125191, Note_off_c, 2, 62, 127
1, 125191, Note_off_c, 10, 69, 127
1, 125191, Note_off_c, 2, 50, 127
1, 125191, Note_off_c, 6, 54, 127
1, 125196, Note_on_c, 2, 38, 127
1, 125196, Note_on_c, 10, 69, 127
1, 125196, Note_on_c, 6, 66, 127
1, 125196, Note_on_c, 2, 74, 127
1, 125347, Note_off_c, 6, 66, 127
1, 125347, Note_off_c, 10, 69, 127
1, 125417, Note_off_c, 2, 74, 127
1, 125417, Note_off_c, 2, 38, 127
1, 125422, Note_on_c, 7, 43, 127
1, 125422, Note_on_c, 11, 70, 127
1, 125422, Note_on_c, 2, 62, 127
1, 125422, Note_on_c, 7, 67, 127
1, 125573, Note_off_c, 7, 67, 127
1, 125573, Note_off_c, 2, 62, 127
1, 125643, Note_off_c, 11, 70, 127
1, 125643, Note_off_c, 7, 43, 127
1, 125647, Note_on_c, 7, 55, 127
1, 125647, Note_on_c, 3, 75, 127
1, 125647, Note_on_c, 11, 70, 127
1, 125647, Note_on_c, 7, 67, 127
1, 125798, Note_off_c, 7, 67, 127
1, 125798, Note_off_c, 11, 70, 127
1, 125868, Note_off_c, 3, 75, 127
1, 125868, Note_off_c, 7, 55, 127
1, 125873, Note_on_c, 10, 57, 127
1, 125873, Note_on_c, 0, 72, 127
1, 125873, Note_on_c, 5, 65, 127
1, 126094, Note_off_c, 0, 72, 127
1, 126094, Note_off_c, 10, 57, 127
1, 126099, Note_on_c, 7, 55, 127
1, 126099, Note_on_c, 10, 69, 127
1, 126099, Note_on_c, 5, 77, 127
1, 126099, Note_on_c, 0, 72, 127
1, 126208, Note_off_c, 7, 55, 127
1, 126211, Note_on_c, 5, 53, 127
1, 126315, Note_off_c, 5, 65, 127
1, 126319, Note_off_c, 0, 72, 127
1, 126319, Note_off_c, 5, 77, 127
1, 126319, Note_off_c, 10, 69, 127
1, 126320, Note_off_c, 5, 53, 127
1, 126324, Note_on_c, 11, 58, 127
1, 126324, Note_on_c, 11, 70, 127
1, 126324, Note_on_c, 5, 65, 127
1, 126324, Note_on_c, 2, 74, 127
1, 126557, Note_off_c, 2, 74, 127
1, 126557, Note_off_c, 5, 65, 127
1, 126557, Note_off_c, 11, 70, 127
1, 126557, Note_off_c, 11, 58, 127
1, 126568, Note_on_c, 11, 46, 127
1, 126568, Note_on_c, 2, 62, 127
1, 126568, Note_on_c, 5, 65, 127
1, 126568, Note_on_c, 11, 70, 127
1, 126677, Note_off_c, 11, 46, 127
1, 126690, Note_on_c, 11, 58, 127
1, 126707, Note_off_c, 5, 65, 127
1, 126707, Note_off_c, 2, 62, 127
1, 126789, Note_off_c, 11, 70, 127
1, 126800, Note_off_c, 11, 58, 127
1, 126804, Note_on_c, 5, 65, 127
1, 126804, Note_on_c, 5, 77, 127
1, 126804, Note_on_c, 10, 57, 127
1, 126804, Note_on_c, 0, 60, 127
1, 126943, Note_off_c, 0, 60, 127
1, 126943, Note_off_c, 5, 65, 127
1, 127025, Note_off_c, 10, 57, 127
1, 127025, Note_off_c, 5, 77, 127
1, 127030, Note_on_c, 0, 60, 127
1, 127030, Note_on_c, 5, 65, 127
1, 127030, Note_on_c, 10, 57, 127
1, 127030, Note_on_c, 7, 55, 127
1, 127139, Note_off_c, 7, 55, 127
1, 127142, Note_on_c, 5, 53, 127
1, 127169, Note_off_c, 10, 57, 127
1, 127169, Note_off_c, 0, 60, 127
1, 127251, Note_off_c, 5, 65, 127
1, 127252, Note_off_c, 5, 53, 127
1, 127255, Note_on_c, 7, 67, 127
1, 127255, Note_on_c, 11, 70, 127
1, 127255, Note_on_c, 2, 62, 127
1, 127255, Note_on_c, 7, 55, 127
1, 127476, Note_off_c, 7, 55, 127
1, 127481, Note_on_c, 5, 53, 127
1, 127590, Note_off_c, 5, 53, 127
1, 127593, Note_on_c, 3, 51, 127
1, 127697, Note_off_c, 2, 62, 127
1, 127697, Note_off_c, 11, 70, 127
1, 127697, Note_off_c, 7, 67, 127
1, 127702, Note_off_c, 3, 51, 127
1, 127706, Note_on_c, 2, 50, 127
1, 127927, Note_off_c, 2, 50, 127
1, 127932, Note_on_c, 5, 77, 127
1, 127932, Note_on_c, 5, 65, 127
1, 127932, Note_on_c, 10, 69, 127
1, 127932, Note_on_c, 3, 51, 127
1, 128041, Note_off_c, 3, 51, 127
1, 128044, Note_on_c, 5, 53, 127
1, 128071, Note_off_c, 10, 69, 127
1, 128071, Note_off_c, 5, 65, 127
1, 128153, Note_off_c, 5, 77, 127
1, 128154, Note_off_c, 5, 53, 127
1, 128157, Note_on_c, 11, 70, 127
1, 128157, Note_on_c, 2, 62, 127
1, 128157, Note_on_c, 7, 55, 127
1, 128378, Note_off_c, 7, 55, 127
1, 128383, Note_on_c, 5, 53, 127
1, 128492, Note_off_c, 5, 53, 127
1, 128496, Note_on_c, 3, 51, 127
1, 128599, Note_off_c, 2, 62, 127
1, 128599, Note_off_c, 11, 70, 127
1, 128605, Note_off_c, 3, 51, 127
1, 128608, Note_on_c, 2, 50, 127
1, 128829, Note_off_c, 2, 50, 127
1, 128834, Note_on_c, 10, 69, 127
1, 128834, Note_on_c, 5, 77, 127
1, 128834, Note_on_c, 5, 65, 127
1, 128834, Note_on_c, 3, 51, 127
1, 128943, Note_off_c, 3, 51, 127
1, 128946, Note_on_c, 5, 53, 127
1, 128973, Note_off_c, 5, 65, 127
1, 128973, Note_off_c, 10, 69, 127
1, 129055, Note_off_c, 5, 77, 127
1, 129056, Note_off_c, 5, 53, 127
1, 129059, Note_on_c, 11, 70, 127
1, 129059, Note_on_c, 2, 62, 127
1, 129059, Note_on_c, 7, 67, 127
1, 129059, Note_on_c, 7, 55, 127
1, 129198, Note_off_c, 7, 67, 127
1, 129198, Note_off_c, 2, 62, 127
1, 129280, Note_off_c, 7, 55, 127
1, 129280, Note_off_c, 11, 70, 127
1, 129285, Note_on_c, 7, 67, 127
1, 129285, Note_on_c, 11, 70, 127
1, 129285, Note_on_c, 3, 75, 127
1, 129285, Note_on_c, 5, 53, 127
1, 129394, Note_off_c, 5, 53, 127
1, 129398, Note_on_c, 3, 51, 127
1, 129505, Note_off_c, 3, 75, 127
1, 129505, Note_off_c, 7, 67, 127
1, 129507, Note_off_c, 3, 51, 127
1, 129510, Note_on_c, 5, 65, 127
1, 129510, Note_on_c, 0, 72, 127
1, 129510, Note_on_c, 5, 53, 127
1, 129649, Note_off_c, 5, 65, 127
1, 129656, Note_off_c, 11, 70, 127
1, 129731, Note_off_c, 5, 53, 127
1, 129731, Note_off_c, 0, 72, 127
1, 129736, Note_on_c, 10, 69, 127
1, 129736, Note_on_c, 5, 77, 127
1, 129736, Note_on_c, 5, 65, 127
1, 129736, Note_on_c, 5, 41, 127
1, 129875, Note_off_c, 5, 65, 127
1, 129875, Note_off_c, 10, 69, 127
1, 129957, Note_off_c, 5, 41, 127
1, 129957, Note_off_c, 5, 77, 127
1, 129962, Note_on_c, 2, 74, 127
1, 129962, Note_on_c, 5, 65, 127
1, 129962, Note_on_c, 11, 70, 127
1, 129962, Note_on_c, 11, 46, 127
1, 130183, Note_off_c, 11, 46, 127
1, 130183, Note_off_c, 11, 70, 127
1, 130183, Note_off_c, 5, 65, 127
1, 130183, Note_off_c, 2, 74, 127
1, 130187, Note_on_c, 2, 74, 127
1, 130187, Note_on_c, 11, 82, 127
1, 130187, Note_on_c, 5, 65, 127
1, 130187, Note_on_c, 11, 58, 127
1, 130326, Note_off_c, 5, 65, 127
1, 130326, Note_off_c, 2, 74, 127
1, 130408, Note_off_c, 11, 58, 127
1, 130408, Note_off_c, 11, 82, 127
1, 130413, Note_on_c, 0, 72, 127
1, 130413, Note_on_c, 10, 81, 127
1, 130413, Note_on_c, 5, 65, 127
1, 130634, Note_off_c, 5, 65, 127
1, 130634, Note_off_c, 10, 81, 127
1, 130634, Note_off_c, 0, 72, 127
1, 130639, Note_on_c, 7, 79, 127
1, 130639, Note_on_c, 10, 69, 127
1, 130639, Note_on_c, 0, 60, 127
1, 130639, Note_on_c, 5, 53, 127
1, 130748, Note_off_c, 7, 79, 127
1, 130751, Note_on_c, 5, 77, 127
1, 130859, Note_off_c, 5, 53, 127
1, 130859, Note_off_c, 0, 60, 127
1, 130859, Note_off_c, 10, 69, 127
1, 130860, Note_off_c, 5, 77, 127
1, 130864, Note_on_c, 7, 79, 127
1, 130864, Note_on_c, 11, 70, 127
1, 130864, Note_on_c, 2, 62, 127
1, 130864, Note_on_c, 11, 58, 127
1, 131085, Note_off_c, 11, 58, 127
1, 131085, Note_off_c, 2, 62, 127
1, 131085, Note_off_c, 11, 70, 127
1, 131085, Note_off_c, 7, 79, 127
1, 131089, Note_on_c, 5, 77, 127
1, 131198, Note_off_c, 5, 77, 127
1, 131202, Note_on_c, 3, 75, 127
1, 131311, Note_off_c, 3, 75, 127
1, 131314, Note_on_c, 2, 74, 127
1, 131535, Note_off_c, 2, 74, 127
1, 131540, Note_on_c, 0, 72, 127
1, 131540, Note_on_c, 3, 75, 127
1, 131540, Note_on_c, 0, 60, 127
1, 131540, Note_on_c, 10, 57, 127
1, 131649, Note_off_c, 3, 75, 127
1, 131652, Note_on_c, 5, 77, 127
1, 131760, Note_off_c, 10, 57, 127
1, 131760, Note_off_c, 0, 60, 127
1, 131760, Note_off_c, 0, 72, 127
1, 131761, Note_off_c, 5, 77, 127
1, 131765, Note_on_c, 7, 79, 127
1, 131765, Note_on_c, 11, 70, 127
1, 131765, Note_on_c, 2, 62, 127
1, 131765, Note_on_c, 11, 58, 127
1, 131986, Note_off_c, 11, 58, 127
1, 131986, Note_off_c, 2, 62, 127
1, 131986, Note_off_c, 11, 70, 127
1, 131986, Note_off_c, 7, 79, 127
1, 131990, Note_on_c, 5, 77, 127
1, 132099, Note_off_c, 5, 77, 127
1, 132103, Note_on_c, 3, 75, 127
1, 132212, Note_off_c, 3, 75, 127
1, 132215, Note_on_c, 2, 74, 127
1, 132436, Note_off_c, 2, 74, 127
1, 132441, Note_on_c, 3, 75, 127
1, 132441, Note_on_c, 0, 72, 127
1, 132441, Note_on_c, 0, 60, 127
1, 132441, Note_on_c, 10, 57, 127
1, 132550, Note_off_c, 3, 75, 127
1, 132553, Note_on_c, 5, 77, 127
1, 132661, Note_off_c, 10, 57, 127
1, 132661, Note_off_c, 0, 60, 127
1, 132661, Note_off_c, 0, 72, 127
1, 132662, Note_off_c, 5, 77, 127
1, 132666, Note_on_c, 7, 79, 127
1, 132666, Note_on_c, 7, 67, 127
1, 132666, Note_on_c, 2, 74, 127
1, 132666, Note_on_c, 11, 58, 127
1, 132887, Note_off_c, 11, 58, 127
1, 132887, Note_off_c, 2, 74, 127
1, 132887, Note_off_c, 7, 67, 127
1, 132887, Note_off_c, 7, 79, 127
1, 132891, Note_on_c, 0, 72, 127
1, 132891, Note_on_c, 7, 67, 127
1, 132891, Note_on_c, 5, 77, 127
1, 132891, Note_on_c, 0, 60, 127
1, 133000, Note_off_c, 5, 77, 127
1, 133004, Note_on_c, 3, 75, 127
1, 133111, Note_off_c, 0, 60, 127
1, 133111, Note_off_c, 7, 67, 127
1, 133111, Note_off_c, 0, 72, 127
1, 133113, Note_off_c, 3, 75, 127
1, 133116, Note_on_c, 5, 65, 127
1, 133116, Note_on_c, 0, 72, 127
1, 133116, Note_on_c, 5, 77, 127
1, 133116, Note_on_c, 10, 57, 127
1, 133337, Note_off_c, 10, 57, 127
1, 133337, Note_off_c, 5, 77, 127
1, 133337, Note_off_c, 0, 72, 127
1, 133337, Note_off_c, 5, 65, 127
1, 133342, Note_on_c, 5, 65, 127
1, 133342, Note_on_c, 11, 70, 127
1, 133342, Note_on_c, 3, 75, 127
1, 133342, Note_on_c, 11, 58, 127
1, 133451, Note_off_c, 3, 75, 127
1, 133454, Note_on_c, 2, 74, 127
1, 133562, Note_off_c, 11, 58, 127
1, 133562, Note_off_c, 11, 70, 127
1, 133562, Note_off_c, 5, 65, 127
1, 133563, Note_off_c, 2, 74, 127
1, 133567, Note_on_c, 11, 70, 127
1, 133567, Note_on_c, 7, 67, 127
1, 133567, Note_on_c, 3, 75, 127
1, 133567, Note_on_c, 7, 55, 127
1, 133788, Note_off_c, 7, 55, 127
1, 133788, Note_off_c, 3, 75, 127
1, 133788, Note_off_c, 7, 67, 127
1, 133788, Note_off_c, 11, 70, 127
1, 133792, Note_on_c, 5, 65, 127
1, 133792, Note_on_c, 2, 74, 127
1, 133792, Note_on_c, 10, 57, 127
1, 133901, Note_off_c, 2, 74, 127
1, 133905, Note_on_c, 0, 72, 127
1, 134012, Note_off_c, 10, 57, 127
1, 134012, Note_off_c, 5, 65, 127
1, 134014, Note_off_c, 0, 72, 127
1, 134017, Note_on_c, 5, 65, 127
1, 134017, Note_on_c, 2, 74, 127
1, 134017, Note_on_c, 11, 58, 127
1, 134238, Note_off_c, 11, 58, 127
1, 134238, Note_off_c, 2, 74, 127
1, 134238, Note_off_c, 5, 65, 127
1, 134243, Note_on_c, 0, 72, 127
1, 134243, Note_on_c, 11, 58, 127
1, 134243, Note_on_c, 11, 46, 127
1, 134352, Note_off_c, 0, 72, 127
1, 134355, Note_on_c, 11, 70, 127
1, 134464, Note_off_c, 11, 70, 127
1, 134468, Note_on_c, 5, 77, 127
1, 134568, Note_off_c, 11, 46, 127
1, 134568, Note_off_c, 11, 58, 127
1, 134694, Note_on_c, 2, 74, 127
1, 134694, Note_on_c, 11, 70, 127
1, 134915, Note_off_c, 11, 70, 127
1, 134915, Note_off_c, 2, 74, 127
1, 134920, Note_on_c, 0, 72, 127
1, 134920, Note_on_c, 10, 69, 127
1, 135141, Note_off_c, 10, 69, 127
1, 135141, Note_off_c, 0, 72, 127
1, 135146, Note_on_c, 11, 70, 127
1, 135146, Note_on_c, 7, 67, 127
1, 135255, Note_off_c, 7, 67, 127
1, 135255, Note_off_c, 11, 70, 127
1, 135258, Note_on_c, 10, 69, 127
1, 135258, Note_on_c, 5, 65, 127
1, 135367, Note_off_c, 5, 65, 127
1, 135367, Note_off_c, 10, 69, 127
1, 135371, Note_on_c, 2, 74, 127
1, 135371, Note_on_c, 11, 70, 127
1, 135592, Note_off_c, 11, 70, 127
1, 135592, Note_off_c, 2, 74, 127
1, 135596, Note_on_c, 2, 74, 127
1, 135596, Note_on_c, 5, 65, 127
1, 135596, Note_on_c, 11, 58, 127
1, 135817, Note_off_c, 11, 58, 127
1, 135817, Note_off_c, 5, 65, 127
1, 135817, Note_off_c, 2, 74, 127
1, 135822, Note_on_c, 5, 65, 127
1, 135822, Note_on_c, 0, 72, 127
1, 135822, Note_on_c, 10, 57, 127
1, 136043, Note_off_c, 10, 57, 127
1, 136043, Note_off_c, 0, 72, 127
1, 136043, Note_off_c, 5, 65, 127
1, 136048, Note_on_c, 5, 65, 127
1, 136048, Note_on_c, 10, 69, 127
1, 136048, Note_on_c, 7, 55, 127
1, 136157, Note_off_c, 7, 55, 127
1, 136160, Note_on_c, 5, 53, 127
1, 136249, Note_off_c, 5, 77, 127
1, 136268, Note_off_c, 10, 69, 127
1, 136268, Note_off_c, 5, 65, 127
1, 136269, Note_off_c, 5, 53, 127
1, 136273, Note_on_c, 5, 65, 127
1, 136273, Note_on_c, 2, 74, 127
1, 136273, Note_on_c, 11, 58, 127
1, 136494, Note_off_c, 11, 58, 127
1, 136494, Note_off_c, 2, 74, 127
1, 136494, Note_off_c, 5, 65, 127
1, 136499, Note_on_c, 3, 75, 127
1, 136499, Note_on_c, 11, 70, 127
1, 136499, Note_on_c, 7, 67, 127
1, 136499, Note_on_c, 3, 63, 127
1, 136608, Note_off_c, 3, 75, 127
1, 136611, Note_on_c, 5, 77, 127
1, 136719, Note_off_c, 3, 63, 127
1, 136719, Note_off_c, 7, 67, 127
1, 136719, Note_off_c, 11, 70, 127
1, 136720, Note_off_c, 5, 77, 127
1, 136723, Note_on_c, 11, 70, 127
1, 136723, Note_on_c, 2, 74, 127
1, 136723, Note_on_c, 5, 65, 127
1, 136944, Note_off_c, 5, 65, 127
1, 136944, Note_off_c, 2, 74, 127
1, 136944, Note_off_c, 11, 70, 127
1, 136949, Note_on_c, 10, 69, 127
1, 136949, Note_on_c, 0, 72, 127
1, 136949, Note_on_c, 5, 53, 127
1, 136949, Note_on_c, 3, 63, 127
1, 137058, Note_off_c, 0, 72, 127
1, 137058, Note_off_c, 10, 69, 127
1, 137061, Note_on_c, 11, 70, 127
1, 137169, Note_off_c, 3, 63, 127
1, 137169, Note_off_c, 5, 53, 127
1, 137170, Note_off_c, 11, 70, 127
1, 137174, Note_on_c, 11, 70, 127
1, 137174, Note_on_c, 5, 65, 127
1, 137174, Note_on_c, 2, 62, 127
1, 137174, Note_on_c, 11, 58, 127
1, 137395, Note_off_c, 11, 58, 127
1, 137395, Note_off_c, 2, 62, 127
1, 137395, Note_off_c, 5, 65, 127
1, 137395, Note_off_c, 11, 70, 127
1, 137400, Note_on_c, 5, 65, 127
1, 137621, Note_off_c, 5, 65, 127
1, 137625, Note_on_c, 2, 62, 127
1, 137846, Note_off_c, 2, 62, 127
1, 137851, Note_on_c, 0, 60, 127
1, 137960, Note_off_c, 0, 60, 127
1, 137963, Note_on_c, 11, 58, 127
1, 138072, Note_off_c, 11, 58, 127
1, 138076, Note_on_c, 5, 65, 127
1, 138302, Note_on_c, 2, 62, 127
1, 138302, Note_on_c, 11, 58, 127
1, 138523, Note_off_c, 11, 58, 127
1, 138523, Note_off_c, 2, 62, 127
1, 138527, Note_on_c, 0, 60, 127
1, 138527, Note_on_c, 10, 57, 127
1, 138748, Note_off_c, 10, 57, 127
1, 138748, Note_off_c, 0, 60, 127
1, 138753, Note_on_c, 11, 58, 127
1, 138753, Note_on_c, 7, 55, 127
1, 138862, Note_off_c, 7, 55, 127
1, 138862, Note_off_c, 11, 58, 127
1, 138866, Note_on_c, 10, 57, 127
1, 138866, Note_on_c, 5, 53, 127
1, 138975, Note_off_c, 5, 53, 127
1, 138975, Note_off_c, 10, 57, 127
1, 138978, Note_on_c, 2, 62, 127
1, 138978, Note_on_c, 11, 58, 127
1, 139199, Note_off_c, 11, 58, 127
1, 139199, Note_off_c, 2, 62, 127
1, 139204, Note_on_c, 2, 62, 127
1, 139204, Note_on_c, 5, 53, 127
1, 139204, Note_on_c, 11, 46, 127
1, 139425, Note_off_c, 11, 46, 127
1, 139425, Note_off_c, 5, 53, 127
1, 139425, Note_off_c, 2, 62, 127
1, 139429, Note_on_c, 0, 60, 127
1, 139429, Note_on_c, 5, 53, 127
1, 139429, Note_on_c, 10, 45, 127
1, 139650, Note_off_c, 10, 45, 127
1, 139650, Note_off_c, 5, 53, 127
1, 139650, Note_off_c, 0, 60, 127
1, 139655, Note_on_c, 10, 57, 127
1, 139655, Note_on_c, 0, 60, 127
1, 139655, Note_on_c, 7, 43, 127
1, 139764, Note_off_c, 7, 43, 127
1, 139768, Note_on_c, 5, 41, 127
1, 139856, Note_off_c, 5, 65, 127
1, 139875, Note_off_c, 0, 60, 127
1, 139875, Note_off_c, 10, 57, 127
1, 139877, Note_off_c, 5, 41, 127
1, 139880, Note_on_c, 2, 62, 127
1, 139880, Note_on_c, 11, 58, 127
1, 139880, Note_on_c, 11, 46, 127
1, 140096, Note_on_c, 7, 67, 127
1, 140096, Note_on_c, 3, 51, 127
1, 140096, Note_on_c, 7, 55, 127
1, 140096, Note_on_c, 11, 58, 127
1, 140101, Note_off_c, 11, 46, 127
1, 140101, Note_off_c, 11, 58, 127
1, 140101, Note_off_c, 2, 62, 127
1, 140186, Note_on_c, 10, 69, 127
1, 140199, Note_off_c, 7, 67, 127
1, 140279, Note_off_c, 10, 69, 127
1, 140295, Note_on_c, 11, 70, 127
1, 140359, Note_off_c, 11, 58, 127
1, 140360, Note_off_c, 7, 55, 127
1, 140366, Note_on_c, 5, 53, 127
1, 140366, Note_on_c, 11, 58, 127
1, 140366, Note_on_c, 2, 62, 127
1, 140377, Note_off_c, 3, 51, 127
1, 140386, Note_off_c, 11, 70, 127
1, 140577, Note_off_c, 2, 62, 127
1, 140577, Note_off_c, 11, 58, 127
1, 140577, Note_off_c, 5, 53, 127
1, 140611, Note_on_c, 5, 41, 127
1, 140611, Note_on_c, 3, 51, 127
1, 140611, Note_on_c, 10, 57, 127
1, 140611, Note_on_c, 0, 60, 127
1, 140763, Note_off_c, 0, 60, 127
1, 140766, Note_on_c, 2, 62, 127
1, 140865, Note_off_c, 10, 57, 127
1, 140865, Note_off_c, 3, 51, 127
1, 140865, Note_off_c, 5, 41, 127
1, 140889, Note_on_c, 11, 58, 127
1, 140897, Note_off_c, 2, 62, 127
1, 141006, Note_on_c, 10, 57, 127
1, 141006, Note_on_c, 0, 60, 127
1, 141006, Note_on_c, 2, 50, 127
1, 141006, Note_on_c, 6, 42, 127
1, 141019, Note_off_c, 11, 58, 127
1, 141515, Note_off_c, 0, 60, 127
1, 141518, Note_on_c, 6, 66, 127
1, 141771, Note_off_c, 6, 66, 127
1, 141772, Note_off_c, 10, 57, 127
1, 141773, Note_on_c, 7, 67, 127
1, 141898, Note_off_c, 7, 67, 127
1, 141901, Note_on_c, 10, 69, 127
1, 142026, Note_off_c, 10, 69, 127
1, 142029, Note_on_c, 10, 69, 127
1, 142538, Note_off_c, 6, 42, 127
1, 142538, Note_off_c, 2, 50, 127
1, 142541, Note_on_c, 10, 57, 127
1, 142541, Note_on_c, 2, 50, 127
1, 142541, Note_on_c, 6, 42, 127
1, 142796, Note_off_c, 10, 69, 127
1, 142797, Note_on_c, 0, 60, 127
1, 143048, Note_off_c, 10, 57, 127
1, 143051, Note_off_c, 0, 60, 127
1, 143051, Note_off_c, 6, 42, 127
1, 143051, Note_off_c, 2, 50, 127
1, 143054, Note_on_c, 0, 60, 127
1, 143054, Note_on_c, 10, 57, 127
1, 143054, Note_on_c, 2, 50, 127
1, 143054, Note_on_c, 6, 42, 127
1, 143435, Note_off_c, 0, 60, 127
1, 143438, Note_on_c, 3, 63, 127
1, 143561, Note_off_c, 10, 57, 127
1, 143564, Note_off_c, 3, 63, 127
1, 143564, Note_off_c, 6, 42, 127
1, 143564, Note_off_c, 2, 50, 127
1, 143567, Note_on_c, 10, 57, 127
1, 143567, Note_on_c, 2, 62, 127
1, 143567, Note_on_c, 2, 50, 127
1, 143567, Note_on_c, 6, 42, 127
1, 143692, Note_off_c, 2, 62, 127
1, 143695, Note_on_c, 0, 60, 127
1, 143820, Note_off_c, 0, 60, 127
1, 143823, Note_on_c, 2, 62, 127
1, 143940, Note_off_c, 10, 57, 127
1, 143948, Note_off_c, 2, 62, 127
1, 143951, Note_on_c, 10, 57, 127
1, 144076, Note_off_c, 10, 57, 127
1, 144076, Note_off_c, 6, 42, 127
1, 144076, Note_off_c, 2, 50, 127
1, 144079, Note_on_c, 11, 58, 127
1, 144079, Note_on_c, 2, 50, 127
1, 144079, Note_on_c, 7, 55, 127
1, 144079, Note_on_c, 7, 43, 127
1, 144204, Note_off_c, 11, 58, 127
1, 144308, Note_on_c, 10, 69, 127
1, 144431, Note_on_c, 11, 70, 127
1, 144434, Note_off_c, 10, 69, 127
1, 144554, Note_on_c, 0, 72, 127
1, 144557, Note_off_c, 11, 70, 127
1, 144677, Note_on_c, 2, 74, 127
1, 144680, Note_off_c, 0, 72, 127
1, 144800, Note_on_c, 0, 72, 127
1, 144803, Note_off_c, 2, 74, 127
1, 144923, Note_on_c, 11, 70, 127
1, 144926, Note_off_c, 0, 72, 127
1, 145046, Note_on_c, 0, 72, 127
1, 145049, Note_off_c, 11, 70, 127
1, 145104, Note_off_c, 7, 43, 127
1, 145104, Note_off_c, 7, 55, 127
1, 145104, Note_off_c, 2, 50, 127
1, 145169, Note_on_c, 2, 74, 127
1, 145172, Note_off_c, 0, 72, 127
1, 145681, Note_on_c, 2, 62, 127
1, 145681, Note_on_c, 7, 55, 127
1, 145681, Note_on_c, 12, 47, 127
1, 145936, Note_off_c, 2, 74, 127
1, 145937, Note_on_c, 5, 65, 127
1, 146188, Note_off_c, 2, 62, 127
1, 146191, Note_off_c, 5, 65, 127
1, 146191, Note_off_c, 12, 47, 127
1, 146191, Note_off_c, 7, 55, 127
1, 146194, Note_on_c, 5, 65, 127
1, 146194, Note_on_c, 2, 62, 127
1, 146194, Note_on_c, 12, 47, 127
1, 146194, Note_on_c, 7, 55, 127
1, 146447, Note_off_c, 5, 65, 127
1, 146450, Note_on_c, 7, 67, 127
1, 146575, Note_off_c, 7, 67, 127
1, 146578, Note_on_c, 8, 68, 127
1, 146701, Note_off_c, 2, 62, 127
1, 146704, Note_off_c, 8, 68, 127
1, 146704, Note_off_c, 7, 55, 127
1, 146704, Note_off_c, 12, 47, 127
1, 146707, Note_on_c, 2, 62, 127
1, 146707, Note_on_c, 7, 67, 127
1, 146707, Note_on_c, 12, 47, 127
1, 146707, Note_on_c, 7, 55, 127
1, 146960, Note_off_c, 7, 67, 127
1, 146963, Note_on_c, 5, 65, 127
1, 147088, Note_off_c, 5, 65, 127
1, 147091, Note_on_c, 3, 63, 127
1, 147214, Note_off_c, 2, 62, 127
1, 147217, Note_off_c, 3, 63, 127
1, 147217, Note_off_c, 7, 55, 127
1, 147217, Note_off_c, 12, 47, 127
1, 147220, Note_on_c, 3, 63, 127
1, 147220, Note_on_c, 7, 55, 127
1, 147220, Note_on_c, 0, 60, 127
1, 147220, Note_on_c, 0, 48, 127
1, 147841, Note_on_c, 2, 74, 127
1, 147857, Note_off_c, 3, 63, 127
1, 147902, Note_off_c, 2, 74, 127
1, 147907, Note_on_c, 3, 75, 127
1, 147968, Note_off_c, 3, 75, 127
1, 147975, Note_on_c, 5, 77, 127
1, 148036, Note_off_c, 5, 77, 127
1, 148043, Note_on_c, 3, 75, 127
1, 148104, Note_off_c, 3, 75, 127
1, 148111, Note_on_c, 2, 74, 127
1, 148236, Note_off_c, 2, 74, 127
1, 148241, Note_off_c, 0, 48, 127
1, 148241, Note_off_c, 0, 60, 127
1, 148241, Note_off_c, 7, 55, 127
1, 148242, Note_on_c, 3, 75, 127
1, 148751, Note_off_c, 3, 75, 127
1, 148754, Note_on_c, 3, 63, 127
1, 148754, Note_on_c, 0, 60, 127
1, 148754, Note_on_c, 0, 48, 127
1, 148879, Note_off_c, 3, 63, 127
1, 148882, Note_on_c, 7, 67, 127
1, 148943, Note_off_c, 7, 67, 127
1, 148946, Note_on_c, 8, 68, 127
1, 149007, Note_off_c, 8, 68, 127
1, 149010, Note_on_c, 11, 70, 127
1, 149071, Note_off_c, 11, 70, 127
1, 149074, Note_on_c, 8, 68, 127
1, 149135, Note_off_c, 8, 68, 127
1, 149138, Note_on_c, 7, 67, 127
1, 149263, Note_off_c, 7, 67, 127
1, 149266, Note_on_c, 8, 68, 127
1, 149391, Note_off_c, 8, 68, 127
1, 149394, Note_on_c, 11, 70, 127
1, 149455, Note_off_c, 11, 70, 127
1, 149458, Note_on_c, 0, 72, 127
1, 149519, Note_off_c, 0, 72, 127
1, 149522, Note_on_c, 1, 73, 127
1, 149583, Note_off_c, 1, 73, 127
1, 149586, Note_on_c, 0, 72, 127
1, 149647, Note_off_c, 0, 72, 127
1, 149650, Note_on_c, 11, 70, 127
1, 149775, Note_off_c, 11, 70, 127
1, 149775, Note_off_c, 0, 48, 127
1, 149775, Note_off_c, 0, 60, 127
1, 149778, Note_on_c, 0, 72, 127
1, 149778, Note_on_c, 8, 56, 127
1, 149778, Note_on_c, 0, 48, 127
1, 150031, Note_off_c, 0, 72, 127
1, 150034, Note_on_c, 2, 74, 127
1, 150159, Note_off_c, 2, 74, 127
1, 150162, Note_on_c, 3, 75, 127
1, 150287, Note_off_c, 3, 75, 127
1, 150287, Note_off_c, 0, 48, 127
1, 150287, Note_off_c, 8, 56, 127
1, 150290, Note_on_c, 2, 62, 127
1, 150290, Note_on_c, 7, 67, 127
1, 150290, Note_on_c, 10, 57, 127
1, 150290, Note_on_c, 0, 48, 127
1, 150410, Note_off_c, 7, 67, 127
1, 150418, Note_on_c, 6, 66, 127
1, 150538, Note_off_c, 6, 66, 127
1, 150546, Note_on_c, 7, 67, 127
1, 150666, Note_off_c, 7, 67, 127
1, 150674, Note_on_c, 6, 66, 127
1, 150794, Note_off_c, 6, 66, 127
1, 150802, Note_on_c, 7, 67, 127
1, 150922, Note_off_c, 7, 67, 127
1, 150930, Note_on_c, 6, 66, 127
1, 151050, Note_off_c, 6, 66, 127
1, 151057, Note_off_c, 2, 62, 127
1, 151058, Note_on_c, 4, 64, 127
1, 151183, Note_off_c, 4, 64, 127
1, 151186, Note_on_c, 2, 62, 127
1, 151311, Note_off_c, 2, 62, 127
1, 151311, Note_off_c, 0, 48, 127
1, 151311, Note_off_c, 10, 57, 127
1, 151314, Note_on_c, 7, 67, 127
1, 151314, Note_on_c, 2, 62, 127
1, 151314, Note_on_c, 2, 74, 127
1, 151314, Note_on_c, 11, 46, 127
1, 152079, Note_off_c, 11, 46, 127
1, 152082, Note_on_c, 10, 45, 127
1, 152207, Note_off_c, 10, 45, 127
1, 152210, Note_on_c, 7, 43, 127
1, 152335, Note_off_c, 7, 43, 127
1, 152335, Note_off_c, 2, 74, 127
1, 152335, Note_off_c, 2, 62, 127
1, 152335, Note_off_c, 7, 67, 127
1, 152338, Note_on_c, 3, 63, 127
1, 152338, Note_on_c, 0, 48, 127
1, 152594, Note_on_c, 7, 67, 127
1, 152850, Note_on_c, 0, 72, 127
1, 153101, Note_off_c, 7, 67, 127
1, 153104, Note_off_c, 0, 72, 127
1, 153105, Note_off_c, 3, 63, 127
1, 153106, Note_on_c, 3, 63, 127
1, 153106, Note_on_c, 7, 67, 127
1, 153106, Note_on_c, 0, 72, 127
1, 153359, Note_off_c, 0, 72, 127
1, 153359, Note_off_c, 7, 67, 127
1, 153359, Note_off_c, 3, 63, 127
1, 153359, Note_off_c, 0, 48, 127
1, 153362, Note_on_c, 0, 72, 127
1, 153362, Note_on_c, 2, 62, 127
1, 153362, Note_on_c, 10, 69, 127
1, 153362, Note_on_c, 6, 54, 127
1, 154127, Note_off_c, 6, 54, 127
1, 154130, Note_on_c, 7, 55, 127
1, 154255, Note_off_c, 7, 55, 127
1, 154258, Note_on_c, 10, 57, 127
1, 154383, Note_off_c, 10, 57, 127
1, 154384, Note_off_c, 10, 69, 127
1, 154384, Note_off_c, 2, 62, 127
1, 154384, Note_off_c, 0, 72, 127
1, 154385, Note_on_c, 11, 46, 127
1, 154641, Note_on_c, 6, 66, 127
1, 154894, Note_off_c, 6, 66, 127
1, 154897, Note_on_c, 4, 64, 127
1, 155278, Note_off_c, 4, 64, 127
1, 155281, Note_on_c, 2, 62, 127
1, 155406, Note_off_c, 2, 62, 127
1, 155407, Note_off_c, 11, 46, 127
1, 155408, Note_on_c, 2, 62, 127
1, 155408, Note_on_c, 7, 67, 127
1, 155408, Note_on_c, 11, 70, 127
1, 155664, Note_on_c, 7, 55, 127
1, 155917, Note_off_c, 7, 55, 127
1, 155920, Note_on_c, 10, 57, 127
1, 156301, Note_off_c, 10, 57, 127
1, 156304, Note_on_c, 11, 58, 127
1, 156429, Note_off_c, 11, 58, 127
1, 156430, Note_off_c, 11, 70, 127
1, 156430, Note_off_c, 7, 67, 127
1, 156430, Note_off_c, 2, 62, 127
1, 156431, Note_on_c, 0, 48, 127
1, 156687, Note_on_c, 11, 70, 127
1, 156940, Note_off_c, 11, 70, 127
1, 156943, Note_on_c, 10, 69, 127
1, 157196, Note_off_c, 10, 69, 127
1, 157199, Note_on_c, 7, 67, 127
1, 157452, Note_off_c, 7, 67, 127
1, 157453, Note_off_c, 0, 48, 127
1, 157454, Note_on_c, 3, 75, 127
1, 157707, Note_off_c, 3, 75, 127
1, 157710, Note_on_c, 2, 74, 127
1, 157963, Note_off_c, 2, 74, 127
1, 157966, Note_on_c, 0, 72, 127
1, 158219, Note_off_c, 0, 72, 127
1, 158222, Note_on_c, 11, 70, 127
1, 158475, Note_off_c, 11, 70, 127
1, 158478, Note_on_c, 10, 69, 127
1, 158731, Note_off_c, 10, 69, 127
1, 158734, Note_on_c, 7, 67, 127
1, 158987, Note_off_c, 7, 67, 127
1, 158990, Note_on_c, 6, 66, 127
1, 159243, Note_off_c, 6, 66, 127
1, 159246, Note_on_c, 7, 67, 127
1, 159502, Note_on_c, 11, 58, 127
1, 159502, Note_on_c, 1, 49, 127
1, 159811, Note_on_c, 4, 76, 127
1, 160038, Note_off_c, 4, 76, 127
1, 160041, Note_on_c, 6, 78, 127
1, 160268, Note_off_c, 6, 78, 127
1, 160269, Note_off_c, 7, 67, 127
1, 160270, Note_on_c, 7, 79, 127
1, 160523, Note_off_c, 1, 49, 127
1, 160526, Note_on_c, 2, 62, 127
1, 160526, Note_on_c, 2, 50, 127
1, 160643, Note_off_c, 7, 79, 127
1, 160835, Note_on_c, 10, 69, 127
1, 161062, Note_off_c, 10, 69, 127
1, 161065, Note_on_c, 11, 70, 127
1, 161292, Note_off_c, 11, 70, 127
1, 161295, Note_on_c, 0, 72, 127
1, 161420, Note_off_c, 0, 72, 127
1, 161423, Note_on_c, 7, 67, 127
1, 161543, Note_off_c, 11, 58, 127
1, 161548, Note_off_c, 7, 67, 127
1, 161548, Note_off_c, 2, 62, 127
1, 161551, Note_on_c, 0, 60, 127
1, 161551, Note_on_c, 6, 66, 127
1, 161551, Note_on_c, 10, 57, 127
1, 162316, Note_off_c, 6, 66, 127
1, 162319, Note_on_c, 7, 67, 127
1, 162394, Note_off_c, 2, 50, 127
1, 162573, Note_off_c, 7, 67, 127
1, 162574, Note_off_c, 10, 57, 127
1, 162574, Note_off_c, 0, 60, 127
1, 162575, Note_on_c, 7, 67, 127
1, 162575, Note_on_c, 3, 63, 127
1, 162575, Note_on_c, 0, 60, 127
1, 162575, Note_on_c, 7, 55, 127
1, 162828, Note_off_c, 7, 67, 127
1, 162831, Note_on_c, 7, 67, 127
1, 162956, Note_off_c, 7, 67, 127
1, 162959, Note_on_c, 10, 69, 127
1, 163084, Note_off_c, 10, 69, 127
1, 163087, Note_on_c, 12, 71, 127
1, 163212, Note_off_c, 12, 71, 127
1, 163215, Note_on_c, 10, 69, 127
1, 163340, Note_off_c, 10, 69, 127
1, 163343, Note_on_c, 7, 67, 127
1, 163596, Note_off_c, 7, 67, 127
1, 163597, Note_off_c, 7, 55, 127
1, 163597, Note_off_c, 0, 60, 127
1, 163597, Note_off_c, 3, 63, 127
1, 163598, Note_on_c, 0, 72, 127
1, 163851, Note_off_c, 0, 72, 127
1, 163854, Note_on_c, 0, 72, 127
1, 163979, Note_off_c, 0, 72, 127
1, 163982, Note_on_c, 2, 74, 127
1, 164107, Note_off_c, 2, 74, 127
1, 164110, Note_on_c, 3, 75, 127
1, 164235, Note_off_c, 3, 75, 127
1, 164238, Note_on_c, 2, 74, 127
1, 164363, Note_off_c, 2, 74, 127
1, 164366, Note_on_c, 0, 72, 127
1, 164619, Note_off_c, 0, 72, 127
1, 164622, Note_on_c, 7, 79, 127
1, 164875, Note_off_c, 7, 79, 127
1, 164878, Note_on_c, 7, 79, 127
1, 165003, Note_off_c, 7, 79, 127
1, 165006, Note_on_c, 10, 81, 127
1, 165131, Note_off_c, 10, 81, 127
1, 165134, Note_on_c, 12, 83, 127
1, 165259, Note_off_c, 12, 83, 127
1, 165262, Note_on_c, 10, 81, 127
1, 165387, Note_off_c, 10, 81, 127
1, 165390, Note_on_c, 7, 79, 127
1, 165643, Note_off_c, 7, 79, 127
1, 165646, Note_on_c, 0, 84, 127
1, 165899, Note_off_c, 0, 84, 127
1, 165902, Note_on_c, 7, 79, 127
1, 166027, Note_off_c, 7, 79, 127
1, 166030, Note_on_c, 5, 77, 127
1, 166155, Note_off_c, 5, 77, 127
1, 166158, Note_on_c, 3, 75, 127
1, 166283, Note_off_c, 3, 75, 127
1, 166286, Note_on_c, 5, 77, 127
1, 166411, Note_off_c, 5, 77, 127
1, 166414, Note_on_c, 7, 79, 127
1, 166667, Note_off_c, 7, 79, 127
1, 166670, Note_on_c, 0, 72, 127
1, 166923, Note_off_c, 0, 72, 127
1, 166926, Note_on_c, 3, 75, 127
1, 167051, Note_off_c, 3, 75, 127
1, 167054, Note_on_c, 2, 74, 127
1, 167179, Note_off_c, 2, 74, 127
1, 167182, Note_on_c, 0, 72, 127
1, 167307, Note_off_c, 0, 72, 127
1, 167310, Note_on_c, 2, 74, 127
1, 167435, Note_off_c, 2, 74, 127
1, 167438, Note_on_c, 3, 75, 127
1, 167691, Note_off_c, 3, 75, 127
1, 167694, Note_on_c, 0, 60, 127
1, 167694, Note_on_c, 10, 57, 127
1, 167694, Note_on_c, 2, 50, 127
1, 167694, Note_on_c, 6, 66, 127
1, 167758, Note_off_c, 6, 66, 127
1, 167758, Note_on_c, 4, 64, 127
1, 167822, Note_off_c, 4, 64, 127
1, 167822, Note_on_c, 6, 66, 127
1, 168443, Note_off_c, 6, 66, 127
1, 168462, Note_on_c, 7, 67, 127
1, 168715, Note_off_c, 7, 67, 127
1, 168715, Note_off_c, 2, 50, 127
1, 168715, Note_off_c, 10, 57, 127
1, 168716, Note_off_c, 0, 60, 127
1, 168717, Note_on_c, 7, 67, 127
1, 168717, Note_on_c, 12, 59, 127
1, 168717, Note_on_c, 2, 62, 127
1, 168717, Note_on_c, 5, 53, 127
1, 168717, Note_on_c, 7, 43, 127
1, 168970, Note_off_c, 2, 62, 127
1, 168970, Note_off_c, 7, 67, 127
1, 168973, Note_on_c, 2, 62, 127
1, 169098, Note_off_c, 2, 62, 127
1, 169101, Note_on_c, 0, 60, 127
1, 169224, Note_off_c, 12, 59, 127
1, 169227, Note_off_c, 0, 60, 127
1, 169230, Note_on_c, 12, 59, 127
1, 169355, Note_off_c, 12, 59, 127
1, 169358, Note_on_c, 0, 60, 127
1, 169483, Note_off_c, 0, 60, 127
1, 169486, Note_on_c, 2, 62, 127
1, 169739, Note_off_c, 2, 62, 127
1, 169740, Note_off_c, 5, 53, 127
1, 169741, Note_on_c, 7, 55, 127
1, 169997, Note_on_c, 2, 50, 127
1, 170122, Note_off_c, 2, 50, 127
1, 170125, Note_on_c, 0, 48, 127
1, 170248, Note_off_c, 7, 55, 127
1, 170251, Note_off_c, 0, 48, 127
1, 170254, Note_on_c, 12, 47, 127
1, 170379, Note_off_c, 12, 47, 127
1, 170382, Note_on_c, 0, 48, 127
1, 170507, Note_off_c, 0, 48, 127
1, 170510, Note_on_c, 2, 50, 127
1, 170758, Note_off_c, 7, 43, 127
1, 170763, Note_off_c, 2, 50, 127
1, 170766, Note_on_c, 3, 51, 127
1, 170766, Note_on_c, 7, 43, 127
1, 171022, Note_on_c, 10, 57, 127
1, 171278, Note_on_c, 0, 60, 127
1, 171534, Note_on_c, 6, 66, 127
1, 171785, Note_off_c, 0, 60, 127
1, 171788, Note_off_c, 6, 66, 127
1, 171788, Note_off_c, 7, 43, 127
1, 171788, Note_off_c, 3, 51, 127
1, 171789, Note_off_c, 10, 57, 127
1, 171814, Note_on_c, 7, 43, 127
1, 171814, Note_on_c, 2, 50, 127
1, 171814, Note_on_c, 7, 67, 127
1, 171814, Note_on_c, 2, 62, 127
1, 171814, Note_on_c, 12, 59, 127
1, 174454, Note_off_c, 12, 59, 127
1, 174454, Note_off_c, 2, 62, 127
1, 174454, Note_off_c, 7, 67, 127
1, 174454, Note_off_c, 2, 50, 127
1, 174454, Note_off_c, 7, 43, 127
1, 174838, Note_on_c, 2, 62, 127
1, 174970, Note_off_c, 2, 62, 127
1, 174982, Note_on_c, 7, 55, 127
1, 175287, Note_off_c, 7, 55, 127
1, 175300, Note_on_c, 7, 55, 127
1, 175431, Note_off_c, 7, 55, 127
1, 175443, Note_on_c, 0, 60, 127
1, 175748, Note_off_c, 0, 60, 127
1, 175760, Note_on_c, 0, 60, 127
1, 175892, Note_off_c, 0, 60, 127
1, 175904, Note_on_c, 10, 57, 127
1, 176209, Note_off_c, 10, 57, 127
1, 176221, Note_on_c, 10, 57, 127
1, 176353, Note_off_c, 10, 57, 127
1, 176365, Note_on_c, 2, 62, 127
1, 176670, Note_off_c, 2, 62, 127
1, 176683, Note_on_c, 2, 62, 126
1, 176815, Note_off_c, 2, 62, 126
1, 176826, Note_on_c, 11, 58, 127
1, 177131, Note_off_c, 11, 58, 127
1, 177143, Note_on_c, 11, 58, 127
1, 177275, Note_off_c, 11, 58, 127
1, 177287, Note_on_c, 3, 63, 127
1, 177592, Note_off_c, 3, 63, 127
1, 177604, Note_on_c, 3, 63, 127
1, 177736, Note_off_c, 3, 63, 127
1, 177748, Note_on_c, 3, 63, 127
1, 178276, Note_off_c, 3, 63, 127
1, 178524, Note_on_c, 6, 54, 127
1, 178656, Note_off_c, 6, 54, 127
1, 178669, Note_on_c, 7, 55, 127
1, 178974, Note_off_c, 7, 55, 127
1, 178985, Note_on_c, 10, 57, 127
1, 179117, Note_off_c, 10, 57, 127
1, 179130, Note_on_c, 7, 55, 127
1, 179435, Note_off_c, 7, 55, 127
1, 179446, Note_on_c, 6, 54, 127
1, 179578, Note_off_c, 6, 54, 127
1, 179591, Note_on_c, 7, 55, 127
1, 179896, Note_off_c, 7, 55, 127
1, 179907, Note_on_c, 10, 57, 127
1, 180039, Note_off_c, 10, 57, 127
1, 180052, Note_on_c, 7, 55, 127
1, 180357, Note_off_c, 7, 55, 127
1, 180368, Note_on_c, 6, 54, 127
1, 180500, Note_off_c, 6, 54, 127
1, 180513, Note_on_c, 7, 55, 127
1, 180818, Note_off_c, 7, 55, 127
1, 180829, Note_on_c, 10, 57, 127
1, 180961, Note_off_c, 10, 57, 127
1, 180974, Note_on_c, 7, 55, 127
1, 181279, Note_off_c, 7, 55, 127
1, 181290, Note_on_c, 6, 54, 127
1, 181422, Note_off_c, 6, 54, 127
1, 181435, Note_on_c, 7, 55, 127
1, 181740, Note_off_c, 7, 55, 127
1, 181742, Note_on_c, 7, 43, 127
1, 181884, Note_off_c, 7, 43, 127
1, 181896, Note_on_c, 7, 55, 127
1, 182038, Note_off_c, 7, 55, 127
1, 182050, Note_on_c, 6, 54, 127
1, 182192, Note_off_c, 6, 54, 127
1, 182210, Note_on_c, 7, 67, 127
1, 182210, Note_on_c, 7, 55, 127
1, 182352, Note_off_c, 7, 55, 127
1, 182352, Note_off_c, 7, 67, 127
1, 182358, Note_on_c, 2, 62, 127
1, 182358, Note_on_c, 11, 58, 127
1, 182500, Note_off_c, 11, 58, 127
1, 182512, Note_on_c, 10, 57, 127
1, 182654, Note_off_c, 10, 57, 127
1, 182664, Note_off_c, 2, 62, 127
1, 182672, Note_on_c, 2, 62, 127
1, 182672, Note_on_c, 11, 58, 127
1, 182814, Note_off_c, 11, 58, 127
1, 182814, Note_off_c, 2, 62, 127
1, 182820, Note_on_c, 7, 67, 127
1, 182820, Note_on_c, 12, 59, 127
1, 182962, Note_off_c, 12, 59, 127
1, 182974, Note_on_c, 10, 57, 127
1, 183116, Note_off_c, 10, 57, 127
1, 183126, Note_off_c, 7, 67, 127
1, 183134, Note_on_c, 7, 67, 127
1, 183134, Note_on_c, 12, 59, 127
1, 183276, Note_off_c, 12, 59, 127
1, 183276, Note_off_c, 7, 67, 127
1, 183282, Note_on_c, 4, 64, 127
1, 183282, Note_on_c, 0, 60, 127
1, 183424, Note_off_c, 0, 60, 127
1, 183436, Note_on_c, 12, 59, 127
1, 183578, Note_off_c, 12, 59, 127
1, 183588, Note_off_c, 4, 64, 127
1, 183596, Note_on_c, 4, 64, 127
1, 183596, Note_on_c, 0, 60, 127
1, 183738, Note_off_c, 0, 60, 127
1, 183738, Note_off_c, 4, 64, 127
1, 183744, Note_on_c, 10, 69, 127
1, 183744, Note_on_c, 1, 61, 127
1, 183886, Note_off_c, 1, 61, 127
1, 183898, Note_on_c, 12, 59, 127
1, 184040, Note_off_c, 12, 59, 127
1, 184050, Note_off_c, 10, 69, 127
1, 184058, Note_on_c, 10, 69, 127
1, 184058, Note_on_c, 1, 61, 127
1, 184200, Note_off_c, 1, 61, 127
1, 184200, Note_off_c, 10, 69, 127
1, 184206, Note_on_c, 5, 65, 127
1, 184206, Note_on_c, 2, 62, 127
1, 184348, Note_off_c, 2, 62, 127
1, 184360, Note_on_c, 1, 61, 127
1, 184502, Note_off_c, 1, 61, 127
1, 184512, Note_off_c, 5, 65, 127
1, 184520, Note_on_c, 5, 65, 127
1, 184520, Note_on_c, 2, 62, 127
1, 184662, Note_off_c, 2, 62, 127
1, 184662, Note_off_c, 5, 65, 127
1, 184668, Note_on_c, 11, 70, 127
1, 184668, Note_on_c, 2, 50, 127
1, 184810, Note_off_c, 2, 50, 127
1, 184822, Note_on_c, 2, 62, 127
1, 184964, Note_off_c, 2, 62, 127
1, 184974, Note_off_c, 11, 70, 127
1, 184982, Note_on_c, 11, 70, 127
1, 184982, Note_on_c, 2, 50, 127
1, 185124, Note_off_c, 2, 50, 127
1, 185124, Note_off_c, 11, 70, 127
1, 185130, Note_on_c, 11, 70, 127
1, 185130, Note_on_c, 4, 64, 127
1, 185272, Note_off_c, 4, 64, 127
1, 185284, Note_on_c, 2, 62, 127
1, 185426, Note_off_c, 2, 62, 127
1, 185438, Note_on_c, 4, 64, 127
1, 185580, Note_off_c, 4, 64, 127
1, 185592, Note_on_c, 4, 52, 127
1, 185734, Note_off_c, 4, 52, 127
1, 185746, Note_on_c, 4, 64, 127
1, 185822, Note_off_c, 11, 70, 127
1, 185888, Note_off_c, 4, 64, 127
1, 185906, Note_on_c, 1, 61, 127
1, 185906, Note_on_c, 4, 52, 127
1, 186048, Note_off_c, 4, 52, 127
1, 186048, Note_off_c, 1, 61, 127
1, 186054, Note_on_c, 2, 62, 127
1, 186054, Note_on_c, 5, 53, 127
1, 186196, Note_off_c, 5, 53, 127
1, 186208, Note_on_c, 10, 57, 127
1, 186350, Note_off_c, 10, 57, 127
1, 186360, Note_off_c, 2, 62, 127
1, 186368, Note_on_c, 4, 64, 127
1, 186368, Note_on_c, 7, 55, 127
1, 186510, Note_off_c, 7, 55, 127
1, 186510, Note_off_c, 4, 64, 127
1, 186516, Note_on_c, 2, 62, 127
1, 186516, Note_on_c, 5, 53, 127
1, 186658, Note_off_c, 5, 53, 127
1, 186670, Note_on_c, 7, 55, 127
1, 186812, Note_off_c, 7, 55, 127
1, 186822, Note_off_c, 2, 62, 127
1, 186830, Note_on_c, 1, 61, 127
1, 186830, Note_on_c, 4, 52, 127
1, 186972, Note_off_c, 4, 52, 127
1, 186972, Note_off_c, 1, 61, 127
1, 186978, Note_on_c, 2, 62, 127
1, 186978, Note_on_c, 5, 53, 127
1, 187120, Note_off_c, 5, 53, 127
1, 187132, Note_on_c, 10, 57, 127
1, 187274, Note_off_c, 10, 57, 127
1, 187284, Note_off_c, 2, 62, 127
1, 187292, Note_on_c, 4, 64, 127
1, 187292, Note_on_c, 7, 55, 127
1, 187434, Note_off_c, 7, 55, 127
1, 187434, Note_off_c, 4, 64, 127
1, 187440, Note_on_c, 2, 62, 127
1, 187440, Note_on_c, 5, 53, 127
1, 187582, Note_off_c, 5, 53, 127
1, 187594, Note_on_c, 7, 55, 127
1, 187736, Note_off_c, 7, 55, 127
1, 187746, Note_off_c, 2, 62, 127
1, 187754, Note_on_c, 1, 61, 127
1, 187754, Note_on_c, 4, 52, 127
1, 187896, Note_off_c, 4, 52, 127
1, 187896, Note_off_c, 1, 61, 127
1, 187902, Note_on_c, 2, 62, 127
1, 187902, Note_on_c, 5, 53, 127
1, 188044, Note_off_c, 5, 53, 127
1, 188056, Note_on_c, 10, 57, 127
1, 188198, Note_off_c, 10, 57, 127
1, 188208, Note_off_c, 2, 62, 127
1, 188216, Note_on_c, 4, 64, 127
1, 188216, Note_on_c, 7, 55, 127
1, 188358, Note_off_c, 7, 55, 127
1, 188358, Note_off_c, 4, 64, 127
1, 188364, Note_on_c, 2, 62, 127
1, 188364, Note_on_c, 5, 53, 127
1, 188506, Note_off_c, 5, 53, 127
1, 188518, Note_on_c, 7, 55, 127
1, 188660, Note_off_c, 7, 55, 127
1, 188670, Note_off_c, 2, 62, 127
1, 188678, Note_on_c, 1, 61, 127
1, 188678, Note_on_c, 4, 52, 127
1, 188820, Note_off_c, 4, 52, 127
1, 188820, Note_off_c, 1, 61, 127
1, 188826, Note_on_c, 2, 62, 127
1, 188826, Note_on_c, 5, 53, 127
1, 188968, Note_off_c, 5, 53, 127
1, 188980, Note_on_c, 4, 52, 127
1, 189122, Note_off_c, 4, 52, 127
1, 189134, Note_on_c, 2, 50, 127
1, 189285, Note_off_c, 2, 62, 127
1, 189287, Note_on_c, 2, 62, 127
1, 189429, Note_off_c, 2, 62, 127
1, 189441, Note_on_c, 0, 60, 127
1, 189583, Note_off_c, 0, 60, 127
1, 189593, Note_off_c, 2, 50, 127
1, 189595, Note_on_c, 2, 62, 127
1, 189595, Note_on_c, 6, 54, 127
1, 189595, Note_on_c, 2, 50, 127
1, 189737, Note_off_c, 2, 50, 127
1, 189737, Note_off_c, 6, 54, 127
1, 189737, Note_off_c, 2, 62, 127
1, 189749, Note_on_c, 3, 63, 127
1, 189749, Note_on_c, 11, 58, 127
1, 189749, Note_on_c, 7, 43, 127
1, 189891, Note_off_c, 3, 63, 127
1, 189903, Note_on_c, 2, 62, 127
1, 190045, Note_off_c, 2, 62, 127
1, 190055, Note_off_c, 7, 43, 127
1, 190055, Note_off_c, 11, 58, 127
1, 190057, Note_on_c, 3, 63, 127
1, 190057, Note_on_c, 11, 58, 127
1, 190057, Note_on_c, 7, 43, 127
1, 190199, Note_off_c, 7, 43, 127
1, 190199, Note_off_c, 11, 58, 127
1, 190199, Note_off_c, 3, 63, 127
1, 190211, Note_on_c, 4, 64, 127
1, 190211, Note_on_c, 7, 55, 127
1, 190211, Note_on_c, 0, 48, 127
1, 190353, Note_off_c, 4, 64, 127
1, 190365, Note_on_c, 2, 62, 127
1, 190507, Note_off_c, 2, 62, 127
1, 190517, Note_off_c, 0, 48, 127
1, 190517, Note_off_c, 7, 55, 127
1, 190519, Note_on_c, 4, 64, 127
1, 190519, Note_on_c, 7, 55, 127
1, 190519, Note_on_c, 0, 48, 127
1, 190661, Note_off_c, 0, 48, 127
1, 190661, Note_off_c, 7, 55, 127
1, 190661, Note_off_c, 4, 64, 127
1, 190673, Note_on_c, 5, 65, 127
1, 190673, Note_on_c, 0, 60, 127
1, 190673, Note_on_c, 10, 45, 127
1, 190815, Note_off_c, 5, 65, 127
1, 190827, Note_on_c, 4, 64, 127
1, 190969, Note_off_c, 4, 64, 127
1, 190979, Note_off_c, 10, 45, 127
1, 190979, Note_off_c, 0, 60, 127
1, 190981, Note_on_c, 5, 65, 127
1, 190981, Note_on_c, 0, 60, 127
1, 190981, Note_on_c, 10, 45, 127
1, 191123, Note_off_c, 10, 45, 127
1, 191123, Note_off_c, 0, 60, 127
1, 191123, Note_off_c, 5, 65, 127
1, 191135, Note_on_c, 6, 66, 127
1, 191135, Note_on_c, 10, 57, 127
1, 191135, Note_on_c, 2, 50, 127
1, 191277, Note_off_c, 6, 66, 127
1, 191289, Note_on_c, 4, 64, 127
1, 191431, Note_off_c, 4, 64, 127
1, 191441, Note_off_c, 2, 50, 127
1, 191441, Note_off_c, 10, 57, 127
1, 191443, Note_on_c, 6, 66, 127
1, 191443, Note_on_c, 10, 57, 127
1, 191443, Note_on_c, 2, 50, 127
1, 191585, Note_off_c, 2, 50, 127
1, 191585, Note_off_c, 10, 57, 127
1, 191585, Note_off_c, 6, 66, 127
1, 191597, Note_on_c, 7, 67, 127
1, 191597, Note_on_c, 2, 62, 127
1, 191597, Note_on_c, 11, 46, 127
1, 191739, Note_off_c, 7, 67, 127
1, 191751, Note_on_c, 6, 66, 127
1, 191893, Note_off_c, 6, 66, 127
1, 191903, Note_off_c, 11, 46, 127
1, 191903, Note_off_c, 2, 62, 127
1, 191905, Note_on_c, 7, 67, 127
1, 191905, Note_on_c, 2, 62, 127
1, 191905, Note_on_c, 11, 46, 127
1, 192047, Note_off_c, 11, 46, 127
1, 192047, Note_off_c, 2, 62, 127
1, 192047, Note_off_c, 7, 67, 127
1, 192059, Note_on_c, 7, 55, 127
1, 192059, Note_on_c, 11, 58, 127
1, 192059, Note_on_c, 3, 51, 127
1, 192201, Note_off_c, 7, 55, 127
1, 192213, Note_on_c, 7, 67, 127
1, 192355, Note_off_c, 7, 67, 127
1, 192365, Note_off_c, 3, 51, 127
1, 192365, Note_off_c, 11, 58, 127
1, 192367, Note_on_c, 7, 55, 127
1, 192367, Note_on_c, 11, 58, 127
1, 192367, Note_on_c, 3, 51, 127
1, 192509, Note_off_c, 3, 51, 127
1, 192509, Note_off_c, 11, 58, 127
1, 192509, Note_off_c, 7, 55, 127
1, 192521, Note_on_c, 10, 69, 127
1, 192521, Note_on_c, 0, 60, 127
1, 192521, Note_on_c, 3, 51, 127
1, 192663, Note_off_c, 10, 69, 127
1, 192675, Note_on_c, 7, 67, 127
1, 192817, Note_off_c, 7, 67, 127
1, 192827, Note_off_c, 0, 60, 127
1, 192829, Note_on_c, 10, 69, 127
1, 192829, Note_on_c, 0, 60, 127
1, 192971, Note_off_c, 0, 60, 127
1, 192971, Note_off_c, 10, 69, 127
1, 192983, Note_on_c, 10, 57, 127
1, 192983, Note_on_c, 0, 60, 127
1, 193125, Note_off_c, 10, 57, 127
1, 193137, Note_on_c, 10, 69, 127
1, 193213, Note_off_c, 3, 51, 127
1, 193279, Note_off_c, 10, 69, 127
1, 193289, Note_off_c, 0, 60, 127
1, 193291, Note_on_c, 10, 57, 127
1, 193291, Note_on_c, 0, 60, 127
1, 193291, Note_on_c, 6, 42, 127
1, 193433, Note_off_c, 6, 42, 127
1, 193433, Note_off_c, 0, 60, 127
1, 193433, Note_off_c, 10, 57, 127
1, 193445, Note_on_c, 11, 58, 127
1, 193445, Note_on_c, 2, 50, 127
1, 193445, Note_on_c, 7, 43, 127
1, 193587, Note_off_c, 11, 58, 127
1, 193599, Note_on_c, 2, 62, 127
1, 193741, Note_off_c, 2, 62, 127
1, 193751, Note_off_c, 7, 43, 127
1, 193753, Note_on_c, 0, 60, 127
1, 193753, Note_on_c, 10, 45, 127
1, 193895, Note_off_c, 10, 45, 127
1, 193895, Note_off_c, 0, 60, 127
1, 193907, Note_on_c, 11, 58, 127
1, 193907, Note_on_c, 7, 43, 127
1, 194049, Note_off_c, 11, 58, 127
1, 194061, Note_on_c, 0, 60, 127
1, 194137, Note_off_c, 2, 50, 127
1, 194203, Note_off_c, 0, 60, 127
1, 194213, Note_off_c, 7, 43, 127
1, 194215, Note_on_c, 10, 57, 127
1, 194215, Note_on_c, 2, 50, 127
1, 194215, Note_on_c, 6, 42, 127
1, 194357, Note_off_c, 6, 42, 127
1, 194357, Note_off_c, 2, 50, 127
1, 194357, Note_off_c, 10, 57, 127
1, 194369, Note_on_c, 11, 58, 127
1, 194369, Note_on_c, 2, 50, 127
1, 194369, Note_on_c, 7, 43, 127
1, 194511, Note_off_c, 11, 58, 127
1, 194523, Note_on_c, 2, 62, 127
1, 194665, Note_off_c, 2, 62, 127
1, 194675, Note_off_c, 7, 43, 127
1, 194677, Note_on_c, 0, 60, 127
1, 194677, Note_on_c, 10, 45, 127
1, 194819, Note_off_c, 10, 45, 127
1, 194819, Note_off_c, 0, 60, 127
1, 194831, Note_on_c, 11, 58, 127
1, 194831, Note_on_c, 7, 43, 127
1, 194973, Note_off_c, 11, 58, 127
1, 194985, Note_on_c, 0, 60, 127
1, 195061, Note_off_c, 2, 50, 127
1, 195127, Note_off_c, 0, 60, 127
1, 195137, Note_off_c, 7, 43, 127
1, 195139, Note_on_c, 10, 57, 127
1, 195139, Note_on_c, 2, 50, 127
1, 195139, Note_on_c, 6, 42, 127
1, 195281, Note_off_c, 6, 42, 127
1, 195281, Note_off_c, 2, 50, 127
1, 195281, Note_off_c, 10, 57, 127
1, 195293, Note_on_c, 11, 58, 127
1, 195293, Note_on_c, 2, 50, 127
1, 195293, Note_on_c, 7, 43, 127
1, 195435, Note_off_c, 11, 58, 127
1, 195447, Note_on_c, 2, 62, 127
1, 195589, Note_off_c, 2, 62, 127
1, 195599, Note_off_c, 7, 43, 127
1, 195601, Note_on_c, 0, 60, 127
1, 195601, Note_on_c, 10, 45, 127
1, 195743, Note_off_c, 10, 45, 127
1, 195743, Note_off_c, 0, 60, 127
1, 195755, Note_on_c, 11, 58, 127
1, 195755, Note_on_c, 7, 43, 127
1, 195897, Note_off_c, 11, 58, 127
1, 195909, Note_on_c, 0, 60, 127
1, 195985, Note_off_c, 2, 50, 127
1, 196051, Note_off_c, 0, 60, 127
1, 196061, Note_off_c, 7, 43, 127
1, 196063, Note_on_c, 10, 57, 127
1, 196063, Note_on_c, 2, 50, 127
1, 196063, Note_on_c, 6, 42, 127
1, 196205, Note_off_c, 6, 42, 127
1, 196205, Note_off_c, 2, 50, 127
1, 196205, Note_off_c, 10, 57, 127
1, 196217, Note_on_c, 11, 58, 127
1, 196217, Note_on_c, 2, 50, 127
1, 196217, Note_on_c, 7, 43, 127
1, 196359, Note_off_c, 11, 58, 127
1, 196371, Note_on_c, 10, 57, 127
1, 196513, Note_off_c, 10, 57, 127
1, 196523, Note_off_c, 7, 43, 127
1, 196525, Note_on_c, 7, 55, 127
1, 196525, Note_on_c, 7, 43, 127
1, 196667, Note_off_c, 7, 43, 127
1, 196674, Note_off_c, 2, 50, 127
1, 196679, Note_on_c, 7, 43, 127
1, 196821, Note_off_c, 7, 43, 127
1, 196826, Note_off_c, 7, 55, 127
1, 196833, Note_on_c, 6, 42, 127
1, 196975, Note_off_c, 6, 42, 127
1, 196987, Note_on_c, 7, 79, 127
1, 196987, Note_on_c, 11, 70, 127
1, 196987, Note_on_c, 2, 74, 127
1, 196987, Note_on_c, 7, 43, 127
1, 197129, Note_off_c, 7, 43, 127
1, 197129, Note_off_c, 2, 74, 127
1, 197129, Note_off_c, 11, 70, 127
1, 197129, Note_off_c, 7, 79, 127
1, 197141, Note_on_c, 7, 67, 127
1, 197141, Note_on_c, 2, 74, 127
1, 197141, Note_on_c, 11, 46, 127
1, 197283, Note_off_c, 11, 46, 127
1, 197295, Note_on_c, 10, 45, 127
1, 197437, Note_off_c, 10, 45, 127
1, 197447, Note_off_c, 2, 74, 127
1, 197447, Note_off_c, 7, 67, 127
1, 197449, Note_on_c, 2, 74, 127
1, 197449, Note_on_c, 7, 67, 127
1, 197449, Note_on_c, 11, 46, 127
1, 197591, Note_off_c, 11, 46, 127
1, 197591, Note_off_c, 7, 67, 127
1, 197591, Note_off_c, 2, 74, 127
1, 197603, Note_on_c, 7, 79, 127
1, 197603, Note_on_c, 2, 74, 127
1, 197603, Note_on_c, 7, 67, 127
1, 197603, Note_on_c, 12, 47, 127
1, 197745, Note_off_c, 12, 47, 127
1, 197757, Note_on_c, 10, 45, 127
1, 197899, Note_off_c, 10, 45, 127
1, 197909, Note_off_c, 7, 67, 127
1, 197909, Note_off_c, 2, 74, 127
1, 197909, Note_off_c, 7, 79, 127
1, 197911, Note_on_c, 7, 79, 127
1, 197911, Note_on_c, 2, 74, 127
1, 197911, Note_on_c, 7, 67, 127
1, 197911, Note_on_c, 12, 47, 127
1, 198053, Note_off_c, 12, 47, 127
1, 198053, Note_off_c, 7, 67, 127
1, 198053, Note_off_c, 2, 74, 127
1, 198053, Note_off_c, 7, 79, 127
1, 198065, Note_on_c, 0, 72, 127
1, 198065, Note_on_c, 7, 67, 127
1, 198065, Note_on_c, 4, 76, 127
1, 198065, Note_on_c, 0, 48, 127
1, 198207, Note_off_c, 0, 48, 127
1, 198219, Note_on_c, 12, 47, 127
1, 198361, Note_off_c, 12, 47, 127
1, 198371, Note_off_c, 4, 76, 127
1, 198371, Note_off_c, 7, 67, 127
1, 198371, Note_off_c, 0, 72, 127
1, 198373, Note_on_c, 0, 72, 127
1, 198373, Note_on_c, 4, 76, 127
1, 198373, Note_on_c, 7, 67, 127
1, 198373, Note_on_c, 0, 48, 127
1, 198515, Note_off_c, 0, 48, 127
1, 198515, Note_off_c, 7, 67, 127
1, 198515, Note_off_c, 4, 76, 127
1, 198515, Note_off_c, 0, 72, 127
1, 198527, Note_on_c, 10, 69, 127
1, 198527, Note_on_c, 4, 76, 127
1, 198527, Note_on_c, 10, 81, 127
1, 198527, Note_on_c, 1, 49, 127
1, 198669, Note_off_c, 1, 49, 127
1, 198681, Note_on_c, 12, 47, 127
1, 198823, Note_off_c, 12, 47, 127
1, 198833, Note_off_c, 10, 81, 127
1, 198833, Note_off_c, 4, 76, 127
1, 198833, Note_off_c, 10, 69, 127
1, 198835, Note_on_c, 4, 76, 127
1, 198835, Note_on_c, 10, 81, 127
1, 198835, Note_on_c, 10, 69, 127
1, 198835, Note_on_c, 1, 49, 127
1, 198977, Note_off_c, 1, 49, 127
1, 198977, Note_off_c, 10, 69, 127
1, 198977, Note_off_c, 10, 81, 127
1, 198977, Note_off_c, 4, 76, 127
1, 198989, Note_on_c, 5, 77, 127
1, 198989, Note_on_c, 10, 69, 127
1, 198989, Note_on_c, 2, 74, 127
1, 198989, Note_on_c, 2, 50, 127
1, 199131, Note_off_c, 2, 50, 127
1, 199143, Note_on_c, 1, 49, 127
1, 199285, Note_off_c, 1, 49, 127
1, 199295, Note_off_c, 2, 74, 127
1, 199295, Note_off_c, 10, 69, 127
1, 199295, Note_off_c, 5, 77, 127
1, 199297, Note_on_c, 5, 77, 127
1, 199297, Note_on_c, 2, 74, 127
1, 199297, Note_on_c, 10, 69, 127
1, 199297, Note_on_c, 2, 50, 127
1, 199439, Note_off_c, 2, 50, 127
1, 199439, Note_off_c, 10, 69, 127
1, 199439, Note_off_c, 2, 74, 127
1, 199439, Note_off_c, 5, 77, 127
1, 199451, Note_on_c, 11, 82, 127
1, 199451, Note_on_c, 5, 77, 127
1, 199451, Note_on_c, 2, 74, 127
1, 199451, Note_on_c, 2, 38, 127
1, 199593, Note_off_c, 2, 38, 127
1, 199605, Note_on_c, 2, 50, 127
1, 199747, Note_off_c, 2, 50, 127
1, 199757, Note_off_c, 2, 74, 127
1, 199757, Note_off_c, 5, 77, 127
1, 199757, Note_off_c, 11, 82, 127
1, 199759, Note_on_c, 11, 82, 127
1, 199759, Note_on_c, 2, 74, 127
1, 199759, Note_on_c, 5, 77, 127
1, 199759, Note_on_c, 2, 38, 127
1, 199901, Note_off_c, 2, 38, 127
1, 199901, Note_off_c, 5, 77, 127
1, 199901, Note_off_c, 2, 74, 127
1, 199901, Note_off_c, 11, 82, 127
1, 199913, Note_on_c, 7, 79, 127
1, 199913, Note_on_c, 11, 82, 127
1, 199913, Note_on_c, 1, 73, 127
1, 199913, Note_on_c, 4, 52, 127
1, 200055, Note_off_c, 4, 52, 127
1, 200067, Note_on_c, 2, 50, 127
1, 200209, Note_off_c, 2, 50, 127
1, 200221, Note_on_c, 4, 52, 127
1, 200363, Note_off_c, 4, 52, 127
1, 200375, Note_on_c, 4, 40, 127
1, 200517, Note_off_c, 4, 40, 127
1, 200529, Note_on_c, 4, 52, 127
1, 200605, Note_off_c, 1, 73, 127
1, 200605, Note_off_c, 11, 82, 127
1, 200605, Note_off_c, 7, 79, 127
1, 200671, Note_off_c, 4, 52, 127
1, 200683, Note_on_c, 1, 73, 127
1, 200683, Note_on_c, 7, 67, 127
1, 200683, Note_on_c, 4, 40, 127
1, 200825, Note_off_c, 4, 40, 127
1, 200825, Note_off_c, 7, 67, 127
1, 200825, Note_off_c, 1, 73, 127
1, 200837, Note_on_c, 2, 74, 127
1, 200837, Note_on_c, 10, 69, 127
1, 200837, Note_on_c, 5, 41, 127
1, 200979, Note_off_c, 5, 41, 127
1, 200991, Note_on_c, 10, 45, 127
1, 201133, Note_off_c, 10, 45, 127
1, 201143, Note_off_c, 2, 74, 127
1, 201145, Note_on_c, 4, 76, 127
1, 201145, Note_on_c, 7, 43, 127
1, 201287, Note_off_c, 7, 43, 127
1, 201287, Note_off_c, 4, 76, 127
1, 201299, Note_on_c, 2, 74, 127
1, 201299, Note_on_c, 5, 41, 127
1, 201441, Note_off_c, 5, 41, 127
1, 201453, Note_on_c, 7, 43, 127
1, 201529, Note_off_c, 10, 69, 127
1, 201595, Note_off_c, 7, 43, 127
1, 201605, Note_off_c, 2, 74, 127
1, 201607, Note_on_c, 1, 73, 127
1, 201607, Note_on_c, 7, 67, 127
1, 201607, Note_on_c, 4, 40, 127
1, 201749, Note_off_c, 4, 40, 127
1, 201749, Note_off_c, 7, 67, 127
1, 201749, Note_off_c, 1, 73, 127
1, 201761, Note_on_c, 2, 74, 127
1, 201761, Note_on_c, 10, 69, 127
1, 201761, Note_on_c, 5, 41, 127
1, 201903, Note_off_c, 5, 41, 127
1, 201915, Note_on_c, 10, 45, 127
1, 202057, Note_off_c, 10, 45, 127
1, 202067, Note_off_c, 2, 74, 127
1, 202069, Note_on_c, 4, 76, 127
1, 202069, Note_on_c, 7, 43, 127
1, 202211, Note_off_c, 7, 43, 127
1, 202211, Note_off_c, 4, 76, 127
1, 202223, Note_on_c, 2, 74, 127
1, 202223, Note_on_c, 5, 41, 127
1, 202365, Note_off_c, 5, 41, 127
1, 202377, Note_on_c, 7, 43, 127
1, 202453, Note_off_c, 10, 69, 127
1, 202519, Note_off_c, 7, 43, 127
1, 202529, Note_off_c, 2, 74, 127
1, 202531, Note_on_c, 1, 73, 127
1, 202531, Note_on_c, 7, 67, 127
1, 202531, Note_on_c, 4, 40, 127
1, 202673, Note_off_c, 4, 40, 127
1, 202673, Note_off_c, 7, 67, 127
1, 202673, Note_off_c, 1, 73, 127
1, 202685, Note_on_c, 2, 74, 127
1, 202685, Note_on_c, 10, 69, 127
1, 202685, Note_on_c, 5, 41, 127
1, 202827, Note_off_c, 5, 41, 127
1, 202839, Note_on_c, 10, 45, 127
1, 202981, Note_off_c, 10, 45, 127
1, 202991, Note_off_c, 2, 74, 127
1, 202993, Note_on_c, 4, 76, 127
1, 202993, Note_on_c, 7, 43, 127
1, 203135, Note_off_c, 7, 43, 127
1, 203135, Note_off_c, 4, 76, 127
1, 203147, Note_on_c, 2, 74, 127
1, 203147, Note_on_c, 5, 41, 127
1, 203289, Note_off_c, 5, 41, 127
1, 203301, Note_on_c, 7, 43, 127
1, 203377, Note_off_c, 10, 69, 127
1, 203443, Note_off_c, 7, 43, 127
1, 203453, Note_off_c, 2, 74, 127
1, 203455, Note_on_c, 1, 73, 127
1, 203455, Note_on_c, 7, 67, 127
1, 203455, Note_on_c, 4, 40, 127
1, 203597, Note_off_c, 4, 40, 127
1, 203597, Note_off_c, 7, 67, 127
1, 203597, Note_off_c, 1, 73, 127
1, 203609, Note_on_c, 2, 74, 127
1, 203609, Note_on_c, 10, 69, 127
1, 203609, Note_on_c, 5, 41, 127
1, 203751, Note_off_c, 5, 41, 127
1, 203763, Note_on_c, 4, 40, 127
1, 203905, Note_off_c, 4, 40, 127
1, 203915, Note_off_c, 2, 74, 127
1, 203917, Note_on_c, 2, 62, 127
1, 203917, Note_on_c, 2, 38, 127
1, 204059, Note_off_c, 2, 38, 127
1, 204059, Note_off_c, 2, 62, 127
1, 204066, Note_off_c, 10, 69, 127
1, 204071, Note_on_c, 2, 74, 127
1, 204071, Note_on_c, 11, 58, 127
1, 204213, Note_off_c, 11, 58, 127
1, 204213, Note_off_c, 2, 74, 127
1, 204225, Note_on_c, 0, 72, 127
1, 204225, Note_on_c, 10, 57, 127
1, 204367, Note_off_c, 10, 57, 127
1, 204367, Note_off_c, 0, 72, 127
1, 204379, Note_on_c, 2, 74, 127
1, 204379, Note_on_c, 7, 55, 127
1, 204521, Note_off_c, 7, 55, 127
1, 204521, Note_off_c, 2, 74, 127
1, 204533, Note_on_c, 3, 75, 127
1, 204533, Note_on_c, 7, 67, 127
1, 204533, Note_on_c, 0, 60, 127
1, 204675, Note_off_c, 3, 75, 127
1, 204687, Note_on_c, 2, 74, 127
1, 204829, Note_off_c, 2, 74, 127
1, 204839, Note_off_c, 0, 60, 127
1, 204841, Note_on_c, 3, 75, 127
1, 204841, Note_on_c, 0, 60, 127
1, 204983, Note_off_c, 0, 60, 127
1, 204983, Note_off_c, 3, 75, 127
1, 204993, Note_off_c, 7, 67, 127
1, 204995, Note_on_c, 4, 76, 127
1, 204995, Note_on_c, 0, 72, 127
1, 204995, Note_on_c, 0, 48, 127
1, 205137, Note_off_c, 4, 76, 127
1, 205149, Note_on_c, 2, 74, 127
1, 205291, Note_off_c, 2, 74, 127
1, 205301, Note_off_c, 0, 48, 127
1, 205301, Note_off_c, 0, 72, 127
1, 205303, Note_on_c, 4, 76, 127
1, 205303, Note_on_c, 0, 72, 127
1, 205303, Note_on_c, 0, 60, 127
1, 205445, Note_off_c, 0, 60, 127
1, 205445, Note_off_c, 0, 72, 127
1, 205445, Note_off_c, 4, 76, 127
1, 205457, Note_on_c, 5, 77, 127
1, 205457, Note_on_c, 10, 69, 127
1, 205457, Note_on_c, 2, 62, 127
1, 205599, Note_off_c, 5, 77, 127
1, 205611, Note_on_c, 4, 76, 127
1, 205753, Note_off_c, 4, 76, 127
1, 205763, Note_off_c, 2, 62, 127
1, 205763, Note_off_c, 10, 69, 127
1, 205765, Note_on_c, 5, 77, 127
1, 205765, Note_on_c, 10, 69, 127
1, 205765, Note_on_c, 2, 62, 127
1, 205907, Note_off_c, 2, 62, 127
1, 205907, Note_off_c, 10, 69, 127
1, 205907, Note_off_c, 5, 77, 127
1, 205919, Note_on_c, 6, 78, 127
1, 205919, Note_on_c, 2, 74, 127
1, 205919, Note_on_c, 2, 50, 127
1, 206061, Note_off_c, 6, 78, 127
1, 206073, Note_on_c, 4, 76, 127
1, 206215, Note_off_c, 4, 76, 127
1, 206225, Note_off_c, 2, 50, 127
1, 206225, Note_off_c, 2, 74, 127
1, 206227, Note_on_c, 6, 78, 127
1, 206227, Note_on_c, 2, 74, 127
1, 206227, Note_on_c, 2, 62, 127
1, 206369, Note_off_c, 2, 62, 127
1, 206369, Note_off_c, 2, 74, 127
1, 206369, Note_off_c, 6, 78, 127
1, 206381, Note_on_c, 7, 79, 127
1, 206381, Note_on_c, 11, 70, 127
1, 206381, Note_on_c, 3, 63, 127
1, 206523, Note_off_c, 7, 79, 127
1, 206535, Note_on_c, 6, 78, 127
1, 206677, Note_off_c, 6, 78, 127
1, 206687, Note_off_c, 3, 63, 127
1, 206687, Note_off_c, 11, 70, 127
1, 206689, Note_on_c, 7, 79, 127
1, 206689, Note_on_c, 11, 70, 127
1, 206689, Note_on_c, 2, 62, 127
1, 206831, Note_off_c, 2, 62, 127
1, 206831, Note_off_c, 11, 70, 127
1, 206831, Note_off_c, 7, 79, 127
1, 206843, Note_on_c, 7, 67, 127
1, 206843, Note_on_c, 3, 75, 127
1, 206843, Note_on_c, 0, 60, 127
1, 206985, Note_off_c, 7, 67, 127
1, 206997, Note_on_c, 7, 79, 127
1, 207139, Note_off_c, 7, 79, 127
1, 207149, Note_off_c, 0, 60, 127
1, 207149, Note_off_c, 3, 75, 127
1, 207151, Note_on_c, 7, 67, 127
1, 207151, Note_on_c, 3, 75, 127
1, 207151, Note_on_c, 3, 63, 127
1, 207293, Note_off_c, 3, 63, 127
1, 207293, Note_off_c, 3, 75, 127
1, 207293, Note_off_c, 7, 67, 127
1, 207305, Note_on_c, 10, 81, 127
1, 207305, Note_on_c, 3, 75, 127
1, 207305, Note_on_c, 6, 54, 127
1, 207447, Note_off_c, 10, 81, 127
1, 207459, Note_on_c, 7, 79, 127
1, 207601, Note_off_c, 7, 79, 127
1, 207611, Note_off_c, 6, 54, 127
1, 207613, Note_on_c, 10, 81, 127
1, 207613, Note_on_c, 10, 57, 127
1, 207755, Note_off_c, 10, 57, 127
1, 207755, Note_off_c, 10, 81, 127
1, 207767, Note_on_c, 10, 69, 127
1, 207767, Note_on_c, 6, 54, 127
1, 207909, Note_off_c, 10, 69, 127
1, 207921, Note_on_c, 10, 81, 127
1, 207997, Note_off_c, 3, 75, 127
1, 208063, Note_off_c, 10, 81, 127
1, 208073, Note_off_c, 6, 54, 127
1, 208075, Note_on_c, 10, 69, 127
1, 208075, Note_on_c, 6, 66, 127
1, 208075, Note_on_c, 2, 50, 127
1, 208217, Note_off_c, 2, 50, 127
1, 208217, Note_off_c, 6, 66, 127
1, 208217, Note_off_c, 10, 69, 127
1, 208229, Note_on_c, 11, 70, 127
1, 208229, Note_on_c, 7, 67, 127
1, 208229, Note_on_c, 7, 55, 127
1, 208371, Note_off_c, 11, 70, 127
1, 208383, Note_on_c, 2, 74, 127
1, 208525, Note_off_c, 2, 74, 127
1, 208535, Note_off_c, 7, 67, 127
1, 208537, Note_on_c, 0, 72, 127
1, 208537, Note_on_c, 10, 69, 127
1, 208679, Note_off_c, 10, 69, 127
1, 208679, Note_off_c, 0, 72, 127
1, 208691, Note_on_c, 11, 70, 127
1, 208691, Note_on_c, 7, 67, 127
1, 208833, Note_off_c, 11, 70, 127
1, 208845, Note_on_c, 0, 72, 127
1, 208921, Note_off_c, 7, 55, 127
1, 208987, Note_off_c, 0, 72, 127
1, 208997, Note_off_c, 7, 67, 127
1, 208999, Note_on_c, 10, 69, 127
1, 208999, Note_on_c, 6, 66, 127
1, 208999, Note_on_c, 2, 50, 127
1, 209141, Note_off_c, 2, 50, 127
1, 209141, Note_off_c, 6, 66, 127
1, 209141, Note_off_c, 10, 69, 127
1, 209153, Note_on_c, 11, 70, 127
1, 209153, Note_on_c, 7, 67, 127
1, 209153, Note_on_c, 7, 43, 127
1, 209295, Note_off_c, 11, 70, 127
1, 209307, Note_on_c, 2, 74, 127
1, 209449, Note_off_c, 2, 74, 127
1, 209459, Note_off_c, 7, 67, 127
1, 209461, Note_on_c, 0, 72, 127
1, 209461, Note_on_c, 10, 69, 127
1, 209603, Note_off_c, 10, 69, 127
1, 209603, Note_off_c, 0, 72, 127
1, 209615, Note_on_c, 11, 70, 127
1, 209615, Note_on_c, 7, 67, 127
1, 209757, Note_off_c, 11, 70, 127
1, 209769, Note_on_c, 0, 72, 127
1, 209845, Note_off_c, 7, 43, 127
1, 209911, Note_off_c, 0, 72, 127
1, 209921, Note_off_c, 7, 67, 127
1, 209923, Note_on_c, 10, 69, 127
1, 209923, Note_on_c, 6, 66, 127
1, 209923, Note_on_c, 2, 50, 127
1, 210065, Note_off_c, 2, 50, 127
1, 210065, Note_off_c, 6, 66, 127
1, 210065, Note_off_c, 10, 69, 127
1, 210077, Note_on_c, 11, 70, 127
1, 210077, Note_on_c, 7, 67, 127
1, 210077, Note_on_c, 7, 55, 127
1, 210219, Note_off_c, 11, 70, 127
1, 210231, Note_on_c, 2, 74, 127
1, 210373, Note_off_c, 2, 74, 127
1, 210383, Note_off_c, 7, 67, 127
1, 210385, Note_on_c, 0, 72, 127
1, 210385, Note_on_c, 10, 69, 127
1, 210527, Note_off_c, 10, 69, 127
1, 210527, Note_off_c, 0, 72, 127
1, 210539, Note_on_c, 11, 70, 127
1, 210539, Note_on_c, 7, 67, 127
1, 210681, Note_off_c, 11, 70, 127
1, 210693, Note_on_c, 0, 72, 127
1, 210769, Note_off_c, 7, 55, 127
1, 210835, Note_off_c, 0, 72, 127
1, 210845, Note_off_c, 7, 67, 127
1, 210847, Note_on_c, 10, 69, 127
1, 210847, Note_on_c, 6, 66, 127
1, 210847, Note_on_c, 2, 50, 127
1, 210989, Note_off_c, 2, 50, 127
1, 210989, Note_off_c, 6, 66, 127
1, 210989, Note_off_c, 10, 69, 127
1, 211001, Note_on_c, 11, 70, 127
1, 211001, Note_on_c, 7, 67, 127
1, 211001, Note_on_c, 7, 43, 127
1, 211143, Note_off_c, 11, 70, 127
1, 211155, Note_on_c, 10, 69, 127
1, 211297, Note_off_c, 10, 69, 127
1, 211307, Note_off_c, 7, 67, 127
1, 211309, Note_on_c, 7, 67, 127
1, 211309, Note_on_c, 7, 55, 127
1, 211451, Note_off_c, 7, 67, 127
1, 211458, Note_off_c, 7, 43, 127
1, 211463, Note_off_c, 7, 55, 127
1, 211463, Note_on_c, 2, 74, 127
1, 211605, Note_off_c, 2, 74, 127
1, 211617, Note_on_c, 4, 76, 127
1, 211759, Note_off_c, 4, 76, 127
1, 211771, Note_on_c, 2, 74, 127
1, 211771, Note_on_c, 2, 62, 127
1, 211913, Note_off_c, 2, 62, 127
1, 211913, Note_off_c, 2, 74, 127
1, 211925, Note_on_c, 1, 73, 127
1, 211925, Note_on_c, 10, 69, 127
1, 212067, Note_off_c, 1, 73, 127
1, 212079, Note_on_c, 2, 74, 127
1, 212221, Note_off_c, 2, 74, 127
1, 212231, Note_off_c, 10, 69, 127
1, 212233, Note_on_c, 1, 73, 127
1, 212233, Note_on_c, 10, 69, 127
1, 212375, Note_off_c, 10, 69, 127
1, 212375, Note_off_c, 1, 73, 127
1, 212387, Note_on_c, 0, 72, 127
1, 212387, Note_on_c, 4, 64, 127
1, 212529, Note_off_c, 0, 72, 127
1, 212541, Note_on_c, 2, 74, 127
1, 212683, Note_off_c, 2, 74, 127
1, 212693, Note_off_c, 4, 64, 127
1, 212695, Note_on_c, 0, 72, 127
1, 212695, Note_on_c, 4, 64, 127
1, 212837, Note_off_c, 4, 64, 127
1, 212837, Note_off_c, 0, 72, 127
1, 212849, Note_on_c, 12, 71, 127
1, 212849, Note_on_c, 7, 67, 127
1, 212991, Note_off_c, 12, 71, 127
1, 213003, Note_on_c, 0, 72, 127
1, 213145, Note_off_c, 0, 72, 127
1, 213155, Note_off_c, 7, 67, 127
1, 213157, Note_on_c, 12, 71, 127
1, 213157, Note_on_c, 7, 67, 127
1, 213299, Note_off_c, 7, 67, 127
1, 213299, Note_off_c, 12, 71, 127
1, 213311, Note_on_c, 11, 70, 127
1, 213311, Note_on_c, 2, 62, 127
1, 213453, Note_off_c, 11, 70, 127
1, 213465, Note_on_c, 0, 72, 127
1, 213607, Note_off_c, 0, 72, 127
1, 213617, Note_off_c, 2, 62, 127
1, 213619, Note_on_c, 11, 70, 127
1, 213619, Note_on_c, 2, 62, 127
1, 213761, Note_off_c, 2, 62, 127
1, 213761, Note_off_c, 11, 70, 127
1, 213773, Note_on_c, 10, 69, 127
1, 213773, Note_on_c, 5, 65, 127
1, 213915, Note_off_c, 10, 69, 127
1, 213927, Note_on_c, 11, 70, 127
1, 214069, Note_off_c, 11, 70, 127
1, 214079, Note_off_c, 5, 65, 127
1, 214081, Note_on_c, 10, 69, 127
1, 214081, Note_on_c, 5, 65, 127
1, 214223, Note_off_c, 5, 65, 127
1, 214223, Note_off_c, 10, 69, 127
1, 214235, Note_on_c, 10, 81, 127
1, 214235, Note_on_c, 1, 61, 127
1, 214377, Note_off_c, 10, 81, 127
1, 214389, Note_on_c, 10, 69, 127
1, 214531, Note_off_c, 10, 69, 127
1, 214541, Note_off_c, 1, 61, 127
1, 214543, Note_on_c, 10, 81, 127
1, 214543, Note_on_c, 1, 61, 127
1, 214685, Note_off_c, 1, 61, 127
1, 214685, Note_off_c, 10, 81, 127
1, 214697, Note_on_c, 7, 67, 127
1, 214697, Note_on_c, 1, 61, 127
1, 214839, Note_off_c, 7, 67, 127
1, 214851, Note_on_c, 10, 69, 127
1, 214993, Note_off_c, 10, 69, 127
1, 215005, Note_on_c, 7, 67, 127
1, 215147, Note_off_c, 7, 67, 127
1, 215159, Note_on_c, 7, 79, 127
1, 215301, Note_off_c, 7, 79, 127
1, 215313, Note_on_c, 7, 67, 127
1, 215389, Note_off_c, 1, 61, 127
1, 215455, Note_off_c, 7, 67, 127
1, 215467, Note_on_c, 7, 79, 127
1, 215467, Note_on_c, 11, 70, 127
1, 215609, Note_off_c, 11, 70, 127
1, 215609, Note_off_c, 7, 79, 127
1, 215621, Note_on_c, 5, 77, 127
1, 215621, Note_on_c, 10, 69, 127
1, 215763, Note_off_c, 5, 77, 127
1, 215775, Note_on_c, 2, 74, 127
1, 215917, Note_off_c, 2, 74, 127
1, 215927, Note_off_c, 10, 69, 127
1, 215929, Note_on_c, 4, 76, 127
1, 215929, Note_on_c, 7, 67, 127
1, 216071, Note_off_c, 7, 67, 127
1, 216071, Note_off_c, 4, 76, 127
1, 216083, Note_on_c, 5, 77, 127
1, 216083, Note_on_c, 10, 69, 127
1, 216225, Note_off_c, 5, 77, 127
1, 216237, Note_on_c, 4, 76, 127
1, 216379, Note_off_c, 4, 76, 127
1, 216389, Note_off_c, 10, 69, 127
1, 216391, Note_on_c, 7, 79, 127
1, 216391, Note_on_c, 11, 70, 127
1, 216533, Note_off_c, 11, 70, 127
1, 216533, Note_off_c, 7, 79, 127
1, 216545, Note_on_c, 5, 77, 127
1, 216545, Note_on_c, 10, 69, 127
1, 216687, Note_off_c, 5, 77, 127
1, 216699, Note_on_c, 2, 74, 127
1, 216841, Note_off_c, 2, 74, 127
1, 216851, Note_off_c, 10, 69, 127
1, 216853, Note_on_c, 4, 76, 127
1, 216853, Note_on_c, 7, 67, 127
1, 216995, Note_off_c, 7, 67, 127
1, 216995, Note_off_c, 4, 76, 127
1, 217007, Note_on_c, 5, 77, 127
1, 217007, Note_on_c, 10, 69, 127
1, 217149, Note_off_c, 5, 77, 127
1, 217161, Note_on_c, 4, 76, 127
1, 217303, Note_off_c, 4, 76, 127
1, 217313, Note_off_c, 10, 69, 127
1, 217315, Note_on_c, 7, 79, 127
1, 217315, Note_on_c, 11, 70, 127
1, 217457, Note_off_c, 11, 70, 127
1, 217457, Note_off_c, 7, 79, 127
1, 217469, Note_on_c, 5, 77, 127
1, 217469, Note_on_c, 10, 69, 127
1, 217611, Note_off_c, 5, 77, 127
1, 217623, Note_on_c, 2, 74, 127
1, 217765, Note_off_c, 2, 74, 127
1, 217775, Note_off_c, 10, 69, 127
1, 217777, Note_on_c, 4, 76, 127
1, 217777, Note_on_c, 7, 67, 127
1, 217919, Note_off_c, 7, 67, 127
1, 217919, Note_off_c, 4, 76, 127
1, 217931, Note_on_c, 5, 77, 127
1, 217931, Note_on_c, 10, 69, 127
1, 218073, Note_off_c, 5, 77, 127
1, 218085, Note_on_c, 4, 76, 127
1, 218227, Note_off_c, 4, 76, 127
1, 218237, Note_off_c, 10, 69, 127
1, 218239, Note_on_c, 7, 79, 127
1, 218239, Note_on_c, 11, 70, 127
1, 218381, Note_off_c, 11, 70, 127
1, 218381, Note_off_c, 7, 79, 127
1, 218393, Note_on_c, 5, 77, 127
1, 218393, Note_on_c, 10, 69, 127
1, 218535, Note_off_c, 5, 77, 127
1, 218547, Note_on_c, 7, 79, 127
1, 218689, Note_off_c, 7, 79, 127
1, 218699, Note_off_c, 10, 69, 127
1, 218701, Note_on_c, 10, 81, 127
1, 218701, Note_on_c, 10, 57, 127
1, 218843, Note_off_c, 10, 57, 127
1, 218843, Note_off_c, 10, 81, 127
1, 218855, Note_on_c, 1, 73, 127
1, 218855, Note_on_c, 10, 69, 127
1, 218997, Note_off_c, 10, 69, 127
1, 219009, Note_on_c, 11, 70, 127
1, 219151, Note_off_c, 11, 70, 127
1, 219161, Note_off_c, 1, 73, 127
1, 219163, Note_on_c, 1, 73, 127
1, 219163, Note_on_c, 7, 67, 127
1, 219305, Note_off_c, 7, 67, 127
1, 219305, Note_off_c, 1, 73, 127
1, 219317, Note_on_c, 2, 74, 127
1, 219317, Note_on_c, 5, 65, 127
1, 219459, Note_off_c, 2, 74, 127
1, 219471, Note_on_c, 0, 72, 127
1, 219613, Note_off_c, 0, 72, 127
1, 219623, Note_off_c, 5, 65, 127
1, 219625, Note_on_c, 3, 75, 127
1, 219625, Note_on_c, 5, 65, 127
1, 219767, Note_off_c, 5, 65, 127
1, 219767, Note_off_c, 3, 75, 127
1, 219779, Note_on_c, 2, 74, 127
1, 219779, Note_on_c, 6, 66, 127
1, 219921, Note_off_c, 2, 74, 127
1, 219933, Note_on_c, 3, 75, 127
1, 220075, Note_off_c, 3, 75, 127
1, 220085, Note_off_c, 6, 66, 127
1, 220087, Note_on_c, 0, 72, 127
1, 220087, Note_on_c, 2, 62, 127
1, 220229, Note_off_c, 2, 62, 127
1, 220229, Note_off_c, 0, 72, 127
1, 220241, Note_on_c, 11, 70, 127
1, 220241, Note_on_c, 7, 67, 127
1, 220383, Note_off_c, 7, 67, 127
1, 220383, Note_off_c, 11, 70, 127
1, 220395, Note_on_c, 7, 67, 127
1, 220537, Note_off_c, 7, 67, 127
1, 220549, Note_on_c, 10, 69, 127
1, 220549, Note_on_c, 6, 66, 127
1, 220549, Note_on_c, 2, 50, 127
1, 220691, Note_off_c, 2, 50, 127
1, 220691, Note_off_c, 6, 66, 127
1, 220691, Note_off_c, 10, 69, 127
1, 220703, Note_on_c, 11, 70, 127
1, 220703, Note_on_c, 7, 67, 127
1, 220703, Note_on_c, 7, 55, 127
1, 220845, Note_off_c, 7, 55, 127
1, 220845, Note_off_c, 11, 70, 127
1, 220857, Note_on_c, 0, 72, 127
1, 220857, Note_on_c, 10, 57, 127
1, 220999, Note_off_c, 10, 57, 127
1, 220999, Note_off_c, 0, 72, 127
1, 221009, Note_off_c, 7, 67, 127
1, 221011, Note_on_c, 2, 74, 127
1, 221011, Note_on_c, 11, 70, 127
1, 221011, Note_on_c, 7, 55, 127
1, 221153, Note_off_c, 7, 55, 127
1, 221153, Note_off_c, 11, 70, 127
1, 221153, Note_off_c, 2, 74, 127
1, 221165, Note_on_c, 10, 69, 127
1, 221165, Note_on_c, 2, 62, 127
1, 221165, Note_on_c, 6, 54, 127
1, 221307, Note_off_c, 6, 54, 127
1, 221319, Note_on_c, 7, 55, 127
1, 221461, Note_off_c, 7, 55, 127
1, 221471, Note_off_c, 2, 62, 127
1, 221471, Note_off_c, 10, 69, 127
1, 221473, Note_on_c, 10, 69, 127
1, 221473, Note_on_c, 2, 62, 127
1, 221473, Note_on_c, 6, 54, 127
1, 221615, Note_off_c, 6, 54, 127
1, 221615, Note_off_c, 2, 62, 127
1, 221615, Note_off_c, 10, 69, 127
1, 221627, Note_on_c, 2, 74, 127
1, 221627, Note_on_c, 10, 57, 127
1, 221627, Note_on_c, 5, 53, 127
1, 221769, Note_off_c, 5, 53, 127
1, 221781, Note_on_c, 7, 55, 127
1, 221923, Note_off_c, 7, 55, 127
1, 221933, Note_off_c, 10, 57, 127
1, 221933, Note_off_c, 2, 74, 127
1, 221935, Note_on_c, 2, 74, 127
1, 221935, Note_on_c, 10, 57, 127
1, 221935, Note_on_c, 5, 53, 127
1, 222077, Note_off_c, 5, 53, 127
1, 222077, Note_off_c, 10, 57, 127
1, 222077, Note_off_c, 2, 74, 127
1, 222089, Note_on_c, 7, 67, 127
1, 222089, Note_on_c, 0, 60, 127
1, 222089, Note_on_c, 4, 52, 127
1, 222231, Note_off_c, 4, 52, 127
1, 222243, Note_on_c, 5, 53, 127
1, 222385, Note_off_c, 5, 53, 127
1, 222395, Note_off_c, 0, 60, 127
1, 222395, Note_off_c, 7, 67, 127
1, 222397, Note_on_c, 7, 67, 127
1, 222397, Note_on_c, 0, 60, 127
1, 222397, Note_on_c, 4, 52, 127
1, 222539, Note_off_c, 4, 52, 127
1, 222539, Note_off_c, 0, 60, 127
1, 222539, Note_off_c, 7, 67, 127
1, 222551, Note_on_c, 0, 72, 127
1, 222551, Note_on_c, 7, 55, 127
1, 222551, Note_on_c, 3, 51, 127
1, 222693, Note_off_c, 3, 51, 127
1, 222705, Note_on_c, 5, 53, 127
1, 222847, Note_off_c, 5, 53, 127
1, 222857, Note_off_c, 7, 55, 127
1, 222857, Note_off_c, 0, 72, 127
1, 222859, Note_on_c, 0, 72, 127
1, 222859, Note_on_c, 7, 55, 127
1, 222859, Note_on_c, 3, 51, 127
1, 223001, Note_off_c, 3, 51, 127
1, 223001, Note_off_c, 7, 55, 127
1, 223001, Note_off_c, 0, 72, 127
1, 223013, Note_on_c, 6, 66, 127
1, 223013, Note_on_c, 11, 58, 127
1, 223013, Note_on_c, 2, 50, 127
1, 223155, Note_off_c, 2, 50, 127
1, 223167, Note_on_c, 3, 51, 127
1, 223309, Note_off_c, 3, 51, 127
1, 223319, Note_off_c, 11, 58, 127
1, 223319, Note_off_c, 6, 66, 127
1, 223321, Note_on_c, 6, 66, 127
1, 223321, Note_on_c, 11, 58, 127
1, 223321, Note_on_c, 2, 50, 127
1, 223463, Note_off_c, 2, 50, 127
1, 223463, Note_off_c, 11, 58, 127
1, 223463, Note_off_c, 6, 66, 127
1, 223475, Note_on_c, 11, 70, 127
1, 223475, Note_on_c, 6, 54, 127
1, 223475, Note_on_c, 2, 62, 127
1, 223617, Note_off_c, 2, 62, 127
1, 223629, Note_on_c, 2, 50, 127
1, 223771, Note_off_c, 2, 50, 127
1, 223781, Note_off_c, 6, 54, 127
1, 223781, Note_off_c, 11, 70, 127
1, 223783, Note_on_c, 11, 70, 127
1, 223783, Note_on_c, 6, 54, 127
1, 223783, Note_on_c, 2, 62, 127
1, 223925, Note_off_c, 2, 62, 127
1, 223925, Note_off_c, 6, 54, 127
1, 223925, Note_off_c, 11, 70, 127
1, 223937, Note_on_c, 10, 69, 127
1, 223937, Note_on_c, 6, 54, 127
1, 223937, Note_on_c, 0, 48, 127
1, 224079, Note_off_c, 0, 48, 127
1, 224091, Note_on_c, 2, 50, 127
1, 224233, Note_off_c, 2, 50, 127
1, 224245, Note_on_c, 0, 48, 127
1, 224387, Note_off_c, 0, 48, 127
1, 224399, Note_on_c, 0, 60, 127
1, 224541, Note_off_c, 0, 60, 127
1, 224553, Note_on_c, 0, 48, 127
1, 224629, Note_off_c, 6, 54, 127
1, 224695, Note_off_c, 0, 48, 127
1, 224705, Note_off_c, 10, 69, 127
1, 224707, Note_on_c, 6, 66, 127
1, 224707, Note_on_c, 3, 63, 127
1, 224707, Note_on_c, 0, 60, 127
1, 224849, Note_off_c, 0, 60, 127
1, 224849, Note_off_c, 3, 63, 127
1, 224849, Note_off_c, 6, 66, 127
1, 224861, Note_on_c, 7, 67, 127
1, 224861, Note_on_c, 2, 62, 127
1, 224861, Note_on_c, 11, 58, 127
1, 225003, Note_off_c, 11, 58, 127
1, 225015, Note_on_c, 7, 55, 127
1, 225157, Note_off_c, 7, 55, 127
1, 225167, Note_off_c, 2, 62, 127
1, 225169, Note_on_c, 0, 60, 127
1, 225169, Note_on_c, 10, 57, 127
1, 225311, Note_off_c, 10, 57, 127
1, 225311, Note_off_c, 0, 60, 127
1, 225323, Note_on_c, 2, 62, 127
1, 225323, Note_on_c, 11, 58, 127
1, 225465, Note_off_c, 11, 58, 127
1, 225477, Note_on_c, 10, 57, 127
1, 225553, Note_off_c, 7, 67, 127
1, 225619, Note_off_c, 10, 57, 127
1, 225629, Note_off_c, 2, 62, 127
1, 225631, Note_on_c, 10, 69, 127
1, 225631, Note_on_c, 3, 63, 127
1, 225631, Note_on_c, 0, 60, 127
1, 225773, Note_off_c, 0, 60, 127
1, 225773, Note_off_c, 3, 63, 127
1, 225773, Note_off_c, 10, 69, 127
1, 225785, Note_on_c, 7, 67, 127
1, 225785, Note_on_c, 2, 62, 127
1, 225785, Note_on_c, 11, 58, 127
1, 225927, Note_off_c, 11, 58, 127
1, 225939, Note_on_c, 7, 55, 127
1, 226081, Note_off_c, 7, 55, 127
1, 226091, Note_off_c, 2, 62, 127
1, 226093, Note_on_c, 0, 60, 127
1, 226093, Note_on_c, 10, 57, 127
1, 226235, Note_off_c, 10, 57, 127
1, 226235, Note_off_c, 0, 60, 127
1, 226247, Note_on_c, 2, 62, 127
1, 226247, Note_on_c, 11, 58, 127
1, 226389, Note_off_c, 11, 58, 127
1, 226401, Note_on_c, 10, 57, 127
1, 226477, Note_off_c, 7, 67, 127
1, 226543, Note_off_c, 10, 57, 127
1, 226553, Note_off_c, 2, 62, 127
1, 226555, Note_on_c, 10, 69, 127
1, 226555, Note_on_c, 3, 63, 127
1, 226555, Note_on_c, 0, 60, 127
1, 226697, Note_off_c, 0, 60, 127
1, 226697, Note_off_c, 3, 63, 127
1, 226697, Note_off_c, 10, 69, 127
1, 226709, Note_on_c, 7, 67, 127
1, 226709, Note_on_c, 2, 62, 127
1, 226709, Note_on_c, 11, 58, 127
1, 226851, Note_off_c, 11, 58, 127
1, 226863, Note_on_c, 7, 55, 127
1, 227005, Note_off_c, 7, 55, 127
1, 227015, Note_off_c, 2, 62, 127
1, 227017, Note_on_c, 0, 60, 127
1, 227017, Note_on_c, 10, 57, 127
1, 227159, Note_off_c, 10, 57, 127
1, 227159, Note_off_c, 0, 60, 127
1, 227171, Note_on_c, 2, 62, 127
1, 227171, Note_on_c, 11, 58, 127
1, 227313, Note_off_c, 11, 58, 127
1, 227325, Note_on_c, 10, 57, 127
1, 227401, Note_off_c, 7, 67, 127
1, 227467, Note_off_c, 10, 57, 127
1, 227477, Note_off_c, 2, 62, 127
1, 227479, Note_on_c, 10, 69, 127
1, 227479, Note_on_c, 3, 63, 127
1, 227479, Note_on_c, 0, 60, 127
1, 227621, Note_off_c, 0, 60, 127
1, 227621, Note_off_c, 3, 63, 127
1, 227621, Note_off_c, 10, 69, 127
1, 227633, Note_on_c, 10, 69, 127
1, 227633, Note_on_c, 2, 62, 127
1, 227633, Note_on_c, 11, 58, 127
1, 227775, Note_off_c, 10, 69, 127
1, 227787, Note_on_c, 7, 67, 127
1, 227929, Note_off_c, 7, 67, 127
1, 227939, Note_off_c, 11, 58, 127
1, 227939, Note_off_c, 2, 62, 127
1, 227941, Note_on_c, 6, 66, 127
1, 227941, Note_on_c, 0, 60, 127
1, 227941, Note_on_c, 10, 57, 127
1, 228083, Note_off_c, 10, 57, 127
1, 228083, Note_off_c, 0, 60, 127
1, 228083, Note_off_c, 6, 66, 127
1, 228095, Note_on_c, 7, 67, 127
1, 228095, Note_on_c, 2, 62, 127
1, 228095, Note_on_c, 11, 58, 127
1, 228237, Note_off_c, 7, 67, 127
1, 228249, Note_on_c, 2, 74, 127
1, 228391, Note_off_c, 2, 74, 127
1, 228401, Note_off_c, 11, 58, 127
1, 228401, Note_off_c, 2, 62, 127
1, 228403, Note_on_c, 6, 66, 127
1, 228403, Note_on_c, 0, 60, 127
1, 228403, Note_on_c, 10, 57, 127
1, 228545, Note_off_c, 10, 57, 127
1, 228545, Note_off_c, 0, 60, 127
1, 228545, Note_off_c, 6, 66, 127
1, 228557, Note_on_c, 7, 67, 127
1, 228557, Note_on_c, 2, 62, 127
1, 228557, Note_on_c, 7, 55, 127
1, 228699, Note_off_c, 7, 67, 127
1, 228711, Note_on_c, 7, 79, 127
1, 228853, Note_off_c, 7, 79, 127
1, 228863, Note_off_c, 7, 55, 127
1, 228863, Note_off_c, 2, 62, 127
1, 228865, Note_on_c, 5, 77, 127
1, 228865, Note_on_c, 0, 60, 127
1, 228865, Note_on_c, 10, 57, 127
1, 229007, Note_off_c, 10, 57, 127
1, 229007, Note_off_c, 0, 60, 127
1, 229007, Note_off_c, 5, 77, 127
1, 229019, Note_on_c, 4, 76, 127
1, 229019, Note_on_c, 11, 58, 127
1, 229019, Note_on_c, 7, 55, 127
1, 229161, Note_off_c, 4, 76, 127
1, 229173, Note_on_c, 5, 77, 127
1, 229315, Note_off_c, 5, 77, 127
1, 229325, Note_off_c, 7, 55, 127
1, 229325, Note_off_c, 11, 58, 127
1, 229327, Note_on_c, 2, 74, 127
1, 229327, Note_on_c, 10, 57, 127
1, 229327, Note_on_c, 5, 53, 127
1, 229469, Note_off_c, 5, 53, 127
1, 229469, Note_off_c, 10, 57, 127
1, 229469, Note_off_c, 2, 74, 127
1, 229481, Note_on_c, 4, 76, 127
1, 229481, Note_on_c, 7, 55, 127
1, 229623, Note_off_c, 4, 76, 127
1, 229635, Note_on_c, 5, 77, 127
1, 229777, Note_off_c, 5, 77, 127
1, 229787, Note_off_c, 7, 55, 127
1, 229789, Note_on_c, 2, 74, 127
1, 229789, Note_on_c, 10, 57, 127
1, 229789, Note_on_c, 5, 53, 127
1, 229931, Note_off_c, 5, 53, 127
1, 229931, Note_off_c, 10, 57, 127
1, 229931, Note_off_c, 2, 74, 127
1, 229943, Note_on_c, 0, 72, 127
1, 229943, Note_on_c, 7, 55, 127
1, 229943, Note_on_c, 3, 51, 127
1, 230085, Note_off_c, 0, 72, 127
1, 230097, Note_on_c, 2, 74, 127
1, 230239, Note_off_c, 2, 74, 127
1, 230249, Note_off_c, 3, 51, 127
1, 230249, Note_off_c, 7, 55, 127
1, 230251, Note_on_c, 11, 70, 127
1, 230251, Note_on_c, 5, 53, 127
1, 230251, Note_on_c, 2, 50, 127
1, 230393, Note_off_c, 2, 50, 127
1, 230393, Note_off_c, 5, 53, 127
1, 230393, Note_off_c, 11, 70, 127
1, 230405, Note_on_c, 0, 72, 127
1, 230405, Note_on_c, 7, 55, 127
1, 230405, Note_on_c, 3, 51, 127
1, 230547, Note_off_c, 0, 72, 127
1, 230559, Note_on_c, 2, 74, 127
1, 230701, Note_off_c, 2, 74, 127
1, 230711, Note_off_c, 3, 51, 127
1, 230711, Note_off_c, 7, 55, 127
1, 230713, Note_on_c, 11, 70, 127
1, 230713, Note_on_c, 5, 53, 127
1, 230713, Note_on_c, 2, 50, 127
1, 230855, Note_off_c, 2, 50, 127
1, 230855, Note_off_c, 5, 53, 127
1, 230855, Note_off_c, 11, 70, 127
1, 230867, Note_on_c, 10, 69, 127
1, 230867, Note_on_c, 3, 51, 127
1, 230867, Note_on_c, 0, 48, 127
1, 231009, Note_off_c, 10, 69, 127
1, 231021, Note_on_c, 11, 70, 127
1, 231163, Note_off_c, 11, 70, 127
1, 231173, Note_off_c, 0, 48, 127
1, 231173, Note_off_c, 3, 51, 127
1, 231175, Note_on_c, 7, 67, 127
1, 231175, Note_on_c, 0, 48, 127
1, 231175, Note_on_c, 10, 45, 127
1, 231317, Note_off_c, 10, 45, 127
1, 231317, Note_off_c, 7, 67, 127
1, 231329, Note_off_c, 0, 48, 127
1, 231329, Note_on_c, 6, 66, 127
1, 231329, Note_on_c, 2, 50, 127
1, 231471, Note_off_c, 6, 66, 127
1, 231483, Note_on_c, 4, 64, 127
1, 231625, Note_off_c, 4, 64, 127
1, 231635, Note_off_c, 2, 50, 127
1, 231637, Note_on_c, 2, 62, 127
1, 231637, Note_on_c, 2, 38, 127
1, 231779, Note_off_c, 2, 38, 127
1, 231779, Note_off_c, 2, 62, 127
1, 231791, Note_on_c, 5, 65, 127
1, 231791, Note_on_c, 2, 62, 127
1, 231933, Note_off_c, 2, 62, 127
1, 231933, Note_off_c, 5, 65, 127
1, 231945, Note_on_c, 7, 67, 127
1, 231945, Note_on_c, 4, 64, 127
1, 232087, Note_off_c, 4, 64, 127
1, 232087, Note_off_c, 7, 67, 127
1, 232099, Note_on_c, 5, 65, 127
1, 232099, Note_on_c, 2, 62, 127
1, 232241, Note_off_c, 2, 62, 127
1, 232241, Note_off_c, 5, 65, 127
1, 232253, Note_on_c, 10, 69, 127
1, 232253, Note_on_c, 4, 64, 127
1, 232253, Note_on_c, 1, 61, 127
1, 232395, Note_off_c, 1, 61, 127
1, 232407, Note_on_c, 2, 62, 127
1, 232549, Note_off_c, 2, 62, 127
1, 232559, Note_off_c, 4, 64, 127
1, 232559, Note_off_c, 10, 69, 127
1, 232561, Note_on_c, 10, 69, 127
1, 232561, Note_on_c, 4, 64, 127
1, 232561, Note_on_c, 1, 61, 127
1, 232703, Note_off_c, 1, 61, 127
1, 232703, Note_off_c, 4, 64, 127
1, 232703, Note_off_c, 10, 69, 127
1, 232715, Note_on_c, 4, 64, 127
1, 232715, Note_on_c, 10, 69, 127
1, 232715, Note_on_c, 0, 60, 127
1, 232857, Note_off_c, 0, 60, 127
1, 232869, Note_on_c, 2, 62, 127
1, 233011, Note_off_c, 2, 62, 127
1, 233021, Note_off_c, 10, 69, 127
1, 233021, Note_off_c, 4, 64, 127
1, 233023, Note_on_c, 4, 64, 127
1, 233023, Note_on_c, 10, 69, 127
1, 233023, Note_on_c, 0, 60, 127
1, 233165, Note_off_c, 0, 60, 127
1, 233165, Note_off_c, 10, 69, 127
1, 233165, Note_off_c, 4, 64, 127
1, 233177, Note_on_c, 7, 67, 127
1, 233177, Note_on_c, 2, 62, 127
1, 233177, Note_on_c, 12, 59, 127
1, 233319, Note_off_c, 12, 59, 127
1, 233331, Note_on_c, 0, 60, 127
1, 233473, Note_off_c, 0, 60, 127
1, 233483, Note_off_c, 2, 62, 127
1, 233483, Note_off_c, 7, 67, 127
1, 233485, Note_on_c, 7, 67, 127
1, 233485, Note_on_c, 2, 62, 127
1, 233485, Note_on_c, 12, 59, 127
1, 233627, Note_off_c, 12, 59, 127
1, 233627, Note_off_c, 2, 62, 127
1, 233627, Note_off_c, 7, 67, 127
1, 233639, Note_on_c, 7, 67, 127
1, 233639, Note_on_c, 2, 62, 127
1, 233639, Note_on_c, 11, 58, 127
1, 233781, Note_off_c, 11, 58, 127
1, 233793, Note_on_c, 0, 60, 127
1, 233935, Note_off_c, 0, 60, 127
1, 233945, Note_off_c, 2, 62, 127
1, 233945, Note_off_c, 7, 67, 127
1, 233947, Note_on_c, 7, 67, 127
1, 233947, Note_on_c, 2, 62, 127
1, 233947, Note_on_c, 11, 58, 127
1, 234089, Note_off_c, 11, 58, 127
1, 234089, Note_off_c, 2, 62, 127
1, 234089, Note_off_c, 7, 67, 127
1, 234101, Note_on_c, 10, 69, 127
1, 234101, Note_on_c, 5, 65, 127
1, 234101, Note_on_c, 10, 57, 127
1, 234243, Note_off_c, 10, 57, 127
1, 234255, Note_on_c, 11, 58, 127
1, 234397, Note_off_c, 11, 58, 127
1, 234407, Note_off_c, 5, 65, 127
1, 234407, Note_off_c, 10, 69, 127
1, 234409, Note_on_c, 10, 69, 127
1, 234409, Note_on_c, 5, 65, 127
1, 234409, Note_on_c, 10, 57, 127
1, 234551, Note_off_c, 10, 57, 127
1, 234551, Note_off_c, 5, 65, 127
1, 234551, Note_off_c, 10, 69, 127
1, 234563, Note_on_c, 4, 64, 127
1, 234563, Note_on_c, 1, 61, 127
1, 234563, Note_on_c, 10, 69, 127
1, 234705, Note_off_c, 10, 69, 127
1, 234717, Note_on_c, 10, 57, 127
1, 234859, Note_off_c, 10, 57, 127
1, 234869, Note_off_c, 1, 61, 127
1, 234869, Note_off_c, 4, 64, 127
1, 234871, Note_on_c, 4, 64, 127
1, 234871, Note_on_c, 1, 61, 127
1, 234871, Note_on_c, 10, 69, 127
1, 235013, Note_off_c, 10, 69, 127
1, 235013, Note_off_c, 1, 61, 127
1, 235013, Note_off_c, 4, 64, 127
1, 235025, Note_on_c, 10, 69, 127
1, 235025, Note_on_c, 1, 61, 127
1, 235025, Note_on_c, 7, 55, 127
1, 235167, Note_off_c, 7, 55, 127
1, 235179, Note_on_c, 10, 57, 127
1, 235321, Note_off_c, 10, 57, 127
1, 235331, Note_off_c, 10, 69, 127
1, 235333, Note_on_c, 4, 64, 127
1, 235333, Note_on_c, 7, 55, 127
1, 235475, Note_off_c, 7, 55, 127
1, 235475, Note_off_c, 4, 64, 127
1, 235487, Note_on_c, 10, 69, 127
1, 235487, Note_on_c, 7, 67, 127
1, 235629, Note_off_c, 7, 67, 127
1, 235641, Note_on_c, 7, 55, 127
1, 235717, Note_off_c, 1, 61, 127
1, 235783, Note_off_c, 7, 55, 127
1, 235793, Note_off_c, 10, 69, 127
1, 235795, Note_on_c, 1, 73, 127
1, 235795, Note_on_c, 11, 70, 127
1, 235795, Note_on_c, 7, 67, 127
1, 235937, Note_off_c, 7, 67, 127
1, 235937, Note_off_c, 11, 70, 127
1, 235937, Note_off_c, 1, 73, 127
1, 235949, Note_on_c, 2, 74, 127
1, 235949, Note_on_c, 10, 69, 127
1, 235949, Note_on_c, 5, 65, 127
1, 236091, Note_off_c, 5, 65, 127
1, 236103, Note_on_c, 2, 62, 127
1, 236245, Note_off_c, 2, 62, 127
1, 236255, Note_off_c, 10, 69, 127
1, 236257, Note_on_c, 7, 67, 127
1, 236257, Note_on_c, 4, 64, 127
1, 236399, Note_off_c, 4, 64, 127
1, 236399, Note_off_c, 7, 67, 127
1, 236411, Note_on_c, 10, 69, 127
1, 236411, Note_on_c, 5, 65, 127
1, 236553, Note_off_c, 5, 65, 127
1, 236565, Note_on_c, 4, 64, 127
1, 236641, Note_off_c, 2, 74, 127
1, 236707, Note_off_c, 4, 64, 127
1, 236717, Note_off_c, 10, 69, 127
1, 236719, Note_on_c, 4, 76, 127
1, 236719, Note_on_c, 11, 70, 127
1, 236719, Note_on_c, 7, 67, 127
1, 236861, Note_off_c, 7, 67, 127
1, 236861, Note_off_c, 11, 70, 127
1, 236861, Note_off_c, 4, 76, 127
1, 236873, Note_on_c, 2, 74, 127
1, 236873, Note_on_c, 10, 69, 127
1, 236873, Note_on_c, 5, 65, 127
1, 237015, Note_off_c, 5, 65, 127
1, 237027, Note_on_c, 2, 62, 127
1, 237169, Note_off_c, 2, 62, 127
1, 237179, Note_off_c, 10, 69, 127
1, 237181, Note_on_c, 7, 67, 127
1, 237181, Note_on_c, 4, 64, 127
1, 237323, Note_off_c, 4, 64, 127
1, 237323, Note_off_c, 7, 67, 127
1, 237335, Note_on_c, 10, 69, 127
1, 237335, Note_on_c, 5, 65, 127
1, 237477, Note_off_c, 5, 65, 127
1, 237489, Note_on_c, 4, 64, 127
1, 237565, Note_off_c, 2, 74, 127
1, 237631, Note_off_c, 4, 64, 127
1, 237641, Note_off_c, 10, 69, 127
1, 237643, Note_on_c, 4, 76, 127
1, 237643, Note_on_c, 11, 70, 127
1, 237643, Note_on_c, 7, 67, 127
1, 237785, Note_off_c, 7, 67, 127
1, 237785, Note_off_c, 11, 70, 127
1, 237785, Note_off_c, 4, 76, 127
1, 237797, Note_on_c, 2, 74, 127
1, 237797, Note_on_c, 10, 69, 127
1, 237797, Note_on_c, 5, 65, 127
1, 237939, Note_off_c, 5, 65, 127
1, 237951, Note_on_c, 2, 62, 127
1, 238093, Note_off_c, 2, 62, 127
1, 238103, Note_off_c, 10, 69, 127
1, 238105, Note_on_c, 7, 67, 127
1, 238105, Note_on_c, 4, 64, 127
1, 238247, Note_off_c, 4, 64, 127
1, 238247, Note_off_c, 7, 67, 127
1, 238259, Note_on_c, 10, 69, 127
1, 238259, Note_on_c, 5, 65, 127
1, 238401, Note_off_c, 5, 65, 127
1, 238413, Note_on_c, 4, 64, 127
1, 238489, Note_off_c, 2, 74, 127
1, 238555, Note_off_c, 4, 64, 127
1, 238565, Note_off_c, 10, 69, 127
1, 238567, Note_on_c, 4, 76, 127
1, 238567, Note_on_c, 11, 70, 127
1, 238567, Note_on_c, 7, 67, 127
1, 238709, Note_off_c, 7, 67, 127
1, 238709, Note_off_c, 11, 70, 127
1, 238709, Note_off_c, 4, 76, 127
1, 238721, Note_on_c, 2, 74, 127
1, 238721, Note_on_c, 10, 69, 127
1, 238721, Note_on_c, 5, 65, 127
1, 238863, Note_off_c, 5, 65, 127
1, 238863, Note_off_c, 10, 69, 127
1, 238875, Note_on_c, 7, 67, 127
1, 238875, Note_on_c, 4, 64, 127
1, 239017, Note_off_c, 4, 64, 127
1, 239017, Note_off_c, 7, 67, 127
1, 239029, Note_on_c, 5, 65, 127
1, 239029, Note_on_c, 2, 62, 127
1, 239171, Note_off_c, 5, 65, 127
1, 239173, Note_off_c, 2, 62, 127
1, 239178, Note_off_c, 2, 74, 127
1, 239183, Note_on_c, 4, 64, 127
1, 239183, Note_on_c, 7, 67, 127
1, 239337, Note_on_c, 0, 72, 127
1, 239479, Note_off_c, 0, 72, 127
1, 239489, Note_off_c, 7, 67, 127
1, 239489, Note_off_c, 4, 64, 127
1, 239491, Note_on_c, 2, 74, 127
1, 239491, Note_on_c, 10, 69, 127
1, 239491, Note_on_c, 6, 66, 127
1, 239491, Note_on_c, 2, 50, 127
1, 239633, Note_off_c, 2, 50, 127
1, 239633, Note_off_c, 6, 66, 127
1, 239633, Note_off_c, 10, 69, 127
1, 239633, Note_off_c, 2, 74, 127
1, 239645, Note_on_c, 3, 75, 127
1, 239645, Note_on_c, 11, 70, 127
1, 239645, Note_on_c, 7, 67, 127
1, 239645, Note_on_c, 7, 43, 127
1, 239787, Note_off_c, 3, 75, 127
1, 239799, Note_on_c, 2, 74, 127
1, 239941, Note_off_c, 2, 74, 127
1, 239951, Note_off_c, 7, 43, 127
1, 239951, Note_off_c, 7, 67, 127
1, 239951, Note_off_c, 11, 70, 127
1, 239953, Note_on_c, 3, 75, 127
1, 239953, Note_on_c, 11, 70, 127
1, 239953, Note_on_c, 7, 43, 127
1, 240095, Note_off_c, 7, 43, 127
1, 240095, Note_off_c, 11, 70, 127
1, 240095, Note_off_c, 3, 75, 127
1, 240107, Note_on_c, 4, 76, 127
1, 240107, Note_on_c, 7, 67, 127
1, 240107, Note_on_c, 0, 48, 127
1, 240249, Note_off_c, 4, 76, 127
1, 240261, Note_on_c, 2, 74, 127
1, 240403, Note_off_c, 2, 74, 127
1, 240413, Note_off_c, 0, 48, 127
1, 240413, Note_off_c, 7, 67, 127
1, 240415, Note_on_c, 4, 76, 127
1, 240415, Note_on_c, 7, 67, 127
1, 240415, Note_on_c, 0, 48, 127
1, 240557, Note_off_c, 0, 48, 127
1, 240557, Note_off_c, 7, 67, 127
1, 240557, Note_off_c, 4, 76, 127
1, 240569, Note_on_c, 5, 77, 127
1, 240569, Note_on_c, 0, 72, 127
1, 240569, Note_on_c, 10, 45, 127
1, 240711, Note_off_c, 5, 77, 127
1, 240723, Note_on_c, 4, 76, 127
1, 240865, Note_off_c, 4, 76, 127
1, 240875, Note_off_c, 10, 45, 127
1, 240875, Note_off_c, 0, 72, 127
1, 240877, Note_on_c, 5, 77, 127
1, 240877, Note_on_c, 0, 72, 127
1, 240877, Note_on_c, 10, 45, 127
1, 241019, Note_off_c, 10, 45, 127
1, 241019, Note_off_c, 0, 72, 127
1, 241019, Note_off_c, 5, 77, 127
1, 241031, Note_on_c, 6, 78, 127
1, 241031, Note_on_c, 10, 69, 127
1, 241031, Note_on_c, 2, 50, 127
1, 241173, Note_off_c, 6, 78, 127
1, 241185, Note_on_c, 4, 76, 127
1, 241327, Note_off_c, 4, 76, 127
1, 241337, Note_off_c, 2, 50, 127
1, 241337, Note_off_c, 10, 69, 127
1, 241339, Note_on_c, 6, 78, 127
1, 241339, Note_on_c, 10, 69, 127
1, 241339, Note_on_c, 2, 50, 127
1, 241481, Note_off_c, 2, 50, 127
1, 241481, Note_off_c, 10, 69, 127
1, 241481, Note_off_c, 6, 78, 127
1, 241493, Note_on_c, 7, 79, 127
1, 241493, Note_on_c, 2, 74, 127
1, 241493, Note_on_c, 11, 46, 127
1, 241635, Note_off_c, 7, 79, 127
1, 241647, Note_on_c, 6, 78, 127
1, 241789, Note_off_c, 6, 78, 127
1, 241799, Note_off_c, 11, 46, 127
1, 241799, Note_off_c, 2, 74, 127
1, 241801, Note_on_c, 7, 79, 127
1, 241801, Note_on_c, 2, 74, 127
1, 241801, Note_on_c, 11, 46, 127
1, 241943, Note_off_c, 11, 46, 127
1, 241943, Note_off_c, 2, 74, 127
1, 241943, Note_off_c, 7, 79, 127
1, 241955, Note_on_c, 7, 67, 127
1, 241955, Note_on_c, 0, 72, 127
1, 241955, Note_on_c, 3, 51, 127
1, 242097, Note_off_c, 7, 67, 127
1, 242109, Note_on_c, 7, 79, 127
1, 242251, Note_off_c, 7, 79, 127
1, 242261, Note_off_c, 3, 51, 127
1, 242261, Note_off_c, 0, 72, 127
1, 242263, Note_on_c, 7, 67, 127
1, 242263, Note_on_c, 0, 72, 127
1, 242263, Note_on_c, 3, 51, 127
1, 242405, Note_off_c, 3, 51, 127
1, 242405, Note_off_c, 0, 72, 127
1, 242405, Note_off_c, 7, 67, 127
1, 242417, Note_on_c, 10, 81, 127
1, 242417, Note_on_c, 0, 72, 127
1, 242417, Note_on_c, 3, 51, 127
1, 242559, Note_off_c, 10, 81, 127
1, 242571, Note_on_c, 7, 79, 127
1, 242713, Note_off_c, 7, 79, 127
1, 242723, Note_off_c, 0, 72, 127
1, 242725, Note_on_c, 10, 81, 127
1, 242725, Note_on_c, 0, 72, 127
1, 242867, Note_off_c, 0, 72, 127
1, 242867, Note_off_c, 10, 81, 127
1, 242879, Note_on_c, 10, 69, 127
1, 242879, Note_on_c, 0, 72, 127
1, 243021, Note_off_c, 10, 69, 127
1, 243033, Note_on_c, 10, 81, 127
1, 243175, Note_off_c, 10, 81, 127
1, 243185, Note_off_c, 0, 72, 127
1, 243185, Note_off_c, 3, 51, 127
1, 243187, Note_on_c, 10, 69, 127
1, 243187, Note_on_c, 2, 74, 127
1, 243187, Note_on_c, 6, 42, 127
1, 243329, Note_off_c, 6, 42, 127
1, 243329, Note_off_c, 2, 74, 127
1, 243329, Note_off_c, 10, 69, 127
1, 243341, Note_on_c, 11, 70, 127
1, 243341, Note_on_c, 7, 67, 127
1, 243341, Note_on_c, 7, 43, 127
1, 243483, Note_off_c, 11, 70, 127
1, 243495, Note_on_c, 2, 74, 127
1, 243637, Note_off_c, 2, 74, 127
1, 243647, Note_off_c, 7, 43, 127
1, 243649, Note_on_c, 0, 72, 127
1, 243649, Note_on_c, 10, 45, 127
1, 243791, Note_off_c, 10, 45, 127
1, 243791, Note_off_c, 0, 72, 127
1, 243803, Note_on_c, 11, 70, 127
1, 243803, Note_on_c, 7, 43, 127
1, 243945, Note_off_c, 11, 70, 127
1, 243957, Note_on_c, 0, 72, 127
1, 244033, Note_off_c, 7, 67, 127
1, 244099, Note_off_c, 0, 72, 127
1, 244109, Note_off_c, 7, 43, 127
1, 244111, Note_on_c, 10, 69, 127
1, 244111, Note_on_c, 2, 62, 127
1, 244111, Note_on_c, 6, 42, 127
1, 244253, Note_off_c, 6, 42, 127
1, 244253, Note_off_c, 2, 62, 127
1, 244253, Note_off_c, 10, 69, 127
1, 244265, Note_on_c, 11, 70, 127
1, 244265, Note_on_c, 2, 62, 127
1, 244265, Note_on_c, 7, 43, 127
1, 244407, Note_off_c, 11, 70, 127
1, 244419, Note_on_c, 2, 74, 127
1, 244561, Note_off_c, 2, 74, 127
1, 244571, Note_off_c, 7, 43, 127
1, 244573, Note_on_c, 0, 72, 127
1, 244573, Note_on_c, 10, 45, 127
1, 244715, Note_off_c, 10, 45, 127
1, 244715, Note_off_c, 0, 72, 127
1, 244727, Note_on_c, 11, 70, 127
1, 244727, Note_on_c, 7, 43, 127
1, 244869, Note_off_c, 11, 70, 127
1, 244881, Note_on_c, 0, 72, 127
1, 244957, Note_off_c, 2, 62, 127
1, 245023, Note_off_c, 0, 72, 127
1, 245033, Note_off_c, 7, 43, 127
1, 245035, Note_on_c, 10, 69, 127
1, 245035, Note_on_c, 2, 62, 127
1, 245035, Note_on_c, 6, 42, 127
1, 245177, Note_off_c, 6, 42, 127
1, 245177, Note_off_c, 2, 62, 127
1, 245177, Note_off_c, 10, 69, 127
1, 245189, Note_on_c, 11, 70, 127
1, 245189, Note_on_c, 2, 62, 127
1, 245189, Note_on_c, 7, 43, 127
1, 245331, Note_off_c, 11, 70, 127
1, 245343, Note_on_c, 2, 74, 127
1, 245485, Note_off_c, 2, 74, 127
1, 245495, Note_off_c, 7, 43, 127
1, 245497, Note_on_c, 0, 72, 127
1, 245497, Note_on_c, 10, 45, 127
1, 245639, Note_off_c, 10, 45, 127
1, 245639, Note_off_c, 0, 72, 127
1, 245651, Note_on_c, 11, 70, 127
1, 245651, Note_on_c, 7, 43, 127
1, 245793, Note_off_c, 11, 70, 127
1, 245805, Note_on_c, 0, 72, 127
1, 245881, Note_off_c, 2, 62, 127
1, 245947, Note_off_c, 0, 72, 127
1, 245957, Note_off_c, 7, 43, 127
1, 245959, Note_on_c, 10, 69, 127
1, 245959, Note_on_c, 2, 62, 127
1, 245959, Note_on_c, 6, 42, 127
1, 246101, Note_off_c, 6, 42, 127
1, 246101, Note_off_c, 2, 62, 127
1, 246101, Note_off_c, 10, 69, 127
1, 246113, Note_on_c, 11, 70, 127
1, 246113, Note_on_c, 2, 62, 127
1, 246113, Note_on_c, 7, 43, 127
1, 246255, Note_off_c, 11, 70, 127
1, 246267, Note_on_c, 10, 69, 127
1, 246341, Note_off_c, 2, 62, 127
1, 246408, Note_off_c, 10, 69, 127
1, 246418, Note_off_c, 7, 43, 127
1, 246420, Note_on_c, 7, 67, 127
1, 246420, Note_on_c, 7, 55, 127
1, 246562, Note_off_c, 7, 55, 127
1, 246562, Note_off_c, 7, 67, 127
1, 246574, Note_on_c, 7, 79, 127
1, 246574, Note_on_c, 3, 51, 127
1, 246716, Note_off_c, 3, 51, 127
1, 246728, Note_on_c, 2, 50, 127
1, 246870, Note_off_c, 2, 50, 127
1, 246880, Note_off_c, 7, 79, 127
1, 246882, Note_on_c, 10, 81, 127
1, 246882, Note_on_c, 0, 48, 127
1, 247024, Note_off_c, 0, 48, 127
1, 247024, Note_off_c, 10, 81, 127
1, 247036, Note_on_c, 6, 78, 127
1, 247036, Note_on_c, 2, 50, 127
1, 247178, Note_off_c, 6, 78, 127
1, 247190, Note_on_c, 4, 76, 127
1, 247332, Note_off_c, 4, 76, 127
1, 247342, Note_off_c, 2, 50, 127
1, 247344, Note_on_c, 2, 74, 127
1, 247344, Note_on_c, 10, 69, 127
1, 247344, Note_on_c, 2, 38, 127
1, 247486, Note_off_c, 2, 38, 127
1, 247486, Note_off_c, 2, 74, 127
1, 247498, Note_off_c, 10, 69, 127
1, 247498, Note_on_c, 2, 74, 127
1, 247498, Note_on_c, 5, 41, 127
1, 247640, Note_off_c, 5, 41, 127
1, 247652, Note_on_c, 4, 40, 127
1, 247794, Note_off_c, 4, 40, 127
1, 247804, Note_off_c, 2, 74, 127
1, 247806, Note_on_c, 4, 76, 127
1, 247806, Note_on_c, 2, 38, 127
1, 247948, Note_off_c, 2, 38, 127
1, 247948, Note_off_c, 4, 76, 127
1, 247960, Note_on_c, 1, 73, 127
1, 247960, Note_on_c, 10, 45, 127
1, 248102, Note_off_c, 1, 73, 127
1, 248114, Note_on_c, 12, 71, 127
1, 248256, Note_off_c, 12, 71, 127
1, 248266, Note_off_c, 10, 45, 127
1, 248268, Note_on_c, 10, 69, 127
1, 248268, Note_on_c, 10, 57, 127
1, 248410, Note_off_c, 10, 57, 127
1, 248410, Note_off_c, 10, 69, 127
1, 248422, Note_on_c, 2, 62, 127
1, 248422, Note_on_c, 11, 58, 127
1, 248564, Note_off_c, 11, 58, 127
1, 248576, Note_on_c, 10, 57, 127
1, 248718, Note_off_c, 10, 57, 127
1, 248728, Note_off_c, 2, 62, 127
1, 248730, Note_on_c, 4, 64, 127
1, 248730, Note_on_c, 7, 55, 127
1, 248872, Note_off_c, 7, 55, 127
1, 248872, Note_off_c, 4, 64, 127
1, 248884, Note_on_c, 5, 65, 127
1, 248884, Note_on_c, 10, 57, 127
1, 249026, Note_off_c, 10, 57, 127
1, 249038, Note_on_c, 7, 55, 127
1, 249180, Note_off_c, 7, 55, 127
1, 249190, Note_off_c, 5, 65, 127
1, 249192, Note_on_c, 7, 67, 127
1, 249192, Note_on_c, 5, 53, 127
1, 249334, Note_off_c, 5, 53, 127
1, 249334, Note_off_c, 7, 67, 127
1, 249346, Note_on_c, 4, 64, 127
1, 249346, Note_on_c, 0, 60, 127
1, 249488, Note_off_c, 0, 60, 127
1, 249500, Note_on_c, 11, 58, 127
1, 249642, Note_off_c, 11, 58, 127
1, 249652, Note_off_c, 4, 64, 127
1, 249654, Note_on_c, 5, 65, 127
1, 249654, Note_on_c, 10, 57, 127
1, 249796, Note_off_c, 10, 57, 127
1, 249796, Note_off_c, 5, 65, 127
1, 249808, Note_on_c, 7, 67, 127
1, 249808, Note_on_c, 11, 58, 127
1, 249950, Note_off_c, 11, 58, 127
1, 249962, Note_on_c, 10, 57, 127
1, 250104, Note_off_c, 10, 57, 127
1, 250114, Note_off_c, 7, 67, 127
1, 250116, Note_on_c, 10, 69, 127
1, 250116, Note_on_c, 7, 55, 127
1, 250258, Note_off_c, 7, 55, 127
1, 250258, Note_off_c, 10, 69, 127
1, 250270, Note_on_c, 2, 74, 127
1, 250270, Note_on_c, 5, 65, 127
1, 250270, Note_on_c, 2, 62, 127
1, 250412, Note_off_c, 2, 62, 127
1, 250412, Note_off_c, 2, 74, 127
1, 250424, Note_on_c, 4, 76, 127
1, 250424, Note_on_c, 0, 60, 127
1, 250566, Note_off_c, 0, 60, 127
1, 250566, Note_off_c, 4, 76, 127
1, 250576, Note_off_c, 5, 65, 127
1, 250578, Note_on_c, 2, 74, 127
1, 250578, Note_on_c, 7, 67, 127
1, 250578, Note_on_c, 11, 58, 127
1, 250720, Note_off_c, 11, 58, 127
1, 250720, Note_off_c, 7, 67, 127
1, 250720, Note_off_c, 2, 74, 127
1, 250732, Note_on_c, 10, 81, 127
1, 250732, Note_on_c, 1, 73, 127
1, 250732, Note_on_c, 10, 69, 127
1, 250732, Note_on_c, 10, 57, 127
1, 250874, Note_off_c, 10, 69, 127
1, 250874, Note_off_c, 1, 73, 127
1, 250886, Note_on_c, 2, 74, 127
1, 251028, Note_off_c, 2, 74, 127
1, 251038, Note_off_c, 10, 57, 127
1, 251038, Note_off_c, 10, 81, 127
1, 251040, Note_on_c, 10, 81, 127
1, 251040, Note_on_c, 1, 73, 127
1, 251040, Note_on_c, 10, 57, 127
1, 251182, Note_off_c, 10, 57, 127
1, 251182, Note_off_c, 1, 73, 127
1, 251182, Note_off_c, 10, 81, 127
1, 251194, Note_on_c, 4, 76, 127
1, 251194, Note_on_c, 0, 72, 127
1, 251194, Note_on_c, 0, 60, 127
1, 251336, Note_off_c, 0, 72, 127
1, 251348, Note_on_c, 2, 74, 127
1, 251490, Note_off_c, 2, 74, 127
1, 251500, Note_off_c, 0, 60, 127
1, 251500, Note_off_c, 4, 76, 127
1, 251502, Note_on_c, 4, 76, 127
1, 251502, Note_on_c, 0, 72, 127
1, 251502, Note_on_c, 0, 48, 127
1, 251644, Note_off_c, 0, 48, 127
1, 251644, Note_off_c, 0, 72, 127
1, 251644, Note_off_c, 4, 76, 127
1, 251656, Note_on_c, 7, 79, 127
1, 251656, Note_on_c, 12, 71, 127
1, 251656, Note_on_c, 7, 43, 127
1, 251798, Note_off_c, 12, 71, 127
1, 251810, Note_on_c, 0, 72, 127
1, 251952, Note_off_c, 0, 72, 127
1, 251962, Note_off_c, 7, 43, 127
1, 251962, Note_off_c, 7, 79, 127
1, 251964, Note_on_c, 7, 79, 127
1, 251964, Note_on_c, 12, 71, 127
1, 251964, Note_on_c, 7, 55, 127
1, 252106, Note_off_c, 7, 55, 127
1, 252106, Note_off_c, 12, 71, 127
1, 252106, Note_off_c, 7, 79, 127
1, 252118, Note_on_c, 2, 74, 127
1, 252118, Note_on_c, 11, 70, 127
1, 252118, Note_on_c, 7, 67, 127
1, 252260, Note_off_c, 11, 70, 127
1, 252272, Note_on_c, 0, 72, 127
1, 252414, Note_off_c, 0, 72, 127
1, 252424, Note_off_c, 7, 67, 127
1, 252424, Note_off_c, 2, 74, 127
1, 252426, Note_on_c, 2, 74, 127
1, 252426, Note_on_c, 11, 70, 127
1, 252426, Note_on_c, 7, 55, 127
1, 252568, Note_off_c, 7, 55, 127
1, 252568, Note_off_c, 11, 70, 127
1, 252568, Note_off_c, 2, 74, 127
1, 252580, Note_on_c, 5, 77, 127
1, 252580, Note_on_c, 10, 69, 127
1, 252580, Note_on_c, 2, 50, 127
1, 252722, Note_off_c, 10, 69, 127
1, 252734, Note_on_c, 11, 70, 127
1, 252876, Note_off_c, 11, 70, 127
1, 252886, Note_off_c, 2, 50, 127
1, 252886, Note_off_c, 5, 77, 127
1, 252888, Note_on_c, 5, 77, 127
1, 252888, Note_on_c, 10, 69, 127
1, 252888, Note_on_c, 2, 62, 127
1, 253030, Note_off_c, 2, 62, 127
1, 253030, Note_off_c, 10, 69, 127
1, 253030, Note_off_c, 5, 77, 127
1, 253042, Note_on_c, 10, 81, 127
1, 253042, Note_on_c, 1, 73, 127
1, 253042, Note_on_c, 10, 69, 127
1, 253184, Note_off_c, 10, 69, 127
1, 253184, Note_off_c, 1, 73, 127
1, 253184, Note_off_c, 10, 81, 127
1, 253196, Note_on_c, 10, 69, 127
1, 253338, Note_off_c, 10, 69, 127
1, 253350, Note_on_c, 10, 81, 127
1, 253350, Note_on_c, 1, 73, 127
1, 253350, Note_on_c, 10, 57, 127
1, 253492, Note_off_c, 10, 57, 127
1, 253492, Note_off_c, 1, 73, 127
1, 253492, Note_off_c, 10, 81, 127
1, 253504, Note_on_c, 1, 73, 127
1, 253504, Note_on_c, 7, 67, 127
1, 253504, Note_on_c, 10, 45, 127
1, 253646, Note_off_c, 7, 67, 127
1, 253658, Note_on_c, 10, 69, 127
1, 253800, Note_off_c, 10, 69, 127
1, 253810, Note_off_c, 10, 45, 127
1, 253812, Note_on_c, 7, 67, 127
1, 253812, Note_on_c, 10, 57, 127
1, 253954, Note_off_c, 10, 57, 127
1, 253954, Note_off_c, 7, 67, 127
1, 253961, Note_off_c, 1, 73, 127
1, 253966, Note_on_c, 7, 79, 127
1, 253966, Note_on_c, 1, 61, 127
1, 254108, Note_off_c, 7, 79, 127
1, 254120, Note_on_c, 7, 67, 127
1, 254262, Note_off_c, 7, 67, 127
1, 254272, Note_off_c, 1, 61, 127
1, 254274, Note_on_c, 11, 82, 127
1, 254274, Note_on_c, 7, 79, 127
1, 254274, Note_on_c, 4, 52, 127
1, 254416, Note_off_c, 4, 52, 127
1, 254416, Note_off_c, 7, 79, 127
1, 254416, Note_off_c, 11, 82, 127
1, 254428, Note_on_c, 10, 81, 127
1, 254428, Note_on_c, 5, 77, 127
1, 254428, Note_on_c, 5, 53, 127
1, 254570, Note_off_c, 5, 77, 127
1, 254582, Note_on_c, 2, 74, 127
1, 254724, Note_off_c, 2, 74, 127
1, 254734, Note_off_c, 5, 53, 127
1, 254734, Note_off_c, 10, 81, 127
1, 254736, Note_on_c, 7, 79, 127
1, 254736, Note_on_c, 4, 76, 127
1, 254736, Note_on_c, 4, 52, 127
1, 254878, Note_off_c, 4, 52, 127
1, 254878, Note_off_c, 4, 76, 127
1, 254878, Note_off_c, 7, 79, 127
1, 254890, Note_on_c, 10, 81, 127
1, 254890, Note_on_c, 5, 77, 127
1, 254890, Note_on_c, 2, 50, 127
1, 255032, Note_off_c, 5, 77, 127
1, 255044, Note_on_c, 4, 76, 127
1, 255186, Note_off_c, 4, 76, 127
1, 255196, Note_off_c, 2, 50, 127
1, 255196, Note_off_c, 10, 81, 127
1, 255198, Note_on_c, 11, 82, 127
1, 255198, Note_on_c, 7, 79, 127
1, 255198, Note_on_c, 1, 49, 127
1, 255340, Note_off_c, 1, 49, 127
1, 255340, Note_off_c, 7, 79, 127
1, 255340, Note_off_c, 11, 82, 127
1, 255352, Note_on_c, 10, 81, 127
1, 255352, Note_on_c, 5, 77, 127
1, 255352, Note_on_c, 2, 50, 127
1, 255494, Note_off_c, 5, 77, 127
1, 255506, Note_on_c, 2, 74, 127
1, 255648, Note_off_c, 2, 74, 127
1, 255658, Note_off_c, 10, 81, 127
1, 255660, Note_on_c, 7, 79, 127
1, 255660, Note_on_c, 4, 76, 127
1, 255802, Note_off_c, 4, 76, 127
1, 255802, Note_off_c, 7, 79, 127
1, 255814, Note_on_c, 10, 81, 127
1, 255814, Note_on_c, 5, 77, 127
1, 255956, Note_off_c, 5, 77, 127
1, 255968, Note_on_c, 4, 76, 127
1, 256044, Note_off_c, 2, 50, 127
1, 256110, Note_off_c, 4, 76, 127
1, 256120, Note_off_c, 10, 81, 127
1, 256122, Note_on_c, 11, 82, 127
1, 256122, Note_on_c, 7, 79, 127
1, 256122, Note_on_c, 1, 49, 127
1, 256264, Note_off_c, 1, 49, 127
1, 256264, Note_off_c, 7, 79, 127
1, 256264, Note_off_c, 11, 82, 127
1, 256276, Note_on_c, 10, 81, 127
1, 256276, Note_on_c, 5, 77, 127
1, 256276, Note_on_c, 2, 50, 127
1, 256418, Note_off_c, 5, 77, 127
1, 256430, Note_on_c, 2, 74, 127
1, 256572, Note_off_c, 2, 74, 127
1, 256582, Note_off_c, 10, 81, 127
1, 256584, Note_on_c, 7, 79, 127
1, 256584, Note_on_c, 4, 76, 127
1, 256726, Note_off_c, 4, 76, 127
1, 256726, Note_off_c, 7, 79, 127
1, 256738, Note_on_c, 10, 81, 127
1, 256738, Note_on_c, 5, 77, 127
1, 256880, Note_off_c, 5, 77, 127
1, 256892, Note_on_c, 4, 76, 127
1, 256968, Note_off_c, 2, 50, 127
1, 257034, Note_off_c, 4, 76, 127
1, 257044, Note_off_c, 10, 81, 127
1, 257046, Note_on_c, 11, 82, 127
1, 257046, Note_on_c, 7, 79, 127
1, 257046, Note_on_c, 7, 43, 127
1, 257188, Note_off_c, 7, 43, 127
1, 257188, Note_off_c, 7, 79, 127
1, 257188, Note_off_c, 11, 82, 127
1, 257200, Note_on_c, 10, 81, 127
1, 257200, Note_on_c, 5, 77, 127
1, 257200, Note_on_c, 2, 50, 127
1, 257342, Note_off_c, 5, 77, 127
1, 257354, Note_on_c, 4, 76, 127
1, 257496, Note_off_c, 4, 76, 127
1, 257506, Note_off_c, 2, 50, 127
1, 257508, Note_on_c, 2, 74, 127
1, 257508, Note_on_c, 2, 62, 127
1, 257650, Note_off_c, 2, 62, 127
1, 257660, Note_off_c, 10, 81, 127
1, 257662, Note_on_c, 7, 79, 127
1, 257662, Note_on_c, 11, 58, 127
1, 257804, Note_off_c, 11, 58, 127
1, 257804, Note_off_c, 7, 79, 127
1, 257816, Note_on_c, 10, 81, 127
1, 257816, Note_on_c, 10, 57, 127
1, 257958, Note_off_c, 10, 57, 127
1, 257958, Note_off_c, 10, 81, 127
1, 257970, Note_on_c, 11, 82, 127
1, 257970, Note_on_c, 7, 55, 127
1, 258112, Note_off_c, 7, 55, 127
1, 258112, Note_off_c, 11, 82, 127
1, 258124, Note_on_c, 10, 81, 127
1, 258124, Note_on_c, 5, 53, 127
1, 258266, Note_off_c, 5, 53, 127
1, 258266, Note_off_c, 10, 81, 127
1, 258278, Note_on_c, 7, 79, 127
1, 258278, Note_on_c, 4, 52, 127
1, 258420, Note_off_c, 4, 52, 127
1, 258420, Note_off_c, 7, 79, 127
1, 258432, Note_on_c, 5, 77, 127
1, 258432, Note_on_c, 2, 50, 127
1, 258574, Note_off_c, 2, 50, 127
1, 258574, Note_off_c, 5, 77, 127
1, 258586, Note_on_c, 4, 76, 127
1, 258586, Note_on_c, 10, 57, 127
1, 258728, Note_off_c, 4, 76, 127
1, 258740, Note_on_c, 5, 77, 127
1, 258882, Note_off_c, 5, 77, 127
1, 258892, Note_off_c, 10, 57, 127
1, 258892, Note_off_c, 2, 74, 127
1, 258894, Note_on_c, 4, 76, 127
1, 258894, Note_on_c, 1, 73, 127
1, 258894, Note_on_c, 10, 45, 127
1, 259036, Note_off_c, 10, 45, 127
1, 259036, Note_off_c, 1, 73, 127
1, 259036, Note_off_c, 4, 76, 127
1, 259048, Note_on_c, 2, 74, 127
1, 259048, Note_on_c, 2, 50, 127
1, 259048, Note_on_c, 11, 46, 127
1, 259190, Note_off_c, 11, 46, 127
1, 259202, Note_on_c, 10, 45, 127
1, 259276, Note_off_c, 2, 74, 127
1, 259343, Note_off_c, 10, 45, 127
1, 259353, Note_off_c, 2, 50, 127
1, 259355, Note_on_c, 2, 50, 127
1, 259355, Note_on_c, 11, 46, 127
1, 259497, Note_off_c, 11, 46, 127
1, 259497, Note_off_c, 2, 50, 127
1, 259509, Note_on_c, 7, 55, 127
1, 259509, Note_on_c, 12, 47, 127
1, 259651, Note_off_c, 12, 47, 127
1, 259663, Note_on_c, 10, 45, 127
1, 259805, Note_off_c, 10, 45, 127
1, 259815, Note_off_c, 7, 55, 127
1, 259817, Note_on_c, 2, 62, 127
1, 259817, Note_on_c, 7, 55, 127
1, 259817, Note_on_c, 12, 47, 127
1, 259959, Note_off_c, 12, 47, 127
1, 259959, Note_off_c, 7, 55, 127
1, 259959, Note_off_c, 2, 62, 127
1, 259971, Note_on_c, 7, 55, 127
1, 259971, Note_on_c, 4, 52, 127
1, 259971, Note_on_c, 0, 48, 127
1, 260113, Note_off_c, 0, 48, 127
1, 260125, Note_on_c, 12, 47, 127
1, 260267, Note_off_c, 12, 47, 127
1, 260277, Note_off_c, 4, 52, 127
1, 260279, Note_on_c, 4, 52, 127
1, 260279, Note_on_c, 0, 48, 127
1, 260421, Note_off_c, 0, 48, 127
1, 260421, Note_off_c, 4, 52, 127
1, 260428, Note_off_c, 7, 55, 127
1, 260433, Note_on_c, 10, 57, 127
1, 260433, Note_on_c, 1, 49, 127
1, 260575, Note_off_c, 1, 49, 127
1, 260587, Note_on_c, 0, 48, 127
1, 260729, Note_off_c, 0, 48, 127
1, 260739, Note_off_c, 10, 57, 127
1, 260741, Note_on_c, 4, 64, 127
1, 260741, Note_on_c, 10, 57, 127
1, 260741, Note_on_c, 1, 49, 127
1, 260883, Note_off_c, 1, 49, 127
1, 260883, Note_off_c, 10, 57, 127
1, 260883, Note_off_c, 4, 64, 127
1, 260895, Note_on_c, 4, 64, 127
1, 260895, Note_on_c, 5, 53, 127
1, 260895, Note_on_c, 2, 50, 127
1, 261037, Note_off_c, 2, 50, 127
1, 261049, Note_on_c, 1, 49, 127
1, 261191, Note_off_c, 1, 49, 127
1, 261201, Note_off_c, 5, 53, 127
1, 261201, Note_off_c, 4, 64, 127
1, 261203, Note_on_c, 10, 57, 127
1, 261203, Note_on_c, 5, 53, 127
1, 261203, Note_on_c, 2, 50, 127
1, 261345, Note_off_c, 2, 50, 127
1, 261345, Note_off_c, 5, 53, 127
1, 261345, Note_off_c, 10, 57, 127
1, 261357, Note_on_c, 2, 62, 127
1, 261357, Note_on_c, 11, 58, 127
1, 261357, Note_on_c, 2, 38, 127
1, 261499, Note_off_c, 2, 38, 127
1, 261511, Note_on_c, 2, 50, 127
1, 261653, Note_off_c, 2, 50, 127
1, 261663, Note_off_c, 11, 58, 127
1, 261663, Note_off_c, 2, 62, 127
1, 261665, Note_on_c, 7, 67, 127
1, 261665, Note_on_c, 11, 58, 127
1, 261665, Note_on_c, 2, 38, 127
1, 261807, Note_off_c, 2, 38, 127
1, 261807, Note_off_c, 11, 58, 127
1, 261807, Note_off_c, 7, 67, 127
1, 261819, Note_on_c, 7, 67, 127
1, 261819, Note_on_c, 11, 58, 127
1, 261819, Note_on_c, 4, 52, 127
1, 261961, Note_off_c, 4, 52, 127
1, 261973, Note_on_c, 2, 50, 127
1, 262115, Note_off_c, 2, 50, 127
1, 262125, Note_off_c, 7, 67, 127
1, 262127, Note_on_c, 1, 61, 127
1, 262127, Note_on_c, 4, 52, 127
1, 262269, Note_off_c, 4, 52, 127
1, 262269, Note_off_c, 1, 61, 127
1, 262281, Note_on_c, 1, 61, 127
1, 262281, Note_on_c, 4, 40, 127
1, 262423, Note_off_c, 4, 40, 127
1, 262435, Note_on_c, 4, 52, 127
1, 262511, Note_off_c, 11, 58, 127
1, 262577, Note_off_c, 4, 52, 127
1, 262587, Note_off_c, 1, 61, 127
1, 262589, Note_on_c, 4, 64, 127
1, 262589, Note_on_c, 1, 49, 127
1, 262589, Note_on_c, 4, 40, 127
1, 262731, Note_off_c, 4, 40, 127
1, 262731, Note_off_c, 1, 49, 127
1, 262731, Note_off_c, 4, 64, 127
1, 262743, Note_on_c, 10, 57, 127
1, 262743, Note_on_c, 2, 50, 127
1, 262743, Note_on_c, 5, 41, 127
1, 262885, Note_off_c, 5, 41, 127
1, 262897, Note_on_c, 10, 45, 127
1, 263039, Note_off_c, 10, 45, 127
1, 263049, Note_off_c, 2, 50, 127
1, 263051, Note_on_c, 4, 52, 127
1, 263051, Note_on_c, 7, 43, 127
1, 263193, Note_off_c, 7, 43, 127
1, 263193, Note_off_c, 4, 52, 127
1, 263205, Note_on_c, 2, 50, 127
1, 263205, Note_on_c, 5, 41, 127
1, 263347, Note_off_c, 5, 41, 127
1, 263359, Note_on_c, 7, 43, 127
1, 263435, Note_off_c, 10, 57, 127
1, 263501, Note_off_c, 7, 43, 127
1, 263511, Note_off_c, 2, 50, 127
1, 263513, Note_on_c, 4, 64, 127
1, 263513, Note_on_c, 1, 49, 127
1, 263513, Note_on_c, 4, 40, 127
1, 263655, Note_off_c, 4, 40, 127
1, 263655, Note_off_c, 1, 49, 127
1, 263655, Note_off_c, 4, 64, 127
1, 263667, Note_on_c, 10, 57, 127
1, 263667, Note_on_c, 2, 50, 127
1, 263667, Note_on_c, 5, 41, 127
1, 263809, Note_off_c, 5, 41, 127
1, 263821, Note_on_c, 10, 45, 127
1, 263963, Note_off_c, 10, 45, 127
1, 263973, Note_off_c, 2, 50, 127
1, 263975, Note_on_c, 4, 52, 127
1, 263975, Note_on_c, 7, 43, 127
1, 264117, Note_off_c, 7, 43, 127
1, 264117, Note_off_c, 4, 52, 127
1, 264129, Note_on_c, 2, 50, 127
1, 264129, Note_on_c, 5, 41, 127
1, 264271, Note_off_c, 5, 41, 127
1, 264283, Note_on_c, 7, 43, 127
1, 264359, Note_off_c, 10, 57, 127
1, 264425, Note_off_c, 7, 43, 127
1, 264435, Note_off_c, 2, 50, 127
1, 264437, Note_on_c, 4, 64, 127
1, 264437, Note_on_c, 1, 49, 127
1, 264437, Note_on_c, 4, 40, 127
1, 264579, Note_off_c, 4, 40, 127
1, 264579, Note_off_c, 1, 49, 127
1, 264579, Note_off_c, 4, 64, 127
1, 264591, Note_on_c, 10, 57, 127
1, 264591, Note_on_c, 2, 50, 127
1, 264591, Note_on_c, 5, 41, 127
1, 264733, Note_off_c, 5, 41, 127
1, 264745, Note_on_c, 10, 45, 127
1, 264887, Note_off_c, 10, 45, 127
1, 264897, Note_off_c, 2, 50, 127
1, 264899, Note_on_c, 4, 52, 127
1, 264899, Note_on_c, 7, 43, 127
1, 265041, Note_off_c, 7, 43, 127
1, 265041, Note_off_c, 4, 52, 127
1, 265053, Note_on_c, 2, 50, 127
1, 265053, Note_on_c, 5, 41, 127
1, 265195, Note_off_c, 5, 41, 127
1, 265207, Note_on_c, 7, 43, 127
1, 265283, Note_off_c, 10, 57, 127
1, 265349, Note_off_c, 7, 43, 127
1, 265359, Note_off_c, 2, 50, 127
1, 265361, Note_on_c, 4, 64, 127
1, 265361, Note_on_c, 1, 49, 127
1, 265361, Note_on_c, 4, 40, 127
1, 265503, Note_off_c, 4, 40, 127
1, 265503, Note_off_c, 1, 49, 127
1, 265503, Note_off_c, 4, 64, 127
1, 265515, Note_on_c, 10, 69, 127
1, 265515, Note_on_c, 2, 50, 127
1, 265515, Note_on_c, 5, 41, 127
1, 265657, Note_off_c, 5, 41, 127
1, 265657, Note_off_c, 10, 69, 127
1, 265669, Note_on_c, 7, 67, 127
1, 265669, Note_on_c, 4, 40, 127
1, 265811, Note_off_c, 4, 40, 127
1, 265811, Note_off_c, 7, 67, 127
1, 265821, Note_off_c, 2, 50, 127
1, 265823, Note_on_c, 5, 65, 127
1, 265823, Note_on_c, 2, 50, 127
1, 265823, Note_on_c, 2, 38, 127
1, 265965, Note_off_c, 2, 38, 127
1, 265965, Note_off_c, 2, 50, 127
1, 265965, Note_off_c, 5, 65, 127
1, 265977, Note_on_c, 4, 64, 127
1, 265977, Note_on_c, 2, 50, 127
1, 265977, Note_on_c, 10, 45, 127
1, 266119, Note_off_c, 10, 45, 127
1, 266131, Note_on_c, 7, 43, 127
1, 266273, Note_off_c, 7, 43, 127
1, 266283, Note_off_c, 2, 50, 127
1, 266283, Note_off_c, 4, 64, 127
1, 266285, Note_on_c, 2, 62, 127
1, 266285, Note_on_c, 1, 49, 127
1, 266285, Note_on_c, 10, 45, 127
1, 266427, Note_off_c, 10, 45, 127
1, 266427, Note_off_c, 1, 49, 127
1, 266427, Note_off_c, 2, 62, 127
1, 266439, Note_on_c, 2, 62, 127
1, 266439, Note_on_c, 2, 50, 127
1, 266439, Note_on_c, 2, 38, 127
1, 266581, Note_off_c, 2, 62, 127
1, 266593, Note_on_c, 0, 60, 127
1, 266735, Note_off_c, 0, 60, 127
1, 266745, Note_off_c, 2, 50, 127
1, 266747, Note_on_c, 11, 58, 127
1, 266747, Note_on_c, 2, 50, 127
1, 266889, Note_off_c, 2, 50, 127
1, 266889, Note_off_c, 11, 58, 127
1, 266896, Note_off_c, 2, 38, 127
1, 266901, Note_on_c, 0, 60, 127
1, 266901, Note_on_c, 4, 52, 127
1, 267043, Note_off_c, 0, 60, 127
1, 267055, Note_on_c, 11, 58, 127
1, 267197, Note_off_c, 11, 58, 127
1, 267207, Note_off_c, 4, 52, 127
1, 267209, Note_on_c, 2, 74, 127
1, 267209, Note_on_c, 10, 57, 127
1, 267209, Note_on_c, 6, 54, 127
1, 267351, Note_off_c, 6, 54, 127
1, 267351, Note_off_c, 10, 57, 127
1, 267351, Note_off_c, 2, 74, 127
1, 267363, Note_on_c, 7, 67, 127
1, 267363, Note_on_c, 11, 58, 127
1, 267363, Note_on_c, 7, 55, 127
1, 267505, Note_off_c, 7, 55, 127
1, 267517, Note_on_c, 6, 54, 127
1, 267659, Note_off_c, 6, 54, 127
1, 267669, Note_off_c, 7, 67, 127
1, 267671, Note_on_c, 7, 67, 127
1, 267671, Note_on_c, 7, 55, 127
1, 267813, Note_off_c, 7, 55, 127
1, 267813, Note_off_c, 7, 67, 127
1, 267820, Note_off_c, 11, 58, 127
1, 267825, Note_on_c, 0, 72, 127
1, 267825, Note_on_c, 4, 52, 127
1, 267967, Note_off_c, 4, 52, 127
1, 267979, Note_on_c, 2, 50, 127
1, 268121, Note_off_c, 2, 50, 127
1, 268131, Note_off_c, 0, 72, 127
1, 268133, Note_on_c, 0, 72, 127
1, 268133, Note_on_c, 7, 67, 127
1, 268133, Note_on_c, 3, 51, 127
1, 268275, Note_off_c, 3, 51, 127
1, 268275, Note_off_c, 7, 67, 127
1, 268275, Note_off_c, 0, 72, 127
1, 268287, Note_on_c, 10, 69, 127
1, 268287, Note_on_c, 0, 60, 127
1, 268287, Note_on_c, 5, 53, 127
1, 268429, Note_off_c, 5, 53, 127
1, 268441, Note_on_c, 4, 52, 127
1, 268583, Note_off_c, 4, 52, 127
1, 268593, Note_off_c, 10, 69, 127
1, 268595, Note_on_c, 10, 69, 127
1, 268595, Note_on_c, 5, 53, 127
1, 268737, Note_off_c, 5, 53, 127
1, 268737, Note_off_c, 10, 69, 127
1, 268749, Note_on_c, 2, 74, 127
1, 268749, Note_on_c, 6, 54, 127
1, 268891, Note_off_c, 6, 54, 127
1, 268903, Note_on_c, 4, 52, 127
1, 268979, Note_off_c, 0, 60, 127
1, 269045, Note_off_c, 4, 52, 127
1, 269055, Note_off_c, 2, 74, 127
1, 269057, Note_on_c, 2, 74, 127
1, 269057, Note_on_c, 10, 69, 127
1, 269057, Note_on_c, 6, 54, 127
1, 269199, Note_off_c, 6, 54, 127
1, 269199, Note_off_c, 10, 69, 127
1, 269199, Note_off_c, 2, 74, 127
1, 269211, Note_on_c, 11, 70, 127
1, 269211, Note_on_c, 2, 62, 127
1, 269211, Note_on_c, 7, 55, 127
1, 269353, Note_off_c, 7, 55, 127
1, 269365, Note_on_c, 6, 54, 127
1, 269507, Note_off_c, 6, 54, 127
1, 269517, Note_off_c, 11, 70, 127
1, 269519, Note_on_c, 11, 70, 127
1, 269519, Note_on_c, 7, 55, 127
1, 269661, Note_off_c, 7, 55, 127
1, 269661, Note_off_c, 11, 70, 127
1, 269673, Note_on_c, 3, 75, 127
1, 269673, Note_on_c, 7, 43, 127
1, 269815, Note_off_c, 7, 43, 127
1, 269827, Note_on_c, 7, 55, 127
1, 269903, Note_off_c, 2, 62, 127
1, 269969, Note_off_c, 7, 55, 127
1, 269979, Note_off_c, 3, 75, 127
1, 269981, Note_on_c, 3, 75, 127
1, 269981, Note_on_c, 11, 70, 127
1, 269981, Note_on_c, 7, 43, 127
1, 270123, Note_off_c, 7, 43, 127
1, 270123, Note_off_c, 11, 70, 127
1, 270123, Note_off_c, 3, 75, 127
1, 270135, Note_on_c, 3, 75, 127
1, 270135, Note_on_c, 0, 72, 127
1, 270135, Note_on_c, 10, 57, 127
1, 270277, Note_off_c, 10, 57, 127
1, 270289, Note_on_c, 7, 55, 127
1, 270431, Note_off_c, 7, 55, 127
1, 270443, Note_on_c, 10, 57, 127
1, 270585, Note_off_c, 10, 57, 127
1, 270597, Note_on_c, 10, 45, 127
1, 270739, Note_off_c, 10, 45, 127
1, 270751, Note_on_c, 10, 57, 127
1, 270827, Note_off_c, 0, 72, 127
1, 270827, Note_off_c, 3, 75, 127
1, 270893, Note_off_c, 10, 57, 127
1, 270905, Note_on_c, 6, 66, 127
1, 270905, Note_on_c, 0, 60, 127
1, 270905, Note_on_c, 10, 45, 127
1, 271047, Note_off_c, 10, 45, 127
1, 271047, Note_off_c, 0, 60, 127
1, 271047, Note_off_c, 6, 66, 127
1, 271059, Note_on_c, 7, 67, 127
1, 271059, Note_on_c, 2, 62, 127
1, 271059, Note_on_c, 11, 58, 127
1, 271201, Note_off_c, 11, 58, 127
1, 271203, Note_off_c, 2, 62, 127
1, 271213, Note_on_c, 2, 62, 127
1, 271364, Note_off_c, 7, 67, 127
1, 271366, Note_on_c, 10, 69, 127
1, 271366, Note_on_c, 0, 60, 127
1, 271508, Note_off_c, 0, 60, 127
1, 271508, Note_off_c, 10, 69, 127
1, 271520, Note_on_c, 7, 67, 127
1, 271520, Note_on_c, 11, 58, 127
1, 271662, Note_off_c, 11, 58, 127
1, 271669, Note_off_c, 2, 62, 127
1, 271674, Note_on_c, 0, 60, 127
1, 271816, Note_off_c, 0, 60, 127
1, 271826, Note_off_c, 7, 67, 127
1, 271828, Note_on_c, 6, 66, 127
1, 271828, Note_on_c, 0, 60, 127
1, 271828, Note_on_c, 10, 57, 127
1, 271970, Note_off_c, 10, 57, 127
1, 271970, Note_off_c, 0, 60, 127
1, 271970, Note_off_c, 6, 66, 127
1, 271982, Note_on_c, 7, 67, 127
1, 271982, Note_on_c, 2, 62, 127
1, 271982, Note_on_c, 11, 58, 127
1, 272124, Note_off_c, 11, 58, 127
1, 272126, Note_off_c, 2, 62, 127
1, 272136, Note_on_c, 2, 62, 127
1, 272287, Note_off_c, 7, 67, 127
1, 272289, Note_on_c, 10, 69, 127
1, 272289, Note_on_c, 0, 60, 127
1, 272431, Note_off_c, 0, 60, 127
1, 272431, Note_off_c, 10, 69, 127
1, 272443, Note_on_c, 7, 67, 127
1, 272443, Note_on_c, 11, 58, 127
1, 272585, Note_off_c, 11, 58, 127
1, 272592, Note_off_c, 2, 62, 127
1, 272597, Note_on_c, 0, 60, 127
1, 272739, Note_off_c, 0, 60, 127
1, 272749, Note_off_c, 7, 67, 127
1, 272751, Note_on_c, 6, 66, 127
1, 272751, Note_on_c, 0, 60, 127
1, 272751, Note_on_c, 10, 57, 127
1, 272893, Note_off_c, 10, 57, 127
1, 272893, Note_off_c, 0, 60, 127
1, 272893, Note_off_c, 6, 66, 127
1, 272905, Note_on_c, 7, 67, 127
1, 272905, Note_on_c, 2, 62, 127
1, 272905, Note_on_c, 11, 58, 127
1, 273047, Note_off_c, 11, 58, 127
1, 273049, Note_off_c, 2, 62, 127
1, 273059, Note_on_c, 2, 62, 127
1, 273210, Note_off_c, 7, 67, 127
1, 273212, Note_on_c, 10, 69, 127
1, 273212, Note_on_c, 0, 60, 127
1, 273354, Note_off_c, 0, 60, 127
1, 273354, Note_off_c, 10, 69, 127
1, 273366, Note_on_c, 7, 67, 127
1, 273366, Note_on_c, 11, 58, 127
1, 273508, Note_off_c, 11, 58, 127
1, 273515, Note_off_c, 2, 62, 127
1, 273520, Note_on_c, 0, 60, 127
1, 273662, Note_off_c, 0, 60, 127
1, 273672, Note_off_c, 7, 67, 127
1, 273674, Note_on_c, 6, 66, 127
1, 273674, Note_on_c, 0, 60, 127
1, 273674, Note_on_c, 10, 57, 127
1, 273816, Note_off_c, 10, 57, 127
1, 273816, Note_off_c, 0, 60, 127
1, 273816, Note_off_c, 6, 66, 127
1, 273828, Note_on_c, 7, 67, 127
1, 273828, Note_on_c, 2, 62, 127
1, 273828, Note_on_c, 11, 58, 127
1, 273970, Note_off_c, 11, 58, 127
1, 273982, Note_on_c, 7, 55, 127
1, 274056, Note_off_c, 2, 62, 127
1, 274123, Note_off_c, 7, 55, 127
1, 274133, Note_off_c, 7, 67, 127
1, 274135, Note_on_c, 2, 62, 127
1, 274135, Note_on_c, 5, 53, 127
1, 274277, Note_off_c, 5, 53, 127
1, 274277, Note_off_c, 2, 62, 127
1, 274289, Note_on_c, 7, 67, 127
1, 274289, Note_on_c, 3, 51, 127
1, 274431, Note_off_c, 3, 51, 127
1, 274431, Note_off_c, 7, 67, 127
1, 274443, Note_on_c, 5, 65, 127
1, 274443, Note_on_c, 2, 50, 127
1, 274585, Note_off_c, 2, 50, 127
1, 274585, Note_off_c, 5, 65, 127
1, 274597, Note_on_c, 7, 67, 127
1, 274597, Note_on_c, 3, 51, 127
1, 274739, Note_off_c, 3, 51, 127
1, 274739, Note_off_c, 7, 67, 127
1, 274751, Note_on_c, 8, 68, 127
1, 274751, Note_on_c, 0, 60, 127
1, 274751, Note_on_c, 5, 53, 127
1, 274893, Note_off_c, 8, 68, 127
1, 274905, Note_on_c, 7, 67, 127
1, 275047, Note_off_c, 7, 67, 127
1, 275057, Note_off_c, 0, 60, 127
1, 275059, Note_on_c, 8, 68, 127
1, 275059, Note_on_c, 0, 60, 127
1, 275201, Note_off_c, 0, 60, 127
1, 275201, Note_off_c, 8, 68, 127
1, 275213, Note_on_c, 10, 69, 127
1, 275213, Note_on_c, 5, 65, 127
1, 275355, Note_off_c, 10, 69, 127
1, 275367, Note_on_c, 7, 67, 127
1, 275443, Note_off_c, 5, 53, 127
1, 275509, Note_off_c, 7, 67, 127
1, 275519, Note_off_c, 5, 65, 127
1, 275521, Note_on_c, 10, 69, 127
1, 275521, Note_on_c, 5, 65, 127
1, 275521, Note_on_c, 2, 50, 127
1, 275663, Note_off_c, 2, 50, 127
1, 275663, Note_off_c, 5, 65, 127
1, 275663, Note_off_c, 10, 69, 127
1, 275675, Note_on_c, 11, 70, 127
1, 275675, Note_on_c, 2, 62, 127
1, 275675, Note_on_c, 7, 55, 127
1, 275817, Note_off_c, 11, 70, 127
1, 275829, Note_on_c, 10, 69, 127
1, 275971, Note_off_c, 10, 69, 127
1, 275981, Note_off_c, 2, 62, 127
1, 275983, Note_on_c, 11, 70, 127
1, 275983, Note_on_c, 2, 62, 127
1, 276125, Note_off_c, 2, 62, 127
1, 276125, Note_off_c, 11, 70, 127
1, 276137, Note_on_c, 12, 71, 127
1, 276137, Note_on_c, 7, 67, 127
1, 276279, Note_off_c, 12, 71, 127
1, 276291, Note_on_c, 10, 69, 127
1, 276367, Note_off_c, 7, 55, 127
1, 276433, Note_off_c, 10, 69, 127
1, 276443, Note_off_c, 7, 67, 127
1, 276445, Note_on_c, 12, 71, 127
1, 276445, Note_on_c, 7, 67, 127
1, 276445, Note_on_c, 7, 55, 127
1, 276587, Note_off_c, 7, 55, 127
1, 276587, Note_off_c, 7, 67, 127
1, 276587, Note_off_c, 12, 71, 127
1, 276599, Note_on_c, 0, 72, 127
1, 276599, Note_on_c, 3, 63, 127
1, 276599, Note_on_c, 0, 48, 127
1, 276741, Note_off_c, 0, 72, 127
1, 276753, Note_on_c, 12, 71, 127
1, 276895, Note_off_c, 12, 71, 127
1, 276905, Note_off_c, 3, 63, 127
1, 276907, Note_on_c, 0, 72, 127
1, 276907, Note_on_c, 3, 63, 127
1, 277049, Note_off_c, 3, 63, 127
1, 277049, Note_off_c, 0, 72, 127
1, 277056, Note_off_c, 0, 48, 127
1, 277061, Note_on_c, 0, 60, 127
1, 277061, Note_on_c, 8, 68, 127
1, 277203, Note_off_c, 0, 60, 127
1, 277215, Note_on_c, 0, 72, 127
1, 277357, Note_off_c, 0, 72, 127
1, 277367, Note_off_c, 8, 68, 127
1, 277369, Note_on_c, 0, 60, 127
1, 277369, Note_on_c, 8, 68, 127
1, 277511, Note_off_c, 8, 68, 127
1, 277511, Note_off_c, 0, 60, 127
1, 277523, Note_on_c, 2, 74, 127
1, 277523, Note_on_c, 8, 68, 127
1, 277665, Note_off_c, 2, 74, 127
1, 277677, Note_on_c, 0, 72, 127
1, 277819, Note_off_c, 0, 72, 127
1, 277831, Note_on_c, 2, 74, 127
1, 277973, Note_off_c, 2, 74, 127
1, 277985, Note_on_c, 2, 62, 127
1, 278127, Note_off_c, 2, 62, 127
1, 278139, Note_on_c, 2, 74, 127
1, 278281, Note_off_c, 2, 74, 127
1, 278291, Note_off_c, 8, 68, 127
1, 278293, Note_on_c, 2, 62, 127
1, 278293, Note_on_c, 12, 59, 127
1, 278435, Note_off_c, 12, 59, 127
1, 278435, Note_off_c, 2, 62, 127
1, 278447, Note_on_c, 3, 63, 127
1, 278447, Note_on_c, 0, 60, 127
1, 278589, Note_off_c, 3, 63, 127
1, 278601, Note_on_c, 7, 67, 127
1, 278743, Note_off_c, 7, 67, 127
1, 278753, Note_off_c, 0, 60, 127
1, 278755, Note_on_c, 5, 65, 127
1, 278755, Note_on_c, 2, 62, 127
1, 278897, Note_off_c, 2, 62, 127
1, 278897, Note_off_c, 5, 65, 127
1, 278909, Note_on_c, 3, 63, 127
1, 278909, Note_on_c, 0, 60, 127
1, 279051, Note_off_c, 3, 63, 127
1, 279063, Note_on_c, 5, 65, 127
1, 279205, Note_off_c, 5, 65, 127
1, 279215, Note_off_c, 0, 60, 127
1, 279217, Note_on_c, 2, 62, 127
1, 279217, Note_on_c, 12, 59, 127
1, 279359, Note_off_c, 12, 59, 127
1, 279359, Note_off_c, 2, 62, 127
1, 279371, Note_on_c, 3, 63, 127
1, 279371, Note_on_c, 0, 60, 127
1, 279513, Note_off_c, 0, 60, 127
1, 279525, Note_on_c, 7, 67, 127
1, 279667, Note_off_c, 7, 67, 127
1, 279677, Note_off_c, 3, 63, 127
1, 279679, Note_on_c, 2, 74, 127
1, 279679, Note_on_c, 5, 65, 127
1, 279821, Note_off_c, 5, 65, 127
1, 279821, Note_off_c, 2, 74, 127
1, 279833, Note_on_c, 0, 72, 127
1, 279833, Note_on_c, 3, 63, 127
1, 279975, Note_off_c, 3, 63, 127
1, 279987, Note_on_c, 5, 65, 127
1, 280129, Note_off_c, 5, 65, 127
1, 280139, Note_off_c, 0, 72, 127
1, 280141, Note_on_c, 12, 71, 127
1, 280141, Note_on_c, 2, 62, 127
1, 280283, Note_off_c, 2, 62, 127
1, 280283, Note_off_c, 12, 71, 127
1, 280295, Note_on_c, 0, 72, 127
1, 280295, Note_on_c, 3, 63, 127
1, 280437, Note_off_c, 0, 72, 127
1, 280449, Note_on_c, 7, 67, 127
1, 280591, Note_off_c, 7, 67, 127
1, 280601, Note_off_c, 3, 63, 127
1, 280603, Note_on_c, 5, 65, 127
1, 280603, Note_on_c, 2, 62, 127
1, 280745, Note_off_c, 2, 62, 127
1, 280745, Note_off_c, 5, 65, 127
1, 280757, Note_on_c, 3, 63, 127
1, 280757, Note_on_c, 0, 60, 127
1, 280899, Note_off_c, 3, 63, 127
1, 280911, Note_on_c, 5, 65, 127
1, 281053, Note_off_c, 5, 65, 127
1, 281063, Note_off_c, 0, 60, 127
1, 281065, Note_on_c, 2, 62, 127
1, 281065, Note_on_c, 12, 59, 127
1, 281207, Note_off_c, 12, 59, 127
1, 281207, Note_off_c, 2, 62, 127
1, 281219, Note_on_c, 3, 63, 127
1, 281219, Note_on_c, 0, 60, 127
1, 281371, Note_off_c, 3, 63, 127
1, 281372, Note_on_c, 2, 62, 127
1, 281517, Note_off_c, 0, 60, 127
1, 281524, Note_off_c, 2, 62, 127
1, 281525, Note_on_c, 0, 60, 127
1, 281525, Note_on_c, 0, 48, 127
1, 281677, Note_off_c, 0, 60, 127
1, 281678, Note_off_c, 0, 48, 127
1, 281678, Note_on_c, 0, 72, 127
1, 281678, Note_on_c, 3, 63, 127
1, 281820, Note_off_c, 3, 63, 127
1, 281820, Note_off_c, 0, 72, 127
1, 281832, Note_on_c, 2, 74, 127
1, 281832, Note_on_c, 5, 65, 127
1, 281974, Note_off_c, 5, 65, 127
1, 281974, Note_off_c, 2, 74, 127
1, 281986, Note_on_c, 0, 72, 127
1, 281986, Note_on_c, 3, 63, 127
1, 281986, Note_on_c, 0, 48, 127
1, 282128, Note_off_c, 0, 48, 127
1, 282128, Note_off_c, 3, 63, 127
1, 282128, Note_off_c, 0, 72, 127
1, 282140, Note_on_c, 12, 71, 127
1, 282140, Note_on_c, 2, 62, 127
1, 282140, Note_on_c, 7, 55, 127
1, 282282, Note_off_c, 12, 71, 127
1, 282294, Note_on_c, 0, 72, 127
1, 282436, Note_off_c, 0, 72, 127
1, 282446, Note_off_c, 7, 55, 127
1, 282448, Note_on_c, 12, 71, 127
1, 282448, Note_on_c, 7, 55, 127
1, 282590, Note_off_c, 7, 55, 127
1, 282590, Note_off_c, 12, 71, 127
1, 282602, Note_on_c, 11, 70, 127
1, 282602, Note_on_c, 2, 50, 127
1, 282744, Note_off_c, 11, 70, 127
1, 282756, Note_on_c, 0, 72, 127
1, 282832, Note_off_c, 2, 62, 127
1, 282898, Note_off_c, 0, 72, 127
1, 282908, Note_off_c, 2, 50, 127
1, 282910, Note_on_c, 11, 70, 127
1, 282910, Note_on_c, 5, 65, 127
1, 282910, Note_on_c, 2, 50, 127
1, 283052, Note_off_c, 2, 50, 127
1, 283052, Note_off_c, 5, 65, 127
1, 283052, Note_off_c, 11, 70, 127
1, 283064, Note_on_c, 10, 69, 127
1, 283064, Note_on_c, 0, 60, 127
1, 283064, Note_on_c, 5, 53, 127
1, 283206, Note_off_c, 10, 69, 127
1, 283218, Note_on_c, 11, 70, 127
1, 283360, Note_off_c, 11, 70, 127
1, 283370, Note_off_c, 5, 53, 127
1, 283372, Note_on_c, 10, 69, 127
1, 283372, Note_on_c, 5, 53, 127
1, 283514, Note_off_c, 5, 53, 127
1, 283514, Note_off_c, 10, 69, 127
1, 283526, Note_on_c, 8, 68, 127
1, 283526, Note_on_c, 0, 48, 127
1, 283668, Note_off_c, 8, 68, 127
1, 283680, Note_on_c, 11, 70, 127
1, 283756, Note_off_c, 0, 60, 127
1, 283822, Note_off_c, 11, 70, 127
1, 283832, Note_off_c, 0, 48, 127
1, 283834, Note_on_c, 8, 68, 127
1, 283834, Note_on_c, 3, 63, 127
1, 283834, Note_on_c, 0, 48, 127
1, 283976, Note_off_c, 0, 48, 127
1, 283976, Note_off_c, 8, 68, 127
1, 283988, Note_off_c, 3, 63, 127
1, 283988, Note_on_c, 7, 67, 127
1, 283988, Note_on_c, 3, 51, 127
1, 284142, Note_on_c, 8, 68, 127
1, 284284, Note_off_c, 8, 68, 127
1, 284289, Note_off_c, 7, 67, 127
1, 284294, Note_off_c, 3, 51, 127
1, 284296, Note_on_c, 0, 72, 127
1, 284296, Note_on_c, 7, 67, 127
1, 284296, Note_on_c, 3, 51, 127
1, 284438, Note_off_c, 3, 51, 127
1, 284438, Note_off_c, 7, 67, 127
1, 284438, Note_off_c, 0, 72, 127
1, 284450, Note_on_c, 7, 79, 127
1, 284450, Note_on_c, 2, 74, 127
1, 284450, Note_on_c, 12, 47, 127
1, 284592, Note_off_c, 7, 79, 127
1, 284604, Note_on_c, 7, 67, 127
1, 284746, Note_off_c, 7, 67, 127
1, 284756, Note_off_c, 12, 47, 127
1, 284756, Note_off_c, 2, 74, 127
1, 284758, Note_on_c, 7, 79, 127
1, 284758, Note_on_c, 2, 74, 127
1, 284758, Note_on_c, 12, 47, 127
1, 284900, Note_off_c, 12, 47, 127
1, 284900, Note_off_c, 2, 74, 127
1, 284900, Note_off_c, 7, 79, 127
1, 284912, Note_on_c, 5, 65, 127
1, 284912, Note_on_c, 2, 74, 127
1, 284912, Note_on_c, 12, 47, 127
1, 285054, Note_off_c, 5, 65, 127
1, 285066, Note_on_c, 7, 67, 127
1, 285208, Note_off_c, 7, 67, 127
1, 285218, Note_off_c, 2, 74, 127
1, 285220, Note_on_c, 5, 65, 127
1, 285220, Note_on_c, 2, 74, 127
1, 285362, Note_off_c, 2, 74, 127
1, 285362, Note_off_c, 5, 65, 127
1, 285374, Note_on_c, 5, 77, 127
1, 285374, Note_on_c, 2, 74, 127
1, 285516, Note_off_c, 5, 77, 127
1, 285528, Note_on_c, 5, 65, 127
1, 285604, Note_off_c, 12, 47, 127
1, 285670, Note_off_c, 5, 65, 127
1, 285680, Note_off_c, 2, 74, 127
1, 285682, Note_on_c, 5, 77, 127
1, 285682, Note_on_c, 2, 74, 127
1, 285682, Note_on_c, 8, 56, 127
1, 285824, Note_off_c, 8, 56, 127
1, 285824, Note_off_c, 2, 74, 127
1, 285824, Note_off_c, 5, 77, 127
1, 285836, Note_on_c, 3, 75, 127
1, 285836, Note_on_c, 0, 72, 127
1, 285836, Note_on_c, 7, 55, 127
1, 285978, Note_off_c, 3, 75, 127
1, 285980, Note_off_c, 0, 72, 127
1, 285990, Note_on_c, 0, 72, 127
1, 286132, Note_off_c, 0, 72, 127
1, 286142, Note_off_c, 7, 55, 127
1, 286144, Note_on_c, 2, 74, 127
1, 286144, Note_on_c, 5, 53, 127
1, 286286, Note_off_c, 5, 53, 127
1, 286286, Note_off_c, 2, 74, 127
1, 286298, Note_on_c, 3, 75, 127
1, 286298, Note_on_c, 7, 55, 127
1, 286440, Note_off_c, 3, 75, 127
1, 286452, Note_on_c, 2, 74, 127
1, 286594, Note_off_c, 2, 74, 127
1, 286604, Note_off_c, 7, 55, 127
1, 286606, Note_on_c, 5, 77, 127
1, 286606, Note_on_c, 12, 71, 127
1, 286606, Note_on_c, 8, 56, 127
1, 286748, Note_off_c, 8, 56, 127
1, 286748, Note_off_c, 12, 71, 127
1, 286748, Note_off_c, 5, 77, 127
1, 286760, Note_on_c, 3, 75, 127
1, 286760, Note_on_c, 0, 72, 127
1, 286760, Note_on_c, 7, 55, 127
1, 286902, Note_off_c, 7, 55, 127
1, 286914, Note_on_c, 0, 60, 127
1, 287056, Note_off_c, 0, 60, 127
1, 287066, Note_off_c, 0, 72, 127
1, 287066, Note_off_c, 3, 75, 127
1, 287068, Note_on_c, 12, 71, 127
1, 287068, Note_on_c, 5, 65, 127
1, 287068, Note_on_c, 2, 62, 127
1, 287210, Note_off_c, 2, 62, 127
1, 287210, Note_off_c, 5, 65, 127
1, 287210, Note_off_c, 12, 71, 127
1, 287222, Note_on_c, 0, 72, 127
1, 287222, Note_on_c, 7, 67, 127
1, 287222, Note_on_c, 3, 63, 127
1, 287364, Note_off_c, 3, 63, 127
1, 287376, Note_on_c, 2, 62, 127
1, 287518, Note_off_c, 2, 62, 127
1, 287528, Note_off_c, 7, 67, 127
1, 287528, Note_off_c, 0, 72, 127
1, 287530, Note_on_c, 2, 74, 127
1, 287530, Note_on_c, 8, 68, 127
1, 287530, Note_on_c, 5, 65, 127
1, 287672, Note_off_c, 5, 65, 127
1, 287672, Note_off_c, 8, 68, 127
1, 287672, Note_off_c, 2, 74, 127
1, 287684, Note_on_c, 2, 74, 127
1, 287684, Note_on_c, 7, 67, 127
1, 287684, Note_on_c, 3, 63, 127
1, 287826, Note_off_c, 2, 74, 127
1, 287838, Note_on_c, 0, 72, 127
1, 287980, Note_off_c, 0, 72, 127
1, 287990, Note_off_c, 3, 63, 127
1, 287990, Note_off_c, 7, 67, 127
1, 287992, Note_on_c, 2, 74, 127
1, 287992, Note_on_c, 0, 72, 127
1, 287992, Note_on_c, 5, 65, 127
1, 288134, Note_off_c, 5, 65, 127
1, 288134, Note_off_c, 0, 72, 127
1, 288134, Note_off_c, 2, 74, 127
1, 288146, Note_on_c, 3, 75, 127
1, 288146, Note_on_c, 0, 72, 127
1, 288146, Note_on_c, 7, 67, 127
1, 288288, Note_off_c, 3, 75, 127
1, 288300, Note_on_c, 2, 74, 127
1, 288442, Note_off_c, 2, 74, 127
1, 288452, Note_off_c, 7, 67, 127
1, 288452, Note_off_c, 0, 72, 127
1, 288454, Note_on_c, 5, 77, 127
1, 288454, Note_on_c, 12, 71, 127
1, 288454, Note_on_c, 8, 68, 127
1, 288596, Note_off_c, 8, 68, 127
1, 288596, Note_off_c, 12, 71, 127
1, 288596, Note_off_c, 5, 77, 127
1, 288608, Note_on_c, 3, 75, 127
1, 288608, Note_on_c, 0, 72, 127
1, 288608, Note_on_c, 7, 67, 127
1, 288750, Note_off_c, 3, 75, 127
1, 288762, Note_on_c, 5, 77, 127
1, 288904, Note_off_c, 5, 77, 127
1, 288914, Note_off_c, 7, 67, 127
1, 288914, Note_off_c, 0, 72, 127
1, 288916, Note_on_c, 7, 79, 127
1, 288916, Note_on_c, 0, 72, 127
1, 288916, Note_on_c, 5, 65, 127
1, 289058, Note_off_c, 0, 72, 127
1, 289058, Note_off_c, 7, 79, 127
1, 289070, Note_off_c, 5, 65, 127
1, 289070, Note_on_c, 2, 74, 127
1, 289070, Note_on_c, 0, 72, 127
1, 289070, Note_on_c, 7, 67, 127
1, 289212, Note_off_c, 2, 74, 127
1, 289224, Note_on_c, 3, 75, 127
1, 289366, Note_off_c, 3, 75, 127
1, 289376, Note_off_c, 7, 67, 127
1, 289376, Note_off_c, 0, 72, 127
1, 289378, Note_on_c, 5, 77, 127
1, 289378, Note_on_c, 12, 71, 127
1, 289378, Note_on_c, 7, 55, 127
1, 289520, Note_off_c, 7, 55, 127
1, 289520, Note_off_c, 12, 71, 127
1, 289520, Note_off_c, 5, 77, 127
1, 289532, Note_on_c, 3, 75, 127
1, 289532, Note_on_c, 0, 72, 127
1, 289532, Note_on_c, 8, 56, 127
1, 289532, Note_on_c, 0, 48, 127
1, 289674, Note_off_c, 8, 56, 127
1, 289686, Note_on_c, 7, 55, 127
1, 289828, Note_off_c, 7, 55, 127
1, 289833, Note_off_c, 0, 48, 127
1, 289838, Note_off_c, 0, 72, 127
1, 289838, Note_off_c, 3, 75, 127
1, 289840, Note_on_c, 3, 75, 127
1, 289840, Note_on_c, 3, 63, 127
1, 289840, Note_on_c, 8, 56, 127
1, 289840, Note_on_c, 0, 48, 127
1, 289982, Note_off_c, 0, 48, 127
1, 289982, Note_off_c, 8, 56, 127
1, 289982, Note_off_c, 3, 63, 127
1, 289982, Note_off_c, 3, 75, 127
1, 289994, Note_on_c, 0, 72, 127
1, 289994, Note_on_c, 5, 65, 127
1, 289994, Note_on_c, 10, 57, 127
1, 289994, Note_on_c, 5, 53, 127
1, 290136, Note_off_c, 10, 57, 127
1, 290136, Note_off_c, 0, 72, 127
1, 290148, Note_on_c, 11, 70, 127
1, 290148, Note_on_c, 7, 55, 127
1, 290290, Note_off_c, 7, 55, 127
1, 290290, Note_off_c, 11, 70, 127
1, 290295, Note_off_c, 5, 53, 127
1, 290300, Note_off_c, 5, 65, 127
1, 290302, Note_on_c, 0, 72, 127
1, 290302, Note_on_c, 5, 65, 127
1, 290302, Note_on_c, 10, 57, 127
1, 290302, Note_on_c, 5, 53, 127
1, 290444, Note_off_c, 5, 53, 127
1, 290444, Note_off_c, 10, 57, 127
1, 290444, Note_off_c, 5, 65, 127
1, 290444, Note_off_c, 0, 72, 127
1, 290456, Note_on_c, 5, 77, 127
1, 290456, Note_on_c, 5, 65, 127
1, 290456, Note_on_c, 11, 58, 127
1, 290456, Note_on_c, 2, 50, 127
1, 290598, Note_off_c, 11, 58, 127
1, 290610, Note_on_c, 10, 57, 127
1, 290752, Note_off_c, 10, 57, 127
1, 290757, Note_off_c, 2, 50, 127
1, 290762, Note_off_c, 5, 65, 127
1, 290762, Note_off_c, 5, 77, 127
1, 290764, Note_on_c, 5, 77, 127
1, 290764, Note_on_c, 5, 65, 127
1, 290764, Note_on_c, 11, 58, 127
1, 290764, Note_on_c, 2, 50, 127
1, 290906, Note_off_c, 2, 50, 127
1, 290906, Note_off_c, 11, 58, 127
1, 290906, Note_off_c, 5, 65, 127
1, 290906, Note_off_c, 5, 77, 127
1, 290918, Note_on_c, 2, 74, 127
1, 290918, Note_on_c, 7, 67, 127
1, 290918, Note_on_c, 12, 59, 127
1, 290918, Note_on_c, 7, 55, 127
1, 291060, Note_off_c, 12, 59, 127
1, 291060, Note_off_c, 2, 74, 127
1, 291072, Note_on_c, 0, 72, 127
1, 291072, Note_on_c, 10, 57, 127
1, 291214, Note_off_c, 10, 57, 127
1, 291214, Note_off_c, 0, 72, 127
1, 291219, Note_off_c, 7, 55, 127
1, 291224, Note_off_c, 7, 67, 127
1, 291226, Note_on_c, 2, 74, 127
1, 291226, Note_on_c, 7, 67, 127
1, 291226, Note_on_c, 12, 59, 127
1, 291226, Note_on_c, 7, 55, 127
1, 291368, Note_off_c, 7, 55, 127
1, 291368, Note_off_c, 12, 59, 127
1, 291368, Note_off_c, 7, 67, 127
1, 291368, Note_off_c, 2, 74, 127
1, 291380, Note_on_c, 3, 75, 127
1, 291380, Note_on_c, 7, 67, 127
1, 291380, Note_on_c, 0, 60, 127
1, 291380, Note_on_c, 3, 51, 127
1, 291522, Note_off_c, 0, 60, 127
1, 291534, Note_on_c, 12, 59, 127
1, 291676, Note_off_c, 12, 59, 127
1, 291681, Note_off_c, 3, 51, 127
1, 291688, Note_on_c, 0, 60, 127
1, 291688, Note_on_c, 3, 51, 127
1, 291830, Note_off_c, 3, 51, 127
1, 291830, Note_off_c, 0, 60, 127
1, 291840, Note_off_c, 7, 67, 127
1, 291842, Note_on_c, 0, 48, 127
1, 291842, Note_on_c, 8, 56, 127
1, 291996, Note_on_c, 0, 60, 127
1, 292072, Note_off_c, 3, 75, 127
1, 292138, Note_off_c, 0, 60, 127
1, 292143, Note_off_c, 0, 48, 127
1, 292148, Note_off_c, 8, 56, 127
1, 292150, Note_on_c, 3, 75, 127
1, 292150, Note_on_c, 0, 48, 127
1, 292150, Note_on_c, 8, 56, 127
1, 292292, Note_off_c, 8, 56, 127
1, 292292, Note_off_c, 0, 48, 127
1, 292292, Note_off_c, 3, 75, 127
1, 292304, Note_on_c, 5, 77, 127
1, 292304, Note_on_c, 2, 62, 127
1, 292304, Note_on_c, 8, 56, 127
1, 292446, Note_off_c, 2, 62, 127
1, 292458, Note_on_c, 0, 60, 127
1, 292600, Note_off_c, 0, 60, 127
1, 292612, Note_on_c, 2, 62, 127
1, 292754, Note_off_c, 2, 62, 127
1, 292766, Note_on_c, 2, 50, 127
1, 292908, Note_off_c, 2, 50, 127
1, 292920, Note_on_c, 2, 62, 127
1, 292996, Note_off_c, 8, 56, 127
1, 292996, Note_off_c, 5, 77, 127
1, 293062, Note_off_c, 2, 62, 127
1, 293074, Note_on_c, 7, 79, 127
1, 293074, Note_on_c, 2, 50, 127
1, 293074, Note_on_c, 12, 47, 127
1, 293216, Note_off_c, 12, 47, 127
1, 293216, Note_off_c, 2, 50, 127
1, 293216, Note_off_c, 7, 79, 127
1, 293228, Note_on_c, 0, 72, 127
1, 293228, Note_on_c, 3, 51, 127
1, 293228, Note_on_c, 0, 48, 127
1, 293370, Note_off_c, 3, 51, 127
1, 293382, Note_on_c, 7, 55, 127
1, 293524, Note_off_c, 7, 55, 127
1, 293534, Note_off_c, 0, 48, 127
1, 293534, Note_off_c, 0, 72, 127
1, 293536, Note_on_c, 12, 71, 127
1, 293536, Note_on_c, 5, 53, 127
1, 293536, Note_on_c, 2, 50, 127
1, 293678, Note_off_c, 2, 50, 127
1, 293678, Note_off_c, 5, 53, 127
1, 293678, Note_off_c, 12, 71, 127
1, 293690, Note_on_c, 0, 72, 127
1, 293690, Note_on_c, 3, 51, 127
1, 293690, Note_on_c, 0, 48, 127
1, 293832, Note_off_c, 3, 51, 127
1, 293844, Note_on_c, 5, 53, 127
1, 293986, Note_off_c, 5, 53, 127
1, 293996, Note_off_c, 0, 48, 127
1, 293996, Note_off_c, 0, 72, 127
1, 293998, Note_on_c, 7, 79, 127
1, 293998, Note_on_c, 2, 50, 127
1, 293998, Note_on_c, 12, 47, 127
1, 294140, Note_off_c, 12, 47, 127
1, 294140, Note_off_c, 2, 50, 127
1, 294140, Note_off_c, 7, 79, 127
1, 294152, Note_on_c, 0, 72, 127
1, 294152, Note_on_c, 3, 51, 127
1, 294152, Note_on_c, 0, 48, 127
1, 294294, Note_off_c, 3, 51, 127
1, 294306, Note_on_c, 7, 55, 127
1, 294448, Note_off_c, 7, 55, 127
1, 294458, Note_off_c, 0, 48, 127
1, 294458, Note_off_c, 0, 72, 127
1, 294460, Note_on_c, 12, 71, 127
1, 294460, Note_on_c, 5, 53, 127
1, 294460, Note_on_c, 2, 50, 127
1, 294602, Note_off_c, 2, 50, 127
1, 294602, Note_off_c, 5, 53, 127
1, 294602, Note_off_c, 12, 71, 127
1, 294614, Note_on_c, 0, 72, 127
1, 294614, Note_on_c, 3, 51, 127
1, 294614, Note_on_c, 0, 48, 127
1, 294756, Note_off_c, 3, 51, 127
1, 294768, Note_on_c, 5, 53, 127
1, 294910, Note_off_c, 5, 53, 127
1, 294920, Note_off_c, 0, 48, 127
1, 294920, Note_off_c, 0, 72, 127
1, 294922, Note_on_c, 7, 79, 127
1, 294922, Note_on_c, 2, 50, 127
1, 294922, Note_on_c, 12, 47, 127
1, 295064, Note_off_c, 12, 47, 127
1, 295064, Note_off_c, 2, 50, 127
1, 295064, Note_off_c, 7, 79, 127
1, 295076, Note_on_c, 0, 72, 127
1, 295076, Note_on_c, 3, 51, 127
1, 295076, Note_on_c, 0, 48, 127
1, 295218, Note_off_c, 3, 51, 127
1, 295230, Note_on_c, 7, 55, 127
1, 295372, Note_off_c, 7, 55, 127
1, 295382, Note_off_c, 0, 48, 127
1, 295382, Note_off_c, 0, 72, 127
1, 295384, Note_on_c, 12, 71, 127
1, 295384, Note_on_c, 5, 53, 127
1, 295384, Note_on_c, 2, 50, 127
1, 295526, Note_off_c, 2, 50, 127
1, 295526, Note_off_c, 5, 53, 127
1, 295526, Note_off_c, 12, 71, 127
1, 295538, Note_on_c, 0, 72, 127
1, 295538, Note_on_c, 3, 51, 127
1, 295538, Note_on_c, 0, 48, 127
1, 295680, Note_off_c, 3, 51, 127
1, 295692, Note_on_c, 5, 53, 127
1, 295834, Note_off_c, 5, 53, 127
1, 295844, Note_off_c, 0, 48, 127
1, 295844, Note_off_c, 0, 72, 127
1, 295846, Note_on_c, 7, 79, 127
1, 295846, Note_on_c, 2, 50, 127
1, 295846, Note_on_c, 12, 47, 127
1, 295988, Note_off_c, 12, 47, 127
1, 295988, Note_off_c, 2, 50, 127
1, 295988, Note_off_c, 7, 79, 127
1, 296000, Note_on_c, 8, 80, 127
1, 296000, Note_on_c, 3, 51, 127
1, 296000, Note_on_c, 0, 48, 127
1, 296142, Note_off_c, 8, 80, 127
1, 296154, Note_on_c, 8, 68, 127
1, 296296, Note_off_c, 8, 68, 127
1, 296306, Note_off_c, 0, 48, 127
1, 296308, Note_on_c, 8, 68, 127
1, 296308, Note_on_c, 8, 80, 127
1, 296308, Note_on_c, 0, 60, 127
1, 296450, Note_off_c, 0, 60, 127
1, 296450, Note_off_c, 8, 80, 127
1, 296450, Note_off_c, 8, 68, 127
1, 296457, Note_off_c, 3, 51, 127
1, 296462, Note_on_c, 5, 77, 127
1, 296462, Note_on_c, 2, 62, 127
1, 296604, Note_off_c, 2, 62, 127
1, 296604, Note_off_c, 5, 77, 127
1, 296616, Note_on_c, 3, 75, 127
1, 296616, Note_on_c, 2, 50, 127
1, 296758, Note_off_c, 2, 50, 127
1, 296758, Note_off_c, 3, 75, 127
1, 296770, Note_on_c, 5, 77, 127
1, 296770, Note_on_c, 2, 62, 127
1, 296912, Note_off_c, 2, 62, 127
1, 296912, Note_off_c, 5, 77, 127
1, 296924, Note_on_c, 7, 79, 127
1, 296924, Note_on_c, 12, 59, 127
1, 297066, Note_off_c, 12, 59, 127
1, 297066, Note_off_c, 7, 79, 127
1, 297078, Note_on_c, 7, 67, 127
1, 297078, Note_on_c, 10, 57, 127
1, 297220, Note_off_c, 10, 57, 127
1, 297220, Note_off_c, 7, 67, 127
1, 297232, Note_on_c, 7, 79, 127
1, 297232, Note_on_c, 12, 59, 127
1, 297374, Note_off_c, 12, 59, 127
1, 297374, Note_off_c, 7, 79, 127
1, 297386, Note_on_c, 3, 75, 127
1, 297386, Note_on_c, 0, 60, 127
1, 297528, Note_off_c, 0, 60, 127
1, 297528, Note_off_c, 3, 75, 127
1, 297540, Note_on_c, 2, 74, 127
1, 297540, Note_on_c, 0, 48, 127
1, 297682, Note_off_c, 0, 48, 127
1, 297682, Note_off_c, 2, 74, 127
1, 297694, Note_on_c, 3, 75, 127
1, 297694, Note_on_c, 0, 60, 127
1, 297836, Note_off_c, 0, 60, 127
1, 297836, Note_off_c, 3, 75, 127
1, 297848, Note_on_c, 5, 77, 127
1, 297848, Note_on_c, 8, 56, 127
1, 297990, Note_off_c, 8, 56, 127
1, 297990, Note_off_c, 5, 77, 127
1, 298002, Note_on_c, 5, 65, 127
1, 298002, Note_on_c, 7, 55, 127
1, 298144, Note_off_c, 7, 55, 127
1, 298144, Note_off_c, 5, 65, 127
1, 298156, Note_on_c, 5, 77, 127
1, 298156, Note_on_c, 8, 56, 127
1, 298298, Note_off_c, 8, 56, 127
1, 298298, Note_off_c, 5, 77, 127
1, 298310, Note_on_c, 2, 74, 127
1, 298310, Note_on_c, 11, 58, 127
1, 298452, Note_off_c, 11, 58, 127
1, 298452, Note_off_c, 2, 74, 127
1, 298464, Note_on_c, 0, 72, 127
1, 298464, Note_on_c, 11, 46, 127
1, 298606, Note_off_c, 11, 46, 127
1, 298606, Note_off_c, 0, 72, 127
1, 298618, Note_on_c, 2, 74, 127
1, 298618, Note_on_c, 11, 70, 127
1, 298618, Note_on_c, 11, 58, 127
1, 298760, Note_off_c, 11, 58, 127
1, 298760, Note_off_c, 11, 70, 127
1, 298760, Note_off_c, 2, 74, 127
1, 298772, Note_on_c, 3, 75, 127
1, 298772, Note_on_c, 3, 63, 127
1, 298772, Note_on_c, 7, 55, 127
1, 298914, Note_off_c, 7, 55, 127
1, 298926, Note_on_c, 8, 56, 127
1, 299068, Note_off_c, 8, 56, 127
1, 299078, Note_off_c, 3, 63, 127
1, 299080, Note_on_c, 3, 63, 127
1, 299080, Note_on_c, 11, 58, 127
1, 299222, Note_off_c, 11, 58, 127
1, 299222, Note_off_c, 3, 63, 127
1, 299234, Note_on_c, 8, 68, 127
1, 299234, Note_on_c, 0, 60, 127
1, 299376, Note_off_c, 0, 60, 127
1, 299388, Note_on_c, 0, 48, 127
1, 299464, Note_off_c, 3, 75, 127
1, 299530, Note_off_c, 0, 48, 127
1, 299540, Note_off_c, 8, 68, 127
1, 299542, Note_on_c, 3, 75, 127
1, 299542, Note_on_c, 8, 68, 127
1, 299542, Note_on_c, 0, 60, 127
1, 299684, Note_off_c, 0, 60, 127
1, 299684, Note_off_c, 8, 68, 127
1, 299684, Note_off_c, 3, 75, 127
1, 299696, Note_on_c, 3, 75, 127
1, 299696, Note_on_c, 5, 65, 127
1, 299696, Note_on_c, 8, 56, 127
1, 299838, Note_off_c, 8, 56, 127
1, 299850, Note_on_c, 7, 55, 127
1, 299992, Note_off_c, 7, 55, 127
1, 300002, Note_off_c, 5, 65, 127
1, 300004, Note_on_c, 5, 65, 127
1, 300004, Note_on_c, 8, 56, 127
1, 300146, Note_off_c, 8, 56, 127
1, 300146, Note_off_c, 5, 65, 127
1, 300153, Note_off_c, 3, 75, 127
1, 300158, Note_on_c, 11, 70, 127
1, 300158, Note_on_c, 11, 58, 127
1, 300300, Note_off_c, 11, 58, 127
1, 300312, Note_on_c, 11, 46, 127
1, 300454, Note_off_c, 11, 46, 127
1, 300464, Note_off_c, 11, 70, 127
1, 300466, Note_on_c, 2, 74, 127
1, 300466, Note_on_c, 11, 70, 127
1, 300466, Note_on_c, 11, 58, 127
1, 300608, Note_off_c, 11, 58, 127
1, 300608, Note_off_c, 11, 70, 127
1, 300608, Note_off_c, 2, 74, 127
1, 300620, Note_on_c, 3, 75, 127
1, 300620, Note_on_c, 7, 67, 127
1, 300620, Note_on_c, 3, 51, 127
1, 300762, Note_off_c, 3, 51, 127
1, 300774, Note_on_c, 2, 50, 127
1, 300916, Note_off_c, 2, 50, 127
1, 300926, Note_off_c, 7, 67, 127
1, 300928, Note_on_c, 7, 67, 127
1, 300928, Note_on_c, 3, 51, 127
1, 301070, Note_off_c, 3, 51, 127
1, 301070, Note_off_c, 7, 67, 127
1, 301082, Note_on_c, 0, 72, 127
1, 301082, Note_on_c, 3, 39, 127
1, 301224, Note_off_c, 3, 39, 127
1, 301236, Note_on_c, 3, 51, 127
1, 301312, Note_off_c, 3, 75, 127
1, 301378, Note_off_c, 3, 51, 127
1, 301388, Note_off_c, 0, 72, 127
1, 301390, Note_on_c, 0, 72, 127
1, 301390, Note_on_c, 7, 67, 127
1, 301390, Note_on_c, 3, 39, 127
1, 301532, Note_off_c, 3, 39, 127
1, 301532, Note_off_c, 7, 67, 127
1, 301532, Note_off_c, 0, 72, 127
1, 301544, Note_on_c, 0, 72, 127
1, 301544, Note_on_c, 8, 68, 127
1, 301544, Note_on_c, 5, 53, 127
1, 301686, Note_off_c, 5, 53, 127
1, 301698, Note_on_c, 3, 51, 127
1, 301840, Note_off_c, 3, 51, 127
1, 301852, Note_on_c, 5, 53, 127
1, 301994, Note_off_c, 5, 53, 127
1, 302006, Note_on_c, 5, 41, 127
1, 302148, Note_off_c, 5, 41, 127
1, 302160, Note_on_c, 5, 53, 127
1, 302236, Note_off_c, 8, 68, 127
1, 302236, Note_off_c, 0, 72, 127
1, 302302, Note_off_c, 5, 53, 127
1, 302314, Note_on_c, 8, 68, 127
1, 302314, Note_on_c, 2, 62, 127
1, 302314, Note_on_c, 5, 41, 127
1, 302456, Note_off_c, 5, 41, 127
1, 302456, Note_off_c, 2, 62, 127
1, 302456, Note_off_c, 8, 68, 127
1, 302468, Note_on_c, 11, 70, 127
1, 302468, Note_on_c, 3, 63, 127
1, 302468, Note_on_c, 7, 43, 127
1, 302610, Note_off_c, 7, 43, 127
1, 302622, Note_on_c, 11, 46, 127
1, 302764, Note_off_c, 11, 46, 127
1, 302774, Note_off_c, 3, 63, 127
1, 302776, Note_on_c, 5, 65, 127
1, 302776, Note_on_c, 8, 44, 127
1, 302918, Note_off_c, 8, 44, 127
1, 302918, Note_off_c, 5, 65, 127
1, 302930, Note_on_c, 3, 63, 127
1, 302930, Note_on_c, 7, 43, 127
1, 303072, Note_off_c, 7, 43, 127
1, 303084, Note_on_c, 8, 44, 127
1, 303160, Note_off_c, 11, 70, 127
1, 303226, Note_off_c, 8, 44, 127
1, 303236, Note_off_c, 3, 63, 127
1, 303238, Note_on_c, 8, 68, 127
1, 303238, Note_on_c, 2, 62, 127
1, 303238, Note_on_c, 5, 41, 127
1, 303380, Note_off_c, 5, 41, 127
1, 303380, Note_off_c, 2, 62, 127
1, 303380, Note_off_c, 8, 68, 127
1, 303392, Note_on_c, 11, 70, 127
1, 303392, Note_on_c, 3, 63, 127
1, 303392, Note_on_c, 7, 43, 127
1, 303534, Note_off_c, 7, 43, 127
1, 303546, Note_on_c, 11, 46, 127
1, 303688, Note_off_c, 11, 46, 127
1, 303698, Note_off_c, 3, 63, 127
1, 303700, Note_on_c, 5, 65, 127
1, 303700, Note_on_c, 8, 44, 127
1, 303842, Note_off_c, 8, 44, 127
1, 303842, Note_off_c, 5, 65, 127
1, 303854, Note_on_c, 3, 63, 127
1, 303854, Note_on_c, 7, 43, 127
1, 303996, Note_off_c, 7, 43, 127
1, 304008, Note_on_c, 8, 44, 127
1, 304084, Note_off_c, 11, 70, 127
1, 304150, Note_off_c, 8, 44, 127
1, 304160, Note_off_c, 3, 63, 127
1, 304162, Note_on_c, 8, 68, 127
1, 304162, Note_on_c, 2, 62, 127
1, 304162, Note_on_c, 5, 41, 127
1, 304304, Note_off_c, 5, 41, 127
1, 304304, Note_off_c, 2, 62, 127
1, 304304, Note_off_c, 8, 68, 127
1, 304316, Note_on_c, 7, 67, 127
1, 304316, Note_on_c, 3, 63, 127
1, 304316, Note_on_c, 3, 39, 127
1, 304458, Note_off_c, 7, 67, 127
1, 304470, Note_on_c, 11, 70, 127
1, 304612, Note_off_c, 11, 70, 127
1, 304622, Note_off_c, 3, 63, 127
1, 304624, Note_on_c, 8, 68, 127
1, 304624, Note_on_c, 5, 65, 127
1, 304766, Note_off_c, 5, 65, 127
1, 304766, Note_off_c, 8, 68, 127
1, 304778, Note_on_c, 7, 67, 127
1, 304778, Note_on_c, 3, 63, 127
1, 304920, Note_off_c, 7, 67, 127
1, 304932, Note_on_c, 8, 68, 127
1, 305008, Note_off_c, 3, 39, 127
1, 305074, Note_off_c, 8, 68, 127
1, 305084, Note_off_c, 3, 63, 127
1, 305086, Note_on_c, 5, 65, 127
1, 305086, Note_on_c, 2, 62, 127
1, 305086, Note_on_c, 11, 46, 127
1, 305228, Note_off_c, 11, 46, 127
1, 305228, Note_off_c, 5, 65, 127
1, 305230, Note_off_c, 2, 62, 127
1, 305240, Note_on_c, 3, 63, 127
1, 305240, Note_on_c, 0, 48, 127
1, 305382, Note_off_c, 0, 48, 127
1, 305394, Note_on_c, 3, 51, 127
1, 305536, Note_off_c, 3, 51, 127
1, 305548, Note_on_c, 2, 50, 127
1, 305690, Note_off_c, 2, 50, 127
1, 305702, Note_on_c, 0, 48, 127
1, 305844, Note_off_c, 0, 48, 127
1, 305856, Note_on_c, 2, 50, 127
1, 305932, Note_off_c, 3, 63, 127
1, 305998, Note_off_c, 2, 50, 127
1, 306010, Note_on_c, 3, 75, 127
1, 306010, Note_on_c, 7, 67, 127
1, 306010, Note_on_c, 11, 46, 127
1, 306152, Note_off_c, 11, 46, 127
1, 306152, Note_off_c, 7, 67, 127
1, 306152, Note_off_c, 3, 75, 127
1, 306164, Note_on_c, 5, 77, 127
1, 306164, Note_on_c, 8, 68, 127
1, 306164, Note_on_c, 8, 44, 127
1, 306306, Note_off_c, 8, 68, 127
1, 306318, Note_on_c, 0, 72, 127
1, 306460, Note_off_c, 0, 72, 127
1, 306470, Note_off_c, 5, 77, 127
1, 306472, Note_on_c, 7, 79, 127
1, 306472, Note_on_c, 11, 70, 127
1, 306614, Note_off_c, 11, 70, 127
1, 306614, Note_off_c, 7, 79, 127
1, 306626, Note_on_c, 5, 77, 127
1, 306626, Note_on_c, 8, 68, 127
1, 306768, Note_off_c, 8, 68, 127
1, 306780, Note_on_c, 11, 70, 127
1, 306856, Note_off_c, 8, 44, 127
1, 306922, Note_off_c, 11, 70, 127
1, 306932, Note_off_c, 5, 77, 127
1, 306934, Note_on_c, 3, 75, 127
1, 306934, Note_on_c, 7, 67, 127
1, 306934, Note_on_c, 8, 56, 127
1, 307076, Note_off_c, 8, 56, 127
1, 307076, Note_off_c, 7, 67, 127
1, 307076, Note_off_c, 3, 75, 127
1, 307088, Note_on_c, 2, 74, 127
1, 307088, Note_on_c, 5, 65, 127
1, 307088, Note_on_c, 11, 58, 127
1, 307230, Note_off_c, 11, 58, 127
1, 307242, Note_on_c, 2, 62, 127
1, 307384, Note_off_c, 2, 62, 127
1, 307396, Note_on_c, 0, 60, 127
1, 307538, Note_off_c, 0, 60, 127
1, 307550, Note_on_c, 11, 58, 127
1, 307692, Note_off_c, 11, 58, 127
1, 307704, Note_on_c, 0, 60, 127
1, 307780, Note_off_c, 5, 65, 127
1, 307780, Note_off_c, 2, 74, 127
1, 307846, Note_off_c, 0, 60, 127
1, 307858, Note_on_c, 2, 74, 127
1, 307858, Note_on_c, 5, 65, 127
1, 307858, Note_on_c, 8, 56, 127
1, 308000, Note_off_c, 8, 56, 127
1, 308000, Note_off_c, 5, 65, 127
1, 308000, Note_off_c, 2, 74, 127
1, 308012, Note_on_c, 3, 75, 127
1, 308012, Note_on_c, 3, 63, 127
1, 308012, Note_on_c, 7, 55, 127
1, 308154, Note_off_c, 3, 75, 127
1, 308166, Note_on_c, 11, 70, 127
1, 308308, Note_off_c, 11, 70, 127
1, 308318, Note_off_c, 7, 55, 127
1, 308318, Note_off_c, 3, 63, 127
1, 308320, Note_on_c, 8, 68, 127
1, 308320, Note_on_c, 2, 62, 127
1, 308320, Note_on_c, 11, 58, 127
1, 308462, Note_off_c, 11, 58, 127
1, 308462, Note_off_c, 2, 62, 127
1, 308462, Note_off_c, 8, 68, 127
1, 308474, Note_on_c, 7, 67, 127
1, 308474, Note_on_c, 3, 63, 127
1, 308474, Note_on_c, 0, 60, 127
1, 308616, Note_off_c, 3, 63, 127
1, 308616, Note_off_c, 7, 67, 127
1, 308628, Note_on_c, 8, 68, 127
1, 308628, Note_on_c, 5, 65, 127
1, 308770, Note_off_c, 5, 65, 127
1, 308770, Note_off_c, 8, 68, 127
1, 308780, Note_off_c, 0, 60, 127
1, 308782, Note_on_c, 11, 70, 127
1, 308782, Note_on_c, 7, 67, 127
1, 308782, Note_on_c, 11, 58, 127
1, 308924, Note_off_c, 11, 58, 127
1, 308924, Note_off_c, 7, 67, 127
1, 308924, Note_off_c, 11, 70, 127
1, 308936, Note_on_c, 0, 72, 127
1, 308936, Note_on_c, 8, 68, 127
1, 308936, Note_on_c, 8, 56, 127
1, 309078, Note_off_c, 8, 68, 127
1, 309078, Note_off_c, 0, 72, 127
1, 309090, Note_on_c, 8, 68, 127
1, 309090, Note_on_c, 5, 65, 127
1, 309232, Note_off_c, 5, 65, 127
1, 309232, Note_off_c, 8, 68, 127
1, 309242, Note_off_c, 8, 56, 127
1, 309244, Note_on_c, 7, 67, 127
1, 309244, Note_on_c, 3, 63, 127
1, 309244, Note_on_c, 8, 44, 127
1, 309386, Note_off_c, 8, 44, 127
1, 309386, Note_off_c, 3, 63, 127
1, 309386, Note_off_c, 7, 67, 127
1, 309398, Note_on_c, 5, 65, 127
1, 309398, Note_on_c, 2, 62, 127
1, 309398, Note_on_c, 11, 46, 127
1, 309540, Note_off_c, 2, 62, 127
1, 309540, Note_off_c, 5, 65, 127
1, 309552, Note_on_c, 7, 67, 127
1, 309552, Note_on_c, 3, 63, 127
1, 309694, Note_off_c, 3, 63, 127
1, 309694, Note_off_c, 7, 67, 127
1, 309704, Note_off_c, 11, 46, 127
1, 309706, Note_on_c, 8, 68, 127
1, 309706, Note_on_c, 5, 65, 127
1, 309706, Note_on_c, 8, 44, 127
1, 309848, Note_off_c, 8, 44, 127
1, 309848, Note_off_c, 5, 65, 127
1, 309848, Note_off_c, 8, 68, 127
1, 309860, Note_on_c, 11, 70, 127
1, 309860, Note_on_c, 7, 67, 127
1, 309860, Note_on_c, 7, 43, 127
1, 310002, Note_off_c, 7, 67, 127
1, 310002, Note_off_c, 11, 70, 127
1, 310014, Note_on_c, 7, 67, 127
1, 310014, Note_on_c, 3, 63, 127
1, 310156, Note_off_c, 3, 63, 127
1, 310156, Note_off_c, 7, 67, 127
1, 310166, Note_off_c, 7, 43, 127
1, 310168, Note_on_c, 5, 65, 127
1, 310168, Note_on_c, 2, 62, 127
1, 310168, Note_on_c, 7, 55, 127
1, 310310, Note_off_c, 7, 55, 127
1, 310310, Note_off_c, 2, 62, 127
1, 310310, Note_off_c, 5, 65, 127
1, 310322, Note_on_c, 3, 63, 127
1, 310322, Note_on_c, 0, 60, 127
1, 310322, Note_on_c, 8, 56, 127
1, 310464, Note_off_c, 3, 63, 127
1, 310476, Note_on_c, 5, 65, 127
1, 310618, Note_off_c, 5, 65, 127
1, 310628, Note_off_c, 8, 56, 127
1, 310630, Note_on_c, 7, 67, 127
1, 310630, Note_on_c, 7, 55, 127
1, 310772, Note_off_c, 7, 55, 127
1, 310772, Note_off_c, 7, 67, 127
1, 310784, Note_on_c, 8, 68, 127
1, 310784, Note_on_c, 5, 53, 127
1, 310935, Note_off_c, 0, 60, 127
1, 310937, Note_on_c, 2, 62, 127
1, 311079, Note_off_c, 2, 62, 127
1, 311089, Note_off_c, 5, 53, 127
1, 311089, Note_off_c, 8, 68, 127
1, 311091, Note_on_c, 7, 67, 127
1, 311091, Note_on_c, 3, 63, 127
1, 311091, Note_on_c, 3, 51, 127
1, 311233, Note_off_c, 3, 51, 127
1, 311233, Note_off_c, 7, 67, 127
1, 311245, Note_on_c, 0, 72, 127
1, 311245, Note_on_c, 8, 56, 127
1, 311387, Note_off_c, 0, 72, 127
1, 311397, Note_off_c, 3, 63, 127
1, 311399, Note_on_c, 8, 68, 127
1, 311399, Note_on_c, 5, 65, 127
1, 311541, Note_off_c, 5, 65, 127
1, 311541, Note_off_c, 8, 68, 127
1, 311551, Note_off_c, 8, 56, 127
1, 311553, Note_on_c, 7, 67, 127
1, 311553, Note_on_c, 3, 63, 127
1, 311553, Note_on_c, 8, 44, 127
1, 311695, Note_off_c, 8, 44, 127
1, 311695, Note_off_c, 3, 63, 127
1, 311695, Note_off_c, 7, 67, 127
1, 311707, Note_on_c, 5, 65, 127
1, 311707, Note_on_c, 2, 62, 127
1, 311707, Note_on_c, 11, 46, 127
1, 311849, Note_off_c, 5, 65, 127
1, 311861, Note_on_c, 11, 70, 127
1, 312003, Note_off_c, 11, 70, 127
1, 312013, Note_off_c, 2, 62, 127
1, 312015, Note_on_c, 8, 68, 127
1, 312015, Note_on_c, 2, 62, 127
1, 312157, Note_off_c, 2, 62, 127
1, 312157, Note_off_c, 8, 68, 127
1, 312169, Note_on_c, 7, 67, 127
1, 312169, Note_on_c, 3, 63, 127
1, 312311, Note_off_c, 7, 67, 127
1, 312323, Note_on_c, 8, 68, 127
1, 312399, Note_off_c, 11, 46, 127
1, 312465, Note_off_c, 8, 68, 127
1, 312475, Note_off_c, 3, 63, 127
1, 312477, Note_on_c, 7, 67, 127
1, 312477, Note_on_c, 3, 63, 127
1, 312477, Note_on_c, 3, 51, 127
1, 312619, Note_off_c, 3, 51, 127
1, 312619, Note_off_c, 3, 63, 127
1, 312619, Note_off_c, 7, 67, 127
1, 312631, Note_on_c, 5, 65, 127
1, 312631, Note_on_c, 2, 62, 127
1, 312631, Note_on_c, 11, 58, 127
1, 312773, Note_off_c, 2, 62, 127
1, 312785, Note_on_c, 3, 63, 127
1, 312927, Note_off_c, 3, 63, 127
1, 312937, Note_off_c, 11, 58, 127
1, 312939, Note_on_c, 2, 62, 127
1, 312939, Note_on_c, 11, 58, 127
1, 313081, Note_off_c, 11, 58, 127
1, 313081, Note_off_c, 2, 62, 127
1, 313088, Note_off_c, 5, 65, 127
1, 313093, Note_on_c, 1, 61, 127
1, 313093, Note_on_c, 5, 53, 127
1, 313235, Note_off_c, 1, 61, 127
1, 313247, Note_on_c, 3, 63, 127
1, 313389, Note_off_c, 3, 63, 127
1, 313399, Note_off_c, 5, 53, 127
1, 313401, Note_on_c, 8, 68, 127
1, 313401, Note_on_c, 1, 61, 127
1, 313401, Note_on_c, 5, 53, 127
1, 313543, Note_off_c, 5, 53, 127
1, 313543, Note_off_c, 1, 61, 127
1, 313543, Note_off_c, 8, 68, 127
1, 313555, Note_on_c, 3, 63, 127
1, 313555, Note_on_c, 0, 60, 127
1, 313555, Note_on_c, 8, 56, 127
1, 313697, Note_off_c, 0, 60, 127
1, 313709, Note_on_c, 1, 61, 127
1, 313851, Note_off_c, 1, 61, 127
1, 313861, Note_off_c, 8, 56, 127
1, 313863, Note_on_c, 0, 60, 127
1, 313863, Note_on_c, 8, 56, 127
1, 314005, Note_off_c, 8, 56, 127
1, 314005, Note_off_c, 0, 60, 127
1, 314012, Note_off_c, 3, 63, 127
1, 314017, Note_on_c, 12, 59, 127
1, 314017, Note_on_c, 3, 51, 127
1, 314159, Note_off_c, 12, 59, 127
1, 314171, Note_on_c, 1, 61, 127
1, 314313, Note_off_c, 1, 61, 127
1, 314323, Note_off_c, 3, 51, 127
1, 314325, Note_on_c, 3, 63, 127
1, 314325, Note_on_c, 12, 59, 127
1, 314325, Note_on_c, 3, 51, 127
1, 314467, Note_off_c, 3, 51, 127
1, 314467, Note_off_c, 12, 59, 127
1, 314467, Note_off_c, 3, 63, 127
1, 314479, Note_on_c, 3, 63, 127
1, 314479, Note_on_c, 11, 58, 127
1, 314479, Note_on_c, 7, 55, 127
1, 314621, Note_off_c, 11, 58, 127
1, 314633, Note_on_c, 0, 60, 127
1, 314775, Note_off_c, 0, 60, 127
1, 314785, Note_off_c, 7, 55, 127
1, 314787, Note_on_c, 11, 58, 127
1, 314787, Note_on_c, 7, 55, 127
1, 314929, Note_off_c, 7, 55, 127
1, 314929, Note_off_c, 11, 58, 127
1, 314936, Note_off_c, 3, 63, 127
1, 314941, Note_on_c, 11, 70, 127
1, 314941, Note_on_c, 2, 50, 127
1, 315083, Note_off_c, 11, 70, 127
1, 315095, Note_on_c, 11, 58, 127
1, 315237, Note_off_c, 11, 58, 127
1, 315247, Note_off_c, 2, 50, 127
1, 315249, Note_on_c, 5, 65, 127
1, 315249, Note_on_c, 11, 70, 127
1, 315249, Note_on_c, 2, 50, 127
1, 315391, Note_off_c, 2, 50, 127
1, 315391, Note_off_c, 11, 70, 127
1, 315391, Note_off_c, 5, 65, 127
1, 315403, Note_on_c, 5, 65, 127
1, 315403, Note_on_c, 8, 56, 127
1, 315403, Note_on_c, 2, 50, 127
1, 315545, Note_off_c, 8, 56, 127
1, 315557, Note_on_c, 11, 58, 127
1, 315699, Note_off_c, 11, 58, 127
1, 315711, Note_on_c, 8, 56, 127
1, 315853, Note_off_c, 8, 56, 127
1, 315860, Note_off_c, 5, 65, 127
1, 315865, Note_on_c, 8, 68, 127
1, 316007, Note_off_c, 8, 68, 127
1, 316019, Note_on_c, 8, 56, 127
1, 316095, Note_off_c, 2, 50, 127
1, 316161, Note_off_c, 8, 56, 127
1, 316173, Note_on_c, 5, 77, 127
1, 316173, Note_on_c, 8, 68, 127
1, 316173, Note_on_c, 0, 60, 127
1, 316315, Note_off_c, 0, 60, 127
1, 316315, Note_off_c, 8, 68, 127
1, 316315, Note_off_c, 5, 77, 127
1, 316327, Note_on_c, 3, 75, 127
1, 316327, Note_on_c, 7, 67, 127
1, 316327, Note_on_c, 11, 58, 127
1, 316469, Note_off_c, 7, 67, 127
1, 316481, Note_on_c, 3, 63, 127
1, 316623, Note_off_c, 3, 63, 127
1, 316633, Note_off_c, 11, 58, 127
1, 316635, Note_on_c, 5, 65, 127
1, 316635, Note_on_c, 8, 56, 127
1, 316777, Note_off_c, 8, 56, 127
1, 316777, Note_off_c, 5, 65, 127
1, 316789, Note_on_c, 7, 67, 127
1, 316789, Note_on_c, 11, 58, 127
1, 316931, Note_off_c, 7, 67, 127
1, 316943, Note_on_c, 5, 65, 127
1, 317019, Note_off_c, 3, 75, 127
1, 317085, Note_off_c, 5, 65, 127
1, 317095, Note_off_c, 11, 58, 127
1, 317097, Note_on_c, 3, 75, 127
1, 317097, Note_on_c, 8, 68, 127
1, 317097, Note_on_c, 0, 60, 127
1, 317239, Note_off_c, 0, 60, 127
1, 317239, Note_off_c, 8, 68, 127
1, 317239, Note_off_c, 3, 75, 127
1, 317251, Note_on_c, 3, 75, 127
1, 317251, Note_on_c, 7, 67, 127
1, 317251, Note_on_c, 11, 58, 127
1, 317393, Note_off_c, 7, 67, 127
1, 317405, Note_on_c, 3, 63, 127
1, 317547, Note_off_c, 3, 63, 127
1, 317557, Note_off_c, 11, 58, 127
1, 317559, Note_on_c, 5, 65, 127
1, 317559, Note_on_c, 8, 56, 127
1, 317701, Note_off_c, 8, 56, 127
1, 317701, Note_off_c, 5, 65, 127
1, 317713, Note_on_c, 7, 67, 127
1, 317713, Note_on_c, 11, 58, 127
1, 317855, Note_off_c, 7, 67, 127
1, 317867, Note_on_c, 5, 65, 127
1, 317943, Note_off_c, 3, 75, 127
1, 318009, Note_off_c, 5, 65, 127
1, 318019, Note_off_c, 11, 58, 127
1, 318021, Note_on_c, 3, 75, 127
1, 318021, Note_on_c, 8, 68, 127
1, 318021, Note_on_c, 0, 60, 127
1, 318163, Note_off_c, 0, 60, 127
1, 318163, Note_off_c, 8, 68, 127
1, 318163, Note_off_c, 3, 75, 127
1, 318175, Note_on_c, 3, 75, 127
1, 318175, Note_on_c, 7, 67, 127
1, 318175, Note_on_c, 11, 58, 127
1, 318317, Note_off_c, 7, 67, 127
1, 318329, Note_on_c, 3, 63, 127
1, 318471, Note_off_c, 3, 63, 127
1, 318481, Note_off_c, 11, 58, 127
1, 318483, Note_on_c, 5, 65, 127
1, 318483, Note_on_c, 8, 56, 127
1, 318625, Note_off_c, 8, 56, 127
1, 318625, Note_off_c, 5, 65, 127
1, 318637, Note_on_c, 7, 67, 127
1, 318637, Note_on_c, 11, 58, 127
1, 318779, Note_off_c, 7, 67, 127
1, 318791, Note_on_c, 5, 65, 127
1, 318867, Note_off_c, 3, 75, 127
1, 318933, Note_off_c, 5, 65, 127
1, 318943, Note_off_c, 11, 58, 127
1, 318945, Note_on_c, 3, 75, 127
1, 318945, Note_on_c, 8, 68, 127
1, 318945, Note_on_c, 0, 60, 127
1, 319087, Note_off_c, 0, 60, 127
1, 319087, Note_off_c, 8, 68, 127
1, 319087, Note_off_c, 3, 75, 127
1, 319099, Note_on_c, 3, 75, 127
1, 319099, Note_on_c, 7, 67, 127
1, 319099, Note_on_c, 11, 58, 127
1, 319241, Note_off_c, 7, 67, 127
1, 319241, Note_off_c, 3, 75, 127
1, 319253, Note_on_c, 5, 77, 127
1, 319253, Note_on_c, 8, 68, 127
1, 319395, Note_off_c, 8, 68, 127
1, 319395, Note_off_c, 5, 77, 127
1, 319405, Note_off_c, 11, 58, 127
1, 319407, Note_on_c, 7, 79, 127
1, 319407, Note_on_c, 11, 70, 127
1, 319407, Note_on_c, 8, 56, 127
1, 319549, Note_off_c, 8, 56, 127
1, 319549, Note_off_c, 11, 70, 127
1, 319549, Note_off_c, 7, 79, 127
1, 319561, Note_on_c, 2, 74, 127
1, 319561, Note_on_c, 5, 65, 127
1, 319561, Note_on_c, 11, 58, 127
1, 319703, Note_off_c, 11, 58, 127
1, 319715, Note_on_c, 0, 60, 127
1, 319857, Note_off_c, 0, 60, 127
1, 319867, Note_off_c, 5, 65, 127
1, 319867, Note_off_c, 2, 74, 127
1, 319869, Note_on_c, 2, 74, 127
1, 319869, Note_on_c, 5, 65, 127
1, 319869, Note_on_c, 8, 56, 127
1, 320011, Note_off_c, 8, 56, 127
1, 320011, Note_off_c, 5, 65, 127
1, 320011, Note_off_c, 2, 74, 127
1, 320023, Note_on_c, 3, 75, 127
1, 320023, Note_on_c, 7, 67, 127
1, 320023, Note_on_c, 7, 55, 127
1, 320165, Note_off_c, 7, 55, 127
1, 320177, Note_on_c, 8, 56, 127
1, 320319, Note_off_c, 8, 56, 127
1, 320329, Note_off_c, 7, 67, 127
1, 320329, Note_off_c, 3, 75, 127
1, 320331, Note_on_c, 3, 75, 127
1, 320331, Note_on_c, 7, 67, 127
1, 320331, Note_on_c, 5, 53, 127
1, 320473, Note_off_c, 5, 53, 127
1, 320473, Note_off_c, 7, 67, 127
1, 320473, Note_off_c, 3, 75, 127
1, 320485, Note_on_c, 3, 75, 127
1, 320485, Note_on_c, 7, 67, 127
1, 320485, Note_on_c, 3, 51, 127
1, 320627, Note_off_c, 3, 51, 127
1, 320639, Note_on_c, 5, 53, 127
1, 320781, Note_off_c, 5, 53, 127
1, 320791, Note_off_c, 7, 67, 127
1, 320791, Note_off_c, 3, 75, 127
1, 320793, Note_on_c, 3, 75, 127
1, 320793, Note_on_c, 7, 67, 127
1, 320793, Note_on_c, 1, 49, 127
1, 320935, Note_off_c, 1, 49, 127
1, 320935, Note_off_c, 7, 67, 127
1, 320935, Note_off_c, 3, 75, 127
1, 320947, Note_on_c, 4, 76, 127
1, 320947, Note_on_c, 7, 67, 127
1, 320947, Note_on_c, 0, 48, 127
1, 321089, Note_off_c, 0, 48, 127
1, 321101, Note_on_c, 0, 60, 127
1, 321243, Note_off_c, 0, 60, 127
1, 321253, Note_off_c, 7, 67, 127
1, 321253, Note_off_c, 4, 76, 127
1, 321255, Note_on_c, 4, 76, 127
1, 321255, Note_on_c, 7, 67, 127
1, 321255, Note_on_c, 11, 58, 127
1, 321397, Note_off_c, 11, 58, 127
1, 321397, Note_off_c, 7, 67, 127
1, 321397, Note_off_c, 4, 76, 127
1, 321409, Note_on_c, 4, 76, 127
1, 321409, Note_on_c, 7, 67, 127
1, 321409, Note_on_c, 8, 56, 127
1, 321551, Note_off_c, 8, 56, 127
1, 321563, Note_on_c, 11, 58, 127
1, 321705, Note_off_c, 11, 58, 127
1, 321715, Note_off_c, 7, 67, 127
1, 321715, Note_off_c, 4, 76, 127
1, 321717, Note_on_c, 4, 76, 127
1, 321717, Note_on_c, 7, 67, 127
1, 321717, Note_on_c, 7, 55, 127
1, 321859, Note_off_c, 7, 55, 127
1, 321859, Note_off_c, 7, 67, 127
1, 321859, Note_off_c, 4, 76, 127
1, 321871, Note_on_c, 5, 77, 127
1, 321871, Note_on_c, 8, 68, 127
1, 321871, Note_on_c, 5, 53, 127
1, 322013, Note_off_c, 5, 53, 127
1, 322025, Note_on_c, 7, 55, 127
1, 322167, Note_off_c, 7, 55, 127
1, 322177, Note_off_c, 8, 68, 127
1, 322177, Note_off_c, 5, 77, 127
1, 322179, Note_on_c, 5, 77, 127
1, 322179, Note_on_c, 8, 68, 127
1, 322179, Note_on_c, 3, 51, 127
1, 322321, Note_off_c, 3, 51, 127
1, 322321, Note_off_c, 8, 68, 127
1, 322321, Note_off_c, 5, 77, 127
1, 322333, Note_on_c, 5, 77, 127
1, 322333, Note_on_c, 8, 68, 127
1, 322333, Note_on_c, 1, 49, 127
1, 322475, Note_off_c, 1, 49, 127
1, 322487, Note_on_c, 3, 51, 127
1, 322629, Note_off_c, 3, 51, 127
1, 322639, Note_off_c, 8, 68, 127
1, 322639, Note_off_c, 5, 77, 127
1, 322641, Note_on_c, 5, 77, 127
1, 322641, Note_on_c, 8, 68, 127
1, 322641, Note_on_c, 0, 48, 127
1, 322783, Note_off_c, 0, 48, 127
1, 322783, Note_off_c, 8, 68, 127
1, 322783, Note_off_c, 5, 77, 127
1, 322795, Note_on_c, 6, 78, 127
1, 322795, Note_on_c, 11, 70, 127
1, 322795, Note_on_c, 11, 46, 127
1, 322937, Note_off_c, 11, 46, 127
1, 322949, Note_on_c, 1, 61, 127
1, 323091, Note_off_c, 1, 61, 127
1, 323101, Note_off_c, 11, 70, 127
1, 323101, Note_off_c, 6, 78, 127
1, 323103, Note_on_c, 6, 78, 127
1, 323103, Note_on_c, 11, 70, 127
1, 323103, Note_on_c, 0, 60, 127
1, 323245, Note_off_c, 0, 60, 127
1, 323245, Note_off_c, 11, 70, 127
1, 323245, Note_off_c, 6, 78, 127
1, 323257, Note_on_c, 6, 78, 127
1, 323257, Note_on_c, 11, 70, 127
1, 323257, Note_on_c, 11, 58, 127
1, 323399, Note_off_c, 11, 70, 127
1, 323411, Note_on_c, 0, 72, 127
1, 323553, Note_off_c, 0, 72, 127
1, 323563, Note_off_c, 11, 58, 127
1, 323563, Note_off_c, 6, 78, 127
1, 323565, Note_on_c, 5, 77, 127
1, 323565, Note_on_c, 8, 68, 127
1, 323565, Note_on_c, 11, 46, 127
1, 323707, Note_off_c, 11, 46, 127
1, 323707, Note_off_c, 8, 68, 127
1, 323707, Note_off_c, 5, 77, 127
1, 323719, Note_on_c, 4, 76, 127
1, 323719, Note_on_c, 7, 67, 127
1, 323719, Note_on_c, 0, 48, 127
1, 323861, Note_off_c, 7, 67, 127
1, 323861, Note_off_c, 4, 76, 127
1, 323873, Note_on_c, 2, 74, 127
1, 323873, Note_on_c, 5, 65, 127
1, 324015, Note_off_c, 5, 65, 127
1, 324015, Note_off_c, 2, 74, 127
1, 324027, Note_on_c, 0, 72, 127
1, 324027, Note_on_c, 4, 64, 127
1, 324027, Note_on_c, 0, 60, 127
1, 324169, Note_off_c, 0, 60, 127
1, 324169, Note_off_c, 4, 64, 127
1, 324176, Note_off_c, 0, 48, 127
1, 324181, Note_on_c, 5, 65, 127
1, 324181, Note_on_c, 2, 62, 127
1, 324323, Note_off_c, 5, 65, 127
1, 324328, Note_off_c, 0, 72, 127
1, 324335, Note_on_c, 8, 68, 127
1, 324477, Note_off_c, 8, 68, 127
1, 324487, Note_off_c, 2, 62, 127
1, 324489, Note_on_c, 0, 72, 127
1, 324489, Note_on_c, 7, 67, 127
1, 324489, Note_on_c, 0, 48, 127
1, 324631, Note_off_c, 0, 48, 127
1, 324631, Note_off_c, 7, 67, 127
1, 324631, Note_off_c, 0, 72, 127
1, 324643, Note_on_c, 1, 73, 127
1, 324643, Note_on_c, 5, 65, 127
1, 324643, Note_on_c, 8, 68, 127
1, 324643, Note_on_c, 5, 41, 127
1, 324785, Note_off_c, 1, 73, 127
1, 324797, Note_on_c, 0, 72, 127
1, 324939, Note_off_c, 0, 72, 127
1, 324949, Note_off_c, 5, 41, 127
1, 324949, Note_off_c, 8, 68, 127
1, 324949, Note_off_c, 5, 65, 127
1, 324951, Note_on_c, 1, 73, 127
1, 324951, Note_on_c, 5, 53, 127
1, 324951, Note_on_c, 8, 68, 127
1, 324951, Note_on_c, 5, 41, 127
1, 325093, Note_off_c, 5, 41, 127
1, 325093, Note_off_c, 8, 68, 127
1, 325093, Note_off_c, 5, 53, 127
1, 325093, Note_off_c, 1, 73, 127
1, 325105, Note_on_c, 2, 74, 127
1, 325105, Note_on_c, 5, 53, 127
1, 325105, Note_on_c, 11, 70, 127
1, 325105, Note_on_c, 11, 46, 127
1, 325247, Note_off_c, 2, 74, 127
1, 325259, Note_on_c, 0, 72, 127
1, 325401, Note_off_c, 0, 72, 127
1, 325411, Note_off_c, 11, 46, 127
1, 325411, Note_off_c, 11, 70, 127
1, 325411, Note_off_c, 5, 53, 127
1, 325413, Note_on_c, 2, 74, 127
1, 325413, Note_on_c, 2, 62, 127
1, 325413, Note_on_c, 11, 70, 127
1, 325413, Note_on_c, 11, 46, 127
1, 325555, Note_off_c, 11, 46, 127
1, 325555, Note_off_c, 11, 70, 127
1, 325555, Note_off_c, 2, 62, 127
1, 325555, Note_off_c, 2, 74, 127
1, 325567, Note_on_c, 3, 75, 127
1, 325567, Note_on_c, 7, 67, 127
1, 325567, Note_on_c, 11, 70, 127
1, 325567, Note_on_c, 7, 43, 127
1, 325709, Note_off_c, 3, 75, 127
1, 325721, Note_on_c, 2, 74, 127
1, 325863, Note_off_c, 2, 74, 127
1, 325873, Note_off_c, 7, 43, 127
1, 325873, Note_off_c, 11, 70, 127
1, 325873, Note_off_c, 7, 67, 127
1, 325875, Note_on_c, 3, 75, 127
1, 325875, Note_on_c, 7, 55, 127
1, 325875, Note_on_c, 11, 70, 127
1, 325875, Note_on_c, 7, 43, 127
1, 326017, Note_off_c, 7, 43, 127
1, 326017, Note_off_c, 11, 70, 127
1, 326017, Note_off_c, 7, 55, 127
1, 326017, Note_off_c, 3, 75, 127
1, 326029, Note_on_c, 4, 76, 127
1, 326029, Note_on_c, 7, 55, 127
1, 326029, Note_on_c, 0, 72, 127
1, 326029, Note_on_c, 0, 48, 127
1, 326171, Note_off_c, 4, 76, 127
1, 326183, Note_on_c, 2, 74, 127
1, 326325, Note_off_c, 2, 74, 127
1, 326335, Note_off_c, 0, 48, 127
1, 326335, Note_off_c, 0, 72, 127
1, 326335, Note_off_c, 7, 55, 127
1, 326337, Note_on_c, 4, 76, 127
1, 326337, Note_on_c, 7, 67, 127
1, 326337, Note_on_c, 0, 72, 127
1, 326337, Note_on_c, 0, 48, 127
1, 326479, Note_off_c, 0, 48, 127
1, 326479, Note_off_c, 0, 72, 127
1, 326479, Note_off_c, 7, 67, 127
1, 326479, Note_off_c, 4, 76, 127
1, 326491, Note_on_c, 5, 77, 127
1, 326491, Note_on_c, 8, 68, 127
1, 326491, Note_on_c, 0, 72, 127
1, 326491, Note_on_c, 8, 44, 127
1, 326633, Note_off_c, 5, 77, 127
1, 326645, Note_on_c, 4, 76, 127
1, 326787, Note_off_c, 4, 76, 127
1, 326797, Note_off_c, 8, 44, 127
1, 326797, Note_off_c, 0, 72, 127
1, 326797, Note_off_c, 8, 68, 127
1, 326799, Note_on_c, 5, 77, 127
1, 326799, Note_on_c, 8, 56, 127
1, 326799, Note_on_c, 0, 72, 127
1, 326799, Note_on_c, 8, 44, 127
1, 326941, Note_off_c, 8, 44, 127
1, 326941, Note_off_c, 0, 72, 127
1, 326941, Note_off_c, 8, 56, 127
1, 326941, Note_off_c, 5, 77, 127
1, 326953, Note_on_c, 1, 73, 127
1, 326953, Note_on_c, 11, 58, 127
1, 326953, Note_on_c, 5, 65, 127
1, 326953, Note_on_c, 1, 49, 127
1, 327095, Note_off_c, 1, 73, 127
1, 327107, Note_on_c, 5, 77, 127
1, 327249, Note_off_c, 5, 77, 127
1, 327259, Note_off_c, 1, 49, 127
1, 327259, Note_off_c, 5, 65, 127
1, 327259, Note_off_c, 11, 58, 127
1, 327261, Note_on_c, 1, 73, 127
1, 327261, Note_on_c, 11, 58, 127
1, 327261, Note_on_c, 5, 65, 127
1, 327261, Note_on_c, 1, 49, 127
1, 327403, Note_off_c, 1, 49, 127
1, 327403, Note_off_c, 5, 65, 127
1, 327403, Note_off_c, 11, 58, 127
1, 327403, Note_off_c, 1, 73, 127
1, 327415, Note_on_c, 7, 79, 127
1, 327415, Note_on_c, 11, 58, 127
1, 327415, Note_on_c, 4, 76, 127
1, 327415, Note_on_c, 1, 49, 127
1, 327557, Note_off_c, 7, 79, 127
1, 327569, Note_on_c, 5, 77, 127
1, 327711, Note_off_c, 5, 77, 127
1, 327723, Note_on_c, 7, 79, 127
1, 327865, Note_off_c, 7, 79, 127
1, 327877, Note_on_c, 7, 67, 127
1, 328019, Note_off_c, 7, 67, 127
1, 328031, Note_on_c, 7, 79, 127
1, 328107, Note_off_c, 1, 49, 127
1, 328107, Note_off_c, 11, 58, 127
1, 328173, Note_off_c, 7, 79, 127
1, 328183, Note_off_c, 4, 76, 127
1, 328185, Note_on_c, 7, 67, 127
1, 328185, Note_on_c, 0, 60, 127
1, 328185, Note_on_c, 4, 40, 127
1, 328327, Note_off_c, 4, 40, 127
1, 328327, Note_off_c, 0, 60, 127
1, 328327, Note_off_c, 7, 67, 127
1, 328339, Note_on_c, 8, 68, 127
1, 328339, Note_on_c, 0, 60, 127
1, 328339, Note_on_c, 5, 65, 127
1, 328339, Note_on_c, 5, 41, 127
1, 328481, Note_off_c, 8, 68, 127
1, 328493, Note_on_c, 0, 72, 127
1, 328567, Note_off_c, 5, 65, 127
1, 328567, Note_off_c, 0, 60, 127
1, 328634, Note_off_c, 0, 72, 127
1, 328644, Note_off_c, 5, 41, 127
1, 328646, Note_on_c, 11, 70, 127
1, 328646, Note_on_c, 7, 43, 127
1, 328788, Note_off_c, 7, 43, 127
1, 328788, Note_off_c, 11, 70, 127
1, 328800, Note_on_c, 8, 68, 127
1, 328800, Note_on_c, 5, 41, 127
1, 328942, Note_off_c, 8, 68, 127
1, 328954, Note_on_c, 11, 70, 127
1, 329096, Note_off_c, 11, 70, 127
1, 329106, Note_off_c, 5, 41, 127
1, 329108, Note_on_c, 7, 67, 127
1, 329108, Note_on_c, 0, 60, 127
1, 329108, Note_on_c, 4, 40, 127
1, 329250, Note_off_c, 4, 40, 127
1, 329250, Note_off_c, 0, 60, 127
1, 329250, Note_off_c, 7, 67, 127
1, 329262, Note_on_c, 8, 68, 127
1, 329262, Note_on_c, 5, 53, 127
1, 329262, Note_on_c, 0, 60, 127
1, 329262, Note_on_c, 5, 41, 127
1, 329404, Note_off_c, 8, 68, 127
1, 329416, Note_on_c, 0, 72, 127
1, 329490, Note_off_c, 0, 60, 127
1, 329490, Note_off_c, 5, 53, 127
1, 329557, Note_off_c, 0, 72, 127
1, 329567, Note_off_c, 5, 41, 127
1, 329569, Note_on_c, 11, 70, 127
1, 329569, Note_on_c, 7, 43, 127
1, 329711, Note_off_c, 7, 43, 127
1, 329711, Note_off_c, 11, 70, 127
1, 329723, Note_on_c, 8, 68, 127
1, 329723, Note_on_c, 5, 41, 127
1, 329865, Note_off_c, 8, 68, 127
1, 329877, Note_on_c, 11, 70, 127
1, 330019, Note_off_c, 11, 70, 127
1, 330029, Note_off_c, 5, 41, 127
1, 330031, Note_on_c, 7, 67, 127
1, 330031, Note_on_c, 0, 60, 127
1, 330031, Note_on_c, 4, 40, 127
1, 330173, Note_off_c, 4, 40, 127
1, 330173, Note_off_c, 0, 60, 127
1, 330173, Note_off_c, 7, 67, 127
1, 330185, Note_on_c, 5, 65, 127
1, 330185, Note_on_c, 0, 60, 127
1, 330185, Note_on_c, 8, 44, 127
1, 330327, Note_off_c, 8, 44, 127
1, 330339, Note_on_c, 0, 48, 127
1, 330481, Note_off_c, 0, 48, 127
1, 330491, Note_off_c, 0, 60, 127
1, 330491, Note_off_c, 5, 65, 127
1, 330493, Note_on_c, 7, 67, 127
1, 330493, Note_on_c, 7, 55, 127
1, 330493, Note_on_c, 1, 61, 127
1, 330493, Note_on_c, 11, 46, 127
1, 330635, Note_off_c, 11, 46, 127
1, 330635, Note_off_c, 1, 61, 127
1, 330635, Note_off_c, 7, 55, 127
1, 330635, Note_off_c, 7, 67, 127
1, 330647, Note_on_c, 5, 65, 127
1, 330647, Note_on_c, 8, 56, 127
1, 330647, Note_on_c, 0, 60, 127
1, 330647, Note_on_c, 8, 44, 127
1, 330789, Note_off_c, 8, 44, 127
1, 330791, Note_off_c, 8, 56, 127
1, 330801, Note_on_c, 11, 46, 127
1, 330943, Note_off_c, 11, 46, 127
1, 330953, Note_off_c, 0, 60, 127
1, 330953, Note_off_c, 5, 65, 127
1, 330955, Note_on_c, 4, 64, 127
1, 330955, Note_on_c, 11, 58, 127
1, 330955, Note_on_c, 7, 43, 127
1, 331097, Note_off_c, 7, 43, 127
1, 331097, Note_off_c, 11, 58, 127
1, 331097, Note_off_c, 4, 64, 127
1, 331109, Note_on_c, 5, 65, 127
1, 331109, Note_on_c, 0, 60, 127
1, 331109, Note_on_c, 8, 44, 127
1, 331251, Note_off_c, 8, 44, 127
1, 331251, Note_off_c, 0, 60, 127
1, 331263, Note_on_c, 8, 56, 127
1, 331263, Note_on_c, 1, 49, 127
1, 331405, Note_off_c, 1, 49, 127
1, 331405, Note_off_c, 8, 56, 127
1, 331415, Note_off_c, 5, 65, 127
1, 331417, Note_on_c, 7, 67, 127
1, 331417, Note_on_c, 1, 61, 127
1, 331417, Note_on_c, 11, 46, 127
1, 331559, Note_off_c, 11, 46, 127
1, 331559, Note_off_c, 1, 61, 127
1, 331559, Note_off_c, 7, 67, 127
1, 331571, Note_on_c, 4, 64, 127
1, 331571, Note_on_c, 11, 58, 127
1, 331571, Note_on_c, 0, 48, 127
1, 331713, Note_off_c, 11, 58, 127
1, 331725, Note_on_c, 0, 60, 127
1, 331867, Note_off_c, 0, 60, 127
1, 331877, Note_off_c, 0, 48, 127
1, 331877, Note_off_c, 4, 64, 127
1, 331879, Note_on_c, 4, 64, 127
1, 331879, Note_on_c, 7, 55, 127
1, 331879, Note_on_c, 0, 36, 127
1, 332021, Note_off_c, 0, 36, 127
1, 332021, Note_off_c, 7, 55, 127
1, 332021, Note_off_c, 4, 64, 127
1, 332033, Note_on_c, 5, 65, 127
1, 332033, Note_on_c, 8, 56, 127
1, 332033, Note_on_c, 5, 41, 127
1, 332175, Note_off_c, 8, 56, 127
1, 332187, Note_on_c, 7, 55, 127
1, 332329, Note_off_c, 7, 55, 127
1, 332339, Note_off_c, 5, 65, 127
1, 332341, Note_on_c, 5, 77, 127
1, 332341, Note_on_c, 5, 53, 127
1, 332370, Note_off_c, 5, 41, 127
1, 332483, Note_off_c, 5, 53, 127
1, 332483, Note_off_c, 5, 77, 127
1, 332495, Note_on_c, 7, 79, 127
1, 332495, Note_on_c, 4, 52, 127
1, 332637, Note_off_c, 7, 79, 127
1, 332649, Note_on_c, 0, 72, 127
1, 332791, Note_off_c, 0, 72, 127
1, 332801, Note_off_c, 4, 52, 127
1, 332803, Note_on_c, 11, 70, 127
1, 332803, Note_on_c, 0, 48, 127
1, 332945, Note_off_c, 11, 70, 127
1, 332947, Note_off_c, 0, 48, 127
1, 332957, Note_on_c, 8, 68, 127
1, 332957, Note_on_c, 5, 53, 127
1, 333099, Note_off_c, 8, 68, 127
1, 333111, Note_on_c, 7, 67, 127
1, 333253, Note_off_c, 7, 67, 127
1, 333263, Note_off_c, 5, 53, 127
1, 333265, Note_on_c, 5, 65, 127
1, 333265, Note_on_c, 1, 61, 127
1, 333407, Note_off_c, 1, 61, 127
1, 333419, Note_on_c, 0, 60, 127
1, 333561, Note_off_c, 0, 60, 127
1, 333573, Note_on_c, 11, 58, 127
1, 333715, Note_off_c, 11, 58, 127
1, 333725, Note_off_c, 5, 65, 127
1, 333727, Note_on_c, 2, 74, 127
1, 333727, Note_on_c, 8, 56, 127
1, 333869, Note_off_c, 8, 56, 127
1, 333869, Note_off_c, 2, 74, 127
1, 333881, Note_on_c, 3, 75, 127
1, 333881, Note_on_c, 7, 55, 127
1, 334023, Note_off_c, 3, 75, 127
1, 334035, Note_on_c, 11, 70, 127
1, 334177, Note_off_c, 11, 70, 127
1, 334187, Note_off_c, 7, 55, 127
1, 334189, Note_on_c, 8, 68, 127
1, 334189, Note_on_c, 5, 53, 127
1, 334331, Note_off_c, 5, 53, 127
1, 334331, Note_off_c, 8, 68, 127
1, 334343, Note_on_c, 7, 67, 127
1, 334343, Note_on_c, 3, 51, 127
1, 334485, Note_off_c, 7, 67, 127
1, 334497, Note_on_c, 5, 65, 127
1, 334639, Note_off_c, 5, 65, 127
1, 334649, Note_off_c, 3, 51, 127
1, 334651, Note_on_c, 3, 63, 127
1, 334651, Note_on_c, 7, 55, 127
1, 334793, Note_off_c, 7, 55, 127
1, 334793, Note_off_c, 3, 63, 127
1, 334805, Note_on_c, 5, 65, 127
1, 334805, Note_on_c, 8, 56, 127
1, 334947, Note_off_c, 5, 65, 127
1, 334959, Note_on_c, 5, 77, 127
1, 335101, Note_off_c, 5, 77, 127
1, 335111, Note_off_c, 8, 56, 127
1, 335113, Note_on_c, 3, 75, 127
1, 335113, Note_on_c, 7, 55, 127
1, 335255, Note_off_c, 7, 55, 127
1, 335255, Note_off_c, 3, 75, 127
1, 335267, Note_on_c, 1, 73, 127
1, 335267, Note_on_c, 5, 53, 127
1, 335409, Note_off_c, 5, 53, 127
1, 335421, Note_on_c, 5, 65, 127
1, 335563, Note_off_c, 5, 65, 127
1, 335573, Note_off_c, 1, 73, 127
1, 335575, Note_on_c, 0, 72, 127
1, 335575, Note_on_c, 3, 63, 127
1, 335717, Note_off_c, 3, 63, 127
1, 335717, Note_off_c, 0, 72, 127
1, 335729, Note_on_c, 12, 71, 127
1, 335729, Note_on_c, 2, 62, 127
1, 335871, Note_off_c, 2, 62, 127
1, 335871, Note_off_c, 12, 71, 127
1, 335883, Note_on_c, 10, 69, 127
1, 335883, Note_on_c, 0, 60, 127
1, 336025, Note_off_c, 0, 60, 127
1, 336025, Note_off_c, 10, 69, 127
1, 336037, Note_on_c, 7, 67, 127
1, 336037, Note_on_c, 12, 59, 127
1, 336179, Note_off_c, 12, 59, 127
1, 336179, Note_off_c, 7, 67, 127
1, 336191, Note_on_c, 0, 72, 127
1, 336191, Note_on_c, 3, 63, 127
1, 336333, Note_off_c, 3, 63, 127
1, 336333, Note_off_c, 0, 72, 127
1, 336345, Note_on_c, 2, 74, 127
1, 336345, Note_on_c, 2, 62, 127
1, 336487, Note_off_c, 2, 62, 127
1, 336487, Note_off_c, 2, 74, 127
1, 336499, Note_on_c, 3, 75, 127
1, 336499, Note_on_c, 0, 60, 127
1, 336641, Note_off_c, 0, 60, 127
1, 336641, Note_off_c, 3, 75, 127
1, 336653, Note_on_c, 2, 74, 127
1, 336653, Note_on_c, 12, 59, 127
1, 336653, Note_on_c, 7, 55, 127
1, 336795, Note_off_c, 12, 59, 127
1, 336807, Note_on_c, 0, 60, 127
1, 336949, Note_off_c, 0, 60, 127
1, 336959, Note_off_c, 7, 55, 127
1, 336961, Note_on_c, 12, 59, 127
1, 336961, Note_on_c, 7, 55, 127
1, 337103, Note_off_c, 7, 55, 127
1, 337103, Note_off_c, 12, 59, 127
1, 337110, Note_off_c, 2, 74, 127
1, 337115, Note_on_c, 11, 58, 127
1, 337115, Note_on_c, 0, 48, 127
1, 337257, Note_off_c, 11, 58, 127
1, 337269, Note_on_c, 0, 60, 127
1, 337411, Note_off_c, 0, 60, 127
1, 337421, Note_off_c, 0, 48, 127
1, 337423, Note_on_c, 5, 77, 127
1, 337423, Note_on_c, 11, 58, 127
1, 337423, Note_on_c, 2, 50, 127
1, 337565, Note_off_c, 2, 50, 127
1, 337565, Note_off_c, 11, 58, 127
1, 337565, Note_off_c, 5, 77, 127
1, 337577, Note_on_c, 0, 72, 127
1, 337577, Note_on_c, 10, 57, 127
1, 337577, Note_on_c, 5, 53, 127
1, 337719, Note_off_c, 10, 57, 127
1, 337731, Note_on_c, 11, 58, 127
1, 337873, Note_off_c, 11, 58, 127
1, 337883, Note_off_c, 5, 53, 127
1, 337885, Note_on_c, 10, 57, 127
1, 337885, Note_on_c, 5, 53, 127
1, 338027, Note_off_c, 5, 53, 127
1, 338027, Note_off_c, 10, 57, 127
1, 338039, Note_on_c, 8, 56, 127
1, 338039, Note_on_c, 0, 48, 127
1, 338181, Note_off_c, 8, 56, 127
1, 338193, Note_on_c, 11, 58, 127
1, 338269, Note_off_c, 0, 72, 127
1, 338335, Note_off_c, 11, 58, 127
1, 338345, Note_off_c, 0, 48, 127
1, 338347, Note_on_c, 3, 75, 127
1, 338347, Note_on_c, 8, 56, 127
1, 338347, Note_on_c, 0, 48, 127
1, 338489, Note_off_c, 0, 48, 127
1, 338489, Note_off_c, 8, 56, 127
1, 338489, Note_off_c, 3, 75, 127
1, 338501, Note_on_c, 11, 70, 127
1, 338501, Note_on_c, 7, 55, 127
1, 338501, Note_on_c, 3, 51, 127
1, 338643, Note_off_c, 7, 55, 127
1, 338655, Note_on_c, 8, 56, 127
1, 338797, Note_off_c, 8, 56, 127
1, 338807, Note_off_c, 3, 51, 127
1, 338807, Note_off_c, 11, 70, 127
1, 338809, Note_on_c, 0, 72, 127
1, 338809, Note_on_c, 7, 55, 127
1, 338809, Note_on_c, 3, 51, 127
1, 338951, Note_off_c, 3, 51, 127
1, 338951, Note_off_c, 7, 55, 127
1, 338951, Note_off_c, 0, 72, 127
1, 338963, Note_on_c, 2, 74, 127
1, 338963, Note_on_c, 7, 67, 127
1, 338963, Note_on_c, 12, 47, 127
1, 339105, Note_off_c, 7, 67, 127
1, 339117, Note_on_c, 7, 55, 127
1, 339259, Note_off_c, 7, 55, 127
1, 339269, Note_off_c, 12, 47, 127
1, 339269, Note_off_c, 2, 74, 127
1, 339271, Note_on_c, 2, 74, 127
1, 339271, Note_on_c, 7, 67, 127
1, 339271, Note_on_c, 12, 47, 127
1, 339413, Note_off_c, 12, 47, 127
1, 339413, Note_off_c, 7, 67, 127
1, 339413, Note_off_c, 2, 74, 127
1, 339425, Note_on_c, 2, 74, 127
1, 339425, Note_on_c, 5, 53, 127
1, 339425, Note_on_c, 12, 47, 127
1, 339567, Note_off_c, 5, 53, 127
1, 339579, Note_on_c, 7, 55, 127
1, 339721, Note_off_c, 7, 55, 127
1, 339733, Note_on_c, 5, 53, 127
1, 339875, Note_off_c, 5, 53, 127
1, 339887, Note_on_c, 5, 65, 127
1, 340029, Note_off_c, 5, 65, 127
1, 340041, Note_on_c, 5, 53, 127
1, 340117, Note_off_c, 12, 47, 127
1, 340117, Note_off_c, 2, 74, 127
1, 340183, Note_off_c, 5, 53, 127
1, 340195, Note_on_c, 5, 65, 127
1, 340195, Note_on_c, 5, 53, 127
1, 340195, Note_on_c, 8, 56, 127
1, 340337, Note_off_c, 8, 56, 127
1, 340337, Note_off_c, 5, 53, 127
1, 340337, Note_off_c, 5, 65, 127
1, 340349, Note_on_c, 7, 67, 127
1, 340349, Note_on_c, 3, 63, 127
1, 340349, Note_on_c, 7, 55, 127
1, 340491, Note_off_c, 3, 63, 127
1, 340491, Note_off_c, 7, 67, 127
1, 340503, Note_on_c, 10, 69, 127
1, 340503, Note_on_c, 0, 60, 127
1, 340645, Note_off_c, 0, 60, 127
1, 340645, Note_off_c, 10, 69, 127
1, 340655, Note_off_c, 7, 55, 127
1, 340657, Note_on_c, 12, 71, 127
1, 340657, Note_on_c, 2, 62, 127
1, 340657, Note_on_c, 5, 53, 127
1, 340799, Note_off_c, 5, 53, 127
1, 340799, Note_off_c, 2, 62, 127
1, 340799, Note_off_c, 12, 71, 127
1, 340811, Note_on_c, 0, 72, 127
1, 340811, Note_on_c, 3, 63, 127
1, 340811, Note_on_c, 7, 55, 127
1, 340953, Note_off_c, 3, 63, 127
1, 340953, Note_off_c, 0, 72, 127
1, 340965, Note_on_c, 12, 71, 127
1, 340965, Note_on_c, 2, 62, 127
1, 341107, Note_off_c, 2, 62, 127
1, 341107, Note_off_c, 12, 71, 127
1, 341117, Note_off_c, 7, 55, 127
1, 341119, Note_on_c, 2, 74, 127
1, 341119, Note_on_c, 5, 65, 127
1, 341119, Note_on_c, 8, 56, 127
1, 341261, Note_off_c, 8, 56, 127
1, 341261, Note_off_c, 5, 65, 127
1, 341273, Note_on_c, 3, 63, 127
1, 341273, Note_on_c, 7, 55, 127
1, 341415, Note_off_c, 7, 55, 127
1, 341425, Note_off_c, 2, 74, 127
1, 341427, Note_on_c, 0, 72, 127
1, 341427, Note_on_c, 0, 48, 127
1, 341569, Note_off_c, 0, 48, 127
1, 341569, Note_off_c, 0, 72, 127
1, 341579, Note_off_c, 3, 63, 127
1, 341581, Note_on_c, 12, 71, 127
1, 341581, Note_on_c, 5, 65, 127
1, 341581, Note_on_c, 2, 50, 127
1, 341723, Note_off_c, 2, 50, 127
1, 341723, Note_off_c, 5, 65, 127
1, 341723, Note_off_c, 12, 71, 127
1, 341735, Note_on_c, 0, 72, 127
1, 341735, Note_on_c, 7, 67, 127
1, 341735, Note_on_c, 3, 51, 127
1, 341877, Note_off_c, 3, 51, 127
1, 341889, Note_on_c, 2, 50, 127
1, 342031, Note_off_c, 2, 50, 127
1, 342041, Note_off_c, 7, 67, 127
1, 342041, Note_off_c, 0, 72, 127
1, 342043, Note_on_c, 2, 74, 127
1, 342043, Note_on_c, 8, 68, 127
1, 342043, Note_on_c, 5, 53, 127
1, 342185, Note_off_c, 5, 53, 127
1, 342185, Note_off_c, 8, 68, 127
1, 342197, Note_on_c, 7, 67, 127
1, 342197, Note_on_c, 3, 51, 127
1, 342348, Note_off_c, 2, 74, 127
1, 342350, Note_on_c, 0, 72, 127
1, 342492, Note_off_c, 0, 72, 127
1, 342502, Note_off_c, 3, 51, 127
1, 342502, Note_off_c, 7, 67, 127
1, 342504, Note_on_c, 2, 74, 127
1, 342504, Note_on_c, 5, 65, 127
1, 342504, Note_on_c, 2, 50, 127
1, 342646, Note_off_c, 2, 50, 127
1, 342646, Note_off_c, 5, 65, 127
1, 342646, Note_off_c, 2, 74, 127
1, 342658, Note_on_c, 3, 75, 127
1, 342658, Note_on_c, 7, 67, 127
1, 342658, Note_on_c, 0, 48, 127
1, 342800, Note_off_c, 3, 75, 127
1, 342812, Note_on_c, 2, 74, 127
1, 342954, Note_off_c, 2, 74, 127
1, 342964, Note_off_c, 0, 48, 127
1, 342964, Note_off_c, 7, 67, 127
1, 342966, Note_on_c, 5, 77, 127
1, 342966, Note_on_c, 8, 68, 127
1, 342966, Note_on_c, 12, 47, 127
1, 343108, Note_off_c, 12, 47, 127
1, 343108, Note_off_c, 8, 68, 127
1, 343108, Note_off_c, 5, 77, 127
1, 343120, Note_on_c, 3, 75, 127
1, 343120, Note_on_c, 7, 67, 127
1, 343120, Note_on_c, 0, 48, 127
1, 343262, Note_off_c, 3, 75, 127
1, 343274, Note_on_c, 5, 77, 127
1, 343416, Note_off_c, 5, 77, 127
1, 343426, Note_off_c, 0, 48, 127
1, 343426, Note_off_c, 7, 67, 127
1, 343428, Note_on_c, 7, 79, 127
1, 343428, Note_on_c, 7, 67, 127
1, 343428, Note_on_c, 11, 46, 127
1, 343570, Note_off_c, 11, 46, 127
1, 343570, Note_off_c, 7, 67, 127
1, 343570, Note_off_c, 7, 79, 127
1, 343582, Note_on_c, 0, 72, 127
1, 343582, Note_on_c, 3, 63, 127
1, 343582, Note_on_c, 8, 44, 127
1, 343724, Note_off_c, 3, 63, 127
1, 343736, Note_on_c, 5, 65, 127
1, 343878, Note_off_c, 5, 65, 127
1, 343888, Note_off_c, 8, 44, 127
1, 343890, Note_on_c, 7, 67, 127
1, 343890, Note_on_c, 7, 43, 127
1, 344032, Note_off_c, 7, 43, 127
1, 344032, Note_off_c, 7, 67, 127
1, 344044, Note_on_c, 8, 68, 127
1, 344044, Note_on_c, 5, 41, 127
1, 344186, Note_off_c, 8, 68, 127
1, 344198, Note_on_c, 5, 65, 127
1, 344340, Note_off_c, 5, 65, 127
1, 344350, Note_off_c, 5, 41, 127
1, 344352, Note_on_c, 3, 63, 127
1, 344352, Note_on_c, 2, 38, 127
1, 344494, Note_off_c, 2, 38, 127
1, 344494, Note_off_c, 3, 63, 127
1, 344506, Note_on_c, 2, 62, 127
1, 344506, Note_on_c, 7, 43, 127
1, 344648, Note_off_c, 2, 62, 127
1, 344660, Note_on_c, 7, 67, 127
1, 344802, Note_off_c, 7, 67, 127
1, 344812, Note_off_c, 7, 43, 127
1, 344812, Note_off_c, 0, 72, 127
1, 344814, Note_on_c, 12, 71, 127
1, 344814, Note_on_c, 5, 65, 127
1, 344814, Note_on_c, 7, 43, 127
1, 344956, Note_off_c, 7, 43, 127
1, 344956, Note_off_c, 5, 65, 127
1, 344956, Note_off_c, 12, 71, 127
1, 344968, Note_on_c, 0, 72, 127
1, 344968, Note_on_c, 3, 63, 127
1, 344968, Note_on_c, 0, 36, 127
1, 345110, Note_off_c, 3, 63, 127
1, 345122, Note_on_c, 2, 62, 127
1, 345196, Note_off_c, 0, 36, 127
1, 345263, Note_off_c, 2, 62, 127
1, 345273, Note_off_c, 0, 72, 127
1, 345275, Note_on_c, 7, 67, 127
1, 345275, Note_on_c, 0, 60, 127
1, 345417, Note_off_c, 0, 60, 127
1, 345417, Note_off_c, 7, 67, 127
1, 345429, Note_on_c, 3, 75, 127
1, 345429, Note_on_c, 0, 72, 127
1, 345571, Note_off_c, 3, 75, 127
1, 345583, Note_on_c, 5, 77, 127
1, 345725, Note_off_c, 5, 77, 127
1, 345735, Note_off_c, 0, 72, 127
1, 345737, Note_on_c, 2, 74, 127
1, 345737, Note_on_c, 11, 70, 127
1, 345737, Note_on_c, 11, 58, 127
1, 345879, Note_off_c, 11, 58, 127
1, 345879, Note_off_c, 11, 70, 127
1, 345879, Note_off_c, 2, 74, 127
1, 345891, Note_on_c, 0, 72, 127
1, 345891, Note_on_c, 10, 69, 127
1, 345891, Note_on_c, 5, 65, 127
1, 346033, Note_off_c, 10, 69, 127
1, 346045, Note_on_c, 11, 70, 127
1, 346187, Note_off_c, 11, 70, 127
1, 346197, Note_off_c, 5, 65, 127
1, 346199, Note_on_c, 10, 69, 127
1, 346199, Note_on_c, 5, 65, 127
1, 346341, Note_off_c, 5, 65, 127
1, 346341, Note_off_c, 10, 69, 127
1, 346348, Note_off_c, 0, 72, 127
1, 346353, Note_on_c, 8, 68, 127
1, 346353, Note_on_c, 0, 60, 127
1, 346495, Note_off_c, 8, 68, 127
1, 346507, Note_on_c, 11, 70, 127
1, 346649, Note_off_c, 11, 70, 127
1, 346659, Note_off_c, 0, 60, 127
1, 346661, Note_on_c, 3, 75, 127
1, 346661, Note_on_c, 8, 68, 127
1, 346661, Note_on_c, 0, 60, 127
1, 346803, Note_off_c, 0, 60, 127
1, 346803, Note_off_c, 8, 68, 127
1, 346803, Note_off_c, 3, 75, 127
1, 346815, Note_on_c, 11, 70, 127
1, 346815, Note_on_c, 7, 67, 127
1, 346815, Note_on_c, 3, 63, 127
1, 346957, Note_off_c, 7, 67, 127
1, 346969, Note_on_c, 8, 68, 127
1, 347111, Note_off_c, 8, 68, 127
1, 347121, Note_off_c, 3, 63, 127
1, 347123, Note_on_c, 7, 67, 127
1, 347123, Note_on_c, 3, 63, 127
1, 347265, Note_off_c, 3, 63, 127
1, 347265, Note_off_c, 7, 67, 127
1, 347272, Note_off_c, 11, 70, 127
1, 347277, Note_on_c, 7, 67, 127
1, 347277, Note_on_c, 11, 58, 127
1, 347419, Note_off_c, 7, 67, 127
1, 347431, Note_on_c, 10, 69, 127
1, 347573, Note_off_c, 10, 69, 127
1, 347583, Note_off_c, 11, 58, 127
1, 347585, Note_on_c, 2, 74, 127
1, 347585, Note_on_c, 7, 67, 127
1, 347585, Note_on_c, 11, 58, 127
1, 347727, Note_off_c, 11, 58, 127
1, 347727, Note_off_c, 7, 67, 127
1, 347727, Note_off_c, 2, 74, 127
1, 347739, Note_on_c, 10, 69, 127
1, 347739, Note_on_c, 6, 66, 127
1, 347739, Note_on_c, 2, 62, 127
1, 347881, Note_off_c, 6, 66, 127
1, 347893, Note_on_c, 7, 67, 127
1, 348035, Note_off_c, 7, 67, 127
1, 348045, Note_off_c, 2, 62, 127
1, 348047, Note_on_c, 6, 66, 127
1, 348047, Note_on_c, 2, 62, 127
1, 348189, Note_off_c, 2, 62, 127
1, 348189, Note_off_c, 6, 66, 127
1, 348196, Note_off_c, 10, 69, 127
1, 348201, Note_on_c, 6, 78, 127
1, 348201, Note_on_c, 10, 57, 127
1, 348343, Note_off_c, 6, 78, 127
1, 348355, Note_on_c, 6, 66, 127
1, 348497, Note_off_c, 6, 66, 127
1, 348507, Note_off_c, 10, 57, 127
1, 348509, Note_on_c, 2, 74, 127
1, 348509, Note_on_c, 6, 78, 127
1, 348509, Note_on_c, 10, 57, 127
1, 348651, Note_off_c, 10, 57, 127
1, 348651, Note_off_c, 6, 78, 127
1, 348651, Note_off_c, 2, 74, 127
1, 348663, Note_on_c, 0, 72, 127
1, 348663, Note_on_c, 2, 62, 127
1, 348663, Note_on_c, 10, 57, 127
1, 348805, Note_off_c, 0, 72, 127
1, 348817, Note_on_c, 2, 74, 127
1, 348959, Note_off_c, 2, 74, 127
1, 348971, Note_on_c, 0, 72, 127
1, 349113, Note_off_c, 0, 72, 127
1, 349125, Note_on_c, 0, 84, 127
1, 349267, Note_off_c, 0, 84, 127
1, 349279, Note_on_c, 0, 72, 127
1, 349355, Note_off_c, 10, 57, 127
1, 349355, Note_off_c, 2, 62, 127
1, 349421, Note_off_c, 0, 72, 127
1, 349433, Note_on_c, 0, 84, 127
1, 349433, Note_on_c, 6, 78, 127
1, 349433, Note_on_c, 10, 69, 127
1, 349575, Note_off_c, 10, 69, 127
1, 349575, Note_off_c, 6, 78, 127
1, 349575, Note_off_c, 0, 84, 127
1, 349587, Note_on_c, 11, 82, 127
1, 349587, Note_on_c, 7, 79, 127
1, 349587, Note_on_c, 7, 67, 127
1, 349729, Note_off_c, 11, 82, 127
1, 349731, Note_off_c, 7, 79, 127
1, 349741, Note_on_c, 7, 79, 127
1, 349883, Note_off_c, 7, 79, 127
1, 349893, Note_off_c, 7, 67, 127
1, 349895, Note_on_c, 10, 81, 127
1, 349895, Note_on_c, 6, 66, 127
1, 350037, Note_off_c, 6, 66, 127
1, 350037, Note_off_c, 10, 81, 127
1, 350049, Note_on_c, 11, 82, 127
1, 350049, Note_on_c, 7, 67, 127
1, 350191, Note_off_c, 11, 82, 127
1, 350203, Note_on_c, 10, 81, 127
1, 350345, Note_off_c, 10, 81, 127
1, 350355, Note_off_c, 7, 67, 127
1, 350357, Note_on_c, 0, 84, 127
1, 350357, Note_on_c, 6, 78, 127
1, 350357, Note_on_c, 10, 69, 127
1, 350499, Note_off_c, 10, 69, 127
1, 350499, Note_off_c, 6, 78, 127
1, 350499, Note_off_c, 0, 84, 127
1, 350511, Note_on_c, 11, 82, 127
1, 350511, Note_on_c, 7, 79, 127
1, 350511, Note_on_c, 7, 67, 127
1, 350653, Note_off_c, 7, 67, 127
1, 350665, Note_on_c, 7, 55, 127
1, 350807, Note_off_c, 7, 55, 127
1, 350817, Note_off_c, 7, 79, 127
1, 350817, Note_off_c, 11, 82, 127
1, 350819, Note_on_c, 6, 78, 127
1, 350819, Note_on_c, 0, 72, 127
1, 350819, Note_on_c, 10, 57, 127
1, 350961, Note_off_c, 10, 57, 127
1, 350961, Note_off_c, 0, 72, 127
1, 350961, Note_off_c, 6, 78, 127
1, 350973, Note_on_c, 7, 79, 127
1, 350973, Note_on_c, 2, 74, 127
1, 350973, Note_on_c, 11, 58, 127
1, 351115, Note_off_c, 11, 58, 127
1, 351127, Note_on_c, 10, 57, 127
1, 351269, Note_off_c, 10, 57, 127
1, 351279, Note_off_c, 2, 74, 127
1, 351279, Note_off_c, 7, 79, 127
1, 351281, Note_on_c, 10, 81, 127
1, 351281, Note_on_c, 3, 75, 127
1, 351281, Note_on_c, 0, 60, 127
1, 351423, Note_off_c, 0, 60, 127
1, 351423, Note_off_c, 3, 75, 127
1, 351423, Note_off_c, 10, 81, 127
1, 351435, Note_on_c, 7, 79, 127
1, 351435, Note_on_c, 2, 74, 127
1, 351435, Note_on_c, 11, 58, 127
1, 351577, Note_off_c, 2, 74, 127
1, 351589, Note_on_c, 7, 67, 127
1, 351731, Note_off_c, 7, 67, 127
1, 351741, Note_off_c, 11, 58, 127
1, 351741, Note_off_c, 7, 79, 127
1, 351743, Note_on_c, 6, 78, 127
1, 351743, Note_on_c, 10, 69, 127
1, 351743, Note_on_c, 10, 57, 127
1, 351885, Note_off_c, 10, 57, 127
1, 351885, Note_off_c, 10, 69, 127
1, 351885, Note_off_c, 6, 78, 127
1, 351897, Note_on_c, 7, 79, 127
1, 351897, Note_on_c, 11, 70, 127
1, 351897, Note_on_c, 7, 55, 127
1, 352039, Note_off_c, 11, 70, 127
1, 352051, Note_on_c, 10, 69, 127
1, 352193, Note_off_c, 10, 69, 127
1, 352203, Note_off_c, 7, 55, 127
1, 352203, Note_off_c, 7, 79, 127
1, 352205, Note_on_c, 10, 81, 127
1, 352205, Note_on_c, 0, 72, 127
1, 352205, Note_on_c, 6, 54, 127
1, 352347, Note_off_c, 6, 54, 127
1, 352347, Note_off_c, 0, 72, 127
1, 352347, Note_off_c, 10, 81, 127
1, 352359, Note_on_c, 7, 79, 127
1, 352359, Note_on_c, 11, 70, 127
1, 352359, Note_on_c, 7, 55, 127
1, 352501, Note_off_c, 11, 70, 127
1, 352513, Note_on_c, 0, 72, 127
1, 352655, Note_off_c, 0, 72, 127
1, 352665, Note_off_c, 7, 55, 127
1, 352665, Note_off_c, 7, 79, 127
1, 352667, Note_on_c, 7, 67, 127
1, 352667, Note_on_c, 2, 74, 127
1, 352667, Note_on_c, 11, 58, 127
1, 352809, Note_off_c, 11, 58, 127
1, 352809, Note_off_c, 2, 74, 127
1, 352809, Note_off_c, 7, 67, 127
1, 352821, Note_on_c, 11, 70, 127
1, 352821, Note_on_c, 6, 66, 127
1, 352821, Note_on_c, 2, 62, 127
1, 352963, Note_off_c, 11, 70, 127
1, 352975, Note_on_c, 10, 69, 127
1, 353117, Note_off_c, 10, 69, 127
1, 353129, Note_on_c, 7, 67, 127
1, 353129, Note_on_c, 2, 50, 127
1, 353271, Note_off_c, 2, 50, 127
1, 353271, Note_off_c, 7, 67, 127
1, 353278, Note_off_c, 2, 62, 127
1, 353280, Note_off_c, 6, 66, 127
1, 353282, Note_on_c, 7, 67, 127
1, 353282, Note_on_c, 7, 55, 127
1, 353282, Note_on_c, 7, 43, 127
1, 353587, Note_off_c, 7, 43, 127
1, 353589, Note_on_c, 7, 43, 127
1, 353731, Note_off_c, 7, 43, 127
1, 353738, Note_off_c, 7, 55, 127
1, 353738, Note_off_c, 7, 67, 127
1, 353743, Note_on_c, 0, 48, 127
1, 354048, Note_off_c, 0, 48, 127
1, 354050, Note_on_c, 4, 64, 127
1, 354050, Note_on_c, 7, 55, 127
1, 354050, Note_on_c, 0, 60, 127
1, 354050, Note_on_c, 0, 48, 127
1, 354192, Note_off_c, 0, 48, 127
1, 354192, Note_off_c, 0, 60, 127
1, 354192, Note_off_c, 7, 55, 127
1, 354192, Note_off_c, 4, 64, 127
1, 354204, Note_on_c, 5, 65, 127
1, 354204, Note_on_c, 10, 57, 127
1, 354204, Note_on_c, 0, 60, 127
1, 354204, Note_on_c, 10, 45, 127
1, 354346, Note_off_c, 5, 65, 127
1, 354358, Note_on_c, 4, 64, 127
1, 354500, Note_off_c, 4, 64, 127
1, 354510, Note_off_c, 10, 45, 127
1, 354510, Note_off_c, 0, 60, 127
1, 354510, Note_off_c, 10, 57, 127
1, 354512, Note_on_c, 5, 65, 127
1, 354512, Note_on_c, 10, 57, 127
1, 354512, Note_on_c, 0, 60, 127
1, 354512, Note_on_c, 10, 45, 127
1, 354654, Note_off_c, 10, 45, 127
1, 354654, Note_off_c, 0, 60, 127
1, 354654, Note_off_c, 10, 57, 127
1, 354654, Note_off_c, 5, 65, 127
1, 354666, Note_on_c, 6, 66, 127
1, 354666, Note_on_c, 10, 57, 127
1, 354666, Note_on_c, 2, 62, 127
1, 354666, Note_on_c, 2, 50, 127
1, 354808, Note_off_c, 6, 66, 127
1, 354820, Note_on_c, 4, 64, 127
1, 354962, Note_off_c, 4, 64, 127
1, 354972, Note_off_c, 2, 50, 127
1, 354972, Note_off_c, 2, 62, 127
1, 354972, Note_off_c, 10, 57, 127
1, 354974, Note_on_c, 6, 66, 127
1, 354974, Note_on_c, 10, 57, 127
1, 354974, Note_on_c, 2, 62, 127
1, 354974, Note_on_c, 2, 50, 127
1, 355116, Note_off_c, 2, 50, 127
1, 355116, Note_off_c, 2, 62, 127
1, 355116, Note_off_c, 10, 57, 127
1, 355116, Note_off_c, 6, 66, 127
1, 355128, Note_on_c, 7, 67, 127
1, 355128, Note_on_c, 11, 58, 127
1, 355128, Note_on_c, 2, 62, 127
1, 355128, Note_on_c, 11, 46, 127
1, 355270, Note_off_c, 7, 67, 127
1, 355282, Note_on_c, 6, 66, 127
1, 355424, Note_off_c, 6, 66, 127
1, 355434, Note_off_c, 11, 46, 127
1, 355434, Note_off_c, 2, 62, 127
1, 355434, Note_off_c, 11, 58, 127
1, 355436, Note_on_c, 7, 67, 127
1, 355436, Note_on_c, 11, 58, 127
1, 355436, Note_on_c, 2, 62, 127
1, 355436, Note_on_c, 11, 46, 127
1, 355578, Note_off_c, 11, 46, 127
1, 355578, Note_off_c, 2, 62, 127
1, 355578, Note_off_c, 11, 58, 127
1, 355578, Note_off_c, 7, 67, 127
1, 355590, Note_on_c, 7, 55, 127
1, 355590, Note_on_c, 0, 60, 127
1, 355590, Note_on_c, 3, 51, 127
1, 355732, Note_off_c, 7, 55, 127
1, 355744, Note_on_c, 7, 67, 127
1, 355886, Note_off_c, 7, 67, 127
1, 355896, Note_off_c, 3, 51, 127
1, 355896, Note_off_c, 0, 60, 127
1, 355898, Note_on_c, 7, 55, 127
1, 355898, Note_on_c, 0, 60, 127
1, 355898, Note_on_c, 3, 51, 127
1, 356040, Note_off_c, 3, 51, 127
1, 356040, Note_off_c, 0, 60, 127
1, 356040, Note_off_c, 7, 55, 127
1, 356052, Note_on_c, 10, 69, 127
1, 356052, Note_on_c, 6, 54, 127
1, 356052, Note_on_c, 0, 60, 127
1, 356052, Note_on_c, 3, 51, 127
1, 356194, Note_off_c, 10, 69, 127
1, 356206, Note_on_c, 7, 67, 127
1, 356348, Note_off_c, 7, 67, 127
1, 356360, Note_on_c, 10, 69, 127
1, 356502, Note_off_c, 10, 69, 127
1, 356514, Note_on_c, 10, 57, 127
1, 356656, Note_off_c, 10, 57, 127
1, 356668, Note_on_c, 10, 69, 127
1, 356744, Note_off_c, 3, 51, 127
1, 356744, Note_off_c, 0, 60, 127
1, 356744, Note_off_c, 6, 54, 127
1, 356810, Note_off_c, 10, 69, 127
1, 356822, Note_on_c, 10, 57, 127
1, 356822, Note_on_c, 2, 62, 127
1, 356822, Note_on_c, 6, 42, 127
1, 356964, Note_off_c, 6, 42, 127
1, 356964, Note_off_c, 2, 62, 127
1, 356964, Note_off_c, 10, 57, 127
1, 356976, Note_on_c, 11, 58, 127
1, 356976, Note_on_c, 2, 50, 127
1, 356976, Note_on_c, 7, 55, 127
1, 356976, Note_on_c, 7, 43, 127
1, 357118, Note_off_c, 11, 58, 127
1, 357130, Note_on_c, 2, 62, 127
1, 357272, Note_off_c, 2, 62, 127
1, 357282, Note_off_c, 7, 43, 127
1, 357284, Note_on_c, 0, 60, 127
1, 357284, Note_on_c, 10, 45, 127
1, 357426, Note_off_c, 10, 45, 127
1, 357426, Note_off_c, 0, 60, 127
1, 357438, Note_on_c, 11, 58, 127
1, 357438, Note_on_c, 7, 43, 127
1, 357580, Note_off_c, 11, 58, 127
1, 357592, Note_on_c, 0, 60, 127
1, 357668, Note_off_c, 7, 55, 127
1, 357668, Note_off_c, 2, 50, 127
1, 357734, Note_off_c, 0, 60, 127
1, 357744, Note_off_c, 7, 43, 127
1, 357746, Note_on_c, 10, 57, 127
1, 357746, Note_on_c, 2, 50, 127
1, 357746, Note_on_c, 6, 42, 127
1, 357888, Note_off_c, 6, 42, 127
1, 357888, Note_off_c, 2, 50, 127
1, 357888, Note_off_c, 10, 57, 127
1, 357900, Note_on_c, 11, 58, 127
1, 357900, Note_on_c, 7, 55, 127
1, 357900, Note_on_c, 2, 50, 127
1, 357900, Note_on_c, 7, 43, 127
1, 358042, Note_off_c, 7, 43, 127
1, 358044, Note_off_c, 2, 50, 127
1, 358044, Note_off_c, 11, 58, 127
1, 358054, Note_on_c, 2, 50, 127
1, 358196, Note_off_c, 2, 50, 127
1, 358206, Note_off_c, 7, 55, 127
1, 358208, Note_on_c, 10, 57, 127
1, 358208, Note_on_c, 3, 51, 127
1, 358208, Note_on_c, 0, 48, 127
1, 358350, Note_off_c, 0, 48, 127
1, 358350, Note_off_c, 3, 51, 127
1, 358350, Note_off_c, 10, 57, 127
1, 358362, Note_on_c, 7, 55, 127
1, 358362, Note_on_c, 2, 50, 127
1, 358362, Note_on_c, 11, 46, 127
1, 358504, Note_off_c, 11, 46, 127
1, 358516, Note_on_c, 0, 48, 127
1, 358658, Note_off_c, 0, 48, 127
1, 358668, Note_off_c, 2, 50, 127
1, 358668, Note_off_c, 7, 55, 127
1, 358670, Note_on_c, 6, 54, 127
1, 358670, Note_on_c, 0, 48, 127
1, 358670, Note_on_c, 10, 45, 127
1, 358812, Note_off_c, 10, 45, 127
1, 358812, Note_off_c, 0, 48, 127
1, 358812, Note_off_c, 6, 54, 127
1, 358824, Note_on_c, 2, 50, 127
1, 358824, Note_on_c, 11, 46, 127
1, 358978, Note_on_c, 2, 62, 127
1, 359120, Note_off_c, 2, 62, 127
1, 359130, Note_off_c, 2, 50, 127
1, 359132, Note_on_c, 0, 60, 127
1, 359132, Note_on_c, 10, 57, 127
1, 359274, Note_off_c, 10, 57, 127
1, 359274, Note_off_c, 0, 60, 127
1, 359286, Note_on_c, 11, 58, 127
1, 359286, Note_on_c, 7, 55, 127
1, 359428, Note_off_c, 11, 58, 127
1, 359440, Note_on_c, 0, 60, 127
1, 359516, Note_off_c, 11, 46, 127
1, 359582, Note_off_c, 0, 60, 127
1, 359592, Note_off_c, 7, 55, 127
1, 359594, Note_on_c, 10, 57, 127
1, 359594, Note_on_c, 6, 54, 127
1, 359594, Note_on_c, 2, 50, 127
1, 359736, Note_off_c, 2, 50, 127
1, 359736, Note_off_c, 6, 54, 127
1, 359736, Note_off_c, 10, 57, 127
1, 359748, Note_on_c, 11, 58, 127
1, 359748, Note_on_c, 7, 55, 127
1, 359748, Note_on_c, 7, 43, 127
1, 359890, Note_off_c, 7, 55, 127
1, 359902, Note_on_c, 2, 62, 127
1, 359976, Note_off_c, 7, 43, 127
1, 360043, Note_off_c, 2, 62, 127
1, 360053, Note_off_c, 11, 58, 127
1, 360055, Note_on_c, 6, 66, 127
1, 360055, Note_on_c, 0, 60, 127
1, 360197, Note_off_c, 0, 60, 127
1, 360197, Note_off_c, 6, 66, 127
1, 360209, Note_on_c, 7, 67, 127
1, 360209, Note_on_c, 11, 58, 127
1, 360351, Note_off_c, 11, 58, 127
1, 360351, Note_off_c, 7, 67, 127
1, 360363, Note_on_c, 10, 69, 127
1, 360363, Note_on_c, 10, 57, 127
1, 360505, Note_off_c, 10, 57, 127
1, 360505, Note_off_c, 10, 69, 127
1, 360517, Note_on_c, 11, 70, 127
1, 360517, Note_on_c, 2, 74, 127
1, 360517, Note_on_c, 7, 55, 127
1, 360659, Note_off_c, 7, 55, 127
1, 360659, Note_off_c, 2, 74, 127
1, 360659, Note_off_c, 11, 70, 127
1, 360671, Note_on_c, 10, 81, 127
1, 360671, Note_on_c, 10, 69, 127
1, 360671, Note_on_c, 5, 53, 127
1, 360813, Note_off_c, 10, 69, 127
1, 360825, Note_on_c, 5, 77, 127
1, 360976, Note_off_c, 5, 53, 127
1, 360976, Note_off_c, 10, 81, 127
1, 360978, Note_on_c, 10, 81, 127
1, 360978, Note_on_c, 7, 55, 127
1, 361120, Note_off_c, 7, 55, 127
1, 361120, Note_off_c, 10, 81, 127
1, 361130, Note_off_c, 5, 77, 127
1, 361132, Note_on_c, 4, 76, 127
1, 361132, Note_on_c, 1, 73, 127
1, 361132, Note_on_c, 10, 57, 127
1, 361274, Note_off_c, 1, 73, 127
1, 361286, Note_on_c, 2, 74, 127
1, 361428, Note_off_c, 2, 74, 127
1, 361438, Note_off_c, 10, 57, 127
1, 361438, Note_off_c, 4, 76, 127
1, 361440, Note_on_c, 4, 76, 127
1, 361440, Note_on_c, 1, 73, 127
1, 361440, Note_on_c, 10, 69, 127
1, 361582, Note_off_c, 10, 69, 127
1, 361582, Note_off_c, 1, 73, 127
1, 361582, Note_off_c, 4, 76, 127
1, 361594, Note_on_c, 7, 79, 127
1, 361594, Note_on_c, 0, 72, 127
1, 361594, Note_on_c, 4, 64, 127
1, 361736, Note_off_c, 0, 72, 127
1, 361748, Note_on_c, 2, 74, 127
1, 361890, Note_off_c, 2, 74, 127
1, 361900, Note_off_c, 4, 64, 127
1, 361900, Note_off_c, 7, 79, 127
1, 361902, Note_on_c, 7, 79, 127
1, 361902, Note_on_c, 0, 72, 127
1, 361902, Note_on_c, 4, 64, 127
1, 362044, Note_off_c, 4, 64, 127
1, 362044, Note_off_c, 0, 72, 127
1, 362044, Note_off_c, 7, 79, 127
1, 362056, Note_on_c, 2, 74, 127
1, 362056, Note_on_c, 12, 71, 127
1, 362056, Note_on_c, 7, 67, 127
1, 362198, Note_off_c, 12, 71, 127
1, 362210, Note_on_c, 0, 72, 127
1, 362352, Note_off_c, 0, 72, 127
1, 362362, Note_off_c, 7, 67, 127
1, 362362, Note_off_c, 2, 74, 127
1, 362364, Note_on_c, 2, 74, 127
1, 362364, Note_on_c, 11, 70, 127
1, 362364, Note_on_c, 7, 55, 127
1, 362506, Note_off_c, 7, 55, 127
1, 362506, Note_off_c, 11, 70, 127
1, 362506, Note_off_c, 2, 74, 127
1, 362518, Note_on_c, 5, 77, 127
1, 362518, Note_on_c, 10, 69, 127
1, 362518, Note_on_c, 2, 62, 127
1, 362660, Note_off_c, 10, 69, 127
1, 362672, Note_on_c, 11, 70, 127
1, 362814, Note_off_c, 11, 70, 127
1, 362824, Note_off_c, 2, 62, 127
1, 362824, Note_off_c, 5, 77, 127
1, 362826, Note_on_c, 5, 77, 127
1, 362826, Note_on_c, 10, 69, 127
1, 362826, Note_on_c, 2, 50, 127
1, 362968, Note_off_c, 2, 50, 127
1, 362968, Note_off_c, 10, 69, 127
1, 362968, Note_off_c, 5, 77, 127
1, 362980, Note_on_c, 10, 81, 127
1, 362980, Note_on_c, 1, 73, 127
1, 362980, Note_on_c, 10, 57, 127
1, 363122, Note_off_c, 10, 81, 127
1, 363134, Note_on_c, 10, 69, 127
1, 363276, Note_off_c, 10, 69, 127
1, 363286, Note_off_c, 10, 57, 127
1, 363286, Note_off_c, 1, 73, 127
1, 363288, Note_on_c, 10, 81, 127
1, 363288, Note_on_c, 1, 73, 127
1, 363288, Note_on_c, 10, 69, 127
1, 363430, Note_off_c, 10, 69, 127
1, 363430, Note_off_c, 1, 73, 127
1, 363430, Note_off_c, 10, 81, 127
1, 363442, Note_on_c, 0, 72, 127
1, 363442, Note_on_c, 7, 67, 127
1, 363442, Note_on_c, 4, 64, 127
1, 363584, Note_off_c, 7, 67, 127
1, 363596, Note_on_c, 10, 69, 127
1, 363738, Note_off_c, 10, 69, 127
1, 363750, Note_on_c, 7, 67, 127
1, 363892, Note_off_c, 7, 67, 127
1, 363904, Note_on_c, 7, 79, 127
1, 364046, Note_off_c, 7, 79, 127
1, 364058, Note_on_c, 7, 67, 127
1, 364134, Note_off_c, 4, 64, 127
1, 364134, Note_off_c, 0, 72, 127
1, 364200, Note_off_c, 7, 67, 127
1, 364212, Note_on_c, 11, 82, 127
1, 364212, Note_on_c, 7, 79, 127
1, 364212, Note_on_c, 4, 64, 127
1, 364354, Note_off_c, 4, 64, 127
1, 364354, Note_off_c, 7, 79, 127
1, 364354, Note_off_c, 11, 82, 127
1, 364366, Note_on_c, 10, 81, 127
1, 364366, Note_on_c, 5, 77, 127
1, 364366, Note_on_c, 5, 65, 127
1, 364508, Note_off_c, 5, 77, 127
1, 364520, Note_on_c, 2, 74, 127
1, 364662, Note_off_c, 2, 74, 127
1, 364672, Note_off_c, 5, 65, 127
1, 364672, Note_off_c, 10, 81, 127
1, 364674, Note_on_c, 7, 79, 127
1, 364674, Note_on_c, 4, 76, 127
1, 364674, Note_on_c, 4, 64, 127
1, 364816, Note_off_c, 4, 64, 127
1, 364816, Note_off_c, 4, 76, 127
1, 364816, Note_off_c, 7, 79, 127
1, 364828, Note_on_c, 10, 81, 127
1, 364828, Note_on_c, 5, 77, 127
1, 364828, Note_on_c, 2, 62, 127
1, 364970, Note_off_c, 5, 77, 127
1, 364982, Note_on_c, 4, 76, 127
1, 365124, Note_off_c, 4, 76, 127
1, 365134, Note_off_c, 2, 62, 127
1, 365134, Note_off_c, 10, 81, 127
1, 365136, Note_on_c, 11, 82, 127
1, 365136, Note_on_c, 7, 79, 127
1, 365136, Note_on_c, 1, 61, 127
1, 365278, Note_off_c, 1, 61, 127
1, 365278, Note_off_c, 7, 79, 127
1, 365278, Note_off_c, 11, 82, 127
1, 365290, Note_on_c, 10, 81, 127
1, 365290, Note_on_c, 5, 77, 127
1, 365290, Note_on_c, 2, 62, 127
1, 365432, Note_off_c, 10, 81, 127
1, 365444, Note_on_c, 2, 74, 127
1, 365586, Note_off_c, 2, 74, 127
1, 365596, Note_off_c, 5, 77, 127
1, 365598, Note_on_c, 4, 76, 127
1, 365598, Note_on_c, 7, 67, 127
1, 365740, Note_off_c, 7, 67, 127
1, 365740, Note_off_c, 4, 76, 127
1, 365752, Note_on_c, 5, 77, 127
1, 365752, Note_on_c, 10, 69, 127
1, 365894, Note_off_c, 5, 77, 127
1, 365906, Note_on_c, 4, 76, 127
1, 365982, Note_off_c, 2, 62, 127
1, 366048, Note_off_c, 4, 76, 127
1, 366058, Note_off_c, 10, 69, 127
1, 366060, Note_on_c, 7, 79, 127
1, 366060, Note_on_c, 11, 70, 127
1, 366060, Note_on_c, 1, 61, 127
1, 366202, Note_off_c, 1, 61, 127
1, 366202, Note_off_c, 11, 70, 127
1, 366202, Note_off_c, 7, 79, 127
1, 366214, Note_on_c, 5, 77, 127
1, 366214, Note_on_c, 10, 69, 127
1, 366214, Note_on_c, 2, 62, 127
1, 366356, Note_off_c, 2, 62, 127
1, 366368, Note_on_c, 2, 50, 127
1, 366510, Note_off_c, 2, 50, 127
1, 366520, Note_off_c, 10, 69, 127
1, 366520, Note_off_c, 5, 77, 127
1, 366522, Note_on_c, 1, 73, 127
1, 366522, Note_on_c, 7, 67, 127
1, 366522, Note_on_c, 4, 64, 127
1, 366664, Note_off_c, 4, 64, 127
1, 366664, Note_off_c, 7, 67, 127
1, 366664, Note_off_c, 1, 73, 127
1, 366676, Note_on_c, 2, 74, 127
1, 366676, Note_on_c, 10, 69, 127
1, 366676, Note_on_c, 5, 65, 127
1, 366818, Note_off_c, 5, 65, 127
1, 366830, Note_on_c, 4, 64, 127
1, 366972, Note_off_c, 4, 64, 127
1, 366982, Note_off_c, 10, 69, 127
1, 366982, Note_off_c, 2, 74, 127
1, 366984, Note_on_c, 4, 76, 127
1, 366984, Note_on_c, 11, 70, 127
1, 366984, Note_on_c, 7, 67, 127
1, 367126, Note_off_c, 7, 67, 127
1, 367126, Note_off_c, 11, 70, 127
1, 367126, Note_off_c, 4, 76, 127
1, 367138, Note_on_c, 2, 74, 127
1, 367138, Note_on_c, 10, 69, 127
1, 367138, Note_on_c, 5, 65, 127
1, 367280, Note_off_c, 5, 65, 127
1, 367292, Note_on_c, 4, 64, 127
1, 367366, Note_off_c, 10, 69, 127
1, 367433, Note_off_c, 4, 64, 127
1, 367443, Note_off_c, 2, 74, 127
1, 367445, Note_on_c, 2, 74, 127
1, 367445, Note_on_c, 2, 62, 127
1, 367587, Note_off_c, 2, 62, 127
1, 367587, Note_off_c, 2, 74, 127
1, 367599, Note_on_c, 0, 72, 127
1, 367599, Note_on_c, 4, 64, 127
1, 367741, Note_off_c, 0, 72, 127
1, 367753, Note_on_c, 11, 70, 127
1, 367895, Note_off_c, 11, 70, 127
1, 367905, Note_off_c, 4, 64, 127
1, 367907, Note_on_c, 10, 69, 127
1, 367907, Note_on_c, 6, 66, 127
1, 368049, Note_off_c, 6, 66, 127
1, 368049, Note_off_c, 10, 69, 127
1, 368061, Note_on_c, 11, 70, 127
1, 368061, Note_on_c, 7, 67, 127
1, 368203, Note_off_c, 7, 67, 127
1, 368215, Note_on_c, 7, 55, 127
1, 368357, Note_off_c, 7, 55, 127
1, 368367, Note_off_c, 11, 70, 127
1, 368369, Note_on_c, 0, 72, 127
1, 368369, Note_on_c, 10, 57, 127
1, 368511, Note_off_c, 10, 57, 127
1, 368511, Note_off_c, 0, 72, 127
1, 368523, Note_on_c, 2, 74, 127
1, 368523, Note_on_c, 11, 58, 127
1, 368665, Note_off_c, 11, 58, 127
1, 368665, Note_off_c, 2, 74, 127
1, 368677, Note_on_c, 0, 72, 127
1, 368677, Note_on_c, 10, 57, 127
1, 368819, Note_off_c, 10, 57, 127
1, 368819, Note_off_c, 0, 72, 127
1, 368831, Note_on_c, 11, 70, 127
1, 368831, Note_on_c, 7, 55, 127
1, 368831, Note_on_c, 7, 43, 127
1, 368973, Note_off_c, 7, 43, 127
1, 368973, Note_off_c, 7, 55, 127
1, 368973, Note_off_c, 11, 70, 127
1, 368985, Note_on_c, 10, 69, 127
1, 368985, Note_on_c, 10, 57, 127
1, 368985, Note_on_c, 2, 62, 127
1, 368985, Note_on_c, 6, 42, 127
1, 369127, Note_off_c, 6, 42, 127
1, 369139, Note_on_c, 7, 43, 127
1, 369281, Note_off_c, 7, 43, 127
1, 369291, Note_off_c, 2, 62, 127
1, 369291, Note_off_c, 10, 57, 127
1, 369293, Note_on_c, 2, 62, 127
1, 369293, Note_on_c, 6, 42, 127
1, 369435, Note_off_c, 6, 42, 127
1, 369435, Note_off_c, 2, 62, 127
1, 369447, Note_on_c, 10, 57, 127
1, 369447, Note_on_c, 5, 41, 127
1, 369589, Note_off_c, 5, 41, 127
1, 369601, Note_on_c, 7, 43, 127
1, 369743, Note_off_c, 7, 43, 127
1, 369753, Note_off_c, 10, 57, 127
1, 369753, Note_off_c, 10, 69, 127
1, 369755, Note_on_c, 10, 69, 127
1, 369755, Note_on_c, 2, 62, 127
1, 369755, Note_on_c, 10, 57, 127
1, 369755, Note_on_c, 5, 41, 127
1, 369897, Note_off_c, 5, 41, 127
1, 369897, Note_off_c, 10, 57, 127
1, 369897, Note_off_c, 2, 62, 127
1, 369897, Note_off_c, 10, 69, 127
1, 369909, Note_on_c, 7, 67, 127
1, 369909, Note_on_c, 7, 55, 127
1, 369909, Note_on_c, 0, 60, 127
1, 369909, Note_on_c, 4, 40, 127
1, 370051, Note_off_c, 4, 40, 127
1, 370063, Note_on_c, 5, 41, 127
1, 370205, Note_off_c, 5, 41, 127
1, 370215, Note_off_c, 0, 60, 127
1, 370215, Note_off_c, 7, 55, 127
1, 370217, Note_on_c, 0, 60, 127
1, 370217, Note_on_c, 4, 40, 127
1, 370359, Note_off_c, 4, 40, 127
1, 370359, Note_off_c, 0, 60, 127
1, 370371, Note_on_c, 7, 55, 127
1, 370371, Note_on_c, 3, 39, 127
1, 370513, Note_off_c, 3, 39, 127
1, 370525, Note_on_c, 5, 41, 127
1, 370667, Note_off_c, 5, 41, 127
1, 370677, Note_off_c, 7, 55, 127
1, 370677, Note_off_c, 7, 67, 127
1, 370679, Note_on_c, 0, 60, 127
1, 370679, Note_on_c, 7, 55, 127
1, 370679, Note_on_c, 3, 39, 127
1, 370821, Note_off_c, 3, 39, 127
1, 370821, Note_off_c, 7, 55, 127
1, 370821, Note_off_c, 0, 60, 127
1, 370833, Note_on_c, 2, 62, 127
1, 370833, Note_on_c, 7, 55, 127
1, 370833, Note_on_c, 11, 58, 127
1, 370833, Note_on_c, 2, 38, 127
1, 370975, Note_off_c, 2, 38, 127
1, 370987, Note_on_c, 3, 39, 127
1, 371129, Note_off_c, 3, 39, 127
1, 371139, Note_off_c, 11, 58, 127
1, 371139, Note_off_c, 7, 55, 127
1, 371139, Note_off_c, 2, 62, 127
1, 371141, Note_on_c, 2, 62, 127
1, 371141, Note_on_c, 7, 55, 127
1, 371141, Note_on_c, 11, 58, 127
1, 371141, Note_on_c, 2, 38, 127
1, 371283, Note_off_c, 2, 38, 127
1, 371283, Note_off_c, 11, 58, 127
1, 371283, Note_off_c, 7, 55, 127
1, 371283, Note_off_c, 2, 62, 127
1, 371295, Note_on_c, 2, 62, 127
1, 371295, Note_on_c, 10, 57, 127
1, 371295, Note_on_c, 6, 54, 127
1, 371295, Note_on_c, 2, 50, 127
1, 371437, Note_off_c, 2, 50, 127
1, 371449, Note_on_c, 2, 38, 127
1, 371591, Note_off_c, 2, 38, 127
1, 371601, Note_off_c, 6, 54, 127
1, 371601, Note_off_c, 10, 57, 127
1, 371601, Note_off_c, 2, 62, 127
1, 371603, Note_on_c, 2, 62, 127
1, 371603, Note_on_c, 10, 57, 127
1, 371603, Note_on_c, 6, 54, 127
1, 371603, Note_on_c, 2, 50, 127
1, 371745, Note_off_c, 2, 50, 127
1, 371745, Note_off_c, 6, 54, 127
1, 371745, Note_off_c, 10, 57, 127
1, 371745, Note_off_c, 2, 62, 127
1, 371757, Note_on_c, 2, 62, 127
1, 371757, Note_on_c, 10, 57, 127
1, 371757, Note_on_c, 6, 54, 127
1, 371757, Note_on_c, 0, 36, 127
1, 371899, Note_off_c, 0, 36, 127
1, 371911, Note_on_c, 2, 38, 127
1, 372053, Note_off_c, 2, 38, 127
1, 372065, Note_on_c, 0, 36, 127
1, 372207, Note_off_c, 0, 36, 127
1, 372219, Note_on_c, 0, 48, 127
1, 372361, Note_off_c, 0, 48, 127
1, 372373, Note_on_c, 0, 36, 127
1, 372449, Note_off_c, 6, 54, 127
1, 372449, Note_off_c, 10, 57, 127
1, 372449, Note_off_c, 2, 62, 127
1, 372515, Note_off_c, 0, 36, 127
1, 372527, Note_on_c, 6, 66, 127
1, 372527, Note_on_c, 10, 57, 127
1, 372527, Note_on_c, 3, 63, 127
1, 372527, Note_on_c, 0, 48, 127
1, 372669, Note_off_c, 0, 48, 127
1, 372669, Note_off_c, 3, 63, 127
1, 372669, Note_off_c, 10, 57, 127
1, 372669, Note_off_c, 6, 66, 127
1, 372681, Note_on_c, 2, 62, 127
1, 372681, Note_on_c, 7, 67, 127
1, 372681, Note_on_c, 11, 58, 127
1, 372681, Note_on_c, 11, 46, 127
1, 372823, Note_off_c, 11, 46, 127
1, 372835, Note_on_c, 7, 43, 127
1, 372977, Note_off_c, 7, 43, 127
1, 372987, Note_off_c, 7, 67, 127
1, 372987, Note_off_c, 2, 62, 127
1, 372989, Note_on_c, 0, 60, 127
1, 372989, Note_on_c, 6, 66, 127
1, 372989, Note_on_c, 10, 45, 127
1, 373131, Note_off_c, 10, 45, 127
1, 373131, Note_off_c, 6, 66, 127
1, 373131, Note_off_c, 0, 60, 127
1, 373141, Note_off_c, 11, 58, 127
1, 373143, Note_on_c, 7, 67, 127
1, 373143, Note_on_c, 2, 62, 127
1, 373143, Note_on_c, 11, 58, 127
1, 373143, Note_on_c, 11, 46, 127
1, 373285, Note_off_c, 11, 46, 127
1, 373297, Note_on_c, 10, 45, 127
1, 373439, Note_off_c, 10, 45, 127
1, 373449, Note_off_c, 11, 58, 127
1, 373449, Note_off_c, 2, 62, 127
1, 373449, Note_off_c, 7, 67, 127
1, 373451, Note_on_c, 3, 63, 127
1, 373451, Note_on_c, 10, 69, 127
1, 373451, Note_on_c, 10, 57, 127
1, 373451, Note_on_c, 0, 48, 127
1, 373593, Note_off_c, 0, 48, 127
1, 373593, Note_off_c, 10, 57, 127
1, 373593, Note_off_c, 10, 69, 127
1, 373593, Note_off_c, 3, 63, 127
1, 373605, Note_on_c, 2, 62, 127
1, 373605, Note_on_c, 7, 67, 127
1, 373605, Note_on_c, 11, 58, 127
1, 373605, Note_on_c, 11, 46, 127
1, 373747, Note_off_c, 11, 58, 127
1, 373759, Note_on_c, 7, 55, 127
1, 373901, Note_off_c, 7, 55, 127
1, 373911, Note_off_c, 11, 46, 127
1, 373911, Note_off_c, 7, 67, 127
1, 373911, Note_off_c, 2, 62, 127
1, 373913, Note_on_c, 0, 60, 127
1, 373913, Note_on_c, 6, 66, 127
1, 373913, Note_on_c, 10, 57, 127
1, 373913, Note_on_c, 10, 45, 127
1, 374055, Note_off_c, 10, 45, 127
1, 374055, Note_off_c, 10, 57, 127
1, 374055, Note_off_c, 6, 66, 127
1, 374055, Note_off_c, 0, 60, 127
1, 374067, Note_on_c, 2, 62, 127
1, 374067, Note_on_c, 7, 67, 127
1, 374067, Note_on_c, 11, 58, 127
1, 374067, Note_on_c, 7, 43, 127
1, 374209, Note_off_c, 11, 58, 127
1, 374221, Note_on_c, 10, 57, 127
1, 374363, Note_off_c, 10, 57, 127
1, 374373, Note_off_c, 7, 43, 127
1, 374373, Note_off_c, 7, 67, 127
1, 374373, Note_off_c, 2, 62, 127
1, 374375, Note_on_c, 10, 69, 127
1, 374375, Note_on_c, 3, 63, 127
1, 374375, Note_on_c, 0, 60, 127
1, 374375, Note_on_c, 6, 42, 127
1, 374517, Note_off_c, 6, 42, 127
1, 374517, Note_off_c, 0, 60, 127
1, 374517, Note_off_c, 3, 63, 127
1, 374517, Note_off_c, 10, 69, 127
1, 374529, Note_on_c, 7, 67, 127
1, 374529, Note_on_c, 2, 62, 127
1, 374529, Note_on_c, 11, 58, 127
1, 374529, Note_on_c, 7, 43, 127
1, 374671, Note_off_c, 2, 62, 127
1, 374671, Note_off_c, 7, 67, 127
1, 374673, Note_off_c, 11, 58, 127
1, 374683, Note_on_c, 7, 67, 127
1, 374683, Note_on_c, 11, 70, 127
1, 374825, Note_off_c, 11, 70, 127
1, 374825, Note_off_c, 7, 67, 127
1, 374837, Note_on_c, 0, 72, 127
1, 374837, Note_on_c, 10, 69, 127
1, 374866, Note_off_c, 7, 43, 127
1, 374979, Note_off_c, 10, 69, 127
1, 374979, Note_off_c, 0, 72, 127
1, 374991, Note_on_c, 2, 74, 127
1, 374991, Note_on_c, 11, 70, 127
1, 375133, Note_off_c, 11, 70, 127
1, 375133, Note_off_c, 2, 74, 127
1, 375145, Note_on_c, 0, 72, 127
1, 375145, Note_on_c, 10, 69, 127
1, 375287, Note_off_c, 10, 69, 127
1, 375287, Note_off_c, 0, 72, 127
1, 375299, Note_on_c, 3, 75, 127
1, 375299, Note_on_c, 0, 72, 127
1, 375441, Note_off_c, 0, 72, 127
1, 375441, Note_off_c, 3, 75, 127
1, 375453, Note_on_c, 2, 74, 127
1, 375453, Note_on_c, 11, 70, 127
1, 375453, Note_on_c, 11, 58, 127
1, 375453, Note_on_c, 7, 55, 127
1, 375595, Note_off_c, 7, 55, 127
1, 375595, Note_off_c, 11, 58, 127
1, 375595, Note_off_c, 11, 70, 127
1, 375595, Note_off_c, 2, 74, 127
1, 375607, Note_on_c, 7, 67, 127
1, 375607, Note_on_c, 11, 70, 127
1, 375607, Note_on_c, 2, 62, 127
1, 375607, Note_on_c, 11, 58, 127
1, 375749, Note_off_c, 11, 58, 127
1, 375749, Note_off_c, 2, 62, 127
1, 375749, Note_off_c, 11, 70, 127
1, 375749, Note_off_c, 7, 67, 127
1, 375761, Note_on_c, 0, 72, 127
1, 375761, Note_on_c, 10, 69, 127
1, 375761, Note_on_c, 0, 60, 127
1, 375761, Note_on_c, 10, 57, 127
1, 375903, Note_off_c, 10, 57, 127
1, 375903, Note_off_c, 0, 60, 127
1, 375903, Note_off_c, 10, 69, 127
1, 375903, Note_off_c, 0, 72, 127
1, 375915, Note_on_c, 2, 74, 127
1, 375915, Note_on_c, 11, 70, 127
1, 375915, Note_on_c, 7, 55, 127
1, 375915, Note_on_c, 11, 58, 127
1, 376057, Note_off_c, 11, 58, 127
1, 376057, Note_off_c, 7, 55, 127
1, 376057, Note_off_c, 11, 70, 127
1, 376057, Note_off_c, 2, 74, 127
1, 376069, Note_on_c, 10, 69, 127
1, 376069, Note_on_c, 0, 72, 127
1, 376069, Note_on_c, 0, 60, 127
1, 376069, Note_on_c, 10, 57, 127
1, 376211, Note_off_c, 10, 57, 127
1, 376211, Note_off_c, 0, 60, 127
1, 376211, Note_off_c, 0, 72, 127
1, 376211, Note_off_c, 10, 69, 127
1, 376223, Note_on_c, 0, 72, 127
1, 376223, Note_on_c, 3, 75, 127
1, 376223, Note_on_c, 6, 54, 127
1, 376223, Note_on_c, 10, 57, 127
1, 376365, Note_off_c, 10, 57, 127
1, 376365, Note_off_c, 6, 54, 127
1, 376365, Note_off_c, 3, 75, 127
1, 376365, Note_off_c, 0, 72, 127
1, 376377, Note_on_c, 2, 74, 127
1, 376377, Note_on_c, 11, 70, 127
1, 376377, Note_on_c, 7, 55, 127
1, 376377, Note_on_c, 11, 58, 127
1, 376519, Note_off_c, 11, 58, 127
1, 376519, Note_off_c, 7, 55, 127
1, 376519, Note_off_c, 11, 70, 127
1, 376519, Note_off_c, 2, 74, 127
1, 376531, Note_on_c, 7, 67, 127
1, 376531, Note_on_c, 11, 70, 127
1, 376531, Note_on_c, 2, 62, 127
1, 376531, Note_on_c, 11, 58, 127
1, 376673, Note_off_c, 11, 58, 127
1, 376673, Note_off_c, 2, 62, 127
1, 376673, Note_off_c, 11, 70, 127
1, 376673, Note_off_c, 7, 67, 127
1, 376685, Note_on_c, 10, 69, 127
1, 376685, Note_on_c, 0, 72, 127
1, 376685, Note_on_c, 10, 57, 127
1, 376685, Note_on_c, 0, 60, 127
1, 376827, Note_off_c, 0, 60, 127
1, 376827, Note_off_c, 10, 57, 127
1, 376827, Note_off_c, 0, 72, 127
1, 376827, Note_off_c, 10, 69, 127
1, 376839, Note_on_c, 2, 74, 127
1, 376839, Note_on_c, 11, 70, 127
1, 376839, Note_on_c, 7, 55, 127
1, 376839, Note_on_c, 11, 58, 127
1, 376981, Note_off_c, 11, 58, 127
1, 376981, Note_off_c, 7, 55, 127
1, 376981, Note_off_c, 11, 70, 127
1, 376981, Note_off_c, 2, 74, 127
1, 376993, Note_on_c, 10, 69, 127
1, 376993, Note_on_c, 0, 72, 127
1, 376993, Note_on_c, 10, 57, 127
1, 376993, Note_on_c, 0, 60, 127
1, 377135, Note_off_c, 0, 60, 127
1, 377135, Note_off_c, 10, 57, 127
1, 377135, Note_off_c, 0, 72, 127
1, 377135, Note_off_c, 10, 69, 127
1, 377147, Note_on_c, 0, 72, 127
1, 377147, Note_on_c, 3, 75, 127
1, 377147, Note_on_c, 6, 54, 127
1, 377147, Note_on_c, 10, 57, 127
1, 377289, Note_off_c, 10, 57, 127
1, 377289, Note_off_c, 6, 54, 127
1, 377289, Note_off_c, 3, 75, 127
1, 377289, Note_off_c, 0, 72, 127
1, 377301, Note_on_c, 11, 70, 127
1, 377301, Note_on_c, 2, 74, 127
1, 377301, Note_on_c, 7, 55, 127
1, 377301, Note_on_c, 11, 58, 127
1, 377443, Note_off_c, 2, 74, 127
1, 377443, Note_off_c, 11, 70, 127
1, 377455, Note_on_c, 7, 67, 127
1, 377597, Note_off_c, 7, 67, 127
1, 377607, Note_off_c, 11, 58, 127
1, 377607, Note_off_c, 7, 55, 127
1, 377609, Note_on_c, 10, 69, 127
1, 377609, Note_on_c, 3, 63, 127
1, 377609, Note_on_c, 0, 60, 127
1, 377609, Note_on_c, 0, 48, 127
1, 377751, Note_off_c, 0, 48, 127
1, 377751, Note_off_c, 0, 60, 127
1, 377751, Note_off_c, 3, 63, 127
1, 377751, Note_off_c, 10, 69, 127
1, 377763, Note_on_c, 6, 66, 127
1, 377763, Note_on_c, 2, 62, 127
1, 377763, Note_on_c, 2, 50, 127
1, 377763, Note_on_c, 10, 57, 127
1, 378068, Note_off_c, 10, 57, 127
1, 378068, Note_off_c, 2, 50, 127
1, 378068, Note_off_c, 2, 62, 127
1, 378068, Note_off_c, 6, 66, 127
1, 378070, Note_on_c, 2, 62, 127
1, 378070, Note_on_c, 6, 66, 127
1, 378070, Note_on_c, 0, 60, 127
1, 378070, Note_on_c, 2, 38, 127
1, 378212, Note_off_c, 2, 38, 127
1, 378212, Note_off_c, 0, 60, 127
1, 378212, Note_off_c, 6, 66, 127
1, 378212, Note_off_c, 2, 62, 127
1, 378224, Note_on_c, 2, 62, 127
1, 378224, Note_on_c, 7, 67, 127
1, 378224, Note_on_c, 7, 55, 127
1, 378224, Note_on_c, 11, 58, 127
1, 378224, Note_on_c, 7, 43, 127
1, 378529, Note_off_c, 7, 67, 127
1, 378529, Note_off_c, 2, 62, 127
1, 378627, Note_on_c, 7, 79, 127
1, 378769, Note_off_c, 7, 79, 127
1, 378781, Note_on_c, 11, 82, 127
1, 378800, Note_off_c, 7, 43, 127
1, 378800, Note_off_c, 11, 58, 127
1, 378800, Note_off_c, 7, 55, 127
1, 378920, Note_off_c, 11, 82, 127
1, 378934, Note_on_c, 10, 81, 127
1, 379073, Note_off_c, 10, 81, 127
1, 379087, Note_on_c, 7, 79, 127
1, 379226, Note_off_c, 7, 79, 127
1, 379240, Note_on_c, 6, 78, 127
1, 379394, Note_on_c, 10, 81, 127
1, 379468, Note_off_c, 6, 78, 127
1, 379535, Note_off_c, 10, 81, 127
1, 379547, Note_on_c, 2, 74, 127
1, 379689, Note_off_c, 2, 74, 127
1, 379701, Note_on_c, 0, 72, 127
1, 379840, Note_off_c, 0, 72, 127
1, 379854, Note_on_c, 2, 74, 127
1, 379993, Note_off_c, 2, 74, 127
1, 380007, Note_on_c, 10, 69, 127
1, 380146, Note_off_c, 10, 69, 127
1, 380160, Note_on_c, 11, 70, 127
1, 380314, Note_on_c, 2, 74, 127
1, 380388, Note_off_c, 11, 70, 127
1, 380455, Note_off_c, 2, 74, 127
1, 380467, Note_on_c, 7, 67, 127
1, 380609, Note_off_c, 7, 67, 127
1, 380621, Note_on_c, 11, 70, 127
1, 380760, Note_off_c, 11, 70, 127
1, 380774, Note_on_c, 10, 69, 127
1, 380913, Note_off_c, 10, 69, 127
1, 380927, Note_on_c, 7, 67, 127
1, 381066, Note_off_c, 7, 67, 127
1, 381080, Note_on_c, 6, 66, 127
1, 381234, Note_on_c, 10, 69, 127
1, 381308, Note_off_c, 6, 66, 127
1, 381375, Note_off_c, 10, 69, 127
1, 381387, Note_on_c, 2, 62, 127
1, 381529, Note_off_c, 2, 62, 127
1, 381541, Note_on_c, 0, 60, 127
1, 381680, Note_off_c, 0, 60, 127
1, 381694, Note_on_c, 2, 62, 127
1, 381833, Note_off_c, 2, 62, 127
1, 381847, Note_on_c, 10, 57, 127
1, 381986, Note_off_c, 10, 57, 127
1, 382000, Note_on_c, 11, 58, 127
1, 382154, Note_on_c, 2, 62, 127
1, 382228, Note_off_c, 11, 58, 127
1, 382295, Note_off_c, 2, 62, 127
1, 382307, Note_on_c, 7, 55, 127
1, 382449, Note_off_c, 7, 55, 127
1, 382461, Note_on_c, 11, 58, 127
1, 382600, Note_off_c, 11, 58, 127
1, 382614, Note_on_c, 10, 57, 127
1, 382753, Note_off_c, 10, 57, 127
1, 382767, Note_on_c, 7, 55, 127
1, 382906, Note_off_c, 7, 55, 127
1, 382920, Note_on_c, 6, 54, 127
1, 383074, Note_on_c, 10, 57, 127
1, 383148, Note_off_c, 6, 54, 127
1, 383225, Note_off_c, 10, 57, 127
1, 383227, Note_on_c, 2, 50, 127
1, 383378, Note_off_c, 2, 50, 127
1, 383380, Note_on_c, 0, 48, 127
1, 383519, Note_off_c, 0, 48, 127
1, 383533, Note_on_c, 2, 50, 127
1, 383672, Note_off_c, 2, 50, 127
1, 383686, Note_on_c, 10, 45, 127
1, 383825, Note_off_c, 10, 45, 127
1, 383839, Note_on_c, 11, 46, 127
1, 383993, Note_on_c, 2, 50, 127
1, 384067, Note_off_c, 11, 46, 127
1, 384144, Note_off_c, 2, 50, 127
1, 384146, Note_on_c, 7, 43, 127
1, 384297, Note_off_c, 7, 43, 127
1, 384299, Note_on_c, 11, 46, 127
1, 384438, Note_off_c, 11, 46, 127
1, 384452, Note_on_c, 10, 45, 127
1, 384591, Note_off_c, 10, 45, 127
1, 384605, Note_on_c, 7, 43, 127
1, 384744, Note_off_c, 7, 43, 127
1, 384758, Note_on_c, 6, 42, 127
1, 384912, Note_on_c, 10, 45, 127
1, 384986, Note_off_c, 6, 42, 127
1, 385063, Note_off_c, 10, 45, 127
1, 385065, Note_on_c, 2, 38, 127
1, 385216, Note_off_c, 2, 38, 127
1, 385218, Note_on_c, 3, 51, 127
1, 385357, Note_off_c, 3, 51, 127
1, 385371, Note_on_c, 2, 50, 127
1, 385510, Note_off_c, 2, 50, 127
1, 385524, Note_on_c, 0, 48, 127
1, 385663, Note_off_c, 0, 48, 127
1, 385677, Note_on_c, 11, 46, 127
1, 385831, Note_on_c, 2, 50, 127
1, 385905, Note_off_c, 11, 46, 127
1, 385982, Note_off_c, 2, 50, 127
1, 385984, Note_on_c, 7, 43, 127
1, 386135, Note_off_c, 7, 43, 127
1, 386137, Note_on_c, 11, 58, 127
1, 386276, Note_off_c, 11, 58, 127
1, 386290, Note_on_c, 10, 57, 127
1, 386429, Note_off_c, 10, 57, 127
1, 386443, Note_on_c, 7, 55, 127
1, 386582, Note_off_c, 7, 55, 127
1, 386596, Note_on_c, 6, 54, 127
1, 386750, Note_on_c, 10, 57, 127
1, 386824, Note_off_c, 6, 54, 127
1, 386901, Note_off_c, 10, 57, 127
1, 386903, Note_on_c, 2, 50, 127
1, 387054, Note_off_c, 2, 50, 127
1, 387056, Note_on_c, 11, 58, 127
1, 387188, Note_off_c, 11, 58, 127
1, 387210, Note_on_c, 10, 57, 127
1, 387342, Note_off_c, 10, 57, 127
1, 387364, Note_on_c, 7, 55, 127
1, 387496, Note_off_c, 7, 55, 127
1, 387518, Note_on_c, 6, 54, 127
1, 387650, Note_off_c, 6, 54, 127
1, 387672, Note_on_c, 10, 57, 127
1, 387804, Note_off_c, 10, 57, 127
1, 387826, Note_on_c, 2, 50, 127
1, 387958, Note_off_c, 2, 50, 127
1, 387980, Note_on_c, 3, 51, 127
1, 388131, Note_off_c, 3, 51, 127
1, 388133, Note_on_c, 2, 50, 127
1, 388284, Note_off_c, 2, 50, 127
1, 388286, Note_on_c, 0, 48, 127
1, 388437, Note_off_c, 0, 48, 127
1, 388439, Note_on_c, 11, 46, 127
1, 388593, Note_on_c, 2, 50, 127
1, 388667, Note_off_c, 11, 46, 127
1, 388744, Note_off_c, 2, 50, 127
1, 388746, Note_on_c, 7, 43, 127
1, 388897, Note_off_c, 7, 43, 127
1, 388899, Note_on_c, 3, 51, 127
1, 389025, Note_off_c, 3, 51, 127
1, 389053, Note_on_c, 2, 50, 127
1, 389179, Note_off_c, 2, 50, 127
1, 389207, Note_on_c, 0, 48, 127
1, 389333, Note_off_c, 0, 48, 127
1, 389361, Note_on_c, 11, 46, 127
1, 389487, Note_off_c, 11, 46, 127
1, 389515, Note_on_c, 2, 50, 127
1, 389641, Note_off_c, 2, 50, 127
1, 389669, Note_on_c, 7, 43, 127
1, 389795, Note_off_c, 7, 43, 127
1, 389823, Note_on_c, 10, 45, 127
1, 389977, Note_on_c, 0, 48, 127
1, 389991, Note_off_c, 10, 45, 127
1, 390155, Note_off_c, 0, 48, 127
1, 390162, Note_on_c, 6, 42, 127
1, 390322, Note_off_c, 6, 42, 127
1, 390362, Note_on_c, 7, 43, 127
1, 390362, Note_on_c, 7, 55, 127
1, 390439, Note_on_c, 3, 51, 127
1, 390439, Note_on_c, 0, 48, 127
1, 390477, Note_on_c, 0, 60, 127
1, 390515, Note_on_c, 3, 63, 127
1, 390553, Note_on_c, 7, 67, 127
1, 390553, Note_on_c, 0, 72, 127
1, 391357, Note_off_c, 3, 51, 127
1, 391734, Note_off_c, 0, 72, 127
1, 391734, Note_off_c, 7, 67, 127
1, 391734, Note_off_c, 3, 63, 127
1, 391734, Note_off_c, 0, 60, 127
1, 391738, Note_off_c, 0, 48, 127
1, 391742, Note_off_c, 7, 55, 127
1, 391744, Note_on_c, 0, 48, 127
1, 391744, Note_on_c, 3, 51, 127
1, 391744, Note_on_c, 0, 60, 127
1, 391744, Note_on_c, 10, 57, 127
1, 391744, Note_on_c, 7, 67, 127
1, 391898, Note_off_c, 7, 67, 127
1, 391898, Note_on_c, 6, 66, 127
1, 391948, Note_off_c, 3, 51, 127
1, 391974, Note_off_c, 6, 66, 127
1, 391974, Note_on_c, 7, 67, 127
1, 392051, Note_off_c, 7, 67, 127
1, 392051, Note_on_c, 6, 66, 127
1, 392128, Note_off_c, 6, 66, 127
1, 392128, Note_on_c, 7, 67, 127
1, 392147, Note_on_c, 6, 66, 127
1, 392205, Note_off_c, 7, 67, 127
1, 392205, Note_on_c, 7, 67, 127
1, 392224, Note_off_c, 6, 66, 127
1, 392262, Note_on_c, 6, 66, 127
1, 392281, Note_off_c, 7, 67, 127
1, 392319, Note_on_c, 7, 67, 127
1, 392338, Note_off_c, 6, 66, 127
1, 392376, Note_on_c, 6, 66, 127
1, 392395, Note_off_c, 7, 67, 127
1, 392433, Note_on_c, 7, 67, 127
1, 392452, Note_off_c, 6, 66, 127
1, 392490, Note_on_c, 6, 66, 127
1, 392509, Note_off_c, 7, 67, 127
1, 392547, Note_on_c, 7, 67, 127
1, 392566, Note_off_c, 6, 66, 127
1, 392604, Note_on_c, 6, 66, 127
1, 392623, Note_off_c, 7, 67, 127
1, 393120, Note_off_c, 0, 60, 127
1, 393418, Note_off_c, 6, 66, 127
1, 393430, Note_on_c, 7, 67, 127
1, 393778, Note_off_c, 7, 43, 127
1, 393780, Note_off_c, 10, 57, 127
1, 393780, Note_off_c, 0, 48, 127
1, 393790, Note_off_c, 7, 67, 127
1, 393814, Note_on_c, 2, 62, 127
1, 393814, Note_on_c, 12, 59, 127
1, 393814, Note_on_c, 7, 55, 127
1, 393814, Note_on_c, 2, 50, 127
1, 393814, Note_on_c, 7, 43, 127
1, 393814, Note_on_c, 7, 67, 127
1, 396514, Note_off_c, 12, 59, 127
1, 396574, Note_off_c, 7, 67, 127
1, 396574, Note_off_c, 7, 43, 127
1, 396574, Note_off_c, 2, 50, 127
1, 396574, Note_off_c, 7, 55, 127
1, 396574, Note_off_c, 2, 62, 127
1, 400896, End_track
0, 0, End_of_file
