0, 0, Header, 0, 1, 384
1, 0, Start_track
1, 0, Copyright_t, "(C) John Sankey 1998"
1, 0, Program_c, 0, 6
1, 0, Pitch_bend_c, 0, 8192
1, 0, Program_c, 1, 6
1, 0, Pitch_bend_c, 1, 7792
1, 0, Program_c, 2, 6
1, 0, Pitch_bend_c, 2, 7876
1, 0, Program_c, 3, 6
1, 0, Pitch_bend_c, 3, 7952
1, 0, Program_c, 4, 6
1, 0, Pitch_bend_c, 4, 7792
1, 0, Program_c, 5, 6
1, 0, Pitch_bend_c, 5, 8112
1, 0, Program_c, 6, 6
1, 0, Pitch_bend_c, 6, 7712
1, 0, Program_c, 7, 6
1, 0, Pitch_bend_c, 7, 8037
1, 0, Program_c, 8, 6
1, 0, Pitch_bend_c, 8, 7872
1, 0, Program_c, 10, 6
1, 0, Pitch_bend_c, 10, 7712
1, 0, Program_c, 11, 6
1, 0, Pitch_bend_c, 11, 8032
1, 0, Program_c, 12, 6
1, 0, Pitch_bend_c, 12, 7872
1, 0, Tempo, 500000
1, 32, Note_on_c, 7, 79, 127
1, 32, Note_on_c, 7, 55, 127
1, 673, Note_off_c, 7, 79, 127
1, 682, Note_on_c, 7, 79, 127
1, 682, Note_on_c, 12, 59, 127
1, 1325, Note_off_c, 7, 79, 127
1, 1334, Note_on_c, 10, 81, 127
1, 1334, Note_on_c, 2, 62, 127
1, 1408, Note_on_c, 7, 79, 127
1, 1452, Note_off_c, 10, 81, 127
1, 1480, Note_off_c, 7, 79, 127
1, 1484, Note_on_c, 10, 81, 127
1, 1816, Note_off_c, 10, 81, 127
1, 1823, Note_on_c, 12, 83, 127
1, 1966, Note_off_c, 7, 55, 127
1, 1971, Note_off_c, 12, 59, 127
1, 1982, Note_off_c, 12, 83, 127
1, 1986, Note_on_c, 10, 81, 127
1, 1986, Note_on_c, 6, 54, 127
1, 2141, Note_off_c, 2, 62, 127
1, 2307, Note_off_c, 10, 81, 127
1, 2313, Note_on_c, 7, 79, 127
1, 2472, Note_off_c, 7, 79, 127
1, 2476, Note_on_c, 6, 78, 127
1, 2635, Note_off_c, 6, 78, 127
1, 2639, Note_on_c, 4, 76, 127
1, 2639, Note_on_c, 10, 57, 127
1, 2960, Note_off_c, 4, 76, 127
1, 2966, Note_on_c, 2, 74, 127
1, 3291, Note_on_c, 2, 62, 127
1, 3851, Note_off_c, 2, 74, 127
1, 3922, Note_off_c, 6, 54, 127
1, 3928, Note_off_c, 10, 57, 127
1, 3929, Note_off_c, 2, 62, 127
1, 3943, Note_on_c, 7, 67, 127
1, 3943, Note_on_c, 4, 52, 127
1, 4025, Note_on_c, 6, 66, 127
1, 4062, Note_off_c, 7, 67, 127
1, 4103, Note_off_c, 6, 66, 127
1, 4106, Note_on_c, 7, 67, 127
1, 4587, Note_off_c, 7, 67, 127
1, 4595, Note_on_c, 10, 69, 127
1, 4595, Note_on_c, 7, 55, 127
1, 4676, Note_on_c, 7, 67, 127
1, 4714, Note_off_c, 10, 69, 127
1, 4754, Note_off_c, 7, 67, 127
1, 4758, Note_on_c, 6, 66, 127
1, 4840, Note_on_c, 7, 67, 127
1, 4877, Note_off_c, 6, 66, 127
1, 4918, Note_off_c, 7, 67, 127
1, 4921, Note_on_c, 10, 69, 127
1, 4999, Note_off_c, 10, 69, 127
1, 5003, Note_on_c, 7, 67, 127
1, 5081, Note_off_c, 7, 67, 127
1, 5085, Note_on_c, 10, 69, 127
1, 5163, Note_off_c, 10, 69, 127
1, 5166, Note_on_c, 7, 67, 127
1, 5244, Note_off_c, 7, 67, 127
1, 5248, Note_on_c, 10, 69, 127
1, 5248, Note_on_c, 1, 61, 127
1, 5326, Note_off_c, 10, 69, 127
1, 5329, Note_on_c, 7, 67, 127
1, 5407, Note_off_c, 7, 67, 127
1, 5411, Note_on_c, 10, 69, 127
1, 5489, Note_off_c, 10, 69, 127
1, 5493, Note_on_c, 7, 67, 127
1, 5571, Note_off_c, 7, 67, 127
1, 5574, Note_on_c, 10, 69, 127
1, 5656, Note_on_c, 7, 67, 127
1, 5693, Note_off_c, 10, 69, 127
1, 5734, Note_off_c, 7, 67, 127
1, 5737, Note_on_c, 6, 66, 127
1, 5815, Note_off_c, 6, 66, 127
1, 5819, Note_on_c, 7, 67, 127
1, 5870, Note_off_c, 1, 61, 127
1, 5880, Note_off_c, 4, 52, 127
1, 5886, Note_off_c, 7, 55, 127
1, 5897, Note_off_c, 7, 67, 127
1, 5901, Note_on_c, 10, 69, 127
1, 5901, Note_on_c, 2, 50, 127
1, 5982, Note_on_c, 7, 67, 127
1, 6020, Note_off_c, 10, 69, 127
1, 6060, Note_off_c, 7, 67, 127
1, 6064, Note_on_c, 6, 66, 127
1, 6223, Note_off_c, 6, 66, 127
1, 6227, Note_on_c, 7, 67, 127
1, 6309, Note_on_c, 6, 66, 127
1, 6346, Note_off_c, 7, 67, 127
1, 6387, Note_off_c, 6, 66, 127
1, 6390, Note_on_c, 4, 64, 127
1, 6549, Note_off_c, 4, 64, 127
1, 6554, Note_on_c, 4, 64, 127
1, 6554, Note_on_c, 6, 54, 127
1, 6875, Note_off_c, 4, 64, 127
1, 6880, Note_on_c, 2, 62, 127
1, 7206, Note_on_c, 10, 57, 127
1, 7514, Note_off_c, 2, 50, 127
1, 7532, Note_on_c, 0, 48, 127
1, 7844, Note_off_c, 6, 54, 127
1, 7850, Note_off_c, 10, 57, 127
1, 7853, Note_off_c, 0, 48, 127
1, 7859, Note_on_c, 2, 74, 127
1, 7859, Note_on_c, 12, 47, 127
1, 7980, Note_off_c, 2, 62, 127
1, 8500, Note_off_c, 2, 74, 127
1, 8509, Note_on_c, 2, 74, 127
1, 8509, Note_on_c, 2, 50, 127
1, 9152, Note_off_c, 2, 74, 127
1, 9161, Note_on_c, 4, 76, 127
1, 9161, Note_on_c, 7, 55, 127
1, 9243, Note_on_c, 2, 74, 127
1, 9280, Note_off_c, 4, 76, 127
1, 9321, Note_off_c, 2, 74, 127
1, 9325, Note_on_c, 4, 76, 127
1, 9646, Note_off_c, 4, 76, 127
1, 9651, Note_on_c, 5, 77, 127
1, 9794, Note_off_c, 12, 47, 127
1, 9799, Note_off_c, 2, 50, 127
1, 9810, Note_off_c, 5, 77, 127
1, 9814, Note_on_c, 4, 76, 127
1, 9814, Note_on_c, 0, 48, 127
1, 10135, Note_off_c, 4, 76, 127
1, 10141, Note_on_c, 2, 74, 127
1, 10300, Note_off_c, 2, 74, 127
1, 10304, Note_on_c, 0, 72, 127
1, 10452, Note_off_c, 7, 55, 127
1, 10463, Note_off_c, 0, 72, 127
1, 10467, Note_on_c, 12, 71, 127
1, 10467, Note_on_c, 4, 52, 127
1, 10788, Note_off_c, 12, 71, 127
1, 10794, Note_on_c, 10, 69, 127
1, 11119, Note_on_c, 10, 57, 127
1, 11429, Note_off_c, 0, 48, 127
1, 11434, Note_off_c, 4, 52, 127
1, 11437, Note_off_c, 10, 69, 127
1, 11446, Note_on_c, 7, 79, 127
1, 11446, Note_on_c, 2, 50, 127
1, 11527, Note_on_c, 6, 78, 127
1, 11565, Note_off_c, 7, 79, 127
1, 11605, Note_off_c, 6, 78, 127
1, 11609, Note_on_c, 4, 76, 127
1, 11687, Note_off_c, 4, 76, 127
1, 11690, Note_on_c, 6, 78, 127
1, 11767, Note_off_c, 2, 50, 127
1, 11768, Note_off_c, 6, 78, 127
1, 11772, Note_on_c, 7, 79, 127
1, 11772, Note_on_c, 4, 52, 127
1, 11826, Note_off_c, 10, 57, 127
1, 11854, Note_on_c, 6, 78, 127
1, 11891, Note_off_c, 7, 79, 127
1, 12093, Note_off_c, 4, 52, 127
1, 12094, Note_off_c, 6, 78, 127
1, 12099, Note_on_c, 10, 81, 127
1, 12099, Note_on_c, 0, 48, 127
1, 12099, Note_on_c, 0, 60, 127
1, 12180, Note_on_c, 7, 79, 127
1, 12218, Note_off_c, 10, 81, 127
1, 12420, Note_off_c, 7, 79, 127
1, 12420, Note_off_c, 0, 48, 127
1, 12425, Note_on_c, 6, 78, 127
1, 12425, Note_on_c, 2, 50, 127
1, 12507, Note_on_c, 4, 76, 127
1, 12544, Note_off_c, 6, 78, 127
1, 12743, Note_off_c, 0, 60, 127
1, 12747, Note_off_c, 4, 76, 127
1, 12752, Note_on_c, 2, 74, 127
1, 12752, Note_on_c, 12, 59, 127
1, 12833, Note_on_c, 0, 72, 127
1, 12871, Note_off_c, 2, 74, 127
1, 12911, Note_off_c, 12, 59, 127
1, 12915, Note_on_c, 10, 57, 127
1, 13062, Note_off_c, 0, 72, 127
1, 13074, Note_off_c, 10, 57, 127
1, 13078, Note_on_c, 0, 72, 127
1, 13078, Note_on_c, 7, 55, 127
1, 13237, Note_off_c, 7, 55, 127
1, 13237, Note_off_c, 0, 72, 127
1, 13241, Note_on_c, 10, 81, 127
1, 13241, Note_on_c, 6, 54, 127
1, 13400, Note_off_c, 6, 54, 127
1, 13404, Note_on_c, 4, 52, 127
1, 13562, Note_off_c, 10, 81, 127
1, 13563, Note_off_c, 4, 52, 127
1, 13568, Note_on_c, 0, 72, 127
1, 13568, Note_on_c, 6, 54, 127
1, 13716, Note_off_c, 2, 50, 127
1, 13727, Note_off_c, 6, 54, 127
1, 13727, Note_off_c, 0, 72, 127
1, 13731, Note_on_c, 12, 71, 127
1, 13731, Note_on_c, 7, 55, 127
1, 13731, Note_on_c, 7, 43, 127
1, 13813, Note_on_c, 7, 67, 127
1, 13850, Note_off_c, 12, 71, 127
1, 14052, Note_off_c, 7, 55, 127
1, 14057, Note_on_c, 10, 57, 127
1, 14215, Note_off_c, 7, 67, 127
1, 14221, Note_on_c, 6, 66, 127
1, 14370, Note_off_c, 6, 66, 127
1, 14378, Note_off_c, 10, 57, 127
1, 14384, Note_on_c, 6, 66, 127
1, 14384, Note_on_c, 12, 59, 127
1, 14681, Note_off_c, 7, 43, 127
1, 14722, Note_off_c, 6, 66, 127
1, 14727, Note_on_c, 7, 67, 127
1, 14873, Note_on_c, 2, 50, 127
1, 15032, Note_off_c, 2, 50, 127
1, 15036, Note_on_c, 4, 52, 127
1, 15114, Note_off_c, 4, 52, 127
1, 15117, Note_on_c, 2, 50, 127
1, 15195, Note_off_c, 2, 50, 127
1, 15199, Note_on_c, 4, 52, 127
1, 15499, Note_off_c, 7, 67, 127
1, 15519, Note_off_c, 4, 52, 127
1, 15524, Note_on_c, 6, 54, 127
1, 15561, Note_off_c, 12, 59, 127
1, 15683, Note_off_c, 6, 54, 127
1, 15688, Note_on_c, 12, 71, 127
1, 15688, Note_on_c, 7, 55, 127
1, 16329, Note_off_c, 12, 71, 127
1, 16339, Note_on_c, 12, 71, 127
1, 16339, Note_on_c, 12, 59, 127
1, 16982, Note_off_c, 12, 71, 127
1, 16990, Note_on_c, 1, 73, 127
1, 16990, Note_on_c, 4, 64, 127
1, 17072, Note_on_c, 12, 71, 127
1, 17109, Note_off_c, 1, 73, 127
1, 17150, Note_off_c, 12, 71, 127
1, 17154, Note_on_c, 1, 73, 127
1, 17475, Note_off_c, 1, 73, 127
1, 17480, Note_on_c, 2, 74, 127
1, 17629, Note_off_c, 2, 74, 127
1, 17629, Note_off_c, 12, 59, 127
1, 17643, Note_on_c, 2, 74, 127
1, 17643, Note_on_c, 10, 57, 127
1, 17802, Note_off_c, 2, 74, 127
1, 17807, Note_on_c, 1, 73, 127
1, 17966, Note_off_c, 1, 73, 127
1, 17970, Note_on_c, 12, 71, 127
1, 18129, Note_off_c, 12, 71, 127
1, 18133, Note_on_c, 10, 69, 127
1, 18261, Note_off_c, 7, 55, 127
1, 18281, Note_off_c, 4, 64, 127
1, 18287, Note_off_c, 10, 57, 127
1, 18292, Note_off_c, 10, 69, 127
1, 18296, Note_on_c, 2, 74, 127
1, 18296, Note_on_c, 7, 55, 127
1, 18374, Note_off_c, 7, 55, 127
1, 18378, Note_on_c, 6, 54, 127
1, 18456, Note_off_c, 6, 54, 127
1, 18460, Note_on_c, 7, 55, 127
1, 18538, Note_off_c, 7, 55, 127
1, 18541, Note_on_c, 6, 54, 127
1, 18619, Note_off_c, 6, 54, 127
1, 18623, Note_on_c, 4, 52, 127
1, 18944, Note_off_c, 4, 52, 127
1, 18949, Note_on_c, 6, 54, 127
1, 19275, Note_on_c, 12, 59, 127
1, 19499, Note_off_c, 6, 54, 127
1, 19505, Note_off_c, 2, 74, 127
1, 19600, Note_on_c, 7, 79, 127
1, 19600, Note_on_c, 4, 52, 127
1, 19682, Note_on_c, 4, 76, 127
1, 19745, Note_off_c, 12, 59, 127
1, 19763, Note_on_c, 12, 71, 127
1, 19845, Note_on_c, 7, 67, 127
1, 19927, Note_on_c, 12, 59, 127
1, 20244, Note_off_c, 7, 79, 127
1, 20245, Note_off_c, 4, 76, 127
1, 20246, Note_off_c, 12, 71, 127
1, 20247, Note_off_c, 7, 67, 127
1, 20248, Note_off_c, 12, 59, 127
1, 20253, Note_on_c, 10, 81, 127
1, 20253, Note_on_c, 4, 64, 127
1, 20335, Note_on_c, 7, 79, 127
1, 20372, Note_off_c, 10, 81, 127
1, 20413, Note_off_c, 7, 79, 127
1, 20416, Note_on_c, 6, 78, 127
1, 20498, Note_on_c, 7, 79, 127
1, 20535, Note_off_c, 6, 78, 127
1, 20558, Note_off_c, 4, 52, 127
1, 20577, Note_off_c, 7, 79, 127
1, 20581, Note_on_c, 10, 81, 127
1, 20581, Note_on_c, 4, 52, 127
1, 20659, Note_off_c, 10, 81, 127
1, 20662, Note_on_c, 7, 79, 127
1, 20740, Note_off_c, 7, 79, 127
1, 20744, Note_on_c, 10, 81, 127
1, 20822, Note_off_c, 10, 81, 127
1, 20826, Note_on_c, 7, 79, 127
1, 20902, Note_off_c, 4, 52, 127
1, 20904, Note_off_c, 7, 79, 127
1, 20907, Note_on_c, 10, 81, 127
1, 20907, Note_on_c, 6, 54, 127
1, 20985, Note_off_c, 10, 81, 127
1, 20989, Note_on_c, 7, 79, 127
1, 21067, Note_off_c, 7, 79, 127
1, 21070, Note_on_c, 10, 81, 127
1, 21148, Note_off_c, 10, 81, 127
1, 21152, Note_on_c, 7, 79, 127
1, 21222, Note_off_c, 4, 64, 127
1, 21228, Note_off_c, 6, 54, 127
1, 21230, Note_off_c, 7, 79, 127
1, 21234, Note_on_c, 10, 81, 127
1, 21234, Note_on_c, 2, 62, 127
1, 21234, Note_on_c, 7, 55, 127
1, 21315, Note_on_c, 7, 79, 127
1, 21353, Note_off_c, 10, 81, 127
1, 21393, Note_off_c, 7, 79, 127
1, 21397, Note_on_c, 6, 78, 127
1, 21475, Note_off_c, 6, 78, 127
1, 21478, Note_on_c, 7, 79, 127
1, 21547, Note_off_c, 7, 79, 127
1, 21556, Note_off_c, 7, 55, 127
1, 21556, Note_off_c, 2, 62, 127
1, 21561, Note_on_c, 7, 79, 127
1, 21561, Note_on_c, 1, 61, 127
1, 21561, Note_on_c, 10, 57, 127
1, 21882, Note_off_c, 1, 61, 127
1, 21882, Note_off_c, 7, 79, 127
1, 21888, Note_on_c, 6, 78, 127
1, 21888, Note_on_c, 2, 62, 127
1, 22047, Note_off_c, 6, 78, 127
1, 22051, Note_on_c, 4, 76, 127
1, 22209, Note_off_c, 2, 62, 127
1, 22210, Note_off_c, 4, 76, 127
1, 22214, Note_on_c, 2, 74, 127
1, 22214, Note_on_c, 4, 64, 127
1, 22529, Note_off_c, 10, 57, 127
1, 22541, Note_on_c, 12, 59, 127
1, 22858, Note_off_c, 2, 74, 127
1, 22862, Note_off_c, 12, 59, 127
1, 22867, Note_on_c, 1, 73, 127
1, 22867, Note_on_c, 10, 57, 127
1, 22949, Note_on_c, 2, 74, 127
1, 22986, Note_off_c, 1, 73, 127
1, 23027, Note_off_c, 2, 74, 127
1, 23030, Note_on_c, 1, 73, 127
1, 23188, Note_off_c, 10, 57, 127
1, 23194, Note_on_c, 7, 55, 127
1, 23351, Note_off_c, 1, 73, 127
1, 23357, Note_on_c, 4, 76, 127
1, 23359, Note_off_c, 4, 64, 127
1, 23515, Note_off_c, 7, 55, 127
1, 23516, Note_off_c, 4, 76, 127
1, 23520, Note_on_c, 10, 81, 127
1, 23520, Note_on_c, 6, 54, 127
1, 23679, Note_off_c, 10, 81, 127
1, 23683, Note_on_c, 7, 79, 127
1, 23842, Note_off_c, 7, 79, 127
1, 23847, Note_on_c, 6, 78, 127
1, 24006, Note_off_c, 6, 78, 127
1, 24010, Note_on_c, 4, 76, 127
1, 24169, Note_off_c, 4, 76, 127
1, 24173, Note_on_c, 2, 74, 127
1, 24173, Note_on_c, 10, 57, 127
1, 24462, Note_off_c, 2, 74, 127
1, 24499, Note_on_c, 10, 69, 127
1, 24825, Note_on_c, 2, 62, 127
1, 25204, Note_off_c, 10, 69, 127
1, 25266, Note_on_c, 12, 71, 127
1, 25366, Note_off_c, 12, 71, 127
1, 25370, Note_on_c, 0, 72, 127
1, 25456, Note_off_c, 6, 54, 127
1, 25462, Note_off_c, 10, 57, 127
1, 25470, Note_off_c, 0, 72, 127
1, 25477, Note_on_c, 12, 71, 127
1, 25477, Note_on_c, 7, 55, 127
1, 25636, Note_off_c, 12, 71, 127
1, 25640, Note_on_c, 10, 69, 127
1, 25799, Note_off_c, 10, 69, 127
1, 25803, Note_on_c, 7, 67, 127
1, 25962, Note_off_c, 7, 67, 127
1, 25967, Note_on_c, 6, 66, 127
1, 25969, Note_off_c, 2, 62, 127
1, 26126, Note_off_c, 6, 66, 127
1, 26130, Note_on_c, 4, 64, 127
1, 26130, Note_on_c, 12, 59, 127
1, 26451, Note_off_c, 4, 64, 127
1, 26456, Note_on_c, 2, 74, 127
1, 26782, Note_on_c, 4, 64, 127
1, 26892, Note_off_c, 2, 74, 127
1, 26943, Note_on_c, 1, 73, 127
1, 27228, Note_off_c, 1, 73, 127
1, 27270, Note_on_c, 2, 74, 127
1, 27348, Note_off_c, 2, 74, 127
1, 27352, Note_on_c, 4, 76, 127
1, 27413, Note_off_c, 7, 55, 127
1, 27419, Note_off_c, 12, 59, 127
1, 27425, Note_off_c, 4, 64, 127
1, 27430, Note_off_c, 4, 76, 127
1, 27434, Note_on_c, 2, 74, 127
1, 27434, Note_on_c, 10, 57, 127
1, 27434, Note_on_c, 6, 66, 127
1, 27593, Note_off_c, 2, 74, 127
1, 27597, Note_on_c, 1, 73, 127
1, 27756, Note_off_c, 1, 73, 127
1, 27760, Note_on_c, 12, 71, 127
1, 27919, Note_off_c, 12, 71, 127
1, 27923, Note_on_c, 10, 69, 127
1, 28078, Note_off_c, 6, 66, 127
1, 28082, Note_off_c, 10, 69, 127
1, 28087, Note_on_c, 7, 79, 127
1, 28087, Note_on_c, 4, 64, 127
1, 28408, Note_off_c, 7, 79, 127
1, 28413, Note_on_c, 12, 71, 127
1, 28570, Note_off_c, 4, 64, 127
1, 28576, Note_on_c, 6, 66, 127
1, 28735, Note_off_c, 6, 66, 127
1, 28739, Note_on_c, 7, 67, 127
1, 29057, Note_off_c, 12, 71, 127
1, 29066, Note_on_c, 1, 73, 127
1, 29372, Note_off_c, 10, 57, 127
1, 29387, Note_off_c, 1, 73, 127
1, 29392, Note_on_c, 1, 73, 127
1, 29392, Note_on_c, 2, 50, 127
1, 29551, Note_off_c, 1, 73, 127
1, 29556, Note_on_c, 2, 74, 127
1, 29796, Note_off_c, 2, 74, 127
1, 29801, Note_on_c, 4, 76, 127
1, 29879, Note_off_c, 4, 76, 127
1, 29882, Note_on_c, 2, 74, 127
1, 29960, Note_off_c, 2, 74, 127
1, 29964, Note_on_c, 1, 73, 127
1, 30031, Note_off_c, 7, 67, 127
1, 30033, Note_off_c, 1, 73, 127
1, 30046, Note_on_c, 1, 73, 127
1, 30046, Note_on_c, 6, 66, 127
1, 30372, Note_on_c, 10, 57, 127
1, 30689, Note_off_c, 1, 73, 127
1, 30698, Note_on_c, 2, 74, 127
1, 30698, Note_on_c, 2, 62, 127
1, 31179, Note_off_c, 2, 74, 127
1, 31289, Note_off_c, 6, 66, 127
1, 31328, Note_off_c, 2, 50, 127
1, 31338, Note_off_c, 10, 57, 127
1, 31340, Note_off_c, 2, 62, 127
1, 31349, Note_on_c, 10, 69, 127
1, 31349, Note_on_c, 2, 62, 127
1, 31431, Note_on_c, 7, 67, 127
1, 31468, Note_off_c, 10, 69, 127
1, 31509, Note_off_c, 7, 67, 127
1, 31512, Note_on_c, 10, 69, 127
1, 31676, Note_on_c, 4, 64, 127
1, 31995, Note_off_c, 10, 69, 127
1, 31997, Note_off_c, 4, 64, 127
1, 32002, Note_on_c, 12, 71, 127
1, 32002, Note_on_c, 6, 66, 127
1, 32084, Note_on_c, 10, 69, 127
1, 32121, Note_off_c, 12, 71, 127
1, 32162, Note_off_c, 10, 69, 127
1, 32165, Note_on_c, 7, 67, 127
1, 32247, Note_on_c, 10, 69, 127
1, 32284, Note_off_c, 7, 67, 127
1, 32325, Note_off_c, 10, 69, 127
1, 32329, Note_on_c, 12, 71, 127
1, 32407, Note_off_c, 12, 71, 127
1, 32410, Note_on_c, 10, 69, 127
1, 32488, Note_off_c, 10, 69, 127
1, 32492, Note_on_c, 12, 71, 127
1, 32570, Note_off_c, 12, 71, 127
1, 32574, Note_on_c, 10, 69, 127
1, 32640, Note_off_c, 2, 62, 127
1, 32652, Note_off_c, 10, 69, 127
1, 32655, Note_on_c, 12, 71, 127
1, 32655, Note_on_c, 0, 60, 127
1, 32733, Note_off_c, 12, 71, 127
1, 32737, Note_on_c, 10, 69, 127
1, 32814, Note_off_c, 10, 69, 127
1, 32818, Note_on_c, 10, 69, 127
1, 32900, Note_on_c, 12, 71, 127
1, 32937, Note_off_c, 10, 69, 127
1, 32978, Note_off_c, 12, 71, 127
1, 32982, Note_on_c, 0, 72, 127
1, 33060, Note_off_c, 0, 72, 127
1, 33063, Note_on_c, 2, 74, 127
1, 33141, Note_off_c, 2, 74, 127
1, 33145, Note_on_c, 4, 76, 127
1, 33293, Note_off_c, 6, 66, 127
1, 33294, Note_off_c, 4, 76, 127
1, 33299, Note_off_c, 0, 60, 127
1, 33308, Note_on_c, 4, 76, 127
1, 33308, Note_on_c, 12, 59, 127
1, 33467, Note_off_c, 4, 76, 127
1, 33471, Note_on_c, 2, 74, 127
1, 33630, Note_off_c, 2, 74, 127
1, 33635, Note_on_c, 0, 72, 127
1, 33635, Note_on_c, 0, 60, 127
1, 33794, Note_off_c, 0, 72, 127
1, 33798, Note_on_c, 12, 71, 127
1, 33956, Note_off_c, 0, 60, 127
1, 33957, Note_off_c, 12, 71, 127
1, 33961, Note_on_c, 10, 69, 127
1, 33961, Note_on_c, 2, 62, 127
1, 34276, Note_off_c, 12, 59, 127
1, 34288, Note_on_c, 10, 57, 127
1, 34605, Note_off_c, 10, 69, 127
1, 34609, Note_off_c, 10, 57, 127
1, 34614, Note_on_c, 7, 67, 127
1, 34614, Note_on_c, 12, 59, 127
1, 34939, Note_on_c, 7, 79, 127
1, 35095, Note_off_c, 7, 67, 127
1, 35180, Note_off_c, 2, 62, 127
1, 35256, Note_off_c, 12, 59, 127
1, 35259, Note_off_c, 7, 79, 127
1, 35265, Note_on_c, 6, 78, 127
1, 35265, Note_on_c, 0, 60, 127
1, 35424, Note_off_c, 6, 78, 127
1, 35428, Note_on_c, 4, 76, 127
1, 35591, Note_on_c, 4, 64, 127
1, 35749, Note_off_c, 4, 76, 127
1, 35755, Note_on_c, 6, 78, 127
1, 35836, Note_on_c, 3, 75, 127
1, 35874, Note_off_c, 6, 78, 127
1, 35913, Note_off_c, 3, 75, 127
1, 35913, Note_off_c, 4, 64, 127
1, 35919, Note_on_c, 3, 75, 127
1, 35919, Note_on_c, 7, 67, 127
1, 36234, Note_off_c, 0, 60, 127
1, 36240, Note_off_c, 3, 75, 127
1, 36245, Note_on_c, 4, 76, 127
1, 36245, Note_on_c, 12, 59, 127
1, 36563, Note_off_c, 7, 67, 127
1, 36566, Note_off_c, 12, 59, 127
1, 36572, Note_on_c, 10, 57, 127
1, 36572, Note_on_c, 7, 67, 127
1, 36650, Note_off_c, 7, 67, 127
1, 36653, Note_on_c, 6, 66, 127
1, 36731, Note_off_c, 6, 66, 127
1, 36735, Note_on_c, 7, 67, 127
1, 36813, Note_off_c, 7, 67, 127
1, 36817, Note_on_c, 6, 66, 127
1, 36889, Note_off_c, 4, 76, 127
1, 36895, Note_off_c, 6, 66, 127
1, 36898, Note_on_c, 10, 81, 127
1, 36898, Note_on_c, 4, 64, 127
1, 36980, Note_on_c, 12, 83, 127
1, 37017, Note_off_c, 10, 81, 127
1, 37058, Note_off_c, 12, 83, 127
1, 37062, Note_on_c, 10, 81, 127
1, 37140, Note_off_c, 10, 81, 127
1, 37143, Note_on_c, 7, 79, 127
1, 37216, Note_off_c, 10, 57, 127
1, 37219, Note_off_c, 4, 64, 127
1, 37221, Note_off_c, 7, 79, 127
1, 37225, Note_on_c, 10, 81, 127
1, 37225, Note_on_c, 12, 59, 127
1, 37225, Note_on_c, 3, 63, 127
1, 37546, Note_off_c, 3, 63, 127
1, 37551, Note_on_c, 4, 64, 127
1, 37708, Note_off_c, 10, 81, 127
1, 37715, Note_on_c, 6, 78, 127
1, 37872, Note_off_c, 4, 64, 127
1, 37874, Note_off_c, 6, 78, 127
1, 37878, Note_on_c, 4, 76, 127
1, 37878, Note_on_c, 6, 66, 127
1, 38193, Note_off_c, 12, 59, 127
1, 38199, Note_off_c, 4, 76, 127
1, 38204, Note_on_c, 3, 75, 127
1, 38204, Note_on_c, 10, 57, 127
1, 38522, Note_off_c, 6, 66, 127
1, 38525, Note_off_c, 10, 57, 127
1, 38531, Note_on_c, 7, 55, 127
1, 38767, Note_off_c, 3, 75, 127
1, 38852, Note_off_c, 7, 55, 127
1, 38857, Note_on_c, 12, 71, 127
1, 38857, Note_on_c, 6, 54, 127
1, 39178, Note_off_c, 6, 54, 127
1, 39178, Note_off_c, 12, 71, 127
1, 39184, Note_on_c, 4, 76, 127
1, 39184, Note_on_c, 4, 52, 127
1, 39265, Note_on_c, 6, 78, 127
1, 39303, Note_off_c, 4, 76, 127
1, 39343, Note_off_c, 6, 78, 127
1, 39347, Note_on_c, 7, 79, 127
1, 39510, Note_on_c, 10, 57, 127
1, 39668, Note_off_c, 7, 79, 127
1, 39673, Note_on_c, 6, 78, 127
1, 39820, Note_off_c, 10, 57, 127
1, 39822, Note_off_c, 6, 78, 127
1, 39836, Note_on_c, 6, 78, 127
1, 39836, Note_on_c, 10, 57, 127
1, 39995, Note_off_c, 10, 57, 127
1, 39999, Note_on_c, 7, 55, 127
1, 40157, Note_off_c, 6, 78, 127
1, 40158, Note_off_c, 7, 55, 127
1, 40162, Note_on_c, 4, 76, 127
1, 40162, Note_on_c, 6, 54, 127
1, 40474, Note_off_c, 4, 52, 127
1, 40483, Note_off_c, 6, 54, 127
1, 40489, Note_on_c, 2, 50, 127
1, 40489, Note_on_c, 7, 55, 127
1, 40645, Note_off_c, 4, 76, 127
1, 40652, Note_on_c, 12, 71, 127
1, 40811, Note_off_c, 12, 71, 127
1, 40815, Note_on_c, 0, 72, 127
1, 40897, Note_on_c, 12, 71, 127
1, 40934, Note_off_c, 0, 72, 127
1, 40975, Note_off_c, 12, 71, 127
1, 40978, Note_on_c, 10, 69, 127
1, 41056, Note_off_c, 10, 69, 127
1, 41060, Note_on_c, 12, 71, 127
1, 41133, Note_off_c, 7, 55, 127
1, 41133, Note_off_c, 2, 50, 127
1, 41138, Note_off_c, 12, 71, 127
1, 41141, Note_on_c, 7, 79, 127
1, 41141, Note_on_c, 0, 48, 127
1, 41223, Note_on_c, 4, 76, 127
1, 41260, Note_off_c, 7, 79, 127
1, 41463, Note_off_c, 4, 76, 127
1, 41468, Note_on_c, 6, 78, 127
1, 41468, Note_on_c, 10, 57, 127
1, 41550, Note_on_c, 3, 75, 127
1, 41587, Note_off_c, 6, 78, 127
1, 41778, Note_off_c, 10, 57, 127
1, 41779, Note_off_c, 3, 75, 127
1, 41793, Note_on_c, 3, 75, 127
1, 41793, Note_on_c, 10, 57, 127
1, 41871, Note_off_c, 10, 57, 127
1, 41875, Note_on_c, 7, 55, 127
1, 41953, Note_off_c, 7, 55, 127
1, 41957, Note_on_c, 10, 57, 127
1, 42035, Note_off_c, 10, 57, 127
1, 42038, Note_on_c, 7, 55, 127
1, 42114, Note_off_c, 3, 75, 127
1, 42116, Note_off_c, 7, 55, 127
1, 42120, Note_on_c, 4, 76, 127
1, 42120, Note_on_c, 6, 54, 127
1, 42431, Note_off_c, 0, 48, 127
1, 42441, Note_off_c, 6, 54, 127
1, 42446, Note_on_c, 12, 47, 127
1, 42446, Note_on_c, 7, 55, 127
1, 42603, Note_off_c, 4, 76, 127
1, 42610, Note_on_c, 7, 67, 127
1, 42767, Note_off_c, 7, 55, 127
1, 42769, Note_off_c, 7, 67, 127
1, 42773, Note_on_c, 6, 66, 127
1, 42773, Note_on_c, 12, 59, 127
1, 42932, Note_off_c, 6, 66, 127
1, 42936, Note_on_c, 4, 64, 127
1, 43013, Note_off_c, 12, 59, 127
1, 43090, Note_off_c, 12, 47, 127
1, 43095, Note_off_c, 4, 64, 127
1, 43099, Note_on_c, 6, 66, 127
1, 43099, Note_on_c, 10, 45, 127
1, 43420, Note_off_c, 10, 45, 127
1, 43426, Note_on_c, 0, 48, 127
1, 43589, Note_on_c, 4, 76, 127
1, 43738, Note_off_c, 4, 76, 127
1, 43743, Note_off_c, 6, 66, 127
1, 43747, Note_off_c, 0, 48, 127
1, 43752, Note_on_c, 4, 76, 127
1, 43752, Note_on_c, 12, 47, 127
1, 43911, Note_off_c, 4, 76, 127
1, 43916, Note_on_c, 3, 75, 127
1, 44073, Note_off_c, 12, 47, 127
1, 44075, Note_off_c, 3, 75, 127
1, 44079, Note_on_c, 6, 78, 127
1, 44079, Note_on_c, 0, 72, 127
1, 44079, Note_on_c, 10, 45, 127
1, 44157, Note_off_c, 6, 78, 127
1, 44160, Note_on_c, 7, 79, 127
1, 44238, Note_off_c, 7, 79, 127
1, 44242, Note_on_c, 10, 81, 127
1, 44400, Note_off_c, 10, 45, 127
1, 44400, Note_off_c, 0, 72, 127
1, 44401, Note_off_c, 10, 81, 127
1, 44405, Note_on_c, 7, 79, 127
1, 44405, Note_on_c, 12, 71, 127
1, 44405, Note_on_c, 12, 47, 127
1, 44726, Note_off_c, 12, 71, 127
1, 44726, Note_off_c, 7, 79, 127
1, 44732, Note_on_c, 6, 78, 127
1, 44732, Note_on_c, 10, 69, 127
1, 44732, Note_on_c, 3, 51, 127
1, 44775, Note_off_c, 12, 47, 127
1, 45042, Note_off_c, 6, 78, 127
1, 45053, Note_off_c, 3, 51, 127
1, 45058, Note_on_c, 6, 78, 127
1, 45058, Note_on_c, 4, 52, 127
1, 45217, Note_off_c, 6, 78, 127
1, 45221, Note_on_c, 4, 76, 127
1, 45385, Note_on_c, 12, 47, 127
1, 45542, Note_off_c, 4, 76, 127
1, 45548, Note_on_c, 6, 78, 127
1, 45630, Note_on_c, 3, 75, 127
1, 45667, Note_off_c, 6, 78, 127
1, 45699, Note_off_c, 3, 75, 127
1, 45701, Note_off_c, 10, 69, 127
1, 45707, Note_off_c, 12, 47, 127
1, 45712, Note_on_c, 7, 67, 127
1, 45712, Note_on_c, 3, 75, 127
1, 45712, Note_on_c, 4, 40, 127
1, 46038, Note_on_c, 12, 47, 127
1, 46339, Note_off_c, 4, 52, 127
1, 46359, Note_off_c, 12, 47, 127
1, 46360, Note_on_c, 4, 76, 127
1, 46360, Note_on_c, 4, 52, 127
1, 46424, Note_off_c, 3, 75, 127
1, 46679, Note_off_c, 4, 40, 127
1, 46681, Note_off_c, 4, 52, 127
1, 46691, Note_on_c, 2, 50, 127
1, 46840, Note_off_c, 7, 67, 127
1, 46960, Note_off_c, 4, 76, 127
1, 47012, Note_off_c, 2, 50, 127
1, 47017, Note_on_c, 4, 76, 127
1, 47017, Note_on_c, 0, 48, 127
1, 47338, Note_off_c, 4, 76, 127
1, 47344, Note_on_c, 2, 74, 127
1, 47503, Note_off_c, 2, 74, 127
1, 47507, Note_on_c, 0, 72, 127
1, 47666, Note_off_c, 0, 72, 127
1, 47670, Note_on_c, 12, 71, 127
1, 47670, Note_on_c, 4, 52, 127
1, 47991, Note_off_c, 12, 71, 127
1, 47997, Note_on_c, 10, 69, 127
1, 48322, Note_on_c, 10, 57, 127
1, 48640, Note_off_c, 10, 69, 127
1, 48648, Note_on_c, 12, 71, 127
1, 48807, Note_off_c, 12, 71, 127
1, 48812, Note_on_c, 0, 72, 127
1, 48954, Note_off_c, 0, 48, 127
1, 48960, Note_off_c, 4, 52, 127
1, 48971, Note_off_c, 0, 72, 127
1, 48975, Note_on_c, 2, 74, 127
1, 48975, Note_on_c, 12, 47, 127
1, 49057, Note_on_c, 0, 72, 127
1, 49094, Note_off_c, 2, 74, 127
1, 49135, Note_off_c, 0, 72, 127
1, 49138, Note_on_c, 12, 71, 127
1, 49290, Note_off_c, 10, 57, 127
1, 49297, Note_off_c, 12, 71, 127
1, 49301, Note_on_c, 0, 72, 127
1, 49301, Note_on_c, 6, 54, 127
1, 49383, Note_on_c, 12, 71, 127
1, 49420, Note_off_c, 0, 72, 127
1, 49461, Note_off_c, 12, 71, 127
1, 49465, Note_on_c, 10, 69, 127
1, 49614, Note_off_c, 10, 69, 127
1, 49620, Note_off_c, 6, 54, 127
1, 49627, Note_on_c, 10, 69, 127
1, 49627, Note_on_c, 4, 52, 127
1, 49786, Note_off_c, 4, 52, 127
1, 49790, Note_on_c, 2, 50, 127
1, 49948, Note_off_c, 10, 69, 127
1, 49949, Note_off_c, 2, 50, 127
1, 49953, Note_on_c, 7, 67, 127
1, 49953, Note_on_c, 4, 52, 127
1, 50112, Note_off_c, 4, 52, 127
1, 50117, Note_on_c, 6, 54, 127
1, 50276, Note_off_c, 6, 54, 127
1, 50280, Note_on_c, 7, 55, 127
1, 50439, Note_off_c, 7, 55, 127
1, 50443, Note_on_c, 6, 54, 127
1, 50597, Note_off_c, 7, 67, 127
1, 50602, Note_off_c, 6, 54, 127
1, 50606, Note_on_c, 10, 69, 127
1, 50606, Note_on_c, 7, 55, 127
1, 50765, Note_off_c, 10, 69, 127
1, 50769, Note_on_c, 12, 71, 127
1, 50792, Note_off_c, 12, 47, 127
1, 50928, Note_off_c, 12, 71, 127
1, 50933, Note_on_c, 0, 72, 127
1, 50933, Note_on_c, 10, 45, 127
1, 51092, Note_off_c, 0, 72, 127
1, 51096, Note_on_c, 2, 74, 127
1, 51250, Note_off_c, 7, 55, 127
1, 51255, Note_off_c, 2, 74, 127
1, 51259, Note_on_c, 0, 72, 127
1, 51259, Note_on_c, 4, 52, 127
1, 51418, Note_off_c, 0, 72, 127
1, 51422, Note_on_c, 12, 71, 127
1, 51580, Note_off_c, 4, 52, 127
1, 51581, Note_off_c, 12, 71, 127
1, 51586, Note_on_c, 0, 72, 127
1, 51586, Note_on_c, 10, 57, 127
1, 51749, Note_on_c, 10, 69, 127
1, 51901, Note_off_c, 10, 45, 127
1, 51908, Note_off_c, 10, 69, 127
1, 51912, Note_on_c, 4, 64, 127
1, 51912, Note_on_c, 7, 43, 127
1, 52069, Note_off_c, 0, 72, 127
1, 52075, Note_on_c, 10, 69, 127
1, 52152, Note_off_c, 4, 64, 127
1, 52233, Note_off_c, 7, 43, 127
1, 52234, Note_off_c, 10, 69, 127
1, 52239, Note_on_c, 0, 72, 127
1, 52239, Note_on_c, 6, 42, 127
1, 52402, Note_on_c, 12, 71, 127
1, 52560, Note_off_c, 6, 42, 127
1, 52561, Note_off_c, 12, 71, 127
1, 52565, Note_on_c, 10, 69, 127
1, 52565, Note_on_c, 4, 40, 127
1, 52724, Note_off_c, 10, 69, 127
1, 52728, Note_on_c, 7, 67, 127
1, 52877, Note_off_c, 10, 57, 127
1, 52886, Note_off_c, 4, 40, 127
1, 52887, Note_off_c, 7, 67, 127
1, 52892, Note_on_c, 6, 66, 127
1, 52892, Note_on_c, 2, 38, 127
1, 53045, Note_off_c, 0, 72, 127
1, 53055, Note_on_c, 2, 74, 127
1, 53214, Note_off_c, 2, 74, 127
1, 53218, Note_on_c, 0, 72, 127
1, 53218, Note_on_c, 10, 45, 127
1, 53377, Note_off_c, 0, 72, 127
1, 53381, Note_on_c, 12, 71, 127
1, 53539, Note_off_c, 10, 45, 127
1, 53540, Note_off_c, 12, 71, 127
1, 53545, Note_on_c, 0, 72, 127
1, 53545, Note_on_c, 2, 50, 127
1, 53708, Note_on_c, 10, 69, 127
1, 53849, Note_off_c, 6, 66, 127
1, 53860, Note_off_c, 2, 38, 127
1, 53866, Note_off_c, 2, 50, 127
1, 53867, Note_off_c, 10, 69, 127
1, 53871, Note_on_c, 6, 66, 127
1, 53871, Note_on_c, 0, 48, 127
1, 54028, Note_off_c, 0, 72, 127
1, 54034, Note_on_c, 10, 69, 127
1, 54111, Note_off_c, 6, 66, 127
1, 54192, Note_off_c, 0, 48, 127
1, 54193, Note_off_c, 10, 69, 127
1, 54198, Note_on_c, 0, 72, 127
1, 54198, Note_on_c, 12, 47, 127
1, 54361, Note_on_c, 4, 76, 127
1, 54519, Note_off_c, 12, 47, 127
1, 54519, Note_off_c, 0, 72, 127
1, 54520, Note_off_c, 4, 76, 127
1, 54524, Note_on_c, 2, 74, 127
1, 54524, Note_on_c, 10, 45, 127
1, 54683, Note_off_c, 2, 74, 127
1, 54687, Note_on_c, 0, 72, 127
1, 54845, Note_off_c, 10, 45, 127
1, 54846, Note_off_c, 0, 72, 127
1, 54850, Note_on_c, 12, 71, 127
1, 54850, Note_on_c, 7, 67, 127
1, 54850, Note_on_c, 7, 43, 127
1, 55009, Note_off_c, 12, 71, 127
1, 55014, Note_on_c, 0, 72, 127
1, 55173, Note_off_c, 0, 72, 127
1, 55177, Note_on_c, 12, 71, 127
1, 55177, Note_on_c, 2, 50, 127
1, 55336, Note_off_c, 12, 71, 127
1, 55340, Note_on_c, 10, 69, 127
1, 55498, Note_off_c, 2, 50, 127
1, 55499, Note_off_c, 10, 69, 127
1, 55503, Note_on_c, 12, 71, 127
1, 55503, Note_on_c, 7, 55, 127
1, 55575, Note_off_c, 7, 67, 127
1, 55666, Note_on_c, 7, 67, 127
1, 55817, Note_off_c, 7, 43, 127
1, 55823, Note_off_c, 7, 55, 127
1, 55825, Note_off_c, 7, 67, 127
1, 55829, Note_on_c, 2, 62, 127
1, 55829, Note_on_c, 5, 53, 127
1, 55992, Note_on_c, 7, 67, 127
1, 56136, Note_off_c, 12, 71, 127
1, 56150, Note_off_c, 5, 53, 127
1, 56155, Note_on_c, 12, 71, 127
1, 56155, Note_on_c, 4, 52, 127
1, 56232, Note_off_c, 7, 67, 127
1, 56312, Note_off_c, 2, 62, 127
1, 56319, Note_on_c, 7, 67, 127
1, 56476, Note_off_c, 4, 52, 127
1, 56476, Note_off_c, 12, 71, 127
1, 56482, Note_on_c, 0, 72, 127
1, 56482, Note_on_c, 2, 50, 127
1, 56641, Note_off_c, 0, 72, 127
1, 56645, Note_on_c, 2, 74, 127
1, 56803, Note_off_c, 2, 50, 127
1, 56804, Note_off_c, 2, 74, 127
1, 56808, Note_on_c, 4, 76, 127
1, 56808, Note_on_c, 0, 48, 127
1, 56967, Note_off_c, 4, 76, 127
1, 56972, Note_on_c, 5, 77, 127
1, 57131, Note_off_c, 5, 77, 127
1, 57135, Note_on_c, 4, 76, 127
1, 57135, Note_on_c, 7, 55, 127
1, 57294, Note_off_c, 4, 76, 127
1, 57298, Note_on_c, 2, 74, 127
1, 57448, Note_off_c, 7, 67, 127
1, 57456, Note_off_c, 7, 55, 127
1, 57457, Note_off_c, 2, 74, 127
1, 57461, Note_on_c, 4, 76, 127
1, 57461, Note_on_c, 0, 60, 127
1, 57624, Note_on_c, 0, 72, 127
1, 57776, Note_off_c, 0, 48, 127
1, 57782, Note_off_c, 0, 60, 127
1, 57783, Note_off_c, 0, 72, 127
1, 57788, Note_on_c, 7, 67, 127
1, 57788, Note_on_c, 12, 59, 127
1, 57951, Note_on_c, 0, 72, 127
1, 58095, Note_off_c, 4, 76, 127
1, 58109, Note_off_c, 12, 59, 127
1, 58110, Note_off_c, 0, 72, 127
1, 58114, Note_on_c, 4, 76, 127
1, 58114, Note_on_c, 10, 57, 127
1, 58271, Note_off_c, 7, 67, 127
1, 58277, Note_on_c, 0, 72, 127
1, 58354, Note_off_c, 4, 76, 127
1, 58435, Note_off_c, 10, 57, 127
1, 58441, Note_on_c, 6, 78, 127
1, 58441, Note_on_c, 7, 55, 127
1, 58598, Note_off_c, 0, 72, 127
1, 58600, Note_off_c, 6, 78, 127
1, 58604, Note_on_c, 7, 79, 127
1, 58762, Note_off_c, 7, 55, 127
1, 58763, Note_off_c, 7, 79, 127
1, 58767, Note_on_c, 10, 81, 127
1, 58767, Note_on_c, 6, 54, 127
1, 58930, Note_on_c, 0, 72, 127
1, 59007, Note_off_c, 10, 81, 127
1, 59089, Note_off_c, 0, 72, 127
1, 59094, Note_on_c, 12, 71, 127
1, 59094, Note_on_c, 2, 50, 127
1, 59250, Note_off_c, 6, 54, 127
1, 59253, Note_off_c, 12, 71, 127
1, 59257, Note_on_c, 10, 69, 127
1, 59415, Note_off_c, 2, 50, 127
1, 59416, Note_off_c, 10, 69, 127
1, 59420, Note_on_c, 12, 71, 127
1, 59420, Note_on_c, 7, 55, 127
1, 59579, Note_off_c, 12, 71, 127
1, 59583, Note_on_c, 0, 72, 127
1, 59742, Note_off_c, 0, 72, 127
1, 59747, Note_on_c, 2, 74, 127
1, 59747, Note_on_c, 12, 59, 127
1, 59903, Note_off_c, 7, 55, 127
1, 59910, Note_on_c, 7, 67, 127
1, 59987, Note_off_c, 2, 74, 127
1, 60068, Note_off_c, 12, 59, 127
1, 60069, Note_off_c, 7, 67, 127
1, 60073, Note_on_c, 12, 71, 127
1, 60073, Note_on_c, 2, 62, 127
1, 60236, Note_on_c, 10, 69, 127
1, 60313, Note_off_c, 12, 71, 127
1, 60395, Note_off_c, 10, 69, 127
1, 60400, Note_on_c, 7, 67, 127
1, 60400, Note_on_c, 2, 50, 127
1, 60559, Note_off_c, 7, 67, 127
1, 60563, Note_on_c, 6, 66, 127
1, 60717, Note_off_c, 2, 62, 127
1, 60721, Note_off_c, 2, 50, 127
1, 60722, Note_off_c, 6, 66, 127
1, 60726, Note_on_c, 7, 67, 127
1, 60726, Note_on_c, 7, 55, 127
1, 60889, Note_on_c, 0, 60, 127
1, 61048, Note_off_c, 0, 60, 127
1, 61053, Note_on_c, 12, 59, 127
1, 61212, Note_off_c, 12, 59, 127
1, 61216, Note_on_c, 10, 57, 127
1, 61375, Note_off_c, 10, 57, 127
1, 61379, Note_on_c, 12, 59, 127
1, 61401, Note_off_c, 7, 67, 127
1, 61558, Note_on_c, 2, 62, 127
1, 61734, Note_off_c, 2, 62, 127
1, 61738, Note_on_c, 7, 67, 127
1, 61738, Note_on_c, 2, 50, 127
1, 61914, Note_off_c, 7, 67, 127
1, 61940, Note_on_c, 6, 66, 127
1, 62108, Note_off_c, 6, 66, 127
1, 62146, Note_on_c, 6, 66, 127
1, 62146, Note_on_c, 7, 43, 127
1, 62860, Note_off_c, 6, 66, 127
1, 62916, Note_on_c, 7, 67, 127
1, 64297, Note_off_c, 2, 50, 127
1, 64336, Note_off_c, 12, 59, 127
1, 64386, Note_off_c, 7, 55, 127
1, 64484, Note_off_c, 7, 43, 127
1, 64619, Note_off_c, 7, 67, 127
1, 64635, Note_on_c, 7, 43, 127
1, 64635, Note_on_c, 7, 67, 127
1, 64737, Note_off_c, 7, 67, 127
1, 64740, Note_on_c, 6, 66, 127
1, 64842, Note_off_c, 6, 66, 127
1, 64845, Note_on_c, 12, 59, 127
1, 64845, Note_on_c, 7, 67, 127
1, 64947, Note_off_c, 12, 59, 127
1, 64950, Note_on_c, 10, 57, 127
1, 65046, Note_off_c, 7, 43, 127
1, 65052, Note_off_c, 10, 57, 127
1, 65055, Note_on_c, 12, 59, 127
1, 65155, Note_off_c, 7, 67, 127
1, 65160, Note_on_c, 2, 62, 127
1, 65261, Note_off_c, 12, 59, 127
1, 65262, Note_off_c, 2, 62, 127
1, 65265, Note_on_c, 7, 55, 127
1, 65265, Note_on_c, 4, 64, 127
1, 65367, Note_off_c, 4, 64, 127
1, 65370, Note_on_c, 6, 66, 127
1, 65471, Note_off_c, 7, 55, 127
1, 65472, Note_off_c, 6, 66, 127
1, 65475, Note_on_c, 7, 43, 127
1, 65475, Note_on_c, 7, 67, 127
1, 65577, Note_off_c, 7, 67, 127
1, 65580, Note_on_c, 10, 69, 127
1, 65682, Note_off_c, 10, 69, 127
1, 65685, Note_on_c, 7, 55, 127
1, 65685, Note_on_c, 12, 71, 127
1, 65785, Note_off_c, 7, 43, 127
1, 65787, Note_off_c, 12, 71, 127
1, 65790, Note_on_c, 1, 73, 127
1, 65891, Note_off_c, 7, 55, 127
1, 65892, Note_off_c, 1, 73, 127
1, 65895, Note_on_c, 6, 42, 127
1, 65895, Note_on_c, 2, 74, 127
1, 65997, Note_off_c, 2, 74, 127
1, 66000, Note_on_c, 1, 73, 127
1, 66102, Note_off_c, 1, 73, 127
1, 66104, Note_on_c, 6, 54, 127
1, 66104, Note_on_c, 2, 74, 127
1, 66206, Note_off_c, 6, 54, 127
1, 66209, Note_on_c, 4, 52, 127
1, 66306, Note_off_c, 6, 42, 127
1, 66311, Note_off_c, 4, 52, 127
1, 66314, Note_on_c, 6, 54, 127
1, 66414, Note_off_c, 2, 74, 127
1, 66419, Note_on_c, 10, 69, 127
1, 66520, Note_off_c, 6, 54, 127
1, 66521, Note_off_c, 10, 69, 127
1, 66524, Note_on_c, 2, 50, 127
1, 66524, Note_on_c, 12, 71, 127
1, 66626, Note_off_c, 12, 71, 127
1, 66629, Note_on_c, 1, 73, 127
1, 66730, Note_off_c, 2, 50, 127
1, 66731, Note_off_c, 1, 73, 127
1, 66734, Note_on_c, 6, 42, 127
1, 66734, Note_on_c, 2, 74, 127
1, 66836, Note_off_c, 2, 74, 127
1, 66839, Note_on_c, 4, 76, 127
1, 66941, Note_off_c, 4, 76, 127
1, 66944, Note_on_c, 2, 50, 127
1, 66944, Note_on_c, 6, 78, 127
1, 67044, Note_off_c, 6, 42, 127
1, 67046, Note_off_c, 6, 78, 127
1, 67049, Note_on_c, 2, 74, 127
1, 67150, Note_off_c, 2, 50, 127
1, 67151, Note_off_c, 2, 74, 127
1, 67154, Note_on_c, 4, 40, 127
1, 67154, Note_on_c, 7, 79, 127
1, 67256, Note_off_c, 7, 79, 127
1, 67259, Note_on_c, 6, 78, 127
1, 67361, Note_off_c, 6, 78, 127
1, 67364, Note_on_c, 4, 52, 127
1, 67364, Note_on_c, 7, 79, 127
1, 67466, Note_off_c, 4, 52, 127
1, 67469, Note_on_c, 2, 50, 127
1, 67565, Note_off_c, 4, 40, 127
1, 67571, Note_off_c, 2, 50, 127
1, 67574, Note_on_c, 4, 52, 127
1, 67674, Note_off_c, 7, 79, 127
1, 67679, Note_on_c, 6, 78, 127
1, 67780, Note_off_c, 4, 52, 127
1, 67781, Note_off_c, 6, 78, 127
1, 67784, Note_on_c, 7, 55, 127
1, 67784, Note_on_c, 4, 76, 127
1, 67886, Note_off_c, 4, 76, 127
1, 67888, Note_on_c, 2, 74, 127
1, 67990, Note_off_c, 2, 74, 127
1, 67990, Note_off_c, 7, 55, 127
1, 67993, Note_on_c, 10, 45, 127
1, 67993, Note_on_c, 1, 73, 127
1, 68095, Note_off_c, 1, 73, 127
1, 68098, Note_on_c, 4, 76, 127
1, 68200, Note_off_c, 4, 76, 127
1, 68203, Note_on_c, 1, 61, 127
1, 68203, Note_on_c, 10, 69, 127
1, 68303, Note_off_c, 10, 45, 127
1, 68305, Note_off_c, 10, 69, 127
1, 68308, Note_on_c, 7, 67, 127
1, 68409, Note_off_c, 1, 61, 127
1, 68410, Note_off_c, 7, 67, 127
1, 68413, Note_on_c, 2, 50, 127
1, 68413, Note_on_c, 6, 66, 127
1, 68515, Note_off_c, 6, 66, 127
1, 68518, Note_on_c, 10, 69, 127
1, 68620, Note_off_c, 10, 69, 127
1, 68623, Note_on_c, 6, 54, 127
1, 68623, Note_on_c, 2, 62, 127
1, 68716, Note_off_c, 2, 50, 127
1, 68725, Note_off_c, 2, 62, 127
1, 68725, Note_off_c, 6, 54, 127
1, 68728, Note_on_c, 4, 52, 127
1, 68728, Note_on_c, 1, 61, 127
1, 68830, Note_off_c, 1, 61, 127
1, 68830, Note_off_c, 4, 52, 127
1, 68833, Note_on_c, 6, 54, 127
1, 68833, Note_on_c, 2, 62, 127
1, 68935, Note_off_c, 2, 62, 127
1, 68938, Note_on_c, 6, 66, 127
1, 69039, Note_off_c, 6, 54, 127
1, 69040, Note_off_c, 6, 66, 127
1, 69043, Note_on_c, 2, 50, 127
1, 69043, Note_on_c, 10, 57, 127
1, 69145, Note_off_c, 10, 57, 127
1, 69148, Note_on_c, 7, 55, 127
1, 69250, Note_off_c, 7, 55, 127
1, 69253, Note_on_c, 2, 38, 127
1, 69253, Note_on_c, 6, 54, 127
1, 69355, Note_off_c, 6, 54, 127
1, 69358, Note_on_c, 10, 57, 127
1, 69454, Note_off_c, 2, 50, 127
1, 69460, Note_off_c, 10, 57, 127
1, 69463, Note_on_c, 2, 50, 127
1, 69565, Note_off_c, 2, 50, 127
1, 69568, Note_on_c, 0, 48, 127
1, 69666, Note_off_c, 2, 38, 127
1, 69670, Note_off_c, 0, 48, 127
1, 69672, Note_on_c, 12, 47, 127
1, 69774, Note_off_c, 12, 47, 127
1, 69777, Note_on_c, 10, 45, 127
1, 69879, Note_off_c, 10, 45, 127
1, 69882, Note_on_c, 2, 74, 127
1, 69882, Note_on_c, 12, 47, 127
1, 69984, Note_off_c, 2, 74, 127
1, 69987, Note_on_c, 0, 72, 127
1, 70089, Note_off_c, 0, 72, 127
1, 70092, Note_on_c, 2, 74, 127
1, 70192, Note_off_c, 12, 47, 127
1, 70197, Note_on_c, 2, 50, 127
1, 70299, Note_off_c, 2, 50, 127
1, 70302, Note_on_c, 7, 67, 127
1, 70302, Note_on_c, 4, 52, 127
1, 70402, Note_off_c, 2, 74, 127
1, 70404, Note_off_c, 4, 52, 127
1, 70407, Note_on_c, 6, 54, 127
1, 70508, Note_off_c, 7, 67, 127
1, 70509, Note_off_c, 6, 54, 127
1, 70512, Note_on_c, 12, 59, 127
1, 70512, Note_on_c, 7, 55, 127
1, 70614, Note_off_c, 7, 55, 127
1, 70617, Note_on_c, 10, 57, 127
1, 70718, Note_off_c, 12, 59, 127
1, 70719, Note_off_c, 10, 57, 127
1, 70722, Note_on_c, 2, 74, 127
1, 70722, Note_on_c, 12, 59, 127
1, 70824, Note_off_c, 12, 59, 127
1, 70827, Note_on_c, 7, 55, 127
1, 70927, Note_off_c, 2, 74, 127
1, 70929, Note_off_c, 7, 55, 127
1, 70932, Note_on_c, 0, 48, 127
1, 71034, Note_off_c, 0, 48, 127
1, 71037, Note_on_c, 12, 47, 127
1, 71139, Note_off_c, 12, 47, 127
1, 71142, Note_on_c, 4, 76, 127
1, 71142, Note_on_c, 0, 48, 127
1, 71244, Note_off_c, 4, 76, 127
1, 71247, Note_on_c, 2, 74, 127
1, 71349, Note_off_c, 2, 74, 127
1, 71351, Note_on_c, 4, 76, 127
1, 71452, Note_off_c, 0, 48, 127
1, 71456, Note_on_c, 4, 52, 127
1, 71558, Note_off_c, 4, 52, 127
1, 71561, Note_on_c, 10, 69, 127
1, 71561, Note_on_c, 6, 54, 127
1, 71661, Note_off_c, 4, 76, 127
1, 71663, Note_off_c, 6, 54, 127
1, 71666, Note_on_c, 7, 55, 127
1, 71767, Note_off_c, 10, 69, 127
1, 71768, Note_off_c, 7, 55, 127
1, 71771, Note_on_c, 0, 60, 127
1, 71771, Note_on_c, 10, 57, 127
1, 71873, Note_off_c, 10, 57, 127
1, 71876, Note_on_c, 12, 59, 127
1, 71977, Note_off_c, 0, 60, 127
1, 71978, Note_off_c, 12, 59, 127
1, 71981, Note_on_c, 4, 76, 127
1, 71981, Note_on_c, 0, 60, 127
1, 72083, Note_off_c, 0, 60, 127
1, 72086, Note_on_c, 10, 57, 127
1, 72186, Note_off_c, 4, 76, 127
1, 72188, Note_off_c, 10, 57, 127
1, 72191, Note_on_c, 2, 50, 127
1, 72293, Note_off_c, 2, 50, 127
1, 72296, Note_on_c, 1, 49, 127
1, 72398, Note_off_c, 1, 49, 127
1, 72401, Note_on_c, 6, 78, 127
1, 72401, Note_on_c, 2, 50, 127
1, 72503, Note_off_c, 6, 78, 127
1, 72506, Note_on_c, 4, 76, 127
1, 72608, Note_off_c, 4, 76, 127
1, 72611, Note_on_c, 6, 78, 127
1, 72711, Note_off_c, 2, 50, 127
1, 72716, Note_on_c, 10, 57, 127
1, 72817, Note_off_c, 6, 78, 127
1, 72818, Note_off_c, 10, 57, 127
1, 72821, Note_on_c, 2, 74, 127
1, 72821, Note_on_c, 12, 59, 127
1, 72923, Note_off_c, 12, 59, 127
1, 72926, Note_on_c, 0, 60, 127
1, 73027, Note_off_c, 2, 74, 127
1, 73028, Note_off_c, 0, 60, 127
1, 73031, Note_on_c, 10, 81, 127
1, 73031, Note_on_c, 2, 62, 127
1, 73133, Note_off_c, 2, 62, 127
1, 73135, Note_on_c, 4, 64, 127
1, 73237, Note_off_c, 4, 64, 127
1, 73237, Note_off_c, 10, 81, 127
1, 73240, Note_on_c, 0, 72, 127
1, 73240, Note_on_c, 6, 66, 127
1, 73342, Note_off_c, 6, 66, 127
1, 73345, Note_on_c, 2, 62, 127
1, 73446, Note_off_c, 0, 72, 127
1, 73447, Note_off_c, 2, 62, 127
1, 73450, Note_on_c, 2, 74, 127
1, 73450, Note_on_c, 7, 67, 127
1, 73501, Note_off_c, 2, 74, 127
1, 73503, Note_on_c, 0, 72, 127
1, 73553, Note_off_c, 7, 67, 127
1, 73554, Note_off_c, 0, 72, 127
1, 73556, Note_on_c, 2, 74, 127
1, 73556, Note_on_c, 6, 66, 127
1, 73607, Note_off_c, 2, 74, 127
1, 73609, Note_on_c, 0, 72, 127
1, 73659, Note_off_c, 6, 66, 127
1, 73660, Note_off_c, 0, 72, 127
1, 73662, Note_on_c, 12, 71, 127
1, 73662, Note_on_c, 7, 67, 127
1, 73764, Note_off_c, 7, 67, 127
1, 73767, Note_on_c, 2, 62, 127
1, 73869, Note_off_c, 2, 62, 127
1, 73872, Note_on_c, 12, 59, 127
1, 73972, Note_off_c, 12, 71, 127
1, 73974, Note_off_c, 12, 59, 127
1, 73977, Note_on_c, 7, 67, 127
1, 73977, Note_on_c, 2, 62, 127
1, 74079, Note_off_c, 2, 62, 127
1, 74079, Note_off_c, 7, 67, 127
1, 74082, Note_on_c, 12, 71, 127
1, 74082, Note_on_c, 7, 55, 127
1, 74184, Note_off_c, 7, 55, 127
1, 74184, Note_off_c, 12, 71, 127
1, 74187, Note_on_c, 2, 74, 127
1, 74187, Note_on_c, 12, 59, 127
1, 74289, Note_off_c, 12, 59, 127
1, 74289, Note_off_c, 2, 74, 127
1, 74292, Note_on_c, 7, 79, 127
1, 74292, Note_on_c, 2, 50, 127
1, 74394, Note_off_c, 2, 50, 127
1, 74394, Note_off_c, 7, 79, 127
1, 74397, Note_on_c, 2, 74, 127
1, 74397, Note_on_c, 7, 55, 127
1, 74499, Note_off_c, 7, 55, 127
1, 74499, Note_off_c, 2, 74, 127
1, 74502, Note_on_c, 7, 79, 127
1, 74502, Note_on_c, 12, 47, 127
1, 74604, Note_off_c, 12, 47, 127
1, 74604, Note_off_c, 7, 79, 127
1, 74607, Note_on_c, 10, 81, 127
1, 74607, Note_on_c, 2, 50, 127
1, 74709, Note_off_c, 2, 50, 127
1, 74709, Note_off_c, 10, 81, 127
1, 74712, Note_on_c, 12, 83, 127
1, 74712, Note_on_c, 7, 43, 127
1, 74817, Note_on_c, 7, 79, 127
1, 74918, Note_off_c, 12, 83, 127
1, 74919, Note_off_c, 7, 79, 127
1, 74922, Note_on_c, 2, 74, 127
1, 74922, Note_on_c, 7, 55, 127
1, 75024, Note_off_c, 2, 74, 127
1, 75027, Note_on_c, 12, 71, 127
1, 75123, Note_off_c, 7, 43, 127
1, 75128, Note_off_c, 7, 55, 127
1, 75129, Note_off_c, 12, 71, 127
1, 75131, Note_on_c, 7, 67, 127
1, 75131, Note_on_c, 12, 59, 127
1, 75233, Note_off_c, 7, 67, 127
1, 75236, Note_on_c, 12, 71, 127
1, 75337, Note_off_c, 12, 59, 127
1, 75338, Note_off_c, 12, 71, 127
1, 75341, Note_on_c, 2, 74, 127
1, 75341, Note_on_c, 7, 55, 127
1, 75443, Note_off_c, 2, 74, 127
1, 75446, Note_on_c, 7, 79, 127
1, 75547, Note_off_c, 7, 55, 127
1, 75548, Note_off_c, 7, 79, 127
1, 75551, Note_on_c, 12, 83, 127
1, 75551, Note_on_c, 7, 43, 127
1, 75656, Note_on_c, 7, 79, 127
1, 75757, Note_off_c, 12, 83, 127
1, 75758, Note_off_c, 7, 79, 127
1, 75761, Note_on_c, 6, 78, 127
1, 75761, Note_on_c, 7, 55, 127
1, 75861, Note_off_c, 7, 43, 127
1, 75863, Note_off_c, 6, 78, 127
1, 75866, Note_on_c, 4, 76, 127
1, 75967, Note_off_c, 7, 55, 127
1, 75968, Note_off_c, 4, 76, 127
1, 75971, Note_on_c, 10, 81, 127
1, 75971, Note_on_c, 6, 42, 127
1, 76076, Note_on_c, 4, 76, 127
1, 76177, Note_off_c, 10, 81, 127
1, 76178, Note_off_c, 4, 76, 127
1, 76181, Note_on_c, 1, 73, 127
1, 76181, Note_on_c, 6, 54, 127
1, 76283, Note_off_c, 1, 73, 127
1, 76286, Note_on_c, 10, 69, 127
1, 76382, Note_off_c, 6, 42, 127
1, 76387, Note_off_c, 6, 54, 127
1, 76388, Note_off_c, 10, 69, 127
1, 76391, Note_on_c, 6, 66, 127
1, 76391, Note_on_c, 10, 57, 127
1, 76493, Note_off_c, 6, 66, 127
1, 76496, Note_on_c, 10, 69, 127
1, 76597, Note_off_c, 10, 57, 127
1, 76598, Note_off_c, 10, 69, 127
1, 76601, Note_on_c, 1, 73, 127
1, 76601, Note_on_c, 6, 54, 127
1, 76703, Note_off_c, 1, 73, 127
1, 76706, Note_on_c, 4, 76, 127
1, 76807, Note_off_c, 6, 54, 127
1, 76808, Note_off_c, 4, 76, 127
1, 76810, Note_on_c, 10, 81, 127
1, 76810, Note_on_c, 6, 42, 127
1, 76915, Note_on_c, 6, 78, 127
1, 77016, Note_off_c, 10, 81, 127
1, 77017, Note_off_c, 6, 78, 127
1, 77020, Note_on_c, 4, 76, 127
1, 77020, Note_on_c, 6, 54, 127
1, 77120, Note_off_c, 6, 42, 127
1, 77122, Note_off_c, 4, 76, 127
1, 77125, Note_on_c, 2, 74, 127
1, 77226, Note_off_c, 6, 54, 127
1, 77227, Note_off_c, 2, 74, 127
1, 77230, Note_on_c, 7, 79, 127
1, 77230, Note_on_c, 4, 40, 127
1, 77335, Note_on_c, 2, 74, 127
1, 77436, Note_off_c, 7, 79, 127
1, 77437, Note_off_c, 2, 74, 127
1, 77440, Note_on_c, 12, 71, 127
1, 77440, Note_on_c, 4, 52, 127
1, 77542, Note_off_c, 12, 71, 127
1, 77545, Note_on_c, 7, 67, 127
1, 77641, Note_off_c, 4, 40, 127
1, 77646, Note_off_c, 4, 52, 127
1, 77647, Note_off_c, 7, 67, 127
1, 77650, Note_on_c, 4, 64, 127
1, 77650, Note_on_c, 7, 55, 127
1, 77752, Note_off_c, 4, 64, 127
1, 77755, Note_on_c, 7, 67, 127
1, 77856, Note_off_c, 7, 55, 127
1, 77857, Note_off_c, 7, 67, 127
1, 77860, Note_on_c, 12, 71, 127
1, 77860, Note_on_c, 4, 52, 127
1, 77962, Note_off_c, 12, 71, 127
1, 77965, Note_on_c, 2, 74, 127
1, 78066, Note_off_c, 4, 52, 127
1, 78067, Note_off_c, 2, 74, 127
1, 78070, Note_on_c, 7, 79, 127
1, 78070, Note_on_c, 4, 40, 127
1, 78175, Note_on_c, 6, 78, 127
1, 78225, Note_off_c, 7, 79, 127
1, 78278, Note_off_c, 6, 78, 127
1, 78281, Note_on_c, 4, 76, 127
1, 78281, Note_on_c, 7, 55, 127
1, 78381, Note_off_c, 4, 40, 127
1, 78383, Note_off_c, 4, 76, 127
1, 78386, Note_on_c, 2, 74, 127
1, 78487, Note_off_c, 7, 55, 127
1, 78488, Note_off_c, 2, 74, 127
1, 78491, Note_on_c, 1, 73, 127
1, 78491, Note_on_c, 10, 45, 127
1, 78596, Note_on_c, 7, 67, 127
1, 78697, Note_off_c, 1, 73, 127
1, 78698, Note_off_c, 7, 67, 127
1, 78700, Note_on_c, 4, 64, 127
1, 78700, Note_on_c, 4, 52, 127
1, 78802, Note_off_c, 4, 64, 127
1, 78805, Note_on_c, 1, 61, 127
1, 78906, Note_off_c, 4, 52, 127
1, 78907, Note_off_c, 1, 61, 127
1, 78910, Note_on_c, 10, 57, 127
1, 78910, Note_on_c, 7, 55, 127
1, 79010, Note_off_c, 10, 45, 127
1, 79015, Note_on_c, 1, 61, 127
1, 79065, Note_off_c, 10, 57, 127
1, 79117, Note_off_c, 7, 55, 127
1, 79118, Note_off_c, 1, 61, 127
1, 79121, Note_on_c, 4, 64, 127
1, 79121, Note_on_c, 4, 52, 127
1, 79223, Note_off_c, 4, 64, 127
1, 79226, Note_on_c, 7, 67, 127
1, 79327, Note_off_c, 4, 52, 127
1, 79328, Note_off_c, 7, 67, 127
1, 79331, Note_on_c, 1, 73, 127
1, 79331, Note_on_c, 10, 45, 127
1, 79433, Note_off_c, 1, 73, 127
1, 79436, Note_on_c, 4, 76, 127
1, 79538, Note_off_c, 4, 76, 127
1, 79541, Note_on_c, 2, 74, 127
1, 79541, Note_on_c, 7, 55, 127
1, 79591, Note_off_c, 10, 45, 127
1, 79644, Note_off_c, 2, 74, 127
1, 79647, Note_on_c, 1, 73, 127
1, 79748, Note_off_c, 7, 55, 127
1, 79749, Note_off_c, 1, 73, 127
1, 79752, Note_on_c, 2, 74, 127
1, 79752, Note_on_c, 6, 54, 127
1, 79857, Note_on_c, 10, 57, 127
1, 79907, Note_off_c, 6, 54, 127
1, 79959, Note_off_c, 2, 74, 127
1, 79960, Note_off_c, 10, 57, 127
1, 79963, Note_on_c, 6, 54, 127
1, 79963, Note_on_c, 2, 62, 127
1, 80065, Note_off_c, 2, 62, 127
1, 80065, Note_off_c, 6, 54, 127
1, 80068, Note_on_c, 6, 66, 127
1, 80170, Note_off_c, 6, 66, 127
1, 80173, Note_on_c, 6, 54, 127
1, 80173, Note_on_c, 10, 69, 127
1, 80275, Note_off_c, 10, 69, 127
1, 80278, Note_on_c, 6, 66, 127
1, 80380, Note_off_c, 6, 66, 127
1, 80383, Note_on_c, 10, 69, 127
1, 80383, Note_on_c, 2, 62, 127
1, 80483, Note_off_c, 6, 54, 127
1, 80485, Note_off_c, 2, 62, 127
1, 80488, Note_on_c, 10, 57, 127
1, 80589, Note_off_c, 10, 69, 127
1, 80590, Note_off_c, 10, 57, 127
1, 80593, Note_on_c, 2, 74, 127
1, 80593, Note_on_c, 6, 54, 127
1, 80695, Note_off_c, 6, 54, 127
1, 80698, Note_on_c, 10, 57, 127
1, 80799, Note_off_c, 2, 74, 127
1, 80800, Note_off_c, 10, 57, 127
1, 80802, Note_on_c, 6, 78, 127
1, 80802, Note_on_c, 2, 50, 127
1, 80904, Note_off_c, 2, 50, 127
1, 80907, Note_on_c, 6, 54, 127
1, 81008, Note_off_c, 6, 78, 127
1, 81009, Note_off_c, 6, 54, 127
1, 81012, Note_on_c, 12, 71, 127
1, 81012, Note_on_c, 7, 55, 127
1, 81117, Note_on_c, 12, 59, 127
1, 81167, Note_off_c, 7, 55, 127
1, 81219, Note_off_c, 12, 71, 127
1, 81220, Note_off_c, 12, 59, 127
1, 81223, Note_on_c, 7, 55, 127
1, 81223, Note_on_c, 2, 62, 127
1, 81325, Note_off_c, 2, 62, 127
1, 81325, Note_off_c, 7, 55, 127
1, 81328, Note_on_c, 7, 67, 127
1, 81430, Note_off_c, 7, 67, 127
1, 81433, Note_on_c, 7, 55, 127
1, 81433, Note_on_c, 12, 71, 127
1, 81535, Note_off_c, 12, 71, 127
1, 81538, Note_on_c, 7, 67, 127
1, 81640, Note_off_c, 7, 67, 127
1, 81643, Note_on_c, 12, 71, 127
1, 81643, Note_on_c, 4, 64, 127
1, 81743, Note_off_c, 7, 55, 127
1, 81745, Note_off_c, 4, 64, 127
1, 81748, Note_on_c, 12, 59, 127
1, 81849, Note_off_c, 12, 71, 127
1, 81850, Note_off_c, 12, 59, 127
1, 81853, Note_on_c, 4, 76, 127
1, 81853, Note_on_c, 7, 55, 127
1, 81955, Note_off_c, 7, 55, 127
1, 81958, Note_on_c, 12, 59, 127
1, 82059, Note_off_c, 4, 76, 127
1, 82060, Note_off_c, 12, 59, 127
1, 82063, Note_on_c, 7, 79, 127
1, 82063, Note_on_c, 4, 52, 127
1, 82165, Note_off_c, 4, 52, 127
1, 82168, Note_on_c, 7, 55, 127
1, 82269, Note_off_c, 7, 79, 127
1, 82270, Note_off_c, 7, 55, 127
1, 82273, Note_on_c, 1, 73, 127
1, 82273, Note_on_c, 10, 57, 127
1, 82375, Note_off_c, 1, 73, 127
1, 82378, Note_on_c, 4, 76, 127
1, 82479, Note_off_c, 10, 57, 127
1, 82480, Note_off_c, 4, 76, 127
1, 82483, Note_on_c, 10, 69, 127
1, 82483, Note_on_c, 1, 61, 127
1, 82585, Note_off_c, 10, 69, 127
1, 82587, Note_on_c, 7, 67, 127
1, 82689, Note_off_c, 7, 67, 127
1, 82689, Note_off_c, 1, 61, 127
1, 82692, Note_on_c, 6, 66, 127
1, 82692, Note_on_c, 2, 62, 127
1, 82794, Note_off_c, 2, 62, 127
1, 82794, Note_off_c, 6, 66, 127
1, 82797, Note_on_c, 10, 69, 127
1, 82797, Note_on_c, 10, 57, 127
1, 82899, Note_off_c, 10, 57, 127
1, 82899, Note_off_c, 10, 69, 127
1, 82902, Note_on_c, 2, 74, 127
1, 82902, Note_on_c, 6, 54, 127
1, 83004, Note_off_c, 6, 54, 127
1, 83004, Note_off_c, 2, 74, 127
1, 83007, Note_on_c, 6, 78, 127
1, 83007, Note_on_c, 2, 50, 127
1, 83109, Note_off_c, 2, 50, 127
1, 83109, Note_off_c, 6, 78, 127
1, 83112, Note_on_c, 7, 79, 127
1, 83112, Note_on_c, 10, 57, 127
1, 83217, Note_on_c, 4, 76, 127
1, 83267, Note_off_c, 7, 79, 127
1, 83319, Note_off_c, 10, 57, 127
1, 83320, Note_off_c, 4, 76, 127
1, 83323, Note_on_c, 2, 74, 127
1, 83323, Note_on_c, 10, 45, 127
1, 83425, Note_off_c, 2, 74, 127
1, 83428, Note_on_c, 1, 73, 127
1, 83529, Note_off_c, 10, 45, 127
1, 83530, Note_off_c, 1, 73, 127
1, 83533, Note_on_c, 2, 74, 127
1, 83533, Note_on_c, 2, 50, 127
1, 83638, Note_on_c, 2, 62, 127
1, 83738, Note_off_c, 2, 50, 127
1, 83739, Note_off_c, 2, 74, 127
1, 83740, Note_off_c, 2, 62, 127
1, 83743, Note_on_c, 4, 64, 127
1, 83743, Note_on_c, 1, 61, 127
1, 83845, Note_off_c, 1, 61, 127
1, 83845, Note_off_c, 4, 64, 127
1, 83848, Note_on_c, 6, 66, 127
1, 83848, Note_on_c, 12, 59, 127
1, 83950, Note_off_c, 12, 59, 127
1, 83950, Note_off_c, 6, 66, 127
1, 83953, Note_on_c, 7, 67, 127
1, 83953, Note_on_c, 10, 57, 127
1, 84055, Note_off_c, 10, 57, 127
1, 84055, Note_off_c, 7, 67, 127
1, 84058, Note_on_c, 10, 69, 127
1, 84058, Note_on_c, 7, 55, 127
1, 84160, Note_off_c, 7, 55, 127
1, 84160, Note_off_c, 10, 69, 127
1, 84163, Note_on_c, 12, 71, 127
1, 84163, Note_on_c, 6, 54, 127
1, 84265, Note_off_c, 6, 54, 127
1, 84265, Note_off_c, 12, 71, 127
1, 84268, Note_on_c, 1, 73, 127
1, 84268, Note_on_c, 4, 52, 127
1, 84370, Note_off_c, 4, 52, 127
1, 84370, Note_off_c, 1, 73, 127
1, 84373, Note_on_c, 2, 74, 127
1, 84373, Note_on_c, 2, 50, 127
1, 84475, Note_off_c, 2, 50, 127
1, 84475, Note_off_c, 2, 74, 127
1, 84477, Note_on_c, 1, 73, 127
1, 84477, Note_on_c, 10, 45, 127
1, 84579, Note_off_c, 10, 45, 127
1, 84579, Note_off_c, 1, 73, 127
1, 84582, Note_on_c, 2, 74, 127
1, 84582, Note_on_c, 6, 42, 127
1, 84684, Note_off_c, 6, 42, 127
1, 84684, Note_off_c, 2, 74, 127
1, 84687, Note_on_c, 4, 76, 127
1, 84687, Note_on_c, 10, 45, 127
1, 84789, Note_off_c, 10, 45, 127
1, 84789, Note_off_c, 4, 76, 127
1, 84792, Note_on_c, 6, 78, 127
1, 84792, Note_on_c, 2, 38, 127
1, 84894, Note_off_c, 6, 78, 127
1, 84897, Note_on_c, 7, 79, 127
1, 84997, Note_off_c, 2, 38, 127
1, 84999, Note_off_c, 7, 79, 127
1, 85002, Note_on_c, 10, 81, 127
1, 85002, Note_on_c, 6, 54, 127
1, 85104, Note_off_c, 6, 54, 127
1, 85107, Note_on_c, 4, 52, 127
1, 85209, Note_off_c, 4, 52, 127
1, 85212, Note_on_c, 6, 54, 127
1, 85312, Note_off_c, 10, 81, 127
1, 85317, Note_on_c, 12, 83, 127
1, 85418, Note_off_c, 6, 54, 127
1, 85419, Note_off_c, 12, 83, 127
1, 85422, Note_on_c, 10, 81, 127
1, 85422, Note_on_c, 2, 50, 127
1, 85524, Note_off_c, 10, 81, 127
1, 85527, Note_on_c, 7, 79, 127
1, 85628, Note_off_c, 2, 50, 127
1, 85629, Note_off_c, 7, 79, 127
1, 85632, Note_on_c, 6, 78, 127
1, 85632, Note_on_c, 2, 38, 127
1, 85734, Note_off_c, 6, 78, 127
1, 85737, Note_on_c, 4, 76, 127
1, 85837, Note_off_c, 2, 38, 127
1, 85839, Note_off_c, 4, 76, 127
1, 85842, Note_on_c, 2, 74, 127
1, 85842, Note_on_c, 6, 54, 127
1, 85944, Note_off_c, 2, 74, 127
1, 85947, Note_on_c, 0, 72, 127
1, 86048, Note_off_c, 6, 54, 127
1, 86049, Note_off_c, 0, 72, 127
1, 86052, Note_on_c, 12, 71, 127
1, 86052, Note_on_c, 7, 43, 127
1, 86154, Note_off_c, 12, 71, 127
1, 86157, Note_on_c, 0, 72, 127
1, 86257, Note_off_c, 7, 43, 127
1, 86259, Note_off_c, 0, 72, 127
1, 86261, Note_on_c, 2, 74, 127
1, 86261, Note_on_c, 12, 59, 127
1, 86363, Note_off_c, 12, 59, 127
1, 86366, Note_on_c, 10, 57, 127
1, 86468, Note_off_c, 10, 57, 127
1, 86471, Note_on_c, 12, 59, 127
1, 86571, Note_off_c, 2, 74, 127
1, 86576, Note_on_c, 4, 76, 127
1, 86677, Note_off_c, 12, 59, 127
1, 86678, Note_off_c, 4, 76, 127
1, 86681, Note_on_c, 2, 74, 127
1, 86681, Note_on_c, 7, 55, 127
1, 86783, Note_off_c, 2, 74, 127
1, 86786, Note_on_c, 0, 72, 127
1, 86887, Note_off_c, 7, 55, 127
1, 86888, Note_off_c, 0, 72, 127
1, 86891, Note_on_c, 12, 71, 127
1, 86891, Note_on_c, 7, 43, 127
1, 86993, Note_off_c, 12, 71, 127
1, 86996, Note_on_c, 10, 69, 127
1, 87096, Note_off_c, 7, 43, 127
1, 87098, Note_off_c, 10, 69, 127
1, 87101, Note_on_c, 7, 67, 127
1, 87101, Note_on_c, 12, 59, 127
1, 87203, Note_off_c, 7, 67, 127
1, 87206, Note_on_c, 5, 65, 127
1, 87307, Note_off_c, 12, 59, 127
1, 87308, Note_off_c, 5, 65, 127
1, 87311, Note_on_c, 4, 64, 127
1, 87311, Note_on_c, 0, 48, 127
1, 87416, Note_on_c, 8, 68, 127
1, 87466, Note_off_c, 4, 64, 127
1, 87519, Note_off_c, 8, 68, 127
1, 87522, Note_on_c, 10, 69, 127
1, 87522, Note_on_c, 0, 60, 127
1, 87624, Note_off_c, 0, 60, 127
1, 87624, Note_off_c, 10, 69, 127
1, 87627, Note_on_c, 12, 71, 127
1, 87627, Note_on_c, 12, 59, 127
1, 87723, Note_off_c, 0, 48, 127
1, 87729, Note_off_c, 12, 59, 127
1, 87729, Note_off_c, 12, 71, 127
1, 87732, Note_on_c, 10, 69, 127
1, 87732, Note_on_c, 0, 60, 127
1, 87834, Note_off_c, 10, 69, 127
1, 87837, Note_on_c, 4, 64, 127
1, 87938, Note_off_c, 0, 60, 127
1, 87939, Note_off_c, 4, 64, 127
1, 87942, Note_on_c, 10, 69, 127
1, 87942, Note_on_c, 6, 54, 127
1, 88044, Note_off_c, 10, 69, 127
1, 88046, Note_on_c, 12, 71, 127
1, 88148, Note_off_c, 12, 71, 127
1, 88148, Note_off_c, 6, 54, 127
1, 88151, Note_on_c, 0, 72, 127
1, 88151, Note_on_c, 10, 57, 127
1, 88253, Note_off_c, 0, 72, 127
1, 88256, Note_on_c, 10, 69, 127
1, 88357, Note_off_c, 10, 57, 127
1, 88358, Note_off_c, 10, 69, 127
1, 88361, Note_on_c, 3, 75, 127
1, 88361, Note_on_c, 0, 60, 127
1, 88463, Note_off_c, 3, 75, 127
1, 88466, Note_on_c, 4, 76, 127
1, 88567, Note_off_c, 0, 60, 127
1, 88568, Note_off_c, 4, 76, 127
1, 88571, Note_on_c, 6, 78, 127
1, 88571, Note_on_c, 10, 57, 127
1, 88673, Note_off_c, 6, 78, 127
1, 88676, Note_on_c, 4, 76, 127
1, 88777, Note_off_c, 10, 57, 127
1, 88778, Note_off_c, 4, 76, 127
1, 88781, Note_on_c, 3, 75, 127
1, 88781, Note_on_c, 6, 54, 127
1, 88883, Note_off_c, 3, 75, 127
1, 88886, Note_on_c, 1, 73, 127
1, 88987, Note_off_c, 6, 54, 127
1, 88988, Note_off_c, 1, 73, 127
1, 88991, Note_on_c, 12, 71, 127
1, 88991, Note_on_c, 3, 51, 127
1, 89093, Note_off_c, 3, 51, 127
1, 89096, Note_on_c, 10, 69, 127
1, 89096, Note_on_c, 12, 47, 127
1, 89146, Note_off_c, 12, 71, 127
1, 89199, Note_off_c, 12, 47, 127
1, 89199, Note_off_c, 10, 69, 127
1, 89202, Note_on_c, 12, 71, 127
1, 89202, Note_on_c, 3, 51, 127
1, 89304, Note_off_c, 3, 51, 127
1, 89307, Note_on_c, 6, 54, 127
1, 89409, Note_off_c, 6, 54, 127
1, 89412, Note_on_c, 12, 59, 127
1, 89514, Note_off_c, 12, 59, 127
1, 89517, Note_on_c, 3, 63, 127
1, 89619, Note_off_c, 3, 63, 127
1, 89622, Note_on_c, 6, 66, 127
1, 89724, Note_off_c, 6, 66, 127
1, 89727, Note_on_c, 10, 69, 127
1, 89829, Note_off_c, 10, 69, 127
1, 89832, Note_on_c, 7, 67, 127
1, 89928, Note_off_c, 12, 71, 127
1, 89936, Note_on_c, 3, 75, 127
1, 90038, Note_off_c, 3, 75, 127
1, 90041, Note_on_c, 4, 76, 127
1, 90142, Note_off_c, 7, 67, 127
1, 90146, Note_on_c, 6, 66, 127
1, 90248, Note_off_c, 6, 66, 127
1, 90251, Note_on_c, 7, 67, 127
1, 90351, Note_off_c, 4, 76, 127
1, 90356, Note_on_c, 3, 63, 127
1, 90458, Note_off_c, 3, 63, 127
1, 90461, Note_on_c, 4, 64, 127
1, 90561, Note_off_c, 7, 67, 127
1, 90566, Note_on_c, 6, 54, 127
1, 90668, Note_off_c, 6, 54, 127
1, 90671, Note_on_c, 7, 55, 127
1, 90771, Note_off_c, 4, 64, 127
1, 90776, Note_on_c, 3, 51, 127
1, 90878, Note_off_c, 3, 51, 127
1, 90881, Note_on_c, 4, 52, 127
1, 90884, Note_off_c, 7, 55, 127
1, 90986, Note_on_c, 12, 47, 127
1, 91088, Note_off_c, 12, 47, 127
1, 91091, Note_on_c, 0, 48, 127
1, 91191, Note_off_c, 4, 52, 127
1, 91196, Note_on_c, 8, 80, 127
1, 91298, Note_off_c, 8, 80, 127
1, 91301, Note_on_c, 10, 81, 127
1, 91401, Note_off_c, 0, 48, 127
1, 91406, Note_on_c, 12, 71, 127
1, 91508, Note_off_c, 12, 71, 127
1, 91511, Note_on_c, 0, 72, 127
1, 91611, Note_off_c, 10, 81, 127
1, 91616, Note_on_c, 8, 68, 127
1, 91718, Note_off_c, 8, 68, 127
1, 91720, Note_on_c, 10, 69, 127
1, 91821, Note_off_c, 0, 72, 127
1, 91825, Note_on_c, 12, 59, 127
1, 91927, Note_off_c, 12, 59, 127
1, 91930, Note_on_c, 0, 60, 127
1, 92030, Note_off_c, 10, 69, 127
1, 92035, Note_on_c, 8, 56, 127
1, 92137, Note_off_c, 8, 56, 127
1, 92140, Note_on_c, 10, 57, 127
1, 92240, Note_off_c, 0, 60, 127
1, 92245, Note_on_c, 4, 52, 127
1, 92296, Note_off_c, 10, 57, 127
1, 92347, Note_off_c, 4, 52, 127
1, 92350, Note_on_c, 3, 51, 127
1, 92455, Note_on_c, 12, 59, 127
1, 92556, Note_off_c, 3, 51, 127
1, 92557, Note_off_c, 12, 59, 127
1, 92560, Note_on_c, 0, 60, 127
1, 92560, Note_on_c, 10, 57, 127
1, 92662, Note_off_c, 0, 60, 127
1, 92665, Note_on_c, 6, 66, 127
1, 92766, Note_off_c, 10, 57, 127
1, 92767, Note_off_c, 6, 66, 127
1, 92770, Note_on_c, 12, 59, 127
1, 92770, Note_on_c, 7, 55, 127
1, 92875, Note_on_c, 3, 63, 127
1, 92925, Note_off_c, 12, 59, 127
1, 92977, Note_off_c, 7, 55, 127
1, 92978, Note_off_c, 3, 63, 127
1, 92981, Note_on_c, 4, 64, 127
1, 92981, Note_on_c, 11, 46, 127
1, 93083, Note_off_c, 4, 64, 127
1, 93086, Note_on_c, 7, 67, 127
1, 93187, Note_off_c, 11, 46, 127
1, 93188, Note_off_c, 7, 67, 127
1, 93191, Note_on_c, 6, 66, 127
1, 93191, Note_on_c, 12, 47, 127
1, 93293, Note_off_c, 6, 66, 127
1, 93296, Note_on_c, 4, 64, 127
1, 93398, Note_off_c, 4, 64, 127
1, 93401, Note_on_c, 3, 63, 127
1, 93401, Note_on_c, 6, 54, 127
1, 93501, Note_off_c, 12, 47, 127
1, 93503, Note_off_c, 3, 63, 127
1, 93505, Note_on_c, 10, 69, 127
1, 93607, Note_off_c, 10, 69, 127
1, 93607, Note_off_c, 6, 54, 127
1, 93610, Note_on_c, 7, 67, 127
1, 93610, Note_on_c, 4, 52, 127
1, 93715, Note_on_c, 6, 66, 127
1, 93765, Note_off_c, 7, 67, 127
1, 93817, Note_off_c, 4, 52, 127
1, 93818, Note_off_c, 6, 66, 127
1, 93821, Note_on_c, 4, 64, 127
1, 93821, Note_on_c, 7, 55, 127
1, 93923, Note_off_c, 7, 55, 127
1, 93923, Note_off_c, 4, 64, 127
1, 93926, Note_on_c, 3, 63, 127
1, 93926, Note_on_c, 6, 54, 127
1, 94028, Note_off_c, 6, 54, 127
1, 94028, Note_off_c, 3, 63, 127
1, 94031, Note_on_c, 4, 64, 127
1, 94031, Note_on_c, 7, 55, 127
1, 94133, Note_off_c, 4, 64, 127
1, 94136, Note_on_c, 7, 67, 127
1, 94237, Note_off_c, 7, 55, 127
1, 94238, Note_off_c, 7, 67, 127
1, 94241, Note_on_c, 12, 59, 127
1, 94241, Note_on_c, 4, 52, 127
1, 94343, Note_off_c, 12, 59, 127
1, 94346, Note_on_c, 10, 57, 127
1, 94447, Note_off_c, 4, 52, 127
1, 94448, Note_off_c, 10, 57, 127
1, 94451, Note_on_c, 7, 55, 127
1, 94451, Note_on_c, 4, 40, 127
1, 94556, Note_on_c, 12, 59, 127
1, 94606, Note_off_c, 7, 55, 127
1, 94658, Note_off_c, 4, 40, 127
1, 94659, Note_off_c, 12, 59, 127
1, 94662, Note_on_c, 4, 52, 127
1, 94767, Note_on_c, 2, 50, 127
1, 94867, Note_off_c, 4, 52, 127
1, 94869, Note_off_c, 2, 50, 127
1, 94872, Note_on_c, 0, 48, 127
1, 94977, Note_on_c, 4, 52, 127
1, 95078, Note_off_c, 0, 48, 127
1, 95079, Note_off_c, 4, 52, 127
1, 95082, Note_on_c, 4, 76, 127
1, 95082, Note_on_c, 10, 57, 127
1, 95184, Note_off_c, 10, 57, 127
1, 95187, Note_on_c, 0, 60, 127
1, 95212, Note_off_c, 4, 76, 127
1, 95290, Note_off_c, 0, 60, 127
1, 95293, Note_on_c, 0, 72, 127
1, 95293, Note_on_c, 4, 64, 127
1, 95395, Note_off_c, 4, 64, 127
1, 95398, Note_on_c, 0, 60, 127
1, 95423, Note_off_c, 0, 72, 127
1, 95501, Note_off_c, 0, 60, 127
1, 95504, Note_on_c, 4, 76, 127
1, 95504, Note_on_c, 10, 57, 127
1, 95606, Note_off_c, 10, 57, 127
1, 95609, Note_on_c, 4, 52, 127
1, 95634, Note_off_c, 4, 76, 127
1, 95712, Note_off_c, 4, 52, 127
1, 95715, Note_on_c, 10, 81, 127
1, 95715, Note_on_c, 0, 48, 127
1, 95819, Note_on_c, 4, 52, 127
1, 95870, Note_off_c, 0, 48, 127
1, 95875, Note_off_c, 10, 81, 127
1, 95922, Note_off_c, 4, 52, 127
1, 95925, Note_on_c, 10, 69, 127
1, 95925, Note_on_c, 2, 50, 127
1, 96027, Note_off_c, 2, 50, 127
1, 96030, Note_on_c, 0, 48, 127
1, 96055, Note_off_c, 10, 69, 127
1, 96133, Note_off_c, 0, 48, 127
1, 96136, Note_on_c, 12, 47, 127
1, 96241, Note_on_c, 2, 50, 127
1, 96342, Note_off_c, 12, 47, 127
1, 96343, Note_off_c, 2, 50, 127
1, 96346, Note_on_c, 2, 74, 127
1, 96346, Note_on_c, 7, 55, 127
1, 96448, Note_off_c, 7, 55, 127
1, 96451, Note_on_c, 12, 59, 127
1, 96501, Note_off_c, 2, 74, 127
1, 96554, Note_off_c, 12, 59, 127
1, 96557, Note_on_c, 12, 71, 127
1, 96557, Note_on_c, 2, 62, 127
1, 96662, Note_on_c, 12, 59, 127
1, 96712, Note_off_c, 2, 62, 127
1, 96712, Note_off_c, 12, 71, 127
1, 96765, Note_off_c, 12, 59, 127
1, 96768, Note_on_c, 2, 74, 127
1, 96768, Note_on_c, 7, 55, 127
1, 96870, Note_off_c, 7, 55, 127
1, 96873, Note_on_c, 2, 50, 127
1, 96923, Note_off_c, 2, 74, 127
1, 96976, Note_off_c, 2, 50, 127
1, 96979, Note_on_c, 7, 79, 127
1, 96979, Note_on_c, 12, 47, 127
1, 97084, Note_on_c, 2, 50, 127
1, 97134, Note_off_c, 12, 47, 127
1, 97187, Note_off_c, 2, 50, 127
1, 97190, Note_on_c, 7, 67, 127
1, 97190, Note_on_c, 0, 48, 127
1, 97290, Note_off_c, 7, 79, 127
1, 97292, Note_off_c, 0, 48, 127
1, 97295, Note_on_c, 12, 47, 127
1, 97345, Note_off_c, 7, 67, 127
1, 97398, Note_off_c, 12, 47, 127
1, 97401, Note_on_c, 0, 72, 127
1, 97401, Note_on_c, 10, 45, 127
1, 97506, Note_on_c, 10, 69, 127
1, 97607, Note_off_c, 0, 72, 127
1, 97608, Note_off_c, 10, 69, 127
1, 97611, Note_on_c, 4, 64, 127
1, 97611, Note_on_c, 0, 48, 127
1, 97711, Note_off_c, 10, 45, 127
1, 97713, Note_off_c, 4, 64, 127
1, 97716, Note_on_c, 0, 60, 127
1, 97817, Note_off_c, 0, 48, 127
1, 97818, Note_off_c, 0, 60, 127
1, 97821, Note_on_c, 10, 57, 127
1, 97821, Note_on_c, 4, 52, 127
1, 97923, Note_off_c, 10, 57, 127
1, 97926, Note_on_c, 0, 60, 127
1, 98027, Note_off_c, 4, 52, 127
1, 98028, Note_off_c, 0, 60, 127
1, 98031, Note_on_c, 4, 64, 127
1, 98031, Note_on_c, 7, 55, 127
1, 98133, Note_off_c, 4, 64, 127
1, 98136, Note_on_c, 10, 69, 127
1, 98237, Note_off_c, 7, 55, 127
1, 98238, Note_off_c, 10, 69, 127
1, 98241, Note_on_c, 0, 72, 127
1, 98241, Note_on_c, 6, 54, 127
1, 98343, Note_off_c, 0, 72, 127
1, 98345, Note_on_c, 10, 69, 127
1, 98431, Note_off_c, 6, 54, 127
1, 98448, Note_off_c, 10, 69, 127
1, 98451, Note_on_c, 0, 72, 127
1, 98451, Note_on_c, 4, 52, 127
1, 98553, Note_off_c, 0, 72, 127
1, 98556, Note_on_c, 4, 76, 127
1, 98641, Note_off_c, 4, 52, 127
1, 98659, Note_off_c, 4, 76, 127
1, 98662, Note_on_c, 6, 78, 127
1, 98662, Note_on_c, 2, 50, 127
1, 98767, Note_on_c, 0, 72, 127
1, 98868, Note_off_c, 6, 78, 127
1, 98869, Note_off_c, 0, 72, 127
1, 98872, Note_on_c, 10, 69, 127
1, 98872, Note_on_c, 6, 54, 127
1, 98972, Note_off_c, 2, 50, 127
1, 98974, Note_off_c, 10, 69, 127
1, 98977, Note_on_c, 6, 66, 127
1, 99078, Note_off_c, 6, 54, 127
1, 99079, Note_off_c, 6, 66, 127
1, 99082, Note_on_c, 2, 62, 127
1, 99082, Note_on_c, 10, 57, 127
1, 99184, Note_off_c, 2, 62, 127
1, 99187, Note_on_c, 6, 66, 127
1, 99288, Note_off_c, 10, 57, 127
1, 99289, Note_off_c, 6, 66, 127
1, 99292, Note_on_c, 10, 69, 127
1, 99292, Note_on_c, 0, 60, 127
1, 99394, Note_off_c, 10, 69, 127
1, 99397, Note_on_c, 0, 72, 127
1, 99498, Note_off_c, 0, 60, 127
1, 99499, Note_off_c, 0, 72, 127
1, 99502, Note_on_c, 6, 78, 127
1, 99502, Note_on_c, 12, 59, 127
1, 99604, Note_off_c, 6, 78, 127
1, 99607, Note_on_c, 0, 72, 127
1, 99692, Note_off_c, 12, 59, 127
1, 99710, Note_off_c, 0, 72, 127
1, 99713, Note_on_c, 6, 78, 127
1, 99713, Note_on_c, 10, 57, 127
1, 99815, Note_off_c, 6, 78, 127
1, 99818, Note_on_c, 10, 81, 127
1, 99903, Note_off_c, 10, 57, 127
1, 99921, Note_off_c, 10, 81, 127
1, 99924, Note_on_c, 12, 83, 127
1, 99924, Note_on_c, 7, 55, 127
1, 100029, Note_on_c, 7, 79, 127
1, 100130, Note_off_c, 12, 83, 127
1, 100131, Note_off_c, 7, 79, 127
1, 100134, Note_on_c, 2, 74, 127
1, 100134, Note_on_c, 12, 59, 127
1, 100234, Note_off_c, 7, 55, 127
1, 100236, Note_off_c, 2, 74, 127
1, 100239, Note_on_c, 12, 71, 127
1, 100340, Note_off_c, 12, 59, 127
1, 100341, Note_off_c, 12, 71, 127
1, 100344, Note_on_c, 7, 67, 127
1, 100344, Note_on_c, 2, 62, 127
1, 100446, Note_off_c, 7, 67, 127
1, 100448, Note_on_c, 12, 71, 127
1, 100550, Note_off_c, 12, 71, 127
1, 100550, Note_off_c, 2, 62, 127
1, 100553, Note_on_c, 2, 74, 127
1, 100553, Note_on_c, 5, 65, 127
1, 100655, Note_off_c, 2, 74, 127
1, 100658, Note_on_c, 5, 77, 127
1, 100759, Note_off_c, 5, 65, 127
1, 100760, Note_off_c, 5, 77, 127
1, 100763, Note_on_c, 12, 83, 127
1, 100763, Note_on_c, 4, 64, 127
1, 100865, Note_off_c, 12, 83, 127
1, 100868, Note_on_c, 5, 77, 127
1, 100953, Note_off_c, 4, 64, 127
1, 100971, Note_off_c, 5, 77, 127
1, 100974, Note_on_c, 12, 83, 127
1, 100974, Note_on_c, 2, 62, 127
1, 101076, Note_off_c, 12, 83, 127
1, 101079, Note_on_c, 2, 86, 127
1, 101164, Note_off_c, 2, 62, 127
1, 101182, Note_off_c, 2, 86, 127
1, 101185, Note_on_c, 4, 76, 127
1, 101185, Note_on_c, 0, 60, 127
1, 101290, Note_on_c, 2, 86, 127
1, 101391, Note_off_c, 0, 60, 127
1, 101391, Note_off_c, 4, 76, 127
1, 101392, Note_off_c, 2, 86, 127
1, 101395, Note_on_c, 0, 84, 127
1, 101395, Note_on_c, 4, 64, 127
1, 101500, Note_on_c, 4, 76, 127
1, 101601, Note_off_c, 4, 64, 127
1, 101601, Note_off_c, 0, 84, 127
1, 101602, Note_off_c, 4, 76, 127
1, 101605, Note_on_c, 2, 74, 127
1, 101605, Note_on_c, 6, 66, 127
1, 101710, Note_on_c, 0, 84, 127
1, 101811, Note_off_c, 6, 66, 127
1, 101811, Note_off_c, 2, 74, 127
1, 101812, Note_off_c, 0, 84, 127
1, 101815, Note_on_c, 12, 83, 127
1, 101815, Note_on_c, 8, 68, 127
1, 101920, Note_on_c, 2, 74, 127
1, 102021, Note_off_c, 8, 68, 127
1, 102021, Note_off_c, 12, 83, 127
1, 102022, Note_off_c, 2, 74, 127
1, 102025, Note_on_c, 0, 72, 127
1, 102025, Note_on_c, 10, 69, 127
1, 102130, Note_on_c, 4, 76, 127
1, 102180, Note_off_c, 0, 72, 127
1, 102232, Note_off_c, 10, 69, 127
1, 102233, Note_off_c, 4, 76, 127
1, 102236, Note_on_c, 6, 78, 127
1, 102236, Note_on_c, 7, 67, 127
1, 102338, Note_off_c, 6, 78, 127
1, 102341, Note_on_c, 7, 79, 127
1, 102442, Note_off_c, 7, 67, 127
1, 102443, Note_off_c, 7, 79, 127
1, 102446, Note_on_c, 10, 81, 127
1, 102446, Note_on_c, 6, 66, 127
1, 102550, Note_on_c, 0, 72, 127
1, 102601, Note_off_c, 10, 81, 127
1, 102653, Note_off_c, 0, 72, 127
1, 102653, Note_off_c, 6, 66, 127
1, 102656, Note_on_c, 12, 71, 127
1, 102656, Note_on_c, 2, 62, 127
1, 102758, Note_off_c, 12, 71, 127
1, 102761, Note_on_c, 10, 69, 127
1, 102862, Note_off_c, 2, 62, 127
1, 102863, Note_off_c, 10, 69, 127
1, 102866, Note_on_c, 12, 71, 127
1, 102866, Note_on_c, 7, 67, 127
1, 102971, Note_on_c, 2, 74, 127
1, 103021, Note_off_c, 12, 71, 127
1, 103074, Note_off_c, 2, 74, 127
1, 103077, Note_on_c, 12, 71, 127
1, 103077, Note_on_c, 7, 55, 127
1, 103177, Note_off_c, 7, 67, 127
1, 103179, Note_off_c, 12, 71, 127
1, 103182, Note_on_c, 7, 67, 127
1, 103284, Note_off_c, 7, 67, 127
1, 103287, Note_on_c, 0, 72, 127
1, 103287, Note_on_c, 2, 62, 127
1, 103392, Note_on_c, 10, 69, 127
1, 103442, Note_off_c, 0, 72, 127
1, 103492, Note_off_c, 7, 55, 127
1, 103495, Note_off_c, 10, 69, 127
1, 103498, Note_on_c, 7, 67, 127
1, 103498, Note_on_c, 2, 50, 127
1, 103598, Note_off_c, 2, 62, 127
1, 103600, Note_off_c, 7, 67, 127
1, 103603, Note_on_c, 6, 66, 127
1, 103705, Note_off_c, 6, 66, 127
1, 103708, Note_on_c, 12, 71, 127
1, 103708, Note_on_c, 7, 55, 127
1, 103808, Note_off_c, 2, 50, 127
1, 103813, Note_on_c, 7, 67, 127
1, 103813, Note_on_c, 7, 43, 127
1, 103914, Note_off_c, 7, 55, 127
1, 103914, Note_off_c, 12, 71, 127
1, 103915, Note_off_c, 7, 43, 127
1, 103915, Note_off_c, 7, 67, 127
1, 103918, Note_on_c, 6, 66, 127
1, 103918, Note_on_c, 10, 45, 127
1, 104020, Note_off_c, 10, 45, 127
1, 104020, Note_off_c, 6, 66, 127
1, 104023, Note_on_c, 4, 64, 127
1, 104023, Note_on_c, 12, 47, 127
1, 104125, Note_off_c, 12, 47, 127
1, 104125, Note_off_c, 4, 64, 127
1, 104128, Note_on_c, 2, 62, 127
1, 104128, Note_on_c, 0, 48, 127
1, 104230, Note_off_c, 0, 48, 127
1, 104230, Note_off_c, 2, 62, 127
1, 104233, Note_on_c, 0, 60, 127
1, 104233, Note_on_c, 2, 50, 127
1, 104335, Note_off_c, 2, 50, 127
1, 104335, Note_off_c, 0, 60, 127
1, 104338, Note_on_c, 12, 59, 127
1, 104338, Note_on_c, 4, 52, 127
1, 104440, Note_off_c, 4, 52, 127
1, 104440, Note_off_c, 12, 59, 127
1, 104443, Note_on_c, 10, 57, 127
1, 104443, Note_on_c, 6, 54, 127
1, 104545, Note_off_c, 6, 54, 127
1, 104545, Note_off_c, 10, 57, 127
1, 104605, Note_on_c, 7, 55, 127
1, 106705, Note_off_c, 7, 55, 127
1, 107049, Note_on_c, 12, 71, 127
1, 107049, Note_on_c, 7, 55, 127
1, 107353, Note_off_c, 7, 55, 127
1, 107359, Note_on_c, 6, 54, 127
1, 107660, Note_off_c, 12, 71, 127
1, 107663, Note_off_c, 6, 54, 127
1, 107668, Note_on_c, 4, 76, 127
1, 107668, Note_on_c, 7, 55, 127
1, 107819, Note_off_c, 4, 76, 127
1, 107823, Note_on_c, 2, 74, 127
1, 107972, Note_off_c, 7, 55, 127
1, 107974, Note_off_c, 2, 74, 127
1, 107978, Note_on_c, 4, 76, 127
1, 107978, Note_on_c, 4, 52, 127
1, 108282, Note_off_c, 4, 52, 127
1, 108287, Note_on_c, 6, 54, 127
1, 108589, Note_off_c, 4, 76, 127
1, 108591, Note_off_c, 6, 54, 127
1, 108597, Note_on_c, 2, 74, 127
1, 108597, Note_on_c, 4, 52, 127
1, 108748, Note_off_c, 2, 74, 127
1, 108751, Note_on_c, 0, 72, 127
1, 108901, Note_off_c, 4, 52, 127
1, 108902, Note_off_c, 0, 72, 127
1, 108906, Note_on_c, 2, 74, 127
1, 108906, Note_on_c, 6, 54, 127
1, 109057, Note_off_c, 2, 74, 127
1, 109061, Note_on_c, 0, 72, 127
1, 109210, Note_off_c, 6, 54, 127
1, 109212, Note_off_c, 0, 72, 127
1, 109216, Note_on_c, 12, 71, 127
1, 109216, Note_on_c, 2, 50, 127
1, 109367, Note_off_c, 12, 71, 127
1, 109370, Note_on_c, 10, 69, 127
1, 109520, Note_off_c, 2, 50, 127
1, 109521, Note_off_c, 10, 69, 127
1, 109525, Note_on_c, 7, 79, 127
1, 109525, Note_on_c, 7, 67, 127
1, 109525, Note_on_c, 4, 52, 127
1, 109829, Note_off_c, 4, 52, 127
1, 109835, Note_on_c, 2, 50, 127
1, 110135, Note_off_c, 7, 67, 127
1, 110137, Note_off_c, 7, 79, 127
1, 110140, Note_off_c, 2, 50, 127
1, 110145, Note_on_c, 0, 84, 127
1, 110145, Note_on_c, 4, 52, 127
1, 110296, Note_off_c, 0, 84, 127
1, 110300, Note_on_c, 12, 83, 127
1, 110449, Note_off_c, 4, 52, 127
1, 110451, Note_off_c, 12, 83, 127
1, 110455, Note_on_c, 0, 84, 127
1, 110455, Note_on_c, 10, 81, 127
1, 110455, Note_on_c, 0, 48, 127
1, 110759, Note_off_c, 0, 48, 127
1, 110759, Note_off_c, 10, 81, 127
1, 110764, Note_on_c, 6, 78, 127
1, 110764, Note_on_c, 2, 50, 127
1, 111066, Note_off_c, 0, 84, 127
1, 111068, Note_off_c, 2, 50, 127
1, 111068, Note_off_c, 6, 78, 127
1, 111074, Note_on_c, 12, 83, 127
1, 111074, Note_on_c, 2, 74, 127
1, 111074, Note_on_c, 2, 38, 127
1, 111225, Note_off_c, 12, 83, 127
1, 111229, Note_on_c, 10, 81, 127
1, 111378, Note_off_c, 2, 38, 127
1, 111380, Note_off_c, 10, 81, 127
1, 111383, Note_on_c, 12, 83, 127
1, 111383, Note_on_c, 2, 50, 127
1, 111534, Note_off_c, 2, 50, 127
1, 111534, Note_off_c, 12, 83, 127
1, 111538, Note_on_c, 10, 81, 127
1, 111538, Note_on_c, 0, 48, 127
1, 111684, Note_off_c, 2, 74, 127
1, 111690, Note_off_c, 0, 48, 127
1, 111690, Note_off_c, 10, 81, 127
1, 111694, Note_on_c, 7, 79, 127
1, 111694, Note_on_c, 12, 47, 127
1, 111845, Note_off_c, 12, 47, 127
1, 111845, Note_off_c, 7, 79, 127
1, 111849, Note_on_c, 6, 78, 127
1, 111849, Note_on_c, 10, 45, 127
1, 112000, Note_off_c, 10, 45, 127
1, 112000, Note_off_c, 6, 78, 127
1, 112003, Note_on_c, 7, 79, 127
1, 112003, Note_on_c, 12, 47, 127
1, 112158, Note_on_c, 2, 74, 127
1, 112307, Note_off_c, 12, 47, 127
1, 112309, Note_off_c, 2, 74, 127
1, 112313, Note_on_c, 0, 72, 127
1, 112313, Note_on_c, 10, 45, 127
1, 112464, Note_off_c, 0, 72, 127
1, 112468, Note_on_c, 4, 76, 127
1, 112617, Note_off_c, 10, 45, 127
1, 112619, Note_off_c, 4, 76, 127
1, 112622, Note_on_c, 2, 74, 127
1, 112622, Note_on_c, 12, 47, 127
1, 112767, Note_off_c, 7, 79, 127
1, 112777, Note_on_c, 5, 77, 127
1, 112849, Note_off_c, 2, 74, 127
1, 112926, Note_off_c, 12, 47, 127
1, 112928, Note_off_c, 5, 77, 127
1, 112932, Note_on_c, 4, 76, 127
1, 112932, Note_on_c, 12, 71, 127
1, 112932, Note_on_c, 7, 43, 127
1, 113083, Note_off_c, 4, 76, 127
1, 113087, Note_on_c, 2, 74, 127
1, 113236, Note_off_c, 7, 43, 127
1, 113238, Note_off_c, 2, 74, 127
1, 113242, Note_on_c, 4, 76, 127
1, 113242, Note_on_c, 0, 48, 127
1, 113389, Note_off_c, 12, 71, 127
1, 113396, Note_on_c, 10, 69, 127
1, 113546, Note_off_c, 0, 48, 127
1, 113547, Note_off_c, 10, 69, 127
1, 113551, Note_on_c, 7, 67, 127
1, 113551, Note_on_c, 12, 47, 127
1, 113702, Note_off_c, 7, 67, 127
1, 113706, Note_on_c, 12, 71, 127
1, 113855, Note_off_c, 12, 47, 127
1, 113857, Note_off_c, 12, 71, 127
1, 113861, Note_on_c, 10, 69, 127
1, 113861, Note_on_c, 0, 48, 127
1, 114006, Note_off_c, 4, 76, 127
1, 114015, Note_on_c, 2, 74, 127
1, 114088, Note_off_c, 10, 69, 127
1, 114165, Note_off_c, 0, 48, 127
1, 114166, Note_off_c, 2, 74, 127
1, 114170, Note_on_c, 0, 72, 127
1, 114170, Note_on_c, 7, 67, 127
1, 114170, Note_on_c, 10, 45, 127
1, 114321, Note_off_c, 0, 72, 127
1, 114325, Note_on_c, 12, 71, 127
1, 114474, Note_off_c, 10, 45, 127
1, 114476, Note_off_c, 12, 71, 127
1, 114480, Note_on_c, 10, 69, 127
1, 114480, Note_on_c, 2, 50, 127
1, 114627, Note_off_c, 7, 67, 127
1, 114634, Note_on_c, 6, 66, 127
1, 114784, Note_off_c, 2, 50, 127
1, 114785, Note_off_c, 6, 66, 127
1, 114789, Note_on_c, 4, 64, 127
1, 114789, Note_on_c, 0, 48, 127
1, 114940, Note_off_c, 4, 64, 127
1, 114944, Note_on_c, 7, 67, 127
1, 115093, Note_off_c, 0, 48, 127
1, 115095, Note_off_c, 7, 67, 127
1, 115099, Note_on_c, 6, 66, 127
1, 115099, Note_on_c, 2, 50, 127
1, 115244, Note_off_c, 10, 69, 127
1, 115253, Note_on_c, 0, 72, 127
1, 115403, Note_off_c, 2, 50, 127
1, 115404, Note_off_c, 0, 72, 127
1, 115408, Note_on_c, 12, 71, 127
1, 115408, Note_on_c, 2, 38, 127
1, 115559, Note_off_c, 12, 71, 127
1, 115563, Note_on_c, 10, 69, 127
1, 115710, Note_off_c, 6, 66, 127
1, 115712, Note_off_c, 2, 38, 127
1, 115714, Note_off_c, 10, 69, 127
1, 115718, Note_on_c, 12, 71, 127
1, 115718, Note_on_c, 7, 67, 127
1, 115718, Note_on_c, 7, 43, 127
1, 115869, Note_off_c, 12, 71, 127
1, 115872, Note_on_c, 7, 79, 127
1, 116022, Note_off_c, 7, 43, 127
1, 116023, Note_off_c, 7, 79, 127
1, 116027, Note_on_c, 6, 78, 127
1, 116027, Note_on_c, 7, 55, 127
1, 116178, Note_off_c, 6, 78, 127
1, 116182, Note_on_c, 10, 81, 127
1, 116331, Note_off_c, 7, 55, 127
1, 116333, Note_off_c, 10, 81, 127
1, 116337, Note_on_c, 7, 79, 127
1, 116337, Note_on_c, 12, 59, 127
1, 116488, Note_off_c, 7, 79, 127
1, 116491, Note_on_c, 6, 78, 127
1, 116641, Note_off_c, 12, 59, 127
1, 116642, Note_off_c, 6, 78, 127
1, 116646, Note_on_c, 4, 76, 127
1, 116646, Note_on_c, 2, 62, 127
1, 116797, Note_off_c, 4, 76, 127
1, 116801, Note_on_c, 2, 74, 127
1, 116942, Note_off_c, 7, 67, 127
1, 116950, Note_off_c, 2, 62, 127
1, 116952, Note_off_c, 2, 74, 127
1, 116956, Note_on_c, 0, 84, 127
1, 116956, Note_on_c, 7, 67, 127
1, 117111, Note_on_c, 10, 69, 127
1, 117260, Note_off_c, 7, 67, 127
1, 117260, Note_off_c, 0, 84, 127
1, 117262, Note_off_c, 10, 69, 127
1, 117265, Note_on_c, 12, 83, 127
1, 117265, Note_on_c, 12, 71, 127
1, 117265, Note_on_c, 6, 66, 127
1, 117416, Note_off_c, 12, 71, 127
1, 117420, Note_on_c, 2, 74, 127
1, 117569, Note_off_c, 6, 66, 127
1, 117571, Note_off_c, 2, 74, 127
1, 117575, Note_on_c, 4, 76, 127
1, 117575, Note_on_c, 7, 67, 127
1, 117876, Note_off_c, 12, 83, 127
1, 117879, Note_off_c, 7, 67, 127
1, 117884, Note_on_c, 4, 64, 127
1, 118188, Note_off_c, 4, 64, 127
1, 118194, Note_on_c, 6, 66, 127
1, 118339, Note_off_c, 4, 76, 127
1, 118349, Note_on_c, 2, 74, 127
1, 118498, Note_off_c, 6, 66, 127
1, 118500, Note_off_c, 2, 74, 127
1, 118503, Note_on_c, 1, 73, 127
1, 118503, Note_on_c, 4, 64, 127
1, 118654, Note_off_c, 1, 73, 127
1, 118658, Note_on_c, 4, 76, 127
1, 118807, Note_off_c, 4, 64, 127
1, 118809, Note_off_c, 4, 76, 127
1, 118813, Note_on_c, 2, 74, 127
1, 118813, Note_on_c, 6, 66, 127
1, 118964, Note_off_c, 2, 74, 127
1, 118968, Note_on_c, 1, 73, 127
1, 119117, Note_off_c, 6, 66, 127
1, 119119, Note_off_c, 1, 73, 127
1, 119122, Note_on_c, 12, 71, 127
1, 119122, Note_on_c, 2, 62, 127
1, 119273, Note_off_c, 12, 71, 127
1, 119277, Note_on_c, 10, 69, 127
1, 119426, Note_off_c, 2, 62, 127
1, 119428, Note_off_c, 10, 69, 127
1, 119432, Note_on_c, 7, 67, 127
1, 119432, Note_on_c, 12, 71, 127
1, 119432, Note_on_c, 4, 64, 127
1, 119583, Note_off_c, 12, 71, 127
1, 119587, Note_on_c, 3, 75, 127
1, 119736, Note_off_c, 4, 64, 127
1, 119738, Note_off_c, 3, 75, 127
1, 119741, Note_on_c, 4, 76, 127
1, 119741, Note_on_c, 2, 62, 127
1, 119892, Note_off_c, 4, 76, 127
1, 119896, Note_on_c, 7, 79, 127
1, 120042, Note_off_c, 7, 67, 127
1, 120046, Note_off_c, 2, 62, 127
1, 120048, Note_off_c, 7, 79, 127
1, 120052, Note_on_c, 12, 83, 127
1, 120052, Note_on_c, 4, 64, 127
1, 120356, Note_off_c, 4, 64, 127
1, 120362, Note_on_c, 7, 79, 127
1, 120362, Note_on_c, 12, 59, 127
1, 120666, Note_off_c, 12, 59, 127
1, 120666, Note_off_c, 7, 79, 127
1, 120671, Note_on_c, 4, 76, 127
1, 120671, Note_on_c, 1, 61, 127
1, 120816, Note_off_c, 12, 83, 127
1, 120826, Note_on_c, 10, 81, 127
1, 120975, Note_off_c, 1, 61, 127
1, 120975, Note_off_c, 4, 76, 127
1, 120977, Note_off_c, 10, 81, 127
1, 120981, Note_on_c, 1, 73, 127
1, 120981, Note_on_c, 7, 79, 127
1, 120981, Note_on_c, 4, 64, 127
1, 121132, Note_off_c, 4, 64, 127
1, 121132, Note_off_c, 7, 79, 127
1, 121135, Note_on_c, 12, 83, 127
1, 121135, Note_on_c, 2, 62, 127
1, 121286, Note_off_c, 2, 62, 127
1, 121286, Note_off_c, 12, 83, 127
1, 121290, Note_on_c, 10, 81, 127
1, 121290, Note_on_c, 1, 61, 127
1, 121428, Note_off_c, 1, 73, 127
1, 121442, Note_off_c, 1, 61, 127
1, 121442, Note_off_c, 10, 81, 127
1, 121446, Note_on_c, 7, 79, 127
1, 121446, Note_on_c, 12, 59, 127
1, 121597, Note_off_c, 12, 59, 127
1, 121597, Note_off_c, 7, 79, 127
1, 121601, Note_on_c, 6, 78, 127
1, 121601, Note_on_c, 10, 57, 127
1, 121752, Note_off_c, 10, 57, 127
1, 121752, Note_off_c, 6, 78, 127
1, 121755, Note_on_c, 4, 76, 127
1, 121755, Note_on_c, 7, 55, 127
1, 121906, Note_off_c, 7, 55, 127
1, 121906, Note_off_c, 4, 76, 127
1, 121910, Note_on_c, 2, 74, 127
1, 121910, Note_on_c, 6, 54, 127
1, 122065, Note_on_c, 10, 69, 127
1, 122214, Note_off_c, 6, 54, 127
1, 122216, Note_off_c, 10, 69, 127
1, 122220, Note_on_c, 7, 67, 127
1, 122220, Note_on_c, 4, 52, 127
1, 122371, Note_off_c, 7, 67, 127
1, 122374, Note_on_c, 12, 71, 127
1, 122524, Note_off_c, 4, 52, 127
1, 122525, Note_off_c, 12, 71, 127
1, 122529, Note_on_c, 10, 69, 127
1, 122529, Note_on_c, 6, 54, 127
1, 122674, Note_off_c, 2, 74, 127
1, 122684, Note_on_c, 0, 72, 127
1, 122756, Note_off_c, 10, 69, 127
1, 122833, Note_off_c, 6, 54, 127
1, 122835, Note_off_c, 0, 72, 127
1, 122839, Note_on_c, 6, 66, 127
1, 122839, Note_on_c, 12, 71, 127
1, 122839, Note_on_c, 2, 50, 127
1, 122990, Note_off_c, 12, 71, 127
1, 122994, Note_on_c, 10, 69, 127
1, 123143, Note_off_c, 2, 50, 127
1, 123145, Note_off_c, 10, 69, 127
1, 123148, Note_on_c, 12, 71, 127
1, 123148, Note_on_c, 7, 55, 127
1, 123296, Note_off_c, 6, 66, 127
1, 123303, Note_on_c, 4, 64, 127
1, 123452, Note_off_c, 7, 55, 127
1, 123454, Note_off_c, 4, 64, 127
1, 123458, Note_on_c, 2, 62, 127
1, 123458, Note_on_c, 6, 54, 127
1, 123609, Note_off_c, 2, 62, 127
1, 123613, Note_on_c, 6, 66, 127
1, 123762, Note_off_c, 6, 54, 127
1, 123764, Note_off_c, 6, 66, 127
1, 123767, Note_on_c, 4, 64, 127
1, 123767, Note_on_c, 7, 55, 127
1, 123912, Note_off_c, 12, 71, 127
1, 123922, Note_on_c, 10, 69, 127
1, 123994, Note_off_c, 4, 64, 127
1, 124071, Note_off_c, 7, 55, 127
1, 124073, Note_off_c, 10, 69, 127
1, 124077, Note_on_c, 2, 62, 127
1, 124077, Note_on_c, 7, 67, 127
1, 124077, Note_on_c, 4, 52, 127
1, 124228, Note_off_c, 7, 67, 127
1, 124232, Note_on_c, 6, 66, 127
1, 124381, Note_off_c, 4, 52, 127
1, 124383, Note_off_c, 6, 66, 127
1, 124386, Note_on_c, 4, 64, 127
1, 124386, Note_on_c, 10, 57, 127
1, 124534, Note_off_c, 2, 62, 127
1, 124541, Note_on_c, 1, 61, 127
1, 124690, Note_off_c, 10, 57, 127
1, 124692, Note_off_c, 1, 61, 127
1, 124696, Note_on_c, 12, 59, 127
1, 124696, Note_on_c, 7, 55, 127
1, 124847, Note_off_c, 12, 59, 127
1, 124851, Note_on_c, 2, 62, 127
1, 125000, Note_off_c, 7, 55, 127
1, 125002, Note_off_c, 2, 62, 127
1, 125005, Note_on_c, 1, 61, 127
1, 125005, Note_on_c, 10, 57, 127
1, 125150, Note_off_c, 4, 64, 127
1, 125160, Note_on_c, 7, 67, 127
1, 125309, Note_off_c, 10, 57, 127
1, 125311, Note_off_c, 7, 67, 127
1, 125315, Note_on_c, 6, 66, 127
1, 125315, Note_on_c, 10, 45, 127
1, 125466, Note_off_c, 6, 66, 127
1, 125470, Note_on_c, 4, 64, 127
1, 125616, Note_off_c, 1, 61, 127
1, 125619, Note_off_c, 10, 45, 127
1, 125621, Note_off_c, 4, 64, 127
1, 125624, Note_on_c, 2, 62, 127
1, 125624, Note_on_c, 2, 50, 127
1, 125928, Note_off_c, 2, 50, 127
1, 125934, Note_on_c, 4, 52, 127
1, 126085, Note_off_c, 4, 52, 127
1, 126089, Note_on_c, 6, 54, 127
1, 126240, Note_off_c, 6, 54, 127
1, 126243, Note_on_c, 7, 55, 127
1, 126394, Note_off_c, 7, 55, 127
1, 126398, Note_on_c, 10, 57, 127
1, 126549, Note_off_c, 10, 57, 127
1, 126553, Note_on_c, 12, 59, 127
1, 126704, Note_off_c, 12, 59, 127
1, 126708, Note_on_c, 1, 61, 127
1, 126848, Note_off_c, 2, 62, 127
1, 126859, Note_off_c, 1, 61, 127
1, 126863, Note_on_c, 10, 69, 127
1, 126863, Note_on_c, 2, 62, 127
1, 127017, Note_on_c, 6, 78, 127
1, 127167, Note_off_c, 2, 62, 127
1, 127168, Note_off_c, 6, 78, 127
1, 127172, Note_on_c, 4, 76, 127
1, 127172, Note_on_c, 1, 61, 127
1, 127323, Note_off_c, 4, 76, 127
1, 127327, Note_on_c, 7, 79, 127
1, 127474, Note_off_c, 10, 69, 127
1, 127476, Note_off_c, 1, 61, 127
1, 127478, Note_off_c, 7, 79, 127
1, 127482, Note_on_c, 10, 81, 127
1, 127482, Note_on_c, 6, 78, 127
1, 127482, Note_on_c, 2, 62, 127
1, 127633, Note_off_c, 6, 78, 127
1, 127633, Note_off_c, 10, 81, 127
1, 127636, Note_on_c, 7, 79, 127
1, 127636, Note_on_c, 4, 76, 127
1, 127786, Note_off_c, 2, 62, 127
1, 127787, Note_off_c, 4, 76, 127
1, 127787, Note_off_c, 7, 79, 127
1, 127791, Note_on_c, 10, 81, 127
1, 127791, Note_on_c, 2, 74, 127
1, 127791, Note_on_c, 10, 57, 127
1, 127942, Note_off_c, 2, 74, 127
1, 127946, Note_on_c, 0, 72, 127
1, 128095, Note_off_c, 10, 57, 127
1, 128097, Note_off_c, 0, 72, 127
1, 128101, Note_on_c, 2, 74, 127
1, 128101, Note_on_c, 12, 59, 127
1, 128248, Note_off_c, 10, 81, 127
1, 128255, Note_on_c, 7, 79, 127
1, 128405, Note_off_c, 12, 59, 127
1, 128406, Note_off_c, 7, 79, 127
1, 128410, Note_on_c, 6, 78, 127
1, 128410, Note_on_c, 10, 57, 127
1, 128561, Note_off_c, 6, 78, 127
1, 128565, Note_on_c, 10, 81, 127
1, 128714, Note_off_c, 10, 57, 127
1, 128716, Note_off_c, 10, 81, 127
1, 128720, Note_on_c, 7, 79, 127
1, 128720, Note_on_c, 12, 59, 127
1, 128871, Note_off_c, 7, 79, 127
1, 128874, Note_on_c, 6, 78, 127
1, 129018, Note_off_c, 2, 74, 127
1, 129024, Note_off_c, 12, 59, 127
1, 129025, Note_off_c, 6, 78, 127
1, 129029, Note_on_c, 4, 76, 127
1, 129029, Note_on_c, 12, 71, 127
1, 129029, Note_on_c, 7, 55, 127
1, 129180, Note_off_c, 4, 76, 127
1, 129184, Note_on_c, 3, 75, 127
1, 129333, Note_off_c, 7, 55, 127
1, 129333, Note_off_c, 12, 71, 127
1, 129335, Note_off_c, 3, 75, 127
1, 129339, Note_on_c, 4, 76, 127
1, 129339, Note_on_c, 7, 67, 127
1, 129339, Note_on_c, 0, 60, 127
1, 129490, Note_off_c, 0, 60, 127
1, 129493, Note_on_c, 0, 48, 127
1, 129643, Note_off_c, 7, 67, 127
1, 129644, Note_off_c, 0, 48, 127
1, 129648, Note_on_c, 4, 64, 127
1, 129648, Note_on_c, 12, 47, 127
1, 129799, Note_off_c, 12, 47, 127
1, 129803, Note_on_c, 2, 50, 127
1, 129949, Note_off_c, 4, 76, 127
1, 129953, Note_off_c, 4, 64, 127
1, 129955, Note_off_c, 2, 50, 127
1, 129959, Note_on_c, 10, 69, 127
1, 129959, Note_on_c, 0, 48, 127
1, 130110, Note_off_c, 0, 48, 127
1, 130110, Note_off_c, 10, 69, 127
1, 130114, Note_on_c, 7, 67, 127
1, 130114, Note_on_c, 12, 47, 127
1, 130265, Note_off_c, 12, 47, 127
1, 130265, Note_off_c, 7, 67, 127
1, 130268, Note_on_c, 6, 78, 127
1, 130268, Note_on_c, 10, 69, 127
1, 130268, Note_on_c, 10, 45, 127
1, 130419, Note_off_c, 10, 45, 127
1, 130423, Note_on_c, 0, 48, 127
1, 130572, Note_off_c, 6, 78, 127
1, 130574, Note_off_c, 0, 48, 127
1, 130578, Note_on_c, 3, 75, 127
1, 130578, Note_on_c, 12, 47, 127
1, 130725, Note_off_c, 10, 69, 127
1, 130729, Note_off_c, 12, 47, 127
1, 130733, Note_on_c, 7, 67, 127
1, 130733, Note_on_c, 12, 59, 127
1, 130882, Note_off_c, 3, 75, 127
1, 130884, Note_off_c, 12, 59, 127
1, 130884, Note_off_c, 7, 67, 127
1, 130887, Note_on_c, 12, 71, 127
1, 130887, Note_on_c, 6, 66, 127
1, 130887, Note_on_c, 10, 57, 127
1, 131038, Note_off_c, 10, 57, 127
1, 131038, Note_off_c, 6, 66, 127
1, 131042, Note_on_c, 10, 69, 127
1, 131042, Note_on_c, 0, 60, 127
1, 131193, Note_off_c, 0, 60, 127
1, 131193, Note_off_c, 10, 69, 127
1, 131197, Note_on_c, 7, 67, 127
1, 131197, Note_on_c, 12, 59, 127
1, 131348, Note_off_c, 12, 59, 127
1, 131348, Note_off_c, 7, 67, 127
1, 131352, Note_on_c, 6, 66, 127
1, 131352, Note_on_c, 10, 57, 127
1, 131497, Note_off_c, 12, 71, 127
1, 131504, Note_off_c, 10, 57, 127
1, 131504, Note_off_c, 6, 66, 127
1, 131507, Note_on_c, 4, 64, 127
1, 131507, Note_on_c, 7, 55, 127
1, 131658, Note_off_c, 7, 55, 127
1, 131658, Note_off_c, 4, 64, 127
1, 131662, Note_on_c, 3, 63, 127
1, 131662, Note_on_c, 6, 54, 127
1, 131813, Note_off_c, 6, 54, 127
1, 131813, Note_off_c, 3, 63, 127
1, 131817, Note_on_c, 4, 76, 127
1, 131817, Note_on_c, 4, 64, 127
1, 131817, Note_on_c, 7, 55, 127
1, 131968, Note_off_c, 4, 64, 127
1, 131972, Note_on_c, 12, 71, 127
1, 132121, Note_off_c, 7, 55, 127
1, 132123, Note_off_c, 12, 71, 127
1, 132126, Note_on_c, 10, 69, 127
1, 132126, Note_on_c, 6, 54, 127
1, 132277, Note_off_c, 10, 69, 127
1, 132281, Note_on_c, 0, 72, 127
1, 132430, Note_off_c, 6, 54, 127
1, 132432, Note_off_c, 0, 72, 127
1, 132436, Note_on_c, 12, 71, 127
1, 132436, Note_on_c, 7, 55, 127
1, 132581, Note_off_c, 4, 76, 127
1, 132591, Note_on_c, 2, 74, 127
1, 132663, Note_off_c, 12, 71, 127
1, 132740, Note_off_c, 7, 55, 127
1, 132742, Note_off_c, 2, 74, 127
1, 132746, Note_on_c, 0, 72, 127
1, 132746, Note_on_c, 7, 67, 127
1, 132746, Note_on_c, 4, 52, 127
1, 132897, Note_off_c, 0, 72, 127
1, 132900, Note_on_c, 12, 71, 127
1, 133050, Note_off_c, 4, 52, 127
1, 133051, Note_off_c, 12, 71, 127
1, 133055, Note_on_c, 0, 72, 127
1, 133055, Note_on_c, 10, 57, 127
1, 133203, Note_off_c, 7, 67, 127
1, 133210, Note_on_c, 6, 66, 127
1, 133359, Note_off_c, 10, 57, 127
1, 133361, Note_off_c, 6, 66, 127
1, 133365, Note_on_c, 4, 64, 127
1, 133365, Note_on_c, 7, 55, 127
1, 133516, Note_off_c, 4, 64, 127
1, 133519, Note_on_c, 7, 67, 127
1, 133669, Note_off_c, 7, 55, 127
1, 133670, Note_off_c, 7, 67, 127
1, 133674, Note_on_c, 6, 66, 127
1, 133674, Note_on_c, 10, 57, 127
1, 133819, Note_off_c, 0, 72, 127
1, 133829, Note_on_c, 12, 71, 127
1, 133901, Note_off_c, 6, 66, 127
1, 133978, Note_off_c, 10, 57, 127
1, 133980, Note_off_c, 12, 71, 127
1, 133984, Note_on_c, 10, 69, 127
1, 133984, Note_on_c, 4, 64, 127
1, 133984, Note_on_c, 6, 54, 127
1, 134135, Note_off_c, 10, 69, 127
1, 134138, Note_on_c, 7, 67, 127
1, 134288, Note_off_c, 6, 54, 127
1, 134289, Note_off_c, 7, 67, 127
1, 134293, Note_on_c, 6, 66, 127
1, 134293, Note_on_c, 12, 59, 127
1, 134441, Note_off_c, 4, 64, 127
1, 134448, Note_on_c, 3, 63, 127
1, 134597, Note_off_c, 12, 59, 127
1, 134599, Note_off_c, 3, 63, 127
1, 134603, Note_on_c, 1, 61, 127
1, 134603, Note_on_c, 11, 58, 127
1, 134754, Note_off_c, 1, 61, 127
1, 134757, Note_on_c, 4, 64, 127
1, 134907, Note_off_c, 11, 58, 127
1, 134908, Note_off_c, 4, 64, 127
1, 134912, Note_on_c, 3, 63, 127
1, 134912, Note_on_c, 12, 59, 127
1, 135057, Note_off_c, 6, 66, 127
1, 135067, Note_on_c, 10, 69, 127
1, 135216, Note_off_c, 12, 59, 127
1, 135218, Note_off_c, 10, 69, 127
1, 135222, Note_on_c, 7, 67, 127
1, 135222, Note_on_c, 12, 47, 127
1, 135373, Note_off_c, 7, 67, 127
1, 135376, Note_on_c, 6, 66, 127
1, 135523, Note_off_c, 3, 63, 127
1, 135526, Note_off_c, 12, 47, 127
1, 135527, Note_off_c, 6, 66, 127
1, 135531, Note_on_c, 7, 67, 127
1, 135531, Note_on_c, 4, 64, 127
1, 135531, Note_on_c, 4, 40, 127
1, 135682, Note_off_c, 4, 40, 127
1, 135686, Note_on_c, 4, 52, 127
1, 135837, Note_off_c, 4, 52, 127
1, 135841, Note_on_c, 3, 51, 127
1, 135992, Note_off_c, 3, 51, 127
1, 135995, Note_on_c, 6, 54, 127
1, 136142, Note_off_c, 7, 67, 127
1, 136146, Note_off_c, 6, 54, 127
1, 136150, Note_on_c, 12, 71, 127
1, 136150, Note_on_c, 4, 52, 127
1, 136301, Note_off_c, 4, 52, 127
1, 136305, Note_on_c, 2, 50, 127
1, 136456, Note_off_c, 2, 50, 127
1, 136460, Note_on_c, 0, 48, 127
1, 136611, Note_off_c, 0, 48, 127
1, 136615, Note_on_c, 12, 47, 127
1, 136755, Note_off_c, 4, 64, 127
1, 136766, Note_off_c, 12, 47, 127
1, 136769, Note_on_c, 4, 64, 127
1, 136769, Note_on_c, 0, 48, 127
1, 136914, Note_off_c, 12, 71, 127
1, 136924, Note_on_c, 10, 69, 127
1, 137073, Note_off_c, 0, 48, 127
1, 137075, Note_off_c, 10, 69, 127
1, 137079, Note_on_c, 7, 67, 127
1, 137079, Note_on_c, 12, 47, 127
1, 137230, Note_off_c, 7, 67, 127
1, 137234, Note_on_c, 12, 71, 127
1, 137380, Note_off_c, 4, 64, 127
1, 137383, Note_off_c, 12, 47, 127
1, 137385, Note_off_c, 12, 71, 127
1, 137388, Note_on_c, 10, 69, 127
1, 137388, Note_on_c, 0, 48, 127
1, 137543, Note_on_c, 7, 67, 127
1, 137692, Note_off_c, 0, 48, 127
1, 137694, Note_off_c, 7, 67, 127
1, 137698, Note_on_c, 6, 66, 127
1, 137698, Note_on_c, 10, 57, 127
1, 137849, Note_off_c, 6, 66, 127
1, 137853, Note_on_c, 4, 64, 127
1, 138002, Note_off_c, 10, 57, 127
1, 138004, Note_off_c, 4, 64, 127
1, 138007, Note_on_c, 2, 62, 127
1, 138007, Note_on_c, 12, 47, 127
1, 138152, Note_off_c, 10, 69, 127
1, 138162, Note_on_c, 7, 67, 127
1, 138311, Note_off_c, 12, 47, 127
1, 138313, Note_off_c, 7, 67, 127
1, 138317, Note_on_c, 6, 66, 127
1, 138317, Note_on_c, 10, 45, 127
1, 138468, Note_off_c, 6, 66, 127
1, 138472, Note_on_c, 10, 69, 127
1, 138618, Note_off_c, 2, 62, 127
1, 138621, Note_off_c, 10, 45, 127
1, 138623, Note_off_c, 10, 69, 127
1, 138626, Note_on_c, 7, 67, 127
1, 138626, Note_on_c, 12, 47, 127
1, 138781, Note_on_c, 6, 66, 127
1, 138930, Note_off_c, 12, 47, 127
1, 138932, Note_off_c, 6, 66, 127
1, 138936, Note_on_c, 4, 64, 127
1, 138936, Note_on_c, 7, 55, 127
1, 139087, Note_off_c, 4, 64, 127
1, 139091, Note_on_c, 2, 62, 127
1, 139240, Note_off_c, 7, 55, 127
1, 139242, Note_off_c, 2, 62, 127
1, 139245, Note_on_c, 0, 60, 127
1, 139245, Note_on_c, 10, 45, 127
1, 139390, Note_off_c, 7, 67, 127
1, 139400, Note_on_c, 6, 66, 127
1, 139549, Note_off_c, 10, 45, 127
1, 139551, Note_off_c, 6, 66, 127
1, 139555, Note_on_c, 4, 64, 127
1, 139555, Note_on_c, 7, 43, 127
1, 139706, Note_off_c, 4, 64, 127
1, 139710, Note_on_c, 7, 67, 127
1, 139856, Note_off_c, 0, 60, 127
1, 139859, Note_off_c, 7, 43, 127
1, 139861, Note_off_c, 7, 67, 127
1, 139864, Note_on_c, 6, 66, 127
1, 139864, Note_on_c, 0, 72, 127
1, 139864, Note_on_c, 10, 45, 127
1, 140015, Note_off_c, 6, 66, 127
1, 140019, Note_on_c, 4, 64, 127
1, 140168, Note_off_c, 10, 45, 127
1, 140170, Note_off_c, 4, 64, 127
1, 140174, Note_on_c, 2, 62, 127
1, 140174, Note_on_c, 7, 55, 127
1, 140325, Note_off_c, 2, 62, 127
1, 140329, Note_on_c, 0, 60, 127
1, 140478, Note_off_c, 7, 55, 127
1, 140480, Note_off_c, 0, 60, 127
1, 140484, Note_on_c, 2, 62, 127
1, 140484, Note_on_c, 6, 54, 127
1, 140628, Note_off_c, 0, 72, 127
1, 140635, Note_off_c, 6, 54, 127
1, 140638, Note_on_c, 12, 71, 127
1, 140638, Note_on_c, 2, 50, 127
1, 140789, Note_off_c, 2, 50, 127
1, 140789, Note_off_c, 12, 71, 127
1, 140793, Note_on_c, 10, 69, 127
1, 140793, Note_on_c, 0, 48, 127
1, 140944, Note_off_c, 0, 48, 127
1, 140944, Note_off_c, 10, 69, 127
1, 140948, Note_on_c, 0, 72, 127
1, 140948, Note_on_c, 4, 52, 127
1, 141099, Note_off_c, 4, 52, 127
1, 141099, Note_off_c, 0, 72, 127
1, 141103, Note_on_c, 12, 71, 127
1, 141103, Note_on_c, 2, 50, 127
1, 141254, Note_off_c, 2, 50, 127
1, 141254, Note_off_c, 12, 71, 127
1, 141257, Note_on_c, 10, 69, 127
1, 141257, Note_on_c, 0, 48, 127
1, 141408, Note_off_c, 0, 48, 127
1, 141408, Note_off_c, 10, 69, 127
1, 141412, Note_on_c, 7, 67, 127
1, 141412, Note_on_c, 12, 47, 127
1, 141563, Note_off_c, 12, 47, 127
1, 141563, Note_off_c, 7, 67, 127
1, 141567, Note_on_c, 6, 66, 127
1, 141567, Note_on_c, 10, 45, 127
1, 141708, Note_off_c, 2, 62, 127
1, 141718, Note_off_c, 10, 45, 127
1, 141718, Note_off_c, 6, 66, 127
1, 141722, Note_on_c, 12, 71, 127
1, 141722, Note_on_c, 2, 74, 127
1, 141722, Note_on_c, 7, 43, 127
1, 141873, Note_off_c, 7, 43, 127
1, 141876, Note_on_c, 7, 55, 127
1, 142027, Note_off_c, 7, 55, 127
1, 142031, Note_on_c, 7, 67, 127
1, 142031, Note_on_c, 5, 53, 127
1, 142182, Note_off_c, 5, 53, 127
1, 142186, Note_on_c, 10, 57, 127
1, 142333, Note_off_c, 2, 74, 127
1, 142333, Note_off_c, 12, 71, 127
1, 142337, Note_off_c, 10, 57, 127
1, 142341, Note_on_c, 12, 71, 127
1, 142341, Note_on_c, 5, 77, 127
1, 142341, Note_on_c, 7, 55, 127
1, 142492, Note_off_c, 7, 55, 127
1, 142495, Note_on_c, 5, 53, 127
1, 142642, Note_off_c, 7, 67, 127
1, 142646, Note_off_c, 5, 53, 127
1, 142650, Note_on_c, 2, 74, 127
1, 142650, Note_on_c, 4, 52, 127
1, 142801, Note_off_c, 4, 52, 127
1, 142805, Note_on_c, 2, 50, 127
1, 142952, Note_off_c, 12, 71, 127
1, 142956, Note_off_c, 2, 50, 127
1, 142960, Note_on_c, 7, 79, 127
1, 142960, Note_on_c, 0, 48, 127
1, 143105, Note_off_c, 5, 77, 127
1, 143111, Note_off_c, 0, 48, 127
1, 143114, Note_on_c, 4, 76, 127
1, 143114, Note_on_c, 0, 60, 127
1, 143261, Note_off_c, 2, 74, 127
1, 143265, Note_off_c, 0, 60, 127
1, 143265, Note_off_c, 4, 76, 127
1, 143269, Note_on_c, 2, 74, 127
1, 143269, Note_on_c, 12, 59, 127
1, 143420, Note_off_c, 12, 59, 127
1, 143420, Note_off_c, 2, 74, 127
1, 143424, Note_on_c, 5, 77, 127
1, 143424, Note_on_c, 2, 62, 127
1, 143571, Note_off_c, 7, 79, 127
1, 143575, Note_off_c, 2, 62, 127
1, 143575, Note_off_c, 5, 77, 127
1, 143579, Note_on_c, 0, 84, 127
1, 143579, Note_on_c, 4, 76, 127
1, 143579, Note_on_c, 0, 60, 127
1, 143730, Note_off_c, 0, 60, 127
1, 143730, Note_off_c, 4, 76, 127
1, 143733, Note_on_c, 7, 79, 127
1, 143733, Note_on_c, 12, 59, 127
1, 143884, Note_off_c, 12, 59, 127
1, 143884, Note_off_c, 7, 79, 127
1, 143888, Note_on_c, 6, 78, 127
1, 143888, Note_on_c, 10, 57, 127
1, 144039, Note_off_c, 10, 57, 127
1, 144039, Note_off_c, 6, 78, 127
1, 144043, Note_on_c, 7, 79, 127
1, 144043, Note_on_c, 7, 55, 127
1, 144194, Note_off_c, 7, 55, 127
1, 144194, Note_off_c, 7, 79, 127
1, 144198, Note_on_c, 10, 81, 127
1, 144198, Note_on_c, 6, 54, 127
1, 144343, Note_off_c, 0, 84, 127
1, 144349, Note_off_c, 6, 54, 127
1, 144353, Note_on_c, 12, 83, 127
1, 144353, Note_on_c, 7, 55, 127
1, 144502, Note_off_c, 10, 81, 127
1, 144504, Note_off_c, 7, 55, 127
1, 144504, Note_off_c, 12, 83, 127
1, 144507, Note_on_c, 10, 81, 127
1, 144507, Note_on_c, 2, 74, 127
1, 144507, Note_on_c, 6, 54, 127
1, 144658, Note_off_c, 6, 54, 127
1, 144658, Note_off_c, 10, 81, 127
1, 144662, Note_on_c, 0, 84, 127
1, 144662, Note_on_c, 10, 57, 127
1, 144813, Note_off_c, 10, 57, 127
1, 144813, Note_off_c, 0, 84, 127
1, 144817, Note_on_c, 12, 83, 127
1, 144817, Note_on_c, 12, 47, 127
1, 144964, Note_off_c, 2, 74, 127
1, 144968, Note_off_c, 12, 83, 127
1, 144972, Note_on_c, 10, 81, 127
1, 144972, Note_on_c, 0, 72, 127
1, 145121, Note_off_c, 12, 47, 127
1, 145123, Note_off_c, 0, 72, 127
1, 145123, Note_off_c, 10, 81, 127
1, 145126, Note_on_c, 7, 79, 127
1, 145126, Note_on_c, 12, 71, 127
1, 145126, Note_on_c, 2, 50, 127
1, 145277, Note_off_c, 12, 71, 127
1, 145277, Note_off_c, 7, 79, 127
1, 145281, Note_on_c, 6, 78, 127
1, 145281, Note_on_c, 10, 69, 127
1, 145430, Note_off_c, 2, 50, 127
1, 145432, Note_off_c, 10, 69, 127
1, 145432, Note_off_c, 6, 78, 127
1, 145436, Note_on_c, 7, 79, 127
1, 145436, Note_on_c, 12, 71, 127
1, 145436, Note_on_c, 7, 55, 127
1, 145799, Note_off_c, 7, 55, 127
1, 145819, Note_on_c, 6, 54, 127
1, 145960, Note_off_c, 6, 54, 127
1, 145964, Note_on_c, 4, 52, 127
1, 146105, Note_off_c, 4, 52, 127
1, 146109, Note_on_c, 2, 50, 127
1, 146250, Note_off_c, 2, 50, 127
1, 146254, Note_on_c, 0, 48, 127
1, 146395, Note_off_c, 0, 48, 127
1, 146399, Note_on_c, 12, 47, 127
1, 146540, Note_off_c, 12, 47, 127
1, 146545, Note_on_c, 10, 45, 127
1, 146660, Note_off_c, 12, 71, 127
1, 146660, Note_off_c, 7, 79, 127
1, 146686, Note_off_c, 10, 45, 127
1, 146690, Note_on_c, 7, 43, 127
1, 146690, Note_on_c, 12, 71, 127
1, 146970, Note_off_c, 7, 43, 127
1, 146974, Note_on_c, 12, 47, 127
1, 147254, Note_off_c, 12, 47, 127
1, 147258, Note_on_c, 2, 50, 127
1, 147538, Note_off_c, 2, 50, 127
1, 147542, Note_on_c, 7, 55, 127
1, 147673, Note_off_c, 12, 71, 127
1, 147684, Note_on_c, 0, 72, 127
1, 147790, Note_off_c, 7, 55, 127
1, 147822, Note_off_c, 0, 72, 127
1, 147825, Note_on_c, 12, 59, 127
1, 147825, Note_on_c, 2, 74, 127
1, 147964, Note_off_c, 2, 74, 127
1, 147967, Note_on_c, 0, 72, 127
1, 148073, Note_off_c, 12, 59, 127
1, 148105, Note_off_c, 0, 72, 127
1, 148108, Note_on_c, 4, 52, 127
1, 148108, Note_on_c, 2, 74, 127
1, 148247, Note_off_c, 2, 74, 127
1, 148250, Note_on_c, 4, 76, 127
1, 148356, Note_off_c, 4, 52, 127
1, 148388, Note_off_c, 4, 76, 127
1, 148391, Note_on_c, 6, 42, 127
1, 148391, Note_on_c, 10, 69, 127
1, 148671, Note_off_c, 6, 42, 127
1, 148675, Note_on_c, 10, 45, 127
1, 148955, Note_off_c, 10, 45, 127
1, 148959, Note_on_c, 2, 50, 127
1, 149239, Note_off_c, 2, 50, 127
1, 149243, Note_on_c, 6, 54, 127
1, 149374, Note_off_c, 10, 69, 127
1, 149385, Note_on_c, 12, 71, 127
1, 149491, Note_off_c, 6, 54, 127
1, 149523, Note_off_c, 12, 71, 127
1, 149526, Note_on_c, 10, 57, 127
1, 149526, Note_on_c, 0, 72, 127
1, 149665, Note_off_c, 0, 72, 127
1, 149669, Note_on_c, 12, 71, 127
1, 149774, Note_off_c, 10, 57, 127
1, 149807, Note_off_c, 12, 71, 127
1, 149809, Note_on_c, 2, 50, 127
1, 149809, Note_on_c, 0, 72, 127
1, 149948, Note_off_c, 0, 72, 127
1, 149952, Note_on_c, 2, 74, 127
1, 150057, Note_off_c, 2, 50, 127
1, 150090, Note_off_c, 2, 74, 127
1, 150093, Note_on_c, 4, 40, 127
1, 150093, Note_on_c, 12, 71, 127
1, 150093, Note_on_c, 7, 67, 127
1, 150373, Note_off_c, 4, 40, 127
1, 150377, Note_on_c, 7, 43, 127
1, 150657, Note_off_c, 7, 43, 127
1, 150661, Note_on_c, 12, 47, 127
1, 150936, Note_off_c, 7, 67, 127
1, 150941, Note_off_c, 12, 47, 127
1, 150945, Note_on_c, 4, 52, 127
1, 150945, Note_on_c, 7, 79, 127
1, 151076, Note_off_c, 12, 71, 127
1, 151087, Note_on_c, 0, 72, 127
1, 151193, Note_off_c, 4, 52, 127
1, 151225, Note_off_c, 0, 72, 127
1, 151228, Note_on_c, 12, 47, 127
1, 151228, Note_on_c, 2, 74, 127
1, 151367, Note_off_c, 2, 74, 127
1, 151370, Note_on_c, 0, 72, 127
1, 151476, Note_off_c, 12, 47, 127
1, 151508, Note_off_c, 0, 72, 127
1, 151511, Note_on_c, 1, 49, 127
1, 151511, Note_on_c, 2, 74, 127
1, 151650, Note_off_c, 2, 74, 127
1, 151653, Note_on_c, 4, 76, 127
1, 151759, Note_off_c, 1, 49, 127
1, 151791, Note_off_c, 4, 76, 127
1, 151794, Note_on_c, 2, 38, 127
1, 151794, Note_on_c, 10, 69, 127
1, 152066, Note_off_c, 7, 79, 127
1, 152074, Note_off_c, 2, 38, 127
1, 152078, Note_on_c, 6, 42, 127
1, 152078, Note_on_c, 10, 81, 127
1, 152217, Note_off_c, 10, 81, 127
1, 152220, Note_on_c, 7, 79, 127
1, 152358, Note_off_c, 6, 42, 127
1, 152359, Note_off_c, 7, 79, 127
1, 152362, Note_on_c, 10, 45, 127
1, 152362, Note_on_c, 6, 78, 127
1, 152501, Note_off_c, 6, 78, 127
1, 152504, Note_on_c, 7, 79, 127
1, 152642, Note_off_c, 10, 45, 127
1, 152643, Note_off_c, 7, 79, 127
1, 152646, Note_on_c, 2, 50, 127
1, 152646, Note_on_c, 10, 81, 127
1, 152777, Note_off_c, 10, 69, 127
1, 152788, Note_on_c, 12, 71, 127
1, 152894, Note_off_c, 2, 50, 127
1, 152926, Note_off_c, 12, 71, 127
1, 152929, Note_on_c, 6, 54, 127
1, 152929, Note_on_c, 0, 72, 127
1, 153068, Note_off_c, 0, 72, 127
1, 153071, Note_on_c, 10, 69, 127
1, 153177, Note_off_c, 6, 54, 127
1, 153209, Note_off_c, 10, 69, 127
1, 153212, Note_on_c, 10, 45, 127
1, 153212, Note_on_c, 12, 71, 127
1, 153351, Note_off_c, 12, 71, 127
1, 153354, Note_on_c, 0, 72, 127
1, 153460, Note_off_c, 10, 45, 127
1, 153477, Note_off_c, 10, 81, 127
1, 153492, Note_off_c, 0, 72, 127
1, 153495, Note_on_c, 12, 47, 127
1, 153495, Note_on_c, 7, 67, 127
1, 153637, Note_on_c, 10, 45, 127
1, 153705, Note_off_c, 12, 47, 127
1, 153776, Note_off_c, 10, 45, 127
1, 153779, Note_on_c, 12, 47, 127
1, 153779, Note_on_c, 2, 74, 127
1, 153918, Note_off_c, 2, 74, 127
1, 153918, Note_off_c, 12, 47, 127
1, 153921, Note_on_c, 0, 48, 127
1, 153921, Note_on_c, 0, 72, 127
1, 154060, Note_off_c, 0, 72, 127
1, 154060, Note_off_c, 0, 48, 127
1, 154063, Note_on_c, 2, 50, 127
1, 154063, Note_on_c, 12, 71, 127
1, 154202, Note_off_c, 12, 71, 127
1, 154205, Note_on_c, 10, 69, 127
1, 154338, Note_off_c, 7, 67, 127
1, 154344, Note_off_c, 10, 69, 127
1, 154347, Note_on_c, 7, 79, 127
1, 154347, Note_on_c, 12, 71, 127
1, 154484, Note_off_c, 2, 50, 127
1, 154489, Note_on_c, 7, 43, 127
1, 154627, Note_off_c, 12, 71, 127
1, 154628, Note_off_c, 7, 43, 127
1, 154631, Note_on_c, 10, 45, 127
1, 154631, Note_on_c, 0, 72, 127
1, 154770, Note_off_c, 0, 72, 127
1, 154770, Note_off_c, 10, 45, 127
1, 154773, Note_on_c, 12, 47, 127
1, 154773, Note_on_c, 12, 71, 127
1, 154912, Note_off_c, 12, 71, 127
1, 154912, Note_off_c, 12, 47, 127
1, 154916, Note_on_c, 0, 48, 127
1, 154916, Note_on_c, 10, 69, 127
1, 155055, Note_off_c, 10, 69, 127
1, 155055, Note_off_c, 0, 48, 127
1, 155058, Note_on_c, 2, 50, 127
1, 155058, Note_on_c, 12, 71, 127
1, 155197, Note_off_c, 12, 71, 127
1, 155197, Note_off_c, 2, 50, 127
1, 155200, Note_on_c, 4, 52, 127
1, 155200, Note_on_c, 7, 67, 127
1, 155339, Note_off_c, 4, 52, 127
1, 155342, Note_on_c, 2, 50, 127
1, 155471, Note_off_c, 7, 79, 127
1, 155480, Note_off_c, 7, 67, 127
1, 155481, Note_off_c, 2, 50, 127
1, 155484, Note_on_c, 0, 48, 127
1, 155484, Note_on_c, 10, 81, 127
1, 155484, Note_on_c, 4, 76, 127
1, 155623, Note_off_c, 10, 81, 127
1, 155623, Note_off_c, 0, 48, 127
1, 155626, Note_on_c, 12, 47, 127
1, 155626, Note_on_c, 7, 79, 127
1, 155764, Note_off_c, 4, 76, 127
1, 155765, Note_off_c, 7, 79, 127
1, 155765, Note_off_c, 12, 47, 127
1, 155768, Note_on_c, 0, 48, 127
1, 155768, Note_on_c, 6, 78, 127
1, 155768, Note_on_c, 2, 74, 127
1, 155907, Note_off_c, 6, 78, 127
1, 155907, Note_off_c, 0, 48, 127
1, 155910, Note_on_c, 4, 52, 127
1, 155910, Note_on_c, 7, 79, 127
1, 156048, Note_off_c, 2, 74, 127
1, 156049, Note_off_c, 7, 79, 127
1, 156049, Note_off_c, 4, 52, 127
1, 156052, Note_on_c, 6, 42, 127
1, 156052, Note_on_c, 10, 81, 127
1, 156052, Note_on_c, 0, 72, 127
1, 156194, Note_on_c, 10, 45, 127
1, 156262, Note_off_c, 6, 42, 127
1, 156332, Note_off_c, 0, 72, 127
1, 156333, Note_off_c, 10, 45, 127
1, 156336, Note_on_c, 7, 43, 127
1, 156336, Note_on_c, 6, 78, 127
1, 156475, Note_off_c, 7, 43, 127
1, 156478, Note_on_c, 6, 42, 127
1, 156611, Note_off_c, 10, 81, 127
1, 156615, Note_off_c, 6, 78, 127
1, 156616, Note_off_c, 6, 42, 127
1, 156619, Note_on_c, 4, 40, 127
1, 156619, Note_on_c, 10, 81, 127
1, 156758, Note_off_c, 4, 40, 127
1, 156761, Note_on_c, 2, 38, 127
1, 156899, Note_off_c, 10, 81, 127
1, 156900, Note_off_c, 2, 38, 127
1, 156903, Note_on_c, 7, 43, 127
1, 156903, Note_on_c, 12, 71, 127
1, 157042, Note_off_c, 7, 43, 127
1, 157045, Note_on_c, 6, 42, 127
1, 157184, Note_off_c, 6, 42, 127
1, 157187, Note_on_c, 7, 43, 127
1, 157187, Note_on_c, 2, 74, 127
1, 157326, Note_off_c, 2, 74, 127
1, 157326, Note_off_c, 7, 43, 127
1, 157329, Note_on_c, 10, 45, 127
1, 157329, Note_on_c, 0, 72, 127
1, 157464, Note_off_c, 12, 71, 127
1, 157468, Note_off_c, 0, 72, 127
1, 157468, Note_off_c, 10, 45, 127
1, 157471, Note_on_c, 12, 47, 127
1, 157471, Note_on_c, 12, 71, 127
1, 157471, Note_on_c, 7, 79, 127
1, 157610, Note_off_c, 12, 71, 127
1, 157610, Note_off_c, 12, 47, 127
1, 157613, Note_on_c, 0, 48, 127
1, 157613, Note_on_c, 10, 69, 127
1, 157751, Note_off_c, 7, 79, 127
1, 157752, Note_off_c, 10, 69, 127
1, 157752, Note_off_c, 0, 48, 127
1, 157755, Note_on_c, 2, 50, 127
1, 157755, Note_on_c, 12, 71, 127
1, 157755, Note_on_c, 7, 79, 127
1, 157894, Note_off_c, 2, 50, 127
1, 157897, Note_on_c, 4, 52, 127
1, 158035, Note_off_c, 12, 71, 127
1, 158039, Note_on_c, 10, 45, 127
1, 158039, Note_on_c, 0, 72, 127
1, 158107, Note_off_c, 4, 52, 127
1, 158178, Note_off_c, 0, 72, 127
1, 158178, Note_off_c, 10, 45, 127
1, 158181, Note_on_c, 12, 47, 127
1, 158181, Note_on_c, 12, 71, 127
1, 158316, Note_off_c, 7, 79, 127
1, 158320, Note_off_c, 12, 71, 127
1, 158320, Note_off_c, 12, 47, 127
1, 158323, Note_on_c, 0, 48, 127
1, 158323, Note_on_c, 10, 69, 127
1, 158323, Note_on_c, 6, 78, 127
1, 158462, Note_off_c, 10, 69, 127
1, 158462, Note_off_c, 0, 48, 127
1, 158465, Note_on_c, 10, 45, 127
1, 158465, Note_on_c, 12, 71, 127
1, 158601, Note_off_c, 6, 78, 127
1, 158603, Note_off_c, 12, 71, 127
1, 158603, Note_off_c, 10, 45, 127
1, 158606, Note_on_c, 12, 47, 127
1, 158606, Note_on_c, 7, 67, 127
1, 158748, Note_on_c, 10, 45, 127
1, 158816, Note_off_c, 12, 47, 127
1, 158886, Note_off_c, 7, 67, 127
1, 158887, Note_off_c, 10, 45, 127
1, 158891, Note_on_c, 7, 43, 127
1, 158891, Note_on_c, 4, 76, 127
1, 159030, Note_off_c, 7, 43, 127
1, 159033, Note_on_c, 6, 42, 127
1, 159171, Note_off_c, 4, 76, 127
1, 159172, Note_off_c, 6, 42, 127
1, 159175, Note_on_c, 7, 43, 127
1, 159175, Note_on_c, 2, 74, 127
1, 159175, Note_on_c, 12, 83, 127
1, 159455, Note_off_c, 12, 83, 127
1, 159455, Note_off_c, 2, 74, 127
1, 159459, Note_on_c, 0, 72, 127
1, 159459, Note_on_c, 10, 81, 127
1, 159596, Note_off_c, 7, 43, 127
1, 159601, Note_on_c, 6, 42, 127
1, 159739, Note_off_c, 0, 72, 127
1, 159740, Note_off_c, 6, 42, 127
1, 159743, Note_on_c, 4, 40, 127
1, 159743, Note_on_c, 6, 78, 127
1, 159882, Note_off_c, 4, 40, 127
1, 159885, Note_on_c, 2, 38, 127
1, 160020, Note_off_c, 10, 81, 127
1, 160023, Note_off_c, 6, 78, 127
1, 160024, Note_off_c, 2, 38, 127
1, 160027, Note_on_c, 4, 40, 127
1, 160027, Note_on_c, 10, 81, 127
1, 160027, Note_on_c, 2, 74, 127
1, 160166, Note_off_c, 4, 40, 127
1, 160169, Note_on_c, 6, 42, 127
1, 160307, Note_off_c, 10, 81, 127
1, 160308, Note_off_c, 6, 42, 127
1, 160311, Note_on_c, 7, 43, 127
1, 160311, Note_on_c, 12, 71, 127
1, 160448, Note_off_c, 2, 74, 127
1, 160450, Note_off_c, 7, 43, 127
1, 160453, Note_on_c, 6, 42, 127
1, 160453, Note_on_c, 4, 76, 127
1, 160592, Note_off_c, 4, 76, 127
1, 160592, Note_off_c, 6, 42, 127
1, 160595, Note_on_c, 7, 43, 127
1, 160595, Note_on_c, 2, 74, 127
1, 160734, Note_off_c, 2, 74, 127
1, 160734, Note_off_c, 7, 43, 127
1, 160737, Note_on_c, 10, 45, 127
1, 160737, Note_on_c, 0, 72, 127
1, 160872, Note_off_c, 12, 71, 127
1, 160876, Note_off_c, 0, 72, 127
1, 160876, Note_off_c, 10, 45, 127
1, 160879, Note_on_c, 7, 43, 127
1, 160879, Note_on_c, 7, 79, 127
1, 160879, Note_on_c, 12, 71, 127
1, 161018, Note_off_c, 7, 43, 127
1, 161021, Note_on_c, 6, 42, 127
1, 161159, Note_off_c, 12, 71, 127
1, 161159, Note_off_c, 7, 79, 127
1, 161160, Note_off_c, 6, 42, 127
1, 161163, Note_on_c, 4, 40, 127
1, 161163, Note_on_c, 7, 79, 127
1, 161163, Note_on_c, 4, 76, 127
1, 161302, Note_off_c, 4, 40, 127
1, 161305, Note_on_c, 6, 42, 127
1, 161443, Note_off_c, 4, 76, 127
1, 161444, Note_off_c, 6, 42, 127
1, 161447, Note_on_c, 7, 43, 127
1, 161447, Note_on_c, 12, 71, 127
1, 161586, Note_off_c, 7, 43, 127
1, 161589, Note_on_c, 4, 40, 127
1, 161724, Note_off_c, 7, 79, 127
1, 161727, Note_off_c, 12, 71, 127
1, 161728, Note_off_c, 4, 40, 127
1, 161731, Note_on_c, 6, 42, 127
1, 161731, Note_on_c, 6, 78, 127
1, 161731, Note_on_c, 2, 74, 127
1, 161870, Note_off_c, 6, 42, 127
1, 161873, Note_on_c, 7, 43, 127
1, 162009, Note_off_c, 6, 78, 127
1, 162010, Note_off_c, 2, 74, 127
1, 162011, Note_off_c, 7, 43, 127
1, 162014, Note_on_c, 10, 45, 127
1, 162014, Note_on_c, 1, 73, 127
1, 162153, Note_off_c, 10, 45, 127
1, 162156, Note_on_c, 7, 43, 127
1, 162294, Note_off_c, 1, 73, 127
1, 162295, Note_off_c, 7, 43, 127
1, 162298, Note_on_c, 10, 45, 127
1, 162298, Note_on_c, 2, 74, 127
1, 162437, Note_off_c, 10, 45, 127
1, 162440, Note_on_c, 12, 47, 127
1, 162578, Note_off_c, 2, 74, 127
1, 162579, Note_off_c, 12, 47, 127
1, 162582, Note_on_c, 10, 45, 127
1, 162582, Note_on_c, 12, 83, 127
1, 162582, Note_on_c, 4, 76, 127
1, 162721, Note_off_c, 10, 45, 127
1, 162725, Note_on_c, 7, 43, 127
1, 162862, Note_off_c, 12, 83, 127
1, 162864, Note_off_c, 7, 43, 127
1, 162867, Note_on_c, 6, 42, 127
1, 162867, Note_on_c, 10, 81, 127
1, 163009, Note_on_c, 6, 54, 127
1, 163077, Note_off_c, 6, 42, 127
1, 163143, Note_off_c, 4, 76, 127
1, 163148, Note_off_c, 6, 54, 127
1, 163151, Note_on_c, 7, 55, 127
1, 163151, Note_on_c, 1, 73, 127
1, 163290, Note_off_c, 7, 55, 127
1, 163293, Note_on_c, 6, 54, 127
1, 163428, Note_off_c, 10, 81, 127
1, 163431, Note_off_c, 1, 73, 127
1, 163432, Note_off_c, 6, 54, 127
1, 163435, Note_on_c, 4, 52, 127
1, 163435, Note_on_c, 2, 74, 127
1, 163435, Note_on_c, 10, 69, 127
1, 163575, Note_off_c, 4, 52, 127
1, 163577, Note_on_c, 6, 54, 127
1, 163716, Note_off_c, 6, 54, 127
1, 163719, Note_on_c, 12, 47, 127
1, 163856, Note_off_c, 2, 74, 127
1, 163858, Note_off_c, 12, 47, 127
1, 163861, Note_on_c, 10, 45, 127
1, 163861, Note_on_c, 4, 76, 127
1, 164000, Note_off_c, 4, 76, 127
1, 164000, Note_off_c, 10, 45, 127
1, 164003, Note_on_c, 12, 47, 127
1, 164003, Note_on_c, 2, 74, 127
1, 164142, Note_off_c, 2, 74, 127
1, 164142, Note_off_c, 12, 47, 127
1, 164145, Note_on_c, 0, 48, 127
1, 164145, Note_on_c, 0, 72, 127
1, 164278, Note_off_c, 10, 69, 127
1, 164284, Note_off_c, 0, 72, 127
1, 164284, Note_off_c, 0, 48, 127
1, 164287, Note_on_c, 2, 50, 127
1, 164287, Note_on_c, 12, 71, 127
1, 164287, Note_on_c, 2, 74, 127
1, 164426, Note_off_c, 2, 50, 127
1, 164429, Note_on_c, 12, 47, 127
1, 164567, Note_off_c, 2, 74, 127
1, 164567, Note_off_c, 12, 71, 127
1, 164568, Note_off_c, 12, 47, 127
1, 164571, Note_on_c, 1, 49, 127
1, 164571, Note_on_c, 4, 76, 127
1, 164571, Note_on_c, 7, 67, 127
1, 164710, Note_off_c, 1, 49, 127
1, 164713, Note_on_c, 2, 50, 127
1, 164851, Note_off_c, 4, 76, 127
1, 164852, Note_off_c, 2, 50, 127
1, 164855, Note_on_c, 4, 52, 127
1, 164855, Note_on_c, 12, 71, 127
1, 164994, Note_off_c, 4, 52, 127
1, 164997, Note_on_c, 2, 50, 127
1, 165135, Note_off_c, 12, 71, 127
1, 165136, Note_off_c, 2, 50, 127
1, 165139, Note_on_c, 1, 49, 127
1, 165139, Note_on_c, 2, 74, 127
1, 165278, Note_off_c, 1, 49, 127
1, 165281, Note_on_c, 12, 47, 127
1, 165419, Note_off_c, 2, 74, 127
1, 165420, Note_off_c, 12, 47, 127
1, 165423, Note_on_c, 10, 45, 127
1, 165423, Note_on_c, 1, 73, 127
1, 165565, Note_on_c, 4, 52, 127
1, 165633, Note_off_c, 10, 45, 127
1, 165695, Note_off_c, 7, 67, 127
1, 165703, Note_off_c, 1, 73, 127
1, 165704, Note_off_c, 4, 52, 127
1, 165707, Note_on_c, 2, 50, 127
1, 165707, Note_on_c, 2, 74, 127
1, 165707, Note_on_c, 6, 66, 127
1, 165846, Note_off_c, 2, 50, 127
1, 165849, Note_on_c, 1, 49, 127
1, 165987, Note_off_c, 6, 66, 127
1, 165987, Note_off_c, 2, 74, 127
1, 165988, Note_off_c, 1, 49, 127
1, 165991, Note_on_c, 2, 50, 127
1, 165991, Note_on_c, 4, 76, 127
1, 165991, Note_on_c, 7, 67, 127
1, 166130, Note_off_c, 2, 50, 127
1, 166133, Note_on_c, 12, 47, 127
1, 166271, Note_off_c, 7, 67, 127
1, 166272, Note_off_c, 12, 47, 127
1, 166276, Note_on_c, 1, 49, 127
1, 166276, Note_on_c, 4, 64, 127
1, 166415, Note_off_c, 1, 49, 127
1, 166418, Note_on_c, 10, 45, 127
1, 166552, Note_off_c, 4, 76, 127
1, 166556, Note_off_c, 4, 64, 127
1, 166557, Note_off_c, 10, 45, 127
1, 166560, Note_on_c, 12, 47, 127
1, 166560, Note_on_c, 1, 73, 127
1, 166560, Note_on_c, 10, 69, 127
1, 166699, Note_off_c, 10, 69, 127
1, 166699, Note_off_c, 12, 47, 127
1, 166702, Note_on_c, 1, 49, 127
1, 166702, Note_on_c, 7, 67, 127
1, 166840, Note_off_c, 1, 73, 127
1, 166841, Note_off_c, 7, 67, 127
1, 166841, Note_off_c, 1, 49, 127
1, 166844, Note_on_c, 2, 50, 127
1, 166844, Note_on_c, 10, 69, 127
1, 166844, Note_on_c, 6, 66, 127
1, 166983, Note_off_c, 6, 66, 127
1, 166983, Note_off_c, 2, 50, 127
1, 166986, Note_on_c, 4, 52, 127
1, 166986, Note_on_c, 4, 64, 127
1, 167125, Note_off_c, 4, 64, 127
1, 167125, Note_off_c, 4, 52, 127
1, 167128, Note_on_c, 6, 54, 127
1, 167128, Note_on_c, 2, 62, 127
1, 167270, Note_on_c, 12, 47, 127
1, 167338, Note_off_c, 6, 54, 127
1, 167408, Note_off_c, 2, 62, 127
1, 167409, Note_off_c, 12, 47, 127
1, 167412, Note_on_c, 1, 49, 127
1, 167412, Note_on_c, 4, 64, 127
1, 167551, Note_off_c, 4, 64, 127
1, 167551, Note_off_c, 1, 49, 127
1, 167554, Note_on_c, 2, 50, 127
1, 167554, Note_on_c, 6, 66, 127
1, 167687, Note_off_c, 10, 69, 127
1, 167693, Note_off_c, 6, 66, 127
1, 167693, Note_off_c, 2, 50, 127
1, 167696, Note_on_c, 4, 52, 127
1, 167696, Note_on_c, 2, 74, 127
1, 167696, Note_on_c, 7, 67, 127
1, 167835, Note_off_c, 7, 67, 127
1, 167835, Note_off_c, 4, 52, 127
1, 167838, Note_on_c, 6, 54, 127
1, 167838, Note_on_c, 10, 69, 127
1, 167976, Note_off_c, 2, 74, 127
1, 167977, Note_off_c, 10, 69, 127
1, 167977, Note_off_c, 6, 54, 127
1, 167980, Note_on_c, 7, 55, 127
1, 167980, Note_on_c, 7, 67, 127
1, 167980, Note_on_c, 12, 71, 127
1, 168119, Note_off_c, 7, 55, 127
1, 168122, Note_on_c, 6, 54, 127
1, 168260, Note_off_c, 12, 71, 127
1, 168261, Note_off_c, 6, 54, 127
1, 168264, Note_on_c, 4, 52, 127
1, 168264, Note_on_c, 2, 74, 127
1, 168403, Note_off_c, 4, 52, 127
1, 168406, Note_on_c, 2, 50, 127
1, 168544, Note_off_c, 2, 74, 127
1, 168545, Note_off_c, 2, 50, 127
1, 168548, Note_on_c, 4, 52, 127
1, 168548, Note_on_c, 1, 73, 127
1, 168690, Note_on_c, 11, 46, 127
1, 168758, Note_off_c, 4, 52, 127
1, 168828, Note_off_c, 1, 73, 127
1, 168829, Note_off_c, 11, 46, 127
1, 168832, Note_on_c, 12, 47, 127
1, 168832, Note_on_c, 2, 74, 127
1, 168971, Note_off_c, 12, 47, 127
1, 168974, Note_on_c, 1, 49, 127
1, 169104, Note_off_c, 7, 67, 127
1, 169113, Note_off_c, 1, 49, 127
1, 169116, Note_on_c, 2, 50, 127
1, 169116, Note_on_c, 6, 66, 127
1, 169255, Note_off_c, 2, 50, 127
1, 169258, Note_on_c, 1, 49, 127
1, 169396, Note_off_c, 6, 66, 127
1, 169397, Note_off_c, 1, 49, 127
1, 169400, Note_on_c, 12, 47, 127
1, 169400, Note_on_c, 7, 67, 127
1, 169539, Note_off_c, 12, 47, 127
1, 169542, Note_on_c, 10, 45, 127
1, 169680, Note_off_c, 7, 67, 127
1, 169681, Note_off_c, 10, 45, 127
1, 169684, Note_on_c, 7, 43, 127
1, 169684, Note_on_c, 4, 64, 127
1, 169823, Note_off_c, 7, 43, 127
1, 169827, Note_on_c, 6, 42, 127
1, 169956, Note_off_c, 2, 74, 127
1, 169964, Note_off_c, 4, 64, 127
1, 169966, Note_off_c, 6, 42, 127
1, 169969, Note_on_c, 7, 43, 127
1, 169969, Note_on_c, 10, 69, 127
1, 169969, Note_on_c, 1, 73, 127
1, 170108, Note_off_c, 10, 69, 127
1, 170108, Note_off_c, 7, 43, 127
1, 170111, Note_on_c, 12, 47, 127
1, 170111, Note_on_c, 7, 67, 127
1, 170250, Note_off_c, 7, 67, 127
1, 170250, Note_off_c, 12, 47, 127
1, 170253, Note_on_c, 10, 45, 127
1, 170253, Note_on_c, 6, 66, 127
1, 170392, Note_off_c, 6, 66, 127
1, 170392, Note_off_c, 10, 45, 127
1, 170395, Note_on_c, 7, 43, 127
1, 170395, Note_on_c, 4, 64, 127
1, 170530, Note_off_c, 1, 73, 127
1, 170534, Note_off_c, 4, 64, 127
1, 170534, Note_off_c, 7, 43, 127
1, 170537, Note_on_c, 6, 42, 127
1, 170537, Note_on_c, 2, 62, 127
1, 170537, Note_on_c, 2, 74, 127
1, 170679, Note_on_c, 10, 45, 127
1, 170747, Note_off_c, 6, 42, 127
1, 170817, Note_off_c, 2, 62, 127
1, 170818, Note_off_c, 10, 45, 127
1, 170821, Note_on_c, 7, 43, 127
1, 170821, Note_on_c, 4, 64, 127
1, 170960, Note_off_c, 4, 64, 127
1, 170960, Note_off_c, 7, 43, 127
1, 170963, Note_on_c, 6, 42, 127
1, 170963, Note_on_c, 6, 66, 127
1, 171102, Note_off_c, 6, 66, 127
1, 171102, Note_off_c, 6, 42, 127
1, 171105, Note_on_c, 4, 40, 127
1, 171105, Note_on_c, 7, 67, 127
1, 171244, Note_off_c, 7, 67, 127
1, 171244, Note_off_c, 4, 40, 127
1, 171247, Note_on_c, 2, 38, 127
1, 171247, Note_on_c, 10, 69, 127
1, 171386, Note_off_c, 10, 69, 127
1, 171386, Note_off_c, 2, 38, 127
1, 171389, Note_on_c, 7, 43, 127
1, 171389, Note_on_c, 12, 71, 127
1, 171531, Note_on_c, 10, 69, 127
1, 171669, Note_off_c, 12, 71, 127
1, 171669, Note_off_c, 7, 43, 127
1, 171670, Note_off_c, 10, 69, 127
1, 171673, Note_on_c, 4, 40, 127
1, 171673, Note_on_c, 7, 67, 127
1, 171812, Note_off_c, 7, 67, 127
1, 171815, Note_on_c, 6, 66, 127
1, 171940, Note_off_c, 2, 74, 127
1, 171952, Note_off_c, 4, 40, 127
1, 171953, Note_off_c, 6, 66, 127
1, 171956, Note_on_c, 10, 45, 127
1, 171956, Note_on_c, 1, 73, 127
1, 171956, Note_on_c, 7, 67, 127
1, 172095, Note_off_c, 7, 67, 127
1, 172098, Note_on_c, 4, 64, 127
1, 172236, Note_off_c, 1, 73, 127
1, 172236, Note_off_c, 10, 45, 127
1, 172237, Note_off_c, 4, 64, 127
1, 172240, Note_on_c, 2, 38, 127
1, 172240, Note_on_c, 2, 74, 127
1, 172240, Note_on_c, 6, 66, 127
1, 172382, Note_on_c, 6, 42, 127
1, 172450, Note_off_c, 2, 38, 127
1, 172521, Note_off_c, 6, 42, 127
1, 172524, Note_on_c, 10, 45, 127
1, 172663, Note_off_c, 10, 45, 127
1, 172666, Note_on_c, 2, 50, 127
1, 172805, Note_off_c, 2, 50, 127
1, 172808, Note_on_c, 10, 45, 127
1, 172947, Note_off_c, 10, 45, 127
1, 172950, Note_on_c, 6, 42, 127
1, 173089, Note_off_c, 6, 42, 127
1, 173092, Note_on_c, 2, 38, 127
1, 173340, Note_off_c, 2, 38, 127
1, 173376, Note_on_c, 6, 42, 127
1, 173624, Note_off_c, 6, 42, 127
1, 173661, Note_on_c, 10, 45, 127
1, 173909, Note_off_c, 10, 45, 127
1, 173925, Note_off_c, 6, 66, 127
1, 173925, Note_off_c, 2, 74, 127
1, 173945, Note_on_c, 2, 50, 127
1, 174193, Note_off_c, 2, 50, 127
1, 174229, Note_on_c, 6, 54, 127
1, 174477, Note_off_c, 6, 54, 127
1, 174513, Note_on_c, 10, 57, 127
1, 174761, Note_off_c, 10, 57, 127
1, 174797, Note_on_c, 2, 62, 127
1, 174797, Note_on_c, 10, 81, 127
1, 175077, Note_off_c, 2, 62, 127
1, 175081, Note_on_c, 0, 60, 127
1, 175220, Note_off_c, 0, 60, 127
1, 175223, Note_on_c, 12, 59, 127
1, 175362, Note_off_c, 12, 59, 127
1, 175365, Note_on_c, 10, 57, 127
1, 175504, Note_off_c, 10, 57, 127
1, 175507, Note_on_c, 7, 55, 127
1, 175646, Note_off_c, 7, 55, 127
1, 175649, Note_on_c, 6, 54, 127
1, 175780, Note_off_c, 10, 81, 127
1, 175791, Note_on_c, 12, 83, 127
1, 175897, Note_off_c, 6, 54, 127
1, 175929, Note_off_c, 12, 83, 127
1, 175932, Note_on_c, 10, 57, 127
1, 175932, Note_on_c, 0, 84, 127
1, 176071, Note_off_c, 0, 84, 127
1, 176074, Note_on_c, 10, 81, 127
1, 176180, Note_off_c, 10, 57, 127
1, 176212, Note_off_c, 10, 81, 127
1, 176215, Note_on_c, 2, 50, 127
1, 176215, Note_on_c, 12, 83, 127
1, 176354, Note_off_c, 12, 83, 127
1, 176357, Note_on_c, 0, 84, 127
1, 176463, Note_off_c, 2, 50, 127
1, 176495, Note_off_c, 0, 84, 127
1, 176498, Note_on_c, 7, 55, 127
1, 176498, Note_on_c, 12, 83, 127
1, 176637, Note_off_c, 12, 83, 127
1, 176640, Note_on_c, 10, 81, 127
1, 176776, Note_off_c, 7, 55, 127
1, 176778, Note_off_c, 10, 81, 127
1, 176781, Note_on_c, 10, 57, 127
1, 176781, Note_on_c, 7, 79, 127
1, 176920, Note_off_c, 7, 79, 127
1, 176923, Note_on_c, 6, 78, 127
1, 177059, Note_off_c, 10, 57, 127
1, 177061, Note_off_c, 6, 78, 127
1, 177064, Note_on_c, 12, 59, 127
1, 177064, Note_on_c, 4, 76, 127
1, 177203, Note_off_c, 4, 76, 127
1, 177206, Note_on_c, 3, 75, 127
1, 177342, Note_off_c, 12, 59, 127
1, 177344, Note_off_c, 3, 75, 127
1, 177347, Note_on_c, 0, 60, 127
1, 177347, Note_on_c, 4, 76, 127
1, 177486, Note_off_c, 0, 60, 127
1, 177489, Note_on_c, 2, 62, 127
1, 177595, Note_off_c, 4, 76, 127
1, 177627, Note_off_c, 2, 62, 127
1, 177630, Note_on_c, 0, 60, 127
1, 177630, Note_on_c, 6, 78, 127
1, 177769, Note_off_c, 0, 60, 127
1, 177772, Note_on_c, 12, 59, 127
1, 177878, Note_off_c, 6, 78, 127
1, 177910, Note_off_c, 12, 59, 127
1, 177913, Note_on_c, 10, 57, 127
1, 177913, Note_on_c, 7, 79, 127
1, 178052, Note_off_c, 10, 57, 127
1, 178055, Note_on_c, 7, 55, 127
1, 178194, Note_off_c, 7, 55, 127
1, 178197, Note_on_c, 6, 54, 127
1, 178197, Note_on_c, 10, 81, 127
1, 178336, Note_off_c, 6, 54, 127
1, 178339, Note_on_c, 4, 52, 127
1, 178474, Note_off_c, 7, 79, 127
1, 178478, Note_off_c, 4, 52, 127
1, 178481, Note_on_c, 6, 54, 127
1, 178481, Note_on_c, 6, 78, 127
1, 178620, Note_off_c, 6, 54, 127
1, 178623, Note_on_c, 7, 55, 127
1, 178761, Note_off_c, 6, 78, 127
1, 178762, Note_off_c, 7, 55, 127
1, 178766, Note_on_c, 10, 57, 127
1, 178766, Note_on_c, 4, 76, 127
1, 178905, Note_off_c, 10, 57, 127
1, 178908, Note_on_c, 6, 54, 127
1, 179046, Note_off_c, 4, 76, 127
1, 179047, Note_off_c, 6, 54, 127
1, 179050, Note_on_c, 12, 59, 127
1, 179050, Note_on_c, 3, 75, 127
1, 179180, Note_off_c, 10, 81, 127
1, 179192, Note_on_c, 12, 83, 127
1, 179298, Note_off_c, 12, 59, 127
1, 179330, Note_off_c, 12, 83, 127
1, 179333, Note_on_c, 6, 54, 127
1, 179333, Note_on_c, 0, 84, 127
1, 179472, Note_off_c, 0, 84, 127
1, 179475, Note_on_c, 10, 81, 127
1, 179581, Note_off_c, 6, 54, 127
1, 179613, Note_off_c, 10, 81, 127
1, 179616, Note_on_c, 7, 55, 127
1, 179616, Note_on_c, 12, 83, 127
1, 179755, Note_off_c, 12, 83, 127
1, 179758, Note_on_c, 0, 84, 127
1, 179864, Note_off_c, 7, 55, 127
1, 179896, Note_off_c, 0, 84, 127
1, 179899, Note_on_c, 10, 57, 127
1, 179899, Note_on_c, 12, 83, 127
1, 180038, Note_off_c, 12, 83, 127
1, 180038, Note_off_c, 10, 57, 127
1, 180041, Note_on_c, 0, 60, 127
1, 180041, Note_on_c, 10, 81, 127
1, 180171, Note_off_c, 3, 75, 127
1, 180180, Note_off_c, 10, 81, 127
1, 180180, Note_off_c, 0, 60, 127
1, 180183, Note_on_c, 12, 59, 127
1, 180183, Note_on_c, 7, 79, 127
1, 180322, Note_off_c, 7, 79, 127
1, 180322, Note_off_c, 12, 59, 127
1, 180325, Note_on_c, 10, 57, 127
1, 180325, Note_on_c, 6, 78, 127
1, 180464, Note_off_c, 6, 78, 127
1, 180464, Note_off_c, 10, 57, 127
1, 180467, Note_on_c, 7, 55, 127
1, 180467, Note_on_c, 4, 76, 127
1, 180606, Note_off_c, 4, 76, 127
1, 180606, Note_off_c, 7, 55, 127
1, 180609, Note_on_c, 6, 54, 127
1, 180609, Note_on_c, 3, 75, 127
1, 180748, Note_off_c, 3, 75, 127
1, 180748, Note_off_c, 6, 54, 127
1, 180751, Note_on_c, 7, 55, 127
1, 180751, Note_on_c, 4, 76, 127
1, 180890, Note_off_c, 7, 55, 127
1, 180893, Note_on_c, 10, 57, 127
1, 181031, Note_off_c, 10, 57, 127
1, 181034, Note_on_c, 7, 55, 127
1, 181034, Note_on_c, 6, 78, 127
1, 181042, Note_off_c, 4, 76, 127
1, 181173, Note_off_c, 7, 55, 127
1, 181176, Note_on_c, 6, 54, 127
1, 181282, Note_off_c, 6, 78, 127
1, 181314, Note_off_c, 6, 54, 127
1, 181317, Note_on_c, 4, 52, 127
1, 181317, Note_on_c, 7, 79, 127
1, 181456, Note_off_c, 4, 52, 127
1, 181459, Note_on_c, 2, 50, 127
1, 181598, Note_off_c, 2, 50, 127
1, 181601, Note_on_c, 0, 48, 127
1, 181601, Note_on_c, 10, 69, 127
1, 181740, Note_off_c, 0, 48, 127
1, 181743, Note_on_c, 12, 47, 127
1, 181878, Note_off_c, 7, 79, 127
1, 181882, Note_off_c, 12, 47, 127
1, 181885, Note_on_c, 10, 45, 127
1, 181885, Note_on_c, 6, 78, 127
1, 182024, Note_off_c, 10, 45, 127
1, 182027, Note_on_c, 12, 47, 127
1, 182165, Note_off_c, 6, 78, 127
1, 182166, Note_off_c, 12, 47, 127
1, 182169, Note_on_c, 0, 48, 127
1, 182169, Note_on_c, 4, 76, 127
1, 182308, Note_off_c, 0, 48, 127
1, 182311, Note_on_c, 10, 45, 127
1, 182449, Note_off_c, 4, 76, 127
1, 182450, Note_off_c, 10, 45, 127
1, 182453, Note_on_c, 12, 47, 127
1, 182453, Note_on_c, 3, 75, 127
1, 182701, Note_off_c, 12, 47, 127
1, 182724, Note_off_c, 10, 69, 127
1, 182736, Note_on_c, 6, 54, 127
1, 182736, Note_on_c, 12, 71, 127
1, 182875, Note_off_c, 12, 71, 127
1, 182878, Note_on_c, 10, 69, 127
1, 182984, Note_off_c, 6, 54, 127
1, 183012, Note_off_c, 3, 75, 127
1, 183016, Note_off_c, 10, 69, 127
1, 183019, Note_on_c, 12, 59, 127
1, 183019, Note_on_c, 7, 67, 127
1, 183158, Note_off_c, 7, 67, 127
1, 183161, Note_on_c, 6, 66, 127
1, 183300, Note_off_c, 6, 66, 127
1, 183303, Note_on_c, 7, 67, 127
1, 183442, Note_off_c, 7, 67, 127
1, 183445, Note_on_c, 10, 69, 127
1, 183580, Note_off_c, 12, 59, 127
1, 183584, Note_off_c, 10, 69, 127
1, 183587, Note_on_c, 7, 55, 127
1, 183587, Note_on_c, 12, 71, 127
1, 183726, Note_off_c, 12, 71, 127
1, 183729, Note_on_c, 7, 67, 127
1, 183835, Note_off_c, 7, 55, 127
1, 183867, Note_off_c, 7, 67, 127
1, 183870, Note_on_c, 4, 52, 127
1, 183870, Note_on_c, 10, 69, 127
1, 184009, Note_off_c, 10, 69, 127
1, 184013, Note_on_c, 12, 71, 127
1, 184118, Note_off_c, 4, 52, 127
1, 184151, Note_off_c, 12, 71, 127
1, 184153, Note_on_c, 0, 60, 127
1, 184153, Note_on_c, 4, 64, 127
1, 184292, Note_off_c, 0, 60, 127
1, 184296, Note_on_c, 2, 62, 127
1, 184433, Note_off_c, 4, 64, 127
1, 184435, Note_off_c, 2, 62, 127
1, 184438, Note_on_c, 0, 60, 127
1, 184438, Note_on_c, 6, 66, 127
1, 184577, Note_off_c, 6, 66, 127
1, 184577, Note_off_c, 0, 60, 127
1, 184580, Note_on_c, 12, 59, 127
1, 184580, Note_on_c, 7, 67, 127
1, 184719, Note_off_c, 7, 67, 127
1, 184719, Note_off_c, 12, 59, 127
1, 184722, Note_on_c, 10, 57, 127
1, 184722, Note_on_c, 10, 69, 127
1, 184861, Note_off_c, 10, 69, 127
1, 184861, Note_off_c, 10, 57, 127
1, 184864, Note_on_c, 7, 55, 127
1, 184864, Note_on_c, 12, 71, 127
1, 185003, Note_off_c, 12, 71, 127
1, 185003, Note_off_c, 7, 55, 127
1, 185006, Note_on_c, 6, 54, 127
1, 185006, Note_on_c, 10, 69, 127
1, 185006, Note_on_c, 0, 72, 127
1, 185145, Note_off_c, 6, 54, 127
1, 185148, Note_on_c, 4, 52, 127
1, 185286, Note_off_c, 0, 72, 127
1, 185287, Note_off_c, 4, 52, 127
1, 185290, Note_on_c, 6, 54, 127
1, 185290, Note_on_c, 4, 64, 127
1, 185432, Note_on_c, 12, 59, 127
1, 185500, Note_off_c, 6, 54, 127
1, 185570, Note_off_c, 4, 64, 127
1, 185571, Note_off_c, 12, 59, 127
1, 185574, Note_on_c, 10, 57, 127
1, 185574, Note_on_c, 3, 63, 127
1, 185713, Note_off_c, 10, 57, 127
1, 185716, Note_on_c, 12, 59, 127
1, 185854, Note_off_c, 3, 63, 127
1, 185855, Note_off_c, 12, 59, 127
1, 185858, Note_on_c, 4, 52, 127
1, 185858, Note_on_c, 4, 64, 127
1, 186130, Note_off_c, 10, 69, 127
1, 186142, Note_on_c, 7, 55, 127
1, 186142, Note_on_c, 12, 71, 127
1, 186281, Note_off_c, 12, 71, 127
1, 186284, Note_on_c, 10, 69, 127
1, 186419, Note_off_c, 4, 52, 127
1, 186422, Note_off_c, 7, 55, 127
1, 186423, Note_off_c, 10, 69, 127
1, 186426, Note_on_c, 12, 59, 127
1, 186426, Note_on_c, 7, 67, 127
1, 186565, Note_off_c, 7, 67, 127
1, 186568, Note_on_c, 6, 66, 127
1, 186701, Note_off_c, 4, 64, 127
1, 186706, Note_off_c, 12, 59, 127
1, 186707, Note_off_c, 6, 66, 127
1, 186710, Note_on_c, 4, 64, 127
1, 186710, Note_on_c, 7, 67, 127
1, 186849, Note_off_c, 7, 67, 127
1, 186852, Note_on_c, 10, 69, 127
1, 186991, Note_off_c, 10, 69, 127
1, 186994, Note_on_c, 4, 52, 127
1, 186994, Note_on_c, 12, 71, 127
1, 187133, Note_off_c, 12, 71, 127
1, 187136, Note_on_c, 7, 67, 127
1, 187242, Note_off_c, 4, 52, 127
1, 187266, Note_off_c, 4, 64, 127
1, 187274, Note_off_c, 7, 67, 127
1, 187277, Note_on_c, 2, 50, 127
1, 187277, Note_on_c, 10, 69, 127
1, 187416, Note_off_c, 10, 69, 127
1, 187419, Note_on_c, 12, 71, 127
1, 187525, Note_off_c, 2, 50, 127
1, 187557, Note_off_c, 12, 71, 127
1, 187560, Note_on_c, 0, 48, 127
1, 187560, Note_on_c, 4, 64, 127
1, 187560, Note_on_c, 4, 76, 127
1, 187840, Note_off_c, 4, 64, 127
1, 187844, Note_on_c, 0, 60, 127
1, 187844, Note_on_c, 6, 66, 127
1, 187910, Note_off_c, 0, 48, 127
1, 187983, Note_off_c, 6, 66, 127
1, 187986, Note_on_c, 7, 67, 127
1, 188124, Note_off_c, 0, 60, 127
1, 188125, Note_off_c, 7, 67, 127
1, 188128, Note_on_c, 12, 59, 127
1, 188128, Note_on_c, 10, 69, 127
1, 188267, Note_off_c, 10, 69, 127
1, 188271, Note_on_c, 12, 71, 127
1, 188408, Note_off_c, 12, 59, 127
1, 188410, Note_off_c, 12, 71, 127
1, 188413, Note_on_c, 10, 57, 127
1, 188413, Note_on_c, 0, 72, 127
1, 188543, Note_off_c, 4, 76, 127
1, 188555, Note_on_c, 6, 78, 127
1, 188693, Note_off_c, 0, 72, 127
1, 188694, Note_off_c, 6, 78, 127
1, 188697, Note_on_c, 4, 64, 127
1, 188697, Note_on_c, 7, 79, 127
1, 188836, Note_off_c, 7, 79, 127
1, 188839, Note_on_c, 4, 76, 127
1, 188945, Note_off_c, 4, 64, 127
1, 188977, Note_off_c, 4, 76, 127
1, 188980, Note_on_c, 3, 63, 127
1, 188980, Note_on_c, 6, 78, 127
1, 189119, Note_off_c, 6, 78, 127
1, 189122, Note_on_c, 7, 79, 127
1, 189228, Note_off_c, 3, 63, 127
1, 189260, Note_off_c, 7, 79, 127
1, 189263, Note_on_c, 4, 64, 127
1, 189263, Note_on_c, 0, 72, 127
1, 189402, Note_off_c, 0, 72, 127
1, 189405, Note_on_c, 2, 74, 127
1, 189535, Note_off_c, 10, 57, 127
1, 189544, Note_off_c, 2, 74, 127
1, 189547, Note_on_c, 0, 60, 127
1, 189547, Note_on_c, 4, 76, 127
1, 189686, Note_off_c, 4, 76, 127
1, 189689, Note_on_c, 0, 72, 127
1, 189795, Note_off_c, 0, 60, 127
1, 189827, Note_off_c, 0, 72, 127
1, 189830, Note_on_c, 10, 57, 127
1, 189830, Note_on_c, 2, 74, 127
1, 189969, Note_off_c, 2, 74, 127
1, 189972, Note_on_c, 4, 76, 127
1, 190078, Note_off_c, 10, 57, 127
1, 190110, Note_off_c, 4, 76, 127
1, 190113, Note_on_c, 6, 54, 127
1, 190113, Note_on_c, 10, 69, 127
1, 190252, Note_off_c, 10, 69, 127
1, 190255, Note_on_c, 12, 71, 127
1, 190391, Note_off_c, 6, 54, 127
1, 190393, Note_off_c, 12, 71, 127
1, 190396, Note_on_c, 2, 50, 127
1, 190396, Note_on_c, 0, 72, 127
1, 190535, Note_off_c, 0, 72, 127
1, 190538, Note_on_c, 10, 69, 127
1, 190644, Note_off_c, 2, 50, 127
1, 190676, Note_off_c, 10, 69, 127
1, 190679, Note_on_c, 2, 62, 127
1, 190679, Note_on_c, 12, 71, 127
1, 190818, Note_off_c, 12, 71, 127
1, 190821, Note_on_c, 0, 72, 127
1, 190927, Note_off_c, 2, 62, 127
1, 190945, Note_off_c, 4, 64, 127
1, 190959, Note_off_c, 0, 72, 127
1, 190962, Note_on_c, 7, 55, 127
1, 190962, Note_on_c, 4, 76, 127
1, 190962, Note_on_c, 12, 71, 127
1, 191101, Note_off_c, 12, 71, 127
1, 191101, Note_off_c, 7, 55, 127
1, 191104, Note_on_c, 10, 57, 127
1, 191104, Note_on_c, 0, 72, 127
1, 191243, Note_off_c, 0, 72, 127
1, 191243, Note_off_c, 10, 57, 127
1, 191246, Note_on_c, 7, 55, 127
1, 191246, Note_on_c, 2, 74, 127
1, 191385, Note_off_c, 2, 74, 127
1, 191385, Note_off_c, 7, 55, 127
1, 191388, Note_on_c, 5, 53, 127
1, 191388, Note_on_c, 12, 71, 127
1, 191527, Note_off_c, 12, 71, 127
1, 191527, Note_off_c, 5, 53, 127
1, 191530, Note_on_c, 4, 52, 127
1, 191530, Note_on_c, 0, 72, 127
1, 191669, Note_off_c, 0, 72, 127
1, 191669, Note_off_c, 4, 52, 127
1, 191672, Note_on_c, 2, 50, 127
1, 191672, Note_on_c, 2, 74, 127
1, 191811, Note_off_c, 2, 74, 127
1, 191811, Note_off_c, 2, 50, 127
1, 191814, Note_on_c, 0, 48, 127
1, 191814, Note_on_c, 7, 67, 127
1, 191945, Note_off_c, 4, 76, 127
1, 191956, Note_on_c, 6, 78, 127
1, 192062, Note_off_c, 0, 48, 127
1, 192094, Note_off_c, 6, 78, 127
1, 192097, Note_on_c, 4, 52, 127
1, 192097, Note_on_c, 7, 79, 127
1, 192236, Note_off_c, 7, 79, 127
1, 192239, Note_on_c, 4, 76, 127
1, 192345, Note_off_c, 4, 52, 127
1, 192377, Note_off_c, 4, 76, 127
1, 192380, Note_on_c, 0, 48, 127
1, 192380, Note_on_c, 6, 78, 127
1, 192519, Note_off_c, 6, 78, 127
1, 192522, Note_on_c, 7, 79, 127
1, 192628, Note_off_c, 0, 48, 127
1, 192660, Note_off_c, 7, 79, 127
1, 192663, Note_on_c, 10, 45, 127
1, 192663, Note_on_c, 0, 72, 127
1, 192802, Note_off_c, 0, 72, 127
1, 192802, Note_off_c, 10, 45, 127
1, 192805, Note_on_c, 12, 47, 127
1, 192805, Note_on_c, 2, 74, 127
1, 192944, Note_off_c, 2, 74, 127
1, 192944, Note_off_c, 12, 47, 127
1, 192947, Note_on_c, 0, 48, 127
1, 192947, Note_on_c, 4, 76, 127
1, 192947, Note_on_c, 7, 79, 127
1, 193086, Note_off_c, 4, 76, 127
1, 193086, Note_off_c, 0, 48, 127
1, 193089, Note_on_c, 10, 45, 127
1, 193089, Note_on_c, 0, 72, 127
1, 193228, Note_off_c, 0, 72, 127
1, 193228, Note_off_c, 10, 45, 127
1, 193231, Note_on_c, 12, 47, 127
1, 193231, Note_on_c, 2, 74, 127
1, 193370, Note_off_c, 2, 74, 127
1, 193370, Note_off_c, 12, 47, 127
1, 193373, Note_on_c, 0, 48, 127
1, 193373, Note_on_c, 4, 76, 127
1, 193498, Note_off_c, 7, 67, 127
1, 193512, Note_off_c, 4, 76, 127
1, 193512, Note_off_c, 0, 48, 127
1, 193515, Note_on_c, 2, 50, 127
1, 193515, Note_on_c, 10, 69, 127
1, 193654, Note_off_c, 10, 69, 127
1, 193657, Note_on_c, 12, 71, 127
1, 193790, Note_off_c, 7, 79, 127
1, 193796, Note_off_c, 12, 71, 127
1, 193799, Note_on_c, 2, 38, 127
1, 193799, Note_on_c, 0, 72, 127
1, 193799, Note_on_c, 6, 78, 127
1, 193938, Note_off_c, 0, 72, 127
1, 193942, Note_on_c, 10, 69, 127
1, 194042, Note_off_c, 2, 50, 127
1, 194047, Note_off_c, 2, 38, 127
1, 194078, Note_off_c, 6, 78, 127
1, 194080, Note_off_c, 10, 69, 127
1, 194083, Note_on_c, 6, 54, 127
1, 194083, Note_on_c, 12, 71, 127
1, 194083, Note_on_c, 10, 81, 127
1, 194222, Note_off_c, 12, 71, 127
1, 194225, Note_on_c, 0, 72, 127
1, 194331, Note_off_c, 6, 54, 127
1, 194363, Note_off_c, 0, 72, 127
1, 194366, Note_on_c, 7, 55, 127
1, 194366, Note_on_c, 12, 71, 127
1, 194505, Note_off_c, 12, 71, 127
1, 194505, Note_off_c, 7, 55, 127
1, 194508, Note_on_c, 10, 57, 127
1, 194508, Note_on_c, 0, 72, 127
1, 194643, Note_off_c, 10, 81, 127
1, 194647, Note_off_c, 0, 72, 127
1, 194647, Note_off_c, 10, 57, 127
1, 194650, Note_on_c, 12, 59, 127
1, 194650, Note_on_c, 2, 74, 127
1, 194650, Note_on_c, 7, 79, 127
1, 194789, Note_off_c, 2, 74, 127
1, 194789, Note_off_c, 12, 59, 127
1, 194792, Note_on_c, 7, 55, 127
1, 194792, Note_on_c, 12, 71, 127
1, 194930, Note_off_c, 7, 79, 127
1, 194931, Note_off_c, 12, 71, 127
1, 194931, Note_off_c, 7, 55, 127
1, 194934, Note_on_c, 10, 57, 127
1, 194934, Note_on_c, 0, 72, 127
1, 194934, Note_on_c, 5, 77, 127
1, 195073, Note_off_c, 0, 72, 127
1, 195073, Note_off_c, 10, 57, 127
1, 195076, Note_on_c, 12, 59, 127
1, 195076, Note_on_c, 2, 74, 127
1, 195214, Note_off_c, 5, 77, 127
1, 195215, Note_off_c, 2, 74, 127
1, 195215, Note_off_c, 12, 59, 127
1, 195218, Note_on_c, 0, 60, 127
1, 195218, Note_on_c, 7, 67, 127
1, 195218, Note_on_c, 4, 76, 127
1, 195357, Note_off_c, 4, 76, 127
1, 195360, Note_on_c, 2, 74, 127
1, 195466, Note_off_c, 0, 60, 127
1, 195498, Note_off_c, 2, 74, 127
1, 195501, Note_on_c, 4, 64, 127
1, 195501, Note_on_c, 0, 72, 127
1, 195640, Note_off_c, 0, 72, 127
1, 195643, Note_on_c, 4, 76, 127
1, 195749, Note_off_c, 4, 64, 127
1, 195781, Note_off_c, 4, 76, 127
1, 195784, Note_on_c, 10, 57, 127
1, 195784, Note_on_c, 2, 74, 127
1, 195923, Note_off_c, 2, 74, 127
1, 195926, Note_on_c, 0, 72, 127
1, 196032, Note_off_c, 10, 57, 127
1, 196064, Note_off_c, 0, 72, 127
1, 196067, Note_on_c, 2, 62, 127
1, 196067, Note_on_c, 12, 71, 127
1, 196206, Note_off_c, 2, 62, 127
1, 196209, Note_on_c, 0, 60, 127
1, 196348, Note_off_c, 0, 60, 127
1, 196351, Note_on_c, 12, 59, 127
1, 196351, Note_on_c, 7, 79, 127
1, 196490, Note_off_c, 12, 59, 127
1, 196493, Note_on_c, 2, 62, 127
1, 196628, Note_off_c, 12, 71, 127
1, 196632, Note_off_c, 2, 62, 127
1, 196635, Note_on_c, 0, 60, 127
1, 196635, Note_on_c, 12, 83, 127
1, 196774, Note_off_c, 0, 60, 127
1, 196777, Note_on_c, 12, 59, 127
1, 196883, Note_off_c, 12, 83, 127
1, 196901, Note_off_c, 7, 67, 127
1, 196915, Note_off_c, 12, 59, 127
1, 196918, Note_on_c, 0, 60, 127
1, 196918, Note_on_c, 10, 81, 127
1, 197057, Note_off_c, 0, 60, 127
1, 197060, Note_on_c, 12, 59, 127
1, 197193, Note_off_c, 7, 79, 127
1, 197199, Note_off_c, 12, 59, 127
1, 197202, Note_on_c, 10, 57, 127
1, 197202, Note_on_c, 6, 78, 127
1, 197341, Note_off_c, 10, 57, 127
1, 197344, Note_on_c, 7, 55, 127
1, 197479, Note_off_c, 10, 81, 127
1, 197482, Note_off_c, 6, 78, 127
1, 197483, Note_off_c, 7, 55, 127
1, 197486, Note_on_c, 6, 54, 127
1, 197486, Note_on_c, 10, 81, 127
1, 197486, Note_on_c, 0, 84, 127
1, 197625, Note_off_c, 6, 54, 127
1, 197628, Note_on_c, 10, 57, 127
1, 197734, Note_off_c, 0, 84, 127
1, 197766, Note_off_c, 10, 57, 127
1, 197769, Note_on_c, 7, 55, 127
1, 197769, Note_on_c, 12, 83, 127
1, 197908, Note_off_c, 7, 55, 127
1, 197911, Note_on_c, 5, 53, 127
1, 198046, Note_off_c, 10, 81, 127
1, 198050, Note_off_c, 5, 53, 127
1, 198053, Note_on_c, 4, 52, 127
1, 198053, Note_on_c, 7, 79, 127
1, 198192, Note_off_c, 4, 52, 127
1, 198195, Note_on_c, 2, 50, 127
1, 198330, Note_off_c, 12, 83, 127
1, 198333, Note_off_c, 7, 79, 127
1, 198334, Note_off_c, 2, 50, 127
1, 198337, Note_on_c, 0, 48, 127
1, 198337, Note_on_c, 5, 77, 127
1, 198337, Note_on_c, 2, 86, 127
1, 198476, Note_off_c, 0, 48, 127
1, 198479, Note_on_c, 12, 47, 127
1, 198585, Note_off_c, 2, 86, 127
1, 198616, Note_off_c, 5, 77, 127
1, 198617, Note_off_c, 12, 47, 127
1, 198620, Note_on_c, 0, 48, 127
1, 198620, Note_on_c, 4, 76, 127
1, 198620, Note_on_c, 7, 79, 127
1, 198759, Note_off_c, 4, 76, 127
1, 198762, Note_on_c, 2, 74, 127
1, 198900, Note_off_c, 7, 79, 127
1, 198900, Note_off_c, 0, 48, 127
1, 198901, Note_off_c, 2, 74, 127
1, 198904, Note_on_c, 10, 45, 127
1, 198904, Note_on_c, 0, 72, 127
1, 198904, Note_on_c, 10, 81, 127
1, 199043, Note_off_c, 0, 72, 127
1, 199046, Note_on_c, 4, 76, 127
1, 199184, Note_off_c, 10, 81, 127
1, 199184, Note_off_c, 10, 45, 127
1, 199185, Note_off_c, 4, 76, 127
1, 199189, Note_on_c, 2, 50, 127
1, 199189, Note_on_c, 2, 74, 127
1, 199189, Note_on_c, 6, 78, 127
1, 199328, Note_off_c, 2, 74, 127
1, 199331, Note_on_c, 0, 72, 127
1, 199469, Note_off_c, 6, 78, 127
1, 199469, Note_off_c, 2, 50, 127
1, 199470, Note_off_c, 0, 72, 127
1, 199473, Note_on_c, 7, 43, 127
1, 199473, Note_on_c, 12, 71, 127
1, 199473, Note_on_c, 7, 79, 127
1, 199615, Note_on_c, 12, 47, 127
1, 199683, Note_off_c, 7, 43, 127
1, 199754, Note_off_c, 12, 47, 127
1, 199757, Note_on_c, 2, 50, 127
1, 199896, Note_off_c, 2, 50, 127
1, 199899, Note_on_c, 7, 55, 127
1, 200038, Note_off_c, 7, 55, 127
1, 200041, Note_on_c, 2, 50, 127
1, 200180, Note_off_c, 2, 50, 127
1, 200183, Note_on_c, 12, 47, 127
1, 200322, Note_off_c, 12, 47, 127
1, 200325, Note_on_c, 7, 43, 127
1, 200588, Note_off_c, 7, 43, 127
1, 200609, Note_on_c, 12, 47, 127
1, 200872, Note_off_c, 12, 47, 127
1, 200893, Note_on_c, 2, 50, 127
1, 201156, Note_off_c, 2, 50, 127
1, 201159, Note_off_c, 7, 79, 127
1, 201159, Note_off_c, 12, 71, 127
1, 201176, Note_on_c, 7, 55, 127
1, 201466, Note_on_c, 12, 71, 127
1, 201752, Note_off_c, 12, 71, 127
1, 201757, Note_on_c, 7, 67, 127
1, 202038, Note_off_c, 7, 55, 127
1, 202043, Note_off_c, 7, 67, 127
1, 202047, Note_on_c, 6, 54, 127
1, 202047, Note_on_c, 2, 74, 127
1, 202333, Note_off_c, 2, 74, 127
1, 202338, Note_on_c, 10, 69, 127
1, 202338, Note_on_c, 2, 62, 127
1, 202624, Note_off_c, 2, 62, 127
1, 202624, Note_off_c, 10, 69, 127
1, 202628, Note_on_c, 2, 74, 127
1, 202628, Note_on_c, 6, 66, 127
1, 202909, Note_off_c, 6, 54, 127
1, 202914, Note_off_c, 6, 66, 127
1, 202914, Note_off_c, 2, 74, 127
1, 202919, Note_on_c, 4, 52, 127
1, 202919, Note_on_c, 7, 79, 127
1, 202919, Note_on_c, 12, 59, 127
1, 203205, Note_off_c, 12, 59, 127
1, 203209, Note_on_c, 12, 59, 127
1, 203209, Note_on_c, 7, 67, 127
1, 203495, Note_off_c, 7, 67, 127
1, 203495, Note_off_c, 12, 59, 127
1, 203500, Note_on_c, 7, 55, 127
1, 203500, Note_on_c, 0, 72, 127
1, 203786, Note_off_c, 0, 72, 127
1, 203786, Note_off_c, 7, 55, 127
1, 203790, Note_on_c, 2, 62, 127
1, 203790, Note_on_c, 12, 71, 127
1, 203932, Note_off_c, 12, 71, 127
1, 203935, Note_on_c, 7, 67, 127
1, 204068, Note_off_c, 7, 79, 127
1, 204068, Note_off_c, 4, 52, 127
1, 204077, Note_off_c, 7, 67, 127
1, 204080, Note_on_c, 2, 50, 127
1, 204080, Note_on_c, 6, 78, 127
1, 204080, Note_on_c, 10, 69, 127
1, 204362, Note_off_c, 2, 62, 127
1, 204365, Note_off_c, 2, 50, 127
1, 204370, Note_on_c, 6, 54, 127
1, 204618, Note_off_c, 10, 69, 127
1, 204618, Note_off_c, 6, 78, 127
1, 204656, Note_off_c, 6, 54, 127
1, 204660, Note_on_c, 12, 47, 127
1, 204951, Note_on_c, 7, 55, 127
1, 205237, Note_off_c, 7, 55, 127
1, 205241, Note_on_c, 12, 59, 127
1, 205522, Note_off_c, 12, 47, 127
1, 205527, Note_off_c, 12, 59, 127
1, 205532, Note_on_c, 0, 48, 127
1, 205532, Note_on_c, 4, 52, 127
1, 205818, Note_off_c, 4, 52, 127
1, 205822, Note_on_c, 10, 57, 127
1, 205822, Note_on_c, 0, 60, 127
1, 206108, Note_off_c, 0, 60, 127
1, 206108, Note_off_c, 10, 57, 127
1, 206112, Note_on_c, 7, 55, 127
1, 206112, Note_on_c, 4, 64, 127
1, 206394, Note_off_c, 0, 48, 127
1, 206398, Note_off_c, 4, 64, 127
1, 206403, Note_on_c, 2, 50, 127
1, 206403, Note_on_c, 10, 57, 127
1, 206686, Note_off_c, 7, 55, 127
1, 206689, Note_off_c, 10, 57, 127
1, 206693, Note_on_c, 6, 54, 127
1, 206693, Note_on_c, 10, 69, 127
1, 206693, Note_on_c, 2, 62, 127
1, 206835, Note_off_c, 6, 54, 127
1, 206839, Note_on_c, 4, 52, 127
1, 206979, Note_off_c, 10, 69, 127
1, 206981, Note_off_c, 4, 52, 127
1, 206984, Note_on_c, 6, 54, 127
1, 206984, Note_on_c, 0, 72, 127
1, 207270, Note_off_c, 6, 54, 127
1, 207274, Note_on_c, 7, 55, 127
1, 207414, Note_off_c, 0, 72, 127
1, 207419, Note_on_c, 10, 69, 127
1, 207552, Note_off_c, 2, 50, 127
1, 207555, Note_off_c, 2, 62, 127
1, 207560, Note_off_c, 7, 55, 127
1, 207561, Note_off_c, 10, 69, 127
1, 207565, Note_on_c, 12, 47, 127
1, 207565, Note_on_c, 2, 50, 127
1, 207565, Note_on_c, 12, 71, 127
1, 207565, Note_on_c, 7, 67, 127
1, 207849, Note_off_c, 2, 50, 127
1, 207850, Note_off_c, 12, 47, 127
1, 207854, Note_on_c, 2, 50, 127
1, 208103, Note_off_c, 7, 67, 127
1, 208103, Note_off_c, 12, 71, 127
1, 208140, Note_off_c, 2, 50, 127
1, 208144, Note_on_c, 7, 43, 127
1, 208435, Note_on_c, 7, 55, 127
1, 208435, Note_on_c, 4, 76, 127
1, 208502, Note_off_c, 7, 43, 127
1, 208721, Note_off_c, 4, 76, 127
1, 208725, Note_on_c, 7, 79, 127
1, 209011, Note_off_c, 7, 79, 127
1, 209016, Note_on_c, 1, 73, 127
1, 209271, Note_off_c, 1, 73, 127
1, 209297, Note_off_c, 7, 55, 127
1, 209306, Note_on_c, 6, 54, 127
1, 209306, Note_on_c, 2, 62, 127
1, 209306, Note_on_c, 10, 81, 127
1, 209592, Note_off_c, 2, 62, 127
1, 209597, Note_on_c, 6, 66, 127
1, 209880, Note_off_c, 10, 81, 127
1, 209883, Note_off_c, 6, 66, 127
1, 209887, Note_on_c, 12, 59, 127
1, 209887, Note_on_c, 2, 74, 127
1, 210142, Note_off_c, 2, 74, 127
1, 210168, Note_off_c, 6, 54, 127
1, 210173, Note_off_c, 12, 59, 127
1, 210178, Note_on_c, 4, 52, 127
1, 210178, Note_on_c, 4, 64, 127
1, 210178, Note_on_c, 7, 79, 127
1, 210178, Note_on_c, 1, 73, 127
1, 210464, Note_off_c, 1, 73, 127
1, 210464, Note_off_c, 4, 52, 127
1, 210468, Note_on_c, 7, 55, 127
1, 210468, Note_on_c, 4, 76, 127
1, 210754, Note_off_c, 4, 76, 127
1, 210754, Note_off_c, 7, 55, 127
1, 210758, Note_on_c, 1, 49, 127
1, 210758, Note_on_c, 10, 69, 127
1, 211040, Note_off_c, 7, 79, 127
1, 211040, Note_off_c, 4, 64, 127
1, 211044, Note_off_c, 1, 49, 127
1, 211049, Note_on_c, 10, 57, 127
1, 211049, Note_on_c, 1, 61, 127
1, 211049, Note_on_c, 6, 78, 127
1, 211332, Note_off_c, 10, 69, 127
1, 211335, Note_off_c, 6, 78, 127
1, 211335, Note_off_c, 1, 61, 127
1, 211335, Note_off_c, 10, 57, 127
1, 211339, Note_on_c, 1, 61, 127
1, 211339, Note_on_c, 4, 64, 127
1, 211339, Note_on_c, 4, 76, 127
1, 211339, Note_on_c, 7, 67, 127
1, 211625, Note_off_c, 4, 64, 127
1, 211625, Note_off_c, 1, 61, 127
1, 211630, Note_on_c, 6, 54, 127
1, 211630, Note_on_c, 10, 57, 127
1, 211878, Note_off_c, 7, 67, 127
1, 211878, Note_off_c, 4, 76, 127
1, 211920, Note_on_c, 2, 74, 127
1, 211920, Note_on_c, 6, 66, 127
1, 212206, Note_off_c, 6, 66, 127
1, 212206, Note_off_c, 2, 74, 127
1, 212211, Note_on_c, 0, 72, 127
1, 212211, Note_on_c, 10, 69, 127
1, 212492, Note_off_c, 6, 54, 127
1, 212497, Note_off_c, 10, 69, 127
1, 212501, Note_on_c, 7, 55, 127
1, 212501, Note_on_c, 2, 62, 127
1, 212750, Note_off_c, 0, 72, 127
1, 212756, Note_off_c, 2, 62, 127
1, 212779, Note_off_c, 10, 57, 127
1, 212786, Note_off_c, 7, 55, 127
1, 212792, Note_on_c, 7, 43, 127
1, 212792, Note_on_c, 7, 55, 127
1, 212792, Note_on_c, 12, 71, 127
1, 212792, Note_on_c, 4, 64, 127
1, 213078, Note_off_c, 4, 64, 127
1, 213078, Note_off_c, 7, 55, 127
1, 213082, Note_on_c, 12, 59, 127
1, 213082, Note_on_c, 7, 67, 127
1, 213366, Note_off_c, 12, 71, 127
1, 213368, Note_off_c, 7, 67, 127
1, 213368, Note_off_c, 12, 59, 127
1, 213372, Note_on_c, 4, 52, 127
1, 213372, Note_on_c, 10, 69, 127
1, 213372, Note_on_c, 1, 61, 127
1, 213654, Note_off_c, 7, 43, 127
1, 213658, Note_off_c, 1, 61, 127
1, 213658, Note_off_c, 4, 52, 127
1, 213663, Note_on_c, 6, 42, 127
1, 213663, Note_on_c, 6, 54, 127
1, 213663, Note_on_c, 2, 74, 127
1, 213918, Note_off_c, 2, 74, 127
1, 213942, Note_off_c, 10, 69, 127
1, 213949, Note_off_c, 6, 54, 127
1, 213949, Note_off_c, 6, 42, 127
1, 213953, Note_on_c, 10, 45, 127
1, 213953, Note_on_c, 4, 52, 127
1, 213953, Note_on_c, 1, 73, 127
1, 213953, Note_on_c, 7, 67, 127
1, 214208, Note_off_c, 1, 73, 127
1, 214239, Note_off_c, 4, 52, 127
1, 214239, Note_off_c, 10, 45, 127
1, 214244, Note_on_c, 2, 38, 127
1, 214244, Note_on_c, 2, 50, 127
1, 214244, Note_on_c, 1, 73, 127
1, 214383, Note_off_c, 7, 67, 127
1, 214389, Note_on_c, 4, 64, 127
1, 214530, Note_off_c, 1, 73, 127
1, 214531, Note_off_c, 4, 64, 127
1, 214534, Note_on_c, 2, 74, 127
1, 214534, Note_on_c, 6, 66, 127
1, 214674, Note_off_c, 2, 38, 127
1, 214679, Note_on_c, 10, 57, 127
1, 214821, Note_off_c, 10, 57, 127
1, 214825, Note_on_c, 12, 59, 127
1, 214967, Note_off_c, 12, 59, 127
1, 214970, Note_on_c, 1, 61, 127
1, 215103, Note_off_c, 2, 50, 127
1, 215106, Note_off_c, 6, 66, 127
1, 215106, Note_off_c, 2, 74, 127
1, 215111, Note_off_c, 1, 61, 127
1, 215114, Note_on_c, 2, 62, 127
1, 215404, Note_on_c, 6, 78, 127
1, 215688, Note_off_c, 2, 62, 127
1, 215690, Note_off_c, 6, 78, 127
1, 215695, Note_on_c, 0, 60, 127
1, 215695, Note_on_c, 2, 74, 127
1, 215981, Note_off_c, 2, 74, 127
1, 215981, Note_off_c, 0, 60, 127
1, 215985, Note_on_c, 12, 59, 127
1, 215985, Note_on_c, 7, 79, 127
1, 216240, Note_off_c, 7, 79, 127
1, 216276, Note_on_c, 2, 62, 127
1, 216276, Note_on_c, 12, 83, 127
1, 216276, Note_on_c, 2, 74, 127
1, 216559, Note_off_c, 12, 59, 127
1, 216562, Note_off_c, 2, 74, 127
1, 216562, Note_off_c, 2, 62, 127
1, 216566, Note_on_c, 7, 55, 127
1, 216566, Note_on_c, 7, 67, 127
1, 216566, Note_on_c, 12, 71, 127
1, 216852, Note_off_c, 12, 71, 127
1, 216852, Note_off_c, 7, 67, 127
1, 216852, Note_off_c, 7, 55, 127
1, 216857, Note_on_c, 0, 60, 127
1, 216857, Note_on_c, 4, 64, 127
1, 216857, Note_on_c, 7, 67, 127
1, 217138, Note_off_c, 12, 83, 127
1, 217143, Note_off_c, 7, 67, 127
1, 217143, Note_off_c, 4, 64, 127
1, 217143, Note_off_c, 0, 60, 127
1, 217147, Note_on_c, 6, 54, 127
1, 217147, Note_on_c, 0, 60, 127
1, 217147, Note_on_c, 10, 81, 127
1, 217147, Note_on_c, 10, 69, 127
1, 217289, Note_off_c, 10, 81, 127
1, 217292, Note_on_c, 7, 79, 127
1, 217433, Note_off_c, 10, 69, 127
1, 217433, Note_off_c, 6, 54, 127
1, 217434, Note_off_c, 7, 79, 127
1, 217437, Note_on_c, 10, 57, 127
1, 217437, Note_on_c, 6, 78, 127
1, 217437, Note_on_c, 0, 72, 127
1, 217579, Note_off_c, 6, 78, 127
1, 217583, Note_on_c, 4, 76, 127
1, 217723, Note_off_c, 0, 72, 127
1, 217723, Note_off_c, 10, 57, 127
1, 217725, Note_off_c, 4, 76, 127
1, 217728, Note_on_c, 12, 59, 127
1, 217728, Note_on_c, 3, 75, 127
1, 217728, Note_on_c, 6, 66, 127
1, 217877, Note_off_c, 3, 75, 127
1, 217881, Note_on_c, 4, 76, 127
1, 218022, Note_off_c, 0, 60, 127
1, 218028, Note_off_c, 12, 59, 127
1, 218030, Note_off_c, 4, 76, 127
1, 218033, Note_on_c, 3, 51, 127
1, 218033, Note_on_c, 12, 59, 127
1, 218033, Note_on_c, 6, 78, 127
1, 218182, Note_off_c, 12, 59, 127
1, 218186, Note_on_c, 10, 57, 127
1, 218329, Note_off_c, 6, 66, 127
1, 218334, Note_off_c, 3, 51, 127
1, 218334, Note_on_c, 7, 55, 127
1, 218334, Note_on_c, 12, 47, 127
1, 218336, Note_off_c, 10, 57, 127
1, 218477, Note_off_c, 7, 55, 127
1, 218483, Note_on_c, 6, 54, 127
1, 218569, Note_off_c, 6, 78, 127
1, 218625, Note_off_c, 12, 47, 127
1, 218626, Note_off_c, 6, 54, 127
1, 218630, Note_on_c, 7, 55, 127
1, 218630, Note_on_c, 4, 52, 127
1, 218773, Note_off_c, 7, 55, 127
1, 218779, Note_on_c, 10, 57, 127
1, 218921, Note_off_c, 4, 52, 127
1, 218922, Note_off_c, 10, 57, 127
1, 218926, Note_on_c, 12, 71, 127
1, 218926, Note_on_c, 4, 76, 127
1, 218926, Note_on_c, 12, 59, 127
1, 218926, Note_on_c, 7, 55, 127
1, 219217, Note_off_c, 7, 55, 127
1, 219217, Note_off_c, 4, 76, 127
1, 219217, Note_off_c, 12, 71, 127
1, 219222, Note_on_c, 7, 67, 127
1, 219222, Note_on_c, 7, 79, 127
1, 219222, Note_on_c, 4, 52, 127
1, 219513, Note_off_c, 4, 52, 127
1, 219513, Note_off_c, 7, 79, 127
1, 219513, Note_off_c, 7, 67, 127
1, 219519, Note_on_c, 4, 64, 127
1, 219519, Note_on_c, 1, 73, 127
1, 219519, Note_on_c, 10, 57, 127
1, 219804, Note_off_c, 12, 59, 127
1, 219810, Note_off_c, 10, 57, 127
1, 219810, Note_off_c, 1, 73, 127
1, 219810, Note_off_c, 4, 64, 127
1, 219815, Note_on_c, 6, 66, 127
1, 219815, Note_on_c, 3, 75, 127
1, 219815, Note_on_c, 10, 57, 127
1, 219815, Note_on_c, 6, 54, 127
1, 220106, Note_off_c, 6, 54, 127
1, 220106, Note_off_c, 10, 57, 127
1, 220106, Note_off_c, 3, 75, 127
1, 220106, Note_off_c, 6, 66, 127
1, 220111, Note_on_c, 7, 67, 127
1, 220111, Note_on_c, 4, 76, 127
1, 220111, Note_on_c, 12, 59, 127
1, 220111, Note_on_c, 4, 52, 127
1, 220402, Note_off_c, 4, 52, 127
1, 220402, Note_off_c, 12, 59, 127
1, 220402, Note_off_c, 7, 67, 127
1, 220408, Note_on_c, 6, 66, 127
1, 220408, Note_on_c, 0, 60, 127
1, 220408, Note_on_c, 10, 57, 127
1, 220695, Note_off_c, 4, 76, 127
1, 220699, Note_off_c, 10, 57, 127
1, 220699, Note_off_c, 0, 60, 127
1, 220705, Note_on_c, 3, 75, 127
1, 220705, Note_on_c, 12, 59, 127
1, 220848, Note_off_c, 3, 75, 127
1, 220853, Note_on_c, 1, 73, 127
1, 220996, Note_off_c, 1, 73, 127
1, 221001, Note_on_c, 12, 71, 127
1, 221001, Note_on_c, 12, 47, 127
1, 221144, Note_off_c, 12, 71, 127
1, 221149, Note_on_c, 10, 69, 127
1, 221286, Note_off_c, 6, 66, 127
1, 221292, Note_off_c, 10, 69, 127
1, 221292, Note_off_c, 12, 47, 127
1, 221297, Note_on_c, 4, 64, 127
1, 221297, Note_on_c, 7, 67, 127
1, 221297, Note_on_c, 4, 52, 127
1, 221440, Note_off_c, 7, 67, 127
1, 221445, Note_on_c, 6, 66, 127
1, 221584, Note_off_c, 12, 59, 127
1, 221587, Note_off_c, 4, 64, 127
1, 221589, Note_off_c, 6, 66, 127
1, 221595, Note_on_c, 4, 64, 127
1, 221595, Note_on_c, 7, 55, 127
1, 221882, Note_off_c, 4, 52, 127
1, 221886, Note_off_c, 7, 55, 127
1, 221891, Note_on_c, 12, 59, 127
1, 221891, Note_on_c, 2, 50, 127
1, 222033, Note_off_c, 4, 64, 127
1, 222182, Note_off_c, 2, 50, 127
1, 222182, Note_off_c, 12, 59, 127
1, 222187, Note_on_c, 4, 52, 127
1, 222187, Note_on_c, 0, 48, 127
1, 222478, Note_off_c, 4, 52, 127
1, 222484, Note_on_c, 10, 69, 127
1, 222484, Note_on_c, 0, 72, 127
1, 222484, Note_on_c, 10, 57, 127
1, 222627, Note_off_c, 10, 57, 127
1, 222631, Note_on_c, 7, 55, 127
1, 222774, Note_off_c, 7, 55, 127
1, 222775, Note_off_c, 0, 72, 127
1, 222775, Note_off_c, 10, 69, 127
1, 222780, Note_on_c, 0, 72, 127
1, 222780, Note_on_c, 4, 76, 127
1, 222780, Note_on_c, 6, 54, 127
1, 222923, Note_off_c, 6, 54, 127
1, 222927, Note_on_c, 7, 55, 127
1, 223070, Note_off_c, 7, 55, 127
1, 223071, Note_off_c, 4, 76, 127
1, 223071, Note_off_c, 0, 72, 127
1, 223076, Note_on_c, 6, 66, 127
1, 223076, Note_on_c, 10, 69, 127
1, 223076, Note_on_c, 2, 62, 127
1, 223350, Note_off_c, 10, 69, 127
1, 223350, Note_off_c, 6, 66, 127
1, 223358, Note_off_c, 0, 48, 127
1, 223372, Note_on_c, 7, 67, 127
1, 223372, Note_on_c, 12, 71, 127
1, 223372, Note_on_c, 12, 47, 127
1, 223663, Note_off_c, 12, 71, 127
1, 223663, Note_off_c, 7, 67, 127
1, 223669, Note_on_c, 12, 71, 127
1, 223669, Note_on_c, 2, 74, 127
1, 223954, Note_off_c, 2, 62, 127
1, 223960, Note_off_c, 2, 74, 127
1, 223960, Note_off_c, 12, 71, 127
1, 223965, Note_on_c, 4, 64, 127
1, 223965, Note_on_c, 7, 67, 127
1, 223965, Note_on_c, 0, 60, 127
1, 224223, Note_off_c, 7, 67, 127
1, 224223, Note_off_c, 4, 64, 127
1, 224251, Note_off_c, 12, 47, 127
1, 224257, Note_off_c, 0, 60, 127
1, 224262, Note_on_c, 10, 69, 127
1, 224262, Note_on_c, 0, 72, 127
1, 224262, Note_on_c, 6, 54, 127
1, 224262, Note_on_c, 10, 45, 127
1, 224553, Note_off_c, 10, 45, 127
1, 224553, Note_off_c, 6, 54, 127
1, 224559, Note_on_c, 10, 57, 127
1, 224559, Note_on_c, 0, 48, 127
1, 224850, Note_off_c, 0, 48, 127
1, 224850, Note_off_c, 10, 57, 127
1, 224855, Note_on_c, 2, 50, 127
1, 224855, Note_on_c, 6, 42, 127
1, 225140, Note_off_c, 0, 72, 127
1, 225140, Note_off_c, 10, 69, 127
1, 225146, Note_off_c, 6, 42, 127
1, 225151, Note_on_c, 6, 66, 127
1, 225151, Note_on_c, 2, 74, 127
1, 225151, Note_on_c, 2, 38, 127
1, 225442, Note_off_c, 2, 38, 127
1, 225442, Note_off_c, 2, 74, 127
1, 225442, Note_off_c, 6, 66, 127
1, 225447, Note_on_c, 10, 69, 127
1, 225447, Note_on_c, 0, 72, 127
1, 225447, Note_on_c, 6, 42, 127
1, 225705, Note_off_c, 0, 72, 127
1, 225739, Note_off_c, 6, 42, 127
1, 225745, Note_on_c, 12, 71, 127
1, 225745, Note_on_c, 7, 43, 127
1, 225888, Note_off_c, 12, 71, 127
1, 225893, Note_on_c, 0, 72, 127
1, 226027, Note_off_c, 2, 50, 127
1, 226032, Note_off_c, 10, 69, 127
1, 226036, Note_off_c, 0, 72, 127
1, 226036, Note_off_c, 7, 43, 127
1, 226041, Note_on_c, 7, 67, 127
1, 226041, Note_on_c, 2, 74, 127
1, 226041, Note_on_c, 7, 55, 127
1, 226041, Note_on_c, 12, 47, 127
1, 226299, Note_off_c, 7, 67, 127
1, 226333, Note_off_c, 12, 47, 127
1, 226338, Note_on_c, 12, 71, 127
1, 226338, Note_on_c, 7, 43, 127
1, 226596, Note_off_c, 12, 71, 127
1, 226630, Note_off_c, 7, 43, 127
1, 226636, Note_on_c, 4, 64, 127
1, 226636, Note_on_c, 0, 48, 127
1, 226773, Note_off_c, 2, 74, 127
1, 226784, Note_on_c, 0, 72, 127
1, 226921, Note_off_c, 7, 55, 127
1, 226927, Note_off_c, 0, 72, 127
1, 226931, Note_on_c, 2, 74, 127
1, 226931, Note_on_c, 10, 57, 127
1, 227074, Note_off_c, 2, 74, 127
1, 227081, Note_on_c, 0, 72, 127
1, 227222, Note_off_c, 10, 57, 127
1, 227224, Note_off_c, 0, 72, 127
1, 227227, Note_on_c, 12, 71, 127
1, 227227, Note_on_c, 0, 60, 127
1, 227370, Note_off_c, 12, 71, 127
1, 227377, Note_on_c, 10, 69, 127
1, 227514, Note_off_c, 4, 64, 127
1, 227518, Note_off_c, 0, 60, 127
1, 227520, Note_off_c, 10, 69, 127
1, 227524, Note_on_c, 10, 57, 127
1, 227524, Note_on_c, 2, 74, 127
1, 227524, Note_on_c, 6, 54, 127
1, 227739, Note_off_c, 2, 74, 127
1, 227781, Note_off_c, 6, 54, 127
1, 227781, Note_off_c, 10, 57, 127
1, 227807, Note_off_c, 0, 48, 127
1, 227820, Note_on_c, 2, 62, 127
1, 227820, Note_on_c, 7, 67, 127
1, 227820, Note_on_c, 7, 55, 127
1, 227820, Note_on_c, 12, 47, 127
1, 228078, Note_off_c, 7, 67, 127
1, 228078, Note_off_c, 2, 62, 127
1, 228094, Note_off_c, 12, 47, 127
1, 228094, Note_off_c, 7, 55, 127
1, 228116, Note_on_c, 0, 60, 127
1, 228116, Note_on_c, 6, 66, 127
1, 228116, Note_on_c, 10, 57, 127
1, 228116, Note_on_c, 2, 50, 127
1, 228331, Note_off_c, 6, 66, 127
1, 228390, Note_off_c, 2, 50, 127
1, 228390, Note_off_c, 10, 57, 127
1, 228412, Note_on_c, 6, 66, 127
1, 228412, Note_on_c, 7, 55, 127
1, 228412, Note_on_c, 7, 43, 127
1, 228552, Note_off_c, 0, 60, 127
1, 228562, Note_on_c, 10, 57, 127
1, 228703, Note_off_c, 6, 66, 127
1, 228705, Note_off_c, 10, 57, 127
1, 228744, Note_on_c, 12, 59, 127
1, 228744, Note_on_c, 7, 67, 127
1, 229267, Note_off_c, 7, 43, 127
1, 229290, Note_off_c, 7, 55, 127
1, 229299, Note_off_c, 12, 59, 127
1, 229378, Note_on_c, 7, 55, 127
1, 229381, Note_off_c, 7, 67, 127
1, 229463, Note_on_c, 2, 62, 127
1, 229546, Note_on_c, 4, 64, 127
1, 229562, Note_off_c, 2, 62, 127
1, 229629, Note_on_c, 6, 66, 127
1, 229644, Note_off_c, 4, 64, 127
1, 229712, Note_on_c, 12, 71, 127
1, 229712, Note_on_c, 7, 67, 127
1, 229727, Note_off_c, 6, 66, 127
1, 229795, Note_on_c, 6, 66, 127
1, 229810, Note_off_c, 7, 67, 127
1, 229877, Note_on_c, 7, 67, 127
1, 229893, Note_off_c, 6, 66, 127
1, 229960, Note_on_c, 10, 69, 127
1, 229975, Note_off_c, 7, 67, 127
1, 229992, Note_off_c, 7, 55, 127
1, 230037, Note_off_c, 12, 71, 127
1, 230043, Note_on_c, 7, 55, 127
1, 230043, Note_on_c, 12, 71, 127
1, 230059, Note_off_c, 10, 69, 127
1, 230126, Note_on_c, 10, 69, 127
1, 230141, Note_off_c, 12, 71, 127
1, 230209, Note_on_c, 7, 67, 127
1, 230224, Note_off_c, 10, 69, 127
1, 230286, Note_off_c, 7, 55, 127
1, 230293, Note_on_c, 12, 71, 127
1, 230308, Note_off_c, 7, 67, 127
1, 230375, Note_on_c, 6, 54, 127
1, 230375, Note_on_c, 10, 69, 127
1, 230391, Note_off_c, 12, 71, 127
1, 230459, Note_on_c, 7, 67, 127
1, 230473, Note_off_c, 10, 69, 127
1, 230540, Note_on_c, 6, 66, 127
1, 230557, Note_off_c, 7, 67, 127
1, 230624, Note_on_c, 4, 64, 127
1, 230638, Note_off_c, 6, 66, 127
1, 230706, Note_on_c, 10, 69, 127
1, 230706, Note_on_c, 2, 62, 127
1, 230722, Note_off_c, 4, 64, 127
1, 230789, Note_on_c, 4, 64, 127
1, 230804, Note_off_c, 2, 62, 127
1, 230872, Note_on_c, 6, 66, 127
1, 230887, Note_off_c, 4, 64, 127
1, 230954, Note_on_c, 7, 67, 127
1, 230970, Note_off_c, 6, 66, 127
1, 230987, Note_off_c, 6, 54, 127
1, 231031, Note_off_c, 10, 69, 127
1, 231039, Note_on_c, 6, 54, 127
1, 231039, Note_on_c, 10, 69, 127
1, 231053, Note_off_c, 7, 67, 127
1, 231122, Note_on_c, 6, 66, 127
1, 231137, Note_off_c, 10, 69, 127
1, 231204, Note_on_c, 4, 64, 127
1, 231220, Note_off_c, 6, 66, 127
1, 231282, Note_off_c, 6, 54, 127
1, 231288, Note_on_c, 2, 62, 127
1, 231303, Note_off_c, 4, 64, 127
1, 231370, Note_on_c, 4, 52, 127
1, 231370, Note_on_c, 7, 67, 127
1, 231386, Note_off_c, 2, 62, 127
1, 231453, Note_on_c, 6, 66, 127
1, 231468, Note_off_c, 7, 67, 127
1, 231537, Note_on_c, 4, 64, 127
1, 231551, Note_off_c, 6, 66, 127
1, 231618, Note_on_c, 2, 62, 127
1, 231635, Note_off_c, 4, 64, 127
1, 231702, Note_on_c, 7, 67, 127
1, 231702, Note_on_c, 1, 61, 127
1, 231716, Note_off_c, 2, 62, 127
1, 231784, Note_on_c, 2, 62, 127
1, 231800, Note_off_c, 1, 61, 127
1, 231867, Note_on_c, 4, 64, 127
1, 231882, Note_off_c, 2, 62, 127
1, 231950, Note_on_c, 6, 66, 127
1, 231965, Note_off_c, 4, 64, 127
1, 231982, Note_off_c, 4, 52, 127
1, 232027, Note_off_c, 7, 67, 127
1, 232033, Note_on_c, 4, 52, 127
1, 232033, Note_on_c, 7, 67, 127
1, 232049, Note_off_c, 6, 66, 127
1, 232116, Note_on_c, 12, 71, 127
1, 232131, Note_off_c, 7, 67, 127
1, 232199, Note_on_c, 10, 69, 127
1, 232214, Note_off_c, 12, 71, 127
1, 232276, Note_off_c, 4, 52, 127
1, 232282, Note_on_c, 7, 67, 127
1, 232298, Note_off_c, 10, 69, 127
1, 232366, Note_on_c, 2, 50, 127
1, 232366, Note_on_c, 6, 66, 127
1, 232380, Note_off_c, 7, 67, 127
1, 232448, Note_on_c, 4, 64, 127
1, 232464, Note_off_c, 6, 66, 127
1, 232531, Note_on_c, 2, 62, 127
1, 232546, Note_off_c, 4, 64, 127
1, 232613, Note_on_c, 1, 61, 127
1, 232629, Note_off_c, 2, 62, 127
1, 232696, Note_on_c, 6, 66, 127
1, 232696, Note_on_c, 2, 62, 127
1, 232711, Note_off_c, 1, 61, 127
1, 232778, Note_on_c, 10, 57, 127
1, 232794, Note_off_c, 2, 62, 127
1, 232862, Note_on_c, 2, 62, 127
1, 232876, Note_off_c, 10, 57, 127
1, 232944, Note_on_c, 4, 64, 127
1, 232960, Note_off_c, 2, 62, 127
1, 232978, Note_off_c, 2, 50, 127
1, 233021, Note_off_c, 6, 66, 127
1, 233028, Note_on_c, 2, 50, 127
1, 233028, Note_on_c, 6, 66, 127
1, 233043, Note_off_c, 4, 64, 127
1, 233111, Note_on_c, 2, 62, 127
1, 233126, Note_off_c, 6, 66, 127
1, 233190, Note_off_c, 2, 50, 127
1, 233194, Note_on_c, 0, 48, 127
1, 233194, Note_on_c, 6, 66, 127
1, 233210, Note_off_c, 2, 62, 127
1, 233277, Note_on_c, 10, 69, 127
1, 233292, Note_off_c, 6, 66, 127
1, 233356, Note_off_c, 0, 48, 127
1, 233361, Note_on_c, 12, 47, 127
1, 233361, Note_on_c, 2, 74, 127
1, 233376, Note_off_c, 10, 69, 127
1, 233443, Note_on_c, 12, 71, 127
1, 233459, Note_off_c, 2, 74, 127
1, 233527, Note_on_c, 10, 69, 127
1, 233541, Note_off_c, 12, 71, 127
1, 233608, Note_on_c, 12, 71, 127
1, 233625, Note_off_c, 10, 69, 127
1, 233686, Note_off_c, 12, 47, 127
1, 233693, Note_on_c, 2, 74, 127
1, 233693, Note_on_c, 7, 67, 127
1, 233707, Note_off_c, 12, 71, 127
1, 233776, Note_on_c, 12, 71, 127
1, 233791, Note_off_c, 7, 67, 127
1, 233858, Note_on_c, 10, 69, 127
1, 233874, Note_off_c, 12, 71, 127
1, 233941, Note_on_c, 12, 71, 127
1, 233956, Note_off_c, 10, 69, 127
1, 234018, Note_off_c, 2, 74, 127
1, 234024, Note_on_c, 12, 47, 127
1, 234024, Note_on_c, 2, 62, 127
1, 234040, Note_off_c, 12, 71, 127
1, 234107, Note_on_c, 7, 67, 127
1, 234122, Note_off_c, 2, 62, 127
1, 234191, Note_on_c, 5, 65, 127
1, 234205, Note_off_c, 7, 67, 127
1, 234267, Note_off_c, 12, 47, 127
1, 234274, Note_on_c, 7, 67, 127
1, 234290, Note_off_c, 5, 65, 127
1, 234357, Note_on_c, 0, 48, 127
1, 234357, Note_on_c, 4, 64, 127
1, 234372, Note_off_c, 7, 67, 127
1, 234440, Note_on_c, 7, 67, 127
1, 234455, Note_off_c, 4, 64, 127
1, 234522, Note_on_c, 2, 62, 127
1, 234538, Note_off_c, 7, 67, 127
1, 234606, Note_on_c, 7, 67, 127
1, 234620, Note_off_c, 2, 62, 127
1, 234682, Note_off_c, 0, 48, 127
1, 234688, Note_on_c, 4, 76, 127
1, 234688, Note_on_c, 0, 60, 127
1, 234705, Note_off_c, 7, 67, 127
1, 234772, Note_on_c, 7, 67, 127
1, 234786, Note_off_c, 0, 60, 127
1, 234854, Note_on_c, 12, 59, 127
1, 234870, Note_off_c, 7, 67, 127
1, 234937, Note_on_c, 7, 67, 127
1, 234952, Note_off_c, 12, 59, 127
1, 235013, Note_off_c, 4, 76, 127
1, 235021, Note_on_c, 0, 48, 127
1, 235021, Note_on_c, 10, 57, 127
1, 235036, Note_off_c, 7, 67, 127
1, 235104, Note_on_c, 7, 67, 127
1, 235119, Note_off_c, 10, 57, 127
1, 235186, Note_on_c, 12, 59, 127
1, 235202, Note_off_c, 7, 67, 127
1, 235264, Note_off_c, 0, 48, 127
1, 235270, Note_on_c, 7, 67, 127
1, 235285, Note_off_c, 12, 59, 127
1, 235353, Note_on_c, 2, 50, 127
1, 235353, Note_on_c, 0, 60, 127
1, 235368, Note_off_c, 7, 67, 127
1, 235436, Note_on_c, 7, 67, 127
1, 235451, Note_off_c, 0, 60, 127
1, 235518, Note_on_c, 12, 59, 127
1, 235534, Note_off_c, 7, 67, 127
1, 235601, Note_on_c, 7, 67, 127
1, 235616, Note_off_c, 12, 59, 127
1, 235678, Note_off_c, 2, 50, 127
1, 235684, Note_on_c, 10, 69, 127
1, 235684, Note_on_c, 0, 60, 127
1, 235700, Note_off_c, 7, 67, 127
1, 235768, Note_on_c, 6, 66, 127
1, 235782, Note_off_c, 0, 60, 127
1, 235850, Note_on_c, 4, 64, 127
1, 235866, Note_off_c, 6, 66, 127
1, 235933, Note_on_c, 6, 66, 127
1, 235948, Note_off_c, 4, 64, 127
1, 236009, Note_off_c, 10, 69, 127
1, 236017, Note_on_c, 2, 50, 127
1, 236017, Note_on_c, 2, 62, 127
1, 236032, Note_off_c, 6, 66, 127
1, 236099, Note_on_c, 6, 66, 127
1, 236115, Note_off_c, 2, 62, 127
1, 236182, Note_on_c, 0, 60, 127
1, 236197, Note_off_c, 6, 66, 127
1, 236260, Note_off_c, 2, 50, 127
1, 236266, Note_on_c, 6, 66, 127
1, 236281, Note_off_c, 0, 60, 127
1, 236348, Note_on_c, 7, 43, 127
1, 236348, Note_on_c, 12, 59, 127
1, 236364, Note_off_c, 6, 66, 127
1, 236432, Note_on_c, 7, 67, 127
1, 236446, Note_off_c, 12, 59, 127
1, 236513, Note_on_c, 6, 66, 127
1, 236530, Note_off_c, 7, 67, 127
1, 236597, Note_on_c, 4, 64, 127
1, 236611, Note_off_c, 6, 66, 127
1, 236673, Note_off_c, 7, 43, 127
1, 236680, Note_on_c, 12, 71, 127
1, 236680, Note_on_c, 2, 62, 127
1, 236696, Note_off_c, 4, 64, 127
1, 236763, Note_on_c, 0, 60, 127
1, 236778, Note_off_c, 2, 62, 127
1, 236846, Note_on_c, 12, 59, 127
1, 236861, Note_off_c, 0, 60, 127
1, 236928, Note_on_c, 10, 57, 127
1, 236944, Note_off_c, 12, 59, 127
1, 237011, Note_on_c, 7, 55, 127
1, 237026, Note_off_c, 10, 57, 127
1, 237086, Note_off_c, 12, 71, 127
1, 237095, Note_on_c, 10, 69, 127
1, 237174, Note_off_c, 7, 55, 127
1, 237179, Note_on_c, 7, 67, 127
1, 237194, Note_off_c, 10, 69, 127
1, 237262, Note_on_c, 6, 66, 127
1, 237277, Note_off_c, 7, 67, 127
1, 237345, Note_on_c, 7, 67, 127
1, 237345, Note_on_c, 12, 83, 127
1, 237360, Note_off_c, 6, 66, 127
1, 237427, Note_on_c, 12, 71, 127
1, 237443, Note_off_c, 7, 67, 127
1, 237510, Note_on_c, 1, 73, 127
1, 237525, Note_off_c, 12, 71, 127
1, 237592, Note_on_c, 2, 74, 127
1, 237608, Note_off_c, 1, 73, 127
1, 237676, Note_on_c, 4, 76, 127
1, 237676, Note_on_c, 7, 67, 127
1, 237690, Note_off_c, 2, 74, 127
1, 237758, Note_on_c, 6, 78, 127
1, 237774, Note_off_c, 4, 76, 127
1, 237841, Note_on_c, 4, 76, 127
1, 237856, Note_off_c, 6, 78, 127
1, 237923, Note_on_c, 2, 74, 127
1, 237939, Note_off_c, 4, 76, 127
1, 237957, Note_off_c, 12, 83, 127
1, 238001, Note_off_c, 7, 67, 127
1, 238008, Note_on_c, 1, 73, 127
1, 238008, Note_on_c, 12, 83, 127
1, 238022, Note_off_c, 2, 74, 127
1, 238090, Note_on_c, 12, 71, 127
1, 238106, Note_off_c, 1, 73, 127
1, 238173, Note_on_c, 10, 69, 127
1, 238188, Note_off_c, 12, 71, 127
1, 238251, Note_off_c, 12, 83, 127
1, 238256, Note_on_c, 7, 67, 127
1, 238272, Note_off_c, 10, 69, 127
1, 238339, Note_on_c, 6, 66, 127
1, 238339, Note_on_c, 10, 81, 127
1, 238354, Note_off_c, 7, 67, 127
1, 238422, Note_on_c, 10, 69, 127
1, 238437, Note_off_c, 6, 66, 127
1, 238505, Note_on_c, 12, 71, 127
1, 238520, Note_off_c, 10, 69, 127
1, 238587, Note_on_c, 1, 73, 127
1, 238603, Note_off_c, 12, 71, 127
1, 238671, Note_on_c, 2, 74, 127
1, 238671, Note_on_c, 6, 66, 127
1, 238685, Note_off_c, 1, 73, 127
1, 238752, Note_on_c, 4, 76, 127
1, 238769, Note_off_c, 2, 74, 127
1, 238836, Note_on_c, 2, 74, 127
1, 238850, Note_off_c, 4, 76, 127
1, 238917, Note_on_c, 1, 73, 127
1, 238934, Note_off_c, 2, 74, 127
1, 238951, Note_off_c, 10, 81, 127
1, 238996, Note_off_c, 6, 66, 127
1, 239002, Note_on_c, 12, 71, 127
1, 239002, Note_on_c, 10, 81, 127
1, 239016, Note_off_c, 1, 73, 127
1, 239085, Note_on_c, 10, 69, 127
1, 239100, Note_off_c, 12, 71, 127
1, 239167, Note_on_c, 7, 67, 127
1, 239183, Note_off_c, 10, 69, 127
1, 239245, Note_off_c, 10, 81, 127
1, 239251, Note_on_c, 6, 66, 127
1, 239266, Note_off_c, 7, 67, 127
1, 239334, Note_on_c, 4, 64, 127
1, 239334, Note_on_c, 7, 79, 127
1, 239349, Note_off_c, 6, 66, 127
1, 239416, Note_on_c, 6, 78, 127
1, 239432, Note_off_c, 7, 79, 127
1, 239496, Note_off_c, 4, 64, 127
1, 239501, Note_on_c, 6, 66, 127
1, 239501, Note_on_c, 4, 76, 127
1, 239515, Note_off_c, 6, 78, 127
1, 239582, Note_on_c, 3, 75, 127
1, 239599, Note_off_c, 4, 76, 127
1, 239663, Note_off_c, 6, 66, 127
1, 239667, Note_on_c, 7, 67, 127
1, 239667, Note_on_c, 4, 76, 127
1, 239681, Note_off_c, 3, 75, 127
1, 239749, Note_on_c, 7, 79, 127
1, 239765, Note_off_c, 4, 76, 127
1, 239829, Note_off_c, 7, 67, 127
1, 239833, Note_on_c, 12, 71, 127
1, 239833, Note_on_c, 2, 74, 127
1, 239848, Note_off_c, 7, 79, 127
1, 239917, Note_on_c, 7, 79, 127
1, 239931, Note_off_c, 2, 74, 127
1, 239995, Note_off_c, 12, 71, 127
1, 240000, Note_on_c, 4, 76, 127
1, 240000, Note_on_c, 1, 73, 127
1, 240016, Note_off_c, 7, 79, 127
1, 240083, Note_on_c, 2, 74, 127
1, 240083, Note_on_c, 7, 79, 127
1, 240098, Note_off_c, 1, 73, 127
1, 240098, Note_off_c, 4, 76, 127
1, 240165, Note_on_c, 4, 76, 127
1, 240165, Note_on_c, 12, 71, 127
1, 240181, Note_off_c, 7, 79, 127
1, 240181, Note_off_c, 2, 74, 127
1, 240249, Note_on_c, 7, 79, 127
1, 240263, Note_off_c, 12, 71, 127
1, 240331, Note_on_c, 1, 73, 127
1, 240347, Note_off_c, 7, 79, 127
1, 240414, Note_on_c, 7, 79, 127
1, 240429, Note_off_c, 1, 73, 127
1, 240490, Note_off_c, 4, 76, 127
1, 240497, Note_on_c, 2, 74, 127
1, 240497, Note_on_c, 4, 76, 127
1, 240513, Note_off_c, 7, 79, 127
1, 240580, Note_on_c, 7, 79, 127
1, 240595, Note_off_c, 4, 76, 127
1, 240659, Note_off_c, 2, 74, 127
1, 240664, Note_on_c, 1, 73, 127
1, 240664, Note_on_c, 10, 69, 127
1, 240679, Note_off_c, 7, 79, 127
1, 240747, Note_on_c, 4, 76, 127
1, 240762, Note_off_c, 1, 73, 127
1, 240826, Note_off_c, 10, 69, 127
1, 240830, Note_on_c, 12, 71, 127
1, 240830, Note_on_c, 7, 79, 127
1, 240846, Note_off_c, 4, 76, 127
1, 240914, Note_on_c, 4, 76, 127
1, 240928, Note_off_c, 12, 71, 127
1, 240992, Note_off_c, 7, 79, 127
1, 240996, Note_on_c, 10, 69, 127
1, 240996, Note_on_c, 6, 78, 127
1, 241013, Note_off_c, 4, 76, 127
1, 241080, Note_on_c, 4, 76, 127
1, 241094, Note_off_c, 10, 69, 127
1, 241158, Note_off_c, 6, 78, 127
1, 241163, Note_on_c, 7, 67, 127
1, 241163, Note_on_c, 10, 81, 127
1, 241179, Note_off_c, 4, 76, 127
1, 241200, Note_off_c, 10, 81, 127
1, 241205, Note_on_c, 7, 79, 127
1, 241242, Note_off_c, 7, 79, 127
1, 241247, Note_on_c, 4, 76, 127
1, 241247, Note_on_c, 6, 78, 127
1, 241262, Note_off_c, 7, 67, 127
1, 241284, Note_off_c, 6, 78, 127
1, 241289, Note_on_c, 7, 79, 127
1, 241326, Note_off_c, 7, 79, 127
1, 241331, Note_on_c, 6, 66, 127
1, 241331, Note_on_c, 10, 81, 127
1, 241346, Note_off_c, 4, 76, 127
1, 241413, Note_on_c, 4, 76, 127
1, 241429, Note_off_c, 6, 66, 127
1, 241496, Note_on_c, 2, 74, 127
1, 241496, Note_on_c, 4, 64, 127
1, 241511, Note_off_c, 4, 76, 127
1, 241574, Note_off_c, 10, 81, 127
1, 241581, Note_on_c, 1, 73, 127
1, 241595, Note_off_c, 2, 74, 127
1, 241659, Note_off_c, 4, 64, 127
1, 241664, Note_on_c, 2, 74, 127
1, 241664, Note_on_c, 6, 66, 127
1, 241680, Note_off_c, 1, 73, 127
1, 241747, Note_on_c, 10, 69, 127
1, 241762, Note_off_c, 2, 74, 127
1, 241826, Note_off_c, 6, 66, 127
1, 241831, Note_on_c, 2, 62, 127
1, 241831, Note_on_c, 6, 78, 127
1, 241846, Note_off_c, 10, 69, 127
1, 241913, Note_on_c, 2, 74, 127
1, 241929, Note_off_c, 2, 62, 127
1, 241993, Note_off_c, 6, 78, 127
1, 241998, Note_on_c, 4, 64, 127
1, 241998, Note_on_c, 7, 79, 127
1, 242012, Note_off_c, 2, 74, 127
1, 242079, Note_on_c, 2, 74, 127
1, 242096, Note_off_c, 4, 64, 127
1, 242160, Note_off_c, 7, 79, 127
1, 242164, Note_on_c, 6, 66, 127
1, 242164, Note_on_c, 10, 81, 127
1, 242178, Note_off_c, 2, 74, 127
1, 242246, Note_on_c, 2, 74, 127
1, 242262, Note_off_c, 6, 66, 127
1, 242327, Note_off_c, 10, 81, 127
1, 242329, Note_on_c, 7, 67, 127
1, 242329, Note_on_c, 12, 83, 127
1, 242344, Note_off_c, 2, 74, 127
1, 242412, Note_on_c, 4, 76, 127
1, 242427, Note_off_c, 7, 67, 127
1, 242495, Note_on_c, 2, 74, 127
1, 242495, Note_on_c, 6, 66, 127
1, 242510, Note_off_c, 4, 76, 127
1, 242572, Note_off_c, 12, 83, 127
1, 242578, Note_on_c, 1, 73, 127
1, 242594, Note_off_c, 2, 74, 127
1, 242658, Note_off_c, 6, 66, 127
1, 242662, Note_on_c, 2, 74, 127
1, 242662, Note_on_c, 4, 64, 127
1, 242677, Note_off_c, 1, 73, 127
1, 242744, Note_on_c, 12, 71, 127
1, 242760, Note_off_c, 2, 74, 127
1, 242824, Note_off_c, 4, 64, 127
1, 242829, Note_on_c, 4, 64, 127
1, 242829, Note_on_c, 7, 79, 127
1, 242843, Note_off_c, 12, 71, 127
1, 242911, Note_on_c, 2, 74, 127
1, 242927, Note_off_c, 4, 64, 127
1, 242991, Note_off_c, 7, 79, 127
1, 242995, Note_on_c, 6, 66, 127
1, 242995, Note_on_c, 10, 81, 127
1, 243010, Note_off_c, 2, 74, 127
1, 243078, Note_on_c, 2, 74, 127
1, 243093, Note_off_c, 6, 66, 127
1, 243157, Note_off_c, 10, 81, 127
1, 243162, Note_on_c, 7, 67, 127
1, 243162, Note_on_c, 12, 83, 127
1, 243177, Note_off_c, 2, 74, 127
1, 243245, Note_on_c, 2, 74, 127
1, 243260, Note_off_c, 7, 67, 127
1, 243324, Note_off_c, 12, 83, 127
1, 243328, Note_on_c, 10, 69, 127
1, 243328, Note_on_c, 4, 76, 127
1, 243344, Note_off_c, 2, 74, 127
1, 243412, Note_on_c, 2, 74, 127
1, 243426, Note_off_c, 10, 69, 127
1, 243493, Note_on_c, 1, 73, 127
1, 243493, Note_on_c, 7, 67, 127
1, 243510, Note_off_c, 2, 74, 127
1, 243571, Note_off_c, 4, 76, 127
1, 243578, Note_on_c, 12, 71, 127
1, 243592, Note_off_c, 1, 73, 127
1, 243660, Note_on_c, 1, 73, 127
1, 243660, Note_on_c, 10, 57, 127
1, 243676, Note_off_c, 12, 71, 127
1, 243737, Note_off_c, 7, 67, 127
1, 243744, Note_on_c, 4, 76, 127
1, 243759, Note_off_c, 1, 73, 127
1, 243823, Note_off_c, 10, 57, 127
1, 243828, Note_on_c, 10, 69, 127
1, 243828, Note_on_c, 4, 64, 127
1, 243843, Note_off_c, 4, 76, 127
1, 243910, Note_on_c, 1, 73, 127
1, 243926, Note_off_c, 10, 69, 127
1, 243990, Note_off_c, 4, 64, 127
1, 243994, Note_on_c, 4, 64, 127
1, 243994, Note_on_c, 1, 61, 127
1, 244009, Note_off_c, 1, 73, 127
1, 244078, Note_on_c, 7, 67, 127
1, 244092, Note_off_c, 4, 64, 127
1, 244156, Note_off_c, 1, 61, 127
1, 244160, Note_on_c, 6, 66, 127
1, 244160, Note_on_c, 10, 57, 127
1, 244177, Note_off_c, 7, 67, 127
1, 244244, Note_on_c, 4, 64, 127
1, 244258, Note_off_c, 6, 66, 127
1, 244322, Note_off_c, 10, 57, 127
1, 244327, Note_on_c, 6, 66, 127
1, 244327, Note_on_c, 2, 50, 127
1, 244343, Note_off_c, 4, 64, 127
1, 244410, Note_on_c, 10, 69, 127
1, 244425, Note_off_c, 6, 66, 127
1, 244494, Note_on_c, 2, 62, 127
1, 244508, Note_off_c, 10, 69, 127
1, 244575, Note_on_c, 6, 66, 127
1, 244652, Note_off_c, 2, 50, 127
1, 244654, Note_off_c, 6, 66, 127
1, 244660, Note_on_c, 10, 57, 127
1, 244660, Note_on_c, 6, 66, 127
1, 244696, Note_off_c, 2, 62, 127
1, 244742, Note_on_c, 2, 62, 127
1, 244758, Note_off_c, 10, 57, 127
1, 244825, Note_on_c, 6, 54, 127
1, 244825, Note_on_c, 10, 69, 127
1, 244840, Note_off_c, 2, 62, 127
1, 244861, Note_off_c, 6, 66, 127
1, 244908, Note_on_c, 10, 57, 127
1, 244923, Note_off_c, 6, 54, 127
1, 244987, Note_off_c, 10, 69, 127
1, 244992, Note_on_c, 2, 50, 127
1, 244992, Note_on_c, 2, 74, 127
1, 245007, Note_off_c, 10, 57, 127
1, 245333, Note_off_c, 2, 50, 127
1, 245361, Note_off_c, 2, 74, 127
1, 245374, Note_on_c, 6, 78, 127
1, 245458, Note_on_c, 2, 74, 127
1, 245542, Note_on_c, 0, 72, 127
1, 245557, Note_off_c, 2, 74, 127
1, 245625, Note_on_c, 12, 71, 127
1, 245640, Note_off_c, 0, 72, 127
1, 245707, Note_on_c, 2, 62, 127
1, 245707, Note_on_c, 10, 69, 127
1, 245723, Note_off_c, 12, 71, 127
1, 245790, Note_on_c, 7, 67, 127
1, 245805, Note_off_c, 10, 69, 127
1, 245872, Note_on_c, 6, 66, 127
1, 245888, Note_off_c, 7, 67, 127
1, 245955, Note_on_c, 4, 64, 127
1, 245970, Note_off_c, 6, 66, 127
1, 245988, Note_off_c, 6, 78, 127
1, 246032, Note_off_c, 2, 62, 127
1, 246039, Note_on_c, 7, 79, 127
1, 246039, Note_on_c, 2, 62, 127
1, 246054, Note_off_c, 4, 64, 127
1, 246092, Note_off_c, 7, 79, 127
1, 246096, Note_on_c, 6, 78, 127
1, 246123, Note_on_c, 0, 72, 127
1, 246138, Note_off_c, 2, 62, 127
1, 246148, Note_off_c, 6, 78, 127
1, 246151, Note_on_c, 7, 79, 127
1, 246204, Note_off_c, 7, 79, 127
1, 246207, Note_on_c, 12, 71, 127
1, 246207, Note_on_c, 6, 78, 127
1, 246222, Note_off_c, 0, 72, 127
1, 246260, Note_off_c, 6, 78, 127
1, 246263, Note_on_c, 4, 76, 127
1, 246291, Note_on_c, 10, 69, 127
1, 246306, Note_off_c, 12, 71, 127
1, 246315, Note_off_c, 4, 76, 127
1, 246318, Note_on_c, 6, 78, 127
1, 246371, Note_off_c, 6, 78, 127
1, 246375, Note_on_c, 7, 79, 127
1, 246375, Note_on_c, 12, 71, 127
1, 246390, Note_off_c, 10, 69, 127
1, 246457, Note_on_c, 7, 67, 127
1, 246473, Note_off_c, 12, 71, 127
1, 246537, Note_off_c, 7, 79, 127
1, 246542, Note_on_c, 2, 74, 127
1, 246542, Note_on_c, 6, 66, 127
1, 246556, Note_off_c, 7, 67, 127
1, 246623, Note_on_c, 7, 79, 127
1, 246623, Note_on_c, 4, 64, 127
1, 246640, Note_off_c, 6, 66, 127
1, 246640, Note_off_c, 2, 74, 127
1, 246707, Note_on_c, 10, 81, 127
1, 246707, Note_on_c, 2, 62, 127
1, 246721, Note_off_c, 4, 64, 127
1, 246721, Note_off_c, 7, 79, 127
1, 246788, Note_on_c, 0, 60, 127
1, 246805, Note_off_c, 2, 62, 127
1, 246869, Note_off_c, 10, 81, 127
1, 246873, Note_on_c, 2, 74, 127
1, 246873, Note_on_c, 12, 59, 127
1, 246887, Note_off_c, 0, 60, 127
1, 246956, Note_on_c, 10, 81, 127
1, 246956, Note_on_c, 10, 57, 127
1, 246971, Note_off_c, 12, 59, 127
1, 246971, Note_off_c, 2, 74, 127
1, 247038, Note_on_c, 12, 83, 127
1, 247038, Note_on_c, 7, 55, 127
1, 247054, Note_off_c, 10, 57, 127
1, 247054, Note_off_c, 10, 81, 127
1, 247121, Note_on_c, 7, 67, 127
1, 247136, Note_off_c, 7, 55, 127
1, 247200, Note_off_c, 12, 83, 127
1, 247205, Note_on_c, 7, 79, 127
1, 247205, Note_on_c, 10, 69, 127
1, 247220, Note_off_c, 7, 67, 127
1, 247287, Note_on_c, 12, 71, 127
1, 247303, Note_off_c, 10, 69, 127
1, 247367, Note_off_c, 7, 79, 127
1, 247372, Note_on_c, 4, 76, 127
1, 247372, Note_on_c, 0, 72, 127
1, 247386, Note_off_c, 12, 71, 127
1, 247453, Note_on_c, 2, 74, 127
1, 247470, Note_off_c, 0, 72, 127
1, 247534, Note_off_c, 4, 76, 127
1, 247538, Note_on_c, 0, 72, 127
1, 247538, Note_on_c, 4, 76, 127
1, 247552, Note_off_c, 2, 74, 127
1, 247621, Note_on_c, 2, 74, 127
1, 247636, Note_off_c, 4, 76, 127
1, 247700, Note_off_c, 0, 72, 127
1, 247704, Note_on_c, 10, 69, 127
1, 247704, Note_on_c, 0, 72, 127
1, 247720, Note_off_c, 2, 74, 127
1, 247788, Note_on_c, 12, 71, 127
1, 247802, Note_off_c, 0, 72, 127
1, 247866, Note_off_c, 10, 69, 127
1, 247871, Note_on_c, 7, 79, 127
1, 247871, Note_on_c, 10, 69, 127
1, 247887, Note_off_c, 12, 71, 127
1, 247954, Note_on_c, 7, 67, 127
1, 247969, Note_off_c, 10, 69, 127
1, 248033, Note_off_c, 7, 79, 127
1, 248037, Note_on_c, 6, 78, 127
1, 248037, Note_on_c, 10, 69, 127
1, 248053, Note_off_c, 7, 67, 127
1, 248074, Note_off_c, 6, 78, 127
1, 248079, Note_on_c, 4, 76, 127
1, 248116, Note_off_c, 4, 76, 127
1, 248122, Note_on_c, 3, 75, 127
1, 248122, Note_on_c, 12, 71, 127
1, 248136, Note_off_c, 10, 69, 127
1, 248204, Note_on_c, 4, 76, 127
1, 248204, Note_on_c, 0, 72, 127
1, 248220, Note_off_c, 12, 71, 127
1, 248220, Note_off_c, 3, 75, 127
1, 248287, Note_on_c, 10, 69, 127
1, 248302, Note_off_c, 0, 72, 127
1, 248366, Note_off_c, 4, 76, 127
1, 248370, Note_on_c, 6, 78, 127
1, 248370, Note_on_c, 12, 71, 127
1, 248386, Note_off_c, 10, 69, 127
1, 248407, Note_off_c, 6, 78, 127
1, 248413, Note_on_c, 4, 76, 127
1, 248450, Note_off_c, 4, 76, 127
1, 248455, Note_on_c, 6, 78, 127
1, 248455, Note_on_c, 10, 69, 127
1, 248469, Note_off_c, 12, 71, 127
1, 248492, Note_off_c, 6, 78, 127
1, 248496, Note_on_c, 4, 76, 127
1, 248533, Note_off_c, 4, 76, 127
1, 248538, Note_on_c, 3, 75, 127
1, 248538, Note_on_c, 12, 71, 127
1, 248554, Note_off_c, 10, 69, 127
1, 248621, Note_on_c, 6, 66, 127
1, 248636, Note_off_c, 12, 71, 127
1, 248703, Note_on_c, 12, 59, 127
1, 248719, Note_off_c, 6, 66, 127
1, 248781, Note_off_c, 3, 75, 127
1, 248788, Note_on_c, 1, 61, 127
1, 248802, Note_off_c, 12, 59, 127
1, 248871, Note_on_c, 10, 57, 127
1, 248871, Note_on_c, 3, 63, 127
1, 248886, Note_off_c, 1, 61, 127
1, 248953, Note_on_c, 4, 64, 127
1, 248969, Note_off_c, 3, 63, 127
1, 249033, Note_off_c, 10, 57, 127
1, 249038, Note_on_c, 10, 57, 127
1, 249038, Note_on_c, 6, 66, 127
1, 249052, Note_off_c, 4, 64, 127
1, 249075, Note_off_c, 10, 57, 127
1, 249079, Note_on_c, 7, 55, 127
1, 249116, Note_off_c, 7, 55, 127
1, 249120, Note_on_c, 10, 57, 127
1, 249120, Note_on_c, 7, 67, 127
1, 249137, Note_off_c, 6, 66, 127
1, 249157, Note_off_c, 10, 57, 127
1, 249162, Note_on_c, 7, 55, 127
1, 249199, Note_off_c, 7, 55, 127
1, 249205, Note_on_c, 6, 54, 127
1, 249205, Note_on_c, 10, 69, 127
1, 249219, Note_off_c, 7, 67, 127
1, 249285, Note_off_c, 10, 69, 127
1, 249287, Note_on_c, 6, 66, 127
1, 249367, Note_off_c, 6, 54, 127
1, 249371, Note_on_c, 4, 52, 127
1, 249371, Note_on_c, 7, 67, 127
1, 249386, Note_off_c, 6, 66, 127
1, 249454, Note_on_c, 12, 71, 127
1, 249469, Note_off_c, 7, 67, 127
1, 249536, Note_on_c, 7, 67, 127
1, 249552, Note_off_c, 12, 71, 127
1, 249619, Note_on_c, 4, 64, 127
1, 249634, Note_off_c, 7, 67, 127
1, 249696, Note_off_c, 4, 52, 127
1, 249704, Note_on_c, 4, 76, 127
1, 249704, Note_on_c, 7, 67, 127
1, 249718, Note_off_c, 4, 64, 127
1, 249785, Note_on_c, 12, 71, 127
1, 249802, Note_off_c, 7, 67, 127
1, 249869, Note_on_c, 7, 67, 127
1, 249883, Note_off_c, 12, 71, 127
1, 249950, Note_on_c, 4, 64, 127
1, 249967, Note_off_c, 7, 67, 127
1, 250029, Note_off_c, 4, 76, 127
1, 250035, Note_on_c, 4, 52, 127
1, 250035, Note_on_c, 7, 67, 127
1, 250049, Note_off_c, 4, 64, 127
1, 250088, Note_off_c, 4, 52, 127
1, 250091, Note_on_c, 2, 50, 127
1, 250118, Note_on_c, 12, 71, 127
1, 250134, Note_off_c, 7, 67, 127
1, 250143, Note_off_c, 2, 50, 127
1, 250146, Note_on_c, 4, 52, 127
1, 250199, Note_off_c, 4, 52, 127
1, 250202, Note_on_c, 7, 67, 127
1, 250202, Note_on_c, 2, 50, 127
1, 250217, Note_off_c, 12, 71, 127
1, 250255, Note_off_c, 2, 50, 127
1, 250258, Note_on_c, 0, 48, 127
1, 250287, Note_on_c, 4, 64, 127
1, 250301, Note_off_c, 7, 67, 127
1, 250310, Note_off_c, 0, 48, 127
1, 250314, Note_on_c, 2, 50, 127
1, 250367, Note_off_c, 2, 50, 127
1, 250370, Note_on_c, 0, 48, 127
1, 250370, Note_on_c, 10, 69, 127
1, 250386, Note_off_c, 4, 64, 127
1, 250453, Note_on_c, 0, 72, 127
1, 250468, Note_off_c, 10, 69, 127
1, 250536, Note_on_c, 10, 69, 127
1, 250551, Note_off_c, 0, 72, 127
1, 250619, Note_on_c, 4, 64, 127
1, 250634, Note_off_c, 10, 69, 127
1, 250695, Note_off_c, 0, 48, 127
1, 250702, Note_on_c, 4, 76, 127
1, 250702, Note_on_c, 7, 67, 127
1, 250718, Note_off_c, 4, 64, 127
1, 250785, Note_on_c, 0, 72, 127
1, 250800, Note_off_c, 7, 67, 127
1, 250867, Note_on_c, 7, 67, 127
1, 250883, Note_off_c, 0, 72, 127
1, 250950, Note_on_c, 4, 64, 127
1, 250965, Note_off_c, 7, 67, 127
1, 251027, Note_off_c, 4, 76, 127
1, 251034, Note_on_c, 12, 47, 127
1, 251034, Note_on_c, 6, 66, 127
1, 251049, Note_off_c, 4, 64, 127
1, 251087, Note_off_c, 12, 47, 127
1, 251090, Note_on_c, 10, 45, 127
1, 251118, Note_on_c, 0, 72, 127
1, 251133, Note_off_c, 6, 66, 127
1, 251142, Note_off_c, 10, 45, 127
1, 251145, Note_on_c, 12, 47, 127
1, 251198, Note_off_c, 12, 47, 127
1, 251201, Note_on_c, 6, 66, 127
1, 251201, Note_on_c, 10, 45, 127
1, 251217, Note_off_c, 0, 72, 127
1, 251254, Note_off_c, 10, 45, 127
1, 251257, Note_on_c, 7, 43, 127
1, 251286, Note_on_c, 4, 64, 127
1, 251300, Note_off_c, 6, 66, 127
1, 251309, Note_off_c, 7, 43, 127
1, 251312, Note_on_c, 10, 45, 127
1, 251365, Note_off_c, 10, 45, 127
1, 251369, Note_on_c, 12, 47, 127
1, 251369, Note_on_c, 7, 67, 127
1, 251385, Note_off_c, 4, 64, 127
1, 251452, Note_on_c, 12, 71, 127
1, 251467, Note_off_c, 7, 67, 127
1, 251534, Note_on_c, 7, 67, 127
1, 251550, Note_off_c, 12, 71, 127
1, 251617, Note_on_c, 4, 64, 127
1, 251632, Note_off_c, 7, 67, 127
1, 251694, Note_off_c, 12, 47, 127
1, 251702, Note_on_c, 7, 79, 127
1, 251702, Note_on_c, 12, 59, 127
1, 251716, Note_off_c, 4, 64, 127
1, 251784, Note_on_c, 12, 71, 127
1, 251800, Note_off_c, 12, 59, 127
1, 251864, Note_off_c, 7, 79, 127
1, 251868, Note_on_c, 6, 78, 127
1, 251868, Note_on_c, 10, 69, 127
1, 251883, Note_off_c, 12, 71, 127
1, 251951, Note_on_c, 12, 71, 127
1, 251966, Note_off_c, 10, 69, 127
1, 252030, Note_off_c, 6, 78, 127
1, 252034, Note_on_c, 4, 76, 127
1, 252034, Note_on_c, 7, 67, 127
1, 252050, Note_off_c, 12, 71, 127
1, 252117, Note_on_c, 12, 71, 127
1, 252132, Note_off_c, 7, 67, 127
1, 252196, Note_off_c, 4, 76, 127
1, 252202, Note_on_c, 3, 75, 127
1, 252202, Note_on_c, 6, 66, 127
1, 252216, Note_off_c, 12, 71, 127
1, 252283, Note_on_c, 12, 71, 127
1, 252300, Note_off_c, 6, 66, 127
1, 252364, Note_off_c, 3, 75, 127
1, 252368, Note_on_c, 4, 76, 127
1, 252368, Note_on_c, 7, 67, 127
1, 252382, Note_off_c, 12, 71, 127
1, 252449, Note_on_c, 4, 64, 127
1, 252466, Note_off_c, 7, 67, 127
1, 252533, Note_on_c, 7, 67, 127
1, 252547, Note_off_c, 4, 64, 127
1, 252615, Note_on_c, 12, 71, 127
1, 252631, Note_off_c, 7, 67, 127
1, 252693, Note_off_c, 4, 76, 127
1, 252699, Note_on_c, 4, 52, 127
1, 252699, Note_on_c, 4, 76, 127
1, 252714, Note_off_c, 12, 71, 127
1, 252782, Note_on_c, 12, 71, 127
1, 252797, Note_off_c, 4, 76, 127
1, 252865, Note_on_c, 7, 67, 127
1, 252880, Note_off_c, 12, 71, 127
1, 252947, Note_on_c, 12, 71, 127
1, 252963, Note_off_c, 7, 67, 127
1, 253030, Note_on_c, 4, 64, 127
1, 253045, Note_off_c, 12, 71, 127
1, 253105, Note_off_c, 4, 52, 127
1, 253113, Note_on_c, 2, 50, 127
1, 253198, Note_on_c, 0, 48, 127
1, 253212, Note_off_c, 2, 50, 127
1, 253280, Note_on_c, 12, 47, 127
1, 253296, Note_off_c, 0, 48, 127
1, 253352, Note_off_c, 4, 64, 127
1, 253363, Note_on_c, 0, 48, 127
1, 253363, Note_on_c, 4, 64, 127
1, 253378, Note_off_c, 12, 47, 127
1, 253445, Note_on_c, 4, 52, 127
1, 253461, Note_off_c, 0, 48, 127
1, 253529, Note_on_c, 2, 50, 127
1, 253543, Note_off_c, 4, 52, 127
1, 253611, Note_on_c, 4, 52, 127
1, 253627, Note_off_c, 2, 50, 127
1, 253694, Note_on_c, 10, 57, 127
1, 253694, Note_on_c, 0, 48, 127
1, 253709, Note_off_c, 4, 52, 127
1, 253776, Note_on_c, 4, 52, 127
1, 253792, Note_off_c, 10, 57, 127
1, 253859, Note_on_c, 2, 50, 127
1, 253874, Note_off_c, 4, 52, 127
1, 253942, Note_on_c, 4, 52, 127
1, 253957, Note_off_c, 2, 50, 127
1, 253975, Note_off_c, 4, 64, 127
1, 254019, Note_off_c, 0, 48, 127
1, 254026, Note_on_c, 0, 60, 127
1, 254026, Note_on_c, 4, 64, 127
1, 254041, Note_off_c, 4, 52, 127
1, 254109, Note_on_c, 10, 57, 127
1, 254124, Note_off_c, 0, 60, 127
1, 254192, Note_on_c, 7, 55, 127
1, 254207, Note_off_c, 10, 57, 127
1, 254269, Note_off_c, 4, 64, 127
1, 254275, Note_on_c, 10, 57, 127
1, 254291, Note_off_c, 7, 55, 127
1, 254358, Note_on_c, 6, 66, 127
1, 254358, Note_on_c, 2, 62, 127
1, 254373, Note_off_c, 10, 57, 127
1, 254441, Note_on_c, 10, 57, 127
1, 254456, Note_off_c, 6, 66, 127
1, 254523, Note_on_c, 7, 55, 127
1, 254539, Note_off_c, 10, 57, 127
1, 254607, Note_on_c, 10, 57, 127
1, 254621, Note_off_c, 7, 55, 127
1, 254681, Note_off_c, 2, 62, 127
1, 254688, Note_on_c, 7, 67, 127
1, 254688, Note_on_c, 12, 47, 127
1, 254705, Note_off_c, 10, 57, 127
1, 254772, Note_on_c, 2, 62, 127
1, 254786, Note_off_c, 7, 67, 127
1, 254855, Note_on_c, 0, 60, 127
1, 254870, Note_off_c, 2, 62, 127
1, 254937, Note_on_c, 2, 62, 127
1, 254953, Note_off_c, 0, 60, 127
1, 255013, Note_off_c, 12, 47, 127
1, 255016, Note_off_c, 2, 62, 127
1, 255021, Note_on_c, 12, 71, 127
1, 255021, Note_on_c, 2, 62, 127
1, 255104, Note_on_c, 7, 67, 127
1, 255120, Note_off_c, 12, 71, 127
1, 255187, Note_on_c, 6, 66, 127
1, 255202, Note_off_c, 7, 67, 127
1, 255265, Note_off_c, 2, 62, 127
1, 255272, Note_on_c, 7, 67, 127
1, 255286, Note_off_c, 6, 66, 127
1, 255353, Note_on_c, 4, 76, 127
1, 255353, Note_on_c, 0, 60, 127
1, 255370, Note_off_c, 7, 67, 127
1, 255437, Note_on_c, 2, 74, 127
1, 255451, Note_off_c, 4, 76, 127
1, 255515, Note_off_c, 0, 60, 127
1, 255520, Note_on_c, 0, 72, 127
1, 255520, Note_on_c, 12, 59, 127
1, 255536, Note_off_c, 2, 74, 127
1, 255603, Note_on_c, 2, 74, 127
1, 255618, Note_off_c, 0, 72, 127
1, 255682, Note_off_c, 12, 59, 127
1, 255687, Note_on_c, 6, 78, 127
1, 255687, Note_on_c, 10, 57, 127
1, 255702, Note_off_c, 2, 74, 127
1, 255770, Note_on_c, 2, 74, 127
1, 255785, Note_off_c, 6, 78, 127
1, 255849, Note_off_c, 10, 57, 127
1, 255853, Note_on_c, 0, 72, 127
1, 255853, Note_on_c, 7, 55, 127
1, 255869, Note_off_c, 2, 74, 127
1, 255936, Note_on_c, 2, 74, 127
1, 255951, Note_off_c, 0, 72, 127
1, 256015, Note_off_c, 7, 55, 127
1, 256019, Note_on_c, 7, 79, 127
1, 256019, Note_on_c, 6, 54, 127
1, 256035, Note_off_c, 2, 74, 127
1, 256103, Note_on_c, 2, 74, 127
1, 256117, Note_off_c, 7, 79, 127
1, 256181, Note_off_c, 6, 54, 127
1, 256187, Note_on_c, 0, 72, 127
1, 256187, Note_on_c, 4, 52, 127
1, 256202, Note_off_c, 2, 74, 127
1, 256269, Note_on_c, 2, 74, 127
1, 256285, Note_off_c, 0, 72, 127
1, 256349, Note_off_c, 4, 52, 127
1, 256353, Note_on_c, 10, 81, 127
1, 256353, Note_on_c, 6, 54, 127
1, 256368, Note_off_c, 2, 74, 127
1, 256436, Note_on_c, 2, 74, 127
1, 256451, Note_off_c, 10, 81, 127
1, 256515, Note_off_c, 6, 54, 127
1, 256520, Note_on_c, 0, 72, 127
1, 256520, Note_on_c, 7, 55, 127
1, 256535, Note_off_c, 2, 74, 127
1, 256602, Note_on_c, 12, 71, 127
1, 256602, Note_on_c, 10, 57, 127
1, 256618, Note_off_c, 7, 55, 127
1, 256618, Note_off_c, 0, 72, 127
1, 256685, Note_on_c, 0, 72, 127
1, 256685, Note_on_c, 2, 50, 127
1, 256700, Note_off_c, 10, 57, 127
1, 256700, Note_off_c, 12, 71, 127
1, 256767, Note_on_c, 12, 71, 127
1, 256783, Note_off_c, 0, 72, 127
1, 256851, Note_on_c, 10, 69, 127
1, 256865, Note_off_c, 12, 71, 127
1, 256932, Note_on_c, 7, 67, 127
1, 256949, Note_off_c, 10, 69, 127
1, 257016, Note_on_c, 6, 66, 127
1, 257030, Note_off_c, 7, 67, 127
1, 257091, Note_off_c, 2, 50, 127
1, 257100, Note_on_c, 10, 81, 127
1, 257100, Note_on_c, 0, 60, 127
1, 257115, Note_off_c, 6, 66, 127
1, 257182, Note_on_c, 7, 79, 127
1, 257182, Note_on_c, 12, 59, 127
1, 257198, Note_off_c, 0, 60, 127
1, 257198, Note_off_c, 10, 81, 127
1, 257265, Note_on_c, 6, 78, 127
1, 257265, Note_on_c, 10, 57, 127
1, 257280, Note_off_c, 12, 59, 127
1, 257280, Note_off_c, 7, 79, 127
1, 257347, Note_on_c, 7, 79, 127
1, 257347, Note_on_c, 12, 59, 127
1, 257363, Note_off_c, 10, 57, 127
1, 257363, Note_off_c, 6, 78, 127
1, 257430, Note_on_c, 7, 55, 127
1, 257445, Note_off_c, 12, 59, 127
1, 257509, Note_off_c, 7, 79, 127
1, 257515, Note_on_c, 12, 71, 127
1, 257515, Note_on_c, 6, 54, 127
1, 257529, Note_off_c, 7, 55, 127
1, 257596, Note_on_c, 7, 55, 127
1, 257613, Note_off_c, 6, 54, 127
1, 257677, Note_off_c, 12, 71, 127
1, 257681, Note_on_c, 10, 57, 127
1, 257695, Note_off_c, 7, 55, 127
1, 257763, Note_on_c, 7, 55, 127
1, 257779, Note_off_c, 10, 57, 127
1, 257846, Note_on_c, 5, 53, 127
1, 257846, Note_on_c, 12, 59, 127
1, 257861, Note_off_c, 7, 55, 127
1, 257929, Note_on_c, 7, 55, 127
1, 257944, Note_off_c, 12, 59, 127
1, 258008, Note_off_c, 5, 53, 127
1, 258013, Note_on_c, 4, 52, 127
1, 258013, Note_on_c, 0, 60, 127
1, 258028, Note_off_c, 7, 55, 127
1, 258095, Note_on_c, 7, 55, 127
1, 258111, Note_off_c, 0, 60, 127
1, 258175, Note_off_c, 4, 52, 127
1, 258179, Note_on_c, 2, 50, 127
1, 258179, Note_on_c, 2, 62, 127
1, 258194, Note_off_c, 7, 55, 127
1, 258261, Note_on_c, 7, 55, 127
1, 258277, Note_off_c, 2, 62, 127
1, 258341, Note_off_c, 2, 50, 127
1, 258346, Note_on_c, 0, 48, 127
1, 258346, Note_on_c, 4, 64, 127
1, 258360, Note_off_c, 7, 55, 127
1, 258429, Note_on_c, 0, 60, 127
1, 258444, Note_off_c, 0, 48, 127
1, 258508, Note_off_c, 4, 64, 127
1, 258512, Note_on_c, 12, 59, 127
1, 258512, Note_on_c, 7, 55, 127
1, 258528, Note_off_c, 0, 60, 127
1, 258595, Note_on_c, 0, 60, 127
1, 258610, Note_off_c, 12, 59, 127
1, 258678, Note_on_c, 2, 62, 127
1, 258693, Note_off_c, 0, 60, 127
1, 258761, Note_on_c, 0, 60, 127
1, 258776, Note_off_c, 2, 62, 127
1, 258837, Note_off_c, 7, 55, 127
1, 258844, Note_on_c, 4, 64, 127
1, 258844, Note_on_c, 12, 59, 127
1, 258860, Note_off_c, 0, 60, 127
1, 258927, Note_on_c, 0, 60, 127
1, 258942, Note_off_c, 4, 64, 127
1, 259006, Note_off_c, 12, 59, 127
1, 259010, Note_on_c, 6, 66, 127
1, 259010, Note_on_c, 10, 57, 127
1, 259026, Note_off_c, 0, 60, 127
1, 259094, Note_on_c, 0, 60, 127
1, 259108, Note_off_c, 6, 66, 127
1, 259172, Note_off_c, 10, 57, 127
1, 259177, Note_on_c, 7, 67, 127
1, 259177, Note_on_c, 7, 55, 127
1, 259193, Note_off_c, 0, 60, 127
1, 259260, Note_on_c, 0, 60, 127
1, 259275, Note_off_c, 7, 67, 127
1, 259339, Note_off_c, 7, 55, 127
1, 259344, Note_on_c, 10, 69, 127
1, 259344, Note_on_c, 6, 54, 127
1, 259359, Note_off_c, 0, 60, 127
1, 259426, Note_on_c, 0, 60, 127
1, 259426, Note_on_c, 2, 62, 127
1, 259442, Note_off_c, 6, 54, 127
1, 259442, Note_off_c, 10, 69, 127
1, 259509, Note_on_c, 12, 59, 127
1, 259509, Note_on_c, 4, 64, 127
1, 259524, Note_off_c, 2, 62, 127
1, 259524, Note_off_c, 0, 60, 127
1, 259592, Note_on_c, 10, 57, 127
1, 259592, Note_on_c, 6, 66, 127
1, 259607, Note_off_c, 4, 64, 127
1, 259607, Note_off_c, 12, 59, 127
1, 259674, Note_on_c, 12, 59, 127
1, 259674, Note_on_c, 7, 67, 127
1, 259690, Note_off_c, 6, 66, 127
1, 259690, Note_off_c, 10, 57, 127
1, 259758, Note_on_c, 2, 62, 127
1, 259772, Note_off_c, 7, 67, 127
1, 259836, Note_off_c, 12, 59, 127
1, 259840, Note_on_c, 2, 74, 127
1, 259840, Note_on_c, 12, 59, 127
1, 259857, Note_off_c, 2, 62, 127
1, 259924, Note_on_c, 7, 55, 127
1, 259938, Note_off_c, 12, 59, 127
1, 260002, Note_off_c, 2, 74, 127
1, 260008, Note_on_c, 2, 50, 127
1, 260008, Note_on_c, 10, 57, 127
1, 260023, Note_off_c, 7, 55, 127
1, 260090, Note_on_c, 0, 60, 127
1, 260106, Note_off_c, 10, 57, 127
1, 260170, Note_off_c, 2, 50, 127
1, 260175, Note_on_c, 0, 72, 127
1, 260175, Note_on_c, 7, 67, 127
1, 260189, Note_off_c, 0, 60, 127
1, 260257, Note_on_c, 6, 66, 127
1, 260273, Note_off_c, 7, 67, 127
1, 260337, Note_off_c, 0, 72, 127
1, 260341, Note_on_c, 12, 71, 127
1, 260341, Note_on_c, 7, 67, 127
1, 260356, Note_off_c, 6, 66, 127
1, 260417, Note_off_c, 7, 67, 127
1, 260425, Note_on_c, 7, 67, 127
1, 260440, Note_off_c, 12, 71, 127
1, 260507, Note_on_c, 2, 62, 127
1, 260507, Note_on_c, 7, 55, 127
1, 260523, Note_off_c, 7, 67, 127
1, 260590, Note_on_c, 7, 67, 127
1, 260605, Note_off_c, 2, 62, 127
1, 260669, Note_off_c, 7, 55, 127
1, 260674, Note_on_c, 12, 71, 127
1, 260674, Note_on_c, 2, 50, 127
1, 260689, Note_off_c, 7, 67, 127
1, 260756, Note_on_c, 7, 67, 127
1, 260772, Note_off_c, 12, 71, 127
1, 260836, Note_off_c, 2, 50, 127
1, 260841, Note_on_c, 2, 74, 127
1, 260841, Note_on_c, 12, 47, 127
1, 260855, Note_off_c, 7, 67, 127
1, 260939, Note_off_c, 2, 74, 127
1, 260947, Note_on_c, 12, 71, 127
1, 261043, Note_off_c, 12, 47, 127
1, 261068, Note_off_c, 12, 71, 127
1, 261118, Note_on_c, 7, 79, 127
1, 261118, Note_on_c, 7, 43, 127
1, 262366, Note_off_c, 7, 43, 127
1, 263518, Note_off_c, 7, 79, 127
1, 263921, Note_on_c, 7, 43, 127
1, 263921, Note_on_c, 7, 79, 127
1, 264070, Note_off_c, 7, 43, 127
1, 264073, Note_on_c, 6, 42, 127
1, 264222, Note_off_c, 6, 42, 127
1, 264226, Note_on_c, 7, 43, 127
1, 264375, Note_off_c, 7, 43, 127
1, 264379, Note_on_c, 10, 45, 127
1, 264528, Note_off_c, 10, 45, 127
1, 264531, Note_on_c, 12, 47, 127
1, 264680, Note_off_c, 12, 47, 127
1, 264684, Note_on_c, 7, 43, 127
1, 264833, Note_off_c, 7, 43, 127
1, 264836, Note_on_c, 2, 50, 127
1, 264836, Note_on_c, 10, 81, 127
1, 264985, Note_off_c, 2, 50, 127
1, 264989, Note_on_c, 0, 48, 127
1, 265128, Note_off_c, 7, 79, 127
1, 265138, Note_off_c, 0, 48, 127
1, 265142, Note_on_c, 2, 50, 127
1, 265142, Note_on_c, 6, 78, 127
1, 265291, Note_off_c, 6, 78, 127
1, 265291, Note_off_c, 2, 50, 127
1, 265294, Note_on_c, 4, 52, 127
1, 265294, Note_on_c, 4, 76, 127
1, 265443, Note_off_c, 4, 76, 127
1, 265443, Note_off_c, 4, 52, 127
1, 265447, Note_on_c, 6, 54, 127
1, 265447, Note_on_c, 2, 74, 127
1, 265596, Note_off_c, 2, 74, 127
1, 265596, Note_off_c, 6, 54, 127
1, 265600, Note_on_c, 2, 50, 127
1, 265600, Note_on_c, 0, 72, 127
1, 265749, Note_off_c, 0, 72, 127
1, 265749, Note_off_c, 2, 50, 127
1, 265752, Note_on_c, 7, 55, 127
1, 265752, Note_on_c, 12, 71, 127
1, 265901, Note_off_c, 7, 55, 127
1, 265905, Note_on_c, 6, 54, 127
1, 266043, Note_off_c, 10, 81, 127
1, 266054, Note_off_c, 6, 54, 127
1, 266058, Note_on_c, 4, 52, 127
1, 266058, Note_on_c, 7, 79, 127
1, 266207, Note_off_c, 7, 79, 127
1, 266207, Note_off_c, 4, 52, 127
1, 266210, Note_on_c, 6, 54, 127
1, 266210, Note_on_c, 6, 78, 127
1, 266359, Note_off_c, 6, 78, 127
1, 266359, Note_off_c, 6, 54, 127
1, 266363, Note_on_c, 7, 55, 127
1, 266363, Note_on_c, 4, 76, 127
1, 266512, Note_off_c, 4, 76, 127
1, 266512, Note_off_c, 7, 55, 127
1, 266515, Note_on_c, 4, 52, 127
1, 266515, Note_on_c, 2, 74, 127
1, 266664, Note_off_c, 2, 74, 127
1, 266664, Note_off_c, 4, 52, 127
1, 266668, Note_on_c, 10, 57, 127
1, 266668, Note_on_c, 0, 72, 127
1, 266817, Note_off_c, 10, 57, 127
1, 266821, Note_on_c, 7, 55, 127
1, 266959, Note_off_c, 12, 71, 127
1, 266970, Note_off_c, 7, 55, 127
1, 266973, Note_on_c, 6, 54, 127
1, 266973, Note_on_c, 10, 69, 127
1, 267122, Note_off_c, 10, 69, 127
1, 267122, Note_off_c, 6, 54, 127
1, 267126, Note_on_c, 7, 55, 127
1, 267126, Note_on_c, 7, 67, 127
1, 267275, Note_off_c, 7, 67, 127
1, 267275, Note_off_c, 7, 55, 127
1, 267279, Note_on_c, 10, 57, 127
1, 267279, Note_on_c, 6, 66, 127
1, 267428, Note_off_c, 6, 66, 127
1, 267428, Note_off_c, 10, 57, 127
1, 267431, Note_on_c, 6, 54, 127
1, 267431, Note_on_c, 4, 64, 127
1, 267580, Note_off_c, 4, 64, 127
1, 267580, Note_off_c, 6, 54, 127
1, 267584, Note_on_c, 12, 59, 127
1, 267584, Note_on_c, 2, 62, 127
1, 267733, Note_off_c, 12, 59, 127
1, 267737, Note_on_c, 10, 57, 127
1, 267875, Note_off_c, 0, 72, 127
1, 267886, Note_off_c, 10, 57, 127
1, 267889, Note_on_c, 7, 55, 127
1, 267889, Note_on_c, 12, 71, 127
1, 268038, Note_off_c, 12, 71, 127
1, 268038, Note_off_c, 7, 55, 127
1, 268042, Note_on_c, 10, 57, 127
1, 268042, Note_on_c, 10, 69, 127
1, 268191, Note_off_c, 10, 69, 127
1, 268191, Note_off_c, 10, 57, 127
1, 268195, Note_on_c, 12, 59, 127
1, 268195, Note_on_c, 7, 67, 127
1, 268344, Note_off_c, 7, 67, 127
1, 268344, Note_off_c, 12, 59, 127
1, 268347, Note_on_c, 7, 55, 127
1, 268347, Note_on_c, 6, 66, 127
1, 268496, Note_off_c, 6, 66, 127
1, 268496, Note_off_c, 7, 55, 127
1, 268500, Note_on_c, 0, 60, 127
1, 268500, Note_on_c, 4, 64, 127
1, 268649, Note_off_c, 0, 60, 127
1, 268652, Note_on_c, 12, 59, 127
1, 268791, Note_off_c, 2, 62, 127
1, 268801, Note_off_c, 12, 59, 127
1, 268805, Note_on_c, 10, 57, 127
1, 268805, Note_on_c, 0, 60, 127
1, 268954, Note_off_c, 0, 60, 127
1, 268954, Note_off_c, 10, 57, 127
1, 268958, Note_on_c, 7, 55, 127
1, 268958, Note_on_c, 12, 59, 127
1, 269107, Note_off_c, 12, 59, 127
1, 269107, Note_off_c, 7, 55, 127
1, 269110, Note_on_c, 6, 54, 127
1, 269110, Note_on_c, 10, 57, 127
1, 269259, Note_off_c, 10, 57, 127
1, 269259, Note_off_c, 6, 54, 127
1, 269263, Note_on_c, 4, 52, 127
1, 269263, Note_on_c, 7, 55, 127
1, 269412, Note_off_c, 7, 55, 127
1, 269412, Note_off_c, 4, 52, 127
1, 269416, Note_on_c, 6, 54, 127
1, 269416, Note_on_c, 10, 57, 127
1, 269565, Note_off_c, 6, 54, 127
1, 269568, Note_on_c, 4, 52, 127
1, 269707, Note_off_c, 4, 64, 127
1, 269717, Note_off_c, 4, 52, 127
1, 269721, Note_on_c, 6, 54, 127
1, 269721, Note_on_c, 2, 62, 127
1, 269870, Note_off_c, 2, 62, 127
1, 269870, Note_off_c, 6, 54, 127
1, 269874, Note_on_c, 2, 50, 127
1, 269874, Note_on_c, 0, 60, 127
1, 270023, Note_off_c, 0, 60, 127
1, 270023, Note_off_c, 2, 50, 127
1, 270026, Note_on_c, 4, 52, 127
1, 270026, Note_on_c, 12, 59, 127
1, 270168, Note_off_c, 10, 57, 127
1, 270176, Note_off_c, 12, 59, 127
1, 270176, Note_off_c, 4, 52, 127
1, 270180, Note_on_c, 6, 54, 127
1, 270180, Note_on_c, 10, 57, 127
1, 270329, Note_off_c, 6, 54, 127
1, 270333, Note_on_c, 7, 55, 127
1, 270333, Note_on_c, 12, 59, 127
1, 270369, Note_off_c, 10, 57, 127
1, 270482, Note_off_c, 7, 55, 127
1, 270485, Note_on_c, 4, 52, 127
1, 270485, Note_on_c, 7, 55, 127
1, 270632, Note_off_c, 12, 59, 127
1, 270635, Note_off_c, 7, 55, 127
1, 270635, Note_off_c, 4, 52, 127
1, 270639, Note_on_c, 2, 50, 127
1, 270639, Note_on_c, 12, 59, 127
1, 270788, Note_off_c, 2, 50, 127
1, 270792, Note_on_c, 0, 48, 127
1, 270792, Note_on_c, 10, 57, 127
1, 270941, Note_off_c, 10, 57, 127
1, 270941, Note_off_c, 0, 48, 127
1, 270944, Note_on_c, 12, 47, 127
1, 270944, Note_on_c, 7, 55, 127
1, 271093, Note_off_c, 7, 55, 127
1, 271093, Note_off_c, 12, 47, 127
1, 271097, Note_on_c, 10, 45, 127
1, 271097, Note_on_c, 6, 54, 127
1, 271246, Note_off_c, 6, 54, 127
1, 271246, Note_off_c, 10, 45, 127
1, 271249, Note_on_c, 7, 43, 127
1, 271249, Note_on_c, 7, 55, 127
1, 271391, Note_off_c, 12, 59, 127
1, 271399, Note_off_c, 7, 43, 127
1, 271403, Note_on_c, 6, 54, 127
1, 271403, Note_on_c, 10, 57, 127
1, 271550, Note_off_c, 7, 55, 127
1, 271552, Note_off_c, 10, 57, 127
1, 271552, Note_off_c, 6, 54, 127
1, 271556, Note_on_c, 4, 52, 127
1, 271556, Note_on_c, 7, 67, 127
1, 271556, Note_on_c, 0, 60, 127
1, 271705, Note_off_c, 0, 60, 127
1, 271705, Note_off_c, 4, 52, 127
1, 271708, Note_on_c, 2, 50, 127
1, 271708, Note_on_c, 12, 59, 127
1, 271857, Note_off_c, 12, 59, 127
1, 271857, Note_off_c, 2, 50, 127
1, 271861, Note_on_c, 0, 48, 127
1, 271861, Note_on_c, 10, 57, 127
1, 272010, Note_off_c, 10, 57, 127
1, 272010, Note_off_c, 0, 48, 127
1, 272014, Note_on_c, 12, 47, 127
1, 272014, Note_on_c, 7, 55, 127
1, 272163, Note_off_c, 7, 55, 127
1, 272163, Note_off_c, 12, 47, 127
1, 272166, Note_on_c, 1, 49, 127
1, 272166, Note_on_c, 10, 57, 127
1, 272315, Note_off_c, 1, 49, 127
1, 272319, Note_on_c, 10, 45, 127
1, 272461, Note_off_c, 7, 67, 127
1, 272466, Note_off_c, 10, 57, 127
1, 272468, Note_off_c, 10, 45, 127
1, 272472, Note_on_c, 2, 50, 127
1, 272472, Note_on_c, 6, 66, 127
1, 272472, Note_on_c, 10, 69, 127
1, 272621, Note_off_c, 6, 66, 127
1, 272621, Note_off_c, 2, 50, 127
1, 272624, Note_on_c, 4, 52, 127
1, 272624, Note_on_c, 4, 64, 127
1, 272773, Note_off_c, 4, 64, 127
1, 272773, Note_off_c, 4, 52, 127
1, 272777, Note_on_c, 6, 54, 127
1, 272777, Note_on_c, 2, 62, 127
1, 272926, Note_off_c, 2, 62, 127
1, 272926, Note_off_c, 6, 54, 127
1, 272930, Note_on_c, 2, 50, 127
1, 272930, Note_on_c, 0, 60, 127
1, 273079, Note_off_c, 0, 60, 127
1, 273079, Note_off_c, 2, 50, 127
1, 273082, Note_on_c, 7, 55, 127
1, 273082, Note_on_c, 12, 59, 127
1, 273231, Note_off_c, 12, 59, 127
1, 273231, Note_off_c, 7, 55, 127
1, 273235, Note_on_c, 6, 54, 127
1, 273235, Note_on_c, 2, 62, 127
1, 273377, Note_off_c, 10, 69, 127
1, 273384, Note_off_c, 2, 62, 127
1, 273384, Note_off_c, 6, 54, 127
1, 273387, Note_on_c, 4, 52, 127
1, 273387, Note_on_c, 7, 67, 127
1, 273536, Note_off_c, 7, 67, 127
1, 273536, Note_off_c, 4, 52, 127
1, 273540, Note_on_c, 6, 54, 127
1, 273540, Note_on_c, 10, 69, 127
1, 273540, Note_on_c, 6, 66, 127
1, 273689, Note_off_c, 6, 66, 127
1, 273689, Note_off_c, 10, 69, 127
1, 273689, Note_off_c, 6, 54, 127
1, 273693, Note_on_c, 7, 55, 127
1, 273693, Note_on_c, 11, 70, 127
1, 273693, Note_on_c, 4, 64, 127
1, 273842, Note_off_c, 4, 64, 127
1, 273842, Note_off_c, 7, 55, 127
1, 273845, Note_on_c, 4, 52, 127
1, 273845, Note_on_c, 2, 62, 127
1, 273994, Note_off_c, 2, 62, 127
1, 273994, Note_off_c, 4, 52, 127
1, 273998, Note_on_c, 10, 57, 127
1, 273998, Note_on_c, 1, 61, 127
1, 274147, Note_off_c, 1, 61, 127
1, 274147, Note_off_c, 10, 57, 127
1, 274151, Note_on_c, 7, 55, 127
1, 274151, Note_on_c, 4, 64, 127
1, 274295, Note_off_c, 11, 70, 127
1, 274300, Note_off_c, 4, 64, 127
1, 274300, Note_off_c, 7, 55, 127
1, 274303, Note_on_c, 6, 54, 127
1, 274303, Note_on_c, 10, 69, 127
1, 274452, Note_off_c, 10, 69, 127
1, 274452, Note_off_c, 6, 54, 127
1, 274456, Note_on_c, 7, 55, 127
1, 274456, Note_on_c, 7, 67, 127
1, 274456, Note_on_c, 12, 71, 127
1, 274605, Note_off_c, 12, 71, 127
1, 274605, Note_off_c, 7, 67, 127
1, 274605, Note_off_c, 7, 55, 127
1, 274609, Note_on_c, 10, 57, 127
1, 274609, Note_on_c, 6, 66, 127
1, 274609, Note_on_c, 0, 72, 127
1, 274758, Note_off_c, 6, 66, 127
1, 274758, Note_off_c, 10, 57, 127
1, 274761, Note_on_c, 6, 54, 127
1, 274761, Note_on_c, 4, 64, 127
1, 274910, Note_off_c, 4, 64, 127
1, 274910, Note_off_c, 6, 54, 127
1, 274914, Note_on_c, 12, 59, 127
1, 274914, Note_on_c, 2, 62, 127
1, 275063, Note_off_c, 12, 59, 127
1, 275066, Note_on_c, 10, 57, 127
1, 275211, Note_off_c, 0, 72, 127
1, 275215, Note_off_c, 10, 57, 127
1, 275219, Note_on_c, 7, 55, 127
1, 275219, Note_on_c, 12, 71, 127
1, 275368, Note_off_c, 12, 71, 127
1, 275368, Note_off_c, 7, 55, 127
1, 275372, Note_on_c, 10, 57, 127
1, 275372, Note_on_c, 10, 69, 127
1, 275521, Note_off_c, 10, 69, 127
1, 275521, Note_off_c, 10, 57, 127
1, 275524, Note_on_c, 12, 59, 127
1, 275524, Note_on_c, 7, 67, 127
1, 275673, Note_off_c, 7, 67, 127
1, 275673, Note_off_c, 12, 59, 127
1, 275677, Note_on_c, 10, 57, 127
1, 275677, Note_on_c, 6, 66, 127
1, 275826, Note_off_c, 6, 66, 127
1, 275826, Note_off_c, 10, 57, 127
1, 275830, Note_on_c, 8, 56, 127
1, 275830, Note_on_c, 4, 64, 127
1, 275970, Note_off_c, 2, 62, 127
1, 275982, Note_on_c, 1, 61, 127
1, 276131, Note_off_c, 1, 61, 127
1, 276135, Note_on_c, 8, 44, 127
1, 276135, Note_on_c, 12, 59, 127
1, 276284, Note_off_c, 12, 59, 127
1, 276288, Note_on_c, 2, 62, 127
1, 276432, Note_off_c, 8, 56, 127
1, 276437, Note_off_c, 2, 62, 127
1, 276440, Note_on_c, 1, 61, 127
1, 276589, Note_off_c, 1, 61, 127
1, 276593, Note_on_c, 12, 59, 127
1, 276670, Note_off_c, 8, 44, 127
1, 276742, Note_off_c, 12, 59, 127
1, 276746, Note_on_c, 10, 45, 127
1, 276746, Note_on_c, 1, 61, 127
1, 276886, Note_off_c, 4, 64, 127
1, 276895, Note_off_c, 1, 61, 127
1, 276898, Note_on_c, 12, 59, 127
1, 276898, Note_on_c, 2, 62, 127
1, 277047, Note_off_c, 2, 62, 127
1, 277047, Note_off_c, 12, 59, 127
1, 277051, Note_on_c, 10, 33, 127
1, 277051, Note_on_c, 10, 57, 127
1, 277051, Note_on_c, 1, 61, 127
1, 277200, Note_off_c, 1, 61, 127
1, 277200, Note_off_c, 10, 57, 127
1, 277203, Note_on_c, 7, 55, 127
1, 277203, Note_on_c, 4, 64, 127
1, 277348, Note_off_c, 10, 45, 127
1, 277352, Note_off_c, 4, 64, 127
1, 277352, Note_off_c, 7, 55, 127
1, 277356, Note_on_c, 6, 54, 127
1, 277356, Note_on_c, 2, 62, 127
1, 277505, Note_off_c, 2, 62, 127
1, 277505, Note_off_c, 6, 54, 127
1, 277509, Note_on_c, 4, 52, 127
1, 277509, Note_on_c, 1, 61, 127
1, 277586, Note_off_c, 10, 33, 127
1, 277658, Note_off_c, 1, 61, 127
1, 277658, Note_off_c, 4, 52, 127
1, 277661, Note_on_c, 2, 38, 127
1, 277661, Note_on_c, 6, 54, 127
1, 277661, Note_on_c, 2, 62, 127
1, 277928, Note_off_c, 2, 38, 127
1, 277967, Note_on_c, 6, 42, 127
1, 278234, Note_off_c, 6, 42, 127
1, 278272, Note_on_c, 10, 45, 127
1, 278490, Note_off_c, 2, 62, 127
1, 278490, Note_off_c, 6, 54, 127
1, 278538, Note_off_c, 10, 45, 127
1, 278576, Note_on_c, 2, 50, 127
1, 278576, Note_on_c, 10, 81, 127
1, 278725, Note_off_c, 2, 50, 127
1, 278729, Note_on_c, 0, 48, 127
1, 278878, Note_off_c, 0, 48, 127
1, 278881, Note_on_c, 2, 50, 127
1, 279030, Note_off_c, 2, 50, 127
1, 279034, Note_on_c, 4, 52, 127
1, 279183, Note_off_c, 4, 52, 127
1, 279187, Note_on_c, 6, 54, 127
1, 279336, Note_off_c, 6, 54, 127
1, 279339, Note_on_c, 2, 50, 127
1, 279488, Note_off_c, 2, 50, 127
1, 279492, Note_on_c, 7, 55, 127
1, 279492, Note_on_c, 12, 83, 127
1, 279641, Note_off_c, 7, 55, 127
1, 279645, Note_on_c, 6, 54, 127
1, 279783, Note_off_c, 10, 81, 127
1, 279794, Note_off_c, 6, 54, 127
1, 279797, Note_on_c, 4, 52, 127
1, 279797, Note_on_c, 7, 79, 127
1, 279946, Note_off_c, 7, 79, 127
1, 279946, Note_off_c, 4, 52, 127
1, 279950, Note_on_c, 6, 54, 127
1, 279950, Note_on_c, 6, 78, 127
1, 280099, Note_off_c, 6, 78, 127
1, 280099, Note_off_c, 6, 54, 127
1, 280103, Note_on_c, 7, 55, 127
1, 280103, Note_on_c, 4, 76, 127
1, 280252, Note_off_c, 4, 76, 127
1, 280252, Note_off_c, 7, 55, 127
1, 280255, Note_on_c, 4, 52, 127
1, 280255, Note_on_c, 2, 74, 127
1, 280404, Note_off_c, 2, 74, 127
1, 280404, Note_off_c, 4, 52, 127
1, 280408, Note_on_c, 10, 57, 127
1, 280408, Note_on_c, 1, 73, 127
1, 280557, Note_off_c, 10, 57, 127
1, 280560, Note_on_c, 7, 55, 127
1, 280699, Note_off_c, 12, 83, 127
1, 280708, Note_off_c, 1, 73, 127
1, 280709, Note_off_c, 7, 55, 127
1, 280713, Note_on_c, 6, 54, 127
1, 280713, Note_on_c, 0, 72, 127
1, 280713, Note_on_c, 10, 81, 127
1, 280862, Note_off_c, 10, 81, 127
1, 280862, Note_off_c, 6, 54, 127
1, 280866, Note_on_c, 7, 55, 127
1, 280866, Note_on_c, 7, 79, 127
1, 281015, Note_off_c, 7, 79, 127
1, 281015, Note_off_c, 7, 55, 127
1, 281018, Note_on_c, 10, 57, 127
1, 281018, Note_on_c, 6, 78, 127
1, 281167, Note_off_c, 6, 78, 127
1, 281167, Note_off_c, 10, 57, 127
1, 281171, Note_on_c, 6, 54, 127
1, 281171, Note_on_c, 4, 76, 127
1, 281320, Note_off_c, 4, 76, 127
1, 281320, Note_off_c, 6, 54, 127
1, 281324, Note_on_c, 12, 59, 127
1, 281324, Note_on_c, 3, 75, 127
1, 281473, Note_off_c, 12, 59, 127
1, 281476, Note_on_c, 10, 57, 127
1, 281618, Note_off_c, 0, 72, 127
1, 281624, Note_off_c, 3, 75, 127
1, 281625, Note_off_c, 10, 57, 127
1, 281629, Note_on_c, 8, 56, 127
1, 281629, Note_on_c, 12, 71, 127
1, 281629, Note_on_c, 2, 74, 127
1, 281778, Note_off_c, 12, 71, 127
1, 281778, Note_off_c, 8, 56, 127
1, 281782, Note_on_c, 10, 57, 127
1, 281782, Note_on_c, 10, 69, 127
1, 281931, Note_off_c, 10, 69, 127
1, 281931, Note_off_c, 10, 57, 127
1, 281934, Note_on_c, 12, 59, 127
1, 281934, Note_on_c, 8, 68, 127
1, 282083, Note_off_c, 8, 68, 127
1, 282083, Note_off_c, 12, 59, 127
1, 282087, Note_on_c, 8, 56, 127
1, 282087, Note_on_c, 6, 66, 127
1, 282236, Note_off_c, 6, 66, 127
1, 282236, Note_off_c, 8, 56, 127
1, 282240, Note_on_c, 0, 60, 127
1, 282240, Note_on_c, 4, 64, 127
1, 282389, Note_off_c, 0, 60, 127
1, 282392, Note_on_c, 12, 59, 127
1, 282534, Note_off_c, 2, 74, 127
1, 282541, Note_off_c, 12, 59, 127
1, 282545, Note_on_c, 10, 57, 127
1, 282545, Note_on_c, 0, 72, 127
1, 282694, Note_off_c, 0, 72, 127
1, 282694, Note_off_c, 10, 57, 127
1, 282697, Note_on_c, 12, 59, 127
1, 282697, Note_on_c, 12, 71, 127
1, 282846, Note_off_c, 12, 71, 127
1, 282846, Note_off_c, 12, 59, 127
1, 282850, Note_on_c, 0, 60, 127
1, 282850, Note_on_c, 10, 69, 127
1, 282999, Note_off_c, 10, 69, 127
1, 282999, Note_off_c, 0, 60, 127
1, 283003, Note_on_c, 12, 59, 127
1, 283003, Note_on_c, 7, 67, 127
1, 283152, Note_off_c, 7, 67, 127
1, 283152, Note_off_c, 12, 59, 127
1, 283155, Note_on_c, 11, 58, 127
1, 283155, Note_on_c, 6, 66, 127
1, 283296, Note_off_c, 4, 64, 127
1, 283308, Note_on_c, 3, 63, 127
1, 283457, Note_off_c, 3, 63, 127
1, 283461, Note_on_c, 11, 46, 127
1, 283461, Note_on_c, 1, 61, 127
1, 283610, Note_off_c, 1, 61, 127
1, 283613, Note_on_c, 4, 64, 127
1, 283757, Note_off_c, 11, 58, 127
1, 283762, Note_off_c, 4, 64, 127
1, 283766, Note_on_c, 3, 63, 127
1, 283915, Note_off_c, 3, 63, 127
1, 283919, Note_on_c, 1, 61, 127
1, 283996, Note_off_c, 11, 46, 127
1, 284068, Note_off_c, 1, 61, 127
1, 284071, Note_on_c, 12, 47, 127
1, 284071, Note_on_c, 3, 63, 127
1, 284211, Note_off_c, 6, 66, 127
1, 284220, Note_off_c, 3, 63, 127
1, 284224, Note_on_c, 1, 61, 127
1, 284224, Note_on_c, 4, 64, 127
1, 284373, Note_off_c, 4, 64, 127
1, 284373, Note_off_c, 1, 61, 127
1, 284376, Note_on_c, 12, 35, 127
1, 284376, Note_on_c, 12, 59, 127
1, 284376, Note_on_c, 3, 63, 127
1, 284525, Note_off_c, 3, 63, 127
1, 284525, Note_off_c, 12, 59, 127
1, 284529, Note_on_c, 10, 57, 127
1, 284529, Note_on_c, 6, 66, 127
1, 284673, Note_off_c, 12, 47, 127
1, 284678, Note_off_c, 6, 66, 127
1, 284678, Note_off_c, 10, 57, 127
1, 284682, Note_on_c, 7, 55, 127
1, 284682, Note_on_c, 4, 64, 127
1, 284831, Note_off_c, 4, 64, 127
1, 284831, Note_off_c, 7, 55, 127
1, 284834, Note_on_c, 6, 54, 127
1, 284834, Note_on_c, 3, 63, 127
1, 284911, Note_off_c, 12, 35, 127
1, 284983, Note_off_c, 3, 63, 127
1, 284983, Note_off_c, 6, 54, 127
1, 284987, Note_on_c, 4, 40, 127
1, 284987, Note_on_c, 7, 55, 127
1, 284987, Note_on_c, 4, 64, 127
1, 285136, Note_off_c, 4, 64, 127
1, 285140, Note_on_c, 2, 62, 127
1, 285287, Note_off_c, 4, 40, 127
1, 285289, Note_off_c, 2, 62, 127
1, 285292, Note_on_c, 4, 52, 127
1, 285292, Note_on_c, 0, 60, 127
1, 285441, Note_off_c, 0, 60, 127
1, 285441, Note_off_c, 4, 52, 127
1, 285445, Note_on_c, 2, 50, 127
1, 285445, Note_on_c, 12, 59, 127
1, 285594, Note_off_c, 12, 59, 127
1, 285594, Note_off_c, 2, 50, 127
1, 285598, Note_on_c, 0, 48, 127
1, 285598, Note_on_c, 10, 57, 127
1, 285739, Note_off_c, 7, 55, 127
1, 285748, Note_off_c, 10, 57, 127
1, 285748, Note_off_c, 0, 48, 127
1, 285751, Note_on_c, 12, 47, 127
1, 285751, Note_on_c, 7, 55, 127
1, 285900, Note_off_c, 7, 55, 127
1, 285900, Note_off_c, 12, 47, 127
1, 285904, Note_on_c, 10, 45, 127
1, 285904, Note_on_c, 0, 60, 127
1, 285904, Note_on_c, 10, 57, 127
1, 286053, Note_off_c, 10, 45, 127
1, 286057, Note_on_c, 0, 48, 127
1, 286206, Note_off_c, 0, 48, 127
1, 286209, Note_on_c, 4, 52, 127
1, 286358, Note_off_c, 4, 52, 127
1, 286362, Note_on_c, 7, 55, 127
1, 286511, Note_off_c, 7, 55, 127
1, 286514, Note_on_c, 6, 54, 127
1, 286663, Note_off_c, 6, 54, 127
1, 286667, Note_on_c, 4, 52, 127
1, 286809, Note_off_c, 10, 57, 127
1, 286816, Note_off_c, 4, 52, 127
1, 286820, Note_on_c, 6, 54, 127
1, 286820, Note_on_c, 2, 62, 127
1, 286960, Note_off_c, 0, 60, 127
1, 286972, Note_on_c, 10, 57, 127
1, 287120, Note_off_c, 6, 54, 127
1, 287121, Note_off_c, 10, 57, 127
1, 287125, Note_on_c, 7, 43, 127
1, 287125, Note_on_c, 12, 59, 127
1, 287274, Note_off_c, 12, 59, 127
1, 287278, Note_on_c, 7, 55, 127
1, 287427, Note_off_c, 7, 55, 127
1, 287430, Note_on_c, 12, 59, 127
1, 287572, Note_off_c, 2, 62, 127
1, 287580, Note_off_c, 12, 59, 127
1, 287584, Note_on_c, 2, 62, 127
1, 287693, Note_off_c, 7, 43, 127
1, 287737, Note_on_c, 7, 55, 127
1, 287737, Note_on_c, 4, 64, 127
1, 287883, Note_off_c, 2, 62, 127
1, 287889, Note_on_c, 12, 59, 127
1, 288037, Note_off_c, 7, 55, 127
1, 288038, Note_off_c, 12, 59, 127
1, 288042, Note_on_c, 10, 45, 127
1, 288042, Note_on_c, 0, 60, 127
1, 288191, Note_off_c, 0, 60, 127
1, 288195, Note_on_c, 10, 57, 127
1, 288344, Note_off_c, 10, 57, 127
1, 288347, Note_on_c, 0, 60, 127
1, 288489, Note_off_c, 4, 64, 127
1, 288497, Note_off_c, 0, 60, 127
1, 288501, Note_on_c, 4, 64, 127
1, 288610, Note_off_c, 10, 45, 127
1, 288654, Note_on_c, 10, 57, 127
1, 288654, Note_on_c, 6, 66, 127
1, 288800, Note_off_c, 4, 64, 127
1, 288806, Note_on_c, 0, 60, 127
1, 288954, Note_off_c, 10, 57, 127
1, 288955, Note_off_c, 0, 60, 127
1, 288959, Note_on_c, 12, 47, 127
1, 288959, Note_on_c, 2, 62, 127
1, 289108, Note_off_c, 2, 62, 127
1, 289111, Note_on_c, 12, 59, 127
1, 289260, Note_off_c, 12, 59, 127
1, 289264, Note_on_c, 2, 62, 127
1, 289406, Note_off_c, 6, 66, 127
1, 289414, Note_off_c, 2, 62, 127
1, 289418, Note_on_c, 6, 66, 127
1, 289527, Note_off_c, 12, 47, 127
1, 289570, Note_on_c, 12, 59, 127
1, 289570, Note_on_c, 7, 67, 127
1, 289717, Note_off_c, 6, 66, 127
1, 289723, Note_on_c, 3, 63, 127
1, 289870, Note_off_c, 12, 59, 127
1, 289872, Note_off_c, 3, 63, 127
1, 289876, Note_on_c, 0, 48, 127
1, 289876, Note_on_c, 4, 64, 127
1, 290025, Note_off_c, 4, 64, 127
1, 290028, Note_on_c, 0, 60, 127
1, 290177, Note_off_c, 0, 60, 127
1, 290181, Note_on_c, 4, 64, 127
1, 290322, Note_off_c, 7, 67, 127
1, 290331, Note_off_c, 4, 64, 127
1, 290335, Note_on_c, 7, 67, 127
1, 290412, Note_off_c, 0, 48, 127
1, 290487, Note_on_c, 1, 49, 127
1, 290487, Note_on_c, 10, 69, 127
1, 290634, Note_off_c, 7, 67, 127
1, 290640, Note_on_c, 6, 66, 127
1, 290789, Note_off_c, 6, 66, 127
1, 290793, Note_on_c, 1, 37, 127
1, 290793, Note_on_c, 4, 64, 127
1, 290942, Note_off_c, 4, 64, 127
1, 290945, Note_on_c, 7, 67, 127
1, 291088, Note_off_c, 1, 49, 127
1, 291094, Note_off_c, 1, 37, 127
1, 291095, Note_off_c, 7, 67, 127
1, 291099, Note_on_c, 1, 49, 127
1, 291099, Note_on_c, 6, 66, 127
1, 291248, Note_off_c, 6, 66, 127
1, 291252, Note_on_c, 4, 64, 127
1, 291399, Note_off_c, 1, 49, 127
1, 291401, Note_off_c, 4, 64, 127
1, 291404, Note_on_c, 2, 50, 127
1, 291404, Note_on_c, 6, 66, 127
1, 291544, Note_off_c, 10, 69, 127
1, 291553, Note_off_c, 6, 66, 127
1, 291557, Note_on_c, 4, 64, 127
1, 291557, Note_on_c, 7, 67, 127
1, 291706, Note_off_c, 7, 67, 127
1, 291706, Note_off_c, 4, 64, 127
1, 291710, Note_on_c, 2, 38, 127
1, 291710, Note_on_c, 2, 62, 127
1, 291710, Note_on_c, 6, 66, 127
1, 291859, Note_off_c, 6, 66, 127
1, 291859, Note_off_c, 2, 62, 127
1, 291862, Note_on_c, 0, 60, 127
1, 291862, Note_on_c, 10, 69, 127
1, 292005, Note_off_c, 2, 50, 127
1, 292011, Note_off_c, 2, 38, 127
1, 292012, Note_off_c, 10, 69, 127
1, 292012, Note_off_c, 0, 60, 127
1, 292016, Note_on_c, 2, 50, 127
1, 292016, Note_on_c, 12, 59, 127
1, 292016, Note_on_c, 7, 67, 127
1, 292165, Note_off_c, 7, 67, 127
1, 292165, Note_off_c, 12, 59, 127
1, 292169, Note_on_c, 10, 57, 127
1, 292169, Note_on_c, 6, 66, 127
1, 292316, Note_off_c, 2, 50, 127
1, 292318, Note_off_c, 6, 66, 127
1, 292318, Note_off_c, 10, 57, 127
1, 292321, Note_on_c, 7, 43, 127
1, 292321, Note_on_c, 12, 59, 127
1, 292321, Note_on_c, 7, 67, 127
1, 292588, Note_off_c, 7, 43, 127
1, 292658, Note_on_c, 12, 47, 127
1, 292925, Note_off_c, 12, 47, 127
1, 292996, Note_on_c, 2, 50, 127
1, 293227, Note_off_c, 7, 67, 127
1, 293227, Note_off_c, 12, 59, 127
1, 293263, Note_off_c, 2, 50, 127
1, 293350, Note_on_c, 12, 71, 127
1, 293350, Note_on_c, 7, 55, 127
1, 293409, Note_off_c, 7, 55, 127
1, 293412, Note_on_c, 6, 54, 127
1, 293471, Note_off_c, 6, 54, 127
1, 293473, Note_on_c, 7, 55, 127
1, 293755, Note_off_c, 12, 71, 127
1, 293760, Note_on_c, 10, 69, 127
1, 293837, Note_off_c, 7, 55, 127
1, 293839, Note_off_c, 10, 69, 127
1, 293842, Note_on_c, 12, 71, 127
1, 293842, Note_on_c, 7, 43, 127
1, 294085, Note_off_c, 7, 43, 127
1, 294085, Note_off_c, 12, 71, 127
1, 294089, Note_on_c, 2, 62, 127
1, 294089, Note_on_c, 7, 55, 127
1, 294148, Note_off_c, 7, 55, 127
1, 294150, Note_on_c, 6, 54, 127
1, 294209, Note_off_c, 6, 54, 127
1, 294212, Note_on_c, 7, 55, 127
1, 294494, Note_off_c, 2, 62, 127
1, 294499, Note_on_c, 7, 67, 127
1, 294578, Note_off_c, 7, 67, 127
1, 294581, Note_on_c, 12, 71, 127
1, 294824, Note_off_c, 12, 71, 127
1, 294828, Note_on_c, 12, 71, 127
1, 294948, Note_off_c, 12, 71, 127
1, 294951, Note_on_c, 10, 69, 127
1, 295010, Note_off_c, 10, 69, 127
1, 295012, Note_on_c, 12, 71, 127
1, 295071, Note_off_c, 12, 71, 127
1, 295074, Note_on_c, 10, 69, 127
1, 295194, Note_off_c, 10, 69, 127
1, 295197, Note_on_c, 7, 67, 127
1, 295317, Note_off_c, 7, 67, 127
1, 295320, Note_on_c, 10, 69, 127
1, 295552, Note_off_c, 7, 55, 127
1, 295563, Note_off_c, 10, 69, 127
1, 295567, Note_on_c, 2, 74, 127
1, 295567, Note_on_c, 7, 55, 127
1, 295687, Note_off_c, 7, 55, 127
1, 295689, Note_on_c, 6, 54, 127
1, 295748, Note_off_c, 6, 54, 127
1, 295751, Note_on_c, 7, 55, 127
1, 295810, Note_off_c, 7, 55, 127
1, 295812, Note_on_c, 6, 54, 127
1, 295932, Note_off_c, 6, 54, 127
1, 295935, Note_on_c, 4, 52, 127
1, 296055, Note_off_c, 4, 52, 127
1, 296058, Note_on_c, 2, 50, 127
1, 296297, Note_off_c, 2, 74, 127
1, 296301, Note_off_c, 2, 50, 127
1, 296305, Note_on_c, 7, 79, 127
1, 296305, Note_on_c, 4, 52, 127
1, 296364, Note_off_c, 7, 79, 127
1, 296367, Note_on_c, 6, 78, 127
1, 296426, Note_off_c, 6, 78, 127
1, 296428, Note_on_c, 7, 79, 127
1, 296711, Note_off_c, 7, 79, 127
1, 296716, Note_on_c, 6, 78, 127
1, 296791, Note_off_c, 4, 52, 127
1, 296795, Note_off_c, 6, 78, 127
1, 296797, Note_on_c, 7, 79, 127
1, 296797, Note_on_c, 2, 62, 127
1, 297040, Note_off_c, 2, 62, 127
1, 297040, Note_off_c, 7, 79, 127
1, 297044, Note_on_c, 10, 69, 127
1, 297044, Note_on_c, 1, 61, 127
1, 297450, Note_off_c, 10, 69, 127
1, 297455, Note_on_c, 4, 76, 127
1, 297531, Note_off_c, 1, 61, 127
1, 297534, Note_off_c, 4, 76, 127
1, 297537, Note_on_c, 7, 79, 127
1, 297537, Note_on_c, 10, 57, 127
1, 297780, Note_off_c, 10, 57, 127
1, 297780, Note_off_c, 7, 79, 127
1, 297784, Note_on_c, 7, 79, 127
1, 297784, Note_on_c, 2, 62, 127
1, 297904, Note_off_c, 7, 79, 127
1, 297907, Note_on_c, 6, 78, 127
1, 297966, Note_off_c, 6, 78, 127
1, 297968, Note_on_c, 7, 79, 127
1, 298027, Note_off_c, 7, 79, 127
1, 298030, Note_on_c, 6, 78, 127
1, 298150, Note_off_c, 6, 78, 127
1, 298153, Note_on_c, 4, 76, 127
1, 298273, Note_off_c, 4, 76, 127
1, 298276, Note_on_c, 6, 78, 127
1, 298519, Note_off_c, 6, 78, 127
1, 298523, Note_on_c, 2, 74, 127
1, 298922, Note_off_c, 2, 62, 127
1, 298934, Note_on_c, 4, 64, 127
1, 299013, Note_off_c, 4, 64, 127
1, 299016, Note_on_c, 0, 60, 127
1, 299259, Note_off_c, 0, 60, 127
1, 299263, Note_on_c, 12, 59, 127
1, 299669, Note_off_c, 12, 59, 127
1, 299674, Note_on_c, 0, 60, 127
1, 299743, Note_off_c, 2, 74, 127
1, 299753, Note_off_c, 0, 60, 127
1, 299756, Note_on_c, 4, 76, 127
1, 299756, Note_on_c, 10, 57, 127
1, 299815, Note_off_c, 4, 76, 127
1, 299817, Note_on_c, 6, 78, 127
1, 299876, Note_off_c, 6, 78, 127
1, 299879, Note_on_c, 7, 79, 127
1, 299938, Note_off_c, 7, 79, 127
1, 299940, Note_on_c, 10, 81, 127
1, 299998, Note_off_c, 10, 57, 127
1, 299999, Note_off_c, 10, 81, 127
1, 300002, Note_on_c, 12, 83, 127
1, 300002, Note_on_c, 7, 55, 127
1, 300408, Note_off_c, 7, 55, 127
1, 300408, Note_off_c, 12, 83, 127
1, 300413, Note_on_c, 7, 79, 127
1, 300413, Note_on_c, 10, 57, 127
1, 300492, Note_off_c, 10, 57, 127
1, 300492, Note_off_c, 7, 79, 127
1, 300494, Note_on_c, 2, 74, 127
1, 300494, Note_on_c, 12, 59, 127
1, 300737, Note_off_c, 12, 59, 127
1, 300737, Note_off_c, 2, 74, 127
1, 300741, Note_on_c, 4, 76, 127
1, 300741, Note_on_c, 0, 60, 127
1, 301147, Note_off_c, 0, 60, 127
1, 301153, Note_on_c, 2, 62, 127
1, 301228, Note_off_c, 4, 76, 127
1, 301232, Note_off_c, 2, 62, 127
1, 301234, Note_on_c, 6, 78, 127
1, 301234, Note_on_c, 12, 59, 127
1, 301293, Note_off_c, 6, 78, 127
1, 301296, Note_on_c, 7, 79, 127
1, 301355, Note_off_c, 7, 79, 127
1, 301357, Note_on_c, 10, 81, 127
1, 301416, Note_off_c, 10, 81, 127
1, 301419, Note_on_c, 12, 83, 127
1, 301476, Note_off_c, 12, 59, 127
1, 301478, Note_off_c, 12, 83, 127
1, 301480, Note_on_c, 0, 84, 127
1, 301480, Note_on_c, 10, 57, 127
1, 301886, Note_off_c, 10, 57, 127
1, 301886, Note_off_c, 0, 84, 127
1, 301892, Note_on_c, 10, 81, 127
1, 301892, Note_on_c, 12, 59, 127
1, 301971, Note_off_c, 12, 59, 127
1, 301971, Note_off_c, 10, 81, 127
1, 301973, Note_on_c, 4, 76, 127
1, 301973, Note_on_c, 0, 60, 127
1, 302216, Note_off_c, 0, 60, 127
1, 302216, Note_off_c, 4, 76, 127
1, 302220, Note_on_c, 6, 78, 127
1, 302220, Note_on_c, 2, 62, 127
1, 302626, Note_off_c, 2, 62, 127
1, 302626, Note_off_c, 6, 78, 127
1, 302631, Note_on_c, 2, 74, 127
1, 302631, Note_on_c, 0, 60, 127
1, 302710, Note_off_c, 0, 60, 127
1, 302710, Note_off_c, 2, 74, 127
1, 302713, Note_on_c, 7, 79, 127
1, 302713, Note_on_c, 12, 59, 127
1, 302956, Note_off_c, 12, 59, 127
1, 302956, Note_off_c, 7, 79, 127
1, 302960, Note_on_c, 10, 69, 127
1, 302960, Note_on_c, 0, 60, 127
1, 303366, Note_off_c, 10, 69, 127
1, 303371, Note_on_c, 12, 71, 127
1, 303447, Note_off_c, 0, 60, 127
1, 303450, Note_off_c, 12, 71, 127
1, 303453, Note_on_c, 0, 72, 127
1, 303453, Note_on_c, 2, 62, 127
1, 303696, Note_off_c, 2, 62, 127
1, 303696, Note_off_c, 0, 72, 127
1, 303700, Note_on_c, 0, 72, 127
1, 303700, Note_on_c, 7, 55, 127
1, 304106, Note_off_c, 7, 55, 127
1, 304111, Note_on_c, 6, 54, 127
1, 304187, Note_off_c, 0, 72, 127
1, 304190, Note_off_c, 6, 54, 127
1, 304193, Note_on_c, 12, 71, 127
1, 304193, Note_on_c, 7, 55, 127
1, 304436, Note_off_c, 7, 55, 127
1, 304440, Note_on_c, 2, 50, 127
1, 304778, Note_off_c, 12, 71, 127
1, 304805, Note_off_c, 2, 50, 127
1, 304810, Note_on_c, 10, 69, 127
1, 304810, Note_on_c, 10, 57, 127
1, 304930, Note_off_c, 10, 57, 127
1, 304930, Note_off_c, 10, 69, 127
1, 304933, Note_on_c, 7, 67, 127
1, 304933, Note_on_c, 0, 60, 127
1, 305053, Note_off_c, 7, 67, 127
1, 305056, Note_on_c, 6, 66, 127
1, 305175, Note_off_c, 0, 60, 127
1, 305176, Note_off_c, 6, 66, 127
1, 305179, Note_on_c, 7, 67, 127
1, 305179, Note_on_c, 0, 60, 127
1, 305299, Note_off_c, 0, 60, 127
1, 305302, Note_on_c, 12, 59, 127
1, 305361, Note_off_c, 12, 59, 127
1, 305363, Note_on_c, 0, 60, 127
1, 305422, Note_off_c, 0, 60, 127
1, 305425, Note_on_c, 12, 59, 127
1, 305545, Note_off_c, 12, 59, 127
1, 305547, Note_on_c, 10, 57, 127
1, 305665, Note_off_c, 7, 67, 127
1, 305667, Note_off_c, 10, 57, 127
1, 305670, Note_on_c, 2, 74, 127
1, 305670, Note_on_c, 12, 59, 127
1, 305913, Note_off_c, 12, 59, 127
1, 305913, Note_off_c, 2, 74, 127
1, 305917, Note_on_c, 7, 79, 127
1, 305917, Note_on_c, 4, 52, 127
1, 305976, Note_off_c, 7, 79, 127
1, 305979, Note_on_c, 6, 78, 127
1, 306038, Note_off_c, 6, 78, 127
1, 306040, Note_on_c, 7, 79, 127
1, 306322, Note_off_c, 4, 52, 127
1, 306328, Note_on_c, 12, 59, 127
1, 306407, Note_off_c, 12, 59, 127
1, 306409, Note_on_c, 2, 62, 127
1, 306652, Note_off_c, 2, 62, 127
1, 306656, Note_on_c, 2, 62, 127
1, 306715, Note_off_c, 2, 62, 127
1, 306718, Note_on_c, 1, 61, 127
1, 306777, Note_off_c, 1, 61, 127
1, 306779, Note_on_c, 2, 62, 127
1, 306838, Note_off_c, 2, 62, 127
1, 306841, Note_on_c, 1, 61, 127
1, 306892, Note_off_c, 7, 79, 127
1, 306902, Note_on_c, 10, 81, 127
1, 307022, Note_off_c, 10, 81, 127
1, 307022, Note_off_c, 1, 61, 127
1, 307025, Note_on_c, 7, 79, 127
1, 307025, Note_on_c, 12, 59, 127
1, 307145, Note_off_c, 12, 59, 127
1, 307145, Note_off_c, 7, 79, 127
1, 307148, Note_on_c, 6, 78, 127
1, 307148, Note_on_c, 10, 57, 127
1, 307268, Note_off_c, 6, 78, 127
1, 307271, Note_on_c, 4, 76, 127
1, 307390, Note_off_c, 10, 57, 127
1, 307391, Note_off_c, 4, 76, 127
1, 307394, Note_on_c, 6, 78, 127
1, 307394, Note_on_c, 2, 62, 127
1, 307453, Note_off_c, 6, 78, 127
1, 307455, Note_on_c, 4, 76, 127
1, 307514, Note_off_c, 4, 76, 127
1, 307517, Note_on_c, 6, 78, 127
1, 307576, Note_off_c, 6, 78, 127
1, 307578, Note_on_c, 4, 76, 127
1, 307637, Note_off_c, 4, 76, 127
1, 307640, Note_on_c, 6, 78, 127
1, 307799, Note_off_c, 2, 62, 127
1, 307804, Note_on_c, 1, 61, 127
1, 307883, Note_off_c, 1, 61, 127
1, 307886, Note_on_c, 2, 62, 127
1, 308129, Note_off_c, 2, 62, 127
1, 308133, Note_on_c, 7, 55, 127
1, 308534, Note_off_c, 6, 78, 127
1, 308539, Note_off_c, 7, 55, 127
1, 308544, Note_on_c, 7, 79, 127
1, 308544, Note_on_c, 12, 59, 127
1, 308623, Note_off_c, 12, 59, 127
1, 308623, Note_off_c, 7, 79, 127
1, 308626, Note_on_c, 6, 78, 127
1, 308626, Note_on_c, 2, 62, 127
1, 308869, Note_off_c, 2, 62, 127
1, 308869, Note_off_c, 6, 78, 127
1, 308873, Note_on_c, 4, 76, 127
1, 308873, Note_on_c, 7, 67, 127
1, 309279, Note_off_c, 4, 76, 127
1, 309284, Note_on_c, 1, 73, 127
1, 309363, Note_off_c, 1, 73, 127
1, 309366, Note_on_c, 2, 74, 127
1, 309609, Note_off_c, 2, 74, 127
1, 309613, Note_on_c, 1, 73, 127
1, 309849, Note_off_c, 7, 67, 127
1, 309860, Note_on_c, 10, 69, 127
1, 309978, Note_off_c, 1, 73, 127
1, 309980, Note_off_c, 10, 69, 127
1, 309983, Note_on_c, 2, 74, 127
1, 309983, Note_on_c, 7, 67, 127
1, 310103, Note_off_c, 7, 67, 127
1, 310103, Note_off_c, 2, 74, 127
1, 310105, Note_on_c, 4, 76, 127
1, 310105, Note_on_c, 6, 66, 127
1, 310225, Note_off_c, 6, 66, 127
1, 310228, Note_on_c, 4, 64, 127
1, 310347, Note_off_c, 4, 76, 127
1, 310348, Note_off_c, 4, 64, 127
1, 310351, Note_on_c, 10, 69, 127
1, 310351, Note_on_c, 6, 66, 127
1, 310757, Note_off_c, 6, 66, 127
1, 310763, Note_on_c, 7, 67, 127
1, 310835, Note_off_c, 10, 69, 127
1, 310843, Note_off_c, 7, 67, 127
1, 310845, Note_on_c, 10, 69, 127
1, 311092, Note_on_c, 2, 62, 127
1, 311498, Note_off_c, 2, 62, 127
1, 311504, Note_on_c, 10, 57, 127
1, 311576, Note_off_c, 10, 69, 127
1, 311583, Note_off_c, 10, 57, 127
1, 311585, Note_on_c, 12, 71, 127
1, 311585, Note_on_c, 6, 54, 127
1, 311644, Note_off_c, 12, 71, 127
1, 311647, Note_on_c, 1, 73, 127
1, 311706, Note_off_c, 1, 73, 127
1, 311708, Note_on_c, 2, 74, 127
1, 311767, Note_off_c, 2, 74, 127
1, 311770, Note_on_c, 4, 76, 127
1, 311827, Note_off_c, 6, 54, 127
1, 311829, Note_off_c, 4, 76, 127
1, 311831, Note_on_c, 6, 78, 127
1, 311831, Note_on_c, 2, 50, 127
1, 312237, Note_off_c, 2, 50, 127
1, 312237, Note_off_c, 6, 78, 127
1, 312242, Note_on_c, 2, 74, 127
1, 312242, Note_on_c, 4, 52, 127
1, 312321, Note_off_c, 4, 52, 127
1, 312321, Note_off_c, 2, 74, 127
1, 312324, Note_on_c, 10, 69, 127
1, 312324, Note_on_c, 6, 54, 127
1, 312567, Note_off_c, 6, 54, 127
1, 312567, Note_off_c, 10, 69, 127
1, 312571, Note_on_c, 12, 71, 127
1, 312571, Note_on_c, 7, 55, 127
1, 312977, Note_off_c, 7, 55, 127
1, 312982, Note_on_c, 10, 57, 127
1, 313058, Note_off_c, 12, 71, 127
1, 313061, Note_off_c, 10, 57, 127
1, 313064, Note_on_c, 1, 73, 127
1, 313064, Note_on_c, 6, 54, 127
1, 313123, Note_off_c, 1, 73, 127
1, 313125, Note_on_c, 2, 74, 127
1, 313184, Note_off_c, 2, 74, 127
1, 313187, Note_on_c, 4, 76, 127
1, 313246, Note_off_c, 4, 76, 127
1, 313248, Note_on_c, 6, 78, 127
1, 313306, Note_off_c, 6, 54, 127
1, 313307, Note_off_c, 6, 78, 127
1, 313310, Note_on_c, 7, 79, 127
1, 313310, Note_on_c, 4, 52, 127
1, 313716, Note_off_c, 4, 52, 127
1, 313716, Note_off_c, 7, 79, 127
1, 313721, Note_on_c, 4, 76, 127
1, 313721, Note_on_c, 6, 54, 127
1, 313800, Note_off_c, 6, 54, 127
1, 313800, Note_off_c, 4, 76, 127
1, 313803, Note_on_c, 12, 71, 127
1, 313803, Note_on_c, 7, 55, 127
1, 314046, Note_off_c, 7, 55, 127
1, 314046, Note_off_c, 12, 71, 127
1, 314050, Note_on_c, 1, 73, 127
1, 314050, Note_on_c, 10, 57, 127
1, 314456, Note_off_c, 10, 57, 127
1, 314456, Note_off_c, 1, 73, 127
1, 314461, Note_on_c, 10, 69, 127
1, 314461, Note_on_c, 7, 55, 127
1, 314540, Note_off_c, 7, 55, 127
1, 314540, Note_off_c, 10, 69, 127
1, 314543, Note_on_c, 10, 81, 127
1, 314543, Note_on_c, 6, 54, 127
1, 314786, Note_off_c, 6, 54, 127
1, 314786, Note_off_c, 10, 81, 127
1, 314790, Note_on_c, 2, 74, 127
1, 314790, Note_on_c, 12, 59, 127
1, 315196, Note_off_c, 12, 59, 127
1, 315196, Note_off_c, 2, 74, 127
1, 315201, Note_on_c, 4, 76, 127
1, 315201, Note_on_c, 7, 55, 127
1, 315280, Note_off_c, 7, 55, 127
1, 315280, Note_off_c, 4, 76, 127
1, 315283, Note_on_c, 1, 73, 127
1, 315283, Note_on_c, 10, 57, 127
1, 315526, Note_off_c, 10, 57, 127
1, 315526, Note_off_c, 1, 73, 127
1, 315530, Note_on_c, 1, 73, 127
1, 315530, Note_on_c, 2, 50, 127
1, 315936, Note_off_c, 2, 50, 127
1, 315941, Note_on_c, 6, 54, 127
1, 316017, Note_off_c, 1, 73, 127
1, 316020, Note_off_c, 6, 54, 127
1, 316022, Note_on_c, 2, 74, 127
1, 316022, Note_on_c, 10, 57, 127
1, 316265, Note_off_c, 10, 57, 127
1, 316285, Note_on_c, 2, 62, 127
1, 316591, Note_off_c, 2, 74, 127
1, 316614, Note_on_c, 4, 76, 127
1, 316693, Note_off_c, 4, 76, 127
1, 316696, Note_on_c, 2, 74, 127
1, 316775, Note_off_c, 2, 74, 127
1, 316777, Note_on_c, 1, 73, 127
1, 316856, Note_off_c, 1, 73, 127
1, 316859, Note_on_c, 2, 74, 127
1, 316938, Note_off_c, 2, 74, 127
1, 316945, Note_on_c, 4, 76, 127
1, 317006, Note_off_c, 2, 62, 127
1, 317024, Note_off_c, 4, 76, 127
1, 317038, Note_on_c, 6, 78, 127
1, 317038, Note_on_c, 2, 62, 127
1, 317444, Note_off_c, 6, 78, 127
1, 317449, Note_on_c, 4, 76, 127
1, 317525, Note_off_c, 2, 62, 127
1, 317528, Note_off_c, 4, 76, 127
1, 317531, Note_on_c, 6, 78, 127
1, 317531, Note_on_c, 2, 50, 127
1, 317774, Note_off_c, 2, 50, 127
1, 317774, Note_off_c, 6, 78, 127
1, 317778, Note_on_c, 10, 69, 127
1, 317778, Note_on_c, 2, 62, 127
1, 318184, Note_off_c, 10, 69, 127
1, 318189, Note_on_c, 2, 74, 127
1, 318265, Note_off_c, 2, 62, 127
1, 318268, Note_off_c, 2, 74, 127
1, 318271, Note_on_c, 6, 78, 127
1, 318271, Note_on_c, 0, 60, 127
1, 318514, Note_off_c, 0, 60, 127
1, 318514, Note_off_c, 6, 78, 127
1, 318518, Note_on_c, 7, 79, 127
1, 318518, Note_on_c, 0, 60, 127
1, 318638, Note_off_c, 0, 60, 127
1, 318641, Note_on_c, 12, 59, 127
1, 318700, Note_off_c, 12, 59, 127
1, 318702, Note_on_c, 0, 60, 127
1, 318761, Note_off_c, 0, 60, 127
1, 318764, Note_on_c, 12, 59, 127
1, 318882, Note_off_c, 7, 79, 127
1, 318884, Note_off_c, 12, 59, 127
1, 318887, Note_on_c, 6, 78, 127
1, 318887, Note_on_c, 10, 57, 127
1, 319007, Note_off_c, 10, 57, 127
1, 319007, Note_off_c, 6, 78, 127
1, 319010, Note_on_c, 7, 79, 127
1, 319010, Note_on_c, 12, 59, 127
1, 319253, Note_off_c, 12, 59, 127
1, 319253, Note_off_c, 7, 79, 127
1, 319257, Note_on_c, 12, 83, 127
1, 319257, Note_on_c, 7, 55, 127
1, 319663, Note_off_c, 7, 55, 127
1, 319668, Note_on_c, 10, 57, 127
1, 319747, Note_off_c, 10, 57, 127
1, 319750, Note_on_c, 12, 59, 127
1, 319867, Note_off_c, 12, 83, 127
1, 319992, Note_off_c, 12, 59, 127
1, 319995, Note_on_c, 4, 76, 127
1, 319995, Note_on_c, 0, 60, 127
1, 320401, Note_off_c, 0, 60, 127
1, 320407, Note_on_c, 2, 62, 127
1, 320482, Note_off_c, 4, 76, 127
1, 320486, Note_off_c, 2, 62, 127
1, 320488, Note_on_c, 6, 78, 127
1, 320488, Note_on_c, 12, 59, 127
1, 320547, Note_off_c, 6, 78, 127
1, 320550, Note_on_c, 7, 79, 127
1, 320609, Note_off_c, 7, 79, 127
1, 320611, Note_on_c, 10, 81, 127
1, 320670, Note_off_c, 10, 81, 127
1, 320673, Note_on_c, 12, 83, 127
1, 320730, Note_off_c, 12, 59, 127
1, 320732, Note_off_c, 12, 83, 127
1, 320734, Note_on_c, 0, 84, 127
1, 320734, Note_on_c, 10, 57, 127
1, 320854, Note_off_c, 0, 84, 127
1, 320857, Note_on_c, 12, 83, 127
1, 320977, Note_off_c, 12, 83, 127
1, 320980, Note_on_c, 10, 81, 127
1, 321098, Note_off_c, 10, 57, 127
1, 321100, Note_off_c, 10, 81, 127
1, 321103, Note_on_c, 7, 79, 127
1, 321103, Note_on_c, 12, 59, 127
1, 321223, Note_off_c, 12, 59, 127
1, 321223, Note_off_c, 7, 79, 127
1, 321226, Note_on_c, 6, 78, 127
1, 321226, Note_on_c, 0, 60, 127
1, 321346, Note_off_c, 6, 78, 127
1, 321349, Note_on_c, 4, 76, 127
1, 321462, Note_off_c, 4, 76, 127
1, 321468, Note_off_c, 0, 60, 127
1, 321472, Note_on_c, 4, 76, 127
1, 321472, Note_on_c, 12, 59, 127
1, 321592, Note_off_c, 4, 76, 127
1, 321595, Note_on_c, 3, 75, 127
1, 321654, Note_off_c, 3, 75, 127
1, 321657, Note_on_c, 4, 76, 127
1, 321716, Note_off_c, 4, 76, 127
1, 321718, Note_on_c, 3, 75, 127
1, 321838, Note_off_c, 3, 75, 127
1, 321841, Note_on_c, 1, 73, 127
1, 321958, Note_off_c, 12, 59, 127
1, 321961, Note_off_c, 1, 73, 127
1, 321964, Note_on_c, 3, 75, 127
1, 321964, Note_on_c, 12, 47, 127
1, 322207, Note_off_c, 12, 47, 127
1, 322207, Note_off_c, 3, 75, 127
1, 322211, Note_on_c, 12, 71, 127
1, 322211, Note_on_c, 12, 59, 127
1, 322617, Note_off_c, 12, 59, 127
1, 322622, Note_on_c, 10, 57, 127
1, 322701, Note_off_c, 10, 57, 127
1, 322704, Note_on_c, 12, 59, 127
1, 322947, Note_off_c, 12, 59, 127
1, 322951, Note_on_c, 7, 55, 127
1, 323187, Note_off_c, 12, 71, 127
1, 323198, Note_on_c, 12, 83, 127
1, 323439, Note_off_c, 7, 55, 127
1, 323441, Note_off_c, 12, 83, 127
1, 323445, Note_on_c, 6, 78, 127
1, 323445, Note_on_c, 10, 57, 127
1, 323504, Note_off_c, 10, 57, 127
1, 323506, Note_on_c, 12, 59, 127
1, 323565, Note_off_c, 12, 59, 127
1, 323568, Note_on_c, 1, 61, 127
1, 323627, Note_off_c, 1, 61, 127
1, 323629, Note_on_c, 3, 63, 127
1, 323687, Note_off_c, 6, 78, 127
1, 323688, Note_off_c, 3, 63, 127
1, 323691, Note_on_c, 7, 79, 127
1, 323691, Note_on_c, 4, 64, 127
1, 324097, Note_off_c, 4, 64, 127
1, 324097, Note_off_c, 7, 79, 127
1, 324102, Note_on_c, 3, 75, 127
1, 324102, Note_on_c, 12, 59, 127
1, 324181, Note_off_c, 12, 59, 127
1, 324181, Note_off_c, 3, 75, 127
1, 324184, Note_on_c, 4, 76, 127
1, 324184, Note_on_c, 7, 55, 127
1, 324427, Note_off_c, 7, 55, 127
1, 324427, Note_off_c, 4, 76, 127
1, 324431, Note_on_c, 0, 72, 127
1, 324431, Note_on_c, 10, 57, 127
1, 324674, Note_off_c, 0, 72, 127
1, 324678, Note_on_c, 4, 76, 127
1, 324919, Note_off_c, 10, 57, 127
1, 324921, Note_off_c, 4, 76, 127
1, 324924, Note_on_c, 8, 80, 127
1, 324924, Note_on_c, 12, 59, 127
1, 324983, Note_off_c, 12, 59, 127
1, 324986, Note_on_c, 0, 60, 127
1, 325045, Note_off_c, 0, 60, 127
1, 325047, Note_on_c, 2, 62, 127
1, 325106, Note_off_c, 2, 62, 127
1, 325109, Note_on_c, 4, 64, 127
1, 325166, Note_off_c, 8, 80, 127
1, 325168, Note_off_c, 4, 64, 127
1, 325170, Note_on_c, 10, 81, 127
1, 325170, Note_on_c, 5, 65, 127
1, 325576, Note_off_c, 5, 65, 127
1, 325582, Note_on_c, 4, 64, 127
1, 325657, Note_off_c, 10, 81, 127
1, 325661, Note_off_c, 4, 64, 127
1, 325663, Note_on_c, 12, 83, 127
1, 325663, Note_on_c, 3, 63, 127
1, 325722, Note_off_c, 12, 83, 127
1, 325725, Note_on_c, 10, 81, 127
1, 325784, Note_off_c, 10, 81, 127
1, 325786, Note_on_c, 7, 79, 127
1, 325845, Note_off_c, 7, 79, 127
1, 325848, Note_on_c, 6, 78, 127
1, 325905, Note_off_c, 3, 63, 127
1, 325907, Note_off_c, 6, 78, 127
1, 325909, Note_on_c, 7, 79, 127
1, 325909, Note_on_c, 4, 64, 127
1, 326315, Note_off_c, 7, 79, 127
1, 326321, Note_on_c, 10, 81, 127
1, 326396, Note_off_c, 4, 64, 127
1, 326400, Note_off_c, 10, 81, 127
1, 326402, Note_on_c, 12, 83, 127
1, 326402, Note_on_c, 7, 55, 127
1, 326645, Note_off_c, 7, 55, 127
1, 326645, Note_off_c, 12, 83, 127
1, 326649, Note_on_c, 4, 76, 127
1, 326649, Note_on_c, 0, 60, 127
1, 327055, Note_off_c, 0, 60, 127
1, 327055, Note_off_c, 4, 76, 127
1, 327060, Note_on_c, 6, 78, 127
1, 327060, Note_on_c, 10, 57, 127
1, 327139, Note_off_c, 10, 57, 127
1, 327139, Note_off_c, 6, 78, 127
1, 327142, Note_on_c, 3, 75, 127
1, 327142, Note_on_c, 12, 59, 127
1, 327385, Note_off_c, 12, 59, 127
1, 327385, Note_off_c, 3, 75, 127
1, 327389, Note_on_c, 4, 76, 127
1, 327389, Note_on_c, 4, 52, 127
1, 327795, Note_off_c, 4, 76, 127
1, 327800, Note_on_c, 12, 71, 127
1, 327879, Note_off_c, 12, 71, 127
1, 327882, Note_on_c, 7, 67, 127
1, 328125, Note_off_c, 7, 67, 127
1, 328129, Note_on_c, 4, 64, 127
1, 328525, Note_off_c, 4, 64, 127
1, 328527, Note_off_c, 4, 52, 127
1, 328539, Note_on_c, 4, 64, 127
1, 328618, Note_off_c, 4, 64, 127
1, 328621, Note_on_c, 12, 71, 127
1, 328621, Note_on_c, 2, 62, 127
1, 328864, Note_off_c, 2, 62, 127
1, 328864, Note_off_c, 12, 71, 127
1, 328868, Note_on_c, 12, 71, 127
1, 328868, Note_on_c, 2, 62, 127
1, 328927, Note_off_c, 2, 62, 127
1, 328929, Note_on_c, 0, 60, 127
1, 328988, Note_off_c, 0, 60, 127
1, 328991, Note_on_c, 2, 62, 127
1, 329050, Note_off_c, 2, 62, 127
1, 329052, Note_on_c, 0, 60, 127
1, 329273, Note_off_c, 12, 71, 127
1, 329274, Note_off_c, 0, 60, 127
1, 329278, Note_on_c, 8, 68, 127
1, 329278, Note_on_c, 12, 59, 127
1, 329357, Note_off_c, 12, 59, 127
1, 329357, Note_off_c, 8, 68, 127
1, 329360, Note_on_c, 10, 69, 127
1, 329360, Note_on_c, 0, 60, 127
1, 329603, Note_off_c, 0, 60, 127
1, 329603, Note_off_c, 10, 69, 127
1, 329607, Note_on_c, 2, 74, 127
1, 329607, Note_on_c, 8, 56, 127
1, 329850, Note_off_c, 2, 74, 127
1, 329853, Note_on_c, 4, 76, 127
1, 329972, Note_off_c, 8, 56, 127
1, 329973, Note_off_c, 4, 76, 127
1, 329976, Note_on_c, 2, 74, 127
1, 329976, Note_on_c, 12, 59, 127
1, 330096, Note_off_c, 12, 59, 127
1, 330096, Note_off_c, 2, 74, 127
1, 330099, Note_on_c, 0, 72, 127
1, 330099, Note_on_c, 4, 52, 127
1, 330219, Note_off_c, 0, 72, 127
1, 330222, Note_on_c, 12, 71, 127
1, 330341, Note_off_c, 4, 52, 127
1, 330342, Note_off_c, 12, 71, 127
1, 330345, Note_on_c, 0, 72, 127
1, 330345, Note_on_c, 10, 57, 127
1, 330751, Note_off_c, 10, 57, 127
1, 330751, Note_off_c, 0, 72, 127
1, 330757, Note_on_c, 4, 76, 127
1, 330757, Note_on_c, 0, 60, 127
1, 330836, Note_off_c, 0, 60, 127
1, 330836, Note_off_c, 4, 76, 127
1, 330838, Note_on_c, 2, 74, 127
1, 330838, Note_on_c, 12, 59, 127
1, 331081, Note_off_c, 12, 59, 127
1, 331081, Note_off_c, 2, 74, 127
1, 331085, Note_on_c, 4, 76, 127
1, 331085, Note_on_c, 0, 60, 127
1, 331491, Note_off_c, 0, 60, 127
1, 331491, Note_off_c, 4, 76, 127
1, 331496, Note_on_c, 7, 79, 127
1, 331496, Note_on_c, 12, 59, 127
1, 331575, Note_off_c, 12, 59, 127
1, 331575, Note_off_c, 7, 79, 127
1, 331578, Note_on_c, 6, 78, 127
1, 331578, Note_on_c, 10, 57, 127
1, 331821, Note_off_c, 10, 57, 127
1, 331825, Note_on_c, 12, 59, 127
1, 331943, Note_off_c, 6, 78, 127
1, 331948, Note_on_c, 7, 79, 127
1, 332068, Note_off_c, 7, 79, 127
1, 332071, Note_on_c, 10, 81, 127
1, 332189, Note_off_c, 12, 59, 127
1, 332191, Note_off_c, 10, 81, 127
1, 332194, Note_on_c, 7, 79, 127
1, 332194, Note_on_c, 4, 64, 127
1, 332314, Note_off_c, 4, 64, 127
1, 332314, Note_off_c, 7, 79, 127
1, 332317, Note_on_c, 6, 78, 127
1, 332317, Note_on_c, 2, 62, 127
1, 332437, Note_off_c, 6, 78, 127
1, 332440, Note_on_c, 4, 76, 127
1, 332559, Note_off_c, 2, 62, 127
1, 332560, Note_off_c, 4, 76, 127
1, 332563, Note_on_c, 10, 81, 127
1, 332563, Note_on_c, 2, 62, 127
1, 332622, Note_off_c, 2, 62, 127
1, 332624, Note_on_c, 1, 61, 127
1, 332683, Note_off_c, 1, 61, 127
1, 332686, Note_on_c, 2, 62, 127
1, 332745, Note_off_c, 2, 62, 127
1, 332747, Note_on_c, 1, 61, 127
1, 332968, Note_off_c, 10, 81, 127
1, 332969, Note_off_c, 1, 61, 127
1, 332973, Note_on_c, 12, 83, 127
1, 332973, Note_on_c, 12, 59, 127
1, 333052, Note_off_c, 12, 59, 127
1, 333052, Note_off_c, 12, 83, 127
1, 333055, Note_on_c, 7, 79, 127
1, 333055, Note_on_c, 1, 61, 127
1, 333298, Note_off_c, 1, 61, 127
1, 333298, Note_off_c, 7, 79, 127
1, 333302, Note_on_c, 7, 79, 127
1, 333302, Note_on_c, 2, 62, 127
1, 333422, Note_off_c, 7, 79, 127
1, 333425, Note_on_c, 6, 78, 127
1, 333484, Note_off_c, 6, 78, 127
1, 333486, Note_on_c, 7, 79, 127
1, 333545, Note_off_c, 7, 79, 127
1, 333548, Note_on_c, 6, 78, 127
1, 333668, Note_off_c, 6, 78, 127
1, 333671, Note_on_c, 4, 76, 127
1, 333791, Note_off_c, 4, 76, 127
1, 333794, Note_on_c, 6, 78, 127
1, 334037, Note_off_c, 6, 78, 127
1, 334040, Note_on_c, 2, 74, 127
1, 334440, Note_off_c, 2, 62, 127
1, 334452, Note_on_c, 4, 64, 127
1, 334531, Note_off_c, 4, 64, 127
1, 334533, Note_on_c, 0, 60, 127
1, 334776, Note_off_c, 0, 60, 127
1, 334780, Note_on_c, 12, 59, 127
1, 335186, Note_off_c, 12, 59, 127
1, 335192, Note_on_c, 0, 60, 127
1, 335260, Note_off_c, 2, 74, 127
1, 335271, Note_off_c, 0, 60, 127
1, 335273, Note_on_c, 4, 76, 127
1, 335273, Note_on_c, 10, 57, 127
1, 335332, Note_off_c, 4, 76, 127
1, 335335, Note_on_c, 6, 78, 127
1, 335394, Note_off_c, 6, 78, 127
1, 335396, Note_on_c, 7, 79, 127
1, 335455, Note_off_c, 7, 79, 127
1, 335458, Note_on_c, 10, 81, 127
1, 335515, Note_off_c, 10, 57, 127
1, 335517, Note_off_c, 10, 81, 127
1, 335519, Note_on_c, 12, 83, 127
1, 335519, Note_on_c, 7, 55, 127
1, 335925, Note_off_c, 7, 55, 127
1, 335925, Note_off_c, 12, 83, 127
1, 335930, Note_on_c, 7, 79, 127
1, 335930, Note_on_c, 10, 57, 127
1, 336009, Note_off_c, 10, 57, 127
1, 336009, Note_off_c, 7, 79, 127
1, 336012, Note_on_c, 2, 74, 127
1, 336012, Note_on_c, 12, 59, 127
1, 336255, Note_off_c, 12, 59, 127
1, 336255, Note_off_c, 2, 74, 127
1, 336259, Note_on_c, 4, 76, 127
1, 336259, Note_on_c, 0, 60, 127
1, 336665, Note_off_c, 0, 60, 127
1, 336670, Note_on_c, 2, 62, 127
1, 336746, Note_off_c, 4, 76, 127
1, 336749, Note_off_c, 2, 62, 127
1, 336752, Note_on_c, 6, 78, 127
1, 336752, Note_on_c, 12, 59, 127
1, 336811, Note_off_c, 6, 78, 127
1, 336813, Note_on_c, 7, 79, 127
1, 336872, Note_off_c, 7, 79, 127
1, 336875, Note_on_c, 10, 81, 127
1, 336934, Note_off_c, 10, 81, 127
1, 336936, Note_on_c, 12, 83, 127
1, 336994, Note_off_c, 12, 59, 127
1, 336995, Note_off_c, 12, 83, 127
1, 336998, Note_on_c, 0, 84, 127
1, 336998, Note_on_c, 10, 57, 127
1, 337404, Note_off_c, 10, 57, 127
1, 337404, Note_off_c, 0, 84, 127
1, 337409, Note_on_c, 10, 81, 127
1, 337409, Note_on_c, 12, 59, 127
1, 337488, Note_off_c, 12, 59, 127
1, 337488, Note_off_c, 10, 81, 127
1, 337491, Note_on_c, 4, 76, 127
1, 337491, Note_on_c, 0, 60, 127
1, 337734, Note_off_c, 0, 60, 127
1, 337734, Note_off_c, 4, 76, 127
1, 337738, Note_on_c, 6, 78, 127
1, 337738, Note_on_c, 2, 62, 127
1, 338144, Note_off_c, 2, 62, 127
1, 338144, Note_off_c, 6, 78, 127
1, 338149, Note_on_c, 2, 74, 127
1, 338149, Note_on_c, 0, 60, 127
1, 338228, Note_off_c, 0, 60, 127
1, 338228, Note_off_c, 2, 74, 127
1, 338231, Note_on_c, 2, 86, 127
1, 338231, Note_on_c, 12, 59, 127
1, 338474, Note_off_c, 12, 59, 127
1, 338474, Note_off_c, 2, 86, 127
1, 338478, Note_on_c, 7, 79, 127
1, 338478, Note_on_c, 4, 64, 127
1, 338884, Note_off_c, 4, 64, 127
1, 338884, Note_off_c, 7, 79, 127
1, 338889, Note_on_c, 10, 81, 127
1, 338889, Note_on_c, 0, 60, 127
1, 338968, Note_off_c, 0, 60, 127
1, 338968, Note_off_c, 10, 81, 127
1, 338971, Note_on_c, 6, 78, 127
1, 338971, Note_on_c, 2, 62, 127
1, 339214, Note_off_c, 2, 62, 127
1, 339214, Note_off_c, 6, 78, 127
1, 339218, Note_on_c, 7, 79, 127
1, 339218, Note_on_c, 7, 55, 127
1, 339629, Note_on_c, 2, 50, 127
1, 339708, Note_off_c, 2, 50, 127
1, 339710, Note_on_c, 12, 47, 127
1, 339953, Note_off_c, 12, 47, 127
1, 339957, Note_on_c, 7, 43, 127
1, 340682, Note_off_c, 7, 55, 127
1, 340682, Note_off_c, 7, 79, 127
1, 340688, Note_off_c, 7, 43, 127
1, 340697, Note_on_c, 2, 62, 127
1, 340697, Note_on_c, 7, 55, 127
1, 340854, Note_on_c, 7, 67, 127
1, 340870, Note_off_c, 2, 62, 127
1, 341007, Note_off_c, 7, 67, 127
1, 341011, Note_on_c, 12, 71, 127
1, 341011, Note_on_c, 2, 50, 127
1, 341164, Note_off_c, 12, 71, 127
1, 341168, Note_on_c, 10, 69, 127
1, 341319, Note_off_c, 2, 50, 127
1, 341321, Note_off_c, 10, 69, 127
1, 341325, Note_on_c, 7, 67, 127
1, 341325, Note_on_c, 12, 47, 127
1, 341482, Note_on_c, 12, 71, 127
1, 341498, Note_off_c, 7, 67, 127
1, 341633, Note_off_c, 12, 47, 127
1, 341635, Note_off_c, 12, 71, 127
1, 341639, Note_on_c, 2, 74, 127
1, 341639, Note_on_c, 7, 43, 127
1, 341792, Note_off_c, 2, 74, 127
1, 341795, Note_on_c, 0, 72, 127
1, 341947, Note_off_c, 7, 43, 127
1, 341948, Note_off_c, 0, 72, 127
1, 341952, Note_on_c, 12, 71, 127
1, 342093, Note_off_c, 7, 55, 127
1, 342105, Note_off_c, 12, 71, 127
1, 342109, Note_on_c, 2, 74, 127
1, 342109, Note_on_c, 7, 55, 127
1, 342237, Note_off_c, 2, 74, 127
1, 342263, Note_off_c, 7, 55, 127
1, 342267, Note_on_c, 7, 79, 127
1, 342267, Note_on_c, 6, 54, 127
1, 342395, Note_off_c, 7, 79, 127
1, 342421, Note_off_c, 6, 54, 127
1, 342425, Note_on_c, 4, 52, 127
1, 342578, Note_off_c, 4, 52, 127
1, 342582, Note_on_c, 2, 62, 127
1, 342582, Note_on_c, 6, 54, 127
1, 342739, Note_on_c, 6, 66, 127
1, 342755, Note_off_c, 2, 62, 127
1, 342892, Note_off_c, 6, 66, 127
1, 342896, Note_on_c, 10, 69, 127
1, 342896, Note_on_c, 2, 50, 127
1, 343049, Note_off_c, 10, 69, 127
1, 343053, Note_on_c, 7, 67, 127
1, 343204, Note_off_c, 2, 50, 127
1, 343206, Note_off_c, 7, 67, 127
1, 343209, Note_on_c, 6, 66, 127
1, 343209, Note_on_c, 10, 45, 127
1, 343366, Note_on_c, 10, 69, 127
1, 343382, Note_off_c, 6, 66, 127
1, 343517, Note_off_c, 10, 45, 127
1, 343519, Note_off_c, 10, 69, 127
1, 343523, Note_on_c, 0, 72, 127
1, 343523, Note_on_c, 6, 42, 127
1, 343676, Note_off_c, 0, 72, 127
1, 343680, Note_on_c, 12, 71, 127
1, 343831, Note_off_c, 6, 42, 127
1, 343833, Note_off_c, 12, 71, 127
1, 343837, Note_on_c, 10, 69, 127
1, 343978, Note_off_c, 6, 54, 127
1, 343990, Note_off_c, 10, 69, 127
1, 343994, Note_on_c, 2, 74, 127
1, 343994, Note_on_c, 6, 54, 127
1, 344122, Note_off_c, 2, 74, 127
1, 344148, Note_off_c, 6, 54, 127
1, 344152, Note_on_c, 6, 78, 127
1, 344152, Note_on_c, 4, 52, 127
1, 344280, Note_off_c, 6, 78, 127
1, 344306, Note_off_c, 4, 52, 127
1, 344310, Note_on_c, 2, 50, 127
1, 344463, Note_off_c, 2, 50, 127
1, 344467, Note_on_c, 12, 59, 127
1, 344467, Note_on_c, 4, 52, 127
1, 344624, Note_on_c, 4, 64, 127
1, 344640, Note_off_c, 12, 59, 127
1, 344777, Note_off_c, 4, 64, 127
1, 344780, Note_on_c, 7, 67, 127
1, 344780, Note_on_c, 12, 47, 127
1, 344933, Note_off_c, 7, 67, 127
1, 344937, Note_on_c, 6, 66, 127
1, 345088, Note_off_c, 12, 47, 127
1, 345090, Note_off_c, 6, 66, 127
1, 345094, Note_on_c, 4, 64, 127
1, 345094, Note_on_c, 7, 43, 127
1, 345251, Note_on_c, 7, 67, 127
1, 345267, Note_off_c, 4, 64, 127
1, 345402, Note_off_c, 7, 43, 127
1, 345404, Note_off_c, 7, 67, 127
1, 345408, Note_on_c, 12, 71, 127
1, 345408, Note_on_c, 4, 40, 127
1, 345561, Note_off_c, 12, 71, 127
1, 345565, Note_on_c, 10, 69, 127
1, 345716, Note_off_c, 4, 40, 127
1, 345718, Note_off_c, 10, 69, 127
1, 345722, Note_on_c, 7, 67, 127
1, 345863, Note_off_c, 4, 52, 127
1, 345875, Note_off_c, 7, 67, 127
1, 345879, Note_on_c, 1, 73, 127
1, 345879, Note_on_c, 4, 52, 127
1, 346007, Note_off_c, 1, 73, 127
1, 346033, Note_off_c, 4, 52, 127
1, 346037, Note_on_c, 4, 76, 127
1, 346037, Note_on_c, 2, 50, 127
1, 346165, Note_off_c, 4, 76, 127
1, 346191, Note_off_c, 2, 50, 127
1, 346194, Note_on_c, 1, 49, 127
1, 346347, Note_off_c, 1, 49, 127
1, 346351, Note_on_c, 10, 57, 127
1, 346351, Note_on_c, 2, 50, 127
1, 346508, Note_on_c, 2, 62, 127
1, 346524, Note_off_c, 10, 57, 127
1, 346661, Note_off_c, 2, 62, 127
1, 346665, Note_on_c, 6, 66, 127
1, 346665, Note_on_c, 10, 45, 127
1, 346818, Note_off_c, 6, 66, 127
1, 346822, Note_on_c, 4, 64, 127
1, 346973, Note_off_c, 10, 45, 127
1, 346975, Note_off_c, 4, 64, 127
1, 346979, Note_on_c, 2, 62, 127
1, 346979, Note_on_c, 6, 42, 127
1, 347136, Note_on_c, 6, 66, 127
1, 347152, Note_off_c, 2, 62, 127
1, 347287, Note_off_c, 6, 42, 127
1, 347289, Note_off_c, 6, 66, 127
1, 347293, Note_on_c, 10, 69, 127
1, 347293, Note_on_c, 2, 38, 127
1, 347446, Note_off_c, 10, 69, 127
1, 347449, Note_on_c, 7, 67, 127
1, 347601, Note_off_c, 2, 38, 127
1, 347602, Note_off_c, 7, 67, 127
1, 347606, Note_on_c, 6, 66, 127
1, 347747, Note_off_c, 2, 50, 127
1, 347763, Note_on_c, 10, 69, 127
1, 347763, Note_on_c, 0, 48, 127
1, 347779, Note_off_c, 6, 66, 127
1, 347916, Note_off_c, 0, 48, 127
1, 347916, Note_off_c, 10, 69, 127
1, 347920, Note_on_c, 2, 74, 127
1, 347920, Note_on_c, 12, 47, 127
1, 348073, Note_off_c, 12, 47, 127
1, 348077, Note_on_c, 10, 45, 127
1, 348230, Note_off_c, 10, 45, 127
1, 348234, Note_on_c, 12, 47, 127
1, 348391, Note_on_c, 12, 71, 127
1, 348404, Note_off_c, 2, 74, 127
1, 348544, Note_off_c, 12, 71, 127
1, 348548, Note_on_c, 7, 67, 127
1, 348548, Note_on_c, 2, 50, 127
1, 348701, Note_off_c, 7, 67, 127
1, 348705, Note_on_c, 10, 69, 127
1, 348856, Note_off_c, 2, 50, 127
1, 348858, Note_off_c, 10, 69, 127
1, 348861, Note_on_c, 12, 71, 127
1, 348861, Note_on_c, 7, 55, 127
1, 349018, Note_on_c, 7, 67, 127
1, 349034, Note_off_c, 12, 71, 127
1, 349169, Note_off_c, 7, 55, 127
1, 349171, Note_off_c, 7, 67, 127
1, 349175, Note_on_c, 2, 62, 127
1, 349175, Note_on_c, 12, 59, 127
1, 349328, Note_off_c, 2, 62, 127
1, 349332, Note_on_c, 4, 64, 127
1, 349475, Note_off_c, 12, 47, 127
1, 349485, Note_off_c, 4, 64, 127
1, 349489, Note_on_c, 5, 65, 127
1, 349639, Note_off_c, 12, 59, 127
1, 349642, Note_off_c, 5, 65, 127
1, 349646, Note_on_c, 2, 62, 127
1, 349646, Note_on_c, 7, 55, 127
1, 349774, Note_off_c, 2, 62, 127
1, 349800, Note_off_c, 7, 55, 127
1, 349804, Note_on_c, 12, 59, 127
1, 349804, Note_on_c, 5, 53, 127
1, 349932, Note_off_c, 12, 59, 127
1, 349958, Note_off_c, 5, 53, 127
1, 349962, Note_on_c, 7, 55, 127
1, 350115, Note_off_c, 7, 55, 127
1, 350119, Note_on_c, 4, 76, 127
1, 350119, Note_on_c, 0, 48, 127
1, 350275, Note_on_c, 0, 72, 127
1, 350292, Note_off_c, 4, 76, 127
1, 350428, Note_off_c, 0, 72, 127
1, 350432, Note_on_c, 10, 69, 127
1, 350432, Note_on_c, 4, 52, 127
1, 350585, Note_off_c, 10, 69, 127
1, 350589, Note_on_c, 12, 71, 127
1, 350740, Note_off_c, 4, 52, 127
1, 350742, Note_off_c, 12, 71, 127
1, 350746, Note_on_c, 0, 72, 127
1, 350746, Note_on_c, 10, 57, 127
1, 350903, Note_on_c, 10, 69, 127
1, 350919, Note_off_c, 0, 72, 127
1, 351054, Note_off_c, 10, 57, 127
1, 351056, Note_off_c, 10, 69, 127
1, 351060, Note_on_c, 4, 64, 127
1, 351060, Note_on_c, 0, 60, 127
1, 351213, Note_off_c, 4, 64, 127
1, 351217, Note_on_c, 6, 66, 127
1, 351360, Note_off_c, 0, 48, 127
1, 351370, Note_off_c, 6, 66, 127
1, 351374, Note_on_c, 7, 67, 127
1, 351524, Note_off_c, 0, 60, 127
1, 351527, Note_off_c, 7, 67, 127
1, 351530, Note_on_c, 4, 64, 127
1, 351530, Note_on_c, 10, 57, 127
1, 351658, Note_off_c, 4, 64, 127
1, 351684, Note_off_c, 10, 57, 127
1, 351688, Note_on_c, 0, 60, 127
1, 351688, Note_on_c, 7, 55, 127
1, 351816, Note_off_c, 0, 60, 127
1, 351842, Note_off_c, 7, 55, 127
1, 351846, Note_on_c, 10, 57, 127
1, 351999, Note_off_c, 10, 57, 127
1, 352003, Note_on_c, 10, 81, 127
1, 352003, Note_on_c, 2, 50, 127
1, 352160, Note_on_c, 6, 78, 127
1, 352176, Note_off_c, 10, 81, 127
1, 352313, Note_off_c, 6, 78, 127
1, 352317, Note_on_c, 2, 74, 127
1, 352317, Note_on_c, 6, 54, 127
1, 352470, Note_off_c, 2, 74, 127
1, 352474, Note_on_c, 4, 76, 127
1, 352625, Note_off_c, 6, 54, 127
1, 352627, Note_off_c, 4, 76, 127
1, 352631, Note_on_c, 6, 78, 127
1, 352631, Note_on_c, 10, 57, 127
1, 352788, Note_on_c, 2, 74, 127
1, 352804, Note_off_c, 6, 78, 127
1, 352939, Note_off_c, 10, 57, 127
1, 352941, Note_off_c, 2, 74, 127
1, 352945, Note_on_c, 10, 69, 127
1, 352945, Note_on_c, 2, 62, 127
1, 353098, Note_off_c, 10, 69, 127
1, 353101, Note_on_c, 12, 71, 127
1, 353244, Note_off_c, 2, 50, 127
1, 353254, Note_off_c, 12, 71, 127
1, 353258, Note_on_c, 0, 72, 127
1, 353409, Note_off_c, 2, 62, 127
1, 353415, Note_on_c, 10, 69, 127
1, 353415, Note_on_c, 2, 50, 127
1, 353431, Note_off_c, 0, 72, 127
1, 353568, Note_off_c, 2, 50, 127
1, 353568, Note_off_c, 10, 69, 127
1, 353572, Note_on_c, 6, 66, 127
1, 353572, Note_on_c, 0, 48, 127
1, 353725, Note_off_c, 0, 48, 127
1, 353725, Note_off_c, 6, 66, 127
1, 353729, Note_on_c, 0, 72, 127
1, 353729, Note_on_c, 2, 50, 127
1, 353882, Note_off_c, 2, 50, 127
1, 353882, Note_off_c, 0, 72, 127
1, 353886, Note_on_c, 12, 71, 127
1, 353886, Note_on_c, 7, 43, 127
1, 354043, Note_on_c, 7, 67, 127
1, 354059, Note_off_c, 12, 71, 127
1, 354196, Note_off_c, 7, 67, 127
1, 354200, Note_on_c, 2, 62, 127
1, 354200, Note_on_c, 7, 55, 127
1, 354353, Note_off_c, 2, 62, 127
1, 354356, Note_on_c, 6, 66, 127
1, 354505, Note_off_c, 7, 43, 127
1, 354509, Note_off_c, 6, 66, 127
1, 354513, Note_on_c, 7, 67, 127
1, 354513, Note_on_c, 12, 47, 127
1, 354670, Note_on_c, 2, 62, 127
1, 354686, Note_off_c, 7, 67, 127
1, 354819, Note_off_c, 7, 55, 127
1, 354823, Note_off_c, 2, 62, 127
1, 354827, Note_on_c, 12, 59, 127
1, 354827, Note_on_c, 2, 50, 127
1, 354980, Note_off_c, 12, 59, 127
1, 354984, Note_on_c, 0, 60, 127
1, 355132, Note_off_c, 12, 47, 127
1, 355135, Note_off_c, 2, 50, 127
1, 355137, Note_off_c, 0, 60, 127
1, 355141, Note_on_c, 2, 62, 127
1, 355141, Note_on_c, 7, 43, 127
1, 355298, Note_on_c, 12, 59, 127
1, 355314, Note_off_c, 2, 62, 127
1, 355451, Note_off_c, 12, 59, 127
1, 355455, Note_on_c, 7, 55, 127
1, 355608, Note_off_c, 7, 55, 127
1, 355611, Note_on_c, 10, 57, 127
1, 355760, Note_off_c, 7, 43, 127
1, 355764, Note_off_c, 10, 57, 127
1, 355768, Note_on_c, 12, 59, 127
1, 355768, Note_on_c, 7, 55, 127
1, 355912, Note_off_c, 12, 59, 127
1, 355924, Note_on_c, 12, 59, 127
1, 355940, Note_off_c, 7, 55, 127
1, 356077, Note_off_c, 12, 59, 127
1, 356081, Note_on_c, 12, 83, 127
1, 356081, Note_on_c, 2, 62, 127
1, 356234, Note_off_c, 2, 62, 127
1, 356234, Note_off_c, 12, 83, 127
1, 356238, Note_on_c, 10, 81, 127
1, 356238, Note_on_c, 0, 60, 127
1, 356391, Note_off_c, 0, 60, 127
1, 356391, Note_off_c, 10, 81, 127
1, 356395, Note_on_c, 7, 79, 127
1, 356395, Note_on_c, 12, 59, 127
1, 356548, Note_off_c, 7, 79, 127
1, 356552, Note_on_c, 6, 78, 127
1, 356552, Note_on_c, 2, 62, 127
1, 356568, Note_off_c, 12, 59, 127
1, 356705, Note_off_c, 2, 62, 127
1, 356705, Note_off_c, 6, 78, 127
1, 356709, Note_on_c, 4, 76, 127
1, 356709, Note_on_c, 7, 67, 127
1, 356862, Note_off_c, 7, 67, 127
1, 356862, Note_off_c, 4, 76, 127
1, 356865, Note_on_c, 2, 74, 127
1, 356865, Note_on_c, 6, 66, 127
1, 357018, Note_off_c, 6, 66, 127
1, 357018, Note_off_c, 2, 74, 127
1, 357022, Note_on_c, 1, 73, 127
1, 357022, Note_on_c, 4, 64, 127
1, 357175, Note_off_c, 4, 64, 127
1, 357175, Note_off_c, 1, 73, 127
1, 357179, Note_on_c, 4, 76, 127
1, 357179, Note_on_c, 7, 67, 127
1, 357307, Note_off_c, 7, 67, 127
1, 357333, Note_off_c, 4, 76, 127
1, 357337, Note_on_c, 2, 74, 127
1, 357337, Note_on_c, 12, 71, 127
1, 357465, Note_off_c, 12, 71, 127
1, 357491, Note_off_c, 2, 74, 127
1, 357495, Note_on_c, 4, 76, 127
1, 357648, Note_off_c, 4, 76, 127
1, 357652, Note_on_c, 10, 69, 127
1, 357652, Note_on_c, 6, 54, 127
1, 357809, Note_on_c, 10, 57, 127
1, 357825, Note_off_c, 6, 54, 127
1, 357962, Note_off_c, 10, 57, 127
1, 357966, Note_on_c, 10, 81, 127
1, 357966, Note_on_c, 1, 61, 127
1, 357980, Note_off_c, 10, 69, 127
1, 358119, Note_off_c, 1, 61, 127
1, 358119, Note_off_c, 10, 81, 127
1, 358123, Note_on_c, 7, 79, 127
1, 358123, Note_on_c, 12, 59, 127
1, 358276, Note_off_c, 12, 59, 127
1, 358276, Note_off_c, 7, 79, 127
1, 358280, Note_on_c, 6, 78, 127
1, 358280, Note_on_c, 10, 57, 127
1, 358433, Note_off_c, 6, 78, 127
1, 358436, Note_on_c, 4, 76, 127
1, 358436, Note_on_c, 1, 61, 127
1, 358453, Note_off_c, 10, 57, 127
1, 358589, Note_off_c, 1, 61, 127
1, 358589, Note_off_c, 4, 76, 127
1, 358593, Note_on_c, 2, 74, 127
1, 358593, Note_on_c, 6, 66, 127
1, 358746, Note_off_c, 6, 66, 127
1, 358746, Note_off_c, 2, 74, 127
1, 358750, Note_on_c, 1, 73, 127
1, 358750, Note_on_c, 4, 64, 127
1, 358903, Note_off_c, 4, 64, 127
1, 358903, Note_off_c, 1, 73, 127
1, 358907, Note_on_c, 12, 71, 127
1, 358907, Note_on_c, 2, 62, 127
1, 359060, Note_off_c, 2, 62, 127
1, 359060, Note_off_c, 12, 71, 127
1, 359064, Note_on_c, 2, 74, 127
1, 359064, Note_on_c, 6, 66, 127
1, 359192, Note_off_c, 6, 66, 127
1, 359218, Note_off_c, 2, 74, 127
1, 359222, Note_on_c, 1, 73, 127
1, 359222, Note_on_c, 10, 69, 127
1, 359350, Note_off_c, 10, 69, 127
1, 359376, Note_off_c, 1, 73, 127
1, 359380, Note_on_c, 2, 74, 127
1, 359533, Note_off_c, 2, 74, 127
1, 359537, Note_on_c, 7, 67, 127
1, 359537, Note_on_c, 4, 52, 127
1, 359694, Note_on_c, 7, 55, 127
1, 359710, Note_off_c, 4, 52, 127
1, 359847, Note_off_c, 7, 55, 127
1, 359850, Note_on_c, 7, 79, 127
1, 359850, Note_on_c, 12, 59, 127
1, 359865, Note_off_c, 7, 67, 127
1, 360003, Note_off_c, 12, 59, 127
1, 360003, Note_off_c, 7, 79, 127
1, 360007, Note_on_c, 6, 78, 127
1, 360007, Note_on_c, 10, 57, 127
1, 360160, Note_off_c, 10, 57, 127
1, 360160, Note_off_c, 6, 78, 127
1, 360164, Note_on_c, 4, 76, 127
1, 360164, Note_on_c, 7, 55, 127
1, 360317, Note_off_c, 4, 76, 127
1, 360321, Note_on_c, 2, 74, 127
1, 360321, Note_on_c, 12, 59, 127
1, 360337, Note_off_c, 7, 55, 127
1, 360474, Note_off_c, 12, 59, 127
1, 360474, Note_off_c, 2, 74, 127
1, 360478, Note_on_c, 1, 73, 127
1, 360478, Note_on_c, 4, 64, 127
1, 360631, Note_off_c, 4, 64, 127
1, 360631, Note_off_c, 1, 73, 127
1, 360635, Note_on_c, 12, 71, 127
1, 360635, Note_on_c, 2, 62, 127
1, 360788, Note_off_c, 2, 62, 127
1, 360788, Note_off_c, 12, 71, 127
1, 360792, Note_on_c, 10, 69, 127
1, 360792, Note_on_c, 1, 61, 127
1, 360945, Note_off_c, 10, 69, 127
1, 360949, Note_on_c, 1, 73, 127
1, 360949, Note_on_c, 4, 64, 127
1, 360965, Note_off_c, 1, 61, 127
1, 361102, Note_off_c, 4, 64, 127
1, 361102, Note_off_c, 1, 73, 127
1, 361105, Note_on_c, 12, 71, 127
1, 361105, Note_on_c, 7, 67, 127
1, 361258, Note_off_c, 7, 67, 127
1, 361258, Note_off_c, 12, 71, 127
1, 361262, Note_on_c, 2, 74, 127
1, 361262, Note_on_c, 6, 66, 127
1, 361415, Note_off_c, 6, 66, 127
1, 361415, Note_off_c, 2, 74, 127
1, 361419, Note_on_c, 1, 73, 127
1, 361419, Note_on_c, 4, 64, 127
1, 361572, Note_off_c, 1, 73, 127
1, 361576, Note_on_c, 4, 76, 127
1, 361576, Note_on_c, 7, 67, 127
1, 361592, Note_off_c, 4, 64, 127
1, 361729, Note_off_c, 7, 67, 127
1, 361729, Note_off_c, 4, 76, 127
1, 361733, Note_on_c, 10, 69, 127
1, 361733, Note_on_c, 1, 73, 127
1, 361886, Note_off_c, 1, 73, 127
1, 361886, Note_off_c, 10, 69, 127
1, 361890, Note_on_c, 12, 71, 127
1, 362043, Note_off_c, 12, 71, 127
1, 362047, Note_on_c, 1, 73, 127
1, 362047, Note_on_c, 10, 69, 127
1, 362191, Note_off_c, 10, 69, 127
1, 362200, Note_off_c, 1, 73, 127
1, 362204, Note_on_c, 10, 69, 127
1, 362204, Note_on_c, 1, 73, 127
1, 362357, Note_off_c, 1, 73, 127
1, 362357, Note_off_c, 10, 69, 127
1, 362361, Note_on_c, 4, 64, 127
1, 362361, Note_on_c, 4, 76, 127
1, 362514, Note_off_c, 4, 76, 127
1, 362514, Note_off_c, 4, 64, 127
1, 362517, Note_on_c, 6, 66, 127
1, 362517, Note_on_c, 2, 74, 127
1, 362670, Note_off_c, 2, 74, 127
1, 362670, Note_off_c, 6, 66, 127
1, 362674, Note_on_c, 7, 67, 127
1, 362674, Note_on_c, 1, 73, 127
1, 362827, Note_off_c, 7, 67, 127
1, 362831, Note_on_c, 4, 64, 127
1, 362831, Note_on_c, 4, 76, 127
1, 362847, Note_off_c, 1, 73, 127
1, 362984, Note_off_c, 4, 76, 127
1, 362984, Note_off_c, 4, 64, 127
1, 362988, Note_on_c, 1, 61, 127
1, 362988, Note_on_c, 10, 81, 127
1, 363141, Note_off_c, 10, 81, 127
1, 363141, Note_off_c, 1, 61, 127
1, 363145, Note_on_c, 4, 64, 127
1, 363145, Note_on_c, 7, 79, 127
1, 363298, Note_off_c, 7, 79, 127
1, 363298, Note_off_c, 4, 64, 127
1, 363302, Note_on_c, 2, 62, 127
1, 363302, Note_on_c, 6, 78, 127
1, 363455, Note_off_c, 6, 78, 127
1, 363459, Note_on_c, 10, 81, 127
1, 363612, Note_off_c, 10, 81, 127
1, 363616, Note_on_c, 6, 66, 127
1, 363616, Note_on_c, 2, 74, 127
1, 363769, Note_off_c, 2, 74, 127
1, 363772, Note_on_c, 4, 76, 127
1, 363924, Note_off_c, 6, 66, 127
1, 363925, Note_off_c, 4, 76, 127
1, 363929, Note_on_c, 10, 69, 127
1, 363929, Note_on_c, 6, 78, 127
1, 364086, Note_on_c, 2, 74, 127
1, 364102, Note_off_c, 6, 78, 127
1, 364237, Note_off_c, 10, 69, 127
1, 364239, Note_off_c, 2, 74, 127
1, 364243, Note_on_c, 2, 74, 127
1, 364243, Note_on_c, 10, 69, 127
1, 364396, Note_off_c, 10, 69, 127
1, 364400, Note_on_c, 12, 71, 127
1, 364543, Note_off_c, 2, 62, 127
1, 364553, Note_off_c, 12, 71, 127
1, 364557, Note_on_c, 0, 72, 127
1, 364706, Note_off_c, 0, 72, 127
1, 364708, Note_off_c, 2, 74, 127
1, 364715, Note_on_c, 0, 72, 127
1, 364715, Note_on_c, 10, 69, 127
1, 364868, Note_off_c, 10, 69, 127
1, 364868, Note_off_c, 0, 72, 127
1, 364872, Note_on_c, 10, 69, 127
1, 364872, Note_on_c, 6, 66, 127
1, 365025, Note_off_c, 6, 66, 127
1, 365025, Note_off_c, 10, 69, 127
1, 365029, Note_on_c, 6, 66, 127
1, 365029, Note_on_c, 10, 69, 127
1, 365182, Note_off_c, 10, 69, 127
1, 365182, Note_off_c, 6, 66, 127
1, 365185, Note_on_c, 7, 67, 127
1, 365185, Note_on_c, 12, 71, 127
1, 365338, Note_off_c, 12, 71, 127
1, 365342, Note_on_c, 2, 74, 127
1, 365492, Note_off_c, 7, 67, 127
1, 365496, Note_off_c, 2, 74, 127
1, 365500, Note_on_c, 12, 71, 127
1, 365500, Note_on_c, 7, 67, 127
1, 365657, Note_on_c, 10, 69, 127
1, 365808, Note_off_c, 12, 71, 127
1, 365810, Note_off_c, 10, 69, 127
1, 365814, Note_on_c, 2, 74, 127
1, 365814, Note_on_c, 12, 71, 127
1, 365952, Note_off_c, 7, 67, 127
1, 365970, Note_on_c, 7, 67, 127
1, 365986, Note_off_c, 12, 71, 127
1, 366121, Note_off_c, 2, 74, 127
1, 366127, Note_on_c, 7, 79, 127
1, 366127, Note_on_c, 4, 64, 127
1, 366277, Note_off_c, 7, 67, 127
1, 366281, Note_off_c, 4, 64, 127
1, 366285, Note_on_c, 6, 66, 127
1, 366438, Note_off_c, 6, 66, 127
1, 366442, Note_on_c, 7, 67, 127
1, 366592, Note_off_c, 7, 79, 127
1, 366598, Note_on_c, 7, 79, 127
1, 366598, Note_on_c, 4, 64, 127
1, 366615, Note_off_c, 7, 67, 127
1, 366751, Note_off_c, 4, 64, 127
1, 366751, Note_off_c, 7, 79, 127
1, 366755, Note_on_c, 6, 78, 127
1, 366755, Note_on_c, 12, 59, 127
1, 366908, Note_off_c, 12, 59, 127
1, 366908, Note_off_c, 6, 78, 127
1, 366912, Note_on_c, 7, 79, 127
1, 366912, Note_on_c, 2, 62, 127
1, 367065, Note_off_c, 2, 62, 127
1, 367065, Note_off_c, 7, 79, 127
1, 367069, Note_on_c, 10, 69, 127
1, 367069, Note_on_c, 1, 61, 127
1, 367222, Note_off_c, 1, 61, 127
1, 367226, Note_on_c, 4, 64, 127
1, 367379, Note_off_c, 4, 64, 127
1, 367383, Note_on_c, 1, 73, 127
1, 367383, Note_on_c, 10, 57, 127
1, 367536, Note_off_c, 10, 57, 127
1, 367540, Note_on_c, 12, 59, 127
1, 367691, Note_off_c, 1, 73, 127
1, 367693, Note_off_c, 12, 59, 127
1, 367697, Note_on_c, 4, 76, 127
1, 367697, Note_on_c, 1, 61, 127
1, 367853, Note_on_c, 10, 57, 127
1, 367870, Note_off_c, 1, 61, 127
1, 368005, Note_off_c, 4, 76, 127
1, 368006, Note_off_c, 10, 57, 127
1, 368010, Note_on_c, 7, 79, 127
1, 368010, Note_on_c, 4, 52, 127
1, 368163, Note_off_c, 4, 52, 127
1, 368167, Note_on_c, 6, 54, 127
1, 368310, Note_off_c, 10, 69, 127
1, 368320, Note_off_c, 6, 54, 127
1, 368324, Note_on_c, 7, 55, 127
1, 368474, Note_off_c, 7, 79, 127
1, 368481, Note_on_c, 7, 79, 127
1, 368481, Note_on_c, 4, 52, 127
1, 368497, Note_off_c, 7, 55, 127
1, 368634, Note_off_c, 4, 52, 127
1, 368634, Note_off_c, 7, 79, 127
1, 368638, Note_on_c, 10, 81, 127
1, 368638, Note_on_c, 1, 49, 127
1, 368791, Note_off_c, 1, 49, 127
1, 368791, Note_off_c, 10, 81, 127
1, 368795, Note_on_c, 1, 73, 127
1, 368795, Note_on_c, 4, 52, 127
1, 368948, Note_off_c, 4, 52, 127
1, 368948, Note_off_c, 1, 73, 127
1, 368952, Note_on_c, 2, 74, 127
1, 368952, Note_on_c, 6, 54, 127
1, 369105, Note_off_c, 6, 54, 127
1, 369108, Note_on_c, 6, 78, 127
1, 369108, Note_on_c, 10, 57, 127
1, 369125, Note_off_c, 2, 74, 127
1, 369261, Note_off_c, 10, 57, 127
1, 369261, Note_off_c, 6, 78, 127
1, 369265, Note_on_c, 10, 81, 127
1, 369265, Note_on_c, 2, 50, 127
1, 369418, Note_off_c, 2, 50, 127
1, 369418, Note_off_c, 10, 81, 127
1, 369422, Note_on_c, 1, 85, 127
1, 369422, Note_on_c, 4, 52, 127
1, 369575, Note_off_c, 4, 52, 127
1, 369575, Note_off_c, 1, 85, 127
1, 369579, Note_on_c, 2, 86, 127
1, 369579, Note_on_c, 6, 54, 127
1, 369732, Note_off_c, 6, 54, 127
1, 369732, Note_off_c, 2, 86, 127
1, 369736, Note_on_c, 1, 85, 127
1, 369736, Note_on_c, 2, 50, 127
1, 369811, Note_off_c, 1, 85, 127
1, 369814, Note_on_c, 12, 83, 127
1, 369889, Note_off_c, 12, 83, 127
1, 369893, Note_on_c, 10, 81, 127
1, 369893, Note_on_c, 6, 54, 127
1, 369909, Note_off_c, 2, 50, 127
1, 369968, Note_off_c, 10, 81, 127
1, 369971, Note_on_c, 7, 79, 127
1, 370046, Note_off_c, 7, 79, 127
1, 370046, Note_off_c, 6, 54, 127
1, 370050, Note_on_c, 6, 78, 127
1, 370050, Note_on_c, 10, 57, 127
1, 370125, Note_off_c, 6, 78, 127
1, 370128, Note_on_c, 4, 76, 127
1, 370203, Note_off_c, 4, 76, 127
1, 370203, Note_off_c, 10, 57, 127
1, 370207, Note_on_c, 2, 74, 127
1, 370207, Note_on_c, 2, 62, 127
1, 370364, Note_on_c, 10, 57, 127
1, 370515, Note_off_c, 2, 62, 127
1, 370515, Note_off_c, 2, 74, 127
1, 370517, Note_off_c, 10, 57, 127
1, 370520, Note_on_c, 0, 72, 127
1, 370520, Note_on_c, 12, 59, 127
1, 370673, Note_off_c, 12, 59, 127
1, 370673, Note_off_c, 0, 72, 127
1, 370677, Note_on_c, 12, 71, 127
1, 370677, Note_on_c, 0, 60, 127
1, 370830, Note_off_c, 0, 60, 127
1, 370830, Note_off_c, 12, 71, 127
1, 370834, Note_on_c, 10, 69, 127
1, 370834, Note_on_c, 2, 62, 127
1, 370991, Note_on_c, 2, 74, 127
1, 371007, Note_off_c, 10, 69, 127
1, 371144, Note_off_c, 2, 74, 127
1, 371148, Note_on_c, 6, 78, 127
1, 371148, Note_on_c, 10, 57, 127
1, 371301, Note_off_c, 6, 78, 127
1, 371305, Note_on_c, 4, 76, 127
1, 371456, Note_off_c, 10, 57, 127
1, 371458, Note_off_c, 4, 76, 127
1, 371462, Note_on_c, 2, 74, 127
1, 371462, Note_on_c, 6, 54, 127
1, 371619, Note_on_c, 6, 78, 127
1, 371635, Note_off_c, 2, 74, 127
1, 371770, Note_off_c, 6, 54, 127
1, 371772, Note_off_c, 6, 78, 127
1, 371775, Note_on_c, 10, 81, 127
1, 371775, Note_on_c, 2, 50, 127
1, 371928, Note_off_c, 10, 81, 127
1, 371932, Note_on_c, 7, 79, 127
1, 372075, Note_off_c, 2, 62, 127
1, 372085, Note_off_c, 7, 79, 127
1, 372089, Note_on_c, 6, 78, 127
1, 372239, Note_off_c, 2, 50, 127
1, 372242, Note_off_c, 6, 78, 127
1, 372246, Note_on_c, 10, 81, 127
1, 372246, Note_on_c, 0, 60, 127
1, 372374, Note_off_c, 10, 81, 127
1, 372400, Note_off_c, 0, 60, 127
1, 372404, Note_on_c, 0, 84, 127
1, 372404, Note_on_c, 12, 59, 127
1, 372532, Note_off_c, 0, 84, 127
1, 372558, Note_off_c, 12, 59, 127
1, 372562, Note_on_c, 10, 57, 127
1, 372715, Note_off_c, 10, 57, 127
1, 372719, Note_on_c, 2, 62, 127
1, 372719, Note_on_c, 7, 55, 127
1, 372876, Note_on_c, 7, 67, 127
1, 372892, Note_off_c, 2, 62, 127
1, 373029, Note_off_c, 7, 67, 127
1, 373033, Note_on_c, 12, 71, 127
1, 373033, Note_on_c, 2, 50, 127
1, 373186, Note_off_c, 12, 71, 127
1, 373189, Note_on_c, 10, 69, 127
1, 373341, Note_off_c, 2, 50, 127
1, 373342, Note_off_c, 10, 69, 127
1, 373346, Note_on_c, 7, 67, 127
1, 373346, Note_on_c, 12, 47, 127
1, 373503, Note_on_c, 12, 71, 127
1, 373519, Note_off_c, 7, 67, 127
1, 373654, Note_off_c, 12, 47, 127
1, 373656, Note_off_c, 12, 71, 127
1, 373660, Note_on_c, 2, 74, 127
1, 373660, Note_on_c, 7, 43, 127
1, 373813, Note_off_c, 2, 74, 127
1, 373817, Note_on_c, 0, 72, 127
1, 373960, Note_off_c, 7, 55, 127
1, 373970, Note_off_c, 0, 72, 127
1, 373974, Note_on_c, 12, 71, 127
1, 374124, Note_off_c, 7, 43, 127
1, 374131, Note_on_c, 2, 74, 127
1, 374131, Note_on_c, 5, 53, 127
1, 374147, Note_off_c, 12, 71, 127
1, 374284, Note_off_c, 5, 53, 127
1, 374284, Note_off_c, 2, 74, 127
1, 374288, Note_on_c, 5, 77, 127
1, 374288, Note_on_c, 4, 52, 127
1, 374441, Note_off_c, 4, 52, 127
1, 374445, Note_on_c, 2, 50, 127
1, 374546, Note_off_c, 5, 77, 127
1, 374598, Note_off_c, 2, 50, 127
1, 374601, Note_on_c, 4, 76, 127
1, 374601, Note_on_c, 0, 48, 127
1, 374758, Note_on_c, 0, 72, 127
1, 374758, Note_on_c, 4, 52, 127
1, 374774, Note_off_c, 0, 48, 127
1, 374774, Note_off_c, 4, 76, 127
1, 374911, Note_off_c, 4, 52, 127
1, 374911, Note_off_c, 0, 72, 127
1, 374915, Note_on_c, 10, 69, 127
1, 374915, Note_on_c, 10, 57, 127
1, 375068, Note_off_c, 10, 57, 127
1, 375068, Note_off_c, 10, 69, 127
1, 375072, Note_on_c, 12, 71, 127
1, 375072, Note_on_c, 7, 55, 127
1, 375225, Note_off_c, 7, 55, 127
1, 375225, Note_off_c, 12, 71, 127
1, 375229, Note_on_c, 0, 72, 127
1, 375229, Note_on_c, 6, 54, 127
1, 375386, Note_on_c, 10, 69, 127
1, 375386, Note_on_c, 10, 57, 127
1, 375402, Note_off_c, 6, 54, 127
1, 375402, Note_off_c, 0, 72, 127
1, 375539, Note_off_c, 10, 57, 127
1, 375539, Note_off_c, 10, 69, 127
1, 375543, Note_on_c, 6, 66, 127
1, 375543, Note_on_c, 0, 60, 127
1, 375696, Note_off_c, 0, 60, 127
1, 375696, Note_off_c, 6, 66, 127
1, 375700, Note_on_c, 7, 67, 127
1, 375700, Note_on_c, 12, 59, 127
1, 375853, Note_off_c, 12, 59, 127
1, 375853, Note_off_c, 7, 67, 127
1, 375856, Note_on_c, 10, 69, 127
1, 375856, Note_on_c, 10, 57, 127
1, 376013, Note_on_c, 6, 66, 127
1, 376013, Note_on_c, 0, 60, 127
1, 376029, Note_off_c, 10, 57, 127
1, 376029, Note_off_c, 10, 69, 127
1, 376166, Note_off_c, 0, 60, 127
1, 376166, Note_off_c, 6, 66, 127
1, 376170, Note_on_c, 3, 63, 127
1, 376323, Note_off_c, 3, 63, 127
1, 376327, Note_on_c, 4, 64, 127
1, 376327, Note_on_c, 1, 61, 127
1, 376480, Note_off_c, 1, 61, 127
1, 376480, Note_off_c, 4, 64, 127
1, 376484, Note_on_c, 6, 66, 127
1, 376484, Note_on_c, 12, 59, 127
1, 376641, Note_on_c, 3, 63, 127
1, 376657, Note_off_c, 12, 59, 127
1, 376657, Note_off_c, 6, 66, 127
1, 376794, Note_off_c, 3, 63, 127
1, 376798, Note_on_c, 12, 59, 127
1, 376798, Note_on_c, 6, 66, 127
1, 376951, Note_off_c, 6, 66, 127
1, 376951, Note_off_c, 12, 59, 127
1, 376955, Note_on_c, 1, 61, 127
1, 376955, Note_on_c, 4, 64, 127
1, 377108, Note_off_c, 4, 64, 127
1, 377108, Note_off_c, 1, 61, 127
1, 377111, Note_on_c, 3, 63, 127
1, 377268, Note_on_c, 12, 59, 127
1, 377268, Note_on_c, 6, 66, 127
1, 377284, Note_off_c, 3, 63, 127
1, 377421, Note_off_c, 6, 66, 127
1, 377421, Note_off_c, 12, 59, 127
1, 377425, Note_on_c, 6, 54, 127
1, 377425, Note_on_c, 10, 69, 127
1, 377578, Note_off_c, 10, 69, 127
1, 377578, Note_off_c, 6, 54, 127
1, 377582, Note_on_c, 7, 55, 127
1, 377582, Note_on_c, 7, 67, 127
1, 377735, Note_off_c, 7, 67, 127
1, 377735, Note_off_c, 7, 55, 127
1, 377739, Note_on_c, 10, 57, 127
1, 377739, Note_on_c, 6, 66, 127
1, 377896, Note_on_c, 6, 54, 127
1, 377896, Note_on_c, 10, 69, 127
1, 377912, Note_off_c, 6, 66, 127
1, 377912, Note_off_c, 10, 57, 127
1, 378049, Note_off_c, 10, 69, 127
1, 378049, Note_off_c, 6, 54, 127
1, 378053, Note_on_c, 3, 51, 127
1, 378053, Note_on_c, 0, 72, 127
1, 378206, Note_off_c, 0, 72, 127
1, 378206, Note_off_c, 3, 51, 127
1, 378210, Note_on_c, 6, 54, 127
1, 378210, Note_on_c, 10, 69, 127
1, 378363, Note_off_c, 10, 69, 127
1, 378363, Note_off_c, 6, 54, 127
1, 378367, Note_on_c, 7, 55, 127
1, 378367, Note_on_c, 12, 71, 127
1, 378523, Note_on_c, 12, 59, 127
1, 378523, Note_on_c, 7, 67, 127
1, 378540, Note_off_c, 12, 71, 127
1, 378540, Note_off_c, 7, 55, 127
1, 378676, Note_off_c, 7, 67, 127
1, 378676, Note_off_c, 12, 59, 127
1, 378680, Note_on_c, 4, 64, 127
1, 378833, Note_off_c, 4, 64, 127
1, 378837, Note_on_c, 3, 63, 127
1, 378837, Note_on_c, 6, 66, 127
1, 378990, Note_off_c, 6, 66, 127
1, 378990, Note_off_c, 3, 63, 127
1, 378994, Note_on_c, 4, 64, 127
1, 378994, Note_on_c, 7, 67, 127
1, 379141, Note_off_c, 4, 64, 127
1, 379143, Note_off_c, 7, 67, 127
1, 379151, Note_on_c, 7, 67, 127
1, 379151, Note_on_c, 4, 64, 127
1, 379304, Note_off_c, 4, 64, 127
1, 379304, Note_off_c, 7, 67, 127
1, 379308, Note_on_c, 12, 71, 127
1, 379308, Note_on_c, 12, 59, 127
1, 379461, Note_off_c, 12, 59, 127
1, 379461, Note_off_c, 12, 71, 127
1, 379465, Note_on_c, 10, 69, 127
1, 379465, Note_on_c, 3, 63, 127
1, 379618, Note_off_c, 3, 63, 127
1, 379618, Note_off_c, 10, 69, 127
1, 379622, Note_on_c, 7, 67, 127
1, 379622, Note_on_c, 4, 64, 127
1, 379775, Note_off_c, 7, 67, 127
1, 379778, Note_on_c, 12, 71, 127
1, 379778, Note_on_c, 12, 59, 127
1, 379795, Note_off_c, 4, 64, 127
1, 379906, Note_off_c, 12, 71, 127
1, 379932, Note_off_c, 12, 59, 127
1, 379936, Note_on_c, 4, 76, 127
1, 379936, Note_on_c, 7, 55, 127
1, 380064, Note_off_c, 4, 76, 127
1, 380090, Note_off_c, 7, 55, 127
1, 380094, Note_on_c, 12, 59, 127
1, 380247, Note_off_c, 12, 59, 127
1, 380251, Note_on_c, 4, 64, 127
1, 380251, Note_on_c, 0, 60, 127
1, 380408, Note_on_c, 10, 69, 127
1, 380408, Note_on_c, 10, 57, 127
1, 380424, Note_off_c, 0, 60, 127
1, 380424, Note_off_c, 4, 64, 127
1, 380561, Note_off_c, 10, 57, 127
1, 380561, Note_off_c, 10, 69, 127
1, 380565, Note_on_c, 0, 72, 127
1, 380565, Note_on_c, 4, 52, 127
1, 380718, Note_off_c, 4, 52, 127
1, 380718, Note_off_c, 0, 72, 127
1, 380722, Note_on_c, 12, 71, 127
1, 380722, Note_on_c, 8, 56, 127
1, 380875, Note_off_c, 8, 56, 127
1, 380875, Note_off_c, 12, 71, 127
1, 380879, Note_on_c, 10, 69, 127
1, 380879, Note_on_c, 10, 57, 127
1, 381036, Note_on_c, 0, 72, 127
1, 381036, Note_on_c, 4, 52, 127
1, 381052, Note_off_c, 10, 57, 127
1, 381052, Note_off_c, 10, 69, 127
1, 381189, Note_off_c, 4, 52, 127
1, 381189, Note_off_c, 0, 72, 127
1, 381192, Note_on_c, 4, 76, 127
1, 381192, Note_on_c, 0, 48, 127
1, 381345, Note_off_c, 0, 48, 127
1, 381345, Note_off_c, 4, 76, 127
1, 381349, Note_on_c, 2, 74, 127
1, 381349, Note_on_c, 2, 50, 127
1, 381502, Note_off_c, 2, 50, 127
1, 381502, Note_off_c, 2, 74, 127
1, 381506, Note_on_c, 0, 72, 127
1, 381506, Note_on_c, 4, 52, 127
1, 381663, Note_on_c, 4, 76, 127
1, 381663, Note_on_c, 0, 48, 127
1, 381679, Note_off_c, 4, 52, 127
1, 381737, Note_off_c, 0, 72, 127
1, 381816, Note_off_c, 0, 48, 127
1, 381816, Note_off_c, 4, 76, 127
1, 381820, Note_on_c, 10, 81, 127
1, 381820, Note_on_c, 10, 45, 127
1, 381973, Note_off_c, 10, 45, 127
1, 381977, Note_on_c, 0, 48, 127
1, 382130, Note_off_c, 0, 48, 127
1, 382134, Note_on_c, 3, 39, 127
1, 382284, Note_off_c, 10, 81, 127
1, 382291, Note_on_c, 0, 72, 127
1, 382444, Note_off_c, 0, 72, 127
1, 382448, Note_on_c, 12, 71, 127
1, 382448, Note_on_c, 3, 51, 127
1, 382601, Note_off_c, 12, 71, 127
1, 382604, Note_on_c, 6, 78, 127
1, 382753, Note_off_c, 3, 39, 127
1, 382756, Note_off_c, 3, 51, 127
1, 382757, Note_off_c, 6, 78, 127
1, 382761, Note_on_c, 7, 79, 127
1, 382761, Note_on_c, 4, 52, 127
1, 382914, Note_off_c, 7, 79, 127
1, 382918, Note_on_c, 3, 75, 127
1, 383069, Note_off_c, 4, 52, 127
1, 383071, Note_off_c, 3, 75, 127
1, 383075, Note_on_c, 4, 76, 127
1, 383075, Note_on_c, 0, 48, 127
1, 383228, Note_off_c, 4, 76, 127
1, 383232, Note_on_c, 7, 67, 127
1, 383383, Note_off_c, 0, 48, 127
1, 383385, Note_off_c, 7, 67, 127
1, 383389, Note_on_c, 6, 66, 127
1, 383389, Note_on_c, 10, 45, 127
1, 383542, Note_off_c, 6, 66, 127
1, 383546, Note_on_c, 4, 76, 127
1, 383697, Note_off_c, 10, 45, 127
1, 383699, Note_off_c, 4, 76, 127
1, 383703, Note_on_c, 3, 75, 127
1, 383703, Note_on_c, 12, 47, 127
1, 383856, Note_off_c, 3, 75, 127
1, 383859, Note_on_c, 10, 81, 127
1, 384011, Note_off_c, 12, 47, 127
1, 384012, Note_off_c, 10, 81, 127
1, 384016, Note_on_c, 7, 79, 127
1, 384016, Note_on_c, 4, 40, 127
1, 384169, Note_off_c, 7, 79, 127
1, 384173, Note_on_c, 6, 78, 127
1, 384326, Note_off_c, 6, 78, 127
1, 384330, Note_on_c, 4, 76, 127
1, 384330, Note_on_c, 7, 43, 127
1, 384638, Note_off_c, 7, 43, 127
1, 384644, Note_on_c, 12, 47, 127
1, 384794, Note_off_c, 4, 76, 127
1, 384801, Note_on_c, 10, 69, 127
1, 384952, Note_off_c, 12, 47, 127
1, 384954, Note_off_c, 10, 69, 127
1, 384958, Note_on_c, 7, 67, 127
1, 384958, Note_on_c, 4, 52, 127
1, 385111, Note_off_c, 7, 67, 127
1, 385114, Note_on_c, 6, 66, 127
1, 385257, Note_off_c, 4, 40, 127
1, 385266, Note_off_c, 4, 52, 127
1, 385267, Note_off_c, 6, 66, 127
1, 385271, Note_on_c, 6, 66, 127
1, 385428, Note_on_c, 2, 50, 127
1, 385579, Note_off_c, 6, 66, 127
1, 385581, Note_off_c, 2, 50, 127
1, 385585, Note_on_c, 4, 64, 127
1, 385585, Note_on_c, 0, 48, 127
1, 385738, Note_off_c, 0, 48, 127
1, 385742, Note_on_c, 12, 47, 127
1, 385895, Note_off_c, 12, 47, 127
1, 385899, Note_on_c, 0, 48, 127
1, 386056, Note_on_c, 4, 52, 127
1, 386072, Note_off_c, 0, 48, 127
1, 386126, Note_off_c, 4, 64, 127
1, 386209, Note_off_c, 4, 52, 127
1, 386213, Note_on_c, 4, 76, 127
1, 386213, Note_on_c, 7, 55, 127
1, 386366, Note_off_c, 7, 55, 127
1, 386366, Note_off_c, 4, 76, 127
1, 386370, Note_on_c, 2, 74, 127
1, 386370, Note_on_c, 5, 53, 127
1, 386523, Note_off_c, 5, 53, 127
1, 386523, Note_off_c, 2, 74, 127
1, 386526, Note_on_c, 0, 72, 127
1, 386526, Note_on_c, 4, 52, 127
1, 386679, Note_off_c, 0, 72, 127
1, 386683, Note_on_c, 12, 71, 127
1, 386683, Note_on_c, 7, 55, 127
1, 386699, Note_off_c, 4, 52, 127
1, 386836, Note_off_c, 7, 55, 127
1, 386836, Note_off_c, 12, 71, 127
1, 386840, Note_on_c, 10, 69, 127
1, 386840, Note_on_c, 0, 60, 127
1, 386993, Note_off_c, 0, 60, 127
1, 386993, Note_off_c, 10, 69, 127
1, 386997, Note_on_c, 7, 67, 127
1, 386997, Note_on_c, 12, 59, 127
1, 387150, Note_off_c, 12, 59, 127
1, 387150, Note_off_c, 7, 67, 127
1, 387154, Note_on_c, 6, 66, 127
1, 387154, Note_on_c, 11, 58, 127
1, 387307, Note_off_c, 11, 58, 127
1, 387311, Note_on_c, 11, 70, 127
1, 387311, Note_on_c, 1, 61, 127
1, 387327, Note_off_c, 6, 66, 127
1, 387439, Note_off_c, 1, 61, 127
1, 387465, Note_off_c, 11, 70, 127
1, 387469, Note_on_c, 1, 73, 127
1, 387469, Note_on_c, 6, 66, 127
1, 387597, Note_off_c, 6, 66, 127
1, 387623, Note_off_c, 1, 73, 127
1, 387627, Note_on_c, 4, 76, 127
1, 387780, Note_off_c, 4, 76, 127
1, 387784, Note_on_c, 2, 74, 127
1, 387784, Note_on_c, 12, 47, 127
1, 387940, Note_on_c, 6, 66, 127
1, 387940, Note_on_c, 2, 50, 127
1, 387957, Note_off_c, 12, 47, 127
1, 387957, Note_off_c, 2, 74, 127
1, 388093, Note_off_c, 2, 50, 127
1, 388093, Note_off_c, 6, 66, 127
1, 388097, Note_on_c, 2, 74, 127
1, 388097, Note_on_c, 6, 54, 127
1, 388250, Note_off_c, 6, 54, 127
1, 388250, Note_off_c, 2, 74, 127
1, 388254, Note_on_c, 0, 72, 127
1, 388254, Note_on_c, 4, 52, 127
1, 388407, Note_off_c, 4, 52, 127
1, 388407, Note_off_c, 0, 72, 127
1, 388411, Note_on_c, 12, 71, 127
1, 388411, Note_on_c, 2, 50, 127
1, 388564, Note_off_c, 12, 71, 127
1, 388568, Note_on_c, 10, 69, 127
1, 388568, Note_on_c, 6, 54, 127
1, 388584, Note_off_c, 2, 50, 127
1, 388721, Note_off_c, 6, 54, 127
1, 388721, Note_off_c, 10, 69, 127
1, 388725, Note_on_c, 8, 68, 127
1, 388725, Note_on_c, 12, 59, 127
1, 388878, Note_off_c, 12, 59, 127
1, 388878, Note_off_c, 8, 68, 127
1, 388882, Note_on_c, 6, 66, 127
1, 388882, Note_on_c, 10, 57, 127
1, 389035, Note_off_c, 10, 57, 127
1, 389035, Note_off_c, 6, 66, 127
1, 389039, Note_on_c, 4, 64, 127
1, 389039, Note_on_c, 8, 56, 127
1, 389192, Note_off_c, 8, 56, 127
1, 389195, Note_on_c, 8, 68, 127
1, 389195, Note_on_c, 12, 59, 127
1, 389212, Note_off_c, 4, 64, 127
1, 389323, Note_off_c, 12, 59, 127
1, 389349, Note_off_c, 8, 68, 127
1, 389353, Note_on_c, 12, 71, 127
1, 389353, Note_on_c, 4, 64, 127
1, 389481, Note_off_c, 4, 64, 127
1, 389507, Note_off_c, 12, 71, 127
1, 389511, Note_on_c, 2, 74, 127
1, 389664, Note_off_c, 2, 74, 127
1, 389668, Note_on_c, 0, 72, 127
1, 389668, Note_on_c, 10, 45, 127
1, 389825, Note_on_c, 4, 64, 127
1, 389825, Note_on_c, 0, 48, 127
1, 389841, Note_off_c, 10, 45, 127
1, 389841, Note_off_c, 0, 72, 127
1, 389978, Note_off_c, 0, 48, 127
1, 389978, Note_off_c, 4, 64, 127
1, 389982, Note_on_c, 0, 72, 127
1, 389982, Note_on_c, 4, 52, 127
1, 390135, Note_off_c, 4, 52, 127
1, 390135, Note_off_c, 0, 72, 127
1, 390139, Note_on_c, 12, 71, 127
1, 390139, Note_on_c, 2, 50, 127
1, 390292, Note_off_c, 2, 50, 127
1, 390292, Note_off_c, 12, 71, 127
1, 390296, Note_on_c, 10, 69, 127
1, 390296, Note_on_c, 0, 48, 127
1, 390449, Note_off_c, 0, 48, 127
1, 390453, Note_on_c, 0, 72, 127
1, 390453, Note_on_c, 10, 45, 127
1, 390469, Note_off_c, 10, 69, 127
1, 390606, Note_off_c, 10, 45, 127
1, 390606, Note_off_c, 0, 72, 127
1, 390610, Note_on_c, 4, 76, 127
1, 390610, Note_on_c, 0, 48, 127
1, 390763, Note_off_c, 0, 48, 127
1, 390763, Note_off_c, 4, 76, 127
1, 390766, Note_on_c, 2, 74, 127
1, 390766, Note_on_c, 4, 52, 127
1, 390919, Note_off_c, 4, 52, 127
1, 390919, Note_off_c, 2, 74, 127
1, 390923, Note_on_c, 0, 72, 127
1, 390923, Note_on_c, 10, 57, 127
1, 391076, Note_off_c, 10, 57, 127
1, 391080, Note_on_c, 4, 76, 127
1, 391080, Note_on_c, 0, 60, 127
1, 391096, Note_off_c, 0, 72, 127
1, 391233, Note_off_c, 0, 60, 127
1, 391233, Note_off_c, 4, 76, 127
1, 391237, Note_on_c, 10, 81, 127
1, 391237, Note_on_c, 6, 54, 127
1, 391390, Note_off_c, 6, 54, 127
1, 391390, Note_off_c, 10, 81, 127
1, 391394, Note_on_c, 7, 79, 127
1, 391394, Note_on_c, 7, 55, 127
1, 391547, Note_off_c, 7, 55, 127
1, 391547, Note_off_c, 7, 79, 127
1, 391551, Note_on_c, 6, 78, 127
1, 391551, Note_on_c, 10, 57, 127
1, 391704, Note_off_c, 10, 57, 127
1, 391708, Note_on_c, 10, 81, 127
1, 391708, Note_on_c, 6, 54, 127
1, 391724, Note_off_c, 6, 78, 127
1, 391861, Note_off_c, 6, 54, 127
1, 391861, Note_off_c, 10, 81, 127
1, 391865, Note_on_c, 0, 84, 127
1, 391865, Note_on_c, 2, 50, 127
1, 392018, Note_off_c, 2, 50, 127
1, 392018, Note_off_c, 0, 84, 127
1, 392021, Note_on_c, 12, 83, 127
1, 392021, Note_on_c, 4, 52, 127
1, 392174, Note_off_c, 4, 52, 127
1, 392174, Note_off_c, 12, 83, 127
1, 392178, Note_on_c, 10, 81, 127
1, 392178, Note_on_c, 6, 54, 127
1, 392331, Note_off_c, 6, 54, 127
1, 392331, Note_off_c, 10, 81, 127
1, 392335, Note_on_c, 7, 79, 127
1, 392335, Note_on_c, 2, 50, 127
1, 392488, Note_off_c, 2, 50, 127
1, 392488, Note_off_c, 7, 79, 127
1, 392492, Note_on_c, 6, 78, 127
1, 392492, Note_on_c, 10, 45, 127
1, 392645, Note_off_c, 10, 45, 127
1, 392645, Note_off_c, 6, 78, 127
1, 392649, Note_on_c, 4, 76, 127
1, 392649, Note_on_c, 12, 47, 127
1, 392802, Note_off_c, 12, 47, 127
1, 392802, Note_off_c, 4, 76, 127
1, 392806, Note_on_c, 2, 74, 127
1, 392806, Note_on_c, 0, 48, 127
1, 392959, Note_off_c, 0, 48, 127
1, 392963, Note_on_c, 6, 78, 127
1, 392963, Note_on_c, 10, 45, 127
1, 392979, Note_off_c, 2, 74, 127
1, 393116, Note_off_c, 10, 45, 127
1, 393116, Note_off_c, 6, 78, 127
1, 393120, Note_on_c, 10, 81, 127
1, 393120, Note_on_c, 6, 42, 127
1, 393273, Note_off_c, 6, 42, 127
1, 393273, Note_off_c, 10, 81, 127
1, 393276, Note_on_c, 0, 84, 127
1, 393276, Note_on_c, 2, 38, 127
1, 393429, Note_off_c, 2, 38, 127
1, 393429, Note_off_c, 0, 84, 127
1, 393433, Note_on_c, 12, 83, 127
1, 393433, Note_on_c, 7, 43, 127
1, 393586, Note_off_c, 12, 83, 127
1, 393590, Note_on_c, 2, 86, 127
1, 393743, Note_off_c, 2, 86, 127
1, 393747, Note_on_c, 7, 79, 127
1, 393747, Note_on_c, 12, 47, 127
1, 393900, Note_off_c, 7, 79, 127
1, 393904, Note_on_c, 10, 81, 127
1, 394055, Note_off_c, 12, 47, 127
1, 394057, Note_off_c, 10, 81, 127
1, 394061, Note_on_c, 12, 83, 127
1, 394061, Note_on_c, 2, 50, 127
1, 394218, Note_on_c, 7, 79, 127
1, 394234, Note_off_c, 12, 83, 127
1, 394369, Note_off_c, 2, 50, 127
1, 394371, Note_off_c, 7, 79, 127
1, 394375, Note_on_c, 2, 74, 127
1, 394375, Note_on_c, 5, 53, 127
1, 394528, Note_off_c, 2, 74, 127
1, 394532, Note_on_c, 4, 76, 127
1, 394674, Note_off_c, 7, 43, 127
1, 394685, Note_off_c, 4, 76, 127
1, 394688, Note_on_c, 5, 77, 127
1, 394839, Note_off_c, 5, 53, 127
1, 394845, Note_on_c, 2, 74, 127
1, 394845, Note_on_c, 5, 53, 127
1, 394861, Note_off_c, 5, 77, 127
1, 394998, Note_off_c, 5, 53, 127
1, 394998, Note_off_c, 2, 74, 127
1, 395002, Note_on_c, 12, 71, 127
1, 395002, Note_on_c, 4, 52, 127
1, 395155, Note_off_c, 4, 52, 127
1, 395155, Note_off_c, 12, 71, 127
1, 395159, Note_on_c, 2, 74, 127
1, 395159, Note_on_c, 2, 50, 127
1, 395312, Note_off_c, 2, 50, 127
1, 395312, Note_off_c, 2, 74, 127
1, 395316, Note_on_c, 4, 76, 127
1, 395316, Note_on_c, 0, 48, 127
1, 395469, Note_off_c, 4, 76, 127
1, 395473, Note_on_c, 7, 79, 127
1, 395626, Note_off_c, 7, 79, 127
1, 395630, Note_on_c, 0, 72, 127
1, 395630, Note_on_c, 4, 52, 127
1, 395783, Note_off_c, 0, 72, 127
1, 395787, Note_on_c, 2, 74, 127
1, 395938, Note_off_c, 4, 52, 127
1, 395940, Note_off_c, 2, 74, 127
1, 395943, Note_on_c, 4, 76, 127
1, 395943, Note_on_c, 10, 57, 127
1, 396100, Note_on_c, 0, 72, 127
1, 396116, Note_off_c, 4, 76, 127
1, 396251, Note_off_c, 10, 57, 127
1, 396253, Note_off_c, 0, 72, 127
1, 396257, Note_on_c, 10, 69, 127
1, 396257, Note_on_c, 0, 60, 127
1, 396410, Note_off_c, 10, 69, 127
1, 396414, Note_on_c, 12, 71, 127
1, 396557, Note_off_c, 0, 48, 127
1, 396567, Note_off_c, 12, 71, 127
1, 396571, Note_on_c, 0, 72, 127
1, 396721, Note_off_c, 0, 60, 127
1, 396728, Note_on_c, 10, 69, 127
1, 396728, Note_on_c, 0, 60, 127
1, 396744, Note_off_c, 0, 72, 127
1, 396881, Note_off_c, 0, 60, 127
1, 396881, Note_off_c, 10, 69, 127
1, 396885, Note_on_c, 4, 64, 127
1, 396885, Note_on_c, 12, 59, 127
1, 397038, Note_off_c, 12, 59, 127
1, 397038, Note_off_c, 4, 64, 127
1, 397042, Note_on_c, 7, 67, 127
1, 397042, Note_on_c, 0, 60, 127
1, 397195, Note_off_c, 0, 60, 127
1, 397195, Note_off_c, 7, 67, 127
1, 397198, Note_on_c, 6, 66, 127
1, 397198, Note_on_c, 2, 50, 127
1, 397351, Note_off_c, 6, 66, 127
1, 397355, Note_on_c, 10, 69, 127
1, 397508, Note_off_c, 10, 69, 127
1, 397512, Note_on_c, 2, 62, 127
1, 397512, Note_on_c, 6, 54, 127
1, 397665, Note_off_c, 2, 62, 127
1, 397669, Note_on_c, 4, 64, 127
1, 397820, Note_off_c, 6, 54, 127
1, 397822, Note_off_c, 4, 64, 127
1, 397826, Note_on_c, 6, 66, 127
1, 397826, Note_on_c, 10, 57, 127
1, 397983, Note_on_c, 2, 62, 127
1, 397999, Note_off_c, 6, 66, 127
1, 398134, Note_off_c, 10, 57, 127
1, 398136, Note_off_c, 2, 62, 127
1, 398140, Note_on_c, 10, 57, 127
1, 398140, Note_on_c, 0, 60, 127
1, 398293, Note_off_c, 10, 57, 127
1, 398297, Note_on_c, 12, 59, 127
1, 398440, Note_off_c, 2, 50, 127
1, 398447, Note_off_c, 0, 60, 127
1, 398451, Note_off_c, 12, 59, 127
1, 398455, Note_on_c, 0, 60, 127
1, 398607, Note_off_c, 0, 60, 127
1, 398611, Note_on_c, 10, 57, 127
1, 398611, Note_on_c, 0, 60, 127
1, 398764, Note_off_c, 0, 60, 127
1, 398764, Note_off_c, 10, 57, 127
1, 398768, Note_on_c, 6, 54, 127
1, 398768, Note_on_c, 2, 62, 127
1, 398921, Note_off_c, 2, 62, 127
1, 398921, Note_off_c, 6, 54, 127
1, 398925, Note_on_c, 10, 57, 127
1, 398925, Note_on_c, 6, 54, 127
1, 399078, Note_off_c, 6, 54, 127
1, 399078, Note_off_c, 10, 57, 127
1, 399082, Note_on_c, 12, 59, 127
1, 399082, Note_on_c, 7, 55, 127
1, 399243, Note_off_c, 12, 59, 127
1, 399247, Note_on_c, 2, 62, 127
1, 399247, Note_on_c, 12, 59, 127
1, 399264, Note_off_c, 7, 55, 127
1, 399408, Note_off_c, 12, 59, 127
1, 399408, Note_off_c, 2, 62, 127
1, 399413, Note_on_c, 7, 55, 127
1, 399413, Note_on_c, 2, 62, 127
1, 399574, Note_off_c, 2, 62, 127
1, 399574, Note_off_c, 7, 55, 127
1, 399578, Note_on_c, 10, 57, 127
1, 399578, Note_on_c, 6, 66, 127
1, 399739, Note_off_c, 6, 66, 127
1, 399739, Note_off_c, 10, 57, 127
1, 399744, Note_on_c, 12, 59, 127
1, 399744, Note_on_c, 7, 67, 127
1, 399905, Note_off_c, 7, 67, 127
1, 399905, Note_off_c, 12, 59, 127
1, 399909, Note_on_c, 7, 55, 127
1, 399909, Note_on_c, 6, 66, 127
1, 399988, Note_off_c, 6, 66, 127
1, 399992, Note_on_c, 4, 64, 127
1, 400071, Note_off_c, 4, 64, 127
1, 400074, Note_on_c, 12, 59, 127
1, 400074, Note_on_c, 2, 62, 127
1, 400091, Note_off_c, 7, 55, 127
1, 400153, Note_off_c, 2, 62, 127
1, 400157, Note_on_c, 0, 60, 127
1, 400235, Note_off_c, 12, 59, 127
1, 400236, Note_off_c, 0, 60, 127
1, 400240, Note_on_c, 2, 62, 127
1, 400240, Note_on_c, 12, 59, 127
1, 400319, Note_off_c, 12, 59, 127
1, 400322, Note_on_c, 10, 57, 127
1, 400401, Note_off_c, 10, 57, 127
1, 400401, Note_off_c, 2, 62, 127
1, 400405, Note_on_c, 7, 67, 127
1, 400405, Note_on_c, 7, 55, 127
1, 401353, Note_on_c, 12, 71, 127
1, 401355, Note_off_c, 7, 67, 127
1, 401432, Note_off_c, 12, 71, 127
1, 401445, Note_on_c, 10, 69, 127
1, 401524, Note_off_c, 10, 69, 127
1, 401537, Note_on_c, 7, 67, 127
1, 401616, Note_off_c, 7, 67, 127
1, 401629, Note_on_c, 10, 69, 127
1, 401708, Note_off_c, 10, 69, 127
1, 401709, Note_off_c, 7, 55, 127
1, 401740, Note_on_c, 7, 43, 127
1, 401740, Note_on_c, 12, 71, 127
1, 402065, Note_off_c, 12, 71, 127
1, 402070, Note_on_c, 10, 69, 127
1, 402393, Note_off_c, 7, 43, 127
1, 402395, Note_off_c, 10, 69, 127
1, 402401, Note_on_c, 7, 55, 127
1, 402401, Note_on_c, 12, 71, 127
1, 402726, Note_off_c, 12, 71, 127
1, 402732, Note_on_c, 0, 72, 127
1, 403057, Note_off_c, 0, 72, 127
1, 403062, Note_on_c, 2, 74, 127
1, 403381, Note_off_c, 7, 55, 127
1, 403387, Note_off_c, 2, 74, 127
1, 403393, Note_on_c, 6, 54, 127
1, 403393, Note_on_c, 10, 69, 127
1, 403554, Note_off_c, 6, 54, 127
1, 403559, Note_on_c, 4, 52, 127
1, 403718, Note_off_c, 10, 69, 127
1, 403720, Note_off_c, 4, 52, 127
1, 403724, Note_on_c, 6, 54, 127
1, 403724, Note_on_c, 2, 74, 127
1, 404049, Note_off_c, 2, 74, 127
1, 404049, Note_off_c, 6, 54, 127
1, 404055, Note_on_c, 2, 50, 127
1, 404055, Note_on_c, 0, 72, 127
1, 404380, Note_off_c, 0, 72, 127
1, 404380, Note_off_c, 2, 50, 127
1, 404385, Note_on_c, 7, 55, 127
1, 404385, Note_on_c, 7, 67, 127
1, 404385, Note_on_c, 12, 71, 127
1, 404710, Note_off_c, 12, 71, 127
1, 404710, Note_off_c, 7, 67, 127
1, 404710, Note_off_c, 7, 55, 127
1, 404716, Note_on_c, 10, 57, 127
1, 404716, Note_on_c, 6, 66, 127
1, 404716, Note_on_c, 2, 74, 127
1, 405041, Note_off_c, 2, 74, 127
1, 405041, Note_off_c, 6, 66, 127
1, 405041, Note_off_c, 10, 57, 127
1, 405047, Note_on_c, 12, 59, 127
1, 405047, Note_on_c, 7, 67, 127
1, 405047, Note_on_c, 7, 79, 127
1, 405372, Note_off_c, 7, 67, 127
1, 405372, Note_off_c, 12, 59, 127
1, 405378, Note_on_c, 0, 60, 127
1, 405378, Note_on_c, 10, 69, 127
1, 405703, Note_off_c, 10, 69, 127
1, 405703, Note_off_c, 0, 60, 127
1, 405708, Note_on_c, 2, 62, 127
1, 405708, Note_on_c, 12, 71, 127
1, 406027, Note_off_c, 7, 79, 127
1, 406033, Note_off_c, 12, 71, 127
1, 406039, Note_on_c, 6, 66, 127
1, 406039, Note_on_c, 10, 81, 127
1, 406200, Note_off_c, 10, 81, 127
1, 406204, Note_on_c, 7, 79, 127
1, 406364, Note_off_c, 6, 66, 127
1, 406365, Note_off_c, 7, 79, 127
1, 406370, Note_on_c, 12, 71, 127
1, 406370, Note_on_c, 6, 78, 127
1, 406688, Note_off_c, 2, 62, 127
1, 406695, Note_off_c, 12, 71, 127
1, 406700, Note_on_c, 3, 63, 127
1, 406700, Note_on_c, 10, 69, 127
1, 407023, Note_off_c, 6, 78, 127
1, 407025, Note_off_c, 10, 69, 127
1, 407025, Note_off_c, 3, 63, 127
1, 407031, Note_on_c, 4, 64, 127
1, 407031, Note_on_c, 7, 67, 127
1, 407031, Note_on_c, 7, 79, 127
1, 407356, Note_off_c, 7, 79, 127
1, 407356, Note_off_c, 7, 67, 127
1, 407362, Note_on_c, 12, 71, 127
1, 407362, Note_on_c, 6, 78, 127
1, 407687, Note_off_c, 6, 78, 127
1, 407687, Note_off_c, 12, 71, 127
1, 407693, Note_on_c, 4, 76, 127
1, 407693, Note_on_c, 7, 79, 127
1, 408011, Note_off_c, 4, 64, 127
1, 408018, Note_off_c, 7, 79, 127
1, 408023, Note_on_c, 0, 60, 127
1, 408023, Note_on_c, 10, 81, 127
1, 408348, Note_off_c, 10, 81, 127
1, 408348, Note_off_c, 0, 60, 127
1, 408354, Note_on_c, 7, 55, 127
1, 408354, Note_on_c, 12, 83, 127
1, 408673, Note_off_c, 4, 76, 127
1, 408679, Note_off_c, 12, 83, 127
1, 408679, Note_off_c, 7, 55, 127
1, 408685, Note_on_c, 2, 62, 127
1, 408685, Note_on_c, 6, 78, 127
1, 408850, Note_on_c, 4, 76, 127
1, 409010, Note_off_c, 6, 78, 127
1, 409010, Note_off_c, 2, 62, 127
1, 409011, Note_off_c, 4, 76, 127
1, 409015, Note_on_c, 7, 67, 127
1, 409015, Note_on_c, 2, 74, 127
1, 409015, Note_on_c, 12, 83, 127
1, 409340, Note_off_c, 12, 83, 127
1, 409340, Note_off_c, 7, 67, 127
1, 409346, Note_on_c, 10, 69, 127
1, 409346, Note_on_c, 10, 81, 127
1, 409507, Note_off_c, 10, 69, 127
1, 409512, Note_on_c, 12, 71, 127
1, 409668, Note_off_c, 2, 74, 127
1, 409671, Note_off_c, 10, 81, 127
1, 409673, Note_off_c, 12, 71, 127
1, 409677, Note_on_c, 0, 72, 127
1, 409677, Note_on_c, 4, 76, 127
1, 409677, Note_on_c, 7, 79, 127
1, 410002, Note_off_c, 7, 79, 127
1, 410002, Note_off_c, 4, 76, 127
1, 410002, Note_off_c, 0, 72, 127
1, 410008, Note_on_c, 12, 71, 127
1, 410008, Note_on_c, 2, 74, 127
1, 410008, Note_on_c, 10, 81, 127
1, 410169, Note_off_c, 10, 81, 127
1, 410173, Note_on_c, 12, 83, 127
1, 410333, Note_off_c, 2, 74, 127
1, 410333, Note_off_c, 12, 71, 127
1, 410334, Note_off_c, 12, 83, 127
1, 410338, Note_on_c, 10, 69, 127
1, 410338, Note_on_c, 4, 76, 127
1, 410338, Note_on_c, 0, 84, 127
1, 410663, Note_off_c, 4, 76, 127
1, 410663, Note_off_c, 10, 69, 127
1, 410669, Note_on_c, 2, 74, 127
1, 410669, Note_on_c, 6, 78, 127
1, 410994, Note_off_c, 6, 78, 127
1, 410994, Note_off_c, 2, 74, 127
1, 411000, Note_on_c, 7, 67, 127
1, 411000, Note_on_c, 7, 79, 127
1, 411258, Note_off_c, 0, 84, 127
1, 411325, Note_off_c, 7, 79, 127
1, 411330, Note_on_c, 2, 74, 127
1, 411330, Note_on_c, 12, 83, 127
1, 411491, Note_off_c, 12, 83, 127
1, 411496, Note_on_c, 10, 81, 127
1, 411655, Note_off_c, 2, 74, 127
1, 411657, Note_off_c, 10, 81, 127
1, 411661, Note_on_c, 7, 79, 127
1, 411661, Note_on_c, 12, 83, 127
1, 411932, Note_off_c, 12, 83, 127
1, 411932, Note_off_c, 7, 79, 127
1, 411973, Note_off_c, 7, 67, 127
1, 411991, Note_on_c, 7, 67, 127
1, 411991, Note_on_c, 6, 78, 127
1, 411991, Note_on_c, 12, 71, 127
1, 412316, Note_off_c, 12, 71, 127
1, 412316, Note_off_c, 6, 78, 127
1, 412322, Note_on_c, 4, 76, 127
1, 412322, Note_on_c, 1, 73, 127
1, 412644, Note_off_c, 7, 67, 127
1, 412647, Note_off_c, 1, 73, 127
1, 412647, Note_off_c, 4, 76, 127
1, 412652, Note_on_c, 7, 55, 127
1, 412652, Note_on_c, 6, 78, 127
1, 412652, Note_on_c, 12, 71, 127
1, 412813, Note_off_c, 6, 78, 127
1, 412818, Note_on_c, 7, 79, 127
1, 412977, Note_off_c, 12, 71, 127
1, 412979, Note_off_c, 7, 79, 127
1, 412983, Note_on_c, 10, 81, 127
1, 412983, Note_on_c, 1, 73, 127
1, 413305, Note_off_c, 7, 55, 127
1, 413308, Note_off_c, 1, 73, 127
1, 413314, Note_on_c, 6, 54, 127
1, 413314, Note_on_c, 3, 75, 127
1, 413639, Note_off_c, 3, 75, 127
1, 413639, Note_off_c, 6, 54, 127
1, 413644, Note_on_c, 4, 52, 127
1, 413644, Note_on_c, 4, 76, 127
1, 413903, Note_off_c, 10, 81, 127
1, 413969, Note_off_c, 4, 76, 127
1, 413969, Note_off_c, 4, 52, 127
1, 413975, Note_on_c, 4, 64, 127
1, 413975, Note_on_c, 7, 79, 127
1, 413975, Note_on_c, 12, 71, 127
1, 414136, Note_off_c, 7, 79, 127
1, 414136, Note_off_c, 4, 64, 127
1, 414141, Note_on_c, 3, 63, 127
1, 414141, Note_on_c, 6, 78, 127
1, 414300, Note_off_c, 12, 71, 127
1, 414302, Note_off_c, 6, 78, 127
1, 414302, Note_off_c, 3, 63, 127
1, 414306, Note_on_c, 4, 64, 127
1, 414306, Note_on_c, 7, 79, 127
1, 414306, Note_on_c, 4, 76, 127
1, 414612, Note_off_c, 4, 76, 127
1, 414612, Note_off_c, 7, 79, 127
1, 414636, Note_on_c, 7, 67, 127
1, 414636, Note_on_c, 2, 74, 127
1, 414961, Note_off_c, 2, 74, 127
1, 414961, Note_off_c, 7, 67, 127
1, 414966, Note_on_c, 10, 69, 127
1, 414966, Note_on_c, 0, 72, 127
1, 415285, Note_off_c, 4, 64, 127
1, 415291, Note_off_c, 0, 72, 127
1, 415291, Note_off_c, 10, 69, 127
1, 415297, Note_on_c, 4, 52, 127
1, 415297, Note_on_c, 7, 67, 127
1, 415297, Note_on_c, 2, 74, 127
1, 415458, Note_off_c, 2, 74, 127
1, 415462, Note_on_c, 4, 76, 127
1, 415622, Note_off_c, 7, 67, 127
1, 415623, Note_off_c, 4, 76, 127
1, 415628, Note_on_c, 10, 69, 127
1, 415628, Note_on_c, 5, 77, 127
1, 415950, Note_off_c, 4, 52, 127
1, 415953, Note_off_c, 10, 69, 127
1, 415958, Note_on_c, 2, 50, 127
1, 415958, Note_on_c, 12, 71, 127
1, 416283, Note_off_c, 12, 71, 127
1, 416283, Note_off_c, 2, 50, 127
1, 416289, Note_on_c, 0, 48, 127
1, 416289, Note_on_c, 0, 72, 127
1, 416565, Note_off_c, 5, 77, 127
1, 416614, Note_off_c, 0, 72, 127
1, 416614, Note_off_c, 0, 48, 127
1, 416620, Note_on_c, 0, 60, 127
1, 416620, Note_on_c, 7, 67, 127
1, 416620, Note_on_c, 4, 76, 127
1, 416781, Note_off_c, 4, 76, 127
1, 416781, Note_off_c, 0, 60, 127
1, 416785, Note_on_c, 12, 59, 127
1, 416785, Note_on_c, 2, 74, 127
1, 416945, Note_off_c, 7, 67, 127
1, 416946, Note_off_c, 2, 74, 127
1, 416946, Note_off_c, 12, 59, 127
1, 416951, Note_on_c, 0, 60, 127
1, 416951, Note_on_c, 0, 72, 127
1, 416951, Note_on_c, 4, 76, 127
1, 417112, Note_off_c, 4, 76, 127
1, 417112, Note_off_c, 0, 60, 127
1, 417116, Note_on_c, 2, 62, 127
1, 417116, Note_on_c, 6, 78, 127
1, 417276, Note_off_c, 0, 72, 127
1, 417277, Note_off_c, 6, 78, 127
1, 417277, Note_off_c, 2, 62, 127
1, 417281, Note_on_c, 4, 64, 127
1, 417281, Note_on_c, 12, 71, 127
1, 417281, Note_on_c, 7, 79, 127
1, 417442, Note_off_c, 4, 64, 127
1, 417447, Note_on_c, 2, 62, 127
1, 417606, Note_off_c, 12, 71, 127
1, 417608, Note_off_c, 2, 62, 127
1, 417612, Note_on_c, 1, 61, 127
1, 417612, Note_on_c, 10, 69, 127
1, 417773, Note_off_c, 1, 61, 127
1, 417777, Note_on_c, 10, 57, 127
1, 417934, Note_off_c, 7, 79, 127
1, 417937, Note_off_c, 10, 69, 127
1, 417938, Note_off_c, 10, 57, 127
1, 417943, Note_on_c, 2, 62, 127
1, 417943, Note_on_c, 12, 71, 127
1, 417943, Note_on_c, 6, 78, 127
1, 418104, Note_off_c, 12, 71, 127
1, 418104, Note_off_c, 2, 62, 127
1, 418108, Note_on_c, 1, 61, 127
1, 418108, Note_on_c, 1, 73, 127
1, 418269, Note_off_c, 1, 73, 127
1, 418269, Note_off_c, 1, 61, 127
1, 418273, Note_on_c, 12, 59, 127
1, 418273, Note_on_c, 2, 74, 127
1, 418434, Note_off_c, 12, 59, 127
1, 418439, Note_on_c, 10, 57, 127
1, 418596, Note_off_c, 6, 78, 127
1, 418600, Note_off_c, 10, 57, 127
1, 418604, Note_on_c, 12, 59, 127
1, 418604, Note_on_c, 4, 76, 127
1, 418765, Note_off_c, 12, 59, 127
1, 418770, Note_on_c, 8, 56, 127
1, 418929, Note_off_c, 4, 76, 127
1, 418931, Note_off_c, 8, 56, 127
1, 418935, Note_on_c, 10, 57, 127
1, 418935, Note_on_c, 6, 78, 127
1, 419096, Note_off_c, 10, 57, 127
1, 419100, Note_on_c, 12, 59, 127
1, 419253, Note_off_c, 2, 74, 127
1, 419260, Note_off_c, 6, 78, 127
1, 419261, Note_off_c, 12, 59, 127
1, 419266, Note_on_c, 10, 57, 127
1, 419266, Note_on_c, 1, 73, 127
1, 419266, Note_on_c, 7, 79, 127
1, 419427, Note_off_c, 1, 73, 127
1, 419427, Note_off_c, 10, 57, 127
1, 419431, Note_on_c, 7, 55, 127
1, 419431, Note_on_c, 12, 71, 127
1, 419591, Note_off_c, 7, 79, 127
1, 419592, Note_off_c, 12, 71, 127
1, 419592, Note_off_c, 7, 55, 127
1, 419596, Note_on_c, 6, 54, 127
1, 419596, Note_on_c, 1, 73, 127
1, 419596, Note_on_c, 10, 81, 127
1, 419757, Note_off_c, 1, 73, 127
1, 419757, Note_off_c, 6, 54, 127
1, 419762, Note_on_c, 4, 52, 127
1, 419762, Note_on_c, 2, 74, 127
1, 419921, Note_off_c, 10, 81, 127
1, 419923, Note_off_c, 2, 74, 127
1, 419923, Note_off_c, 4, 52, 127
1, 419927, Note_on_c, 2, 50, 127
1, 419927, Note_on_c, 4, 76, 127
1, 419927, Note_on_c, 7, 79, 127
1, 420088, Note_off_c, 2, 50, 127
1, 420092, Note_on_c, 1, 49, 127
1, 420252, Note_off_c, 7, 79, 127
1, 420253, Note_off_c, 1, 49, 127
1, 420258, Note_on_c, 2, 50, 127
1, 420258, Note_on_c, 6, 78, 127
1, 420419, Note_off_c, 2, 50, 127
1, 420423, Note_on_c, 1, 49, 127
1, 420580, Note_off_c, 4, 76, 127
1, 420584, Note_off_c, 1, 49, 127
1, 420589, Note_on_c, 12, 47, 127
1, 420589, Note_on_c, 2, 74, 127
1, 420750, Note_off_c, 12, 47, 127
1, 420754, Note_on_c, 10, 45, 127
1, 420911, Note_off_c, 6, 78, 127
1, 420915, Note_off_c, 10, 45, 127
1, 420919, Note_on_c, 7, 43, 127
1, 420919, Note_on_c, 4, 76, 127
1, 421080, Note_off_c, 7, 43, 127
1, 421085, Note_on_c, 4, 40, 127
1, 421242, Note_off_c, 2, 74, 127
1, 421246, Note_off_c, 4, 40, 127
1, 421250, Note_on_c, 10, 45, 127
1, 421250, Note_on_c, 1, 73, 127
1, 421572, Note_off_c, 4, 76, 127
1, 421575, Note_off_c, 1, 73, 127
1, 421575, Note_off_c, 10, 45, 127
1, 421581, Note_on_c, 2, 38, 127
1, 421581, Note_on_c, 2, 74, 127
1, 421906, Note_off_c, 2, 38, 127
1, 421911, Note_on_c, 6, 42, 127
1, 422072, Note_off_c, 6, 42, 127
1, 422077, Note_on_c, 10, 45, 127
1, 422238, Note_off_c, 10, 45, 127
1, 422242, Note_on_c, 2, 50, 127
1, 422501, Note_off_c, 2, 74, 127
1, 422582, Note_on_c, 4, 76, 127
1, 422866, Note_off_c, 4, 76, 127
1, 422894, Note_off_c, 2, 50, 127
1, 422903, Note_on_c, 2, 50, 127
1, 422903, Note_on_c, 6, 78, 127
1, 423228, Note_off_c, 6, 78, 127
1, 423228, Note_off_c, 2, 50, 127
1, 423233, Note_on_c, 2, 62, 127
1, 423233, Note_on_c, 2, 74, 127
1, 423558, Note_off_c, 2, 74, 127
1, 423564, Note_on_c, 4, 76, 127
1, 423886, Note_off_c, 2, 62, 127
1, 423889, Note_off_c, 4, 76, 127
1, 423895, Note_on_c, 0, 60, 127
1, 423895, Note_on_c, 6, 78, 127
1, 424220, Note_off_c, 6, 78, 127
1, 424220, Note_off_c, 0, 60, 127
1, 424225, Note_on_c, 12, 59, 127
1, 424225, Note_on_c, 7, 79, 127
1, 424386, Note_off_c, 12, 59, 127
1, 424391, Note_on_c, 10, 57, 127
1, 424550, Note_off_c, 7, 79, 127
1, 424552, Note_off_c, 10, 57, 127
1, 424556, Note_on_c, 12, 59, 127
1, 424556, Note_on_c, 2, 74, 127
1, 424717, Note_off_c, 12, 59, 127
1, 424721, Note_on_c, 0, 60, 127
1, 424881, Note_off_c, 2, 74, 127
1, 424882, Note_off_c, 0, 60, 127
1, 424887, Note_on_c, 12, 59, 127
1, 424887, Note_on_c, 7, 79, 127
1, 425048, Note_off_c, 12, 59, 127
1, 425052, Note_on_c, 10, 57, 127
1, 425187, Note_off_c, 7, 79, 127
1, 425213, Note_off_c, 10, 57, 127
1, 425218, Note_on_c, 7, 55, 127
1, 425218, Note_on_c, 10, 81, 127
1, 425379, Note_off_c, 7, 55, 127
1, 425383, Note_on_c, 6, 54, 127
1, 425518, Note_off_c, 10, 81, 127
1, 425544, Note_off_c, 6, 54, 127
1, 425548, Note_on_c, 7, 55, 127
1, 425548, Note_on_c, 2, 74, 127
1, 425548, Note_on_c, 12, 83, 127
1, 425873, Note_off_c, 12, 83, 127
1, 425873, Note_off_c, 2, 74, 127
1, 425873, Note_off_c, 7, 55, 127
1, 425879, Note_on_c, 7, 67, 127
1, 425879, Note_on_c, 12, 71, 127
1, 425879, Note_on_c, 4, 76, 127
1, 426204, Note_off_c, 4, 76, 127
1, 426204, Note_off_c, 12, 71, 127
1, 426210, Note_on_c, 1, 73, 127
1, 426210, Note_on_c, 10, 81, 127
1, 426532, Note_off_c, 7, 67, 127
1, 426535, Note_off_c, 1, 73, 127
1, 426540, Note_on_c, 6, 66, 127
1, 426540, Note_on_c, 3, 75, 127
1, 426865, Note_off_c, 3, 75, 127
1, 426865, Note_off_c, 6, 66, 127
1, 426871, Note_on_c, 4, 64, 127
1, 426871, Note_on_c, 4, 76, 127
1, 427032, Note_off_c, 4, 64, 127
1, 427037, Note_on_c, 3, 63, 127
1, 427190, Note_off_c, 10, 81, 127
1, 427196, Note_off_c, 4, 76, 127
1, 427198, Note_off_c, 3, 63, 127
1, 427202, Note_on_c, 4, 64, 127
1, 427202, Note_on_c, 12, 71, 127
1, 427202, Note_on_c, 7, 79, 127
1, 427363, Note_off_c, 7, 79, 127
1, 427363, Note_off_c, 4, 64, 127
1, 427367, Note_on_c, 6, 66, 127
1, 427367, Note_on_c, 6, 78, 127
1, 427527, Note_off_c, 12, 71, 127
1, 427528, Note_off_c, 6, 78, 127
1, 427528, Note_off_c, 6, 66, 127
1, 427533, Note_on_c, 4, 64, 127
1, 427533, Note_on_c, 4, 76, 127
1, 427533, Note_on_c, 7, 79, 127
1, 427694, Note_off_c, 4, 64, 127
1, 427698, Note_on_c, 2, 62, 127
1, 427858, Note_off_c, 7, 79, 127
1, 427858, Note_off_c, 4, 76, 127
1, 427859, Note_off_c, 2, 62, 127
1, 427863, Note_on_c, 0, 60, 127
1, 427863, Note_on_c, 6, 78, 127
1, 428024, Note_off_c, 0, 60, 127
1, 428029, Note_on_c, 12, 59, 127
1, 428188, Note_off_c, 6, 78, 127
1, 428190, Note_off_c, 12, 59, 127
1, 428194, Note_on_c, 11, 58, 127
1, 428194, Note_on_c, 7, 79, 127
1, 428355, Note_off_c, 11, 58, 127
1, 428359, Note_on_c, 4, 64, 127
1, 428519, Note_off_c, 7, 79, 127
1, 428520, Note_off_c, 4, 64, 127
1, 428525, Note_on_c, 6, 66, 127
1, 428525, Note_on_c, 1, 73, 127
1, 428525, Note_on_c, 4, 76, 127
1, 428686, Note_off_c, 6, 66, 127
1, 428690, Note_on_c, 7, 67, 127
1, 428850, Note_off_c, 1, 73, 127
1, 428851, Note_off_c, 7, 67, 127
1, 428855, Note_on_c, 10, 69, 127
1, 428855, Note_on_c, 5, 77, 127
1, 429178, Note_off_c, 4, 76, 127
1, 429180, Note_off_c, 10, 69, 127
1, 429186, Note_on_c, 10, 57, 127
1, 429186, Note_on_c, 2, 74, 127
1, 429347, Note_off_c, 2, 74, 127
1, 429352, Note_on_c, 0, 72, 127
1, 429511, Note_off_c, 10, 57, 127
1, 429513, Note_off_c, 0, 72, 127
1, 429517, Note_on_c, 7, 55, 127
1, 429517, Note_on_c, 12, 71, 127
1, 429678, Note_off_c, 12, 71, 127
1, 429678, Note_off_c, 7, 55, 127
1, 429682, Note_on_c, 10, 57, 127
1, 429682, Note_on_c, 10, 69, 127
1, 429835, Note_off_c, 5, 77, 127
1, 429843, Note_off_c, 10, 69, 127
1, 429843, Note_off_c, 10, 57, 127
1, 429848, Note_on_c, 12, 59, 127
1, 429848, Note_on_c, 4, 76, 127
1, 429848, Note_on_c, 7, 67, 127
1, 430009, Note_off_c, 7, 67, 127
1, 430009, Note_off_c, 4, 76, 127
1, 430009, Note_off_c, 12, 59, 127
1, 430013, Note_on_c, 7, 55, 127
1, 430013, Note_on_c, 3, 75, 127
1, 430013, Note_on_c, 6, 66, 127
1, 430174, Note_off_c, 6, 66, 127
1, 430174, Note_off_c, 3, 75, 127
1, 430174, Note_off_c, 7, 55, 127
1, 430178, Note_on_c, 4, 52, 127
1, 430178, Note_on_c, 4, 76, 127
1, 430178, Note_on_c, 7, 67, 127
1, 430339, Note_off_c, 7, 67, 127
1, 430339, Note_off_c, 4, 52, 127
1, 430344, Note_on_c, 6, 54, 127
1, 430344, Note_on_c, 10, 69, 127
1, 430505, Note_off_c, 10, 69, 127
1, 430505, Note_off_c, 6, 54, 127
1, 430509, Note_on_c, 7, 55, 127
1, 430509, Note_on_c, 12, 71, 127
1, 430670, Note_off_c, 12, 71, 127
1, 430670, Note_off_c, 7, 55, 127
1, 430674, Note_on_c, 4, 52, 127
1, 430674, Note_on_c, 7, 67, 127
1, 430835, Note_off_c, 7, 67, 127
1, 430835, Note_off_c, 4, 52, 127
1, 430840, Note_on_c, 0, 60, 127
1, 430840, Note_on_c, 4, 64, 127
1, 431158, Note_off_c, 4, 76, 127
1, 431165, Note_off_c, 0, 60, 127
1, 431171, Note_on_c, 10, 57, 127
1, 431171, Note_on_c, 0, 72, 127
1, 431329, Note_off_c, 4, 64, 127
1, 431336, Note_on_c, 6, 66, 127
1, 431496, Note_off_c, 10, 57, 127
1, 431497, Note_off_c, 6, 66, 127
1, 431501, Note_on_c, 12, 59, 127
1, 431501, Note_on_c, 4, 64, 127
1, 431580, Note_off_c, 4, 64, 127
1, 431584, Note_on_c, 3, 63, 127
1, 431663, Note_off_c, 3, 63, 127
1, 431667, Note_on_c, 4, 64, 127
1, 431746, Note_off_c, 4, 64, 127
1, 431749, Note_on_c, 3, 63, 127
1, 431824, Note_off_c, 0, 72, 127
1, 431826, Note_off_c, 12, 59, 127
1, 431832, Note_on_c, 12, 47, 127
1, 431832, Note_on_c, 12, 71, 127
1, 431993, Note_off_c, 12, 71, 127
1, 431997, Note_on_c, 10, 69, 127
1, 432156, Note_off_c, 3, 63, 127
1, 432157, Note_off_c, 12, 47, 127
1, 432158, Note_off_c, 10, 69, 127
1, 432163, Note_on_c, 4, 40, 127
1, 432163, Note_on_c, 7, 67, 127
1, 432163, Note_on_c, 4, 64, 127
1, 432324, Note_off_c, 7, 67, 127
1, 432328, Note_on_c, 6, 66, 127
1, 432486, Note_off_c, 4, 64, 127
1, 432489, Note_off_c, 6, 66, 127
1, 432493, Note_on_c, 4, 64, 127
1, 432659, Note_on_c, 3, 63, 127
1, 432816, Note_off_c, 4, 64, 127
1, 432820, Note_off_c, 3, 63, 127
1, 432824, Note_on_c, 4, 64, 127
1, 432824, Note_on_c, 12, 71, 127
1, 432985, Note_off_c, 4, 64, 127
1, 432989, Note_on_c, 6, 66, 127
1, 433143, Note_off_c, 4, 40, 127
1, 433150, Note_off_c, 6, 66, 127
1, 433155, Note_on_c, 4, 52, 127
1, 433155, Note_on_c, 7, 67, 127
1, 433316, Note_off_c, 7, 67, 127
1, 433320, Note_on_c, 4, 64, 127
1, 433481, Note_off_c, 4, 64, 127
1, 433486, Note_on_c, 0, 60, 127
1, 433804, Note_off_c, 12, 71, 127
1, 433808, Note_off_c, 4, 52, 127
1, 433816, Note_on_c, 0, 48, 127
1, 433816, Note_on_c, 10, 69, 127
1, 433975, Note_off_c, 0, 60, 127
1, 433982, Note_on_c, 2, 62, 127
1, 434141, Note_off_c, 0, 48, 127
1, 434143, Note_off_c, 2, 62, 127
1, 434147, Note_on_c, 2, 50, 127
1, 434147, Note_on_c, 0, 60, 127
1, 434226, Note_off_c, 0, 60, 127
1, 434230, Note_on_c, 12, 59, 127
1, 434309, Note_off_c, 12, 59, 127
1, 434312, Note_on_c, 0, 60, 127
1, 434391, Note_off_c, 0, 60, 127
1, 434395, Note_on_c, 12, 59, 127
1, 434469, Note_off_c, 10, 69, 127
1, 434472, Note_off_c, 2, 50, 127
1, 434478, Note_on_c, 4, 52, 127
1, 434478, Note_on_c, 8, 68, 127
1, 434802, Note_off_c, 12, 59, 127
1, 434803, Note_off_c, 8, 68, 127
1, 434803, Note_off_c, 4, 52, 127
1, 434808, Note_on_c, 10, 45, 127
1, 434808, Note_on_c, 0, 60, 127
1, 434808, Note_on_c, 10, 69, 127
1, 435133, Note_off_c, 10, 69, 127
1, 435133, Note_off_c, 10, 45, 127
1, 435139, Note_on_c, 10, 57, 127
1, 435139, Note_on_c, 0, 72, 127
1, 435300, Note_off_c, 0, 72, 127
1, 435305, Note_on_c, 12, 71, 127
1, 435461, Note_off_c, 0, 60, 127
1, 435464, Note_off_c, 10, 57, 127
1, 435466, Note_off_c, 12, 71, 127
1, 435470, Note_on_c, 4, 52, 127
1, 435470, Note_on_c, 7, 67, 127
1, 435470, Note_on_c, 0, 72, 127
1, 435631, Note_off_c, 0, 72, 127
1, 435631, Note_off_c, 4, 52, 127
1, 435635, Note_on_c, 2, 50, 127
1, 435635, Note_on_c, 4, 76, 127
1, 435796, Note_off_c, 4, 76, 127
1, 435796, Note_off_c, 2, 50, 127
1, 435801, Note_on_c, 4, 52, 127
1, 435801, Note_on_c, 2, 74, 127
1, 435962, Note_off_c, 2, 74, 127
1, 435962, Note_off_c, 4, 52, 127
1, 435966, Note_on_c, 6, 54, 127
1, 435966, Note_on_c, 0, 72, 127
1, 436127, Note_off_c, 0, 72, 127
1, 436127, Note_off_c, 6, 54, 127
1, 436131, Note_on_c, 7, 55, 127
1, 436131, Note_on_c, 12, 71, 127
1, 436292, Note_off_c, 7, 55, 127
1, 436297, Note_on_c, 10, 57, 127
1, 436450, Note_off_c, 7, 67, 127
1, 436458, Note_off_c, 10, 57, 127
1, 436462, Note_on_c, 12, 59, 127
1, 436462, Note_on_c, 6, 66, 127
1, 436623, Note_off_c, 12, 59, 127
1, 436627, Note_on_c, 7, 55, 127
1, 436784, Note_off_c, 12, 71, 127
1, 436788, Note_off_c, 7, 55, 127
1, 436793, Note_on_c, 10, 57, 127
1, 436793, Note_on_c, 1, 73, 127
1, 436954, Note_off_c, 10, 57, 127
1, 436958, Note_on_c, 6, 54, 127
1, 437115, Note_off_c, 6, 66, 127
1, 437119, Note_off_c, 6, 54, 127
1, 437123, Note_on_c, 7, 55, 127
1, 437123, Note_on_c, 4, 64, 127
1, 437284, Note_off_c, 7, 55, 127
1, 437289, Note_on_c, 10, 57, 127
1, 437446, Note_off_c, 1, 73, 127
1, 437448, Note_off_c, 4, 64, 127
1, 437450, Note_off_c, 10, 57, 127
1, 437454, Note_on_c, 2, 50, 127
1, 437454, Note_on_c, 6, 66, 127
1, 437454, Note_on_c, 2, 74, 127
1, 437615, Note_off_c, 2, 50, 127
1, 437620, Note_on_c, 4, 52, 127
1, 437779, Note_off_c, 6, 66, 127
1, 437781, Note_off_c, 4, 52, 127
1, 437785, Note_on_c, 6, 54, 127
1, 437785, Note_on_c, 10, 69, 127
1, 437946, Note_off_c, 10, 69, 127
1, 437946, Note_off_c, 6, 54, 127
1, 437950, Note_on_c, 7, 55, 127
1, 437950, Note_on_c, 7, 67, 127
1, 438111, Note_off_c, 7, 67, 127
1, 438111, Note_off_c, 7, 55, 127
1, 438116, Note_on_c, 6, 54, 127
1, 438116, Note_on_c, 10, 69, 127
1, 438277, Note_off_c, 10, 69, 127
1, 438277, Note_off_c, 6, 54, 127
1, 438281, Note_on_c, 4, 52, 127
1, 438281, Note_on_c, 0, 72, 127
1, 438442, Note_off_c, 0, 72, 127
1, 438442, Note_off_c, 4, 52, 127
1, 438446, Note_on_c, 2, 50, 127
1, 438446, Note_on_c, 12, 71, 127
1, 438607, Note_off_c, 12, 71, 127
1, 438607, Note_off_c, 2, 50, 127
1, 438612, Note_on_c, 0, 48, 127
1, 438612, Note_on_c, 10, 69, 127
1, 438773, Note_off_c, 10, 69, 127
1, 438773, Note_off_c, 0, 48, 127
1, 438777, Note_on_c, 12, 47, 127
1, 438777, Note_on_c, 7, 67, 127
1, 438938, Note_off_c, 12, 47, 127
1, 438942, Note_on_c, 7, 43, 127
1, 439089, Note_off_c, 2, 74, 127
1, 439103, Note_off_c, 7, 43, 127
1, 439108, Note_on_c, 10, 45, 127
1, 439108, Note_on_c, 7, 79, 127
1, 439269, Note_off_c, 10, 45, 127
1, 439273, Note_on_c, 12, 47, 127
1, 439430, Note_off_c, 7, 67, 127
1, 439433, Note_off_c, 7, 79, 127
1, 439434, Note_off_c, 12, 47, 127
1, 439439, Note_on_c, 0, 48, 127
1, 439439, Note_on_c, 10, 69, 127
1, 439439, Note_on_c, 6, 78, 127
1, 439600, Note_off_c, 0, 48, 127
1, 439604, Note_on_c, 2, 50, 127
1, 439764, Note_off_c, 6, 78, 127
1, 439765, Note_off_c, 2, 50, 127
1, 439769, Note_on_c, 4, 52, 127
1, 439769, Note_on_c, 4, 76, 127
1, 439930, Note_off_c, 4, 52, 127
1, 439935, Note_on_c, 6, 54, 127
1, 440092, Note_off_c, 10, 69, 127
1, 440094, Note_off_c, 4, 76, 127
1, 440096, Note_off_c, 6, 54, 127
1, 440100, Note_on_c, 7, 55, 127
1, 440100, Note_on_c, 12, 71, 127
1, 440100, Note_on_c, 2, 74, 127
1, 440261, Note_off_c, 7, 55, 127
1, 440265, Note_on_c, 10, 57, 127
1, 440425, Note_off_c, 2, 74, 127
1, 440426, Note_off_c, 10, 57, 127
1, 440431, Note_on_c, 12, 59, 127
1, 440431, Note_on_c, 7, 79, 127
1, 440592, Note_off_c, 7, 79, 127
1, 440592, Note_off_c, 12, 59, 127
1, 440596, Note_on_c, 10, 57, 127
1, 440596, Note_on_c, 6, 78, 127
1, 440757, Note_off_c, 6, 78, 127
1, 440757, Note_off_c, 10, 57, 127
1, 440761, Note_on_c, 7, 55, 127
1, 440761, Note_on_c, 7, 79, 127
1, 440922, Note_off_c, 7, 79, 127
1, 440922, Note_off_c, 7, 55, 127
1, 440927, Note_on_c, 6, 54, 127
1, 440927, Note_on_c, 10, 81, 127
1, 441088, Note_off_c, 10, 81, 127
1, 441088, Note_off_c, 6, 54, 127
1, 441092, Note_on_c, 4, 52, 127
1, 441092, Note_on_c, 12, 83, 127
1, 441253, Note_off_c, 4, 52, 127
1, 441257, Note_on_c, 2, 50, 127
1, 441417, Note_off_c, 12, 83, 127
1, 441418, Note_off_c, 2, 50, 127
1, 441423, Note_on_c, 0, 48, 127
1, 441423, Note_on_c, 4, 76, 127
1, 441584, Note_off_c, 0, 48, 127
1, 441588, Note_on_c, 12, 47, 127
1, 441735, Note_off_c, 12, 71, 127
1, 441748, Note_off_c, 4, 76, 127
1, 441749, Note_off_c, 12, 47, 127
1, 441754, Note_on_c, 0, 48, 127
1, 441754, Note_on_c, 4, 76, 127
1, 441754, Note_on_c, 10, 81, 127
1, 441915, Note_off_c, 0, 48, 127
1, 441919, Note_on_c, 10, 45, 127
1, 442079, Note_off_c, 10, 81, 127
1, 442079, Note_off_c, 4, 76, 127
1, 442080, Note_off_c, 10, 45, 127
1, 442084, Note_on_c, 2, 50, 127
1, 442084, Note_on_c, 2, 74, 127
1, 442084, Note_on_c, 7, 79, 127
1, 442163, Note_off_c, 7, 79, 127
1, 442167, Note_on_c, 6, 78, 127
1, 442246, Note_off_c, 6, 78, 127
1, 442250, Note_on_c, 7, 79, 127
1, 442329, Note_off_c, 7, 79, 127
1, 442332, Note_on_c, 6, 78, 127
1, 442409, Note_off_c, 2, 74, 127
1, 442409, Note_off_c, 2, 50, 127
1, 442415, Note_on_c, 2, 38, 127
1, 442415, Note_on_c, 0, 72, 127
1, 442575, Note_off_c, 6, 78, 127
1, 442580, Note_on_c, 7, 79, 127
1, 442740, Note_off_c, 0, 72, 127
1, 442740, Note_off_c, 2, 38, 127
1, 442741, Note_off_c, 7, 79, 127
1, 442746, Note_on_c, 7, 43, 127
1, 442746, Note_on_c, 12, 71, 127
1, 442746, Note_on_c, 7, 79, 127
1, 443071, Note_off_c, 7, 43, 127
1, 443076, Note_on_c, 12, 47, 127
1, 443237, Note_off_c, 12, 47, 127
1, 443242, Note_on_c, 2, 50, 127
1, 443403, Note_off_c, 2, 50, 127
1, 443407, Note_on_c, 7, 55, 127
1, 443568, Note_off_c, 7, 55, 127
1, 443573, Note_on_c, 2, 50, 127
1, 443693, Note_off_c, 2, 50, 127
1, 443738, Note_on_c, 4, 52, 127
1, 443858, Note_off_c, 4, 52, 127
1, 443903, Note_on_c, 6, 54, 127
1, 443939, Note_off_c, 12, 71, 127
1, 444023, Note_off_c, 6, 54, 127
1, 444041, Note_off_c, 7, 79, 127
1, 444068, Note_on_c, 7, 55, 127
1, 444703, Note_off_c, 7, 55, 127
1, 444711, Note_on_c, 10, 57, 127
1, 444792, Note_on_c, 7, 55, 127
1, 444796, Note_off_c, 10, 57, 127
1, 444872, Note_on_c, 10, 57, 127
1, 444877, Note_off_c, 7, 55, 127
1, 444953, Note_on_c, 7, 55, 127
1, 444957, Note_off_c, 10, 57, 127
1, 445033, Note_on_c, 10, 57, 127
1, 445038, Note_off_c, 7, 55, 127
1, 445114, Note_on_c, 7, 55, 127
1, 445118, Note_off_c, 10, 57, 127
1, 445194, Note_on_c, 6, 54, 127
1, 445199, Note_off_c, 7, 55, 127
1, 445275, Note_on_c, 7, 55, 127
1, 445279, Note_off_c, 6, 54, 127
1, 445355, Note_on_c, 10, 57, 127
1, 445360, Note_off_c, 7, 55, 127
1, 445672, Note_off_c, 10, 57, 127
1, 445678, Note_on_c, 6, 54, 127
1, 445995, Note_off_c, 6, 54, 127
1, 446000, Note_on_c, 2, 50, 127
1, 446317, Note_off_c, 2, 50, 127
1, 446322, Note_on_c, 6, 54, 127
1, 446639, Note_off_c, 6, 54, 127
1, 446644, Note_on_c, 4, 52, 127
1, 446961, Note_off_c, 4, 52, 127
1, 446967, Note_on_c, 10, 57, 127
1, 447284, Note_off_c, 10, 57, 127
1, 447289, Note_on_c, 10, 45, 127
1, 447606, Note_off_c, 10, 45, 127
1, 447611, Note_on_c, 7, 55, 127
1, 447928, Note_off_c, 7, 55, 127
1, 447933, Note_on_c, 7, 55, 127
1, 448014, Note_on_c, 6, 54, 127
1, 448018, Note_off_c, 7, 55, 127
1, 448094, Note_on_c, 7, 55, 127
1, 448099, Note_off_c, 6, 54, 127
1, 448175, Note_on_c, 6, 54, 127
1, 448179, Note_off_c, 7, 55, 127
1, 448256, Note_on_c, 4, 52, 127
1, 448260, Note_off_c, 6, 54, 127
1, 448413, Note_off_c, 4, 52, 127
1, 448417, Note_on_c, 6, 54, 127
1, 448574, Note_off_c, 6, 54, 127
1, 448578, Note_on_c, 2, 50, 127
1, 448735, Note_off_c, 2, 50, 127
1, 448739, Note_on_c, 4, 52, 127
1, 448896, Note_off_c, 4, 52, 127
1, 448900, Note_on_c, 0, 48, 127
1, 449057, Note_off_c, 0, 48, 127
1, 449061, Note_on_c, 2, 50, 127
1, 449218, Note_off_c, 2, 50, 127
1, 449222, Note_on_c, 12, 47, 127
1, 449222, Note_on_c, 2, 62, 127
1, 449299, Note_off_c, 2, 62, 127
1, 449303, Note_on_c, 0, 60, 127
1, 449379, Note_off_c, 12, 47, 127
1, 449380, Note_off_c, 0, 60, 127
1, 449383, Note_on_c, 2, 50, 127
1, 449383, Note_on_c, 2, 62, 127
1, 449540, Note_off_c, 2, 50, 127
1, 449545, Note_on_c, 4, 52, 127
1, 449702, Note_off_c, 4, 52, 127
1, 449706, Note_on_c, 6, 54, 127
1, 449859, Note_off_c, 2, 62, 127
1, 449863, Note_off_c, 6, 54, 127
1, 449867, Note_on_c, 7, 55, 127
1, 449867, Note_on_c, 4, 64, 127
1, 449947, Note_on_c, 2, 62, 127
1, 449952, Note_off_c, 4, 64, 127
1, 450028, Note_on_c, 4, 64, 127
1, 450032, Note_off_c, 2, 62, 127
1, 450108, Note_on_c, 2, 62, 127
1, 450113, Note_off_c, 4, 64, 127
1, 450184, Note_off_c, 7, 55, 127
1, 450189, Note_on_c, 12, 47, 127
1, 450189, Note_on_c, 4, 64, 127
1, 450193, Note_off_c, 2, 62, 127
1, 450270, Note_on_c, 2, 62, 127
1, 450274, Note_off_c, 4, 64, 127
1, 450350, Note_on_c, 0, 60, 127
1, 450355, Note_off_c, 2, 62, 127
1, 450431, Note_on_c, 2, 62, 127
1, 450435, Note_off_c, 0, 60, 127
1, 450506, Note_off_c, 12, 47, 127
1, 450511, Note_on_c, 0, 48, 127
1, 450511, Note_on_c, 4, 64, 127
1, 450516, Note_off_c, 2, 62, 127
1, 450828, Note_off_c, 4, 64, 127
1, 450834, Note_on_c, 0, 60, 127
1, 451151, Note_off_c, 0, 60, 127
1, 451156, Note_on_c, 10, 57, 127
1, 451309, Note_off_c, 0, 48, 127
1, 451473, Note_off_c, 10, 57, 127
1, 451478, Note_on_c, 10, 45, 127
1, 451478, Note_on_c, 0, 60, 127
1, 451795, Note_off_c, 0, 60, 127
1, 451795, Note_off_c, 10, 45, 127
1, 451800, Note_on_c, 6, 42, 127
1, 451800, Note_on_c, 10, 57, 127
1, 452117, Note_off_c, 10, 57, 127
1, 452122, Note_on_c, 2, 62, 127
1, 452439, Note_off_c, 2, 62, 127
1, 452445, Note_on_c, 2, 50, 127
1, 452598, Note_off_c, 6, 42, 127
1, 452762, Note_off_c, 2, 50, 127
1, 452767, Note_on_c, 2, 38, 127
1, 452767, Note_on_c, 0, 60, 127
1, 453084, Note_off_c, 0, 60, 127
1, 453084, Note_off_c, 2, 38, 127
1, 453089, Note_on_c, 7, 43, 127
1, 453089, Note_on_c, 0, 60, 127
1, 453170, Note_on_c, 12, 59, 127
1, 453174, Note_off_c, 0, 60, 127
1, 453250, Note_on_c, 0, 60, 127
1, 453255, Note_off_c, 12, 59, 127
1, 453331, Note_on_c, 12, 59, 127
1, 453335, Note_off_c, 0, 60, 127
1, 453406, Note_off_c, 7, 43, 127
1, 453411, Note_on_c, 2, 50, 127
1, 453411, Note_on_c, 10, 57, 127
1, 453416, Note_off_c, 12, 59, 127
1, 453568, Note_off_c, 10, 57, 127
1, 453573, Note_on_c, 12, 59, 127
1, 453728, Note_off_c, 2, 50, 127
1, 453730, Note_off_c, 12, 59, 127
1, 453734, Note_on_c, 12, 47, 127
1, 453734, Note_on_c, 7, 55, 127
1, 453891, Note_off_c, 7, 55, 127
1, 453895, Note_on_c, 12, 59, 127
1, 454051, Note_off_c, 12, 47, 127
1, 454052, Note_off_c, 12, 59, 127
1, 454056, Note_on_c, 2, 50, 127
1, 454056, Note_on_c, 10, 57, 127
1, 454213, Note_off_c, 10, 57, 127
1, 454217, Note_on_c, 0, 60, 127
1, 454373, Note_off_c, 2, 50, 127
1, 454374, Note_off_c, 0, 60, 127
1, 454378, Note_on_c, 7, 79, 127
1, 454378, Note_on_c, 7, 55, 127
1, 454378, Note_on_c, 12, 59, 127
1, 454459, Note_on_c, 6, 78, 127
1, 454463, Note_off_c, 7, 79, 127
1, 454535, Note_off_c, 12, 59, 127
1, 454539, Note_on_c, 7, 79, 127
1, 454539, Note_on_c, 10, 57, 127
1, 454544, Note_off_c, 6, 78, 127
1, 454696, Note_off_c, 10, 57, 127
1, 454700, Note_on_c, 12, 59, 127
1, 455015, Note_off_c, 7, 79, 127
1, 455017, Note_off_c, 12, 59, 127
1, 455023, Note_on_c, 10, 81, 127
1, 455023, Note_on_c, 4, 64, 127
1, 455103, Note_on_c, 7, 79, 127
1, 455108, Note_off_c, 10, 81, 127
1, 455176, Note_off_c, 7, 55, 127
1, 455184, Note_on_c, 10, 81, 127
1, 455188, Note_off_c, 7, 79, 127
1, 455264, Note_on_c, 7, 79, 127
1, 455269, Note_off_c, 10, 81, 127
1, 455345, Note_on_c, 10, 81, 127
1, 455345, Note_on_c, 4, 52, 127
1, 455349, Note_off_c, 7, 79, 127
1, 455425, Note_on_c, 7, 79, 127
1, 455430, Note_off_c, 10, 81, 127
1, 455506, Note_on_c, 6, 78, 127
1, 455510, Note_off_c, 7, 79, 127
1, 455587, Note_on_c, 7, 79, 127
1, 455591, Note_off_c, 6, 78, 127
1, 455662, Note_off_c, 4, 52, 127
1, 455667, Note_on_c, 10, 81, 127
1, 455667, Note_on_c, 6, 54, 127
1, 455672, Note_off_c, 7, 79, 127
1, 455978, Note_off_c, 4, 64, 127
1, 455984, Note_off_c, 10, 81, 127
1, 455989, Note_on_c, 6, 78, 127
1, 455989, Note_on_c, 10, 57, 127
1, 456306, Note_off_c, 10, 57, 127
1, 456306, Note_off_c, 6, 78, 127
1, 456312, Note_on_c, 2, 74, 127
1, 456312, Note_on_c, 2, 62, 127
1, 456465, Note_off_c, 6, 54, 127
1, 456629, Note_off_c, 2, 74, 127
1, 456634, Note_on_c, 6, 78, 127
1, 456634, Note_on_c, 2, 50, 127
1, 456951, Note_off_c, 2, 50, 127
1, 456951, Note_off_c, 6, 78, 127
1, 456956, Note_on_c, 12, 71, 127
1, 456956, Note_on_c, 7, 55, 127
1, 457267, Note_off_c, 2, 62, 127
1, 457273, Note_off_c, 12, 71, 127
1, 457278, Note_on_c, 4, 76, 127
1, 457278, Note_on_c, 12, 59, 127
1, 457595, Note_off_c, 12, 59, 127
1, 457595, Note_off_c, 4, 76, 127
1, 457601, Note_on_c, 4, 64, 127
1, 457754, Note_off_c, 7, 55, 127
1, 457923, Note_on_c, 2, 74, 127
1, 457923, Note_on_c, 4, 52, 127
1, 458234, Note_off_c, 2, 74, 127
1, 458240, Note_off_c, 4, 52, 127
1, 458245, Note_on_c, 2, 74, 127
1, 458245, Note_on_c, 10, 57, 127
1, 458326, Note_on_c, 1, 73, 127
1, 458330, Note_off_c, 2, 74, 127
1, 458406, Note_on_c, 2, 74, 127
1, 458411, Note_off_c, 1, 73, 127
1, 458487, Note_on_c, 1, 73, 127
1, 458491, Note_off_c, 2, 74, 127
1, 458556, Note_off_c, 4, 64, 127
1, 458567, Note_on_c, 12, 71, 127
1, 458567, Note_on_c, 2, 62, 127
1, 458572, Note_off_c, 1, 73, 127
1, 458724, Note_off_c, 12, 71, 127
1, 458728, Note_on_c, 1, 73, 127
1, 458884, Note_off_c, 2, 62, 127
1, 458885, Note_off_c, 1, 73, 127
1, 458890, Note_on_c, 10, 69, 127
1, 458890, Note_on_c, 1, 61, 127
1, 459047, Note_off_c, 10, 69, 127
1, 459051, Note_on_c, 12, 71, 127
1, 459142, Note_off_c, 10, 57, 127
1, 459207, Note_off_c, 1, 61, 127
1, 459208, Note_off_c, 12, 71, 127
1, 459212, Note_on_c, 1, 73, 127
1, 459212, Note_on_c, 7, 55, 127
1, 459212, Note_on_c, 4, 64, 127
1, 459369, Note_off_c, 1, 73, 127
1, 459373, Note_on_c, 10, 69, 127
1, 459529, Note_off_c, 4, 64, 127
1, 459529, Note_off_c, 7, 55, 127
1, 459530, Note_off_c, 10, 69, 127
1, 459534, Note_on_c, 2, 74, 127
1, 459534, Note_on_c, 6, 54, 127
1, 459534, Note_on_c, 10, 57, 127
1, 459534, Note_on_c, 10, 69, 127
1, 459615, Note_on_c, 7, 67, 127
1, 459619, Note_off_c, 10, 69, 127
1, 459691, Note_off_c, 10, 57, 127
1, 459695, Note_on_c, 12, 59, 127
1, 459695, Note_on_c, 10, 69, 127
1, 459700, Note_off_c, 7, 67, 127
1, 459851, Note_off_c, 2, 74, 127
1, 459852, Note_off_c, 12, 59, 127
1, 459856, Note_on_c, 2, 62, 127
1, 459856, Note_on_c, 10, 57, 127
1, 460013, Note_off_c, 10, 57, 127
1, 460017, Note_on_c, 7, 55, 127
1, 460168, Note_off_c, 6, 54, 127
1, 460171, Note_off_c, 10, 69, 127
1, 460173, Note_off_c, 2, 62, 127
1, 460174, Note_off_c, 7, 55, 127
1, 460178, Note_on_c, 2, 74, 127
1, 460178, Note_on_c, 6, 54, 127
1, 460178, Note_on_c, 12, 71, 127
1, 460259, Note_on_c, 10, 69, 127
1, 460263, Note_off_c, 12, 71, 127
1, 460340, Note_on_c, 12, 71, 127
1, 460344, Note_off_c, 10, 69, 127
1, 460420, Note_on_c, 10, 69, 127
1, 460425, Note_off_c, 12, 71, 127
1, 460501, Note_on_c, 2, 50, 127
1, 460501, Note_on_c, 12, 71, 127
1, 460505, Note_off_c, 10, 69, 127
1, 460581, Note_on_c, 10, 69, 127
1, 460586, Note_off_c, 12, 71, 127
1, 460662, Note_on_c, 7, 67, 127
1, 460666, Note_off_c, 10, 69, 127
1, 460742, Note_on_c, 10, 69, 127
1, 460747, Note_off_c, 7, 67, 127
1, 460814, Note_off_c, 6, 54, 127
1, 460818, Note_off_c, 2, 50, 127
1, 460823, Note_on_c, 7, 43, 127
1, 460823, Note_on_c, 7, 55, 127
1, 460823, Note_on_c, 12, 71, 127
1, 460827, Note_off_c, 10, 69, 127
1, 461133, Note_off_c, 2, 74, 127
1, 461140, Note_off_c, 12, 71, 127
1, 461140, Note_off_c, 7, 43, 127
1, 461145, Note_on_c, 7, 67, 127
1, 461145, Note_on_c, 2, 50, 127
1, 461462, Note_off_c, 2, 50, 127
1, 461462, Note_off_c, 7, 67, 127
1, 461467, Note_on_c, 2, 74, 127
1, 461467, Note_on_c, 12, 47, 127
1, 461467, Note_on_c, 4, 64, 127
1, 461784, Note_off_c, 4, 64, 127
1, 461784, Note_off_c, 12, 47, 127
1, 461790, Note_on_c, 7, 43, 127
1, 461790, Note_on_c, 7, 67, 127
1, 462107, Note_off_c, 7, 67, 127
1, 462107, Note_off_c, 7, 43, 127
1, 462112, Note_on_c, 10, 45, 127
1, 462112, Note_on_c, 4, 64, 127
1, 462416, Note_off_c, 7, 55, 127
1, 462429, Note_off_c, 4, 64, 127
1, 462434, Note_on_c, 4, 52, 127
1, 462434, Note_on_c, 10, 69, 127
1, 462741, Note_off_c, 2, 74, 127
1, 462751, Note_off_c, 10, 69, 127
1, 462751, Note_off_c, 4, 52, 127
1, 462756, Note_on_c, 1, 73, 127
1, 462756, Note_on_c, 10, 57, 127
1, 463067, Note_off_c, 10, 45, 127
1, 463079, Note_on_c, 10, 45, 127
1, 463079, Note_on_c, 7, 67, 127
1, 463392, Note_off_c, 1, 73, 127
1, 463396, Note_off_c, 7, 67, 127
1, 463396, Note_off_c, 10, 45, 127
1, 463401, Note_on_c, 2, 74, 127
1, 463401, Note_on_c, 2, 50, 127
1, 463401, Note_on_c, 7, 67, 127
1, 463481, Note_on_c, 6, 66, 127
1, 463486, Note_off_c, 7, 67, 127
1, 463547, Note_off_c, 10, 57, 127
1, 463562, Note_on_c, 10, 57, 127
1, 463562, Note_on_c, 7, 67, 127
1, 463566, Note_off_c, 6, 66, 127
1, 463643, Note_on_c, 6, 66, 127
1, 463647, Note_off_c, 7, 67, 127
1, 463719, Note_off_c, 10, 57, 127
1, 463723, Note_on_c, 7, 55, 127
1, 463723, Note_on_c, 4, 64, 127
1, 463728, Note_off_c, 6, 66, 127
1, 463880, Note_off_c, 4, 64, 127
1, 463880, Note_off_c, 7, 55, 127
1, 463884, Note_on_c, 10, 57, 127
1, 463884, Note_on_c, 6, 66, 127
1, 464041, Note_off_c, 6, 66, 127
1, 464041, Note_off_c, 10, 57, 127
1, 464045, Note_on_c, 6, 54, 127
1, 464045, Note_on_c, 2, 62, 127
1, 464362, Note_off_c, 2, 62, 127
1, 464516, Note_off_c, 2, 74, 127
1, 464529, Note_on_c, 4, 76, 127
1, 464675, Note_off_c, 2, 50, 127
1, 464681, Note_off_c, 6, 54, 127
1, 464686, Note_off_c, 4, 76, 127
1, 464690, Note_on_c, 6, 78, 127
1, 464690, Note_on_c, 2, 50, 127
1, 464770, Note_on_c, 4, 76, 127
1, 464775, Note_off_c, 6, 78, 127
1, 464847, Note_off_c, 2, 50, 127
1, 464851, Note_on_c, 6, 78, 127
1, 464851, Note_on_c, 4, 52, 127
1, 464855, Note_off_c, 4, 76, 127
1, 465008, Note_off_c, 4, 52, 127
1, 465012, Note_on_c, 6, 54, 127
1, 465169, Note_off_c, 6, 54, 127
1, 465173, Note_on_c, 7, 55, 127
1, 465327, Note_off_c, 6, 78, 127
1, 465330, Note_off_c, 7, 55, 127
1, 465334, Note_on_c, 7, 79, 127
1, 465334, Note_on_c, 10, 57, 127
1, 465415, Note_on_c, 6, 78, 127
1, 465419, Note_off_c, 7, 79, 127
1, 465495, Note_on_c, 7, 79, 127
1, 465500, Note_off_c, 6, 78, 127
1, 465576, Note_on_c, 6, 78, 127
1, 465580, Note_off_c, 7, 79, 127
1, 465651, Note_off_c, 10, 57, 127
1, 465657, Note_on_c, 7, 79, 127
1, 465657, Note_on_c, 0, 48, 127
1, 465661, Note_off_c, 6, 78, 127
1, 465737, Note_on_c, 6, 78, 127
1, 465742, Note_off_c, 7, 79, 127
1, 465818, Note_on_c, 4, 76, 127
1, 465822, Note_off_c, 6, 78, 127
1, 465898, Note_on_c, 6, 78, 127
1, 465903, Note_off_c, 4, 76, 127
1, 465974, Note_off_c, 0, 48, 127
1, 465979, Note_on_c, 7, 79, 127
1, 465979, Note_on_c, 12, 47, 127
1, 465983, Note_off_c, 6, 78, 127
1, 466136, Note_off_c, 12, 47, 127
1, 466140, Note_on_c, 2, 50, 127
1, 466296, Note_off_c, 7, 79, 127
1, 466297, Note_off_c, 2, 50, 127
1, 466301, Note_on_c, 2, 74, 127
1, 466301, Note_on_c, 4, 52, 127
1, 466458, Note_off_c, 4, 52, 127
1, 466462, Note_on_c, 6, 54, 127
1, 466618, Note_off_c, 2, 74, 127
1, 466619, Note_off_c, 6, 54, 127
1, 466623, Note_on_c, 12, 71, 127
1, 466623, Note_on_c, 7, 55, 127
1, 466780, Note_off_c, 7, 55, 127
1, 466784, Note_on_c, 10, 57, 127
1, 466940, Note_off_c, 12, 71, 127
1, 466941, Note_off_c, 10, 57, 127
1, 466946, Note_on_c, 2, 74, 127
1, 466946, Note_on_c, 12, 59, 127
1, 467263, Note_off_c, 2, 74, 127
1, 467268, Note_on_c, 0, 72, 127
1, 467551, Note_off_c, 12, 59, 127
1, 467584, Note_off_c, 0, 72, 127
1, 467589, Note_on_c, 5, 77, 127
1, 467589, Note_on_c, 10, 57, 127
1, 467746, Note_off_c, 10, 57, 127
1, 467750, Note_on_c, 8, 56, 127
1, 467906, Note_off_c, 5, 77, 127
1, 467907, Note_off_c, 8, 56, 127
1, 467911, Note_on_c, 5, 65, 127
1, 467911, Note_on_c, 10, 57, 127
1, 468228, Note_off_c, 5, 65, 127
1, 468233, Note_on_c, 4, 76, 127
1, 468544, Note_off_c, 4, 76, 127
1, 468555, Note_on_c, 4, 76, 127
1, 468635, Note_on_c, 3, 75, 127
1, 468640, Note_off_c, 4, 76, 127
1, 468716, Note_on_c, 4, 76, 127
1, 468720, Note_off_c, 3, 75, 127
1, 468796, Note_on_c, 3, 75, 127
1, 468801, Note_off_c, 4, 76, 127
1, 468858, Note_off_c, 10, 57, 127
1, 468877, Note_on_c, 1, 73, 127
1, 468877, Note_on_c, 6, 54, 127
1, 468881, Note_off_c, 3, 75, 127
1, 469034, Note_off_c, 1, 73, 127
1, 469038, Note_on_c, 3, 75, 127
1, 469194, Note_off_c, 6, 54, 127
1, 469195, Note_off_c, 3, 75, 127
1, 469199, Note_on_c, 12, 71, 127
1, 469199, Note_on_c, 12, 59, 127
1, 469356, Note_off_c, 12, 71, 127
1, 469360, Note_on_c, 1, 73, 127
1, 469516, Note_off_c, 12, 59, 127
1, 469517, Note_off_c, 1, 73, 127
1, 469521, Note_on_c, 3, 75, 127
1, 469521, Note_on_c, 10, 57, 127
1, 469678, Note_off_c, 3, 75, 127
1, 469682, Note_on_c, 12, 71, 127
1, 469838, Note_off_c, 10, 57, 127
1, 469839, Note_off_c, 12, 71, 127
1, 469844, Note_on_c, 4, 76, 127
1, 469844, Note_on_c, 7, 55, 127
1, 469844, Note_on_c, 12, 71, 127
1, 469924, Note_on_c, 10, 69, 127
1, 469929, Note_off_c, 12, 71, 127
1, 470001, Note_off_c, 7, 55, 127
1, 470005, Note_on_c, 10, 57, 127
1, 470005, Note_on_c, 12, 71, 127
1, 470009, Note_off_c, 10, 69, 127
1, 470161, Note_off_c, 4, 76, 127
1, 470162, Note_off_c, 10, 57, 127
1, 470166, Note_on_c, 4, 64, 127
1, 470166, Note_on_c, 12, 59, 127
1, 470323, Note_off_c, 12, 59, 127
1, 470327, Note_on_c, 10, 57, 127
1, 470481, Note_off_c, 12, 71, 127
1, 470483, Note_off_c, 4, 64, 127
1, 470484, Note_off_c, 10, 57, 127
1, 470488, Note_on_c, 4, 76, 127
1, 470488, Note_on_c, 7, 55, 127
1, 470488, Note_on_c, 0, 72, 127
1, 470569, Note_on_c, 12, 71, 127
1, 470573, Note_off_c, 0, 72, 127
1, 470645, Note_off_c, 7, 55, 127
1, 470649, Note_on_c, 6, 54, 127
1, 470649, Note_on_c, 0, 72, 127
1, 470654, Note_off_c, 12, 71, 127
1, 470730, Note_on_c, 12, 71, 127
1, 470734, Note_off_c, 0, 72, 127
1, 470806, Note_off_c, 6, 54, 127
1, 470810, Note_on_c, 7, 55, 127
1, 470810, Note_on_c, 0, 72, 127
1, 470815, Note_off_c, 12, 71, 127
1, 470891, Note_on_c, 12, 71, 127
1, 470895, Note_off_c, 0, 72, 127
1, 470967, Note_off_c, 7, 55, 127
1, 470971, Note_on_c, 4, 52, 127
1, 470971, Note_on_c, 10, 69, 127
1, 470976, Note_off_c, 12, 71, 127
1, 471052, Note_on_c, 12, 71, 127
1, 471056, Note_off_c, 10, 69, 127
1, 471128, Note_off_c, 4, 52, 127
1, 471133, Note_on_c, 10, 57, 127
1, 471133, Note_on_c, 0, 72, 127
1, 471137, Note_off_c, 12, 71, 127
1, 471290, Note_off_c, 10, 57, 127
1, 471294, Note_on_c, 12, 59, 127
1, 471443, Note_off_c, 4, 76, 127
1, 471450, Note_off_c, 0, 72, 127
1, 471451, Note_off_c, 12, 59, 127
1, 471455, Note_on_c, 0, 60, 127
1, 471455, Note_on_c, 10, 69, 127
1, 471455, Note_on_c, 4, 64, 127
1, 471612, Note_off_c, 0, 60, 127
1, 471616, Note_on_c, 12, 59, 127
1, 471772, Note_off_c, 4, 64, 127
1, 471772, Note_off_c, 10, 69, 127
1, 471773, Note_off_c, 12, 59, 127
1, 471777, Note_on_c, 4, 76, 127
1, 471777, Note_on_c, 10, 57, 127
1, 471777, Note_on_c, 6, 66, 127
1, 471934, Note_off_c, 10, 57, 127
1, 471938, Note_on_c, 7, 55, 127
1, 472094, Note_off_c, 6, 66, 127
1, 472095, Note_off_c, 7, 55, 127
1, 472099, Note_on_c, 10, 57, 127
1, 472099, Note_on_c, 10, 69, 127
1, 472256, Note_off_c, 10, 57, 127
1, 472260, Note_on_c, 6, 54, 127
1, 472416, Note_off_c, 10, 69, 127
1, 472417, Note_off_c, 6, 54, 127
1, 472421, Note_on_c, 12, 59, 127
1, 472421, Note_on_c, 6, 66, 127
1, 472578, Note_off_c, 12, 59, 127
1, 472583, Note_on_c, 10, 57, 127
1, 472738, Note_off_c, 6, 66, 127
1, 472740, Note_off_c, 10, 57, 127
1, 472744, Note_on_c, 7, 55, 127
1, 472744, Note_on_c, 12, 71, 127
1, 472901, Note_off_c, 7, 55, 127
1, 472905, Note_on_c, 10, 57, 127
1, 473051, Note_off_c, 4, 76, 127
1, 473061, Note_off_c, 12, 71, 127
1, 473062, Note_off_c, 10, 57, 127
1, 473066, Note_on_c, 3, 75, 127
1, 473066, Note_on_c, 12, 59, 127
1, 473227, Note_on_c, 10, 57, 127
1, 473383, Note_off_c, 12, 59, 127
1, 473384, Note_off_c, 10, 57, 127
1, 473388, Note_on_c, 12, 59, 127
1, 473388, Note_on_c, 10, 69, 127
1, 473545, Note_off_c, 12, 59, 127
1, 473549, Note_on_c, 12, 47, 127
1, 473702, Note_off_c, 3, 75, 127
1, 473705, Note_off_c, 10, 69, 127
1, 473706, Note_off_c, 12, 47, 127
1, 473710, Note_on_c, 4, 76, 127
1, 473710, Note_on_c, 4, 52, 127
1, 473710, Note_on_c, 10, 69, 127
1, 473791, Note_on_c, 7, 67, 127
1, 473795, Note_off_c, 10, 69, 127
1, 473867, Note_off_c, 4, 52, 127
1, 473872, Note_on_c, 12, 47, 127
1, 473872, Note_on_c, 10, 69, 127
1, 473876, Note_off_c, 7, 67, 127
1, 473952, Note_on_c, 7, 67, 127
1, 473957, Note_off_c, 10, 69, 127
1, 474029, Note_off_c, 12, 47, 127
1, 474033, Note_on_c, 10, 45, 127
1, 474033, Note_on_c, 6, 66, 127
1, 474037, Note_off_c, 7, 67, 127
1, 474190, Note_off_c, 6, 66, 127
1, 474190, Note_off_c, 10, 45, 127
1, 474194, Note_on_c, 12, 47, 127
1, 474194, Note_on_c, 7, 67, 127
1, 474351, Note_off_c, 7, 67, 127
1, 474351, Note_off_c, 12, 47, 127
1, 474355, Note_on_c, 7, 43, 127
1, 474355, Note_on_c, 4, 64, 127
1, 474505, Note_off_c, 4, 76, 127
1, 474512, Note_off_c, 7, 43, 127
1, 474516, Note_on_c, 2, 74, 127
1, 474516, Note_on_c, 6, 42, 127
1, 474673, Note_off_c, 6, 42, 127
1, 474673, Note_off_c, 2, 74, 127
1, 474677, Note_on_c, 1, 73, 127
1, 474677, Note_on_c, 7, 43, 127
1, 474834, Note_off_c, 7, 43, 127
1, 474834, Note_off_c, 1, 73, 127
1, 474838, Note_on_c, 12, 71, 127
1, 474838, Note_on_c, 4, 40, 127
1, 474978, Note_off_c, 4, 40, 127
1, 474995, Note_off_c, 12, 71, 127
1, 474999, Note_on_c, 10, 69, 127
1, 474999, Note_on_c, 1, 49, 127
1, 475316, Note_off_c, 10, 69, 127
1, 475322, Note_on_c, 7, 79, 127
1, 475629, Note_off_c, 4, 64, 127
1, 475635, Note_off_c, 1, 49, 127
1, 475644, Note_on_c, 2, 50, 127
1, 475644, Note_on_c, 10, 69, 127
1, 475724, Note_on_c, 1, 49, 127
1, 475729, Note_off_c, 2, 50, 127
1, 475805, Note_on_c, 2, 50, 127
1, 475809, Note_off_c, 1, 49, 127
1, 475886, Note_on_c, 1, 49, 127
1, 475890, Note_off_c, 2, 50, 127
1, 475958, Note_off_c, 7, 79, 127
1, 475966, Note_on_c, 5, 77, 127
1, 475966, Note_on_c, 2, 50, 127
1, 475971, Note_off_c, 1, 49, 127
1, 476047, Note_on_c, 1, 49, 127
1, 476051, Note_off_c, 2, 50, 127
1, 476123, Note_off_c, 5, 77, 127
1, 476127, Note_on_c, 4, 76, 127
1, 476127, Note_on_c, 12, 47, 127
1, 476132, Note_off_c, 1, 49, 127
1, 476208, Note_on_c, 1, 49, 127
1, 476212, Note_off_c, 12, 47, 127
1, 476284, Note_off_c, 4, 76, 127
1, 476288, Note_on_c, 5, 77, 127
1, 476288, Note_on_c, 2, 50, 127
1, 476293, Note_off_c, 1, 49, 127
1, 476599, Note_off_c, 10, 69, 127
1, 476605, Note_off_c, 2, 50, 127
1, 476611, Note_on_c, 12, 47, 127
1, 476611, Note_on_c, 2, 74, 127
1, 476928, Note_off_c, 2, 74, 127
1, 476928, Note_off_c, 12, 47, 127
1, 476933, Note_on_c, 7, 43, 127
1, 476933, Note_on_c, 12, 71, 127
1, 477243, Note_off_c, 5, 77, 127
1, 477250, Note_off_c, 12, 71, 127
1, 477250, Note_off_c, 7, 43, 127
1, 477255, Note_on_c, 4, 76, 127
1, 477255, Note_on_c, 12, 47, 127
1, 477255, Note_on_c, 7, 67, 127
1, 477412, Note_off_c, 4, 76, 127
1, 477416, Note_on_c, 2, 74, 127
1, 477572, Note_off_c, 12, 47, 127
1, 477573, Note_off_c, 2, 74, 127
1, 477577, Note_on_c, 4, 76, 127
1, 477577, Note_on_c, 0, 48, 127
1, 477891, Note_off_c, 7, 67, 127
1, 477894, Note_off_c, 0, 48, 127
1, 477900, Note_on_c, 4, 52, 127
1, 477900, Note_on_c, 0, 72, 127
1, 478057, Note_off_c, 0, 72, 127
1, 478061, Note_on_c, 12, 71, 127
1, 478217, Note_off_c, 4, 52, 127
1, 478220, Note_off_c, 12, 71, 127
1, 478222, Note_on_c, 10, 45, 127
1, 478222, Note_on_c, 0, 72, 127
1, 478532, Note_off_c, 4, 76, 127
1, 478539, Note_off_c, 10, 45, 127
1, 478544, Note_on_c, 6, 78, 127
1, 478544, Note_on_c, 7, 55, 127
1, 478701, Note_off_c, 6, 78, 127
1, 478705, Note_on_c, 7, 79, 127
1, 478861, Note_off_c, 7, 55, 127
1, 478862, Note_off_c, 7, 79, 127
1, 478866, Note_on_c, 10, 81, 127
1, 478866, Note_on_c, 7, 55, 127
1, 478947, Note_on_c, 6, 54, 127
1, 478951, Note_off_c, 7, 55, 127
1, 479023, Note_off_c, 10, 81, 127
1, 479027, Note_on_c, 12, 83, 127
1, 479027, Note_on_c, 7, 55, 127
1, 479032, Note_off_c, 6, 54, 127
1, 479108, Note_on_c, 6, 54, 127
1, 479112, Note_off_c, 7, 55, 127
1, 479184, Note_off_c, 12, 83, 127
1, 479189, Note_on_c, 7, 79, 127
1, 479189, Note_on_c, 4, 52, 127
1, 479193, Note_off_c, 6, 54, 127
1, 479346, Note_off_c, 4, 52, 127
1, 479346, Note_off_c, 7, 79, 127
1, 479350, Note_on_c, 10, 81, 127
1, 479350, Note_on_c, 6, 54, 127
1, 479507, Note_off_c, 6, 54, 127
1, 479507, Note_off_c, 10, 81, 127
1, 479511, Note_on_c, 6, 78, 127
1, 479511, Note_on_c, 2, 50, 127
1, 479668, Note_off_c, 2, 50, 127
1, 479672, Note_on_c, 4, 52, 127
1, 479810, Note_off_c, 0, 72, 127
1, 479828, Note_off_c, 6, 78, 127
1, 479829, Note_off_c, 4, 52, 127
1, 479833, Note_on_c, 10, 81, 127
1, 479833, Note_on_c, 6, 54, 127
1, 479833, Note_on_c, 0, 72, 127
1, 479990, Note_off_c, 6, 54, 127
1, 479994, Note_on_c, 2, 50, 127
1, 480150, Note_off_c, 0, 72, 127
1, 480151, Note_off_c, 2, 50, 127
1, 480155, Note_on_c, 7, 55, 127
1, 480155, Note_on_c, 2, 62, 127
1, 480155, Note_on_c, 12, 71, 127
1, 480236, Note_on_c, 0, 60, 127
1, 480240, Note_off_c, 2, 62, 127
1, 480316, Note_on_c, 2, 62, 127
1, 480321, Note_off_c, 0, 60, 127
1, 480469, Note_off_c, 10, 81, 127
1, 480472, Note_off_c, 7, 55, 127
1, 480477, Note_on_c, 7, 79, 127
1, 480477, Note_on_c, 10, 57, 127
1, 480634, Note_off_c, 7, 79, 127
1, 480639, Note_on_c, 6, 78, 127
1, 480792, Note_off_c, 2, 62, 127
1, 480794, Note_off_c, 10, 57, 127
1, 480796, Note_off_c, 6, 78, 127
1, 480800, Note_on_c, 7, 79, 127
1, 480800, Note_on_c, 12, 59, 127
1, 480800, Note_on_c, 4, 64, 127
1, 480880, Note_on_c, 2, 62, 127
1, 480885, Note_off_c, 4, 64, 127
1, 480961, Note_on_c, 4, 64, 127
1, 480965, Note_off_c, 2, 62, 127
1, 481041, Note_on_c, 2, 62, 127
1, 481046, Note_off_c, 4, 64, 127
1, 481110, Note_off_c, 12, 71, 127
1, 481117, Note_off_c, 12, 59, 127
1, 481117, Note_off_c, 7, 79, 127
1, 481122, Note_on_c, 12, 71, 127
1, 481122, Note_on_c, 7, 55, 127
1, 481122, Note_on_c, 4, 64, 127
1, 481122, Note_on_c, 7, 67, 127
1, 481126, Note_off_c, 2, 62, 127
1, 481203, Note_on_c, 2, 62, 127
1, 481207, Note_off_c, 4, 64, 127
1, 481283, Note_on_c, 0, 60, 127
1, 481288, Note_off_c, 2, 62, 127
1, 481364, Note_on_c, 2, 62, 127
1, 481368, Note_off_c, 0, 60, 127
1, 481439, Note_off_c, 7, 67, 127
1, 481439, Note_off_c, 7, 55, 127
1, 481444, Note_on_c, 0, 48, 127
1, 481444, Note_on_c, 4, 64, 127
1, 481449, Note_off_c, 2, 62, 127
1, 481758, Note_off_c, 12, 71, 127
1, 481766, Note_on_c, 10, 69, 127
1, 481766, Note_on_c, 0, 60, 127
1, 481923, Note_off_c, 10, 69, 127
1, 481928, Note_on_c, 12, 71, 127
1, 482083, Note_off_c, 0, 60, 127
1, 482085, Note_off_c, 12, 71, 127
1, 482089, Note_on_c, 0, 72, 127
1, 482089, Note_on_c, 10, 57, 127
1, 482399, Note_off_c, 4, 64, 127
1, 482399, Note_off_c, 0, 48, 127
1, 482406, Note_off_c, 10, 57, 127
1, 482411, Note_on_c, 10, 57, 127
1, 482411, Note_on_c, 0, 60, 127
1, 482411, Note_on_c, 10, 69, 127
1, 482568, Note_off_c, 10, 69, 127
1, 482572, Note_on_c, 7, 67, 127
1, 482728, Note_off_c, 0, 60, 127
1, 482728, Note_off_c, 10, 57, 127
1, 482729, Note_off_c, 7, 67, 127
1, 482733, Note_on_c, 2, 50, 127
1, 482733, Note_on_c, 10, 57, 127
1, 482733, Note_on_c, 6, 66, 127
1, 483044, Note_off_c, 0, 72, 127
1, 483050, Note_off_c, 6, 66, 127
1, 483050, Note_off_c, 10, 57, 127
1, 483055, Note_on_c, 12, 71, 127
1, 483055, Note_on_c, 2, 62, 127
1, 483055, Note_on_c, 7, 67, 127
1, 483367, Note_off_c, 2, 50, 127
1, 483372, Note_off_c, 2, 62, 127
1, 483372, Note_off_c, 12, 71, 127
1, 483378, Note_on_c, 10, 69, 127
1, 483378, Note_on_c, 2, 50, 127
1, 483691, Note_off_c, 7, 67, 127
1, 483695, Note_off_c, 2, 50, 127
1, 483700, Note_on_c, 2, 50, 127
1, 483700, Note_on_c, 0, 60, 127
1, 483700, Note_on_c, 6, 66, 127
1, 484014, Note_off_c, 10, 69, 127
1, 484017, Note_off_c, 6, 66, 127
1, 484017, Note_off_c, 0, 60, 127
1, 484017, Note_off_c, 2, 50, 127
1, 484022, Note_on_c, 7, 67, 127
1, 484022, Note_on_c, 7, 55, 127
1, 484022, Note_on_c, 0, 60, 127
1, 484103, Note_on_c, 12, 59, 127
1, 484107, Note_off_c, 0, 60, 127
1, 484183, Note_on_c, 0, 60, 127
1, 484183, Note_on_c, 2, 62, 127
1, 484188, Note_off_c, 12, 59, 127
1, 484264, Note_on_c, 12, 59, 127
1, 484268, Note_off_c, 0, 60, 127
1, 484340, Note_off_c, 2, 62, 127
1, 484344, Note_on_c, 10, 57, 127
1, 484344, Note_on_c, 0, 60, 127
1, 484349, Note_off_c, 12, 59, 127
1, 484501, Note_off_c, 0, 60, 127
1, 484501, Note_off_c, 10, 57, 127
1, 484505, Note_on_c, 12, 59, 127
1, 484505, Note_on_c, 2, 62, 127
1, 484658, Note_off_c, 7, 55, 127
1, 484662, Note_off_c, 2, 62, 127
1, 484662, Note_off_c, 12, 59, 127
1, 484667, Note_on_c, 7, 43, 127
1, 484667, Note_on_c, 7, 55, 127
1, 484667, Note_on_c, 12, 59, 127
1, 485136, Note_off_c, 7, 67, 127
1, 485169, Note_on_c, 10, 69, 127
1, 485302, Note_off_c, 12, 59, 127
1, 485302, Note_off_c, 7, 55, 127
1, 485302, Note_off_c, 7, 43, 127
1, 485304, Note_off_c, 10, 69, 127
1, 485310, Note_on_c, 7, 55, 127
1, 485310, Note_on_c, 12, 71, 127
1, 485439, Note_off_c, 12, 71, 127
1, 485451, Note_on_c, 10, 69, 127
1, 485580, Note_off_c, 10, 69, 127
1, 485592, Note_on_c, 7, 67, 127
1, 485721, Note_off_c, 7, 67, 127
1, 485733, Note_on_c, 6, 66, 127
1, 485862, Note_off_c, 6, 66, 127
1, 485874, Note_on_c, 4, 64, 127
1, 485997, Note_off_c, 7, 55, 127
1, 486003, Note_off_c, 4, 64, 127
1, 486015, Note_on_c, 12, 59, 127
1, 486015, Note_on_c, 2, 62, 127
1, 486144, Note_off_c, 2, 62, 127
1, 486144, Note_off_c, 12, 59, 127
1, 486156, Note_on_c, 4, 64, 127
1, 486156, Note_on_c, 1, 61, 127
1, 486285, Note_off_c, 4, 64, 127
1, 486297, Note_on_c, 2, 62, 127
1, 486426, Note_off_c, 2, 62, 127
1, 486432, Note_off_c, 1, 61, 127
1, 486438, Note_on_c, 1, 61, 127
1, 486578, Note_on_c, 12, 59, 127
1, 486707, Note_off_c, 12, 59, 127
1, 486719, Note_on_c, 10, 57, 127
1, 486843, Note_off_c, 1, 61, 127
1, 486847, Note_off_c, 10, 57, 127
1, 486859, Note_on_c, 7, 55, 127
1, 486859, Note_on_c, 4, 64, 127
1, 486988, Note_off_c, 4, 64, 127
1, 486988, Note_off_c, 7, 55, 127
1, 487000, Note_on_c, 6, 54, 127
1, 487000, Note_on_c, 10, 69, 127
1, 487129, Note_off_c, 10, 69, 127
1, 487141, Note_on_c, 7, 67, 127
1, 487270, Note_off_c, 7, 67, 127
1, 487282, Note_on_c, 6, 66, 127
1, 487411, Note_off_c, 6, 66, 127
1, 487423, Note_on_c, 4, 64, 127
1, 487552, Note_off_c, 4, 64, 127
1, 487564, Note_on_c, 2, 62, 127
1, 487687, Note_off_c, 6, 54, 127
1, 487693, Note_off_c, 2, 62, 127
1, 487705, Note_on_c, 4, 64, 127
1, 487705, Note_on_c, 1, 61, 127
1, 487834, Note_off_c, 1, 61, 127
1, 487834, Note_off_c, 4, 64, 127
1, 487846, Note_on_c, 2, 62, 127
1, 487846, Note_on_c, 12, 59, 127
1, 487975, Note_off_c, 2, 62, 127
1, 487987, Note_on_c, 1, 61, 127
1, 488116, Note_off_c, 1, 61, 127
1, 488122, Note_off_c, 12, 59, 127
1, 488127, Note_on_c, 12, 59, 127
1, 488267, Note_on_c, 10, 57, 127
1, 488396, Note_off_c, 10, 57, 127
1, 488408, Note_on_c, 7, 55, 127
1, 488532, Note_off_c, 12, 59, 127
1, 488536, Note_off_c, 7, 55, 127
1, 488548, Note_on_c, 6, 54, 127
1, 488548, Note_on_c, 10, 69, 127
1, 488677, Note_off_c, 10, 69, 127
1, 488677, Note_off_c, 6, 54, 127
1, 488689, Note_on_c, 4, 52, 127
1, 488689, Note_on_c, 7, 67, 127
1, 488818, Note_off_c, 7, 67, 127
1, 488830, Note_on_c, 6, 66, 127
1, 488957, Note_off_c, 4, 52, 127
1, 488959, Note_off_c, 6, 66, 127
1, 488971, Note_on_c, 7, 55, 127
1, 488971, Note_on_c, 4, 64, 127
1, 489100, Note_off_c, 4, 64, 127
1, 489100, Note_off_c, 7, 55, 127
1, 489112, Note_on_c, 12, 59, 127
1, 489112, Note_on_c, 2, 62, 127
1, 489241, Note_off_c, 2, 62, 127
1, 489253, Note_on_c, 1, 61, 127
1, 489380, Note_off_c, 12, 59, 127
1, 489382, Note_off_c, 1, 61, 127
1, 489394, Note_on_c, 2, 62, 127
1, 489394, Note_on_c, 12, 59, 127
1, 489523, Note_off_c, 12, 59, 127
1, 489523, Note_off_c, 2, 62, 127
1, 489535, Note_on_c, 1, 61, 127
1, 489535, Note_on_c, 10, 57, 127
1, 489664, Note_off_c, 1, 61, 127
1, 489676, Note_on_c, 12, 59, 127
1, 489803, Note_off_c, 10, 57, 127
1, 489805, Note_off_c, 12, 59, 127
1, 489817, Note_on_c, 10, 57, 127
1, 489817, Note_on_c, 1, 61, 127
1, 489946, Note_off_c, 1, 61, 127
1, 489946, Note_off_c, 10, 57, 127
1, 489958, Note_on_c, 7, 55, 127
1, 489958, Note_on_c, 4, 64, 127
1, 490087, Note_off_c, 7, 55, 127
1, 490099, Note_on_c, 6, 54, 127
1, 490226, Note_off_c, 4, 64, 127
1, 490228, Note_off_c, 6, 54, 127
1, 490240, Note_on_c, 4, 52, 127
1, 490240, Note_on_c, 7, 67, 127
1, 490369, Note_off_c, 7, 67, 127
1, 490369, Note_off_c, 4, 52, 127
1, 490381, Note_on_c, 2, 50, 127
1, 490381, Note_on_c, 6, 66, 127
1, 490510, Note_off_c, 6, 66, 127
1, 490510, Note_off_c, 2, 50, 127
1, 490522, Note_on_c, 4, 52, 127
1, 490522, Note_on_c, 4, 64, 127
1, 490651, Note_off_c, 4, 64, 127
1, 490651, Note_off_c, 4, 52, 127
1, 490663, Note_on_c, 6, 54, 127
1, 490663, Note_on_c, 2, 62, 127
1, 490792, Note_off_c, 2, 62, 127
1, 490792, Note_off_c, 6, 54, 127
1, 490804, Note_on_c, 7, 55, 127
1, 490804, Note_on_c, 1, 61, 127
1, 490933, Note_off_c, 1, 61, 127
1, 490933, Note_off_c, 7, 55, 127
1, 490945, Note_on_c, 10, 57, 127
1, 490945, Note_on_c, 12, 59, 127
1, 491074, Note_off_c, 12, 59, 127
1, 491074, Note_off_c, 10, 57, 127
1, 491086, Note_on_c, 12, 59, 127
1, 491086, Note_on_c, 10, 57, 127
1, 491215, Note_off_c, 10, 57, 127
1, 491215, Note_off_c, 12, 59, 127
1, 491227, Note_on_c, 1, 61, 127
1, 491227, Note_on_c, 7, 55, 127
1, 491356, Note_off_c, 7, 55, 127
1, 491356, Note_off_c, 1, 61, 127
1, 491368, Note_on_c, 2, 62, 127
1, 491368, Note_on_c, 6, 54, 127
1, 491497, Note_off_c, 6, 54, 127
1, 491497, Note_off_c, 2, 62, 127
1, 491509, Note_on_c, 4, 64, 127
1, 491509, Note_on_c, 4, 52, 127
1, 491638, Note_off_c, 4, 52, 127
1, 491638, Note_off_c, 4, 64, 127
1, 491650, Note_on_c, 6, 66, 127
1, 491650, Note_on_c, 2, 50, 127
1, 491779, Note_off_c, 2, 50, 127
1, 491779, Note_off_c, 6, 66, 127
1, 491791, Note_on_c, 7, 67, 127
1, 491791, Note_on_c, 4, 52, 127
1, 491920, Note_off_c, 4, 52, 127
1, 491920, Note_off_c, 7, 67, 127
1, 491932, Note_on_c, 10, 69, 127
1, 491932, Note_on_c, 0, 48, 127
1, 492061, Note_off_c, 0, 48, 127
1, 492061, Note_off_c, 10, 69, 127
1, 492073, Note_on_c, 10, 69, 127
1, 492073, Note_on_c, 12, 47, 127
1, 492202, Note_off_c, 12, 47, 127
1, 492202, Note_off_c, 10, 69, 127
1, 492214, Note_on_c, 7, 67, 127
1, 492214, Note_on_c, 2, 50, 127
1, 492273, Note_off_c, 7, 67, 127
1, 492285, Note_on_c, 10, 69, 127
1, 492344, Note_off_c, 10, 69, 127
1, 492344, Note_off_c, 2, 50, 127
1, 492356, Note_on_c, 7, 67, 127
1, 492356, Note_on_c, 7, 55, 127
1, 492415, Note_off_c, 7, 67, 127
1, 492427, Note_on_c, 10, 69, 127
1, 492486, Note_off_c, 10, 69, 127
1, 492486, Note_off_c, 7, 55, 127
1, 492498, Note_on_c, 7, 67, 127
1, 492498, Note_on_c, 12, 59, 127
1, 492557, Note_off_c, 7, 67, 127
1, 492569, Note_on_c, 10, 69, 127
1, 492628, Note_off_c, 10, 69, 127
1, 492628, Note_off_c, 12, 59, 127
1, 492640, Note_on_c, 7, 67, 127
1, 492640, Note_on_c, 2, 62, 127
1, 492769, Note_off_c, 2, 62, 127
1, 492770, Note_off_c, 7, 67, 127
1, 492780, Note_on_c, 7, 67, 127
1, 492920, Note_on_c, 2, 62, 127
1, 493049, Note_off_c, 2, 62, 127
1, 493061, Note_on_c, 12, 59, 127
1, 493185, Note_off_c, 7, 67, 127
1, 493189, Note_off_c, 12, 59, 127
1, 493201, Note_on_c, 12, 59, 127
1, 493201, Note_on_c, 7, 55, 127
1, 493330, Note_off_c, 7, 55, 127
1, 493330, Note_off_c, 12, 59, 127
1, 493342, Note_on_c, 2, 62, 127
1, 493342, Note_on_c, 5, 53, 127
1, 493471, Note_off_c, 5, 53, 127
1, 493483, Note_on_c, 4, 52, 127
1, 493610, Note_off_c, 2, 62, 127
1, 493612, Note_off_c, 4, 52, 127
1, 493624, Note_on_c, 7, 67, 127
1, 493624, Note_on_c, 2, 50, 127
1, 493753, Note_off_c, 2, 50, 127
1, 493753, Note_off_c, 7, 67, 127
1, 493765, Note_on_c, 6, 66, 127
1, 493765, Note_on_c, 1, 49, 127
1, 493894, Note_off_c, 1, 49, 127
1, 493894, Note_off_c, 6, 66, 127
1, 493906, Note_on_c, 7, 67, 127
1, 493906, Note_on_c, 4, 52, 127
1, 493965, Note_off_c, 7, 67, 127
1, 493977, Note_on_c, 10, 69, 127
1, 494036, Note_off_c, 10, 69, 127
1, 494036, Note_off_c, 4, 52, 127
1, 494048, Note_on_c, 7, 67, 127
1, 494048, Note_on_c, 7, 55, 127
1, 494107, Note_off_c, 7, 67, 127
1, 494119, Note_on_c, 10, 69, 127
1, 494178, Note_off_c, 10, 69, 127
1, 494178, Note_off_c, 7, 55, 127
1, 494190, Note_on_c, 7, 67, 127
1, 494190, Note_on_c, 11, 58, 127
1, 494249, Note_off_c, 7, 67, 127
1, 494261, Note_on_c, 10, 69, 127
1, 494320, Note_off_c, 10, 69, 127
1, 494320, Note_off_c, 11, 58, 127
1, 494332, Note_on_c, 7, 67, 127
1, 494332, Note_on_c, 4, 64, 127
1, 494461, Note_off_c, 4, 64, 127
1, 494462, Note_off_c, 7, 67, 127
1, 494472, Note_on_c, 7, 67, 127
1, 494612, Note_on_c, 4, 64, 127
1, 494741, Note_off_c, 4, 64, 127
1, 494752, Note_on_c, 11, 58, 127
1, 494877, Note_off_c, 7, 67, 127
1, 494880, Note_off_c, 11, 58, 127
1, 494892, Note_on_c, 1, 61, 127
1, 494892, Note_on_c, 10, 57, 127
1, 495021, Note_off_c, 10, 57, 127
1, 495021, Note_off_c, 1, 61, 127
1, 495033, Note_on_c, 4, 64, 127
1, 495033, Note_on_c, 7, 55, 127
1, 495162, Note_off_c, 7, 55, 127
1, 495174, Note_on_c, 6, 54, 127
1, 495301, Note_off_c, 4, 64, 127
1, 495303, Note_off_c, 6, 54, 127
1, 495315, Note_on_c, 7, 67, 127
1, 495315, Note_on_c, 4, 52, 127
1, 495444, Note_off_c, 4, 52, 127
1, 495444, Note_off_c, 7, 67, 127
1, 495456, Note_on_c, 6, 66, 127
1, 495456, Note_on_c, 2, 50, 127
1, 495585, Note_off_c, 2, 50, 127
1, 495585, Note_off_c, 6, 66, 127
1, 495597, Note_on_c, 7, 67, 127
1, 495597, Note_on_c, 7, 55, 127
1, 495656, Note_off_c, 7, 67, 127
1, 495668, Note_on_c, 10, 69, 127
1, 495727, Note_off_c, 10, 69, 127
1, 495727, Note_off_c, 7, 55, 127
1, 495739, Note_on_c, 7, 67, 127
1, 495739, Note_on_c, 12, 59, 127
1, 495798, Note_off_c, 7, 67, 127
1, 495810, Note_on_c, 10, 69, 127
1, 495869, Note_off_c, 10, 69, 127
1, 495869, Note_off_c, 12, 59, 127
1, 495881, Note_on_c, 7, 67, 127
1, 495881, Note_on_c, 2, 62, 127
1, 495940, Note_off_c, 7, 67, 127
1, 495952, Note_on_c, 10, 69, 127
1, 496011, Note_off_c, 10, 69, 127
1, 496011, Note_off_c, 2, 62, 127
1, 496023, Note_on_c, 7, 67, 127
1, 496163, Note_on_c, 12, 71, 127
1, 496292, Note_off_c, 12, 71, 127
1, 496304, Note_on_c, 10, 69, 127
1, 496430, Note_off_c, 7, 67, 127
1, 496433, Note_off_c, 10, 69, 127
1, 496445, Note_on_c, 10, 69, 127
1, 496445, Note_on_c, 6, 66, 127
1, 496574, Note_off_c, 6, 66, 127
1, 496574, Note_off_c, 10, 69, 127
1, 496586, Note_on_c, 0, 72, 127
1, 496586, Note_on_c, 2, 62, 127
1, 496715, Note_off_c, 2, 62, 127
1, 496715, Note_off_c, 0, 72, 127
1, 496727, Note_on_c, 6, 66, 127
1, 496727, Note_on_c, 0, 60, 127
1, 496856, Note_off_c, 0, 60, 127
1, 496856, Note_off_c, 6, 66, 127
1, 496868, Note_on_c, 10, 69, 127
1, 496868, Note_on_c, 12, 59, 127
1, 496997, Note_off_c, 12, 59, 127
1, 496997, Note_off_c, 10, 69, 127
1, 497009, Note_on_c, 0, 72, 127
1, 497009, Note_on_c, 10, 57, 127
1, 497138, Note_off_c, 10, 57, 127
1, 497138, Note_off_c, 0, 72, 127
1, 497150, Note_on_c, 12, 71, 127
1, 497150, Note_on_c, 7, 55, 127
1, 497279, Note_off_c, 7, 55, 127
1, 497291, Note_on_c, 12, 59, 127
1, 497420, Note_off_c, 12, 59, 127
1, 497432, Note_on_c, 2, 62, 127
1, 497561, Note_off_c, 2, 62, 127
1, 497573, Note_on_c, 7, 67, 127
1, 497698, Note_off_c, 12, 71, 127
1, 497702, Note_off_c, 7, 67, 127
1, 497714, Note_on_c, 7, 67, 127
1, 497714, Note_on_c, 12, 71, 127
1, 497843, Note_off_c, 12, 71, 127
1, 497843, Note_off_c, 7, 67, 127
1, 497855, Note_on_c, 2, 62, 127
1, 497855, Note_on_c, 2, 74, 127
1, 497984, Note_off_c, 2, 74, 127
1, 497984, Note_off_c, 2, 62, 127
1, 497996, Note_on_c, 12, 59, 127
1, 497996, Note_on_c, 7, 79, 127
1, 498125, Note_off_c, 12, 59, 127
1, 498137, Note_on_c, 7, 55, 127
1, 498264, Note_off_c, 7, 79, 127
1, 498266, Note_off_c, 7, 55, 127
1, 498278, Note_on_c, 12, 59, 127
1, 498278, Note_on_c, 2, 74, 127
1, 498407, Note_off_c, 2, 74, 127
1, 498407, Note_off_c, 12, 59, 127
1, 498419, Note_on_c, 2, 62, 127
1, 498419, Note_on_c, 12, 71, 127
1, 498548, Note_off_c, 2, 62, 127
1, 498560, Note_on_c, 7, 67, 127
1, 498687, Note_off_c, 12, 71, 127
1, 498689, Note_off_c, 7, 67, 127
1, 498701, Note_on_c, 10, 69, 127
1, 498701, Note_on_c, 6, 66, 127
1, 498830, Note_off_c, 6, 66, 127
1, 498830, Note_off_c, 10, 69, 127
1, 498842, Note_on_c, 12, 71, 127
1, 498842, Note_on_c, 7, 67, 127
1, 498971, Note_off_c, 12, 71, 127
1, 498983, Note_on_c, 10, 69, 127
1, 499112, Note_off_c, 10, 69, 127
1, 499118, Note_off_c, 7, 67, 127
1, 499124, Note_on_c, 7, 67, 127
1, 499264, Note_on_c, 6, 66, 127
1, 499393, Note_off_c, 6, 66, 127
1, 499405, Note_on_c, 4, 64, 127
1, 499529, Note_off_c, 7, 67, 127
1, 499533, Note_off_c, 4, 64, 127
1, 499545, Note_on_c, 2, 62, 127
1, 499545, Note_on_c, 12, 71, 127
1, 499674, Note_off_c, 12, 71, 127
1, 499674, Note_off_c, 2, 62, 127
1, 499686, Note_on_c, 1, 61, 127
1, 499686, Note_on_c, 4, 76, 127
1, 499815, Note_off_c, 4, 76, 127
1, 499827, Note_on_c, 2, 74, 127
1, 499956, Note_off_c, 2, 74, 127
1, 499968, Note_on_c, 1, 73, 127
1, 500097, Note_off_c, 1, 73, 127
1, 500109, Note_on_c, 12, 71, 127
1, 500238, Note_off_c, 12, 71, 127
1, 500250, Note_on_c, 10, 69, 127
1, 500373, Note_off_c, 1, 61, 127
1, 500379, Note_off_c, 10, 69, 127
1, 500391, Note_on_c, 4, 64, 127
1, 500391, Note_on_c, 7, 67, 127
1, 500520, Note_off_c, 7, 67, 127
1, 500520, Note_off_c, 4, 64, 127
1, 500532, Note_on_c, 10, 69, 127
1, 500532, Note_on_c, 6, 66, 127
1, 500661, Note_off_c, 10, 69, 127
1, 500673, Note_on_c, 7, 67, 127
1, 500802, Note_off_c, 7, 67, 127
1, 500808, Note_off_c, 6, 66, 127
1, 500814, Note_on_c, 6, 66, 127
1, 500953, Note_on_c, 4, 64, 127
1, 501082, Note_off_c, 4, 64, 127
1, 501094, Note_on_c, 2, 62, 127
1, 501219, Note_off_c, 6, 66, 127
1, 501222, Note_off_c, 2, 62, 127
1, 501234, Note_on_c, 1, 61, 127
1, 501234, Note_on_c, 4, 76, 127
1, 501363, Note_off_c, 4, 76, 127
1, 501363, Note_off_c, 1, 61, 127
1, 501375, Note_on_c, 12, 59, 127
1, 501375, Note_on_c, 2, 74, 127
1, 501504, Note_off_c, 2, 74, 127
1, 501516, Note_on_c, 1, 73, 127
1, 501645, Note_off_c, 1, 73, 127
1, 501657, Note_on_c, 12, 71, 127
1, 501786, Note_off_c, 12, 71, 127
1, 501798, Note_on_c, 10, 69, 127
1, 501927, Note_off_c, 10, 69, 127
1, 501939, Note_on_c, 7, 67, 127
1, 502062, Note_off_c, 12, 59, 127
1, 502068, Note_off_c, 7, 67, 127
1, 502080, Note_on_c, 10, 69, 127
1, 502080, Note_on_c, 6, 66, 127
1, 502209, Note_off_c, 6, 66, 127
1, 502209, Note_off_c, 10, 69, 127
1, 502221, Note_on_c, 7, 67, 127
1, 502221, Note_on_c, 4, 64, 127
1, 502350, Note_off_c, 7, 67, 127
1, 502362, Note_on_c, 6, 66, 127
1, 502491, Note_off_c, 6, 66, 127
1, 502497, Note_off_c, 4, 64, 127
1, 502503, Note_on_c, 4, 64, 127
1, 502643, Note_on_c, 2, 62, 127
1, 502772, Note_off_c, 2, 62, 127
1, 502778, Note_off_c, 4, 64, 127
1, 502784, Note_on_c, 1, 61, 127
1, 502784, Note_on_c, 6, 66, 127
1, 502913, Note_off_c, 6, 66, 127
1, 502913, Note_off_c, 1, 61, 127
1, 502925, Note_on_c, 12, 59, 127
1, 502925, Note_on_c, 7, 67, 127
1, 503054, Note_off_c, 7, 67, 127
1, 503054, Note_off_c, 12, 59, 127
1, 503066, Note_on_c, 4, 64, 127
1, 503066, Note_on_c, 1, 61, 127
1, 503195, Note_off_c, 1, 61, 127
1, 503195, Note_off_c, 4, 64, 127
1, 503207, Note_on_c, 2, 62, 127
1, 503207, Note_on_c, 12, 71, 127
1, 503336, Note_off_c, 12, 71, 127
1, 503336, Note_off_c, 2, 62, 127
1, 503348, Note_on_c, 1, 61, 127
1, 503348, Note_on_c, 10, 69, 127
1, 503477, Note_off_c, 10, 69, 127
1, 503477, Note_off_c, 1, 61, 127
1, 503489, Note_on_c, 12, 59, 127
1, 503489, Note_on_c, 7, 67, 127
1, 503618, Note_off_c, 7, 67, 127
1, 503618, Note_off_c, 12, 59, 127
1, 503630, Note_on_c, 10, 57, 127
1, 503630, Note_on_c, 10, 69, 127
1, 503759, Note_off_c, 10, 69, 127
1, 503759, Note_off_c, 10, 57, 127
1, 503771, Note_on_c, 7, 55, 127
1, 503771, Note_on_c, 12, 71, 127
1, 503900, Note_off_c, 12, 71, 127
1, 503900, Note_off_c, 7, 55, 127
1, 503912, Note_on_c, 1, 61, 127
1, 503912, Note_on_c, 4, 64, 127
1, 504041, Note_off_c, 4, 64, 127
1, 504041, Note_off_c, 1, 61, 127
1, 504053, Note_on_c, 12, 59, 127
1, 504053, Note_on_c, 2, 74, 127
1, 504182, Note_off_c, 2, 74, 127
1, 504182, Note_off_c, 12, 59, 127
1, 504194, Note_on_c, 10, 57, 127
1, 504194, Note_on_c, 1, 73, 127
1, 504323, Note_off_c, 1, 73, 127
1, 504323, Note_off_c, 10, 57, 127
1, 504335, Note_on_c, 7, 55, 127
1, 504335, Note_on_c, 12, 71, 127
1, 504464, Note_off_c, 12, 71, 127
1, 504464, Note_off_c, 7, 55, 127
1, 504476, Note_on_c, 6, 54, 127
1, 504476, Note_on_c, 1, 73, 127
1, 504605, Note_off_c, 1, 73, 127
1, 504605, Note_off_c, 6, 54, 127
1, 504617, Note_on_c, 4, 52, 127
1, 504617, Note_on_c, 2, 74, 127
1, 504746, Note_off_c, 2, 74, 127
1, 504746, Note_off_c, 4, 52, 127
1, 504758, Note_on_c, 10, 57, 127
1, 504758, Note_on_c, 1, 73, 127
1, 504887, Note_off_c, 1, 73, 127
1, 504887, Note_off_c, 10, 57, 127
1, 504899, Note_on_c, 7, 55, 127
1, 504899, Note_on_c, 4, 76, 127
1, 505028, Note_off_c, 4, 76, 127
1, 505028, Note_off_c, 7, 55, 127
1, 505040, Note_on_c, 6, 54, 127
1, 505040, Note_on_c, 6, 78, 127
1, 505169, Note_off_c, 6, 78, 127
1, 505169, Note_off_c, 6, 54, 127
1, 505181, Note_on_c, 4, 52, 127
1, 505181, Note_on_c, 7, 79, 127
1, 505310, Note_off_c, 7, 79, 127
1, 505310, Note_off_c, 4, 52, 127
1, 505322, Note_on_c, 6, 54, 127
1, 505322, Note_on_c, 6, 78, 127
1, 505451, Note_off_c, 6, 78, 127
1, 505451, Note_off_c, 6, 54, 127
1, 505463, Note_on_c, 7, 55, 127
1, 505463, Note_on_c, 4, 76, 127
1, 505592, Note_off_c, 4, 76, 127
1, 505592, Note_off_c, 7, 55, 127
1, 505604, Note_on_c, 6, 54, 127
1, 505604, Note_on_c, 4, 76, 127
1, 505733, Note_off_c, 4, 76, 127
1, 505733, Note_off_c, 6, 54, 127
1, 505745, Note_on_c, 10, 57, 127
1, 505745, Note_on_c, 2, 74, 127
1, 505804, Note_off_c, 2, 74, 127
1, 505816, Note_on_c, 1, 73, 127
1, 505875, Note_off_c, 1, 73, 127
1, 505875, Note_off_c, 10, 57, 127
1, 505887, Note_on_c, 2, 62, 127
1, 505887, Note_on_c, 2, 74, 127
1, 505946, Note_off_c, 2, 74, 127
1, 505958, Note_on_c, 4, 76, 127
1, 506017, Note_off_c, 4, 76, 127
1, 506017, Note_off_c, 2, 62, 127
1, 506029, Note_on_c, 6, 66, 127
1, 506029, Note_on_c, 2, 74, 127
1, 506088, Note_off_c, 2, 74, 127
1, 506100, Note_on_c, 4, 76, 127
1, 506159, Note_off_c, 4, 76, 127
1, 506159, Note_off_c, 6, 66, 127
1, 506171, Note_on_c, 10, 69, 127
1, 506171, Note_on_c, 2, 74, 127
1, 506300, Note_off_c, 10, 69, 127
1, 506301, Note_off_c, 2, 74, 127
1, 506311, Note_on_c, 2, 74, 127
1, 506451, Note_on_c, 10, 69, 127
1, 506580, Note_off_c, 10, 69, 127
1, 506592, Note_on_c, 6, 66, 127
1, 506716, Note_off_c, 2, 74, 127
1, 506720, Note_off_c, 6, 66, 127
1, 506732, Note_on_c, 2, 62, 127
1, 506732, Note_on_c, 6, 66, 127
1, 506861, Note_off_c, 6, 66, 127
1, 506861, Note_off_c, 2, 62, 127
1, 506873, Note_on_c, 0, 60, 127
1, 506873, Note_on_c, 10, 69, 127
1, 507002, Note_off_c, 0, 60, 127
1, 507014, Note_on_c, 12, 59, 127
1, 507141, Note_off_c, 10, 69, 127
1, 507143, Note_off_c, 12, 59, 127
1, 507154, Note_on_c, 10, 57, 127
1, 507154, Note_on_c, 2, 74, 127
1, 507283, Note_off_c, 2, 74, 127
1, 507283, Note_off_c, 10, 57, 127
1, 507295, Note_on_c, 8, 56, 127
1, 507295, Note_on_c, 1, 73, 127
1, 507424, Note_off_c, 1, 73, 127
1, 507424, Note_off_c, 8, 56, 127
1, 507436, Note_on_c, 12, 59, 127
1, 507436, Note_on_c, 2, 74, 127
1, 507495, Note_off_c, 2, 74, 127
1, 507507, Note_on_c, 4, 76, 127
1, 507566, Note_off_c, 4, 76, 127
1, 507566, Note_off_c, 12, 59, 127
1, 507578, Note_on_c, 2, 62, 127
1, 507578, Note_on_c, 2, 74, 127
1, 507637, Note_off_c, 2, 74, 127
1, 507650, Note_on_c, 4, 76, 127
1, 507708, Note_off_c, 2, 62, 127
1, 507709, Note_off_c, 4, 76, 127
1, 507721, Note_on_c, 5, 65, 127
1, 507721, Note_on_c, 2, 74, 127
1, 507780, Note_off_c, 2, 74, 127
1, 507792, Note_on_c, 4, 76, 127
1, 507851, Note_off_c, 4, 76, 127
1, 507851, Note_off_c, 5, 65, 127
1, 507863, Note_on_c, 12, 71, 127
1, 507863, Note_on_c, 2, 74, 127
1, 507992, Note_off_c, 12, 71, 127
1, 507993, Note_off_c, 2, 74, 127
1, 508002, Note_on_c, 2, 74, 127
1, 508142, Note_on_c, 12, 71, 127
1, 508271, Note_off_c, 12, 71, 127
1, 508283, Note_on_c, 5, 65, 127
1, 508407, Note_off_c, 2, 74, 127
1, 508411, Note_off_c, 5, 65, 127
1, 508423, Note_on_c, 4, 64, 127
1, 508423, Note_on_c, 8, 68, 127
1, 508552, Note_off_c, 8, 68, 127
1, 508552, Note_off_c, 4, 64, 127
1, 508564, Note_on_c, 2, 62, 127
1, 508564, Note_on_c, 12, 71, 127
1, 508693, Note_off_c, 2, 62, 127
1, 508705, Note_on_c, 1, 61, 127
1, 508832, Note_off_c, 12, 71, 127
1, 508834, Note_off_c, 1, 61, 127
1, 508846, Note_on_c, 12, 59, 127
1, 508846, Note_on_c, 2, 74, 127
1, 508975, Note_off_c, 2, 74, 127
1, 508975, Note_off_c, 12, 59, 127
1, 508987, Note_on_c, 10, 57, 127
1, 508987, Note_on_c, 1, 73, 127
1, 509116, Note_off_c, 1, 73, 127
1, 509116, Note_off_c, 10, 57, 127
1, 509128, Note_on_c, 2, 62, 127
1, 509128, Note_on_c, 2, 74, 127
1, 509187, Note_off_c, 2, 74, 127
1, 509199, Note_on_c, 4, 76, 127
1, 509258, Note_off_c, 4, 76, 127
1, 509258, Note_off_c, 2, 62, 127
1, 509270, Note_on_c, 6, 66, 127
1, 509270, Note_on_c, 2, 74, 127
1, 509329, Note_off_c, 2, 74, 127
1, 509341, Note_on_c, 4, 76, 127
1, 509400, Note_off_c, 4, 76, 127
1, 509400, Note_off_c, 6, 66, 127
1, 509412, Note_on_c, 10, 69, 127
1, 509412, Note_on_c, 2, 74, 127
1, 509471, Note_off_c, 2, 74, 127
1, 509483, Note_on_c, 4, 76, 127
1, 509542, Note_off_c, 4, 76, 127
1, 509542, Note_off_c, 10, 69, 127
1, 509554, Note_on_c, 2, 74, 127
1, 509694, Note_on_c, 6, 78, 127
1, 509823, Note_off_c, 6, 78, 127
1, 509835, Note_on_c, 4, 76, 127
1, 509961, Note_off_c, 2, 74, 127
1, 509964, Note_off_c, 4, 76, 127
1, 509976, Note_on_c, 1, 73, 127
1, 509976, Note_on_c, 4, 76, 127
1, 510105, Note_off_c, 4, 76, 127
1, 510105, Note_off_c, 1, 73, 127
1, 510117, Note_on_c, 10, 69, 127
1, 510117, Note_on_c, 7, 79, 127
1, 510246, Note_off_c, 7, 79, 127
1, 510246, Note_off_c, 10, 69, 127
1, 510258, Note_on_c, 7, 67, 127
1, 510258, Note_on_c, 1, 73, 127
1, 510387, Note_off_c, 1, 73, 127
1, 510387, Note_off_c, 7, 67, 127
1, 510399, Note_on_c, 6, 66, 127
1, 510399, Note_on_c, 4, 76, 127
1, 510528, Note_off_c, 4, 76, 127
1, 510528, Note_off_c, 6, 66, 127
1, 510540, Note_on_c, 4, 64, 127
1, 510540, Note_on_c, 7, 79, 127
1, 510669, Note_off_c, 7, 79, 127
1, 510669, Note_off_c, 4, 64, 127
1, 510681, Note_on_c, 2, 62, 127
1, 510681, Note_on_c, 6, 78, 127
1, 510810, Note_off_c, 2, 62, 127
1, 510822, Note_on_c, 10, 57, 127
1, 510951, Note_off_c, 10, 57, 127
1, 510963, Note_on_c, 6, 54, 127
1, 511092, Note_off_c, 6, 54, 127
1, 511104, Note_on_c, 2, 50, 127
1, 511229, Note_off_c, 6, 78, 127
1, 511233, Note_off_c, 2, 50, 127
1, 511245, Note_on_c, 10, 45, 127
1, 511245, Note_on_c, 2, 74, 127
1, 511374, Note_off_c, 2, 74, 127
1, 511374, Note_off_c, 10, 45, 127
1, 511386, Note_on_c, 6, 42, 127
1, 511386, Note_on_c, 10, 69, 127
1, 511515, Note_off_c, 10, 69, 127
1, 511515, Note_off_c, 6, 42, 127
1, 511527, Note_on_c, 2, 38, 127
1, 511527, Note_on_c, 6, 66, 127
1, 511656, Note_off_c, 6, 66, 127
1, 511656, Note_off_c, 2, 38, 127
1, 511668, Note_on_c, 6, 42, 127
1, 511668, Note_on_c, 2, 62, 127
1, 511797, Note_off_c, 2, 62, 127
1, 511797, Note_off_c, 6, 42, 127
1, 511809, Note_on_c, 10, 45, 127
1, 511809, Note_on_c, 6, 66, 127
1, 511938, Note_off_c, 6, 66, 127
1, 511938, Note_off_c, 10, 45, 127
1, 511950, Note_on_c, 2, 50, 127
1, 511950, Note_on_c, 10, 69, 127
1, 512079, Note_off_c, 10, 69, 127
1, 512091, Note_on_c, 1, 73, 127
1, 512220, Note_off_c, 1, 73, 127
1, 512232, Note_on_c, 2, 74, 127
1, 512358, Note_off_c, 2, 50, 127
1, 512373, Note_on_c, 2, 50, 127
1, 512502, Note_off_c, 2, 50, 127
1, 512514, Note_on_c, 4, 52, 127
1, 512643, Note_off_c, 4, 52, 127
1, 512655, Note_on_c, 6, 54, 127
1, 512784, Note_off_c, 6, 54, 127
1, 512796, Note_on_c, 7, 55, 127
1, 512925, Note_off_c, 7, 55, 127
1, 512930, Note_off_c, 2, 74, 127
1, 512937, Note_on_c, 10, 57, 127
1, 513066, Note_off_c, 10, 57, 127
1, 513078, Note_on_c, 12, 59, 127
1, 513207, Note_off_c, 12, 59, 127
1, 513219, Note_on_c, 0, 60, 127
1, 513219, Note_on_c, 10, 81, 127
1, 513348, Note_off_c, 10, 81, 127
1, 513360, Note_on_c, 2, 50, 127
1, 513360, Note_on_c, 7, 79, 127
1, 513426, Note_off_c, 0, 60, 127
1, 513489, Note_off_c, 7, 79, 127
1, 513489, Note_off_c, 2, 50, 127
1, 513501, Note_on_c, 0, 60, 127
1, 513501, Note_on_c, 6, 78, 127
1, 513630, Note_off_c, 6, 78, 127
1, 513642, Note_on_c, 4, 76, 127
1, 513769, Note_off_c, 0, 60, 127
1, 513771, Note_off_c, 4, 76, 127
1, 513783, Note_on_c, 12, 59, 127
1, 513783, Note_on_c, 2, 74, 127
1, 513912, Note_off_c, 2, 74, 127
1, 513912, Note_off_c, 12, 59, 127
1, 513924, Note_on_c, 10, 57, 127
1, 513924, Note_on_c, 0, 72, 127
1, 514053, Note_off_c, 0, 72, 127
1, 514053, Note_off_c, 10, 57, 127
1, 514065, Note_on_c, 7, 55, 127
1, 514065, Note_on_c, 12, 71, 127
1, 514194, Note_off_c, 12, 71, 127
1, 514194, Note_off_c, 7, 55, 127
1, 514206, Note_on_c, 10, 57, 127
1, 514206, Note_on_c, 10, 69, 127
1, 514335, Note_off_c, 10, 69, 127
1, 514335, Note_off_c, 10, 57, 127
1, 514347, Note_on_c, 12, 59, 127
1, 514347, Note_on_c, 7, 67, 127
1, 514476, Note_off_c, 12, 59, 127
1, 514488, Note_on_c, 0, 60, 127
1, 514617, Note_off_c, 0, 60, 127
1, 514629, Note_on_c, 2, 62, 127
1, 514758, Note_off_c, 2, 62, 127
1, 514770, Note_on_c, 4, 64, 127
1, 514895, Note_off_c, 7, 67, 127
1, 514899, Note_off_c, 4, 64, 127
1, 514911, Note_on_c, 5, 65, 127
1, 514911, Note_on_c, 2, 86, 127
1, 515040, Note_off_c, 2, 86, 127
1, 515051, Note_on_c, 7, 55, 127
1, 515051, Note_on_c, 0, 84, 127
1, 515118, Note_off_c, 5, 65, 127
1, 515180, Note_off_c, 0, 84, 127
1, 515180, Note_off_c, 7, 55, 127
1, 515192, Note_on_c, 5, 65, 127
1, 515192, Note_on_c, 12, 83, 127
1, 515321, Note_off_c, 12, 83, 127
1, 515333, Note_on_c, 10, 81, 127
1, 515460, Note_off_c, 5, 65, 127
1, 515462, Note_off_c, 10, 81, 127
1, 515474, Note_on_c, 4, 64, 127
1, 515474, Note_on_c, 7, 79, 127
1, 515603, Note_off_c, 7, 79, 127
1, 515603, Note_off_c, 4, 64, 127
1, 515615, Note_on_c, 2, 62, 127
1, 515615, Note_on_c, 5, 77, 127
1, 515744, Note_off_c, 5, 77, 127
1, 515744, Note_off_c, 2, 62, 127
1, 515756, Note_on_c, 0, 60, 127
1, 515756, Note_on_c, 4, 76, 127
1, 515885, Note_off_c, 4, 76, 127
1, 515897, Note_on_c, 2, 74, 127
1, 516026, Note_off_c, 2, 74, 127
1, 516038, Note_on_c, 0, 72, 127
1, 516167, Note_off_c, 0, 72, 127
1, 516179, Note_on_c, 12, 71, 127
1, 516304, Note_off_c, 0, 60, 127
1, 516308, Note_off_c, 12, 71, 127
1, 516320, Note_on_c, 4, 64, 127
1, 516320, Note_on_c, 10, 69, 127
1, 516449, Note_off_c, 10, 69, 127
1, 516449, Note_off_c, 4, 64, 127
1, 516461, Note_on_c, 7, 67, 127
1, 516590, Note_off_c, 7, 67, 127
1, 516602, Note_on_c, 0, 72, 127
1, 516602, Note_on_c, 6, 66, 127
1, 516731, Note_off_c, 0, 72, 127
1, 516743, Note_on_c, 12, 71, 127
1, 516870, Note_off_c, 6, 66, 127
1, 516872, Note_off_c, 12, 71, 127
1, 516884, Note_on_c, 10, 69, 127
1, 516884, Note_on_c, 3, 75, 127
1, 517013, Note_off_c, 3, 75, 127
1, 517013, Note_off_c, 10, 69, 127
1, 517025, Note_on_c, 7, 67, 127
1, 517025, Note_on_c, 4, 76, 127
1, 517154, Note_off_c, 7, 67, 127
1, 517166, Note_on_c, 6, 66, 127
1, 517293, Note_off_c, 4, 76, 127
1, 517295, Note_off_c, 6, 66, 127
1, 517307, Note_on_c, 4, 64, 127
1, 517307, Note_on_c, 11, 70, 127
1, 517436, Note_off_c, 11, 70, 127
1, 517436, Note_off_c, 4, 64, 127
1, 517448, Note_on_c, 3, 63, 127
1, 517448, Note_on_c, 12, 71, 127
1, 517577, Note_off_c, 3, 63, 127
1, 517589, Note_on_c, 1, 61, 127
1, 517716, Note_off_c, 12, 71, 127
1, 517718, Note_off_c, 1, 61, 127
1, 517730, Note_on_c, 12, 59, 127
1, 517730, Note_on_c, 3, 63, 127
1, 517859, Note_off_c, 3, 63, 127
1, 517859, Note_off_c, 12, 59, 127
1, 517871, Note_on_c, 10, 57, 127
1, 517871, Note_on_c, 6, 66, 127
1, 518000, Note_off_c, 10, 57, 127
1, 518012, Note_on_c, 7, 55, 127
1, 518139, Note_off_c, 6, 66, 127
1, 518141, Note_off_c, 7, 55, 127
1, 518153, Note_on_c, 6, 54, 127
1, 518153, Note_on_c, 10, 69, 127
1, 518282, Note_off_c, 10, 69, 127
1, 518282, Note_off_c, 6, 54, 127
1, 518294, Note_on_c, 4, 52, 127
1, 518294, Note_on_c, 0, 72, 127
1, 518423, Note_off_c, 0, 72, 127
1, 518423, Note_off_c, 4, 52, 127
1, 518435, Note_on_c, 3, 51, 127
1, 518435, Note_on_c, 12, 71, 127
1, 518564, Note_off_c, 12, 71, 127
1, 518564, Note_off_c, 3, 51, 127
1, 518576, Note_on_c, 1, 49, 127
1, 518576, Note_on_c, 10, 69, 127
1, 518705, Note_off_c, 10, 69, 127
1, 518705, Note_off_c, 1, 49, 127
1, 518717, Note_on_c, 12, 47, 127
1, 518717, Note_on_c, 7, 67, 127
1, 518846, Note_off_c, 7, 67, 127
1, 518846, Note_off_c, 12, 47, 127
1, 518858, Note_on_c, 0, 48, 127
1, 518858, Note_on_c, 10, 69, 127
1, 518987, Note_off_c, 10, 69, 127
1, 518987, Note_off_c, 0, 48, 127
1, 518999, Note_on_c, 10, 45, 127
1, 518999, Note_on_c, 6, 66, 127
1, 519128, Note_off_c, 6, 66, 127
1, 519128, Note_off_c, 10, 45, 127
1, 519140, Note_on_c, 7, 43, 127
1, 519140, Note_on_c, 4, 64, 127
1, 519269, Note_off_c, 4, 64, 127
1, 519281, Note_on_c, 7, 67, 127
1, 519410, Note_off_c, 7, 67, 127
1, 519422, Note_on_c, 12, 71, 127
1, 519551, Note_off_c, 12, 71, 127
1, 519563, Note_on_c, 4, 76, 127
1, 519688, Note_off_c, 7, 43, 127
1, 519692, Note_off_c, 4, 76, 127
1, 519704, Note_on_c, 12, 47, 127
1, 519704, Note_on_c, 7, 79, 127
1, 519833, Note_off_c, 7, 79, 127
1, 519833, Note_off_c, 12, 47, 127
1, 519845, Note_on_c, 4, 52, 127
1, 519845, Note_on_c, 12, 83, 127
1, 519974, Note_off_c, 12, 83, 127
1, 519974, Note_off_c, 4, 52, 127
1, 519986, Note_on_c, 7, 55, 127
1, 519986, Note_on_c, 7, 79, 127
1, 520115, Note_off_c, 7, 79, 127
1, 520115, Note_off_c, 7, 55, 127
1, 520127, Note_on_c, 12, 59, 127
1, 520127, Note_on_c, 4, 76, 127
1, 520256, Note_off_c, 4, 76, 127
1, 520256, Note_off_c, 12, 59, 127
1, 520268, Note_on_c, 3, 63, 127
1, 520268, Note_on_c, 12, 71, 127
1, 520397, Note_off_c, 12, 71, 127
1, 520397, Note_off_c, 3, 63, 127
1, 520409, Note_on_c, 4, 64, 127
1, 520409, Note_on_c, 7, 67, 127
1, 520538, Note_off_c, 7, 67, 127
1, 520550, Note_on_c, 6, 66, 127
1, 520677, Note_off_c, 4, 64, 127
1, 520679, Note_off_c, 6, 66, 127
1, 520691, Note_on_c, 7, 43, 127
1, 520691, Note_on_c, 4, 64, 127
1, 520820, Note_off_c, 4, 64, 127
1, 520820, Note_off_c, 7, 43, 127
1, 520832, Note_on_c, 10, 45, 127
1, 520832, Note_on_c, 5, 65, 127
1, 520961, Note_off_c, 5, 65, 127
1, 520973, Note_on_c, 10, 69, 127
1, 521102, Note_off_c, 10, 69, 127
1, 521114, Note_on_c, 0, 72, 127
1, 521243, Note_off_c, 0, 72, 127
1, 521255, Note_on_c, 5, 77, 127
1, 521380, Note_off_c, 10, 45, 127
1, 521384, Note_off_c, 5, 77, 127
1, 521396, Note_on_c, 0, 48, 127
1, 521396, Note_on_c, 10, 81, 127
1, 521525, Note_off_c, 10, 81, 127
1, 521525, Note_off_c, 0, 48, 127
1, 521537, Note_on_c, 5, 53, 127
1, 521537, Note_on_c, 0, 84, 127
1, 521666, Note_off_c, 0, 84, 127
1, 521666, Note_off_c, 5, 53, 127
1, 521678, Note_on_c, 10, 57, 127
1, 521678, Note_on_c, 10, 81, 127
1, 521807, Note_off_c, 10, 81, 127
1, 521807, Note_off_c, 10, 57, 127
1, 521819, Note_on_c, 0, 60, 127
1, 521819, Note_on_c, 5, 77, 127
1, 521948, Note_off_c, 5, 77, 127
1, 521948, Note_off_c, 0, 60, 127
1, 521960, Note_on_c, 3, 63, 127
1, 521960, Note_on_c, 0, 72, 127
1, 522089, Note_off_c, 0, 72, 127
1, 522089, Note_off_c, 3, 63, 127
1, 522100, Note_on_c, 4, 64, 127
1, 522100, Note_on_c, 10, 69, 127
1, 522229, Note_off_c, 10, 69, 127
1, 522241, Note_on_c, 7, 67, 127
1, 522368, Note_off_c, 4, 64, 127
1, 522370, Note_off_c, 7, 67, 127
1, 522382, Note_on_c, 11, 46, 127
1, 522382, Note_on_c, 6, 66, 127
1, 522511, Note_off_c, 6, 66, 127
1, 522511, Note_off_c, 11, 46, 127
1, 522523, Note_on_c, 12, 47, 127
1, 522523, Note_on_c, 7, 67, 127
1, 522652, Note_off_c, 7, 67, 127
1, 522664, Note_on_c, 12, 71, 127
1, 522793, Note_off_c, 12, 71, 127
1, 522805, Note_on_c, 4, 76, 127
1, 522934, Note_off_c, 4, 76, 127
1, 522946, Note_on_c, 7, 79, 127
1, 523071, Note_off_c, 12, 47, 127
1, 523075, Note_off_c, 7, 79, 127
1, 523087, Note_on_c, 1, 49, 127
1, 523087, Note_on_c, 4, 76, 127
1, 523216, Note_off_c, 4, 76, 127
1, 523216, Note_off_c, 1, 49, 127
1, 523228, Note_on_c, 3, 51, 127
1, 523228, Note_on_c, 0, 84, 127
1, 523357, Note_off_c, 0, 84, 127
1, 523357, Note_off_c, 3, 51, 127
1, 523369, Note_on_c, 4, 52, 127
1, 523369, Note_on_c, 12, 83, 127
1, 523498, Note_off_c, 12, 83, 127
1, 523498, Note_off_c, 4, 52, 127
1, 523510, Note_on_c, 6, 54, 127
1, 523510, Note_on_c, 10, 81, 127
1, 523639, Note_off_c, 10, 81, 127
1, 523639, Note_off_c, 6, 54, 127
1, 523651, Note_on_c, 7, 55, 127
1, 523651, Note_on_c, 7, 79, 127
1, 523780, Note_off_c, 7, 79, 127
1, 523780, Note_off_c, 7, 55, 127
1, 523792, Note_on_c, 10, 57, 127
1, 523792, Note_on_c, 6, 78, 127
1, 523921, Note_off_c, 6, 78, 127
1, 523921, Note_off_c, 10, 57, 127
1, 523933, Note_on_c, 7, 55, 127
1, 523933, Note_on_c, 4, 76, 127
1, 524062, Note_off_c, 4, 76, 127
1, 524062, Note_off_c, 7, 55, 127
1, 524074, Note_on_c, 6, 54, 127
1, 524074, Note_on_c, 3, 75, 127
1, 524203, Note_off_c, 3, 75, 127
1, 524203, Note_off_c, 6, 54, 127
1, 524215, Note_on_c, 7, 55, 127
1, 524215, Note_on_c, 4, 76, 127
1, 524344, Note_off_c, 4, 76, 127
1, 524344, Note_off_c, 7, 55, 127
1, 524356, Note_on_c, 4, 52, 127
1, 524356, Note_on_c, 7, 79, 127
1, 524485, Note_off_c, 7, 79, 127
1, 524485, Note_off_c, 4, 52, 127
1, 524497, Note_on_c, 7, 55, 127
1, 524497, Note_on_c, 4, 76, 127
1, 524626, Note_off_c, 4, 76, 127
1, 524626, Note_off_c, 7, 55, 127
1, 524638, Note_on_c, 12, 59, 127
1, 524638, Note_on_c, 12, 71, 127
1, 524767, Note_off_c, 12, 71, 127
1, 524767, Note_off_c, 12, 59, 127
1, 524779, Note_on_c, 4, 64, 127
1, 524779, Note_on_c, 7, 67, 127
1, 524908, Note_off_c, 7, 67, 127
1, 524908, Note_off_c, 4, 64, 127
1, 524920, Note_on_c, 3, 63, 127
1, 524920, Note_on_c, 6, 66, 127
1, 525049, Note_off_c, 6, 66, 127
1, 525049, Note_off_c, 3, 63, 127
1, 525061, Note_on_c, 4, 64, 127
1, 525061, Note_on_c, 7, 67, 127
1, 525190, Note_off_c, 7, 67, 127
1, 525190, Note_off_c, 4, 64, 127
1, 525202, Note_on_c, 7, 67, 127
1, 525202, Note_on_c, 4, 64, 127
1, 525331, Note_off_c, 4, 64, 127
1, 525331, Note_off_c, 7, 67, 127
1, 525343, Note_on_c, 4, 64, 127
1, 525343, Note_on_c, 7, 67, 127
1, 525472, Note_off_c, 7, 67, 127
1, 525472, Note_off_c, 4, 64, 127
1, 525484, Note_on_c, 12, 59, 127
1, 525484, Note_on_c, 12, 71, 127
1, 525613, Note_off_c, 12, 71, 127
1, 525613, Note_off_c, 12, 59, 127
1, 525625, Note_on_c, 7, 55, 127
1, 525625, Note_on_c, 4, 76, 127
1, 525754, Note_off_c, 4, 76, 127
1, 525754, Note_off_c, 7, 55, 127
1, 525766, Note_on_c, 12, 59, 127
1, 525766, Note_on_c, 3, 75, 127
1, 525895, Note_off_c, 3, 75, 127
1, 525895, Note_off_c, 12, 59, 127
1, 525907, Note_on_c, 0, 48, 127
1, 525907, Note_on_c, 4, 76, 127
1, 526036, Note_off_c, 4, 76, 127
1, 526048, Note_on_c, 2, 74, 127
1, 526177, Note_off_c, 2, 74, 127
1, 526189, Note_on_c, 0, 72, 127
1, 526318, Note_off_c, 0, 72, 127
1, 526330, Note_on_c, 12, 71, 127
1, 526459, Note_off_c, 12, 71, 127
1, 526471, Note_on_c, 10, 69, 127
1, 526594, Note_off_c, 0, 48, 127
1, 526600, Note_off_c, 10, 69, 127
1, 526612, Note_on_c, 4, 64, 127
1, 526612, Note_on_c, 7, 67, 127
1, 526741, Note_off_c, 7, 67, 127
1, 526741, Note_off_c, 4, 64, 127
1, 526753, Note_on_c, 10, 69, 127
1, 526753, Note_on_c, 6, 66, 127
1, 526882, Note_off_c, 10, 69, 127
1, 526894, Note_on_c, 7, 67, 127
1, 527023, Note_off_c, 7, 67, 127
1, 527029, Note_off_c, 6, 66, 127
1, 527035, Note_on_c, 6, 66, 127
1, 527175, Note_on_c, 4, 64, 127
1, 527304, Note_off_c, 4, 64, 127
1, 527316, Note_on_c, 2, 62, 127
1, 527440, Note_off_c, 6, 66, 127
1, 527444, Note_off_c, 2, 62, 127
1, 527456, Note_on_c, 0, 60, 127
1, 527456, Note_on_c, 10, 69, 127
1, 527585, Note_off_c, 10, 69, 127
1, 527585, Note_off_c, 0, 60, 127
1, 527597, Note_on_c, 12, 59, 127
1, 527597, Note_on_c, 2, 74, 127
1, 527726, Note_off_c, 2, 74, 127
1, 527738, Note_on_c, 0, 72, 127
1, 527867, Note_off_c, 0, 72, 127
1, 527879, Note_on_c, 12, 71, 127
1, 528008, Note_off_c, 12, 71, 127
1, 528020, Note_on_c, 10, 69, 127
1, 528149, Note_off_c, 10, 69, 127
1, 528161, Note_on_c, 7, 67, 127
1, 528284, Note_off_c, 12, 59, 127
1, 528290, Note_off_c, 7, 67, 127
1, 528301, Note_on_c, 10, 69, 127
1, 528301, Note_on_c, 6, 66, 127
1, 528430, Note_off_c, 6, 66, 127
1, 528430, Note_off_c, 10, 69, 127
1, 528442, Note_on_c, 7, 67, 127
1, 528442, Note_on_c, 4, 64, 127
1, 528571, Note_off_c, 7, 67, 127
1, 528583, Note_on_c, 6, 66, 127
1, 528712, Note_off_c, 6, 66, 127
1, 528718, Note_off_c, 4, 64, 127
1, 528724, Note_on_c, 4, 64, 127
1, 528864, Note_on_c, 2, 62, 127
1, 528993, Note_off_c, 2, 62, 127
1, 529005, Note_on_c, 0, 60, 127
1, 529129, Note_off_c, 4, 64, 127
1, 529133, Note_off_c, 0, 60, 127
1, 529145, Note_on_c, 12, 59, 127
1, 529145, Note_on_c, 2, 74, 127
1, 529274, Note_off_c, 2, 74, 127
1, 529274, Note_off_c, 12, 59, 127
1, 529286, Note_on_c, 10, 57, 127
1, 529286, Note_on_c, 0, 72, 127
1, 529415, Note_off_c, 0, 72, 127
1, 529427, Note_on_c, 12, 71, 127
1, 529556, Note_off_c, 12, 71, 127
1, 529568, Note_on_c, 10, 69, 127
1, 529697, Note_off_c, 10, 69, 127
1, 529709, Note_on_c, 7, 67, 127
1, 529834, Note_off_c, 10, 57, 127
1, 529838, Note_off_c, 7, 67, 127
1, 529850, Note_on_c, 12, 59, 127
1, 529850, Note_on_c, 6, 66, 127
1, 529979, Note_off_c, 6, 66, 127
1, 529979, Note_off_c, 12, 59, 127
1, 529991, Note_on_c, 0, 60, 127
1, 529991, Note_on_c, 4, 64, 127
1, 530120, Note_off_c, 4, 64, 127
1, 530120, Note_off_c, 0, 60, 127
1, 530132, Note_on_c, 2, 62, 127
1, 530132, Note_on_c, 6, 66, 127
1, 530261, Note_off_c, 6, 66, 127
1, 530261, Note_off_c, 2, 62, 127
1, 530273, Note_on_c, 4, 64, 127
1, 530402, Note_off_c, 4, 64, 127
1, 530414, Note_on_c, 6, 66, 127
1, 530414, Note_on_c, 2, 62, 127
1, 530543, Note_off_c, 2, 62, 127
1, 530543, Note_off_c, 6, 66, 127
1, 530555, Note_on_c, 7, 67, 127
1, 530555, Note_on_c, 1, 61, 127
1, 530684, Note_off_c, 1, 61, 127
1, 530684, Note_off_c, 7, 67, 127
1, 530696, Note_on_c, 6, 66, 127
1, 530696, Note_on_c, 2, 62, 127
1, 530825, Note_off_c, 2, 62, 127
1, 530825, Note_off_c, 6, 66, 127
1, 530837, Note_on_c, 4, 64, 127
1, 530966, Note_off_c, 4, 64, 127
1, 530978, Note_on_c, 2, 62, 127
1, 530978, Note_on_c, 6, 66, 127
1, 531107, Note_off_c, 6, 66, 127
1, 531119, Note_on_c, 4, 64, 127
1, 531248, Note_off_c, 4, 64, 127
1, 531254, Note_off_c, 2, 62, 127
1, 531260, Note_on_c, 2, 62, 127
1, 531400, Note_on_c, 0, 60, 127
1, 531529, Note_off_c, 0, 60, 127
1, 531535, Note_off_c, 2, 62, 127
1, 531541, Note_on_c, 4, 64, 127
1, 531541, Note_on_c, 12, 59, 127
1, 531670, Note_off_c, 12, 59, 127
1, 531670, Note_off_c, 4, 64, 127
1, 531682, Note_on_c, 6, 66, 127
1, 531682, Note_on_c, 10, 57, 127
1, 531811, Note_off_c, 10, 57, 127
1, 531811, Note_off_c, 6, 66, 127
1, 531823, Note_on_c, 7, 67, 127
1, 531823, Note_on_c, 12, 59, 127
1, 531952, Note_off_c, 12, 59, 127
1, 531952, Note_off_c, 7, 67, 127
1, 531964, Note_on_c, 10, 69, 127
1, 531964, Note_on_c, 10, 57, 127
1, 532093, Note_off_c, 10, 57, 127
1, 532093, Note_off_c, 10, 69, 127
1, 532105, Note_on_c, 12, 71, 127
1, 532105, Note_on_c, 7, 55, 127
1, 532234, Note_off_c, 7, 55, 127
1, 532234, Note_off_c, 12, 71, 127
1, 532246, Note_on_c, 0, 72, 127
1, 532246, Note_on_c, 6, 54, 127
1, 532375, Note_off_c, 6, 54, 127
1, 532375, Note_off_c, 0, 72, 127
1, 532387, Note_on_c, 12, 71, 127
1, 532387, Note_on_c, 7, 55, 127
1, 532516, Note_off_c, 7, 55, 127
1, 532516, Note_off_c, 12, 71, 127
1, 532528, Note_on_c, 10, 69, 127
1, 532528, Note_on_c, 10, 57, 127
1, 532657, Note_off_c, 10, 57, 127
1, 532657, Note_off_c, 10, 69, 127
1, 532669, Note_on_c, 7, 67, 127
1, 532669, Note_on_c, 12, 59, 127
1, 532798, Note_off_c, 12, 59, 127
1, 532810, Note_on_c, 10, 57, 127
1, 532939, Note_off_c, 10, 57, 127
1, 532951, Note_on_c, 7, 55, 127
1, 533080, Note_off_c, 7, 55, 127
1, 533092, Note_on_c, 5, 53, 127
1, 533217, Note_off_c, 7, 67, 127
1, 533221, Note_off_c, 5, 53, 127
1, 533233, Note_on_c, 10, 69, 127
1, 533233, Note_on_c, 4, 52, 127
1, 533362, Note_off_c, 4, 52, 127
1, 533362, Note_off_c, 10, 69, 127
1, 533374, Note_on_c, 12, 71, 127
1, 533374, Note_on_c, 2, 50, 127
1, 533503, Note_off_c, 2, 50, 127
1, 533503, Note_off_c, 12, 71, 127
1, 533515, Note_on_c, 0, 72, 127
1, 533515, Note_on_c, 4, 52, 127
1, 533644, Note_off_c, 4, 52, 127
1, 533644, Note_off_c, 0, 72, 127
1, 533656, Note_on_c, 2, 74, 127
1, 533656, Note_on_c, 2, 50, 127
1, 533785, Note_off_c, 2, 50, 127
1, 533785, Note_off_c, 2, 74, 127
1, 533797, Note_on_c, 4, 76, 127
1, 533797, Note_on_c, 0, 48, 127
1, 533926, Note_off_c, 0, 48, 127
1, 533926, Note_off_c, 4, 76, 127
1, 533938, Note_on_c, 5, 77, 127
1, 533938, Note_on_c, 12, 47, 127
1, 534067, Note_off_c, 12, 47, 127
1, 534067, Note_off_c, 5, 77, 127
1, 534078, Note_on_c, 4, 76, 127
1, 534078, Note_on_c, 0, 48, 127
1, 534207, Note_off_c, 0, 48, 127
1, 534207, Note_off_c, 4, 76, 127
1, 534219, Note_on_c, 2, 74, 127
1, 534219, Note_on_c, 2, 50, 127
1, 534348, Note_off_c, 2, 50, 127
1, 534348, Note_off_c, 2, 74, 127
1, 534360, Note_on_c, 0, 72, 127
1, 534360, Note_on_c, 4, 52, 127
1, 534489, Note_off_c, 4, 52, 127
1, 534501, Note_on_c, 0, 48, 127
1, 534630, Note_off_c, 0, 48, 127
1, 534642, Note_on_c, 4, 52, 127
1, 534771, Note_off_c, 4, 52, 127
1, 534783, Note_on_c, 7, 55, 127
1, 534908, Note_off_c, 0, 72, 127
1, 534912, Note_off_c, 7, 55, 127
1, 534924, Note_on_c, 4, 76, 127
1, 534924, Note_on_c, 0, 60, 127
1, 535053, Note_off_c, 0, 60, 127
1, 535053, Note_off_c, 4, 76, 127
1, 535065, Note_on_c, 0, 72, 127
1, 535065, Note_on_c, 4, 64, 127
1, 535194, Note_off_c, 4, 64, 127
1, 535194, Note_off_c, 0, 72, 127
1, 535206, Note_on_c, 10, 69, 127
1, 535206, Note_on_c, 0, 60, 127
1, 535335, Note_off_c, 0, 60, 127
1, 535335, Note_off_c, 10, 69, 127
1, 535347, Note_on_c, 4, 64, 127
1, 535347, Note_on_c, 10, 57, 127
1, 535476, Note_off_c, 10, 57, 127
1, 535476, Note_off_c, 4, 64, 127
1, 535488, Note_on_c, 0, 60, 127
1, 535617, Note_off_c, 0, 60, 127
1, 535629, Note_on_c, 10, 57, 127
1, 535629, Note_on_c, 4, 64, 127
1, 535758, Note_off_c, 4, 64, 127
1, 535758, Note_off_c, 10, 57, 127
1, 535770, Note_on_c, 0, 60, 127
1, 535770, Note_on_c, 10, 69, 127
1, 535899, Note_off_c, 10, 69, 127
1, 535899, Note_off_c, 0, 60, 127
1, 535911, Note_on_c, 4, 64, 127
1, 535911, Note_on_c, 0, 72, 127
1, 536040, Note_off_c, 0, 72, 127
1, 536040, Note_off_c, 4, 64, 127
1, 536052, Note_on_c, 10, 69, 127
1, 536052, Note_on_c, 6, 66, 127
1, 536181, Note_off_c, 6, 66, 127
1, 536181, Note_off_c, 10, 69, 127
1, 536193, Note_on_c, 0, 72, 127
1, 536193, Note_on_c, 2, 62, 127
1, 536322, Note_off_c, 2, 62, 127
1, 536322, Note_off_c, 0, 72, 127
1, 536334, Note_on_c, 10, 69, 127
1, 536334, Note_on_c, 6, 66, 127
1, 536463, Note_off_c, 6, 66, 127
1, 536463, Note_off_c, 10, 69, 127
1, 536475, Note_on_c, 6, 66, 127
1, 536475, Note_on_c, 10, 69, 127
1, 536604, Note_off_c, 10, 69, 127
1, 536604, Note_off_c, 6, 66, 127
1, 536616, Note_on_c, 2, 62, 127
1, 536616, Note_on_c, 2, 74, 127
1, 536745, Note_off_c, 2, 74, 127
1, 536745, Note_off_c, 2, 62, 127
1, 536757, Note_on_c, 10, 57, 127
1, 536757, Note_on_c, 6, 78, 127
1, 536886, Note_off_c, 6, 78, 127
1, 536886, Note_off_c, 10, 57, 127
1, 536898, Note_on_c, 6, 54, 127
1, 536898, Note_on_c, 2, 74, 127
1, 537027, Note_off_c, 2, 74, 127
1, 537027, Note_off_c, 6, 54, 127
1, 537039, Note_on_c, 2, 50, 127
1, 537039, Note_on_c, 10, 69, 127
1, 537168, Note_off_c, 10, 69, 127
1, 537168, Note_off_c, 2, 50, 127
1, 537180, Note_on_c, 6, 54, 127
1, 537180, Note_on_c, 2, 74, 127
1, 537309, Note_off_c, 2, 74, 127
1, 537309, Note_off_c, 6, 54, 127
1, 537321, Note_on_c, 10, 57, 127
1, 537321, Note_on_c, 6, 78, 127
1, 537450, Note_off_c, 6, 78, 127
1, 537450, Note_off_c, 10, 57, 127
1, 537462, Note_on_c, 0, 60, 127
1, 537462, Note_on_c, 10, 81, 127
1, 537591, Note_off_c, 10, 81, 127
1, 537591, Note_off_c, 0, 60, 127
1, 537603, Note_on_c, 6, 54, 127
1, 537603, Note_on_c, 0, 84, 127
1, 537732, Note_off_c, 0, 84, 127
1, 537732, Note_off_c, 6, 54, 127
1, 537744, Note_on_c, 7, 55, 127
1, 537744, Note_on_c, 12, 83, 127
1, 537873, Note_off_c, 12, 83, 127
1, 537873, Note_off_c, 7, 55, 127
1, 537885, Note_on_c, 12, 59, 127
1, 537885, Note_on_c, 7, 79, 127
1, 538014, Note_off_c, 7, 79, 127
1, 538014, Note_off_c, 12, 59, 127
1, 538026, Note_on_c, 2, 62, 127
1, 538026, Note_on_c, 2, 74, 127
1, 538155, Note_off_c, 2, 74, 127
1, 538155, Note_off_c, 2, 62, 127
1, 538167, Note_on_c, 7, 67, 127
1, 538167, Note_on_c, 12, 71, 127
1, 538296, Note_off_c, 12, 71, 127
1, 538296, Note_off_c, 7, 67, 127
1, 538308, Note_on_c, 12, 71, 127
1, 538308, Note_on_c, 7, 67, 127
1, 538437, Note_off_c, 7, 67, 127
1, 538437, Note_off_c, 12, 71, 127
1, 538449, Note_on_c, 2, 74, 127
1, 538449, Note_on_c, 6, 66, 127
1, 538578, Note_off_c, 6, 66, 127
1, 538578, Note_off_c, 2, 74, 127
1, 538590, Note_on_c, 7, 79, 127
1, 538590, Note_on_c, 7, 67, 127
1, 538719, Note_off_c, 7, 67, 127
1, 538719, Note_off_c, 7, 79, 127
1, 538731, Note_on_c, 2, 74, 127
1, 538731, Note_on_c, 12, 71, 127
1, 538860, Note_off_c, 12, 71, 127
1, 538860, Note_off_c, 2, 74, 127
1, 538872, Note_on_c, 12, 71, 127
1, 538872, Note_on_c, 2, 74, 127
1, 539001, Note_off_c, 2, 74, 127
1, 539001, Note_off_c, 12, 71, 127
1, 539013, Note_on_c, 7, 67, 127
1, 539013, Note_on_c, 7, 79, 127
1, 539142, Note_off_c, 7, 67, 127
1, 539170, Note_on_c, 2, 62, 127
1, 539288, Note_off_c, 2, 62, 127
1, 539327, Note_on_c, 12, 59, 127
1, 539429, Note_off_c, 7, 79, 127
1, 539435, Note_off_c, 12, 59, 127
1, 539499, Note_on_c, 7, 55, 127
1, 539847, Note_on_c, 7, 67, 127
1, 540018, Note_off_c, 7, 67, 127
1, 540022, Note_on_c, 6, 66, 127
1, 540181, Note_off_c, 7, 55, 127
1, 540193, Note_off_c, 6, 66, 127
1, 540197, Note_on_c, 7, 67, 127
1, 540197, Note_on_c, 7, 55, 127
1, 540540, Note_off_c, 7, 67, 127
1, 540546, Note_on_c, 10, 69, 127
1, 540717, Note_off_c, 10, 69, 127
1, 540721, Note_on_c, 12, 71, 127
1, 540879, Note_off_c, 7, 55, 127
1, 540892, Note_off_c, 12, 71, 127
1, 540896, Note_on_c, 0, 72, 127
1, 540896, Note_on_c, 7, 55, 127
1, 541067, Note_off_c, 0, 72, 127
1, 541071, Note_on_c, 12, 71, 127
1, 541242, Note_off_c, 12, 71, 127
1, 541246, Note_on_c, 10, 69, 127
1, 541417, Note_off_c, 10, 69, 127
1, 541420, Note_on_c, 7, 67, 127
1, 541579, Note_off_c, 7, 55, 127
1, 541591, Note_off_c, 7, 67, 127
1, 541595, Note_on_c, 2, 74, 127
1, 541595, Note_on_c, 6, 54, 127
1, 541766, Note_off_c, 2, 74, 127
1, 541770, Note_on_c, 10, 69, 127
1, 541941, Note_off_c, 10, 69, 127
1, 541945, Note_on_c, 12, 71, 127
1, 541945, Note_on_c, 2, 62, 127
1, 542116, Note_off_c, 2, 62, 127
1, 542116, Note_off_c, 12, 71, 127
1, 542120, Note_on_c, 1, 73, 127
1, 542120, Note_on_c, 4, 64, 127
1, 542278, Note_off_c, 6, 54, 127
1, 542291, Note_off_c, 4, 64, 127
1, 542291, Note_off_c, 1, 73, 127
1, 542295, Note_on_c, 2, 74, 127
1, 542295, Note_on_c, 2, 62, 127
1, 542295, Note_on_c, 6, 54, 127
1, 542466, Note_off_c, 2, 74, 127
1, 542470, Note_on_c, 4, 76, 127
1, 542639, Note_off_c, 2, 62, 127
1, 542641, Note_off_c, 4, 76, 127
1, 542645, Note_on_c, 6, 78, 127
1, 542645, Note_on_c, 0, 60, 127
1, 542816, Note_off_c, 0, 60, 127
1, 542816, Note_off_c, 6, 78, 127
1, 542820, Note_on_c, 7, 79, 127
1, 542820, Note_on_c, 12, 59, 127
1, 542978, Note_off_c, 6, 54, 127
1, 542991, Note_off_c, 12, 59, 127
1, 542991, Note_off_c, 7, 79, 127
1, 542995, Note_on_c, 10, 81, 127
1, 542995, Note_on_c, 10, 57, 127
1, 542995, Note_on_c, 6, 54, 127
1, 543166, Note_off_c, 10, 57, 127
1, 543169, Note_on_c, 12, 59, 127
1, 543340, Note_off_c, 12, 59, 127
1, 543344, Note_on_c, 0, 60, 127
1, 543515, Note_off_c, 0, 60, 127
1, 543519, Note_on_c, 2, 62, 127
1, 543678, Note_off_c, 6, 54, 127
1, 543690, Note_off_c, 2, 62, 127
1, 543694, Note_on_c, 7, 55, 127
1, 543694, Note_on_c, 4, 52, 127
1, 543865, Note_off_c, 7, 55, 127
1, 543869, Note_on_c, 0, 60, 127
1, 543969, Note_off_c, 10, 81, 127
1, 544040, Note_off_c, 0, 60, 127
1, 544044, Note_on_c, 7, 79, 127
1, 544044, Note_on_c, 12, 59, 127
1, 544215, Note_off_c, 12, 59, 127
1, 544215, Note_off_c, 7, 79, 127
1, 544219, Note_on_c, 6, 78, 127
1, 544219, Note_on_c, 10, 57, 127
1, 544390, Note_off_c, 10, 57, 127
1, 544390, Note_off_c, 6, 78, 127
1, 544394, Note_on_c, 4, 76, 127
1, 544394, Note_on_c, 7, 55, 127
1, 544565, Note_off_c, 7, 55, 127
1, 544565, Note_off_c, 4, 76, 127
1, 544569, Note_on_c, 2, 74, 127
1, 544569, Note_on_c, 6, 54, 127
1, 544726, Note_off_c, 4, 52, 127
1, 544740, Note_off_c, 6, 54, 127
1, 544740, Note_off_c, 2, 74, 127
1, 544744, Note_on_c, 1, 73, 127
1, 544744, Note_on_c, 4, 52, 127
1, 544915, Note_off_c, 1, 73, 127
1, 544918, Note_on_c, 12, 71, 127
1, 544918, Note_on_c, 2, 50, 127
1, 545083, Note_off_c, 4, 52, 127
1, 545089, Note_off_c, 2, 50, 127
1, 545089, Note_off_c, 12, 71, 127
1, 545093, Note_on_c, 10, 69, 127
1, 545093, Note_on_c, 1, 49, 127
1, 545093, Note_on_c, 4, 52, 127
1, 545264, Note_off_c, 10, 69, 127
1, 545268, Note_on_c, 7, 67, 127
1, 545439, Note_off_c, 7, 67, 127
1, 545443, Note_on_c, 6, 66, 127
1, 545614, Note_off_c, 6, 66, 127
1, 545618, Note_on_c, 7, 67, 127
1, 545776, Note_off_c, 4, 52, 127
1, 545778, Note_off_c, 1, 49, 127
1, 545789, Note_off_c, 7, 67, 127
1, 545793, Note_on_c, 7, 67, 127
1, 545793, Note_on_c, 2, 50, 127
1, 545968, Note_on_c, 2, 38, 127
1, 546047, Note_off_c, 2, 50, 127
1, 546131, Note_off_c, 2, 38, 127
1, 546137, Note_off_c, 7, 67, 127
1, 546143, Note_on_c, 6, 66, 127
1, 546143, Note_on_c, 2, 50, 127
1, 546228, Note_off_c, 6, 66, 127
1, 546231, Note_on_c, 7, 67, 127
1, 546316, Note_off_c, 7, 67, 127
1, 546319, Note_on_c, 6, 66, 127
1, 546404, Note_off_c, 6, 66, 127
1, 546407, Note_on_c, 4, 64, 127
1, 546492, Note_off_c, 4, 64, 127
1, 546495, Note_on_c, 2, 62, 127
1, 546495, Note_on_c, 6, 54, 127
1, 546666, Note_off_c, 6, 54, 127
1, 546670, Note_on_c, 7, 55, 127
1, 546828, Note_off_c, 2, 50, 127
1, 546841, Note_off_c, 7, 55, 127
1, 546844, Note_on_c, 10, 57, 127
1, 546844, Note_on_c, 0, 48, 127
1, 547007, Note_off_c, 0, 48, 127
1, 547015, Note_off_c, 10, 57, 127
1, 547019, Note_on_c, 12, 59, 127
1, 547019, Note_on_c, 12, 47, 127
1, 547180, Note_off_c, 2, 62, 127
1, 547182, Note_off_c, 12, 47, 127
1, 547190, Note_off_c, 12, 59, 127
1, 547194, Note_on_c, 0, 60, 127
1, 547194, Note_on_c, 10, 45, 127
1, 547365, Note_off_c, 0, 60, 127
1, 547369, Note_on_c, 2, 62, 127
1, 547531, Note_off_c, 10, 45, 127
1, 547544, Note_on_c, 4, 64, 127
1, 547544, Note_on_c, 0, 48, 127
1, 547708, Note_off_c, 2, 62, 127
1, 547715, Note_off_c, 4, 64, 127
1, 547719, Note_on_c, 2, 62, 127
1, 547881, Note_off_c, 0, 48, 127
1, 547890, Note_off_c, 2, 62, 127
1, 547894, Note_on_c, 2, 62, 127
1, 547894, Note_on_c, 12, 47, 127
1, 548069, Note_on_c, 2, 74, 127
1, 548238, Note_off_c, 2, 62, 127
1, 548244, Note_on_c, 4, 64, 127
1, 548329, Note_off_c, 4, 64, 127
1, 548332, Note_on_c, 2, 62, 127
1, 548417, Note_off_c, 2, 62, 127
1, 548420, Note_on_c, 4, 64, 127
1, 548505, Note_off_c, 4, 64, 127
1, 548508, Note_on_c, 6, 66, 127
1, 548579, Note_off_c, 12, 47, 127
1, 548593, Note_off_c, 6, 66, 127
1, 548596, Note_on_c, 7, 67, 127
1, 548596, Note_on_c, 12, 47, 127
1, 548762, Note_off_c, 2, 74, 127
1, 548770, Note_on_c, 12, 71, 127
1, 548941, Note_off_c, 12, 71, 127
1, 548945, Note_on_c, 10, 69, 127
1, 549101, Note_off_c, 7, 67, 127
1, 549116, Note_off_c, 10, 69, 127
1, 549120, Note_on_c, 7, 67, 127
1, 549279, Note_off_c, 12, 47, 127
1, 549291, Note_off_c, 7, 67, 127
1, 549295, Note_on_c, 5, 65, 127
1, 549295, Note_on_c, 12, 47, 127
1, 549466, Note_off_c, 5, 65, 127
1, 549470, Note_on_c, 4, 64, 127
1, 549641, Note_off_c, 4, 64, 127
1, 549645, Note_on_c, 2, 62, 127
1, 549816, Note_off_c, 2, 62, 127
1, 549820, Note_on_c, 5, 65, 127
1, 549978, Note_off_c, 12, 47, 127
1, 549991, Note_off_c, 5, 65, 127
1, 549995, Note_on_c, 4, 64, 127
1, 549995, Note_on_c, 0, 48, 127
1, 550166, Note_off_c, 4, 64, 127
1, 550170, Note_on_c, 7, 67, 127
1, 550341, Note_off_c, 7, 67, 127
1, 550345, Note_on_c, 0, 72, 127
1, 550345, Note_on_c, 7, 55, 127
1, 550516, Note_off_c, 0, 72, 127
1, 550519, Note_on_c, 2, 74, 127
1, 550678, Note_off_c, 0, 48, 127
1, 550690, Note_off_c, 2, 74, 127
1, 550694, Note_on_c, 4, 76, 127
1, 550694, Note_on_c, 0, 48, 127
1, 550862, Note_off_c, 7, 55, 127
1, 550869, Note_on_c, 12, 59, 127
1, 551038, Note_off_c, 4, 76, 127
1, 551040, Note_off_c, 12, 59, 127
1, 551044, Note_on_c, 10, 69, 127
1, 551044, Note_on_c, 0, 60, 127
1, 551215, Note_off_c, 0, 60, 127
1, 551219, Note_on_c, 2, 62, 127
1, 551377, Note_off_c, 0, 48, 127
1, 551390, Note_off_c, 2, 62, 127
1, 551394, Note_on_c, 4, 64, 127
1, 551394, Note_on_c, 0, 48, 127
1, 551565, Note_off_c, 4, 64, 127
1, 551569, Note_on_c, 6, 66, 127
1, 551734, Note_off_c, 10, 69, 127
1, 551740, Note_off_c, 6, 66, 127
1, 551744, Note_on_c, 10, 69, 127
1, 551744, Note_on_c, 7, 67, 127
1, 551915, Note_off_c, 7, 67, 127
1, 551919, Note_on_c, 4, 64, 127
1, 552077, Note_off_c, 0, 48, 127
1, 552090, Note_off_c, 4, 64, 127
1, 552094, Note_on_c, 6, 66, 127
1, 552094, Note_on_c, 2, 50, 127
1, 552261, Note_off_c, 10, 69, 127
1, 552265, Note_off_c, 6, 66, 127
1, 552268, Note_on_c, 12, 71, 127
1, 552268, Note_on_c, 2, 62, 127
1, 552439, Note_off_c, 2, 62, 127
1, 552439, Note_off_c, 12, 71, 127
1, 552443, Note_on_c, 6, 66, 127
1, 552443, Note_on_c, 10, 57, 127
1, 552614, Note_off_c, 10, 57, 127
1, 552614, Note_off_c, 6, 66, 127
1, 552618, Note_on_c, 7, 67, 127
1, 552618, Note_on_c, 7, 55, 127
1, 552777, Note_off_c, 2, 50, 127
1, 552789, Note_off_c, 7, 55, 127
1, 552789, Note_off_c, 7, 67, 127
1, 552793, Note_on_c, 10, 69, 127
1, 552793, Note_on_c, 6, 54, 127
1, 552793, Note_on_c, 2, 50, 127
1, 552964, Note_off_c, 10, 69, 127
1, 552968, Note_on_c, 7, 67, 127
1, 553137, Note_off_c, 6, 54, 127
1, 553139, Note_off_c, 7, 67, 127
1, 553143, Note_on_c, 6, 66, 127
1, 553143, Note_on_c, 0, 60, 127
1, 553314, Note_off_c, 6, 66, 127
1, 553318, Note_on_c, 4, 76, 127
1, 553476, Note_off_c, 2, 50, 127
1, 553489, Note_off_c, 4, 76, 127
1, 553493, Note_on_c, 2, 74, 127
1, 553493, Note_on_c, 2, 50, 127
1, 553664, Note_off_c, 2, 74, 127
1, 553668, Note_on_c, 0, 72, 127
1, 553833, Note_off_c, 0, 60, 127
1, 553839, Note_off_c, 0, 72, 127
1, 553843, Note_on_c, 12, 71, 127
1, 553843, Note_on_c, 0, 60, 127
1, 554014, Note_off_c, 12, 71, 127
1, 554017, Note_on_c, 10, 69, 127
1, 554176, Note_off_c, 2, 50, 127
1, 554188, Note_off_c, 10, 69, 127
1, 554192, Note_on_c, 7, 67, 127
1, 554192, Note_on_c, 7, 55, 127
1, 554360, Note_off_c, 0, 60, 127
1, 554367, Note_on_c, 12, 59, 127
1, 554538, Note_off_c, 12, 59, 127
1, 554542, Note_on_c, 4, 64, 127
1, 554702, Note_off_c, 7, 55, 127
1, 554713, Note_off_c, 4, 64, 127
1, 554717, Note_on_c, 2, 62, 127
1, 554717, Note_on_c, 12, 47, 127
1, 554880, Note_off_c, 12, 47, 127
1, 554888, Note_off_c, 2, 62, 127
1, 554892, Note_on_c, 0, 60, 127
1, 554892, Note_on_c, 4, 52, 127
1, 555055, Note_off_c, 4, 52, 127
1, 555063, Note_off_c, 0, 60, 127
1, 555067, Note_on_c, 2, 62, 127
1, 555067, Note_on_c, 2, 50, 127
1, 555230, Note_off_c, 2, 50, 127
1, 555238, Note_off_c, 2, 62, 127
1, 555242, Note_on_c, 4, 64, 127
1, 555242, Note_on_c, 0, 48, 127
1, 555405, Note_off_c, 0, 48, 127
1, 555413, Note_off_c, 4, 64, 127
1, 555417, Note_on_c, 6, 54, 127
1, 555417, Note_on_c, 4, 52, 127
1, 555580, Note_off_c, 4, 52, 127
1, 555588, Note_off_c, 6, 54, 127
1, 555592, Note_on_c, 7, 55, 127
1, 555592, Note_on_c, 2, 50, 127
1, 555755, Note_off_c, 2, 50, 127
1, 555763, Note_off_c, 7, 55, 127
1, 555766, Note_on_c, 10, 57, 127
1, 555766, Note_on_c, 0, 48, 127
1, 555929, Note_off_c, 0, 48, 127
1, 555937, Note_off_c, 10, 57, 127
1, 555941, Note_on_c, 12, 59, 127
1, 555941, Note_on_c, 12, 47, 127
1, 556104, Note_off_c, 12, 47, 127
1, 556112, Note_off_c, 12, 59, 127
1, 556116, Note_on_c, 0, 60, 127
1, 556116, Note_on_c, 10, 45, 127
1, 556266, Note_off_c, 7, 67, 127
1, 556279, Note_off_c, 10, 45, 127
1, 556287, Note_off_c, 0, 60, 127
1, 556291, Note_on_c, 2, 62, 127
1, 556291, Note_on_c, 12, 47, 127
1, 556466, Note_on_c, 6, 66, 127
1, 556628, Note_off_c, 12, 47, 127
1, 556637, Note_off_c, 6, 66, 127
1, 556641, Note_on_c, 7, 67, 127
1, 556641, Note_on_c, 7, 43, 127
1, 556812, Note_off_c, 7, 67, 127
1, 556816, Note_on_c, 10, 69, 127
1, 556987, Note_off_c, 10, 69, 127
1, 556991, Note_on_c, 12, 71, 127
1, 557162, Note_off_c, 12, 71, 127
1, 557166, Note_on_c, 1, 73, 127
1, 557289, Note_off_c, 7, 43, 127
1, 557336, Note_off_c, 1, 73, 127
1, 557340, Note_on_c, 2, 74, 127
1, 557340, Note_on_c, 7, 55, 127
1, 557503, Note_off_c, 7, 55, 127
1, 557511, Note_off_c, 2, 74, 127
1, 557514, Note_on_c, 6, 78, 127
1, 557514, Note_on_c, 6, 54, 127
1, 557677, Note_off_c, 6, 54, 127
1, 557685, Note_off_c, 6, 78, 127
1, 557689, Note_on_c, 4, 76, 127
1, 557689, Note_on_c, 7, 55, 127
1, 557860, Note_off_c, 4, 76, 127
1, 557864, Note_on_c, 2, 74, 127
1, 558026, Note_off_c, 7, 55, 127
1, 558035, Note_off_c, 2, 74, 127
1, 558039, Note_on_c, 1, 73, 127
1, 558039, Note_on_c, 4, 52, 127
1, 558210, Note_off_c, 1, 73, 127
1, 558214, Note_on_c, 12, 71, 127
1, 558376, Note_off_c, 4, 52, 127
1, 558385, Note_off_c, 12, 71, 127
1, 558389, Note_on_c, 10, 69, 127
1, 558389, Note_on_c, 6, 54, 127
1, 558540, Note_off_c, 2, 62, 127
1, 558558, Note_off_c, 10, 69, 127
1, 558564, Note_on_c, 7, 67, 127
1, 558564, Note_on_c, 4, 64, 127
1, 558726, Note_off_c, 6, 54, 127
1, 558735, Note_off_c, 4, 64, 127
1, 558735, Note_off_c, 7, 67, 127
1, 558739, Note_on_c, 6, 66, 127
1, 558739, Note_on_c, 2, 62, 127
1, 558739, Note_on_c, 12, 59, 127
1, 558910, Note_off_c, 2, 62, 127
1, 558910, Note_off_c, 6, 66, 127
1, 558914, Note_on_c, 4, 64, 127
1, 558914, Note_on_c, 1, 61, 127
1, 559083, Note_off_c, 12, 59, 127
1, 559085, Note_off_c, 1, 61, 127
1, 559085, Note_off_c, 4, 64, 127
1, 559089, Note_on_c, 2, 62, 127
1, 559089, Note_on_c, 12, 59, 127
1, 559263, Note_on_c, 10, 57, 127
1, 559433, Note_off_c, 12, 59, 127
1, 559434, Note_off_c, 10, 57, 127
1, 559438, Note_on_c, 7, 55, 127
1, 559438, Note_on_c, 12, 47, 127
1, 559601, Note_off_c, 12, 47, 127
1, 559609, Note_off_c, 7, 55, 127
1, 559613, Note_on_c, 4, 52, 127
1, 559613, Note_on_c, 1, 49, 127
1, 559776, Note_off_c, 1, 49, 127
1, 559784, Note_off_c, 4, 52, 127
1, 559788, Note_on_c, 6, 54, 127
1, 559788, Note_on_c, 2, 50, 127
1, 559959, Note_off_c, 6, 54, 127
1, 559963, Note_on_c, 7, 55, 127
1, 560125, Note_off_c, 2, 50, 127
1, 560134, Note_off_c, 7, 55, 127
1, 560138, Note_on_c, 10, 57, 127
1, 560138, Note_on_c, 12, 47, 127
1, 560309, Note_off_c, 10, 57, 127
1, 560313, Note_on_c, 12, 59, 127
1, 560475, Note_off_c, 12, 47, 127
1, 560484, Note_off_c, 12, 59, 127
1, 560488, Note_on_c, 1, 61, 127
1, 560488, Note_on_c, 4, 52, 127
1, 560646, Note_off_c, 2, 62, 127
1, 560651, Note_off_c, 4, 52, 127
1, 560659, Note_off_c, 1, 61, 127
1, 560663, Note_on_c, 2, 62, 127
1, 560663, Note_on_c, 6, 54, 127
1, 560826, Note_off_c, 6, 54, 127
1, 560834, Note_off_c, 2, 62, 127
1, 560838, Note_on_c, 1, 73, 127
1, 560838, Note_on_c, 4, 64, 127
1, 560838, Note_on_c, 7, 55, 127
1, 561001, Note_off_c, 7, 55, 127
1, 561009, Note_off_c, 4, 64, 127
1, 561012, Note_on_c, 6, 66, 127
1, 561012, Note_on_c, 6, 54, 127
1, 561175, Note_off_c, 6, 54, 127
1, 561183, Note_off_c, 6, 66, 127
1, 561187, Note_on_c, 7, 67, 127
1, 561187, Note_on_c, 4, 52, 127
1, 561355, Note_off_c, 1, 73, 127
1, 561362, Note_on_c, 12, 71, 127
1, 561524, Note_off_c, 4, 52, 127
1, 561533, Note_off_c, 12, 71, 127
1, 561537, Note_on_c, 10, 69, 127
1, 561537, Note_on_c, 6, 54, 127
1, 561708, Note_off_c, 10, 69, 127
1, 561712, Note_on_c, 12, 71, 127
1, 561874, Note_off_c, 6, 54, 127
1, 561883, Note_off_c, 12, 71, 127
1, 561887, Note_on_c, 1, 73, 127
1, 561887, Note_on_c, 4, 52, 127
1, 562058, Note_off_c, 1, 73, 127
1, 562062, Note_on_c, 2, 74, 127
1, 562224, Note_off_c, 4, 52, 127
1, 562233, Note_off_c, 2, 74, 127
1, 562237, Note_on_c, 4, 76, 127
1, 562237, Note_on_c, 2, 50, 127
1, 562408, Note_off_c, 4, 76, 127
1, 562412, Note_on_c, 6, 78, 127
1, 562574, Note_off_c, 2, 50, 127
1, 562583, Note_off_c, 6, 78, 127
1, 562587, Note_on_c, 7, 79, 127
1, 562587, Note_on_c, 1, 49, 127
1, 562750, Note_off_c, 1, 49, 127
1, 562761, Note_on_c, 2, 50, 127
1, 562913, Note_off_c, 7, 67, 127
1, 562924, Note_off_c, 2, 50, 127
1, 562930, Note_off_c, 7, 79, 127
1, 562935, Note_on_c, 7, 67, 127
1, 562935, Note_on_c, 10, 57, 127
1, 562935, Note_on_c, 4, 52, 127
1, 563098, Note_off_c, 4, 52, 127
1, 563106, Note_off_c, 7, 67, 127
1, 563110, Note_on_c, 6, 66, 127
1, 563110, Note_on_c, 2, 50, 127
1, 563273, Note_off_c, 2, 50, 127
1, 563281, Note_off_c, 6, 66, 127
1, 563285, Note_on_c, 7, 67, 127
1, 563285, Note_on_c, 1, 49, 127
1, 563452, Note_off_c, 10, 57, 127
1, 563460, Note_on_c, 12, 59, 127
1, 563622, Note_off_c, 1, 49, 127
1, 563631, Note_off_c, 12, 59, 127
1, 563635, Note_on_c, 1, 61, 127
1, 563635, Note_on_c, 4, 52, 127
1, 563806, Note_off_c, 1, 61, 127
1, 563810, Note_on_c, 12, 59, 127
1, 563972, Note_off_c, 4, 52, 127
1, 563981, Note_off_c, 12, 59, 127
1, 563985, Note_on_c, 10, 57, 127
1, 563985, Note_on_c, 1, 49, 127
1, 564149, Note_off_c, 7, 67, 127
1, 564156, Note_off_c, 10, 57, 127
1, 564160, Note_on_c, 12, 71, 127
1, 564160, Note_on_c, 7, 55, 127
1, 564322, Note_off_c, 1, 49, 127
1, 564331, Note_off_c, 7, 55, 127
1, 564331, Note_off_c, 12, 71, 127
1, 564334, Note_on_c, 10, 69, 127
1, 564334, Note_on_c, 6, 54, 127
1, 564334, Note_on_c, 10, 45, 127
1, 564505, Note_off_c, 6, 54, 127
1, 564505, Note_off_c, 10, 69, 127
1, 564509, Note_on_c, 7, 67, 127
1, 564509, Note_on_c, 4, 52, 127
1, 564671, Note_off_c, 10, 45, 127
1, 564680, Note_off_c, 4, 52, 127
1, 564680, Note_off_c, 7, 67, 127
1, 564684, Note_on_c, 6, 66, 127
1, 564684, Note_on_c, 2, 50, 127
1, 564855, Note_off_c, 6, 66, 127
1, 564859, Note_on_c, 4, 64, 127
1, 565030, Note_off_c, 4, 64, 127
1, 565034, Note_on_c, 6, 66, 127
1, 565034, Note_on_c, 2, 62, 127
1, 565205, Note_off_c, 2, 62, 127
1, 565205, Note_off_c, 6, 66, 127
1, 565209, Note_on_c, 7, 67, 127
1, 565209, Note_on_c, 4, 64, 127
1, 565380, Note_off_c, 4, 64, 127
1, 565380, Note_off_c, 7, 67, 127
1, 565384, Note_on_c, 6, 66, 127
1, 565384, Note_on_c, 2, 62, 127
1, 565540, Note_off_c, 2, 50, 127
1, 565555, Note_off_c, 6, 66, 127
1, 565559, Note_on_c, 10, 69, 127
1, 565559, Note_on_c, 2, 50, 127
1, 565722, Note_off_c, 2, 50, 127
1, 565730, Note_off_c, 10, 69, 127
1, 565734, Note_on_c, 7, 67, 127
1, 565734, Note_on_c, 4, 52, 127
1, 565897, Note_off_c, 4, 52, 127
1, 565905, Note_off_c, 7, 67, 127
1, 565909, Note_on_c, 6, 66, 127
1, 565909, Note_on_c, 6, 54, 127
1, 566072, Note_off_c, 6, 54, 127
1, 566080, Note_off_c, 6, 66, 127
1, 566083, Note_on_c, 4, 64, 127
1, 566083, Note_on_c, 7, 55, 127
1, 566246, Note_off_c, 7, 55, 127
1, 566248, Note_off_c, 2, 62, 127
1, 566258, Note_on_c, 12, 59, 127
1, 566258, Note_on_c, 10, 57, 127
1, 566421, Note_off_c, 10, 57, 127
1, 566429, Note_off_c, 12, 59, 127
1, 566433, Note_on_c, 1, 61, 127
1, 566433, Note_on_c, 7, 55, 127
1, 566596, Note_off_c, 7, 55, 127
1, 566604, Note_off_c, 1, 61, 127
1, 566608, Note_on_c, 2, 62, 127
1, 566608, Note_on_c, 6, 54, 127
1, 566771, Note_off_c, 6, 54, 127
1, 566773, Note_off_c, 4, 64, 127
1, 566779, Note_off_c, 2, 62, 127
1, 566783, Note_on_c, 4, 64, 127
1, 566783, Note_on_c, 7, 55, 127
1, 566958, Note_on_c, 6, 66, 127
1, 567120, Note_off_c, 7, 55, 127
1, 567127, Note_off_c, 4, 64, 127
1, 567129, Note_off_c, 6, 66, 127
1, 567133, Note_on_c, 2, 74, 127
1, 567133, Note_on_c, 4, 64, 127
1, 567133, Note_on_c, 7, 43, 127
1, 567304, Note_off_c, 4, 64, 127
1, 567308, Note_on_c, 2, 62, 127
1, 567477, Note_off_c, 2, 74, 127
1, 567479, Note_off_c, 2, 62, 127
1, 567483, Note_on_c, 1, 73, 127
1, 567483, Note_on_c, 4, 64, 127
1, 567643, Note_off_c, 7, 43, 127
1, 567654, Note_off_c, 4, 64, 127
1, 567658, Note_on_c, 1, 61, 127
1, 567658, Note_on_c, 4, 52, 127
1, 567821, Note_off_c, 4, 52, 127
1, 567827, Note_off_c, 1, 73, 127
1, 567829, Note_off_c, 1, 61, 127
1, 567832, Note_on_c, 12, 71, 127
1, 567832, Note_on_c, 2, 62, 127
1, 567832, Note_on_c, 6, 54, 127
1, 567995, Note_off_c, 6, 54, 127
1, 568003, Note_off_c, 2, 62, 127
1, 568007, Note_on_c, 4, 64, 127
1, 568007, Note_on_c, 7, 55, 127
1, 568170, Note_off_c, 7, 55, 127
1, 568176, Note_off_c, 12, 71, 127
1, 568178, Note_off_c, 4, 64, 127
1, 568182, Note_on_c, 10, 69, 127
1, 568182, Note_on_c, 6, 66, 127
1, 568182, Note_on_c, 10, 57, 127
1, 568345, Note_off_c, 10, 57, 127
1, 568357, Note_on_c, 6, 54, 127
1, 568497, Note_off_c, 10, 69, 127
1, 568520, Note_off_c, 6, 54, 127
1, 568532, Note_on_c, 6, 78, 127
1, 568532, Note_on_c, 4, 52, 127
1, 568695, Note_off_c, 4, 52, 127
1, 568707, Note_on_c, 2, 50, 127
1, 568838, Note_off_c, 6, 78, 127
1, 568870, Note_off_c, 2, 50, 127
1, 568882, Note_on_c, 7, 67, 127
1, 568882, Note_on_c, 12, 59, 127
1, 569045, Note_off_c, 12, 59, 127
1, 569057, Note_on_c, 12, 47, 127
1, 569219, Note_off_c, 6, 66, 127
1, 569220, Note_off_c, 12, 47, 127
1, 569232, Note_on_c, 7, 55, 127
1, 569232, Note_on_c, 4, 52, 127
1, 569395, Note_off_c, 4, 52, 127
1, 569407, Note_on_c, 2, 50, 127
1, 569570, Note_off_c, 2, 50, 127
1, 569576, Note_off_c, 7, 55, 127
1, 569581, Note_on_c, 10, 57, 127
1, 569581, Note_on_c, 1, 49, 127
1, 569744, Note_off_c, 1, 49, 127
1, 569756, Note_on_c, 10, 45, 127
1, 569919, Note_off_c, 10, 45, 127
1, 569919, Note_off_c, 7, 67, 127
1, 569925, Note_off_c, 10, 57, 127
1, 569931, Note_on_c, 6, 66, 127
1, 569931, Note_on_c, 12, 59, 127
1, 569931, Note_on_c, 2, 50, 127
1, 570094, Note_off_c, 2, 50, 127
1, 570106, Note_on_c, 7, 55, 127
1, 570269, Note_off_c, 7, 55, 127
1, 570275, Note_off_c, 12, 59, 127
1, 570275, Note_off_c, 6, 66, 127
1, 570281, Note_on_c, 4, 64, 127
1, 570281, Note_on_c, 1, 61, 127
1, 570281, Note_on_c, 10, 57, 127
1, 570444, Note_off_c, 10, 57, 127
1, 570452, Note_off_c, 4, 64, 127
1, 570456, Note_on_c, 10, 69, 127
1, 570456, Note_on_c, 4, 52, 127
1, 570619, Note_off_c, 4, 52, 127
1, 570625, Note_off_c, 1, 61, 127
1, 570627, Note_off_c, 10, 69, 127
1, 570631, Note_on_c, 7, 67, 127
1, 570631, Note_on_c, 4, 52, 127
1, 570631, Note_on_c, 1, 49, 127
1, 570794, Note_off_c, 1, 49, 127
1, 570806, Note_on_c, 10, 45, 127
1, 570969, Note_off_c, 10, 45, 127
1, 570975, Note_off_c, 4, 52, 127
1, 570981, Note_on_c, 2, 62, 127
1, 570981, Note_on_c, 2, 50, 127
1, 571144, Note_off_c, 2, 50, 127
1, 571156, Note_on_c, 4, 52, 127
1, 571319, Note_off_c, 4, 52, 127
1, 571321, Note_off_c, 7, 67, 127
1, 571330, Note_on_c, 6, 66, 127
1, 571330, Note_on_c, 2, 50, 127
1, 571493, Note_off_c, 2, 50, 127
1, 571501, Note_off_c, 6, 66, 127
1, 571505, Note_on_c, 4, 64, 127
1, 571505, Note_on_c, 1, 49, 127
1, 571668, Note_off_c, 1, 49, 127
1, 571676, Note_off_c, 4, 64, 127
1, 571680, Note_on_c, 6, 66, 127
1, 571680, Note_on_c, 2, 50, 127
1, 571851, Note_off_c, 6, 66, 127
1, 571855, Note_on_c, 2, 74, 127
1, 572017, Note_off_c, 2, 50, 127
1, 572018, Note_off_c, 2, 62, 127
1, 572030, Note_on_c, 4, 64, 127
1, 572030, Note_on_c, 10, 45, 127
1, 572199, Note_off_c, 2, 74, 127
1, 572205, Note_on_c, 1, 73, 127
1, 572367, Note_off_c, 10, 45, 127
1, 572374, Note_off_c, 4, 64, 127
1, 572376, Note_off_c, 1, 73, 127
1, 572380, Note_on_c, 2, 74, 127
1, 572380, Note_on_c, 6, 66, 127
1, 572380, Note_on_c, 2, 38, 127
1, 572551, Note_off_c, 6, 66, 127
1, 572555, Note_on_c, 1, 61, 127
1, 572717, Note_off_c, 2, 38, 127
1, 572726, Note_off_c, 1, 61, 127
1, 572730, Note_on_c, 2, 62, 127
1, 572730, Note_on_c, 6, 42, 127
1, 572893, Note_off_c, 6, 42, 127
1, 572905, Note_on_c, 10, 45, 127
1, 573068, Note_off_c, 10, 45, 127
1, 573079, Note_on_c, 2, 50, 127
1, 573419, Note_off_c, 2, 62, 127
1, 573428, Note_on_c, 2, 62, 127
1, 573599, Note_off_c, 2, 62, 127
1, 573603, Note_on_c, 4, 64, 127
1, 573761, Note_off_c, 2, 50, 127
1, 573774, Note_off_c, 4, 64, 127
1, 573778, Note_on_c, 4, 64, 127
1, 573778, Note_on_c, 2, 50, 127
1, 573863, Note_off_c, 4, 64, 127
1, 573866, Note_on_c, 2, 62, 127
1, 573951, Note_off_c, 2, 62, 127
1, 573954, Note_on_c, 4, 64, 127
1, 574039, Note_off_c, 4, 64, 127
1, 574042, Note_on_c, 2, 62, 127
1, 574127, Note_off_c, 2, 62, 127
1, 574130, Note_on_c, 0, 60, 127
1, 574301, Note_off_c, 0, 60, 127
1, 574305, Note_on_c, 12, 59, 127
1, 574463, Note_off_c, 2, 50, 127
1, 574476, Note_off_c, 12, 59, 127
1, 574480, Note_on_c, 10, 57, 127
1, 574480, Note_on_c, 0, 48, 127
1, 574651, Note_off_c, 10, 57, 127
1, 574655, Note_on_c, 12, 59, 127
1, 574826, Note_off_c, 12, 59, 127
1, 574830, Note_on_c, 0, 60, 127
1, 575001, Note_off_c, 0, 60, 127
1, 575004, Note_on_c, 2, 62, 127
1, 575163, Note_off_c, 0, 48, 127
1, 575175, Note_off_c, 2, 62, 127
1, 575179, Note_on_c, 2, 50, 127
1, 575179, Note_on_c, 12, 47, 127
1, 575497, Note_off_c, 2, 74, 127
1, 575516, Note_off_c, 12, 47, 127
1, 575529, Note_on_c, 7, 67, 127
1, 575529, Note_on_c, 0, 48, 127
1, 575700, Note_off_c, 7, 67, 127
1, 575704, Note_on_c, 6, 66, 127
1, 575866, Note_off_c, 0, 48, 127
1, 575875, Note_off_c, 6, 66, 127
1, 575879, Note_on_c, 7, 67, 127
1, 575879, Note_on_c, 12, 47, 127
1, 575964, Note_off_c, 7, 67, 127
1, 575967, Note_on_c, 6, 66, 127
1, 576044, Note_off_c, 2, 50, 127
1, 576052, Note_off_c, 6, 66, 127
1, 576055, Note_on_c, 7, 67, 127
1, 576055, Note_on_c, 4, 52, 127
1, 576217, Note_off_c, 12, 47, 127
1, 576226, Note_off_c, 4, 52, 127
1, 576226, Note_off_c, 7, 67, 127
1, 576230, Note_on_c, 10, 69, 127
1, 576230, Note_on_c, 0, 48, 127
1, 576230, Note_on_c, 10, 45, 127
1, 576401, Note_off_c, 0, 48, 127
1, 576401, Note_off_c, 10, 69, 127
1, 576405, Note_on_c, 12, 71, 127
1, 576405, Note_on_c, 2, 50, 127
1, 576567, Note_off_c, 10, 45, 127
1, 576576, Note_off_c, 2, 50, 127
1, 576576, Note_off_c, 12, 71, 127
1, 576580, Note_on_c, 0, 72, 127
1, 576580, Note_on_c, 4, 52, 127
1, 576580, Note_on_c, 7, 43, 127
1, 576751, Note_off_c, 4, 52, 127
1, 576751, Note_off_c, 0, 72, 127
1, 576754, Note_on_c, 12, 71, 127
1, 576754, Note_on_c, 2, 50, 127
1, 576917, Note_off_c, 7, 43, 127
1, 576925, Note_off_c, 2, 50, 127
1, 576925, Note_off_c, 12, 71, 127
1, 576929, Note_on_c, 10, 69, 127
1, 576929, Note_on_c, 5, 53, 127
1, 576929, Note_on_c, 10, 45, 127
1, 577092, Note_off_c, 10, 45, 127
1, 577100, Note_off_c, 10, 69, 127
1, 577104, Note_on_c, 7, 67, 127
1, 577104, Note_on_c, 12, 47, 127
1, 577267, Note_off_c, 12, 47, 127
1, 577275, Note_off_c, 7, 67, 127
1, 577279, Note_on_c, 7, 79, 127
1, 577279, Note_on_c, 0, 48, 127
1, 577446, Note_off_c, 5, 53, 127
1, 577454, Note_on_c, 4, 52, 127
1, 577616, Note_off_c, 0, 48, 127
1, 577629, Note_on_c, 12, 47, 127
1, 577712, Note_off_c, 4, 52, 127
1, 577717, Note_on_c, 5, 53, 127
1, 577802, Note_off_c, 5, 53, 127
1, 577805, Note_on_c, 4, 52, 127
1, 577890, Note_off_c, 4, 52, 127
1, 577893, Note_on_c, 3, 51, 127
1, 577968, Note_off_c, 12, 47, 127
1, 577978, Note_off_c, 3, 51, 127
1, 577981, Note_on_c, 4, 52, 127
1, 577981, Note_on_c, 0, 48, 127
1, 578145, Note_off_c, 7, 79, 127
1, 578156, Note_on_c, 6, 78, 127
1, 578318, Note_off_c, 0, 48, 127
1, 578325, Note_off_c, 4, 52, 127
1, 578327, Note_off_c, 6, 78, 127
1, 578331, Note_on_c, 10, 81, 127
1, 578331, Note_on_c, 0, 60, 127
1, 578331, Note_on_c, 4, 52, 127
1, 578502, Note_off_c, 10, 81, 127
1, 578506, Note_on_c, 7, 79, 127
1, 578668, Note_off_c, 4, 52, 127
1, 578677, Note_off_c, 7, 79, 127
1, 578681, Note_on_c, 6, 78, 127
1, 578681, Note_on_c, 10, 45, 127
1, 578852, Note_off_c, 6, 78, 127
1, 578855, Note_on_c, 7, 79, 127
1, 579018, Note_off_c, 10, 45, 127
1, 579021, Note_off_c, 0, 60, 127
1, 579026, Note_off_c, 7, 79, 127
1, 579030, Note_on_c, 4, 76, 127
1, 579030, Note_on_c, 4, 52, 127
1, 579030, Note_on_c, 0, 48, 127
1, 579367, Note_off_c, 0, 48, 127
1, 579374, Note_off_c, 4, 52, 127
1, 579374, Note_off_c, 4, 76, 127
1, 579380, Note_on_c, 4, 76, 127
1, 579380, Note_on_c, 3, 51, 127
1, 579380, Note_on_c, 12, 47, 127
1, 579551, Note_off_c, 3, 51, 127
1, 579551, Note_off_c, 4, 76, 127
1, 579555, Note_on_c, 6, 78, 127
1, 579555, Note_on_c, 4, 52, 127
1, 579726, Note_off_c, 4, 52, 127
1, 579730, Note_on_c, 3, 51, 127
1, 579813, Note_off_c, 6, 78, 127
1, 579818, Note_on_c, 5, 77, 127
1, 579902, Note_off_c, 3, 51, 127
1, 579903, Note_off_c, 5, 77, 127
1, 579906, Note_on_c, 6, 78, 127
1, 579906, Note_on_c, 1, 49, 127
1, 579991, Note_off_c, 6, 78, 127
1, 579994, Note_on_c, 7, 79, 127
1, 580078, Note_off_c, 1, 49, 127
1, 580079, Note_off_c, 7, 79, 127
1, 580082, Note_on_c, 6, 78, 127
1, 580082, Note_on_c, 3, 51, 127
1, 580248, Note_off_c, 12, 47, 127
1, 580253, Note_off_c, 3, 51, 127
1, 580257, Note_on_c, 4, 52, 127
1, 580426, Note_off_c, 6, 78, 127
1, 580428, Note_off_c, 4, 52, 127
1, 580432, Note_on_c, 10, 69, 127
1, 580432, Note_on_c, 6, 54, 127
1, 580603, Note_off_c, 6, 54, 127
1, 580607, Note_on_c, 7, 55, 127
1, 580778, Note_off_c, 7, 55, 127
1, 580781, Note_on_c, 10, 57, 127
1, 580952, Note_off_c, 10, 57, 127
1, 580956, Note_on_c, 12, 59, 127
1, 581122, Note_off_c, 10, 69, 127
1, 581127, Note_off_c, 12, 59, 127
1, 581131, Note_on_c, 6, 78, 127
1, 581131, Note_on_c, 1, 61, 127
1, 581302, Note_off_c, 1, 61, 127
1, 581306, Note_on_c, 3, 63, 127
1, 581475, Note_off_c, 6, 78, 127
1, 581477, Note_off_c, 3, 63, 127
1, 581481, Note_on_c, 7, 79, 127
1, 581481, Note_on_c, 4, 64, 127
1, 581652, Note_off_c, 7, 79, 127
1, 581656, Note_on_c, 6, 78, 127
1, 581827, Note_off_c, 6, 78, 127
1, 581831, Note_on_c, 7, 79, 127
1, 581831, Note_on_c, 4, 52, 127
1, 582002, Note_off_c, 7, 79, 127
1, 582006, Note_on_c, 10, 81, 127
1, 582168, Note_off_c, 4, 52, 127
1, 582177, Note_off_c, 10, 81, 127
1, 582181, Note_on_c, 7, 79, 127
1, 582181, Note_on_c, 6, 54, 127
1, 582352, Note_off_c, 7, 79, 127
1, 582356, Note_on_c, 6, 78, 127
1, 582518, Note_off_c, 6, 54, 127
1, 582527, Note_off_c, 6, 78, 127
1, 582530, Note_on_c, 4, 76, 127
1, 582530, Note_on_c, 7, 55, 127
1, 582701, Note_off_c, 4, 76, 127
1, 582705, Note_on_c, 2, 74, 127
1, 582867, Note_off_c, 7, 55, 127
1, 582876, Note_off_c, 2, 74, 127
1, 582880, Note_on_c, 0, 72, 127
1, 582880, Note_on_c, 10, 57, 127
1, 583051, Note_off_c, 0, 72, 127
1, 583055, Note_on_c, 12, 71, 127
1, 583217, Note_off_c, 10, 57, 127
1, 583226, Note_off_c, 12, 71, 127
1, 583230, Note_on_c, 10, 69, 127
1, 583230, Note_on_c, 12, 59, 127
1, 583401, Note_off_c, 10, 69, 127
1, 583405, Note_on_c, 7, 67, 127
1, 583567, Note_off_c, 12, 59, 127
1, 583576, Note_off_c, 7, 67, 127
1, 583580, Note_on_c, 6, 66, 127
1, 583580, Note_on_c, 0, 60, 127
1, 583743, Note_off_c, 0, 60, 127
1, 583755, Note_on_c, 2, 62, 127
1, 583904, Note_off_c, 4, 64, 127
1, 583918, Note_off_c, 2, 62, 127
1, 583930, Note_on_c, 4, 64, 127
1, 583930, Note_on_c, 0, 60, 127
1, 584093, Note_off_c, 0, 60, 127
1, 584101, Note_off_c, 4, 64, 127
1, 584105, Note_on_c, 3, 63, 127
1, 584105, Note_on_c, 12, 59, 127
1, 584268, Note_off_c, 12, 59, 127
1, 584276, Note_off_c, 3, 63, 127
1, 584279, Note_on_c, 4, 64, 127
1, 584279, Note_on_c, 0, 60, 127
1, 584442, Note_off_c, 0, 60, 127
1, 584454, Note_on_c, 12, 59, 127
1, 584617, Note_off_c, 12, 59, 127
1, 584623, Note_off_c, 4, 64, 127
1, 584629, Note_on_c, 4, 64, 127
1, 584629, Note_on_c, 10, 57, 127
1, 584792, Note_off_c, 10, 57, 127
1, 584804, Note_on_c, 7, 55, 127
1, 584963, Note_off_c, 6, 66, 127
1, 584967, Note_off_c, 7, 55, 127
1, 584973, Note_off_c, 4, 64, 127
1, 584979, Note_on_c, 6, 66, 127
1, 584979, Note_on_c, 10, 57, 127
1, 585064, Note_off_c, 6, 66, 127
1, 585067, Note_on_c, 4, 64, 127
1, 585143, Note_off_c, 10, 57, 127
1, 585152, Note_off_c, 4, 64, 127
1, 585155, Note_on_c, 6, 66, 127
1, 585155, Note_on_c, 6, 54, 127
1, 585242, Note_on_c, 4, 64, 127
1, 585318, Note_off_c, 6, 54, 127
1, 585327, Note_off_c, 4, 64, 127
1, 585330, Note_on_c, 3, 63, 127
1, 585330, Note_on_c, 7, 55, 127
1, 585493, Note_off_c, 7, 55, 127
1, 585501, Note_off_c, 3, 63, 127
1, 585505, Note_on_c, 1, 61, 127
1, 585505, Note_on_c, 10, 57, 127
1, 585668, Note_off_c, 10, 57, 127
1, 585672, Note_off_c, 6, 66, 127
1, 585676, Note_off_c, 1, 61, 127
1, 585680, Note_on_c, 3, 63, 127
1, 585680, Note_on_c, 12, 59, 127
1, 585843, Note_off_c, 12, 59, 127
1, 585855, Note_on_c, 0, 60, 127
1, 586018, Note_off_c, 0, 60, 127
1, 586029, Note_on_c, 6, 66, 127
1, 586029, Note_on_c, 12, 59, 127
1, 586192, Note_off_c, 12, 59, 127
1, 586200, Note_off_c, 6, 66, 127
1, 586204, Note_on_c, 7, 67, 127
1, 586204, Note_on_c, 10, 57, 127
1, 586367, Note_off_c, 10, 57, 127
1, 586375, Note_off_c, 7, 67, 127
1, 586379, Note_on_c, 6, 66, 127
1, 586379, Note_on_c, 12, 59, 127
1, 586542, Note_off_c, 12, 59, 127
1, 586554, Note_on_c, 6, 54, 127
1, 586717, Note_off_c, 6, 54, 127
1, 586723, Note_off_c, 6, 66, 127
1, 586729, Note_on_c, 6, 66, 127
1, 586729, Note_on_c, 3, 51, 127
1, 586892, Note_off_c, 3, 51, 127
1, 586904, Note_on_c, 6, 54, 127
1, 587063, Note_off_c, 3, 63, 127
1, 587067, Note_off_c, 6, 54, 127
1, 587073, Note_off_c, 6, 66, 127
1, 587079, Note_on_c, 6, 66, 127
1, 587079, Note_on_c, 12, 47, 127
1, 587164, Note_off_c, 6, 66, 127
1, 587167, Note_on_c, 4, 64, 127
1, 587243, Note_off_c, 12, 47, 127
1, 587252, Note_off_c, 4, 64, 127
1, 587255, Note_on_c, 6, 66, 127
1, 587255, Note_on_c, 3, 51, 127
1, 587418, Note_off_c, 3, 51, 127
1, 587430, Note_on_c, 7, 67, 127
1, 587430, Note_on_c, 1, 49, 127
1, 587593, Note_off_c, 1, 49, 127
1, 587601, Note_off_c, 7, 67, 127
1, 587605, Note_on_c, 10, 69, 127
1, 587605, Note_on_c, 12, 47, 127
1, 587768, Note_off_c, 12, 47, 127
1, 587776, Note_off_c, 10, 69, 127
1, 587780, Note_on_c, 7, 67, 127
1, 587780, Note_on_c, 4, 52, 127
1, 587943, Note_off_c, 4, 52, 127
1, 587945, Note_off_c, 6, 66, 127
1, 587954, Note_on_c, 4, 64, 127
1, 587954, Note_on_c, 0, 48, 127
1, 588117, Note_off_c, 0, 48, 127
1, 588125, Note_off_c, 4, 64, 127
1, 588129, Note_on_c, 3, 63, 127
1, 588129, Note_on_c, 12, 47, 127
1, 588292, Note_off_c, 12, 47, 127
1, 588300, Note_off_c, 3, 63, 127
1, 588304, Note_on_c, 6, 66, 127
1, 588304, Note_on_c, 10, 45, 127
1, 588467, Note_off_c, 10, 45, 127
1, 588475, Note_off_c, 6, 66, 127
1, 588479, Note_on_c, 4, 64, 127
1, 588479, Note_on_c, 7, 43, 127
1, 588642, Note_off_c, 7, 43, 127
1, 588650, Note_off_c, 4, 64, 127
1, 588654, Note_on_c, 2, 62, 127
1, 588654, Note_on_c, 12, 47, 127
1, 588817, Note_off_c, 12, 47, 127
1, 588825, Note_off_c, 2, 62, 127
1, 588829, Note_on_c, 1, 61, 127
1, 588829, Note_on_c, 4, 52, 127
1, 588992, Note_off_c, 4, 52, 127
1, 589000, Note_off_c, 1, 61, 127
1, 589004, Note_on_c, 0, 60, 127
1, 589004, Note_on_c, 3, 51, 127
1, 589163, Note_off_c, 7, 67, 127
1, 589167, Note_off_c, 3, 51, 127
1, 589175, Note_off_c, 0, 60, 127
1, 589179, Note_on_c, 4, 64, 127
1, 589179, Note_on_c, 12, 59, 127
1, 589179, Note_on_c, 4, 52, 127
1, 589350, Note_off_c, 12, 59, 127
1, 589354, Note_on_c, 10, 57, 127
1, 589516, Note_off_c, 4, 52, 127
1, 589525, Note_off_c, 10, 57, 127
1, 589529, Note_on_c, 7, 55, 127
1, 589529, Note_on_c, 2, 50, 127
1, 589700, Note_off_c, 7, 55, 127
1, 589703, Note_on_c, 6, 54, 127
1, 589866, Note_off_c, 2, 50, 127
1, 589874, Note_off_c, 6, 54, 127
1, 589878, Note_on_c, 7, 55, 127
1, 589878, Note_on_c, 0, 48, 127
1, 590053, Note_on_c, 6, 66, 127
1, 590054, Note_off_c, 4, 64, 127
1, 590215, Note_off_c, 0, 48, 127
1, 590224, Note_off_c, 6, 66, 127
1, 590228, Note_on_c, 7, 67, 127
1, 590228, Note_on_c, 0, 60, 127
1, 590399, Note_off_c, 7, 67, 127
1, 590403, Note_on_c, 4, 64, 127
1, 590574, Note_off_c, 4, 64, 127
1, 590578, Note_on_c, 6, 66, 127
1, 590738, Note_off_c, 0, 60, 127
1, 590744, Note_off_c, 7, 55, 127
1, 590749, Note_off_c, 6, 66, 127
1, 590753, Note_on_c, 7, 67, 127
1, 590753, Note_on_c, 4, 52, 127
1, 590916, Note_off_c, 4, 52, 127
1, 590924, Note_off_c, 7, 67, 127
1, 590928, Note_on_c, 8, 68, 127
1, 590928, Note_on_c, 2, 50, 127
1, 591091, Note_off_c, 2, 50, 127
1, 591099, Note_off_c, 8, 68, 127
1, 591103, Note_on_c, 10, 69, 127
1, 591103, Note_on_c, 0, 48, 127
1, 591266, Note_off_c, 0, 48, 127
1, 591274, Note_off_c, 10, 69, 127
1, 591278, Note_on_c, 12, 71, 127
1, 591278, Note_on_c, 2, 50, 127
1, 591441, Note_off_c, 2, 50, 127
1, 591449, Note_off_c, 12, 71, 127
1, 591452, Note_on_c, 0, 72, 127
1, 591452, Note_on_c, 0, 48, 127
1, 591615, Note_off_c, 0, 48, 127
1, 591623, Note_off_c, 0, 72, 127
1, 591627, Note_on_c, 2, 74, 127
1, 591627, Note_on_c, 12, 47, 127
1, 591790, Note_off_c, 12, 47, 127
1, 591798, Note_off_c, 2, 74, 127
1, 591802, Note_on_c, 4, 76, 127
1, 591802, Note_on_c, 10, 45, 127
1, 591965, Note_off_c, 10, 45, 127
1, 591973, Note_off_c, 4, 76, 127
1, 591977, Note_on_c, 2, 74, 127
1, 591977, Note_on_c, 12, 47, 127
1, 592152, Note_on_c, 10, 69, 127
1, 592314, Note_off_c, 12, 47, 127
1, 592323, Note_off_c, 10, 69, 127
1, 592327, Note_on_c, 8, 68, 127
1, 592327, Note_on_c, 12, 59, 127
1, 592498, Note_off_c, 8, 68, 127
1, 592502, Note_on_c, 6, 66, 127
1, 592673, Note_off_c, 6, 66, 127
1, 592677, Note_on_c, 8, 68, 127
1, 592837, Note_off_c, 12, 59, 127
1, 592848, Note_off_c, 8, 68, 127
1, 592852, Note_on_c, 5, 65, 127
1, 592852, Note_on_c, 2, 50, 127
1, 593015, Note_off_c, 2, 50, 127
1, 593023, Note_off_c, 5, 65, 127
1, 593027, Note_on_c, 4, 64, 127
1, 593027, Note_on_c, 0, 48, 127
1, 593190, Note_off_c, 0, 48, 127
1, 593198, Note_off_c, 4, 64, 127
1, 593201, Note_on_c, 2, 62, 127
1, 593201, Note_on_c, 12, 47, 127
1, 593364, Note_off_c, 12, 47, 127
1, 593372, Note_off_c, 2, 62, 127
1, 593376, Note_on_c, 4, 64, 127
1, 593376, Note_on_c, 0, 48, 127
1, 593539, Note_off_c, 0, 48, 127
1, 593547, Note_off_c, 4, 64, 127
1, 593551, Note_on_c, 2, 62, 127
1, 593551, Note_on_c, 12, 47, 127
1, 593714, Note_off_c, 12, 47, 127
1, 593722, Note_off_c, 2, 62, 127
1, 593726, Note_on_c, 0, 60, 127
1, 593726, Note_on_c, 10, 45, 127
1, 593889, Note_off_c, 10, 45, 127
1, 593897, Note_off_c, 0, 60, 127
1, 593901, Note_on_c, 12, 59, 127
1, 593901, Note_on_c, 8, 44, 127
1, 594064, Note_off_c, 8, 44, 127
1, 594072, Note_off_c, 12, 59, 127
1, 594076, Note_on_c, 0, 60, 127
1, 594076, Note_on_c, 10, 45, 127
1, 594227, Note_off_c, 2, 74, 127
1, 594247, Note_off_c, 0, 60, 127
1, 594251, Note_on_c, 0, 60, 127
1, 594413, Note_off_c, 10, 45, 127
1, 594426, Note_on_c, 2, 62, 127
1, 594426, Note_on_c, 10, 57, 127
1, 594597, Note_off_c, 2, 62, 127
1, 594601, Note_on_c, 4, 64, 127
1, 594772, Note_off_c, 4, 64, 127
1, 594776, Note_on_c, 2, 62, 127
1, 594936, Note_off_c, 10, 57, 127
1, 594947, Note_off_c, 2, 62, 127
1, 594950, Note_on_c, 3, 63, 127
1, 594950, Note_on_c, 12, 59, 127
1, 595113, Note_off_c, 12, 59, 127
1, 595121, Note_off_c, 3, 63, 127
1, 595125, Note_on_c, 6, 66, 127
1, 595125, Note_on_c, 10, 57, 127
1, 595288, Note_off_c, 10, 57, 127
1, 595296, Note_off_c, 6, 66, 127
1, 595300, Note_on_c, 7, 67, 127
1, 595300, Note_on_c, 7, 55, 127
1, 595463, Note_off_c, 7, 55, 127
1, 595471, Note_off_c, 7, 67, 127
1, 595475, Note_on_c, 6, 66, 127
1, 595475, Note_on_c, 10, 57, 127
1, 595638, Note_off_c, 10, 57, 127
1, 595646, Note_off_c, 6, 66, 127
1, 595650, Note_on_c, 7, 67, 127
1, 595650, Note_on_c, 7, 55, 127
1, 595813, Note_off_c, 7, 55, 127
1, 595821, Note_off_c, 7, 67, 127
1, 595825, Note_on_c, 10, 69, 127
1, 595825, Note_on_c, 6, 54, 127
1, 595988, Note_off_c, 6, 54, 127
1, 595996, Note_off_c, 10, 69, 127
1, 596000, Note_on_c, 12, 71, 127
1, 596000, Note_on_c, 4, 52, 127
1, 596163, Note_off_c, 4, 52, 127
1, 596171, Note_off_c, 12, 71, 127
1, 596175, Note_on_c, 10, 69, 127
1, 596175, Note_on_c, 6, 54, 127
1, 596338, Note_off_c, 6, 54, 127
1, 596350, Note_on_c, 4, 52, 127
1, 596501, Note_off_c, 0, 60, 127
1, 596513, Note_off_c, 4, 52, 127
1, 596525, Note_on_c, 7, 67, 127
1, 596525, Note_on_c, 2, 50, 127
1, 596688, Note_off_c, 2, 50, 127
1, 596699, Note_on_c, 1, 49, 127
1, 596862, Note_off_c, 1, 49, 127
1, 596869, Note_off_c, 7, 67, 127
1, 596874, Note_on_c, 6, 66, 127
1, 596874, Note_on_c, 2, 50, 127
1, 597037, Note_off_c, 2, 50, 127
1, 597049, Note_on_c, 0, 48, 127
1, 597212, Note_off_c, 0, 48, 127
1, 597218, Note_off_c, 6, 66, 127
1, 597224, Note_on_c, 4, 64, 127
1, 597224, Note_on_c, 12, 47, 127
1, 597387, Note_off_c, 12, 47, 127
1, 597399, Note_on_c, 10, 45, 127
1, 597562, Note_off_c, 10, 45, 127
1, 597568, Note_off_c, 4, 64, 127
1, 597574, Note_on_c, 2, 62, 127
1, 597574, Note_on_c, 12, 47, 127
1, 597737, Note_off_c, 12, 47, 127
1, 597745, Note_off_c, 2, 62, 127
1, 597749, Note_on_c, 12, 59, 127
1, 597749, Note_on_c, 10, 45, 127
1, 597912, Note_off_c, 10, 45, 127
1, 597920, Note_off_c, 12, 59, 127
1, 597924, Note_on_c, 0, 60, 127
1, 597924, Note_on_c, 7, 43, 127
1, 598087, Note_off_c, 7, 43, 127
1, 598095, Note_off_c, 0, 60, 127
1, 598099, Note_on_c, 10, 57, 127
1, 598099, Note_on_c, 6, 42, 127
1, 598262, Note_off_c, 6, 42, 127
1, 598270, Note_off_c, 10, 57, 127
1, 598274, Note_on_c, 12, 59, 127
1, 598274, Note_on_c, 7, 43, 127
1, 598437, Note_off_c, 7, 43, 127
1, 598448, Note_on_c, 10, 57, 127
1, 598598, Note_off_c, 10, 69, 127
1, 598611, Note_off_c, 10, 57, 127
1, 598618, Note_off_c, 12, 59, 127
1, 598623, Note_on_c, 2, 62, 127
1, 598623, Note_on_c, 0, 60, 127
1, 598623, Note_on_c, 7, 55, 127
1, 598786, Note_off_c, 7, 55, 127
1, 598798, Note_on_c, 6, 54, 127
1, 598961, Note_off_c, 6, 54, 127
1, 598967, Note_off_c, 0, 60, 127
1, 598967, Note_off_c, 2, 62, 127
1, 598973, Note_on_c, 4, 64, 127
1, 598973, Note_on_c, 12, 59, 127
1, 598973, Note_on_c, 7, 55, 127
1, 599136, Note_off_c, 7, 55, 127
1, 599148, Note_on_c, 6, 54, 127
1, 599311, Note_off_c, 6, 54, 127
1, 599317, Note_off_c, 12, 59, 127
1, 599317, Note_off_c, 4, 64, 127
1, 599323, Note_on_c, 6, 66, 127
1, 599323, Note_on_c, 10, 57, 127
1, 599323, Note_on_c, 4, 52, 127
1, 599486, Note_off_c, 4, 52, 127
1, 599498, Note_on_c, 3, 51, 127
1, 599661, Note_off_c, 3, 51, 127
1, 599667, Note_off_c, 10, 57, 127
1, 599667, Note_off_c, 6, 66, 127
1, 599673, Note_on_c, 7, 67, 127
1, 599673, Note_on_c, 10, 57, 127
1, 599673, Note_on_c, 4, 52, 127
1, 599758, Note_off_c, 10, 57, 127
1, 599761, Note_on_c, 7, 55, 127
1, 599845, Note_off_c, 7, 67, 127
1, 599846, Note_off_c, 7, 55, 127
1, 599849, Note_on_c, 12, 71, 127
1, 599849, Note_on_c, 10, 57, 127
1, 599934, Note_off_c, 10, 57, 127
1, 599937, Note_on_c, 7, 55, 127
1, 600021, Note_off_c, 12, 71, 127
1, 600025, Note_on_c, 10, 69, 127
1, 600195, Note_off_c, 7, 55, 127
1, 600196, Note_off_c, 10, 69, 127
1, 600200, Note_on_c, 0, 72, 127
1, 600200, Note_on_c, 6, 54, 127
1, 600371, Note_off_c, 6, 54, 127
1, 600371, Note_off_c, 0, 72, 127
1, 600374, Note_on_c, 12, 71, 127
1, 600374, Note_on_c, 7, 55, 127
1, 600531, Note_off_c, 4, 52, 127
1, 600549, Note_on_c, 2, 50, 127
1, 600712, Note_off_c, 2, 50, 127
1, 600718, Note_off_c, 12, 71, 127
1, 600724, Note_on_c, 10, 69, 127
1, 600724, Note_on_c, 0, 48, 127
1, 600887, Note_off_c, 0, 48, 127
1, 600899, Note_on_c, 4, 52, 127
1, 601062, Note_off_c, 4, 52, 127
1, 601068, Note_off_c, 10, 69, 127
1, 601074, Note_on_c, 12, 71, 127
1, 601074, Note_on_c, 2, 50, 127
1, 601238, Note_off_c, 7, 55, 127
1, 601249, Note_on_c, 12, 59, 127
1, 601418, Note_off_c, 12, 71, 127
1, 601420, Note_off_c, 12, 59, 127
1, 601424, Note_on_c, 0, 72, 127
1, 601424, Note_on_c, 10, 57, 127
1, 601595, Note_off_c, 10, 57, 127
1, 601599, Note_on_c, 7, 55, 127
1, 601768, Note_off_c, 0, 72, 127
1, 601770, Note_off_c, 7, 55, 127
1, 601774, Note_on_c, 2, 74, 127
1, 601774, Note_on_c, 6, 54, 127
1, 601859, Note_off_c, 2, 74, 127
1, 601862, Note_on_c, 0, 72, 127
1, 601946, Note_off_c, 6, 54, 127
1, 601947, Note_off_c, 0, 72, 127
1, 601950, Note_on_c, 2, 74, 127
1, 601950, Note_on_c, 4, 52, 127
1, 602105, Note_off_c, 2, 50, 127
1, 602121, Note_off_c, 4, 52, 127
1, 602125, Note_on_c, 2, 50, 127
1, 602125, Note_on_c, 10, 45, 127
1, 602294, Note_off_c, 2, 74, 127
1, 602296, Note_off_c, 2, 50, 127
1, 602299, Note_on_c, 4, 76, 127
1, 602299, Note_on_c, 0, 48, 127
1, 602462, Note_off_c, 10, 45, 127
1, 602470, Note_off_c, 0, 48, 127
1, 602470, Note_off_c, 4, 76, 127
1, 602474, Note_on_c, 2, 74, 127
1, 602474, Note_on_c, 12, 47, 127
1, 602649, Note_on_c, 2, 50, 127
1, 602820, Note_off_c, 2, 50, 127
1, 602824, Note_on_c, 7, 55, 127
1, 602995, Note_off_c, 7, 55, 127
1, 602999, Note_on_c, 12, 59, 127
1, 603170, Note_off_c, 12, 59, 127
1, 603174, Note_on_c, 2, 62, 127
1, 603232, Note_off_c, 2, 74, 127
1, 603318, Note_off_c, 12, 47, 127
1, 603349, Note_on_c, 12, 71, 127
1, 603518, Note_off_c, 2, 62, 127
1, 603520, Note_off_c, 12, 71, 127
1, 603524, Note_on_c, 0, 72, 127
1, 603524, Note_on_c, 7, 55, 127
1, 603524, Note_on_c, 4, 52, 127
1, 603695, Note_off_c, 0, 72, 127
1, 603699, Note_on_c, 2, 74, 127
1, 603861, Note_off_c, 4, 52, 127
1, 603870, Note_off_c, 2, 74, 127
1, 603874, Note_on_c, 4, 76, 127
1, 603874, Note_on_c, 0, 48, 127
1, 604041, Note_off_c, 7, 55, 127
1, 604045, Note_off_c, 4, 76, 127
1, 604048, Note_on_c, 6, 78, 127
1, 604048, Note_on_c, 10, 57, 127
1, 604211, Note_off_c, 0, 48, 127
1, 604219, Note_off_c, 10, 57, 127
1, 604219, Note_off_c, 6, 78, 127
1, 604223, Note_on_c, 7, 79, 127
1, 604223, Note_on_c, 6, 54, 127
1, 604223, Note_on_c, 2, 50, 127
1, 604394, Note_off_c, 7, 79, 127
1, 604398, Note_on_c, 10, 81, 127
1, 604560, Note_off_c, 2, 50, 127
1, 604567, Note_off_c, 6, 54, 127
1, 604569, Note_off_c, 10, 81, 127
1, 604573, Note_on_c, 12, 83, 127
1, 604573, Note_on_c, 7, 55, 127
1, 604573, Note_on_c, 7, 43, 127
1, 604744, Note_off_c, 12, 83, 127
1, 604748, Note_on_c, 7, 79, 127
1, 604919, Note_off_c, 7, 79, 127
1, 604923, Note_on_c, 2, 74, 127
1, 605094, Note_off_c, 2, 74, 127
1, 605098, Note_on_c, 12, 71, 127
1, 605269, Note_off_c, 12, 71, 127
1, 605273, Note_on_c, 7, 67, 127
1, 605429, Note_off_c, 7, 43, 127
1, 605466, Note_on_c, 12, 47, 127
1, 605644, Note_off_c, 12, 47, 127
1, 605659, Note_on_c, 2, 50, 127
1, 605837, Note_off_c, 2, 50, 127
1, 605851, Note_on_c, 6, 54, 127
1, 605955, Note_off_c, 7, 55, 127
1, 606028, Note_off_c, 6, 54, 127
1, 606104, Note_on_c, 7, 55, 127
1, 607432, Note_off_c, 7, 67, 127
1, 609704, Note_off_c, 7, 55, 127
1, 610183, Note_on_c, 12, 71, 127
1, 610183, Note_on_c, 7, 55, 127
1, 610310, Note_on_c, 0, 72, 127
1, 610317, Note_off_c, 12, 71, 127
1, 610437, Note_on_c, 12, 71, 127
1, 610444, Note_off_c, 0, 72, 127
1, 610564, Note_on_c, 10, 69, 127
1, 610571, Note_off_c, 12, 71, 127
1, 610691, Note_on_c, 12, 71, 127
1, 610698, Note_off_c, 10, 69, 127
1, 610946, Note_on_c, 12, 59, 127
1, 611192, Note_off_c, 12, 59, 127
1, 611200, Note_on_c, 2, 62, 127
1, 611294, Note_off_c, 12, 71, 127
1, 611327, Note_on_c, 6, 66, 127
1, 611455, Note_on_c, 7, 67, 127
1, 611461, Note_off_c, 6, 66, 127
1, 611582, Note_on_c, 10, 69, 127
1, 611589, Note_off_c, 7, 67, 127
1, 611687, Note_off_c, 7, 55, 127
1, 611710, Note_on_c, 12, 71, 127
1, 611710, Note_on_c, 7, 55, 127
1, 611717, Note_off_c, 10, 69, 127
1, 611965, Note_on_c, 0, 72, 127
1, 611967, Note_off_c, 12, 71, 127
1, 612210, Note_off_c, 7, 55, 127
1, 612218, Note_on_c, 2, 74, 127
1, 612218, Note_on_c, 6, 54, 127
1, 612221, Note_off_c, 0, 72, 127
1, 612345, Note_on_c, 0, 72, 127
1, 612352, Note_off_c, 2, 74, 127
1, 612472, Note_on_c, 12, 71, 127
1, 612479, Note_off_c, 0, 72, 127
1, 612719, Note_off_c, 6, 54, 127
1, 612727, Note_on_c, 10, 69, 127
1, 612727, Note_on_c, 4, 52, 127
1, 612729, Note_off_c, 12, 71, 127
1, 612981, Note_on_c, 7, 67, 127
1, 612984, Note_off_c, 10, 69, 127
1, 613191, Note_off_c, 7, 67, 127
1, 613228, Note_off_c, 4, 52, 127
1, 613235, Note_on_c, 6, 54, 127
1, 613238, Note_on_c, 2, 74, 127
1, 613363, Note_on_c, 4, 76, 127
1, 613372, Note_off_c, 2, 74, 127
1, 613490, Note_on_c, 2, 74, 127
1, 613497, Note_off_c, 4, 76, 127
1, 613617, Note_on_c, 1, 73, 127
1, 613624, Note_off_c, 2, 74, 127
1, 613744, Note_on_c, 2, 74, 127
1, 613751, Note_off_c, 1, 73, 127
1, 613999, Note_on_c, 10, 57, 127
1, 614215, Note_off_c, 2, 62, 127
1, 614247, Note_off_c, 10, 57, 127
1, 614252, Note_on_c, 2, 62, 127
1, 614378, Note_off_c, 2, 74, 127
1, 614379, Note_on_c, 1, 73, 127
1, 614506, Note_on_c, 2, 74, 127
1, 614513, Note_off_c, 1, 73, 127
1, 614634, Note_on_c, 4, 76, 127
1, 614640, Note_off_c, 2, 74, 127
1, 614743, Note_off_c, 6, 54, 127
1, 614761, Note_on_c, 6, 78, 127
1, 614761, Note_on_c, 12, 59, 127
1, 614768, Note_off_c, 4, 76, 127
1, 615015, Note_on_c, 7, 79, 127
1, 615018, Note_off_c, 6, 78, 127
1, 615261, Note_off_c, 12, 59, 127
1, 615269, Note_on_c, 10, 81, 127
1, 615269, Note_on_c, 10, 57, 127
1, 615271, Note_off_c, 7, 79, 127
1, 615396, Note_on_c, 7, 79, 127
1, 615403, Note_off_c, 10, 81, 127
1, 615523, Note_on_c, 6, 78, 127
1, 615530, Note_off_c, 7, 79, 127
1, 615770, Note_off_c, 10, 57, 127
1, 615777, Note_on_c, 4, 76, 127
1, 615777, Note_on_c, 12, 59, 127
1, 615780, Note_off_c, 6, 78, 127
1, 616032, Note_on_c, 2, 74, 127
1, 616034, Note_off_c, 4, 76, 127
1, 616242, Note_off_c, 2, 74, 127
1, 616278, Note_off_c, 12, 59, 127
1, 616286, Note_on_c, 4, 52, 127
1, 616288, Note_on_c, 7, 79, 127
1, 616413, Note_on_c, 10, 81, 127
1, 616422, Note_off_c, 7, 79, 127
1, 616541, Note_on_c, 7, 79, 127
1, 616547, Note_off_c, 10, 81, 127
1, 616668, Note_on_c, 6, 78, 127
1, 616675, Note_off_c, 7, 79, 127
1, 616795, Note_on_c, 7, 79, 127
1, 616802, Note_off_c, 6, 78, 127
1, 617049, Note_on_c, 12, 59, 127
1, 617272, Note_off_c, 2, 62, 127
1, 617298, Note_off_c, 12, 59, 127
1, 617304, Note_on_c, 1, 61, 127
1, 617430, Note_off_c, 7, 79, 127
1, 617431, Note_on_c, 6, 78, 127
1, 617558, Note_on_c, 4, 76, 127
1, 617565, Note_off_c, 6, 78, 127
1, 617685, Note_on_c, 6, 78, 127
1, 617692, Note_off_c, 4, 76, 127
1, 617795, Note_off_c, 4, 52, 127
1, 617813, Note_on_c, 7, 79, 127
1, 617813, Note_on_c, 10, 57, 127
1, 617819, Note_off_c, 6, 78, 127
1, 618067, Note_on_c, 4, 76, 127
1, 618070, Note_off_c, 7, 79, 127
1, 618313, Note_off_c, 10, 57, 127
1, 618320, Note_on_c, 10, 69, 127
1, 618320, Note_on_c, 7, 55, 127
1, 618323, Note_off_c, 4, 76, 127
1, 618575, Note_on_c, 12, 83, 127
1, 618577, Note_off_c, 10, 69, 127
1, 618820, Note_off_c, 7, 55, 127
1, 618828, Note_on_c, 10, 81, 127
1, 618828, Note_on_c, 10, 57, 127
1, 618831, Note_off_c, 12, 83, 127
1, 619082, Note_on_c, 7, 79, 127
1, 619085, Note_off_c, 10, 81, 127
1, 619307, Note_off_c, 7, 79, 127
1, 619314, Note_off_c, 1, 61, 127
1, 619328, Note_off_c, 10, 57, 127
1, 619336, Note_on_c, 2, 50, 127
1, 619338, Note_on_c, 6, 78, 127
1, 619463, Note_on_c, 4, 76, 127
1, 619472, Note_off_c, 6, 78, 127
1, 619590, Note_on_c, 6, 78, 127
1, 619597, Note_off_c, 4, 76, 127
1, 619717, Note_on_c, 4, 76, 127
1, 619724, Note_off_c, 6, 78, 127
1, 619845, Note_on_c, 2, 74, 127
1, 619851, Note_off_c, 4, 76, 127
1, 620099, Note_on_c, 6, 54, 127
1, 620348, Note_off_c, 6, 54, 127
1, 620353, Note_on_c, 10, 57, 127
1, 620448, Note_off_c, 2, 74, 127
1, 620481, Note_on_c, 1, 73, 127
1, 620608, Note_on_c, 2, 74, 127
1, 620615, Note_off_c, 1, 73, 127
1, 620735, Note_on_c, 4, 76, 127
1, 620742, Note_off_c, 2, 74, 127
1, 620862, Note_on_c, 6, 78, 127
1, 620862, Note_on_c, 4, 52, 127
1, 620866, Note_off_c, 2, 50, 127
1, 620869, Note_off_c, 4, 76, 127
1, 621117, Note_on_c, 7, 79, 127
1, 621119, Note_off_c, 6, 78, 127
1, 621362, Note_off_c, 4, 52, 127
1, 621370, Note_on_c, 10, 81, 127
1, 621370, Note_on_c, 2, 50, 127
1, 621373, Note_off_c, 7, 79, 127
1, 621624, Note_on_c, 12, 83, 127
1, 621627, Note_off_c, 10, 81, 127
1, 621752, Note_on_c, 0, 84, 127
1, 621758, Note_off_c, 12, 83, 127
1, 621871, Note_off_c, 2, 50, 127
1, 621879, Note_on_c, 12, 83, 127
1, 621879, Note_on_c, 0, 48, 127
1, 621886, Note_off_c, 0, 84, 127
1, 622133, Note_on_c, 10, 81, 127
1, 622136, Note_off_c, 12, 83, 127
1, 622343, Note_off_c, 10, 81, 127
1, 622365, Note_off_c, 10, 57, 127
1, 622380, Note_off_c, 0, 48, 127
1, 622388, Note_on_c, 12, 47, 127
1, 622390, Note_on_c, 7, 79, 127
1, 622515, Note_on_c, 5, 77, 127
1, 622524, Note_off_c, 7, 79, 127
1, 622642, Note_on_c, 4, 76, 127
1, 622649, Note_off_c, 5, 77, 127
1, 622896, Note_on_c, 5, 77, 127
1, 622899, Note_off_c, 4, 76, 127
1, 623151, Note_on_c, 2, 50, 127
1, 623400, Note_off_c, 2, 50, 127
1, 623405, Note_on_c, 7, 55, 127
1, 623531, Note_off_c, 5, 77, 127
1, 623532, Note_on_c, 2, 74, 127
1, 623660, Note_on_c, 7, 79, 127
1, 623666, Note_off_c, 2, 74, 127
1, 623787, Note_on_c, 10, 81, 127
1, 623794, Note_off_c, 7, 79, 127
1, 623914, Note_on_c, 12, 83, 127
1, 623914, Note_on_c, 7, 43, 127
1, 623921, Note_off_c, 10, 81, 127
1, 623924, Note_off_c, 12, 47, 127
1, 624042, Note_on_c, 0, 84, 127
1, 624049, Note_off_c, 12, 83, 127
1, 624169, Note_on_c, 2, 86, 127
1, 624176, Note_off_c, 0, 84, 127
1, 624416, Note_off_c, 7, 43, 127
1, 624424, Note_on_c, 0, 84, 127
1, 624424, Note_on_c, 10, 45, 127
1, 624426, Note_off_c, 2, 86, 127
1, 624678, Note_on_c, 12, 83, 127
1, 624681, Note_off_c, 0, 84, 127
1, 624924, Note_off_c, 10, 45, 127
1, 624932, Note_on_c, 10, 81, 127
1, 624932, Note_on_c, 12, 47, 127
1, 624934, Note_off_c, 12, 83, 127
1, 625186, Note_on_c, 7, 79, 127
1, 625189, Note_off_c, 10, 81, 127
1, 625396, Note_off_c, 7, 79, 127
1, 625433, Note_off_c, 12, 47, 127
1, 625440, Note_on_c, 0, 48, 127
1, 625442, Note_on_c, 5, 77, 127
1, 625568, Note_on_c, 4, 76, 127
1, 625576, Note_off_c, 5, 77, 127
1, 625695, Note_on_c, 2, 74, 127
1, 625702, Note_off_c, 4, 76, 127
1, 625949, Note_on_c, 4, 76, 127
1, 625952, Note_off_c, 2, 74, 127
1, 626204, Note_on_c, 6, 54, 127
1, 626371, Note_off_c, 7, 55, 127
1, 626452, Note_off_c, 6, 54, 127
1, 626457, Note_on_c, 7, 55, 127
1, 626583, Note_off_c, 4, 76, 127
1, 626584, Note_on_c, 2, 74, 127
1, 626711, Note_on_c, 0, 72, 127
1, 626718, Note_off_c, 2, 74, 127
1, 626838, Note_on_c, 12, 71, 127
1, 626845, Note_off_c, 0, 72, 127
1, 626948, Note_off_c, 0, 48, 127
1, 626966, Note_on_c, 0, 72, 127
1, 626966, Note_on_c, 10, 45, 127
1, 626972, Note_off_c, 12, 71, 127
1, 627093, Note_on_c, 2, 74, 127
1, 627100, Note_off_c, 0, 72, 127
1, 627220, Note_on_c, 4, 76, 127
1, 627227, Note_off_c, 2, 74, 127
1, 627467, Note_off_c, 10, 45, 127
1, 627474, Note_on_c, 2, 74, 127
1, 627474, Note_on_c, 12, 47, 127
1, 627477, Note_off_c, 4, 76, 127
1, 627729, Note_on_c, 7, 79, 127
1, 627731, Note_off_c, 2, 74, 127
1, 627974, Note_off_c, 12, 47, 127
1, 627982, Note_on_c, 4, 76, 127
1, 627982, Note_on_c, 0, 48, 127
1, 627985, Note_off_c, 7, 79, 127
1, 628237, Note_on_c, 0, 72, 127
1, 628239, Note_off_c, 4, 76, 127
1, 628447, Note_off_c, 0, 72, 127
1, 628469, Note_off_c, 7, 55, 127
1, 628483, Note_off_c, 0, 48, 127
1, 628491, Note_on_c, 2, 50, 127
1, 628493, Note_on_c, 12, 71, 127
1, 628618, Note_on_c, 10, 69, 127
1, 628627, Note_off_c, 12, 71, 127
1, 628745, Note_on_c, 7, 67, 127
1, 628752, Note_off_c, 10, 69, 127
1, 629000, Note_on_c, 10, 69, 127
1, 629002, Note_off_c, 7, 67, 127
1, 629254, Note_on_c, 4, 52, 127
1, 629503, Note_off_c, 4, 52, 127
1, 629509, Note_on_c, 6, 54, 127
1, 629635, Note_off_c, 10, 69, 127
1, 629636, Note_on_c, 7, 67, 127
1, 629763, Note_on_c, 10, 69, 127
1, 629770, Note_off_c, 7, 67, 127
1, 629890, Note_on_c, 12, 71, 127
1, 629897, Note_off_c, 10, 69, 127
1, 630000, Note_off_c, 2, 50, 127
1, 630017, Note_on_c, 0, 72, 127
1, 630017, Note_on_c, 2, 50, 127
1, 630024, Note_off_c, 12, 71, 127
1, 630145, Note_on_c, 6, 66, 127
1, 630151, Note_off_c, 0, 72, 127
1, 630272, Note_on_c, 7, 67, 127
1, 630279, Note_off_c, 6, 66, 127
1, 630399, Note_on_c, 10, 69, 127
1, 630406, Note_off_c, 7, 67, 127
1, 630518, Note_off_c, 2, 50, 127
1, 630526, Note_on_c, 2, 62, 127
1, 630526, Note_on_c, 0, 48, 127
1, 630533, Note_off_c, 10, 69, 127
1, 630653, Note_on_c, 6, 66, 127
1, 630660, Note_off_c, 2, 62, 127
1, 630781, Note_on_c, 4, 64, 127
1, 630787, Note_off_c, 6, 66, 127
1, 630908, Note_on_c, 2, 62, 127
1, 630915, Note_off_c, 4, 64, 127
1, 631027, Note_off_c, 0, 48, 127
1, 631035, Note_on_c, 10, 69, 127
1, 631035, Note_on_c, 2, 50, 127
1, 631042, Note_off_c, 2, 62, 127
1, 631162, Note_on_c, 7, 67, 127
1, 631169, Note_off_c, 10, 69, 127
1, 631289, Note_on_c, 6, 66, 127
1, 631296, Note_off_c, 7, 67, 127
1, 631417, Note_on_c, 0, 72, 127
1, 631423, Note_off_c, 6, 66, 127
1, 631522, Note_off_c, 6, 54, 127
1, 631532, Note_off_c, 0, 72, 127
1, 631536, Note_off_c, 2, 50, 127
1, 631544, Note_on_c, 7, 43, 127
1, 631546, Note_on_c, 0, 72, 127
1, 631671, Note_on_c, 12, 71, 127
1, 631680, Note_off_c, 0, 72, 127
1, 631798, Note_on_c, 10, 69, 127
1, 631805, Note_off_c, 12, 71, 127
1, 632029, Note_off_c, 10, 69, 127
1, 632053, Note_on_c, 10, 69, 127
1, 632307, Note_on_c, 12, 71, 127
1, 632307, Note_on_c, 2, 50, 127
1, 632310, Note_off_c, 10, 69, 127
1, 632555, Note_off_c, 2, 50, 127
1, 632560, Note_on_c, 7, 55, 127
1, 632688, Note_on_c, 10, 69, 127
1, 632689, Note_off_c, 12, 71, 127
1, 632815, Note_on_c, 7, 67, 127
1, 632822, Note_off_c, 10, 69, 127
1, 632942, Note_on_c, 6, 66, 127
1, 632949, Note_off_c, 7, 67, 127
1, 633052, Note_off_c, 7, 43, 127
1, 633069, Note_on_c, 7, 67, 127
1, 633069, Note_on_c, 7, 43, 127
1, 633076, Note_off_c, 6, 66, 127
1, 633196, Note_on_c, 12, 71, 127
1, 633203, Note_off_c, 7, 67, 127
1, 633324, Note_on_c, 2, 74, 127
1, 633330, Note_off_c, 12, 71, 127
1, 633451, Note_on_c, 6, 78, 127
1, 633458, Note_off_c, 2, 74, 127
1, 633570, Note_off_c, 7, 43, 127
1, 633578, Note_on_c, 7, 79, 127
1, 633578, Note_on_c, 12, 47, 127
1, 633585, Note_off_c, 6, 78, 127
1, 633705, Note_on_c, 6, 78, 127
1, 633712, Note_off_c, 7, 79, 127
1, 633832, Note_on_c, 4, 76, 127
1, 633839, Note_off_c, 6, 78, 127
1, 633960, Note_on_c, 2, 74, 127
1, 633966, Note_off_c, 4, 76, 127
1, 634079, Note_off_c, 12, 47, 127
1, 634087, Note_on_c, 6, 78, 127
1, 634087, Note_on_c, 2, 50, 127
1, 634094, Note_off_c, 2, 74, 127
1, 634214, Note_on_c, 10, 81, 127
1, 634221, Note_off_c, 6, 78, 127
1, 634341, Note_on_c, 12, 83, 127
1, 634348, Note_off_c, 10, 81, 127
1, 634468, Note_on_c, 0, 84, 127
1, 634475, Note_off_c, 12, 83, 127
1, 634555, Note_off_c, 7, 55, 127
1, 634588, Note_off_c, 2, 50, 127
1, 634596, Note_on_c, 12, 83, 127
1, 634596, Note_on_c, 7, 55, 127
1, 634602, Note_off_c, 0, 84, 127
1, 634723, Note_on_c, 10, 81, 127
1, 634730, Note_off_c, 12, 83, 127
1, 634850, Note_on_c, 7, 79, 127
1, 634857, Note_off_c, 10, 81, 127
1, 635104, Note_on_c, 12, 59, 127
1, 635217, Note_off_c, 7, 79, 127
1, 635232, Note_on_c, 6, 78, 127
1, 635359, Note_on_c, 4, 76, 127
1, 635366, Note_off_c, 6, 78, 127
1, 635605, Note_off_c, 12, 59, 127
1, 635613, Note_on_c, 4, 64, 127
1, 635726, Note_off_c, 4, 76, 127
1, 635740, Note_on_c, 3, 75, 127
1, 635868, Note_on_c, 4, 76, 127
1, 635874, Note_off_c, 3, 75, 127
1, 636105, Note_off_c, 7, 55, 127
1, 636122, Note_on_c, 7, 55, 127
1, 636235, Note_off_c, 4, 76, 127
1, 636249, Note_on_c, 6, 78, 127
1, 636376, Note_on_c, 7, 79, 127
1, 636383, Note_off_c, 6, 78, 127
1, 636623, Note_off_c, 7, 55, 127
1, 636631, Note_on_c, 6, 54, 127
1, 636743, Note_off_c, 7, 79, 127
1, 636758, Note_on_c, 10, 81, 127
1, 636885, Note_on_c, 12, 83, 127
1, 636892, Note_off_c, 10, 81, 127
1, 637132, Note_off_c, 6, 54, 127
1, 637140, Note_on_c, 4, 52, 127
1, 637267, Note_on_c, 7, 79, 127
1, 637268, Note_off_c, 12, 83, 127
1, 637394, Note_on_c, 6, 78, 127
1, 637401, Note_off_c, 7, 79, 127
1, 637521, Note_on_c, 4, 76, 127
1, 637528, Note_off_c, 6, 78, 127
1, 637641, Note_off_c, 4, 52, 127
1, 637648, Note_on_c, 10, 81, 127
1, 637648, Note_on_c, 6, 54, 127
1, 637655, Note_off_c, 4, 76, 127
1, 637776, Note_on_c, 7, 79, 127
1, 637782, Note_off_c, 10, 81, 127
1, 637903, Note_on_c, 6, 78, 127
1, 637910, Note_off_c, 7, 79, 127
1, 638157, Note_on_c, 10, 57, 127
1, 638270, Note_off_c, 6, 78, 127
1, 638284, Note_on_c, 4, 76, 127
1, 638412, Note_on_c, 2, 74, 127
1, 638418, Note_off_c, 4, 76, 127
1, 638634, Note_off_c, 4, 64, 127
1, 638658, Note_off_c, 10, 57, 127
1, 638666, Note_on_c, 2, 62, 127
1, 638779, Note_off_c, 2, 74, 127
1, 638793, Note_on_c, 1, 73, 127
1, 638920, Note_on_c, 2, 74, 127
1, 638927, Note_off_c, 1, 73, 127
1, 639157, Note_off_c, 6, 54, 127
1, 639175, Note_on_c, 12, 59, 127
1, 639287, Note_off_c, 2, 74, 127
1, 639302, Note_on_c, 4, 76, 127
1, 639429, Note_on_c, 6, 78, 127
1, 639436, Note_off_c, 4, 76, 127
1, 639676, Note_off_c, 12, 59, 127
1, 639684, Note_on_c, 10, 57, 127
1, 639796, Note_off_c, 6, 78, 127
1, 639811, Note_on_c, 7, 79, 127
1, 639938, Note_on_c, 10, 81, 127
1, 639945, Note_off_c, 7, 79, 127
1, 640185, Note_off_c, 10, 57, 127
1, 640192, Note_on_c, 12, 59, 127
1, 640320, Note_on_c, 6, 78, 127
1, 640321, Note_off_c, 10, 81, 127
1, 640447, Note_on_c, 4, 76, 127
1, 640454, Note_off_c, 6, 78, 127
1, 640574, Note_on_c, 2, 74, 127
1, 640581, Note_off_c, 4, 76, 127
1, 640689, Note_off_c, 2, 74, 127
1, 640693, Note_off_c, 12, 59, 127
1, 640701, Note_on_c, 4, 52, 127
1, 640703, Note_on_c, 7, 79, 127
1, 640828, Note_on_c, 10, 81, 127
1, 640837, Note_off_c, 7, 79, 127
1, 640956, Note_on_c, 12, 83, 127
1, 640962, Note_off_c, 10, 81, 127
1, 641083, Note_on_c, 10, 81, 127
1, 641090, Note_off_c, 12, 83, 127
1, 641183, Note_off_c, 2, 62, 127
1, 641210, Note_on_c, 7, 79, 127
1, 641210, Note_on_c, 12, 59, 127
1, 641217, Note_off_c, 10, 81, 127
1, 641464, Note_on_c, 6, 78, 127
1, 641467, Note_off_c, 7, 79, 127
1, 641710, Note_off_c, 6, 78, 127
1, 641710, Note_off_c, 12, 59, 127
1, 641718, Note_on_c, 7, 55, 127
1, 641720, Note_on_c, 4, 76, 127
1, 641845, Note_on_c, 6, 78, 127
1, 641854, Note_off_c, 4, 76, 127
1, 641972, Note_on_c, 7, 79, 127
1, 641979, Note_off_c, 6, 78, 127
1, 642099, Note_on_c, 6, 78, 127
1, 642106, Note_off_c, 7, 79, 127
1, 642209, Note_off_c, 4, 52, 127
1, 642226, Note_on_c, 4, 76, 127
1, 642226, Note_on_c, 6, 54, 127
1, 642233, Note_off_c, 6, 78, 127
1, 642481, Note_on_c, 2, 74, 127
1, 642483, Note_off_c, 4, 76, 127
1, 642722, Note_off_c, 2, 74, 127
1, 642727, Note_off_c, 6, 54, 127
1, 642735, Note_on_c, 4, 52, 127
1, 642737, Note_on_c, 1, 73, 127
1, 642862, Note_on_c, 2, 74, 127
1, 642871, Note_off_c, 1, 73, 127
1, 642990, Note_on_c, 4, 76, 127
1, 642996, Note_off_c, 2, 74, 127
1, 643117, Note_on_c, 2, 74, 127
1, 643124, Note_off_c, 4, 76, 127
1, 643236, Note_off_c, 4, 52, 127
1, 643244, Note_on_c, 1, 73, 127
1, 643244, Note_on_c, 2, 50, 127
1, 643251, Note_off_c, 2, 74, 127
1, 643498, Note_on_c, 12, 71, 127
1, 643501, Note_off_c, 1, 73, 127
1, 643744, Note_off_c, 2, 50, 127
1, 643752, Note_on_c, 1, 49, 127
1, 643982, Note_off_c, 7, 55, 127
1, 644006, Note_on_c, 10, 57, 127
1, 644048, Note_off_c, 12, 71, 127
1, 644091, Note_on_c, 10, 69, 127
1, 644176, Note_on_c, 12, 71, 127
1, 644183, Note_off_c, 10, 69, 127
1, 644255, Note_off_c, 10, 57, 127
1, 644261, Note_on_c, 10, 69, 127
1, 644261, Note_on_c, 7, 55, 127
1, 644268, Note_off_c, 12, 71, 127
1, 644345, Note_on_c, 12, 71, 127
1, 644353, Note_off_c, 10, 69, 127
1, 644430, Note_on_c, 10, 69, 127
1, 644437, Note_off_c, 12, 71, 127
1, 644510, Note_off_c, 7, 55, 127
1, 644515, Note_on_c, 12, 71, 127
1, 644515, Note_on_c, 6, 54, 127
1, 644522, Note_off_c, 10, 69, 127
1, 644600, Note_on_c, 10, 69, 127
1, 644607, Note_off_c, 12, 71, 127
1, 644685, Note_on_c, 12, 71, 127
1, 644692, Note_off_c, 10, 69, 127
1, 644764, Note_off_c, 6, 54, 127
1, 644769, Note_on_c, 10, 69, 127
1, 644769, Note_on_c, 7, 55, 127
1, 644777, Note_off_c, 12, 71, 127
1, 645261, Note_off_c, 1, 49, 127
1, 645278, Note_on_c, 4, 52, 127
1, 645404, Note_off_c, 10, 69, 127
1, 645405, Note_on_c, 1, 73, 127
1, 645533, Note_on_c, 12, 71, 127
1, 645539, Note_off_c, 1, 73, 127
1, 645660, Note_on_c, 10, 69, 127
1, 645667, Note_off_c, 12, 71, 127
1, 645779, Note_off_c, 4, 52, 127
1, 645787, Note_on_c, 12, 71, 127
1, 645787, Note_on_c, 10, 45, 127
1, 645794, Note_off_c, 10, 69, 127
1, 645914, Note_on_c, 1, 73, 127
1, 645921, Note_off_c, 12, 71, 127
1, 646041, Note_on_c, 2, 74, 127
1, 646048, Note_off_c, 1, 73, 127
1, 646169, Note_on_c, 4, 76, 127
1, 646175, Note_off_c, 2, 74, 127
1, 646288, Note_off_c, 10, 45, 127
1, 646296, Note_on_c, 6, 78, 127
1, 646296, Note_on_c, 7, 43, 127
1, 646303, Note_off_c, 4, 76, 127
1, 646537, Note_off_c, 6, 78, 127
1, 646550, Note_on_c, 7, 79, 127
1, 646779, Note_off_c, 7, 55, 127
1, 646791, Note_off_c, 7, 79, 127
1, 646796, Note_off_c, 7, 43, 127
1, 646804, Note_on_c, 10, 81, 127
1, 646804, Note_on_c, 6, 42, 127
1, 646931, Note_on_c, 2, 74, 127
1, 647054, Note_off_c, 2, 74, 127
1, 647058, Note_on_c, 1, 73, 127
1, 647181, Note_off_c, 1, 73, 127
1, 647185, Note_on_c, 2, 74, 127
1, 647305, Note_off_c, 6, 42, 127
1, 647308, Note_off_c, 2, 74, 127
1, 647312, Note_on_c, 4, 76, 127
1, 647312, Note_on_c, 10, 57, 127
1, 647312, Note_on_c, 6, 54, 127
1, 647435, Note_off_c, 4, 76, 127
1, 647440, Note_on_c, 2, 74, 127
1, 647561, Note_off_c, 6, 54, 127
1, 647563, Note_off_c, 2, 74, 127
1, 647567, Note_on_c, 1, 73, 127
1, 647567, Note_on_c, 4, 52, 127
1, 647690, Note_off_c, 1, 73, 127
1, 647694, Note_on_c, 2, 74, 127
1, 647808, Note_off_c, 10, 81, 127
1, 647810, Note_off_c, 10, 57, 127
1, 647815, Note_off_c, 4, 52, 127
1, 647820, Note_on_c, 10, 69, 127
1, 647820, Note_on_c, 2, 62, 127
1, 647820, Note_on_c, 6, 54, 127
1, 647824, Note_off_c, 2, 74, 127
1, 647947, Note_on_c, 2, 74, 127
1, 648069, Note_off_c, 10, 69, 127
1, 648075, Note_on_c, 7, 67, 127
1, 648196, Note_off_c, 2, 74, 127
1, 648202, Note_on_c, 2, 74, 127
1, 648321, Note_off_c, 6, 54, 127
1, 648324, Note_off_c, 7, 67, 127
1, 648329, Note_on_c, 6, 66, 127
1, 648329, Note_on_c, 10, 57, 127
1, 648451, Note_off_c, 2, 74, 127
1, 648456, Note_on_c, 2, 74, 127
1, 648578, Note_off_c, 6, 66, 127
1, 648583, Note_on_c, 4, 64, 127
1, 648705, Note_off_c, 2, 74, 127
1, 648711, Note_on_c, 2, 74, 127
1, 648830, Note_off_c, 10, 57, 127
1, 648832, Note_off_c, 4, 64, 127
1, 648838, Note_on_c, 6, 66, 127
1, 648838, Note_on_c, 2, 50, 127
1, 648960, Note_off_c, 2, 74, 127
1, 648965, Note_on_c, 2, 74, 127
1, 649087, Note_off_c, 6, 66, 127
1, 649092, Note_on_c, 10, 69, 127
1, 649214, Note_off_c, 2, 74, 127
1, 649219, Note_on_c, 2, 74, 127
1, 649329, Note_off_c, 2, 62, 127
1, 649339, Note_off_c, 2, 50, 127
1, 649341, Note_off_c, 10, 69, 127
1, 649347, Note_on_c, 6, 66, 127
1, 649347, Note_on_c, 10, 57, 127
1, 649347, Note_on_c, 6, 54, 127
1, 649468, Note_off_c, 2, 74, 127
1, 649474, Note_on_c, 2, 74, 127
1, 649596, Note_off_c, 6, 66, 127
1, 649601, Note_on_c, 2, 62, 127
1, 649723, Note_off_c, 2, 74, 127
1, 649728, Note_on_c, 0, 72, 127
1, 649848, Note_off_c, 6, 54, 127
1, 649848, Note_off_c, 10, 57, 127
1, 649850, Note_off_c, 2, 62, 127
1, 649855, Note_on_c, 12, 71, 127
1, 649855, Note_on_c, 7, 55, 127
1, 649855, Note_on_c, 7, 43, 127
1, 649859, Note_off_c, 0, 72, 127
1, 649983, Note_on_c, 2, 74, 127
1, 650023, Note_off_c, 12, 71, 127
1, 650110, Note_on_c, 1, 73, 127
1, 650117, Note_off_c, 2, 74, 127
1, 650237, Note_on_c, 2, 74, 127
1, 650244, Note_off_c, 1, 73, 127
1, 650356, Note_off_c, 7, 43, 127
1, 650356, Note_off_c, 7, 55, 127
1, 650364, Note_on_c, 4, 76, 127
1, 650364, Note_on_c, 12, 59, 127
1, 650364, Note_on_c, 7, 55, 127
1, 650371, Note_off_c, 2, 74, 127
1, 650491, Note_on_c, 2, 74, 127
1, 650498, Note_off_c, 4, 76, 127
1, 650613, Note_off_c, 7, 55, 127
1, 650619, Note_on_c, 1, 73, 127
1, 650619, Note_on_c, 6, 54, 127
1, 650625, Note_off_c, 2, 74, 127
1, 650746, Note_on_c, 2, 74, 127
1, 650753, Note_off_c, 1, 73, 127
1, 650865, Note_off_c, 12, 59, 127
1, 650868, Note_off_c, 6, 54, 127
1, 650873, Note_on_c, 12, 71, 127
1, 650873, Note_on_c, 4, 64, 127
1, 650873, Note_on_c, 7, 55, 127
1, 650880, Note_off_c, 2, 74, 127
1, 651000, Note_on_c, 2, 74, 127
1, 651122, Note_off_c, 12, 71, 127
1, 651127, Note_on_c, 10, 69, 127
1, 651249, Note_off_c, 2, 74, 127
1, 651255, Note_on_c, 2, 74, 127
1, 651374, Note_off_c, 7, 55, 127
1, 651376, Note_off_c, 10, 69, 127
1, 651382, Note_on_c, 7, 67, 127
1, 651382, Note_on_c, 12, 59, 127
1, 651504, Note_off_c, 2, 74, 127
1, 651509, Note_on_c, 2, 74, 127
1, 651631, Note_off_c, 7, 67, 127
1, 651636, Note_on_c, 6, 66, 127
1, 651758, Note_off_c, 2, 74, 127
1, 651763, Note_on_c, 2, 74, 127
1, 651883, Note_off_c, 12, 59, 127
1, 651885, Note_off_c, 6, 66, 127
1, 651891, Note_on_c, 7, 67, 127
1, 651891, Note_on_c, 4, 52, 127
1, 652012, Note_off_c, 2, 74, 127
1, 652018, Note_on_c, 2, 74, 127
1, 652140, Note_off_c, 7, 67, 127
1, 652145, Note_on_c, 12, 71, 127
1, 652267, Note_off_c, 2, 74, 127
1, 652272, Note_on_c, 2, 74, 127
1, 652382, Note_off_c, 4, 64, 127
1, 652392, Note_off_c, 4, 52, 127
1, 652394, Note_off_c, 12, 71, 127
1, 652399, Note_on_c, 7, 67, 127
1, 652399, Note_on_c, 12, 59, 127
1, 652399, Note_on_c, 7, 55, 127
1, 652521, Note_off_c, 2, 74, 127
1, 652527, Note_on_c, 2, 74, 127
1, 652648, Note_off_c, 7, 67, 127
1, 652654, Note_on_c, 4, 64, 127
1, 652776, Note_off_c, 2, 74, 127
1, 652781, Note_on_c, 2, 74, 127
1, 652900, Note_off_c, 7, 55, 127
1, 652900, Note_off_c, 12, 59, 127
1, 652903, Note_off_c, 4, 64, 127
1, 652908, Note_on_c, 1, 73, 127
1, 652908, Note_on_c, 10, 57, 127
1, 652908, Note_on_c, 10, 45, 127
1, 652912, Note_off_c, 2, 74, 127
1, 653035, Note_on_c, 7, 67, 127
1, 653158, Note_off_c, 7, 67, 127
1, 653163, Note_on_c, 6, 66, 127
1, 653286, Note_off_c, 6, 66, 127
1, 653290, Note_on_c, 7, 67, 127
1, 653401, Note_off_c, 10, 57, 127
1, 653409, Note_off_c, 10, 45, 127
1, 653413, Note_off_c, 7, 67, 127
1, 653417, Note_on_c, 10, 69, 127
1, 653417, Note_on_c, 1, 61, 127
1, 653417, Note_on_c, 10, 57, 127
1, 653540, Note_off_c, 10, 69, 127
1, 653544, Note_on_c, 7, 67, 127
1, 653666, Note_off_c, 10, 57, 127
1, 653667, Note_off_c, 7, 67, 127
1, 653671, Note_on_c, 6, 66, 127
1, 653671, Note_on_c, 7, 55, 127
1, 653794, Note_off_c, 6, 66, 127
1, 653799, Note_on_c, 7, 67, 127
1, 653911, Note_off_c, 1, 73, 127
1, 653914, Note_off_c, 1, 61, 127
1, 653916, Note_off_c, 7, 67, 127
1, 653916, Note_off_c, 7, 55, 127
1, 653924, Note_on_c, 4, 76, 127
1, 653924, Note_on_c, 7, 67, 127
1, 653924, Note_on_c, 10, 57, 127
1, 654051, Note_on_c, 1, 73, 127
1, 654174, Note_off_c, 1, 73, 127
1, 654178, Note_on_c, 12, 71, 127
1, 654301, Note_off_c, 12, 71, 127
1, 654305, Note_on_c, 1, 73, 127
1, 654428, Note_off_c, 1, 73, 127
1, 654432, Note_on_c, 2, 74, 127
1, 654432, Note_on_c, 4, 64, 127
1, 654555, Note_off_c, 2, 74, 127
1, 654560, Note_on_c, 1, 73, 127
1, 654683, Note_off_c, 1, 73, 127
1, 654687, Note_on_c, 12, 71, 127
1, 654810, Note_off_c, 12, 71, 127
1, 654814, Note_on_c, 1, 73, 127
1, 654929, Note_off_c, 7, 67, 127
1, 654929, Note_off_c, 4, 76, 127
1, 654941, Note_on_c, 7, 79, 127
1, 654941, Note_on_c, 1, 61, 127
1, 654945, Note_off_c, 1, 73, 127
1, 655068, Note_on_c, 4, 76, 127
1, 655191, Note_off_c, 4, 76, 127
1, 655196, Note_on_c, 2, 74, 127
1, 655319, Note_off_c, 2, 74, 127
1, 655323, Note_on_c, 4, 76, 127
1, 655420, Note_off_c, 10, 57, 127
1, 655436, Note_off_c, 4, 64, 127
1, 655441, Note_off_c, 7, 79, 127
1, 655449, Note_on_c, 10, 81, 127
1, 655449, Note_on_c, 10, 57, 127
1, 655453, Note_off_c, 4, 76, 127
1, 655576, Note_on_c, 7, 79, 127
1, 655699, Note_off_c, 7, 79, 127
1, 655703, Note_on_c, 6, 78, 127
1, 655826, Note_off_c, 6, 78, 127
1, 655831, Note_on_c, 4, 76, 127
1, 655945, Note_off_c, 1, 61, 127
1, 655950, Note_off_c, 10, 57, 127
1, 655950, Note_off_c, 10, 81, 127
1, 655958, Note_on_c, 6, 78, 127
1, 655958, Note_on_c, 2, 62, 127
1, 655958, Note_on_c, 2, 50, 127
1, 655962, Note_off_c, 4, 76, 127
1, 656212, Note_on_c, 1, 73, 127
1, 656458, Note_off_c, 1, 73, 127
1, 656467, Note_on_c, 1, 73, 127
1, 656467, Note_on_c, 4, 52, 127
1, 656716, Note_off_c, 1, 73, 127
1, 656721, Note_on_c, 2, 74, 127
1, 656967, Note_off_c, 2, 74, 127
1, 656967, Note_off_c, 4, 52, 127
1, 656974, Note_on_c, 2, 74, 127
1, 656974, Note_on_c, 6, 54, 127
1, 657214, Note_off_c, 6, 78, 127
1, 657229, Note_on_c, 7, 67, 127
1, 657231, Note_off_c, 2, 74, 127
1, 657465, Note_off_c, 2, 62, 127
1, 657474, Note_off_c, 6, 54, 127
1, 657475, Note_off_c, 7, 67, 127
1, 657482, Note_on_c, 7, 67, 127
1, 657482, Note_on_c, 1, 61, 127
1, 657482, Note_on_c, 11, 58, 127
1, 657736, Note_on_c, 6, 66, 127
1, 657739, Note_off_c, 7, 67, 127
1, 657982, Note_off_c, 6, 66, 127
1, 657982, Note_off_c, 11, 58, 127
1, 657982, Note_off_c, 1, 61, 127
1, 657990, Note_on_c, 6, 66, 127
1, 657990, Note_on_c, 2, 62, 127
1, 657990, Note_on_c, 10, 57, 127
1, 658751, Note_off_c, 6, 66, 127
1, 658753, Note_on_c, 4, 76, 127
1, 658908, Note_off_c, 2, 62, 127
1, 658975, Note_off_c, 2, 50, 127
1, 658994, Note_off_c, 10, 57, 127
1, 658999, Note_off_c, 4, 76, 127
1, 659006, Note_on_c, 2, 62, 127
1, 659008, Note_on_c, 6, 78, 127
1, 659133, Note_on_c, 7, 79, 127
1, 659142, Note_off_c, 6, 78, 127
1, 659261, Note_on_c, 6, 78, 127
1, 659267, Note_off_c, 7, 79, 127
1, 659388, Note_on_c, 4, 76, 127
1, 659395, Note_off_c, 6, 78, 127
1, 659515, Note_on_c, 6, 78, 127
1, 659522, Note_off_c, 4, 76, 127
1, 659769, Note_on_c, 6, 66, 127
1, 660018, Note_off_c, 6, 66, 127
1, 660024, Note_on_c, 10, 69, 127
1, 660150, Note_off_c, 6, 78, 127
1, 660151, Note_on_c, 4, 76, 127
1, 660278, Note_on_c, 6, 78, 127
1, 660285, Note_off_c, 4, 76, 127
1, 660405, Note_on_c, 7, 79, 127
1, 660412, Note_off_c, 6, 78, 127
1, 660515, Note_off_c, 2, 62, 127
1, 660533, Note_on_c, 10, 81, 127
1, 660533, Note_on_c, 0, 60, 127
1, 660539, Note_off_c, 7, 79, 127
1, 660782, Note_off_c, 0, 60, 127
1, 660787, Note_on_c, 12, 83, 127
1, 660787, Note_on_c, 12, 59, 127
1, 660790, Note_off_c, 10, 81, 127
1, 661035, Note_off_c, 12, 59, 127
1, 661040, Note_on_c, 0, 84, 127
1, 661040, Note_on_c, 0, 60, 127
1, 661043, Note_off_c, 12, 83, 127
1, 661168, Note_on_c, 12, 83, 127
1, 661174, Note_off_c, 0, 84, 127
1, 661295, Note_on_c, 10, 81, 127
1, 661302, Note_off_c, 12, 83, 127
1, 661541, Note_off_c, 0, 60, 127
1, 661549, Note_on_c, 7, 79, 127
1, 661549, Note_on_c, 10, 57, 127
1, 661552, Note_off_c, 10, 81, 127
1, 661804, Note_on_c, 6, 78, 127
1, 661806, Note_off_c, 7, 79, 127
1, 662014, Note_off_c, 6, 78, 127
1, 662036, Note_off_c, 10, 69, 127
1, 662050, Note_off_c, 10, 57, 127
1, 662058, Note_on_c, 12, 59, 127
1, 662060, Note_on_c, 7, 79, 127
1, 662185, Note_on_c, 10, 81, 127
1, 662194, Note_off_c, 7, 79, 127
1, 662312, Note_on_c, 7, 79, 127
1, 662319, Note_off_c, 10, 81, 127
1, 662440, Note_on_c, 6, 78, 127
1, 662446, Note_off_c, 7, 79, 127
1, 662567, Note_on_c, 7, 79, 127
1, 662574, Note_off_c, 6, 78, 127
1, 662821, Note_on_c, 2, 62, 127
1, 663070, Note_off_c, 2, 62, 127
1, 663076, Note_on_c, 7, 67, 127
1, 663202, Note_off_c, 7, 79, 127
1, 663203, Note_on_c, 6, 66, 127
1, 663312, Note_off_c, 7, 67, 127
1, 663330, Note_on_c, 7, 67, 127
1, 663337, Note_off_c, 6, 66, 127
1, 663457, Note_on_c, 10, 69, 127
1, 663567, Note_off_c, 12, 59, 127
1, 663584, Note_on_c, 12, 71, 127
1, 663584, Note_on_c, 2, 62, 127
1, 663591, Note_off_c, 10, 69, 127
1, 663839, Note_on_c, 0, 72, 127
1, 663841, Note_off_c, 12, 71, 127
1, 664084, Note_off_c, 2, 62, 127
1, 664092, Note_on_c, 2, 74, 127
1, 664092, Note_on_c, 7, 55, 127
1, 664095, Note_off_c, 0, 72, 127
1, 664219, Note_on_c, 0, 72, 127
1, 664226, Note_off_c, 2, 74, 127
1, 664347, Note_on_c, 12, 71, 127
1, 664353, Note_off_c, 0, 72, 127
1, 664588, Note_off_c, 7, 67, 127
1, 664593, Note_off_c, 7, 55, 127
1, 664601, Note_on_c, 10, 69, 127
1, 664601, Note_on_c, 12, 59, 127
1, 664604, Note_off_c, 12, 71, 127
1, 664855, Note_on_c, 7, 67, 127
1, 664858, Note_off_c, 10, 69, 127
1, 665065, Note_off_c, 7, 67, 127
1, 665102, Note_off_c, 12, 59, 127
1, 665110, Note_on_c, 0, 60, 127
1, 665112, Note_on_c, 4, 76, 127
1, 665237, Note_on_c, 5, 77, 127
1, 665246, Note_off_c, 4, 76, 127
1, 665364, Note_on_c, 4, 76, 127
1, 665371, Note_off_c, 5, 77, 127
1, 665491, Note_on_c, 3, 75, 127
1, 665498, Note_off_c, 4, 76, 127
1, 665619, Note_on_c, 4, 76, 127
1, 665625, Note_off_c, 3, 75, 127
1, 665873, Note_on_c, 8, 68, 127
1, 666122, Note_off_c, 8, 68, 127
1, 666127, Note_on_c, 10, 69, 127
1, 666327, Note_off_c, 4, 76, 127
1, 666382, Note_on_c, 8, 80, 127
1, 666618, Note_off_c, 0, 60, 127
1, 666627, Note_off_c, 10, 69, 127
1, 666628, Note_off_c, 8, 80, 127
1, 666635, Note_on_c, 8, 80, 127
1, 666635, Note_on_c, 2, 62, 127
1, 666635, Note_on_c, 12, 59, 127
1, 666890, Note_on_c, 10, 81, 127
1, 666892, Note_off_c, 8, 80, 127
1, 667135, Note_off_c, 12, 59, 127
1, 667135, Note_off_c, 2, 62, 127
1, 667136, Note_off_c, 10, 81, 127
1, 667143, Note_on_c, 10, 81, 127
1, 667143, Note_on_c, 4, 64, 127
1, 667143, Note_on_c, 0, 60, 127
1, 667397, Note_on_c, 12, 83, 127
1, 667400, Note_off_c, 10, 81, 127
1, 667643, Note_off_c, 12, 83, 127
1, 667643, Note_off_c, 0, 60, 127
1, 667643, Note_off_c, 4, 64, 127
1, 667651, Note_on_c, 12, 83, 127
1, 667651, Note_on_c, 7, 67, 127
1, 667651, Note_on_c, 10, 57, 127
1, 667905, Note_on_c, 0, 84, 127
1, 667908, Note_off_c, 12, 83, 127
1, 668115, Note_off_c, 0, 84, 127
1, 668152, Note_off_c, 10, 57, 127
1, 668159, Note_on_c, 12, 59, 127
1, 668162, Note_on_c, 4, 76, 127
1, 668297, Note_on_c, 3, 75, 127
1, 668304, Note_off_c, 4, 76, 127
1, 668435, Note_on_c, 1, 73, 127
1, 668438, Note_off_c, 3, 75, 127
1, 668656, Note_off_c, 7, 67, 127
1, 668658, Note_off_c, 1, 73, 127
1, 668668, Note_on_c, 3, 75, 127
1, 668668, Note_on_c, 6, 66, 127
1, 668795, Note_on_c, 1, 73, 127
1, 668802, Note_off_c, 3, 75, 127
1, 668917, Note_off_c, 6, 66, 127
1, 668923, Note_on_c, 3, 75, 127
1, 668923, Note_on_c, 4, 64, 127
1, 668929, Note_off_c, 1, 73, 127
1, 669172, Note_off_c, 4, 64, 127
1, 669177, Note_on_c, 6, 66, 127
1, 669668, Note_off_c, 12, 59, 127
1, 669686, Note_on_c, 12, 47, 127
1, 669799, Note_off_c, 3, 75, 127
1, 669813, Note_on_c, 3, 75, 127
1, 669940, Note_on_c, 4, 76, 127
1, 669947, Note_off_c, 3, 75, 127
1, 670067, Note_on_c, 6, 78, 127
1, 670074, Note_off_c, 4, 76, 127
1, 670187, Note_off_c, 12, 47, 127
1, 670195, Note_on_c, 4, 76, 127
1, 670195, Note_on_c, 1, 49, 127
1, 670201, Note_off_c, 6, 78, 127
1, 670322, Note_on_c, 3, 75, 127
1, 670329, Note_off_c, 4, 76, 127
1, 670449, Note_on_c, 1, 73, 127
1, 670456, Note_off_c, 3, 75, 127
1, 670576, Note_on_c, 12, 71, 127
1, 670583, Note_off_c, 1, 73, 127
1, 670696, Note_off_c, 1, 49, 127
1, 670703, Note_on_c, 10, 69, 127
1, 670703, Note_on_c, 3, 51, 127
1, 670710, Note_off_c, 12, 71, 127
1, 670831, Note_on_c, 7, 67, 127
1, 670949, Note_off_c, 10, 69, 127
1, 670958, Note_on_c, 10, 69, 127
1, 670965, Note_off_c, 7, 67, 127
1, 671085, Note_on_c, 6, 78, 127
1, 671187, Note_off_c, 6, 66, 127
1, 671203, Note_off_c, 3, 51, 127
1, 671206, Note_off_c, 10, 69, 127
1, 671211, Note_on_c, 7, 67, 127
1, 671211, Note_on_c, 4, 40, 127
1, 671218, Note_off_c, 6, 78, 127
1, 671338, Note_on_c, 4, 76, 127
1, 671460, Note_off_c, 7, 67, 127
1, 671466, Note_on_c, 3, 75, 127
1, 671472, Note_off_c, 4, 76, 127
1, 671593, Note_on_c, 4, 76, 127
1, 671600, Note_off_c, 3, 75, 127
1, 671712, Note_off_c, 4, 40, 127
1, 671720, Note_on_c, 5, 77, 127
1, 671720, Note_on_c, 12, 59, 127
1, 671720, Note_on_c, 7, 55, 127
1, 671727, Note_off_c, 4, 76, 127
1, 671847, Note_on_c, 4, 76, 127
1, 671854, Note_off_c, 5, 77, 127
1, 671969, Note_off_c, 7, 55, 127
1, 671974, Note_on_c, 3, 75, 127
1, 671974, Note_on_c, 10, 57, 127
1, 671981, Note_off_c, 4, 76, 127
1, 672102, Note_on_c, 4, 76, 127
1, 672108, Note_off_c, 3, 75, 127
1, 672223, Note_off_c, 10, 57, 127
1, 672229, Note_on_c, 6, 78, 127
1, 672229, Note_on_c, 7, 55, 127
1, 672236, Note_off_c, 4, 76, 127
1, 672356, Note_on_c, 4, 76, 127
1, 672478, Note_off_c, 6, 78, 127
1, 672483, Note_on_c, 7, 79, 127
1, 672605, Note_off_c, 4, 76, 127
1, 672610, Note_on_c, 4, 76, 127
1, 672725, Note_off_c, 12, 59, 127
1, 672730, Note_off_c, 7, 55, 127
1, 672732, Note_off_c, 7, 79, 127
1, 672738, Note_on_c, 10, 81, 127
1, 672738, Note_on_c, 10, 57, 127
1, 672738, Note_on_c, 6, 54, 127
1, 672859, Note_off_c, 4, 76, 127
1, 672865, Note_on_c, 4, 76, 127
1, 672987, Note_off_c, 10, 81, 127
1, 672992, Note_on_c, 12, 83, 127
1, 673114, Note_off_c, 4, 76, 127
1, 673119, Note_on_c, 4, 76, 127
1, 673239, Note_off_c, 6, 54, 127
1, 673241, Note_off_c, 12, 83, 127
1, 673246, Note_on_c, 0, 84, 127
1, 673246, Note_on_c, 4, 52, 127
1, 673368, Note_off_c, 4, 76, 127
1, 673374, Note_on_c, 4, 76, 127
1, 673495, Note_off_c, 0, 84, 127
1, 673501, Note_on_c, 2, 86, 127
1, 673623, Note_off_c, 4, 76, 127
1, 673628, Note_on_c, 4, 76, 127
1, 673743, Note_off_c, 10, 57, 127
1, 673750, Note_off_c, 2, 86, 127
1, 673755, Note_on_c, 0, 84, 127
1, 673755, Note_on_c, 8, 56, 127
1, 673877, Note_off_c, 4, 76, 127
1, 673882, Note_on_c, 4, 76, 127
1, 674004, Note_off_c, 0, 84, 127
1, 674010, Note_on_c, 12, 83, 127
1, 674131, Note_off_c, 4, 76, 127
1, 674137, Note_on_c, 4, 76, 127
1, 674250, Note_off_c, 4, 52, 127
1, 674253, Note_off_c, 8, 56, 127
1, 674258, Note_off_c, 12, 83, 127
1, 674263, Note_on_c, 0, 84, 127
1, 674263, Note_on_c, 10, 45, 127
1, 674385, Note_off_c, 4, 76, 127
1, 674390, Note_on_c, 4, 76, 127
1, 674512, Note_off_c, 0, 84, 127
1, 674517, Note_on_c, 3, 75, 127
1, 674524, Note_off_c, 4, 76, 127
1, 674644, Note_on_c, 4, 76, 127
1, 674651, Note_off_c, 3, 75, 127
1, 674764, Note_off_c, 10, 45, 127
1, 674772, Note_on_c, 5, 77, 127
1, 674772, Note_on_c, 0, 60, 127
1, 674772, Note_on_c, 10, 57, 127
1, 674778, Note_off_c, 4, 76, 127
1, 674899, Note_on_c, 4, 76, 127
1, 674906, Note_off_c, 5, 77, 127
1, 675021, Note_off_c, 10, 57, 127
1, 675026, Note_on_c, 3, 75, 127
1, 675026, Note_on_c, 7, 55, 127
1, 675033, Note_off_c, 4, 76, 127
1, 675153, Note_on_c, 4, 76, 127
1, 675160, Note_off_c, 3, 75, 127
1, 675275, Note_off_c, 7, 55, 127
1, 675280, Note_on_c, 0, 84, 127
1, 675280, Note_on_c, 10, 57, 127
1, 675287, Note_off_c, 4, 76, 127
1, 675408, Note_on_c, 4, 76, 127
1, 675529, Note_off_c, 0, 84, 127
1, 675535, Note_on_c, 12, 83, 127
1, 675657, Note_off_c, 4, 76, 127
1, 675662, Note_on_c, 4, 76, 127
1, 675777, Note_off_c, 0, 60, 127
1, 675781, Note_off_c, 10, 57, 127
1, 675784, Note_off_c, 12, 83, 127
1, 675789, Note_on_c, 10, 81, 127
1, 675789, Note_on_c, 4, 64, 127
1, 675789, Note_on_c, 0, 60, 127
1, 675911, Note_off_c, 4, 76, 127
1, 675916, Note_on_c, 4, 76, 127
1, 676038, Note_off_c, 10, 81, 127
1, 676044, Note_on_c, 7, 79, 127
1, 676165, Note_off_c, 4, 76, 127
1, 676171, Note_on_c, 4, 76, 127
1, 676290, Note_off_c, 0, 60, 127
1, 676290, Note_off_c, 4, 64, 127
1, 676293, Note_off_c, 7, 79, 127
1, 676298, Note_on_c, 6, 78, 127
1, 676298, Note_on_c, 0, 60, 127
1, 676298, Note_on_c, 10, 57, 127
1, 676420, Note_off_c, 4, 76, 127
1, 676425, Note_on_c, 4, 76, 127
1, 676547, Note_off_c, 6, 78, 127
1, 676552, Note_on_c, 7, 79, 127
1, 676674, Note_off_c, 4, 76, 127
1, 676680, Note_on_c, 4, 76, 127
1, 676796, Note_off_c, 10, 57, 127
1, 676798, Note_off_c, 0, 60, 127
1, 676800, Note_off_c, 7, 79, 127
1, 676806, Note_on_c, 10, 81, 127
1, 676806, Note_on_c, 10, 57, 127
1, 676806, Note_on_c, 6, 54, 127
1, 676928, Note_off_c, 4, 76, 127
1, 676933, Note_on_c, 4, 76, 127
1, 677055, Note_off_c, 10, 81, 127
1, 677060, Note_on_c, 3, 75, 127
1, 677064, Note_off_c, 4, 76, 127
1, 677187, Note_on_c, 1, 73, 127
1, 677191, Note_off_c, 3, 75, 127
1, 677306, Note_off_c, 6, 54, 127
1, 677314, Note_on_c, 3, 75, 127
1, 677314, Note_on_c, 12, 47, 127
1, 677317, Note_off_c, 1, 73, 127
1, 677441, Note_on_c, 10, 81, 127
1, 677563, Note_off_c, 3, 75, 127
1, 677568, Note_on_c, 7, 79, 127
1, 677575, Note_off_c, 10, 81, 127
1, 677695, Note_on_c, 10, 81, 127
1, 677702, Note_off_c, 7, 79, 127
1, 677724, Note_off_c, 10, 57, 127
1, 677815, Note_off_c, 12, 47, 127
1, 677822, Note_on_c, 12, 83, 127
1, 677822, Note_on_c, 6, 54, 127
1, 677822, Note_on_c, 3, 51, 127
1, 677829, Note_off_c, 10, 81, 127
1, 677950, Note_on_c, 10, 81, 127
1, 677956, Note_off_c, 12, 83, 127
1, 678077, Note_on_c, 7, 79, 127
1, 678084, Note_off_c, 10, 81, 127
1, 678204, Note_on_c, 10, 81, 127
1, 678211, Note_off_c, 7, 79, 127
1, 678323, Note_off_c, 3, 51, 127
1, 678323, Note_off_c, 6, 54, 127
1, 678331, Note_on_c, 12, 71, 127
1, 678331, Note_on_c, 7, 55, 127
1, 678331, Note_on_c, 4, 52, 127
1, 678338, Note_off_c, 10, 81, 127
1, 678458, Note_on_c, 7, 79, 127
1, 678580, Note_off_c, 12, 71, 127
1, 678586, Note_on_c, 6, 78, 127
1, 678592, Note_off_c, 7, 79, 127
1, 678713, Note_on_c, 7, 79, 127
1, 678720, Note_off_c, 6, 78, 127
1, 678832, Note_off_c, 4, 52, 127
1, 678832, Note_off_c, 7, 55, 127
1, 678840, Note_on_c, 10, 81, 127
1, 678840, Note_on_c, 4, 64, 127
1, 678840, Note_on_c, 7, 55, 127
1, 678847, Note_off_c, 7, 79, 127
1, 678967, Note_on_c, 7, 79, 127
1, 678974, Note_off_c, 10, 81, 127
1, 679094, Note_on_c, 6, 78, 127
1, 679101, Note_off_c, 7, 79, 127
1, 679222, Note_on_c, 7, 79, 127
1, 679228, Note_off_c, 6, 78, 127
1, 679341, Note_off_c, 7, 55, 127
1, 679349, Note_on_c, 10, 69, 127
1, 679349, Note_on_c, 12, 59, 127
1, 679356, Note_off_c, 7, 79, 127
1, 679476, Note_on_c, 6, 78, 127
1, 679603, Note_on_c, 4, 76, 127
1, 679610, Note_off_c, 6, 78, 127
1, 679727, Note_off_c, 10, 69, 127
1, 679730, Note_on_c, 6, 78, 127
1, 679737, Note_off_c, 4, 76, 127
1, 679845, Note_off_c, 4, 64, 127
1, 679858, Note_on_c, 7, 79, 127
1, 679858, Note_on_c, 3, 63, 127
1, 679864, Note_off_c, 6, 78, 127
1, 679985, Note_on_c, 10, 81, 127
1, 679992, Note_off_c, 7, 79, 127
1, 680112, Note_on_c, 7, 79, 127
1, 680119, Note_off_c, 10, 81, 127
1, 680239, Note_on_c, 6, 78, 127
1, 680246, Note_off_c, 7, 79, 127
1, 680354, Note_off_c, 12, 59, 127
1, 680359, Note_off_c, 3, 63, 127
1, 680366, Note_on_c, 7, 79, 127
1, 680366, Note_on_c, 4, 64, 127
1, 680366, Note_on_c, 4, 52, 127
1, 680373, Note_off_c, 6, 78, 127
1, 680621, Note_on_c, 3, 75, 127
1, 680623, Note_off_c, 7, 79, 127
1, 680866, Note_off_c, 4, 64, 127
1, 680867, Note_off_c, 3, 75, 127
1, 680874, Note_on_c, 3, 75, 127
1, 680874, Note_on_c, 6, 54, 127
1, 681128, Note_on_c, 4, 76, 127
1, 681131, Note_off_c, 3, 75, 127
1, 681374, Note_off_c, 4, 76, 127
1, 681374, Note_off_c, 6, 54, 127
1, 681382, Note_on_c, 4, 76, 127
1, 681382, Note_on_c, 7, 55, 127
1, 681636, Note_on_c, 10, 69, 127
1, 681639, Note_off_c, 4, 76, 127
1, 681882, Note_off_c, 10, 69, 127
1, 681882, Note_off_c, 7, 55, 127
1, 681890, Note_on_c, 10, 69, 127
1, 681890, Note_on_c, 3, 63, 127
1, 681890, Note_on_c, 0, 60, 127
1, 682144, Note_on_c, 7, 67, 127
1, 682147, Note_off_c, 10, 69, 127
1, 682390, Note_off_c, 7, 67, 127
1, 682390, Note_off_c, 0, 60, 127
1, 682390, Note_off_c, 3, 63, 127
1, 682397, Note_on_c, 7, 67, 127
1, 682397, Note_on_c, 4, 64, 127
1, 682397, Note_on_c, 12, 59, 127
1, 682503, Note_on_c, 6, 66, 127
1, 682580, Note_off_c, 7, 67, 127
1, 682604, Note_off_c, 6, 66, 127
1, 682608, Note_on_c, 7, 67, 127
1, 682877, Note_off_c, 4, 52, 127
1, 682886, Note_off_c, 7, 67, 127
1, 682904, Note_on_c, 2, 50, 127
1, 683031, Note_on_c, 12, 71, 127
1, 683158, Note_on_c, 0, 72, 127
1, 683165, Note_off_c, 12, 71, 127
1, 683286, Note_on_c, 2, 74, 127
1, 683292, Note_off_c, 0, 72, 127
1, 683400, Note_off_c, 12, 59, 127
1, 683400, Note_off_c, 4, 64, 127
1, 683405, Note_off_c, 2, 50, 127
1, 683407, Note_off_c, 2, 74, 127
1, 683413, Note_on_c, 0, 48, 127
1, 683415, Note_on_c, 4, 76, 127
1, 683540, Note_on_c, 5, 77, 127
1, 683549, Note_off_c, 4, 76, 127
1, 683667, Note_on_c, 4, 76, 127
1, 683674, Note_off_c, 5, 77, 127
1, 683794, Note_on_c, 3, 75, 127
1, 683801, Note_off_c, 4, 76, 127
1, 683922, Note_on_c, 4, 76, 127
1, 683928, Note_off_c, 3, 75, 127
1, 684176, Note_on_c, 7, 55, 127
1, 684425, Note_off_c, 7, 55, 127
1, 684430, Note_on_c, 0, 60, 127
1, 684679, Note_off_c, 0, 60, 127
1, 684683, Note_off_c, 4, 76, 127
1, 684685, Note_on_c, 10, 69, 127
1, 684685, Note_on_c, 2, 62, 127
1, 684921, Note_off_c, 0, 48, 127
1, 684933, Note_off_c, 2, 62, 127
1, 684938, Note_on_c, 12, 71, 127
1, 684938, Note_on_c, 4, 64, 127
1, 684938, Note_on_c, 0, 60, 127
1, 684941, Note_off_c, 10, 69, 127
1, 685065, Note_on_c, 10, 69, 127
1, 685072, Note_off_c, 12, 71, 127
1, 685193, Note_on_c, 7, 67, 127
1, 685199, Note_off_c, 10, 69, 127
1, 685439, Note_off_c, 0, 60, 127
1, 685439, Note_off_c, 4, 64, 127
1, 685447, Note_on_c, 10, 69, 127
1, 685447, Note_on_c, 2, 62, 127
1, 685447, Note_on_c, 12, 59, 127
1, 685450, Note_off_c, 7, 67, 127
1, 685574, Note_on_c, 7, 67, 127
1, 685581, Note_off_c, 10, 69, 127
1, 685701, Note_on_c, 6, 66, 127
1, 685708, Note_off_c, 7, 67, 127
1, 685948, Note_off_c, 6, 66, 127
1, 685948, Note_off_c, 12, 59, 127
1, 685948, Note_off_c, 2, 62, 127
1, 685956, Note_on_c, 6, 66, 127
1, 685956, Note_on_c, 1, 61, 127
1, 685956, Note_on_c, 11, 58, 127
1, 686210, Note_on_c, 4, 76, 127
1, 686213, Note_off_c, 6, 66, 127
1, 686420, Note_off_c, 4, 76, 127
1, 686457, Note_off_c, 11, 58, 127
1, 686457, Note_off_c, 1, 61, 127
1, 686465, Note_on_c, 12, 59, 127
1, 686467, Note_on_c, 2, 74, 127
1, 686592, Note_on_c, 4, 76, 127
1, 686601, Note_off_c, 2, 74, 127
1, 686719, Note_on_c, 2, 74, 127
1, 686726, Note_off_c, 4, 76, 127
1, 686846, Note_on_c, 1, 73, 127
1, 686853, Note_off_c, 2, 74, 127
1, 686973, Note_on_c, 2, 74, 127
1, 686973, Note_on_c, 12, 47, 127
1, 686980, Note_off_c, 1, 73, 127
1, 687218, Note_off_c, 12, 59, 127
1, 687228, Note_on_c, 6, 54, 127
1, 687477, Note_off_c, 6, 54, 127
1, 687482, Note_on_c, 12, 59, 127
1, 687731, Note_off_c, 12, 59, 127
1, 687734, Note_off_c, 2, 74, 127
1, 687737, Note_on_c, 7, 67, 127
1, 687737, Note_on_c, 0, 60, 127
1, 687977, Note_off_c, 12, 47, 127
1, 687985, Note_off_c, 0, 60, 127
1, 687990, Note_on_c, 10, 69, 127
1, 687990, Note_on_c, 2, 62, 127
1, 687990, Note_on_c, 12, 59, 127
1, 687993, Note_off_c, 7, 67, 127
1, 688117, Note_on_c, 7, 67, 127
1, 688124, Note_off_c, 10, 69, 127
1, 688244, Note_on_c, 5, 65, 127
1, 688251, Note_off_c, 7, 67, 127
1, 688491, Note_off_c, 12, 59, 127
1, 688491, Note_off_c, 2, 62, 127
1, 688499, Note_on_c, 7, 67, 127
1, 688499, Note_on_c, 0, 60, 127
1, 688499, Note_on_c, 10, 57, 127
1, 688501, Note_off_c, 5, 65, 127
1, 688626, Note_on_c, 5, 65, 127
1, 688633, Note_off_c, 7, 67, 127
1, 688753, Note_on_c, 4, 64, 127
1, 688760, Note_off_c, 5, 65, 127
1, 689000, Note_off_c, 4, 64, 127
1, 689000, Note_off_c, 10, 57, 127
1, 689000, Note_off_c, 0, 60, 127
1, 689007, Note_on_c, 4, 64, 127
1, 689007, Note_on_c, 12, 59, 127
1, 689007, Note_on_c, 8, 56, 127
1, 689262, Note_on_c, 2, 74, 127
1, 689264, Note_off_c, 4, 64, 127
1, 689485, Note_off_c, 2, 74, 127
1, 689508, Note_off_c, 8, 56, 127
1, 689508, Note_off_c, 12, 59, 127
1, 689516, Note_on_c, 10, 57, 127
1, 689518, Note_on_c, 0, 72, 127
1, 689643, Note_on_c, 12, 71, 127
1, 689652, Note_off_c, 0, 72, 127
1, 689771, Note_on_c, 10, 69, 127
1, 689777, Note_off_c, 12, 71, 127
1, 690017, Note_off_c, 10, 57, 127
1, 690025, Note_on_c, 4, 52, 127
1, 690025, Note_on_c, 10, 45, 127
1, 690138, Note_off_c, 10, 69, 127
1, 690152, Note_on_c, 7, 67, 127
1, 690279, Note_on_c, 6, 66, 127
1, 690286, Note_off_c, 7, 67, 127
1, 690526, Note_off_c, 4, 52, 127
1, 690534, Note_on_c, 10, 57, 127
1, 690646, Note_off_c, 6, 66, 127
1, 690661, Note_on_c, 4, 64, 127
1, 690788, Note_on_c, 2, 62, 127
1, 690795, Note_off_c, 4, 64, 127
1, 691022, Note_off_c, 10, 45, 127
1, 691035, Note_off_c, 10, 57, 127
1, 691043, Note_on_c, 0, 60, 127
1, 691155, Note_off_c, 2, 62, 127
1, 691170, Note_on_c, 4, 64, 127
1, 691297, Note_on_c, 6, 66, 127
1, 691304, Note_off_c, 4, 64, 127
1, 691544, Note_off_c, 0, 60, 127
1, 691551, Note_on_c, 10, 57, 127
1, 691664, Note_off_c, 6, 66, 127
1, 691679, Note_on_c, 7, 67, 127
1, 691806, Note_on_c, 10, 69, 127
1, 691813, Note_off_c, 7, 67, 127
1, 692052, Note_off_c, 10, 57, 127
1, 692060, Note_on_c, 6, 54, 127
1, 692173, Note_off_c, 10, 69, 127
1, 692187, Note_on_c, 12, 71, 127
1, 692315, Note_on_c, 0, 72, 127
1, 692321, Note_off_c, 12, 71, 127
1, 692561, Note_off_c, 6, 54, 127
1, 692569, Note_on_c, 2, 50, 127
1, 692682, Note_off_c, 0, 72, 127
1, 692696, Note_on_c, 2, 74, 127
1, 692823, Note_on_c, 0, 72, 127
1, 692830, Note_off_c, 2, 74, 127
1, 692951, Note_on_c, 12, 71, 127
1, 692957, Note_off_c, 0, 72, 127
1, 693078, Note_on_c, 0, 72, 127
1, 693078, Note_on_c, 10, 45, 127
1, 693085, Note_off_c, 12, 71, 127
1, 693205, Note_on_c, 7, 79, 127
1, 693212, Note_off_c, 0, 72, 127
1, 693332, Note_on_c, 6, 78, 127
1, 693339, Note_off_c, 7, 79, 127
1, 693459, Note_on_c, 4, 76, 127
1, 693466, Note_off_c, 6, 78, 127
1, 693579, Note_off_c, 10, 45, 127
1, 693587, Note_on_c, 6, 78, 127
1, 693587, Note_on_c, 2, 38, 127
1, 693593, Note_off_c, 4, 76, 127
1, 693714, Note_on_c, 12, 83, 127
1, 693721, Note_off_c, 6, 78, 127
1, 693841, Note_on_c, 10, 81, 127
1, 693848, Note_off_c, 12, 83, 127
1, 693968, Note_on_c, 7, 79, 127
1, 693975, Note_off_c, 10, 81, 127
1, 694088, Note_off_c, 2, 38, 127
1, 694095, Note_on_c, 10, 81, 127
1, 694095, Note_on_c, 6, 42, 127
1, 694102, Note_off_c, 7, 79, 127
1, 694223, Note_on_c, 2, 86, 127
1, 694229, Note_off_c, 10, 81, 127
1, 694350, Note_on_c, 0, 84, 127
1, 694357, Note_off_c, 2, 86, 127
1, 694477, Note_on_c, 12, 83, 127
1, 694484, Note_off_c, 0, 84, 127
1, 694596, Note_off_c, 6, 42, 127
1, 694604, Note_on_c, 0, 84, 127
1, 694604, Note_on_c, 10, 45, 127
1, 694611, Note_off_c, 12, 83, 127
1, 694731, Note_on_c, 12, 83, 127
1, 694738, Note_off_c, 0, 84, 127
1, 694859, Note_on_c, 10, 81, 127
1, 694865, Note_off_c, 12, 83, 127
1, 694986, Note_on_c, 7, 79, 127
1, 694993, Note_off_c, 10, 81, 127
1, 695086, Note_off_c, 2, 50, 127
1, 695105, Note_off_c, 10, 45, 127
1, 695113, Note_on_c, 6, 78, 127
1, 695113, Note_on_c, 2, 50, 127
1, 695120, Note_off_c, 7, 79, 127
1, 695240, Note_on_c, 4, 76, 127
1, 695247, Note_off_c, 6, 78, 127
1, 695367, Note_on_c, 2, 74, 127
1, 695374, Note_off_c, 4, 76, 127
1, 695495, Note_on_c, 0, 72, 127
1, 695501, Note_off_c, 2, 74, 127
1, 695622, Note_on_c, 12, 71, 127
1, 695622, Note_on_c, 7, 43, 127
1, 695629, Note_off_c, 0, 72, 127
1, 695749, Note_on_c, 7, 79, 127
1, 695769, Note_off_c, 2, 50, 127
1, 695870, Note_off_c, 12, 71, 127
1, 695875, Note_on_c, 6, 78, 127
1, 695882, Note_off_c, 7, 79, 127
1, 696002, Note_on_c, 7, 79, 127
1, 696009, Note_off_c, 6, 78, 127
1, 696093, Note_off_c, 7, 43, 127
1, 696130, Note_on_c, 10, 81, 127
1, 696130, Note_on_c, 4, 64, 127
1, 696130, Note_on_c, 7, 55, 127
1, 696136, Note_off_c, 7, 79, 127
1, 696257, Note_on_c, 7, 79, 127
1, 696264, Note_off_c, 10, 81, 127
1, 696384, Note_on_c, 6, 78, 127
1, 696391, Note_off_c, 7, 79, 127
1, 696511, Note_on_c, 7, 79, 127
1, 696518, Note_off_c, 6, 78, 127
1, 696631, Note_off_c, 7, 55, 127
1, 696631, Note_off_c, 4, 64, 127
1, 696638, Note_on_c, 0, 72, 127
1, 696638, Note_on_c, 3, 63, 127
1, 696638, Note_on_c, 10, 57, 127
1, 696645, Note_off_c, 7, 79, 127
1, 696766, Note_on_c, 6, 78, 127
1, 696887, Note_off_c, 0, 72, 127
1, 696893, Note_on_c, 4, 76, 127
1, 696900, Note_off_c, 6, 78, 127
1, 697020, Note_on_c, 6, 78, 127
1, 697027, Note_off_c, 4, 76, 127
1, 697139, Note_off_c, 10, 57, 127
1, 697139, Note_off_c, 3, 63, 127
1, 697147, Note_on_c, 7, 79, 127
1, 697147, Note_on_c, 2, 62, 127
1, 697147, Note_on_c, 12, 59, 127
1, 697154, Note_off_c, 6, 78, 127
1, 697274, Note_on_c, 6, 78, 127
1, 697281, Note_off_c, 7, 79, 127
1, 697402, Note_on_c, 4, 76, 127
1, 697408, Note_off_c, 6, 78, 127
1, 697529, Note_on_c, 6, 78, 127
1, 697536, Note_off_c, 4, 76, 127
1, 697648, Note_off_c, 2, 62, 127
1, 697656, Note_on_c, 2, 74, 127
1, 697656, Note_on_c, 7, 67, 127
1, 697663, Note_off_c, 6, 78, 127
1, 697783, Note_on_c, 5, 77, 127
1, 697905, Note_off_c, 2, 74, 127
1, 697910, Note_on_c, 4, 76, 127
1, 697917, Note_off_c, 5, 77, 127
1, 698038, Note_on_c, 5, 77, 127
1, 698044, Note_off_c, 4, 76, 127
1, 698152, Note_off_c, 12, 59, 127
1, 698157, Note_off_c, 7, 67, 127
1, 698165, Note_on_c, 7, 79, 127
1, 698165, Note_on_c, 12, 59, 127
1, 698165, Note_on_c, 7, 55, 127
1, 698172, Note_off_c, 5, 77, 127
1, 698292, Note_on_c, 5, 77, 127
1, 698299, Note_off_c, 7, 79, 127
1, 698419, Note_on_c, 4, 76, 127
1, 698426, Note_off_c, 5, 77, 127
1, 698546, Note_on_c, 2, 74, 127
1, 698553, Note_off_c, 4, 76, 127
1, 698666, Note_off_c, 7, 55, 127
1, 698666, Note_off_c, 12, 59, 127
1, 698674, Note_on_c, 4, 76, 127
1, 698674, Note_on_c, 0, 60, 127
1, 698674, Note_on_c, 0, 48, 127
1, 698680, Note_off_c, 2, 74, 127
1, 698801, Note_on_c, 0, 72, 127
1, 698923, Note_off_c, 4, 76, 127
1, 698928, Note_on_c, 12, 71, 127
1, 698935, Note_off_c, 0, 72, 127
1, 699055, Note_on_c, 0, 72, 127
1, 699062, Note_off_c, 12, 71, 127
1, 699175, Note_off_c, 0, 48, 127
1, 699175, Note_off_c, 0, 60, 127
1, 699182, Note_on_c, 2, 74, 127
1, 699182, Note_on_c, 7, 55, 127
1, 699182, Note_on_c, 4, 52, 127
1, 699189, Note_off_c, 0, 72, 127
1, 699310, Note_on_c, 0, 72, 127
1, 699316, Note_off_c, 2, 74, 127
1, 699437, Note_on_c, 12, 71, 127
1, 699444, Note_off_c, 0, 72, 127
1, 699564, Note_on_c, 0, 72, 127
1, 699571, Note_off_c, 12, 71, 127
1, 699683, Note_off_c, 4, 52, 127
1, 699683, Note_off_c, 7, 55, 127
1, 699691, Note_on_c, 2, 74, 127
1, 699691, Note_on_c, 10, 57, 127
1, 699691, Note_on_c, 5, 53, 127
1, 699698, Note_off_c, 0, 72, 127
1, 699818, Note_on_c, 12, 71, 127
1, 699825, Note_off_c, 2, 74, 127
1, 699946, Note_on_c, 10, 69, 127
1, 699952, Note_off_c, 12, 71, 127
1, 700073, Note_on_c, 12, 71, 127
1, 700080, Note_off_c, 10, 69, 127
1, 700192, Note_off_c, 5, 53, 127
1, 700192, Note_off_c, 10, 57, 127
1, 700200, Note_on_c, 0, 72, 127
1, 700200, Note_on_c, 2, 62, 127
1, 700200, Note_on_c, 6, 54, 127
1, 700207, Note_off_c, 12, 71, 127
1, 700327, Note_on_c, 10, 69, 127
1, 700334, Note_off_c, 0, 72, 127
1, 700454, Note_on_c, 12, 71, 127
1, 700461, Note_off_c, 10, 69, 127
1, 700582, Note_on_c, 0, 72, 127
1, 700588, Note_off_c, 12, 71, 127
1, 700701, Note_off_c, 6, 54, 127
1, 700701, Note_off_c, 2, 62, 127
1, 700709, Note_on_c, 1, 73, 127
1, 700709, Note_on_c, 4, 64, 127
1, 700709, Note_on_c, 7, 55, 127
1, 700716, Note_off_c, 0, 72, 127
1, 700836, Note_on_c, 11, 70, 127
1, 700843, Note_off_c, 1, 73, 127
1, 700963, Note_on_c, 10, 69, 127
1, 700970, Note_off_c, 11, 70, 127
1, 701090, Note_on_c, 11, 70, 127
1, 701097, Note_off_c, 10, 69, 127
1, 701210, Note_off_c, 7, 55, 127
1, 701210, Note_off_c, 4, 64, 127
1, 701218, Note_on_c, 0, 72, 127
1, 701218, Note_on_c, 10, 57, 127
1, 701218, Note_on_c, 6, 54, 127
1, 701224, Note_off_c, 11, 70, 127
1, 701345, Note_on_c, 11, 70, 127
1, 701352, Note_off_c, 0, 72, 127
1, 701467, Note_off_c, 6, 54, 127
1, 701472, Note_on_c, 10, 69, 127
1, 701472, Note_on_c, 4, 52, 127
1, 701479, Note_off_c, 11, 70, 127
1, 701599, Note_on_c, 7, 67, 127
1, 701606, Note_off_c, 10, 69, 127
1, 701721, Note_off_c, 4, 52, 127
1, 701726, Note_on_c, 6, 66, 127
1, 701726, Note_on_c, 2, 50, 127
1, 701733, Note_off_c, 7, 67, 127
1, 701854, Note_on_c, 0, 72, 127
1, 701975, Note_off_c, 6, 66, 127
1, 701981, Note_on_c, 12, 71, 127
1, 701988, Note_off_c, 0, 72, 127
1, 702108, Note_on_c, 0, 72, 127
1, 702115, Note_off_c, 12, 71, 127
1, 702223, Note_off_c, 10, 57, 127
1, 702235, Note_on_c, 2, 74, 127
1, 702235, Note_on_c, 10, 57, 127
1, 702242, Note_off_c, 0, 72, 127
1, 702362, Note_on_c, 0, 72, 127
1, 702369, Note_off_c, 2, 74, 127
1, 702484, Note_off_c, 10, 57, 127
1, 702490, Note_on_c, 12, 71, 127
1, 702490, Note_on_c, 7, 55, 127
1, 702496, Note_off_c, 0, 72, 127
1, 702617, Note_on_c, 0, 72, 127
1, 702624, Note_off_c, 12, 71, 127
1, 702739, Note_off_c, 7, 55, 127
1, 702744, Note_on_c, 6, 78, 127
1, 702744, Note_on_c, 10, 57, 127
1, 702751, Note_off_c, 0, 72, 127
1, 702871, Note_on_c, 0, 72, 127
1, 702998, Note_on_c, 12, 71, 127
1, 703005, Note_off_c, 0, 72, 127
1, 703062, Note_off_c, 6, 78, 127
1, 703127, Note_on_c, 0, 72, 127
1, 703133, Note_off_c, 12, 71, 127
1, 703236, Note_off_c, 2, 50, 127
1, 703254, Note_on_c, 2, 74, 127
1, 703254, Note_on_c, 6, 54, 127
1, 703261, Note_off_c, 0, 72, 127
1, 703381, Note_on_c, 0, 72, 127
1, 703388, Note_off_c, 2, 74, 127
1, 703508, Note_on_c, 12, 71, 127
1, 703515, Note_off_c, 0, 72, 127
1, 703635, Note_on_c, 0, 72, 127
1, 703642, Note_off_c, 12, 71, 127
1, 703750, Note_off_c, 10, 57, 127
1, 703755, Note_off_c, 6, 54, 127
1, 703763, Note_on_c, 10, 81, 127
1, 703763, Note_on_c, 7, 55, 127
1, 703763, Note_on_c, 4, 52, 127
1, 703769, Note_off_c, 0, 72, 127
1, 703890, Note_on_c, 0, 72, 127
1, 703999, Note_off_c, 10, 81, 127
1, 704017, Note_on_c, 12, 71, 127
1, 704024, Note_off_c, 0, 72, 127
1, 704144, Note_on_c, 0, 72, 127
1, 704151, Note_off_c, 12, 71, 127
1, 704264, Note_off_c, 4, 52, 127
1, 704264, Note_off_c, 7, 55, 127
1, 704271, Note_on_c, 2, 74, 127
1, 704271, Note_on_c, 6, 54, 127
1, 704271, Note_on_c, 2, 50, 127
1, 704278, Note_off_c, 0, 72, 127
1, 704399, Note_on_c, 0, 72, 127
1, 704405, Note_off_c, 2, 74, 127
1, 704526, Note_on_c, 12, 71, 127
1, 704533, Note_off_c, 0, 72, 127
1, 704653, Note_on_c, 10, 69, 127
1, 704660, Note_off_c, 12, 71, 127
1, 704772, Note_off_c, 2, 50, 127
1, 704772, Note_off_c, 6, 54, 127
1, 704780, Note_on_c, 12, 71, 127
1, 704780, Note_on_c, 7, 55, 127
1, 704780, Note_on_c, 7, 43, 127
1, 704787, Note_off_c, 10, 69, 127
1, 705035, Note_on_c, 6, 66, 127
1, 705037, Note_off_c, 12, 71, 127
1, 705280, Note_off_c, 7, 55, 127
1, 705281, Note_off_c, 6, 66, 127
1, 705288, Note_on_c, 6, 66, 127
1, 705288, Note_on_c, 10, 57, 127
1, 705537, Note_off_c, 6, 66, 127
1, 705542, Note_on_c, 7, 67, 127
1, 705788, Note_off_c, 7, 67, 127
1, 705788, Note_off_c, 10, 57, 127
1, 705796, Note_on_c, 7, 67, 127
1, 705796, Note_on_c, 12, 59, 127
1, 706050, Note_on_c, 0, 60, 127
1, 706053, Note_off_c, 7, 67, 127
1, 706296, Note_off_c, 0, 60, 127
1, 706296, Note_off_c, 12, 59, 127
1, 706303, Note_on_c, 0, 60, 127
1, 706303, Note_on_c, 6, 54, 127
1, 706303, Note_on_c, 3, 51, 127
1, 706552, Note_off_c, 0, 60, 127
1, 706558, Note_on_c, 12, 59, 127
1, 706803, Note_off_c, 3, 51, 127
1, 706803, Note_off_c, 6, 54, 127
1, 706804, Note_off_c, 12, 59, 127
1, 706811, Note_on_c, 2, 50, 127
1, 706811, Note_on_c, 12, 59, 127
1, 706811, Note_on_c, 7, 55, 127
1, 707293, Note_off_c, 7, 43, 127
1, 707394, Note_off_c, 2, 50, 127
1, 707448, Note_on_c, 0, 48, 127
1, 707565, Note_off_c, 0, 48, 127
1, 707575, Note_on_c, 12, 47, 127
1, 707692, Note_off_c, 12, 47, 127
1, 707703, Note_on_c, 10, 45, 127
1, 707816, Note_off_c, 7, 55, 127
1, 707816, Note_off_c, 12, 59, 127
1, 707820, Note_off_c, 10, 45, 127
1, 707829, Note_on_c, 12, 59, 127
1, 707829, Note_on_c, 7, 43, 127
1, 707973, Note_on_c, 7, 55, 127
1, 708113, Note_off_c, 7, 55, 127
1, 708116, Note_on_c, 2, 50, 127
1, 708256, Note_off_c, 2, 50, 127
1, 708259, Note_on_c, 7, 55, 127
1, 708391, Note_off_c, 12, 59, 127
1, 708396, Note_off_c, 7, 43, 127
1, 708399, Note_off_c, 7, 55, 127
1, 708402, Note_on_c, 12, 59, 127
1, 708402, Note_on_c, 10, 81, 127
1, 708471, Note_off_c, 10, 81, 127
1, 708473, Note_on_c, 7, 79, 127
1, 708539, Note_off_c, 12, 59, 127
1, 708543, Note_off_c, 7, 79, 127
1, 708545, Note_on_c, 7, 55, 127
1, 708545, Note_on_c, 10, 81, 127
1, 708614, Note_off_c, 10, 81, 127
1, 708616, Note_on_c, 7, 79, 127
1, 708684, Note_off_c, 7, 55, 127
1, 708685, Note_off_c, 7, 79, 127
1, 708687, Note_on_c, 2, 62, 127
1, 708687, Note_on_c, 10, 81, 127
1, 708756, Note_off_c, 10, 81, 127
1, 708758, Note_on_c, 7, 79, 127
1, 708826, Note_off_c, 2, 62, 127
1, 708827, Note_off_c, 7, 79, 127
1, 708829, Note_on_c, 12, 59, 127
1, 708829, Note_on_c, 10, 81, 127
1, 708898, Note_off_c, 10, 81, 127
1, 708900, Note_on_c, 7, 79, 127
1, 708966, Note_off_c, 12, 59, 127
1, 708970, Note_off_c, 7, 79, 127
1, 708973, Note_on_c, 7, 55, 127
1, 708973, Note_on_c, 10, 81, 127
1, 709042, Note_off_c, 10, 81, 127
1, 709044, Note_on_c, 7, 79, 127
1, 709110, Note_off_c, 7, 55, 127
1, 709114, Note_off_c, 7, 79, 127
1, 709116, Note_on_c, 12, 59, 127
1, 709116, Note_on_c, 10, 81, 127
1, 709185, Note_off_c, 10, 81, 127
1, 709187, Note_on_c, 7, 79, 127
1, 709255, Note_off_c, 12, 59, 127
1, 709256, Note_off_c, 7, 79, 127
1, 709258, Note_on_c, 10, 57, 127
1, 709258, Note_on_c, 10, 81, 127
1, 709327, Note_off_c, 10, 81, 127
1, 709329, Note_on_c, 7, 79, 127
1, 709397, Note_off_c, 10, 57, 127
1, 709398, Note_off_c, 7, 79, 127
1, 709400, Note_on_c, 7, 55, 127
1, 709400, Note_on_c, 6, 78, 127
1, 709469, Note_off_c, 6, 78, 127
1, 709471, Note_on_c, 7, 79, 127
1, 709539, Note_off_c, 7, 55, 127
1, 709540, Note_off_c, 7, 79, 127
1, 709542, Note_on_c, 2, 62, 127
1, 709542, Note_on_c, 10, 81, 127
1, 709686, Note_on_c, 10, 57, 127
1, 709826, Note_off_c, 10, 57, 127
1, 709829, Note_on_c, 6, 54, 127
1, 709969, Note_off_c, 6, 54, 127
1, 709972, Note_on_c, 10, 57, 127
1, 710109, Note_off_c, 10, 81, 127
1, 710109, Note_off_c, 2, 62, 127
1, 710112, Note_off_c, 10, 57, 127
1, 710115, Note_on_c, 2, 62, 127
1, 710115, Note_on_c, 6, 54, 127
1, 710184, Note_off_c, 6, 54, 127
1, 710186, Note_on_c, 4, 52, 127
1, 710252, Note_off_c, 2, 62, 127
1, 710256, Note_off_c, 4, 52, 127
1, 710258, Note_on_c, 10, 57, 127
1, 710258, Note_on_c, 6, 54, 127
1, 710327, Note_off_c, 6, 54, 127
1, 710329, Note_on_c, 4, 52, 127
1, 710397, Note_off_c, 10, 57, 127
1, 710398, Note_off_c, 4, 52, 127
1, 710400, Note_on_c, 10, 69, 127
1, 710400, Note_on_c, 6, 54, 127
1, 710540, Note_off_c, 10, 69, 127
1, 710543, Note_on_c, 6, 66, 127
1, 710683, Note_off_c, 6, 66, 127
1, 710687, Note_on_c, 2, 62, 127
1, 710824, Note_off_c, 2, 62, 127
1, 710824, Note_off_c, 6, 54, 127
1, 710830, Note_on_c, 6, 66, 127
1, 710830, Note_on_c, 10, 57, 127
1, 710970, Note_off_c, 10, 57, 127
1, 710970, Note_off_c, 6, 66, 127
1, 710973, Note_on_c, 4, 64, 127
1, 710973, Note_on_c, 7, 55, 127
1, 711113, Note_off_c, 7, 55, 127
1, 711113, Note_off_c, 4, 64, 127
1, 711116, Note_on_c, 2, 62, 127
1, 711116, Note_on_c, 6, 54, 127
1, 711256, Note_off_c, 6, 54, 127
1, 711256, Note_off_c, 2, 62, 127
1, 711259, Note_on_c, 7, 67, 127
1, 711259, Note_on_c, 4, 52, 127
1, 711403, Note_on_c, 4, 64, 127
1, 711543, Note_off_c, 4, 64, 127
1, 711546, Note_on_c, 12, 59, 127
1, 711686, Note_off_c, 12, 59, 127
1, 711689, Note_on_c, 4, 64, 127
1, 711821, Note_off_c, 7, 67, 127
1, 711826, Note_off_c, 4, 52, 127
1, 711829, Note_off_c, 4, 64, 127
1, 711832, Note_on_c, 7, 67, 127
1, 711832, Note_on_c, 4, 76, 127
1, 711969, Note_off_c, 7, 67, 127
1, 711976, Note_on_c, 4, 64, 127
1, 712114, Note_off_c, 4, 76, 127
1, 712116, Note_off_c, 4, 64, 127
1, 712119, Note_on_c, 12, 71, 127
1, 712119, Note_on_c, 2, 74, 127
1, 712259, Note_off_c, 12, 71, 127
1, 712262, Note_on_c, 7, 67, 127
1, 712399, Note_off_c, 7, 67, 127
1, 712401, Note_off_c, 2, 74, 127
1, 712405, Note_on_c, 4, 64, 127
1, 712405, Note_on_c, 1, 73, 127
1, 712542, Note_off_c, 4, 64, 127
1, 712548, Note_on_c, 7, 67, 127
1, 712685, Note_off_c, 7, 67, 127
1, 712687, Note_off_c, 1, 73, 127
1, 712691, Note_on_c, 6, 66, 127
1, 712691, Note_on_c, 2, 74, 127
1, 712831, Note_off_c, 2, 74, 127
1, 712831, Note_off_c, 6, 66, 127
1, 712834, Note_on_c, 4, 64, 127
1, 712834, Note_on_c, 4, 76, 127
1, 712974, Note_off_c, 4, 76, 127
1, 712974, Note_off_c, 4, 64, 127
1, 712977, Note_on_c, 2, 74, 127
1, 712977, Note_on_c, 6, 66, 127
1, 713121, Note_on_c, 10, 69, 127
1, 713256, Note_off_c, 6, 66, 127
1, 713261, Note_off_c, 10, 69, 127
1, 713265, Note_on_c, 6, 66, 127
1, 713409, Note_on_c, 10, 69, 127
1, 713540, Note_off_c, 2, 74, 127
1, 713548, Note_off_c, 6, 66, 127
1, 713549, Note_off_c, 10, 69, 127
1, 713552, Note_on_c, 2, 74, 127
1, 713552, Note_on_c, 2, 50, 127
1, 713621, Note_off_c, 2, 50, 127
1, 713623, Note_on_c, 0, 48, 127
1, 713689, Note_off_c, 2, 74, 127
1, 713693, Note_off_c, 0, 48, 127
1, 713695, Note_on_c, 10, 69, 127
1, 713695, Note_on_c, 2, 50, 127
1, 713764, Note_off_c, 2, 50, 127
1, 713766, Note_on_c, 0, 48, 127
1, 713834, Note_off_c, 10, 69, 127
1, 713835, Note_off_c, 0, 48, 127
1, 713837, Note_on_c, 10, 81, 127
1, 713837, Note_on_c, 2, 50, 127
1, 713906, Note_off_c, 2, 50, 127
1, 713908, Note_on_c, 0, 48, 127
1, 713976, Note_off_c, 10, 81, 127
1, 713977, Note_off_c, 0, 48, 127
1, 713979, Note_on_c, 6, 78, 127
1, 713979, Note_on_c, 2, 50, 127
1, 714048, Note_off_c, 2, 50, 127
1, 714050, Note_on_c, 0, 48, 127
1, 714118, Note_off_c, 6, 78, 127
1, 714119, Note_off_c, 0, 48, 127
1, 714121, Note_on_c, 2, 74, 127
1, 714121, Note_on_c, 2, 50, 127
1, 714190, Note_off_c, 2, 50, 127
1, 714192, Note_on_c, 0, 48, 127
1, 714258, Note_off_c, 2, 74, 127
1, 714262, Note_off_c, 0, 48, 127
1, 714264, Note_on_c, 6, 78, 127
1, 714264, Note_on_c, 2, 50, 127
1, 714333, Note_off_c, 2, 50, 127
1, 714335, Note_on_c, 0, 48, 127
1, 714403, Note_off_c, 6, 78, 127
1, 714404, Note_off_c, 0, 48, 127
1, 714406, Note_on_c, 4, 76, 127
1, 714406, Note_on_c, 2, 50, 127
1, 714475, Note_off_c, 2, 50, 127
1, 714477, Note_on_c, 0, 48, 127
1, 714545, Note_off_c, 4, 76, 127
1, 714546, Note_off_c, 0, 48, 127
1, 714548, Note_on_c, 2, 74, 127
1, 714548, Note_on_c, 12, 47, 127
1, 714617, Note_off_c, 12, 47, 127
1, 714619, Note_on_c, 0, 48, 127
1, 714687, Note_off_c, 2, 74, 127
1, 714688, Note_off_c, 0, 48, 127
1, 714690, Note_on_c, 7, 79, 127
1, 714690, Note_on_c, 12, 47, 127
1, 714834, Note_on_c, 2, 74, 127
1, 714973, Note_off_c, 12, 47, 127
1, 714974, Note_off_c, 2, 74, 127
1, 714977, Note_on_c, 12, 71, 127
1, 714977, Note_on_c, 7, 43, 127
1, 715117, Note_off_c, 12, 71, 127
1, 715121, Note_on_c, 2, 74, 127
1, 715252, Note_off_c, 7, 79, 127
1, 715259, Note_off_c, 7, 43, 127
1, 715261, Note_off_c, 2, 74, 127
1, 715264, Note_on_c, 7, 79, 127
1, 715264, Note_on_c, 12, 47, 127
1, 715401, Note_off_c, 7, 79, 127
1, 715407, Note_on_c, 2, 74, 127
1, 715546, Note_off_c, 12, 47, 127
1, 715547, Note_off_c, 2, 74, 127
1, 715550, Note_on_c, 12, 83, 127
1, 715550, Note_on_c, 2, 50, 127
1, 715690, Note_off_c, 12, 83, 127
1, 715693, Note_on_c, 7, 79, 127
1, 715832, Note_off_c, 2, 50, 127
1, 715833, Note_off_c, 7, 79, 127
1, 715836, Note_on_c, 2, 74, 127
1, 715836, Note_on_c, 7, 55, 127
1, 715973, Note_off_c, 2, 74, 127
1, 715979, Note_on_c, 5, 77, 127
1, 716118, Note_off_c, 7, 55, 127
1, 716119, Note_off_c, 5, 77, 127
1, 716122, Note_on_c, 4, 76, 127
1, 716122, Note_on_c, 12, 47, 127
1, 716262, Note_off_c, 4, 76, 127
1, 716265, Note_on_c, 2, 74, 127
1, 716404, Note_off_c, 12, 47, 127
1, 716405, Note_off_c, 2, 74, 127
1, 716408, Note_on_c, 4, 76, 127
1, 716408, Note_on_c, 0, 48, 127
1, 716553, Note_on_c, 0, 72, 127
1, 716691, Note_off_c, 0, 48, 127
1, 716693, Note_off_c, 0, 72, 127
1, 716696, Note_on_c, 7, 67, 127
1, 716696, Note_on_c, 4, 52, 127
1, 716836, Note_off_c, 7, 67, 127
1, 716839, Note_on_c, 0, 72, 127
1, 716970, Note_off_c, 4, 76, 127
1, 716978, Note_off_c, 4, 52, 127
1, 716979, Note_off_c, 0, 72, 127
1, 716982, Note_on_c, 4, 76, 127
1, 716982, Note_on_c, 7, 55, 127
1, 717119, Note_off_c, 4, 76, 127
1, 717125, Note_on_c, 0, 72, 127
1, 717264, Note_off_c, 7, 55, 127
1, 717265, Note_off_c, 0, 72, 127
1, 717268, Note_on_c, 7, 79, 127
1, 717268, Note_on_c, 0, 60, 127
1, 717408, Note_off_c, 7, 79, 127
1, 717411, Note_on_c, 4, 76, 127
1, 717550, Note_off_c, 0, 60, 127
1, 717551, Note_off_c, 4, 76, 127
1, 717554, Note_on_c, 0, 72, 127
1, 717554, Note_on_c, 4, 52, 127
1, 717691, Note_off_c, 0, 72, 127
1, 717697, Note_on_c, 2, 74, 127
1, 717836, Note_off_c, 4, 52, 127
1, 717837, Note_off_c, 2, 74, 127
1, 717841, Note_on_c, 0, 72, 127
1, 717841, Note_on_c, 7, 55, 127
1, 717978, Note_off_c, 0, 72, 127
1, 717984, Note_on_c, 12, 71, 127
1, 718123, Note_off_c, 7, 55, 127
1, 718124, Note_off_c, 12, 71, 127
1, 718127, Note_on_c, 10, 69, 127
1, 718127, Note_on_c, 6, 54, 127
1, 718271, Note_on_c, 6, 66, 127
1, 718410, Note_off_c, 6, 54, 127
1, 718411, Note_off_c, 6, 66, 127
1, 718414, Note_on_c, 2, 62, 127
1, 718414, Note_on_c, 10, 57, 127
1, 718554, Note_off_c, 2, 62, 127
1, 718557, Note_on_c, 6, 66, 127
1, 718689, Note_off_c, 10, 69, 127
1, 718696, Note_off_c, 10, 57, 127
1, 718697, Note_off_c, 6, 66, 127
1, 718700, Note_on_c, 10, 69, 127
1, 718700, Note_on_c, 2, 50, 127
1, 718837, Note_off_c, 10, 69, 127
1, 718843, Note_on_c, 6, 66, 127
1, 718982, Note_off_c, 2, 50, 127
1, 718983, Note_off_c, 6, 66, 127
1, 718986, Note_on_c, 2, 74, 127
1, 718986, Note_on_c, 6, 54, 127
1, 719126, Note_off_c, 2, 74, 127
1, 719129, Note_on_c, 10, 69, 127
1, 719266, Note_off_c, 10, 69, 127
1, 719268, Note_off_c, 6, 54, 127
1, 719273, Note_on_c, 6, 66, 127
1, 719273, Note_on_c, 10, 57, 127
1, 719413, Note_off_c, 6, 66, 127
1, 719416, Note_on_c, 10, 69, 127
1, 719555, Note_off_c, 10, 57, 127
1, 719556, Note_off_c, 10, 69, 127
1, 719559, Note_on_c, 7, 67, 127
1, 719559, Note_on_c, 0, 60, 127
1, 719699, Note_off_c, 7, 67, 127
1, 719702, Note_on_c, 6, 66, 127
1, 719841, Note_off_c, 0, 60, 127
1, 719842, Note_off_c, 6, 66, 127
1, 719845, Note_on_c, 7, 67, 127
1, 719845, Note_on_c, 12, 59, 127
1, 719989, Note_on_c, 2, 62, 127
1, 720128, Note_off_c, 12, 59, 127
1, 720129, Note_off_c, 2, 62, 127
1, 720132, Note_on_c, 12, 59, 127
1, 720132, Note_on_c, 7, 55, 127
1, 720272, Note_off_c, 12, 59, 127
1, 720275, Note_on_c, 2, 62, 127
1, 720407, Note_off_c, 7, 67, 127
1, 720414, Note_off_c, 7, 55, 127
1, 720415, Note_off_c, 2, 62, 127
1, 720418, Note_on_c, 7, 67, 127
1, 720418, Note_on_c, 12, 59, 127
1, 720563, Note_on_c, 2, 62, 127
1, 720630, Note_off_c, 7, 67, 127
1, 720700, Note_off_c, 12, 59, 127
1, 720701, Note_off_c, 2, 62, 127
1, 720705, Note_on_c, 12, 71, 127
1, 720705, Note_on_c, 2, 62, 127
1, 720849, Note_on_c, 7, 67, 127
1, 720917, Note_off_c, 12, 71, 127
1, 720979, Note_off_c, 7, 67, 127
1, 720988, Note_off_c, 2, 62, 127
1, 720992, Note_on_c, 2, 74, 127
1, 720992, Note_on_c, 7, 67, 127
1, 721136, Note_on_c, 0, 72, 127
1, 721204, Note_off_c, 2, 74, 127
1, 721276, Note_off_c, 0, 72, 127
1, 721279, Note_on_c, 12, 71, 127
1, 721419, Note_off_c, 12, 71, 127
1, 721422, Note_on_c, 10, 69, 127
1, 721551, Note_off_c, 7, 67, 127
1, 721562, Note_off_c, 10, 69, 127
1, 721565, Note_on_c, 7, 67, 127
1, 721710, Note_on_c, 12, 83, 127
1, 721779, Note_off_c, 12, 83, 127
1, 721781, Note_on_c, 10, 81, 127
1, 721850, Note_off_c, 10, 81, 127
1, 721852, Note_on_c, 12, 83, 127
1, 721989, Note_off_c, 7, 67, 127
1, 721995, Note_on_c, 7, 79, 127
1, 722064, Note_off_c, 7, 79, 127
1, 722066, Note_on_c, 6, 78, 127
1, 722135, Note_off_c, 6, 78, 127
1, 722137, Note_on_c, 7, 79, 127
1, 722275, Note_off_c, 12, 83, 127
1, 722280, Note_on_c, 4, 76, 127
1, 722349, Note_off_c, 4, 76, 127
1, 722351, Note_on_c, 2, 74, 127
1, 722420, Note_off_c, 2, 74, 127
1, 722422, Note_on_c, 4, 76, 127
1, 722560, Note_off_c, 7, 79, 127
1, 722565, Note_on_c, 1, 73, 127
1, 722634, Note_off_c, 1, 73, 127
1, 722636, Note_on_c, 12, 71, 127
1, 722705, Note_off_c, 12, 71, 127
1, 722707, Note_on_c, 1, 73, 127
1, 722845, Note_off_c, 4, 76, 127
1, 722850, Note_on_c, 10, 69, 127
1, 722919, Note_off_c, 10, 69, 127
1, 722921, Note_on_c, 7, 67, 127
1, 722990, Note_off_c, 7, 67, 127
1, 722992, Note_on_c, 10, 69, 127
1, 723130, Note_off_c, 1, 73, 127
1, 723135, Note_on_c, 6, 66, 127
1, 723204, Note_off_c, 6, 66, 127
1, 723206, Note_on_c, 4, 64, 127
1, 723275, Note_off_c, 4, 64, 127
1, 723277, Note_on_c, 6, 66, 127
1, 723415, Note_off_c, 10, 69, 127
1, 723420, Note_on_c, 10, 81, 127
1, 723489, Note_off_c, 10, 81, 127
1, 723491, Note_on_c, 7, 79, 127
1, 723560, Note_off_c, 7, 79, 127
1, 723562, Note_on_c, 10, 81, 127
1, 723700, Note_off_c, 6, 66, 127
1, 723706, Note_on_c, 6, 78, 127
1, 723775, Note_off_c, 6, 78, 127
1, 723777, Note_on_c, 4, 76, 127
1, 723846, Note_off_c, 4, 76, 127
1, 723848, Note_on_c, 6, 78, 127
1, 723985, Note_off_c, 10, 81, 127
1, 723991, Note_on_c, 2, 74, 127
1, 724060, Note_off_c, 2, 74, 127
1, 724062, Note_on_c, 1, 73, 127
1, 724131, Note_off_c, 1, 73, 127
1, 724133, Note_on_c, 2, 74, 127
1, 724271, Note_off_c, 6, 78, 127
1, 724276, Note_on_c, 12, 71, 127
1, 724345, Note_off_c, 12, 71, 127
1, 724347, Note_on_c, 10, 69, 127
1, 724416, Note_off_c, 10, 69, 127
1, 724418, Note_on_c, 12, 71, 127
1, 724556, Note_off_c, 2, 74, 127
1, 724561, Note_on_c, 7, 67, 127
1, 724630, Note_off_c, 7, 67, 127
1, 724632, Note_on_c, 6, 66, 127
1, 724701, Note_off_c, 6, 66, 127
1, 724703, Note_on_c, 7, 67, 127
1, 724841, Note_off_c, 12, 71, 127
1, 724846, Note_on_c, 4, 64, 127
1, 724915, Note_off_c, 4, 64, 127
1, 724917, Note_on_c, 2, 62, 127
1, 724986, Note_off_c, 2, 62, 127
1, 724988, Note_on_c, 4, 64, 127
1, 725126, Note_off_c, 7, 67, 127
1, 725131, Note_on_c, 7, 79, 127
1, 725200, Note_off_c, 7, 79, 127
1, 725202, Note_on_c, 6, 78, 127
1, 725271, Note_off_c, 6, 78, 127
1, 725273, Note_on_c, 7, 79, 127
1, 725411, Note_off_c, 4, 64, 127
1, 725416, Note_on_c, 4, 76, 127
1, 725485, Note_off_c, 4, 76, 127
1, 725487, Note_on_c, 2, 74, 127
1, 725556, Note_off_c, 2, 74, 127
1, 725558, Note_on_c, 4, 76, 127
1, 725696, Note_off_c, 7, 79, 127
1, 725701, Note_on_c, 12, 71, 127
1, 725770, Note_off_c, 12, 71, 127
1, 725773, Note_on_c, 10, 69, 127
1, 725842, Note_off_c, 10, 69, 127
1, 725844, Note_on_c, 12, 71, 127
1, 725981, Note_off_c, 4, 76, 127
1, 725987, Note_on_c, 7, 67, 127
1, 726056, Note_off_c, 7, 67, 127
1, 726058, Note_on_c, 6, 66, 127
1, 726127, Note_off_c, 6, 66, 127
1, 726129, Note_on_c, 7, 67, 127
1, 726267, Note_off_c, 12, 71, 127
1, 726272, Note_on_c, 4, 64, 127
1, 726341, Note_off_c, 4, 64, 127
1, 726343, Note_on_c, 2, 62, 127
1, 726412, Note_off_c, 2, 62, 127
1, 726414, Note_on_c, 4, 64, 127
1, 726552, Note_off_c, 7, 67, 127
1, 726557, Note_on_c, 1, 61, 127
1, 726626, Note_off_c, 1, 61, 127
1, 726628, Note_on_c, 12, 59, 127
1, 726697, Note_off_c, 12, 59, 127
1, 726699, Note_on_c, 1, 61, 127
1, 726837, Note_off_c, 4, 64, 127
1, 726842, Note_on_c, 7, 55, 127
1, 726911, Note_off_c, 7, 55, 127
1, 726913, Note_on_c, 6, 54, 127
1, 726982, Note_off_c, 6, 54, 127
1, 726984, Note_on_c, 7, 55, 127
1, 727122, Note_off_c, 1, 61, 127
1, 727127, Note_on_c, 4, 52, 127
1, 727196, Note_off_c, 4, 52, 127
1, 727198, Note_on_c, 2, 50, 127
1, 727267, Note_off_c, 2, 50, 127
1, 727269, Note_on_c, 4, 52, 127
1, 727407, Note_off_c, 7, 55, 127
1, 727412, Note_on_c, 1, 49, 127
1, 727481, Note_off_c, 1, 49, 127
1, 727483, Note_on_c, 12, 47, 127
1, 727552, Note_off_c, 12, 47, 127
1, 727554, Note_on_c, 1, 49, 127
1, 727692, Note_off_c, 4, 52, 127
1, 727697, Note_on_c, 10, 45, 127
1, 727766, Note_off_c, 10, 45, 127
1, 727768, Note_on_c, 7, 43, 127
1, 727837, Note_off_c, 7, 43, 127
1, 727840, Note_on_c, 10, 45, 127
1, 727977, Note_off_c, 1, 49, 127
1, 727983, Note_on_c, 7, 43, 127
1, 728052, Note_off_c, 7, 43, 127
1, 728054, Note_on_c, 6, 42, 127
1, 728123, Note_off_c, 6, 42, 127
1, 728125, Note_on_c, 7, 43, 127
1, 728263, Note_off_c, 10, 45, 127
1, 728268, Note_on_c, 6, 42, 127
1, 728325, Note_off_c, 7, 43, 127
1, 728337, Note_off_c, 6, 42, 127
1, 728339, Note_on_c, 4, 40, 127
1, 728408, Note_off_c, 4, 40, 127
1, 728410, Note_on_c, 6, 42, 127
1, 728482, Note_on_c, 2, 62, 127
1, 728551, Note_off_c, 2, 62, 127
1, 728553, Note_on_c, 4, 64, 127
1, 728622, Note_off_c, 4, 64, 127
1, 728624, Note_on_c, 6, 66, 127
1, 728693, Note_off_c, 6, 66, 127
1, 728695, Note_on_c, 10, 69, 127
1, 728767, Note_on_c, 6, 66, 127
1, 728835, Note_off_c, 10, 69, 127
1, 728836, Note_off_c, 6, 66, 127
1, 728838, Note_on_c, 4, 64, 127
1, 728907, Note_off_c, 4, 64, 127
1, 728909, Note_on_c, 2, 62, 127
1, 728973, Note_off_c, 6, 42, 127
1, 728980, Note_on_c, 2, 74, 127
1, 729048, Note_off_c, 2, 62, 127
1, 729051, Note_on_c, 2, 62, 127
1, 729120, Note_off_c, 2, 62, 127
1, 729122, Note_on_c, 4, 64, 127
1, 729191, Note_off_c, 4, 64, 127
1, 729193, Note_on_c, 6, 66, 127
1, 729262, Note_off_c, 6, 66, 127
1, 729264, Note_on_c, 10, 69, 127
1, 729336, Note_on_c, 6, 66, 127
1, 729404, Note_off_c, 10, 69, 127
1, 729405, Note_off_c, 6, 66, 127
1, 729407, Note_on_c, 4, 64, 127
1, 729476, Note_off_c, 4, 64, 127
1, 729478, Note_on_c, 2, 62, 127
1, 729542, Note_off_c, 2, 74, 127
1, 729549, Note_on_c, 0, 72, 127
1, 729617, Note_off_c, 2, 62, 127
1, 729620, Note_on_c, 2, 62, 127
1, 729689, Note_off_c, 2, 62, 127
1, 729691, Note_on_c, 4, 64, 127
1, 729760, Note_off_c, 4, 64, 127
1, 729762, Note_on_c, 6, 66, 127
1, 729831, Note_off_c, 6, 66, 127
1, 729833, Note_on_c, 10, 69, 127
1, 729905, Note_on_c, 6, 66, 127
1, 729973, Note_off_c, 10, 69, 127
1, 729974, Note_off_c, 6, 66, 127
1, 729976, Note_on_c, 4, 64, 127
1, 730045, Note_off_c, 4, 64, 127
1, 730047, Note_on_c, 2, 62, 127
1, 730116, Note_off_c, 2, 62, 127
1, 730119, Note_on_c, 12, 71, 127
1, 730185, Note_off_c, 0, 72, 127
1, 730191, Note_on_c, 7, 55, 127
1, 730260, Note_off_c, 7, 55, 127
1, 730262, Note_on_c, 10, 57, 127
1, 730331, Note_off_c, 10, 57, 127
1, 730333, Note_on_c, 12, 59, 127
1, 730402, Note_off_c, 12, 59, 127
1, 730404, Note_on_c, 2, 62, 127
1, 730476, Note_on_c, 12, 59, 127
1, 730542, Note_off_c, 2, 62, 127
1, 730546, Note_off_c, 12, 59, 127
1, 730548, Note_on_c, 10, 57, 127
1, 730617, Note_off_c, 10, 57, 127
1, 730619, Note_on_c, 7, 55, 127
1, 730683, Note_off_c, 12, 71, 127
1, 730690, Note_on_c, 5, 53, 127
1, 730758, Note_off_c, 7, 55, 127
1, 730761, Note_on_c, 7, 55, 127
1, 730830, Note_off_c, 7, 55, 127
1, 730832, Note_on_c, 10, 57, 127
1, 730901, Note_off_c, 10, 57, 127
1, 730903, Note_on_c, 11, 58, 127
1, 730972, Note_off_c, 11, 58, 127
1, 730974, Note_on_c, 2, 62, 127
1, 731046, Note_on_c, 11, 58, 127
1, 731112, Note_off_c, 2, 62, 127
1, 731116, Note_off_c, 11, 58, 127
1, 731118, Note_on_c, 10, 57, 127
1, 731187, Note_off_c, 10, 57, 127
1, 731189, Note_on_c, 7, 55, 127
1, 731253, Note_off_c, 5, 53, 127
1, 731260, Note_on_c, 4, 52, 127
1, 731328, Note_off_c, 7, 55, 127
1, 731331, Note_on_c, 8, 56, 127
1, 731400, Note_off_c, 8, 56, 127
1, 731402, Note_on_c, 10, 57, 127
1, 731471, Note_off_c, 10, 57, 127
1, 731473, Note_on_c, 12, 59, 127
1, 731542, Note_off_c, 12, 59, 127
1, 731544, Note_on_c, 2, 62, 127
1, 731616, Note_on_c, 12, 59, 127
1, 731684, Note_off_c, 2, 62, 127
1, 731685, Note_off_c, 12, 59, 127
1, 731687, Note_on_c, 10, 57, 127
1, 731756, Note_off_c, 10, 57, 127
1, 731758, Note_on_c, 8, 56, 127
1, 731827, Note_off_c, 8, 56, 127
1, 731829, Note_on_c, 10, 57, 127
1, 731966, Note_off_c, 4, 52, 127
1, 731969, Note_off_c, 10, 57, 127
1, 731972, Note_on_c, 1, 61, 127
1, 731972, Note_on_c, 4, 64, 127
1, 732041, Note_off_c, 4, 64, 127
1, 732041, Note_off_c, 1, 61, 127
1, 732043, Note_on_c, 12, 59, 127
1, 732043, Note_on_c, 2, 62, 127
1, 732112, Note_off_c, 2, 62, 127
1, 732112, Note_off_c, 12, 59, 127
1, 732114, Note_on_c, 1, 61, 127
1, 732114, Note_on_c, 4, 64, 127
1, 732254, Note_off_c, 4, 64, 127
1, 732254, Note_off_c, 1, 61, 127
1, 732258, Note_on_c, 6, 54, 127
1, 732258, Note_on_c, 10, 69, 127
1, 732327, Note_off_c, 10, 69, 127
1, 732327, Note_off_c, 6, 54, 127
1, 732329, Note_on_c, 4, 52, 127
1, 732329, Note_on_c, 7, 67, 127
1, 732398, Note_off_c, 7, 67, 127
1, 732398, Note_off_c, 4, 52, 127
1, 732400, Note_on_c, 6, 54, 127
1, 732400, Note_on_c, 10, 69, 127
1, 732540, Note_off_c, 10, 69, 127
1, 732540, Note_off_c, 6, 54, 127
1, 732543, Note_on_c, 12, 59, 127
1, 732543, Note_on_c, 2, 62, 127
1, 732612, Note_off_c, 2, 62, 127
1, 732612, Note_off_c, 12, 59, 127
1, 732614, Note_on_c, 10, 57, 127
1, 732614, Note_on_c, 1, 61, 127
1, 732683, Note_off_c, 1, 61, 127
1, 732683, Note_off_c, 10, 57, 127
1, 732685, Note_on_c, 12, 59, 127
1, 732685, Note_on_c, 2, 62, 127
1, 732825, Note_off_c, 2, 62, 127
1, 732825, Note_off_c, 12, 59, 127
1, 732828, Note_on_c, 4, 52, 127
1, 732828, Note_on_c, 7, 67, 127
1, 732897, Note_off_c, 7, 67, 127
1, 732897, Note_off_c, 4, 52, 127
1, 732899, Note_on_c, 2, 50, 127
1, 732899, Note_on_c, 6, 66, 127
1, 732968, Note_off_c, 6, 66, 127
1, 732968, Note_off_c, 2, 50, 127
1, 732970, Note_on_c, 4, 52, 127
1, 732970, Note_on_c, 7, 67, 127
1, 733110, Note_off_c, 7, 67, 127
1, 733110, Note_off_c, 4, 52, 127
1, 733113, Note_on_c, 10, 57, 127
1, 733113, Note_on_c, 1, 61, 127
1, 733182, Note_off_c, 1, 61, 127
1, 733182, Note_off_c, 10, 57, 127
1, 733184, Note_on_c, 7, 55, 127
1, 733184, Note_on_c, 12, 59, 127
1, 733253, Note_off_c, 12, 59, 127
1, 733253, Note_off_c, 7, 55, 127
1, 733255, Note_on_c, 10, 57, 127
1, 733255, Note_on_c, 1, 61, 127
1, 733395, Note_off_c, 1, 61, 127
1, 733395, Note_off_c, 10, 57, 127
1, 733398, Note_on_c, 2, 50, 127
1, 733398, Note_on_c, 6, 66, 127
1, 733467, Note_off_c, 6, 66, 127
1, 733467, Note_off_c, 2, 50, 127
1, 733469, Note_on_c, 1, 49, 127
1, 733469, Note_on_c, 4, 64, 127
1, 733538, Note_off_c, 4, 64, 127
1, 733538, Note_off_c, 1, 49, 127
1, 733540, Note_on_c, 2, 50, 127
1, 733540, Note_on_c, 6, 66, 127
1, 733609, Note_off_c, 2, 50, 127
1, 733611, Note_on_c, 4, 52, 127
1, 733679, Note_off_c, 6, 66, 127
1, 733680, Note_off_c, 4, 52, 127
1, 733682, Note_on_c, 6, 54, 127
1, 733682, Note_on_c, 2, 62, 127
1, 733751, Note_off_c, 6, 54, 127
1, 733753, Note_on_c, 7, 55, 127
1, 733821, Note_off_c, 2, 62, 127
1, 733822, Note_off_c, 7, 55, 127
1, 733824, Note_on_c, 10, 57, 127
1, 733824, Note_on_c, 1, 61, 127
1, 733893, Note_off_c, 10, 57, 127
1, 733895, Note_on_c, 7, 55, 127
1, 733963, Note_off_c, 1, 61, 127
1, 733964, Note_off_c, 7, 55, 127
1, 733966, Note_on_c, 6, 54, 127
1, 733966, Note_on_c, 2, 62, 127
1, 734035, Note_off_c, 6, 54, 127
1, 734037, Note_on_c, 4, 52, 127
1, 734105, Note_off_c, 2, 62, 127
1, 734106, Note_off_c, 4, 52, 127
1, 734108, Note_on_c, 2, 50, 127
1, 734108, Note_on_c, 6, 66, 127
1, 734177, Note_off_c, 6, 66, 127
1, 734179, Note_on_c, 4, 64, 127
1, 734247, Note_off_c, 2, 50, 127
1, 734248, Note_off_c, 4, 64, 127
1, 734250, Note_on_c, 6, 54, 127
1, 734250, Note_on_c, 2, 62, 127
1, 734390, Note_off_c, 2, 62, 127
1, 734390, Note_off_c, 6, 54, 127
1, 734393, Note_on_c, 10, 45, 127
1, 734393, Note_on_c, 10, 69, 127
1, 734462, Note_off_c, 10, 69, 127
1, 734465, Note_on_c, 7, 67, 127
1, 734532, Note_off_c, 10, 45, 127
1, 734534, Note_off_c, 7, 67, 127
1, 734536, Note_on_c, 2, 50, 127
1, 734536, Note_on_c, 6, 66, 127
1, 734676, Note_off_c, 6, 66, 127
1, 734676, Note_off_c, 2, 50, 127
1, 734679, Note_on_c, 2, 38, 127
1, 734679, Note_on_c, 2, 74, 127
1, 735180, Note_off_c, 2, 38, 127
1, 735247, Note_off_c, 2, 74, 127
1, 735253, Note_on_c, 2, 50, 127
1, 735253, Note_on_c, 6, 78, 127
1, 735397, Note_on_c, 10, 81, 127
1, 735537, Note_off_c, 10, 81, 127
1, 735540, Note_on_c, 2, 86, 127
1, 735680, Note_off_c, 2, 86, 127
1, 735684, Note_on_c, 10, 81, 127
1, 735815, Note_off_c, 6, 78, 127
1, 735820, Note_off_c, 2, 50, 127
1, 735824, Note_off_c, 10, 81, 127
1, 735827, Note_on_c, 2, 86, 127
1, 735827, Note_on_c, 6, 78, 127
1, 735896, Note_off_c, 2, 86, 127
1, 735898, Note_on_c, 0, 84, 127
1, 735966, Note_off_c, 6, 78, 127
1, 735967, Note_off_c, 0, 84, 127
1, 735969, Note_on_c, 2, 86, 127
1, 735969, Note_on_c, 10, 81, 127
1, 736038, Note_off_c, 2, 86, 127
1, 736040, Note_on_c, 0, 84, 127
1, 736108, Note_off_c, 10, 81, 127
1, 736109, Note_off_c, 0, 84, 127
1, 736111, Note_on_c, 2, 86, 127
1, 736111, Note_on_c, 2, 74, 127
1, 736180, Note_off_c, 2, 86, 127
1, 736182, Note_on_c, 0, 84, 127
1, 736250, Note_off_c, 2, 74, 127
1, 736251, Note_off_c, 0, 84, 127
1, 736253, Note_on_c, 2, 86, 127
1, 736253, Note_on_c, 6, 78, 127
1, 736322, Note_off_c, 2, 86, 127
1, 736324, Note_on_c, 0, 84, 127
1, 736392, Note_off_c, 6, 78, 127
1, 736393, Note_off_c, 0, 84, 127
1, 736395, Note_on_c, 2, 86, 127
1, 736395, Note_on_c, 10, 81, 127
1, 736464, Note_off_c, 2, 86, 127
1, 736466, Note_on_c, 0, 84, 127
1, 736534, Note_off_c, 10, 81, 127
1, 736535, Note_off_c, 0, 84, 127
1, 736537, Note_on_c, 2, 86, 127
1, 736537, Note_on_c, 6, 78, 127
1, 736606, Note_off_c, 2, 86, 127
1, 736608, Note_on_c, 0, 84, 127
1, 736676, Note_off_c, 6, 78, 127
1, 736677, Note_off_c, 0, 84, 127
1, 736679, Note_on_c, 2, 86, 127
1, 736679, Note_on_c, 7, 79, 127
1, 736748, Note_off_c, 2, 86, 127
1, 736750, Note_on_c, 0, 84, 127
1, 736818, Note_off_c, 7, 79, 127
1, 736819, Note_off_c, 0, 84, 127
1, 736821, Note_on_c, 12, 83, 127
1, 736821, Note_on_c, 10, 81, 127
1, 736890, Note_off_c, 12, 83, 127
1, 736892, Note_on_c, 0, 84, 127
1, 736960, Note_off_c, 10, 81, 127
1, 736961, Note_off_c, 0, 84, 127
1, 736963, Note_on_c, 12, 83, 127
1, 736963, Note_on_c, 2, 74, 127
1, 737107, Note_on_c, 7, 79, 127
1, 737242, Note_off_c, 12, 83, 127
1, 737247, Note_off_c, 7, 79, 127
1, 737250, Note_on_c, 12, 83, 127
1, 737394, Note_on_c, 7, 79, 127
1, 737526, Note_off_c, 2, 74, 127
1, 737533, Note_off_c, 12, 83, 127
1, 737534, Note_off_c, 7, 79, 127
1, 737537, Note_on_c, 5, 65, 127
1, 737537, Note_on_c, 2, 74, 127
1, 737606, Note_off_c, 5, 65, 127
1, 737608, Note_on_c, 4, 64, 127
1, 737676, Note_off_c, 2, 74, 127
1, 737677, Note_off_c, 4, 64, 127
1, 737679, Note_on_c, 5, 65, 127
1, 737679, Note_on_c, 7, 79, 127
1, 737748, Note_off_c, 5, 65, 127
1, 737751, Note_on_c, 4, 64, 127
1, 737818, Note_off_c, 7, 79, 127
1, 737820, Note_off_c, 4, 64, 127
1, 737822, Note_on_c, 5, 65, 127
1, 737822, Note_on_c, 12, 71, 127
1, 737962, Note_off_c, 12, 71, 127
1, 737965, Note_on_c, 2, 74, 127
1, 738105, Note_off_c, 2, 74, 127
1, 738108, Note_on_c, 7, 79, 127
1, 738246, Note_off_c, 5, 65, 127
1, 738248, Note_off_c, 7, 79, 127
1, 738251, Note_on_c, 10, 69, 127
1, 738251, Note_on_c, 12, 71, 127
1, 738391, Note_off_c, 12, 71, 127
1, 738391, Note_off_c, 10, 69, 127
1, 738394, Note_on_c, 7, 67, 127
1, 738394, Note_on_c, 0, 72, 127
1, 738534, Note_off_c, 0, 72, 127
1, 738534, Note_off_c, 7, 67, 127
1, 738537, Note_on_c, 5, 65, 127
1, 738537, Note_on_c, 2, 74, 127
1, 738677, Note_off_c, 2, 74, 127
1, 738677, Note_off_c, 5, 65, 127
1, 738680, Note_on_c, 4, 64, 127
1, 738680, Note_on_c, 7, 67, 127
1, 738824, Note_on_c, 0, 72, 127
1, 738963, Note_off_c, 7, 67, 127
1, 738964, Note_off_c, 0, 72, 127
1, 738967, Note_on_c, 4, 76, 127
1, 739107, Note_off_c, 4, 76, 127
1, 739110, Note_on_c, 0, 72, 127
1, 739247, Note_off_c, 4, 64, 127
1, 739250, Note_off_c, 0, 72, 127
1, 739254, Note_on_c, 6, 78, 127
1, 739254, Note_on_c, 10, 69, 127
1, 739394, Note_off_c, 10, 69, 127
1, 739397, Note_on_c, 0, 72, 127
1, 739536, Note_off_c, 6, 78, 127
1, 739537, Note_off_c, 0, 72, 127
1, 739540, Note_on_c, 10, 81, 127
1, 739540, Note_on_c, 6, 66, 127
1, 739680, Note_off_c, 6, 66, 127
1, 739683, Note_on_c, 10, 69, 127
1, 739822, Note_off_c, 10, 81, 127
1, 739823, Note_off_c, 10, 69, 127
1, 739826, Note_on_c, 3, 75, 127
1, 739826, Note_on_c, 0, 72, 127
1, 739966, Note_off_c, 0, 72, 127
1, 739969, Note_on_c, 6, 66, 127
1, 740108, Note_off_c, 3, 75, 127
1, 740109, Note_off_c, 6, 66, 127
1, 740112, Note_on_c, 4, 76, 127
1, 740112, Note_on_c, 7, 67, 127
1, 740252, Note_off_c, 7, 67, 127
1, 740252, Note_off_c, 4, 76, 127
1, 740255, Note_on_c, 6, 78, 127
1, 740255, Note_on_c, 10, 69, 127
1, 740395, Note_off_c, 10, 69, 127
1, 740395, Note_off_c, 6, 78, 127
1, 740398, Note_on_c, 12, 71, 127
1, 740398, Note_on_c, 3, 63, 127
1, 740543, Note_on_c, 6, 66, 127
1, 740681, Note_off_c, 12, 71, 127
1, 740683, Note_off_c, 6, 66, 127
1, 740686, Note_on_c, 12, 71, 127
1, 740830, Note_on_c, 6, 66, 127
1, 740961, Note_off_c, 3, 63, 127
1, 740969, Note_off_c, 12, 71, 127
1, 740970, Note_off_c, 6, 66, 127
1, 740973, Note_on_c, 12, 47, 127
1, 740973, Note_on_c, 3, 63, 127
1, 741042, Note_off_c, 12, 47, 127
1, 741044, Note_on_c, 10, 45, 127
1, 741112, Note_off_c, 3, 63, 127
1, 741113, Note_off_c, 10, 45, 127
1, 741115, Note_on_c, 12, 47, 127
1, 741115, Note_on_c, 6, 66, 127
1, 741184, Note_off_c, 12, 47, 127
1, 741186, Note_on_c, 10, 45, 127
1, 741254, Note_off_c, 6, 66, 127
1, 741255, Note_off_c, 10, 45, 127
1, 741257, Note_on_c, 12, 47, 127
1, 741257, Note_on_c, 12, 59, 127
1, 741326, Note_off_c, 12, 47, 127
1, 741328, Note_on_c, 10, 45, 127
1, 741396, Note_off_c, 12, 59, 127
1, 741397, Note_off_c, 10, 45, 127
1, 741399, Note_on_c, 12, 47, 127
1, 741399, Note_on_c, 3, 63, 127
1, 741468, Note_off_c, 12, 47, 127
1, 741470, Note_on_c, 10, 45, 127
1, 741538, Note_off_c, 3, 63, 127
1, 741539, Note_off_c, 10, 45, 127
1, 741541, Note_on_c, 12, 47, 127
1, 741541, Note_on_c, 6, 66, 127
1, 741610, Note_off_c, 12, 47, 127
1, 741612, Note_on_c, 10, 45, 127
1, 741680, Note_off_c, 6, 66, 127
1, 741681, Note_off_c, 10, 45, 127
1, 741683, Note_on_c, 12, 47, 127
1, 741683, Note_on_c, 3, 63, 127
1, 741752, Note_off_c, 12, 47, 127
1, 741754, Note_on_c, 10, 45, 127
1, 741822, Note_off_c, 3, 63, 127
1, 741823, Note_off_c, 10, 45, 127
1, 741825, Note_on_c, 12, 47, 127
1, 741825, Note_on_c, 4, 64, 127
1, 741894, Note_off_c, 12, 47, 127
1, 741896, Note_on_c, 10, 45, 127
1, 741964, Note_off_c, 4, 64, 127
1, 741965, Note_off_c, 10, 45, 127
1, 741967, Note_on_c, 7, 43, 127
1, 741967, Note_on_c, 6, 66, 127
1, 742036, Note_off_c, 7, 43, 127
1, 742038, Note_on_c, 10, 45, 127
1, 742106, Note_off_c, 10, 45, 127
1, 742106, Note_off_c, 6, 66, 127
1, 742109, Note_on_c, 7, 43, 127
1, 742109, Note_on_c, 12, 59, 127
1, 742253, Note_on_c, 4, 64, 127
1, 742388, Note_off_c, 7, 43, 127
1, 742393, Note_off_c, 4, 64, 127
1, 742396, Note_on_c, 4, 40, 127
1, 742396, Note_on_c, 7, 67, 127
1, 742536, Note_off_c, 7, 67, 127
1, 742540, Note_on_c, 4, 64, 127
1, 742674, Note_off_c, 12, 59, 127
1, 742678, Note_off_c, 4, 40, 127
1, 742680, Note_off_c, 4, 64, 127
1, 742683, Note_on_c, 7, 43, 127
1, 742683, Note_on_c, 12, 59, 127
1, 742823, Note_off_c, 12, 59, 127
1, 742826, Note_on_c, 4, 64, 127
1, 742965, Note_off_c, 7, 43, 127
1, 742966, Note_off_c, 4, 64, 127
1, 742969, Note_on_c, 12, 47, 127
1, 742969, Note_on_c, 7, 55, 127
1, 743109, Note_off_c, 7, 55, 127
1, 743112, Note_on_c, 12, 59, 127
1, 743251, Note_off_c, 12, 47, 127
1, 743252, Note_off_c, 12, 59, 127
1, 743255, Note_on_c, 7, 43, 127
1, 743255, Note_on_c, 4, 64, 127
1, 743395, Note_off_c, 4, 64, 127
1, 743398, Note_on_c, 3, 63, 127
1, 743537, Note_off_c, 7, 43, 127
1, 743538, Note_off_c, 3, 63, 127
1, 743541, Note_on_c, 4, 40, 127
1, 743541, Note_on_c, 4, 64, 127
1, 743681, Note_off_c, 4, 64, 127
1, 743684, Note_on_c, 7, 67, 127
1, 743823, Note_off_c, 4, 40, 127
1, 743824, Note_off_c, 7, 67, 127
1, 743827, Note_on_c, 10, 45, 127
1, 743827, Note_on_c, 0, 60, 127
1, 743972, Note_on_c, 5, 65, 127
1, 744112, Note_off_c, 5, 65, 127
1, 744115, Note_on_c, 10, 33, 127
1, 744115, Note_on_c, 10, 69, 127
1, 744255, Note_off_c, 10, 69, 127
1, 744258, Note_on_c, 5, 65, 127
1, 744389, Note_off_c, 0, 60, 127
1, 744389, Note_off_c, 10, 45, 127
1, 744397, Note_off_c, 10, 33, 127
1, 744398, Note_off_c, 5, 65, 127
1, 744401, Note_on_c, 10, 45, 127
1, 744401, Note_on_c, 0, 60, 127
1, 744541, Note_off_c, 0, 60, 127
1, 744544, Note_on_c, 5, 65, 127
1, 744683, Note_off_c, 10, 45, 127
1, 744684, Note_off_c, 5, 65, 127
1, 744687, Note_on_c, 0, 48, 127
1, 744687, Note_on_c, 10, 57, 127
1, 744827, Note_off_c, 10, 57, 127
1, 744830, Note_on_c, 0, 60, 127
1, 744969, Note_off_c, 0, 48, 127
1, 744970, Note_off_c, 0, 60, 127
1, 744973, Note_on_c, 12, 47, 127
1, 744973, Note_on_c, 5, 65, 127
1, 745113, Note_off_c, 5, 65, 127
1, 745116, Note_on_c, 4, 64, 127
1, 745255, Note_off_c, 12, 47, 127
1, 745256, Note_off_c, 4, 64, 127
1, 745260, Note_on_c, 10, 45, 127
1, 745260, Note_on_c, 5, 65, 127
1, 745400, Note_off_c, 5, 65, 127
1, 745403, Note_on_c, 10, 69, 127
1, 745542, Note_off_c, 10, 45, 127
1, 745543, Note_off_c, 10, 69, 127
1, 745546, Note_on_c, 12, 47, 127
1, 745546, Note_on_c, 3, 63, 127
1, 745690, Note_on_c, 6, 66, 127
1, 745829, Note_off_c, 12, 47, 127
1, 745830, Note_off_c, 6, 66, 127
1, 745833, Note_on_c, 3, 51, 127
1, 745833, Note_on_c, 10, 69, 127
1, 745973, Note_off_c, 10, 69, 127
1, 745976, Note_on_c, 6, 66, 127
1, 746108, Note_off_c, 3, 63, 127
1, 746115, Note_off_c, 3, 51, 127
1, 746116, Note_off_c, 6, 66, 127
1, 746119, Note_on_c, 6, 54, 127
1, 746119, Note_on_c, 3, 63, 127
1, 746259, Note_off_c, 3, 63, 127
1, 746262, Note_on_c, 6, 66, 127
1, 746401, Note_off_c, 6, 54, 127
1, 746405, Note_on_c, 12, 59, 127
1, 746450, Note_off_c, 6, 66, 127
1, 746550, Note_on_c, 3, 63, 127
1, 746688, Note_off_c, 12, 59, 127
1, 746690, Note_off_c, 3, 63, 127
1, 746693, Note_on_c, 12, 47, 127
1, 746693, Note_on_c, 6, 54, 127
1, 746833, Note_off_c, 6, 54, 127
1, 746836, Note_on_c, 10, 57, 127
1, 746975, Note_off_c, 12, 47, 127
1, 746976, Note_off_c, 10, 57, 127
1, 746979, Note_on_c, 4, 64, 127
1, 746979, Note_on_c, 7, 55, 127
1, 747119, Note_off_c, 7, 55, 127
1, 747119, Note_off_c, 4, 64, 127
1, 747122, Note_on_c, 3, 63, 127
1, 747122, Note_on_c, 6, 54, 127
1, 747262, Note_off_c, 6, 54, 127
1, 747262, Note_off_c, 3, 63, 127
1, 747265, Note_on_c, 4, 64, 127
1, 747265, Note_on_c, 7, 55, 127
1, 747409, Note_on_c, 12, 59, 127
1, 747548, Note_off_c, 7, 55, 127
1, 747549, Note_off_c, 12, 59, 127
1, 747549, Note_off_c, 4, 64, 127
1, 747552, Note_on_c, 7, 67, 127
1, 747552, Note_on_c, 4, 64, 127
1, 747696, Note_on_c, 3, 63, 127
1, 747831, Note_off_c, 4, 64, 127
1, 747835, Note_off_c, 7, 67, 127
1, 747836, Note_off_c, 3, 63, 127
1, 747840, Note_on_c, 12, 71, 127
1, 747840, Note_on_c, 4, 64, 127
1, 747984, Note_on_c, 7, 67, 127
1, 748123, Note_off_c, 12, 71, 127
1, 748124, Note_off_c, 7, 67, 127
1, 748124, Note_off_c, 4, 64, 127
1, 748127, Note_on_c, 4, 76, 127
1, 748127, Note_on_c, 4, 52, 127
1, 748267, Note_off_c, 4, 52, 127
1, 748267, Note_off_c, 4, 76, 127
1, 748270, Note_on_c, 3, 75, 127
1, 748270, Note_on_c, 6, 54, 127
1, 748410, Note_off_c, 6, 54, 127
1, 748410, Note_off_c, 3, 75, 127
1, 748413, Note_on_c, 4, 76, 127
1, 748413, Note_on_c, 7, 55, 127
1, 748553, Note_off_c, 7, 55, 127
1, 748556, Note_on_c, 4, 52, 127
1, 748696, Note_off_c, 4, 52, 127
1, 748699, Note_on_c, 7, 55, 127
1, 748839, Note_off_c, 7, 55, 127
1, 748842, Note_on_c, 12, 59, 127
1, 748982, Note_off_c, 12, 59, 127
1, 748985, Note_on_c, 4, 64, 127
1, 749123, Note_off_c, 4, 76, 127
1, 749130, Note_on_c, 0, 48, 127
1, 749199, Note_off_c, 0, 48, 127
1, 749201, Note_on_c, 12, 47, 127
1, 749270, Note_off_c, 12, 47, 127
1, 749272, Note_on_c, 0, 48, 127
1, 749365, Note_off_c, 4, 64, 127
1, 749415, Note_on_c, 4, 52, 127
1, 749484, Note_off_c, 4, 52, 127
1, 749486, Note_on_c, 2, 50, 127
1, 749555, Note_off_c, 2, 50, 127
1, 749557, Note_on_c, 4, 52, 127
1, 749695, Note_off_c, 0, 48, 127
1, 749700, Note_on_c, 10, 57, 127
1, 749769, Note_off_c, 10, 57, 127
1, 749771, Note_on_c, 8, 56, 127
1, 749840, Note_off_c, 8, 56, 127
1, 749842, Note_on_c, 10, 57, 127
1, 749980, Note_off_c, 4, 52, 127
1, 749985, Note_on_c, 0, 60, 127
1, 750054, Note_off_c, 0, 60, 127
1, 750056, Note_on_c, 12, 59, 127
1, 750125, Note_off_c, 12, 59, 127
1, 750127, Note_on_c, 0, 60, 127
1, 750265, Note_off_c, 10, 57, 127
1, 750270, Note_on_c, 4, 64, 127
1, 750339, Note_off_c, 4, 64, 127
1, 750341, Note_on_c, 2, 62, 127
1, 750410, Note_off_c, 2, 62, 127
1, 750412, Note_on_c, 4, 64, 127
1, 750550, Note_off_c, 0, 60, 127
1, 750555, Note_on_c, 10, 69, 127
1, 750624, Note_off_c, 10, 69, 127
1, 750626, Note_on_c, 7, 67, 127
1, 750695, Note_off_c, 7, 67, 127
1, 750697, Note_on_c, 10, 69, 127
1, 750835, Note_off_c, 4, 64, 127
1, 750840, Note_on_c, 12, 47, 127
1, 750909, Note_off_c, 12, 47, 127
1, 750911, Note_on_c, 10, 45, 127
1, 750977, Note_off_c, 10, 69, 127
1, 750980, Note_off_c, 10, 45, 127
1, 750982, Note_on_c, 12, 47, 127
1, 751127, Note_on_c, 2, 50, 127
1, 751196, Note_off_c, 2, 50, 127
1, 751198, Note_on_c, 0, 48, 127
1, 751267, Note_off_c, 0, 48, 127
1, 751269, Note_on_c, 2, 50, 127
1, 751406, Note_off_c, 12, 47, 127
1, 751412, Note_on_c, 7, 55, 127
1, 751481, Note_off_c, 7, 55, 127
1, 751483, Note_on_c, 6, 54, 127
1, 751552, Note_off_c, 6, 54, 127
1, 751554, Note_on_c, 7, 55, 127
1, 751692, Note_off_c, 2, 50, 127
1, 751697, Note_on_c, 12, 59, 127
1, 751766, Note_off_c, 12, 59, 127
1, 751768, Note_on_c, 10, 57, 127
1, 751837, Note_off_c, 10, 57, 127
1, 751839, Note_on_c, 12, 59, 127
1, 751977, Note_off_c, 7, 55, 127
1, 751982, Note_on_c, 2, 62, 127
1, 752051, Note_off_c, 2, 62, 127
1, 752053, Note_on_c, 0, 60, 127
1, 752122, Note_off_c, 0, 60, 127
1, 752124, Note_on_c, 2, 62, 127
1, 752262, Note_off_c, 12, 59, 127
1, 752267, Note_on_c, 7, 67, 127
1, 752336, Note_off_c, 7, 67, 127
1, 752338, Note_on_c, 6, 66, 127
1, 752407, Note_off_c, 6, 66, 127
1, 752409, Note_on_c, 7, 67, 127
1, 752547, Note_off_c, 2, 62, 127
1, 752552, Note_on_c, 10, 45, 127
1, 752621, Note_off_c, 10, 45, 127
1, 752623, Note_on_c, 7, 43, 127
1, 752689, Note_off_c, 7, 67, 127
1, 752692, Note_off_c, 7, 43, 127
1, 752694, Note_on_c, 10, 45, 127
1, 752839, Note_on_c, 0, 48, 127
1, 752908, Note_off_c, 0, 48, 127
1, 752910, Note_on_c, 12, 47, 127
1, 752979, Note_off_c, 12, 47, 127
1, 752981, Note_on_c, 0, 48, 127
1, 753118, Note_off_c, 10, 45, 127
1, 753124, Note_on_c, 4, 52, 127
1, 753193, Note_off_c, 4, 52, 127
1, 753195, Note_on_c, 2, 50, 127
1, 753264, Note_off_c, 2, 50, 127
1, 753266, Note_on_c, 4, 52, 127
1, 753404, Note_off_c, 0, 48, 127
1, 753409, Note_on_c, 10, 57, 127
1, 753478, Note_off_c, 10, 57, 127
1, 753480, Note_on_c, 7, 55, 127
1, 753549, Note_off_c, 7, 55, 127
1, 753551, Note_on_c, 10, 57, 127
1, 753689, Note_off_c, 4, 52, 127
1, 753694, Note_on_c, 0, 60, 127
1, 753763, Note_off_c, 0, 60, 127
1, 753765, Note_on_c, 12, 59, 127
1, 753834, Note_off_c, 12, 59, 127
1, 753836, Note_on_c, 0, 60, 127
1, 753974, Note_off_c, 10, 57, 127
1, 753979, Note_on_c, 6, 66, 127
1, 754048, Note_off_c, 6, 66, 127
1, 754050, Note_on_c, 4, 64, 127
1, 754119, Note_off_c, 4, 64, 127
1, 754121, Note_on_c, 6, 66, 127
1, 754259, Note_off_c, 0, 60, 127
1, 754264, Note_on_c, 10, 69, 127
1, 754333, Note_off_c, 10, 69, 127
1, 754335, Note_on_c, 7, 67, 127
1, 754404, Note_off_c, 7, 67, 127
1, 754406, Note_on_c, 10, 69, 127
1, 754544, Note_off_c, 6, 66, 127
1, 754549, Note_on_c, 2, 74, 127
1, 754618, Note_off_c, 2, 74, 127
1, 754620, Note_on_c, 0, 72, 127
1, 754689, Note_off_c, 0, 72, 127
1, 754691, Note_on_c, 2, 74, 127
1, 754829, Note_off_c, 10, 69, 127
1, 754835, Note_on_c, 6, 78, 127
1, 754904, Note_off_c, 6, 78, 127
1, 754906, Note_on_c, 4, 76, 127
1, 754975, Note_off_c, 4, 76, 127
1, 754977, Note_on_c, 6, 78, 127
1, 755114, Note_off_c, 2, 74, 127
1, 755120, Note_on_c, 7, 79, 127
1, 755185, Note_off_c, 6, 78, 127
1, 755192, Note_on_c, 6, 78, 127
1, 755253, Note_off_c, 7, 79, 127
1, 755261, Note_off_c, 6, 78, 127
1, 755263, Note_on_c, 7, 79, 127
1, 755407, Note_on_c, 10, 81, 127
1, 755473, Note_off_c, 7, 79, 127
1, 755477, Note_off_c, 10, 81, 127
1, 755479, Note_on_c, 7, 79, 127
1, 755548, Note_off_c, 7, 79, 127
1, 755550, Note_on_c, 10, 81, 127
1, 755694, Note_on_c, 12, 83, 127
1, 755760, Note_off_c, 10, 81, 127
1, 755764, Note_off_c, 12, 83, 127
1, 755766, Note_on_c, 10, 81, 127
1, 755835, Note_off_c, 10, 81, 127
1, 755837, Note_on_c, 12, 83, 127
1, 755909, Note_on_c, 7, 67, 127
1, 755978, Note_off_c, 7, 67, 127
1, 755980, Note_on_c, 10, 69, 127
1, 756049, Note_off_c, 10, 69, 127
1, 756051, Note_on_c, 12, 71, 127
1, 756120, Note_off_c, 12, 71, 127
1, 756122, Note_on_c, 2, 74, 127
1, 756195, Note_on_c, 12, 71, 127
1, 756262, Note_off_c, 2, 74, 127
1, 756264, Note_off_c, 12, 71, 127
1, 756266, Note_on_c, 10, 69, 127
1, 756335, Note_off_c, 10, 69, 127
1, 756337, Note_on_c, 7, 67, 127
1, 756400, Note_off_c, 12, 83, 127
1, 756408, Note_on_c, 2, 62, 127
1, 756476, Note_off_c, 7, 67, 127
1, 756479, Note_on_c, 7, 67, 127
1, 756548, Note_off_c, 7, 67, 127
1, 756550, Note_on_c, 10, 69, 127
1, 756619, Note_off_c, 10, 69, 127
1, 756621, Note_on_c, 12, 71, 127
1, 756690, Note_off_c, 12, 71, 127
1, 756692, Note_on_c, 2, 74, 127
1, 756764, Note_on_c, 12, 71, 127
1, 756832, Note_off_c, 2, 74, 127
1, 756833, Note_off_c, 12, 71, 127
1, 756835, Note_on_c, 10, 69, 127
1, 756904, Note_off_c, 10, 69, 127
1, 756906, Note_on_c, 7, 67, 127
1, 756970, Note_off_c, 2, 62, 127
1, 756977, Note_on_c, 5, 65, 127
1, 757045, Note_off_c, 7, 67, 127
1, 757048, Note_on_c, 7, 67, 127
1, 757117, Note_off_c, 7, 67, 127
1, 757119, Note_on_c, 10, 69, 127
1, 757188, Note_off_c, 10, 69, 127
1, 757190, Note_on_c, 12, 71, 127
1, 757259, Note_off_c, 12, 71, 127
1, 757261, Note_on_c, 2, 74, 127
1, 757333, Note_on_c, 12, 71, 127
1, 757401, Note_off_c, 2, 74, 127
1, 757402, Note_off_c, 12, 71, 127
1, 757404, Note_on_c, 10, 69, 127
1, 757473, Note_off_c, 10, 69, 127
1, 757475, Note_on_c, 7, 67, 127
1, 757544, Note_off_c, 7, 67, 127
1, 757546, Note_on_c, 0, 72, 127
1, 757613, Note_off_c, 5, 65, 127
1, 757618, Note_on_c, 4, 64, 127
1, 757687, Note_off_c, 4, 64, 127
1, 757689, Note_on_c, 5, 65, 127
1, 757758, Note_off_c, 5, 65, 127
1, 757760, Note_on_c, 7, 67, 127
1, 757823, Note_off_c, 0, 72, 127
1, 757829, Note_off_c, 7, 67, 127
1, 757831, Note_on_c, 0, 72, 127
1, 757903, Note_on_c, 7, 67, 127
1, 757972, Note_off_c, 7, 67, 127
1, 757974, Note_on_c, 5, 65, 127
1, 758043, Note_off_c, 5, 65, 127
1, 758045, Note_on_c, 4, 64, 127
1, 758114, Note_off_c, 0, 72, 127
1, 758117, Note_on_c, 10, 57, 127
1, 758185, Note_off_c, 4, 64, 127
1, 758188, Note_on_c, 6, 66, 127
1, 758257, Note_off_c, 6, 66, 127
1, 758259, Note_on_c, 7, 67, 127
1, 758328, Note_off_c, 7, 67, 127
1, 758330, Note_on_c, 10, 69, 127
1, 758399, Note_off_c, 10, 69, 127
1, 758401, Note_on_c, 0, 72, 127
1, 758474, Note_on_c, 10, 69, 127
1, 758541, Note_off_c, 0, 72, 127
1, 758543, Note_off_c, 10, 69, 127
1, 758545, Note_on_c, 7, 67, 127
1, 758614, Note_off_c, 7, 67, 127
1, 758616, Note_on_c, 6, 66, 127
1, 758679, Note_off_c, 10, 57, 127
1, 758687, Note_on_c, 4, 52, 127
1, 758755, Note_off_c, 6, 66, 127
1, 758758, Note_on_c, 7, 67, 127
1, 758827, Note_off_c, 7, 67, 127
1, 758829, Note_on_c, 10, 69, 127
1, 758898, Note_off_c, 10, 69, 127
1, 758900, Note_on_c, 11, 70, 127
1, 758969, Note_off_c, 11, 70, 127
1, 758971, Note_on_c, 1, 73, 127
1, 759043, Note_on_c, 11, 70, 127
1, 759111, Note_off_c, 1, 73, 127
1, 759112, Note_off_c, 11, 70, 127
1, 759114, Note_on_c, 10, 69, 127
1, 759183, Note_off_c, 10, 69, 127
1, 759185, Note_on_c, 7, 67, 127
1, 759249, Note_off_c, 4, 52, 127
1, 759254, Note_off_c, 7, 67, 127
1, 759256, Note_on_c, 6, 54, 127
1, 759256, Note_on_c, 2, 74, 127
1, 759396, Note_off_c, 2, 74, 127
1, 759396, Note_off_c, 6, 54, 127
1, 759399, Note_on_c, 10, 57, 127
1, 759399, Note_on_c, 0, 72, 127
1, 759468, Note_off_c, 0, 72, 127
1, 759468, Note_off_c, 10, 57, 127
1, 759470, Note_on_c, 7, 55, 127
1, 759470, Note_on_c, 12, 71, 127
1, 759539, Note_off_c, 12, 71, 127
1, 759539, Note_off_c, 7, 55, 127
1, 759541, Note_on_c, 10, 57, 127
1, 759541, Note_on_c, 0, 72, 127
1, 759681, Note_off_c, 0, 72, 127
1, 759681, Note_off_c, 10, 57, 127
1, 759684, Note_on_c, 2, 62, 127
1, 759684, Note_on_c, 12, 71, 127
1, 759753, Note_off_c, 12, 71, 127
1, 759753, Note_off_c, 2, 62, 127
1, 759755, Note_on_c, 0, 60, 127
1, 759755, Note_on_c, 10, 69, 127
1, 759824, Note_off_c, 10, 69, 127
1, 759824, Note_off_c, 0, 60, 127
1, 759826, Note_on_c, 2, 62, 127
1, 759826, Note_on_c, 12, 71, 127
1, 759966, Note_off_c, 12, 71, 127
1, 759966, Note_off_c, 2, 62, 127
1, 759969, Note_on_c, 7, 55, 127
1, 759969, Note_on_c, 11, 70, 127
1, 760038, Note_off_c, 11, 70, 127
1, 760038, Note_off_c, 7, 55, 127
1, 760040, Note_on_c, 6, 54, 127
1, 760040, Note_on_c, 10, 69, 127
1, 760109, Note_off_c, 10, 69, 127
1, 760109, Note_off_c, 6, 54, 127
1, 760111, Note_on_c, 7, 55, 127
1, 760111, Note_on_c, 11, 70, 127
1, 760251, Note_off_c, 11, 70, 127
1, 760251, Note_off_c, 7, 55, 127
1, 760254, Note_on_c, 0, 60, 127
1, 760254, Note_on_c, 10, 69, 127
1, 760323, Note_off_c, 10, 69, 127
1, 760323, Note_off_c, 0, 60, 127
1, 760325, Note_on_c, 12, 59, 127
1, 760325, Note_on_c, 7, 67, 127
1, 760394, Note_off_c, 7, 67, 127
1, 760394, Note_off_c, 12, 59, 127
1, 760396, Note_on_c, 0, 60, 127
1, 760396, Note_on_c, 10, 69, 127
1, 760536, Note_off_c, 10, 69, 127
1, 760536, Note_off_c, 0, 60, 127
1, 760539, Note_on_c, 6, 54, 127
1, 760539, Note_on_c, 2, 74, 127
1, 760608, Note_off_c, 2, 74, 127
1, 760608, Note_off_c, 6, 54, 127
1, 760610, Note_on_c, 4, 52, 127
1, 760610, Note_on_c, 0, 72, 127
1, 760679, Note_off_c, 0, 72, 127
1, 760679, Note_off_c, 4, 52, 127
1, 760681, Note_on_c, 6, 54, 127
1, 760681, Note_on_c, 2, 74, 127
1, 760821, Note_off_c, 2, 74, 127
1, 760821, Note_off_c, 6, 54, 127
1, 760825, Note_on_c, 12, 59, 127
1, 760825, Note_on_c, 7, 67, 127
1, 760894, Note_off_c, 7, 67, 127
1, 760894, Note_off_c, 12, 59, 127
1, 760896, Note_on_c, 10, 57, 127
1, 760896, Note_on_c, 6, 66, 127
1, 760965, Note_off_c, 6, 66, 127
1, 760965, Note_off_c, 10, 57, 127
1, 760967, Note_on_c, 12, 59, 127
1, 760967, Note_on_c, 7, 67, 127
1, 761036, Note_off_c, 7, 67, 127
1, 761038, Note_on_c, 10, 69, 127
1, 761106, Note_off_c, 12, 59, 127
1, 761107, Note_off_c, 10, 69, 127
1, 761109, Note_on_c, 7, 55, 127
1, 761109, Note_on_c, 12, 71, 127
1, 761178, Note_off_c, 12, 71, 127
1, 761180, Note_on_c, 0, 72, 127
1, 761248, Note_off_c, 7, 55, 127
1, 761249, Note_off_c, 0, 72, 127
1, 761251, Note_on_c, 6, 54, 127
1, 761251, Note_on_c, 2, 74, 127
1, 761320, Note_off_c, 2, 74, 127
1, 761322, Note_on_c, 0, 72, 127
1, 761390, Note_off_c, 6, 54, 127
1, 761391, Note_off_c, 0, 72, 127
1, 761393, Note_on_c, 7, 55, 127
1, 761393, Note_on_c, 12, 71, 127
1, 761462, Note_off_c, 12, 71, 127
1, 761464, Note_on_c, 10, 69, 127
1, 761532, Note_off_c, 7, 55, 127
1, 761533, Note_off_c, 10, 69, 127
1, 761535, Note_on_c, 12, 59, 127
1, 761535, Note_on_c, 7, 67, 127
1, 761604, Note_off_c, 12, 59, 127
1, 761606, Note_on_c, 10, 57, 127
1, 761674, Note_off_c, 7, 67, 127
1, 761675, Note_off_c, 10, 57, 127
1, 761677, Note_on_c, 7, 55, 127
1, 761677, Note_on_c, 12, 71, 127
1, 761817, Note_off_c, 12, 71, 127
1, 761817, Note_off_c, 7, 55, 127
1, 761820, Note_on_c, 2, 62, 127
1, 761892, Note_on_c, 0, 60, 127
1, 761960, Note_off_c, 2, 62, 127
1, 761961, Note_off_c, 0, 60, 127
1, 761986, Note_on_c, 12, 59, 127
1, 761986, Note_on_c, 7, 67, 127
1, 762163, Note_off_c, 7, 67, 127
1, 762163, Note_off_c, 12, 59, 127
1, 762224, Note_on_c, 7, 67, 127
1, 762224, Note_on_c, 7, 55, 127
1, 765024, Note_off_c, 7, 67, 127
1, 765824, Note_off_c, 7, 55, 127
1, 766481, Note_on_c, 7, 55, 127
1, 766863, Note_on_c, 7, 67, 127
1, 767234, Note_off_c, 7, 55, 127
1, 767238, Note_off_c, 7, 67, 127
1, 767245, Note_on_c, 7, 43, 127
1, 767245, Note_on_c, 7, 67, 127
1, 767620, Note_off_c, 7, 67, 127
1, 767626, Note_on_c, 5, 65, 127
1, 768001, Note_off_c, 5, 65, 127
1, 768008, Note_on_c, 5, 65, 127
1, 768383, Note_off_c, 5, 65, 127
1, 768389, Note_on_c, 3, 63, 127
1, 768754, Note_off_c, 7, 43, 127
1, 768764, Note_off_c, 3, 63, 127
1, 768771, Note_on_c, 7, 55, 127
1, 768771, Note_on_c, 3, 63, 127
1, 769146, Note_off_c, 3, 63, 127
1, 769153, Note_on_c, 2, 62, 127
1, 769528, Note_off_c, 2, 62, 127
1, 769534, Note_on_c, 2, 62, 127
1, 769902, Note_off_c, 7, 55, 127
1, 769916, Note_on_c, 6, 54, 127
1, 769916, Note_on_c, 2, 74, 127
1, 770102, Note_off_c, 6, 54, 127
1, 770107, Note_on_c, 4, 52, 127
1, 770291, Note_off_c, 2, 74, 127
1, 770293, Note_off_c, 4, 52, 127
1, 770297, Note_on_c, 6, 54, 127
1, 770297, Note_on_c, 2, 74, 127
1, 770672, Note_off_c, 2, 74, 127
1, 770679, Note_on_c, 4, 76, 127
1, 771054, Note_off_c, 4, 76, 127
1, 771061, Note_on_c, 4, 76, 127
1, 771426, Note_off_c, 2, 62, 127
1, 771436, Note_off_c, 4, 76, 127
1, 771442, Note_on_c, 0, 60, 127
1, 771442, Note_on_c, 6, 78, 127
1, 771806, Note_off_c, 6, 54, 127
1, 771817, Note_off_c, 6, 78, 127
1, 771817, Note_off_c, 0, 60, 127
1, 771824, Note_on_c, 2, 50, 127
1, 771824, Note_on_c, 11, 58, 127
1, 771824, Note_on_c, 6, 78, 127
1, 772199, Note_off_c, 6, 78, 127
1, 772199, Note_off_c, 11, 58, 127
1, 772205, Note_on_c, 10, 57, 127
1, 772205, Note_on_c, 7, 79, 127
1, 772577, Note_off_c, 2, 50, 127
1, 772580, Note_off_c, 7, 79, 127
1, 772580, Note_off_c, 10, 57, 127
1, 772587, Note_on_c, 3, 51, 127
1, 772587, Note_on_c, 7, 55, 127
1, 772587, Note_on_c, 7, 79, 127
1, 772962, Note_off_c, 7, 55, 127
1, 772969, Note_on_c, 1, 61, 127
1, 773340, Note_off_c, 3, 51, 127
1, 773344, Note_off_c, 1, 61, 127
1, 773350, Note_on_c, 4, 52, 127
1, 773350, Note_on_c, 1, 61, 127
1, 773536, Note_off_c, 1, 61, 127
1, 773541, Note_on_c, 2, 62, 127
1, 773727, Note_off_c, 2, 62, 127
1, 773732, Note_on_c, 1, 61, 127
1, 774103, Note_off_c, 4, 52, 127
1, 774107, Note_off_c, 1, 61, 127
1, 774113, Note_on_c, 7, 67, 127
1, 774479, Note_off_c, 7, 79, 127
1, 774495, Note_on_c, 10, 81, 127
1, 774870, Note_off_c, 10, 81, 127
1, 774877, Note_on_c, 3, 63, 127
1, 774877, Note_on_c, 11, 82, 127
1, 775252, Note_off_c, 11, 82, 127
1, 775258, Note_on_c, 0, 84, 127
1, 775630, Note_off_c, 3, 63, 127
1, 775633, Note_off_c, 0, 84, 127
1, 775640, Note_on_c, 2, 62, 127
1, 775640, Note_on_c, 2, 86, 127
1, 776015, Note_off_c, 2, 86, 127
1, 776015, Note_off_c, 2, 62, 127
1, 776021, Note_on_c, 1, 61, 127
1, 776021, Note_on_c, 10, 81, 127
1, 776383, Note_off_c, 7, 67, 127
1, 776396, Note_off_c, 10, 81, 127
1, 776396, Note_off_c, 1, 61, 127
1, 776403, Note_on_c, 2, 62, 127
1, 776403, Note_on_c, 6, 66, 127
1, 776403, Note_on_c, 10, 81, 127
1, 776589, Note_off_c, 10, 81, 127
1, 776594, Note_on_c, 8, 80, 127
1, 776778, Note_off_c, 6, 66, 127
1, 776780, Note_off_c, 8, 80, 127
1, 776785, Note_on_c, 4, 64, 127
1, 776785, Note_on_c, 10, 81, 127
1, 777160, Note_off_c, 10, 81, 127
1, 777160, Note_off_c, 4, 64, 127
1, 777166, Note_on_c, 6, 66, 127
1, 777166, Note_on_c, 2, 74, 127
1, 777534, Note_off_c, 2, 62, 127
1, 777541, Note_off_c, 6, 66, 127
1, 777548, Note_on_c, 0, 60, 127
1, 777548, Note_on_c, 7, 67, 127
1, 777923, Note_off_c, 7, 67, 127
1, 777923, Note_off_c, 0, 60, 127
1, 777929, Note_on_c, 11, 58, 127
1, 777929, Note_on_c, 7, 67, 127
1, 778304, Note_off_c, 7, 67, 127
1, 778304, Note_off_c, 11, 58, 127
1, 778311, Note_on_c, 10, 57, 127
1, 778311, Note_on_c, 10, 69, 127
1, 778686, Note_off_c, 10, 69, 127
1, 778686, Note_off_c, 10, 57, 127
1, 778693, Note_on_c, 7, 55, 127
1, 778693, Note_on_c, 11, 70, 127
1, 778879, Note_off_c, 7, 55, 127
1, 778883, Note_on_c, 6, 54, 127
1, 779069, Note_off_c, 6, 54, 127
1, 779074, Note_on_c, 7, 55, 127
1, 779436, Note_off_c, 2, 74, 127
1, 779449, Note_off_c, 7, 55, 127
1, 779456, Note_on_c, 0, 48, 127
1, 779456, Note_on_c, 3, 75, 127
1, 779831, Note_off_c, 3, 75, 127
1, 779831, Note_off_c, 0, 48, 127
1, 779837, Note_on_c, 7, 55, 127
1, 779837, Note_on_c, 5, 77, 127
1, 780212, Note_off_c, 5, 77, 127
1, 780212, Note_off_c, 7, 55, 127
1, 780219, Note_on_c, 0, 60, 127
1, 780219, Note_on_c, 3, 75, 127
1, 780594, Note_off_c, 3, 75, 127
1, 780594, Note_off_c, 0, 60, 127
1, 780601, Note_on_c, 6, 54, 127
1, 780601, Note_on_c, 2, 74, 127
1, 780958, Note_off_c, 11, 70, 127
1, 780976, Note_off_c, 2, 74, 127
1, 780976, Note_off_c, 6, 54, 127
1, 780982, Note_on_c, 6, 54, 127
1, 780982, Note_on_c, 10, 69, 127
1, 780982, Note_on_c, 2, 74, 127
1, 781357, Note_off_c, 2, 74, 127
1, 781357, Note_off_c, 6, 54, 127
1, 781364, Note_on_c, 7, 55, 127
1, 781364, Note_on_c, 0, 72, 127
1, 781735, Note_off_c, 10, 69, 127
1, 781739, Note_off_c, 0, 72, 127
1, 781739, Note_off_c, 7, 55, 127
1, 781745, Note_on_c, 7, 55, 127
1, 781745, Note_on_c, 2, 62, 127
1, 781745, Note_on_c, 11, 70, 127
1, 781931, Note_off_c, 2, 62, 127
1, 781936, Note_on_c, 0, 60, 127
1, 782120, Note_off_c, 7, 55, 127
1, 782122, Note_off_c, 0, 60, 127
1, 782127, Note_on_c, 6, 54, 127
1, 782127, Note_on_c, 3, 63, 127
1, 782502, Note_off_c, 3, 63, 127
1, 782502, Note_off_c, 6, 54, 127
1, 782509, Note_on_c, 7, 55, 127
1, 782509, Note_on_c, 2, 62, 127
1, 782884, Note_off_c, 2, 62, 127
1, 782884, Note_off_c, 7, 55, 127
1, 782890, Note_on_c, 10, 57, 127
1, 782890, Note_on_c, 0, 60, 127
1, 783265, Note_off_c, 0, 60, 127
1, 783265, Note_off_c, 10, 57, 127
1, 783272, Note_on_c, 2, 50, 127
1, 783272, Note_on_c, 11, 58, 127
1, 783647, Note_off_c, 11, 58, 127
1, 783653, Note_on_c, 10, 57, 127
1, 784010, Note_off_c, 11, 70, 127
1, 784025, Note_off_c, 2, 50, 127
1, 784028, Note_off_c, 10, 57, 127
1, 784035, Note_on_c, 3, 51, 127
1, 784035, Note_on_c, 7, 55, 127
1, 784035, Note_on_c, 0, 72, 127
1, 784410, Note_off_c, 7, 55, 127
1, 784417, Note_on_c, 10, 57, 127
1, 784635, Note_off_c, 0, 72, 127
1, 784788, Note_off_c, 3, 51, 127
1, 784792, Note_off_c, 10, 57, 127
1, 784798, Note_on_c, 11, 46, 127
1, 784798, Note_on_c, 11, 58, 127
1, 784798, Note_on_c, 7, 79, 127
1, 784984, Note_off_c, 7, 79, 127
1, 784989, Note_on_c, 10, 81, 127
1, 785173, Note_off_c, 11, 58, 127
1, 785175, Note_off_c, 10, 81, 127
1, 785180, Note_on_c, 2, 62, 127
1, 785180, Note_on_c, 6, 78, 127
1, 785512, Note_off_c, 11, 46, 127
1, 785555, Note_off_c, 6, 78, 127
1, 785555, Note_off_c, 2, 62, 127
1, 785561, Note_on_c, 11, 58, 127
1, 785561, Note_on_c, 7, 67, 127
1, 785561, Note_on_c, 7, 79, 127
1, 785936, Note_off_c, 7, 79, 127
1, 785936, Note_off_c, 11, 58, 127
1, 785943, Note_on_c, 0, 60, 127
1, 785943, Note_on_c, 10, 81, 127
1, 786318, Note_off_c, 10, 81, 127
1, 786318, Note_off_c, 0, 60, 127
1, 786325, Note_on_c, 2, 62, 127
1, 786325, Note_on_c, 11, 82, 127
1, 786700, Note_off_c, 11, 82, 127
1, 786706, Note_on_c, 0, 84, 127
1, 787070, Note_off_c, 7, 67, 127
1, 787081, Note_off_c, 0, 84, 127
1, 787088, Note_on_c, 6, 66, 127
1, 787088, Note_on_c, 2, 86, 127
1, 787463, Note_off_c, 2, 86, 127
1, 787469, Note_on_c, 0, 84, 127
1, 787834, Note_off_c, 2, 62, 127
1, 787841, Note_off_c, 6, 66, 127
1, 787844, Note_off_c, 0, 84, 127
1, 787851, Note_on_c, 7, 55, 127
1, 787851, Note_on_c, 7, 67, 127
1, 787851, Note_on_c, 11, 82, 127
1, 788226, Note_off_c, 11, 82, 127
1, 788233, Note_on_c, 10, 81, 127
1, 788419, Note_off_c, 10, 81, 127
1, 788423, Note_on_c, 7, 79, 127
1, 788604, Note_off_c, 7, 55, 127
1, 788609, Note_off_c, 7, 79, 127
1, 788614, Note_on_c, 11, 46, 127
1, 788614, Note_on_c, 2, 74, 127
1, 788800, Note_off_c, 11, 46, 127
1, 788805, Note_on_c, 0, 48, 127
1, 788991, Note_off_c, 0, 48, 127
1, 788996, Note_on_c, 2, 50, 127
1, 789182, Note_off_c, 2, 50, 127
1, 789187, Note_on_c, 11, 46, 127
1, 789373, Note_off_c, 11, 46, 127
1, 789377, Note_on_c, 7, 43, 127
1, 789743, Note_off_c, 7, 67, 127
1, 789759, Note_on_c, 6, 66, 127
1, 790123, Note_off_c, 2, 74, 127
1, 790134, Note_off_c, 6, 66, 127
1, 790141, Note_on_c, 7, 67, 127
1, 790141, Note_on_c, 3, 75, 127
1, 790516, Note_off_c, 7, 67, 127
1, 790522, Note_on_c, 10, 69, 127
1, 790894, Note_off_c, 3, 75, 127
1, 790897, Note_off_c, 10, 69, 127
1, 790904, Note_on_c, 11, 70, 127
1, 790904, Note_on_c, 2, 74, 127
1, 791054, Note_off_c, 7, 43, 127
1, 791280, Note_off_c, 11, 70, 127
1, 791286, Note_on_c, 6, 54, 127
1, 791286, Note_on_c, 10, 69, 127
1, 791661, Note_off_c, 10, 69, 127
1, 791661, Note_off_c, 6, 54, 127
1, 791668, Note_on_c, 7, 55, 127
1, 791668, Note_on_c, 10, 69, 127
1, 792043, Note_off_c, 10, 69, 127
1, 792043, Note_off_c, 7, 55, 127
1, 792050, Note_on_c, 10, 57, 127
1, 792050, Note_on_c, 7, 67, 127
1, 792425, Note_off_c, 7, 67, 127
1, 792425, Note_off_c, 10, 57, 127
1, 792431, Note_on_c, 11, 58, 127
1, 792431, Note_on_c, 7, 67, 127
1, 792797, Note_off_c, 2, 74, 127
1, 792806, Note_off_c, 7, 67, 127
1, 792813, Note_on_c, 6, 66, 127
1, 792813, Note_on_c, 3, 75, 127
1, 793184, Note_off_c, 11, 58, 127
1, 793188, Note_off_c, 3, 75, 127
1, 793188, Note_off_c, 6, 66, 127
1, 793194, Note_on_c, 10, 57, 127
1, 793194, Note_on_c, 6, 66, 127
1, 793194, Note_on_c, 2, 74, 127
1, 793569, Note_off_c, 2, 74, 127
1, 793569, Note_off_c, 6, 66, 127
1, 793576, Note_on_c, 7, 67, 127
1, 793576, Note_on_c, 0, 72, 127
1, 793947, Note_off_c, 10, 57, 127
1, 793951, Note_off_c, 0, 72, 127
1, 793951, Note_off_c, 7, 67, 127
1, 793958, Note_on_c, 7, 55, 127
1, 793958, Note_on_c, 7, 67, 127
1, 793958, Note_on_c, 11, 70, 127
1, 794333, Note_off_c, 11, 70, 127
1, 794333, Note_off_c, 7, 67, 127
1, 794333, Note_off_c, 7, 55, 127
1, 794339, Note_on_c, 6, 54, 127
1, 794339, Note_on_c, 0, 72, 127
1, 794714, Note_off_c, 0, 72, 127
1, 794721, Note_on_c, 0, 72, 127
1, 795096, Note_off_c, 0, 72, 127
1, 795102, Note_on_c, 4, 52, 127
1, 795102, Note_on_c, 2, 74, 127
1, 795443, Note_off_c, 6, 54, 127
1, 795477, Note_off_c, 2, 74, 127
1, 795477, Note_off_c, 4, 52, 127
1, 795484, Note_on_c, 6, 54, 127
1, 795484, Note_on_c, 2, 74, 127
1, 795670, Note_off_c, 6, 54, 127
1, 795675, Note_on_c, 10, 57, 127
1, 795859, Note_off_c, 2, 74, 127
1, 795861, Note_off_c, 10, 57, 127
1, 795866, Note_on_c, 7, 55, 127
1, 795866, Note_on_c, 3, 75, 127
1, 796241, Note_off_c, 3, 75, 127
1, 796247, Note_on_c, 0, 60, 127
1, 796247, Note_on_c, 3, 75, 127
1, 796619, Note_off_c, 7, 55, 127
1, 796622, Note_off_c, 3, 75, 127
1, 796629, Note_on_c, 6, 54, 127
1, 796629, Note_on_c, 2, 74, 127
1, 797000, Note_off_c, 0, 60, 127
1, 797004, Note_off_c, 2, 74, 127
1, 797004, Note_off_c, 6, 54, 127
1, 797010, Note_on_c, 7, 55, 127
1, 797010, Note_on_c, 11, 58, 127
1, 797010, Note_on_c, 2, 74, 127
1, 797385, Note_off_c, 7, 55, 127
1, 797392, Note_on_c, 10, 57, 127
1, 797763, Note_off_c, 11, 58, 127
1, 797767, Note_off_c, 10, 57, 127
1, 797774, Note_on_c, 11, 58, 127
1, 797774, Note_on_c, 7, 67, 127
1, 798149, Note_off_c, 7, 67, 127
1, 798149, Note_off_c, 11, 58, 127
1, 798155, Note_on_c, 10, 57, 127
1, 798155, Note_on_c, 5, 65, 127
1, 798530, Note_off_c, 10, 57, 127
1, 798537, Note_on_c, 7, 55, 127
1, 798723, Note_off_c, 7, 55, 127
1, 798728, Note_on_c, 10, 57, 127
1, 798908, Note_off_c, 5, 65, 127
1, 798914, Note_off_c, 10, 57, 127
1, 798918, Note_on_c, 7, 55, 127
1, 798918, Note_on_c, 4, 64, 127
1, 799280, Note_off_c, 2, 74, 127
1, 799293, Note_off_c, 7, 55, 127
1, 799300, Note_on_c, 5, 53, 127
1, 799300, Note_on_c, 10, 81, 127
1, 799486, Note_off_c, 5, 53, 127
1, 799491, Note_on_c, 7, 55, 127
1, 799671, Note_off_c, 4, 64, 127
1, 799677, Note_off_c, 7, 55, 127
1, 799682, Note_on_c, 5, 53, 127
1, 799682, Note_on_c, 2, 62, 127
1, 800053, Note_off_c, 10, 81, 127
1, 800057, Note_off_c, 2, 62, 127
1, 800057, Note_off_c, 5, 53, 127
1, 800063, Note_on_c, 4, 52, 127
1, 800063, Note_on_c, 1, 61, 127
1, 800063, Note_on_c, 11, 82, 127
1, 800438, Note_off_c, 4, 52, 127
1, 800445, Note_on_c, 5, 53, 127
1, 800816, Note_off_c, 11, 82, 127
1, 800816, Note_off_c, 1, 61, 127
1, 800820, Note_off_c, 5, 53, 127
1, 800826, Note_on_c, 7, 55, 127
1, 800826, Note_on_c, 11, 70, 127
1, 800826, Note_on_c, 2, 74, 127
1, 801201, Note_off_c, 2, 74, 127
1, 801201, Note_off_c, 7, 55, 127
1, 801208, Note_on_c, 4, 52, 127
1, 801208, Note_on_c, 4, 76, 127
1, 801579, Note_off_c, 11, 70, 127
1, 801583, Note_off_c, 4, 52, 127
1, 801590, Note_on_c, 1, 49, 127
1, 801590, Note_on_c, 10, 69, 127
1, 801961, Note_off_c, 4, 76, 127
1, 801965, Note_off_c, 1, 49, 127
1, 801971, Note_on_c, 2, 50, 127
1, 801971, Note_on_c, 5, 77, 127
1, 802343, Note_off_c, 10, 69, 127
1, 802346, Note_off_c, 2, 50, 127
1, 802353, Note_on_c, 4, 52, 127
1, 802353, Note_on_c, 1, 61, 127
1, 802724, Note_off_c, 5, 77, 127
1, 802728, Note_off_c, 4, 52, 127
1, 802734, Note_on_c, 1, 49, 127
1, 802734, Note_on_c, 7, 79, 127
1, 803104, Note_off_c, 1, 61, 127
1, 803109, Note_off_c, 7, 79, 127
1, 803109, Note_off_c, 1, 49, 127
1, 803116, Note_on_c, 5, 53, 127
1, 803116, Note_on_c, 10, 81, 127
1, 803302, Note_off_c, 5, 53, 127
1, 803307, Note_on_c, 4, 52, 127
1, 803493, Note_off_c, 4, 52, 127
1, 803498, Note_on_c, 2, 50, 127
1, 803869, Note_off_c, 10, 81, 127
1, 803873, Note_off_c, 2, 50, 127
1, 803879, Note_on_c, 7, 55, 127
1, 803879, Note_on_c, 2, 62, 127
1, 803879, Note_on_c, 11, 70, 127
1, 804065, Note_off_c, 2, 62, 127
1, 804070, Note_on_c, 1, 61, 127
1, 804256, Note_off_c, 1, 61, 127
1, 804261, Note_on_c, 2, 62, 127
1, 804632, Note_off_c, 11, 70, 127
1, 804642, Note_on_c, 0, 72, 127
1, 805014, Note_off_c, 2, 62, 127
1, 805024, Note_on_c, 2, 62, 127
1, 805388, Note_off_c, 7, 55, 127
1, 805395, Note_off_c, 0, 72, 127
1, 805406, Note_on_c, 6, 54, 127
1, 805406, Note_on_c, 10, 81, 127
1, 805777, Note_off_c, 2, 62, 127
1, 805787, Note_on_c, 2, 62, 127
1, 806159, Note_off_c, 6, 54, 127
1, 806169, Note_on_c, 11, 58, 127
1, 806540, Note_off_c, 2, 62, 127
1, 806550, Note_on_c, 4, 64, 127
1, 806736, Note_off_c, 4, 64, 127
1, 806741, Note_on_c, 2, 62, 127
1, 806915, Note_off_c, 10, 81, 127
1, 806922, Note_off_c, 11, 58, 127
1, 806927, Note_off_c, 2, 62, 127
1, 806932, Note_on_c, 4, 52, 127
1, 806932, Note_on_c, 1, 61, 127
1, 806932, Note_on_c, 7, 79, 127
1, 807118, Note_off_c, 7, 79, 127
1, 807123, Note_on_c, 10, 81, 127
1, 807307, Note_off_c, 1, 61, 127
1, 807309, Note_off_c, 10, 81, 127
1, 807314, Note_on_c, 12, 59, 127
1, 807314, Note_on_c, 7, 79, 127
1, 807685, Note_off_c, 4, 52, 127
1, 807689, Note_off_c, 12, 59, 127
1, 807695, Note_on_c, 10, 57, 127
1, 807695, Note_on_c, 1, 61, 127
1, 808067, Note_off_c, 7, 79, 127
1, 808070, Note_off_c, 1, 61, 127
1, 808077, Note_on_c, 4, 64, 127
1, 808077, Note_on_c, 7, 79, 127
1, 808448, Note_off_c, 10, 57, 127
1, 808452, Note_off_c, 4, 64, 127
1, 808458, Note_on_c, 1, 49, 127
1, 808458, Note_on_c, 10, 69, 127
1, 808830, Note_off_c, 7, 79, 127
1, 808840, Note_on_c, 7, 79, 127
1, 809211, Note_off_c, 1, 49, 127
1, 809222, Note_on_c, 2, 50, 127
1, 809593, Note_off_c, 7, 79, 127
1, 809603, Note_on_c, 5, 77, 127
1, 809789, Note_off_c, 5, 77, 127
1, 809794, Note_on_c, 7, 79, 127
1, 809967, Note_off_c, 10, 69, 127
1, 809975, Note_off_c, 2, 50, 127
1, 809980, Note_off_c, 7, 79, 127
1, 809985, Note_on_c, 5, 53, 127
1, 809985, Note_on_c, 2, 62, 127
1, 809985, Note_on_c, 10, 81, 127
1, 810360, Note_off_c, 10, 81, 127
1, 810360, Note_off_c, 5, 53, 127
1, 810366, Note_on_c, 4, 52, 127
1, 810366, Note_on_c, 11, 82, 127
1, 810741, Note_off_c, 11, 82, 127
1, 810741, Note_off_c, 4, 52, 127
1, 810748, Note_on_c, 5, 53, 127
1, 810748, Note_on_c, 10, 81, 127
1, 811116, Note_off_c, 2, 62, 127
1, 811123, Note_off_c, 10, 81, 127
1, 811130, Note_on_c, 4, 64, 127
1, 811130, Note_on_c, 5, 77, 127
1, 811316, Note_off_c, 4, 64, 127
1, 811320, Note_on_c, 5, 65, 127
1, 811501, Note_off_c, 5, 53, 127
1, 811505, Note_off_c, 5, 77, 127
1, 811506, Note_off_c, 5, 65, 127
1, 811511, Note_on_c, 10, 57, 127
1, 811511, Note_on_c, 4, 64, 127
1, 811511, Note_on_c, 1, 73, 127
1, 811697, Note_off_c, 4, 64, 127
1, 811702, Note_on_c, 2, 62, 127
1, 811888, Note_off_c, 2, 62, 127
1, 811893, Note_on_c, 4, 64, 127
1, 812264, Note_off_c, 1, 73, 127
1, 812264, Note_off_c, 10, 57, 127
1, 812268, Note_off_c, 4, 64, 127
1, 812274, Note_on_c, 2, 62, 127
1, 812656, Note_on_c, 0, 60, 127
1, 812842, Note_off_c, 0, 60, 127
1, 812847, Note_on_c, 11, 58, 127
1, 813033, Note_off_c, 11, 58, 127
1, 813038, Note_on_c, 10, 57, 127
1, 813038, Note_on_c, 7, 79, 127
1, 813224, Note_off_c, 10, 57, 127
1, 813228, Note_on_c, 7, 55, 127
1, 813414, Note_off_c, 7, 55, 127
1, 813419, Note_on_c, 10, 57, 127
1, 813794, Note_off_c, 10, 57, 127
1, 813801, Note_on_c, 2, 50, 127
1, 814169, Note_off_c, 7, 79, 127
1, 814182, Note_on_c, 6, 78, 127
1, 814368, Note_off_c, 6, 78, 127
1, 814373, Note_on_c, 4, 76, 127
1, 814559, Note_off_c, 4, 76, 127
1, 814564, Note_on_c, 6, 78, 127
1, 815300, Note_off_c, 2, 62, 127
1, 815310, Note_off_c, 2, 50, 127
1, 815317, Note_off_c, 6, 78, 127
1, 815339, Note_on_c, 2, 50, 127
1, 815725, Note_on_c, 3, 63, 127
1, 816092, Note_off_c, 2, 50, 127
1, 816100, Note_off_c, 3, 63, 127
1, 816106, Note_on_c, 6, 66, 127
1, 816106, Note_on_c, 3, 63, 127
1, 816481, Note_off_c, 3, 63, 127
1, 816488, Note_on_c, 2, 62, 127
1, 816859, Note_off_c, 6, 66, 127
1, 816863, Note_off_c, 2, 62, 127
1, 816870, Note_on_c, 7, 67, 127
1, 816870, Note_on_c, 2, 62, 127
1, 817245, Note_off_c, 2, 62, 127
1, 817251, Note_on_c, 0, 60, 127
1, 817623, Note_off_c, 7, 67, 127
1, 817626, Note_off_c, 0, 60, 127
1, 817633, Note_on_c, 10, 69, 127
1, 817633, Note_on_c, 0, 60, 127
1, 818008, Note_off_c, 0, 60, 127
1, 818014, Note_on_c, 11, 58, 127
1, 818386, Note_off_c, 10, 69, 127
1, 818389, Note_off_c, 11, 58, 127
1, 818396, Note_on_c, 2, 62, 127
1, 818396, Note_on_c, 11, 58, 127
1, 818771, Note_off_c, 11, 58, 127
1, 818778, Note_on_c, 2, 74, 127
1, 818778, Note_on_c, 6, 54, 127
1, 819149, Note_off_c, 2, 62, 127
1, 819153, Note_off_c, 6, 54, 127
1, 819159, Note_on_c, 3, 75, 127
1, 819159, Note_on_c, 6, 54, 127
1, 819531, Note_off_c, 2, 74, 127
1, 819534, Note_off_c, 6, 54, 127
1, 819541, Note_on_c, 0, 72, 127
1, 819541, Note_on_c, 7, 55, 127
1, 819912, Note_off_c, 3, 75, 127
1, 819916, Note_off_c, 7, 55, 127
1, 819922, Note_on_c, 2, 74, 127
1, 819922, Note_on_c, 7, 55, 127
1, 820294, Note_off_c, 0, 72, 127
1, 820297, Note_off_c, 7, 55, 127
1, 820304, Note_on_c, 11, 70, 127
1, 820304, Note_on_c, 2, 50, 127
1, 820675, Note_off_c, 2, 74, 127
1, 820679, Note_off_c, 2, 50, 127
1, 820686, Note_on_c, 0, 72, 127
1, 820686, Note_on_c, 2, 50, 127
1, 821057, Note_off_c, 11, 70, 127
1, 821067, Note_on_c, 10, 69, 127
1, 821439, Note_off_c, 0, 72, 127
1, 821442, Note_off_c, 10, 69, 127
1, 821449, Note_on_c, 7, 79, 127
1, 821449, Note_on_c, 11, 70, 127
1, 821817, Note_off_c, 2, 50, 127
1, 821824, Note_off_c, 7, 79, 127
1, 821830, Note_on_c, 7, 67, 127
1, 821830, Note_on_c, 0, 48, 127
1, 822016, Note_off_c, 0, 48, 127
1, 822021, Note_on_c, 11, 46, 127
1, 822202, Note_off_c, 11, 70, 127
1, 822207, Note_off_c, 11, 46, 127
1, 822212, Note_on_c, 3, 63, 127
1, 822212, Note_on_c, 0, 48, 127
1, 822583, Note_off_c, 7, 67, 127
1, 822587, Note_off_c, 0, 48, 127
1, 822594, Note_on_c, 8, 68, 127
1, 822594, Note_on_c, 5, 41, 127
1, 822965, Note_off_c, 3, 63, 127
1, 822969, Note_off_c, 5, 41, 127
1, 822975, Note_on_c, 2, 62, 127
1, 822975, Note_on_c, 5, 53, 127
1, 823347, Note_off_c, 8, 68, 127
1, 823350, Note_off_c, 5, 53, 127
1, 823357, Note_on_c, 11, 70, 127
1, 823357, Note_on_c, 11, 46, 127
1, 823728, Note_off_c, 2, 62, 127
1, 823732, Note_off_c, 11, 46, 127
1, 823738, Note_on_c, 7, 67, 127
1, 823738, Note_on_c, 3, 51, 127
1, 824110, Note_off_c, 11, 70, 127
1, 824120, Note_on_c, 0, 72, 127
1, 824491, Note_off_c, 7, 67, 127
1, 824502, Note_on_c, 11, 70, 127
1, 824502, Note_on_c, 5, 65, 127
1, 824504, Note_off_c, 0, 72, 127
1, 824869, Note_off_c, 3, 51, 127
1, 824877, Note_off_c, 5, 65, 127
1, 824883, Note_on_c, 7, 67, 127
1, 824883, Note_on_c, 2, 50, 127
1, 825069, Note_off_c, 2, 50, 127
1, 825074, Note_on_c, 0, 48, 127
1, 825255, Note_off_c, 11, 70, 127
1, 825258, Note_off_c, 7, 67, 127
1, 825260, Note_off_c, 0, 48, 127
1, 825265, Note_on_c, 5, 77, 127
1, 825265, Note_on_c, 8, 68, 127
1, 825265, Note_on_c, 2, 50, 127
1, 825451, Note_off_c, 2, 50, 127
1, 825456, Note_on_c, 0, 48, 127
1, 825642, Note_off_c, 0, 48, 127
1, 825646, Note_on_c, 11, 46, 127
1, 826016, Note_off_c, 8, 68, 127
1, 826018, Note_off_c, 5, 77, 127
1, 826021, Note_off_c, 11, 46, 127
1, 826028, Note_on_c, 7, 79, 127
1, 826028, Note_on_c, 3, 51, 127
1, 826403, Note_off_c, 3, 51, 127
1, 826410, Note_on_c, 11, 70, 127
1, 826410, Note_on_c, 7, 43, 127
1, 826781, Note_off_c, 7, 79, 127
1, 826785, Note_off_c, 7, 43, 127
1, 826791, Note_on_c, 2, 74, 127
1, 826791, Note_on_c, 8, 44, 127
1, 827163, Note_off_c, 11, 70, 127
1, 827166, Note_off_c, 8, 44, 127
1, 827173, Note_on_c, 8, 68, 127
1, 827173, Note_on_c, 11, 46, 127
1, 827544, Note_off_c, 2, 74, 127
1, 827548, Note_off_c, 11, 46, 127
1, 827548, Note_off_c, 8, 68, 127
1, 827554, Note_on_c, 3, 75, 127
1, 827554, Note_on_c, 7, 67, 127
1, 827554, Note_on_c, 0, 36, 127
1, 827929, Note_off_c, 0, 36, 127
1, 827929, Note_off_c, 7, 67, 127
1, 827929, Note_off_c, 3, 75, 127
1, 827936, Note_on_c, 2, 74, 127
1, 827936, Note_on_c, 11, 70, 127
1, 827936, Note_on_c, 7, 43, 127
1, 828311, Note_off_c, 7, 43, 127
1, 828311, Note_off_c, 11, 70, 127
1, 828311, Note_off_c, 2, 74, 127
1, 828318, Note_on_c, 0, 72, 127
1, 828318, Note_on_c, 3, 75, 127
1, 828318, Note_on_c, 0, 48, 127
1, 828693, Note_off_c, 0, 48, 127
1, 828693, Note_off_c, 3, 75, 127
1, 828699, Note_on_c, 7, 79, 127
1, 828699, Note_on_c, 11, 46, 127
1, 829074, Note_off_c, 11, 46, 127
1, 829074, Note_off_c, 7, 79, 127
1, 829081, Note_on_c, 5, 77, 127
1, 829081, Note_on_c, 8, 44, 127
1, 829449, Note_off_c, 0, 72, 127
1, 829456, Note_off_c, 8, 44, 127
1, 829456, Note_off_c, 5, 77, 127
1, 829462, Note_on_c, 11, 70, 127
1, 829462, Note_on_c, 3, 75, 127
1, 829462, Note_on_c, 7, 43, 127
1, 829837, Note_off_c, 7, 43, 127
1, 829837, Note_off_c, 3, 75, 127
1, 829844, Note_on_c, 2, 74, 127
1, 829844, Note_on_c, 8, 44, 127
1, 830219, Note_off_c, 2, 74, 127
1, 830226, Note_on_c, 0, 72, 127
1, 830589, Note_off_c, 11, 70, 127
1, 830601, Note_off_c, 0, 72, 127
1, 830607, Note_on_c, 2, 74, 127
1, 830607, Note_on_c, 11, 70, 127
1, 830975, Note_off_c, 8, 44, 127
1, 830980, Note_off_c, 11, 70, 127
1, 830989, Note_on_c, 11, 70, 127
1, 830989, Note_on_c, 8, 56, 127
1, 831360, Note_off_c, 2, 74, 127
1, 831364, Note_off_c, 8, 56, 127
1, 831370, Note_on_c, 5, 65, 127
1, 831370, Note_on_c, 11, 58, 127
1, 831745, Note_off_c, 11, 58, 127
1, 831745, Note_off_c, 5, 65, 127
1, 831752, Note_on_c, 2, 62, 127
1, 831752, Note_on_c, 8, 56, 127
1, 832127, Note_off_c, 8, 56, 127
1, 832127, Note_off_c, 2, 62, 127
1, 832134, Note_on_c, 3, 63, 127
1, 832134, Note_on_c, 7, 55, 127
1, 832509, Note_off_c, 7, 55, 127
1, 832515, Note_on_c, 5, 65, 127
1, 832515, Note_on_c, 5, 53, 127
1, 832887, Note_off_c, 3, 63, 127
1, 832890, Note_off_c, 5, 53, 127
1, 832890, Note_off_c, 5, 65, 127
1, 832897, Note_on_c, 7, 67, 127
1, 832897, Note_on_c, 3, 51, 127
1, 833272, Note_off_c, 3, 51, 127
1, 833272, Note_off_c, 7, 67, 127
1, 833278, Note_on_c, 8, 68, 127
1, 833278, Note_on_c, 5, 53, 127
1, 833623, Note_off_c, 11, 70, 127
1, 833653, Note_off_c, 5, 53, 127
1, 833653, Note_off_c, 8, 68, 127
1, 833660, Note_on_c, 11, 70, 127
1, 833660, Note_on_c, 7, 55, 127
1, 834035, Note_off_c, 7, 55, 127
1, 834042, Note_on_c, 8, 68, 127
1, 834042, Note_on_c, 8, 56, 127
1, 834228, Note_off_c, 8, 68, 127
1, 834232, Note_on_c, 7, 67, 127
1, 834417, Note_off_c, 8, 56, 127
1, 834418, Note_off_c, 7, 67, 127
1, 834423, Note_on_c, 5, 65, 127
1, 834423, Note_on_c, 11, 58, 127
1, 834609, Note_off_c, 5, 65, 127
1, 834614, Note_on_c, 7, 67, 127
1, 834800, Note_off_c, 7, 67, 127
1, 834805, Note_on_c, 8, 68, 127
1, 835180, Note_off_c, 8, 68, 127
1, 835186, Note_on_c, 7, 67, 127
1, 835186, Note_on_c, 11, 46, 127
1, 835561, Note_off_c, 7, 67, 127
1, 835568, Note_on_c, 5, 65, 127
1, 835754, Note_off_c, 5, 65, 127
1, 835759, Note_on_c, 3, 63, 127
1, 835932, Note_off_c, 11, 58, 127
1, 835945, Note_off_c, 3, 63, 127
1, 835950, Note_on_c, 5, 65, 127
1, 836136, Note_off_c, 5, 65, 127
1, 836140, Note_on_c, 3, 63, 127
1, 836317, Note_off_c, 11, 46, 127
1, 836326, Note_off_c, 3, 63, 127
1, 836331, Note_on_c, 2, 62, 127
1, 836331, Note_on_c, 8, 56, 127
1, 836706, Note_off_c, 8, 56, 127
1, 836706, Note_off_c, 2, 62, 127
1, 836713, Note_on_c, 3, 63, 127
1, 836713, Note_on_c, 7, 55, 127
1, 837039, Note_off_c, 11, 70, 127
1, 837088, Note_off_c, 7, 55, 127
1, 837094, Note_on_c, 0, 72, 127
1, 837094, Note_on_c, 5, 53, 127
1, 837280, Note_off_c, 0, 72, 127
1, 837285, Note_on_c, 2, 74, 127
1, 837469, Note_off_c, 5, 53, 127
1, 837471, Note_off_c, 2, 74, 127
1, 837476, Note_on_c, 3, 75, 127
1, 837476, Note_on_c, 5, 53, 127
1, 837662, Note_off_c, 3, 75, 127
1, 837667, Note_on_c, 2, 74, 127
1, 837851, Note_off_c, 5, 53, 127
1, 837853, Note_off_c, 2, 74, 127
1, 837858, Note_on_c, 0, 72, 127
1, 837858, Note_on_c, 3, 51, 127
1, 838233, Note_off_c, 3, 51, 127
1, 838233, Note_off_c, 0, 72, 127
1, 838239, Note_on_c, 2, 74, 127
1, 838239, Note_on_c, 5, 53, 127
1, 838614, Note_off_c, 5, 53, 127
1, 838614, Note_off_c, 2, 74, 127
1, 838621, Note_on_c, 3, 75, 127
1, 838621, Note_on_c, 7, 55, 127
1, 838807, Note_off_c, 3, 75, 127
1, 838812, Note_on_c, 5, 77, 127
1, 838996, Note_off_c, 7, 55, 127
1, 838998, Note_off_c, 5, 77, 127
1, 839002, Note_on_c, 3, 75, 127
1, 839002, Note_on_c, 7, 55, 127
1, 839188, Note_off_c, 3, 75, 127
1, 839193, Note_on_c, 5, 77, 127
1, 839377, Note_off_c, 7, 55, 127
1, 839379, Note_off_c, 5, 77, 127
1, 839384, Note_on_c, 7, 79, 127
1, 839384, Note_on_c, 8, 56, 127
1, 839759, Note_off_c, 8, 56, 127
1, 839759, Note_off_c, 7, 79, 127
1, 839766, Note_on_c, 5, 77, 127
1, 839766, Note_on_c, 0, 48, 127
1, 840117, Note_off_c, 3, 63, 127
1, 840147, Note_on_c, 8, 68, 127
1, 840519, Note_off_c, 0, 48, 127
1, 840519, Note_off_c, 5, 77, 127
1, 840522, Note_off_c, 8, 68, 127
1, 840529, Note_on_c, 8, 68, 127
1, 840529, Note_on_c, 12, 47, 127
1, 840904, Note_off_c, 8, 68, 127
1, 840910, Note_on_c, 7, 67, 127
1, 841285, Note_off_c, 7, 67, 127
1, 841292, Note_on_c, 6, 66, 127
1, 841660, Note_off_c, 12, 47, 127
1, 841667, Note_off_c, 6, 66, 127
1, 841674, Note_on_c, 5, 65, 127
1, 841674, Note_on_c, 10, 45, 127
1, 842049, Note_off_c, 10, 45, 127
1, 842055, Note_on_c, 2, 74, 127
1, 842055, Note_on_c, 12, 47, 127
1, 842427, Note_off_c, 5, 65, 127
1, 842430, Note_off_c, 12, 47, 127
1, 842430, Note_off_c, 2, 74, 127
1, 842437, Note_on_c, 5, 65, 127
1, 842437, Note_on_c, 7, 43, 127
1, 842812, Note_off_c, 7, 43, 127
1, 842812, Note_off_c, 5, 65, 127
1, 842818, Note_on_c, 3, 63, 127
1, 842818, Note_on_c, 0, 48, 127
1, 843200, Note_on_c, 0, 72, 127
1, 843575, Note_off_c, 0, 72, 127
1, 843582, Note_on_c, 0, 72, 127
1, 843582, Note_on_c, 0, 60, 127
1, 843957, Note_off_c, 0, 72, 127
1, 843963, Note_on_c, 2, 74, 127
1, 844327, Note_off_c, 0, 48, 127
1, 844338, Note_off_c, 2, 74, 127
1, 844345, Note_on_c, 3, 75, 127
1, 844710, Note_off_c, 3, 63, 127
1, 844720, Note_off_c, 3, 75, 127
1, 844726, Note_on_c, 4, 76, 127
1, 844726, Note_on_c, 2, 62, 127
1, 845091, Note_off_c, 0, 60, 127
1, 845101, Note_off_c, 2, 62, 127
1, 845108, Note_on_c, 7, 67, 127
1, 845108, Note_on_c, 0, 60, 127
1, 845108, Note_on_c, 0, 48, 127
1, 845479, Note_off_c, 4, 76, 127
1, 845483, Note_off_c, 0, 60, 127
1, 845483, Note_off_c, 7, 67, 127
1, 845490, Note_on_c, 4, 76, 127
1, 845490, Note_on_c, 11, 58, 127
1, 845865, Note_off_c, 11, 58, 127
1, 845865, Note_off_c, 4, 76, 127
1, 845871, Note_on_c, 6, 78, 127
1, 845871, Note_on_c, 10, 57, 127
1, 846061, Note_off_c, 0, 48, 127
1, 846246, Note_off_c, 10, 57, 127
1, 846253, Note_on_c, 11, 58, 127
1, 846253, Note_on_c, 2, 62, 127
1, 846628, Note_off_c, 2, 62, 127
1, 846628, Note_off_c, 11, 58, 127
1, 846634, Note_on_c, 0, 60, 127
1, 846634, Note_on_c, 3, 63, 127
1, 847009, Note_off_c, 3, 63, 127
1, 847009, Note_off_c, 0, 60, 127
1, 847016, Note_on_c, 2, 62, 127
1, 847016, Note_on_c, 11, 58, 127
1, 847391, Note_off_c, 11, 58, 127
1, 847391, Note_off_c, 2, 62, 127
1, 847398, Note_on_c, 3, 63, 127
1, 847398, Note_on_c, 10, 57, 127
1, 847763, Note_off_c, 6, 78, 127
1, 847773, Note_off_c, 10, 57, 127
1, 847773, Note_off_c, 3, 63, 127
1, 847779, Note_on_c, 7, 79, 127
1, 847779, Note_on_c, 2, 62, 127
1, 847779, Note_on_c, 11, 58, 127
1, 848154, Note_off_c, 11, 58, 127
1, 848154, Note_off_c, 2, 62, 127
1, 848154, Note_off_c, 7, 79, 127
1, 848161, Note_on_c, 10, 81, 127
1, 848161, Note_on_c, 3, 63, 127
1, 848161, Note_on_c, 0, 60, 127
1, 848536, Note_off_c, 0, 60, 127
1, 848536, Note_off_c, 10, 81, 127
1, 848542, Note_on_c, 11, 82, 127
1, 848542, Note_on_c, 7, 55, 127
1, 848917, Note_off_c, 7, 55, 127
1, 848917, Note_off_c, 11, 82, 127
1, 848924, Note_on_c, 0, 84, 127
1, 848924, Note_on_c, 7, 55, 127
1, 849292, Note_off_c, 3, 63, 127
1, 849299, Note_off_c, 0, 84, 127
1, 849306, Note_on_c, 11, 82, 127
1, 849306, Note_on_c, 0, 60, 127
1, 849677, Note_off_c, 7, 55, 127
1, 849681, Note_off_c, 0, 60, 127
1, 849681, Note_off_c, 11, 82, 127
1, 849687, Note_on_c, 10, 81, 127
1, 849687, Note_on_c, 2, 62, 127
1, 849687, Note_on_c, 6, 54, 127
1, 850062, Note_off_c, 6, 54, 127
1, 850062, Note_off_c, 10, 81, 127
1, 850069, Note_on_c, 7, 79, 127
1, 850069, Note_on_c, 7, 55, 127
1, 850444, Note_off_c, 7, 55, 127
1, 850444, Note_off_c, 7, 79, 127
1, 850450, Note_on_c, 6, 78, 127
1, 850450, Note_on_c, 10, 57, 127
1, 850825, Note_off_c, 10, 57, 127
1, 850825, Note_off_c, 6, 78, 127
1, 850832, Note_on_c, 7, 79, 127
1, 850832, Note_on_c, 11, 58, 127
1, 851018, Note_off_c, 11, 58, 127
1, 851023, Note_on_c, 0, 60, 127
1, 851196, Note_off_c, 2, 62, 127
1, 851207, Note_off_c, 7, 79, 127
1, 851209, Note_off_c, 0, 60, 127
1, 851214, Note_on_c, 6, 78, 127
1, 851214, Note_on_c, 10, 69, 127
1, 851214, Note_on_c, 2, 62, 127
1, 851400, Note_off_c, 2, 62, 127
1, 851404, Note_on_c, 3, 63, 127
1, 851590, Note_off_c, 3, 63, 127
1, 851595, Note_on_c, 0, 60, 127
1, 851967, Note_off_c, 10, 69, 127
1, 851970, Note_off_c, 0, 60, 127
1, 851977, Note_on_c, 2, 74, 127
1, 851977, Note_on_c, 11, 58, 127
1, 852167, Note_off_c, 11, 58, 127
1, 852171, Note_on_c, 2, 62, 127
1, 852352, Note_off_c, 6, 78, 127
1, 852361, Note_off_c, 2, 62, 127
1, 852365, Note_on_c, 10, 81, 127
1, 852365, Note_on_c, 0, 60, 127
1, 852747, Note_off_c, 0, 60, 127
1, 852747, Note_off_c, 10, 81, 127
1, 852753, Note_on_c, 7, 79, 127
1, 852753, Note_on_c, 11, 58, 127
1, 852943, Note_off_c, 11, 58, 127
1, 852947, Note_on_c, 0, 60, 127
1, 853127, Note_off_c, 2, 74, 127
1, 853137, Note_off_c, 0, 60, 127
1, 853141, Note_on_c, 0, 72, 127
1, 853141, Note_on_c, 10, 57, 127
1, 853523, Note_off_c, 10, 57, 127
1, 853523, Note_off_c, 0, 72, 127
1, 853529, Note_on_c, 11, 70, 127
1, 853529, Note_on_c, 7, 55, 127
1, 853719, Note_off_c, 7, 55, 127
1, 853723, Note_on_c, 10, 57, 127
1, 853911, Note_off_c, 11, 70, 127
1, 853913, Note_off_c, 10, 57, 127
1, 853917, Note_on_c, 10, 69, 127
1, 853917, Note_on_c, 5, 53, 127
1, 854288, Note_off_c, 7, 79, 127
1, 854299, Note_off_c, 5, 53, 127
1, 854299, Note_off_c, 10, 69, 127
1, 854305, Note_on_c, 0, 72, 127
1, 854305, Note_on_c, 7, 67, 127
1, 854305, Note_on_c, 3, 51, 127
1, 854495, Note_off_c, 3, 51, 127
1, 854499, Note_on_c, 5, 53, 127
1, 854687, Note_off_c, 7, 67, 127
1, 854689, Note_off_c, 5, 53, 127
1, 854693, Note_on_c, 5, 65, 127
1, 854693, Note_on_c, 2, 50, 127
1, 855071, Note_off_c, 0, 72, 127
1, 855075, Note_off_c, 2, 50, 127
1, 855075, Note_off_c, 5, 65, 127
1, 855081, Note_on_c, 7, 67, 127
1, 855081, Note_on_c, 3, 63, 127
1, 855081, Note_on_c, 0, 48, 127
1, 855463, Note_off_c, 0, 48, 127
1, 855463, Note_off_c, 3, 63, 127
1, 855469, Note_on_c, 2, 62, 127
1, 855469, Note_on_c, 3, 51, 127
1, 855659, Note_off_c, 3, 51, 127
1, 855663, Note_on_c, 2, 50, 127
1, 855851, Note_off_c, 2, 62, 127
1, 855853, Note_off_c, 2, 50, 127
1, 855856, Note_on_c, 0, 60, 127
1, 855856, Note_on_c, 3, 51, 127
1, 856216, Note_off_c, 3, 51, 127
1, 856221, Note_off_c, 7, 67, 127
1, 856229, Note_off_c, 0, 60, 127
1, 856244, Note_on_c, 10, 69, 127
1, 856244, Note_on_c, 3, 63, 127
1, 856244, Note_on_c, 6, 42, 127
1, 856626, Note_off_c, 6, 42, 127
1, 856626, Note_off_c, 3, 63, 127
1, 856626, Note_off_c, 10, 69, 127
1, 856632, Note_on_c, 11, 70, 127
1, 856632, Note_on_c, 2, 62, 127
1, 856632, Note_on_c, 7, 43, 127
1, 857014, Note_off_c, 2, 62, 127
1, 857014, Note_off_c, 11, 70, 127
1, 857020, Note_on_c, 0, 72, 127
1, 857020, Note_on_c, 4, 64, 127
1, 857402, Note_off_c, 4, 64, 127
1, 857402, Note_off_c, 0, 72, 127
1, 857408, Note_on_c, 2, 74, 127
1, 857408, Note_on_c, 6, 66, 127
1, 857598, Note_off_c, 6, 66, 127
1, 857602, Note_on_c, 7, 67, 127
1, 857782, Note_off_c, 7, 43, 127
1, 857790, Note_off_c, 2, 74, 127
1, 857792, Note_off_c, 7, 67, 127
1, 857796, Note_on_c, 4, 76, 127
1, 857796, Note_on_c, 10, 57, 127
1, 857796, Note_on_c, 0, 48, 127
1, 858178, Note_off_c, 0, 48, 127
1, 858178, Note_off_c, 4, 76, 127
1, 858184, Note_on_c, 6, 78, 127
1, 858184, Note_on_c, 2, 50, 127
1, 858562, Note_off_c, 10, 57, 127
1, 858566, Note_off_c, 6, 78, 127
1, 858572, Note_on_c, 7, 79, 127
1, 858572, Note_on_c, 3, 63, 127
1, 858954, Note_off_c, 3, 63, 127
1, 858954, Note_off_c, 7, 79, 127
1, 858960, Note_on_c, 10, 81, 127
1, 858960, Note_on_c, 2, 62, 127
1, 859264, Note_off_c, 2, 50, 127
1, 859342, Note_off_c, 2, 62, 127
1, 859342, Note_off_c, 10, 81, 127
1, 859348, Note_on_c, 6, 78, 127
1, 859348, Note_on_c, 0, 60, 127
1, 859348, Note_on_c, 3, 51, 127
1, 859730, Note_off_c, 3, 51, 127
1, 859730, Note_off_c, 0, 60, 127
1, 859730, Note_off_c, 6, 78, 127
1, 859736, Note_on_c, 7, 79, 127
1, 859736, Note_on_c, 11, 58, 127
1, 859736, Note_on_c, 0, 48, 127
1, 860124, Note_off_c, 11, 58, 127
1, 860124, Note_off_c, 7, 79, 127
1, 860130, Note_on_c, 6, 78, 127
1, 860130, Note_on_c, 10, 57, 127
1, 860515, Note_off_c, 0, 48, 127
1, 860518, Note_off_c, 10, 57, 127
1, 860518, Note_off_c, 6, 78, 127
1, 860525, Note_on_c, 4, 76, 127
1, 860525, Note_on_c, 7, 55, 127
1, 860525, Note_on_c, 2, 50, 127
1, 860718, Note_off_c, 4, 76, 127
1, 860722, Note_on_c, 2, 74, 127
1, 860913, Note_off_c, 7, 55, 127
1, 860915, Note_off_c, 2, 74, 127
1, 860919, Note_on_c, 0, 84, 127
1, 860919, Note_on_c, 6, 54, 127
1, 861304, Note_off_c, 2, 50, 127
1, 861307, Note_off_c, 6, 54, 127
1, 861313, Note_on_c, 7, 55, 127
1, 861698, Note_off_c, 0, 84, 127
1, 861708, Note_on_c, 6, 78, 127
1, 861708, Note_on_c, 2, 50, 127
1, 861901, Note_off_c, 2, 50, 127
1, 861905, Note_on_c, 0, 48, 127
1, 862096, Note_off_c, 6, 78, 127
1, 862098, Note_off_c, 0, 48, 127
1, 862102, Note_on_c, 7, 79, 127
1, 862102, Note_on_c, 11, 46, 127
1, 862295, Note_off_c, 11, 46, 127
1, 862299, Note_on_c, 0, 48, 127
1, 862490, Note_off_c, 7, 79, 127
1, 862492, Note_off_c, 0, 48, 127
1, 862496, Note_on_c, 10, 81, 127
1, 862496, Note_on_c, 10, 45, 127
1, 862884, Note_off_c, 10, 45, 127
1, 862884, Note_off_c, 10, 81, 127
1, 862891, Note_on_c, 11, 82, 127
1, 862891, Note_on_c, 7, 43, 127
1, 863350, Note_on_c, 0, 84, 127
1, 863362, Note_off_c, 11, 82, 127
1, 863862, Note_off_c, 0, 84, 127
1, 863931, Note_on_c, 2, 86, 127
1, 864241, Note_off_c, 7, 55, 127
1, 864450, Note_off_c, 7, 43, 127
1, 866831, Note_off_c, 2, 86, 127
1, 867530, Note_on_c, 7, 55, 127
1, 867530, Note_on_c, 2, 50, 127
1, 867530, Note_on_c, 12, 47, 127
1, 867530, Note_on_c, 7, 43, 127
1, 868191, Note_on_c, 7, 67, 127
1, 868516, Note_off_c, 7, 67, 127
1, 868521, Note_on_c, 10, 69, 127
1, 868577, Note_on_c, 12, 71, 127
1, 868591, Note_off_c, 10, 69, 127
1, 868632, Note_on_c, 0, 72, 127
1, 868647, Note_off_c, 12, 71, 127
1, 868687, Note_on_c, 2, 74, 127
1, 868702, Note_off_c, 0, 72, 127
1, 868742, Note_on_c, 4, 76, 127
1, 868757, Note_off_c, 2, 74, 127
1, 868797, Note_on_c, 6, 78, 127
1, 868812, Note_off_c, 4, 76, 127
1, 868852, Note_on_c, 7, 79, 127
1, 868867, Note_off_c, 6, 78, 127
1, 869399, Note_off_c, 7, 79, 127
1, 869402, Note_on_c, 2, 74, 127
1, 869510, Note_off_c, 2, 74, 127
1, 869514, Note_on_c, 12, 71, 127
1, 869823, Note_off_c, 7, 43, 127
1, 869823, Note_off_c, 12, 47, 127
1, 869823, Note_off_c, 2, 50, 127
1, 869823, Note_off_c, 7, 55, 127
1, 870061, Note_off_c, 12, 71, 127
1, 870064, Note_on_c, 12, 59, 127
1, 870064, Note_on_c, 7, 55, 127
1, 870064, Note_on_c, 7, 67, 127
1, 870172, Note_off_c, 7, 67, 127
1, 870172, Note_off_c, 7, 55, 127
1, 870172, Note_off_c, 12, 59, 127
1, 870175, Note_on_c, 10, 57, 127
1, 870175, Note_on_c, 6, 54, 127
1, 870175, Note_on_c, 2, 74, 127
1, 870230, Note_on_c, 0, 72, 127
1, 870245, Note_off_c, 2, 74, 127
1, 870285, Note_on_c, 2, 74, 127
1, 870300, Note_off_c, 0, 72, 127
1, 870340, Note_on_c, 0, 72, 127
1, 870355, Note_off_c, 2, 74, 127
1, 870396, Note_on_c, 2, 74, 127
1, 870410, Note_off_c, 0, 72, 127
1, 870451, Note_on_c, 0, 72, 127
1, 870466, Note_off_c, 2, 74, 127
1, 870506, Note_on_c, 2, 74, 127
1, 870521, Note_off_c, 0, 72, 127
1, 871104, Note_off_c, 6, 54, 127
1, 871104, Note_off_c, 10, 57, 127
1, 871111, Note_on_c, 2, 50, 127
1, 871164, Note_off_c, 2, 50, 127
1, 871167, Note_on_c, 4, 52, 127
1, 871219, Note_off_c, 4, 52, 127
1, 871222, Note_on_c, 6, 54, 127
1, 871274, Note_off_c, 6, 54, 127
1, 871277, Note_on_c, 7, 55, 127
1, 871327, Note_off_c, 2, 74, 127
1, 871329, Note_off_c, 7, 55, 127
1, 871333, Note_on_c, 10, 57, 127
1, 871333, Note_on_c, 4, 76, 127
1, 871386, Note_off_c, 10, 57, 127
1, 871389, Note_on_c, 12, 59, 127
1, 871441, Note_off_c, 12, 59, 127
1, 871444, Note_on_c, 0, 60, 127
1, 871495, Note_off_c, 4, 76, 127
1, 871496, Note_off_c, 0, 60, 127
1, 871499, Note_on_c, 2, 62, 127
1, 871499, Note_on_c, 2, 74, 127
1, 871660, Note_off_c, 2, 74, 127
1, 871664, Note_on_c, 0, 72, 127
1, 871719, Note_on_c, 12, 71, 127
1, 871734, Note_off_c, 0, 72, 127
1, 871775, Note_on_c, 0, 72, 127
1, 871789, Note_off_c, 12, 71, 127
1, 871830, Note_on_c, 2, 74, 127
1, 871845, Note_off_c, 0, 72, 127
1, 871885, Note_on_c, 0, 72, 127
1, 871900, Note_off_c, 2, 74, 127
1, 871940, Note_on_c, 2, 74, 127
1, 871955, Note_off_c, 0, 72, 127
1, 871995, Note_on_c, 0, 72, 127
1, 872010, Note_off_c, 2, 74, 127
1, 872047, Note_off_c, 2, 62, 127
1, 872050, Note_on_c, 10, 57, 127
1, 872050, Note_on_c, 2, 74, 127
1, 872065, Note_off_c, 0, 72, 127
1, 872105, Note_on_c, 0, 72, 127
1, 872120, Note_off_c, 2, 74, 127
1, 872158, Note_off_c, 10, 57, 127
1, 872161, Note_on_c, 6, 54, 127
1, 872161, Note_on_c, 2, 74, 127
1, 872176, Note_off_c, 0, 72, 127
1, 872217, Note_on_c, 0, 72, 127
1, 872231, Note_off_c, 2, 74, 127
1, 872272, Note_on_c, 2, 74, 127
1, 872287, Note_off_c, 0, 72, 127
1, 872327, Note_on_c, 0, 72, 127
1, 872342, Note_off_c, 2, 74, 127
1, 872382, Note_on_c, 2, 74, 127
1, 872397, Note_off_c, 0, 72, 127
1, 872437, Note_on_c, 0, 72, 127
1, 872452, Note_off_c, 2, 74, 127
1, 872492, Note_on_c, 2, 74, 127
1, 872507, Note_off_c, 0, 72, 127
1, 872547, Note_on_c, 0, 72, 127
1, 872562, Note_off_c, 2, 74, 127
1, 872602, Note_on_c, 12, 71, 127
1, 872617, Note_off_c, 0, 72, 127
1, 872658, Note_on_c, 0, 72, 127
1, 872672, Note_off_c, 12, 71, 127
1, 872709, Note_off_c, 6, 54, 127
1, 872713, Note_on_c, 2, 50, 127
1, 872713, Note_on_c, 2, 74, 127
1, 872728, Note_off_c, 0, 72, 127
1, 872821, Note_off_c, 2, 74, 127
1, 872821, Note_off_c, 2, 50, 127
1, 872824, Note_on_c, 4, 52, 127
1, 872824, Note_on_c, 7, 67, 127
1, 873371, Note_off_c, 7, 67, 127
1, 873374, Note_on_c, 7, 79, 127
1, 873429, Note_on_c, 6, 78, 127
1, 873444, Note_off_c, 7, 79, 127
1, 873484, Note_on_c, 7, 79, 127
1, 873499, Note_off_c, 6, 78, 127
1, 874008, Note_off_c, 4, 52, 127
1, 874032, Note_off_c, 7, 79, 127
1, 874036, Note_on_c, 7, 55, 127
1, 874036, Note_on_c, 4, 76, 127
1, 874144, Note_off_c, 4, 76, 127
1, 874144, Note_off_c, 7, 55, 127
1, 874147, Note_on_c, 6, 54, 127
1, 874147, Note_on_c, 2, 74, 127
1, 874308, Note_off_c, 2, 74, 127
1, 874312, Note_on_c, 1, 73, 127
1, 874390, Note_off_c, 6, 54, 127
1, 874395, Note_on_c, 4, 52, 127
1, 874474, Note_off_c, 4, 52, 127
1, 874478, Note_on_c, 6, 54, 127
1, 874557, Note_off_c, 6, 54, 127
1, 874560, Note_on_c, 4, 52, 127
1, 874639, Note_off_c, 4, 52, 127
1, 874643, Note_on_c, 6, 54, 127
1, 874696, Note_off_c, 1, 73, 127
1, 874698, Note_on_c, 12, 83, 127
1, 874723, Note_off_c, 6, 54, 127
1, 874727, Note_on_c, 4, 52, 127
1, 874806, Note_off_c, 4, 52, 127
1, 874806, Note_off_c, 12, 83, 127
1, 874809, Note_on_c, 6, 54, 127
1, 874809, Note_on_c, 12, 83, 127
1, 874888, Note_off_c, 6, 54, 127
1, 874892, Note_on_c, 4, 52, 127
1, 874970, Note_off_c, 12, 83, 127
1, 874971, Note_off_c, 4, 52, 127
1, 874975, Note_on_c, 6, 54, 127
1, 874975, Note_on_c, 10, 81, 127
1, 875054, Note_off_c, 6, 54, 127
1, 875057, Note_on_c, 4, 52, 127
1, 875136, Note_off_c, 4, 52, 127
1, 875140, Note_on_c, 6, 54, 127
1, 875219, Note_off_c, 6, 54, 127
1, 875223, Note_on_c, 4, 52, 127
1, 875302, Note_off_c, 4, 52, 127
1, 875305, Note_on_c, 2, 50, 127
1, 875359, Note_off_c, 10, 81, 127
1, 875361, Note_on_c, 7, 79, 127
1, 875385, Note_off_c, 2, 50, 127
1, 875389, Note_on_c, 4, 52, 127
1, 875468, Note_off_c, 4, 52, 127
1, 875469, Note_off_c, 7, 79, 127
1, 875472, Note_on_c, 2, 50, 127
1, 875472, Note_on_c, 2, 74, 127
1, 875472, Note_on_c, 7, 79, 127
1, 875688, Note_off_c, 7, 79, 127
1, 875692, Note_on_c, 6, 78, 127
1, 875747, Note_on_c, 4, 76, 127
1, 875762, Note_off_c, 6, 78, 127
1, 875803, Note_on_c, 6, 78, 127
1, 875817, Note_off_c, 4, 76, 127
1, 875858, Note_on_c, 7, 79, 127
1, 875873, Note_off_c, 6, 78, 127
1, 875913, Note_on_c, 6, 78, 127
1, 875928, Note_off_c, 7, 79, 127
1, 875962, Note_off_c, 2, 74, 127
1, 875969, Note_on_c, 7, 79, 127
1, 875984, Note_off_c, 6, 78, 127
1, 876021, Note_off_c, 2, 50, 127
1, 876024, Note_on_c, 0, 60, 127
1, 876024, Note_on_c, 6, 78, 127
1, 876039, Note_off_c, 7, 79, 127
1, 876077, Note_off_c, 0, 60, 127
1, 876080, Note_on_c, 12, 59, 127
1, 876080, Note_on_c, 7, 79, 127
1, 876095, Note_off_c, 6, 78, 127
1, 876133, Note_off_c, 12, 59, 127
1, 876136, Note_on_c, 0, 60, 127
1, 876136, Note_on_c, 6, 78, 127
1, 876151, Note_off_c, 7, 79, 127
1, 876192, Note_on_c, 7, 79, 127
1, 876206, Note_off_c, 6, 78, 127
1, 876247, Note_on_c, 6, 78, 127
1, 876262, Note_off_c, 7, 79, 127
1, 876684, Note_off_c, 0, 60, 127
1, 876685, Note_off_c, 6, 78, 127
1, 876688, Note_on_c, 10, 57, 127
1, 876688, Note_on_c, 7, 79, 127
1, 876796, Note_off_c, 7, 79, 127
1, 876796, Note_off_c, 10, 57, 127
1, 876799, Note_on_c, 6, 54, 127
1, 876799, Note_on_c, 7, 79, 127
1, 876906, Note_off_c, 7, 79, 127
1, 876909, Note_on_c, 10, 81, 127
1, 876964, Note_on_c, 7, 79, 127
1, 876979, Note_off_c, 10, 81, 127
1, 877019, Note_on_c, 10, 81, 127
1, 877034, Note_off_c, 7, 79, 127
1, 877347, Note_off_c, 6, 54, 127
1, 877350, Note_on_c, 4, 64, 127
1, 877458, Note_off_c, 4, 64, 127
1, 877461, Note_on_c, 2, 62, 127
1, 878008, Note_off_c, 2, 62, 127
1, 878012, Note_on_c, 0, 60, 127
1, 878120, Note_off_c, 0, 60, 127
1, 878123, Note_on_c, 0, 60, 127
1, 878284, Note_off_c, 0, 60, 127
1, 878288, Note_on_c, 12, 59, 127
1, 878367, Note_off_c, 12, 59, 127
1, 878371, Note_on_c, 0, 60, 127
1, 878450, Note_off_c, 0, 60, 127
1, 878454, Note_on_c, 12, 59, 127
1, 878514, Note_off_c, 10, 81, 127
1, 878533, Note_off_c, 12, 59, 127
1, 878536, Note_on_c, 0, 60, 127
1, 878536, Note_on_c, 10, 81, 127
1, 878615, Note_off_c, 10, 81, 127
1, 878615, Note_off_c, 0, 60, 127
1, 878619, Note_on_c, 12, 59, 127
1, 878619, Note_on_c, 7, 79, 127
1, 878698, Note_off_c, 7, 79, 127
1, 878698, Note_off_c, 12, 59, 127
1, 878702, Note_on_c, 0, 60, 127
1, 878702, Note_on_c, 6, 78, 127
1, 878781, Note_off_c, 6, 78, 127
1, 878781, Note_off_c, 0, 60, 127
1, 878784, Note_on_c, 12, 59, 127
1, 878784, Note_on_c, 7, 79, 127
1, 879325, Note_off_c, 12, 59, 127
1, 879331, Note_off_c, 7, 79, 127
1, 879334, Note_on_c, 12, 59, 127
1, 879334, Note_on_c, 2, 74, 127
1, 879442, Note_off_c, 2, 74, 127
1, 879442, Note_off_c, 12, 59, 127
1, 879446, Note_on_c, 12, 59, 127
1, 879446, Note_on_c, 2, 74, 127
1, 879446, Note_on_c, 4, 76, 127
1, 879662, Note_off_c, 4, 76, 127
1, 879666, Note_on_c, 5, 77, 127
1, 879721, Note_on_c, 4, 76, 127
1, 879736, Note_off_c, 5, 77, 127
1, 879777, Note_on_c, 5, 77, 127
1, 879791, Note_off_c, 4, 76, 127
1, 879832, Note_on_c, 4, 76, 127
1, 879847, Note_off_c, 5, 77, 127
1, 879887, Note_on_c, 5, 77, 127
1, 879902, Note_off_c, 4, 76, 127
1, 879936, Note_off_c, 12, 59, 127
1, 879943, Note_on_c, 0, 60, 127
1, 879943, Note_on_c, 4, 76, 127
1, 879958, Note_off_c, 5, 77, 127
1, 879996, Note_off_c, 0, 60, 127
1, 879999, Note_on_c, 12, 59, 127
1, 879999, Note_on_c, 5, 77, 127
1, 880014, Note_off_c, 4, 76, 127
1, 880052, Note_off_c, 12, 59, 127
1, 880055, Note_on_c, 10, 57, 127
1, 880107, Note_off_c, 10, 57, 127
1, 880110, Note_on_c, 12, 59, 127
1, 880652, Note_off_c, 5, 77, 127
1, 880657, Note_off_c, 12, 59, 127
1, 880661, Note_on_c, 7, 55, 127
1, 880661, Note_on_c, 7, 79, 127
1, 880757, Note_off_c, 2, 74, 127
1, 880769, Note_off_c, 7, 79, 127
1, 880769, Note_off_c, 7, 55, 127
1, 880772, Note_on_c, 0, 60, 127
1, 880772, Note_on_c, 0, 72, 127
1, 880772, Note_on_c, 5, 77, 127
1, 880824, Note_off_c, 0, 60, 127
1, 880827, Note_on_c, 12, 59, 127
1, 880879, Note_off_c, 12, 59, 127
1, 880879, Note_off_c, 5, 77, 127
1, 880882, Note_on_c, 0, 60, 127
1, 880882, Note_on_c, 4, 76, 127
1, 880934, Note_off_c, 0, 60, 127
1, 880937, Note_on_c, 12, 59, 127
1, 880989, Note_off_c, 12, 59, 127
1, 880992, Note_on_c, 0, 60, 127
1, 881261, Note_off_c, 0, 72, 127
1, 881266, Note_off_c, 4, 76, 127
1, 881268, Note_on_c, 2, 74, 127
1, 881323, Note_on_c, 0, 72, 127
1, 881338, Note_off_c, 2, 74, 127
1, 881378, Note_on_c, 12, 71, 127
1, 881393, Note_off_c, 0, 72, 127
1, 881433, Note_on_c, 0, 72, 127
1, 881448, Note_off_c, 12, 71, 127
1, 881922, Note_off_c, 0, 72, 127
1, 881922, Note_off_c, 0, 60, 127
1, 881929, Note_on_c, 2, 62, 127
1, 881929, Note_on_c, 12, 71, 127
1, 881982, Note_off_c, 2, 62, 127
1, 881986, Note_on_c, 0, 60, 127
1, 881986, Note_on_c, 10, 69, 127
1, 882000, Note_off_c, 12, 71, 127
1, 882039, Note_off_c, 0, 60, 127
1, 882042, Note_on_c, 12, 59, 127
1, 882042, Note_on_c, 7, 67, 127
1, 882057, Note_off_c, 10, 69, 127
1, 882095, Note_off_c, 12, 59, 127
1, 882098, Note_on_c, 0, 60, 127
1, 882098, Note_on_c, 10, 69, 127
1, 882113, Note_off_c, 7, 67, 127
1, 882587, Note_off_c, 0, 60, 127
1, 882594, Note_on_c, 12, 59, 127
1, 882641, Note_off_c, 10, 69, 127
1, 882646, Note_off_c, 12, 59, 127
1, 882649, Note_on_c, 10, 57, 127
1, 882649, Note_on_c, 10, 69, 127
1, 882701, Note_off_c, 10, 57, 127
1, 882704, Note_on_c, 7, 55, 127
1, 882756, Note_off_c, 7, 55, 127
1, 882756, Note_off_c, 10, 69, 127
1, 882759, Note_on_c, 10, 57, 127
1, 882759, Note_on_c, 7, 79, 127
1, 882814, Note_on_c, 6, 78, 127
1, 882829, Note_off_c, 7, 79, 127
1, 882870, Note_on_c, 7, 79, 127
1, 882884, Note_off_c, 6, 78, 127
1, 882925, Note_on_c, 6, 78, 127
1, 882940, Note_off_c, 7, 79, 127
1, 882980, Note_on_c, 7, 79, 127
1, 882995, Note_off_c, 6, 78, 127
1, 883248, Note_off_c, 10, 57, 127
1, 883255, Note_on_c, 7, 55, 127
1, 883305, Note_off_c, 7, 79, 127
1, 883307, Note_off_c, 7, 55, 127
1, 883311, Note_on_c, 6, 54, 127
1, 883311, Note_on_c, 7, 79, 127
1, 883363, Note_off_c, 6, 54, 127
1, 883366, Note_on_c, 4, 52, 127
1, 883418, Note_off_c, 4, 52, 127
1, 883418, Note_off_c, 7, 79, 127
1, 883421, Note_on_c, 2, 50, 127
1, 883421, Note_on_c, 7, 79, 127
1, 883476, Note_on_c, 2, 74, 127
1, 883491, Note_off_c, 7, 79, 127
1, 883531, Note_on_c, 12, 71, 127
1, 883546, Note_off_c, 2, 74, 127
1, 883586, Note_on_c, 2, 74, 127
1, 883641, Note_on_c, 7, 79, 127
1, 884164, Note_on_c, 12, 83, 127
1, 884214, Note_off_c, 2, 74, 127
1, 884214, Note_off_c, 12, 71, 127
1, 884215, Note_off_c, 7, 79, 127
1, 884244, Note_off_c, 12, 83, 127
1, 884248, Note_on_c, 10, 81, 127
1, 884327, Note_off_c, 10, 81, 127
1, 884330, Note_on_c, 7, 79, 127
1, 884409, Note_off_c, 7, 79, 127
1, 884413, Note_on_c, 6, 78, 127
1, 884492, Note_off_c, 6, 78, 127
1, 884496, Note_on_c, 4, 76, 127
1, 884575, Note_off_c, 4, 76, 127
1, 884578, Note_on_c, 2, 74, 127
1, 884657, Note_off_c, 2, 74, 127
1, 884661, Note_on_c, 0, 72, 127
1, 884740, Note_off_c, 0, 72, 127
1, 884744, Note_on_c, 10, 81, 127
1, 884897, Note_off_c, 2, 50, 127
1, 884909, Note_on_c, 0, 48, 127
1, 884989, Note_off_c, 0, 48, 127
1, 884993, Note_on_c, 12, 47, 127
1, 885072, Note_off_c, 12, 47, 127
1, 885075, Note_on_c, 10, 45, 127
1, 885154, Note_off_c, 10, 45, 127
1, 885158, Note_on_c, 7, 43, 127
1, 885234, Note_off_c, 10, 81, 127
1, 885237, Note_off_c, 7, 43, 127
1, 885241, Note_on_c, 6, 42, 127
1, 885241, Note_on_c, 0, 72, 127
1, 885320, Note_off_c, 6, 42, 127
1, 885323, Note_on_c, 4, 40, 127
1, 885402, Note_off_c, 4, 40, 127
1, 885402, Note_off_c, 0, 72, 127
1, 885406, Note_on_c, 2, 38, 127
1, 885406, Note_on_c, 10, 81, 127
1, 885567, Note_off_c, 2, 38, 127
1, 885572, Note_on_c, 6, 42, 127
1, 885733, Note_off_c, 6, 42, 127
1, 885737, Note_on_c, 10, 45, 127
1, 885895, Note_off_c, 10, 81, 127
1, 885898, Note_off_c, 10, 45, 127
1, 885902, Note_on_c, 2, 50, 127
1, 885902, Note_on_c, 0, 72, 127
1, 886063, Note_off_c, 0, 72, 127
1, 886063, Note_off_c, 2, 50, 127
1, 886068, Note_on_c, 7, 43, 127
1, 886068, Note_on_c, 0, 72, 127
1, 886229, Note_off_c, 0, 72, 127
1, 886229, Note_off_c, 7, 43, 127
1, 886233, Note_on_c, 2, 50, 127
1, 886233, Note_on_c, 12, 71, 127
1, 886312, Note_off_c, 12, 71, 127
1, 886316, Note_on_c, 10, 69, 127
1, 886394, Note_off_c, 2, 50, 127
1, 886395, Note_off_c, 10, 69, 127
1, 886398, Note_on_c, 4, 52, 127
1, 886398, Note_on_c, 12, 71, 127
1, 886477, Note_off_c, 12, 71, 127
1, 886481, Note_on_c, 0, 72, 127
1, 886559, Note_off_c, 4, 52, 127
1, 886560, Note_off_c, 0, 72, 127
1, 886564, Note_on_c, 6, 54, 127
1, 886564, Note_on_c, 12, 71, 127
1, 886643, Note_off_c, 12, 71, 127
1, 886646, Note_on_c, 0, 72, 127
1, 886725, Note_off_c, 0, 72, 127
1, 886725, Note_off_c, 6, 54, 127
1, 886729, Note_on_c, 7, 55, 127
1, 886729, Note_on_c, 12, 71, 127
1, 886808, Note_off_c, 12, 71, 127
1, 886812, Note_on_c, 0, 72, 127
1, 886890, Note_off_c, 7, 55, 127
1, 886891, Note_off_c, 0, 72, 127
1, 886894, Note_on_c, 6, 54, 127
1, 886894, Note_on_c, 12, 71, 127
1, 886973, Note_off_c, 12, 71, 127
1, 886977, Note_on_c, 0, 72, 127
1, 887055, Note_off_c, 6, 54, 127
1, 887056, Note_off_c, 0, 72, 127
1, 887060, Note_on_c, 7, 55, 127
1, 887060, Note_on_c, 12, 71, 127
1, 887139, Note_off_c, 12, 71, 127
1, 887142, Note_on_c, 10, 69, 127
1, 887221, Note_off_c, 10, 69, 127
1, 887221, Note_off_c, 7, 55, 127
1, 887225, Note_on_c, 10, 57, 127
1, 887225, Note_on_c, 7, 67, 127
1, 887304, Note_off_c, 7, 67, 127
1, 887308, Note_on_c, 6, 66, 127
1, 887386, Note_off_c, 10, 57, 127
1, 887387, Note_off_c, 6, 66, 127
1, 887390, Note_on_c, 0, 60, 127
1, 887390, Note_on_c, 7, 67, 127
1, 887551, Note_off_c, 7, 67, 127
1, 887551, Note_off_c, 0, 60, 127
1, 887556, Note_on_c, 12, 59, 127
1, 887556, Note_on_c, 2, 74, 127
1, 887635, Note_off_c, 12, 59, 127
1, 887639, Note_on_c, 10, 57, 127
1, 887717, Note_off_c, 2, 74, 127
1, 887718, Note_off_c, 10, 57, 127
1, 887721, Note_on_c, 12, 59, 127
1, 887721, Note_on_c, 4, 76, 127
1, 887800, Note_off_c, 12, 59, 127
1, 887804, Note_on_c, 0, 60, 127
1, 887882, Note_off_c, 4, 76, 127
1, 887883, Note_off_c, 0, 60, 127
1, 887887, Note_on_c, 12, 59, 127
1, 887887, Note_on_c, 6, 78, 127
1, 887966, Note_off_c, 12, 59, 127
1, 887969, Note_on_c, 0, 60, 127
1, 888048, Note_off_c, 0, 60, 127
1, 888048, Note_off_c, 6, 78, 127
1, 888052, Note_on_c, 12, 59, 127
1, 888052, Note_on_c, 7, 79, 127
1, 888131, Note_off_c, 12, 59, 127
1, 888135, Note_on_c, 0, 60, 127
1, 888213, Note_off_c, 7, 79, 127
1, 888214, Note_off_c, 0, 60, 127
1, 888217, Note_on_c, 12, 59, 127
1, 888217, Note_on_c, 6, 78, 127
1, 888296, Note_off_c, 12, 59, 127
1, 888300, Note_on_c, 0, 60, 127
1, 888378, Note_off_c, 6, 78, 127
1, 888379, Note_off_c, 0, 60, 127
1, 888383, Note_on_c, 12, 59, 127
1, 888383, Note_on_c, 7, 79, 127
1, 888462, Note_off_c, 12, 59, 127
1, 888465, Note_on_c, 10, 57, 127
1, 888544, Note_off_c, 10, 57, 127
1, 888544, Note_off_c, 7, 79, 127
1, 888548, Note_on_c, 7, 55, 127
1, 888548, Note_on_c, 10, 81, 127
1, 888627, Note_off_c, 7, 55, 127
1, 888631, Note_on_c, 6, 54, 127
1, 888709, Note_off_c, 10, 81, 127
1, 888710, Note_off_c, 6, 54, 127
1, 888713, Note_on_c, 7, 55, 127
1, 888713, Note_on_c, 7, 79, 127
1, 888768, Note_on_c, 10, 81, 127
1, 888783, Note_off_c, 7, 79, 127
1, 888824, Note_on_c, 12, 83, 127
1, 888838, Note_off_c, 10, 81, 127
1, 888875, Note_off_c, 7, 55, 127
1, 888880, Note_on_c, 12, 59, 127
1, 889041, Note_off_c, 12, 59, 127
1, 889045, Note_on_c, 1, 61, 127
1, 889206, Note_off_c, 1, 61, 127
1, 889209, Note_off_c, 12, 83, 127
1, 889211, Note_on_c, 3, 63, 127
1, 889211, Note_on_c, 10, 81, 127
1, 889266, Note_on_c, 7, 79, 127
1, 889281, Note_off_c, 10, 81, 127
1, 889321, Note_on_c, 6, 78, 127
1, 889336, Note_off_c, 7, 79, 127
1, 889373, Note_off_c, 3, 63, 127
1, 889377, Note_on_c, 4, 64, 127
1, 889377, Note_on_c, 7, 79, 127
1, 889392, Note_off_c, 6, 78, 127
1, 889538, Note_off_c, 4, 64, 127
1, 889542, Note_on_c, 3, 63, 127
1, 889703, Note_off_c, 3, 63, 127
1, 889708, Note_on_c, 4, 64, 127
1, 889866, Note_off_c, 7, 79, 127
1, 889869, Note_off_c, 4, 64, 127
1, 889873, Note_on_c, 6, 66, 127
1, 889873, Note_on_c, 6, 78, 127
1, 889928, Note_on_c, 4, 76, 127
1, 889943, Note_off_c, 6, 78, 127
1, 889983, Note_on_c, 3, 75, 127
1, 889998, Note_off_c, 4, 76, 127
1, 890035, Note_off_c, 6, 66, 127
1, 890039, Note_on_c, 7, 67, 127
1, 890039, Note_on_c, 4, 76, 127
1, 890054, Note_off_c, 3, 75, 127
1, 890586, Note_off_c, 4, 76, 127
1, 890586, Note_off_c, 7, 67, 127
1, 890590, Note_on_c, 7, 55, 127
1, 890590, Note_on_c, 12, 71, 127
1, 890698, Note_off_c, 12, 71, 127
1, 890698, Note_off_c, 7, 55, 127
1, 890701, Note_on_c, 7, 67, 127
1, 890701, Note_on_c, 1, 73, 127
1, 890756, Note_on_c, 12, 71, 127
1, 890771, Note_off_c, 1, 73, 127
1, 890811, Note_on_c, 1, 73, 127
1, 890826, Note_off_c, 12, 71, 127
1, 890866, Note_on_c, 12, 71, 127
1, 890881, Note_off_c, 1, 73, 127
1, 890921, Note_on_c, 1, 73, 127
1, 890936, Note_off_c, 12, 71, 127
1, 891244, Note_off_c, 7, 67, 127
1, 891246, Note_off_c, 1, 73, 127
1, 891252, Note_on_c, 7, 67, 127
1, 891252, Note_on_c, 2, 74, 127
1, 891359, Note_off_c, 2, 74, 127
1, 891359, Note_off_c, 7, 67, 127
1, 891362, Note_on_c, 7, 67, 127
1, 891362, Note_on_c, 10, 69, 127
1, 891362, Note_on_c, 2, 74, 127
1, 891578, Note_off_c, 2, 74, 127
1, 891583, Note_on_c, 1, 73, 127
1, 891908, Note_off_c, 1, 73, 127
1, 891914, Note_on_c, 4, 76, 127
1, 891969, Note_on_c, 6, 78, 127
1, 891984, Note_off_c, 4, 76, 127
1, 892024, Note_on_c, 7, 79, 127
1, 892039, Note_off_c, 6, 78, 127
1, 892079, Note_on_c, 10, 81, 127
1, 892094, Note_off_c, 7, 79, 127
1, 892503, Note_off_c, 7, 67, 127
1, 892520, Note_on_c, 7, 67, 127
1, 892568, Note_off_c, 10, 81, 127
1, 892572, Note_off_c, 7, 67, 127
1, 892575, Note_on_c, 6, 66, 127
1, 892575, Note_on_c, 10, 81, 127
1, 892627, Note_off_c, 6, 66, 127
1, 892630, Note_on_c, 4, 64, 127
1, 892670, Note_off_c, 10, 69, 127
1, 892682, Note_off_c, 4, 64, 127
1, 892682, Note_off_c, 10, 81, 127
1, 892685, Note_on_c, 6, 66, 127
1, 892685, Note_on_c, 3, 75, 127
1, 892685, Note_on_c, 10, 81, 127
1, 893173, Note_off_c, 6, 66, 127
1, 893180, Note_on_c, 12, 59, 127
1, 893232, Note_off_c, 12, 59, 127
1, 893232, Note_off_c, 3, 75, 127
1, 893235, Note_on_c, 1, 61, 127
1, 893235, Note_on_c, 6, 78, 127
1, 893288, Note_off_c, 1, 61, 127
1, 893292, Note_on_c, 3, 63, 127
1, 893343, Note_off_c, 6, 78, 127
1, 893344, Note_off_c, 3, 63, 127
1, 893347, Note_on_c, 4, 64, 127
1, 893347, Note_on_c, 12, 71, 127
1, 893822, Note_off_c, 10, 81, 127
1, 893842, Note_on_c, 10, 81, 127
1, 893889, Note_off_c, 4, 64, 127
1, 893897, Note_on_c, 4, 64, 127
1, 893897, Note_on_c, 7, 79, 127
1, 893912, Note_off_c, 10, 81, 127
1, 893952, Note_on_c, 6, 78, 127
1, 893967, Note_off_c, 7, 79, 127
1, 894005, Note_off_c, 4, 64, 127
1, 894008, Note_on_c, 4, 64, 127
1, 894008, Note_on_c, 7, 79, 127
1, 894023, Note_off_c, 6, 78, 127
1, 894497, Note_off_c, 7, 79, 127
1, 894504, Note_on_c, 6, 78, 127
1, 894559, Note_on_c, 4, 76, 127
1, 894574, Note_off_c, 6, 78, 127
1, 894614, Note_on_c, 3, 75, 127
1, 894629, Note_off_c, 4, 76, 127
1, 894656, Note_off_c, 12, 71, 127
1, 894669, Note_off_c, 3, 75, 127
1, 894671, Note_on_c, 3, 75, 127
1, 894832, Note_off_c, 3, 75, 127
1, 894836, Note_on_c, 4, 76, 127
1, 895084, Note_on_c, 0, 60, 127
1, 895085, Note_off_c, 4, 64, 127
1, 895163, Note_off_c, 0, 60, 127
1, 895167, Note_on_c, 12, 59, 127
1, 895220, Note_off_c, 4, 76, 127
1, 895222, Note_on_c, 12, 83, 127
1, 895247, Note_off_c, 12, 59, 127
1, 895250, Note_on_c, 10, 57, 127
1, 895329, Note_off_c, 10, 57, 127
1, 895330, Note_off_c, 12, 83, 127
1, 895333, Note_on_c, 8, 56, 127
1, 895333, Note_on_c, 12, 71, 127
1, 895333, Note_on_c, 4, 76, 127
1, 895494, Note_off_c, 4, 76, 127
1, 895498, Note_on_c, 2, 74, 127
1, 895554, Note_on_c, 4, 76, 127
1, 895568, Note_off_c, 2, 74, 127
1, 895609, Note_on_c, 2, 74, 127
1, 895624, Note_off_c, 4, 76, 127
1, 895664, Note_on_c, 4, 76, 127
1, 895679, Note_off_c, 2, 74, 127
1, 895719, Note_on_c, 2, 74, 127
1, 895734, Note_off_c, 4, 76, 127
1, 895774, Note_on_c, 4, 76, 127
1, 895789, Note_off_c, 2, 74, 127
1, 895823, Note_off_c, 8, 56, 127
1, 895830, Note_on_c, 12, 59, 127
1, 895830, Note_on_c, 2, 74, 127
1, 895845, Note_off_c, 4, 76, 127
1, 895885, Note_on_c, 4, 76, 127
1, 895900, Note_off_c, 2, 74, 127
1, 895940, Note_on_c, 2, 74, 127
1, 895955, Note_off_c, 4, 76, 127
1, 895992, Note_off_c, 12, 59, 127
1, 895997, Note_on_c, 4, 52, 127
1, 895997, Note_on_c, 4, 76, 127
1, 896011, Note_off_c, 2, 74, 127
1, 896052, Note_on_c, 2, 74, 127
1, 896067, Note_off_c, 4, 76, 127
1, 896107, Note_on_c, 4, 76, 127
1, 896122, Note_off_c, 2, 74, 127
1, 896162, Note_on_c, 2, 74, 127
1, 896177, Note_off_c, 4, 76, 127
1, 896217, Note_on_c, 4, 76, 127
1, 896232, Note_off_c, 2, 74, 127
1, 896272, Note_on_c, 2, 74, 127
1, 896287, Note_off_c, 4, 76, 127
1, 896327, Note_on_c, 4, 76, 127
1, 896342, Note_off_c, 2, 74, 127
1, 896382, Note_on_c, 2, 74, 127
1, 896397, Note_off_c, 4, 76, 127
1, 896438, Note_on_c, 4, 76, 127
1, 896452, Note_off_c, 2, 74, 127
1, 896487, Note_off_c, 4, 52, 127
1, 896494, Note_on_c, 8, 56, 127
1, 896494, Note_on_c, 2, 74, 127
1, 896509, Note_off_c, 4, 76, 127
1, 896549, Note_on_c, 1, 73, 127
1, 896556, Note_off_c, 12, 71, 127
1, 896564, Note_off_c, 2, 74, 127
1, 896604, Note_on_c, 12, 71, 127
1, 896619, Note_off_c, 1, 73, 127
1, 896656, Note_off_c, 8, 56, 127
1, 896660, Note_on_c, 10, 57, 127
1, 896660, Note_on_c, 10, 69, 127
1, 896660, Note_on_c, 1, 73, 127
1, 896675, Note_off_c, 12, 71, 127
1, 897149, Note_off_c, 1, 73, 127
1, 897156, Note_on_c, 2, 74, 127
1, 897211, Note_on_c, 1, 73, 127
1, 897226, Note_off_c, 2, 74, 127
1, 897267, Note_on_c, 2, 74, 127
1, 897281, Note_off_c, 1, 73, 127
1, 897314, Note_off_c, 10, 69, 127
1, 897323, Note_on_c, 12, 71, 127
1, 897323, Note_on_c, 4, 76, 127
1, 897338, Note_off_c, 2, 74, 127
1, 897378, Note_on_c, 2, 74, 127
1, 897393, Note_off_c, 4, 76, 127
1, 897433, Note_on_c, 4, 76, 127
1, 897448, Note_off_c, 2, 74, 127
1, 897488, Note_on_c, 2, 74, 127
1, 897503, Note_off_c, 4, 76, 127
1, 897543, Note_on_c, 4, 76, 127
1, 897558, Note_off_c, 2, 74, 127
1, 897598, Note_on_c, 2, 74, 127
1, 897613, Note_off_c, 4, 76, 127
1, 897642, Note_off_c, 10, 57, 127
1, 897654, Note_on_c, 10, 45, 127
1, 897654, Note_on_c, 4, 76, 127
1, 897669, Note_off_c, 2, 74, 127
1, 897707, Note_off_c, 10, 45, 127
1, 897711, Note_on_c, 12, 47, 127
1, 897711, Note_on_c, 2, 74, 127
1, 897725, Note_off_c, 4, 76, 127
1, 897764, Note_off_c, 12, 47, 127
1, 897767, Note_on_c, 1, 49, 127
1, 897767, Note_on_c, 4, 76, 127
1, 897782, Note_off_c, 2, 74, 127
1, 897820, Note_off_c, 1, 49, 127
1, 897823, Note_on_c, 2, 50, 127
1, 897823, Note_on_c, 2, 74, 127
1, 897838, Note_off_c, 4, 76, 127
1, 897876, Note_off_c, 2, 50, 127
1, 897879, Note_on_c, 4, 52, 127
1, 897879, Note_on_c, 1, 73, 127
1, 897894, Note_off_c, 2, 74, 127
1, 897932, Note_off_c, 4, 52, 127
1, 897935, Note_on_c, 6, 54, 127
1, 897935, Note_on_c, 2, 74, 127
1, 897950, Note_off_c, 1, 73, 127
1, 897983, Note_off_c, 12, 71, 127
1, 897988, Note_off_c, 6, 54, 127
1, 897992, Note_on_c, 7, 55, 127
1, 897992, Note_on_c, 1, 73, 127
1, 898006, Note_off_c, 2, 74, 127
1, 898047, Note_on_c, 2, 74, 127
1, 898102, Note_on_c, 4, 76, 127
1, 898117, Note_off_c, 2, 74, 127
1, 898481, Note_off_c, 7, 55, 127
1, 898488, Note_on_c, 4, 52, 127
1, 898645, Note_off_c, 1, 73, 127
1, 898649, Note_off_c, 4, 52, 127
1, 898653, Note_on_c, 1, 49, 127
1, 898922, Note_off_c, 4, 76, 127
1, 898928, Note_on_c, 2, 74, 127
1, 898983, Note_on_c, 1, 73, 127
1, 898998, Note_off_c, 2, 74, 127
1, 899038, Note_on_c, 12, 71, 127
1, 899053, Note_off_c, 1, 73, 127
1, 899093, Note_on_c, 10, 69, 127
1, 899108, Note_off_c, 12, 71, 127
1, 899142, Note_off_c, 1, 49, 127
1, 899149, Note_on_c, 10, 45, 127
1, 899149, Note_on_c, 7, 67, 127
1, 899164, Note_off_c, 10, 69, 127
1, 899204, Note_on_c, 6, 66, 127
1, 899219, Note_off_c, 7, 67, 127
1, 899259, Note_on_c, 4, 64, 127
1, 899274, Note_off_c, 6, 66, 127
1, 899311, Note_off_c, 10, 45, 127
1, 899315, Note_on_c, 6, 54, 127
1, 899315, Note_on_c, 2, 62, 127
1, 899330, Note_off_c, 4, 64, 127
1, 899862, Note_off_c, 2, 62, 127
1, 899866, Note_on_c, 6, 66, 127
1, 899974, Note_off_c, 6, 66, 127
1, 899977, Note_on_c, 10, 69, 127
1, 900462, Note_off_c, 6, 54, 127
1, 900472, Note_on_c, 7, 55, 127
1, 900525, Note_off_c, 7, 55, 127
1, 900525, Note_off_c, 10, 69, 127
1, 900528, Note_on_c, 6, 54, 127
1, 900528, Note_on_c, 12, 71, 127
1, 900581, Note_off_c, 6, 54, 127
1, 900584, Note_on_c, 4, 52, 127
1, 900636, Note_off_c, 4, 52, 127
1, 900636, Note_off_c, 12, 71, 127
1, 900639, Note_on_c, 2, 50, 127
1, 900639, Note_on_c, 6, 66, 127
1, 900639, Note_on_c, 10, 69, 127
1, 900639, Note_on_c, 12, 71, 127
1, 900746, Note_off_c, 12, 71, 127
1, 900750, Note_on_c, 0, 72, 127
1, 901128, Note_off_c, 2, 50, 127
1, 901136, Note_on_c, 0, 48, 127
1, 901188, Note_off_c, 0, 48, 127
1, 901191, Note_on_c, 12, 47, 127
1, 901243, Note_off_c, 12, 47, 127
1, 901246, Note_on_c, 10, 45, 127
1, 901292, Note_off_c, 10, 69, 127
1, 901298, Note_off_c, 10, 45, 127
1, 901301, Note_on_c, 7, 43, 127
1, 901777, Note_off_c, 0, 72, 127
1, 901789, Note_off_c, 7, 43, 127
1, 901796, Note_on_c, 2, 50, 127
1, 901796, Note_on_c, 0, 72, 127
1, 901848, Note_off_c, 2, 50, 127
1, 901851, Note_on_c, 4, 52, 127
1, 901851, Note_on_c, 12, 71, 127
1, 901866, Note_off_c, 0, 72, 127
1, 901868, Note_off_c, 6, 66, 127
1, 901904, Note_off_c, 4, 52, 127
1, 901907, Note_on_c, 6, 54, 127
1, 901907, Note_on_c, 10, 69, 127
1, 901922, Note_off_c, 12, 71, 127
1, 901960, Note_off_c, 6, 54, 127
1, 901963, Note_on_c, 7, 55, 127
1, 901963, Note_on_c, 12, 71, 127
1, 901978, Note_off_c, 10, 69, 127
1, 902452, Note_off_c, 12, 71, 127
1, 902459, Note_on_c, 1, 73, 127
1, 902506, Note_off_c, 7, 55, 127
1, 902515, Note_on_c, 7, 43, 127
1, 902515, Note_on_c, 2, 74, 127
1, 902529, Note_off_c, 1, 73, 127
1, 902570, Note_on_c, 4, 76, 127
1, 902585, Note_off_c, 2, 74, 127
1, 902618, Note_off_c, 4, 76, 127
1, 902623, Note_off_c, 7, 43, 127
1, 902626, Note_on_c, 7, 55, 127
1, 902626, Note_on_c, 4, 76, 127
1, 902681, Note_on_c, 2, 74, 127
1, 902696, Note_off_c, 4, 76, 127
1, 902736, Note_on_c, 4, 76, 127
1, 902751, Note_off_c, 2, 74, 127
1, 902791, Note_on_c, 2, 74, 127
1, 902806, Note_off_c, 4, 76, 127
1, 902846, Note_on_c, 4, 76, 127
1, 902861, Note_off_c, 2, 74, 127
1, 902901, Note_on_c, 2, 74, 127
1, 902916, Note_off_c, 4, 76, 127
1, 902957, Note_on_c, 4, 76, 127
1, 902971, Note_off_c, 2, 74, 127
1, 903012, Note_on_c, 2, 74, 127
1, 903027, Note_off_c, 4, 76, 127
1, 903067, Note_on_c, 4, 76, 127
1, 903082, Note_off_c, 2, 74, 127
1, 903122, Note_on_c, 1, 73, 127
1, 903137, Note_off_c, 4, 76, 127
1, 903170, Note_off_c, 7, 55, 127
1, 903178, Note_on_c, 12, 59, 127
1, 903178, Note_on_c, 7, 55, 127
1, 903178, Note_on_c, 2, 74, 127
1, 903193, Note_off_c, 1, 73, 127
1, 903233, Note_on_c, 4, 76, 127
1, 903248, Note_off_c, 2, 74, 127
1, 903286, Note_off_c, 7, 55, 127
1, 903286, Note_off_c, 12, 59, 127
1, 903289, Note_on_c, 1, 61, 127
1, 903289, Note_on_c, 7, 55, 127
1, 903289, Note_on_c, 10, 69, 127
1, 903304, Note_off_c, 4, 76, 127
1, 903778, Note_off_c, 10, 69, 127
1, 903786, Note_on_c, 4, 76, 127
1, 903841, Note_on_c, 6, 78, 127
1, 903856, Note_off_c, 4, 76, 127
1, 903896, Note_on_c, 7, 79, 127
1, 903911, Note_off_c, 6, 78, 127
1, 903951, Note_on_c, 10, 81, 127
1, 903966, Note_off_c, 7, 79, 127
1, 904433, Note_off_c, 7, 55, 127
1, 904437, Note_off_c, 1, 61, 127
1, 904447, Note_on_c, 7, 55, 127
1, 904500, Note_off_c, 7, 55, 127
1, 904500, Note_off_c, 10, 81, 127
1, 904503, Note_on_c, 6, 54, 127
1, 904503, Note_on_c, 1, 73, 127
1, 904556, Note_off_c, 6, 54, 127
1, 904559, Note_on_c, 4, 52, 127
1, 904611, Note_off_c, 4, 52, 127
1, 904611, Note_off_c, 1, 73, 127
1, 904614, Note_on_c, 6, 54, 127
1, 904614, Note_on_c, 1, 73, 127
1, 904830, Note_off_c, 1, 73, 127
1, 904835, Note_on_c, 2, 74, 127
1, 904998, Note_off_c, 6, 54, 127
1, 905000, Note_on_c, 2, 50, 127
1, 905053, Note_off_c, 2, 50, 127
1, 905056, Note_on_c, 4, 52, 127
1, 905108, Note_off_c, 4, 52, 127
1, 905112, Note_on_c, 6, 54, 127
1, 905164, Note_off_c, 6, 54, 127
1, 905167, Note_on_c, 7, 55, 127
1, 905219, Note_off_c, 7, 55, 127
1, 905222, Note_on_c, 10, 57, 127
1, 905274, Note_off_c, 10, 57, 127
1, 905277, Note_on_c, 12, 59, 127
1, 905325, Note_off_c, 2, 74, 127
1, 905332, Note_on_c, 4, 76, 127
1, 905387, Note_on_c, 2, 74, 127
1, 905402, Note_off_c, 4, 76, 127
1, 905442, Note_on_c, 1, 73, 127
1, 905457, Note_off_c, 2, 74, 127
1, 905497, Note_on_c, 2, 74, 127
1, 905512, Note_off_c, 1, 73, 127
1, 905772, Note_off_c, 2, 74, 127
1, 905773, Note_on_c, 4, 76, 127
1, 905825, Note_off_c, 12, 59, 127
1, 905828, Note_on_c, 7, 55, 127
1, 905935, Note_off_c, 4, 76, 127
1, 905936, Note_off_c, 7, 55, 127
1, 905939, Note_on_c, 10, 57, 127
1, 905939, Note_on_c, 1, 73, 127
1, 905939, Note_on_c, 6, 78, 127
1, 906100, Note_off_c, 6, 78, 127
1, 906105, Note_on_c, 4, 76, 127
1, 906160, Note_on_c, 6, 78, 127
1, 906175, Note_off_c, 4, 76, 127
1, 906215, Note_on_c, 4, 76, 127
1, 906230, Note_off_c, 6, 78, 127
1, 906270, Note_on_c, 6, 78, 127
1, 906285, Note_off_c, 4, 76, 127
1, 906325, Note_on_c, 4, 76, 127
1, 906340, Note_off_c, 6, 78, 127
1, 906380, Note_on_c, 6, 78, 127
1, 906395, Note_off_c, 4, 76, 127
1, 906436, Note_on_c, 4, 76, 127
1, 906450, Note_off_c, 6, 78, 127
1, 906491, Note_on_c, 6, 78, 127
1, 906506, Note_off_c, 4, 76, 127
1, 906546, Note_on_c, 4, 76, 127
1, 906561, Note_off_c, 6, 78, 127
1, 906593, Note_off_c, 10, 57, 127
1, 906602, Note_on_c, 10, 45, 127
1, 906920, Note_off_c, 1, 73, 127
1, 907148, Note_off_c, 4, 76, 127
1, 907152, Note_on_c, 2, 74, 127
1, 907255, Note_off_c, 10, 45, 127
1, 907260, Note_off_c, 2, 74, 127
1, 907263, Note_on_c, 2, 38, 127
1, 907263, Note_on_c, 2, 74, 127
1, 907485, Note_off_c, 2, 74, 127
1, 907490, Note_on_c, 10, 81, 127
1, 907600, Note_off_c, 10, 81, 127
1, 907604, Note_on_c, 7, 79, 127
1, 907714, Note_off_c, 7, 79, 127
1, 907717, Note_on_c, 6, 78, 127
1, 907827, Note_off_c, 6, 78, 127
1, 907830, Note_on_c, 4, 76, 127
1, 907935, Note_off_c, 2, 38, 127
1, 907940, Note_off_c, 4, 76, 127
1, 907944, Note_on_c, 6, 78, 127
1, 908166, Note_off_c, 6, 78, 127
1, 908171, Note_on_c, 2, 74, 127
1, 908171, Note_on_c, 7, 79, 127
1, 908281, Note_off_c, 2, 74, 127
1, 908284, Note_on_c, 0, 72, 127
1, 908393, Note_off_c, 7, 79, 127
1, 908394, Note_off_c, 0, 72, 127
1, 908398, Note_on_c, 12, 71, 127
1, 908398, Note_on_c, 10, 81, 127
1, 908508, Note_off_c, 12, 71, 127
1, 908511, Note_on_c, 10, 69, 127
1, 908620, Note_off_c, 10, 81, 127
1, 908621, Note_off_c, 10, 69, 127
1, 908624, Note_on_c, 12, 71, 127
1, 908624, Note_on_c, 2, 74, 127
1, 908734, Note_off_c, 2, 74, 127
1, 908738, Note_on_c, 6, 78, 127
1, 908846, Note_off_c, 12, 71, 127
1, 908848, Note_off_c, 6, 78, 127
1, 908851, Note_on_c, 0, 72, 127
1, 908851, Note_on_c, 4, 76, 127
1, 908961, Note_off_c, 4, 76, 127
1, 908965, Note_on_c, 7, 79, 127
1, 909073, Note_off_c, 0, 72, 127
1, 909075, Note_off_c, 7, 79, 127
1, 909078, Note_on_c, 2, 74, 127
1, 909078, Note_on_c, 6, 78, 127
1, 909188, Note_off_c, 6, 78, 127
1, 909192, Note_on_c, 10, 81, 127
1, 909300, Note_off_c, 2, 74, 127
1, 909302, Note_off_c, 10, 81, 127
1, 909305, Note_on_c, 7, 67, 127
1, 909305, Note_on_c, 7, 79, 127
1, 909415, Note_off_c, 7, 67, 127
1, 909418, Note_on_c, 12, 71, 127
1, 909527, Note_off_c, 7, 79, 127
1, 909528, Note_off_c, 12, 71, 127
1, 909532, Note_on_c, 10, 69, 127
1, 909532, Note_on_c, 6, 78, 127
1, 909642, Note_off_c, 10, 69, 127
1, 909645, Note_on_c, 0, 72, 127
1, 909754, Note_off_c, 6, 78, 127
1, 909755, Note_off_c, 0, 72, 127
1, 909759, Note_on_c, 12, 71, 127
1, 909759, Note_on_c, 7, 79, 127
1, 909869, Note_off_c, 12, 71, 127
1, 909872, Note_on_c, 2, 74, 127
1, 909981, Note_off_c, 7, 79, 127
1, 909982, Note_off_c, 2, 74, 127
1, 909985, Note_on_c, 0, 72, 127
1, 909985, Note_on_c, 6, 78, 127
1, 910039, Note_off_c, 6, 78, 127
1, 910043, Note_on_c, 4, 76, 127
1, 910097, Note_off_c, 4, 76, 127
1, 910100, Note_on_c, 6, 78, 127
1, 910154, Note_off_c, 6, 78, 127
1, 910157, Note_on_c, 4, 76, 127
1, 910211, Note_off_c, 4, 76, 127
1, 910214, Note_on_c, 10, 69, 127
1, 910214, Note_on_c, 3, 75, 127
1, 910324, Note_off_c, 10, 69, 127
1, 910328, Note_on_c, 7, 67, 127
1, 910436, Note_off_c, 3, 75, 127
1, 910438, Note_off_c, 7, 67, 127
1, 910441, Note_on_c, 6, 66, 127
1, 910441, Note_on_c, 4, 76, 127
1, 910551, Note_off_c, 6, 66, 127
1, 910555, Note_on_c, 4, 64, 127
1, 910663, Note_off_c, 4, 76, 127
1, 910665, Note_off_c, 4, 64, 127
1, 910668, Note_on_c, 6, 66, 127
1, 910668, Note_on_c, 10, 81, 127
1, 910775, Note_off_c, 0, 72, 127
1, 910782, Note_on_c, 7, 79, 127
1, 910890, Note_off_c, 6, 66, 127
1, 910892, Note_off_c, 7, 79, 127
1, 910895, Note_on_c, 7, 67, 127
1, 910895, Note_on_c, 6, 78, 127
1, 911005, Note_off_c, 6, 78, 127
1, 911008, Note_on_c, 4, 76, 127
1, 911117, Note_off_c, 7, 67, 127
1, 911118, Note_off_c, 4, 76, 127
1, 911122, Note_on_c, 10, 69, 127
1, 911122, Note_on_c, 3, 75, 127
1, 911232, Note_off_c, 3, 75, 127
1, 911235, Note_on_c, 6, 78, 127
1, 911344, Note_off_c, 10, 69, 127
1, 911345, Note_off_c, 6, 78, 127
1, 911349, Note_on_c, 3, 63, 127
1, 911349, Note_on_c, 12, 71, 127
1, 911459, Note_off_c, 3, 63, 127
1, 911462, Note_on_c, 6, 66, 127
1, 911568, Note_off_c, 10, 81, 127
1, 911572, Note_off_c, 6, 66, 127
1, 911575, Note_on_c, 4, 64, 127
1, 911575, Note_on_c, 7, 79, 127
1, 911685, Note_off_c, 7, 79, 127
1, 911685, Note_off_c, 4, 64, 127
1, 911689, Note_on_c, 7, 67, 127
1, 911689, Note_on_c, 4, 76, 127
1, 911799, Note_off_c, 4, 76, 127
1, 911799, Note_off_c, 7, 67, 127
1, 911802, Note_on_c, 6, 66, 127
1, 911802, Note_on_c, 6, 78, 127
1, 911912, Note_off_c, 6, 78, 127
1, 911912, Note_off_c, 6, 66, 127
1, 911916, Note_on_c, 10, 69, 127
1, 911916, Note_on_c, 3, 75, 127
1, 912026, Note_off_c, 3, 75, 127
1, 912026, Note_off_c, 10, 69, 127
1, 912029, Note_on_c, 7, 67, 127
1, 912029, Note_on_c, 12, 83, 127
1, 912137, Note_off_c, 12, 71, 127
1, 912143, Note_on_c, 1, 73, 127
1, 912251, Note_off_c, 7, 67, 127
1, 912253, Note_off_c, 1, 73, 127
1, 912256, Note_on_c, 6, 66, 127
1, 912256, Note_on_c, 12, 59, 127
1, 912256, Note_on_c, 3, 75, 127
1, 912366, Note_off_c, 3, 75, 127
1, 912366, Note_off_c, 12, 59, 127
1, 912369, Note_on_c, 10, 57, 127
1, 912369, Note_on_c, 4, 76, 127
1, 912479, Note_off_c, 4, 76, 127
1, 912479, Note_off_c, 10, 57, 127
1, 912483, Note_on_c, 7, 55, 127
1, 912483, Note_on_c, 6, 78, 127
1, 912593, Note_off_c, 6, 78, 127
1, 912593, Note_off_c, 7, 55, 127
1, 912596, Note_on_c, 6, 54, 127
1, 912596, Note_on_c, 3, 75, 127
1, 912706, Note_off_c, 3, 75, 127
1, 912706, Note_off_c, 6, 54, 127
1, 912707, Note_off_c, 6, 66, 127
1, 912710, Note_on_c, 7, 55, 127
1, 912710, Note_on_c, 4, 76, 127
1, 912817, Note_off_c, 12, 83, 127
1, 912823, Note_on_c, 0, 84, 127
1, 912932, Note_off_c, 4, 76, 127
1, 912932, Note_off_c, 7, 55, 127
1, 912933, Note_off_c, 0, 84, 127
1, 912936, Note_on_c, 10, 57, 127
1, 912936, Note_on_c, 4, 64, 127
1, 912936, Note_on_c, 12, 83, 127
1, 913046, Note_off_c, 12, 83, 127
1, 913050, Note_on_c, 10, 81, 127
1, 913158, Note_off_c, 4, 64, 127
1, 913158, Note_off_c, 10, 57, 127
1, 913160, Note_off_c, 10, 81, 127
1, 913163, Note_on_c, 12, 59, 127
1, 913163, Note_on_c, 3, 63, 127
1, 913163, Note_on_c, 7, 79, 127
1, 913273, Note_off_c, 7, 79, 127
1, 913277, Note_on_c, 6, 78, 127
1, 913385, Note_off_c, 3, 63, 127
1, 913385, Note_off_c, 12, 59, 127
1, 913387, Note_off_c, 6, 78, 127
1, 913390, Note_on_c, 4, 52, 127
1, 913390, Note_on_c, 4, 64, 127
1, 913390, Note_on_c, 7, 79, 127
1, 913500, Note_off_c, 7, 79, 127
1, 913500, Note_off_c, 4, 52, 127
1, 913504, Note_on_c, 7, 55, 127
1, 913504, Note_on_c, 4, 76, 127
1, 913614, Note_off_c, 4, 76, 127
1, 913614, Note_off_c, 7, 55, 127
1, 913617, Note_on_c, 6, 54, 127
1, 913617, Note_on_c, 10, 81, 127
1, 913727, Note_off_c, 10, 81, 127
1, 913727, Note_off_c, 6, 54, 127
1, 913730, Note_on_c, 10, 57, 127
1, 913730, Note_on_c, 4, 76, 127
1, 913840, Note_off_c, 4, 76, 127
1, 913840, Note_off_c, 10, 57, 127
1, 913844, Note_on_c, 7, 55, 127
1, 913844, Note_on_c, 12, 83, 127
1, 913954, Note_off_c, 12, 83, 127
1, 913954, Note_off_c, 7, 55, 127
1, 913957, Note_on_c, 12, 59, 127
1, 913957, Note_on_c, 4, 76, 127
1, 914064, Note_off_c, 4, 64, 127
1, 914067, Note_off_c, 4, 76, 127
1, 914067, Note_off_c, 12, 59, 127
1, 914071, Note_on_c, 10, 57, 127
1, 914071, Note_on_c, 0, 84, 127
1, 914181, Note_off_c, 0, 84, 127
1, 914184, Note_on_c, 12, 83, 127
1, 914293, Note_off_c, 10, 57, 127
1, 914294, Note_off_c, 12, 83, 127
1, 914298, Note_on_c, 12, 59, 127
1, 914298, Note_on_c, 10, 81, 127
1, 914408, Note_off_c, 10, 81, 127
1, 914411, Note_on_c, 7, 79, 127
1, 914520, Note_off_c, 12, 59, 127
1, 914521, Note_off_c, 7, 79, 127
1, 914524, Note_on_c, 0, 60, 127
1, 914524, Note_on_c, 6, 78, 127
1, 914634, Note_off_c, 6, 78, 127
1, 914638, Note_on_c, 4, 76, 127
1, 914746, Note_off_c, 0, 60, 127
1, 914748, Note_off_c, 4, 76, 127
1, 914751, Note_on_c, 6, 54, 127
1, 914751, Note_on_c, 10, 69, 127
1, 914751, Note_on_c, 2, 74, 127
1, 914861, Note_off_c, 2, 74, 127
1, 914861, Note_off_c, 6, 54, 127
1, 914865, Note_on_c, 10, 57, 127
1, 914865, Note_on_c, 6, 78, 127
1, 914973, Note_off_c, 10, 69, 127
1, 914975, Note_off_c, 6, 78, 127
1, 914975, Note_off_c, 10, 57, 127
1, 914978, Note_on_c, 7, 55, 127
1, 914978, Note_on_c, 12, 71, 127
1, 914978, Note_on_c, 4, 76, 127
1, 915088, Note_off_c, 4, 76, 127
1, 915088, Note_off_c, 7, 55, 127
1, 915091, Note_on_c, 12, 59, 127
1, 915091, Note_on_c, 7, 79, 127
1, 915200, Note_off_c, 12, 71, 127
1, 915201, Note_off_c, 7, 79, 127
1, 915201, Note_off_c, 12, 59, 127
1, 915205, Note_on_c, 10, 57, 127
1, 915205, Note_on_c, 0, 72, 127
1, 915205, Note_on_c, 6, 78, 127
1, 915315, Note_off_c, 6, 78, 127
1, 915315, Note_off_c, 10, 57, 127
1, 915318, Note_on_c, 0, 60, 127
1, 915318, Note_on_c, 10, 81, 127
1, 915427, Note_off_c, 0, 72, 127
1, 915428, Note_off_c, 10, 81, 127
1, 915428, Note_off_c, 0, 60, 127
1, 915432, Note_on_c, 12, 59, 127
1, 915432, Note_on_c, 2, 74, 127
1, 915432, Note_on_c, 7, 79, 127
1, 915542, Note_off_c, 7, 79, 127
1, 915545, Note_on_c, 10, 81, 127
1, 915654, Note_off_c, 2, 74, 127
1, 915654, Note_off_c, 12, 59, 127
1, 915655, Note_off_c, 10, 81, 127
1, 915659, Note_on_c, 0, 60, 127
1, 915659, Note_on_c, 4, 76, 127
1, 915659, Note_on_c, 12, 83, 127
1, 915713, Note_off_c, 12, 83, 127
1, 915716, Note_on_c, 10, 81, 127
1, 915770, Note_off_c, 10, 81, 127
1, 915773, Note_on_c, 12, 83, 127
1, 915827, Note_off_c, 12, 83, 127
1, 915830, Note_on_c, 10, 81, 127
1, 915883, Note_off_c, 4, 76, 127
1, 915883, Note_off_c, 0, 60, 127
1, 915884, Note_off_c, 10, 81, 127
1, 915888, Note_on_c, 2, 62, 127
1, 915888, Note_on_c, 6, 78, 127
1, 915888, Note_on_c, 12, 83, 127
1, 915942, Note_off_c, 12, 83, 127
1, 915945, Note_on_c, 10, 81, 127
1, 915999, Note_off_c, 10, 81, 127
1, 916002, Note_on_c, 7, 79, 127
1, 916056, Note_off_c, 7, 79, 127
1, 916059, Note_on_c, 10, 81, 127
1, 916112, Note_off_c, 6, 78, 127
1, 916112, Note_off_c, 2, 62, 127
1, 916113, Note_off_c, 10, 81, 127
1, 916116, Note_on_c, 7, 55, 127
1, 916116, Note_on_c, 7, 79, 127
1, 916116, Note_on_c, 12, 83, 127
1, 916226, Note_off_c, 7, 55, 127
1, 916230, Note_on_c, 12, 59, 127
1, 916340, Note_off_c, 12, 59, 127
1, 916343, Note_on_c, 10, 57, 127
1, 916453, Note_off_c, 10, 57, 127
1, 916457, Note_on_c, 0, 60, 127
1, 916563, Note_off_c, 7, 79, 127
1, 916567, Note_off_c, 0, 60, 127
1, 916567, Note_off_c, 12, 83, 127
1, 916570, Note_on_c, 12, 59, 127
1, 916570, Note_on_c, 2, 74, 127
1, 916570, Note_on_c, 7, 79, 127
1, 916680, Note_off_c, 12, 59, 127
1, 916684, Note_on_c, 2, 62, 127
1, 916792, Note_off_c, 7, 79, 127
1, 916792, Note_off_c, 2, 74, 127
1, 916794, Note_off_c, 2, 62, 127
1, 916797, Note_on_c, 0, 60, 127
1, 916797, Note_on_c, 7, 67, 127
1, 916797, Note_on_c, 4, 76, 127
1, 917019, Note_off_c, 4, 76, 127
1, 917019, Note_off_c, 7, 67, 127
1, 917019, Note_off_c, 0, 60, 127
1, 917024, Note_on_c, 10, 57, 127
1, 917024, Note_on_c, 10, 69, 127
1, 917024, Note_on_c, 6, 78, 127
1, 917246, Note_off_c, 6, 78, 127
1, 917246, Note_off_c, 10, 69, 127
1, 917246, Note_off_c, 10, 57, 127
1, 917251, Note_on_c, 12, 59, 127
1, 917251, Note_on_c, 6, 66, 127
1, 917251, Note_on_c, 4, 76, 127
1, 917305, Note_off_c, 4, 76, 127
1, 917308, Note_on_c, 3, 75, 127
1, 917362, Note_off_c, 3, 75, 127
1, 917365, Note_on_c, 1, 73, 127
1, 917419, Note_off_c, 1, 73, 127
1, 917422, Note_on_c, 3, 75, 127
1, 917475, Note_off_c, 6, 66, 127
1, 917475, Note_off_c, 12, 59, 127
1, 917476, Note_off_c, 3, 75, 127
1, 917480, Note_on_c, 4, 52, 127
1, 917480, Note_on_c, 7, 67, 127
1, 917480, Note_on_c, 4, 76, 127
1, 917702, Note_off_c, 7, 67, 127
1, 917702, Note_off_c, 4, 52, 127
1, 917706, Note_on_c, 4, 64, 127
1, 917706, Note_on_c, 10, 69, 127
1, 917760, Note_off_c, 10, 69, 127
1, 917764, Note_on_c, 8, 68, 127
1, 917817, Note_off_c, 4, 64, 127
1, 917818, Note_off_c, 8, 68, 127
1, 917821, Note_on_c, 2, 62, 127
1, 917821, Note_on_c, 10, 69, 127
1, 917875, Note_off_c, 10, 69, 127
1, 917878, Note_on_c, 8, 68, 127
1, 917932, Note_off_c, 8, 68, 127
1, 917932, Note_off_c, 2, 62, 127
1, 917935, Note_on_c, 0, 60, 127
1, 917935, Note_on_c, 10, 69, 127
1, 917989, Note_off_c, 10, 69, 127
1, 917993, Note_on_c, 8, 68, 127
1, 918046, Note_off_c, 0, 60, 127
1, 918047, Note_off_c, 8, 68, 127
1, 918050, Note_on_c, 12, 59, 127
1, 918050, Note_on_c, 6, 66, 127
1, 918104, Note_off_c, 6, 66, 127
1, 918107, Note_on_c, 8, 68, 127
1, 918156, Note_off_c, 4, 76, 127
1, 918161, Note_off_c, 8, 68, 127
1, 918161, Note_off_c, 12, 59, 127
1, 918164, Note_on_c, 0, 60, 127
1, 918164, Note_on_c, 10, 69, 127
1, 918386, Note_off_c, 0, 60, 127
1, 918391, Note_on_c, 2, 62, 127
1, 918391, Note_on_c, 4, 76, 127
1, 918501, Note_off_c, 4, 76, 127
1, 918505, Note_on_c, 2, 74, 127
1, 918613, Note_off_c, 2, 62, 127
1, 918615, Note_off_c, 2, 74, 127
1, 918615, Note_off_c, 10, 69, 127
1, 918618, Note_on_c, 4, 64, 127
1, 918618, Note_on_c, 8, 68, 127
1, 918618, Note_on_c, 0, 72, 127
1, 918728, Note_off_c, 0, 72, 127
1, 918732, Note_on_c, 12, 71, 127
1, 918840, Note_off_c, 8, 68, 127
1, 918840, Note_off_c, 4, 64, 127
1, 918842, Note_off_c, 12, 71, 127
1, 918845, Note_on_c, 10, 57, 127
1, 918845, Note_on_c, 10, 69, 127
1, 918845, Note_on_c, 0, 72, 127
1, 918955, Note_off_c, 10, 57, 127
1, 918958, Note_on_c, 0, 60, 127
1, 919067, Note_off_c, 0, 72, 127
1, 919067, Note_off_c, 10, 69, 127
1, 919068, Note_off_c, 0, 60, 127
1, 919072, Note_on_c, 12, 59, 127
1, 919072, Note_on_c, 7, 67, 127
1, 919072, Note_on_c, 2, 74, 127
1, 919182, Note_off_c, 12, 59, 127
1, 919185, Note_on_c, 2, 62, 127
1, 919294, Note_off_c, 2, 74, 127
1, 919295, Note_off_c, 2, 62, 127
1, 919299, Note_on_c, 1, 61, 127
1, 919299, Note_on_c, 4, 76, 127
1, 919409, Note_off_c, 1, 61, 127
1, 919412, Note_on_c, 4, 64, 127
1, 919521, Note_off_c, 4, 76, 127
1, 919522, Note_off_c, 4, 64, 127
1, 919523, Note_off_c, 7, 67, 127
1, 919525, Note_on_c, 2, 62, 127
1, 919525, Note_on_c, 6, 66, 127
1, 919525, Note_on_c, 10, 69, 127
1, 919635, Note_off_c, 10, 69, 127
1, 919639, Note_on_c, 0, 72, 127
1, 919747, Note_off_c, 6, 66, 127
1, 919749, Note_off_c, 0, 72, 127
1, 919752, Note_on_c, 7, 67, 127
1, 919752, Note_on_c, 12, 71, 127
1, 919862, Note_off_c, 12, 71, 127
1, 919866, Note_on_c, 2, 74, 127
1, 919974, Note_off_c, 7, 67, 127
1, 919976, Note_off_c, 2, 74, 127
1, 919979, Note_on_c, 4, 64, 127
1, 919979, Note_on_c, 1, 73, 127
1, 920089, Note_off_c, 1, 73, 127
1, 920093, Note_on_c, 4, 76, 127
1, 920201, Note_off_c, 4, 64, 127
1, 920203, Note_off_c, 4, 76, 127
1, 920206, Note_on_c, 6, 66, 127
1, 920206, Note_on_c, 2, 74, 127
1, 920316, Note_off_c, 2, 74, 127
1, 920319, Note_on_c, 4, 76, 127
1, 920373, Note_off_c, 4, 76, 127
1, 920377, Note_on_c, 6, 78, 127
1, 920426, Note_off_c, 2, 62, 127
1, 920431, Note_off_c, 6, 78, 127
1, 920434, Note_on_c, 2, 50, 127
1, 920434, Note_on_c, 7, 79, 127
1, 920488, Note_off_c, 7, 79, 127
1, 920491, Note_on_c, 6, 78, 127
1, 920545, Note_off_c, 6, 78, 127
1, 920545, Note_off_c, 2, 50, 127
1, 920548, Note_on_c, 0, 48, 127
1, 920548, Note_on_c, 7, 79, 127
1, 920602, Note_off_c, 7, 79, 127
1, 920606, Note_on_c, 6, 78, 127
1, 920659, Note_off_c, 0, 48, 127
1, 920660, Note_off_c, 6, 78, 127
1, 920663, Note_on_c, 12, 47, 127
1, 920663, Note_on_c, 7, 79, 127
1, 920717, Note_off_c, 7, 79, 127
1, 920720, Note_on_c, 6, 78, 127
1, 920774, Note_off_c, 6, 78, 127
1, 920774, Note_off_c, 12, 47, 127
1, 920777, Note_on_c, 10, 45, 127
1, 920777, Note_on_c, 4, 76, 127
1, 920831, Note_off_c, 4, 76, 127
1, 920835, Note_on_c, 6, 78, 127
1, 920885, Note_off_c, 6, 66, 127
1, 920888, Note_off_c, 10, 45, 127
1, 920889, Note_off_c, 6, 78, 127
1, 920892, Note_on_c, 12, 47, 127
1, 920892, Note_on_c, 7, 79, 127
1, 921114, Note_off_c, 7, 79, 127
1, 921114, Note_off_c, 12, 47, 127
1, 921119, Note_on_c, 0, 48, 127
1, 921119, Note_on_c, 7, 55, 127
1, 921119, Note_on_c, 6, 78, 127
1, 921229, Note_off_c, 6, 78, 127
1, 921232, Note_on_c, 4, 76, 127
1, 921341, Note_off_c, 7, 55, 127
1, 921341, Note_off_c, 0, 48, 127
1, 921342, Note_off_c, 4, 76, 127
1, 921345, Note_on_c, 2, 50, 127
1, 921345, Note_on_c, 6, 54, 127
1, 921345, Note_on_c, 2, 74, 127
1, 921455, Note_off_c, 2, 74, 127
1, 921459, Note_on_c, 0, 72, 127
1, 921567, Note_off_c, 6, 54, 127
1, 921567, Note_off_c, 2, 50, 127
1, 921569, Note_off_c, 0, 72, 127
1, 921572, Note_on_c, 7, 43, 127
1, 921572, Note_on_c, 7, 55, 127
1, 921572, Note_on_c, 12, 71, 127
1, 921682, Note_off_c, 12, 71, 127
1, 921682, Note_off_c, 7, 43, 127
1, 921686, Note_on_c, 12, 47, 127
1, 921686, Note_on_c, 2, 74, 127
1, 921796, Note_off_c, 2, 74, 127
1, 921796, Note_off_c, 12, 47, 127
1, 921799, Note_on_c, 10, 45, 127
1, 921799, Note_on_c, 0, 72, 127
1, 921909, Note_off_c, 0, 72, 127
1, 921909, Note_off_c, 10, 45, 127
1, 921913, Note_on_c, 0, 48, 127
1, 921913, Note_on_c, 4, 76, 127
1, 922023, Note_off_c, 4, 76, 127
1, 922023, Note_off_c, 0, 48, 127
1, 922026, Note_on_c, 12, 47, 127
1, 922026, Note_on_c, 2, 74, 127
1, 922136, Note_off_c, 2, 74, 127
1, 922136, Note_off_c, 12, 47, 127
1, 922139, Note_on_c, 2, 50, 127
1, 922139, Note_on_c, 5, 77, 127
1, 922246, Note_off_c, 7, 55, 127
1, 922249, Note_off_c, 5, 77, 127
1, 922249, Note_off_c, 2, 50, 127
1, 922253, Note_on_c, 0, 48, 127
1, 922253, Note_on_c, 4, 76, 127
1, 922363, Note_off_c, 0, 48, 127
1, 922366, Note_on_c, 12, 47, 127
1, 922476, Note_off_c, 12, 47, 127
1, 922480, Note_on_c, 10, 45, 127
1, 922480, Note_on_c, 6, 66, 127
1, 922590, Note_off_c, 10, 45, 127
1, 922593, Note_on_c, 7, 43, 127
1, 922702, Note_off_c, 6, 66, 127
1, 922703, Note_off_c, 7, 43, 127
1, 922707, Note_on_c, 6, 42, 127
1, 922707, Note_on_c, 10, 69, 127
1, 922761, Note_off_c, 10, 69, 127
1, 922764, Note_on_c, 7, 67, 127
1, 922818, Note_off_c, 7, 67, 127
1, 922818, Note_off_c, 6, 42, 127
1, 922821, Note_on_c, 4, 40, 127
1, 922821, Note_on_c, 6, 66, 127
1, 922875, Note_off_c, 6, 66, 127
1, 922878, Note_on_c, 7, 67, 127
1, 922932, Note_off_c, 7, 67, 127
1, 922932, Note_off_c, 4, 40, 127
1, 922935, Note_on_c, 6, 42, 127
1, 922935, Note_on_c, 10, 69, 127
1, 923043, Note_off_c, 4, 76, 127
1, 923049, Note_on_c, 2, 74, 127
1, 923157, Note_off_c, 6, 42, 127
1, 923159, Note_off_c, 2, 74, 127
1, 923162, Note_on_c, 10, 45, 127
1, 923162, Note_on_c, 0, 72, 127
1, 923216, Note_off_c, 10, 45, 127
1, 923220, Note_on_c, 7, 43, 127
1, 923273, Note_off_c, 0, 72, 127
1, 923274, Note_off_c, 7, 43, 127
1, 923277, Note_on_c, 6, 42, 127
1, 923277, Note_on_c, 12, 71, 127
1, 923331, Note_off_c, 6, 42, 127
1, 923334, Note_on_c, 7, 43, 127
1, 923388, Note_off_c, 7, 43, 127
1, 923388, Note_off_c, 12, 71, 127
1, 923391, Note_on_c, 10, 45, 127
1, 923391, Note_on_c, 0, 72, 127
1, 923501, Note_off_c, 0, 72, 127
1, 923505, Note_on_c, 6, 78, 127
1, 923609, Note_off_c, 10, 69, 127
1, 923613, Note_off_c, 10, 45, 127
1, 923615, Note_off_c, 6, 78, 127
1, 923618, Note_on_c, 2, 38, 127
1, 923618, Note_on_c, 10, 81, 127
1, 923728, Note_off_c, 2, 38, 127
1, 923732, Note_on_c, 6, 42, 127
1, 923732, Note_on_c, 2, 74, 127
1, 923784, Note_off_c, 10, 81, 127
1, 923842, Note_off_c, 2, 74, 127
1, 923842, Note_off_c, 6, 42, 127
1, 923845, Note_on_c, 4, 40, 127
1, 923845, Note_on_c, 0, 72, 127
1, 923955, Note_off_c, 0, 72, 127
1, 923955, Note_off_c, 4, 40, 127
1, 923958, Note_on_c, 7, 43, 127
1, 923958, Note_on_c, 12, 71, 127
1, 924068, Note_off_c, 12, 71, 127
1, 924068, Note_off_c, 7, 43, 127
1, 924072, Note_on_c, 6, 42, 127
1, 924072, Note_on_c, 0, 72, 127
1, 924182, Note_off_c, 0, 72, 127
1, 924182, Note_off_c, 6, 42, 127
1, 924185, Note_on_c, 10, 45, 127
1, 924185, Note_on_c, 10, 69, 127
1, 924295, Note_off_c, 10, 69, 127
1, 924295, Note_off_c, 10, 45, 127
1, 924299, Note_on_c, 7, 43, 127
1, 924299, Note_on_c, 12, 71, 127
1, 924412, Note_on_c, 4, 76, 127
1, 924521, Note_off_c, 7, 43, 127
1, 924522, Note_off_c, 4, 76, 127
1, 924525, Note_on_c, 12, 47, 127
1, 924525, Note_on_c, 2, 74, 127
1, 924579, Note_off_c, 12, 47, 127
1, 924583, Note_on_c, 10, 45, 127
1, 924635, Note_off_c, 12, 71, 127
1, 924636, Note_off_c, 2, 74, 127
1, 924637, Note_off_c, 10, 45, 127
1, 924640, Note_on_c, 7, 43, 127
1, 924640, Note_on_c, 0, 72, 127
1, 924694, Note_off_c, 7, 43, 127
1, 924697, Note_on_c, 10, 45, 127
1, 924751, Note_off_c, 10, 45, 127
1, 924751, Note_off_c, 0, 72, 127
1, 924754, Note_on_c, 12, 47, 127
1, 924754, Note_on_c, 2, 74, 127
1, 924864, Note_off_c, 2, 74, 127
1, 924868, Note_on_c, 8, 80, 127
1, 924976, Note_off_c, 12, 47, 127
1, 924978, Note_off_c, 8, 80, 127
1, 924981, Note_on_c, 4, 40, 127
1, 924981, Note_on_c, 12, 83, 127
1, 925091, Note_off_c, 4, 40, 127
1, 925095, Note_on_c, 8, 44, 127
1, 925095, Note_on_c, 4, 76, 127
1, 925147, Note_off_c, 12, 83, 127
1, 925205, Note_off_c, 4, 76, 127
1, 925205, Note_off_c, 8, 44, 127
1, 925208, Note_on_c, 6, 42, 127
1, 925208, Note_on_c, 2, 74, 127
1, 925318, Note_off_c, 2, 74, 127
1, 925318, Note_off_c, 6, 42, 127
1, 925322, Note_on_c, 10, 45, 127
1, 925322, Note_on_c, 0, 72, 127
1, 925432, Note_off_c, 0, 72, 127
1, 925432, Note_off_c, 10, 45, 127
1, 925435, Note_on_c, 8, 44, 127
1, 925435, Note_on_c, 2, 74, 127
1, 925545, Note_off_c, 2, 74, 127
1, 925545, Note_off_c, 8, 44, 127
1, 925548, Note_on_c, 12, 47, 127
1, 925548, Note_on_c, 12, 71, 127
1, 925658, Note_off_c, 12, 71, 127
1, 925658, Note_off_c, 12, 47, 127
1, 925662, Note_on_c, 10, 45, 127
1, 925662, Note_on_c, 0, 72, 127
1, 925772, Note_off_c, 10, 45, 127
1, 925775, Note_on_c, 4, 52, 127
1, 925775, Note_on_c, 7, 67, 127
1, 925885, Note_off_c, 7, 67, 127
1, 925885, Note_off_c, 4, 52, 127
1, 925889, Note_on_c, 10, 57, 127
1, 925889, Note_on_c, 6, 66, 127
1, 925999, Note_off_c, 6, 66, 127
1, 925999, Note_off_c, 10, 57, 127
1, 926002, Note_on_c, 7, 55, 127
1, 926002, Note_on_c, 7, 67, 127
1, 926112, Note_off_c, 7, 67, 127
1, 926112, Note_off_c, 7, 55, 127
1, 926115, Note_on_c, 6, 54, 127
1, 926115, Note_on_c, 10, 69, 127
1, 926225, Note_off_c, 10, 69, 127
1, 926225, Note_off_c, 6, 54, 127
1, 926229, Note_on_c, 4, 52, 127
1, 926229, Note_on_c, 6, 66, 127
1, 926339, Note_off_c, 6, 66, 127
1, 926339, Note_off_c, 4, 52, 127
1, 926342, Note_on_c, 6, 54, 127
1, 926342, Note_on_c, 2, 62, 127
1, 926450, Note_off_c, 0, 72, 127
1, 926452, Note_off_c, 6, 54, 127
1, 926456, Note_on_c, 7, 55, 127
1, 926456, Note_on_c, 12, 71, 127
1, 926566, Note_off_c, 12, 71, 127
1, 926566, Note_off_c, 7, 55, 127
1, 926569, Note_on_c, 6, 54, 127
1, 926569, Note_on_c, 10, 69, 127
1, 926679, Note_off_c, 10, 69, 127
1, 926679, Note_off_c, 6, 54, 127
1, 926683, Note_on_c, 4, 52, 127
1, 926683, Note_on_c, 12, 71, 127
1, 926793, Note_off_c, 12, 71, 127
1, 926793, Note_off_c, 4, 52, 127
1, 926796, Note_on_c, 2, 50, 127
1, 926796, Note_on_c, 0, 72, 127
1, 926906, Note_off_c, 0, 72, 127
1, 926906, Note_off_c, 2, 50, 127
1, 926909, Note_on_c, 0, 48, 127
1, 926909, Note_on_c, 10, 69, 127
1, 927019, Note_off_c, 10, 69, 127
1, 927019, Note_off_c, 0, 48, 127
1, 927023, Note_on_c, 12, 47, 127
1, 927023, Note_on_c, 2, 74, 127
1, 927130, Note_off_c, 2, 62, 127
1, 927133, Note_off_c, 12, 47, 127
1, 927136, Note_on_c, 2, 50, 127
1, 927136, Note_on_c, 6, 66, 127
1, 927246, Note_off_c, 6, 66, 127
1, 927246, Note_off_c, 2, 50, 127
1, 927250, Note_on_c, 0, 48, 127
1, 927250, Note_on_c, 4, 64, 127
1, 927360, Note_off_c, 4, 64, 127
1, 927360, Note_off_c, 0, 48, 127
1, 927363, Note_on_c, 4, 52, 127
1, 927363, Note_on_c, 7, 67, 127
1, 927473, Note_off_c, 7, 67, 127
1, 927473, Note_off_c, 4, 52, 127
1, 927474, Note_off_c, 2, 74, 127
1, 927477, Note_on_c, 2, 50, 127
1, 927477, Note_on_c, 6, 66, 127
1, 927477, Note_on_c, 12, 71, 127
1, 927587, Note_off_c, 2, 50, 127
1, 927590, Note_on_c, 6, 54, 127
1, 927699, Note_off_c, 12, 71, 127
1, 927699, Note_off_c, 6, 66, 127
1, 927700, Note_off_c, 6, 54, 127
1, 927703, Note_on_c, 4, 52, 127
1, 927703, Note_on_c, 12, 59, 127
1, 927703, Note_on_c, 7, 67, 127
1, 927925, Note_off_c, 7, 67, 127
1, 927925, Note_off_c, 12, 59, 127
1, 927925, Note_off_c, 4, 52, 127
1, 927965, Note_on_c, 0, 48, 127
1, 927965, Note_on_c, 10, 69, 127
1, 927965, Note_on_c, 0, 60, 127
1, 928187, Note_off_c, 0, 60, 127
1, 928187, Note_off_c, 10, 69, 127
1, 928187, Note_off_c, 0, 48, 127
1, 928243, Note_on_c, 10, 57, 127
1, 928243, Note_on_c, 2, 50, 127
1, 928243, Note_on_c, 6, 66, 127
1, 928465, Note_off_c, 6, 66, 127
1, 928465, Note_off_c, 2, 50, 127
1, 928465, Note_off_c, 10, 57, 127
1, 928572, Note_on_c, 7, 67, 127
1, 928572, Note_on_c, 7, 43, 127
1, 928572, Note_on_c, 12, 59, 127
1, 930172, Note_off_c, 12, 59, 127
1, 930172, Note_off_c, 7, 43, 127
1, 930172, Note_off_c, 7, 67, 127
1, 931144, Note_on_c, 7, 43, 127
1, 931144, Note_on_c, 12, 71, 127
1, 931277, Note_off_c, 12, 71, 127
1, 931285, Note_on_c, 2, 74, 127
1, 931285, Note_on_c, 12, 47, 127
1, 931344, Note_off_c, 7, 43, 127
1, 931418, Note_off_c, 12, 47, 127
1, 931418, Note_off_c, 2, 74, 127
1, 931421, Note_on_c, 6, 78, 127
1, 931421, Note_on_c, 10, 45, 127
1, 931554, Note_off_c, 6, 78, 127
1, 931557, Note_on_c, 10, 81, 127
1, 931557, Note_on_c, 0, 48, 127
1, 931621, Note_off_c, 10, 45, 127
1, 931690, Note_off_c, 0, 48, 127
1, 931690, Note_off_c, 10, 81, 127
1, 931692, Note_on_c, 7, 79, 127
1, 931692, Note_on_c, 12, 47, 127
1, 931828, Note_on_c, 2, 50, 127
1, 931892, Note_off_c, 12, 47, 127
1, 931961, Note_off_c, 2, 50, 127
1, 931964, Note_on_c, 0, 48, 127
1, 932094, Note_off_c, 7, 79, 127
1, 932100, Note_on_c, 0, 72, 127
1, 932100, Note_on_c, 4, 52, 127
1, 932164, Note_off_c, 0, 48, 127
1, 932233, Note_off_c, 4, 52, 127
1, 932233, Note_off_c, 0, 72, 127
1, 932235, Note_on_c, 12, 71, 127
1, 932235, Note_on_c, 2, 50, 127
1, 932368, Note_off_c, 12, 71, 127
1, 932371, Note_on_c, 10, 69, 127
1, 932371, Note_on_c, 6, 54, 127
1, 932435, Note_off_c, 2, 50, 127
1, 932504, Note_off_c, 6, 54, 127
1, 932504, Note_off_c, 10, 69, 127
1, 932507, Note_on_c, 7, 67, 127
1, 932507, Note_on_c, 4, 52, 127
1, 932640, Note_off_c, 7, 67, 127
1, 932642, Note_on_c, 12, 71, 127
1, 932642, Note_on_c, 7, 55, 127
1, 932707, Note_off_c, 4, 52, 127
1, 932775, Note_off_c, 7, 55, 127
1, 932775, Note_off_c, 12, 71, 127
1, 932778, Note_on_c, 10, 69, 127
1, 932778, Note_on_c, 6, 54, 127
1, 932911, Note_off_c, 10, 69, 127
1, 932914, Note_on_c, 1, 73, 127
1, 932914, Note_on_c, 10, 57, 127
1, 932978, Note_off_c, 6, 54, 127
1, 933047, Note_off_c, 10, 57, 127
1, 933047, Note_off_c, 1, 73, 127
1, 933049, Note_on_c, 4, 76, 127
1, 933049, Note_on_c, 7, 55, 127
1, 933182, Note_off_c, 4, 76, 127
1, 933185, Note_on_c, 7, 79, 127
1, 933185, Note_on_c, 12, 59, 127
1, 933249, Note_off_c, 7, 55, 127
1, 933318, Note_off_c, 12, 59, 127
1, 933318, Note_off_c, 7, 79, 127
1, 933321, Note_on_c, 6, 78, 127
1, 933321, Note_on_c, 10, 57, 127
1, 933456, Note_on_c, 1, 61, 127
1, 933521, Note_off_c, 10, 57, 127
1, 933589, Note_off_c, 1, 61, 127
1, 933592, Note_on_c, 12, 59, 127
1, 933723, Note_off_c, 6, 78, 127
1, 933728, Note_on_c, 12, 71, 127
1, 933728, Note_on_c, 2, 62, 127
1, 933792, Note_off_c, 12, 59, 127
1, 933861, Note_off_c, 2, 62, 127
1, 933861, Note_off_c, 12, 71, 127
1, 933863, Note_on_c, 10, 69, 127
1, 933863, Note_on_c, 1, 61, 127
1, 933996, Note_off_c, 10, 69, 127
1, 933999, Note_on_c, 7, 67, 127
1, 933999, Note_on_c, 4, 64, 127
1, 934063, Note_off_c, 1, 61, 127
1, 934132, Note_off_c, 4, 64, 127
1, 934132, Note_off_c, 7, 67, 127
1, 934135, Note_on_c, 6, 66, 127
1, 934135, Note_on_c, 2, 62, 127
1, 934268, Note_off_c, 6, 66, 127
1, 934270, Note_on_c, 10, 69, 127
1, 934270, Note_on_c, 6, 66, 127
1, 934335, Note_off_c, 2, 62, 127
1, 934403, Note_off_c, 6, 66, 127
1, 934403, Note_off_c, 10, 69, 127
1, 934406, Note_on_c, 7, 67, 127
1, 934406, Note_on_c, 4, 64, 127
1, 934539, Note_off_c, 7, 67, 127
1, 934542, Note_on_c, 12, 71, 127
1, 934542, Note_on_c, 7, 67, 127
1, 934606, Note_off_c, 4, 64, 127
1, 934675, Note_off_c, 7, 67, 127
1, 934675, Note_off_c, 12, 71, 127
1, 934677, Note_on_c, 2, 74, 127
1, 934677, Note_on_c, 6, 66, 127
1, 934810, Note_off_c, 2, 74, 127
1, 934813, Note_on_c, 6, 78, 127
1, 934813, Note_on_c, 10, 69, 127
1, 934877, Note_off_c, 6, 66, 127
1, 934946, Note_off_c, 10, 69, 127
1, 934946, Note_off_c, 6, 78, 127
1, 934949, Note_on_c, 4, 76, 127
1, 934949, Note_on_c, 7, 67, 127
1, 935084, Note_on_c, 12, 71, 127
1, 935149, Note_off_c, 7, 67, 127
1, 935217, Note_off_c, 12, 71, 127
1, 935220, Note_on_c, 10, 69, 127
1, 935351, Note_off_c, 4, 76, 127
1, 935356, Note_on_c, 1, 73, 127
1, 935420, Note_off_c, 10, 69, 127
1, 935489, Note_off_c, 1, 73, 127
1, 935492, Note_on_c, 7, 67, 127
1, 935492, Note_on_c, 12, 71, 127
1, 935625, Note_off_c, 7, 67, 127
1, 935627, Note_on_c, 6, 66, 127
1, 935627, Note_on_c, 2, 74, 127
1, 935692, Note_off_c, 12, 71, 127
1, 935760, Note_off_c, 2, 74, 127
1, 935760, Note_off_c, 6, 66, 127
1, 935763, Note_on_c, 4, 64, 127
1, 935763, Note_on_c, 1, 73, 127
1, 935896, Note_off_c, 4, 64, 127
1, 935899, Note_on_c, 7, 67, 127
1, 935899, Note_on_c, 4, 76, 127
1, 935963, Note_off_c, 1, 73, 127
1, 936032, Note_off_c, 4, 76, 127
1, 936032, Note_off_c, 7, 67, 127
1, 936034, Note_on_c, 6, 66, 127
1, 936034, Note_on_c, 2, 74, 127
1, 936167, Note_off_c, 2, 74, 127
1, 936167, Note_off_c, 6, 66, 127
1, 936170, Note_on_c, 4, 64, 127
1, 936170, Note_on_c, 1, 73, 127
1, 936303, Note_off_c, 1, 73, 127
1, 936303, Note_off_c, 4, 64, 127
1, 936306, Note_on_c, 6, 66, 127
1, 936306, Note_on_c, 2, 74, 127
1, 936439, Note_off_c, 2, 74, 127
1, 936439, Note_off_c, 6, 66, 127
1, 936441, Note_on_c, 4, 64, 127
1, 936441, Note_on_c, 1, 73, 127
1, 936574, Note_off_c, 1, 73, 127
1, 936574, Note_off_c, 4, 64, 127
1, 936577, Note_on_c, 6, 66, 127
1, 936577, Note_on_c, 2, 74, 127
1, 936710, Note_off_c, 6, 66, 127
1, 936713, Note_on_c, 10, 69, 127
1, 936845, Note_off_c, 2, 74, 127
1, 936846, Note_off_c, 10, 69, 127
1, 936848, Note_on_c, 2, 74, 127
1, 936984, Note_on_c, 1, 73, 127
1, 937116, Note_off_c, 2, 74, 127
1, 937117, Note_off_c, 1, 73, 127
1, 937120, Note_on_c, 2, 74, 127
1, 937255, Note_on_c, 6, 78, 127
1, 937388, Note_off_c, 6, 78, 127
1, 937391, Note_on_c, 10, 81, 127
1, 937514, Note_off_c, 2, 74, 127
1, 937524, Note_off_c, 10, 81, 127
1, 937527, Note_on_c, 0, 72, 127
1, 937660, Note_off_c, 0, 72, 127
1, 937662, Note_on_c, 12, 71, 127
1, 937791, Note_off_c, 12, 71, 127
1, 937798, Note_on_c, 7, 79, 127
1, 937798, Note_on_c, 12, 71, 127
1, 937931, Note_off_c, 12, 71, 127
1, 937931, Note_off_c, 7, 79, 127
1, 937934, Note_on_c, 10, 69, 127
1, 937934, Note_on_c, 0, 72, 127
1, 938063, Note_off_c, 10, 69, 127
1, 938069, Note_on_c, 5, 77, 127
1, 938069, Note_on_c, 10, 69, 127
1, 938086, Note_off_c, 0, 72, 127
1, 938201, Note_off_c, 10, 69, 127
1, 938201, Note_off_c, 5, 77, 127
1, 938204, Note_on_c, 7, 67, 127
1, 938204, Note_on_c, 12, 71, 127
1, 938333, Note_off_c, 7, 67, 127
1, 938340, Note_on_c, 4, 76, 127
1, 938340, Note_on_c, 7, 67, 127
1, 938356, Note_off_c, 12, 71, 127
1, 938472, Note_off_c, 7, 67, 127
1, 938472, Note_off_c, 4, 76, 127
1, 938474, Note_on_c, 5, 65, 127
1, 938474, Note_on_c, 10, 69, 127
1, 938603, Note_off_c, 5, 65, 127
1, 938610, Note_on_c, 2, 74, 127
1, 938610, Note_on_c, 5, 65, 127
1, 938626, Note_off_c, 10, 69, 127
1, 938742, Note_off_c, 5, 65, 127
1, 938742, Note_off_c, 2, 74, 127
1, 938745, Note_on_c, 4, 64, 127
1, 938745, Note_on_c, 7, 67, 127
1, 938874, Note_off_c, 4, 64, 127
1, 938880, Note_on_c, 0, 72, 127
1, 938880, Note_on_c, 4, 64, 127
1, 938897, Note_off_c, 7, 67, 127
1, 939012, Note_off_c, 4, 64, 127
1, 939012, Note_off_c, 0, 72, 127
1, 939015, Note_on_c, 2, 62, 127
1, 939015, Note_on_c, 5, 65, 127
1, 939144, Note_off_c, 2, 62, 127
1, 939151, Note_on_c, 12, 71, 127
1, 939151, Note_on_c, 2, 62, 127
1, 939167, Note_off_c, 5, 65, 127
1, 939283, Note_off_c, 2, 62, 127
1, 939283, Note_off_c, 12, 71, 127
1, 939285, Note_on_c, 0, 72, 127
1, 939285, Note_on_c, 4, 64, 127
1, 939414, Note_off_c, 4, 64, 127
1, 939421, Note_on_c, 4, 64, 127
1, 939421, Note_on_c, 0, 60, 127
1, 939437, Note_off_c, 0, 72, 127
1, 939553, Note_off_c, 0, 60, 127
1, 939553, Note_off_c, 4, 64, 127
1, 939556, Note_on_c, 12, 71, 127
1, 939556, Note_on_c, 2, 62, 127
1, 939685, Note_off_c, 2, 62, 127
1, 939691, Note_on_c, 2, 62, 127
1, 939691, Note_on_c, 12, 59, 127
1, 939708, Note_off_c, 12, 71, 127
1, 939823, Note_off_c, 12, 59, 127
1, 939823, Note_off_c, 2, 62, 127
1, 939826, Note_on_c, 10, 69, 127
1, 939826, Note_on_c, 0, 60, 127
1, 939955, Note_off_c, 0, 60, 127
1, 939962, Note_on_c, 0, 60, 127
1, 939962, Note_on_c, 10, 57, 127
1, 939978, Note_off_c, 10, 69, 127
1, 940094, Note_off_c, 10, 57, 127
1, 940094, Note_off_c, 0, 60, 127
1, 940096, Note_on_c, 7, 67, 127
1, 940096, Note_on_c, 12, 59, 127
1, 940225, Note_off_c, 12, 59, 127
1, 940232, Note_on_c, 12, 59, 127
1, 940232, Note_on_c, 7, 55, 127
1, 940248, Note_off_c, 7, 67, 127
1, 940364, Note_off_c, 7, 55, 127
1, 940364, Note_off_c, 12, 59, 127
1, 940366, Note_on_c, 6, 66, 127
1, 940366, Note_on_c, 10, 57, 127
1, 940495, Note_off_c, 10, 57, 127
1, 940502, Note_on_c, 10, 57, 127
1, 940502, Note_on_c, 6, 54, 127
1, 940518, Note_off_c, 6, 66, 127
1, 940634, Note_off_c, 6, 54, 127
1, 940634, Note_off_c, 10, 57, 127
1, 940637, Note_on_c, 4, 64, 127
1, 940637, Note_on_c, 7, 55, 127
1, 940766, Note_off_c, 7, 55, 127
1, 940772, Note_on_c, 7, 55, 127
1, 940772, Note_on_c, 4, 52, 127
1, 940789, Note_off_c, 4, 64, 127
1, 940904, Note_off_c, 4, 52, 127
1, 940904, Note_off_c, 7, 55, 127
1, 940907, Note_on_c, 10, 57, 127
1, 940907, Note_on_c, 6, 54, 127
1, 941043, Note_on_c, 6, 66, 127
1, 941043, Note_on_c, 2, 50, 127
1, 941059, Note_off_c, 6, 54, 127
1, 941106, Note_off_c, 10, 57, 127
1, 941175, Note_off_c, 2, 50, 127
1, 941175, Note_off_c, 6, 66, 127
1, 941177, Note_on_c, 7, 55, 127
1, 941177, Note_on_c, 4, 52, 127
1, 941313, Note_on_c, 4, 64, 127
1, 941313, Note_on_c, 0, 48, 127
1, 941329, Note_off_c, 4, 52, 127
1, 941376, Note_off_c, 7, 55, 127
1, 941445, Note_off_c, 0, 48, 127
1, 941445, Note_off_c, 4, 64, 127
1, 941448, Note_on_c, 6, 54, 127
1, 941448, Note_on_c, 2, 50, 127
1, 941583, Note_on_c, 2, 62, 127
1, 941583, Note_on_c, 12, 47, 127
1, 941600, Note_off_c, 2, 50, 127
1, 941647, Note_off_c, 6, 54, 127
1, 941715, Note_off_c, 12, 47, 127
1, 941715, Note_off_c, 2, 62, 127
1, 941718, Note_on_c, 4, 52, 127
1, 941718, Note_on_c, 0, 48, 127
1, 941854, Note_on_c, 0, 60, 127
1, 941854, Note_on_c, 10, 45, 127
1, 941870, Note_off_c, 0, 48, 127
1, 941917, Note_off_c, 4, 52, 127
1, 941986, Note_off_c, 10, 45, 127
1, 941986, Note_off_c, 0, 60, 127
1, 941988, Note_on_c, 2, 50, 127
1, 941988, Note_on_c, 12, 47, 127
1, 942124, Note_on_c, 12, 59, 127
1, 942124, Note_on_c, 7, 43, 127
1, 942140, Note_off_c, 12, 47, 127
1, 942187, Note_off_c, 2, 50, 127
1, 942256, Note_off_c, 7, 43, 127
1, 942256, Note_off_c, 12, 59, 127
1, 942259, Note_on_c, 0, 48, 127
1, 942259, Note_on_c, 10, 45, 127
1, 942394, Note_on_c, 10, 57, 127
1, 942394, Note_on_c, 6, 42, 127
1, 942411, Note_off_c, 10, 45, 127
1, 942458, Note_off_c, 0, 48, 127
1, 942526, Note_off_c, 6, 42, 127
1, 942526, Note_off_c, 10, 57, 127
1, 942529, Note_on_c, 12, 47, 127
1, 942529, Note_on_c, 7, 43, 127
1, 942662, Note_off_c, 7, 43, 127
1, 942662, Note_off_c, 12, 47, 127
1, 942665, Note_on_c, 10, 45, 127
1, 942665, Note_on_c, 6, 42, 127
1, 942798, Note_off_c, 6, 42, 127
1, 942798, Note_off_c, 10, 45, 127
1, 942800, Note_on_c, 12, 47, 127
1, 942800, Note_on_c, 7, 43, 127
1, 942933, Note_off_c, 7, 43, 127
1, 942933, Note_off_c, 12, 47, 127
1, 942936, Note_on_c, 10, 45, 127
1, 942936, Note_on_c, 6, 42, 127
1, 943069, Note_off_c, 6, 42, 127
1, 943069, Note_off_c, 10, 45, 127
1, 943072, Note_on_c, 12, 47, 127
1, 943072, Note_on_c, 7, 43, 127
1, 943205, Note_off_c, 12, 47, 127
1, 943207, Note_on_c, 2, 50, 127
1, 943340, Note_off_c, 2, 50, 127
1, 943343, Note_on_c, 7, 55, 127
1, 943476, Note_off_c, 7, 55, 127
1, 943479, Note_on_c, 6, 54, 127
1, 943612, Note_off_c, 6, 54, 127
1, 943614, Note_on_c, 7, 55, 127
1, 943745, Note_off_c, 7, 43, 127
1, 943750, Note_on_c, 2, 50, 127
1, 943879, Note_off_c, 7, 55, 127
1, 943882, Note_off_c, 2, 50, 127
1, 943885, Note_on_c, 7, 55, 127
1, 944018, Note_off_c, 7, 55, 127
1, 944020, Note_on_c, 6, 54, 127
1, 944153, Note_off_c, 6, 54, 127
1, 944156, Note_on_c, 2, 74, 127
1, 944156, Note_on_c, 7, 55, 127
1, 944289, Note_off_c, 7, 55, 127
1, 944292, Note_on_c, 12, 83, 127
1, 944292, Note_on_c, 12, 59, 127
1, 944356, Note_off_c, 2, 74, 127
1, 944425, Note_off_c, 12, 59, 127
1, 944425, Note_off_c, 12, 83, 127
1, 944427, Note_on_c, 0, 72, 127
1, 944427, Note_on_c, 2, 62, 127
1, 944560, Note_off_c, 2, 62, 127
1, 944563, Note_on_c, 10, 81, 127
1, 944563, Note_on_c, 6, 66, 127
1, 944627, Note_off_c, 0, 72, 127
1, 944696, Note_off_c, 6, 66, 127
1, 944696, Note_off_c, 10, 81, 127
1, 944699, Note_on_c, 12, 71, 127
1, 944699, Note_on_c, 7, 67, 127
1, 944834, Note_on_c, 7, 79, 127
1, 944899, Note_off_c, 12, 71, 127
1, 944967, Note_off_c, 7, 79, 127
1, 944970, Note_on_c, 10, 69, 127
1, 945099, Note_off_c, 10, 69, 127
1, 945101, Note_off_c, 7, 67, 127
1, 945106, Note_on_c, 6, 78, 127
1, 945106, Note_on_c, 10, 69, 127
1, 945239, Note_off_c, 10, 69, 127
1, 945239, Note_off_c, 6, 78, 127
1, 945241, Note_on_c, 7, 67, 127
1, 945241, Note_on_c, 12, 71, 127
1, 945374, Note_off_c, 12, 71, 127
1, 945377, Note_on_c, 4, 76, 127
1, 945377, Note_on_c, 1, 73, 127
1, 945441, Note_off_c, 7, 67, 127
1, 945510, Note_off_c, 1, 73, 127
1, 945510, Note_off_c, 4, 76, 127
1, 945513, Note_on_c, 6, 66, 127
1, 945513, Note_on_c, 2, 74, 127
1, 945646, Note_off_c, 2, 74, 127
1, 945648, Note_on_c, 2, 74, 127
1, 945648, Note_on_c, 12, 71, 127
1, 945713, Note_off_c, 6, 66, 127
1, 945781, Note_off_c, 12, 71, 127
1, 945781, Note_off_c, 2, 74, 127
1, 945784, Note_on_c, 4, 64, 127
1, 945784, Note_on_c, 1, 73, 127
1, 945917, Note_off_c, 1, 73, 127
1, 945920, Note_on_c, 2, 74, 127
1, 945920, Note_on_c, 12, 71, 127
1, 945984, Note_off_c, 4, 64, 127
1, 946053, Note_off_c, 12, 71, 127
1, 946053, Note_off_c, 2, 74, 127
1, 946055, Note_on_c, 1, 73, 127
1, 946055, Note_on_c, 10, 69, 127
1, 946188, Note_off_c, 10, 69, 127
1, 946188, Note_off_c, 1, 73, 127
1, 946191, Note_on_c, 12, 71, 127
1, 946191, Note_on_c, 7, 67, 127
1, 946324, Note_off_c, 7, 67, 127
1, 946324, Note_off_c, 12, 71, 127
1, 946327, Note_on_c, 1, 73, 127
1, 946327, Note_on_c, 6, 66, 127
1, 946460, Note_off_c, 6, 66, 127
1, 946460, Note_off_c, 1, 73, 127
1, 946463, Note_on_c, 4, 76, 127
1, 946463, Note_on_c, 4, 64, 127
1, 946596, Note_off_c, 4, 64, 127
1, 946596, Note_off_c, 4, 76, 127
1, 946598, Note_on_c, 10, 81, 127
1, 946598, Note_on_c, 3, 63, 127
1, 946731, Note_off_c, 3, 63, 127
1, 946734, Note_on_c, 1, 61, 127
1, 946865, Note_off_c, 10, 81, 127
1, 946867, Note_off_c, 1, 61, 127
1, 946870, Note_on_c, 10, 81, 127
1, 946870, Note_on_c, 12, 59, 127
1, 946937, Note_on_c, 7, 79, 127
1, 946944, Note_off_c, 10, 81, 127
1, 947003, Note_off_c, 12, 59, 127
1, 947005, Note_on_c, 10, 81, 127
1, 947005, Note_on_c, 10, 57, 127
1, 947011, Note_off_c, 7, 79, 127
1, 947138, Note_off_c, 10, 57, 127
1, 947141, Note_on_c, 7, 55, 127
1, 947274, Note_off_c, 7, 55, 127
1, 947277, Note_on_c, 6, 54, 127
1, 947407, Note_off_c, 10, 81, 127
1, 947410, Note_off_c, 6, 54, 127
1, 947412, Note_on_c, 12, 71, 127
1, 947412, Note_on_c, 4, 52, 127
1, 947545, Note_off_c, 4, 52, 127
1, 947548, Note_on_c, 7, 79, 127
1, 947548, Note_on_c, 7, 55, 127
1, 947612, Note_off_c, 12, 71, 127
1, 947681, Note_off_c, 7, 55, 127
1, 947681, Note_off_c, 7, 79, 127
1, 947684, Note_on_c, 10, 69, 127
1, 947684, Note_on_c, 12, 59, 127
1, 947817, Note_off_c, 12, 59, 127
1, 947819, Note_on_c, 6, 78, 127
1, 947819, Note_on_c, 3, 63, 127
1, 947884, Note_off_c, 10, 69, 127
1, 947952, Note_off_c, 3, 63, 127
1, 947952, Note_off_c, 6, 78, 127
1, 947955, Note_on_c, 7, 67, 127
1, 947955, Note_on_c, 4, 64, 127
1, 948091, Note_on_c, 4, 76, 127
1, 948155, Note_off_c, 7, 67, 127
1, 948224, Note_off_c, 4, 76, 127
1, 948226, Note_on_c, 6, 66, 127
1, 948355, Note_off_c, 6, 66, 127
1, 948357, Note_off_c, 4, 64, 127
1, 948362, Note_on_c, 2, 74, 127
1, 948362, Note_on_c, 6, 66, 127
1, 948495, Note_off_c, 6, 66, 127
1, 948495, Note_off_c, 2, 74, 127
1, 948498, Note_on_c, 4, 64, 127
1, 948498, Note_on_c, 7, 67, 127
1, 948631, Note_off_c, 7, 67, 127
1, 948633, Note_on_c, 1, 73, 127
1, 948633, Note_on_c, 10, 69, 127
1, 948698, Note_off_c, 4, 64, 127
1, 948766, Note_off_c, 10, 69, 127
1, 948766, Note_off_c, 1, 73, 127
1, 948769, Note_on_c, 2, 62, 127
1, 948769, Note_on_c, 12, 71, 127
1, 948902, Note_off_c, 12, 71, 127
1, 948905, Note_on_c, 12, 71, 127
1, 948905, Note_on_c, 7, 67, 127
1, 948969, Note_off_c, 2, 62, 127
1, 949038, Note_off_c, 7, 67, 127
1, 949038, Note_off_c, 12, 71, 127
1, 949040, Note_on_c, 1, 61, 127
1, 949040, Note_on_c, 10, 69, 127
1, 949173, Note_off_c, 10, 69, 127
1, 949176, Note_on_c, 12, 71, 127
1, 949176, Note_on_c, 2, 62, 127
1, 949240, Note_off_c, 1, 61, 127
1, 949309, Note_off_c, 2, 62, 127
1, 949309, Note_off_c, 12, 71, 127
1, 949312, Note_on_c, 10, 69, 127
1, 949312, Note_on_c, 1, 61, 127
1, 949445, Note_off_c, 1, 61, 127
1, 949445, Note_off_c, 10, 69, 127
1, 949447, Note_on_c, 8, 68, 127
1, 949447, Note_on_c, 12, 59, 127
1, 949580, Note_off_c, 12, 59, 127
1, 949580, Note_off_c, 8, 68, 127
1, 949583, Note_on_c, 10, 69, 127
1, 949583, Note_on_c, 1, 61, 127
1, 949716, Note_off_c, 1, 61, 127
1, 949716, Note_off_c, 10, 69, 127
1, 949719, Note_on_c, 1, 73, 127
1, 949719, Note_on_c, 4, 64, 127
1, 949852, Note_off_c, 4, 64, 127
1, 949852, Note_off_c, 1, 73, 127
1, 949855, Note_on_c, 4, 76, 127
1, 949855, Note_on_c, 10, 69, 127
1, 949988, Note_off_c, 10, 69, 127
1, 949990, Note_on_c, 12, 71, 127
1, 950122, Note_off_c, 4, 76, 127
1, 950123, Note_off_c, 12, 71, 127
1, 950126, Note_on_c, 4, 76, 127
1, 950126, Note_on_c, 1, 73, 127
1, 950194, Note_on_c, 2, 74, 127
1, 950200, Note_off_c, 4, 76, 127
1, 950259, Note_off_c, 1, 73, 127
1, 950262, Note_on_c, 4, 76, 127
1, 950268, Note_off_c, 2, 74, 127
1, 950397, Note_on_c, 7, 79, 127
1, 950533, Note_on_c, 12, 71, 127
1, 950565, Note_off_c, 7, 79, 127
1, 950666, Note_off_c, 12, 71, 127
1, 950669, Note_on_c, 10, 69, 127
1, 950798, Note_off_c, 4, 76, 127
1, 950804, Note_on_c, 2, 74, 127
1, 950804, Note_on_c, 6, 78, 127
1, 950869, Note_off_c, 10, 69, 127
1, 950937, Note_off_c, 6, 78, 127
1, 950937, Note_off_c, 2, 74, 127
1, 950940, Note_on_c, 4, 76, 127
1, 950940, Note_on_c, 7, 67, 127
1, 951069, Note_off_c, 4, 76, 127
1, 951076, Note_on_c, 1, 73, 127
1, 951076, Note_on_c, 4, 76, 127
1, 951140, Note_off_c, 7, 67, 127
1, 951209, Note_off_c, 4, 76, 127
1, 951209, Note_off_c, 1, 73, 127
1, 951211, Note_on_c, 2, 74, 127
1, 951211, Note_on_c, 6, 66, 127
1, 951340, Note_off_c, 2, 74, 127
1, 951347, Note_on_c, 12, 71, 127
1, 951347, Note_on_c, 2, 74, 127
1, 951411, Note_off_c, 6, 66, 127
1, 951480, Note_off_c, 2, 74, 127
1, 951480, Note_off_c, 12, 71, 127
1, 951483, Note_on_c, 0, 72, 127
1, 951483, Note_on_c, 4, 64, 127
1, 951612, Note_off_c, 0, 72, 127
1, 951618, Note_on_c, 10, 69, 127
1, 951618, Note_on_c, 0, 72, 127
1, 951683, Note_off_c, 4, 64, 127
1, 951751, Note_off_c, 0, 72, 127
1, 951751, Note_off_c, 10, 69, 127
1, 951754, Note_on_c, 12, 71, 127
1, 951754, Note_on_c, 2, 62, 127
1, 951883, Note_off_c, 12, 71, 127
1, 951890, Note_on_c, 7, 67, 127
1, 951890, Note_on_c, 12, 71, 127
1, 951954, Note_off_c, 2, 62, 127
1, 952023, Note_off_c, 12, 71, 127
1, 952023, Note_off_c, 7, 67, 127
1, 952025, Note_on_c, 10, 69, 127
1, 952025, Note_on_c, 0, 60, 127
1, 952154, Note_off_c, 10, 69, 127
1, 952161, Note_on_c, 6, 66, 127
1, 952161, Note_on_c, 10, 69, 127
1, 952225, Note_off_c, 0, 60, 127
1, 952294, Note_off_c, 10, 69, 127
1, 952294, Note_off_c, 6, 66, 127
1, 952297, Note_on_c, 7, 67, 127
1, 952297, Note_on_c, 12, 59, 127
1, 952426, Note_off_c, 7, 67, 127
1, 952432, Note_on_c, 4, 76, 127
1, 952432, Note_on_c, 7, 67, 127
1, 952497, Note_off_c, 12, 59, 127
1, 952565, Note_off_c, 7, 67, 127
1, 952565, Note_off_c, 4, 76, 127
1, 952568, Note_on_c, 6, 66, 127
1, 952568, Note_on_c, 10, 57, 127
1, 952697, Note_off_c, 6, 66, 127
1, 952704, Note_on_c, 2, 74, 127
1, 952704, Note_on_c, 6, 66, 127
1, 952768, Note_off_c, 10, 57, 127
1, 952837, Note_off_c, 6, 66, 127
1, 952837, Note_off_c, 2, 74, 127
1, 952839, Note_on_c, 4, 64, 127
1, 952839, Note_on_c, 7, 55, 127
1, 952968, Note_off_c, 4, 64, 127
1, 952975, Note_on_c, 1, 73, 127
1, 952975, Note_on_c, 4, 64, 127
1, 953039, Note_off_c, 7, 55, 127
1, 953108, Note_off_c, 4, 64, 127
1, 953108, Note_off_c, 1, 73, 127
1, 953111, Note_on_c, 2, 74, 127
1, 953111, Note_on_c, 6, 54, 127
1, 953179, Note_on_c, 1, 73, 127
1, 953185, Note_off_c, 2, 74, 127
1, 953247, Note_on_c, 12, 71, 127
1, 953247, Note_on_c, 2, 62, 127
1, 953253, Note_off_c, 1, 73, 127
1, 953311, Note_off_c, 6, 54, 127
1, 953380, Note_off_c, 2, 62, 127
1, 953380, Note_off_c, 12, 71, 127
1, 953382, Note_on_c, 1, 73, 127
1, 953382, Note_on_c, 4, 52, 127
1, 953450, Note_on_c, 12, 71, 127
1, 953456, Note_off_c, 1, 73, 127
1, 953518, Note_on_c, 10, 69, 127
1, 953518, Note_on_c, 1, 61, 127
1, 953524, Note_off_c, 12, 71, 127
1, 953582, Note_off_c, 4, 52, 127
1, 953651, Note_off_c, 1, 61, 127
1, 953651, Note_off_c, 10, 69, 127
1, 953654, Note_on_c, 12, 71, 127
1, 953654, Note_on_c, 2, 50, 127
1, 953787, Note_off_c, 12, 71, 127
1, 953789, Note_on_c, 7, 79, 127
1, 953789, Note_on_c, 12, 59, 127
1, 953854, Note_off_c, 2, 50, 127
1, 953922, Note_off_c, 12, 59, 127
1, 953922, Note_off_c, 7, 79, 127
1, 953925, Note_on_c, 7, 79, 127
1, 953925, Note_on_c, 1, 49, 127
1, 954061, Note_on_c, 10, 57, 127
1, 954125, Note_off_c, 1, 49, 127
1, 954194, Note_off_c, 10, 57, 127
1, 954196, Note_on_c, 12, 47, 127
1, 954327, Note_off_c, 7, 79, 127
1, 954332, Note_on_c, 6, 78, 127
1, 954332, Note_on_c, 7, 55, 127
1, 954396, Note_off_c, 12, 47, 127
1, 954400, Note_on_c, 4, 76, 127
1, 954406, Note_off_c, 6, 78, 127
1, 954465, Note_off_c, 7, 55, 127
1, 954468, Note_on_c, 6, 78, 127
1, 954468, Note_on_c, 10, 45, 127
1, 954474, Note_off_c, 4, 76, 127
1, 954601, Note_off_c, 6, 78, 127
1, 954603, Note_on_c, 2, 74, 127
1, 954603, Note_on_c, 6, 54, 127
1, 954668, Note_off_c, 10, 45, 127
1, 954736, Note_off_c, 6, 54, 127
1, 954736, Note_off_c, 2, 74, 127
1, 954739, Note_on_c, 12, 71, 127
1, 954739, Note_on_c, 7, 43, 127
1, 954872, Note_off_c, 12, 71, 127
1, 954875, Note_on_c, 7, 67, 127
1, 954875, Note_on_c, 4, 52, 127
1, 954939, Note_off_c, 7, 43, 127
1, 955008, Note_off_c, 4, 52, 127
1, 955008, Note_off_c, 7, 67, 127
1, 955010, Note_on_c, 10, 69, 127
1, 955010, Note_on_c, 6, 42, 127
1, 955143, Note_off_c, 10, 69, 127
1, 955146, Note_on_c, 6, 66, 127
1, 955146, Note_on_c, 2, 50, 127
1, 955210, Note_off_c, 6, 42, 127
1, 955279, Note_off_c, 2, 50, 127
1, 955279, Note_off_c, 6, 66, 127
1, 955282, Note_on_c, 7, 67, 127
1, 955282, Note_on_c, 4, 40, 127
1, 955415, Note_off_c, 7, 67, 127
1, 955417, Note_on_c, 4, 76, 127
1, 955417, Note_on_c, 1, 49, 127
1, 955482, Note_off_c, 4, 40, 127
1, 955550, Note_off_c, 1, 49, 127
1, 955550, Note_off_c, 4, 76, 127
1, 955553, Note_on_c, 6, 66, 127
1, 955553, Note_on_c, 2, 50, 127
1, 955686, Note_off_c, 2, 50, 127
1, 955686, Note_off_c, 6, 66, 127
1, 955689, Note_on_c, 4, 64, 127
1, 955689, Note_on_c, 1, 49, 127
1, 955822, Note_off_c, 1, 49, 127
1, 955822, Note_off_c, 4, 64, 127
1, 955824, Note_on_c, 6, 66, 127
1, 955824, Note_on_c, 2, 50, 127
1, 955957, Note_off_c, 2, 50, 127
1, 955957, Note_off_c, 6, 66, 127
1, 955960, Note_on_c, 4, 64, 127
1, 955960, Note_on_c, 1, 49, 127
1, 956093, Note_off_c, 1, 49, 127
1, 956093, Note_off_c, 4, 64, 127
1, 956096, Note_on_c, 6, 66, 127
1, 956096, Note_on_c, 2, 50, 127
1, 956229, Note_off_c, 2, 50, 127
1, 956229, Note_off_c, 6, 66, 127
1, 956231, Note_on_c, 10, 69, 127
1, 956231, Note_on_c, 10, 45, 127
1, 956364, Note_off_c, 10, 45, 127
1, 956364, Note_off_c, 10, 69, 127
1, 956367, Note_on_c, 2, 74, 127
1, 956367, Note_on_c, 6, 42, 127
1, 956500, Note_off_c, 6, 42, 127
1, 956500, Note_off_c, 2, 74, 127
1, 956503, Note_on_c, 1, 73, 127
1, 956503, Note_on_c, 10, 45, 127
1, 956636, Note_off_c, 10, 45, 127
1, 956636, Note_off_c, 1, 73, 127
1, 956639, Note_on_c, 2, 74, 127
1, 956639, Note_on_c, 2, 38, 127
1, 956772, Note_off_c, 2, 74, 127
1, 956774, Note_on_c, 4, 76, 127
1, 956907, Note_off_c, 4, 76, 127
1, 956910, Note_on_c, 6, 78, 127
1, 957041, Note_off_c, 2, 38, 127
1, 957043, Note_off_c, 6, 78, 127
1, 957046, Note_on_c, 7, 79, 127
1, 957179, Note_off_c, 7, 79, 127
1, 957181, Note_on_c, 10, 81, 127
1, 957181, Note_on_c, 2, 50, 127
1, 957314, Note_off_c, 2, 50, 127
1, 957317, Note_on_c, 6, 78, 127
1, 957317, Note_on_c, 6, 42, 127
1, 957333, Note_off_c, 10, 81, 127
1, 957449, Note_off_c, 6, 42, 127
1, 957449, Note_off_c, 6, 78, 127
1, 957452, Note_on_c, 7, 79, 127
1, 957452, Note_on_c, 10, 45, 127
1, 957585, Note_off_c, 10, 45, 127
1, 957587, Note_on_c, 4, 76, 127
1, 957587, Note_on_c, 1, 49, 127
1, 957604, Note_off_c, 7, 79, 127
1, 957719, Note_off_c, 1, 49, 127
1, 957719, Note_off_c, 4, 76, 127
1, 957722, Note_on_c, 6, 78, 127
1, 957722, Note_on_c, 2, 50, 127
1, 957858, Note_on_c, 2, 74, 127
1, 957874, Note_off_c, 6, 78, 127
1, 957990, Note_off_c, 2, 74, 127
1, 957992, Note_on_c, 4, 76, 127
1, 958123, Note_off_c, 2, 50, 127
1, 958128, Note_on_c, 0, 72, 127
1, 958128, Note_on_c, 4, 52, 127
1, 958144, Note_off_c, 4, 76, 127
1, 958260, Note_off_c, 4, 52, 127
1, 958260, Note_off_c, 0, 72, 127
1, 958262, Note_on_c, 2, 74, 127
1, 958262, Note_on_c, 6, 54, 127
1, 958395, Note_off_c, 6, 54, 127
1, 958398, Note_on_c, 12, 71, 127
1, 958398, Note_on_c, 7, 55, 127
1, 958414, Note_off_c, 2, 74, 127
1, 958530, Note_off_c, 7, 55, 127
1, 958530, Note_off_c, 12, 71, 127
1, 958533, Note_on_c, 0, 72, 127
1, 958533, Note_on_c, 10, 57, 127
1, 958666, Note_off_c, 10, 57, 127
1, 958668, Note_on_c, 10, 69, 127
1, 958668, Note_on_c, 6, 54, 127
1, 958685, Note_off_c, 0, 72, 127
1, 958800, Note_off_c, 6, 54, 127
1, 958800, Note_off_c, 10, 69, 127
1, 958803, Note_on_c, 12, 71, 127
1, 958803, Note_on_c, 7, 55, 127
1, 958936, Note_off_c, 7, 55, 127
1, 958939, Note_on_c, 7, 67, 127
1, 958939, Note_on_c, 12, 47, 127
1, 958955, Note_off_c, 12, 71, 127
1, 959071, Note_off_c, 12, 47, 127
1, 959071, Note_off_c, 7, 67, 127
1, 959073, Note_on_c, 10, 69, 127
1, 959073, Note_on_c, 0, 48, 127
1, 959206, Note_off_c, 0, 48, 127
1, 959209, Note_on_c, 5, 65, 127
1, 959209, Note_on_c, 2, 50, 127
1, 959225, Note_off_c, 10, 69, 127
1, 959341, Note_off_c, 2, 50, 127
1, 959341, Note_off_c, 5, 65, 127
1, 959344, Note_on_c, 7, 67, 127
1, 959344, Note_on_c, 7, 43, 127
1, 959479, Note_on_c, 4, 64, 127
1, 959496, Note_off_c, 7, 67, 127
1, 959611, Note_off_c, 4, 64, 127
1, 959614, Note_on_c, 5, 65, 127
1, 959745, Note_off_c, 7, 43, 127
1, 959750, Note_on_c, 3, 63, 127
1, 959750, Note_on_c, 6, 54, 127
1, 959766, Note_off_c, 5, 65, 127
1, 959882, Note_off_c, 6, 54, 127
1, 959882, Note_off_c, 3, 63, 127
1, 959884, Note_on_c, 4, 64, 127
1, 959884, Note_on_c, 7, 55, 127
1, 960017, Note_off_c, 7, 55, 127
1, 960020, Note_on_c, 0, 60, 127
1, 960020, Note_on_c, 10, 57, 127
1, 960036, Note_off_c, 4, 64, 127
1, 960152, Note_off_c, 10, 57, 127
1, 960152, Note_off_c, 0, 60, 127
1, 960155, Note_on_c, 2, 62, 127
1, 960155, Note_on_c, 12, 59, 127
1, 960288, Note_off_c, 12, 59, 127
1, 960290, Note_on_c, 12, 59, 127
1, 960290, Note_on_c, 8, 56, 127
1, 960307, Note_off_c, 2, 62, 127
1, 960422, Note_off_c, 8, 56, 127
1, 960422, Note_off_c, 12, 59, 127
1, 960425, Note_on_c, 0, 60, 127
1, 960425, Note_on_c, 10, 57, 127
1, 960558, Note_off_c, 10, 57, 127
1, 960561, Note_on_c, 10, 57, 127
1, 960561, Note_on_c, 0, 48, 127
1, 960577, Note_off_c, 0, 60, 127
1, 960693, Note_off_c, 0, 48, 127
1, 960693, Note_off_c, 10, 57, 127
1, 960695, Note_on_c, 12, 59, 127
1, 960695, Note_on_c, 2, 50, 127
1, 960828, Note_off_c, 2, 50, 127
1, 960831, Note_on_c, 8, 56, 127
1, 960831, Note_on_c, 4, 52, 127
1, 960847, Note_off_c, 12, 59, 127
1, 960963, Note_off_c, 4, 52, 127
1, 960963, Note_off_c, 8, 56, 127
1, 960965, Note_on_c, 10, 57, 127
1, 960965, Note_on_c, 10, 45, 127
1, 961101, Note_on_c, 6, 54, 127
1, 961117, Note_off_c, 10, 57, 127
1, 961233, Note_off_c, 6, 54, 127
1, 961236, Note_on_c, 7, 55, 127
1, 961366, Note_off_c, 10, 45, 127
1, 961371, Note_on_c, 4, 52, 127
1, 961371, Note_on_c, 8, 56, 127
1, 961388, Note_off_c, 7, 55, 127
1, 961503, Note_off_c, 8, 56, 127
1, 961503, Note_off_c, 4, 52, 127
1, 961506, Note_on_c, 5, 53, 127
1, 961506, Note_on_c, 10, 57, 127
1, 961639, Note_off_c, 10, 57, 127
1, 961642, Note_on_c, 3, 51, 127
1, 961642, Note_on_c, 12, 59, 127
1, 961658, Note_off_c, 5, 53, 127
1, 961774, Note_off_c, 12, 59, 127
1, 961774, Note_off_c, 3, 51, 127
1, 961776, Note_on_c, 4, 52, 127
1, 961776, Note_on_c, 0, 60, 127
1, 961909, Note_off_c, 0, 60, 127
1, 961912, Note_on_c, 1, 49, 127
1, 961912, Note_on_c, 11, 58, 127
1, 961928, Note_off_c, 4, 52, 127
1, 962044, Note_off_c, 11, 58, 127
1, 962044, Note_off_c, 1, 49, 127
1, 962047, Note_on_c, 3, 51, 127
1, 962047, Note_on_c, 12, 59, 127
1, 962180, Note_off_c, 12, 59, 127
1, 962180, Note_off_c, 3, 51, 127
1, 962182, Note_on_c, 1, 49, 127
1, 962182, Note_on_c, 11, 58, 127
1, 962315, Note_off_c, 11, 58, 127
1, 962315, Note_off_c, 1, 49, 127
1, 962318, Note_on_c, 3, 51, 127
1, 962318, Note_on_c, 12, 59, 127
1, 962451, Note_off_c, 12, 59, 127
1, 962451, Note_off_c, 3, 51, 127
1, 962454, Note_on_c, 1, 49, 127
1, 962454, Note_on_c, 11, 58, 127
1, 962587, Note_off_c, 11, 58, 127
1, 962587, Note_off_c, 1, 49, 127
1, 962589, Note_on_c, 3, 51, 127
1, 962589, Note_on_c, 12, 59, 127
1, 962722, Note_off_c, 12, 59, 127
1, 962725, Note_on_c, 6, 54, 127
1, 962858, Note_off_c, 6, 54, 127
1, 962861, Note_on_c, 7, 55, 127
1, 962994, Note_off_c, 7, 55, 127
1, 962996, Note_on_c, 10, 57, 127
1, 963129, Note_off_c, 10, 57, 127
1, 963132, Note_on_c, 12, 47, 127
1, 963262, Note_off_c, 3, 51, 127
1, 963268, Note_on_c, 6, 54, 127
1, 963398, Note_off_c, 12, 47, 127
1, 963400, Note_off_c, 6, 54, 127
1, 963402, Note_on_c, 12, 59, 127
1, 963402, Note_on_c, 4, 64, 127
1, 963470, Note_on_c, 3, 63, 127
1, 963476, Note_off_c, 4, 64, 127
1, 963535, Note_off_c, 12, 59, 127
1, 963538, Note_on_c, 10, 57, 127
1, 963538, Note_on_c, 1, 61, 127
1, 963544, Note_off_c, 3, 63, 127
1, 963606, Note_on_c, 3, 63, 127
1, 963612, Note_off_c, 1, 61, 127
1, 963671, Note_off_c, 10, 57, 127
1, 963674, Note_on_c, 7, 55, 127
1, 963674, Note_on_c, 4, 64, 127
1, 963680, Note_off_c, 3, 63, 127
1, 963807, Note_off_c, 4, 64, 127
1, 963809, Note_on_c, 12, 59, 127
1, 963809, Note_on_c, 7, 67, 127
1, 963874, Note_off_c, 7, 55, 127
1, 963942, Note_off_c, 7, 67, 127
1, 963942, Note_off_c, 12, 59, 127
1, 963945, Note_on_c, 10, 57, 127
1, 963945, Note_on_c, 6, 66, 127
1, 964078, Note_off_c, 6, 66, 127
1, 964081, Note_on_c, 0, 60, 127
1, 964081, Note_on_c, 10, 69, 127
1, 964145, Note_off_c, 10, 57, 127
1, 964214, Note_off_c, 10, 69, 127
1, 964214, Note_off_c, 0, 60, 127
1, 964216, Note_on_c, 12, 59, 127
1, 964216, Note_on_c, 7, 67, 127
1, 964349, Note_off_c, 7, 67, 127
1, 964352, Note_on_c, 3, 63, 127
1, 964352, Note_on_c, 6, 66, 127
1, 964416, Note_off_c, 12, 59, 127
1, 964485, Note_off_c, 6, 66, 127
1, 964485, Note_off_c, 3, 63, 127
1, 964488, Note_on_c, 1, 61, 127
1, 964488, Note_on_c, 4, 64, 127
1, 964621, Note_off_c, 4, 64, 127
1, 964623, Note_on_c, 4, 64, 127
1, 964623, Note_on_c, 7, 67, 127
1, 964688, Note_off_c, 1, 61, 127
1, 964756, Note_off_c, 7, 67, 127
1, 964756, Note_off_c, 4, 64, 127
1, 964759, Note_on_c, 3, 63, 127
1, 964759, Note_on_c, 6, 66, 127
1, 964888, Note_off_c, 3, 63, 127
1, 964892, Note_off_c, 6, 66, 127
1, 964895, Note_on_c, 6, 66, 127
1, 964895, Note_on_c, 3, 63, 127
1, 965028, Note_off_c, 3, 63, 127
1, 965028, Note_off_c, 6, 66, 127
1, 965031, Note_on_c, 4, 64, 127
1, 965166, Note_on_c, 7, 67, 127
1, 965166, Note_on_c, 1, 61, 127
1, 965231, Note_off_c, 4, 64, 127
1, 965299, Note_off_c, 1, 61, 127
1, 965299, Note_off_c, 7, 67, 127
1, 965302, Note_on_c, 6, 66, 127
1, 965302, Note_on_c, 3, 63, 127
1, 965435, Note_off_c, 3, 63, 127
1, 965438, Note_on_c, 10, 69, 127
1, 965438, Note_on_c, 1, 61, 127
1, 965502, Note_off_c, 6, 66, 127
1, 965571, Note_off_c, 1, 61, 127
1, 965571, Note_off_c, 10, 69, 127
1, 965573, Note_on_c, 7, 67, 127
1, 965573, Note_on_c, 12, 59, 127
1, 965706, Note_off_c, 12, 59, 127
1, 965709, Note_on_c, 12, 71, 127
1, 965709, Note_on_c, 2, 62, 127
1, 965773, Note_off_c, 7, 67, 127
1, 965842, Note_off_c, 2, 62, 127
1, 965842, Note_off_c, 12, 71, 127
1, 965845, Note_on_c, 10, 69, 127
1, 965845, Note_on_c, 0, 60, 127
1, 965978, Note_off_c, 0, 60, 127
1, 965980, Note_on_c, 0, 72, 127
1, 965980, Note_on_c, 10, 57, 127
1, 966045, Note_off_c, 10, 69, 127
1, 966113, Note_off_c, 10, 57, 127
1, 966113, Note_off_c, 0, 72, 127
1, 966116, Note_on_c, 12, 71, 127
1, 966116, Note_on_c, 12, 59, 127
1, 966249, Note_off_c, 12, 59, 127
1, 966252, Note_on_c, 2, 74, 127
1, 966252, Note_on_c, 8, 56, 127
1, 966316, Note_off_c, 12, 71, 127
1, 966385, Note_off_c, 8, 56, 127
1, 966385, Note_off_c, 2, 74, 127
1, 966387, Note_on_c, 0, 72, 127
1, 966387, Note_on_c, 10, 57, 127
1, 966520, Note_off_c, 10, 57, 127
1, 966523, Note_on_c, 4, 76, 127
1, 966523, Note_on_c, 7, 55, 127
1, 966587, Note_off_c, 0, 72, 127
1, 966656, Note_off_c, 7, 55, 127
1, 966656, Note_off_c, 4, 76, 127
1, 966659, Note_on_c, 3, 75, 127
1, 966659, Note_on_c, 6, 54, 127
1, 966792, Note_off_c, 6, 54, 127
1, 966794, Note_on_c, 6, 78, 127
1, 966794, Note_on_c, 10, 57, 127
1, 966859, Note_off_c, 3, 75, 127
1, 966927, Note_off_c, 10, 57, 127
1, 966927, Note_off_c, 6, 78, 127
1, 966930, Note_on_c, 4, 76, 127
1, 966930, Note_on_c, 7, 55, 127
1, 967063, Note_off_c, 7, 55, 127
1, 967066, Note_on_c, 7, 79, 127
1, 967066, Note_on_c, 4, 52, 127
1, 967130, Note_off_c, 4, 76, 127
1, 967199, Note_off_c, 4, 52, 127
1, 967199, Note_off_c, 7, 79, 127
1, 967201, Note_on_c, 6, 78, 127
1, 967201, Note_on_c, 6, 54, 127
1, 967334, Note_off_c, 6, 54, 127
1, 967337, Note_on_c, 10, 81, 127
1, 967337, Note_on_c, 3, 51, 127
1, 967401, Note_off_c, 6, 78, 127
1, 967470, Note_off_c, 3, 51, 127
1, 967470, Note_off_c, 10, 81, 127
1, 967473, Note_on_c, 7, 79, 127
1, 967473, Note_on_c, 4, 52, 127
1, 967606, Note_off_c, 4, 52, 127
1, 967608, Note_on_c, 12, 83, 127
1, 967608, Note_on_c, 3, 51, 127
1, 967673, Note_off_c, 7, 79, 127
1, 967741, Note_off_c, 3, 51, 127
1, 967741, Note_off_c, 12, 83, 127
1, 967744, Note_on_c, 10, 81, 127
1, 967744, Note_on_c, 1, 49, 127
1, 967877, Note_off_c, 1, 49, 127
1, 967880, Note_on_c, 0, 84, 127
1, 967880, Note_on_c, 4, 52, 127
1, 967944, Note_off_c, 10, 81, 127
1, 968013, Note_off_c, 4, 52, 127
1, 968013, Note_off_c, 0, 84, 127
1, 968015, Note_on_c, 12, 83, 127
1, 968015, Note_on_c, 3, 51, 127
1, 968148, Note_off_c, 3, 51, 127
1, 968151, Note_on_c, 7, 79, 127
1, 968151, Note_on_c, 4, 52, 127
1, 968167, Note_off_c, 12, 83, 127
1, 968283, Note_off_c, 4, 52, 127
1, 968283, Note_off_c, 7, 79, 127
1, 968286, Note_on_c, 10, 81, 127
1, 968286, Note_on_c, 6, 54, 127
1, 968419, Note_off_c, 6, 54, 127
1, 968421, Note_on_c, 6, 78, 127
1, 968421, Note_on_c, 3, 51, 127
1, 968438, Note_off_c, 10, 81, 127
1, 968553, Note_off_c, 3, 51, 127
1, 968553, Note_off_c, 6, 78, 127
1, 968556, Note_on_c, 7, 79, 127
1, 968556, Note_on_c, 4, 52, 127
1, 968689, Note_off_c, 4, 52, 127
1, 968692, Note_on_c, 4, 76, 127
1, 968692, Note_on_c, 7, 43, 127
1, 968708, Note_off_c, 7, 79, 127
1, 968824, Note_off_c, 7, 43, 127
1, 968824, Note_off_c, 4, 76, 127
1, 968826, Note_on_c, 6, 78, 127
1, 968826, Note_on_c, 10, 45, 127
1, 968959, Note_off_c, 10, 45, 127
1, 968962, Note_on_c, 3, 75, 127
1, 968962, Note_on_c, 12, 47, 127
1, 968978, Note_off_c, 6, 78, 127
1, 969094, Note_off_c, 12, 47, 127
1, 969094, Note_off_c, 3, 75, 127
1, 969097, Note_on_c, 4, 76, 127
1, 969097, Note_on_c, 4, 40, 127
1, 969230, Note_off_c, 4, 40, 127
1, 969232, Note_on_c, 0, 72, 127
1, 969232, Note_on_c, 6, 42, 127
1, 969249, Note_off_c, 4, 76, 127
1, 969364, Note_off_c, 6, 42, 127
1, 969364, Note_off_c, 0, 72, 127
1, 969367, Note_on_c, 12, 71, 127
1, 969367, Note_on_c, 7, 43, 127
1, 969500, Note_off_c, 7, 43, 127
1, 969500, Note_off_c, 12, 71, 127
1, 969503, Note_on_c, 10, 69, 127
1, 969503, Note_on_c, 10, 45, 127
1, 969636, Note_off_c, 10, 45, 127
1, 969636, Note_off_c, 10, 69, 127
1, 969638, Note_on_c, 7, 67, 127
1, 969638, Note_on_c, 12, 47, 127
1, 969771, Note_off_c, 12, 47, 127
1, 969771, Note_off_c, 7, 67, 127
1, 969774, Note_on_c, 6, 66, 127
1, 969774, Note_on_c, 0, 48, 127
1, 969907, Note_off_c, 0, 48, 127
1, 969907, Note_off_c, 6, 66, 127
1, 969910, Note_on_c, 4, 64, 127
1, 969910, Note_on_c, 2, 50, 127
1, 970043, Note_off_c, 2, 50, 127
1, 970045, Note_on_c, 12, 47, 127
1, 970178, Note_off_c, 12, 47, 127
1, 970181, Note_on_c, 0, 48, 127
1, 970312, Note_off_c, 4, 64, 127
1, 970317, Note_on_c, 4, 76, 127
1, 970317, Note_on_c, 4, 52, 127
1, 970381, Note_off_c, 0, 48, 127
1, 970450, Note_off_c, 4, 52, 127
1, 970450, Note_off_c, 4, 76, 127
1, 970452, Note_on_c, 12, 71, 127
1, 970452, Note_on_c, 2, 50, 127
1, 970585, Note_off_c, 12, 71, 127
1, 970588, Note_on_c, 2, 74, 127
1, 970588, Note_on_c, 5, 53, 127
1, 970652, Note_off_c, 2, 50, 127
1, 970721, Note_off_c, 5, 53, 127
1, 970721, Note_off_c, 2, 74, 127
1, 970724, Note_on_c, 0, 72, 127
1, 970724, Note_on_c, 4, 52, 127
1, 970857, Note_off_c, 0, 72, 127
1, 970859, Note_on_c, 12, 71, 127
1, 970859, Note_on_c, 7, 55, 127
1, 970924, Note_off_c, 4, 52, 127
1, 970992, Note_off_c, 7, 55, 127
1, 970992, Note_off_c, 12, 71, 127
1, 970995, Note_on_c, 10, 69, 127
1, 970995, Note_on_c, 6, 54, 127
1, 971128, Note_off_c, 10, 69, 127
1, 971131, Note_on_c, 0, 72, 127
1, 971131, Note_on_c, 10, 57, 127
1, 971195, Note_off_c, 6, 54, 127
1, 971264, Note_off_c, 10, 57, 127
1, 971264, Note_off_c, 0, 72, 127
1, 971267, Note_on_c, 12, 71, 127
1, 971267, Note_on_c, 8, 56, 127
1, 971400, Note_off_c, 12, 71, 127
1, 971402, Note_on_c, 2, 74, 127
1, 971402, Note_on_c, 12, 59, 127
1, 971467, Note_off_c, 8, 56, 127
1, 971535, Note_off_c, 12, 59, 127
1, 971535, Note_off_c, 2, 74, 127
1, 971538, Note_on_c, 0, 72, 127
1, 971538, Note_on_c, 10, 57, 127
1, 971671, Note_off_c, 0, 72, 127
1, 971674, Note_on_c, 4, 76, 127
1, 971674, Note_on_c, 0, 60, 127
1, 971738, Note_off_c, 10, 57, 127
1, 971807, Note_off_c, 0, 60, 127
1, 971807, Note_off_c, 4, 76, 127
1, 971809, Note_on_c, 2, 74, 127
1, 971809, Note_on_c, 12, 59, 127
1, 971942, Note_off_c, 2, 74, 127
1, 971945, Note_on_c, 12, 71, 127
1, 971945, Note_on_c, 2, 62, 127
1, 972009, Note_off_c, 12, 59, 127
1, 972078, Note_off_c, 2, 62, 127
1, 972078, Note_off_c, 12, 71, 127
1, 972081, Note_on_c, 10, 69, 127
1, 972081, Note_on_c, 0, 60, 127
1, 972214, Note_off_c, 10, 69, 127
1, 972216, Note_on_c, 0, 72, 127
1, 972216, Note_on_c, 4, 64, 127
1, 972281, Note_off_c, 0, 60, 127
1, 972349, Note_off_c, 4, 64, 127
1, 972349, Note_off_c, 0, 72, 127
1, 972352, Note_on_c, 12, 71, 127
1, 972352, Note_on_c, 2, 62, 127
1, 972485, Note_off_c, 12, 71, 127
1, 972488, Note_on_c, 10, 69, 127
1, 972488, Note_on_c, 5, 65, 127
1, 972552, Note_off_c, 2, 62, 127
1, 972621, Note_off_c, 5, 65, 127
1, 972621, Note_off_c, 10, 69, 127
1, 972623, Note_on_c, 8, 68, 127
1, 972623, Note_on_c, 4, 64, 127
1, 972756, Note_off_c, 8, 68, 127
1, 972759, Note_on_c, 12, 71, 127
1, 972759, Note_on_c, 8, 68, 127
1, 972823, Note_off_c, 4, 64, 127
1, 972892, Note_off_c, 8, 68, 127
1, 972892, Note_off_c, 12, 71, 127
1, 972895, Note_on_c, 10, 69, 127
1, 972895, Note_on_c, 6, 66, 127
1, 973028, Note_off_c, 10, 69, 127
1, 973030, Note_on_c, 0, 72, 127
1, 973030, Note_on_c, 10, 69, 127
1, 973095, Note_off_c, 6, 66, 127
1, 973163, Note_off_c, 10, 69, 127
1, 973163, Note_off_c, 0, 72, 127
1, 973166, Note_on_c, 12, 71, 127
1, 973166, Note_on_c, 8, 68, 127
1, 973299, Note_off_c, 12, 71, 127
1, 973302, Note_on_c, 2, 74, 127
1, 973302, Note_on_c, 12, 71, 127
1, 973366, Note_off_c, 8, 68, 127
1, 973435, Note_off_c, 12, 71, 127
1, 973435, Note_off_c, 2, 74, 127
1, 973437, Note_on_c, 0, 72, 127
1, 973437, Note_on_c, 10, 69, 127
1, 973566, Note_off_c, 10, 69, 127
1, 973570, Note_off_c, 0, 72, 127
1, 973573, Note_on_c, 10, 69, 127
1, 973573, Note_on_c, 0, 72, 127
1, 973706, Note_off_c, 0, 72, 127
1, 973706, Note_off_c, 10, 69, 127
1, 973709, Note_on_c, 7, 67, 127
1, 973709, Note_on_c, 12, 71, 127
1, 973838, Note_off_c, 12, 71, 127
1, 973842, Note_off_c, 7, 67, 127
1, 973844, Note_on_c, 12, 71, 127
1, 973844, Note_on_c, 2, 74, 127
1, 973977, Note_off_c, 2, 74, 127
1, 973977, Note_off_c, 12, 71, 127
1, 973980, Note_on_c, 10, 69, 127
1, 973980, Note_on_c, 0, 72, 127
1, 974113, Note_off_c, 10, 69, 127
1, 974116, Note_on_c, 6, 78, 127
1, 974116, Note_on_c, 10, 69, 127
1, 974132, Note_off_c, 0, 72, 127
1, 974248, Note_off_c, 10, 69, 127
1, 974248, Note_off_c, 6, 78, 127
1, 974250, Note_on_c, 7, 79, 127
1, 974250, Note_on_c, 12, 71, 127
1, 974383, Note_off_c, 7, 79, 127
1, 974386, Note_on_c, 4, 76, 127
1, 974386, Note_on_c, 7, 67, 127
1, 974402, Note_off_c, 12, 71, 127
1, 974518, Note_off_c, 7, 67, 127
1, 974518, Note_off_c, 4, 76, 127
1, 974521, Note_on_c, 6, 78, 127
1, 974521, Note_on_c, 10, 69, 127
1, 974654, Note_off_c, 6, 78, 127
1, 974656, Note_on_c, 2, 74, 127
1, 974656, Note_on_c, 6, 66, 127
1, 974673, Note_off_c, 10, 69, 127
1, 974788, Note_off_c, 6, 66, 127
1, 974788, Note_off_c, 2, 74, 127
1, 974791, Note_on_c, 4, 76, 127
1, 974791, Note_on_c, 7, 67, 127
1, 974924, Note_off_c, 4, 76, 127
1, 974927, Note_on_c, 0, 84, 127
1, 974927, Note_on_c, 4, 64, 127
1, 974943, Note_off_c, 7, 67, 127
1, 975059, Note_off_c, 4, 64, 127
1, 975059, Note_off_c, 0, 84, 127
1, 975061, Note_on_c, 0, 84, 127
1, 975061, Note_on_c, 6, 66, 127
1, 975197, Note_on_c, 2, 62, 127
1, 975213, Note_off_c, 6, 66, 127
1, 975329, Note_off_c, 2, 62, 127
1, 975332, Note_on_c, 4, 64, 127
1, 975397, Note_off_c, 0, 84, 127
1, 975399, Note_on_c, 12, 83, 127
1, 975467, Note_on_c, 10, 81, 127
1, 975467, Note_on_c, 0, 60, 127
1, 975473, Note_off_c, 12, 83, 127
1, 975485, Note_off_c, 4, 64, 127
1, 975536, Note_on_c, 7, 79, 127
1, 975542, Note_off_c, 10, 81, 127
1, 975601, Note_off_c, 0, 60, 127
1, 975604, Note_on_c, 6, 78, 127
1, 975604, Note_on_c, 2, 62, 127
1, 975610, Note_off_c, 7, 79, 127
1, 975737, Note_off_c, 6, 78, 127
1, 975740, Note_on_c, 7, 79, 127
1, 975740, Note_on_c, 12, 71, 127
1, 975804, Note_off_c, 2, 62, 127
1, 975873, Note_off_c, 12, 71, 127
1, 975873, Note_off_c, 7, 79, 127
1, 975875, Note_on_c, 10, 81, 127
1, 975875, Note_on_c, 0, 60, 127
1, 976008, Note_off_c, 10, 81, 127
1, 976011, Note_on_c, 6, 78, 127
1, 976011, Note_on_c, 10, 69, 127
1, 976075, Note_off_c, 0, 60, 127
1, 976144, Note_off_c, 10, 69, 127
1, 976144, Note_off_c, 6, 78, 127
1, 976147, Note_on_c, 4, 76, 127
1, 976147, Note_on_c, 12, 59, 127
1, 976282, Note_on_c, 7, 67, 127
1, 976347, Note_off_c, 12, 59, 127
1, 976414, Note_off_c, 4, 76, 127
1, 976415, Note_off_c, 7, 67, 127
1, 976418, Note_on_c, 2, 74, 127
1, 976418, Note_on_c, 10, 57, 127
1, 976554, Note_on_c, 6, 66, 127
1, 976618, Note_off_c, 10, 57, 127
1, 976687, Note_off_c, 6, 66, 127
1, 976689, Note_on_c, 7, 55, 127
1, 976820, Note_off_c, 2, 74, 127
1, 976825, Note_on_c, 12, 71, 127
1, 976958, Note_off_c, 12, 71, 127
1, 976961, Note_on_c, 0, 72, 127
1, 977026, Note_off_c, 7, 55, 127
1, 977029, Note_on_c, 2, 62, 127
1, 977093, Note_off_c, 0, 72, 127
1, 977095, Note_on_c, 10, 69, 127
1, 977095, Note_on_c, 4, 64, 127
1, 977102, Note_off_c, 2, 62, 127
1, 977163, Note_on_c, 6, 66, 127
1, 977169, Note_off_c, 4, 64, 127
1, 977228, Note_off_c, 10, 69, 127
1, 977231, Note_on_c, 12, 71, 127
1, 977231, Note_on_c, 7, 67, 127
1, 977237, Note_off_c, 6, 66, 127
1, 977364, Note_off_c, 7, 67, 127
1, 977367, Note_on_c, 7, 79, 127
1, 977367, Note_on_c, 4, 64, 127
1, 977431, Note_off_c, 12, 71, 127
1, 977500, Note_off_c, 4, 64, 127
1, 977500, Note_off_c, 7, 79, 127
1, 977502, Note_on_c, 10, 69, 127
1, 977502, Note_on_c, 5, 65, 127
1, 977638, Note_on_c, 5, 77, 127
1, 977638, Note_on_c, 2, 62, 127
1, 977654, Note_off_c, 5, 65, 127
1, 977701, Note_off_c, 10, 69, 127
1, 977770, Note_off_c, 2, 62, 127
1, 977770, Note_off_c, 5, 77, 127
1, 977773, Note_on_c, 7, 67, 127
1, 977773, Note_on_c, 4, 64, 127
1, 977908, Note_on_c, 4, 76, 127
1, 977908, Note_on_c, 0, 60, 127
1, 977925, Note_off_c, 4, 64, 127
1, 977972, Note_off_c, 7, 67, 127
1, 978040, Note_off_c, 0, 60, 127
1, 978040, Note_off_c, 4, 76, 127
1, 978043, Note_on_c, 5, 65, 127
1, 978043, Note_on_c, 2, 62, 127
1, 978179, Note_on_c, 2, 74, 127
1, 978179, Note_on_c, 12, 59, 127
1, 978184, Note_off_c, 2, 62, 127
1, 978243, Note_off_c, 5, 65, 127
1, 978312, Note_off_c, 12, 59, 127
1, 978312, Note_off_c, 2, 74, 127
1, 978314, Note_on_c, 4, 64, 127
1, 978314, Note_on_c, 7, 55, 127
1, 978450, Note_on_c, 4, 52, 127
1, 978466, Note_off_c, 7, 55, 127
1, 978582, Note_off_c, 4, 52, 127
1, 978585, Note_on_c, 5, 53, 127
1, 978650, Note_off_c, 4, 64, 127
1, 978653, Note_on_c, 7, 67, 127
1, 978720, Note_on_c, 10, 69, 127
1, 978720, Note_on_c, 2, 50, 127
1, 978727, Note_off_c, 7, 67, 127
1, 978738, Note_off_c, 5, 53, 127
1, 978789, Note_on_c, 12, 71, 127
1, 978795, Note_off_c, 10, 69, 127
1, 978854, Note_off_c, 2, 50, 127
1, 978857, Note_on_c, 0, 72, 127
1, 978857, Note_on_c, 4, 52, 127
1, 978863, Note_off_c, 12, 71, 127
1, 978993, Note_on_c, 10, 69, 127
1, 978993, Note_on_c, 0, 60, 127
1, 979009, Note_off_c, 0, 72, 127
1, 979056, Note_off_c, 4, 52, 127
1, 979125, Note_off_c, 0, 60, 127
1, 979125, Note_off_c, 10, 69, 127
1, 979127, Note_on_c, 12, 71, 127
1, 979127, Note_on_c, 2, 50, 127
1, 979263, Note_on_c, 7, 67, 127
1, 979263, Note_on_c, 12, 59, 127
1, 979279, Note_off_c, 12, 71, 127
1, 979326, Note_off_c, 2, 50, 127
1, 979395, Note_off_c, 12, 59, 127
1, 979395, Note_off_c, 7, 67, 127
1, 979398, Note_on_c, 10, 69, 127
1, 979398, Note_on_c, 0, 48, 127
1, 979533, Note_on_c, 6, 66, 127
1, 979533, Note_on_c, 10, 57, 127
1, 979550, Note_off_c, 10, 69, 127
1, 979597, Note_off_c, 0, 48, 127
1, 979665, Note_off_c, 10, 57, 127
1, 979665, Note_off_c, 6, 66, 127
1, 979668, Note_on_c, 7, 67, 127
1, 979668, Note_on_c, 12, 47, 127
1, 979804, Note_on_c, 4, 64, 127
1, 979804, Note_on_c, 7, 55, 127
1, 979820, Note_off_c, 7, 67, 127
1, 979867, Note_off_c, 12, 47, 127
1, 979936, Note_off_c, 7, 55, 127
1, 979936, Note_off_c, 4, 64, 127
1, 979938, Note_on_c, 6, 66, 127
1, 979938, Note_on_c, 10, 45, 127
1, 980071, Note_off_c, 6, 66, 127
1, 980074, Note_on_c, 4, 76, 127
1, 980074, Note_on_c, 7, 55, 127
1, 980138, Note_off_c, 10, 45, 127
1, 980207, Note_off_c, 7, 55, 127
1, 980207, Note_off_c, 4, 76, 127
1, 980210, Note_on_c, 2, 74, 127
1, 980210, Note_on_c, 6, 54, 127
1, 980343, Note_off_c, 6, 54, 127
1, 980345, Note_on_c, 0, 48, 127
1, 980478, Note_off_c, 0, 48, 127
1, 980481, Note_on_c, 12, 47, 127
1, 980547, Note_off_c, 2, 74, 127
1, 980549, Note_on_c, 4, 76, 127
1, 980613, Note_off_c, 12, 47, 127
1, 980616, Note_on_c, 6, 78, 127
1, 980616, Note_on_c, 2, 50, 127
1, 980622, Note_off_c, 4, 76, 127
1, 980684, Note_on_c, 7, 79, 127
1, 980690, Note_off_c, 6, 78, 127
1, 980749, Note_off_c, 2, 50, 127
1, 980751, Note_on_c, 6, 78, 127
1, 980751, Note_on_c, 7, 55, 127
1, 980758, Note_off_c, 7, 79, 127
1, 980819, Note_on_c, 4, 76, 127
1, 980825, Note_off_c, 6, 78, 127
1, 980884, Note_off_c, 7, 55, 127
1, 980887, Note_on_c, 2, 74, 127
1, 980887, Note_on_c, 12, 59, 127
1, 980893, Note_off_c, 4, 76, 127
1, 980955, Note_on_c, 0, 72, 127
1, 980961, Note_off_c, 2, 74, 127
1, 981020, Note_off_c, 12, 59, 127
1, 981023, Note_on_c, 12, 71, 127
1, 981023, Note_on_c, 2, 62, 127
1, 981029, Note_off_c, 0, 72, 127
1, 981158, Note_on_c, 7, 79, 127
1, 981158, Note_on_c, 12, 59, 127
1, 981175, Note_off_c, 2, 62, 127
1, 981222, Note_off_c, 12, 71, 127
1, 981290, Note_off_c, 7, 79, 127
1, 981291, Note_off_c, 12, 59, 127
1, 981293, Note_on_c, 10, 69, 127
1, 981293, Note_on_c, 0, 60, 127
1, 981429, Note_on_c, 6, 78, 127
1, 981429, Note_on_c, 10, 57, 127
1, 981445, Note_off_c, 0, 60, 127
1, 981492, Note_off_c, 10, 69, 127
1, 981561, Note_off_c, 10, 57, 127
1, 981561, Note_off_c, 6, 78, 127
1, 981563, Note_on_c, 7, 67, 127
1, 981563, Note_on_c, 12, 59, 127
1, 981696, Note_off_c, 12, 59, 127
1, 981696, Note_off_c, 7, 67, 127
1, 981699, Note_on_c, 6, 66, 127
1, 981699, Note_on_c, 10, 57, 127
1, 981832, Note_off_c, 10, 57, 127
1, 981832, Note_off_c, 6, 66, 127
1, 981835, Note_on_c, 7, 67, 127
1, 981835, Note_on_c, 12, 59, 127
1, 981968, Note_off_c, 12, 59, 127
1, 981968, Note_off_c, 7, 67, 127
1, 981970, Note_on_c, 6, 66, 127
1, 981970, Note_on_c, 10, 57, 127
1, 982103, Note_off_c, 10, 57, 127
1, 982103, Note_off_c, 6, 66, 127
1, 982106, Note_on_c, 7, 67, 127
1, 982106, Note_on_c, 12, 59, 127
1, 982239, Note_off_c, 12, 59, 127
1, 982248, Note_on_c, 7, 55, 127
1, 982248, Note_on_c, 12, 71, 127
1, 982386, Note_off_c, 12, 71, 127
1, 982386, Note_off_c, 7, 55, 127
1, 982389, Note_on_c, 2, 50, 127
1, 982389, Note_on_c, 2, 74, 127
1, 982527, Note_off_c, 2, 74, 127
1, 982527, Note_off_c, 2, 50, 127
1, 982550, Note_on_c, 6, 78, 127
1, 982550, Note_on_c, 12, 47, 127
1, 982688, Note_off_c, 12, 47, 127
1, 982688, Note_off_c, 6, 78, 127
1, 982744, Note_on_c, 7, 43, 127
1, 982744, Note_on_c, 7, 79, 127
1, 983584, Note_off_c, 7, 67, 127
1, 984446, Note_off_c, 7, 79, 127
1, 985191, Note_off_c, 7, 43, 127
1, 985204, Note_on_c, 12, 71, 127
1, 985488, Note_on_c, 7, 55, 127
1, 985627, Note_off_c, 7, 55, 127
1, 985630, Note_on_c, 10, 57, 127
1, 985769, Note_off_c, 10, 57, 127
1, 985772, Note_on_c, 12, 59, 127
1, 985772, Note_on_c, 7, 79, 127
1, 986052, Note_off_c, 12, 59, 127
1, 986056, Note_on_c, 0, 60, 127
1, 986328, Note_off_c, 12, 71, 127
1, 986336, Note_off_c, 0, 60, 127
1, 986340, Note_on_c, 2, 62, 127
1, 986340, Note_on_c, 10, 69, 127
1, 986620, Note_off_c, 2, 62, 127
1, 986624, Note_on_c, 2, 50, 127
1, 986896, Note_off_c, 7, 79, 127
1, 986904, Note_off_c, 2, 50, 127
1, 986908, Note_on_c, 2, 62, 127
1, 986908, Note_on_c, 6, 78, 127
1, 987183, Note_off_c, 10, 69, 127
1, 987192, Note_on_c, 12, 71, 127
1, 987331, Note_off_c, 12, 71, 127
1, 987334, Note_on_c, 10, 69, 127
1, 987464, Note_off_c, 2, 62, 127
1, 987472, Note_off_c, 10, 69, 127
1, 987475, Note_on_c, 7, 67, 127
1, 987750, Note_off_c, 6, 78, 127
1, 987759, Note_on_c, 4, 64, 127
1, 987759, Note_on_c, 7, 79, 127
1, 987898, Note_off_c, 7, 79, 127
1, 987898, Note_off_c, 4, 64, 127
1, 987901, Note_on_c, 2, 62, 127
1, 987901, Note_on_c, 6, 78, 127
1, 988040, Note_off_c, 6, 78, 127
1, 988040, Note_off_c, 2, 62, 127
1, 988043, Note_on_c, 1, 61, 127
1, 988043, Note_on_c, 4, 76, 127
1, 988318, Note_off_c, 7, 67, 127
1, 988323, Note_off_c, 1, 61, 127
1, 988327, Note_on_c, 10, 57, 127
1, 988327, Note_on_c, 6, 66, 127
1, 988466, Note_off_c, 6, 66, 127
1, 988470, Note_on_c, 4, 64, 127
1, 988607, Note_off_c, 10, 57, 127
1, 988609, Note_off_c, 4, 64, 127
1, 988612, Note_on_c, 2, 62, 127
1, 988612, Note_on_c, 6, 66, 127
1, 988886, Note_off_c, 4, 76, 127
1, 988892, Note_off_c, 2, 62, 127
1, 988896, Note_on_c, 2, 50, 127
1, 988896, Note_on_c, 2, 74, 127
1, 989035, Note_off_c, 2, 74, 127
1, 989038, Note_on_c, 1, 73, 127
1, 989176, Note_off_c, 2, 50, 127
1, 989177, Note_off_c, 1, 73, 127
1, 989180, Note_on_c, 2, 62, 127
1, 989180, Note_on_c, 2, 74, 127
1, 989460, Note_off_c, 2, 62, 127
1, 989464, Note_on_c, 0, 60, 127
1, 989736, Note_off_c, 6, 66, 127
1, 989744, Note_off_c, 0, 60, 127
1, 989748, Note_on_c, 0, 60, 127
1, 989748, Note_on_c, 7, 67, 127
1, 989887, Note_off_c, 0, 60, 127
1, 989890, Note_on_c, 12, 59, 127
1, 990029, Note_off_c, 12, 59, 127
1, 990032, Note_on_c, 10, 57, 127
1, 990171, Note_off_c, 10, 57, 127
1, 990174, Note_on_c, 12, 59, 127
1, 990304, Note_off_c, 2, 74, 127
1, 990313, Note_off_c, 12, 59, 127
1, 990316, Note_on_c, 0, 60, 127
1, 990316, Note_on_c, 4, 76, 127
1, 990591, Note_off_c, 7, 67, 127
1, 990596, Note_off_c, 0, 60, 127
1, 990600, Note_on_c, 0, 48, 127
1, 990600, Note_on_c, 6, 66, 127
1, 990739, Note_off_c, 6, 66, 127
1, 990742, Note_on_c, 7, 67, 127
1, 990880, Note_off_c, 0, 48, 127
1, 990881, Note_off_c, 7, 67, 127
1, 990884, Note_on_c, 0, 60, 127
1, 990884, Note_on_c, 10, 69, 127
1, 991159, Note_off_c, 4, 76, 127
1, 991164, Note_off_c, 0, 60, 127
1, 991168, Note_on_c, 12, 59, 127
1, 991168, Note_on_c, 2, 74, 127
1, 991307, Note_off_c, 2, 74, 127
1, 991307, Note_off_c, 12, 59, 127
1, 991310, Note_on_c, 0, 60, 127
1, 991310, Note_on_c, 4, 76, 127
1, 991449, Note_off_c, 4, 76, 127
1, 991449, Note_off_c, 0, 60, 127
1, 991452, Note_on_c, 2, 62, 127
1, 991452, Note_on_c, 6, 78, 127
1, 991727, Note_off_c, 10, 69, 127
1, 991732, Note_off_c, 2, 62, 127
1, 991736, Note_on_c, 10, 57, 127
1, 991736, Note_on_c, 0, 72, 127
1, 991875, Note_off_c, 0, 72, 127
1, 991878, Note_on_c, 12, 71, 127
1, 992016, Note_off_c, 10, 57, 127
1, 992017, Note_off_c, 12, 71, 127
1, 992021, Note_on_c, 2, 50, 127
1, 992021, Note_on_c, 0, 72, 127
1, 992295, Note_off_c, 6, 78, 127
1, 992301, Note_off_c, 2, 50, 127
1, 992305, Note_on_c, 6, 54, 127
1, 992305, Note_on_c, 10, 81, 127
1, 992444, Note_off_c, 10, 81, 127
1, 992444, Note_off_c, 6, 54, 127
1, 992447, Note_on_c, 4, 52, 127
1, 992447, Note_on_c, 7, 79, 127
1, 992586, Note_off_c, 7, 79, 127
1, 992586, Note_off_c, 4, 52, 127
1, 992589, Note_on_c, 6, 54, 127
1, 992589, Note_on_c, 10, 81, 127
1, 992725, Note_off_c, 0, 72, 127
1, 992731, Note_on_c, 12, 71, 127
1, 992868, Note_off_c, 6, 54, 127
1, 992869, Note_off_c, 12, 71, 127
1, 992872, Note_on_c, 2, 50, 127
1, 992872, Note_on_c, 0, 72, 127
1, 993011, Note_off_c, 0, 72, 127
1, 993014, Note_on_c, 10, 69, 127
1, 993152, Note_off_c, 2, 50, 127
1, 993153, Note_off_c, 10, 69, 127
1, 993156, Note_on_c, 7, 55, 127
1, 993156, Note_on_c, 12, 71, 127
1, 993292, Note_off_c, 10, 81, 127
1, 993298, Note_on_c, 7, 79, 127
1, 993435, Note_off_c, 7, 55, 127
1, 993436, Note_off_c, 7, 79, 127
1, 993439, Note_on_c, 2, 50, 127
1, 993439, Note_on_c, 10, 81, 127
1, 993578, Note_off_c, 10, 81, 127
1, 993581, Note_on_c, 6, 78, 127
1, 993719, Note_off_c, 2, 50, 127
1, 993720, Note_off_c, 6, 78, 127
1, 993723, Note_on_c, 7, 43, 127
1, 993723, Note_on_c, 7, 79, 127
1, 994003, Note_off_c, 7, 43, 127
1, 994007, Note_on_c, 7, 55, 127
1, 994146, Note_off_c, 7, 55, 127
1, 994149, Note_on_c, 10, 57, 127
1, 994279, Note_off_c, 12, 71, 127
1, 994288, Note_off_c, 10, 57, 127
1, 994291, Note_on_c, 12, 59, 127
1, 994291, Note_on_c, 7, 67, 127
1, 994571, Note_off_c, 12, 59, 127
1, 994575, Note_on_c, 10, 57, 127
1, 994714, Note_off_c, 10, 57, 127
1, 994717, Note_on_c, 12, 59, 127
1, 994847, Note_off_c, 7, 79, 127
1, 994856, Note_off_c, 12, 59, 127
1, 994859, Note_on_c, 1, 61, 127
1, 994859, Note_on_c, 4, 76, 127
1, 995139, Note_off_c, 1, 61, 127
1, 995143, Note_on_c, 12, 59, 127
1, 995282, Note_off_c, 12, 59, 127
1, 995285, Note_on_c, 1, 61, 127
1, 995415, Note_off_c, 7, 67, 127
1, 995424, Note_off_c, 1, 61, 127
1, 995427, Note_on_c, 2, 62, 127
1, 995427, Note_on_c, 6, 66, 127
1, 995707, Note_off_c, 2, 62, 127
1, 995711, Note_on_c, 1, 61, 127
1, 995983, Note_off_c, 4, 76, 127
1, 995991, Note_off_c, 1, 61, 127
1, 995996, Note_on_c, 12, 59, 127
1, 995996, Note_on_c, 2, 74, 127
1, 996270, Note_off_c, 6, 66, 127
1, 996276, Note_off_c, 12, 59, 127
1, 996280, Note_on_c, 10, 57, 127
1, 996280, Note_on_c, 7, 67, 127
1, 996419, Note_off_c, 7, 67, 127
1, 996422, Note_on_c, 10, 69, 127
1, 996560, Note_off_c, 10, 57, 127
1, 996561, Note_off_c, 10, 69, 127
1, 996564, Note_on_c, 7, 55, 127
1, 996564, Note_on_c, 12, 71, 127
1, 996839, Note_off_c, 2, 74, 127
1, 996844, Note_off_c, 7, 55, 127
1, 996848, Note_on_c, 6, 54, 127
1, 996848, Note_on_c, 4, 76, 127
1, 996987, Note_off_c, 4, 76, 127
1, 996990, Note_on_c, 6, 78, 127
1, 997128, Note_off_c, 6, 54, 127
1, 997129, Note_off_c, 6, 78, 127
1, 997132, Note_on_c, 4, 52, 127
1, 997132, Note_on_c, 7, 79, 127
1, 997268, Note_off_c, 12, 71, 127
1, 997274, Note_on_c, 10, 69, 127
1, 997411, Note_off_c, 4, 52, 127
1, 997412, Note_off_c, 10, 69, 127
1, 997415, Note_on_c, 2, 50, 127
1, 997415, Note_on_c, 12, 71, 127
1, 997554, Note_off_c, 12, 71, 127
1, 997557, Note_on_c, 7, 67, 127
1, 997695, Note_off_c, 2, 50, 127
1, 997696, Note_off_c, 7, 67, 127
1, 997699, Note_on_c, 1, 49, 127
1, 997699, Note_on_c, 10, 69, 127
1, 997835, Note_off_c, 7, 79, 127
1, 997841, Note_on_c, 6, 78, 127
1, 997978, Note_off_c, 1, 49, 127
1, 997979, Note_off_c, 6, 78, 127
1, 997982, Note_on_c, 12, 47, 127
1, 997982, Note_on_c, 7, 79, 127
1, 998121, Note_off_c, 7, 79, 127
1, 998121, Note_off_c, 12, 47, 127
1, 998124, Note_on_c, 1, 49, 127
1, 998124, Note_on_c, 4, 76, 127
1, 998263, Note_off_c, 4, 76, 127
1, 998263, Note_off_c, 1, 49, 127
1, 998266, Note_on_c, 2, 50, 127
1, 998266, Note_on_c, 6, 78, 127
1, 998541, Note_off_c, 10, 69, 127
1, 998546, Note_off_c, 2, 50, 127
1, 998550, Note_on_c, 1, 49, 127
1, 998550, Note_on_c, 10, 69, 127
1, 998689, Note_off_c, 1, 49, 127
1, 998692, Note_on_c, 2, 50, 127
1, 998830, Note_off_c, 10, 69, 127
1, 998831, Note_off_c, 2, 50, 127
1, 998834, Note_on_c, 12, 47, 127
1, 998834, Note_on_c, 7, 67, 127
1, 999109, Note_off_c, 6, 78, 127
1, 999114, Note_off_c, 12, 47, 127
1, 999118, Note_on_c, 10, 45, 127
1, 999118, Note_on_c, 6, 78, 127
1, 999257, Note_off_c, 10, 45, 127
1, 999260, Note_on_c, 12, 47, 127
1, 999398, Note_off_c, 6, 78, 127
1, 999399, Note_off_c, 12, 47, 127
1, 999402, Note_on_c, 1, 49, 127
1, 999402, Note_on_c, 4, 76, 127
1, 999677, Note_off_c, 7, 67, 127
1, 999682, Note_off_c, 1, 49, 127
1, 999686, Note_on_c, 12, 47, 127
1, 999686, Note_on_c, 7, 67, 127
1, 999825, Note_off_c, 12, 47, 127
1, 999828, Note_on_c, 1, 49, 127
1, 999966, Note_off_c, 7, 67, 127
1, 999967, Note_off_c, 1, 49, 127
1, 999971, Note_on_c, 11, 46, 127
1, 999971, Note_on_c, 6, 66, 127
1, 1000245, Note_off_c, 4, 76, 127
1, 1000251, Note_off_c, 11, 46, 127
1, 1000255, Note_on_c, 8, 44, 127
1, 1000255, Note_on_c, 4, 76, 127
1, 1000394, Note_off_c, 8, 44, 127
1, 1000397, Note_on_c, 11, 46, 127
1, 1000535, Note_off_c, 4, 76, 127
1, 1000536, Note_off_c, 11, 46, 127
1, 1000539, Note_on_c, 12, 47, 127
1, 1000539, Note_on_c, 2, 74, 127
1, 1000678, Note_off_c, 12, 47, 127
1, 1000681, Note_on_c, 10, 45, 127
1, 1000814, Note_off_c, 6, 66, 127
1, 1000820, Note_off_c, 10, 45, 127
1, 1000823, Note_on_c, 7, 43, 127
1, 1000823, Note_on_c, 12, 71, 127
1, 1000962, Note_off_c, 7, 43, 127
1, 1000965, Note_on_c, 6, 42, 127
1, 1001103, Note_off_c, 12, 71, 127
1, 1001104, Note_off_c, 6, 42, 127
1, 1001107, Note_on_c, 7, 43, 127
1, 1001107, Note_on_c, 4, 64, 127
1, 1001246, Note_off_c, 4, 64, 127
1, 1001249, Note_on_c, 6, 66, 127
1, 1001382, Note_off_c, 2, 74, 127
1, 1001387, Note_off_c, 7, 43, 127
1, 1001388, Note_off_c, 6, 66, 127
1, 1001391, Note_on_c, 4, 40, 127
1, 1001391, Note_on_c, 7, 67, 127
1, 1001391, Note_on_c, 7, 79, 127
1, 1001671, Note_off_c, 7, 79, 127
1, 1001671, Note_off_c, 4, 40, 127
1, 1001675, Note_on_c, 10, 45, 127
1, 1001675, Note_on_c, 1, 73, 127
1, 1001814, Note_off_c, 1, 73, 127
1, 1001817, Note_on_c, 2, 74, 127
1, 1001956, Note_off_c, 2, 74, 127
1, 1001959, Note_on_c, 10, 33, 127
1, 1001959, Note_on_c, 4, 76, 127
1, 1002234, Note_off_c, 7, 67, 127
1, 1002236, Note_off_c, 10, 45, 127
1, 1002239, Note_off_c, 10, 33, 127
1, 1002243, Note_on_c, 2, 38, 127
1, 1002243, Note_on_c, 6, 66, 127
1, 1002527, Note_on_c, 10, 45, 127
1, 1002802, Note_off_c, 4, 76, 127
1, 1002807, Note_off_c, 10, 45, 127
1, 1002811, Note_on_c, 2, 50, 127
1, 1002811, Note_on_c, 2, 74, 127
1, 1003086, Note_off_c, 6, 66, 127
1, 1003280, Note_off_c, 2, 74, 127
1, 1003367, Note_off_c, 2, 38, 127
1, 1003372, Note_off_c, 2, 50, 127
1, 1003379, Note_on_c, 0, 72, 127
1, 1003664, Note_on_c, 2, 50, 127
1, 1003803, Note_off_c, 2, 50, 127
1, 1003806, Note_on_c, 4, 52, 127
1, 1003945, Note_off_c, 4, 52, 127
1, 1003948, Note_on_c, 6, 54, 127
1, 1003948, Note_on_c, 10, 81, 127
1, 1004228, Note_off_c, 6, 54, 127
1, 1004232, Note_on_c, 2, 50, 127
1, 1004503, Note_off_c, 0, 72, 127
1, 1004512, Note_off_c, 2, 50, 127
1, 1004516, Note_on_c, 7, 55, 127
1, 1004516, Note_on_c, 12, 71, 127
1, 1004796, Note_off_c, 7, 55, 127
1, 1004800, Note_on_c, 7, 43, 127
1, 1005072, Note_off_c, 10, 81, 127
1, 1005080, Note_off_c, 7, 43, 127
1, 1005084, Note_on_c, 7, 55, 127
1, 1005084, Note_on_c, 7, 79, 127
1, 1005359, Note_off_c, 12, 71, 127
1, 1005364, Note_off_c, 7, 55, 127
1, 1005368, Note_on_c, 10, 57, 127
1, 1005368, Note_on_c, 0, 72, 127
1, 1005507, Note_off_c, 0, 72, 127
1, 1005507, Note_off_c, 10, 57, 127
1, 1005510, Note_on_c, 12, 59, 127
1, 1005510, Note_on_c, 2, 74, 127
1, 1005649, Note_off_c, 2, 74, 127
1, 1005649, Note_off_c, 12, 59, 127
1, 1005652, Note_on_c, 0, 60, 127
1, 1005652, Note_on_c, 4, 76, 127
1, 1005927, Note_off_c, 7, 79, 127
1, 1005932, Note_off_c, 0, 60, 127
1, 1005936, Note_on_c, 12, 59, 127
1, 1005936, Note_on_c, 10, 81, 127
1, 1006075, Note_off_c, 10, 81, 127
1, 1006078, Note_on_c, 12, 83, 127
1, 1006216, Note_off_c, 12, 59, 127
1, 1006217, Note_off_c, 12, 83, 127
1, 1006220, Note_on_c, 10, 57, 127
1, 1006220, Note_on_c, 0, 84, 127
1, 1006356, Note_off_c, 4, 76, 127
1, 1006362, Note_on_c, 3, 75, 127
1, 1006499, Note_off_c, 10, 57, 127
1, 1006500, Note_off_c, 3, 75, 127
1, 1006503, Note_on_c, 7, 55, 127
1, 1006503, Note_on_c, 4, 76, 127
1, 1006642, Note_off_c, 7, 55, 127
1, 1006645, Note_on_c, 10, 57, 127
1, 1006783, Note_off_c, 4, 76, 127
1, 1006784, Note_off_c, 10, 57, 127
1, 1006787, Note_on_c, 12, 59, 127
1, 1006787, Note_on_c, 3, 75, 127
1, 1006923, Note_off_c, 0, 84, 127
1, 1006929, Note_on_c, 12, 83, 127
1, 1007067, Note_off_c, 12, 83, 127
1, 1007070, Note_on_c, 0, 84, 127
1, 1007207, Note_off_c, 12, 59, 127
1, 1007212, Note_on_c, 10, 57, 127
1, 1007350, Note_off_c, 0, 84, 127
1, 1007351, Note_off_c, 10, 57, 127
1, 1007354, Note_on_c, 7, 55, 127
1, 1007354, Note_on_c, 12, 83, 127
1, 1007493, Note_off_c, 7, 55, 127
1, 1007497, Note_on_c, 6, 54, 127
1, 1007629, Note_off_c, 3, 75, 127
1, 1007636, Note_off_c, 6, 54, 127
1, 1007639, Note_on_c, 4, 52, 127
1, 1007778, Note_off_c, 4, 52, 127
1, 1007781, Note_on_c, 3, 51, 127
1, 1007910, Note_off_c, 12, 83, 127
1, 1007919, Note_off_c, 3, 51, 127
1, 1007922, Note_on_c, 4, 52, 127
1, 1007922, Note_on_c, 7, 67, 127
1, 1008202, Note_off_c, 4, 52, 127
1, 1008206, Note_on_c, 4, 64, 127
1, 1008345, Note_off_c, 4, 64, 127
1, 1008348, Note_on_c, 2, 62, 127
1, 1008487, Note_off_c, 2, 62, 127
1, 1008490, Note_on_c, 0, 60, 127
1, 1008490, Note_on_c, 4, 76, 127
1, 1008770, Note_off_c, 0, 60, 127
1, 1008774, Note_on_c, 12, 59, 127
1, 1009046, Note_off_c, 7, 67, 127
1, 1009054, Note_off_c, 12, 59, 127
1, 1009058, Note_on_c, 10, 57, 127
1, 1009058, Note_on_c, 6, 66, 127
1, 1009338, Note_off_c, 6, 66, 127
1, 1009338, Note_off_c, 10, 57, 127
1, 1009342, Note_on_c, 12, 59, 127
1, 1009342, Note_on_c, 7, 67, 127
1, 1009481, Note_off_c, 12, 59, 127
1, 1009484, Note_on_c, 0, 60, 127
1, 1009614, Note_off_c, 4, 76, 127
1, 1009622, Note_off_c, 7, 67, 127
1, 1009623, Note_off_c, 0, 60, 127
1, 1009626, Note_on_c, 6, 54, 127
1, 1009626, Note_on_c, 10, 69, 127
1, 1009626, Note_on_c, 3, 75, 127
1, 1009906, Note_off_c, 3, 75, 127
1, 1009906, Note_off_c, 6, 54, 127
1, 1009910, Note_on_c, 7, 55, 127
1, 1009910, Note_on_c, 4, 76, 127
1, 1010049, Note_off_c, 7, 55, 127
1, 1010052, Note_on_c, 10, 57, 127
1, 1010190, Note_off_c, 4, 76, 127
1, 1010191, Note_off_c, 10, 57, 127
1, 1010194, Note_on_c, 3, 51, 127
1, 1010194, Note_on_c, 6, 78, 127
1, 1010469, Note_off_c, 10, 69, 127
1, 1010474, Note_off_c, 3, 51, 127
1, 1010478, Note_on_c, 4, 52, 127
1, 1010478, Note_on_c, 7, 67, 127
1, 1010617, Note_off_c, 7, 67, 127
1, 1010617, Note_off_c, 4, 52, 127
1, 1010620, Note_on_c, 6, 54, 127
1, 1010620, Note_on_c, 10, 69, 127
1, 1010759, Note_off_c, 10, 69, 127
1, 1010759, Note_off_c, 6, 54, 127
1, 1010762, Note_on_c, 12, 47, 127
1, 1010762, Note_on_c, 12, 71, 127
1, 1011037, Note_off_c, 6, 78, 127
1, 1011042, Note_off_c, 12, 47, 127
1, 1011046, Note_on_c, 1, 49, 127
1, 1011046, Note_on_c, 4, 76, 127
1, 1011185, Note_off_c, 4, 76, 127
1, 1011185, Note_off_c, 1, 49, 127
1, 1011189, Note_on_c, 3, 51, 127
1, 1011189, Note_on_c, 6, 78, 127
1, 1011328, Note_off_c, 6, 78, 127
1, 1011328, Note_off_c, 3, 51, 127
1, 1011331, Note_on_c, 4, 52, 127
1, 1011331, Note_on_c, 7, 79, 127
1, 1011466, Note_off_c, 12, 71, 127
1, 1011473, Note_on_c, 10, 69, 127
1, 1011610, Note_off_c, 4, 52, 127
1, 1011611, Note_off_c, 10, 69, 127
1, 1011614, Note_on_c, 4, 64, 127
1, 1011614, Note_on_c, 7, 67, 127
1, 1011753, Note_off_c, 7, 67, 127
1, 1011753, Note_off_c, 4, 64, 127
1, 1011756, Note_on_c, 3, 63, 127
1, 1011756, Note_on_c, 6, 66, 127
1, 1011895, Note_off_c, 6, 66, 127
1, 1011895, Note_off_c, 3, 63, 127
1, 1011898, Note_on_c, 4, 64, 127
1, 1012034, Note_off_c, 7, 79, 127
1, 1012040, Note_on_c, 6, 78, 127
1, 1012178, Note_off_c, 6, 78, 127
1, 1012181, Note_on_c, 6, 66, 127
1, 1012181, Note_on_c, 4, 76, 127
1, 1012253, Note_off_c, 4, 64, 127
1, 1012320, Note_off_c, 4, 76, 127
1, 1012320, Note_off_c, 6, 66, 127
1, 1012323, Note_on_c, 7, 67, 127
1, 1012323, Note_on_c, 2, 74, 127
1, 1012462, Note_off_c, 2, 74, 127
1, 1012462, Note_off_c, 7, 67, 127
1, 1012465, Note_on_c, 10, 69, 127
1, 1012465, Note_on_c, 0, 72, 127
1, 1012749, Note_on_c, 7, 67, 127
1, 1012878, Note_off_c, 10, 69, 127
1, 1012888, Note_off_c, 7, 67, 127
1, 1012891, Note_on_c, 10, 69, 127
1, 1013026, Note_off_c, 0, 72, 127
1, 1013033, Note_on_c, 6, 66, 127
1, 1013033, Note_on_c, 10, 81, 127
1, 1013313, Note_off_c, 6, 66, 127
1, 1013317, Note_on_c, 4, 64, 127
1, 1013456, Note_off_c, 4, 64, 127
1, 1013459, Note_on_c, 6, 66, 127
1, 1013597, Note_off_c, 10, 69, 127
1, 1013598, Note_off_c, 6, 66, 127
1, 1013601, Note_on_c, 7, 67, 127
1, 1013601, Note_on_c, 12, 71, 127
1, 1013881, Note_off_c, 7, 67, 127
1, 1013885, Note_on_c, 6, 66, 127
1, 1014157, Note_off_c, 10, 81, 127
1, 1014165, Note_off_c, 6, 66, 127
1, 1014169, Note_on_c, 4, 64, 127
1, 1014169, Note_on_c, 7, 79, 127
1, 1014444, Note_off_c, 12, 71, 127
1, 1014449, Note_off_c, 4, 64, 127
1, 1014453, Note_on_c, 2, 62, 127
1, 1014453, Note_on_c, 0, 72, 127
1, 1014592, Note_off_c, 0, 72, 127
1, 1014595, Note_on_c, 2, 74, 127
1, 1014733, Note_off_c, 2, 62, 127
1, 1014734, Note_off_c, 2, 74, 127
1, 1014737, Note_on_c, 0, 60, 127
1, 1014737, Note_on_c, 4, 76, 127
1, 1015012, Note_off_c, 7, 79, 127
1, 1015017, Note_off_c, 0, 60, 127
1, 1015021, Note_on_c, 12, 59, 127
1, 1015021, Note_on_c, 10, 81, 127
1, 1015160, Note_off_c, 10, 81, 127
1, 1015164, Note_on_c, 12, 83, 127
1, 1015301, Note_off_c, 12, 59, 127
1, 1015303, Note_off_c, 12, 83, 127
1, 1015306, Note_on_c, 10, 57, 127
1, 1015306, Note_on_c, 0, 84, 127
1, 1015441, Note_off_c, 4, 76, 127
1, 1015448, Note_on_c, 2, 74, 127
1, 1015585, Note_off_c, 10, 57, 127
1, 1015586, Note_off_c, 2, 74, 127
1, 1015589, Note_on_c, 7, 55, 127
1, 1015589, Note_on_c, 4, 76, 127
1, 1015728, Note_off_c, 4, 76, 127
1, 1015731, Note_on_c, 0, 72, 127
1, 1015869, Note_off_c, 7, 55, 127
1, 1015870, Note_off_c, 0, 72, 127
1, 1015873, Note_on_c, 6, 54, 127
1, 1015873, Note_on_c, 2, 74, 127
1, 1016009, Note_off_c, 0, 84, 127
1, 1016015, Note_on_c, 12, 83, 127
1, 1016152, Note_off_c, 6, 54, 127
1, 1016153, Note_off_c, 12, 83, 127
1, 1016156, Note_on_c, 4, 52, 127
1, 1016156, Note_on_c, 0, 84, 127
1, 1016295, Note_off_c, 0, 84, 127
1, 1016295, Note_off_c, 4, 52, 127
1, 1016298, Note_on_c, 6, 54, 127
1, 1016298, Note_on_c, 10, 81, 127
1, 1016437, Note_off_c, 10, 81, 127
1, 1016437, Note_off_c, 6, 54, 127
1, 1016440, Note_on_c, 7, 55, 127
1, 1016440, Note_on_c, 12, 83, 127
1, 1016715, Note_off_c, 2, 74, 127
1, 1016720, Note_off_c, 7, 55, 127
1, 1016724, Note_on_c, 6, 54, 127
1, 1016724, Note_on_c, 2, 74, 127
1, 1016863, Note_off_c, 6, 54, 127
1, 1016866, Note_on_c, 7, 55, 127
1, 1017004, Note_off_c, 2, 74, 127
1, 1017005, Note_off_c, 7, 55, 127
1, 1017008, Note_on_c, 4, 52, 127
1, 1017008, Note_on_c, 0, 72, 127
1, 1017283, Note_off_c, 12, 83, 127
1, 1017288, Note_off_c, 4, 52, 127
1, 1017292, Note_on_c, 2, 50, 127
1, 1017292, Note_on_c, 12, 83, 127
1, 1017431, Note_off_c, 2, 50, 127
1, 1017434, Note_on_c, 4, 52, 127
1, 1017572, Note_off_c, 12, 83, 127
1, 1017573, Note_off_c, 4, 52, 127
1, 1017576, Note_on_c, 6, 54, 127
1, 1017576, Note_on_c, 10, 81, 127
1, 1017851, Note_off_c, 0, 72, 127
1, 1017856, Note_off_c, 6, 54, 127
1, 1017860, Note_on_c, 4, 52, 127
1, 1017860, Note_on_c, 0, 72, 127
1, 1017999, Note_off_c, 4, 52, 127
1, 1018002, Note_on_c, 6, 54, 127
1, 1018140, Note_off_c, 0, 72, 127
1, 1018141, Note_off_c, 6, 54, 127
1, 1018144, Note_on_c, 3, 51, 127
1, 1018144, Note_on_c, 12, 71, 127
1, 1018419, Note_off_c, 10, 81, 127
1, 1018424, Note_off_c, 3, 51, 127
1, 1018428, Note_on_c, 1, 49, 127
1, 1018428, Note_on_c, 10, 81, 127
1, 1018567, Note_off_c, 1, 49, 127
1, 1018570, Note_on_c, 3, 51, 127
1, 1018708, Note_off_c, 10, 81, 127
1, 1018709, Note_off_c, 3, 51, 127
1, 1018712, Note_on_c, 4, 52, 127
1, 1018712, Note_on_c, 7, 79, 127
1, 1018851, Note_off_c, 4, 52, 127
1, 1018854, Note_on_c, 2, 50, 127
1, 1018987, Note_off_c, 12, 71, 127
1, 1018993, Note_off_c, 2, 50, 127
1, 1018996, Note_on_c, 0, 48, 127
1, 1018996, Note_on_c, 4, 76, 127
1, 1019135, Note_off_c, 0, 48, 127
1, 1019139, Note_on_c, 12, 47, 127
1, 1019276, Note_off_c, 4, 76, 127
1, 1019278, Note_off_c, 12, 47, 127
1, 1019281, Note_on_c, 0, 48, 127
1, 1019281, Note_on_c, 10, 69, 127
1, 1019420, Note_off_c, 10, 69, 127
1, 1019423, Note_on_c, 12, 71, 127
1, 1019555, Note_off_c, 7, 79, 127
1, 1019561, Note_off_c, 0, 48, 127
1, 1019562, Note_off_c, 12, 71, 127
1, 1019565, Note_on_c, 10, 45, 127
1, 1019565, Note_on_c, 0, 72, 127
1, 1019565, Note_on_c, 0, 84, 127
1, 1019845, Note_off_c, 0, 84, 127
1, 1019845, Note_off_c, 10, 45, 127
1, 1019849, Note_on_c, 2, 50, 127
1, 1019849, Note_on_c, 6, 78, 127
1, 1019988, Note_off_c, 6, 78, 127
1, 1019991, Note_on_c, 7, 79, 127
1, 1020130, Note_off_c, 7, 79, 127
1, 1020133, Note_on_c, 2, 38, 127
1, 1020133, Note_on_c, 10, 81, 127
1, 1020408, Note_off_c, 0, 72, 127
1, 1020413, Note_off_c, 2, 38, 127
1, 1020417, Note_on_c, 7, 43, 127
1, 1020417, Note_on_c, 12, 71, 127
1, 1020434, Note_off_c, 2, 50, 127
1, 1020785, Note_on_c, 2, 50, 127
1, 1021103, Note_off_c, 10, 81, 127
1, 1021161, Note_off_c, 2, 50, 127
1, 1021199, Note_on_c, 7, 55, 127
1, 1021199, Note_on_c, 7, 79, 127
1, 1022217, Note_off_c, 7, 43, 127
1, 1023266, Note_off_c, 12, 71, 127
1, 1023819, Note_off_c, 7, 79, 127
1, 1024499, Note_off_c, 7, 55, 127
1, 1024632, Note_on_c, 2, 74, 127
1, 1024632, Note_on_c, 12, 71, 127
1, 1024632, Note_on_c, 7, 55, 127
1, 1024834, Note_off_c, 12, 71, 127
1, 1024839, Note_on_c, 10, 69, 127
1, 1025039, Note_off_c, 7, 55, 127
1, 1025039, Note_off_c, 2, 74, 127
1, 1025041, Note_off_c, 10, 69, 127
1, 1025045, Note_on_c, 2, 74, 127
1, 1025045, Note_on_c, 12, 71, 127
1, 1025045, Note_on_c, 7, 43, 127
1, 1025247, Note_off_c, 12, 71, 127
1, 1025252, Note_on_c, 7, 67, 127
1, 1025452, Note_off_c, 7, 43, 127
1, 1025454, Note_off_c, 7, 67, 127
1, 1025459, Note_on_c, 2, 62, 127
1, 1025459, Note_on_c, 7, 55, 127
1, 1025661, Note_off_c, 2, 62, 127
1, 1025665, Note_on_c, 7, 67, 127
1, 1025866, Note_off_c, 7, 55, 127
1, 1025867, Note_off_c, 7, 67, 127
1, 1025872, Note_on_c, 10, 69, 127
1, 1025872, Note_on_c, 6, 54, 127
1, 1026074, Note_off_c, 10, 69, 127
1, 1026079, Note_on_c, 7, 67, 127
1, 1026271, Note_off_c, 2, 74, 127
1, 1026279, Note_off_c, 6, 54, 127
1, 1026281, Note_off_c, 7, 67, 127
1, 1026286, Note_on_c, 2, 74, 127
1, 1026286, Note_on_c, 10, 69, 127
1, 1026286, Note_on_c, 6, 42, 127
1, 1026488, Note_off_c, 10, 69, 127
1, 1026492, Note_on_c, 6, 66, 127
1, 1026693, Note_off_c, 6, 42, 127
1, 1026694, Note_off_c, 6, 66, 127
1, 1026699, Note_on_c, 2, 62, 127
1, 1026699, Note_on_c, 6, 54, 127
1, 1026901, Note_off_c, 2, 62, 127
1, 1026906, Note_on_c, 6, 66, 127
1, 1027106, Note_off_c, 6, 54, 127
1, 1027108, Note_off_c, 6, 66, 127
1, 1027112, Note_on_c, 7, 67, 127
1, 1027112, Note_on_c, 4, 52, 127
1, 1027314, Note_off_c, 7, 67, 127
1, 1027319, Note_on_c, 6, 66, 127
1, 1027512, Note_off_c, 2, 74, 127
1, 1027519, Note_off_c, 4, 52, 127
1, 1027521, Note_off_c, 6, 66, 127
1, 1027526, Note_on_c, 2, 74, 127
1, 1027526, Note_on_c, 7, 67, 127
1, 1027526, Note_on_c, 4, 40, 127
1, 1027728, Note_off_c, 7, 67, 127
1, 1027732, Note_on_c, 12, 71, 127
1, 1027933, Note_off_c, 4, 40, 127
1, 1027933, Note_off_c, 2, 74, 127
1, 1027934, Note_off_c, 12, 71, 127
1, 1027939, Note_on_c, 1, 73, 127
1, 1027939, Note_on_c, 10, 69, 127
1, 1027939, Note_on_c, 4, 52, 127
1, 1028141, Note_off_c, 10, 69, 127
1, 1028146, Note_on_c, 7, 67, 127
1, 1028346, Note_off_c, 4, 52, 127
1, 1028346, Note_off_c, 1, 73, 127
1, 1028348, Note_off_c, 7, 67, 127
1, 1028353, Note_on_c, 2, 74, 127
1, 1028353, Note_on_c, 6, 66, 127
1, 1028353, Note_on_c, 2, 50, 127
1, 1028555, Note_off_c, 6, 66, 127
1, 1028559, Note_on_c, 4, 64, 127
1, 1028760, Note_off_c, 2, 50, 127
1, 1028761, Note_off_c, 4, 64, 127
1, 1028766, Note_on_c, 6, 66, 127
1, 1028766, Note_on_c, 2, 38, 127
1, 1028968, Note_off_c, 6, 66, 127
1, 1028973, Note_on_c, 7, 67, 127
1, 1029173, Note_off_c, 2, 38, 127
1, 1029175, Note_off_c, 7, 67, 127
1, 1029179, Note_on_c, 10, 69, 127
1, 1029179, Note_on_c, 0, 48, 127
1, 1029381, Note_off_c, 10, 69, 127
1, 1029386, Note_on_c, 6, 66, 127
1, 1029579, Note_off_c, 2, 74, 127
1, 1029586, Note_off_c, 0, 48, 127
1, 1029588, Note_off_c, 6, 66, 127
1, 1029593, Note_on_c, 7, 79, 127
1, 1029593, Note_on_c, 7, 67, 127
1, 1029593, Note_on_c, 12, 47, 127
1, 1029795, Note_off_c, 7, 79, 127
1, 1029799, Note_on_c, 6, 78, 127
1, 1030000, Note_off_c, 12, 47, 127
1, 1030000, Note_off_c, 7, 67, 127
1, 1030001, Note_off_c, 6, 78, 127
1, 1030006, Note_on_c, 7, 79, 127
1, 1030006, Note_on_c, 7, 67, 127
1, 1030006, Note_on_c, 12, 59, 127
1, 1030208, Note_off_c, 7, 79, 127
1, 1030213, Note_on_c, 2, 74, 127
1, 1030413, Note_off_c, 12, 59, 127
1, 1030415, Note_off_c, 2, 74, 127
1, 1030420, Note_on_c, 12, 71, 127
1, 1030420, Note_on_c, 7, 55, 127
1, 1030622, Note_off_c, 12, 71, 127
1, 1030626, Note_on_c, 2, 74, 127
1, 1030827, Note_off_c, 7, 55, 127
1, 1030828, Note_off_c, 2, 74, 127
1, 1030833, Note_on_c, 4, 76, 127
1, 1030833, Note_on_c, 0, 60, 127
1, 1031035, Note_off_c, 4, 76, 127
1, 1031040, Note_on_c, 2, 74, 127
1, 1031232, Note_off_c, 7, 67, 127
1, 1031240, Note_off_c, 0, 60, 127
1, 1031242, Note_off_c, 2, 74, 127
1, 1031246, Note_on_c, 4, 76, 127
1, 1031246, Note_on_c, 7, 67, 127
1, 1031246, Note_on_c, 0, 48, 127
1, 1031448, Note_off_c, 4, 76, 127
1, 1031453, Note_on_c, 0, 72, 127
1, 1031653, Note_off_c, 0, 48, 127
1, 1031655, Note_off_c, 0, 72, 127
1, 1031660, Note_on_c, 10, 69, 127
1, 1031660, Note_on_c, 0, 60, 127
1, 1031862, Note_off_c, 10, 69, 127
1, 1031866, Note_on_c, 0, 72, 127
1, 1032067, Note_off_c, 0, 60, 127
1, 1032068, Note_off_c, 0, 72, 127
1, 1032073, Note_on_c, 2, 74, 127
1, 1032073, Note_on_c, 12, 59, 127
1, 1032275, Note_off_c, 12, 59, 127
1, 1032275, Note_off_c, 2, 74, 127
1, 1032280, Note_on_c, 0, 72, 127
1, 1032280, Note_on_c, 10, 57, 127
1, 1032472, Note_off_c, 7, 67, 127
1, 1032482, Note_off_c, 10, 57, 127
1, 1032482, Note_off_c, 0, 72, 127
1, 1032487, Note_on_c, 2, 74, 127
1, 1032487, Note_on_c, 7, 67, 127
1, 1032487, Note_on_c, 12, 59, 127
1, 1032689, Note_off_c, 12, 59, 127
1, 1032689, Note_off_c, 2, 74, 127
1, 1032693, Note_on_c, 4, 76, 127
1, 1032693, Note_on_c, 0, 60, 127
1, 1032894, Note_off_c, 7, 67, 127
1, 1032895, Note_off_c, 0, 60, 127
1, 1032895, Note_off_c, 4, 76, 127
1, 1032900, Note_on_c, 2, 74, 127
1, 1032900, Note_on_c, 6, 66, 127
1, 1032900, Note_on_c, 2, 62, 127
1, 1033102, Note_off_c, 2, 74, 127
1, 1033107, Note_on_c, 0, 72, 127
1, 1033307, Note_off_c, 2, 62, 127
1, 1033307, Note_off_c, 6, 66, 127
1, 1033309, Note_off_c, 0, 72, 127
1, 1033313, Note_on_c, 12, 71, 127
1, 1033313, Note_on_c, 7, 67, 127
1, 1033313, Note_on_c, 7, 55, 127
1, 1033515, Note_off_c, 12, 71, 127
1, 1033520, Note_on_c, 10, 69, 127
1, 1033720, Note_off_c, 7, 55, 127
1, 1033722, Note_off_c, 10, 69, 127
1, 1033727, Note_on_c, 12, 71, 127
1, 1033727, Note_on_c, 7, 43, 127
1, 1033929, Note_off_c, 7, 43, 127
1, 1033929, Note_off_c, 12, 71, 127
1, 1033933, Note_on_c, 0, 72, 127
1, 1033933, Note_on_c, 2, 50, 127
1, 1034135, Note_off_c, 2, 50, 127
1, 1034135, Note_off_c, 0, 72, 127
1, 1034140, Note_on_c, 12, 71, 127
1, 1034140, Note_on_c, 7, 55, 127
1, 1034342, Note_off_c, 7, 55, 127
1, 1034342, Note_off_c, 12, 71, 127
1, 1034347, Note_on_c, 10, 69, 127
1, 1034347, Note_on_c, 10, 57, 127
1, 1034539, Note_off_c, 7, 67, 127
1, 1034549, Note_off_c, 10, 57, 127
1, 1034549, Note_off_c, 10, 69, 127
1, 1034554, Note_on_c, 7, 67, 127
1, 1034554, Note_on_c, 12, 59, 127
1, 1034756, Note_off_c, 12, 59, 127
1, 1034760, Note_on_c, 10, 57, 127
1, 1034962, Note_off_c, 10, 57, 127
1, 1034967, Note_on_c, 7, 79, 127
1, 1034967, Note_on_c, 12, 59, 127
1, 1035166, Note_off_c, 7, 67, 127
1, 1035169, Note_off_c, 12, 59, 127
1, 1035174, Note_on_c, 7, 55, 127
1, 1035376, Note_off_c, 7, 55, 127
1, 1035380, Note_on_c, 2, 74, 127
1, 1035380, Note_on_c, 4, 52, 127
1, 1035582, Note_off_c, 4, 52, 127
1, 1035587, Note_on_c, 7, 55, 127
1, 1035787, Note_off_c, 2, 74, 127
1, 1035789, Note_off_c, 7, 55, 127
1, 1035794, Note_on_c, 1, 73, 127
1, 1035794, Note_on_c, 10, 57, 127
1, 1035996, Note_off_c, 10, 57, 127
1, 1036000, Note_on_c, 7, 55, 127
1, 1036193, Note_off_c, 7, 79, 127
1, 1036202, Note_off_c, 7, 55, 127
1, 1036207, Note_on_c, 6, 78, 127
1, 1036207, Note_on_c, 10, 57, 127
1, 1036409, Note_off_c, 10, 57, 127
1, 1036414, Note_on_c, 6, 54, 127
1, 1036610, Note_off_c, 1, 73, 127
1, 1036616, Note_off_c, 6, 54, 127
1, 1036621, Note_on_c, 0, 72, 127
1, 1036621, Note_on_c, 2, 50, 127
1, 1036823, Note_off_c, 2, 50, 127
1, 1036827, Note_on_c, 6, 54, 127
1, 1037028, Note_off_c, 0, 72, 127
1, 1037029, Note_off_c, 6, 54, 127
1, 1037034, Note_on_c, 12, 71, 127
1, 1037034, Note_on_c, 7, 55, 127
1, 1037236, Note_off_c, 7, 55, 127
1, 1037241, Note_on_c, 6, 54, 127
1, 1037433, Note_off_c, 6, 78, 127
1, 1037441, Note_off_c, 12, 71, 127
1, 1037443, Note_off_c, 6, 54, 127
1, 1037447, Note_on_c, 4, 76, 127
1, 1037447, Note_on_c, 4, 64, 127
1, 1037447, Note_on_c, 7, 55, 127
1, 1037649, Note_off_c, 7, 55, 127
1, 1037654, Note_on_c, 4, 52, 127
1, 1037854, Note_off_c, 4, 64, 127
1, 1037854, Note_off_c, 4, 76, 127
1, 1037856, Note_off_c, 4, 52, 127
1, 1037861, Note_on_c, 2, 74, 127
1, 1037861, Note_on_c, 8, 68, 127
1, 1037861, Note_on_c, 12, 47, 127
1, 1038063, Note_off_c, 12, 47, 127
1, 1038067, Note_on_c, 4, 52, 127
1, 1038268, Note_off_c, 8, 68, 127
1, 1038268, Note_off_c, 2, 74, 127
1, 1038269, Note_off_c, 4, 52, 127
1, 1038274, Note_on_c, 1, 73, 127
1, 1038274, Note_on_c, 10, 69, 127
1, 1038274, Note_on_c, 7, 55, 127
1, 1038476, Note_off_c, 7, 55, 127
1, 1038476, Note_off_c, 1, 73, 127
1, 1038481, Note_on_c, 2, 74, 127
1, 1038481, Note_on_c, 6, 54, 127
1, 1038683, Note_off_c, 6, 54, 127
1, 1038683, Note_off_c, 2, 74, 127
1, 1038688, Note_on_c, 4, 76, 127
1, 1038688, Note_on_c, 7, 55, 127
1, 1038890, Note_off_c, 7, 55, 127
1, 1038894, Note_on_c, 4, 52, 127
1, 1039090, Note_off_c, 10, 69, 127
1, 1039096, Note_off_c, 4, 52, 127
1, 1039101, Note_on_c, 7, 67, 127
1, 1039101, Note_on_c, 1, 49, 127
1, 1039303, Note_off_c, 1, 49, 127
1, 1039308, Note_on_c, 4, 52, 127
1, 1039508, Note_off_c, 7, 67, 127
1, 1039510, Note_off_c, 4, 52, 127
1, 1039514, Note_on_c, 6, 66, 127
1, 1039514, Note_on_c, 10, 57, 127
1, 1039716, Note_off_c, 10, 57, 127
1, 1039721, Note_on_c, 7, 55, 127
1, 1039914, Note_off_c, 4, 76, 127
1, 1039923, Note_off_c, 7, 55, 127
1, 1039928, Note_on_c, 2, 74, 127
1, 1039928, Note_on_c, 10, 57, 127
1, 1040130, Note_off_c, 10, 57, 127
1, 1040134, Note_on_c, 6, 54, 127
1, 1040330, Note_off_c, 6, 66, 127
1, 1040335, Note_off_c, 2, 74, 127
1, 1040336, Note_off_c, 6, 54, 127
1, 1040341, Note_on_c, 0, 72, 127
1, 1040341, Note_on_c, 10, 69, 127
1, 1040341, Note_on_c, 2, 50, 127
1, 1040543, Note_off_c, 2, 50, 127
1, 1040548, Note_on_c, 6, 54, 127
1, 1040748, Note_off_c, 10, 69, 127
1, 1040750, Note_off_c, 6, 54, 127
1, 1040755, Note_on_c, 2, 62, 127
1, 1040755, Note_on_c, 12, 59, 127
1, 1040957, Note_off_c, 12, 59, 127
1, 1040961, Note_on_c, 10, 57, 127
1, 1041157, Note_off_c, 0, 72, 127
1, 1041162, Note_off_c, 2, 62, 127
1, 1041163, Note_off_c, 10, 57, 127
1, 1041168, Note_on_c, 12, 71, 127
1, 1041168, Note_on_c, 7, 67, 127
1, 1041168, Note_on_c, 12, 59, 127
1, 1041370, Note_off_c, 12, 59, 127
1, 1041375, Note_on_c, 7, 55, 127
1, 1041575, Note_off_c, 7, 67, 127
1, 1041575, Note_off_c, 12, 71, 127
1, 1041577, Note_off_c, 7, 55, 127
1, 1041581, Note_on_c, 7, 79, 127
1, 1041581, Note_on_c, 12, 71, 127
1, 1041581, Note_on_c, 4, 52, 127
1, 1041783, Note_off_c, 4, 52, 127
1, 1041788, Note_on_c, 7, 55, 127
1, 1041988, Note_off_c, 12, 71, 127
1, 1041990, Note_off_c, 7, 55, 127
1, 1041995, Note_on_c, 1, 73, 127
1, 1041995, Note_on_c, 10, 57, 127
1, 1042193, Note_off_c, 7, 79, 127
1, 1042201, Note_on_c, 4, 76, 127
1, 1042402, Note_off_c, 10, 57, 127
1, 1042402, Note_off_c, 1, 73, 127
1, 1042403, Note_off_c, 4, 76, 127
1, 1042408, Note_on_c, 6, 78, 127
1, 1042408, Note_on_c, 10, 69, 127
1, 1042408, Note_on_c, 10, 45, 127
1, 1042610, Note_off_c, 6, 78, 127
1, 1042615, Note_on_c, 2, 74, 127
1, 1042815, Note_off_c, 10, 45, 127
1, 1042815, Note_off_c, 10, 69, 127
1, 1042817, Note_off_c, 2, 74, 127
1, 1042822, Note_on_c, 4, 76, 127
1, 1042822, Note_on_c, 7, 67, 127
1, 1042822, Note_on_c, 10, 57, 127
1, 1043024, Note_off_c, 4, 76, 127
1, 1043028, Note_on_c, 1, 73, 127
1, 1043229, Note_off_c, 10, 57, 127
1, 1043230, Note_off_c, 1, 73, 127
1, 1043235, Note_on_c, 2, 74, 127
1, 1043235, Note_on_c, 2, 62, 127
1, 1043437, Note_off_c, 2, 62, 127
1, 1043442, Note_on_c, 1, 61, 127
1, 1043638, Note_off_c, 7, 67, 127
1, 1043644, Note_off_c, 1, 61, 127
1, 1043648, Note_on_c, 6, 66, 127
1, 1043648, Note_on_c, 2, 62, 127
1, 1043850, Note_off_c, 2, 62, 127
1, 1043855, Note_on_c, 10, 57, 127
1, 1044057, Note_off_c, 10, 57, 127
1, 1044062, Note_on_c, 6, 54, 127
1, 1044264, Note_off_c, 6, 54, 127
1, 1044268, Note_on_c, 2, 50, 127
1, 1044461, Note_off_c, 2, 74, 127
1, 1044464, Note_off_c, 6, 66, 127
1, 1044470, Note_off_c, 2, 50, 127
1, 1044475, Note_on_c, 6, 78, 127
1, 1044475, Note_on_c, 2, 62, 127
1, 1044677, Note_off_c, 6, 78, 127
1, 1044682, Note_on_c, 4, 76, 127
1, 1044882, Note_off_c, 2, 62, 127
1, 1044884, Note_off_c, 4, 76, 127
1, 1044889, Note_on_c, 6, 78, 127
1, 1044889, Note_on_c, 2, 62, 127
1, 1044889, Note_on_c, 2, 50, 127
1, 1045091, Note_off_c, 6, 78, 127
1, 1045095, Note_on_c, 2, 74, 127
1, 1045296, Note_off_c, 2, 50, 127
1, 1045297, Note_off_c, 2, 74, 127
1, 1045302, Note_on_c, 10, 69, 127
1, 1045302, Note_on_c, 0, 60, 127
1, 1045504, Note_off_c, 10, 69, 127
1, 1045509, Note_on_c, 2, 74, 127
1, 1045709, Note_off_c, 0, 60, 127
1, 1045711, Note_off_c, 2, 74, 127
1, 1045715, Note_on_c, 7, 79, 127
1, 1045715, Note_on_c, 12, 59, 127
1, 1045917, Note_off_c, 7, 79, 127
1, 1045922, Note_on_c, 6, 78, 127
1, 1046115, Note_off_c, 2, 62, 127
1, 1046122, Note_off_c, 12, 59, 127
1, 1046124, Note_off_c, 6, 78, 127
1, 1046129, Note_on_c, 7, 79, 127
1, 1046129, Note_on_c, 12, 59, 127
1, 1046129, Note_on_c, 7, 55, 127
1, 1046331, Note_off_c, 7, 79, 127
1, 1046335, Note_on_c, 2, 74, 127
1, 1046536, Note_off_c, 7, 55, 127
1, 1046536, Note_off_c, 12, 59, 127
1, 1046537, Note_off_c, 2, 74, 127
1, 1046542, Note_on_c, 12, 71, 127
1, 1046542, Note_on_c, 7, 67, 127
1, 1046542, Note_on_c, 12, 59, 127
1, 1046744, Note_off_c, 12, 71, 127
1, 1046749, Note_on_c, 2, 74, 127
1, 1046949, Note_off_c, 12, 59, 127
1, 1046951, Note_off_c, 2, 74, 127
1, 1046956, Note_on_c, 4, 76, 127
1, 1046956, Note_on_c, 0, 60, 127
1, 1047158, Note_off_c, 4, 76, 127
1, 1047162, Note_on_c, 3, 75, 127
1, 1047358, Note_off_c, 7, 67, 127
1, 1047363, Note_off_c, 0, 60, 127
1, 1047364, Note_off_c, 3, 75, 127
1, 1047369, Note_on_c, 4, 76, 127
1, 1047369, Note_on_c, 7, 67, 127
1, 1047369, Note_on_c, 12, 59, 127
1, 1047571, Note_off_c, 4, 76, 127
1, 1047576, Note_on_c, 7, 79, 127
1, 1047776, Note_off_c, 12, 59, 127
1, 1047776, Note_off_c, 7, 67, 127
1, 1047778, Note_off_c, 7, 79, 127
1, 1047782, Note_on_c, 6, 78, 127
1, 1047782, Note_on_c, 0, 72, 127
1, 1047782, Note_on_c, 10, 57, 127
1, 1047984, Note_off_c, 6, 78, 127
1, 1047989, Note_on_c, 4, 76, 127
1, 1048189, Note_off_c, 10, 57, 127
1, 1048189, Note_off_c, 0, 72, 127
1, 1048191, Note_off_c, 4, 76, 127
1, 1048196, Note_on_c, 3, 75, 127
1, 1048196, Note_on_c, 6, 66, 127
1, 1048196, Note_on_c, 12, 59, 127
1, 1048398, Note_off_c, 3, 75, 127
1, 1048402, Note_on_c, 4, 76, 127
1, 1048603, Note_off_c, 12, 59, 127
1, 1048604, Note_off_c, 4, 76, 127
1, 1048609, Note_on_c, 6, 78, 127
1, 1048609, Note_on_c, 10, 57, 127
1, 1048811, Note_off_c, 10, 57, 127
1, 1048811, Note_off_c, 6, 78, 127
1, 1048816, Note_on_c, 3, 75, 127
1, 1048816, Note_on_c, 7, 55, 127
1, 1049018, Note_off_c, 7, 55, 127
1, 1049018, Note_off_c, 3, 75, 127
1, 1049023, Note_on_c, 12, 71, 127
1, 1049023, Note_on_c, 10, 57, 127
1, 1049225, Note_off_c, 10, 57, 127
1, 1049225, Note_off_c, 12, 71, 127
1, 1049229, Note_on_c, 3, 75, 127
1, 1049229, Note_on_c, 6, 54, 127
1, 1049422, Note_off_c, 6, 66, 127
1, 1049431, Note_off_c, 6, 54, 127
1, 1049431, Note_off_c, 3, 75, 127
1, 1049436, Note_on_c, 4, 76, 127
1, 1049436, Note_on_c, 12, 71, 127
1, 1049436, Note_on_c, 7, 55, 127
1, 1049638, Note_off_c, 12, 71, 127
1, 1049643, Note_on_c, 10, 69, 127
1, 1049843, Note_off_c, 7, 55, 127
1, 1049843, Note_off_c, 4, 76, 127
1, 1049845, Note_off_c, 10, 69, 127
1, 1049849, Note_on_c, 4, 76, 127
1, 1049849, Note_on_c, 12, 71, 127
1, 1049849, Note_on_c, 4, 52, 127
1, 1050051, Note_off_c, 12, 71, 127
1, 1050056, Note_on_c, 7, 67, 127
1, 1050256, Note_off_c, 4, 52, 127
1, 1050258, Note_off_c, 7, 67, 127
1, 1050263, Note_on_c, 4, 64, 127
1, 1050263, Note_on_c, 7, 55, 127
1, 1050465, Note_off_c, 4, 64, 127
1, 1050469, Note_on_c, 7, 67, 127
1, 1050670, Note_off_c, 7, 55, 127
1, 1050671, Note_off_c, 7, 67, 127
1, 1050676, Note_on_c, 0, 72, 127
1, 1050676, Note_on_c, 10, 57, 127
1, 1050878, Note_off_c, 0, 72, 127
1, 1050883, Note_on_c, 12, 71, 127
1, 1051075, Note_off_c, 4, 76, 127
1, 1051083, Note_off_c, 10, 57, 127
1, 1051085, Note_off_c, 12, 71, 127
1, 1051090, Note_on_c, 4, 76, 127
1, 1051090, Note_on_c, 0, 72, 127
1, 1051090, Note_on_c, 10, 45, 127
1, 1051292, Note_off_c, 0, 72, 127
1, 1051296, Note_on_c, 10, 69, 127
1, 1051497, Note_off_c, 10, 45, 127
1, 1051498, Note_off_c, 10, 69, 127
1, 1051503, Note_on_c, 6, 66, 127
1, 1051503, Note_on_c, 10, 57, 127
1, 1051705, Note_off_c, 6, 66, 127
1, 1051710, Note_on_c, 10, 69, 127
1, 1051910, Note_off_c, 10, 57, 127
1, 1051912, Note_off_c, 10, 69, 127
1, 1051916, Note_on_c, 12, 71, 127
1, 1051916, Note_on_c, 7, 55, 127
1, 1052118, Note_off_c, 7, 55, 127
1, 1052118, Note_off_c, 12, 71, 127
1, 1052123, Note_on_c, 10, 69, 127
1, 1052123, Note_on_c, 6, 54, 127
1, 1052316, Note_off_c, 4, 76, 127
1, 1052325, Note_off_c, 6, 54, 127
1, 1052325, Note_off_c, 10, 69, 127
1, 1052330, Note_on_c, 4, 76, 127
1, 1052330, Note_on_c, 12, 71, 127
1, 1052330, Note_on_c, 7, 55, 127
1, 1052532, Note_off_c, 7, 55, 127
1, 1052532, Note_off_c, 12, 71, 127
1, 1052536, Note_on_c, 0, 72, 127
1, 1052536, Note_on_c, 10, 57, 127
1, 1052737, Note_off_c, 4, 76, 127
1, 1052738, Note_off_c, 10, 57, 127
1, 1052738, Note_off_c, 0, 72, 127
1, 1052743, Note_on_c, 3, 75, 127
1, 1052743, Note_on_c, 12, 71, 127
1, 1052743, Note_on_c, 12, 59, 127
1, 1052945, Note_off_c, 12, 71, 127
1, 1052950, Note_on_c, 10, 69, 127
1, 1053150, Note_off_c, 12, 59, 127
1, 1053150, Note_off_c, 3, 75, 127
1, 1053152, Note_off_c, 10, 69, 127
1, 1053157, Note_on_c, 4, 76, 127
1, 1053157, Note_on_c, 7, 67, 127
1, 1053157, Note_on_c, 4, 52, 127
1, 1053359, Note_off_c, 7, 67, 127
1, 1053363, Note_on_c, 6, 66, 127
1, 1053564, Note_off_c, 4, 52, 127
1, 1053565, Note_off_c, 6, 66, 127
1, 1053570, Note_on_c, 7, 67, 127
1, 1053570, Note_on_c, 4, 64, 127
1, 1053772, Note_off_c, 7, 67, 127
1, 1053777, Note_on_c, 10, 69, 127
1, 1053977, Note_off_c, 4, 64, 127
1, 1053979, Note_off_c, 10, 69, 127
1, 1053983, Note_on_c, 12, 71, 127
1, 1053983, Note_on_c, 2, 62, 127
1, 1054185, Note_off_c, 12, 71, 127
1, 1054190, Note_on_c, 7, 67, 127
1, 1054390, Note_off_c, 2, 62, 127
1, 1054392, Note_off_c, 7, 67, 127
1, 1054397, Note_on_c, 4, 64, 127
1, 1054397, Note_on_c, 0, 60, 127
1, 1054599, Note_off_c, 0, 60, 127
1, 1054603, Note_on_c, 12, 59, 127
1, 1054792, Note_off_c, 4, 76, 127
1, 1054805, Note_off_c, 12, 59, 127
1, 1054810, Note_on_c, 4, 76, 127
1, 1054810, Note_on_c, 0, 60, 127
1, 1055012, Note_off_c, 0, 60, 127
1, 1055012, Note_off_c, 4, 76, 127
1, 1055017, Note_on_c, 0, 72, 127
1, 1055017, Note_on_c, 10, 57, 127
1, 1055219, Note_off_c, 10, 57, 127
1, 1055219, Note_off_c, 0, 72, 127
1, 1055224, Note_on_c, 10, 69, 127
1, 1055224, Note_on_c, 6, 54, 127
1, 1055426, Note_off_c, 6, 54, 127
1, 1055426, Note_off_c, 10, 69, 127
1, 1055430, Note_on_c, 0, 72, 127
1, 1055430, Note_on_c, 10, 57, 127
1, 1055623, Note_off_c, 4, 64, 127
1, 1055632, Note_off_c, 10, 57, 127
1, 1055632, Note_off_c, 0, 72, 127
1, 1055637, Note_on_c, 2, 74, 127
1, 1055637, Note_on_c, 12, 59, 127
1, 1055839, Note_off_c, 12, 59, 127
1, 1055844, Note_on_c, 10, 57, 127
1, 1056046, Note_off_c, 10, 57, 127
1, 1056050, Note_on_c, 2, 62, 127
1, 1056050, Note_on_c, 12, 59, 127
1, 1056252, Note_off_c, 12, 59, 127
1, 1056252, Note_off_c, 2, 62, 127
1, 1056257, Note_on_c, 7, 67, 127
1, 1056257, Note_on_c, 7, 55, 127
1, 1056459, Note_off_c, 7, 55, 127
1, 1056459, Note_off_c, 7, 67, 127
1, 1056464, Note_on_c, 12, 71, 127
1, 1056464, Note_on_c, 4, 52, 127
1, 1056666, Note_off_c, 4, 52, 127
1, 1056666, Note_off_c, 12, 71, 127
1, 1056670, Note_on_c, 7, 67, 127
1, 1056670, Note_on_c, 7, 55, 127
1, 1056872, Note_off_c, 7, 55, 127
1, 1056872, Note_off_c, 7, 67, 127
1, 1056877, Note_on_c, 4, 64, 127
1, 1056877, Note_on_c, 10, 57, 127
1, 1057079, Note_off_c, 10, 57, 127
1, 1057084, Note_on_c, 7, 55, 127
1, 1057272, Note_off_c, 2, 74, 127
1, 1057286, Note_off_c, 7, 55, 127
1, 1057291, Note_on_c, 0, 72, 127
1, 1057291, Note_on_c, 10, 57, 127
1, 1057493, Note_off_c, 10, 57, 127
1, 1057493, Note_off_c, 0, 72, 127
1, 1057497, Note_on_c, 12, 71, 127
1, 1057497, Note_on_c, 0, 60, 127
1, 1057699, Note_off_c, 0, 60, 127
1, 1057699, Note_off_c, 12, 71, 127
1, 1057704, Note_on_c, 0, 72, 127
1, 1057704, Note_on_c, 4, 52, 127
1, 1057906, Note_off_c, 4, 52, 127
1, 1057911, Note_on_c, 7, 55, 127
1, 1058103, Note_off_c, 4, 64, 127
1, 1058113, Note_off_c, 7, 55, 127
1, 1058117, Note_on_c, 2, 62, 127
1, 1058117, Note_on_c, 6, 54, 127
1, 1058319, Note_off_c, 6, 54, 127
1, 1058324, Note_on_c, 4, 52, 127
1, 1058520, Note_off_c, 0, 72, 127
1, 1058526, Note_off_c, 4, 52, 127
1, 1058531, Note_on_c, 2, 74, 127
1, 1058531, Note_on_c, 6, 54, 127
1, 1058733, Note_off_c, 6, 54, 127
1, 1058733, Note_off_c, 2, 74, 127
1, 1058737, Note_on_c, 0, 72, 127
1, 1058737, Note_on_c, 10, 57, 127
1, 1058939, Note_off_c, 10, 57, 127
1, 1058939, Note_off_c, 0, 72, 127
1, 1058944, Note_on_c, 12, 71, 127
1, 1058944, Note_on_c, 2, 50, 127
1, 1059146, Note_off_c, 2, 50, 127
1, 1059146, Note_off_c, 12, 71, 127
1, 1059151, Note_on_c, 10, 69, 127
1, 1059151, Note_on_c, 6, 54, 127
1, 1059343, Note_off_c, 2, 62, 127
1, 1059353, Note_off_c, 6, 54, 127
1, 1059353, Note_off_c, 10, 69, 127
1, 1059358, Note_on_c, 2, 74, 127
1, 1059358, Note_on_c, 7, 55, 127
1, 1059358, Note_on_c, 12, 47, 127
1, 1059560, Note_off_c, 2, 74, 127
1, 1059564, Note_on_c, 0, 72, 127
1, 1059765, Note_off_c, 12, 47, 127
1, 1059765, Note_off_c, 7, 55, 127
1, 1059766, Note_off_c, 0, 72, 127
1, 1059771, Note_on_c, 2, 74, 127
1, 1059771, Note_on_c, 7, 55, 127
1, 1059771, Note_on_c, 7, 43, 127
1, 1059973, Note_off_c, 2, 74, 127
1, 1059978, Note_on_c, 12, 71, 127
1, 1060178, Note_off_c, 7, 43, 127
1, 1060180, Note_off_c, 12, 71, 127
1, 1060184, Note_on_c, 7, 67, 127
1, 1060184, Note_on_c, 12, 47, 127
1, 1060386, Note_off_c, 7, 67, 127
1, 1060391, Note_on_c, 12, 71, 127
1, 1060591, Note_off_c, 12, 47, 127
1, 1060593, Note_off_c, 12, 71, 127
1, 1060598, Note_on_c, 4, 76, 127
1, 1060598, Note_on_c, 0, 48, 127
1, 1060800, Note_off_c, 4, 76, 127
1, 1060804, Note_on_c, 2, 74, 127
1, 1060995, Note_off_c, 7, 55, 127
1, 1061005, Note_off_c, 0, 48, 127
1, 1061006, Note_off_c, 2, 74, 127
1, 1061011, Note_on_c, 4, 76, 127
1, 1061011, Note_on_c, 0, 48, 127
1, 1061011, Note_on_c, 10, 45, 127
1, 1061213, Note_off_c, 4, 76, 127
1, 1061218, Note_on_c, 0, 72, 127
1, 1061418, Note_off_c, 10, 45, 127
1, 1061418, Note_off_c, 0, 48, 127
1, 1061420, Note_off_c, 0, 72, 127
1, 1061425, Note_on_c, 10, 69, 127
1, 1061425, Note_on_c, 0, 60, 127
1, 1061425, Note_on_c, 0, 48, 127
1, 1061627, Note_off_c, 10, 69, 127
1, 1061631, Note_on_c, 0, 72, 127
1, 1061832, Note_off_c, 0, 48, 127
1, 1061833, Note_off_c, 0, 72, 127
1, 1061838, Note_on_c, 6, 78, 127
1, 1061838, Note_on_c, 2, 50, 127
1, 1062040, Note_off_c, 6, 78, 127
1, 1062045, Note_on_c, 4, 76, 127
1, 1062241, Note_off_c, 0, 60, 127
1, 1062245, Note_off_c, 2, 50, 127
1, 1062247, Note_off_c, 4, 76, 127
1, 1062251, Note_on_c, 6, 78, 127
1, 1062251, Note_on_c, 10, 57, 127
1, 1062251, Note_on_c, 0, 48, 127
1, 1062453, Note_off_c, 6, 78, 127
1, 1062458, Note_on_c, 10, 81, 127
1, 1062658, Note_off_c, 0, 48, 127
1, 1062658, Note_off_c, 10, 57, 127
1, 1062660, Note_off_c, 10, 81, 127
1, 1062665, Note_on_c, 2, 74, 127
1, 1062665, Note_on_c, 0, 60, 127
1, 1062665, Note_on_c, 2, 50, 127
1, 1062871, Note_on_c, 6, 78, 127
1, 1062880, Note_off_c, 2, 74, 127
1, 1063072, Note_off_c, 2, 50, 127
1, 1063073, Note_off_c, 6, 78, 127
1, 1063078, Note_on_c, 7, 79, 127
1, 1063078, Note_on_c, 7, 55, 127
1, 1063280, Note_off_c, 7, 79, 127
1, 1063285, Note_on_c, 6, 78, 127
1, 1063481, Note_off_c, 0, 60, 127
1, 1063487, Note_off_c, 6, 78, 127
1, 1063492, Note_on_c, 7, 79, 127
1, 1063492, Note_on_c, 12, 59, 127
1, 1063694, Note_off_c, 7, 79, 127
1, 1063698, Note_on_c, 2, 74, 127
1, 1063900, Note_off_c, 2, 74, 127
1, 1063910, Note_on_c, 12, 71, 127
1, 1064112, Note_off_c, 12, 71, 127
1, 1064134, Note_on_c, 7, 67, 127
1, 1064304, Note_off_c, 7, 55, 127
1, 1064308, Note_off_c, 12, 59, 127
1, 1064336, Note_off_c, 7, 67, 127
1, 1064350, Note_on_c, 7, 55, 127
1, 1064479, Note_on_c, 12, 71, 127
1, 1064603, Note_off_c, 7, 55, 127
1, 1064607, Note_on_c, 12, 59, 127
1, 1064732, Note_off_c, 12, 71, 127
1, 1064735, Note_on_c, 7, 67, 127
1, 1064860, Note_off_c, 12, 59, 127
1, 1064863, Note_on_c, 2, 62, 127
1, 1064984, Note_off_c, 2, 62, 127
1, 1064988, Note_off_c, 7, 67, 127
1, 1064992, Note_on_c, 2, 62, 127
1, 1065120, Note_on_c, 7, 67, 127
1, 1065245, Note_off_c, 2, 62, 127
1, 1065248, Note_on_c, 12, 59, 127
1, 1065373, Note_off_c, 7, 67, 127
1, 1065376, Note_on_c, 12, 71, 127
1, 1065501, Note_off_c, 12, 59, 127
1, 1065505, Note_on_c, 7, 55, 127
1, 1065629, Note_off_c, 12, 71, 127
1, 1065631, Note_off_c, 7, 55, 127
1, 1065633, Note_on_c, 6, 54, 127
1, 1065633, Note_on_c, 1, 73, 127
1, 1065759, Note_off_c, 6, 54, 127
1, 1065761, Note_on_c, 4, 52, 127
1, 1065886, Note_off_c, 1, 73, 127
1, 1065887, Note_off_c, 4, 52, 127
1, 1065889, Note_on_c, 6, 54, 127
1, 1066018, Note_on_c, 2, 74, 127
1, 1066142, Note_off_c, 6, 54, 127
1, 1066146, Note_on_c, 10, 57, 127
1, 1066271, Note_off_c, 2, 74, 127
1, 1066274, Note_on_c, 10, 69, 127
1, 1066399, Note_off_c, 10, 57, 127
1, 1066403, Note_on_c, 2, 62, 127
1, 1066527, Note_off_c, 10, 69, 127
1, 1066531, Note_on_c, 6, 66, 127
1, 1066652, Note_off_c, 6, 66, 127
1, 1066656, Note_off_c, 2, 62, 127
1, 1066659, Note_on_c, 6, 66, 127
1, 1066787, Note_on_c, 2, 62, 127
1, 1066912, Note_off_c, 6, 66, 127
1, 1066916, Note_on_c, 10, 69, 127
1, 1067040, Note_off_c, 2, 62, 127
1, 1067044, Note_on_c, 10, 57, 127
1, 1067169, Note_off_c, 10, 69, 127
1, 1067170, Note_off_c, 10, 57, 127
1, 1067172, Note_on_c, 2, 74, 127
1, 1067172, Note_on_c, 7, 55, 127
1, 1067298, Note_off_c, 7, 55, 127
1, 1067300, Note_on_c, 6, 54, 127
1, 1067425, Note_off_c, 2, 74, 127
1, 1067426, Note_off_c, 6, 54, 127
1, 1067429, Note_on_c, 4, 52, 127
1, 1067557, Note_on_c, 7, 67, 127
1, 1067682, Note_off_c, 4, 52, 127
1, 1067685, Note_on_c, 7, 55, 127
1, 1067810, Note_off_c, 7, 67, 127
1, 1067813, Note_on_c, 4, 64, 127
1, 1067938, Note_off_c, 7, 55, 127
1, 1067942, Note_on_c, 10, 57, 127
1, 1068066, Note_off_c, 4, 64, 127
1, 1068070, Note_on_c, 1, 61, 127
1, 1068191, Note_off_c, 1, 61, 127
1, 1068195, Note_off_c, 10, 57, 127
1, 1068198, Note_on_c, 1, 61, 127
1, 1068326, Note_on_c, 10, 57, 127
1, 1068451, Note_off_c, 1, 61, 127
1, 1068455, Note_on_c, 4, 64, 127
1, 1068579, Note_off_c, 10, 57, 127
1, 1068583, Note_on_c, 7, 55, 127
1, 1068708, Note_off_c, 4, 64, 127
1, 1068709, Note_off_c, 7, 55, 127
1, 1068711, Note_on_c, 6, 54, 127
1, 1068711, Note_on_c, 7, 67, 127
1, 1068837, Note_off_c, 6, 54, 127
1, 1068839, Note_on_c, 4, 52, 127
1, 1068964, Note_off_c, 7, 67, 127
1, 1068965, Note_off_c, 4, 52, 127
1, 1068968, Note_on_c, 2, 50, 127
1, 1069096, Note_on_c, 6, 66, 127
1, 1069221, Note_off_c, 2, 50, 127
1, 1069224, Note_on_c, 6, 54, 127
1, 1069349, Note_off_c, 6, 66, 127
1, 1069352, Note_on_c, 2, 62, 127
1, 1069477, Note_off_c, 6, 54, 127
1, 1069481, Note_on_c, 10, 57, 127
1, 1069602, Note_off_c, 10, 57, 127
1, 1069605, Note_off_c, 2, 62, 127
1, 1069609, Note_on_c, 10, 57, 127
1, 1069737, Note_on_c, 2, 62, 127
1, 1069862, Note_off_c, 10, 57, 127
1, 1069866, Note_on_c, 6, 54, 127
1, 1069990, Note_off_c, 2, 62, 127
1, 1069994, Note_on_c, 6, 66, 127
1, 1070119, Note_off_c, 6, 54, 127
1, 1070122, Note_on_c, 4, 52, 127
1, 1070247, Note_off_c, 6, 66, 127
1, 1070248, Note_off_c, 4, 52, 127
1, 1070250, Note_on_c, 10, 69, 127
1, 1070250, Note_on_c, 2, 50, 127
1, 1070376, Note_off_c, 2, 50, 127
1, 1070379, Note_on_c, 0, 48, 127
1, 1070503, Note_off_c, 10, 69, 127
1, 1070505, Note_off_c, 0, 48, 127
1, 1070507, Note_on_c, 12, 47, 127
1, 1070635, Note_on_c, 7, 67, 127
1, 1070760, Note_off_c, 12, 47, 127
1, 1070763, Note_on_c, 2, 50, 127
1, 1070888, Note_off_c, 7, 67, 127
1, 1070892, Note_on_c, 2, 62, 127
1, 1071016, Note_off_c, 2, 50, 127
1, 1071020, Note_on_c, 7, 55, 127
1, 1071145, Note_off_c, 2, 62, 127
1, 1071148, Note_on_c, 12, 59, 127
1, 1071269, Note_off_c, 12, 59, 127
1, 1071273, Note_off_c, 7, 55, 127
1, 1071276, Note_on_c, 12, 59, 127
1, 1071405, Note_on_c, 7, 55, 127
1, 1071529, Note_off_c, 12, 59, 127
1, 1071533, Note_on_c, 2, 62, 127
1, 1071658, Note_off_c, 7, 55, 127
1, 1071661, Note_on_c, 5, 53, 127
1, 1071786, Note_off_c, 2, 62, 127
1, 1071787, Note_off_c, 5, 53, 127
1, 1071789, Note_on_c, 4, 52, 127
1, 1071789, Note_on_c, 5, 65, 127
1, 1071915, Note_off_c, 4, 52, 127
1, 1071918, Note_on_c, 2, 50, 127
1, 1072042, Note_off_c, 5, 65, 127
1, 1072044, Note_off_c, 2, 50, 127
1, 1072046, Note_on_c, 0, 48, 127
1, 1072174, Note_on_c, 4, 64, 127
1, 1072299, Note_off_c, 0, 48, 127
1, 1072302, Note_on_c, 4, 52, 127
1, 1072427, Note_off_c, 4, 64, 127
1, 1072431, Note_on_c, 0, 60, 127
1, 1072555, Note_off_c, 4, 52, 127
1, 1072559, Note_on_c, 7, 55, 127
1, 1072680, Note_off_c, 7, 55, 127
1, 1072684, Note_off_c, 0, 60, 127
1, 1072687, Note_on_c, 7, 55, 127
1, 1072816, Note_on_c, 0, 60, 127
1, 1072940, Note_off_c, 7, 55, 127
1, 1072944, Note_on_c, 4, 52, 127
1, 1073069, Note_off_c, 0, 60, 127
1, 1073072, Note_on_c, 4, 64, 127
1, 1073197, Note_off_c, 4, 52, 127
1, 1073200, Note_on_c, 0, 48, 127
1, 1073325, Note_off_c, 4, 64, 127
1, 1073326, Note_off_c, 0, 48, 127
1, 1073329, Note_on_c, 7, 67, 127
1, 1073329, Note_on_c, 12, 47, 127
1, 1073455, Note_off_c, 12, 47, 127
1, 1073457, Note_on_c, 10, 45, 127
1, 1073582, Note_off_c, 7, 67, 127
1, 1073583, Note_off_c, 10, 45, 127
1, 1073585, Note_on_c, 2, 50, 127
1, 1073713, Note_on_c, 6, 66, 127
1, 1073838, Note_off_c, 2, 50, 127
1, 1073842, Note_on_c, 6, 54, 127
1, 1073966, Note_off_c, 6, 66, 127
1, 1073970, Note_on_c, 2, 62, 127
1, 1074095, Note_off_c, 6, 54, 127
1, 1074098, Note_on_c, 10, 57, 127
1, 1074219, Note_off_c, 10, 57, 127
1, 1074223, Note_off_c, 2, 62, 127
1, 1074226, Note_on_c, 10, 57, 127
1, 1074355, Note_on_c, 2, 62, 127
1, 1074479, Note_off_c, 10, 57, 127
1, 1074483, Note_on_c, 6, 54, 127
1, 1074608, Note_off_c, 2, 62, 127
1, 1074611, Note_on_c, 6, 66, 127
1, 1074736, Note_off_c, 6, 54, 127
1, 1074739, Note_on_c, 2, 50, 127
1, 1074864, Note_off_c, 6, 66, 127
1, 1074865, Note_off_c, 2, 50, 127
1, 1074868, Note_on_c, 0, 48, 127
1, 1074868, Note_on_c, 10, 69, 127
1, 1074994, Note_off_c, 0, 48, 127
1, 1074996, Note_on_c, 2, 50, 127
1, 1075121, Note_off_c, 10, 69, 127
1, 1075122, Note_off_c, 2, 50, 127
1, 1075124, Note_on_c, 7, 43, 127
1, 1075252, Note_on_c, 12, 71, 127
1, 1075377, Note_off_c, 7, 43, 127
1, 1075381, Note_on_c, 12, 47, 127
1, 1075505, Note_off_c, 12, 71, 127
1, 1075509, Note_on_c, 7, 67, 127
1, 1075634, Note_off_c, 12, 47, 127
1, 1075637, Note_on_c, 2, 50, 127
1, 1075762, Note_off_c, 7, 67, 127
1, 1075765, Note_on_c, 2, 62, 127
1, 1075890, Note_off_c, 2, 50, 127
1, 1075894, Note_on_c, 7, 55, 127
1, 1076018, Note_off_c, 2, 62, 127
1, 1076022, Note_on_c, 12, 59, 127
1, 1076147, Note_off_c, 7, 55, 127
1, 1076150, Note_on_c, 6, 54, 127
1, 1076275, Note_off_c, 12, 59, 127
1, 1076279, Note_on_c, 10, 57, 127
1, 1076403, Note_off_c, 6, 54, 127
1, 1076405, Note_off_c, 10, 57, 127
1, 1076407, Note_on_c, 0, 60, 127
1, 1076407, Note_on_c, 7, 55, 127
1, 1076533, Note_off_c, 7, 55, 127
1, 1076535, Note_on_c, 6, 54, 127
1, 1076660, Note_off_c, 0, 60, 127
1, 1076661, Note_off_c, 6, 54, 127
1, 1076662, Note_on_c, 12, 59, 127
1, 1076663, Note_on_c, 7, 55, 127
1, 1076749, Note_on_c, 10, 57, 127
1, 1076756, Note_off_c, 12, 59, 127
1, 1076835, Note_on_c, 12, 59, 127
1, 1076843, Note_off_c, 10, 57, 127
1, 1076921, Note_on_c, 0, 60, 127
1, 1076929, Note_off_c, 12, 59, 127
1, 1077007, Note_on_c, 12, 59, 127
1, 1077015, Note_off_c, 0, 60, 127
1, 1077044, Note_off_c, 7, 55, 127
1, 1077093, Note_on_c, 0, 60, 127
1, 1077101, Note_off_c, 12, 59, 127
1, 1077178, Note_on_c, 2, 62, 127
1, 1077178, Note_on_c, 12, 83, 127
1, 1077187, Note_off_c, 0, 60, 127
1, 1077264, Note_on_c, 0, 60, 127
1, 1077272, Note_off_c, 2, 62, 127
1, 1077350, Note_on_c, 2, 62, 127
1, 1077358, Note_off_c, 0, 60, 127
1, 1077436, Note_on_c, 4, 64, 127
1, 1077444, Note_off_c, 2, 62, 127
1, 1077522, Note_on_c, 2, 62, 127
1, 1077530, Note_off_c, 4, 64, 127
1, 1077608, Note_on_c, 4, 64, 127
1, 1077616, Note_off_c, 2, 62, 127
1, 1077694, Note_on_c, 6, 66, 127
1, 1077702, Note_off_c, 4, 64, 127
1, 1077779, Note_on_c, 4, 64, 127
1, 1077788, Note_off_c, 6, 66, 127
1, 1077817, Note_off_c, 12, 83, 127
1, 1077865, Note_on_c, 6, 66, 127
1, 1077873, Note_off_c, 4, 64, 127
1, 1077951, Note_on_c, 7, 67, 127
1, 1077951, Note_on_c, 4, 64, 127
1, 1077959, Note_off_c, 6, 66, 127
1, 1078037, Note_on_c, 6, 66, 127
1, 1078045, Note_off_c, 7, 67, 127
1, 1078123, Note_on_c, 7, 67, 127
1, 1078131, Note_off_c, 6, 66, 127
1, 1078205, Note_off_c, 4, 64, 127
1, 1078209, Note_on_c, 10, 69, 127
1, 1078209, Note_on_c, 6, 54, 127
1, 1078217, Note_off_c, 7, 67, 127
1, 1078295, Note_on_c, 7, 67, 127
1, 1078303, Note_off_c, 10, 69, 127
1, 1078381, Note_on_c, 10, 69, 127
1, 1078389, Note_off_c, 7, 67, 127
1, 1078466, Note_on_c, 12, 71, 127
1, 1078475, Note_off_c, 10, 69, 127
1, 1078552, Note_on_c, 10, 69, 127
1, 1078560, Note_off_c, 12, 71, 127
1, 1078590, Note_off_c, 6, 54, 127
1, 1078638, Note_on_c, 12, 71, 127
1, 1078646, Note_off_c, 10, 69, 127
1, 1078724, Note_on_c, 1, 73, 127
1, 1078724, Note_on_c, 10, 81, 127
1, 1078732, Note_off_c, 12, 71, 127
1, 1078810, Note_on_c, 12, 71, 127
1, 1078818, Note_off_c, 1, 73, 127
1, 1078896, Note_on_c, 1, 73, 127
1, 1078904, Note_off_c, 12, 71, 127
1, 1078982, Note_on_c, 2, 74, 127
1, 1078990, Note_off_c, 1, 73, 127
1, 1079067, Note_on_c, 1, 73, 127
1, 1079076, Note_off_c, 2, 74, 127
1, 1079153, Note_on_c, 2, 74, 127
1, 1079161, Note_off_c, 1, 73, 127
1, 1079239, Note_on_c, 4, 76, 127
1, 1079247, Note_off_c, 2, 74, 127
1, 1079325, Note_on_c, 2, 74, 127
1, 1079333, Note_off_c, 4, 76, 127
1, 1079363, Note_off_c, 10, 81, 127
1, 1079411, Note_on_c, 4, 76, 127
1, 1079419, Note_off_c, 2, 74, 127
1, 1079497, Note_on_c, 6, 78, 127
1, 1079497, Note_on_c, 2, 62, 127
1, 1079505, Note_off_c, 4, 76, 127
1, 1079583, Note_on_c, 4, 76, 127
1, 1079591, Note_off_c, 6, 78, 127
1, 1079668, Note_on_c, 6, 78, 127
1, 1079677, Note_off_c, 4, 76, 127
1, 1079751, Note_off_c, 2, 62, 127
1, 1079754, Note_on_c, 7, 79, 127
1, 1079754, Note_on_c, 12, 71, 127
1, 1079762, Note_off_c, 6, 78, 127
1, 1079840, Note_on_c, 0, 72, 127
1, 1079848, Note_off_c, 12, 71, 127
1, 1079926, Note_on_c, 12, 71, 127
1, 1079934, Note_off_c, 0, 72, 127
1, 1080012, Note_on_c, 10, 69, 127
1, 1080020, Note_off_c, 12, 71, 127
1, 1080098, Note_on_c, 12, 71, 127
1, 1080106, Note_off_c, 10, 69, 127
1, 1080135, Note_off_c, 7, 79, 127
1, 1080184, Note_on_c, 10, 69, 127
1, 1080192, Note_off_c, 12, 71, 127
1, 1080269, Note_on_c, 4, 52, 127
1, 1080269, Note_on_c, 7, 67, 127
1, 1080278, Note_off_c, 10, 69, 127
1, 1080355, Note_on_c, 10, 69, 127
1, 1080363, Note_off_c, 7, 67, 127
1, 1080441, Note_on_c, 7, 67, 127
1, 1080449, Note_off_c, 10, 69, 127
1, 1080527, Note_on_c, 6, 66, 127
1, 1080535, Note_off_c, 7, 67, 127
1, 1080613, Note_on_c, 7, 67, 127
1, 1080621, Note_off_c, 6, 66, 127
1, 1080699, Note_on_c, 6, 66, 127
1, 1080707, Note_off_c, 7, 67, 127
1, 1080785, Note_on_c, 4, 64, 127
1, 1080793, Note_off_c, 6, 66, 127
1, 1080870, Note_on_c, 6, 66, 127
1, 1080879, Note_off_c, 4, 64, 127
1, 1080908, Note_off_c, 4, 52, 127
1, 1080956, Note_on_c, 4, 64, 127
1, 1080964, Note_off_c, 6, 66, 127
1, 1081042, Note_on_c, 12, 71, 127
1, 1081042, Note_on_c, 2, 62, 127
1, 1081050, Note_off_c, 4, 64, 127
1, 1081128, Note_on_c, 4, 64, 127
1, 1081136, Note_off_c, 2, 62, 127
1, 1081214, Note_on_c, 2, 62, 127
1, 1081222, Note_off_c, 4, 64, 127
1, 1081296, Note_off_c, 12, 71, 127
1, 1081300, Note_on_c, 7, 79, 127
1, 1081300, Note_on_c, 1, 61, 127
1, 1081308, Note_off_c, 2, 62, 127
1, 1081386, Note_on_c, 2, 62, 127
1, 1081394, Note_off_c, 1, 61, 127
1, 1081471, Note_on_c, 1, 61, 127
1, 1081480, Note_off_c, 2, 62, 127
1, 1081557, Note_on_c, 12, 59, 127
1, 1081565, Note_off_c, 1, 61, 127
1, 1081643, Note_on_c, 1, 61, 127
1, 1081651, Note_off_c, 12, 59, 127
1, 1081681, Note_off_c, 7, 79, 127
1, 1081729, Note_on_c, 12, 59, 127
1, 1081737, Note_off_c, 1, 61, 127
1, 1081815, Note_on_c, 1, 49, 127
1, 1081815, Note_on_c, 10, 57, 127
1, 1081823, Note_off_c, 12, 59, 127
1, 1081901, Note_on_c, 12, 59, 127
1, 1081909, Note_off_c, 10, 57, 127
1, 1081987, Note_on_c, 10, 57, 127
1, 1081995, Note_off_c, 12, 59, 127
1, 1082072, Note_on_c, 7, 55, 127
1, 1082081, Note_off_c, 10, 57, 127
1, 1082158, Note_on_c, 10, 57, 127
1, 1082166, Note_off_c, 7, 55, 127
1, 1082244, Note_on_c, 7, 55, 127
1, 1082252, Note_off_c, 10, 57, 127
1, 1082330, Note_on_c, 6, 54, 127
1, 1082338, Note_off_c, 7, 55, 127
1, 1082416, Note_on_c, 7, 55, 127
1, 1082424, Note_off_c, 6, 54, 127
1, 1082454, Note_off_c, 1, 49, 127
1, 1082502, Note_on_c, 6, 54, 127
1, 1082510, Note_off_c, 7, 55, 127
1, 1082588, Note_on_c, 7, 79, 127
1, 1082588, Note_on_c, 4, 52, 127
1, 1082596, Note_off_c, 6, 54, 127
1, 1082674, Note_on_c, 6, 54, 127
1, 1082682, Note_off_c, 4, 52, 127
1, 1082759, Note_on_c, 4, 52, 127
1, 1082768, Note_off_c, 6, 54, 127
1, 1082842, Note_off_c, 7, 79, 127
1, 1082845, Note_on_c, 6, 78, 127
1, 1082845, Note_on_c, 2, 50, 127
1, 1082853, Note_off_c, 4, 52, 127
1, 1082931, Note_on_c, 10, 81, 127
1, 1083017, Note_on_c, 2, 74, 127
1, 1083025, Note_off_c, 10, 81, 127
1, 1083059, Note_off_c, 6, 78, 127
1, 1083099, Note_off_c, 2, 50, 127
1, 1083103, Note_on_c, 4, 76, 127
1, 1083103, Note_on_c, 10, 57, 127
1, 1083111, Note_off_c, 2, 74, 127
1, 1083189, Note_on_c, 7, 79, 127
1, 1083275, Note_on_c, 1, 73, 127
1, 1083283, Note_off_c, 7, 79, 127
1, 1083317, Note_off_c, 4, 76, 127
1, 1083357, Note_off_c, 10, 57, 127
1, 1083360, Note_on_c, 2, 74, 127
1, 1083360, Note_on_c, 6, 66, 127
1, 1083369, Note_off_c, 1, 73, 127
1, 1083446, Note_on_c, 6, 78, 127
1, 1083532, Note_on_c, 12, 71, 127
1, 1083540, Note_off_c, 6, 78, 127
1, 1083574, Note_off_c, 2, 74, 127
1, 1083614, Note_off_c, 6, 66, 127
1, 1083618, Note_on_c, 0, 72, 127
1, 1083618, Note_on_c, 10, 57, 127
1, 1083626, Note_off_c, 12, 71, 127
1, 1083704, Note_on_c, 4, 76, 127
1, 1083790, Note_on_c, 10, 69, 127
1, 1083798, Note_off_c, 4, 76, 127
1, 1083832, Note_off_c, 0, 72, 127
1, 1083872, Note_off_c, 10, 57, 127
1, 1083876, Note_on_c, 12, 71, 127
1, 1083876, Note_on_c, 2, 50, 127
1, 1083884, Note_off_c, 10, 69, 127
1, 1083961, Note_on_c, 2, 74, 127
1, 1084047, Note_on_c, 7, 67, 127
1, 1084055, Note_off_c, 2, 74, 127
1, 1084090, Note_off_c, 12, 71, 127
1, 1084133, Note_on_c, 10, 69, 127
1, 1084133, Note_on_c, 0, 60, 127
1, 1084141, Note_off_c, 7, 67, 127
1, 1084219, Note_on_c, 0, 72, 127
1, 1084305, Note_on_c, 6, 66, 127
1, 1084313, Note_off_c, 0, 72, 127
1, 1084347, Note_off_c, 10, 69, 127
1, 1084385, Note_off_c, 2, 50, 127
1, 1084387, Note_off_c, 0, 60, 127
1, 1084391, Note_on_c, 7, 67, 127
1, 1084391, Note_on_c, 12, 59, 127
1, 1084399, Note_off_c, 6, 66, 127
1, 1084477, Note_on_c, 7, 55, 127
1, 1084562, Note_on_c, 2, 62, 127
1, 1084571, Note_off_c, 7, 55, 127
1, 1084645, Note_off_c, 12, 59, 127
1, 1084645, Note_off_c, 7, 67, 127
1, 1084648, Note_on_c, 7, 55, 127
1, 1084648, Note_on_c, 1, 61, 127
1, 1084656, Note_off_c, 2, 62, 127
1, 1084734, Note_on_c, 10, 57, 127
1, 1084820, Note_on_c, 4, 64, 127
1, 1084828, Note_off_c, 10, 57, 127
1, 1084902, Note_off_c, 1, 61, 127
1, 1084902, Note_off_c, 7, 55, 127
1, 1084906, Note_on_c, 6, 54, 127
1, 1084906, Note_on_c, 2, 62, 127
1, 1084914, Note_off_c, 4, 64, 127
1, 1084992, Note_on_c, 12, 59, 127
1, 1085078, Note_on_c, 6, 66, 127
1, 1085086, Note_off_c, 12, 59, 127
1, 1085160, Note_off_c, 2, 62, 127
1, 1085160, Note_off_c, 6, 54, 127
1, 1085163, Note_on_c, 10, 57, 127
1, 1085163, Note_on_c, 4, 64, 127
1, 1085172, Note_off_c, 6, 66, 127
1, 1085249, Note_on_c, 1, 61, 127
1, 1085335, Note_on_c, 7, 67, 127
1, 1085343, Note_off_c, 1, 61, 127
1, 1085417, Note_off_c, 4, 64, 127
1, 1085421, Note_on_c, 2, 50, 127
1, 1085421, Note_on_c, 6, 66, 127
1, 1085422, Note_off_c, 10, 57, 127
1, 1085429, Note_off_c, 7, 67, 127
1, 1085507, Note_on_c, 2, 62, 127
1, 1085593, Note_on_c, 10, 69, 127
1, 1085601, Note_off_c, 2, 62, 127
1, 1085675, Note_off_c, 6, 66, 127
1, 1085675, Note_off_c, 2, 50, 127
1, 1085679, Note_on_c, 2, 62, 127
1, 1085679, Note_on_c, 7, 67, 127
1, 1085687, Note_off_c, 10, 69, 127
1, 1085764, Note_on_c, 4, 64, 127
1, 1085850, Note_on_c, 12, 71, 127
1, 1085858, Note_off_c, 4, 64, 127
1, 1085933, Note_off_c, 7, 67, 127
1, 1085933, Note_off_c, 2, 62, 127
1, 1085936, Note_on_c, 1, 61, 127
1, 1085936, Note_on_c, 10, 69, 127
1, 1085944, Note_off_c, 12, 71, 127
1, 1086022, Note_on_c, 10, 57, 127
1, 1086030, Note_off_c, 1, 61, 127
1, 1086108, Note_on_c, 12, 59, 127
1, 1086116, Note_off_c, 10, 57, 127
1, 1086194, Note_on_c, 1, 61, 127
1, 1086202, Note_off_c, 12, 59, 127
1, 1086277, Note_off_c, 10, 69, 127
1, 1086280, Note_on_c, 2, 62, 127
1, 1086280, Note_on_c, 12, 71, 127
1, 1086288, Note_off_c, 1, 61, 127
1, 1086365, Note_on_c, 4, 64, 127
1, 1086365, Note_on_c, 1, 73, 127
1, 1086374, Note_off_c, 12, 71, 127
1, 1086374, Note_off_c, 2, 62, 127
1, 1086451, Note_on_c, 6, 66, 127
1, 1086451, Note_on_c, 2, 74, 127
1, 1086459, Note_off_c, 1, 73, 127
1, 1086459, Note_off_c, 4, 64, 127
1, 1086537, Note_on_c, 1, 73, 127
1, 1086545, Note_off_c, 2, 74, 127
1, 1086623, Note_on_c, 12, 71, 127
1, 1086631, Note_off_c, 1, 73, 127
1, 1086709, Note_on_c, 10, 69, 127
1, 1086717, Note_off_c, 12, 71, 127
1, 1086792, Note_off_c, 6, 66, 127
1, 1086795, Note_on_c, 4, 64, 127
1, 1086881, Note_on_c, 2, 62, 127
1, 1086889, Note_off_c, 4, 64, 127
1, 1086967, Note_on_c, 12, 71, 127
1, 1086975, Note_off_c, 2, 62, 127
1, 1087050, Note_off_c, 10, 69, 127
1, 1087052, Note_on_c, 7, 67, 127
1, 1087135, Note_off_c, 12, 71, 127
1, 1087137, Note_on_c, 2, 74, 127
1, 1087137, Note_on_c, 6, 66, 127
1, 1087145, Note_off_c, 7, 67, 127
1, 1087223, Note_on_c, 1, 73, 127
1, 1087223, Note_on_c, 4, 64, 127
1, 1087231, Note_off_c, 6, 66, 127
1, 1087231, Note_off_c, 2, 74, 127
1, 1087309, Note_on_c, 12, 71, 127
1, 1087309, Note_on_c, 6, 66, 127
1, 1087317, Note_off_c, 4, 64, 127
1, 1087317, Note_off_c, 1, 73, 127
1, 1087395, Note_on_c, 1, 73, 127
1, 1087395, Note_on_c, 7, 67, 127
1, 1087403, Note_off_c, 6, 66, 127
1, 1087403, Note_off_c, 12, 71, 127
1, 1087481, Note_on_c, 2, 74, 127
1, 1087481, Note_on_c, 6, 66, 127
1, 1087489, Note_off_c, 7, 67, 127
1, 1087489, Note_off_c, 1, 73, 127
1, 1087566, Note_on_c, 10, 69, 127
1, 1087575, Note_off_c, 2, 74, 127
1, 1087651, Note_off_c, 6, 66, 127
1, 1087652, Note_on_c, 6, 66, 127
1, 1087660, Note_off_c, 10, 69, 127
1, 1087738, Note_on_c, 2, 62, 127
1, 1087824, Note_on_c, 10, 57, 127
1, 1087832, Note_off_c, 2, 62, 127
1, 1087910, Note_on_c, 6, 54, 127
1, 1087918, Note_off_c, 10, 57, 127
1, 1087996, Note_on_c, 2, 50, 127
1, 1088004, Note_off_c, 6, 54, 127
1, 1088026, Note_off_c, 6, 66, 127
1, 1088082, Note_on_c, 6, 66, 127
1, 1088090, Note_off_c, 2, 50, 127
1, 1088167, Note_on_c, 10, 69, 127
1, 1088176, Note_off_c, 6, 66, 127
1, 1088253, Note_on_c, 2, 74, 127
1, 1088261, Note_off_c, 10, 69, 127
1, 1088339, Note_on_c, 6, 78, 127
1, 1088347, Note_off_c, 2, 74, 127
1, 1088425, Note_on_c, 10, 81, 127
1, 1088433, Note_off_c, 6, 78, 127
1, 1088511, Note_on_c, 2, 86, 127
1, 1088519, Note_off_c, 10, 81, 127
1, 1088958, Note_off_c, 2, 86, 127
1, 1089031, Note_on_c, 2, 50, 127
1, 1089170, Note_on_c, 10, 81, 127
1, 1089284, Note_off_c, 2, 50, 127
1, 1089299, Note_on_c, 2, 38, 127
1, 1089423, Note_off_c, 10, 81, 127
1, 1089427, Note_on_c, 6, 78, 127
1, 1089552, Note_off_c, 2, 38, 127
1, 1089555, Note_on_c, 6, 42, 127
1, 1089680, Note_off_c, 6, 78, 127
1, 1089683, Note_on_c, 2, 74, 127
1, 1089808, Note_off_c, 6, 42, 127
1, 1089812, Note_on_c, 10, 45, 127
1, 1089936, Note_off_c, 2, 74, 127
1, 1089940, Note_on_c, 10, 69, 127
1, 1090065, Note_off_c, 10, 45, 127
1, 1090068, Note_on_c, 2, 50, 127
1, 1090193, Note_off_c, 10, 69, 127
1, 1090196, Note_on_c, 6, 66, 127
1, 1090321, Note_off_c, 2, 50, 127
1, 1090325, Note_on_c, 6, 54, 127
1, 1090449, Note_off_c, 6, 66, 127
1, 1090453, Note_on_c, 2, 62, 127
1, 1090578, Note_off_c, 6, 54, 127
1, 1090581, Note_on_c, 7, 55, 127
1, 1090706, Note_off_c, 2, 62, 127
1, 1090709, Note_on_c, 12, 59, 127
1, 1090830, Note_off_c, 12, 59, 127
1, 1090834, Note_off_c, 7, 55, 127
1, 1090838, Note_on_c, 12, 59, 127
1, 1090966, Note_on_c, 7, 55, 127
1, 1091091, Note_off_c, 12, 59, 127
1, 1091094, Note_on_c, 2, 62, 127
1, 1091219, Note_off_c, 7, 55, 127
1, 1091223, Note_on_c, 2, 50, 127
1, 1091347, Note_off_c, 2, 62, 127
1, 1091351, Note_on_c, 7, 67, 127
1, 1091476, Note_off_c, 2, 50, 127
1, 1091479, Note_on_c, 12, 47, 127
1, 1091604, Note_off_c, 7, 67, 127
1, 1091607, Note_on_c, 12, 71, 127
1, 1091732, Note_off_c, 12, 47, 127
1, 1091736, Note_on_c, 7, 43, 127
1, 1091862, Note_off_c, 7, 43, 127
1, 1091864, Note_on_c, 10, 45, 127
1, 1091990, Note_off_c, 10, 45, 127
1, 1091992, Note_on_c, 12, 47, 127
1, 1092118, Note_off_c, 12, 47, 127
1, 1092120, Note_on_c, 0, 48, 127
1, 1092201, Note_off_c, 12, 71, 127
1, 1092206, Note_on_c, 4, 64, 127
1, 1092292, Note_on_c, 3, 63, 127
1, 1092300, Note_off_c, 4, 64, 127
1, 1092374, Note_off_c, 0, 48, 127
1, 1092378, Note_on_c, 4, 64, 127
1, 1092378, Note_on_c, 7, 55, 127
1, 1092386, Note_off_c, 3, 63, 127
1, 1092464, Note_on_c, 6, 66, 127
1, 1092472, Note_off_c, 4, 64, 127
1, 1092550, Note_on_c, 7, 67, 127
1, 1092558, Note_off_c, 6, 66, 127
1, 1092632, Note_off_c, 7, 55, 127
1, 1092635, Note_on_c, 10, 69, 127
1, 1092635, Note_on_c, 0, 60, 127
1, 1092644, Note_off_c, 7, 67, 127
1, 1092721, Note_on_c, 7, 67, 127
1, 1092729, Note_off_c, 10, 69, 127
1, 1092807, Note_on_c, 6, 66, 127
1, 1092815, Note_off_c, 7, 67, 127
1, 1092889, Note_off_c, 0, 60, 127
1, 1092893, Note_on_c, 7, 67, 127
1, 1092893, Note_on_c, 4, 64, 127
1, 1092901, Note_off_c, 6, 66, 127
1, 1092979, Note_on_c, 10, 69, 127
1, 1092987, Note_off_c, 7, 67, 127
1, 1093065, Note_on_c, 12, 71, 127
1, 1093073, Note_off_c, 10, 69, 127
1, 1093147, Note_off_c, 4, 64, 127
1, 1093151, Note_on_c, 0, 72, 127
1, 1093151, Note_on_c, 10, 57, 127
1, 1093159, Note_off_c, 12, 71, 127
1, 1093237, Note_on_c, 12, 71, 127
1, 1093245, Note_off_c, 0, 72, 127
1, 1093322, Note_on_c, 10, 69, 127
1, 1093331, Note_off_c, 12, 71, 127
1, 1093405, Note_off_c, 10, 57, 127
1, 1093408, Note_on_c, 7, 67, 127
1, 1093408, Note_on_c, 0, 72, 127
1, 1093416, Note_off_c, 10, 69, 127
1, 1093494, Note_on_c, 6, 66, 127
1, 1093502, Note_off_c, 7, 67, 127
1, 1093580, Note_on_c, 4, 64, 127
1, 1093588, Note_off_c, 6, 66, 127
1, 1093666, Note_on_c, 3, 63, 127
1, 1093674, Note_off_c, 4, 64, 127
1, 1093749, Note_off_c, 0, 72, 127
1, 1093752, Note_on_c, 12, 71, 127
1, 1093838, Note_on_c, 11, 70, 127
1, 1093846, Note_off_c, 12, 71, 127
1, 1093923, Note_on_c, 12, 71, 127
1, 1093932, Note_off_c, 11, 70, 127
1, 1094007, Note_off_c, 3, 63, 127
1, 1094009, Note_on_c, 4, 64, 127
1, 1094009, Note_on_c, 1, 73, 127
1, 1094017, Note_off_c, 12, 71, 127
1, 1094095, Note_on_c, 6, 66, 127
1, 1094095, Note_on_c, 3, 75, 127
1, 1094103, Note_off_c, 1, 73, 127
1, 1094103, Note_off_c, 4, 64, 127
1, 1094181, Note_on_c, 7, 67, 127
1, 1094181, Note_on_c, 4, 76, 127
1, 1094189, Note_off_c, 3, 75, 127
1, 1094189, Note_off_c, 6, 66, 127
1, 1094267, Note_on_c, 6, 66, 127
1, 1094267, Note_on_c, 3, 75, 127
1, 1094275, Note_off_c, 4, 76, 127
1, 1094275, Note_off_c, 7, 67, 127
1, 1094353, Note_on_c, 4, 64, 127
1, 1094353, Note_on_c, 1, 73, 127
1, 1094361, Note_off_c, 3, 75, 127
1, 1094361, Note_off_c, 6, 66, 127
1, 1094439, Note_on_c, 6, 66, 127
1, 1094439, Note_on_c, 3, 75, 127
1, 1094447, Note_off_c, 1, 73, 127
1, 1094447, Note_off_c, 4, 64, 127
1, 1094524, Note_on_c, 7, 67, 127
1, 1094524, Note_on_c, 4, 76, 127
1, 1094533, Note_off_c, 3, 75, 127
1, 1094533, Note_off_c, 6, 66, 127
1, 1094610, Note_on_c, 10, 69, 127
1, 1094610, Note_on_c, 6, 78, 127
1, 1094618, Note_off_c, 4, 76, 127
1, 1094618, Note_off_c, 7, 67, 127
1, 1094696, Note_on_c, 12, 59, 127
1, 1094696, Note_on_c, 7, 79, 127
1, 1094704, Note_off_c, 6, 78, 127
1, 1094704, Note_off_c, 10, 69, 127
1, 1094782, Note_on_c, 6, 78, 127
1, 1094790, Note_off_c, 7, 79, 127
1, 1094868, Note_on_c, 4, 76, 127
1, 1094876, Note_off_c, 6, 78, 127
1, 1094950, Note_off_c, 12, 59, 127
1, 1094954, Note_on_c, 10, 57, 127
1, 1094954, Note_on_c, 6, 78, 127
1, 1094962, Note_off_c, 4, 76, 127
1, 1095040, Note_on_c, 7, 79, 127
1, 1095048, Note_off_c, 6, 78, 127
1, 1095125, Note_on_c, 10, 81, 127
1, 1095134, Note_off_c, 7, 79, 127
1, 1095208, Note_off_c, 10, 57, 127
1, 1095211, Note_on_c, 7, 55, 127
1, 1095211, Note_on_c, 12, 83, 127
1, 1095219, Note_off_c, 10, 81, 127
1, 1095297, Note_on_c, 6, 54, 127
1, 1095297, Note_on_c, 10, 81, 127
1, 1095305, Note_off_c, 12, 83, 127
1, 1095305, Note_off_c, 7, 55, 127
1, 1095383, Note_on_c, 4, 52, 127
1, 1095383, Note_on_c, 7, 79, 127
1, 1095391, Note_off_c, 10, 81, 127
1, 1095391, Note_off_c, 6, 54, 127
1, 1095469, Note_on_c, 10, 81, 127
1, 1095477, Note_off_c, 7, 79, 127
1, 1095552, Note_off_c, 4, 52, 127
1, 1095555, Note_on_c, 3, 51, 127
1, 1095555, Note_on_c, 12, 83, 127
1, 1095563, Note_off_c, 10, 81, 127
1, 1095641, Note_on_c, 4, 52, 127
1, 1095641, Note_on_c, 0, 84, 127
1, 1095649, Note_off_c, 12, 83, 127
1, 1095649, Note_off_c, 3, 51, 127
1, 1095726, Note_on_c, 5, 53, 127
1, 1095726, Note_on_c, 3, 75, 127
1, 1095735, Note_off_c, 0, 84, 127
1, 1095735, Note_off_c, 4, 52, 127
1, 1095812, Note_on_c, 4, 52, 127
1, 1095820, Note_off_c, 5, 53, 127
1, 1095898, Note_on_c, 5, 53, 127
1, 1095906, Note_off_c, 4, 52, 127
1, 1095980, Note_off_c, 3, 75, 127
1, 1095984, Note_on_c, 6, 54, 127
1, 1095984, Note_on_c, 0, 84, 127
1, 1095992, Note_off_c, 5, 53, 127
1, 1096070, Note_on_c, 5, 53, 127
1, 1096078, Note_off_c, 6, 54, 127
1, 1096156, Note_on_c, 6, 54, 127
1, 1096164, Note_off_c, 5, 53, 127
1, 1096238, Note_off_c, 0, 84, 127
1, 1096242, Note_on_c, 7, 55, 127
1, 1096242, Note_on_c, 12, 83, 127
1, 1096250, Note_off_c, 6, 54, 127
1, 1096327, Note_on_c, 6, 54, 127
1, 1096336, Note_off_c, 7, 55, 127
1, 1096413, Note_on_c, 7, 55, 127
1, 1096421, Note_off_c, 6, 54, 127
1, 1096496, Note_off_c, 12, 83, 127
1, 1096499, Note_on_c, 8, 56, 127
1, 1096499, Note_on_c, 2, 74, 127
1, 1096507, Note_off_c, 7, 55, 127
1, 1096585, Note_on_c, 7, 55, 127
1, 1096593, Note_off_c, 8, 56, 127
1, 1096671, Note_on_c, 8, 56, 127
1, 1096679, Note_off_c, 7, 55, 127
1, 1096757, Note_on_c, 10, 57, 127
1, 1096765, Note_off_c, 8, 56, 127
1, 1096840, Note_off_c, 2, 74, 127
1, 1096843, Note_on_c, 1, 73, 127
1, 1096928, Note_on_c, 3, 75, 127
1, 1096937, Note_off_c, 1, 73, 127
1, 1097014, Note_on_c, 4, 76, 127
1, 1097022, Note_off_c, 3, 75, 127
1, 1097098, Note_off_c, 10, 57, 127
1, 1097100, Note_on_c, 11, 58, 127
1, 1097100, Note_on_c, 6, 78, 127
1, 1097108, Note_off_c, 4, 76, 127
1, 1097186, Note_on_c, 12, 59, 127
1, 1097186, Note_on_c, 7, 79, 127
1, 1097194, Note_off_c, 6, 78, 127
1, 1097194, Note_off_c, 11, 58, 127
1, 1097272, Note_on_c, 0, 60, 127
1, 1097272, Note_on_c, 11, 70, 127
1, 1097280, Note_off_c, 7, 79, 127
1, 1097280, Note_off_c, 12, 59, 127
1, 1097358, Note_on_c, 12, 59, 127
1, 1097366, Note_off_c, 0, 60, 127
1, 1097444, Note_on_c, 0, 60, 127
1, 1097452, Note_off_c, 12, 59, 127
1, 1097526, Note_off_c, 11, 70, 127
1, 1097530, Note_on_c, 1, 61, 127
1, 1097530, Note_on_c, 7, 79, 127
1, 1097538, Note_off_c, 0, 60, 127
1, 1097615, Note_on_c, 0, 60, 127
1, 1097624, Note_off_c, 1, 61, 127
1, 1097701, Note_on_c, 1, 61, 127
1, 1097709, Note_off_c, 0, 60, 127
1, 1097784, Note_off_c, 7, 79, 127
1, 1097787, Note_on_c, 2, 62, 127
1, 1097787, Note_on_c, 6, 78, 127
1, 1097795, Note_off_c, 1, 61, 127
1, 1097873, Note_on_c, 1, 61, 127
1, 1097881, Note_off_c, 2, 62, 127
1, 1097959, Note_on_c, 2, 62, 127
1, 1097967, Note_off_c, 1, 61, 127
1, 1098041, Note_off_c, 6, 78, 127
1, 1098045, Note_on_c, 3, 63, 127
1, 1098045, Note_on_c, 10, 69, 127
1, 1098053, Note_off_c, 2, 62, 127
1, 1098131, Note_on_c, 2, 62, 127
1, 1098139, Note_off_c, 3, 63, 127
1, 1098216, Note_on_c, 3, 63, 127
1, 1098225, Note_off_c, 2, 62, 127
1, 1098299, Note_off_c, 10, 69, 127
1, 1098302, Note_on_c, 4, 64, 127
1, 1098302, Note_on_c, 7, 67, 127
1, 1098310, Note_off_c, 3, 63, 127
1, 1098388, Note_on_c, 3, 63, 127
1, 1098396, Note_off_c, 4, 64, 127
1, 1098474, Note_on_c, 4, 64, 127
1, 1098482, Note_off_c, 3, 63, 127
1, 1098556, Note_off_c, 7, 67, 127
1, 1098560, Note_on_c, 6, 66, 127
1, 1098560, Note_on_c, 3, 63, 127
1, 1098568, Note_off_c, 4, 64, 127
1, 1098646, Note_on_c, 4, 64, 127
1, 1098654, Note_off_c, 6, 66, 127
1, 1098732, Note_on_c, 6, 66, 127
1, 1098740, Note_off_c, 4, 64, 127
1, 1098814, Note_off_c, 3, 63, 127
1, 1098817, Note_on_c, 7, 67, 127
1, 1098817, Note_on_c, 4, 64, 127
1, 1098826, Note_off_c, 6, 66, 127
1, 1098903, Note_on_c, 6, 66, 127
1, 1098911, Note_off_c, 7, 67, 127
1, 1098989, Note_on_c, 7, 67, 127
1, 1098997, Note_off_c, 6, 66, 127
1, 1099071, Note_off_c, 4, 64, 127
1, 1099075, Note_on_c, 10, 69, 127
1, 1099075, Note_on_c, 0, 60, 127
1, 1099083, Note_off_c, 7, 67, 127
1, 1099161, Note_on_c, 7, 67, 127
1, 1099169, Note_off_c, 10, 69, 127
1, 1099247, Note_on_c, 10, 69, 127
1, 1099255, Note_off_c, 7, 67, 127
1, 1099329, Note_off_c, 0, 60, 127
1, 1099333, Note_on_c, 12, 71, 127
1, 1099333, Note_on_c, 3, 51, 127
1, 1099341, Note_off_c, 10, 69, 127
1, 1099418, Note_on_c, 10, 69, 127
1, 1099427, Note_off_c, 12, 71, 127
1, 1099504, Note_on_c, 12, 71, 127
1, 1099512, Note_off_c, 10, 69, 127
1, 1099547, Note_off_c, 3, 51, 127
1, 1099590, Note_on_c, 0, 72, 127
1, 1099590, Note_on_c, 3, 75, 127
1, 1099598, Note_off_c, 12, 71, 127
1, 1099676, Note_on_c, 12, 71, 127
1, 1099684, Note_off_c, 0, 72, 127
1, 1099762, Note_on_c, 10, 69, 127
1, 1099770, Note_off_c, 12, 71, 127
1, 1099844, Note_off_c, 3, 75, 127
1, 1099848, Note_on_c, 7, 67, 127
1, 1099848, Note_on_c, 4, 76, 127
1, 1099856, Note_off_c, 10, 69, 127
1, 1099934, Note_on_c, 6, 66, 127
1, 1099942, Note_off_c, 7, 67, 127
1, 1100019, Note_on_c, 7, 67, 127
1, 1100028, Note_off_c, 6, 66, 127
1, 1100102, Note_off_c, 4, 76, 127
1, 1100105, Note_on_c, 10, 69, 127
1, 1100105, Note_on_c, 4, 64, 127
1, 1100113, Note_off_c, 7, 67, 127
1, 1100191, Note_on_c, 7, 67, 127
1, 1100199, Note_off_c, 10, 69, 127
1, 1100277, Note_on_c, 6, 66, 127
1, 1100285, Note_off_c, 7, 67, 127
1, 1100351, Note_off_c, 4, 64, 127
1, 1100363, Note_on_c, 4, 64, 127
1, 1100371, Note_off_c, 6, 66, 127
1, 1100449, Note_on_c, 7, 67, 127
1, 1100535, Note_on_c, 12, 71, 127
1, 1100543, Note_off_c, 7, 67, 127
1, 1100620, Note_on_c, 4, 76, 127
1, 1100629, Note_off_c, 12, 71, 127
1, 1100706, Note_on_c, 7, 79, 127
1, 1100714, Note_off_c, 4, 76, 127
1, 1100792, Note_on_c, 3, 75, 127
1, 1100800, Note_off_c, 7, 79, 127
1, 1100878, Note_on_c, 4, 76, 127
1, 1100886, Note_off_c, 3, 75, 127
1, 1100964, Note_on_c, 12, 71, 127
1, 1101002, Note_off_c, 4, 64, 127
1, 1101050, Note_on_c, 7, 67, 127
1, 1101132, Note_off_c, 4, 76, 127
1, 1101133, Note_off_c, 12, 71, 127
1, 1101136, Note_on_c, 2, 50, 127
1, 1101144, Note_off_c, 7, 67, 127
1, 1101221, Note_on_c, 8, 68, 127
1, 1101307, Note_on_c, 5, 77, 127
1, 1101390, Note_off_c, 8, 68, 127
1, 1101390, Note_off_c, 2, 50, 127
1, 1101393, Note_on_c, 0, 48, 127
1, 1101393, Note_on_c, 4, 76, 127
1, 1101401, Note_off_c, 5, 77, 127
1, 1101479, Note_on_c, 0, 72, 127
1, 1101565, Note_on_c, 10, 69, 127
1, 1101647, Note_off_c, 4, 76, 127
1, 1101647, Note_off_c, 0, 48, 127
1, 1101648, Note_off_c, 0, 72, 127
1, 1101651, Note_on_c, 4, 64, 127
1, 1101659, Note_off_c, 10, 69, 127
1, 1101737, Note_on_c, 2, 62, 127
1, 1101823, Note_on_c, 12, 71, 127
1, 1101905, Note_off_c, 4, 64, 127
1, 1101908, Note_on_c, 4, 64, 127
1, 1101991, Note_off_c, 2, 62, 127
1, 1101994, Note_on_c, 0, 60, 127
1, 1102077, Note_off_c, 12, 71, 127
1, 1102080, Note_on_c, 10, 69, 127
1, 1102162, Note_off_c, 4, 64, 127
1, 1102166, Note_on_c, 4, 64, 127
1, 1102248, Note_off_c, 0, 60, 127
1, 1102252, Note_on_c, 12, 59, 127
1, 1102334, Note_off_c, 10, 69, 127
1, 1102338, Note_on_c, 8, 68, 127
1, 1102420, Note_off_c, 4, 64, 127
1, 1102424, Note_on_c, 4, 64, 127
1, 1102506, Note_off_c, 12, 59, 127
1, 1102509, Note_on_c, 0, 60, 127
1, 1102592, Note_off_c, 8, 68, 127
1, 1102595, Note_on_c, 10, 69, 127
1, 1102678, Note_off_c, 4, 64, 127
1, 1102681, Note_on_c, 0, 48, 127
1, 1102763, Note_off_c, 0, 60, 127
1, 1102764, Note_off_c, 10, 69, 127
1, 1102767, Note_on_c, 6, 66, 127
1, 1102853, Note_on_c, 3, 75, 127
1, 1102935, Note_off_c, 0, 48, 127
1, 1102936, Note_off_c, 6, 66, 127
1, 1102939, Note_on_c, 12, 47, 127
1, 1102939, Note_on_c, 2, 74, 127
1, 1102947, Note_off_c, 3, 75, 127
1, 1103025, Note_on_c, 12, 71, 127
1, 1103110, Note_on_c, 7, 67, 127
1, 1103193, Note_off_c, 2, 74, 127
1, 1103193, Note_off_c, 12, 47, 127
1, 1103194, Note_off_c, 12, 71, 127
1, 1103196, Note_on_c, 2, 62, 127
1, 1103204, Note_off_c, 7, 67, 127
1, 1103282, Note_on_c, 0, 60, 127
1, 1103368, Note_on_c, 10, 69, 127
1, 1103450, Note_off_c, 2, 62, 127
1, 1103454, Note_on_c, 2, 62, 127
1, 1103536, Note_off_c, 0, 60, 127
1, 1103537, Note_off_c, 10, 69, 127
1, 1103540, Note_on_c, 12, 59, 127
1, 1103626, Note_on_c, 7, 67, 127
1, 1103708, Note_off_c, 2, 62, 127
1, 1103711, Note_on_c, 2, 62, 127
1, 1103794, Note_off_c, 12, 59, 127
1, 1103795, Note_off_c, 7, 67, 127
1, 1103797, Note_on_c, 10, 57, 127
1, 1103883, Note_on_c, 6, 66, 127
1, 1103965, Note_off_c, 2, 62, 127
1, 1103969, Note_on_c, 2, 62, 127
1, 1104051, Note_off_c, 10, 57, 127
1, 1104052, Note_off_c, 6, 66, 127
1, 1104055, Note_on_c, 12, 59, 127
1, 1104141, Note_on_c, 7, 67, 127
1, 1104223, Note_off_c, 2, 62, 127
1, 1104227, Note_on_c, 12, 47, 127
1, 1104309, Note_off_c, 12, 59, 127
1, 1104310, Note_off_c, 7, 67, 127
1, 1104312, Note_on_c, 4, 64, 127
1, 1104398, Note_on_c, 2, 74, 127
1, 1104481, Note_off_c, 4, 64, 127
1, 1104481, Note_off_c, 12, 47, 127
1, 1104484, Note_on_c, 10, 45, 127
1, 1104484, Note_on_c, 0, 72, 127
1, 1104492, Note_off_c, 2, 74, 127
1, 1104570, Note_on_c, 10, 69, 127
1, 1104656, Note_on_c, 4, 64, 127
1, 1104738, Note_off_c, 0, 72, 127
1, 1104739, Note_off_c, 10, 69, 127
1, 1104742, Note_on_c, 0, 60, 127
1, 1104750, Note_off_c, 4, 64, 127
1, 1104828, Note_on_c, 12, 59, 127
1, 1104913, Note_on_c, 7, 67, 127
1, 1104996, Note_off_c, 0, 60, 127
1, 1104999, Note_on_c, 0, 60, 127
1, 1105080, Note_off_c, 10, 45, 127
1, 1105082, Note_off_c, 12, 59, 127
1, 1105085, Note_on_c, 10, 57, 127
1, 1105166, Note_off_c, 7, 67, 127
1, 1105170, Note_on_c, 6, 66, 127
1, 1105252, Note_off_c, 0, 60, 127
1, 1105256, Note_on_c, 0, 60, 127
1, 1105338, Note_off_c, 10, 57, 127
1, 1105342, Note_on_c, 7, 55, 127
1, 1105424, Note_off_c, 6, 66, 127
1, 1105428, Note_on_c, 4, 64, 127
1, 1105510, Note_off_c, 0, 60, 127
1, 1105513, Note_on_c, 0, 60, 127
1, 1105596, Note_off_c, 7, 55, 127
1, 1105599, Note_on_c, 6, 54, 127
1, 1105682, Note_off_c, 4, 64, 127
1, 1105685, Note_on_c, 2, 62, 127
1, 1105767, Note_off_c, 0, 60, 127
1, 1105771, Note_on_c, 0, 72, 127
1, 1105853, Note_off_c, 6, 54, 127
1, 1105857, Note_on_c, 7, 55, 127
1, 1105939, Note_off_c, 2, 62, 127
1, 1105943, Note_on_c, 4, 64, 127
1, 1106025, Note_off_c, 0, 72, 127
1, 1106026, Note_off_c, 7, 55, 127
1, 1106029, Note_on_c, 2, 50, 127
1, 1106029, Note_on_c, 0, 72, 127
1, 1106037, Note_off_c, 4, 64, 127
1, 1106114, Note_on_c, 10, 69, 127
1, 1106200, Note_on_c, 6, 66, 127
1, 1106283, Note_off_c, 10, 69, 127
1, 1106283, Note_off_c, 0, 72, 127
1, 1106286, Note_on_c, 2, 62, 127
1, 1106294, Note_off_c, 6, 66, 127
1, 1106372, Note_on_c, 10, 57, 127
1, 1106458, Note_on_c, 6, 66, 127
1, 1106540, Note_off_c, 2, 62, 127
1, 1106544, Note_on_c, 2, 62, 127
1, 1106625, Note_off_c, 2, 50, 127
1, 1106626, Note_off_c, 10, 57, 127
1, 1106630, Note_on_c, 12, 59, 127
1, 1106711, Note_off_c, 6, 66, 127
1, 1106714, Note_on_c, 7, 67, 127
1, 1106797, Note_off_c, 2, 62, 127
1, 1106800, Note_on_c, 2, 62, 127
1, 1106883, Note_off_c, 12, 59, 127
1, 1106886, Note_on_c, 0, 60, 127
1, 1106968, Note_off_c, 7, 67, 127
1, 1106972, Note_on_c, 10, 69, 127
1, 1107054, Note_off_c, 2, 62, 127
1, 1107058, Note_on_c, 2, 62, 127
1, 1107140, Note_off_c, 0, 60, 127
1, 1107144, Note_on_c, 12, 59, 127
1, 1107226, Note_off_c, 10, 69, 127
1, 1107230, Note_on_c, 7, 67, 127
1, 1107312, Note_off_c, 2, 62, 127
1, 1107315, Note_on_c, 0, 72, 127
1, 1107398, Note_off_c, 12, 59, 127
1, 1107401, Note_on_c, 10, 57, 127
1, 1107484, Note_off_c, 7, 67, 127
1, 1107487, Note_on_c, 6, 66, 127
1, 1107569, Note_off_c, 0, 72, 127
1, 1107570, Note_off_c, 10, 57, 127
1, 1107573, Note_on_c, 7, 55, 127
1, 1107573, Note_on_c, 12, 71, 127
1, 1107581, Note_off_c, 6, 66, 127
1, 1107659, Note_on_c, 7, 67, 127
1, 1107745, Note_on_c, 2, 74, 127
1, 1107753, Note_off_c, 7, 67, 127
1, 1107827, Note_off_c, 12, 71, 127
1, 1107827, Note_off_c, 7, 55, 127
1, 1107831, Note_on_c, 7, 67, 127
1, 1107831, Note_on_c, 0, 72, 127
1, 1107839, Note_off_c, 2, 74, 127
1, 1107916, Note_on_c, 10, 69, 127
1, 1108002, Note_on_c, 4, 76, 127
1, 1108010, Note_off_c, 10, 69, 127
1, 1108085, Note_off_c, 0, 72, 127
1, 1108088, Note_on_c, 2, 74, 127
1, 1108096, Note_off_c, 4, 76, 127
1, 1108174, Note_on_c, 12, 71, 127
1, 1108257, Note_off_c, 7, 67, 127
1, 1108260, Note_on_c, 4, 64, 127
1, 1108268, Note_off_c, 12, 71, 127
1, 1108342, Note_off_c, 2, 74, 127
1, 1108346, Note_on_c, 5, 65, 127
1, 1108346, Note_on_c, 12, 59, 127
1, 1108354, Note_off_c, 4, 64, 127
1, 1108432, Note_on_c, 10, 69, 127
1, 1108517, Note_on_c, 2, 62, 127
1, 1108526, Note_off_c, 10, 69, 127
1, 1108600, Note_off_c, 12, 59, 127
1, 1108600, Note_off_c, 5, 65, 127
1, 1108603, Note_on_c, 4, 64, 127
1, 1108603, Note_on_c, 7, 55, 127
1, 1108611, Note_off_c, 2, 62, 127
1, 1108689, Note_on_c, 7, 67, 127
1, 1108775, Note_on_c, 0, 60, 127
1, 1108783, Note_off_c, 7, 67, 127
1, 1108817, Note_off_c, 7, 55, 127
1, 1108857, Note_off_c, 4, 64, 127
1, 1108861, Note_on_c, 2, 62, 127
1, 1108861, Note_on_c, 5, 77, 127
1, 1108869, Note_off_c, 0, 60, 127
1, 1108947, Note_on_c, 5, 65, 127
1, 1109033, Note_on_c, 12, 59, 127
1, 1109041, Note_off_c, 5, 65, 127
1, 1109115, Note_off_c, 5, 77, 127
1, 1109115, Note_off_c, 2, 62, 127
1, 1109118, Note_on_c, 0, 60, 127
1, 1109118, Note_on_c, 4, 76, 127
1, 1109127, Note_off_c, 12, 59, 127
1, 1109204, Note_on_c, 7, 55, 127
1, 1109204, Note_on_c, 7, 79, 127
1, 1109290, Note_on_c, 4, 64, 127
1, 1109290, Note_on_c, 0, 72, 127
1, 1109298, Note_off_c, 7, 79, 127
1, 1109298, Note_off_c, 7, 55, 127
1, 1109372, Note_off_c, 4, 76, 127
1, 1109372, Note_off_c, 0, 60, 127
1, 1109376, Note_on_c, 2, 62, 127
1, 1109376, Note_on_c, 2, 74, 127
1, 1109384, Note_off_c, 0, 72, 127
1, 1109384, Note_off_c, 4, 64, 127
1, 1109462, Note_on_c, 12, 59, 127
1, 1109462, Note_on_c, 5, 77, 127
1, 1109548, Note_on_c, 5, 65, 127
1, 1109548, Note_on_c, 12, 71, 127
1, 1109556, Note_off_c, 5, 77, 127
1, 1109556, Note_off_c, 12, 59, 127
1, 1109630, Note_off_c, 2, 74, 127
1, 1109630, Note_off_c, 2, 62, 127
1, 1109634, Note_on_c, 4, 64, 127
1, 1109634, Note_on_c, 0, 72, 127
1, 1109642, Note_off_c, 12, 71, 127
1, 1109642, Note_off_c, 5, 65, 127
1, 1109720, Note_on_c, 4, 76, 127
1, 1109805, Note_on_c, 10, 69, 127
1, 1109814, Note_off_c, 4, 76, 127
1, 1109888, Note_off_c, 0, 72, 127
1, 1109888, Note_off_c, 4, 64, 127
1, 1109891, Note_on_c, 7, 79, 127
1, 1109891, Note_on_c, 12, 71, 127
1, 1109899, Note_off_c, 10, 69, 127
1, 1109977, Note_on_c, 2, 74, 127
1, 1110063, Note_on_c, 7, 67, 127
1, 1110071, Note_off_c, 2, 74, 127
1, 1110145, Note_off_c, 12, 71, 127
1, 1110145, Note_off_c, 7, 79, 127
1, 1110149, Note_on_c, 0, 84, 127
1, 1110149, Note_on_c, 10, 69, 127
1, 1110157, Note_off_c, 7, 67, 127
1, 1110235, Note_on_c, 0, 72, 127
1, 1110321, Note_on_c, 6, 66, 127
1, 1110329, Note_off_c, 0, 72, 127
1, 1110403, Note_off_c, 10, 69, 127
1, 1110403, Note_off_c, 0, 84, 127
1, 1110406, Note_on_c, 4, 76, 127
1, 1110406, Note_on_c, 7, 67, 127
1, 1110415, Note_off_c, 6, 66, 127
1, 1110492, Note_on_c, 12, 71, 127
1, 1110578, Note_on_c, 4, 64, 127
1, 1110586, Note_off_c, 12, 71, 127
1, 1110660, Note_off_c, 7, 67, 127
1, 1110660, Note_off_c, 4, 76, 127
1, 1110664, Note_on_c, 2, 74, 127
1, 1110664, Note_on_c, 6, 66, 127
1, 1110672, Note_off_c, 4, 64, 127
1, 1110750, Note_on_c, 2, 62, 127
1, 1110833, Note_off_c, 6, 66, 127
1, 1110836, Note_on_c, 4, 64, 127
1, 1110844, Note_off_c, 2, 62, 127
1, 1110922, Note_on_c, 6, 66, 127
1, 1110930, Note_off_c, 4, 64, 127
1, 1111005, Note_off_c, 2, 74, 127
1, 1111007, Note_on_c, 4, 76, 127
1, 1111007, Note_on_c, 7, 67, 127
1, 1111016, Note_off_c, 6, 66, 127
1, 1111093, Note_on_c, 6, 78, 127
1, 1111093, Note_on_c, 10, 69, 127
1, 1111101, Note_off_c, 7, 67, 127
1, 1111101, Note_off_c, 4, 76, 127
1, 1111179, Note_on_c, 7, 79, 127
1, 1111179, Note_on_c, 12, 59, 127
1, 1111187, Note_off_c, 10, 69, 127
1, 1111187, Note_off_c, 6, 78, 127
1, 1111265, Note_on_c, 6, 78, 127
1, 1111273, Note_off_c, 7, 79, 127
1, 1111351, Note_on_c, 4, 76, 127
1, 1111359, Note_off_c, 6, 78, 127
1, 1111437, Note_on_c, 2, 74, 127
1, 1111445, Note_off_c, 4, 76, 127
1, 1111520, Note_off_c, 12, 59, 127
1, 1111523, Note_on_c, 10, 57, 127
1, 1111608, Note_on_c, 7, 55, 127
1, 1111617, Note_off_c, 10, 57, 127
1, 1111694, Note_on_c, 4, 64, 127
1, 1111702, Note_off_c, 7, 55, 127
1, 1111778, Note_off_c, 2, 74, 127
1, 1111780, Note_on_c, 0, 72, 127
1, 1111862, Note_off_c, 4, 64, 127
1, 1111865, Note_on_c, 12, 71, 127
1, 1111865, Note_on_c, 7, 67, 127
1, 1111873, Note_off_c, 0, 72, 127
1, 1111951, Note_on_c, 10, 69, 127
1, 1111951, Note_on_c, 6, 66, 127
1, 1111959, Note_off_c, 7, 67, 127
1, 1111959, Note_off_c, 12, 71, 127
1, 1112037, Note_on_c, 12, 71, 127
1, 1112037, Note_on_c, 4, 64, 127
1, 1112045, Note_off_c, 6, 66, 127
1, 1112045, Note_off_c, 10, 69, 127
1, 1112123, Note_on_c, 0, 72, 127
1, 1112123, Note_on_c, 6, 66, 127
1, 1112131, Note_off_c, 4, 64, 127
1, 1112131, Note_off_c, 12, 71, 127
1, 1112208, Note_on_c, 12, 71, 127
1, 1112208, Note_on_c, 7, 67, 127
1, 1112217, Note_off_c, 6, 66, 127
1, 1112217, Note_off_c, 0, 72, 127
1, 1112292, Note_off_c, 7, 67, 127
1, 1112294, Note_on_c, 2, 62, 127
1, 1112378, Note_off_c, 2, 62, 127
1, 1112380, Note_on_c, 12, 59, 127
1, 1112464, Note_off_c, 12, 59, 127
1, 1112466, Note_on_c, 7, 55, 127
1, 1112550, Note_off_c, 7, 55, 127
1, 1112552, Note_on_c, 2, 50, 127
1, 1112636, Note_off_c, 2, 50, 127
1, 1112638, Note_on_c, 12, 47, 127
1, 1112722, Note_off_c, 12, 47, 127
1, 1112724, Note_on_c, 7, 43, 127
1, 1112804, Note_off_c, 12, 71, 127
1, 1112808, Note_off_c, 7, 43, 127
1, 1112809, Note_on_c, 12, 59, 127
1, 1112891, Note_off_c, 12, 59, 127
1, 1112894, Note_on_c, 2, 62, 127
1, 1112978, Note_off_c, 2, 62, 127
1, 1113000, Note_on_c, 7, 67, 127
1, 1113084, Note_off_c, 7, 67, 127
1, 1113096, Note_on_c, 12, 71, 127
1, 1113180, Note_off_c, 12, 71, 127
1, 1113203, Note_on_c, 2, 74, 127
1, 1113287, Note_off_c, 2, 74, 127
1, 1113344, Note_on_c, 7, 79, 127
1, 1116344, Note_off_c, 7, 79, 127
1, 1116918, Note_on_c, 7, 43, 127
1, 1117216, Note_on_c, 11, 58, 127
1, 1117510, Note_off_c, 11, 58, 127
1, 1117514, Note_on_c, 0, 60, 127
1, 1117808, Note_off_c, 0, 60, 127
1, 1117811, Note_on_c, 2, 62, 127
1, 1118097, Note_off_c, 7, 43, 127
1, 1118105, Note_off_c, 2, 62, 127
1, 1118109, Note_on_c, 3, 63, 127
1, 1118109, Note_on_c, 7, 55, 127
1, 1118403, Note_off_c, 3, 63, 127
1, 1118407, Note_on_c, 2, 62, 127
1, 1118701, Note_off_c, 2, 62, 127
1, 1118705, Note_on_c, 0, 60, 127
1, 1118999, Note_off_c, 0, 60, 127
1, 1119003, Note_on_c, 11, 58, 127
1, 1119288, Note_off_c, 7, 55, 127
1, 1119297, Note_off_c, 11, 58, 127
1, 1119301, Note_on_c, 10, 57, 127
1, 1119301, Note_on_c, 6, 54, 127
1, 1119599, Note_on_c, 10, 69, 127
1, 1119890, Note_off_c, 10, 57, 127
1, 1119893, Note_off_c, 10, 69, 127
1, 1119897, Note_on_c, 11, 70, 127
1, 1119897, Note_on_c, 3, 63, 127
1, 1120191, Note_off_c, 11, 70, 127
1, 1120194, Note_on_c, 0, 72, 127
1, 1120480, Note_off_c, 6, 54, 127
1, 1120486, Note_off_c, 3, 63, 127
1, 1120488, Note_off_c, 0, 72, 127
1, 1120492, Note_on_c, 2, 74, 127
1, 1120492, Note_on_c, 10, 57, 127
1, 1120492, Note_on_c, 5, 53, 127
1, 1120786, Note_off_c, 2, 74, 127
1, 1120790, Note_on_c, 0, 72, 127
1, 1121081, Note_off_c, 10, 57, 127
1, 1121084, Note_off_c, 0, 72, 127
1, 1121088, Note_on_c, 11, 70, 127
1, 1121088, Note_on_c, 2, 62, 127
1, 1121382, Note_off_c, 11, 70, 127
1, 1121386, Note_on_c, 10, 69, 127
1, 1121671, Note_off_c, 5, 53, 127
1, 1121680, Note_off_c, 10, 69, 127
1, 1121684, Note_on_c, 7, 67, 127
1, 1121684, Note_on_c, 4, 52, 127
1, 1121972, Note_off_c, 2, 62, 127
1, 1121982, Note_on_c, 7, 55, 127
1, 1122273, Note_off_c, 7, 67, 127
1, 1122276, Note_off_c, 7, 55, 127
1, 1122279, Note_on_c, 2, 74, 127
1, 1122279, Note_on_c, 10, 57, 127
1, 1122573, Note_off_c, 10, 57, 127
1, 1122577, Note_on_c, 11, 58, 127
1, 1122863, Note_off_c, 4, 52, 127
1, 1122868, Note_off_c, 2, 74, 127
1, 1122871, Note_off_c, 11, 58, 127
1, 1122875, Note_on_c, 7, 67, 127
1, 1122875, Note_on_c, 0, 60, 127
1, 1122875, Note_on_c, 3, 51, 127
1, 1123169, Note_off_c, 0, 60, 127
1, 1123173, Note_on_c, 11, 58, 127
1, 1123464, Note_off_c, 7, 67, 127
1, 1123467, Note_off_c, 11, 58, 127
1, 1123471, Note_on_c, 0, 72, 127
1, 1123471, Note_on_c, 10, 57, 127
1, 1123765, Note_off_c, 10, 57, 127
1, 1123769, Note_on_c, 7, 55, 127
1, 1124054, Note_off_c, 3, 51, 127
1, 1124063, Note_off_c, 7, 55, 127
1, 1124067, Note_on_c, 10, 57, 127
1, 1124067, Note_on_c, 2, 50, 127
1, 1124355, Note_off_c, 0, 72, 127
1, 1124361, Note_off_c, 2, 50, 127
1, 1124364, Note_on_c, 6, 66, 127
1, 1124364, Note_on_c, 10, 45, 127
1, 1124656, Note_off_c, 10, 57, 127
1, 1124658, Note_off_c, 10, 45, 127
1, 1124658, Note_off_c, 6, 66, 127
1, 1124662, Note_on_c, 7, 67, 127
1, 1124662, Note_on_c, 11, 46, 127
1, 1124956, Note_off_c, 11, 46, 127
1, 1124956, Note_off_c, 7, 67, 127
1, 1124960, Note_on_c, 10, 69, 127
1, 1124960, Note_on_c, 0, 48, 127
1, 1125254, Note_off_c, 0, 48, 127
1, 1125254, Note_off_c, 10, 69, 127
1, 1125258, Note_on_c, 11, 70, 127
1, 1125258, Note_on_c, 2, 50, 127
1, 1125552, Note_off_c, 11, 70, 127
1, 1125556, Note_on_c, 10, 69, 127
1, 1125847, Note_off_c, 2, 50, 127
1, 1125850, Note_off_c, 10, 69, 127
1, 1125854, Note_on_c, 7, 67, 127
1, 1125854, Note_on_c, 10, 57, 127
1, 1125854, Note_on_c, 2, 38, 127
1, 1126148, Note_off_c, 7, 67, 127
1, 1126152, Note_on_c, 6, 66, 127
1, 1126443, Note_off_c, 2, 38, 127
1, 1126443, Note_off_c, 10, 57, 127
1, 1126446, Note_off_c, 6, 66, 127
1, 1126449, Note_on_c, 7, 67, 127
1, 1126449, Note_on_c, 11, 58, 127
1, 1126449, Note_on_c, 7, 43, 127
1, 1126743, Note_off_c, 7, 43, 127
1, 1126747, Note_on_c, 2, 50, 127
1, 1127038, Note_off_c, 11, 58, 127
1, 1127038, Note_off_c, 7, 67, 127
1, 1127041, Note_off_c, 2, 50, 127
1, 1127045, Note_on_c, 10, 57, 127
1, 1127045, Note_on_c, 4, 52, 127
1, 1127339, Note_off_c, 4, 52, 127
1, 1127343, Note_on_c, 6, 54, 127
1, 1127634, Note_off_c, 10, 57, 127
1, 1127637, Note_off_c, 6, 54, 127
1, 1127641, Note_on_c, 11, 58, 127
1, 1127641, Note_on_c, 7, 55, 127
1, 1127935, Note_off_c, 7, 55, 127
1, 1127939, Note_on_c, 5, 53, 127
1, 1128230, Note_off_c, 11, 58, 127
1, 1128233, Note_off_c, 5, 53, 127
1, 1128237, Note_on_c, 7, 67, 127
1, 1128237, Note_on_c, 12, 59, 127
1, 1128237, Note_on_c, 3, 51, 127
1, 1128531, Note_off_c, 3, 51, 127
1, 1128534, Note_on_c, 2, 50, 127
1, 1128826, Note_off_c, 12, 59, 127
1, 1128826, Note_off_c, 7, 67, 127
1, 1128828, Note_off_c, 2, 50, 127
1, 1128832, Note_on_c, 8, 68, 127
1, 1128832, Note_on_c, 0, 60, 127
1, 1128832, Note_on_c, 0, 48, 127
1, 1129126, Note_off_c, 0, 60, 127
1, 1129130, Note_on_c, 2, 62, 127
1, 1129421, Note_off_c, 0, 48, 127
1, 1129421, Note_off_c, 8, 68, 127
1, 1129424, Note_off_c, 2, 62, 127
1, 1129428, Note_on_c, 7, 67, 127
1, 1129428, Note_on_c, 3, 63, 127
1, 1129428, Note_on_c, 12, 47, 127
1, 1129722, Note_off_c, 3, 63, 127
1, 1129726, Note_on_c, 2, 62, 127
1, 1130017, Note_off_c, 12, 47, 127
1, 1130017, Note_off_c, 7, 67, 127
1, 1130020, Note_off_c, 2, 62, 127
1, 1130024, Note_on_c, 8, 68, 127
1, 1130024, Note_on_c, 0, 60, 127
1, 1130024, Note_on_c, 0, 48, 127
1, 1130318, Note_off_c, 0, 60, 127
1, 1130322, Note_on_c, 11, 58, 127
1, 1130613, Note_off_c, 0, 48, 127
1, 1130613, Note_off_c, 8, 68, 127
1, 1130616, Note_off_c, 11, 58, 127
1, 1130619, Note_on_c, 10, 69, 127
1, 1130619, Note_on_c, 10, 57, 127
1, 1130619, Note_on_c, 1, 49, 127
1, 1130913, Note_off_c, 10, 57, 127
1, 1130917, Note_on_c, 7, 55, 127
1, 1131208, Note_off_c, 1, 49, 127
1, 1131208, Note_off_c, 10, 69, 127
1, 1131211, Note_off_c, 7, 55, 127
1, 1131215, Note_on_c, 11, 70, 127
1, 1131215, Note_on_c, 6, 66, 127
1, 1131215, Note_on_c, 2, 50, 127
1, 1131509, Note_off_c, 11, 70, 127
1, 1131513, Note_on_c, 0, 72, 127
1, 1131804, Note_off_c, 2, 50, 127
1, 1131804, Note_off_c, 6, 66, 127
1, 1131807, Note_off_c, 0, 72, 127
1, 1131811, Note_on_c, 2, 74, 127
1, 1131811, Note_on_c, 11, 46, 127
1, 1132105, Note_off_c, 2, 74, 127
1, 1132109, Note_on_c, 0, 72, 127
1, 1132400, Note_off_c, 11, 46, 127
1, 1132403, Note_off_c, 0, 72, 127
1, 1132407, Note_on_c, 11, 70, 127
1, 1132407, Note_on_c, 0, 48, 127
1, 1132701, Note_off_c, 11, 70, 127
1, 1132704, Note_on_c, 10, 69, 127
1, 1132996, Note_off_c, 0, 48, 127
1, 1132998, Note_off_c, 10, 69, 127
1, 1133002, Note_on_c, 7, 67, 127
1, 1133002, Note_on_c, 2, 62, 127
1, 1133002, Note_on_c, 2, 50, 127
1, 1133296, Note_off_c, 7, 67, 127
1, 1133300, Note_on_c, 6, 66, 127
1, 1133591, Note_off_c, 2, 50, 127
1, 1133594, Note_off_c, 6, 66, 127
1, 1133598, Note_on_c, 3, 75, 127
1, 1133598, Note_on_c, 7, 55, 127
1, 1133886, Note_off_c, 2, 62, 127
1, 1133896, Note_on_c, 2, 62, 127
1, 1134187, Note_off_c, 3, 75, 127
1, 1134190, Note_off_c, 2, 62, 127
1, 1134194, Note_on_c, 0, 60, 127
1, 1134488, Note_off_c, 0, 60, 127
1, 1134492, Note_on_c, 11, 58, 127
1, 1134786, Note_off_c, 11, 58, 127
1, 1134790, Note_on_c, 0, 60, 127
1, 1135074, Note_off_c, 7, 55, 127
1, 1135084, Note_off_c, 0, 60, 127
1, 1135087, Note_on_c, 2, 62, 127
1, 1135087, Note_on_c, 6, 54, 127
1, 1135379, Note_off_c, 6, 54, 127
1, 1135379, Note_off_c, 2, 62, 127
1, 1135384, Note_on_c, 0, 72, 127
1, 1135384, Note_on_c, 4, 64, 127
1, 1135384, Note_on_c, 7, 55, 127
1, 1135678, Note_off_c, 7, 55, 127
1, 1135678, Note_off_c, 4, 64, 127
1, 1135682, Note_on_c, 6, 66, 127
1, 1135682, Note_on_c, 10, 57, 127
1, 1135976, Note_off_c, 10, 57, 127
1, 1135976, Note_off_c, 6, 66, 127
1, 1135980, Note_on_c, 7, 67, 127
1, 1135980, Note_on_c, 11, 58, 127
1, 1136268, Note_off_c, 0, 72, 127
1, 1136274, Note_off_c, 11, 58, 127
1, 1136278, Note_on_c, 0, 72, 127
1, 1136278, Note_on_c, 0, 60, 127
1, 1136569, Note_off_c, 7, 67, 127
1, 1136572, Note_off_c, 0, 60, 127
1, 1136572, Note_off_c, 0, 72, 127
1, 1136576, Note_on_c, 11, 70, 127
1, 1136576, Note_on_c, 6, 66, 127
1, 1136576, Note_on_c, 2, 62, 127
1, 1136870, Note_off_c, 11, 70, 127
1, 1136873, Note_on_c, 10, 69, 127
1, 1137165, Note_off_c, 2, 62, 127
1, 1137165, Note_off_c, 6, 66, 127
1, 1137167, Note_off_c, 10, 69, 127
1, 1137171, Note_on_c, 11, 70, 127
1, 1137171, Note_on_c, 7, 67, 127
1, 1137171, Note_on_c, 7, 55, 127
1, 1137465, Note_off_c, 7, 67, 127
1, 1137465, Note_off_c, 11, 70, 127
1, 1137469, Note_on_c, 0, 72, 127
1, 1137469, Note_on_c, 10, 69, 127
1, 1137760, Note_off_c, 7, 55, 127
1, 1137763, Note_off_c, 10, 69, 127
1, 1137763, Note_off_c, 0, 72, 127
1, 1137767, Note_on_c, 2, 74, 127
1, 1137767, Note_on_c, 11, 70, 127
1, 1137767, Note_on_c, 7, 67, 127
1, 1138061, Note_off_c, 2, 74, 127
1, 1138065, Note_on_c, 4, 76, 127
1, 1138356, Note_off_c, 7, 67, 127
1, 1138359, Note_off_c, 4, 76, 127
1, 1138363, Note_on_c, 5, 77, 127
1, 1138363, Note_on_c, 2, 62, 127
1, 1138651, Note_off_c, 11, 70, 127
1, 1138661, Note_on_c, 10, 69, 127
1, 1138952, Note_off_c, 5, 77, 127
1, 1138955, Note_off_c, 10, 69, 127
1, 1138958, Note_on_c, 4, 76, 127
1, 1138958, Note_on_c, 7, 67, 127
1, 1139252, Note_off_c, 7, 67, 127
1, 1139256, Note_on_c, 11, 70, 127
1, 1139547, Note_off_c, 4, 76, 127
1, 1139550, Note_off_c, 11, 70, 127
1, 1139554, Note_on_c, 5, 77, 127
1, 1139554, Note_on_c, 10, 69, 127
1, 1139848, Note_off_c, 10, 69, 127
1, 1139848, Note_off_c, 5, 77, 127
1, 1139852, Note_on_c, 7, 79, 127
1, 1139852, Note_on_c, 7, 67, 127
1, 1140134, Note_off_c, 2, 62, 127
1, 1140146, Note_off_c, 7, 67, 127
1, 1140146, Note_off_c, 7, 79, 127
1, 1140150, Note_on_c, 10, 81, 127
1, 1140150, Note_on_c, 5, 65, 127
1, 1140150, Note_on_c, 0, 60, 127
1, 1140442, Note_off_c, 5, 65, 127
1, 1140447, Note_on_c, 4, 64, 127
1, 1140738, Note_off_c, 0, 60, 127
1, 1140741, Note_off_c, 4, 64, 127
1, 1140745, Note_on_c, 4, 64, 127
1, 1140745, Note_on_c, 11, 58, 127
1, 1141033, Note_off_c, 10, 81, 127
1, 1141039, Note_off_c, 4, 64, 127
1, 1141042, Note_on_c, 7, 79, 127
1, 1141042, Note_on_c, 2, 62, 127
1, 1141334, Note_off_c, 11, 58, 127
1, 1141336, Note_off_c, 7, 79, 127
1, 1141340, Note_on_c, 5, 77, 127
1, 1141340, Note_on_c, 10, 57, 127
1, 1141631, Note_off_c, 2, 62, 127
1, 1141634, Note_off_c, 5, 77, 127
1, 1141638, Note_on_c, 10, 81, 127
1, 1141638, Note_on_c, 1, 61, 127
1, 1141929, Note_off_c, 10, 57, 127
1, 1141932, Note_off_c, 1, 61, 127
1, 1141932, Note_off_c, 10, 81, 127
1, 1141936, Note_on_c, 7, 79, 127
1, 1141936, Note_on_c, 2, 62, 127
1, 1141936, Note_on_c, 11, 58, 127
1, 1142230, Note_off_c, 2, 62, 127
1, 1142230, Note_off_c, 7, 79, 127
1, 1142234, Note_on_c, 5, 77, 127
1, 1142234, Note_on_c, 4, 64, 127
1, 1142525, Note_off_c, 11, 58, 127
1, 1142528, Note_off_c, 4, 64, 127
1, 1142528, Note_off_c, 5, 77, 127
1, 1142532, Note_on_c, 4, 76, 127
1, 1142532, Note_on_c, 5, 65, 127
1, 1142532, Note_on_c, 7, 55, 127
1, 1142826, Note_off_c, 4, 76, 127
1, 1142830, Note_on_c, 2, 74, 127
1, 1143121, Note_off_c, 7, 55, 127
1, 1143121, Note_off_c, 5, 65, 127
1, 1143124, Note_off_c, 2, 74, 127
1, 1143127, Note_on_c, 2, 74, 127
1, 1143127, Note_on_c, 4, 64, 127
1, 1143127, Note_on_c, 10, 57, 127
1, 1143421, Note_off_c, 10, 57, 127
1, 1143421, Note_off_c, 2, 74, 127
1, 1143425, Note_on_c, 1, 73, 127
1, 1143425, Note_on_c, 4, 52, 127
1, 1143716, Note_off_c, 4, 64, 127
1, 1143719, Note_off_c, 4, 52, 127
1, 1143723, Note_on_c, 5, 53, 127
1, 1144014, Note_off_c, 1, 73, 127
1, 1144017, Note_off_c, 5, 53, 127
1, 1144021, Note_on_c, 12, 71, 127
1, 1144021, Note_on_c, 7, 55, 127
1, 1144315, Note_off_c, 7, 55, 127
1, 1144315, Note_off_c, 12, 71, 127
1, 1144319, Note_on_c, 1, 73, 127
1, 1144319, Note_on_c, 10, 57, 127
1, 1144613, Note_off_c, 10, 57, 127
1, 1144613, Note_off_c, 1, 73, 127
1, 1144617, Note_on_c, 2, 74, 127
1, 1144617, Note_on_c, 12, 59, 127
1, 1144911, Note_off_c, 12, 59, 127
1, 1144911, Note_off_c, 2, 74, 127
1, 1144915, Note_on_c, 4, 76, 127
1, 1144915, Note_on_c, 4, 64, 127
1, 1144915, Note_on_c, 1, 61, 127
1, 1145209, Note_off_c, 1, 61, 127
1, 1145212, Note_on_c, 10, 57, 127
1, 1145504, Note_off_c, 4, 64, 127
1, 1145504, Note_off_c, 4, 76, 127
1, 1145506, Note_off_c, 10, 57, 127
1, 1145510, Note_on_c, 2, 74, 127
1, 1145510, Note_on_c, 5, 65, 127
1, 1145510, Note_on_c, 2, 62, 127
1, 1145804, Note_off_c, 2, 62, 127
1, 1145808, Note_on_c, 5, 53, 127
1, 1146099, Note_off_c, 5, 65, 127
1, 1146099, Note_off_c, 2, 74, 127
1, 1146102, Note_off_c, 5, 53, 127
1, 1146106, Note_on_c, 4, 64, 127
1, 1146106, Note_on_c, 7, 55, 127
1, 1146400, Note_off_c, 7, 55, 127
1, 1146404, Note_on_c, 10, 57, 127
1, 1146695, Note_off_c, 4, 64, 127
1, 1146698, Note_off_c, 10, 57, 127
1, 1146702, Note_on_c, 5, 65, 127
1, 1146702, Note_on_c, 2, 50, 127
1, 1146996, Note_off_c, 2, 50, 127
1, 1147000, Note_on_c, 0, 60, 127
1, 1147291, Note_off_c, 5, 65, 127
1, 1147294, Note_off_c, 0, 60, 127
1, 1147298, Note_on_c, 2, 74, 127
1, 1147298, Note_on_c, 6, 66, 127
1, 1147298, Note_on_c, 11, 58, 127
1, 1147592, Note_off_c, 11, 58, 127
1, 1147595, Note_on_c, 10, 57, 127
1, 1147887, Note_off_c, 6, 66, 127
1, 1147887, Note_off_c, 2, 74, 127
1, 1147889, Note_off_c, 10, 57, 127
1, 1147893, Note_on_c, 3, 75, 127
1, 1147893, Note_on_c, 7, 67, 127
1, 1147893, Note_on_c, 7, 55, 127
1, 1148187, Note_off_c, 7, 55, 127
1, 1148191, Note_on_c, 11, 46, 127
1, 1148482, Note_off_c, 7, 67, 127
1, 1148482, Note_off_c, 3, 75, 127
1, 1148485, Note_off_c, 11, 46, 127
1, 1148489, Note_on_c, 2, 74, 127
1, 1148489, Note_on_c, 10, 69, 127
1, 1148489, Note_on_c, 0, 48, 127
1, 1148783, Note_off_c, 0, 48, 127
1, 1148787, Note_on_c, 2, 50, 127
1, 1149078, Note_off_c, 10, 69, 127
1, 1149078, Note_off_c, 2, 74, 127
1, 1149081, Note_off_c, 2, 50, 127
1, 1149085, Note_on_c, 3, 75, 127
1, 1149085, Note_on_c, 11, 70, 127
1, 1149085, Note_on_c, 7, 43, 127
1, 1149379, Note_off_c, 7, 43, 127
1, 1149383, Note_on_c, 7, 55, 127
1, 1149674, Note_off_c, 11, 70, 127
1, 1149674, Note_off_c, 3, 75, 127
1, 1149680, Note_on_c, 4, 76, 127
1, 1149680, Note_on_c, 10, 69, 127
1, 1149972, Note_off_c, 7, 55, 127
1, 1149978, Note_on_c, 1, 49, 127
1, 1150269, Note_off_c, 4, 76, 127
1, 1150272, Note_off_c, 1, 49, 127
1, 1150276, Note_on_c, 5, 77, 127
1, 1150276, Note_on_c, 2, 50, 127
1, 1150570, Note_off_c, 2, 50, 127
1, 1150574, Note_on_c, 10, 57, 127
1, 1150859, Note_off_c, 10, 69, 127
1, 1150865, Note_off_c, 5, 77, 127
1, 1150868, Note_off_c, 10, 57, 127
1, 1150872, Note_on_c, 7, 79, 127
1, 1150872, Note_on_c, 7, 67, 127
1, 1150872, Note_on_c, 2, 62, 127
1, 1151166, Note_off_c, 7, 67, 127
1, 1151170, Note_on_c, 5, 65, 127
1, 1151461, Note_off_c, 7, 79, 127
1, 1151464, Note_off_c, 5, 65, 127
1, 1151468, Note_on_c, 10, 81, 127
1, 1151468, Note_on_c, 4, 64, 127
1, 1151756, Note_off_c, 2, 62, 127
1, 1151762, Note_off_c, 4, 64, 127
1, 1151765, Note_on_c, 2, 62, 127
1, 1152057, Note_off_c, 10, 81, 127
1, 1152063, Note_on_c, 7, 79, 127
1, 1152063, Note_on_c, 4, 64, 127
1, 1152354, Note_off_c, 2, 62, 127
1, 1152361, Note_on_c, 1, 61, 127
1, 1152652, Note_off_c, 4, 64, 127
1, 1152655, Note_off_c, 1, 61, 127
1, 1152659, Note_on_c, 2, 62, 127
1, 1152957, Note_on_c, 11, 58, 127
1, 1153242, Note_off_c, 7, 79, 127
1, 1153251, Note_off_c, 11, 58, 127
1, 1153255, Note_on_c, 6, 78, 127
1, 1153255, Note_on_c, 10, 57, 127
1, 1153549, Note_off_c, 10, 57, 127
1, 1153549, Note_off_c, 6, 78, 127
1, 1153553, Note_on_c, 4, 76, 127
1, 1153553, Note_on_c, 7, 55, 127
1, 1153838, Note_off_c, 2, 62, 127
1, 1153847, Note_off_c, 7, 55, 127
1, 1153847, Note_off_c, 4, 76, 127
1, 1153850, Note_on_c, 2, 74, 127
1, 1153850, Note_on_c, 6, 54, 127
1, 1154144, Note_off_c, 6, 54, 127
1, 1154144, Note_off_c, 2, 74, 127
1, 1154148, Note_on_c, 1, 73, 127
1, 1154148, Note_on_c, 10, 57, 127
1, 1154442, Note_off_c, 10, 57, 127
1, 1154442, Note_off_c, 1, 73, 127
1, 1154446, Note_on_c, 2, 74, 127
1, 1154446, Note_on_c, 6, 54, 127
1, 1154740, Note_off_c, 6, 54, 127
1, 1154744, Note_on_c, 2, 50, 127
1, 1155015, Note_off_c, 2, 50, 127
1, 1155042, Note_on_c, 2, 50, 127
1, 1155340, Note_on_c, 11, 70, 127
1, 1155625, Note_off_c, 2, 74, 127
1, 1155631, Note_off_c, 2, 50, 127
1, 1155634, Note_off_c, 11, 70, 127
1, 1155638, Note_on_c, 10, 69, 127
1, 1155638, Note_on_c, 2, 62, 127
1, 1155932, Note_off_c, 10, 69, 127
1, 1155935, Note_on_c, 7, 67, 127
1, 1156229, Note_off_c, 7, 67, 127
1, 1156233, Note_on_c, 6, 66, 127
1, 1156527, Note_off_c, 6, 66, 127
1, 1156531, Note_on_c, 7, 67, 127
1, 1156817, Note_off_c, 2, 62, 127
1, 1156825, Note_off_c, 7, 67, 127
1, 1156829, Note_on_c, 10, 69, 127
1, 1156829, Note_on_c, 0, 60, 127
1, 1157123, Note_off_c, 10, 69, 127
1, 1157127, Note_on_c, 6, 66, 127
1, 1157418, Note_off_c, 0, 60, 127
1, 1157421, Note_off_c, 6, 66, 127
1, 1157425, Note_on_c, 2, 62, 127
1, 1157425, Note_on_c, 12, 59, 127
1, 1157723, Note_on_c, 8, 80, 127
1, 1158014, Note_off_c, 12, 59, 127
1, 1158014, Note_off_c, 2, 62, 127
1, 1158017, Note_off_c, 8, 80, 127
1, 1158020, Note_on_c, 7, 79, 127
1, 1158020, Note_on_c, 4, 64, 127
1, 1158020, Note_on_c, 11, 58, 127
1, 1158314, Note_off_c, 4, 64, 127
1, 1158314, Note_off_c, 7, 79, 127
1, 1158318, Note_on_c, 5, 77, 127
1, 1158318, Note_on_c, 5, 65, 127
1, 1158612, Note_off_c, 5, 65, 127
1, 1158612, Note_off_c, 5, 77, 127
1, 1158616, Note_on_c, 4, 76, 127
1, 1158616, Note_on_c, 7, 67, 127
1, 1158910, Note_off_c, 4, 76, 127
1, 1158914, Note_on_c, 5, 77, 127
1, 1159199, Note_off_c, 11, 58, 127
1, 1159205, Note_off_c, 7, 67, 127
1, 1159208, Note_off_c, 5, 77, 127
1, 1159212, Note_on_c, 7, 79, 127
1, 1159212, Note_on_c, 0, 60, 127
1, 1159212, Note_on_c, 10, 57, 127
1, 1159506, Note_off_c, 10, 57, 127
1, 1159506, Note_off_c, 7, 79, 127
1, 1159510, Note_on_c, 4, 76, 127
1, 1159510, Note_on_c, 7, 55, 127
1, 1159801, Note_off_c, 0, 60, 127
1, 1159804, Note_off_c, 7, 55, 127
1, 1159804, Note_off_c, 4, 76, 127
1, 1159808, Note_on_c, 0, 72, 127
1, 1159808, Note_on_c, 10, 57, 127
1, 1160105, Note_on_c, 7, 67, 127
1, 1160397, Note_off_c, 10, 57, 127
1, 1160397, Note_off_c, 0, 72, 127
1, 1160399, Note_off_c, 7, 67, 127
1, 1160403, Note_on_c, 2, 74, 127
1, 1160403, Note_on_c, 5, 65, 127
1, 1160403, Note_on_c, 8, 56, 127
1, 1160697, Note_off_c, 5, 65, 127
1, 1160697, Note_off_c, 2, 74, 127
1, 1160701, Note_on_c, 3, 75, 127
1, 1160701, Note_on_c, 3, 63, 127
1, 1160995, Note_off_c, 3, 63, 127
1, 1160995, Note_off_c, 3, 75, 127
1, 1160999, Note_on_c, 5, 77, 127
1, 1160999, Note_on_c, 2, 62, 127
1, 1161293, Note_off_c, 2, 62, 127
1, 1161297, Note_on_c, 5, 65, 127
1, 1161582, Note_off_c, 8, 56, 127
1, 1161588, Note_off_c, 5, 77, 127
1, 1161591, Note_off_c, 5, 65, 127
1, 1161595, Note_on_c, 11, 70, 127
1, 1161595, Note_on_c, 3, 63, 127
1, 1161595, Note_on_c, 7, 55, 127
1, 1161889, Note_off_c, 3, 63, 127
1, 1161893, Note_on_c, 7, 67, 127
1, 1162184, Note_off_c, 7, 55, 127
1, 1162184, Note_off_c, 11, 70, 127
1, 1162187, Note_off_c, 7, 67, 127
1, 1162191, Note_on_c, 5, 65, 127
1, 1162191, Note_on_c, 2, 50, 127
1, 1162488, Note_on_c, 5, 77, 127
1, 1162780, Note_off_c, 2, 50, 127
1, 1162780, Note_off_c, 5, 65, 127
1, 1162782, Note_off_c, 5, 77, 127
1, 1162786, Note_on_c, 3, 75, 127
1, 1162786, Note_on_c, 7, 67, 127
1, 1162786, Note_on_c, 3, 51, 127
1, 1163080, Note_off_c, 3, 75, 127
1, 1163084, Note_on_c, 2, 74, 127
1, 1163375, Note_off_c, 3, 51, 127
1, 1163375, Note_off_c, 7, 67, 127
1, 1163378, Note_off_c, 2, 74, 127
1, 1163382, Note_on_c, 0, 72, 127
1, 1163382, Note_on_c, 8, 68, 127
1, 1163382, Note_on_c, 5, 53, 127
1, 1163676, Note_off_c, 0, 72, 127
1, 1163680, Note_on_c, 3, 75, 127
1, 1163971, Note_off_c, 5, 53, 127
1, 1163974, Note_off_c, 3, 75, 127
1, 1163978, Note_on_c, 2, 74, 127
1, 1163978, Note_on_c, 11, 46, 127
1, 1164272, Note_off_c, 2, 74, 127
1, 1164276, Note_on_c, 5, 77, 127
1, 1164567, Note_off_c, 11, 46, 127
1, 1164570, Note_off_c, 5, 77, 127
1, 1164573, Note_on_c, 3, 75, 127
1, 1164573, Note_on_c, 3, 51, 127
1, 1164858, Note_off_c, 8, 68, 127
1, 1164871, Note_on_c, 7, 67, 127
1, 1165161, Note_off_c, 3, 75, 127
1, 1165163, Note_off_c, 7, 67, 127
1, 1165168, Note_on_c, 5, 77, 127
1, 1165168, Note_on_c, 8, 68, 127
1, 1165462, Note_off_c, 8, 68, 127
1, 1165466, Note_on_c, 11, 70, 127
1, 1165757, Note_off_c, 5, 77, 127
1, 1165760, Note_off_c, 11, 70, 127
1, 1165764, Note_on_c, 7, 79, 127
1, 1165764, Note_on_c, 3, 63, 127
1, 1166058, Note_off_c, 3, 63, 127
1, 1166062, Note_on_c, 2, 62, 127
1, 1166341, Note_off_c, 3, 51, 127
1, 1166356, Note_off_c, 2, 62, 127
1, 1166359, Note_on_c, 3, 63, 127
1, 1166359, Note_on_c, 3, 51, 127
1, 1166653, Note_off_c, 3, 63, 127
1, 1166657, Note_on_c, 7, 67, 127
1, 1166948, Note_off_c, 3, 51, 127
1, 1166951, Note_off_c, 7, 67, 127
1, 1166955, Note_on_c, 0, 60, 127
1, 1166955, Note_on_c, 8, 56, 127
1, 1167240, Note_off_c, 7, 79, 127
1, 1167249, Note_off_c, 0, 60, 127
1, 1167253, Note_on_c, 5, 77, 127
1, 1167253, Note_on_c, 2, 62, 127
1, 1167545, Note_off_c, 2, 62, 127
1, 1167545, Note_off_c, 5, 77, 127
1, 1167550, Note_on_c, 7, 79, 127
1, 1167550, Note_on_c, 3, 63, 127
1, 1167844, Note_off_c, 3, 63, 127
1, 1167844, Note_off_c, 7, 79, 127
1, 1167848, Note_on_c, 8, 80, 127
1, 1167848, Note_on_c, 0, 60, 127
1, 1168142, Note_off_c, 0, 60, 127
1, 1168142, Note_off_c, 8, 80, 127
1, 1168146, Note_on_c, 2, 74, 127
1, 1168146, Note_on_c, 5, 65, 127
1, 1168440, Note_off_c, 2, 74, 127
1, 1168443, Note_on_c, 0, 72, 127
1, 1168723, Note_off_c, 8, 56, 127
1, 1168735, Note_off_c, 5, 65, 127
1, 1168737, Note_off_c, 0, 72, 127
1, 1168741, Note_on_c, 2, 74, 127
1, 1168741, Note_on_c, 11, 58, 127
1, 1168741, Note_on_c, 7, 55, 127
1, 1169035, Note_off_c, 7, 55, 127
1, 1169035, Note_off_c, 2, 74, 127
1, 1169039, Note_on_c, 5, 77, 127
1, 1169039, Note_on_c, 5, 53, 127
1, 1169333, Note_off_c, 5, 53, 127
1, 1169333, Note_off_c, 5, 77, 127
1, 1169337, Note_on_c, 11, 70, 127
1, 1169337, Note_on_c, 7, 55, 127
1, 1169631, Note_off_c, 11, 70, 127
1, 1169635, Note_on_c, 0, 72, 127
1, 1169920, Note_off_c, 11, 58, 127
1, 1169929, Note_off_c, 0, 72, 127
1, 1169933, Note_on_c, 2, 74, 127
1, 1169933, Note_on_c, 8, 56, 127
1, 1170221, Note_off_c, 7, 55, 127
1, 1170227, Note_off_c, 8, 56, 127
1, 1170227, Note_off_c, 2, 74, 127
1, 1170231, Note_on_c, 11, 70, 127
1, 1170231, Note_on_c, 7, 55, 127
1, 1170525, Note_off_c, 11, 70, 127
1, 1170528, Note_on_c, 3, 75, 127
1, 1170528, Note_on_c, 8, 56, 127
1, 1170820, Note_off_c, 7, 55, 127
1, 1170826, Note_on_c, 5, 53, 127
1, 1171117, Note_off_c, 8, 56, 127
1, 1171117, Note_off_c, 3, 75, 127
1, 1171120, Note_off_c, 5, 53, 127
1, 1171124, Note_on_c, 8, 68, 127
1, 1171124, Note_on_c, 5, 65, 127
1, 1171124, Note_on_c, 3, 51, 127
1, 1171418, Note_off_c, 3, 51, 127
1, 1171422, Note_on_c, 2, 50, 127
1, 1171716, Note_off_c, 2, 50, 127
1, 1171720, Note_on_c, 3, 51, 127
1, 1172014, Note_off_c, 3, 51, 127
1, 1172018, Note_on_c, 7, 43, 127
1, 1172303, Note_off_c, 5, 65, 127
1, 1172303, Note_off_c, 8, 68, 127
1, 1172312, Note_off_c, 7, 43, 127
1, 1172316, Note_on_c, 7, 67, 127
1, 1172316, Note_on_c, 3, 63, 127
1, 1172316, Note_on_c, 8, 44, 127
1, 1172610, Note_off_c, 8, 44, 127
1, 1172610, Note_off_c, 3, 63, 127
1, 1172610, Note_off_c, 7, 67, 127
1, 1172613, Note_on_c, 5, 65, 127
1, 1172613, Note_on_c, 2, 62, 127
1, 1172613, Note_on_c, 11, 46, 127
1, 1172907, Note_off_c, 11, 46, 127
1, 1172907, Note_off_c, 2, 62, 127
1, 1172907, Note_off_c, 5, 65, 127
1, 1172911, Note_on_c, 7, 67, 127
1, 1172911, Note_on_c, 3, 63, 127
1, 1172911, Note_on_c, 3, 39, 127
1, 1173205, Note_off_c, 3, 39, 127
1, 1173209, Note_on_c, 7, 43, 127
1, 1173411, Note_off_c, 3, 63, 127
1, 1173411, Note_off_c, 7, 67, 127
1, 1173503, Note_off_c, 7, 43, 127
1, 1173507, Note_on_c, 3, 75, 127
1, 1173507, Note_on_c, 10, 45, 127
1, 1173801, Note_off_c, 10, 45, 127
1, 1173805, Note_on_c, 12, 47, 127
1, 1174099, Note_off_c, 12, 47, 127
1, 1174103, Note_on_c, 0, 48, 127
1, 1174401, Note_on_c, 6, 54, 127
1, 1174686, Note_off_c, 3, 75, 127
1, 1174695, Note_off_c, 6, 54, 127
1, 1174699, Note_on_c, 2, 74, 127
1, 1174699, Note_on_c, 7, 55, 127
1, 1174993, Note_off_c, 7, 55, 127
1, 1174993, Note_off_c, 2, 74, 127
1, 1174996, Note_on_c, 0, 72, 127
1, 1174996, Note_on_c, 10, 57, 127
1, 1175290, Note_off_c, 10, 57, 127
1, 1175290, Note_off_c, 0, 72, 127
1, 1175294, Note_on_c, 2, 74, 127
1, 1175294, Note_on_c, 7, 55, 127
1, 1175588, Note_off_c, 7, 55, 127
1, 1175592, Note_on_c, 6, 54, 127
1, 1175872, Note_off_c, 0, 48, 127
1, 1175883, Note_off_c, 2, 74, 127
1, 1175886, Note_off_c, 6, 54, 127
1, 1175890, Note_on_c, 4, 52, 127
1, 1175890, Note_on_c, 0, 48, 127
1, 1176184, Note_off_c, 4, 52, 127
1, 1176188, Note_on_c, 2, 50, 127
1, 1176479, Note_off_c, 0, 48, 127
1, 1176482, Note_off_c, 2, 50, 127
1, 1176486, Note_on_c, 2, 62, 127
1, 1176486, Note_on_c, 11, 46, 127
1, 1176780, Note_off_c, 2, 62, 127
1, 1176784, Note_on_c, 4, 64, 127
1, 1176784, Note_on_c, 0, 60, 127
1, 1177078, Note_off_c, 0, 60, 127
1, 1177078, Note_off_c, 4, 64, 127
1, 1177081, Note_on_c, 5, 65, 127
1, 1177081, Note_on_c, 2, 62, 127
1, 1177375, Note_off_c, 5, 65, 127
1, 1177379, Note_on_c, 7, 67, 127
1, 1177670, Note_off_c, 2, 62, 127
1, 1177673, Note_off_c, 7, 67, 127
1, 1177677, Note_on_c, 5, 65, 127
1, 1177677, Note_on_c, 7, 55, 127
1, 1177971, Note_off_c, 5, 65, 127
1, 1177975, Note_on_c, 4, 64, 127
1, 1178255, Note_off_c, 11, 46, 127
1, 1178266, Note_off_c, 7, 55, 127
1, 1178269, Note_off_c, 4, 64, 127
1, 1178273, Note_on_c, 2, 62, 127
1, 1178273, Note_on_c, 11, 46, 127
1, 1178567, Note_off_c, 2, 62, 127
1, 1178571, Note_on_c, 0, 60, 127
1, 1178862, Note_off_c, 11, 46, 127
1, 1178865, Note_off_c, 0, 60, 127
1, 1178869, Note_on_c, 0, 72, 127
1, 1178869, Note_on_c, 10, 45, 127
1, 1179163, Note_off_c, 10, 45, 127
1, 1179163, Note_off_c, 0, 72, 127
1, 1179166, Note_on_c, 11, 70, 127
1, 1179166, Note_on_c, 7, 43, 127
1, 1179460, Note_off_c, 7, 43, 127
1, 1179460, Note_off_c, 11, 70, 127
1, 1179464, Note_on_c, 0, 72, 127
1, 1179464, Note_on_c, 3, 63, 127
1, 1179464, Note_on_c, 10, 45, 127
1, 1179758, Note_off_c, 10, 45, 127
1, 1179758, Note_off_c, 3, 63, 127
1, 1179762, Note_on_c, 2, 62, 127
1, 1179762, Note_on_c, 11, 46, 127
1, 1180053, Note_off_c, 0, 72, 127
1, 1180056, Note_off_c, 11, 46, 127
1, 1180056, Note_off_c, 2, 62, 127
1, 1180060, Note_on_c, 6, 66, 127
1, 1180060, Note_on_c, 0, 60, 127
1, 1180060, Note_on_c, 10, 45, 127
1, 1180354, Note_off_c, 10, 45, 127
1, 1180354, Note_off_c, 0, 60, 127
1, 1180358, Note_on_c, 11, 58, 127
1, 1180358, Note_on_c, 7, 43, 127
1, 1180649, Note_off_c, 6, 66, 127
1, 1180652, Note_off_c, 7, 43, 127
1, 1180652, Note_off_c, 11, 58, 127
1, 1180656, Note_on_c, 10, 57, 127
1, 1180656, Note_on_c, 6, 42, 127
1, 1180950, Note_off_c, 6, 42, 127
1, 1180950, Note_off_c, 10, 57, 127
1, 1180954, Note_on_c, 7, 55, 127
1, 1180954, Note_on_c, 4, 40, 127
1, 1181248, Note_off_c, 4, 40, 127
1, 1181248, Note_off_c, 7, 55, 127
1, 1181251, Note_on_c, 6, 54, 127
1, 1181251, Note_on_c, 2, 38, 127
1, 1181545, Note_off_c, 2, 38, 127
1, 1181549, Note_on_c, 0, 48, 127
1, 1181840, Note_off_c, 6, 54, 127
1, 1181843, Note_off_c, 0, 48, 127
1, 1181847, Note_on_c, 2, 74, 127
1, 1181847, Note_on_c, 2, 50, 127
1, 1182141, Note_off_c, 2, 50, 127
1, 1182141, Note_off_c, 2, 74, 127
1, 1182145, Note_on_c, 0, 72, 127
1, 1182145, Note_on_c, 3, 51, 127
1, 1182439, Note_off_c, 3, 51, 127
1, 1182439, Note_off_c, 0, 72, 127
1, 1182443, Note_on_c, 11, 70, 127
1, 1182443, Note_on_c, 2, 50, 127
1, 1182737, Note_off_c, 2, 50, 127
1, 1182737, Note_off_c, 11, 70, 127
1, 1182741, Note_on_c, 10, 69, 127
1, 1182741, Note_on_c, 0, 48, 127
1, 1183035, Note_off_c, 0, 48, 127
1, 1183035, Note_off_c, 10, 69, 127
1, 1183039, Note_on_c, 7, 67, 127
1, 1183039, Note_on_c, 2, 62, 127
1, 1183039, Note_on_c, 11, 46, 127
1, 1183333, Note_off_c, 11, 46, 127
1, 1183333, Note_off_c, 7, 67, 127
1, 1183336, Note_on_c, 5, 65, 127
1, 1183336, Note_on_c, 10, 45, 127
1, 1183630, Note_off_c, 10, 45, 127
1, 1183630, Note_off_c, 5, 65, 127
1, 1183634, Note_on_c, 3, 63, 127
1, 1183634, Note_on_c, 7, 43, 127
1, 1183928, Note_off_c, 7, 43, 127
1, 1183932, Note_on_c, 5, 53, 127
1, 1184218, Note_off_c, 2, 62, 127
1, 1184223, Note_off_c, 3, 63, 127
1, 1184226, Note_off_c, 5, 53, 127
1, 1184230, Note_on_c, 0, 60, 127
1, 1184230, Note_on_c, 7, 55, 127
1, 1184524, Note_off_c, 7, 55, 127
1, 1184528, Note_on_c, 8, 56, 127
1, 1184819, Note_off_c, 0, 60, 127
1, 1184822, Note_off_c, 8, 56, 127
1, 1184826, Note_on_c, 12, 59, 127
1, 1184826, Note_on_c, 7, 55, 127
1, 1185120, Note_off_c, 7, 55, 127
1, 1185124, Note_on_c, 5, 53, 127
1, 1185415, Note_off_c, 12, 59, 127
1, 1185418, Note_off_c, 5, 53, 127
1, 1185421, Note_on_c, 0, 72, 127
1, 1185421, Note_on_c, 0, 60, 127
1, 1185421, Note_on_c, 3, 51, 127
1, 1185715, Note_off_c, 3, 51, 127
1, 1185715, Note_off_c, 0, 60, 127
1, 1185719, Note_on_c, 2, 62, 127
1, 1185719, Note_on_c, 2, 50, 127
1, 1186013, Note_off_c, 2, 50, 127
1, 1186013, Note_off_c, 2, 62, 127
1, 1186017, Note_on_c, 3, 63, 127
1, 1186017, Note_on_c, 0, 48, 127
1, 1186311, Note_off_c, 0, 48, 127
1, 1186315, Note_on_c, 12, 47, 127
1, 1186600, Note_off_c, 0, 72, 127
1, 1186606, Note_off_c, 3, 63, 127
1, 1186609, Note_off_c, 12, 47, 127
1, 1186613, Note_on_c, 11, 70, 127
1, 1186613, Note_on_c, 7, 55, 127
1, 1186613, Note_on_c, 0, 48, 127
1, 1186907, Note_off_c, 0, 48, 127
1, 1186911, Note_on_c, 1, 49, 127
1, 1187202, Note_off_c, 7, 55, 127
1, 1187202, Note_off_c, 11, 70, 127
1, 1187205, Note_off_c, 1, 49, 127
1, 1187209, Note_on_c, 10, 69, 127
1, 1187209, Note_on_c, 6, 54, 127
1, 1187209, Note_on_c, 2, 50, 127
1, 1187503, Note_off_c, 2, 50, 127
1, 1187506, Note_on_c, 3, 51, 127
1, 1187798, Note_off_c, 6, 54, 127
1, 1187798, Note_off_c, 10, 69, 127
1, 1187800, Note_off_c, 3, 51, 127
1, 1187804, Note_on_c, 11, 70, 127
1, 1187804, Note_on_c, 2, 62, 127
1, 1187804, Note_on_c, 2, 50, 127
1, 1188098, Note_off_c, 2, 50, 127
1, 1188098, Note_off_c, 11, 70, 127
1, 1188102, Note_on_c, 0, 72, 127
1, 1188102, Note_on_c, 0, 48, 127
1, 1188396, Note_off_c, 0, 48, 127
1, 1188396, Note_off_c, 0, 72, 127
1, 1188400, Note_on_c, 2, 74, 127
1, 1188400, Note_on_c, 11, 46, 127
1, 1188688, Note_off_c, 2, 62, 127
1, 1188694, Note_off_c, 11, 46, 127
1, 1188698, Note_on_c, 0, 60, 127
1, 1188698, Note_on_c, 10, 45, 127
1, 1188843, Note_off_c, 0, 60, 127
1, 1188846, Note_on_c, 11, 58, 127
1, 1188988, Note_off_c, 2, 74, 127
1, 1188990, Note_off_c, 10, 45, 127
1, 1188991, Note_off_c, 11, 58, 127
1, 1188995, Note_on_c, 5, 65, 127
1, 1188995, Note_on_c, 10, 57, 127
1, 1188995, Note_on_c, 11, 46, 127
1, 1189140, Note_off_c, 10, 57, 127
1, 1189143, Note_on_c, 11, 58, 127
1, 1189287, Note_off_c, 11, 46, 127
1, 1189288, Note_off_c, 11, 58, 127
1, 1189292, Note_on_c, 7, 55, 127
1, 1189292, Note_on_c, 12, 47, 127
1, 1189583, Note_off_c, 5, 65, 127
1, 1189586, Note_off_c, 12, 47, 127
1, 1189586, Note_off_c, 7, 55, 127
1, 1189589, Note_on_c, 3, 63, 127
1, 1189589, Note_on_c, 8, 56, 127
1, 1189589, Note_on_c, 0, 48, 127
1, 1189883, Note_off_c, 8, 56, 127
1, 1189887, Note_on_c, 7, 55, 127
1, 1190178, Note_off_c, 0, 48, 127
1, 1190178, Note_off_c, 3, 63, 127
1, 1190185, Note_on_c, 0, 72, 127
1, 1190185, Note_on_c, 2, 50, 127
1, 1190476, Note_off_c, 7, 55, 127
1, 1190483, Note_on_c, 6, 54, 127
1, 1190774, Note_off_c, 2, 50, 127
1, 1190777, Note_off_c, 6, 54, 127
1, 1190781, Note_on_c, 7, 55, 127
1, 1190781, Note_on_c, 7, 43, 127
1, 1191069, Note_off_c, 0, 72, 127
1, 1191075, Note_off_c, 7, 43, 127
1, 1191079, Note_on_c, 11, 70, 127
1, 1191079, Note_on_c, 2, 50, 127
1, 1191224, Note_off_c, 11, 70, 127
1, 1191227, Note_on_c, 10, 69, 127
1, 1191371, Note_off_c, 2, 50, 127
1, 1191372, Note_off_c, 10, 69, 127
1, 1191375, Note_on_c, 7, 67, 127
1, 1191375, Note_on_c, 11, 46, 127
1, 1191520, Note_off_c, 7, 67, 127
1, 1191524, Note_on_c, 10, 69, 127
1, 1191667, Note_off_c, 11, 46, 127
1, 1191669, Note_off_c, 10, 69, 127
1, 1191672, Note_on_c, 6, 66, 127
1, 1191672, Note_on_c, 2, 50, 127
1, 1191958, Note_off_c, 7, 55, 127
1, 1191966, Note_off_c, 2, 50, 127
1, 1191966, Note_off_c, 6, 66, 127
1, 1191970, Note_on_c, 7, 67, 127
1, 1191970, Note_on_c, 7, 55, 127
1, 1192264, Note_off_c, 7, 55, 127
1, 1192268, Note_on_c, 2, 50, 127
1, 1192562, Note_off_c, 2, 50, 127
1, 1192566, Note_on_c, 11, 46, 127
1, 1192860, Note_off_c, 11, 46, 127
1, 1192864, Note_on_c, 7, 43, 127
1, 1193099, Note_off_c, 7, 67, 127
1, 1193194, Note_on_c, 7, 55, 127
1, 1193368, Note_off_c, 7, 43, 127
1, 1193812, Note_on_c, 4, 64, 127
1, 1194417, Note_off_c, 7, 55, 127
1, 1194431, Note_on_c, 6, 54, 127
1, 1194689, Note_off_c, 4, 64, 127
1, 1194739, Note_on_c, 2, 62, 127
1, 1194890, Note_off_c, 2, 62, 127
1, 1194894, Note_on_c, 1, 61, 127
1, 1195045, Note_off_c, 1, 61, 127
1, 1195049, Note_on_c, 2, 62, 127
1, 1195654, Note_off_c, 6, 54, 127
1, 1195668, Note_on_c, 4, 52, 127
1, 1195926, Note_off_c, 2, 62, 127
1, 1195976, Note_on_c, 1, 61, 127
1, 1196127, Note_off_c, 1, 61, 127
1, 1196131, Note_on_c, 12, 59, 127
1, 1196282, Note_off_c, 12, 59, 127
1, 1196286, Note_on_c, 7, 67, 127
1, 1196286, Note_on_c, 1, 61, 127
1, 1196590, Note_off_c, 1, 61, 127
1, 1196595, Note_on_c, 4, 64, 127
1, 1196891, Note_off_c, 4, 52, 127
1, 1196899, Note_off_c, 4, 64, 127
1, 1196905, Note_on_c, 10, 57, 127
1, 1196905, Note_on_c, 2, 50, 127
1, 1197163, Note_off_c, 7, 67, 127
1, 1197213, Note_on_c, 6, 66, 127
1, 1197364, Note_off_c, 6, 66, 127
1, 1197368, Note_on_c, 4, 64, 127
1, 1197519, Note_off_c, 4, 64, 127
1, 1197523, Note_on_c, 6, 66, 127
1, 1197821, Note_off_c, 2, 50, 127
1, 1197827, Note_off_c, 6, 66, 127
1, 1197832, Note_on_c, 10, 69, 127
1, 1197832, Note_on_c, 0, 48, 127
1, 1198136, Note_off_c, 0, 48, 127
1, 1198136, Note_off_c, 10, 69, 127
1, 1198142, Note_on_c, 2, 62, 127
1, 1198142, Note_on_c, 12, 47, 127
1, 1198404, Note_off_c, 10, 57, 127
1, 1198450, Note_on_c, 7, 55, 127
1, 1198601, Note_off_c, 7, 55, 127
1, 1198605, Note_on_c, 6, 54, 127
1, 1198756, Note_off_c, 6, 54, 127
1, 1198760, Note_on_c, 2, 74, 127
1, 1198760, Note_on_c, 7, 55, 127
1, 1199042, Note_off_c, 2, 62, 127
1, 1199069, Note_on_c, 5, 65, 127
1, 1199365, Note_off_c, 12, 47, 127
1, 1199373, Note_off_c, 5, 65, 127
1, 1199379, Note_on_c, 4, 64, 127
1, 1199379, Note_on_c, 0, 48, 127
1, 1199637, Note_off_c, 2, 74, 127
1, 1199677, Note_off_c, 7, 55, 127
1, 1199688, Note_on_c, 0, 72, 127
1, 1199688, Note_on_c, 4, 52, 127
1, 1199839, Note_off_c, 0, 72, 127
1, 1199843, Note_on_c, 12, 71, 127
1, 1199992, Note_off_c, 4, 52, 127
1, 1199994, Note_off_c, 12, 71, 127
1, 1199998, Note_on_c, 0, 72, 127
1, 1199998, Note_on_c, 10, 57, 127
1, 1200280, Note_off_c, 4, 64, 127
1, 1200302, Note_off_c, 0, 72, 127
1, 1200307, Note_on_c, 4, 76, 127
1, 1200307, Note_on_c, 7, 67, 127
1, 1200603, Note_off_c, 0, 48, 127
1, 1200611, Note_off_c, 4, 76, 127
1, 1200617, Note_on_c, 10, 69, 127
1, 1200617, Note_on_c, 2, 50, 127
1, 1200899, Note_off_c, 10, 57, 127
1, 1200918, Note_off_c, 7, 67, 127
1, 1200921, Note_off_c, 10, 69, 127
1, 1200926, Note_on_c, 2, 74, 127
1, 1200926, Note_on_c, 6, 66, 127
1, 1200926, Note_on_c, 10, 57, 127
1, 1201077, Note_off_c, 10, 57, 127
1, 1201077, Note_off_c, 6, 66, 127
1, 1201081, Note_on_c, 4, 64, 127
1, 1201081, Note_on_c, 7, 55, 127
1, 1201232, Note_off_c, 7, 55, 127
1, 1201232, Note_off_c, 4, 64, 127
1, 1201236, Note_on_c, 6, 66, 127
1, 1201236, Note_on_c, 10, 57, 127
1, 1201537, Note_off_c, 2, 74, 127
1, 1201540, Note_off_c, 10, 57, 127
1, 1201540, Note_off_c, 6, 66, 127
1, 1201545, Note_on_c, 0, 72, 127
1, 1201545, Note_on_c, 10, 69, 127
1, 1201545, Note_on_c, 6, 54, 127
1, 1201841, Note_off_c, 2, 50, 127
1, 1201849, Note_off_c, 6, 54, 127
1, 1201855, Note_on_c, 2, 62, 127
1, 1201855, Note_on_c, 7, 43, 127
1, 1202130, Note_off_c, 0, 72, 127
1, 1202156, Note_off_c, 10, 69, 127
1, 1202164, Note_on_c, 12, 71, 127
1, 1202164, Note_on_c, 7, 67, 127
1, 1202315, Note_off_c, 7, 67, 127
1, 1202315, Note_off_c, 12, 71, 127
1, 1202319, Note_on_c, 10, 69, 127
1, 1202319, Note_on_c, 6, 66, 127
1, 1202466, Note_off_c, 2, 62, 127
1, 1202470, Note_off_c, 6, 66, 127
1, 1202470, Note_off_c, 10, 69, 127
1, 1202474, Note_on_c, 12, 71, 127
1, 1202474, Note_on_c, 7, 67, 127
1, 1202778, Note_off_c, 7, 67, 127
1, 1202778, Note_off_c, 12, 71, 127
1, 1202783, Note_on_c, 12, 71, 127
1, 1203093, Note_on_c, 4, 64, 127
1, 1203390, Note_off_c, 7, 43, 127
1, 1203394, Note_off_c, 12, 71, 127
1, 1203402, Note_on_c, 12, 71, 127
1, 1203402, Note_on_c, 7, 55, 127
1, 1203554, Note_off_c, 7, 55, 127
1, 1203554, Note_off_c, 12, 71, 127
1, 1203558, Note_on_c, 10, 69, 127
1, 1203558, Note_on_c, 6, 54, 127
1, 1203705, Note_off_c, 4, 64, 127
1, 1203709, Note_off_c, 6, 54, 127
1, 1203709, Note_off_c, 10, 69, 127
1, 1203713, Note_on_c, 12, 71, 127
1, 1203713, Note_on_c, 4, 64, 127
1, 1203713, Note_on_c, 7, 55, 127
1, 1204023, Note_on_c, 4, 76, 127
1, 1204324, Note_off_c, 12, 71, 127
1, 1204327, Note_off_c, 4, 76, 127
1, 1204332, Note_on_c, 1, 73, 127
1, 1204332, Note_on_c, 10, 69, 127
1, 1204614, Note_off_c, 4, 64, 127
1, 1204630, Note_off_c, 7, 55, 127
1, 1204636, Note_off_c, 1, 73, 127
1, 1204642, Note_on_c, 10, 81, 127
1, 1204642, Note_on_c, 2, 62, 127
1, 1204642, Note_on_c, 6, 54, 127
1, 1204793, Note_off_c, 6, 54, 127
1, 1204793, Note_off_c, 2, 62, 127
1, 1204796, Note_on_c, 1, 61, 127
1, 1204796, Note_on_c, 4, 52, 127
1, 1204943, Note_off_c, 10, 69, 127
1, 1204947, Note_off_c, 4, 52, 127
1, 1204947, Note_off_c, 1, 61, 127
1, 1204951, Note_on_c, 2, 74, 127
1, 1204951, Note_on_c, 2, 62, 127
1, 1204951, Note_on_c, 6, 54, 127
1, 1205253, Note_off_c, 10, 81, 127
1, 1205255, Note_off_c, 6, 54, 127
1, 1205261, Note_on_c, 7, 79, 127
1, 1205261, Note_on_c, 12, 59, 127
1, 1205412, Note_off_c, 7, 79, 127
1, 1205415, Note_on_c, 6, 78, 127
1, 1205562, Note_off_c, 2, 74, 127
1, 1205565, Note_off_c, 12, 59, 127
1, 1205566, Note_off_c, 6, 78, 127
1, 1205570, Note_on_c, 10, 81, 127
1, 1205570, Note_on_c, 4, 76, 127
1, 1205570, Note_on_c, 4, 52, 127
1, 1205673, Note_on_c, 7, 79, 127
1, 1205683, Note_off_c, 10, 81, 127
1, 1205777, Note_on_c, 10, 81, 127
1, 1205787, Note_off_c, 7, 79, 127
1, 1205854, Note_off_c, 2, 62, 127
1, 1205881, Note_on_c, 7, 79, 127
1, 1205881, Note_on_c, 1, 61, 127
1, 1205891, Note_off_c, 10, 81, 127
1, 1205985, Note_on_c, 10, 81, 127
1, 1205995, Note_off_c, 7, 79, 127
1, 1206033, Note_off_c, 1, 61, 127
1, 1206037, Note_on_c, 12, 59, 127
1, 1206088, Note_on_c, 7, 79, 127
1, 1206099, Note_off_c, 10, 81, 127
1, 1206189, Note_off_c, 12, 59, 127
1, 1206192, Note_on_c, 10, 81, 127
1, 1206192, Note_on_c, 1, 61, 127
1, 1206202, Note_off_c, 7, 79, 127
1, 1206296, Note_on_c, 7, 79, 127
1, 1206306, Note_off_c, 10, 81, 127
1, 1206400, Note_on_c, 10, 81, 127
1, 1206410, Note_off_c, 7, 79, 127
1, 1206492, Note_off_c, 4, 52, 127
1, 1206498, Note_off_c, 1, 61, 127
1, 1206504, Note_on_c, 7, 79, 127
1, 1206504, Note_on_c, 4, 64, 127
1, 1206504, Note_on_c, 2, 50, 127
1, 1206514, Note_off_c, 10, 81, 127
1, 1206608, Note_on_c, 10, 81, 127
1, 1206618, Note_off_c, 7, 79, 127
1, 1206712, Note_on_c, 7, 79, 127
1, 1206722, Note_off_c, 10, 81, 127
1, 1206810, Note_off_c, 4, 64, 127
1, 1206816, Note_on_c, 10, 81, 127
1, 1206816, Note_on_c, 10, 57, 127
1, 1206826, Note_off_c, 7, 79, 127
1, 1206920, Note_on_c, 7, 79, 127
1, 1206930, Note_off_c, 10, 81, 127
1, 1207023, Note_on_c, 10, 81, 127
1, 1207034, Note_off_c, 7, 79, 127
1, 1207119, Note_off_c, 2, 50, 127
1, 1207127, Note_on_c, 7, 79, 127
1, 1207127, Note_on_c, 1, 49, 127
1, 1207137, Note_off_c, 10, 81, 127
1, 1207231, Note_on_c, 10, 81, 127
1, 1207241, Note_off_c, 7, 79, 127
1, 1207279, Note_off_c, 1, 49, 127
1, 1207283, Note_on_c, 12, 47, 127
1, 1207335, Note_on_c, 7, 79, 127
1, 1207345, Note_off_c, 10, 81, 127
1, 1207435, Note_off_c, 12, 47, 127
1, 1207439, Note_on_c, 10, 81, 127
1, 1207439, Note_on_c, 1, 49, 127
1, 1207449, Note_off_c, 7, 79, 127
1, 1207543, Note_on_c, 7, 79, 127
1, 1207553, Note_off_c, 10, 81, 127
1, 1207647, Note_on_c, 10, 81, 127
1, 1207657, Note_off_c, 7, 79, 127
1, 1207745, Note_off_c, 1, 49, 127
1, 1207751, Note_on_c, 7, 79, 127
1, 1207751, Note_on_c, 4, 52, 127
1, 1207761, Note_off_c, 10, 81, 127
1, 1207854, Note_on_c, 10, 81, 127
1, 1207865, Note_off_c, 7, 79, 127
1, 1207958, Note_on_c, 7, 79, 127
1, 1207968, Note_off_c, 10, 81, 127
1, 1208048, Note_off_c, 10, 57, 127
1, 1208057, Note_off_c, 4, 52, 127
1, 1208062, Note_on_c, 10, 81, 127
1, 1208062, Note_on_c, 6, 42, 127
1, 1208072, Note_off_c, 7, 79, 127
1, 1208214, Note_off_c, 10, 81, 127
1, 1208218, Note_on_c, 7, 79, 127
1, 1208348, Note_off_c, 4, 76, 127
1, 1208369, Note_off_c, 7, 79, 127
1, 1208373, Note_on_c, 6, 78, 127
1, 1208373, Note_on_c, 2, 74, 127
1, 1208525, Note_off_c, 2, 74, 127
1, 1208525, Note_off_c, 6, 78, 127
1, 1208529, Note_on_c, 4, 76, 127
1, 1208529, Note_on_c, 1, 73, 127
1, 1208675, Note_off_c, 6, 42, 127
1, 1208680, Note_off_c, 1, 73, 127
1, 1208680, Note_off_c, 4, 76, 127
1, 1208683, Note_on_c, 6, 78, 127
1, 1208683, Note_on_c, 2, 74, 127
1, 1208683, Note_on_c, 10, 57, 127
1, 1208683, Note_on_c, 6, 54, 127
1, 1208987, Note_off_c, 2, 74, 127
1, 1208987, Note_off_c, 6, 78, 127
1, 1208993, Note_on_c, 10, 81, 127
1, 1208993, Note_on_c, 6, 78, 127
1, 1209294, Note_off_c, 6, 54, 127
1, 1209297, Note_off_c, 6, 78, 127
1, 1209297, Note_off_c, 10, 81, 127
1, 1209302, Note_on_c, 2, 74, 127
1, 1209302, Note_on_c, 12, 71, 127
1, 1209302, Note_on_c, 7, 43, 127
1, 1209584, Note_off_c, 10, 57, 127
1, 1209612, Note_on_c, 7, 55, 127
1, 1209763, Note_off_c, 7, 55, 127
1, 1209767, Note_on_c, 6, 54, 127
1, 1209913, Note_off_c, 7, 43, 127
1, 1209913, Note_off_c, 2, 74, 127
1, 1209918, Note_off_c, 6, 54, 127
1, 1209921, Note_on_c, 7, 79, 127
1, 1209921, Note_on_c, 7, 55, 127
1, 1209921, Note_on_c, 4, 52, 127
1, 1210203, Note_off_c, 12, 71, 127
1, 1210225, Note_off_c, 7, 55, 127
1, 1210231, Note_on_c, 4, 76, 127
1, 1210231, Note_on_c, 12, 59, 127
1, 1210382, Note_off_c, 4, 76, 127
1, 1210386, Note_on_c, 2, 74, 127
1, 1210532, Note_off_c, 4, 52, 127
1, 1210535, Note_off_c, 12, 59, 127
1, 1210537, Note_off_c, 2, 74, 127
1, 1210540, Note_on_c, 4, 76, 127
1, 1210540, Note_on_c, 1, 49, 127
1, 1210540, Note_on_c, 10, 45, 127
1, 1210814, Note_off_c, 7, 79, 127
1, 1210844, Note_off_c, 1, 49, 127
1, 1210844, Note_off_c, 4, 76, 127
1, 1210850, Note_on_c, 6, 78, 127
1, 1210850, Note_on_c, 2, 74, 127
1, 1210850, Note_on_c, 2, 50, 127
1, 1211154, Note_off_c, 2, 50, 127
1, 1211154, Note_off_c, 6, 78, 127
1, 1211160, Note_on_c, 4, 76, 127
1, 1211160, Note_on_c, 4, 52, 127
1, 1211311, Note_off_c, 4, 52, 127
1, 1211314, Note_on_c, 6, 54, 127
1, 1211461, Note_off_c, 2, 74, 127
1, 1211465, Note_off_c, 6, 54, 127
1, 1211469, Note_on_c, 1, 73, 127
1, 1211469, Note_on_c, 7, 55, 127
1, 1211764, Note_off_c, 10, 45, 127
1, 1211771, Note_off_c, 4, 76, 127
1, 1211773, Note_off_c, 1, 73, 127
1, 1211779, Note_on_c, 2, 74, 127
1, 1211779, Note_on_c, 2, 50, 127
1, 1212080, Note_off_c, 7, 55, 127
1, 1212088, Note_on_c, 10, 69, 127
1, 1212088, Note_on_c, 6, 54, 127
1, 1212239, Note_off_c, 6, 54, 127
1, 1212239, Note_off_c, 10, 69, 127
1, 1212243, Note_on_c, 7, 67, 127
1, 1212243, Note_on_c, 4, 52, 127
1, 1212394, Note_off_c, 4, 52, 127
1, 1212394, Note_off_c, 7, 67, 127
1, 1212398, Note_on_c, 10, 69, 127
1, 1212398, Note_on_c, 6, 54, 127
1, 1212944, Note_off_c, 2, 74, 127
1, 1212984, Note_off_c, 10, 69, 127
1, 1213003, Note_off_c, 2, 50, 127
1, 1213009, Note_off_c, 6, 54, 127
1, 1213017, Note_on_c, 2, 62, 127
1, 1213635, Note_on_c, 10, 81, 127
1, 1213933, Note_off_c, 2, 62, 127
1, 1213944, Note_on_c, 0, 60, 127
1, 1214248, Note_off_c, 0, 60, 127
1, 1214254, Note_on_c, 12, 59, 127
1, 1214528, Note_off_c, 10, 81, 127
1, 1214558, Note_off_c, 12, 59, 127
1, 1214563, Note_on_c, 7, 79, 127
1, 1214563, Note_on_c, 2, 62, 127
1, 1214714, Note_off_c, 7, 79, 127
1, 1214718, Note_on_c, 6, 78, 127
1, 1214867, Note_off_c, 2, 62, 127
1, 1214869, Note_off_c, 6, 78, 127
1, 1214873, Note_on_c, 7, 79, 127
1, 1214873, Note_on_c, 12, 71, 127
1, 1214873, Note_on_c, 7, 67, 127
1, 1215177, Note_off_c, 7, 67, 127
1, 1215177, Note_off_c, 7, 79, 127
1, 1215182, Note_on_c, 12, 83, 127
1, 1215182, Note_on_c, 7, 55, 127
1, 1215486, Note_off_c, 7, 55, 127
1, 1215486, Note_off_c, 12, 83, 127
1, 1215492, Note_on_c, 4, 76, 127
1, 1215492, Note_on_c, 0, 60, 127
1, 1215790, Note_off_c, 12, 71, 127
1, 1215796, Note_off_c, 0, 60, 127
1, 1215801, Note_on_c, 10, 69, 127
1, 1215801, Note_on_c, 4, 64, 127
1, 1215952, Note_off_c, 10, 69, 127
1, 1215956, Note_on_c, 7, 67, 127
1, 1216105, Note_off_c, 4, 64, 127
1, 1216107, Note_off_c, 7, 67, 127
1, 1216111, Note_on_c, 10, 69, 127
1, 1216111, Note_on_c, 0, 60, 127
1, 1216415, Note_off_c, 0, 60, 127
1, 1216415, Note_off_c, 10, 69, 127
1, 1216420, Note_on_c, 0, 72, 127
1, 1216420, Note_on_c, 10, 57, 127
1, 1216724, Note_off_c, 10, 57, 127
1, 1216724, Note_off_c, 0, 72, 127
1, 1216730, Note_on_c, 6, 66, 127
1, 1216730, Note_on_c, 12, 59, 127
1, 1216992, Note_off_c, 4, 76, 127
1, 1217034, Note_off_c, 12, 59, 127
1, 1217039, Note_on_c, 3, 75, 127
1, 1217039, Note_on_c, 12, 47, 127
1, 1217190, Note_off_c, 3, 75, 127
1, 1217194, Note_on_c, 1, 73, 127
1, 1217341, Note_off_c, 6, 66, 127
1, 1217343, Note_off_c, 12, 47, 127
1, 1217345, Note_off_c, 1, 73, 127
1, 1217349, Note_on_c, 3, 75, 127
1, 1217349, Note_on_c, 12, 71, 127
1, 1217349, Note_on_c, 6, 66, 127
1, 1217349, Note_on_c, 12, 59, 127
1, 1217653, Note_off_c, 12, 59, 127
1, 1217653, Note_off_c, 3, 75, 127
1, 1217658, Note_on_c, 6, 78, 127
1, 1217658, Note_on_c, 10, 57, 127
1, 1217960, Note_off_c, 12, 71, 127
1, 1217962, Note_off_c, 10, 57, 127
1, 1217962, Note_off_c, 6, 78, 127
1, 1217968, Note_on_c, 12, 83, 127
1, 1217968, Note_on_c, 7, 55, 127
1, 1218250, Note_off_c, 6, 66, 127
1, 1218272, Note_off_c, 12, 83, 127
1, 1218277, Note_on_c, 12, 71, 127
1, 1218277, Note_on_c, 4, 64, 127
1, 1218428, Note_off_c, 4, 64, 127
1, 1218432, Note_on_c, 3, 63, 127
1, 1218581, Note_off_c, 12, 71, 127
1, 1218583, Note_off_c, 3, 63, 127
1, 1218587, Note_on_c, 12, 83, 127
1, 1218587, Note_on_c, 7, 79, 127
1, 1218587, Note_on_c, 4, 64, 127
1, 1218891, Note_off_c, 4, 64, 127
1, 1218896, Note_on_c, 7, 67, 127
1, 1219192, Note_off_c, 7, 55, 127
1, 1219200, Note_off_c, 7, 67, 127
1, 1219206, Note_on_c, 0, 60, 127
1, 1219206, Note_on_c, 10, 57, 127
1, 1219488, Note_off_c, 7, 79, 127
1, 1219488, Note_off_c, 12, 83, 127
1, 1219510, Note_off_c, 0, 60, 127
1, 1219516, Note_on_c, 10, 81, 127
1, 1219516, Note_on_c, 6, 78, 127
1, 1219516, Note_on_c, 4, 64, 127
1, 1219667, Note_off_c, 6, 78, 127
1, 1219667, Note_off_c, 10, 81, 127
1, 1219670, Note_on_c, 7, 79, 127
1, 1219670, Note_on_c, 4, 76, 127
1, 1219820, Note_off_c, 4, 64, 127
1, 1219821, Note_off_c, 4, 76, 127
1, 1219821, Note_off_c, 7, 79, 127
1, 1219825, Note_on_c, 10, 81, 127
1, 1219825, Note_on_c, 6, 78, 127
1, 1219825, Note_on_c, 10, 69, 127
1, 1220129, Note_off_c, 6, 78, 127
1, 1220129, Note_off_c, 10, 81, 127
1, 1220135, Note_on_c, 0, 84, 127
1, 1220135, Note_on_c, 10, 81, 127
1, 1220430, Note_off_c, 10, 57, 127
1, 1220439, Note_off_c, 10, 81, 127
1, 1220439, Note_off_c, 0, 84, 127
1, 1220444, Note_on_c, 6, 78, 127
1, 1220444, Note_on_c, 3, 75, 127
1, 1220444, Note_on_c, 12, 59, 127
1, 1220742, Note_off_c, 10, 69, 127
1, 1220748, Note_off_c, 3, 75, 127
1, 1220748, Note_off_c, 6, 78, 127
1, 1220754, Note_on_c, 7, 79, 127
1, 1220754, Note_on_c, 4, 76, 127
1, 1220754, Note_on_c, 7, 67, 127
1, 1221058, Note_off_c, 7, 67, 127
1, 1221058, Note_off_c, 7, 79, 127
1, 1221063, Note_on_c, 10, 81, 127
1, 1221063, Note_on_c, 6, 66, 127
1, 1221365, Note_off_c, 4, 76, 127
1, 1221373, Note_on_c, 3, 75, 127
1, 1221668, Note_off_c, 12, 59, 127
1, 1221674, Note_off_c, 6, 66, 127
1, 1221677, Note_off_c, 3, 75, 127
1, 1221682, Note_on_c, 4, 76, 127
1, 1221682, Note_on_c, 4, 64, 127
1, 1221682, Note_on_c, 4, 52, 127
1, 1221964, Note_off_c, 10, 81, 127
1, 1221992, Note_on_c, 7, 79, 127
1, 1222143, Note_off_c, 7, 79, 127
1, 1222146, Note_on_c, 6, 78, 127
1, 1222293, Note_off_c, 4, 64, 127
1, 1222293, Note_off_c, 4, 76, 127
1, 1222297, Note_off_c, 6, 78, 127
1, 1222301, Note_on_c, 7, 79, 127
1, 1222301, Note_on_c, 12, 71, 127
1, 1222599, Note_off_c, 4, 52, 127
1, 1222605, Note_off_c, 7, 79, 127
1, 1222611, Note_on_c, 12, 83, 127
1, 1222611, Note_on_c, 2, 50, 127
1, 1222915, Note_off_c, 2, 50, 127
1, 1222915, Note_off_c, 12, 83, 127
1, 1222920, Note_on_c, 4, 76, 127
1, 1222920, Note_on_c, 0, 48, 127
1, 1223218, Note_off_c, 12, 71, 127
1, 1223230, Note_on_c, 10, 69, 127
1, 1223381, Note_off_c, 10, 69, 127
1, 1223385, Note_on_c, 7, 67, 127
1, 1223531, Note_off_c, 0, 48, 127
1, 1223536, Note_off_c, 7, 67, 127
1, 1223539, Note_on_c, 10, 69, 127
1, 1223539, Note_on_c, 0, 60, 127
1, 1223843, Note_off_c, 10, 69, 127
1, 1223849, Note_on_c, 0, 72, 127
1, 1224144, Note_off_c, 4, 76, 127
1, 1224153, Note_off_c, 0, 72, 127
1, 1224158, Note_on_c, 2, 74, 127
1, 1224158, Note_on_c, 6, 66, 127
1, 1224456, Note_off_c, 0, 60, 127
1, 1224462, Note_off_c, 6, 66, 127
1, 1224468, Note_on_c, 2, 62, 127
1, 1224468, Note_on_c, 12, 59, 127
1, 1224619, Note_off_c, 12, 59, 127
1, 1224623, Note_on_c, 10, 57, 127
1, 1224772, Note_off_c, 2, 62, 127
1, 1224774, Note_off_c, 10, 57, 127
1, 1224777, Note_on_c, 7, 67, 127
1, 1224777, Note_on_c, 12, 59, 127
1, 1225081, Note_off_c, 12, 59, 127
1, 1225087, Note_on_c, 4, 64, 127
1, 1225382, Note_off_c, 2, 74, 127
1, 1225391, Note_off_c, 4, 64, 127
1, 1225396, Note_on_c, 0, 72, 127
1, 1225396, Note_on_c, 10, 57, 127
1, 1225694, Note_off_c, 7, 67, 127
1, 1225706, Note_on_c, 6, 66, 127
1, 1225857, Note_off_c, 6, 66, 127
1, 1225861, Note_on_c, 4, 64, 127
1, 1226012, Note_off_c, 4, 64, 127
1, 1226015, Note_on_c, 6, 66, 127
1, 1226015, Note_on_c, 0, 60, 127
1, 1226313, Note_off_c, 10, 57, 127
1, 1226319, Note_off_c, 6, 66, 127
1, 1226325, Note_on_c, 10, 69, 127
1, 1226325, Note_on_c, 7, 55, 127
1, 1226629, Note_off_c, 7, 55, 127
1, 1226629, Note_off_c, 10, 69, 127
1, 1226634, Note_on_c, 2, 62, 127
1, 1226634, Note_on_c, 6, 54, 127
1, 1226916, Note_off_c, 0, 60, 127
1, 1226944, Note_on_c, 12, 59, 127
1, 1227095, Note_off_c, 12, 59, 127
1, 1227099, Note_on_c, 10, 57, 127
1, 1227237, Note_off_c, 0, 72, 127
1, 1227245, Note_off_c, 6, 54, 127
1, 1227245, Note_off_c, 2, 62, 127
1, 1227250, Note_off_c, 10, 57, 127
1, 1227254, Note_on_c, 2, 74, 127
1, 1227254, Note_on_c, 12, 59, 127
1, 1227254, Note_on_c, 7, 55, 127
1, 1227559, Note_off_c, 12, 59, 127
1, 1227564, Note_on_c, 2, 62, 127
1, 1227866, Note_off_c, 7, 55, 127
1, 1227868, Note_off_c, 2, 62, 127
1, 1227874, Note_on_c, 7, 55, 127
1, 1227874, Note_on_c, 4, 52, 127
1, 1228172, Note_off_c, 2, 74, 127
1, 1228183, Note_on_c, 0, 72, 127
1, 1228334, Note_off_c, 0, 72, 127
1, 1228338, Note_on_c, 12, 71, 127
1, 1228489, Note_off_c, 12, 71, 127
1, 1228493, Note_on_c, 0, 72, 127
1, 1228493, Note_on_c, 7, 67, 127
1, 1228791, Note_off_c, 4, 52, 127
1, 1228791, Note_off_c, 7, 55, 127
1, 1228797, Note_off_c, 0, 72, 127
1, 1228802, Note_on_c, 4, 76, 127
1, 1228802, Note_on_c, 12, 59, 127
1, 1228802, Note_on_c, 2, 50, 127
1, 1229106, Note_off_c, 2, 50, 127
1, 1229106, Note_off_c, 12, 59, 127
1, 1229106, Note_off_c, 4, 76, 127
1, 1229112, Note_on_c, 10, 69, 127
1, 1229112, Note_on_c, 4, 52, 127
1, 1229112, Note_on_c, 0, 48, 127
1, 1229410, Note_off_c, 7, 67, 127
1, 1229421, Note_on_c, 7, 67, 127
1, 1229572, Note_off_c, 7, 67, 127
1, 1229576, Note_on_c, 6, 66, 127
1, 1229723, Note_off_c, 0, 48, 127
1, 1229723, Note_off_c, 4, 52, 127
1, 1229727, Note_off_c, 6, 66, 127
1, 1229731, Note_on_c, 7, 67, 127
1, 1229731, Note_on_c, 10, 57, 127
1, 1229731, Note_on_c, 1, 49, 127
1, 1229880, Note_off_c, 10, 69, 127
1, 1229885, Note_on_c, 4, 76, 127
1, 1230037, Note_off_c, 4, 76, 127
1, 1230041, Note_on_c, 2, 74, 127
1, 1230192, Note_off_c, 2, 74, 127
1, 1230196, Note_on_c, 4, 76, 127
1, 1230343, Note_off_c, 1, 49, 127
1, 1230347, Note_off_c, 4, 76, 127
1, 1230351, Note_on_c, 10, 69, 127
1, 1230351, Note_on_c, 2, 50, 127
1, 1230634, Note_off_c, 10, 57, 127
1, 1230649, Note_off_c, 7, 67, 127
1, 1230655, Note_off_c, 10, 69, 127
1, 1230660, Note_on_c, 2, 74, 127
1, 1230660, Note_on_c, 6, 66, 127
1, 1230660, Note_on_c, 10, 57, 127
1, 1230811, Note_off_c, 10, 57, 127
1, 1230811, Note_off_c, 6, 66, 127
1, 1230815, Note_on_c, 4, 64, 127
1, 1230815, Note_on_c, 7, 55, 127
1, 1230966, Note_off_c, 7, 55, 127
1, 1230966, Note_off_c, 4, 64, 127
1, 1230970, Note_on_c, 6, 66, 127
1, 1230970, Note_on_c, 10, 57, 127
1, 1231271, Note_off_c, 2, 74, 127
1, 1231274, Note_off_c, 10, 57, 127
1, 1231274, Note_off_c, 6, 66, 127
1, 1231279, Note_on_c, 0, 72, 127
1, 1231279, Note_on_c, 10, 69, 127
1, 1231279, Note_on_c, 6, 54, 127
1, 1231575, Note_off_c, 2, 50, 127
1, 1231583, Note_off_c, 6, 54, 127
1, 1231589, Note_on_c, 2, 62, 127
1, 1231589, Note_on_c, 7, 43, 127
1, 1231890, Note_off_c, 10, 69, 127
1, 1231890, Note_off_c, 0, 72, 127
1, 1231898, Note_on_c, 12, 71, 127
1, 1231898, Note_on_c, 7, 67, 127
1, 1232049, Note_off_c, 7, 67, 127
1, 1232049, Note_off_c, 12, 71, 127
1, 1232053, Note_on_c, 10, 69, 127
1, 1232053, Note_on_c, 6, 66, 127
1, 1232204, Note_off_c, 6, 66, 127
1, 1232204, Note_off_c, 10, 69, 127
1, 1232208, Note_on_c, 12, 71, 127
1, 1232208, Note_on_c, 7, 67, 127
1, 1232813, Note_off_c, 7, 43, 127
1, 1232813, Note_off_c, 2, 62, 127
1, 1232819, Note_off_c, 7, 67, 127
1, 1232819, Note_off_c, 12, 71, 127
1, 1232832, Note_on_c, 7, 67, 127
1, 1233137, Note_off_c, 7, 67, 127
1, 1233153, Note_on_c, 12, 83, 127
1, 1233153, Note_on_c, 7, 67, 127
1, 1233304, Note_off_c, 12, 83, 127
1, 1233307, Note_on_c, 10, 81, 127
1, 1233457, Note_off_c, 7, 67, 127
1, 1233458, Note_off_c, 10, 81, 127
1, 1233462, Note_on_c, 7, 79, 127
1, 1233462, Note_on_c, 12, 83, 127
1, 1233613, Note_off_c, 12, 83, 127
1, 1233613, Note_off_c, 7, 79, 127
1, 1233617, Note_on_c, 6, 78, 127
1, 1233617, Note_on_c, 10, 81, 127
1, 1233768, Note_off_c, 10, 81, 127
1, 1233768, Note_off_c, 6, 78, 127
1, 1233772, Note_on_c, 4, 76, 127
1, 1233772, Note_on_c, 7, 79, 127
1, 1233923, Note_off_c, 7, 79, 127
1, 1233923, Note_off_c, 4, 76, 127
1, 1233926, Note_on_c, 2, 74, 127
1, 1233926, Note_on_c, 6, 78, 127
1, 1234077, Note_off_c, 6, 78, 127
1, 1234077, Note_off_c, 2, 74, 127
1, 1234081, Note_on_c, 1, 73, 127
1, 1234081, Note_on_c, 4, 76, 127
1, 1234232, Note_off_c, 4, 76, 127
1, 1234232, Note_off_c, 1, 73, 127
1, 1234236, Note_on_c, 12, 71, 127
1, 1234236, Note_on_c, 2, 74, 127
1, 1234387, Note_off_c, 2, 74, 127
1, 1234387, Note_off_c, 12, 71, 127
1, 1234391, Note_on_c, 10, 69, 127
1, 1234391, Note_on_c, 1, 73, 127
1, 1234542, Note_off_c, 1, 73, 127
1, 1234542, Note_off_c, 10, 69, 127
1, 1234545, Note_on_c, 7, 67, 127
1, 1234545, Note_on_c, 12, 71, 127
1, 1234696, Note_off_c, 12, 71, 127
1, 1234696, Note_off_c, 7, 67, 127
1, 1234700, Note_on_c, 6, 66, 127
1, 1234700, Note_on_c, 10, 69, 127
1, 1234851, Note_off_c, 10, 69, 127
1, 1234855, Note_on_c, 7, 67, 127
1, 1235004, Note_off_c, 6, 66, 127
1, 1235006, Note_off_c, 7, 67, 127
1, 1235010, Note_on_c, 10, 81, 127
1, 1235010, Note_on_c, 6, 66, 127
1, 1235161, Note_off_c, 10, 81, 127
1, 1235164, Note_on_c, 7, 79, 127
1, 1235314, Note_off_c, 6, 66, 127
1, 1235315, Note_off_c, 7, 79, 127
1, 1235319, Note_on_c, 6, 78, 127
1, 1235319, Note_on_c, 10, 81, 127
1, 1235470, Note_off_c, 10, 81, 127
1, 1235470, Note_off_c, 6, 78, 127
1, 1235474, Note_on_c, 4, 76, 127
1, 1235474, Note_on_c, 7, 79, 127
1, 1235625, Note_off_c, 7, 79, 127
1, 1235625, Note_off_c, 4, 76, 127
1, 1235629, Note_on_c, 2, 74, 127
1, 1235629, Note_on_c, 6, 78, 127
1, 1235780, Note_off_c, 6, 78, 127
1, 1235780, Note_off_c, 2, 74, 127
1, 1235783, Note_on_c, 1, 73, 127
1, 1235783, Note_on_c, 4, 76, 127
1, 1235934, Note_off_c, 4, 76, 127
1, 1235934, Note_off_c, 1, 73, 127
1, 1235938, Note_on_c, 12, 71, 127
1, 1235938, Note_on_c, 2, 74, 127
1, 1236089, Note_off_c, 2, 74, 127
1, 1236089, Note_off_c, 12, 71, 127
1, 1236093, Note_on_c, 10, 69, 127
1, 1236093, Note_on_c, 1, 73, 127
1, 1236244, Note_off_c, 1, 73, 127
1, 1236244, Note_off_c, 10, 69, 127
1, 1236248, Note_on_c, 7, 67, 127
1, 1236248, Note_on_c, 12, 71, 127
1, 1236399, Note_off_c, 12, 71, 127
1, 1236399, Note_off_c, 7, 67, 127
1, 1236402, Note_on_c, 6, 66, 127
1, 1236402, Note_on_c, 10, 69, 127
1, 1236553, Note_off_c, 10, 69, 127
1, 1236553, Note_off_c, 6, 66, 127
1, 1236557, Note_on_c, 4, 64, 127
1, 1236557, Note_on_c, 7, 67, 127
1, 1236708, Note_off_c, 7, 67, 127
1, 1236712, Note_on_c, 6, 66, 127
1, 1236861, Note_off_c, 4, 64, 127
1, 1236863, Note_off_c, 6, 66, 127
1, 1236867, Note_on_c, 7, 79, 127
1, 1236867, Note_on_c, 4, 64, 127
1, 1237018, Note_off_c, 7, 79, 127
1, 1237022, Note_on_c, 6, 78, 127
1, 1237171, Note_off_c, 4, 64, 127
1, 1237173, Note_off_c, 6, 78, 127
1, 1237176, Note_on_c, 4, 76, 127
1, 1237176, Note_on_c, 7, 79, 127
1, 1237327, Note_off_c, 7, 79, 127
1, 1237327, Note_off_c, 4, 76, 127
1, 1237331, Note_on_c, 2, 74, 127
1, 1237331, Note_on_c, 6, 78, 127
1, 1237482, Note_off_c, 6, 78, 127
1, 1237482, Note_off_c, 2, 74, 127
1, 1237486, Note_on_c, 1, 73, 127
1, 1237486, Note_on_c, 4, 76, 127
1, 1237637, Note_off_c, 4, 76, 127
1, 1237637, Note_off_c, 1, 73, 127
1, 1237641, Note_on_c, 12, 71, 127
1, 1237641, Note_on_c, 2, 74, 127
1, 1237792, Note_off_c, 2, 74, 127
1, 1237792, Note_off_c, 12, 71, 127
1, 1237795, Note_on_c, 10, 69, 127
1, 1237795, Note_on_c, 1, 73, 127
1, 1237946, Note_off_c, 1, 73, 127
1, 1237950, Note_on_c, 7, 67, 127
1, 1237950, Note_on_c, 12, 71, 127
1, 1237953, Note_off_c, 10, 69, 127
1, 1238102, Note_off_c, 12, 71, 127
1, 1238102, Note_off_c, 7, 67, 127
1, 1238106, Note_on_c, 6, 66, 127
1, 1238106, Note_on_c, 10, 69, 127
1, 1238257, Note_off_c, 10, 69, 127
1, 1238257, Note_off_c, 6, 66, 127
1, 1238261, Note_on_c, 4, 64, 127
1, 1238261, Note_on_c, 7, 67, 127
1, 1238412, Note_off_c, 7, 67, 127
1, 1238412, Note_off_c, 4, 64, 127
1, 1238415, Note_on_c, 2, 62, 127
1, 1238415, Note_on_c, 6, 66, 127
1, 1238566, Note_off_c, 6, 66, 127
1, 1238570, Note_on_c, 4, 64, 127
1, 1238721, Note_off_c, 4, 64, 127
1, 1238721, Note_off_c, 2, 62, 127
1, 1238725, Note_on_c, 2, 62, 127
1, 1238880, Note_on_c, 0, 60, 127
1, 1238954, Note_off_c, 0, 60, 127
1, 1238957, Note_on_c, 12, 59, 127
1, 1239031, Note_off_c, 12, 59, 127
1, 1239034, Note_on_c, 10, 57, 127
1, 1239108, Note_off_c, 10, 57, 127
1, 1239112, Note_on_c, 7, 55, 127
1, 1239186, Note_off_c, 7, 55, 127
1, 1239189, Note_on_c, 6, 54, 127
1, 1239263, Note_off_c, 6, 54, 127
1, 1239267, Note_on_c, 4, 52, 127
1, 1239341, Note_off_c, 4, 52, 127
1, 1239344, Note_on_c, 2, 50, 127
1, 1239493, Note_off_c, 2, 62, 127
1, 1239499, Note_on_c, 4, 64, 127
1, 1239574, Note_off_c, 4, 64, 127
1, 1239577, Note_on_c, 6, 66, 127
1, 1239651, Note_off_c, 6, 66, 127
1, 1239655, Note_on_c, 7, 67, 127
1, 1239729, Note_off_c, 7, 67, 127
1, 1239732, Note_on_c, 10, 69, 127
1, 1239806, Note_off_c, 10, 69, 127
1, 1239809, Note_on_c, 12, 71, 127
1, 1239883, Note_off_c, 12, 71, 127
1, 1239887, Note_on_c, 1, 73, 127
1, 1239961, Note_off_c, 1, 73, 127
1, 1239964, Note_on_c, 2, 74, 127
1, 1240113, Note_off_c, 2, 50, 127
1, 1240119, Note_on_c, 0, 48, 127
1, 1240271, Note_off_c, 0, 48, 127
1, 1240275, Note_on_c, 12, 47, 127
1, 1240576, Note_off_c, 2, 74, 127
1, 1240584, Note_on_c, 12, 59, 127
1, 1240735, Note_off_c, 12, 59, 127
1, 1240739, Note_on_c, 0, 60, 127
1, 1240886, Note_off_c, 12, 47, 127
1, 1240890, Note_off_c, 0, 60, 127
1, 1240894, Note_on_c, 12, 59, 127
1, 1240894, Note_on_c, 2, 62, 127
1, 1241045, Note_off_c, 2, 62, 127
1, 1241045, Note_off_c, 12, 59, 127
1, 1241048, Note_on_c, 0, 60, 127
1, 1241048, Note_on_c, 4, 64, 127
1, 1241199, Note_off_c, 4, 64, 127
1, 1241199, Note_off_c, 0, 60, 127
1, 1241203, Note_on_c, 2, 62, 127
1, 1241203, Note_on_c, 6, 66, 127
1, 1241354, Note_off_c, 6, 66, 127
1, 1241354, Note_off_c, 2, 62, 127
1, 1241358, Note_on_c, 4, 64, 127
1, 1241358, Note_on_c, 7, 67, 127
1, 1241509, Note_off_c, 7, 67, 127
1, 1241509, Note_off_c, 4, 64, 127
1, 1241513, Note_on_c, 6, 66, 127
1, 1241513, Note_on_c, 10, 69, 127
1, 1241664, Note_off_c, 10, 69, 127
1, 1241664, Note_off_c, 6, 66, 127
1, 1241667, Note_on_c, 7, 67, 127
1, 1241667, Note_on_c, 12, 71, 127
1, 1241818, Note_off_c, 12, 71, 127
1, 1241818, Note_off_c, 7, 67, 127
1, 1241822, Note_on_c, 10, 69, 127
1, 1241822, Note_on_c, 0, 72, 127
1, 1241973, Note_off_c, 0, 72, 127
1, 1241973, Note_off_c, 10, 69, 127
1, 1241977, Note_on_c, 12, 71, 127
1, 1241977, Note_on_c, 2, 74, 127
1, 1242128, Note_off_c, 2, 74, 127
1, 1242128, Note_off_c, 12, 71, 127
1, 1242132, Note_on_c, 0, 72, 127
1, 1242132, Note_on_c, 4, 76, 127
1, 1242283, Note_off_c, 0, 72, 127
1, 1242287, Note_on_c, 2, 74, 127
1, 1242436, Note_off_c, 4, 76, 127
1, 1242438, Note_off_c, 2, 74, 127
1, 1242441, Note_on_c, 4, 76, 127
1, 1242441, Note_on_c, 0, 60, 127
1, 1242592, Note_off_c, 0, 60, 127
1, 1242596, Note_on_c, 2, 62, 127
1, 1242745, Note_off_c, 4, 76, 127
1, 1242747, Note_off_c, 2, 62, 127
1, 1242751, Note_on_c, 0, 60, 127
1, 1242751, Note_on_c, 4, 64, 127
1, 1242902, Note_off_c, 4, 64, 127
1, 1242902, Note_off_c, 0, 60, 127
1, 1242906, Note_on_c, 2, 62, 127
1, 1242906, Note_on_c, 6, 66, 127
1, 1243057, Note_off_c, 6, 66, 127
1, 1243057, Note_off_c, 2, 62, 127
1, 1243060, Note_on_c, 4, 64, 127
1, 1243060, Note_on_c, 7, 67, 127
1, 1243211, Note_off_c, 7, 67, 127
1, 1243211, Note_off_c, 4, 64, 127
1, 1243215, Note_on_c, 6, 66, 127
1, 1243215, Note_on_c, 10, 69, 127
1, 1243366, Note_off_c, 10, 69, 127
1, 1243366, Note_off_c, 6, 66, 127
1, 1243370, Note_on_c, 7, 67, 127
1, 1243370, Note_on_c, 12, 71, 127
1, 1243521, Note_off_c, 12, 71, 127
1, 1243521, Note_off_c, 7, 67, 127
1, 1243525, Note_on_c, 10, 69, 127
1, 1243525, Note_on_c, 0, 72, 127
1, 1243676, Note_off_c, 0, 72, 127
1, 1243676, Note_off_c, 10, 69, 127
1, 1243679, Note_on_c, 12, 71, 127
1, 1243679, Note_on_c, 2, 74, 127
1, 1243830, Note_off_c, 2, 74, 127
1, 1243830, Note_off_c, 12, 71, 127
1, 1243834, Note_on_c, 0, 72, 127
1, 1243834, Note_on_c, 4, 76, 127
1, 1243985, Note_off_c, 4, 76, 127
1, 1243985, Note_off_c, 0, 72, 127
1, 1243989, Note_on_c, 2, 74, 127
1, 1243989, Note_on_c, 6, 78, 127
1, 1244140, Note_off_c, 2, 74, 127
1, 1244144, Note_on_c, 4, 76, 127
1, 1244293, Note_off_c, 6, 78, 127
1, 1244295, Note_off_c, 4, 76, 127
1, 1244298, Note_on_c, 6, 78, 127
1, 1244298, Note_on_c, 2, 62, 127
1, 1244449, Note_off_c, 2, 62, 127
1, 1244453, Note_on_c, 4, 64, 127
1, 1244602, Note_off_c, 6, 78, 127
1, 1244604, Note_off_c, 4, 64, 127
1, 1244608, Note_on_c, 2, 62, 127
1, 1244608, Note_on_c, 6, 66, 127
1, 1244759, Note_off_c, 6, 66, 127
1, 1244759, Note_off_c, 2, 62, 127
1, 1244763, Note_on_c, 4, 64, 127
1, 1244763, Note_on_c, 7, 67, 127
1, 1244914, Note_off_c, 7, 67, 127
1, 1244914, Note_off_c, 4, 64, 127
1, 1244917, Note_on_c, 6, 66, 127
1, 1244917, Note_on_c, 10, 69, 127
1, 1245068, Note_off_c, 10, 69, 127
1, 1245068, Note_off_c, 6, 66, 127
1, 1245072, Note_on_c, 7, 67, 127
1, 1245072, Note_on_c, 12, 71, 127
1, 1245223, Note_off_c, 12, 71, 127
1, 1245223, Note_off_c, 7, 67, 127
1, 1245227, Note_on_c, 10, 69, 127
1, 1245227, Note_on_c, 0, 72, 127
1, 1245378, Note_off_c, 0, 72, 127
1, 1245378, Note_off_c, 10, 69, 127
1, 1245382, Note_on_c, 12, 71, 127
1, 1245382, Note_on_c, 2, 74, 127
1, 1245533, Note_off_c, 2, 74, 127
1, 1245533, Note_off_c, 12, 71, 127
1, 1245536, Note_on_c, 0, 72, 127
1, 1245536, Note_on_c, 4, 76, 127
1, 1245687, Note_off_c, 4, 76, 127
1, 1245687, Note_off_c, 0, 72, 127
1, 1245691, Note_on_c, 10, 69, 127
1, 1245691, Note_on_c, 6, 78, 127
1, 1245842, Note_off_c, 6, 78, 127
1, 1245842, Note_off_c, 10, 69, 127
1, 1245846, Note_on_c, 12, 71, 127
1, 1245846, Note_on_c, 7, 79, 127
1, 1245920, Note_off_c, 12, 71, 127
1, 1245923, Note_on_c, 7, 67, 127
1, 1245997, Note_off_c, 7, 67, 127
1, 1246001, Note_on_c, 10, 69, 127
1, 1246075, Note_off_c, 10, 69, 127
1, 1246078, Note_on_c, 12, 71, 127
1, 1246152, Note_off_c, 12, 71, 127
1, 1246156, Note_on_c, 0, 72, 127
1, 1246230, Note_off_c, 0, 72, 127
1, 1246233, Note_on_c, 2, 74, 127
1, 1246307, Note_off_c, 2, 74, 127
1, 1246310, Note_on_c, 4, 76, 127
1, 1246384, Note_off_c, 4, 76, 127
1, 1246388, Note_on_c, 6, 78, 127
1, 1246453, Note_off_c, 7, 79, 127
1, 1246462, Note_off_c, 6, 78, 127
1, 1246465, Note_on_c, 7, 79, 127
1, 1246620, Note_on_c, 6, 78, 127
1, 1246694, Note_off_c, 6, 78, 127
1, 1246697, Note_on_c, 4, 76, 127
1, 1246771, Note_off_c, 4, 76, 127
1, 1246775, Note_on_c, 2, 74, 127
1, 1246849, Note_off_c, 2, 74, 127
1, 1246852, Note_on_c, 0, 72, 127
1, 1246926, Note_off_c, 0, 72, 127
1, 1246929, Note_on_c, 12, 71, 127
1, 1247003, Note_off_c, 12, 71, 127
1, 1247007, Note_on_c, 10, 69, 127
1, 1247075, Note_off_c, 7, 79, 127
1, 1247082, Note_off_c, 10, 69, 127
1, 1247085, Note_on_c, 7, 67, 127
1, 1247240, Note_on_c, 6, 66, 127
1, 1247314, Note_off_c, 6, 66, 127
1, 1247317, Note_on_c, 4, 64, 127
1, 1247391, Note_off_c, 4, 64, 127
1, 1247395, Note_on_c, 2, 62, 127
1, 1247469, Note_off_c, 2, 62, 127
1, 1247472, Note_on_c, 0, 60, 127
1, 1247546, Note_off_c, 0, 60, 127
1, 1247549, Note_on_c, 12, 59, 127
1, 1247623, Note_off_c, 12, 59, 127
1, 1247627, Note_on_c, 10, 57, 127
1, 1247695, Note_off_c, 7, 67, 127
1, 1247702, Note_off_c, 10, 57, 127
1, 1247705, Note_on_c, 7, 55, 127
1, 1247860, Note_on_c, 2, 74, 127
1, 1247860, Note_on_c, 12, 83, 127
1, 1248011, Note_off_c, 12, 83, 127
1, 1248011, Note_off_c, 2, 74, 127
1, 1248015, Note_on_c, 2, 74, 127
1, 1248015, Note_on_c, 12, 83, 127
1, 1248153, Note_off_c, 7, 55, 127
1, 1248170, Note_on_c, 10, 57, 127
1, 1248321, Note_off_c, 10, 57, 127
1, 1248324, Note_on_c, 12, 59, 127
1, 1248398, Note_off_c, 12, 59, 127
1, 1248400, Note_off_c, 12, 83, 127
1, 1248400, Note_off_c, 2, 74, 127
1, 1248402, Note_on_c, 10, 57, 127
1, 1248402, Note_on_c, 7, 79, 127
1, 1248477, Note_off_c, 7, 79, 127
1, 1248477, Note_off_c, 10, 57, 127
1, 1248480, Note_on_c, 12, 59, 127
1, 1248480, Note_on_c, 6, 78, 127
1, 1248554, Note_off_c, 6, 78, 127
1, 1248557, Note_on_c, 4, 76, 127
1, 1248631, Note_off_c, 4, 76, 127
1, 1248635, Note_on_c, 2, 74, 127
1, 1248784, Note_off_c, 12, 59, 127
1, 1248790, Note_on_c, 0, 60, 127
1, 1248941, Note_off_c, 0, 60, 127
1, 1248944, Note_on_c, 2, 62, 127
1, 1249018, Note_off_c, 2, 62, 127
1, 1249020, Note_off_c, 2, 74, 127
1, 1249022, Note_on_c, 0, 60, 127
1, 1249022, Note_on_c, 0, 72, 127
1, 1249097, Note_off_c, 0, 72, 127
1, 1249097, Note_off_c, 0, 60, 127
1, 1249100, Note_on_c, 2, 62, 127
1, 1249100, Note_on_c, 12, 71, 127
1, 1249174, Note_off_c, 12, 71, 127
1, 1249178, Note_on_c, 10, 69, 127
1, 1249252, Note_off_c, 10, 69, 127
1, 1249255, Note_on_c, 7, 67, 127
1, 1249404, Note_off_c, 2, 62, 127
1, 1249410, Note_on_c, 4, 64, 127
1, 1249559, Note_off_c, 7, 67, 127
1, 1249561, Note_off_c, 4, 64, 127
1, 1249564, Note_on_c, 6, 66, 127
1, 1249638, Note_off_c, 6, 66, 127
1, 1249642, Note_on_c, 4, 64, 127
1, 1249716, Note_off_c, 4, 64, 127
1, 1249719, Note_on_c, 6, 66, 127
1, 1249719, Note_on_c, 2, 74, 127
1, 1249719, Note_on_c, 10, 81, 127
1, 1249870, Note_off_c, 10, 81, 127
1, 1249870, Note_off_c, 2, 74, 127
1, 1249874, Note_on_c, 2, 74, 127
1, 1249874, Note_on_c, 10, 81, 127
1, 1250023, Note_off_c, 6, 66, 127
1, 1250029, Note_on_c, 7, 67, 127
1, 1250180, Note_off_c, 7, 67, 127
1, 1250184, Note_on_c, 10, 69, 127
1, 1250255, Note_off_c, 2, 74, 127
1, 1250258, Note_off_c, 10, 69, 127
1, 1250259, Note_off_c, 10, 81, 127
1, 1250261, Note_on_c, 7, 67, 127
1, 1250261, Note_on_c, 2, 74, 127
1, 1250336, Note_off_c, 2, 74, 127
1, 1250336, Note_off_c, 7, 67, 127
1, 1250339, Note_on_c, 10, 69, 127
1, 1250339, Note_on_c, 1, 73, 127
1, 1250413, Note_off_c, 1, 73, 127
1, 1250417, Note_on_c, 12, 71, 127
1, 1250486, Note_off_c, 10, 69, 127
1, 1250492, Note_off_c, 12, 71, 127
1, 1250495, Note_on_c, 10, 69, 127
1, 1250650, Note_on_c, 12, 71, 127
1, 1250801, Note_off_c, 12, 71, 127
1, 1250805, Note_on_c, 1, 73, 127
1, 1250879, Note_off_c, 1, 73, 127
1, 1250880, Note_off_c, 10, 69, 127
1, 1250882, Note_on_c, 12, 71, 127
1, 1250882, Note_on_c, 7, 67, 127
1, 1250957, Note_off_c, 7, 67, 127
1, 1250957, Note_off_c, 12, 71, 127
1, 1250961, Note_on_c, 1, 73, 127
1, 1250961, Note_on_c, 6, 66, 127
1, 1251035, Note_off_c, 6, 66, 127
1, 1251038, Note_on_c, 4, 64, 127
1, 1251112, Note_off_c, 4, 64, 127
1, 1251115, Note_on_c, 2, 62, 127
1, 1251265, Note_off_c, 1, 73, 127
1, 1251270, Note_on_c, 2, 74, 127
1, 1251421, Note_off_c, 2, 74, 127
1, 1251425, Note_on_c, 4, 76, 127
1, 1251430, Note_off_c, 2, 62, 127
1, 1251500, Note_off_c, 4, 76, 127
1, 1251503, Note_on_c, 2, 74, 127
1, 1251577, Note_off_c, 2, 74, 127
1, 1251581, Note_on_c, 4, 76, 127
1, 1251581, Note_on_c, 7, 79, 127
1, 1251581, Note_on_c, 12, 71, 127
1, 1251732, Note_off_c, 12, 71, 127
1, 1251732, Note_off_c, 7, 79, 127
1, 1251735, Note_on_c, 7, 79, 127
1, 1251735, Note_on_c, 12, 71, 127
1, 1251885, Note_off_c, 4, 76, 127
1, 1251890, Note_on_c, 6, 78, 127
1, 1252041, Note_off_c, 6, 78, 127
1, 1252041, Note_off_c, 7, 79, 127
1, 1252045, Note_on_c, 7, 79, 127
1, 1252119, Note_off_c, 7, 79, 127
1, 1252120, Note_off_c, 12, 71, 127
1, 1252122, Note_on_c, 6, 78, 127
1, 1252122, Note_on_c, 0, 72, 127
1, 1252197, Note_off_c, 0, 72, 127
1, 1252197, Note_off_c, 6, 78, 127
1, 1252201, Note_on_c, 7, 79, 127
1, 1252201, Note_on_c, 12, 71, 127
1, 1252275, Note_off_c, 12, 71, 127
1, 1252278, Note_on_c, 10, 69, 127
1, 1252352, Note_off_c, 10, 69, 127
1, 1252355, Note_on_c, 7, 67, 127
1, 1252505, Note_off_c, 7, 79, 127
1, 1252510, Note_on_c, 10, 81, 127
1, 1252661, Note_off_c, 10, 81, 127
1, 1252665, Note_on_c, 12, 83, 127
1, 1252739, Note_off_c, 12, 83, 127
1, 1252740, Note_off_c, 7, 67, 127
1, 1252742, Note_on_c, 10, 81, 127
1, 1252742, Note_on_c, 10, 69, 127
1, 1252817, Note_off_c, 10, 69, 127
1, 1252817, Note_off_c, 10, 81, 127
1, 1252821, Note_on_c, 12, 83, 127
1, 1252821, Note_on_c, 7, 67, 127
1, 1252895, Note_off_c, 7, 67, 127
1, 1252898, Note_on_c, 6, 66, 127
1, 1252972, Note_off_c, 6, 66, 127
1, 1252976, Note_on_c, 4, 64, 127
1, 1253125, Note_off_c, 12, 83, 127
1, 1253130, Note_on_c, 2, 74, 127
1, 1253280, Note_off_c, 4, 64, 127
1, 1253281, Note_off_c, 2, 74, 127
1, 1253285, Note_on_c, 1, 73, 127
1, 1253359, Note_off_c, 1, 73, 127
1, 1253362, Note_on_c, 12, 71, 127
1, 1253436, Note_off_c, 12, 71, 127
1, 1253440, Note_on_c, 1, 73, 127
1, 1253440, Note_on_c, 7, 79, 127
1, 1253440, Note_on_c, 10, 69, 127
1, 1253591, Note_off_c, 10, 69, 127
1, 1253591, Note_off_c, 7, 79, 127
1, 1253595, Note_on_c, 10, 69, 127
1, 1253595, Note_on_c, 7, 79, 127
1, 1253744, Note_off_c, 1, 73, 127
1, 1253749, Note_on_c, 4, 76, 127
1, 1253900, Note_off_c, 4, 76, 127
1, 1253904, Note_on_c, 7, 67, 127
1, 1253978, Note_off_c, 7, 67, 127
1, 1253978, Note_off_c, 10, 69, 127
1, 1253980, Note_off_c, 7, 79, 127
1, 1253982, Note_on_c, 6, 66, 127
1, 1254057, Note_off_c, 6, 66, 127
1, 1254060, Note_on_c, 7, 67, 127
1, 1254060, Note_on_c, 4, 64, 127
1, 1254134, Note_off_c, 4, 64, 127
1, 1254137, Note_on_c, 2, 62, 127
1, 1254211, Note_off_c, 2, 62, 127
1, 1254215, Note_on_c, 1, 61, 127
1, 1254364, Note_off_c, 7, 67, 127
1, 1254369, Note_on_c, 12, 71, 127
1, 1254520, Note_off_c, 12, 71, 127
1, 1254524, Note_on_c, 12, 71, 127
1, 1254600, Note_off_c, 1, 61, 127
1, 1254602, Note_on_c, 2, 62, 127
1, 1254676, Note_off_c, 12, 71, 127
1, 1254677, Note_off_c, 2, 62, 127
1, 1254680, Note_on_c, 10, 69, 127
1, 1254680, Note_on_c, 1, 61, 127
1, 1254754, Note_off_c, 1, 61, 127
1, 1254754, Note_off_c, 10, 69, 127
1, 1254757, Note_on_c, 12, 71, 127
1, 1254757, Note_on_c, 12, 59, 127
1, 1254831, Note_off_c, 12, 59, 127
1, 1254831, Note_off_c, 12, 71, 127
1, 1254835, Note_on_c, 10, 69, 127
1, 1254835, Note_on_c, 10, 57, 127
1, 1254986, Note_off_c, 10, 69, 127
1, 1254990, Note_on_c, 7, 67, 127
1, 1255139, Note_off_c, 10, 57, 127
1, 1255141, Note_off_c, 7, 67, 127
1, 1255144, Note_on_c, 6, 66, 127
1, 1255218, Note_off_c, 6, 66, 127
1, 1255222, Note_on_c, 4, 64, 127
1, 1255296, Note_off_c, 4, 64, 127
1, 1255299, Note_on_c, 6, 66, 127
1, 1255299, Note_on_c, 10, 69, 127
1, 1255450, Note_off_c, 10, 69, 127
1, 1255454, Note_on_c, 10, 81, 127
1, 1255603, Note_off_c, 6, 66, 127
1, 1255605, Note_off_c, 10, 81, 127
1, 1255609, Note_on_c, 10, 57, 127
1, 1255609, Note_on_c, 7, 79, 127
1, 1255760, Note_off_c, 7, 79, 127
1, 1255760, Note_off_c, 10, 57, 127
1, 1255763, Note_on_c, 10, 69, 127
1, 1255763, Note_on_c, 6, 78, 127
1, 1255914, Note_off_c, 6, 78, 127
1, 1255914, Note_off_c, 10, 69, 127
1, 1255918, Note_on_c, 7, 67, 127
1, 1255918, Note_on_c, 4, 76, 127
1, 1256069, Note_off_c, 4, 76, 127
1, 1256069, Note_off_c, 7, 67, 127
1, 1256073, Note_on_c, 6, 66, 127
1, 1256073, Note_on_c, 2, 74, 127
1, 1256224, Note_off_c, 2, 74, 127
1, 1256224, Note_off_c, 6, 66, 127
1, 1256228, Note_on_c, 4, 64, 127
1, 1256228, Note_on_c, 0, 72, 127
1, 1256379, Note_off_c, 0, 72, 127
1, 1256379, Note_off_c, 4, 64, 127
1, 1256382, Note_on_c, 2, 62, 127
1, 1256382, Note_on_c, 12, 71, 127
1, 1256533, Note_off_c, 12, 71, 127
1, 1256533, Note_off_c, 2, 62, 127
1, 1256537, Note_on_c, 0, 60, 127
1, 1256537, Note_on_c, 10, 69, 127
1, 1256688, Note_off_c, 10, 69, 127
1, 1256688, Note_off_c, 0, 60, 127
1, 1256692, Note_on_c, 12, 59, 127
1, 1256692, Note_on_c, 7, 67, 127
1, 1256843, Note_off_c, 7, 67, 127
1, 1256843, Note_off_c, 12, 59, 127
1, 1256847, Note_on_c, 10, 57, 127
1, 1256847, Note_on_c, 6, 66, 127
1, 1256998, Note_off_c, 6, 66, 127
1, 1256998, Note_off_c, 10, 57, 127
1, 1257001, Note_on_c, 7, 55, 127
1, 1257001, Note_on_c, 12, 71, 127
1, 1257152, Note_off_c, 12, 71, 127
1, 1257152, Note_off_c, 7, 55, 127
1, 1257156, Note_on_c, 12, 59, 127
1, 1257156, Note_on_c, 7, 67, 127
1, 1257307, Note_off_c, 7, 67, 127
1, 1257307, Note_off_c, 12, 59, 127
1, 1257311, Note_on_c, 2, 62, 127
1, 1257311, Note_on_c, 6, 66, 127
1, 1257462, Note_off_c, 6, 66, 127
1, 1257462, Note_off_c, 2, 62, 127
1, 1257466, Note_on_c, 0, 60, 127
1, 1257466, Note_on_c, 4, 64, 127
1, 1257617, Note_off_c, 4, 64, 127
1, 1257617, Note_off_c, 0, 60, 127
1, 1257620, Note_on_c, 12, 59, 127
1, 1257620, Note_on_c, 2, 62, 127
1, 1257771, Note_off_c, 2, 62, 127
1, 1257771, Note_off_c, 12, 59, 127
1, 1257775, Note_on_c, 10, 57, 127
1, 1257775, Note_on_c, 0, 60, 127
1, 1257926, Note_off_c, 0, 60, 127
1, 1257926, Note_off_c, 10, 57, 127
1, 1257930, Note_on_c, 7, 55, 127
1, 1257930, Note_on_c, 12, 59, 127
1, 1258081, Note_off_c, 12, 59, 127
1, 1258081, Note_off_c, 7, 55, 127
1, 1258085, Note_on_c, 6, 54, 127
1, 1258085, Note_on_c, 10, 57, 127
1, 1258236, Note_off_c, 10, 57, 127
1, 1258236, Note_off_c, 6, 54, 127
1, 1258240, Note_on_c, 4, 52, 127
1, 1258240, Note_on_c, 7, 55, 127
1, 1258391, Note_off_c, 7, 55, 127
1, 1258391, Note_off_c, 4, 52, 127
1, 1258394, Note_on_c, 2, 50, 127
1, 1258394, Note_on_c, 12, 59, 127
1, 1258545, Note_off_c, 12, 59, 127
1, 1258545, Note_off_c, 2, 50, 127
1, 1258549, Note_on_c, 1, 49, 127
1, 1258549, Note_on_c, 4, 64, 127
1, 1258700, Note_off_c, 4, 64, 127
1, 1258700, Note_off_c, 1, 49, 127
1, 1258704, Note_on_c, 12, 47, 127
1, 1258704, Note_on_c, 2, 62, 127
1, 1258855, Note_off_c, 2, 62, 127
1, 1258855, Note_off_c, 12, 47, 127
1, 1258859, Note_on_c, 10, 45, 127
1, 1258859, Note_on_c, 1, 61, 127
1, 1259010, Note_off_c, 1, 61, 127
1, 1259010, Note_off_c, 10, 45, 127
1, 1259013, Note_on_c, 4, 52, 127
1, 1259013, Note_on_c, 12, 59, 127
1, 1259164, Note_off_c, 12, 59, 127
1, 1259164, Note_off_c, 4, 52, 127
1, 1259168, Note_on_c, 7, 55, 127
1, 1259168, Note_on_c, 10, 57, 127
1, 1259319, Note_off_c, 10, 57, 127
1, 1259319, Note_off_c, 7, 55, 127
1, 1259323, Note_on_c, 6, 54, 127
1, 1259323, Note_on_c, 12, 59, 127
1, 1259474, Note_off_c, 12, 59, 127
1, 1259474, Note_off_c, 6, 54, 127
1, 1259478, Note_on_c, 4, 52, 127
1, 1259478, Note_on_c, 1, 61, 127
1, 1259629, Note_off_c, 1, 61, 127
1, 1259629, Note_off_c, 4, 52, 127
1, 1259632, Note_on_c, 2, 50, 127
1, 1259632, Note_on_c, 2, 62, 127
1, 1259783, Note_off_c, 2, 62, 127
1, 1259783, Note_off_c, 2, 50, 127
1, 1259787, Note_on_c, 1, 49, 127
1, 1259787, Note_on_c, 4, 64, 127
1, 1259938, Note_off_c, 4, 64, 127
1, 1259938, Note_off_c, 1, 49, 127
1, 1259942, Note_on_c, 12, 47, 127
1, 1259942, Note_on_c, 6, 66, 127
1, 1260093, Note_off_c, 6, 66, 127
1, 1260093, Note_off_c, 12, 47, 127
1, 1260097, Note_on_c, 10, 45, 127
1, 1260097, Note_on_c, 7, 67, 127
1, 1260248, Note_off_c, 7, 67, 127
1, 1260248, Note_off_c, 10, 45, 127
1, 1260251, Note_on_c, 7, 43, 127
1, 1260251, Note_on_c, 10, 69, 127
1, 1260402, Note_off_c, 10, 69, 127
1, 1260402, Note_off_c, 7, 43, 127
1, 1260406, Note_on_c, 6, 42, 127
1, 1260406, Note_on_c, 12, 71, 127
1, 1260557, Note_off_c, 12, 71, 127
1, 1260557, Note_off_c, 6, 42, 127
1, 1260561, Note_on_c, 4, 40, 127
1, 1260561, Note_on_c, 1, 73, 127
1, 1260712, Note_off_c, 1, 73, 127
1, 1260712, Note_off_c, 4, 40, 127
1, 1260716, Note_on_c, 2, 38, 127
1, 1260716, Note_on_c, 2, 74, 127
1, 1260867, Note_off_c, 2, 74, 127
1, 1260870, Note_on_c, 1, 73, 127
1, 1260944, Note_off_c, 1, 73, 127
1, 1260948, Note_on_c, 12, 71, 127
1, 1261022, Note_off_c, 12, 71, 127
1, 1261025, Note_on_c, 10, 69, 127
1, 1261099, Note_off_c, 10, 69, 127
1, 1261103, Note_on_c, 7, 67, 127
1, 1261177, Note_off_c, 7, 67, 127
1, 1261180, Note_on_c, 6, 66, 127
1, 1261254, Note_off_c, 6, 66, 127
1, 1261257, Note_on_c, 4, 64, 127
1, 1261331, Note_off_c, 4, 64, 127
1, 1261335, Note_on_c, 2, 62, 127
1, 1261484, Note_off_c, 2, 38, 127
1, 1261489, Note_on_c, 4, 40, 127
1, 1261564, Note_off_c, 4, 40, 127
1, 1261568, Note_on_c, 6, 42, 127
1, 1261642, Note_off_c, 6, 42, 127
1, 1261645, Note_on_c, 7, 43, 127
1, 1261719, Note_off_c, 7, 43, 127
1, 1261723, Note_on_c, 10, 45, 127
1, 1261797, Note_off_c, 10, 45, 127
1, 1261800, Note_on_c, 12, 47, 127
1, 1261874, Note_off_c, 12, 47, 127
1, 1261877, Note_on_c, 1, 49, 127
1, 1261951, Note_off_c, 1, 49, 127
1, 1261955, Note_on_c, 2, 50, 127
1, 1262560, Note_off_c, 2, 62, 127
1, 1262566, Note_off_c, 2, 50, 127
1, 1262574, Note_on_c, 10, 81, 127
1, 1262648, Note_off_c, 10, 81, 127
1, 1262651, Note_on_c, 7, 79, 127
1, 1262725, Note_off_c, 7, 79, 127
1, 1262729, Note_on_c, 2, 38, 127
1, 1262729, Note_on_c, 2, 50, 127
1, 1262729, Note_on_c, 10, 81, 127
1, 1262880, Note_off_c, 2, 50, 127
1, 1262880, Note_off_c, 2, 38, 127
1, 1262883, Note_on_c, 2, 50, 127
1, 1262883, Note_on_c, 2, 38, 127
1, 1263033, Note_off_c, 10, 81, 127
1, 1263038, Note_on_c, 7, 79, 127
1, 1263187, Note_off_c, 2, 38, 127
1, 1263189, Note_off_c, 7, 79, 127
1, 1263193, Note_on_c, 6, 78, 127
1, 1263267, Note_off_c, 6, 78, 127
1, 1263268, Note_off_c, 2, 50, 127
1, 1263270, Note_on_c, 4, 52, 127
1, 1263270, Note_on_c, 4, 76, 127
1, 1263345, Note_off_c, 4, 76, 127
1, 1263345, Note_off_c, 4, 52, 127
1, 1263349, Note_on_c, 6, 54, 127
1, 1263349, Note_on_c, 6, 78, 127
1, 1263423, Note_off_c, 6, 54, 127
1, 1263426, Note_on_c, 7, 55, 127
1, 1263500, Note_off_c, 7, 55, 127
1, 1263503, Note_on_c, 10, 57, 127
1, 1263653, Note_off_c, 6, 78, 127
1, 1263658, Note_on_c, 4, 76, 127
1, 1263809, Note_off_c, 4, 76, 127
1, 1263813, Note_on_c, 2, 74, 127
1, 1263884, Note_off_c, 10, 57, 127
1, 1263887, Note_off_c, 2, 74, 127
1, 1263890, Note_on_c, 10, 57, 127
1, 1263890, Note_on_c, 0, 72, 127
1, 1263964, Note_off_c, 0, 72, 127
1, 1263964, Note_off_c, 10, 57, 127
1, 1263968, Note_on_c, 12, 59, 127
1, 1263968, Note_on_c, 2, 74, 127
1, 1264042, Note_off_c, 12, 59, 127
1, 1264045, Note_on_c, 0, 60, 127
1, 1264119, Note_off_c, 0, 60, 127
1, 1264123, Note_on_c, 2, 62, 127
1, 1264272, Note_off_c, 2, 74, 127
1, 1264277, Note_on_c, 0, 72, 127
1, 1264427, Note_off_c, 2, 62, 127
1, 1264428, Note_off_c, 0, 72, 127
1, 1264432, Note_on_c, 12, 71, 127
1, 1264506, Note_off_c, 12, 71, 127
1, 1264509, Note_on_c, 10, 69, 127
1, 1264583, Note_off_c, 10, 69, 127
1, 1264587, Note_on_c, 7, 55, 127
1, 1264587, Note_on_c, 7, 43, 127
1, 1264587, Note_on_c, 12, 71, 127
1, 1264738, Note_off_c, 7, 43, 127
1, 1264738, Note_off_c, 7, 55, 127
1, 1264742, Note_on_c, 7, 43, 127
1, 1264742, Note_on_c, 7, 55, 127
1, 1264891, Note_off_c, 12, 71, 127
1, 1264896, Note_on_c, 10, 69, 127
1, 1265046, Note_off_c, 7, 43, 127
1, 1265047, Note_off_c, 10, 69, 127
1, 1265051, Note_on_c, 7, 67, 127
1, 1265125, Note_off_c, 7, 67, 127
1, 1265127, Note_off_c, 7, 55, 127
1, 1265128, Note_on_c, 2, 62, 127
1, 1265128, Note_on_c, 6, 66, 127
1, 1265203, Note_off_c, 6, 66, 127
1, 1265203, Note_off_c, 2, 62, 127
1, 1265207, Note_on_c, 4, 64, 127
1, 1265207, Note_on_c, 7, 67, 127
1, 1265281, Note_off_c, 4, 64, 127
1, 1265284, Note_on_c, 6, 66, 127
1, 1265354, Note_off_c, 7, 67, 127
1, 1265359, Note_off_c, 6, 66, 127
1, 1265363, Note_on_c, 7, 67, 127
1, 1265517, Note_on_c, 6, 66, 127
1, 1265668, Note_off_c, 6, 66, 127
1, 1265672, Note_on_c, 4, 64, 127
1, 1265746, Note_off_c, 4, 64, 127
1, 1265748, Note_off_c, 7, 67, 127
1, 1265750, Note_on_c, 6, 66, 127
1, 1265750, Note_on_c, 2, 62, 127
1, 1265825, Note_off_c, 2, 62, 127
1, 1265825, Note_off_c, 6, 66, 127
1, 1265828, Note_on_c, 7, 67, 127
1, 1265828, Note_on_c, 4, 64, 127
1, 1265902, Note_off_c, 7, 67, 127
1, 1265905, Note_on_c, 10, 69, 127
1, 1265979, Note_off_c, 10, 69, 127
1, 1265983, Note_on_c, 12, 71, 127
1, 1266132, Note_off_c, 4, 64, 127
1, 1266138, Note_on_c, 2, 62, 127
1, 1266287, Note_off_c, 12, 71, 127
1, 1266289, Note_off_c, 2, 62, 127
1, 1266292, Note_on_c, 0, 60, 127
1, 1266366, Note_off_c, 0, 60, 127
1, 1266370, Note_on_c, 12, 59, 127
1, 1266444, Note_off_c, 12, 59, 127
1, 1266447, Note_on_c, 4, 64, 127
1, 1266447, Note_on_c, 10, 69, 127
1, 1266447, Note_on_c, 0, 60, 127
1, 1266598, Note_off_c, 10, 69, 127
1, 1266598, Note_off_c, 4, 64, 127
1, 1266602, Note_on_c, 4, 64, 127
1, 1266602, Note_on_c, 10, 69, 127
1, 1266751, Note_off_c, 0, 60, 127
1, 1266757, Note_on_c, 12, 59, 127
1, 1266908, Note_off_c, 12, 59, 127
1, 1266911, Note_on_c, 10, 57, 127
1, 1266985, Note_off_c, 10, 57, 127
1, 1266987, Note_off_c, 10, 69, 127
1, 1266987, Note_off_c, 4, 64, 127
1, 1266989, Note_on_c, 12, 71, 127
1, 1266989, Note_on_c, 7, 55, 127
1, 1267064, Note_off_c, 7, 55, 127
1, 1267064, Note_off_c, 12, 71, 127
1, 1267067, Note_on_c, 0, 72, 127
1, 1267067, Note_on_c, 10, 57, 127
1, 1267141, Note_off_c, 0, 72, 127
1, 1267145, Note_on_c, 2, 74, 127
1, 1267219, Note_off_c, 2, 74, 127
1, 1267222, Note_on_c, 4, 76, 127
1, 1267371, Note_off_c, 10, 57, 127
1, 1267377, Note_on_c, 7, 55, 127
1, 1267528, Note_off_c, 7, 55, 127
1, 1267531, Note_on_c, 6, 54, 127
1, 1267603, Note_off_c, 4, 76, 127
1, 1267605, Note_off_c, 6, 54, 127
1, 1267609, Note_on_c, 4, 76, 127
1, 1267609, Note_on_c, 4, 52, 127
1, 1267683, Note_off_c, 4, 52, 127
1, 1267683, Note_off_c, 4, 76, 127
1, 1267686, Note_on_c, 6, 78, 127
1, 1267686, Note_on_c, 6, 54, 127
1, 1267760, Note_off_c, 6, 78, 127
1, 1267764, Note_on_c, 7, 79, 127
1, 1267838, Note_off_c, 7, 79, 127
1, 1267841, Note_on_c, 10, 81, 127
1, 1267990, Note_off_c, 6, 54, 127
1, 1267996, Note_on_c, 4, 52, 127
1, 1268145, Note_off_c, 10, 81, 127
1, 1268147, Note_off_c, 4, 52, 127
1, 1268151, Note_on_c, 3, 51, 127
1, 1268225, Note_off_c, 3, 51, 127
1, 1268228, Note_on_c, 1, 49, 127
1, 1268302, Note_off_c, 1, 49, 127
1, 1268305, Note_on_c, 10, 81, 127
1, 1268305, Note_on_c, 0, 84, 127
1, 1268305, Note_on_c, 3, 51, 127
1, 1268456, Note_off_c, 0, 84, 127
1, 1268456, Note_off_c, 10, 81, 127
1, 1268460, Note_on_c, 10, 81, 127
1, 1268460, Note_on_c, 0, 84, 127
1, 1268609, Note_off_c, 3, 51, 127
1, 1268615, Note_on_c, 6, 54, 127
1, 1268766, Note_off_c, 6, 54, 127
1, 1268770, Note_on_c, 10, 57, 127
1, 1268844, Note_off_c, 10, 57, 127
1, 1268845, Note_off_c, 0, 84, 127
1, 1268845, Note_off_c, 10, 81, 127
1, 1268847, Note_on_c, 12, 83, 127
1, 1268847, Note_on_c, 7, 55, 127
1, 1268922, Note_off_c, 7, 55, 127
1, 1268922, Note_off_c, 12, 83, 127
1, 1268925, Note_on_c, 10, 81, 127
1, 1268925, Note_on_c, 10, 57, 127
1, 1268999, Note_off_c, 10, 81, 127
1, 1269003, Note_on_c, 7, 79, 127
1, 1269077, Note_off_c, 7, 79, 127
1, 1269080, Note_on_c, 6, 78, 127
1, 1269229, Note_off_c, 10, 57, 127
1, 1269235, Note_on_c, 0, 60, 127
1, 1269386, Note_off_c, 0, 60, 127
1, 1269390, Note_on_c, 0, 60, 127
1, 1269465, Note_off_c, 6, 78, 127
1, 1269467, Note_on_c, 7, 79, 127
1, 1269542, Note_off_c, 7, 79, 127
1, 1269542, Note_off_c, 0, 60, 127
1, 1269545, Note_on_c, 6, 78, 127
1, 1269545, Note_on_c, 12, 59, 127
1, 1269619, Note_off_c, 12, 59, 127
1, 1269619, Note_off_c, 6, 78, 127
1, 1269623, Note_on_c, 4, 76, 127
1, 1269623, Note_on_c, 0, 60, 127
1, 1269697, Note_off_c, 0, 60, 127
1, 1269697, Note_off_c, 4, 76, 127
1, 1269700, Note_on_c, 3, 75, 127
1, 1269700, Note_on_c, 12, 59, 127
1, 1269851, Note_off_c, 12, 59, 127
1, 1269855, Note_on_c, 10, 57, 127
1, 1270006, Note_off_c, 10, 57, 127
1, 1270010, Note_on_c, 7, 55, 127
1, 1270084, Note_off_c, 7, 55, 127
1, 1270087, Note_on_c, 6, 54, 127
1, 1270157, Note_off_c, 3, 75, 127
1, 1270161, Note_off_c, 6, 54, 127
1, 1270165, Note_on_c, 4, 76, 127
1, 1270165, Note_on_c, 7, 55, 127
1, 1270316, Note_off_c, 4, 76, 127
1, 1270319, Note_on_c, 2, 74, 127
1, 1270470, Note_off_c, 2, 74, 127
1, 1270474, Note_on_c, 0, 72, 127
1, 1270622, Note_off_c, 7, 55, 127
1, 1270625, Note_off_c, 0, 72, 127
1, 1270629, Note_on_c, 12, 71, 127
1, 1270780, Note_off_c, 12, 71, 127
1, 1270784, Note_on_c, 10, 69, 127
1, 1270784, Note_on_c, 3, 75, 127
1, 1270935, Note_off_c, 3, 75, 127
1, 1270935, Note_off_c, 10, 69, 127
1, 1270938, Note_on_c, 7, 67, 127
1, 1270938, Note_on_c, 4, 76, 127
1, 1271089, Note_off_c, 4, 76, 127
1, 1271089, Note_off_c, 7, 67, 127
1, 1271093, Note_on_c, 6, 66, 127
1, 1271093, Note_on_c, 6, 78, 127
1, 1271244, Note_off_c, 6, 78, 127
1, 1271244, Note_off_c, 6, 66, 127
1, 1271248, Note_on_c, 4, 64, 127
1, 1271248, Note_on_c, 7, 79, 127
1, 1271399, Note_off_c, 7, 79, 127
1, 1271399, Note_off_c, 4, 64, 127
1, 1271403, Note_on_c, 2, 62, 127
1, 1271403, Note_on_c, 8, 80, 127
1, 1271554, Note_off_c, 8, 80, 127
1, 1271554, Note_off_c, 2, 62, 127
1, 1271557, Note_on_c, 0, 60, 127
1, 1271557, Note_on_c, 10, 81, 127
1, 1271708, Note_off_c, 10, 81, 127
1, 1271708, Note_off_c, 0, 60, 127
1, 1271712, Note_on_c, 12, 59, 127
1, 1271712, Note_on_c, 12, 83, 127
1, 1271863, Note_off_c, 12, 83, 127
1, 1271863, Note_off_c, 12, 59, 127
1, 1271867, Note_on_c, 10, 57, 127
1, 1271867, Note_on_c, 0, 84, 127
1, 1272018, Note_off_c, 0, 84, 127
1, 1272022, Note_on_c, 10, 81, 127
1, 1272173, Note_off_c, 10, 81, 127
1, 1272176, Note_on_c, 7, 79, 127
1, 1272327, Note_off_c, 7, 79, 127
1, 1272331, Note_on_c, 5, 77, 127
1, 1272482, Note_off_c, 5, 77, 127
1, 1272486, Note_on_c, 4, 76, 127
1, 1272635, Note_off_c, 10, 57, 127
1, 1272637, Note_off_c, 4, 76, 127
1, 1272641, Note_on_c, 8, 56, 127
1, 1272641, Note_on_c, 2, 74, 127
1, 1272793, Note_off_c, 2, 74, 127
1, 1272793, Note_off_c, 8, 56, 127
1, 1272797, Note_on_c, 10, 57, 127
1, 1272797, Note_on_c, 0, 72, 127
1, 1272948, Note_off_c, 0, 72, 127
1, 1272948, Note_off_c, 10, 57, 127
1, 1272951, Note_on_c, 12, 59, 127
1, 1272951, Note_on_c, 12, 71, 127
1, 1273102, Note_off_c, 12, 71, 127
1, 1273102, Note_off_c, 12, 59, 127
1, 1273106, Note_on_c, 0, 60, 127
1, 1273106, Note_on_c, 10, 69, 127
1, 1273257, Note_off_c, 10, 69, 127
1, 1273257, Note_off_c, 0, 60, 127
1, 1273261, Note_on_c, 1, 61, 127
1, 1273261, Note_on_c, 7, 67, 127
1, 1273412, Note_off_c, 7, 67, 127
1, 1273412, Note_off_c, 1, 61, 127
1, 1273416, Note_on_c, 3, 63, 127
1, 1273416, Note_on_c, 6, 66, 127
1, 1273567, Note_off_c, 6, 66, 127
1, 1273567, Note_off_c, 3, 63, 127
1, 1273570, Note_on_c, 4, 64, 127
1, 1273721, Note_off_c, 4, 64, 127
1, 1273725, Note_on_c, 6, 66, 127
1, 1273725, Note_on_c, 3, 63, 127
1, 1273876, Note_off_c, 3, 63, 127
1, 1273880, Note_on_c, 0, 72, 127
1, 1274031, Note_off_c, 0, 72, 127
1, 1274035, Note_on_c, 12, 71, 127
1, 1274182, Note_off_c, 6, 66, 127
1, 1274189, Note_on_c, 10, 57, 127
1, 1274340, Note_off_c, 10, 57, 127
1, 1274344, Note_on_c, 7, 55, 127
1, 1274492, Note_off_c, 12, 71, 127
1, 1274499, Note_on_c, 1, 73, 127
1, 1274573, Note_off_c, 1, 73, 127
1, 1274576, Note_on_c, 3, 75, 127
1, 1274648, Note_off_c, 7, 55, 127
1, 1274650, Note_off_c, 3, 75, 127
1, 1274654, Note_on_c, 0, 60, 127
1, 1274654, Note_on_c, 4, 76, 127
1, 1274728, Note_off_c, 4, 76, 127
1, 1274731, Note_on_c, 6, 78, 127
1, 1274805, Note_off_c, 6, 78, 127
1, 1274808, Note_on_c, 7, 79, 127
1, 1274958, Note_off_c, 0, 60, 127
1, 1274963, Note_on_c, 10, 57, 127
1, 1275112, Note_off_c, 7, 79, 127
1, 1275118, Note_on_c, 6, 78, 127
1, 1275267, Note_off_c, 10, 57, 127
1, 1275269, Note_off_c, 6, 78, 127
1, 1275273, Note_on_c, 12, 59, 127
1, 1275273, Note_on_c, 6, 78, 127
1, 1275347, Note_off_c, 6, 78, 127
1, 1275350, Note_on_c, 4, 76, 127
1, 1275424, Note_off_c, 4, 76, 127
1, 1275427, Note_on_c, 3, 75, 127
1, 1275577, Note_off_c, 12, 59, 127
1, 1275578, Note_off_c, 3, 75, 127
1, 1275582, Note_on_c, 4, 52, 127
1, 1275582, Note_on_c, 4, 76, 127
1, 1275656, Note_off_c, 4, 76, 127
1, 1275660, Note_on_c, 0, 72, 127
1, 1275734, Note_off_c, 0, 72, 127
1, 1275737, Note_on_c, 12, 71, 127
1, 1275811, Note_off_c, 12, 71, 127
1, 1275814, Note_on_c, 10, 69, 127
1, 1275886, Note_off_c, 4, 52, 127
1, 1275888, Note_off_c, 10, 69, 127
1, 1275892, Note_on_c, 12, 71, 127
1, 1275969, Note_on_c, 10, 69, 127
1, 1276043, Note_off_c, 10, 69, 127
1, 1276046, Note_on_c, 7, 67, 127
1, 1276120, Note_off_c, 7, 67, 127
1, 1276124, Note_on_c, 6, 66, 127
1, 1276198, Note_off_c, 6, 66, 127
1, 1276201, Note_on_c, 7, 67, 127
1, 1276277, Note_off_c, 12, 71, 127
1, 1276279, Note_on_c, 6, 66, 127
1, 1276354, Note_off_c, 6, 66, 127
1, 1276357, Note_on_c, 4, 64, 127
1, 1276431, Note_off_c, 4, 64, 127
1, 1276434, Note_on_c, 3, 63, 127
1, 1276508, Note_off_c, 3, 63, 127
1, 1276512, Note_on_c, 4, 64, 127
1, 1276587, Note_off_c, 7, 67, 127
1, 1276589, Note_on_c, 0, 60, 127
1, 1276664, Note_off_c, 0, 60, 127
1, 1276668, Note_on_c, 12, 59, 127
1, 1276742, Note_off_c, 12, 59, 127
1, 1276745, Note_on_c, 10, 57, 127
1, 1276819, Note_off_c, 10, 57, 127
1, 1276822, Note_on_c, 12, 59, 127
1, 1276898, Note_off_c, 4, 64, 127
1, 1276900, Note_on_c, 10, 57, 127
1, 1276975, Note_off_c, 10, 57, 127
1, 1276978, Note_on_c, 7, 55, 127
1, 1277052, Note_off_c, 7, 55, 127
1, 1277056, Note_on_c, 6, 54, 127
1, 1277130, Note_off_c, 6, 54, 127
1, 1277133, Note_on_c, 7, 55, 127
1, 1277208, Note_off_c, 12, 59, 127
1, 1277210, Note_on_c, 5, 53, 127
1, 1277285, Note_off_c, 5, 53, 127
1, 1277289, Note_on_c, 4, 52, 127
1, 1277363, Note_off_c, 4, 52, 127
1, 1277366, Note_on_c, 2, 50, 127
1, 1277438, Note_off_c, 7, 55, 127
1, 1277440, Note_off_c, 2, 50, 127
1, 1277444, Note_on_c, 0, 48, 127
1, 1277598, Note_on_c, 4, 64, 127
1, 1277598, Note_on_c, 0, 60, 127
1, 1277698, Note_off_c, 0, 60, 127
1, 1277698, Note_off_c, 4, 64, 127
1, 1277749, Note_off_c, 0, 48, 127
1, 1277754, Note_on_c, 2, 62, 127
1, 1277754, Note_on_c, 5, 65, 127
1, 1277854, Note_off_c, 5, 65, 127
1, 1277854, Note_off_c, 2, 62, 127
1, 1277909, Note_on_c, 4, 64, 127
1, 1277909, Note_on_c, 7, 67, 127
1, 1278009, Note_off_c, 7, 67, 127
1, 1278009, Note_off_c, 4, 64, 127
1, 1278064, Note_on_c, 10, 69, 127
1, 1278064, Note_on_c, 5, 65, 127
1, 1278164, Note_off_c, 5, 65, 127
1, 1278164, Note_off_c, 10, 69, 127
1, 1278218, Note_on_c, 12, 59, 127
1, 1278218, Note_on_c, 2, 62, 127
1, 1278218, Note_on_c, 7, 67, 127
1, 1278218, Note_on_c, 12, 71, 127
1, 1278318, Note_off_c, 12, 71, 127
1, 1278318, Note_off_c, 7, 67, 127
1, 1278318, Note_off_c, 2, 62, 127
1, 1278318, Note_off_c, 12, 59, 127
1, 1278373, Note_on_c, 10, 57, 127
1, 1278373, Note_on_c, 0, 60, 127
1, 1278373, Note_on_c, 10, 69, 127
1, 1278373, Note_on_c, 0, 72, 127
1, 1278473, Note_off_c, 0, 72, 127
1, 1278473, Note_off_c, 10, 69, 127
1, 1278473, Note_off_c, 0, 60, 127
1, 1278473, Note_off_c, 10, 57, 127
1, 1278528, Note_on_c, 12, 59, 127
1, 1278528, Note_on_c, 7, 55, 127
1, 1278528, Note_on_c, 12, 71, 127
1, 1278528, Note_on_c, 2, 74, 127
1, 1278628, Note_off_c, 2, 74, 127
1, 1278628, Note_off_c, 12, 71, 127
1, 1278628, Note_off_c, 7, 55, 127
1, 1278628, Note_off_c, 12, 59, 127
1, 1278683, Note_on_c, 6, 54, 127
1, 1278683, Note_on_c, 10, 57, 127
1, 1278683, Note_on_c, 0, 72, 127
1, 1278683, Note_on_c, 4, 76, 127
1, 1278783, Note_off_c, 10, 57, 127
1, 1278783, Note_off_c, 6, 54, 127
1, 1278839, Note_on_c, 4, 52, 127
1, 1278839, Note_on_c, 7, 55, 127
1, 1278883, Note_off_c, 4, 76, 127
1, 1278883, Note_off_c, 0, 72, 127
1, 1278939, Note_off_c, 7, 55, 127
1, 1278939, Note_off_c, 4, 52, 127
1, 1278993, Note_on_c, 6, 54, 127
1, 1278993, Note_on_c, 2, 50, 127
1, 1279093, Note_off_c, 2, 50, 127
1, 1279093, Note_off_c, 6, 54, 127
1, 1279148, Note_on_c, 0, 48, 127
1, 1279148, Note_on_c, 4, 52, 127
1, 1279248, Note_off_c, 4, 52, 127
1, 1279248, Note_off_c, 0, 48, 127
1, 1279303, Note_on_c, 12, 47, 127
1, 1279303, Note_on_c, 2, 50, 127
1, 1279454, Note_off_c, 2, 50, 127
1, 1279454, Note_off_c, 12, 47, 127
1, 1279458, Note_on_c, 12, 71, 127
1, 1279458, Note_on_c, 2, 74, 127
1, 1279558, Note_off_c, 2, 74, 127
1, 1279558, Note_off_c, 12, 71, 127
1, 1279612, Note_on_c, 10, 69, 127
1, 1279612, Note_on_c, 0, 72, 127
1, 1279712, Note_off_c, 0, 72, 127
1, 1279712, Note_off_c, 10, 69, 127
1, 1279767, Note_on_c, 12, 71, 127
1, 1279767, Note_on_c, 7, 67, 127
1, 1279867, Note_off_c, 7, 67, 127
1, 1279867, Note_off_c, 12, 71, 127
1, 1279922, Note_on_c, 10, 69, 127
1, 1279922, Note_on_c, 6, 66, 127
1, 1280022, Note_off_c, 6, 66, 127
1, 1280022, Note_off_c, 10, 69, 127
1, 1280077, Note_on_c, 10, 45, 127
1, 1280077, Note_on_c, 0, 48, 127
1, 1280077, Note_on_c, 7, 67, 127
1, 1280077, Note_on_c, 4, 64, 127
1, 1280177, Note_off_c, 4, 64, 127
1, 1280177, Note_off_c, 7, 67, 127
1, 1280177, Note_off_c, 0, 48, 127
1, 1280177, Note_off_c, 10, 45, 127
1, 1280231, Note_on_c, 2, 50, 127
1, 1280231, Note_on_c, 12, 47, 127
1, 1280231, Note_on_c, 6, 66, 127
1, 1280231, Note_on_c, 2, 62, 127
1, 1280331, Note_off_c, 2, 62, 127
1, 1280331, Note_off_c, 6, 66, 127
1, 1280331, Note_off_c, 12, 47, 127
1, 1280331, Note_off_c, 2, 50, 127
1, 1280386, Note_on_c, 0, 48, 127
1, 1280386, Note_on_c, 4, 52, 127
1, 1280386, Note_on_c, 0, 60, 127
1, 1280386, Note_on_c, 4, 64, 127
1, 1280486, Note_off_c, 4, 64, 127
1, 1280486, Note_off_c, 0, 60, 127
1, 1280486, Note_off_c, 4, 52, 127
1, 1280486, Note_off_c, 0, 48, 127
1, 1280541, Note_on_c, 6, 54, 127
1, 1280541, Note_on_c, 2, 50, 127
1, 1280541, Note_on_c, 2, 62, 127
1, 1280541, Note_on_c, 12, 59, 127
1, 1280641, Note_off_c, 2, 50, 127
1, 1280641, Note_off_c, 6, 54, 127
1, 1280693, Note_off_c, 12, 59, 127
1, 1280693, Note_off_c, 2, 62, 127
1, 1280697, Note_on_c, 7, 55, 127
1, 1280697, Note_on_c, 4, 52, 127
1, 1280797, Note_off_c, 4, 52, 127
1, 1280797, Note_off_c, 7, 55, 127
1, 1280851, Note_on_c, 6, 54, 127
1, 1280851, Note_on_c, 10, 57, 127
1, 1280951, Note_off_c, 10, 57, 127
1, 1280951, Note_off_c, 6, 54, 127
1, 1281006, Note_on_c, 12, 59, 127
1, 1281006, Note_on_c, 7, 55, 127
1, 1281106, Note_off_c, 7, 55, 127
1, 1281106, Note_off_c, 12, 59, 127
1, 1281161, Note_on_c, 10, 57, 127
1, 1281161, Note_on_c, 0, 60, 127
1, 1281316, Note_on_c, 2, 62, 127
1, 1281316, Note_on_c, 12, 59, 127
1, 1281339, Note_off_c, 0, 60, 127
1, 1281339, Note_off_c, 10, 57, 127
1, 1281470, Note_on_c, 0, 60, 127
1, 1281470, Note_on_c, 10, 57, 127
1, 1281494, Note_off_c, 12, 59, 127
1, 1281494, Note_off_c, 2, 62, 127
1, 1281625, Note_on_c, 8, 56, 127
1, 1281625, Note_on_c, 12, 59, 127
1, 1281648, Note_off_c, 10, 57, 127
1, 1281648, Note_off_c, 0, 60, 127
1, 1281780, Note_on_c, 0, 60, 127
1, 1281780, Note_on_c, 10, 57, 127
1, 1281803, Note_off_c, 12, 59, 127
1, 1281803, Note_off_c, 8, 56, 127
1, 1281935, Note_on_c, 2, 62, 127
1, 1281935, Note_on_c, 12, 59, 127
1, 1281958, Note_off_c, 10, 57, 127
1, 1281958, Note_off_c, 0, 60, 127
1, 1282090, Note_on_c, 10, 57, 127
1, 1282090, Note_on_c, 0, 60, 127
1, 1282113, Note_off_c, 12, 59, 127
1, 1282113, Note_off_c, 2, 62, 127
1, 1282244, Note_on_c, 7, 55, 127
1, 1282244, Note_on_c, 12, 59, 127
1, 1282268, Note_off_c, 0, 60, 127
1, 1282268, Note_off_c, 10, 57, 127
1, 1282399, Note_on_c, 10, 57, 127
1, 1282399, Note_on_c, 6, 54, 127
1, 1282422, Note_off_c, 12, 59, 127
1, 1282422, Note_off_c, 7, 55, 127
1, 1282554, Note_on_c, 12, 59, 127
1, 1282554, Note_on_c, 7, 55, 127
1, 1282577, Note_off_c, 6, 54, 127
1, 1282577, Note_off_c, 10, 57, 127
1, 1282709, Note_on_c, 10, 57, 127
1, 1282709, Note_on_c, 6, 54, 127
1, 1282732, Note_off_c, 7, 55, 127
1, 1282732, Note_off_c, 12, 59, 127
1, 1282863, Note_on_c, 7, 55, 127
1, 1282863, Note_on_c, 4, 52, 127
1, 1282887, Note_off_c, 6, 54, 127
1, 1282887, Note_off_c, 10, 57, 127
1, 1283018, Note_on_c, 6, 54, 127
1, 1283018, Note_on_c, 2, 50, 127
1, 1283041, Note_off_c, 4, 52, 127
1, 1283041, Note_off_c, 7, 55, 127
1, 1283173, Note_on_c, 7, 55, 127
1, 1283173, Note_on_c, 4, 52, 127
1, 1283196, Note_off_c, 2, 50, 127
1, 1283196, Note_off_c, 6, 54, 127
1, 1283328, Note_on_c, 6, 54, 127
1, 1283328, Note_on_c, 2, 50, 127
1, 1283351, Note_off_c, 4, 52, 127
1, 1283351, Note_off_c, 7, 55, 127
1, 1283482, Note_on_c, 4, 52, 127
1, 1283482, Note_on_c, 1, 49, 127
1, 1283506, Note_off_c, 2, 50, 127
1, 1283506, Note_off_c, 6, 54, 127
1, 1283637, Note_on_c, 2, 50, 127
1, 1283637, Note_on_c, 6, 54, 127
1, 1283660, Note_off_c, 1, 49, 127
1, 1283660, Note_off_c, 4, 52, 127
1, 1283792, Note_on_c, 7, 55, 127
1, 1283792, Note_on_c, 4, 52, 127
1, 1283815, Note_off_c, 6, 54, 127
1, 1283815, Note_off_c, 2, 50, 127
1, 1283947, Note_on_c, 6, 54, 127
1, 1283947, Note_on_c, 2, 50, 127
1, 1283970, Note_off_c, 4, 52, 127
1, 1283970, Note_off_c, 7, 55, 127
1, 1284101, Note_on_c, 4, 52, 127
1, 1284101, Note_on_c, 0, 48, 127
1, 1284125, Note_off_c, 2, 50, 127
1, 1284125, Note_off_c, 6, 54, 127
1, 1284256, Note_on_c, 2, 50, 127
1, 1284256, Note_on_c, 12, 47, 127
1, 1284279, Note_off_c, 0, 48, 127
1, 1284279, Note_off_c, 4, 52, 127
1, 1284411, Note_on_c, 0, 48, 127
1, 1284411, Note_on_c, 4, 52, 127
1, 1284434, Note_off_c, 12, 47, 127
1, 1284434, Note_off_c, 2, 50, 127
1, 1284566, Note_on_c, 12, 47, 127
1, 1284566, Note_on_c, 2, 50, 127
1, 1284589, Note_off_c, 4, 52, 127
1, 1284589, Note_off_c, 0, 48, 127
1, 1284720, Note_on_c, 10, 45, 127
1, 1284720, Note_on_c, 0, 48, 127
1, 1284744, Note_off_c, 2, 50, 127
1, 1284744, Note_off_c, 12, 47, 127
1, 1284875, Note_on_c, 7, 43, 127
1, 1284875, Note_on_c, 12, 47, 127
1, 1284898, Note_off_c, 0, 48, 127
1, 1284898, Note_off_c, 10, 45, 127
1, 1285030, Note_on_c, 0, 48, 127
1, 1285030, Note_on_c, 10, 45, 127
1, 1285053, Note_off_c, 12, 47, 127
1, 1285053, Note_off_c, 7, 43, 127
1, 1285185, Note_on_c, 12, 47, 127
1, 1285185, Note_on_c, 7, 43, 127
1, 1285208, Note_off_c, 10, 45, 127
1, 1285208, Note_off_c, 0, 48, 127
1, 1285339, Note_on_c, 10, 45, 127
1, 1285339, Note_on_c, 6, 42, 127
1, 1285363, Note_off_c, 7, 43, 127
1, 1285363, Note_off_c, 12, 47, 127
1, 1285494, Note_on_c, 12, 47, 127
1, 1285494, Note_on_c, 7, 43, 127
1, 1285517, Note_off_c, 6, 42, 127
1, 1285517, Note_off_c, 10, 45, 127
1, 1285649, Note_on_c, 10, 45, 127
1, 1285649, Note_on_c, 0, 48, 127
1, 1285672, Note_off_c, 7, 43, 127
1, 1285672, Note_off_c, 12, 47, 127
1, 1285804, Note_on_c, 2, 50, 127
1, 1285804, Note_on_c, 12, 47, 127
1, 1285827, Note_off_c, 0, 48, 127
1, 1285827, Note_off_c, 10, 45, 127
1, 1285959, Note_on_c, 4, 52, 127
1, 1285959, Note_on_c, 0, 48, 127
1, 1285982, Note_off_c, 12, 47, 127
1, 1285982, Note_off_c, 2, 50, 127
1, 1286113, Note_on_c, 5, 53, 127
1, 1286113, Note_on_c, 2, 50, 127
1, 1286137, Note_off_c, 0, 48, 127
1, 1286137, Note_off_c, 4, 52, 127
1, 1286268, Note_on_c, 4, 52, 127
1, 1286268, Note_on_c, 7, 55, 127
1, 1286291, Note_off_c, 2, 50, 127
1, 1286291, Note_off_c, 5, 53, 127
1, 1286423, Note_on_c, 5, 53, 127
1, 1286423, Note_on_c, 10, 57, 127
1, 1286446, Note_off_c, 7, 55, 127
1, 1286446, Note_off_c, 4, 52, 127
1, 1286578, Note_on_c, 12, 59, 127
1, 1286578, Note_on_c, 7, 55, 127
1, 1286601, Note_off_c, 10, 57, 127
1, 1286601, Note_off_c, 5, 53, 127
1, 1286732, Note_on_c, 0, 60, 127
1, 1286732, Note_on_c, 4, 52, 127
1, 1286756, Note_off_c, 7, 55, 127
1, 1286756, Note_off_c, 12, 59, 127
1, 1286887, Note_on_c, 2, 62, 127
1, 1286887, Note_on_c, 5, 53, 127
1, 1286910, Note_off_c, 4, 52, 127
1, 1286910, Note_off_c, 0, 60, 127
1, 1287042, Note_on_c, 0, 60, 127
1, 1287042, Note_on_c, 4, 52, 127
1, 1287065, Note_off_c, 5, 53, 127
1, 1287065, Note_off_c, 2, 62, 127
1, 1287197, Note_on_c, 12, 59, 127
1, 1287197, Note_on_c, 2, 50, 127
1, 1287220, Note_off_c, 4, 52, 127
1, 1287220, Note_off_c, 0, 60, 127
1, 1287351, Note_on_c, 4, 52, 127
1, 1287351, Note_on_c, 0, 60, 127
1, 1287375, Note_off_c, 2, 50, 127
1, 1287375, Note_off_c, 12, 59, 127
1, 1287506, Note_on_c, 2, 62, 127
1, 1287506, Note_on_c, 5, 53, 127
1, 1287529, Note_off_c, 0, 60, 127
1, 1287529, Note_off_c, 4, 52, 127
1, 1287661, Note_on_c, 4, 64, 127
1, 1287661, Note_on_c, 7, 55, 127
1, 1287684, Note_off_c, 5, 53, 127
1, 1287684, Note_off_c, 2, 62, 127
1, 1287816, Note_on_c, 10, 57, 127
1, 1287816, Note_on_c, 6, 66, 127
1, 1287839, Note_off_c, 7, 55, 127
1, 1287839, Note_off_c, 4, 64, 127
1, 1287970, Note_on_c, 12, 59, 127
1, 1287970, Note_on_c, 7, 67, 127
1, 1287994, Note_off_c, 6, 66, 127
1, 1287994, Note_off_c, 10, 57, 127
1, 1288125, Note_on_c, 0, 60, 127
1, 1288125, Note_on_c, 10, 69, 127
1, 1288148, Note_off_c, 7, 67, 127
1, 1288148, Note_off_c, 12, 59, 127
1, 1288280, Note_on_c, 2, 62, 127
1, 1288280, Note_on_c, 12, 71, 127
1, 1288303, Note_off_c, 10, 69, 127
1, 1288303, Note_off_c, 0, 60, 127
1, 1288435, Note_on_c, 4, 64, 127
1, 1288435, Note_on_c, 1, 73, 127
1, 1288458, Note_off_c, 12, 71, 127
1, 1288458, Note_off_c, 2, 62, 127
1, 1288589, Note_on_c, 6, 66, 127
1, 1288589, Note_on_c, 2, 74, 127
1, 1288613, Note_off_c, 1, 73, 127
1, 1288613, Note_off_c, 4, 64, 127
1, 1288744, Note_on_c, 1, 73, 127
1, 1288744, Note_on_c, 10, 69, 127
1, 1288816, Note_off_c, 2, 74, 127
1, 1288816, Note_off_c, 6, 66, 127
1, 1288843, Note_off_c, 10, 69, 127
1, 1288843, Note_off_c, 1, 73, 127
1, 1288898, Note_on_c, 12, 71, 127
1, 1288898, Note_on_c, 2, 74, 127
1, 1288998, Note_off_c, 2, 74, 127
1, 1288998, Note_off_c, 12, 71, 127
1, 1289053, Note_on_c, 1, 73, 127
1, 1289053, Note_on_c, 4, 76, 127
1, 1289153, Note_off_c, 4, 76, 127
1, 1289153, Note_off_c, 1, 73, 127
1, 1289207, Note_on_c, 2, 74, 127
1, 1289207, Note_on_c, 6, 78, 127
1, 1289307, Note_off_c, 6, 78, 127
1, 1289307, Note_off_c, 2, 74, 127
1, 1289362, Note_on_c, 4, 64, 127
1, 1289362, Note_on_c, 7, 55, 127
1, 1289362, Note_on_c, 7, 79, 127
1, 1289362, Note_on_c, 4, 76, 127
1, 1289462, Note_off_c, 4, 76, 127
1, 1289462, Note_off_c, 7, 79, 127
1, 1289462, Note_off_c, 7, 55, 127
1, 1289462, Note_off_c, 4, 64, 127
1, 1289517, Note_on_c, 6, 54, 127
1, 1289517, Note_on_c, 2, 62, 127
1, 1289517, Note_on_c, 10, 81, 127
1, 1289517, Note_on_c, 6, 78, 127
1, 1289617, Note_off_c, 6, 78, 127
1, 1289617, Note_off_c, 10, 81, 127
1, 1289617, Note_off_c, 2, 62, 127
1, 1289617, Note_off_c, 6, 54, 127
1, 1289672, Note_on_c, 4, 52, 127
1, 1289672, Note_on_c, 0, 60, 127
1, 1289672, Note_on_c, 7, 79, 127
1, 1289672, Note_on_c, 12, 83, 127
1, 1289772, Note_off_c, 12, 83, 127
1, 1289772, Note_off_c, 7, 79, 127
1, 1289772, Note_off_c, 0, 60, 127
1, 1289772, Note_off_c, 4, 52, 127
1, 1289826, Note_on_c, 12, 59, 127
1, 1289826, Note_on_c, 2, 50, 127
1, 1289826, Note_on_c, 0, 84, 127
1, 1289826, Note_on_c, 10, 81, 127
1, 1289926, Note_off_c, 2, 50, 127
1, 1289926, Note_off_c, 12, 59, 127
1, 1289982, Note_on_c, 0, 48, 127
1, 1289982, Note_on_c, 10, 57, 127
1, 1290076, Note_off_c, 10, 81, 127
1, 1290076, Note_off_c, 0, 84, 127
1, 1290082, Note_off_c, 10, 57, 127
1, 1290082, Note_off_c, 0, 48, 127
1, 1290137, Note_on_c, 7, 55, 127
1, 1290137, Note_on_c, 12, 47, 127
1, 1290237, Note_off_c, 12, 47, 127
1, 1290237, Note_off_c, 7, 55, 127
1, 1290292, Note_on_c, 10, 45, 127
1, 1290292, Note_on_c, 6, 54, 127
1, 1290392, Note_off_c, 6, 54, 127
1, 1290392, Note_off_c, 10, 45, 127
1, 1290447, Note_on_c, 7, 43, 127
1, 1290447, Note_on_c, 7, 55, 127
1, 1290598, Note_off_c, 7, 55, 127
1, 1290601, Note_on_c, 12, 47, 127
1, 1290601, Note_on_c, 12, 83, 127
1, 1290601, Note_on_c, 2, 74, 127
1, 1290701, Note_off_c, 2, 74, 127
1, 1290701, Note_off_c, 12, 83, 127
1, 1290701, Note_off_c, 12, 47, 127
1, 1290704, Note_off_c, 7, 43, 127
1, 1290756, Note_on_c, 0, 48, 127
1, 1290756, Note_on_c, 10, 45, 127
1, 1290756, Note_on_c, 10, 81, 127
1, 1290756, Note_on_c, 0, 72, 127
1, 1290856, Note_off_c, 0, 72, 127
1, 1290856, Note_off_c, 10, 81, 127
1, 1290856, Note_off_c, 10, 45, 127
1, 1290856, Note_off_c, 0, 48, 127
1, 1290911, Note_on_c, 2, 50, 127
1, 1290911, Note_on_c, 12, 47, 127
1, 1290911, Note_on_c, 7, 79, 127
1, 1290911, Note_on_c, 12, 71, 127
1, 1291011, Note_off_c, 12, 71, 127
1, 1291011, Note_off_c, 7, 79, 127
1, 1291011, Note_off_c, 12, 47, 127
1, 1291011, Note_off_c, 2, 50, 127
1, 1291066, Note_on_c, 0, 48, 127
1, 1291066, Note_on_c, 4, 52, 127
1, 1291066, Note_on_c, 10, 69, 127
1, 1291066, Note_on_c, 6, 78, 127
1, 1291166, Note_off_c, 6, 78, 127
1, 1291166, Note_off_c, 10, 69, 127
1, 1291166, Note_off_c, 4, 52, 127
1, 1291166, Note_off_c, 0, 48, 127
1, 1291220, Note_on_c, 6, 54, 127
1, 1291220, Note_on_c, 2, 50, 127
1, 1291220, Note_on_c, 4, 76, 127
1, 1291220, Note_on_c, 7, 67, 127
1, 1291320, Note_off_c, 7, 67, 127
1, 1291320, Note_off_c, 4, 76, 127
1, 1291320, Note_off_c, 2, 50, 127
1, 1291320, Note_off_c, 6, 54, 127
1, 1291375, Note_on_c, 7, 55, 127
1, 1291375, Note_on_c, 4, 52, 127
1, 1291375, Note_on_c, 6, 66, 127
1, 1291375, Note_on_c, 2, 74, 127
1, 1291475, Note_off_c, 2, 74, 127
1, 1291475, Note_off_c, 6, 66, 127
1, 1291475, Note_off_c, 4, 52, 127
1, 1291475, Note_off_c, 7, 55, 127
1, 1291530, Note_on_c, 6, 54, 127
1, 1291530, Note_on_c, 10, 57, 127
1, 1291530, Note_on_c, 0, 72, 127
1, 1291530, Note_on_c, 4, 64, 127
1, 1291630, Note_off_c, 4, 64, 127
1, 1291630, Note_off_c, 0, 72, 127
1, 1291630, Note_off_c, 10, 57, 127
1, 1291630, Note_off_c, 6, 54, 127
1, 1291701, Note_on_c, 2, 62, 127
1, 1291701, Note_on_c, 12, 71, 127
1, 1291701, Note_on_c, 7, 55, 127
1, 1291701, Note_on_c, 12, 59, 127
1, 1291921, Note_off_c, 12, 59, 127
1, 1291921, Note_off_c, 7, 55, 127
1, 1291921, Note_off_c, 12, 71, 127
1, 1291921, Note_off_c, 2, 62, 127
1, 1294878, Note_on_c, 7, 67, 127
1, 1294878, Note_on_c, 7, 55, 127
1, 1295355, Note_off_c, 7, 67, 127
1, 1295361, Note_on_c, 6, 66, 127
1, 1295599, Note_off_c, 6, 66, 127
1, 1295603, Note_on_c, 7, 67, 127
1, 1296076, Note_off_c, 7, 55, 127
1, 1296080, Note_off_c, 7, 67, 127
1, 1296086, Note_on_c, 10, 69, 127
1, 1296086, Note_on_c, 6, 54, 127
1, 1296324, Note_off_c, 6, 54, 127
1, 1296324, Note_off_c, 10, 69, 127
1, 1296328, Note_on_c, 12, 71, 127
1, 1296328, Note_on_c, 7, 55, 127
1, 1296566, Note_off_c, 12, 71, 127
1, 1296570, Note_on_c, 2, 74, 127
1, 1296805, Note_off_c, 7, 55, 127
1, 1296808, Note_off_c, 2, 74, 127
1, 1296811, Note_on_c, 1, 73, 127
1, 1296811, Note_on_c, 4, 52, 127
1, 1297049, Note_off_c, 4, 52, 127
1, 1297049, Note_off_c, 1, 73, 127
1, 1297053, Note_on_c, 2, 74, 127
1, 1297053, Note_on_c, 6, 54, 127
1, 1297530, Note_off_c, 2, 74, 127
1, 1297536, Note_on_c, 10, 69, 127
1, 1297774, Note_off_c, 10, 69, 127
1, 1297778, Note_on_c, 2, 74, 127
1, 1298251, Note_off_c, 6, 54, 127
1, 1298255, Note_off_c, 2, 74, 127
1, 1298261, Note_on_c, 4, 76, 127
1, 1298261, Note_on_c, 10, 57, 127
1, 1298499, Note_off_c, 10, 57, 127
1, 1298499, Note_off_c, 4, 76, 127
1, 1298503, Note_on_c, 6, 78, 127
1, 1298503, Note_on_c, 2, 50, 127
1, 1298621, Note_off_c, 6, 78, 127
1, 1298624, Note_on_c, 7, 79, 127
1, 1298742, Note_off_c, 7, 79, 127
1, 1298745, Note_on_c, 6, 78, 127
1, 1298863, Note_off_c, 6, 78, 127
1, 1298866, Note_on_c, 4, 76, 127
1, 1298980, Note_off_c, 2, 50, 127
1, 1298984, Note_off_c, 4, 76, 127
1, 1298987, Note_on_c, 2, 74, 127
1, 1298987, Note_on_c, 6, 54, 127
1, 1299225, Note_off_c, 6, 54, 127
1, 1299225, Note_off_c, 2, 74, 127
1, 1299228, Note_on_c, 7, 79, 127
1, 1299228, Note_on_c, 4, 52, 127
1, 1299228, Note_on_c, 7, 55, 127
1, 1299466, Note_off_c, 7, 79, 127
1, 1299470, Note_on_c, 12, 83, 127
1, 1299705, Note_off_c, 7, 55, 127
1, 1299708, Note_off_c, 12, 83, 127
1, 1299712, Note_on_c, 10, 81, 127
1, 1299712, Note_on_c, 6, 54, 127
1, 1299950, Note_off_c, 6, 54, 127
1, 1299950, Note_off_c, 10, 81, 127
1, 1299953, Note_on_c, 12, 83, 127
1, 1299953, Note_on_c, 7, 55, 127
1, 1300191, Note_off_c, 12, 83, 127
1, 1300195, Note_on_c, 7, 79, 127
1, 1300430, Note_off_c, 7, 55, 127
1, 1300433, Note_off_c, 7, 79, 127
1, 1300437, Note_on_c, 6, 78, 127
1, 1300437, Note_on_c, 10, 57, 127
1, 1300675, Note_off_c, 10, 57, 127
1, 1300675, Note_off_c, 6, 78, 127
1, 1300678, Note_on_c, 7, 79, 127
1, 1300678, Note_on_c, 12, 59, 127
1, 1300916, Note_off_c, 12, 59, 127
1, 1300920, Note_on_c, 2, 62, 127
1, 1301144, Note_off_c, 4, 52, 127
1, 1301158, Note_off_c, 2, 62, 127
1, 1301162, Note_on_c, 10, 57, 127
1, 1301162, Note_on_c, 1, 61, 127
1, 1301400, Note_off_c, 1, 61, 127
1, 1301400, Note_off_c, 10, 57, 127
1, 1301403, Note_on_c, 2, 50, 127
1, 1301403, Note_on_c, 2, 62, 127
1, 1301634, Note_off_c, 7, 79, 127
1, 1301645, Note_on_c, 6, 78, 127
1, 1301880, Note_off_c, 2, 62, 127
1, 1301883, Note_off_c, 6, 78, 127
1, 1301887, Note_on_c, 4, 76, 127
1, 1301887, Note_on_c, 10, 57, 127
1, 1302125, Note_off_c, 10, 57, 127
1, 1302125, Note_off_c, 4, 76, 127
1, 1302128, Note_on_c, 6, 78, 127
1, 1302128, Note_on_c, 2, 62, 127
1, 1302366, Note_off_c, 6, 78, 127
1, 1302370, Note_on_c, 7, 79, 127
1, 1302605, Note_off_c, 2, 62, 127
1, 1302608, Note_off_c, 7, 79, 127
1, 1302612, Note_on_c, 10, 81, 127
1, 1302612, Note_on_c, 4, 64, 127
1, 1302850, Note_off_c, 4, 64, 127
1, 1302850, Note_off_c, 10, 81, 127
1, 1302853, Note_on_c, 2, 74, 127
1, 1302853, Note_on_c, 6, 66, 127
1, 1302971, Note_off_c, 6, 66, 127
1, 1302974, Note_on_c, 7, 67, 127
1, 1303092, Note_off_c, 7, 67, 127
1, 1303095, Note_on_c, 6, 66, 127
1, 1303213, Note_off_c, 6, 66, 127
1, 1303216, Note_on_c, 4, 64, 127
1, 1303319, Note_off_c, 2, 50, 127
1, 1303334, Note_off_c, 4, 64, 127
1, 1303337, Note_on_c, 0, 60, 127
1, 1303337, Note_on_c, 2, 62, 127
1, 1303575, Note_off_c, 2, 62, 127
1, 1303575, Note_off_c, 0, 60, 127
1, 1303578, Note_on_c, 12, 59, 127
1, 1303578, Note_on_c, 7, 67, 127
1, 1303809, Note_off_c, 2, 74, 127
1, 1303816, Note_off_c, 7, 67, 127
1, 1303820, Note_on_c, 7, 79, 127
1, 1303820, Note_on_c, 12, 71, 127
1, 1304058, Note_off_c, 12, 71, 127
1, 1304058, Note_off_c, 7, 79, 127
1, 1304062, Note_on_c, 6, 78, 127
1, 1304062, Note_on_c, 10, 69, 127
1, 1304300, Note_off_c, 10, 69, 127
1, 1304300, Note_off_c, 6, 78, 127
1, 1304303, Note_on_c, 7, 79, 127
1, 1304303, Note_on_c, 12, 71, 127
1, 1304541, Note_off_c, 12, 71, 127
1, 1304541, Note_off_c, 7, 79, 127
1, 1304545, Note_on_c, 12, 83, 127
1, 1304545, Note_on_c, 7, 67, 127
1, 1304776, Note_off_c, 12, 59, 127
1, 1304783, Note_off_c, 7, 67, 127
1, 1304783, Note_off_c, 12, 83, 127
1, 1304787, Note_on_c, 10, 81, 127
1, 1304787, Note_on_c, 2, 62, 127
1, 1304787, Note_on_c, 6, 66, 127
1, 1305025, Note_off_c, 6, 66, 127
1, 1305025, Note_off_c, 2, 62, 127
1, 1305025, Note_off_c, 10, 81, 127
1, 1305029, Note_on_c, 12, 83, 127
1, 1305029, Note_on_c, 7, 55, 127
1, 1305029, Note_on_c, 7, 67, 127
1, 1305267, Note_off_c, 12, 83, 127
1, 1305270, Note_on_c, 2, 86, 127
1, 1305388, Note_off_c, 2, 86, 127
1, 1305391, Note_on_c, 0, 84, 127
1, 1305506, Note_off_c, 7, 55, 127
1, 1305509, Note_off_c, 0, 84, 127
1, 1305512, Note_on_c, 12, 83, 127
1, 1305512, Note_on_c, 12, 59, 127
1, 1305630, Note_off_c, 12, 83, 127
1, 1305633, Note_on_c, 10, 81, 127
1, 1305750, Note_off_c, 12, 59, 127
1, 1305751, Note_off_c, 10, 81, 127
1, 1305754, Note_on_c, 12, 83, 127
1, 1305754, Note_on_c, 4, 64, 127
1, 1305985, Note_off_c, 7, 67, 127
1, 1305992, Note_off_c, 12, 83, 127
1, 1305995, Note_on_c, 0, 84, 127
1, 1305995, Note_on_c, 6, 66, 127
1, 1306113, Note_off_c, 0, 84, 127
1, 1306116, Note_on_c, 12, 83, 127
1, 1306231, Note_off_c, 4, 64, 127
1, 1306233, Note_off_c, 6, 66, 127
1, 1306234, Note_off_c, 12, 83, 127
1, 1306237, Note_on_c, 10, 81, 127
1, 1306237, Note_on_c, 4, 64, 127
1, 1306355, Note_off_c, 10, 81, 127
1, 1306358, Note_on_c, 7, 79, 127
1, 1306476, Note_off_c, 7, 79, 127
1, 1306479, Note_on_c, 10, 81, 127
1, 1306479, Note_on_c, 6, 66, 127
1, 1306717, Note_off_c, 6, 66, 127
1, 1306717, Note_off_c, 10, 81, 127
1, 1306720, Note_on_c, 12, 83, 127
1, 1306720, Note_on_c, 7, 67, 127
1, 1306838, Note_off_c, 12, 83, 127
1, 1306841, Note_on_c, 10, 81, 127
1, 1306954, Note_off_c, 4, 64, 127
1, 1306958, Note_off_c, 7, 67, 127
1, 1306959, Note_off_c, 10, 81, 127
1, 1306962, Note_on_c, 7, 79, 127
1, 1306962, Note_on_c, 10, 57, 127
1, 1306962, Note_on_c, 10, 69, 127
1, 1307080, Note_off_c, 7, 79, 127
1, 1307083, Note_on_c, 6, 78, 127
1, 1307200, Note_off_c, 10, 69, 127
1, 1307200, Note_off_c, 10, 57, 127
1, 1307201, Note_off_c, 6, 78, 127
1, 1307204, Note_on_c, 7, 79, 127
1, 1307204, Note_on_c, 12, 59, 127
1, 1307204, Note_on_c, 2, 62, 127
1, 1307442, Note_off_c, 12, 59, 127
1, 1307442, Note_off_c, 7, 79, 127
1, 1307445, Note_on_c, 10, 81, 127
1, 1307445, Note_on_c, 10, 57, 127
1, 1307563, Note_off_c, 10, 81, 127
1, 1307566, Note_on_c, 7, 79, 127
1, 1307683, Note_off_c, 10, 57, 127
1, 1307684, Note_off_c, 7, 79, 127
1, 1307687, Note_on_c, 6, 78, 127
1, 1307687, Note_on_c, 12, 59, 127
1, 1307805, Note_off_c, 6, 78, 127
1, 1307808, Note_on_c, 4, 76, 127
1, 1307925, Note_off_c, 12, 59, 127
1, 1307926, Note_off_c, 4, 76, 127
1, 1307929, Note_on_c, 2, 74, 127
1, 1307929, Note_on_c, 0, 60, 127
1, 1308160, Note_off_c, 2, 62, 127
1, 1308167, Note_off_c, 0, 60, 127
1, 1308170, Note_on_c, 12, 59, 127
1, 1308170, Note_on_c, 7, 67, 127
1, 1308408, Note_off_c, 7, 67, 127
1, 1308408, Note_off_c, 12, 59, 127
1, 1308412, Note_on_c, 10, 57, 127
1, 1308412, Note_on_c, 6, 66, 127
1, 1308646, Note_off_c, 2, 74, 127
1, 1308650, Note_off_c, 6, 66, 127
1, 1308650, Note_off_c, 10, 57, 127
1, 1308654, Note_on_c, 7, 79, 127
1, 1308654, Note_on_c, 12, 59, 127
1, 1308654, Note_on_c, 7, 67, 127
1, 1308892, Note_off_c, 7, 67, 127
1, 1308892, Note_off_c, 12, 59, 127
1, 1308895, Note_on_c, 2, 62, 127
1, 1308895, Note_on_c, 12, 71, 127
1, 1309133, Note_off_c, 12, 71, 127
1, 1309133, Note_off_c, 2, 62, 127
1, 1309137, Note_on_c, 0, 60, 127
1, 1309137, Note_on_c, 10, 69, 127
1, 1309371, Note_off_c, 7, 79, 127
1, 1309375, Note_off_c, 10, 69, 127
1, 1309375, Note_off_c, 0, 60, 127
1, 1309379, Note_on_c, 6, 78, 127
1, 1309379, Note_on_c, 2, 62, 127
1, 1309379, Note_on_c, 12, 71, 127
1, 1309617, Note_off_c, 12, 71, 127
1, 1309620, Note_on_c, 2, 74, 127
1, 1309738, Note_off_c, 2, 74, 127
1, 1309741, Note_on_c, 0, 72, 127
1, 1309856, Note_off_c, 2, 62, 127
1, 1309859, Note_off_c, 0, 72, 127
1, 1309862, Note_on_c, 2, 50, 127
1, 1309862, Note_on_c, 12, 71, 127
1, 1309980, Note_off_c, 12, 71, 127
1, 1309983, Note_on_c, 10, 69, 127
1, 1310096, Note_off_c, 6, 78, 127
1, 1310100, Note_off_c, 2, 50, 127
1, 1310101, Note_off_c, 10, 69, 127
1, 1310104, Note_on_c, 7, 79, 127
1, 1310104, Note_on_c, 7, 55, 127
1, 1310104, Note_on_c, 12, 71, 127
1, 1310342, Note_off_c, 12, 71, 127
1, 1310345, Note_on_c, 0, 72, 127
1, 1310463, Note_off_c, 0, 72, 127
1, 1310466, Note_on_c, 12, 71, 127
1, 1310581, Note_off_c, 7, 55, 127
1, 1310584, Note_off_c, 12, 71, 127
1, 1310587, Note_on_c, 7, 43, 127
1, 1310587, Note_on_c, 10, 69, 127
1, 1310705, Note_off_c, 10, 69, 127
1, 1310708, Note_on_c, 7, 67, 127
1, 1310821, Note_off_c, 7, 79, 127
1, 1310825, Note_off_c, 7, 43, 127
1, 1310826, Note_off_c, 7, 67, 127
1, 1310829, Note_on_c, 0, 72, 127
1, 1310829, Note_on_c, 7, 43, 127
1, 1310829, Note_on_c, 10, 69, 127
1, 1311067, Note_off_c, 10, 69, 127
1, 1311071, Note_on_c, 12, 71, 127
1, 1311189, Note_off_c, 12, 71, 127
1, 1311191, Note_on_c, 10, 69, 127
1, 1311306, Note_off_c, 7, 43, 127
1, 1311309, Note_off_c, 10, 69, 127
1, 1311312, Note_on_c, 7, 55, 127
1, 1311312, Note_on_c, 7, 67, 127
1, 1311430, Note_off_c, 7, 67, 127
1, 1311433, Note_on_c, 6, 66, 127
1, 1311546, Note_off_c, 0, 72, 127
1, 1311550, Note_off_c, 7, 55, 127
1, 1311551, Note_off_c, 6, 66, 127
1, 1311554, Note_on_c, 12, 71, 127
1, 1311554, Note_on_c, 7, 55, 127
1, 1311554, Note_on_c, 7, 67, 127
1, 1311792, Note_off_c, 7, 67, 127
1, 1311792, Note_off_c, 7, 55, 127
1, 1311796, Note_on_c, 6, 54, 127
1, 1311796, Note_on_c, 10, 69, 127
1, 1311914, Note_off_c, 10, 69, 127
1, 1311914, Note_off_c, 6, 54, 127
1, 1311916, Note_on_c, 4, 52, 127
1, 1311916, Note_on_c, 7, 67, 127
1, 1312034, Note_off_c, 7, 67, 127
1, 1312034, Note_off_c, 4, 52, 127
1, 1312037, Note_on_c, 2, 50, 127
1, 1312037, Note_on_c, 6, 66, 127
1, 1312155, Note_off_c, 6, 66, 127
1, 1312155, Note_off_c, 2, 50, 127
1, 1312158, Note_on_c, 0, 48, 127
1, 1312158, Note_on_c, 4, 64, 127
1, 1312271, Note_off_c, 12, 71, 127
1, 1312276, Note_off_c, 4, 64, 127
1, 1312276, Note_off_c, 0, 48, 127
1, 1312279, Note_on_c, 12, 47, 127
1, 1312279, Note_on_c, 2, 62, 127
1, 1312492, Note_off_c, 2, 62, 127
1, 1312517, Note_off_c, 12, 47, 127
1, 1312521, Note_on_c, 7, 43, 127
1, 1312521, Note_on_c, 12, 71, 127
1, 1312759, Note_off_c, 12, 71, 127
1, 1312759, Note_off_c, 7, 43, 127
1, 1312762, Note_on_c, 10, 45, 127
1, 1312762, Note_on_c, 10, 69, 127
1, 1313000, Note_off_c, 10, 69, 127
1, 1313000, Note_off_c, 10, 45, 127
1, 1313004, Note_on_c, 12, 47, 127
1, 1313004, Note_on_c, 7, 67, 127
1, 1313242, Note_off_c, 7, 67, 127
1, 1313242, Note_off_c, 12, 47, 127
1, 1313246, Note_on_c, 0, 48, 127
1, 1313246, Note_on_c, 10, 69, 127
1, 1313484, Note_off_c, 10, 69, 127
1, 1313484, Note_off_c, 0, 48, 127
1, 1313487, Note_on_c, 2, 50, 127
1, 1313487, Note_on_c, 6, 66, 127
1, 1313725, Note_off_c, 6, 66, 127
1, 1313725, Note_off_c, 2, 50, 127
1, 1313729, Note_on_c, 7, 43, 127
1, 1313729, Note_on_c, 4, 64, 127
1, 1313847, Note_off_c, 4, 64, 127
1, 1313850, Note_on_c, 2, 62, 127
1, 1313968, Note_off_c, 2, 62, 127
1, 1313971, Note_on_c, 1, 61, 127
1, 1314206, Note_off_c, 7, 43, 127
1, 1314209, Note_off_c, 1, 61, 127
1, 1314212, Note_on_c, 7, 55, 127
1, 1314212, Note_on_c, 2, 62, 127
1, 1314450, Note_off_c, 2, 62, 127
1, 1314454, Note_on_c, 2, 62, 127
1, 1314690, Note_off_c, 7, 55, 127
1, 1314696, Note_on_c, 6, 54, 127
1, 1314931, Note_off_c, 2, 62, 127
1, 1314934, Note_off_c, 6, 54, 127
1, 1314937, Note_on_c, 4, 52, 127
1, 1314937, Note_on_c, 1, 61, 127
1, 1315175, Note_off_c, 4, 52, 127
1, 1315179, Note_on_c, 10, 57, 127
1, 1315414, Note_off_c, 1, 61, 127
1, 1315421, Note_on_c, 2, 62, 127
1, 1315656, Note_off_c, 10, 57, 127
1, 1315659, Note_off_c, 2, 62, 127
1, 1315662, Note_on_c, 7, 55, 127
1, 1315662, Note_on_c, 4, 64, 127
1, 1315900, Note_off_c, 4, 64, 127
1, 1315900, Note_off_c, 7, 55, 127
1, 1315904, Note_on_c, 6, 54, 127
1, 1315904, Note_on_c, 10, 57, 127
1, 1316142, Note_off_c, 10, 57, 127
1, 1316142, Note_off_c, 6, 54, 127
1, 1316146, Note_on_c, 7, 55, 127
1, 1316146, Note_on_c, 12, 59, 127
1, 1316384, Note_off_c, 12, 59, 127
1, 1316384, Note_off_c, 7, 55, 127
1, 1316387, Note_on_c, 10, 57, 127
1, 1316387, Note_on_c, 1, 61, 127
1, 1316625, Note_off_c, 1, 61, 127
1, 1316625, Note_off_c, 10, 57, 127
1, 1316629, Note_on_c, 12, 59, 127
1, 1316629, Note_on_c, 2, 62, 127
1, 1316871, Note_on_c, 12, 83, 127
1, 1317106, Note_off_c, 2, 62, 127
1, 1317109, Note_off_c, 12, 83, 127
1, 1317113, Note_on_c, 10, 81, 127
1, 1317113, Note_on_c, 6, 66, 127
1, 1317351, Note_off_c, 6, 66, 127
1, 1317351, Note_off_c, 10, 81, 127
1, 1317354, Note_on_c, 7, 79, 127
1, 1317354, Note_on_c, 7, 67, 127
1, 1317592, Note_off_c, 7, 79, 127
1, 1317596, Note_on_c, 10, 81, 127
1, 1317827, Note_off_c, 12, 59, 127
1, 1317831, Note_off_c, 7, 67, 127
1, 1317834, Note_off_c, 10, 81, 127
1, 1317838, Note_on_c, 6, 78, 127
1, 1317838, Note_on_c, 10, 57, 127
1, 1317838, Note_on_c, 10, 69, 127
1, 1318076, Note_off_c, 10, 69, 127
1, 1318076, Note_off_c, 10, 57, 127
1, 1318076, Note_off_c, 6, 78, 127
1, 1318079, Note_on_c, 4, 76, 127
1, 1318079, Note_on_c, 7, 55, 127
1, 1318079, Note_on_c, 12, 59, 127
1, 1318197, Note_off_c, 4, 76, 127
1, 1318200, Note_on_c, 2, 74, 127
1, 1318318, Note_off_c, 2, 74, 127
1, 1318321, Note_on_c, 1, 73, 127
1, 1318556, Note_off_c, 7, 55, 127
1, 1318559, Note_off_c, 1, 73, 127
1, 1318563, Note_on_c, 2, 74, 127
1, 1318563, Note_on_c, 4, 52, 127
1, 1318801, Note_off_c, 4, 52, 127
1, 1318801, Note_off_c, 2, 74, 127
1, 1318804, Note_on_c, 2, 74, 127
1, 1318804, Note_on_c, 10, 45, 127
1, 1319035, Note_off_c, 12, 59, 127
1, 1319046, Note_on_c, 10, 57, 127
1, 1319281, Note_off_c, 2, 74, 127
1, 1319284, Note_off_c, 10, 57, 127
1, 1319288, Note_on_c, 1, 73, 127
1, 1319288, Note_on_c, 8, 56, 127
1, 1319526, Note_off_c, 8, 56, 127
1, 1319529, Note_on_c, 10, 57, 127
1, 1319765, Note_off_c, 1, 73, 127
1, 1319771, Note_on_c, 2, 74, 127
1, 1320002, Note_off_c, 10, 45, 127
1, 1320009, Note_off_c, 2, 74, 127
1, 1320013, Note_on_c, 4, 76, 127
1, 1320013, Note_on_c, 7, 55, 127
1, 1320251, Note_off_c, 7, 55, 127
1, 1320251, Note_off_c, 4, 76, 127
1, 1320254, Note_on_c, 10, 69, 127
1, 1320254, Note_on_c, 6, 54, 127
1, 1320492, Note_off_c, 10, 69, 127
1, 1320496, Note_on_c, 12, 71, 127
1, 1320731, Note_off_c, 6, 54, 127
1, 1320734, Note_off_c, 12, 71, 127
1, 1320738, Note_on_c, 1, 73, 127
1, 1320738, Note_on_c, 4, 52, 127
1, 1320976, Note_off_c, 4, 52, 127
1, 1320976, Note_off_c, 1, 73, 127
1, 1320979, Note_on_c, 2, 74, 127
1, 1320979, Note_on_c, 6, 54, 127
1, 1321205, Note_off_c, 10, 57, 127
1, 1321221, Note_on_c, 2, 62, 127
1, 1321433, Note_off_c, 2, 74, 127
1, 1321456, Note_off_c, 6, 54, 127
1, 1321459, Note_off_c, 2, 62, 127
1, 1321463, Note_on_c, 6, 78, 127
1, 1321463, Note_on_c, 10, 57, 127
1, 1321463, Note_on_c, 1, 61, 127
1, 1321701, Note_off_c, 1, 61, 127
1, 1321701, Note_off_c, 10, 57, 127
1, 1321701, Note_off_c, 6, 78, 127
1, 1321704, Note_on_c, 7, 79, 127
1, 1321704, Note_on_c, 12, 59, 127
1, 1321704, Note_on_c, 2, 62, 127
1, 1321822, Note_off_c, 2, 62, 127
1, 1321825, Note_on_c, 4, 64, 127
1, 1321943, Note_off_c, 4, 64, 127
1, 1321946, Note_on_c, 6, 66, 127
1, 1322181, Note_off_c, 12, 59, 127
1, 1322181, Note_off_c, 7, 79, 127
1, 1322184, Note_off_c, 6, 66, 127
1, 1322188, Note_on_c, 10, 81, 127
1, 1322188, Note_on_c, 1, 61, 127
1, 1322188, Note_on_c, 4, 64, 127
1, 1322426, Note_off_c, 4, 64, 127
1, 1322426, Note_off_c, 1, 61, 127
1, 1322426, Note_off_c, 10, 81, 127
1, 1322429, Note_on_c, 12, 71, 127
1, 1322429, Note_on_c, 2, 62, 127
1, 1322429, Note_on_c, 6, 66, 127
1, 1322667, Note_off_c, 6, 66, 127
1, 1322671, Note_on_c, 10, 69, 127
1, 1322789, Note_off_c, 10, 69, 127
1, 1322792, Note_on_c, 7, 67, 127
1, 1322906, Note_off_c, 2, 62, 127
1, 1322910, Note_off_c, 7, 67, 127
1, 1322913, Note_on_c, 2, 50, 127
1, 1322913, Note_on_c, 6, 66, 127
1, 1323031, Note_off_c, 6, 66, 127
1, 1323034, Note_on_c, 4, 64, 127
1, 1323151, Note_off_c, 2, 50, 127
1, 1323152, Note_off_c, 4, 64, 127
1, 1323155, Note_on_c, 7, 55, 127
1, 1323155, Note_on_c, 6, 66, 127
1, 1323385, Note_off_c, 12, 71, 127
1, 1323393, Note_off_c, 6, 66, 127
1, 1323396, Note_on_c, 10, 69, 127
1, 1323396, Note_on_c, 7, 67, 127
1, 1323514, Note_off_c, 7, 67, 127
1, 1323517, Note_on_c, 6, 66, 127
1, 1323632, Note_off_c, 7, 55, 127
1, 1323634, Note_off_c, 10, 69, 127
1, 1323635, Note_off_c, 6, 66, 127
1, 1323638, Note_on_c, 7, 67, 127
1, 1323638, Note_on_c, 12, 47, 127
1, 1323638, Note_on_c, 4, 64, 127
1, 1323756, Note_off_c, 4, 64, 127
1, 1323759, Note_on_c, 2, 62, 127
1, 1323876, Note_off_c, 12, 47, 127
1, 1323876, Note_off_c, 7, 67, 127
1, 1323877, Note_off_c, 2, 62, 127
1, 1323880, Note_on_c, 10, 69, 127
1, 1323880, Note_on_c, 1, 49, 127
1, 1323880, Note_on_c, 4, 64, 127
1, 1324118, Note_off_c, 4, 64, 127
1, 1324118, Note_off_c, 1, 49, 127
1, 1324121, Note_on_c, 2, 50, 127
1, 1324121, Note_on_c, 6, 66, 127
1, 1324239, Note_off_c, 6, 66, 127
1, 1324242, Note_on_c, 4, 64, 127
1, 1324359, Note_off_c, 2, 50, 127
1, 1324360, Note_off_c, 4, 64, 127
1, 1324363, Note_on_c, 4, 52, 127
1, 1324363, Note_on_c, 2, 62, 127
1, 1324481, Note_off_c, 2, 62, 127
1, 1324484, Note_on_c, 1, 61, 127
1, 1324601, Note_off_c, 4, 52, 127
1, 1324602, Note_off_c, 1, 61, 127
1, 1324605, Note_on_c, 6, 54, 127
1, 1324605, Note_on_c, 2, 62, 127
1, 1324843, Note_off_c, 2, 62, 127
1, 1324843, Note_off_c, 6, 54, 127
1, 1324846, Note_on_c, 4, 52, 127
1, 1324846, Note_on_c, 4, 64, 127
1, 1324964, Note_off_c, 4, 64, 127
1, 1324967, Note_on_c, 2, 62, 127
1, 1325084, Note_off_c, 4, 52, 127
1, 1325085, Note_off_c, 2, 62, 127
1, 1325088, Note_on_c, 6, 54, 127
1, 1325088, Note_on_c, 1, 61, 127
1, 1325206, Note_off_c, 1, 61, 127
1, 1325209, Note_on_c, 12, 59, 127
1, 1325326, Note_off_c, 6, 54, 127
1, 1325327, Note_off_c, 12, 59, 127
1, 1325330, Note_on_c, 7, 55, 127
1, 1325330, Note_on_c, 10, 57, 127
1, 1325556, Note_off_c, 10, 69, 127
1, 1325568, Note_off_c, 7, 55, 127
1, 1325571, Note_on_c, 2, 74, 127
1, 1325571, Note_on_c, 6, 54, 127
1, 1325809, Note_off_c, 6, 54, 127
1, 1325809, Note_off_c, 2, 74, 127
1, 1325813, Note_on_c, 1, 73, 127
1, 1325813, Note_on_c, 4, 52, 127
1, 1326047, Note_off_c, 10, 57, 127
1, 1326051, Note_off_c, 4, 52, 127
1, 1326051, Note_off_c, 1, 73, 127
1, 1326055, Note_on_c, 2, 74, 127
1, 1326055, Note_on_c, 6, 54, 127
1, 1326055, Note_on_c, 2, 62, 127
1, 1326173, Note_off_c, 2, 74, 127
1, 1326176, Note_on_c, 4, 76, 127
1, 1326293, Note_off_c, 6, 54, 127
1, 1326294, Note_off_c, 4, 76, 127
1, 1326296, Note_on_c, 6, 78, 127
1, 1326296, Note_on_c, 10, 57, 127
1, 1326534, Note_off_c, 10, 57, 127
1, 1326534, Note_off_c, 6, 78, 127
1, 1326538, Note_on_c, 4, 76, 127
1, 1326538, Note_on_c, 7, 55, 127
1, 1326772, Note_off_c, 2, 62, 127
1, 1326776, Note_off_c, 7, 55, 127
1, 1326776, Note_off_c, 4, 76, 127
1, 1326780, Note_on_c, 6, 78, 127
1, 1326780, Note_on_c, 10, 57, 127
1, 1326780, Note_on_c, 1, 61, 127
1, 1327018, Note_off_c, 6, 78, 127
1, 1327021, Note_on_c, 10, 81, 127
1, 1327139, Note_off_c, 10, 81, 127
1, 1327142, Note_on_c, 7, 79, 127
1, 1327257, Note_off_c, 10, 57, 127
1, 1327260, Note_off_c, 7, 79, 127
1, 1327263, Note_on_c, 6, 78, 127
1, 1327263, Note_on_c, 10, 45, 127
1, 1327381, Note_off_c, 6, 78, 127
1, 1327384, Note_on_c, 4, 76, 127
1, 1327497, Note_off_c, 1, 61, 127
1, 1327501, Note_off_c, 10, 45, 127
1, 1327502, Note_off_c, 4, 76, 127
1, 1327505, Note_on_c, 6, 78, 127
1, 1327505, Note_on_c, 2, 50, 127
1, 1327505, Note_on_c, 2, 62, 127
1, 1327743, Note_off_c, 6, 78, 127
1, 1327746, Note_on_c, 7, 79, 127
1, 1327864, Note_off_c, 7, 79, 127
1, 1327867, Note_on_c, 6, 78, 127
1, 1327982, Note_off_c, 2, 50, 127
1, 1327985, Note_off_c, 6, 78, 127
1, 1327988, Note_on_c, 4, 76, 127
1, 1327988, Note_on_c, 2, 38, 127
1, 1328106, Note_off_c, 4, 76, 127
1, 1328109, Note_on_c, 2, 74, 127
1, 1328222, Note_off_c, 2, 62, 127
1, 1328226, Note_off_c, 2, 38, 127
1, 1328227, Note_off_c, 2, 74, 127
1, 1328230, Note_on_c, 4, 76, 127
1, 1328230, Note_on_c, 2, 38, 127
1, 1328230, Note_on_c, 7, 67, 127
1, 1328468, Note_off_c, 4, 76, 127
1, 1328471, Note_on_c, 6, 78, 127
1, 1328589, Note_off_c, 6, 78, 127
1, 1328592, Note_on_c, 4, 76, 127
1, 1328707, Note_off_c, 2, 38, 127
1, 1328710, Note_off_c, 4, 76, 127
1, 1328713, Note_on_c, 2, 74, 127
1, 1328713, Note_on_c, 2, 50, 127
1, 1328831, Note_off_c, 2, 74, 127
1, 1328834, Note_on_c, 1, 73, 127
1, 1328947, Note_off_c, 7, 67, 127
1, 1328951, Note_off_c, 2, 50, 127
1, 1328952, Note_off_c, 1, 73, 127
1, 1328955, Note_on_c, 2, 74, 127
1, 1328955, Note_on_c, 2, 50, 127
1, 1328955, Note_on_c, 6, 66, 127
1, 1329672, Note_off_c, 6, 66, 127
1, 1329672, Note_off_c, 2, 50, 127
1, 1329672, Note_off_c, 2, 74, 127
1, 1329680, Note_on_c, 2, 50, 127
1, 1329680, Note_on_c, 12, 71, 127
1, 1329742, Note_on_c, 10, 69, 127
1, 1329756, Note_off_c, 12, 71, 127
1, 1329805, Note_on_c, 7, 67, 127
1, 1329818, Note_off_c, 10, 69, 127
1, 1329869, Note_on_c, 10, 69, 127
1, 1329881, Note_off_c, 7, 67, 127
1, 1329916, Note_off_c, 2, 50, 127
1, 1329919, Note_on_c, 6, 54, 127
1, 1329931, Note_on_c, 12, 71, 127
1, 1329945, Note_off_c, 10, 69, 127
1, 1329995, Note_on_c, 10, 69, 127
1, 1330007, Note_off_c, 12, 71, 127
1, 1330057, Note_on_c, 12, 71, 127
1, 1330071, Note_off_c, 10, 69, 127
1, 1330120, Note_on_c, 10, 69, 127
1, 1330133, Note_off_c, 12, 71, 127
1, 1330156, Note_off_c, 6, 54, 127
1, 1330160, Note_on_c, 10, 57, 127
1, 1330184, Note_on_c, 12, 71, 127
1, 1330197, Note_off_c, 10, 69, 127
1, 1330247, Note_on_c, 10, 69, 127
1, 1330260, Note_off_c, 12, 71, 127
1, 1330311, Note_on_c, 12, 71, 127
1, 1330323, Note_off_c, 10, 69, 127
1, 1330373, Note_on_c, 10, 69, 127
1, 1330387, Note_off_c, 12, 71, 127
1, 1330397, Note_off_c, 10, 57, 127
1, 1330401, Note_on_c, 2, 62, 127
1, 1330436, Note_on_c, 12, 71, 127
1, 1330449, Note_off_c, 10, 69, 127
1, 1330499, Note_on_c, 10, 69, 127
1, 1330512, Note_off_c, 12, 71, 127
1, 1330562, Note_on_c, 12, 71, 127
1, 1330575, Note_off_c, 10, 69, 127
1, 1330625, Note_on_c, 10, 69, 127
1, 1330637, Note_off_c, 2, 62, 127
1, 1330638, Note_off_c, 12, 71, 127
1, 1330640, Note_on_c, 4, 64, 127
1, 1330688, Note_on_c, 12, 71, 127
1, 1330701, Note_off_c, 10, 69, 127
1, 1330750, Note_on_c, 10, 69, 127
1, 1330757, Note_off_c, 4, 64, 127
1, 1330760, Note_on_c, 2, 62, 127
1, 1330764, Note_off_c, 12, 71, 127
1, 1330814, Note_on_c, 12, 71, 127
1, 1330826, Note_off_c, 10, 69, 127
1, 1330877, Note_off_c, 2, 62, 127
1, 1330877, Note_on_c, 10, 69, 127
1, 1330880, Note_on_c, 0, 60, 127
1, 1330890, Note_off_c, 12, 71, 127
1, 1330940, Note_on_c, 12, 71, 127
1, 1330953, Note_off_c, 10, 69, 127
1, 1330998, Note_off_c, 0, 60, 127
1, 1331001, Note_on_c, 12, 59, 127
1, 1331003, Note_on_c, 10, 69, 127
1, 1331016, Note_off_c, 12, 71, 127
1, 1331065, Note_on_c, 12, 71, 127
1, 1331079, Note_off_c, 10, 69, 127
1, 1331118, Note_off_c, 12, 59, 127
1, 1331120, Note_on_c, 0, 60, 127
1, 1331129, Note_on_c, 10, 69, 127
1, 1331141, Note_off_c, 12, 71, 127
1, 1331191, Note_on_c, 12, 71, 127
1, 1331205, Note_off_c, 10, 69, 127
1, 1331255, Note_on_c, 10, 69, 127
1, 1331267, Note_off_c, 12, 71, 127
1, 1331318, Note_on_c, 12, 71, 127
1, 1331331, Note_off_c, 10, 69, 127
1, 1331356, Note_off_c, 0, 60, 127
1, 1331360, Note_on_c, 2, 62, 127
1, 1331380, Note_on_c, 10, 69, 127
1, 1331394, Note_off_c, 12, 71, 127
1, 1331444, Note_on_c, 12, 71, 127
1, 1331456, Note_off_c, 10, 69, 127
1, 1331477, Note_off_c, 2, 62, 127
1, 1331480, Note_on_c, 0, 60, 127
1, 1331506, Note_on_c, 10, 69, 127
1, 1331520, Note_off_c, 12, 71, 127
1, 1331570, Note_on_c, 12, 71, 127
1, 1331582, Note_off_c, 10, 69, 127
1, 1331597, Note_off_c, 0, 60, 127
1, 1331600, Note_on_c, 12, 59, 127
1, 1331632, Note_on_c, 10, 69, 127
1, 1331646, Note_off_c, 12, 71, 127
1, 1331695, Note_on_c, 12, 71, 127
1, 1331708, Note_off_c, 10, 69, 127
1, 1331717, Note_off_c, 12, 59, 127
1, 1331719, Note_on_c, 10, 57, 127
1, 1331759, Note_on_c, 10, 69, 127
1, 1331771, Note_off_c, 12, 71, 127
1, 1331821, Note_on_c, 12, 71, 127
1, 1331835, Note_off_c, 10, 69, 127
1, 1331836, Note_off_c, 10, 57, 127
1, 1331839, Note_on_c, 12, 59, 127
1, 1331892, Note_on_c, 10, 69, 127
1, 1331897, Note_off_c, 12, 71, 127
1, 1331955, Note_on_c, 12, 71, 127
1, 1331968, Note_off_c, 10, 69, 127
1, 1332017, Note_on_c, 10, 69, 127
1, 1332031, Note_off_c, 12, 71, 127
1, 1332080, Note_off_c, 10, 69, 127
1, 1332080, Note_on_c, 7, 67, 127
1, 1332318, Note_off_c, 7, 67, 127
1, 1332321, Note_on_c, 6, 66, 127
1, 1332559, Note_off_c, 6, 66, 127
1, 1332563, Note_on_c, 7, 67, 127
1, 1332794, Note_off_c, 12, 59, 127
1, 1332801, Note_off_c, 7, 67, 127
1, 1332805, Note_on_c, 0, 60, 127
1, 1332805, Note_on_c, 7, 67, 127
1, 1332863, Note_off_c, 7, 67, 127
1, 1332865, Note_on_c, 10, 69, 127
1, 1332923, Note_off_c, 10, 69, 127
1, 1332926, Note_on_c, 12, 71, 127
1, 1333043, Note_off_c, 0, 60, 127
1, 1333044, Note_off_c, 12, 71, 127
1, 1333046, Note_on_c, 2, 62, 127
1, 1333046, Note_on_c, 10, 69, 127
1, 1333284, Note_off_c, 10, 69, 127
1, 1333284, Note_off_c, 2, 62, 127
1, 1333288, Note_on_c, 7, 55, 127
1, 1333288, Note_on_c, 12, 71, 127
1, 1333526, Note_off_c, 7, 55, 127
1, 1333530, Note_on_c, 10, 57, 127
1, 1333768, Note_off_c, 10, 57, 127
1, 1333771, Note_on_c, 12, 59, 127
1, 1333771, Note_on_c, 3, 63, 127
1, 1333835, Note_off_c, 12, 71, 127
1, 1334009, Note_off_c, 3, 63, 127
1, 1334009, Note_off_c, 12, 59, 127
1, 1334013, Note_on_c, 0, 60, 127
1, 1334013, Note_on_c, 4, 64, 127
1, 1334013, Note_on_c, 12, 83, 127
1, 1334076, Note_on_c, 10, 81, 127
1, 1334089, Note_off_c, 12, 83, 127
1, 1334138, Note_on_c, 7, 79, 127
1, 1334152, Note_off_c, 10, 81, 127
1, 1334202, Note_on_c, 10, 81, 127
1, 1334214, Note_off_c, 7, 79, 127
1, 1334249, Note_off_c, 4, 64, 127
1, 1334253, Note_on_c, 7, 67, 127
1, 1334264, Note_on_c, 12, 83, 127
1, 1334278, Note_off_c, 10, 81, 127
1, 1334328, Note_on_c, 10, 81, 127
1, 1334340, Note_off_c, 12, 83, 127
1, 1334371, Note_off_c, 7, 67, 127
1, 1334374, Note_on_c, 6, 66, 127
1, 1334392, Note_on_c, 12, 83, 127
1, 1334405, Note_off_c, 10, 81, 127
1, 1334454, Note_on_c, 10, 81, 127
1, 1334468, Note_off_c, 12, 83, 127
1, 1334492, Note_off_c, 6, 66, 127
1, 1334494, Note_on_c, 4, 64, 127
1, 1334519, Note_on_c, 12, 83, 127
1, 1334531, Note_off_c, 10, 81, 127
1, 1334581, Note_on_c, 10, 81, 127
1, 1334595, Note_off_c, 12, 83, 127
1, 1334612, Note_off_c, 4, 64, 127
1, 1334615, Note_on_c, 2, 62, 127
1, 1334646, Note_on_c, 12, 83, 127
1, 1334658, Note_off_c, 10, 81, 127
1, 1334709, Note_on_c, 10, 81, 127
1, 1334722, Note_off_c, 12, 83, 127
1, 1334728, Note_off_c, 0, 60, 127
1, 1334733, Note_off_c, 2, 62, 127
1, 1334736, Note_on_c, 10, 57, 127
1, 1334736, Note_on_c, 0, 60, 127
1, 1334771, Note_on_c, 12, 83, 127
1, 1334785, Note_off_c, 10, 81, 127
1, 1334835, Note_on_c, 10, 81, 127
1, 1334847, Note_off_c, 12, 83, 127
1, 1334897, Note_on_c, 12, 83, 127
1, 1334911, Note_off_c, 10, 81, 127
1, 1334961, Note_on_c, 10, 81, 127
1, 1334972, Note_off_c, 0, 60, 127
1, 1334973, Note_off_c, 12, 83, 127
1, 1334976, Note_on_c, 4, 64, 127
1, 1335023, Note_on_c, 12, 83, 127
1, 1335037, Note_off_c, 10, 81, 127
1, 1335086, Note_on_c, 10, 81, 127
1, 1335093, Note_off_c, 4, 64, 127
1, 1335095, Note_on_c, 2, 62, 127
1, 1335099, Note_off_c, 12, 83, 127
1, 1335149, Note_on_c, 12, 83, 127
1, 1335162, Note_off_c, 10, 81, 127
1, 1335212, Note_off_c, 2, 62, 127
1, 1335212, Note_on_c, 10, 81, 127
1, 1335215, Note_on_c, 0, 60, 127
1, 1335225, Note_off_c, 12, 83, 127
1, 1335276, Note_on_c, 12, 83, 127
1, 1335288, Note_off_c, 10, 81, 127
1, 1335333, Note_off_c, 0, 60, 127
1, 1335336, Note_on_c, 12, 59, 127
1, 1335338, Note_on_c, 10, 81, 127
1, 1335352, Note_off_c, 12, 83, 127
1, 1335401, Note_on_c, 12, 83, 127
1, 1335414, Note_off_c, 10, 81, 127
1, 1335447, Note_off_c, 10, 57, 127
1, 1335453, Note_off_c, 12, 59, 127
1, 1335456, Note_on_c, 6, 54, 127
1, 1335456, Note_on_c, 10, 57, 127
1, 1335464, Note_on_c, 10, 81, 127
1, 1335477, Note_off_c, 12, 83, 127
1, 1335527, Note_on_c, 12, 83, 127
1, 1335540, Note_off_c, 10, 81, 127
1, 1335590, Note_on_c, 10, 81, 127
1, 1335603, Note_off_c, 12, 83, 127
1, 1335653, Note_on_c, 12, 83, 127
1, 1335666, Note_off_c, 10, 81, 127
1, 1335692, Note_off_c, 10, 57, 127
1, 1335695, Note_on_c, 0, 60, 127
1, 1335716, Note_on_c, 10, 81, 127
1, 1335729, Note_off_c, 12, 83, 127
1, 1335779, Note_on_c, 12, 83, 127
1, 1335792, Note_off_c, 10, 81, 127
1, 1335812, Note_off_c, 0, 60, 127
1, 1335815, Note_on_c, 12, 59, 127
1, 1335842, Note_on_c, 10, 81, 127
1, 1335855, Note_off_c, 12, 83, 127
1, 1335905, Note_on_c, 12, 83, 127
1, 1335918, Note_off_c, 10, 81, 127
1, 1335932, Note_off_c, 12, 59, 127
1, 1335935, Note_on_c, 10, 57, 127
1, 1335968, Note_on_c, 10, 81, 127
1, 1335981, Note_off_c, 12, 83, 127
1, 1336030, Note_on_c, 12, 83, 127
1, 1336044, Note_off_c, 10, 81, 127
1, 1336052, Note_off_c, 10, 57, 127
1, 1336055, Note_on_c, 7, 55, 127
1, 1336094, Note_on_c, 10, 81, 127
1, 1336106, Note_off_c, 12, 83, 127
1, 1336156, Note_on_c, 12, 83, 127
1, 1336166, Note_off_c, 6, 54, 127
1, 1336170, Note_off_c, 10, 81, 127
1, 1336172, Note_off_c, 7, 55, 127
1, 1336175, Note_on_c, 3, 51, 127
1, 1336175, Note_on_c, 6, 54, 127
1, 1336228, Note_on_c, 10, 81, 127
1, 1336232, Note_off_c, 12, 83, 127
1, 1336290, Note_on_c, 12, 83, 127
1, 1336304, Note_off_c, 10, 81, 127
1, 1336353, Note_on_c, 10, 81, 127
1, 1336366, Note_off_c, 12, 83, 127
1, 1336411, Note_off_c, 10, 81, 127
1, 1336416, Note_on_c, 7, 79, 127
1, 1336652, Note_off_c, 6, 54, 127
1, 1336652, Note_off_c, 3, 51, 127
1, 1336654, Note_off_c, 7, 79, 127
1, 1336658, Note_on_c, 6, 78, 127
1, 1336658, Note_on_c, 6, 54, 127
1, 1336658, Note_on_c, 4, 64, 127
1, 1336896, Note_off_c, 4, 64, 127
1, 1336896, Note_off_c, 6, 54, 127
1, 1336896, Note_off_c, 6, 78, 127
1, 1336900, Note_on_c, 7, 79, 127
1, 1336900, Note_on_c, 12, 59, 127
1, 1336900, Note_on_c, 3, 63, 127
1, 1337138, Note_off_c, 3, 63, 127
1, 1337138, Note_off_c, 7, 79, 127
1, 1337141, Note_on_c, 12, 83, 127
1, 1337141, Note_on_c, 6, 66, 127
1, 1337199, Note_off_c, 6, 66, 127
1, 1337202, Note_on_c, 4, 64, 127
1, 1337260, Note_off_c, 4, 64, 127
1, 1337262, Note_on_c, 3, 63, 127
1, 1337320, Note_off_c, 3, 63, 127
1, 1337322, Note_on_c, 4, 64, 127
1, 1337379, Note_off_c, 12, 83, 127
1, 1337380, Note_off_c, 4, 64, 127
1, 1337383, Note_on_c, 10, 81, 127
1, 1337383, Note_on_c, 6, 66, 127
1, 1337617, Note_off_c, 12, 59, 127
1, 1337621, Note_off_c, 6, 66, 127
1, 1337621, Note_off_c, 10, 81, 127
1, 1337625, Note_on_c, 12, 83, 127
1, 1337625, Note_on_c, 12, 59, 127
1, 1337866, Note_on_c, 7, 55, 127
1, 1338102, Note_off_c, 12, 83, 127
1, 1338104, Note_off_c, 7, 55, 127
1, 1338108, Note_on_c, 3, 75, 127
1, 1338108, Note_on_c, 10, 57, 127
1, 1338346, Note_off_c, 10, 57, 127
1, 1338346, Note_off_c, 3, 75, 127
1, 1338350, Note_on_c, 4, 76, 127
1, 1338350, Note_on_c, 7, 55, 127
1, 1338581, Note_off_c, 12, 59, 127
1, 1338588, Note_off_c, 4, 76, 127
1, 1338591, Note_on_c, 7, 79, 127
1, 1338591, Note_on_c, 3, 63, 127
1, 1338709, Note_off_c, 7, 79, 127
1, 1338712, Note_on_c, 6, 78, 127
1, 1338829, Note_off_c, 3, 63, 127
1, 1338830, Note_off_c, 6, 78, 127
1, 1338833, Note_on_c, 4, 76, 127
1, 1338833, Note_on_c, 4, 64, 127
1, 1338951, Note_off_c, 4, 76, 127
1, 1338954, Note_on_c, 2, 74, 127
1, 1339067, Note_off_c, 7, 55, 127
1, 1339072, Note_off_c, 2, 74, 127
1, 1339075, Note_on_c, 0, 72, 127
1, 1339075, Note_on_c, 4, 52, 127
1, 1339191, Note_off_c, 4, 64, 127
1, 1339196, Note_on_c, 2, 62, 127
1, 1339313, Note_off_c, 0, 72, 127
1, 1339314, Note_off_c, 2, 62, 127
1, 1339316, Note_on_c, 4, 76, 127
1, 1339316, Note_on_c, 0, 60, 127
1, 1339434, Note_off_c, 0, 60, 127
1, 1339434, Note_off_c, 4, 76, 127
1, 1339437, Note_on_c, 2, 74, 127
1, 1339437, Note_on_c, 12, 59, 127
1, 1339555, Note_off_c, 12, 59, 127
1, 1339555, Note_off_c, 2, 74, 127
1, 1339558, Note_on_c, 0, 72, 127
1, 1339558, Note_on_c, 0, 60, 127
1, 1339676, Note_off_c, 0, 72, 127
1, 1339679, Note_on_c, 12, 71, 127
1, 1339792, Note_off_c, 4, 52, 127
1, 1339797, Note_off_c, 12, 71, 127
1, 1339800, Note_on_c, 10, 69, 127
1, 1339800, Note_on_c, 0, 48, 127
1, 1339916, Note_off_c, 0, 60, 127
1, 1339921, Note_on_c, 12, 59, 127
1, 1340038, Note_off_c, 10, 69, 127
1, 1340039, Note_off_c, 12, 59, 127
1, 1340041, Note_on_c, 0, 72, 127
1, 1340041, Note_on_c, 10, 57, 127
1, 1340159, Note_off_c, 10, 57, 127
1, 1340159, Note_off_c, 0, 72, 127
1, 1340162, Note_on_c, 12, 71, 127
1, 1340162, Note_on_c, 7, 55, 127
1, 1340280, Note_off_c, 7, 55, 127
1, 1340280, Note_off_c, 12, 71, 127
1, 1340283, Note_on_c, 10, 69, 127
1, 1340283, Note_on_c, 10, 57, 127
1, 1340401, Note_off_c, 10, 69, 127
1, 1340404, Note_on_c, 7, 67, 127
1, 1340517, Note_off_c, 0, 48, 127
1, 1340522, Note_off_c, 7, 67, 127
1, 1340525, Note_on_c, 6, 66, 127
1, 1340525, Note_on_c, 10, 45, 127
1, 1340760, Note_off_c, 10, 57, 127
1, 1340766, Note_on_c, 6, 54, 127
1, 1340975, Note_off_c, 6, 66, 127
1, 1341002, Note_off_c, 10, 45, 127
1, 1341004, Note_off_c, 6, 54, 127
1, 1341008, Note_on_c, 4, 76, 127
1, 1341008, Note_on_c, 11, 46, 127
1, 1341008, Note_on_c, 7, 55, 127
1, 1341246, Note_off_c, 7, 55, 127
1, 1341246, Note_off_c, 11, 46, 127
1, 1341246, Note_off_c, 4, 76, 127
1, 1341250, Note_on_c, 3, 75, 127
1, 1341250, Note_on_c, 12, 47, 127
1, 1341488, Note_off_c, 12, 47, 127
1, 1341488, Note_off_c, 3, 75, 127
1, 1341491, Note_on_c, 6, 78, 127
1, 1341491, Note_on_c, 0, 60, 127
1, 1341549, Note_off_c, 6, 78, 127
1, 1341552, Note_on_c, 4, 76, 127
1, 1341609, Note_off_c, 0, 60, 127
1, 1341610, Note_off_c, 4, 76, 127
1, 1341612, Note_on_c, 3, 75, 127
1, 1341612, Note_on_c, 12, 59, 127
1, 1341670, Note_off_c, 3, 75, 127
1, 1341673, Note_on_c, 4, 76, 127
1, 1341730, Note_off_c, 12, 59, 127
1, 1341731, Note_off_c, 4, 76, 127
1, 1341733, Note_on_c, 6, 78, 127
1, 1341733, Note_on_c, 10, 57, 127
1, 1341851, Note_off_c, 10, 57, 127
1, 1341854, Note_on_c, 7, 55, 127
1, 1341971, Note_off_c, 6, 78, 127
1, 1341972, Note_off_c, 7, 55, 127
1, 1341975, Note_on_c, 12, 71, 127
1, 1341975, Note_on_c, 10, 57, 127
1, 1342213, Note_off_c, 10, 57, 127
1, 1342217, Note_on_c, 12, 59, 127
1, 1342335, Note_off_c, 12, 59, 127
1, 1342337, Note_on_c, 10, 57, 127
1, 1342455, Note_off_c, 10, 57, 127
1, 1342458, Note_on_c, 7, 55, 127
1, 1342576, Note_off_c, 7, 55, 127
1, 1342579, Note_on_c, 6, 54, 127
1, 1342697, Note_off_c, 6, 54, 127
1, 1342700, Note_on_c, 7, 55, 127
1, 1342931, Note_off_c, 12, 71, 127
1, 1342938, Note_off_c, 7, 55, 127
1, 1342942, Note_on_c, 3, 75, 127
1, 1342942, Note_on_c, 10, 57, 127
1, 1343060, Note_off_c, 10, 57, 127
1, 1343062, Note_on_c, 7, 55, 127
1, 1343180, Note_off_c, 7, 55, 127
1, 1343180, Note_off_c, 3, 75, 127
1, 1343183, Note_on_c, 4, 76, 127
1, 1343183, Note_on_c, 6, 54, 127
1, 1343301, Note_off_c, 6, 54, 127
1, 1343304, Note_on_c, 4, 52, 127
1, 1343422, Note_off_c, 4, 52, 127
1, 1343425, Note_on_c, 0, 60, 127
1, 1343541, Note_off_c, 4, 76, 127
1, 1343546, Note_on_c, 2, 74, 127
1, 1343663, Note_off_c, 0, 60, 127
1, 1343664, Note_off_c, 2, 74, 127
1, 1343667, Note_on_c, 0, 72, 127
1, 1343667, Note_on_c, 3, 51, 127
1, 1343785, Note_off_c, 0, 72, 127
1, 1343787, Note_on_c, 12, 71, 127
1, 1343905, Note_off_c, 12, 71, 127
1, 1343905, Note_off_c, 3, 51, 127
1, 1343908, Note_on_c, 0, 72, 127
1, 1343908, Note_on_c, 4, 52, 127
1, 1344146, Note_off_c, 4, 52, 127
1, 1344150, Note_on_c, 12, 47, 127
1, 1344266, Note_off_c, 0, 72, 127
1, 1344271, Note_on_c, 12, 71, 127
1, 1344388, Note_off_c, 12, 47, 127
1, 1344389, Note_off_c, 12, 71, 127
1, 1344392, Note_on_c, 10, 69, 127
1, 1344392, Note_on_c, 4, 52, 127
1, 1344510, Note_off_c, 10, 69, 127
1, 1344512, Note_on_c, 7, 67, 127
1, 1344630, Note_off_c, 7, 67, 127
1, 1344630, Note_off_c, 4, 52, 127
1, 1344633, Note_on_c, 10, 69, 127
1, 1344633, Note_on_c, 3, 51, 127
1, 1344871, Note_off_c, 3, 51, 127
1, 1344875, Note_on_c, 4, 52, 127
1, 1344993, Note_off_c, 4, 52, 127
1, 1344996, Note_on_c, 3, 51, 127
1, 1345110, Note_off_c, 10, 69, 127
1, 1345114, Note_off_c, 3, 51, 127
1, 1345117, Note_on_c, 6, 66, 127
1, 1345117, Note_on_c, 4, 52, 127
1, 1345355, Note_off_c, 6, 66, 127
1, 1345358, Note_on_c, 7, 67, 127
1, 1345596, Note_off_c, 7, 67, 127
1, 1345600, Note_on_c, 12, 71, 127
1, 1345658, Note_off_c, 12, 71, 127
1, 1345660, Note_on_c, 10, 69, 127
1, 1345718, Note_off_c, 10, 69, 127
1, 1345721, Note_on_c, 12, 71, 127
1, 1345779, Note_off_c, 12, 71, 127
1, 1345781, Note_on_c, 10, 69, 127
1, 1345834, Note_off_c, 4, 52, 127
1, 1345839, Note_off_c, 10, 69, 127
1, 1345842, Note_on_c, 12, 71, 127
1, 1345842, Note_on_c, 7, 55, 127
1, 1346080, Note_off_c, 7, 55, 127
1, 1346083, Note_on_c, 12, 59, 127
1, 1346321, Note_off_c, 12, 59, 127
1, 1346325, Note_on_c, 4, 64, 127
1, 1346559, Note_off_c, 12, 71, 127
1, 1346567, Note_on_c, 0, 72, 127
1, 1346802, Note_off_c, 4, 64, 127
1, 1346805, Note_off_c, 0, 72, 127
1, 1346808, Note_on_c, 2, 74, 127
1, 1346808, Note_on_c, 2, 62, 127
1, 1347046, Note_off_c, 2, 62, 127
1, 1347046, Note_off_c, 2, 74, 127
1, 1347050, Note_on_c, 4, 76, 127
1, 1347050, Note_on_c, 0, 60, 127
1, 1347288, Note_off_c, 4, 76, 127
1, 1347292, Note_on_c, 8, 68, 127
1, 1347530, Note_off_c, 8, 68, 127
1, 1347533, Note_on_c, 12, 71, 127
1, 1347771, Note_off_c, 12, 71, 127
1, 1347775, Note_on_c, 10, 69, 127
1, 1348006, Note_off_c, 0, 60, 127
1, 1348017, Note_on_c, 12, 59, 127
1, 1348255, Note_off_c, 12, 59, 127
1, 1348259, Note_on_c, 0, 60, 127
1, 1348497, Note_off_c, 0, 60, 127
1, 1348500, Note_on_c, 6, 54, 127
1, 1348731, Note_off_c, 10, 69, 127
1, 1348738, Note_off_c, 6, 54, 127
1, 1348742, Note_on_c, 12, 71, 127
1, 1348742, Note_on_c, 7, 55, 127
1, 1348980, Note_off_c, 7, 55, 127
1, 1348980, Note_off_c, 12, 71, 127
1, 1348984, Note_on_c, 0, 72, 127
1, 1348984, Note_on_c, 10, 57, 127
1, 1349222, Note_off_c, 10, 57, 127
1, 1349222, Note_off_c, 0, 72, 127
1, 1349225, Note_on_c, 2, 74, 127
1, 1349225, Note_on_c, 12, 59, 127
1, 1349463, Note_off_c, 12, 59, 127
1, 1349463, Note_off_c, 2, 74, 127
1, 1349467, Note_on_c, 6, 66, 127
1, 1349467, Note_on_c, 2, 50, 127
1, 1349705, Note_off_c, 2, 50, 127
1, 1349705, Note_off_c, 6, 66, 127
1, 1349709, Note_on_c, 10, 69, 127
1, 1349709, Note_on_c, 6, 54, 127
1, 1349947, Note_off_c, 6, 54, 127
1, 1349947, Note_off_c, 10, 69, 127
1, 1349950, Note_on_c, 2, 62, 127
1, 1349950, Note_on_c, 12, 47, 127
1, 1349950, Note_on_c, 12, 59, 127
1, 1350068, Note_off_c, 12, 59, 127
1, 1350071, Note_on_c, 10, 57, 127
1, 1350188, Note_off_c, 12, 47, 127
1, 1350189, Note_off_c, 10, 57, 127
1, 1350192, Note_on_c, 0, 48, 127
1, 1350192, Note_on_c, 12, 59, 127
1, 1350427, Note_off_c, 2, 62, 127
1, 1350430, Note_off_c, 0, 48, 127
1, 1350434, Note_on_c, 6, 66, 127
1, 1350434, Note_on_c, 2, 50, 127
1, 1350672, Note_off_c, 2, 50, 127
1, 1350672, Note_off_c, 6, 66, 127
1, 1350675, Note_on_c, 12, 71, 127
1, 1350675, Note_on_c, 7, 43, 127
1, 1350909, Note_off_c, 12, 59, 127
1, 1350913, Note_off_c, 7, 43, 127
1, 1350917, Note_on_c, 10, 45, 127
1, 1350917, Note_on_c, 0, 60, 127
1, 1351155, Note_off_c, 0, 60, 127
1, 1351155, Note_off_c, 10, 45, 127
1, 1351159, Note_on_c, 12, 47, 127
1, 1351159, Note_on_c, 2, 62, 127
1, 1351397, Note_off_c, 2, 62, 127
1, 1351397, Note_off_c, 12, 47, 127
1, 1351400, Note_on_c, 0, 48, 127
1, 1351400, Note_on_c, 4, 64, 127
1, 1351642, Note_on_c, 8, 56, 127
1, 1351663, Note_off_c, 4, 64, 127
1, 1351873, Note_off_c, 12, 71, 127
1, 1351880, Note_off_c, 8, 56, 127
1, 1351884, Note_on_c, 3, 63, 127
1, 1351884, Note_on_c, 12, 59, 127
1, 1352117, Note_off_c, 0, 48, 127
1, 1352122, Note_off_c, 12, 59, 127
1, 1352122, Note_off_c, 3, 63, 127
1, 1352125, Note_on_c, 4, 64, 127
1, 1352125, Note_on_c, 0, 48, 127
1, 1352125, Note_on_c, 10, 57, 127
1, 1352363, Note_off_c, 4, 64, 127
1, 1352367, Note_on_c, 6, 66, 127
1, 1352605, Note_off_c, 6, 66, 127
1, 1352609, Note_on_c, 7, 67, 127
1, 1352842, Note_off_c, 0, 48, 127
1, 1352847, Note_off_c, 7, 67, 127
1, 1352850, Note_on_c, 6, 66, 127
1, 1352850, Note_on_c, 0, 48, 127
1, 1353081, Note_off_c, 10, 57, 127
1, 1353088, Note_off_c, 6, 66, 127
1, 1353092, Note_on_c, 7, 67, 127
1, 1353092, Note_on_c, 12, 59, 127
1, 1353330, Note_off_c, 12, 59, 127
1, 1353330, Note_off_c, 7, 67, 127
1, 1353334, Note_on_c, 10, 69, 127
1, 1353334, Note_on_c, 0, 60, 127
1, 1353572, Note_off_c, 0, 60, 127
1, 1353572, Note_off_c, 10, 69, 127
1, 1353575, Note_on_c, 2, 62, 127
1, 1353806, Note_off_c, 0, 48, 127
1, 1353817, Note_on_c, 2, 50, 127
1, 1353817, Note_on_c, 6, 54, 127
1, 1353935, Note_off_c, 2, 50, 127
1, 1353938, Note_on_c, 0, 48, 127
1, 1354055, Note_off_c, 6, 54, 127
1, 1354056, Note_off_c, 0, 48, 127
1, 1354059, Note_on_c, 12, 47, 127
1, 1354059, Note_on_c, 10, 57, 127
1, 1354177, Note_off_c, 12, 47, 127
1, 1354180, Note_on_c, 10, 45, 127
1, 1354292, Note_off_c, 2, 62, 127
1, 1354297, Note_off_c, 10, 57, 127
1, 1354298, Note_off_c, 10, 45, 127
1, 1354301, Note_on_c, 2, 62, 127
1, 1354301, Note_on_c, 12, 47, 127
1, 1354301, Note_on_c, 2, 50, 127
1, 1354539, Note_off_c, 12, 47, 127
1, 1354542, Note_on_c, 0, 48, 127
1, 1354778, Note_off_c, 2, 50, 127
1, 1354780, Note_off_c, 0, 48, 127
1, 1354784, Note_on_c, 2, 50, 127
1, 1354784, Note_on_c, 6, 54, 127
1, 1355018, Note_off_c, 2, 62, 127
1, 1355022, Note_off_c, 6, 54, 127
1, 1355022, Note_off_c, 2, 50, 127
1, 1355026, Note_on_c, 2, 62, 127
1, 1355026, Note_on_c, 7, 43, 127
1, 1355026, Note_on_c, 12, 59, 127
1, 1355264, Note_off_c, 7, 43, 127
1, 1355267, Note_on_c, 10, 45, 127
1, 1355505, Note_off_c, 10, 45, 127
1, 1355509, Note_on_c, 12, 47, 127
1, 1355747, Note_off_c, 12, 47, 127
1, 1355751, Note_on_c, 4, 40, 127
1, 1355830, Note_off_c, 2, 62, 127
1, 1355992, Note_on_c, 7, 67, 127
1, 1356224, Note_off_c, 12, 59, 127
1, 1356230, Note_off_c, 7, 67, 127
1, 1356234, Note_on_c, 6, 66, 127
1, 1356234, Note_on_c, 3, 51, 127
1, 1356468, Note_off_c, 4, 40, 127
1, 1356472, Note_off_c, 3, 51, 127
1, 1356472, Note_off_c, 6, 66, 127
1, 1356476, Note_on_c, 7, 67, 127
1, 1356476, Note_on_c, 4, 52, 127
1, 1356714, Note_off_c, 7, 67, 127
1, 1356717, Note_on_c, 10, 69, 127
1, 1356717, Note_on_c, 6, 54, 127
1, 1356955, Note_off_c, 6, 54, 127
1, 1356955, Note_off_c, 10, 69, 127
1, 1356959, Note_on_c, 12, 71, 127
1, 1356959, Note_on_c, 7, 55, 127
1, 1357193, Note_off_c, 4, 52, 127
1, 1357197, Note_off_c, 7, 55, 127
1, 1357197, Note_off_c, 12, 71, 127
1, 1357201, Note_on_c, 0, 72, 127
1, 1357201, Note_on_c, 10, 45, 127
1, 1357201, Note_on_c, 6, 54, 127
1, 1357439, Note_off_c, 6, 54, 127
1, 1357439, Note_off_c, 0, 72, 127
1, 1357442, Note_on_c, 2, 74, 127
1, 1357442, Note_on_c, 7, 55, 127
1, 1357560, Note_off_c, 2, 74, 127
1, 1357563, Note_on_c, 0, 72, 127
1, 1357680, Note_off_c, 7, 55, 127
1, 1357681, Note_off_c, 0, 72, 127
1, 1357684, Note_on_c, 12, 71, 127
1, 1357684, Note_on_c, 10, 57, 127
1, 1357802, Note_off_c, 12, 71, 127
1, 1357805, Note_on_c, 10, 69, 127
1, 1357918, Note_off_c, 10, 45, 127
1, 1357922, Note_off_c, 10, 57, 127
1, 1357923, Note_off_c, 10, 69, 127
1, 1357926, Note_on_c, 12, 71, 127
1, 1357926, Note_on_c, 7, 43, 127
1, 1357926, Note_on_c, 2, 50, 127
1, 1358164, Note_off_c, 7, 43, 127
1, 1358164, Note_off_c, 12, 71, 127
1, 1358167, Note_on_c, 0, 72, 127
1, 1358167, Note_on_c, 10, 45, 127
1, 1358285, Note_off_c, 0, 72, 127
1, 1358288, Note_on_c, 12, 71, 127
1, 1358405, Note_off_c, 10, 45, 127
1, 1358406, Note_off_c, 12, 71, 127
1, 1358409, Note_on_c, 10, 69, 127
1, 1358409, Note_on_c, 12, 47, 127
1, 1358527, Note_off_c, 10, 69, 127
1, 1358530, Note_on_c, 7, 67, 127
1, 1358643, Note_off_c, 2, 50, 127
1, 1358647, Note_off_c, 12, 47, 127
1, 1358648, Note_off_c, 7, 67, 127
1, 1358651, Note_on_c, 10, 69, 127
1, 1358651, Note_on_c, 0, 48, 127
1, 1358651, Note_on_c, 2, 50, 127
1, 1358889, Note_off_c, 0, 48, 127
1, 1358889, Note_off_c, 10, 69, 127
1, 1358892, Note_on_c, 12, 71, 127
1, 1358892, Note_on_c, 12, 47, 127
1, 1359010, Note_off_c, 12, 71, 127
1, 1359013, Note_on_c, 10, 69, 127
1, 1359130, Note_off_c, 12, 47, 127
1, 1359131, Note_off_c, 10, 69, 127
1, 1359134, Note_on_c, 7, 67, 127
1, 1359134, Note_on_c, 10, 45, 127
1, 1359252, Note_off_c, 7, 67, 127
1, 1359255, Note_on_c, 6, 66, 127
1, 1359368, Note_off_c, 2, 50, 127
1, 1359372, Note_off_c, 10, 45, 127
1, 1359373, Note_off_c, 6, 66, 127
1, 1359376, Note_on_c, 7, 67, 127
1, 1359376, Note_on_c, 12, 47, 127
1, 1359376, Note_on_c, 2, 50, 127
1, 1359614, Note_off_c, 12, 47, 127
1, 1359614, Note_off_c, 7, 67, 127
1, 1359617, Note_on_c, 12, 71, 127
1, 1359617, Note_on_c, 7, 43, 127
1, 1359735, Note_off_c, 12, 71, 127
1, 1359738, Note_on_c, 10, 69, 127
1, 1359855, Note_off_c, 7, 43, 127
1, 1359856, Note_off_c, 10, 69, 127
1, 1359859, Note_on_c, 7, 67, 127
1, 1359859, Note_on_c, 10, 45, 127
1, 1359977, Note_off_c, 7, 67, 127
1, 1359980, Note_on_c, 6, 66, 127
1, 1360097, Note_off_c, 10, 45, 127
1, 1360098, Note_off_c, 6, 66, 127
1, 1360101, Note_on_c, 7, 67, 127
1, 1360101, Note_on_c, 12, 47, 127
1, 1360343, Note_on_c, 7, 55, 127
1, 1360574, Note_off_c, 2, 50, 127
1, 1360581, Note_off_c, 7, 55, 127
1, 1360584, Note_on_c, 6, 54, 127
1, 1360818, Note_off_c, 7, 67, 127
1, 1360822, Note_off_c, 6, 54, 127
1, 1360826, Note_on_c, 2, 62, 127
1, 1360826, Note_on_c, 7, 55, 127
1, 1361057, Note_off_c, 12, 47, 127
1, 1361064, Note_off_c, 7, 55, 127
1, 1361068, Note_on_c, 10, 45, 127
1, 1361068, Note_on_c, 10, 57, 127
1, 1361306, Note_off_c, 10, 57, 127
1, 1361306, Note_off_c, 10, 45, 127
1, 1361309, Note_on_c, 7, 43, 127
1, 1361309, Note_on_c, 12, 59, 127
1, 1361543, Note_off_c, 2, 62, 127
1, 1361547, Note_off_c, 12, 59, 127
1, 1361547, Note_off_c, 7, 43, 127
1, 1361551, Note_on_c, 6, 66, 127
1, 1361551, Note_on_c, 2, 50, 127
1, 1361551, Note_on_c, 0, 60, 127
1, 1361789, Note_off_c, 0, 60, 127
1, 1361793, Note_on_c, 2, 62, 127
1, 1361911, Note_off_c, 2, 62, 127
1, 1361913, Note_on_c, 0, 60, 127
1, 1362031, Note_off_c, 0, 60, 127
1, 1362034, Note_on_c, 2, 38, 127
1, 1362034, Note_on_c, 12, 59, 127
1, 1362150, Note_off_c, 2, 50, 127
1, 1362152, Note_off_c, 12, 59, 127
1, 1362155, Note_on_c, 10, 57, 127
1, 1362268, Note_off_c, 6, 66, 127
1, 1362272, Note_off_c, 2, 38, 127
1, 1362273, Note_off_c, 10, 57, 127
1, 1362276, Note_on_c, 12, 59, 127
1, 1362276, Note_on_c, 7, 43, 127
1, 1362276, Note_on_c, 7, 67, 127
1, 1362535, Note_off_c, 12, 59, 127
1, 1362537, Note_on_c, 0, 60, 127
1, 1362666, Note_off_c, 0, 60, 127
1, 1362667, Note_on_c, 12, 59, 127
1, 1362796, Note_off_c, 12, 59, 127
1, 1362796, Note_on_c, 10, 57, 127
1, 1362796, Note_on_c, 7, 31, 127
1, 1362921, Note_off_c, 7, 43, 127
1, 1362925, Note_off_c, 10, 57, 127
1, 1362927, Note_on_c, 7, 55, 127
1, 1363050, Note_off_c, 7, 67, 127
1, 1363054, Note_off_c, 7, 31, 127
1, 1363056, Note_off_c, 7, 55, 127
1, 1363057, Note_on_c, 10, 57, 127
1, 1363057, Note_on_c, 7, 31, 127
1, 1363057, Note_on_c, 0, 60, 127
1, 1363316, Note_off_c, 10, 57, 127
1, 1363318, Note_on_c, 12, 59, 127
1, 1363447, Note_off_c, 12, 59, 127
1, 1363448, Note_on_c, 10, 57, 127
1, 1363577, Note_off_c, 10, 57, 127
1, 1363578, Note_on_c, 7, 55, 127
1, 1363578, Note_on_c, 7, 43, 127
1, 1363702, Note_off_c, 7, 31, 127
1, 1363707, Note_off_c, 7, 55, 127
1, 1363708, Note_on_c, 6, 54, 127
1, 1363832, Note_off_c, 0, 60, 127
1, 1363847, Note_off_c, 6, 54, 127
1, 1363852, Note_off_c, 7, 43, 127
1, 1363894, Note_on_c, 12, 59, 127
1, 1363894, Note_on_c, 7, 43, 127
1, 1363894, Note_on_c, 7, 55, 127
1, 1365875, Note_off_c, 12, 59, 127
1, 1365896, Note_off_c, 7, 55, 127
1, 1365913, Note_off_c, 7, 43, 127
1, 1369481, Note_on_c, 11, 58, 127
1, 1369481, Note_on_c, 7, 55, 127
1, 1369895, Note_on_c, 2, 74, 127
1, 1370310, Note_on_c, 3, 75, 127
1, 1370324, Note_off_c, 2, 74, 127
1, 1370516, Note_on_c, 2, 74, 127
1, 1370533, Note_off_c, 3, 75, 127
1, 1370723, Note_on_c, 1, 73, 127
1, 1370739, Note_off_c, 2, 74, 127
1, 1370930, Note_on_c, 2, 74, 127
1, 1370946, Note_off_c, 1, 73, 127
1, 1371132, Note_off_c, 2, 74, 127
1, 1371136, Note_on_c, 2, 74, 127
1, 1371533, Note_off_c, 7, 55, 127
1, 1371533, Note_off_c, 11, 58, 127
1, 1371551, Note_on_c, 11, 82, 127
1, 1371565, Note_off_c, 2, 74, 127
1, 1371964, Note_on_c, 2, 62, 127
1, 1371964, Note_on_c, 7, 55, 127
1, 1372171, Note_on_c, 10, 81, 127
1, 1372184, Note_off_c, 11, 82, 127
1, 1372378, Note_on_c, 7, 79, 127
1, 1372394, Note_off_c, 10, 81, 127
1, 1372584, Note_on_c, 5, 77, 127
1, 1372601, Note_off_c, 7, 79, 127
1, 1372780, Note_off_c, 7, 55, 127
1, 1372780, Note_off_c, 2, 62, 127
1, 1372791, Note_on_c, 3, 75, 127
1, 1372791, Note_on_c, 7, 55, 127
1, 1372791, Note_on_c, 0, 60, 127
1, 1372807, Note_off_c, 5, 77, 127
1, 1373204, Note_on_c, 2, 74, 127
1, 1373219, Note_off_c, 3, 75, 127
1, 1373607, Note_off_c, 0, 60, 127
1, 1373607, Note_off_c, 7, 55, 127
1, 1373618, Note_on_c, 7, 55, 127
1, 1373618, Note_on_c, 11, 58, 127
1, 1374032, Note_on_c, 1, 73, 127
1, 1374042, Note_off_c, 2, 74, 127
1, 1374435, Note_off_c, 11, 58, 127
1, 1374435, Note_off_c, 7, 55, 127
1, 1374446, Note_on_c, 7, 55, 127
1, 1374446, Note_on_c, 10, 57, 127
1, 1374860, Note_on_c, 0, 72, 127
1, 1374870, Note_off_c, 1, 73, 127
1, 1375263, Note_off_c, 7, 55, 127
1, 1375274, Note_on_c, 2, 74, 127
1, 1375274, Note_on_c, 6, 54, 127
1, 1375288, Note_off_c, 0, 72, 127
1, 1375480, Note_on_c, 0, 72, 127
1, 1375497, Note_off_c, 2, 74, 127
1, 1375687, Note_on_c, 12, 71, 127
1, 1375703, Note_off_c, 0, 72, 127
1, 1375894, Note_on_c, 0, 72, 127
1, 1375910, Note_off_c, 12, 71, 127
1, 1376096, Note_off_c, 0, 72, 127
1, 1376100, Note_on_c, 0, 72, 127
1, 1376496, Note_off_c, 10, 57, 127
1, 1376500, Note_off_c, 6, 54, 127
1, 1376514, Note_on_c, 8, 80, 127
1, 1376528, Note_off_c, 0, 72, 127
1, 1376927, Note_on_c, 0, 60, 127
1, 1376927, Note_on_c, 5, 53, 127
1, 1377134, Note_on_c, 7, 79, 127
1, 1377147, Note_off_c, 8, 80, 127
1, 1377341, Note_on_c, 5, 77, 127
1, 1377357, Note_off_c, 7, 79, 127
1, 1377547, Note_on_c, 3, 75, 127
1, 1377564, Note_off_c, 5, 77, 127
1, 1377743, Note_off_c, 5, 53, 127
1, 1377743, Note_off_c, 0, 60, 127
1, 1377754, Note_on_c, 1, 73, 127
1, 1377754, Note_on_c, 5, 53, 127
1, 1377754, Note_on_c, 11, 58, 127
1, 1377770, Note_off_c, 3, 75, 127
1, 1378167, Note_on_c, 0, 72, 127
1, 1378182, Note_off_c, 1, 73, 127
1, 1378570, Note_off_c, 11, 58, 127
1, 1378570, Note_off_c, 5, 53, 127
1, 1378581, Note_on_c, 5, 53, 127
1, 1378581, Note_on_c, 8, 56, 127
1, 1378995, Note_on_c, 12, 71, 127
1, 1379005, Note_off_c, 0, 72, 127
1, 1379398, Note_off_c, 8, 56, 127
1, 1379398, Note_off_c, 5, 53, 127
1, 1379409, Note_on_c, 7, 55, 127
1, 1379409, Note_on_c, 5, 53, 127
1, 1379823, Note_on_c, 11, 70, 127
1, 1379833, Note_off_c, 12, 71, 127
1, 1380226, Note_off_c, 5, 53, 127
1, 1380237, Note_on_c, 0, 72, 127
1, 1380237, Note_on_c, 4, 52, 127
1, 1380251, Note_off_c, 11, 70, 127
1, 1380443, Note_on_c, 11, 70, 127
1, 1380460, Note_off_c, 0, 72, 127
1, 1380650, Note_on_c, 10, 69, 127
1, 1380666, Note_off_c, 11, 70, 127
1, 1380857, Note_on_c, 11, 70, 127
1, 1380873, Note_off_c, 10, 69, 127
1, 1381063, Note_on_c, 6, 78, 127
1, 1381080, Note_off_c, 11, 70, 127
1, 1381434, Note_off_c, 4, 52, 127
1, 1381460, Note_off_c, 7, 55, 127
1, 1381478, Note_on_c, 7, 79, 127
1, 1381492, Note_off_c, 6, 78, 127
1, 1381891, Note_on_c, 11, 58, 127
1, 1381891, Note_on_c, 3, 51, 127
1, 1382306, Note_on_c, 1, 73, 127
1, 1382316, Note_off_c, 7, 79, 127
1, 1382708, Note_off_c, 3, 51, 127
1, 1382708, Note_off_c, 11, 58, 127
1, 1382719, Note_on_c, 3, 51, 127
1, 1382719, Note_on_c, 10, 57, 127
1, 1383133, Note_on_c, 2, 74, 127
1, 1383144, Note_off_c, 1, 73, 127
1, 1383536, Note_off_c, 10, 57, 127
1, 1383536, Note_off_c, 3, 51, 127
1, 1383547, Note_on_c, 3, 51, 127
1, 1383547, Note_on_c, 7, 55, 127
1, 1383961, Note_on_c, 7, 67, 127
1, 1383971, Note_off_c, 2, 74, 127
1, 1384364, Note_off_c, 3, 51, 127
1, 1384375, Note_on_c, 2, 50, 127
1, 1384789, Note_on_c, 10, 69, 127
1, 1384799, Note_off_c, 7, 67, 127
1, 1384996, Note_on_c, 11, 70, 127
1, 1385012, Note_off_c, 10, 69, 127
1, 1385185, Note_off_c, 7, 55, 127
1, 1385203, Note_on_c, 10, 69, 127
1, 1385203, Note_on_c, 6, 54, 127
1, 1385219, Note_off_c, 11, 70, 127
1, 1385610, Note_off_c, 6, 54, 127
1, 1385616, Note_on_c, 4, 52, 127
1, 1386011, Note_off_c, 2, 50, 127
1, 1386023, Note_off_c, 4, 52, 127
1, 1386029, Note_on_c, 6, 54, 127
1, 1386436, Note_off_c, 6, 54, 127
1, 1386443, Note_on_c, 10, 57, 127
1, 1386838, Note_off_c, 10, 69, 127
1, 1386856, Note_on_c, 3, 51, 127
1, 1387259, Note_off_c, 10, 57, 127
1, 1387270, Note_on_c, 0, 60, 127
1, 1387672, Note_off_c, 3, 51, 127
1, 1387683, Note_on_c, 2, 50, 127
1, 1388086, Note_off_c, 0, 60, 127
1, 1388096, Note_on_c, 6, 54, 127
1, 1388499, Note_off_c, 2, 50, 127
1, 1388510, Note_on_c, 0, 48, 127
1, 1388912, Note_off_c, 6, 54, 127
1, 1388923, Note_on_c, 10, 57, 127
1, 1389326, Note_off_c, 0, 48, 127
1, 1389337, Note_on_c, 11, 46, 127
1, 1389739, Note_off_c, 10, 57, 127
1, 1389750, Note_on_c, 2, 62, 127
1, 1389750, Note_on_c, 6, 54, 127
1, 1390157, Note_off_c, 6, 54, 127
1, 1390163, Note_on_c, 3, 63, 127
1, 1390163, Note_on_c, 7, 55, 127
1, 1390178, Note_off_c, 2, 62, 127
1, 1390370, Note_on_c, 2, 62, 127
1, 1390386, Note_off_c, 3, 63, 127
1, 1390577, Note_on_c, 1, 61, 127
1, 1390593, Note_off_c, 2, 62, 127
1, 1390784, Note_on_c, 2, 62, 127
1, 1390800, Note_off_c, 1, 61, 127
1, 1390986, Note_off_c, 2, 62, 127
1, 1390990, Note_on_c, 2, 62, 127
1, 1391386, Note_off_c, 11, 46, 127
1, 1391389, Note_off_c, 7, 55, 127
1, 1391404, Note_on_c, 2, 74, 127
1, 1391418, Note_off_c, 2, 62, 127
1, 1391817, Note_on_c, 11, 46, 127
1, 1391817, Note_on_c, 7, 55, 127
1, 1392024, Note_on_c, 0, 72, 127
1, 1392037, Note_off_c, 2, 74, 127
1, 1392230, Note_on_c, 11, 70, 127
1, 1392247, Note_off_c, 0, 72, 127
1, 1392437, Note_on_c, 10, 69, 127
1, 1392453, Note_off_c, 11, 70, 127
1, 1392633, Note_off_c, 7, 55, 127
1, 1392633, Note_off_c, 11, 46, 127
1, 1392644, Note_on_c, 7, 67, 127
1, 1392644, Note_on_c, 12, 47, 127
1, 1392644, Note_on_c, 2, 50, 127
1, 1392660, Note_off_c, 10, 69, 127
1, 1392851, Note_on_c, 5, 65, 127
1, 1392867, Note_off_c, 7, 67, 127
1, 1393051, Note_off_c, 2, 50, 127
1, 1393057, Note_on_c, 8, 68, 127
1, 1393057, Note_on_c, 5, 53, 127
1, 1393074, Note_off_c, 5, 65, 127
1, 1393460, Note_off_c, 12, 47, 127
1, 1393464, Note_off_c, 5, 53, 127
1, 1393471, Note_on_c, 7, 55, 127
1, 1393471, Note_on_c, 12, 47, 127
1, 1393677, Note_on_c, 2, 62, 127
1, 1393690, Note_off_c, 8, 68, 127
1, 1393878, Note_off_c, 7, 55, 127
1, 1393884, Note_on_c, 5, 65, 127
1, 1393884, Note_on_c, 8, 56, 127
1, 1393900, Note_off_c, 2, 62, 127
1, 1394287, Note_off_c, 12, 47, 127
1, 1394291, Note_off_c, 8, 56, 127
1, 1394297, Note_on_c, 8, 56, 127
1, 1394297, Note_on_c, 12, 47, 127
1, 1394712, Note_on_c, 3, 63, 127
1, 1394722, Note_off_c, 5, 65, 127
1, 1395114, Note_off_c, 12, 47, 127
1, 1395114, Note_off_c, 8, 56, 127
1, 1395125, Note_on_c, 5, 65, 127
1, 1395125, Note_on_c, 7, 55, 127
1, 1395125, Note_on_c, 0, 48, 127
1, 1395140, Note_off_c, 3, 63, 127
1, 1395332, Note_on_c, 3, 63, 127
1, 1395348, Note_off_c, 5, 65, 127
1, 1395539, Note_on_c, 2, 62, 127
1, 1395555, Note_off_c, 3, 63, 127
1, 1395745, Note_on_c, 3, 63, 127
1, 1395762, Note_off_c, 2, 62, 127
1, 1395947, Note_off_c, 3, 63, 127
1, 1395952, Note_on_c, 3, 63, 127
1, 1396351, Note_off_c, 0, 48, 127
1, 1396351, Note_off_c, 7, 55, 127
1, 1396365, Note_on_c, 3, 75, 127
1, 1396380, Note_off_c, 3, 63, 127
1, 1396779, Note_on_c, 0, 48, 127
1, 1396779, Note_on_c, 10, 57, 127
1, 1396986, Note_on_c, 2, 74, 127
1, 1396998, Note_off_c, 3, 75, 127
1, 1397192, Note_on_c, 0, 72, 127
1, 1397209, Note_off_c, 2, 74, 127
1, 1397399, Note_on_c, 11, 70, 127
1, 1397415, Note_off_c, 0, 72, 127
1, 1397595, Note_off_c, 10, 57, 127
1, 1397595, Note_off_c, 0, 48, 127
1, 1397606, Note_on_c, 10, 69, 127
1, 1397606, Note_on_c, 4, 52, 127
1, 1397606, Note_on_c, 1, 49, 127
1, 1397622, Note_off_c, 11, 70, 127
1, 1397812, Note_on_c, 7, 67, 127
1, 1397829, Note_off_c, 10, 69, 127
1, 1398013, Note_off_c, 4, 52, 127
1, 1398019, Note_on_c, 11, 70, 127
1, 1398019, Note_on_c, 7, 55, 127
1, 1398035, Note_off_c, 7, 67, 127
1, 1398422, Note_off_c, 1, 49, 127
1, 1398426, Note_off_c, 7, 55, 127
1, 1398432, Note_on_c, 10, 57, 127
1, 1398432, Note_on_c, 1, 49, 127
1, 1398639, Note_on_c, 4, 64, 127
1, 1398652, Note_off_c, 11, 70, 127
1, 1398839, Note_off_c, 10, 57, 127
1, 1398846, Note_on_c, 7, 67, 127
1, 1398846, Note_on_c, 11, 58, 127
1, 1398862, Note_off_c, 4, 64, 127
1, 1399248, Note_off_c, 1, 49, 127
1, 1399253, Note_off_c, 11, 58, 127
1, 1399259, Note_on_c, 1, 49, 127
1, 1399259, Note_on_c, 11, 58, 127
1, 1399674, Note_on_c, 6, 66, 127
1, 1399684, Note_off_c, 7, 67, 127
1, 1400076, Note_off_c, 11, 58, 127
1, 1400076, Note_off_c, 1, 49, 127
1, 1400087, Note_on_c, 7, 67, 127
1, 1400087, Note_on_c, 2, 50, 127
1, 1400087, Note_on_c, 10, 57, 127
1, 1400102, Note_off_c, 6, 66, 127
1, 1400289, Note_off_c, 7, 67, 127
1, 1400294, Note_on_c, 6, 66, 127
1, 1400496, Note_off_c, 6, 66, 127
1, 1400501, Note_on_c, 4, 64, 127
1, 1400703, Note_off_c, 4, 64, 127
1, 1400707, Note_on_c, 6, 66, 127
1, 1400909, Note_off_c, 6, 66, 127
1, 1400914, Note_on_c, 12, 71, 127
1, 1401180, Note_off_c, 12, 71, 127
1, 1401190, Note_on_c, 0, 72, 127
1, 1401313, Note_off_c, 10, 57, 127
1, 1401313, Note_off_c, 2, 50, 127
1, 1401456, Note_off_c, 0, 72, 127
1, 1401465, Note_on_c, 3, 75, 127
1, 1401731, Note_off_c, 3, 75, 127
1, 1401741, Note_on_c, 1, 73, 127
1, 1401741, Note_on_c, 10, 57, 127
1, 1401741, Note_on_c, 2, 50, 127
1, 1402007, Note_off_c, 1, 73, 127
1, 1402016, Note_on_c, 2, 74, 127
1, 1402282, Note_off_c, 2, 74, 127
1, 1402292, Note_on_c, 6, 66, 127
1, 1402557, Note_off_c, 2, 50, 127
1, 1402557, Note_off_c, 10, 57, 127
1, 1402558, Note_off_c, 6, 66, 127
1, 1402568, Note_on_c, 11, 70, 127
1, 1402568, Note_on_c, 2, 50, 127
1, 1402568, Note_on_c, 7, 55, 127
1, 1402834, Note_off_c, 11, 70, 127
1, 1402843, Note_on_c, 10, 69, 127
1, 1403109, Note_off_c, 10, 69, 127
1, 1403119, Note_on_c, 2, 62, 127
1, 1403384, Note_off_c, 7, 55, 127
1, 1403384, Note_off_c, 2, 50, 127
1, 1403385, Note_off_c, 2, 62, 127
1, 1403394, Note_on_c, 3, 63, 127
1, 1403394, Note_on_c, 6, 54, 127
1, 1403394, Note_on_c, 2, 50, 127
1, 1403660, Note_off_c, 3, 63, 127
1, 1403670, Note_on_c, 12, 59, 127
1, 1403936, Note_off_c, 12, 59, 127
1, 1403946, Note_on_c, 0, 60, 127
1, 1404210, Note_off_c, 2, 50, 127
1, 1404221, Note_on_c, 7, 43, 127
1, 1404481, Note_off_c, 6, 54, 127
1, 1404485, Note_off_c, 0, 60, 127
1, 1404497, Note_on_c, 11, 58, 127
1, 1404763, Note_off_c, 11, 58, 127
1, 1404772, Note_on_c, 10, 57, 127
1, 1405038, Note_off_c, 10, 57, 127
1, 1405048, Note_on_c, 11, 58, 127
1, 1405048, Note_on_c, 7, 55, 127
1, 1405455, Note_off_c, 7, 55, 127
1, 1405461, Note_on_c, 6, 54, 127
1, 1405856, Note_off_c, 7, 43, 127
1, 1405868, Note_off_c, 6, 54, 127
1, 1405875, Note_on_c, 7, 55, 127
1, 1406282, Note_off_c, 7, 55, 127
1, 1406288, Note_on_c, 2, 50, 127
1, 1406683, Note_off_c, 11, 58, 127
1, 1406702, Note_on_c, 7, 43, 127
1, 1407104, Note_off_c, 2, 50, 127
1, 1407115, Note_on_c, 3, 51, 127
1, 1407518, Note_off_c, 7, 43, 127
1, 1407528, Note_on_c, 11, 46, 127
1, 1407727, Note_off_c, 3, 51, 127
1, 1407735, Note_on_c, 2, 50, 127
1, 1407937, Note_off_c, 2, 50, 127
1, 1407942, Note_on_c, 7, 55, 127
1, 1408344, Note_off_c, 11, 46, 127
1, 1408355, Note_on_c, 2, 50, 127
1, 1408554, Note_off_c, 7, 55, 127
1, 1408562, Note_on_c, 6, 54, 127
1, 1408764, Note_off_c, 6, 54, 127
1, 1408769, Note_on_c, 0, 60, 127
1, 1409171, Note_off_c, 2, 50, 127
1, 1409182, Note_on_c, 7, 55, 127
1, 1409389, Note_on_c, 2, 62, 127
1, 1409585, Note_off_c, 0, 60, 127
1, 1409595, Note_on_c, 4, 64, 127
1, 1409595, Note_on_c, 11, 58, 127
1, 1409612, Note_off_c, 2, 62, 127
1, 1409797, Note_off_c, 11, 58, 127
1, 1409802, Note_on_c, 6, 66, 127
1, 1409802, Note_on_c, 10, 57, 127
1, 1409818, Note_off_c, 4, 64, 127
1, 1410004, Note_off_c, 10, 57, 127
1, 1410009, Note_on_c, 7, 67, 127
1, 1410009, Note_on_c, 11, 58, 127
1, 1410025, Note_off_c, 6, 66, 127
1, 1410215, Note_on_c, 11, 70, 127
1, 1410232, Note_off_c, 7, 67, 127
1, 1410422, Note_on_c, 10, 69, 127
1, 1410422, Note_on_c, 2, 62, 127
1, 1410438, Note_off_c, 11, 70, 127
1, 1410817, Note_off_c, 7, 55, 127
1, 1410825, Note_off_c, 11, 58, 127
1, 1410829, Note_off_c, 2, 62, 127
1, 1410836, Note_on_c, 7, 67, 127
1, 1411019, Note_off_c, 10, 69, 127
1, 1411250, Note_on_c, 11, 70, 127
1, 1411653, Note_off_c, 7, 67, 127
1, 1411663, Note_on_c, 5, 65, 127
1, 1411663, Note_on_c, 7, 67, 127
1, 1412078, Note_on_c, 12, 71, 127
1, 1412088, Note_off_c, 11, 70, 127
1, 1412480, Note_off_c, 7, 67, 127
1, 1412480, Note_off_c, 5, 65, 127
1, 1412491, Note_on_c, 0, 72, 127
1, 1412491, Note_on_c, 3, 63, 127
1, 1412491, Note_on_c, 7, 67, 127
1, 1412506, Note_off_c, 12, 71, 127
1, 1412905, Note_on_c, 1, 73, 127
1, 1412919, Note_off_c, 0, 72, 127
1, 1413307, Note_off_c, 7, 67, 127
1, 1413307, Note_off_c, 3, 63, 127
1, 1413318, Note_on_c, 2, 62, 127
1, 1413318, Note_on_c, 7, 67, 127
1, 1413630, Note_off_c, 1, 73, 127
1, 1413731, Note_on_c, 2, 74, 127
1, 1414134, Note_off_c, 7, 67, 127
1, 1414134, Note_off_c, 2, 62, 127
1, 1414145, Note_on_c, 3, 75, 127
1, 1414145, Note_on_c, 7, 67, 127
1, 1414145, Note_on_c, 1, 61, 127
1, 1414159, Note_off_c, 2, 74, 127
1, 1414558, Note_on_c, 4, 76, 127
1, 1414573, Note_off_c, 3, 75, 127
1, 1414961, Note_off_c, 1, 61, 127
1, 1414961, Note_off_c, 7, 67, 127
1, 1414972, Note_on_c, 10, 57, 127
1, 1414972, Note_on_c, 6, 66, 127
1, 1415112, Note_off_c, 4, 76, 127
1, 1415178, Note_on_c, 11, 82, 127
1, 1415385, Note_on_c, 10, 81, 127
1, 1415401, Note_off_c, 11, 82, 127
1, 1415592, Note_on_c, 7, 79, 127
1, 1415608, Note_off_c, 10, 81, 127
1, 1415788, Note_off_c, 6, 66, 127
1, 1415788, Note_off_c, 10, 57, 127
1, 1415798, Note_on_c, 6, 78, 127
1, 1415798, Note_on_c, 2, 62, 127
1, 1415815, Note_off_c, 7, 79, 127
1, 1416005, Note_on_c, 4, 76, 127
1, 1416021, Note_off_c, 6, 78, 127
1, 1416212, Note_on_c, 2, 74, 127
1, 1416228, Note_off_c, 4, 76, 127
1, 1416614, Note_off_c, 2, 62, 127
1, 1416625, Note_on_c, 0, 60, 127
1, 1416625, Note_on_c, 5, 65, 127
1, 1417028, Note_off_c, 2, 74, 127
1, 1417039, Note_on_c, 2, 74, 127
1, 1417441, Note_off_c, 5, 65, 127
1, 1417441, Note_off_c, 0, 60, 127
1, 1417452, Note_on_c, 2, 86, 127
1, 1417452, Note_on_c, 11, 58, 127
1, 1417452, Note_on_c, 5, 65, 127
1, 1417467, Note_off_c, 2, 74, 127
1, 1417865, Note_on_c, 1, 85, 127
1, 1417880, Note_off_c, 2, 86, 127
1, 1418268, Note_off_c, 5, 65, 127
1, 1418268, Note_off_c, 11, 58, 127
1, 1418279, Note_on_c, 5, 65, 127
1, 1418279, Note_on_c, 10, 57, 127
1, 1418693, Note_on_c, 0, 84, 127
1, 1418703, Note_off_c, 1, 85, 127
1, 1419096, Note_off_c, 10, 57, 127
1, 1419096, Note_off_c, 5, 65, 127
1, 1419107, Note_on_c, 12, 83, 127
1, 1419107, Note_on_c, 5, 65, 127
1, 1419107, Note_on_c, 7, 55, 127
1, 1419121, Note_off_c, 0, 84, 127
1, 1419520, Note_on_c, 11, 82, 127
1, 1419535, Note_off_c, 12, 83, 127
1, 1419923, Note_off_c, 7, 55, 127
1, 1419923, Note_off_c, 5, 65, 127
1, 1419934, Note_on_c, 4, 64, 127
1, 1419934, Note_on_c, 0, 60, 127
1, 1420140, Note_on_c, 10, 81, 127
1, 1420153, Note_off_c, 11, 82, 127
1, 1420347, Note_on_c, 8, 80, 127
1, 1420363, Note_off_c, 10, 81, 127
1, 1420750, Note_off_c, 0, 60, 127
1, 1420750, Note_off_c, 4, 64, 127
1, 1420760, Note_on_c, 5, 53, 127
1, 1421175, Note_on_c, 10, 81, 127
1, 1421185, Note_off_c, 8, 80, 127
1, 1421577, Note_off_c, 5, 53, 127
1, 1421588, Note_on_c, 6, 54, 127
1, 1421588, Note_on_c, 3, 63, 127
1, 1421795, Note_on_c, 2, 74, 127
1, 1421808, Note_off_c, 10, 81, 127
1, 1422002, Note_on_c, 0, 72, 127
1, 1422018, Note_off_c, 2, 74, 127
1, 1422208, Note_on_c, 11, 70, 127
1, 1422225, Note_off_c, 0, 72, 127
1, 1422404, Note_off_c, 3, 63, 127
1, 1422404, Note_off_c, 6, 54, 127
1, 1422415, Note_on_c, 0, 72, 127
1, 1422415, Note_on_c, 3, 63, 127
1, 1422415, Note_on_c, 7, 55, 127
1, 1422431, Note_off_c, 11, 70, 127
1, 1422622, Note_on_c, 10, 69, 127
1, 1422638, Note_off_c, 0, 72, 127
1, 1422828, Note_on_c, 11, 70, 127
1, 1422845, Note_off_c, 10, 69, 127
1, 1423035, Note_on_c, 7, 67, 127
1, 1423051, Note_off_c, 11, 70, 127
1, 1423231, Note_off_c, 7, 55, 127
1, 1423231, Note_off_c, 3, 63, 127
1, 1423242, Note_on_c, 5, 65, 127
1, 1423242, Note_on_c, 8, 56, 127
1, 1423242, Note_on_c, 2, 62, 127
1, 1423258, Note_off_c, 7, 67, 127
1, 1423448, Note_on_c, 4, 64, 127
1, 1423465, Note_off_c, 5, 65, 127
1, 1423655, Note_on_c, 5, 65, 127
1, 1423671, Note_off_c, 4, 64, 127
1, 1423862, Note_on_c, 2, 74, 127
1, 1423878, Note_off_c, 5, 65, 127
1, 1424058, Note_off_c, 2, 62, 127
1, 1424058, Note_off_c, 8, 56, 127
1, 1424069, Note_on_c, 7, 67, 127
1, 1424069, Note_on_c, 2, 62, 127
1, 1424069, Note_on_c, 10, 57, 127
1, 1424085, Note_off_c, 2, 74, 127
1, 1424206, Note_on_c, 5, 65, 127
1, 1424224, Note_off_c, 7, 67, 127
1, 1424344, Note_on_c, 4, 64, 127
1, 1424361, Note_off_c, 5, 65, 127
1, 1424482, Note_on_c, 5, 65, 127
1, 1424499, Note_off_c, 4, 64, 127
1, 1424885, Note_off_c, 10, 57, 127
1, 1424885, Note_off_c, 2, 62, 127
1, 1424895, Note_on_c, 4, 64, 127
1, 1424895, Note_on_c, 11, 58, 127
1, 1424895, Note_on_c, 1, 61, 127
1, 1424910, Note_off_c, 5, 65, 127
1, 1425712, Note_off_c, 1, 61, 127
1, 1425712, Note_off_c, 11, 58, 127
1, 1425723, Note_on_c, 10, 57, 127
1, 1425930, Note_on_c, 2, 62, 127
1, 1425938, Note_off_c, 4, 64, 127
1, 1426137, Note_on_c, 1, 61, 127
1, 1426153, Note_off_c, 2, 62, 127
1, 1426343, Note_on_c, 2, 62, 127
1, 1426360, Note_off_c, 1, 61, 127
1, 1426539, Note_off_c, 10, 57, 127
1, 1426550, Note_on_c, 4, 64, 127
1, 1426550, Note_on_c, 7, 55, 127
1, 1426566, Note_off_c, 2, 62, 127
1, 1426757, Note_on_c, 5, 65, 127
1, 1426773, Note_off_c, 4, 64, 127
1, 1426963, Note_on_c, 7, 67, 127
1, 1426980, Note_off_c, 5, 65, 127
1, 1427170, Note_on_c, 10, 69, 127
1, 1427186, Note_off_c, 7, 67, 127
1, 1427366, Note_off_c, 7, 55, 127
1, 1427377, Note_on_c, 11, 70, 127
1, 1427377, Note_on_c, 5, 53, 127
1, 1427393, Note_off_c, 10, 69, 127
1, 1427584, Note_on_c, 10, 69, 127
1, 1427600, Note_off_c, 11, 70, 127
1, 1427790, Note_on_c, 2, 74, 127
1, 1427807, Note_off_c, 10, 69, 127
1, 1428193, Note_off_c, 5, 53, 127
1, 1428204, Note_on_c, 4, 52, 127
1, 1428410, Note_on_c, 1, 73, 127
1, 1428423, Note_off_c, 2, 74, 127
1, 1428617, Note_on_c, 4, 76, 127
1, 1428633, Note_off_c, 1, 73, 127
1, 1429020, Note_off_c, 4, 52, 127
1, 1429030, Note_on_c, 5, 53, 127
1, 1429445, Note_on_c, 10, 69, 127
1, 1429455, Note_off_c, 4, 76, 127
1, 1429858, Note_on_c, 11, 70, 127
1, 1429858, Note_on_c, 2, 62, 127
1, 1429873, Note_off_c, 10, 69, 127
1, 1430065, Note_on_c, 10, 69, 127
1, 1430081, Note_off_c, 11, 70, 127
1, 1430272, Note_on_c, 8, 68, 127
1, 1430288, Note_off_c, 10, 69, 127
1, 1430478, Note_on_c, 10, 69, 127
1, 1430495, Note_off_c, 8, 68, 127
1, 1430666, Note_off_c, 5, 53, 127
1, 1430674, Note_off_c, 2, 62, 127
1, 1430682, Note_off_c, 10, 69, 127
1, 1430685, Note_on_c, 10, 69, 127
1, 1430685, Note_on_c, 2, 62, 127
1, 1431100, Note_on_c, 10, 81, 127
1, 1431114, Note_off_c, 10, 69, 127
1, 1431502, Note_off_c, 2, 62, 127
1, 1431513, Note_on_c, 3, 63, 127
1, 1431513, Note_on_c, 6, 54, 127
1, 1431720, Note_on_c, 11, 82, 127
1, 1431733, Note_off_c, 10, 81, 127
1, 1431926, Note_on_c, 10, 81, 127
1, 1431943, Note_off_c, 11, 82, 127
1, 1432133, Note_on_c, 8, 80, 127
1, 1432149, Note_off_c, 10, 81, 127
1, 1432329, Note_off_c, 6, 54, 127
1, 1432329, Note_off_c, 3, 63, 127
1, 1432340, Note_on_c, 10, 81, 127
1, 1432340, Note_on_c, 6, 54, 127
1, 1432340, Note_on_c, 3, 63, 127
1, 1432356, Note_off_c, 8, 80, 127
1, 1432546, Note_on_c, 2, 74, 127
1, 1432563, Note_off_c, 10, 81, 127
1, 1432753, Note_on_c, 0, 72, 127
1, 1432769, Note_off_c, 2, 74, 127
1, 1432960, Note_on_c, 11, 70, 127
1, 1432976, Note_off_c, 0, 72, 127
1, 1433156, Note_off_c, 6, 54, 127
1, 1433167, Note_on_c, 0, 72, 127
1, 1433167, Note_on_c, 7, 55, 127
1, 1433183, Note_off_c, 11, 70, 127
1, 1433369, Note_off_c, 0, 72, 127
1, 1433373, Note_on_c, 0, 72, 127
1, 1433580, Note_on_c, 11, 70, 127
1, 1433596, Note_off_c, 0, 72, 127
1, 1433787, Note_on_c, 10, 69, 127
1, 1433803, Note_off_c, 11, 70, 127
1, 1433975, Note_off_c, 3, 63, 127
1, 1433983, Note_off_c, 7, 55, 127
1, 1433989, Note_off_c, 10, 69, 127
1, 1433993, Note_on_c, 10, 69, 127
1, 1433993, Note_on_c, 7, 55, 127
1, 1434408, Note_on_c, 11, 70, 127
1, 1434422, Note_off_c, 10, 69, 127
1, 1434821, Note_on_c, 0, 72, 127
1, 1434821, Note_on_c, 4, 64, 127
1, 1434836, Note_off_c, 11, 70, 127
1, 1435028, Note_on_c, 11, 70, 127
1, 1435044, Note_off_c, 0, 72, 127
1, 1435235, Note_on_c, 10, 69, 127
1, 1435251, Note_off_c, 11, 70, 127
1, 1435441, Note_on_c, 11, 70, 127
1, 1435458, Note_off_c, 10, 69, 127
1, 1435629, Note_off_c, 7, 55, 127
1, 1435637, Note_off_c, 4, 64, 127
1, 1435643, Note_off_c, 11, 70, 127
1, 1435648, Note_on_c, 11, 70, 127
1, 1435648, Note_on_c, 4, 64, 127
1, 1436062, Note_on_c, 11, 82, 127
1, 1436077, Note_off_c, 11, 70, 127
1, 1436465, Note_off_c, 4, 64, 127
1, 1436476, Note_on_c, 5, 65, 127
1, 1436476, Note_on_c, 8, 56, 127
1, 1436683, Note_on_c, 3, 75, 127
1, 1436695, Note_off_c, 11, 82, 127
1, 1436889, Note_on_c, 2, 74, 127
1, 1436906, Note_off_c, 3, 75, 127
1, 1437096, Note_on_c, 1, 73, 127
1, 1437112, Note_off_c, 2, 74, 127
1, 1437292, Note_off_c, 8, 56, 127
1, 1437292, Note_off_c, 5, 65, 127
1, 1437303, Note_on_c, 2, 74, 127
1, 1437303, Note_on_c, 5, 65, 127
1, 1437303, Note_on_c, 8, 56, 127
1, 1437319, Note_off_c, 1, 73, 127
1, 1437509, Note_on_c, 0, 84, 127
1, 1437526, Note_off_c, 2, 74, 127
1, 1437716, Note_on_c, 12, 83, 127
1, 1437732, Note_off_c, 0, 84, 127
1, 1438119, Note_off_c, 8, 56, 127
1, 1438129, Note_on_c, 10, 57, 127
1, 1438544, Note_on_c, 2, 74, 127
1, 1438554, Note_off_c, 12, 83, 127
1, 1438939, Note_off_c, 5, 65, 127
1, 1438946, Note_off_c, 10, 57, 127
1, 1438957, Note_on_c, 1, 73, 127
1, 1438957, Note_on_c, 10, 57, 127
1, 1438972, Note_off_c, 2, 74, 127
1, 1439371, Note_on_c, 11, 70, 127
1, 1439385, Note_off_c, 1, 73, 127
1, 1439784, Note_on_c, 6, 66, 127
1, 1440199, Note_on_c, 10, 69, 127
1, 1440209, Note_off_c, 11, 70, 127
1, 1440593, Note_off_c, 10, 57, 127
1, 1440601, Note_off_c, 6, 66, 127
1, 1440612, Note_on_c, 3, 75, 127
1, 1440612, Note_on_c, 6, 66, 127
1, 1440627, Note_off_c, 10, 69, 127
1, 1441025, Note_on_c, 2, 74, 127
1, 1441040, Note_off_c, 3, 75, 127
1, 1441428, Note_off_c, 6, 66, 127
1, 1441439, Note_on_c, 7, 67, 127
1, 1441439, Note_on_c, 10, 57, 127
1, 1441645, Note_on_c, 1, 73, 127
1, 1441658, Note_off_c, 2, 74, 127
1, 1441852, Note_on_c, 4, 76, 127
1, 1441868, Note_off_c, 1, 73, 127
1, 1442059, Note_on_c, 7, 79, 127
1, 1442075, Note_off_c, 4, 76, 127
1, 1442255, Note_off_c, 10, 57, 127
1, 1442255, Note_off_c, 7, 67, 127
1, 1442266, Note_on_c, 11, 82, 127
1, 1442266, Note_on_c, 7, 67, 127
1, 1442266, Note_on_c, 1, 61, 127
1, 1442282, Note_off_c, 7, 79, 127
1, 1442679, Note_on_c, 10, 81, 127
1, 1442694, Note_off_c, 11, 82, 127
1, 1443082, Note_off_c, 1, 61, 127
1, 1443092, Note_on_c, 10, 57, 127
1, 1443196, Note_on_c, 7, 79, 127
1, 1443210, Note_off_c, 10, 81, 127
1, 1443299, Note_on_c, 5, 77, 127
1, 1443316, Note_off_c, 7, 79, 127
1, 1443402, Note_on_c, 4, 76, 127
1, 1443419, Note_off_c, 5, 77, 127
1, 1443505, Note_on_c, 2, 74, 127
1, 1443522, Note_off_c, 4, 76, 127
1, 1443711, Note_on_c, 1, 73, 127
1, 1443728, Note_off_c, 2, 74, 127
1, 1443907, Note_off_c, 10, 57, 127
1, 1443913, Note_off_c, 1, 73, 127
1, 1443918, Note_on_c, 1, 73, 127
1, 1443918, Note_on_c, 2, 62, 127
1, 1444725, Note_off_c, 7, 67, 127
1, 1444746, Note_on_c, 2, 74, 127
1, 1444746, Note_on_c, 6, 66, 127
1, 1444756, Note_off_c, 1, 73, 127
1, 1445153, Note_off_c, 6, 66, 127
1, 1445159, Note_on_c, 4, 64, 127
1, 1445566, Note_off_c, 4, 64, 127
1, 1445573, Note_on_c, 6, 66, 127
1, 1446379, Note_off_c, 2, 62, 127
1, 1446401, Note_on_c, 10, 57, 127
1, 1447211, Note_off_c, 6, 66, 127
1, 1447218, Note_off_c, 10, 57, 127
1, 1447229, Note_on_c, 2, 50, 127
1, 1448847, Note_off_c, 2, 74, 127
1, 1448867, Note_off_c, 2, 50, 127
1, 1448884, Note_on_c, 2, 62, 127
1, 1449298, Note_on_c, 10, 81, 127
1, 1449712, Note_on_c, 11, 82, 127
1, 1449712, Note_on_c, 5, 65, 127
1, 1449727, Note_off_c, 10, 81, 127
1, 1449919, Note_on_c, 10, 81, 127
1, 1449935, Note_off_c, 11, 82, 127
1, 1450125, Note_on_c, 8, 80, 127
1, 1450142, Note_off_c, 10, 81, 127
1, 1450332, Note_on_c, 10, 81, 127
1, 1450348, Note_off_c, 8, 80, 127
1, 1450520, Note_off_c, 2, 62, 127
1, 1450528, Note_off_c, 5, 65, 127
1, 1450539, Note_on_c, 3, 75, 127
1, 1450539, Note_on_c, 5, 65, 127
1, 1450555, Note_off_c, 10, 81, 127
1, 1450952, Note_on_c, 2, 74, 127
1, 1450967, Note_off_c, 3, 75, 127
1, 1451355, Note_off_c, 5, 65, 127
1, 1451366, Note_on_c, 6, 66, 127
1, 1451366, Note_on_c, 0, 60, 127
1, 1451572, Note_on_c, 4, 76, 127
1, 1451585, Note_off_c, 2, 74, 127
1, 1451779, Note_on_c, 6, 78, 127
1, 1451795, Note_off_c, 4, 76, 127
1, 1451986, Note_on_c, 7, 79, 127
1, 1452002, Note_off_c, 6, 78, 127
1, 1452182, Note_off_c, 0, 60, 127
1, 1452182, Note_off_c, 6, 66, 127
1, 1452192, Note_on_c, 10, 81, 127
1, 1452192, Note_on_c, 0, 60, 127
1, 1452192, Note_on_c, 6, 66, 127
1, 1452209, Note_off_c, 7, 79, 127
1, 1452399, Note_on_c, 0, 72, 127
1, 1452415, Note_off_c, 10, 81, 127
1, 1452606, Note_on_c, 3, 75, 127
1, 1452622, Note_off_c, 0, 72, 127
1, 1453008, Note_off_c, 6, 66, 127
1, 1453008, Note_off_c, 0, 60, 127
1, 1453019, Note_on_c, 11, 58, 127
1, 1453019, Note_on_c, 7, 67, 127
1, 1453434, Note_on_c, 2, 74, 127
1, 1453444, Note_off_c, 3, 75, 127
1, 1453836, Note_off_c, 7, 67, 127
1, 1453836, Note_off_c, 11, 58, 127
1, 1453847, Note_on_c, 7, 67, 127
1, 1453847, Note_on_c, 11, 58, 127
1, 1454262, Note_on_c, 5, 77, 127
1, 1454272, Note_off_c, 2, 74, 127
1, 1454664, Note_off_c, 11, 58, 127
1, 1454664, Note_off_c, 7, 67, 127
1, 1454675, Note_on_c, 7, 79, 127
1, 1454675, Note_on_c, 7, 55, 127
1, 1454675, Note_on_c, 2, 62, 127
1, 1454690, Note_off_c, 5, 77, 127
1, 1454882, Note_on_c, 5, 77, 127
1, 1454898, Note_off_c, 7, 79, 127
1, 1455082, Note_off_c, 7, 55, 127
1, 1455088, Note_on_c, 3, 75, 127
1, 1455088, Note_on_c, 10, 57, 127
1, 1455105, Note_off_c, 5, 77, 127
1, 1455295, Note_on_c, 5, 77, 127
1, 1455311, Note_off_c, 3, 75, 127
1, 1455491, Note_off_c, 2, 62, 127
1, 1455495, Note_off_c, 10, 57, 127
1, 1455502, Note_on_c, 8, 68, 127
1, 1455502, Note_on_c, 11, 58, 127
1, 1455518, Note_off_c, 5, 77, 127
1, 1455915, Note_on_c, 7, 67, 127
1, 1455930, Note_off_c, 8, 68, 127
1, 1456318, Note_off_c, 11, 58, 127
1, 1456329, Note_on_c, 12, 59, 127
1, 1456329, Note_on_c, 5, 65, 127
1, 1456535, Note_on_c, 10, 69, 127
1, 1456548, Note_off_c, 7, 67, 127
1, 1456742, Note_on_c, 12, 71, 127
1, 1456758, Note_off_c, 10, 69, 127
1, 1456949, Note_on_c, 0, 72, 127
1, 1456965, Note_off_c, 12, 71, 127
1, 1457145, Note_off_c, 5, 65, 127
1, 1457145, Note_off_c, 12, 59, 127
1, 1457155, Note_on_c, 2, 74, 127
1, 1457155, Note_on_c, 5, 65, 127
1, 1457155, Note_on_c, 12, 59, 127
1, 1457172, Note_off_c, 0, 72, 127
1, 1457351, Note_off_c, 5, 65, 127
1, 1457362, Note_on_c, 5, 65, 127
1, 1457378, Note_off_c, 2, 74, 127
1, 1457569, Note_on_c, 8, 68, 127
1, 1457771, Note_off_c, 5, 65, 127
1, 1457971, Note_off_c, 12, 59, 127
1, 1457982, Note_on_c, 3, 63, 127
1, 1457982, Note_on_c, 0, 60, 127
1, 1458397, Note_on_c, 7, 67, 127
1, 1458407, Note_off_c, 8, 68, 127
1, 1458799, Note_off_c, 0, 60, 127
1, 1458799, Note_off_c, 3, 63, 127
1, 1458810, Note_on_c, 3, 63, 127
1, 1458810, Note_on_c, 0, 60, 127
1, 1459225, Note_on_c, 0, 72, 127
1, 1459235, Note_off_c, 7, 67, 127
1, 1459627, Note_off_c, 3, 63, 127
1, 1459638, Note_on_c, 2, 62, 127
1, 1460052, Note_on_c, 12, 71, 127
1, 1460063, Note_off_c, 0, 72, 127
1, 1460448, Note_off_c, 0, 60, 127
1, 1460455, Note_off_c, 2, 62, 127
1, 1460466, Note_on_c, 0, 72, 127
1, 1460466, Note_on_c, 3, 63, 127
1, 1460480, Note_off_c, 12, 71, 127
1, 1460672, Note_on_c, 3, 75, 127
1, 1460689, Note_off_c, 0, 72, 127
1, 1460879, Note_on_c, 1, 73, 127
1, 1460895, Note_off_c, 3, 75, 127
1, 1461282, Note_off_c, 3, 63, 127
1, 1461293, Note_on_c, 7, 55, 127
1, 1461293, Note_on_c, 4, 64, 127
1, 1461707, Note_on_c, 0, 72, 127
1, 1461717, Note_off_c, 1, 73, 127
1, 1462110, Note_off_c, 4, 64, 127
1, 1462110, Note_off_c, 7, 55, 127
1, 1462120, Note_on_c, 5, 65, 127
1, 1462120, Note_on_c, 8, 56, 127
1, 1462327, Note_on_c, 5, 77, 127
1, 1462340, Note_off_c, 0, 72, 127
1, 1462534, Note_on_c, 3, 75, 127
1, 1462550, Note_off_c, 5, 77, 127
1, 1462936, Note_off_c, 8, 56, 127
1, 1462936, Note_off_c, 5, 65, 127
1, 1462947, Note_on_c, 6, 66, 127
1, 1462947, Note_on_c, 10, 57, 127
1, 1463154, Note_on_c, 5, 77, 127
1, 1463167, Note_off_c, 3, 75, 127
1, 1463361, Note_on_c, 3, 75, 127
1, 1463377, Note_off_c, 5, 77, 127
1, 1463567, Note_on_c, 2, 74, 127
1, 1463584, Note_off_c, 3, 75, 127
1, 1463763, Note_off_c, 10, 57, 127
1, 1463774, Note_on_c, 3, 75, 127
1, 1463774, Note_on_c, 11, 58, 127
1, 1463790, Note_off_c, 2, 74, 127
1, 1463981, Note_on_c, 10, 81, 127
1, 1463997, Note_off_c, 3, 75, 127
1, 1464187, Note_on_c, 11, 82, 127
1, 1464204, Note_off_c, 10, 81, 127
1, 1464582, Note_off_c, 6, 66, 127
1, 1464601, Note_on_c, 3, 75, 127
1, 1464601, Note_on_c, 5, 65, 127
1, 1464615, Note_off_c, 11, 82, 127
1, 1465008, Note_off_c, 5, 65, 127
1, 1465014, Note_on_c, 2, 74, 127
1, 1465014, Note_on_c, 6, 66, 127
1, 1465029, Note_off_c, 3, 75, 127
1, 1465409, Note_off_c, 11, 58, 127
1, 1465421, Note_off_c, 6, 66, 127
1, 1465428, Note_on_c, 8, 68, 127
1, 1465830, Note_off_c, 2, 74, 127
1, 1465835, Note_off_c, 8, 68, 127
1, 1465841, Note_on_c, 2, 62, 127
1, 1466256, Note_on_c, 12, 59, 127
1, 1466658, Note_off_c, 2, 62, 127
1, 1466669, Note_on_c, 3, 63, 127
1, 1466871, Note_off_c, 3, 63, 127
1, 1466876, Note_on_c, 5, 65, 127
1, 1467072, Note_off_c, 12, 59, 127
1, 1467078, Note_off_c, 5, 65, 127
1, 1467082, Note_on_c, 6, 66, 127
1, 1467082, Note_on_c, 11, 58, 127
1, 1467284, Note_off_c, 6, 66, 127
1, 1467289, Note_on_c, 3, 63, 127
1, 1467491, Note_off_c, 3, 63, 127
1, 1467496, Note_on_c, 5, 65, 127
1, 1467898, Note_off_c, 11, 58, 127
1, 1467909, Note_on_c, 8, 56, 127
1, 1468312, Note_off_c, 5, 65, 127
1, 1468323, Note_on_c, 12, 59, 127
1, 1468725, Note_off_c, 8, 56, 127
1, 1468730, Note_off_c, 12, 59, 127
1, 1468736, Note_on_c, 6, 54, 127
1, 1468736, Note_on_c, 12, 59, 127
1, 1469143, Note_off_c, 12, 59, 127
1, 1469149, Note_on_c, 11, 70, 127
1, 1469149, Note_on_c, 11, 58, 127
1, 1469556, Note_off_c, 11, 58, 127
1, 1469563, Note_on_c, 12, 71, 127
1, 1469563, Note_on_c, 3, 63, 127
1, 1469577, Note_off_c, 11, 70, 127
1, 1469769, Note_on_c, 11, 70, 127
1, 1469786, Note_off_c, 12, 71, 127
1, 1469976, Note_on_c, 10, 69, 127
1, 1469992, Note_off_c, 11, 70, 127
1, 1470183, Note_on_c, 11, 70, 127
1, 1470199, Note_off_c, 10, 69, 127
1, 1470371, Note_off_c, 6, 54, 127
1, 1470379, Note_off_c, 3, 63, 127
1, 1470385, Note_off_c, 11, 70, 127
1, 1470390, Note_on_c, 11, 70, 127
1, 1470390, Note_on_c, 3, 63, 127
1, 1470804, Note_on_c, 11, 82, 127
1, 1470819, Note_off_c, 11, 70, 127
1, 1471207, Note_off_c, 3, 63, 127
1, 1471217, Note_on_c, 4, 64, 127
1, 1471217, Note_on_c, 7, 55, 127
1, 1471424, Note_on_c, 12, 83, 127
1, 1471437, Note_off_c, 11, 82, 127
1, 1471631, Note_on_c, 11, 82, 127
1, 1471647, Note_off_c, 12, 83, 127
1, 1471837, Note_on_c, 8, 80, 127
1, 1471854, Note_off_c, 11, 82, 127
1, 1472033, Note_off_c, 7, 55, 127
1, 1472033, Note_off_c, 4, 64, 127
1, 1472044, Note_on_c, 11, 82, 127
1, 1472044, Note_on_c, 4, 64, 127
1, 1472044, Note_on_c, 7, 55, 127
1, 1472060, Note_off_c, 8, 80, 127
1, 1472458, Note_on_c, 1, 73, 127
1, 1472472, Note_off_c, 11, 82, 127
1, 1472860, Note_off_c, 7, 55, 127
1, 1472871, Note_on_c, 8, 56, 127
1, 1473078, Note_on_c, 12, 71, 127
1, 1473091, Note_off_c, 1, 73, 127
1, 1473284, Note_on_c, 11, 70, 127
1, 1473301, Note_off_c, 12, 71, 127
1, 1473679, Note_off_c, 4, 64, 127
1, 1473687, Note_off_c, 8, 56, 127
1, 1473691, Note_off_c, 11, 70, 127
1, 1473698, Note_on_c, 11, 70, 127
1, 1473698, Note_on_c, 8, 56, 127
1, 1474112, Note_on_c, 12, 71, 127
1, 1474127, Note_off_c, 11, 70, 127
1, 1474526, Note_on_c, 1, 73, 127
1, 1474526, Note_on_c, 5, 65, 127
1, 1474540, Note_off_c, 12, 71, 127
1, 1474732, Note_on_c, 12, 71, 127
1, 1474749, Note_off_c, 1, 73, 127
1, 1474939, Note_on_c, 11, 70, 127
1, 1474955, Note_off_c, 12, 71, 127
1, 1475146, Note_on_c, 12, 71, 127
1, 1475162, Note_off_c, 11, 70, 127
1, 1475334, Note_off_c, 8, 56, 127
1, 1475342, Note_off_c, 5, 65, 127
1, 1475350, Note_off_c, 12, 71, 127
1, 1475352, Note_on_c, 12, 71, 127
1, 1475352, Note_on_c, 5, 65, 127
1, 1475767, Note_on_c, 12, 83, 127
1, 1475781, Note_off_c, 12, 71, 127
1, 1476169, Note_off_c, 5, 65, 127
1, 1476180, Note_on_c, 6, 66, 127
1, 1476180, Note_on_c, 10, 57, 127
1, 1476387, Note_on_c, 4, 76, 127
1, 1476400, Note_off_c, 12, 83, 127
1, 1476594, Note_on_c, 3, 75, 127
1, 1476610, Note_off_c, 4, 76, 127
1, 1476800, Note_on_c, 2, 74, 127
1, 1476817, Note_off_c, 3, 75, 127
1, 1476996, Note_off_c, 10, 57, 127
1, 1476996, Note_off_c, 6, 66, 127
1, 1477007, Note_on_c, 3, 75, 127
1, 1477007, Note_on_c, 6, 66, 127
1, 1477007, Note_on_c, 10, 57, 127
1, 1477023, Note_off_c, 2, 74, 127
1, 1477214, Note_on_c, 1, 85, 127
1, 1477230, Note_off_c, 3, 75, 127
1, 1477420, Note_on_c, 0, 84, 127
1, 1477437, Note_off_c, 1, 85, 127
1, 1477823, Note_off_c, 10, 57, 127
1, 1477834, Note_on_c, 11, 58, 127
1, 1478248, Note_on_c, 3, 75, 127
1, 1478258, Note_off_c, 0, 84, 127
1, 1478643, Note_off_c, 6, 66, 127
1, 1478651, Note_off_c, 11, 58, 127
1, 1478662, Note_on_c, 2, 74, 127
1, 1478662, Note_on_c, 11, 58, 127
1, 1478676, Note_off_c, 3, 75, 127
1, 1479075, Note_on_c, 12, 71, 127
1, 1479090, Note_off_c, 2, 74, 127
1, 1479489, Note_on_c, 7, 67, 127
1, 1479821, Note_off_c, 12, 71, 127
1, 1479902, Note_on_c, 11, 70, 127
1, 1480297, Note_off_c, 11, 58, 127
1, 1480305, Note_off_c, 7, 67, 127
1, 1480315, Note_on_c, 4, 76, 127
1, 1480315, Note_on_c, 7, 67, 127
1, 1480330, Note_off_c, 11, 70, 127
1, 1480729, Note_on_c, 3, 75, 127
1, 1480743, Note_off_c, 4, 76, 127
1, 1481131, Note_off_c, 7, 67, 127
1, 1481142, Note_on_c, 8, 68, 127
1, 1481142, Note_on_c, 11, 58, 127
1, 1481241, Note_off_c, 3, 75, 127
1, 1481350, Note_on_c, 2, 74, 127
1, 1481557, Note_on_c, 5, 77, 127
1, 1481573, Note_off_c, 2, 74, 127
1, 1481763, Note_on_c, 8, 80, 127
1, 1481780, Note_off_c, 5, 77, 127
1, 1481959, Note_off_c, 11, 58, 127
1, 1481959, Note_off_c, 8, 68, 127
1, 1481970, Note_on_c, 12, 83, 127
1, 1481970, Note_on_c, 8, 68, 127
1, 1481970, Note_on_c, 2, 62, 127
1, 1481986, Note_off_c, 8, 80, 127
1, 1482383, Note_on_c, 11, 82, 127
1, 1482398, Note_off_c, 12, 83, 127
1, 1482786, Note_off_c, 2, 62, 127
1, 1482797, Note_on_c, 11, 58, 127
1, 1482901, Note_on_c, 8, 80, 127
1, 1482914, Note_off_c, 11, 82, 127
1, 1483004, Note_on_c, 6, 78, 127
1, 1483021, Note_off_c, 8, 80, 127
1, 1483106, Note_on_c, 5, 77, 127
1, 1483124, Note_off_c, 6, 78, 127
1, 1483209, Note_on_c, 3, 75, 127
1, 1483226, Note_off_c, 5, 77, 127
1, 1483416, Note_on_c, 2, 74, 127
1, 1483432, Note_off_c, 3, 75, 127
1, 1483604, Note_off_c, 8, 68, 127
1, 1483612, Note_off_c, 11, 58, 127
1, 1483618, Note_off_c, 2, 74, 127
1, 1483623, Note_on_c, 2, 74, 127
1, 1483623, Note_on_c, 3, 63, 127
1, 1484450, Note_on_c, 3, 75, 127
1, 1484450, Note_on_c, 7, 67, 127
1, 1484461, Note_off_c, 2, 74, 127
1, 1484857, Note_off_c, 7, 67, 127
1, 1484864, Note_on_c, 5, 65, 127
1, 1485259, Note_off_c, 3, 63, 127
1, 1485271, Note_off_c, 5, 65, 127
1, 1485277, Note_on_c, 7, 67, 127
1, 1485992, Note_off_c, 7, 67, 127
1, 1486086, Note_off_c, 3, 75, 127
1, 1486105, Note_on_c, 5, 65, 127
1, 1486520, Note_on_c, 10, 69, 127
1, 1486722, Note_off_c, 10, 69, 127
1, 1486726, Note_on_c, 12, 71, 127
1, 1486922, Note_off_c, 5, 65, 127
1, 1486928, Note_off_c, 12, 71, 127
1, 1486933, Note_on_c, 0, 72, 127
1, 1486933, Note_on_c, 3, 63, 127
1, 1487135, Note_off_c, 0, 72, 127
1, 1487140, Note_on_c, 5, 65, 127
1, 1487342, Note_off_c, 5, 65, 127
1, 1487346, Note_on_c, 8, 68, 127
1, 1487749, Note_off_c, 3, 63, 127
1, 1487760, Note_on_c, 2, 62, 127
1, 1488162, Note_off_c, 8, 68, 127
1, 1488173, Note_on_c, 7, 67, 127
1, 1488576, Note_off_c, 2, 62, 127
1, 1488580, Note_off_c, 7, 67, 127
1, 1488587, Note_on_c, 0, 60, 127
1, 1488587, Note_on_c, 5, 65, 127
1, 1489001, Note_on_c, 7, 67, 127
1, 1489404, Note_off_c, 5, 65, 127
1, 1489414, Note_on_c, 8, 68, 127
1, 1489414, Note_on_c, 3, 63, 127
1, 1489429, Note_off_c, 7, 67, 127
1, 1489621, Note_on_c, 7, 67, 127
1, 1489637, Note_off_c, 8, 68, 127
1, 1489828, Note_on_c, 6, 66, 127
1, 1489844, Note_off_c, 7, 67, 127
1, 1490034, Note_on_c, 7, 67, 127
1, 1490051, Note_off_c, 6, 66, 127
1, 1490236, Note_off_c, 7, 67, 127
1, 1490241, Note_on_c, 7, 67, 127
1, 1490637, Note_off_c, 0, 60, 127
1, 1490640, Note_off_c, 3, 63, 127
1, 1490655, Note_on_c, 3, 75, 127
1, 1490669, Note_off_c, 7, 67, 127
1, 1491068, Note_on_c, 0, 60, 127
1, 1491068, Note_on_c, 7, 67, 127
1, 1491275, Note_on_c, 2, 74, 127
1, 1491288, Note_off_c, 3, 75, 127
1, 1491481, Note_on_c, 0, 72, 127
1, 1491498, Note_off_c, 2, 74, 127
1, 1491688, Note_on_c, 11, 70, 127
1, 1491704, Note_off_c, 0, 72, 127
1, 1491884, Note_off_c, 7, 67, 127
1, 1491884, Note_off_c, 0, 60, 127
1, 1491895, Note_on_c, 8, 68, 127
1, 1491895, Note_on_c, 5, 65, 127
1, 1491895, Note_on_c, 0, 60, 127
1, 1491911, Note_off_c, 11, 70, 127
1, 1492308, Note_on_c, 7, 67, 127
1, 1492323, Note_off_c, 8, 68, 127
1, 1492711, Note_off_c, 0, 60, 127
1, 1492711, Note_off_c, 5, 65, 127
1, 1492722, Note_on_c, 3, 63, 127
1, 1492722, Note_on_c, 0, 60, 127
1, 1493136, Note_on_c, 6, 66, 127
1, 1493146, Note_off_c, 7, 67, 127
1, 1493539, Note_off_c, 0, 60, 127
1, 1493539, Note_off_c, 3, 63, 127
1, 1493549, Note_on_c, 0, 60, 127
1, 1493549, Note_on_c, 2, 62, 127
1, 1493964, Note_on_c, 5, 65, 127
1, 1493974, Note_off_c, 6, 66, 127
1, 1494366, Note_off_c, 0, 60, 127
1, 1494377, Note_on_c, 7, 67, 127
1, 1494377, Note_on_c, 12, 59, 127
1, 1494392, Note_off_c, 5, 65, 127
1, 1494584, Note_on_c, 5, 65, 127
1, 1494600, Note_off_c, 7, 67, 127
1, 1494791, Note_on_c, 4, 64, 127
1, 1494807, Note_off_c, 5, 65, 127
1, 1494997, Note_on_c, 5, 65, 127
1, 1495014, Note_off_c, 4, 64, 127
1, 1495201, Note_off_c, 5, 65, 127
1, 1495204, Note_on_c, 5, 65, 127
1, 1495599, Note_off_c, 2, 62, 127
1, 1495603, Note_off_c, 12, 59, 127
1, 1495618, Note_on_c, 1, 73, 127
1, 1495632, Note_off_c, 5, 65, 127
1, 1496031, Note_on_c, 11, 58, 127
1, 1496031, Note_on_c, 5, 65, 127
1, 1496238, Note_on_c, 0, 72, 127
1, 1496251, Note_off_c, 1, 73, 127
1, 1496444, Note_on_c, 11, 70, 127
1, 1496461, Note_off_c, 0, 72, 127
1, 1496651, Note_on_c, 8, 68, 127
1, 1496667, Note_off_c, 11, 70, 127
1, 1496847, Note_off_c, 5, 65, 127
1, 1496847, Note_off_c, 11, 58, 127
1, 1496858, Note_on_c, 6, 66, 127
1, 1496858, Note_on_c, 11, 58, 127
1, 1496858, Note_on_c, 3, 63, 127
1, 1496874, Note_off_c, 8, 68, 127
1, 1497271, Note_on_c, 5, 65, 127
1, 1497286, Note_off_c, 6, 66, 127
1, 1497674, Note_off_c, 3, 63, 127
1, 1497674, Note_off_c, 11, 58, 127
1, 1497685, Note_on_c, 11, 58, 127
1, 1497685, Note_on_c, 1, 61, 127
1, 1498099, Note_on_c, 4, 64, 127
1, 1498109, Note_off_c, 5, 65, 127
1, 1498502, Note_off_c, 1, 61, 127
1, 1498502, Note_off_c, 11, 58, 127
1, 1498512, Note_on_c, 0, 60, 127
1, 1498512, Note_on_c, 11, 58, 127
1, 1498927, Note_on_c, 3, 63, 127
1, 1498937, Note_off_c, 4, 64, 127
1, 1499329, Note_off_c, 11, 58, 127
1, 1499340, Note_on_c, 5, 65, 127
1, 1499340, Note_on_c, 10, 57, 127
1, 1499355, Note_off_c, 3, 63, 127
1, 1499547, Note_on_c, 3, 63, 127
1, 1499563, Note_off_c, 5, 65, 127
1, 1499754, Note_on_c, 2, 62, 127
1, 1499770, Note_off_c, 3, 63, 127
1, 1499960, Note_on_c, 3, 63, 127
1, 1499977, Note_off_c, 2, 62, 127
1, 1500164, Note_off_c, 3, 63, 127
1, 1500167, Note_on_c, 3, 63, 127
1, 1500562, Note_off_c, 0, 60, 127
1, 1500566, Note_off_c, 10, 57, 127
1, 1500580, Note_on_c, 0, 72, 127
1, 1500595, Note_off_c, 3, 63, 127
1, 1500994, Note_on_c, 3, 63, 127
1, 1500994, Note_on_c, 8, 56, 127
1, 1501201, Note_on_c, 11, 70, 127
1, 1501213, Note_off_c, 0, 72, 127
1, 1501401, Note_off_c, 3, 63, 127
1, 1501407, Note_on_c, 8, 68, 127
1, 1501407, Note_on_c, 2, 62, 127
1, 1501424, Note_off_c, 11, 70, 127
1, 1501614, Note_on_c, 7, 67, 127
1, 1501630, Note_off_c, 8, 68, 127
1, 1501810, Note_off_c, 8, 56, 127
1, 1501814, Note_off_c, 2, 62, 127
1, 1501821, Note_on_c, 6, 66, 127
1, 1501821, Note_on_c, 8, 56, 127
1, 1501821, Note_on_c, 0, 60, 127
1, 1501837, Note_off_c, 7, 67, 127
1, 1502234, Note_on_c, 3, 75, 127
1, 1502249, Note_off_c, 6, 66, 127
1, 1502637, Note_off_c, 0, 60, 127
1, 1502637, Note_off_c, 8, 56, 127
1, 1502647, Note_on_c, 7, 55, 127
1, 1502647, Note_on_c, 11, 58, 127
1, 1502854, Note_on_c, 2, 74, 127
1, 1502867, Note_off_c, 3, 75, 127
1, 1503061, Note_on_c, 1, 73, 127
1, 1503077, Note_off_c, 2, 74, 127
1, 1503463, Note_off_c, 11, 58, 127
1, 1503463, Note_off_c, 7, 55, 127
1, 1503470, Note_off_c, 1, 73, 127
1, 1503474, Note_on_c, 1, 73, 127
1, 1503474, Note_on_c, 10, 57, 127
1, 1503474, Note_on_c, 7, 55, 127
1, 1503889, Note_on_c, 2, 74, 127
1, 1503903, Note_off_c, 1, 73, 127
1, 1504291, Note_off_c, 7, 55, 127
1, 1504302, Note_on_c, 3, 63, 127
1, 1504302, Note_on_c, 6, 54, 127
1, 1504317, Note_off_c, 2, 74, 127
1, 1504701, Note_off_c, 10, 57, 127
1, 1504715, Note_on_c, 2, 62, 127
1, 1504715, Note_on_c, 10, 57, 127
1, 1504730, Note_off_c, 3, 63, 127
1, 1505118, Note_off_c, 6, 54, 127
1, 1505120, Note_off_c, 2, 62, 127
1, 1505122, Note_off_c, 10, 57, 127
1, 1505129, Note_on_c, 2, 62, 127
1, 1505336, Note_on_c, 4, 64, 127
1, 1505542, Note_on_c, 6, 66, 127
1, 1505559, Note_off_c, 4, 64, 127
1, 1505726, Note_off_c, 2, 62, 127
1, 1505749, Note_on_c, 7, 67, 127
1, 1505765, Note_off_c, 6, 66, 127
1, 1505956, Note_on_c, 10, 69, 127
1, 1505956, Note_on_c, 0, 60, 127
1, 1505956, Note_on_c, 6, 54, 127
1, 1505972, Note_off_c, 7, 67, 127
1, 1506162, Note_on_c, 11, 70, 127
1, 1506179, Note_off_c, 10, 69, 127
1, 1506369, Note_on_c, 0, 72, 127
1, 1506385, Note_off_c, 11, 70, 127
1, 1506576, Note_on_c, 2, 74, 127
1, 1506592, Note_off_c, 0, 72, 127
1, 1506772, Note_off_c, 6, 54, 127
1, 1506772, Note_off_c, 0, 60, 127
1, 1506782, Note_on_c, 3, 75, 127
1, 1506782, Note_on_c, 11, 58, 127
1, 1506782, Note_on_c, 7, 55, 127
1, 1506799, Note_off_c, 2, 74, 127
1, 1506989, Note_on_c, 2, 74, 127
1, 1507005, Note_off_c, 3, 75, 127
1, 1507196, Note_on_c, 7, 79, 127
1, 1507212, Note_off_c, 2, 74, 127
1, 1507598, Note_off_c, 7, 55, 127
1, 1507598, Note_off_c, 11, 58, 127
1, 1507609, Note_on_c, 10, 57, 127
1, 1507609, Note_on_c, 0, 48, 127
1, 1507816, Note_on_c, 6, 78, 127
1, 1507829, Note_off_c, 7, 79, 127
1, 1508023, Note_on_c, 10, 81, 127
1, 1508039, Note_off_c, 6, 78, 127
1, 1508425, Note_off_c, 0, 48, 127
1, 1508425, Note_off_c, 10, 57, 127
1, 1508436, Note_on_c, 2, 50, 127
1, 1508436, Note_on_c, 11, 46, 127
1, 1508851, Note_on_c, 2, 74, 127
1, 1508861, Note_off_c, 10, 81, 127
1, 1509253, Note_off_c, 2, 50, 127
1, 1509264, Note_on_c, 3, 75, 127
1, 1509264, Note_on_c, 6, 54, 127
1, 1509279, Note_off_c, 2, 74, 127
1, 1509471, Note_on_c, 2, 74, 127
1, 1509487, Note_off_c, 3, 75, 127
1, 1509677, Note_on_c, 1, 73, 127
1, 1509694, Note_off_c, 2, 74, 127
1, 1509884, Note_on_c, 2, 74, 127
1, 1509900, Note_off_c, 1, 73, 127
1, 1510072, Note_off_c, 11, 46, 127
1, 1510080, Note_off_c, 6, 54, 127
1, 1510088, Note_off_c, 2, 74, 127
1, 1510091, Note_on_c, 2, 74, 127
1, 1510091, Note_on_c, 6, 54, 127
1, 1510505, Note_on_c, 2, 86, 127
1, 1510520, Note_off_c, 2, 74, 127
1, 1510908, Note_off_c, 6, 54, 127
1, 1510919, Note_on_c, 7, 55, 127
1, 1510919, Note_on_c, 11, 46, 127
1, 1511125, Note_on_c, 0, 84, 127
1, 1511138, Note_off_c, 2, 86, 127
1, 1511332, Note_on_c, 11, 82, 127
1, 1511348, Note_off_c, 0, 84, 127
1, 1511539, Note_on_c, 10, 81, 127
1, 1511555, Note_off_c, 11, 82, 127
1, 1511735, Note_off_c, 11, 46, 127
1, 1511735, Note_off_c, 7, 55, 127
1, 1511745, Note_on_c, 7, 79, 127
1, 1511745, Note_on_c, 11, 46, 127
1, 1511745, Note_on_c, 7, 55, 127
1, 1511762, Note_off_c, 10, 81, 127
1, 1511952, Note_on_c, 2, 86, 127
1, 1511968, Note_off_c, 7, 79, 127
1, 1512159, Note_on_c, 5, 77, 127
1, 1512175, Note_off_c, 2, 86, 127
1, 1512561, Note_off_c, 7, 55, 127
1, 1512561, Note_off_c, 11, 46, 127
1, 1512572, Note_on_c, 12, 47, 127
1, 1512572, Note_on_c, 8, 56, 127
1, 1512779, Note_on_c, 3, 75, 127
1, 1512792, Note_off_c, 5, 77, 127
1, 1512986, Note_on_c, 2, 74, 127
1, 1513002, Note_off_c, 3, 75, 127
1, 1513192, Note_on_c, 0, 72, 127
1, 1513209, Note_off_c, 2, 74, 127
1, 1513388, Note_off_c, 8, 56, 127
1, 1513388, Note_off_c, 12, 47, 127
1, 1513399, Note_on_c, 2, 74, 127
1, 1513399, Note_on_c, 12, 47, 127
1, 1513415, Note_off_c, 0, 72, 127
1, 1513606, Note_on_c, 8, 80, 127
1, 1513622, Note_off_c, 2, 74, 127
1, 1513806, Note_off_c, 12, 47, 127
1, 1513812, Note_on_c, 7, 79, 127
1, 1513812, Note_on_c, 2, 50, 127
1, 1513829, Note_off_c, 8, 80, 127
1, 1514019, Note_on_c, 5, 77, 127
1, 1514035, Note_off_c, 7, 79, 127
1, 1514219, Note_off_c, 2, 50, 127
1, 1514226, Note_on_c, 3, 75, 127
1, 1514226, Note_on_c, 7, 55, 127
1, 1514226, Note_on_c, 0, 48, 127
1, 1514242, Note_off_c, 5, 77, 127
1, 1514433, Note_on_c, 2, 74, 127
1, 1514449, Note_off_c, 3, 75, 127
1, 1514639, Note_on_c, 0, 72, 127
1, 1514656, Note_off_c, 2, 74, 127
1, 1514846, Note_on_c, 12, 71, 127
1, 1514862, Note_off_c, 0, 72, 127
1, 1515042, Note_off_c, 7, 55, 127
1, 1515053, Note_on_c, 0, 72, 127
1, 1515053, Note_on_c, 7, 55, 127
1, 1515069, Note_off_c, 12, 71, 127
1, 1515259, Note_on_c, 5, 77, 127
1, 1515276, Note_off_c, 0, 72, 127
1, 1515466, Note_on_c, 3, 75, 127
1, 1515482, Note_off_c, 5, 77, 127
1, 1515673, Note_on_c, 2, 74, 127
1, 1515689, Note_off_c, 3, 75, 127
1, 1515861, Note_off_c, 0, 48, 127
1, 1515869, Note_off_c, 7, 55, 127
1, 1515879, Note_on_c, 0, 72, 127
1, 1515879, Note_on_c, 0, 48, 127
1, 1515879, Note_on_c, 10, 57, 127
1, 1515896, Note_off_c, 2, 74, 127
1, 1516086, Note_on_c, 11, 70, 127
1, 1516102, Note_off_c, 0, 72, 127
1, 1516293, Note_on_c, 10, 69, 127
1, 1516309, Note_off_c, 11, 70, 127
1, 1516500, Note_on_c, 7, 67, 127
1, 1516516, Note_off_c, 10, 69, 127
1, 1516695, Note_off_c, 10, 57, 127
1, 1516695, Note_off_c, 0, 48, 127
1, 1516706, Note_on_c, 10, 69, 127
1, 1516706, Note_on_c, 0, 48, 127
1, 1516706, Note_on_c, 10, 57, 127
1, 1516723, Note_off_c, 7, 67, 127
1, 1516913, Note_on_c, 2, 74, 127
1, 1516929, Note_off_c, 10, 69, 127
1, 1517120, Note_on_c, 0, 72, 127
1, 1517136, Note_off_c, 2, 74, 127
1, 1517326, Note_on_c, 11, 70, 127
1, 1517343, Note_off_c, 0, 72, 127
1, 1517522, Note_off_c, 10, 57, 127
1, 1517522, Note_off_c, 0, 48, 127
1, 1517533, Note_on_c, 10, 69, 127
1, 1517533, Note_on_c, 11, 58, 127
1, 1517533, Note_on_c, 1, 49, 127
1, 1517549, Note_off_c, 11, 70, 127
1, 1517740, Note_on_c, 7, 67, 127
1, 1517756, Note_off_c, 10, 69, 127
1, 1517946, Note_on_c, 6, 66, 127
1, 1517963, Note_off_c, 7, 67, 127
1, 1518153, Note_on_c, 4, 64, 127
1, 1518169, Note_off_c, 6, 66, 127
1, 1518349, Note_off_c, 1, 49, 127
1, 1518360, Note_on_c, 6, 66, 127
1, 1518360, Note_on_c, 1, 49, 127
1, 1518376, Note_off_c, 4, 64, 127
1, 1518567, Note_on_c, 11, 70, 127
1, 1518583, Note_off_c, 6, 66, 127
1, 1518767, Note_off_c, 1, 49, 127
1, 1518773, Note_on_c, 10, 69, 127
1, 1518773, Note_on_c, 4, 52, 127
1, 1518790, Note_off_c, 11, 70, 127
1, 1518980, Note_on_c, 7, 67, 127
1, 1518996, Note_off_c, 10, 69, 127
1, 1519168, Note_off_c, 11, 58, 127
1, 1519180, Note_off_c, 4, 52, 127
1, 1519187, Note_on_c, 6, 66, 127
1, 1519187, Note_on_c, 2, 50, 127
1, 1519187, Note_on_c, 10, 57, 127
1, 1519203, Note_off_c, 7, 67, 127
1, 1519393, Note_on_c, 4, 64, 127
1, 1519410, Note_off_c, 6, 66, 127
1, 1519600, Note_on_c, 2, 62, 127
1, 1519616, Note_off_c, 4, 64, 127
1, 1519807, Note_on_c, 1, 61, 127
1, 1519823, Note_off_c, 2, 62, 127
1, 1520003, Note_off_c, 10, 57, 127
1, 1520013, Note_on_c, 2, 62, 127
1, 1520013, Note_on_c, 10, 57, 127
1, 1520030, Note_off_c, 1, 61, 127
1, 1520220, Note_on_c, 7, 67, 127
1, 1520236, Note_off_c, 2, 62, 127
1, 1520427, Note_on_c, 6, 66, 127
1, 1520443, Note_off_c, 7, 67, 127
1, 1520634, Note_on_c, 4, 64, 127
1, 1520650, Note_off_c, 6, 66, 127
1, 1520822, Note_off_c, 2, 50, 127
1, 1520829, Note_off_c, 10, 57, 127
1, 1520840, Note_on_c, 2, 62, 127
1, 1520840, Note_on_c, 11, 58, 127
1, 1520840, Note_on_c, 2, 50, 127
1, 1520857, Note_off_c, 4, 64, 127
1, 1521047, Note_on_c, 0, 60, 127
1, 1521063, Note_off_c, 2, 62, 127
1, 1521249, Note_off_c, 11, 58, 127
1, 1521254, Note_on_c, 11, 58, 127
1, 1521270, Note_off_c, 0, 60, 127
1, 1521460, Note_on_c, 10, 57, 127
1, 1521656, Note_off_c, 2, 50, 127
1, 1521663, Note_off_c, 11, 58, 127
1, 1521667, Note_on_c, 11, 58, 127
1, 1521667, Note_on_c, 2, 50, 127
1, 1521683, Note_off_c, 10, 57, 127
1, 1521874, Note_on_c, 3, 63, 127
1, 1522080, Note_on_c, 2, 62, 127
1, 1522097, Note_off_c, 3, 63, 127
1, 1522287, Note_on_c, 0, 60, 127
1, 1522303, Note_off_c, 2, 62, 127
1, 1522483, Note_off_c, 2, 50, 127
1, 1522483, Note_off_c, 11, 58, 127
1, 1522487, Note_off_c, 0, 60, 127
1, 1522494, Note_on_c, 11, 58, 127
1, 1522494, Note_on_c, 0, 60, 127
1, 1522494, Note_on_c, 2, 50, 127
1, 1522701, Note_on_c, 10, 57, 127
1, 1522717, Note_off_c, 11, 58, 127
1, 1522907, Note_on_c, 7, 55, 127
1, 1522924, Note_off_c, 10, 57, 127
1, 1523114, Note_on_c, 6, 54, 127
1, 1523130, Note_off_c, 7, 55, 127
1, 1523310, Note_off_c, 2, 50, 127
1, 1523318, Note_off_c, 6, 54, 127
1, 1523321, Note_on_c, 6, 54, 127
1, 1523321, Note_on_c, 7, 55, 127
1, 1524130, Note_off_c, 0, 60, 127
1, 1524136, Note_off_c, 7, 55, 127
1, 1524148, Note_on_c, 7, 55, 127
1, 1524148, Note_on_c, 11, 58, 127
1, 1524159, Note_off_c, 6, 54, 127
1, 1524555, Note_off_c, 11, 58, 127
1, 1524562, Note_on_c, 10, 57, 127
1, 1524969, Note_off_c, 10, 57, 127
1, 1524975, Note_on_c, 11, 58, 127
1, 1525390, Note_on_c, 6, 54, 127
1, 1525784, Note_off_c, 7, 55, 127
1, 1525792, Note_off_c, 11, 58, 127
1, 1525797, Note_off_c, 6, 54, 127
1, 1525803, Note_on_c, 7, 55, 127
1, 1526277, Note_on_c, 2, 50, 127
1, 1526528, Note_off_c, 7, 55, 127
1, 1526787, Note_off_c, 2, 50, 127
1, 1526825, Note_on_c, 7, 43, 127
1, 1530825, Note_off_c, 7, 43, 127
1, 1532486, Note_on_c, 12, 71, 127
1, 1532486, Note_on_c, 7, 67, 127
1, 1532486, Note_on_c, 7, 55, 127
1, 1532578, Note_off_c, 7, 55, 127
1, 1532580, Note_on_c, 10, 57, 127
1, 1532672, Note_off_c, 10, 57, 127
1, 1532675, Note_on_c, 7, 55, 127
1, 1532767, Note_off_c, 7, 55, 127
1, 1532769, Note_on_c, 2, 50, 127
1, 1532861, Note_off_c, 2, 50, 127
1, 1532863, Note_on_c, 4, 52, 127
1, 1532955, Note_off_c, 4, 52, 127
1, 1532958, Note_on_c, 6, 54, 127
1, 1533045, Note_off_c, 7, 67, 127
1, 1533045, Note_off_c, 12, 71, 127
1, 1533050, Note_off_c, 6, 54, 127
1, 1533052, Note_on_c, 12, 71, 127
1, 1533052, Note_on_c, 2, 62, 127
1, 1533052, Note_on_c, 7, 55, 127
1, 1533144, Note_off_c, 7, 55, 127
1, 1533146, Note_on_c, 6, 54, 127
1, 1533238, Note_off_c, 6, 54, 127
1, 1533241, Note_on_c, 7, 55, 127
1, 1533333, Note_off_c, 7, 55, 127
1, 1533335, Note_on_c, 10, 57, 127
1, 1533427, Note_off_c, 10, 57, 127
1, 1533429, Note_on_c, 7, 55, 127
1, 1533521, Note_off_c, 7, 55, 127
1, 1533524, Note_on_c, 10, 57, 127
1, 1533611, Note_off_c, 2, 62, 127
1, 1533611, Note_off_c, 12, 71, 127
1, 1533616, Note_off_c, 10, 57, 127
1, 1533618, Note_on_c, 12, 59, 127
1, 1533710, Note_off_c, 12, 59, 127
1, 1533712, Note_on_c, 10, 57, 127
1, 1533804, Note_off_c, 10, 57, 127
1, 1533807, Note_on_c, 12, 59, 127
1, 1533899, Note_off_c, 12, 59, 127
1, 1533901, Note_on_c, 12, 71, 127
1, 1533901, Note_on_c, 7, 67, 127
1, 1533901, Note_on_c, 1, 61, 127
1, 1533993, Note_off_c, 1, 61, 127
1, 1533995, Note_on_c, 12, 59, 127
1, 1534087, Note_off_c, 12, 59, 127
1, 1534090, Note_on_c, 1, 61, 127
1, 1534180, Note_off_c, 7, 67, 127
1, 1534180, Note_off_c, 12, 71, 127
1, 1534182, Note_off_c, 1, 61, 127
1, 1534184, Note_on_c, 10, 69, 127
1, 1534184, Note_on_c, 7, 67, 127
1, 1534184, Note_on_c, 2, 62, 127
1, 1534276, Note_off_c, 2, 62, 127
1, 1534278, Note_on_c, 4, 64, 127
1, 1534370, Note_off_c, 4, 64, 127
1, 1534373, Note_on_c, 2, 62, 127
1, 1534465, Note_off_c, 2, 62, 127
1, 1534467, Note_on_c, 10, 57, 127
1, 1534559, Note_off_c, 10, 57, 127
1, 1534561, Note_on_c, 12, 59, 127
1, 1534652, Note_off_c, 7, 67, 127
1, 1534653, Note_off_c, 12, 59, 127
1, 1534656, Note_on_c, 4, 64, 127
1, 1534656, Note_on_c, 1, 61, 127
1, 1534743, Note_off_c, 10, 69, 127
1, 1534748, Note_off_c, 1, 61, 127
1, 1534748, Note_off_c, 4, 64, 127
1, 1534750, Note_on_c, 10, 69, 127
1, 1534750, Note_on_c, 6, 66, 127
1, 1534750, Note_on_c, 2, 62, 127
1, 1534842, Note_off_c, 2, 62, 127
1, 1534844, Note_on_c, 1, 61, 127
1, 1534936, Note_off_c, 1, 61, 127
1, 1534939, Note_on_c, 2, 62, 127
1, 1535031, Note_off_c, 2, 62, 127
1, 1535033, Note_on_c, 4, 64, 127
1, 1535125, Note_off_c, 4, 64, 127
1, 1535127, Note_on_c, 2, 62, 127
1, 1535219, Note_off_c, 2, 62, 127
1, 1535222, Note_on_c, 4, 64, 127
1, 1535309, Note_off_c, 6, 66, 127
1, 1535309, Note_off_c, 10, 69, 127
1, 1535314, Note_off_c, 4, 64, 127
1, 1535316, Note_on_c, 6, 66, 127
1, 1535408, Note_off_c, 6, 66, 127
1, 1535410, Note_on_c, 4, 64, 127
1, 1535502, Note_off_c, 4, 64, 127
1, 1535505, Note_on_c, 6, 66, 127
1, 1535597, Note_off_c, 6, 66, 127
1, 1535599, Note_on_c, 10, 69, 127
1, 1535599, Note_on_c, 2, 74, 127
1, 1535599, Note_on_c, 7, 67, 127
1, 1535691, Note_off_c, 7, 67, 127
1, 1535693, Note_on_c, 4, 64, 127
1, 1535785, Note_off_c, 4, 64, 127
1, 1535788, Note_on_c, 6, 66, 127
1, 1535878, Note_off_c, 2, 74, 127
1, 1535878, Note_off_c, 10, 69, 127
1, 1535880, Note_off_c, 6, 66, 127
1, 1535882, Note_on_c, 2, 74, 127
1, 1535882, Note_on_c, 12, 71, 127
1, 1535882, Note_on_c, 7, 67, 127
1, 1535974, Note_off_c, 7, 67, 127
1, 1535976, Note_on_c, 10, 69, 127
1, 1536068, Note_off_c, 10, 69, 127
1, 1536071, Note_on_c, 7, 67, 127
1, 1536163, Note_off_c, 7, 67, 127
1, 1536165, Note_on_c, 12, 59, 127
1, 1536257, Note_off_c, 12, 59, 127
1, 1536259, Note_on_c, 4, 64, 127
1, 1536350, Note_off_c, 12, 71, 127
1, 1536351, Note_off_c, 4, 64, 127
1, 1536354, Note_on_c, 7, 67, 127
1, 1536354, Note_on_c, 6, 66, 127
1, 1536441, Note_off_c, 2, 74, 127
1, 1536446, Note_off_c, 6, 66, 127
1, 1536446, Note_off_c, 7, 67, 127
1, 1536448, Note_on_c, 4, 64, 127
1, 1536448, Note_on_c, 1, 73, 127
1, 1536448, Note_on_c, 7, 67, 127
1, 1536540, Note_off_c, 7, 67, 127
1, 1536542, Note_on_c, 6, 66, 127
1, 1536634, Note_off_c, 6, 66, 127
1, 1536637, Note_on_c, 7, 67, 127
1, 1536729, Note_off_c, 7, 67, 127
1, 1536731, Note_on_c, 10, 69, 127
1, 1536823, Note_off_c, 10, 69, 127
1, 1536826, Note_on_c, 7, 67, 127
1, 1536918, Note_off_c, 7, 67, 127
1, 1536920, Note_on_c, 10, 69, 127
1, 1537007, Note_off_c, 1, 73, 127
1, 1537007, Note_off_c, 4, 64, 127
1, 1537012, Note_off_c, 10, 69, 127
1, 1537014, Note_on_c, 12, 71, 127
1, 1537106, Note_off_c, 12, 71, 127
1, 1537109, Note_on_c, 10, 69, 127
1, 1537201, Note_off_c, 10, 69, 127
1, 1537203, Note_on_c, 12, 71, 127
1, 1537295, Note_off_c, 12, 71, 127
1, 1537297, Note_on_c, 10, 57, 127
1, 1537297, Note_on_c, 7, 67, 127
1, 1537297, Note_on_c, 1, 73, 127
1, 1537389, Note_off_c, 1, 73, 127
1, 1537392, Note_on_c, 12, 71, 127
1, 1537484, Note_off_c, 12, 71, 127
1, 1537486, Note_on_c, 1, 73, 127
1, 1537576, Note_off_c, 7, 67, 127
1, 1537576, Note_off_c, 10, 57, 127
1, 1537578, Note_off_c, 1, 73, 127
1, 1537580, Note_on_c, 2, 62, 127
1, 1537580, Note_on_c, 7, 67, 127
1, 1537580, Note_on_c, 2, 74, 127
1, 1537672, Note_off_c, 2, 74, 127
1, 1537675, Note_on_c, 4, 76, 127
1, 1537767, Note_off_c, 4, 76, 127
1, 1537769, Note_on_c, 2, 74, 127
1, 1537861, Note_off_c, 2, 74, 127
1, 1537863, Note_on_c, 10, 69, 127
1, 1537955, Note_off_c, 10, 69, 127
1, 1537958, Note_on_c, 12, 71, 127
1, 1538048, Note_off_c, 7, 67, 127
1, 1538050, Note_off_c, 12, 71, 127
1, 1538052, Note_on_c, 4, 64, 127
1, 1538052, Note_on_c, 1, 73, 127
1, 1538139, Note_off_c, 2, 62, 127
1, 1538144, Note_off_c, 1, 73, 127
1, 1538144, Note_off_c, 4, 64, 127
1, 1538146, Note_on_c, 2, 62, 127
1, 1538146, Note_on_c, 6, 66, 127
1, 1538146, Note_on_c, 2, 74, 127
1, 1538238, Note_off_c, 2, 74, 127
1, 1538241, Note_on_c, 1, 73, 127
1, 1538333, Note_off_c, 1, 73, 127
1, 1538335, Note_on_c, 2, 74, 127
1, 1538427, Note_off_c, 2, 74, 127
1, 1538429, Note_on_c, 4, 76, 127
1, 1538521, Note_off_c, 4, 76, 127
1, 1538524, Note_on_c, 2, 74, 127
1, 1538616, Note_off_c, 2, 74, 127
1, 1538618, Note_on_c, 4, 76, 127
1, 1538705, Note_off_c, 6, 66, 127
1, 1538705, Note_off_c, 2, 62, 127
1, 1538710, Note_off_c, 4, 76, 127
1, 1538712, Note_on_c, 6, 78, 127
1, 1538804, Note_off_c, 6, 78, 127
1, 1538807, Note_on_c, 4, 76, 127
1, 1538899, Note_off_c, 4, 76, 127
1, 1538901, Note_on_c, 6, 78, 127
1, 1538993, Note_off_c, 6, 78, 127
1, 1538995, Note_on_c, 0, 60, 127
1, 1538995, Note_on_c, 10, 69, 127
1, 1538995, Note_on_c, 7, 79, 127
1, 1539087, Note_off_c, 7, 79, 127
1, 1539090, Note_on_c, 4, 76, 127
1, 1539182, Note_off_c, 4, 76, 127
1, 1539184, Note_on_c, 6, 78, 127
1, 1539274, Note_off_c, 10, 69, 127
1, 1539274, Note_off_c, 0, 60, 127
1, 1539276, Note_off_c, 6, 78, 127
1, 1539278, Note_on_c, 12, 59, 127
1, 1539278, Note_on_c, 2, 62, 127
1, 1539278, Note_on_c, 7, 79, 127
1, 1539370, Note_off_c, 7, 79, 127
1, 1539373, Note_on_c, 6, 78, 127
1, 1539465, Note_off_c, 6, 78, 127
1, 1539467, Note_on_c, 7, 79, 127
1, 1539559, Note_off_c, 7, 79, 127
1, 1539561, Note_on_c, 2, 74, 127
1, 1539653, Note_off_c, 2, 74, 127
1, 1539656, Note_on_c, 0, 72, 127
1, 1539746, Note_off_c, 2, 62, 127
1, 1539746, Note_off_c, 12, 59, 127
1, 1539748, Note_off_c, 0, 72, 127
1, 1539750, Note_on_c, 0, 60, 127
1, 1539750, Note_on_c, 4, 64, 127
1, 1539750, Note_on_c, 2, 74, 127
1, 1539842, Note_off_c, 2, 74, 127
1, 1539842, Note_off_c, 4, 64, 127
1, 1539842, Note_off_c, 0, 60, 127
1, 1539844, Note_on_c, 5, 65, 127
1, 1539844, Note_on_c, 2, 62, 127
1, 1539844, Note_on_c, 12, 71, 127
1, 1539936, Note_off_c, 12, 71, 127
1, 1539939, Note_on_c, 7, 67, 127
1, 1540031, Note_off_c, 7, 67, 127
1, 1540033, Note_on_c, 6, 66, 127
1, 1540125, Note_off_c, 6, 66, 127
1, 1540127, Note_on_c, 7, 67, 127
1, 1540219, Note_off_c, 7, 67, 127
1, 1540222, Note_on_c, 12, 71, 127
1, 1540314, Note_off_c, 12, 71, 127
1, 1540316, Note_on_c, 2, 74, 127
1, 1540403, Note_off_c, 2, 62, 127
1, 1540403, Note_off_c, 5, 65, 127
1, 1540408, Note_off_c, 2, 74, 127
1, 1540410, Note_on_c, 5, 77, 127
1, 1540502, Note_off_c, 5, 77, 127
1, 1540505, Note_on_c, 4, 76, 127
1, 1540597, Note_off_c, 4, 76, 127
1, 1540599, Note_on_c, 5, 77, 127
1, 1540691, Note_off_c, 5, 77, 127
1, 1540693, Note_on_c, 7, 55, 127
1, 1540693, Note_on_c, 7, 67, 127
1, 1540693, Note_on_c, 2, 74, 127
1, 1540785, Note_off_c, 2, 74, 127
1, 1540788, Note_on_c, 12, 71, 127
1, 1540880, Note_off_c, 12, 71, 127
1, 1540882, Note_on_c, 2, 74, 127
1, 1540972, Note_off_c, 7, 67, 127
1, 1540972, Note_off_c, 7, 55, 127
1, 1540974, Note_off_c, 2, 74, 127
1, 1540976, Note_on_c, 0, 60, 127
1, 1540976, Note_on_c, 7, 67, 127
1, 1540976, Note_on_c, 4, 76, 127
1, 1541068, Note_off_c, 4, 76, 127
1, 1541071, Note_on_c, 2, 74, 127
1, 1541163, Note_off_c, 2, 74, 127
1, 1541165, Note_on_c, 4, 76, 127
1, 1541257, Note_off_c, 4, 76, 127
1, 1541259, Note_on_c, 0, 72, 127
1, 1541351, Note_off_c, 0, 72, 127
1, 1541354, Note_on_c, 12, 71, 127
1, 1541444, Note_off_c, 7, 67, 127
1, 1541446, Note_off_c, 12, 71, 127
1, 1541448, Note_on_c, 4, 64, 127
1, 1541448, Note_on_c, 0, 72, 127
1, 1541535, Note_off_c, 0, 60, 127
1, 1541540, Note_off_c, 0, 72, 127
1, 1541540, Note_off_c, 4, 64, 127
1, 1541543, Note_on_c, 0, 60, 127
1, 1541543, Note_on_c, 4, 52, 127
1, 1541543, Note_on_c, 7, 67, 127
1, 1541635, Note_off_c, 7, 67, 127
1, 1541637, Note_on_c, 4, 64, 127
1, 1541729, Note_off_c, 4, 64, 127
1, 1541731, Note_on_c, 2, 62, 127
1, 1541823, Note_off_c, 2, 62, 127
1, 1541826, Note_on_c, 4, 64, 127
1, 1541918, Note_off_c, 4, 64, 127
1, 1541920, Note_on_c, 7, 67, 127
1, 1542012, Note_off_c, 7, 67, 127
1, 1542014, Note_on_c, 0, 72, 127
1, 1542102, Note_off_c, 4, 52, 127
1, 1542102, Note_off_c, 0, 60, 127
1, 1542106, Note_off_c, 0, 72, 127
1, 1542109, Note_on_c, 4, 76, 127
1, 1542201, Note_off_c, 4, 76, 127
1, 1542203, Note_on_c, 2, 74, 127
1, 1542295, Note_off_c, 2, 74, 127
1, 1542297, Note_on_c, 4, 76, 127
1, 1542389, Note_off_c, 4, 76, 127
1, 1542392, Note_on_c, 4, 64, 127
1, 1542392, Note_on_c, 7, 55, 127
1, 1542392, Note_on_c, 0, 72, 127
1, 1542484, Note_off_c, 0, 72, 127
1, 1542486, Note_on_c, 10, 69, 127
1, 1542578, Note_off_c, 10, 69, 127
1, 1542580, Note_on_c, 0, 72, 127
1, 1542671, Note_off_c, 7, 55, 127
1, 1542671, Note_off_c, 4, 64, 127
1, 1542672, Note_off_c, 0, 72, 127
1, 1542675, Note_on_c, 6, 54, 127
1, 1542675, Note_on_c, 10, 57, 127
1, 1542675, Note_on_c, 2, 74, 127
1, 1542767, Note_off_c, 2, 74, 127
1, 1542769, Note_on_c, 0, 72, 127
1, 1542861, Note_off_c, 0, 72, 127
1, 1542863, Note_on_c, 2, 74, 127
1, 1542955, Note_off_c, 2, 74, 127
1, 1542958, Note_on_c, 10, 69, 127
1, 1543050, Note_off_c, 10, 69, 127
1, 1543052, Note_on_c, 7, 67, 127
1, 1543143, Note_off_c, 10, 57, 127
1, 1543143, Note_off_c, 6, 54, 127
1, 1543144, Note_off_c, 7, 67, 127
1, 1543146, Note_on_c, 12, 59, 127
1, 1543146, Note_on_c, 7, 55, 127
1, 1543146, Note_on_c, 10, 69, 127
1, 1543238, Note_off_c, 10, 69, 127
1, 1543238, Note_off_c, 7, 55, 127
1, 1543238, Note_off_c, 12, 59, 127
1, 1543241, Note_on_c, 10, 57, 127
1, 1543241, Note_on_c, 0, 60, 127
1, 1543241, Note_on_c, 6, 66, 127
1, 1543333, Note_off_c, 6, 66, 127
1, 1543335, Note_on_c, 2, 62, 127
1, 1543427, Note_off_c, 2, 62, 127
1, 1543429, Note_on_c, 1, 61, 127
1, 1543521, Note_off_c, 1, 61, 127
1, 1543524, Note_on_c, 2, 62, 127
1, 1543616, Note_off_c, 2, 62, 127
1, 1543618, Note_on_c, 6, 66, 127
1, 1543710, Note_off_c, 6, 66, 127
1, 1543712, Note_on_c, 10, 69, 127
1, 1543800, Note_off_c, 0, 60, 127
1, 1543800, Note_off_c, 10, 57, 127
1, 1543804, Note_off_c, 10, 69, 127
1, 1543807, Note_on_c, 0, 72, 127
1, 1543899, Note_off_c, 0, 72, 127
1, 1543901, Note_on_c, 12, 71, 127
1, 1543993, Note_off_c, 12, 71, 127
1, 1543995, Note_on_c, 0, 72, 127
1, 1544087, Note_off_c, 0, 72, 127
1, 1544090, Note_on_c, 2, 50, 127
1, 1544090, Note_on_c, 2, 62, 127
1, 1544090, Note_on_c, 10, 69, 127
1, 1544182, Note_off_c, 10, 69, 127
1, 1544184, Note_on_c, 6, 66, 127
1, 1544276, Note_off_c, 6, 66, 127
1, 1544278, Note_on_c, 10, 69, 127
1, 1544369, Note_off_c, 2, 62, 127
1, 1544369, Note_off_c, 2, 50, 127
1, 1544370, Note_off_c, 10, 69, 127
1, 1544373, Note_on_c, 2, 62, 127
1, 1544373, Note_on_c, 7, 55, 127
1, 1544373, Note_on_c, 12, 71, 127
1, 1544465, Note_off_c, 12, 71, 127
1, 1544467, Note_on_c, 10, 69, 127
1, 1544559, Note_off_c, 10, 69, 127
1, 1544561, Note_on_c, 12, 71, 127
1, 1544653, Note_off_c, 12, 71, 127
1, 1544656, Note_on_c, 7, 67, 127
1, 1544748, Note_off_c, 7, 67, 127
1, 1544750, Note_on_c, 6, 66, 127
1, 1544841, Note_off_c, 2, 62, 127
1, 1544842, Note_off_c, 6, 66, 127
1, 1544844, Note_on_c, 12, 59, 127
1, 1544844, Note_on_c, 7, 67, 127
1, 1544932, Note_off_c, 7, 55, 127
1, 1544936, Note_off_c, 7, 67, 127
1, 1544936, Note_off_c, 12, 59, 127
1, 1544939, Note_on_c, 7, 55, 127
1, 1544939, Note_on_c, 7, 43, 127
1, 1544939, Note_on_c, 2, 62, 127
1, 1545031, Note_off_c, 2, 62, 127
1, 1545033, Note_on_c, 12, 59, 127
1, 1545125, Note_off_c, 12, 59, 127
1, 1545127, Note_on_c, 10, 57, 127
1, 1545219, Note_off_c, 10, 57, 127
1, 1545222, Note_on_c, 12, 59, 127
1, 1545314, Note_off_c, 12, 59, 127
1, 1545316, Note_on_c, 2, 62, 127
1, 1545408, Note_off_c, 2, 62, 127
1, 1545410, Note_on_c, 7, 67, 127
1, 1545498, Note_off_c, 7, 43, 127
1, 1545498, Note_off_c, 7, 55, 127
1, 1545502, Note_off_c, 7, 67, 127
1, 1545505, Note_on_c, 12, 71, 127
1, 1545597, Note_off_c, 12, 71, 127
1, 1545599, Note_on_c, 7, 67, 127
1, 1545691, Note_off_c, 7, 67, 127
1, 1545693, Note_on_c, 6, 66, 127
1, 1545785, Note_off_c, 6, 66, 127
1, 1545788, Note_on_c, 7, 67, 127
1, 1545880, Note_off_c, 7, 67, 127
1, 1545882, Note_on_c, 12, 71, 127
1, 1545974, Note_off_c, 12, 71, 127
1, 1545976, Note_on_c, 2, 74, 127
1, 1546068, Note_off_c, 2, 74, 127
1, 1546071, Note_on_c, 7, 43, 127
1, 1546071, Note_on_c, 12, 71, 127
1, 1546071, Note_on_c, 7, 79, 127
1, 1546163, Note_off_c, 7, 43, 127
1, 1546165, Note_on_c, 10, 45, 127
1, 1546257, Note_off_c, 10, 45, 127
1, 1546260, Note_on_c, 7, 43, 127
1, 1546352, Note_off_c, 7, 43, 127
1, 1546354, Note_on_c, 2, 38, 127
1, 1546446, Note_off_c, 2, 38, 127
1, 1546448, Note_on_c, 4, 40, 127
1, 1546539, Note_off_c, 7, 79, 127
1, 1546540, Note_off_c, 4, 40, 127
1, 1546543, Note_on_c, 6, 42, 127
1, 1546543, Note_on_c, 6, 78, 127
1, 1546588, Note_off_c, 6, 78, 127
1, 1546589, Note_on_c, 4, 76, 127
1, 1546629, Note_off_c, 12, 71, 127
1, 1546634, Note_off_c, 4, 76, 127
1, 1546634, Note_off_c, 6, 42, 127
1, 1546636, Note_on_c, 7, 43, 127
1, 1546636, Note_on_c, 12, 71, 127
1, 1546636, Note_on_c, 2, 74, 127
1, 1546728, Note_off_c, 7, 43, 127
1, 1546730, Note_on_c, 6, 42, 127
1, 1546822, Note_off_c, 6, 42, 127
1, 1546824, Note_on_c, 7, 43, 127
1, 1546916, Note_off_c, 7, 43, 127
1, 1546919, Note_on_c, 10, 45, 127
1, 1547011, Note_off_c, 10, 45, 127
1, 1547013, Note_on_c, 7, 43, 127
1, 1547105, Note_off_c, 7, 43, 127
1, 1547108, Note_on_c, 10, 45, 127
1, 1547195, Note_off_c, 2, 74, 127
1, 1547195, Note_off_c, 12, 71, 127
1, 1547200, Note_off_c, 10, 45, 127
1, 1547202, Note_on_c, 12, 47, 127
1, 1547294, Note_off_c, 12, 47, 127
1, 1547296, Note_on_c, 10, 45, 127
1, 1547388, Note_off_c, 10, 45, 127
1, 1547391, Note_on_c, 12, 47, 127
1, 1547483, Note_off_c, 12, 47, 127
1, 1547485, Note_on_c, 0, 48, 127
1, 1547485, Note_on_c, 12, 83, 127
1, 1547485, Note_on_c, 7, 79, 127
1, 1547577, Note_off_c, 0, 48, 127
1, 1547579, Note_on_c, 12, 47, 127
1, 1547671, Note_off_c, 12, 47, 127
1, 1547674, Note_on_c, 1, 49, 127
1, 1547764, Note_off_c, 7, 79, 127
1, 1547764, Note_off_c, 12, 83, 127
1, 1547766, Note_off_c, 1, 49, 127
1, 1547768, Note_on_c, 2, 50, 127
1, 1547768, Note_on_c, 10, 81, 127
1, 1547768, Note_on_c, 7, 79, 127
1, 1547860, Note_off_c, 2, 50, 127
1, 1547862, Note_on_c, 4, 52, 127
1, 1547954, Note_off_c, 4, 52, 127
1, 1547957, Note_on_c, 2, 50, 127
1, 1548049, Note_off_c, 2, 50, 127
1, 1548051, Note_on_c, 10, 45, 127
1, 1548143, Note_off_c, 10, 45, 127
1, 1548145, Note_on_c, 12, 47, 127
1, 1548236, Note_off_c, 7, 79, 127
1, 1548237, Note_off_c, 12, 47, 127
1, 1548240, Note_on_c, 1, 49, 127
1, 1548240, Note_on_c, 4, 76, 127
1, 1548327, Note_off_c, 10, 81, 127
1, 1548332, Note_off_c, 4, 76, 127
1, 1548332, Note_off_c, 1, 49, 127
1, 1548334, Note_on_c, 2, 50, 127
1, 1548334, Note_on_c, 10, 81, 127
1, 1548334, Note_on_c, 6, 78, 127
1, 1548426, Note_off_c, 2, 50, 127
1, 1548428, Note_on_c, 1, 49, 127
1, 1548520, Note_off_c, 1, 49, 127
1, 1548523, Note_on_c, 2, 50, 127
1, 1548615, Note_off_c, 2, 50, 127
1, 1548617, Note_on_c, 4, 52, 127
1, 1548709, Note_off_c, 4, 52, 127
1, 1548711, Note_on_c, 2, 50, 127
1, 1548803, Note_off_c, 2, 50, 127
1, 1548806, Note_on_c, 4, 52, 127
1, 1548893, Note_off_c, 6, 78, 127
1, 1548893, Note_off_c, 10, 81, 127
1, 1548898, Note_off_c, 4, 52, 127
1, 1548900, Note_on_c, 6, 54, 127
1, 1548992, Note_off_c, 6, 54, 127
1, 1548994, Note_on_c, 4, 52, 127
1, 1549086, Note_off_c, 4, 52, 127
1, 1549089, Note_on_c, 6, 54, 127
1, 1549181, Note_off_c, 6, 54, 127
1, 1549183, Note_on_c, 7, 55, 127
1, 1549183, Note_on_c, 0, 72, 127
1, 1549183, Note_on_c, 10, 81, 127
1, 1549275, Note_off_c, 7, 55, 127
1, 1549277, Note_on_c, 4, 52, 127
1, 1549369, Note_off_c, 4, 52, 127
1, 1549372, Note_on_c, 6, 54, 127
1, 1549462, Note_off_c, 10, 81, 127
1, 1549462, Note_off_c, 0, 72, 127
1, 1549464, Note_off_c, 6, 54, 127
1, 1549466, Note_on_c, 7, 55, 127
1, 1549466, Note_on_c, 10, 81, 127
1, 1549466, Note_on_c, 12, 71, 127
1, 1549558, Note_off_c, 7, 55, 127
1, 1549560, Note_on_c, 10, 57, 127
1, 1549652, Note_off_c, 10, 57, 127
1, 1549655, Note_on_c, 7, 55, 127
1, 1549747, Note_off_c, 7, 55, 127
1, 1549749, Note_on_c, 12, 47, 127
1, 1549841, Note_off_c, 12, 47, 127
1, 1549843, Note_on_c, 4, 52, 127
1, 1549934, Note_off_c, 12, 71, 127
1, 1549935, Note_off_c, 4, 52, 127
1, 1549938, Note_on_c, 6, 54, 127
1, 1549938, Note_on_c, 3, 75, 127
1, 1550025, Note_off_c, 10, 81, 127
1, 1550030, Note_off_c, 3, 75, 127
1, 1550030, Note_off_c, 6, 54, 127
1, 1550032, Note_on_c, 7, 55, 127
1, 1550032, Note_on_c, 7, 79, 127
1, 1550032, Note_on_c, 4, 76, 127
1, 1550124, Note_off_c, 7, 55, 127
1, 1550126, Note_on_c, 6, 54, 127
1, 1550218, Note_off_c, 6, 54, 127
1, 1550221, Note_on_c, 7, 55, 127
1, 1550313, Note_off_c, 7, 55, 127
1, 1550315, Note_on_c, 10, 57, 127
1, 1550407, Note_off_c, 10, 57, 127
1, 1550409, Note_on_c, 7, 55, 127
1, 1550501, Note_off_c, 7, 55, 127
1, 1550504, Note_on_c, 10, 57, 127
1, 1550591, Note_off_c, 4, 76, 127
1, 1550591, Note_off_c, 7, 79, 127
1, 1550596, Note_off_c, 10, 57, 127
1, 1550598, Note_on_c, 12, 59, 127
1, 1550690, Note_off_c, 12, 59, 127
1, 1550692, Note_on_c, 10, 57, 127
1, 1550784, Note_off_c, 10, 57, 127
1, 1550787, Note_on_c, 12, 59, 127
1, 1550879, Note_off_c, 12, 59, 127
1, 1550881, Note_on_c, 1, 61, 127
1, 1550881, Note_on_c, 7, 79, 127
1, 1550881, Note_on_c, 4, 76, 127
1, 1550973, Note_off_c, 1, 61, 127
1, 1550975, Note_on_c, 10, 57, 127
1, 1551067, Note_off_c, 10, 57, 127
1, 1551070, Note_on_c, 12, 59, 127
1, 1551160, Note_off_c, 4, 76, 127
1, 1551160, Note_off_c, 7, 79, 127
1, 1551162, Note_off_c, 12, 59, 127
1, 1551164, Note_on_c, 1, 61, 127
1, 1551164, Note_on_c, 7, 79, 127
1, 1551164, Note_on_c, 10, 69, 127
1, 1551256, Note_off_c, 1, 61, 127
1, 1551258, Note_on_c, 2, 62, 127
1, 1551350, Note_off_c, 2, 62, 127
1, 1551353, Note_on_c, 1, 61, 127
1, 1551445, Note_off_c, 1, 61, 127
1, 1551447, Note_on_c, 4, 52, 127
1, 1551539, Note_off_c, 4, 52, 127
1, 1551541, Note_on_c, 10, 57, 127
1, 1551632, Note_off_c, 10, 69, 127
1, 1551632, Note_off_c, 7, 79, 127
1, 1551633, Note_off_c, 10, 57, 127
1, 1551636, Note_on_c, 12, 59, 127
1, 1551636, Note_on_c, 4, 76, 127
1, 1551636, Note_on_c, 1, 73, 127
1, 1551728, Note_off_c, 1, 73, 127
1, 1551728, Note_off_c, 4, 76, 127
1, 1551728, Note_off_c, 12, 59, 127
1, 1551730, Note_on_c, 1, 61, 127
1, 1551730, Note_on_c, 10, 69, 127
1, 1551730, Note_on_c, 4, 64, 127
1, 1551822, Note_off_c, 1, 61, 127
1, 1551825, Note_on_c, 12, 59, 127
1, 1551917, Note_off_c, 12, 59, 127
1, 1551919, Note_on_c, 1, 61, 127
1, 1552011, Note_off_c, 1, 61, 127
1, 1552013, Note_on_c, 2, 62, 127
1, 1552105, Note_off_c, 2, 62, 127
1, 1552108, Note_on_c, 1, 61, 127
1, 1552200, Note_off_c, 1, 61, 127
1, 1552202, Note_on_c, 2, 62, 127
1, 1552289, Note_off_c, 4, 64, 127
1, 1552289, Note_off_c, 10, 69, 127
1, 1552294, Note_off_c, 2, 62, 127
1, 1552296, Note_on_c, 4, 64, 127
1, 1552388, Note_off_c, 4, 64, 127
1, 1552391, Note_on_c, 2, 62, 127
1, 1552483, Note_off_c, 2, 62, 127
1, 1552485, Note_on_c, 4, 64, 127
1, 1552577, Note_off_c, 4, 64, 127
1, 1552579, Note_on_c, 6, 66, 127
1, 1552579, Note_on_c, 7, 79, 127
1, 1552579, Note_on_c, 1, 73, 127
1, 1552671, Note_off_c, 6, 66, 127
1, 1552674, Note_on_c, 2, 62, 127
1, 1552766, Note_off_c, 2, 62, 127
1, 1552768, Note_on_c, 4, 64, 127
1, 1552858, Note_off_c, 1, 73, 127
1, 1552858, Note_off_c, 7, 79, 127
1, 1552860, Note_off_c, 4, 64, 127
1, 1552862, Note_on_c, 6, 66, 127
1, 1552862, Note_on_c, 1, 73, 127
1, 1552862, Note_on_c, 7, 79, 127
1, 1552954, Note_off_c, 6, 66, 127
1, 1552957, Note_on_c, 4, 64, 127
1, 1553049, Note_off_c, 4, 64, 127
1, 1553051, Note_on_c, 6, 66, 127
1, 1553143, Note_off_c, 6, 66, 127
1, 1553145, Note_on_c, 10, 69, 127
1, 1553237, Note_off_c, 10, 69, 127
1, 1553240, Note_on_c, 7, 67, 127
1, 1553330, Note_off_c, 7, 79, 127
1, 1553332, Note_off_c, 7, 67, 127
1, 1553334, Note_on_c, 10, 69, 127
1, 1553334, Note_on_c, 4, 76, 127
1, 1553421, Note_off_c, 1, 73, 127
1, 1553426, Note_off_c, 4, 76, 127
1, 1553426, Note_off_c, 10, 69, 127
1, 1553428, Note_on_c, 2, 62, 127
1, 1553428, Note_on_c, 6, 78, 127
1, 1553428, Note_on_c, 2, 74, 127
1, 1553520, Note_off_c, 2, 62, 127
1, 1553523, Note_on_c, 1, 61, 127
1, 1553615, Note_off_c, 1, 61, 127
1, 1553617, Note_on_c, 2, 62, 127
1, 1553709, Note_off_c, 2, 62, 127
1, 1553711, Note_on_c, 6, 66, 127
1, 1553803, Note_off_c, 6, 66, 127
1, 1553806, Note_on_c, 10, 69, 127
1, 1553898, Note_off_c, 10, 69, 127
1, 1553900, Note_on_c, 12, 71, 127
1, 1553987, Note_off_c, 2, 74, 127
1, 1553987, Note_off_c, 6, 78, 127
1, 1553992, Note_off_c, 12, 71, 127
1, 1553994, Note_on_c, 0, 72, 127
1, 1554086, Note_off_c, 0, 72, 127
1, 1554089, Note_on_c, 12, 71, 127
1, 1554181, Note_off_c, 12, 71, 127
1, 1554183, Note_on_c, 0, 72, 127
1, 1554275, Note_off_c, 0, 72, 127
1, 1554277, Note_on_c, 10, 69, 127
1, 1554277, Note_on_c, 2, 74, 127
1, 1554277, Note_on_c, 10, 81, 127
1, 1554369, Note_off_c, 10, 69, 127
1, 1554372, Note_on_c, 6, 66, 127
1, 1554464, Note_off_c, 6, 66, 127
1, 1554466, Note_on_c, 10, 69, 127
1, 1554556, Note_off_c, 10, 81, 127
1, 1554556, Note_off_c, 2, 74, 127
1, 1554558, Note_off_c, 10, 69, 127
1, 1554560, Note_on_c, 7, 67, 127
1, 1554560, Note_on_c, 12, 83, 127
1, 1554560, Note_on_c, 2, 74, 127
1, 1554652, Note_off_c, 7, 67, 127
1, 1554655, Note_on_c, 6, 66, 127
1, 1554747, Note_off_c, 6, 66, 127
1, 1554749, Note_on_c, 7, 67, 127
1, 1554841, Note_off_c, 7, 67, 127
1, 1554843, Note_on_c, 12, 71, 127
1, 1554935, Note_off_c, 12, 71, 127
1, 1554938, Note_on_c, 10, 69, 127
1, 1555028, Note_off_c, 12, 83, 127
1, 1555030, Note_off_c, 10, 69, 127
1, 1555032, Note_on_c, 12, 71, 127
1, 1555032, Note_on_c, 6, 78, 127
1, 1555119, Note_off_c, 2, 74, 127
1, 1555124, Note_off_c, 6, 78, 127
1, 1555124, Note_off_c, 12, 71, 127
1, 1555126, Note_on_c, 4, 64, 127
1, 1555126, Note_on_c, 2, 74, 127
1, 1555126, Note_on_c, 7, 79, 127
1, 1555218, Note_off_c, 4, 64, 127
1, 1555221, Note_on_c, 3, 63, 127
1, 1555313, Note_off_c, 3, 63, 127
1, 1555315, Note_on_c, 4, 64, 127
1, 1555407, Note_off_c, 4, 64, 127
1, 1555409, Note_on_c, 7, 67, 127
1, 1555501, Note_off_c, 7, 67, 127
1, 1555504, Note_on_c, 12, 71, 127
1, 1555596, Note_off_c, 12, 71, 127
1, 1555598, Note_on_c, 1, 73, 127
1, 1555685, Note_off_c, 7, 79, 127
1, 1555685, Note_off_c, 2, 74, 127
1, 1555690, Note_off_c, 1, 73, 127
1, 1555692, Note_on_c, 2, 74, 127
1, 1555784, Note_off_c, 2, 74, 127
1, 1555787, Note_on_c, 1, 73, 127
1, 1555879, Note_off_c, 1, 73, 127
1, 1555881, Note_on_c, 2, 74, 127
1, 1555973, Note_off_c, 2, 74, 127
1, 1555975, Note_on_c, 12, 71, 127
1, 1555975, Note_on_c, 7, 79, 127
1, 1555975, Note_on_c, 4, 76, 127
1, 1556067, Note_off_c, 12, 71, 127
1, 1556070, Note_on_c, 7, 67, 127
1, 1556162, Note_off_c, 7, 67, 127
1, 1556164, Note_on_c, 12, 71, 127
1, 1556254, Note_off_c, 4, 76, 127
1, 1556254, Note_off_c, 7, 79, 127
1, 1556256, Note_off_c, 12, 71, 127
1, 1556258, Note_on_c, 1, 73, 127
1, 1556258, Note_on_c, 7, 79, 127
1, 1556258, Note_on_c, 10, 69, 127
1, 1556350, Note_off_c, 1, 73, 127
1, 1556353, Note_on_c, 12, 71, 127
1, 1556445, Note_off_c, 12, 71, 127
1, 1556447, Note_on_c, 1, 73, 127
1, 1556539, Note_off_c, 1, 73, 127
1, 1556542, Note_on_c, 4, 76, 127
1, 1556634, Note_off_c, 4, 76, 127
1, 1556636, Note_on_c, 2, 74, 127
1, 1556636, Note_on_c, 7, 67, 127
1, 1556726, Note_off_c, 10, 69, 127
1, 1556726, Note_off_c, 7, 79, 127
1, 1556728, Note_off_c, 7, 67, 127
1, 1556728, Note_off_c, 2, 74, 127
1, 1556730, Note_on_c, 4, 76, 127
1, 1556730, Note_on_c, 6, 66, 127
1, 1556822, Note_off_c, 6, 66, 127
1, 1556822, Note_off_c, 4, 76, 127
1, 1556825, Note_on_c, 10, 69, 127
1, 1556825, Note_on_c, 1, 73, 127
1, 1556825, Note_on_c, 4, 64, 127
1, 1556917, Note_off_c, 10, 69, 127
1, 1556919, Note_on_c, 8, 68, 127
1, 1557011, Note_off_c, 8, 68, 127
1, 1557013, Note_on_c, 10, 69, 127
1, 1557105, Note_off_c, 10, 69, 127
1, 1557105, Note_off_c, 1, 73, 127
1, 1557108, Note_on_c, 1, 73, 127
1, 1557202, Note_on_c, 4, 76, 127
1, 1557294, Note_off_c, 4, 76, 127
1, 1557296, Note_on_c, 6, 78, 127
1, 1557384, Note_off_c, 4, 64, 127
1, 1557388, Note_off_c, 6, 78, 127
1, 1557388, Note_off_c, 1, 73, 127
1, 1557391, Note_on_c, 7, 79, 127
1, 1557483, Note_off_c, 7, 79, 127
1, 1557485, Note_on_c, 6, 78, 127
1, 1557577, Note_off_c, 6, 78, 127
1, 1557579, Note_on_c, 7, 79, 127
1, 1557671, Note_off_c, 7, 79, 127
1, 1557674, Note_on_c, 4, 76, 127
1, 1557674, Note_on_c, 10, 69, 127
1, 1557674, Note_on_c, 10, 57, 127
1, 1557766, Note_off_c, 4, 76, 127
1, 1557768, Note_on_c, 1, 73, 127
1, 1557860, Note_off_c, 1, 73, 127
1, 1557862, Note_on_c, 4, 76, 127
1, 1557953, Note_off_c, 10, 57, 127
1, 1557953, Note_off_c, 10, 69, 127
1, 1557954, Note_off_c, 4, 76, 127
1, 1557957, Note_on_c, 6, 78, 127
1, 1557957, Note_on_c, 2, 62, 127
1, 1557957, Note_on_c, 10, 69, 127
1, 1558049, Note_off_c, 6, 78, 127
1, 1558051, Note_on_c, 4, 76, 127
1, 1558143, Note_off_c, 4, 76, 127
1, 1558145, Note_on_c, 6, 78, 127
1, 1558237, Note_off_c, 6, 78, 127
1, 1558240, Note_on_c, 10, 81, 127
1, 1558332, Note_off_c, 10, 81, 127
1, 1558334, Note_on_c, 7, 79, 127
1, 1558425, Note_off_c, 10, 69, 127
1, 1558426, Note_off_c, 7, 79, 127
1, 1558428, Note_on_c, 10, 81, 127
1, 1558428, Note_on_c, 4, 64, 127
1, 1558516, Note_off_c, 2, 62, 127
1, 1558520, Note_off_c, 4, 64, 127
1, 1558520, Note_off_c, 10, 81, 127
1, 1558523, Note_on_c, 2, 74, 127
1, 1558523, Note_on_c, 2, 62, 127
1, 1558523, Note_on_c, 6, 66, 127
1, 1558615, Note_off_c, 2, 74, 127
1, 1558617, Note_on_c, 1, 73, 127
1, 1558709, Note_off_c, 1, 73, 127
1, 1558711, Note_on_c, 2, 74, 127
1, 1558803, Note_off_c, 2, 74, 127
1, 1558806, Note_on_c, 6, 78, 127
1, 1558898, Note_off_c, 6, 78, 127
1, 1558900, Note_on_c, 10, 81, 127
1, 1558992, Note_off_c, 10, 81, 127
1, 1558994, Note_on_c, 1, 85, 127
1, 1559082, Note_off_c, 6, 66, 127
1, 1559082, Note_off_c, 2, 62, 127
1, 1559086, Note_off_c, 1, 85, 127
1, 1559089, Note_on_c, 2, 86, 127
1, 1559183, Note_on_c, 10, 81, 127
1, 1559275, Note_off_c, 10, 81, 127
1, 1559277, Note_on_c, 6, 78, 127
1, 1559369, Note_off_c, 6, 78, 127
1, 1559372, Note_on_c, 2, 74, 127
1, 1559464, Note_off_c, 2, 74, 127
1, 1559466, Note_on_c, 10, 69, 127
1, 1559558, Note_off_c, 10, 69, 127
1, 1559560, Note_on_c, 7, 67, 127
1, 1559604, Note_off_c, 2, 86, 127
1, 1559652, Note_off_c, 7, 67, 127
1, 1559655, Note_on_c, 2, 62, 127
1, 1559655, Note_on_c, 6, 66, 127
1, 1559655, Note_on_c, 10, 81, 127
1, 1559747, Note_off_c, 10, 81, 127
1, 1559749, Note_on_c, 7, 79, 127
1, 1559841, Note_off_c, 7, 79, 127
1, 1559843, Note_on_c, 10, 81, 127
1, 1559935, Note_off_c, 10, 81, 127
1, 1559938, Note_on_c, 2, 86, 127
1, 1560030, Note_off_c, 2, 86, 127
1, 1560032, Note_on_c, 0, 84, 127
1, 1560123, Note_off_c, 6, 66, 127
1, 1560124, Note_off_c, 0, 84, 127
1, 1560126, Note_on_c, 4, 64, 127
1, 1560126, Note_on_c, 12, 83, 127
1, 1560214, Note_off_c, 2, 62, 127
1, 1560218, Note_off_c, 12, 83, 127
1, 1560218, Note_off_c, 4, 64, 127
1, 1560221, Note_on_c, 6, 66, 127
1, 1560221, Note_on_c, 0, 60, 127
1, 1560221, Note_on_c, 10, 81, 127
1, 1560313, Note_off_c, 10, 81, 127
1, 1560315, Note_on_c, 12, 83, 127
1, 1560407, Note_off_c, 12, 83, 127
1, 1560409, Note_on_c, 10, 81, 127
1, 1560501, Note_off_c, 10, 81, 127
1, 1560504, Note_on_c, 7, 79, 127
1, 1560596, Note_off_c, 7, 79, 127
1, 1560598, Note_on_c, 10, 81, 127
1, 1560690, Note_off_c, 10, 81, 127
1, 1560692, Note_on_c, 7, 79, 127
1, 1560780, Note_off_c, 0, 60, 127
1, 1560780, Note_off_c, 6, 66, 127
1, 1560784, Note_off_c, 7, 79, 127
1, 1560787, Note_on_c, 6, 78, 127
1, 1560879, Note_off_c, 6, 78, 127
1, 1560881, Note_on_c, 7, 79, 127
1, 1560973, Note_off_c, 7, 79, 127
1, 1560975, Note_on_c, 6, 78, 127
1, 1561067, Note_off_c, 6, 78, 127
1, 1561070, Note_on_c, 2, 62, 127
1, 1561070, Note_on_c, 0, 60, 127
1, 1561070, Note_on_c, 4, 76, 127
1, 1561162, Note_off_c, 4, 76, 127
1, 1561164, Note_on_c, 6, 78, 127
1, 1561256, Note_off_c, 6, 78, 127
1, 1561259, Note_on_c, 4, 76, 127
1, 1561349, Note_off_c, 0, 60, 127
1, 1561349, Note_off_c, 2, 62, 127
1, 1561351, Note_off_c, 4, 76, 127
1, 1561353, Note_on_c, 12, 59, 127
1, 1561353, Note_on_c, 7, 67, 127
1, 1561353, Note_on_c, 2, 74, 127
1, 1561445, Note_off_c, 2, 74, 127
1, 1561447, Note_on_c, 0, 72, 127
1, 1561539, Note_off_c, 0, 72, 127
1, 1561542, Note_on_c, 2, 74, 127
1, 1561634, Note_off_c, 2, 74, 127
1, 1561636, Note_on_c, 7, 79, 127
1, 1561728, Note_off_c, 7, 79, 127
1, 1561730, Note_on_c, 6, 78, 127
1, 1561821, Note_off_c, 7, 67, 127
1, 1561821, Note_off_c, 12, 59, 127
1, 1561822, Note_off_c, 6, 78, 127
1, 1561825, Note_on_c, 2, 62, 127
1, 1561825, Note_on_c, 10, 69, 127
1, 1561825, Note_on_c, 4, 76, 127
1, 1561917, Note_off_c, 4, 76, 127
1, 1561917, Note_off_c, 10, 69, 127
1, 1561917, Note_off_c, 2, 62, 127
1, 1561919, Note_on_c, 12, 71, 127
1, 1561919, Note_on_c, 7, 67, 127
1, 1561919, Note_on_c, 2, 74, 127
1, 1562011, Note_off_c, 2, 74, 127
1, 1562013, Note_on_c, 4, 76, 127
1, 1562105, Note_off_c, 4, 76, 127
1, 1562108, Note_on_c, 2, 74, 127
1, 1562200, Note_off_c, 2, 74, 127
1, 1562202, Note_on_c, 0, 72, 127
1, 1562294, Note_off_c, 0, 72, 127
1, 1562296, Note_on_c, 2, 74, 127
1, 1562388, Note_off_c, 2, 74, 127
1, 1562391, Note_on_c, 0, 72, 127
1, 1562478, Note_off_c, 7, 67, 127
1, 1562478, Note_off_c, 12, 71, 127
1, 1562483, Note_off_c, 0, 72, 127
1, 1562485, Note_on_c, 12, 71, 127
1, 1562577, Note_off_c, 12, 71, 127
1, 1562579, Note_on_c, 0, 72, 127
1, 1562671, Note_off_c, 0, 72, 127
1, 1562674, Note_on_c, 12, 71, 127
1, 1562766, Note_off_c, 12, 71, 127
1, 1562768, Note_on_c, 2, 74, 127
1, 1562768, Note_on_c, 7, 79, 127
1, 1562768, Note_on_c, 10, 69, 127
1, 1562860, Note_off_c, 10, 69, 127
1, 1562862, Note_on_c, 12, 71, 127
1, 1562954, Note_off_c, 12, 71, 127
1, 1562957, Note_on_c, 10, 69, 127
1, 1563047, Note_off_c, 7, 79, 127
1, 1563047, Note_off_c, 2, 74, 127
1, 1563049, Note_off_c, 10, 69, 127
1, 1563051, Note_on_c, 1, 73, 127
1, 1563051, Note_on_c, 4, 76, 127
1, 1563051, Note_on_c, 7, 67, 127
1, 1563143, Note_off_c, 7, 67, 127
1, 1563145, Note_on_c, 6, 66, 127
1, 1563237, Note_off_c, 6, 66, 127
1, 1563240, Note_on_c, 7, 67, 127
1, 1563332, Note_off_c, 7, 67, 127
1, 1563334, Note_on_c, 12, 71, 127
1, 1563426, Note_off_c, 12, 71, 127
1, 1563428, Note_on_c, 10, 69, 127
1, 1563519, Note_off_c, 4, 76, 127
1, 1563520, Note_off_c, 10, 69, 127
1, 1563523, Note_on_c, 12, 83, 127
1, 1563523, Note_on_c, 7, 67, 127
1, 1563610, Note_off_c, 1, 73, 127
1, 1563615, Note_off_c, 7, 67, 127
1, 1563615, Note_off_c, 12, 83, 127
1, 1563617, Note_on_c, 3, 75, 127
1, 1563617, Note_on_c, 10, 81, 127
1, 1563617, Note_on_c, 6, 66, 127
1, 1563709, Note_off_c, 6, 66, 127
1, 1563711, Note_on_c, 7, 67, 127
1, 1563803, Note_off_c, 7, 67, 127
1, 1563806, Note_on_c, 6, 66, 127
1, 1563898, Note_off_c, 6, 66, 127
1, 1563900, Note_on_c, 4, 64, 127
1, 1563992, Note_off_c, 4, 64, 127
1, 1563994, Note_on_c, 6, 66, 127
1, 1564086, Note_off_c, 6, 66, 127
1, 1564089, Note_on_c, 4, 64, 127
1, 1564176, Note_off_c, 10, 81, 127
1, 1564176, Note_off_c, 3, 75, 127
1, 1564181, Note_off_c, 4, 64, 127
1, 1564183, Note_on_c, 3, 63, 127
1, 1564275, Note_off_c, 3, 63, 127
1, 1564277, Note_on_c, 4, 64, 127
1, 1564369, Note_off_c, 4, 64, 127
1, 1564372, Note_on_c, 3, 63, 127
1, 1564464, Note_off_c, 3, 63, 127
1, 1564466, Note_on_c, 4, 76, 127
1, 1564466, Note_on_c, 10, 81, 127
1, 1564466, Note_on_c, 1, 61, 127
1, 1564558, Note_off_c, 1, 61, 127
1, 1564560, Note_on_c, 3, 63, 127
1, 1564652, Note_off_c, 3, 63, 127
1, 1564655, Note_on_c, 1, 61, 127
1, 1564745, Note_off_c, 10, 81, 127
1, 1564745, Note_off_c, 4, 76, 127
1, 1564747, Note_off_c, 1, 61, 127
1, 1564749, Note_on_c, 10, 81, 127
1, 1564749, Note_on_c, 3, 75, 127
1, 1564749, Note_on_c, 12, 59, 127
1, 1564841, Note_off_c, 12, 59, 127
1, 1564843, Note_on_c, 11, 58, 127
1, 1564935, Note_off_c, 11, 58, 127
1, 1564938, Note_on_c, 12, 59, 127
1, 1565030, Note_off_c, 12, 59, 127
1, 1565032, Note_on_c, 4, 64, 127
1, 1565124, Note_off_c, 4, 64, 127
1, 1565126, Note_on_c, 3, 63, 127
1, 1565217, Note_off_c, 10, 81, 127
1, 1565218, Note_off_c, 3, 63, 127
1, 1565221, Note_on_c, 6, 78, 127
1, 1565221, Note_on_c, 1, 61, 127
1, 1565308, Note_off_c, 3, 75, 127
1, 1565313, Note_off_c, 1, 61, 127
1, 1565313, Note_off_c, 6, 78, 127
1, 1565315, Note_on_c, 6, 66, 127
1, 1565315, Note_on_c, 3, 75, 127
1, 1565315, Note_on_c, 12, 59, 127
1, 1565407, Note_off_c, 12, 59, 127
1, 1565409, Note_on_c, 0, 60, 127
1, 1565501, Note_off_c, 0, 60, 127
1, 1565504, Note_on_c, 12, 59, 127
1, 1565596, Note_off_c, 12, 59, 127
1, 1565598, Note_on_c, 10, 57, 127
1, 1565690, Note_off_c, 10, 57, 127
1, 1565692, Note_on_c, 12, 59, 127
1, 1565784, Note_off_c, 12, 59, 127
1, 1565787, Note_on_c, 10, 57, 127
1, 1565874, Note_off_c, 3, 75, 127
1, 1565874, Note_off_c, 6, 66, 127
1, 1565879, Note_off_c, 10, 57, 127
1, 1565881, Note_on_c, 7, 55, 127
1, 1565973, Note_off_c, 7, 55, 127
1, 1565976, Note_on_c, 10, 57, 127
1, 1566068, Note_off_c, 10, 57, 127
1, 1566070, Note_on_c, 7, 55, 127
1, 1566162, Note_off_c, 7, 55, 127
1, 1566164, Note_on_c, 3, 75, 127
1, 1566164, Note_on_c, 6, 78, 127
1, 1566164, Note_on_c, 6, 54, 127
1, 1566256, Note_off_c, 6, 54, 127
1, 1566259, Note_on_c, 7, 55, 127
1, 1566351, Note_off_c, 7, 55, 127
1, 1566353, Note_on_c, 6, 54, 127
1, 1566443, Note_off_c, 6, 78, 127
1, 1566443, Note_off_c, 3, 75, 127
1, 1566445, Note_off_c, 6, 54, 127
1, 1566447, Note_on_c, 4, 76, 127
1, 1566447, Note_on_c, 7, 79, 127
1, 1566447, Note_on_c, 4, 52, 127
1, 1566539, Note_off_c, 4, 52, 127
1, 1566542, Note_on_c, 3, 51, 127
1, 1566634, Note_off_c, 3, 51, 127
1, 1566636, Note_on_c, 4, 52, 127
1, 1566728, Note_off_c, 4, 52, 127
1, 1566730, Note_on_c, 12, 59, 127
1, 1566822, Note_off_c, 12, 59, 127
1, 1566825, Note_on_c, 10, 57, 127
1, 1566915, Note_off_c, 7, 79, 127
1, 1566917, Note_off_c, 10, 57, 127
1, 1566919, Note_on_c, 6, 78, 127
1, 1566919, Note_on_c, 12, 59, 127
1, 1567006, Note_off_c, 4, 76, 127
1, 1567011, Note_off_c, 12, 59, 127
1, 1567011, Note_off_c, 6, 78, 127
1, 1567013, Note_on_c, 4, 76, 127
1, 1567013, Note_on_c, 12, 71, 127
1, 1567013, Note_on_c, 7, 55, 127
1, 1567105, Note_off_c, 7, 55, 127
1, 1567108, Note_on_c, 6, 54, 127
1, 1567200, Note_off_c, 6, 54, 127
1, 1567202, Note_on_c, 7, 55, 127
1, 1567294, Note_off_c, 7, 55, 127
1, 1567296, Note_on_c, 12, 59, 127
1, 1567388, Note_off_c, 12, 59, 127
1, 1567391, Note_on_c, 4, 64, 127
1, 1567483, Note_off_c, 4, 64, 127
1, 1567485, Note_on_c, 6, 66, 127
1, 1567572, Note_off_c, 12, 71, 127
1, 1567572, Note_off_c, 4, 76, 127
1, 1567577, Note_off_c, 6, 66, 127
1, 1567579, Note_on_c, 7, 67, 127
1, 1567671, Note_off_c, 7, 67, 127
1, 1567674, Note_on_c, 6, 66, 127
1, 1567766, Note_off_c, 6, 66, 127
1, 1567768, Note_on_c, 7, 67, 127
1, 1567860, Note_off_c, 7, 67, 127
1, 1567862, Note_on_c, 12, 71, 127
1, 1567862, Note_on_c, 7, 79, 127
1, 1567862, Note_on_c, 4, 64, 127
1, 1567954, Note_off_c, 4, 64, 127
1, 1567957, Note_on_c, 3, 63, 127
1, 1568049, Note_off_c, 3, 63, 127
1, 1568051, Note_on_c, 4, 64, 127
1, 1568141, Note_off_c, 7, 79, 127
1, 1568141, Note_off_c, 12, 71, 127
1, 1568143, Note_off_c, 4, 64, 127
1, 1568145, Note_on_c, 7, 79, 127
1, 1568145, Note_on_c, 10, 69, 127
1, 1568145, Note_on_c, 0, 60, 127
1, 1568237, Note_off_c, 0, 60, 127
1, 1568240, Note_on_c, 12, 59, 127
1, 1568332, Note_off_c, 12, 59, 127
1, 1568334, Note_on_c, 0, 60, 127
1, 1568426, Note_off_c, 0, 60, 127
1, 1568428, Note_on_c, 4, 64, 127
1, 1568520, Note_off_c, 4, 64, 127
1, 1568523, Note_on_c, 2, 62, 127
1, 1568613, Note_off_c, 10, 69, 127
1, 1568615, Note_off_c, 2, 62, 127
1, 1568617, Note_on_c, 12, 71, 127
1, 1568617, Note_on_c, 4, 64, 127
1, 1568704, Note_off_c, 7, 79, 127
1, 1568709, Note_off_c, 4, 64, 127
1, 1568709, Note_off_c, 12, 71, 127
1, 1568711, Note_on_c, 5, 77, 127
1, 1568711, Note_on_c, 0, 72, 127
1, 1568711, Note_on_c, 10, 57, 127
1, 1568803, Note_off_c, 10, 57, 127
1, 1568806, Note_on_c, 8, 56, 127
1, 1568898, Note_off_c, 8, 56, 127
1, 1568900, Note_on_c, 10, 57, 127
1, 1568992, Note_off_c, 10, 57, 127
1, 1568994, Note_on_c, 0, 60, 127
1, 1569086, Note_off_c, 0, 60, 127
1, 1569089, Note_on_c, 5, 65, 127
1, 1569181, Note_off_c, 5, 65, 127
1, 1569183, Note_on_c, 10, 69, 127
1, 1569264, Note_off_c, 0, 72, 127
1, 1569270, Note_off_c, 5, 77, 127
1, 1569275, Note_off_c, 10, 69, 127
1, 1569277, Note_on_c, 0, 72, 127
1, 1569369, Note_off_c, 0, 72, 127
1, 1569372, Note_on_c, 12, 71, 127
1, 1569464, Note_off_c, 12, 71, 127
1, 1569466, Note_on_c, 0, 72, 127
1, 1569558, Note_off_c, 0, 72, 127
1, 1569560, Note_on_c, 10, 81, 127
1, 1569560, Note_on_c, 0, 72, 127
1, 1569560, Note_on_c, 10, 69, 127
1, 1569652, Note_off_c, 10, 69, 127
1, 1569655, Note_on_c, 5, 65, 127
1, 1569747, Note_off_c, 5, 65, 127
1, 1569749, Note_on_c, 10, 69, 127
1, 1569839, Note_off_c, 0, 72, 127
1, 1569839, Note_off_c, 10, 81, 127
1, 1569841, Note_off_c, 10, 69, 127
1, 1569843, Note_on_c, 10, 81, 127
1, 1569843, Note_on_c, 12, 71, 127
1, 1569843, Note_on_c, 3, 63, 127
1, 1569935, Note_off_c, 3, 63, 127
1, 1569938, Note_on_c, 1, 61, 127
1, 1570030, Note_off_c, 1, 61, 127
1, 1570032, Note_on_c, 3, 63, 127
1, 1570124, Note_off_c, 3, 63, 127
1, 1570126, Note_on_c, 6, 66, 127
1, 1570218, Note_off_c, 6, 66, 127
1, 1570221, Note_on_c, 4, 64, 127
1, 1570311, Note_off_c, 10, 81, 127
1, 1570313, Note_off_c, 4, 64, 127
1, 1570315, Note_on_c, 6, 78, 127
1, 1570315, Note_on_c, 6, 66, 127
1, 1570402, Note_off_c, 12, 71, 127
1, 1570407, Note_off_c, 6, 66, 127
1, 1570407, Note_off_c, 6, 78, 127
1, 1570409, Note_on_c, 12, 71, 127
1, 1570409, Note_on_c, 3, 75, 127
1, 1570409, Note_on_c, 12, 59, 127
1, 1570501, Note_off_c, 12, 59, 127
1, 1570504, Note_on_c, 11, 58, 127
1, 1570596, Note_off_c, 11, 58, 127
1, 1570598, Note_on_c, 12, 59, 127
1, 1570690, Note_off_c, 12, 59, 127
1, 1570693, Note_on_c, 3, 63, 127
1, 1570785, Note_off_c, 3, 63, 127
1, 1570787, Note_on_c, 6, 66, 127
1, 1570879, Note_off_c, 6, 66, 127
1, 1570881, Note_on_c, 7, 67, 127
1, 1570968, Note_off_c, 3, 75, 127
1, 1570968, Note_off_c, 12, 71, 127
1, 1570973, Note_off_c, 7, 67, 127
1, 1570976, Note_on_c, 10, 69, 127
1, 1571068, Note_off_c, 10, 69, 127
1, 1571070, Note_on_c, 7, 67, 127
1, 1571162, Note_off_c, 7, 67, 127
1, 1571164, Note_on_c, 10, 69, 127
1, 1571255, Note_off_c, 10, 69, 127
1, 1571260, Note_on_c, 6, 78, 127
1, 1571260, Note_on_c, 10, 69, 127
1, 1571260, Note_on_c, 6, 66, 127
1, 1571352, Note_off_c, 6, 66, 127
1, 1571354, Note_on_c, 3, 63, 127
1, 1571446, Note_off_c, 3, 63, 127
1, 1571448, Note_on_c, 6, 66, 127
1, 1571538, Note_off_c, 10, 69, 127
1, 1571539, Note_off_c, 6, 78, 127
1, 1571540, Note_off_c, 6, 66, 127
1, 1571543, Note_on_c, 10, 69, 127
1, 1571543, Note_on_c, 6, 78, 127
1, 1571543, Note_on_c, 7, 67, 127
1, 1571635, Note_off_c, 7, 67, 127
1, 1571637, Note_on_c, 6, 66, 127
1, 1571729, Note_off_c, 6, 66, 127
1, 1571731, Note_on_c, 7, 67, 127
1, 1571823, Note_off_c, 7, 67, 127
1, 1571826, Note_on_c, 12, 71, 127
1, 1571914, Note_off_c, 10, 69, 127
1, 1571918, Note_off_c, 12, 71, 127
1, 1571920, Note_on_c, 10, 69, 127
1, 1572011, Note_off_c, 6, 78, 127
1, 1572012, Note_off_c, 10, 69, 127
1, 1572014, Note_on_c, 6, 66, 127
1, 1572014, Note_on_c, 3, 75, 127
1, 1572014, Note_on_c, 12, 71, 127
1, 1572106, Note_off_c, 12, 71, 127
1, 1572106, Note_off_c, 3, 75, 127
1, 1572106, Note_off_c, 6, 66, 127
1, 1572109, Note_on_c, 4, 76, 127
1, 1572109, Note_on_c, 7, 67, 127
1, 1572109, Note_on_c, 4, 64, 127
1, 1572201, Note_off_c, 4, 64, 127
1, 1572203, Note_on_c, 3, 63, 127
1, 1572295, Note_off_c, 3, 63, 127
1, 1572297, Note_on_c, 4, 64, 127
1, 1572382, Note_off_c, 7, 67, 127
1, 1572389, Note_off_c, 4, 64, 127
1, 1572392, Note_on_c, 7, 67, 127
1, 1572484, Note_off_c, 7, 67, 127
1, 1572486, Note_on_c, 12, 71, 127
1, 1572578, Note_off_c, 12, 71, 127
1, 1572580, Note_on_c, 3, 75, 127
1, 1572668, Note_off_c, 4, 76, 127
1, 1572672, Note_off_c, 3, 75, 127
1, 1572675, Note_on_c, 4, 76, 127
1, 1572767, Note_off_c, 4, 76, 127
1, 1572769, Note_on_c, 4, 52, 127
1, 1572769, Note_on_c, 0, 72, 127
1, 1572861, Note_off_c, 0, 72, 127
1, 1572861, Note_off_c, 4, 52, 127
1, 1572863, Note_on_c, 6, 54, 127
1, 1572863, Note_on_c, 12, 71, 127
1, 1572955, Note_off_c, 12, 71, 127
1, 1572955, Note_off_c, 6, 54, 127
1, 1572958, Note_on_c, 7, 55, 127
1, 1572958, Note_on_c, 10, 69, 127
1, 1573050, Note_off_c, 10, 69, 127
1, 1573050, Note_off_c, 7, 55, 127
1, 1573052, Note_on_c, 10, 57, 127
1, 1573052, Note_on_c, 7, 67, 127
1, 1573144, Note_off_c, 7, 67, 127
1, 1573144, Note_off_c, 10, 57, 127
1, 1573146, Note_on_c, 12, 59, 127
1, 1573146, Note_on_c, 6, 66, 127
1, 1573238, Note_off_c, 6, 66, 127
1, 1573238, Note_off_c, 12, 59, 127
1, 1573241, Note_on_c, 0, 60, 127
1, 1573241, Note_on_c, 4, 64, 127
1, 1573333, Note_off_c, 0, 60, 127
1, 1573335, Note_on_c, 12, 59, 127
1, 1573427, Note_off_c, 12, 59, 127
1, 1573429, Note_on_c, 0, 60, 127
1, 1573521, Note_off_c, 0, 60, 127
1, 1573524, Note_on_c, 5, 65, 127
1, 1573606, Note_off_c, 4, 64, 127
1, 1573616, Note_off_c, 5, 65, 127
1, 1573618, Note_on_c, 4, 64, 127
1, 1573710, Note_off_c, 4, 64, 127
1, 1573712, Note_on_c, 2, 62, 127
1, 1573712, Note_on_c, 8, 68, 127
1, 1573804, Note_off_c, 8, 68, 127
1, 1573804, Note_off_c, 2, 62, 127
1, 1573807, Note_on_c, 0, 60, 127
1, 1573807, Note_on_c, 10, 69, 127
1, 1573899, Note_off_c, 0, 60, 127
1, 1573901, Note_on_c, 2, 62, 127
1, 1573993, Note_off_c, 2, 62, 127
1, 1573995, Note_on_c, 0, 60, 127
1, 1574087, Note_off_c, 0, 60, 127
1, 1574090, Note_on_c, 12, 59, 127
1, 1574182, Note_off_c, 12, 59, 127
1, 1574184, Note_on_c, 0, 60, 127
1, 1574275, Note_off_c, 10, 69, 127
1, 1574276, Note_off_c, 0, 60, 127
1, 1574278, Note_on_c, 12, 59, 127
1, 1574278, Note_on_c, 7, 79, 127
1, 1574278, Note_on_c, 12, 71, 127
1, 1574370, Note_off_c, 12, 71, 127
1, 1574370, Note_off_c, 7, 79, 127
1, 1574370, Note_off_c, 12, 59, 127
1, 1574373, Note_on_c, 10, 57, 127
1, 1574373, Note_on_c, 6, 78, 127
1, 1574373, Note_on_c, 0, 72, 127
1, 1574465, Note_off_c, 10, 57, 127
1, 1574467, Note_on_c, 12, 59, 127
1, 1574559, Note_off_c, 12, 59, 127
1, 1574562, Note_on_c, 10, 57, 127
1, 1574654, Note_off_c, 10, 57, 127
1, 1574656, Note_on_c, 7, 55, 127
1, 1574748, Note_off_c, 7, 55, 127
1, 1574750, Note_on_c, 10, 57, 127
1, 1574841, Note_off_c, 6, 78, 127
1, 1574842, Note_off_c, 10, 57, 127
1, 1574845, Note_on_c, 6, 54, 127
1, 1574845, Note_on_c, 4, 76, 127
1, 1574937, Note_off_c, 4, 76, 127
1, 1574937, Note_off_c, 6, 54, 127
1, 1574939, Note_on_c, 12, 59, 127
1, 1574939, Note_on_c, 2, 74, 127
1, 1575031, Note_off_c, 12, 59, 127
1, 1575033, Note_on_c, 10, 57, 127
1, 1575125, Note_off_c, 10, 57, 127
1, 1575128, Note_on_c, 12, 59, 127
1, 1575220, Note_off_c, 12, 59, 127
1, 1575222, Note_on_c, 4, 64, 127
1, 1575314, Note_off_c, 4, 64, 127
1, 1575316, Note_on_c, 2, 62, 127
1, 1575355, Note_off_c, 0, 72, 127
1, 1575408, Note_off_c, 2, 62, 127
1, 1575411, Note_on_c, 0, 60, 127
1, 1575411, Note_on_c, 6, 66, 127
1, 1575503, Note_off_c, 6, 66, 127
1, 1575503, Note_off_c, 0, 60, 127
1, 1575505, Note_on_c, 12, 59, 127
1, 1575505, Note_on_c, 7, 67, 127
1, 1575597, Note_off_c, 12, 59, 127
1, 1575599, Note_on_c, 0, 60, 127
1, 1575691, Note_off_c, 0, 60, 127
1, 1575694, Note_on_c, 12, 59, 127
1, 1575786, Note_off_c, 12, 59, 127
1, 1575788, Note_on_c, 10, 57, 127
1, 1575880, Note_off_c, 10, 57, 127
1, 1575882, Note_on_c, 12, 59, 127
1, 1575905, Note_off_c, 7, 67, 127
1, 1575921, Note_off_c, 2, 74, 127
1, 1575974, Note_off_c, 12, 59, 127
1, 1575977, Note_on_c, 10, 57, 127
1, 1575977, Note_on_c, 5, 77, 127
1, 1575977, Note_on_c, 10, 69, 127
1, 1576069, Note_off_c, 10, 69, 127
1, 1576069, Note_off_c, 5, 77, 127
1, 1576069, Note_off_c, 10, 57, 127
1, 1576071, Note_on_c, 7, 55, 127
1, 1576071, Note_on_c, 4, 76, 127
1, 1576071, Note_on_c, 12, 71, 127
1, 1576163, Note_off_c, 7, 55, 127
1, 1576165, Note_on_c, 10, 57, 127
1, 1576257, Note_off_c, 10, 57, 127
1, 1576260, Note_on_c, 7, 55, 127
1, 1576352, Note_off_c, 7, 55, 127
1, 1576354, Note_on_c, 6, 54, 127
1, 1576446, Note_off_c, 6, 54, 127
1, 1576448, Note_on_c, 7, 55, 127
1, 1576539, Note_off_c, 4, 76, 127
1, 1576540, Note_off_c, 7, 55, 127
1, 1576543, Note_on_c, 4, 52, 127
1, 1576543, Note_on_c, 2, 74, 127
1, 1576635, Note_off_c, 2, 74, 127
1, 1576635, Note_off_c, 4, 52, 127
1, 1576637, Note_on_c, 10, 57, 127
1, 1576637, Note_on_c, 0, 72, 127
1, 1576729, Note_off_c, 10, 57, 127
1, 1576731, Note_on_c, 7, 55, 127
1, 1576823, Note_off_c, 7, 55, 127
1, 1576826, Note_on_c, 10, 57, 127
1, 1576918, Note_off_c, 10, 57, 127
1, 1576920, Note_on_c, 2, 62, 127
1, 1577012, Note_off_c, 2, 62, 127
1, 1577014, Note_on_c, 0, 60, 127
1, 1577056, Note_off_c, 12, 71, 127
1, 1577106, Note_off_c, 0, 60, 127
1, 1577109, Note_on_c, 12, 59, 127
1, 1577109, Note_on_c, 4, 64, 127
1, 1577201, Note_off_c, 4, 64, 127
1, 1577201, Note_off_c, 12, 59, 127
1, 1577203, Note_on_c, 10, 57, 127
1, 1577203, Note_on_c, 6, 66, 127
1, 1577295, Note_off_c, 10, 57, 127
1, 1577297, Note_on_c, 12, 59, 127
1, 1577389, Note_off_c, 12, 59, 127
1, 1577392, Note_on_c, 10, 57, 127
1, 1577484, Note_off_c, 10, 57, 127
1, 1577486, Note_on_c, 7, 55, 127
1, 1577578, Note_off_c, 7, 55, 127
1, 1577580, Note_on_c, 10, 57, 127
1, 1577671, Note_off_c, 6, 66, 127
1, 1577672, Note_off_c, 10, 57, 127
1, 1577675, Note_on_c, 7, 55, 127
1, 1577675, Note_on_c, 7, 67, 127
1, 1577767, Note_off_c, 7, 67, 127
1, 1577767, Note_off_c, 7, 55, 127
1, 1577769, Note_on_c, 6, 54, 127
1, 1577769, Note_on_c, 10, 69, 127
1, 1577861, Note_off_c, 6, 54, 127
1, 1577863, Note_on_c, 7, 55, 127
1, 1577955, Note_off_c, 7, 55, 127
1, 1577958, Note_on_c, 6, 54, 127
1, 1578050, Note_off_c, 6, 54, 127
1, 1578052, Note_on_c, 4, 52, 127
1, 1578144, Note_off_c, 4, 52, 127
1, 1578146, Note_on_c, 6, 54, 127
1, 1578218, Note_off_c, 0, 72, 127
1, 1578237, Note_off_c, 10, 69, 127
1, 1578238, Note_off_c, 6, 54, 127
1, 1578241, Note_on_c, 4, 52, 127
1, 1578241, Note_on_c, 7, 67, 127
1, 1578241, Note_on_c, 0, 72, 127
1, 1578333, Note_off_c, 0, 72, 127
1, 1578333, Note_off_c, 7, 67, 127
1, 1578333, Note_off_c, 4, 52, 127
1, 1578335, Note_on_c, 2, 50, 127
1, 1578335, Note_on_c, 0, 72, 127
1, 1578335, Note_on_c, 6, 66, 127
1, 1578427, Note_off_c, 6, 66, 127
1, 1578427, Note_off_c, 2, 50, 127
1, 1578429, Note_on_c, 1, 49, 127
1, 1578429, Note_on_c, 7, 67, 127
1, 1578521, Note_off_c, 7, 67, 127
1, 1578521, Note_off_c, 1, 49, 127
1, 1578524, Note_on_c, 2, 50, 127
1, 1578524, Note_on_c, 6, 66, 127
1, 1578614, Note_off_c, 0, 72, 127
1, 1578616, Note_off_c, 6, 66, 127
1, 1578616, Note_off_c, 2, 50, 127
1, 1578618, Note_on_c, 7, 55, 127
1, 1578618, Note_on_c, 1, 61, 127
1, 1578710, Note_off_c, 1, 61, 127
1, 1578710, Note_off_c, 7, 55, 127
1, 1578712, Note_on_c, 6, 54, 127
1, 1578712, Note_on_c, 2, 62, 127
1, 1578804, Note_off_c, 2, 62, 127
1, 1578804, Note_off_c, 6, 54, 127
1, 1578807, Note_on_c, 4, 52, 127
1, 1578807, Note_on_c, 4, 64, 127
1, 1578899, Note_off_c, 4, 64, 127
1, 1578899, Note_off_c, 4, 52, 127
1, 1578901, Note_on_c, 2, 50, 127
1, 1578901, Note_on_c, 6, 66, 127
1, 1578993, Note_off_c, 6, 66, 127
1, 1578993, Note_off_c, 2, 50, 127
1, 1578995, Note_on_c, 4, 52, 127
1, 1578995, Note_on_c, 4, 64, 127
1, 1579087, Note_off_c, 4, 64, 127
1, 1579087, Note_off_c, 4, 52, 127
1, 1579090, Note_on_c, 2, 50, 127
1, 1579090, Note_on_c, 6, 66, 127
1, 1579182, Note_off_c, 6, 66, 127
1, 1579182, Note_off_c, 2, 50, 127
1, 1579184, Note_on_c, 0, 48, 127
1, 1579184, Note_on_c, 7, 67, 127
1, 1579276, Note_off_c, 7, 67, 127
1, 1579276, Note_off_c, 0, 48, 127
1, 1579279, Note_on_c, 2, 50, 127
1, 1579279, Note_on_c, 6, 66, 127
1, 1579371, Note_off_c, 6, 66, 127
1, 1579371, Note_off_c, 2, 50, 127
1, 1579373, Note_on_c, 0, 48, 127
1, 1579373, Note_on_c, 7, 67, 127
1, 1579465, Note_off_c, 7, 67, 127
1, 1579465, Note_off_c, 0, 48, 127
1, 1579467, Note_on_c, 12, 47, 127
1, 1579467, Note_on_c, 6, 66, 127
1, 1579467, Note_on_c, 10, 69, 127
1, 1579559, Note_off_c, 10, 69, 127
1, 1579559, Note_off_c, 12, 47, 127
1, 1579562, Note_on_c, 0, 48, 127
1, 1579562, Note_on_c, 7, 67, 127
1, 1579654, Note_off_c, 7, 67, 127
1, 1579654, Note_off_c, 0, 48, 127
1, 1579656, Note_on_c, 12, 47, 127
1, 1579656, Note_on_c, 10, 69, 127
1, 1579746, Note_off_c, 6, 66, 127
1, 1579748, Note_off_c, 10, 69, 127
1, 1579748, Note_off_c, 12, 47, 127
1, 1579750, Note_on_c, 10, 45, 127
1, 1579750, Note_on_c, 12, 71, 127
1, 1579842, Note_off_c, 12, 71, 127
1, 1579842, Note_off_c, 10, 45, 127
1, 1579845, Note_on_c, 12, 47, 127
1, 1579845, Note_on_c, 7, 67, 127
1, 1579937, Note_off_c, 7, 67, 127
1, 1579937, Note_off_c, 12, 47, 127
1, 1579939, Note_on_c, 10, 45, 127
1, 1579939, Note_on_c, 10, 69, 127
1, 1580031, Note_off_c, 10, 69, 127
1, 1580031, Note_off_c, 10, 45, 127
1, 1580033, Note_on_c, 7, 43, 127
1, 1580033, Note_on_c, 12, 71, 127
1, 1580033, Note_on_c, 7, 67, 127
1, 1580125, Note_off_c, 12, 71, 127
1, 1580125, Note_off_c, 7, 43, 127
1, 1580128, Note_on_c, 6, 42, 127
1, 1580128, Note_on_c, 0, 72, 127
1, 1580220, Note_off_c, 0, 72, 127
1, 1580220, Note_off_c, 6, 42, 127
1, 1580222, Note_on_c, 7, 43, 127
1, 1580222, Note_on_c, 12, 71, 127
1, 1580312, Note_off_c, 7, 67, 127
1, 1580314, Note_off_c, 12, 71, 127
1, 1580314, Note_off_c, 7, 43, 127
1, 1580316, Note_on_c, 0, 48, 127
1, 1580316, Note_on_c, 6, 66, 127
1, 1580408, Note_off_c, 6, 66, 127
1, 1580408, Note_off_c, 0, 48, 127
1, 1580411, Note_on_c, 12, 47, 127
1, 1580411, Note_on_c, 7, 67, 127
1, 1580503, Note_off_c, 7, 67, 127
1, 1580503, Note_off_c, 12, 47, 127
1, 1580505, Note_on_c, 10, 45, 127
1, 1580505, Note_on_c, 10, 69, 127
1, 1580597, Note_off_c, 10, 69, 127
1, 1580597, Note_off_c, 10, 45, 127
1, 1580599, Note_on_c, 7, 43, 127
1, 1580599, Note_on_c, 12, 71, 127
1, 1580691, Note_off_c, 12, 71, 127
1, 1580691, Note_off_c, 7, 43, 127
1, 1580694, Note_on_c, 10, 45, 127
1, 1580694, Note_on_c, 10, 69, 127
1, 1580786, Note_off_c, 10, 69, 127
1, 1580786, Note_off_c, 10, 45, 127
1, 1580788, Note_on_c, 7, 43, 127
1, 1580788, Note_on_c, 12, 71, 127
1, 1580880, Note_off_c, 12, 71, 127
1, 1580880, Note_off_c, 7, 43, 127
1, 1580882, Note_on_c, 5, 41, 127
1, 1580882, Note_on_c, 0, 72, 127
1, 1580974, Note_off_c, 0, 72, 127
1, 1580974, Note_off_c, 5, 41, 127
1, 1580977, Note_on_c, 7, 43, 127
1, 1580977, Note_on_c, 12, 71, 127
1, 1581069, Note_off_c, 12, 71, 127
1, 1581069, Note_off_c, 7, 43, 127
1, 1581071, Note_on_c, 5, 41, 127
1, 1581071, Note_on_c, 0, 72, 127
1, 1581163, Note_off_c, 0, 72, 127
1, 1581163, Note_off_c, 5, 41, 127
1, 1581165, Note_on_c, 4, 40, 127
1, 1581165, Note_on_c, 12, 71, 127
1, 1581165, Note_on_c, 2, 74, 127
1, 1581257, Note_off_c, 2, 74, 127
1, 1581257, Note_off_c, 4, 40, 127
1, 1581260, Note_on_c, 5, 41, 127
1, 1581260, Note_on_c, 0, 72, 127
1, 1581352, Note_off_c, 0, 72, 127
1, 1581352, Note_off_c, 5, 41, 127
1, 1581354, Note_on_c, 4, 40, 127
1, 1581354, Note_on_c, 2, 74, 127
1, 1581444, Note_off_c, 12, 71, 127
1, 1581446, Note_off_c, 2, 74, 127
1, 1581446, Note_off_c, 4, 40, 127
1, 1581448, Note_on_c, 2, 38, 127
1, 1581448, Note_on_c, 4, 76, 127
1, 1581540, Note_off_c, 4, 76, 127
1, 1581540, Note_off_c, 2, 38, 127
1, 1581543, Note_on_c, 4, 40, 127
1, 1581543, Note_on_c, 0, 72, 127
1, 1581635, Note_off_c, 0, 72, 127
1, 1581635, Note_off_c, 4, 40, 127
1, 1581637, Note_on_c, 2, 38, 127
1, 1581637, Note_on_c, 2, 74, 127
1, 1581729, Note_off_c, 2, 74, 127
1, 1581729, Note_off_c, 2, 38, 127
1, 1581731, Note_on_c, 0, 36, 127
1, 1581731, Note_on_c, 4, 76, 127
1, 1581731, Note_on_c, 0, 72, 127
1, 1581823, Note_off_c, 4, 76, 127
1, 1581826, Note_on_c, 5, 77, 127
1, 1581918, Note_off_c, 5, 77, 127
1, 1581920, Note_on_c, 4, 76, 127
1, 1582010, Note_off_c, 0, 72, 127
1, 1582010, Note_off_c, 0, 36, 127
1, 1582012, Note_off_c, 4, 76, 127
1, 1582014, Note_on_c, 7, 43, 127
1, 1582014, Note_on_c, 12, 71, 127
1, 1582106, Note_off_c, 12, 71, 127
1, 1582106, Note_off_c, 7, 43, 127
1, 1582109, Note_on_c, 10, 45, 127
1, 1582109, Note_on_c, 0, 72, 127
1, 1582201, Note_off_c, 0, 72, 127
1, 1582201, Note_off_c, 10, 45, 127
1, 1582203, Note_on_c, 12, 47, 127
1, 1582203, Note_on_c, 2, 74, 127
1, 1582295, Note_off_c, 2, 74, 127
1, 1582295, Note_off_c, 12, 47, 127
1, 1582297, Note_on_c, 0, 48, 127
1, 1582297, Note_on_c, 4, 76, 127
1, 1582389, Note_off_c, 4, 76, 127
1, 1582389, Note_off_c, 0, 48, 127
1, 1582392, Note_on_c, 12, 47, 127
1, 1582392, Note_on_c, 2, 74, 127
1, 1582484, Note_off_c, 2, 74, 127
1, 1582484, Note_off_c, 12, 47, 127
1, 1582486, Note_on_c, 0, 48, 127
1, 1582486, Note_on_c, 4, 76, 127
1, 1582578, Note_off_c, 4, 76, 127
1, 1582578, Note_off_c, 0, 48, 127
1, 1582580, Note_on_c, 2, 50, 127
1, 1582580, Note_on_c, 6, 78, 127
1, 1582672, Note_off_c, 6, 78, 127
1, 1582672, Note_off_c, 2, 50, 127
1, 1582675, Note_on_c, 0, 48, 127
1, 1582675, Note_on_c, 4, 76, 127
1, 1582767, Note_off_c, 4, 76, 127
1, 1582767, Note_off_c, 0, 48, 127
1, 1582769, Note_on_c, 2, 50, 127
1, 1582769, Note_on_c, 6, 78, 127
1, 1582861, Note_off_c, 6, 78, 127
1, 1582861, Note_off_c, 2, 50, 127
1, 1582863, Note_on_c, 4, 52, 127
1, 1582863, Note_on_c, 7, 79, 127
1, 1582955, Note_off_c, 7, 79, 127
1, 1582955, Note_off_c, 4, 52, 127
1, 1582958, Note_on_c, 2, 50, 127
1, 1582958, Note_on_c, 6, 78, 127
1, 1583050, Note_off_c, 6, 78, 127
1, 1583050, Note_off_c, 2, 50, 127
1, 1583052, Note_on_c, 0, 48, 127
1, 1583052, Note_on_c, 7, 79, 127
1, 1583144, Note_off_c, 7, 79, 127
1, 1583144, Note_off_c, 0, 48, 127
1, 1583146, Note_on_c, 12, 47, 127
1, 1583146, Note_on_c, 10, 81, 127
1, 1583238, Note_off_c, 10, 81, 127
1, 1583238, Note_off_c, 12, 47, 127
1, 1583241, Note_on_c, 10, 45, 127
1, 1583241, Note_on_c, 6, 78, 127
1, 1583333, Note_off_c, 6, 78, 127
1, 1583333, Note_off_c, 10, 45, 127
1, 1583335, Note_on_c, 7, 43, 127
1, 1583335, Note_on_c, 7, 79, 127
1, 1583427, Note_off_c, 7, 79, 127
1, 1583427, Note_off_c, 7, 43, 127
1, 1583429, Note_on_c, 6, 42, 127
1, 1583429, Note_on_c, 10, 81, 127
1, 1583521, Note_off_c, 10, 81, 127
1, 1583521, Note_off_c, 6, 42, 127
1, 1583524, Note_on_c, 4, 40, 127
1, 1583524, Note_on_c, 12, 83, 127
1, 1583616, Note_off_c, 12, 83, 127
1, 1583616, Note_off_c, 4, 40, 127
1, 1583618, Note_on_c, 6, 42, 127
1, 1583618, Note_on_c, 10, 81, 127
1, 1583710, Note_off_c, 10, 81, 127
1, 1583710, Note_off_c, 6, 42, 127
1, 1583712, Note_on_c, 2, 38, 127
1, 1583712, Note_on_c, 6, 78, 127
1, 1583804, Note_off_c, 6, 78, 127
1, 1583804, Note_off_c, 2, 38, 127
1, 1583807, Note_on_c, 4, 40, 127
1, 1583807, Note_on_c, 7, 79, 127
1, 1583899, Note_off_c, 7, 79, 127
1, 1583899, Note_off_c, 4, 40, 127
1, 1583901, Note_on_c, 6, 42, 127
1, 1583901, Note_on_c, 10, 81, 127
1, 1583993, Note_off_c, 10, 81, 127
1, 1583993, Note_off_c, 6, 42, 127
1, 1583996, Note_on_c, 7, 43, 127
1, 1583996, Note_on_c, 12, 83, 127
1, 1584088, Note_off_c, 12, 83, 127
1, 1584088, Note_off_c, 7, 43, 127
1, 1584090, Note_on_c, 6, 42, 127
1, 1584090, Note_on_c, 10, 81, 127
1, 1584182, Note_off_c, 10, 81, 127
1, 1584182, Note_off_c, 6, 42, 127
1, 1584184, Note_on_c, 7, 43, 127
1, 1584184, Note_on_c, 12, 83, 127
1, 1584276, Note_off_c, 12, 83, 127
1, 1584276, Note_off_c, 7, 43, 127
1, 1584279, Note_on_c, 10, 45, 127
1, 1584279, Note_on_c, 2, 86, 127
1, 1584371, Note_off_c, 2, 86, 127
1, 1584371, Note_off_c, 10, 45, 127
1, 1584373, Note_on_c, 12, 47, 127
1, 1584373, Note_on_c, 0, 84, 127
1, 1584465, Note_off_c, 0, 84, 127
1, 1584465, Note_off_c, 12, 47, 127
1, 1584467, Note_on_c, 0, 48, 127
1, 1584467, Note_on_c, 12, 83, 127
1, 1584559, Note_off_c, 12, 83, 127
1, 1584559, Note_off_c, 0, 48, 127
1, 1584562, Note_on_c, 2, 50, 127
1, 1584562, Note_on_c, 10, 81, 127
1, 1584654, Note_off_c, 10, 81, 127
1, 1584654, Note_off_c, 2, 50, 127
1, 1584656, Note_on_c, 1, 49, 127
1, 1584656, Note_on_c, 7, 79, 127
1, 1584748, Note_off_c, 7, 79, 127
1, 1584748, Note_off_c, 1, 49, 127
1, 1584750, Note_on_c, 2, 50, 127
1, 1584750, Note_on_c, 6, 78, 127
1, 1584842, Note_off_c, 6, 78, 127
1, 1584842, Note_off_c, 2, 50, 127
1, 1584845, Note_on_c, 4, 52, 127
1, 1584845, Note_on_c, 4, 76, 127
1, 1584937, Note_off_c, 4, 76, 127
1, 1584937, Note_off_c, 4, 52, 127
1, 1584939, Note_on_c, 6, 54, 127
1, 1584939, Note_on_c, 2, 74, 127
1, 1585031, Note_off_c, 2, 74, 127
1, 1585031, Note_off_c, 6, 54, 127
1, 1585033, Note_on_c, 2, 50, 127
1, 1585033, Note_on_c, 0, 72, 127
1, 1585125, Note_off_c, 0, 72, 127
1, 1585125, Note_off_c, 2, 50, 127
1, 1585128, Note_on_c, 7, 55, 127
1, 1585128, Note_on_c, 12, 71, 127
1, 1585222, Note_on_c, 10, 69, 127
1, 1585313, Note_off_c, 7, 55, 127
1, 1585314, Note_off_c, 10, 69, 127
1, 1585316, Note_on_c, 7, 67, 127
1, 1585407, Note_off_c, 12, 71, 127
1, 1585408, Note_off_c, 7, 67, 127
1, 1585411, Note_on_c, 6, 66, 127
1, 1585503, Note_off_c, 6, 66, 127
1, 1585505, Note_on_c, 7, 67, 127
1, 1585597, Note_off_c, 7, 67, 127
1, 1585599, Note_on_c, 2, 62, 127
1, 1585691, Note_off_c, 2, 62, 127
1, 1585694, Note_on_c, 12, 59, 127
1, 1585786, Note_off_c, 12, 59, 127
1, 1585788, Note_on_c, 10, 57, 127
1, 1585880, Note_off_c, 10, 57, 127
1, 1585882, Note_on_c, 7, 55, 127
1, 1585983, Note_on_c, 6, 54, 127
1, 1585984, Note_off_c, 7, 55, 127
1, 1586075, Note_off_c, 6, 54, 127
1, 1586081, Note_on_c, 7, 55, 127
1, 1586198, Note_off_c, 7, 55, 127
1, 1586201, Note_on_c, 2, 50, 127
1, 1586347, Note_off_c, 2, 50, 127
1, 1586394, Note_on_c, 7, 43, 127
1, 1587812, Note_on_c, 7, 55, 127
1, 1587934, Note_off_c, 7, 43, 127
1, 1588092, Note_off_c, 7, 55, 127
1, 1588096, Note_on_c, 10, 57, 127
1, 1588235, Note_off_c, 10, 57, 127
1, 1588238, Note_on_c, 12, 59, 127
1, 1588377, Note_off_c, 12, 59, 127
1, 1588380, Note_on_c, 0, 60, 127
1, 1588519, Note_off_c, 0, 60, 127
1, 1588522, Note_on_c, 2, 62, 127
1, 1588661, Note_off_c, 2, 62, 127
1, 1588664, Note_on_c, 4, 64, 127
1, 1588803, Note_off_c, 4, 64, 127
1, 1588806, Note_on_c, 2, 62, 127
1, 1588945, Note_off_c, 2, 62, 127
1, 1588948, Note_on_c, 0, 60, 127
1, 1589087, Note_off_c, 0, 60, 127
1, 1589090, Note_on_c, 2, 62, 127
1, 1589229, Note_off_c, 2, 62, 127
1, 1589232, Note_on_c, 4, 64, 127
1, 1589512, Note_off_c, 4, 64, 127
1, 1589516, Note_on_c, 10, 69, 127
1, 1589516, Note_on_c, 6, 54, 127
1, 1589796, Note_off_c, 10, 69, 127
1, 1589801, Note_on_c, 12, 71, 127
1, 1589940, Note_off_c, 12, 71, 127
1, 1589943, Note_on_c, 1, 73, 127
1, 1590082, Note_off_c, 1, 73, 127
1, 1590085, Note_on_c, 2, 74, 127
1, 1590224, Note_off_c, 2, 74, 127
1, 1590227, Note_on_c, 4, 76, 127
1, 1590359, Note_off_c, 6, 54, 127
1, 1590366, Note_off_c, 4, 76, 127
1, 1590369, Note_on_c, 6, 78, 127
1, 1590369, Note_on_c, 2, 62, 127
1, 1590508, Note_off_c, 6, 78, 127
1, 1590511, Note_on_c, 4, 76, 127
1, 1590650, Note_off_c, 4, 76, 127
1, 1590653, Note_on_c, 2, 74, 127
1, 1590792, Note_off_c, 2, 74, 127
1, 1590795, Note_on_c, 4, 76, 127
1, 1590934, Note_off_c, 4, 76, 127
1, 1590937, Note_on_c, 6, 78, 127
1, 1591212, Note_off_c, 2, 62, 127
1, 1591217, Note_off_c, 6, 78, 127
1, 1591221, Note_on_c, 7, 67, 127
1, 1591221, Note_on_c, 4, 52, 127
1, 1591501, Note_off_c, 4, 52, 127
1, 1591505, Note_on_c, 6, 54, 127
1, 1591644, Note_off_c, 6, 54, 127
1, 1591647, Note_on_c, 7, 55, 127
1, 1591786, Note_off_c, 7, 55, 127
1, 1591789, Note_on_c, 10, 57, 127
1, 1591928, Note_off_c, 10, 57, 127
1, 1591931, Note_on_c, 12, 59, 127
1, 1592064, Note_off_c, 7, 67, 127
1, 1592070, Note_off_c, 12, 59, 127
1, 1592073, Note_on_c, 4, 76, 127
1, 1592073, Note_on_c, 0, 60, 127
1, 1592212, Note_off_c, 0, 60, 127
1, 1592215, Note_on_c, 2, 62, 127
1, 1592354, Note_off_c, 2, 62, 127
1, 1592357, Note_on_c, 0, 60, 127
1, 1592496, Note_off_c, 0, 60, 127
1, 1592499, Note_on_c, 12, 59, 127
1, 1592638, Note_off_c, 12, 59, 127
1, 1592641, Note_on_c, 0, 60, 127
1, 1592916, Note_off_c, 4, 76, 127
1, 1592921, Note_off_c, 0, 60, 127
1, 1592925, Note_on_c, 6, 66, 127
1, 1592925, Note_on_c, 0, 60, 127
1, 1593205, Note_off_c, 6, 66, 127
1, 1593210, Note_on_c, 7, 67, 127
1, 1593349, Note_off_c, 7, 67, 127
1, 1593352, Note_on_c, 10, 69, 127
1, 1593491, Note_off_c, 10, 69, 127
1, 1593494, Note_on_c, 12, 71, 127
1, 1593633, Note_off_c, 12, 71, 127
1, 1593636, Note_on_c, 0, 72, 127
1, 1593768, Note_off_c, 0, 60, 127
1, 1593775, Note_off_c, 0, 72, 127
1, 1593778, Note_on_c, 2, 74, 127
1, 1593778, Note_on_c, 6, 54, 127
1, 1593917, Note_off_c, 2, 74, 127
1, 1593920, Note_on_c, 4, 76, 127
1, 1594059, Note_off_c, 4, 76, 127
1, 1594062, Note_on_c, 2, 74, 127
1, 1594201, Note_off_c, 2, 74, 127
1, 1594204, Note_on_c, 0, 72, 127
1, 1594343, Note_off_c, 0, 72, 127
1, 1594346, Note_on_c, 2, 74, 127
1, 1594621, Note_off_c, 6, 54, 127
1, 1594626, Note_off_c, 2, 74, 127
1, 1594630, Note_on_c, 2, 74, 127
1, 1594630, Note_on_c, 12, 59, 127
1, 1594769, Note_off_c, 12, 59, 127
1, 1594772, Note_on_c, 0, 60, 127
1, 1594911, Note_off_c, 0, 60, 127
1, 1594914, Note_on_c, 12, 59, 127
1, 1595053, Note_off_c, 12, 59, 127
1, 1595056, Note_on_c, 10, 57, 127
1, 1595195, Note_off_c, 10, 57, 127
1, 1595198, Note_on_c, 7, 55, 127
1, 1595337, Note_off_c, 7, 55, 127
1, 1595340, Note_on_c, 6, 54, 127
1, 1595473, Note_off_c, 2, 74, 127
1, 1595479, Note_off_c, 6, 54, 127
1, 1595482, Note_on_c, 7, 67, 127
1, 1595482, Note_on_c, 4, 52, 127
1, 1595621, Note_off_c, 4, 52, 127
1, 1595624, Note_on_c, 7, 55, 127
1, 1595763, Note_off_c, 7, 55, 127
1, 1595766, Note_on_c, 12, 59, 127
1, 1595905, Note_off_c, 12, 59, 127
1, 1595908, Note_on_c, 2, 62, 127
1, 1596047, Note_off_c, 2, 62, 127
1, 1596050, Note_on_c, 0, 60, 127
1, 1596189, Note_off_c, 0, 60, 127
1, 1596192, Note_on_c, 12, 59, 127
1, 1596325, Note_off_c, 7, 67, 127
1, 1596331, Note_off_c, 12, 59, 127
1, 1596334, Note_on_c, 0, 72, 127
1, 1596334, Note_on_c, 10, 57, 127
1, 1596473, Note_off_c, 10, 57, 127
1, 1596473, Note_off_c, 0, 72, 127
1, 1596476, Note_on_c, 2, 74, 127
1, 1596476, Note_on_c, 12, 59, 127
1, 1596615, Note_off_c, 12, 59, 127
1, 1596615, Note_off_c, 2, 74, 127
1, 1596618, Note_on_c, 0, 72, 127
1, 1596618, Note_on_c, 10, 57, 127
1, 1596757, Note_off_c, 10, 57, 127
1, 1596757, Note_off_c, 0, 72, 127
1, 1596761, Note_on_c, 12, 71, 127
1, 1596761, Note_on_c, 7, 55, 127
1, 1596900, Note_off_c, 7, 55, 127
1, 1596900, Note_off_c, 12, 71, 127
1, 1596903, Note_on_c, 10, 69, 127
1, 1596903, Note_on_c, 6, 54, 127
1, 1597042, Note_off_c, 6, 54, 127
1, 1597042, Note_off_c, 10, 69, 127
1, 1597045, Note_on_c, 7, 67, 127
1, 1597045, Note_on_c, 4, 52, 127
1, 1597184, Note_off_c, 4, 52, 127
1, 1597184, Note_off_c, 7, 67, 127
1, 1597187, Note_on_c, 6, 66, 127
1, 1597187, Note_on_c, 2, 50, 127
1, 1597326, Note_off_c, 2, 50, 127
1, 1597326, Note_off_c, 6, 66, 127
1, 1597329, Note_on_c, 10, 69, 127
1, 1597329, Note_on_c, 6, 54, 127
1, 1597468, Note_off_c, 6, 54, 127
1, 1597468, Note_off_c, 10, 69, 127
1, 1597471, Note_on_c, 0, 72, 127
1, 1597471, Note_on_c, 10, 57, 127
1, 1597610, Note_off_c, 10, 57, 127
1, 1597610, Note_off_c, 0, 72, 127
1, 1597613, Note_on_c, 4, 76, 127
1, 1597613, Note_on_c, 0, 60, 127
1, 1597752, Note_off_c, 0, 60, 127
1, 1597752, Note_off_c, 4, 76, 127
1, 1597755, Note_on_c, 2, 74, 127
1, 1597755, Note_on_c, 12, 59, 127
1, 1597894, Note_off_c, 12, 59, 127
1, 1597894, Note_off_c, 2, 74, 127
1, 1597897, Note_on_c, 0, 72, 127
1, 1597897, Note_on_c, 10, 57, 127
1, 1598036, Note_off_c, 10, 57, 127
1, 1598036, Note_off_c, 0, 72, 127
1, 1598039, Note_on_c, 12, 71, 127
1, 1598039, Note_on_c, 7, 55, 127
1, 1598178, Note_off_c, 12, 71, 127
1, 1598181, Note_on_c, 0, 72, 127
1, 1598319, Note_off_c, 7, 55, 127
1, 1598320, Note_off_c, 0, 72, 127
1, 1598323, Note_on_c, 12, 71, 127
1, 1598323, Note_on_c, 12, 59, 127
1, 1598392, Note_off_c, 12, 59, 127
1, 1598394, Note_on_c, 10, 57, 127
1, 1598462, Note_off_c, 12, 71, 127
1, 1598463, Note_off_c, 10, 57, 127
1, 1598465, Note_on_c, 10, 69, 127
1, 1598465, Note_on_c, 7, 55, 127
1, 1598534, Note_off_c, 7, 55, 127
1, 1598536, Note_on_c, 10, 57, 127
1, 1598604, Note_off_c, 10, 69, 127
1, 1598605, Note_off_c, 10, 57, 127
1, 1598607, Note_on_c, 7, 67, 127
1, 1598607, Note_on_c, 12, 59, 127
1, 1598746, Note_off_c, 7, 67, 127
1, 1598749, Note_on_c, 6, 66, 127
1, 1598887, Note_off_c, 12, 59, 127
1, 1598888, Note_off_c, 6, 66, 127
1, 1598891, Note_on_c, 4, 64, 127
1, 1598891, Note_on_c, 0, 48, 127
1, 1599030, Note_off_c, 4, 64, 127
1, 1599033, Note_on_c, 7, 67, 127
1, 1599171, Note_off_c, 0, 48, 127
1, 1599172, Note_off_c, 7, 67, 127
1, 1599175, Note_on_c, 12, 71, 127
1, 1599175, Note_on_c, 0, 60, 127
1, 1599314, Note_off_c, 12, 71, 127
1, 1599317, Note_on_c, 2, 74, 127
1, 1599456, Note_off_c, 2, 74, 127
1, 1599459, Note_on_c, 0, 72, 127
1, 1599598, Note_off_c, 0, 72, 127
1, 1599601, Note_on_c, 12, 71, 127
1, 1599740, Note_off_c, 12, 71, 127
1, 1599743, Note_on_c, 10, 69, 127
1, 1599879, Note_off_c, 0, 60, 127
1, 1599885, Note_on_c, 4, 64, 127
1, 1600022, Note_off_c, 10, 69, 127
1, 1600023, Note_off_c, 4, 64, 127
1, 1600026, Note_on_c, 0, 72, 127
1, 1600026, Note_on_c, 2, 62, 127
1, 1600095, Note_off_c, 0, 72, 127
1, 1600097, Note_on_c, 12, 71, 127
1, 1600165, Note_off_c, 2, 62, 127
1, 1600166, Note_off_c, 12, 71, 127
1, 1600168, Note_on_c, 10, 69, 127
1, 1600168, Note_on_c, 0, 60, 127
1, 1600237, Note_off_c, 10, 69, 127
1, 1600239, Note_on_c, 12, 71, 127
1, 1600307, Note_off_c, 0, 60, 127
1, 1600308, Note_off_c, 12, 71, 127
1, 1600310, Note_on_c, 0, 72, 127
1, 1600310, Note_on_c, 12, 59, 127
1, 1600449, Note_off_c, 12, 59, 127
1, 1600452, Note_on_c, 10, 57, 127
1, 1600590, Note_off_c, 0, 72, 127
1, 1600591, Note_off_c, 10, 57, 127
1, 1600595, Note_on_c, 2, 62, 127
1, 1600595, Note_on_c, 12, 59, 127
1, 1600734, Note_off_c, 12, 59, 127
1, 1600737, Note_on_c, 0, 60, 127
1, 1600875, Note_off_c, 2, 62, 127
1, 1600876, Note_off_c, 0, 60, 127
1, 1600879, Note_on_c, 2, 74, 127
1, 1600879, Note_on_c, 2, 62, 127
1, 1601018, Note_off_c, 2, 62, 127
1, 1601021, Note_on_c, 12, 59, 127
1, 1601160, Note_off_c, 12, 59, 127
1, 1601163, Note_on_c, 0, 60, 127
1, 1601302, Note_off_c, 0, 60, 127
1, 1601305, Note_on_c, 2, 62, 127
1, 1601444, Note_off_c, 2, 62, 127
1, 1601447, Note_on_c, 7, 55, 127
1, 1601516, Note_off_c, 7, 55, 127
1, 1601518, Note_on_c, 6, 54, 127
1, 1601583, Note_off_c, 2, 74, 127
1, 1601587, Note_off_c, 6, 54, 127
1, 1601589, Note_on_c, 6, 78, 127
1, 1601589, Note_on_c, 7, 55, 127
1, 1601657, Note_off_c, 7, 55, 127
1, 1601659, Note_on_c, 6, 54, 127
1, 1601727, Note_off_c, 6, 78, 127
1, 1601728, Note_off_c, 6, 54, 127
1, 1601730, Note_on_c, 4, 76, 127
1, 1601730, Note_on_c, 7, 55, 127
1, 1601869, Note_off_c, 4, 76, 127
1, 1601872, Note_on_c, 2, 74, 127
1, 1602011, Note_off_c, 2, 74, 127
1, 1602014, Note_on_c, 1, 73, 127
1, 1602153, Note_off_c, 1, 73, 127
1, 1602156, Note_on_c, 12, 71, 127
1, 1602295, Note_off_c, 12, 71, 127
1, 1602298, Note_on_c, 1, 73, 127
1, 1602437, Note_off_c, 1, 73, 127
1, 1602440, Note_on_c, 2, 74, 127
1, 1602579, Note_off_c, 2, 74, 127
1, 1602582, Note_on_c, 4, 76, 127
1, 1602721, Note_off_c, 4, 76, 127
1, 1602724, Note_on_c, 1, 73, 127
1, 1602863, Note_off_c, 1, 73, 127
1, 1602866, Note_on_c, 2, 74, 127
1, 1603005, Note_off_c, 2, 74, 127
1, 1603008, Note_on_c, 4, 76, 127
1, 1603147, Note_off_c, 4, 76, 127
1, 1603150, Note_on_c, 10, 69, 127
1, 1603219, Note_off_c, 10, 69, 127
1, 1603221, Note_on_c, 7, 67, 127
1, 1603239, Note_off_c, 7, 55, 127
1, 1603290, Note_off_c, 7, 67, 127
1, 1603292, Note_on_c, 10, 69, 127
1, 1603292, Note_on_c, 7, 55, 127
1, 1603361, Note_off_c, 10, 69, 127
1, 1603363, Note_on_c, 7, 67, 127
1, 1603431, Note_off_c, 7, 55, 127
1, 1603432, Note_off_c, 7, 67, 127
1, 1603434, Note_on_c, 10, 69, 127
1, 1603434, Note_on_c, 6, 54, 127
1, 1603573, Note_off_c, 6, 54, 127
1, 1603576, Note_on_c, 4, 52, 127
1, 1603715, Note_off_c, 4, 52, 127
1, 1603718, Note_on_c, 2, 50, 127
1, 1603857, Note_off_c, 2, 50, 127
1, 1603860, Note_on_c, 1, 49, 127
1, 1603999, Note_off_c, 1, 49, 127
1, 1604002, Note_on_c, 12, 47, 127
1, 1604141, Note_off_c, 12, 47, 127
1, 1604144, Note_on_c, 1, 49, 127
1, 1604283, Note_off_c, 1, 49, 127
1, 1604287, Note_on_c, 2, 50, 127
1, 1604426, Note_off_c, 2, 50, 127
1, 1604429, Note_on_c, 1, 49, 127
1, 1604568, Note_off_c, 1, 49, 127
1, 1604571, Note_on_c, 2, 50, 127
1, 1604710, Note_off_c, 2, 50, 127
1, 1604713, Note_on_c, 12, 47, 127
1, 1604852, Note_off_c, 12, 47, 127
1, 1604855, Note_on_c, 4, 52, 127
1, 1604974, Note_off_c, 10, 69, 127
1, 1604997, Note_on_c, 10, 69, 127
1, 1605136, Note_off_c, 10, 69, 127
1, 1605139, Note_on_c, 7, 67, 127
1, 1605278, Note_off_c, 7, 67, 127
1, 1605281, Note_on_c, 6, 66, 127
1, 1605420, Note_off_c, 6, 66, 127
1, 1605423, Note_on_c, 4, 64, 127
1, 1605562, Note_off_c, 4, 64, 127
1, 1605565, Note_on_c, 2, 62, 127
1, 1605698, Note_off_c, 4, 52, 127
1, 1605704, Note_off_c, 2, 62, 127
1, 1605707, Note_on_c, 1, 61, 127
1, 1605707, Note_on_c, 10, 45, 127
1, 1605846, Note_off_c, 1, 61, 127
1, 1605849, Note_on_c, 2, 62, 127
1, 1605988, Note_off_c, 2, 62, 127
1, 1605991, Note_on_c, 4, 64, 127
1, 1606130, Note_off_c, 4, 64, 127
1, 1606133, Note_on_c, 2, 62, 127
1, 1606272, Note_off_c, 2, 62, 127
1, 1606275, Note_on_c, 4, 64, 127
1, 1606414, Note_off_c, 4, 64, 127
1, 1606417, Note_on_c, 1, 61, 127
1, 1606550, Note_off_c, 10, 45, 127
1, 1606556, Note_off_c, 1, 61, 127
1, 1606559, Note_on_c, 6, 66, 127
1, 1606559, Note_on_c, 10, 57, 127
1, 1606698, Note_off_c, 10, 57, 127
1, 1606701, Note_on_c, 12, 59, 127
1, 1606840, Note_off_c, 12, 59, 127
1, 1606843, Note_on_c, 10, 57, 127
1, 1606982, Note_off_c, 10, 57, 127
1, 1606985, Note_on_c, 7, 55, 127
1, 1607124, Note_off_c, 7, 55, 127
1, 1607127, Note_on_c, 6, 54, 127
1, 1607266, Note_off_c, 6, 54, 127
1, 1607269, Note_on_c, 4, 52, 127
1, 1607402, Note_off_c, 6, 66, 127
1, 1607408, Note_off_c, 4, 52, 127
1, 1607411, Note_on_c, 12, 59, 127
1, 1607411, Note_on_c, 2, 50, 127
1, 1607550, Note_off_c, 2, 50, 127
1, 1607553, Note_on_c, 6, 54, 127
1, 1607692, Note_off_c, 6, 54, 127
1, 1607695, Note_on_c, 10, 57, 127
1, 1607834, Note_off_c, 10, 57, 127
1, 1607838, Note_on_c, 0, 60, 127
1, 1607970, Note_off_c, 12, 59, 127
1, 1607976, Note_off_c, 0, 60, 127
1, 1607978, Note_on_c, 12, 59, 127
1, 1608121, Note_on_c, 10, 57, 127
1, 1608258, Note_off_c, 12, 59, 127
1, 1608260, Note_off_c, 10, 57, 127
1, 1608263, Note_on_c, 12, 71, 127
1, 1608263, Note_on_c, 7, 55, 127
1, 1608402, Note_off_c, 7, 55, 127
1, 1608402, Note_off_c, 12, 71, 127
1, 1608405, Note_on_c, 0, 72, 127
1, 1608405, Note_on_c, 10, 57, 127
1, 1608544, Note_off_c, 10, 57, 127
1, 1608544, Note_off_c, 0, 72, 127
1, 1608547, Note_on_c, 12, 71, 127
1, 1608547, Note_on_c, 7, 55, 127
1, 1608686, Note_off_c, 7, 55, 127
1, 1608686, Note_off_c, 12, 71, 127
1, 1608689, Note_on_c, 10, 69, 127
1, 1608689, Note_on_c, 6, 54, 127
1, 1608828, Note_off_c, 6, 54, 127
1, 1608828, Note_off_c, 10, 69, 127
1, 1608831, Note_on_c, 7, 67, 127
1, 1608831, Note_on_c, 4, 52, 127
1, 1608970, Note_off_c, 4, 52, 127
1, 1608970, Note_off_c, 7, 67, 127
1, 1608973, Note_on_c, 6, 66, 127
1, 1608973, Note_on_c, 2, 50, 127
1, 1609112, Note_off_c, 2, 50, 127
1, 1609112, Note_off_c, 6, 66, 127
1, 1609115, Note_on_c, 4, 64, 127
1, 1609115, Note_on_c, 1, 49, 127
1, 1609254, Note_off_c, 1, 49, 127
1, 1609254, Note_off_c, 4, 64, 127
1, 1609257, Note_on_c, 7, 67, 127
1, 1609257, Note_on_c, 4, 52, 127
1, 1609396, Note_off_c, 4, 52, 127
1, 1609396, Note_off_c, 7, 67, 127
1, 1609399, Note_on_c, 12, 71, 127
1, 1609399, Note_on_c, 7, 55, 127
1, 1609538, Note_off_c, 7, 55, 127
1, 1609538, Note_off_c, 12, 71, 127
1, 1609541, Note_on_c, 2, 74, 127
1, 1609541, Note_on_c, 12, 59, 127
1, 1609680, Note_off_c, 12, 59, 127
1, 1609680, Note_off_c, 2, 74, 127
1, 1609683, Note_on_c, 1, 73, 127
1, 1609683, Note_on_c, 10, 57, 127
1, 1609822, Note_off_c, 10, 57, 127
1, 1609822, Note_off_c, 1, 73, 127
1, 1609825, Note_on_c, 12, 71, 127
1, 1609825, Note_on_c, 7, 55, 127
1, 1609964, Note_off_c, 7, 55, 127
1, 1609964, Note_off_c, 12, 71, 127
1, 1609967, Note_on_c, 10, 69, 127
1, 1609967, Note_on_c, 6, 54, 127
1, 1610106, Note_off_c, 10, 69, 127
1, 1610109, Note_on_c, 12, 71, 127
1, 1610247, Note_off_c, 6, 54, 127
1, 1610248, Note_off_c, 12, 71, 127
1, 1610251, Note_on_c, 10, 69, 127
1, 1610251, Note_on_c, 10, 57, 127
1, 1610320, Note_off_c, 10, 57, 127
1, 1610322, Note_on_c, 7, 55, 127
1, 1610390, Note_off_c, 10, 69, 127
1, 1610391, Note_off_c, 7, 55, 127
1, 1610393, Note_on_c, 7, 67, 127
1, 1610393, Note_on_c, 6, 54, 127
1, 1610462, Note_off_c, 6, 54, 127
1, 1610464, Note_on_c, 7, 55, 127
1, 1610532, Note_off_c, 7, 67, 127
1, 1610533, Note_off_c, 7, 55, 127
1, 1610535, Note_on_c, 6, 66, 127
1, 1610535, Note_on_c, 10, 57, 127
1, 1610674, Note_off_c, 6, 66, 127
1, 1610677, Note_on_c, 4, 64, 127
1, 1610816, Note_off_c, 4, 64, 127
1, 1610819, Note_on_c, 3, 63, 127
1, 1610958, Note_off_c, 3, 63, 127
1, 1610961, Note_on_c, 6, 66, 127
1, 1611096, Note_off_c, 10, 57, 127
1, 1611100, Note_off_c, 6, 66, 127
1, 1611103, Note_on_c, 10, 69, 127
1, 1611103, Note_on_c, 7, 55, 127
1, 1611242, Note_off_c, 10, 69, 127
1, 1611245, Note_on_c, 0, 72, 127
1, 1611383, Note_off_c, 7, 55, 127
1, 1611384, Note_off_c, 0, 72, 127
1, 1611387, Note_on_c, 12, 71, 127
1, 1611387, Note_on_c, 6, 54, 127
1, 1611526, Note_off_c, 12, 71, 127
1, 1611529, Note_on_c, 10, 69, 127
1, 1611668, Note_off_c, 10, 69, 127
1, 1611672, Note_on_c, 7, 67, 127
1, 1611808, Note_off_c, 6, 54, 127
1, 1611814, Note_on_c, 4, 52, 127
1, 1611952, Note_off_c, 7, 67, 127
1, 1611953, Note_off_c, 4, 52, 127
1, 1611956, Note_on_c, 12, 71, 127
1, 1611956, Note_on_c, 2, 50, 127
1, 1612025, Note_off_c, 12, 71, 127
1, 1612027, Note_on_c, 10, 69, 127
1, 1612095, Note_off_c, 2, 50, 127
1, 1612096, Note_off_c, 10, 69, 127
1, 1612098, Note_on_c, 7, 67, 127
1, 1612098, Note_on_c, 1, 49, 127
1, 1612167, Note_off_c, 7, 67, 127
1, 1612169, Note_on_c, 10, 69, 127
1, 1612237, Note_off_c, 1, 49, 127
1, 1612238, Note_off_c, 10, 69, 127
1, 1612240, Note_on_c, 12, 71, 127
1, 1612240, Note_on_c, 2, 50, 127
1, 1612379, Note_off_c, 2, 50, 127
1, 1612382, Note_on_c, 12, 47, 127
1, 1612521, Note_off_c, 12, 47, 127
1, 1612524, Note_on_c, 2, 50, 127
1, 1612593, Note_off_c, 2, 50, 127
1, 1612595, Note_on_c, 1, 49, 127
1, 1612664, Note_off_c, 1, 49, 127
1, 1612666, Note_on_c, 2, 50, 127
1, 1612735, Note_off_c, 2, 50, 127
1, 1612737, Note_on_c, 1, 49, 127
1, 1612801, Note_off_c, 12, 71, 127
1, 1612806, Note_off_c, 1, 49, 127
1, 1612808, Note_on_c, 10, 69, 127
1, 1612808, Note_on_c, 2, 50, 127
1, 1612877, Note_off_c, 2, 50, 127
1, 1612879, Note_on_c, 1, 49, 127
1, 1612948, Note_off_c, 1, 49, 127
1, 1612950, Note_on_c, 2, 50, 127
1, 1613019, Note_off_c, 2, 50, 127
1, 1613021, Note_on_c, 1, 49, 127
1, 1613088, Note_off_c, 10, 69, 127
1, 1613090, Note_off_c, 1, 49, 127
1, 1613092, Note_on_c, 7, 67, 127
1, 1613092, Note_on_c, 2, 50, 127
1, 1613161, Note_off_c, 2, 50, 127
1, 1613163, Note_on_c, 1, 49, 127
1, 1613232, Note_off_c, 1, 49, 127
1, 1613234, Note_on_c, 12, 47, 127
1, 1613303, Note_off_c, 12, 47, 127
1, 1613305, Note_on_c, 1, 49, 127
1, 1613374, Note_off_c, 1, 49, 127
1, 1613376, Note_on_c, 2, 50, 127
1, 1613513, Note_off_c, 7, 67, 127
1, 1613518, Note_on_c, 6, 66, 127
1, 1613656, Note_off_c, 2, 50, 127
1, 1613657, Note_off_c, 6, 66, 127
1, 1613660, Note_on_c, 4, 64, 127
1, 1613660, Note_on_c, 6, 42, 127
1, 1613799, Note_off_c, 4, 64, 127
1, 1613802, Note_on_c, 2, 62, 127
1, 1613940, Note_off_c, 6, 42, 127
1, 1613941, Note_off_c, 2, 62, 127
1, 1613944, Note_on_c, 4, 64, 127
1, 1613944, Note_on_c, 10, 45, 127
1, 1614083, Note_off_c, 4, 64, 127
1, 1614086, Note_on_c, 1, 61, 127
1, 1614224, Note_off_c, 10, 45, 127
1, 1614225, Note_off_c, 1, 61, 127
1, 1614228, Note_on_c, 2, 62, 127
1, 1614228, Note_on_c, 2, 38, 127
1, 1615023, Note_off_c, 2, 62, 127
1, 1615070, Note_off_c, 2, 38, 127
1, 1615079, Note_on_c, 10, 81, 127
1, 1615359, Note_off_c, 10, 81, 127
1, 1615364, Note_on_c, 7, 79, 127
1, 1615503, Note_off_c, 7, 79, 127
1, 1615506, Note_on_c, 6, 78, 127
1, 1615645, Note_off_c, 6, 78, 127
1, 1615648, Note_on_c, 4, 76, 127
1, 1615787, Note_off_c, 4, 76, 127
1, 1615790, Note_on_c, 2, 74, 127
1, 1615929, Note_off_c, 2, 74, 127
1, 1615932, Note_on_c, 0, 72, 127
1, 1616071, Note_off_c, 0, 72, 127
1, 1616074, Note_on_c, 2, 74, 127
1, 1616213, Note_off_c, 2, 74, 127
1, 1616216, Note_on_c, 4, 76, 127
1, 1616355, Note_off_c, 4, 76, 127
1, 1616358, Note_on_c, 2, 74, 127
1, 1616497, Note_off_c, 2, 74, 127
1, 1616500, Note_on_c, 0, 72, 127
1, 1616639, Note_off_c, 0, 72, 127
1, 1616642, Note_on_c, 10, 81, 127
1, 1616781, Note_off_c, 10, 81, 127
1, 1616784, Note_on_c, 12, 71, 127
1, 1616784, Note_on_c, 7, 67, 127
1, 1617064, Note_off_c, 7, 67, 127
1, 1617068, Note_on_c, 6, 66, 127
1, 1617207, Note_off_c, 6, 66, 127
1, 1617210, Note_on_c, 4, 64, 127
1, 1617349, Note_off_c, 4, 64, 127
1, 1617352, Note_on_c, 2, 62, 127
1, 1617491, Note_off_c, 2, 62, 127
1, 1617494, Note_on_c, 0, 60, 127
1, 1617627, Note_off_c, 12, 71, 127
1, 1617633, Note_off_c, 0, 60, 127
1, 1617636, Note_on_c, 7, 79, 127
1, 1617636, Note_on_c, 12, 59, 127
1, 1617775, Note_off_c, 12, 59, 127
1, 1617778, Note_on_c, 0, 60, 127
1, 1617917, Note_off_c, 0, 60, 127
1, 1617920, Note_on_c, 2, 62, 127
1, 1618059, Note_off_c, 2, 62, 127
1, 1618062, Note_on_c, 0, 60, 127
1, 1618201, Note_off_c, 0, 60, 127
1, 1618204, Note_on_c, 12, 59, 127
1, 1618343, Note_off_c, 12, 59, 127
1, 1618346, Note_on_c, 7, 67, 127
1, 1618479, Note_off_c, 7, 79, 127
1, 1618485, Note_off_c, 7, 67, 127
1, 1618488, Note_on_c, 0, 84, 127
1, 1618488, Note_on_c, 10, 57, 127
1, 1618627, Note_off_c, 0, 84, 127
1, 1618630, Note_on_c, 2, 86, 127
1, 1618769, Note_off_c, 2, 86, 127
1, 1618772, Note_on_c, 0, 84, 127
1, 1618911, Note_off_c, 0, 84, 127
1, 1618915, Note_on_c, 12, 83, 127
1, 1619054, Note_off_c, 12, 83, 127
1, 1619057, Note_on_c, 10, 81, 127
1, 1619196, Note_off_c, 10, 81, 127
1, 1619199, Note_on_c, 7, 79, 127
1, 1619331, Note_off_c, 10, 57, 127
1, 1619338, Note_off_c, 7, 79, 127
1, 1619341, Note_on_c, 10, 81, 127
1, 1619341, Note_on_c, 6, 66, 127
1, 1619480, Note_off_c, 10, 81, 127
1, 1619483, Note_on_c, 12, 83, 127
1, 1619622, Note_off_c, 12, 83, 127
1, 1619625, Note_on_c, 10, 81, 127
1, 1619764, Note_off_c, 10, 81, 127
1, 1619767, Note_on_c, 7, 79, 127
1, 1619906, Note_off_c, 7, 79, 127
1, 1619909, Note_on_c, 6, 78, 127
1, 1620048, Note_off_c, 6, 78, 127
1, 1620051, Note_on_c, 4, 76, 127
1, 1620184, Note_off_c, 6, 66, 127
1, 1620190, Note_off_c, 4, 76, 127
1, 1620193, Note_on_c, 3, 75, 127
1, 1620193, Note_on_c, 12, 71, 127
1, 1620332, Note_off_c, 12, 71, 127
1, 1620335, Note_on_c, 0, 72, 127
1, 1620473, Note_off_c, 3, 75, 127
1, 1620474, Note_off_c, 0, 72, 127
1, 1620477, Note_on_c, 6, 78, 127
1, 1620477, Note_on_c, 12, 71, 127
1, 1620546, Note_off_c, 6, 78, 127
1, 1620548, Note_on_c, 4, 76, 127
1, 1620616, Note_off_c, 12, 71, 127
1, 1620617, Note_off_c, 4, 76, 127
1, 1620619, Note_on_c, 3, 75, 127
1, 1620619, Note_on_c, 10, 69, 127
1, 1620688, Note_off_c, 3, 75, 127
1, 1620690, Note_on_c, 4, 76, 127
1, 1620758, Note_off_c, 10, 69, 127
1, 1620759, Note_off_c, 4, 76, 127
1, 1620761, Note_on_c, 6, 78, 127
1, 1620761, Note_on_c, 7, 67, 127
1, 1620900, Note_off_c, 7, 67, 127
1, 1620903, Note_on_c, 6, 66, 127
1, 1621041, Note_off_c, 6, 78, 127
1, 1621042, Note_off_c, 6, 66, 127
1, 1621045, Note_on_c, 12, 71, 127
1, 1621045, Note_on_c, 7, 67, 127
1, 1621184, Note_off_c, 7, 67, 127
1, 1621187, Note_on_c, 10, 69, 127
1, 1621326, Note_off_c, 10, 69, 127
1, 1621329, Note_on_c, 7, 67, 127
1, 1621468, Note_off_c, 7, 67, 127
1, 1621471, Note_on_c, 6, 66, 127
1, 1621610, Note_off_c, 6, 66, 127
1, 1621613, Note_on_c, 4, 64, 127
1, 1621752, Note_off_c, 4, 64, 127
1, 1621755, Note_on_c, 2, 62, 127
1, 1621894, Note_off_c, 2, 62, 127
1, 1621897, Note_on_c, 0, 60, 127
1, 1622030, Note_off_c, 12, 71, 127
1, 1622039, Note_on_c, 10, 69, 127
1, 1622176, Note_off_c, 0, 60, 127
1, 1622177, Note_off_c, 10, 69, 127
1, 1622180, Note_on_c, 12, 71, 127
1, 1622180, Note_on_c, 4, 64, 127
1, 1622249, Note_off_c, 4, 64, 127
1, 1622251, Note_on_c, 2, 62, 127
1, 1622319, Note_off_c, 12, 71, 127
1, 1622320, Note_off_c, 2, 62, 127
1, 1622322, Note_on_c, 2, 74, 127
1, 1622322, Note_on_c, 0, 60, 127
1, 1622391, Note_off_c, 0, 60, 127
1, 1622393, Note_on_c, 2, 62, 127
1, 1622461, Note_off_c, 2, 74, 127
1, 1622462, Note_off_c, 2, 62, 127
1, 1622464, Note_on_c, 0, 72, 127
1, 1622464, Note_on_c, 4, 64, 127
1, 1622603, Note_off_c, 0, 72, 127
1, 1622606, Note_on_c, 12, 71, 127
1, 1622744, Note_off_c, 4, 64, 127
1, 1622745, Note_off_c, 12, 71, 127
1, 1622749, Note_on_c, 0, 72, 127
1, 1622749, Note_on_c, 10, 57, 127
1, 1622888, Note_off_c, 0, 72, 127
1, 1622891, Note_on_c, 5, 77, 127
1, 1623030, Note_off_c, 5, 77, 127
1, 1623033, Note_on_c, 0, 72, 127
1, 1623172, Note_off_c, 0, 72, 127
1, 1623175, Note_on_c, 10, 69, 127
1, 1623314, Note_off_c, 10, 69, 127
1, 1623317, Note_on_c, 5, 65, 127
1, 1623456, Note_off_c, 5, 65, 127
1, 1623459, Note_on_c, 10, 69, 127
1, 1623598, Note_off_c, 10, 69, 127
1, 1623601, Note_on_c, 3, 63, 127
1, 1623734, Note_off_c, 10, 57, 127
1, 1623740, Note_off_c, 3, 63, 127
1, 1623743, Note_on_c, 4, 64, 127
1, 1623743, Note_on_c, 7, 55, 127
1, 1623881, Note_off_c, 7, 55, 127
1, 1623881, Note_off_c, 4, 64, 127
1, 1623884, Note_on_c, 6, 66, 127
1, 1623884, Note_on_c, 10, 57, 127
1, 1624023, Note_off_c, 10, 57, 127
1, 1624023, Note_off_c, 6, 66, 127
1, 1624026, Note_on_c, 7, 67, 127
1, 1624026, Note_on_c, 0, 60, 127
1, 1624165, Note_off_c, 0, 60, 127
1, 1624165, Note_off_c, 7, 67, 127
1, 1624168, Note_on_c, 10, 69, 127
1, 1624168, Note_on_c, 12, 59, 127
1, 1624307, Note_off_c, 12, 59, 127
1, 1624307, Note_off_c, 10, 69, 127
1, 1624310, Note_on_c, 6, 66, 127
1, 1624310, Note_on_c, 10, 57, 127
1, 1624449, Note_off_c, 10, 57, 127
1, 1624449, Note_off_c, 6, 66, 127
1, 1624452, Note_on_c, 7, 67, 127
1, 1624452, Note_on_c, 12, 59, 127
1, 1624591, Note_off_c, 12, 59, 127
1, 1624594, Note_on_c, 4, 64, 127
1, 1624732, Note_off_c, 7, 67, 127
1, 1624733, Note_off_c, 4, 64, 127
1, 1624736, Note_on_c, 10, 69, 127
1, 1624736, Note_on_c, 12, 59, 127
1, 1624805, Note_off_c, 10, 69, 127
1, 1624807, Note_on_c, 7, 67, 127
1, 1624875, Note_off_c, 12, 59, 127
1, 1624876, Note_off_c, 7, 67, 127
1, 1624878, Note_on_c, 10, 69, 127
1, 1624878, Note_on_c, 7, 55, 127
1, 1624947, Note_off_c, 10, 69, 127
1, 1624949, Note_on_c, 7, 67, 127
1, 1625017, Note_off_c, 7, 55, 127
1, 1625018, Note_off_c, 7, 67, 127
1, 1625020, Note_on_c, 10, 69, 127
1, 1625020, Note_on_c, 4, 52, 127
1, 1625089, Note_off_c, 10, 69, 127
1, 1625091, Note_on_c, 7, 67, 127
1, 1625159, Note_off_c, 4, 52, 127
1, 1625160, Note_off_c, 7, 67, 127
1, 1625162, Note_on_c, 6, 66, 127
1, 1625162, Note_on_c, 7, 55, 127
1, 1625231, Note_off_c, 6, 66, 127
1, 1625233, Note_on_c, 7, 67, 127
1, 1625301, Note_off_c, 7, 55, 127
1, 1625302, Note_off_c, 7, 67, 127
1, 1625304, Note_on_c, 10, 69, 127
1, 1625304, Note_on_c, 1, 49, 127
1, 1625443, Note_off_c, 1, 49, 127
1, 1625443, Note_off_c, 10, 69, 127
1, 1625446, Note_on_c, 12, 71, 127
1, 1625446, Note_on_c, 3, 51, 127
1, 1625585, Note_off_c, 3, 51, 127
1, 1625585, Note_off_c, 12, 71, 127
1, 1625588, Note_on_c, 0, 72, 127
1, 1625588, Note_on_c, 4, 52, 127
1, 1625727, Note_off_c, 4, 52, 127
1, 1625727, Note_off_c, 0, 72, 127
1, 1625730, Note_on_c, 12, 71, 127
1, 1625730, Note_on_c, 7, 55, 127
1, 1625869, Note_off_c, 7, 55, 127
1, 1625869, Note_off_c, 12, 71, 127
1, 1625872, Note_on_c, 10, 69, 127
1, 1625872, Note_on_c, 6, 54, 127
1, 1626011, Note_off_c, 6, 54, 127
1, 1626014, Note_on_c, 4, 52, 127
1, 1626152, Note_off_c, 10, 69, 127
1, 1626153, Note_off_c, 4, 52, 127
1, 1626156, Note_on_c, 12, 71, 127
1, 1626156, Note_on_c, 6, 54, 127
1, 1626295, Note_off_c, 12, 71, 127
1, 1626298, Note_on_c, 0, 72, 127
1, 1626436, Note_off_c, 6, 54, 127
1, 1626437, Note_off_c, 0, 72, 127
1, 1626441, Note_on_c, 12, 71, 127
1, 1626441, Note_on_c, 7, 55, 127
1, 1626510, Note_off_c, 7, 55, 127
1, 1626512, Note_on_c, 6, 54, 127
1, 1626580, Note_off_c, 12, 71, 127
1, 1626581, Note_off_c, 6, 54, 127
1, 1626583, Note_on_c, 10, 69, 127
1, 1626583, Note_on_c, 7, 55, 127
1, 1626652, Note_off_c, 7, 55, 127
1, 1626654, Note_on_c, 6, 54, 127
1, 1626722, Note_off_c, 10, 69, 127
1, 1626723, Note_off_c, 6, 54, 127
1, 1626725, Note_on_c, 12, 71, 127
1, 1626725, Note_on_c, 7, 55, 127
1, 1626794, Note_off_c, 7, 55, 127
1, 1626796, Note_on_c, 6, 54, 127
1, 1626865, Note_off_c, 6, 54, 127
1, 1626867, Note_on_c, 4, 52, 127
1, 1626936, Note_off_c, 4, 52, 127
1, 1626938, Note_on_c, 6, 54, 127
1, 1627007, Note_off_c, 6, 54, 127
1, 1627009, Note_on_c, 7, 55, 127
1, 1627146, Note_off_c, 12, 71, 127
1, 1627148, Note_off_c, 7, 55, 127
1, 1627151, Note_on_c, 6, 66, 127
1, 1627151, Note_on_c, 10, 57, 127
1, 1627290, Note_off_c, 10, 57, 127
1, 1627290, Note_off_c, 6, 66, 127
1, 1627293, Note_on_c, 7, 67, 127
1, 1627293, Note_on_c, 12, 59, 127
1, 1627432, Note_off_c, 12, 59, 127
1, 1627432, Note_off_c, 7, 67, 127
1, 1627435, Note_on_c, 10, 69, 127
1, 1627435, Note_on_c, 10, 57, 127
1, 1627574, Note_off_c, 10, 57, 127
1, 1627574, Note_off_c, 10, 69, 127
1, 1627577, Note_on_c, 12, 71, 127
1, 1627577, Note_on_c, 7, 55, 127
1, 1627716, Note_off_c, 12, 71, 127
1, 1627719, Note_on_c, 0, 72, 127
1, 1627857, Note_off_c, 7, 55, 127
1, 1627858, Note_off_c, 0, 72, 127
1, 1627861, Note_on_c, 2, 74, 127
1, 1627861, Note_on_c, 8, 56, 127
1, 1628000, Note_off_c, 8, 56, 127
1, 1628000, Note_off_c, 2, 74, 127
1, 1628003, Note_on_c, 0, 72, 127
1, 1628003, Note_on_c, 10, 57, 127
1, 1628142, Note_off_c, 10, 57, 127
1, 1628142, Note_off_c, 0, 72, 127
1, 1628145, Note_on_c, 12, 71, 127
1, 1628145, Note_on_c, 8, 56, 127
1, 1628284, Note_off_c, 8, 56, 127
1, 1628284, Note_off_c, 12, 71, 127
1, 1628287, Note_on_c, 10, 69, 127
1, 1628287, Note_on_c, 6, 54, 127
1, 1628426, Note_off_c, 6, 54, 127
1, 1628426, Note_off_c, 10, 69, 127
1, 1628429, Note_on_c, 8, 68, 127
1, 1628429, Note_on_c, 8, 56, 127
1, 1628568, Note_off_c, 8, 68, 127
1, 1628571, Note_on_c, 6, 66, 127
1, 1628710, Note_off_c, 6, 66, 127
1, 1628713, Note_on_c, 4, 64, 127
1, 1628850, Note_off_c, 8, 56, 127
1, 1628852, Note_off_c, 4, 64, 127
1, 1628855, Note_on_c, 8, 68, 127
1, 1628855, Note_on_c, 4, 52, 127
1, 1628994, Note_off_c, 4, 52, 127
1, 1628994, Note_off_c, 8, 68, 127
1, 1628997, Note_on_c, 10, 69, 127
1, 1628997, Note_on_c, 6, 54, 127
1, 1629136, Note_off_c, 6, 54, 127
1, 1629136, Note_off_c, 10, 69, 127
1, 1629139, Note_on_c, 12, 71, 127
1, 1629139, Note_on_c, 8, 56, 127
1, 1629278, Note_off_c, 8, 56, 127
1, 1629278, Note_off_c, 12, 71, 127
1, 1629281, Note_on_c, 0, 72, 127
1, 1629281, Note_on_c, 10, 57, 127
1, 1629420, Note_off_c, 10, 57, 127
1, 1629420, Note_off_c, 0, 72, 127
1, 1629423, Note_on_c, 2, 74, 127
1, 1629423, Note_on_c, 12, 59, 127
1, 1629562, Note_off_c, 12, 59, 127
1, 1629562, Note_off_c, 2, 74, 127
1, 1629565, Note_on_c, 4, 76, 127
1, 1629565, Note_on_c, 0, 60, 127
1, 1629704, Note_off_c, 0, 60, 127
1, 1629704, Note_off_c, 4, 76, 127
1, 1629707, Note_on_c, 2, 74, 127
1, 1629707, Note_on_c, 12, 59, 127
1, 1629846, Note_off_c, 12, 59, 127
1, 1629846, Note_off_c, 2, 74, 127
1, 1629849, Note_on_c, 0, 72, 127
1, 1629849, Note_on_c, 10, 57, 127
1, 1629988, Note_off_c, 10, 57, 127
1, 1629988, Note_off_c, 0, 72, 127
1, 1629992, Note_on_c, 2, 74, 127
1, 1629992, Note_on_c, 7, 55, 127
1, 1630131, Note_off_c, 7, 55, 127
1, 1630131, Note_off_c, 2, 74, 127
1, 1630134, Note_on_c, 4, 76, 127
1, 1630134, Note_on_c, 6, 54, 127
1, 1630273, Note_off_c, 6, 54, 127
1, 1630276, Note_on_c, 4, 52, 127
1, 1630414, Note_off_c, 4, 76, 127
1, 1630415, Note_off_c, 4, 52, 127
1, 1630418, Note_on_c, 10, 69, 127
1, 1630418, Note_on_c, 2, 50, 127
1, 1630557, Note_off_c, 2, 50, 127
1, 1630560, Note_on_c, 6, 54, 127
1, 1630699, Note_off_c, 6, 54, 127
1, 1630702, Note_on_c, 7, 55, 127
1, 1630841, Note_off_c, 7, 55, 127
1, 1630844, Note_on_c, 10, 57, 127
1, 1630983, Note_off_c, 10, 57, 127
1, 1630986, Note_on_c, 12, 59, 127
1, 1631125, Note_off_c, 12, 59, 127
1, 1631128, Note_on_c, 0, 60, 127
1, 1631261, Note_off_c, 10, 69, 127
1, 1631267, Note_off_c, 0, 60, 127
1, 1631270, Note_on_c, 6, 78, 127
1, 1631270, Note_on_c, 2, 62, 127
1, 1631409, Note_off_c, 2, 62, 127
1, 1631412, Note_on_c, 0, 60, 127
1, 1631551, Note_off_c, 0, 60, 127
1, 1631554, Note_on_c, 12, 59, 127
1, 1631693, Note_off_c, 12, 59, 127
1, 1631696, Note_on_c, 0, 60, 127
1, 1631835, Note_off_c, 0, 60, 127
1, 1631838, Note_on_c, 2, 62, 127
1, 1632113, Note_off_c, 6, 78, 127
1, 1632118, Note_off_c, 2, 62, 127
1, 1632122, Note_on_c, 12, 71, 127
1, 1632122, Note_on_c, 7, 55, 127
1, 1632402, Note_off_c, 12, 71, 127
1, 1632406, Note_on_c, 0, 72, 127
1, 1632545, Note_off_c, 0, 72, 127
1, 1632548, Note_on_c, 2, 74, 127
1, 1632687, Note_off_c, 2, 74, 127
1, 1632690, Note_on_c, 4, 76, 127
1, 1632829, Note_off_c, 4, 76, 127
1, 1632832, Note_on_c, 6, 78, 127
1, 1632965, Note_off_c, 7, 55, 127
1, 1632971, Note_off_c, 6, 78, 127
1, 1632974, Note_on_c, 7, 79, 127
1, 1632974, Note_on_c, 4, 64, 127
1, 1633113, Note_off_c, 7, 79, 127
1, 1633116, Note_on_c, 6, 78, 127
1, 1633255, Note_off_c, 6, 78, 127
1, 1633258, Note_on_c, 4, 76, 127
1, 1633397, Note_off_c, 4, 76, 127
1, 1633400, Note_on_c, 6, 78, 127
1, 1633539, Note_off_c, 6, 78, 127
1, 1633543, Note_on_c, 7, 79, 127
1, 1633682, Note_off_c, 7, 79, 127
1, 1633685, Note_on_c, 4, 76, 127
1, 1633817, Note_off_c, 4, 64, 127
1, 1633824, Note_off_c, 4, 76, 127
1, 1633827, Note_on_c, 0, 84, 127
1, 1633827, Note_on_c, 10, 57, 127
1, 1633966, Note_off_c, 0, 84, 127
1, 1633969, Note_on_c, 12, 83, 127
1, 1634107, Note_off_c, 10, 57, 127
1, 1634108, Note_off_c, 12, 83, 127
1, 1634111, Note_on_c, 10, 81, 127
1, 1634111, Note_on_c, 12, 59, 127
1, 1634250, Note_off_c, 12, 59, 127
1, 1634250, Note_off_c, 10, 81, 127
1, 1634253, Note_on_c, 7, 79, 127
1, 1634253, Note_on_c, 0, 60, 127
1, 1634392, Note_off_c, 0, 60, 127
1, 1634392, Note_off_c, 7, 79, 127
1, 1634395, Note_on_c, 6, 78, 127
1, 1634395, Note_on_c, 2, 62, 127
1, 1634534, Note_off_c, 2, 62, 127
1, 1634534, Note_off_c, 6, 78, 127
1, 1634537, Note_on_c, 4, 76, 127
1, 1634537, Note_on_c, 4, 64, 127
1, 1634676, Note_off_c, 4, 64, 127
1, 1634676, Note_off_c, 4, 76, 127
1, 1634679, Note_on_c, 2, 74, 127
1, 1634679, Note_on_c, 6, 66, 127
1, 1634818, Note_off_c, 6, 66, 127
1, 1634821, Note_on_c, 7, 67, 127
1, 1634960, Note_off_c, 7, 67, 127
1, 1634963, Note_on_c, 6, 66, 127
1, 1635102, Note_off_c, 6, 66, 127
1, 1635105, Note_on_c, 4, 64, 127
1, 1635244, Note_off_c, 4, 64, 127
1, 1635247, Note_on_c, 6, 66, 127
1, 1635386, Note_off_c, 6, 66, 127
1, 1635389, Note_on_c, 2, 62, 127
1, 1635528, Note_off_c, 2, 62, 127
1, 1635531, Note_on_c, 12, 71, 127
1, 1635664, Note_off_c, 2, 74, 127
1, 1635670, Note_off_c, 12, 71, 127
1, 1635673, Note_on_c, 0, 72, 127
1, 1635673, Note_on_c, 10, 69, 127
1, 1635811, Note_off_c, 10, 69, 127
1, 1635811, Note_off_c, 0, 72, 127
1, 1635814, Note_on_c, 2, 74, 127
1, 1635814, Note_on_c, 7, 67, 127
1, 1635953, Note_off_c, 7, 67, 127
1, 1635953, Note_off_c, 2, 74, 127
1, 1635956, Note_on_c, 4, 76, 127
1, 1635956, Note_on_c, 6, 66, 127
1, 1636095, Note_off_c, 6, 66, 127
1, 1636095, Note_off_c, 4, 76, 127
1, 1636098, Note_on_c, 6, 78, 127
1, 1636098, Note_on_c, 4, 64, 127
1, 1636237, Note_off_c, 4, 64, 127
1, 1636237, Note_off_c, 6, 78, 127
1, 1636240, Note_on_c, 7, 79, 127
1, 1636240, Note_on_c, 2, 62, 127
1, 1636379, Note_off_c, 2, 62, 127
1, 1636379, Note_off_c, 7, 79, 127
1, 1636382, Note_on_c, 10, 81, 127
1, 1636382, Note_on_c, 0, 60, 127
1, 1636521, Note_off_c, 10, 81, 127
1, 1636524, Note_on_c, 4, 76, 127
1, 1636663, Note_off_c, 4, 76, 127
1, 1636666, Note_on_c, 0, 72, 127
1, 1636805, Note_off_c, 0, 72, 127
1, 1636808, Note_on_c, 10, 69, 127
1, 1636947, Note_off_c, 10, 69, 127
1, 1636950, Note_on_c, 12, 71, 127
1, 1637089, Note_off_c, 12, 71, 127
1, 1637092, Note_on_c, 0, 72, 127
1, 1637231, Note_off_c, 0, 72, 127
1, 1637234, Note_on_c, 6, 66, 127
1, 1637367, Note_off_c, 0, 60, 127
1, 1637373, Note_off_c, 6, 66, 127
1, 1637377, Note_on_c, 7, 67, 127
1, 1637377, Note_on_c, 12, 59, 127
1, 1637515, Note_off_c, 12, 59, 127
1, 1637515, Note_off_c, 7, 67, 127
1, 1637518, Note_on_c, 10, 69, 127
1, 1637518, Note_on_c, 0, 60, 127
1, 1637657, Note_off_c, 0, 60, 127
1, 1637657, Note_off_c, 10, 69, 127
1, 1637660, Note_on_c, 12, 71, 127
1, 1637660, Note_on_c, 2, 62, 127
1, 1637799, Note_off_c, 2, 62, 127
1, 1637799, Note_off_c, 12, 71, 127
1, 1637802, Note_on_c, 0, 72, 127
1, 1637802, Note_on_c, 4, 64, 127
1, 1637941, Note_off_c, 4, 64, 127
1, 1637941, Note_off_c, 0, 72, 127
1, 1637944, Note_on_c, 10, 69, 127
1, 1637944, Note_on_c, 6, 66, 127
1, 1638083, Note_off_c, 6, 66, 127
1, 1638083, Note_off_c, 10, 69, 127
1, 1638086, Note_on_c, 12, 71, 127
1, 1638086, Note_on_c, 7, 67, 127
1, 1638225, Note_off_c, 7, 67, 127
1, 1638225, Note_off_c, 12, 71, 127
1, 1638228, Note_on_c, 2, 74, 127
1, 1638228, Note_on_c, 2, 62, 127
1, 1638367, Note_off_c, 2, 62, 127
1, 1638367, Note_off_c, 2, 74, 127
1, 1638370, Note_on_c, 7, 79, 127
1, 1638370, Note_on_c, 12, 59, 127
1, 1638509, Note_off_c, 12, 59, 127
1, 1638512, Note_on_c, 7, 55, 127
1, 1638651, Note_off_c, 7, 55, 127
1, 1638654, Note_on_c, 10, 57, 127
1, 1638793, Note_off_c, 10, 57, 127
1, 1638796, Note_on_c, 12, 59, 127
1, 1638935, Note_off_c, 12, 59, 127
1, 1638938, Note_on_c, 4, 52, 127
1, 1639077, Note_off_c, 4, 52, 127
1, 1639080, Note_on_c, 6, 54, 127
1, 1639161, Note_off_c, 7, 79, 127
1, 1639219, Note_off_c, 6, 54, 127
1, 1639222, Note_on_c, 4, 76, 127
1, 1639222, Note_on_c, 7, 55, 127
1, 1639361, Note_off_c, 7, 55, 127
1, 1639364, Note_on_c, 10, 57, 127
1, 1639502, Note_off_c, 4, 76, 127
1, 1639503, Note_off_c, 10, 57, 127
1, 1639506, Note_on_c, 2, 74, 127
1, 1639506, Note_on_c, 12, 59, 127
1, 1639645, Note_off_c, 12, 59, 127
1, 1639648, Note_on_c, 7, 55, 127
1, 1639786, Note_off_c, 2, 74, 127
1, 1639787, Note_off_c, 7, 55, 127
1, 1639790, Note_on_c, 0, 72, 127
1, 1639790, Note_on_c, 10, 57, 127
1, 1639929, Note_off_c, 10, 57, 127
1, 1639932, Note_on_c, 0, 60, 127
1, 1640070, Note_off_c, 0, 72, 127
1, 1640071, Note_off_c, 0, 60, 127
1, 1640074, Note_on_c, 2, 74, 127
1, 1640074, Note_on_c, 6, 66, 127
1, 1640213, Note_off_c, 2, 74, 127
1, 1640216, Note_on_c, 0, 72, 127
1, 1640354, Note_off_c, 6, 66, 127
1, 1640355, Note_off_c, 0, 72, 127
1, 1640358, Note_on_c, 12, 71, 127
1, 1640497, Note_off_c, 12, 71, 127
1, 1640500, Note_on_c, 10, 69, 127
1, 1640639, Note_off_c, 10, 69, 127
1, 1640642, Note_on_c, 12, 71, 127
1, 1640781, Note_off_c, 12, 71, 127
1, 1640784, Note_on_c, 2, 74, 127
1, 1640923, Note_off_c, 2, 74, 127
1, 1640926, Note_on_c, 12, 71, 127
1, 1640926, Note_on_c, 2, 62, 127
1, 1641065, Note_off_c, 12, 71, 127
1, 1641069, Note_on_c, 7, 67, 127
1, 1641206, Note_off_c, 2, 62, 127
1, 1641208, Note_off_c, 7, 67, 127
1, 1641211, Note_on_c, 10, 69, 127
1, 1641211, Note_on_c, 0, 60, 127
1, 1641350, Note_off_c, 10, 69, 127
1, 1641353, Note_on_c, 6, 66, 127
1, 1641491, Note_off_c, 0, 60, 127
1, 1641492, Note_off_c, 6, 66, 127
1, 1641495, Note_on_c, 7, 67, 127
1, 1641495, Note_on_c, 12, 59, 127
1, 1641564, Note_off_c, 7, 67, 127
1, 1641566, Note_on_c, 6, 66, 127
1, 1641635, Note_off_c, 6, 66, 127
1, 1641637, Note_on_c, 7, 67, 127
1, 1641790, Note_off_c, 12, 59, 127
1, 1641794, Note_on_c, 0, 60, 127
1, 1641954, Note_off_c, 0, 60, 127
1, 1641964, Note_on_c, 12, 59, 127
1, 1642142, Note_off_c, 12, 59, 127
1, 1642169, Note_on_c, 10, 57, 127
1, 1642340, Note_off_c, 7, 67, 127
1, 1642377, Note_off_c, 10, 57, 127
1, 1642425, Note_on_c, 7, 55, 127
1, 1643125, Note_off_c, 7, 55, 127
1, 1644964, Note_on_c, 12, 83, 127
1, 1644964, Note_on_c, 7, 55, 127
1, 1645045, Note_on_c, 2, 74, 127
1, 1645125, Note_on_c, 4, 76, 127
1, 1645133, Note_off_c, 2, 74, 127
1, 1645206, Note_on_c, 2, 74, 127
1, 1645213, Note_off_c, 4, 76, 127
1, 1645281, Note_off_c, 7, 55, 127
1, 1645286, Note_on_c, 4, 76, 127
1, 1645286, Note_on_c, 12, 71, 127
1, 1645294, Note_off_c, 2, 74, 127
1, 1645367, Note_on_c, 2, 74, 127
1, 1645374, Note_off_c, 4, 76, 127
1, 1645448, Note_on_c, 4, 76, 127
1, 1645455, Note_off_c, 2, 74, 127
1, 1645528, Note_on_c, 2, 74, 127
1, 1645536, Note_off_c, 4, 76, 127
1, 1645600, Note_off_c, 12, 83, 127
1, 1645603, Note_off_c, 12, 71, 127
1, 1645609, Note_on_c, 2, 86, 127
1, 1645609, Note_on_c, 10, 69, 127
1, 1645616, Note_off_c, 2, 74, 127
1, 1645689, Note_on_c, 2, 74, 127
1, 1645770, Note_on_c, 4, 76, 127
1, 1645777, Note_off_c, 2, 74, 127
1, 1645850, Note_on_c, 2, 74, 127
1, 1645858, Note_off_c, 4, 76, 127
1, 1645926, Note_off_c, 10, 69, 127
1, 1645931, Note_on_c, 4, 76, 127
1, 1645931, Note_on_c, 6, 54, 127
1, 1645938, Note_off_c, 2, 74, 127
1, 1646012, Note_on_c, 2, 74, 127
1, 1646019, Note_off_c, 4, 76, 127
1, 1646092, Note_on_c, 4, 76, 127
1, 1646100, Note_off_c, 2, 74, 127
1, 1646173, Note_on_c, 2, 74, 127
1, 1646180, Note_off_c, 4, 76, 127
1, 1646245, Note_off_c, 2, 86, 127
1, 1646248, Note_off_c, 6, 54, 127
1, 1646253, Note_on_c, 7, 79, 127
1, 1646253, Note_on_c, 4, 52, 127
1, 1646261, Note_off_c, 2, 74, 127
1, 1646334, Note_on_c, 2, 74, 127
1, 1646414, Note_on_c, 4, 76, 127
1, 1646422, Note_off_c, 2, 74, 127
1, 1646495, Note_on_c, 2, 74, 127
1, 1646502, Note_off_c, 4, 76, 127
1, 1646570, Note_off_c, 4, 52, 127
1, 1646575, Note_on_c, 4, 76, 127
1, 1646575, Note_on_c, 4, 64, 127
1, 1646583, Note_off_c, 2, 74, 127
1, 1646656, Note_on_c, 2, 74, 127
1, 1646663, Note_off_c, 4, 76, 127
1, 1646737, Note_on_c, 4, 76, 127
1, 1646744, Note_off_c, 2, 74, 127
1, 1646817, Note_on_c, 2, 74, 127
1, 1646825, Note_off_c, 4, 76, 127
1, 1646889, Note_off_c, 7, 79, 127
1, 1646892, Note_off_c, 4, 64, 127
1, 1646898, Note_on_c, 10, 81, 127
1, 1646898, Note_on_c, 6, 54, 127
1, 1646905, Note_off_c, 2, 74, 127
1, 1646978, Note_on_c, 2, 74, 127
1, 1647059, Note_on_c, 4, 76, 127
1, 1647066, Note_off_c, 2, 74, 127
1, 1647139, Note_on_c, 2, 74, 127
1, 1647147, Note_off_c, 4, 76, 127
1, 1647215, Note_off_c, 6, 54, 127
1, 1647220, Note_on_c, 4, 76, 127
1, 1647220, Note_on_c, 6, 66, 127
1, 1647227, Note_off_c, 2, 74, 127
1, 1647300, Note_on_c, 2, 74, 127
1, 1647308, Note_off_c, 4, 76, 127
1, 1647381, Note_on_c, 4, 76, 127
1, 1647388, Note_off_c, 2, 74, 127
1, 1647462, Note_on_c, 2, 74, 127
1, 1647469, Note_off_c, 4, 76, 127
1, 1647534, Note_off_c, 10, 81, 127
1, 1647537, Note_off_c, 6, 66, 127
1, 1647542, Note_on_c, 2, 86, 127
1, 1647542, Note_on_c, 4, 64, 127
1, 1647550, Note_off_c, 2, 74, 127
1, 1647623, Note_on_c, 2, 74, 127
1, 1647703, Note_on_c, 4, 76, 127
1, 1647711, Note_off_c, 2, 74, 127
1, 1647784, Note_on_c, 2, 74, 127
1, 1647791, Note_off_c, 4, 76, 127
1, 1647859, Note_off_c, 4, 64, 127
1, 1647864, Note_on_c, 4, 76, 127
1, 1647864, Note_on_c, 4, 52, 127
1, 1647872, Note_off_c, 2, 74, 127
1, 1647945, Note_on_c, 2, 74, 127
1, 1647952, Note_off_c, 4, 76, 127
1, 1648026, Note_on_c, 4, 76, 127
1, 1648033, Note_off_c, 2, 74, 127
1, 1648106, Note_on_c, 2, 74, 127
1, 1648114, Note_off_c, 4, 76, 127
1, 1648178, Note_off_c, 2, 86, 127
1, 1648181, Note_off_c, 4, 52, 127
1, 1648187, Note_on_c, 6, 78, 127
1, 1648187, Note_on_c, 2, 50, 127
1, 1648194, Note_off_c, 2, 74, 127
1, 1648267, Note_on_c, 2, 74, 127
1, 1648348, Note_on_c, 4, 76, 127
1, 1648355, Note_off_c, 2, 74, 127
1, 1648428, Note_on_c, 2, 74, 127
1, 1648436, Note_off_c, 4, 76, 127
1, 1648504, Note_off_c, 2, 50, 127
1, 1648509, Note_on_c, 4, 76, 127
1, 1648509, Note_on_c, 6, 66, 127
1, 1648516, Note_off_c, 2, 74, 127
1, 1648589, Note_on_c, 2, 74, 127
1, 1648597, Note_off_c, 4, 76, 127
1, 1648670, Note_on_c, 4, 76, 127
1, 1648677, Note_off_c, 2, 74, 127
1, 1648751, Note_on_c, 2, 74, 127
1, 1648758, Note_off_c, 4, 76, 127
1, 1648823, Note_off_c, 6, 78, 127
1, 1648826, Note_off_c, 6, 66, 127
1, 1648831, Note_on_c, 7, 79, 127
1, 1648831, Note_on_c, 4, 52, 127
1, 1648839, Note_off_c, 2, 74, 127
1, 1648912, Note_on_c, 2, 74, 127
1, 1648992, Note_on_c, 4, 76, 127
1, 1649000, Note_off_c, 2, 74, 127
1, 1649073, Note_on_c, 2, 74, 127
1, 1649080, Note_off_c, 4, 76, 127
1, 1649148, Note_off_c, 4, 52, 127
1, 1649153, Note_on_c, 4, 76, 127
1, 1649153, Note_on_c, 7, 67, 127
1, 1649161, Note_off_c, 2, 74, 127
1, 1649234, Note_on_c, 2, 74, 127
1, 1649241, Note_off_c, 4, 76, 127
1, 1649314, Note_on_c, 4, 76, 127
1, 1649322, Note_off_c, 2, 74, 127
1, 1649395, Note_on_c, 2, 74, 127
1, 1649402, Note_off_c, 4, 76, 127
1, 1649467, Note_off_c, 7, 79, 127
1, 1649470, Note_off_c, 7, 67, 127
1, 1649476, Note_on_c, 12, 83, 127
1, 1649476, Note_on_c, 6, 66, 127
1, 1649483, Note_off_c, 2, 74, 127
1, 1649556, Note_on_c, 2, 74, 127
1, 1649637, Note_on_c, 4, 76, 127
1, 1649644, Note_off_c, 2, 74, 127
1, 1649717, Note_on_c, 2, 74, 127
1, 1649725, Note_off_c, 4, 76, 127
1, 1649793, Note_off_c, 6, 66, 127
1, 1649798, Note_on_c, 4, 76, 127
1, 1649798, Note_on_c, 7, 55, 127
1, 1649805, Note_off_c, 2, 74, 127
1, 1649878, Note_on_c, 2, 74, 127
1, 1649886, Note_off_c, 4, 76, 127
1, 1649959, Note_on_c, 4, 76, 127
1, 1649966, Note_off_c, 2, 74, 127
1, 1650040, Note_on_c, 2, 74, 127
1, 1650047, Note_off_c, 4, 76, 127
1, 1650112, Note_off_c, 12, 83, 127
1, 1650115, Note_off_c, 7, 55, 127
1, 1650120, Note_on_c, 10, 81, 127
1, 1650120, Note_on_c, 10, 57, 127
1, 1650128, Note_off_c, 2, 74, 127
1, 1650201, Note_on_c, 1, 73, 127
1, 1650281, Note_on_c, 2, 74, 127
1, 1650289, Note_off_c, 1, 73, 127
1, 1650362, Note_on_c, 1, 73, 127
1, 1650369, Note_off_c, 2, 74, 127
1, 1650437, Note_off_c, 10, 57, 127
1, 1650442, Note_on_c, 2, 74, 127
1, 1650442, Note_on_c, 4, 64, 127
1, 1650450, Note_off_c, 1, 73, 127
1, 1650523, Note_on_c, 1, 73, 127
1, 1650530, Note_off_c, 2, 74, 127
1, 1650603, Note_on_c, 2, 74, 127
1, 1650611, Note_off_c, 1, 73, 127
1, 1650684, Note_on_c, 1, 73, 127
1, 1650691, Note_off_c, 2, 74, 127
1, 1650756, Note_off_c, 10, 81, 127
1, 1650759, Note_off_c, 4, 64, 127
1, 1650765, Note_on_c, 6, 78, 127
1, 1650765, Note_on_c, 2, 50, 127
1, 1650772, Note_off_c, 1, 73, 127
1, 1650845, Note_on_c, 2, 74, 127
1, 1650926, Note_on_c, 4, 76, 127
1, 1650933, Note_off_c, 2, 74, 127
1, 1651006, Note_on_c, 2, 74, 127
1, 1651014, Note_off_c, 4, 76, 127
1, 1651082, Note_off_c, 2, 50, 127
1, 1651087, Note_on_c, 4, 76, 127
1, 1651087, Note_on_c, 6, 66, 127
1, 1651094, Note_off_c, 2, 74, 127
1, 1651167, Note_on_c, 2, 74, 127
1, 1651175, Note_off_c, 4, 76, 127
1, 1651248, Note_on_c, 4, 76, 127
1, 1651255, Note_off_c, 2, 74, 127
1, 1651328, Note_on_c, 2, 74, 127
1, 1651336, Note_off_c, 4, 76, 127
1, 1651401, Note_off_c, 6, 78, 127
1, 1651404, Note_off_c, 6, 66, 127
1, 1651409, Note_on_c, 1, 85, 127
1, 1651409, Note_on_c, 4, 64, 127
1, 1651416, Note_off_c, 2, 74, 127
1, 1651490, Note_on_c, 2, 74, 127
1, 1651570, Note_on_c, 4, 76, 127
1, 1651578, Note_off_c, 2, 74, 127
1, 1651651, Note_on_c, 2, 74, 127
1, 1651658, Note_off_c, 4, 76, 127
1, 1651726, Note_off_c, 4, 64, 127
1, 1651731, Note_on_c, 4, 76, 127
1, 1651731, Note_on_c, 7, 55, 127
1, 1651739, Note_off_c, 2, 74, 127
1, 1651812, Note_on_c, 2, 74, 127
1, 1651819, Note_off_c, 4, 76, 127
1, 1651892, Note_on_c, 4, 76, 127
1, 1651900, Note_off_c, 2, 74, 127
1, 1651973, Note_on_c, 2, 74, 127
1, 1651980, Note_off_c, 4, 76, 127
1, 1652045, Note_off_c, 1, 85, 127
1, 1652048, Note_off_c, 7, 55, 127
1, 1652054, Note_on_c, 2, 86, 127
1, 1652054, Note_on_c, 6, 54, 127
1, 1652061, Note_off_c, 2, 74, 127
1, 1652134, Note_on_c, 2, 74, 127
1, 1652215, Note_on_c, 4, 76, 127
1, 1652222, Note_off_c, 2, 74, 127
1, 1652295, Note_on_c, 2, 74, 127
1, 1652303, Note_off_c, 4, 76, 127
1, 1652371, Note_off_c, 6, 54, 127
1, 1652376, Note_on_c, 4, 76, 127
1, 1652376, Note_on_c, 0, 60, 127
1, 1652383, Note_off_c, 2, 74, 127
1, 1652456, Note_on_c, 2, 74, 127
1, 1652464, Note_off_c, 4, 76, 127
1, 1652537, Note_on_c, 4, 76, 127
1, 1652544, Note_off_c, 2, 74, 127
1, 1652617, Note_on_c, 2, 74, 127
1, 1652625, Note_off_c, 4, 76, 127
1, 1652690, Note_off_c, 2, 86, 127
1, 1652693, Note_off_c, 0, 60, 127
1, 1652698, Note_on_c, 7, 79, 127
1, 1652698, Note_on_c, 12, 59, 127
1, 1652705, Note_off_c, 2, 74, 127
1, 1652779, Note_on_c, 7, 67, 127
1, 1652859, Note_on_c, 10, 69, 127
1, 1652867, Note_off_c, 7, 67, 127
1, 1652940, Note_on_c, 7, 67, 127
1, 1652947, Note_off_c, 10, 69, 127
1, 1653015, Note_off_c, 7, 79, 127
1, 1653020, Note_on_c, 7, 55, 127
1, 1653020, Note_on_c, 10, 69, 127
1, 1653028, Note_off_c, 7, 67, 127
1, 1653101, Note_on_c, 7, 67, 127
1, 1653108, Note_off_c, 10, 69, 127
1, 1653181, Note_on_c, 10, 69, 127
1, 1653189, Note_off_c, 7, 67, 127
1, 1653262, Note_on_c, 7, 67, 127
1, 1653269, Note_off_c, 10, 69, 127
1, 1653334, Note_off_c, 12, 59, 127
1, 1653337, Note_off_c, 7, 55, 127
1, 1653342, Note_on_c, 10, 57, 127
1, 1653342, Note_on_c, 0, 60, 127
1, 1653350, Note_off_c, 7, 67, 127
1, 1653423, Note_on_c, 7, 67, 127
1, 1653504, Note_on_c, 10, 69, 127
1, 1653511, Note_off_c, 7, 67, 127
1, 1653584, Note_on_c, 7, 67, 127
1, 1653592, Note_off_c, 10, 69, 127
1, 1653659, Note_off_c, 10, 57, 127
1, 1653665, Note_on_c, 4, 76, 127
1, 1653665, Note_on_c, 10, 69, 127
1, 1653672, Note_off_c, 7, 67, 127
1, 1653745, Note_on_c, 7, 67, 127
1, 1653753, Note_off_c, 10, 69, 127
1, 1653826, Note_on_c, 10, 69, 127
1, 1653833, Note_off_c, 7, 67, 127
1, 1653906, Note_on_c, 7, 67, 127
1, 1653914, Note_off_c, 10, 69, 127
1, 1653978, Note_off_c, 0, 60, 127
1, 1653982, Note_off_c, 4, 76, 127
1, 1653987, Note_on_c, 5, 77, 127
1, 1653987, Note_on_c, 2, 62, 127
1, 1653994, Note_off_c, 7, 67, 127
1, 1654068, Note_on_c, 7, 67, 127
1, 1654148, Note_on_c, 10, 69, 127
1, 1654156, Note_off_c, 7, 67, 127
1, 1654229, Note_on_c, 7, 67, 127
1, 1654236, Note_off_c, 10, 69, 127
1, 1654304, Note_off_c, 5, 77, 127
1, 1654309, Note_on_c, 12, 71, 127
1, 1654309, Note_on_c, 2, 74, 127
1, 1654309, Note_on_c, 10, 69, 127
1, 1654317, Note_off_c, 7, 67, 127
1, 1654390, Note_on_c, 7, 67, 127
1, 1654397, Note_off_c, 10, 69, 127
1, 1654470, Note_on_c, 10, 69, 127
1, 1654478, Note_off_c, 7, 67, 127
1, 1654551, Note_on_c, 7, 67, 127
1, 1654558, Note_off_c, 10, 69, 127
1, 1654623, Note_off_c, 2, 62, 127
1, 1654626, Note_off_c, 2, 74, 127
1, 1654626, Note_off_c, 12, 71, 127
1, 1654631, Note_on_c, 0, 72, 127
1, 1654631, Note_on_c, 4, 76, 127
1, 1654631, Note_on_c, 0, 60, 127
1, 1654639, Note_off_c, 7, 67, 127
1, 1654712, Note_on_c, 7, 67, 127
1, 1654793, Note_on_c, 10, 69, 127
1, 1654800, Note_off_c, 7, 67, 127
1, 1654873, Note_on_c, 7, 67, 127
1, 1654881, Note_off_c, 10, 69, 127
1, 1654948, Note_off_c, 4, 76, 127
1, 1654948, Note_off_c, 0, 72, 127
1, 1654954, Note_on_c, 10, 57, 127
1, 1654954, Note_on_c, 10, 69, 127
1, 1654961, Note_off_c, 7, 67, 127
1, 1655034, Note_on_c, 7, 67, 127
1, 1655042, Note_off_c, 10, 69, 127
1, 1655115, Note_on_c, 10, 69, 127
1, 1655122, Note_off_c, 7, 67, 127
1, 1655195, Note_on_c, 7, 67, 127
1, 1655203, Note_off_c, 10, 69, 127
1, 1655267, Note_off_c, 0, 60, 127
1, 1655271, Note_off_c, 10, 57, 127
1, 1655276, Note_on_c, 12, 59, 127
1, 1655276, Note_on_c, 2, 62, 127
1, 1655283, Note_off_c, 7, 67, 127
1, 1655356, Note_on_c, 7, 67, 127
1, 1655437, Note_on_c, 10, 69, 127
1, 1655444, Note_off_c, 7, 67, 127
1, 1655518, Note_on_c, 7, 67, 127
1, 1655525, Note_off_c, 10, 69, 127
1, 1655593, Note_off_c, 12, 59, 127
1, 1655598, Note_on_c, 6, 78, 127
1, 1655598, Note_on_c, 10, 69, 127
1, 1655606, Note_off_c, 7, 67, 127
1, 1655679, Note_on_c, 7, 67, 127
1, 1655686, Note_off_c, 10, 69, 127
1, 1655759, Note_on_c, 10, 69, 127
1, 1655767, Note_off_c, 7, 67, 127
1, 1655840, Note_on_c, 7, 67, 127
1, 1655847, Note_off_c, 10, 69, 127
1, 1655912, Note_off_c, 2, 62, 127
1, 1655915, Note_off_c, 6, 78, 127
1, 1655920, Note_on_c, 7, 79, 127
1, 1655920, Note_on_c, 4, 64, 127
1, 1655928, Note_off_c, 7, 67, 127
1, 1656001, Note_on_c, 7, 67, 127
1, 1656082, Note_on_c, 10, 69, 127
1, 1656089, Note_off_c, 7, 67, 127
1, 1656162, Note_on_c, 7, 67, 127
1, 1656170, Note_off_c, 10, 69, 127
1, 1656237, Note_off_c, 7, 79, 127
1, 1656243, Note_on_c, 10, 81, 127
1, 1656243, Note_on_c, 1, 73, 127
1, 1656243, Note_on_c, 10, 69, 127
1, 1656250, Note_off_c, 7, 67, 127
1, 1656323, Note_on_c, 7, 67, 127
1, 1656331, Note_off_c, 10, 69, 127
1, 1656404, Note_on_c, 10, 69, 127
1, 1656411, Note_off_c, 7, 67, 127
1, 1656484, Note_on_c, 7, 67, 127
1, 1656492, Note_off_c, 10, 69, 127
1, 1656556, Note_off_c, 4, 64, 127
1, 1656560, Note_off_c, 1, 73, 127
1, 1656560, Note_off_c, 10, 81, 127
1, 1656565, Note_on_c, 12, 83, 127
1, 1656565, Note_on_c, 2, 74, 127
1, 1656565, Note_on_c, 2, 62, 127
1, 1656572, Note_off_c, 7, 67, 127
1, 1656645, Note_on_c, 7, 67, 127
1, 1656726, Note_on_c, 10, 69, 127
1, 1656733, Note_off_c, 7, 67, 127
1, 1656807, Note_on_c, 7, 67, 127
1, 1656814, Note_off_c, 10, 69, 127
1, 1656882, Note_off_c, 2, 74, 127
1, 1656882, Note_off_c, 12, 83, 127
1, 1656887, Note_on_c, 10, 57, 127
1, 1656887, Note_on_c, 6, 54, 127
1, 1656887, Note_on_c, 10, 69, 127
1, 1656895, Note_off_c, 7, 67, 127
1, 1656968, Note_on_c, 7, 67, 127
1, 1656975, Note_off_c, 10, 69, 127
1, 1657048, Note_on_c, 10, 69, 127
1, 1657056, Note_off_c, 7, 67, 127
1, 1657129, Note_on_c, 7, 67, 127
1, 1657136, Note_off_c, 10, 69, 127
1, 1657201, Note_off_c, 2, 62, 127
1, 1657204, Note_off_c, 6, 54, 127
1, 1657204, Note_off_c, 10, 57, 127
1, 1657209, Note_on_c, 7, 55, 127
1, 1657209, Note_on_c, 12, 59, 127
1, 1657209, Note_on_c, 4, 64, 127
1, 1657217, Note_off_c, 7, 67, 127
1, 1657290, Note_on_c, 7, 67, 127
1, 1657370, Note_on_c, 10, 69, 127
1, 1657378, Note_off_c, 7, 67, 127
1, 1657451, Note_on_c, 7, 67, 127
1, 1657458, Note_off_c, 10, 69, 127
1, 1657526, Note_off_c, 12, 59, 127
1, 1657526, Note_off_c, 7, 55, 127
1, 1657532, Note_on_c, 4, 52, 127
1, 1657532, Note_on_c, 1, 49, 127
1, 1657532, Note_on_c, 10, 69, 127
1, 1657539, Note_off_c, 7, 67, 127
1, 1657612, Note_on_c, 7, 67, 127
1, 1657620, Note_off_c, 10, 69, 127
1, 1657693, Note_on_c, 10, 69, 127
1, 1657700, Note_off_c, 7, 67, 127
1, 1657773, Note_on_c, 7, 67, 127
1, 1657781, Note_off_c, 10, 69, 127
1, 1657845, Note_off_c, 4, 64, 127
1, 1657849, Note_off_c, 1, 49, 127
1, 1657849, Note_off_c, 4, 52, 127
1, 1657854, Note_on_c, 6, 54, 127
1, 1657854, Note_on_c, 2, 50, 127
1, 1657854, Note_on_c, 10, 57, 127
1, 1657861, Note_off_c, 7, 67, 127
1, 1657934, Note_on_c, 6, 66, 127
1, 1658015, Note_on_c, 7, 67, 127
1, 1658022, Note_off_c, 6, 66, 127
1, 1658096, Note_on_c, 6, 66, 127
1, 1658103, Note_off_c, 7, 67, 127
1, 1658171, Note_off_c, 2, 50, 127
1, 1658171, Note_off_c, 6, 54, 127
1, 1658176, Note_on_c, 2, 38, 127
1, 1658176, Note_on_c, 7, 67, 127
1, 1658184, Note_off_c, 6, 66, 127
1, 1658257, Note_on_c, 6, 66, 127
1, 1658264, Note_off_c, 7, 67, 127
1, 1658337, Note_on_c, 7, 67, 127
1, 1658345, Note_off_c, 6, 66, 127
1, 1658418, Note_on_c, 6, 66, 127
1, 1658425, Note_off_c, 7, 67, 127
1, 1658490, Note_off_c, 10, 57, 127
1, 1658493, Note_off_c, 2, 38, 127
1, 1658498, Note_on_c, 7, 43, 127
1, 1658498, Note_on_c, 12, 59, 127
1, 1658506, Note_off_c, 6, 66, 127
1, 1658579, Note_on_c, 7, 67, 127
1, 1658659, Note_on_c, 10, 69, 127
1, 1658667, Note_off_c, 7, 67, 127
1, 1658740, Note_on_c, 7, 67, 127
1, 1658747, Note_off_c, 10, 69, 127
1, 1658815, Note_off_c, 7, 43, 127
1, 1658821, Note_on_c, 0, 84, 127
1, 1658821, Note_on_c, 4, 76, 127
1, 1658821, Note_on_c, 10, 69, 127
1, 1658828, Note_off_c, 7, 67, 127
1, 1658901, Note_on_c, 7, 67, 127
1, 1658909, Note_off_c, 10, 69, 127
1, 1658982, Note_on_c, 10, 69, 127
1, 1658989, Note_off_c, 7, 67, 127
1, 1659062, Note_on_c, 7, 67, 127
1, 1659070, Note_off_c, 10, 69, 127
1, 1659134, Note_off_c, 12, 59, 127
1, 1659138, Note_off_c, 4, 76, 127
1, 1659138, Note_off_c, 0, 84, 127
1, 1659143, Note_on_c, 12, 83, 127
1, 1659143, Note_on_c, 2, 74, 127
1, 1659143, Note_on_c, 0, 60, 127
1, 1659150, Note_off_c, 7, 67, 127
1, 1659223, Note_on_c, 7, 67, 127
1, 1659304, Note_on_c, 10, 69, 127
1, 1659311, Note_off_c, 7, 67, 127
1, 1659384, Note_on_c, 7, 67, 127
1, 1659392, Note_off_c, 10, 69, 127
1, 1659460, Note_off_c, 2, 74, 127
1, 1659460, Note_off_c, 12, 83, 127
1, 1659465, Note_on_c, 10, 81, 127
1, 1659465, Note_on_c, 0, 72, 127
1, 1659465, Note_on_c, 10, 69, 127
1, 1659472, Note_off_c, 7, 67, 127
1, 1659546, Note_on_c, 7, 67, 127
1, 1659553, Note_off_c, 10, 69, 127
1, 1659626, Note_on_c, 10, 69, 127
1, 1659634, Note_off_c, 7, 67, 127
1, 1659707, Note_on_c, 7, 67, 127
1, 1659714, Note_off_c, 10, 69, 127
1, 1659779, Note_off_c, 0, 60, 127
1, 1659782, Note_off_c, 0, 72, 127
1, 1659782, Note_off_c, 10, 81, 127
1, 1659787, Note_on_c, 12, 71, 127
1, 1659787, Note_on_c, 7, 79, 127
1, 1659787, Note_on_c, 2, 62, 127
1, 1659795, Note_off_c, 7, 67, 127
1, 1659868, Note_on_c, 7, 67, 127
1, 1659948, Note_on_c, 10, 69, 127
1, 1659956, Note_off_c, 7, 67, 127
1, 1660029, Note_on_c, 7, 67, 127
1, 1660036, Note_off_c, 10, 69, 127
1, 1660104, Note_off_c, 7, 79, 127
1, 1660104, Note_off_c, 12, 71, 127
1, 1660110, Note_on_c, 6, 78, 127
1, 1660110, Note_on_c, 0, 72, 127
1, 1660110, Note_on_c, 10, 69, 127
1, 1660117, Note_off_c, 7, 67, 127
1, 1660190, Note_on_c, 7, 67, 127
1, 1660198, Note_off_c, 10, 69, 127
1, 1660271, Note_on_c, 10, 69, 127
1, 1660278, Note_off_c, 7, 67, 127
1, 1660351, Note_on_c, 7, 67, 127
1, 1660359, Note_off_c, 10, 69, 127
1, 1660423, Note_off_c, 2, 62, 127
1, 1660427, Note_off_c, 0, 72, 127
1, 1660427, Note_off_c, 6, 78, 127
1, 1660428, Note_off_c, 7, 67, 127
1, 1660432, Note_on_c, 12, 71, 127
1, 1660432, Note_on_c, 12, 83, 127
1, 1660432, Note_on_c, 7, 67, 127
1, 1660432, Note_on_c, 7, 55, 127
1, 1660589, Note_off_c, 7, 55, 127
1, 1660593, Note_on_c, 7, 79, 127
1, 1660593, Note_on_c, 12, 59, 127
1, 1660749, Note_off_c, 7, 67, 127
1, 1660749, Note_off_c, 12, 83, 127
1, 1660749, Note_off_c, 12, 71, 127
1, 1660750, Note_off_c, 12, 59, 127
1, 1660750, Note_off_c, 7, 79, 127
1, 1660754, Note_on_c, 6, 78, 127
1, 1660754, Note_on_c, 10, 57, 127
1, 1660911, Note_off_c, 10, 57, 127
1, 1660911, Note_off_c, 6, 78, 127
1, 1660915, Note_on_c, 7, 79, 127
1, 1660915, Note_on_c, 12, 59, 127
1, 1661072, Note_off_c, 12, 59, 127
1, 1661072, Note_off_c, 7, 79, 127
1, 1661076, Note_on_c, 4, 76, 127
1, 1661076, Note_on_c, 4, 64, 127
1, 1661233, Note_off_c, 4, 64, 127
1, 1661233, Note_off_c, 4, 76, 127
1, 1661237, Note_on_c, 12, 71, 127
1, 1661237, Note_on_c, 7, 67, 127
1, 1661394, Note_off_c, 7, 67, 127
1, 1661394, Note_off_c, 12, 71, 127
1, 1661398, Note_on_c, 10, 69, 127
1, 1661398, Note_on_c, 6, 66, 127
1, 1661555, Note_off_c, 6, 66, 127
1, 1661555, Note_off_c, 10, 69, 127
1, 1661560, Note_on_c, 12, 71, 127
1, 1661560, Note_on_c, 7, 67, 127
1, 1661717, Note_off_c, 7, 67, 127
1, 1661717, Note_off_c, 12, 71, 127
1, 1661721, Note_on_c, 7, 67, 127
1, 1661721, Note_on_c, 12, 71, 127
1, 1661878, Note_off_c, 12, 71, 127
1, 1661878, Note_off_c, 7, 67, 127
1, 1661882, Note_on_c, 12, 71, 127
1, 1661882, Note_on_c, 7, 67, 127
1, 1662039, Note_off_c, 7, 67, 127
1, 1662039, Note_off_c, 12, 71, 127
1, 1662043, Note_on_c, 4, 76, 127
1, 1662043, Note_on_c, 4, 64, 127
1, 1662200, Note_off_c, 4, 64, 127
1, 1662200, Note_off_c, 4, 76, 127
1, 1662204, Note_on_c, 7, 79, 127
1, 1662204, Note_on_c, 1, 61, 127
1, 1662361, Note_off_c, 1, 61, 127
1, 1662361, Note_off_c, 7, 79, 127
1, 1662365, Note_on_c, 10, 81, 127
1, 1662365, Note_on_c, 6, 54, 127
1, 1662522, Note_off_c, 6, 54, 127
1, 1662522, Note_off_c, 10, 81, 127
1, 1662526, Note_on_c, 6, 78, 127
1, 1662526, Note_on_c, 10, 57, 127
1, 1662683, Note_off_c, 10, 57, 127
1, 1662683, Note_off_c, 6, 78, 127
1, 1662687, Note_on_c, 4, 76, 127
1, 1662687, Note_on_c, 7, 55, 127
1, 1662844, Note_off_c, 7, 55, 127
1, 1662844, Note_off_c, 4, 76, 127
1, 1662849, Note_on_c, 6, 78, 127
1, 1662849, Note_on_c, 10, 57, 127
1, 1663006, Note_off_c, 10, 57, 127
1, 1663006, Note_off_c, 6, 78, 127
1, 1663010, Note_on_c, 2, 74, 127
1, 1663010, Note_on_c, 2, 62, 127
1, 1663167, Note_off_c, 2, 62, 127
1, 1663167, Note_off_c, 2, 74, 127
1, 1663171, Note_on_c, 10, 69, 127
1, 1663171, Note_on_c, 6, 66, 127
1, 1663328, Note_off_c, 6, 66, 127
1, 1663328, Note_off_c, 10, 69, 127
1, 1663332, Note_on_c, 7, 67, 127
1, 1663332, Note_on_c, 4, 64, 127
1, 1663489, Note_off_c, 4, 64, 127
1, 1663489, Note_off_c, 7, 67, 127
1, 1663493, Note_on_c, 10, 69, 127
1, 1663493, Note_on_c, 6, 66, 127
1, 1663650, Note_off_c, 6, 66, 127
1, 1663650, Note_off_c, 10, 69, 127
1, 1663654, Note_on_c, 6, 66, 127
1, 1663654, Note_on_c, 10, 69, 127
1, 1663811, Note_off_c, 10, 69, 127
1, 1663811, Note_off_c, 6, 66, 127
1, 1663815, Note_on_c, 10, 69, 127
1, 1663815, Note_on_c, 6, 66, 127
1, 1663972, Note_off_c, 6, 66, 127
1, 1663972, Note_off_c, 10, 69, 127
1, 1663976, Note_on_c, 2, 74, 127
1, 1663976, Note_on_c, 2, 62, 127
1, 1664133, Note_off_c, 2, 62, 127
1, 1664133, Note_off_c, 2, 74, 127
1, 1664138, Note_on_c, 6, 78, 127
1, 1664138, Note_on_c, 12, 59, 127
1, 1664295, Note_off_c, 12, 59, 127
1, 1664295, Note_off_c, 6, 78, 127
1, 1664299, Note_on_c, 7, 79, 127
1, 1664299, Note_on_c, 4, 52, 127
1, 1664456, Note_off_c, 4, 52, 127
1, 1664456, Note_off_c, 7, 79, 127
1, 1664460, Note_on_c, 4, 76, 127
1, 1664460, Note_on_c, 7, 55, 127
1, 1664617, Note_off_c, 7, 55, 127
1, 1664617, Note_off_c, 4, 76, 127
1, 1664621, Note_on_c, 3, 75, 127
1, 1664621, Note_on_c, 6, 54, 127
1, 1664778, Note_off_c, 6, 54, 127
1, 1664778, Note_off_c, 3, 75, 127
1, 1664782, Note_on_c, 4, 76, 127
1, 1664782, Note_on_c, 7, 55, 127
1, 1664939, Note_off_c, 7, 55, 127
1, 1664939, Note_off_c, 4, 76, 127
1, 1664943, Note_on_c, 12, 71, 127
1, 1664943, Note_on_c, 12, 59, 127
1, 1665100, Note_off_c, 12, 59, 127
1, 1665100, Note_off_c, 12, 71, 127
1, 1665104, Note_on_c, 7, 67, 127
1, 1665104, Note_on_c, 4, 64, 127
1, 1665261, Note_off_c, 4, 64, 127
1, 1665261, Note_off_c, 7, 67, 127
1, 1665265, Note_on_c, 6, 66, 127
1, 1665265, Note_on_c, 3, 63, 127
1, 1665422, Note_off_c, 3, 63, 127
1, 1665422, Note_off_c, 6, 66, 127
1, 1665426, Note_on_c, 7, 67, 127
1, 1665426, Note_on_c, 4, 64, 127
1, 1665583, Note_off_c, 4, 64, 127
1, 1665583, Note_off_c, 7, 67, 127
1, 1665588, Note_on_c, 4, 64, 127
1, 1665588, Note_on_c, 7, 67, 127
1, 1665745, Note_off_c, 7, 67, 127
1, 1665745, Note_off_c, 4, 64, 127
1, 1665749, Note_on_c, 7, 67, 127
1, 1665749, Note_on_c, 4, 64, 127
1, 1665906, Note_off_c, 4, 64, 127
1, 1665906, Note_off_c, 7, 67, 127
1, 1665910, Note_on_c, 12, 71, 127
1, 1665910, Note_on_c, 12, 59, 127
1, 1666067, Note_off_c, 12, 59, 127
1, 1666067, Note_off_c, 12, 71, 127
1, 1666071, Note_on_c, 2, 74, 127
1, 1666071, Note_on_c, 7, 55, 127
1, 1666228, Note_off_c, 7, 55, 127
1, 1666228, Note_off_c, 2, 74, 127
1, 1666232, Note_on_c, 1, 73, 127
1, 1666232, Note_on_c, 10, 57, 127
1, 1666389, Note_off_c, 10, 57, 127
1, 1666389, Note_off_c, 1, 73, 127
1, 1666393, Note_on_c, 7, 67, 127
1, 1666393, Note_on_c, 4, 64, 127
1, 1666550, Note_off_c, 4, 64, 127
1, 1666550, Note_off_c, 7, 67, 127
1, 1666554, Note_on_c, 6, 66, 127
1, 1666554, Note_on_c, 2, 62, 127
1, 1666711, Note_off_c, 2, 62, 127
1, 1666711, Note_off_c, 6, 66, 127
1, 1666715, Note_on_c, 7, 67, 127
1, 1666715, Note_on_c, 4, 64, 127
1, 1666872, Note_off_c, 4, 64, 127
1, 1666872, Note_off_c, 7, 67, 127
1, 1666877, Note_on_c, 4, 64, 127
1, 1666877, Note_on_c, 7, 67, 127
1, 1667034, Note_off_c, 7, 67, 127
1, 1667034, Note_off_c, 4, 64, 127
1, 1667038, Note_on_c, 1, 61, 127
1, 1667038, Note_on_c, 10, 69, 127
1, 1667195, Note_off_c, 10, 69, 127
1, 1667195, Note_off_c, 1, 61, 127
1, 1667199, Note_on_c, 12, 59, 127
1, 1667199, Note_on_c, 7, 67, 127
1, 1667356, Note_off_c, 7, 67, 127
1, 1667356, Note_off_c, 12, 59, 127
1, 1667360, Note_on_c, 1, 61, 127
1, 1667360, Note_on_c, 10, 69, 127
1, 1667517, Note_off_c, 10, 69, 127
1, 1667517, Note_off_c, 1, 61, 127
1, 1667521, Note_on_c, 10, 57, 127
1, 1667521, Note_on_c, 7, 67, 127
1, 1667678, Note_off_c, 7, 67, 127
1, 1667678, Note_off_c, 10, 57, 127
1, 1667682, Note_on_c, 1, 61, 127
1, 1667682, Note_on_c, 4, 64, 127
1, 1667839, Note_off_c, 4, 64, 127
1, 1667839, Note_off_c, 1, 61, 127
1, 1667843, Note_on_c, 4, 64, 127
1, 1667843, Note_on_c, 1, 61, 127
1, 1668000, Note_off_c, 1, 61, 127
1, 1668000, Note_off_c, 4, 64, 127
1, 1668004, Note_on_c, 7, 67, 127
1, 1668004, Note_on_c, 10, 57, 127
1, 1668161, Note_off_c, 10, 57, 127
1, 1668161, Note_off_c, 7, 67, 127
1, 1668166, Note_on_c, 6, 66, 127
1, 1668166, Note_on_c, 2, 50, 127
1, 1668246, Note_on_c, 2, 62, 127
1, 1668246, Note_on_c, 6, 54, 127
1, 1668327, Note_on_c, 4, 64, 127
1, 1668327, Note_on_c, 7, 55, 127
1, 1668334, Note_off_c, 6, 54, 127
1, 1668334, Note_off_c, 2, 62, 127
1, 1668407, Note_on_c, 2, 62, 127
1, 1668407, Note_on_c, 6, 54, 127
1, 1668415, Note_off_c, 7, 55, 127
1, 1668415, Note_off_c, 4, 64, 127
1, 1668488, Note_on_c, 4, 64, 127
1, 1668488, Note_on_c, 7, 55, 127
1, 1668495, Note_off_c, 6, 54, 127
1, 1668495, Note_off_c, 2, 62, 127
1, 1668568, Note_on_c, 2, 62, 127
1, 1668568, Note_on_c, 6, 54, 127
1, 1668576, Note_off_c, 7, 55, 127
1, 1668576, Note_off_c, 4, 64, 127
1, 1668649, Note_on_c, 4, 64, 127
1, 1668649, Note_on_c, 7, 55, 127
1, 1668656, Note_off_c, 6, 54, 127
1, 1668656, Note_off_c, 2, 62, 127
1, 1668729, Note_on_c, 2, 62, 127
1, 1668729, Note_on_c, 6, 54, 127
1, 1668737, Note_off_c, 7, 55, 127
1, 1668737, Note_off_c, 4, 64, 127
1, 1668802, Note_off_c, 2, 50, 127
1, 1668802, Note_off_c, 6, 66, 127
1, 1668810, Note_on_c, 7, 67, 127
1, 1668810, Note_on_c, 12, 47, 127
1, 1668817, Note_off_c, 6, 54, 127
1, 1668817, Note_off_c, 2, 62, 127
1, 1668891, Note_on_c, 2, 62, 127
1, 1668891, Note_on_c, 6, 54, 127
1, 1668971, Note_on_c, 4, 64, 127
1, 1668971, Note_on_c, 7, 55, 127
1, 1668979, Note_off_c, 6, 54, 127
1, 1668979, Note_off_c, 2, 62, 127
1, 1669052, Note_on_c, 2, 62, 127
1, 1669052, Note_on_c, 6, 54, 127
1, 1669059, Note_off_c, 7, 55, 127
1, 1669059, Note_off_c, 4, 64, 127
1, 1669132, Note_on_c, 4, 64, 127
1, 1669132, Note_on_c, 7, 55, 127
1, 1669140, Note_off_c, 6, 54, 127
1, 1669140, Note_off_c, 2, 62, 127
1, 1669213, Note_on_c, 2, 62, 127
1, 1669213, Note_on_c, 6, 54, 127
1, 1669220, Note_off_c, 7, 55, 127
1, 1669220, Note_off_c, 4, 64, 127
1, 1669293, Note_on_c, 4, 64, 127
1, 1669293, Note_on_c, 7, 55, 127
1, 1669301, Note_off_c, 6, 54, 127
1, 1669301, Note_off_c, 2, 62, 127
1, 1669374, Note_on_c, 2, 62, 127
1, 1669374, Note_on_c, 6, 54, 127
1, 1669381, Note_off_c, 7, 55, 127
1, 1669381, Note_off_c, 4, 64, 127
1, 1669446, Note_off_c, 12, 47, 127
1, 1669446, Note_off_c, 7, 67, 127
1, 1669454, Note_on_c, 10, 69, 127
1, 1669454, Note_on_c, 10, 45, 127
1, 1669462, Note_off_c, 6, 54, 127
1, 1669462, Note_off_c, 2, 62, 127
1, 1669535, Note_on_c, 2, 62, 127
1, 1669535, Note_on_c, 6, 54, 127
1, 1669616, Note_on_c, 4, 64, 127
1, 1669616, Note_on_c, 7, 55, 127
1, 1669623, Note_off_c, 6, 54, 127
1, 1669623, Note_off_c, 2, 62, 127
1, 1669696, Note_on_c, 2, 62, 127
1, 1669696, Note_on_c, 6, 54, 127
1, 1669704, Note_off_c, 7, 55, 127
1, 1669704, Note_off_c, 4, 64, 127
1, 1669777, Note_on_c, 4, 64, 127
1, 1669777, Note_on_c, 7, 55, 127
1, 1669784, Note_off_c, 6, 54, 127
1, 1669784, Note_off_c, 2, 62, 127
1, 1669857, Note_on_c, 2, 62, 127
1, 1669857, Note_on_c, 6, 54, 127
1, 1669865, Note_off_c, 7, 55, 127
1, 1669865, Note_off_c, 4, 64, 127
1, 1669938, Note_on_c, 4, 64, 127
1, 1669938, Note_on_c, 7, 55, 127
1, 1669945, Note_off_c, 6, 54, 127
1, 1669945, Note_off_c, 2, 62, 127
1, 1670018, Note_on_c, 2, 62, 127
1, 1670018, Note_on_c, 6, 54, 127
1, 1670026, Note_off_c, 7, 55, 127
1, 1670026, Note_off_c, 4, 64, 127
1, 1670090, Note_off_c, 10, 45, 127
1, 1670090, Note_off_c, 10, 69, 127
1, 1670099, Note_on_c, 12, 71, 127
1, 1670099, Note_on_c, 7, 43, 127
1, 1670106, Note_off_c, 6, 54, 127
1, 1670106, Note_off_c, 2, 62, 127
1, 1670180, Note_on_c, 2, 62, 127
1, 1670180, Note_on_c, 6, 54, 127
1, 1670260, Note_on_c, 4, 64, 127
1, 1670260, Note_on_c, 7, 55, 127
1, 1670268, Note_off_c, 6, 54, 127
1, 1670268, Note_off_c, 2, 62, 127
1, 1670341, Note_on_c, 2, 62, 127
1, 1670341, Note_on_c, 6, 54, 127
1, 1670348, Note_off_c, 7, 55, 127
1, 1670348, Note_off_c, 4, 64, 127
1, 1670421, Note_on_c, 4, 64, 127
1, 1670421, Note_on_c, 7, 55, 127
1, 1670429, Note_off_c, 6, 54, 127
1, 1670429, Note_off_c, 2, 62, 127
1, 1670502, Note_on_c, 2, 62, 127
1, 1670502, Note_on_c, 6, 54, 127
1, 1670509, Note_off_c, 7, 55, 127
1, 1670509, Note_off_c, 4, 64, 127
1, 1670582, Note_on_c, 4, 64, 127
1, 1670582, Note_on_c, 7, 55, 127
1, 1670590, Note_off_c, 6, 54, 127
1, 1670590, Note_off_c, 2, 62, 127
1, 1670663, Note_on_c, 2, 62, 127
1, 1670663, Note_on_c, 6, 54, 127
1, 1670670, Note_off_c, 7, 55, 127
1, 1670670, Note_off_c, 4, 64, 127
1, 1670735, Note_off_c, 7, 43, 127
1, 1670735, Note_off_c, 12, 71, 127
1, 1670743, Note_on_c, 10, 69, 127
1, 1670743, Note_on_c, 10, 45, 127
1, 1670751, Note_off_c, 6, 54, 127
1, 1670751, Note_off_c, 2, 62, 127
1, 1670824, Note_on_c, 2, 62, 127
1, 1670824, Note_on_c, 6, 54, 127
1, 1670905, Note_on_c, 4, 64, 127
1, 1670905, Note_on_c, 7, 55, 127
1, 1670912, Note_off_c, 6, 54, 127
1, 1670912, Note_off_c, 2, 62, 127
1, 1670985, Note_on_c, 2, 62, 127
1, 1670985, Note_on_c, 6, 54, 127
1, 1670993, Note_off_c, 7, 55, 127
1, 1670993, Note_off_c, 4, 64, 127
1, 1671066, Note_on_c, 4, 64, 127
1, 1671066, Note_on_c, 7, 55, 127
1, 1671073, Note_off_c, 6, 54, 127
1, 1671073, Note_off_c, 2, 62, 127
1, 1671146, Note_on_c, 2, 62, 127
1, 1671146, Note_on_c, 6, 54, 127
1, 1671154, Note_off_c, 7, 55, 127
1, 1671154, Note_off_c, 4, 64, 127
1, 1671227, Note_on_c, 4, 64, 127
1, 1671227, Note_on_c, 7, 55, 127
1, 1671234, Note_off_c, 6, 54, 127
1, 1671234, Note_off_c, 2, 62, 127
1, 1671307, Note_on_c, 2, 62, 127
1, 1671307, Note_on_c, 6, 54, 127
1, 1671315, Note_off_c, 7, 55, 127
1, 1671315, Note_off_c, 4, 64, 127
1, 1671379, Note_off_c, 10, 45, 127
1, 1671379, Note_off_c, 10, 69, 127
1, 1671388, Note_on_c, 7, 67, 127
1, 1671388, Note_on_c, 12, 47, 127
1, 1671395, Note_off_c, 6, 54, 127
1, 1671395, Note_off_c, 2, 62, 127
1, 1671468, Note_on_c, 2, 62, 127
1, 1671468, Note_on_c, 6, 54, 127
1, 1671549, Note_on_c, 4, 64, 127
1, 1671549, Note_on_c, 7, 55, 127
1, 1671556, Note_off_c, 6, 54, 127
1, 1671556, Note_off_c, 2, 62, 127
1, 1671630, Note_on_c, 2, 62, 127
1, 1671630, Note_on_c, 6, 54, 127
1, 1671637, Note_off_c, 7, 55, 127
1, 1671637, Note_off_c, 4, 64, 127
1, 1671710, Note_on_c, 4, 64, 127
1, 1671710, Note_on_c, 7, 55, 127
1, 1671718, Note_off_c, 6, 54, 127
1, 1671718, Note_off_c, 2, 62, 127
1, 1671791, Note_on_c, 2, 62, 127
1, 1671791, Note_on_c, 6, 54, 127
1, 1671798, Note_off_c, 7, 55, 127
1, 1671798, Note_off_c, 4, 64, 127
1, 1671871, Note_on_c, 4, 64, 127
1, 1671871, Note_on_c, 7, 55, 127
1, 1671879, Note_off_c, 6, 54, 127
1, 1671879, Note_off_c, 2, 62, 127
1, 1671952, Note_on_c, 2, 62, 127
1, 1671952, Note_on_c, 6, 54, 127
1, 1671959, Note_off_c, 7, 55, 127
1, 1671959, Note_off_c, 4, 64, 127
1, 1672024, Note_off_c, 12, 47, 127
1, 1672024, Note_off_c, 7, 67, 127
1, 1672032, Note_on_c, 10, 69, 127
1, 1672032, Note_on_c, 10, 45, 127
1, 1672040, Note_off_c, 6, 54, 127
1, 1672040, Note_off_c, 2, 62, 127
1, 1672113, Note_on_c, 2, 62, 127
1, 1672113, Note_on_c, 6, 54, 127
1, 1672194, Note_on_c, 4, 64, 127
1, 1672194, Note_on_c, 7, 55, 127
1, 1672201, Note_off_c, 6, 54, 127
1, 1672201, Note_off_c, 2, 62, 127
1, 1672274, Note_on_c, 2, 62, 127
1, 1672274, Note_on_c, 6, 54, 127
1, 1672282, Note_off_c, 7, 55, 127
1, 1672282, Note_off_c, 4, 64, 127
1, 1672355, Note_on_c, 4, 64, 127
1, 1672355, Note_on_c, 7, 55, 127
1, 1672362, Note_off_c, 6, 54, 127
1, 1672362, Note_off_c, 2, 62, 127
1, 1672435, Note_on_c, 2, 62, 127
1, 1672435, Note_on_c, 6, 54, 127
1, 1672443, Note_off_c, 7, 55, 127
1, 1672443, Note_off_c, 4, 64, 127
1, 1672516, Note_on_c, 4, 64, 127
1, 1672516, Note_on_c, 7, 55, 127
1, 1672523, Note_off_c, 6, 54, 127
1, 1672523, Note_off_c, 2, 62, 127
1, 1672596, Note_on_c, 2, 62, 127
1, 1672596, Note_on_c, 6, 54, 127
1, 1672604, Note_off_c, 7, 55, 127
1, 1672604, Note_off_c, 4, 64, 127
1, 1672668, Note_off_c, 10, 45, 127
1, 1672668, Note_off_c, 10, 69, 127
1, 1672677, Note_on_c, 12, 71, 127
1, 1672677, Note_on_c, 7, 43, 127
1, 1672684, Note_off_c, 6, 54, 127
1, 1672684, Note_off_c, 2, 62, 127
1, 1672757, Note_on_c, 2, 62, 127
1, 1672757, Note_on_c, 6, 54, 127
1, 1672838, Note_on_c, 4, 64, 127
1, 1672838, Note_on_c, 7, 55, 127
1, 1672845, Note_off_c, 6, 54, 127
1, 1672845, Note_off_c, 2, 62, 127
1, 1672919, Note_on_c, 2, 62, 127
1, 1672919, Note_on_c, 6, 54, 127
1, 1672926, Note_off_c, 7, 55, 127
1, 1672926, Note_off_c, 4, 64, 127
1, 1672999, Note_on_c, 4, 64, 127
1, 1672999, Note_on_c, 7, 55, 127
1, 1673007, Note_off_c, 6, 54, 127
1, 1673007, Note_off_c, 2, 62, 127
1, 1673080, Note_on_c, 2, 62, 127
1, 1673080, Note_on_c, 6, 54, 127
1, 1673087, Note_off_c, 7, 55, 127
1, 1673087, Note_off_c, 4, 64, 127
1, 1673160, Note_on_c, 4, 64, 127
1, 1673160, Note_on_c, 7, 55, 127
1, 1673168, Note_off_c, 6, 54, 127
1, 1673168, Note_off_c, 2, 62, 127
1, 1673241, Note_on_c, 2, 62, 127
1, 1673241, Note_on_c, 6, 54, 127
1, 1673248, Note_off_c, 7, 55, 127
1, 1673248, Note_off_c, 4, 64, 127
1, 1673313, Note_off_c, 7, 43, 127
1, 1673313, Note_off_c, 12, 71, 127
1, 1673321, Note_on_c, 10, 69, 127
1, 1673321, Note_on_c, 10, 45, 127
1, 1673329, Note_off_c, 6, 54, 127
1, 1673329, Note_off_c, 2, 62, 127
1, 1673402, Note_on_c, 1, 61, 127
1, 1673402, Note_on_c, 4, 52, 127
1, 1673482, Note_on_c, 2, 62, 127
1, 1673482, Note_on_c, 6, 54, 127
1, 1673490, Note_off_c, 4, 52, 127
1, 1673490, Note_off_c, 1, 61, 127
1, 1673563, Note_on_c, 1, 61, 127
1, 1673563, Note_on_c, 4, 52, 127
1, 1673570, Note_off_c, 6, 54, 127
1, 1673570, Note_off_c, 2, 62, 127
1, 1673644, Note_on_c, 2, 62, 127
1, 1673644, Note_on_c, 6, 54, 127
1, 1673651, Note_off_c, 4, 52, 127
1, 1673651, Note_off_c, 1, 61, 127
1, 1673724, Note_on_c, 1, 61, 127
1, 1673724, Note_on_c, 4, 52, 127
1, 1673732, Note_off_c, 6, 54, 127
1, 1673732, Note_off_c, 2, 62, 127
1, 1673805, Note_on_c, 2, 62, 127
1, 1673805, Note_on_c, 6, 54, 127
1, 1673812, Note_off_c, 4, 52, 127
1, 1673812, Note_off_c, 1, 61, 127
1, 1673885, Note_on_c, 1, 61, 127
1, 1673885, Note_on_c, 4, 52, 127
1, 1673893, Note_off_c, 6, 54, 127
1, 1673893, Note_off_c, 2, 62, 127
1, 1673957, Note_off_c, 10, 45, 127
1, 1673957, Note_off_c, 10, 69, 127
1, 1673966, Note_on_c, 6, 66, 127
1, 1673966, Note_on_c, 2, 38, 127
1, 1673973, Note_off_c, 4, 52, 127
1, 1673973, Note_off_c, 1, 61, 127
1, 1674127, Note_on_c, 2, 62, 127
1, 1674127, Note_on_c, 6, 42, 127
1, 1674283, Note_off_c, 2, 38, 127
1, 1674283, Note_off_c, 6, 66, 127
1, 1674284, Note_off_c, 6, 42, 127
1, 1674284, Note_off_c, 2, 62, 127
1, 1674288, Note_on_c, 1, 61, 127
1, 1674288, Note_on_c, 4, 40, 127
1, 1674445, Note_off_c, 4, 40, 127
1, 1674445, Note_off_c, 1, 61, 127
1, 1674449, Note_on_c, 2, 62, 127
1, 1674449, Note_on_c, 6, 42, 127
1, 1674606, Note_off_c, 6, 42, 127
1, 1674606, Note_off_c, 2, 62, 127
1, 1674610, Note_on_c, 10, 57, 127
1, 1674610, Note_on_c, 10, 45, 127
1, 1674767, Note_off_c, 10, 45, 127
1, 1674767, Note_off_c, 10, 57, 127
1, 1674771, Note_on_c, 6, 54, 127
1, 1674771, Note_on_c, 2, 50, 127
1, 1674928, Note_off_c, 2, 50, 127
1, 1674928, Note_off_c, 6, 54, 127
1, 1674933, Note_on_c, 4, 52, 127
1, 1674933, Note_on_c, 1, 49, 127
1, 1675090, Note_off_c, 1, 49, 127
1, 1675090, Note_off_c, 4, 52, 127
1, 1675094, Note_on_c, 6, 54, 127
1, 1675094, Note_on_c, 2, 50, 127
1, 1675251, Note_off_c, 2, 50, 127
1, 1675251, Note_off_c, 6, 54, 127
1, 1675255, Note_on_c, 2, 50, 127
1, 1675255, Note_on_c, 6, 54, 127
1, 1675572, Note_off_c, 6, 54, 127
1, 1675577, Note_on_c, 10, 57, 127
1, 1675891, Note_off_c, 2, 50, 127
1, 1675894, Note_off_c, 10, 57, 127
1, 1675899, Note_on_c, 6, 66, 127
1, 1675899, Note_on_c, 2, 62, 127
1, 1676056, Note_off_c, 6, 66, 127
1, 1676060, Note_on_c, 10, 69, 127
1, 1676216, Note_off_c, 2, 62, 127
1, 1676217, Note_off_c, 10, 69, 127
1, 1676222, Note_on_c, 7, 67, 127
1, 1676222, Note_on_c, 4, 52, 127
1, 1676379, Note_off_c, 7, 67, 127
1, 1676383, Note_on_c, 10, 69, 127
1, 1676539, Note_off_c, 4, 52, 127
1, 1676540, Note_off_c, 10, 69, 127
1, 1676544, Note_on_c, 2, 74, 127
1, 1676544, Note_on_c, 6, 54, 127
1, 1676701, Note_off_c, 2, 74, 127
1, 1676705, Note_on_c, 6, 78, 127
1, 1676861, Note_off_c, 6, 54, 127
1, 1676862, Note_off_c, 6, 78, 127
1, 1676866, Note_on_c, 4, 76, 127
1, 1676866, Note_on_c, 0, 60, 127
1, 1677023, Note_off_c, 4, 76, 127
1, 1677027, Note_on_c, 6, 78, 127
1, 1677183, Note_off_c, 0, 60, 127
1, 1677184, Note_off_c, 6, 78, 127
1, 1677188, Note_on_c, 10, 81, 127
1, 1677188, Note_on_c, 2, 50, 127
1, 1677345, Note_off_c, 10, 81, 127
1, 1677349, Note_on_c, 6, 78, 127
1, 1677505, Note_off_c, 2, 50, 127
1, 1677506, Note_off_c, 6, 78, 127
1, 1677510, Note_on_c, 0, 72, 127
1, 1677510, Note_on_c, 6, 66, 127
1, 1677667, Note_off_c, 0, 72, 127
1, 1677672, Note_on_c, 10, 69, 127
1, 1677827, Note_off_c, 6, 66, 127
1, 1677829, Note_off_c, 10, 69, 127
1, 1677833, Note_on_c, 12, 71, 127
1, 1677833, Note_on_c, 7, 67, 127
1, 1677990, Note_off_c, 12, 71, 127
1, 1677994, Note_on_c, 2, 74, 127
1, 1678150, Note_off_c, 7, 67, 127
1, 1678151, Note_off_c, 2, 74, 127
1, 1678155, Note_on_c, 0, 72, 127
1, 1678155, Note_on_c, 10, 57, 127
1, 1678312, Note_off_c, 0, 72, 127
1, 1678316, Note_on_c, 2, 74, 127
1, 1678472, Note_off_c, 10, 57, 127
1, 1678473, Note_off_c, 2, 74, 127
1, 1678477, Note_on_c, 7, 79, 127
1, 1678477, Note_on_c, 12, 59, 127
1, 1678634, Note_off_c, 7, 79, 127
1, 1678638, Note_on_c, 12, 83, 127
1, 1678794, Note_off_c, 12, 59, 127
1, 1678795, Note_off_c, 12, 83, 127
1, 1678799, Note_on_c, 10, 81, 127
1, 1678799, Note_on_c, 5, 65, 127
1, 1678956, Note_off_c, 10, 81, 127
1, 1678961, Note_on_c, 12, 83, 127
1, 1679116, Note_off_c, 5, 65, 127
1, 1679118, Note_off_c, 12, 83, 127
1, 1679122, Note_on_c, 2, 86, 127
1, 1679122, Note_on_c, 7, 55, 127
1, 1679279, Note_off_c, 2, 86, 127
1, 1679283, Note_on_c, 12, 83, 127
1, 1679439, Note_off_c, 7, 55, 127
1, 1679440, Note_off_c, 12, 83, 127
1, 1679444, Note_on_c, 5, 77, 127
1, 1679444, Note_on_c, 12, 71, 127
1, 1679601, Note_off_c, 5, 77, 127
1, 1679605, Note_on_c, 2, 74, 127
1, 1679761, Note_off_c, 12, 71, 127
1, 1679762, Note_off_c, 2, 74, 127
1, 1679766, Note_on_c, 4, 76, 127
1, 1679766, Note_on_c, 0, 72, 127
1, 1679923, Note_off_c, 0, 72, 127
1, 1679927, Note_on_c, 7, 67, 127
1, 1680083, Note_off_c, 4, 76, 127
1, 1680084, Note_off_c, 7, 67, 127
1, 1680088, Note_on_c, 12, 71, 127
1, 1680088, Note_on_c, 5, 65, 127
1, 1680245, Note_off_c, 5, 65, 127
1, 1680250, Note_on_c, 7, 67, 127
1, 1680405, Note_off_c, 12, 71, 127
1, 1680407, Note_off_c, 7, 67, 127
1, 1680411, Note_on_c, 0, 72, 127
1, 1680411, Note_on_c, 4, 64, 127
1, 1680568, Note_off_c, 4, 64, 127
1, 1680572, Note_on_c, 0, 60, 127
1, 1680728, Note_off_c, 0, 72, 127
1, 1680729, Note_off_c, 0, 60, 127
1, 1680733, Note_on_c, 3, 63, 127
1, 1680733, Note_on_c, 12, 59, 127
1, 1680890, Note_off_c, 12, 59, 127
1, 1680894, Note_on_c, 0, 60, 127
1, 1681050, Note_off_c, 3, 63, 127
1, 1681051, Note_off_c, 0, 60, 127
1, 1681055, Note_on_c, 4, 64, 127
1, 1681055, Note_on_c, 10, 57, 127
1, 1681212, Note_off_c, 10, 57, 127
1, 1681216, Note_on_c, 0, 60, 127
1, 1681372, Note_off_c, 4, 64, 127
1, 1681373, Note_off_c, 0, 60, 127
1, 1681377, Note_on_c, 7, 55, 127
1, 1681377, Note_on_c, 4, 64, 127
1, 1681534, Note_off_c, 4, 64, 127
1, 1681538, Note_on_c, 10, 69, 127
1, 1681694, Note_off_c, 7, 55, 127
1, 1681695, Note_off_c, 10, 69, 127
1, 1681700, Note_on_c, 6, 54, 127
1, 1681700, Note_on_c, 3, 63, 127
1, 1681857, Note_off_c, 3, 63, 127
1, 1681861, Note_on_c, 12, 59, 127
1, 1682017, Note_off_c, 6, 54, 127
1, 1682018, Note_off_c, 12, 59, 127
1, 1682022, Note_on_c, 4, 76, 127
1, 1682022, Note_on_c, 11, 58, 127
1, 1682179, Note_off_c, 11, 58, 127
1, 1682183, Note_on_c, 12, 59, 127
1, 1682339, Note_off_c, 4, 76, 127
1, 1682340, Note_off_c, 12, 59, 127
1, 1682344, Note_on_c, 3, 75, 127
1, 1682344, Note_on_c, 6, 54, 127
1, 1682501, Note_off_c, 6, 54, 127
1, 1682501, Note_off_c, 3, 75, 127
1, 1682505, Note_on_c, 6, 78, 127
1, 1682505, Note_on_c, 3, 51, 127
1, 1682662, Note_off_c, 3, 51, 127
1, 1682662, Note_off_c, 6, 78, 127
1, 1682666, Note_on_c, 4, 76, 127
1, 1682666, Note_on_c, 1, 49, 127
1, 1682823, Note_off_c, 1, 49, 127
1, 1682823, Note_off_c, 4, 76, 127
1, 1682827, Note_on_c, 6, 78, 127
1, 1682827, Note_on_c, 3, 51, 127
1, 1682984, Note_off_c, 3, 51, 127
1, 1682984, Note_off_c, 6, 78, 127
1, 1682989, Note_on_c, 10, 81, 127
1, 1682989, Note_on_c, 12, 47, 127
1, 1683146, Note_off_c, 12, 47, 127
1, 1683146, Note_off_c, 10, 81, 127
1, 1683150, Note_on_c, 6, 78, 127
1, 1683150, Note_on_c, 3, 51, 127
1, 1683307, Note_off_c, 3, 51, 127
1, 1683307, Note_off_c, 6, 78, 127
1, 1683311, Note_on_c, 3, 75, 127
1, 1683311, Note_on_c, 6, 54, 127
1, 1683468, Note_off_c, 6, 54, 127
1, 1683468, Note_off_c, 3, 75, 127
1, 1683472, Note_on_c, 6, 78, 127
1, 1683472, Note_on_c, 10, 57, 127
1, 1683629, Note_off_c, 10, 57, 127
1, 1683629, Note_off_c, 6, 78, 127
1, 1683633, Note_on_c, 12, 71, 127
1, 1683633, Note_on_c, 7, 55, 127
1, 1683714, Note_on_c, 7, 79, 127
1, 1683714, Note_on_c, 4, 64, 127
1, 1683794, Note_on_c, 10, 81, 127
1, 1683794, Note_on_c, 6, 66, 127
1, 1683802, Note_off_c, 4, 64, 127
1, 1683802, Note_off_c, 7, 79, 127
1, 1683875, Note_on_c, 7, 79, 127
1, 1683875, Note_on_c, 4, 64, 127
1, 1683882, Note_off_c, 6, 66, 127
1, 1683882, Note_off_c, 10, 81, 127
1, 1683955, Note_on_c, 10, 81, 127
1, 1683955, Note_on_c, 6, 66, 127
1, 1683963, Note_off_c, 4, 64, 127
1, 1683963, Note_off_c, 7, 79, 127
1, 1684036, Note_on_c, 7, 79, 127
1, 1684036, Note_on_c, 4, 64, 127
1, 1684043, Note_off_c, 6, 66, 127
1, 1684043, Note_off_c, 10, 81, 127
1, 1684116, Note_on_c, 10, 81, 127
1, 1684116, Note_on_c, 6, 66, 127
1, 1684124, Note_off_c, 4, 64, 127
1, 1684124, Note_off_c, 7, 79, 127
1, 1684197, Note_on_c, 7, 79, 127
1, 1684197, Note_on_c, 4, 64, 127
1, 1684204, Note_off_c, 6, 66, 127
1, 1684204, Note_off_c, 10, 81, 127
1, 1684269, Note_off_c, 7, 55, 127
1, 1684269, Note_off_c, 12, 71, 127
1, 1684278, Note_on_c, 1, 73, 127
1, 1684278, Note_on_c, 10, 57, 127
1, 1684285, Note_off_c, 4, 64, 127
1, 1684285, Note_off_c, 7, 79, 127
1, 1684358, Note_on_c, 7, 79, 127
1, 1684358, Note_on_c, 4, 64, 127
1, 1684439, Note_on_c, 10, 81, 127
1, 1684439, Note_on_c, 6, 66, 127
1, 1684446, Note_off_c, 4, 64, 127
1, 1684446, Note_off_c, 7, 79, 127
1, 1684519, Note_on_c, 7, 79, 127
1, 1684519, Note_on_c, 4, 64, 127
1, 1684527, Note_off_c, 6, 66, 127
1, 1684527, Note_off_c, 10, 81, 127
1, 1684600, Note_on_c, 10, 81, 127
1, 1684600, Note_on_c, 6, 66, 127
1, 1684607, Note_off_c, 4, 64, 127
1, 1684607, Note_off_c, 7, 79, 127
1, 1684680, Note_on_c, 7, 79, 127
1, 1684680, Note_on_c, 4, 64, 127
1, 1684688, Note_off_c, 6, 66, 127
1, 1684688, Note_off_c, 10, 81, 127
1, 1684761, Note_on_c, 10, 81, 127
1, 1684761, Note_on_c, 6, 66, 127
1, 1684768, Note_off_c, 4, 64, 127
1, 1684768, Note_off_c, 7, 79, 127
1, 1684841, Note_on_c, 7, 79, 127
1, 1684841, Note_on_c, 4, 64, 127
1, 1684849, Note_off_c, 6, 66, 127
1, 1684849, Note_off_c, 10, 81, 127
1, 1684914, Note_off_c, 10, 57, 127
1, 1684914, Note_off_c, 1, 73, 127
1, 1684922, Note_on_c, 3, 75, 127
1, 1684922, Note_on_c, 12, 59, 127
1, 1684929, Note_off_c, 4, 64, 127
1, 1684929, Note_off_c, 7, 79, 127
1, 1685003, Note_on_c, 7, 79, 127
1, 1685003, Note_on_c, 4, 64, 127
1, 1685083, Note_on_c, 10, 81, 127
1, 1685083, Note_on_c, 6, 66, 127
1, 1685091, Note_off_c, 4, 64, 127
1, 1685091, Note_off_c, 7, 79, 127
1, 1685164, Note_on_c, 7, 79, 127
1, 1685164, Note_on_c, 4, 64, 127
1, 1685171, Note_off_c, 6, 66, 127
1, 1685171, Note_off_c, 10, 81, 127
1, 1685244, Note_on_c, 10, 81, 127
1, 1685244, Note_on_c, 6, 66, 127
1, 1685252, Note_off_c, 4, 64, 127
1, 1685252, Note_off_c, 7, 79, 127
1, 1685325, Note_on_c, 7, 79, 127
1, 1685325, Note_on_c, 4, 64, 127
1, 1685332, Note_off_c, 6, 66, 127
1, 1685332, Note_off_c, 10, 81, 127
1, 1685405, Note_on_c, 10, 81, 127
1, 1685405, Note_on_c, 6, 66, 127
1, 1685413, Note_off_c, 4, 64, 127
1, 1685413, Note_off_c, 7, 79, 127
1, 1685486, Note_on_c, 7, 79, 127
1, 1685486, Note_on_c, 4, 64, 127
1, 1685493, Note_off_c, 6, 66, 127
1, 1685493, Note_off_c, 10, 81, 127
1, 1685558, Note_off_c, 12, 59, 127
1, 1685558, Note_off_c, 3, 75, 127
1, 1685566, Note_on_c, 4, 76, 127
1, 1685566, Note_on_c, 0, 60, 127
1, 1685574, Note_off_c, 4, 64, 127
1, 1685574, Note_off_c, 7, 79, 127
1, 1685647, Note_on_c, 7, 79, 127
1, 1685647, Note_on_c, 4, 64, 127
1, 1685728, Note_on_c, 10, 81, 127
1, 1685728, Note_on_c, 6, 66, 127
1, 1685735, Note_off_c, 4, 64, 127
1, 1685735, Note_off_c, 7, 79, 127
1, 1685808, Note_on_c, 7, 79, 127
1, 1685808, Note_on_c, 4, 64, 127
1, 1685816, Note_off_c, 6, 66, 127
1, 1685816, Note_off_c, 10, 81, 127
1, 1685889, Note_on_c, 10, 81, 127
1, 1685889, Note_on_c, 6, 66, 127
1, 1685896, Note_off_c, 4, 64, 127
1, 1685896, Note_off_c, 7, 79, 127
1, 1685969, Note_on_c, 7, 79, 127
1, 1685969, Note_on_c, 4, 64, 127
1, 1685977, Note_off_c, 6, 66, 127
1, 1685977, Note_off_c, 10, 81, 127
1, 1686050, Note_on_c, 10, 81, 127
1, 1686050, Note_on_c, 6, 66, 127
1, 1686057, Note_off_c, 4, 64, 127
1, 1686057, Note_off_c, 7, 79, 127
1, 1686130, Note_on_c, 7, 79, 127
1, 1686130, Note_on_c, 4, 64, 127
1, 1686138, Note_off_c, 6, 66, 127
1, 1686138, Note_off_c, 10, 81, 127
1, 1686202, Note_off_c, 0, 60, 127
1, 1686202, Note_off_c, 4, 76, 127
1, 1686211, Note_on_c, 3, 75, 127
1, 1686211, Note_on_c, 12, 59, 127
1, 1686218, Note_off_c, 4, 64, 127
1, 1686218, Note_off_c, 7, 79, 127
1, 1686292, Note_on_c, 7, 79, 127
1, 1686292, Note_on_c, 4, 64, 127
1, 1686372, Note_on_c, 10, 81, 127
1, 1686372, Note_on_c, 6, 66, 127
1, 1686380, Note_off_c, 4, 64, 127
1, 1686380, Note_off_c, 7, 79, 127
1, 1686453, Note_on_c, 7, 79, 127
1, 1686453, Note_on_c, 4, 64, 127
1, 1686460, Note_off_c, 6, 66, 127
1, 1686460, Note_off_c, 10, 81, 127
1, 1686533, Note_on_c, 10, 81, 127
1, 1686533, Note_on_c, 6, 66, 127
1, 1686541, Note_off_c, 4, 64, 127
1, 1686541, Note_off_c, 7, 79, 127
1, 1686614, Note_on_c, 7, 79, 127
1, 1686614, Note_on_c, 4, 64, 127
1, 1686621, Note_off_c, 6, 66, 127
1, 1686621, Note_off_c, 10, 81, 127
1, 1686694, Note_on_c, 10, 81, 127
1, 1686694, Note_on_c, 6, 66, 127
1, 1686702, Note_off_c, 4, 64, 127
1, 1686702, Note_off_c, 7, 79, 127
1, 1686775, Note_on_c, 7, 79, 127
1, 1686775, Note_on_c, 4, 64, 127
1, 1686782, Note_off_c, 6, 66, 127
1, 1686782, Note_off_c, 10, 81, 127
1, 1686847, Note_off_c, 12, 59, 127
1, 1686847, Note_off_c, 3, 75, 127
1, 1686855, Note_on_c, 4, 76, 127
1, 1686855, Note_on_c, 0, 60, 127
1, 1686863, Note_off_c, 4, 64, 127
1, 1686863, Note_off_c, 7, 79, 127
1, 1686936, Note_on_c, 7, 79, 127
1, 1686936, Note_on_c, 4, 64, 127
1, 1687017, Note_on_c, 10, 81, 127
1, 1687017, Note_on_c, 6, 66, 127
1, 1687024, Note_off_c, 4, 64, 127
1, 1687024, Note_off_c, 7, 79, 127
1, 1687097, Note_on_c, 7, 79, 127
1, 1687097, Note_on_c, 4, 64, 127
1, 1687105, Note_off_c, 6, 66, 127
1, 1687105, Note_off_c, 10, 81, 127
1, 1687178, Note_on_c, 10, 81, 127
1, 1687178, Note_on_c, 6, 66, 127
1, 1687185, Note_off_c, 4, 64, 127
1, 1687185, Note_off_c, 7, 79, 127
1, 1687258, Note_on_c, 7, 79, 127
1, 1687258, Note_on_c, 4, 64, 127
1, 1687266, Note_off_c, 6, 66, 127
1, 1687266, Note_off_c, 10, 81, 127
1, 1687339, Note_on_c, 10, 81, 127
1, 1687339, Note_on_c, 6, 66, 127
1, 1687346, Note_off_c, 4, 64, 127
1, 1687346, Note_off_c, 7, 79, 127
1, 1687419, Note_on_c, 7, 79, 127
1, 1687419, Note_on_c, 4, 64, 127
1, 1687427, Note_off_c, 6, 66, 127
1, 1687427, Note_off_c, 10, 81, 127
1, 1687491, Note_off_c, 0, 60, 127
1, 1687491, Note_off_c, 4, 76, 127
1, 1687500, Note_on_c, 1, 73, 127
1, 1687500, Note_on_c, 11, 58, 127
1, 1687507, Note_off_c, 4, 64, 127
1, 1687507, Note_off_c, 7, 79, 127
1, 1687580, Note_on_c, 7, 79, 127
1, 1687580, Note_on_c, 4, 64, 127
1, 1687661, Note_on_c, 10, 81, 127
1, 1687661, Note_on_c, 6, 66, 127
1, 1687668, Note_off_c, 4, 64, 127
1, 1687668, Note_off_c, 7, 79, 127
1, 1687742, Note_on_c, 7, 79, 127
1, 1687742, Note_on_c, 4, 64, 127
1, 1687749, Note_off_c, 6, 66, 127
1, 1687749, Note_off_c, 10, 81, 127
1, 1687822, Note_on_c, 10, 81, 127
1, 1687822, Note_on_c, 6, 66, 127
1, 1687830, Note_off_c, 4, 64, 127
1, 1687830, Note_off_c, 7, 79, 127
1, 1687903, Note_on_c, 7, 79, 127
1, 1687903, Note_on_c, 4, 64, 127
1, 1687910, Note_off_c, 6, 66, 127
1, 1687910, Note_off_c, 10, 81, 127
1, 1687983, Note_on_c, 10, 81, 127
1, 1687983, Note_on_c, 6, 66, 127
1, 1687991, Note_off_c, 4, 64, 127
1, 1687991, Note_off_c, 7, 79, 127
1, 1688064, Note_on_c, 7, 79, 127
1, 1688064, Note_on_c, 4, 64, 127
1, 1688071, Note_off_c, 6, 66, 127
1, 1688071, Note_off_c, 10, 81, 127
1, 1688136, Note_off_c, 11, 58, 127
1, 1688136, Note_off_c, 1, 73, 127
1, 1688144, Note_on_c, 12, 71, 127
1, 1688144, Note_on_c, 12, 59, 127
1, 1688152, Note_off_c, 4, 64, 127
1, 1688152, Note_off_c, 7, 79, 127
1, 1688225, Note_on_c, 7, 79, 127
1, 1688225, Note_on_c, 4, 64, 127
1, 1688306, Note_on_c, 10, 81, 127
1, 1688306, Note_on_c, 6, 66, 127
1, 1688313, Note_off_c, 4, 64, 127
1, 1688313, Note_off_c, 7, 79, 127
1, 1688386, Note_on_c, 7, 79, 127
1, 1688386, Note_on_c, 4, 64, 127
1, 1688394, Note_off_c, 6, 66, 127
1, 1688394, Note_off_c, 10, 81, 127
1, 1688467, Note_on_c, 10, 81, 127
1, 1688467, Note_on_c, 6, 66, 127
1, 1688474, Note_off_c, 4, 64, 127
1, 1688474, Note_off_c, 7, 79, 127
1, 1688547, Note_on_c, 7, 79, 127
1, 1688547, Note_on_c, 4, 64, 127
1, 1688555, Note_off_c, 6, 66, 127
1, 1688555, Note_off_c, 10, 81, 127
1, 1688628, Note_on_c, 10, 81, 127
1, 1688628, Note_on_c, 6, 66, 127
1, 1688635, Note_off_c, 4, 64, 127
1, 1688635, Note_off_c, 7, 79, 127
1, 1688708, Note_on_c, 7, 79, 127
1, 1688708, Note_on_c, 4, 64, 127
1, 1688716, Note_off_c, 6, 66, 127
1, 1688716, Note_off_c, 10, 81, 127
1, 1688780, Note_off_c, 12, 59, 127
1, 1688780, Note_off_c, 12, 71, 127
1, 1688789, Note_on_c, 10, 69, 127
1, 1688789, Note_on_c, 12, 59, 127
1, 1688796, Note_off_c, 4, 64, 127
1, 1688796, Note_off_c, 7, 79, 127
1, 1688869, Note_on_c, 6, 78, 127
1, 1688869, Note_on_c, 3, 63, 127
1, 1688950, Note_on_c, 7, 79, 127
1, 1688950, Note_on_c, 4, 64, 127
1, 1688957, Note_off_c, 3, 63, 127
1, 1688957, Note_off_c, 6, 78, 127
1, 1689031, Note_on_c, 6, 78, 127
1, 1689031, Note_on_c, 3, 63, 127
1, 1689038, Note_off_c, 4, 64, 127
1, 1689038, Note_off_c, 7, 79, 127
1, 1689111, Note_on_c, 7, 79, 127
1, 1689111, Note_on_c, 4, 64, 127
1, 1689119, Note_off_c, 3, 63, 127
1, 1689119, Note_off_c, 6, 78, 127
1, 1689192, Note_on_c, 6, 78, 127
1, 1689192, Note_on_c, 3, 63, 127
1, 1689199, Note_off_c, 4, 64, 127
1, 1689199, Note_off_c, 7, 79, 127
1, 1689272, Note_on_c, 7, 79, 127
1, 1689272, Note_on_c, 4, 64, 127
1, 1689280, Note_off_c, 3, 63, 127
1, 1689280, Note_off_c, 6, 78, 127
1, 1689353, Note_on_c, 6, 78, 127
1, 1689353, Note_on_c, 3, 63, 127
1, 1689360, Note_off_c, 4, 64, 127
1, 1689360, Note_off_c, 7, 79, 127
1, 1689425, Note_off_c, 12, 59, 127
1, 1689425, Note_off_c, 10, 69, 127
1, 1689433, Note_on_c, 4, 76, 127
1, 1689433, Note_on_c, 4, 52, 127
1, 1689441, Note_off_c, 3, 63, 127
1, 1689441, Note_off_c, 6, 78, 127
1, 1689590, Note_off_c, 4, 52, 127
1, 1689590, Note_off_c, 4, 76, 127
1, 1689594, Note_on_c, 7, 67, 127
1, 1689594, Note_on_c, 4, 64, 127
1, 1689751, Note_off_c, 4, 64, 127
1, 1689751, Note_off_c, 7, 67, 127
1, 1689756, Note_on_c, 6, 66, 127
1, 1689756, Note_on_c, 3, 63, 127
1, 1689913, Note_off_c, 3, 63, 127
1, 1689913, Note_off_c, 6, 66, 127
1, 1689917, Note_on_c, 7, 67, 127
1, 1689917, Note_on_c, 4, 64, 127
1, 1690074, Note_off_c, 4, 64, 127
1, 1690074, Note_off_c, 7, 67, 127
1, 1690078, Note_on_c, 12, 71, 127
1, 1690078, Note_on_c, 12, 59, 127
1, 1690235, Note_off_c, 12, 59, 127
1, 1690235, Note_off_c, 12, 71, 127
1, 1690239, Note_on_c, 4, 76, 127
1, 1690239, Note_on_c, 7, 55, 127
1, 1690396, Note_off_c, 7, 55, 127
1, 1690396, Note_off_c, 4, 76, 127
1, 1690400, Note_on_c, 3, 75, 127
1, 1690400, Note_on_c, 6, 54, 127
1, 1690557, Note_off_c, 6, 54, 127
1, 1690557, Note_off_c, 3, 75, 127
1, 1690561, Note_on_c, 4, 76, 127
1, 1690561, Note_on_c, 7, 55, 127
1, 1690718, Note_off_c, 7, 55, 127
1, 1690718, Note_off_c, 4, 76, 127
1, 1690722, Note_on_c, 7, 79, 127
1, 1690722, Note_on_c, 4, 52, 127
1, 1690803, Note_on_c, 5, 77, 127
1, 1690810, Note_off_c, 7, 79, 127
1, 1690879, Note_off_c, 4, 52, 127
1, 1690883, Note_on_c, 4, 76, 127
1, 1690883, Note_on_c, 7, 55, 127
1, 1690891, Note_off_c, 5, 77, 127
1, 1691040, Note_off_c, 7, 55, 127
1, 1691040, Note_off_c, 4, 76, 127
1, 1691045, Note_on_c, 5, 77, 127
1, 1691045, Note_on_c, 12, 59, 127
1, 1691125, Note_on_c, 4, 76, 127
1, 1691133, Note_off_c, 5, 77, 127
1, 1691202, Note_off_c, 12, 59, 127
1, 1691206, Note_on_c, 2, 74, 127
1, 1691206, Note_on_c, 2, 62, 127
1, 1691213, Note_off_c, 4, 76, 127
1, 1691363, Note_off_c, 2, 62, 127
1, 1691363, Note_off_c, 2, 74, 127
1, 1691367, Note_on_c, 4, 76, 127
1, 1691367, Note_on_c, 0, 60, 127
1, 1691447, Note_on_c, 7, 67, 127
1, 1691528, Note_on_c, 10, 69, 127
1, 1691535, Note_off_c, 7, 67, 127
1, 1691608, Note_on_c, 7, 67, 127
1, 1691616, Note_off_c, 10, 69, 127
1, 1691684, Note_off_c, 4, 76, 127
1, 1691689, Note_on_c, 4, 64, 127
1, 1691689, Note_on_c, 10, 69, 127
1, 1691696, Note_off_c, 7, 67, 127
1, 1691770, Note_on_c, 7, 67, 127
1, 1691777, Note_off_c, 10, 69, 127
1, 1691850, Note_on_c, 10, 69, 127
1, 1691858, Note_off_c, 7, 67, 127
1, 1691931, Note_on_c, 7, 67, 127
1, 1691938, Note_off_c, 10, 69, 127
1, 1692003, Note_off_c, 0, 60, 127
1, 1692006, Note_off_c, 4, 64, 127
1, 1692011, Note_on_c, 3, 63, 127
1, 1692011, Note_on_c, 12, 59, 127
1, 1692019, Note_off_c, 7, 67, 127
1, 1692092, Note_on_c, 7, 67, 127
1, 1692172, Note_on_c, 10, 69, 127
1, 1692180, Note_off_c, 7, 67, 127
1, 1692253, Note_on_c, 7, 67, 127
1, 1692260, Note_off_c, 10, 69, 127
1, 1692328, Note_off_c, 3, 63, 127
1, 1692334, Note_on_c, 2, 62, 127
1, 1692334, Note_on_c, 10, 69, 127
1, 1692341, Note_off_c, 7, 67, 127
1, 1692414, Note_on_c, 7, 67, 127
1, 1692422, Note_off_c, 10, 69, 127
1, 1692495, Note_on_c, 10, 69, 127
1, 1692502, Note_off_c, 7, 67, 127
1, 1692575, Note_on_c, 7, 67, 127
1, 1692583, Note_off_c, 10, 69, 127
1, 1692647, Note_off_c, 12, 59, 127
1, 1692651, Note_off_c, 2, 62, 127
1, 1692656, Note_on_c, 1, 61, 127
1, 1692656, Note_on_c, 10, 57, 127
1, 1692663, Note_off_c, 7, 67, 127
1, 1692736, Note_on_c, 7, 67, 127
1, 1692817, Note_on_c, 10, 69, 127
1, 1692824, Note_off_c, 7, 67, 127
1, 1692897, Note_on_c, 7, 67, 127
1, 1692905, Note_off_c, 10, 69, 127
1, 1692973, Note_off_c, 1, 61, 127
1, 1692978, Note_on_c, 4, 76, 127
1, 1692978, Note_on_c, 10, 69, 127
1, 1692985, Note_off_c, 7, 67, 127
1, 1693059, Note_on_c, 7, 67, 127
1, 1693066, Note_off_c, 10, 69, 127
1, 1693139, Note_on_c, 10, 69, 127
1, 1693147, Note_off_c, 7, 67, 127
1, 1693220, Note_on_c, 7, 67, 127
1, 1693227, Note_off_c, 10, 69, 127
1, 1693292, Note_off_c, 10, 57, 127
1, 1693295, Note_off_c, 4, 76, 127
1, 1693300, Note_on_c, 2, 74, 127
1, 1693300, Note_on_c, 12, 59, 127
1, 1693308, Note_off_c, 7, 67, 127
1, 1693381, Note_on_c, 7, 67, 127
1, 1693461, Note_on_c, 10, 69, 127
1, 1693469, Note_off_c, 7, 67, 127
1, 1693542, Note_on_c, 7, 67, 127
1, 1693549, Note_off_c, 10, 69, 127
1, 1693617, Note_off_c, 2, 74, 127
1, 1693622, Note_on_c, 2, 62, 127
1, 1693622, Note_on_c, 10, 69, 127
1, 1693630, Note_off_c, 7, 67, 127
1, 1693703, Note_on_c, 7, 67, 127
1, 1693710, Note_off_c, 10, 69, 127
1, 1693784, Note_on_c, 10, 69, 127
1, 1693791, Note_off_c, 7, 67, 127
1, 1693864, Note_on_c, 7, 67, 127
1, 1693872, Note_off_c, 10, 69, 127
1, 1693936, Note_off_c, 12, 59, 127
1, 1693939, Note_off_c, 2, 62, 127
1, 1693945, Note_on_c, 1, 61, 127
1, 1693945, Note_on_c, 10, 57, 127
1, 1693952, Note_off_c, 7, 67, 127
1, 1694025, Note_on_c, 7, 67, 127
1, 1694106, Note_on_c, 10, 69, 127
1, 1694113, Note_off_c, 7, 67, 127
1, 1694186, Note_on_c, 7, 67, 127
1, 1694194, Note_off_c, 10, 69, 127
1, 1694262, Note_off_c, 1, 61, 127
1, 1694267, Note_on_c, 0, 60, 127
1, 1694267, Note_on_c, 10, 69, 127
1, 1694274, Note_off_c, 7, 67, 127
1, 1694348, Note_on_c, 7, 67, 127
1, 1694355, Note_off_c, 10, 69, 127
1, 1694428, Note_on_c, 10, 69, 127
1, 1694436, Note_off_c, 7, 67, 127
1, 1694509, Note_on_c, 7, 67, 127
1, 1694516, Note_off_c, 10, 69, 127
1, 1694581, Note_off_c, 10, 57, 127
1, 1694584, Note_off_c, 0, 60, 127
1, 1694589, Note_on_c, 12, 59, 127
1, 1694589, Note_on_c, 7, 55, 127
1, 1694597, Note_off_c, 7, 67, 127
1, 1694670, Note_on_c, 7, 67, 127
1, 1694750, Note_on_c, 10, 69, 127
1, 1694758, Note_off_c, 7, 67, 127
1, 1694831, Note_on_c, 7, 67, 127
1, 1694838, Note_off_c, 10, 69, 127
1, 1694906, Note_off_c, 12, 59, 127
1, 1694911, Note_on_c, 2, 74, 127
1, 1694911, Note_on_c, 10, 69, 127
1, 1694919, Note_off_c, 7, 67, 127
1, 1694992, Note_on_c, 7, 67, 127
1, 1694999, Note_off_c, 10, 69, 127
1, 1695073, Note_on_c, 10, 69, 127
1, 1695080, Note_off_c, 7, 67, 127
1, 1695153, Note_on_c, 7, 67, 127
1, 1695161, Note_off_c, 10, 69, 127
1, 1695225, Note_off_c, 7, 55, 127
1, 1695228, Note_off_c, 2, 74, 127
1, 1695234, Note_on_c, 4, 64, 127
1, 1695234, Note_on_c, 10, 57, 127
1, 1695241, Note_off_c, 7, 67, 127
1, 1695314, Note_on_c, 0, 72, 127
1, 1695395, Note_on_c, 2, 74, 127
1, 1695402, Note_off_c, 0, 72, 127
1, 1695475, Note_on_c, 0, 72, 127
1, 1695483, Note_off_c, 2, 74, 127
1, 1695551, Note_off_c, 10, 57, 127
1, 1695556, Note_on_c, 2, 74, 127
1, 1695556, Note_on_c, 4, 76, 127
1, 1695563, Note_off_c, 0, 72, 127
1, 1695636, Note_on_c, 0, 72, 127
1, 1695644, Note_off_c, 2, 74, 127
1, 1695717, Note_on_c, 2, 74, 127
1, 1695724, Note_off_c, 0, 72, 127
1, 1695798, Note_on_c, 0, 72, 127
1, 1695805, Note_off_c, 2, 74, 127
1, 1695870, Note_off_c, 4, 64, 127
1, 1695873, Note_off_c, 4, 76, 127
1, 1695878, Note_on_c, 2, 62, 127
1, 1695878, Note_on_c, 5, 77, 127
1, 1695886, Note_off_c, 0, 72, 127
1, 1695959, Note_on_c, 0, 72, 127
1, 1696039, Note_on_c, 2, 74, 127
1, 1696047, Note_off_c, 0, 72, 127
1, 1696120, Note_on_c, 0, 72, 127
1, 1696127, Note_off_c, 2, 74, 127
1, 1696195, Note_off_c, 5, 77, 127
1, 1696200, Note_on_c, 2, 74, 127
1, 1696200, Note_on_c, 6, 78, 127
1, 1696208, Note_off_c, 0, 72, 127
1, 1696281, Note_on_c, 0, 72, 127
1, 1696288, Note_off_c, 2, 74, 127
1, 1696362, Note_on_c, 2, 74, 127
1, 1696369, Note_off_c, 0, 72, 127
1, 1696442, Note_on_c, 0, 72, 127
1, 1696450, Note_off_c, 2, 74, 127
1, 1696514, Note_off_c, 2, 62, 127
1, 1696517, Note_off_c, 6, 78, 127
1, 1696523, Note_on_c, 4, 64, 127
1, 1696523, Note_on_c, 7, 79, 127
1, 1696530, Note_off_c, 0, 72, 127
1, 1696603, Note_on_c, 0, 72, 127
1, 1696684, Note_on_c, 2, 74, 127
1, 1696691, Note_off_c, 0, 72, 127
1, 1696764, Note_on_c, 0, 72, 127
1, 1696772, Note_off_c, 2, 74, 127
1, 1696840, Note_off_c, 7, 79, 127
1, 1696845, Note_on_c, 2, 74, 127
1, 1696845, Note_on_c, 10, 57, 127
1, 1696852, Note_off_c, 0, 72, 127
1, 1696925, Note_on_c, 0, 72, 127
1, 1696933, Note_off_c, 2, 74, 127
1, 1697006, Note_on_c, 2, 74, 127
1, 1697013, Note_off_c, 0, 72, 127
1, 1697087, Note_on_c, 0, 72, 127
1, 1697094, Note_off_c, 2, 74, 127
1, 1697159, Note_off_c, 4, 64, 127
1, 1697162, Note_off_c, 10, 57, 127
1, 1697167, Note_on_c, 6, 66, 127
1, 1697167, Note_on_c, 2, 50, 127
1, 1697175, Note_off_c, 0, 72, 127
1, 1697248, Note_on_c, 0, 72, 127
1, 1697328, Note_on_c, 2, 74, 127
1, 1697336, Note_off_c, 0, 72, 127
1, 1697409, Note_on_c, 0, 72, 127
1, 1697416, Note_off_c, 2, 74, 127
1, 1697484, Note_off_c, 2, 50, 127
1, 1697489, Note_on_c, 2, 74, 127
1, 1697489, Note_on_c, 6, 78, 127
1, 1697497, Note_off_c, 0, 72, 127
1, 1697570, Note_on_c, 0, 72, 127
1, 1697577, Note_off_c, 2, 74, 127
1, 1697650, Note_on_c, 2, 74, 127
1, 1697658, Note_off_c, 0, 72, 127
1, 1697731, Note_on_c, 0, 72, 127
1, 1697738, Note_off_c, 2, 74, 127
1, 1697803, Note_off_c, 6, 66, 127
1, 1697806, Note_off_c, 6, 78, 127
1, 1697812, Note_on_c, 4, 64, 127
1, 1697812, Note_on_c, 7, 79, 127
1, 1697819, Note_off_c, 0, 72, 127
1, 1697892, Note_on_c, 0, 72, 127
1, 1697973, Note_on_c, 2, 74, 127
1, 1697980, Note_off_c, 0, 72, 127
1, 1698053, Note_on_c, 0, 72, 127
1, 1698061, Note_off_c, 2, 74, 127
1, 1698129, Note_off_c, 7, 79, 127
1, 1698134, Note_on_c, 2, 74, 127
1, 1698134, Note_on_c, 8, 80, 127
1, 1698141, Note_off_c, 0, 72, 127
1, 1698214, Note_on_c, 0, 72, 127
1, 1698222, Note_off_c, 2, 74, 127
1, 1698295, Note_on_c, 2, 74, 127
1, 1698302, Note_off_c, 0, 72, 127
1, 1698376, Note_on_c, 0, 72, 127
1, 1698383, Note_off_c, 2, 74, 127
1, 1698448, Note_off_c, 4, 64, 127
1, 1698451, Note_off_c, 8, 80, 127
1, 1698456, Note_on_c, 6, 66, 127
1, 1698456, Note_on_c, 10, 81, 127
1, 1698464, Note_off_c, 0, 72, 127
1, 1698537, Note_on_c, 0, 72, 127
1, 1698617, Note_on_c, 2, 74, 127
1, 1698625, Note_off_c, 0, 72, 127
1, 1698698, Note_on_c, 0, 72, 127
1, 1698705, Note_off_c, 2, 74, 127
1, 1698773, Note_off_c, 10, 81, 127
1, 1698778, Note_on_c, 2, 74, 127
1, 1698778, Note_on_c, 2, 62, 127
1, 1698786, Note_off_c, 0, 72, 127
1, 1698859, Note_on_c, 0, 72, 127
1, 1698866, Note_off_c, 2, 74, 127
1, 1698939, Note_on_c, 2, 74, 127
1, 1698947, Note_off_c, 0, 72, 127
1, 1699020, Note_on_c, 0, 72, 127
1, 1699027, Note_off_c, 2, 74, 127
1, 1699092, Note_off_c, 6, 66, 127
1, 1699095, Note_off_c, 2, 62, 127
1, 1699101, Note_on_c, 12, 71, 127
1, 1699101, Note_on_c, 7, 55, 127
1, 1699108, Note_off_c, 0, 72, 127
1, 1699181, Note_on_c, 7, 67, 127
1, 1699262, Note_on_c, 10, 69, 127
1, 1699269, Note_off_c, 7, 67, 127
1, 1699342, Note_on_c, 7, 67, 127
1, 1699350, Note_off_c, 10, 69, 127
1, 1699418, Note_off_c, 7, 55, 127
1, 1699423, Note_on_c, 10, 69, 127
1, 1699423, Note_on_c, 7, 43, 127
1, 1699430, Note_off_c, 7, 67, 127
1, 1699503, Note_on_c, 7, 67, 127
1, 1699511, Note_off_c, 10, 69, 127
1, 1699584, Note_on_c, 10, 69, 127
1, 1699591, Note_off_c, 7, 67, 127
1, 1699664, Note_on_c, 7, 67, 127
1, 1699672, Note_off_c, 10, 69, 127
1, 1699737, Note_off_c, 12, 71, 127
1, 1699740, Note_off_c, 7, 43, 127
1, 1699745, Note_on_c, 0, 72, 127
1, 1699745, Note_on_c, 8, 44, 127
1, 1699752, Note_off_c, 7, 67, 127
1, 1699826, Note_on_c, 6, 66, 127
1, 1699906, Note_on_c, 7, 67, 127
1, 1699914, Note_off_c, 6, 66, 127
1, 1699987, Note_on_c, 6, 66, 127
1, 1699994, Note_off_c, 7, 67, 127
1, 1700062, Note_off_c, 8, 44, 127
1, 1700067, Note_on_c, 7, 67, 127
1, 1700067, Note_on_c, 10, 45, 127
1, 1700075, Note_off_c, 6, 66, 127
1, 1700148, Note_on_c, 6, 66, 127
1, 1700155, Note_off_c, 7, 67, 127
1, 1700228, Note_on_c, 7, 67, 127
1, 1700236, Note_off_c, 6, 66, 127
1, 1700309, Note_on_c, 6, 66, 127
1, 1700316, Note_off_c, 7, 67, 127
1, 1700381, Note_off_c, 0, 72, 127
1, 1700384, Note_off_c, 10, 45, 127
1, 1700390, Note_on_c, 2, 74, 127
1, 1700390, Note_on_c, 11, 46, 127
1, 1700397, Note_off_c, 6, 66, 127
1, 1700470, Note_on_c, 5, 65, 127
1, 1700551, Note_on_c, 7, 67, 127
1, 1700558, Note_off_c, 5, 65, 127
1, 1700631, Note_on_c, 5, 65, 127
1, 1700639, Note_off_c, 7, 67, 127
1, 1700707, Note_off_c, 11, 46, 127
1, 1700712, Note_on_c, 7, 67, 127
1, 1700712, Note_on_c, 12, 47, 127
1, 1700719, Note_off_c, 5, 65, 127
1, 1700792, Note_on_c, 5, 65, 127
1, 1700800, Note_off_c, 7, 67, 127
1, 1700873, Note_on_c, 7, 67, 127
1, 1700880, Note_off_c, 5, 65, 127
1, 1700953, Note_on_c, 5, 65, 127
1, 1700961, Note_off_c, 7, 67, 127
1, 1701026, Note_off_c, 2, 74, 127
1, 1701029, Note_off_c, 12, 47, 127
1, 1701034, Note_on_c, 4, 64, 127
1, 1701034, Note_on_c, 0, 48, 127
1, 1701041, Note_off_c, 5, 65, 127
1, 1701115, Note_on_c, 0, 60, 127
1, 1701195, Note_on_c, 2, 62, 127
1, 1701203, Note_off_c, 0, 60, 127
1, 1701276, Note_on_c, 0, 60, 127
1, 1701283, Note_off_c, 2, 62, 127
1, 1701351, Note_off_c, 4, 64, 127
1, 1701356, Note_on_c, 4, 76, 127
1, 1701356, Note_on_c, 2, 62, 127
1, 1701364, Note_off_c, 0, 60, 127
1, 1701437, Note_on_c, 0, 60, 127
1, 1701444, Note_off_c, 2, 62, 127
1, 1701517, Note_on_c, 2, 62, 127
1, 1701525, Note_off_c, 0, 60, 127
1, 1701598, Note_on_c, 0, 60, 127
1, 1701605, Note_off_c, 2, 62, 127
1, 1701670, Note_off_c, 0, 48, 127
1, 1701673, Note_off_c, 4, 76, 127
1, 1701678, Note_on_c, 5, 77, 127
1, 1701678, Note_on_c, 2, 50, 127
1, 1701686, Note_off_c, 0, 60, 127
1, 1701759, Note_on_c, 12, 59, 127
1, 1701840, Note_on_c, 0, 60, 127
1, 1701847, Note_off_c, 12, 59, 127
1, 1701920, Note_on_c, 12, 59, 127
1, 1701928, Note_off_c, 0, 60, 127
1, 1701995, Note_off_c, 5, 77, 127
1, 1702001, Note_on_c, 6, 78, 127
1, 1702001, Note_on_c, 0, 60, 127
1, 1702008, Note_off_c, 12, 59, 127
1, 1702081, Note_on_c, 12, 59, 127
1, 1702089, Note_off_c, 0, 60, 127
1, 1702162, Note_on_c, 0, 60, 127
1, 1702169, Note_off_c, 12, 59, 127
1, 1702242, Note_on_c, 12, 59, 127
1, 1702250, Note_off_c, 0, 60, 127
1, 1702314, Note_off_c, 2, 50, 127
1, 1702318, Note_off_c, 6, 78, 127
1, 1702323, Note_on_c, 7, 79, 127
1, 1702323, Note_on_c, 4, 52, 127
1, 1702330, Note_off_c, 12, 59, 127
1, 1702404, Note_on_c, 11, 58, 127
1, 1702484, Note_on_c, 0, 60, 127
1, 1702492, Note_off_c, 11, 58, 127
1, 1702565, Note_on_c, 11, 58, 127
1, 1702572, Note_off_c, 0, 60, 127
1, 1702640, Note_off_c, 7, 79, 127
1, 1702645, Note_on_c, 8, 80, 127
1, 1702645, Note_on_c, 0, 60, 127
1, 1702653, Note_off_c, 11, 58, 127
1, 1702726, Note_on_c, 11, 58, 127
1, 1702733, Note_off_c, 0, 60, 127
1, 1702806, Note_on_c, 0, 60, 127
1, 1702814, Note_off_c, 11, 58, 127
1, 1702887, Note_on_c, 11, 58, 127
1, 1702894, Note_off_c, 0, 60, 127
1, 1702959, Note_off_c, 4, 52, 127
1, 1702962, Note_off_c, 8, 80, 127
1, 1702967, Note_on_c, 10, 81, 127
1, 1702967, Note_on_c, 6, 54, 127
1, 1702975, Note_off_c, 11, 58, 127
1, 1703124, Note_off_c, 6, 54, 127
1, 1703124, Note_off_c, 10, 81, 127
1, 1703129, Note_on_c, 6, 66, 127
1, 1703129, Note_on_c, 2, 62, 127
1, 1703286, Note_off_c, 2, 62, 127
1, 1703286, Note_off_c, 6, 66, 127
1, 1703290, Note_on_c, 4, 64, 127
1, 1703290, Note_on_c, 0, 60, 127
1, 1703447, Note_off_c, 0, 60, 127
1, 1703447, Note_off_c, 4, 64, 127
1, 1703451, Note_on_c, 6, 66, 127
1, 1703451, Note_on_c, 2, 62, 127
1, 1703608, Note_off_c, 2, 62, 127
1, 1703608, Note_off_c, 6, 66, 127
1, 1703612, Note_on_c, 7, 67, 127
1, 1703612, Note_on_c, 12, 59, 127
1, 1703769, Note_off_c, 12, 59, 127
1, 1703769, Note_off_c, 7, 67, 127
1, 1703773, Note_on_c, 12, 71, 127
1, 1703773, Note_on_c, 7, 55, 127
1, 1703930, Note_off_c, 7, 55, 127
1, 1703930, Note_off_c, 12, 71, 127
1, 1703934, Note_on_c, 10, 69, 127
1, 1703934, Note_on_c, 6, 54, 127
1, 1704091, Note_off_c, 6, 54, 127
1, 1704091, Note_off_c, 10, 69, 127
1, 1704095, Note_on_c, 12, 71, 127
1, 1704095, Note_on_c, 7, 55, 127
1, 1704252, Note_off_c, 7, 55, 127
1, 1704252, Note_off_c, 12, 71, 127
1, 1704256, Note_on_c, 0, 72, 127
1, 1704256, Note_on_c, 2, 50, 127
1, 1704413, Note_off_c, 2, 50, 127
1, 1704413, Note_off_c, 0, 72, 127
1, 1704418, Note_on_c, 10, 69, 127
1, 1704418, Note_on_c, 6, 54, 127
1, 1704575, Note_off_c, 6, 54, 127
1, 1704575, Note_off_c, 10, 69, 127
1, 1704579, Note_on_c, 6, 66, 127
1, 1704579, Note_on_c, 10, 57, 127
1, 1704736, Note_off_c, 10, 57, 127
1, 1704736, Note_off_c, 6, 66, 127
1, 1704740, Note_on_c, 2, 62, 127
1, 1704740, Note_on_c, 0, 60, 127
1, 1704897, Note_off_c, 0, 60, 127
1, 1704897, Note_off_c, 2, 62, 127
1, 1704901, Note_on_c, 7, 67, 127
1, 1704901, Note_on_c, 12, 59, 127
1, 1705058, Note_off_c, 12, 59, 127
1, 1705058, Note_off_c, 7, 67, 127
1, 1705062, Note_on_c, 12, 71, 127
1, 1705062, Note_on_c, 7, 55, 127
1, 1705219, Note_off_c, 7, 55, 127
1, 1705219, Note_off_c, 12, 71, 127
1, 1705223, Note_on_c, 10, 69, 127
1, 1705223, Note_on_c, 6, 54, 127
1, 1705380, Note_off_c, 6, 54, 127
1, 1705380, Note_off_c, 10, 69, 127
1, 1705384, Note_on_c, 12, 71, 127
1, 1705384, Note_on_c, 7, 55, 127
1, 1705541, Note_off_c, 7, 55, 127
1, 1705541, Note_off_c, 12, 71, 127
1, 1705561, Note_on_c, 2, 74, 127
1, 1705561, Note_on_c, 2, 50, 127
1, 1705718, Note_off_c, 2, 50, 127
1, 1705718, Note_off_c, 2, 74, 127
1, 1705752, Note_on_c, 12, 47, 127
1, 1705752, Note_on_c, 7, 79, 127
1, 1705909, Note_off_c, 7, 79, 127
1, 1705909, Note_off_c, 12, 47, 127
1, 1705936, Note_on_c, 10, 45, 127
1, 1705936, Note_on_c, 6, 78, 127
1, 1706110, Note_off_c, 6, 78, 127
1, 1706110, Note_off_c, 10, 45, 127
1, 1706127, Note_on_c, 7, 79, 127
1, 1706127, Note_on_c, 12, 47, 127
1, 1706301, Note_off_c, 12, 47, 127
1, 1706301, Note_off_c, 7, 79, 127
1, 1706370, Note_on_c, 7, 43, 127
1, 1706370, Note_on_c, 12, 83, 127
1, 1708170, Note_off_c, 12, 83, 127
1, 1708170, Note_off_c, 7, 43, 127
1, 1708182, Note_on_c, 7, 55, 127
1, 1708503, Note_on_c, 7, 43, 127
1, 1708665, Note_on_c, 7, 67, 127
1, 1708665, Note_on_c, 2, 62, 127
1, 1708665, Note_on_c, 12, 59, 127
1, 1708817, Note_off_c, 7, 55, 127
1, 1708820, Note_off_c, 7, 43, 127
1, 1708822, Note_off_c, 12, 59, 127
1, 1708822, Note_off_c, 2, 62, 127
1, 1708822, Note_off_c, 7, 67, 127
1, 1708826, Note_on_c, 0, 60, 127
1, 1708826, Note_on_c, 10, 57, 127
1, 1708826, Note_on_c, 6, 66, 127
1, 1708983, Note_off_c, 6, 66, 127
1, 1708983, Note_off_c, 10, 57, 127
1, 1708983, Note_off_c, 0, 60, 127
1, 1708987, Note_on_c, 2, 62, 127
1, 1708987, Note_on_c, 12, 59, 127
1, 1708987, Note_on_c, 7, 67, 127
1, 1709144, Note_off_c, 7, 67, 127
1, 1709144, Note_off_c, 12, 59, 127
1, 1709144, Note_off_c, 2, 62, 127
1, 1709148, Note_on_c, 0, 60, 127
1, 1709148, Note_on_c, 10, 57, 127
1, 1709148, Note_on_c, 6, 66, 127
1, 1709305, Note_off_c, 6, 66, 127
1, 1709305, Note_off_c, 10, 57, 127
1, 1709305, Note_off_c, 0, 60, 127
1, 1709309, Note_on_c, 12, 59, 127
1, 1709309, Note_on_c, 7, 67, 127
1, 1709309, Note_on_c, 2, 62, 127
1, 1709466, Note_off_c, 2, 62, 127
1, 1709466, Note_off_c, 7, 67, 127
1, 1709466, Note_off_c, 12, 59, 127
1, 1709470, Note_on_c, 0, 60, 127
1, 1709470, Note_on_c, 10, 57, 127
1, 1709470, Note_on_c, 6, 66, 127
1, 1709627, Note_off_c, 6, 66, 127
1, 1709627, Note_off_c, 10, 57, 127
1, 1709627, Note_off_c, 0, 60, 127
1, 1709631, Note_on_c, 12, 59, 127
1, 1709631, Note_on_c, 7, 67, 127
1, 1709631, Note_on_c, 2, 62, 127
1, 1709788, Note_off_c, 2, 62, 127
1, 1709788, Note_off_c, 7, 67, 127
1, 1709788, Note_off_c, 12, 59, 127
1, 1709792, Note_on_c, 10, 57, 127
1, 1709792, Note_on_c, 0, 60, 127
1, 1709792, Note_on_c, 6, 66, 127
1, 1709949, Note_off_c, 6, 66, 127
1, 1709949, Note_off_c, 0, 60, 127
1, 1709949, Note_off_c, 10, 57, 127
1, 1709953, Note_on_c, 12, 59, 127
1, 1709953, Note_on_c, 2, 62, 127
1, 1709953, Note_on_c, 7, 67, 127
1, 1710110, Note_off_c, 7, 67, 127
1, 1710110, Note_off_c, 2, 62, 127
1, 1710110, Note_off_c, 12, 59, 127
1, 1710115, Note_on_c, 6, 54, 127
1, 1710436, Note_on_c, 6, 42, 127
1, 1710597, Note_on_c, 6, 66, 127
1, 1710597, Note_on_c, 2, 74, 127
1, 1710597, Note_on_c, 10, 69, 127
1, 1710750, Note_off_c, 6, 54, 127
1, 1710753, Note_off_c, 6, 42, 127
1, 1710754, Note_off_c, 10, 69, 127
1, 1710754, Note_off_c, 2, 74, 127
1, 1710754, Note_off_c, 6, 66, 127
1, 1710758, Note_on_c, 7, 67, 127
1, 1710758, Note_on_c, 4, 64, 127
1, 1710758, Note_on_c, 1, 73, 127
1, 1710915, Note_off_c, 1, 73, 127
1, 1710915, Note_off_c, 4, 64, 127
1, 1710915, Note_off_c, 7, 67, 127
1, 1710919, Note_on_c, 6, 66, 127
1, 1710919, Note_on_c, 2, 74, 127
1, 1710919, Note_on_c, 10, 69, 127
1, 1711076, Note_off_c, 10, 69, 127
1, 1711076, Note_off_c, 2, 74, 127
1, 1711076, Note_off_c, 6, 66, 127
1, 1711080, Note_on_c, 1, 73, 127
1, 1711080, Note_on_c, 7, 67, 127
1, 1711080, Note_on_c, 4, 64, 127
1, 1711237, Note_off_c, 4, 64, 127
1, 1711237, Note_off_c, 7, 67, 127
1, 1711237, Note_off_c, 1, 73, 127
1, 1711241, Note_on_c, 6, 66, 127
1, 1711241, Note_on_c, 2, 74, 127
1, 1711241, Note_on_c, 10, 69, 127
1, 1711398, Note_off_c, 10, 69, 127
1, 1711398, Note_off_c, 2, 74, 127
1, 1711398, Note_off_c, 6, 66, 127
1, 1711402, Note_on_c, 7, 67, 127
1, 1711402, Note_on_c, 4, 64, 127
1, 1711402, Note_on_c, 1, 73, 127
1, 1711559, Note_off_c, 1, 73, 127
1, 1711559, Note_off_c, 4, 64, 127
1, 1711559, Note_off_c, 7, 67, 127
1, 1711564, Note_on_c, 10, 69, 127
1, 1711564, Note_on_c, 6, 66, 127
1, 1711564, Note_on_c, 2, 74, 127
1, 1711721, Note_off_c, 2, 74, 127
1, 1711721, Note_off_c, 6, 66, 127
1, 1711721, Note_off_c, 10, 69, 127
1, 1711725, Note_on_c, 1, 73, 127
1, 1711725, Note_on_c, 7, 67, 127
1, 1711725, Note_on_c, 4, 64, 127
1, 1711882, Note_off_c, 4, 64, 127
1, 1711882, Note_off_c, 7, 67, 127
1, 1711882, Note_off_c, 1, 73, 127
1, 1711886, Note_on_c, 10, 69, 127
1, 1711886, Note_on_c, 6, 66, 127
1, 1711886, Note_on_c, 2, 74, 127
1, 1712043, Note_off_c, 2, 74, 127
1, 1712043, Note_off_c, 6, 66, 127
1, 1712043, Note_off_c, 10, 69, 127
1, 1712047, Note_on_c, 4, 52, 127
1, 1712368, Note_on_c, 4, 40, 127
1, 1712529, Note_on_c, 4, 76, 127
1, 1712529, Note_on_c, 7, 79, 127
1, 1712529, Note_on_c, 12, 71, 127
1, 1712682, Note_off_c, 4, 52, 127
1, 1712685, Note_off_c, 4, 40, 127
1, 1712686, Note_off_c, 12, 71, 127
1, 1712686, Note_off_c, 7, 79, 127
1, 1712686, Note_off_c, 4, 76, 127
1, 1712690, Note_on_c, 6, 78, 127
1, 1712690, Note_on_c, 10, 69, 127
1, 1712690, Note_on_c, 2, 74, 127
1, 1712847, Note_off_c, 2, 74, 127
1, 1712847, Note_off_c, 10, 69, 127
1, 1712847, Note_off_c, 6, 78, 127
1, 1712852, Note_on_c, 7, 79, 127
1, 1712852, Note_on_c, 4, 76, 127
1, 1712852, Note_on_c, 12, 71, 127
1, 1713009, Note_off_c, 12, 71, 127
1, 1713009, Note_off_c, 4, 76, 127
1, 1713009, Note_off_c, 7, 79, 127
1, 1713013, Note_on_c, 7, 67, 127
1, 1713013, Note_on_c, 1, 73, 127
1, 1713013, Note_on_c, 4, 76, 127
1, 1713170, Note_off_c, 4, 76, 127
1, 1713170, Note_off_c, 1, 73, 127
1, 1713170, Note_off_c, 7, 67, 127
1, 1713174, Note_on_c, 4, 76, 127
1, 1713174, Note_on_c, 7, 79, 127
1, 1713174, Note_on_c, 12, 71, 127
1, 1713331, Note_off_c, 12, 71, 127
1, 1713331, Note_off_c, 7, 79, 127
1, 1713331, Note_off_c, 4, 76, 127
1, 1713335, Note_on_c, 2, 74, 127
1, 1713335, Note_on_c, 10, 69, 127
1, 1713335, Note_on_c, 6, 78, 127
1, 1713492, Note_off_c, 6, 78, 127
1, 1713492, Note_off_c, 10, 69, 127
1, 1713492, Note_off_c, 2, 74, 127
1, 1713496, Note_on_c, 4, 76, 127
1, 1713496, Note_on_c, 7, 79, 127
1, 1713496, Note_on_c, 12, 71, 127
1, 1713653, Note_off_c, 12, 71, 127
1, 1713653, Note_off_c, 7, 79, 127
1, 1713653, Note_off_c, 4, 76, 127
1, 1713657, Note_on_c, 1, 73, 127
1, 1713657, Note_on_c, 7, 67, 127
1, 1713657, Note_on_c, 4, 76, 127
1, 1713814, Note_off_c, 4, 76, 127
1, 1713814, Note_off_c, 7, 67, 127
1, 1713814, Note_off_c, 1, 73, 127
1, 1713818, Note_on_c, 1, 73, 127
1, 1713818, Note_on_c, 4, 76, 127
1, 1713818, Note_on_c, 7, 79, 127
1, 1713975, Note_off_c, 7, 79, 127
1, 1713975, Note_off_c, 4, 76, 127
1, 1713975, Note_off_c, 1, 73, 127
1, 1713979, Note_on_c, 6, 78, 127
1, 1713979, Note_on_c, 2, 74, 127
1, 1713979, Note_on_c, 10, 69, 127
1, 1714140, Note_on_c, 2, 62, 127
1, 1714297, Note_off_c, 2, 62, 127
1, 1714302, Note_on_c, 10, 57, 127
1, 1714459, Note_off_c, 10, 57, 127
1, 1714463, Note_on_c, 6, 54, 127
1, 1714620, Note_off_c, 6, 54, 127
1, 1714624, Note_on_c, 2, 50, 127
1, 1714731, Note_on_c, 0, 84, 127
1, 1714834, Note_off_c, 0, 84, 127
1, 1714838, Note_on_c, 12, 83, 127
1, 1714838, Note_on_c, 2, 62, 127
1, 1714940, Note_off_c, 2, 50, 127
1, 1714941, Note_off_c, 2, 62, 127
1, 1714941, Note_off_c, 12, 83, 127
1, 1714945, Note_on_c, 0, 72, 127
1, 1714945, Note_on_c, 4, 52, 127
1, 1715052, Note_on_c, 12, 83, 127
1, 1715155, Note_off_c, 12, 83, 127
1, 1715159, Note_on_c, 10, 81, 127
1, 1715159, Note_on_c, 0, 60, 127
1, 1715253, Note_off_c, 10, 69, 127
1, 1715253, Note_off_c, 2, 74, 127
1, 1715253, Note_off_c, 6, 78, 127
1, 1715261, Note_off_c, 4, 52, 127
1, 1715261, Note_off_c, 0, 72, 127
1, 1715262, Note_off_c, 0, 60, 127
1, 1715262, Note_off_c, 10, 81, 127
1, 1715266, Note_on_c, 12, 71, 127
1, 1715266, Note_on_c, 2, 50, 127
1, 1715373, Note_on_c, 10, 81, 127
1, 1715476, Note_off_c, 10, 81, 127
1, 1715480, Note_on_c, 7, 79, 127
1, 1715480, Note_on_c, 12, 59, 127
1, 1715582, Note_off_c, 2, 50, 127
1, 1715582, Note_off_c, 12, 71, 127
1, 1715583, Note_off_c, 12, 59, 127
1, 1715583, Note_off_c, 7, 79, 127
1, 1715587, Note_on_c, 10, 69, 127
1, 1715587, Note_on_c, 0, 48, 127
1, 1715694, Note_on_c, 7, 79, 127
1, 1715797, Note_off_c, 7, 79, 127
1, 1715801, Note_on_c, 6, 78, 127
1, 1715801, Note_on_c, 10, 57, 127
1, 1715903, Note_off_c, 0, 48, 127
1, 1715903, Note_off_c, 10, 69, 127
1, 1715904, Note_off_c, 10, 57, 127
1, 1715904, Note_off_c, 6, 78, 127
1, 1715909, Note_on_c, 12, 71, 127
1, 1715909, Note_on_c, 7, 79, 127
1, 1715909, Note_on_c, 2, 74, 127
1, 1715909, Note_on_c, 12, 47, 127
1, 1716230, Note_on_c, 12, 59, 127
1, 1716384, Note_off_c, 2, 74, 127
1, 1716384, Note_off_c, 7, 79, 127
1, 1716384, Note_off_c, 12, 71, 127
1, 1716391, Note_on_c, 7, 79, 127
1, 1716391, Note_on_c, 2, 74, 127
1, 1716391, Note_on_c, 12, 71, 127
1, 1716544, Note_off_c, 12, 47, 127
1, 1716547, Note_off_c, 12, 59, 127
1, 1716548, Note_off_c, 12, 71, 127
1, 1716548, Note_off_c, 2, 74, 127
1, 1716548, Note_off_c, 7, 79, 127
1, 1716552, Note_on_c, 0, 72, 127
1, 1716552, Note_on_c, 10, 69, 127
1, 1716552, Note_on_c, 6, 78, 127
1, 1716709, Note_off_c, 6, 78, 127
1, 1716709, Note_off_c, 10, 69, 127
1, 1716709, Note_off_c, 0, 72, 127
1, 1716713, Note_on_c, 2, 74, 127
1, 1716713, Note_on_c, 12, 71, 127
1, 1716713, Note_on_c, 7, 79, 127
1, 1716870, Note_off_c, 7, 79, 127
1, 1716870, Note_off_c, 12, 71, 127
1, 1716870, Note_off_c, 2, 74, 127
1, 1716874, Note_on_c, 10, 69, 127
1, 1716874, Note_on_c, 0, 72, 127
1, 1716874, Note_on_c, 6, 78, 127
1, 1717031, Note_off_c, 6, 78, 127
1, 1717031, Note_off_c, 0, 72, 127
1, 1717031, Note_off_c, 10, 69, 127
1, 1717035, Note_on_c, 2, 74, 127
1, 1717035, Note_on_c, 12, 71, 127
1, 1717035, Note_on_c, 7, 79, 127
1, 1717192, Note_off_c, 7, 79, 127
1, 1717192, Note_off_c, 12, 71, 127
1, 1717192, Note_off_c, 2, 74, 127
1, 1717196, Note_on_c, 0, 72, 127
1, 1717196, Note_on_c, 10, 69, 127
1, 1717196, Note_on_c, 6, 78, 127
1, 1717353, Note_off_c, 6, 78, 127
1, 1717353, Note_off_c, 10, 69, 127
1, 1717353, Note_off_c, 0, 72, 127
1, 1717358, Note_on_c, 7, 79, 127
1, 1717358, Note_on_c, 2, 74, 127
1, 1717358, Note_on_c, 12, 71, 127
1, 1717515, Note_off_c, 12, 71, 127
1, 1717515, Note_off_c, 2, 74, 127
1, 1717515, Note_off_c, 7, 79, 127
1, 1717519, Note_on_c, 12, 71, 127
1, 1717519, Note_on_c, 7, 67, 127
1, 1717519, Note_on_c, 2, 74, 127
1, 1717676, Note_off_c, 2, 74, 127
1, 1717676, Note_off_c, 7, 67, 127
1, 1717676, Note_off_c, 12, 71, 127
1, 1717680, Note_on_c, 2, 74, 127
1, 1717680, Note_on_c, 12, 71, 127
1, 1717680, Note_on_c, 5, 77, 127
1, 1717837, Note_off_c, 5, 77, 127
1, 1717837, Note_off_c, 12, 71, 127
1, 1717837, Note_off_c, 2, 74, 127
1, 1717841, Note_on_c, 0, 48, 127
1, 1718162, Note_on_c, 0, 60, 127
1, 1718323, Note_on_c, 4, 76, 127
1, 1718323, Note_on_c, 0, 72, 127
1, 1718323, Note_on_c, 7, 67, 127
1, 1718476, Note_off_c, 0, 48, 127
1, 1718479, Note_off_c, 0, 60, 127
1, 1718480, Note_off_c, 7, 67, 127
1, 1718480, Note_off_c, 0, 72, 127
1, 1718480, Note_off_c, 4, 76, 127
1, 1718484, Note_on_c, 12, 71, 127
1, 1718484, Note_on_c, 5, 65, 127
1, 1718484, Note_on_c, 2, 74, 127
1, 1718641, Note_off_c, 2, 74, 127
1, 1718641, Note_off_c, 5, 65, 127
1, 1718641, Note_off_c, 12, 71, 127
1, 1718645, Note_on_c, 0, 72, 127
1, 1718645, Note_on_c, 7, 67, 127
1, 1718645, Note_on_c, 4, 76, 127
1, 1718802, Note_off_c, 4, 76, 127
1, 1718802, Note_off_c, 7, 67, 127
1, 1718802, Note_off_c, 0, 72, 127
1, 1718807, Note_on_c, 12, 71, 127
1, 1718807, Note_on_c, 5, 65, 127
1, 1718807, Note_on_c, 2, 74, 127
1, 1718964, Note_off_c, 2, 74, 127
1, 1718964, Note_off_c, 5, 65, 127
1, 1718964, Note_off_c, 12, 71, 127
1, 1718968, Note_on_c, 7, 67, 127
1, 1718968, Note_on_c, 4, 76, 127
1, 1718968, Note_on_c, 0, 72, 127
1, 1719125, Note_off_c, 0, 72, 127
1, 1719125, Note_off_c, 4, 76, 127
1, 1719125, Note_off_c, 7, 67, 127
1, 1719129, Note_on_c, 2, 74, 127
1, 1719129, Note_on_c, 12, 71, 127
1, 1719129, Note_on_c, 5, 65, 127
1, 1719286, Note_off_c, 5, 65, 127
1, 1719286, Note_off_c, 12, 71, 127
1, 1719286, Note_off_c, 2, 74, 127
1, 1719290, Note_on_c, 7, 67, 127
1, 1719290, Note_on_c, 0, 72, 127
1, 1719290, Note_on_c, 4, 76, 127
1, 1719447, Note_off_c, 4, 76, 127
1, 1719447, Note_off_c, 0, 72, 127
1, 1719447, Note_off_c, 7, 67, 127
1, 1719451, Note_on_c, 4, 64, 127
1, 1719451, Note_on_c, 0, 72, 127
1, 1719451, Note_on_c, 10, 69, 127
1, 1719608, Note_off_c, 10, 69, 127
1, 1719608, Note_off_c, 0, 72, 127
1, 1719608, Note_off_c, 4, 64, 127
1, 1719612, Note_on_c, 4, 76, 127
1, 1719612, Note_on_c, 0, 72, 127
1, 1719612, Note_on_c, 7, 67, 127
1, 1719769, Note_off_c, 7, 67, 127
1, 1719769, Note_off_c, 0, 72, 127
1, 1719769, Note_off_c, 4, 76, 127
1, 1719773, Note_on_c, 2, 50, 127
1, 1720094, Note_on_c, 2, 62, 127
1, 1720256, Note_on_c, 10, 69, 127
1, 1720256, Note_on_c, 6, 66, 127
1, 1720256, Note_on_c, 2, 74, 127
1, 1720408, Note_off_c, 2, 50, 127
1, 1720411, Note_off_c, 2, 62, 127
1, 1720413, Note_off_c, 2, 74, 127
1, 1720413, Note_off_c, 6, 66, 127
1, 1720413, Note_off_c, 10, 69, 127
1, 1720417, Note_on_c, 7, 67, 127
1, 1720417, Note_on_c, 4, 64, 127
1, 1720417, Note_on_c, 1, 73, 127
1, 1720574, Note_off_c, 1, 73, 127
1, 1720574, Note_off_c, 4, 64, 127
1, 1720574, Note_off_c, 7, 67, 127
1, 1720578, Note_on_c, 10, 69, 127
1, 1720578, Note_on_c, 2, 74, 127
1, 1720578, Note_on_c, 6, 66, 127
1, 1720735, Note_off_c, 6, 66, 127
1, 1720735, Note_off_c, 2, 74, 127
1, 1720735, Note_off_c, 10, 69, 127
1, 1720739, Note_on_c, 7, 67, 127
1, 1720739, Note_on_c, 4, 64, 127
1, 1720739, Note_on_c, 1, 73, 127
1, 1720896, Note_off_c, 1, 73, 127
1, 1720896, Note_off_c, 4, 64, 127
1, 1720896, Note_off_c, 7, 67, 127
1, 1720900, Note_on_c, 10, 69, 127
1, 1720900, Note_on_c, 6, 66, 127
1, 1720900, Note_on_c, 2, 74, 127
1, 1721057, Note_off_c, 2, 74, 127
1, 1721057, Note_off_c, 6, 66, 127
1, 1721057, Note_off_c, 10, 69, 127
1, 1721061, Note_on_c, 4, 64, 127
1, 1721061, Note_on_c, 1, 73, 127
1, 1721061, Note_on_c, 7, 67, 127
1, 1721218, Note_off_c, 7, 67, 127
1, 1721218, Note_off_c, 1, 73, 127
1, 1721218, Note_off_c, 4, 64, 127
1, 1721222, Note_on_c, 2, 74, 127
1, 1721222, Note_on_c, 10, 69, 127
1, 1721222, Note_on_c, 6, 66, 127
1, 1721379, Note_off_c, 6, 66, 127
1, 1721379, Note_off_c, 10, 69, 127
1, 1721379, Note_off_c, 2, 74, 127
1, 1721383, Note_on_c, 6, 66, 127
1, 1721383, Note_on_c, 10, 69, 127
1, 1721383, Note_on_c, 2, 62, 127
1, 1721540, Note_off_c, 2, 62, 127
1, 1721540, Note_off_c, 10, 69, 127
1, 1721540, Note_off_c, 6, 66, 127
1, 1721545, Note_on_c, 6, 66, 127
1, 1721545, Note_on_c, 0, 72, 127
1, 1721545, Note_on_c, 10, 69, 127
1, 1721702, Note_off_c, 10, 69, 127
1, 1721702, Note_off_c, 0, 72, 127
1, 1721702, Note_off_c, 6, 66, 127
1, 1721704, Note_on_c, 12, 71, 127
1, 1721704, Note_on_c, 7, 67, 127
1, 1721706, Note_on_c, 2, 62, 127
1, 1721867, Note_on_c, 7, 55, 127
1, 1722024, Note_off_c, 7, 55, 127
1, 1722028, Note_on_c, 2, 50, 127
1, 1722185, Note_off_c, 2, 50, 127
1, 1722189, Note_on_c, 12, 47, 127
1, 1722346, Note_off_c, 12, 47, 127
1, 1722350, Note_on_c, 7, 43, 127
1, 1722439, Note_off_c, 12, 71, 127
1, 1722457, Note_on_c, 10, 69, 127
1, 1722560, Note_off_c, 10, 69, 127
1, 1722564, Note_on_c, 12, 71, 127
1, 1722564, Note_on_c, 7, 55, 127
1, 1722666, Note_off_c, 7, 43, 127
1, 1722667, Note_off_c, 7, 55, 127
1, 1722671, Note_on_c, 0, 72, 127
1, 1722671, Note_on_c, 6, 54, 127
1, 1722766, Note_off_c, 12, 71, 127
1, 1722776, Note_off_c, 0, 72, 127
1, 1722779, Note_on_c, 12, 71, 127
1, 1722866, Note_off_c, 2, 62, 127
1, 1722887, Note_on_c, 10, 69, 127
1, 1722887, Note_on_c, 2, 62, 127
1, 1722979, Note_off_c, 7, 67, 127
1, 1722988, Note_off_c, 6, 54, 127
1, 1722989, Note_off_c, 12, 71, 127
1, 1722990, Note_off_c, 10, 69, 127
1, 1722994, Note_on_c, 12, 71, 127
1, 1722994, Note_on_c, 7, 55, 127
1, 1723097, Note_off_c, 12, 71, 127
1, 1723101, Note_on_c, 10, 69, 127
1, 1723203, Note_off_c, 2, 62, 127
1, 1723204, Note_off_c, 10, 69, 127
1, 1723208, Note_on_c, 7, 67, 127
1, 1723208, Note_on_c, 4, 64, 127
1, 1723310, Note_off_c, 7, 55, 127
1, 1723311, Note_off_c, 7, 67, 127
1, 1723315, Note_on_c, 4, 76, 127
1, 1723315, Note_on_c, 10, 57, 127
1, 1723418, Note_off_c, 4, 76, 127
1, 1723422, Note_on_c, 2, 74, 127
1, 1723524, Note_off_c, 4, 64, 127
1, 1723525, Note_off_c, 2, 74, 127
1, 1723529, Note_on_c, 0, 72, 127
1, 1723529, Note_on_c, 6, 66, 127
1, 1723631, Note_off_c, 10, 57, 127
1, 1723632, Note_off_c, 6, 66, 127
1, 1723632, Note_off_c, 0, 72, 127
1, 1723636, Note_on_c, 2, 74, 127
1, 1723636, Note_on_c, 12, 59, 127
1, 1723743, Note_on_c, 2, 62, 127
1, 1723846, Note_off_c, 2, 62, 127
1, 1723846, Note_off_c, 2, 74, 127
1, 1723850, Note_on_c, 7, 67, 127
1, 1723953, Note_off_c, 7, 67, 127
1, 1723957, Note_on_c, 6, 66, 127
1, 1724064, Note_on_c, 0, 60, 127
1, 1724167, Note_off_c, 0, 60, 127
1, 1724167, Note_off_c, 6, 66, 127
1, 1724168, Note_off_c, 12, 59, 127
1, 1724171, Note_on_c, 10, 57, 127
1, 1724276, Note_off_c, 10, 57, 127
1, 1724279, Note_on_c, 12, 59, 127
1, 1724386, Note_on_c, 2, 62, 127
1, 1724489, Note_off_c, 2, 62, 127
1, 1724493, Note_on_c, 7, 67, 127
1, 1724596, Note_off_c, 7, 67, 127
1, 1724601, Note_on_c, 10, 69, 127
1, 1724708, Note_on_c, 6, 66, 127
1, 1724811, Note_off_c, 6, 66, 127
1, 1724811, Note_off_c, 10, 69, 127
1, 1724811, Note_off_c, 12, 59, 127
1, 1724815, Note_on_c, 0, 60, 127
1, 1724920, Note_off_c, 0, 60, 127
1, 1724923, Note_on_c, 2, 62, 127
1, 1725030, Note_on_c, 7, 67, 127
1, 1725133, Note_off_c, 7, 67, 127
1, 1725137, Note_on_c, 12, 71, 127
1, 1725240, Note_off_c, 12, 71, 127
1, 1725244, Note_on_c, 1, 73, 127
1, 1725351, Note_on_c, 10, 69, 127
1, 1725454, Note_off_c, 10, 69, 127
1, 1725454, Note_off_c, 1, 73, 127
1, 1725455, Note_off_c, 2, 62, 127
1, 1725458, Note_on_c, 4, 64, 127
1, 1725563, Note_off_c, 4, 64, 127
1, 1725566, Note_on_c, 6, 66, 127
1, 1725673, Note_on_c, 10, 69, 127
1, 1725776, Note_off_c, 10, 69, 127
1, 1725780, Note_on_c, 2, 74, 127
1, 1725883, Note_off_c, 2, 74, 127
1, 1725887, Note_on_c, 1, 73, 127
1, 1725994, Note_on_c, 7, 67, 127
1, 1726097, Note_off_c, 7, 67, 127
1, 1726097, Note_off_c, 1, 73, 127
1, 1726098, Note_off_c, 6, 66, 127
1, 1726102, Note_on_c, 4, 64, 127
1, 1726207, Note_off_c, 4, 64, 127
1, 1726210, Note_on_c, 6, 66, 127
1, 1726317, Note_on_c, 10, 69, 127
1, 1726420, Note_off_c, 10, 69, 127
1, 1726424, Note_on_c, 2, 74, 127
1, 1726527, Note_off_c, 2, 74, 127
1, 1726531, Note_on_c, 4, 76, 127
1, 1726638, Note_on_c, 1, 73, 127
1, 1726741, Note_off_c, 1, 73, 127
1, 1726741, Note_off_c, 4, 76, 127
1, 1726742, Note_off_c, 6, 66, 127
1, 1726745, Note_on_c, 7, 67, 127
1, 1726850, Note_off_c, 7, 67, 127
1, 1726853, Note_on_c, 10, 69, 127
1, 1726960, Note_on_c, 2, 74, 127
1, 1727063, Note_off_c, 2, 74, 127
1, 1727067, Note_on_c, 6, 78, 127
1, 1727170, Note_off_c, 6, 78, 127
1, 1727174, Note_on_c, 2, 74, 127
1, 1727281, Note_on_c, 12, 71, 127
1, 1727381, Note_off_c, 10, 69, 127
1, 1727384, Note_off_c, 12, 71, 127
1, 1727388, Note_on_c, 10, 69, 127
1, 1727491, Note_off_c, 10, 69, 127
1, 1727495, Note_on_c, 7, 67, 127
1, 1727600, Note_off_c, 2, 74, 127
1, 1727602, Note_on_c, 12, 71, 127
1, 1727710, Note_on_c, 0, 72, 127
1, 1727813, Note_off_c, 0, 72, 127
1, 1727814, Note_off_c, 12, 71, 127
1, 1727817, Note_on_c, 12, 71, 127
1, 1727917, Note_off_c, 7, 67, 127
1, 1727924, Note_on_c, 7, 67, 127
1, 1728031, Note_on_c, 6, 66, 127
1, 1728134, Note_off_c, 6, 66, 127
1, 1728138, Note_on_c, 4, 64, 127
1, 1728242, Note_off_c, 7, 67, 127
1, 1728245, Note_on_c, 7, 67, 127
1, 1728349, Note_off_c, 12, 71, 127
1, 1728352, Note_on_c, 10, 69, 127
1, 1728457, Note_off_c, 10, 69, 127
1, 1728458, Note_off_c, 7, 67, 127
1, 1728460, Note_on_c, 7, 67, 127
1, 1728561, Note_off_c, 4, 64, 127
1, 1728567, Note_on_c, 4, 64, 127
1, 1728674, Note_on_c, 2, 62, 127
1, 1728777, Note_off_c, 2, 62, 127
1, 1728781, Note_on_c, 1, 61, 127
1, 1728883, Note_off_c, 4, 64, 127
1, 1728888, Note_on_c, 4, 64, 127
1, 1728992, Note_off_c, 7, 67, 127
1, 1728995, Note_on_c, 6, 66, 127
1, 1729099, Note_off_c, 4, 64, 127
1, 1729100, Note_off_c, 6, 66, 127
1, 1729103, Note_on_c, 4, 64, 127
1, 1729204, Note_off_c, 1, 61, 127
1, 1729210, Note_on_c, 1, 61, 127
1, 1729318, Note_on_c, 12, 59, 127
1, 1729421, Note_off_c, 12, 59, 127
1, 1729425, Note_on_c, 10, 57, 127
1, 1729526, Note_off_c, 1, 61, 127
1, 1729532, Note_on_c, 1, 61, 127
1, 1729631, Note_off_c, 4, 64, 127
1, 1729639, Note_on_c, 6, 66, 127
1, 1729742, Note_off_c, 6, 66, 127
1, 1729746, Note_on_c, 4, 64, 127
1, 1729848, Note_off_c, 1, 61, 127
1, 1729853, Note_on_c, 1, 61, 127
1, 1729957, Note_off_c, 10, 57, 127
1, 1729960, Note_on_c, 12, 59, 127
1, 1730065, Note_off_c, 12, 59, 127
1, 1730068, Note_on_c, 10, 57, 127
1, 1730170, Note_off_c, 1, 61, 127
1, 1730175, Note_on_c, 1, 61, 127
1, 1730279, Note_off_c, 4, 64, 127
1, 1730282, Note_on_c, 2, 62, 127
1, 1730386, Note_off_c, 1, 61, 127
1, 1730387, Note_off_c, 2, 62, 127
1, 1730390, Note_on_c, 1, 61, 127
1, 1730486, Note_off_c, 10, 57, 127
1, 1730497, Note_on_c, 10, 57, 127
1, 1730604, Note_on_c, 7, 55, 127
1, 1730707, Note_off_c, 7, 55, 127
1, 1730711, Note_on_c, 6, 54, 127
1, 1730813, Note_off_c, 10, 57, 127
1, 1730819, Note_on_c, 10, 57, 127
1, 1730922, Note_off_c, 1, 61, 127
1, 1730926, Note_on_c, 12, 59, 127
1, 1731030, Note_off_c, 10, 57, 127
1, 1731031, Note_off_c, 12, 59, 127
1, 1731034, Note_on_c, 10, 57, 127
1, 1731127, Note_off_c, 6, 54, 127
1, 1731141, Note_on_c, 6, 54, 127
1, 1731248, Note_on_c, 4, 52, 127
1, 1731351, Note_off_c, 4, 52, 127
1, 1731355, Note_on_c, 2, 50, 127
1, 1731457, Note_off_c, 6, 54, 127
1, 1731462, Note_on_c, 6, 54, 127
1, 1731562, Note_off_c, 10, 57, 127
1, 1731569, Note_on_c, 12, 59, 127
1, 1731672, Note_off_c, 12, 59, 127
1, 1731676, Note_on_c, 10, 57, 127
1, 1731778, Note_off_c, 6, 54, 127
1, 1731783, Note_on_c, 6, 54, 127
1, 1731883, Note_off_c, 2, 50, 127
1, 1731890, Note_on_c, 4, 52, 127
1, 1731993, Note_off_c, 4, 52, 127
1, 1731997, Note_on_c, 2, 50, 127
1, 1732099, Note_off_c, 6, 54, 127
1, 1732104, Note_on_c, 6, 54, 127
1, 1732204, Note_off_c, 10, 57, 127
1, 1732211, Note_on_c, 7, 55, 127
1, 1732314, Note_off_c, 7, 55, 127
1, 1732314, Note_off_c, 6, 54, 127
1, 1732318, Note_on_c, 6, 54, 127
1, 1732419, Note_off_c, 2, 50, 127
1, 1732425, Note_on_c, 2, 50, 127
1, 1732533, Note_on_c, 0, 48, 127
1, 1732636, Note_off_c, 0, 48, 127
1, 1732640, Note_on_c, 12, 47, 127
1, 1732741, Note_off_c, 2, 50, 127
1, 1732747, Note_on_c, 2, 50, 127
1, 1732846, Note_off_c, 6, 54, 127
1, 1732854, Note_on_c, 4, 52, 127
1, 1732957, Note_off_c, 4, 52, 127
1, 1732957, Note_off_c, 2, 50, 127
1, 1732961, Note_on_c, 2, 50, 127
1, 1733062, Note_off_c, 12, 47, 127
1, 1733068, Note_on_c, 12, 47, 127
1, 1733175, Note_on_c, 10, 45, 127
1, 1733278, Note_off_c, 10, 45, 127
1, 1733282, Note_on_c, 7, 43, 127
1, 1733384, Note_off_c, 12, 47, 127
1, 1733389, Note_on_c, 12, 47, 127
1, 1733489, Note_off_c, 2, 50, 127
1, 1733496, Note_on_c, 4, 52, 127
1, 1733599, Note_off_c, 4, 52, 127
1, 1733603, Note_on_c, 2, 50, 127
1, 1733705, Note_off_c, 12, 47, 127
1, 1733710, Note_on_c, 12, 47, 127
1, 1733810, Note_off_c, 7, 43, 127
1, 1733817, Note_on_c, 10, 45, 127
1, 1733920, Note_off_c, 10, 45, 127
1, 1733924, Note_on_c, 7, 43, 127
1, 1734026, Note_off_c, 12, 47, 127
1, 1734031, Note_on_c, 12, 47, 127
1, 1734131, Note_off_c, 2, 50, 127
1, 1734138, Note_on_c, 0, 48, 127
1, 1734241, Note_off_c, 0, 48, 127
1, 1734241, Note_off_c, 12, 47, 127
1, 1734245, Note_on_c, 12, 47, 127
1, 1734346, Note_off_c, 7, 43, 127
1, 1734353, Note_on_c, 7, 43, 127
1, 1734460, Note_on_c, 6, 42, 127
1, 1734563, Note_off_c, 6, 42, 127
1, 1734567, Note_on_c, 4, 40, 127
1, 1734669, Note_off_c, 7, 43, 127
1, 1734674, Note_on_c, 7, 43, 127
1, 1734773, Note_off_c, 12, 47, 127
1, 1734781, Note_on_c, 10, 45, 127
1, 1734884, Note_off_c, 10, 45, 127
1, 1734884, Note_off_c, 7, 43, 127
1, 1734888, Note_on_c, 7, 43, 127
1, 1734989, Note_off_c, 4, 40, 127
1, 1734995, Note_on_c, 4, 40, 127
1, 1735102, Note_on_c, 2, 38, 127
1, 1735205, Note_off_c, 2, 38, 127
1, 1735209, Note_on_c, 1, 37, 127
1, 1735316, Note_on_c, 7, 55, 127
1, 1735416, Note_off_c, 7, 43, 127
1, 1735417, Note_off_c, 4, 40, 127
1, 1735419, Note_off_c, 7, 55, 127
1, 1735423, Note_on_c, 10, 57, 127
1, 1735525, Note_off_c, 1, 37, 127
1, 1735526, Note_off_c, 10, 57, 127
1, 1735530, Note_on_c, 4, 64, 127
1, 1735530, Note_on_c, 1, 49, 127
1, 1735637, Note_on_c, 10, 57, 127
1, 1735740, Note_off_c, 10, 57, 127
1, 1735744, Note_on_c, 7, 55, 127
1, 1735846, Note_off_c, 1, 49, 127
1, 1735851, Note_on_c, 2, 50, 127
1, 1735954, Note_off_c, 7, 55, 127
1, 1735958, Note_on_c, 6, 54, 127
1, 1736061, Note_off_c, 6, 54, 127
1, 1736066, Note_on_c, 10, 57, 127
1, 1736164, Note_off_c, 4, 64, 127
1, 1736167, Note_off_c, 2, 50, 127
1, 1736169, Note_off_c, 10, 57, 127
1, 1736173, Note_on_c, 2, 62, 127
1, 1736173, Note_on_c, 6, 42, 127
1, 1736280, Note_on_c, 10, 57, 127
1, 1736383, Note_off_c, 10, 57, 127
1, 1736387, Note_on_c, 6, 54, 127
1, 1736489, Note_off_c, 6, 42, 127
1, 1736494, Note_on_c, 7, 43, 127
1, 1736597, Note_off_c, 6, 54, 127
1, 1736601, Note_on_c, 4, 52, 127
1, 1736704, Note_off_c, 4, 52, 127
1, 1736708, Note_on_c, 7, 55, 127
1, 1736807, Note_off_c, 2, 62, 127
1, 1736810, Note_off_c, 7, 43, 127
1, 1736811, Note_off_c, 7, 55, 127
1, 1736815, Note_on_c, 1, 61, 127
1, 1736815, Note_on_c, 10, 45, 127
1, 1736922, Note_on_c, 7, 55, 127
1, 1737025, Note_off_c, 7, 55, 127
1, 1737025, Note_off_c, 1, 61, 127
1, 1737029, Note_on_c, 4, 52, 127
1, 1737131, Note_off_c, 10, 45, 127
1, 1737135, Note_off_c, 4, 52, 127
1, 1737136, Note_on_c, 2, 38, 127
1, 1737457, Note_on_c, 2, 50, 127
1, 1737618, Note_on_c, 10, 57, 127
1, 1737618, Note_on_c, 6, 54, 127
1, 1737618, Note_on_c, 2, 62, 127
1, 1737771, Note_off_c, 2, 38, 127
1, 1737774, Note_off_c, 2, 50, 127
1, 1737775, Note_off_c, 2, 62, 127
1, 1737775, Note_off_c, 6, 54, 127
1, 1737775, Note_off_c, 10, 57, 127
1, 1737780, Note_on_c, 7, 55, 127
1, 1737780, Note_on_c, 4, 52, 127
1, 1737780, Note_on_c, 1, 61, 127
1, 1737937, Note_off_c, 1, 61, 127
1, 1737937, Note_off_c, 4, 52, 127
1, 1737937, Note_off_c, 7, 55, 127
1, 1737941, Note_on_c, 10, 57, 127
1, 1737941, Note_on_c, 6, 54, 127
1, 1737941, Note_on_c, 2, 62, 127
1, 1738098, Note_off_c, 2, 62, 127
1, 1738098, Note_off_c, 6, 54, 127
1, 1738098, Note_off_c, 10, 57, 127
1, 1738102, Note_on_c, 7, 55, 127
1, 1738102, Note_on_c, 4, 52, 127
1, 1738102, Note_on_c, 1, 61, 127
1, 1738259, Note_off_c, 1, 61, 127
1, 1738259, Note_off_c, 4, 52, 127
1, 1738259, Note_off_c, 7, 55, 127
1, 1738263, Note_on_c, 10, 57, 127
1, 1738263, Note_on_c, 6, 54, 127
1, 1738263, Note_on_c, 2, 62, 127
1, 1738424, Note_on_c, 2, 38, 127
1, 1738424, Note_on_c, 2, 50, 127
1, 1738580, Note_off_c, 2, 62, 127
1, 1738580, Note_off_c, 6, 54, 127
1, 1738580, Note_off_c, 10, 57, 127
1, 1739059, Note_off_c, 2, 50, 127
1, 1739059, Note_off_c, 2, 38, 127
1, 1739067, Note_on_c, 2, 74, 127
1, 1739174, Note_on_c, 6, 78, 127
1, 1739277, Note_off_c, 6, 78, 127
1, 1739282, Note_on_c, 12, 83, 127
1, 1739385, Note_off_c, 12, 83, 127
1, 1739389, Note_on_c, 10, 81, 127
1, 1739496, Note_on_c, 6, 78, 127
1, 1739599, Note_off_c, 6, 78, 127
1, 1739599, Note_off_c, 2, 74, 127
1, 1739603, Note_on_c, 4, 76, 127
1, 1739708, Note_off_c, 4, 76, 127
1, 1739711, Note_on_c, 2, 74, 127
1, 1739818, Note_on_c, 6, 78, 127
1, 1739921, Note_off_c, 6, 78, 127
1, 1739922, Note_off_c, 10, 81, 127
1, 1739925, Note_on_c, 7, 79, 127
1, 1740030, Note_off_c, 7, 79, 127
1, 1740033, Note_on_c, 6, 78, 127
1, 1740129, Note_off_c, 2, 74, 127
1, 1740140, Note_on_c, 2, 74, 127
1, 1740243, Note_off_c, 2, 74, 127
1, 1740247, Note_on_c, 0, 72, 127
1, 1740350, Note_off_c, 0, 72, 127
1, 1740354, Note_on_c, 12, 71, 127
1, 1740461, Note_on_c, 2, 74, 127
1, 1740564, Note_off_c, 2, 74, 127
1, 1740565, Note_off_c, 6, 78, 127
1, 1740568, Note_on_c, 4, 76, 127
1, 1740673, Note_off_c, 4, 76, 127
1, 1740677, Note_on_c, 2, 74, 127
1, 1740772, Note_off_c, 12, 71, 127
1, 1740784, Note_on_c, 12, 71, 127
1, 1740887, Note_off_c, 12, 71, 127
1, 1740891, Note_on_c, 10, 69, 127
1, 1740994, Note_off_c, 10, 69, 127
1, 1740998, Note_on_c, 7, 67, 127
1, 1741105, Note_on_c, 12, 71, 127
1, 1741208, Note_off_c, 12, 71, 127
1, 1741209, Note_off_c, 2, 74, 127
1, 1741212, Note_on_c, 4, 76, 127
1, 1741317, Note_off_c, 4, 76, 127
1, 1741320, Note_on_c, 2, 74, 127
1, 1741427, Note_on_c, 12, 71, 127
1, 1741530, Note_off_c, 12, 71, 127
1, 1741531, Note_off_c, 7, 67, 127
1, 1741534, Note_on_c, 10, 69, 127
1, 1741639, Note_off_c, 10, 69, 127
1, 1741642, Note_on_c, 7, 67, 127
1, 1741749, Note_on_c, 12, 71, 127
1, 1741852, Note_off_c, 12, 71, 127
1, 1741853, Note_off_c, 2, 74, 127
1, 1741856, Note_on_c, 0, 72, 127
1, 1741961, Note_off_c, 0, 72, 127
1, 1741964, Note_on_c, 12, 71, 127
1, 1742060, Note_off_c, 7, 67, 127
1, 1742071, Note_on_c, 7, 67, 127
1, 1742174, Note_off_c, 7, 67, 127
1, 1742179, Note_on_c, 6, 66, 127
1, 1742282, Note_off_c, 6, 66, 127
1, 1742286, Note_on_c, 4, 64, 127
1, 1742393, Note_on_c, 7, 67, 127
1, 1742496, Note_off_c, 7, 67, 127
1, 1742496, Note_off_c, 12, 71, 127
1, 1742500, Note_on_c, 10, 69, 127
1, 1742605, Note_off_c, 10, 69, 127
1, 1742608, Note_on_c, 7, 67, 127
1, 1742704, Note_off_c, 4, 64, 127
1, 1742715, Note_on_c, 4, 64, 127
1, 1742818, Note_off_c, 4, 64, 127
1, 1742822, Note_on_c, 2, 62, 127
1, 1742925, Note_off_c, 2, 62, 127
1, 1742929, Note_on_c, 0, 60, 127
1, 1743036, Note_on_c, 4, 64, 127
1, 1743139, Note_off_c, 4, 64, 127
1, 1743140, Note_off_c, 7, 67, 127
1, 1743143, Note_on_c, 5, 65, 127
1, 1743248, Note_off_c, 5, 65, 127
1, 1743251, Note_on_c, 4, 64, 127
1, 1743347, Note_off_c, 0, 60, 127
1, 1743358, Note_on_c, 0, 60, 127
1, 1743461, Note_off_c, 0, 60, 127
1, 1743465, Note_on_c, 12, 59, 127
1, 1743568, Note_off_c, 12, 59, 127
1, 1743572, Note_on_c, 10, 57, 127
1, 1743679, Note_on_c, 0, 60, 127
1, 1743782, Note_off_c, 0, 60, 127
1, 1743783, Note_off_c, 4, 64, 127
1, 1743787, Note_on_c, 2, 62, 127
1, 1743892, Note_off_c, 2, 62, 127
1, 1743895, Note_on_c, 0, 60, 127
1, 1743990, Note_off_c, 10, 57, 127
1, 1744002, Note_on_c, 10, 57, 127
1, 1744105, Note_off_c, 10, 57, 127
1, 1744109, Note_on_c, 7, 55, 127
1, 1744212, Note_off_c, 7, 55, 127
1, 1744216, Note_on_c, 6, 54, 127
1, 1744323, Note_on_c, 10, 57, 127
1, 1744426, Note_off_c, 10, 57, 127
1, 1744427, Note_off_c, 0, 60, 127
1, 1744430, Note_on_c, 12, 59, 127
1, 1744535, Note_off_c, 12, 59, 127
1, 1744538, Note_on_c, 10, 57, 127
1, 1744634, Note_off_c, 6, 54, 127
1, 1744645, Note_on_c, 6, 54, 127
1, 1744748, Note_off_c, 6, 54, 127
1, 1744752, Note_on_c, 4, 52, 127
1, 1744855, Note_off_c, 4, 52, 127
1, 1744859, Note_on_c, 3, 51, 127
1, 1744966, Note_on_c, 6, 54, 127
1, 1745069, Note_off_c, 6, 54, 127
1, 1745070, Note_off_c, 10, 57, 127
1, 1745073, Note_on_c, 7, 55, 127
1, 1745178, Note_off_c, 7, 55, 127
1, 1745182, Note_on_c, 6, 54, 127
1, 1745277, Note_off_c, 3, 51, 127
1, 1745289, Note_on_c, 3, 51, 127
1, 1745392, Note_off_c, 3, 51, 127
1, 1745396, Note_on_c, 1, 49, 127
1, 1745499, Note_off_c, 1, 49, 127
1, 1745503, Note_on_c, 12, 47, 127
1, 1745610, Note_on_c, 3, 51, 127
1, 1745713, Note_off_c, 3, 51, 127
1, 1745714, Note_off_c, 6, 54, 127
1, 1745717, Note_on_c, 4, 52, 127
1, 1745822, Note_off_c, 4, 52, 127
1, 1745825, Note_on_c, 3, 51, 127
1, 1745921, Note_off_c, 12, 47, 127
1, 1745932, Note_on_c, 12, 47, 127
1, 1746035, Note_off_c, 12, 47, 127
1, 1746039, Note_on_c, 10, 45, 127
1, 1746142, Note_off_c, 10, 45, 127
1, 1746146, Note_on_c, 7, 43, 127
1, 1746253, Note_on_c, 12, 47, 127
1, 1746356, Note_off_c, 12, 47, 127
1, 1746357, Note_off_c, 3, 51, 127
1, 1746360, Note_on_c, 0, 48, 127
1, 1746465, Note_off_c, 0, 48, 127
1, 1746468, Note_on_c, 12, 47, 127
1, 1746564, Note_off_c, 7, 43, 127
1, 1746575, Note_on_c, 7, 43, 127
1, 1746678, Note_off_c, 7, 43, 127
1, 1746682, Note_on_c, 6, 42, 127
1, 1746785, Note_off_c, 6, 42, 127
1, 1746790, Note_on_c, 4, 40, 127
1, 1746868, Note_off_c, 12, 47, 127
1, 1747111, Note_on_c, 4, 52, 127
1, 1747272, Note_on_c, 7, 67, 127
1, 1747272, Note_on_c, 4, 76, 127
1, 1747272, Note_on_c, 12, 71, 127
1, 1747425, Note_off_c, 4, 40, 127
1, 1747428, Note_off_c, 4, 52, 127
1, 1747429, Note_off_c, 12, 71, 127
1, 1747429, Note_off_c, 4, 76, 127
1, 1747429, Note_off_c, 7, 67, 127
1, 1747433, Note_on_c, 6, 66, 127
1, 1747433, Note_on_c, 3, 75, 127
1, 1747433, Note_on_c, 10, 69, 127
1, 1747590, Note_off_c, 10, 69, 127
1, 1747590, Note_off_c, 3, 75, 127
1, 1747590, Note_off_c, 6, 66, 127
1, 1747594, Note_on_c, 4, 76, 127
1, 1747594, Note_on_c, 12, 71, 127
1, 1747594, Note_on_c, 7, 67, 127
1, 1747751, Note_off_c, 7, 67, 127
1, 1747751, Note_off_c, 12, 71, 127
1, 1747751, Note_off_c, 4, 76, 127
1, 1747755, Note_on_c, 6, 66, 127
1, 1747755, Note_on_c, 10, 69, 127
1, 1747755, Note_on_c, 3, 75, 127
1, 1747912, Note_off_c, 3, 75, 127
1, 1747912, Note_off_c, 10, 69, 127
1, 1747912, Note_off_c, 6, 66, 127
1, 1747916, Note_on_c, 12, 71, 127
1, 1747916, Note_on_c, 7, 67, 127
1, 1747916, Note_on_c, 4, 76, 127
1, 1748073, Note_off_c, 4, 76, 127
1, 1748073, Note_off_c, 7, 67, 127
1, 1748073, Note_off_c, 12, 71, 127
1, 1748077, Note_on_c, 7, 55, 127
1, 1748077, Note_on_c, 7, 67, 127
1, 1748229, Note_off_c, 7, 67, 127
1, 1748237, Note_on_c, 12, 71, 127
1, 1748237, Note_on_c, 7, 67, 127
1, 1748237, Note_on_c, 4, 76, 127
1, 1748393, Note_off_c, 7, 55, 127
1, 1748394, Note_off_c, 4, 76, 127
1, 1748394, Note_off_c, 7, 67, 127
1, 1748394, Note_off_c, 12, 71, 127
1, 1748399, Note_on_c, 6, 66, 127
1, 1748399, Note_on_c, 10, 69, 127
1, 1748399, Note_on_c, 3, 75, 127
1, 1748556, Note_off_c, 3, 75, 127
1, 1748556, Note_off_c, 10, 69, 127
1, 1748556, Note_off_c, 6, 66, 127
1, 1748560, Note_on_c, 7, 67, 127
1, 1748560, Note_on_c, 12, 71, 127
1, 1748560, Note_on_c, 4, 76, 127
1, 1748717, Note_off_c, 4, 76, 127
1, 1748717, Note_off_c, 12, 71, 127
1, 1748717, Note_off_c, 7, 67, 127
1, 1748721, Note_on_c, 0, 48, 127
1, 1749042, Note_on_c, 0, 60, 127
1, 1749203, Note_on_c, 4, 76, 127
1, 1749203, Note_on_c, 12, 71, 127
1, 1749203, Note_on_c, 7, 67, 127
1, 1749356, Note_off_c, 0, 48, 127
1, 1749359, Note_off_c, 0, 60, 127
1, 1749360, Note_off_c, 7, 67, 127
1, 1749360, Note_off_c, 12, 71, 127
1, 1749360, Note_off_c, 4, 76, 127
1, 1749364, Note_on_c, 6, 66, 127
1, 1749364, Note_on_c, 10, 69, 127
1, 1749364, Note_on_c, 3, 75, 127
1, 1749521, Note_off_c, 3, 75, 127
1, 1749521, Note_off_c, 10, 69, 127
1, 1749521, Note_off_c, 6, 66, 127
1, 1749525, Note_on_c, 12, 71, 127
1, 1749525, Note_on_c, 4, 76, 127
1, 1749525, Note_on_c, 7, 67, 127
1, 1749682, Note_off_c, 7, 67, 127
1, 1749682, Note_off_c, 4, 76, 127
1, 1749682, Note_off_c, 12, 71, 127
1, 1749687, Note_on_c, 6, 66, 127
1, 1749687, Note_on_c, 10, 69, 127
1, 1749687, Note_on_c, 3, 75, 127
1, 1749844, Note_off_c, 3, 75, 127
1, 1749844, Note_off_c, 10, 69, 127
1, 1749844, Note_off_c, 6, 66, 127
1, 1749848, Note_on_c, 7, 67, 127
1, 1749848, Note_on_c, 4, 76, 127
1, 1749848, Note_on_c, 12, 71, 127
1, 1750005, Note_off_c, 12, 71, 127
1, 1750005, Note_off_c, 4, 76, 127
1, 1750005, Note_off_c, 7, 67, 127
1, 1750009, Note_on_c, 12, 59, 127
1, 1750009, Note_on_c, 12, 71, 127
1, 1750161, Note_off_c, 12, 71, 127
1, 1750169, Note_on_c, 7, 67, 127
1, 1750169, Note_on_c, 4, 76, 127
1, 1750169, Note_on_c, 12, 71, 127
1, 1750325, Note_off_c, 12, 59, 127
1, 1750326, Note_off_c, 12, 71, 127
1, 1750326, Note_off_c, 4, 76, 127
1, 1750326, Note_off_c, 7, 67, 127
1, 1750330, Note_on_c, 6, 66, 127
1, 1750330, Note_on_c, 10, 69, 127
1, 1750330, Note_on_c, 3, 75, 127
1, 1750487, Note_off_c, 3, 75, 127
1, 1750487, Note_off_c, 10, 69, 127
1, 1750487, Note_off_c, 6, 66, 127
1, 1750491, Note_on_c, 4, 76, 127
1, 1750491, Note_on_c, 12, 71, 127
1, 1750491, Note_on_c, 7, 67, 127
1, 1750648, Note_off_c, 7, 67, 127
1, 1750648, Note_off_c, 12, 71, 127
1, 1750648, Note_off_c, 4, 76, 127
1, 1750652, Note_on_c, 10, 57, 127
1, 1750759, Note_on_c, 6, 78, 127
1, 1750862, Note_off_c, 6, 78, 127
1, 1750866, Note_on_c, 7, 79, 127
1, 1750968, Note_off_c, 10, 57, 127
1, 1750969, Note_off_c, 7, 79, 127
1, 1750973, Note_on_c, 10, 81, 127
1, 1750973, Note_on_c, 3, 51, 127
1, 1751076, Note_off_c, 10, 81, 127
1, 1751080, Note_on_c, 12, 83, 127
1, 1751183, Note_off_c, 12, 83, 127
1, 1751187, Note_on_c, 0, 84, 127
1, 1751289, Note_off_c, 3, 51, 127
1, 1751295, Note_on_c, 4, 52, 127
1, 1751397, Note_off_c, 0, 84, 127
1, 1751402, Note_on_c, 12, 83, 127
1, 1751505, Note_off_c, 12, 83, 127
1, 1751509, Note_on_c, 10, 81, 127
1, 1751611, Note_off_c, 4, 52, 127
1, 1751612, Note_off_c, 10, 81, 127
1, 1751616, Note_on_c, 7, 79, 127
1, 1751616, Note_on_c, 10, 57, 127
1, 1751719, Note_off_c, 7, 79, 127
1, 1751723, Note_on_c, 6, 78, 127
1, 1751826, Note_off_c, 6, 78, 127
1, 1751830, Note_on_c, 4, 76, 127
1, 1751932, Note_off_c, 10, 57, 127
1, 1751933, Note_off_c, 4, 76, 127
1, 1751937, Note_on_c, 3, 75, 127
1, 1751937, Note_on_c, 12, 59, 127
1, 1752040, Note_off_c, 3, 75, 127
1, 1752044, Note_on_c, 0, 72, 127
1, 1752147, Note_off_c, 0, 72, 127
1, 1752151, Note_on_c, 12, 71, 127
1, 1752253, Note_off_c, 12, 59, 127
1, 1752254, Note_off_c, 12, 71, 127
1, 1752258, Note_on_c, 10, 69, 127
1, 1752258, Note_on_c, 12, 47, 127
1, 1752361, Note_off_c, 10, 69, 127
1, 1752365, Note_on_c, 7, 67, 127
1, 1752468, Note_off_c, 7, 67, 127
1, 1752472, Note_on_c, 6, 66, 127
1, 1752574, Note_off_c, 12, 47, 127
1, 1752575, Note_off_c, 6, 66, 127
1, 1752577, Note_on_c, 4, 64, 127
1, 1752579, Note_on_c, 4, 52, 127
1, 1752734, Note_off_c, 4, 64, 127
1, 1752739, Note_on_c, 7, 67, 127
1, 1752739, Note_on_c, 12, 71, 127
1, 1752739, Note_on_c, 4, 76, 127
1, 1752895, Note_off_c, 4, 52, 127
1, 1752896, Note_off_c, 4, 76, 127
1, 1752896, Note_off_c, 12, 71, 127
1, 1752896, Note_off_c, 7, 67, 127
1, 1752900, Note_on_c, 6, 66, 127
1, 1752900, Note_on_c, 10, 69, 127
1, 1752900, Note_on_c, 3, 75, 127
1, 1753057, Note_off_c, 3, 75, 127
1, 1753057, Note_off_c, 10, 69, 127
1, 1753057, Note_off_c, 6, 66, 127
1, 1753062, Note_on_c, 7, 67, 127
1, 1753062, Note_on_c, 12, 71, 127
1, 1753062, Note_on_c, 4, 76, 127
1, 1753219, Note_off_c, 4, 76, 127
1, 1753219, Note_off_c, 12, 71, 127
1, 1753219, Note_off_c, 7, 67, 127
1, 1753223, Note_on_c, 3, 63, 127
1, 1753223, Note_on_c, 6, 66, 127
1, 1753223, Note_on_c, 12, 71, 127
1, 1753380, Note_off_c, 12, 71, 127
1, 1753380, Note_off_c, 6, 66, 127
1, 1753380, Note_off_c, 3, 63, 127
1, 1753384, Note_on_c, 4, 64, 127
1, 1753384, Note_on_c, 7, 67, 127
1, 1753384, Note_on_c, 0, 72, 127
1, 1753541, Note_off_c, 0, 72, 127
1, 1753541, Note_off_c, 7, 67, 127
1, 1753541, Note_off_c, 4, 64, 127
1, 1753545, Note_on_c, 3, 63, 127
1, 1753545, Note_on_c, 6, 66, 127
1, 1753545, Note_on_c, 12, 71, 127
1, 1753702, Note_off_c, 12, 71, 127
1, 1753702, Note_off_c, 6, 66, 127
1, 1753702, Note_off_c, 3, 63, 127
1, 1753706, Note_on_c, 4, 64, 127
1, 1753706, Note_on_c, 7, 67, 127
1, 1753706, Note_on_c, 0, 72, 127
1, 1753863, Note_off_c, 0, 72, 127
1, 1753863, Note_off_c, 7, 67, 127
1, 1753863, Note_off_c, 4, 64, 127
1, 1753867, Note_on_c, 10, 57, 127
1, 1753867, Note_on_c, 3, 63, 127
1, 1753867, Note_on_c, 6, 66, 127
1, 1754024, Note_off_c, 6, 66, 127
1, 1754024, Note_off_c, 3, 63, 127
1, 1754024, Note_off_c, 10, 57, 127
1, 1754028, Note_on_c, 12, 59, 127
1, 1754028, Note_on_c, 4, 64, 127
1, 1754028, Note_on_c, 7, 67, 127
1, 1754185, Note_off_c, 7, 67, 127
1, 1754185, Note_off_c, 4, 64, 127
1, 1754185, Note_off_c, 12, 59, 127
1, 1754189, Note_on_c, 10, 57, 127
1, 1754189, Note_on_c, 3, 63, 127
1, 1754189, Note_on_c, 6, 66, 127
1, 1754346, Note_off_c, 6, 66, 127
1, 1754346, Note_off_c, 3, 63, 127
1, 1754346, Note_off_c, 10, 57, 127
1, 1754351, Note_on_c, 12, 59, 127
1, 1754351, Note_on_c, 4, 64, 127
1, 1754351, Note_on_c, 7, 67, 127
1, 1754508, Note_off_c, 7, 67, 127
1, 1754508, Note_off_c, 4, 64, 127
1, 1754508, Note_off_c, 12, 59, 127
1, 1754512, Note_on_c, 0, 48, 127
1, 1754619, Note_on_c, 4, 52, 127
1, 1754722, Note_off_c, 4, 52, 127
1, 1754726, Note_on_c, 5, 53, 127
1, 1754828, Note_off_c, 0, 48, 127
1, 1754829, Note_off_c, 5, 53, 127
1, 1754833, Note_on_c, 6, 54, 127
1, 1754833, Note_on_c, 12, 59, 127
1, 1754936, Note_off_c, 6, 54, 127
1, 1754940, Note_on_c, 7, 55, 127
1, 1755043, Note_off_c, 7, 55, 127
1, 1755047, Note_on_c, 8, 56, 127
1, 1755149, Note_off_c, 12, 59, 127
1, 1755150, Note_off_c, 8, 56, 127
1, 1755154, Note_on_c, 10, 57, 127
1, 1755261, Note_on_c, 12, 59, 127
1, 1755364, Note_off_c, 12, 59, 127
1, 1755368, Note_on_c, 0, 60, 127
1, 1755470, Note_off_c, 10, 57, 127
1, 1755471, Note_off_c, 0, 60, 127
1, 1755475, Note_on_c, 2, 62, 127
1, 1755475, Note_on_c, 8, 56, 127
1, 1755582, Note_on_c, 0, 60, 127
1, 1755586, Note_off_c, 2, 62, 127
1, 1755687, Note_off_c, 0, 60, 127
1, 1755690, Note_on_c, 12, 59, 127
1, 1755792, Note_off_c, 8, 56, 127
1, 1755793, Note_off_c, 12, 59, 127
1, 1755797, Note_on_c, 0, 60, 127
1, 1755797, Note_on_c, 10, 57, 127
1, 1755900, Note_off_c, 0, 60, 127
1, 1755904, Note_on_c, 2, 62, 127
1, 1756007, Note_off_c, 2, 62, 127
1, 1756012, Note_on_c, 4, 64, 127
1, 1756113, Note_off_c, 10, 57, 127
1, 1756115, Note_off_c, 4, 64, 127
1, 1756119, Note_on_c, 6, 66, 127
1, 1756119, Note_on_c, 0, 48, 127
1, 1756222, Note_off_c, 6, 66, 127
1, 1756226, Note_on_c, 7, 67, 127
1, 1756329, Note_off_c, 7, 67, 127
1, 1756333, Note_on_c, 10, 69, 127
1, 1756435, Note_off_c, 0, 48, 127
1, 1756436, Note_off_c, 10, 69, 127
1, 1756440, Note_on_c, 12, 47, 127
1, 1756547, Note_on_c, 2, 50, 127
1, 1756650, Note_off_c, 2, 50, 127
1, 1756654, Note_on_c, 3, 51, 127
1, 1756756, Note_off_c, 12, 47, 127
1, 1756757, Note_off_c, 3, 51, 127
1, 1756761, Note_on_c, 4, 52, 127
1, 1756761, Note_on_c, 10, 57, 127
1, 1756864, Note_off_c, 4, 52, 127
1, 1756868, Note_on_c, 5, 53, 127
1, 1756971, Note_off_c, 5, 53, 127
1, 1756975, Note_on_c, 6, 54, 127
1, 1757077, Note_off_c, 10, 57, 127
1, 1757078, Note_off_c, 6, 54, 127
1, 1757082, Note_on_c, 7, 55, 127
1, 1757189, Note_on_c, 10, 57, 127
1, 1757292, Note_off_c, 10, 57, 127
1, 1757296, Note_on_c, 12, 59, 127
1, 1757398, Note_off_c, 7, 55, 127
1, 1757399, Note_off_c, 12, 59, 127
1, 1757403, Note_on_c, 0, 60, 127
1, 1757403, Note_on_c, 6, 54, 127
1, 1757506, Note_off_c, 0, 60, 127
1, 1757510, Note_on_c, 12, 59, 127
1, 1757613, Note_off_c, 12, 59, 127
1, 1757617, Note_on_c, 10, 57, 127
1, 1757719, Note_off_c, 6, 54, 127
1, 1757720, Note_off_c, 10, 57, 127
1, 1757724, Note_on_c, 12, 59, 127
1, 1757724, Note_on_c, 7, 55, 127
1, 1757827, Note_off_c, 12, 59, 127
1, 1757832, Note_on_c, 0, 60, 127
1, 1757935, Note_off_c, 0, 60, 127
1, 1757939, Note_on_c, 2, 62, 127
1, 1758040, Note_off_c, 7, 55, 127
1, 1758042, Note_off_c, 2, 62, 127
1, 1758046, Note_on_c, 4, 64, 127
1, 1758046, Note_on_c, 12, 47, 127
1, 1758149, Note_off_c, 4, 64, 127
1, 1758153, Note_on_c, 6, 66, 127
1, 1758256, Note_off_c, 6, 66, 127
1, 1758260, Note_on_c, 7, 67, 127
1, 1758362, Note_off_c, 12, 47, 127
1, 1758363, Note_off_c, 7, 67, 127
1, 1758367, Note_on_c, 0, 60, 127
1, 1758367, Note_on_c, 10, 45, 127
1, 1758474, Note_on_c, 10, 57, 127
1, 1758577, Note_off_c, 10, 45, 127
1, 1758577, Note_off_c, 0, 60, 127
1, 1758581, Note_on_c, 5, 65, 127
1, 1758684, Note_off_c, 5, 65, 127
1, 1758688, Note_on_c, 4, 64, 127
1, 1758795, Note_on_c, 0, 60, 127
1, 1758898, Note_off_c, 0, 60, 127
1, 1758900, Note_off_c, 10, 57, 127
1, 1758902, Note_on_c, 12, 59, 127
1, 1759007, Note_off_c, 12, 59, 127
1, 1759010, Note_on_c, 10, 57, 127
1, 1759115, Note_off_c, 4, 64, 127
1, 1759117, Note_on_c, 0, 60, 127
1, 1759222, Note_off_c, 0, 60, 127
1, 1759225, Note_on_c, 2, 62, 127
1, 1759328, Note_off_c, 2, 62, 127
1, 1759333, Note_on_c, 0, 60, 127
1, 1759428, Note_off_c, 10, 57, 127
1, 1759440, Note_on_c, 10, 57, 127
1, 1759543, Note_off_c, 10, 57, 127
1, 1759547, Note_on_c, 7, 55, 127
1, 1759650, Note_off_c, 7, 55, 127
1, 1759654, Note_on_c, 6, 54, 127
1, 1759761, Note_on_c, 10, 57, 127
1, 1759864, Note_off_c, 10, 57, 127
1, 1759865, Note_off_c, 0, 60, 127
1, 1759868, Note_on_c, 12, 59, 127
1, 1759973, Note_off_c, 12, 59, 127
1, 1759976, Note_on_c, 10, 57, 127
1, 1760072, Note_off_c, 6, 54, 127
1, 1760083, Note_on_c, 6, 54, 127
1, 1760186, Note_off_c, 6, 54, 127
1, 1760190, Note_on_c, 4, 52, 127
1, 1760293, Note_off_c, 4, 52, 127
1, 1760297, Note_on_c, 2, 50, 127
1, 1760404, Note_on_c, 2, 62, 127
1, 1760507, Note_off_c, 2, 50, 127
1, 1760508, Note_off_c, 10, 57, 127
1, 1760511, Note_on_c, 12, 71, 127
1, 1760616, Note_off_c, 12, 71, 127
1, 1760619, Note_on_c, 10, 69, 127
1, 1760726, Note_on_c, 6, 66, 127
1, 1760829, Note_off_c, 6, 66, 127
1, 1760831, Note_off_c, 2, 62, 127
1, 1760833, Note_on_c, 4, 64, 127
1, 1760938, Note_off_c, 4, 64, 127
1, 1760942, Note_on_c, 2, 62, 127
1, 1761049, Note_on_c, 6, 66, 127
1, 1761152, Note_off_c, 6, 66, 127
1, 1761152, Note_off_c, 10, 69, 127
1, 1761156, Note_on_c, 7, 67, 127
1, 1761261, Note_off_c, 7, 67, 127
1, 1761264, Note_on_c, 6, 66, 127
1, 1761360, Note_off_c, 2, 62, 127
1, 1761371, Note_on_c, 2, 62, 127
1, 1761474, Note_off_c, 2, 62, 127
1, 1761478, Note_on_c, 0, 60, 127
1, 1761581, Note_off_c, 0, 60, 127
1, 1761585, Note_on_c, 12, 59, 127
1, 1761692, Note_on_c, 2, 62, 127
1, 1761795, Note_off_c, 2, 62, 127
1, 1761796, Note_off_c, 6, 66, 127
1, 1761799, Note_on_c, 4, 64, 127
1, 1761904, Note_off_c, 4, 64, 127
1, 1761907, Note_on_c, 2, 62, 127
1, 1762003, Note_off_c, 12, 59, 127
1, 1762014, Note_on_c, 12, 59, 127
1, 1762117, Note_off_c, 12, 59, 127
1, 1762121, Note_on_c, 10, 57, 127
1, 1762224, Note_off_c, 10, 57, 127
1, 1762228, Note_on_c, 7, 55, 127
1, 1762335, Note_on_c, 7, 67, 127
1, 1762438, Note_off_c, 7, 55, 127
1, 1762439, Note_off_c, 2, 62, 127
1, 1762443, Note_on_c, 4, 76, 127
1, 1762548, Note_off_c, 4, 76, 127
1, 1762551, Note_on_c, 2, 74, 127
1, 1762658, Note_on_c, 12, 71, 127
1, 1762761, Note_off_c, 12, 71, 127
1, 1762762, Note_off_c, 7, 67, 127
1, 1762765, Note_on_c, 10, 69, 127
1, 1762870, Note_off_c, 10, 69, 127
1, 1762873, Note_on_c, 7, 67, 127
1, 1762980, Note_on_c, 12, 71, 127
1, 1763083, Note_off_c, 12, 71, 127
1, 1763084, Note_off_c, 2, 74, 127
1, 1763087, Note_on_c, 0, 72, 127
1, 1763192, Note_off_c, 0, 72, 127
1, 1763195, Note_on_c, 12, 71, 127
1, 1763291, Note_off_c, 7, 67, 127
1, 1763302, Note_on_c, 7, 67, 127
1, 1763405, Note_off_c, 7, 67, 127
1, 1763409, Note_on_c, 5, 65, 127
1, 1763512, Note_off_c, 5, 65, 127
1, 1763516, Note_on_c, 4, 64, 127
1, 1763623, Note_on_c, 7, 67, 127
1, 1763726, Note_off_c, 7, 67, 127
1, 1763727, Note_off_c, 12, 71, 127
1, 1763730, Note_on_c, 10, 69, 127
1, 1763835, Note_off_c, 10, 69, 127
1, 1763839, Note_on_c, 7, 67, 127
1, 1763934, Note_off_c, 4, 64, 127
1, 1763946, Note_on_c, 4, 64, 127
1, 1764049, Note_off_c, 4, 64, 127
1, 1764053, Note_on_c, 2, 62, 127
1, 1764156, Note_off_c, 2, 62, 127
1, 1764160, Note_on_c, 0, 60, 127
1, 1764267, Note_on_c, 0, 72, 127
1, 1764370, Note_off_c, 0, 60, 127
1, 1764371, Note_off_c, 7, 67, 127
1, 1764374, Note_on_c, 10, 81, 127
1, 1764479, Note_off_c, 10, 81, 127
1, 1764482, Note_on_c, 7, 79, 127
1, 1764589, Note_on_c, 4, 76, 127
1, 1764692, Note_off_c, 4, 76, 127
1, 1764694, Note_off_c, 0, 72, 127
1, 1764696, Note_on_c, 2, 74, 127
1, 1764801, Note_off_c, 2, 74, 127
1, 1764804, Note_on_c, 0, 72, 127
1, 1764911, Note_on_c, 4, 76, 127
1, 1765014, Note_off_c, 4, 76, 127
1, 1765015, Note_off_c, 7, 79, 127
1, 1765018, Note_on_c, 5, 77, 127
1, 1765123, Note_off_c, 5, 77, 127
1, 1765126, Note_on_c, 4, 76, 127
1, 1765222, Note_off_c, 0, 72, 127
1, 1765234, Note_on_c, 0, 72, 127
1, 1765337, Note_off_c, 0, 72, 127
1, 1765341, Note_on_c, 12, 71, 127
1, 1765444, Note_off_c, 12, 71, 127
1, 1765448, Note_on_c, 10, 69, 127
1, 1765555, Note_on_c, 0, 72, 127
1, 1765658, Note_off_c, 0, 72, 127
1, 1765658, Note_off_c, 4, 76, 127
1, 1765662, Note_on_c, 2, 74, 127
1, 1765767, Note_off_c, 2, 74, 127
1, 1765770, Note_on_c, 0, 72, 127
1, 1765866, Note_off_c, 10, 69, 127
1, 1765877, Note_on_c, 10, 69, 127
1, 1765980, Note_off_c, 10, 69, 127
1, 1765984, Note_on_c, 7, 67, 127
1, 1766087, Note_off_c, 7, 67, 127
1, 1766091, Note_on_c, 6, 66, 127
1, 1766198, Note_on_c, 10, 69, 127
1, 1766301, Note_off_c, 10, 69, 127
1, 1766302, Note_off_c, 0, 72, 127
1, 1766305, Note_on_c, 12, 71, 127
1, 1766408, Note_off_c, 6, 66, 127
1, 1766410, Note_off_c, 12, 71, 127
1, 1766413, Note_on_c, 0, 72, 127
1, 1766413, Note_on_c, 10, 57, 127
1, 1766516, Note_off_c, 0, 72, 127
1, 1766520, Note_on_c, 2, 74, 127
1, 1766623, Note_off_c, 2, 74, 127
1, 1766627, Note_on_c, 4, 76, 127
1, 1766729, Note_off_c, 10, 57, 127
1, 1766734, Note_on_c, 12, 59, 127
1, 1766837, Note_off_c, 4, 76, 127
1, 1766842, Note_on_c, 2, 74, 127
1, 1766945, Note_off_c, 2, 74, 127
1, 1766949, Note_on_c, 0, 72, 127
1, 1767050, Note_off_c, 12, 59, 127
1, 1767052, Note_off_c, 0, 72, 127
1, 1767056, Note_on_c, 12, 71, 127
1, 1767056, Note_on_c, 0, 60, 127
1, 1767159, Note_off_c, 12, 71, 127
1, 1767163, Note_on_c, 10, 69, 127
1, 1767266, Note_off_c, 10, 69, 127
1, 1767270, Note_on_c, 7, 67, 127
1, 1767372, Note_off_c, 0, 60, 127
1, 1767377, Note_on_c, 2, 62, 127
1, 1767480, Note_off_c, 7, 67, 127
1, 1767484, Note_on_c, 6, 66, 127
1, 1767587, Note_off_c, 6, 66, 127
1, 1767591, Note_on_c, 7, 67, 127
1, 1767694, Note_off_c, 7, 67, 127
1, 1767698, Note_on_c, 10, 69, 127
1, 1767698, Note_on_c, 2, 50, 127
1, 1767801, Note_off_c, 10, 69, 127
1, 1767805, Note_on_c, 12, 71, 127
1, 1767908, Note_off_c, 12, 71, 127
1, 1767912, Note_on_c, 0, 72, 127
1, 1768011, Note_off_c, 2, 62, 127
1, 1768014, Note_off_c, 2, 50, 127
1, 1768015, Note_off_c, 0, 72, 127
1, 1768019, Note_on_c, 0, 72, 127
1, 1768019, Note_on_c, 7, 55, 127
1, 1768176, Note_off_c, 0, 72, 127
1, 1768180, Note_on_c, 12, 71, 127
1, 1768341, Note_on_c, 7, 43, 127
1, 1768497, Note_off_c, 12, 71, 127
1, 1768503, Note_on_c, 12, 71, 127
1, 1768503, Note_on_c, 2, 74, 127
1, 1768503, Note_on_c, 7, 79, 127
1, 1768655, Note_off_c, 7, 55, 127
1, 1768658, Note_off_c, 7, 43, 127
1, 1768660, Note_off_c, 7, 79, 127
1, 1768660, Note_off_c, 2, 74, 127
1, 1768660, Note_off_c, 12, 71, 127
1, 1768664, Note_on_c, 10, 69, 127
1, 1768664, Note_on_c, 6, 78, 127
1, 1768664, Note_on_c, 0, 72, 127
1, 1768821, Note_off_c, 0, 72, 127
1, 1768821, Note_off_c, 6, 78, 127
1, 1768821, Note_off_c, 10, 69, 127
1, 1768825, Note_on_c, 12, 71, 127
1, 1768825, Note_on_c, 2, 74, 127
1, 1768825, Note_on_c, 7, 79, 127
1, 1768982, Note_off_c, 7, 79, 127
1, 1768982, Note_off_c, 2, 74, 127
1, 1768982, Note_off_c, 12, 71, 127
1, 1768986, Note_on_c, 0, 72, 127
1, 1768986, Note_on_c, 10, 69, 127
1, 1768986, Note_on_c, 6, 78, 127
1, 1769143, Note_off_c, 6, 78, 127
1, 1769143, Note_off_c, 10, 69, 127
1, 1769143, Note_off_c, 0, 72, 127
1, 1769147, Note_on_c, 12, 71, 127
1, 1769147, Note_on_c, 2, 74, 127
1, 1769147, Note_on_c, 7, 79, 127
1, 1769346, Note_off_c, 7, 79, 127
1, 1769346, Note_off_c, 2, 74, 127
1, 1769346, Note_off_c, 12, 71, 127
1, 1769420, Note_on_c, 7, 55, 127
1, 1769420, Note_on_c, 7, 43, 127
1, 1772020, Note_off_c, 7, 43, 127
1, 1772120, Note_off_c, 7, 55, 127
1, 1772615, Note_on_c, 2, 50, 127
1, 1772932, Note_off_c, 2, 50, 127
1, 1772955, Note_on_c, 7, 55, 127
1, 1773276, Note_on_c, 10, 57, 127
1, 1773598, Note_on_c, 12, 59, 127
1, 1773602, Note_off_c, 10, 57, 127
1, 1773919, Note_on_c, 0, 60, 127
1, 1773924, Note_off_c, 12, 59, 127
1, 1774226, Note_off_c, 7, 55, 127
1, 1774241, Note_on_c, 6, 54, 127
1, 1774241, Note_on_c, 2, 62, 127
1, 1774246, Note_off_c, 0, 60, 127
1, 1774562, Note_on_c, 0, 60, 127
1, 1774567, Note_off_c, 2, 62, 127
1, 1774723, Note_on_c, 12, 59, 127
1, 1774730, Note_off_c, 0, 60, 127
1, 1774884, Note_on_c, 10, 57, 127
1, 1774891, Note_off_c, 12, 59, 127
1, 1775206, Note_on_c, 2, 62, 127
1, 1775206, Note_on_c, 7, 55, 127
1, 1775210, Note_off_c, 10, 57, 127
1, 1775367, Note_on_c, 10, 57, 127
1, 1775374, Note_off_c, 7, 55, 127
1, 1775513, Note_off_c, 6, 54, 127
1, 1775523, Note_off_c, 2, 62, 127
1, 1775528, Note_on_c, 7, 67, 127
1, 1775528, Note_on_c, 4, 52, 127
1, 1775528, Note_on_c, 12, 59, 127
1, 1775535, Note_off_c, 10, 57, 127
1, 1775845, Note_off_c, 12, 59, 127
1, 1775850, Note_on_c, 10, 69, 127
1, 1775850, Note_on_c, 10, 57, 127
1, 1776164, Note_off_c, 7, 67, 127
1, 1776167, Note_off_c, 10, 57, 127
1, 1776167, Note_off_c, 10, 69, 127
1, 1776172, Note_on_c, 12, 71, 127
1, 1776172, Note_on_c, 7, 67, 127
1, 1776172, Note_on_c, 7, 55, 127
1, 1776489, Note_off_c, 12, 71, 127
1, 1776495, Note_on_c, 0, 72, 127
1, 1776802, Note_off_c, 4, 52, 127
1, 1776808, Note_off_c, 7, 67, 127
1, 1776812, Note_off_c, 0, 72, 127
1, 1776817, Note_on_c, 2, 74, 127
1, 1776817, Note_on_c, 10, 69, 127
1, 1776817, Note_on_c, 2, 50, 127
1, 1777134, Note_off_c, 2, 74, 127
1, 1777139, Note_on_c, 0, 72, 127
1, 1777296, Note_off_c, 0, 72, 127
1, 1777300, Note_on_c, 12, 71, 127
1, 1777446, Note_off_c, 7, 55, 127
1, 1777453, Note_off_c, 10, 69, 127
1, 1777457, Note_off_c, 12, 71, 127
1, 1777461, Note_on_c, 10, 69, 127
1, 1777461, Note_on_c, 7, 55, 127
1, 1777618, Note_off_c, 7, 55, 127
1, 1777622, Note_on_c, 6, 54, 127
1, 1777772, Note_off_c, 2, 50, 127
1, 1777779, Note_off_c, 6, 54, 127
1, 1777784, Note_on_c, 0, 48, 127
1, 1777784, Note_on_c, 4, 52, 127
1, 1777941, Note_off_c, 4, 52, 127
1, 1777945, Note_on_c, 6, 54, 127
1, 1778097, Note_off_c, 10, 69, 127
1, 1778101, Note_off_c, 0, 48, 127
1, 1778102, Note_off_c, 6, 54, 127
1, 1778106, Note_on_c, 2, 74, 127
1, 1778106, Note_on_c, 7, 67, 127
1, 1778106, Note_on_c, 12, 47, 127
1, 1778106, Note_on_c, 7, 55, 127
1, 1778423, Note_off_c, 7, 67, 127
1, 1778428, Note_on_c, 10, 69, 127
1, 1778742, Note_off_c, 2, 74, 127
1, 1778745, Note_off_c, 10, 69, 127
1, 1778750, Note_on_c, 2, 74, 127
1, 1778750, Note_on_c, 7, 67, 127
1, 1779061, Note_off_c, 7, 55, 127
1, 1779067, Note_off_c, 7, 67, 127
1, 1779073, Note_on_c, 5, 65, 127
1, 1779073, Note_on_c, 2, 62, 127
1, 1779380, Note_off_c, 12, 47, 127
1, 1779386, Note_off_c, 2, 74, 127
1, 1779390, Note_off_c, 2, 62, 127
1, 1779390, Note_off_c, 5, 65, 127
1, 1779395, Note_on_c, 4, 76, 127
1, 1779395, Note_on_c, 4, 64, 127
1, 1779395, Note_on_c, 0, 48, 127
1, 1779395, Note_on_c, 0, 60, 127
1, 1779712, Note_off_c, 0, 60, 127
1, 1779712, Note_off_c, 4, 64, 127
1, 1779717, Note_on_c, 2, 62, 127
1, 1779717, Note_on_c, 12, 59, 127
1, 1780031, Note_off_c, 4, 76, 127
1, 1780034, Note_off_c, 12, 59, 127
1, 1780034, Note_off_c, 2, 62, 127
1, 1780039, Note_on_c, 4, 76, 127
1, 1780039, Note_on_c, 0, 60, 127
1, 1780039, Note_on_c, 10, 57, 127
1, 1780356, Note_off_c, 10, 57, 127
1, 1780356, Note_off_c, 0, 60, 127
1, 1780361, Note_on_c, 12, 71, 127
1, 1780361, Note_on_c, 7, 55, 127
1, 1780669, Note_off_c, 0, 48, 127
1, 1780675, Note_off_c, 4, 76, 127
1, 1780678, Note_off_c, 7, 55, 127
1, 1780678, Note_off_c, 12, 71, 127
1, 1780684, Note_on_c, 2, 74, 127
1, 1780684, Note_on_c, 10, 69, 127
1, 1780684, Note_on_c, 2, 50, 127
1, 1780684, Note_on_c, 7, 55, 127
1, 1780841, Note_off_c, 7, 55, 127
1, 1780845, Note_on_c, 6, 54, 127
1, 1781001, Note_off_c, 10, 69, 127
1, 1781001, Note_off_c, 2, 74, 127
1, 1781002, Note_off_c, 6, 54, 127
1, 1781006, Note_on_c, 4, 76, 127
1, 1781006, Note_on_c, 7, 67, 127
1, 1781006, Note_on_c, 7, 55, 127
1, 1781163, Note_off_c, 7, 55, 127
1, 1781167, Note_on_c, 6, 54, 127
1, 1781323, Note_off_c, 7, 67, 127
1, 1781323, Note_off_c, 4, 76, 127
1, 1781324, Note_off_c, 6, 54, 127
1, 1781328, Note_on_c, 2, 74, 127
1, 1781328, Note_on_c, 10, 69, 127
1, 1781328, Note_on_c, 4, 52, 127
1, 1781485, Note_off_c, 4, 52, 127
1, 1781489, Note_on_c, 6, 54, 127
1, 1781639, Note_off_c, 2, 50, 127
1, 1781645, Note_off_c, 10, 69, 127
1, 1781645, Note_off_c, 2, 74, 127
1, 1781646, Note_off_c, 6, 54, 127
1, 1781650, Note_on_c, 0, 72, 127
1, 1781650, Note_on_c, 6, 66, 127
1, 1781650, Note_on_c, 2, 50, 127
1, 1781967, Note_off_c, 6, 66, 127
1, 1781967, Note_off_c, 0, 72, 127
1, 1781973, Note_on_c, 0, 72, 127
1, 1781973, Note_on_c, 7, 67, 127
1, 1781973, Note_on_c, 7, 43, 127
1, 1782134, Note_on_c, 12, 71, 127
1, 1782141, Note_off_c, 0, 72, 127
1, 1782295, Note_on_c, 10, 69, 127
1, 1782302, Note_off_c, 12, 71, 127
1, 1782456, Note_on_c, 12, 71, 127
1, 1782463, Note_off_c, 10, 69, 127
1, 1782605, Note_off_c, 2, 50, 127
1, 1782609, Note_off_c, 7, 67, 127
1, 1782617, Note_on_c, 7, 67, 127
1, 1782624, Note_off_c, 12, 71, 127
1, 1782928, Note_off_c, 7, 43, 127
1, 1782939, Note_on_c, 2, 62, 127
1, 1782939, Note_on_c, 12, 59, 127
1, 1783096, Note_off_c, 12, 59, 127
1, 1783101, Note_on_c, 10, 57, 127
1, 1783253, Note_off_c, 7, 67, 127
1, 1783256, Note_off_c, 2, 62, 127
1, 1783258, Note_off_c, 10, 57, 127
1, 1783262, Note_on_c, 7, 67, 127
1, 1783262, Note_on_c, 7, 55, 127
1, 1783579, Note_off_c, 7, 55, 127
1, 1783584, Note_on_c, 10, 69, 127
1, 1783584, Note_on_c, 6, 54, 127
1, 1783741, Note_off_c, 6, 54, 127
1, 1783745, Note_on_c, 7, 55, 127
1, 1783898, Note_off_c, 7, 67, 127
1, 1783901, Note_off_c, 10, 69, 127
1, 1783902, Note_off_c, 7, 55, 127
1, 1783906, Note_on_c, 12, 71, 127
1, 1783906, Note_on_c, 7, 67, 127
1, 1783906, Note_on_c, 4, 52, 127
1, 1784223, Note_off_c, 4, 52, 127
1, 1784223, Note_off_c, 12, 71, 127
1, 1784228, Note_on_c, 0, 72, 127
1, 1784228, Note_on_c, 2, 50, 127
1, 1784385, Note_off_c, 2, 50, 127
1, 1784389, Note_on_c, 4, 52, 127
1, 1784542, Note_off_c, 7, 67, 127
1, 1784545, Note_off_c, 0, 72, 127
1, 1784546, Note_off_c, 4, 52, 127
1, 1784551, Note_on_c, 2, 74, 127
1, 1784551, Note_on_c, 10, 69, 127
1, 1784551, Note_on_c, 6, 54, 127
1, 1784868, Note_off_c, 2, 74, 127
1, 1784873, Note_on_c, 0, 72, 127
1, 1785034, Note_on_c, 12, 71, 127
1, 1785041, Note_off_c, 0, 72, 127
1, 1785187, Note_off_c, 10, 69, 127
1, 1785195, Note_on_c, 10, 69, 127
1, 1785202, Note_off_c, 12, 71, 127
1, 1785506, Note_off_c, 6, 54, 127
1, 1785512, Note_off_c, 10, 69, 127
1, 1785517, Note_on_c, 2, 74, 127
1, 1785517, Note_on_c, 12, 59, 127
1, 1785834, Note_off_c, 12, 59, 127
1, 1785840, Note_on_c, 7, 79, 127
1, 1785840, Note_on_c, 4, 52, 127
1, 1785840, Note_on_c, 7, 67, 127
1, 1786153, Note_off_c, 2, 74, 127
1, 1786157, Note_off_c, 7, 67, 127
1, 1786157, Note_off_c, 7, 79, 127
1, 1786162, Note_on_c, 6, 78, 127
1, 1786162, Note_on_c, 0, 72, 127
1, 1786162, Note_on_c, 10, 69, 127
1, 1786479, Note_off_c, 10, 69, 127
1, 1786479, Note_off_c, 0, 72, 127
1, 1786479, Note_off_c, 6, 78, 127
1, 1786484, Note_on_c, 4, 76, 127
1, 1786484, Note_on_c, 12, 71, 127
1, 1786484, Note_on_c, 7, 67, 127
1, 1786795, Note_off_c, 4, 52, 127
1, 1786801, Note_off_c, 7, 67, 127
1, 1786801, Note_off_c, 4, 76, 127
1, 1786806, Note_on_c, 2, 74, 127
1, 1786806, Note_on_c, 6, 54, 127
1, 1786806, Note_on_c, 6, 66, 127
1, 1786963, Note_off_c, 6, 54, 127
1, 1786967, Note_on_c, 7, 55, 127
1, 1787120, Note_off_c, 12, 71, 127
1, 1787123, Note_off_c, 6, 66, 127
1, 1787123, Note_off_c, 2, 74, 127
1, 1787124, Note_off_c, 7, 55, 127
1, 1787129, Note_on_c, 2, 74, 127
1, 1787129, Note_on_c, 10, 69, 127
1, 1787129, Note_on_c, 10, 57, 127
1, 1787129, Note_on_c, 4, 64, 127
1, 1787290, Note_on_c, 1, 73, 127
1, 1787297, Note_off_c, 2, 74, 127
1, 1787446, Note_off_c, 4, 64, 127
1, 1787451, Note_on_c, 12, 71, 127
1, 1787451, Note_on_c, 2, 62, 127
1, 1787458, Note_off_c, 1, 73, 127
1, 1787612, Note_on_c, 1, 73, 127
1, 1787619, Note_off_c, 12, 71, 127
1, 1787765, Note_off_c, 10, 69, 127
1, 1787768, Note_off_c, 2, 62, 127
1, 1787773, Note_on_c, 10, 69, 127
1, 1787773, Note_on_c, 1, 61, 127
1, 1787780, Note_off_c, 1, 73, 127
1, 1787929, Note_off_c, 10, 57, 127
1, 1787934, Note_on_c, 7, 55, 127
1, 1788091, Note_off_c, 7, 55, 127
1, 1788095, Note_on_c, 12, 71, 127
1, 1788095, Note_on_c, 6, 54, 127
1, 1788252, Note_off_c, 6, 54, 127
1, 1788252, Note_off_c, 12, 71, 127
1, 1788256, Note_on_c, 1, 73, 127
1, 1788256, Note_on_c, 4, 52, 127
1, 1788409, Note_off_c, 1, 61, 127
1, 1788409, Note_off_c, 10, 69, 127
1, 1788413, Note_off_c, 4, 52, 127
1, 1788413, Note_off_c, 1, 73, 127
1, 1788417, Note_on_c, 10, 81, 127
1, 1788417, Note_on_c, 2, 74, 127
1, 1788417, Note_on_c, 6, 54, 127
1, 1788734, Note_off_c, 2, 74, 127
1, 1788740, Note_on_c, 4, 76, 127
1, 1788740, Note_on_c, 7, 55, 127
1, 1789053, Note_off_c, 6, 54, 127
1, 1789053, Note_off_c, 10, 81, 127
1, 1789057, Note_off_c, 7, 55, 127
1, 1789057, Note_off_c, 4, 76, 127
1, 1789062, Note_on_c, 10, 81, 127
1, 1789062, Note_on_c, 6, 78, 127
1, 1789062, Note_on_c, 2, 50, 127
1, 1789062, Note_on_c, 10, 57, 127
1, 1789379, Note_off_c, 10, 57, 127
1, 1789379, Note_off_c, 6, 78, 127
1, 1789384, Note_on_c, 2, 74, 127
1, 1789384, Note_on_c, 6, 54, 127
1, 1789698, Note_off_c, 2, 50, 127
1, 1789698, Note_off_c, 10, 81, 127
1, 1789701, Note_off_c, 6, 54, 127
1, 1789701, Note_off_c, 2, 74, 127
1, 1789706, Note_on_c, 12, 83, 127
1, 1789706, Note_on_c, 12, 71, 127
1, 1789706, Note_on_c, 7, 55, 127
1, 1790023, Note_off_c, 12, 71, 127
1, 1790029, Note_on_c, 2, 74, 127
1, 1790029, Note_on_c, 6, 54, 127
1, 1790342, Note_off_c, 7, 55, 127
1, 1790342, Note_off_c, 12, 83, 127
1, 1790346, Note_off_c, 6, 54, 127
1, 1790346, Note_off_c, 2, 74, 127
1, 1790351, Note_on_c, 12, 83, 127
1, 1790351, Note_on_c, 7, 79, 127
1, 1790351, Note_on_c, 7, 43, 127
1, 1790351, Note_on_c, 4, 52, 127
1, 1790668, Note_off_c, 4, 52, 127
1, 1790668, Note_off_c, 7, 79, 127
1, 1790673, Note_on_c, 6, 78, 127
1, 1790673, Note_on_c, 2, 50, 127
1, 1790987, Note_off_c, 7, 43, 127
1, 1790987, Note_off_c, 12, 83, 127
1, 1790990, Note_off_c, 2, 50, 127
1, 1790990, Note_off_c, 6, 78, 127
1, 1790995, Note_on_c, 10, 81, 127
1, 1790995, Note_on_c, 4, 76, 127
1, 1790995, Note_on_c, 10, 45, 127
1, 1790995, Note_on_c, 1, 49, 127
1, 1791312, Note_off_c, 1, 49, 127
1, 1791312, Note_off_c, 10, 81, 127
1, 1791318, Note_on_c, 12, 83, 127
1, 1791318, Note_on_c, 2, 50, 127
1, 1791471, Note_off_c, 4, 76, 127
1, 1791479, Note_on_c, 2, 74, 127
1, 1791635, Note_off_c, 2, 50, 127
1, 1791635, Note_off_c, 12, 83, 127
1, 1791640, Note_on_c, 10, 81, 127
1, 1791640, Note_on_c, 4, 52, 127
1, 1791796, Note_off_c, 2, 74, 127
1, 1791801, Note_on_c, 1, 73, 127
1, 1791957, Note_off_c, 4, 52, 127
1, 1791957, Note_off_c, 10, 81, 127
1, 1791958, Note_off_c, 1, 73, 127
1, 1791962, Note_on_c, 7, 79, 127
1, 1791962, Note_on_c, 10, 69, 127
1, 1791962, Note_on_c, 1, 49, 127
1, 1792123, Note_on_c, 4, 76, 127
1, 1792199, Note_off_c, 7, 79, 127
1, 1792269, Note_off_c, 10, 45, 127
1, 1792279, Note_off_c, 1, 49, 127
1, 1792284, Note_on_c, 6, 78, 127
1, 1792284, Note_on_c, 2, 38, 127
1, 1792284, Note_on_c, 2, 50, 127
1, 1792360, Note_off_c, 4, 76, 127
1, 1792444, Note_on_c, 2, 74, 127
1, 1792520, Note_off_c, 6, 78, 127
1, 1792597, Note_off_c, 10, 69, 127
1, 1792606, Note_on_c, 4, 76, 127
1, 1792606, Note_on_c, 7, 67, 127
1, 1792681, Note_off_c, 2, 74, 127
1, 1792766, Note_on_c, 1, 73, 127
1, 1792842, Note_off_c, 4, 76, 127
1, 1792918, Note_off_c, 2, 50, 127
1, 1792918, Note_off_c, 2, 38, 127
1, 1792922, Note_off_c, 7, 67, 127
1, 1792923, Note_off_c, 1, 73, 127
1, 1792927, Note_on_c, 2, 74, 127
1, 1792927, Note_on_c, 6, 66, 127
1, 1792927, Note_on_c, 2, 50, 127
1, 1793244, Note_off_c, 2, 74, 127
1, 1793265, Note_on_c, 6, 54, 127
1, 1793265, Note_on_c, 10, 81, 127
1, 1793563, Note_off_c, 2, 50, 127
1, 1793563, Note_off_c, 6, 66, 127
1, 1793582, Note_off_c, 10, 81, 127
1, 1793582, Note_off_c, 6, 54, 127
1, 1793587, Note_on_c, 2, 62, 127
1, 1793587, Note_on_c, 10, 69, 127
1, 1793587, Note_on_c, 6, 78, 127
1, 1793904, Note_off_c, 6, 78, 127
1, 1793909, Note_on_c, 6, 66, 127
1, 1793909, Note_on_c, 10, 81, 127
1, 1794223, Note_off_c, 10, 69, 127
1, 1794223, Note_off_c, 2, 62, 127
1, 1794226, Note_off_c, 10, 81, 127
1, 1794226, Note_off_c, 6, 66, 127
1, 1794232, Note_on_c, 2, 62, 127
1, 1794232, Note_on_c, 0, 60, 127
1, 1794232, Note_on_c, 10, 69, 127
1, 1794232, Note_on_c, 6, 78, 127
1, 1794549, Note_off_c, 6, 78, 127
1, 1794549, Note_off_c, 2, 62, 127
1, 1794554, Note_on_c, 6, 66, 127
1, 1794554, Note_on_c, 10, 81, 127
1, 1794868, Note_off_c, 10, 69, 127
1, 1794868, Note_off_c, 0, 60, 127
1, 1794871, Note_off_c, 10, 81, 127
1, 1794871, Note_off_c, 6, 66, 127
1, 1794876, Note_on_c, 7, 67, 127
1, 1794876, Note_on_c, 12, 59, 127
1, 1794876, Note_on_c, 12, 71, 127
1, 1794876, Note_on_c, 2, 74, 127
1, 1795193, Note_off_c, 2, 74, 127
1, 1795193, Note_off_c, 7, 67, 127
1, 1795198, Note_on_c, 2, 62, 127
1, 1795198, Note_on_c, 4, 76, 127
1, 1795360, Note_on_c, 6, 78, 127
1, 1795366, Note_off_c, 4, 76, 127
1, 1795512, Note_off_c, 12, 71, 127
1, 1795512, Note_off_c, 12, 59, 127
1, 1795515, Note_off_c, 2, 62, 127
1, 1795521, Note_on_c, 2, 62, 127
1, 1795521, Note_on_c, 7, 55, 127
1, 1795521, Note_on_c, 12, 71, 127
1, 1795521, Note_on_c, 7, 79, 127
1, 1795528, Note_off_c, 6, 78, 127
1, 1795838, Note_off_c, 7, 79, 127
1, 1795838, Note_off_c, 2, 62, 127
1, 1795843, Note_on_c, 7, 67, 127
1, 1795843, Note_on_c, 4, 76, 127
1, 1796157, Note_off_c, 12, 71, 127
1, 1796157, Note_off_c, 7, 55, 127
1, 1796160, Note_off_c, 4, 76, 127
1, 1796160, Note_off_c, 7, 67, 127
1, 1796165, Note_on_c, 4, 64, 127
1, 1796165, Note_on_c, 0, 60, 127
1, 1796165, Note_on_c, 10, 69, 127
1, 1796165, Note_on_c, 10, 81, 127
1, 1796482, Note_off_c, 10, 81, 127
1, 1796482, Note_off_c, 10, 69, 127
1, 1796482, Note_off_c, 0, 60, 127
1, 1796487, Note_on_c, 12, 59, 127
1, 1796487, Note_on_c, 12, 71, 127
1, 1796487, Note_on_c, 7, 79, 127
1, 1796803, Note_off_c, 4, 64, 127
1, 1796804, Note_off_c, 7, 79, 127
1, 1796804, Note_off_c, 12, 71, 127
1, 1796804, Note_off_c, 12, 59, 127
1, 1796810, Note_on_c, 0, 60, 127
1, 1796810, Note_on_c, 10, 69, 127
1, 1796810, Note_on_c, 6, 78, 127
1, 1797127, Note_off_c, 6, 78, 127
1, 1797127, Note_off_c, 10, 69, 127
1, 1797127, Note_off_c, 0, 60, 127
1, 1797132, Note_on_c, 10, 57, 127
1, 1797132, Note_on_c, 7, 67, 127
1, 1797132, Note_on_c, 4, 76, 127
1, 1797449, Note_off_c, 4, 76, 127
1, 1797449, Note_off_c, 7, 67, 127
1, 1797449, Note_off_c, 10, 57, 127
1, 1797454, Note_on_c, 6, 66, 127
1, 1797454, Note_on_c, 12, 59, 127
1, 1797454, Note_on_c, 4, 76, 127
1, 1797615, Note_on_c, 3, 75, 127
1, 1797622, Note_off_c, 4, 76, 127
1, 1797776, Note_on_c, 4, 64, 127
1, 1797776, Note_on_c, 1, 73, 127
1, 1797783, Note_off_c, 3, 75, 127
1, 1797937, Note_on_c, 3, 75, 127
1, 1797944, Note_off_c, 1, 73, 127
1, 1798090, Note_off_c, 6, 66, 127
1, 1798093, Note_off_c, 4, 64, 127
1, 1798099, Note_on_c, 6, 66, 127
1, 1798099, Note_on_c, 3, 63, 127
1, 1798099, Note_on_c, 12, 71, 127
1, 1798105, Note_off_c, 3, 75, 127
1, 1798409, Note_off_c, 12, 59, 127
1, 1798421, Note_on_c, 10, 57, 127
1, 1798421, Note_on_c, 12, 83, 127
1, 1798575, Note_off_c, 12, 71, 127
1, 1798735, Note_off_c, 3, 63, 127
1, 1798735, Note_off_c, 6, 66, 127
1, 1798738, Note_off_c, 12, 83, 127
1, 1798738, Note_off_c, 10, 57, 127
1, 1798743, Note_on_c, 7, 67, 127
1, 1798743, Note_on_c, 7, 55, 127
1, 1798743, Note_on_c, 12, 71, 127
1, 1798743, Note_on_c, 4, 76, 127
1, 1799060, Note_off_c, 7, 55, 127
1, 1799065, Note_on_c, 4, 64, 127
1, 1799065, Note_on_c, 12, 83, 127
1, 1799219, Note_off_c, 4, 76, 127
1, 1799379, Note_off_c, 12, 71, 127
1, 1799379, Note_off_c, 7, 67, 127
1, 1799382, Note_off_c, 12, 83, 127
1, 1799382, Note_off_c, 4, 64, 127
1, 1799388, Note_on_c, 7, 67, 127
1, 1799388, Note_on_c, 7, 55, 127
1, 1799388, Note_on_c, 12, 71, 127
1, 1799388, Note_on_c, 4, 76, 127
1, 1799705, Note_off_c, 7, 55, 127
1, 1799710, Note_on_c, 4, 64, 127
1, 1799710, Note_on_c, 12, 83, 127
1, 1799864, Note_off_c, 4, 76, 127
1, 1800024, Note_off_c, 12, 71, 127
1, 1800024, Note_off_c, 7, 67, 127
1, 1800027, Note_off_c, 12, 83, 127
1, 1800027, Note_off_c, 4, 64, 127
1, 1800032, Note_on_c, 6, 66, 127
1, 1800032, Note_on_c, 10, 57, 127
1, 1800032, Note_on_c, 0, 72, 127
1, 1800032, Note_on_c, 3, 75, 127
1, 1800193, Note_on_c, 4, 76, 127
1, 1800200, Note_off_c, 3, 75, 127
1, 1800349, Note_off_c, 6, 66, 127
1, 1800354, Note_on_c, 7, 67, 127
1, 1800354, Note_on_c, 6, 78, 127
1, 1800361, Note_off_c, 4, 76, 127
1, 1800515, Note_on_c, 7, 79, 127
1, 1800522, Note_off_c, 6, 78, 127
1, 1800668, Note_off_c, 0, 72, 127
1, 1800671, Note_off_c, 7, 67, 127
1, 1800676, Note_on_c, 6, 66, 127
1, 1800676, Note_on_c, 0, 72, 127
1, 1800676, Note_on_c, 10, 81, 127
1, 1800683, Note_off_c, 7, 79, 127
1, 1800987, Note_off_c, 10, 57, 127
1, 1800993, Note_off_c, 10, 81, 127
1, 1800993, Note_off_c, 6, 66, 127
1, 1800999, Note_on_c, 4, 64, 127
1, 1800999, Note_on_c, 11, 58, 127
1, 1800999, Note_on_c, 7, 79, 127
1, 1801160, Note_on_c, 6, 78, 127
1, 1801167, Note_off_c, 7, 79, 127
1, 1801312, Note_off_c, 0, 72, 127
1, 1801316, Note_off_c, 11, 58, 127
1, 1801316, Note_off_c, 4, 64, 127
1, 1801321, Note_on_c, 3, 63, 127
1, 1801321, Note_on_c, 12, 59, 127
1, 1801321, Note_on_c, 12, 71, 127
1, 1801321, Note_on_c, 7, 79, 127
1, 1801328, Note_off_c, 6, 78, 127
1, 1801638, Note_off_c, 7, 79, 127
1, 1801638, Note_off_c, 12, 71, 127
1, 1801638, Note_off_c, 3, 63, 127
1, 1801643, Note_on_c, 4, 64, 127
1, 1801643, Note_on_c, 0, 72, 127
1, 1801643, Note_on_c, 6, 78, 127
1, 1801800, Note_off_c, 4, 64, 127
1, 1801804, Note_on_c, 6, 66, 127
1, 1801804, Note_on_c, 4, 76, 127
1, 1801811, Note_off_c, 6, 78, 127
1, 1801957, Note_off_c, 12, 59, 127
1, 1801960, Note_off_c, 0, 72, 127
1, 1801961, Note_off_c, 6, 66, 127
1, 1801965, Note_on_c, 12, 59, 127
1, 1801965, Note_on_c, 12, 47, 127
1, 1801965, Note_on_c, 12, 71, 127
1, 1801965, Note_on_c, 3, 75, 127
1, 1801972, Note_off_c, 4, 76, 127
1, 1802127, Note_on_c, 4, 76, 127
1, 1802133, Note_off_c, 3, 75, 127
1, 1802282, Note_off_c, 12, 71, 127
1, 1802288, Note_on_c, 10, 69, 127
1, 1802288, Note_on_c, 6, 78, 127
1, 1802295, Note_off_c, 4, 76, 127
1, 1802449, Note_on_c, 3, 75, 127
1, 1802456, Note_off_c, 6, 78, 127
1, 1802601, Note_off_c, 12, 47, 127
1, 1802605, Note_off_c, 10, 69, 127
1, 1802610, Note_on_c, 4, 52, 127
1, 1802610, Note_on_c, 10, 69, 127
1, 1802610, Note_on_c, 4, 76, 127
1, 1802617, Note_off_c, 3, 75, 127
1, 1802771, Note_on_c, 7, 67, 127
1, 1802920, Note_off_c, 12, 59, 127
1, 1802927, Note_off_c, 10, 69, 127
1, 1802932, Note_on_c, 10, 57, 127
1, 1802932, Note_on_c, 6, 66, 127
1, 1803088, Note_off_c, 7, 67, 127
1, 1803089, Note_off_c, 6, 66, 127
1, 1803089, Note_off_c, 10, 57, 127
1, 1803093, Note_on_c, 12, 59, 127
1, 1803093, Note_on_c, 7, 67, 127
1, 1803250, Note_off_c, 7, 67, 127
1, 1803250, Note_off_c, 12, 59, 127
1, 1803254, Note_on_c, 7, 55, 127
1, 1803254, Note_on_c, 4, 64, 127
1, 1803565, Note_off_c, 4, 52, 127
1, 1803571, Note_off_c, 7, 55, 127
1, 1803577, Note_on_c, 10, 57, 127
1, 1803577, Note_on_c, 2, 50, 127
1, 1803734, Note_off_c, 10, 57, 127
1, 1803738, Note_on_c, 12, 59, 127
1, 1803892, Note_off_c, 4, 64, 127
1, 1803894, Note_off_c, 2, 50, 127
1, 1803895, Note_off_c, 12, 59, 127
1, 1803899, Note_on_c, 0, 60, 127
1, 1803899, Note_on_c, 0, 48, 127
1, 1804048, Note_off_c, 4, 76, 127
1, 1804060, Note_on_c, 2, 74, 127
1, 1804216, Note_off_c, 0, 60, 127
1, 1804221, Note_on_c, 2, 62, 127
1, 1804221, Note_on_c, 6, 78, 127
1, 1804228, Note_off_c, 2, 74, 127
1, 1804382, Note_on_c, 4, 76, 127
1, 1804389, Note_off_c, 6, 78, 127
1, 1804535, Note_off_c, 0, 48, 127
1, 1804538, Note_off_c, 2, 62, 127
1, 1804543, Note_on_c, 4, 64, 127
1, 1804543, Note_on_c, 0, 60, 127
1, 1804543, Note_on_c, 7, 79, 127
1, 1804550, Note_off_c, 4, 76, 127
1, 1804704, Note_on_c, 6, 78, 127
1, 1804711, Note_off_c, 7, 79, 127
1, 1804860, Note_off_c, 4, 64, 127
1, 1804866, Note_on_c, 6, 66, 127
1, 1804866, Note_on_c, 10, 81, 127
1, 1804872, Note_off_c, 6, 78, 127
1, 1805179, Note_off_c, 0, 60, 127
1, 1805183, Note_off_c, 10, 81, 127
1, 1805183, Note_off_c, 6, 66, 127
1, 1805188, Note_on_c, 12, 59, 127
1, 1805188, Note_on_c, 7, 67, 127
1, 1805188, Note_on_c, 2, 74, 127
1, 1805509, Note_on_c, 6, 66, 127
1, 1805666, Note_off_c, 6, 66, 127
1, 1805670, Note_on_c, 4, 64, 127
1, 1805823, Note_off_c, 7, 67, 127
1, 1805827, Note_off_c, 4, 64, 127
1, 1805831, Note_on_c, 2, 62, 127
1, 1805831, Note_on_c, 7, 67, 127
1, 1806142, Note_off_c, 2, 74, 127
1, 1806142, Note_off_c, 12, 59, 127
1, 1806154, Note_on_c, 0, 60, 127
1, 1806154, Note_on_c, 0, 72, 127
1, 1806311, Note_off_c, 0, 60, 127
1, 1806315, Note_on_c, 12, 59, 127
1, 1806315, Note_on_c, 2, 74, 127
1, 1806322, Note_off_c, 0, 72, 127
1, 1806467, Note_off_c, 7, 67, 127
1, 1806472, Note_off_c, 12, 59, 127
1, 1806476, Note_on_c, 10, 57, 127
1, 1806476, Note_on_c, 0, 72, 127
1, 1806476, Note_on_c, 4, 76, 127
1, 1806483, Note_off_c, 2, 74, 127
1, 1806786, Note_off_c, 2, 62, 127
1, 1806793, Note_off_c, 4, 76, 127
1, 1806798, Note_on_c, 10, 69, 127
1, 1806798, Note_on_c, 6, 78, 127
1, 1806952, Note_off_c, 0, 72, 127
1, 1806959, Note_on_c, 2, 74, 127
1, 1806959, Note_on_c, 7, 79, 127
1, 1806966, Note_off_c, 6, 78, 127
1, 1807115, Note_off_c, 10, 69, 127
1, 1807116, Note_off_c, 2, 74, 127
1, 1807120, Note_on_c, 4, 64, 127
1, 1807120, Note_on_c, 0, 72, 127
1, 1807120, Note_on_c, 10, 81, 127
1, 1807127, Note_off_c, 7, 79, 127
1, 1807431, Note_off_c, 10, 57, 127
1, 1807437, Note_off_c, 10, 81, 127
1, 1807437, Note_off_c, 0, 72, 127
1, 1807437, Note_off_c, 4, 64, 127
1, 1807442, Note_on_c, 2, 62, 127
1, 1807442, Note_on_c, 12, 59, 127
1, 1807442, Note_on_c, 12, 71, 127
1, 1807442, Note_on_c, 7, 79, 127
1, 1807599, Note_off_c, 12, 59, 127
1, 1807599, Note_off_c, 2, 62, 127
1, 1807604, Note_on_c, 4, 64, 127
1, 1807604, Note_on_c, 0, 60, 127
1, 1807759, Note_off_c, 7, 79, 127
1, 1807759, Note_off_c, 12, 71, 127
1, 1807761, Note_off_c, 0, 60, 127
1, 1807761, Note_off_c, 4, 64, 127
1, 1807765, Note_on_c, 6, 66, 127
1, 1807765, Note_on_c, 2, 62, 127
1, 1807765, Note_on_c, 10, 69, 127
1, 1807765, Note_on_c, 7, 79, 127
1, 1807926, Note_on_c, 6, 78, 127
1, 1807933, Note_off_c, 7, 79, 127
1, 1808082, Note_off_c, 10, 69, 127
1, 1808087, Note_on_c, 12, 71, 127
1, 1808087, Note_on_c, 4, 76, 127
1, 1808094, Note_off_c, 6, 78, 127
1, 1808248, Note_on_c, 6, 78, 127
1, 1808255, Note_off_c, 4, 76, 127
1, 1808401, Note_off_c, 6, 66, 127
1, 1808404, Note_off_c, 12, 71, 127
1, 1808409, Note_on_c, 2, 74, 127
1, 1808409, Note_on_c, 7, 67, 127
1, 1808409, Note_on_c, 0, 72, 127
1, 1808416, Note_off_c, 6, 78, 127
1, 1808720, Note_off_c, 2, 62, 127
1, 1808726, Note_off_c, 0, 72, 127
1, 1808726, Note_off_c, 7, 67, 127
1, 1808726, Note_off_c, 2, 74, 127
1, 1808731, Note_on_c, 6, 66, 127
1, 1808731, Note_on_c, 0, 60, 127
1, 1808731, Note_on_c, 2, 74, 127
1, 1808888, Note_off_c, 0, 60, 127
1, 1808893, Note_on_c, 2, 62, 127
1, 1809048, Note_off_c, 2, 74, 127
1, 1809048, Note_off_c, 6, 66, 127
1, 1809050, Note_off_c, 2, 62, 127
1, 1809054, Note_on_c, 2, 62, 127
1, 1809054, Note_on_c, 7, 55, 127
1, 1809054, Note_on_c, 12, 71, 127
1, 1809054, Note_on_c, 12, 83, 127
1, 1809371, Note_off_c, 12, 83, 127
1, 1809371, Note_off_c, 12, 71, 127
1, 1809371, Note_off_c, 7, 55, 127
1, 1809376, Note_on_c, 10, 57, 127
1, 1809376, Note_on_c, 10, 69, 127
1, 1809376, Note_on_c, 0, 84, 127
1, 1809533, Note_off_c, 10, 69, 127
1, 1809542, Note_on_c, 12, 71, 127
1, 1809690, Note_off_c, 2, 62, 127
1, 1809693, Note_off_c, 0, 84, 127
1, 1809693, Note_off_c, 10, 57, 127
1, 1809706, Note_off_c, 12, 71, 127
1, 1809711, Note_on_c, 2, 86, 127
1, 1809711, Note_on_c, 7, 67, 127
1, 1809711, Note_on_c, 12, 59, 127
1, 1809711, Note_on_c, 2, 62, 127
1, 1810043, Note_off_c, 12, 59, 127
1, 1810043, Note_off_c, 2, 86, 127
1, 1810049, Note_on_c, 12, 83, 127
1, 1810049, Note_on_c, 7, 55, 127
1, 1810378, Note_off_c, 2, 62, 127
1, 1810381, Note_off_c, 7, 55, 127
1, 1810381, Note_off_c, 12, 83, 127
1, 1810388, Note_on_c, 0, 84, 127
1, 1810388, Note_on_c, 0, 60, 127
1, 1810388, Note_on_c, 4, 64, 127
1, 1810713, Note_off_c, 7, 67, 127
1, 1810720, Note_off_c, 0, 84, 127
1, 1810727, Note_on_c, 12, 83, 127
1, 1810727, Note_on_c, 4, 76, 127
1, 1810891, Note_off_c, 4, 76, 127
1, 1810896, Note_on_c, 2, 74, 127
1, 1811055, Note_off_c, 4, 64, 127
1, 1811059, Note_off_c, 12, 83, 127
1, 1811060, Note_off_c, 2, 74, 127
1, 1811065, Note_on_c, 10, 81, 127
1, 1811065, Note_on_c, 0, 72, 127
1, 1811065, Note_on_c, 4, 64, 127
1, 1811390, Note_off_c, 0, 60, 127
1, 1811397, Note_off_c, 0, 72, 127
1, 1811397, Note_off_c, 10, 81, 127
1, 1811403, Note_on_c, 7, 79, 127
1, 1811403, Note_on_c, 4, 76, 127
1, 1811403, Note_on_c, 1, 61, 127
1, 1811732, Note_off_c, 4, 64, 127
1, 1811735, Note_off_c, 1, 61, 127
1, 1811735, Note_off_c, 4, 76, 127
1, 1811735, Note_off_c, 7, 79, 127
1, 1811742, Note_on_c, 6, 78, 127
1, 1811742, Note_on_c, 10, 69, 127
1, 1811742, Note_on_c, 2, 62, 127
1, 1811906, Note_off_c, 10, 69, 127
1, 1811911, Note_on_c, 2, 74, 127
1, 1812074, Note_off_c, 6, 78, 127
1, 1812075, Note_off_c, 2, 74, 127
1, 1812080, Note_on_c, 7, 79, 127
1, 1812080, Note_on_c, 0, 72, 127
1, 1812080, Note_on_c, 4, 64, 127
1, 1812244, Note_off_c, 0, 72, 127
1, 1812249, Note_on_c, 12, 71, 127
1, 1812409, Note_off_c, 2, 62, 127
1, 1812412, Note_off_c, 4, 64, 127
1, 1812412, Note_off_c, 7, 79, 127
1, 1812413, Note_off_c, 12, 71, 127
1, 1812418, Note_on_c, 10, 81, 127
1, 1812418, Note_on_c, 0, 72, 127
1, 1812418, Note_on_c, 2, 50, 127
1, 1812418, Note_on_c, 2, 62, 127
1, 1812582, Note_off_c, 0, 72, 127
1, 1812587, Note_on_c, 10, 69, 127
1, 1812750, Note_off_c, 2, 62, 127
1, 1812750, Note_off_c, 10, 81, 127
1, 1812751, Note_off_c, 10, 69, 127
1, 1812756, Note_on_c, 6, 78, 127
1, 1812756, Note_on_c, 2, 74, 127
1, 1812756, Note_on_c, 0, 60, 127
1, 1813085, Note_off_c, 2, 50, 127
1, 1813088, Note_off_c, 0, 60, 127
1, 1813088, Note_off_c, 6, 78, 127
1, 1813095, Note_on_c, 7, 79, 127
1, 1813095, Note_on_c, 7, 55, 127
1, 1813095, Note_on_c, 12, 59, 127
1, 1813447, Note_off_c, 2, 74, 127
1, 1813473, Note_off_c, 12, 59, 127
1, 1813492, Note_on_c, 0, 72, 127
1, 1813492, Note_on_c, 10, 57, 127
1, 1813690, Note_on_c, 2, 74, 127
1, 1813693, Note_off_c, 0, 72, 127
1, 1813836, Note_off_c, 7, 55, 127
1, 1813882, Note_off_c, 10, 57, 127
1, 1813982, Note_on_c, 12, 71, 127
1, 1813982, Note_on_c, 7, 55, 127
1, 1813982, Note_on_c, 7, 43, 127
1, 1813988, Note_off_c, 2, 74, 127
1, 1815882, Note_off_c, 12, 71, 127
1, 1815982, Note_off_c, 7, 43, 127
1, 1816082, Note_off_c, 7, 55, 127
1, 1816098, Note_off_c, 7, 79, 127
1, 1818706, Note_on_c, 7, 55, 127
1, 1818706, Note_on_c, 7, 79, 127
1, 1819396, Note_off_c, 7, 79, 127
1, 1819404, Note_on_c, 12, 59, 127
1, 1819404, Note_on_c, 7, 79, 127
1, 1820093, Note_off_c, 7, 79, 127
1, 1820102, Note_on_c, 2, 62, 127
1, 1820102, Note_on_c, 10, 81, 127
1, 1820189, Note_on_c, 7, 79, 127
1, 1820233, Note_off_c, 10, 81, 127
1, 1820274, Note_off_c, 7, 79, 127
1, 1820277, Note_on_c, 10, 81, 127
1, 1820620, Note_off_c, 10, 81, 127
1, 1820626, Note_on_c, 12, 83, 127
1, 1820782, Note_off_c, 7, 55, 127
1, 1820785, Note_off_c, 12, 59, 127
1, 1820789, Note_off_c, 2, 62, 127
1, 1820797, Note_off_c, 12, 83, 127
1, 1820801, Note_on_c, 6, 54, 127
1, 1820801, Note_on_c, 10, 81, 127
1, 1821145, Note_off_c, 10, 81, 127
1, 1821151, Note_on_c, 7, 79, 127
1, 1821322, Note_off_c, 7, 79, 127
1, 1821326, Note_on_c, 6, 78, 127
1, 1821497, Note_off_c, 6, 78, 127
1, 1821501, Note_on_c, 10, 57, 127
1, 1821501, Note_on_c, 4, 76, 127
1, 1821844, Note_off_c, 4, 76, 127
1, 1821849, Note_on_c, 2, 74, 127
1, 1822198, Note_on_c, 2, 62, 127
1, 1822801, Note_off_c, 2, 74, 127
1, 1822878, Note_off_c, 6, 54, 127
1, 1822881, Note_off_c, 10, 57, 127
1, 1822885, Note_off_c, 2, 62, 127
1, 1822897, Note_on_c, 4, 52, 127
1, 1822897, Note_on_c, 7, 67, 127
1, 1822985, Note_on_c, 6, 66, 127
1, 1823029, Note_off_c, 7, 67, 127
1, 1823070, Note_off_c, 6, 66, 127
1, 1823073, Note_on_c, 7, 67, 127
1, 1823589, Note_off_c, 7, 67, 127
1, 1823596, Note_on_c, 7, 55, 127
1, 1823596, Note_on_c, 10, 69, 127
1, 1823683, Note_on_c, 7, 67, 127
1, 1823727, Note_off_c, 10, 69, 127
1, 1823768, Note_off_c, 7, 67, 127
1, 1823771, Note_on_c, 6, 66, 127
1, 1823858, Note_on_c, 7, 67, 127
1, 1823902, Note_off_c, 6, 66, 127
1, 1823943, Note_off_c, 7, 67, 127
1, 1823946, Note_on_c, 10, 69, 127
1, 1824031, Note_off_c, 10, 69, 127
1, 1824034, Note_on_c, 7, 67, 127
1, 1824119, Note_off_c, 7, 67, 127
1, 1824122, Note_on_c, 10, 69, 127
1, 1824207, Note_off_c, 10, 69, 127
1, 1824210, Note_on_c, 7, 67, 127
1, 1824295, Note_off_c, 7, 67, 127
1, 1824298, Note_on_c, 1, 61, 127
1, 1824298, Note_on_c, 10, 69, 127
1, 1824383, Note_off_c, 10, 69, 127
1, 1824386, Note_on_c, 7, 67, 127
1, 1824471, Note_off_c, 7, 67, 127
1, 1824474, Note_on_c, 10, 69, 127
1, 1824559, Note_off_c, 10, 69, 127
1, 1824562, Note_on_c, 7, 67, 127
1, 1824647, Note_off_c, 7, 67, 127
1, 1824650, Note_on_c, 10, 69, 127
1, 1824737, Note_on_c, 7, 67, 127
1, 1824781, Note_off_c, 10, 69, 127
1, 1824822, Note_off_c, 7, 67, 127
1, 1824825, Note_on_c, 6, 66, 127
1, 1824910, Note_off_c, 6, 66, 127
1, 1824913, Note_on_c, 7, 67, 127
1, 1824983, Note_off_c, 4, 52, 127
1, 1824985, Note_off_c, 7, 55, 127
1, 1824989, Note_off_c, 1, 61, 127
1, 1824998, Note_off_c, 7, 67, 127
1, 1825001, Note_on_c, 2, 50, 127
1, 1825001, Note_on_c, 10, 69, 127
1, 1825089, Note_on_c, 7, 67, 127
1, 1825133, Note_off_c, 10, 69, 127
1, 1825174, Note_off_c, 7, 67, 127
1, 1825177, Note_on_c, 6, 66, 127
1, 1825348, Note_off_c, 6, 66, 127
1, 1825352, Note_on_c, 7, 67, 127
1, 1825438, Note_on_c, 6, 66, 127
1, 1825483, Note_off_c, 7, 67, 127
1, 1825523, Note_off_c, 6, 66, 127
1, 1825526, Note_on_c, 4, 64, 127
1, 1825697, Note_off_c, 4, 64, 127
1, 1825701, Note_on_c, 6, 54, 127
1, 1825701, Note_on_c, 4, 64, 127
1, 1826044, Note_off_c, 4, 64, 127
1, 1826050, Note_on_c, 2, 62, 127
1, 1826399, Note_on_c, 10, 57, 127
1, 1826733, Note_off_c, 2, 50, 127
1, 1826748, Note_on_c, 0, 48, 127
1, 1827002, Note_off_c, 2, 62, 127
1, 1827081, Note_off_c, 6, 54, 127
1, 1827088, Note_off_c, 10, 57, 127
1, 1827092, Note_off_c, 0, 48, 127
1, 1827097, Note_on_c, 12, 47, 127
1, 1827097, Note_on_c, 2, 74, 127
1, 1827787, Note_off_c, 2, 74, 127
1, 1827795, Note_on_c, 2, 50, 127
1, 1827795, Note_on_c, 2, 74, 127
1, 1828484, Note_off_c, 2, 74, 127
1, 1828493, Note_on_c, 7, 55, 127
1, 1828493, Note_on_c, 4, 76, 127
1, 1828580, Note_on_c, 2, 74, 127
1, 1828624, Note_off_c, 4, 76, 127
1, 1828665, Note_off_c, 2, 74, 127
1, 1828668, Note_on_c, 4, 76, 127
1, 1829011, Note_off_c, 4, 76, 127
1, 1829017, Note_on_c, 5, 77, 127
1, 1829173, Note_off_c, 12, 47, 127
1, 1829176, Note_off_c, 2, 50, 127
1, 1829180, Note_off_c, 7, 55, 127
1, 1829188, Note_off_c, 5, 77, 127
1, 1829192, Note_on_c, 0, 48, 127
1, 1829192, Note_on_c, 4, 76, 127
1, 1829536, Note_off_c, 4, 76, 127
1, 1829542, Note_on_c, 2, 74, 127
1, 1829713, Note_off_c, 2, 74, 127
1, 1829717, Note_on_c, 0, 72, 127
1, 1829888, Note_off_c, 0, 72, 127
1, 1829892, Note_on_c, 4, 52, 127
1, 1829892, Note_on_c, 12, 71, 127
1, 1830235, Note_off_c, 12, 71, 127
1, 1830240, Note_on_c, 10, 69, 127
1, 1830589, Note_on_c, 10, 57, 127
1, 1830924, Note_off_c, 0, 48, 127
1, 1830926, Note_off_c, 4, 52, 127
1, 1830928, Note_off_c, 10, 69, 127
1, 1830938, Note_on_c, 2, 50, 127
1, 1830938, Note_on_c, 7, 79, 127
1, 1831025, Note_on_c, 6, 78, 127
1, 1831069, Note_off_c, 7, 79, 127
1, 1831110, Note_off_c, 6, 78, 127
1, 1831113, Note_on_c, 4, 76, 127
1, 1831198, Note_off_c, 4, 76, 127
1, 1831201, Note_on_c, 6, 78, 127
1, 1831277, Note_off_c, 10, 57, 127
1, 1831283, Note_off_c, 2, 50, 127
1, 1831286, Note_off_c, 6, 78, 127
1, 1831289, Note_on_c, 4, 52, 127
1, 1831289, Note_on_c, 7, 79, 127
1, 1831376, Note_on_c, 6, 78, 127
1, 1831420, Note_off_c, 7, 79, 127
1, 1831632, Note_off_c, 4, 52, 127
1, 1831633, Note_off_c, 6, 78, 127
1, 1831637, Note_on_c, 0, 60, 127
1, 1831637, Note_on_c, 0, 48, 127
1, 1831637, Note_on_c, 10, 81, 127
1, 1831724, Note_on_c, 7, 79, 127
1, 1831768, Note_off_c, 10, 81, 127
1, 1831980, Note_off_c, 0, 48, 127
1, 1831981, Note_off_c, 7, 79, 127
1, 1831986, Note_on_c, 2, 50, 127
1, 1831986, Note_on_c, 6, 78, 127
1, 1832073, Note_on_c, 4, 76, 127
1, 1832117, Note_off_c, 6, 78, 127
1, 1832325, Note_off_c, 0, 60, 127
1, 1832330, Note_off_c, 4, 76, 127
1, 1832335, Note_on_c, 12, 59, 127
1, 1832335, Note_on_c, 2, 74, 127
1, 1832422, Note_on_c, 0, 72, 127
1, 1832466, Note_off_c, 2, 74, 127
1, 1832506, Note_off_c, 12, 59, 127
1, 1832510, Note_on_c, 10, 57, 127
1, 1832672, Note_off_c, 0, 72, 127
1, 1832681, Note_off_c, 10, 57, 127
1, 1832685, Note_on_c, 7, 55, 127
1, 1832685, Note_on_c, 0, 72, 127
1, 1832856, Note_off_c, 0, 72, 127
1, 1832856, Note_off_c, 7, 55, 127
1, 1832860, Note_on_c, 6, 54, 127
1, 1832860, Note_on_c, 10, 81, 127
1, 1833031, Note_off_c, 6, 54, 127
1, 1833034, Note_on_c, 4, 52, 127
1, 1833204, Note_off_c, 10, 81, 127
1, 1833205, Note_off_c, 4, 52, 127
1, 1833209, Note_on_c, 6, 54, 127
1, 1833209, Note_on_c, 0, 72, 127
1, 1833368, Note_off_c, 2, 50, 127
1, 1833380, Note_off_c, 0, 72, 127
1, 1833380, Note_off_c, 6, 54, 127
1, 1833384, Note_on_c, 7, 43, 127
1, 1833384, Note_on_c, 7, 55, 127
1, 1833384, Note_on_c, 12, 71, 127
1, 1833471, Note_on_c, 7, 67, 127
1, 1833515, Note_off_c, 12, 71, 127
1, 1833727, Note_off_c, 7, 55, 127
1, 1833733, Note_on_c, 10, 57, 127
1, 1833905, Note_off_c, 7, 67, 127
1, 1833908, Note_on_c, 6, 66, 127
1, 1834071, Note_off_c, 6, 66, 127
1, 1834077, Note_off_c, 10, 57, 127
1, 1834083, Note_on_c, 12, 59, 127
1, 1834083, Note_on_c, 6, 66, 127
1, 1834426, Note_off_c, 6, 66, 127
1, 1834432, Note_on_c, 7, 67, 127
1, 1834484, Note_off_c, 7, 43, 127
1, 1834606, Note_on_c, 2, 50, 127
1, 1834777, Note_off_c, 2, 50, 127
1, 1834781, Note_on_c, 4, 52, 127
1, 1834866, Note_off_c, 4, 52, 127
1, 1834869, Note_on_c, 2, 50, 127
1, 1834954, Note_off_c, 2, 50, 127
1, 1834957, Note_on_c, 4, 52, 127
1, 1835300, Note_off_c, 4, 52, 127
1, 1835300, Note_off_c, 7, 67, 127
1, 1835306, Note_on_c, 6, 54, 127
1, 1835465, Note_off_c, 12, 59, 127
1, 1835477, Note_off_c, 6, 54, 127
1, 1835481, Note_on_c, 7, 55, 127
1, 1835481, Note_on_c, 12, 71, 127
1, 1836171, Note_off_c, 12, 71, 127
1, 1836178, Note_on_c, 12, 59, 127
1, 1836178, Note_on_c, 12, 71, 127
1, 1836867, Note_off_c, 12, 71, 127
1, 1836877, Note_on_c, 4, 64, 127
1, 1836877, Note_on_c, 1, 73, 127
1, 1836964, Note_on_c, 12, 71, 127
1, 1837008, Note_off_c, 1, 73, 127
1, 1837049, Note_off_c, 12, 71, 127
1, 1837052, Note_on_c, 1, 73, 127
1, 1837395, Note_off_c, 1, 73, 127
1, 1837401, Note_on_c, 2, 74, 127
1, 1837557, Note_off_c, 7, 55, 127
1, 1837559, Note_off_c, 12, 59, 127
1, 1837564, Note_off_c, 2, 74, 127
1, 1837564, Note_off_c, 4, 64, 127
1, 1837575, Note_on_c, 10, 57, 127
1, 1837575, Note_on_c, 2, 74, 127
1, 1837746, Note_off_c, 2, 74, 127
1, 1837750, Note_on_c, 1, 73, 127
1, 1837921, Note_off_c, 1, 73, 127
1, 1837925, Note_on_c, 12, 71, 127
1, 1838096, Note_off_c, 12, 71, 127
1, 1838100, Note_on_c, 10, 69, 127
1, 1838265, Note_off_c, 10, 57, 127
1, 1838271, Note_off_c, 10, 69, 127
1, 1838275, Note_on_c, 7, 55, 127
1, 1838275, Note_on_c, 2, 74, 127
1, 1838360, Note_off_c, 7, 55, 127
1, 1838363, Note_on_c, 6, 54, 127
1, 1838448, Note_off_c, 6, 54, 127
1, 1838451, Note_on_c, 7, 55, 127
1, 1838536, Note_off_c, 7, 55, 127
1, 1838539, Note_on_c, 6, 54, 127
1, 1838624, Note_off_c, 6, 54, 127
1, 1838627, Note_on_c, 4, 52, 127
1, 1838970, Note_off_c, 4, 52, 127
1, 1838976, Note_on_c, 6, 54, 127
1, 1839319, Note_off_c, 6, 54, 127
1, 1839324, Note_on_c, 12, 59, 127
1, 1839575, Note_off_c, 2, 74, 127
1, 1839668, Note_off_c, 12, 59, 127
1, 1839674, Note_on_c, 4, 52, 127
1, 1839674, Note_on_c, 7, 79, 127
1, 1839761, Note_on_c, 4, 76, 127
1, 1839848, Note_on_c, 12, 71, 127
1, 1839935, Note_on_c, 7, 67, 127
1, 1840022, Note_on_c, 12, 59, 127
1, 1840361, Note_off_c, 7, 79, 127
1, 1840363, Note_off_c, 12, 71, 127
1, 1840365, Note_off_c, 12, 59, 127
1, 1840366, Note_off_c, 4, 76, 127
1, 1840368, Note_off_c, 7, 67, 127
1, 1840371, Note_on_c, 4, 64, 127
1, 1840371, Note_on_c, 10, 81, 127
1, 1840459, Note_on_c, 7, 79, 127
1, 1840503, Note_off_c, 10, 81, 127
1, 1840544, Note_off_c, 7, 79, 127
1, 1840547, Note_on_c, 6, 78, 127
1, 1840634, Note_on_c, 7, 79, 127
1, 1840678, Note_off_c, 6, 78, 127
1, 1840701, Note_off_c, 4, 52, 127
1, 1840719, Note_off_c, 7, 79, 127
1, 1840722, Note_on_c, 4, 52, 127
1, 1840722, Note_on_c, 10, 81, 127
1, 1840807, Note_off_c, 10, 81, 127
1, 1840810, Note_on_c, 7, 79, 127
1, 1840895, Note_off_c, 7, 79, 127
1, 1840898, Note_on_c, 10, 81, 127
1, 1840983, Note_off_c, 10, 81, 127
1, 1840986, Note_on_c, 7, 79, 127
1, 1841068, Note_off_c, 4, 52, 127
1, 1841071, Note_off_c, 7, 79, 127
1, 1841073, Note_on_c, 6, 54, 127
1, 1841073, Note_on_c, 10, 81, 127
1, 1841158, Note_off_c, 10, 81, 127
1, 1841161, Note_on_c, 7, 79, 127
1, 1841246, Note_off_c, 7, 79, 127
1, 1841249, Note_on_c, 10, 81, 127
1, 1841334, Note_off_c, 10, 81, 127
1, 1841337, Note_on_c, 7, 79, 127
1, 1841413, Note_off_c, 4, 64, 127
1, 1841419, Note_off_c, 6, 54, 127
1, 1841422, Note_off_c, 7, 79, 127
1, 1841425, Note_on_c, 7, 55, 127
1, 1841425, Note_on_c, 2, 62, 127
1, 1841425, Note_on_c, 10, 81, 127
1, 1841512, Note_on_c, 7, 79, 127
1, 1841556, Note_off_c, 10, 81, 127
1, 1841597, Note_off_c, 7, 79, 127
1, 1841600, Note_on_c, 6, 78, 127
1, 1841685, Note_off_c, 6, 78, 127
1, 1841688, Note_on_c, 7, 79, 127
1, 1841765, Note_off_c, 7, 79, 127
1, 1841770, Note_off_c, 2, 62, 127
1, 1841770, Note_off_c, 7, 55, 127
1, 1841776, Note_on_c, 10, 57, 127
1, 1841776, Note_on_c, 1, 61, 127
1, 1841776, Note_on_c, 7, 79, 127
1, 1842119, Note_off_c, 7, 79, 127
1, 1842119, Note_off_c, 1, 61, 127
1, 1842125, Note_on_c, 2, 62, 127
1, 1842125, Note_on_c, 6, 78, 127
1, 1842296, Note_off_c, 6, 78, 127
1, 1842300, Note_on_c, 4, 76, 127
1, 1842469, Note_off_c, 2, 62, 127
1, 1842471, Note_off_c, 4, 76, 127
1, 1842475, Note_on_c, 4, 64, 127
1, 1842475, Note_on_c, 2, 74, 127
1, 1842811, Note_off_c, 10, 57, 127
1, 1842824, Note_on_c, 12, 59, 127
1, 1843163, Note_off_c, 2, 74, 127
1, 1843167, Note_off_c, 12, 59, 127
1, 1843172, Note_on_c, 10, 57, 127
1, 1843172, Note_on_c, 1, 73, 127
1, 1843259, Note_on_c, 2, 74, 127
1, 1843303, Note_off_c, 1, 73, 127
1, 1843344, Note_off_c, 2, 74, 127
1, 1843347, Note_on_c, 1, 73, 127
1, 1843516, Note_off_c, 10, 57, 127
1, 1843522, Note_on_c, 7, 55, 127
1, 1843691, Note_off_c, 1, 73, 127
1, 1843697, Note_on_c, 4, 76, 127
1, 1843856, Note_off_c, 4, 64, 127
1, 1843866, Note_off_c, 7, 55, 127
1, 1843868, Note_off_c, 4, 76, 127
1, 1843872, Note_on_c, 6, 54, 127
1, 1843872, Note_on_c, 10, 81, 127
1, 1844043, Note_off_c, 10, 81, 127
1, 1844047, Note_on_c, 7, 79, 127
1, 1844218, Note_off_c, 7, 79, 127
1, 1844222, Note_on_c, 6, 78, 127
1, 1844393, Note_off_c, 6, 78, 127
1, 1844397, Note_on_c, 4, 76, 127
1, 1844568, Note_off_c, 4, 76, 127
1, 1844571, Note_on_c, 10, 57, 127
1, 1844571, Note_on_c, 2, 74, 127
1, 1844914, Note_off_c, 2, 74, 127
1, 1844920, Note_on_c, 10, 69, 127
1, 1845269, Note_on_c, 2, 62, 127
1, 1845610, Note_off_c, 10, 69, 127
1, 1845705, Note_on_c, 12, 71, 127
1, 1845814, Note_on_c, 0, 72, 127
1, 1845816, Note_off_c, 12, 71, 127
1, 1845948, Note_off_c, 6, 54, 127
1, 1845950, Note_off_c, 10, 57, 127
1, 1845955, Note_off_c, 2, 62, 127
1, 1845965, Note_off_c, 0, 72, 127
1, 1845966, Note_on_c, 7, 55, 127
1, 1845966, Note_on_c, 12, 71, 127
1, 1846137, Note_off_c, 12, 71, 127
1, 1846141, Note_on_c, 10, 69, 127
1, 1846312, Note_off_c, 10, 69, 127
1, 1846316, Note_on_c, 7, 67, 127
1, 1846487, Note_off_c, 7, 67, 127
1, 1846491, Note_on_c, 6, 66, 127
1, 1846662, Note_off_c, 6, 66, 127
1, 1846666, Note_on_c, 12, 59, 127
1, 1846666, Note_on_c, 4, 64, 127
1, 1847009, Note_off_c, 4, 64, 127
1, 1847015, Note_on_c, 2, 74, 127
1, 1847364, Note_on_c, 4, 64, 127
1, 1847531, Note_off_c, 2, 74, 127
1, 1847538, Note_on_c, 1, 73, 127
1, 1847797, Note_off_c, 1, 73, 127
1, 1847887, Note_on_c, 2, 74, 127
1, 1847972, Note_off_c, 2, 74, 127
1, 1847975, Note_on_c, 4, 76, 127
1, 1848045, Note_off_c, 7, 55, 127
1, 1848047, Note_off_c, 12, 59, 127
1, 1848054, Note_off_c, 4, 64, 127
1, 1848060, Note_off_c, 4, 76, 127
1, 1848063, Note_on_c, 6, 66, 127
1, 1848063, Note_on_c, 10, 57, 127
1, 1848063, Note_on_c, 2, 74, 127
1, 1848234, Note_off_c, 2, 74, 127
1, 1848238, Note_on_c, 1, 73, 127
1, 1848409, Note_off_c, 1, 73, 127
1, 1848413, Note_on_c, 12, 71, 127
1, 1848584, Note_off_c, 12, 71, 127
1, 1848588, Note_on_c, 10, 69, 127
1, 1848753, Note_off_c, 6, 66, 127
1, 1848759, Note_off_c, 10, 69, 127
1, 1848763, Note_on_c, 4, 64, 127
1, 1848763, Note_on_c, 7, 79, 127
1, 1849106, Note_off_c, 7, 79, 127
1, 1849111, Note_on_c, 12, 71, 127
1, 1849279, Note_off_c, 4, 64, 127
1, 1849286, Note_on_c, 6, 66, 127
1, 1849457, Note_off_c, 6, 66, 127
1, 1849461, Note_on_c, 7, 67, 127
1, 1849800, Note_off_c, 12, 71, 127
1, 1849810, Note_on_c, 1, 73, 127
1, 1850140, Note_off_c, 10, 57, 127
1, 1850153, Note_off_c, 1, 73, 127
1, 1850159, Note_on_c, 2, 50, 127
1, 1850159, Note_on_c, 1, 73, 127
1, 1850330, Note_off_c, 1, 73, 127
1, 1850334, Note_on_c, 2, 74, 127
1, 1850591, Note_off_c, 2, 74, 127
1, 1850595, Note_on_c, 4, 76, 127
1, 1850680, Note_off_c, 4, 76, 127
1, 1850683, Note_on_c, 2, 74, 127
1, 1850768, Note_off_c, 2, 74, 127
1, 1850771, Note_on_c, 1, 73, 127
1, 1850843, Note_off_c, 7, 67, 127
1, 1850848, Note_off_c, 1, 73, 127
1, 1850859, Note_on_c, 6, 66, 127
1, 1850859, Note_on_c, 1, 73, 127
1, 1851208, Note_on_c, 10, 57, 127
1, 1851547, Note_off_c, 1, 73, 127
1, 1851557, Note_on_c, 2, 62, 127
1, 1851557, Note_on_c, 2, 74, 127
1, 1852073, Note_off_c, 2, 74, 127
1, 1852238, Note_off_c, 2, 50, 127
1, 1852239, Note_off_c, 6, 66, 127
1, 1852243, Note_off_c, 10, 57, 127
1, 1852246, Note_off_c, 2, 62, 127
1, 1852255, Note_on_c, 2, 62, 127
1, 1852255, Note_on_c, 10, 69, 127
1, 1852343, Note_on_c, 7, 67, 127
1, 1852387, Note_off_c, 10, 69, 127
1, 1852428, Note_off_c, 7, 67, 127
1, 1852431, Note_on_c, 10, 69, 127
1, 1852606, Note_on_c, 4, 64, 127
1, 1852947, Note_off_c, 10, 69, 127
1, 1852949, Note_off_c, 4, 64, 127
1, 1852955, Note_on_c, 6, 66, 127
1, 1852955, Note_on_c, 12, 71, 127
1, 1853042, Note_on_c, 10, 69, 127
1, 1853086, Note_off_c, 12, 71, 127
1, 1853127, Note_off_c, 10, 69, 127
1, 1853130, Note_on_c, 7, 67, 127
1, 1853217, Note_on_c, 10, 69, 127
1, 1853261, Note_off_c, 7, 67, 127
1, 1853302, Note_off_c, 10, 69, 127
1, 1853305, Note_on_c, 12, 71, 127
1, 1853390, Note_off_c, 12, 71, 127
1, 1853393, Note_on_c, 10, 69, 127
1, 1853478, Note_off_c, 10, 69, 127
1, 1853481, Note_on_c, 12, 71, 127
1, 1853566, Note_off_c, 12, 71, 127
1, 1853569, Note_on_c, 10, 69, 127
1, 1853641, Note_off_c, 2, 62, 127
1, 1853654, Note_off_c, 10, 69, 127
1, 1853657, Note_on_c, 0, 60, 127
1, 1853657, Note_on_c, 12, 71, 127
1, 1853742, Note_off_c, 12, 71, 127
1, 1853745, Note_on_c, 10, 69, 127
1, 1853831, Note_off_c, 10, 69, 127
1, 1853832, Note_on_c, 10, 69, 127
1, 1853919, Note_on_c, 12, 71, 127
1, 1853963, Note_off_c, 10, 69, 127
1, 1854004, Note_off_c, 12, 71, 127
1, 1854007, Note_on_c, 0, 72, 127
1, 1854092, Note_off_c, 0, 72, 127
1, 1854095, Note_on_c, 2, 74, 127
1, 1854180, Note_off_c, 2, 74, 127
1, 1854183, Note_on_c, 4, 76, 127
1, 1854342, Note_off_c, 6, 66, 127
1, 1854346, Note_off_c, 4, 76, 127
1, 1854348, Note_off_c, 0, 60, 127
1, 1854357, Note_on_c, 12, 59, 127
1, 1854357, Note_on_c, 4, 76, 127
1, 1854528, Note_off_c, 4, 76, 127
1, 1854532, Note_on_c, 2, 74, 127
1, 1854703, Note_off_c, 2, 74, 127
1, 1854707, Note_on_c, 0, 60, 127
1, 1854707, Note_on_c, 0, 72, 127
1, 1854878, Note_off_c, 0, 72, 127
1, 1854882, Note_on_c, 12, 71, 127
1, 1855051, Note_off_c, 0, 60, 127
1, 1855053, Note_off_c, 12, 71, 127
1, 1855057, Note_on_c, 2, 62, 127
1, 1855057, Note_on_c, 10, 69, 127
1, 1855393, Note_off_c, 12, 59, 127
1, 1855406, Note_on_c, 10, 57, 127
1, 1855745, Note_off_c, 10, 69, 127
1, 1855749, Note_off_c, 10, 57, 127
1, 1855754, Note_on_c, 12, 59, 127
1, 1855754, Note_on_c, 7, 67, 127
1, 1856103, Note_on_c, 7, 79, 127
1, 1856270, Note_off_c, 7, 67, 127
1, 1856365, Note_off_c, 2, 62, 127
1, 1856443, Note_off_c, 12, 59, 127
1, 1856447, Note_off_c, 7, 79, 127
1, 1856453, Note_on_c, 0, 60, 127
1, 1856453, Note_on_c, 6, 78, 127
1, 1856624, Note_off_c, 6, 78, 127
1, 1856628, Note_on_c, 4, 76, 127
1, 1856803, Note_on_c, 4, 64, 127
1, 1856972, Note_off_c, 4, 76, 127
1, 1856978, Note_on_c, 6, 78, 127
1, 1857065, Note_on_c, 3, 75, 127
1, 1857109, Note_off_c, 6, 78, 127
1, 1857147, Note_off_c, 4, 64, 127
1, 1857152, Note_off_c, 3, 75, 127
1, 1857153, Note_on_c, 7, 67, 127
1, 1857153, Note_on_c, 3, 75, 127
1, 1857489, Note_off_c, 0, 60, 127
1, 1857496, Note_off_c, 3, 75, 127
1, 1857501, Note_on_c, 12, 59, 127
1, 1857501, Note_on_c, 4, 76, 127
1, 1857841, Note_off_c, 7, 67, 127
1, 1857844, Note_off_c, 12, 59, 127
1, 1857850, Note_on_c, 7, 67, 127
1, 1857850, Note_on_c, 10, 57, 127
1, 1857935, Note_off_c, 7, 67, 127
1, 1857938, Note_on_c, 6, 66, 127
1, 1858023, Note_off_c, 6, 66, 127
1, 1858026, Note_on_c, 7, 67, 127
1, 1858111, Note_off_c, 7, 67, 127
1, 1858114, Note_on_c, 6, 66, 127
1, 1858192, Note_off_c, 4, 76, 127
1, 1858199, Note_off_c, 6, 66, 127
1, 1858202, Note_on_c, 4, 64, 127
1, 1858202, Note_on_c, 10, 81, 127
1, 1858289, Note_on_c, 12, 83, 127
1, 1858333, Note_off_c, 10, 81, 127
1, 1858374, Note_off_c, 12, 83, 127
1, 1858377, Note_on_c, 10, 81, 127
1, 1858462, Note_off_c, 10, 81, 127
1, 1858465, Note_on_c, 7, 79, 127
1, 1858544, Note_off_c, 10, 57, 127
1, 1858547, Note_off_c, 4, 64, 127
1, 1858550, Note_off_c, 7, 79, 127
1, 1858553, Note_on_c, 3, 63, 127
1, 1858553, Note_on_c, 12, 59, 127
1, 1858553, Note_on_c, 10, 81, 127
1, 1858896, Note_off_c, 3, 63, 127
1, 1858902, Note_on_c, 4, 64, 127
1, 1859069, Note_off_c, 10, 81, 127
1, 1859077, Note_on_c, 6, 78, 127
1, 1859246, Note_off_c, 4, 64, 127
1, 1859248, Note_off_c, 6, 78, 127
1, 1859251, Note_on_c, 6, 66, 127
1, 1859251, Note_on_c, 4, 76, 127
1, 1859588, Note_off_c, 12, 59, 127
1, 1859594, Note_off_c, 4, 76, 127
1, 1859600, Note_on_c, 10, 57, 127
1, 1859600, Note_on_c, 3, 75, 127
1, 1859939, Note_off_c, 6, 66, 127
1, 1859943, Note_off_c, 10, 57, 127
1, 1859949, Note_on_c, 7, 55, 127
1, 1860206, Note_off_c, 3, 75, 127
1, 1860293, Note_off_c, 7, 55, 127
1, 1860299, Note_on_c, 6, 54, 127
1, 1860299, Note_on_c, 12, 71, 127
1, 1860642, Note_off_c, 12, 71, 127
1, 1860642, Note_off_c, 6, 54, 127
1, 1860647, Note_on_c, 4, 52, 127
1, 1860647, Note_on_c, 4, 76, 127
1, 1860734, Note_on_c, 6, 78, 127
1, 1860778, Note_off_c, 4, 76, 127
1, 1860819, Note_off_c, 6, 78, 127
1, 1860822, Note_on_c, 7, 79, 127
1, 1860997, Note_on_c, 10, 57, 127
1, 1861166, Note_off_c, 7, 79, 127
1, 1861172, Note_on_c, 6, 78, 127
1, 1861334, Note_off_c, 10, 57, 127
1, 1861335, Note_off_c, 6, 78, 127
1, 1861347, Note_on_c, 10, 57, 127
1, 1861347, Note_on_c, 6, 78, 127
1, 1861518, Note_off_c, 10, 57, 127
1, 1861522, Note_on_c, 7, 55, 127
1, 1861691, Note_off_c, 6, 78, 127
1, 1861693, Note_off_c, 7, 55, 127
1, 1861697, Note_on_c, 6, 54, 127
1, 1861697, Note_on_c, 4, 76, 127
1, 1862029, Note_off_c, 4, 52, 127
1, 1862040, Note_off_c, 6, 54, 127
1, 1862046, Note_on_c, 7, 55, 127
1, 1862046, Note_on_c, 2, 50, 127
1, 1862213, Note_off_c, 4, 76, 127
1, 1862220, Note_on_c, 12, 71, 127
1, 1862391, Note_off_c, 12, 71, 127
1, 1862395, Note_on_c, 0, 72, 127
1, 1862482, Note_on_c, 12, 71, 127
1, 1862526, Note_off_c, 0, 72, 127
1, 1862567, Note_off_c, 12, 71, 127
1, 1862570, Note_on_c, 10, 69, 127
1, 1862655, Note_off_c, 10, 69, 127
1, 1862658, Note_on_c, 12, 71, 127
1, 1862737, Note_off_c, 2, 50, 127
1, 1862737, Note_off_c, 7, 55, 127
1, 1862743, Note_off_c, 12, 71, 127
1, 1862746, Note_on_c, 0, 48, 127
1, 1862746, Note_on_c, 7, 79, 127
1, 1862833, Note_on_c, 4, 76, 127
1, 1862877, Note_off_c, 7, 79, 127
1, 1863090, Note_off_c, 4, 76, 127
1, 1863095, Note_on_c, 10, 57, 127
1, 1863095, Note_on_c, 6, 78, 127
1, 1863182, Note_on_c, 3, 75, 127
1, 1863226, Note_off_c, 6, 78, 127
1, 1863431, Note_off_c, 3, 75, 127
1, 1863431, Note_off_c, 10, 57, 127
1, 1863444, Note_on_c, 10, 57, 127
1, 1863444, Note_on_c, 3, 75, 127
1, 1863529, Note_off_c, 10, 57, 127
1, 1863532, Note_on_c, 7, 55, 127
1, 1863617, Note_off_c, 7, 55, 127
1, 1863620, Note_on_c, 10, 57, 127
1, 1863705, Note_off_c, 10, 57, 127
1, 1863708, Note_on_c, 7, 55, 127
1, 1863790, Note_off_c, 3, 75, 127
1, 1863793, Note_off_c, 7, 55, 127
1, 1863796, Note_on_c, 6, 54, 127
1, 1863796, Note_on_c, 4, 76, 127
1, 1864128, Note_off_c, 0, 48, 127
1, 1864139, Note_off_c, 6, 54, 127
1, 1864144, Note_on_c, 7, 55, 127
1, 1864144, Note_on_c, 12, 47, 127
1, 1864312, Note_off_c, 4, 76, 127
1, 1864319, Note_on_c, 7, 67, 127
1, 1864488, Note_off_c, 7, 55, 127
1, 1864490, Note_off_c, 7, 67, 127
1, 1864494, Note_on_c, 12, 59, 127
1, 1864494, Note_on_c, 6, 66, 127
1, 1864665, Note_off_c, 6, 66, 127
1, 1864669, Note_on_c, 4, 64, 127
1, 1864752, Note_off_c, 12, 59, 127
1, 1864834, Note_off_c, 12, 47, 127
1, 1864840, Note_off_c, 4, 64, 127
1, 1864844, Note_on_c, 10, 45, 127
1, 1864844, Note_on_c, 6, 66, 127
1, 1865187, Note_off_c, 10, 45, 127
1, 1865193, Note_on_c, 0, 48, 127
1, 1865368, Note_on_c, 4, 76, 127
1, 1865531, Note_off_c, 4, 76, 127
1, 1865533, Note_off_c, 6, 66, 127
1, 1865537, Note_off_c, 0, 48, 127
1, 1865543, Note_on_c, 12, 47, 127
1, 1865543, Note_on_c, 4, 76, 127
1, 1865714, Note_off_c, 4, 76, 127
1, 1865717, Note_on_c, 3, 75, 127
1, 1865887, Note_off_c, 12, 47, 127
1, 1865888, Note_off_c, 3, 75, 127
1, 1865892, Note_on_c, 10, 45, 127
1, 1865892, Note_on_c, 0, 72, 127
1, 1865892, Note_on_c, 6, 78, 127
1, 1865977, Note_off_c, 6, 78, 127
1, 1865980, Note_on_c, 7, 79, 127
1, 1866065, Note_off_c, 7, 79, 127
1, 1866068, Note_on_c, 10, 81, 127
1, 1866237, Note_off_c, 0, 72, 127
1, 1866237, Note_off_c, 10, 45, 127
1, 1866239, Note_off_c, 10, 81, 127
1, 1866243, Note_on_c, 12, 47, 127
1, 1866243, Note_on_c, 12, 71, 127
1, 1866243, Note_on_c, 7, 79, 127
1, 1866586, Note_off_c, 7, 79, 127
1, 1866586, Note_off_c, 12, 71, 127
1, 1866592, Note_on_c, 3, 51, 127
1, 1866592, Note_on_c, 10, 69, 127
1, 1866592, Note_on_c, 6, 78, 127
1, 1866678, Note_off_c, 12, 47, 127
1, 1866929, Note_off_c, 6, 78, 127
1, 1866936, Note_off_c, 3, 51, 127
1, 1866942, Note_on_c, 4, 52, 127
1, 1866942, Note_on_c, 6, 78, 127
1, 1867113, Note_off_c, 6, 78, 127
1, 1867117, Note_on_c, 4, 76, 127
1, 1867292, Note_on_c, 12, 47, 127
1, 1867461, Note_off_c, 4, 76, 127
1, 1867466, Note_on_c, 6, 78, 127
1, 1867553, Note_on_c, 3, 75, 127
1, 1867597, Note_off_c, 6, 78, 127
1, 1867629, Note_off_c, 10, 69, 127
1, 1867630, Note_off_c, 3, 75, 127
1, 1867636, Note_off_c, 12, 47, 127
1, 1867641, Note_on_c, 4, 40, 127
1, 1867641, Note_on_c, 3, 75, 127
1, 1867641, Note_on_c, 7, 67, 127
1, 1867984, Note_off_c, 3, 75, 127
1, 1867990, Note_on_c, 12, 47, 127
1, 1867990, Note_on_c, 4, 76, 127
1, 1868317, Note_off_c, 4, 52, 127
1, 1868334, Note_off_c, 12, 47, 127
1, 1868340, Note_on_c, 4, 52, 127
1, 1868676, Note_off_c, 4, 40, 127
1, 1868683, Note_off_c, 4, 52, 127
1, 1868689, Note_on_c, 2, 50, 127
1, 1868852, Note_off_c, 7, 67, 127
1, 1868856, Note_off_c, 4, 76, 127
1, 1869032, Note_off_c, 2, 50, 127
1, 1869037, Note_on_c, 0, 48, 127
1, 1869037, Note_on_c, 4, 76, 127
1, 1869380, Note_off_c, 4, 76, 127
1, 1869386, Note_on_c, 2, 74, 127
1, 1869557, Note_off_c, 2, 74, 127
1, 1869561, Note_on_c, 0, 72, 127
1, 1869732, Note_off_c, 0, 72, 127
1, 1869736, Note_on_c, 4, 52, 127
1, 1869736, Note_on_c, 12, 71, 127
1, 1870079, Note_off_c, 12, 71, 127
1, 1870085, Note_on_c, 10, 69, 127
1, 1870433, Note_on_c, 10, 57, 127
1, 1870773, Note_off_c, 10, 69, 127
1, 1870782, Note_on_c, 12, 71, 127
1, 1870953, Note_off_c, 12, 71, 127
1, 1870957, Note_on_c, 0, 72, 127
1, 1871113, Note_off_c, 0, 48, 127
1, 1871116, Note_off_c, 4, 52, 127
1, 1871128, Note_off_c, 0, 72, 127
1, 1871132, Note_on_c, 12, 47, 127
1, 1871132, Note_on_c, 2, 74, 127
1, 1871220, Note_on_c, 0, 72, 127
1, 1871264, Note_off_c, 2, 74, 127
1, 1871302, Note_off_c, 10, 57, 127
1, 1871305, Note_off_c, 0, 72, 127
1, 1871308, Note_on_c, 12, 71, 127
1, 1871478, Note_off_c, 12, 71, 127
1, 1871482, Note_on_c, 6, 54, 127
1, 1871482, Note_on_c, 0, 72, 127
1, 1871569, Note_on_c, 12, 71, 127
1, 1871613, Note_off_c, 0, 72, 127
1, 1871654, Note_off_c, 12, 71, 127
1, 1871657, Note_on_c, 10, 69, 127
1, 1871820, Note_off_c, 10, 69, 127
1, 1871828, Note_off_c, 6, 54, 127
1, 1871832, Note_on_c, 4, 52, 127
1, 1871832, Note_on_c, 10, 69, 127
1, 1872003, Note_off_c, 4, 52, 127
1, 1872006, Note_on_c, 2, 50, 127
1, 1872176, Note_off_c, 10, 69, 127
1, 1872177, Note_off_c, 2, 50, 127
1, 1872181, Note_on_c, 4, 52, 127
1, 1872181, Note_on_c, 7, 67, 127
1, 1872352, Note_off_c, 4, 52, 127
1, 1872356, Note_on_c, 6, 54, 127
1, 1872515, Note_off_c, 12, 47, 127
1, 1872527, Note_off_c, 6, 54, 127
1, 1872531, Note_on_c, 7, 55, 127
1, 1872702, Note_off_c, 7, 55, 127
1, 1872706, Note_on_c, 6, 54, 127
1, 1872871, Note_off_c, 7, 67, 127
1, 1872877, Note_off_c, 6, 54, 127
1, 1872881, Note_on_c, 7, 55, 127
1, 1872881, Note_on_c, 10, 69, 127
1, 1873052, Note_off_c, 10, 69, 127
1, 1873056, Note_on_c, 12, 71, 127
1, 1873227, Note_off_c, 12, 71, 127
1, 1873231, Note_on_c, 10, 45, 127
1, 1873231, Note_on_c, 0, 72, 127
1, 1873402, Note_off_c, 0, 72, 127
1, 1873406, Note_on_c, 2, 74, 127
1, 1873498, Note_off_c, 7, 55, 127
1, 1873577, Note_off_c, 2, 74, 127
1, 1873581, Note_on_c, 4, 52, 127
1, 1873581, Note_on_c, 0, 72, 127
1, 1873752, Note_off_c, 0, 72, 127
1, 1873755, Note_on_c, 12, 71, 127
1, 1873925, Note_off_c, 4, 52, 127
1, 1873926, Note_off_c, 12, 71, 127
1, 1873930, Note_on_c, 10, 57, 127
1, 1873930, Note_on_c, 0, 72, 127
1, 1874105, Note_on_c, 10, 69, 127
1, 1874268, Note_off_c, 10, 45, 127
1, 1874276, Note_off_c, 10, 69, 127
1, 1874280, Note_on_c, 7, 43, 127
1, 1874280, Note_on_c, 4, 64, 127
1, 1874447, Note_off_c, 0, 72, 127
1, 1874455, Note_on_c, 10, 69, 127
1, 1874538, Note_off_c, 4, 64, 127
1, 1874624, Note_off_c, 7, 43, 127
1, 1874626, Note_off_c, 10, 69, 127
1, 1874630, Note_on_c, 6, 42, 127
1, 1874630, Note_on_c, 0, 72, 127
1, 1874805, Note_on_c, 12, 71, 127
1, 1874974, Note_off_c, 6, 42, 127
1, 1874976, Note_off_c, 12, 71, 127
1, 1874980, Note_on_c, 4, 40, 127
1, 1874980, Note_on_c, 10, 69, 127
1, 1875151, Note_off_c, 10, 69, 127
1, 1875155, Note_on_c, 7, 67, 127
1, 1875313, Note_off_c, 10, 57, 127
1, 1875324, Note_off_c, 4, 40, 127
1, 1875326, Note_off_c, 7, 67, 127
1, 1875330, Note_on_c, 2, 38, 127
1, 1875330, Note_on_c, 6, 66, 127
1, 1875498, Note_off_c, 0, 72, 127
1, 1875504, Note_on_c, 2, 74, 127
1, 1875675, Note_off_c, 2, 74, 127
1, 1875679, Note_on_c, 10, 45, 127
1, 1875679, Note_on_c, 0, 72, 127
1, 1875850, Note_off_c, 0, 72, 127
1, 1875854, Note_on_c, 12, 71, 127
1, 1876018, Note_off_c, 2, 38, 127
1, 1876023, Note_off_c, 10, 45, 127
1, 1876025, Note_off_c, 12, 71, 127
1, 1876029, Note_on_c, 2, 50, 127
1, 1876029, Note_on_c, 0, 72, 127
1, 1876204, Note_on_c, 10, 69, 127
1, 1876360, Note_off_c, 6, 66, 127
1, 1876373, Note_off_c, 2, 50, 127
1, 1876375, Note_off_c, 10, 69, 127
1, 1876379, Note_on_c, 0, 48, 127
1, 1876379, Note_on_c, 6, 66, 127
1, 1876546, Note_off_c, 0, 72, 127
1, 1876554, Note_on_c, 10, 69, 127
1, 1876637, Note_off_c, 6, 66, 127
1, 1876723, Note_off_c, 0, 48, 127
1, 1876725, Note_off_c, 10, 69, 127
1, 1876729, Note_on_c, 12, 47, 127
1, 1876729, Note_on_c, 0, 72, 127
1, 1876904, Note_on_c, 4, 76, 127
1, 1877073, Note_off_c, 0, 72, 127
1, 1877073, Note_off_c, 12, 47, 127
1, 1877075, Note_off_c, 4, 76, 127
1, 1877079, Note_on_c, 10, 45, 127
1, 1877079, Note_on_c, 2, 74, 127
1, 1877250, Note_off_c, 2, 74, 127
1, 1877253, Note_on_c, 0, 72, 127
1, 1877423, Note_off_c, 10, 45, 127
1, 1877424, Note_off_c, 0, 72, 127
1, 1877428, Note_on_c, 7, 43, 127
1, 1877428, Note_on_c, 7, 67, 127
1, 1877428, Note_on_c, 12, 71, 127
1, 1877599, Note_off_c, 12, 71, 127
1, 1877603, Note_on_c, 0, 72, 127
1, 1877774, Note_off_c, 0, 72, 127
1, 1877778, Note_on_c, 2, 50, 127
1, 1877778, Note_on_c, 12, 71, 127
1, 1877949, Note_off_c, 12, 71, 127
1, 1877953, Note_on_c, 10, 69, 127
1, 1878116, Note_off_c, 7, 43, 127
1, 1878122, Note_off_c, 2, 50, 127
1, 1878124, Note_off_c, 10, 69, 127
1, 1878128, Note_on_c, 7, 55, 127
1, 1878128, Note_on_c, 12, 71, 127
1, 1878209, Note_off_c, 7, 67, 127
1, 1878303, Note_on_c, 7, 67, 127
1, 1878472, Note_off_c, 7, 55, 127
1, 1878474, Note_off_c, 7, 67, 127
1, 1878478, Note_on_c, 5, 53, 127
1, 1878478, Note_on_c, 2, 62, 127
1, 1878653, Note_on_c, 7, 67, 127
1, 1878811, Note_off_c, 12, 71, 127
1, 1878822, Note_off_c, 5, 53, 127
1, 1878828, Note_on_c, 4, 52, 127
1, 1878828, Note_on_c, 12, 71, 127
1, 1878911, Note_off_c, 7, 67, 127
1, 1878995, Note_off_c, 2, 62, 127
1, 1879002, Note_on_c, 7, 67, 127
1, 1879172, Note_off_c, 12, 71, 127
1, 1879172, Note_off_c, 4, 52, 127
1, 1879177, Note_on_c, 2, 50, 127
1, 1879177, Note_on_c, 0, 72, 127
1, 1879348, Note_off_c, 0, 72, 127
1, 1879352, Note_on_c, 2, 74, 127
1, 1879521, Note_off_c, 2, 50, 127
1, 1879523, Note_off_c, 2, 74, 127
1, 1879527, Note_on_c, 0, 48, 127
1, 1879527, Note_on_c, 4, 76, 127
1, 1879698, Note_off_c, 4, 76, 127
1, 1879702, Note_on_c, 5, 77, 127
1, 1879873, Note_off_c, 5, 77, 127
1, 1879877, Note_on_c, 7, 55, 127
1, 1879877, Note_on_c, 4, 76, 127
1, 1880048, Note_off_c, 4, 76, 127
1, 1880052, Note_on_c, 2, 74, 127
1, 1880215, Note_off_c, 0, 48, 127
1, 1880216, Note_off_c, 7, 67, 127
1, 1880221, Note_off_c, 7, 55, 127
1, 1880223, Note_off_c, 2, 74, 127
1, 1880227, Note_on_c, 0, 60, 127
1, 1880227, Note_on_c, 4, 76, 127
1, 1880402, Note_on_c, 0, 72, 127
1, 1880571, Note_off_c, 0, 60, 127
1, 1880573, Note_off_c, 0, 72, 127
1, 1880577, Note_on_c, 12, 59, 127
1, 1880577, Note_on_c, 7, 67, 127
1, 1880751, Note_on_c, 0, 72, 127
1, 1880910, Note_off_c, 4, 76, 127
1, 1880921, Note_off_c, 12, 59, 127
1, 1880922, Note_off_c, 0, 72, 127
1, 1880926, Note_on_c, 10, 57, 127
1, 1880926, Note_on_c, 4, 76, 127
1, 1881094, Note_off_c, 7, 67, 127
1, 1881101, Note_on_c, 0, 72, 127
1, 1881184, Note_off_c, 4, 76, 127
1, 1881270, Note_off_c, 10, 57, 127
1, 1881276, Note_on_c, 7, 55, 127
1, 1881276, Note_on_c, 6, 78, 127
1, 1881445, Note_off_c, 0, 72, 127
1, 1881447, Note_off_c, 6, 78, 127
1, 1881451, Note_on_c, 7, 79, 127
1, 1881620, Note_off_c, 7, 55, 127
1, 1881622, Note_off_c, 7, 79, 127
1, 1881626, Note_on_c, 10, 81, 127
1, 1881626, Note_on_c, 6, 54, 127
1, 1881809, Note_on_c, 0, 72, 127
1, 1881901, Note_off_c, 10, 81, 127
1, 1881992, Note_off_c, 0, 72, 127
1, 1881995, Note_on_c, 12, 71, 127
1, 1881995, Note_on_c, 2, 50, 127
1, 1882177, Note_off_c, 6, 54, 127
1, 1882178, Note_off_c, 12, 71, 127
1, 1882180, Note_on_c, 10, 69, 127
1, 1882362, Note_off_c, 2, 50, 127
1, 1882363, Note_off_c, 10, 69, 127
1, 1882366, Note_on_c, 12, 71, 127
1, 1882366, Note_on_c, 7, 55, 127
1, 1882549, Note_off_c, 12, 71, 127
1, 1882549, Note_on_c, 0, 72, 127
1, 1882732, Note_off_c, 0, 72, 127
1, 1882735, Note_on_c, 2, 74, 127
1, 1882735, Note_on_c, 12, 59, 127
1, 1882917, Note_off_c, 7, 55, 127
1, 1882920, Note_on_c, 7, 67, 127
1, 1883011, Note_off_c, 2, 74, 127
1, 1883102, Note_off_c, 12, 59, 127
1, 1883103, Note_off_c, 7, 67, 127
1, 1883106, Note_on_c, 12, 71, 127
1, 1883106, Note_on_c, 2, 62, 127
1, 1883289, Note_on_c, 10, 69, 127
1, 1883381, Note_off_c, 12, 71, 127
1, 1883472, Note_off_c, 10, 69, 127
1, 1883475, Note_on_c, 7, 67, 127
1, 1883475, Note_on_c, 2, 50, 127
1, 1883658, Note_off_c, 7, 67, 127
1, 1883660, Note_on_c, 6, 66, 127
1, 1883841, Note_off_c, 2, 62, 127
1, 1883842, Note_off_c, 2, 50, 127
1, 1883843, Note_off_c, 6, 66, 127
1, 1883846, Note_on_c, 7, 67, 127
1, 1883846, Note_on_c, 7, 55, 127
1, 1884049, Note_on_c, 0, 60, 127
1, 1884252, Note_off_c, 0, 60, 127
1, 1884255, Note_on_c, 12, 59, 127
1, 1884458, Note_off_c, 12, 59, 127
1, 1884464, Note_on_c, 10, 57, 127
1, 1884661, Note_off_c, 7, 67, 127
1, 1884677, Note_off_c, 10, 57, 127
1, 1884679, Note_on_c, 12, 59, 127
1, 1884904, Note_on_c, 2, 62, 127
1, 1885125, Note_off_c, 2, 62, 127
1, 1885131, Note_on_c, 7, 67, 127
1, 1885131, Note_on_c, 2, 50, 127
1, 1885352, Note_off_c, 7, 67, 127
1, 1885358, Note_on_c, 6, 66, 127
1, 1885574, Note_off_c, 6, 66, 127
1, 1885602, Note_on_c, 6, 66, 127
1, 1885602, Note_on_c, 7, 43, 127
1, 1886371, Note_off_c, 6, 66, 127
1, 1886463, Note_on_c, 7, 67, 127
1, 1887098, Note_off_c, 7, 55, 127
1, 1887722, Note_off_c, 2, 50, 127
1, 1887846, Note_off_c, 7, 43, 127
1, 1888001, Note_off_c, 12, 59, 127
1, 1888863, Note_off_c, 7, 67, 127
1, 1892352, End_track
0, 0, End_of_file
