0, 0, Header, 1, 3, 384
1, 0, Start_track
1, 0, Tempo, 500000
1, 0, Time_signature, 4, 2, 24, 8
1, 385536, End_track
2, 0, Start_track
2, 0, Text_t, "harpsichord: John Sankey"
2, 0, Program_c, 0, 6
2, 0, Pitch_bend_c, 0, 8192
2, 0, Program_c, 1, 6
2, 0, Pitch_bend_c, 1, 7792
2, 0, Program_c, 2, 6
2, 0, Pitch_bend_c, 2, 7876
2, 0, Program_c, 3, 6
2, 0, Pitch_bend_c, 3, 7952
2, 0, Program_c, 4, 6
2, 0, Pitch_bend_c, 4, 7792
2, 0, Program_c, 5, 6
2, 0, Pitch_bend_c, 5, 8112
2, 0, Program_c, 6, 6
2, 0, Pitch_bend_c, 6, 7712
2, 0, Program_c, 7, 6
2, 0, Pitch_bend_c, 7, 8037
2, 0, Program_c, 8, 6
2, 0, Pitch_bend_c, 8, 7872
2, 0, Program_c, 10, 6
2, 0, Pitch_bend_c, 10, 7712
2, 0, Program_c, 11, 6
2, 0, Pitch_bend_c, 11, 8032
2, 0, Program_c, 12, 6
2, 0, Pitch_bend_c, 12, 7872
2, 0, Title_t, "Track 1"
2, 198, Note_on_c, 11, 70, 127
2, 198, Note_on_c, 2, 62, 127
2, 198, Note_on_c, 11, 58, 127
2, 256, Note_on_c, 10, 69, 127
2, 273, Note_off_c, 11, 70, 127
2, 314, Note_off_c, 10, 69, 127
2, 314, Note_on_c, 11, 70, 127
2, 427, Note_off_c, 2, 62, 127
2, 429, Note_off_c, 11, 70, 127
2, 429, Note_on_c, 0, 72, 127
2, 429, Note_on_c, 3, 63, 127
2, 657, Note_off_c, 3, 63, 127
2, 657, Note_off_c, 0, 72, 127
2, 657, Note_off_c, 11, 58, 127
2, 659, Note_on_c, 0, 72, 127
2, 659, Note_on_c, 3, 63, 127
2, 659, Note_on_c, 11, 58, 127
2, 887, Note_off_c, 3, 63, 127
2, 887, Note_off_c, 0, 72, 127
2, 889, Note_on_c, 2, 74, 127
2, 889, Note_on_c, 5, 65, 127
2, 1117, Note_off_c, 5, 65, 127
2, 1117, Note_off_c, 2, 74, 127
2, 1117, Note_off_c, 11, 58, 127
2, 1119, Note_on_c, 3, 63, 127
2, 1119, Note_on_c, 0, 72, 127
2, 1119, Note_on_c, 3, 51, 127
2, 1201, Note_off_c, 0, 72, 127
2, 1201, Note_on_c, 2, 74, 127
2, 1280, Note_off_c, 2, 74, 127
2, 1282, Note_on_c, 0, 72, 127
2, 1347, Note_off_c, 3, 63, 127
2, 1349, Note_on_c, 11, 70, 127
2, 1349, Note_on_c, 2, 62, 127
2, 1361, Note_off_c, 0, 72, 127
2, 1577, Note_off_c, 2, 62, 127
2, 1577, Note_off_c, 11, 70, 127
2, 1577, Note_off_c, 3, 51, 127
2, 1579, Note_on_c, 11, 70, 127
2, 1579, Note_on_c, 0, 60, 127
2, 1579, Note_on_c, 5, 53, 127
2, 1807, Note_off_c, 11, 70, 127
2, 1809, Note_on_c, 10, 69, 127
2, 1867, Note_on_c, 11, 70, 127
2, 1884, Note_off_c, 10, 69, 127
2, 1925, Note_on_c, 10, 69, 127
2, 1927, Note_off_c, 11, 70, 127
2, 2030, Note_off_c, 10, 69, 127
2, 2035, Note_off_c, 0, 60, 127
2, 2040, Note_on_c, 2, 62, 127
2, 2040, Note_on_c, 11, 70, 127
2, 2268, Note_off_c, 11, 70, 127
2, 2268, Note_off_c, 2, 62, 127
2, 2270, Note_on_c, 3, 63, 127
2, 2270, Note_on_c, 0, 72, 127
2, 2498, Note_off_c, 0, 72, 127
2, 2498, Note_off_c, 3, 63, 127
2, 2498, Note_off_c, 5, 53, 127
2, 2500, Note_on_c, 2, 62, 127
2, 2500, Note_on_c, 11, 70, 127
2, 2500, Note_on_c, 11, 58, 127
2, 2558, Note_on_c, 10, 69, 127
2, 2575, Note_off_c, 11, 70, 127
2, 2616, Note_off_c, 10, 69, 127
2, 2616, Note_on_c, 11, 70, 127
2, 2731, Note_off_c, 11, 70, 127
2, 2731, Note_on_c, 5, 65, 127
2, 2959, Note_off_c, 5, 65, 127
2, 2961, Note_on_c, 5, 65, 127
2, 3412, Note_off_c, 2, 62, 127
2, 3419, Note_off_c, 11, 58, 127
2, 3421, Note_on_c, 11, 46, 127
2, 3632, Note_off_c, 5, 65, 127
2, 3879, Note_off_c, 11, 46, 127
2, 3881, Note_on_c, 11, 70, 127
2, 3881, Note_on_c, 2, 62, 127
2, 3881, Note_on_c, 11, 58, 127
2, 3939, Note_on_c, 10, 69, 127
2, 3956, Note_off_c, 11, 70, 127
2, 3992, Note_off_c, 10, 69, 127
2, 3997, Note_on_c, 11, 70, 127
2, 4110, Note_off_c, 11, 70, 127
2, 4110, Note_off_c, 2, 62, 127
2, 4112, Note_on_c, 0, 72, 127
2, 4112, Note_on_c, 3, 63, 127
2, 4340, Note_off_c, 3, 63, 127
2, 4340, Note_off_c, 0, 72, 127
2, 4340, Note_off_c, 11, 58, 127
2, 4342, Note_on_c, 0, 72, 127
2, 4342, Note_on_c, 5, 65, 127
2, 4342, Note_on_c, 11, 58, 127
2, 4570, Note_off_c, 0, 72, 127
2, 4572, Note_on_c, 2, 74, 127
2, 4798, Note_off_c, 5, 65, 127
2, 4800, Note_off_c, 2, 74, 127
2, 4802, Note_on_c, 3, 75, 127
2, 4802, Note_on_c, 3, 63, 127
2, 4864, Note_on_c, 2, 74, 127
2, 4876, Note_off_c, 3, 75, 127
2, 4919, Note_off_c, 2, 74, 127
2, 4926, Note_on_c, 3, 75, 127
2, 5029, Note_off_c, 3, 63, 127
2, 5031, Note_on_c, 5, 77, 127
2, 5031, Note_on_c, 2, 62, 127
2, 5041, Note_off_c, 3, 75, 127
2, 5259, Note_off_c, 2, 62, 127
2, 5259, Note_off_c, 5, 77, 127
2, 5259, Note_off_c, 11, 58, 127
2, 5261, Note_on_c, 7, 79, 127
2, 5261, Note_on_c, 3, 63, 127
2, 5261, Note_on_c, 3, 51, 127
2, 5489, Note_off_c, 7, 79, 127
2, 5491, Note_on_c, 5, 77, 127
2, 5717, Note_off_c, 3, 63, 127
2, 5719, Note_off_c, 5, 77, 127
2, 5721, Note_on_c, 3, 75, 127
2, 5721, Note_on_c, 0, 60, 127
2, 5795, Note_off_c, 3, 75, 127
2, 5802, Note_on_c, 5, 77, 127
2, 5876, Note_off_c, 5, 77, 127
2, 5883, Note_on_c, 3, 75, 127
2, 5957, Note_off_c, 3, 75, 127
2, 5969, Note_on_c, 5, 77, 127
2, 6171, Note_off_c, 5, 77, 127
2, 6176, Note_off_c, 0, 60, 127
2, 6178, Note_off_c, 3, 51, 127
2, 6180, Note_on_c, 5, 77, 127
2, 6180, Note_on_c, 2, 62, 127
2, 6180, Note_on_c, 11, 58, 127
2, 6408, Note_off_c, 5, 77, 127
2, 6410, Note_on_c, 11, 70, 127
2, 6638, Note_off_c, 11, 70, 127
2, 6640, Note_on_c, 11, 70, 127
2, 7091, Note_off_c, 2, 62, 127
2, 7098, Note_off_c, 11, 58, 127
2, 7100, Note_on_c, 11, 46, 127
2, 7311, Note_off_c, 11, 70, 127
2, 7558, Note_off_c, 11, 46, 127
2, 7560, Note_on_c, 5, 65, 127
2, 7560, Note_on_c, 0, 72, 127
2, 7560, Note_on_c, 10, 57, 127
2, 8018, Note_off_c, 10, 57, 127
2, 8018, Note_off_c, 0, 72, 127
2, 8018, Note_off_c, 5, 65, 127
2, 8020, Note_on_c, 5, 65, 127
2, 8020, Note_on_c, 2, 74, 127
2, 8020, Note_on_c, 11, 58, 127
2, 8478, Note_off_c, 2, 74, 127
2, 8480, Note_on_c, 0, 72, 127
2, 8593, Note_off_c, 0, 72, 127
2, 8595, Note_on_c, 11, 70, 127
2, 8708, Note_off_c, 11, 70, 127
2, 8710, Note_on_c, 10, 69, 127
2, 8931, Note_off_c, 5, 65, 127
2, 8938, Note_off_c, 10, 69, 127
2, 8938, Note_off_c, 11, 58, 127
2, 8940, Note_on_c, 4, 64, 127
2, 8940, Note_on_c, 10, 69, 127
2, 8940, Note_on_c, 0, 60, 127
2, 9168, Note_off_c, 10, 69, 127
2, 9170, Note_on_c, 7, 67, 127
2, 9396, Note_off_c, 4, 64, 127
2, 9398, Note_off_c, 7, 67, 127
2, 9398, Note_off_c, 0, 60, 127
2, 9400, Note_on_c, 10, 69, 127
2, 9400, Note_on_c, 2, 62, 127
2, 9400, Note_on_c, 11, 58, 127
2, 9628, Note_off_c, 10, 69, 127
2, 9630, Note_on_c, 11, 70, 127
2, 9856, Note_off_c, 2, 62, 127
2, 9858, Note_off_c, 11, 70, 127
2, 9858, Note_off_c, 11, 58, 127
2, 9860, Note_on_c, 0, 60, 127
2, 9860, Note_on_c, 0, 72, 127
2, 9860, Note_on_c, 10, 57, 127
2, 10088, Note_off_c, 0, 72, 127
2, 10090, Note_on_c, 5, 65, 127
2, 10318, Note_off_c, 5, 65, 127
2, 10320, Note_on_c, 5, 65, 127
2, 10771, Note_off_c, 0, 60, 127
2, 10776, Note_off_c, 5, 65, 127
2, 10778, Note_off_c, 10, 57, 127
2, 10780, Note_on_c, 2, 62, 127
2, 10780, Note_on_c, 11, 58, 127
2, 11238, Note_off_c, 11, 58, 127
2, 11240, Note_on_c, 5, 65, 127
2, 11240, Note_on_c, 10, 57, 127
2, 11691, Note_off_c, 2, 62, 127
2, 11698, Note_off_c, 10, 57, 127
2, 11698, Note_off_c, 5, 65, 127
2, 11700, Note_on_c, 7, 67, 127
2, 11700, Note_on_c, 4, 64, 127
2, 11700, Note_on_c, 7, 55, 127
2, 11813, Note_off_c, 7, 67, 127
2, 11815, Note_on_c, 10, 69, 127
2, 11928, Note_off_c, 10, 69, 127
2, 11930, Note_on_c, 11, 70, 127
2, 12158, Note_off_c, 11, 70, 127
2, 12158, Note_off_c, 7, 55, 127
2, 12158, Note_off_c, 4, 64, 127
2, 12160, Note_on_c, 5, 65, 127
2, 12160, Note_on_c, 10, 69, 127
2, 12160, Note_on_c, 5, 53, 127
2, 12388, Note_off_c, 10, 69, 127
2, 12390, Note_on_c, 11, 70, 127
2, 12616, Note_off_c, 5, 65, 127
2, 12618, Note_off_c, 11, 70, 127
2, 12618, Note_off_c, 5, 53, 127
2, 12620, Note_on_c, 10, 69, 127
2, 12620, Note_on_c, 0, 60, 127
2, 12829, Note_off_c, 10, 69, 127
2, 12831, Note_on_c, 7, 67, 127
2, 12889, Note_off_c, 7, 67, 127
2, 12894, Note_on_c, 10, 69, 127
2, 12952, Note_off_c, 10, 69, 127
2, 12957, Note_on_c, 7, 67, 127
2, 13015, Note_off_c, 7, 67, 127
2, 13020, Note_on_c, 10, 69, 127
2, 13078, Note_off_c, 10, 69, 127
2, 13080, Note_off_c, 0, 60, 127
2, 13082, Note_on_c, 7, 67, 127
2, 13082, Note_on_c, 4, 64, 127
2, 13082, Note_on_c, 0, 48, 127
2, 13310, Note_off_c, 7, 67, 127
2, 13312, Note_on_c, 10, 69, 127
2, 13538, Note_off_c, 4, 64, 127
2, 13540, Note_off_c, 10, 69, 127
2, 13540, Note_off_c, 0, 48, 127
2, 13542, Note_on_c, 10, 69, 127
2, 13542, Note_on_c, 5, 65, 127
2, 13542, Note_on_c, 5, 53, 127
2, 13770, Note_off_c, 10, 69, 127
2, 13772, Note_on_c, 7, 67, 127
2, 13998, Note_off_c, 5, 65, 127
2, 14000, Note_off_c, 7, 67, 127
2, 14002, Note_on_c, 10, 69, 127
2, 14002, Note_on_c, 0, 60, 127
2, 14076, Note_off_c, 10, 69, 127
2, 14078, Note_on_c, 7, 67, 127
2, 14152, Note_off_c, 7, 67, 127
2, 14154, Note_on_c, 10, 69, 127
2, 14228, Note_off_c, 10, 69, 127
2, 14228, Note_off_c, 0, 60, 127
2, 14230, Note_on_c, 2, 62, 127
2, 14230, Note_on_c, 11, 70, 127
2, 14458, Note_off_c, 11, 70, 127
2, 14458, Note_off_c, 2, 62, 127
2, 14460, Note_on_c, 0, 60, 127
2, 14460, Note_on_c, 10, 69, 127
2, 14688, Note_off_c, 10, 69, 127
2, 14688, Note_off_c, 0, 60, 127
2, 14690, Note_on_c, 7, 67, 127
2, 14690, Note_on_c, 11, 58, 127
2, 14918, Note_off_c, 11, 58, 127
2, 14918, Note_off_c, 7, 67, 127
2, 14920, Note_on_c, 10, 69, 127
2, 14920, Note_on_c, 0, 60, 127
2, 14994, Note_off_c, 10, 69, 127
2, 14996, Note_on_c, 7, 67, 127
2, 15070, Note_off_c, 7, 67, 127
2, 15072, Note_on_c, 10, 69, 127
2, 15146, Note_off_c, 10, 69, 127
2, 15146, Note_off_c, 0, 60, 127
2, 15148, Note_on_c, 2, 62, 127
2, 15148, Note_on_c, 11, 70, 127
2, 15376, Note_off_c, 11, 70, 127
2, 15376, Note_off_c, 2, 62, 127
2, 15376, Note_off_c, 5, 53, 127
2, 15378, Note_on_c, 0, 60, 127
2, 15378, Note_on_c, 10, 69, 127
2, 15378, Note_on_c, 10, 45, 127
2, 15836, Note_off_c, 10, 45, 127
2, 15836, Note_off_c, 10, 69, 127
2, 15836, Note_off_c, 0, 60, 127
2, 15838, Note_on_c, 10, 69, 127
2, 15838, Note_on_c, 11, 58, 127
2, 15838, Note_on_c, 11, 46, 127
2, 15896, Note_off_c, 10, 69, 127
2, 15896, Note_on_c, 7, 67, 127
2, 15954, Note_off_c, 7, 67, 127
2, 15954, Note_on_c, 10, 69, 127
2, 16012, Note_off_c, 10, 69, 127
2, 16012, Note_on_c, 7, 67, 127
2, 16067, Note_off_c, 11, 58, 127
2, 16067, Note_on_c, 5, 65, 127
2, 16069, Note_off_c, 7, 67, 127
2, 16069, Note_on_c, 10, 57, 127
2, 16295, Note_off_c, 5, 65, 127
2, 16297, Note_off_c, 10, 57, 127
2, 16297, Note_off_c, 11, 46, 127
2, 16299, Note_on_c, 5, 65, 127
2, 16299, Note_on_c, 7, 55, 127
2, 16299, Note_on_c, 0, 48, 127
2, 16527, Note_off_c, 5, 65, 127
2, 16529, Note_on_c, 4, 64, 127
2, 16587, Note_on_c, 5, 65, 127
2, 16589, Note_off_c, 4, 64, 127
2, 16649, Note_off_c, 5, 65, 127
2, 16654, Note_on_c, 4, 64, 127
2, 16757, Note_off_c, 0, 48, 127
2, 16757, Note_off_c, 7, 55, 127
2, 16759, Note_on_c, 5, 65, 127
2, 16759, Note_on_c, 10, 57, 127
2, 16759, Note_on_c, 0, 36, 127
2, 16766, Note_off_c, 4, 64, 127
2, 16987, Note_off_c, 10, 57, 127
2, 16987, Note_off_c, 5, 65, 127
2, 16989, Note_on_c, 7, 67, 127
2, 16989, Note_on_c, 11, 58, 127
2, 17217, Note_off_c, 11, 58, 127
2, 17217, Note_off_c, 7, 67, 127
2, 17217, Note_off_c, 0, 36, 127
2, 17219, Note_on_c, 5, 65, 127
2, 17219, Note_on_c, 10, 57, 127
2, 17219, Note_on_c, 5, 41, 127
2, 17447, Note_off_c, 5, 65, 127
2, 17449, Note_on_c, 0, 60, 127
2, 17677, Note_off_c, 0, 60, 127
2, 17679, Note_on_c, 0, 60, 127
2, 18130, Note_off_c, 10, 57, 127
2, 18137, Note_off_c, 5, 41, 127
2, 18139, Note_on_c, 5, 53, 127
2, 18350, Note_off_c, 0, 60, 127
2, 18367, Note_off_c, 5, 53, 127
2, 18369, Note_on_c, 4, 52, 127
2, 18597, Note_off_c, 4, 52, 127
2, 18599, Note_on_c, 10, 57, 127
2, 18599, Note_on_c, 5, 65, 127
2, 18599, Note_on_c, 2, 50, 127
2, 18657, Note_on_c, 4, 64, 127
2, 18674, Note_off_c, 5, 65, 127
2, 18715, Note_off_c, 4, 64, 127
2, 18715, Note_on_c, 5, 65, 127
2, 18828, Note_off_c, 10, 57, 127
2, 18830, Note_off_c, 5, 65, 127
2, 18830, Note_on_c, 7, 67, 127
2, 18830, Note_on_c, 11, 58, 127
2, 19058, Note_off_c, 11, 58, 127
2, 19058, Note_off_c, 7, 67, 127
2, 19058, Note_off_c, 2, 50, 127
2, 19060, Note_on_c, 0, 60, 127
2, 19060, Note_on_c, 7, 67, 127
2, 19060, Note_on_c, 10, 45, 127
2, 19288, Note_off_c, 7, 67, 127
2, 19290, Note_on_c, 10, 69, 127
2, 19516, Note_off_c, 0, 60, 127
2, 19518, Note_off_c, 10, 69, 127
2, 19518, Note_off_c, 10, 45, 127
2, 19520, Note_on_c, 7, 67, 127
2, 19520, Note_on_c, 11, 58, 127
2, 19520, Note_on_c, 11, 46, 127
2, 19594, Note_off_c, 7, 67, 127
2, 19596, Note_on_c, 10, 69, 127
2, 19670, Note_off_c, 10, 69, 127
2, 19672, Note_on_c, 7, 67, 127
2, 19746, Note_off_c, 7, 67, 127
2, 19746, Note_off_c, 11, 58, 127
2, 19748, Note_on_c, 5, 65, 127
2, 19748, Note_on_c, 10, 57, 127
2, 19976, Note_off_c, 10, 57, 127
2, 19976, Note_off_c, 5, 65, 127
2, 19976, Note_off_c, 11, 46, 127
2, 19978, Note_on_c, 5, 65, 127
2, 19978, Note_on_c, 7, 55, 127
2, 19978, Note_on_c, 0, 48, 127
2, 20129, Note_off_c, 5, 65, 127
2, 20131, Note_on_c, 4, 64, 127
2, 20205, Note_off_c, 4, 64, 127
2, 20207, Note_on_c, 5, 65, 127
2, 20281, Note_off_c, 5, 65, 127
2, 20283, Note_on_c, 4, 64, 127
2, 20432, Note_off_c, 7, 55, 127
2, 20437, Note_on_c, 10, 57, 127
2, 20648, Note_off_c, 4, 64, 127
2, 20665, Note_off_c, 10, 57, 127
2, 20667, Note_on_c, 5, 65, 127
2, 20667, Note_on_c, 11, 58, 127
2, 20895, Note_off_c, 11, 58, 127
2, 20895, Note_off_c, 5, 65, 127
2, 20895, Note_off_c, 0, 48, 127
2, 20897, Note_on_c, 5, 65, 127
2, 20897, Note_on_c, 10, 57, 127
2, 20897, Note_on_c, 5, 41, 127
2, 22049, Note_off_c, 5, 41, 127
2, 22049, Note_off_c, 10, 57, 127
2, 22049, Note_off_c, 5, 65, 127
2, 22279, Note_on_c, 11, 70, 127
2, 22279, Note_on_c, 5, 65, 127
2, 22392, Note_off_c, 11, 70, 127
2, 22394, Note_on_c, 10, 69, 127
2, 22507, Note_off_c, 10, 69, 127
2, 22509, Note_on_c, 11, 70, 127
2, 22509, Note_on_c, 7, 67, 127
2, 22737, Note_off_c, 7, 67, 127
2, 22737, Note_off_c, 11, 70, 127
2, 22737, Note_off_c, 5, 65, 127
2, 22739, Note_on_c, 10, 69, 127
2, 22739, Note_on_c, 0, 72, 127
2, 22739, Note_on_c, 5, 65, 127
2, 23197, Note_off_c, 5, 65, 127
2, 23197, Note_off_c, 0, 72, 127
2, 23199, Note_on_c, 5, 77, 127
2, 23199, Note_on_c, 2, 62, 127
2, 23427, Note_off_c, 5, 77, 127
2, 23429, Note_on_c, 3, 75, 127
2, 23650, Note_off_c, 10, 69, 127
2, 23657, Note_off_c, 3, 75, 127
2, 23657, Note_off_c, 2, 62, 127
2, 23659, Note_on_c, 2, 74, 127
2, 23659, Note_on_c, 12, 71, 127
2, 23659, Note_on_c, 7, 67, 127
2, 23887, Note_off_c, 2, 74, 127
2, 23889, Note_on_c, 0, 72, 127
2, 24117, Note_off_c, 0, 72, 127
2, 24117, Note_off_c, 7, 67, 127
2, 24119, Note_on_c, 2, 74, 127
2, 24119, Note_on_c, 7, 55, 127
2, 24347, Note_off_c, 2, 74, 127
2, 24349, Note_on_c, 3, 75, 127
2, 24570, Note_off_c, 12, 71, 127
2, 24577, Note_off_c, 3, 75, 127
2, 24577, Note_off_c, 7, 55, 127
2, 24579, Note_on_c, 7, 67, 127
2, 24579, Note_on_c, 3, 75, 127
2, 24579, Note_on_c, 0, 60, 127
2, 24807, Note_off_c, 3, 75, 127
2, 24809, Note_on_c, 0, 72, 127
2, 25035, Note_off_c, 7, 67, 127
2, 25037, Note_off_c, 0, 72, 127
2, 25039, Note_on_c, 0, 72, 127
2, 25039, Note_on_c, 3, 63, 127
2, 25497, Note_off_c, 3, 63, 127
2, 25497, Note_off_c, 0, 72, 127
2, 25497, Note_off_c, 0, 60, 127
2, 25499, Note_on_c, 0, 60, 127
2, 25499, Note_on_c, 10, 57, 127
2, 25960, Note_on_c, 5, 77, 127
2, 26188, Note_off_c, 5, 77, 127
2, 26190, Note_on_c, 3, 75, 127
2, 26411, Note_off_c, 0, 60, 127
2, 26418, Note_off_c, 3, 75, 127
2, 26418, Note_off_c, 10, 57, 127
2, 26420, Note_on_c, 3, 75, 127
2, 26420, Note_on_c, 7, 55, 127
2, 26420, Note_on_c, 11, 58, 127
2, 26756, Note_off_c, 3, 75, 127
2, 26878, Note_off_c, 11, 58, 127
2, 26878, Note_off_c, 7, 55, 127
2, 26880, Note_on_c, 5, 77, 127
2, 26880, Note_on_c, 0, 60, 127
2, 26880, Note_on_c, 10, 57, 127
2, 27108, Note_off_c, 5, 77, 127
2, 27110, Note_on_c, 4, 76, 127
2, 27338, Note_off_c, 4, 76, 127
2, 27338, Note_off_c, 10, 57, 127
2, 27338, Note_off_c, 0, 60, 127
2, 27340, Note_on_c, 4, 76, 127
2, 27340, Note_on_c, 7, 55, 127
2, 27340, Note_on_c, 11, 58, 127
2, 27676, Note_off_c, 4, 76, 127
2, 27798, Note_off_c, 11, 58, 127
2, 27798, Note_off_c, 7, 55, 127
2, 27800, Note_on_c, 3, 75, 127
2, 27800, Note_on_c, 10, 57, 127
2, 27800, Note_on_c, 0, 60, 127
2, 28028, Note_off_c, 3, 75, 127
2, 28030, Note_on_c, 2, 74, 127
2, 28258, Note_off_c, 2, 74, 127
2, 28258, Note_off_c, 0, 60, 127
2, 28258, Note_off_c, 10, 57, 127
2, 28260, Note_on_c, 2, 74, 127
2, 28260, Note_on_c, 11, 58, 127
2, 28718, Note_off_c, 11, 58, 127
2, 28718, Note_off_c, 2, 74, 127
2, 28720, Note_on_c, 3, 75, 127
2, 28720, Note_on_c, 7, 55, 127
2, 28720, Note_on_c, 11, 58, 127
2, 28948, Note_off_c, 3, 75, 127
2, 28950, Note_on_c, 2, 74, 127
2, 29178, Note_off_c, 2, 74, 127
2, 29178, Note_off_c, 11, 58, 127
2, 29178, Note_off_c, 7, 55, 127
2, 29180, Note_on_c, 2, 74, 127
2, 29180, Note_on_c, 5, 53, 127
2, 29180, Note_on_c, 10, 57, 127
2, 29638, Note_off_c, 10, 57, 127
2, 29638, Note_off_c, 5, 53, 127
2, 29638, Note_off_c, 2, 74, 127
2, 29640, Note_on_c, 2, 74, 127
2, 29640, Note_on_c, 3, 51, 127
2, 29640, Note_on_c, 7, 55, 127
2, 29714, Note_off_c, 2, 74, 127
2, 29716, Note_on_c, 0, 72, 127
2, 29790, Note_off_c, 0, 72, 127
2, 29792, Note_on_c, 2, 74, 127
2, 29866, Note_off_c, 2, 74, 127
2, 29868, Note_on_c, 0, 72, 127
2, 29942, Note_off_c, 0, 72, 127
2, 29944, Note_on_c, 11, 70, 127
2, 30095, Note_off_c, 11, 70, 127
2, 30095, Note_off_c, 7, 55, 127
2, 30095, Note_off_c, 3, 51, 127
2, 30097, Note_on_c, 11, 70, 127
2, 30097, Note_on_c, 2, 50, 127
2, 30097, Note_on_c, 5, 53, 127
2, 30555, Note_off_c, 5, 53, 127
2, 30555, Note_off_c, 2, 50, 127
2, 30555, Note_off_c, 11, 70, 127
2, 30557, Note_on_c, 7, 79, 127
2, 30557, Note_on_c, 3, 51, 127
2, 30557, Note_on_c, 7, 55, 127
2, 30785, Note_off_c, 7, 79, 127
2, 30787, Note_on_c, 11, 70, 127
2, 31015, Note_off_c, 11, 70, 127
2, 31015, Note_off_c, 7, 55, 127
2, 31015, Note_off_c, 3, 51, 127
2, 31017, Note_on_c, 0, 72, 127
2, 31017, Note_on_c, 5, 53, 127
2, 31091, Note_off_c, 0, 72, 127
2, 31093, Note_on_c, 2, 74, 127
2, 31167, Note_off_c, 2, 74, 127
2, 31169, Note_on_c, 3, 75, 127
2, 31243, Note_off_c, 3, 75, 127
2, 31245, Note_on_c, 2, 74, 127
2, 31473, Note_off_c, 2, 74, 127
2, 31475, Note_on_c, 0, 72, 127
2, 31475, Note_on_c, 5, 41, 127
2, 31703, Note_off_c, 0, 72, 127
2, 31705, Note_on_c, 11, 70, 127
2, 31933, Note_off_c, 11, 70, 127
2, 31933, Note_off_c, 5, 41, 127
2, 31935, Note_on_c, 11, 70, 127
2, 31935, Note_on_c, 11, 46, 127
2, 31935, Note_on_c, 2, 50, 127
2, 32379, Note_off_c, 11, 70, 127
2, 32396, Note_on_c, 2, 74, 127
2, 32624, Note_off_c, 2, 74, 127
2, 32626, Note_on_c, 11, 70, 127
2, 32854, Note_off_c, 11, 70, 127
2, 32854, Note_off_c, 5, 53, 127
2, 32856, Note_on_c, 11, 70, 127
2, 32914, Note_on_c, 10, 69, 127
2, 32931, Note_off_c, 11, 70, 127
2, 32967, Note_off_c, 10, 69, 127
2, 32972, Note_on_c, 11, 70, 127
2, 33087, Note_off_c, 2, 50, 127
2, 33087, Note_off_c, 11, 46, 127
2, 33317, Note_on_c, 2, 74, 127
2, 33317, Note_on_c, 11, 58, 127
2, 33319, Note_off_c, 11, 70, 127
2, 33545, Note_off_c, 11, 58, 127
2, 33545, Note_off_c, 2, 74, 127
2, 33547, Note_on_c, 11, 70, 127
2, 33547, Note_on_c, 7, 55, 127
2, 33775, Note_off_c, 7, 55, 127
2, 33775, Note_off_c, 11, 70, 127
2, 33777, Note_on_c, 0, 72, 127
2, 33777, Note_on_c, 10, 57, 127
2, 33851, Note_off_c, 10, 57, 127
2, 33851, Note_off_c, 0, 72, 127
2, 33853, Note_on_c, 11, 70, 127
2, 33853, Note_on_c, 7, 55, 127
2, 33927, Note_off_c, 7, 55, 127
2, 33927, Note_off_c, 11, 70, 127
2, 33929, Note_on_c, 0, 72, 127
2, 33929, Note_on_c, 10, 57, 127
2, 34003, Note_off_c, 10, 57, 127
2, 34003, Note_off_c, 0, 72, 127
2, 34005, Note_on_c, 11, 70, 127
2, 34005, Note_on_c, 7, 55, 127
2, 34221, Note_off_c, 7, 55, 127
2, 34221, Note_off_c, 11, 70, 127
2, 34235, Note_on_c, 3, 75, 127
2, 34463, Note_off_c, 3, 75, 127
2, 34465, Note_on_c, 0, 72, 127
2, 34693, Note_off_c, 0, 72, 127
2, 34695, Note_on_c, 0, 72, 127
2, 34753, Note_on_c, 11, 70, 127
2, 34770, Note_off_c, 0, 72, 127
2, 34808, Note_off_c, 11, 70, 127
2, 34810, Note_on_c, 0, 72, 127
2, 35156, Note_off_c, 0, 72, 127
2, 35156, Note_on_c, 3, 75, 127
2, 35156, Note_on_c, 0, 60, 127
2, 35384, Note_off_c, 0, 60, 127
2, 35384, Note_off_c, 3, 75, 127
2, 35386, Note_on_c, 0, 72, 127
2, 35386, Note_on_c, 10, 57, 127
2, 35614, Note_off_c, 10, 57, 127
2, 35614, Note_off_c, 0, 72, 127
2, 35616, Note_on_c, 2, 74, 127
2, 35616, Note_on_c, 11, 58, 127
2, 35690, Note_off_c, 11, 58, 127
2, 35690, Note_off_c, 2, 74, 127
2, 35692, Note_on_c, 0, 72, 127
2, 35692, Note_on_c, 10, 57, 127
2, 35766, Note_off_c, 10, 57, 127
2, 35766, Note_off_c, 0, 72, 127
2, 35768, Note_on_c, 2, 74, 127
2, 35768, Note_on_c, 11, 58, 127
2, 35842, Note_off_c, 11, 58, 127
2, 35842, Note_off_c, 2, 74, 127
2, 35844, Note_on_c, 0, 72, 127
2, 35844, Note_on_c, 10, 57, 127
2, 36060, Note_off_c, 10, 57, 127
2, 36060, Note_off_c, 0, 72, 127
2, 36074, Note_on_c, 5, 77, 127
2, 36302, Note_off_c, 5, 77, 127
2, 36304, Note_on_c, 2, 74, 127
2, 36532, Note_off_c, 2, 74, 127
2, 36534, Note_on_c, 2, 74, 127
2, 36592, Note_on_c, 0, 72, 127
2, 36609, Note_off_c, 2, 74, 127
2, 36645, Note_off_c, 0, 72, 127
2, 36650, Note_on_c, 2, 74, 127
2, 36996, Note_off_c, 2, 74, 127
2, 36996, Note_on_c, 5, 77, 127
2, 36996, Note_on_c, 2, 62, 127
2, 37224, Note_off_c, 2, 62, 127
2, 37224, Note_off_c, 5, 77, 127
2, 37226, Note_on_c, 2, 74, 127
2, 37226, Note_on_c, 11, 58, 127
2, 37454, Note_off_c, 11, 58, 127
2, 37454, Note_off_c, 2, 74, 127
2, 37456, Note_on_c, 2, 74, 127
2, 37456, Note_on_c, 11, 58, 127
2, 37912, Note_off_c, 2, 74, 127
2, 37914, Note_off_c, 11, 58, 127
2, 37916, Note_on_c, 3, 75, 127
2, 37916, Note_on_c, 7, 55, 127
2, 38144, Note_off_c, 7, 55, 127
2, 38144, Note_off_c, 3, 75, 127
2, 38146, Note_on_c, 0, 72, 127
2, 38146, Note_on_c, 3, 51, 127
2, 38374, Note_off_c, 3, 51, 127
2, 38374, Note_off_c, 0, 72, 127
2, 38376, Note_on_c, 2, 74, 127
2, 38376, Note_on_c, 5, 53, 127
2, 38450, Note_off_c, 2, 74, 127
2, 38452, Note_on_c, 0, 72, 127
2, 38526, Note_off_c, 0, 72, 127
2, 38528, Note_on_c, 2, 74, 127
2, 38816, Note_off_c, 2, 74, 127
2, 38833, Note_off_c, 5, 53, 127
2, 38835, Note_on_c, 0, 72, 127
2, 38835, Note_on_c, 5, 41, 127
2, 38909, Note_off_c, 0, 72, 127
2, 38911, Note_on_c, 2, 74, 127
2, 38985, Note_off_c, 2, 74, 127
2, 38987, Note_on_c, 0, 72, 127
2, 39061, Note_off_c, 0, 72, 127
2, 39063, Note_on_c, 11, 70, 127
2, 39291, Note_off_c, 11, 70, 127
2, 39291, Note_off_c, 5, 41, 127
2, 39293, Note_on_c, 11, 70, 127
2, 39293, Note_on_c, 11, 46, 127
2, 39751, Note_off_c, 11, 46, 127
2, 39753, Note_on_c, 5, 53, 127
2, 39981, Note_off_c, 5, 53, 127
2, 39983, Note_on_c, 2, 50, 127
2, 40211, Note_off_c, 2, 50, 127
2, 40213, Note_on_c, 2, 50, 127
2, 40443, Note_off_c, 11, 70, 127
2, 40671, Note_off_c, 2, 50, 127
2, 40673, Note_on_c, 11, 58, 127
2, 40901, Note_off_c, 11, 58, 127
2, 40903, Note_on_c, 5, 53, 127
2, 41131, Note_off_c, 5, 53, 127
2, 41133, Note_on_c, 5, 53, 127
2, 41591, Note_off_c, 5, 53, 127
2, 41593, Note_on_c, 11, 70, 127
2, 41593, Note_on_c, 2, 62, 127
2, 41821, Note_off_c, 2, 62, 127
2, 41821, Note_off_c, 11, 70, 127
2, 41823, Note_on_c, 5, 65, 127
2, 41823, Note_on_c, 11, 58, 127
2, 42051, Note_off_c, 11, 58, 127
2, 42051, Note_off_c, 5, 65, 127
2, 42053, Note_on_c, 5, 65, 127
2, 42053, Note_on_c, 11, 58, 127
2, 42511, Note_off_c, 5, 65, 127
2, 42513, Note_on_c, 5, 65, 127
2, 42513, Note_on_c, 2, 74, 127
2, 42741, Note_off_c, 2, 74, 127
2, 42741, Note_off_c, 5, 65, 127
2, 42743, Note_on_c, 2, 62, 127
2, 42743, Note_on_c, 11, 70, 127
2, 42964, Note_off_c, 11, 58, 127
2, 42971, Note_off_c, 11, 70, 127
2, 42971, Note_off_c, 2, 62, 127
2, 42973, Note_on_c, 2, 62, 127
2, 42973, Note_on_c, 11, 70, 127
2, 43201, Note_off_c, 11, 70, 127
2, 43201, Note_off_c, 2, 62, 127
2, 43203, Note_on_c, 10, 69, 127
2, 43203, Note_on_c, 0, 60, 127
2, 43431, Note_off_c, 0, 60, 127
2, 43431, Note_off_c, 10, 69, 127
2, 43433, Note_on_c, 11, 70, 127
2, 43433, Note_on_c, 2, 62, 127
2, 43433, Note_on_c, 3, 51, 127
2, 43661, Note_off_c, 2, 62, 127
2, 43661, Note_off_c, 11, 70, 127
2, 43663, Note_on_c, 3, 63, 127
2, 43663, Note_on_c, 0, 72, 127
2, 43891, Note_off_c, 0, 72, 127
2, 43891, Note_off_c, 3, 63, 127
2, 43891, Note_off_c, 3, 51, 127
2, 43893, Note_on_c, 0, 60, 127
2, 43893, Note_on_c, 11, 70, 127
2, 43893, Note_on_c, 5, 53, 127
2, 43946, Note_off_c, 11, 70, 127
2, 43951, Note_on_c, 10, 69, 127
2, 44004, Note_off_c, 10, 69, 127
2, 44009, Note_on_c, 11, 70, 127
2, 44062, Note_off_c, 11, 70, 127
2, 44067, Note_on_c, 10, 69, 127
2, 44336, Note_off_c, 10, 69, 127
2, 44353, Note_off_c, 0, 60, 127
2, 44355, Note_on_c, 5, 65, 127
2, 44355, Note_on_c, 2, 74, 127
2, 44583, Note_off_c, 2, 74, 127
2, 44583, Note_off_c, 5, 65, 127
2, 44585, Note_on_c, 2, 62, 127
2, 44585, Note_on_c, 11, 70, 127
2, 44813, Note_off_c, 11, 70, 127
2, 44813, Note_off_c, 2, 62, 127
2, 44813, Note_off_c, 5, 53, 127
2, 44815, Note_on_c, 11, 70, 127
2, 44815, Note_on_c, 2, 62, 127
2, 44815, Note_on_c, 7, 55, 127
2, 45043, Note_off_c, 2, 62, 127
2, 45043, Note_off_c, 11, 70, 127
2, 45045, Note_on_c, 10, 69, 127
2, 45045, Note_on_c, 0, 60, 127
2, 45273, Note_off_c, 0, 60, 127
2, 45273, Note_off_c, 10, 69, 127
2, 45273, Note_off_c, 7, 55, 127
2, 45275, Note_on_c, 11, 70, 127
2, 45275, Note_on_c, 2, 62, 127
2, 45275, Note_on_c, 3, 51, 127
2, 45503, Note_off_c, 2, 62, 127
2, 45503, Note_off_c, 11, 70, 127
2, 45505, Note_on_c, 0, 72, 127
2, 45505, Note_on_c, 3, 63, 127
2, 45733, Note_off_c, 3, 63, 127
2, 45733, Note_off_c, 0, 72, 127
2, 45733, Note_off_c, 3, 51, 127
2, 45735, Note_on_c, 11, 70, 127
2, 45735, Note_on_c, 0, 60, 127
2, 45735, Note_on_c, 5, 53, 127
2, 45805, Note_on_c, 10, 69, 127
2, 45810, Note_off_c, 11, 70, 127
2, 45875, Note_on_c, 11, 70, 127
2, 45880, Note_off_c, 10, 69, 127
2, 45940, Note_on_c, 10, 69, 127
2, 45950, Note_off_c, 11, 70, 127
2, 46178, Note_off_c, 10, 69, 127
2, 46195, Note_off_c, 0, 60, 127
2, 46197, Note_on_c, 3, 63, 127
2, 46197, Note_on_c, 0, 72, 127
2, 46425, Note_off_c, 0, 72, 127
2, 46425, Note_off_c, 3, 63, 127
2, 46427, Note_on_c, 11, 70, 127
2, 46427, Note_on_c, 2, 62, 127
2, 46435, Note_off_c, 5, 53, 127
2, 46655, Note_off_c, 2, 62, 127
2, 46655, Note_off_c, 11, 70, 127
2, 46657, Note_on_c, 11, 70, 127
2, 46657, Note_on_c, 2, 62, 127
2, 46657, Note_on_c, 11, 46, 127
2, 47115, Note_off_c, 2, 62, 127
2, 47115, Note_off_c, 11, 70, 127
2, 47117, Note_on_c, 0, 72, 127
2, 47117, Note_on_c, 3, 63, 127
2, 47328, Note_off_c, 11, 46, 127
2, 47345, Note_off_c, 3, 63, 127
2, 47345, Note_off_c, 0, 72, 127
2, 47347, Note_on_c, 11, 70, 127
2, 47347, Note_on_c, 2, 62, 127
2, 47575, Note_off_c, 2, 62, 127
2, 47575, Note_off_c, 11, 70, 127
2, 47577, Note_on_c, 2, 62, 127
2, 47577, Note_on_c, 11, 70, 127
2, 47577, Note_on_c, 10, 45, 127
2, 48035, Note_off_c, 11, 70, 127
2, 48035, Note_off_c, 2, 62, 127
2, 48037, Note_on_c, 3, 63, 127
2, 48037, Note_on_c, 0, 72, 127
2, 48248, Note_off_c, 10, 45, 127
2, 48265, Note_off_c, 0, 72, 127
2, 48265, Note_off_c, 3, 63, 127
2, 48267, Note_on_c, 11, 70, 127
2, 48267, Note_on_c, 2, 62, 127
2, 48495, Note_off_c, 2, 62, 127
2, 48495, Note_off_c, 11, 70, 127
2, 48497, Note_on_c, 2, 62, 127
2, 48497, Note_on_c, 11, 70, 127
2, 48497, Note_on_c, 7, 43, 127
2, 48955, Note_off_c, 11, 70, 127
2, 48955, Note_off_c, 2, 62, 127
2, 48957, Note_on_c, 3, 63, 127
2, 48957, Note_on_c, 0, 72, 127
2, 49168, Note_off_c, 7, 43, 127
2, 49185, Note_off_c, 0, 72, 127
2, 49185, Note_off_c, 3, 63, 127
2, 49187, Note_on_c, 11, 70, 127
2, 49187, Note_on_c, 2, 62, 127
2, 49415, Note_off_c, 2, 62, 127
2, 49415, Note_off_c, 11, 70, 127
2, 49417, Note_on_c, 2, 62, 127
2, 49417, Note_on_c, 11, 70, 127
2, 49417, Note_on_c, 5, 41, 127
2, 49875, Note_off_c, 11, 70, 127
2, 49875, Note_off_c, 2, 62, 127
2, 49877, Note_on_c, 3, 63, 127
2, 49877, Note_on_c, 0, 72, 127
2, 50088, Note_off_c, 5, 41, 127
2, 50105, Note_off_c, 0, 72, 127
2, 50105, Note_off_c, 3, 63, 127
2, 50107, Note_on_c, 11, 70, 127
2, 50107, Note_on_c, 2, 62, 127
2, 50335, Note_off_c, 2, 62, 127
2, 50335, Note_off_c, 11, 70, 127
2, 50337, Note_on_c, 2, 62, 127
2, 50337, Note_on_c, 11, 70, 127
2, 50337, Note_on_c, 3, 39, 127
2, 50795, Note_off_c, 11, 70, 127
2, 50795, Note_off_c, 2, 62, 127
2, 50797, Note_on_c, 0, 72, 127
2, 50797, Note_on_c, 3, 63, 127
2, 51008, Note_off_c, 3, 39, 127
2, 51025, Note_off_c, 3, 63, 127
2, 51025, Note_off_c, 0, 72, 127
2, 51027, Note_on_c, 11, 70, 127
2, 51027, Note_on_c, 2, 62, 127
2, 51255, Note_off_c, 2, 62, 127
2, 51255, Note_off_c, 11, 70, 127
2, 51257, Note_on_c, 10, 69, 127
2, 51257, Note_on_c, 0, 60, 127
2, 51257, Note_on_c, 5, 41, 127
2, 51718, Note_on_c, 5, 53, 127
2, 51946, Note_off_c, 5, 53, 127
2, 51948, Note_on_c, 3, 51, 127
2, 52169, Note_off_c, 0, 60, 127
2, 52169, Note_off_c, 10, 69, 127
2, 52176, Note_off_c, 3, 51, 127
2, 52178, Note_on_c, 5, 53, 127
2, 52245, Note_on_c, 3, 51, 127
2, 52252, Note_off_c, 5, 53, 127
2, 52312, Note_on_c, 5, 53, 127
2, 52319, Note_off_c, 3, 51, 127
2, 52379, Note_on_c, 3, 51, 127
2, 52386, Note_off_c, 5, 53, 127
2, 52624, Note_off_c, 3, 51, 127
2, 52638, Note_on_c, 5, 65, 127
2, 52638, Note_on_c, 2, 50, 127
2, 52866, Note_off_c, 2, 50, 127
2, 52866, Note_off_c, 5, 65, 127
2, 52868, Note_on_c, 3, 63, 127
2, 52868, Note_on_c, 0, 48, 127
2, 53096, Note_off_c, 0, 48, 127
2, 53096, Note_off_c, 3, 63, 127
2, 53098, Note_on_c, 5, 65, 127
2, 53098, Note_on_c, 2, 50, 127
2, 53172, Note_off_c, 2, 50, 127
2, 53172, Note_off_c, 5, 65, 127
2, 53174, Note_on_c, 3, 63, 127
2, 53174, Note_on_c, 0, 48, 127
2, 53248, Note_off_c, 0, 48, 127
2, 53248, Note_off_c, 3, 63, 127
2, 53250, Note_on_c, 5, 65, 127
2, 53250, Note_on_c, 2, 50, 127
2, 53324, Note_off_c, 2, 50, 127
2, 53324, Note_off_c, 5, 65, 127
2, 53326, Note_on_c, 3, 63, 127
2, 53326, Note_on_c, 0, 48, 127
2, 53542, Note_off_c, 0, 48, 127
2, 53542, Note_off_c, 3, 63, 127
2, 53556, Note_on_c, 2, 62, 127
2, 53556, Note_on_c, 11, 70, 127
2, 53556, Note_on_c, 11, 46, 127
2, 53784, Note_off_c, 11, 70, 127
2, 53784, Note_off_c, 2, 62, 127
2, 53786, Note_on_c, 10, 69, 127
2, 53786, Note_on_c, 0, 60, 127
2, 54014, Note_off_c, 0, 60, 127
2, 54014, Note_off_c, 10, 69, 127
2, 54016, Note_on_c, 11, 70, 127
2, 54016, Note_on_c, 2, 62, 127
2, 54244, Note_off_c, 2, 62, 127
2, 54244, Note_off_c, 11, 46, 127
2, 54246, Note_on_c, 5, 65, 127
2, 54246, Note_on_c, 2, 50, 127
2, 54474, Note_off_c, 2, 50, 127
2, 54474, Note_off_c, 5, 65, 127
2, 54476, Note_on_c, 3, 63, 127
2, 54476, Note_on_c, 0, 48, 127
2, 54550, Note_off_c, 0, 48, 127
2, 54550, Note_off_c, 3, 63, 127
2, 54552, Note_on_c, 5, 65, 127
2, 54552, Note_on_c, 2, 50, 127
2, 54626, Note_off_c, 2, 50, 127
2, 54626, Note_off_c, 5, 65, 127
2, 54628, Note_on_c, 3, 63, 127
2, 54628, Note_on_c, 0, 48, 127
2, 54702, Note_off_c, 0, 48, 127
2, 54702, Note_off_c, 3, 63, 127
2, 54704, Note_on_c, 2, 62, 127
2, 54704, Note_on_c, 11, 46, 127
2, 54932, Note_off_c, 11, 46, 127
2, 54932, Note_off_c, 2, 62, 127
2, 54934, Note_on_c, 2, 62, 127
2, 54934, Note_on_c, 5, 53, 127
2, 55392, Note_off_c, 5, 53, 127
2, 55392, Note_off_c, 2, 62, 127
2, 55392, Note_off_c, 11, 70, 127
2, 55394, Note_on_c, 10, 69, 127
2, 55394, Note_on_c, 0, 60, 127
2, 55394, Note_on_c, 3, 51, 127
2, 55622, Note_off_c, 0, 60, 127
2, 55624, Note_on_c, 11, 58, 127
2, 55850, Note_off_c, 10, 69, 127
2, 55852, Note_off_c, 11, 58, 127
2, 55852, Note_off_c, 3, 51, 127
2, 55854, Note_off_c, 5, 41, 127
2, 55854, Note_on_c, 11, 70, 127
2, 55854, Note_on_c, 11, 58, 127
2, 55854, Note_on_c, 2, 50, 127
2, 55854, Note_on_c, 11, 46, 127
2, 56312, Note_off_c, 11, 58, 127
2, 56362, Note_on_c, 2, 62, 127
2, 56590, Note_off_c, 2, 62, 127
2, 56592, Note_on_c, 11, 58, 127
2, 56765, Note_off_c, 11, 46, 127
2, 56765, Note_off_c, 2, 50, 127
2, 56765, Note_off_c, 11, 70, 127
2, 56820, Note_off_c, 11, 58, 127
2, 56822, Note_on_c, 11, 58, 127
2, 56875, Note_off_c, 11, 58, 127
2, 56880, Note_on_c, 10, 57, 127
2, 56933, Note_off_c, 10, 57, 127
2, 56938, Note_on_c, 11, 58, 127
2, 57226, Note_off_c, 11, 58, 127
2, 57284, Note_on_c, 5, 65, 127
2, 57512, Note_off_c, 5, 65, 127
2, 57514, Note_on_c, 2, 62, 127
2, 57742, Note_off_c, 2, 62, 127
2, 57744, Note_on_c, 3, 63, 127
2, 57802, Note_on_c, 2, 62, 127
2, 57819, Note_off_c, 3, 63, 127
2, 57860, Note_on_c, 3, 63, 127
2, 57877, Note_off_c, 2, 62, 127
2, 57918, Note_on_c, 2, 62, 127
2, 57935, Note_off_c, 3, 63, 127
2, 58134, Note_off_c, 2, 62, 127
2, 58206, Note_on_c, 11, 70, 127
2, 58434, Note_off_c, 11, 70, 127
2, 58436, Note_on_c, 5, 65, 127
2, 58664, Note_off_c, 5, 65, 127
2, 58666, Note_on_c, 5, 65, 127
2, 59124, Note_off_c, 5, 65, 127
2, 59126, Note_on_c, 5, 77, 127
2, 59126, Note_on_c, 2, 74, 127
2, 59354, Note_off_c, 2, 74, 127
2, 59354, Note_off_c, 5, 77, 127
2, 59356, Note_on_c, 2, 74, 127
2, 59356, Note_on_c, 11, 70, 127
2, 59584, Note_off_c, 11, 70, 127
2, 59584, Note_off_c, 2, 74, 127
2, 59586, Note_on_c, 11, 46, 127
2, 59586, Note_on_c, 5, 53, 127
2, 59586, Note_on_c, 11, 58, 127
2, 59586, Note_on_c, 2, 74, 127
2, 59586, Note_on_c, 5, 65, 127
2, 59586, Note_on_c, 11, 70, 127
2, 59660, Note_off_c, 11, 70, 127
2, 59662, Note_on_c, 10, 69, 127
2, 59736, Note_off_c, 10, 69, 127
2, 59738, Note_on_c, 11, 70, 127
2, 62976, Note_off_c, 11, 70, 127
2, 62976, Note_off_c, 5, 65, 127
2, 62976, Note_off_c, 2, 74, 127
2, 62976, Note_off_c, 11, 58, 127
2, 62976, Note_off_c, 5, 53, 127
2, 62976, Note_off_c, 11, 46, 127
2, 64372, Note_on_c, 2, 74, 127
2, 64469, Note_off_c, 2, 74, 127
2, 64471, Note_on_c, 0, 72, 127
2, 64568, Note_off_c, 0, 72, 127
2, 64570, Note_on_c, 2, 74, 127
2, 64767, Note_off_c, 2, 74, 127
2, 64769, Note_on_c, 2, 74, 127
2, 65164, Note_off_c, 2, 74, 127
2, 65166, Note_on_c, 7, 67, 127
2, 65363, Note_off_c, 7, 67, 127
2, 65365, Note_on_c, 6, 66, 127
2, 65562, Note_off_c, 6, 66, 127
2, 65564, Note_on_c, 7, 67, 127
2, 65959, Note_off_c, 7, 67, 127
2, 65961, Note_on_c, 10, 69, 127
2, 66027, Note_on_c, 7, 67, 127
2, 66058, Note_off_c, 10, 69, 127
2, 66093, Note_on_c, 10, 69, 127
2, 66124, Note_off_c, 7, 67, 127
2, 66598, Note_off_c, 10, 69, 127
2, 66755, Note_on_c, 10, 69, 127
2, 66952, Note_off_c, 10, 69, 127
2, 66954, Note_on_c, 11, 70, 127
2, 67151, Note_off_c, 11, 70, 127
2, 67153, Note_on_c, 0, 72, 127
2, 67548, Note_off_c, 0, 72, 127
2, 67550, Note_on_c, 0, 72, 127
2, 67550, Note_on_c, 7, 67, 127
2, 67682, Note_on_c, 11, 70, 127
2, 67696, Note_off_c, 0, 72, 127
2, 67764, Note_on_c, 0, 72, 127
2, 67766, Note_off_c, 11, 70, 127
2, 67847, Note_off_c, 0, 72, 127
2, 67847, Note_on_c, 11, 70, 127
2, 67944, Note_off_c, 7, 67, 127
2, 67946, Note_on_c, 7, 67, 127
2, 68128, Note_off_c, 11, 70, 127
2, 68145, Note_on_c, 0, 72, 127
2, 68339, Note_off_c, 7, 67, 127
2, 68341, Note_off_c, 0, 72, 127
2, 68343, Note_on_c, 12, 59, 127
2, 68343, Note_on_c, 2, 74, 127
2, 68738, Note_off_c, 2, 74, 127
2, 68738, Note_off_c, 12, 59, 127
2, 68740, Note_on_c, 0, 60, 127
2, 68740, Note_on_c, 3, 75, 127
2, 69135, Note_off_c, 3, 75, 127
2, 69135, Note_off_c, 0, 60, 127
2, 69137, Note_on_c, 2, 62, 127
2, 69137, Note_on_c, 0, 72, 127
2, 69532, Note_off_c, 0, 72, 127
2, 69534, Note_on_c, 12, 71, 127
2, 69631, Note_off_c, 12, 71, 127
2, 69633, Note_on_c, 0, 72, 127
2, 69730, Note_off_c, 0, 72, 127
2, 69732, Note_on_c, 12, 71, 127
2, 69922, Note_off_c, 2, 62, 127
2, 69928, Note_off_c, 12, 71, 127
2, 69930, Note_on_c, 0, 72, 127
2, 69930, Note_on_c, 3, 63, 127
2, 69996, Note_on_c, 12, 71, 127
2, 70027, Note_off_c, 0, 72, 127
2, 70062, Note_on_c, 0, 72, 127
2, 70068, Note_off_c, 12, 71, 127
2, 70325, Note_off_c, 3, 63, 127
2, 70327, Note_off_c, 0, 72, 127
2, 70327, Note_on_c, 2, 74, 127
2, 70327, Note_on_c, 5, 65, 127
2, 70722, Note_off_c, 5, 65, 127
2, 70722, Note_off_c, 2, 74, 127
2, 70724, Note_on_c, 2, 74, 127
2, 70724, Note_on_c, 4, 64, 127
2, 70865, Note_off_c, 2, 74, 127
2, 70865, Note_on_c, 0, 72, 127
2, 70944, Note_off_c, 0, 72, 127
2, 70944, Note_on_c, 2, 74, 127
2, 71023, Note_on_c, 0, 72, 127
2, 71027, Note_off_c, 2, 74, 127
2, 71120, Note_off_c, 0, 72, 127
2, 71120, Note_off_c, 4, 64, 127
2, 71122, Note_on_c, 6, 66, 127
2, 71122, Note_on_c, 2, 74, 127
2, 71319, Note_off_c, 2, 74, 127
2, 71321, Note_on_c, 10, 69, 127
2, 71515, Note_off_c, 6, 66, 127
2, 71517, Note_off_c, 10, 69, 127
2, 71519, Note_on_c, 11, 70, 127
2, 71519, Note_on_c, 7, 67, 127
2, 71914, Note_off_c, 7, 67, 127
2, 71914, Note_off_c, 11, 70, 127
2, 71916, Note_on_c, 0, 72, 127
2, 71916, Note_on_c, 4, 64, 127
2, 72113, Note_off_c, 0, 72, 127
2, 72115, Note_on_c, 7, 67, 127
2, 72309, Note_off_c, 4, 64, 127
2, 72311, Note_off_c, 7, 67, 127
2, 72313, Note_on_c, 2, 62, 127
2, 72313, Note_on_c, 6, 66, 127
2, 72313, Note_on_c, 10, 69, 127
2, 72410, Note_off_c, 6, 66, 127
2, 72412, Note_on_c, 4, 64, 127
2, 72509, Note_off_c, 4, 64, 127
2, 72511, Note_on_c, 6, 66, 127
2, 72708, Note_off_c, 6, 66, 127
2, 72708, Note_off_c, 2, 62, 127
2, 72710, Note_on_c, 2, 62, 127
2, 72710, Note_on_c, 6, 66, 127
2, 72892, Note_off_c, 10, 69, 127
2, 72906, Note_off_c, 6, 66, 127
2, 72908, Note_on_c, 7, 67, 127
2, 73105, Note_off_c, 7, 67, 127
2, 73105, Note_off_c, 2, 62, 127
2, 73107, Note_on_c, 6, 54, 127
2, 73107, Note_on_c, 10, 69, 127
2, 73107, Note_on_c, 2, 74, 127
2, 73502, Note_off_c, 10, 69, 127
2, 73502, Note_off_c, 6, 54, 127
2, 73504, Note_on_c, 7, 55, 127
2, 73504, Note_on_c, 11, 70, 127
2, 73893, Note_off_c, 2, 74, 127
2, 73899, Note_off_c, 11, 70, 127
2, 73899, Note_off_c, 7, 55, 127
2, 73901, Note_on_c, 10, 57, 127
2, 73901, Note_on_c, 6, 66, 127
2, 74298, Note_on_c, 0, 72, 127
2, 74687, Note_off_c, 6, 66, 127
2, 74693, Note_off_c, 0, 72, 127
2, 74693, Note_off_c, 10, 57, 127
2, 74695, Note_on_c, 11, 58, 127
2, 74695, Note_on_c, 7, 67, 127
2, 74695, Note_on_c, 0, 72, 127
2, 74892, Note_off_c, 0, 72, 127
2, 74894, Note_on_c, 2, 74, 127
2, 75091, Note_off_c, 2, 74, 127
2, 75091, Note_off_c, 7, 67, 127
2, 75091, Note_off_c, 11, 58, 127
2, 75093, Note_on_c, 0, 60, 127
2, 75093, Note_on_c, 2, 74, 127
2, 75093, Note_on_c, 10, 69, 127
2, 75290, Note_off_c, 2, 74, 127
2, 75292, Note_on_c, 3, 75, 127
2, 75489, Note_off_c, 3, 75, 127
2, 75489, Note_off_c, 10, 69, 127
2, 75489, Note_off_c, 0, 60, 127
2, 75491, Note_on_c, 7, 55, 127
2, 75491, Note_on_c, 11, 58, 127
2, 75491, Note_on_c, 7, 67, 127
2, 75491, Note_on_c, 2, 74, 127
2, 75886, Note_off_c, 7, 55, 127
2, 75888, Note_on_c, 7, 55, 127
2, 76070, Note_off_c, 11, 58, 127
2, 76087, Note_on_c, 0, 60, 127
2, 76281, Note_off_c, 7, 55, 127
2, 76283, Note_off_c, 0, 60, 127
2, 76285, Note_on_c, 12, 47, 127
2, 76285, Note_on_c, 2, 62, 127
2, 76680, Note_off_c, 2, 62, 127
2, 76680, Note_off_c, 12, 47, 127
2, 76680, Note_off_c, 2, 74, 127
2, 76682, Note_on_c, 0, 48, 127
2, 76682, Note_on_c, 3, 63, 127
2, 76682, Note_on_c, 0, 72, 127
2, 77077, Note_off_c, 0, 72, 127
2, 77077, Note_off_c, 3, 63, 127
2, 77077, Note_off_c, 0, 48, 127
2, 77077, Note_off_c, 7, 67, 127
2, 77079, Note_on_c, 2, 50, 127
2, 77079, Note_on_c, 12, 59, 127
2, 77079, Note_on_c, 5, 77, 127
2, 77476, Note_on_c, 5, 65, 127
2, 77865, Note_off_c, 5, 77, 127
2, 77869, Note_off_c, 5, 65, 127
2, 77871, Note_off_c, 12, 59, 127
2, 77871, Note_off_c, 2, 50, 127
2, 77873, Note_on_c, 0, 60, 127
2, 77873, Note_on_c, 3, 51, 127
2, 77873, Note_on_c, 3, 75, 127
2, 77873, Note_on_c, 5, 65, 127
2, 78070, Note_off_c, 5, 65, 127
2, 78072, Note_on_c, 7, 67, 127
2, 78269, Note_off_c, 7, 67, 127
2, 78269, Note_off_c, 3, 75, 127
2, 78269, Note_off_c, 3, 51, 127
2, 78269, Note_off_c, 0, 60, 127
2, 78271, Note_on_c, 2, 62, 127
2, 78271, Note_on_c, 5, 53, 127
2, 78271, Note_on_c, 2, 74, 127
2, 78271, Note_on_c, 7, 67, 127
2, 78468, Note_off_c, 7, 67, 127
2, 78470, Note_on_c, 8, 68, 127
2, 78667, Note_off_c, 8, 68, 127
2, 78667, Note_off_c, 5, 53, 127
2, 78667, Note_off_c, 2, 62, 127
2, 78669, Note_on_c, 3, 63, 127
2, 78669, Note_on_c, 3, 51, 127
2, 78669, Note_on_c, 7, 67, 127
2, 79058, Note_off_c, 2, 74, 127
2, 79064, Note_off_c, 7, 67, 127
2, 79064, Note_off_c, 3, 51, 127
2, 79064, Note_off_c, 3, 63, 127
2, 79066, Note_on_c, 0, 60, 127
2, 79066, Note_on_c, 5, 53, 127
2, 79066, Note_on_c, 8, 68, 127
2, 79066, Note_on_c, 0, 72, 127
2, 79263, Note_off_c, 8, 68, 127
2, 79265, Note_on_c, 3, 63, 127
2, 79462, Note_off_c, 3, 63, 127
2, 79462, Note_off_c, 5, 53, 127
2, 79462, Note_off_c, 0, 60, 127
2, 79464, Note_on_c, 2, 50, 127
2, 79464, Note_on_c, 2, 62, 127
2, 79464, Note_on_c, 5, 65, 127
2, 79853, Note_off_c, 0, 72, 127
2, 79859, Note_off_c, 5, 65, 127
2, 79859, Note_off_c, 2, 50, 127
2, 79861, Note_on_c, 7, 55, 127
2, 79861, Note_on_c, 12, 71, 127
2, 79861, Note_on_c, 7, 67, 127
2, 80043, Note_off_c, 2, 62, 127
2, 80057, Note_off_c, 7, 67, 127
2, 80059, Note_on_c, 2, 62, 127
2, 80253, Note_off_c, 12, 71, 127
2, 80255, Note_off_c, 2, 62, 127
2, 80255, Note_off_c, 7, 55, 127
2, 80257, Note_on_c, 0, 48, 127
2, 80257, Note_on_c, 0, 60, 127
2, 80257, Note_on_c, 4, 64, 127
2, 80257, Note_on_c, 0, 72, 127
2, 80652, Note_off_c, 0, 72, 127
2, 80654, Note_on_c, 0, 72, 127
2, 81043, Note_off_c, 4, 64, 127
2, 81049, Note_off_c, 0, 72, 127
2, 81049, Note_off_c, 0, 60, 127
2, 81049, Note_off_c, 0, 48, 127
2, 81051, Note_on_c, 11, 58, 127
2, 81051, Note_on_c, 5, 65, 127
2, 81117, Note_on_c, 4, 64, 127
2, 81119, Note_off_c, 5, 65, 127
2, 81183, Note_on_c, 5, 65, 127
2, 81185, Note_off_c, 4, 64, 127
2, 81249, Note_on_c, 4, 64, 127
2, 81251, Note_off_c, 5, 65, 127
2, 81445, Note_off_c, 4, 64, 127
2, 81445, Note_off_c, 11, 58, 127
2, 81447, Note_on_c, 8, 56, 127
2, 81447, Note_on_c, 5, 65, 127
2, 81842, Note_off_c, 5, 65, 127
2, 81842, Note_off_c, 8, 56, 127
2, 81844, Note_on_c, 7, 55, 127
2, 81844, Note_on_c, 7, 67, 127
2, 81941, Note_off_c, 7, 67, 127
2, 81943, Note_on_c, 5, 65, 127
2, 82040, Note_off_c, 5, 65, 127
2, 82042, Note_on_c, 7, 67, 127
2, 82584, Note_off_c, 7, 67, 127
2, 82636, Note_off_c, 7, 55, 127
2, 82638, Note_on_c, 0, 60, 127
2, 82638, Note_on_c, 7, 67, 127
2, 82835, Note_off_c, 7, 67, 127
2, 82837, Note_on_c, 8, 68, 127
2, 83034, Note_off_c, 8, 68, 127
2, 83036, Note_on_c, 11, 70, 127
2, 83431, Note_off_c, 11, 70, 127
2, 83431, Note_off_c, 0, 60, 127
2, 83433, Note_on_c, 5, 53, 127
2, 83433, Note_on_c, 11, 70, 127
2, 83433, Note_on_c, 5, 65, 127
2, 83563, Note_off_c, 11, 70, 127
2, 83565, Note_on_c, 8, 68, 127
2, 83631, Note_on_c, 11, 70, 127
2, 83633, Note_off_c, 8, 68, 127
2, 83697, Note_on_c, 8, 68, 127
2, 83699, Note_off_c, 11, 70, 127
2, 83763, Note_on_c, 11, 70, 127
2, 83765, Note_off_c, 8, 68, 127
2, 83827, Note_off_c, 5, 65, 127
2, 83829, Note_on_c, 5, 65, 127
2, 83829, Note_on_c, 8, 68, 127
2, 83831, Note_off_c, 11, 70, 127
2, 84025, Note_off_c, 8, 68, 127
2, 84027, Note_on_c, 11, 70, 127
2, 84217, Note_off_c, 5, 53, 127
2, 84221, Note_off_c, 5, 65, 127
2, 84223, Note_off_c, 11, 70, 127
2, 84225, Note_on_c, 10, 57, 127
2, 84225, Note_on_c, 0, 72, 127
2, 84620, Note_off_c, 0, 72, 127
2, 84620, Note_off_c, 10, 57, 127
2, 84622, Note_on_c, 1, 73, 127
2, 84622, Note_on_c, 11, 58, 127
2, 85017, Note_off_c, 11, 58, 127
2, 85017, Note_off_c, 1, 73, 127
2, 85019, Note_on_c, 11, 70, 127
2, 85019, Note_on_c, 0, 60, 127
2, 85085, Note_on_c, 10, 69, 127
2, 85087, Note_off_c, 11, 70, 127
2, 85151, Note_on_c, 11, 70, 127
2, 85153, Note_off_c, 10, 69, 127
2, 85217, Note_on_c, 10, 69, 127
2, 85219, Note_off_c, 11, 70, 127
2, 85701, Note_off_c, 10, 69, 127
2, 85811, Note_off_c, 0, 60, 127
2, 85813, Note_on_c, 11, 70, 127
2, 85813, Note_on_c, 1, 61, 127
2, 85910, Note_off_c, 11, 70, 127
2, 85912, Note_on_c, 10, 69, 127
2, 86009, Note_off_c, 10, 69, 127
2, 86011, Note_on_c, 11, 70, 127
2, 86208, Note_off_c, 11, 70, 127
2, 86208, Note_off_c, 1, 61, 127
2, 86210, Note_on_c, 3, 63, 127
2, 86210, Note_on_c, 0, 72, 127
2, 86605, Note_off_c, 0, 72, 127
2, 86605, Note_off_c, 3, 63, 127
2, 86607, Note_on_c, 0, 72, 127
2, 86607, Note_on_c, 2, 62, 127
2, 86804, Note_off_c, 0, 72, 127
2, 86806, Note_on_c, 11, 70, 127
2, 86872, Note_on_c, 0, 72, 127
2, 86874, Note_off_c, 11, 70, 127
2, 86938, Note_on_c, 11, 70, 127
2, 86940, Note_off_c, 0, 72, 127
2, 87002, Note_off_c, 2, 62, 127
2, 87004, Note_on_c, 0, 72, 127
2, 87004, Note_on_c, 4, 64, 127
2, 87006, Note_off_c, 11, 70, 127
2, 87200, Note_off_c, 0, 72, 127
2, 87202, Note_on_c, 7, 67, 127
2, 87396, Note_off_c, 4, 64, 127
2, 87398, Note_off_c, 7, 67, 127
2, 87400, Note_on_c, 8, 68, 127
2, 87400, Note_on_c, 5, 65, 127
2, 87497, Note_off_c, 8, 68, 127
2, 87499, Note_on_c, 7, 67, 127
2, 87596, Note_off_c, 7, 67, 127
2, 87598, Note_on_c, 8, 68, 127
2, 87784, Note_off_c, 8, 68, 127
2, 87794, Note_off_c, 5, 65, 127
2, 87796, Note_on_c, 2, 62, 127
2, 87796, Note_on_c, 11, 70, 127
2, 87993, Note_off_c, 11, 70, 127
2, 87995, Note_on_c, 5, 65, 127
2, 88189, Note_off_c, 2, 62, 127
2, 88191, Note_off_c, 5, 65, 127
2, 88193, Note_on_c, 0, 60, 127
2, 88193, Note_on_c, 5, 65, 127
2, 88193, Note_on_c, 7, 67, 127
2, 88390, Note_off_c, 5, 65, 127
2, 88392, Note_on_c, 4, 64, 127
2, 88458, Note_on_c, 5, 65, 127
2, 88460, Note_off_c, 4, 64, 127
2, 88524, Note_on_c, 4, 64, 127
2, 88526, Note_off_c, 5, 65, 127
2, 88588, Note_off_c, 0, 60, 127
2, 88590, Note_on_c, 0, 60, 127
2, 88917, Note_off_c, 4, 64, 127
2, 88979, Note_off_c, 7, 67, 127
2, 88985, Note_off_c, 0, 60, 127
2, 88987, Note_on_c, 4, 52, 127
2, 88987, Note_on_c, 7, 67, 127
2, 88987, Note_on_c, 0, 72, 127
2, 89382, Note_off_c, 7, 67, 127
2, 89382, Note_off_c, 4, 52, 127
2, 89384, Note_on_c, 5, 53, 127
2, 89384, Note_on_c, 8, 68, 127
2, 89773, Note_off_c, 0, 72, 127
2, 89779, Note_off_c, 8, 68, 127
2, 89779, Note_off_c, 5, 53, 127
2, 89781, Note_on_c, 7, 55, 127
2, 89781, Note_on_c, 5, 65, 127
2, 89847, Note_on_c, 4, 64, 127
2, 89849, Note_off_c, 5, 65, 127
2, 89913, Note_on_c, 5, 65, 127
2, 89915, Note_off_c, 4, 64, 127
2, 89979, Note_on_c, 4, 64, 127
2, 89981, Note_off_c, 5, 65, 127
2, 90178, Note_on_c, 11, 70, 127
2, 90559, Note_off_c, 4, 64, 127
2, 90573, Note_off_c, 11, 70, 127
2, 90573, Note_off_c, 7, 55, 127
2, 90575, Note_on_c, 8, 56, 127
2, 90575, Note_on_c, 0, 72, 127
2, 90575, Note_on_c, 4, 64, 127
2, 90772, Note_off_c, 4, 64, 127
2, 90774, Note_on_c, 5, 65, 127
2, 90971, Note_off_c, 5, 65, 127
2, 90971, Note_off_c, 0, 72, 127
2, 90971, Note_off_c, 8, 56, 127
2, 90973, Note_on_c, 11, 58, 127
2, 90973, Note_on_c, 1, 73, 127
2, 90973, Note_on_c, 5, 65, 127
2, 91170, Note_off_c, 5, 65, 127
2, 91172, Note_on_c, 7, 67, 127
2, 91369, Note_off_c, 7, 67, 127
2, 91369, Note_off_c, 1, 73, 127
2, 91369, Note_off_c, 11, 58, 127
2, 91371, Note_on_c, 8, 56, 127
2, 91371, Note_on_c, 5, 53, 127
2, 91371, Note_on_c, 0, 72, 127
2, 91371, Note_on_c, 5, 65, 127
2, 91766, Note_off_c, 5, 53, 127
2, 91768, Note_on_c, 5, 53, 127
2, 91950, Note_off_c, 8, 56, 127
2, 91967, Note_on_c, 11, 58, 127
2, 92161, Note_off_c, 5, 53, 127
2, 92163, Note_off_c, 11, 58, 127
2, 92165, Note_on_c, 10, 45, 127
2, 92165, Note_on_c, 0, 60, 127
2, 92560, Note_off_c, 0, 60, 127
2, 92560, Note_off_c, 10, 45, 127
2, 92560, Note_off_c, 0, 72, 127
2, 92562, Note_on_c, 11, 46, 127
2, 92562, Note_on_c, 1, 61, 127
2, 92562, Note_on_c, 11, 70, 127
2, 92957, Note_off_c, 11, 70, 127
2, 92957, Note_off_c, 1, 61, 127
2, 92957, Note_off_c, 11, 46, 127
2, 92957, Note_off_c, 5, 65, 127
2, 92959, Note_on_c, 10, 57, 127
2, 92959, Note_on_c, 0, 48, 127
2, 92959, Note_on_c, 3, 75, 127
2, 93356, Note_on_c, 3, 63, 127
2, 93745, Note_off_c, 3, 75, 127
2, 93751, Note_off_c, 3, 63, 127
2, 93751, Note_off_c, 0, 48, 127
2, 93751, Note_off_c, 10, 57, 127
2, 93753, Note_on_c, 11, 58, 127
2, 93753, Note_on_c, 1, 49, 127
2, 93753, Note_on_c, 1, 73, 127
2, 93753, Note_on_c, 3, 63, 127
2, 93950, Note_off_c, 3, 63, 127
2, 93952, Note_on_c, 5, 65, 127
2, 94149, Note_off_c, 5, 65, 127
2, 94149, Note_off_c, 1, 73, 127
2, 94149, Note_off_c, 1, 49, 127
2, 94149, Note_off_c, 11, 58, 127
2, 94151, Note_on_c, 0, 60, 127
2, 94151, Note_on_c, 3, 51, 127
2, 94151, Note_on_c, 0, 72, 127
2, 94151, Note_on_c, 5, 65, 127
2, 94348, Note_off_c, 5, 65, 127
2, 94350, Note_on_c, 6, 66, 127
2, 94547, Note_off_c, 6, 66, 127
2, 94547, Note_off_c, 3, 51, 127
2, 94547, Note_off_c, 0, 60, 127
2, 94549, Note_on_c, 1, 49, 127
2, 94549, Note_on_c, 1, 61, 127
2, 94549, Note_on_c, 5, 65, 127
2, 94938, Note_off_c, 0, 72, 127
2, 94944, Note_off_c, 5, 65, 127
2, 94944, Note_off_c, 1, 61, 127
2, 94944, Note_off_c, 1, 49, 127
2, 94946, Note_on_c, 6, 54, 127
2, 94946, Note_on_c, 11, 58, 127
2, 94946, Note_on_c, 11, 70, 127
2, 94946, Note_on_c, 6, 66, 127
2, 95143, Note_off_c, 6, 66, 127
2, 95145, Note_on_c, 1, 61, 127
2, 95342, Note_off_c, 1, 61, 127
2, 95342, Note_off_c, 11, 58, 127
2, 95342, Note_off_c, 6, 54, 127
2, 95344, Note_on_c, 0, 48, 127
2, 95344, Note_on_c, 0, 60, 127
2, 95344, Note_on_c, 3, 63, 127
2, 95733, Note_off_c, 11, 70, 127
2, 95739, Note_off_c, 3, 63, 127
2, 95739, Note_off_c, 0, 48, 127
2, 95741, Note_on_c, 5, 53, 127
2, 95741, Note_on_c, 5, 65, 127
2, 95741, Note_on_c, 10, 69, 127
2, 95923, Note_off_c, 0, 60, 127
2, 95937, Note_off_c, 5, 65, 127
2, 95939, Note_on_c, 0, 60, 127
2, 96133, Note_off_c, 10, 69, 127
2, 96135, Note_off_c, 0, 60, 127
2, 96135, Note_off_c, 5, 53, 127
2, 96137, Note_on_c, 11, 58, 127
2, 96137, Note_on_c, 11, 46, 127
2, 96137, Note_on_c, 11, 70, 127
2, 96137, Note_on_c, 1, 61, 127
2, 96532, Note_off_c, 11, 70, 127
2, 96534, Note_on_c, 11, 70, 127
2, 96923, Note_off_c, 1, 61, 127
2, 96929, Note_off_c, 11, 70, 127
2, 96929, Note_off_c, 11, 46, 127
2, 96929, Note_off_c, 11, 58, 127
2, 96931, Note_on_c, 8, 56, 127
2, 96931, Note_on_c, 3, 63, 127
2, 97128, Note_off_c, 3, 63, 127
2, 97130, Note_on_c, 2, 62, 127
2, 97196, Note_off_c, 2, 62, 127
2, 97196, Note_on_c, 3, 63, 127
2, 97262, Note_off_c, 3, 63, 127
2, 97262, Note_on_c, 2, 62, 127
2, 97326, Note_off_c, 8, 56, 127
2, 97328, Note_off_c, 2, 62, 127
2, 97328, Note_on_c, 7, 55, 127
2, 97328, Note_on_c, 3, 63, 127
2, 97723, Note_off_c, 3, 63, 127
2, 97723, Note_off_c, 7, 55, 127
2, 97725, Note_on_c, 5, 53, 127
2, 97725, Note_on_c, 5, 65, 127
2, 97791, Note_on_c, 3, 63, 127
2, 97822, Note_off_c, 5, 65, 127
2, 97857, Note_off_c, 3, 63, 127
2, 97857, Note_on_c, 5, 65, 127
2, 98436, Note_off_c, 5, 65, 127
2, 98517, Note_off_c, 5, 53, 127
2, 98519, Note_on_c, 11, 58, 127
2, 98519, Note_on_c, 5, 65, 127
2, 98716, Note_off_c, 5, 65, 127
2, 98718, Note_on_c, 7, 67, 127
2, 98915, Note_off_c, 7, 67, 127
2, 98917, Note_on_c, 8, 68, 127
2, 99312, Note_off_c, 8, 68, 127
2, 99312, Note_off_c, 11, 58, 127
2, 99314, Note_on_c, 3, 51, 127
2, 99314, Note_on_c, 8, 68, 127
2, 99314, Note_on_c, 3, 63, 127
2, 99511, Note_off_c, 8, 68, 127
2, 99513, Note_on_c, 7, 67, 127
2, 99610, Note_off_c, 7, 67, 127
2, 99612, Note_on_c, 8, 68, 127
2, 99709, Note_off_c, 8, 68, 127
2, 99709, Note_off_c, 3, 63, 127
2, 99711, Note_on_c, 3, 63, 127
2, 99711, Note_on_c, 7, 67, 127
2, 99908, Note_off_c, 7, 67, 127
2, 99910, Note_on_c, 8, 68, 127
2, 100100, Note_off_c, 3, 51, 127
2, 100104, Note_off_c, 3, 63, 127
2, 100106, Note_off_c, 8, 68, 127
2, 100108, Note_on_c, 7, 55, 127
2, 100108, Note_on_c, 11, 70, 127
2, 100503, Note_off_c, 11, 70, 127
2, 100503, Note_off_c, 7, 55, 127
2, 100505, Note_on_c, 0, 72, 127
2, 100505, Note_on_c, 8, 56, 127
2, 100900, Note_off_c, 8, 56, 127
2, 100900, Note_off_c, 0, 72, 127
2, 100902, Note_on_c, 11, 58, 127
2, 100902, Note_on_c, 8, 68, 127
2, 100968, Note_on_c, 7, 67, 127
2, 100970, Note_off_c, 8, 68, 127
2, 101034, Note_on_c, 8, 68, 127
2, 101036, Note_off_c, 7, 67, 127
2, 101100, Note_on_c, 7, 67, 127
2, 101102, Note_off_c, 8, 68, 127
2, 101619, Note_off_c, 7, 67, 127
2, 101693, Note_off_c, 11, 58, 127
2, 101695, Note_on_c, 8, 68, 127
2, 101695, Note_on_c, 0, 60, 127
2, 101792, Note_off_c, 8, 68, 127
2, 101794, Note_on_c, 7, 67, 127
2, 101891, Note_off_c, 7, 67, 127
2, 101893, Note_on_c, 8, 68, 127
2, 102079, Note_off_c, 8, 68, 127
2, 102089, Note_off_c, 0, 60, 127
2, 102091, Note_on_c, 11, 70, 127
2, 102091, Note_on_c, 1, 61, 127
2, 102486, Note_off_c, 1, 61, 127
2, 102486, Note_off_c, 11, 70, 127
2, 102488, Note_on_c, 0, 60, 127
2, 102488, Note_on_c, 8, 68, 127
2, 102883, Note_off_c, 8, 68, 127
2, 102883, Note_off_c, 0, 60, 127
2, 102885, Note_on_c, 11, 70, 127
2, 102885, Note_on_c, 2, 62, 127
2, 103082, Note_off_c, 11, 70, 127
2, 103084, Note_on_c, 5, 65, 127
2, 103278, Note_off_c, 2, 62, 127
2, 103280, Note_off_c, 5, 65, 127
2, 103282, Note_on_c, 3, 63, 127
2, 103282, Note_on_c, 7, 67, 127
2, 103677, Note_off_c, 7, 67, 127
2, 103677, Note_off_c, 3, 63, 127
2, 103679, Note_on_c, 8, 68, 127
2, 103679, Note_on_c, 0, 60, 127
2, 103876, Note_off_c, 8, 68, 127
2, 103878, Note_on_c, 3, 63, 127
2, 104072, Note_off_c, 0, 60, 127
2, 104074, Note_off_c, 3, 63, 127
2, 104076, Note_on_c, 11, 58, 127
2, 104076, Note_on_c, 3, 63, 127
2, 104076, Note_on_c, 5, 65, 127
2, 104341, Note_off_c, 3, 63, 127
2, 104341, Note_on_c, 2, 62, 127
2, 104407, Note_on_c, 3, 63, 127
2, 104409, Note_off_c, 2, 62, 127
2, 104471, Note_off_c, 11, 58, 127
2, 104473, Note_on_c, 11, 58, 127
2, 104473, Note_on_c, 2, 62, 127
2, 104475, Note_off_c, 3, 63, 127
2, 104669, Note_off_c, 5, 65, 127
2, 104671, Note_on_c, 3, 63, 127
2, 104762, Note_off_c, 2, 62, 127
2, 104868, Note_off_c, 3, 63, 127
2, 104868, Note_off_c, 11, 58, 127
2, 104870, Note_on_c, 2, 50, 127
2, 104870, Note_on_c, 5, 65, 127
2, 104870, Note_on_c, 11, 70, 127
2, 105265, Note_off_c, 5, 65, 127
2, 105265, Note_off_c, 2, 50, 127
2, 105267, Note_on_c, 3, 51, 127
2, 105267, Note_on_c, 7, 67, 127
2, 105656, Note_off_c, 11, 70, 127
2, 105662, Note_off_c, 7, 67, 127
2, 105662, Note_off_c, 3, 51, 127
2, 105664, Note_on_c, 5, 53, 127
2, 105664, Note_on_c, 2, 62, 127
2, 106061, Note_on_c, 8, 68, 127
2, 106450, Note_off_c, 2, 62, 127
2, 106456, Note_off_c, 8, 68, 127
2, 106456, Note_off_c, 5, 53, 127
2, 106458, Note_on_c, 7, 55, 127
2, 106458, Note_on_c, 11, 70, 127
2, 106458, Note_on_c, 3, 63, 127
2, 106555, Note_off_c, 11, 70, 127
2, 106557, Note_on_c, 8, 68, 127
2, 106654, Note_off_c, 8, 68, 127
2, 106656, Note_on_c, 11, 70, 127
2, 106842, Note_off_c, 11, 70, 127
2, 106852, Note_off_c, 7, 55, 127
2, 106854, Note_on_c, 8, 56, 127
2, 106854, Note_on_c, 0, 72, 127
2, 107243, Note_off_c, 3, 63, 127
2, 107249, Note_off_c, 0, 72, 127
2, 107249, Note_off_c, 8, 56, 127
2, 107251, Note_on_c, 3, 51, 127
2, 107251, Note_on_c, 7, 55, 127
2, 107251, Note_on_c, 11, 70, 127
2, 107251, Note_on_c, 3, 63, 127
2, 107646, Note_off_c, 3, 51, 127
2, 107648, Note_on_c, 3, 51, 127
2, 107830, Note_off_c, 7, 55, 127
2, 107847, Note_on_c, 8, 56, 127
2, 108041, Note_off_c, 3, 51, 127
2, 108043, Note_off_c, 8, 56, 127
2, 108045, Note_on_c, 7, 43, 127
2, 108045, Note_on_c, 11, 58, 127
2, 108440, Note_off_c, 11, 58, 127
2, 108440, Note_off_c, 7, 43, 127
2, 108440, Note_off_c, 11, 70, 127
2, 108442, Note_on_c, 8, 44, 127
2, 108442, Note_on_c, 0, 60, 127
2, 108442, Note_on_c, 8, 68, 127
2, 108837, Note_off_c, 8, 68, 127
2, 108837, Note_off_c, 0, 60, 127
2, 108837, Note_off_c, 8, 44, 127
2, 108837, Note_off_c, 3, 63, 127
2, 108839, Note_on_c, 7, 55, 127
2, 108839, Note_on_c, 11, 46, 127
2, 108839, Note_on_c, 1, 73, 127
2, 109236, Note_on_c, 1, 61, 127
2, 109625, Note_off_c, 1, 73, 127
2, 109631, Note_off_c, 1, 61, 127
2, 109631, Note_off_c, 11, 46, 127
2, 109631, Note_off_c, 7, 55, 127
2, 109633, Note_on_c, 8, 56, 127
2, 109633, Note_on_c, 0, 48, 127
2, 109633, Note_on_c, 0, 72, 127
2, 109633, Note_on_c, 3, 63, 127
2, 110028, Note_off_c, 3, 63, 127
2, 110028, Note_off_c, 0, 72, 127
2, 110028, Note_off_c, 0, 48, 127
2, 110028, Note_off_c, 8, 56, 127
2, 110030, Note_on_c, 1, 49, 127
2, 110030, Note_on_c, 5, 53, 127
2, 110030, Note_on_c, 5, 65, 127
2, 110030, Note_on_c, 11, 70, 127
2, 110425, Note_off_c, 5, 65, 127
2, 110425, Note_off_c, 5, 53, 127
2, 110425, Note_off_c, 1, 49, 127
2, 110427, Note_on_c, 7, 55, 127
2, 110427, Note_on_c, 0, 48, 127
2, 110427, Note_on_c, 3, 63, 127
2, 110816, Note_off_c, 11, 70, 127
2, 110822, Note_off_c, 3, 63, 127
2, 110822, Note_off_c, 0, 48, 127
2, 110822, Note_off_c, 7, 55, 127
2, 110824, Note_on_c, 5, 53, 127
2, 110824, Note_on_c, 8, 56, 127
2, 110824, Note_on_c, 8, 68, 127
2, 110824, Note_on_c, 5, 65, 127
2, 111021, Note_off_c, 5, 65, 127
2, 111023, Note_on_c, 0, 60, 127
2, 111220, Note_off_c, 0, 60, 127
2, 111220, Note_off_c, 8, 56, 127
2, 111220, Note_off_c, 5, 53, 127
2, 111222, Note_on_c, 11, 46, 127
2, 111222, Note_on_c, 11, 58, 127
2, 111222, Note_on_c, 1, 61, 127
2, 111611, Note_off_c, 8, 68, 127
2, 111617, Note_off_c, 1, 61, 127
2, 111617, Note_off_c, 11, 46, 127
2, 111619, Note_on_c, 3, 51, 127
2, 111619, Note_on_c, 7, 67, 127
2, 111619, Note_on_c, 3, 63, 127
2, 111801, Note_off_c, 11, 58, 127
2, 111815, Note_off_c, 3, 63, 127
2, 111817, Note_on_c, 11, 58, 127
2, 112014, Note_off_c, 11, 58, 127
2, 112014, Note_off_c, 3, 51, 127
2, 112016, Note_on_c, 8, 44, 127
2, 112016, Note_on_c, 8, 56, 127
2, 112016, Note_on_c, 0, 60, 127
2, 112405, Note_off_c, 7, 67, 127
2, 112413, Note_on_c, 8, 68, 127
2, 112610, Note_off_c, 8, 68, 127
2, 112612, Note_on_c, 4, 64, 127
2, 112802, Note_off_c, 8, 56, 127
2, 112808, Note_off_c, 4, 64, 127
2, 112810, Note_on_c, 5, 65, 127
2, 113009, Note_off_c, 0, 60, 127
2, 113206, Note_off_c, 5, 65, 127
2, 113206, Note_off_c, 8, 44, 127
2, 113208, Note_on_c, 12, 47, 127
2, 113208, Note_on_c, 7, 67, 127
2, 113405, Note_off_c, 7, 67, 127
2, 113407, Note_on_c, 2, 62, 127
2, 113604, Note_off_c, 2, 62, 127
2, 113604, Note_off_c, 12, 47, 127
2, 113606, Note_on_c, 7, 55, 127
2, 113606, Note_on_c, 0, 48, 127
2, 113606, Note_on_c, 0, 60, 127
2, 113606, Note_on_c, 5, 65, 127
2, 113672, Note_on_c, 4, 64, 127
2, 113674, Note_off_c, 5, 65, 127
2, 113738, Note_on_c, 5, 65, 127
2, 113740, Note_off_c, 4, 64, 127
2, 113804, Note_on_c, 4, 64, 127
2, 113806, Note_off_c, 5, 65, 127
2, 113998, Note_off_c, 7, 55, 127
2, 114000, Note_off_c, 0, 60, 127
2, 114002, Note_on_c, 0, 60, 127
2, 114196, Note_off_c, 4, 64, 127
2, 114200, Note_on_c, 5, 65, 127
2, 114394, Note_off_c, 0, 60, 127
2, 114396, Note_off_c, 5, 65, 127
2, 114396, Note_off_c, 0, 48, 127
2, 114398, Note_on_c, 4, 52, 127
2, 114398, Note_on_c, 7, 67, 127
2, 114793, Note_off_c, 7, 67, 127
2, 114793, Note_off_c, 4, 52, 127
2, 114795, Note_on_c, 5, 53, 127
2, 114795, Note_on_c, 8, 68, 127
2, 115188, Note_off_c, 5, 53, 127
2, 115190, Note_off_c, 8, 68, 127
2, 115192, Note_on_c, 7, 55, 127
2, 115192, Note_on_c, 5, 65, 127
2, 115415, Note_on_c, 4, 64, 127
2, 115457, Note_off_c, 5, 65, 127
2, 115495, Note_on_c, 5, 65, 127
2, 115500, Note_off_c, 4, 64, 127
2, 115575, Note_on_c, 4, 64, 127
2, 115580, Note_off_c, 5, 65, 127
2, 115639, Note_on_c, 5, 65, 127
2, 115660, Note_off_c, 4, 64, 127
2, 115726, Note_on_c, 4, 64, 127
2, 115727, Note_off_c, 5, 65, 127
2, 115814, Note_off_c, 4, 64, 127
2, 115821, Note_on_c, 2, 62, 127
2, 115904, Note_on_c, 4, 64, 127
2, 115909, Note_off_c, 2, 62, 127
2, 115985, Note_off_c, 7, 55, 127
2, 115987, Note_on_c, 8, 56, 127
2, 115987, Note_on_c, 5, 65, 127
2, 115991, Note_off_c, 4, 64, 127
2, 116053, Note_on_c, 4, 64, 127
2, 116084, Note_off_c, 5, 65, 127
2, 116119, Note_on_c, 5, 65, 127
2, 116121, Note_off_c, 4, 64, 127
2, 116382, Note_off_c, 8, 56, 127
2, 116384, Note_on_c, 11, 58, 127
2, 116384, Note_on_c, 7, 67, 127
2, 116417, Note_off_c, 5, 65, 127
2, 116779, Note_off_c, 7, 67, 127
2, 116779, Note_off_c, 11, 58, 127
2, 116781, Note_on_c, 5, 53, 127
2, 116781, Note_on_c, 5, 65, 127
2, 116781, Note_on_c, 8, 56, 127
2, 117176, Note_off_c, 5, 53, 127
2, 117178, Note_on_c, 5, 53, 127
2, 117378, Note_off_c, 8, 56, 127
2, 117380, Note_on_c, 11, 58, 127
2, 117574, Note_off_c, 5, 65, 127
2, 117580, Note_off_c, 11, 58, 127
2, 117580, Note_off_c, 5, 53, 127
2, 117582, Note_on_c, 10, 45, 127
2, 117582, Note_on_c, 0, 60, 127
2, 117582, Note_on_c, 5, 65, 127
2, 117984, Note_off_c, 0, 60, 127
2, 117984, Note_off_c, 10, 45, 127
2, 117986, Note_on_c, 11, 46, 127
2, 117986, Note_on_c, 1, 61, 127
2, 118382, Note_off_c, 5, 65, 127
2, 118388, Note_off_c, 1, 61, 127
2, 118388, Note_off_c, 11, 46, 127
2, 118390, Note_on_c, 0, 48, 127
2, 118390, Note_on_c, 5, 65, 127
2, 118390, Note_on_c, 0, 60, 127
2, 118792, Note_off_c, 0, 60, 127
2, 118794, Note_on_c, 10, 57, 127
2, 119196, Note_off_c, 10, 57, 127
2, 119196, Note_off_c, 0, 48, 127
2, 119198, Note_on_c, 1, 49, 127
2, 119198, Note_on_c, 11, 58, 127
2, 119600, Note_off_c, 11, 58, 127
2, 119600, Note_off_c, 1, 49, 127
2, 119602, Note_on_c, 3, 51, 127
2, 119602, Note_on_c, 0, 60, 127
2, 120004, Note_off_c, 0, 60, 127
2, 120004, Note_off_c, 3, 51, 127
2, 120006, Note_on_c, 1, 49, 127
2, 120006, Note_on_c, 11, 46, 127
2, 120006, Note_on_c, 11, 58, 127
2, 120423, Note_off_c, 11, 46, 127
2, 120425, Note_on_c, 11, 46, 127
2, 120835, Note_off_c, 1, 49, 127
2, 120839, Note_off_c, 5, 65, 127
2, 120841, Note_off_c, 11, 46, 127
2, 120867, Note_on_c, 7, 67, 127
2, 120867, Note_on_c, 4, 40, 127
2, 120867, Note_on_c, 0, 48, 127
2, 121260, Note_off_c, 11, 58, 127
2, 121284, Note_off_c, 4, 40, 127
2, 121284, Note_off_c, 7, 67, 127
2, 121286, Note_on_c, 8, 56, 127
2, 121286, Note_on_c, 5, 65, 127
2, 121286, Note_on_c, 5, 41, 127
2, 121696, Note_off_c, 0, 48, 127
2, 121703, Note_off_c, 5, 41, 127
2, 121703, Note_off_c, 5, 65, 127
2, 121703, Note_off_c, 8, 56, 127
2, 121705, Note_on_c, 2, 62, 127
2, 121705, Note_on_c, 5, 65, 127
2, 121705, Note_on_c, 12, 59, 127
2, 121705, Note_on_c, 5, 53, 127
2, 121705, Note_on_c, 2, 50, 127
2, 121705, Note_on_c, 2, 38, 127
2, 122752, Note_off_c, 2, 38, 127
2, 122752, Note_off_c, 2, 50, 127
2, 122752, Note_off_c, 5, 53, 127
2, 122752, Note_off_c, 12, 59, 127
2, 122752, Note_off_c, 5, 65, 127
2, 122752, Note_off_c, 2, 62, 127
2, 123057, Note_on_c, 2, 50, 127
2, 123057, Note_on_c, 5, 53, 127
2, 123057, Note_on_c, 7, 55, 127
2, 123057, Note_on_c, 12, 59, 127
2, 123057, Note_on_c, 2, 62, 127
2, 123057, Note_on_c, 5, 65, 127
2, 123057, Note_on_c, 7, 67, 127
2, 123057, Note_on_c, 12, 71, 127
2, 123474, Note_off_c, 12, 71, 127
2, 123474, Note_off_c, 7, 67, 127
2, 123474, Note_off_c, 5, 65, 127
2, 123474, Note_off_c, 2, 62, 127
2, 123474, Note_off_c, 12, 59, 127
2, 123474, Note_off_c, 7, 55, 127
2, 123474, Note_off_c, 5, 53, 127
2, 123474, Note_off_c, 2, 50, 127
2, 123476, Note_on_c, 0, 48, 127
2, 123476, Note_on_c, 7, 55, 127
2, 123476, Note_on_c, 0, 60, 127
2, 123476, Note_on_c, 7, 67, 127
2, 123476, Note_on_c, 0, 72, 127
2, 124032, Note_off_c, 7, 67, 127
2, 124032, Note_on_c, 4, 64, 127
2, 125760, Note_off_c, 4, 64, 127
2, 125760, Note_off_c, 0, 72, 127
2, 125760, Note_off_c, 0, 60, 127
2, 125760, Note_off_c, 7, 55, 127
2, 125760, Note_off_c, 0, 48, 127
2, 126688, Note_on_c, 5, 53, 127
2, 126688, Note_on_c, 0, 72, 127
2, 126688, Note_on_c, 8, 68, 127
2, 127088, Note_off_c, 0, 72, 127
2, 127089, Note_on_c, 1, 73, 127
2, 127489, Note_off_c, 5, 53, 127
2, 127490, Note_on_c, 5, 53, 127
2, 127889, Note_off_c, 8, 68, 127
2, 127890, Note_off_c, 5, 53, 127
2, 127891, Note_on_c, 4, 52, 127
2, 127891, Note_on_c, 7, 67, 127
2, 128290, Note_off_c, 1, 73, 127
2, 128292, Note_on_c, 0, 72, 127
2, 128692, Note_off_c, 0, 72, 127
2, 128692, Note_off_c, 4, 52, 127
2, 128693, Note_on_c, 4, 52, 127
2, 128693, Note_on_c, 11, 70, 127
2, 129093, Note_off_c, 11, 70, 127
2, 129093, Note_off_c, 4, 52, 127
2, 129094, Note_on_c, 5, 53, 127
2, 129094, Note_on_c, 8, 68, 127
2, 129488, Note_off_c, 7, 67, 127
2, 129493, Note_off_c, 5, 53, 127
2, 129494, Note_on_c, 1, 49, 127
2, 129494, Note_on_c, 5, 65, 127
2, 129894, Note_off_c, 1, 49, 127
2, 129894, Note_off_c, 8, 68, 127
2, 129895, Note_on_c, 11, 46, 127
2, 129895, Note_on_c, 1, 73, 127
2, 130295, Note_off_c, 1, 73, 127
2, 130295, Note_off_c, 11, 46, 127
2, 130296, Note_on_c, 0, 48, 127
2, 130296, Note_on_c, 7, 67, 127
2, 130695, Note_off_c, 5, 65, 127
2, 130697, Note_on_c, 4, 64, 127
2, 131097, Note_off_c, 7, 67, 127
2, 131097, Note_off_c, 0, 48, 127
2, 131098, Note_on_c, 0, 48, 127
2, 131098, Note_on_c, 0, 72, 127
2, 131498, Note_off_c, 0, 72, 127
2, 131498, Note_off_c, 0, 48, 127
2, 131498, Note_off_c, 4, 64, 127
2, 131499, Note_on_c, 5, 53, 127
2, 131499, Note_on_c, 8, 68, 127
2, 131499, Note_on_c, 5, 65, 127
2, 131899, Note_off_c, 5, 65, 127
2, 131899, Note_off_c, 8, 68, 127
2, 131900, Note_on_c, 0, 60, 127
2, 131900, Note_on_c, 5, 77, 127
2, 132099, Note_off_c, 5, 77, 127
2, 132100, Note_on_c, 3, 75, 127
2, 132299, Note_off_c, 3, 75, 127
2, 132299, Note_off_c, 0, 60, 127
2, 132299, Note_off_c, 5, 53, 127
2, 132300, Note_on_c, 8, 56, 127
2, 132300, Note_on_c, 5, 53, 127
2, 132300, Note_on_c, 3, 75, 127
2, 132499, Note_off_c, 3, 75, 127
2, 132500, Note_on_c, 1, 73, 127
2, 132699, Note_off_c, 1, 73, 127
2, 132699, Note_off_c, 5, 53, 127
2, 132699, Note_off_c, 8, 56, 127
2, 132700, Note_on_c, 7, 55, 127
2, 132700, Note_on_c, 4, 52, 127
2, 132700, Note_on_c, 1, 73, 127
2, 132899, Note_off_c, 1, 73, 127
2, 132900, Note_on_c, 0, 72, 127
2, 133099, Note_off_c, 7, 55, 127
2, 133100, Note_on_c, 0, 60, 127
2, 133192, Note_off_c, 0, 72, 127
2, 133301, Note_on_c, 11, 70, 127
2, 133500, Note_off_c, 11, 70, 127
2, 133500, Note_off_c, 0, 60, 127
2, 133500, Note_off_c, 4, 52, 127
2, 133501, Note_on_c, 7, 55, 127
2, 133501, Note_on_c, 4, 52, 127
2, 133501, Note_on_c, 0, 72, 127
2, 133700, Note_off_c, 0, 72, 127
2, 133701, Note_on_c, 11, 70, 127
2, 133900, Note_off_c, 11, 70, 127
2, 133900, Note_off_c, 4, 52, 127
2, 133900, Note_off_c, 7, 55, 127
2, 133901, Note_on_c, 5, 53, 127
2, 133901, Note_on_c, 0, 60, 127
2, 133901, Note_on_c, 11, 70, 127
2, 134100, Note_off_c, 11, 70, 127
2, 134101, Note_on_c, 8, 68, 127
2, 134300, Note_off_c, 8, 68, 127
2, 134300, Note_off_c, 0, 60, 127
2, 134300, Note_off_c, 5, 53, 127
2, 134301, Note_on_c, 11, 58, 127
2, 134301, Note_on_c, 1, 49, 127
2, 134301, Note_on_c, 8, 68, 127
2, 134500, Note_off_c, 8, 68, 127
2, 134501, Note_on_c, 7, 67, 127
2, 134700, Note_off_c, 7, 67, 127
2, 134700, Note_off_c, 1, 49, 127
2, 134700, Note_off_c, 11, 58, 127
2, 134701, Note_on_c, 11, 46, 127
2, 134701, Note_on_c, 7, 67, 127
2, 134701, Note_on_c, 1, 61, 127
2, 134900, Note_off_c, 7, 67, 127
2, 134901, Note_on_c, 5, 65, 127
2, 135097, Note_off_c, 1, 61, 127
2, 135100, Note_off_c, 5, 65, 127
2, 135100, Note_off_c, 11, 46, 127
2, 135101, Note_on_c, 0, 48, 127
2, 135101, Note_on_c, 5, 65, 127
2, 135101, Note_on_c, 0, 60, 127
2, 135300, Note_off_c, 5, 65, 127
2, 135301, Note_on_c, 4, 64, 127
2, 135500, Note_off_c, 4, 64, 127
2, 135501, Note_on_c, 4, 64, 127
2, 135901, Note_off_c, 4, 64, 127
2, 135901, Note_off_c, 0, 48, 127
2, 135902, Note_on_c, 0, 48, 127
2, 135902, Note_on_c, 11, 58, 127
2, 136301, Note_off_c, 0, 60, 127
2, 136302, Note_off_c, 11, 58, 127
2, 136302, Note_off_c, 0, 48, 127
2, 136303, Note_on_c, 5, 41, 127
2, 136303, Note_on_c, 8, 56, 127
2, 136502, Note_off_c, 8, 56, 127
2, 136503, Note_on_c, 11, 70, 127
2, 136702, Note_off_c, 11, 70, 127
2, 136703, Note_on_c, 11, 70, 127
2, 136902, Note_off_c, 11, 70, 127
2, 136903, Note_on_c, 8, 68, 127
2, 137102, Note_off_c, 5, 41, 127
2, 137103, Note_on_c, 5, 53, 127
2, 137103, Note_on_c, 8, 56, 127
2, 137195, Note_off_c, 8, 68, 127
2, 137304, Note_on_c, 1, 73, 127
2, 137503, Note_off_c, 8, 56, 127
2, 137503, Note_off_c, 5, 53, 127
2, 137504, Note_on_c, 4, 52, 127
2, 137504, Note_on_c, 0, 60, 127
2, 137596, Note_off_c, 1, 73, 127
2, 137705, Note_on_c, 8, 68, 127
2, 137904, Note_off_c, 8, 68, 127
2, 137905, Note_on_c, 8, 68, 127
2, 138104, Note_off_c, 8, 68, 127
2, 138105, Note_on_c, 7, 67, 127
2, 138304, Note_off_c, 0, 60, 127
2, 138304, Note_off_c, 4, 52, 127
2, 138305, Note_on_c, 11, 58, 127
2, 138305, Note_on_c, 4, 52, 127
2, 138397, Note_off_c, 7, 67, 127
2, 138506, Note_on_c, 0, 72, 127
2, 138705, Note_off_c, 4, 52, 127
2, 138705, Note_off_c, 11, 58, 127
2, 138706, Note_on_c, 5, 53, 127
2, 138706, Note_on_c, 8, 56, 127
2, 138798, Note_off_c, 0, 72, 127
2, 138907, Note_on_c, 7, 67, 127
2, 139106, Note_off_c, 7, 67, 127
2, 139106, Note_off_c, 5, 53, 127
2, 139107, Note_on_c, 1, 49, 127
2, 139107, Note_on_c, 7, 67, 127
2, 139306, Note_off_c, 7, 67, 127
2, 139307, Note_on_c, 5, 65, 127
2, 139506, Note_off_c, 1, 49, 127
2, 139507, Note_on_c, 11, 46, 127
2, 139599, Note_off_c, 5, 65, 127
2, 139708, Note_on_c, 11, 70, 127
2, 139907, Note_off_c, 11, 46, 127
2, 139908, Note_on_c, 0, 48, 127
2, 140000, Note_off_c, 11, 70, 127
2, 140109, Note_on_c, 5, 65, 127
2, 140303, Note_off_c, 8, 56, 127
2, 140308, Note_off_c, 5, 65, 127
2, 140309, Note_on_c, 7, 55, 127
2, 140309, Note_on_c, 5, 65, 127
2, 140508, Note_off_c, 5, 65, 127
2, 140509, Note_on_c, 4, 64, 127
2, 140708, Note_off_c, 7, 55, 127
2, 140708, Note_off_c, 0, 48, 127
2, 140709, Note_on_c, 0, 36, 127
2, 140709, Note_on_c, 11, 58, 127
2, 140801, Note_off_c, 4, 64, 127
2, 140910, Note_on_c, 8, 68, 127
2, 141106, Note_off_c, 11, 58, 127
2, 141109, Note_off_c, 0, 36, 127
2, 141110, Note_on_c, 5, 41, 127
2, 141110, Note_on_c, 5, 65, 127
2, 141110, Note_on_c, 8, 56, 127
2, 141202, Note_off_c, 8, 68, 127
2, 141510, Note_off_c, 8, 56, 127
2, 141510, Note_off_c, 5, 65, 127
2, 141511, Note_on_c, 0, 60, 127
2, 141711, Note_on_c, 8, 68, 127
2, 141907, Note_off_c, 0, 60, 127
2, 141910, Note_off_c, 8, 68, 127
2, 141910, Note_off_c, 5, 41, 127
2, 141911, Note_on_c, 5, 53, 127
2, 141911, Note_on_c, 8, 56, 127
2, 141911, Note_on_c, 1, 73, 127
2, 142110, Note_off_c, 1, 73, 127
2, 142111, Note_on_c, 11, 70, 127
2, 142310, Note_off_c, 11, 70, 127
2, 142310, Note_off_c, 8, 56, 127
2, 142310, Note_off_c, 5, 53, 127
2, 142311, Note_on_c, 4, 52, 127
2, 142311, Note_on_c, 1, 61, 127
2, 142311, Note_on_c, 7, 67, 127
2, 142708, Note_off_c, 7, 67, 127
2, 142711, Note_off_c, 1, 61, 127
2, 142712, Note_on_c, 0, 60, 127
2, 142912, Note_on_c, 7, 67, 127
2, 143111, Note_off_c, 7, 67, 127
2, 143111, Note_off_c, 0, 60, 127
2, 143111, Note_off_c, 4, 52, 127
2, 143112, Note_on_c, 7, 55, 127
2, 143112, Note_on_c, 3, 51, 127
2, 143112, Note_on_c, 0, 72, 127
2, 143311, Note_off_c, 0, 72, 127
2, 143312, Note_on_c, 8, 68, 127
2, 143511, Note_off_c, 8, 68, 127
2, 143511, Note_off_c, 3, 51, 127
2, 143511, Note_off_c, 7, 55, 127
2, 143512, Note_on_c, 2, 50, 127
2, 143512, Note_on_c, 0, 60, 127
2, 143512, Note_on_c, 5, 65, 127
2, 143909, Note_off_c, 5, 65, 127
2, 143912, Note_off_c, 0, 60, 127
2, 143913, Note_on_c, 11, 58, 127
2, 144113, Note_on_c, 5, 65, 127
2, 144312, Note_off_c, 5, 65, 127
2, 144312, Note_off_c, 11, 58, 127
2, 144312, Note_off_c, 2, 50, 127
2, 144313, Note_on_c, 5, 53, 127
2, 144313, Note_on_c, 1, 49, 127
2, 144313, Note_on_c, 11, 70, 127
2, 144512, Note_off_c, 11, 70, 127
2, 144513, Note_on_c, 7, 67, 127
2, 144712, Note_off_c, 7, 67, 127
2, 144712, Note_off_c, 1, 49, 127
2, 144712, Note_off_c, 5, 53, 127
2, 144713, Note_on_c, 7, 55, 127
2, 144713, Note_on_c, 11, 46, 127
2, 144713, Note_on_c, 1, 73, 127
2, 144912, Note_off_c, 1, 73, 127
2, 144913, Note_on_c, 5, 65, 127
2, 145112, Note_off_c, 5, 65, 127
2, 145112, Note_off_c, 11, 46, 127
2, 145113, Note_on_c, 0, 48, 127
2, 145113, Note_on_c, 4, 64, 127
2, 145212, Note_off_c, 4, 64, 127
2, 145213, Note_on_c, 2, 62, 127
2, 145312, Note_off_c, 2, 62, 127
2, 145313, Note_on_c, 4, 64, 127
2, 145512, Note_off_c, 0, 48, 127
2, 145512, Note_off_c, 7, 55, 127
2, 145513, Note_on_c, 11, 58, 127
2, 145513, Note_on_c, 0, 36, 127
2, 145709, Note_off_c, 4, 64, 127
2, 145713, Note_on_c, 5, 65, 127
2, 145912, Note_off_c, 5, 65, 127
2, 145912, Note_off_c, 0, 36, 127
2, 145912, Note_off_c, 11, 58, 127
2, 145913, Note_on_c, 5, 41, 127
2, 145913, Note_on_c, 8, 56, 127
2, 145913, Note_on_c, 5, 65, 127
2, 146316, Note_off_c, 5, 65, 127
2, 146316, Note_off_c, 8, 56, 127
2, 146316, Note_off_c, 5, 41, 127
2, 146317, Note_on_c, 5, 53, 127
2, 146317, Note_on_c, 8, 68, 127
2, 146519, Note_on_c, 1, 73, 127
2, 146717, Note_off_c, 8, 68, 127
2, 146720, Note_off_c, 5, 53, 127
2, 146721, Note_on_c, 7, 55, 127
2, 146721, Note_on_c, 5, 65, 127
2, 146919, Note_off_c, 1, 73, 127
2, 146922, Note_off_c, 7, 55, 127
2, 146923, Note_on_c, 8, 56, 127
2, 146923, Note_on_c, 1, 73, 127
2, 147121, Note_off_c, 5, 65, 127
2, 147124, Note_off_c, 1, 73, 127
2, 147124, Note_off_c, 8, 56, 127
2, 147125, Note_on_c, 4, 52, 127
2, 147125, Note_on_c, 7, 67, 127
2, 147327, Note_on_c, 1, 73, 127
2, 147528, Note_off_c, 4, 52, 127
2, 147529, Note_on_c, 3, 51, 127
2, 147730, Note_off_c, 1, 73, 127
2, 147731, Note_on_c, 0, 72, 127
2, 147931, Note_off_c, 0, 72, 127
2, 147932, Note_off_c, 3, 51, 127
2, 147932, Note_off_c, 7, 67, 127
2, 147933, Note_on_c, 5, 53, 127
2, 148134, Note_off_c, 5, 53, 127
2, 148135, Note_on_c, 6, 54, 127
2, 148135, Note_on_c, 4, 64, 127
2, 148336, Note_off_c, 4, 64, 127
2, 148336, Note_off_c, 6, 54, 127
2, 148337, Note_on_c, 2, 50, 127
2, 148337, Note_on_c, 5, 65, 127
2, 148539, Note_on_c, 0, 72, 127
2, 148740, Note_off_c, 2, 50, 127
2, 148741, Note_on_c, 1, 49, 127
2, 148942, Note_off_c, 0, 72, 127
2, 148943, Note_on_c, 11, 70, 127
2, 149143, Note_off_c, 11, 70, 127
2, 149144, Note_off_c, 1, 49, 127
2, 149144, Note_off_c, 5, 65, 127
2, 149145, Note_on_c, 3, 51, 127
2, 149346, Note_off_c, 3, 51, 127
2, 149347, Note_on_c, 5, 53, 127
2, 149347, Note_on_c, 8, 68, 127
2, 149347, Note_on_c, 0, 60, 127
2, 149548, Note_off_c, 0, 60, 127
2, 149548, Note_off_c, 8, 68, 127
2, 149548, Note_off_c, 5, 53, 127
2, 149549, Note_on_c, 11, 46, 127
2, 149549, Note_on_c, 1, 61, 127
2, 149751, Note_on_c, 6, 66, 127
2, 149949, Note_off_c, 1, 61, 127
2, 149952, Note_off_c, 6, 66, 127
2, 149952, Note_off_c, 11, 46, 127
2, 149953, Note_on_c, 0, 48, 127
2, 149953, Note_on_c, 10, 57, 127
2, 150155, Note_on_c, 5, 65, 127
2, 150353, Note_off_c, 10, 57, 127
2, 150355, Note_off_c, 5, 65, 127
2, 150356, Note_off_c, 0, 48, 127
2, 150357, Note_on_c, 11, 46, 127
2, 150357, Note_on_c, 7, 55, 127
2, 150558, Note_off_c, 11, 46, 127
2, 150559, Note_on_c, 0, 48, 127
2, 150559, Note_on_c, 4, 64, 127
2, 150757, Note_off_c, 7, 55, 127
2, 150759, Note_off_c, 4, 64, 127
2, 150760, Note_off_c, 0, 48, 127
2, 150761, Note_on_c, 8, 56, 127
2, 150761, Note_on_c, 5, 41, 127
2, 150965, Note_on_c, 5, 65, 127
2, 151165, Note_off_c, 5, 41, 127
2, 151165, Note_off_c, 8, 56, 127
2, 151168, Note_off_c, 5, 65, 127
2, 151169, Note_on_c, 1, 73, 127
2, 151372, Note_off_c, 1, 73, 127
2, 151373, Note_on_c, 1, 73, 127
2, 151576, Note_off_c, 1, 73, 127
2, 151577, Note_on_c, 5, 53, 127
2, 151577, Note_on_c, 12, 59, 127
2, 151577, Note_on_c, 2, 74, 127
2, 151781, Note_on_c, 8, 68, 127
2, 151981, Note_off_c, 2, 74, 127
2, 151984, Note_off_c, 8, 68, 127
2, 151984, Note_off_c, 12, 59, 127
2, 151984, Note_off_c, 5, 53, 127
2, 151985, Note_on_c, 7, 55, 127
2, 151985, Note_on_c, 11, 58, 127
2, 151985, Note_on_c, 7, 67, 127
2, 152188, Note_off_c, 7, 67, 127
2, 152189, Note_on_c, 11, 70, 127
2, 152389, Note_off_c, 11, 58, 127
2, 152389, Note_off_c, 7, 55, 127
2, 152392, Note_off_c, 11, 70, 127
2, 152393, Note_on_c, 3, 75, 127
2, 152596, Note_off_c, 3, 75, 127
2, 152597, Note_on_c, 3, 75, 127
2, 152800, Note_off_c, 3, 75, 127
2, 152801, Note_on_c, 1, 49, 127
2, 152801, Note_on_c, 7, 43, 127
2, 152801, Note_on_c, 4, 76, 127
2, 153005, Note_on_c, 11, 70, 127
2, 153162, Note_off_c, 4, 76, 127
2, 153208, Note_off_c, 11, 70, 127
2, 153208, Note_off_c, 7, 43, 127
2, 153208, Note_off_c, 1, 49, 127
2, 153209, Note_on_c, 8, 44, 127
2, 153209, Note_on_c, 0, 48, 127
2, 153209, Note_on_c, 8, 68, 127
2, 153412, Note_off_c, 8, 68, 127
2, 153413, Note_on_c, 0, 72, 127
2, 153613, Note_off_c, 0, 48, 127
2, 153613, Note_off_c, 8, 44, 127
2, 153616, Note_off_c, 0, 72, 127
2, 153617, Note_on_c, 5, 77, 127
2, 153820, Note_off_c, 5, 77, 127
2, 153821, Note_on_c, 5, 77, 127
2, 154024, Note_off_c, 5, 77, 127
2, 154025, Note_on_c, 5, 53, 127
2, 154025, Note_on_c, 1, 49, 127
2, 154025, Note_on_c, 8, 80, 127
2, 154228, Note_off_c, 8, 80, 127
2, 154229, Note_on_c, 12, 71, 127
2, 154432, Note_off_c, 12, 71, 127
2, 154432, Note_off_c, 1, 49, 127
2, 154432, Note_off_c, 5, 53, 127
2, 154433, Note_on_c, 0, 48, 127
2, 154433, Note_on_c, 4, 52, 127
2, 154433, Note_on_c, 0, 72, 127
2, 154636, Note_off_c, 0, 72, 127
2, 154637, Note_on_c, 7, 67, 127
2, 154837, Note_off_c, 4, 52, 127
2, 154837, Note_off_c, 0, 48, 127
2, 154840, Note_off_c, 7, 67, 127
2, 154841, Note_on_c, 11, 70, 127
2, 155044, Note_off_c, 11, 70, 127
2, 155045, Note_on_c, 11, 70, 127
2, 155248, Note_off_c, 11, 70, 127
2, 155249, Note_on_c, 0, 36, 127
2, 155249, Note_on_c, 1, 73, 127
2, 155452, Note_off_c, 1, 73, 127
2, 155453, Note_on_c, 11, 58, 127
2, 155453, Note_on_c, 4, 64, 127
2, 155653, Note_off_c, 0, 36, 127
2, 155656, Note_off_c, 4, 64, 127
2, 155656, Note_off_c, 11, 58, 127
2, 155657, Note_on_c, 5, 41, 127
2, 155657, Note_on_c, 8, 56, 127
2, 155657, Note_on_c, 5, 65, 127
2, 155860, Note_off_c, 5, 41, 127
2, 155861, Note_on_c, 5, 53, 127
2, 156061, Note_off_c, 5, 65, 127
2, 156061, Note_off_c, 8, 56, 127
2, 156064, Note_off_c, 5, 53, 127
2, 156065, Note_on_c, 8, 56, 127
2, 156268, Note_off_c, 8, 56, 127
2, 156269, Note_on_c, 8, 56, 127
2, 156472, Note_off_c, 8, 56, 127
2, 156473, Note_on_c, 1, 61, 127
2, 156473, Note_on_c, 1, 73, 127
2, 156473, Note_on_c, 11, 70, 127
2, 156676, Note_off_c, 1, 61, 127
2, 156677, Note_on_c, 5, 53, 127
2, 156880, Note_off_c, 5, 53, 127
2, 156880, Note_off_c, 11, 70, 127
2, 156881, Note_on_c, 3, 51, 127
2, 156881, Note_on_c, 7, 67, 127
2, 157084, Note_off_c, 3, 51, 127
2, 157085, Note_on_c, 7, 55, 127
2, 157288, Note_off_c, 7, 55, 127
2, 157289, Note_on_c, 12, 59, 127
2, 157492, Note_off_c, 12, 59, 127
2, 157493, Note_on_c, 12, 59, 127
2, 157603, Note_off_c, 7, 67, 127
2, 157694, Note_off_c, 1, 73, 127
2, 157695, Note_off_c, 12, 59, 127
2, 157696, Note_on_c, 0, 60, 127
2, 157696, Note_on_c, 0, 72, 127
2, 157696, Note_on_c, 8, 68, 127
2, 157899, Note_off_c, 0, 60, 127
2, 157900, Note_on_c, 3, 51, 127
2, 158103, Note_off_c, 3, 51, 127
2, 158103, Note_off_c, 8, 68, 127
2, 158104, Note_on_c, 1, 49, 127
2, 158104, Note_on_c, 5, 65, 127
2, 158307, Note_off_c, 1, 49, 127
2, 158308, Note_on_c, 5, 53, 127
2, 158511, Note_off_c, 5, 53, 127
2, 158512, Note_on_c, 10, 57, 127
2, 158715, Note_off_c, 10, 57, 127
2, 158716, Note_on_c, 10, 57, 127
2, 158826, Note_off_c, 5, 65, 127
2, 158917, Note_off_c, 0, 72, 127
2, 158918, Note_off_c, 10, 57, 127
2, 158919, Note_on_c, 11, 58, 127
2, 158919, Note_on_c, 7, 67, 127
2, 158919, Note_on_c, 11, 70, 127
2, 159122, Note_off_c, 11, 58, 127
2, 159123, Note_on_c, 1, 49, 127
2, 159326, Note_off_c, 1, 49, 127
2, 159326, Note_off_c, 7, 67, 127
2, 159327, Note_on_c, 0, 48, 127
2, 159327, Note_on_c, 4, 64, 127
2, 159530, Note_off_c, 0, 48, 127
2, 159531, Note_on_c, 4, 52, 127
2, 159734, Note_off_c, 4, 52, 127
2, 159735, Note_on_c, 7, 55, 127
2, 159938, Note_off_c, 7, 55, 127
2, 159939, Note_on_c, 7, 55, 127
2, 160141, Note_off_c, 11, 70, 127
2, 160142, Note_off_c, 7, 55, 127
2, 160143, Note_on_c, 11, 58, 127
2, 160143, Note_on_c, 7, 67, 127
2, 160346, Note_off_c, 7, 67, 127
2, 160346, Note_off_c, 11, 58, 127
2, 160347, Note_on_c, 0, 48, 127
2, 160347, Note_on_c, 11, 70, 127
2, 160549, Note_off_c, 4, 64, 127
2, 160550, Note_off_c, 11, 70, 127
2, 160550, Note_off_c, 0, 48, 127
2, 160551, Note_on_c, 5, 41, 127
2, 160551, Note_on_c, 8, 68, 127
2, 160551, Note_on_c, 5, 65, 127
2, 160757, Note_off_c, 5, 65, 127
2, 160757, Note_off_c, 8, 68, 127
2, 160758, Note_on_c, 5, 77, 127
2, 160961, Note_off_c, 5, 41, 127
2, 160964, Note_off_c, 5, 77, 127
2, 160965, Note_on_c, 4, 76, 127
2, 161171, Note_off_c, 4, 76, 127
2, 161172, Note_on_c, 3, 75, 127
2, 161378, Note_off_c, 3, 75, 127
2, 161379, Note_on_c, 5, 53, 127
2, 161379, Note_on_c, 8, 56, 127
2, 161379, Note_on_c, 2, 74, 127
2, 161585, Note_off_c, 2, 74, 127
2, 161586, Note_on_c, 1, 73, 127
2, 161792, Note_off_c, 8, 56, 127
2, 161792, Note_off_c, 5, 53, 127
2, 161793, Note_on_c, 4, 52, 127
2, 161793, Note_on_c, 7, 55, 127
2, 161888, Note_off_c, 1, 73, 127
2, 162000, Note_on_c, 4, 76, 127
2, 162203, Note_off_c, 7, 55, 127
2, 162203, Note_off_c, 4, 52, 127
2, 162206, Note_off_c, 4, 76, 127
2, 162207, Note_on_c, 3, 75, 127
2, 162413, Note_off_c, 3, 75, 127
2, 162414, Note_on_c, 2, 74, 127
2, 162620, Note_off_c, 2, 74, 127
2, 162621, Note_on_c, 6, 54, 127
2, 162621, Note_on_c, 3, 51, 127
2, 162621, Note_on_c, 1, 73, 127
2, 162827, Note_off_c, 1, 73, 127
2, 162828, Note_on_c, 0, 72, 127
2, 163034, Note_off_c, 3, 51, 127
2, 163034, Note_off_c, 6, 54, 127
2, 163035, Note_on_c, 5, 53, 127
2, 163035, Note_on_c, 2, 50, 127
2, 163130, Note_off_c, 0, 72, 127
2, 163242, Note_on_c, 3, 75, 127
2, 163445, Note_off_c, 2, 50, 127
2, 163445, Note_off_c, 5, 53, 127
2, 163448, Note_off_c, 3, 75, 127
2, 163449, Note_on_c, 2, 74, 127
2, 163655, Note_off_c, 2, 74, 127
2, 163656, Note_on_c, 1, 73, 127
2, 163862, Note_off_c, 1, 73, 127
2, 163863, Note_on_c, 1, 49, 127
2, 163863, Note_on_c, 5, 53, 127
2, 163863, Note_on_c, 0, 72, 127
2, 164069, Note_off_c, 0, 72, 127
2, 164070, Note_on_c, 12, 71, 127
2, 164276, Note_off_c, 5, 53, 127
2, 164276, Note_off_c, 1, 49, 127
2, 164277, Note_on_c, 4, 52, 127
2, 164277, Note_on_c, 0, 48, 127
2, 164372, Note_off_c, 12, 71, 127
2, 164484, Note_on_c, 0, 72, 127
2, 164687, Note_off_c, 0, 48, 127
2, 164687, Note_off_c, 4, 52, 127
2, 164690, Note_off_c, 0, 72, 127
2, 164691, Note_on_c, 1, 73, 127
2, 164897, Note_off_c, 1, 73, 127
2, 164898, Note_on_c, 0, 72, 127
2, 165104, Note_off_c, 0, 72, 127
2, 165105, Note_on_c, 0, 48, 127
2, 165105, Note_on_c, 4, 52, 127
2, 165105, Note_on_c, 12, 71, 127
2, 165311, Note_off_c, 12, 71, 127
2, 165312, Note_on_c, 11, 70, 127
2, 165518, Note_off_c, 11, 70, 127
2, 165518, Note_off_c, 4, 52, 127
2, 165518, Note_off_c, 0, 48, 127
2, 165519, Note_on_c, 5, 41, 127
2, 165519, Note_on_c, 5, 53, 127
2, 165519, Note_on_c, 10, 69, 127
2, 165725, Note_off_c, 10, 69, 127
2, 165726, Note_on_c, 8, 68, 127
2, 165929, Note_off_c, 5, 53, 127
2, 165929, Note_off_c, 5, 41, 127
2, 165932, Note_off_c, 8, 68, 127
2, 165933, Note_on_c, 7, 67, 127
2, 166139, Note_off_c, 7, 67, 127
2, 166140, Note_on_c, 6, 66, 127
2, 166346, Note_off_c, 6, 66, 127
2, 166347, Note_on_c, 5, 65, 127
2, 166553, Note_off_c, 5, 65, 127
2, 166554, Note_on_c, 5, 65, 127
2, 166554, Note_on_c, 1, 73, 127
2, 166760, Note_off_c, 1, 73, 127
2, 166760, Note_off_c, 5, 65, 127
2, 166761, Note_on_c, 4, 64, 127
2, 166761, Note_on_c, 1, 73, 127
2, 166967, Note_off_c, 1, 73, 127
2, 166967, Note_off_c, 4, 64, 127
2, 166968, Note_on_c, 3, 63, 127
2, 166968, Note_on_c, 7, 67, 127
2, 167174, Note_off_c, 3, 63, 127
2, 167175, Note_on_c, 2, 62, 127
2, 167378, Note_off_c, 7, 67, 127
2, 167381, Note_off_c, 2, 62, 127
2, 167382, Note_on_c, 1, 61, 127
2, 167588, Note_off_c, 1, 61, 127
2, 167589, Note_on_c, 0, 60, 127
2, 167797, Note_on_c, 0, 72, 127
2, 168000, Note_off_c, 0, 60, 127
2, 168003, Note_off_c, 0, 72, 127
2, 168004, Note_on_c, 0, 72, 127
2, 168210, Note_off_c, 0, 72, 127
2, 168211, Note_on_c, 1, 61, 127
2, 168211, Note_on_c, 5, 65, 127
2, 168417, Note_off_c, 1, 61, 127
2, 168418, Note_on_c, 0, 60, 127
2, 168621, Note_off_c, 5, 65, 127
2, 168624, Note_off_c, 0, 60, 127
2, 168625, Note_on_c, 12, 59, 127
2, 168831, Note_off_c, 12, 59, 127
2, 168832, Note_on_c, 11, 58, 127
2, 169040, Note_on_c, 11, 70, 127
2, 169243, Note_off_c, 11, 58, 127
2, 169246, Note_off_c, 11, 70, 127
2, 169247, Note_on_c, 11, 70, 127
2, 169453, Note_off_c, 11, 70, 127
2, 169454, Note_on_c, 0, 60, 127
2, 169454, Note_on_c, 4, 64, 127
2, 169660, Note_off_c, 0, 60, 127
2, 169661, Note_on_c, 12, 59, 127
2, 169867, Note_off_c, 12, 59, 127
2, 169868, Note_on_c, 11, 58, 127
2, 170074, Note_off_c, 11, 58, 127
2, 170074, Note_off_c, 4, 64, 127
2, 170075, Note_on_c, 8, 56, 127
2, 170281, Note_off_c, 8, 56, 127
2, 170282, Note_on_c, 7, 55, 127
2, 170282, Note_on_c, 11, 70, 127
2, 170488, Note_off_c, 11, 70, 127
2, 170488, Note_off_c, 7, 55, 127
2, 170489, Note_on_c, 5, 53, 127
2, 170489, Note_on_c, 11, 70, 127
2, 170699, Note_off_c, 11, 70, 127
2, 170700, Note_on_c, 8, 68, 127
2, 170910, Note_off_c, 8, 68, 127
2, 170911, Note_on_c, 1, 73, 127
2, 171017, Note_off_c, 5, 53, 127
2, 171122, Note_off_c, 1, 73, 127
2, 171123, Note_on_c, 5, 53, 127
2, 171123, Note_on_c, 1, 73, 127
2, 171123, Note_on_c, 8, 68, 127
2, 171333, Note_off_c, 8, 68, 127
2, 171333, Note_off_c, 1, 73, 127
2, 171333, Note_off_c, 5, 53, 127
2, 171334, Note_on_c, 5, 53, 127
2, 171334, Note_on_c, 8, 68, 127
2, 171334, Note_on_c, 1, 73, 127
2, 171544, Note_off_c, 1, 73, 127
2, 171544, Note_off_c, 8, 68, 127
2, 171544, Note_off_c, 5, 53, 127
2, 171545, Note_on_c, 3, 51, 127
2, 171545, Note_on_c, 0, 72, 127
2, 171545, Note_on_c, 7, 67, 127
2, 171755, Note_off_c, 7, 67, 127
2, 171755, Note_off_c, 0, 72, 127
2, 171755, Note_off_c, 3, 51, 127
2, 171756, Note_on_c, 1, 49, 127
2, 171756, Note_on_c, 5, 77, 127
2, 171756, Note_on_c, 5, 65, 127
2, 171966, Note_off_c, 5, 65, 127
2, 171966, Note_off_c, 5, 77, 127
2, 171966, Note_off_c, 1, 49, 127
2, 171967, Note_on_c, 1, 61, 127
2, 171967, Note_on_c, 11, 70, 127
2, 171967, Note_on_c, 5, 77, 127
2, 172177, Note_off_c, 5, 77, 127
2, 172177, Note_off_c, 11, 70, 127
2, 172177, Note_off_c, 1, 61, 127
2, 172178, Note_on_c, 1, 61, 127
2, 172178, Note_on_c, 11, 70, 127
2, 172178, Note_on_c, 5, 77, 127
2, 172388, Note_off_c, 5, 77, 127
2, 172388, Note_off_c, 11, 70, 127
2, 172388, Note_off_c, 1, 61, 127
2, 172389, Note_on_c, 0, 60, 127
2, 172389, Note_on_c, 4, 76, 127
2, 172389, Note_on_c, 0, 72, 127
2, 172599, Note_off_c, 0, 72, 127
2, 172599, Note_off_c, 4, 76, 127
2, 172600, Note_on_c, 8, 80, 127
2, 172697, Note_off_c, 0, 60, 127
2, 172810, Note_off_c, 8, 80, 127
2, 172811, Note_on_c, 0, 60, 127
2, 172811, Note_on_c, 5, 77, 127
2, 172811, Note_on_c, 8, 80, 127
2, 173021, Note_off_c, 8, 80, 127
2, 173021, Note_off_c, 5, 77, 127
2, 173021, Note_off_c, 0, 60, 127
2, 173022, Note_on_c, 0, 60, 127
2, 173022, Note_on_c, 8, 80, 127
2, 173022, Note_on_c, 5, 77, 127
2, 173232, Note_off_c, 5, 77, 127
2, 173232, Note_off_c, 8, 80, 127
2, 173232, Note_off_c, 0, 60, 127
2, 173233, Note_on_c, 11, 58, 127
2, 173233, Note_on_c, 7, 79, 127
2, 173233, Note_on_c, 4, 76, 127
2, 173443, Note_off_c, 4, 76, 127
2, 173443, Note_off_c, 7, 79, 127
2, 173444, Note_on_c, 11, 82, 127
2, 173541, Note_off_c, 11, 58, 127
2, 173654, Note_off_c, 11, 82, 127
2, 173655, Note_on_c, 7, 55, 127
2, 173655, Note_on_c, 11, 82, 127
2, 173655, Note_on_c, 4, 76, 127
2, 173865, Note_off_c, 4, 76, 127
2, 173865, Note_off_c, 11, 82, 127
2, 173865, Note_off_c, 7, 55, 127
2, 173866, Note_on_c, 7, 55, 127
2, 173866, Note_on_c, 11, 82, 127
2, 173866, Note_on_c, 4, 76, 127
2, 174076, Note_off_c, 4, 76, 127
2, 174076, Note_off_c, 11, 82, 127
2, 174076, Note_off_c, 7, 55, 127
2, 174077, Note_on_c, 5, 53, 127
2, 174077, Note_on_c, 5, 77, 127
2, 174077, Note_on_c, 8, 80, 127
2, 174287, Note_off_c, 8, 80, 127
2, 174287, Note_off_c, 5, 77, 127
2, 174288, Note_on_c, 0, 84, 127
2, 174385, Note_off_c, 5, 53, 127
2, 174498, Note_off_c, 0, 84, 127
2, 174499, Note_on_c, 8, 56, 127
2, 174499, Note_on_c, 11, 82, 127
2, 174499, Note_on_c, 7, 79, 127
2, 174709, Note_off_c, 7, 79, 127
2, 174709, Note_off_c, 11, 82, 127
2, 174709, Note_off_c, 8, 56, 127
2, 174710, Note_on_c, 11, 58, 127
2, 174710, Note_on_c, 7, 79, 127
2, 174710, Note_on_c, 11, 82, 127
2, 174920, Note_off_c, 11, 82, 127
2, 174920, Note_off_c, 7, 79, 127
2, 174920, Note_off_c, 11, 58, 127
2, 174921, Note_on_c, 12, 59, 127
2, 174921, Note_on_c, 5, 77, 127
2, 174921, Note_on_c, 8, 80, 127
2, 175131, Note_off_c, 8, 80, 127
2, 175131, Note_off_c, 5, 77, 127
2, 175131, Note_off_c, 12, 59, 127
2, 175132, Note_on_c, 0, 60, 127
2, 175132, Note_on_c, 8, 80, 127
2, 175132, Note_on_c, 5, 77, 127
2, 175342, Note_off_c, 5, 77, 127
2, 175342, Note_off_c, 8, 80, 127
2, 175342, Note_off_c, 0, 60, 127
2, 175343, Note_on_c, 0, 48, 127
2, 175343, Note_on_c, 7, 79, 127
2, 175343, Note_on_c, 11, 70, 127
2, 175553, Note_off_c, 11, 70, 127
2, 175553, Note_off_c, 7, 79, 127
2, 175553, Note_off_c, 0, 48, 127
2, 175554, Note_on_c, 5, 53, 127
2, 175554, Note_on_c, 11, 70, 127
2, 175554, Note_on_c, 7, 79, 127
2, 175764, Note_off_c, 7, 79, 127
2, 175764, Note_off_c, 11, 70, 127
2, 175765, Note_on_c, 8, 68, 127
2, 175765, Note_on_c, 5, 77, 127
2, 175975, Note_off_c, 5, 77, 127
2, 175975, Note_off_c, 8, 68, 127
2, 175975, Note_off_c, 5, 53, 127
2, 175976, Note_on_c, 5, 41, 127
2, 175976, Note_on_c, 8, 68, 127
2, 175976, Note_on_c, 5, 77, 127
2, 176186, Note_off_c, 5, 77, 127
2, 176187, Note_on_c, 3, 75, 127
2, 176397, Note_off_c, 3, 75, 127
2, 176397, Note_off_c, 5, 41, 127
2, 176398, Note_on_c, 5, 53, 127
2, 176398, Note_on_c, 3, 75, 127
2, 176608, Note_off_c, 3, 75, 127
2, 176609, Note_on_c, 1, 73, 127
2, 176819, Note_off_c, 1, 73, 127
2, 176819, Note_off_c, 5, 53, 127
2, 176819, Note_off_c, 8, 68, 127
2, 176820, Note_on_c, 4, 52, 127
2, 176820, Note_on_c, 1, 73, 127
2, 176820, Note_on_c, 7, 67, 127
2, 177030, Note_off_c, 1, 73, 127
2, 177031, Note_on_c, 0, 72, 127
2, 177241, Note_off_c, 4, 52, 127
2, 177242, Note_on_c, 4, 40, 127
2, 177339, Note_off_c, 0, 72, 127
2, 177453, Note_on_c, 11, 70, 127
2, 177663, Note_off_c, 11, 70, 127
2, 177663, Note_off_c, 4, 40, 127
2, 177664, Note_on_c, 4, 52, 127
2, 177664, Note_on_c, 0, 72, 127
2, 177874, Note_off_c, 0, 72, 127
2, 177875, Note_on_c, 11, 70, 127
2, 178084, Note_off_c, 7, 67, 127
2, 178085, Note_off_c, 11, 70, 127
2, 178085, Note_off_c, 4, 52, 127
2, 178086, Note_on_c, 5, 53, 127
2, 178086, Note_on_c, 0, 60, 127
2, 178086, Note_on_c, 11, 70, 127
2, 178296, Note_off_c, 11, 70, 127
2, 178297, Note_on_c, 8, 68, 127
2, 178504, Note_off_c, 0, 60, 127
2, 178507, Note_off_c, 8, 68, 127
2, 178507, Note_off_c, 5, 53, 127
2, 178508, Note_on_c, 1, 49, 127
2, 178508, Note_on_c, 8, 68, 127
2, 178508, Note_on_c, 11, 58, 127
2, 178718, Note_off_c, 8, 68, 127
2, 178719, Note_on_c, 6, 66, 127
2, 178926, Note_off_c, 11, 58, 127
2, 178929, Note_off_c, 6, 66, 127
2, 178929, Note_off_c, 1, 49, 127
2, 178930, Note_on_c, 11, 46, 127
2, 178930, Note_on_c, 6, 66, 127
2, 178930, Note_on_c, 1, 61, 127
2, 179140, Note_off_c, 6, 66, 127
2, 179141, Note_on_c, 5, 65, 127
2, 179348, Note_off_c, 1, 61, 127
2, 179351, Note_off_c, 5, 65, 127
2, 179351, Note_off_c, 11, 46, 127
2, 179352, Note_on_c, 0, 48, 127
2, 179352, Note_on_c, 0, 60, 127
2, 179352, Note_on_c, 5, 65, 127
2, 179562, Note_off_c, 5, 65, 127
2, 179563, Note_on_c, 4, 64, 127
2, 179770, Note_off_c, 0, 60, 127
2, 179773, Note_off_c, 0, 48, 127
2, 179774, Note_on_c, 0, 36, 127
2, 179871, Note_off_c, 4, 64, 127
2, 179985, Note_on_c, 11, 70, 127
2, 180195, Note_off_c, 11, 70, 127
2, 180195, Note_off_c, 0, 36, 127
2, 180196, Note_on_c, 0, 48, 127
2, 180196, Note_on_c, 4, 64, 127
2, 180196, Note_on_c, 8, 68, 127
2, 180399, Note_on_c, 0, 60, 127
2, 180407, Note_off_c, 4, 64, 127
2, 180479, Note_on_c, 7, 67, 127
2, 180486, Note_off_c, 8, 68, 127
2, 180609, Note_off_c, 0, 60, 127
2, 180619, Note_off_c, 0, 48, 127
2, 180620, Note_off_c, 7, 67, 127
2, 180620, Note_on_c, 5, 53, 127
2, 180620, Note_on_c, 7, 67, 127
2, 180620, Note_on_c, 8, 56, 127
2, 180836, Note_off_c, 7, 67, 127
2, 180837, Note_on_c, 5, 65, 127
2, 181050, Note_off_c, 8, 56, 127
2, 181053, Note_off_c, 5, 53, 127
2, 181054, Note_on_c, 8, 56, 127
2, 181267, Note_off_c, 5, 65, 127
2, 181270, Note_off_c, 8, 56, 127
2, 181271, Note_on_c, 10, 57, 127
2, 181487, Note_off_c, 10, 57, 127
2, 181488, Note_on_c, 11, 58, 127
2, 181704, Note_off_c, 11, 58, 127
2, 181705, Note_on_c, 12, 59, 127
2, 181921, Note_off_c, 12, 59, 127
2, 181922, Note_on_c, 0, 60, 127
2, 182138, Note_off_c, 0, 60, 127
2, 182139, Note_on_c, 5, 53, 127
2, 182355, Note_off_c, 5, 53, 127
2, 182356, Note_on_c, 4, 52, 127
2, 182572, Note_off_c, 4, 52, 127
2, 182573, Note_on_c, 3, 51, 127
2, 182789, Note_off_c, 3, 51, 127
2, 182790, Note_on_c, 2, 50, 127
2, 183006, Note_off_c, 2, 50, 127
2, 183007, Note_on_c, 1, 49, 127
2, 183223, Note_off_c, 1, 49, 127
2, 183224, Note_on_c, 0, 48, 127
2, 183449, Note_off_c, 0, 48, 127
2, 183450, Note_on_c, 0, 60, 127
2, 183675, Note_off_c, 0, 60, 127
2, 183676, Note_on_c, 1, 61, 127
2, 183901, Note_off_c, 1, 61, 127
2, 183902, Note_on_c, 2, 50, 127
2, 184127, Note_off_c, 2, 50, 127
2, 184128, Note_on_c, 3, 51, 127
2, 184353, Note_off_c, 3, 51, 127
2, 184354, Note_on_c, 4, 64, 127
2, 184579, Note_off_c, 4, 64, 127
2, 184580, Note_on_c, 5, 65, 127
2, 184805, Note_off_c, 5, 65, 127
2, 184806, Note_on_c, 11, 46, 127
2, 185031, Note_off_c, 11, 46, 127
2, 185032, Note_on_c, 0, 48, 127
2, 185483, Note_off_c, 0, 48, 127
2, 185524, Note_on_c, 0, 36, 127
2, 185524, Note_on_c, 7, 55, 127
2, 185524, Note_on_c, 4, 64, 127
2, 185975, Note_off_c, 4, 64, 127
2, 185975, Note_off_c, 7, 55, 127
2, 185975, Note_off_c, 0, 36, 127
2, 186024, Note_on_c, 5, 65, 127
2, 186024, Note_on_c, 8, 56, 127
2, 186024, Note_on_c, 5, 41, 127
2, 187377, Note_off_c, 5, 41, 127
2, 187377, Note_off_c, 8, 56, 127
2, 187377, Note_off_c, 5, 65, 127
2, 189119, Note_on_c, 2, 50, 127
2, 189119, Note_on_c, 5, 53, 127
2, 189119, Note_on_c, 8, 56, 127
2, 189119, Note_on_c, 11, 58, 127
2, 189119, Note_on_c, 2, 62, 127
2, 189119, Note_on_c, 5, 65, 127
2, 189119, Note_on_c, 2, 74, 127
2, 189119, Note_on_c, 8, 68, 127
2, 189119, Note_on_c, 11, 70, 127
2, 190178, Note_off_c, 11, 70, 127
2, 190178, Note_off_c, 8, 68, 127
2, 190178, Note_off_c, 5, 65, 127
2, 190178, Note_off_c, 2, 62, 127
2, 190178, Note_off_c, 11, 58, 127
2, 190178, Note_off_c, 8, 56, 127
2, 190178, Note_off_c, 5, 53, 127
2, 190178, Note_off_c, 2, 50, 127
2, 190473, Note_off_c, 2, 74, 127
2, 190474, Note_on_c, 8, 56, 127
2, 190474, Note_on_c, 5, 53, 127
2, 190474, Note_on_c, 2, 50, 127
2, 190474, Note_on_c, 11, 58, 127
2, 190474, Note_on_c, 8, 68, 127
2, 190474, Note_on_c, 11, 70, 127
2, 190474, Note_on_c, 5, 65, 127
2, 190474, Note_on_c, 2, 62, 127
2, 190925, Note_off_c, 2, 62, 127
2, 190925, Note_off_c, 5, 65, 127
2, 190925, Note_off_c, 11, 70, 127
2, 190925, Note_off_c, 8, 68, 127
2, 190925, Note_off_c, 11, 58, 127
2, 190925, Note_off_c, 2, 50, 127
2, 190925, Note_off_c, 5, 53, 127
2, 190925, Note_off_c, 8, 56, 127
2, 190926, Note_on_c, 7, 55, 127
2, 190926, Note_on_c, 3, 51, 127
2, 190926, Note_on_c, 11, 58, 127
2, 190926, Note_on_c, 3, 63, 127
2, 190926, Note_on_c, 7, 67, 127
2, 190926, Note_on_c, 11, 70, 127
2, 191032, Note_off_c, 11, 70, 127
2, 191985, Note_off_c, 7, 67, 127
2, 191985, Note_off_c, 3, 63, 127
2, 191985, Note_off_c, 11, 58, 127
2, 191985, Note_off_c, 3, 51, 127
2, 191985, Note_off_c, 7, 55, 127
2, 192281, Note_on_c, 3, 51, 127
2, 192281, Note_on_c, 7, 55, 127
2, 192281, Note_on_c, 11, 58, 127
2, 192281, Note_on_c, 7, 67, 127
2, 192281, Note_on_c, 3, 63, 127
2, 192281, Note_on_c, 11, 70, 127
2, 192732, Note_off_c, 11, 70, 127
2, 192732, Note_off_c, 3, 63, 127
2, 192732, Note_off_c, 7, 67, 127
2, 192732, Note_off_c, 11, 58, 127
2, 192732, Note_off_c, 7, 55, 127
2, 192732, Note_off_c, 3, 51, 127
2, 192733, Note_on_c, 3, 51, 127
2, 192733, Note_on_c, 11, 46, 127
2, 192733, Note_on_c, 7, 43, 127
2, 192733, Note_on_c, 11, 70, 127
2, 192733, Note_on_c, 1, 73, 127
2, 192733, Note_on_c, 3, 63, 127
2, 192733, Note_on_c, 7, 67, 127
2, 192839, Note_off_c, 11, 70, 127
2, 193792, Note_off_c, 7, 67, 127
2, 193792, Note_off_c, 3, 63, 127
2, 193792, Note_off_c, 1, 73, 127
2, 193792, Note_off_c, 7, 43, 127
2, 193792, Note_off_c, 11, 46, 127
2, 193792, Note_off_c, 3, 51, 127
2, 194088, Note_on_c, 11, 46, 127
2, 194088, Note_on_c, 3, 51, 127
2, 194088, Note_on_c, 7, 43, 127
2, 194088, Note_on_c, 1, 73, 127
2, 194088, Note_on_c, 11, 70, 127
2, 194088, Note_on_c, 7, 67, 127
2, 194088, Note_on_c, 3, 63, 127
2, 194539, Note_off_c, 3, 63, 127
2, 194539, Note_off_c, 7, 67, 127
2, 194539, Note_off_c, 11, 70, 127
2, 194539, Note_off_c, 1, 73, 127
2, 194539, Note_off_c, 7, 43, 127
2, 194539, Note_off_c, 3, 51, 127
2, 194539, Note_off_c, 11, 46, 127
2, 194540, Note_on_c, 8, 44, 127
2, 194540, Note_on_c, 3, 51, 127
2, 194540, Note_on_c, 8, 56, 127
2, 194540, Note_on_c, 3, 63, 127
2, 194540, Note_on_c, 0, 72, 127
2, 194540, Note_on_c, 8, 68, 127
2, 194765, Note_off_c, 8, 68, 127
2, 194765, Note_off_c, 0, 72, 127
2, 194766, Note_on_c, 11, 70, 127
2, 194766, Note_on_c, 7, 67, 127
2, 194987, Note_off_c, 3, 63, 127
2, 194991, Note_off_c, 7, 67, 127
2, 194991, Note_off_c, 11, 70, 127
2, 194992, Note_on_c, 5, 65, 127
2, 194992, Note_on_c, 8, 68, 127
2, 195105, Note_off_c, 8, 56, 127
2, 195105, Note_off_c, 3, 51, 127
2, 195105, Note_off_c, 8, 44, 127
2, 195217, Note_off_c, 8, 68, 127
2, 195217, Note_off_c, 5, 65, 127
2, 195218, Note_on_c, 8, 56, 127
2, 195218, Note_on_c, 3, 63, 127
2, 195218, Note_on_c, 7, 67, 127
2, 195443, Note_off_c, 7, 67, 127
2, 195443, Note_off_c, 3, 63, 127
2, 195443, Note_off_c, 8, 56, 127
2, 195444, Note_on_c, 11, 58, 127
2, 195444, Note_on_c, 2, 62, 127
2, 195444, Note_on_c, 5, 65, 127
2, 195669, Note_off_c, 2, 62, 127
2, 195669, Note_off_c, 11, 58, 127
2, 195670, Note_on_c, 8, 56, 127
2, 195670, Note_on_c, 0, 60, 127
2, 195891, Note_off_c, 5, 65, 127
2, 195893, Note_off_c, 0, 60, 127
2, 195894, Note_off_c, 8, 56, 127
2, 195895, Note_on_c, 7, 55, 127
2, 195895, Note_on_c, 11, 58, 127
2, 196120, Note_off_c, 11, 58, 127
2, 196120, Note_off_c, 7, 55, 127
2, 196121, Note_on_c, 8, 56, 127
2, 196121, Note_on_c, 5, 53, 127
2, 196121, Note_on_c, 2, 62, 127
2, 196121, Note_on_c, 5, 65, 127
2, 196346, Note_off_c, 5, 65, 127
2, 196346, Note_off_c, 2, 62, 127
2, 196346, Note_off_c, 5, 53, 127
2, 196346, Note_off_c, 8, 56, 127
2, 196347, Note_on_c, 7, 55, 127
2, 196347, Note_on_c, 11, 58, 127
2, 196347, Note_on_c, 3, 51, 127
2, 196347, Note_on_c, 3, 63, 127
2, 196347, Note_on_c, 3, 75, 127
2, 196347, Note_on_c, 7, 67, 127
2, 196572, Note_off_c, 3, 75, 127
2, 196573, Note_on_c, 1, 73, 127
2, 196794, Note_off_c, 7, 67, 127
2, 196794, Note_off_c, 3, 63, 127
2, 196798, Note_off_c, 1, 73, 127
2, 196798, Note_off_c, 3, 51, 127
2, 196798, Note_off_c, 11, 58, 127
2, 196798, Note_off_c, 7, 55, 127
2, 196799, Note_on_c, 8, 56, 127
2, 196799, Note_on_c, 0, 72, 127
2, 197024, Note_off_c, 0, 72, 127
2, 197024, Note_off_c, 8, 56, 127
2, 197025, Note_on_c, 3, 51, 127
2, 197025, Note_on_c, 7, 55, 127
2, 197025, Note_on_c, 3, 63, 127
2, 197025, Note_on_c, 11, 70, 127
2, 197250, Note_off_c, 11, 70, 127
2, 197250, Note_off_c, 3, 63, 127
2, 197250, Note_off_c, 7, 55, 127
2, 197250, Note_off_c, 3, 51, 127
2, 197251, Note_on_c, 8, 44, 127
2, 197251, Note_on_c, 8, 56, 127
2, 197251, Note_on_c, 0, 72, 127
2, 197251, Note_on_c, 8, 68, 127
2, 197251, Note_on_c, 3, 63, 127
2, 197476, Note_off_c, 8, 68, 127
2, 197477, Note_on_c, 7, 67, 127
2, 197698, Note_off_c, 3, 63, 127
2, 197698, Note_off_c, 0, 72, 127
2, 197702, Note_off_c, 7, 67, 127
2, 197703, Note_on_c, 5, 65, 127
2, 197816, Note_off_c, 8, 56, 127
2, 197816, Note_off_c, 8, 44, 127
2, 197928, Note_off_c, 5, 65, 127
2, 197929, Note_on_c, 10, 45, 127
2, 197929, Note_on_c, 5, 53, 127
2, 197929, Note_on_c, 3, 63, 127
2, 197929, Note_on_c, 0, 72, 127
2, 197929, Note_on_c, 5, 65, 127
2, 198154, Note_off_c, 5, 65, 127
2, 198154, Note_off_c, 0, 72, 127
2, 198154, Note_off_c, 3, 63, 127
2, 198154, Note_off_c, 5, 53, 127
2, 198154, Note_off_c, 10, 45, 127
2, 198155, Note_on_c, 5, 53, 127
2, 198155, Note_on_c, 11, 46, 127
2, 198155, Note_on_c, 2, 74, 127
2, 198155, Note_on_c, 5, 65, 127
2, 198155, Note_on_c, 2, 62, 127
2, 198380, Note_off_c, 2, 74, 127
2, 198381, Note_on_c, 0, 72, 127
2, 198602, Note_off_c, 2, 62, 127
2, 198602, Note_off_c, 5, 65, 127
2, 198606, Note_off_c, 0, 72, 127
2, 198606, Note_off_c, 11, 46, 127
2, 198606, Note_off_c, 5, 53, 127
2, 198607, Note_on_c, 7, 55, 127
2, 198607, Note_on_c, 11, 70, 127
2, 198832, Note_off_c, 11, 70, 127
2, 198832, Note_off_c, 7, 55, 127
2, 198833, Note_on_c, 2, 50, 127
2, 198833, Note_on_c, 10, 57, 127
2, 198833, Note_on_c, 6, 42, 127
2, 198833, Note_on_c, 2, 62, 127
2, 198833, Note_on_c, 10, 69, 127
2, 199058, Note_off_c, 10, 69, 127
2, 199058, Note_off_c, 2, 62, 127
2, 199058, Note_off_c, 6, 42, 127
2, 199058, Note_off_c, 10, 57, 127
2, 199058, Note_off_c, 2, 50, 127
2, 199059, Note_on_c, 2, 50, 127
2, 199059, Note_on_c, 7, 55, 127
2, 199059, Note_on_c, 7, 43, 127
2, 199059, Note_on_c, 11, 70, 127
2, 199059, Note_on_c, 7, 67, 127
2, 199284, Note_off_c, 7, 43, 127
2, 199285, Note_on_c, 10, 45, 127
2, 199506, Note_off_c, 7, 55, 127
2, 199506, Note_off_c, 2, 50, 127
2, 199510, Note_off_c, 10, 45, 127
2, 199510, Note_off_c, 7, 67, 127
2, 199510, Note_off_c, 11, 70, 127
2, 199511, Note_on_c, 11, 46, 127
2, 199511, Note_on_c, 10, 69, 127
2, 199736, Note_off_c, 10, 69, 127
2, 199736, Note_off_c, 11, 46, 127
2, 199737, Note_on_c, 0, 48, 127
2, 199737, Note_on_c, 0, 60, 127
2, 199737, Note_on_c, 3, 63, 127
2, 199737, Note_on_c, 7, 67, 127
2, 199962, Note_off_c, 7, 67, 127
2, 199962, Note_off_c, 3, 63, 127
2, 199962, Note_off_c, 0, 60, 127
2, 199962, Note_off_c, 0, 48, 127
2, 199963, Note_on_c, 10, 57, 127
2, 199963, Note_on_c, 2, 50, 127
2, 199963, Note_on_c, 6, 66, 127
2, 199963, Note_on_c, 2, 62, 127
2, 200188, Note_off_c, 2, 62, 127
2, 200189, Note_on_c, 0, 60, 127
2, 200410, Note_off_c, 6, 66, 127
2, 200414, Note_off_c, 0, 60, 127
2, 200414, Note_off_c, 2, 50, 127
2, 200414, Note_off_c, 10, 57, 127
2, 200415, Note_on_c, 11, 58, 127
2, 200415, Note_on_c, 2, 74, 127
2, 200640, Note_off_c, 2, 74, 127
2, 200640, Note_off_c, 11, 58, 127
2, 200641, Note_on_c, 2, 50, 127
2, 200641, Note_on_c, 10, 57, 127
2, 200641, Note_on_c, 0, 72, 127
2, 200641, Note_on_c, 6, 66, 127
2, 200866, Note_off_c, 6, 66, 127
2, 200866, Note_off_c, 0, 72, 127
2, 200866, Note_off_c, 10, 57, 127
2, 200866, Note_off_c, 2, 50, 127
2, 200867, Note_on_c, 7, 43, 127
2, 200867, Note_on_c, 7, 55, 127
2, 200867, Note_on_c, 11, 70, 127
2, 200867, Note_on_c, 7, 79, 127
2, 201092, Note_off_c, 7, 79, 127
2, 201092, Note_off_c, 11, 70, 127
2, 201093, Note_on_c, 5, 77, 127
2, 201093, Note_on_c, 10, 69, 127
2, 201318, Note_off_c, 10, 69, 127
2, 201318, Note_off_c, 5, 77, 127
2, 201319, Note_on_c, 4, 76, 127
2, 201319, Note_on_c, 7, 67, 127
2, 201432, Note_off_c, 7, 55, 127
2, 201432, Note_off_c, 7, 43, 127
2, 201544, Note_off_c, 7, 67, 127
2, 201544, Note_off_c, 4, 76, 127
2, 201545, Note_on_c, 7, 55, 127
2, 201545, Note_on_c, 4, 52, 127
2, 201545, Note_on_c, 2, 74, 127
2, 201545, Note_on_c, 5, 65, 127
2, 201770, Note_off_c, 5, 65, 127
2, 201770, Note_off_c, 2, 74, 127
2, 201770, Note_off_c, 4, 52, 127
2, 201770, Note_off_c, 7, 55, 127
2, 201771, Note_on_c, 10, 45, 127
2, 201771, Note_on_c, 10, 57, 127
2, 201771, Note_on_c, 1, 73, 127
2, 201771, Note_on_c, 4, 64, 127
2, 201996, Note_off_c, 10, 57, 127
2, 201997, Note_on_c, 7, 55, 127
2, 202218, Note_off_c, 10, 45, 127
2, 202222, Note_off_c, 7, 55, 127
2, 202222, Note_off_c, 4, 64, 127
2, 202222, Note_off_c, 1, 73, 127
2, 202223, Note_on_c, 5, 53, 127
2, 202223, Note_on_c, 2, 74, 127
2, 202223, Note_on_c, 5, 65, 127
2, 202223, Note_on_c, 12, 59, 127
2, 202448, Note_off_c, 12, 59, 127
2, 202448, Note_off_c, 5, 65, 127
2, 202448, Note_off_c, 2, 74, 127
2, 202448, Note_off_c, 5, 53, 127
2, 202449, Note_on_c, 4, 52, 127
2, 202449, Note_on_c, 4, 76, 127
2, 202449, Note_on_c, 1, 61, 127
2, 202449, Note_on_c, 7, 67, 127
2, 202674, Note_off_c, 7, 67, 127
2, 202674, Note_off_c, 1, 61, 127
2, 202674, Note_off_c, 4, 76, 127
2, 202674, Note_off_c, 4, 52, 127
2, 202675, Note_on_c, 2, 50, 127
2, 202675, Note_on_c, 10, 57, 127
2, 202675, Note_on_c, 2, 74, 127
2, 202675, Note_on_c, 2, 62, 127
2, 202675, Note_on_c, 5, 77, 127
2, 202675, Note_on_c, 10, 69, 127
2, 202899, Note_off_c, 2, 62, 127
2, 202900, Note_off_c, 2, 50, 127
2, 202901, Note_on_c, 0, 48, 127
2, 203122, Note_off_c, 10, 57, 127
2, 203126, Note_off_c, 0, 48, 127
2, 203127, Note_on_c, 11, 46, 127
2, 203240, Note_off_c, 10, 69, 127
2, 203240, Note_off_c, 5, 77, 127
2, 203240, Note_off_c, 2, 74, 127
2, 203352, Note_off_c, 11, 46, 127
2, 203353, Note_on_c, 5, 53, 127
2, 203353, Note_on_c, 10, 45, 127
2, 203353, Note_on_c, 0, 72, 127
2, 203353, Note_on_c, 5, 65, 127
2, 203353, Note_on_c, 10, 69, 127
2, 203578, Note_off_c, 10, 69, 127
2, 203578, Note_off_c, 5, 65, 127
2, 203578, Note_off_c, 0, 72, 127
2, 203578, Note_off_c, 10, 45, 127
2, 203578, Note_off_c, 5, 53, 127
2, 203579, Note_on_c, 5, 53, 127
2, 203579, Note_on_c, 11, 46, 127
2, 203579, Note_on_c, 2, 50, 127
2, 203579, Note_on_c, 5, 65, 127
2, 203579, Note_on_c, 2, 74, 127
2, 203805, Note_on_c, 5, 77, 127
2, 204026, Note_off_c, 2, 74, 127
2, 204026, Note_off_c, 5, 65, 127
2, 204030, Note_off_c, 5, 77, 127
2, 204030, Note_off_c, 2, 50, 127
2, 204030, Note_off_c, 11, 46, 127
2, 204030, Note_off_c, 5, 53, 127
2, 204031, Note_on_c, 0, 48, 127
2, 204031, Note_on_c, 10, 45, 127
2, 204031, Note_on_c, 5, 53, 127
2, 204031, Note_on_c, 5, 65, 127
2, 204031, Note_on_c, 0, 72, 127
2, 204257, Note_on_c, 5, 77, 127
2, 204478, Note_off_c, 0, 72, 127
2, 204478, Note_off_c, 5, 65, 127
2, 204482, Note_off_c, 5, 77, 127
2, 204482, Note_off_c, 5, 53, 127
2, 204482, Note_off_c, 10, 45, 127
2, 204482, Note_off_c, 0, 48, 127
2, 204483, Note_on_c, 7, 43, 127
2, 204483, Note_on_c, 4, 52, 127
2, 204483, Note_on_c, 11, 70, 127
2, 204483, Note_on_c, 7, 67, 127
2, 204709, Note_on_c, 5, 77, 127
2, 204930, Note_off_c, 7, 67, 127
2, 204930, Note_off_c, 11, 70, 127
2, 204934, Note_off_c, 5, 77, 127
2, 204934, Note_off_c, 4, 52, 127
2, 204934, Note_off_c, 7, 43, 127
2, 204935, Note_on_c, 5, 41, 127
2, 204935, Note_on_c, 5, 53, 127
2, 204935, Note_on_c, 0, 48, 127
2, 204935, Note_on_c, 10, 69, 127
2, 204935, Note_on_c, 0, 72, 127
2, 205161, Note_on_c, 5, 77, 127
2, 205382, Note_off_c, 0, 72, 127
2, 205382, Note_off_c, 10, 69, 127
2, 205386, Note_off_c, 5, 77, 127
2, 205386, Note_off_c, 0, 48, 127
2, 205386, Note_off_c, 5, 53, 127
2, 205386, Note_off_c, 5, 41, 127
2, 205387, Note_on_c, 7, 55, 127
2, 205387, Note_on_c, 2, 50, 127
2, 205387, Note_on_c, 11, 46, 127
2, 205387, Note_on_c, 7, 67, 127
2, 205387, Note_on_c, 11, 70, 127
2, 205387, Note_on_c, 2, 74, 127
2, 205613, Note_on_c, 5, 77, 127
2, 205834, Note_off_c, 2, 74, 127
2, 205834, Note_off_c, 11, 70, 127
2, 205834, Note_off_c, 7, 67, 127
2, 205838, Note_off_c, 5, 77, 127
2, 205838, Note_off_c, 11, 46, 127
2, 205838, Note_off_c, 2, 50, 127
2, 205838, Note_off_c, 7, 55, 127
2, 205839, Note_on_c, 11, 58, 127
2, 205839, Note_on_c, 0, 48, 127
2, 205839, Note_on_c, 7, 55, 127
2, 205839, Note_on_c, 4, 52, 127
2, 205839, Note_on_c, 7, 67, 127
2, 205839, Note_on_c, 11, 70, 127
2, 205839, Note_on_c, 0, 72, 127
2, 206065, Note_on_c, 4, 76, 127
2, 206286, Note_off_c, 0, 72, 127
2, 206286, Note_off_c, 11, 70, 127
2, 206286, Note_off_c, 7, 67, 127
2, 206290, Note_off_c, 4, 76, 127
2, 206290, Note_off_c, 4, 52, 127
2, 206290, Note_off_c, 7, 55, 127
2, 206290, Note_off_c, 0, 48, 127
2, 206290, Note_off_c, 11, 58, 127
2, 206291, Note_on_c, 0, 60, 127
2, 206291, Note_on_c, 5, 53, 127
2, 206291, Note_on_c, 5, 77, 127
2, 206291, Note_on_c, 10, 69, 127
2, 206291, Note_on_c, 0, 72, 127
2, 206516, Note_off_c, 0, 60, 127
2, 206517, Note_on_c, 11, 58, 127
2, 206738, Note_off_c, 5, 53, 127
2, 206742, Note_off_c, 11, 58, 127
2, 206742, Note_off_c, 0, 72, 127
2, 206742, Note_off_c, 10, 69, 127
2, 206742, Note_off_c, 5, 77, 127
2, 206743, Note_on_c, 10, 57, 127
2, 206743, Note_on_c, 0, 72, 127
2, 206968, Note_off_c, 0, 72, 127
2, 206968, Note_off_c, 10, 57, 127
2, 206969, Note_on_c, 0, 48, 127
2, 206969, Note_on_c, 7, 55, 127
2, 206969, Note_on_c, 4, 64, 127
2, 206969, Note_on_c, 11, 70, 127
2, 207194, Note_off_c, 11, 70, 127
2, 207194, Note_off_c, 4, 64, 127
2, 207194, Note_off_c, 7, 55, 127
2, 207194, Note_off_c, 0, 48, 127
2, 207195, Note_on_c, 5, 53, 127
2, 207195, Note_on_c, 0, 60, 127
2, 207195, Note_on_c, 10, 69, 127
2, 207195, Note_on_c, 5, 65, 127
2, 207420, Note_off_c, 5, 65, 127
2, 207420, Note_off_c, 10, 69, 127
2, 207420, Note_off_c, 0, 60, 127
2, 207421, Note_on_c, 11, 58, 127
2, 207421, Note_on_c, 7, 67, 127
2, 207642, Note_off_c, 5, 53, 127
2, 207646, Note_off_c, 7, 67, 127
2, 207646, Note_off_c, 11, 58, 127
2, 207647, Note_on_c, 10, 57, 127
2, 207647, Note_on_c, 5, 65, 127
2, 207967, Note_off_c, 5, 65, 127
2, 207967, Note_off_c, 10, 57, 127
2, 207999, Note_on_c, 0, 60, 127
2, 207999, Note_on_c, 4, 64, 127
2, 207999, Note_on_c, 7, 55, 127
2, 207999, Note_on_c, 0, 48, 127
2, 208339, Note_off_c, 0, 48, 127
2, 208339, Note_off_c, 7, 55, 127
2, 208339, Note_off_c, 4, 64, 127
2, 208339, Note_off_c, 0, 60, 127
2, 208383, Note_on_c, 5, 65, 127
2, 208383, Note_on_c, 0, 60, 127
2, 208383, Note_on_c, 5, 41, 127
2, 208383, Note_on_c, 5, 53, 127
2, 208383, Note_on_c, 10, 57, 127
2, 208383, Note_on_c, 0, 48, 127
2, 211443, Note_off_c, 0, 48, 127
2, 211443, Note_off_c, 10, 57, 127
2, 211443, Note_off_c, 5, 53, 127
2, 211443, Note_off_c, 5, 41, 127
2, 211443, Note_off_c, 0, 60, 127
2, 211443, Note_off_c, 5, 65, 127
2, 212991, Note_on_c, 11, 70, 127
2, 212991, Note_on_c, 11, 46, 127
2, 213181, Note_off_c, 11, 70, 127
2, 213183, Note_on_c, 0, 72, 127
2, 213373, Note_off_c, 0, 72, 127
2, 213375, Note_on_c, 2, 74, 127
2, 213375, Note_on_c, 5, 53, 127
2, 213565, Note_off_c, 2, 74, 127
2, 213567, Note_on_c, 3, 75, 127
2, 213757, Note_off_c, 3, 75, 127
2, 213757, Note_off_c, 5, 53, 127
2, 213759, Note_on_c, 5, 77, 127
2, 213759, Note_on_c, 11, 58, 127
2, 214141, Note_off_c, 5, 77, 127
2, 214141, Note_off_c, 11, 46, 127
2, 214143, Note_on_c, 7, 79, 127
2, 214143, Note_on_c, 3, 51, 127
2, 214525, Note_off_c, 3, 51, 127
2, 214525, Note_off_c, 7, 79, 127
2, 214527, Note_on_c, 5, 77, 127
2, 214527, Note_on_c, 5, 53, 127
2, 214717, Note_off_c, 5, 77, 127
2, 214719, Note_on_c, 7, 79, 127
2, 214909, Note_off_c, 7, 79, 127
2, 214909, Note_off_c, 11, 58, 127
2, 214911, Note_on_c, 5, 77, 127
2, 214911, Note_on_c, 10, 57, 127
2, 215101, Note_off_c, 5, 77, 127
2, 215103, Note_on_c, 3, 75, 127
2, 215287, Note_off_c, 5, 53, 127
2, 215293, Note_off_c, 3, 75, 127
2, 215293, Note_off_c, 10, 57, 127
2, 215295, Note_on_c, 3, 75, 127
2, 215295, Note_on_c, 11, 58, 127
2, 215295, Note_on_c, 11, 46, 127
2, 215389, Note_off_c, 3, 75, 127
2, 215391, Note_on_c, 2, 74, 127
2, 215485, Note_off_c, 2, 74, 127
2, 215487, Note_on_c, 3, 75, 127
2, 215581, Note_off_c, 3, 75, 127
2, 215583, Note_on_c, 2, 74, 127
2, 215677, Note_off_c, 2, 74, 127
2, 215679, Note_on_c, 3, 75, 127
2, 215773, Note_off_c, 3, 75, 127
2, 215775, Note_on_c, 2, 74, 127
2, 215869, Note_off_c, 2, 74, 127
2, 215871, Note_on_c, 0, 72, 127
2, 216055, Note_off_c, 11, 46, 127
2, 216055, Note_off_c, 11, 58, 127
2, 216061, Note_off_c, 0, 72, 127
2, 216063, Note_on_c, 11, 70, 127
2, 216445, Note_off_c, 11, 70, 127
2, 216447, Note_on_c, 11, 82, 127
2, 216637, Note_off_c, 11, 82, 127
2, 216639, Note_on_c, 11, 70, 127
2, 216829, Note_off_c, 11, 70, 127
2, 216831, Note_on_c, 11, 70, 127
2, 217213, Note_off_c, 11, 70, 127
2, 217215, Note_on_c, 11, 82, 127
2, 217405, Note_off_c, 11, 82, 127
2, 217407, Note_on_c, 11, 70, 127
2, 217597, Note_off_c, 11, 70, 127
2, 217599, Note_on_c, 11, 70, 127
2, 217981, Note_off_c, 11, 70, 127
2, 217983, Note_on_c, 11, 82, 127
2, 218173, Note_off_c, 11, 82, 127
2, 218175, Note_on_c, 11, 70, 127
2, 218365, Note_off_c, 11, 70, 127
2, 218367, Note_on_c, 11, 70, 127
2, 218749, Note_off_c, 11, 70, 127
2, 218751, Note_on_c, 11, 82, 127
2, 218941, Note_off_c, 11, 82, 127
2, 218943, Note_on_c, 11, 70, 127
2, 219133, Note_off_c, 11, 70, 127
2, 219135, Note_on_c, 0, 72, 127
2, 219135, Note_on_c, 10, 45, 127
2, 219135, Note_on_c, 5, 53, 127
2, 219325, Note_off_c, 0, 72, 127
2, 219327, Note_on_c, 11, 70, 127
2, 219517, Note_off_c, 11, 70, 127
2, 219517, Note_off_c, 10, 45, 127
2, 219519, Note_on_c, 10, 69, 127
2, 219519, Note_on_c, 0, 48, 127
2, 219709, Note_off_c, 10, 69, 127
2, 219711, Note_on_c, 7, 67, 127
2, 219901, Note_off_c, 7, 67, 127
2, 219901, Note_off_c, 0, 48, 127
2, 219903, Note_on_c, 5, 65, 127
2, 219903, Note_on_c, 2, 50, 127
2, 220285, Note_off_c, 2, 50, 127
2, 220285, Note_off_c, 5, 65, 127
2, 220285, Note_off_c, 5, 53, 127
2, 220287, Note_on_c, 11, 70, 127
2, 220287, Note_on_c, 5, 53, 127
2, 220287, Note_on_c, 11, 46, 127
2, 220669, Note_off_c, 11, 46, 127
2, 220669, Note_off_c, 11, 70, 127
2, 220671, Note_on_c, 10, 69, 127
2, 220671, Note_on_c, 0, 48, 127
2, 221047, Note_off_c, 5, 53, 127
2, 221053, Note_off_c, 10, 69, 127
2, 221055, Note_on_c, 7, 67, 127
2, 221055, Note_on_c, 4, 52, 127
2, 221245, Note_off_c, 7, 67, 127
2, 221247, Note_on_c, 5, 65, 127
2, 221431, Note_off_c, 0, 48, 127
2, 221437, Note_off_c, 5, 65, 127
2, 221437, Note_off_c, 4, 52, 127
2, 221439, Note_on_c, 5, 65, 127
2, 221439, Note_on_c, 5, 53, 127
2, 221439, Note_on_c, 5, 41, 127
2, 221821, Note_off_c, 5, 65, 127
2, 221823, Note_on_c, 5, 77, 127
2, 222013, Note_off_c, 5, 77, 127
2, 222015, Note_on_c, 5, 65, 127
2, 222199, Note_off_c, 5, 41, 127
2, 222199, Note_off_c, 5, 53, 127
2, 222205, Note_off_c, 5, 65, 127
2, 222207, Note_on_c, 5, 65, 127
2, 222589, Note_off_c, 5, 65, 127
2, 222591, Note_on_c, 5, 77, 127
2, 222781, Note_off_c, 5, 77, 127
2, 222783, Note_on_c, 5, 65, 127
2, 222973, Note_off_c, 5, 65, 127
2, 222975, Note_on_c, 5, 65, 127
2, 223357, Note_off_c, 5, 65, 127
2, 223359, Note_on_c, 5, 77, 127
2, 223359, Note_on_c, 5, 53, 127
2, 223359, Note_on_c, 10, 45, 127
2, 223359, Note_on_c, 0, 48, 127
2, 223549, Note_off_c, 5, 77, 127
2, 223551, Note_on_c, 3, 75, 127
2, 223741, Note_off_c, 3, 75, 127
2, 223741, Note_off_c, 0, 48, 127
2, 223741, Note_off_c, 10, 45, 127
2, 223741, Note_off_c, 5, 53, 127
2, 223743, Note_on_c, 2, 74, 127
2, 223743, Note_on_c, 5, 53, 127
2, 223743, Note_on_c, 11, 46, 127
2, 223933, Note_off_c, 2, 74, 127
2, 223935, Note_on_c, 0, 72, 127
2, 224125, Note_off_c, 0, 72, 127
2, 224125, Note_off_c, 11, 46, 127
2, 224125, Note_off_c, 5, 53, 127
2, 224127, Note_on_c, 11, 70, 127
2, 224127, Note_on_c, 7, 55, 127
2, 224127, Note_on_c, 3, 51, 127
2, 224317, Note_off_c, 11, 70, 127
2, 224319, Note_on_c, 0, 72, 127
2, 224509, Note_off_c, 0, 72, 127
2, 224509, Note_off_c, 3, 51, 127
2, 224509, Note_off_c, 7, 55, 127
2, 224511, Note_on_c, 11, 70, 127
2, 224511, Note_on_c, 5, 53, 127
2, 224637, Note_off_c, 11, 70, 127
2, 224639, Note_on_c, 10, 69, 127
2, 224701, Note_off_c, 10, 69, 127
2, 224703, Note_on_c, 11, 70, 127
2, 224765, Note_off_c, 11, 70, 127
2, 224767, Note_on_c, 10, 69, 127
2, 224829, Note_off_c, 10, 69, 127
2, 224831, Note_on_c, 11, 70, 127
2, 224893, Note_off_c, 11, 70, 127
2, 224895, Note_on_c, 10, 69, 127
2, 225087, Note_on_c, 11, 70, 127
2, 225095, Note_off_c, 10, 69, 127
2, 225277, Note_off_c, 11, 70, 127
2, 225277, Note_off_c, 5, 53, 127
2, 225279, Note_on_c, 11, 70, 127
2, 225279, Note_on_c, 5, 53, 127
2, 225279, Note_on_c, 2, 50, 127
2, 225279, Note_on_c, 11, 46, 127
2, 225661, Note_off_c, 11, 70, 127
2, 225663, Note_on_c, 11, 82, 127
2, 225853, Note_off_c, 11, 82, 127
2, 225855, Note_on_c, 11, 70, 127
2, 226039, Note_off_c, 11, 46, 127
2, 226039, Note_off_c, 2, 50, 127
2, 226039, Note_off_c, 5, 53, 127
2, 226045, Note_off_c, 11, 70, 127
2, 226047, Note_on_c, 11, 70, 127
2, 226429, Note_off_c, 11, 70, 127
2, 226431, Note_on_c, 11, 82, 127
2, 226621, Note_off_c, 11, 82, 127
2, 226623, Note_on_c, 11, 70, 127
2, 226813, Note_off_c, 11, 70, 127
2, 226815, Note_on_c, 11, 70, 127
2, 227197, Note_off_c, 11, 70, 127
2, 227199, Note_on_c, 11, 82, 127
2, 227389, Note_off_c, 11, 82, 127
2, 227391, Note_on_c, 11, 70, 127
2, 227581, Note_off_c, 11, 70, 127
2, 227583, Note_on_c, 11, 70, 127
2, 227583, Note_on_c, 2, 50, 127
2, 227583, Note_on_c, 5, 53, 127
2, 227583, Note_on_c, 11, 58, 127
2, 227583, Note_on_c, 11, 46, 127
2, 227677, Note_off_c, 11, 70, 127
2, 227679, Note_on_c, 10, 69, 127
2, 227773, Note_off_c, 10, 69, 127
2, 227775, Note_on_c, 11, 70, 127
2, 228349, Note_off_c, 11, 70, 127
2, 228349, Note_off_c, 11, 46, 127
2, 228349, Note_off_c, 11, 58, 127
2, 228349, Note_off_c, 5, 53, 127
2, 228349, Note_off_c, 2, 50, 127
2, 228351, Note_on_c, 11, 70, 127
2, 228351, Note_on_c, 2, 74, 127
2, 228351, Note_on_c, 7, 55, 127
2, 228541, Note_off_c, 7, 55, 127
2, 228543, Note_on_c, 10, 57, 127
2, 228733, Note_off_c, 10, 57, 127
2, 228733, Note_off_c, 2, 74, 127
2, 228735, Note_on_c, 7, 79, 127
2, 228735, Note_on_c, 11, 58, 127
2, 228925, Note_off_c, 11, 58, 127
2, 228927, Note_on_c, 0, 60, 127
2, 229111, Note_off_c, 11, 70, 127
2, 229117, Note_off_c, 0, 60, 127
2, 229117, Note_off_c, 7, 79, 127
2, 229119, Note_on_c, 10, 69, 127
2, 229119, Note_on_c, 6, 78, 127
2, 229119, Note_on_c, 2, 62, 127
2, 229501, Note_off_c, 2, 62, 127
2, 229501, Note_off_c, 6, 78, 127
2, 229501, Note_off_c, 10, 69, 127
2, 229503, Note_on_c, 7, 67, 127
2, 229503, Note_on_c, 7, 79, 127
2, 229503, Note_on_c, 3, 63, 127
2, 229885, Note_off_c, 3, 63, 127
2, 229885, Note_off_c, 7, 79, 127
2, 229885, Note_off_c, 7, 67, 127
2, 229887, Note_on_c, 6, 66, 127
2, 229887, Note_on_c, 10, 81, 127
2, 229887, Note_on_c, 2, 62, 127
2, 230077, Note_off_c, 2, 62, 127
2, 230079, Note_on_c, 3, 63, 127
2, 230269, Note_off_c, 3, 63, 127
2, 230269, Note_off_c, 10, 81, 127
2, 230269, Note_off_c, 6, 66, 127
2, 230271, Note_on_c, 2, 74, 127
2, 230271, Note_on_c, 2, 62, 127
2, 230461, Note_off_c, 2, 62, 127
2, 230463, Note_on_c, 0, 60, 127
2, 230653, Note_off_c, 0, 60, 127
2, 230653, Note_off_c, 2, 74, 127
2, 230655, Note_on_c, 7, 79, 127
2, 230655, Note_on_c, 0, 60, 127
2, 230845, Note_off_c, 0, 60, 127
2, 230847, Note_on_c, 11, 58, 127
2, 230941, Note_off_c, 11, 58, 127
2, 230943, Note_on_c, 0, 60, 127
2, 231037, Note_off_c, 0, 60, 127
2, 231039, Note_on_c, 11, 58, 127
2, 231229, Note_off_c, 11, 58, 127
2, 231231, Note_on_c, 10, 57, 127
2, 231415, Note_off_c, 7, 79, 127
2, 231421, Note_off_c, 10, 57, 127
2, 231423, Note_on_c, 7, 55, 127
2, 231805, Note_off_c, 7, 55, 127
2, 231807, Note_on_c, 7, 67, 127
2, 231997, Note_off_c, 7, 67, 127
2, 231999, Note_on_c, 7, 55, 127
2, 232189, Note_off_c, 7, 55, 127
2, 232191, Note_on_c, 7, 55, 127
2, 232573, Note_off_c, 7, 55, 127
2, 232575, Note_on_c, 7, 67, 127
2, 232765, Note_off_c, 7, 67, 127
2, 232767, Note_on_c, 7, 55, 127
2, 232957, Note_off_c, 7, 55, 127
2, 232959, Note_on_c, 7, 55, 127
2, 233341, Note_off_c, 7, 55, 127
2, 233343, Note_on_c, 7, 67, 127
2, 233533, Note_off_c, 7, 67, 127
2, 233535, Note_on_c, 7, 55, 127
2, 233725, Note_off_c, 7, 55, 127
2, 233727, Note_on_c, 7, 55, 127
2, 234109, Note_off_c, 7, 55, 127
2, 234111, Note_on_c, 7, 67, 127
2, 234493, Note_off_c, 7, 67, 127
2, 234495, Note_on_c, 1, 73, 127
2, 234495, Note_on_c, 10, 69, 127
2, 234495, Note_on_c, 10, 57, 127
2, 234685, Note_off_c, 10, 57, 127
2, 234687, Note_on_c, 7, 55, 127
2, 234877, Note_off_c, 7, 55, 127
2, 234877, Note_off_c, 1, 73, 127
2, 234879, Note_on_c, 2, 74, 127
2, 234879, Note_on_c, 5, 53, 127
2, 235069, Note_off_c, 5, 53, 127
2, 235069, Note_off_c, 2, 74, 127
2, 235071, Note_on_c, 4, 76, 127
2, 235071, Note_on_c, 4, 52, 127
2, 235261, Note_off_c, 4, 52, 127
2, 235261, Note_off_c, 4, 76, 127
2, 235263, Note_on_c, 5, 77, 127
2, 235263, Note_on_c, 2, 50, 127
2, 235645, Note_off_c, 2, 50, 127
2, 235645, Note_off_c, 5, 77, 127
2, 235645, Note_off_c, 10, 69, 127
2, 235647, Note_on_c, 4, 76, 127
2, 235647, Note_on_c, 11, 70, 127
2, 235647, Note_on_c, 7, 55, 127
2, 236029, Note_off_c, 7, 55, 127
2, 236029, Note_off_c, 11, 70, 127
2, 236029, Note_off_c, 4, 76, 127
2, 236031, Note_on_c, 10, 69, 127
2, 236031, Note_on_c, 2, 74, 127
2, 236031, Note_on_c, 5, 53, 127
2, 236413, Note_off_c, 5, 53, 127
2, 236413, Note_off_c, 2, 74, 127
2, 236413, Note_off_c, 10, 69, 127
2, 236415, Note_on_c, 1, 73, 127
2, 236415, Note_on_c, 7, 67, 127
2, 236415, Note_on_c, 4, 52, 127
2, 236797, Note_off_c, 4, 52, 127
2, 236797, Note_off_c, 7, 67, 127
2, 236797, Note_off_c, 1, 73, 127
2, 236799, Note_on_c, 2, 74, 127
2, 236799, Note_on_c, 6, 66, 127
2, 236799, Note_on_c, 2, 50, 127
2, 237181, Note_off_c, 2, 50, 127
2, 237183, Note_on_c, 2, 62, 127
2, 237373, Note_off_c, 2, 62, 127
2, 237374, Note_off_c, 6, 66, 127
2, 237374, Note_off_c, 2, 74, 127
2, 237375, Note_on_c, 2, 50, 127
2, 237565, Note_off_c, 2, 50, 127
2, 237567, Note_on_c, 2, 50, 127
2, 237949, Note_off_c, 2, 50, 127
2, 237951, Note_on_c, 2, 62, 127
2, 238141, Note_off_c, 2, 62, 127
2, 238143, Note_on_c, 2, 50, 127
2, 238333, Note_off_c, 2, 50, 127
2, 238335, Note_on_c, 2, 50, 127
2, 238719, Note_on_c, 5, 77, 127
2, 238909, Note_off_c, 5, 77, 127
2, 238911, Note_on_c, 5, 65, 127
2, 239101, Note_off_c, 5, 65, 127
2, 239103, Note_on_c, 5, 65, 127
2, 239295, Note_off_c, 2, 50, 127
2, 239487, Note_on_c, 2, 50, 127
2, 239677, Note_off_c, 2, 50, 127
2, 239679, Note_on_c, 2, 38, 127
2, 239869, Note_off_c, 2, 38, 127
2, 239871, Note_on_c, 2, 38, 127
2, 240063, Note_off_c, 5, 65, 127
2, 240255, Note_on_c, 5, 77, 127
2, 240445, Note_off_c, 5, 77, 127
2, 240447, Note_on_c, 5, 65, 127
2, 240637, Note_off_c, 5, 65, 127
2, 240639, Note_on_c, 5, 65, 127
2, 240831, Note_off_c, 2, 38, 127
2, 241023, Note_on_c, 11, 58, 127
2, 241213, Note_off_c, 11, 58, 127
2, 241215, Note_on_c, 11, 46, 127
2, 241405, Note_off_c, 11, 46, 127
2, 241407, Note_on_c, 11, 46, 127
2, 241599, Note_off_c, 5, 65, 127
2, 241791, Note_on_c, 11, 82, 127
2, 241981, Note_off_c, 11, 82, 127
2, 241983, Note_on_c, 11, 70, 127
2, 242173, Note_off_c, 11, 70, 127
2, 242175, Note_on_c, 11, 70, 127
2, 242367, Note_off_c, 11, 46, 127
2, 242559, Note_on_c, 11, 58, 127
2, 242749, Note_off_c, 11, 58, 127
2, 242751, Note_on_c, 11, 46, 127
2, 242941, Note_off_c, 11, 46, 127
2, 242943, Note_on_c, 11, 46, 127
2, 243135, Note_off_c, 11, 70, 127
2, 243325, Note_off_c, 11, 46, 127
2, 243327, Note_on_c, 11, 58, 127
2, 243517, Note_off_c, 11, 58, 127
2, 243519, Note_on_c, 11, 46, 127
2, 243709, Note_off_c, 11, 46, 127
2, 243711, Note_on_c, 11, 46, 127
2, 244095, Note_on_c, 11, 82, 127
2, 244285, Note_off_c, 11, 82, 127
2, 244287, Note_on_c, 11, 70, 127
2, 244477, Note_off_c, 11, 70, 127
2, 244479, Note_on_c, 11, 70, 127
2, 244669, Note_off_c, 11, 70, 127
2, 244671, Note_on_c, 0, 72, 127
2, 244861, Note_off_c, 0, 72, 127
2, 244861, Note_off_c, 11, 46, 127
2, 244863, Note_on_c, 2, 74, 127
2, 244863, Note_on_c, 10, 57, 127
2, 244863, Note_on_c, 0, 48, 127
2, 245053, Note_off_c, 2, 74, 127
2, 245055, Note_on_c, 3, 75, 127
2, 245245, Note_off_c, 3, 75, 127
2, 245245, Note_off_c, 0, 48, 127
2, 245245, Note_off_c, 10, 57, 127
2, 245247, Note_on_c, 5, 77, 127
2, 245247, Note_on_c, 2, 50, 127
2, 245247, Note_on_c, 11, 58, 127
2, 245629, Note_off_c, 11, 58, 127
2, 245629, Note_off_c, 2, 50, 127
2, 245629, Note_off_c, 5, 77, 127
2, 245631, Note_on_c, 11, 70, 127
2, 245631, Note_on_c, 3, 51, 127
2, 245631, Note_on_c, 7, 55, 127
2, 245821, Note_off_c, 11, 70, 127
2, 245823, Note_on_c, 0, 72, 127
2, 246013, Note_off_c, 0, 72, 127
2, 246013, Note_off_c, 7, 55, 127
2, 246013, Note_off_c, 3, 51, 127
2, 246015, Note_on_c, 11, 70, 127
2, 246015, Note_on_c, 5, 53, 127
2, 246141, Note_off_c, 11, 70, 127
2, 246143, Note_on_c, 10, 69, 127
2, 246205, Note_off_c, 10, 69, 127
2, 246207, Note_on_c, 11, 70, 127
2, 246269, Note_off_c, 11, 70, 127
2, 246271, Note_on_c, 10, 69, 127
2, 246333, Note_off_c, 10, 69, 127
2, 246335, Note_on_c, 11, 70, 127
2, 246397, Note_off_c, 11, 70, 127
2, 246399, Note_on_c, 10, 69, 127
2, 246399, Note_on_c, 5, 41, 127
2, 246591, Note_on_c, 11, 70, 127
2, 246599, Note_off_c, 10, 69, 127
2, 246781, Note_off_c, 11, 70, 127
2, 246781, Note_off_c, 5, 41, 127
2, 246783, Note_on_c, 11, 70, 127
2, 246783, Note_on_c, 11, 46, 127
2, 247165, Note_off_c, 11, 70, 127
2, 247167, Note_on_c, 11, 82, 127
2, 247357, Note_off_c, 11, 82, 127
2, 247359, Note_on_c, 11, 70, 127
2, 247549, Note_off_c, 11, 70, 127
2, 247549, Note_off_c, 5, 53, 127
2, 247551, Note_on_c, 11, 70, 127
2, 247743, Note_off_c, 11, 46, 127
2, 247935, Note_on_c, 11, 58, 127
2, 248125, Note_off_c, 11, 58, 127
2, 248127, Note_on_c, 11, 46, 127
2, 248317, Note_off_c, 11, 46, 127
2, 248319, Note_on_c, 11, 46, 127
2, 248701, Note_off_c, 11, 70, 127
2, 248703, Note_on_c, 11, 82, 127
2, 248703, Note_on_c, 5, 53, 127
2, 248893, Note_off_c, 11, 82, 127
2, 248895, Note_on_c, 11, 70, 127
2, 249085, Note_off_c, 11, 70, 127
2, 249085, Note_off_c, 5, 53, 127
2, 249103, Note_on_c, 11, 58, 127
2, 249103, Note_on_c, 11, 70, 127
2, 249159, Note_on_c, 10, 69, 127
2, 249197, Note_off_c, 11, 70, 127
2, 249215, Note_on_c, 11, 70, 127
2, 249225, Note_off_c, 10, 69, 127
2, 250555, Note_off_c, 11, 70, 127
2, 250619, Note_off_c, 11, 46, 127
2, 250637, Note_off_c, 11, 58, 127
2, 252943, Note_on_c, 11, 58, 127
2, 253621, Note_off_c, 11, 58, 127
2, 253757, Note_on_c, 11, 58, 127
2, 253891, Note_off_c, 11, 58, 127
2, 253892, Note_on_c, 11, 58, 127
2, 254026, Note_off_c, 11, 58, 127
2, 254027, Note_on_c, 5, 65, 127
2, 254297, Note_off_c, 5, 65, 127
2, 254298, Note_on_c, 5, 65, 127
2, 254568, Note_off_c, 5, 65, 127
2, 254569, Note_on_c, 5, 65, 127
2, 254839, Note_off_c, 5, 65, 127
2, 254840, Note_on_c, 5, 65, 127
2, 255110, Note_off_c, 5, 65, 127
2, 255111, Note_on_c, 2, 62, 127
2, 255381, Note_off_c, 2, 62, 127
2, 255382, Note_on_c, 11, 58, 127
2, 255652, Note_off_c, 11, 58, 127
2, 255653, Note_on_c, 11, 58, 127
2, 255923, Note_off_c, 11, 58, 127
2, 255924, Note_on_c, 11, 58, 127
2, 256058, Note_off_c, 11, 58, 127
2, 256059, Note_on_c, 11, 58, 127
2, 256193, Note_off_c, 11, 58, 127
2, 256194, Note_on_c, 7, 67, 127
2, 256464, Note_off_c, 7, 67, 127
2, 256465, Note_on_c, 7, 67, 127
2, 256735, Note_off_c, 7, 67, 127
2, 256736, Note_on_c, 7, 67, 127
2, 257006, Note_off_c, 7, 67, 127
2, 257007, Note_on_c, 7, 67, 127
2, 257277, Note_off_c, 7, 67, 127
2, 257278, Note_on_c, 0, 60, 127
2, 257548, Note_off_c, 0, 60, 127
2, 257549, Note_on_c, 10, 57, 127
2, 257819, Note_off_c, 10, 57, 127
2, 257820, Note_on_c, 10, 57, 127
2, 258090, Note_off_c, 10, 57, 127
2, 258091, Note_on_c, 5, 65, 127
2, 258361, Note_off_c, 5, 65, 127
2, 258362, Note_on_c, 11, 58, 127
2, 258632, Note_off_c, 11, 58, 127
2, 258633, Note_on_c, 7, 55, 127
2, 258903, Note_off_c, 7, 55, 127
2, 258904, Note_on_c, 7, 55, 127
2, 259174, Note_off_c, 7, 55, 127
2, 259175, Note_on_c, 4, 64, 127
2, 259425, Note_off_c, 4, 64, 127
2, 259446, Note_on_c, 5, 65, 127
2, 259716, Note_off_c, 5, 65, 127
2, 259717, Note_on_c, 7, 67, 127
2, 259851, Note_off_c, 7, 67, 127
2, 259852, Note_on_c, 10, 69, 127
2, 259986, Note_off_c, 10, 69, 127
2, 259987, Note_on_c, 4, 64, 127
2, 260257, Note_off_c, 4, 64, 127
2, 260258, Note_on_c, 5, 65, 127
2, 260392, Note_off_c, 5, 65, 127
2, 260393, Note_on_c, 7, 67, 127
2, 260527, Note_off_c, 7, 67, 127
2, 260528, Note_on_c, 5, 65, 127
2, 260798, Note_off_c, 5, 65, 127
2, 260799, Note_on_c, 7, 67, 127
2, 260933, Note_off_c, 7, 67, 127
2, 260934, Note_on_c, 10, 69, 127
2, 261068, Note_off_c, 10, 69, 127
2, 261069, Note_on_c, 4, 64, 127
2, 261339, Note_off_c, 4, 64, 127
2, 261340, Note_on_c, 5, 65, 127
2, 261474, Note_off_c, 5, 65, 127
2, 261475, Note_on_c, 7, 67, 127
2, 261609, Note_off_c, 7, 67, 127
2, 261610, Note_on_c, 5, 53, 127
2, 261610, Note_on_c, 5, 65, 127
2, 261880, Note_off_c, 5, 65, 127
2, 261881, Note_on_c, 5, 77, 127
2, 262015, Note_off_c, 5, 77, 127
2, 262016, Note_on_c, 5, 65, 127
2, 262150, Note_off_c, 5, 65, 127
2, 262151, Note_on_c, 5, 65, 127
2, 262421, Note_off_c, 5, 53, 127
2, 262422, Note_on_c, 5, 53, 127
2, 262556, Note_off_c, 5, 53, 127
2, 262557, Note_on_c, 5, 53, 127
2, 262691, Note_off_c, 5, 53, 127
2, 262692, Note_on_c, 11, 58, 127
2, 262828, Note_off_c, 5, 65, 127
2, 262962, Note_off_c, 11, 58, 127
2, 262963, Note_on_c, 11, 58, 127
2, 262963, Note_on_c, 2, 74, 127
2, 263097, Note_off_c, 2, 74, 127
2, 263098, Note_on_c, 2, 62, 127
2, 263232, Note_off_c, 2, 62, 127
2, 263232, Note_off_c, 11, 58, 127
2, 263233, Note_on_c, 11, 58, 127
2, 263233, Note_on_c, 2, 62, 127
2, 263503, Note_off_c, 11, 58, 127
2, 263504, Note_on_c, 11, 58, 127
2, 263769, Note_off_c, 2, 62, 127
2, 263773, Note_off_c, 11, 58, 127
2, 263774, Note_on_c, 10, 57, 127
2, 264044, Note_off_c, 10, 57, 127
2, 264045, Note_on_c, 5, 53, 127
2, 264045, Note_on_c, 10, 69, 127
2, 264179, Note_off_c, 10, 69, 127
2, 264180, Note_on_c, 7, 67, 127
2, 264314, Note_off_c, 7, 67, 127
2, 264314, Note_off_c, 5, 53, 127
2, 264315, Note_on_c, 5, 53, 127
2, 264315, Note_on_c, 10, 69, 127
2, 264449, Note_off_c, 10, 69, 127
2, 264450, Note_on_c, 11, 70, 127
2, 264584, Note_off_c, 11, 70, 127
2, 264584, Note_off_c, 5, 53, 127
2, 264585, Note_on_c, 5, 53, 127
2, 264585, Note_on_c, 10, 69, 127
2, 264719, Note_off_c, 10, 69, 127
2, 264719, Note_off_c, 5, 53, 127
2, 264720, Note_on_c, 5, 53, 127
2, 264720, Note_on_c, 7, 67, 127
2, 264854, Note_off_c, 7, 67, 127
2, 264854, Note_off_c, 5, 53, 127
2, 264855, Note_on_c, 2, 62, 127
2, 264855, Note_on_c, 5, 65, 127
2, 265125, Note_off_c, 2, 62, 127
2, 265126, Note_on_c, 2, 62, 127
2, 265391, Note_off_c, 5, 65, 127
2, 265395, Note_off_c, 2, 62, 127
2, 265396, Note_on_c, 2, 62, 127
2, 265666, Note_off_c, 2, 62, 127
2, 265667, Note_on_c, 2, 62, 127
2, 265937, Note_off_c, 2, 62, 127
2, 265938, Note_on_c, 7, 55, 127
2, 266208, Note_off_c, 7, 55, 127
2, 266209, Note_on_c, 4, 52, 127
2, 266209, Note_on_c, 7, 79, 127
2, 266343, Note_off_c, 7, 79, 127
2, 266344, Note_on_c, 7, 67, 127
2, 266478, Note_off_c, 7, 67, 127
2, 266478, Note_off_c, 4, 52, 127
2, 266479, Note_on_c, 4, 52, 127
2, 266479, Note_on_c, 7, 67, 127
2, 266749, Note_off_c, 4, 52, 127
2, 266750, Note_on_c, 0, 60, 127
2, 267015, Note_off_c, 7, 67, 127
2, 267019, Note_off_c, 0, 60, 127
2, 267020, Note_on_c, 5, 53, 127
2, 267290, Note_off_c, 5, 53, 127
2, 267291, Note_on_c, 2, 50, 127
2, 267291, Note_on_c, 5, 77, 127
2, 267425, Note_off_c, 5, 77, 127
2, 267426, Note_on_c, 5, 65, 127
2, 267560, Note_off_c, 5, 65, 127
2, 267560, Note_off_c, 2, 50, 127
2, 267561, Note_on_c, 2, 50, 127
2, 267561, Note_on_c, 5, 65, 127
2, 267831, Note_off_c, 2, 50, 127
2, 267832, Note_on_c, 12, 59, 127
2, 268097, Note_off_c, 5, 65, 127
2, 268101, Note_off_c, 12, 59, 127
2, 268102, Note_on_c, 0, 60, 127
2, 268372, Note_off_c, 0, 60, 127
2, 268373, Note_on_c, 2, 62, 127
2, 268373, Note_on_c, 3, 75, 127
2, 268507, Note_off_c, 3, 75, 127
2, 268507, Note_off_c, 2, 62, 127
2, 268508, Note_on_c, 3, 63, 127
2, 268508, Note_on_c, 2, 74, 127
2, 268642, Note_off_c, 2, 74, 127
2, 268642, Note_off_c, 3, 63, 127
2, 268643, Note_on_c, 10, 57, 127
2, 268643, Note_on_c, 0, 72, 127
2, 268913, Note_off_c, 0, 72, 127
2, 268913, Note_off_c, 10, 57, 127
2, 268914, Note_on_c, 11, 58, 127
2, 268914, Note_on_c, 5, 65, 127
2, 269048, Note_off_c, 11, 58, 127
2, 269049, Note_on_c, 0, 60, 127
2, 269183, Note_off_c, 0, 60, 127
2, 269183, Note_off_c, 5, 65, 127
2, 269184, Note_on_c, 11, 58, 127
2, 269184, Note_on_c, 2, 74, 127
2, 269454, Note_off_c, 2, 74, 127
2, 269454, Note_off_c, 11, 58, 127
2, 269455, Note_on_c, 0, 60, 127
2, 269455, Note_on_c, 5, 65, 127
2, 269589, Note_off_c, 0, 60, 127
2, 269590, Note_on_c, 2, 62, 127
2, 269724, Note_off_c, 2, 62, 127
2, 269724, Note_off_c, 5, 65, 127
2, 269725, Note_on_c, 10, 57, 127
2, 269725, Note_on_c, 3, 75, 127
2, 269995, Note_off_c, 3, 75, 127
2, 269995, Note_off_c, 10, 57, 127
2, 269996, Note_on_c, 11, 58, 127
2, 269996, Note_on_c, 5, 65, 127
2, 270130, Note_off_c, 11, 58, 127
2, 270131, Note_on_c, 0, 60, 127
2, 270265, Note_off_c, 0, 60, 127
2, 270265, Note_off_c, 5, 65, 127
2, 270266, Note_on_c, 11, 58, 127
2, 270266, Note_on_c, 2, 74, 127
2, 270536, Note_off_c, 11, 58, 127
2, 270537, Note_on_c, 11, 70, 127
2, 270671, Note_off_c, 11, 70, 127
2, 270672, Note_on_c, 11, 58, 127
2, 270802, Note_off_c, 2, 74, 127
2, 270806, Note_off_c, 11, 58, 127
2, 270807, Note_on_c, 11, 58, 127
2, 271078, Note_on_c, 11, 70, 127
2, 271212, Note_off_c, 11, 70, 127
2, 271213, Note_on_c, 10, 69, 127
2, 271343, Note_off_c, 11, 58, 127
2, 271347, Note_off_c, 10, 69, 127
2, 271348, Note_on_c, 11, 70, 127
2, 271619, Note_on_c, 7, 67, 127
2, 271753, Note_off_c, 7, 67, 127
2, 271754, Note_on_c, 7, 55, 127
2, 271888, Note_off_c, 7, 55, 127
2, 271889, Note_on_c, 7, 55, 127
2, 272023, Note_off_c, 11, 70, 127
2, 272024, Note_on_c, 11, 70, 127
2, 272158, Note_off_c, 11, 70, 127
2, 272159, Note_on_c, 3, 75, 127
2, 272293, Note_off_c, 3, 75, 127
2, 272294, Note_on_c, 2, 74, 127
2, 272424, Note_off_c, 7, 55, 127
2, 272428, Note_off_c, 2, 74, 127
2, 272429, Note_on_c, 0, 72, 127
2, 272700, Note_on_c, 10, 69, 127
2, 272834, Note_off_c, 10, 69, 127
2, 272835, Note_on_c, 10, 57, 127
2, 272969, Note_off_c, 10, 57, 127
2, 272970, Note_on_c, 10, 57, 127
2, 273104, Note_off_c, 0, 72, 127
2, 273105, Note_on_c, 0, 72, 127
2, 273239, Note_off_c, 0, 72, 127
2, 273240, Note_on_c, 5, 77, 127
2, 273374, Note_off_c, 5, 77, 127
2, 273375, Note_on_c, 3, 75, 127
2, 273508, Note_off_c, 10, 57, 127
2, 273509, Note_off_c, 3, 75, 127
2, 273510, Note_on_c, 11, 46, 127
2, 273510, Note_on_c, 2, 74, 127
2, 273781, Note_on_c, 11, 70, 127
2, 273915, Note_off_c, 11, 70, 127
2, 273916, Note_on_c, 11, 58, 127
2, 274050, Note_off_c, 11, 58, 127
2, 274051, Note_on_c, 11, 58, 127
2, 274321, Note_off_c, 2, 74, 127
2, 274321, Note_off_c, 11, 46, 127
2, 274322, Note_on_c, 11, 46, 127
2, 274322, Note_on_c, 0, 72, 127
2, 274456, Note_off_c, 0, 72, 127
2, 274456, Note_off_c, 11, 46, 127
2, 274457, Note_on_c, 11, 46, 127
2, 274457, Note_on_c, 11, 70, 127
2, 274587, Note_off_c, 11, 58, 127
2, 274591, Note_off_c, 11, 70, 127
2, 274591, Note_off_c, 11, 46, 127
2, 274592, Note_on_c, 5, 53, 127
2, 274592, Note_on_c, 0, 72, 127
2, 274862, Note_off_c, 5, 53, 127
2, 274863, Note_on_c, 5, 53, 127
2, 274863, Note_on_c, 10, 69, 127
2, 274997, Note_off_c, 10, 69, 127
2, 274998, Note_on_c, 10, 57, 127
2, 275128, Note_off_c, 0, 72, 127
2, 275132, Note_off_c, 10, 57, 127
2, 275132, Note_off_c, 5, 53, 127
2, 275133, Note_on_c, 5, 53, 127
2, 275133, Note_on_c, 10, 57, 127
2, 275269, Note_on_c, 5, 65, 127
2, 275403, Note_off_c, 5, 65, 127
2, 275403, Note_off_c, 5, 53, 127
2, 275404, Note_on_c, 5, 53, 127
2, 275404, Note_on_c, 7, 67, 127
2, 275538, Note_off_c, 7, 67, 127
2, 275539, Note_on_c, 10, 69, 127
2, 275669, Note_off_c, 10, 57, 127
2, 275673, Note_off_c, 10, 69, 127
2, 275673, Note_off_c, 5, 53, 127
2, 275674, Note_on_c, 2, 50, 127
2, 275674, Note_on_c, 11, 70, 127
2, 275944, Note_off_c, 2, 50, 127
2, 275945, Note_on_c, 11, 46, 127
2, 275945, Note_on_c, 2, 62, 127
2, 276079, Note_off_c, 2, 62, 127
2, 276080, Note_on_c, 0, 60, 127
2, 276210, Note_off_c, 11, 70, 127
2, 276214, Note_off_c, 0, 60, 127
2, 276214, Note_off_c, 11, 46, 127
2, 276215, Note_on_c, 11, 46, 127
2, 276215, Note_on_c, 2, 62, 127
2, 276349, Note_off_c, 2, 62, 127
2, 276350, Note_on_c, 3, 63, 127
2, 276484, Note_off_c, 3, 63, 127
2, 276484, Note_off_c, 11, 46, 127
2, 276485, Note_on_c, 11, 46, 127
2, 276485, Note_on_c, 2, 62, 127
2, 276485, Note_on_c, 11, 70, 127
2, 276619, Note_off_c, 11, 70, 127
2, 276619, Note_off_c, 2, 62, 127
2, 276619, Note_off_c, 11, 46, 127
2, 276620, Note_on_c, 11, 46, 127
2, 276620, Note_on_c, 0, 60, 127
2, 276620, Note_on_c, 10, 69, 127
2, 276754, Note_off_c, 10, 69, 127
2, 276754, Note_off_c, 0, 60, 127
2, 276754, Note_off_c, 11, 46, 127
2, 276755, Note_on_c, 7, 55, 127
2, 276755, Note_on_c, 11, 58, 127
2, 276755, Note_on_c, 7, 67, 127
2, 277025, Note_off_c, 7, 55, 127
2, 277026, Note_on_c, 7, 55, 127
2, 277291, Note_off_c, 7, 67, 127
2, 277291, Note_off_c, 11, 58, 127
2, 277295, Note_off_c, 7, 55, 127
2, 277296, Note_on_c, 7, 55, 127
2, 277432, Note_on_c, 7, 67, 127
2, 277566, Note_off_c, 7, 67, 127
2, 277566, Note_off_c, 7, 55, 127
2, 277567, Note_on_c, 7, 55, 127
2, 277567, Note_on_c, 10, 69, 127
2, 277701, Note_off_c, 10, 69, 127
2, 277702, Note_on_c, 11, 70, 127
2, 277836, Note_off_c, 11, 70, 127
2, 277836, Note_off_c, 7, 55, 127
2, 277837, Note_on_c, 0, 48, 127
2, 277837, Note_on_c, 10, 69, 127
2, 278107, Note_off_c, 0, 48, 127
2, 278108, Note_on_c, 10, 45, 127
2, 278108, Note_on_c, 0, 72, 127
2, 278242, Note_off_c, 0, 72, 127
2, 278243, Note_on_c, 0, 60, 127
2, 278373, Note_off_c, 10, 69, 127
2, 278377, Note_off_c, 0, 60, 127
2, 278377, Note_off_c, 10, 45, 127
2, 278378, Note_on_c, 10, 45, 127
2, 278378, Note_on_c, 0, 60, 127
2, 278514, Note_on_c, 10, 69, 127
2, 278648, Note_off_c, 10, 69, 127
2, 278648, Note_off_c, 10, 45, 127
2, 278649, Note_on_c, 5, 53, 127
2, 278649, Note_on_c, 11, 70, 127
2, 278783, Note_off_c, 11, 70, 127
2, 278784, Note_on_c, 0, 72, 127
2, 278914, Note_off_c, 0, 60, 127
2, 278918, Note_off_c, 0, 72, 127
2, 278918, Note_off_c, 5, 53, 127
2, 278919, Note_on_c, 11, 46, 127
2, 278919, Note_on_c, 2, 74, 127
2, 279189, Note_off_c, 11, 46, 127
2, 279190, Note_on_c, 7, 43, 127
2, 279190, Note_on_c, 11, 70, 127
2, 279324, Note_off_c, 11, 70, 127
2, 279325, Note_on_c, 11, 58, 127
2, 279455, Note_off_c, 2, 74, 127
2, 279459, Note_off_c, 11, 58, 127
2, 279459, Note_off_c, 7, 43, 127
2, 279460, Note_on_c, 7, 43, 127
2, 279460, Note_on_c, 11, 58, 127
2, 279596, Note_on_c, 4, 64, 127
2, 279730, Note_off_c, 4, 64, 127
2, 279730, Note_off_c, 7, 43, 127
2, 279731, Note_on_c, 4, 52, 127
2, 279731, Note_on_c, 5, 65, 127
2, 279865, Note_off_c, 5, 65, 127
2, 279866, Note_on_c, 7, 67, 127
2, 279996, Note_off_c, 11, 58, 127
2, 280000, Note_off_c, 7, 67, 127
2, 280000, Note_off_c, 4, 52, 127
2, 280001, Note_on_c, 5, 53, 127
2, 280001, Note_on_c, 10, 69, 127
2, 280271, Note_off_c, 5, 53, 127
2, 280272, Note_on_c, 7, 55, 127
2, 280272, Note_on_c, 7, 67, 127
2, 280406, Note_off_c, 7, 67, 127
2, 280406, Note_off_c, 7, 55, 127
2, 280407, Note_on_c, 10, 57, 127
2, 280407, Note_on_c, 5, 65, 127
2, 280541, Note_off_c, 5, 65, 127
2, 280541, Note_off_c, 10, 57, 127
2, 280541, Note_off_c, 10, 69, 127
2, 280542, Note_on_c, 4, 52, 127
2, 280542, Note_on_c, 4, 64, 127
2, 280542, Note_on_c, 7, 67, 127
2, 280542, Note_on_c, 0, 72, 127
2, 280812, Note_off_c, 4, 64, 127
2, 280812, Note_off_c, 4, 52, 127
2, 280813, Note_on_c, 5, 53, 127
2, 280813, Note_on_c, 0, 60, 127
2, 280947, Note_off_c, 5, 53, 127
2, 280948, Note_on_c, 7, 55, 127
2, 281078, Note_off_c, 7, 67, 127
2, 281082, Note_off_c, 7, 55, 127
2, 281082, Note_off_c, 0, 60, 127
2, 281082, Note_off_c, 0, 72, 127
2, 281083, Note_on_c, 5, 53, 127
2, 281083, Note_on_c, 10, 69, 127
2, 281083, Note_on_c, 0, 72, 127
2, 281353, Note_off_c, 10, 69, 127
2, 281353, Note_off_c, 5, 53, 127
2, 281354, Note_on_c, 7, 55, 127
2, 281354, Note_on_c, 0, 60, 127
2, 281488, Note_off_c, 7, 55, 127
2, 281489, Note_on_c, 10, 57, 127
2, 281623, Note_off_c, 10, 57, 127
2, 281623, Note_off_c, 0, 60, 127
2, 281623, Note_off_c, 0, 72, 127
2, 281624, Note_on_c, 4, 52, 127
2, 281624, Note_on_c, 7, 67, 127
2, 281624, Note_on_c, 0, 72, 127
2, 281894, Note_off_c, 7, 67, 127
2, 281894, Note_off_c, 4, 52, 127
2, 281895, Note_on_c, 5, 53, 127
2, 281895, Note_on_c, 0, 60, 127
2, 282029, Note_off_c, 5, 53, 127
2, 282030, Note_on_c, 7, 55, 127
2, 282164, Note_off_c, 7, 55, 127
2, 282164, Note_off_c, 0, 60, 127
2, 282164, Note_off_c, 0, 72, 127
2, 282165, Note_on_c, 5, 53, 127
2, 282165, Note_on_c, 10, 69, 127
2, 282165, Note_on_c, 0, 72, 127
2, 282435, Note_off_c, 5, 53, 127
2, 282436, Note_on_c, 10, 57, 127
2, 282570, Note_off_c, 10, 57, 127
2, 282571, Note_on_c, 10, 45, 127
2, 282701, Note_off_c, 0, 72, 127
2, 282701, Note_off_c, 10, 69, 127
2, 282705, Note_off_c, 10, 45, 127
2, 282706, Note_on_c, 10, 45, 127
2, 282842, Note_on_c, 7, 67, 127
2, 282976, Note_off_c, 7, 67, 127
2, 282977, Note_on_c, 5, 65, 127
2, 283111, Note_off_c, 5, 65, 127
2, 283112, Note_on_c, 3, 63, 127
2, 283242, Note_off_c, 10, 45, 127
2, 283246, Note_off_c, 3, 63, 127
2, 283247, Note_on_c, 2, 62, 127
2, 283383, Note_on_c, 5, 65, 127
2, 283517, Note_off_c, 5, 65, 127
2, 283518, Note_on_c, 11, 58, 127
2, 283518, Note_on_c, 7, 67, 127
2, 283652, Note_off_c, 7, 67, 127
2, 283652, Note_off_c, 11, 58, 127
2, 283653, Note_on_c, 11, 46, 127
2, 283653, Note_on_c, 10, 69, 127
2, 283783, Note_off_c, 2, 62, 127
2, 283787, Note_off_c, 10, 69, 127
2, 283787, Note_off_c, 11, 46, 127
2, 283788, Note_on_c, 11, 46, 127
2, 283788, Note_on_c, 11, 70, 127
2, 283924, Note_on_c, 7, 67, 127
2, 284058, Note_off_c, 7, 67, 127
2, 284059, Note_on_c, 2, 62, 127
2, 284193, Note_off_c, 2, 62, 127
2, 284194, Note_on_c, 5, 65, 127
2, 284324, Note_off_c, 11, 46, 127
2, 284328, Note_off_c, 5, 65, 127
2, 284329, Note_on_c, 3, 63, 127
2, 284465, Note_on_c, 0, 48, 127
2, 284599, Note_off_c, 0, 48, 127
2, 284599, Note_off_c, 3, 63, 127
2, 284600, Note_on_c, 2, 50, 127
2, 284600, Note_on_c, 0, 60, 127
2, 284734, Note_off_c, 2, 50, 127
2, 284735, Note_on_c, 3, 51, 127
2, 284869, Note_off_c, 3, 51, 127
2, 284869, Note_off_c, 11, 70, 127
2, 284870, Note_on_c, 5, 53, 127
2, 285004, Note_off_c, 5, 53, 127
2, 285005, Note_on_c, 7, 55, 127
2, 285005, Note_on_c, 10, 69, 127
2, 285139, Note_off_c, 10, 69, 127
2, 285139, Note_off_c, 7, 55, 127
2, 285140, Note_on_c, 5, 53, 127
2, 285140, Note_on_c, 11, 70, 127
2, 285274, Note_off_c, 11, 70, 127
2, 285274, Note_off_c, 5, 53, 127
2, 285275, Note_on_c, 3, 51, 127
2, 285275, Note_on_c, 0, 72, 127
2, 285409, Note_off_c, 0, 72, 127
2, 285409, Note_off_c, 3, 51, 127
2, 285409, Note_off_c, 0, 60, 127
2, 285410, Note_on_c, 2, 50, 127
2, 285410, Note_on_c, 11, 58, 127
2, 285410, Note_on_c, 2, 74, 127
2, 285410, Note_on_c, 11, 70, 127
2, 285544, Note_off_c, 11, 58, 127
2, 285545, Note_on_c, 7, 67, 127
2, 285679, Note_off_c, 7, 67, 127
2, 285679, Note_off_c, 2, 50, 127
2, 285680, Note_on_c, 11, 58, 127
2, 285680, Note_on_c, 5, 65, 127
2, 285814, Note_off_c, 5, 65, 127
2, 285814, Note_off_c, 11, 58, 127
2, 285815, Note_on_c, 11, 46, 127
2, 285815, Note_on_c, 3, 63, 127
2, 285945, Note_off_c, 11, 70, 127
2, 285945, Note_off_c, 2, 74, 127
2, 285949, Note_off_c, 3, 63, 127
2, 285949, Note_off_c, 11, 46, 127
2, 285950, Note_on_c, 11, 46, 127
2, 285950, Note_on_c, 2, 62, 127
2, 286220, Note_off_c, 2, 62, 127
2, 286221, Note_on_c, 7, 67, 127
2, 286221, Note_on_c, 11, 70, 127
2, 286355, Note_off_c, 11, 70, 127
2, 286356, Note_on_c, 11, 70, 127
2, 286486, Note_off_c, 11, 46, 127
2, 286490, Note_off_c, 11, 70, 127
2, 286490, Note_off_c, 7, 67, 127
2, 286491, Note_on_c, 10, 69, 127
2, 286491, Note_on_c, 5, 77, 127
2, 286625, Note_off_c, 10, 69, 127
2, 286626, Note_on_c, 11, 70, 127
2, 286760, Note_off_c, 11, 70, 127
2, 286760, Note_off_c, 5, 77, 127
2, 286761, Note_on_c, 10, 57, 127
2, 286761, Note_on_c, 0, 72, 127
2, 286761, Note_on_c, 5, 77, 127
2, 286895, Note_off_c, 0, 72, 127
2, 286895, Note_off_c, 10, 57, 127
2, 286896, Note_on_c, 10, 45, 127
2, 286896, Note_on_c, 2, 74, 127
2, 287030, Note_off_c, 2, 74, 127
2, 287030, Note_off_c, 10, 45, 127
2, 287030, Note_off_c, 5, 77, 127
2, 287031, Note_on_c, 10, 45, 127
2, 287031, Note_on_c, 0, 72, 127
2, 287031, Note_on_c, 5, 77, 127
2, 287301, Note_off_c, 5, 77, 127
2, 287302, Note_on_c, 5, 77, 127
2, 287567, Note_off_c, 10, 45, 127
2, 287571, Note_off_c, 5, 77, 127
2, 287571, Note_off_c, 0, 72, 127
2, 287572, Note_on_c, 11, 70, 127
2, 287572, Note_on_c, 2, 74, 127
2, 287842, Note_off_c, 2, 74, 127
2, 287842, Note_off_c, 11, 70, 127
2, 287843, Note_on_c, 2, 50, 127
2, 287843, Note_on_c, 5, 65, 127
2, 287843, Note_on_c, 11, 70, 127
2, 287977, Note_off_c, 2, 50, 127
2, 287978, Note_on_c, 0, 48, 127
2, 288112, Note_off_c, 0, 48, 127
2, 288112, Note_off_c, 11, 70, 127
2, 288112, Note_off_c, 5, 65, 127
2, 288113, Note_on_c, 2, 50, 127
2, 288113, Note_on_c, 5, 65, 127
2, 288113, Note_on_c, 11, 70, 127
2, 288247, Note_off_c, 2, 50, 127
2, 288248, Note_on_c, 3, 51, 127
2, 288382, Note_off_c, 3, 51, 127
2, 288382, Note_off_c, 11, 70, 127
2, 288382, Note_off_c, 5, 65, 127
2, 288383, Note_on_c, 2, 50, 127
2, 288383, Note_on_c, 11, 70, 127
2, 288517, Note_off_c, 11, 70, 127
2, 288517, Note_off_c, 2, 50, 127
2, 288518, Note_on_c, 0, 48, 127
2, 288518, Note_on_c, 11, 70, 127
2, 288652, Note_off_c, 11, 70, 127
2, 288652, Note_off_c, 0, 48, 127
2, 288653, Note_on_c, 11, 46, 127
2, 288653, Note_on_c, 2, 74, 127
2, 288653, Note_on_c, 7, 79, 127
2, 288787, Note_off_c, 2, 74, 127
2, 288788, Note_on_c, 0, 72, 127
2, 288922, Note_off_c, 0, 72, 127
2, 288922, Note_off_c, 7, 79, 127
2, 288923, Note_on_c, 2, 74, 127
2, 288923, Note_on_c, 7, 79, 127
2, 289057, Note_off_c, 2, 74, 127
2, 289058, Note_on_c, 3, 75, 127
2, 289188, Note_off_c, 11, 46, 127
2, 289192, Note_off_c, 3, 75, 127
2, 289192, Note_off_c, 7, 79, 127
2, 289193, Note_on_c, 2, 74, 127
2, 289193, Note_on_c, 7, 79, 127
2, 289463, Note_off_c, 7, 79, 127
2, 289463, Note_off_c, 2, 74, 127
2, 289464, Note_on_c, 11, 70, 127
2, 289464, Note_on_c, 7, 79, 127
2, 289598, Note_off_c, 11, 70, 127
2, 289599, Note_on_c, 7, 67, 127
2, 289733, Note_off_c, 7, 67, 127
2, 289733, Note_off_c, 7, 79, 127
2, 289734, Note_on_c, 4, 64, 127
2, 289734, Note_on_c, 0, 72, 127
2, 290004, Note_off_c, 0, 72, 127
2, 290005, Note_on_c, 0, 60, 127
2, 290005, Note_on_c, 10, 69, 127
2, 290139, Note_off_c, 0, 60, 127
2, 290140, Note_on_c, 0, 48, 127
2, 290270, Note_off_c, 4, 64, 127
2, 290274, Note_off_c, 0, 48, 127
2, 290274, Note_off_c, 10, 69, 127
2, 290275, Note_on_c, 0, 48, 127
2, 290275, Note_on_c, 10, 69, 127
2, 290545, Note_off_c, 10, 69, 127
2, 290546, Note_on_c, 10, 69, 127
2, 290546, Note_on_c, 5, 77, 127
2, 290680, Note_off_c, 10, 69, 127
2, 290681, Note_on_c, 5, 65, 127
2, 290811, Note_off_c, 0, 48, 127
2, 290815, Note_off_c, 5, 65, 127
2, 290815, Note_off_c, 5, 77, 127
2, 290816, Note_on_c, 2, 62, 127
2, 290816, Note_on_c, 11, 70, 127
2, 291086, Note_off_c, 11, 70, 127
2, 291087, Note_on_c, 11, 58, 127
2, 291087, Note_on_c, 7, 67, 127
2, 291221, Note_off_c, 11, 58, 127
2, 291222, Note_on_c, 11, 46, 127
2, 291352, Note_off_c, 2, 62, 127
2, 291356, Note_off_c, 11, 46, 127
2, 291356, Note_off_c, 7, 67, 127
2, 291357, Note_on_c, 11, 46, 127
2, 291357, Note_on_c, 7, 67, 127
2, 291625, Note_off_c, 11, 46, 127
2, 291626, Note_off_c, 7, 67, 127
2, 291627, Note_on_c, 7, 67, 127
2, 291627, Note_on_c, 4, 76, 127
2, 291761, Note_off_c, 7, 67, 127
2, 291762, Note_on_c, 4, 64, 127
2, 291896, Note_off_c, 4, 64, 127
2, 291896, Note_off_c, 4, 76, 127
2, 291897, Note_on_c, 10, 57, 127
2, 291897, Note_on_c, 0, 60, 127
2, 291897, Note_on_c, 5, 77, 127
2, 292167, Note_off_c, 5, 77, 127
2, 292167, Note_off_c, 10, 57, 127
2, 292168, Note_on_c, 7, 55, 127
2, 292168, Note_on_c, 7, 79, 127
2, 292302, Note_off_c, 7, 79, 127
2, 292302, Note_off_c, 7, 55, 127
2, 292303, Note_on_c, 5, 53, 127
2, 292303, Note_on_c, 10, 81, 127
2, 292437, Note_off_c, 10, 81, 127
2, 292437, Note_off_c, 5, 53, 127
2, 292437, Note_off_c, 0, 60, 127
2, 292438, Note_on_c, 7, 55, 127
2, 292438, Note_on_c, 11, 58, 127
2, 292438, Note_on_c, 4, 76, 127
2, 292708, Note_off_c, 4, 76, 127
2, 292708, Note_off_c, 7, 55, 127
2, 292709, Note_on_c, 0, 48, 127
2, 292709, Note_on_c, 5, 77, 127
2, 292843, Note_off_c, 5, 77, 127
2, 292844, Note_on_c, 7, 79, 127
2, 292978, Note_off_c, 7, 79, 127
2, 292978, Note_off_c, 0, 48, 127
2, 292978, Note_off_c, 11, 58, 127
2, 292979, Note_on_c, 10, 57, 127
2, 292979, Note_on_c, 0, 60, 127
2, 292979, Note_on_c, 5, 77, 127
2, 293249, Note_off_c, 5, 77, 127
2, 293249, Note_off_c, 10, 57, 127
2, 293250, Note_on_c, 0, 48, 127
2, 293250, Note_on_c, 7, 79, 127
2, 293384, Note_off_c, 7, 79, 127
2, 293385, Note_on_c, 10, 81, 127
2, 293519, Note_off_c, 10, 81, 127
2, 293519, Note_off_c, 0, 48, 127
2, 293519, Note_off_c, 0, 60, 127
2, 293520, Note_on_c, 7, 55, 127
2, 293520, Note_on_c, 11, 58, 127
2, 293520, Note_on_c, 4, 76, 127
2, 293790, Note_off_c, 4, 76, 127
2, 293790, Note_off_c, 7, 55, 127
2, 293791, Note_on_c, 0, 48, 127
2, 293791, Note_on_c, 5, 77, 127
2, 293925, Note_off_c, 5, 77, 127
2, 293926, Note_on_c, 7, 79, 127
2, 294060, Note_off_c, 7, 79, 127
2, 294060, Note_off_c, 0, 48, 127
2, 294060, Note_off_c, 11, 58, 127
2, 294061, Note_on_c, 5, 53, 127
2, 294061, Note_on_c, 10, 57, 127
2, 294061, Note_on_c, 5, 77, 127
2, 294331, Note_off_c, 5, 77, 127
2, 294332, Note_on_c, 10, 81, 127
2, 294466, Note_off_c, 10, 81, 127
2, 294467, Note_on_c, 10, 69, 127
2, 294597, Note_off_c, 10, 57, 127
2, 294597, Note_off_c, 5, 53, 127
2, 294601, Note_off_c, 10, 69, 127
2, 294602, Note_on_c, 10, 69, 127
2, 294738, Note_on_c, 7, 55, 127
2, 294872, Note_off_c, 7, 55, 127
2, 294873, Note_on_c, 5, 53, 127
2, 295007, Note_off_c, 5, 53, 127
2, 295008, Note_on_c, 4, 52, 127
2, 295138, Note_off_c, 10, 69, 127
2, 295142, Note_off_c, 4, 52, 127
2, 295143, Note_on_c, 2, 50, 127
2, 295143, Note_on_c, 10, 57, 127
2, 295414, Note_on_c, 5, 77, 127
2, 295548, Note_off_c, 5, 77, 127
2, 295549, Note_on_c, 5, 65, 127
2, 295679, Note_off_c, 10, 57, 127
2, 295679, Note_off_c, 2, 50, 127
2, 295683, Note_off_c, 5, 65, 127
2, 295684, Note_on_c, 5, 65, 127
2, 295820, Note_on_c, 2, 50, 127
2, 295954, Note_off_c, 2, 50, 127
2, 295955, Note_on_c, 3, 51, 127
2, 296089, Note_off_c, 3, 51, 127
2, 296090, Note_on_c, 5, 53, 127
2, 296220, Note_off_c, 5, 65, 127
2, 296224, Note_off_c, 5, 53, 127
2, 296225, Note_on_c, 7, 55, 127
2, 296225, Note_on_c, 11, 58, 127
2, 296496, Note_on_c, 11, 82, 127
2, 296630, Note_off_c, 11, 82, 127
2, 296631, Note_on_c, 11, 70, 127
2, 296761, Note_off_c, 11, 58, 127
2, 296761, Note_off_c, 7, 55, 127
2, 296765, Note_off_c, 11, 70, 127
2, 296766, Note_on_c, 11, 70, 127
2, 296902, Note_on_c, 7, 55, 127
2, 297036, Note_off_c, 7, 55, 127
2, 297037, Note_on_c, 5, 53, 127
2, 297171, Note_off_c, 5, 53, 127
2, 297172, Note_on_c, 3, 51, 127
2, 297302, Note_off_c, 11, 70, 127
2, 297306, Note_off_c, 3, 51, 127
2, 297307, Note_on_c, 2, 50, 127
2, 297307, Note_on_c, 2, 62, 127
2, 297578, Note_on_c, 11, 82, 127
2, 297712, Note_off_c, 11, 82, 127
2, 297713, Note_on_c, 11, 70, 127
2, 297843, Note_off_c, 2, 62, 127
2, 297843, Note_off_c, 2, 50, 127
2, 297847, Note_off_c, 11, 70, 127
2, 297848, Note_on_c, 11, 70, 127
2, 297984, Note_on_c, 0, 48, 127
2, 298118, Note_off_c, 0, 48, 127
2, 298119, Note_on_c, 2, 50, 127
2, 298253, Note_off_c, 2, 50, 127
2, 298254, Note_on_c, 3, 51, 127
2, 298384, Note_off_c, 11, 70, 127
2, 298388, Note_off_c, 3, 51, 127
2, 298389, Note_on_c, 5, 53, 127
2, 298389, Note_on_c, 0, 60, 127
2, 298525, Note_on_c, 10, 69, 127
2, 298658, Note_off_c, 0, 60, 127
2, 298659, Note_off_c, 10, 69, 127
2, 298660, Note_on_c, 11, 70, 127
2, 298794, Note_off_c, 11, 70, 127
2, 298794, Note_off_c, 5, 53, 127
2, 298795, Note_on_c, 5, 41, 127
2, 298795, Note_on_c, 0, 72, 127
2, 298929, Note_off_c, 0, 72, 127
2, 298929, Note_off_c, 5, 41, 127
2, 298930, Note_on_c, 5, 41, 127
2, 298930, Note_on_c, 11, 70, 127
2, 298996, Note_off_c, 11, 70, 127
2, 298997, Note_on_c, 10, 69, 127
2, 299063, Note_off_c, 10, 69, 127
2, 299064, Note_on_c, 11, 70, 127
2, 299130, Note_off_c, 11, 70, 127
2, 299131, Note_on_c, 10, 69, 127
2, 299197, Note_off_c, 10, 69, 127
2, 299198, Note_on_c, 5, 65, 127
2, 299198, Note_on_c, 11, 70, 127
2, 299264, Note_off_c, 11, 70, 127
2, 299265, Note_on_c, 10, 69, 127
2, 299331, Note_off_c, 10, 69, 127
2, 299331, Note_off_c, 5, 65, 127
2, 299332, Note_on_c, 5, 65, 127
2, 299332, Note_on_c, 11, 70, 127
2, 299462, Note_off_c, 5, 41, 127
2, 299466, Note_off_c, 11, 70, 127
2, 299466, Note_off_c, 5, 65, 127
2, 299467, Note_on_c, 11, 70, 127
2, 299467, Note_on_c, 2, 74, 127
2, 299737, Note_off_c, 11, 70, 127
2, 299738, Note_on_c, 2, 50, 127
2, 299738, Note_on_c, 11, 70, 127
2, 299872, Note_off_c, 2, 50, 127
2, 299873, Note_on_c, 2, 38, 127
2, 300003, Note_off_c, 2, 74, 127
2, 300007, Note_off_c, 2, 38, 127
2, 300007, Note_off_c, 11, 70, 127
2, 300008, Note_on_c, 2, 38, 127
2, 300008, Note_on_c, 11, 70, 127
2, 300144, Note_on_c, 5, 77, 127
2, 300278, Note_off_c, 5, 77, 127
2, 300278, Note_off_c, 11, 70, 127
2, 300279, Note_on_c, 11, 70, 127
2, 300279, Note_on_c, 3, 75, 127
2, 300413, Note_off_c, 3, 75, 127
2, 300414, Note_on_c, 2, 74, 127
2, 300544, Note_off_c, 2, 38, 127
2, 300548, Note_off_c, 2, 74, 127
2, 300548, Note_off_c, 11, 70, 127
2, 300549, Note_on_c, 10, 69, 127
2, 300549, Note_on_c, 0, 72, 127
2, 300819, Note_off_c, 10, 69, 127
2, 300820, Note_on_c, 10, 45, 127
2, 300820, Note_on_c, 5, 65, 127
2, 300954, Note_off_c, 10, 45, 127
2, 300955, Note_on_c, 7, 43, 127
2, 301085, Note_off_c, 0, 72, 127
2, 301089, Note_off_c, 7, 43, 127
2, 301089, Note_off_c, 5, 65, 127
2, 301090, Note_on_c, 10, 45, 127
2, 301090, Note_on_c, 5, 65, 127
2, 301224, Note_off_c, 10, 45, 127
2, 301225, Note_on_c, 11, 46, 127
2, 301359, Note_off_c, 11, 46, 127
2, 301359, Note_off_c, 5, 65, 127
2, 301360, Note_on_c, 10, 45, 127
2, 301360, Note_on_c, 5, 65, 127
2, 301494, Note_off_c, 5, 65, 127
2, 301494, Note_off_c, 10, 45, 127
2, 301495, Note_on_c, 7, 43, 127
2, 301495, Note_on_c, 5, 65, 127
2, 301629, Note_off_c, 5, 65, 127
2, 301629, Note_off_c, 7, 43, 127
2, 301630, Note_on_c, 5, 41, 127
2, 301630, Note_on_c, 2, 74, 127
2, 301900, Note_off_c, 2, 74, 127
2, 301901, Note_on_c, 2, 74, 127
2, 301901, Note_on_c, 5, 77, 127
2, 302035, Note_off_c, 5, 77, 127
2, 302036, Note_on_c, 7, 79, 127
2, 302166, Note_off_c, 5, 41, 127
2, 302170, Note_off_c, 7, 79, 127
2, 302170, Note_off_c, 2, 74, 127
2, 302171, Note_on_c, 2, 74, 127
2, 302171, Note_on_c, 5, 77, 127
2, 302305, Note_off_c, 5, 77, 127
2, 302306, Note_on_c, 3, 75, 127
2, 302440, Note_off_c, 3, 75, 127
2, 302440, Note_off_c, 2, 74, 127
2, 302441, Note_on_c, 5, 53, 127
2, 302441, Note_on_c, 2, 74, 127
2, 302577, Note_on_c, 0, 72, 127
2, 302711, Note_off_c, 0, 72, 127
2, 302711, Note_off_c, 2, 74, 127
2, 302711, Note_off_c, 5, 53, 127
2, 302712, Note_on_c, 7, 55, 127
2, 302712, Note_on_c, 7, 67, 127
2, 302712, Note_on_c, 11, 70, 127
2, 302982, Note_off_c, 11, 70, 127
2, 302982, Note_off_c, 7, 67, 127
2, 302983, Note_on_c, 3, 63, 127
2, 302983, Note_on_c, 7, 79, 127
2, 303117, Note_off_c, 7, 79, 127
2, 303118, Note_on_c, 7, 67, 127
2, 303252, Note_off_c, 7, 67, 127
2, 303252, Note_off_c, 3, 63, 127
2, 303253, Note_on_c, 3, 63, 127
2, 303253, Note_on_c, 7, 67, 127
2, 303523, Note_off_c, 3, 63, 127
2, 303523, Note_off_c, 7, 55, 127
2, 303524, Note_on_c, 0, 72, 127
2, 303789, Note_off_c, 7, 67, 127
2, 303793, Note_off_c, 0, 72, 127
2, 303794, Note_on_c, 5, 65, 127
2, 304065, Note_on_c, 2, 62, 127
2, 304065, Note_on_c, 5, 77, 127
2, 304189, Note_off_c, 5, 65, 127
2, 304199, Note_off_c, 5, 77, 127
2, 304200, Note_on_c, 5, 65, 127
2, 304334, Note_off_c, 5, 65, 127
2, 304334, Note_off_c, 2, 62, 127
2, 304335, Note_on_c, 2, 62, 127
2, 304335, Note_on_c, 5, 65, 127
2, 304605, Note_off_c, 2, 62, 127
2, 304606, Note_on_c, 11, 70, 127
2, 304606, Note_on_c, 5, 77, 127
2, 304876, Note_off_c, 5, 77, 127
2, 304876, Note_off_c, 11, 70, 127
2, 304876, Note_off_c, 5, 65, 127
2, 304877, Note_on_c, 0, 72, 127
2, 304877, Note_on_c, 3, 75, 127
2, 305147, Note_off_c, 0, 72, 127
2, 305148, Note_on_c, 0, 48, 127
2, 305148, Note_on_c, 2, 74, 127
2, 305272, Note_off_c, 3, 75, 127
2, 305282, Note_off_c, 2, 74, 127
2, 305283, Note_on_c, 3, 75, 127
2, 305417, Note_off_c, 3, 75, 127
2, 305417, Note_off_c, 0, 48, 127
2, 305418, Note_on_c, 0, 60, 127
2, 305418, Note_on_c, 10, 69, 127
2, 305418, Note_on_c, 3, 75, 127
2, 305688, Note_off_c, 10, 69, 127
2, 305688, Note_off_c, 0, 60, 127
2, 305689, Note_on_c, 5, 53, 127
2, 305689, Note_on_c, 11, 70, 127
2, 305823, Note_off_c, 11, 70, 127
2, 305824, Note_on_c, 0, 72, 127
2, 305958, Note_off_c, 0, 72, 127
2, 305958, Note_off_c, 5, 53, 127
2, 305958, Note_off_c, 3, 75, 127
2, 305959, Note_on_c, 11, 58, 127
2, 305959, Note_on_c, 11, 70, 127
2, 305959, Note_on_c, 5, 77, 127
2, 306229, Note_off_c, 11, 70, 127
2, 306229, Note_off_c, 11, 58, 127
2, 306230, Note_on_c, 5, 53, 127
2, 306230, Note_on_c, 0, 72, 127
2, 306364, Note_off_c, 0, 72, 127
2, 306365, Note_on_c, 2, 74, 127
2, 306499, Note_off_c, 2, 74, 127
2, 306499, Note_off_c, 5, 53, 127
2, 306499, Note_off_c, 5, 77, 127
2, 306500, Note_on_c, 0, 60, 127
2, 306500, Note_on_c, 10, 69, 127
2, 306500, Note_on_c, 3, 75, 127
2, 306770, Note_off_c, 10, 69, 127
2, 306770, Note_off_c, 0, 60, 127
2, 306771, Note_on_c, 5, 53, 127
2, 306771, Note_on_c, 11, 70, 127
2, 306905, Note_off_c, 11, 70, 127
2, 306906, Note_on_c, 0, 72, 127
2, 307040, Note_off_c, 0, 72, 127
2, 307040, Note_off_c, 5, 53, 127
2, 307040, Note_off_c, 3, 75, 127
2, 307041, Note_on_c, 2, 62, 127
2, 307041, Note_on_c, 11, 70, 127
2, 307041, Note_on_c, 5, 77, 127
2, 307175, Note_off_c, 2, 62, 127
2, 307176, Note_on_c, 3, 63, 127
2, 307310, Note_off_c, 3, 63, 127
2, 307311, Note_on_c, 2, 62, 127
2, 307445, Note_off_c, 2, 62, 127
2, 307446, Note_on_c, 0, 60, 127
2, 307580, Note_off_c, 0, 60, 127
2, 307580, Note_off_c, 11, 70, 127
2, 307581, Note_on_c, 11, 58, 127
2, 307581, Note_on_c, 2, 74, 127
2, 307851, Note_off_c, 2, 74, 127
2, 307852, Note_on_c, 7, 79, 127
2, 307986, Note_off_c, 7, 79, 127
2, 307987, Note_on_c, 7, 67, 127
2, 308121, Note_off_c, 7, 67, 127
2, 308121, Note_off_c, 11, 58, 127
2, 308121, Note_off_c, 5, 77, 127
2, 308122, Note_on_c, 0, 60, 127
2, 308122, Note_on_c, 7, 67, 127
2, 308122, Note_on_c, 3, 75, 127
2, 308256, Note_off_c, 0, 60, 127
2, 308257, Note_on_c, 2, 62, 127
2, 308391, Note_off_c, 2, 62, 127
2, 308392, Note_on_c, 0, 60, 127
2, 308526, Note_off_c, 0, 60, 127
2, 308527, Note_on_c, 11, 58, 127
2, 308661, Note_off_c, 11, 58, 127
2, 308661, Note_off_c, 7, 67, 127
2, 308662, Note_on_c, 10, 57, 127
2, 308662, Note_on_c, 0, 72, 127
2, 308932, Note_off_c, 0, 72, 127
2, 308933, Note_on_c, 5, 77, 127
2, 309067, Note_off_c, 5, 77, 127
2, 309068, Note_on_c, 5, 65, 127
2, 309202, Note_off_c, 5, 65, 127
2, 309202, Note_off_c, 10, 57, 127
2, 309202, Note_off_c, 3, 75, 127
2, 309203, Note_on_c, 11, 58, 127
2, 309203, Note_on_c, 5, 65, 127
2, 309203, Note_on_c, 2, 74, 127
2, 309473, Note_off_c, 2, 74, 127
2, 309474, Note_on_c, 11, 82, 127
2, 309608, Note_off_c, 11, 82, 127
2, 309609, Note_on_c, 11, 70, 127
2, 309739, Note_off_c, 5, 65, 127
2, 309739, Note_off_c, 11, 58, 127
2, 309743, Note_off_c, 11, 70, 127
2, 309744, Note_on_c, 11, 70, 127
2, 309880, Note_on_c, 4, 64, 127
2, 310014, Note_off_c, 4, 64, 127
2, 310015, Note_on_c, 11, 58, 127
2, 310015, Note_on_c, 5, 65, 127
2, 310149, Note_off_c, 5, 65, 127
2, 310149, Note_off_c, 11, 58, 127
2, 310150, Note_on_c, 11, 58, 127
2, 310150, Note_on_c, 7, 67, 127
2, 310280, Note_off_c, 11, 70, 127
2, 310284, Note_off_c, 7, 67, 127
2, 310284, Note_off_c, 11, 58, 127
2, 310285, Note_on_c, 5, 65, 127
2, 310285, Note_on_c, 10, 69, 127
2, 310555, Note_off_c, 5, 65, 127
2, 310556, Note_on_c, 5, 65, 127
2, 310556, Note_on_c, 10, 81, 127
2, 310680, Note_off_c, 10, 69, 127
2, 310690, Note_off_c, 10, 81, 127
2, 310691, Note_on_c, 10, 69, 127
2, 310825, Note_off_c, 10, 69, 127
2, 310825, Note_off_c, 5, 65, 127
2, 310826, Note_on_c, 5, 65, 127
2, 310826, Note_on_c, 10, 69, 127
2, 310962, Note_on_c, 0, 72, 127
2, 311096, Note_off_c, 0, 72, 127
2, 311096, Note_off_c, 5, 65, 127
2, 311097, Note_on_c, 5, 65, 127
2, 311097, Note_on_c, 11, 70, 127
2, 311221, Note_off_c, 10, 69, 127
2, 311231, Note_off_c, 11, 70, 127
2, 311232, Note_on_c, 10, 69, 127
2, 311366, Note_off_c, 10, 69, 127
2, 311366, Note_off_c, 5, 65, 127
2, 311367, Note_on_c, 2, 62, 127
2, 311367, Note_on_c, 11, 70, 127
2, 311637, Note_off_c, 2, 62, 127
2, 311638, Note_on_c, 11, 58, 127
2, 311638, Note_on_c, 2, 74, 127
2, 311772, Note_off_c, 2, 74, 127
2, 311773, Note_on_c, 0, 72, 127
2, 311907, Note_off_c, 0, 72, 127
2, 311907, Note_off_c, 11, 58, 127
2, 311907, Note_off_c, 11, 70, 127
2, 311908, Note_on_c, 11, 58, 127
2, 311908, Note_on_c, 5, 65, 127
2, 311908, Note_on_c, 2, 74, 127
2, 312042, Note_off_c, 2, 74, 127
2, 312043, Note_on_c, 3, 75, 127
2, 312177, Note_off_c, 3, 75, 127
2, 312177, Note_off_c, 11, 58, 127
2, 312178, Note_on_c, 11, 58, 127
2, 312178, Note_on_c, 2, 74, 127
2, 312312, Note_off_c, 2, 74, 127
2, 312312, Note_off_c, 11, 58, 127
2, 312313, Note_on_c, 11, 58, 127
2, 312313, Note_on_c, 0, 72, 127
2, 312443, Note_off_c, 5, 65, 127
2, 312447, Note_off_c, 0, 72, 127
2, 312447, Note_off_c, 11, 58, 127
2, 312448, Note_on_c, 7, 67, 127
2, 312448, Note_on_c, 11, 70, 127
2, 312718, Note_off_c, 7, 67, 127
2, 312719, Note_on_c, 7, 67, 127
2, 312719, Note_on_c, 2, 74, 127
2, 312853, Note_off_c, 2, 74, 127
2, 312854, Note_on_c, 0, 72, 127
2, 312984, Note_off_c, 11, 70, 127
2, 312988, Note_off_c, 0, 72, 127
2, 312988, Note_off_c, 7, 67, 127
2, 312989, Note_on_c, 7, 67, 127
2, 312989, Note_on_c, 11, 70, 127
2, 313123, Note_off_c, 11, 70, 127
2, 313124, Note_on_c, 10, 69, 127
2, 313258, Note_off_c, 10, 69, 127
2, 313258, Note_off_c, 7, 67, 127
2, 313259, Note_on_c, 7, 67, 127
2, 313395, Note_on_c, 5, 65, 127
2, 313529, Note_off_c, 5, 65, 127
2, 313529, Note_off_c, 7, 67, 127
2, 313530, Note_on_c, 0, 60, 127
2, 313530, Note_on_c, 4, 64, 127
2, 313800, Note_off_c, 0, 60, 127
2, 313801, Note_on_c, 10, 57, 127
2, 313801, Note_on_c, 0, 84, 127
2, 313935, Note_off_c, 0, 84, 127
2, 313936, Note_on_c, 0, 72, 127
2, 314066, Note_off_c, 4, 64, 127
2, 314070, Note_off_c, 0, 72, 127
2, 314070, Note_off_c, 10, 57, 127
2, 314071, Note_on_c, 10, 57, 127
2, 314071, Note_on_c, 0, 72, 127
2, 314207, Note_on_c, 5, 65, 127
2, 314341, Note_off_c, 5, 65, 127
2, 314341, Note_off_c, 10, 57, 127
2, 314342, Note_on_c, 5, 65, 127
2, 314342, Note_on_c, 7, 67, 127
2, 314476, Note_off_c, 7, 67, 127
2, 314477, Note_on_c, 10, 69, 127
2, 314607, Note_off_c, 0, 72, 127
2, 314611, Note_off_c, 10, 69, 127
2, 314611, Note_off_c, 5, 65, 127
2, 314612, Note_on_c, 11, 58, 127
2, 314612, Note_on_c, 7, 67, 127
2, 314882, Note_off_c, 11, 58, 127
2, 314883, Note_on_c, 7, 55, 127
2, 314883, Note_on_c, 11, 82, 127
2, 315017, Note_off_c, 11, 82, 127
2, 315018, Note_on_c, 11, 70, 127
2, 315148, Note_off_c, 7, 67, 127
2, 315152, Note_off_c, 11, 70, 127
2, 315152, Note_off_c, 7, 55, 127
2, 315153, Note_on_c, 7, 55, 127
2, 315153, Note_on_c, 11, 70, 127
2, 315289, Note_on_c, 4, 64, 127
2, 315423, Note_off_c, 4, 64, 127
2, 315423, Note_off_c, 7, 55, 127
2, 315424, Note_on_c, 4, 64, 127
2, 315424, Note_on_c, 5, 65, 127
2, 315558, Note_off_c, 5, 65, 127
2, 315559, Note_on_c, 7, 67, 127
2, 315689, Note_off_c, 11, 70, 127
2, 315693, Note_off_c, 7, 67, 127
2, 315693, Note_off_c, 4, 64, 127
2, 315694, Note_on_c, 5, 65, 127
2, 315694, Note_on_c, 10, 69, 127
2, 315964, Note_off_c, 10, 69, 127
2, 315964, Note_off_c, 5, 65, 127
2, 315965, Note_on_c, 7, 67, 127
2, 315965, Note_on_c, 0, 72, 127
2, 315965, Note_on_c, 5, 77, 127
2, 316099, Note_off_c, 7, 67, 127
2, 316100, Note_on_c, 10, 69, 127
2, 316234, Note_off_c, 10, 69, 127
2, 316234, Note_off_c, 5, 77, 127
2, 316235, Note_on_c, 4, 64, 127
2, 316235, Note_on_c, 7, 79, 127
2, 316505, Note_off_c, 4, 64, 127
2, 316505, Note_off_c, 0, 72, 127
2, 316506, Note_on_c, 5, 65, 127
2, 316506, Note_on_c, 0, 72, 127
2, 316640, Note_off_c, 5, 65, 127
2, 316641, Note_on_c, 7, 67, 127
2, 316775, Note_off_c, 7, 67, 127
2, 316775, Note_off_c, 7, 79, 127
2, 316776, Note_on_c, 5, 65, 127
2, 316776, Note_on_c, 10, 81, 127
2, 317046, Note_off_c, 5, 65, 127
2, 317046, Note_off_c, 0, 72, 127
2, 317047, Note_on_c, 7, 67, 127
2, 317047, Note_on_c, 0, 72, 127
2, 317181, Note_off_c, 7, 67, 127
2, 317182, Note_on_c, 10, 69, 127
2, 317316, Note_off_c, 10, 69, 127
2, 317316, Note_off_c, 10, 81, 127
2, 317317, Note_on_c, 4, 64, 127
2, 317317, Note_on_c, 7, 79, 127
2, 317587, Note_off_c, 4, 64, 127
2, 317587, Note_off_c, 0, 72, 127
2, 317588, Note_on_c, 5, 65, 127
2, 317588, Note_on_c, 0, 72, 127
2, 317722, Note_off_c, 5, 65, 127
2, 317723, Note_on_c, 7, 67, 127
2, 317857, Note_off_c, 7, 67, 127
2, 317857, Note_off_c, 7, 79, 127
2, 317858, Note_on_c, 5, 65, 127
2, 317858, Note_on_c, 10, 81, 127
2, 318128, Note_off_c, 5, 65, 127
2, 318128, Note_off_c, 0, 72, 127
2, 318129, Note_on_c, 7, 67, 127
2, 318129, Note_on_c, 0, 72, 127
2, 318263, Note_off_c, 7, 67, 127
2, 318264, Note_on_c, 10, 69, 127
2, 318397, Note_off_c, 0, 72, 127
2, 318398, Note_off_c, 10, 69, 127
2, 318398, Note_off_c, 10, 81, 127
2, 318399, Note_on_c, 2, 62, 127
2, 318399, Note_on_c, 10, 81, 127
2, 318669, Note_off_c, 2, 62, 127
2, 318670, Note_on_c, 3, 63, 127
2, 318670, Note_on_c, 11, 70, 127
2, 318804, Note_off_c, 3, 63, 127
2, 318805, Note_on_c, 5, 65, 127
2, 318939, Note_off_c, 5, 65, 127
2, 318939, Note_off_c, 10, 81, 127
2, 318940, Note_on_c, 3, 63, 127
2, 318940, Note_on_c, 7, 79, 127
2, 319210, Note_off_c, 3, 63, 127
2, 319210, Note_off_c, 11, 70, 127
2, 319211, Note_on_c, 5, 65, 127
2, 319211, Note_on_c, 11, 70, 127
2, 319345, Note_off_c, 5, 65, 127
2, 319346, Note_on_c, 7, 67, 127
2, 319479, Note_off_c, 11, 70, 127
2, 319480, Note_off_c, 7, 67, 127
2, 319480, Note_off_c, 7, 79, 127
2, 319481, Note_on_c, 0, 60, 127
2, 319481, Note_on_c, 7, 79, 127
2, 319751, Note_off_c, 0, 60, 127
2, 319752, Note_on_c, 2, 62, 127
2, 319752, Note_on_c, 10, 69, 127
2, 319886, Note_off_c, 2, 62, 127
2, 319887, Note_on_c, 3, 63, 127
2, 320021, Note_off_c, 3, 63, 127
2, 320021, Note_off_c, 7, 79, 127
2, 320022, Note_on_c, 2, 62, 127
2, 320022, Note_on_c, 5, 77, 127
2, 320292, Note_off_c, 2, 62, 127
2, 320292, Note_off_c, 10, 69, 127
2, 320293, Note_on_c, 3, 63, 127
2, 320293, Note_on_c, 10, 69, 127
2, 320427, Note_off_c, 3, 63, 127
2, 320428, Note_on_c, 5, 65, 127
2, 320562, Note_off_c, 5, 65, 127
2, 320562, Note_off_c, 10, 69, 127
2, 320562, Note_off_c, 5, 77, 127
2, 320563, Note_on_c, 11, 58, 127
2, 320563, Note_on_c, 2, 74, 127
2, 320563, Note_on_c, 5, 77, 127
2, 320833, Note_off_c, 2, 74, 127
2, 320833, Note_off_c, 11, 58, 127
2, 320834, Note_on_c, 0, 60, 127
2, 320834, Note_on_c, 11, 70, 127
2, 320968, Note_off_c, 0, 60, 127
2, 320969, Note_on_c, 2, 62, 127
2, 321103, Note_off_c, 2, 62, 127
2, 321103, Note_off_c, 11, 70, 127
2, 321104, Note_on_c, 5, 53, 127
2, 321104, Note_on_c, 0, 60, 127
2, 321104, Note_on_c, 10, 69, 127
2, 321374, Note_off_c, 10, 69, 127
2, 321374, Note_off_c, 0, 60, 127
2, 321374, Note_off_c, 5, 77, 127
2, 321375, Note_on_c, 2, 62, 127
2, 321375, Note_on_c, 5, 77, 127
2, 321509, Note_off_c, 5, 77, 127
2, 321510, Note_on_c, 5, 65, 127
2, 321640, Note_off_c, 5, 53, 127
2, 321644, Note_off_c, 5, 65, 127
2, 321644, Note_off_c, 2, 62, 127
2, 321645, Note_on_c, 3, 63, 127
2, 321645, Note_on_c, 5, 65, 127
2, 321781, Note_on_c, 0, 72, 127
2, 321915, Note_off_c, 0, 72, 127
2, 321915, Note_off_c, 3, 63, 127
2, 321916, Note_on_c, 2, 62, 127
2, 321916, Note_on_c, 5, 53, 127
2, 321916, Note_on_c, 11, 70, 127
2, 322050, Note_off_c, 11, 70, 127
2, 322050, Note_off_c, 5, 53, 127
2, 322050, Note_off_c, 2, 62, 127
2, 322051, Note_on_c, 0, 60, 127
2, 322051, Note_on_c, 5, 53, 127
2, 322051, Note_on_c, 10, 69, 127
2, 322181, Note_off_c, 5, 65, 127
2, 322185, Note_off_c, 10, 69, 127
2, 322185, Note_off_c, 5, 53, 127
2, 322185, Note_off_c, 0, 60, 127
2, 322186, Note_on_c, 2, 62, 127
2, 322186, Note_on_c, 11, 58, 127
2, 322186, Note_on_c, 11, 70, 127
2, 322456, Note_off_c, 11, 58, 127
2, 322457, Note_on_c, 11, 58, 127
2, 322457, Note_on_c, 2, 74, 127
2, 322581, Note_off_c, 2, 62, 127
2, 322591, Note_off_c, 2, 74, 127
2, 322592, Note_on_c, 2, 62, 127
2, 322722, Note_off_c, 11, 70, 127
2, 322726, Note_off_c, 2, 62, 127
2, 322726, Note_off_c, 11, 58, 127
2, 322727, Note_on_c, 11, 58, 127
2, 322727, Note_on_c, 2, 62, 127
2, 322863, Note_on_c, 5, 65, 127
2, 322996, Note_off_c, 2, 62, 127
2, 322997, Note_off_c, 5, 65, 127
2, 322997, Note_off_c, 11, 58, 127
2, 322998, Note_on_c, 11, 58, 127
2, 322998, Note_on_c, 3, 63, 127
2, 323132, Note_off_c, 3, 63, 127
2, 323133, Note_on_c, 2, 62, 127
2, 323267, Note_off_c, 2, 62, 127
2, 323267, Note_off_c, 11, 58, 127
2, 323268, Note_on_c, 10, 57, 127
2, 323268, Note_on_c, 0, 60, 127
2, 323538, Note_off_c, 10, 57, 127
2, 323539, Note_on_c, 5, 53, 127
2, 323539, Note_on_c, 10, 69, 127
2, 323673, Note_off_c, 10, 69, 127
2, 323674, Note_on_c, 7, 67, 127
2, 323804, Note_off_c, 0, 60, 127
2, 323808, Note_off_c, 7, 67, 127
2, 323808, Note_off_c, 5, 53, 127
2, 323809, Note_on_c, 5, 53, 127
2, 323809, Note_on_c, 10, 69, 127
2, 323943, Note_off_c, 10, 69, 127
2, 323944, Note_on_c, 11, 70, 127
2, 324078, Note_off_c, 11, 70, 127
2, 324078, Note_off_c, 5, 53, 127
2, 324079, Note_on_c, 5, 53, 127
2, 324079, Note_on_c, 10, 69, 127
2, 324213, Note_off_c, 10, 69, 127
2, 324213, Note_off_c, 5, 53, 127
2, 324214, Note_on_c, 5, 53, 127
2, 324214, Note_on_c, 7, 67, 127
2, 324348, Note_off_c, 7, 67, 127
2, 324348, Note_off_c, 5, 53, 127
2, 324349, Note_on_c, 2, 62, 127
2, 324349, Note_on_c, 5, 65, 127
2, 324619, Note_off_c, 2, 62, 127
2, 324620, Note_on_c, 2, 62, 127
2, 324620, Note_on_c, 11, 70, 127
2, 324754, Note_off_c, 11, 70, 127
2, 324755, Note_on_c, 0, 72, 127
2, 324885, Note_off_c, 5, 65, 127
2, 324889, Note_off_c, 0, 72, 127
2, 324889, Note_off_c, 2, 62, 127
2, 324890, Note_on_c, 2, 62, 127
2, 324890, Note_on_c, 11, 70, 127
2, 325024, Note_off_c, 11, 70, 127
2, 325025, Note_on_c, 10, 69, 127
2, 325159, Note_off_c, 10, 69, 127
2, 325159, Note_off_c, 2, 62, 127
2, 325160, Note_on_c, 2, 62, 127
2, 325160, Note_on_c, 7, 67, 127
2, 325294, Note_off_c, 7, 67, 127
2, 325295, Note_on_c, 5, 65, 127
2, 325429, Note_off_c, 5, 65, 127
2, 325429, Note_off_c, 2, 62, 127
2, 325430, Note_on_c, 7, 55, 127
2, 325430, Note_on_c, 3, 63, 127
2, 325700, Note_off_c, 7, 55, 127
2, 325701, Note_on_c, 3, 51, 127
2, 325701, Note_on_c, 7, 79, 127
2, 325835, Note_off_c, 7, 79, 127
2, 325836, Note_on_c, 7, 67, 127
2, 325966, Note_off_c, 3, 63, 127
2, 325970, Note_off_c, 7, 67, 127
2, 325970, Note_off_c, 3, 51, 127
2, 325971, Note_on_c, 3, 51, 127
2, 325971, Note_on_c, 7, 67, 127
2, 326107, Note_on_c, 5, 65, 127
2, 326241, Note_off_c, 5, 65, 127
2, 326241, Note_off_c, 3, 51, 127
2, 326242, Note_on_c, 0, 60, 127
2, 326242, Note_on_c, 3, 63, 127
2, 326376, Note_off_c, 3, 63, 127
2, 326377, Note_on_c, 2, 62, 127
2, 326507, Note_off_c, 7, 67, 127
2, 326511, Note_off_c, 2, 62, 127
2, 326511, Note_off_c, 0, 60, 127
2, 326512, Note_on_c, 5, 53, 127
2, 326512, Note_on_c, 0, 60, 127
2, 326782, Note_off_c, 5, 53, 127
2, 326783, Note_on_c, 2, 50, 127
2, 326783, Note_on_c, 5, 77, 127
2, 326917, Note_off_c, 5, 77, 127
2, 326918, Note_on_c, 5, 65, 127
2, 327048, Note_off_c, 0, 60, 127
2, 327052, Note_off_c, 5, 65, 127
2, 327052, Note_off_c, 2, 50, 127
2, 327053, Note_on_c, 2, 50, 127
2, 327053, Note_on_c, 5, 65, 127
2, 327189, Note_on_c, 12, 59, 127
2, 327323, Note_off_c, 12, 59, 127
2, 327323, Note_off_c, 2, 50, 127
2, 327324, Note_on_c, 12, 59, 127
2, 327324, Note_on_c, 0, 60, 127
2, 327458, Note_off_c, 0, 60, 127
2, 327459, Note_on_c, 2, 62, 127
2, 327589, Note_off_c, 5, 65, 127
2, 327593, Note_off_c, 2, 62, 127
2, 327593, Note_off_c, 12, 59, 127
2, 327594, Note_on_c, 0, 60, 127
2, 327594, Note_on_c, 3, 63, 127
2, 327730, Note_on_c, 3, 75, 127
2, 327864, Note_off_c, 3, 75, 127
2, 327864, Note_off_c, 3, 63, 127
2, 327864, Note_off_c, 0, 60, 127
2, 327865, Note_on_c, 2, 62, 127
2, 327865, Note_on_c, 7, 67, 127
2, 327865, Note_on_c, 2, 74, 127
2, 327999, Note_off_c, 2, 74, 127
2, 327999, Note_off_c, 2, 62, 127
2, 328000, Note_on_c, 3, 63, 127
2, 328000, Note_on_c, 0, 72, 127
2, 328134, Note_off_c, 0, 72, 127
2, 328134, Note_off_c, 3, 63, 127
2, 328134, Note_off_c, 7, 67, 127
2, 328135, Note_on_c, 10, 57, 127
2, 328135, Note_on_c, 0, 72, 127
2, 328135, Note_on_c, 5, 77, 127
2, 328405, Note_off_c, 0, 72, 127
2, 328405, Note_off_c, 10, 57, 127
2, 328406, Note_on_c, 11, 58, 127
2, 328406, Note_on_c, 5, 65, 127
2, 328540, Note_off_c, 11, 58, 127
2, 328541, Note_on_c, 0, 60, 127
2, 328675, Note_off_c, 0, 60, 127
2, 328675, Note_off_c, 5, 65, 127
2, 328676, Note_on_c, 11, 58, 127
2, 328676, Note_on_c, 2, 74, 127
2, 328810, Note_off_c, 5, 77, 127
2, 328811, Note_on_c, 5, 77, 127
2, 328945, Note_off_c, 2, 74, 127
2, 328945, Note_off_c, 11, 58, 127
2, 328946, Note_on_c, 0, 60, 127
2, 328946, Note_on_c, 5, 65, 127
2, 329080, Note_off_c, 0, 60, 127
2, 329080, Note_off_c, 5, 77, 127
2, 329081, Note_on_c, 2, 62, 127
2, 329081, Note_on_c, 5, 77, 127
2, 329215, Note_off_c, 2, 62, 127
2, 329215, Note_off_c, 5, 65, 127
2, 329216, Note_on_c, 10, 57, 127
2, 329216, Note_on_c, 0, 72, 127
2, 329350, Note_off_c, 5, 77, 127
2, 329351, Note_on_c, 5, 77, 127
2, 329485, Note_off_c, 0, 72, 127
2, 329485, Note_off_c, 10, 57, 127
2, 329486, Note_on_c, 11, 58, 127
2, 329486, Note_on_c, 5, 65, 127
2, 329620, Note_off_c, 11, 58, 127
2, 329620, Note_off_c, 5, 77, 127
2, 329621, Note_on_c, 0, 60, 127
2, 329621, Note_on_c, 5, 77, 127
2, 329755, Note_off_c, 0, 60, 127
2, 329755, Note_off_c, 5, 65, 127
2, 329756, Note_on_c, 11, 58, 127
2, 329756, Note_on_c, 2, 74, 127
2, 329890, Note_off_c, 5, 77, 127
2, 329891, Note_on_c, 5, 77, 127
2, 330025, Note_off_c, 2, 74, 127
2, 330025, Note_off_c, 11, 58, 127
2, 330026, Note_on_c, 0, 60, 127
2, 330026, Note_on_c, 5, 65, 127
2, 330160, Note_off_c, 0, 60, 127
2, 330160, Note_off_c, 5, 77, 127
2, 330161, Note_on_c, 2, 62, 127
2, 330161, Note_on_c, 5, 77, 127
2, 330295, Note_off_c, 2, 62, 127
2, 330295, Note_off_c, 5, 65, 127
2, 330296, Note_on_c, 10, 57, 127
2, 330296, Note_on_c, 0, 72, 127
2, 330430, Note_off_c, 5, 77, 127
2, 330431, Note_on_c, 5, 77, 127
2, 330565, Note_off_c, 0, 72, 127
2, 330565, Note_off_c, 10, 57, 127
2, 330566, Note_on_c, 11, 58, 127
2, 330566, Note_on_c, 5, 65, 127
2, 330700, Note_off_c, 11, 58, 127
2, 330700, Note_off_c, 5, 77, 127
2, 330701, Note_on_c, 0, 60, 127
2, 330701, Note_on_c, 5, 77, 127
2, 330835, Note_off_c, 0, 60, 127
2, 330835, Note_off_c, 5, 65, 127
2, 330836, Note_on_c, 11, 58, 127
2, 330836, Note_on_c, 2, 74, 127
2, 330970, Note_off_c, 5, 77, 127
2, 330971, Note_on_c, 5, 77, 127
2, 331105, Note_off_c, 2, 74, 127
2, 331105, Note_off_c, 11, 58, 127
2, 331106, Note_on_c, 2, 62, 127
2, 331106, Note_on_c, 11, 70, 127
2, 331240, Note_off_c, 5, 77, 127
2, 331241, Note_on_c, 5, 77, 127
2, 331375, Note_off_c, 11, 70, 127
2, 331375, Note_off_c, 2, 62, 127
2, 331376, Note_on_c, 3, 63, 127
2, 331376, Note_on_c, 7, 67, 127
2, 331510, Note_off_c, 5, 77, 127
2, 331511, Note_on_c, 3, 75, 127
2, 331645, Note_off_c, 3, 63, 127
2, 331646, Note_on_c, 0, 60, 127
2, 331780, Note_off_c, 3, 75, 127
2, 331781, Note_on_c, 3, 75, 127
2, 331915, Note_off_c, 0, 60, 127
2, 331915, Note_off_c, 7, 67, 127
2, 331916, Note_on_c, 5, 41, 127
2, 331916, Note_on_c, 10, 69, 127
2, 332186, Note_off_c, 10, 69, 127
2, 332186, Note_off_c, 5, 41, 127
2, 332186, Note_off_c, 3, 75, 127
2, 332187, Note_on_c, 5, 65, 127
2, 332187, Note_on_c, 11, 70, 127
2, 332187, Note_on_c, 2, 74, 127
2, 332321, Note_off_c, 5, 65, 127
2, 332322, Note_on_c, 5, 53, 127
2, 332456, Note_off_c, 5, 53, 127
2, 332456, Note_off_c, 2, 74, 127
2, 332457, Note_on_c, 5, 53, 127
2, 332457, Note_on_c, 0, 72, 127
2, 332727, Note_off_c, 11, 70, 127
2, 332728, Note_on_c, 5, 41, 127
2, 332728, Note_on_c, 10, 69, 127
2, 332862, Note_off_c, 5, 41, 127
2, 332863, Note_on_c, 5, 41, 127
2, 332993, Note_off_c, 5, 53, 127
2, 332997, Note_off_c, 5, 41, 127
2, 332997, Note_off_c, 10, 69, 127
2, 332997, Note_off_c, 0, 72, 127
2, 332998, Note_on_c, 11, 46, 127
2, 332998, Note_on_c, 11, 70, 127
2, 333268, Note_off_c, 11, 70, 127
2, 333268, Note_off_c, 11, 46, 127
2, 333269, Note_on_c, 11, 46, 127
2, 333269, Note_on_c, 2, 62, 127
2, 333269, Note_on_c, 5, 65, 127
2, 333403, Note_off_c, 2, 62, 127
2, 333404, Note_on_c, 2, 50, 127
2, 333537, Note_off_c, 5, 65, 127
2, 333538, Note_off_c, 2, 50, 127
2, 333538, Note_off_c, 11, 46, 127
2, 333539, Note_on_c, 11, 46, 127
2, 333539, Note_on_c, 2, 50, 127
2, 333673, Note_off_c, 2, 50, 127
2, 333674, Note_on_c, 5, 65, 127
2, 333808, Note_off_c, 5, 65, 127
2, 333808, Note_off_c, 11, 46, 127
2, 333809, Note_on_c, 11, 46, 127
2, 333809, Note_on_c, 3, 63, 127
2, 333943, Note_off_c, 3, 63, 127
2, 333944, Note_on_c, 2, 62, 127
2, 334078, Note_off_c, 2, 62, 127
2, 334078, Note_off_c, 11, 46, 127
2, 334079, Note_on_c, 10, 45, 127
2, 334079, Note_on_c, 0, 60, 127
2, 334349, Note_off_c, 0, 60, 127
2, 334349, Note_off_c, 10, 45, 127
2, 334350, Note_on_c, 5, 41, 127
2, 334350, Note_on_c, 10, 57, 127
2, 334484, Note_off_c, 10, 57, 127
2, 334485, Note_on_c, 7, 55, 127
2, 334619, Note_off_c, 7, 55, 127
2, 334619, Note_off_c, 5, 41, 127
2, 334620, Note_on_c, 5, 41, 127
2, 334620, Note_on_c, 10, 57, 127
2, 334754, Note_off_c, 10, 57, 127
2, 334755, Note_on_c, 11, 58, 127
2, 334889, Note_off_c, 11, 58, 127
2, 334889, Note_off_c, 5, 41, 127
2, 334890, Note_on_c, 5, 41, 127
2, 334890, Note_on_c, 10, 57, 127
2, 335024, Note_off_c, 10, 57, 127
2, 335024, Note_off_c, 5, 41, 127
2, 335025, Note_on_c, 5, 41, 127
2, 335025, Note_on_c, 7, 55, 127
2, 335159, Note_off_c, 7, 55, 127
2, 335159, Note_off_c, 5, 41, 127
2, 335160, Note_on_c, 2, 50, 127
2, 335160, Note_on_c, 5, 53, 127
2, 335430, Note_off_c, 2, 50, 127
2, 335431, Note_on_c, 2, 50, 127
2, 335431, Note_on_c, 2, 62, 127
2, 335565, Note_off_c, 2, 62, 127
2, 335566, Note_on_c, 3, 63, 127
2, 335696, Note_off_c, 5, 53, 127
2, 335700, Note_off_c, 3, 63, 127
2, 335700, Note_off_c, 2, 50, 127
2, 335701, Note_on_c, 2, 50, 127
2, 335701, Note_on_c, 2, 62, 127
2, 335835, Note_off_c, 2, 62, 127
2, 335836, Note_on_c, 0, 60, 127
2, 335970, Note_off_c, 0, 60, 127
2, 335970, Note_off_c, 2, 50, 127
2, 335971, Note_on_c, 2, 50, 127
2, 335971, Note_on_c, 11, 58, 127
2, 336105, Note_off_c, 11, 58, 127
2, 336106, Note_on_c, 0, 60, 127
2, 336240, Note_off_c, 0, 60, 127
2, 336240, Note_off_c, 2, 50, 127
2, 336241, Note_on_c, 7, 43, 127
2, 336241, Note_on_c, 11, 58, 127
2, 336511, Note_off_c, 7, 43, 127
2, 336512, Note_on_c, 3, 39, 127
2, 336512, Note_on_c, 7, 67, 127
2, 336646, Note_off_c, 7, 67, 127
2, 336647, Note_on_c, 7, 55, 127
2, 336777, Note_off_c, 11, 58, 127
2, 336781, Note_off_c, 7, 55, 127
2, 336781, Note_off_c, 3, 39, 127
2, 336782, Note_on_c, 3, 39, 127
2, 336782, Note_on_c, 7, 55, 127
2, 336918, Note_on_c, 0, 60, 127
2, 337052, Note_off_c, 0, 60, 127
2, 337052, Note_off_c, 3, 39, 127
2, 337053, Note_on_c, 0, 48, 127
2, 337053, Note_on_c, 2, 62, 127
2, 337187, Note_off_c, 2, 62, 127
2, 337188, Note_on_c, 3, 63, 127
2, 337318, Note_off_c, 7, 55, 127
2, 337322, Note_off_c, 3, 63, 127
2, 337322, Note_off_c, 0, 48, 127
2, 337323, Note_on_c, 5, 41, 127
2, 337323, Note_on_c, 2, 62, 127
2, 337593, Note_off_c, 5, 41, 127
2, 337594, Note_on_c, 2, 38, 127
2, 337594, Note_on_c, 5, 65, 127
2, 337728, Note_off_c, 5, 65, 127
2, 337729, Note_on_c, 5, 53, 127
2, 337859, Note_off_c, 2, 62, 127
2, 337863, Note_off_c, 5, 53, 127
2, 337863, Note_off_c, 2, 38, 127
2, 337864, Note_on_c, 2, 38, 127
2, 337864, Note_on_c, 5, 53, 127
2, 338000, Note_on_c, 11, 58, 127
2, 338134, Note_off_c, 11, 58, 127
2, 338134, Note_off_c, 2, 38, 127
2, 338135, Note_on_c, 11, 46, 127
2, 338135, Note_on_c, 0, 60, 127
2, 338269, Note_off_c, 0, 60, 127
2, 338270, Note_on_c, 2, 62, 127
2, 338400, Note_off_c, 5, 53, 127
2, 338404, Note_off_c, 2, 62, 127
2, 338404, Note_off_c, 11, 46, 127
2, 338405, Note_on_c, 3, 39, 127
2, 338405, Note_on_c, 0, 60, 127
2, 338675, Note_off_c, 3, 39, 127
2, 338676, Note_on_c, 0, 36, 127
2, 338676, Note_on_c, 3, 63, 127
2, 338810, Note_off_c, 3, 63, 127
2, 338811, Note_on_c, 3, 51, 127
2, 338941, Note_off_c, 0, 60, 127
2, 338945, Note_off_c, 3, 51, 127
2, 338945, Note_off_c, 0, 36, 127
2, 338946, Note_on_c, 0, 36, 127
2, 338946, Note_on_c, 3, 51, 127
2, 339082, Note_on_c, 10, 57, 127
2, 339216, Note_off_c, 10, 57, 127
2, 339216, Note_off_c, 0, 36, 127
2, 339217, Note_on_c, 10, 45, 127
2, 339217, Note_on_c, 11, 58, 127
2, 339351, Note_off_c, 11, 58, 127
2, 339352, Note_on_c, 0, 60, 127
2, 339482, Note_off_c, 3, 51, 127
2, 339486, Note_off_c, 0, 60, 127
2, 339486, Note_off_c, 10, 45, 127
2, 339487, Note_on_c, 11, 46, 127
2, 339487, Note_on_c, 2, 62, 127
2, 339757, Note_off_c, 11, 46, 127
2, 339758, Note_on_c, 0, 48, 127
2, 339758, Note_on_c, 0, 60, 127
2, 339892, Note_off_c, 0, 60, 127
2, 339892, Note_off_c, 0, 48, 127
2, 339893, Note_on_c, 2, 50, 127
2, 339893, Note_on_c, 11, 58, 127
2, 340027, Note_off_c, 11, 58, 127
2, 340027, Note_off_c, 2, 50, 127
2, 340027, Note_off_c, 2, 62, 127
2, 340028, Note_on_c, 10, 45, 127
2, 340028, Note_on_c, 0, 60, 127
2, 340028, Note_on_c, 3, 63, 127
2, 340298, Note_off_c, 0, 60, 127
2, 340298, Note_off_c, 10, 45, 127
2, 340299, Note_on_c, 11, 46, 127
2, 340299, Note_on_c, 5, 53, 127
2, 340433, Note_off_c, 11, 46, 127
2, 340434, Note_on_c, 0, 48, 127
2, 340568, Note_off_c, 0, 48, 127
2, 340568, Note_off_c, 5, 53, 127
2, 340568, Note_off_c, 3, 63, 127
2, 340569, Note_on_c, 11, 46, 127
2, 340569, Note_on_c, 11, 58, 127
2, 340569, Note_on_c, 2, 62, 127
2, 340839, Note_off_c, 11, 58, 127
2, 340839, Note_off_c, 11, 46, 127
2, 340840, Note_on_c, 0, 48, 127
2, 340840, Note_on_c, 5, 53, 127
2, 340974, Note_off_c, 0, 48, 127
2, 340975, Note_on_c, 2, 50, 127
2, 341109, Note_off_c, 2, 50, 127
2, 341109, Note_off_c, 5, 53, 127
2, 341109, Note_off_c, 2, 62, 127
2, 341110, Note_on_c, 10, 45, 127
2, 341110, Note_on_c, 0, 60, 127
2, 341110, Note_on_c, 3, 63, 127
2, 341380, Note_off_c, 0, 60, 127
2, 341380, Note_off_c, 10, 45, 127
2, 341381, Note_on_c, 11, 46, 127
2, 341381, Note_on_c, 5, 53, 127
2, 341515, Note_off_c, 11, 46, 127
2, 341516, Note_on_c, 0, 48, 127
2, 341650, Note_off_c, 0, 48, 127
2, 341650, Note_off_c, 5, 53, 127
2, 341650, Note_off_c, 3, 63, 127
2, 341651, Note_on_c, 11, 46, 127
2, 341651, Note_on_c, 5, 53, 127
2, 341651, Note_on_c, 2, 62, 127
2, 341921, Note_off_c, 2, 62, 127
2, 341922, Note_on_c, 11, 82, 127
2, 342058, Note_on_c, 11, 70, 127
2, 342188, Note_off_c, 5, 53, 127
2, 342188, Note_off_c, 11, 46, 127
2, 342191, Note_off_c, 11, 82, 127
2, 342192, Note_off_c, 11, 70, 127
2, 342193, Note_on_c, 11, 70, 127
2, 342463, Note_off_c, 11, 70, 127
2, 342464, Note_on_c, 3, 51, 127
2, 342464, Note_on_c, 0, 48, 127
2, 342464, Note_on_c, 11, 82, 127
2, 342600, Note_on_c, 11, 70, 127
2, 342733, Note_off_c, 11, 82, 127
2, 342734, Note_off_c, 11, 70, 127
2, 342734, Note_off_c, 0, 48, 127
2, 342734, Note_off_c, 3, 51, 127
2, 342735, Note_on_c, 5, 53, 127
2, 342735, Note_on_c, 2, 50, 127
2, 342735, Note_on_c, 11, 70, 127
2, 342871, Note_on_c, 11, 82, 127
2, 343004, Note_off_c, 11, 70, 127
2, 343005, Note_off_c, 11, 82, 127
2, 343005, Note_off_c, 2, 50, 127
2, 343005, Note_off_c, 5, 53, 127
2, 343006, Note_on_c, 3, 51, 127
2, 343006, Note_on_c, 0, 48, 127
2, 343006, Note_on_c, 11, 82, 127
2, 343142, Note_on_c, 11, 70, 127
2, 343275, Note_off_c, 11, 82, 127
2, 343276, Note_off_c, 11, 70, 127
2, 343276, Note_off_c, 0, 48, 127
2, 343276, Note_off_c, 3, 51, 127
2, 343277, Note_on_c, 5, 53, 127
2, 343277, Note_on_c, 2, 50, 127
2, 343277, Note_on_c, 11, 70, 127
2, 343413, Note_on_c, 11, 82, 127
2, 343546, Note_off_c, 11, 70, 127
2, 343547, Note_off_c, 11, 82, 127
2, 343547, Note_off_c, 2, 50, 127
2, 343547, Note_off_c, 5, 53, 127
2, 343548, Note_on_c, 7, 55, 127
2, 343548, Note_on_c, 4, 52, 127
2, 343548, Note_on_c, 11, 82, 127
2, 343684, Note_on_c, 11, 70, 127
2, 343817, Note_off_c, 11, 82, 127
2, 343818, Note_off_c, 11, 70, 127
2, 343818, Note_off_c, 4, 52, 127
2, 343818, Note_off_c, 7, 55, 127
2, 343819, Note_on_c, 5, 53, 127
2, 343819, Note_on_c, 0, 60, 127
2, 343819, Note_on_c, 10, 69, 127
2, 343955, Note_on_c, 10, 81, 127
2, 344089, Note_off_c, 10, 81, 127
2, 344089, Note_off_c, 0, 60, 127
2, 344089, Note_off_c, 5, 53, 127
2, 344090, Note_on_c, 2, 50, 127
2, 344090, Note_on_c, 11, 58, 127
2, 344090, Note_on_c, 10, 81, 127
2, 344214, Note_off_c, 10, 69, 127
2, 344224, Note_off_c, 10, 81, 127
2, 344225, Note_on_c, 10, 69, 127
2, 344359, Note_off_c, 10, 69, 127
2, 344359, Note_off_c, 2, 50, 127
2, 344360, Note_on_c, 3, 51, 127
2, 344360, Note_on_c, 7, 67, 127
2, 344496, Note_on_c, 7, 79, 127
2, 344630, Note_off_c, 7, 79, 127
2, 344630, Note_off_c, 3, 51, 127
2, 344630, Note_off_c, 11, 58, 127
2, 344631, Note_on_c, 0, 48, 127
2, 344631, Note_on_c, 10, 57, 127
2, 344631, Note_on_c, 7, 79, 127
2, 344755, Note_off_c, 7, 67, 127
2, 344765, Note_off_c, 7, 79, 127
2, 344766, Note_on_c, 7, 67, 127
2, 344900, Note_off_c, 7, 67, 127
2, 344900, Note_off_c, 0, 48, 127
2, 344901, Note_on_c, 2, 50, 127
2, 344901, Note_on_c, 5, 65, 127
2, 345037, Note_on_c, 5, 77, 127
2, 345171, Note_off_c, 5, 77, 127
2, 345171, Note_off_c, 2, 50, 127
2, 345171, Note_off_c, 10, 57, 127
2, 345172, Note_on_c, 11, 46, 127
2, 345172, Note_on_c, 7, 55, 127
2, 345172, Note_on_c, 5, 77, 127
2, 345296, Note_off_c, 5, 65, 127
2, 345306, Note_off_c, 5, 77, 127
2, 345307, Note_on_c, 5, 65, 127
2, 345441, Note_off_c, 5, 65, 127
2, 345441, Note_off_c, 11, 46, 127
2, 345442, Note_on_c, 0, 48, 127
2, 345442, Note_on_c, 3, 63, 127
2, 345578, Note_on_c, 3, 75, 127
2, 345711, Note_off_c, 3, 63, 127
2, 345712, Note_off_c, 3, 75, 127
2, 345712, Note_off_c, 0, 48, 127
2, 345712, Note_off_c, 7, 55, 127
2, 345713, Note_on_c, 10, 45, 127
2, 345713, Note_on_c, 5, 53, 127
2, 345713, Note_on_c, 3, 75, 127
2, 345847, Note_off_c, 3, 75, 127
2, 345848, Note_on_c, 3, 63, 127
2, 345982, Note_off_c, 3, 63, 127
2, 345982, Note_off_c, 10, 45, 127
2, 345983, Note_on_c, 11, 46, 127
2, 345983, Note_on_c, 2, 62, 127
2, 346117, Note_off_c, 2, 62, 127
2, 346118, Note_on_c, 5, 65, 127
2, 346252, Note_off_c, 5, 65, 127
2, 346252, Note_off_c, 11, 46, 127
2, 346253, Note_on_c, 0, 48, 127
2, 346253, Note_on_c, 3, 63, 127
2, 346387, Note_off_c, 3, 63, 127
2, 346388, Note_on_c, 7, 67, 127
2, 346522, Note_off_c, 7, 67, 127
2, 346522, Note_off_c, 0, 48, 127
2, 346522, Note_off_c, 5, 53, 127
2, 346523, Note_on_c, 2, 50, 127
2, 346523, Note_on_c, 5, 65, 127
2, 346657, Note_off_c, 5, 65, 127
2, 346658, Note_on_c, 10, 69, 127
2, 346792, Note_off_c, 10, 69, 127
2, 346792, Note_off_c, 2, 50, 127
2, 346793, Note_on_c, 11, 46, 127
2, 346793, Note_on_c, 7, 67, 127
2, 346927, Note_off_c, 7, 67, 127
2, 346928, Note_on_c, 11, 70, 127
2, 347062, Note_off_c, 11, 70, 127
2, 347062, Note_off_c, 11, 46, 127
2, 347063, Note_on_c, 5, 41, 127
2, 347063, Note_on_c, 5, 65, 127
2, 347063, Note_on_c, 10, 69, 127
2, 347197, Note_off_c, 5, 65, 127
2, 347197, Note_off_c, 5, 41, 127
2, 347198, Note_on_c, 5, 53, 127
2, 347332, Note_off_c, 5, 53, 127
2, 347333, Note_on_c, 5, 53, 127
2, 347333, Note_on_c, 2, 74, 127
2, 347467, Note_off_c, 5, 53, 127
2, 347468, Note_on_c, 5, 65, 127
2, 347598, Note_off_c, 10, 69, 127
2, 347602, Note_off_c, 5, 65, 127
2, 347603, Note_on_c, 3, 63, 127
2, 347603, Note_on_c, 7, 67, 127
2, 347737, Note_off_c, 3, 63, 127
2, 347738, Note_on_c, 3, 51, 127
2, 347872, Note_off_c, 3, 51, 127
2, 347872, Note_off_c, 2, 74, 127
2, 347873, Note_on_c, 3, 51, 127
2, 347873, Note_on_c, 0, 72, 127
2, 348007, Note_off_c, 3, 51, 127
2, 348008, Note_on_c, 3, 63, 127
2, 348142, Note_off_c, 3, 63, 127
2, 348142, Note_off_c, 7, 67, 127
2, 348143, Note_on_c, 2, 62, 127
2, 348143, Note_on_c, 5, 65, 127
2, 348277, Note_off_c, 2, 62, 127
2, 348278, Note_on_c, 2, 50, 127
2, 348412, Note_off_c, 2, 50, 127
2, 348412, Note_off_c, 0, 72, 127
2, 348413, Note_on_c, 2, 50, 127
2, 348413, Note_on_c, 11, 70, 127
2, 348547, Note_off_c, 2, 50, 127
2, 348548, Note_on_c, 2, 62, 127
2, 348682, Note_off_c, 2, 62, 127
2, 348682, Note_off_c, 5, 65, 127
2, 348683, Note_on_c, 0, 60, 127
2, 348683, Note_on_c, 3, 63, 127
2, 348817, Note_off_c, 0, 60, 127
2, 348818, Note_on_c, 0, 48, 127
2, 348952, Note_off_c, 0, 48, 127
2, 348952, Note_off_c, 11, 70, 127
2, 348953, Note_on_c, 0, 48, 127
2, 348953, Note_on_c, 10, 69, 127
2, 349087, Note_off_c, 0, 48, 127
2, 349088, Note_on_c, 0, 60, 127
2, 349222, Note_off_c, 0, 60, 127
2, 349222, Note_off_c, 10, 69, 127
2, 349222, Note_off_c, 3, 63, 127
2, 349223, Note_on_c, 11, 58, 127
2, 349223, Note_on_c, 2, 62, 127
2, 349223, Note_on_c, 2, 74, 127
2, 349362, Note_on_c, 7, 79, 127
2, 349498, Note_off_c, 2, 74, 127
2, 349499, Note_off_c, 7, 79, 127
2, 349499, Note_off_c, 2, 62, 127
2, 349500, Note_on_c, 7, 67, 127
2, 349500, Note_on_c, 7, 79, 127
2, 349639, Note_on_c, 11, 70, 127
2, 349775, Note_off_c, 7, 79, 127
2, 349776, Note_off_c, 11, 70, 127
2, 349776, Note_off_c, 11, 58, 127
2, 349777, Note_on_c, 0, 60, 127
2, 349777, Note_on_c, 10, 57, 127
2, 349777, Note_on_c, 0, 72, 127
2, 349916, Note_on_c, 6, 78, 127
2, 350053, Note_off_c, 6, 78, 127
2, 350053, Note_off_c, 7, 67, 127
2, 350054, Note_on_c, 6, 66, 127
2, 350054, Note_on_c, 6, 78, 127
2, 350181, Note_off_c, 0, 72, 127
2, 350191, Note_off_c, 6, 78, 127
2, 350192, Note_on_c, 10, 69, 127
2, 350329, Note_off_c, 10, 69, 127
2, 350329, Note_off_c, 6, 66, 127
2, 350329, Note_off_c, 10, 57, 127
2, 350329, Note_off_c, 0, 60, 127
2, 350330, Note_on_c, 2, 62, 127
2, 350330, Note_on_c, 7, 55, 127
2, 350330, Note_on_c, 7, 67, 127
2, 350330, Note_on_c, 11, 70, 127
2, 350469, Note_on_c, 11, 82, 127
2, 350605, Note_off_c, 2, 62, 127
2, 350606, Note_off_c, 11, 82, 127
2, 350607, Note_on_c, 3, 63, 127
2, 350607, Note_on_c, 11, 82, 127
2, 350734, Note_off_c, 11, 70, 127
2, 350744, Note_off_c, 11, 82, 127
2, 350745, Note_on_c, 11, 70, 127
2, 350878, Note_off_c, 7, 67, 127
2, 350882, Note_off_c, 11, 70, 127
2, 350882, Note_off_c, 7, 55, 127
2, 350883, Note_on_c, 5, 53, 127
2, 350883, Note_on_c, 10, 69, 127
2, 351022, Note_on_c, 10, 81, 127
2, 351159, Note_off_c, 10, 81, 127
2, 351159, Note_off_c, 3, 63, 127
2, 351160, Note_on_c, 2, 62, 127
2, 351160, Note_on_c, 10, 81, 127
2, 351287, Note_off_c, 10, 69, 127
2, 351297, Note_off_c, 10, 81, 127
2, 351298, Note_on_c, 10, 69, 127
2, 351435, Note_off_c, 10, 69, 127
2, 351435, Note_off_c, 5, 53, 127
2, 351436, Note_on_c, 11, 58, 127
2, 351436, Note_on_c, 7, 67, 127
2, 351582, Note_on_c, 7, 79, 127
2, 351722, Note_off_c, 2, 62, 127
2, 351725, Note_off_c, 7, 67, 127
2, 351727, Note_off_c, 7, 79, 127
2, 351727, Note_off_c, 11, 58, 127
2, 351729, Note_on_c, 10, 57, 127
2, 351729, Note_on_c, 4, 64, 127
2, 351729, Note_on_c, 1, 73, 127
2, 351875, Note_on_c, 7, 79, 127
2, 352018, Note_off_c, 1, 73, 127
2, 352020, Note_off_c, 7, 79, 127
2, 352020, Note_off_c, 4, 64, 127
2, 352020, Note_off_c, 10, 57, 127
2, 352022, Note_on_c, 2, 62, 127
2, 352022, Note_on_c, 2, 50, 127
2, 352022, Note_on_c, 2, 74, 127
2, 352168, Note_on_c, 6, 78, 127
2, 352311, Note_off_c, 2, 74, 127
2, 352313, Note_off_c, 6, 78, 127
2, 352313, Note_off_c, 2, 50, 127
2, 352313, Note_off_c, 2, 62, 127
2, 352315, Note_on_c, 7, 55, 127
2, 352315, Note_on_c, 12, 71, 127
2, 352461, Note_on_c, 5, 77, 127
2, 352604, Note_off_c, 12, 71, 127
2, 352606, Note_off_c, 5, 77, 127
2, 352606, Note_off_c, 7, 55, 127
2, 352608, Note_on_c, 0, 48, 127
2, 352608, Note_on_c, 0, 60, 127
2, 352608, Note_on_c, 0, 72, 127
2, 352754, Note_on_c, 4, 76, 127
2, 352897, Note_off_c, 0, 72, 127
2, 352899, Note_off_c, 4, 76, 127
2, 352899, Note_off_c, 0, 48, 127
2, 352901, Note_on_c, 5, 53, 127
2, 352901, Note_on_c, 10, 69, 127
2, 353047, Note_on_c, 3, 75, 127
2, 353187, Note_off_c, 0, 60, 127
2, 353190, Note_off_c, 10, 69, 127
2, 353192, Note_off_c, 3, 75, 127
2, 353192, Note_off_c, 5, 53, 127
2, 353194, Note_on_c, 11, 58, 127
2, 353194, Note_on_c, 11, 70, 127
2, 353340, Note_on_c, 2, 74, 127
2, 353483, Note_off_c, 11, 70, 127
2, 353486, Note_on_c, 7, 55, 127
2, 353486, Note_on_c, 4, 64, 127
2, 353629, Note_off_c, 2, 74, 127
2, 353631, Note_off_c, 4, 64, 127
2, 353633, Note_on_c, 1, 73, 127
2, 353773, Note_off_c, 11, 58, 127
2, 353778, Note_off_c, 1, 73, 127
2, 353778, Note_off_c, 7, 55, 127
2, 353780, Note_on_c, 10, 57, 127
2, 353780, Note_on_c, 5, 53, 127
2, 353780, Note_on_c, 2, 74, 127
2, 353924, Note_off_c, 2, 74, 127
2, 353926, Note_on_c, 10, 69, 127
2, 354070, Note_off_c, 10, 69, 127
2, 354070, Note_off_c, 5, 53, 127
2, 354070, Note_off_c, 10, 57, 127
2, 354072, Note_on_c, 11, 58, 127
2, 354072, Note_on_c, 7, 55, 127
2, 354072, Note_on_c, 7, 67, 127
2, 354216, Note_off_c, 7, 67, 127
2, 354218, Note_on_c, 5, 65, 127
2, 354362, Note_off_c, 5, 65, 127
2, 354362, Note_off_c, 7, 55, 127
2, 354362, Note_off_c, 11, 58, 127
2, 354364, Note_on_c, 12, 59, 127
2, 354364, Note_on_c, 8, 56, 127
2, 354364, Note_on_c, 4, 64, 127
2, 354510, Note_on_c, 2, 74, 127
2, 354653, Note_off_c, 4, 64, 127
2, 354655, Note_off_c, 8, 56, 127
2, 354655, Note_off_c, 12, 59, 127
2, 354657, Note_on_c, 10, 45, 127
2, 354657, Note_on_c, 10, 57, 127
2, 354657, Note_on_c, 4, 64, 127
2, 354800, Note_off_c, 2, 74, 127
2, 354803, Note_on_c, 1, 73, 127
2, 354946, Note_off_c, 4, 64, 127
2, 354948, Note_off_c, 1, 73, 127
2, 354948, Note_off_c, 10, 57, 127
2, 354948, Note_off_c, 10, 45, 127
2, 354950, Note_on_c, 2, 50, 127
2, 354950, Note_on_c, 5, 53, 127
2, 354950, Note_on_c, 2, 74, 127
2, 354950, Note_on_c, 2, 62, 127
2, 355220, Note_off_c, 5, 53, 127
2, 355221, Note_on_c, 7, 55, 127
2, 355355, Note_off_c, 7, 55, 127
2, 355356, Note_on_c, 10, 57, 127
2, 355486, Note_off_c, 2, 62, 127
2, 355486, Note_off_c, 2, 74, 127
2, 355486, Note_off_c, 2, 50, 127
2, 355490, Note_off_c, 10, 57, 127
2, 355491, Note_on_c, 11, 58, 127
2, 355627, Note_on_c, 5, 53, 127
2, 355761, Note_off_c, 5, 53, 127
2, 355762, Note_on_c, 4, 52, 127
2, 355762, Note_on_c, 2, 62, 127
2, 355896, Note_off_c, 2, 62, 127
2, 355896, Note_off_c, 4, 52, 127
2, 355897, Note_on_c, 2, 50, 127
2, 355897, Note_on_c, 2, 62, 127
2, 356027, Note_off_c, 11, 58, 127
2, 356031, Note_off_c, 2, 62, 127
2, 356031, Note_off_c, 2, 50, 127
2, 356032, Note_on_c, 1, 49, 127
2, 356032, Note_on_c, 10, 69, 127
2, 356166, Note_off_c, 1, 49, 127
2, 356167, Note_on_c, 2, 50, 127
2, 356301, Note_off_c, 2, 50, 127
2, 356301, Note_off_c, 10, 69, 127
2, 356302, Note_on_c, 1, 49, 127
2, 356302, Note_on_c, 10, 69, 127
2, 356436, Note_off_c, 1, 49, 127
2, 356437, Note_on_c, 12, 47, 127
2, 356571, Note_off_c, 12, 47, 127
2, 356571, Note_off_c, 10, 69, 127
2, 356572, Note_on_c, 10, 45, 127
2, 356572, Note_on_c, 10, 69, 127
2, 356842, Note_off_c, 10, 69, 127
2, 356842, Note_off_c, 10, 45, 127
2, 356843, Note_on_c, 1, 49, 127
2, 356843, Note_on_c, 10, 57, 127
2, 356843, Note_on_c, 10, 69, 127
2, 356977, Note_off_c, 10, 57, 127
2, 356978, Note_on_c, 10, 57, 127
2, 357111, Note_off_c, 10, 69, 127
2, 357112, Note_off_c, 10, 57, 127
2, 357112, Note_off_c, 1, 49, 127
2, 357113, Note_on_c, 2, 50, 127
2, 357113, Note_on_c, 2, 62, 127
2, 357113, Note_on_c, 5, 65, 127
2, 357383, Note_off_c, 5, 65, 127
2, 357383, Note_off_c, 2, 62, 127
2, 357383, Note_off_c, 2, 50, 127
2, 357384, Note_on_c, 4, 52, 127
2, 357384, Note_on_c, 2, 62, 127
2, 357384, Note_on_c, 5, 77, 127
2, 357518, Note_off_c, 5, 77, 127
2, 357519, Note_on_c, 5, 65, 127
2, 357653, Note_off_c, 5, 65, 127
2, 357653, Note_off_c, 2, 62, 127
2, 357653, Note_off_c, 4, 52, 127
2, 357654, Note_on_c, 5, 53, 127
2, 357654, Note_on_c, 2, 62, 127
2, 357654, Note_on_c, 5, 65, 127
2, 357924, Note_off_c, 2, 62, 127
2, 357924, Note_off_c, 5, 53, 127
2, 357925, Note_on_c, 7, 55, 127
2, 357925, Note_on_c, 2, 62, 127
2, 358190, Note_off_c, 5, 65, 127
2, 358194, Note_off_c, 2, 62, 127
2, 358194, Note_off_c, 7, 55, 127
2, 358195, Note_on_c, 10, 57, 127
2, 358195, Note_on_c, 1, 61, 127
2, 358465, Note_off_c, 10, 57, 127
2, 358466, Note_on_c, 10, 57, 127
2, 358466, Note_on_c, 4, 76, 127
2, 358600, Note_off_c, 4, 76, 127
2, 358601, Note_on_c, 4, 64, 127
2, 358735, Note_off_c, 4, 64, 127
2, 358735, Note_off_c, 10, 57, 127
2, 358735, Note_off_c, 1, 61, 127
2, 358736, Note_on_c, 10, 57, 127
2, 358736, Note_on_c, 1, 61, 127
2, 358736, Note_on_c, 4, 64, 127
2, 359006, Note_off_c, 10, 57, 127
2, 359007, Note_on_c, 10, 57, 127
2, 359272, Note_off_c, 4, 64, 127
2, 359276, Note_off_c, 10, 57, 127
2, 359276, Note_off_c, 1, 61, 127
2, 359277, Note_on_c, 2, 62, 127
2, 359277, Note_on_c, 5, 65, 127
2, 359547, Note_off_c, 5, 65, 127
2, 359548, Note_on_c, 5, 65, 127
2, 359548, Note_on_c, 10, 81, 127
2, 359682, Note_off_c, 10, 81, 127
2, 359683, Note_on_c, 10, 69, 127
2, 359813, Note_off_c, 2, 62, 127
2, 359817, Note_off_c, 10, 69, 127
2, 359817, Note_off_c, 5, 65, 127
2, 359818, Note_on_c, 5, 65, 127
2, 359818, Note_on_c, 10, 69, 127
2, 360088, Note_off_c, 5, 65, 127
2, 360089, Note_on_c, 5, 65, 127
2, 360354, Note_off_c, 10, 69, 127
2, 360357, Note_off_c, 5, 65, 127
2, 360360, Note_on_c, 11, 58, 127
2, 360496, Note_on_c, 11, 70, 127
2, 360630, Note_off_c, 11, 70, 127
2, 360630, Note_off_c, 11, 58, 127
2, 360631, Note_on_c, 7, 55, 127
2, 360631, Note_on_c, 11, 82, 127
2, 360765, Note_off_c, 11, 82, 127
2, 360766, Note_on_c, 11, 70, 127
2, 360900, Note_off_c, 11, 70, 127
2, 360900, Note_off_c, 7, 55, 127
2, 360901, Note_on_c, 7, 55, 127
2, 360901, Note_on_c, 11, 70, 127
2, 361171, Note_off_c, 7, 55, 127
2, 361172, Note_on_c, 4, 64, 127
2, 361437, Note_off_c, 11, 70, 127
2, 361441, Note_off_c, 4, 64, 127
2, 361442, Note_on_c, 10, 57, 127
2, 361578, Note_on_c, 10, 69, 127
2, 361712, Note_off_c, 10, 69, 127
2, 361712, Note_off_c, 10, 57, 127
2, 361713, Note_on_c, 5, 53, 127
2, 361713, Note_on_c, 10, 81, 127
2, 361847, Note_off_c, 10, 81, 127
2, 361848, Note_on_c, 10, 69, 127
2, 361982, Note_off_c, 10, 69, 127
2, 361982, Note_off_c, 5, 53, 127
2, 361983, Note_on_c, 5, 53, 127
2, 361983, Note_on_c, 10, 69, 127
2, 362253, Note_off_c, 5, 53, 127
2, 362254, Note_on_c, 2, 62, 127
2, 362519, Note_off_c, 10, 69, 127
2, 362523, Note_off_c, 2, 62, 127
2, 362524, Note_on_c, 7, 55, 127
2, 362660, Note_on_c, 7, 67, 127
2, 362794, Note_off_c, 7, 67, 127
2, 362794, Note_off_c, 7, 55, 127
2, 362795, Note_on_c, 4, 52, 127
2, 362795, Note_on_c, 7, 79, 127
2, 362929, Note_off_c, 7, 79, 127
2, 362930, Note_on_c, 7, 67, 127
2, 363064, Note_off_c, 7, 67, 127
2, 363064, Note_off_c, 4, 52, 127
2, 363065, Note_on_c, 4, 52, 127
2, 363065, Note_on_c, 7, 67, 127
2, 363335, Note_off_c, 4, 52, 127
2, 363336, Note_on_c, 1, 61, 127
2, 363601, Note_off_c, 7, 67, 127
2, 363605, Note_off_c, 1, 61, 127
2, 363606, Note_on_c, 2, 62, 127
2, 363742, Note_on_c, 5, 77, 127
2, 363876, Note_off_c, 5, 77, 127
2, 363876, Note_off_c, 2, 62, 127
2, 363877, Note_on_c, 4, 64, 127
2, 363877, Note_on_c, 4, 76, 127
2, 364011, Note_off_c, 4, 76, 127
2, 364011, Note_off_c, 4, 64, 127
2, 364012, Note_on_c, 5, 65, 127
2, 364012, Note_on_c, 2, 74, 127
2, 364146, Note_off_c, 2, 74, 127
2, 364146, Note_off_c, 5, 65, 127
2, 364147, Note_on_c, 0, 60, 127
2, 364147, Note_on_c, 3, 75, 127
2, 364281, Note_off_c, 3, 75, 127
2, 364282, Note_on_c, 7, 79, 127
2, 364416, Note_off_c, 7, 79, 127
2, 364416, Note_off_c, 0, 60, 127
2, 364417, Note_on_c, 2, 62, 127
2, 364417, Note_on_c, 5, 77, 127
2, 364551, Note_off_c, 5, 77, 127
2, 364551, Note_off_c, 2, 62, 127
2, 364552, Note_on_c, 3, 63, 127
2, 364552, Note_on_c, 3, 75, 127
2, 364686, Note_off_c, 3, 75, 127
2, 364686, Note_off_c, 3, 63, 127
2, 364687, Note_on_c, 2, 62, 127
2, 364687, Note_on_c, 5, 77, 127
2, 364821, Note_off_c, 5, 77, 127
2, 364822, Note_on_c, 7, 79, 127
2, 364956, Note_off_c, 7, 79, 127
2, 364956, Note_off_c, 2, 62, 127
2, 364957, Note_on_c, 3, 63, 127
2, 364957, Note_on_c, 5, 77, 127
2, 365091, Note_off_c, 5, 77, 127
2, 365091, Note_off_c, 3, 63, 127
2, 365092, Note_on_c, 5, 65, 127
2, 365092, Note_on_c, 3, 75, 127
2, 365226, Note_off_c, 3, 75, 127
2, 365226, Note_off_c, 5, 65, 127
2, 365227, Note_on_c, 12, 59, 127
2, 365227, Note_on_c, 2, 74, 127
2, 365361, Note_off_c, 2, 74, 127
2, 365362, Note_on_c, 5, 77, 127
2, 365496, Note_off_c, 5, 77, 127
2, 365496, Note_off_c, 12, 59, 127
2, 365497, Note_on_c, 0, 60, 127
2, 365497, Note_on_c, 3, 75, 127
2, 365631, Note_off_c, 3, 75, 127
2, 365631, Note_off_c, 0, 60, 127
2, 365632, Note_on_c, 2, 62, 127
2, 365632, Note_on_c, 2, 74, 127
2, 365766, Note_off_c, 2, 74, 127
2, 365766, Note_off_c, 2, 62, 127
2, 365767, Note_on_c, 0, 60, 127
2, 365767, Note_on_c, 3, 75, 127
2, 366037, Note_off_c, 0, 60, 127
2, 366038, Note_on_c, 0, 72, 127
2, 366172, Note_off_c, 0, 72, 127
2, 366173, Note_on_c, 7, 67, 127
2, 366303, Note_off_c, 3, 75, 127
2, 366307, Note_off_c, 7, 67, 127
2, 366308, Note_on_c, 10, 69, 127
2, 366579, Note_on_c, 5, 77, 127
2, 366713, Note_off_c, 5, 77, 127
2, 366714, Note_on_c, 0, 72, 127
2, 366844, Note_off_c, 10, 69, 127
2, 366848, Note_off_c, 0, 72, 127
2, 366849, Note_on_c, 2, 74, 127
2, 367120, Note_on_c, 11, 70, 127
2, 367254, Note_off_c, 11, 70, 127
2, 367255, Note_on_c, 5, 65, 127
2, 367385, Note_off_c, 2, 74, 127
2, 367389, Note_off_c, 5, 65, 127
2, 367390, Note_on_c, 11, 70, 127
2, 367660, Note_off_c, 11, 70, 127
2, 367661, Note_on_c, 10, 69, 127
2, 367661, Note_on_c, 5, 77, 127
2, 367795, Note_off_c, 5, 77, 127
2, 367796, Note_on_c, 2, 74, 127
2, 367930, Note_off_c, 2, 74, 127
2, 367930, Note_off_c, 10, 69, 127
2, 367931, Note_on_c, 7, 67, 127
2, 367931, Note_on_c, 3, 75, 127
2, 368065, Note_off_c, 3, 75, 127
2, 368066, Note_on_c, 7, 79, 127
2, 368200, Note_off_c, 7, 79, 127
2, 368200, Note_off_c, 7, 67, 127
2, 368201, Note_on_c, 10, 69, 127
2, 368201, Note_on_c, 0, 72, 127
2, 368335, Note_off_c, 0, 72, 127
2, 368336, Note_on_c, 3, 75, 127
2, 368470, Note_off_c, 3, 75, 127
2, 368470, Note_off_c, 10, 69, 127
2, 368471, Note_on_c, 5, 65, 127
2, 368471, Note_on_c, 2, 74, 127
2, 368605, Note_off_c, 2, 74, 127
2, 368606, Note_on_c, 5, 77, 127
2, 368740, Note_off_c, 5, 77, 127
2, 368740, Note_off_c, 5, 65, 127
2, 368741, Note_on_c, 7, 67, 127
2, 368741, Note_on_c, 11, 70, 127
2, 368875, Note_off_c, 11, 70, 127
2, 368876, Note_on_c, 2, 74, 127
2, 369010, Note_off_c, 2, 74, 127
2, 369010, Note_off_c, 7, 67, 127
2, 369011, Note_on_c, 3, 63, 127
2, 369011, Note_on_c, 0, 72, 127
2, 369145, Note_off_c, 0, 72, 127
2, 369146, Note_on_c, 3, 75, 127
2, 369280, Note_off_c, 3, 75, 127
2, 369280, Note_off_c, 3, 63, 127
2, 369281, Note_on_c, 5, 65, 127
2, 369281, Note_on_c, 10, 69, 127
2, 369415, Note_off_c, 10, 69, 127
2, 369416, Note_on_c, 0, 72, 127
2, 369550, Note_off_c, 0, 72, 127
2, 369550, Note_off_c, 5, 65, 127
2, 369551, Note_on_c, 2, 62, 127
2, 369551, Note_on_c, 11, 70, 127
2, 369685, Note_off_c, 11, 70, 127
2, 369686, Note_on_c, 2, 74, 127
2, 369820, Note_off_c, 2, 74, 127
2, 369820, Note_off_c, 2, 62, 127
2, 369821, Note_on_c, 4, 64, 127
2, 369821, Note_on_c, 7, 67, 127
2, 369955, Note_off_c, 7, 67, 127
2, 369956, Note_on_c, 11, 70, 127
2, 370090, Note_off_c, 11, 70, 127
2, 370090, Note_off_c, 4, 64, 127
2, 370091, Note_on_c, 5, 53, 127
2, 370091, Note_on_c, 5, 65, 127
2, 370091, Note_on_c, 10, 69, 127
2, 370361, Note_off_c, 10, 69, 127
2, 370362, Note_on_c, 0, 72, 127
2, 370496, Note_off_c, 5, 65, 127
2, 370497, Note_on_c, 3, 63, 127
2, 370631, Note_off_c, 3, 63, 127
2, 370632, Note_on_c, 2, 62, 127
2, 370766, Note_off_c, 0, 72, 127
2, 370767, Note_on_c, 11, 70, 127
2, 370901, Note_off_c, 2, 62, 127
2, 370901, Note_off_c, 5, 53, 127
2, 370902, Note_on_c, 5, 53, 127
2, 370902, Note_on_c, 0, 60, 127
2, 371036, Note_off_c, 5, 53, 127
2, 371036, Note_off_c, 11, 70, 127
2, 371037, Note_on_c, 5, 53, 127
2, 371037, Note_on_c, 10, 69, 127
2, 371171, Note_off_c, 10, 69, 127
2, 371171, Note_off_c, 5, 53, 127
2, 371171, Note_off_c, 0, 60, 127
2, 371172, Note_on_c, 11, 58, 127
2, 371172, Note_on_c, 2, 62, 127
2, 371172, Note_on_c, 11, 70, 127
2, 371442, Note_off_c, 2, 62, 127
2, 371442, Note_off_c, 11, 58, 127
2, 371443, Note_on_c, 11, 58, 127
2, 371443, Note_on_c, 5, 65, 127
2, 371577, Note_off_c, 5, 65, 127
2, 371578, Note_on_c, 2, 62, 127
2, 371708, Note_off_c, 11, 70, 127
2, 371712, Note_off_c, 2, 62, 127
2, 371712, Note_off_c, 11, 58, 127
2, 371713, Note_on_c, 11, 58, 127
2, 371713, Note_on_c, 2, 62, 127
2, 371713, Note_on_c, 5, 65, 127
2, 371983, Note_off_c, 11, 58, 127
2, 371984, Note_on_c, 11, 58, 127
2, 371984, Note_on_c, 11, 70, 127
2, 372118, Note_off_c, 11, 70, 127
2, 372119, Note_on_c, 11, 70, 127
2, 372253, Note_off_c, 11, 70, 127
2, 372253, Note_off_c, 11, 58, 127
2, 372253, Note_off_c, 5, 65, 127
2, 372253, Note_off_c, 2, 62, 127
2, 372254, Note_on_c, 10, 57, 127
2, 372254, Note_on_c, 0, 60, 127
2, 372254, Note_on_c, 5, 77, 127
2, 372524, Note_off_c, 5, 77, 127
2, 372524, Note_off_c, 10, 57, 127
2, 372525, Note_on_c, 5, 53, 127
2, 372525, Note_on_c, 0, 72, 127
2, 372525, Note_on_c, 5, 77, 127
2, 372659, Note_off_c, 0, 72, 127
2, 372660, Note_on_c, 10, 69, 127
2, 372790, Note_off_c, 0, 60, 127
2, 372794, Note_off_c, 10, 69, 127
2, 372794, Note_off_c, 5, 77, 127
2, 372794, Note_off_c, 5, 53, 127
2, 372795, Note_on_c, 5, 53, 127
2, 372795, Note_on_c, 10, 69, 127
2, 372795, Note_on_c, 5, 77, 127
2, 373065, Note_off_c, 5, 77, 127
2, 373065, Note_off_c, 5, 53, 127
2, 373066, Note_on_c, 5, 53, 127
2, 373066, Note_on_c, 5, 65, 127
2, 373066, Note_on_c, 5, 77, 127
2, 373200, Note_off_c, 5, 65, 127
2, 373201, Note_on_c, 2, 62, 127
2, 373331, Note_off_c, 10, 69, 127
2, 373335, Note_off_c, 2, 62, 127
2, 373335, Note_off_c, 5, 77, 127
2, 373335, Note_off_c, 5, 53, 127
2, 373336, Note_on_c, 7, 55, 127
2, 373336, Note_on_c, 11, 58, 127
2, 373336, Note_on_c, 5, 77, 127
2, 373606, Note_off_c, 5, 77, 127
2, 373606, Note_off_c, 7, 55, 127
2, 373607, Note_on_c, 7, 55, 127
2, 373607, Note_on_c, 11, 70, 127
2, 373607, Note_on_c, 3, 75, 127
2, 373741, Note_off_c, 11, 70, 127
2, 373742, Note_on_c, 7, 67, 127
2, 373872, Note_off_c, 11, 58, 127
2, 373876, Note_off_c, 7, 67, 127
2, 373876, Note_off_c, 3, 75, 127
2, 373876, Note_off_c, 7, 55, 127
2, 373877, Note_on_c, 7, 55, 127
2, 373877, Note_on_c, 3, 63, 127
2, 373877, Note_on_c, 3, 75, 127
2, 374147, Note_off_c, 3, 75, 127
2, 374147, Note_off_c, 3, 63, 127
2, 374147, Note_off_c, 7, 55, 127
2, 374148, Note_on_c, 3, 51, 127
2, 374148, Note_on_c, 7, 67, 127
2, 374148, Note_on_c, 3, 63, 127
2, 374148, Note_on_c, 3, 75, 127
2, 374282, Note_off_c, 3, 63, 127
2, 374283, Note_on_c, 0, 60, 127
2, 374416, Note_off_c, 7, 67, 127
2, 374417, Note_off_c, 0, 60, 127
2, 374417, Note_off_c, 3, 75, 127
2, 374417, Note_off_c, 3, 51, 127
2, 374418, Note_on_c, 10, 57, 127
2, 374418, Note_on_c, 5, 53, 127
2, 374418, Note_on_c, 5, 65, 127
2, 374418, Note_on_c, 3, 75, 127
2, 374688, Note_off_c, 3, 75, 127
2, 374689, Note_on_c, 0, 84, 127
2, 374823, Note_off_c, 0, 84, 127
2, 374824, Note_on_c, 3, 75, 127
2, 374958, Note_off_c, 3, 75, 127
2, 374958, Note_off_c, 5, 65, 127
2, 374958, Note_off_c, 5, 53, 127
2, 374958, Note_off_c, 10, 57, 127
2, 374959, Note_on_c, 11, 58, 127
2, 374959, Note_on_c, 5, 65, 127
2, 374959, Note_on_c, 2, 74, 127
2, 375229, Note_off_c, 2, 74, 127
2, 375230, Note_on_c, 11, 82, 127
2, 375364, Note_off_c, 11, 82, 127
2, 375365, Note_on_c, 2, 74, 127
2, 375499, Note_off_c, 2, 74, 127
2, 375499, Note_off_c, 5, 65, 127
2, 375499, Note_off_c, 11, 58, 127
2, 375500, Note_on_c, 5, 53, 127
2, 375500, Note_on_c, 0, 60, 127
2, 375500, Note_on_c, 5, 65, 127
2, 375500, Note_on_c, 0, 72, 127
2, 375636, Note_on_c, 11, 82, 127
2, 375770, Note_off_c, 11, 82, 127
2, 375771, Note_on_c, 10, 81, 127
2, 375895, Note_off_c, 0, 72, 127
2, 375906, Note_on_c, 0, 72, 127
2, 376039, Note_off_c, 10, 81, 127
2, 376040, Note_off_c, 0, 72, 127
2, 376040, Note_off_c, 5, 65, 127
2, 376040, Note_off_c, 0, 60, 127
2, 376040, Note_off_c, 5, 53, 127
2, 376041, Note_on_c, 11, 58, 127
2, 376041, Note_on_c, 5, 65, 127
2, 376041, Note_on_c, 2, 74, 127
2, 376177, Note_on_c, 5, 77, 127
2, 376310, Note_off_c, 2, 74, 127
2, 376311, Note_off_c, 5, 65, 127
2, 376311, Note_off_c, 11, 58, 127
2, 376312, Note_on_c, 5, 53, 127
2, 376312, Note_on_c, 0, 60, 127
2, 376312, Note_on_c, 3, 63, 127
2, 376312, Note_on_c, 0, 72, 127
2, 376445, Note_off_c, 5, 77, 127
2, 376448, Note_on_c, 10, 81, 127
2, 376581, Note_off_c, 0, 72, 127
2, 376582, Note_off_c, 10, 81, 127
2, 376582, Note_off_c, 3, 63, 127
2, 376582, Note_off_c, 0, 60, 127
2, 376582, Note_off_c, 5, 53, 127
2, 376583, Note_on_c, 11, 58, 127
2, 376583, Note_on_c, 2, 62, 127
2, 376583, Note_on_c, 5, 65, 127
2, 376583, Note_on_c, 11, 70, 127
2, 376853, Note_off_c, 11, 70, 127
2, 376902, Note_on_c, 11, 82, 127
2, 377036, Note_off_c, 11, 82, 127
2, 377037, Note_on_c, 11, 70, 127
2, 377119, Note_off_c, 2, 62, 127
2, 377119, Note_off_c, 11, 58, 127
2, 377171, Note_off_c, 11, 70, 127
2, 377172, Note_on_c, 11, 70, 127
2, 377430, Note_off_c, 5, 65, 127
2, 377478, Note_off_c, 11, 70, 127
2, 377480, Note_on_c, 5, 41, 127
2, 377480, Note_on_c, 10, 69, 127
2, 377480, Note_on_c, 5, 65, 127
2, 377480, Note_on_c, 0, 72, 127
2, 377632, Note_off_c, 5, 65, 127
2, 377634, Note_on_c, 5, 53, 127
2, 377784, Note_off_c, 10, 69, 127
2, 377786, Note_off_c, 5, 53, 127
2, 377786, Note_off_c, 0, 72, 127
2, 377786, Note_off_c, 5, 41, 127
2, 377788, Note_on_c, 11, 46, 127
2, 377788, Note_on_c, 11, 70, 127
2, 377788, Note_on_c, 5, 65, 127
2, 377788, Note_on_c, 5, 53, 127
2, 377788, Note_on_c, 2, 74, 127
2, 378141, Note_off_c, 2, 74, 127
2, 378141, Note_off_c, 5, 53, 127
2, 378141, Note_off_c, 5, 65, 127
2, 378141, Note_off_c, 11, 70, 127
2, 378143, Note_on_c, 11, 58, 127
2, 378143, Note_on_c, 10, 69, 127
2, 378143, Note_on_c, 5, 65, 127
2, 378143, Note_on_c, 3, 75, 127
2, 378143, Note_on_c, 0, 72, 127
2, 378305, Note_off_c, 11, 46, 127
2, 378320, Note_on_c, 11, 46, 127
2, 378494, Note_off_c, 11, 58, 127
2, 378496, Note_off_c, 11, 46, 127
2, 378496, Note_off_c, 0, 72, 127
2, 378496, Note_off_c, 3, 75, 127
2, 378496, Note_off_c, 5, 65, 127
2, 378496, Note_off_c, 10, 69, 127
2, 378498, Note_on_c, 11, 46, 127
2, 378498, Note_on_c, 5, 53, 127
2, 378498, Note_on_c, 11, 58, 127
2, 378498, Note_on_c, 2, 50, 127
2, 378498, Note_on_c, 11, 70, 127
2, 378498, Note_on_c, 5, 65, 127
2, 378498, Note_on_c, 2, 74, 127
2, 378498, Note_on_c, 5, 77, 127
2, 379560, Note_off_c, 5, 77, 127
2, 379560, Note_off_c, 2, 74, 127
2, 379560, Note_off_c, 5, 65, 127
2, 379560, Note_off_c, 11, 70, 127
2, 379560, Note_off_c, 2, 50, 127
2, 379560, Note_off_c, 11, 58, 127
2, 379560, Note_off_c, 5, 53, 127
2, 379560, Note_off_c, 11, 46, 127
2, 385536, End_track
3, 0, Start_track
3, 0, Title_t, "MIDI"
3, 1536, End_track
0, 0, End_of_file
