0, 0, Header, 0, 1, 384
1, 0, Start_track
1, 0, Copyright_t, "(C) John Sankey 1998"
1, 0, Program_c, 0, 6
1, 0, Pitch_bend_c, 0, 8192
1, 0, Program_c, 1, 6
1, 0, Pitch_bend_c, 1, 7792
1, 0, Program_c, 2, 6
1, 0, Pitch_bend_c, 2, 7876
1, 0, Program_c, 3, 6
1, 0, Pitch_bend_c, 3, 7952
1, 0, Program_c, 4, 6
1, 0, Pitch_bend_c, 4, 7792
1, 0, Program_c, 5, 6
1, 0, Pitch_bend_c, 5, 8112
1, 0, Program_c, 6, 6
1, 0, Pitch_bend_c, 6, 7712
1, 0, Program_c, 7, 6
1, 0, Pitch_bend_c, 7, 8037
1, 0, Program_c, 8, 6
1, 0, Pitch_bend_c, 8, 7872
1, 0, Program_c, 10, 6
1, 0, Pitch_bend_c, 10, 7712
1, 0, Program_c, 11, 6
1, 0, Pitch_bend_c, 11, 8032
1, 0, Program_c, 12, 6
1, 0, Pitch_bend_c, 12, 7872
1, 0, Tempo, 500000
1, 175, Note_on_c, 6, 54, 127
1, 524, Note_on_c, 8, 56, 127
1, 538, Note_off_c, 6, 54, 127
1, 609, Note_off_c, 8, 56, 127
1, 611, Note_on_c, 10, 57, 127
1, 696, Note_off_c, 10, 57, 127
1, 698, Note_on_c, 12, 59, 127
1, 783, Note_off_c, 12, 59, 127
1, 785, Note_on_c, 1, 61, 127
1, 870, Note_off_c, 1, 61, 127
1, 872, Note_on_c, 2, 62, 127
1, 957, Note_off_c, 2, 62, 127
1, 959, Note_on_c, 1, 61, 127
1, 1044, Note_off_c, 1, 61, 127
1, 1046, Note_on_c, 12, 59, 127
1, 1131, Note_off_c, 12, 59, 127
1, 1133, Note_on_c, 10, 57, 127
1, 1218, Note_off_c, 10, 57, 127
1, 1220, Note_on_c, 8, 56, 127
1, 1305, Note_off_c, 8, 56, 127
1, 1307, Note_on_c, 10, 57, 127
1, 1392, Note_off_c, 10, 57, 127
1, 1394, Note_on_c, 6, 54, 127
1, 1479, Note_off_c, 6, 54, 127
1, 1481, Note_on_c, 1, 61, 127
1, 1566, Note_off_c, 1, 61, 127
1, 1568, Note_on_c, 10, 57, 127
1, 1653, Note_off_c, 10, 57, 127
1, 1655, Note_on_c, 6, 66, 127
1, 1740, Note_off_c, 6, 66, 127
1, 1742, Note_on_c, 1, 61, 127
1, 1827, Note_off_c, 1, 61, 127
1, 1841, Note_on_c, 6, 66, 127
1, 2044, Note_on_c, 8, 68, 127
1, 2072, Note_off_c, 6, 66, 127
1, 2129, Note_off_c, 8, 68, 127
1, 2131, Note_on_c, 10, 69, 127
1, 2216, Note_off_c, 10, 69, 127
1, 2218, Note_on_c, 12, 71, 127
1, 2303, Note_off_c, 12, 71, 127
1, 2305, Note_on_c, 1, 73, 127
1, 2390, Note_off_c, 1, 73, 127
1, 2392, Note_on_c, 2, 74, 127
1, 2477, Note_off_c, 2, 74, 127
1, 2479, Note_on_c, 1, 73, 127
1, 2564, Note_off_c, 1, 73, 127
1, 2566, Note_on_c, 12, 71, 127
1, 2651, Note_off_c, 12, 71, 127
1, 2653, Note_on_c, 10, 69, 127
1, 2738, Note_off_c, 10, 69, 127
1, 2740, Note_on_c, 8, 68, 127
1, 2825, Note_off_c, 8, 68, 127
1, 2827, Note_on_c, 10, 69, 127
1, 2912, Note_off_c, 10, 69, 127
1, 2914, Note_on_c, 6, 66, 127
1, 2999, Note_off_c, 6, 66, 127
1, 3001, Note_on_c, 1, 73, 127
1, 3086, Note_off_c, 1, 73, 127
1, 3088, Note_on_c, 10, 69, 127
1, 3173, Note_off_c, 10, 69, 127
1, 3175, Note_on_c, 6, 78, 127
1, 3221, Note_on_c, 5, 77, 127
1, 3263, Note_off_c, 6, 78, 127
1, 3267, Note_on_c, 6, 78, 127
1, 3309, Note_off_c, 5, 77, 127
1, 3313, Note_on_c, 5, 77, 127
1, 3355, Note_off_c, 6, 78, 127
1, 3359, Note_on_c, 6, 78, 127
1, 3401, Note_off_c, 5, 77, 127
1, 3962, Note_on_c, 1, 73, 127
1, 3976, Note_off_c, 6, 78, 127
1, 4047, Note_off_c, 1, 73, 127
1, 4049, Note_on_c, 10, 69, 127
1, 4134, Note_off_c, 10, 69, 127
1, 4136, Note_on_c, 8, 68, 127
1, 4221, Note_off_c, 8, 68, 127
1, 4223, Note_on_c, 10, 69, 127
1, 4310, Note_on_c, 6, 66, 127
1, 4395, Note_off_c, 6, 66, 127
1, 4397, Note_on_c, 1, 61, 127
1, 4477, Note_off_c, 10, 69, 127
1, 4482, Note_off_c, 1, 61, 127
1, 4484, Note_on_c, 12, 59, 127
1, 4569, Note_off_c, 12, 59, 127
1, 4571, Note_on_c, 1, 61, 127
1, 4658, Note_on_c, 10, 57, 127
1, 4743, Note_off_c, 10, 57, 127
1, 4745, Note_on_c, 6, 54, 127
1, 4825, Note_off_c, 1, 61, 127
1, 4832, Note_on_c, 1, 49, 127
1, 4917, Note_off_c, 1, 49, 127
1, 4927, Note_on_c, 6, 42, 127
1, 5363, Note_off_c, 6, 54, 127
1, 6061, Note_off_c, 6, 42, 127
1, 6156, Note_on_c, 4, 76, 127
1, 6356, Note_off_c, 4, 76, 127
1, 6360, Note_on_c, 2, 74, 127
1, 6487, Note_off_c, 2, 74, 127
1, 6491, Note_on_c, 4, 76, 127
1, 6576, Note_off_c, 4, 76, 127
1, 6578, Note_on_c, 6, 78, 127
1, 6663, Note_off_c, 6, 78, 127
1, 6665, Note_on_c, 4, 76, 127
1, 6750, Note_off_c, 4, 76, 127
1, 6752, Note_on_c, 2, 74, 127
1, 6837, Note_off_c, 2, 74, 127
1, 6839, Note_on_c, 1, 73, 127
1, 6924, Note_off_c, 1, 73, 127
1, 6926, Note_on_c, 12, 71, 127
1, 7011, Note_off_c, 12, 71, 127
1, 7013, Note_on_c, 11, 70, 127
1, 7098, Note_off_c, 11, 70, 127
1, 7100, Note_on_c, 12, 71, 127
1, 7187, Note_on_c, 1, 73, 127
1, 7272, Note_off_c, 1, 73, 127
1, 7274, Note_on_c, 2, 74, 127
1, 7336, Note_off_c, 12, 71, 127
1, 7360, Note_off_c, 2, 74, 127
1, 7362, Note_on_c, 1, 73, 127
1, 7447, Note_off_c, 1, 73, 127
1, 7449, Note_on_c, 12, 71, 127
1, 7534, Note_off_c, 12, 71, 127
1, 7536, Note_on_c, 10, 69, 127
1, 7621, Note_off_c, 10, 69, 127
1, 7623, Note_on_c, 8, 68, 127
1, 7708, Note_off_c, 8, 68, 127
1, 7710, Note_on_c, 6, 66, 127
1, 7795, Note_off_c, 6, 66, 127
1, 7797, Note_on_c, 8, 68, 127
1, 7884, Note_on_c, 10, 69, 127
1, 7969, Note_off_c, 10, 69, 127
1, 7971, Note_on_c, 12, 71, 127
1, 8033, Note_off_c, 8, 68, 127
1, 8057, Note_off_c, 12, 71, 127
1, 8059, Note_on_c, 10, 69, 127
1, 8144, Note_off_c, 10, 69, 127
1, 8146, Note_on_c, 8, 68, 127
1, 8231, Note_off_c, 8, 68, 127
1, 8233, Note_on_c, 6, 66, 127
1, 8318, Note_off_c, 6, 66, 127
1, 8320, Note_on_c, 5, 65, 127
1, 8405, Note_off_c, 5, 65, 127
1, 8407, Note_on_c, 3, 63, 127
1, 8492, Note_off_c, 3, 63, 127
1, 8494, Note_on_c, 5, 65, 127
1, 8581, Note_on_c, 6, 66, 127
1, 8666, Note_off_c, 6, 66, 127
1, 8668, Note_on_c, 8, 68, 127
1, 8730, Note_off_c, 5, 65, 127
1, 8754, Note_off_c, 8, 68, 127
1, 8756, Note_on_c, 6, 66, 127
1, 8841, Note_off_c, 6, 66, 127
1, 8843, Note_on_c, 5, 65, 127
1, 8928, Note_off_c, 5, 65, 127
1, 8930, Note_on_c, 3, 63, 127
1, 9015, Note_off_c, 3, 63, 127
1, 9017, Note_on_c, 1, 61, 127
1, 9102, Note_off_c, 1, 61, 127
1, 9104, Note_on_c, 12, 59, 127
1, 9189, Note_off_c, 12, 59, 127
1, 9191, Note_on_c, 10, 57, 127
1, 9278, Note_on_c, 1, 61, 127
1, 9354, Note_off_c, 10, 57, 127
1, 9370, Note_off_c, 1, 61, 127
1, 9374, Note_on_c, 6, 66, 127
1, 9470, Note_on_c, 5, 65, 127
1, 9481, Note_off_c, 6, 66, 127
1, 9579, Note_off_c, 5, 65, 127
1, 9581, Note_on_c, 6, 66, 127
1, 9974, Note_on_c, 6, 54, 127
1, 10059, Note_off_c, 6, 54, 127
1, 10063, Note_on_c, 10, 57, 127
1, 10148, Note_off_c, 10, 57, 127
1, 10150, Note_on_c, 8, 56, 127
1, 10235, Note_off_c, 8, 56, 127
1, 10237, Note_on_c, 6, 54, 127
1, 10272, Note_off_c, 6, 66, 127
1, 10323, Note_off_c, 6, 54, 127
1, 10325, Note_on_c, 5, 53, 127
1, 10410, Note_off_c, 5, 53, 127
1, 10412, Note_on_c, 6, 54, 127
1, 10497, Note_off_c, 6, 54, 127
1, 10499, Note_on_c, 8, 56, 127
1, 10584, Note_off_c, 8, 56, 127
1, 10586, Note_on_c, 10, 57, 127
1, 10671, Note_off_c, 10, 57, 127
1, 10673, Note_on_c, 12, 59, 127
1, 10758, Note_off_c, 12, 59, 127
1, 10760, Note_on_c, 1, 61, 127
1, 10845, Note_off_c, 1, 61, 127
1, 10847, Note_on_c, 2, 62, 127
1, 10932, Note_off_c, 2, 62, 127
1, 10934, Note_on_c, 1, 61, 127
1, 11021, Note_on_c, 6, 66, 127
1, 11097, Note_off_c, 1, 61, 127
1, 11106, Note_off_c, 6, 66, 127
1, 11108, Note_on_c, 10, 69, 127
1, 11193, Note_off_c, 10, 69, 127
1, 11195, Note_on_c, 8, 68, 127
1, 11280, Note_off_c, 8, 68, 127
1, 11282, Note_on_c, 10, 69, 127
1, 11369, Note_on_c, 1, 61, 127
1, 11445, Note_off_c, 10, 69, 127
1, 11454, Note_off_c, 1, 61, 127
1, 11456, Note_on_c, 6, 66, 127
1, 11561, Note_off_c, 6, 66, 127
1, 11561, Note_on_c, 5, 65, 127
1, 11666, Note_on_c, 6, 66, 127
1, 11670, Note_off_c, 5, 65, 127
1, 11846, Note_off_c, 6, 66, 127
1, 11848, Note_on_c, 8, 68, 127
1, 11933, Note_off_c, 8, 68, 127
1, 11935, Note_on_c, 10, 69, 127
1, 12020, Note_off_c, 10, 69, 127
1, 12022, Note_on_c, 12, 71, 127
1, 12107, Note_off_c, 12, 71, 127
1, 12109, Note_on_c, 1, 73, 127
1, 12194, Note_off_c, 1, 73, 127
1, 12196, Note_on_c, 2, 74, 127
1, 12281, Note_off_c, 2, 74, 127
1, 12283, Note_on_c, 4, 76, 127
1, 12368, Note_off_c, 4, 76, 127
1, 12370, Note_on_c, 6, 78, 127
1, 12455, Note_off_c, 6, 78, 127
1, 12457, Note_on_c, 2, 74, 127
1, 12630, Note_off_c, 2, 74, 127
1, 12632, Note_on_c, 10, 69, 127
1, 12805, Note_off_c, 10, 69, 127
1, 12807, Note_on_c, 12, 71, 127
1, 12980, Note_off_c, 12, 71, 127
1, 12982, Note_on_c, 8, 68, 127
1, 13155, Note_off_c, 8, 68, 127
1, 13157, Note_on_c, 4, 64, 127
1, 13330, Note_off_c, 4, 64, 127
1, 13332, Note_on_c, 8, 68, 127
1, 13505, Note_off_c, 8, 68, 127
1, 13507, Note_on_c, 1, 73, 127
1, 13680, Note_off_c, 1, 73, 127
1, 13682, Note_on_c, 8, 68, 127
1, 13855, Note_off_c, 8, 68, 127
1, 13857, Note_on_c, 10, 69, 127
1, 13857, Note_on_c, 6, 42, 127
1, 14030, Note_off_c, 10, 69, 127
1, 14032, Note_on_c, 5, 65, 127
1, 14205, Note_off_c, 5, 65, 127
1, 14207, Note_on_c, 6, 66, 127
1, 14382, Note_on_c, 1, 61, 127
1, 14553, Note_off_c, 6, 66, 127
1, 14555, Note_off_c, 1, 61, 127
1, 14557, Note_on_c, 2, 62, 127
1, 14732, Note_on_c, 12, 59, 127
1, 14905, Note_off_c, 12, 59, 127
1, 14907, Note_on_c, 8, 68, 127
1, 15067, Note_off_c, 2, 62, 127
1, 15082, Note_on_c, 12, 59, 127
1, 15255, Note_off_c, 12, 59, 127
1, 15257, Note_on_c, 1, 61, 127
1, 15417, Note_off_c, 8, 68, 127
1, 15432, Note_on_c, 8, 56, 127
1, 15605, Note_off_c, 8, 56, 127
1, 15607, Note_on_c, 10, 57, 127
1, 15767, Note_off_c, 1, 61, 127
1, 15780, Note_off_c, 10, 57, 127
1, 15782, Note_on_c, 1, 61, 127
1, 15955, Note_off_c, 1, 61, 127
1, 15957, Note_on_c, 6, 66, 127
1, 16132, Note_on_c, 10, 57, 127
1, 16305, Note_off_c, 10, 57, 127
1, 16307, Note_on_c, 2, 62, 127
1, 16467, Note_off_c, 6, 66, 127
1, 16480, Note_off_c, 2, 62, 127
1, 16482, Note_on_c, 6, 54, 127
1, 16655, Note_off_c, 6, 54, 127
1, 16657, Note_on_c, 12, 59, 127
1, 16832, Note_on_c, 6, 54, 127
1, 17005, Note_off_c, 6, 54, 127
1, 17007, Note_on_c, 8, 56, 127
1, 17167, Note_off_c, 12, 59, 127
1, 17182, Note_on_c, 3, 51, 127
1, 17355, Note_off_c, 3, 51, 127
1, 17357, Note_on_c, 5, 53, 127
1, 17517, Note_off_c, 8, 56, 127
1, 17532, Note_on_c, 8, 56, 127
1, 17705, Note_off_c, 8, 56, 127
1, 17707, Note_on_c, 1, 61, 127
1, 17880, Note_off_c, 1, 61, 127
1, 17882, Note_on_c, 8, 56, 127
1, 18049, Note_off_c, 5, 53, 127
1, 18049, Note_off_c, 6, 42, 127
1, 18054, Note_off_c, 8, 56, 127
1, 18056, Note_on_c, 10, 57, 127
1, 18229, Note_off_c, 10, 57, 127
1, 18231, Note_on_c, 5, 53, 127
1, 18404, Note_off_c, 5, 53, 127
1, 18406, Note_on_c, 6, 54, 127
1, 18581, Note_on_c, 1, 49, 127
1, 18754, Note_off_c, 1, 49, 127
1, 18756, Note_on_c, 10, 45, 127
1, 18929, Note_off_c, 10, 45, 127
1, 18931, Note_on_c, 6, 42, 127
1, 19098, Note_off_c, 6, 54, 127
1, 19105, Note_on_c, 3, 51, 127
1, 19276, Note_off_c, 6, 42, 127
1, 19294, Note_on_c, 6, 42, 127
1, 19505, Note_on_c, 0, 60, 127
1, 19505, Note_on_c, 8, 56, 127
1, 20145, Note_off_c, 6, 42, 127
1, 20150, Note_off_c, 3, 51, 127
1, 20346, Note_off_c, 0, 60, 127
1, 20378, Note_off_c, 8, 56, 127
1, 20547, Note_on_c, 4, 40, 127
1, 20722, Note_off_c, 4, 40, 127
1, 20726, Note_on_c, 6, 42, 127
1, 20901, Note_off_c, 6, 42, 127
1, 20905, Note_on_c, 3, 39, 127
1, 21080, Note_off_c, 3, 39, 127
1, 21084, Note_on_c, 4, 40, 127
1, 21279, Note_on_c, 8, 56, 127
1, 21452, Note_on_c, 1, 61, 127
1, 21454, Note_off_c, 8, 56, 127
1, 21625, Note_on_c, 6, 54, 127
1, 21790, Note_off_c, 6, 54, 127
1, 21795, Note_on_c, 8, 56, 127
1, 21973, Note_off_c, 4, 40, 127
1, 21973, Note_on_c, 3, 51, 127
1, 22148, Note_off_c, 3, 51, 127
1, 22152, Note_on_c, 4, 52, 127
1, 22327, Note_off_c, 4, 52, 127
1, 22331, Note_on_c, 1, 49, 127
1, 22500, Note_off_c, 8, 56, 127
1, 22505, Note_off_c, 1, 49, 127
1, 22509, Note_on_c, 2, 38, 127
1, 22518, Note_off_c, 1, 61, 127
1, 22703, Note_on_c, 1, 61, 127
1, 22876, Note_on_c, 6, 66, 127
1, 22878, Note_off_c, 1, 61, 127
1, 23049, Note_on_c, 1, 61, 127
1, 23213, Note_off_c, 2, 38, 127
1, 23222, Note_on_c, 2, 62, 127
1, 23224, Note_off_c, 1, 61, 127
1, 23395, Note_on_c, 10, 57, 127
1, 23562, Note_off_c, 10, 57, 127
1, 23564, Note_on_c, 12, 59, 127
1, 23731, Note_off_c, 12, 59, 127
1, 23735, Note_on_c, 6, 54, 127
1, 23908, Note_on_c, 0, 48, 127
1, 23926, Note_off_c, 2, 62, 127
1, 23942, Note_off_c, 6, 66, 127
1, 24095, Note_on_c, 6, 66, 127
1, 24248, Note_off_c, 6, 54, 127
1, 24261, Note_on_c, 10, 69, 127
1, 24263, Note_off_c, 6, 66, 127
1, 24427, Note_on_c, 6, 66, 127
1, 24585, Note_off_c, 0, 48, 127
1, 24594, Note_on_c, 8, 68, 127
1, 24598, Note_off_c, 6, 66, 127
1, 24598, Note_off_c, 10, 69, 127
1, 24782, Note_on_c, 5, 65, 127
1, 24782, Note_on_c, 8, 56, 127
1, 24931, Note_off_c, 8, 68, 127
1, 24950, Note_off_c, 8, 56, 127
1, 24950, Note_off_c, 5, 65, 127
1, 24954, Note_on_c, 6, 66, 127
1, 24968, Note_on_c, 10, 57, 127
1, 25136, Note_off_c, 10, 57, 127
1, 25146, Note_on_c, 6, 54, 127
1, 25146, Note_on_c, 3, 63, 127
1, 25291, Note_off_c, 6, 66, 127
1, 25313, Note_off_c, 3, 63, 127
1, 25313, Note_off_c, 6, 54, 127
1, 25335, Note_on_c, 4, 64, 127
1, 25335, Note_on_c, 8, 56, 127
1, 25335, Note_on_c, 1, 49, 127
1, 25544, Note_on_c, 8, 68, 127
1, 25700, Note_on_c, 1, 73, 127
1, 25702, Note_off_c, 8, 68, 127
1, 25858, Note_off_c, 1, 73, 127
1, 25860, Note_on_c, 8, 68, 127
1, 26011, Note_off_c, 1, 49, 127
1, 26011, Note_off_c, 8, 56, 127
1, 26011, Note_off_c, 4, 64, 127
1, 26015, Note_on_c, 10, 69, 127
1, 26019, Note_off_c, 8, 68, 127
1, 26174, Note_off_c, 10, 69, 127
1, 26183, Note_on_c, 6, 66, 127
1, 26347, Note_off_c, 6, 66, 127
1, 26349, Note_on_c, 8, 68, 127
1, 26513, Note_off_c, 8, 68, 127
1, 26517, Note_on_c, 3, 63, 127
1, 26681, Note_off_c, 3, 63, 127
1, 26683, Note_on_c, 4, 64, 127
1, 26894, Note_on_c, 0, 60, 127
1, 26929, Note_off_c, 4, 64, 127
1, 27058, Note_off_c, 0, 60, 127
1, 27060, Note_on_c, 1, 61, 127
1, 27224, Note_off_c, 1, 61, 127
1, 27226, Note_on_c, 8, 56, 127
1, 27390, Note_off_c, 8, 56, 127
1, 27394, Note_on_c, 10, 57, 127
1, 27558, Note_off_c, 10, 57, 127
1, 27560, Note_on_c, 6, 54, 127
1, 27724, Note_off_c, 6, 54, 127
1, 27728, Note_on_c, 8, 56, 127
1, 27892, Note_off_c, 8, 56, 127
1, 27894, Note_on_c, 3, 51, 127
1, 28058, Note_off_c, 3, 51, 127
1, 28062, Note_on_c, 5, 53, 127
1, 28340, Note_on_c, 5, 77, 127
1, 28502, Note_on_c, 8, 80, 127
1, 28504, Note_off_c, 5, 77, 127
1, 28666, Note_off_c, 8, 80, 127
1, 28666, Note_on_c, 1, 73, 127
1, 28719, Note_off_c, 5, 53, 127
1, 28828, Note_on_c, 2, 74, 127
1, 28830, Note_off_c, 1, 73, 127
1, 28992, Note_off_c, 2, 74, 127
1, 28996, Note_on_c, 12, 71, 127
1, 29160, Note_off_c, 12, 71, 127
1, 29162, Note_on_c, 1, 73, 127
1, 29329, Note_on_c, 8, 68, 127
1, 29493, Note_off_c, 8, 68, 127
1, 29495, Note_on_c, 6, 54, 127
1, 29495, Note_on_c, 10, 69, 127
1, 29733, Note_on_c, 5, 65, 127
1, 29897, Note_off_c, 5, 65, 127
1, 29901, Note_on_c, 6, 66, 127
1, 30065, Note_off_c, 6, 66, 127
1, 30067, Note_on_c, 1, 61, 127
1, 30152, Note_off_c, 10, 69, 127
1, 30152, Note_off_c, 6, 54, 127
1, 30157, Note_off_c, 1, 73, 127
1, 30230, Note_off_c, 1, 61, 127
1, 30234, Note_on_c, 2, 62, 127
1, 30398, Note_off_c, 2, 62, 127
1, 30400, Note_on_c, 10, 57, 127
1, 30564, Note_off_c, 10, 57, 127
1, 30568, Note_on_c, 12, 59, 127
1, 30732, Note_off_c, 12, 59, 127
1, 30734, Note_on_c, 6, 54, 127
1, 30898, Note_off_c, 6, 54, 127
1, 30900, Note_on_c, 8, 56, 127
1, 30900, Note_on_c, 2, 50, 127
1, 31140, Note_on_c, 6, 78, 127
1, 31304, Note_off_c, 6, 78, 127
1, 31306, Note_on_c, 12, 83, 127
1, 31470, Note_off_c, 12, 83, 127
1, 31474, Note_on_c, 6, 78, 127
1, 31558, Note_off_c, 2, 50, 127
1, 31558, Note_off_c, 8, 56, 127
1, 31638, Note_off_c, 6, 78, 127
1, 31640, Note_on_c, 8, 80, 127
1, 31804, Note_off_c, 8, 80, 127
1, 31808, Note_on_c, 5, 77, 127
1, 31972, Note_off_c, 5, 77, 127
1, 31974, Note_on_c, 6, 78, 127
1, 32139, Note_on_c, 3, 75, 127
1, 32301, Note_off_c, 6, 78, 127
1, 32303, Note_off_c, 3, 75, 127
1, 32307, Note_on_c, 1, 49, 127
1, 32307, Note_on_c, 8, 56, 127
1, 32307, Note_on_c, 5, 77, 127
1, 32512, Note_off_c, 5, 77, 127
1, 32545, Note_on_c, 1, 73, 127
1, 32709, Note_off_c, 1, 73, 127
1, 32713, Note_on_c, 5, 77, 127
1, 32878, Note_on_c, 1, 73, 127
1, 32963, Note_off_c, 8, 56, 127
1, 32963, Note_off_c, 1, 49, 127
1, 33041, Note_off_c, 1, 73, 127
1, 33045, Note_on_c, 2, 74, 127
1, 33209, Note_off_c, 2, 74, 127
1, 33211, Note_on_c, 12, 71, 127
1, 33375, Note_off_c, 12, 71, 127
1, 33377, Note_on_c, 1, 73, 127
1, 33541, Note_off_c, 1, 73, 127
1, 33545, Note_on_c, 8, 68, 127
1, 33709, Note_off_c, 8, 68, 127
1, 33709, Note_off_c, 5, 77, 127
1, 33711, Note_on_c, 6, 54, 127
1, 33711, Note_on_c, 10, 69, 127
1, 33711, Note_on_c, 1, 61, 127
1, 33711, Note_on_c, 1, 49, 127
1, 33875, Note_off_c, 10, 69, 127
1, 33937, Note_on_c, 1, 73, 127
1, 34101, Note_off_c, 1, 73, 127
1, 34103, Note_on_c, 6, 78, 127
1, 34267, Note_off_c, 6, 78, 127
1, 34271, Note_on_c, 1, 73, 127
1, 34369, Note_off_c, 1, 49, 127
1, 34369, Note_off_c, 1, 61, 127
1, 34369, Note_off_c, 6, 54, 127
1, 34434, Note_off_c, 1, 73, 127
1, 34436, Note_on_c, 2, 74, 127
1, 34600, Note_off_c, 2, 74, 127
1, 34602, Note_on_c, 12, 71, 127
1, 34766, Note_off_c, 12, 71, 127
1, 34770, Note_on_c, 1, 73, 127
1, 34934, Note_off_c, 1, 73, 127
1, 34936, Note_on_c, 8, 68, 127
1, 35100, Note_off_c, 8, 68, 127
1, 35104, Note_on_c, 10, 69, 127
1, 35104, Note_on_c, 1, 61, 127
1, 35104, Note_on_c, 6, 54, 127
1, 35104, Note_on_c, 1, 49, 127
1, 35268, Note_off_c, 10, 69, 127
1, 35299, Note_on_c, 5, 65, 127
1, 35463, Note_off_c, 5, 65, 127
1, 35467, Note_on_c, 6, 66, 127
1, 35589, Note_off_c, 1, 61, 127
1, 35631, Note_off_c, 6, 66, 127
1, 35633, Note_on_c, 1, 61, 127
1, 35762, Note_off_c, 1, 49, 127
1, 35762, Note_off_c, 6, 54, 127
1, 35797, Note_off_c, 1, 61, 127
1, 35799, Note_on_c, 2, 62, 127
1, 35963, Note_off_c, 2, 62, 127
1, 35967, Note_on_c, 12, 59, 127
1, 36131, Note_off_c, 12, 59, 127
1, 36133, Note_on_c, 1, 61, 127
1, 36297, Note_off_c, 1, 61, 127
1, 36310, Note_on_c, 8, 56, 127
1, 36470, Note_on_c, 10, 57, 127
1, 36474, Note_off_c, 8, 56, 127
1, 36663, Note_on_c, 5, 53, 127
1, 36687, Note_off_c, 10, 57, 127
1, 36827, Note_off_c, 5, 53, 127
1, 36829, Note_on_c, 6, 54, 127
1, 36993, Note_off_c, 6, 54, 127
1, 36995, Note_on_c, 12, 47, 127
1, 37159, Note_off_c, 12, 47, 127
1, 37163, Note_on_c, 1, 49, 127
1, 37327, Note_off_c, 1, 49, 127
1, 37329, Note_on_c, 8, 44, 127
1, 37493, Note_off_c, 8, 44, 127
1, 37497, Note_on_c, 10, 45, 127
1, 37679, Note_off_c, 10, 45, 127
1, 37690, Note_on_c, 6, 42, 127
1, 37872, Note_off_c, 6, 42, 127
1, 37908, Note_on_c, 0, 36, 127
1, 38179, Note_on_c, 6, 66, 127
1, 38368, Note_on_c, 10, 69, 127
1, 38388, Note_off_c, 6, 66, 127
1, 38541, Note_off_c, 10, 69, 127
1, 38543, Note_on_c, 5, 65, 127
1, 38715, Note_off_c, 5, 65, 127
1, 38717, Note_on_c, 6, 66, 127
1, 38808, Note_off_c, 0, 36, 127
1, 38892, Note_on_c, 1, 61, 127
1, 39065, Note_off_c, 1, 61, 127
1, 39067, Note_on_c, 3, 63, 127
1, 39240, Note_off_c, 3, 63, 127
1, 39242, Note_on_c, 8, 56, 127
1, 39409, Note_off_c, 6, 66, 127
1, 39414, Note_off_c, 8, 56, 127
1, 39416, Note_on_c, 10, 57, 127
1, 39416, Note_on_c, 1, 37, 127
1, 39634, Note_on_c, 1, 61, 127
1, 39761, Note_off_c, 10, 57, 127
1, 39806, Note_off_c, 1, 61, 127
1, 39808, Note_on_c, 6, 66, 127
1, 39981, Note_off_c, 6, 66, 127
1, 39983, Note_on_c, 12, 59, 127
1, 40156, Note_off_c, 12, 59, 127
1, 40158, Note_on_c, 1, 61, 127
1, 40289, Note_off_c, 1, 37, 127
1, 40331, Note_off_c, 1, 61, 127
1, 40333, Note_on_c, 8, 56, 127
1, 40506, Note_off_c, 8, 56, 127
1, 40508, Note_on_c, 10, 57, 127
1, 40681, Note_off_c, 10, 57, 127
1, 40683, Note_on_c, 5, 53, 127
1, 40856, Note_off_c, 5, 53, 127
1, 40858, Note_on_c, 6, 54, 127
1, 41033, Note_on_c, 10, 57, 127
1, 41206, Note_off_c, 10, 57, 127
1, 41208, Note_on_c, 1, 61, 127
1, 41381, Note_off_c, 1, 61, 127
1, 41383, Note_on_c, 8, 56, 127
1, 41550, Note_off_c, 6, 54, 127
1, 41555, Note_off_c, 8, 56, 127
1, 41557, Note_on_c, 10, 57, 127
1, 41730, Note_off_c, 10, 57, 127
1, 41732, Note_on_c, 5, 53, 127
1, 41905, Note_off_c, 5, 53, 127
1, 41907, Note_on_c, 6, 54, 127
1, 42082, Note_on_c, 0, 48, 127
1, 42253, Note_off_c, 6, 54, 127
1, 42255, Note_off_c, 0, 48, 127
1, 42257, Note_on_c, 1, 49, 127
1, 42432, Note_on_c, 6, 54, 127
1, 42605, Note_off_c, 6, 54, 127
1, 42607, Note_on_c, 10, 57, 127
1, 42780, Note_off_c, 10, 57, 127
1, 42782, Note_on_c, 5, 53, 127
1, 42949, Note_off_c, 1, 49, 127
1, 42954, Note_off_c, 5, 53, 127
1, 42956, Note_on_c, 6, 54, 127
1, 43129, Note_off_c, 6, 54, 127
1, 43131, Note_on_c, 12, 47, 127
1, 43304, Note_off_c, 12, 47, 127
1, 43306, Note_on_c, 1, 49, 127
1, 43481, Note_on_c, 8, 44, 127
1, 43652, Note_off_c, 1, 49, 127
1, 43654, Note_off_c, 8, 44, 127
1, 43656, Note_on_c, 10, 45, 127
1, 43889, Note_on_c, 1, 49, 127
1, 44062, Note_off_c, 1, 49, 127
1, 44067, Note_on_c, 6, 54, 127
1, 44165, Note_off_c, 10, 45, 127
1, 44249, Note_on_c, 1, 49, 127
1, 44264, Note_off_c, 6, 54, 127
1, 44442, Note_on_c, 6, 54, 127
1, 44615, Note_off_c, 6, 54, 127
1, 44617, Note_on_c, 10, 57, 127
1, 44759, Note_off_c, 1, 49, 127
1, 44790, Note_off_c, 10, 57, 127
1, 44792, Note_on_c, 6, 54, 127
1, 44967, Note_on_c, 10, 57, 127
1, 45142, Note_on_c, 1, 61, 127
1, 45186, Note_off_c, 10, 57, 127
1, 45302, Note_off_c, 6, 54, 127
1, 45317, Note_on_c, 10, 57, 127
1, 45361, Note_off_c, 1, 61, 127
1, 45492, Note_on_c, 1, 61, 127
1, 45665, Note_off_c, 1, 61, 127
1, 45674, Note_on_c, 6, 66, 127
1, 45827, Note_off_c, 10, 57, 127
1, 45849, Note_on_c, 8, 56, 127
1, 45856, Note_on_c, 1, 37, 127
1, 45983, Note_off_c, 6, 66, 127
1, 46045, Note_on_c, 6, 66, 127
1, 46241, Note_on_c, 5, 65, 127
1, 46263, Note_off_c, 6, 66, 127
1, 46430, Note_off_c, 8, 56, 127
1, 46437, Note_on_c, 12, 59, 127
1, 46532, Note_off_c, 5, 65, 127
1, 46547, Note_off_c, 1, 37, 127
1, 46656, Note_off_c, 12, 59, 127
1, 46656, Note_on_c, 6, 42, 127
1, 46656, Note_on_c, 11, 58, 127
1, 46976, Note_on_c, 1, 61, 127
1, 47149, Note_off_c, 1, 61, 127
1, 47151, Note_on_c, 6, 66, 127
1, 47324, Note_off_c, 6, 66, 127
1, 47326, Note_on_c, 1, 61, 127
1, 47499, Note_off_c, 1, 61, 127
1, 47501, Note_on_c, 2, 62, 127
1, 47530, Note_off_c, 11, 58, 127
1, 47705, Note_on_c, 11, 58, 127
1, 47878, Note_off_c, 11, 58, 127
1, 47880, Note_on_c, 12, 59, 127
1, 48053, Note_off_c, 12, 59, 127
1, 48055, Note_on_c, 5, 53, 127
1, 48228, Note_off_c, 5, 53, 127
1, 48230, Note_on_c, 6, 54, 127
1, 48375, Note_off_c, 2, 62, 127
1, 48462, Note_on_c, 12, 59, 127
1, 48635, Note_off_c, 12, 59, 127
1, 48637, Note_on_c, 2, 62, 127
1, 48810, Note_off_c, 2, 62, 127
1, 48812, Note_on_c, 12, 59, 127
1, 48985, Note_off_c, 12, 59, 127
1, 48987, Note_on_c, 1, 61, 127
1, 49103, Note_off_c, 6, 54, 127
1, 49190, Note_on_c, 8, 56, 127
1, 49363, Note_off_c, 8, 56, 127
1, 49365, Note_on_c, 11, 58, 127
1, 49538, Note_off_c, 11, 58, 127
1, 49540, Note_on_c, 5, 53, 127
1, 49713, Note_off_c, 5, 53, 127
1, 49715, Note_on_c, 6, 54, 127
1, 49860, Note_off_c, 1, 61, 127
1, 49918, Note_on_c, 11, 58, 127
1, 50082, Note_off_c, 11, 58, 127
1, 50093, Note_on_c, 1, 61, 127
1, 50268, Note_on_c, 8, 56, 127
1, 50297, Note_off_c, 6, 54, 127
1, 50439, Note_off_c, 1, 61, 127
1, 50441, Note_off_c, 8, 56, 127
1, 50443, Note_on_c, 11, 58, 127
1, 50618, Note_on_c, 6, 54, 127
1, 50753, Note_off_c, 11, 58, 127
1, 50791, Note_off_c, 6, 54, 127
1, 50793, Note_on_c, 8, 56, 127
1, 50844, Note_off_c, 6, 42, 127
1, 51004, Note_off_c, 8, 56, 127
1, 51015, Note_on_c, 5, 53, 127
1, 51255, Note_off_c, 5, 53, 127
1, 51270, Note_on_c, 6, 54, 127
1, 52745, Note_off_c, 6, 54, 127
1, 52947, Note_on_c, 1, 73, 127
1, 53120, Note_off_c, 1, 73, 127
1, 53122, Note_on_c, 6, 78, 127
1, 53313, Note_off_c, 6, 78, 127
1, 53326, Note_on_c, 10, 81, 127
1, 53411, Note_off_c, 10, 81, 127
1, 53413, Note_on_c, 8, 80, 127
1, 53498, Note_off_c, 8, 80, 127
1, 53500, Note_on_c, 6, 78, 127
1, 53691, Note_off_c, 6, 78, 127
1, 53704, Note_on_c, 8, 80, 127
1, 53789, Note_off_c, 8, 80, 127
1, 53791, Note_on_c, 5, 77, 127
1, 53876, Note_off_c, 5, 77, 127
1, 53878, Note_on_c, 6, 78, 127
1, 54069, Note_off_c, 6, 78, 127
1, 54082, Note_on_c, 4, 76, 127
1, 54167, Note_off_c, 4, 76, 127
1, 54169, Note_on_c, 2, 74, 127
1, 54254, Note_off_c, 2, 74, 127
1, 54256, Note_on_c, 1, 73, 127
1, 54341, Note_off_c, 1, 73, 127
1, 54343, Note_on_c, 12, 71, 127
1, 54428, Note_off_c, 12, 71, 127
1, 54430, Note_on_c, 10, 69, 127
1, 54515, Note_off_c, 10, 69, 127
1, 54517, Note_on_c, 8, 68, 127
1, 54602, Note_off_c, 8, 68, 127
1, 54604, Note_on_c, 6, 66, 127
1, 54689, Note_off_c, 6, 66, 127
1, 54691, Note_on_c, 10, 69, 127
1, 54776, Note_off_c, 10, 69, 127
1, 54778, Note_on_c, 8, 68, 127
1, 54863, Note_off_c, 8, 68, 127
1, 54865, Note_on_c, 6, 66, 127
1, 54950, Note_off_c, 6, 66, 127
1, 54952, Note_on_c, 4, 64, 127
1, 55037, Note_off_c, 4, 64, 127
1, 55039, Note_on_c, 3, 63, 127
1, 55124, Note_off_c, 3, 63, 127
1, 55126, Note_on_c, 4, 64, 127
1, 55211, Note_off_c, 4, 64, 127
1, 55213, Note_on_c, 1, 61, 127
1, 55298, Note_off_c, 1, 61, 127
1, 55300, Note_on_c, 0, 60, 127
1, 55300, Note_on_c, 8, 44, 127
1, 55300, Note_on_c, 3, 51, 127
1, 55300, Note_on_c, 8, 56, 127
1, 55876, Note_on_c, 6, 66, 127
1, 56450, Note_off_c, 6, 66, 127
1, 56452, Note_on_c, 6, 66, 127
1, 56992, Note_off_c, 6, 66, 127
1, 57025, Note_off_c, 8, 56, 127
1, 57025, Note_off_c, 3, 51, 127
1, 57025, Note_off_c, 8, 44, 127
1, 57025, Note_off_c, 0, 60, 127
1, 57028, Note_on_c, 6, 66, 127
1, 57028, Note_on_c, 8, 56, 127
1, 57028, Note_on_c, 1, 61, 127
1, 57028, Note_on_c, 1, 49, 127
1, 57602, Note_off_c, 1, 61, 127
1, 57602, Note_off_c, 8, 56, 127
1, 57602, Note_off_c, 6, 66, 127
1, 57604, Note_on_c, 5, 65, 127
1, 57604, Note_on_c, 1, 61, 127
1, 58178, Note_off_c, 1, 61, 127
1, 58178, Note_off_c, 5, 65, 127
1, 58180, Note_on_c, 4, 64, 127
1, 58180, Note_on_c, 1, 61, 127
1, 58466, Note_off_c, 4, 64, 127
1, 58468, Note_on_c, 7, 67, 127
1, 58610, Note_off_c, 7, 67, 127
1, 58612, Note_on_c, 6, 66, 127
1, 58746, Note_off_c, 6, 66, 127
1, 58750, Note_off_c, 1, 61, 127
1, 58753, Note_off_c, 1, 49, 127
1, 58756, Note_on_c, 1, 61, 127
1, 58756, Note_on_c, 6, 66, 127
1, 58756, Note_on_c, 3, 51, 127
1, 59330, Note_off_c, 1, 61, 127
1, 59332, Note_on_c, 0, 60, 127
1, 59866, Note_off_c, 6, 66, 127
1, 59906, Note_off_c, 0, 60, 127
1, 59906, Note_off_c, 3, 51, 127
1, 59908, Note_on_c, 12, 59, 127
1, 59908, Note_on_c, 5, 53, 127
1, 59908, Note_on_c, 8, 68, 127
1, 60482, Note_off_c, 5, 53, 127
1, 60482, Note_off_c, 12, 59, 127
1, 60484, Note_on_c, 11, 58, 127
1, 60484, Note_on_c, 6, 54, 127
1, 61003, Note_off_c, 8, 68, 127
1, 61059, Note_off_c, 11, 58, 127
1, 61061, Note_on_c, 12, 59, 127
1, 61061, Note_on_c, 6, 66, 127
1, 61205, Note_off_c, 6, 54, 127
1, 61211, Note_on_c, 4, 52, 127
1, 61353, Note_off_c, 4, 52, 127
1, 61355, Note_on_c, 2, 50, 127
1, 61435, Note_off_c, 2, 50, 127
1, 61437, Note_on_c, 1, 49, 127
1, 61518, Note_on_c, 2, 50, 127
1, 61528, Note_off_c, 1, 49, 127
1, 61597, Note_off_c, 2, 50, 127
1, 61607, Note_on_c, 12, 47, 127
1, 61655, Note_on_c, 11, 46, 127
1, 61655, Note_on_c, 1, 61, 127
1, 61655, Note_on_c, 4, 64, 127
1, 61685, Note_off_c, 6, 66, 127
1, 61685, Note_off_c, 12, 59, 127
1, 61687, Note_off_c, 12, 47, 127
1, 62230, Note_off_c, 4, 64, 127
1, 62230, Note_off_c, 11, 46, 127
1, 62250, Note_on_c, 3, 63, 127
1, 62250, Note_on_c, 12, 47, 127
1, 62805, Note_off_c, 3, 63, 127
1, 62807, Note_off_c, 1, 61, 127
1, 62825, Note_off_c, 12, 47, 127
1, 62827, Note_on_c, 1, 49, 127
1, 62827, Note_on_c, 12, 59, 127
1, 62827, Note_on_c, 6, 66, 127
1, 63113, Note_off_c, 6, 66, 127
1, 63115, Note_on_c, 5, 65, 127
1, 63397, Note_off_c, 12, 59, 127
1, 63397, Note_off_c, 1, 49, 127
1, 63401, Note_off_c, 5, 65, 127
1, 63403, Note_on_c, 2, 50, 127
1, 63403, Note_on_c, 10, 57, 127
1, 63403, Note_on_c, 6, 66, 127
1, 63958, Note_off_c, 6, 66, 127
1, 63978, Note_off_c, 10, 57, 127
1, 63978, Note_off_c, 2, 50, 127
1, 63980, Note_on_c, 12, 47, 127
1, 63980, Note_on_c, 8, 56, 127
1, 64124, Note_on_c, 10, 69, 127
1, 64266, Note_off_c, 10, 69, 127
1, 64268, Note_on_c, 8, 68, 127
1, 64410, Note_off_c, 8, 68, 127
1, 64412, Note_on_c, 12, 71, 127
1, 64550, Note_off_c, 12, 47, 127
1, 64554, Note_off_c, 12, 71, 127
1, 64556, Note_on_c, 1, 49, 127
1, 64556, Note_on_c, 12, 59, 127
1, 64556, Note_on_c, 5, 65, 127
1, 65130, Note_off_c, 12, 59, 127
1, 65132, Note_on_c, 12, 59, 127
1, 65418, Note_off_c, 5, 65, 127
1, 65420, Note_on_c, 6, 66, 127
1, 65702, Note_off_c, 12, 59, 127
1, 65705, Note_off_c, 8, 56, 127
1, 65707, Note_off_c, 6, 66, 127
1, 65707, Note_off_c, 1, 49, 127
1, 65709, Note_on_c, 12, 59, 127
1, 65709, Note_on_c, 6, 66, 127
1, 65709, Note_on_c, 6, 42, 127
1, 65709, Note_on_c, 6, 54, 127
1, 66219, Note_off_c, 6, 66, 127
1, 66249, Note_off_c, 6, 54, 127
1, 66283, Note_off_c, 6, 42, 127
1, 66283, Note_off_c, 12, 59, 127
1, 66285, Note_on_c, 6, 66, 127
1, 66285, Note_on_c, 6, 54, 127
1, 66285, Note_on_c, 11, 58, 127
1, 66571, Note_off_c, 6, 54, 127
1, 66573, Note_on_c, 4, 52, 127
1, 66855, Note_off_c, 11, 58, 127
1, 66855, Note_off_c, 6, 66, 127
1, 66859, Note_off_c, 4, 52, 127
1, 66861, Note_on_c, 3, 51, 127
1, 66861, Note_on_c, 10, 57, 127
1, 66861, Note_on_c, 6, 66, 127
1, 67147, Note_off_c, 3, 51, 127
1, 67149, Note_on_c, 4, 52, 127
1, 67291, Note_off_c, 4, 52, 127
1, 67293, Note_on_c, 1, 49, 127
1, 67431, Note_off_c, 6, 66, 127
1, 67431, Note_off_c, 10, 57, 127
1, 67435, Note_off_c, 1, 49, 127
1, 67437, Note_on_c, 0, 48, 127
1, 67437, Note_on_c, 8, 56, 127
1, 67437, Note_on_c, 6, 66, 127
1, 68011, Note_off_c, 6, 66, 127
1, 68011, Note_off_c, 0, 48, 127
1, 68013, Note_on_c, 1, 73, 127
1, 68013, Note_on_c, 5, 65, 127
1, 68013, Note_on_c, 1, 49, 127
1, 68299, Note_off_c, 1, 49, 127
1, 68299, Note_off_c, 8, 56, 127
1, 68301, Note_on_c, 12, 47, 127
1, 68301, Note_on_c, 8, 68, 127
1, 68583, Note_off_c, 5, 65, 127
1, 68583, Note_off_c, 1, 73, 127
1, 68587, Note_off_c, 8, 68, 127
1, 68587, Note_off_c, 12, 47, 127
1, 68589, Note_on_c, 1, 73, 127
1, 68589, Note_on_c, 4, 64, 127
1, 68589, Note_on_c, 7, 67, 127
1, 68589, Note_on_c, 11, 46, 127
1, 68731, Note_off_c, 11, 46, 127
1, 68733, Note_on_c, 1, 49, 127
1, 68813, Note_off_c, 1, 49, 127
1, 68815, Note_on_c, 12, 47, 127
1, 68875, Note_off_c, 7, 67, 127
1, 68878, Note_on_c, 8, 68, 127
1, 68894, Note_off_c, 12, 47, 127
1, 68896, Note_on_c, 11, 46, 127
1, 69038, Note_off_c, 11, 46, 127
1, 69040, Note_on_c, 12, 47, 127
1, 69120, Note_off_c, 12, 47, 127
1, 69122, Note_on_c, 8, 44, 127
1, 69161, Note_off_c, 1, 73, 127
1, 69164, Note_off_c, 8, 68, 127
1, 69202, Note_off_c, 8, 44, 127
1, 69204, Note_on_c, 11, 70, 127
1, 69204, Note_on_c, 1, 73, 127
1, 69204, Note_on_c, 7, 43, 127
1, 69454, Note_off_c, 4, 64, 127
1, 69492, Note_on_c, 3, 63, 127
1, 69774, Note_off_c, 7, 43, 127
1, 69774, Note_off_c, 1, 73, 127
1, 69780, Note_on_c, 0, 72, 127
1, 69780, Note_on_c, 8, 44, 127
1, 70066, Note_off_c, 0, 72, 127
1, 70066, Note_off_c, 11, 70, 127
1, 70068, Note_on_c, 12, 71, 127
1, 70068, Note_on_c, 8, 68, 127
1, 70210, Note_off_c, 8, 68, 127
1, 70212, Note_on_c, 6, 66, 127
1, 70350, Note_off_c, 8, 44, 127
1, 70354, Note_off_c, 6, 66, 127
1, 70354, Note_off_c, 3, 63, 127
1, 70356, Note_on_c, 4, 64, 127
1, 70356, Note_on_c, 1, 49, 127
1, 70500, Note_on_c, 3, 63, 127
1, 70638, Note_off_c, 12, 71, 127
1, 70641, Note_off_c, 4, 64, 127
1, 70643, Note_off_c, 3, 63, 127
1, 70645, Note_on_c, 11, 70, 127
1, 70645, Note_on_c, 4, 64, 127
1, 70787, Note_off_c, 4, 64, 127
1, 70789, Note_on_c, 1, 61, 127
1, 70927, Note_off_c, 1, 49, 127
1, 70930, Note_off_c, 11, 70, 127
1, 70932, Note_off_c, 1, 61, 127
1, 70934, Note_on_c, 12, 71, 127
1, 70934, Note_on_c, 7, 55, 127
1, 70934, Note_on_c, 3, 63, 127
1, 70934, Note_on_c, 3, 51, 127
1, 71220, Note_off_c, 7, 55, 127
1, 71222, Note_on_c, 8, 56, 127
1, 71354, Note_off_c, 12, 71, 127
1, 71366, Note_on_c, 1, 73, 127
1, 71504, Note_off_c, 3, 63, 127
1, 71508, Note_off_c, 1, 73, 127
1, 71510, Note_on_c, 11, 70, 127
1, 71510, Note_on_c, 1, 61, 127
1, 71792, Note_off_c, 8, 56, 127
1, 71798, Note_on_c, 7, 55, 127
1, 72080, Note_off_c, 1, 61, 127
1, 72084, Note_off_c, 7, 55, 127
1, 72086, Note_on_c, 1, 61, 127
1, 72086, Note_on_c, 7, 55, 127
1, 72372, Note_off_c, 11, 70, 127
1, 72374, Note_on_c, 8, 68, 127
1, 72506, Note_off_c, 7, 55, 127
1, 72518, Note_on_c, 8, 56, 127
1, 72656, Note_off_c, 1, 61, 127
1, 72659, Note_off_c, 8, 68, 127
1, 72659, Note_off_c, 3, 51, 127
1, 72661, Note_off_c, 8, 56, 127
1, 72663, Note_on_c, 8, 68, 127
1, 72663, Note_on_c, 1, 61, 127
1, 72663, Note_on_c, 8, 56, 127
1, 72663, Note_on_c, 8, 44, 127
1, 73237, Note_off_c, 8, 44, 127
1, 73237, Note_off_c, 1, 61, 127
1, 73237, Note_off_c, 8, 68, 127
1, 73275, Note_on_c, 4, 76, 127
1, 73275, Note_on_c, 12, 59, 127
1, 73813, Note_off_c, 8, 56, 127
1, 73849, Note_off_c, 12, 59, 127
1, 73849, Note_off_c, 4, 76, 127
1, 73851, Note_on_c, 11, 58, 127
1, 73851, Note_on_c, 1, 61, 127
1, 73851, Note_on_c, 4, 76, 127
1, 74375, Note_off_c, 4, 76, 127
1, 74425, Note_off_c, 1, 61, 127
1, 74425, Note_off_c, 11, 58, 127
1, 74427, Note_on_c, 6, 66, 127
1, 74427, Note_on_c, 4, 76, 127
1, 74427, Note_on_c, 12, 59, 127
1, 75001, Note_off_c, 4, 76, 127
1, 75001, Note_off_c, 6, 66, 127
1, 75003, Note_on_c, 3, 75, 127
1, 75003, Note_on_c, 12, 71, 127
1, 75539, Note_off_c, 12, 71, 127
1, 75539, Note_off_c, 3, 75, 127
1, 75577, Note_off_c, 12, 59, 127
1, 75579, Note_on_c, 12, 59, 127
1, 75579, Note_on_c, 12, 71, 127
1, 75579, Note_on_c, 2, 74, 127
1, 75865, Note_off_c, 2, 74, 127
1, 75867, Note_on_c, 5, 77, 127
1, 76009, Note_off_c, 5, 77, 127
1, 76011, Note_on_c, 4, 76, 127
1, 76149, Note_off_c, 12, 71, 127
1, 76149, Note_off_c, 12, 59, 127
1, 76153, Note_off_c, 4, 76, 127
1, 76155, Note_on_c, 1, 61, 127
1, 76155, Note_on_c, 12, 71, 127
1, 76155, Note_on_c, 4, 76, 127
1, 76729, Note_off_c, 12, 71, 127
1, 76731, Note_on_c, 11, 70, 127
1, 77250, Note_off_c, 1, 61, 127
1, 77280, Note_off_c, 4, 76, 127
1, 77306, Note_off_c, 11, 70, 127
1, 77308, Note_on_c, 6, 78, 127
1, 77308, Note_on_c, 3, 63, 127
1, 77308, Note_on_c, 10, 69, 127
1, 77882, Note_off_c, 10, 69, 127
1, 77882, Note_off_c, 3, 63, 127
1, 77882, Note_off_c, 6, 78, 127
1, 77884, Note_on_c, 4, 64, 127
1, 77884, Note_on_c, 10, 69, 127
1, 77884, Note_on_c, 12, 71, 127
1, 78458, Note_off_c, 12, 71, 127
1, 78458, Note_off_c, 10, 69, 127
1, 78460, Note_on_c, 4, 76, 127
1, 78460, Note_on_c, 8, 68, 127
1, 78746, Note_off_c, 8, 68, 127
1, 78748, Note_on_c, 6, 66, 127
1, 79030, Note_off_c, 4, 76, 127
1, 79034, Note_off_c, 6, 66, 127
1, 79036, Note_on_c, 8, 68, 127
1, 79036, Note_on_c, 2, 74, 127
1, 79178, Note_off_c, 2, 74, 127
1, 79180, Note_on_c, 5, 77, 127
1, 79322, Note_off_c, 5, 77, 127
1, 79324, Note_on_c, 4, 76, 127
1, 79466, Note_off_c, 4, 76, 127
1, 79468, Note_on_c, 5, 77, 127
1, 79548, Note_off_c, 5, 77, 127
1, 79552, Note_on_c, 2, 74, 127
1, 79606, Note_off_c, 8, 68, 127
1, 79609, Note_off_c, 4, 64, 127
1, 79631, Note_off_c, 2, 74, 127
1, 79635, Note_on_c, 10, 69, 127
1, 79635, Note_on_c, 10, 57, 127
1, 79635, Note_on_c, 2, 74, 127
1, 79921, Note_off_c, 2, 74, 127
1, 79923, Note_on_c, 1, 73, 127
1, 80205, Note_off_c, 10, 57, 127
1, 80205, Note_off_c, 10, 69, 127
1, 80209, Note_off_c, 1, 73, 127
1, 80211, Note_on_c, 10, 69, 127
1, 80211, Note_on_c, 6, 78, 127
1, 80211, Note_on_c, 1, 73, 127
1, 80497, Note_off_c, 1, 73, 127
1, 80499, Note_on_c, 3, 75, 127
1, 80641, Note_off_c, 3, 75, 127
1, 80643, Note_on_c, 4, 76, 127
1, 80781, Note_off_c, 6, 78, 127
1, 80781, Note_off_c, 10, 69, 127
1, 80785, Note_off_c, 4, 76, 127
1, 80787, Note_on_c, 3, 75, 127
1, 80787, Note_on_c, 6, 66, 127
1, 80787, Note_on_c, 6, 78, 127
1, 81073, Note_off_c, 3, 75, 127
1, 81075, Note_on_c, 4, 76, 127
1, 81217, Note_off_c, 4, 76, 127
1, 81219, Note_on_c, 1, 73, 127
1, 81357, Note_off_c, 6, 78, 127
1, 81357, Note_off_c, 6, 66, 127
1, 81361, Note_off_c, 1, 73, 127
1, 81363, Note_on_c, 0, 72, 127
1, 81363, Note_on_c, 6, 78, 127
1, 81363, Note_on_c, 8, 68, 127
1, 81649, Note_off_c, 6, 78, 127
1, 81651, Note_on_c, 5, 77, 127
1, 81933, Note_off_c, 8, 68, 127
1, 81933, Note_off_c, 0, 72, 127
1, 81937, Note_off_c, 5, 77, 127
1, 81939, Note_on_c, 1, 73, 127
1, 81939, Note_on_c, 1, 61, 127
1, 82227, Note_on_c, 4, 76, 127
1, 82509, Note_off_c, 1, 61, 127
1, 82515, Note_on_c, 6, 66, 127
1, 82797, Note_off_c, 4, 76, 127
1, 82803, Note_on_c, 10, 81, 127
1, 82945, Note_off_c, 10, 81, 127
1, 82947, Note_on_c, 3, 75, 127
1, 83085, Note_off_c, 6, 66, 127
1, 83089, Note_off_c, 3, 75, 127
1, 83089, Note_off_c, 1, 73, 127
1, 83091, Note_on_c, 1, 73, 127
1, 83091, Note_on_c, 4, 76, 127
1, 83091, Note_on_c, 8, 68, 127
1, 83305, Note_off_c, 4, 76, 127
1, 83307, Note_on_c, 8, 80, 127
1, 83387, Note_off_c, 8, 80, 127
1, 83390, Note_on_c, 6, 78, 127
1, 83470, Note_off_c, 6, 78, 127
1, 83473, Note_on_c, 4, 76, 127
1, 83553, Note_off_c, 4, 76, 127
1, 83556, Note_on_c, 6, 78, 127
1, 83636, Note_off_c, 6, 78, 127
1, 83641, Note_on_c, 8, 80, 127
1, 83663, Note_off_c, 8, 68, 127
1, 83717, Note_on_c, 6, 66, 127
1, 83717, Note_on_c, 3, 75, 127
1, 83721, Note_off_c, 8, 80, 127
1, 84243, Note_off_c, 1, 73, 127
1, 84291, Note_off_c, 6, 66, 127
1, 84293, Note_on_c, 0, 72, 127
1, 84293, Note_on_c, 6, 66, 127
1, 84579, Note_off_c, 3, 75, 127
1, 84581, Note_on_c, 1, 73, 127
1, 84863, Note_off_c, 6, 66, 127
1, 84863, Note_off_c, 0, 72, 127
1, 84867, Note_off_c, 1, 73, 127
1, 84869, Note_on_c, 1, 73, 127
1, 84869, Note_on_c, 6, 66, 127
1, 85155, Note_off_c, 6, 66, 127
1, 85157, Note_on_c, 5, 65, 127
1, 85443, Note_off_c, 5, 65, 127
1, 85445, Note_on_c, 3, 75, 127
1, 85445, Note_on_c, 6, 66, 127
1, 85445, Note_on_c, 12, 59, 127
1, 85731, Note_off_c, 1, 73, 127
1, 85733, Note_on_c, 12, 71, 127
1, 86015, Note_off_c, 12, 59, 127
1, 86015, Note_off_c, 6, 66, 127
1, 86015, Note_off_c, 3, 75, 127
1, 86019, Note_off_c, 12, 71, 127
1, 86021, Note_on_c, 8, 68, 127
1, 86021, Note_on_c, 5, 77, 127
1, 86021, Note_on_c, 2, 74, 127
1, 86021, Note_on_c, 12, 59, 127
1, 86307, Note_off_c, 2, 74, 127
1, 86309, Note_on_c, 1, 73, 127
1, 86591, Note_off_c, 12, 59, 127
1, 86591, Note_off_c, 5, 77, 127
1, 86591, Note_off_c, 8, 68, 127
1, 86595, Note_off_c, 1, 73, 127
1, 86597, Note_on_c, 6, 78, 127
1, 86597, Note_on_c, 1, 73, 127
1, 86597, Note_on_c, 12, 59, 127
1, 86597, Note_on_c, 1, 61, 127
1, 87171, Note_off_c, 12, 59, 127
1, 87173, Note_on_c, 11, 58, 127
1, 87459, Note_off_c, 1, 61, 127
1, 87461, Note_on_c, 2, 62, 127
1, 87747, Note_off_c, 2, 62, 127
1, 87747, Note_off_c, 6, 78, 127
1, 87749, Note_on_c, 6, 78, 127
1, 87749, Note_on_c, 4, 64, 127
1, 88322, Note_off_c, 1, 73, 127
1, 88324, Note_off_c, 6, 78, 127
1, 88324, Note_off_c, 11, 58, 127
1, 88326, Note_on_c, 12, 71, 127
1, 88326, Note_on_c, 12, 59, 127
1, 88614, Note_on_c, 7, 79, 127
1, 88756, Note_off_c, 7, 79, 127
1, 88758, Note_on_c, 10, 81, 127
1, 88900, Note_off_c, 10, 81, 127
1, 88900, Note_off_c, 4, 64, 127
1, 88902, Note_on_c, 7, 79, 127
1, 88902, Note_on_c, 3, 63, 127
1, 89188, Note_off_c, 3, 63, 127
1, 89188, Note_off_c, 7, 79, 127
1, 89188, Note_off_c, 12, 59, 127
1, 89190, Note_on_c, 10, 81, 127
1, 89190, Note_on_c, 4, 64, 127
1, 89190, Note_on_c, 1, 61, 127
1, 89332, Note_off_c, 10, 81, 127
1, 89334, Note_on_c, 12, 83, 127
1, 89475, Note_off_c, 1, 61, 127
1, 89475, Note_off_c, 4, 64, 127
1, 89477, Note_off_c, 12, 83, 127
1, 89479, Note_on_c, 7, 79, 127
1, 89479, Note_on_c, 6, 66, 127
1, 89479, Note_on_c, 2, 62, 127
1, 89765, Note_off_c, 7, 79, 127
1, 89767, Note_on_c, 6, 78, 127
1, 89909, Note_off_c, 6, 78, 127
1, 89911, Note_on_c, 5, 77, 127
1, 90049, Note_off_c, 2, 62, 127
1, 90049, Note_off_c, 6, 66, 127
1, 90053, Note_off_c, 5, 77, 127
1, 90055, Note_on_c, 8, 68, 127
1, 90055, Note_on_c, 8, 56, 127
1, 90055, Note_on_c, 5, 77, 127
1, 90622, Note_off_c, 12, 71, 127
1, 90630, Note_off_c, 5, 77, 127
1, 90630, Note_off_c, 8, 56, 127
1, 90630, Note_off_c, 8, 68, 127
1, 90632, Note_on_c, 6, 78, 127
1, 90632, Note_on_c, 1, 73, 127
1, 90632, Note_on_c, 6, 66, 127
1, 90632, Note_on_c, 10, 57, 127
1, 90918, Note_off_c, 6, 66, 127
1, 90920, Note_on_c, 4, 64, 127
1, 91202, Note_off_c, 10, 57, 127
1, 91206, Note_off_c, 4, 64, 127
1, 91208, Note_on_c, 2, 62, 127
1, 91208, Note_on_c, 12, 59, 127
1, 91352, Note_off_c, 1, 73, 127
1, 91352, Note_on_c, 12, 71, 127
1, 91494, Note_off_c, 12, 71, 127
1, 91496, Note_on_c, 10, 69, 127
1, 91638, Note_off_c, 10, 69, 127
1, 91640, Note_on_c, 8, 68, 127
1, 91778, Note_off_c, 12, 59, 127
1, 91778, Note_off_c, 2, 62, 127
1, 91782, Note_off_c, 8, 68, 127
1, 91784, Note_on_c, 1, 61, 127
1, 91784, Note_on_c, 10, 69, 127
1, 92070, Note_off_c, 10, 69, 127
1, 92072, Note_on_c, 12, 71, 127
1, 92214, Note_off_c, 12, 71, 127
1, 92216, Note_on_c, 1, 73, 127
1, 92357, Note_off_c, 6, 78, 127
1, 92359, Note_off_c, 1, 73, 127
1, 92361, Note_on_c, 1, 49, 127
1, 92361, Note_on_c, 8, 68, 127
1, 92649, Note_on_c, 8, 80, 127
1, 92935, Note_off_c, 8, 80, 127
1, 92935, Note_off_c, 1, 61, 127
1, 92937, Note_on_c, 12, 59, 127
1, 92937, Note_on_c, 5, 77, 127
1, 93223, Note_off_c, 8, 68, 127
1, 93225, Note_on_c, 12, 71, 127
1, 93476, Note_off_c, 5, 77, 127
1, 93507, Note_off_c, 12, 59, 127
1, 93511, Note_off_c, 12, 71, 127
1, 93511, Note_off_c, 1, 49, 127
1, 93513, Note_on_c, 4, 76, 127
1, 93513, Note_on_c, 6, 66, 127
1, 93513, Note_on_c, 11, 58, 127
1, 93513, Note_on_c, 6, 54, 127
1, 93799, Note_off_c, 11, 58, 127
1, 93801, Note_on_c, 12, 59, 127
1, 93943, Note_off_c, 12, 59, 127
1, 93945, Note_on_c, 1, 61, 127
1, 94083, Note_off_c, 6, 54, 127
1, 94087, Note_off_c, 1, 61, 127
1, 94089, Note_on_c, 12, 59, 127
1, 94089, Note_on_c, 8, 56, 127
1, 94375, Note_off_c, 12, 59, 127
1, 94377, Note_on_c, 2, 62, 127
1, 94519, Note_off_c, 2, 62, 127
1, 94521, Note_on_c, 1, 61, 127
1, 94659, Note_off_c, 8, 56, 127
1, 94663, Note_off_c, 1, 61, 127
1, 94665, Note_on_c, 1, 61, 127
1, 94665, Note_on_c, 11, 58, 127
1, 95235, Note_off_c, 11, 58, 127
1, 95241, Note_on_c, 12, 59, 127
1, 95385, Note_off_c, 1, 61, 127
1, 95808, Note_off_c, 6, 66, 127
1, 95808, Note_off_c, 4, 76, 127
1, 95816, Note_off_c, 12, 59, 127
1, 95818, Note_on_c, 2, 74, 127
1, 95818, Note_on_c, 12, 59, 127
1, 95818, Note_on_c, 12, 47, 127
1, 96104, Note_off_c, 12, 59, 127
1, 96104, Note_off_c, 2, 74, 127
1, 96106, Note_on_c, 4, 76, 127
1, 96106, Note_on_c, 10, 57, 127
1, 96248, Note_off_c, 4, 76, 127
1, 96250, Note_on_c, 1, 73, 127
1, 96391, Note_off_c, 10, 57, 127
1, 96393, Note_off_c, 1, 73, 127
1, 96395, Note_on_c, 2, 74, 127
1, 96395, Note_on_c, 12, 71, 127
1, 96395, Note_on_c, 7, 55, 127
1, 96680, Note_off_c, 7, 55, 127
1, 96682, Note_off_c, 12, 71, 127
1, 96684, Note_on_c, 6, 54, 127
1, 96684, Note_on_c, 1, 73, 127
1, 96826, Note_off_c, 1, 73, 127
1, 96828, Note_on_c, 10, 69, 127
1, 96969, Note_off_c, 6, 54, 127
1, 96971, Note_off_c, 10, 69, 127
1, 96971, Note_off_c, 12, 47, 127
1, 96973, Note_on_c, 8, 68, 127
1, 96973, Note_on_c, 1, 49, 127
1, 96973, Note_on_c, 5, 53, 127
1, 97547, Note_off_c, 2, 74, 127
1, 97549, Note_on_c, 1, 73, 127
1, 97783, Note_off_c, 5, 53, 127
1, 97835, Note_off_c, 1, 73, 127
1, 97835, Note_off_c, 1, 49, 127
1, 97835, Note_off_c, 8, 68, 127
1, 97837, Note_on_c, 8, 56, 127
1, 97837, Note_on_c, 6, 78, 127
1, 97837, Note_on_c, 12, 71, 127
1, 97837, Note_on_c, 1, 49, 127
1, 97979, Note_off_c, 6, 78, 127
1, 97981, Note_on_c, 5, 77, 127
1, 98122, Note_off_c, 1, 49, 127
1, 98122, Note_off_c, 12, 71, 127
1, 98122, Note_off_c, 8, 56, 127
1, 98124, Note_off_c, 5, 77, 127
1, 98126, Note_on_c, 6, 78, 127
1, 98126, Note_on_c, 10, 69, 127
1, 98126, Note_on_c, 6, 54, 127
1, 98126, Note_on_c, 2, 50, 127
1, 98556, Note_off_c, 6, 78, 127
1, 98558, Note_on_c, 4, 76, 127
1, 98696, Note_off_c, 2, 50, 127
1, 98696, Note_off_c, 6, 54, 127
1, 98696, Note_off_c, 10, 69, 127
1, 98700, Note_off_c, 4, 76, 127
1, 98702, Note_on_c, 2, 74, 127
1, 98702, Note_on_c, 12, 47, 127
1, 98844, Note_off_c, 2, 74, 127
1, 98846, Note_on_c, 1, 73, 127
1, 98988, Note_off_c, 1, 73, 127
1, 98990, Note_on_c, 12, 71, 127
1, 98990, Note_on_c, 2, 62, 127
1, 98990, Note_on_c, 6, 54, 127
1, 99132, Note_off_c, 12, 71, 127
1, 99134, Note_on_c, 10, 69, 127
1, 99204, Note_off_c, 10, 69, 127
1, 99206, Note_on_c, 8, 68, 127
1, 99272, Note_off_c, 12, 47, 127
1, 99275, Note_off_c, 2, 62, 127
1, 99277, Note_off_c, 8, 68, 127
1, 99279, Note_on_c, 10, 69, 127
1, 99279, Note_on_c, 1, 61, 127
1, 99279, Note_on_c, 1, 49, 127
1, 99561, Note_off_c, 6, 54, 127
1, 99567, Note_on_c, 8, 56, 127
1, 99609, Note_off_c, 10, 69, 127
1, 99711, Note_on_c, 12, 71, 127
1, 99849, Note_off_c, 1, 61, 127
1, 99852, Note_off_c, 8, 56, 127
1, 99854, Note_off_c, 12, 71, 127
1, 99856, Note_on_c, 8, 68, 127
1, 99856, Note_on_c, 12, 59, 127
1, 99856, Note_on_c, 5, 53, 127
1, 100142, Note_off_c, 8, 68, 127
1, 100144, Note_on_c, 6, 66, 127
1, 100297, Note_off_c, 6, 66, 127
1, 100297, Note_on_c, 8, 68, 127
1, 100426, Note_off_c, 5, 53, 127
1, 100426, Note_off_c, 12, 59, 127
1, 100430, Note_off_c, 1, 49, 127
1, 100456, Note_on_c, 6, 42, 127
1, 100456, Note_on_c, 6, 54, 127
1, 100456, Note_on_c, 11, 58, 127
1, 100456, Note_on_c, 6, 66, 127
1, 100458, Note_off_c, 8, 68, 127
1, 101030, Note_off_c, 11, 58, 127
1, 101030, Note_off_c, 6, 54, 127
1, 101030, Note_off_c, 6, 42, 127
1, 101548, Note_on_c, 6, 78, 127
1, 101624, Note_off_c, 6, 78, 127
1, 101624, Note_off_c, 6, 66, 127
1, 101626, Note_on_c, 7, 79, 127
1, 101702, Note_off_c, 7, 79, 127
1, 101704, Note_on_c, 6, 78, 127
1, 101782, Note_on_c, 4, 76, 127
1, 101785, Note_off_c, 6, 78, 127
1, 101859, Note_off_c, 4, 76, 127
1, 101861, Note_on_c, 2, 74, 127
1, 102003, Note_off_c, 2, 74, 127
1, 102005, Note_on_c, 4, 76, 127
1, 102075, Note_off_c, 4, 76, 127
1, 102083, Note_on_c, 1, 73, 127
1, 102153, Note_off_c, 1, 73, 127
1, 102161, Note_on_c, 6, 66, 127
1, 102161, Note_on_c, 6, 54, 127
1, 102161, Note_on_c, 2, 74, 127
1, 102161, Note_on_c, 10, 69, 127
1, 102446, Note_off_c, 6, 66, 127
1, 102449, Note_on_c, 4, 64, 127
1, 102519, Note_off_c, 2, 74, 127
1, 102593, Note_on_c, 4, 76, 127
1, 102663, Note_off_c, 4, 76, 127
1, 102665, Note_on_c, 6, 78, 127
1, 102731, Note_off_c, 10, 69, 127
1, 102734, Note_off_c, 4, 64, 127
1, 102736, Note_off_c, 6, 78, 127
1, 102738, Note_on_c, 3, 63, 127
1, 102738, Note_on_c, 8, 68, 127
1, 102738, Note_on_c, 0, 72, 127
1, 103600, Note_off_c, 0, 72, 127
1, 103662, Note_on_c, 1, 73, 127
1, 103698, Note_off_c, 8, 68, 127
1, 103698, Note_off_c, 3, 63, 127
1, 103732, Note_off_c, 1, 73, 127
1, 103742, Note_on_c, 3, 75, 127
1, 103812, Note_off_c, 3, 75, 127
1, 103820, Note_on_c, 1, 73, 127
1, 103902, Note_on_c, 3, 75, 127
1, 103914, Note_off_c, 1, 73, 127
1, 103930, Note_off_c, 6, 54, 127
1, 103963, Note_off_c, 3, 75, 127
1, 103963, Note_on_c, 0, 72, 127
1, 104020, Note_on_c, 1, 61, 127
1, 104020, Note_on_c, 1, 73, 127
1, 104020, Note_on_c, 5, 53, 127
1, 104024, Note_off_c, 0, 72, 127
1, 104594, Note_off_c, 5, 53, 127
1, 104596, Note_on_c, 4, 52, 127
1, 104740, Note_off_c, 1, 61, 127
1, 104740, Note_on_c, 12, 59, 127
1, 104820, Note_off_c, 12, 59, 127
1, 104824, Note_on_c, 10, 57, 127
1, 104904, Note_off_c, 10, 57, 127
1, 104908, Note_on_c, 10, 57, 127
1, 105050, Note_off_c, 10, 57, 127
1, 105052, Note_on_c, 8, 56, 127
1, 105122, Note_off_c, 8, 56, 127
1, 105124, Note_on_c, 6, 54, 127
1, 105166, Note_off_c, 4, 52, 127
1, 105194, Note_off_c, 6, 54, 127
1, 105196, Note_on_c, 10, 69, 127
1, 105196, Note_on_c, 3, 51, 127
1, 105196, Note_on_c, 6, 54, 127
1, 105482, Note_off_c, 6, 54, 127
1, 105484, Note_on_c, 8, 56, 127
1, 105616, Note_off_c, 10, 69, 127
1, 105626, Note_off_c, 8, 56, 127
1, 105628, Note_on_c, 8, 68, 127
1, 105628, Note_on_c, 10, 57, 127
1, 105714, Note_on_c, 10, 69, 127
1, 105723, Note_off_c, 8, 68, 127
1, 105779, Note_off_c, 1, 73, 127
1, 105795, Note_off_c, 10, 57, 127
1, 105797, Note_on_c, 2, 50, 127
1, 105797, Note_on_c, 8, 56, 127
1, 105797, Note_on_c, 12, 71, 127
1, 105799, Note_off_c, 3, 51, 127
1, 105803, Note_off_c, 10, 69, 127
1, 105941, Note_on_c, 5, 65, 127
1, 106082, Note_off_c, 8, 56, 127
1, 106085, Note_on_c, 10, 57, 127
1, 106226, Note_off_c, 5, 65, 127
1, 106228, Note_off_c, 10, 57, 127
1, 106230, Note_on_c, 6, 66, 127
1, 106230, Note_on_c, 6, 54, 127
1, 106372, Note_off_c, 6, 54, 127
1, 106396, Note_off_c, 6, 66, 127
1, 106398, Note_off_c, 12, 71, 127
1, 106398, Note_off_c, 2, 50, 127
1, 106401, Note_on_c, 1, 49, 127
1, 106401, Note_on_c, 8, 56, 127
1, 106401, Note_on_c, 6, 66, 127
1, 106401, Note_on_c, 1, 73, 127
1, 106767, Note_off_c, 6, 66, 127
1, 106827, Note_on_c, 5, 65, 127
1, 108001, Note_off_c, 8, 56, 127
1, 108001, Note_off_c, 1, 49, 127
1, 108049, Note_off_c, 5, 65, 127
1, 108101, Note_off_c, 1, 73, 127
1, 108565, Note_on_c, 1, 73, 127
1, 108799, Note_off_c, 1, 73, 127
1, 108843, Note_on_c, 2, 74, 127
1, 109116, Note_off_c, 2, 74, 127
1, 109117, Note_on_c, 1, 73, 127
1, 109390, Note_off_c, 1, 73, 127
1, 109391, Note_on_c, 12, 71, 127
1, 109664, Note_off_c, 12, 71, 127
1, 109665, Note_on_c, 10, 69, 127
1, 109938, Note_off_c, 10, 69, 127
1, 109939, Note_on_c, 8, 68, 127
1, 110212, Note_off_c, 8, 68, 127
1, 110213, Note_on_c, 6, 66, 127
1, 110486, Note_off_c, 6, 66, 127
1, 110487, Note_on_c, 5, 65, 127
1, 110760, Note_off_c, 5, 65, 127
1, 110761, Note_on_c, 3, 63, 127
1, 111034, Note_off_c, 3, 63, 127
1, 111035, Note_on_c, 1, 61, 127
1, 111308, Note_off_c, 1, 61, 127
1, 111309, Note_on_c, 10, 69, 127
1, 111582, Note_off_c, 10, 69, 127
1, 111583, Note_on_c, 10, 69, 127
1, 111652, Note_off_c, 10, 69, 127
1, 111652, Note_on_c, 8, 68, 127
1, 111721, Note_off_c, 8, 68, 127
1, 111721, Note_on_c, 10, 69, 127
1, 111790, Note_off_c, 10, 69, 127
1, 111790, Note_on_c, 8, 68, 127
1, 112133, Note_off_c, 8, 68, 127
1, 112133, Note_on_c, 6, 66, 127
1, 112406, Note_off_c, 6, 66, 127
1, 112407, Note_on_c, 6, 66, 127
1, 112543, Note_off_c, 6, 66, 127
1, 112544, Note_on_c, 8, 68, 127
1, 112680, Note_off_c, 8, 68, 127
1, 112681, Note_on_c, 10, 69, 127
1, 112817, Note_off_c, 10, 69, 127
1, 112818, Note_on_c, 8, 68, 127
1, 112954, Note_off_c, 8, 68, 127
1, 112955, Note_on_c, 6, 78, 127
1, 112955, Note_on_c, 10, 69, 127
1, 113091, Note_off_c, 10, 69, 127
1, 113092, Note_on_c, 8, 68, 127
1, 113228, Note_off_c, 8, 68, 127
1, 113228, Note_off_c, 6, 78, 127
1, 113229, Note_on_c, 10, 81, 127
1, 113229, Note_on_c, 6, 66, 127
1, 113365, Note_off_c, 6, 66, 127
1, 113366, Note_on_c, 4, 64, 127
1, 113502, Note_off_c, 4, 64, 127
1, 113502, Note_off_c, 10, 81, 127
1, 113503, Note_on_c, 8, 80, 127
1, 113503, Note_on_c, 6, 66, 127
1, 113639, Note_off_c, 6, 66, 127
1, 113640, Note_on_c, 4, 64, 127
1, 113776, Note_off_c, 4, 64, 127
1, 113776, Note_off_c, 8, 80, 127
1, 113777, Note_on_c, 6, 78, 127
1, 113777, Note_on_c, 3, 63, 127
1, 113913, Note_off_c, 3, 63, 127
1, 113914, Note_on_c, 1, 61, 127
1, 114050, Note_off_c, 1, 61, 127
1, 114050, Note_off_c, 6, 78, 127
1, 114051, Note_on_c, 4, 76, 127
1, 114051, Note_on_c, 3, 63, 127
1, 114187, Note_off_c, 3, 63, 127
1, 114188, Note_on_c, 1, 61, 127
1, 114324, Note_off_c, 1, 61, 127
1, 114324, Note_off_c, 4, 76, 127
1, 114325, Note_on_c, 3, 75, 127
1, 114325, Note_on_c, 0, 60, 127
1, 114461, Note_off_c, 0, 60, 127
1, 114462, Note_on_c, 11, 58, 127
1, 114598, Note_off_c, 11, 58, 127
1, 114598, Note_off_c, 3, 75, 127
1, 114599, Note_on_c, 1, 73, 127
1, 114599, Note_on_c, 0, 60, 127
1, 114735, Note_off_c, 0, 60, 127
1, 114736, Note_on_c, 11, 58, 127
1, 114872, Note_off_c, 11, 58, 127
1, 114872, Note_off_c, 1, 73, 127
1, 114873, Note_on_c, 0, 72, 127
1, 114873, Note_on_c, 8, 56, 127
1, 115009, Note_off_c, 8, 56, 127
1, 115010, Note_on_c, 6, 54, 127
1, 115146, Note_off_c, 6, 54, 127
1, 115146, Note_off_c, 0, 72, 127
1, 115147, Note_on_c, 11, 70, 127
1, 115147, Note_on_c, 8, 56, 127
1, 115283, Note_off_c, 8, 56, 127
1, 115284, Note_on_c, 6, 54, 127
1, 115420, Note_off_c, 6, 54, 127
1, 115420, Note_off_c, 11, 70, 127
1, 115421, Note_on_c, 8, 68, 127
1, 115421, Note_on_c, 4, 52, 127
1, 115557, Note_off_c, 4, 52, 127
1, 115558, Note_on_c, 3, 51, 127
1, 115694, Note_off_c, 3, 51, 127
1, 115694, Note_off_c, 8, 68, 127
1, 115695, Note_on_c, 4, 76, 127
1, 115695, Note_on_c, 4, 52, 127
1, 115831, Note_off_c, 4, 52, 127
1, 115832, Note_on_c, 1, 49, 127
1, 115968, Note_off_c, 1, 49, 127
1, 115968, Note_off_c, 4, 76, 127
1, 115969, Note_on_c, 4, 76, 127
1, 115969, Note_on_c, 6, 54, 127
1, 116038, Note_off_c, 4, 76, 127
1, 116038, Note_on_c, 3, 75, 127
1, 116107, Note_off_c, 3, 75, 127
1, 116107, Note_on_c, 4, 76, 127
1, 116176, Note_off_c, 4, 76, 127
1, 116176, Note_on_c, 3, 75, 127
1, 116243, Note_off_c, 6, 54, 127
1, 116244, Note_on_c, 8, 56, 127
1, 116517, Note_off_c, 8, 56, 127
1, 116518, Note_off_c, 3, 75, 127
1, 116518, Note_on_c, 1, 73, 127
1, 116518, Note_on_c, 1, 49, 127
1, 116791, Note_off_c, 1, 49, 127
1, 116792, Note_on_c, 1, 61, 127
1, 116928, Note_off_c, 1, 61, 127
1, 116929, Note_on_c, 3, 63, 127
1, 117065, Note_off_c, 3, 63, 127
1, 117065, Note_off_c, 1, 73, 127
1, 117066, Note_on_c, 1, 73, 127
1, 117066, Note_on_c, 5, 65, 127
1, 117202, Note_off_c, 5, 65, 127
1, 117203, Note_on_c, 6, 66, 127
1, 117339, Note_off_c, 6, 66, 127
1, 117339, Note_off_c, 1, 73, 127
1, 117340, Note_on_c, 3, 75, 127
1, 117340, Note_on_c, 5, 65, 127
1, 117476, Note_off_c, 5, 65, 127
1, 117477, Note_on_c, 6, 66, 127
1, 117613, Note_off_c, 6, 66, 127
1, 117613, Note_off_c, 3, 75, 127
1, 117614, Note_on_c, 5, 77, 127
1, 117614, Note_on_c, 8, 68, 127
1, 117750, Note_off_c, 8, 68, 127
1, 117751, Note_on_c, 10, 69, 127
1, 117887, Note_off_c, 10, 69, 127
1, 117887, Note_off_c, 5, 77, 127
1, 117888, Note_on_c, 6, 78, 127
1, 117888, Note_on_c, 8, 68, 127
1, 118024, Note_off_c, 8, 68, 127
1, 118025, Note_on_c, 10, 69, 127
1, 118161, Note_off_c, 10, 69, 127
1, 118161, Note_off_c, 6, 78, 127
1, 118162, Note_on_c, 8, 80, 127
1, 118162, Note_on_c, 12, 71, 127
1, 118298, Note_off_c, 12, 71, 127
1, 118299, Note_on_c, 1, 73, 127
1, 118435, Note_off_c, 1, 73, 127
1, 118436, Note_on_c, 12, 71, 127
1, 118572, Note_off_c, 12, 71, 127
1, 118573, Note_on_c, 1, 73, 127
1, 118709, Note_off_c, 1, 73, 127
1, 118710, Note_on_c, 2, 74, 127
1, 118817, Note_off_c, 8, 80, 127
1, 118847, Note_on_c, 6, 78, 127
1, 118983, Note_off_c, 6, 78, 127
1, 118984, Note_on_c, 8, 80, 127
1, 119120, Note_off_c, 8, 80, 127
1, 119121, Note_on_c, 10, 81, 127
1, 119257, Note_off_c, 10, 81, 127
1, 119258, Note_on_c, 12, 83, 127
1, 119394, Note_off_c, 12, 83, 127
1, 119395, Note_on_c, 10, 81, 127
1, 119531, Note_off_c, 10, 81, 127
1, 119531, Note_off_c, 2, 74, 127
1, 119532, Note_on_c, 12, 83, 127
1, 119532, Note_on_c, 1, 73, 127
1, 119668, Note_off_c, 12, 83, 127
1, 119669, Note_on_c, 10, 81, 127
1, 119805, Note_off_c, 10, 81, 127
1, 119805, Note_off_c, 1, 73, 127
1, 119806, Note_on_c, 8, 80, 127
1, 119806, Note_on_c, 12, 71, 127
1, 119942, Note_off_c, 12, 71, 127
1, 119942, Note_off_c, 8, 80, 127
1, 119943, Note_on_c, 10, 81, 127
1, 119943, Note_on_c, 10, 69, 127
1, 120079, Note_off_c, 10, 69, 127
1, 120079, Note_off_c, 10, 81, 127
1, 120080, Note_on_c, 6, 78, 127
1, 120080, Note_on_c, 12, 71, 127
1, 120216, Note_off_c, 12, 71, 127
1, 120217, Note_on_c, 10, 69, 127
1, 120353, Note_off_c, 10, 69, 127
1, 120354, Note_on_c, 8, 68, 127
1, 120490, Note_off_c, 8, 68, 127
1, 120491, Note_on_c, 1, 73, 127
1, 120627, Note_off_c, 1, 73, 127
1, 120627, Note_off_c, 6, 78, 127
1, 120628, Note_on_c, 5, 77, 127
1, 120628, Note_on_c, 12, 71, 127
1, 120764, Note_off_c, 12, 71, 127
1, 120765, Note_on_c, 1, 73, 127
1, 120901, Note_off_c, 1, 73, 127
1, 120901, Note_off_c, 5, 77, 127
1, 120902, Note_on_c, 6, 78, 127
1, 120902, Note_on_c, 10, 69, 127
1, 121038, Note_off_c, 10, 69, 127
1, 121039, Note_on_c, 8, 68, 127
1, 121175, Note_off_c, 8, 68, 127
1, 121175, Note_off_c, 6, 78, 127
1, 121176, Note_on_c, 6, 78, 127
1, 121176, Note_on_c, 10, 69, 127
1, 121312, Note_off_c, 10, 69, 127
1, 121312, Note_off_c, 6, 78, 127
1, 121313, Note_on_c, 8, 80, 127
1, 121313, Note_on_c, 8, 68, 127
1, 121449, Note_off_c, 8, 68, 127
1, 121449, Note_off_c, 8, 80, 127
1, 121450, Note_on_c, 10, 81, 127
1, 121450, Note_on_c, 6, 66, 127
1, 121586, Note_off_c, 10, 81, 127
1, 121587, Note_on_c, 8, 80, 127
1, 121723, Note_off_c, 8, 80, 127
1, 121723, Note_off_c, 6, 66, 127
1, 121724, Note_on_c, 10, 81, 127
1, 121724, Note_on_c, 6, 54, 127
1, 121860, Note_off_c, 10, 81, 127
1, 121861, Note_on_c, 8, 80, 127
1, 121997, Note_off_c, 8, 80, 127
1, 121997, Note_off_c, 6, 54, 127
1, 121998, Note_on_c, 6, 78, 127
1, 121998, Note_on_c, 1, 61, 127
1, 121998, Note_on_c, 10, 57, 127
1, 122134, Note_off_c, 6, 78, 127
1, 122135, Note_on_c, 4, 76, 127
1, 122271, Note_off_c, 4, 76, 127
1, 122271, Note_off_c, 10, 57, 127
1, 122271, Note_off_c, 1, 61, 127
1, 122272, Note_on_c, 6, 78, 127
1, 122272, Note_on_c, 12, 59, 127
1, 122272, Note_on_c, 8, 56, 127
1, 122408, Note_off_c, 6, 78, 127
1, 122409, Note_on_c, 4, 76, 127
1, 122545, Note_off_c, 4, 76, 127
1, 122545, Note_off_c, 8, 56, 127
1, 122545, Note_off_c, 12, 59, 127
1, 122546, Note_on_c, 3, 75, 127
1, 122546, Note_on_c, 10, 57, 127
1, 122546, Note_on_c, 6, 54, 127
1, 122682, Note_off_c, 3, 75, 127
1, 122683, Note_on_c, 1, 73, 127
1, 122819, Note_off_c, 1, 73, 127
1, 122819, Note_off_c, 6, 54, 127
1, 122819, Note_off_c, 10, 57, 127
1, 122820, Note_on_c, 3, 75, 127
1, 122820, Note_on_c, 8, 56, 127
1, 122820, Note_on_c, 4, 52, 127
1, 122956, Note_off_c, 3, 75, 127
1, 122957, Note_on_c, 1, 73, 127
1, 123093, Note_off_c, 1, 73, 127
1, 123093, Note_off_c, 4, 52, 127
1, 123093, Note_off_c, 8, 56, 127
1, 123094, Note_on_c, 0, 72, 127
1, 123094, Note_on_c, 6, 54, 127
1, 123094, Note_on_c, 3, 51, 127
1, 123230, Note_off_c, 0, 72, 127
1, 123231, Note_on_c, 1, 73, 127
1, 123367, Note_off_c, 1, 73, 127
1, 123367, Note_off_c, 3, 51, 127
1, 123368, Note_on_c, 0, 72, 127
1, 123368, Note_on_c, 1, 49, 127
1, 123504, Note_off_c, 0, 72, 127
1, 123505, Note_on_c, 1, 73, 127
1, 123641, Note_off_c, 1, 73, 127
1, 123641, Note_off_c, 1, 49, 127
1, 123642, Note_on_c, 3, 75, 127
1, 123642, Note_on_c, 0, 48, 127
1, 123778, Note_off_c, 3, 75, 127
1, 123779, Note_on_c, 4, 76, 127
1, 123915, Note_off_c, 4, 76, 127
1, 123915, Note_off_c, 0, 48, 127
1, 123915, Note_off_c, 6, 54, 127
1, 123916, Note_on_c, 3, 75, 127
1, 123916, Note_on_c, 1, 49, 127
1, 123916, Note_on_c, 11, 46, 127
1, 124052, Note_off_c, 3, 75, 127
1, 124053, Note_on_c, 4, 76, 127
1, 124189, Note_off_c, 4, 76, 127
1, 124189, Note_off_c, 11, 46, 127
1, 124189, Note_off_c, 1, 49, 127
1, 124190, Note_on_c, 6, 78, 127
1, 124190, Note_on_c, 0, 48, 127
1, 124190, Note_on_c, 8, 44, 127
1, 124326, Note_off_c, 6, 78, 127
1, 124327, Note_on_c, 0, 72, 127
1, 124463, Note_off_c, 0, 72, 127
1, 124463, Note_off_c, 8, 44, 127
1, 124463, Note_off_c, 0, 48, 127
1, 124464, Note_on_c, 1, 73, 127
1, 124464, Note_on_c, 8, 56, 127
1, 124464, Note_on_c, 4, 52, 127
1, 124600, Note_off_c, 8, 56, 127
1, 124601, Note_on_c, 10, 57, 127
1, 124737, Note_off_c, 10, 57, 127
1, 124737, Note_off_c, 4, 52, 127
1, 124738, Note_on_c, 8, 56, 127
1, 124738, Note_on_c, 3, 51, 127
1, 124874, Note_off_c, 8, 56, 127
1, 124875, Note_on_c, 10, 57, 127
1, 124906, Note_off_c, 1, 73, 127
1, 125010, Note_off_c, 10, 57, 127
1, 125011, Note_on_c, 12, 71, 127
1, 125011, Note_on_c, 5, 53, 127
1, 125147, Note_off_c, 5, 53, 127
1, 125148, Note_on_c, 6, 54, 127
1, 125284, Note_off_c, 6, 54, 127
1, 125284, Note_off_c, 3, 51, 127
1, 125285, Note_on_c, 1, 49, 127
1, 125285, Note_on_c, 5, 53, 127
1, 125421, Note_off_c, 1, 49, 127
1, 125422, Note_on_c, 1, 61, 127
1, 125558, Note_off_c, 5, 53, 127
1, 125558, Note_off_c, 12, 71, 127
1, 125559, Note_on_c, 10, 69, 127
1, 125559, Note_on_c, 6, 54, 127
1, 125695, Note_off_c, 1, 61, 127
1, 125696, Note_on_c, 1, 61, 127
1, 125832, Note_off_c, 1, 61, 127
1, 125832, Note_off_c, 6, 54, 127
1, 125833, Note_on_c, 2, 62, 127
1, 125833, Note_on_c, 12, 47, 127
1, 125969, Note_off_c, 2, 62, 127
1, 125970, Note_on_c, 1, 61, 127
1, 126106, Note_off_c, 1, 61, 127
1, 126106, Note_off_c, 12, 47, 127
1, 126106, Note_off_c, 10, 69, 127
1, 126107, Note_on_c, 8, 68, 127
1, 126107, Note_on_c, 2, 62, 127
1, 126107, Note_on_c, 4, 52, 127
1, 126243, Note_off_c, 2, 62, 127
1, 126244, Note_on_c, 12, 59, 127
1, 126380, Note_off_c, 12, 59, 127
1, 126380, Note_off_c, 4, 52, 127
1, 126381, Note_on_c, 1, 61, 127
1, 126381, Note_on_c, 10, 45, 127
1, 126517, Note_off_c, 1, 61, 127
1, 126518, Note_on_c, 12, 59, 127
1, 126654, Note_off_c, 12, 59, 127
1, 126654, Note_off_c, 10, 45, 127
1, 126654, Note_off_c, 8, 68, 127
1, 126655, Note_on_c, 6, 66, 127
1, 126655, Note_on_c, 1, 61, 127
1, 126655, Note_on_c, 2, 50, 127
1, 126791, Note_off_c, 1, 61, 127
1, 126792, Note_on_c, 10, 57, 127
1, 126928, Note_off_c, 10, 57, 127
1, 126928, Note_off_c, 2, 50, 127
1, 126929, Note_on_c, 12, 59, 127
1, 126929, Note_on_c, 8, 44, 127
1, 127065, Note_off_c, 12, 59, 127
1, 127066, Note_on_c, 10, 57, 127
1, 127202, Note_off_c, 10, 57, 127
1, 127202, Note_off_c, 8, 44, 127
1, 127202, Note_off_c, 6, 66, 127
1, 127203, Note_on_c, 5, 65, 127
1, 127203, Note_on_c, 12, 59, 127
1, 127203, Note_on_c, 1, 49, 127
1, 127339, Note_off_c, 12, 59, 127
1, 127340, Note_on_c, 8, 56, 127
1, 127446, Note_off_c, 5, 65, 127
1, 127476, Note_off_c, 8, 56, 127
1, 127476, Note_off_c, 1, 49, 127
1, 127477, Note_on_c, 6, 66, 127
1, 127477, Note_on_c, 10, 57, 127
1, 127477, Note_on_c, 6, 42, 127
1, 127613, Note_off_c, 10, 57, 127
1, 127614, Note_on_c, 1, 61, 127
1, 127750, Note_off_c, 1, 61, 127
1, 127751, Note_on_c, 12, 59, 127
1, 127887, Note_off_c, 12, 59, 127
1, 127888, Note_on_c, 1, 61, 127
1, 128019, Note_off_c, 6, 42, 127
1, 128019, Note_off_c, 6, 66, 127
1, 128023, Note_off_c, 1, 61, 127
1, 128024, Note_on_c, 2, 62, 127
1, 128161, Note_on_c, 10, 69, 127
1, 128161, Note_on_c, 6, 54, 127
1, 128297, Note_off_c, 6, 54, 127
1, 128297, Note_off_c, 10, 69, 127
1, 128298, Note_on_c, 8, 68, 127
1, 128298, Note_on_c, 4, 52, 127
1, 128434, Note_off_c, 4, 52, 127
1, 128434, Note_off_c, 8, 68, 127
1, 128435, Note_on_c, 10, 69, 127
1, 128435, Note_on_c, 6, 54, 127
1, 128571, Note_off_c, 6, 54, 127
1, 128571, Note_off_c, 10, 69, 127
1, 128572, Note_on_c, 12, 71, 127
1, 128572, Note_on_c, 8, 56, 127
1, 128708, Note_off_c, 2, 62, 127
1, 128709, Note_on_c, 3, 63, 127
1, 128845, Note_off_c, 3, 63, 127
1, 128846, Note_on_c, 1, 61, 127
1, 128982, Note_off_c, 1, 61, 127
1, 128983, Note_on_c, 3, 63, 127
1, 129114, Note_off_c, 8, 56, 127
1, 129118, Note_off_c, 3, 63, 127
1, 129119, Note_on_c, 4, 64, 127
1, 129170, Note_off_c, 12, 71, 127
1, 129256, Note_on_c, 12, 71, 127
1, 129256, Note_on_c, 8, 56, 127
1, 129392, Note_off_c, 8, 56, 127
1, 129392, Note_off_c, 12, 71, 127
1, 129393, Note_on_c, 10, 69, 127
1, 129393, Note_on_c, 6, 54, 127
1, 129529, Note_off_c, 6, 54, 127
1, 129529, Note_off_c, 10, 69, 127
1, 129530, Note_on_c, 12, 71, 127
1, 129530, Note_on_c, 8, 56, 127
1, 129666, Note_off_c, 8, 56, 127
1, 129666, Note_off_c, 12, 71, 127
1, 129667, Note_on_c, 1, 73, 127
1, 129667, Note_on_c, 10, 57, 127
1, 129803, Note_off_c, 4, 64, 127
1, 129804, Note_on_c, 5, 65, 127
1, 129940, Note_off_c, 5, 65, 127
1, 129941, Note_on_c, 3, 63, 127
1, 130077, Note_off_c, 3, 63, 127
1, 130078, Note_on_c, 5, 65, 127
1, 130209, Note_off_c, 10, 57, 127
1, 130213, Note_off_c, 5, 65, 127
1, 130214, Note_on_c, 6, 66, 127
1, 130294, Note_off_c, 1, 73, 127
1, 130351, Note_on_c, 1, 73, 127
1, 130351, Note_on_c, 10, 57, 127
1, 130487, Note_off_c, 10, 57, 127
1, 130487, Note_off_c, 1, 73, 127
1, 130488, Note_on_c, 12, 71, 127
1, 130488, Note_on_c, 8, 56, 127
1, 130624, Note_off_c, 8, 56, 127
1, 130624, Note_off_c, 12, 71, 127
1, 130625, Note_on_c, 1, 73, 127
1, 130625, Note_on_c, 11, 58, 127
1, 130761, Note_off_c, 11, 58, 127
1, 130761, Note_off_c, 1, 73, 127
1, 130762, Note_on_c, 2, 74, 127
1, 130762, Note_on_c, 12, 59, 127
1, 130898, Note_off_c, 6, 66, 127
1, 130899, Note_on_c, 6, 66, 127
1, 131035, Note_off_c, 6, 66, 127
1, 131036, Note_on_c, 5, 65, 127
1, 131172, Note_off_c, 5, 65, 127
1, 131173, Note_on_c, 6, 66, 127
1, 131304, Note_off_c, 12, 59, 127
1, 131308, Note_off_c, 6, 66, 127
1, 131309, Note_on_c, 8, 68, 127
1, 131446, Note_on_c, 12, 59, 127
1, 131560, Note_off_c, 2, 74, 127
1, 131581, Note_off_c, 12, 59, 127
1, 131581, Note_off_c, 8, 68, 127
1, 131582, Note_on_c, 2, 74, 127
1, 131582, Note_on_c, 6, 66, 127
1, 131582, Note_on_c, 10, 57, 127
1, 131718, Note_off_c, 10, 57, 127
1, 131719, Note_on_c, 12, 59, 127
1, 131855, Note_off_c, 12, 59, 127
1, 131855, Note_off_c, 6, 66, 127
1, 131856, Note_on_c, 5, 65, 127
1, 131856, Note_on_c, 1, 61, 127
1, 131992, Note_off_c, 2, 74, 127
1, 131993, Note_on_c, 1, 73, 127
1, 132129, Note_off_c, 1, 73, 127
1, 132129, Note_off_c, 1, 61, 127
1, 132130, Note_on_c, 12, 71, 127
1, 132130, Note_on_c, 1, 49, 127
1, 132266, Note_off_c, 12, 71, 127
1, 132267, Note_on_c, 1, 73, 127
1, 132383, Note_off_c, 1, 73, 127
1, 132403, Note_off_c, 1, 49, 127
1, 132403, Note_off_c, 5, 65, 127
1, 132404, Note_on_c, 10, 69, 127
1, 132404, Note_on_c, 6, 66, 127
1, 132404, Note_on_c, 2, 50, 127
1, 132540, Note_off_c, 2, 50, 127
1, 132541, Note_on_c, 1, 49, 127
1, 132614, Note_off_c, 6, 66, 127
1, 132614, Note_off_c, 10, 69, 127
1, 132677, Note_off_c, 1, 49, 127
1, 132678, Note_on_c, 1, 73, 127
1, 132678, Note_on_c, 11, 70, 127
1, 132678, Note_on_c, 2, 50, 127
1, 132814, Note_off_c, 2, 50, 127
1, 132815, Note_on_c, 1, 49, 127
1, 132951, Note_off_c, 1, 49, 127
1, 132951, Note_off_c, 11, 70, 127
1, 132951, Note_off_c, 1, 73, 127
1, 132952, Note_on_c, 2, 74, 127
1, 132952, Note_on_c, 12, 71, 127
1, 132952, Note_on_c, 12, 47, 127
1, 133088, Note_off_c, 12, 47, 127
1, 133089, Note_on_c, 10, 45, 127
1, 133225, Note_off_c, 10, 45, 127
1, 133225, Note_off_c, 12, 71, 127
1, 133225, Note_off_c, 2, 74, 127
1, 133226, Note_on_c, 1, 73, 127
1, 133226, Note_on_c, 6, 66, 127
1, 133226, Note_on_c, 12, 47, 127
1, 133362, Note_off_c, 12, 47, 127
1, 133363, Note_on_c, 10, 45, 127
1, 133499, Note_off_c, 10, 45, 127
1, 133499, Note_off_c, 6, 66, 127
1, 133499, Note_off_c, 1, 73, 127
1, 133500, Note_on_c, 12, 71, 127
1, 133500, Note_on_c, 5, 65, 127
1, 133500, Note_on_c, 8, 44, 127
1, 133636, Note_off_c, 8, 44, 127
1, 133637, Note_on_c, 6, 42, 127
1, 133773, Note_off_c, 6, 42, 127
1, 133773, Note_off_c, 5, 65, 127
1, 133773, Note_off_c, 12, 71, 127
1, 133774, Note_on_c, 10, 69, 127
1, 133774, Note_on_c, 1, 61, 127
1, 133774, Note_on_c, 8, 44, 127
1, 133910, Note_off_c, 8, 44, 127
1, 133911, Note_on_c, 6, 42, 127
1, 134047, Note_off_c, 6, 42, 127
1, 134047, Note_off_c, 1, 61, 127
1, 134047, Note_off_c, 10, 69, 127
1, 134048, Note_on_c, 8, 68, 127
1, 134048, Note_on_c, 12, 59, 127
1, 134048, Note_on_c, 5, 41, 127
1, 134184, Note_off_c, 5, 41, 127
1, 134185, Note_on_c, 6, 42, 127
1, 134321, Note_off_c, 6, 42, 127
1, 134321, Note_off_c, 12, 59, 127
1, 134321, Note_off_c, 8, 68, 127
1, 134322, Note_on_c, 6, 66, 127
1, 134322, Note_on_c, 10, 57, 127
1, 134322, Note_on_c, 5, 41, 127
1, 134458, Note_off_c, 5, 41, 127
1, 134459, Note_on_c, 6, 42, 127
1, 134595, Note_off_c, 6, 42, 127
1, 134595, Note_off_c, 10, 57, 127
1, 134595, Note_off_c, 6, 66, 127
1, 134596, Note_on_c, 5, 65, 127
1, 134596, Note_on_c, 8, 56, 127
1, 134596, Note_on_c, 8, 44, 127
1, 134732, Note_off_c, 8, 44, 127
1, 134733, Note_on_c, 10, 45, 127
1, 134869, Note_off_c, 10, 45, 127
1, 134869, Note_off_c, 8, 56, 127
1, 134869, Note_off_c, 5, 65, 127
1, 134870, Note_on_c, 3, 63, 127
1, 134870, Note_on_c, 6, 54, 127
1, 134870, Note_on_c, 8, 44, 127
1, 135006, Note_off_c, 8, 44, 127
1, 135007, Note_on_c, 10, 45, 127
1, 135143, Note_off_c, 10, 45, 127
1, 135143, Note_off_c, 6, 54, 127
1, 135143, Note_off_c, 3, 63, 127
1, 135144, Note_on_c, 1, 61, 127
1, 135144, Note_on_c, 5, 53, 127
1, 135144, Note_on_c, 12, 47, 127
1, 135280, Note_off_c, 12, 47, 127
1, 135281, Note_on_c, 1, 49, 127
1, 135417, Note_off_c, 1, 49, 127
1, 135417, Note_off_c, 5, 53, 127
1, 135417, Note_off_c, 1, 61, 127
1, 135418, Note_on_c, 10, 69, 127
1, 135418, Note_on_c, 6, 54, 127
1, 135418, Note_on_c, 10, 45, 127
1, 135554, Note_off_c, 10, 45, 127
1, 135555, Note_on_c, 12, 47, 127
1, 135691, Note_off_c, 12, 47, 127
1, 135691, Note_off_c, 10, 69, 127
1, 135692, Note_on_c, 10, 69, 127
1, 135692, Note_on_c, 1, 49, 127
1, 135783, Note_off_c, 10, 69, 127
1, 135794, Note_on_c, 8, 68, 127
1, 135827, Note_off_c, 6, 54, 127
1, 135828, Note_on_c, 5, 53, 127
1, 135885, Note_off_c, 8, 68, 127
1, 135885, Note_on_c, 10, 69, 127
1, 135964, Note_off_c, 5, 53, 127
1, 135965, Note_on_c, 3, 51, 127
1, 135976, Note_off_c, 10, 69, 127
1, 135976, Note_on_c, 8, 68, 127
1, 136100, Note_off_c, 3, 51, 127
1, 136101, Note_on_c, 5, 53, 127
1, 136237, Note_off_c, 5, 53, 127
1, 136237, Note_off_c, 8, 68, 127
1, 136237, Note_off_c, 1, 49, 127
1, 136238, Note_on_c, 6, 66, 127
1, 136238, Note_on_c, 6, 54, 127
1, 136238, Note_on_c, 2, 50, 127
1, 136509, Note_off_c, 6, 66, 127
1, 136510, Note_off_c, 2, 50, 127
1, 136510, Note_off_c, 6, 54, 127
1, 136511, Note_on_c, 6, 66, 127
1, 136511, Note_on_c, 2, 50, 127
1, 136648, Note_on_c, 10, 69, 127
1, 136784, Note_off_c, 6, 66, 127
1, 136785, Note_on_c, 8, 68, 127
1, 136819, Note_off_c, 10, 69, 127
1, 136922, Note_on_c, 12, 71, 127
1, 137058, Note_off_c, 8, 68, 127
1, 137058, Note_off_c, 2, 50, 127
1, 137059, Note_on_c, 11, 70, 127
1, 137059, Note_on_c, 1, 49, 127
1, 137093, Note_off_c, 12, 71, 127
1, 137196, Note_on_c, 1, 73, 127
1, 137332, Note_off_c, 1, 73, 127
1, 137332, Note_off_c, 1, 49, 127
1, 137332, Note_off_c, 11, 70, 127
1, 137333, Note_on_c, 2, 74, 127
1, 137333, Note_on_c, 12, 71, 127
1, 137333, Note_on_c, 12, 47, 127
1, 137604, Note_off_c, 12, 71, 127
1, 137605, Note_off_c, 12, 47, 127
1, 137605, Note_off_c, 2, 74, 127
1, 137606, Note_on_c, 12, 71, 127
1, 137606, Note_on_c, 12, 59, 127
1, 137743, Note_on_c, 2, 62, 127
1, 137879, Note_off_c, 12, 59, 127
1, 137880, Note_on_c, 1, 61, 127
1, 137914, Note_off_c, 2, 62, 127
1, 138017, Note_on_c, 4, 64, 127
1, 138153, Note_off_c, 1, 61, 127
1, 138153, Note_off_c, 12, 71, 127
1, 138154, Note_on_c, 10, 69, 127
1, 138154, Note_on_c, 3, 63, 127
1, 138188, Note_off_c, 4, 64, 127
1, 138291, Note_on_c, 6, 66, 127
1, 138427, Note_off_c, 6, 66, 127
1, 138427, Note_off_c, 3, 63, 127
1, 138427, Note_off_c, 10, 69, 127
1, 138428, Note_on_c, 10, 69, 127
1, 138428, Note_on_c, 4, 64, 127
1, 138564, Note_off_c, 10, 69, 127
1, 138565, Note_on_c, 8, 68, 127
1, 138694, Note_off_c, 8, 68, 127
1, 138701, Note_off_c, 4, 64, 127
1, 138702, Note_on_c, 8, 68, 127
1, 138702, Note_on_c, 4, 52, 127
1, 138839, Note_on_c, 12, 71, 127
1, 138975, Note_off_c, 8, 68, 127
1, 138976, Note_on_c, 10, 69, 127
1, 139010, Note_off_c, 12, 71, 127
1, 139113, Note_on_c, 1, 73, 127
1, 139249, Note_off_c, 10, 69, 127
1, 139249, Note_off_c, 4, 52, 127
1, 139250, Note_on_c, 12, 71, 127
1, 139250, Note_on_c, 2, 50, 127
1, 139284, Note_off_c, 1, 73, 127
1, 139387, Note_on_c, 2, 74, 127
1, 139523, Note_off_c, 2, 74, 127
1, 139523, Note_off_c, 2, 50, 127
1, 139523, Note_off_c, 12, 71, 127
1, 139524, Note_on_c, 4, 76, 127
1, 139524, Note_on_c, 1, 73, 127
1, 139524, Note_on_c, 1, 49, 127
1, 139795, Note_off_c, 1, 73, 127
1, 139796, Note_off_c, 1, 49, 127
1, 139796, Note_off_c, 4, 76, 127
1, 139797, Note_on_c, 1, 73, 127
1, 139797, Note_on_c, 1, 61, 127
1, 139934, Note_on_c, 4, 64, 127
1, 140070, Note_off_c, 1, 61, 127
1, 140071, Note_on_c, 3, 63, 127
1, 140105, Note_off_c, 4, 64, 127
1, 140208, Note_on_c, 6, 66, 127
1, 140344, Note_off_c, 3, 63, 127
1, 140344, Note_off_c, 1, 73, 127
1, 140345, Note_on_c, 12, 71, 127
1, 140345, Note_on_c, 5, 65, 127
1, 140379, Note_off_c, 6, 66, 127
1, 140482, Note_on_c, 8, 68, 127
1, 140618, Note_off_c, 8, 68, 127
1, 140618, Note_off_c, 5, 65, 127
1, 140618, Note_off_c, 12, 71, 127
1, 140619, Note_on_c, 12, 71, 127
1, 140619, Note_on_c, 6, 66, 127
1, 140755, Note_off_c, 12, 71, 127
1, 140756, Note_on_c, 10, 69, 127
1, 140885, Note_off_c, 10, 69, 127
1, 140892, Note_off_c, 6, 66, 127
1, 140893, Note_on_c, 10, 69, 127
1, 140893, Note_on_c, 6, 54, 127
1, 141030, Note_on_c, 1, 73, 127
1, 141166, Note_off_c, 10, 69, 127
1, 141167, Note_on_c, 12, 71, 127
1, 141201, Note_off_c, 1, 73, 127
1, 141304, Note_on_c, 2, 74, 127
1, 141440, Note_off_c, 12, 71, 127
1, 141440, Note_off_c, 6, 54, 127
1, 141441, Note_on_c, 1, 73, 127
1, 141441, Note_on_c, 4, 52, 127
1, 141475, Note_off_c, 2, 74, 127
1, 141578, Note_on_c, 4, 76, 127
1, 141714, Note_off_c, 4, 52, 127
1, 141714, Note_off_c, 1, 73, 127
1, 141715, Note_on_c, 2, 74, 127
1, 141715, Note_on_c, 2, 50, 127
1, 141749, Note_off_c, 4, 76, 127
1, 141852, Note_on_c, 6, 78, 127
1, 141988, Note_off_c, 2, 50, 127
1, 141988, Note_off_c, 2, 74, 127
1, 141989, Note_on_c, 10, 69, 127
1, 141989, Note_on_c, 2, 62, 127
1, 142123, Note_off_c, 6, 78, 127
1, 142126, Note_on_c, 6, 78, 127
1, 142262, Note_off_c, 10, 69, 127
1, 142263, Note_on_c, 12, 71, 127
1, 142297, Note_off_c, 6, 78, 127
1, 142400, Note_on_c, 8, 80, 127
1, 142536, Note_off_c, 12, 71, 127
1, 142536, Note_off_c, 2, 62, 127
1, 142537, Note_on_c, 1, 73, 127
1, 142537, Note_on_c, 1, 61, 127
1, 142571, Note_off_c, 8, 80, 127
1, 142674, Note_on_c, 11, 82, 127
1, 142810, Note_off_c, 1, 61, 127
1, 142810, Note_off_c, 1, 73, 127
1, 142811, Note_on_c, 2, 74, 127
1, 142811, Note_on_c, 12, 59, 127
1, 143082, Note_off_c, 2, 74, 127
1, 143083, Note_off_c, 12, 59, 127
1, 143083, Note_off_c, 11, 82, 127
1, 143084, Note_on_c, 12, 83, 127
1, 143084, Note_on_c, 12, 71, 127
1, 143221, Note_on_c, 2, 74, 127
1, 143357, Note_off_c, 12, 71, 127
1, 143358, Note_on_c, 1, 73, 127
1, 143392, Note_off_c, 2, 74, 127
1, 143495, Note_on_c, 4, 76, 127
1, 143631, Note_off_c, 1, 73, 127
1, 143631, Note_off_c, 12, 83, 127
1, 143632, Note_on_c, 10, 81, 127
1, 143632, Note_on_c, 3, 75, 127
1, 143666, Note_off_c, 4, 76, 127
1, 143769, Note_on_c, 6, 78, 127
1, 143905, Note_off_c, 6, 78, 127
1, 143905, Note_off_c, 3, 75, 127
1, 143905, Note_off_c, 10, 81, 127
1, 143906, Note_on_c, 8, 80, 127
1, 143906, Note_on_c, 4, 76, 127
1, 144043, Note_on_c, 2, 74, 127
1, 144177, Note_off_c, 4, 76, 127
1, 144178, Note_off_c, 2, 74, 127
1, 144179, Note_on_c, 1, 73, 127
1, 144316, Note_on_c, 10, 69, 127
1, 144452, Note_off_c, 10, 69, 127
1, 144452, Note_off_c, 8, 80, 127
1, 144453, Note_on_c, 6, 78, 127
1, 144453, Note_on_c, 2, 62, 127
1, 144589, Note_off_c, 6, 78, 127
1, 144590, Note_on_c, 4, 76, 127
1, 144724, Note_off_c, 2, 62, 127
1, 144725, Note_off_c, 4, 76, 127
1, 144725, Note_off_c, 1, 73, 127
1, 144726, Note_on_c, 6, 78, 127
1, 144726, Note_on_c, 12, 71, 127
1, 144862, Note_off_c, 6, 78, 127
1, 144863, Note_on_c, 2, 74, 127
1, 144863, Note_on_c, 8, 68, 127
1, 144999, Note_off_c, 8, 68, 127
1, 144999, Note_off_c, 2, 74, 127
1, 145000, Note_on_c, 4, 76, 127
1, 145000, Note_on_c, 1, 61, 127
1, 145136, Note_off_c, 4, 76, 127
1, 145137, Note_on_c, 2, 74, 127
1, 145271, Note_off_c, 1, 61, 127
1, 145272, Note_off_c, 2, 74, 127
1, 145272, Note_off_c, 12, 71, 127
1, 145273, Note_on_c, 4, 76, 127
1, 145273, Note_on_c, 10, 69, 127
1, 145409, Note_off_c, 4, 76, 127
1, 145410, Note_on_c, 1, 73, 127
1, 145410, Note_on_c, 6, 66, 127
1, 145546, Note_off_c, 6, 66, 127
1, 145546, Note_off_c, 1, 73, 127
1, 145547, Note_on_c, 2, 74, 127
1, 145547, Note_on_c, 12, 59, 127
1, 145683, Note_off_c, 2, 74, 127
1, 145684, Note_on_c, 1, 73, 127
1, 145818, Note_off_c, 12, 59, 127
1, 145819, Note_off_c, 1, 73, 127
1, 145819, Note_off_c, 10, 69, 127
1, 145820, Note_on_c, 2, 74, 127
1, 145820, Note_on_c, 8, 68, 127
1, 145956, Note_off_c, 2, 74, 127
1, 145957, Note_on_c, 4, 76, 127
1, 145957, Note_on_c, 4, 64, 127
1, 146093, Note_off_c, 4, 64, 127
1, 146093, Note_off_c, 4, 76, 127
1, 146093, Note_off_c, 8, 68, 127
1, 146094, Note_on_c, 1, 73, 127
1, 146094, Note_on_c, 10, 69, 127
1, 146094, Note_on_c, 6, 66, 127
1, 146230, Note_off_c, 10, 69, 127
1, 146231, Note_on_c, 8, 68, 127
1, 146367, Note_off_c, 8, 68, 127
1, 146367, Note_off_c, 6, 66, 127
1, 146368, Note_on_c, 10, 69, 127
1, 146368, Note_on_c, 4, 64, 127
1, 146504, Note_off_c, 10, 69, 127
1, 146504, Note_off_c, 1, 73, 127
1, 146505, Note_on_c, 1, 73, 127
1, 146505, Note_on_c, 8, 68, 127
1, 146641, Note_off_c, 1, 73, 127
1, 146641, Note_off_c, 4, 64, 127
1, 146642, Note_on_c, 6, 78, 127
1, 146642, Note_on_c, 3, 63, 127
1, 146778, Note_off_c, 6, 78, 127
1, 146779, Note_on_c, 4, 76, 127
1, 146915, Note_off_c, 4, 76, 127
1, 146915, Note_off_c, 3, 63, 127
1, 146915, Note_off_c, 8, 68, 127
1, 146916, Note_on_c, 6, 78, 127
1, 146916, Note_on_c, 10, 69, 127
1, 146916, Note_on_c, 1, 61, 127
1, 147052, Note_off_c, 6, 78, 127
1, 147053, Note_on_c, 4, 76, 127
1, 147189, Note_off_c, 4, 76, 127
1, 147189, Note_off_c, 1, 61, 127
1, 147189, Note_off_c, 10, 69, 127
1, 147190, Note_on_c, 2, 74, 127
1, 147190, Note_on_c, 8, 68, 127
1, 147190, Note_on_c, 12, 59, 127
1, 147326, Note_off_c, 2, 74, 127
1, 147327, Note_on_c, 1, 73, 127
1, 147463, Note_off_c, 1, 73, 127
1, 147463, Note_off_c, 12, 59, 127
1, 147463, Note_off_c, 8, 68, 127
1, 147464, Note_on_c, 2, 74, 127
1, 147464, Note_on_c, 10, 69, 127
1, 147464, Note_on_c, 10, 57, 127
1, 147600, Note_off_c, 2, 74, 127
1, 147601, Note_on_c, 1, 73, 127
1, 147737, Note_off_c, 1, 73, 127
1, 147737, Note_off_c, 10, 57, 127
1, 147737, Note_off_c, 10, 69, 127
1, 147738, Note_on_c, 12, 71, 127
1, 147738, Note_on_c, 4, 64, 127
1, 147738, Note_on_c, 8, 56, 127
1, 147874, Note_off_c, 12, 71, 127
1, 147875, Note_on_c, 10, 69, 127
1, 148011, Note_off_c, 10, 69, 127
1, 148011, Note_off_c, 8, 56, 127
1, 148011, Note_off_c, 4, 64, 127
1, 148012, Note_on_c, 12, 71, 127
1, 148012, Note_on_c, 2, 62, 127
1, 148012, Note_on_c, 6, 54, 127
1, 148148, Note_off_c, 12, 71, 127
1, 148149, Note_on_c, 10, 69, 127
1, 148285, Note_off_c, 10, 69, 127
1, 148285, Note_off_c, 6, 54, 127
1, 148286, Note_on_c, 8, 68, 127
1, 148286, Note_on_c, 4, 52, 127
1, 148422, Note_off_c, 8, 68, 127
1, 148422, Note_off_c, 2, 62, 127
1, 148423, Note_on_c, 2, 74, 127
1, 148423, Note_on_c, 8, 56, 127
1, 148559, Note_off_c, 8, 56, 127
1, 148559, Note_off_c, 2, 74, 127
1, 148559, Note_off_c, 4, 52, 127
1, 148560, Note_on_c, 1, 73, 127
1, 148560, Note_on_c, 10, 57, 127
1, 148560, Note_on_c, 6, 54, 127
1, 148696, Note_off_c, 1, 73, 127
1, 148697, Note_on_c, 12, 71, 127
1, 148833, Note_off_c, 12, 71, 127
1, 148833, Note_off_c, 6, 54, 127
1, 148834, Note_on_c, 1, 73, 127
1, 148834, Note_on_c, 2, 50, 127
1, 148903, Note_off_c, 1, 73, 127
1, 148903, Note_on_c, 12, 71, 127
1, 148972, Note_off_c, 12, 71, 127
1, 148972, Note_on_c, 1, 73, 127
1, 149041, Note_off_c, 1, 73, 127
1, 149041, Note_on_c, 12, 71, 127
1, 149108, Note_off_c, 2, 50, 127
1, 149109, Note_on_c, 4, 52, 127
1, 149240, Note_off_c, 12, 71, 127
1, 149244, Note_off_c, 10, 57, 127
1, 149245, Note_on_c, 10, 69, 127
1, 149245, Note_on_c, 8, 56, 127
1, 149381, Note_off_c, 8, 56, 127
1, 149381, Note_off_c, 10, 69, 127
1, 149381, Note_off_c, 4, 52, 127
1, 149382, Note_on_c, 10, 69, 127
1, 149382, Note_on_c, 10, 57, 127
1, 149382, Note_on_c, 10, 45, 127
1, 149518, Note_off_c, 10, 57, 127
1, 149521, Note_on_c, 1, 73, 127
1, 149657, Note_off_c, 1, 73, 127
1, 149668, Note_on_c, 12, 71, 127
1, 149804, Note_off_c, 12, 71, 127
1, 149809, Note_on_c, 1, 73, 127
1, 149924, Note_off_c, 10, 45, 127
1, 149944, Note_off_c, 1, 73, 127
1, 149945, Note_on_c, 6, 66, 127
1, 150065, Note_off_c, 10, 69, 127
1, 150082, Note_on_c, 3, 51, 127
1, 150082, Note_on_c, 6, 78, 127
1, 150218, Note_off_c, 6, 78, 127
1, 150218, Note_off_c, 3, 51, 127
1, 150219, Note_on_c, 1, 49, 127
1, 150219, Note_on_c, 4, 76, 127
1, 150355, Note_off_c, 4, 76, 127
1, 150355, Note_off_c, 1, 49, 127
1, 150356, Note_on_c, 3, 51, 127
1, 150356, Note_on_c, 6, 78, 127
1, 150492, Note_off_c, 6, 78, 127
1, 150492, Note_off_c, 3, 51, 127
1, 150493, Note_on_c, 8, 44, 127
1, 150493, Note_on_c, 0, 72, 127
1, 150629, Note_off_c, 6, 66, 127
1, 150630, Note_on_c, 8, 68, 127
1, 150766, Note_off_c, 8, 68, 127
1, 150767, Note_on_c, 6, 66, 127
1, 150903, Note_off_c, 6, 66, 127
1, 150904, Note_on_c, 8, 68, 127
1, 151035, Note_off_c, 8, 44, 127
1, 151039, Note_off_c, 8, 68, 127
1, 151040, Note_on_c, 1, 61, 127
1, 151176, Note_off_c, 0, 72, 127
1, 151177, Note_on_c, 10, 45, 127
1, 151177, Note_on_c, 1, 73, 127
1, 151313, Note_off_c, 1, 73, 127
1, 151313, Note_off_c, 10, 45, 127
1, 151314, Note_on_c, 8, 44, 127
1, 151314, Note_on_c, 12, 71, 127
1, 151450, Note_off_c, 12, 71, 127
1, 151450, Note_off_c, 8, 44, 127
1, 151451, Note_on_c, 10, 45, 127
1, 151451, Note_on_c, 1, 73, 127
1, 151587, Note_off_c, 1, 73, 127
1, 151587, Note_off_c, 10, 45, 127
1, 151588, Note_on_c, 6, 42, 127
1, 151588, Note_on_c, 10, 69, 127
1, 151724, Note_off_c, 1, 61, 127
1, 151725, Note_on_c, 6, 66, 127
1, 151861, Note_off_c, 6, 66, 127
1, 151862, Note_on_c, 4, 64, 127
1, 151998, Note_off_c, 4, 64, 127
1, 151999, Note_on_c, 6, 66, 127
1, 152130, Note_off_c, 6, 42, 127
1, 152134, Note_off_c, 6, 66, 127
1, 152135, Note_on_c, 3, 63, 127
1, 152271, Note_off_c, 10, 69, 127
1, 152272, Note_on_c, 8, 44, 127
1, 152272, Note_on_c, 12, 71, 127
1, 152408, Note_off_c, 12, 71, 127
1, 152408, Note_off_c, 8, 44, 127
1, 152409, Note_on_c, 6, 42, 127
1, 152409, Note_on_c, 10, 69, 127
1, 152545, Note_off_c, 10, 69, 127
1, 152545, Note_off_c, 6, 42, 127
1, 152546, Note_on_c, 8, 44, 127
1, 152546, Note_on_c, 12, 71, 127
1, 152682, Note_off_c, 12, 71, 127
1, 152682, Note_off_c, 8, 44, 127
1, 152683, Note_on_c, 4, 40, 127
1, 152683, Note_on_c, 8, 68, 127
1, 152819, Note_off_c, 3, 63, 127
1, 152820, Note_on_c, 4, 64, 127
1, 152956, Note_off_c, 4, 64, 127
1, 152957, Note_on_c, 3, 63, 127
1, 153093, Note_off_c, 3, 63, 127
1, 153094, Note_on_c, 4, 64, 127
1, 153225, Note_off_c, 4, 40, 127
1, 153229, Note_off_c, 4, 64, 127
1, 153230, Note_on_c, 1, 61, 127
1, 153366, Note_off_c, 8, 68, 127
1, 153367, Note_on_c, 10, 45, 127
1, 153367, Note_on_c, 1, 73, 127
1, 153503, Note_off_c, 1, 73, 127
1, 153503, Note_off_c, 10, 45, 127
1, 153504, Note_on_c, 8, 44, 127
1, 153504, Note_on_c, 12, 71, 127
1, 153640, Note_off_c, 12, 71, 127
1, 153640, Note_off_c, 8, 44, 127
1, 153641, Note_on_c, 10, 45, 127
1, 153641, Note_on_c, 1, 73, 127
1, 153777, Note_off_c, 1, 73, 127
1, 153777, Note_off_c, 10, 45, 127
1, 153778, Note_on_c, 3, 39, 127
1, 153778, Note_on_c, 6, 66, 127
1, 153914, Note_off_c, 1, 61, 127
1, 153915, Note_on_c, 3, 63, 127
1, 154051, Note_off_c, 3, 63, 127
1, 154052, Note_on_c, 1, 61, 127
1, 154188, Note_off_c, 1, 61, 127
1, 154189, Note_on_c, 3, 63, 127
1, 154320, Note_off_c, 3, 39, 127
1, 154324, Note_off_c, 3, 63, 127
1, 154325, Note_on_c, 0, 60, 127
1, 154461, Note_off_c, 6, 66, 127
1, 154462, Note_on_c, 8, 44, 127
1, 154462, Note_on_c, 3, 63, 127
1, 154598, Note_off_c, 3, 63, 127
1, 154598, Note_off_c, 8, 44, 127
1, 154599, Note_on_c, 6, 42, 127
1, 154599, Note_on_c, 8, 68, 127
1, 154735, Note_off_c, 8, 68, 127
1, 154735, Note_off_c, 6, 42, 127
1, 154736, Note_on_c, 8, 44, 127
1, 154736, Note_on_c, 3, 63, 127
1, 154872, Note_off_c, 3, 63, 127
1, 154872, Note_off_c, 8, 44, 127
1, 154872, Note_off_c, 0, 60, 127
1, 154873, Note_on_c, 1, 37, 127
1, 154873, Note_on_c, 1, 61, 127
1, 154873, Note_on_c, 4, 64, 127
1, 155009, Note_off_c, 1, 37, 127
1, 155010, Note_on_c, 8, 56, 127
1, 155146, Note_off_c, 8, 56, 127
1, 155146, Note_off_c, 4, 64, 127
1, 155147, Note_on_c, 6, 54, 127
1, 155147, Note_on_c, 4, 76, 127
1, 155283, Note_off_c, 6, 54, 127
1, 155284, Note_on_c, 8, 56, 127
1, 155420, Note_off_c, 8, 56, 127
1, 155420, Note_off_c, 4, 76, 127
1, 155421, Note_on_c, 10, 57, 127
1, 155421, Note_on_c, 6, 78, 127
1, 155557, Note_off_c, 10, 57, 127
1, 155558, Note_on_c, 8, 56, 127
1, 155694, Note_off_c, 8, 56, 127
1, 155694, Note_off_c, 6, 78, 127
1, 155694, Note_off_c, 1, 61, 127
1, 155695, Note_on_c, 10, 57, 127
1, 155695, Note_on_c, 4, 76, 127
1, 155695, Note_on_c, 8, 80, 127
1, 155831, Note_off_c, 10, 57, 127
1, 155832, Note_on_c, 8, 56, 127
1, 155968, Note_off_c, 8, 56, 127
1, 155968, Note_off_c, 8, 80, 127
1, 155968, Note_off_c, 4, 76, 127
1, 155969, Note_on_c, 6, 54, 127
1, 155969, Note_on_c, 3, 75, 127
1, 155969, Note_on_c, 10, 81, 127
1, 156105, Note_off_c, 6, 54, 127
1, 156106, Note_on_c, 4, 52, 127
1, 156242, Note_off_c, 4, 52, 127
1, 156242, Note_off_c, 10, 81, 127
1, 156242, Note_off_c, 3, 75, 127
1, 156243, Note_on_c, 6, 54, 127
1, 156243, Note_on_c, 4, 76, 127
1, 156243, Note_on_c, 8, 80, 127
1, 156379, Note_off_c, 6, 54, 127
1, 156380, Note_on_c, 4, 52, 127
1, 156516, Note_off_c, 4, 52, 127
1, 156516, Note_off_c, 8, 80, 127
1, 156516, Note_off_c, 4, 76, 127
1, 156517, Note_on_c, 3, 51, 127
1, 156517, Note_on_c, 0, 72, 127
1, 156517, Note_on_c, 6, 78, 127
1, 156653, Note_off_c, 3, 51, 127
1, 156654, Note_on_c, 1, 49, 127
1, 156790, Note_off_c, 1, 49, 127
1, 156790, Note_off_c, 6, 78, 127
1, 156790, Note_off_c, 0, 72, 127
1, 156791, Note_on_c, 3, 51, 127
1, 156791, Note_on_c, 8, 68, 127
1, 156791, Note_on_c, 4, 76, 127
1, 156927, Note_off_c, 3, 51, 127
1, 156928, Note_on_c, 1, 49, 127
1, 157064, Note_off_c, 1, 49, 127
1, 157064, Note_off_c, 4, 76, 127
1, 157064, Note_off_c, 8, 68, 127
1, 157065, Note_on_c, 0, 48, 127
1, 157065, Note_on_c, 6, 66, 127
1, 157065, Note_on_c, 3, 75, 127
1, 157201, Note_off_c, 0, 48, 127
1, 157202, Note_on_c, 1, 49, 127
1, 157338, Note_off_c, 1, 49, 127
1, 157338, Note_off_c, 3, 75, 127
1, 157338, Note_off_c, 6, 66, 127
1, 157339, Note_on_c, 0, 48, 127
1, 157339, Note_on_c, 4, 64, 127
1, 157339, Note_on_c, 1, 73, 127
1, 157475, Note_off_c, 0, 48, 127
1, 157476, Note_on_c, 1, 49, 127
1, 157612, Note_off_c, 1, 49, 127
1, 157612, Note_off_c, 1, 73, 127
1, 157612, Note_off_c, 4, 64, 127
1, 157613, Note_on_c, 3, 51, 127
1, 157613, Note_on_c, 3, 63, 127
1, 157613, Note_on_c, 0, 72, 127
1, 157749, Note_off_c, 3, 51, 127
1, 157750, Note_on_c, 4, 52, 127
1, 157886, Note_off_c, 4, 52, 127
1, 157886, Note_off_c, 0, 72, 127
1, 157886, Note_off_c, 3, 63, 127
1, 157887, Note_on_c, 3, 51, 127
1, 157887, Note_on_c, 1, 61, 127
1, 157887, Note_on_c, 11, 70, 127
1, 158023, Note_off_c, 3, 51, 127
1, 158024, Note_on_c, 4, 52, 127
1, 158160, Note_off_c, 4, 52, 127
1, 158160, Note_off_c, 11, 70, 127
1, 158160, Note_off_c, 1, 61, 127
1, 158161, Note_on_c, 6, 54, 127
1, 158161, Note_on_c, 0, 60, 127
1, 158161, Note_on_c, 8, 68, 127
1, 158297, Note_off_c, 6, 54, 127
1, 158298, Note_on_c, 8, 56, 127
1, 158434, Note_off_c, 8, 56, 127
1, 158434, Note_off_c, 8, 68, 127
1, 158434, Note_off_c, 0, 60, 127
1, 158435, Note_on_c, 4, 52, 127
1, 158435, Note_on_c, 1, 61, 127
1, 158435, Note_on_c, 4, 76, 127
1, 158571, Note_off_c, 4, 52, 127
1, 158572, Note_on_c, 6, 54, 127
1, 158708, Note_off_c, 6, 54, 127
1, 158708, Note_off_c, 4, 76, 127
1, 158709, Note_on_c, 8, 56, 127
1, 158709, Note_on_c, 4, 76, 127
1, 158800, Note_off_c, 4, 76, 127
1, 158811, Note_on_c, 3, 75, 127
1, 158844, Note_off_c, 1, 61, 127
1, 158845, Note_on_c, 0, 60, 127
1, 158902, Note_off_c, 3, 75, 127
1, 158902, Note_on_c, 4, 76, 127
1, 158981, Note_off_c, 0, 60, 127
1, 158982, Note_on_c, 11, 58, 127
1, 158993, Note_off_c, 4, 76, 127
1, 158993, Note_on_c, 3, 75, 127
1, 159117, Note_off_c, 11, 58, 127
1, 159118, Note_on_c, 0, 60, 127
1, 159192, Note_off_c, 3, 75, 127
1, 159253, Note_off_c, 0, 60, 127
1, 159253, Note_off_c, 8, 56, 127
1, 159254, Note_on_c, 1, 49, 127
1, 159254, Note_on_c, 1, 61, 127
1, 159391, Note_on_c, 8, 68, 127
1, 159527, Note_off_c, 8, 68, 127
1, 159528, Note_on_c, 6, 66, 127
1, 159664, Note_off_c, 6, 66, 127
1, 159665, Note_on_c, 8, 68, 127
1, 159796, Note_off_c, 1, 61, 127
1, 159796, Note_off_c, 1, 49, 127
1, 159800, Note_off_c, 8, 68, 127
1, 159801, Note_on_c, 10, 69, 127
1, 159938, Note_on_c, 1, 61, 127
1, 159938, Note_on_c, 8, 68, 127
1, 159949, Note_off_c, 10, 69, 127
1, 160073, Note_off_c, 8, 68, 127
1, 160073, Note_off_c, 1, 61, 127
1, 160074, Note_on_c, 12, 59, 127
1, 160074, Note_on_c, 10, 69, 127
1, 160210, Note_off_c, 12, 59, 127
1, 160211, Note_on_c, 1, 61, 127
1, 160211, Note_on_c, 8, 68, 127
1, 160224, Note_off_c, 10, 69, 127
1, 160347, Note_off_c, 8, 68, 127
1, 160347, Note_off_c, 1, 61, 127
1, 160348, Note_on_c, 2, 62, 127
1, 160348, Note_on_c, 6, 66, 127
1, 160484, Note_off_c, 2, 62, 127
1, 160485, Note_on_c, 1, 61, 127
1, 160485, Note_on_c, 6, 78, 127
1, 160619, Note_off_c, 6, 66, 127
1, 160620, Note_off_c, 6, 78, 127
1, 160620, Note_off_c, 1, 61, 127
1, 160621, Note_on_c, 2, 62, 127
1, 160621, Note_on_c, 5, 77, 127
1, 160757, Note_off_c, 5, 77, 127
1, 160757, Note_off_c, 2, 62, 127
1, 160758, Note_on_c, 1, 61, 127
1, 160758, Note_on_c, 6, 78, 127
1, 160894, Note_off_c, 6, 78, 127
1, 160894, Note_off_c, 1, 61, 127
1, 160895, Note_on_c, 12, 59, 127
1, 160895, Note_on_c, 7, 79, 127
1, 161031, Note_off_c, 7, 79, 127
1, 161031, Note_off_c, 12, 59, 127
1, 161032, Note_on_c, 12, 59, 127
1, 161032, Note_on_c, 6, 78, 127
1, 161168, Note_off_c, 6, 78, 127
1, 161168, Note_off_c, 12, 59, 127
1, 161169, Note_on_c, 10, 57, 127
1, 161169, Note_on_c, 7, 79, 127
1, 161305, Note_off_c, 7, 79, 127
1, 161305, Note_off_c, 10, 57, 127
1, 161306, Note_on_c, 12, 59, 127
1, 161306, Note_on_c, 6, 78, 127
1, 161442, Note_off_c, 6, 78, 127
1, 161442, Note_off_c, 12, 59, 127
1, 161443, Note_on_c, 1, 61, 127
1, 161443, Note_on_c, 4, 76, 127
1, 161579, Note_off_c, 1, 61, 127
1, 161580, Note_on_c, 12, 59, 127
1, 161580, Note_on_c, 8, 68, 127
1, 161714, Note_off_c, 4, 76, 127
1, 161715, Note_off_c, 8, 68, 127
1, 161715, Note_off_c, 12, 59, 127
1, 161716, Note_on_c, 1, 61, 127
1, 161716, Note_on_c, 6, 66, 127
1, 161716, Note_on_c, 3, 75, 127
1, 161852, Note_off_c, 3, 75, 127
1, 161852, Note_off_c, 6, 66, 127
1, 161852, Note_off_c, 1, 61, 127
1, 161853, Note_on_c, 12, 59, 127
1, 161853, Note_on_c, 8, 68, 127
1, 161853, Note_on_c, 4, 76, 127
1, 161989, Note_off_c, 4, 76, 127
1, 161989, Note_off_c, 8, 68, 127
1, 161989, Note_off_c, 12, 59, 127
1, 161990, Note_on_c, 10, 57, 127
1, 161990, Note_on_c, 10, 69, 127
1, 161990, Note_on_c, 6, 78, 127
1, 162126, Note_off_c, 6, 78, 127
1, 162126, Note_off_c, 10, 69, 127
1, 162126, Note_off_c, 10, 57, 127
1, 162127, Note_on_c, 10, 57, 127
1, 162127, Note_on_c, 8, 68, 127
1, 162127, Note_on_c, 4, 76, 127
1, 162263, Note_off_c, 4, 76, 127
1, 162263, Note_off_c, 8, 68, 127
1, 162263, Note_off_c, 10, 57, 127
1, 162264, Note_on_c, 8, 56, 127
1, 162264, Note_on_c, 10, 69, 127
1, 162264, Note_on_c, 6, 78, 127
1, 162400, Note_off_c, 6, 78, 127
1, 162400, Note_off_c, 10, 69, 127
1, 162400, Note_off_c, 8, 56, 127
1, 162401, Note_on_c, 10, 57, 127
1, 162401, Note_on_c, 8, 68, 127
1, 162401, Note_on_c, 4, 76, 127
1, 162537, Note_off_c, 4, 76, 127
1, 162537, Note_off_c, 8, 68, 127
1, 162537, Note_off_c, 10, 57, 127
1, 162538, Note_on_c, 12, 59, 127
1, 162538, Note_on_c, 6, 66, 127
1, 162538, Note_on_c, 2, 74, 127
1, 162674, Note_off_c, 12, 59, 127
1, 162675, Note_on_c, 10, 57, 127
1, 162781, Note_off_c, 6, 66, 127
1, 162811, Note_off_c, 10, 57, 127
1, 162811, Note_off_c, 2, 74, 127
1, 162812, Note_on_c, 8, 56, 127
1, 162812, Note_on_c, 12, 71, 127
1, 162948, Note_off_c, 8, 56, 127
1, 162949, Note_on_c, 6, 54, 127
1, 163085, Note_off_c, 6, 54, 127
1, 163086, Note_on_c, 5, 53, 127
1, 163086, Note_on_c, 1, 73, 127
1, 163222, Note_off_c, 5, 53, 127
1, 163223, Note_on_c, 8, 56, 127
1, 163359, Note_off_c, 8, 56, 127
1, 163359, Note_off_c, 12, 71, 127
1, 163360, Note_on_c, 6, 54, 127
1, 163360, Note_on_c, 10, 69, 127
1, 163496, Note_off_c, 6, 54, 127
1, 163497, Note_on_c, 10, 57, 127
1, 163633, Note_off_c, 10, 57, 127
1, 163633, Note_off_c, 1, 73, 127
1, 163634, Note_on_c, 3, 51, 127
1, 163634, Note_on_c, 12, 71, 127
1, 163770, Note_off_c, 3, 51, 127
1, 163771, Note_on_c, 6, 54, 127
1, 163907, Note_off_c, 6, 54, 127
1, 163907, Note_off_c, 10, 69, 127
1, 163908, Note_on_c, 4, 52, 127
1, 163908, Note_on_c, 8, 68, 127
1, 164044, Note_off_c, 4, 52, 127
1, 164045, Note_on_c, 8, 56, 127
1, 164181, Note_off_c, 8, 56, 127
1, 164181, Note_off_c, 12, 71, 127
1, 164182, Note_on_c, 6, 54, 127
1, 164182, Note_on_c, 10, 69, 127
1, 164318, Note_off_c, 6, 54, 127
1, 164319, Note_on_c, 4, 52, 127
1, 164455, Note_off_c, 4, 52, 127
1, 164455, Note_off_c, 8, 68, 127
1, 164456, Note_on_c, 2, 50, 127
1, 164456, Note_on_c, 6, 66, 127
1, 164592, Note_off_c, 2, 50, 127
1, 164593, Note_on_c, 1, 49, 127
1, 164729, Note_off_c, 1, 49, 127
1, 164729, Note_off_c, 10, 69, 127
1, 164730, Note_on_c, 12, 47, 127
1, 164730, Note_on_c, 8, 68, 127
1, 164866, Note_off_c, 12, 47, 127
1, 164867, Note_on_c, 2, 50, 127
1, 165003, Note_off_c, 2, 50, 127
1, 165003, Note_off_c, 6, 66, 127
1, 165004, Note_on_c, 1, 49, 127
1, 165004, Note_on_c, 6, 66, 127
1, 165140, Note_off_c, 1, 49, 127
1, 165141, Note_on_c, 12, 47, 127
1, 165272, Note_off_c, 8, 68, 127
1, 165276, Note_off_c, 12, 47, 127
1, 165276, Note_off_c, 6, 66, 127
1, 165276, Note_on_c, 5, 65, 127
1, 165277, Note_on_c, 1, 49, 127
1, 165413, Note_off_c, 1, 49, 127
1, 165414, Note_on_c, 12, 47, 127
1, 165475, Note_off_c, 5, 65, 127
1, 165549, Note_off_c, 12, 47, 127
1, 165550, Note_on_c, 1, 49, 127
1, 165550, Note_on_c, 1, 73, 127
1, 165823, Note_off_c, 1, 73, 127
1, 165823, Note_off_c, 1, 49, 127
1, 165824, Note_on_c, 6, 42, 127
1, 165824, Note_on_c, 6, 66, 127
1, 165824, Note_on_c, 2, 74, 127
1, 166095, Note_off_c, 6, 42, 127
1, 166096, Note_off_c, 2, 74, 127
1, 166097, Note_on_c, 1, 73, 127
1, 166223, Note_off_c, 6, 66, 127
1, 166234, Note_on_c, 1, 61, 127
1, 166370, Note_off_c, 1, 61, 127
1, 166370, Note_off_c, 1, 73, 127
1, 166371, Note_on_c, 2, 62, 127
1, 166371, Note_on_c, 12, 71, 127
1, 166507, Note_off_c, 2, 62, 127
1, 166508, Note_on_c, 1, 61, 127
1, 166644, Note_off_c, 1, 61, 127
1, 166644, Note_off_c, 12, 71, 127
1, 166645, Note_on_c, 2, 62, 127
1, 166645, Note_on_c, 10, 69, 127
1, 166781, Note_off_c, 2, 62, 127
1, 166782, Note_on_c, 1, 61, 127
1, 166918, Note_off_c, 1, 61, 127
1, 166918, Note_off_c, 10, 69, 127
1, 166919, Note_on_c, 12, 59, 127
1, 166919, Note_on_c, 8, 68, 127
1, 167055, Note_off_c, 12, 59, 127
1, 167056, Note_on_c, 10, 57, 127
1, 167192, Note_off_c, 10, 57, 127
1, 167192, Note_off_c, 8, 68, 127
1, 167193, Note_on_c, 12, 59, 127
1, 167193, Note_on_c, 6, 66, 127
1, 167329, Note_off_c, 12, 59, 127
1, 167330, Note_on_c, 10, 57, 127
1, 167466, Note_off_c, 10, 57, 127
1, 167466, Note_off_c, 6, 66, 127
1, 167467, Note_on_c, 8, 56, 127
1, 167467, Note_on_c, 5, 65, 127
1, 167603, Note_off_c, 8, 56, 127
1, 167604, Note_on_c, 6, 54, 127
1, 167740, Note_off_c, 6, 54, 127
1, 167740, Note_off_c, 5, 65, 127
1, 167741, Note_on_c, 8, 56, 127
1, 167741, Note_on_c, 3, 63, 127
1, 167877, Note_off_c, 8, 56, 127
1, 167878, Note_on_c, 6, 54, 127
1, 168014, Note_off_c, 6, 54, 127
1, 168014, Note_off_c, 3, 63, 127
1, 168015, Note_on_c, 5, 53, 127
1, 168015, Note_on_c, 1, 61, 127
1, 168151, Note_off_c, 5, 53, 127
1, 168152, Note_on_c, 1, 49, 127
1, 168288, Note_off_c, 1, 49, 127
1, 168288, Note_off_c, 1, 61, 127
1, 168289, Note_on_c, 6, 54, 127
1, 168289, Note_on_c, 10, 69, 127
1, 168562, Note_off_c, 10, 69, 127
1, 168563, Note_on_c, 10, 69, 127
1, 168632, Note_off_c, 10, 69, 127
1, 168643, Note_on_c, 8, 68, 127
1, 168699, Note_off_c, 6, 54, 127
1, 168700, Note_on_c, 5, 53, 127
1, 168711, Note_off_c, 8, 68, 127
1, 168711, Note_on_c, 10, 69, 127
1, 168780, Note_off_c, 10, 69, 127
1, 168780, Note_on_c, 8, 68, 127
1, 168836, Note_off_c, 5, 53, 127
1, 168837, Note_on_c, 6, 54, 127
1, 168973, Note_off_c, 6, 54, 127
1, 168974, Note_on_c, 8, 56, 127
1, 169051, Note_off_c, 8, 68, 127
1, 169110, Note_off_c, 8, 56, 127
1, 169111, Note_on_c, 10, 57, 127
1, 169248, Note_on_c, 6, 66, 127
1, 169384, Note_off_c, 6, 66, 127
1, 169385, Note_on_c, 8, 68, 127
1, 169521, Note_off_c, 8, 68, 127
1, 169522, Note_on_c, 10, 69, 127
1, 169658, Note_off_c, 10, 69, 127
1, 169659, Note_on_c, 12, 71, 127
1, 169725, Note_off_c, 10, 57, 127
1, 169796, Note_on_c, 8, 56, 127
1, 169932, Note_off_c, 8, 56, 127
1, 169933, Note_on_c, 10, 57, 127
1, 170069, Note_off_c, 10, 57, 127
1, 170070, Note_on_c, 12, 59, 127
1, 170206, Note_off_c, 12, 59, 127
1, 170207, Note_on_c, 1, 61, 127
1, 170287, Note_off_c, 12, 71, 127
1, 170344, Note_on_c, 10, 69, 127
1, 170480, Note_off_c, 10, 69, 127
1, 170481, Note_on_c, 12, 71, 127
1, 170617, Note_off_c, 12, 71, 127
1, 170618, Note_on_c, 1, 73, 127
1, 170754, Note_off_c, 1, 73, 127
1, 170755, Note_on_c, 2, 74, 127
1, 170849, Note_off_c, 1, 61, 127
1, 170892, Note_on_c, 12, 59, 127
1, 171028, Note_off_c, 12, 59, 127
1, 171029, Note_on_c, 1, 61, 127
1, 171165, Note_off_c, 1, 61, 127
1, 171166, Note_on_c, 2, 62, 127
1, 171302, Note_off_c, 2, 62, 127
1, 171303, Note_on_c, 4, 64, 127
1, 171412, Note_off_c, 2, 74, 127
1, 171441, Note_on_c, 1, 73, 127
1, 171577, Note_off_c, 1, 73, 127
1, 171578, Note_on_c, 2, 74, 127
1, 171714, Note_off_c, 2, 74, 127
1, 171715, Note_on_c, 4, 76, 127
1, 171851, Note_off_c, 4, 76, 127
1, 171852, Note_on_c, 6, 78, 127
1, 171975, Note_off_c, 4, 64, 127
1, 171989, Note_on_c, 2, 62, 127
1, 172125, Note_off_c, 2, 62, 127
1, 172126, Note_on_c, 4, 64, 127
1, 172262, Note_off_c, 4, 64, 127
1, 172263, Note_on_c, 6, 66, 127
1, 172399, Note_off_c, 6, 66, 127
1, 172400, Note_on_c, 7, 67, 127
1, 172537, Note_on_c, 12, 71, 127
1, 172594, Note_off_c, 6, 78, 127
1, 172673, Note_off_c, 12, 71, 127
1, 172674, Note_on_c, 4, 76, 127
1, 172810, Note_off_c, 7, 67, 127
1, 172811, Note_on_c, 1, 73, 127
1, 172947, Note_off_c, 1, 73, 127
1, 172948, Note_on_c, 6, 66, 127
1, 173084, Note_off_c, 4, 76, 127
1, 173085, Note_on_c, 10, 69, 127
1, 173221, Note_off_c, 10, 69, 127
1, 173222, Note_on_c, 2, 74, 127
1, 173358, Note_off_c, 6, 66, 127
1, 173359, Note_on_c, 12, 71, 127
1, 173495, Note_off_c, 12, 71, 127
1, 173496, Note_on_c, 4, 64, 127
1, 173632, Note_off_c, 2, 74, 127
1, 173633, Note_on_c, 7, 67, 127
1, 173769, Note_off_c, 7, 67, 127
1, 173770, Note_on_c, 1, 73, 127
1, 173906, Note_off_c, 4, 64, 127
1, 173907, Note_on_c, 10, 69, 127
1, 174043, Note_off_c, 10, 69, 127
1, 174044, Note_on_c, 2, 62, 127
1, 174180, Note_off_c, 1, 73, 127
1, 174181, Note_on_c, 6, 66, 127
1, 174317, Note_off_c, 6, 66, 127
1, 174318, Note_on_c, 12, 71, 127
1, 174454, Note_off_c, 2, 62, 127
1, 174455, Note_on_c, 7, 67, 127
1, 174591, Note_off_c, 7, 67, 127
1, 174592, Note_on_c, 1, 61, 127
1, 174728, Note_off_c, 12, 71, 127
1, 174729, Note_on_c, 12, 71, 127
1, 174865, Note_off_c, 12, 71, 127
1, 174866, Note_on_c, 11, 70, 127
1, 175002, Note_off_c, 11, 70, 127
1, 175003, Note_on_c, 8, 68, 127
1, 175139, Note_off_c, 8, 68, 127
1, 175140, Note_on_c, 11, 70, 127
1, 175277, Note_on_c, 4, 64, 127
1, 175377, Note_off_c, 1, 61, 127
1, 175413, Note_off_c, 4, 64, 127
1, 175414, Note_on_c, 6, 54, 127
1, 175414, Note_on_c, 2, 62, 127
1, 175550, Note_off_c, 2, 62, 127
1, 175551, Note_on_c, 1, 61, 127
1, 175654, Note_off_c, 11, 70, 127
1, 175687, Note_off_c, 1, 61, 127
1, 175687, Note_off_c, 6, 54, 127
1, 175688, Note_on_c, 7, 55, 127
1, 175688, Note_on_c, 12, 59, 127
1, 175688, Note_on_c, 12, 71, 127
1, 175824, Note_off_c, 12, 59, 127
1, 175825, Note_on_c, 3, 63, 127
1, 175959, Note_off_c, 12, 71, 127
1, 175960, Note_off_c, 3, 63, 127
1, 175960, Note_off_c, 7, 55, 127
1, 175961, Note_on_c, 6, 54, 127
1, 175961, Note_on_c, 4, 64, 127
1, 176097, Note_off_c, 4, 64, 127
1, 176098, Note_on_c, 6, 66, 127
1, 176234, Note_off_c, 6, 66, 127
1, 176234, Note_off_c, 6, 54, 127
1, 176235, Note_on_c, 4, 52, 127
1, 176235, Note_on_c, 7, 67, 127
1, 176371, Note_off_c, 7, 67, 127
1, 176372, Note_on_c, 6, 66, 127
1, 176508, Note_off_c, 6, 66, 127
1, 176508, Note_off_c, 4, 52, 127
1, 176509, Note_on_c, 2, 50, 127
1, 176509, Note_on_c, 7, 67, 127
1, 176509, Note_on_c, 12, 71, 127
1, 176645, Note_off_c, 7, 67, 127
1, 176646, Note_on_c, 6, 66, 127
1, 176782, Note_off_c, 6, 66, 127
1, 176782, Note_off_c, 12, 71, 127
1, 176782, Note_off_c, 2, 50, 127
1, 176783, Note_on_c, 1, 49, 127
1, 176783, Note_on_c, 4, 64, 127
1, 176783, Note_on_c, 11, 70, 127
1, 176919, Note_off_c, 4, 64, 127
1, 176920, Note_on_c, 2, 62, 127
1, 177056, Note_off_c, 2, 62, 127
1, 177056, Note_off_c, 11, 70, 127
1, 177056, Note_off_c, 1, 49, 127
1, 177057, Note_on_c, 12, 47, 127
1, 177057, Note_on_c, 4, 64, 127
1, 177057, Note_on_c, 12, 71, 127
1, 177193, Note_off_c, 4, 64, 127
1, 177194, Note_on_c, 2, 62, 127
1, 177330, Note_off_c, 2, 62, 127
1, 177330, Note_off_c, 12, 71, 127
1, 177330, Note_off_c, 12, 47, 127
1, 177331, Note_on_c, 11, 46, 127
1, 177331, Note_on_c, 1, 61, 127
1, 177331, Note_on_c, 6, 66, 127
1, 177467, Note_off_c, 1, 61, 127
1, 177468, Note_on_c, 2, 62, 127
1, 177604, Note_off_c, 2, 62, 127
1, 177604, Note_off_c, 6, 66, 127
1, 177604, Note_off_c, 11, 46, 127
1, 177605, Note_on_c, 8, 44, 127
1, 177605, Note_on_c, 1, 61, 127
1, 177605, Note_on_c, 8, 68, 127
1, 177741, Note_off_c, 1, 61, 127
1, 177742, Note_on_c, 2, 62, 127
1, 177878, Note_off_c, 2, 62, 127
1, 177878, Note_off_c, 8, 68, 127
1, 177878, Note_off_c, 8, 44, 127
1, 177879, Note_on_c, 6, 42, 127
1, 177879, Note_on_c, 4, 64, 127
1, 177879, Note_on_c, 11, 70, 127
1, 178015, Note_off_c, 4, 64, 127
1, 178016, Note_on_c, 6, 66, 127
1, 178152, Note_off_c, 6, 66, 127
1, 178152, Note_off_c, 11, 70, 127
1, 178152, Note_off_c, 6, 42, 127
1, 178153, Note_on_c, 12, 47, 127
1, 178153, Note_on_c, 2, 62, 127
1, 178153, Note_on_c, 12, 71, 127
1, 178289, Note_off_c, 2, 62, 127
1, 178290, Note_on_c, 4, 64, 127
1, 178426, Note_off_c, 4, 64, 127
1, 178426, Note_off_c, 12, 47, 127
1, 178427, Note_on_c, 4, 40, 127
1, 178427, Note_on_c, 1, 61, 127
1, 178563, Note_off_c, 1, 61, 127
1, 178564, Note_on_c, 6, 66, 127
1, 178700, Note_off_c, 6, 66, 127
1, 178700, Note_off_c, 4, 40, 127
1, 178700, Note_off_c, 12, 71, 127
1, 178701, Note_on_c, 6, 42, 127
1, 178701, Note_on_c, 4, 64, 127
1, 178701, Note_on_c, 11, 70, 127
1, 178837, Note_off_c, 4, 64, 127
1, 178838, Note_on_c, 6, 66, 127
1, 178974, Note_off_c, 6, 66, 127
1, 178974, Note_off_c, 11, 70, 127
1, 178974, Note_off_c, 6, 42, 127
1, 178975, Note_on_c, 12, 47, 127
1, 178975, Note_on_c, 2, 62, 127
1, 178975, Note_on_c, 12, 71, 127
1, 179111, Note_off_c, 12, 71, 127
1, 179112, Note_on_c, 6, 78, 127
1, 179248, Note_off_c, 2, 62, 127
1, 179249, Note_on_c, 12, 71, 127
1, 179375, Note_off_c, 12, 47, 127
1, 179385, Note_off_c, 6, 78, 127
1, 179386, Note_on_c, 5, 77, 127
1, 179515, Note_off_c, 5, 77, 127
1, 179522, Note_off_c, 12, 71, 127
1, 179523, Note_on_c, 1, 73, 127
1, 179660, Note_on_c, 12, 47, 127
1, 179660, Note_on_c, 6, 78, 127
1, 179796, Note_off_c, 12, 47, 127
1, 179796, Note_off_c, 1, 73, 127
1, 179797, Note_on_c, 2, 50, 127
1, 179797, Note_on_c, 12, 71, 127
1, 179933, Note_off_c, 2, 50, 127
1, 179933, Note_off_c, 6, 78, 127
1, 179934, Note_on_c, 12, 47, 127
1, 179934, Note_on_c, 8, 80, 127
1, 180063, Note_off_c, 8, 80, 127
1, 180070, Note_off_c, 12, 47, 127
1, 180070, Note_off_c, 12, 71, 127
1, 180071, Note_on_c, 6, 54, 127
1, 180071, Note_on_c, 1, 73, 127
1, 180208, Note_on_c, 10, 81, 127
1, 180344, Note_off_c, 1, 73, 127
1, 180345, Note_on_c, 10, 69, 127
1, 180481, Note_off_c, 10, 81, 127
1, 180482, Note_on_c, 0, 72, 127
1, 180613, Note_off_c, 6, 54, 127
1, 180617, Note_off_c, 10, 69, 127
1, 180618, Note_on_c, 8, 68, 127
1, 180754, Note_off_c, 0, 72, 127
1, 180755, Note_on_c, 6, 42, 127
1, 180755, Note_on_c, 1, 73, 127
1, 180891, Note_off_c, 6, 42, 127
1, 180891, Note_off_c, 8, 68, 127
1, 180892, Note_on_c, 10, 45, 127
1, 180892, Note_on_c, 6, 66, 127
1, 181028, Note_off_c, 10, 45, 127
1, 181028, Note_off_c, 1, 73, 127
1, 181029, Note_on_c, 6, 42, 127
1, 181029, Note_on_c, 3, 75, 127
1, 181165, Note_off_c, 6, 42, 127
1, 181165, Note_off_c, 6, 66, 127
1, 181166, Note_on_c, 1, 49, 127
1, 181166, Note_on_c, 4, 64, 127
1, 181302, Note_off_c, 1, 49, 127
1, 181302, Note_off_c, 3, 75, 127
1, 181303, Note_on_c, 12, 59, 127
1, 181303, Note_on_c, 5, 77, 127
1, 181439, Note_off_c, 12, 59, 127
1, 181439, Note_off_c, 4, 64, 127
1, 181440, Note_on_c, 10, 57, 127
1, 181440, Note_on_c, 1, 73, 127
1, 181576, Note_off_c, 10, 57, 127
1, 181576, Note_off_c, 5, 77, 127
1, 181577, Note_on_c, 12, 59, 127
1, 181577, Note_on_c, 3, 75, 127
1, 181713, Note_off_c, 12, 59, 127
1, 181713, Note_off_c, 1, 73, 127
1, 181714, Note_on_c, 8, 56, 127
1, 181714, Note_on_c, 12, 71, 127
1, 181850, Note_off_c, 8, 56, 127
1, 181850, Note_off_c, 3, 75, 127
1, 181851, Note_on_c, 12, 59, 127
1, 181851, Note_on_c, 5, 77, 127
1, 181987, Note_off_c, 12, 59, 127
1, 181987, Note_off_c, 12, 71, 127
1, 181988, Note_on_c, 6, 54, 127
1, 181988, Note_on_c, 10, 69, 127
1, 182124, Note_off_c, 6, 54, 127
1, 182124, Note_off_c, 5, 77, 127
1, 182125, Note_on_c, 10, 57, 127
1, 182125, Note_on_c, 6, 78, 127
1, 182261, Note_off_c, 10, 57, 127
1, 182261, Note_off_c, 10, 69, 127
1, 182262, Note_on_c, 5, 53, 127
1, 182262, Note_on_c, 8, 68, 127
1, 182398, Note_off_c, 5, 53, 127
1, 182398, Note_off_c, 6, 78, 127
1, 182399, Note_on_c, 8, 56, 127
1, 182399, Note_on_c, 8, 80, 127
1, 182509, Note_off_c, 8, 80, 127
1, 182535, Note_off_c, 8, 56, 127
1, 182535, Note_off_c, 8, 68, 127
1, 182536, Note_on_c, 1, 49, 127
1, 182536, Note_on_c, 12, 71, 127
1, 182536, Note_on_c, 2, 74, 127
1, 182672, Note_off_c, 1, 49, 127
1, 182673, Note_on_c, 5, 53, 127
1, 182809, Note_off_c, 5, 53, 127
1, 182809, Note_off_c, 2, 74, 127
1, 182809, Note_off_c, 12, 71, 127
1, 182810, Note_on_c, 3, 51, 127
1, 182810, Note_on_c, 10, 69, 127
1, 182810, Note_on_c, 1, 73, 127
1, 182946, Note_off_c, 3, 51, 127
1, 182947, Note_on_c, 6, 54, 127
1, 183083, Note_off_c, 6, 54, 127
1, 183083, Note_off_c, 1, 73, 127
1, 183083, Note_off_c, 10, 69, 127
1, 183084, Note_on_c, 5, 53, 127
1, 183084, Note_on_c, 8, 68, 127
1, 183084, Note_on_c, 12, 71, 127
1, 183220, Note_off_c, 5, 53, 127
1, 183221, Note_on_c, 8, 56, 127
1, 183357, Note_off_c, 8, 56, 127
1, 183357, Note_off_c, 12, 71, 127
1, 183358, Note_on_c, 6, 54, 127
1, 183358, Note_on_c, 10, 69, 127
1, 183494, Note_off_c, 6, 54, 127
1, 183495, Note_on_c, 10, 57, 127
1, 183631, Note_off_c, 10, 57, 127
1, 183631, Note_off_c, 8, 68, 127
1, 183632, Note_on_c, 2, 62, 127
1, 183632, Note_on_c, 6, 66, 127
1, 183768, Note_off_c, 2, 62, 127
1, 183769, Note_on_c, 10, 57, 127
1, 183905, Note_off_c, 10, 57, 127
1, 183905, Note_off_c, 10, 69, 127
1, 183906, Note_on_c, 12, 59, 127
1, 183906, Note_on_c, 8, 68, 127
1, 184042, Note_off_c, 12, 59, 127
1, 184043, Note_on_c, 8, 56, 127
1, 184179, Note_off_c, 8, 56, 127
1, 184179, Note_off_c, 6, 66, 127
1, 184180, Note_on_c, 1, 61, 127
1, 184180, Note_on_c, 5, 65, 127
1, 184316, Note_off_c, 1, 61, 127
1, 184317, Note_on_c, 1, 49, 127
1, 184453, Note_off_c, 1, 49, 127
1, 184453, Note_off_c, 5, 65, 127
1, 184453, Note_off_c, 8, 68, 127
1, 184454, Note_on_c, 2, 50, 127
1, 184454, Note_on_c, 6, 66, 127
1, 184607, Note_on_c, 10, 69, 127
1, 184727, Note_off_c, 2, 50, 127
1, 184743, Note_off_c, 10, 69, 127
1, 184744, Note_on_c, 1, 73, 127
1, 184744, Note_on_c, 1, 49, 127
1, 184880, Note_off_c, 1, 73, 127
1, 184881, Note_on_c, 10, 69, 127
1, 184996, Note_off_c, 6, 66, 127
1, 185016, Note_off_c, 10, 69, 127
1, 185016, Note_off_c, 1, 49, 127
1, 185017, Note_on_c, 2, 74, 127
1, 185017, Note_on_c, 12, 47, 127
1, 185154, Note_on_c, 6, 66, 127
1, 185290, Note_off_c, 6, 66, 127
1, 185290, Note_off_c, 12, 47, 127
1, 185290, Note_off_c, 2, 74, 127
1, 185291, Note_on_c, 1, 73, 127
1, 185291, Note_on_c, 10, 69, 127
1, 185291, Note_on_c, 10, 45, 127
1, 185427, Note_off_c, 10, 69, 127
1, 185428, Note_on_c, 6, 66, 127
1, 185564, Note_off_c, 6, 66, 127
1, 185564, Note_off_c, 10, 45, 127
1, 185564, Note_off_c, 1, 73, 127
1, 185565, Note_on_c, 12, 71, 127
1, 185565, Note_on_c, 8, 68, 127
1, 185565, Note_on_c, 8, 44, 127
1, 185701, Note_off_c, 8, 44, 127
1, 185702, Note_on_c, 8, 56, 127
1, 185838, Note_off_c, 8, 56, 127
1, 185838, Note_off_c, 8, 68, 127
1, 185838, Note_off_c, 12, 71, 127
1, 185839, Note_on_c, 10, 69, 127
1, 185839, Note_on_c, 6, 66, 127
1, 185839, Note_on_c, 12, 59, 127
1, 185975, Note_off_c, 12, 59, 127
1, 185976, Note_on_c, 8, 56, 127
1, 186112, Note_off_c, 8, 56, 127
1, 186112, Note_off_c, 6, 66, 127
1, 186113, Note_on_c, 4, 64, 127
1, 186113, Note_on_c, 1, 61, 127
1, 186249, Note_off_c, 10, 69, 127
1, 186250, Note_on_c, 8, 68, 127
1, 186386, Note_off_c, 8, 68, 127
1, 186386, Note_off_c, 1, 61, 127
1, 186386, Note_off_c, 4, 64, 127
1, 186387, Note_on_c, 12, 71, 127
1, 186387, Note_on_c, 2, 62, 127
1, 186387, Note_on_c, 12, 59, 127
1, 186523, Note_off_c, 12, 71, 127
1, 186524, Note_on_c, 8, 68, 127
1, 186658, Note_off_c, 2, 62, 127
1, 186659, Note_off_c, 8, 68, 127
1, 186659, Note_off_c, 12, 59, 127
1, 186660, Note_on_c, 1, 73, 127
1, 186660, Note_on_c, 10, 57, 127
1, 186797, Note_on_c, 1, 61, 127
1, 186933, Note_off_c, 1, 61, 127
1, 186933, Note_off_c, 10, 57, 127
1, 186933, Note_off_c, 1, 73, 127
1, 186934, Note_on_c, 12, 71, 127
1, 186934, Note_on_c, 5, 65, 127
1, 186934, Note_on_c, 8, 56, 127
1, 187070, Note_off_c, 5, 65, 127
1, 187071, Note_on_c, 1, 61, 127
1, 187205, Note_off_c, 8, 56, 127
1, 187206, Note_off_c, 1, 61, 127
1, 187206, Note_off_c, 12, 71, 127
1, 187207, Note_on_c, 10, 69, 127
1, 187207, Note_on_c, 6, 66, 127
1, 187344, Note_on_c, 6, 54, 127
1, 187480, Note_off_c, 6, 54, 127
1, 187480, Note_off_c, 6, 66, 127
1, 187480, Note_off_c, 10, 69, 127
1, 187481, Note_on_c, 8, 68, 127
1, 187481, Note_on_c, 4, 64, 127
1, 187481, Note_on_c, 10, 57, 127
1, 187617, Note_off_c, 10, 57, 127
1, 187618, Note_on_c, 6, 54, 127
1, 187752, Note_off_c, 8, 68, 127
1, 187753, Note_off_c, 6, 54, 127
1, 187753, Note_off_c, 4, 64, 127
1, 187754, Note_on_c, 3, 63, 127
1, 187754, Note_on_c, 12, 59, 127
1, 187891, Note_on_c, 6, 66, 127
1, 188027, Note_off_c, 6, 66, 127
1, 188027, Note_off_c, 12, 59, 127
1, 188027, Note_off_c, 3, 63, 127
1, 188028, Note_on_c, 10, 69, 127
1, 188028, Note_on_c, 1, 61, 127
1, 188028, Note_on_c, 10, 57, 127
1, 188164, Note_off_c, 10, 69, 127
1, 188165, Note_on_c, 6, 66, 127
1, 188299, Note_off_c, 1, 61, 127
1, 188300, Note_off_c, 6, 66, 127
1, 188300, Note_off_c, 10, 57, 127
1, 188301, Note_on_c, 12, 71, 127
1, 188301, Note_on_c, 8, 56, 127
1, 188438, Note_on_c, 12, 59, 127
1, 188574, Note_off_c, 12, 59, 127
1, 188574, Note_off_c, 8, 56, 127
1, 188574, Note_off_c, 12, 71, 127
1, 188575, Note_on_c, 10, 69, 127
1, 188575, Note_on_c, 3, 63, 127
1, 188575, Note_on_c, 6, 54, 127
1, 188711, Note_off_c, 3, 63, 127
1, 188712, Note_on_c, 12, 59, 127
1, 188846, Note_off_c, 6, 54, 127
1, 188847, Note_off_c, 12, 59, 127
1, 188847, Note_off_c, 10, 69, 127
1, 188848, Note_on_c, 8, 68, 127
1, 188848, Note_on_c, 4, 64, 127
1, 188985, Note_on_c, 4, 52, 127
1, 189121, Note_off_c, 4, 52, 127
1, 189121, Note_off_c, 4, 64, 127
1, 189121, Note_off_c, 8, 68, 127
1, 189122, Note_on_c, 6, 66, 127
1, 189122, Note_on_c, 3, 63, 127
1, 189122, Note_on_c, 8, 56, 127
1, 189258, Note_off_c, 8, 56, 127
1, 189259, Note_on_c, 4, 52, 127
1, 189393, Note_off_c, 6, 66, 127
1, 189394, Note_off_c, 4, 52, 127
1, 189394, Note_off_c, 3, 63, 127
1, 189395, Note_on_c, 1, 61, 127
1, 189395, Note_on_c, 10, 57, 127
1, 189532, Note_on_c, 4, 64, 127
1, 189668, Note_off_c, 4, 64, 127
1, 189668, Note_off_c, 10, 57, 127
1, 189668, Note_off_c, 1, 61, 127
1, 189669, Note_on_c, 8, 68, 127
1, 189669, Note_on_c, 12, 59, 127
1, 189669, Note_on_c, 8, 56, 127
1, 189805, Note_off_c, 8, 68, 127
1, 189806, Note_on_c, 4, 64, 127
1, 189940, Note_off_c, 12, 59, 127
1, 189941, Note_off_c, 4, 64, 127
1, 189941, Note_off_c, 8, 56, 127
1, 189942, Note_on_c, 10, 69, 127
1, 189942, Note_on_c, 6, 54, 127
1, 190079, Note_on_c, 10, 57, 127
1, 190215, Note_off_c, 10, 57, 127
1, 190215, Note_off_c, 6, 54, 127
1, 190215, Note_off_c, 10, 69, 127
1, 190216, Note_on_c, 8, 68, 127
1, 190216, Note_on_c, 1, 61, 127
1, 190216, Note_on_c, 4, 52, 127
1, 190352, Note_off_c, 1, 61, 127
1, 190353, Note_on_c, 10, 57, 127
1, 190487, Note_off_c, 4, 52, 127
1, 190488, Note_off_c, 10, 57, 127
1, 190488, Note_off_c, 8, 68, 127
1, 190489, Note_on_c, 6, 66, 127
1, 190489, Note_on_c, 3, 63, 127
1, 190626, Note_on_c, 3, 51, 127
1, 190762, Note_off_c, 3, 51, 127
1, 190762, Note_off_c, 3, 63, 127
1, 190762, Note_off_c, 6, 66, 127
1, 190763, Note_on_c, 4, 64, 127
1, 190763, Note_on_c, 1, 61, 127
1, 190763, Note_on_c, 6, 54, 127
1, 190899, Note_off_c, 6, 54, 127
1, 190900, Note_on_c, 3, 51, 127
1, 191034, Note_off_c, 4, 64, 127
1, 191035, Note_off_c, 3, 51, 127
1, 191035, Note_off_c, 1, 61, 127
1, 191036, Note_on_c, 3, 63, 127
1, 191036, Note_on_c, 8, 56, 127
1, 191165, Note_off_c, 3, 63, 127
1, 191174, Note_on_c, 3, 63, 127
1, 191310, Note_off_c, 3, 63, 127
1, 191310, Note_off_c, 8, 56, 127
1, 191311, Note_on_c, 6, 66, 127
1, 191311, Note_on_c, 10, 57, 127
1, 191311, Note_on_c, 6, 54, 127
1, 191447, Note_off_c, 6, 66, 127
1, 191448, Note_on_c, 3, 63, 127
1, 191582, Note_off_c, 10, 57, 127
1, 191583, Note_off_c, 3, 63, 127
1, 191583, Note_off_c, 6, 54, 127
1, 191584, Note_on_c, 8, 68, 127
1, 191584, Note_on_c, 4, 52, 127
1, 191721, Note_on_c, 8, 56, 127
1, 191857, Note_off_c, 8, 56, 127
1, 191857, Note_off_c, 4, 52, 127
1, 191857, Note_off_c, 8, 68, 127
1, 191858, Note_on_c, 6, 66, 127
1, 191858, Note_on_c, 0, 60, 127
1, 191858, Note_on_c, 3, 51, 127
1, 191994, Note_off_c, 0, 60, 127
1, 191995, Note_on_c, 8, 56, 127
1, 192129, Note_off_c, 3, 51, 127
1, 192130, Note_off_c, 8, 56, 127
1, 192130, Note_off_c, 6, 66, 127
1, 192131, Note_on_c, 4, 64, 127
1, 192131, Note_on_c, 1, 61, 127
1, 192268, Note_on_c, 1, 49, 127
1, 192404, Note_off_c, 1, 49, 127
1, 192404, Note_off_c, 1, 61, 127
1, 192404, Note_off_c, 4, 64, 127
1, 192405, Note_on_c, 3, 63, 127
1, 192405, Note_on_c, 12, 59, 127
1, 192405, Note_on_c, 4, 52, 127
1, 192541, Note_off_c, 4, 52, 127
1, 192542, Note_on_c, 1, 49, 127
1, 192678, Note_off_c, 1, 49, 127
1, 192678, Note_off_c, 12, 59, 127
1, 192678, Note_off_c, 3, 63, 127
1, 192679, Note_on_c, 1, 61, 127
1, 192679, Note_on_c, 10, 57, 127
1, 192679, Note_on_c, 6, 54, 127
1, 192815, Note_off_c, 6, 54, 127
1, 192816, Note_on_c, 4, 52, 127
1, 192952, Note_off_c, 4, 52, 127
1, 192952, Note_off_c, 1, 61, 127
1, 192953, Note_on_c, 6, 66, 127
1, 192953, Note_on_c, 3, 51, 127
1, 193089, Note_off_c, 3, 51, 127
1, 193090, Note_on_c, 1, 49, 127
1, 193221, Note_off_c, 10, 57, 127
1, 193225, Note_off_c, 1, 49, 127
1, 193226, Note_on_c, 0, 48, 127
1, 193363, Note_on_c, 8, 56, 127
1, 193497, Note_off_c, 0, 48, 127
1, 193498, Note_off_c, 8, 56, 127
1, 193498, Note_off_c, 6, 66, 127
1, 193499, Note_on_c, 4, 64, 127
1, 193499, Note_on_c, 1, 61, 127
1, 193636, Note_on_c, 1, 49, 127
1, 193772, Note_off_c, 1, 49, 127
1, 193772, Note_off_c, 4, 64, 127
1, 193773, Note_on_c, 3, 63, 127
1, 193773, Note_on_c, 6, 54, 127
1, 193909, Note_off_c, 6, 54, 127
1, 193910, Note_on_c, 3, 51, 127
1, 194044, Note_off_c, 3, 63, 127
1, 194045, Note_off_c, 3, 51, 127
1, 194045, Note_off_c, 1, 61, 127
1, 194046, Note_on_c, 0, 60, 127
1, 194046, Note_on_c, 8, 56, 127
1, 194162, Note_off_c, 0, 60, 127
1, 194183, Note_off_c, 8, 56, 127
1, 194186, Note_on_c, 8, 44, 127
1, 194202, Note_on_c, 8, 68, 127
1, 194322, Note_off_c, 8, 44, 127
1, 194336, Note_on_c, 1, 49, 127
1, 194336, Note_on_c, 1, 61, 127
1, 194336, Note_on_c, 10, 69, 127
1, 194337, Note_off_c, 8, 68, 127
1, 194471, Note_off_c, 10, 69, 127
1, 194472, Note_on_c, 8, 68, 127
1, 194606, Note_off_c, 1, 49, 127
1, 194607, Note_off_c, 8, 68, 127
1, 194607, Note_off_c, 1, 61, 127
1, 194608, Note_on_c, 4, 64, 127
1, 194608, Note_on_c, 10, 69, 127
1, 194744, Note_off_c, 10, 69, 127
1, 194745, Note_on_c, 1, 49, 127
1, 194745, Note_on_c, 8, 68, 127
1, 194881, Note_off_c, 8, 68, 127
1, 194881, Note_off_c, 1, 49, 127
1, 194881, Note_off_c, 4, 64, 127
1, 194882, Note_on_c, 3, 51, 127
1, 194882, Note_on_c, 11, 58, 127
1, 194882, Note_on_c, 7, 67, 127
1, 195018, Note_off_c, 3, 51, 127
1, 195019, Note_on_c, 1, 49, 127
1, 195153, Note_off_c, 11, 58, 127
1, 195154, Note_off_c, 1, 49, 127
1, 195154, Note_off_c, 7, 67, 127
1, 195155, Note_on_c, 3, 51, 127
1, 195155, Note_on_c, 11, 70, 127
1, 195291, Note_off_c, 3, 51, 127
1, 195292, Note_on_c, 1, 49, 127
1, 195428, Note_off_c, 1, 49, 127
1, 195428, Note_off_c, 11, 70, 127
1, 195429, Note_on_c, 12, 47, 127
1, 195429, Note_on_c, 3, 75, 127
1, 195565, Note_off_c, 3, 75, 127
1, 195565, Note_off_c, 12, 47, 127
1, 195566, Note_on_c, 11, 46, 127
1, 195566, Note_on_c, 1, 73, 127
1, 195702, Note_off_c, 1, 73, 127
1, 195702, Note_off_c, 11, 46, 127
1, 195703, Note_on_c, 12, 47, 127
1, 195703, Note_on_c, 3, 63, 127
1, 195703, Note_on_c, 3, 75, 127
1, 195839, Note_off_c, 3, 75, 127
1, 195839, Note_off_c, 12, 47, 127
1, 195840, Note_on_c, 11, 46, 127
1, 195840, Note_on_c, 1, 73, 127
1, 195976, Note_off_c, 1, 73, 127
1, 195976, Note_off_c, 11, 46, 127
1, 195976, Note_off_c, 3, 63, 127
1, 195977, Note_on_c, 8, 44, 127
1, 195977, Note_on_c, 8, 68, 127
1, 195977, Note_on_c, 12, 71, 127
1, 196113, Note_off_c, 8, 68, 127
1, 196114, Note_on_c, 7, 67, 127
1, 196250, Note_off_c, 7, 67, 127
1, 196250, Note_off_c, 12, 71, 127
1, 196250, Note_off_c, 8, 44, 127
1, 196251, Note_on_c, 3, 51, 127
1, 196251, Note_on_c, 8, 68, 127
1, 196251, Note_on_c, 11, 70, 127
1, 196387, Note_off_c, 8, 68, 127
1, 196388, Note_on_c, 7, 67, 127
1, 196524, Note_off_c, 7, 67, 127
1, 196524, Note_off_c, 11, 70, 127
1, 196524, Note_off_c, 3, 51, 127
1, 196525, Note_on_c, 4, 52, 127
1, 196525, Note_on_c, 8, 68, 127
1, 196525, Note_on_c, 1, 73, 127
1, 196661, Note_off_c, 8, 68, 127
1, 196662, Note_on_c, 7, 67, 127
1, 196798, Note_off_c, 7, 67, 127
1, 196798, Note_off_c, 1, 73, 127
1, 196798, Note_off_c, 4, 52, 127
1, 196799, Note_on_c, 3, 51, 127
1, 196799, Note_on_c, 8, 68, 127
1, 196799, Note_on_c, 12, 71, 127
1, 196935, Note_off_c, 8, 68, 127
1, 196936, Note_on_c, 7, 67, 127
1, 197072, Note_off_c, 7, 67, 127
1, 197072, Note_off_c, 12, 71, 127
1, 197072, Note_off_c, 3, 51, 127
1, 197073, Note_on_c, 1, 49, 127
1, 197073, Note_on_c, 8, 68, 127
1, 197073, Note_on_c, 4, 76, 127
1, 197209, Note_off_c, 8, 68, 127
1, 197210, Note_on_c, 7, 67, 127
1, 197346, Note_off_c, 7, 67, 127
1, 197346, Note_off_c, 4, 76, 127
1, 197346, Note_off_c, 1, 49, 127
1, 197347, Note_on_c, 12, 47, 127
1, 197347, Note_on_c, 8, 68, 127
1, 197347, Note_on_c, 3, 75, 127
1, 197483, Note_off_c, 8, 68, 127
1, 197484, Note_on_c, 7, 67, 127
1, 197620, Note_off_c, 7, 67, 127
1, 197620, Note_off_c, 3, 75, 127
1, 197620, Note_off_c, 12, 47, 127
1, 197621, Note_on_c, 11, 46, 127
1, 197621, Note_on_c, 8, 68, 127
1, 197621, Note_on_c, 1, 73, 127
1, 197757, Note_off_c, 8, 68, 127
1, 197758, Note_on_c, 7, 67, 127
1, 197894, Note_off_c, 7, 67, 127
1, 197894, Note_off_c, 11, 46, 127
1, 197895, Note_on_c, 8, 44, 127
1, 197895, Note_on_c, 8, 68, 127
1, 197964, Note_off_c, 1, 73, 127
1, 198033, Note_on_c, 12, 71, 127
1, 198169, Note_off_c, 12, 71, 127
1, 198169, Note_off_c, 8, 68, 127
1, 198169, Note_off_c, 8, 44, 127
1, 198170, Note_on_c, 7, 43, 127
1, 198170, Note_on_c, 3, 63, 127
1, 198170, Note_on_c, 11, 70, 127
1, 198306, Note_off_c, 11, 70, 127
1, 198307, Note_on_c, 12, 71, 127
1, 198443, Note_off_c, 12, 71, 127
1, 198443, Note_off_c, 3, 63, 127
1, 198443, Note_off_c, 7, 43, 127
1, 198444, Note_on_c, 5, 41, 127
1, 198444, Note_on_c, 8, 68, 127
1, 198444, Note_on_c, 11, 70, 127
1, 198580, Note_off_c, 11, 70, 127
1, 198581, Note_on_c, 12, 71, 127
1, 198717, Note_off_c, 12, 71, 127
1, 198717, Note_off_c, 8, 68, 127
1, 198717, Note_off_c, 5, 41, 127
1, 198718, Note_on_c, 3, 39, 127
1, 198718, Note_on_c, 7, 67, 127
1, 198718, Note_on_c, 1, 73, 127
1, 198854, Note_off_c, 1, 73, 127
1, 198855, Note_on_c, 3, 75, 127
1, 198991, Note_off_c, 3, 75, 127
1, 198991, Note_off_c, 7, 67, 127
1, 198991, Note_off_c, 3, 39, 127
1, 198992, Note_on_c, 8, 44, 127
1, 198992, Note_on_c, 8, 68, 127
1, 198992, Note_on_c, 1, 73, 127
1, 199128, Note_off_c, 1, 73, 127
1, 199129, Note_on_c, 3, 75, 127
1, 199265, Note_off_c, 3, 75, 127
1, 199265, Note_off_c, 8, 68, 127
1, 199266, Note_on_c, 11, 70, 127
1, 199266, Note_on_c, 1, 73, 127
1, 199402, Note_off_c, 1, 73, 127
1, 199403, Note_on_c, 4, 76, 127
1, 199477, Note_off_c, 8, 44, 127
1, 199538, Note_off_c, 4, 76, 127
1, 199539, Note_on_c, 7, 43, 127
1, 199539, Note_on_c, 3, 75, 127
1, 199675, Note_off_c, 3, 75, 127
1, 199676, Note_on_c, 6, 78, 127
1, 199812, Note_off_c, 6, 78, 127
1, 199812, Note_off_c, 7, 43, 127
1, 199812, Note_off_c, 11, 70, 127
1, 199813, Note_on_c, 8, 44, 127
1, 199813, Note_on_c, 12, 71, 127
1, 199813, Note_on_c, 4, 76, 127
1, 199949, Note_off_c, 4, 76, 127
1, 199950, Note_on_c, 3, 75, 127
1, 200086, Note_off_c, 3, 75, 127
1, 200086, Note_off_c, 12, 71, 127
1, 200086, Note_off_c, 8, 44, 127
1, 200087, Note_on_c, 7, 43, 127
1, 200087, Note_on_c, 11, 70, 127
1, 200087, Note_on_c, 4, 76, 127
1, 200223, Note_off_c, 4, 76, 127
1, 200224, Note_on_c, 3, 75, 127
1, 200360, Note_off_c, 3, 75, 127
1, 200360, Note_off_c, 11, 70, 127
1, 200360, Note_off_c, 7, 43, 127
1, 200361, Note_on_c, 8, 44, 127
1, 200361, Note_on_c, 12, 71, 127
1, 200361, Note_on_c, 4, 76, 127
1, 200497, Note_off_c, 4, 76, 127
1, 200498, Note_on_c, 8, 80, 127
1, 200634, Note_off_c, 8, 80, 127
1, 200634, Note_off_c, 12, 71, 127
1, 200634, Note_off_c, 8, 44, 127
1, 200635, Note_on_c, 11, 46, 127
1, 200635, Note_on_c, 1, 73, 127
1, 200635, Note_on_c, 6, 78, 127
1, 200771, Note_off_c, 6, 78, 127
1, 200772, Note_on_c, 4, 76, 127
1, 200908, Note_off_c, 4, 76, 127
1, 200908, Note_off_c, 11, 46, 127
1, 200909, Note_on_c, 12, 47, 127
1, 200909, Note_on_c, 3, 75, 127
1, 201045, Note_off_c, 1, 73, 127
1, 201046, Note_on_c, 6, 66, 127
1, 201182, Note_off_c, 6, 66, 127
1, 201182, Note_off_c, 12, 47, 127
1, 201183, Note_on_c, 11, 46, 127
1, 201183, Note_on_c, 12, 71, 127
1, 201319, Note_off_c, 3, 75, 127
1, 201320, Note_on_c, 3, 75, 127
1, 201456, Note_off_c, 3, 75, 127
1, 201456, Note_off_c, 11, 46, 127
1, 201457, Note_on_c, 8, 44, 127
1, 201457, Note_on_c, 5, 77, 127
1, 201593, Note_off_c, 5, 77, 127
1, 201594, Note_on_c, 8, 80, 127
1, 201730, Note_off_c, 8, 80, 127
1, 201730, Note_off_c, 8, 44, 127
1, 201731, Note_on_c, 8, 56, 127
1, 201731, Note_on_c, 5, 77, 127
1, 201867, Note_off_c, 5, 77, 127
1, 201868, Note_off_c, 12, 71, 127
1, 201868, Note_on_c, 3, 75, 127
1, 202004, Note_off_c, 3, 75, 127
1, 202004, Note_off_c, 8, 56, 127
1, 202005, Note_on_c, 5, 65, 127
1, 202005, Note_on_c, 2, 74, 127
1, 202141, Note_off_c, 2, 74, 127
1, 202142, Note_on_c, 11, 58, 127
1, 202142, Note_on_c, 0, 72, 127
1, 202278, Note_off_c, 0, 72, 127
1, 202278, Note_off_c, 11, 58, 127
1, 202279, Note_on_c, 12, 59, 127
1, 202279, Note_on_c, 11, 70, 127
1, 202415, Note_off_c, 12, 59, 127
1, 202416, Note_on_c, 11, 58, 127
1, 202547, Note_off_c, 5, 65, 127
1, 202550, Note_off_c, 11, 70, 127
1, 202551, Note_off_c, 11, 58, 127
1, 202552, Note_on_c, 12, 59, 127
1, 202689, Note_on_c, 6, 78, 127
1, 202825, Note_off_c, 6, 78, 127
1, 202825, Note_off_c, 12, 59, 127
1, 202826, Note_on_c, 11, 58, 127
1, 202826, Note_on_c, 8, 80, 127
1, 202962, Note_off_c, 8, 80, 127
1, 202963, Note_on_c, 11, 82, 127
1, 203099, Note_off_c, 11, 82, 127
1, 203099, Note_off_c, 11, 58, 127
1, 203100, Note_on_c, 8, 56, 127
1, 203100, Note_on_c, 12, 83, 127
1, 203237, Note_on_c, 3, 75, 127
1, 203373, Note_off_c, 3, 75, 127
1, 203373, Note_off_c, 12, 83, 127
1, 203373, Note_off_c, 8, 56, 127
1, 203374, Note_on_c, 6, 54, 127
1, 203374, Note_on_c, 5, 77, 127
1, 203374, Note_on_c, 11, 82, 127
1, 203510, Note_off_c, 5, 77, 127
1, 203511, Note_on_c, 6, 78, 127
1, 203640, Note_off_c, 6, 78, 127
1, 203647, Note_off_c, 11, 82, 127
1, 203647, Note_off_c, 6, 54, 127
1, 203648, Note_on_c, 5, 53, 127
1, 203648, Note_on_c, 8, 80, 127
1, 203785, Note_on_c, 0, 72, 127
1, 203921, Note_off_c, 0, 72, 127
1, 203921, Note_off_c, 8, 80, 127
1, 203921, Note_off_c, 5, 53, 127
1, 203922, Note_on_c, 3, 51, 127
1, 203922, Note_on_c, 2, 74, 127
1, 203922, Note_on_c, 6, 78, 127
1, 204058, Note_off_c, 2, 74, 127
1, 204059, Note_on_c, 3, 75, 127
1, 204188, Note_off_c, 3, 75, 127
1, 204195, Note_off_c, 6, 78, 127
1, 204195, Note_off_c, 3, 51, 127
1, 204196, Note_on_c, 2, 50, 127
1, 204196, Note_on_c, 5, 77, 127
1, 204332, Note_off_c, 5, 77, 127
1, 204333, Note_on_c, 3, 75, 127
1, 204469, Note_off_c, 3, 75, 127
1, 204469, Note_off_c, 2, 50, 127
1, 204470, Note_on_c, 0, 48, 127
1, 204470, Note_on_c, 5, 77, 127
1, 204606, Note_off_c, 5, 77, 127
1, 204607, Note_on_c, 6, 78, 127
1, 204743, Note_off_c, 6, 78, 127
1, 204743, Note_off_c, 0, 48, 127
1, 204744, Note_on_c, 11, 46, 127
1, 204744, Note_on_c, 8, 80, 127
1, 204881, Note_on_c, 0, 72, 127
1, 205017, Note_off_c, 0, 72, 127
1, 205017, Note_off_c, 11, 46, 127
1, 205018, Note_on_c, 8, 44, 127
1, 205018, Note_on_c, 2, 74, 127
1, 205154, Note_off_c, 2, 74, 127
1, 205155, Note_on_c, 3, 75, 127
1, 205291, Note_off_c, 3, 75, 127
1, 205291, Note_off_c, 8, 44, 127
1, 205292, Note_on_c, 11, 46, 127
1, 205292, Note_on_c, 2, 74, 127
1, 205428, Note_off_c, 8, 80, 127
1, 205429, Note_on_c, 11, 82, 127
1, 205565, Note_off_c, 11, 82, 127
1, 205565, Note_off_c, 2, 74, 127
1, 205565, Note_off_c, 11, 46, 127
1, 205566, Note_on_c, 2, 50, 127
1, 205566, Note_on_c, 2, 74, 127
1, 205566, Note_on_c, 5, 77, 127
1, 205702, Note_off_c, 5, 77, 127
1, 205703, Note_on_c, 6, 78, 127
1, 205839, Note_off_c, 6, 78, 127
1, 205839, Note_off_c, 2, 50, 127
1, 205840, Note_on_c, 11, 46, 127
1, 205840, Note_on_c, 5, 77, 127
1, 205976, Note_off_c, 5, 77, 127
1, 205977, Note_on_c, 12, 83, 127
1, 206113, Note_off_c, 12, 83, 127
1, 206113, Note_off_c, 11, 46, 127
1, 206113, Note_off_c, 2, 74, 127
1, 206114, Note_on_c, 11, 46, 127
1, 206114, Note_on_c, 1, 73, 127
1, 206114, Note_on_c, 11, 82, 127
1, 206250, Note_off_c, 11, 82, 127
1, 206251, Note_on_c, 8, 80, 127
1, 206387, Note_off_c, 8, 80, 127
1, 206387, Note_off_c, 11, 46, 127
1, 206388, Note_on_c, 3, 39, 127
1, 206388, Note_on_c, 7, 79, 127
1, 206524, Note_off_c, 1, 73, 127
1, 206525, Note_on_c, 4, 76, 127
1, 206661, Note_off_c, 4, 76, 127
1, 206661, Note_off_c, 3, 39, 127
1, 206662, Note_on_c, 3, 51, 127
1, 206662, Note_on_c, 3, 75, 127
1, 206798, Note_off_c, 3, 75, 127
1, 206799, Note_on_c, 1, 73, 127
1, 206935, Note_off_c, 1, 73, 127
1, 206935, Note_off_c, 3, 51, 127
1, 206935, Note_off_c, 7, 79, 127
1, 206936, Note_on_c, 4, 52, 127
1, 206936, Note_on_c, 12, 71, 127
1, 206936, Note_on_c, 8, 80, 127
1, 207072, Note_off_c, 12, 71, 127
1, 207073, Note_on_c, 3, 75, 127
1, 207209, Note_off_c, 3, 75, 127
1, 207209, Note_off_c, 4, 52, 127
1, 207210, Note_on_c, 3, 51, 127
1, 207210, Note_on_c, 1, 73, 127
1, 207346, Note_off_c, 1, 73, 127
1, 207347, Note_on_c, 12, 71, 127
1, 207483, Note_off_c, 12, 71, 127
1, 207483, Note_off_c, 3, 51, 127
1, 207484, Note_on_c, 1, 49, 127
1, 207484, Note_on_c, 11, 70, 127
1, 207620, Note_off_c, 8, 80, 127
1, 207621, Note_on_c, 8, 80, 127
1, 207757, Note_off_c, 8, 80, 127
1, 207757, Note_off_c, 1, 49, 127
1, 207758, Note_on_c, 11, 46, 127
1, 207758, Note_on_c, 11, 82, 127
1, 207894, Note_off_c, 11, 82, 127
1, 207895, Note_on_c, 8, 80, 127
1, 208031, Note_off_c, 8, 80, 127
1, 208031, Note_off_c, 11, 46, 127
1, 208032, Note_on_c, 3, 51, 127
1, 208032, Note_on_c, 6, 78, 127
1, 208168, Note_off_c, 11, 70, 127
1, 208169, Note_on_c, 10, 69, 127
1, 208305, Note_off_c, 10, 69, 127
1, 208305, Note_off_c, 3, 51, 127
1, 208306, Note_on_c, 1, 49, 127
1, 208306, Note_on_c, 12, 71, 127
1, 208442, Note_off_c, 12, 71, 127
1, 208443, Note_on_c, 10, 69, 127
1, 208579, Note_off_c, 10, 69, 127
1, 208579, Note_off_c, 1, 49, 127
1, 208580, Note_on_c, 0, 48, 127
1, 208580, Note_on_c, 8, 68, 127
1, 208716, Note_off_c, 6, 78, 127
1, 208717, Note_on_c, 6, 78, 127
1, 208853, Note_off_c, 6, 78, 127
1, 208853, Note_off_c, 8, 68, 127
1, 208853, Note_off_c, 0, 48, 127
1, 208854, Note_on_c, 8, 56, 127
1, 208854, Note_on_c, 0, 60, 127
1, 208854, Note_on_c, 8, 80, 127
1, 208990, Note_off_c, 8, 80, 127
1, 208991, Note_on_c, 6, 78, 127
1, 209127, Note_off_c, 6, 78, 127
1, 209127, Note_off_c, 0, 60, 127
1, 209127, Note_off_c, 8, 56, 127
1, 209128, Note_on_c, 10, 57, 127
1, 209128, Note_on_c, 1, 61, 127
1, 209128, Note_on_c, 4, 76, 127
1, 209264, Note_off_c, 4, 76, 127
1, 209265, Note_on_c, 8, 80, 127
1, 209401, Note_off_c, 8, 80, 127
1, 209401, Note_off_c, 10, 57, 127
1, 209402, Note_on_c, 8, 56, 127
1, 209402, Note_on_c, 6, 78, 127
1, 209538, Note_off_c, 6, 78, 127
1, 209539, Note_on_c, 4, 76, 127
1, 209675, Note_off_c, 4, 76, 127
1, 209675, Note_off_c, 8, 56, 127
1, 209676, Note_on_c, 6, 54, 127
1, 209676, Note_on_c, 3, 75, 127
1, 209812, Note_off_c, 3, 75, 127
1, 209812, Note_off_c, 1, 61, 127
1, 209813, Note_on_c, 0, 60, 127
1, 209813, Note_on_c, 8, 80, 127
1, 209949, Note_off_c, 8, 80, 127
1, 209949, Note_off_c, 0, 60, 127
1, 209949, Note_off_c, 6, 54, 127
1, 209950, Note_on_c, 3, 51, 127
1, 209950, Note_on_c, 1, 61, 127
1, 209950, Note_on_c, 10, 81, 127
1, 210086, Note_off_c, 10, 81, 127
1, 210087, Note_on_c, 3, 75, 127
1, 210223, Note_off_c, 3, 75, 127
1, 210223, Note_off_c, 1, 61, 127
1, 210223, Note_off_c, 3, 51, 127
1, 210224, Note_on_c, 8, 56, 127
1, 210224, Note_on_c, 0, 60, 127
1, 210224, Note_on_c, 4, 76, 127
1, 210293, Note_off_c, 4, 76, 127
1, 210304, Note_on_c, 3, 75, 127
1, 210373, Note_off_c, 3, 75, 127
1, 210373, Note_on_c, 4, 76, 127
1, 210442, Note_off_c, 4, 76, 127
1, 210442, Note_on_c, 3, 75, 127
1, 210636, Note_on_c, 1, 73, 127
1, 210642, Note_off_c, 3, 75, 127
1, 210772, Note_off_c, 1, 73, 127
1, 210772, Note_off_c, 0, 60, 127
1, 210772, Note_off_c, 8, 56, 127
1, 210773, Note_on_c, 1, 49, 127
1, 210773, Note_on_c, 1, 61, 127
1, 210773, Note_on_c, 1, 73, 127
1, 210909, Note_off_c, 1, 61, 127
1, 210910, Note_on_c, 4, 64, 127
1, 211046, Note_off_c, 4, 64, 127
1, 211047, Note_on_c, 6, 66, 127
1, 211183, Note_off_c, 6, 66, 127
1, 211184, Note_on_c, 8, 68, 127
1, 211315, Note_off_c, 1, 73, 127
1, 211319, Note_off_c, 8, 68, 127
1, 211319, Note_off_c, 1, 49, 127
1, 211320, Note_on_c, 10, 69, 127
1, 211456, Note_off_c, 10, 69, 127
1, 211457, Note_on_c, 8, 68, 127
1, 211593, Note_off_c, 8, 68, 127
1, 211594, Note_on_c, 10, 69, 127
1, 211594, Note_on_c, 8, 80, 127
1, 211730, Note_off_c, 10, 69, 127
1, 211731, Note_on_c, 8, 68, 127
1, 211867, Note_off_c, 8, 68, 127
1, 211867, Note_off_c, 8, 80, 127
1, 211868, Note_on_c, 6, 66, 127
1, 211868, Note_on_c, 10, 81, 127
1, 212004, Note_off_c, 6, 66, 127
1, 212005, Note_on_c, 4, 64, 127
1, 212141, Note_off_c, 4, 64, 127
1, 212141, Note_off_c, 10, 81, 127
1, 212142, Note_on_c, 6, 66, 127
1, 212142, Note_on_c, 8, 80, 127
1, 212278, Note_off_c, 6, 66, 127
1, 212279, Note_on_c, 4, 64, 127
1, 212415, Note_off_c, 4, 64, 127
1, 212415, Note_off_c, 8, 80, 127
1, 212416, Note_on_c, 3, 63, 127
1, 212416, Note_on_c, 6, 78, 127
1, 212552, Note_off_c, 3, 63, 127
1, 212553, Note_on_c, 1, 61, 127
1, 212689, Note_off_c, 1, 61, 127
1, 212689, Note_off_c, 6, 78, 127
1, 212690, Note_on_c, 3, 63, 127
1, 212690, Note_on_c, 4, 76, 127
1, 212826, Note_off_c, 3, 63, 127
1, 212827, Note_on_c, 1, 61, 127
1, 212963, Note_off_c, 1, 61, 127
1, 212963, Note_off_c, 4, 76, 127
1, 212964, Note_on_c, 0, 60, 127
1, 212964, Note_on_c, 3, 75, 127
1, 213100, Note_off_c, 0, 60, 127
1, 213101, Note_on_c, 1, 61, 127
1, 213237, Note_off_c, 1, 61, 127
1, 213237, Note_off_c, 3, 75, 127
1, 213238, Note_on_c, 0, 60, 127
1, 213238, Note_on_c, 1, 73, 127
1, 213374, Note_off_c, 0, 60, 127
1, 213375, Note_on_c, 1, 61, 127
1, 213511, Note_off_c, 1, 61, 127
1, 213511, Note_off_c, 1, 73, 127
1, 213512, Note_on_c, 3, 63, 127
1, 213512, Note_on_c, 0, 72, 127
1, 213648, Note_off_c, 3, 63, 127
1, 213649, Note_on_c, 4, 64, 127
1, 213785, Note_off_c, 4, 64, 127
1, 213785, Note_off_c, 0, 72, 127
1, 213786, Note_on_c, 3, 63, 127
1, 213786, Note_on_c, 11, 70, 127
1, 213922, Note_off_c, 3, 63, 127
1, 213923, Note_on_c, 4, 64, 127
1, 214059, Note_off_c, 4, 64, 127
1, 214059, Note_off_c, 11, 70, 127
1, 214060, Note_on_c, 6, 66, 127
1, 214060, Note_on_c, 8, 68, 127
1, 214196, Note_off_c, 6, 66, 127
1, 214197, Note_on_c, 0, 60, 127
1, 214333, Note_off_c, 0, 60, 127
1, 214333, Note_off_c, 8, 68, 127
1, 214334, Note_on_c, 1, 61, 127
1, 214334, Note_on_c, 4, 76, 127
1, 214470, Note_off_c, 1, 61, 127
1, 214471, Note_on_c, 3, 63, 127
1, 214607, Note_off_c, 3, 63, 127
1, 214607, Note_off_c, 4, 76, 127
1, 214608, Note_on_c, 1, 61, 127
1, 214608, Note_on_c, 4, 76, 127
1, 214677, Note_off_c, 4, 76, 127
1, 214688, Note_on_c, 3, 75, 127
1, 214757, Note_off_c, 3, 75, 127
1, 214757, Note_on_c, 4, 76, 127
1, 214826, Note_off_c, 4, 76, 127
1, 214826, Note_on_c, 3, 75, 127
1, 215019, Note_off_c, 1, 61, 127
1, 215020, Note_on_c, 0, 60, 127
1, 215134, Note_off_c, 3, 75, 127
1, 215155, Note_off_c, 0, 60, 127
1, 215156, Note_on_c, 1, 61, 127
1, 215156, Note_on_c, 1, 73, 127
1, 215292, Note_off_c, 1, 61, 127
1, 215293, Note_on_c, 3, 63, 127
1, 215429, Note_off_c, 3, 63, 127
1, 215430, Note_on_c, 1, 61, 127
1, 215556, Note_off_c, 1, 73, 127
1, 215566, Note_off_c, 1, 61, 127
1, 215567, Note_on_c, 3, 63, 127
1, 215703, Note_off_c, 3, 63, 127
1, 215704, Note_on_c, 4, 64, 127
1, 215704, Note_on_c, 8, 68, 127
1, 215840, Note_off_c, 8, 68, 127
1, 215841, Note_on_c, 11, 70, 127
1, 215977, Note_off_c, 11, 70, 127
1, 215978, Note_on_c, 8, 68, 127
1, 216114, Note_off_c, 8, 68, 127
1, 216115, Note_on_c, 11, 70, 127
1, 216246, Note_off_c, 4, 64, 127
1, 216250, Note_off_c, 11, 70, 127
1, 216251, Note_on_c, 12, 71, 127
1, 216388, Note_on_c, 3, 63, 127
1, 216524, Note_off_c, 3, 63, 127
1, 216525, Note_on_c, 4, 64, 127
1, 216661, Note_off_c, 4, 64, 127
1, 216662, Note_on_c, 6, 66, 127
1, 216793, Note_off_c, 12, 71, 127
1, 216797, Note_off_c, 6, 66, 127
1, 216798, Note_on_c, 8, 68, 127
1, 216927, Note_off_c, 8, 68, 127
1, 216936, Note_on_c, 8, 68, 127
1, 217072, Note_off_c, 8, 68, 127
1, 217073, Note_on_c, 6, 66, 127
1, 217073, Note_on_c, 10, 69, 127
1, 217209, Note_off_c, 10, 69, 127
1, 217210, Note_on_c, 12, 71, 127
1, 217346, Note_off_c, 12, 71, 127
1, 217346, Note_off_c, 6, 66, 127
1, 217347, Note_on_c, 5, 65, 127
1, 217347, Note_on_c, 1, 73, 127
1, 217483, Note_off_c, 5, 65, 127
1, 217484, Note_on_c, 1, 61, 127
1, 217620, Note_off_c, 1, 61, 127
1, 217620, Note_off_c, 1, 73, 127
1, 217621, Note_on_c, 3, 63, 127
1, 217621, Note_on_c, 12, 71, 127
1, 217757, Note_off_c, 3, 63, 127
1, 217758, Note_on_c, 5, 65, 127
1, 217894, Note_off_c, 5, 65, 127
1, 217894, Note_off_c, 12, 71, 127
1, 217895, Note_on_c, 6, 66, 127
1, 217895, Note_on_c, 10, 69, 127
1, 218031, Note_off_c, 10, 69, 127
1, 218032, Note_on_c, 1, 73, 127
1, 218168, Note_off_c, 1, 73, 127
1, 218168, Note_off_c, 6, 66, 127
1, 218169, Note_on_c, 4, 64, 127
1, 218169, Note_on_c, 2, 74, 127
1, 218305, Note_off_c, 2, 74, 127
1, 218306, Note_on_c, 4, 76, 127
1, 218442, Note_off_c, 4, 76, 127
1, 218442, Note_off_c, 4, 64, 127
1, 218443, Note_on_c, 2, 62, 127
1, 218443, Note_on_c, 6, 78, 127
1, 218579, Note_off_c, 2, 62, 127
1, 218580, Note_on_c, 6, 66, 127
1, 218716, Note_off_c, 6, 66, 127
1, 218716, Note_off_c, 6, 78, 127
1, 218717, Note_on_c, 8, 68, 127
1, 218717, Note_on_c, 4, 76, 127
1, 218853, Note_off_c, 8, 68, 127
1, 218854, Note_on_c, 11, 70, 127
1, 218990, Note_off_c, 11, 70, 127
1, 218990, Note_off_c, 4, 76, 127
1, 218991, Note_on_c, 12, 71, 127
1, 218991, Note_on_c, 2, 74, 127
1, 219127, Note_off_c, 2, 74, 127
1, 219128, Note_on_c, 6, 78, 127
1, 219264, Note_off_c, 6, 78, 127
1, 219264, Note_off_c, 12, 71, 127
1, 219265, Note_on_c, 10, 69, 127
1, 219265, Note_on_c, 8, 80, 127
1, 219401, Note_off_c, 8, 80, 127
1, 219402, Note_on_c, 10, 81, 127
1, 219538, Note_off_c, 10, 81, 127
1, 219538, Note_off_c, 10, 69, 127
1, 219539, Note_on_c, 8, 68, 127
1, 219539, Note_on_c, 12, 83, 127
1, 219675, Note_off_c, 8, 68, 127
1, 219676, Note_on_c, 3, 75, 127
1, 219812, Note_off_c, 3, 75, 127
1, 219813, Note_on_c, 4, 76, 127
1, 219949, Note_off_c, 4, 76, 127
1, 219950, Note_on_c, 6, 78, 127
1, 220086, Note_off_c, 6, 78, 127
1, 220087, Note_on_c, 8, 80, 127
1, 220223, Note_off_c, 8, 80, 127
1, 220224, Note_on_c, 6, 78, 127
1, 220360, Note_off_c, 6, 78, 127
1, 220361, Note_on_c, 8, 80, 127
1, 220497, Note_off_c, 8, 80, 127
1, 220498, Note_on_c, 6, 78, 127
1, 220634, Note_off_c, 6, 78, 127
1, 220635, Note_on_c, 5, 77, 127
1, 220771, Note_off_c, 5, 77, 127
1, 220772, Note_on_c, 1, 73, 127
1, 220908, Note_off_c, 1, 73, 127
1, 220909, Note_on_c, 3, 75, 127
1, 221045, Note_off_c, 3, 75, 127
1, 221046, Note_on_c, 5, 77, 127
1, 221180, Note_off_c, 12, 83, 127
1, 221181, Note_off_c, 5, 77, 127
1, 221182, Note_on_c, 6, 78, 127
1, 221319, Note_on_c, 10, 81, 127
1, 221455, Note_off_c, 10, 81, 127
1, 221455, Note_off_c, 6, 78, 127
1, 221456, Note_on_c, 12, 71, 127
1, 221456, Note_on_c, 8, 80, 127
1, 221592, Note_off_c, 8, 80, 127
1, 221593, Note_on_c, 6, 78, 127
1, 221729, Note_off_c, 6, 78, 127
1, 221730, Note_on_c, 5, 77, 127
1, 221866, Note_off_c, 12, 71, 127
1, 221867, Note_on_c, 10, 69, 127
1, 222003, Note_off_c, 10, 69, 127
1, 222003, Note_off_c, 5, 77, 127
1, 222004, Note_on_c, 8, 68, 127
1, 222004, Note_on_c, 6, 78, 127
1, 222140, Note_off_c, 8, 68, 127
1, 222141, Note_on_c, 6, 66, 127
1, 222277, Note_off_c, 6, 66, 127
1, 222277, Note_off_c, 6, 78, 127
1, 222278, Note_on_c, 5, 65, 127
1, 222278, Note_on_c, 8, 80, 127
1, 222414, Note_off_c, 8, 80, 127
1, 222415, Note_on_c, 2, 74, 127
1, 222551, Note_off_c, 2, 74, 127
1, 222551, Note_off_c, 5, 65, 127
1, 222552, Note_on_c, 1, 61, 127
1, 222552, Note_on_c, 1, 73, 127
1, 222688, Note_off_c, 1, 73, 127
1, 222689, Note_on_c, 12, 71, 127
1, 222825, Note_off_c, 12, 71, 127
1, 222825, Note_off_c, 1, 61, 127
1, 222826, Note_on_c, 6, 66, 127
1, 222826, Note_on_c, 10, 69, 127
1, 222962, Note_off_c, 6, 66, 127
1, 222963, Note_on_c, 1, 61, 127
1, 223099, Note_off_c, 1, 61, 127
1, 223099, Note_off_c, 10, 69, 127
1, 223100, Note_on_c, 12, 59, 127
1, 223100, Note_on_c, 8, 68, 127
1, 223236, Note_off_c, 8, 68, 127
1, 223236, Note_off_c, 12, 59, 127
1, 223237, Note_on_c, 10, 57, 127
1, 223237, Note_on_c, 6, 66, 127
1, 223373, Note_off_c, 6, 66, 127
1, 223373, Note_off_c, 10, 57, 127
1, 223374, Note_on_c, 8, 56, 127
1, 223374, Note_on_c, 5, 65, 127
1, 223647, Note_off_c, 5, 65, 127
1, 223648, Note_on_c, 1, 49, 127
1, 223648, Note_on_c, 5, 65, 127
1, 223784, Note_off_c, 5, 65, 127
1, 223785, Note_on_c, 6, 66, 127
1, 223916, Note_off_c, 8, 56, 127
1, 223920, Note_off_c, 6, 66, 127
1, 223920, Note_off_c, 1, 49, 127
1, 223921, Note_on_c, 2, 50, 127
1, 223921, Note_on_c, 6, 54, 127
1, 223921, Note_on_c, 6, 66, 127
1, 224057, Note_off_c, 6, 66, 127
1, 224058, Note_on_c, 10, 69, 127
1, 224194, Note_off_c, 10, 69, 127
1, 224194, Note_off_c, 2, 50, 127
1, 224195, Note_on_c, 1, 49, 127
1, 224195, Note_on_c, 12, 71, 127
1, 224331, Note_off_c, 12, 71, 127
1, 224332, Note_on_c, 1, 73, 127
1, 224468, Note_off_c, 1, 73, 127
1, 224468, Note_off_c, 1, 49, 127
1, 224469, Note_on_c, 12, 47, 127
1, 224469, Note_on_c, 2, 74, 127
1, 224605, Note_off_c, 2, 74, 127
1, 224606, Note_on_c, 1, 73, 127
1, 224742, Note_off_c, 1, 73, 127
1, 224742, Note_off_c, 12, 47, 127
1, 224743, Note_on_c, 10, 45, 127
1, 224743, Note_on_c, 2, 74, 127
1, 224879, Note_off_c, 2, 74, 127
1, 224880, Note_on_c, 1, 73, 127
1, 225016, Note_off_c, 1, 73, 127
1, 225016, Note_off_c, 10, 45, 127
1, 225016, Note_off_c, 6, 54, 127
1, 225017, Note_on_c, 8, 44, 127
1, 225017, Note_on_c, 5, 53, 127
1, 225017, Note_on_c, 12, 71, 127
1, 225153, Note_off_c, 12, 71, 127
1, 225154, Note_on_c, 10, 69, 127
1, 225290, Note_off_c, 10, 69, 127
1, 225290, Note_off_c, 5, 53, 127
1, 225290, Note_off_c, 8, 44, 127
1, 225291, Note_on_c, 6, 42, 127
1, 225291, Note_on_c, 6, 54, 127
1, 225291, Note_on_c, 12, 71, 127
1, 225427, Note_off_c, 12, 71, 127
1, 225428, Note_on_c, 10, 69, 127
1, 225564, Note_off_c, 10, 69, 127
1, 225564, Note_off_c, 6, 54, 127
1, 225564, Note_off_c, 6, 42, 127
1, 225565, Note_on_c, 5, 41, 127
1, 225565, Note_on_c, 1, 49, 127
1, 225565, Note_on_c, 8, 68, 127
1, 225701, Note_off_c, 8, 68, 127
1, 225702, Note_on_c, 6, 66, 127
1, 225838, Note_off_c, 6, 66, 127
1, 225838, Note_off_c, 1, 49, 127
1, 225838, Note_off_c, 5, 41, 127
1, 225839, Note_on_c, 3, 39, 127
1, 225839, Note_on_c, 0, 48, 127
1, 225839, Note_on_c, 8, 68, 127
1, 225975, Note_off_c, 8, 68, 127
1, 225982, Note_on_c, 6, 66, 127
1, 226112, Note_off_c, 0, 48, 127
1, 226112, Note_off_c, 3, 39, 127
1, 226123, Note_off_c, 6, 66, 127
1, 226126, Note_on_c, 5, 65, 127
1, 226126, Note_on_c, 1, 49, 127
1, 226126, Note_on_c, 1, 37, 127
1, 226267, Note_off_c, 1, 49, 127
1, 226270, Note_on_c, 8, 56, 127
1, 226411, Note_off_c, 8, 56, 127
1, 226412, Note_on_c, 10, 57, 127
1, 226553, Note_off_c, 10, 57, 127
1, 226556, Note_on_c, 12, 59, 127
1, 226697, Note_off_c, 12, 59, 127
1, 226700, Note_on_c, 1, 61, 127
1, 226841, Note_off_c, 5, 65, 127
1, 226844, Note_on_c, 5, 65, 127
1, 226985, Note_off_c, 5, 65, 127
1, 226988, Note_on_c, 6, 66, 127
1, 227129, Note_off_c, 6, 66, 127
1, 227130, Note_on_c, 8, 68, 127
1, 227271, Note_off_c, 8, 68, 127
1, 227274, Note_on_c, 10, 69, 127
1, 227415, Note_off_c, 1, 61, 127
1, 227418, Note_on_c, 1, 61, 127
1, 227559, Note_off_c, 1, 61, 127
1, 227562, Note_on_c, 6, 66, 127
1, 227703, Note_off_c, 10, 69, 127
1, 227706, Note_on_c, 10, 69, 127
1, 227847, Note_off_c, 10, 69, 127
1, 227848, Note_on_c, 8, 68, 127
1, 227991, Note_off_c, 6, 66, 127
1, 227991, Note_off_c, 1, 37, 127
1, 227992, Note_on_c, 5, 65, 127
1, 227992, Note_on_c, 1, 49, 127
1, 228133, Note_off_c, 1, 49, 127
1, 228133, Note_off_c, 5, 65, 127
1, 228133, Note_off_c, 8, 68, 127
1, 228136, Note_on_c, 1, 73, 127
1, 228136, Note_on_c, 6, 66, 127
1, 228136, Note_on_c, 3, 51, 127
1, 228277, Note_off_c, 3, 51, 127
1, 228277, Note_off_c, 6, 66, 127
1, 228280, Note_on_c, 8, 68, 127
1, 228280, Note_on_c, 5, 53, 127
1, 228421, Note_off_c, 5, 53, 127
1, 228421, Note_off_c, 8, 68, 127
1, 228421, Note_off_c, 1, 73, 127
1, 228424, Note_on_c, 10, 69, 127
1, 228424, Note_on_c, 1, 61, 127
1, 228424, Note_on_c, 6, 54, 127
1, 228565, Note_off_c, 6, 54, 127
1, 228566, Note_on_c, 4, 52, 127
1, 228707, Note_off_c, 4, 52, 127
1, 228708, Note_off_c, 1, 61, 127
1, 228708, Note_off_c, 10, 69, 127
1, 228709, Note_on_c, 11, 70, 127
1, 228709, Note_on_c, 1, 61, 127
1, 228709, Note_on_c, 6, 54, 127
1, 228850, Note_off_c, 6, 54, 127
1, 228853, Note_on_c, 4, 52, 127
1, 228994, Note_off_c, 4, 52, 127
1, 228994, Note_off_c, 1, 61, 127
1, 228994, Note_off_c, 11, 70, 127
1, 228997, Note_on_c, 12, 71, 127
1, 228997, Note_on_c, 2, 62, 127
1, 228997, Note_on_c, 2, 50, 127
1, 229138, Note_off_c, 2, 50, 127
1, 229141, Note_on_c, 1, 49, 127
1, 229282, Note_off_c, 1, 49, 127
1, 229282, Note_off_c, 2, 62, 127
1, 229282, Note_off_c, 12, 71, 127
1, 229283, Note_on_c, 1, 73, 127
1, 229283, Note_on_c, 4, 64, 127
1, 229283, Note_on_c, 2, 50, 127
1, 229424, Note_off_c, 2, 50, 127
1, 229427, Note_on_c, 1, 49, 127
1, 229568, Note_off_c, 1, 49, 127
1, 229568, Note_off_c, 4, 64, 127
1, 229568, Note_off_c, 1, 73, 127
1, 229571, Note_on_c, 2, 74, 127
1, 229571, Note_on_c, 6, 66, 127
1, 229571, Note_on_c, 12, 47, 127
1, 229712, Note_off_c, 12, 47, 127
1, 229715, Note_on_c, 10, 45, 127
1, 229856, Note_off_c, 10, 45, 127
1, 229856, Note_off_c, 6, 66, 127
1, 229856, Note_off_c, 2, 74, 127
1, 229859, Note_on_c, 3, 75, 127
1, 229859, Note_on_c, 6, 66, 127
1, 229859, Note_on_c, 12, 47, 127
1, 230000, Note_off_c, 12, 47, 127
1, 230001, Note_on_c, 10, 45, 127
1, 230142, Note_off_c, 10, 45, 127
1, 230143, Note_off_c, 6, 66, 127
1, 230143, Note_off_c, 3, 75, 127
1, 230144, Note_on_c, 5, 77, 127
1, 230144, Note_on_c, 8, 68, 127
1, 230144, Note_on_c, 8, 44, 127
1, 230285, Note_off_c, 8, 44, 127
1, 230288, Note_on_c, 6, 42, 127
1, 230429, Note_off_c, 6, 42, 127
1, 230429, Note_off_c, 8, 68, 127
1, 230429, Note_off_c, 5, 77, 127
1, 230432, Note_on_c, 6, 78, 127
1, 230432, Note_on_c, 10, 69, 127
1, 230432, Note_on_c, 5, 41, 127
1, 230573, Note_off_c, 5, 41, 127
1, 230580, Note_on_c, 6, 42, 127
1, 230716, Note_off_c, 10, 69, 127
1, 230716, Note_off_c, 6, 78, 127
1, 230729, Note_off_c, 6, 42, 127
1, 230732, Note_on_c, 0, 36, 127
1, 230883, Note_on_c, 6, 78, 127
1, 231032, Note_off_c, 6, 78, 127
1, 231033, Note_on_c, 10, 81, 127
1, 231182, Note_off_c, 10, 81, 127
1, 231185, Note_on_c, 8, 80, 127
1, 231329, Note_off_c, 0, 36, 127
1, 231333, Note_off_c, 8, 80, 127
1, 231334, Note_on_c, 6, 78, 127
1, 231483, Note_off_c, 6, 78, 127
1, 231486, Note_on_c, 5, 77, 127
1, 231635, Note_off_c, 5, 77, 127
1, 231638, Note_on_c, 6, 78, 127
1, 231788, Note_on_c, 1, 73, 127
1, 231937, Note_off_c, 1, 73, 127
1, 231940, Note_on_c, 3, 75, 127
1, 232090, Note_on_c, 6, 66, 127
1, 232239, Note_off_c, 6, 66, 127
1, 232242, Note_on_c, 10, 69, 127
1, 232391, Note_off_c, 10, 69, 127
1, 232391, Note_off_c, 6, 78, 127
1, 232394, Note_on_c, 8, 68, 127
1, 232394, Note_on_c, 8, 80, 127
1, 232543, Note_off_c, 8, 80, 127
1, 232543, Note_off_c, 8, 68, 127
1, 232544, Note_on_c, 6, 66, 127
1, 232544, Note_on_c, 10, 81, 127
1, 232693, Note_off_c, 10, 81, 127
1, 232693, Note_off_c, 6, 66, 127
1, 232696, Note_on_c, 5, 65, 127
1, 232696, Note_on_c, 8, 80, 127
1, 232845, Note_off_c, 8, 80, 127
1, 232845, Note_off_c, 5, 65, 127
1, 232846, Note_on_c, 6, 66, 127
1, 232846, Note_on_c, 10, 81, 127
1, 232997, Note_on_c, 0, 60, 127
1, 233146, Note_off_c, 0, 60, 127
1, 233146, Note_off_c, 3, 75, 127
1, 233149, Note_on_c, 1, 73, 127
1, 233149, Note_on_c, 1, 61, 127
1, 233286, Note_off_c, 6, 66, 127
1, 233296, Note_off_c, 10, 81, 127
1, 233299, Note_on_c, 6, 66, 127
1, 233299, Note_on_c, 10, 81, 127
1, 233448, Note_off_c, 10, 81, 127
1, 233448, Note_off_c, 6, 66, 127
1, 233451, Note_on_c, 8, 68, 127
1, 233451, Note_on_c, 8, 80, 127
1, 233600, Note_off_c, 8, 80, 127
1, 233600, Note_off_c, 8, 68, 127
1, 233601, Note_on_c, 10, 69, 127
1, 233601, Note_on_c, 6, 78, 127
1, 233750, Note_off_c, 6, 78, 127
1, 233750, Note_off_c, 10, 69, 127
1, 233753, Note_on_c, 12, 71, 127
1, 233753, Note_on_c, 5, 77, 127
1, 233902, Note_off_c, 1, 61, 127
1, 233902, Note_off_c, 1, 73, 127
1, 233905, Note_on_c, 2, 74, 127
1, 234054, Note_off_c, 2, 74, 127
1, 234055, Note_on_c, 1, 73, 127
1, 234194, Note_off_c, 12, 71, 127
1, 234204, Note_off_c, 1, 73, 127
1, 234213, Note_on_c, 12, 71, 127
1, 234369, Note_off_c, 12, 71, 127
1, 234370, Note_on_c, 11, 70, 127
1, 234370, Note_on_c, 6, 54, 127
1, 234506, Note_off_c, 5, 77, 127
1, 234529, Note_on_c, 1, 73, 127
1, 234685, Note_off_c, 1, 73, 127
1, 234686, Note_on_c, 6, 78, 127
1, 234842, Note_off_c, 6, 78, 127
1, 234843, Note_on_c, 4, 76, 127
1, 234999, Note_off_c, 4, 76, 127
1, 235002, Note_on_c, 2, 74, 127
1, 235158, Note_off_c, 2, 74, 127
1, 235159, Note_on_c, 1, 73, 127
1, 235315, Note_off_c, 1, 73, 127
1, 235318, Note_on_c, 2, 74, 127
1, 235474, Note_off_c, 2, 74, 127
1, 235475, Note_on_c, 12, 71, 127
1, 235631, Note_off_c, 12, 71, 127
1, 235632, Note_on_c, 1, 73, 127
1, 235788, Note_off_c, 11, 70, 127
1, 235791, Note_on_c, 1, 61, 127
1, 235947, Note_off_c, 1, 61, 127
1, 235948, Note_on_c, 6, 66, 127
1, 235948, Note_on_c, 11, 70, 127
1, 236104, Note_off_c, 6, 66, 127
1, 236107, Note_on_c, 4, 64, 127
1, 236260, Note_off_c, 11, 70, 127
1, 236263, Note_off_c, 4, 64, 127
1, 236264, Note_on_c, 2, 62, 127
1, 236264, Note_on_c, 6, 66, 127
1, 236420, Note_off_c, 2, 62, 127
1, 236421, Note_on_c, 1, 61, 127
1, 236577, Note_off_c, 1, 61, 127
1, 236577, Note_off_c, 1, 73, 127
1, 236580, Note_on_c, 12, 71, 127
1, 236580, Note_on_c, 2, 62, 127
1, 236736, Note_off_c, 2, 62, 127
1, 236737, Note_on_c, 12, 59, 127
1, 236893, Note_off_c, 12, 59, 127
1, 236896, Note_on_c, 1, 61, 127
1, 237050, Note_off_c, 6, 54, 127
1, 237053, Note_on_c, 1, 49, 127
1, 237209, Note_off_c, 1, 49, 127
1, 237209, Note_off_c, 12, 71, 127
1, 237210, Note_on_c, 11, 70, 127
1, 237210, Note_on_c, 6, 54, 127
1, 237366, Note_off_c, 6, 54, 127
1, 237369, Note_on_c, 4, 52, 127
1, 237523, Note_off_c, 11, 70, 127
1, 237524, Note_off_c, 4, 52, 127
1, 237524, Note_off_c, 1, 61, 127
1, 237524, Note_off_c, 6, 66, 127
1, 237525, Note_on_c, 12, 71, 127
1, 237525, Note_on_c, 6, 66, 127
1, 237525, Note_on_c, 2, 62, 127
1, 237525, Note_on_c, 2, 50, 127
1, 237681, Note_off_c, 2, 50, 127
1, 237684, Note_on_c, 1, 49, 127
1, 237840, Note_off_c, 1, 49, 127
1, 237841, Note_on_c, 2, 50, 127
1, 237997, Note_off_c, 2, 50, 127
1, 237997, Note_off_c, 2, 62, 127
1, 237997, Note_off_c, 6, 66, 127
1, 237997, Note_off_c, 12, 71, 127
1, 238006, Note_on_c, 12, 47, 127
1, 238169, Note_off_c, 12, 47, 127
1, 238170, Note_on_c, 1, 49, 127
1, 238336, Note_on_c, 10, 57, 127
1, 238336, Note_on_c, 6, 66, 127
1, 238499, Note_off_c, 6, 66, 127
1, 238499, Note_off_c, 10, 57, 127
1, 238500, Note_on_c, 8, 56, 127
1, 238500, Note_on_c, 8, 68, 127
1, 238663, Note_off_c, 8, 68, 127
1, 238663, Note_off_c, 8, 56, 127
1, 238664, Note_on_c, 6, 54, 127
1, 238664, Note_on_c, 10, 69, 127
1, 238827, Note_off_c, 10, 69, 127
1, 238827, Note_off_c, 6, 54, 127
1, 238828, Note_on_c, 5, 53, 127
1, 238828, Note_on_c, 12, 71, 127
1, 238991, Note_off_c, 5, 53, 127
1, 238992, Note_on_c, 5, 65, 127
1, 238992, Note_on_c, 8, 56, 127
1, 239155, Note_off_c, 8, 56, 127
1, 239155, Note_off_c, 5, 65, 127
1, 239158, Note_on_c, 6, 66, 127
1, 239158, Note_on_c, 6, 54, 127
1, 239321, Note_off_c, 6, 54, 127
1, 239321, Note_off_c, 6, 66, 127
1, 239322, Note_on_c, 8, 68, 127
1, 239322, Note_on_c, 5, 53, 127
1, 239483, Note_off_c, 12, 71, 127
1, 239483, Note_off_c, 1, 49, 127
1, 239484, Note_off_c, 5, 53, 127
1, 239484, Note_off_c, 8, 68, 127
1, 239485, Note_on_c, 6, 42, 127
1, 239485, Note_on_c, 6, 54, 127
1, 239485, Note_on_c, 11, 70, 127
1, 239649, Note_on_c, 8, 68, 127
1, 239812, Note_off_c, 8, 68, 127
1, 239813, Note_on_c, 6, 66, 127
1, 239976, Note_off_c, 6, 66, 127
1, 239979, Note_on_c, 5, 65, 127
1, 240142, Note_off_c, 5, 65, 127
1, 240143, Note_on_c, 6, 66, 127
1, 240342, Note_on_c, 0, 60, 127
1, 240539, Note_off_c, 0, 60, 127
1, 240604, Note_on_c, 1, 61, 127
1, 240624, Note_off_c, 6, 66, 127
1, 241457, Note_off_c, 11, 70, 127
1, 241457, Note_off_c, 6, 54, 127
1, 241457, Note_off_c, 6, 42, 127
1, 241551, Note_off_c, 1, 61, 127
1, 242031, Note_on_c, 1, 73, 127
1, 242031, Note_on_c, 7, 67, 127
1, 242031, Note_on_c, 3, 51, 127
1, 242170, Note_on_c, 11, 58, 127
1, 242307, Note_off_c, 11, 58, 127
1, 242310, Note_on_c, 3, 63, 127
1, 242439, Note_off_c, 3, 51, 127
1, 242449, Note_off_c, 7, 67, 127
1, 242450, Note_on_c, 8, 68, 127
1, 242450, Note_on_c, 5, 53, 127
1, 242587, Note_off_c, 5, 53, 127
1, 242587, Note_off_c, 8, 68, 127
1, 242590, Note_on_c, 11, 70, 127
1, 242590, Note_on_c, 7, 55, 127
1, 242729, Note_off_c, 1, 73, 127
1, 242730, Note_on_c, 1, 73, 127
1, 242863, Note_off_c, 3, 63, 127
1, 242867, Note_off_c, 1, 73, 127
1, 242867, Note_off_c, 7, 55, 127
1, 242867, Note_off_c, 11, 70, 127
1, 242870, Note_on_c, 3, 75, 127
1, 242870, Note_on_c, 11, 70, 127
1, 242870, Note_on_c, 3, 63, 127
1, 242870, Note_on_c, 7, 55, 127
1, 243000, Note_off_c, 11, 70, 127
1, 243007, Note_off_c, 3, 75, 127
1, 243010, Note_on_c, 11, 70, 127
1, 243147, Note_off_c, 11, 70, 127
1, 243147, Note_off_c, 7, 55, 127
1, 243147, Note_off_c, 3, 63, 127
1, 243150, Note_on_c, 12, 71, 127
1, 243150, Note_on_c, 8, 68, 127
1, 243150, Note_on_c, 3, 63, 127
1, 243150, Note_on_c, 8, 56, 127
1, 243287, Note_off_c, 12, 71, 127
1, 243290, Note_on_c, 3, 75, 127
1, 243427, Note_off_c, 3, 75, 127
1, 243430, Note_on_c, 8, 80, 127
1, 243567, Note_off_c, 8, 80, 127
1, 243570, Note_on_c, 3, 75, 127
1, 243703, Note_off_c, 8, 56, 127
1, 243703, Note_off_c, 3, 63, 127
1, 243703, Note_off_c, 8, 68, 127
1, 243707, Note_off_c, 3, 75, 127
1, 243710, Note_on_c, 12, 71, 127
1, 243847, Note_off_c, 12, 71, 127
1, 243848, Note_on_c, 3, 75, 127
1, 243985, Note_off_c, 3, 75, 127
1, 243988, Note_on_c, 8, 68, 127
1, 244125, Note_off_c, 8, 68, 127
1, 244128, Note_on_c, 12, 71, 127
1, 244195, Note_off_c, 12, 71, 127
1, 244198, Note_on_c, 11, 70, 127
1, 244265, Note_off_c, 11, 70, 127
1, 244268, Note_on_c, 12, 71, 127
1, 244268, Note_on_c, 5, 65, 127
1, 244268, Note_on_c, 1, 49, 127
1, 244408, Note_on_c, 8, 56, 127
1, 244545, Note_off_c, 8, 56, 127
1, 244548, Note_on_c, 1, 61, 127
1, 244675, Note_off_c, 5, 65, 127
1, 244685, Note_off_c, 1, 49, 127
1, 244688, Note_on_c, 6, 66, 127
1, 244688, Note_on_c, 3, 51, 127
1, 244825, Note_off_c, 3, 51, 127
1, 244825, Note_off_c, 6, 66, 127
1, 244828, Note_on_c, 8, 68, 127
1, 244828, Note_on_c, 5, 53, 127
1, 244965, Note_off_c, 12, 71, 127
1, 244968, Note_on_c, 12, 71, 127
1, 245101, Note_off_c, 1, 61, 127
1, 245105, Note_off_c, 12, 71, 127
1, 245105, Note_off_c, 5, 53, 127
1, 245105, Note_off_c, 8, 68, 127
1, 245108, Note_on_c, 1, 73, 127
1, 245108, Note_on_c, 1, 61, 127
1, 245108, Note_on_c, 8, 68, 127
1, 245108, Note_on_c, 5, 53, 127
1, 245238, Note_off_c, 8, 68, 127
1, 245245, Note_off_c, 1, 73, 127
1, 245248, Note_on_c, 8, 68, 127
1, 245385, Note_off_c, 8, 68, 127
1, 245385, Note_off_c, 5, 53, 127
1, 245385, Note_off_c, 1, 61, 127
1, 245388, Note_on_c, 10, 69, 127
1, 245388, Note_on_c, 1, 61, 127
1, 245388, Note_on_c, 6, 66, 127
1, 245388, Note_on_c, 6, 54, 127
1, 245525, Note_off_c, 10, 69, 127
1, 245528, Note_on_c, 1, 73, 127
1, 245665, Note_off_c, 1, 73, 127
1, 245666, Note_on_c, 6, 78, 127
1, 245803, Note_off_c, 6, 78, 127
1, 245806, Note_on_c, 1, 73, 127
1, 245940, Note_off_c, 6, 54, 127
1, 245940, Note_off_c, 6, 66, 127
1, 245940, Note_off_c, 1, 61, 127
1, 245943, Note_off_c, 1, 73, 127
1, 245946, Note_on_c, 10, 69, 127
1, 246083, Note_off_c, 10, 69, 127
1, 246086, Note_on_c, 1, 73, 127
1, 246223, Note_off_c, 1, 73, 127
1, 246226, Note_on_c, 6, 66, 127
1, 246363, Note_off_c, 6, 66, 127
1, 246366, Note_on_c, 10, 69, 127
1, 246433, Note_off_c, 10, 69, 127
1, 246436, Note_on_c, 7, 67, 127
1, 246503, Note_off_c, 7, 67, 127
1, 246506, Note_on_c, 7, 67, 127
1, 246506, Note_on_c, 1, 61, 127
1, 246506, Note_on_c, 10, 45, 127
1, 246646, Note_on_c, 4, 52, 127
1, 246783, Note_off_c, 4, 52, 127
1, 246786, Note_on_c, 10, 57, 127
1, 246913, Note_off_c, 1, 61, 127
1, 246923, Note_off_c, 10, 45, 127
1, 246926, Note_on_c, 2, 62, 127
1, 246926, Note_on_c, 12, 47, 127
1, 247063, Note_off_c, 12, 47, 127
1, 247063, Note_off_c, 2, 62, 127
1, 247066, Note_on_c, 4, 64, 127
1, 247066, Note_on_c, 1, 49, 127
1, 247203, Note_off_c, 7, 67, 127
1, 247206, Note_on_c, 7, 67, 127
1, 247339, Note_off_c, 10, 57, 127
1, 247343, Note_off_c, 7, 67, 127
1, 247343, Note_off_c, 1, 49, 127
1, 247343, Note_off_c, 4, 64, 127
1, 247344, Note_on_c, 10, 69, 127
1, 247344, Note_on_c, 10, 57, 127
1, 247344, Note_on_c, 4, 64, 127
1, 247344, Note_on_c, 1, 49, 127
1, 247474, Note_off_c, 4, 64, 127
1, 247481, Note_off_c, 10, 69, 127
1, 247484, Note_on_c, 4, 64, 127
1, 247621, Note_off_c, 4, 64, 127
1, 247621, Note_off_c, 1, 49, 127
1, 247621, Note_off_c, 10, 57, 127
1, 247624, Note_on_c, 6, 66, 127
1, 247624, Note_on_c, 10, 57, 127
1, 247624, Note_on_c, 2, 62, 127
1, 247624, Note_on_c, 2, 50, 127
1, 247761, Note_off_c, 6, 66, 127
1, 247764, Note_on_c, 10, 69, 127
1, 247901, Note_off_c, 10, 69, 127
1, 247904, Note_on_c, 2, 74, 127
1, 248041, Note_off_c, 2, 74, 127
1, 248044, Note_on_c, 10, 69, 127
1, 248177, Note_off_c, 2, 50, 127
1, 248177, Note_off_c, 2, 62, 127
1, 248177, Note_off_c, 10, 57, 127
1, 248181, Note_off_c, 10, 69, 127
1, 248184, Note_on_c, 6, 66, 127
1, 248321, Note_off_c, 6, 66, 127
1, 248324, Note_on_c, 10, 69, 127
1, 248461, Note_off_c, 10, 69, 127
1, 248464, Note_on_c, 2, 62, 127
1, 248601, Note_off_c, 2, 62, 127
1, 248604, Note_on_c, 10, 69, 127
1, 248671, Note_off_c, 10, 69, 127
1, 248674, Note_on_c, 8, 68, 127
1, 248741, Note_off_c, 8, 68, 127
1, 248744, Note_on_c, 10, 69, 127
1, 248744, Note_on_c, 3, 63, 127
1, 248744, Note_on_c, 12, 47, 127
1, 248884, Note_on_c, 6, 54, 127
1, 249021, Note_off_c, 6, 54, 127
1, 249024, Note_on_c, 12, 59, 127
1, 249151, Note_off_c, 3, 63, 127
1, 249161, Note_off_c, 12, 47, 127
1, 249162, Note_on_c, 4, 64, 127
1, 249162, Note_on_c, 1, 49, 127
1, 249299, Note_off_c, 1, 49, 127
1, 249299, Note_off_c, 4, 64, 127
1, 249302, Note_on_c, 6, 66, 127
1, 249302, Note_on_c, 3, 51, 127
1, 249441, Note_off_c, 10, 69, 127
1, 249442, Note_on_c, 10, 69, 127
1, 249576, Note_off_c, 12, 59, 127
1, 249579, Note_off_c, 10, 69, 127
1, 249579, Note_off_c, 3, 51, 127
1, 249579, Note_off_c, 6, 66, 127
1, 249582, Note_on_c, 12, 71, 127
1, 249582, Note_on_c, 12, 59, 127
1, 249582, Note_on_c, 6, 66, 127
1, 249582, Note_on_c, 3, 51, 127
1, 249712, Note_off_c, 6, 66, 127
1, 249719, Note_off_c, 12, 71, 127
1, 249722, Note_on_c, 6, 66, 127
1, 249859, Note_off_c, 6, 66, 127
1, 249859, Note_off_c, 3, 51, 127
1, 249859, Note_off_c, 12, 59, 127
1, 249862, Note_on_c, 8, 68, 127
1, 249862, Note_on_c, 12, 59, 127
1, 249862, Note_on_c, 4, 64, 127
1, 249862, Note_on_c, 4, 52, 127
1, 249999, Note_off_c, 8, 68, 127
1, 250002, Note_on_c, 12, 71, 127
1, 250139, Note_off_c, 12, 71, 127
1, 250142, Note_on_c, 4, 76, 127
1, 250279, Note_off_c, 4, 76, 127
1, 250282, Note_on_c, 12, 71, 127
1, 250415, Note_off_c, 4, 52, 127
1, 250415, Note_off_c, 4, 64, 127
1, 250415, Note_off_c, 12, 59, 127
1, 250419, Note_off_c, 12, 71, 127
1, 250422, Note_on_c, 8, 68, 127
1, 250559, Note_off_c, 8, 68, 127
1, 250562, Note_on_c, 12, 71, 127
1, 250699, Note_off_c, 12, 71, 127
1, 250702, Note_on_c, 4, 64, 127
1, 250839, Note_off_c, 4, 64, 127
1, 250840, Note_on_c, 12, 71, 127
1, 250907, Note_off_c, 12, 71, 127
1, 250910, Note_on_c, 11, 70, 127
1, 250977, Note_off_c, 11, 70, 127
1, 250980, Note_on_c, 12, 71, 127
1, 250980, Note_on_c, 5, 65, 127
1, 250980, Note_on_c, 1, 49, 127
1, 251120, Note_on_c, 8, 56, 127
1, 251257, Note_off_c, 8, 56, 127
1, 251260, Note_on_c, 1, 61, 127
1, 251387, Note_off_c, 5, 65, 127
1, 251397, Note_off_c, 1, 49, 127
1, 251400, Note_on_c, 6, 66, 127
1, 251400, Note_on_c, 3, 51, 127
1, 251537, Note_off_c, 3, 51, 127
1, 251537, Note_off_c, 6, 66, 127
1, 251540, Note_on_c, 8, 68, 127
1, 251540, Note_on_c, 5, 53, 127
1, 251677, Note_off_c, 12, 71, 127
1, 251680, Note_on_c, 12, 71, 127
1, 251813, Note_off_c, 1, 61, 127
1, 251817, Note_off_c, 12, 71, 127
1, 251817, Note_off_c, 5, 53, 127
1, 251817, Note_off_c, 8, 68, 127
1, 251820, Note_on_c, 1, 73, 127
1, 251820, Note_on_c, 1, 61, 127
1, 251820, Note_on_c, 8, 68, 127
1, 251820, Note_on_c, 5, 53, 127
1, 251950, Note_off_c, 8, 68, 127
1, 251957, Note_off_c, 1, 73, 127
1, 251960, Note_on_c, 8, 68, 127
1, 252097, Note_off_c, 8, 68, 127
1, 252097, Note_off_c, 5, 53, 127
1, 252097, Note_off_c, 1, 61, 127
1, 252100, Note_on_c, 10, 69, 127
1, 252100, Note_on_c, 1, 61, 127
1, 252100, Note_on_c, 6, 66, 127
1, 252100, Note_on_c, 6, 54, 127
1, 252237, Note_off_c, 10, 69, 127
1, 252240, Note_on_c, 1, 73, 127
1, 252377, Note_off_c, 1, 73, 127
1, 252380, Note_on_c, 6, 78, 127
1, 252517, Note_off_c, 6, 78, 127
1, 252520, Note_on_c, 1, 73, 127
1, 252653, Note_off_c, 6, 54, 127
1, 252653, Note_off_c, 6, 66, 127
1, 252653, Note_off_c, 1, 61, 127
1, 252657, Note_off_c, 1, 73, 127
1, 252658, Note_on_c, 10, 69, 127
1, 252795, Note_off_c, 10, 69, 127
1, 252798, Note_on_c, 1, 73, 127
1, 252935, Note_off_c, 1, 73, 127
1, 252938, Note_on_c, 6, 66, 127
1, 253075, Note_off_c, 6, 66, 127
1, 253078, Note_on_c, 6, 78, 127
1, 253145, Note_off_c, 6, 78, 127
1, 253148, Note_on_c, 4, 76, 127
1, 253215, Note_off_c, 4, 76, 127
1, 253218, Note_on_c, 4, 76, 127
1, 253218, Note_on_c, 11, 70, 127
1, 253218, Note_on_c, 6, 54, 127
1, 253355, Note_on_c, 1, 61, 127
1, 253491, Note_off_c, 1, 61, 127
1, 253492, Note_on_c, 6, 66, 127
1, 253618, Note_off_c, 11, 70, 127
1, 253628, Note_off_c, 6, 54, 127
1, 253629, Note_on_c, 12, 71, 127
1, 253629, Note_on_c, 8, 56, 127
1, 253765, Note_off_c, 8, 56, 127
1, 253765, Note_off_c, 12, 71, 127
1, 253766, Note_on_c, 1, 73, 127
1, 253766, Note_on_c, 11, 58, 127
1, 253902, Note_off_c, 4, 76, 127
1, 253903, Note_on_c, 4, 76, 127
1, 254034, Note_off_c, 6, 66, 127
1, 254038, Note_off_c, 4, 76, 127
1, 254038, Note_off_c, 11, 58, 127
1, 254038, Note_off_c, 1, 73, 127
1, 254039, Note_on_c, 6, 78, 127
1, 254039, Note_on_c, 6, 66, 127
1, 254039, Note_on_c, 1, 73, 127
1, 254039, Note_on_c, 11, 58, 127
1, 254168, Note_off_c, 1, 73, 127
1, 254175, Note_off_c, 6, 78, 127
1, 254176, Note_on_c, 1, 73, 127
1, 254312, Note_off_c, 1, 73, 127
1, 254312, Note_off_c, 11, 58, 127
1, 254312, Note_off_c, 6, 66, 127
1, 254313, Note_on_c, 2, 74, 127
1, 254313, Note_on_c, 6, 66, 127
1, 254313, Note_on_c, 12, 71, 127
1, 254313, Note_on_c, 12, 59, 127
1, 254449, Note_off_c, 2, 74, 127
1, 254450, Note_on_c, 6, 78, 127
1, 254586, Note_off_c, 6, 78, 127
1, 254587, Note_on_c, 12, 83, 127
1, 254723, Note_off_c, 12, 83, 127
1, 254724, Note_on_c, 6, 78, 127
1, 254855, Note_off_c, 12, 59, 127
1, 254855, Note_off_c, 12, 71, 127
1, 254855, Note_off_c, 6, 66, 127
1, 254859, Note_off_c, 6, 78, 127
1, 254860, Note_on_c, 2, 74, 127
1, 254996, Note_off_c, 2, 74, 127
1, 254997, Note_on_c, 6, 78, 127
1, 255133, Note_off_c, 6, 78, 127
1, 255134, Note_on_c, 12, 71, 127
1, 255270, Note_off_c, 12, 71, 127
1, 255271, Note_on_c, 6, 78, 127
1, 255338, Note_off_c, 6, 78, 127
1, 255339, Note_on_c, 5, 77, 127
1, 255406, Note_off_c, 5, 77, 127
1, 255407, Note_on_c, 6, 78, 127
1, 255407, Note_on_c, 0, 72, 127
1, 255407, Note_on_c, 8, 56, 127
1, 255544, Note_on_c, 3, 63, 127
1, 255680, Note_off_c, 3, 63, 127
1, 255681, Note_on_c, 8, 68, 127
1, 255807, Note_off_c, 0, 72, 127
1, 255817, Note_off_c, 8, 56, 127
1, 255818, Note_on_c, 1, 73, 127
1, 255818, Note_on_c, 11, 58, 127
1, 255954, Note_off_c, 11, 58, 127
1, 255954, Note_off_c, 1, 73, 127
1, 255955, Note_on_c, 3, 75, 127
1, 255955, Note_on_c, 0, 60, 127
1, 256091, Note_off_c, 6, 78, 127
1, 256092, Note_on_c, 6, 78, 127
1, 256223, Note_off_c, 8, 68, 127
1, 256227, Note_off_c, 6, 78, 127
1, 256227, Note_off_c, 0, 60, 127
1, 256227, Note_off_c, 3, 75, 127
1, 256228, Note_on_c, 8, 80, 127
1, 256228, Note_on_c, 8, 68, 127
1, 256228, Note_on_c, 3, 75, 127
1, 256228, Note_on_c, 0, 60, 127
1, 256357, Note_off_c, 3, 75, 127
1, 256364, Note_off_c, 8, 80, 127
1, 256365, Note_on_c, 3, 75, 127
1, 256501, Note_off_c, 3, 75, 127
1, 256501, Note_off_c, 0, 60, 127
1, 256501, Note_off_c, 8, 68, 127
1, 256502, Note_on_c, 4, 76, 127
1, 256502, Note_on_c, 8, 68, 127
1, 256502, Note_on_c, 1, 73, 127
1, 256502, Note_on_c, 1, 61, 127
1, 256638, Note_off_c, 1, 61, 127
1, 256639, Note_on_c, 4, 64, 127
1, 256773, Note_off_c, 8, 68, 127
1, 256774, Note_off_c, 4, 64, 127
1, 256775, Note_on_c, 8, 68, 127
1, 256912, Note_on_c, 4, 64, 127
1, 257043, Note_off_c, 1, 73, 127
1, 257043, Note_off_c, 4, 76, 127
1, 257046, Note_off_c, 8, 68, 127
1, 257047, Note_off_c, 4, 64, 127
1, 257048, Note_on_c, 1, 61, 127
1, 257184, Note_off_c, 1, 61, 127
1, 257185, Note_on_c, 4, 64, 127
1, 257321, Note_off_c, 4, 64, 127
1, 257322, Note_on_c, 8, 56, 127
1, 257458, Note_off_c, 8, 56, 127
1, 257459, Note_on_c, 1, 61, 127
1, 257526, Note_off_c, 1, 61, 127
1, 257527, Note_on_c, 12, 59, 127
1, 257594, Note_off_c, 12, 59, 127
1, 257595, Note_on_c, 12, 59, 127
1, 257595, Note_on_c, 5, 77, 127
1, 257729, Note_on_c, 8, 68, 127
1, 257862, Note_off_c, 8, 68, 127
1, 257863, Note_on_c, 1, 73, 127
1, 257996, Note_off_c, 1, 73, 127
1, 257996, Note_off_c, 5, 77, 127
1, 257997, Note_on_c, 3, 75, 127
1, 257997, Note_on_c, 6, 78, 127
1, 258130, Note_off_c, 6, 78, 127
1, 258130, Note_off_c, 3, 75, 127
1, 258131, Note_on_c, 1, 73, 127
1, 258131, Note_on_c, 5, 77, 127
1, 258131, Note_on_c, 8, 80, 127
1, 258257, Note_off_c, 12, 59, 127
1, 258266, Note_on_c, 12, 59, 127
1, 258399, Note_off_c, 12, 59, 127
1, 258399, Note_off_c, 8, 80, 127
1, 258399, Note_off_c, 5, 77, 127
1, 258399, Note_off_c, 1, 73, 127
1, 258400, Note_on_c, 1, 61, 127
1, 258400, Note_on_c, 1, 73, 127
1, 258400, Note_on_c, 5, 77, 127
1, 258400, Note_on_c, 8, 80, 127
1, 258533, Note_off_c, 1, 61, 127
1, 258534, Note_on_c, 8, 56, 127
1, 258667, Note_off_c, 8, 56, 127
1, 258667, Note_off_c, 8, 80, 127
1, 258667, Note_off_c, 5, 77, 127
1, 258667, Note_off_c, 1, 73, 127
1, 258668, Note_on_c, 10, 57, 127
1, 258668, Note_on_c, 1, 73, 127
1, 258668, Note_on_c, 8, 80, 127
1, 258801, Note_off_c, 10, 57, 127
1, 258804, Note_on_c, 1, 61, 127
1, 258935, Note_off_c, 8, 80, 127
1, 258936, Note_off_c, 1, 61, 127
1, 258937, Note_on_c, 6, 66, 127
1, 258937, Note_on_c, 6, 78, 127
1, 259070, Note_off_c, 6, 66, 127
1, 259071, Note_on_c, 1, 61, 127
1, 259198, Note_off_c, 1, 73, 127
1, 259202, Note_off_c, 6, 78, 127
1, 259203, Note_off_c, 1, 61, 127
1, 259204, Note_on_c, 10, 57, 127
1, 259337, Note_off_c, 10, 57, 127
1, 259338, Note_on_c, 1, 61, 127
1, 259471, Note_off_c, 1, 61, 127
1, 259472, Note_on_c, 6, 54, 127
1, 259605, Note_off_c, 6, 54, 127
1, 259606, Note_on_c, 10, 57, 127
1, 259672, Note_off_c, 10, 57, 127
1, 259673, Note_on_c, 8, 56, 127
1, 259739, Note_off_c, 8, 56, 127
1, 259740, Note_on_c, 10, 57, 127
1, 259740, Note_on_c, 3, 75, 127
1, 259876, Note_on_c, 6, 66, 127
1, 260009, Note_off_c, 6, 66, 127
1, 260010, Note_on_c, 12, 71, 127
1, 260141, Note_off_c, 3, 75, 127
1, 260142, Note_off_c, 12, 71, 127
1, 260143, Note_on_c, 1, 73, 127
1, 260143, Note_on_c, 4, 76, 127
1, 260276, Note_off_c, 4, 76, 127
1, 260276, Note_off_c, 1, 73, 127
1, 260277, Note_on_c, 12, 71, 127
1, 260277, Note_on_c, 3, 75, 127
1, 260277, Note_on_c, 6, 78, 127
1, 260408, Note_off_c, 10, 57, 127
1, 260411, Note_on_c, 10, 57, 127
1, 260544, Note_off_c, 10, 57, 127
1, 260544, Note_off_c, 6, 78, 127
1, 260544, Note_off_c, 3, 75, 127
1, 260544, Note_off_c, 12, 71, 127
1, 260545, Note_on_c, 12, 59, 127
1, 260545, Note_on_c, 12, 71, 127
1, 260545, Note_on_c, 6, 78, 127
1, 260545, Note_on_c, 3, 75, 127
1, 260678, Note_off_c, 12, 59, 127
1, 260679, Note_on_c, 6, 54, 127
1, 260812, Note_off_c, 6, 54, 127
1, 260812, Note_off_c, 3, 75, 127
1, 260812, Note_off_c, 6, 78, 127
1, 260812, Note_off_c, 12, 71, 127
1, 260813, Note_on_c, 8, 56, 127
1, 260813, Note_on_c, 12, 71, 127
1, 260813, Note_on_c, 6, 78, 127
1, 260946, Note_off_c, 8, 56, 127
1, 260947, Note_on_c, 12, 59, 127
1, 261080, Note_off_c, 12, 59, 127
1, 261080, Note_off_c, 6, 78, 127
1, 261083, Note_on_c, 4, 64, 127
1, 261083, Note_on_c, 4, 76, 127
1, 261216, Note_off_c, 4, 64, 127
1, 261217, Note_on_c, 12, 59, 127
1, 261344, Note_off_c, 12, 71, 127
1, 261348, Note_off_c, 4, 76, 127
1, 261349, Note_off_c, 12, 59, 127
1, 261350, Note_on_c, 8, 56, 127
1, 261483, Note_off_c, 8, 56, 127
1, 261484, Note_on_c, 12, 59, 127
1, 261617, Note_off_c, 12, 59, 127
1, 261618, Note_on_c, 4, 52, 127
1, 261751, Note_off_c, 4, 52, 127
1, 261752, Note_on_c, 8, 56, 127
1, 261818, Note_off_c, 8, 56, 127
1, 261819, Note_on_c, 6, 54, 127
1, 261885, Note_off_c, 6, 54, 127
1, 261886, Note_on_c, 6, 54, 127
1, 261886, Note_on_c, 0, 72, 127
1, 262020, Note_on_c, 3, 63, 127
1, 262153, Note_off_c, 3, 63, 127
1, 262156, Note_on_c, 8, 68, 127
1, 262287, Note_off_c, 0, 72, 127
1, 262288, Note_off_c, 8, 68, 127
1, 262289, Note_on_c, 11, 70, 127
1, 262289, Note_on_c, 1, 73, 127
1, 262422, Note_off_c, 1, 73, 127
1, 262422, Note_off_c, 11, 70, 127
1, 262423, Note_on_c, 8, 68, 127
1, 262423, Note_on_c, 0, 72, 127
1, 262423, Note_on_c, 3, 75, 127
1, 262554, Note_off_c, 6, 54, 127
1, 262557, Note_on_c, 6, 54, 127
1, 262690, Note_off_c, 6, 54, 127
1, 262690, Note_off_c, 3, 75, 127
1, 262690, Note_off_c, 0, 72, 127
1, 262690, Note_off_c, 8, 68, 127
1, 262691, Note_on_c, 8, 56, 127
1, 262691, Note_on_c, 8, 68, 127
1, 262691, Note_on_c, 0, 72, 127
1, 262691, Note_on_c, 3, 75, 127
1, 262824, Note_off_c, 8, 56, 127
1, 262825, Note_on_c, 3, 51, 127
1, 262958, Note_off_c, 3, 51, 127
1, 262958, Note_off_c, 3, 75, 127
1, 262958, Note_off_c, 0, 72, 127
1, 262958, Note_off_c, 8, 68, 127
1, 262959, Note_on_c, 4, 52, 127
1, 262959, Note_on_c, 8, 68, 127
1, 262959, Note_on_c, 3, 75, 127
1, 263092, Note_off_c, 4, 52, 127
1, 263093, Note_on_c, 8, 56, 127
1, 263226, Note_off_c, 8, 56, 127
1, 263226, Note_off_c, 3, 75, 127
1, 263227, Note_on_c, 1, 61, 127
1, 263227, Note_on_c, 1, 73, 127
1, 263360, Note_off_c, 1, 61, 127
1, 263363, Note_on_c, 8, 56, 127
1, 263490, Note_off_c, 8, 68, 127
1, 263493, Note_off_c, 1, 73, 127
1, 263496, Note_off_c, 8, 56, 127
1, 263497, Note_on_c, 4, 52, 127
1, 263630, Note_off_c, 4, 52, 127
1, 263631, Note_on_c, 8, 56, 127
1, 263764, Note_off_c, 8, 56, 127
1, 263765, Note_on_c, 1, 49, 127
1, 263898, Note_off_c, 1, 49, 127
1, 263899, Note_on_c, 4, 52, 127
1, 263965, Note_off_c, 4, 52, 127
1, 263966, Note_on_c, 3, 51, 127
1, 264032, Note_off_c, 3, 51, 127
1, 264033, Note_on_c, 4, 52, 127
1, 264033, Note_on_c, 11, 70, 127
1, 264167, Note_on_c, 1, 61, 127
1, 264300, Note_off_c, 1, 61, 127
1, 264301, Note_on_c, 6, 66, 127
1, 264424, Note_off_c, 11, 70, 127
1, 264434, Note_off_c, 6, 66, 127
1, 264437, Note_on_c, 8, 68, 127
1, 264437, Note_on_c, 12, 71, 127
1, 264570, Note_off_c, 12, 71, 127
1, 264570, Note_off_c, 8, 68, 127
1, 264571, Note_on_c, 6, 66, 127
1, 264571, Note_on_c, 1, 73, 127
1, 264571, Note_on_c, 11, 70, 127
1, 264691, Note_off_c, 4, 52, 127
1, 264705, Note_on_c, 4, 52, 127
1, 264838, Note_off_c, 4, 52, 127
1, 264838, Note_off_c, 11, 70, 127
1, 264838, Note_off_c, 1, 73, 127
1, 264838, Note_off_c, 6, 66, 127
1, 264839, Note_on_c, 6, 54, 127
1, 264839, Note_on_c, 6, 66, 127
1, 264839, Note_on_c, 11, 70, 127
1, 264839, Note_on_c, 1, 73, 127
1, 264972, Note_off_c, 6, 54, 127
1, 264973, Note_on_c, 1, 49, 127
1, 265106, Note_off_c, 1, 49, 127
1, 265106, Note_off_c, 1, 73, 127
1, 265106, Note_off_c, 11, 70, 127
1, 265106, Note_off_c, 6, 66, 127
1, 265107, Note_on_c, 2, 50, 127
1, 265107, Note_on_c, 6, 66, 127
1, 265107, Note_on_c, 1, 73, 127
1, 265240, Note_off_c, 2, 50, 127
1, 265241, Note_on_c, 6, 54, 127
1, 265374, Note_off_c, 6, 54, 127
1, 265374, Note_off_c, 1, 73, 127
1, 265375, Note_on_c, 12, 59, 127
1, 265375, Note_on_c, 12, 71, 127
1, 265508, Note_off_c, 12, 59, 127
1, 265509, Note_on_c, 6, 54, 127
1, 265638, Note_off_c, 6, 66, 127
1, 265641, Note_off_c, 12, 71, 127
1, 265642, Note_off_c, 6, 54, 127
1, 265645, Note_on_c, 2, 50, 127
1, 265778, Note_off_c, 2, 50, 127
1, 265779, Note_on_c, 6, 54, 127
1, 265912, Note_off_c, 6, 54, 127
1, 265913, Note_on_c, 12, 47, 127
1, 266046, Note_off_c, 12, 47, 127
1, 266047, Note_on_c, 2, 50, 127
1, 266113, Note_off_c, 2, 50, 127
1, 266114, Note_on_c, 11, 46, 127
1, 266180, Note_off_c, 11, 46, 127
1, 266181, Note_on_c, 12, 47, 127
1, 266181, Note_on_c, 5, 65, 127
1, 266315, Note_on_c, 8, 56, 127
1, 266448, Note_off_c, 8, 56, 127
1, 266449, Note_on_c, 1, 61, 127
1, 266582, Note_off_c, 1, 61, 127
1, 266582, Note_off_c, 5, 65, 127
1, 266583, Note_on_c, 3, 63, 127
1, 266583, Note_on_c, 6, 66, 127
1, 266716, Note_off_c, 6, 66, 127
1, 266716, Note_off_c, 3, 63, 127
1, 266719, Note_on_c, 1, 61, 127
1, 266719, Note_on_c, 8, 68, 127
1, 266719, Note_on_c, 5, 65, 127
1, 266842, Note_off_c, 12, 47, 127
1, 266853, Note_on_c, 12, 47, 127
1, 266986, Note_off_c, 12, 47, 127
1, 266986, Note_off_c, 5, 65, 127
1, 266986, Note_off_c, 8, 68, 127
1, 266986, Note_off_c, 1, 61, 127
1, 266987, Note_on_c, 1, 49, 127
1, 266987, Note_on_c, 1, 61, 127
1, 266987, Note_on_c, 5, 65, 127
1, 266987, Note_on_c, 8, 68, 127
1, 267120, Note_off_c, 1, 49, 127
1, 267121, Note_on_c, 8, 44, 127
1, 267254, Note_off_c, 8, 44, 127
1, 267254, Note_off_c, 8, 68, 127
1, 267254, Note_off_c, 5, 65, 127
1, 267254, Note_off_c, 1, 61, 127
1, 267255, Note_on_c, 10, 45, 127
1, 267255, Note_on_c, 1, 61, 127
1, 267255, Note_on_c, 8, 68, 127
1, 267388, Note_off_c, 10, 45, 127
1, 267389, Note_on_c, 1, 49, 127
1, 267522, Note_off_c, 1, 49, 127
1, 267522, Note_off_c, 8, 68, 127
1, 267523, Note_on_c, 6, 54, 127
1, 267523, Note_on_c, 6, 66, 127
1, 267656, Note_off_c, 6, 54, 127
1, 267657, Note_on_c, 1, 49, 127
1, 267786, Note_off_c, 1, 61, 127
1, 267789, Note_off_c, 6, 66, 127
1, 267790, Note_off_c, 1, 49, 127
1, 267791, Note_on_c, 10, 45, 127
1, 267924, Note_off_c, 10, 45, 127
1, 267927, Note_on_c, 1, 49, 127
1, 268060, Note_off_c, 1, 49, 127
1, 268061, Note_on_c, 6, 42, 127
1, 268194, Note_off_c, 6, 42, 127
1, 268195, Note_on_c, 10, 45, 127
1, 268261, Note_off_c, 10, 45, 127
1, 268262, Note_on_c, 8, 44, 127
1, 268328, Note_off_c, 8, 44, 127
1, 268329, Note_on_c, 10, 45, 127
1, 268329, Note_on_c, 3, 63, 127
1, 268463, Note_on_c, 6, 54, 127
1, 268596, Note_off_c, 6, 54, 127
1, 268597, Note_on_c, 12, 59, 127
1, 268730, Note_off_c, 12, 59, 127
1, 268730, Note_off_c, 3, 63, 127
1, 268731, Note_on_c, 1, 61, 127
1, 268731, Note_on_c, 4, 64, 127
1, 268864, Note_off_c, 4, 64, 127
1, 268864, Note_off_c, 1, 61, 127
1, 268865, Note_on_c, 12, 59, 127
1, 268865, Note_on_c, 6, 66, 127
1, 268865, Note_on_c, 3, 63, 127
1, 268998, Note_off_c, 10, 45, 127
1, 269001, Note_on_c, 10, 45, 127
1, 269132, Note_off_c, 3, 63, 127
1, 269132, Note_off_c, 6, 66, 127
1, 269132, Note_off_c, 12, 59, 127
1, 269133, Note_off_c, 10, 45, 127
1, 269134, Note_on_c, 12, 47, 127
1, 269134, Note_on_c, 12, 59, 127
1, 269134, Note_on_c, 6, 66, 127
1, 269134, Note_on_c, 3, 63, 127
1, 269267, Note_off_c, 12, 47, 127
1, 269268, Note_on_c, 6, 42, 127
1, 269401, Note_off_c, 6, 42, 127
1, 269401, Note_off_c, 3, 63, 127
1, 269401, Note_off_c, 6, 66, 127
1, 269401, Note_off_c, 12, 59, 127
1, 269402, Note_on_c, 8, 44, 127
1, 269402, Note_on_c, 12, 59, 127
1, 269402, Note_on_c, 6, 66, 127
1, 269535, Note_off_c, 8, 44, 127
1, 269536, Note_on_c, 12, 47, 127
1, 269669, Note_off_c, 12, 47, 127
1, 269669, Note_off_c, 6, 66, 127
1, 269670, Note_on_c, 4, 52, 127
1, 269670, Note_on_c, 4, 64, 127
1, 269803, Note_off_c, 4, 52, 127
1, 269804, Note_on_c, 12, 47, 127
1, 269933, Note_off_c, 12, 59, 127
1, 269936, Note_off_c, 4, 64, 127
1, 269937, Note_off_c, 12, 47, 127
1, 269938, Note_on_c, 8, 44, 127
1, 270071, Note_off_c, 8, 44, 127
1, 270072, Note_on_c, 12, 47, 127
1, 270205, Note_off_c, 12, 47, 127
1, 270208, Note_on_c, 4, 40, 127
1, 270341, Note_off_c, 4, 40, 127
1, 270342, Note_on_c, 4, 52, 127
1, 270408, Note_off_c, 4, 52, 127
1, 270409, Note_on_c, 2, 50, 127
1, 270472, Note_off_c, 2, 50, 127
1, 270473, Note_on_c, 8, 68, 127
1, 270473, Note_on_c, 2, 50, 127
1, 270604, Note_on_c, 12, 59, 127
1, 270734, Note_off_c, 12, 59, 127
1, 270735, Note_on_c, 4, 64, 127
1, 270865, Note_off_c, 4, 64, 127
1, 270865, Note_off_c, 8, 68, 127
1, 270866, Note_on_c, 10, 69, 127
1, 270866, Note_on_c, 6, 66, 127
1, 270996, Note_off_c, 6, 66, 127
1, 270996, Note_off_c, 10, 69, 127
1, 270999, Note_on_c, 8, 68, 127
1, 270999, Note_on_c, 12, 71, 127
1, 270999, Note_on_c, 4, 64, 127
1, 271129, Note_off_c, 2, 50, 127
1, 271130, Note_on_c, 2, 50, 127
1, 271260, Note_off_c, 2, 50, 127
1, 271260, Note_off_c, 4, 64, 127
1, 271260, Note_off_c, 12, 71, 127
1, 271260, Note_off_c, 8, 68, 127
1, 271261, Note_on_c, 8, 68, 127
1, 271261, Note_on_c, 12, 71, 127
1, 271261, Note_on_c, 4, 64, 127
1, 271261, Note_on_c, 4, 52, 127
1, 271391, Note_off_c, 4, 52, 127
1, 271394, Note_on_c, 12, 47, 127
1, 271523, Note_off_c, 4, 64, 127
1, 271523, Note_off_c, 12, 71, 127
1, 271523, Note_off_c, 8, 68, 127
1, 271524, Note_off_c, 12, 47, 127
1, 271525, Note_on_c, 8, 68, 127
1, 271525, Note_on_c, 12, 71, 127
1, 271525, Note_on_c, 4, 64, 127
1, 271525, Note_on_c, 1, 49, 127
1, 271655, Note_off_c, 1, 49, 127
1, 271656, Note_on_c, 4, 52, 127
1, 271786, Note_off_c, 4, 52, 127
1, 271786, Note_off_c, 12, 71, 127
1, 271786, Note_off_c, 8, 68, 127
1, 271789, Note_on_c, 10, 69, 127
1, 271789, Note_on_c, 10, 57, 127
1, 271919, Note_off_c, 10, 57, 127
1, 271920, Note_on_c, 4, 52, 127
1, 272046, Note_off_c, 4, 64, 127
1, 272049, Note_off_c, 10, 69, 127
1, 272050, Note_off_c, 4, 52, 127
1, 272051, Note_on_c, 1, 49, 127
1, 272181, Note_off_c, 1, 49, 127
1, 272184, Note_on_c, 4, 52, 127
1, 272314, Note_off_c, 4, 52, 127
1, 272315, Note_on_c, 10, 45, 127
1, 272445, Note_off_c, 10, 45, 127
1, 272446, Note_on_c, 4, 52, 127
1, 272510, Note_off_c, 4, 52, 127
1, 272511, Note_on_c, 3, 51, 127
1, 272575, Note_off_c, 3, 51, 127
1, 272576, Note_on_c, 11, 70, 127
1, 272576, Note_on_c, 4, 52, 127
1, 272709, Note_on_c, 1, 61, 127
1, 272839, Note_off_c, 1, 61, 127
1, 272840, Note_on_c, 6, 66, 127
1, 272969, Note_off_c, 11, 70, 127
1, 272970, Note_off_c, 6, 66, 127
1, 272971, Note_on_c, 12, 71, 127
1, 272971, Note_on_c, 8, 68, 127
1, 273101, Note_off_c, 8, 68, 127
1, 273101, Note_off_c, 12, 71, 127
1, 273104, Note_on_c, 11, 70, 127
1, 273104, Note_on_c, 1, 73, 127
1, 273104, Note_on_c, 6, 66, 127
1, 273233, Note_off_c, 4, 52, 127
1, 273236, Note_on_c, 4, 52, 127
1, 273366, Note_off_c, 4, 52, 127
1, 273366, Note_off_c, 6, 66, 127
1, 273366, Note_off_c, 1, 73, 127
1, 273366, Note_off_c, 11, 70, 127
1, 273367, Note_on_c, 11, 70, 127
1, 273367, Note_on_c, 1, 73, 127
1, 273367, Note_on_c, 6, 66, 127
1, 273367, Note_on_c, 6, 54, 127
1, 273497, Note_off_c, 6, 54, 127
1, 273500, Note_on_c, 1, 49, 127
1, 273629, Note_off_c, 6, 66, 127
1, 273629, Note_off_c, 1, 73, 127
1, 273629, Note_off_c, 11, 70, 127
1, 273630, Note_off_c, 1, 49, 127
1, 273631, Note_on_c, 1, 73, 127
1, 273631, Note_on_c, 6, 66, 127
1, 273631, Note_on_c, 2, 50, 127
1, 273761, Note_off_c, 2, 50, 127
1, 273762, Note_on_c, 6, 54, 127
1, 273892, Note_off_c, 6, 54, 127
1, 273892, Note_off_c, 1, 73, 127
1, 273895, Note_on_c, 12, 71, 127
1, 273895, Note_on_c, 12, 59, 127
1, 274025, Note_off_c, 12, 59, 127
1, 274026, Note_on_c, 6, 54, 127
1, 274152, Note_off_c, 6, 66, 127
1, 274155, Note_off_c, 12, 71, 127
1, 274156, Note_off_c, 6, 54, 127
1, 274157, Note_on_c, 2, 50, 127
1, 274287, Note_off_c, 2, 50, 127
1, 274288, Note_on_c, 6, 54, 127
1, 274418, Note_off_c, 6, 54, 127
1, 274421, Note_on_c, 12, 47, 127
1, 274551, Note_off_c, 12, 47, 127
1, 274552, Note_on_c, 6, 54, 127
1, 274616, Note_off_c, 6, 54, 127
1, 274617, Note_on_c, 5, 53, 127
1, 274681, Note_off_c, 5, 53, 127
1, 274682, Note_on_c, 0, 72, 127
1, 274682, Note_on_c, 6, 54, 127
1, 274815, Note_on_c, 3, 63, 127
1, 274945, Note_off_c, 3, 63, 127
1, 274946, Note_on_c, 8, 68, 127
1, 275075, Note_off_c, 0, 72, 127
1, 275076, Note_off_c, 8, 68, 127
1, 275077, Note_on_c, 1, 73, 127
1, 275077, Note_on_c, 11, 70, 127
1, 275207, Note_off_c, 11, 70, 127
1, 275207, Note_off_c, 1, 73, 127
1, 275210, Note_on_c, 3, 75, 127
1, 275210, Note_on_c, 0, 72, 127
1, 275210, Note_on_c, 8, 68, 127
1, 275339, Note_off_c, 6, 54, 127
1, 275342, Note_on_c, 6, 54, 127
1, 275472, Note_off_c, 6, 54, 127
1, 275472, Note_off_c, 8, 68, 127
1, 275472, Note_off_c, 0, 72, 127
1, 275472, Note_off_c, 3, 75, 127
1, 275473, Note_on_c, 3, 75, 127
1, 275473, Note_on_c, 0, 72, 127
1, 275473, Note_on_c, 8, 68, 127
1, 275473, Note_on_c, 8, 56, 127
1, 275603, Note_off_c, 8, 56, 127
1, 275606, Note_on_c, 3, 51, 127
1, 275735, Note_off_c, 8, 68, 127
1, 275735, Note_off_c, 0, 72, 127
1, 275735, Note_off_c, 3, 75, 127
1, 275736, Note_off_c, 3, 51, 127
1, 275737, Note_on_c, 3, 75, 127
1, 275737, Note_on_c, 8, 68, 127
1, 275737, Note_on_c, 4, 52, 127
1, 275867, Note_off_c, 4, 52, 127
1, 275868, Note_on_c, 8, 56, 127
1, 275998, Note_off_c, 8, 56, 127
1, 275998, Note_off_c, 3, 75, 127
1, 275999, Note_on_c, 1, 73, 127
1, 275999, Note_on_c, 1, 61, 127
1, 276129, Note_off_c, 1, 61, 127
1, 276132, Note_on_c, 8, 56, 127
1, 276258, Note_off_c, 8, 68, 127
1, 276259, Note_off_c, 1, 73, 127
1, 276262, Note_off_c, 8, 56, 127
1, 276263, Note_on_c, 4, 52, 127
1, 276393, Note_off_c, 4, 52, 127
1, 276394, Note_on_c, 8, 56, 127
1, 276524, Note_off_c, 8, 56, 127
1, 276527, Note_on_c, 1, 49, 127
1, 276657, Note_off_c, 1, 49, 127
1, 276658, Note_on_c, 7, 55, 127
1, 276722, Note_off_c, 7, 55, 127
1, 276723, Note_on_c, 6, 54, 127
1, 276787, Note_off_c, 6, 54, 127
1, 276788, Note_on_c, 1, 73, 127
1, 276788, Note_on_c, 7, 55, 127
1, 276921, Note_on_c, 4, 64, 127
1, 277051, Note_off_c, 4, 64, 127
1, 277052, Note_on_c, 10, 69, 127
1, 277181, Note_off_c, 1, 73, 127
1, 277182, Note_off_c, 10, 69, 127
1, 277183, Note_on_c, 2, 74, 127
1, 277183, Note_on_c, 12, 71, 127
1, 277313, Note_off_c, 12, 71, 127
1, 277313, Note_off_c, 2, 74, 127
1, 277316, Note_on_c, 1, 73, 127
1, 277316, Note_on_c, 4, 76, 127
1, 277316, Note_on_c, 10, 69, 127
1, 277445, Note_off_c, 7, 55, 127
1, 277448, Note_on_c, 7, 55, 127
1, 277578, Note_off_c, 7, 55, 127
1, 277578, Note_off_c, 10, 69, 127
1, 277578, Note_off_c, 4, 76, 127
1, 277578, Note_off_c, 1, 73, 127
1, 277579, Note_on_c, 1, 73, 127
1, 277579, Note_on_c, 4, 76, 127
1, 277579, Note_on_c, 10, 69, 127
1, 277579, Note_on_c, 10, 57, 127
1, 277709, Note_off_c, 10, 57, 127
1, 277710, Note_on_c, 4, 52, 127
1, 277840, Note_off_c, 4, 52, 127
1, 277840, Note_off_c, 10, 69, 127
1, 277840, Note_off_c, 4, 76, 127
1, 277840, Note_off_c, 1, 73, 127
1, 277843, Note_on_c, 4, 76, 127
1, 277843, Note_on_c, 1, 73, 127
1, 277843, Note_on_c, 10, 69, 127
1, 277843, Note_on_c, 6, 54, 127
1, 277973, Note_off_c, 6, 54, 127
1, 277974, Note_on_c, 10, 57, 127
1, 278104, Note_off_c, 10, 57, 127
1, 278104, Note_off_c, 1, 73, 127
1, 278104, Note_off_c, 4, 76, 127
1, 278105, Note_on_c, 2, 74, 127
1, 278105, Note_on_c, 2, 62, 127
1, 278235, Note_off_c, 2, 62, 127
1, 278238, Note_on_c, 10, 57, 127
1, 278364, Note_off_c, 10, 69, 127
1, 278365, Note_off_c, 2, 74, 127
1, 278368, Note_off_c, 10, 57, 127
1, 278369, Note_on_c, 6, 54, 127
1, 278499, Note_off_c, 6, 54, 127
1, 278500, Note_on_c, 10, 57, 127
1, 278630, Note_off_c, 10, 57, 127
1, 278633, Note_on_c, 2, 50, 127
1, 278763, Note_off_c, 2, 50, 127
1, 278764, Note_on_c, 10, 57, 127
1, 278828, Note_off_c, 10, 57, 127
1, 278829, Note_on_c, 8, 56, 127
1, 278893, Note_off_c, 8, 56, 127
1, 278894, Note_on_c, 3, 75, 127
1, 278894, Note_on_c, 10, 57, 127
1, 279027, Note_on_c, 6, 66, 127
1, 279157, Note_off_c, 6, 66, 127
1, 279158, Note_on_c, 12, 71, 127
1, 279287, Note_off_c, 3, 75, 127
1, 279288, Note_off_c, 12, 71, 127
1, 279289, Note_on_c, 4, 76, 127
1, 279289, Note_on_c, 1, 73, 127
1, 279419, Note_off_c, 1, 73, 127
1, 279419, Note_off_c, 4, 76, 127
1, 279420, Note_on_c, 3, 75, 127
1, 279420, Note_on_c, 6, 78, 127
1, 279420, Note_on_c, 12, 71, 127
1, 279550, Note_off_c, 10, 57, 127
1, 279553, Note_on_c, 10, 57, 127
1, 279682, Note_off_c, 12, 71, 127
1, 279682, Note_off_c, 6, 78, 127
1, 279682, Note_off_c, 3, 75, 127
1, 279683, Note_off_c, 10, 57, 127
1, 279684, Note_on_c, 3, 75, 127
1, 279684, Note_on_c, 6, 78, 127
1, 279684, Note_on_c, 12, 71, 127
1, 279684, Note_on_c, 12, 59, 127
1, 279814, Note_off_c, 12, 59, 127
1, 279815, Note_on_c, 6, 54, 127
1, 279945, Note_off_c, 6, 54, 127
1, 279945, Note_off_c, 12, 71, 127
1, 279945, Note_off_c, 6, 78, 127
1, 279945, Note_off_c, 3, 75, 127
1, 279948, Note_on_c, 6, 78, 127
1, 279948, Note_on_c, 12, 71, 127
1, 279948, Note_on_c, 8, 56, 127
1, 280078, Note_off_c, 8, 56, 127
1, 280079, Note_on_c, 12, 59, 127
1, 280209, Note_off_c, 12, 59, 127
1, 280209, Note_off_c, 6, 78, 127
1, 280210, Note_on_c, 4, 76, 127
1, 280210, Note_on_c, 4, 64, 127
1, 280340, Note_off_c, 4, 64, 127
1, 280343, Note_on_c, 12, 59, 127
1, 280469, Note_off_c, 12, 71, 127
1, 280470, Note_off_c, 4, 76, 127
1, 280473, Note_off_c, 12, 59, 127
1, 280474, Note_on_c, 8, 56, 127
1, 280604, Note_off_c, 8, 56, 127
1, 280605, Note_on_c, 12, 59, 127
1, 280735, Note_off_c, 12, 59, 127
1, 280738, Note_on_c, 4, 52, 127
1, 280868, Note_off_c, 4, 52, 127
1, 280869, Note_on_c, 12, 59, 127
1, 280933, Note_off_c, 12, 59, 127
1, 280934, Note_on_c, 11, 58, 127
1, 280998, Note_off_c, 11, 58, 127
1, 280999, Note_on_c, 5, 77, 127
1, 280999, Note_on_c, 12, 59, 127
1, 281130, Note_on_c, 8, 68, 127
1, 281260, Note_off_c, 8, 68, 127
1, 281263, Note_on_c, 1, 73, 127
1, 281392, Note_off_c, 5, 77, 127
1, 281393, Note_off_c, 1, 73, 127
1, 281394, Note_on_c, 6, 78, 127
1, 281394, Note_on_c, 3, 75, 127
1, 281524, Note_off_c, 3, 75, 127
1, 281524, Note_off_c, 6, 78, 127
1, 281525, Note_on_c, 5, 77, 127
1, 281525, Note_on_c, 8, 80, 127
1, 281525, Note_on_c, 1, 73, 127
1, 281655, Note_off_c, 12, 59, 127
1, 281658, Note_on_c, 12, 59, 127
1, 281787, Note_off_c, 1, 73, 127
1, 281787, Note_off_c, 8, 80, 127
1, 281787, Note_off_c, 5, 77, 127
1, 281788, Note_off_c, 12, 59, 127
1, 281789, Note_on_c, 8, 80, 127
1, 281789, Note_on_c, 5, 77, 127
1, 281789, Note_on_c, 1, 73, 127
1, 281789, Note_on_c, 1, 61, 127
1, 281919, Note_off_c, 1, 61, 127
1, 281920, Note_on_c, 8, 56, 127
1, 282050, Note_off_c, 8, 56, 127
1, 282050, Note_off_c, 1, 73, 127
1, 282050, Note_off_c, 5, 77, 127
1, 282050, Note_off_c, 8, 80, 127
1, 282053, Note_on_c, 5, 77, 127
1, 282053, Note_on_c, 8, 80, 127
1, 282053, Note_on_c, 1, 73, 127
1, 282053, Note_on_c, 10, 57, 127
1, 282183, Note_off_c, 10, 57, 127
1, 282184, Note_on_c, 1, 61, 127
1, 282314, Note_off_c, 1, 61, 127
1, 282314, Note_off_c, 8, 80, 127
1, 282314, Note_off_c, 5, 77, 127
1, 282315, Note_on_c, 6, 78, 127
1, 282315, Note_on_c, 6, 66, 127
1, 282445, Note_off_c, 6, 66, 127
1, 282448, Note_on_c, 1, 61, 127
1, 282574, Note_off_c, 1, 73, 127
1, 282575, Note_off_c, 6, 78, 127
1, 282578, Note_off_c, 1, 61, 127
1, 282579, Note_on_c, 10, 57, 127
1, 282709, Note_off_c, 10, 57, 127
1, 282710, Note_on_c, 1, 61, 127
1, 282840, Note_off_c, 1, 61, 127
1, 282841, Note_on_c, 6, 54, 127
1, 282974, Note_on_c, 4, 76, 127
1, 283038, Note_off_c, 4, 76, 127
1, 283039, Note_on_c, 3, 75, 127
1, 283083, Note_off_c, 6, 54, 127
1, 283087, Note_on_c, 6, 54, 127
1, 283087, Note_on_c, 11, 70, 127
1, 283087, Note_on_c, 4, 76, 127
1, 283103, Note_off_c, 3, 75, 127
1, 283220, Note_off_c, 11, 70, 127
1, 283221, Note_on_c, 1, 61, 127
1, 283354, Note_off_c, 1, 61, 127
1, 283355, Note_on_c, 6, 66, 127
1, 283488, Note_off_c, 6, 66, 127
1, 283488, Note_off_c, 6, 54, 127
1, 283489, Note_on_c, 8, 56, 127
1, 283489, Note_on_c, 12, 71, 127
1, 283622, Note_off_c, 12, 71, 127
1, 283622, Note_off_c, 8, 56, 127
1, 283623, Note_on_c, 11, 58, 127
1, 283623, Note_on_c, 1, 73, 127
1, 283756, Note_off_c, 4, 76, 127
1, 283757, Note_on_c, 4, 76, 127
1, 283890, Note_off_c, 4, 76, 127
1, 283890, Note_off_c, 1, 73, 127
1, 283890, Note_off_c, 11, 58, 127
1, 283891, Note_on_c, 11, 58, 127
1, 283891, Note_on_c, 1, 73, 127
1, 283891, Note_on_c, 6, 66, 127
1, 283891, Note_on_c, 6, 78, 127
1, 284017, Note_off_c, 1, 73, 127
1, 284024, Note_off_c, 6, 78, 127
1, 284025, Note_on_c, 1, 73, 127
1, 284158, Note_off_c, 1, 73, 127
1, 284158, Note_off_c, 6, 66, 127
1, 284158, Note_off_c, 11, 58, 127
1, 284159, Note_on_c, 12, 59, 127
1, 284159, Note_on_c, 12, 71, 127
1, 284159, Note_on_c, 6, 66, 127
1, 284159, Note_on_c, 2, 74, 127
1, 284292, Note_off_c, 2, 74, 127
1, 284295, Note_on_c, 6, 78, 127
1, 284428, Note_off_c, 6, 78, 127
1, 284429, Note_on_c, 12, 83, 127
1, 284562, Note_off_c, 12, 83, 127
1, 284563, Note_on_c, 6, 78, 127
1, 284690, Note_off_c, 6, 66, 127
1, 284690, Note_off_c, 12, 71, 127
1, 284690, Note_off_c, 12, 59, 127
1, 284696, Note_off_c, 6, 78, 127
1, 284697, Note_on_c, 2, 74, 127
1, 284830, Note_off_c, 2, 74, 127
1, 284831, Note_on_c, 6, 78, 127
1, 284964, Note_off_c, 6, 78, 127
1, 284965, Note_on_c, 12, 71, 127
1, 285098, Note_off_c, 12, 71, 127
1, 285099, Note_on_c, 1, 73, 127
1, 285165, Note_off_c, 1, 73, 127
1, 285166, Note_on_c, 11, 70, 127
1, 285232, Note_off_c, 11, 70, 127
1, 285235, Note_on_c, 1, 49, 127
1, 285235, Note_on_c, 12, 71, 127
1, 285235, Note_on_c, 5, 77, 127
1, 285372, Note_on_c, 8, 56, 127
1, 285506, Note_off_c, 12, 71, 127
1, 285507, Note_off_c, 8, 56, 127
1, 285508, Note_on_c, 1, 61, 127
1, 285644, Note_off_c, 5, 77, 127
1, 285644, Note_off_c, 1, 49, 127
1, 285645, Note_on_c, 3, 51, 127
1, 285645, Note_on_c, 6, 78, 127
1, 285781, Note_off_c, 6, 78, 127
1, 285781, Note_off_c, 3, 51, 127
1, 285782, Note_on_c, 5, 53, 127
1, 285782, Note_on_c, 8, 80, 127
1, 285918, Note_off_c, 1, 61, 127
1, 285919, Note_on_c, 12, 71, 127
1, 286055, Note_off_c, 12, 71, 127
1, 286055, Note_off_c, 5, 53, 127
1, 286056, Note_on_c, 5, 53, 127
1, 286056, Note_on_c, 1, 73, 127
1, 286056, Note_on_c, 1, 61, 127
1, 286192, Note_off_c, 1, 61, 127
1, 286192, Note_off_c, 1, 73, 127
1, 286193, Note_on_c, 8, 68, 127
1, 286329, Note_off_c, 8, 68, 127
1, 286329, Note_off_c, 5, 53, 127
1, 286330, Note_on_c, 6, 54, 127
1, 286330, Note_on_c, 10, 69, 127
1, 286330, Note_on_c, 1, 61, 127
1, 286466, Note_off_c, 8, 80, 127
1, 286467, Note_on_c, 1, 73, 127
1, 286603, Note_off_c, 1, 73, 127
1, 286604, Note_on_c, 6, 78, 127
1, 286740, Note_off_c, 6, 78, 127
1, 286741, Note_on_c, 1, 73, 127
1, 286872, Note_off_c, 1, 61, 127
1, 286872, Note_off_c, 10, 69, 127
1, 286872, Note_off_c, 6, 54, 127
1, 286876, Note_off_c, 1, 73, 127
1, 286877, Note_on_c, 10, 69, 127
1, 287013, Note_off_c, 10, 69, 127
1, 287014, Note_on_c, 1, 73, 127
1, 287150, Note_off_c, 1, 73, 127
1, 287151, Note_on_c, 6, 66, 127
1, 287287, Note_off_c, 6, 66, 127
1, 287288, Note_on_c, 10, 69, 127
1, 287355, Note_off_c, 10, 69, 127
1, 287356, Note_on_c, 7, 67, 127
1, 287423, Note_off_c, 7, 67, 127
1, 287424, Note_on_c, 7, 67, 127
1, 287424, Note_on_c, 2, 62, 127
1, 287424, Note_on_c, 12, 47, 127
1, 287561, Note_off_c, 2, 62, 127
1, 287562, Note_on_c, 2, 50, 127
1, 287699, Note_off_c, 2, 50, 127
1, 287702, Note_on_c, 7, 55, 127
1, 287839, Note_off_c, 7, 55, 127
1, 287840, Note_off_c, 12, 47, 127
1, 287841, Note_on_c, 4, 64, 127
1, 287841, Note_on_c, 11, 58, 127
1, 287841, Note_on_c, 1, 49, 127
1, 287978, Note_off_c, 1, 49, 127
1, 287978, Note_off_c, 11, 58, 127
1, 287978, Note_off_c, 4, 64, 127
1, 287981, Note_on_c, 12, 59, 127
1, 287981, Note_on_c, 2, 50, 127
1, 288120, Note_off_c, 7, 67, 127
1, 288121, Note_on_c, 6, 66, 127
1, 288258, Note_off_c, 6, 66, 127
1, 288258, Note_off_c, 2, 50, 127
1, 288258, Note_off_c, 12, 59, 127
1, 288261, Note_on_c, 12, 71, 127
1, 288261, Note_on_c, 6, 54, 127
1, 288261, Note_on_c, 12, 59, 127
1, 288261, Note_on_c, 2, 50, 127
1, 288398, Note_off_c, 12, 71, 127
1, 288401, Note_on_c, 6, 66, 127
1, 288538, Note_off_c, 6, 66, 127
1, 288538, Note_off_c, 2, 50, 127
1, 288538, Note_off_c, 12, 59, 127
1, 288538, Note_off_c, 6, 54, 127
1, 288541, Note_on_c, 5, 65, 127
1, 288541, Note_on_c, 8, 56, 127
1, 288541, Note_on_c, 12, 59, 127
1, 288541, Note_on_c, 1, 49, 127
1, 288678, Note_off_c, 5, 65, 127
1, 288681, Note_on_c, 8, 68, 127
1, 288818, Note_off_c, 8, 68, 127
1, 288821, Note_on_c, 1, 73, 127
1, 288958, Note_off_c, 1, 73, 127
1, 288961, Note_on_c, 8, 68, 127
1, 289094, Note_off_c, 1, 49, 127
1, 289094, Note_off_c, 12, 59, 127
1, 289094, Note_off_c, 8, 56, 127
1, 289098, Note_off_c, 8, 68, 127
1, 289101, Note_on_c, 5, 65, 127
1, 289238, Note_off_c, 5, 65, 127
1, 289239, Note_on_c, 8, 68, 127
1, 289376, Note_off_c, 8, 68, 127
1, 289379, Note_on_c, 1, 61, 127
1, 289516, Note_off_c, 1, 61, 127
1, 289519, Note_on_c, 6, 66, 127
1, 289586, Note_off_c, 6, 66, 127
1, 289589, Note_on_c, 5, 65, 127
1, 289656, Note_off_c, 5, 65, 127
1, 289659, Note_on_c, 10, 45, 127
1, 289659, Note_on_c, 6, 54, 127
1, 289659, Note_on_c, 10, 57, 127
1, 289659, Note_on_c, 1, 61, 127
1, 289659, Note_on_c, 6, 66, 127
1, 289799, Note_off_c, 6, 66, 127
1, 289802, Note_on_c, 10, 69, 127
1, 289942, Note_off_c, 10, 69, 127
1, 289946, Note_on_c, 1, 73, 127
1, 290086, Note_off_c, 1, 73, 127
1, 290090, Note_on_c, 10, 69, 127
1, 290230, Note_off_c, 10, 69, 127
1, 290234, Note_on_c, 6, 66, 127
1, 290374, Note_off_c, 6, 66, 127
1, 290378, Note_on_c, 10, 69, 127
1, 290447, Note_off_c, 10, 69, 127
1, 290450, Note_on_c, 6, 66, 127
1, 290519, Note_off_c, 6, 66, 127
1, 290520, Note_off_c, 1, 61, 127
1, 290523, Note_on_c, 1, 61, 127
1, 290667, Note_on_c, 6, 66, 127
1, 290736, Note_off_c, 6, 66, 127
1, 290739, Note_on_c, 5, 65, 127
1, 290806, Note_off_c, 1, 61, 127
1, 290807, Note_off_c, 5, 65, 127
1, 290808, Note_off_c, 10, 57, 127
1, 290808, Note_off_c, 6, 54, 127
1, 290808, Note_off_c, 10, 45, 127
1, 290811, Note_on_c, 12, 47, 127
1, 290811, Note_on_c, 6, 54, 127
1, 290811, Note_on_c, 10, 57, 127
1, 290811, Note_on_c, 2, 62, 127
1, 290811, Note_on_c, 6, 66, 127
1, 290951, Note_off_c, 6, 66, 127
1, 290954, Note_on_c, 10, 69, 127
1, 291094, Note_off_c, 10, 69, 127
1, 291098, Note_on_c, 1, 73, 127
1, 291238, Note_off_c, 1, 73, 127
1, 291242, Note_on_c, 10, 69, 127
1, 291382, Note_off_c, 10, 69, 127
1, 291386, Note_on_c, 6, 66, 127
1, 291526, Note_off_c, 6, 66, 127
1, 291530, Note_on_c, 10, 69, 127
1, 291599, Note_off_c, 10, 69, 127
1, 291602, Note_on_c, 6, 66, 127
1, 291671, Note_off_c, 6, 66, 127
1, 291675, Note_on_c, 1, 61, 127
1, 291815, Note_off_c, 1, 61, 127
1, 291819, Note_on_c, 6, 66, 127
1, 291888, Note_off_c, 6, 66, 127
1, 291891, Note_on_c, 5, 65, 127
1, 291960, Note_off_c, 5, 65, 127
1, 291961, Note_off_c, 2, 62, 127
1, 291961, Note_off_c, 10, 57, 127
1, 291961, Note_off_c, 6, 54, 127
1, 291961, Note_off_c, 12, 47, 127
1, 291964, Note_on_c, 1, 49, 127
1, 291964, Note_on_c, 6, 54, 127
1, 291964, Note_on_c, 10, 57, 127
1, 291964, Note_on_c, 1, 61, 127
1, 291964, Note_on_c, 6, 66, 127
1, 292104, Note_off_c, 6, 66, 127
1, 292107, Note_on_c, 8, 68, 127
1, 292247, Note_off_c, 8, 68, 127
1, 292251, Note_on_c, 12, 71, 127
1, 292391, Note_off_c, 12, 71, 127
1, 292395, Note_on_c, 8, 68, 127
1, 292532, Note_off_c, 1, 61, 127
1, 292532, Note_off_c, 10, 57, 127
1, 292532, Note_off_c, 6, 54, 127
1, 292532, Note_off_c, 1, 49, 127
1, 292535, Note_off_c, 8, 68, 127
1, 292539, Note_on_c, 5, 65, 127
1, 292679, Note_off_c, 5, 65, 127
1, 292683, Note_on_c, 8, 68, 127
1, 292752, Note_off_c, 8, 68, 127
1, 292755, Note_on_c, 5, 65, 127
1, 292824, Note_off_c, 5, 65, 127
1, 292828, Note_on_c, 1, 49, 127
1, 292828, Note_on_c, 8, 56, 127
1, 292828, Note_on_c, 12, 59, 127
1, 292828, Note_on_c, 1, 61, 127
1, 292968, Note_off_c, 1, 61, 127
1, 292972, Note_on_c, 6, 66, 127
1, 293041, Note_off_c, 6, 66, 127
1, 293044, Note_on_c, 5, 65, 127
1, 293113, Note_off_c, 5, 65, 127
1, 293113, Note_off_c, 12, 59, 127
1, 293113, Note_off_c, 8, 56, 127
1, 293113, Note_off_c, 1, 49, 127
1, 293117, Note_on_c, 6, 66, 127
1, 293117, Note_on_c, 10, 57, 127
1, 293117, Note_on_c, 6, 54, 127
1, 293117, Note_on_c, 1, 49, 127
1, 293117, Note_on_c, 6, 42, 127
1, 293264, Note_off_c, 6, 66, 127
1, 293267, Note_on_c, 10, 69, 127
1, 293340, Note_off_c, 10, 69, 127
1, 293343, Note_on_c, 6, 66, 127
1, 293416, Note_off_c, 6, 66, 127
1, 293419, Note_on_c, 1, 61, 127
1, 293566, Note_off_c, 1, 61, 127
1, 293570, Note_on_c, 6, 66, 127
1, 293643, Note_off_c, 6, 66, 127
1, 293644, Note_on_c, 5, 65, 127
1, 293717, Note_off_c, 5, 65, 127
1, 293720, Note_off_c, 6, 42, 127
1, 293720, Note_off_c, 1, 49, 127
1, 293720, Note_off_c, 6, 54, 127
1, 293720, Note_off_c, 10, 57, 127
1, 293721, Note_on_c, 6, 66, 127
1, 293721, Note_on_c, 6, 54, 127
1, 293721, Note_on_c, 1, 49, 127
1, 293721, Note_on_c, 10, 57, 127
1, 293721, Note_on_c, 10, 45, 127
1, 293868, Note_off_c, 6, 66, 127
1, 293872, Note_on_c, 10, 69, 127
1, 293945, Note_off_c, 10, 69, 127
1, 293946, Note_on_c, 6, 66, 127
1, 294019, Note_off_c, 6, 66, 127
1, 294022, Note_on_c, 1, 61, 127
1, 294169, Note_off_c, 1, 61, 127
1, 294173, Note_on_c, 6, 66, 127
1, 294246, Note_off_c, 6, 66, 127
1, 294249, Note_on_c, 5, 65, 127
1, 294322, Note_off_c, 5, 65, 127
1, 294323, Note_off_c, 10, 45, 127
1, 294323, Note_off_c, 10, 57, 127
1, 294323, Note_off_c, 1, 49, 127
1, 294323, Note_off_c, 6, 54, 127
1, 294324, Note_on_c, 6, 66, 127
1, 294324, Note_on_c, 10, 57, 127
1, 294324, Note_on_c, 6, 54, 127
1, 294324, Note_on_c, 2, 50, 127
1, 294324, Note_on_c, 12, 47, 127
1, 294471, Note_off_c, 6, 66, 127
1, 294475, Note_on_c, 10, 69, 127
1, 294548, Note_off_c, 10, 69, 127
1, 294549, Note_on_c, 6, 66, 127
1, 294622, Note_off_c, 6, 66, 127
1, 294626, Note_on_c, 1, 61, 127
1, 294773, Note_off_c, 1, 61, 127
1, 294777, Note_on_c, 6, 66, 127
1, 294850, Note_off_c, 6, 66, 127
1, 294853, Note_on_c, 5, 65, 127
1, 294926, Note_off_c, 5, 65, 127
1, 294926, Note_off_c, 12, 47, 127
1, 294926, Note_off_c, 2, 50, 127
1, 294926, Note_off_c, 6, 54, 127
1, 294926, Note_off_c, 10, 57, 127
1, 294929, Note_on_c, 6, 66, 127
1, 294929, Note_on_c, 10, 57, 127
1, 294929, Note_on_c, 1, 49, 127
1, 295076, Note_off_c, 6, 66, 127
1, 295080, Note_on_c, 10, 69, 127
1, 295153, Note_off_c, 10, 69, 127
1, 295154, Note_on_c, 6, 66, 127
1, 295227, Note_off_c, 6, 66, 127
1, 295228, Note_off_c, 10, 57, 127
1, 295231, Note_on_c, 1, 61, 127
1, 295231, Note_on_c, 8, 56, 127
1, 295378, Note_off_c, 1, 61, 127
1, 295382, Note_on_c, 4, 64, 127
1, 295455, Note_off_c, 4, 64, 127
1, 295456, Note_on_c, 3, 63, 127
1, 295525, Note_off_c, 1, 49, 127
1, 295529, Note_off_c, 3, 63, 127
1, 295530, Note_off_c, 8, 56, 127
1, 295531, Note_on_c, 6, 42, 127
1, 295531, Note_on_c, 11, 58, 127
1, 295531, Note_on_c, 4, 64, 127
1, 295684, Note_on_c, 1, 49, 127
1, 295834, Note_off_c, 1, 49, 127
1, 295838, Note_on_c, 6, 54, 127
1, 295978, Note_off_c, 11, 58, 127
1, 295989, Note_off_c, 6, 42, 127
1, 295992, Note_on_c, 8, 44, 127
1, 295992, Note_on_c, 12, 59, 127
1, 296142, Note_off_c, 12, 59, 127
1, 296142, Note_off_c, 8, 44, 127
1, 296146, Note_on_c, 11, 46, 127
1, 296146, Note_on_c, 1, 61, 127
1, 296297, Note_off_c, 4, 64, 127
1, 296300, Note_on_c, 4, 64, 127
1, 296446, Note_off_c, 6, 54, 127
1, 296450, Note_off_c, 4, 64, 127
1, 296450, Note_off_c, 1, 61, 127
1, 296450, Note_off_c, 11, 46, 127
1, 296456, Note_on_c, 11, 46, 127
1, 296456, Note_on_c, 1, 61, 127
1, 296456, Note_on_c, 6, 54, 127
1, 296456, Note_on_c, 6, 66, 127
1, 296596, Note_off_c, 1, 61, 127
1, 296606, Note_off_c, 6, 66, 127
1, 296612, Note_on_c, 1, 61, 127
1, 296761, Note_off_c, 6, 54, 127
1, 296761, Note_off_c, 11, 46, 127
1, 296762, Note_off_c, 1, 61, 127
1, 296765, Note_on_c, 12, 47, 127
1, 296765, Note_on_c, 12, 59, 127
1, 296765, Note_on_c, 6, 54, 127
1, 296765, Note_on_c, 2, 62, 127
1, 296915, Note_off_c, 2, 62, 127
1, 296919, Note_on_c, 6, 66, 127
1, 297069, Note_off_c, 6, 66, 127
1, 297073, Note_on_c, 12, 71, 127
1, 297223, Note_off_c, 12, 71, 127
1, 297227, Note_on_c, 6, 66, 127
1, 297373, Note_off_c, 6, 54, 127
1, 297373, Note_off_c, 12, 59, 127
1, 297373, Note_off_c, 12, 47, 127
1, 297377, Note_off_c, 6, 66, 127
1, 297381, Note_on_c, 2, 62, 127
1, 297531, Note_off_c, 2, 62, 127
1, 297534, Note_on_c, 6, 66, 127
1, 297607, Note_off_c, 6, 66, 127
1, 297611, Note_on_c, 2, 62, 127
1, 297684, Note_off_c, 2, 62, 127
1, 297690, Note_on_c, 12, 59, 127
1, 297840, Note_off_c, 12, 59, 127
1, 297844, Note_on_c, 1, 61, 127
1, 297917, Note_off_c, 1, 61, 127
1, 297921, Note_on_c, 11, 58, 127
1, 297994, Note_off_c, 11, 58, 127
1, 297998, Note_on_c, 12, 59, 127
1, 297998, Note_on_c, 8, 56, 127
1, 297998, Note_on_c, 1, 37, 127
1, 298154, Note_on_c, 8, 44, 127
1, 298305, Note_off_c, 8, 44, 127
1, 298312, Note_on_c, 1, 49, 127
1, 298453, Note_off_c, 8, 56, 127
1, 298463, Note_off_c, 1, 37, 127
1, 298469, Note_on_c, 6, 54, 127
1, 298469, Note_on_c, 3, 39, 127
1, 298620, Note_off_c, 3, 39, 127
1, 298620, Note_off_c, 6, 54, 127
1, 298626, Note_on_c, 8, 56, 127
1, 298626, Note_on_c, 5, 41, 127
1, 298777, Note_off_c, 12, 59, 127
1, 298784, Note_on_c, 12, 59, 127
1, 298930, Note_off_c, 1, 49, 127
1, 298934, Note_off_c, 5, 41, 127
1, 298934, Note_off_c, 8, 56, 127
1, 298935, Note_off_c, 12, 59, 127
1, 298941, Note_on_c, 1, 61, 127
1, 298941, Note_on_c, 1, 49, 127
1, 298941, Note_on_c, 8, 56, 127
1, 298941, Note_on_c, 5, 41, 127
1, 299082, Note_off_c, 8, 56, 127
1, 299092, Note_off_c, 1, 61, 127
1, 299098, Note_on_c, 8, 56, 127
1, 299249, Note_off_c, 8, 56, 127
1, 299249, Note_off_c, 5, 41, 127
1, 299249, Note_off_c, 1, 49, 127
1, 299256, Note_on_c, 10, 57, 127
1, 299256, Note_on_c, 1, 49, 127
1, 299256, Note_on_c, 6, 54, 127
1, 299256, Note_on_c, 6, 42, 127
1, 299407, Note_off_c, 10, 57, 127
1, 299413, Note_on_c, 1, 61, 127
1, 299564, Note_off_c, 1, 61, 127
1, 299570, Note_on_c, 6, 66, 127
1, 299721, Note_off_c, 6, 66, 127
1, 299728, Note_on_c, 1, 61, 127
1, 299874, Note_off_c, 6, 42, 127
1, 299874, Note_off_c, 6, 54, 127
1, 299874, Note_off_c, 1, 49, 127
1, 299880, Note_off_c, 1, 61, 127
1, 299886, Note_on_c, 10, 57, 127
1, 300037, Note_off_c, 10, 57, 127
1, 300041, Note_on_c, 1, 61, 127
1, 300114, Note_off_c, 1, 61, 127
1, 300120, Note_on_c, 10, 57, 127
1, 300193, Note_off_c, 10, 57, 127
1, 300199, Note_on_c, 6, 54, 127
1, 300350, Note_off_c, 6, 54, 127
1, 300357, Note_on_c, 10, 57, 127
1, 300430, Note_off_c, 10, 57, 127
1, 300434, Note_on_c, 8, 56, 127
1, 300507, Note_off_c, 8, 56, 127
1, 300514, Note_on_c, 0, 36, 127
1, 300514, Note_on_c, 10, 57, 127
1, 300677, Note_off_c, 10, 57, 127
1, 300684, Note_on_c, 6, 66, 127
1, 300763, Note_off_c, 6, 66, 127
1, 300772, Note_on_c, 5, 65, 127
1, 300851, Note_off_c, 5, 65, 127
1, 300860, Note_on_c, 6, 66, 127
1, 301030, Note_off_c, 6, 66, 127
1, 301036, Note_on_c, 10, 57, 127
1, 301179, Note_off_c, 0, 36, 127
1, 301206, Note_off_c, 10, 57, 127
1, 301212, Note_on_c, 8, 56, 127
1, 301212, Note_on_c, 1, 37, 127
1, 301399, Note_on_c, 6, 66, 127
1, 301556, Note_off_c, 8, 56, 127
1, 301609, Note_on_c, 1, 49, 127
1, 301609, Note_on_c, 12, 59, 127
1, 301609, Note_on_c, 1, 61, 127
1, 301743, Note_off_c, 6, 66, 127
1, 301866, Note_on_c, 5, 65, 127
1, 301907, Note_off_c, 1, 37, 127
1, 302066, Note_off_c, 1, 61, 127
1, 302066, Note_off_c, 1, 49, 127
1, 302155, Note_off_c, 12, 59, 127
1, 302164, Note_on_c, 11, 58, 127
1, 302164, Note_on_c, 1, 49, 127
1, 302164, Note_on_c, 6, 42, 127
1, 302164, Note_on_c, 6, 66, 127
1, 302164, Note_on_c, 1, 61, 127
1, 302187, Note_off_c, 5, 65, 127
1, 303005, Note_off_c, 1, 61, 127
1, 303005, Note_off_c, 6, 42, 127
1, 303005, Note_off_c, 1, 49, 127
1, 303005, Note_off_c, 11, 58, 127
1, 303053, Note_off_c, 6, 66, 127
1, 303084, Note_on_c, 6, 66, 127
1, 303364, Note_off_c, 6, 66, 127
1, 303365, Note_on_c, 6, 66, 127
1, 303645, Note_off_c, 6, 66, 127
1, 303646, Note_on_c, 5, 65, 127
1, 303926, Note_off_c, 5, 65, 127
1, 303927, Note_on_c, 4, 64, 127
1, 304207, Note_off_c, 4, 64, 127
1, 304208, Note_on_c, 4, 64, 127
1, 304488, Note_off_c, 4, 64, 127
1, 304489, Note_on_c, 3, 63, 127
1, 304769, Note_off_c, 3, 63, 127
1, 304770, Note_on_c, 2, 62, 127
1, 305050, Note_off_c, 2, 62, 127
1, 305051, Note_on_c, 2, 62, 127
1, 305331, Note_off_c, 2, 62, 127
1, 305332, Note_on_c, 1, 61, 127
1, 305471, Note_off_c, 1, 61, 127
1, 305472, Note_on_c, 12, 59, 127
1, 305611, Note_off_c, 12, 59, 127
1, 305612, Note_on_c, 1, 61, 127
1, 305612, Note_on_c, 1, 73, 127
1, 305751, Note_off_c, 1, 61, 127
1, 305752, Note_on_c, 3, 63, 127
1, 305891, Note_off_c, 3, 63, 127
1, 305891, Note_off_c, 1, 73, 127
1, 305892, Note_on_c, 4, 64, 127
1, 305892, Note_on_c, 1, 73, 127
1, 306031, Note_off_c, 4, 64, 127
1, 306032, Note_on_c, 1, 61, 127
1, 306171, Note_off_c, 1, 61, 127
1, 306171, Note_off_c, 1, 73, 127
1, 306172, Note_on_c, 3, 63, 127
1, 306172, Note_on_c, 0, 72, 127
1, 306452, Note_off_c, 0, 72, 127
1, 306452, Note_off_c, 3, 63, 127
1, 306453, Note_on_c, 8, 68, 127
1, 306453, Note_on_c, 12, 71, 127
1, 306592, Note_off_c, 8, 68, 127
1, 306593, Note_on_c, 6, 66, 127
1, 306732, Note_off_c, 6, 66, 127
1, 306732, Note_off_c, 12, 71, 127
1, 306733, Note_on_c, 8, 68, 127
1, 306733, Note_on_c, 12, 71, 127
1, 307013, Note_off_c, 12, 71, 127
1, 307013, Note_off_c, 8, 68, 127
1, 307014, Note_on_c, 1, 61, 127
1, 307014, Note_on_c, 11, 70, 127
1, 307294, Note_off_c, 11, 70, 127
1, 307294, Note_off_c, 1, 61, 127
1, 307295, Note_on_c, 6, 66, 127
1, 307295, Note_on_c, 10, 69, 127
1, 307434, Note_off_c, 6, 66, 127
1, 307435, Note_on_c, 5, 65, 127
1, 307574, Note_off_c, 5, 65, 127
1, 307574, Note_off_c, 10, 69, 127
1, 307575, Note_on_c, 6, 66, 127
1, 307575, Note_on_c, 10, 69, 127
1, 307855, Note_off_c, 10, 69, 127
1, 307856, Note_on_c, 8, 68, 127
1, 307985, Note_off_c, 6, 66, 127
1, 307995, Note_off_c, 8, 68, 127
1, 307996, Note_on_c, 6, 66, 127
1, 308135, Note_off_c, 6, 66, 127
1, 308136, Note_on_c, 5, 65, 127
1, 308136, Note_on_c, 8, 68, 127
1, 308275, Note_off_c, 8, 68, 127
1, 308276, Note_on_c, 10, 69, 127
1, 308415, Note_off_c, 10, 69, 127
1, 308416, Note_on_c, 12, 71, 127
1, 308555, Note_off_c, 12, 71, 127
1, 308556, Note_on_c, 8, 68, 127
1, 308695, Note_off_c, 8, 68, 127
1, 308695, Note_off_c, 5, 65, 127
1, 308696, Note_on_c, 6, 66, 127
1, 308696, Note_on_c, 10, 69, 127
1, 308835, Note_off_c, 10, 69, 127
1, 308836, Note_on_c, 8, 68, 127
1, 308975, Note_off_c, 8, 68, 127
1, 308975, Note_off_c, 6, 66, 127
1, 308976, Note_on_c, 6, 54, 127
1, 308976, Note_on_c, 10, 57, 127
1, 308976, Note_on_c, 6, 66, 127
1, 309115, Note_off_c, 6, 66, 127
1, 309116, Note_on_c, 8, 68, 127
1, 309255, Note_off_c, 8, 68, 127
1, 309255, Note_off_c, 10, 57, 127
1, 309255, Note_off_c, 6, 54, 127
1, 309256, Note_on_c, 6, 54, 127
1, 309256, Note_on_c, 2, 62, 127
1, 309256, Note_on_c, 10, 69, 127
1, 309395, Note_off_c, 10, 69, 127
1, 309396, Note_on_c, 6, 66, 127
1, 309535, Note_off_c, 6, 66, 127
1, 309535, Note_off_c, 6, 54, 127
1, 309536, Note_on_c, 5, 53, 127
1, 309536, Note_on_c, 8, 68, 127
1, 309816, Note_off_c, 8, 68, 127
1, 309816, Note_off_c, 5, 53, 127
1, 309816, Note_off_c, 2, 62, 127
1, 309817, Note_on_c, 4, 52, 127
1, 309817, Note_on_c, 8, 56, 127
1, 309817, Note_on_c, 1, 73, 127
1, 309956, Note_off_c, 1, 73, 127
1, 309957, Note_on_c, 12, 71, 127
1, 310096, Note_off_c, 12, 71, 127
1, 310096, Note_off_c, 8, 56, 127
1, 310096, Note_off_c, 4, 52, 127
1, 310097, Note_on_c, 4, 52, 127
1, 310097, Note_on_c, 1, 61, 127
1, 310097, Note_on_c, 1, 73, 127
1, 310377, Note_off_c, 1, 73, 127
1, 310377, Note_off_c, 1, 61, 127
1, 310377, Note_off_c, 4, 52, 127
1, 310378, Note_on_c, 3, 51, 127
1, 310378, Note_on_c, 6, 54, 127
1, 310378, Note_on_c, 6, 66, 127
1, 310658, Note_off_c, 6, 66, 127
1, 310658, Note_off_c, 6, 54, 127
1, 310658, Note_off_c, 3, 51, 127
1, 310659, Note_on_c, 2, 50, 127
1, 310659, Note_on_c, 12, 59, 127
1, 310659, Note_on_c, 12, 71, 127
1, 310798, Note_off_c, 12, 71, 127
1, 310799, Note_on_c, 11, 70, 127
1, 310938, Note_off_c, 11, 70, 127
1, 310938, Note_off_c, 2, 50, 127
1, 310939, Note_on_c, 2, 50, 127
1, 310939, Note_on_c, 12, 71, 127
1, 311219, Note_off_c, 12, 71, 127
1, 311219, Note_off_c, 2, 50, 127
1, 311220, Note_on_c, 1, 49, 127
1, 311220, Note_on_c, 5, 65, 127
1, 311359, Note_off_c, 12, 59, 127
1, 311360, Note_on_c, 12, 59, 127
1, 311499, Note_off_c, 12, 59, 127
1, 311499, Note_off_c, 5, 65, 127
1, 311499, Note_off_c, 1, 49, 127
1, 311500, Note_on_c, 2, 50, 127
1, 311500, Note_on_c, 10, 57, 127
1, 311500, Note_on_c, 6, 66, 127
1, 311639, Note_off_c, 10, 57, 127
1, 311640, Note_on_c, 8, 56, 127
1, 311779, Note_off_c, 8, 56, 127
1, 311780, Note_on_c, 10, 57, 127
1, 311919, Note_off_c, 10, 57, 127
1, 311920, Note_on_c, 6, 54, 127
1, 312059, Note_off_c, 6, 54, 127
1, 312059, Note_off_c, 2, 50, 127
1, 312060, Note_on_c, 12, 47, 127
1, 312060, Note_on_c, 8, 56, 127
1, 312199, Note_off_c, 6, 66, 127
1, 312200, Note_on_c, 6, 66, 127
1, 312339, Note_off_c, 6, 66, 127
1, 312339, Note_off_c, 8, 56, 127
1, 312339, Note_off_c, 12, 47, 127
1, 312340, Note_on_c, 1, 49, 127
1, 312340, Note_on_c, 1, 61, 127
1, 312340, Note_on_c, 5, 65, 127
1, 312479, Note_off_c, 5, 65, 127
1, 312480, Note_on_c, 6, 66, 127
1, 312619, Note_off_c, 6, 66, 127
1, 312619, Note_off_c, 1, 61, 127
1, 312620, Note_on_c, 12, 59, 127
1, 312620, Note_on_c, 8, 68, 127
1, 312759, Note_off_c, 8, 68, 127
1, 312760, Note_on_c, 5, 65, 127
1, 312899, Note_off_c, 5, 65, 127
1, 312899, Note_off_c, 12, 59, 127
1, 312899, Note_off_c, 1, 49, 127
1, 312900, Note_on_c, 2, 50, 127
1, 312900, Note_on_c, 10, 57, 127
1, 312900, Note_on_c, 6, 66, 127
1, 313039, Note_off_c, 10, 57, 127
1, 313040, Note_on_c, 12, 59, 127
1, 313179, Note_off_c, 12, 59, 127
1, 313180, Note_on_c, 10, 57, 127
1, 313319, Note_off_c, 10, 57, 127
1, 313320, Note_on_c, 8, 56, 127
1, 313459, Note_off_c, 8, 56, 127
1, 313460, Note_on_c, 6, 54, 127
1, 313599, Note_off_c, 6, 54, 127
1, 313600, Note_on_c, 10, 57, 127
1, 313739, Note_off_c, 10, 57, 127
1, 313739, Note_off_c, 2, 50, 127
1, 313740, Note_on_c, 3, 51, 127
1, 313740, Note_on_c, 12, 59, 127
1, 313879, Note_off_c, 6, 66, 127
1, 313880, Note_on_c, 4, 64, 127
1, 314019, Note_off_c, 4, 64, 127
1, 314020, Note_on_c, 6, 66, 127
1, 314159, Note_off_c, 6, 66, 127
1, 314160, Note_on_c, 8, 68, 127
1, 314299, Note_off_c, 8, 68, 127
1, 314300, Note_on_c, 10, 69, 127
1, 314439, Note_off_c, 10, 69, 127
1, 314440, Note_on_c, 6, 66, 127
1, 314579, Note_off_c, 6, 66, 127
1, 314579, Note_off_c, 3, 51, 127
1, 314580, Note_on_c, 4, 52, 127
1, 314580, Note_on_c, 8, 68, 127
1, 314719, Note_off_c, 12, 59, 127
1, 314720, Note_on_c, 1, 61, 127
1, 314859, Note_off_c, 1, 61, 127
1, 314860, Note_on_c, 12, 59, 127
1, 314999, Note_off_c, 12, 59, 127
1, 315000, Note_on_c, 10, 57, 127
1, 315139, Note_off_c, 10, 57, 127
1, 315140, Note_on_c, 8, 56, 127
1, 315279, Note_off_c, 8, 56, 127
1, 315280, Note_on_c, 0, 60, 127
1, 315419, Note_off_c, 0, 60, 127
1, 315419, Note_off_c, 4, 52, 127
1, 315420, Note_on_c, 10, 57, 127
1, 315420, Note_on_c, 1, 61, 127
1, 315559, Note_off_c, 8, 68, 127
1, 315560, Note_on_c, 10, 69, 127
1, 315699, Note_off_c, 10, 69, 127
1, 315700, Note_on_c, 8, 68, 127
1, 315839, Note_off_c, 8, 68, 127
1, 315840, Note_on_c, 6, 66, 127
1, 315979, Note_off_c, 6, 66, 127
1, 315980, Note_on_c, 4, 64, 127
1, 316119, Note_off_c, 4, 64, 127
1, 316120, Note_on_c, 8, 68, 127
1, 316259, Note_off_c, 8, 68, 127
1, 316259, Note_off_c, 10, 57, 127
1, 316260, Note_on_c, 3, 51, 127
1, 316260, Note_on_c, 6, 66, 127
1, 316399, Note_off_c, 1, 61, 127
1, 316400, Note_on_c, 11, 58, 127
1, 316539, Note_off_c, 11, 58, 127
1, 316540, Note_on_c, 0, 60, 127
1, 316679, Note_off_c, 0, 60, 127
1, 316680, Note_on_c, 1, 61, 127
1, 316819, Note_off_c, 1, 61, 127
1, 316820, Note_on_c, 3, 63, 127
1, 316959, Note_off_c, 3, 63, 127
1, 316960, Note_on_c, 11, 58, 127
1, 317099, Note_off_c, 11, 58, 127
1, 317099, Note_off_c, 3, 51, 127
1, 317100, Note_on_c, 8, 56, 127
1, 317100, Note_on_c, 0, 60, 127
1, 317239, Note_off_c, 6, 66, 127
1, 317240, Note_on_c, 8, 68, 127
1, 317379, Note_off_c, 8, 68, 127
1, 317380, Note_on_c, 6, 66, 127
1, 317519, Note_off_c, 6, 66, 127
1, 317520, Note_on_c, 4, 64, 127
1, 317659, Note_off_c, 4, 64, 127
1, 317660, Note_on_c, 3, 63, 127
1, 317799, Note_off_c, 3, 63, 127
1, 317800, Note_on_c, 6, 66, 127
1, 317939, Note_off_c, 6, 66, 127
1, 317939, Note_off_c, 0, 60, 127
1, 317939, Note_off_c, 8, 56, 127
1, 317940, Note_on_c, 1, 49, 127
1, 317940, Note_on_c, 1, 61, 127
1, 317940, Note_on_c, 4, 64, 127
1, 318079, Note_off_c, 1, 49, 127
1, 318080, Note_on_c, 0, 48, 127
1, 318219, Note_off_c, 0, 48, 127
1, 318219, Note_off_c, 1, 61, 127
1, 318220, Note_on_c, 1, 49, 127
1, 318220, Note_on_c, 1, 61, 127
1, 318359, Note_off_c, 1, 49, 127
1, 318360, Note_on_c, 3, 51, 127
1, 318499, Note_off_c, 3, 51, 127
1, 318499, Note_off_c, 1, 61, 127
1, 318499, Note_off_c, 4, 64, 127
1, 318500, Note_on_c, 4, 52, 127
1, 318500, Note_on_c, 1, 61, 127
1, 318500, Note_on_c, 4, 64, 127
1, 318639, Note_off_c, 4, 52, 127
1, 318640, Note_on_c, 1, 49, 127
1, 318779, Note_off_c, 1, 49, 127
1, 318779, Note_off_c, 4, 64, 127
1, 318779, Note_off_c, 1, 61, 127
1, 318780, Note_on_c, 3, 51, 127
1, 318780, Note_on_c, 0, 60, 127
1, 318780, Note_on_c, 6, 66, 127
1, 319060, Note_off_c, 6, 66, 127
1, 319060, Note_off_c, 0, 60, 127
1, 319060, Note_off_c, 3, 51, 127
1, 319061, Note_on_c, 8, 56, 127
1, 319061, Note_on_c, 12, 59, 127
1, 319061, Note_on_c, 3, 63, 127
1, 319200, Note_off_c, 8, 56, 127
1, 319201, Note_on_c, 6, 54, 127
1, 319340, Note_off_c, 6, 54, 127
1, 319340, Note_off_c, 3, 63, 127
1, 319340, Note_off_c, 12, 59, 127
1, 319341, Note_on_c, 8, 56, 127
1, 319341, Note_on_c, 12, 59, 127
1, 319341, Note_on_c, 8, 68, 127
1, 319621, Note_off_c, 8, 68, 127
1, 319621, Note_off_c, 12, 59, 127
1, 319621, Note_off_c, 8, 56, 127
1, 319622, Note_on_c, 1, 49, 127
1, 319622, Note_on_c, 11, 58, 127
1, 319622, Note_on_c, 5, 65, 127
1, 319902, Note_off_c, 5, 65, 127
1, 319902, Note_off_c, 11, 58, 127
1, 319902, Note_off_c, 1, 49, 127
1, 319903, Note_on_c, 6, 54, 127
1, 319903, Note_on_c, 10, 57, 127
1, 319903, Note_on_c, 1, 61, 127
1, 320042, Note_off_c, 6, 54, 127
1, 320043, Note_on_c, 5, 53, 127
1, 320182, Note_off_c, 5, 53, 127
1, 320182, Note_off_c, 10, 57, 127
1, 320183, Note_on_c, 6, 54, 127
1, 320183, Note_on_c, 10, 57, 127
1, 320463, Note_off_c, 10, 57, 127
1, 320463, Note_off_c, 1, 61, 127
1, 320464, Note_on_c, 8, 56, 127
1, 320464, Note_on_c, 12, 71, 127
1, 320603, Note_off_c, 12, 71, 127
1, 320604, Note_on_c, 1, 73, 127
1, 320743, Note_off_c, 1, 73, 127
1, 320743, Note_off_c, 6, 54, 127
1, 320744, Note_on_c, 5, 53, 127
1, 320744, Note_on_c, 12, 71, 127
1, 320883, Note_off_c, 12, 71, 127
1, 320884, Note_on_c, 10, 69, 127
1, 321023, Note_off_c, 10, 69, 127
1, 321023, Note_off_c, 8, 56, 127
1, 321024, Note_on_c, 1, 61, 127
1, 321024, Note_on_c, 8, 68, 127
1, 321163, Note_off_c, 8, 68, 127
1, 321164, Note_on_c, 12, 71, 127
1, 321303, Note_off_c, 12, 71, 127
1, 321303, Note_off_c, 5, 53, 127
1, 321304, Note_on_c, 6, 54, 127
1, 321304, Note_on_c, 10, 69, 127
1, 321443, Note_off_c, 6, 54, 127
1, 321444, Note_on_c, 8, 56, 127
1, 321583, Note_off_c, 8, 56, 127
1, 321583, Note_off_c, 10, 69, 127
1, 321583, Note_off_c, 1, 61, 127
1, 321584, Note_on_c, 6, 54, 127
1, 321584, Note_on_c, 10, 69, 127
1, 321584, Note_on_c, 1, 73, 127
1, 321723, Note_off_c, 6, 54, 127
1, 321724, Note_on_c, 4, 52, 127
1, 321863, Note_off_c, 4, 52, 127
1, 321863, Note_off_c, 1, 73, 127
1, 321863, Note_off_c, 10, 69, 127
1, 321864, Note_on_c, 2, 50, 127
1, 321864, Note_on_c, 6, 66, 127
1, 321864, Note_on_c, 6, 78, 127
1, 322003, Note_off_c, 2, 50, 127
1, 322004, Note_on_c, 1, 49, 127
1, 322143, Note_off_c, 1, 49, 127
1, 322143, Note_off_c, 6, 66, 127
1, 322144, Note_on_c, 12, 47, 127
1, 322144, Note_on_c, 8, 68, 127
1, 322283, Note_off_c, 8, 68, 127
1, 322284, Note_on_c, 6, 66, 127
1, 322423, Note_off_c, 6, 66, 127
1, 322423, Note_off_c, 12, 47, 127
1, 322423, Note_off_c, 6, 78, 127
1, 322424, Note_on_c, 8, 44, 127
1, 322424, Note_on_c, 8, 68, 127
1, 322424, Note_on_c, 5, 77, 127
1, 322563, Note_off_c, 8, 68, 127
1, 322564, Note_on_c, 10, 69, 127
1, 322703, Note_off_c, 10, 69, 127
1, 322703, Note_off_c, 8, 44, 127
1, 322704, Note_on_c, 1, 49, 127
1, 322704, Note_on_c, 12, 71, 127
1, 322843, Note_off_c, 12, 71, 127
1, 322844, Note_on_c, 8, 68, 127
1, 322983, Note_off_c, 8, 68, 127
1, 322983, Note_off_c, 1, 49, 127
1, 322983, Note_off_c, 5, 77, 127
1, 322984, Note_on_c, 6, 42, 127
1, 322984, Note_on_c, 10, 69, 127
1, 322984, Note_on_c, 6, 78, 127
1, 323123, Note_off_c, 10, 69, 127
1, 323124, Note_on_c, 12, 71, 127
1, 323262, Note_off_c, 6, 42, 127
1, 323263, Note_off_c, 12, 71, 127
1, 323263, Note_off_c, 6, 78, 127
1, 323264, Note_on_c, 10, 69, 127
1, 323264, Note_on_c, 6, 78, 127
1, 323403, Note_off_c, 10, 69, 127
1, 323404, Note_on_c, 8, 68, 127
1, 323543, Note_off_c, 8, 68, 127
1, 323543, Note_off_c, 6, 78, 127
1, 323544, Note_on_c, 6, 66, 127
1, 323544, Note_on_c, 6, 78, 127
1, 323683, Note_off_c, 6, 66, 127
1, 323684, Note_on_c, 10, 69, 127
1, 323823, Note_off_c, 10, 69, 127
1, 323823, Note_off_c, 6, 78, 127
1, 323824, Note_on_c, 8, 68, 127
1, 323824, Note_on_c, 5, 77, 127
1, 324104, Note_off_c, 5, 77, 127
1, 324104, Note_off_c, 8, 68, 127
1, 324105, Note_on_c, 1, 73, 127
1, 324105, Note_on_c, 4, 76, 127
1, 324244, Note_off_c, 1, 73, 127
1, 324245, Note_on_c, 12, 71, 127
1, 324384, Note_off_c, 12, 71, 127
1, 324384, Note_off_c, 4, 76, 127
1, 324385, Note_on_c, 1, 73, 127
1, 324385, Note_on_c, 4, 76, 127
1, 324665, Note_off_c, 4, 76, 127
1, 324665, Note_off_c, 1, 73, 127
1, 324666, Note_on_c, 6, 66, 127
1, 324666, Note_on_c, 3, 75, 127
1, 324946, Note_off_c, 3, 75, 127
1, 324946, Note_off_c, 6, 66, 127
1, 324947, Note_on_c, 12, 71, 127
1, 324947, Note_on_c, 2, 74, 127
1, 325086, Note_off_c, 12, 71, 127
1, 325087, Note_on_c, 11, 70, 127
1, 325226, Note_off_c, 11, 70, 127
1, 325226, Note_off_c, 2, 74, 127
1, 325227, Note_on_c, 12, 71, 127
1, 325227, Note_on_c, 2, 74, 127
1, 325507, Note_off_c, 2, 74, 127
1, 325508, Note_on_c, 1, 73, 127
1, 325647, Note_off_c, 12, 71, 127
1, 325648, Note_on_c, 12, 71, 127
1, 325787, Note_off_c, 12, 71, 127
1, 325787, Note_off_c, 1, 73, 127
1, 325788, Note_on_c, 10, 69, 127
1, 325788, Note_on_c, 6, 78, 127
1, 325927, Note_off_c, 10, 69, 127
1, 325928, Note_on_c, 8, 68, 127
1, 326067, Note_off_c, 8, 68, 127
1, 326068, Note_on_c, 6, 66, 127
1, 326207, Note_off_c, 6, 66, 127
1, 326208, Note_on_c, 10, 69, 127
1, 326347, Note_off_c, 10, 69, 127
1, 326348, Note_on_c, 8, 68, 127
1, 326487, Note_off_c, 6, 78, 127
1, 326488, Note_on_c, 6, 78, 127
1, 326627, Note_off_c, 6, 78, 127
1, 326627, Note_off_c, 8, 68, 127
1, 326628, Note_on_c, 1, 73, 127
1, 326628, Note_on_c, 5, 77, 127
1, 326767, Note_off_c, 5, 77, 127
1, 326768, Note_on_c, 6, 78, 127
1, 326907, Note_off_c, 6, 78, 127
1, 326908, Note_on_c, 8, 80, 127
1, 327047, Note_off_c, 8, 80, 127
1, 327048, Note_on_c, 5, 77, 127
1, 327187, Note_off_c, 5, 77, 127
1, 327188, Note_on_c, 6, 78, 127
1, 327327, Note_off_c, 6, 78, 127
1, 327328, Note_on_c, 3, 75, 127
1, 327467, Note_off_c, 3, 75, 127
1, 327467, Note_off_c, 1, 73, 127
1, 327468, Note_on_c, 12, 71, 127
1, 327468, Note_on_c, 8, 80, 127
1, 327607, Note_off_c, 8, 80, 127
1, 327608, Note_on_c, 10, 81, 127
1, 327747, Note_off_c, 10, 81, 127
1, 327748, Note_on_c, 8, 80, 127
1, 327887, Note_off_c, 8, 80, 127
1, 327888, Note_on_c, 6, 78, 127
1, 328027, Note_off_c, 6, 78, 127
1, 328028, Note_on_c, 5, 77, 127
1, 328167, Note_off_c, 5, 77, 127
1, 328168, Note_on_c, 1, 73, 127
1, 328307, Note_off_c, 1, 73, 127
1, 328308, Note_on_c, 6, 78, 127
1, 328447, Note_off_c, 12, 71, 127
1, 328448, Note_on_c, 10, 69, 127
1, 328587, Note_off_c, 10, 69, 127
1, 328588, Note_on_c, 8, 68, 127
1, 328727, Note_off_c, 8, 68, 127
1, 328728, Note_on_c, 6, 66, 127
1, 328867, Note_off_c, 6, 66, 127
1, 328868, Note_on_c, 8, 68, 127
1, 329007, Note_off_c, 8, 68, 127
1, 329008, Note_on_c, 10, 69, 127
1, 329147, Note_off_c, 10, 69, 127
1, 329147, Note_off_c, 6, 78, 127
1, 329148, Note_on_c, 1, 61, 127
1, 329148, Note_on_c, 8, 68, 127
1, 329148, Note_on_c, 4, 76, 127
1, 329287, Note_off_c, 8, 68, 127
1, 329288, Note_on_c, 6, 66, 127
1, 329427, Note_off_c, 6, 66, 127
1, 329427, Note_off_c, 4, 76, 127
1, 329427, Note_off_c, 1, 61, 127
1, 329428, Note_on_c, 1, 61, 127
1, 329428, Note_on_c, 4, 64, 127
1, 329428, Note_on_c, 10, 81, 127
1, 329567, Note_off_c, 4, 64, 127
1, 329568, Note_on_c, 6, 66, 127
1, 329707, Note_off_c, 6, 66, 127
1, 329707, Note_off_c, 1, 61, 127
1, 329708, Note_on_c, 0, 60, 127
1, 329708, Note_on_c, 3, 63, 127
1, 329988, Note_off_c, 3, 63, 127
1, 329988, Note_off_c, 0, 60, 127
1, 329988, Note_off_c, 10, 81, 127
1, 329989, Note_on_c, 12, 59, 127
1, 329989, Note_on_c, 8, 68, 127
1, 329989, Note_on_c, 3, 75, 127
1, 330128, Note_off_c, 8, 68, 127
1, 330129, Note_on_c, 6, 66, 127
1, 330268, Note_off_c, 6, 66, 127
1, 330268, Note_off_c, 3, 75, 127
1, 330268, Note_off_c, 12, 59, 127
1, 330269, Note_on_c, 12, 59, 127
1, 330269, Note_on_c, 8, 68, 127
1, 330269, Note_on_c, 8, 80, 127
1, 330549, Note_off_c, 8, 68, 127
1, 330549, Note_off_c, 12, 59, 127
1, 330550, Note_on_c, 11, 58, 127
1, 330550, Note_on_c, 1, 61, 127
1, 330830, Note_off_c, 1, 61, 127
1, 330830, Note_off_c, 11, 58, 127
1, 330830, Note_off_c, 8, 80, 127
1, 330831, Note_on_c, 10, 57, 127
1, 330831, Note_on_c, 6, 66, 127
1, 330831, Note_on_c, 1, 73, 127
1, 330970, Note_off_c, 6, 66, 127
1, 330971, Note_on_c, 5, 65, 127
1, 331110, Note_off_c, 5, 65, 127
1, 331110, Note_off_c, 1, 73, 127
1, 331110, Note_off_c, 10, 57, 127
1, 331111, Note_on_c, 10, 57, 127
1, 331111, Note_on_c, 6, 66, 127
1, 331111, Note_on_c, 6, 78, 127
1, 331391, Note_off_c, 6, 66, 127
1, 331391, Note_off_c, 10, 57, 127
1, 331392, Note_on_c, 8, 56, 127
1, 331392, Note_on_c, 0, 60, 127
1, 331531, Note_off_c, 0, 60, 127
1, 331532, Note_on_c, 3, 63, 127
1, 331671, Note_off_c, 3, 63, 127
1, 331671, Note_off_c, 6, 78, 127
1, 331672, Note_on_c, 8, 68, 127
1, 331672, Note_on_c, 0, 72, 127
1, 331811, Note_off_c, 8, 68, 127
1, 331811, Note_off_c, 8, 56, 127
1, 331812, Note_on_c, 8, 56, 127
1, 331812, Note_on_c, 6, 66, 127
1, 331951, Note_off_c, 6, 66, 127
1, 331951, Note_off_c, 8, 56, 127
1, 331951, Note_off_c, 0, 72, 127
1, 331952, Note_on_c, 10, 57, 127
1, 331952, Note_on_c, 4, 64, 127
1, 331952, Note_on_c, 1, 73, 127
1, 332091, Note_off_c, 10, 57, 127
1, 332092, Note_on_c, 8, 56, 127
1, 332231, Note_off_c, 8, 56, 127
1, 332231, Note_off_c, 4, 64, 127
1, 332232, Note_on_c, 6, 54, 127
1, 332232, Note_on_c, 6, 66, 127
1, 332371, Note_off_c, 6, 54, 127
1, 332372, Note_on_c, 8, 56, 127
1, 332441, Note_off_c, 8, 56, 127
1, 332442, Note_on_c, 10, 57, 127
1, 332511, Note_off_c, 10, 57, 127
1, 332511, Note_off_c, 1, 73, 127
1, 332512, Note_on_c, 8, 56, 127
1, 332512, Note_on_c, 0, 72, 127
1, 332651, Note_off_c, 8, 56, 127
1, 332651, Note_off_c, 6, 66, 127
1, 332652, Note_on_c, 6, 54, 127
1, 332652, Note_on_c, 3, 63, 127
1, 332791, Note_off_c, 3, 63, 127
1, 332791, Note_off_c, 6, 54, 127
1, 332792, Note_on_c, 8, 56, 127
1, 332792, Note_on_c, 8, 68, 127
1, 332931, Note_off_c, 8, 68, 127
1, 332932, Note_on_c, 6, 66, 127
1, 333071, Note_off_c, 6, 66, 127
1, 333071, Note_off_c, 8, 56, 127
1, 333071, Note_off_c, 0, 72, 127
1, 333072, Note_on_c, 1, 49, 127
1, 333072, Note_on_c, 4, 64, 127
1, 333072, Note_on_c, 1, 73, 127
1, 333211, Note_off_c, 4, 64, 127
1, 333212, Note_on_c, 1, 61, 127
1, 333351, Note_off_c, 1, 61, 127
1, 333352, Note_on_c, 10, 69, 127
1, 333491, Note_off_c, 1, 49, 127
1, 333492, Note_on_c, 1, 61, 127
1, 333627, Note_off_c, 1, 73, 127
1, 333631, Note_off_c, 1, 61, 127
1, 333632, Note_on_c, 12, 59, 127
1, 333771, Note_off_c, 12, 59, 127
1, 333772, Note_on_c, 10, 57, 127
1, 333911, Note_off_c, 10, 57, 127
1, 333912, Note_on_c, 2, 62, 127
1, 334051, Note_off_c, 10, 69, 127
1, 334052, Note_on_c, 6, 66, 127
1, 334191, Note_off_c, 6, 66, 127
1, 334192, Note_on_c, 2, 74, 127
1, 334331, Note_off_c, 2, 74, 127
1, 334331, Note_off_c, 2, 62, 127
1, 334332, Note_on_c, 2, 62, 127
1, 334332, Note_on_c, 12, 71, 127
1, 334471, Note_off_c, 12, 71, 127
1, 334471, Note_off_c, 2, 62, 127
1, 334472, Note_on_c, 12, 59, 127
1, 334472, Note_on_c, 8, 68, 127
1, 334611, Note_off_c, 8, 68, 127
1, 334611, Note_off_c, 12, 59, 127
1, 334612, Note_on_c, 8, 56, 127
1, 334612, Note_on_c, 12, 71, 127
1, 334751, Note_off_c, 12, 71, 127
1, 334751, Note_off_c, 8, 56, 127
1, 334752, Note_on_c, 1, 61, 127
1, 334752, Note_on_c, 5, 65, 127
1, 334891, Note_off_c, 1, 61, 127
1, 334892, Note_on_c, 12, 59, 127
1, 335031, Note_off_c, 12, 59, 127
1, 335031, Note_off_c, 5, 65, 127
1, 335032, Note_on_c, 10, 57, 127
1, 335032, Note_on_c, 6, 66, 127
1, 335032, Note_on_c, 1, 73, 127
1, 335171, Note_off_c, 6, 66, 127
1, 335171, Note_off_c, 10, 57, 127
1, 335172, Note_on_c, 1, 61, 127
1, 335172, Note_on_c, 8, 68, 127
1, 335311, Note_off_c, 8, 68, 127
1, 335311, Note_off_c, 1, 61, 127
1, 335311, Note_off_c, 1, 73, 127
1, 335312, Note_on_c, 6, 66, 127
1, 335312, Note_on_c, 10, 69, 127
1, 335312, Note_on_c, 1, 73, 127
1, 335451, Note_off_c, 6, 66, 127
1, 335452, Note_on_c, 4, 64, 127
1, 335591, Note_off_c, 4, 64, 127
1, 335591, Note_off_c, 1, 73, 127
1, 335592, Note_on_c, 3, 63, 127
1, 335592, Note_on_c, 0, 72, 127
1, 335731, Note_off_c, 3, 63, 127
1, 335732, Note_on_c, 6, 66, 127
1, 335871, Note_off_c, 6, 66, 127
1, 335871, Note_off_c, 0, 72, 127
1, 335871, Note_off_c, 10, 69, 127
1, 335872, Note_on_c, 5, 65, 127
1, 335872, Note_on_c, 8, 68, 127
1, 335872, Note_on_c, 12, 71, 127
1, 336011, Note_off_c, 8, 68, 127
1, 336011, Note_off_c, 5, 65, 127
1, 336012, Note_on_c, 3, 63, 127
1, 336012, Note_on_c, 6, 66, 127
1, 336151, Note_off_c, 6, 66, 127
1, 336151, Note_off_c, 3, 63, 127
1, 336151, Note_off_c, 12, 71, 127
1, 336152, Note_on_c, 5, 65, 127
1, 336152, Note_on_c, 8, 68, 127
1, 336152, Note_on_c, 12, 71, 127
1, 336291, Note_off_c, 5, 65, 127
1, 336292, Note_on_c, 1, 61, 127
1, 336430, Note_off_c, 8, 68, 127
1, 336431, Note_off_c, 1, 61, 127
1, 336431, Note_off_c, 12, 71, 127
1, 336432, Note_on_c, 6, 66, 127
1, 336432, Note_on_c, 11, 70, 127
1, 336572, Note_on_c, 4, 64, 127
1, 336711, Note_off_c, 4, 64, 127
1, 336711, Note_off_c, 11, 70, 127
1, 336711, Note_off_c, 6, 66, 127
1, 336712, Note_on_c, 6, 54, 127
1, 336712, Note_on_c, 2, 62, 127
1, 336712, Note_on_c, 6, 66, 127
1, 336712, Note_on_c, 10, 69, 127
1, 336851, Note_off_c, 6, 66, 127
1, 336851, Note_off_c, 2, 62, 127
1, 336852, Note_on_c, 1, 61, 127
1, 336852, Note_on_c, 4, 64, 127
1, 336991, Note_off_c, 4, 64, 127
1, 336991, Note_off_c, 1, 61, 127
1, 336991, Note_off_c, 10, 69, 127
1, 336991, Note_off_c, 6, 54, 127
1, 336992, Note_on_c, 6, 54, 127
1, 336992, Note_on_c, 12, 59, 127
1, 336992, Note_on_c, 2, 62, 127
1, 336992, Note_on_c, 2, 74, 127
1, 337131, Note_off_c, 12, 59, 127
1, 337132, Note_on_c, 10, 57, 127
1, 337271, Note_off_c, 10, 57, 127
1, 337271, Note_off_c, 2, 74, 127
1, 337271, Note_off_c, 6, 54, 127
1, 337272, Note_on_c, 5, 53, 127
1, 337272, Note_on_c, 12, 59, 127
1, 337272, Note_on_c, 8, 68, 127
1, 337552, Note_off_c, 8, 68, 127
1, 337552, Note_off_c, 12, 59, 127
1, 337552, Note_off_c, 5, 53, 127
1, 337552, Note_off_c, 2, 62, 127
1, 337553, Note_on_c, 4, 52, 127
1, 337553, Note_on_c, 8, 56, 127
1, 337553, Note_on_c, 1, 61, 127
1, 337553, Note_on_c, 1, 73, 127
1, 337692, Note_off_c, 1, 73, 127
1, 337693, Note_on_c, 12, 71, 127
1, 337832, Note_off_c, 12, 71, 127
1, 337832, Note_off_c, 4, 52, 127
1, 337833, Note_on_c, 4, 52, 127
1, 337833, Note_on_c, 1, 73, 127
1, 338113, Note_off_c, 1, 73, 127
1, 338113, Note_off_c, 4, 52, 127
1, 338113, Note_off_c, 8, 56, 127
1, 338114, Note_on_c, 3, 51, 127
1, 338114, Note_on_c, 10, 57, 127
1, 338114, Note_on_c, 6, 66, 127
1, 338394, Note_off_c, 6, 66, 127
1, 338394, Note_off_c, 10, 57, 127
1, 338394, Note_off_c, 3, 51, 127
1, 338394, Note_off_c, 1, 61, 127
1, 338395, Note_on_c, 2, 50, 127
1, 338395, Note_on_c, 6, 54, 127
1, 338395, Note_on_c, 12, 59, 127
1, 338395, Note_on_c, 12, 71, 127
1, 338534, Note_off_c, 12, 71, 127
1, 338535, Note_on_c, 11, 70, 127
1, 338674, Note_off_c, 11, 70, 127
1, 338674, Note_off_c, 2, 50, 127
1, 338675, Note_on_c, 2, 50, 127
1, 338675, Note_on_c, 12, 71, 127
1, 338955, Note_off_c, 12, 71, 127
1, 338955, Note_off_c, 2, 50, 127
1, 338955, Note_off_c, 6, 54, 127
1, 338956, Note_on_c, 1, 49, 127
1, 338956, Note_on_c, 1, 61, 127
1, 338956, Note_on_c, 5, 65, 127
1, 339095, Note_off_c, 12, 59, 127
1, 339096, Note_on_c, 12, 59, 127
1, 339235, Note_off_c, 12, 59, 127
1, 339235, Note_off_c, 5, 65, 127
1, 339235, Note_off_c, 1, 61, 127
1, 339235, Note_off_c, 1, 49, 127
1, 339236, Note_on_c, 2, 50, 127
1, 339236, Note_on_c, 6, 54, 127
1, 339236, Note_on_c, 10, 57, 127
1, 339236, Note_on_c, 6, 66, 127
1, 339375, Note_off_c, 10, 57, 127
1, 339376, Note_on_c, 12, 59, 127
1, 339515, Note_off_c, 12, 59, 127
1, 339515, Note_off_c, 2, 50, 127
1, 339516, Note_on_c, 10, 45, 127
1, 339516, Note_on_c, 1, 61, 127
1, 339655, Note_off_c, 6, 54, 127
1, 339656, Note_on_c, 8, 56, 127
1, 339795, Note_off_c, 8, 56, 127
1, 339795, Note_off_c, 1, 61, 127
1, 339795, Note_off_c, 10, 45, 127
1, 339796, Note_on_c, 12, 47, 127
1, 339796, Note_on_c, 10, 57, 127
1, 339796, Note_on_c, 2, 62, 127
1, 339935, Note_off_c, 6, 66, 127
1, 339936, Note_on_c, 6, 66, 127
1, 340075, Note_off_c, 6, 66, 127
1, 340075, Note_off_c, 2, 62, 127
1, 340075, Note_off_c, 10, 57, 127
1, 340075, Note_off_c, 12, 47, 127
1, 340076, Note_on_c, 1, 49, 127
1, 340076, Note_on_c, 8, 56, 127
1, 340076, Note_on_c, 1, 61, 127
1, 340076, Note_on_c, 5, 65, 127
1, 340215, Note_off_c, 5, 65, 127
1, 340216, Note_on_c, 6, 66, 127
1, 340355, Note_off_c, 6, 66, 127
1, 340355, Note_off_c, 1, 61, 127
1, 340355, Note_off_c, 8, 56, 127
1, 340356, Note_on_c, 1, 61, 127
1, 340356, Note_on_c, 5, 65, 127
1, 340356, Note_on_c, 8, 68, 127
1, 340495, Note_off_c, 8, 68, 127
1, 340496, Note_on_c, 10, 69, 127
1, 340635, Note_off_c, 10, 69, 127
1, 340635, Note_off_c, 5, 65, 127
1, 340635, Note_off_c, 1, 61, 127
1, 340635, Note_off_c, 1, 49, 127
1, 340636, Note_on_c, 3, 51, 127
1, 340636, Note_on_c, 12, 59, 127
1, 340636, Note_on_c, 6, 66, 127
1, 340636, Note_on_c, 12, 71, 127
1, 340775, Note_off_c, 6, 66, 127
1, 340776, Note_on_c, 10, 69, 127
1, 340915, Note_off_c, 10, 69, 127
1, 340915, Note_off_c, 3, 51, 127
1, 340916, Note_on_c, 4, 52, 127
1, 340916, Note_on_c, 8, 68, 127
1, 341055, Note_off_c, 8, 68, 127
1, 341055, Note_off_c, 12, 59, 127
1, 341056, Note_on_c, 1, 61, 127
1, 341056, Note_on_c, 6, 66, 127
1, 341195, Note_off_c, 6, 66, 127
1, 341195, Note_off_c, 1, 61, 127
1, 341195, Note_off_c, 4, 52, 127
1, 341196, Note_on_c, 5, 53, 127
1, 341196, Note_on_c, 2, 62, 127
1, 341196, Note_on_c, 8, 68, 127
1, 341335, Note_off_c, 12, 71, 127
1, 341336, Note_on_c, 12, 71, 127
1, 341474, Note_off_c, 8, 68, 127
1, 341475, Note_off_c, 12, 71, 127
1, 341475, Note_off_c, 2, 62, 127
1, 341475, Note_off_c, 5, 53, 127
1, 341476, Note_on_c, 6, 54, 127
1, 341476, Note_on_c, 1, 61, 127
1, 341476, Note_on_c, 10, 69, 127
1, 341616, Note_on_c, 8, 68, 127
1, 341755, Note_off_c, 8, 68, 127
1, 341756, Note_on_c, 6, 66, 127
1, 341895, Note_off_c, 6, 66, 127
1, 341895, Note_off_c, 1, 61, 127
1, 341895, Note_off_c, 6, 54, 127
1, 341896, Note_on_c, 8, 56, 127
1, 341896, Note_on_c, 12, 59, 127
1, 341896, Note_on_c, 5, 65, 127
1, 342035, Note_off_c, 5, 65, 127
1, 342035, Note_off_c, 12, 59, 127
1, 342035, Note_off_c, 8, 56, 127
1, 342036, Note_on_c, 10, 57, 127
1, 342036, Note_on_c, 1, 61, 127
1, 342036, Note_on_c, 6, 66, 127
1, 342175, Note_off_c, 10, 69, 127
1, 342176, Note_on_c, 10, 69, 127
1, 342314, Note_off_c, 6, 66, 127
1, 342315, Note_off_c, 10, 69, 127
1, 342315, Note_off_c, 1, 61, 127
1, 342315, Note_off_c, 10, 57, 127
1, 342316, Note_on_c, 12, 59, 127
1, 342316, Note_on_c, 2, 62, 127
1, 342316, Note_on_c, 8, 68, 127
1, 342456, Note_on_c, 6, 66, 127
1, 342595, Note_off_c, 6, 66, 127
1, 342595, Note_off_c, 2, 62, 127
1, 342595, Note_off_c, 12, 59, 127
1, 342596, Note_on_c, 8, 56, 127
1, 342596, Note_on_c, 12, 59, 127
1, 342596, Note_on_c, 5, 65, 127
1, 342735, Note_off_c, 5, 65, 127
1, 342736, Note_on_c, 3, 63, 127
1, 342874, Note_off_c, 12, 59, 127
1, 342875, Note_off_c, 3, 63, 127
1, 342875, Note_off_c, 8, 56, 127
1, 342876, Note_on_c, 1, 61, 127
1, 342876, Note_on_c, 5, 65, 127
1, 343015, Note_off_c, 8, 68, 127
1, 343016, Note_on_c, 10, 69, 127
1, 343155, Note_off_c, 10, 69, 127
1, 343155, Note_off_c, 5, 65, 127
1, 343155, Note_off_c, 1, 61, 127
1, 343156, Note_on_c, 6, 54, 127
1, 343156, Note_on_c, 10, 57, 127
1, 343156, Note_on_c, 6, 66, 127
1, 343295, Note_off_c, 10, 57, 127
1, 343296, Note_on_c, 8, 56, 127
1, 343434, Note_off_c, 6, 54, 127
1, 343435, Note_off_c, 8, 56, 127
1, 343435, Note_off_c, 6, 66, 127
1, 343436, Note_on_c, 6, 54, 127
1, 343436, Note_on_c, 6, 66, 127
1, 343436, Note_on_c, 10, 69, 127
1, 343575, Note_off_c, 6, 54, 127
1, 343576, Note_on_c, 5, 53, 127
1, 343715, Note_off_c, 5, 53, 127
1, 343715, Note_off_c, 10, 69, 127
1, 343715, Note_off_c, 6, 66, 127
1, 343716, Note_on_c, 6, 54, 127
1, 343716, Note_on_c, 6, 66, 127
1, 343716, Note_on_c, 2, 74, 127
1, 343996, Note_off_c, 2, 74, 127
1, 343996, Note_off_c, 6, 66, 127
1, 343996, Note_off_c, 6, 54, 127
1, 343997, Note_on_c, 8, 56, 127
1, 343997, Note_on_c, 5, 65, 127
1, 343997, Note_on_c, 12, 71, 127
1, 344277, Note_off_c, 12, 71, 127
1, 344277, Note_off_c, 5, 65, 127
1, 344277, Note_off_c, 8, 56, 127
1, 344278, Note_on_c, 1, 61, 127
1, 344278, Note_on_c, 4, 64, 127
1, 344278, Note_on_c, 8, 68, 127
1, 344417, Note_off_c, 1, 61, 127
1, 344418, Note_on_c, 12, 59, 127
1, 344557, Note_off_c, 12, 59, 127
1, 344557, Note_off_c, 8, 68, 127
1, 344557, Note_off_c, 4, 64, 127
1, 344558, Note_on_c, 1, 61, 127
1, 344558, Note_on_c, 4, 64, 127
1, 344558, Note_on_c, 1, 73, 127
1, 344838, Note_off_c, 1, 73, 127
1, 344838, Note_off_c, 4, 64, 127
1, 344838, Note_off_c, 1, 61, 127
1, 344839, Note_on_c, 6, 54, 127
1, 344839, Note_on_c, 3, 63, 127
1, 344839, Note_on_c, 11, 70, 127
1, 345119, Note_off_c, 11, 70, 127
1, 345119, Note_off_c, 3, 63, 127
1, 345119, Note_off_c, 6, 54, 127
1, 345120, Note_on_c, 12, 59, 127
1, 345120, Note_on_c, 2, 62, 127
1, 345120, Note_on_c, 6, 66, 127
1, 345259, Note_off_c, 12, 59, 127
1, 345260, Note_on_c, 11, 58, 127
1, 345399, Note_off_c, 11, 58, 127
1, 345399, Note_off_c, 6, 66, 127
1, 345399, Note_off_c, 2, 62, 127
1, 345400, Note_on_c, 12, 59, 127
1, 345400, Note_on_c, 2, 62, 127
1, 345400, Note_on_c, 12, 71, 127
1, 345680, Note_off_c, 12, 71, 127
1, 345680, Note_off_c, 2, 62, 127
1, 345681, Note_on_c, 1, 61, 127
1, 345681, Note_on_c, 5, 65, 127
1, 345820, Note_off_c, 12, 59, 127
1, 345821, Note_on_c, 12, 59, 127
1, 345960, Note_off_c, 12, 59, 127
1, 345960, Note_off_c, 5, 65, 127
1, 345960, Note_off_c, 1, 61, 127
1, 345961, Note_on_c, 10, 57, 127
1, 345961, Note_on_c, 6, 66, 127
1, 345961, Note_on_c, 1, 73, 127
1, 346100, Note_off_c, 10, 57, 127
1, 346101, Note_on_c, 8, 56, 127
1, 346240, Note_off_c, 8, 56, 127
1, 346240, Note_off_c, 6, 66, 127
1, 346241, Note_on_c, 10, 57, 127
1, 346241, Note_on_c, 4, 64, 127
1, 346380, Note_off_c, 10, 57, 127
1, 346381, Note_on_c, 4, 52, 127
1, 346520, Note_off_c, 4, 52, 127
1, 346520, Note_off_c, 4, 64, 127
1, 346521, Note_on_c, 6, 54, 127
1, 346521, Note_on_c, 10, 69, 127
1, 346660, Note_off_c, 10, 69, 127
1, 346660, Note_off_c, 6, 54, 127
1, 346661, Note_on_c, 10, 57, 127
1, 346661, Note_on_c, 6, 66, 127
1, 346800, Note_off_c, 6, 66, 127
1, 346800, Note_off_c, 10, 57, 127
1, 346800, Note_off_c, 1, 73, 127
1, 346801, Note_on_c, 8, 56, 127
1, 346801, Note_on_c, 3, 63, 127
1, 346801, Note_on_c, 0, 72, 127
1, 346940, Note_off_c, 3, 63, 127
1, 346940, Note_off_c, 8, 56, 127
1, 346941, Note_on_c, 6, 54, 127
1, 346941, Note_on_c, 6, 66, 127
1, 347080, Note_off_c, 6, 66, 127
1, 347080, Note_off_c, 6, 54, 127
1, 347081, Note_on_c, 8, 56, 127
1, 347081, Note_on_c, 4, 64, 127
1, 347220, Note_off_c, 4, 64, 127
1, 347220, Note_off_c, 8, 56, 127
1, 347221, Note_on_c, 8, 44, 127
1, 347221, Note_on_c, 3, 63, 127
1, 347360, Note_off_c, 3, 63, 127
1, 347360, Note_off_c, 8, 44, 127
1, 347360, Note_off_c, 0, 72, 127
1, 347361, Note_on_c, 1, 49, 127
1, 347361, Note_on_c, 4, 64, 127
1, 347361, Note_on_c, 1, 73, 127
1, 347500, Note_off_c, 4, 64, 127
1, 347501, Note_on_c, 6, 66, 127
1, 347640, Note_off_c, 6, 66, 127
1, 347641, Note_on_c, 4, 64, 127
1, 347780, Note_off_c, 4, 64, 127
1, 347781, Note_on_c, 3, 63, 127
1, 347916, Note_off_c, 1, 49, 127
1, 347920, Note_off_c, 3, 63, 127
1, 347920, Note_off_c, 1, 73, 127
1, 347921, Note_on_c, 1, 61, 127
1, 347921, Note_on_c, 8, 80, 127
1, 348060, Note_off_c, 1, 61, 127
1, 348061, Note_on_c, 4, 64, 127
1, 348200, Note_off_c, 4, 64, 127
1, 348200, Note_off_c, 8, 80, 127
1, 348201, Note_on_c, 3, 63, 127
1, 348201, Note_on_c, 6, 78, 127
1, 348340, Note_off_c, 6, 78, 127
1, 348340, Note_off_c, 3, 63, 127
1, 348341, Note_on_c, 4, 64, 127
1, 348341, Note_on_c, 8, 80, 127
1, 348480, Note_off_c, 8, 80, 127
1, 348480, Note_off_c, 4, 64, 127
1, 348481, Note_on_c, 3, 63, 127
1, 348481, Note_on_c, 6, 78, 127
1, 348620, Note_off_c, 6, 78, 127
1, 348620, Note_off_c, 3, 63, 127
1, 348621, Note_on_c, 1, 61, 127
1, 348621, Note_on_c, 4, 76, 127
1, 348760, Note_off_c, 4, 76, 127
1, 348760, Note_off_c, 1, 61, 127
1, 348761, Note_on_c, 8, 56, 127
1, 348761, Note_on_c, 0, 60, 127
1, 348761, Note_on_c, 3, 75, 127
1, 348900, Note_off_c, 3, 75, 127
1, 348900, Note_off_c, 0, 60, 127
1, 348901, Note_on_c, 3, 63, 127
1, 348901, Note_on_c, 6, 78, 127
1, 349040, Note_off_c, 6, 78, 127
1, 349040, Note_off_c, 3, 63, 127
1, 349040, Note_off_c, 8, 56, 127
1, 349041, Note_on_c, 1, 61, 127
1, 349041, Note_on_c, 4, 76, 127
1, 349181, Note_on_c, 3, 63, 127
1, 349320, Note_off_c, 3, 63, 127
1, 349320, Note_off_c, 4, 76, 127
1, 349320, Note_off_c, 1, 61, 127
1, 349321, Note_on_c, 1, 61, 127
1, 349321, Note_on_c, 4, 64, 127
1, 349321, Note_on_c, 1, 73, 127
1, 349460, Note_off_c, 1, 61, 127
1, 349461, Note_on_c, 12, 59, 127
1, 349600, Note_off_c, 12, 59, 127
1, 349600, Note_off_c, 1, 73, 127
1, 349600, Note_off_c, 4, 64, 127
1, 349601, Note_on_c, 10, 57, 127
1, 349601, Note_on_c, 10, 69, 127
1, 349601, Note_on_c, 6, 78, 127
1, 349740, Note_off_c, 10, 57, 127
1, 349741, Note_on_c, 1, 61, 127
1, 349880, Note_off_c, 1, 61, 127
1, 349880, Note_off_c, 6, 78, 127
1, 349881, Note_on_c, 12, 59, 127
1, 349881, Note_on_c, 3, 75, 127
1, 350020, Note_off_c, 12, 59, 127
1, 350021, Note_on_c, 1, 61, 127
1, 350160, Note_off_c, 1, 61, 127
1, 350160, Note_off_c, 3, 75, 127
1, 350160, Note_off_c, 10, 69, 127
1, 350161, Note_on_c, 12, 59, 127
1, 350161, Note_on_c, 3, 63, 127
1, 350161, Note_on_c, 12, 71, 127
1, 350300, Note_off_c, 12, 59, 127
1, 350301, Note_on_c, 10, 57, 127
1, 350440, Note_off_c, 10, 57, 127
1, 350440, Note_off_c, 12, 71, 127
1, 350440, Note_off_c, 3, 63, 127
1, 350441, Note_on_c, 8, 56, 127
1, 350441, Note_on_c, 8, 68, 127
1, 350441, Note_on_c, 4, 76, 127
1, 350580, Note_off_c, 8, 56, 127
1, 350581, Note_on_c, 12, 59, 127
1, 350720, Note_off_c, 12, 59, 127
1, 350720, Note_off_c, 4, 76, 127
1, 350721, Note_on_c, 10, 57, 127
1, 350721, Note_on_c, 1, 73, 127
1, 350860, Note_off_c, 10, 57, 127
1, 350861, Note_on_c, 12, 59, 127
1, 351000, Note_off_c, 12, 59, 127
1, 351000, Note_off_c, 1, 73, 127
1, 351000, Note_off_c, 8, 68, 127
1, 351001, Note_on_c, 10, 57, 127
1, 351001, Note_on_c, 1, 61, 127
1, 351001, Note_on_c, 10, 69, 127
1, 351140, Note_off_c, 10, 57, 127
1, 351141, Note_on_c, 8, 56, 127
1, 351280, Note_off_c, 8, 56, 127
1, 351280, Note_off_c, 10, 69, 127
1, 351280, Note_off_c, 1, 61, 127
1, 351281, Note_on_c, 6, 54, 127
1, 351281, Note_on_c, 6, 66, 127
1, 351281, Note_on_c, 3, 75, 127
1, 351420, Note_off_c, 6, 54, 127
1, 351421, Note_on_c, 10, 57, 127
1, 351560, Note_off_c, 10, 57, 127
1, 351560, Note_off_c, 3, 75, 127
1, 351561, Note_on_c, 8, 56, 127
1, 351561, Note_on_c, 0, 72, 127
1, 351700, Note_off_c, 8, 56, 127
1, 351701, Note_on_c, 10, 57, 127
1, 351840, Note_off_c, 10, 57, 127
1, 351840, Note_off_c, 0, 72, 127
1, 351840, Note_off_c, 6, 66, 127
1, 351841, Note_on_c, 8, 56, 127
1, 351841, Note_on_c, 4, 64, 127
1, 351841, Note_on_c, 1, 73, 127
1, 351980, Note_off_c, 8, 56, 127
1, 351981, Note_on_c, 6, 54, 127
1, 352120, Note_off_c, 6, 54, 127
1, 352120, Note_off_c, 4, 64, 127
1, 352121, Note_on_c, 4, 52, 127
1, 352121, Note_on_c, 8, 68, 127
1, 352260, Note_off_c, 4, 52, 127
1, 352261, Note_on_c, 8, 56, 127
1, 352400, Note_off_c, 8, 56, 127
1, 352400, Note_off_c, 8, 68, 127
1, 352401, Note_on_c, 6, 54, 127
1, 352401, Note_on_c, 10, 69, 127
1, 352540, Note_off_c, 6, 54, 127
1, 352541, Note_on_c, 8, 56, 127
1, 352680, Note_off_c, 8, 56, 127
1, 352680, Note_off_c, 10, 69, 127
1, 352680, Note_off_c, 1, 73, 127
1, 352681, Note_on_c, 6, 54, 127
1, 352681, Note_on_c, 3, 63, 127
1, 352681, Note_on_c, 0, 72, 127
1, 352820, Note_off_c, 6, 54, 127
1, 352821, Note_on_c, 4, 52, 127
1, 352960, Note_off_c, 4, 52, 127
1, 352961, Note_on_c, 3, 51, 127
1, 353100, Note_off_c, 3, 51, 127
1, 353101, Note_on_c, 6, 54, 127
1, 353240, Note_off_c, 6, 54, 127
1, 353240, Note_off_c, 0, 72, 127
1, 353240, Note_off_c, 3, 63, 127
1, 353241, Note_on_c, 4, 52, 127
1, 353241, Note_on_c, 1, 61, 127
1, 353241, Note_on_c, 1, 73, 127
1, 353380, Note_off_c, 4, 52, 127
1, 353381, Note_on_c, 6, 54, 127
1, 353520, Note_off_c, 6, 54, 127
1, 353520, Note_off_c, 1, 61, 127
1, 353521, Note_on_c, 4, 52, 127
1, 353521, Note_on_c, 8, 56, 127
1, 353521, Note_on_c, 8, 68, 127
1, 353660, Note_off_c, 4, 52, 127
1, 353661, Note_on_c, 3, 51, 127
1, 353800, Note_off_c, 3, 51, 127
1, 353800, Note_off_c, 8, 68, 127
1, 353800, Note_off_c, 8, 56, 127
1, 353800, Note_off_c, 1, 73, 127
1, 353801, Note_on_c, 1, 49, 127
1, 353801, Note_on_c, 8, 56, 127
1, 353801, Note_on_c, 1, 73, 127
1, 353801, Note_on_c, 4, 76, 127
1, 353940, Note_off_c, 1, 49, 127
1, 353941, Note_on_c, 4, 52, 127
1, 354080, Note_off_c, 4, 52, 127
1, 354080, Note_off_c, 1, 73, 127
1, 354080, Note_off_c, 8, 56, 127
1, 354081, Note_on_c, 3, 51, 127
1, 354081, Note_on_c, 7, 55, 127
1, 354081, Note_on_c, 11, 70, 127
1, 354220, Note_off_c, 3, 51, 127
1, 354221, Note_on_c, 4, 52, 127
1, 354360, Note_off_c, 4, 52, 127
1, 354360, Note_off_c, 11, 70, 127
1, 354360, Note_off_c, 7, 55, 127
1, 354360, Note_off_c, 4, 76, 127
1, 354361, Note_on_c, 3, 51, 127
1, 354361, Note_on_c, 6, 54, 127
1, 354361, Note_on_c, 10, 69, 127
1, 354500, Note_off_c, 3, 51, 127
1, 354501, Note_on_c, 1, 49, 127
1, 354640, Note_off_c, 1, 49, 127
1, 354640, Note_off_c, 10, 69, 127
1, 354640, Note_off_c, 6, 54, 127
1, 354641, Note_on_c, 0, 48, 127
1, 354641, Note_on_c, 6, 54, 127
1, 354641, Note_on_c, 8, 68, 127
1, 354641, Note_on_c, 3, 75, 127
1, 354780, Note_off_c, 0, 48, 127
1, 354781, Note_on_c, 3, 51, 127
1, 354920, Note_off_c, 3, 51, 127
1, 354920, Note_off_c, 6, 54, 127
1, 354921, Note_on_c, 1, 49, 127
1, 354921, Note_on_c, 5, 53, 127
1, 355060, Note_off_c, 1, 49, 127
1, 355061, Note_on_c, 3, 51, 127
1, 355196, Note_off_c, 8, 68, 127
1, 355200, Note_off_c, 3, 51, 127
1, 355200, Note_off_c, 5, 53, 127
1, 355200, Note_off_c, 3, 75, 127
1, 355201, Note_on_c, 1, 49, 127
1, 355201, Note_on_c, 4, 52, 127
1, 355201, Note_on_c, 8, 68, 127
1, 355340, Note_off_c, 1, 49, 127
1, 355341, Note_on_c, 12, 47, 127
1, 355480, Note_off_c, 12, 47, 127
1, 355480, Note_off_c, 8, 68, 127
1, 355480, Note_off_c, 4, 52, 127
1, 355481, Note_on_c, 10, 45, 127
1, 355481, Note_on_c, 4, 52, 127
1, 355481, Note_on_c, 8, 68, 127
1, 355481, Note_on_c, 1, 73, 127
1, 355620, Note_off_c, 10, 45, 127
1, 355621, Note_on_c, 8, 44, 127
1, 355760, Note_off_c, 8, 44, 127
1, 355760, Note_off_c, 8, 68, 127
1, 355761, Note_on_c, 6, 42, 127
1, 355761, Note_on_c, 10, 69, 127
1, 355900, Note_off_c, 4, 52, 127
1, 355901, Note_on_c, 3, 51, 127
1, 356040, Note_off_c, 3, 51, 127
1, 356040, Note_off_c, 10, 69, 127
1, 356040, Note_off_c, 6, 42, 127
1, 356040, Note_off_c, 1, 73, 127
1, 356041, Note_on_c, 8, 44, 127
1, 356041, Note_on_c, 3, 51, 127
1, 356041, Note_on_c, 8, 68, 127
1, 356041, Note_on_c, 0, 72, 127
1, 356180, Note_off_c, 8, 68, 127
1, 356181, Note_on_c, 10, 69, 127
1, 356320, Note_off_c, 10, 69, 127
1, 356321, Note_on_c, 6, 66, 127
1, 356460, Note_off_c, 6, 66, 127
1, 356461, Note_on_c, 3, 63, 127
1, 356600, Note_off_c, 3, 63, 127
1, 356600, Note_off_c, 0, 72, 127
1, 356600, Note_off_c, 3, 51, 127
1, 356600, Note_off_c, 8, 44, 127
1, 356601, Note_on_c, 1, 37, 127
1, 356601, Note_on_c, 1, 49, 127
1, 356601, Note_on_c, 4, 64, 127
1, 356601, Note_on_c, 1, 73, 127
1, 356740, Note_off_c, 1, 73, 127
1, 356741, Note_on_c, 3, 75, 127
1, 356879, Note_off_c, 1, 37, 127
1, 356880, Note_off_c, 3, 75, 127
1, 356880, Note_off_c, 4, 64, 127
1, 356881, Note_on_c, 8, 68, 127
1, 356881, Note_on_c, 4, 76, 127
1, 357020, Note_off_c, 1, 49, 127
1, 357021, Note_on_c, 1, 61, 127
1, 357160, Note_off_c, 1, 61, 127
1, 357160, Note_off_c, 8, 68, 127
1, 357161, Note_on_c, 11, 58, 127
1, 357161, Note_on_c, 6, 66, 127
1, 357300, Note_off_c, 11, 58, 127
1, 357301, Note_on_c, 6, 54, 127
1, 357440, Note_off_c, 6, 54, 127
1, 357441, Note_on_c, 12, 59, 127
1, 357580, Note_off_c, 4, 76, 127
1, 357581, Note_on_c, 4, 76, 127
1, 357719, Note_off_c, 12, 59, 127
1, 357720, Note_off_c, 4, 76, 127
1, 357721, Note_on_c, 2, 74, 127
1, 357861, Note_on_c, 12, 59, 127
1, 358000, Note_off_c, 12, 59, 127
1, 358000, Note_off_c, 6, 66, 127
1, 358001, Note_on_c, 8, 56, 127
1, 358001, Note_on_c, 4, 64, 127
1, 358140, Note_off_c, 8, 56, 127
1, 358141, Note_on_c, 4, 52, 127
1, 358280, Note_off_c, 4, 52, 127
1, 358281, Note_on_c, 10, 57, 127
1, 358420, Note_off_c, 2, 74, 127
1, 358421, Note_on_c, 1, 73, 127
1, 358560, Note_off_c, 1, 73, 127
1, 358560, Note_off_c, 10, 57, 127
1, 358561, Note_on_c, 10, 57, 127
1, 358561, Note_on_c, 1, 61, 127
1, 358561, Note_on_c, 6, 78, 127
1, 358700, Note_off_c, 4, 64, 127
1, 358701, Note_on_c, 1, 73, 127
1, 358840, Note_off_c, 1, 73, 127
1, 358840, Note_off_c, 10, 57, 127
1, 358841, Note_on_c, 10, 57, 127
1, 358841, Note_on_c, 10, 69, 127
1, 358980, Note_off_c, 10, 69, 127
1, 358981, Note_on_c, 6, 66, 127
1, 359120, Note_off_c, 6, 66, 127
1, 359120, Note_off_c, 10, 57, 127
1, 359120, Note_off_c, 1, 61, 127
1, 359121, Note_on_c, 8, 56, 127
1, 359121, Note_on_c, 3, 63, 127
1, 359121, Note_on_c, 12, 71, 127
1, 359260, Note_off_c, 6, 78, 127
1, 359261, Note_on_c, 6, 78, 127
1, 359400, Note_off_c, 6, 78, 127
1, 359400, Note_off_c, 3, 63, 127
1, 359400, Note_off_c, 8, 56, 127
1, 359401, Note_on_c, 7, 55, 127
1, 359401, Note_on_c, 12, 59, 127
1, 359401, Note_on_c, 4, 76, 127
1, 359540, Note_off_c, 12, 71, 127
1, 359541, Note_on_c, 12, 71, 127
1, 359680, Note_off_c, 12, 71, 127
1, 359680, Note_off_c, 12, 59, 127
1, 359680, Note_off_c, 7, 55, 127
1, 359681, Note_on_c, 7, 55, 127
1, 359681, Note_on_c, 12, 59, 127
1, 359681, Note_on_c, 7, 67, 127
1, 359820, Note_off_c, 7, 67, 127
1, 359821, Note_on_c, 4, 64, 127
1, 359960, Note_off_c, 4, 64, 127
1, 359960, Note_off_c, 12, 59, 127
1, 359960, Note_off_c, 7, 55, 127
1, 359961, Note_on_c, 6, 54, 127
1, 359961, Note_on_c, 1, 61, 127
1, 359961, Note_on_c, 10, 69, 127
1, 360100, Note_off_c, 4, 76, 127
1, 360101, Note_on_c, 4, 76, 127
1, 360240, Note_off_c, 4, 76, 127
1, 360240, Note_off_c, 1, 61, 127
1, 360240, Note_off_c, 6, 54, 127
1, 360241, Note_on_c, 5, 53, 127
1, 360241, Note_on_c, 10, 57, 127
1, 360241, Note_on_c, 2, 74, 127
1, 360380, Note_off_c, 2, 74, 127
1, 360381, Note_on_c, 10, 81, 127
1, 360520, Note_off_c, 10, 81, 127
1, 360520, Note_off_c, 10, 57, 127
1, 360520, Note_off_c, 5, 53, 127
1, 360521, Note_on_c, 5, 53, 127
1, 360521, Note_on_c, 2, 62, 127
1, 360521, Note_on_c, 5, 77, 127
1, 360660, Note_off_c, 5, 77, 127
1, 360661, Note_on_c, 2, 74, 127
1, 360800, Note_off_c, 2, 74, 127
1, 360800, Note_off_c, 2, 62, 127
1, 360800, Note_off_c, 5, 53, 127
1, 360800, Note_off_c, 10, 69, 127
1, 360801, Note_on_c, 4, 52, 127
1, 360801, Note_on_c, 2, 62, 127
1, 360801, Note_on_c, 4, 64, 127
1, 360801, Note_on_c, 8, 68, 127
1, 361211, Note_off_c, 4, 64, 127
1, 361211, Note_off_c, 2, 62, 127
1, 361211, Note_off_c, 4, 52, 127
1, 361221, Note_off_c, 8, 68, 127
1, 361223, Note_on_c, 6, 78, 127
1, 361356, Note_off_c, 6, 78, 127
1, 361378, Note_on_c, 4, 76, 127
1, 361517, Note_off_c, 4, 76, 127
1, 361518, Note_on_c, 2, 74, 127
1, 361657, Note_off_c, 2, 74, 127
1, 361658, Note_on_c, 1, 73, 127
1, 361797, Note_off_c, 1, 73, 127
1, 361798, Note_on_c, 12, 71, 127
1, 361937, Note_off_c, 12, 71, 127
1, 361938, Note_on_c, 10, 69, 127
1, 362077, Note_off_c, 10, 69, 127
1, 362078, Note_on_c, 8, 68, 127
1, 362217, Note_off_c, 8, 68, 127
1, 362218, Note_on_c, 6, 66, 127
1, 362357, Note_off_c, 6, 66, 127
1, 362358, Note_on_c, 4, 64, 127
1, 362497, Note_off_c, 4, 64, 127
1, 362498, Note_on_c, 2, 62, 127
1, 362637, Note_off_c, 2, 62, 127
1, 362638, Note_on_c, 1, 61, 127
1, 362777, Note_off_c, 1, 61, 127
1, 362778, Note_on_c, 12, 59, 127
1, 362917, Note_off_c, 12, 59, 127
1, 362918, Note_on_c, 10, 57, 127
1, 363057, Note_off_c, 10, 57, 127
1, 363058, Note_on_c, 8, 56, 127
1, 363197, Note_off_c, 8, 56, 127
1, 363198, Note_on_c, 10, 57, 127
1, 363337, Note_off_c, 10, 57, 127
1, 363338, Note_on_c, 3, 51, 127
1, 363478, Note_on_c, 6, 78, 127
1, 363617, Note_off_c, 6, 78, 127
1, 363617, Note_off_c, 3, 51, 127
1, 363618, Note_on_c, 12, 71, 127
1, 363618, Note_on_c, 10, 69, 127
1, 363618, Note_on_c, 12, 59, 127
1, 363618, Note_on_c, 4, 52, 127
1, 363898, Note_off_c, 12, 59, 127
1, 363898, Note_off_c, 10, 69, 127
1, 363899, Note_on_c, 8, 68, 127
1, 363899, Note_on_c, 2, 62, 127
1, 364038, Note_off_c, 12, 71, 127
1, 364039, Note_on_c, 10, 69, 127
1, 364178, Note_off_c, 10, 69, 127
1, 364178, Note_off_c, 2, 62, 127
1, 364178, Note_off_c, 8, 68, 127
1, 364178, Note_off_c, 4, 52, 127
1, 364179, Note_on_c, 10, 69, 127
1, 364179, Note_on_c, 1, 61, 127
1, 364179, Note_on_c, 10, 45, 127
1, 364319, Note_on_c, 12, 71, 127
1, 364458, Note_off_c, 12, 71, 127
1, 364458, Note_off_c, 10, 69, 127
1, 364459, Note_on_c, 4, 76, 127
1, 364459, Note_on_c, 1, 73, 127
1, 364598, Note_off_c, 1, 73, 127
1, 364599, Note_on_c, 12, 71, 127
1, 364734, Note_off_c, 10, 45, 127
1, 364738, Note_off_c, 12, 71, 127
1, 364738, Note_off_c, 4, 76, 127
1, 364738, Note_off_c, 1, 61, 127
1, 364739, Note_on_c, 4, 76, 127
1, 364739, Note_on_c, 10, 69, 127
1, 364739, Note_on_c, 1, 61, 127
1, 364878, Note_off_c, 10, 69, 127
1, 364879, Note_on_c, 8, 68, 127
1, 365018, Note_off_c, 8, 68, 127
1, 365018, Note_off_c, 4, 76, 127
1, 365019, Note_on_c, 3, 75, 127
1, 365019, Note_on_c, 6, 66, 127
1, 365158, Note_off_c, 6, 66, 127
1, 365159, Note_on_c, 8, 68, 127
1, 365159, Note_on_c, 6, 54, 127
1, 365294, Note_off_c, 1, 61, 127
1, 365298, Note_off_c, 6, 54, 127
1, 365298, Note_off_c, 8, 68, 127
1, 365298, Note_off_c, 3, 75, 127
1, 365299, Note_on_c, 2, 74, 127
1, 365299, Note_on_c, 10, 69, 127
1, 365299, Note_on_c, 12, 59, 127
1, 365438, Note_off_c, 12, 59, 127
1, 365439, Note_on_c, 10, 57, 127
1, 365578, Note_off_c, 10, 57, 127
1, 365578, Note_off_c, 10, 69, 127
1, 365578, Note_off_c, 2, 74, 127
1, 365579, Note_on_c, 2, 74, 127
1, 365579, Note_on_c, 12, 71, 127
1, 365579, Note_on_c, 8, 56, 127
1, 365718, Note_off_c, 8, 56, 127
1, 365719, Note_on_c, 4, 52, 127
1, 365858, Note_off_c, 4, 52, 127
1, 365858, Note_off_c, 2, 74, 127
1, 365859, Note_on_c, 1, 73, 127
1, 365859, Note_on_c, 10, 57, 127
1, 365998, Note_off_c, 12, 71, 127
1, 365999, Note_on_c, 4, 64, 127
1, 366138, Note_off_c, 4, 64, 127
1, 366139, Note_on_c, 10, 69, 127
1, 366278, Note_off_c, 10, 57, 127
1, 366279, Note_on_c, 6, 66, 127
1, 366418, Note_off_c, 6, 66, 127
1, 366418, Note_off_c, 1, 73, 127
1, 366419, Note_on_c, 6, 78, 127
1, 366419, Note_on_c, 3, 63, 127
1, 366558, Note_off_c, 3, 63, 127
1, 366559, Note_on_c, 12, 59, 127
1, 366698, Note_off_c, 12, 59, 127
1, 366698, Note_off_c, 10, 69, 127
1, 366699, Note_on_c, 8, 68, 127
1, 366699, Note_on_c, 4, 64, 127
1, 366838, Note_off_c, 6, 78, 127
1, 366839, Note_on_c, 12, 71, 127
1, 366978, Note_off_c, 12, 71, 127
1, 366979, Note_on_c, 4, 76, 127
1, 367118, Note_off_c, 4, 64, 127
1, 367119, Note_on_c, 4, 64, 127
1, 367258, Note_off_c, 4, 64, 127
1, 367258, Note_off_c, 8, 68, 127
1, 367259, Note_on_c, 8, 68, 127
1, 367259, Note_on_c, 1, 61, 127
1, 367398, Note_off_c, 1, 61, 127
1, 367399, Note_on_c, 8, 56, 127
1, 367538, Note_off_c, 8, 56, 127
1, 367538, Note_off_c, 8, 68, 127
1, 367539, Note_on_c, 6, 66, 127
1, 367539, Note_on_c, 10, 57, 127
1, 367678, Note_off_c, 10, 57, 127
1, 367679, Note_on_c, 1, 61, 127
1, 367818, Note_off_c, 1, 61, 127
1, 367818, Note_off_c, 4, 76, 127
1, 367819, Note_on_c, 4, 76, 127
1, 367819, Note_on_c, 10, 57, 127
1, 367958, Note_off_c, 10, 57, 127
1, 367958, Note_off_c, 6, 66, 127
1, 367959, Note_on_c, 10, 69, 127
1, 367959, Note_on_c, 6, 54, 127
1, 368098, Note_off_c, 6, 54, 127
1, 368098, Note_off_c, 10, 69, 127
1, 368099, Note_on_c, 8, 68, 127
1, 368099, Note_on_c, 12, 59, 127
1, 368238, Note_off_c, 12, 59, 127
1, 368238, Note_off_c, 8, 68, 127
1, 368239, Note_on_c, 12, 71, 127
1, 368239, Note_on_c, 8, 56, 127
1, 368378, Note_off_c, 8, 56, 127
1, 368378, Note_off_c, 12, 71, 127
1, 368379, Note_on_c, 10, 69, 127
1, 368379, Note_on_c, 1, 61, 127
1, 368518, Note_off_c, 1, 61, 127
1, 368519, Note_on_c, 4, 64, 127
1, 368658, Note_off_c, 4, 64, 127
1, 368658, Note_off_c, 4, 76, 127
1, 368659, Note_on_c, 4, 76, 127
1, 368659, Note_on_c, 1, 61, 127
1, 368798, Note_off_c, 1, 61, 127
1, 368798, Note_off_c, 10, 69, 127
1, 368799, Note_on_c, 1, 73, 127
1, 368799, Note_on_c, 10, 57, 127
1, 368938, Note_off_c, 10, 57, 127
1, 368938, Note_off_c, 1, 73, 127
1, 368939, Note_on_c, 12, 71, 127
1, 368939, Note_on_c, 8, 56, 127
1, 369078, Note_off_c, 8, 56, 127
1, 369078, Note_off_c, 12, 71, 127
1, 369079, Note_on_c, 2, 74, 127
1, 369079, Note_on_c, 4, 52, 127
1, 369218, Note_off_c, 4, 52, 127
1, 369218, Note_off_c, 2, 74, 127
1, 369219, Note_on_c, 1, 73, 127
1, 369219, Note_on_c, 10, 57, 127
1, 369358, Note_off_c, 10, 57, 127
1, 369358, Note_off_c, 4, 76, 127
1, 369359, Note_on_c, 4, 76, 127
1, 369359, Note_on_c, 1, 61, 127
1, 369498, Note_off_c, 1, 61, 127
1, 369498, Note_off_c, 1, 73, 127
1, 369499, Note_on_c, 6, 66, 127
1, 369499, Note_on_c, 10, 57, 127
1, 369638, Note_off_c, 10, 57, 127
1, 369639, Note_on_c, 6, 54, 127
1, 369778, Note_off_c, 6, 54, 127
1, 369778, Note_off_c, 4, 76, 127
1, 369779, Note_on_c, 3, 75, 127
1, 369779, Note_on_c, 12, 59, 127
1, 369918, Note_off_c, 12, 59, 127
1, 369919, Note_on_c, 12, 47, 127
1, 370058, Note_off_c, 12, 47, 127
1, 370058, Note_off_c, 3, 75, 127
1, 370058, Note_off_c, 6, 66, 127
1, 370059, Note_on_c, 4, 76, 127
1, 370059, Note_on_c, 8, 68, 127
1, 370059, Note_on_c, 4, 52, 127
1, 370198, Note_off_c, 8, 68, 127
1, 370199, Note_on_c, 10, 69, 127
1, 370338, Note_off_c, 10, 69, 127
1, 370338, Note_off_c, 4, 52, 127
1, 370339, Note_on_c, 12, 71, 127
1, 370339, Note_on_c, 4, 64, 127
1, 370478, Note_off_c, 4, 76, 127
1, 370479, Note_on_c, 7, 79, 127
1, 370618, Note_off_c, 7, 79, 127
1, 370618, Note_off_c, 4, 64, 127
1, 370618, Note_off_c, 12, 71, 127
1, 370619, Note_on_c, 4, 76, 127
1, 370619, Note_on_c, 7, 67, 127
1, 370619, Note_on_c, 4, 64, 127
1, 370758, Note_off_c, 4, 76, 127
1, 370759, Note_on_c, 1, 73, 127
1, 370898, Note_off_c, 1, 73, 127
1, 370898, Note_off_c, 7, 67, 127
1, 370899, Note_on_c, 11, 70, 127
1, 370899, Note_on_c, 6, 66, 127
1, 371179, Note_off_c, 11, 70, 127
1, 371179, Note_off_c, 4, 64, 127
1, 371180, Note_on_c, 6, 78, 127
1, 371180, Note_on_c, 3, 63, 127
1, 371319, Note_off_c, 3, 63, 127
1, 371320, Note_on_c, 1, 61, 127
1, 371459, Note_off_c, 1, 61, 127
1, 371459, Note_off_c, 6, 78, 127
1, 371459, Note_off_c, 6, 66, 127
1, 371460, Note_on_c, 6, 78, 127
1, 371460, Note_on_c, 12, 71, 127
1, 371460, Note_on_c, 2, 62, 127
1, 371740, Note_off_c, 2, 62, 127
1, 371740, Note_off_c, 6, 78, 127
1, 371741, Note_on_c, 5, 77, 127
1, 371741, Note_on_c, 1, 61, 127
1, 372021, Note_off_c, 1, 61, 127
1, 372021, Note_off_c, 5, 77, 127
1, 372021, Note_off_c, 12, 71, 127
1, 372022, Note_on_c, 4, 76, 127
1, 372022, Note_on_c, 11, 70, 127
1, 372022, Note_on_c, 6, 66, 127
1, 372161, Note_off_c, 6, 66, 127
1, 372161, Note_off_c, 11, 70, 127
1, 372162, Note_on_c, 8, 68, 127
1, 372162, Note_on_c, 4, 64, 127
1, 372301, Note_off_c, 4, 64, 127
1, 372301, Note_off_c, 8, 68, 127
1, 372301, Note_off_c, 4, 76, 127
1, 372302, Note_on_c, 4, 76, 127
1, 372302, Note_on_c, 11, 70, 127
1, 372302, Note_on_c, 6, 66, 127
1, 372582, Note_off_c, 6, 66, 127
1, 372582, Note_off_c, 11, 70, 127
1, 372582, Note_off_c, 4, 76, 127
1, 372583, Note_on_c, 2, 74, 127
1, 372583, Note_on_c, 12, 71, 127
1, 372583, Note_on_c, 12, 59, 127
1, 372863, Note_off_c, 12, 59, 127
1, 372863, Note_off_c, 2, 74, 127
1, 372864, Note_on_c, 7, 79, 127
1, 372864, Note_on_c, 2, 62, 127
1, 372864, Note_on_c, 12, 59, 127
1, 373003, Note_off_c, 7, 79, 127
1, 373004, Note_on_c, 6, 78, 127
1, 373143, Note_off_c, 6, 78, 127
1, 373143, Note_off_c, 12, 59, 127
1, 373143, Note_off_c, 2, 62, 127
1, 373143, Note_off_c, 12, 71, 127
1, 373144, Note_on_c, 7, 79, 127
1, 373144, Note_on_c, 2, 74, 127
1, 373144, Note_on_c, 7, 67, 127
1, 373144, Note_on_c, 12, 59, 127
1, 373424, Note_off_c, 12, 59, 127
1, 373424, Note_off_c, 2, 74, 127
1, 373424, Note_off_c, 7, 79, 127
1, 373425, Note_on_c, 1, 73, 127
1, 373425, Note_on_c, 11, 58, 127
1, 373705, Note_off_c, 11, 58, 127
1, 373705, Note_off_c, 7, 67, 127
1, 373706, Note_on_c, 6, 78, 127
1, 373706, Note_on_c, 1, 61, 127
1, 373706, Note_on_c, 10, 57, 127
1, 373845, Note_off_c, 6, 78, 127
1, 373846, Note_on_c, 4, 76, 127
1, 373985, Note_off_c, 4, 76, 127
1, 373985, Note_off_c, 10, 57, 127
1, 373985, Note_off_c, 1, 61, 127
1, 373985, Note_off_c, 1, 73, 127
1, 373986, Note_on_c, 6, 78, 127
1, 373986, Note_on_c, 1, 73, 127
1, 373986, Note_on_c, 6, 66, 127
1, 373986, Note_on_c, 10, 57, 127
1, 374266, Note_off_c, 10, 57, 127
1, 374266, Note_off_c, 1, 73, 127
1, 374266, Note_off_c, 6, 78, 127
1, 374267, Note_on_c, 12, 71, 127
1, 374267, Note_on_c, 8, 56, 127
1, 374547, Note_off_c, 8, 56, 127
1, 374547, Note_off_c, 6, 66, 127
1, 374548, Note_on_c, 4, 76, 127
1, 374548, Note_on_c, 12, 59, 127
1, 374548, Note_on_c, 7, 55, 127
1, 374687, Note_off_c, 4, 76, 127
1, 374688, Note_on_c, 3, 75, 127
1, 374827, Note_off_c, 3, 75, 127
1, 374827, Note_off_c, 7, 55, 127
1, 374827, Note_off_c, 12, 59, 127
1, 374827, Note_off_c, 12, 71, 127
1, 374828, Note_on_c, 4, 76, 127
1, 374828, Note_on_c, 12, 71, 127
1, 374828, Note_on_c, 4, 64, 127
1, 374828, Note_on_c, 7, 55, 127
1, 375108, Note_off_c, 7, 55, 127
1, 375108, Note_off_c, 4, 64, 127
1, 375108, Note_off_c, 12, 71, 127
1, 375109, Note_on_c, 11, 70, 127
1, 375109, Note_on_c, 6, 66, 127
1, 375109, Note_on_c, 6, 54, 127
1, 375248, Note_off_c, 4, 76, 127
1, 375249, Note_on_c, 4, 76, 127
1, 375387, Note_off_c, 6, 66, 127
1, 375388, Note_off_c, 4, 76, 127
1, 375388, Note_off_c, 6, 54, 127
1, 375389, Note_on_c, 2, 74, 127
1, 375389, Note_on_c, 12, 59, 127
1, 375528, Note_off_c, 12, 59, 127
1, 375528, Note_off_c, 2, 74, 127
1, 375529, Note_on_c, 6, 78, 127
1, 375529, Note_on_c, 11, 58, 127
1, 375668, Note_off_c, 11, 58, 127
1, 375668, Note_off_c, 6, 78, 127
1, 375669, Note_on_c, 2, 74, 127
1, 375669, Note_on_c, 12, 59, 127
1, 375808, Note_off_c, 11, 70, 127
1, 375809, Note_on_c, 12, 71, 127
1, 375948, Note_off_c, 12, 59, 127
1, 375949, Note_on_c, 7, 67, 127
1, 375949, Note_on_c, 4, 52, 127
1, 376088, Note_off_c, 2, 74, 127
1, 376089, Note_on_c, 2, 74, 127
1, 376218, Note_off_c, 12, 71, 127
1, 376227, Note_off_c, 7, 67, 127
1, 376228, Note_off_c, 2, 74, 127
1, 376228, Note_off_c, 4, 52, 127
1, 376229, Note_on_c, 1, 73, 127
1, 376229, Note_on_c, 10, 57, 127
1, 376368, Note_off_c, 10, 57, 127
1, 376368, Note_off_c, 1, 73, 127
1, 376369, Note_on_c, 4, 76, 127
1, 376369, Note_on_c, 7, 55, 127
1, 376508, Note_off_c, 7, 55, 127
1, 376508, Note_off_c, 4, 76, 127
1, 376509, Note_on_c, 1, 73, 127
1, 376509, Note_on_c, 10, 57, 127
1, 376649, Note_on_c, 10, 69, 127
1, 376788, Note_off_c, 10, 57, 127
1, 376789, Note_on_c, 6, 66, 127
1, 376789, Note_on_c, 2, 50, 127
1, 376928, Note_off_c, 1, 73, 127
1, 376929, Note_on_c, 1, 73, 127
1, 377058, Note_off_c, 10, 69, 127
1, 377067, Note_off_c, 6, 66, 127
1, 377068, Note_off_c, 1, 73, 127
1, 377068, Note_off_c, 2, 50, 127
1, 377069, Note_on_c, 12, 71, 127
1, 377069, Note_on_c, 7, 55, 127
1, 377208, Note_off_c, 7, 55, 127
1, 377208, Note_off_c, 12, 71, 127
1, 377209, Note_on_c, 2, 74, 127
1, 377209, Note_on_c, 6, 54, 127
1, 377348, Note_off_c, 6, 54, 127
1, 377348, Note_off_c, 2, 74, 127
1, 377349, Note_on_c, 12, 71, 127
1, 377349, Note_on_c, 7, 55, 127
1, 377489, Note_on_c, 7, 67, 127
1, 377628, Note_off_c, 7, 55, 127
1, 377629, Note_on_c, 4, 64, 127
1, 377629, Note_on_c, 1, 49, 127
1, 377768, Note_off_c, 12, 71, 127
1, 377769, Note_on_c, 12, 71, 127
1, 377898, Note_off_c, 7, 67, 127
1, 377907, Note_off_c, 4, 64, 127
1, 377908, Note_off_c, 12, 71, 127
1, 377908, Note_off_c, 1, 49, 127
1, 377909, Note_on_c, 11, 70, 127
1, 377909, Note_on_c, 6, 54, 127
1, 378048, Note_off_c, 6, 54, 127
1, 378048, Note_off_c, 11, 70, 127
1, 378049, Note_on_c, 1, 73, 127
1, 378049, Note_on_c, 4, 52, 127
1, 378188, Note_off_c, 4, 52, 127
1, 378188, Note_off_c, 1, 73, 127
1, 378189, Note_on_c, 11, 70, 127
1, 378189, Note_on_c, 6, 54, 127
1, 378329, Note_on_c, 6, 66, 127
1, 378469, Note_on_c, 4, 64, 127
1, 378608, Note_off_c, 6, 54, 127
1, 378609, Note_on_c, 6, 54, 127
1, 378748, Note_off_c, 6, 54, 127
1, 378748, Note_off_c, 4, 64, 127
1, 378748, Note_off_c, 6, 66, 127
1, 378748, Note_off_c, 11, 70, 127
1, 378749, Note_on_c, 12, 71, 127
1, 378749, Note_on_c, 12, 59, 127
1, 378749, Note_on_c, 2, 62, 127
1, 378749, Note_on_c, 7, 55, 127
1, 378881, Note_off_c, 12, 59, 127
1, 378888, Note_off_c, 7, 55, 127
1, 378889, Note_on_c, 12, 59, 127
1, 379028, Note_off_c, 12, 59, 127
1, 379029, Note_on_c, 7, 67, 127
1, 379029, Note_on_c, 7, 55, 127
1, 379168, Note_off_c, 7, 55, 127
1, 379169, Note_on_c, 4, 52, 127
1, 379308, Note_off_c, 4, 52, 127
1, 379308, Note_off_c, 2, 62, 127
1, 379309, Note_on_c, 4, 64, 127
1, 379309, Note_on_c, 1, 49, 127
1, 379448, Note_off_c, 12, 71, 127
1, 379449, Note_on_c, 12, 71, 127
1, 379588, Note_off_c, 12, 71, 127
1, 379588, Note_off_c, 1, 49, 127
1, 379588, Note_off_c, 7, 67, 127
1, 379589, Note_on_c, 11, 70, 127
1, 379589, Note_on_c, 6, 66, 127
1, 379589, Note_on_c, 6, 54, 127
1, 379869, Note_off_c, 6, 54, 127
1, 379869, Note_off_c, 4, 64, 127
1, 379870, Note_on_c, 4, 64, 127
1, 379870, Note_on_c, 6, 42, 127
1, 380009, Note_off_c, 11, 70, 127
1, 380010, Note_on_c, 11, 70, 127
1, 380145, Note_off_c, 6, 66, 127
1, 380149, Note_off_c, 11, 70, 127
1, 380149, Note_off_c, 6, 42, 127
1, 380150, Note_on_c, 12, 71, 127
1, 380150, Note_on_c, 12, 47, 127
1, 380279, Note_off_c, 4, 64, 127
1, 380289, Note_off_c, 12, 71, 127
1, 380290, Note_on_c, 6, 66, 127
1, 380429, Note_off_c, 6, 66, 127
1, 380430, Note_on_c, 7, 67, 127
1, 380430, Note_on_c, 2, 62, 127
1, 380569, Note_off_c, 7, 67, 127
1, 380570, Note_on_c, 12, 71, 127
1, 380709, Note_off_c, 12, 71, 127
1, 380709, Note_off_c, 2, 62, 127
1, 380709, Note_off_c, 12, 47, 127
1, 380710, Note_on_c, 7, 67, 127
1, 380710, Note_on_c, 2, 62, 127
1, 380710, Note_on_c, 12, 59, 127
1, 380849, Note_off_c, 7, 67, 127
1, 380850, Note_on_c, 6, 66, 127
1, 380989, Note_off_c, 6, 66, 127
1, 380989, Note_off_c, 2, 62, 127
1, 380990, Note_on_c, 5, 65, 127
1, 380990, Note_on_c, 1, 61, 127
1, 381129, Note_off_c, 5, 65, 127
1, 381129, Note_off_c, 12, 59, 127
1, 381130, Note_on_c, 8, 68, 127
1, 381130, Note_on_c, 12, 59, 127
1, 381268, Note_off_c, 1, 61, 127
1, 381269, Note_off_c, 12, 59, 127
1, 381269, Note_off_c, 8, 68, 127
1, 381270, Note_on_c, 1, 73, 127
1, 381270, Note_on_c, 10, 57, 127
1, 381409, Note_off_c, 10, 57, 127
1, 381409, Note_off_c, 1, 73, 127
1, 381410, Note_on_c, 6, 78, 127
1, 381410, Note_on_c, 2, 62, 127
1, 381549, Note_off_c, 2, 62, 127
1, 381549, Note_off_c, 6, 78, 127
1, 381550, Note_on_c, 2, 74, 127
1, 381550, Note_on_c, 12, 59, 127
1, 381689, Note_off_c, 12, 59, 127
1, 381689, Note_off_c, 2, 74, 127
1, 381690, Note_on_c, 1, 73, 127
1, 381690, Note_on_c, 10, 57, 127
1, 381829, Note_off_c, 10, 57, 127
1, 381829, Note_off_c, 1, 73, 127
1, 381830, Note_on_c, 12, 71, 127
1, 381830, Note_on_c, 8, 56, 127
1, 381969, Note_off_c, 12, 71, 127
1, 381970, Note_on_c, 2, 74, 127
1, 382109, Note_off_c, 2, 74, 127
1, 382109, Note_off_c, 8, 56, 127
1, 382110, Note_on_c, 5, 65, 127
1, 382110, Note_on_c, 1, 61, 127
1, 382249, Note_off_c, 5, 65, 127
1, 382250, Note_on_c, 2, 74, 127
1, 382389, Note_off_c, 2, 74, 127
1, 382389, Note_off_c, 1, 61, 127
1, 382390, Note_on_c, 1, 73, 127
1, 382390, Note_on_c, 1, 49, 127
1, 382529, Note_off_c, 1, 73, 127
1, 382530, Note_on_c, 12, 71, 127
1, 382669, Note_off_c, 12, 71, 127
1, 382669, Note_off_c, 1, 49, 127
1, 382670, Note_on_c, 10, 69, 127
1, 382670, Note_on_c, 6, 54, 127
1, 382809, Note_off_c, 10, 69, 127
1, 382810, Note_on_c, 12, 71, 127
1, 382949, Note_off_c, 12, 71, 127
1, 382950, Note_on_c, 10, 69, 127
1, 383089, Note_off_c, 10, 69, 127
1, 383089, Note_off_c, 6, 54, 127
1, 383090, Note_on_c, 8, 68, 127
1, 383090, Note_on_c, 8, 56, 127
1, 383229, Note_off_c, 8, 56, 127
1, 383229, Note_off_c, 8, 68, 127
1, 383230, Note_on_c, 6, 66, 127
1, 383230, Note_on_c, 10, 57, 127
1, 383369, Note_off_c, 10, 57, 127
1, 383369, Note_off_c, 6, 66, 127
1, 383370, Note_on_c, 10, 69, 127
1, 383370, Note_on_c, 6, 54, 127
1, 383509, Note_off_c, 6, 54, 127
1, 383509, Note_off_c, 10, 69, 127
1, 383510, Note_on_c, 3, 63, 127
1, 383510, Note_on_c, 12, 59, 127
1, 383649, Note_off_c, 12, 59, 127
1, 383650, Note_on_c, 1, 61, 127
1, 383789, Note_off_c, 1, 61, 127
1, 383790, Note_on_c, 12, 59, 127
1, 383929, Note_off_c, 12, 59, 127
1, 383929, Note_off_c, 3, 63, 127
1, 383930, Note_on_c, 1, 73, 127
1, 383930, Note_on_c, 10, 57, 127
1, 384069, Note_off_c, 10, 57, 127
1, 384069, Note_off_c, 1, 73, 127
1, 384070, Note_on_c, 12, 71, 127
1, 384070, Note_on_c, 8, 56, 127
1, 384209, Note_off_c, 8, 56, 127
1, 384209, Note_off_c, 12, 71, 127
1, 384210, Note_on_c, 10, 69, 127
1, 384210, Note_on_c, 12, 59, 127
1, 384349, Note_off_c, 12, 59, 127
1, 384349, Note_off_c, 10, 69, 127
1, 384350, Note_on_c, 8, 68, 127
1, 384350, Note_on_c, 4, 52, 127
1, 384489, Note_off_c, 8, 68, 127
1, 384490, Note_on_c, 10, 69, 127
1, 384629, Note_off_c, 10, 69, 127
1, 384630, Note_on_c, 8, 68, 127
1, 384769, Note_off_c, 8, 68, 127
1, 384769, Note_off_c, 4, 52, 127
1, 384770, Note_on_c, 6, 66, 127
1, 384770, Note_on_c, 6, 54, 127
1, 384909, Note_off_c, 6, 54, 127
1, 384909, Note_off_c, 6, 66, 127
1, 384910, Note_on_c, 4, 64, 127
1, 384910, Note_on_c, 8, 56, 127
1, 385049, Note_off_c, 8, 56, 127
1, 385049, Note_off_c, 4, 64, 127
1, 385050, Note_on_c, 8, 68, 127
1, 385050, Note_on_c, 4, 52, 127
1, 385189, Note_off_c, 4, 52, 127
1, 385189, Note_off_c, 8, 68, 127
1, 385190, Note_on_c, 1, 61, 127
1, 385190, Note_on_c, 10, 57, 127
1, 385329, Note_off_c, 10, 57, 127
1, 385330, Note_on_c, 12, 59, 127
1, 385469, Note_off_c, 12, 59, 127
1, 385470, Note_on_c, 10, 57, 127
1, 385609, Note_off_c, 10, 57, 127
1, 385609, Note_off_c, 1, 61, 127
1, 385610, Note_on_c, 12, 71, 127
1, 385610, Note_on_c, 8, 56, 127
1, 385749, Note_off_c, 8, 56, 127
1, 385749, Note_off_c, 12, 71, 127
1, 385750, Note_on_c, 10, 69, 127
1, 385750, Note_on_c, 6, 54, 127
1, 385889, Note_off_c, 6, 54, 127
1, 385889, Note_off_c, 10, 69, 127
1, 385890, Note_on_c, 8, 68, 127
1, 385890, Note_on_c, 10, 57, 127
1, 386029, Note_off_c, 10, 57, 127
1, 386029, Note_off_c, 8, 68, 127
1, 386030, Note_on_c, 6, 66, 127
1, 386030, Note_on_c, 3, 51, 127
1, 386169, Note_off_c, 6, 66, 127
1, 386170, Note_on_c, 8, 68, 127
1, 386309, Note_off_c, 8, 68, 127
1, 386310, Note_on_c, 6, 66, 127
1, 386449, Note_off_c, 6, 66, 127
1, 386449, Note_off_c, 3, 51, 127
1, 386450, Note_on_c, 4, 64, 127
1, 386450, Note_on_c, 4, 52, 127
1, 386589, Note_off_c, 4, 52, 127
1, 386589, Note_off_c, 4, 64, 127
1, 386590, Note_on_c, 3, 63, 127
1, 386590, Note_on_c, 6, 54, 127
1, 386729, Note_off_c, 6, 54, 127
1, 386729, Note_off_c, 3, 63, 127
1, 386730, Note_on_c, 6, 66, 127
1, 386730, Note_on_c, 3, 51, 127
1, 386869, Note_off_c, 3, 51, 127
1, 386869, Note_off_c, 6, 66, 127
1, 386870, Note_on_c, 0, 60, 127
1, 386870, Note_on_c, 8, 56, 127
1, 387009, Note_off_c, 8, 56, 127
1, 387010, Note_on_c, 10, 57, 127
1, 387149, Note_off_c, 10, 57, 127
1, 387150, Note_on_c, 8, 56, 127
1, 387289, Note_off_c, 8, 56, 127
1, 387289, Note_off_c, 0, 60, 127
1, 387290, Note_on_c, 10, 69, 127
1, 387290, Note_on_c, 6, 54, 127
1, 387429, Note_off_c, 6, 54, 127
1, 387429, Note_off_c, 10, 69, 127
1, 387430, Note_on_c, 8, 68, 127
1, 387430, Note_on_c, 5, 53, 127
1, 387569, Note_off_c, 5, 53, 127
1, 387569, Note_off_c, 8, 68, 127
1, 387570, Note_on_c, 6, 66, 127
1, 387570, Note_on_c, 8, 56, 127
1, 387709, Note_off_c, 8, 56, 127
1, 387709, Note_off_c, 6, 66, 127
1, 387710, Note_on_c, 5, 65, 127
1, 387710, Note_on_c, 1, 49, 127
1, 387849, Note_off_c, 1, 49, 127
1, 387849, Note_off_c, 5, 65, 127
1, 387850, Note_on_c, 8, 68, 127
1, 387850, Note_on_c, 2, 50, 127
1, 387989, Note_off_c, 2, 50, 127
1, 387989, Note_off_c, 8, 68, 127
1, 387990, Note_on_c, 1, 73, 127
1, 387990, Note_on_c, 1, 49, 127
1, 388129, Note_off_c, 1, 49, 127
1, 388129, Note_off_c, 1, 73, 127
1, 388130, Note_on_c, 2, 74, 127
1, 388130, Note_on_c, 12, 47, 127
1, 388269, Note_off_c, 12, 47, 127
1, 388269, Note_off_c, 2, 74, 127
1, 388270, Note_on_c, 1, 73, 127
1, 388270, Note_on_c, 10, 45, 127
1, 388409, Note_off_c, 10, 45, 127
1, 388409, Note_off_c, 1, 73, 127
1, 388410, Note_on_c, 12, 71, 127
1, 388410, Note_on_c, 1, 49, 127
1, 388549, Note_off_c, 1, 49, 127
1, 388549, Note_off_c, 12, 71, 127
1, 388550, Note_on_c, 10, 69, 127
1, 388550, Note_on_c, 6, 42, 127
1, 388830, Note_off_c, 6, 42, 127
1, 388830, Note_off_c, 10, 69, 127
1, 388831, Note_on_c, 2, 74, 127
1, 388831, Note_on_c, 6, 54, 127
1, 388970, Note_off_c, 2, 74, 127
1, 388971, Note_on_c, 1, 73, 127
1, 389110, Note_off_c, 1, 73, 127
1, 389110, Note_off_c, 6, 54, 127
1, 389111, Note_on_c, 2, 74, 127
1, 389111, Note_on_c, 6, 54, 127
1, 389391, Note_off_c, 6, 54, 127
1, 389391, Note_off_c, 2, 74, 127
1, 389392, Note_on_c, 8, 68, 127
1, 389392, Note_on_c, 5, 53, 127
1, 389672, Note_off_c, 5, 53, 127
1, 389672, Note_off_c, 8, 68, 127
1, 389673, Note_on_c, 1, 73, 127
1, 389673, Note_on_c, 4, 52, 127
1, 389812, Note_off_c, 1, 73, 127
1, 389813, Note_on_c, 12, 71, 127
1, 389952, Note_off_c, 12, 71, 127
1, 389952, Note_off_c, 4, 52, 127
1, 389953, Note_on_c, 1, 73, 127
1, 389953, Note_on_c, 4, 52, 127
1, 390233, Note_off_c, 4, 52, 127
1, 390233, Note_off_c, 1, 73, 127
1, 390234, Note_on_c, 6, 66, 127
1, 390234, Note_on_c, 3, 51, 127
1, 390514, Note_off_c, 3, 51, 127
1, 390514, Note_off_c, 6, 66, 127
1, 390515, Note_on_c, 6, 78, 127
1, 390515, Note_on_c, 12, 71, 127
1, 390515, Note_on_c, 2, 62, 127
1, 390515, Note_on_c, 2, 50, 127
1, 390654, Note_off_c, 12, 71, 127
1, 390655, Note_on_c, 10, 69, 127
1, 390794, Note_off_c, 10, 69, 127
1, 390794, Note_off_c, 2, 50, 127
1, 390794, Note_off_c, 2, 62, 127
1, 390794, Note_off_c, 6, 78, 127
1, 390795, Note_on_c, 6, 78, 127
1, 390795, Note_on_c, 12, 71, 127
1, 390795, Note_on_c, 2, 62, 127
1, 390795, Note_on_c, 2, 50, 127
1, 391075, Note_off_c, 2, 50, 127
1, 391075, Note_off_c, 2, 62, 127
1, 391075, Note_off_c, 12, 71, 127
1, 391075, Note_off_c, 6, 78, 127
1, 391076, Note_on_c, 5, 77, 127
1, 391076, Note_on_c, 1, 73, 127
1, 391076, Note_on_c, 8, 56, 127
1, 391076, Note_on_c, 1, 49, 127
1, 391356, Note_off_c, 8, 56, 127
1, 391356, Note_off_c, 1, 73, 127
1, 391356, Note_off_c, 5, 77, 127
1, 391357, Note_on_c, 4, 76, 127
1, 391357, Note_on_c, 8, 68, 127
1, 391357, Note_on_c, 1, 61, 127
1, 391496, Note_off_c, 1, 61, 127
1, 391497, Note_on_c, 12, 59, 127
1, 391636, Note_off_c, 12, 59, 127
1, 391636, Note_off_c, 8, 68, 127
1, 391636, Note_off_c, 4, 76, 127
1, 391637, Note_on_c, 4, 76, 127
1, 391637, Note_on_c, 11, 70, 127
1, 391637, Note_on_c, 1, 61, 127
1, 391917, Note_off_c, 1, 61, 127
1, 391917, Note_off_c, 11, 70, 127
1, 391917, Note_off_c, 4, 76, 127
1, 391917, Note_off_c, 1, 49, 127
1, 391918, Note_on_c, 3, 75, 127
1, 391918, Note_on_c, 12, 71, 127
1, 391918, Note_on_c, 6, 54, 127
1, 391918, Note_on_c, 12, 47, 127
1, 392198, Note_off_c, 6, 54, 127
1, 392198, Note_off_c, 12, 71, 127
1, 392198, Note_off_c, 3, 75, 127
1, 392199, Note_on_c, 2, 74, 127
1, 392199, Note_on_c, 6, 66, 127
1, 392199, Note_on_c, 12, 59, 127
1, 392338, Note_off_c, 12, 59, 127
1, 392338, Note_off_c, 6, 66, 127
1, 392339, Note_on_c, 10, 69, 127
1, 392339, Note_on_c, 10, 57, 127
1, 392478, Note_off_c, 10, 57, 127
1, 392478, Note_off_c, 10, 69, 127
1, 392478, Note_off_c, 2, 74, 127
1, 392479, Note_on_c, 2, 74, 127
1, 392479, Note_on_c, 8, 68, 127
1, 392479, Note_on_c, 12, 59, 127
1, 392618, Note_off_c, 8, 68, 127
1, 392619, Note_on_c, 12, 71, 127
1, 392758, Note_off_c, 12, 71, 127
1, 392758, Note_off_c, 12, 59, 127
1, 392758, Note_off_c, 2, 74, 127
1, 392758, Note_off_c, 12, 47, 127
1, 392759, Note_on_c, 1, 73, 127
1, 392759, Note_on_c, 5, 65, 127
1, 392759, Note_on_c, 8, 56, 127
1, 392759, Note_on_c, 12, 47, 127
1, 392898, Note_off_c, 8, 56, 127
1, 392899, Note_on_c, 1, 61, 127
1, 393038, Note_off_c, 1, 61, 127
1, 393039, Note_on_c, 8, 56, 127
1, 393178, Note_off_c, 8, 56, 127
1, 393179, Note_on_c, 5, 53, 127
1, 393318, Note_off_c, 5, 53, 127
1, 393319, Note_on_c, 1, 49, 127
1, 393458, Note_off_c, 1, 49, 127
1, 393459, Note_on_c, 8, 56, 127
1, 393598, Note_off_c, 8, 56, 127
1, 393598, Note_off_c, 12, 47, 127
1, 393598, Note_off_c, 5, 65, 127
1, 393598, Note_off_c, 1, 73, 127
1, 393599, Note_on_c, 1, 73, 127
1, 393599, Note_on_c, 6, 66, 127
1, 393599, Note_on_c, 10, 57, 127
1, 393599, Note_on_c, 10, 45, 127
1, 393738, Note_off_c, 1, 73, 127
1, 393739, Note_on_c, 6, 78, 127
1, 393878, Note_off_c, 6, 78, 127
1, 393879, Note_on_c, 1, 73, 127
1, 394018, Note_off_c, 1, 73, 127
1, 394019, Note_on_c, 10, 69, 127
1, 394154, Note_off_c, 6, 66, 127
1, 394158, Note_off_c, 10, 69, 127
1, 394159, Note_on_c, 6, 66, 127
1, 394299, Note_on_c, 10, 69, 127
1, 394437, Note_off_c, 6, 66, 127
1, 394438, Note_off_c, 10, 69, 127
1, 394438, Note_off_c, 10, 45, 127
1, 394438, Note_off_c, 10, 57, 127
1, 394439, Note_on_c, 12, 71, 127
1, 394439, Note_on_c, 3, 63, 127
1, 394439, Note_on_c, 6, 54, 127
1, 394439, Note_on_c, 10, 45, 127
1, 394578, Note_off_c, 6, 54, 127
1, 394579, Note_on_c, 12, 59, 127
1, 394718, Note_off_c, 12, 59, 127
1, 394719, Note_on_c, 6, 54, 127
1, 394858, Note_off_c, 6, 54, 127
1, 394859, Note_on_c, 3, 51, 127
1, 394998, Note_off_c, 3, 51, 127
1, 394999, Note_on_c, 12, 47, 127
1, 395138, Note_off_c, 12, 47, 127
1, 395139, Note_on_c, 6, 54, 127
1, 395278, Note_off_c, 6, 54, 127
1, 395278, Note_off_c, 10, 45, 127
1, 395278, Note_off_c, 3, 63, 127
1, 395278, Note_off_c, 12, 71, 127
1, 395279, Note_on_c, 12, 71, 127
1, 395279, Note_on_c, 5, 65, 127
1, 395279, Note_on_c, 8, 56, 127
1, 395279, Note_on_c, 8, 44, 127
1, 395418, Note_off_c, 12, 71, 127
1, 395419, Note_on_c, 2, 74, 127
1, 395558, Note_off_c, 2, 74, 127
1, 395559, Note_on_c, 12, 71, 127
1, 395698, Note_off_c, 12, 71, 127
1, 395699, Note_on_c, 8, 68, 127
1, 395834, Note_off_c, 5, 65, 127
1, 395838, Note_off_c, 8, 68, 127
1, 395838, Note_off_c, 8, 44, 127
1, 395838, Note_off_c, 8, 56, 127
1, 395839, Note_on_c, 5, 65, 127
1, 395839, Note_on_c, 8, 56, 127
1, 395839, Note_on_c, 1, 49, 127
1, 395979, Note_on_c, 8, 68, 127
1, 396117, Note_off_c, 5, 65, 127
1, 396118, Note_off_c, 8, 68, 127
1, 396118, Note_off_c, 1, 49, 127
1, 396118, Note_off_c, 8, 56, 127
1, 396119, Note_on_c, 10, 69, 127
1, 396119, Note_on_c, 6, 54, 127
1, 396119, Note_on_c, 6, 42, 127
1, 396259, Note_on_c, 1, 61, 127
1, 396398, Note_off_c, 1, 61, 127
1, 396399, Note_on_c, 6, 66, 127
1, 396538, Note_off_c, 6, 66, 127
1, 396539, Note_on_c, 1, 61, 127
1, 396678, Note_off_c, 1, 61, 127
1, 396679, Note_on_c, 10, 57, 127
1, 396818, Note_off_c, 10, 57, 127
1, 396819, Note_on_c, 1, 61, 127
1, 396958, Note_off_c, 6, 42, 127
1, 396958, Note_off_c, 6, 54, 127
1, 396959, Note_on_c, 6, 54, 127
1, 397098, Note_off_c, 6, 54, 127
1, 397099, Note_on_c, 1, 49, 127
1, 397238, Note_off_c, 1, 49, 127
1, 397239, Note_on_c, 6, 54, 127
1, 397378, Note_off_c, 6, 54, 127
1, 397379, Note_on_c, 1, 49, 127
1, 397518, Note_off_c, 1, 49, 127
1, 397519, Note_on_c, 10, 45, 127
1, 397658, Note_off_c, 10, 45, 127
1, 397659, Note_on_c, 1, 49, 127
1, 397797, Note_off_c, 10, 69, 127
1, 397798, Note_off_c, 1, 49, 127
1, 397799, Note_on_c, 6, 42, 127
1, 397800, Note_off_c, 1, 61, 127
1, 397938, Note_off_c, 6, 42, 127
1, 397939, Note_on_c, 1, 37, 127
1, 398078, Note_off_c, 1, 37, 127
1, 398079, Note_on_c, 6, 42, 127
1, 398218, Note_off_c, 6, 42, 127
1, 398219, Note_on_c, 10, 45, 127
1, 398358, Note_off_c, 10, 45, 127
1, 398359, Note_on_c, 8, 44, 127
1, 398498, Note_off_c, 8, 44, 127
1, 398499, Note_on_c, 12, 47, 127
1, 398638, Note_off_c, 12, 47, 127
1, 398639, Note_on_c, 10, 45, 127
1, 398778, Note_off_c, 10, 45, 127
1, 398779, Note_on_c, 6, 42, 127
1, 398918, Note_off_c, 6, 42, 127
1, 398919, Note_on_c, 10, 45, 127
1, 399058, Note_off_c, 10, 45, 127
1, 399059, Note_on_c, 1, 49, 127
1, 399198, Note_off_c, 1, 49, 127
1, 399199, Note_on_c, 12, 47, 127
1, 399338, Note_off_c, 12, 47, 127
1, 399339, Note_on_c, 2, 50, 127
1, 399478, Note_off_c, 2, 50, 127
1, 399479, Note_on_c, 1, 49, 127
1, 399618, Note_off_c, 1, 49, 127
1, 399619, Note_on_c, 10, 45, 127
1, 399758, Note_off_c, 10, 45, 127
1, 399759, Note_on_c, 1, 49, 127
1, 399898, Note_off_c, 1, 49, 127
1, 399899, Note_on_c, 6, 54, 127
1, 400038, Note_off_c, 6, 54, 127
1, 400039, Note_on_c, 5, 53, 127
1, 400178, Note_off_c, 5, 53, 127
1, 400179, Note_on_c, 8, 56, 127
1, 400318, Note_off_c, 8, 56, 127
1, 400319, Note_on_c, 6, 54, 127
1, 400458, Note_off_c, 6, 54, 127
1, 400459, Note_on_c, 1, 49, 127
1, 400598, Note_off_c, 1, 49, 127
1, 400599, Note_on_c, 6, 54, 127
1, 400738, Note_off_c, 6, 54, 127
1, 400739, Note_on_c, 10, 57, 127
1, 400878, Note_off_c, 10, 57, 127
1, 400879, Note_on_c, 8, 56, 127
1, 401018, Note_off_c, 8, 56, 127
1, 401019, Note_on_c, 12, 59, 127
1, 401158, Note_off_c, 12, 59, 127
1, 401159, Note_on_c, 10, 57, 127
1, 401298, Note_off_c, 10, 57, 127
1, 401299, Note_on_c, 6, 54, 127
1, 401438, Note_off_c, 6, 54, 127
1, 401439, Note_on_c, 10, 57, 127
1, 401578, Note_off_c, 10, 57, 127
1, 401579, Note_on_c, 1, 61, 127
1, 401718, Note_off_c, 1, 61, 127
1, 401719, Note_on_c, 12, 59, 127
1, 401858, Note_off_c, 12, 59, 127
1, 401859, Note_on_c, 2, 62, 127
1, 401998, Note_off_c, 2, 62, 127
1, 401999, Note_on_c, 1, 61, 127
1, 402138, Note_off_c, 1, 61, 127
1, 402139, Note_on_c, 10, 57, 127
1, 402278, Note_off_c, 10, 57, 127
1, 402279, Note_on_c, 1, 61, 127
1, 402418, Note_off_c, 1, 61, 127
1, 402419, Note_on_c, 6, 66, 127
1, 402558, Note_off_c, 6, 66, 127
1, 402559, Note_on_c, 5, 65, 127
1, 402698, Note_off_c, 5, 65, 127
1, 402699, Note_on_c, 8, 68, 127
1, 402838, Note_off_c, 8, 68, 127
1, 402839, Note_on_c, 6, 66, 127
1, 402978, Note_off_c, 6, 66, 127
1, 402979, Note_on_c, 1, 61, 127
1, 403118, Note_off_c, 1, 61, 127
1, 403119, Note_on_c, 6, 66, 127
1, 403258, Note_off_c, 6, 66, 127
1, 403259, Note_on_c, 10, 69, 127
1, 403398, Note_off_c, 10, 69, 127
1, 403399, Note_on_c, 8, 68, 127
1, 403538, Note_off_c, 8, 68, 127
1, 403539, Note_on_c, 12, 71, 127
1, 403678, Note_off_c, 12, 71, 127
1, 403679, Note_on_c, 10, 69, 127
1, 403818, Note_off_c, 10, 69, 127
1, 403819, Note_on_c, 6, 66, 127
1, 403958, Note_off_c, 6, 66, 127
1, 403959, Note_on_c, 10, 69, 127
1, 404098, Note_off_c, 10, 69, 127
1, 404099, Note_on_c, 1, 73, 127
1, 404238, Note_off_c, 1, 73, 127
1, 404239, Note_on_c, 12, 71, 127
1, 404382, Note_off_c, 12, 71, 127
1, 404383, Note_on_c, 2, 74, 127
1, 404526, Note_off_c, 2, 74, 127
1, 404529, Note_on_c, 1, 73, 127
1, 404672, Note_off_c, 1, 73, 127
1, 404675, Note_on_c, 10, 69, 127
1, 404818, Note_off_c, 10, 69, 127
1, 404821, Note_on_c, 1, 73, 127
1, 404891, Note_off_c, 1, 73, 127
1, 404894, Note_on_c, 3, 75, 127
1, 404964, Note_off_c, 3, 75, 127
1, 404967, Note_on_c, 4, 76, 127
1, 405110, Note_off_c, 4, 76, 127
1, 405113, Note_on_c, 3, 75, 127
1, 405183, Note_off_c, 3, 75, 127
1, 405184, Note_on_c, 5, 77, 127
1, 405254, Note_off_c, 5, 77, 127
1, 405257, Note_on_c, 6, 78, 127
1, 405400, Note_off_c, 6, 78, 127
1, 405403, Note_on_c, 5, 77, 127
1, 405473, Note_off_c, 5, 77, 127
1, 405476, Note_on_c, 6, 78, 127
1, 405546, Note_off_c, 6, 78, 127
1, 405549, Note_on_c, 8, 80, 127
1, 405692, Note_off_c, 8, 80, 127
1, 405695, Note_on_c, 6, 78, 127
1, 405765, Note_off_c, 6, 78, 127
1, 405768, Note_on_c, 8, 80, 127
1, 405838, Note_off_c, 8, 80, 127
1, 405841, Note_on_c, 10, 81, 127
1, 405984, Note_off_c, 10, 81, 127
1, 405987, Note_on_c, 8, 80, 127
1, 406063, Note_off_c, 8, 80, 127
1, 406064, Note_on_c, 10, 81, 127
1, 406140, Note_off_c, 10, 81, 127
1, 406143, Note_on_c, 12, 83, 127
1, 406298, Note_off_c, 12, 83, 127
1, 406301, Note_on_c, 1, 73, 127
1, 406301, Note_on_c, 6, 66, 127
1, 406301, Note_on_c, 6, 54, 127
1, 406459, Note_on_c, 10, 81, 127
1, 406614, Note_off_c, 10, 81, 127
1, 406614, Note_off_c, 6, 54, 127
1, 406615, Note_on_c, 8, 80, 127
1, 406615, Note_on_c, 1, 61, 127
1, 406928, Note_off_c, 6, 66, 127
1, 406928, Note_off_c, 1, 73, 127
1, 406931, Note_on_c, 12, 71, 127
1, 406931, Note_on_c, 5, 65, 127
1, 407085, Note_off_c, 8, 80, 127
1, 407089, Note_on_c, 6, 78, 127
1, 407243, Note_off_c, 1, 61, 127
1, 407244, Note_off_c, 6, 78, 127
1, 407244, Note_off_c, 5, 65, 127
1, 407244, Note_off_c, 12, 71, 127
1, 407247, Note_on_c, 6, 54, 127
1, 407247, Note_on_c, 6, 66, 127
1, 407247, Note_on_c, 11, 70, 127
1, 407247, Note_on_c, 6, 78, 127
1, 407408, Note_off_c, 6, 66, 127
1, 407412, Note_on_c, 4, 64, 127
1, 407573, Note_off_c, 4, 64, 127
1, 407574, Note_off_c, 6, 78, 127
1, 407574, Note_off_c, 11, 70, 127
1, 407580, Note_on_c, 2, 62, 127
1, 407580, Note_on_c, 12, 71, 127
1, 407580, Note_on_c, 6, 78, 127
1, 407741, Note_off_c, 12, 71, 127
1, 407741, Note_off_c, 2, 62, 127
1, 407747, Note_on_c, 1, 61, 127
1, 407747, Note_on_c, 1, 73, 127
1, 407908, Note_off_c, 1, 73, 127
1, 407908, Note_off_c, 1, 61, 127
1, 407908, Note_off_c, 6, 78, 127
1, 407915, Note_on_c, 12, 59, 127
1, 407915, Note_on_c, 2, 74, 127
1, 407915, Note_on_c, 6, 78, 127
1, 408076, Note_off_c, 12, 59, 127
1, 408082, Note_on_c, 11, 58, 127
1, 408243, Note_off_c, 11, 58, 127
1, 408243, Note_off_c, 6, 78, 127
1, 408249, Note_on_c, 8, 56, 127
1, 408249, Note_on_c, 5, 77, 127
1, 408575, Note_off_c, 2, 74, 127
1, 408576, Note_off_c, 5, 77, 127
1, 408576, Note_off_c, 8, 56, 127
1, 408583, Note_on_c, 1, 61, 127
1, 408583, Note_on_c, 8, 68, 127
1, 408583, Note_on_c, 4, 76, 127
1, 408744, Note_off_c, 1, 61, 127
1, 408748, Note_on_c, 12, 59, 127
1, 408909, Note_off_c, 12, 59, 127
1, 408910, Note_off_c, 4, 76, 127
1, 408910, Note_off_c, 8, 68, 127
1, 408916, Note_on_c, 1, 61, 127
1, 408916, Note_on_c, 11, 70, 127
1, 408916, Note_on_c, 1, 73, 127
1, 408916, Note_on_c, 4, 76, 127
1, 409229, Note_off_c, 6, 54, 127
1, 409244, Note_off_c, 4, 76, 127
1, 409256, Note_on_c, 3, 75, 127
1, 409256, Note_on_c, 6, 54, 127
1, 409576, Note_off_c, 1, 73, 127
1, 409576, Note_off_c, 11, 70, 127
1, 409576, Note_off_c, 1, 61, 127
1, 409589, Note_off_c, 3, 75, 127
1, 409599, Note_on_c, 2, 74, 127
1, 409599, Note_on_c, 12, 71, 127
1, 409599, Note_on_c, 6, 66, 127
1, 409599, Note_on_c, 12, 59, 127
1, 409763, Note_off_c, 12, 59, 127
1, 409770, Note_on_c, 11, 58, 127
1, 409932, Note_off_c, 6, 66, 127
1, 409932, Note_off_c, 12, 71, 127
1, 409932, Note_off_c, 2, 74, 127
1, 409933, Note_off_c, 11, 58, 127
1, 409942, Note_on_c, 2, 74, 127
1, 409942, Note_on_c, 12, 71, 127
1, 409942, Note_on_c, 6, 66, 127
1, 409942, Note_on_c, 12, 59, 127
1, 410106, Note_off_c, 6, 66, 127
1, 410106, Note_off_c, 12, 71, 127
1, 410113, Note_on_c, 10, 69, 127
1, 410275, Note_off_c, 2, 74, 127
1, 410276, Note_off_c, 10, 69, 127
1, 410285, Note_on_c, 2, 74, 127
1, 410285, Note_on_c, 8, 68, 127
1, 410445, Note_off_c, 12, 59, 127
1, 410449, Note_off_c, 8, 68, 127
1, 410458, Note_on_c, 10, 57, 127
1, 410458, Note_on_c, 6, 66, 127
1, 410631, Note_off_c, 6, 66, 127
1, 410631, Note_off_c, 10, 57, 127
1, 410644, Note_on_c, 8, 56, 127
1, 410644, Note_on_c, 5, 65, 127
1, 410789, Note_off_c, 2, 74, 127
1, 410843, Note_on_c, 2, 74, 127
1, 410997, Note_off_c, 5, 65, 127
1, 411035, Note_off_c, 2, 74, 127
1, 411045, Note_on_c, 1, 73, 127
1, 411045, Note_on_c, 12, 59, 127
1, 411237, Note_off_c, 1, 73, 127
1, 411269, Note_on_c, 12, 71, 127
1, 411278, Note_off_c, 6, 54, 127
1, 411356, Note_off_c, 8, 56, 127
1, 411459, Note_off_c, 12, 59, 127
1, 411495, Note_off_c, 12, 71, 127
1, 411544, Note_on_c, 6, 42, 127
1, 411545, Note_on_c, 6, 54, 127
1, 411545, Note_on_c, 6, 66, 127
1, 411545, Note_on_c, 11, 70, 127
1, 411545, Note_on_c, 1, 61, 127
1, 413686, Note_off_c, 6, 42, 127
1, 413687, Note_off_c, 1, 61, 127
1, 413687, Note_off_c, 11, 70, 127
1, 413687, Note_off_c, 6, 66, 127
1, 413687, Note_off_c, 6, 54, 127
1, 417024, End_track
0, 0, End_of_file
