0, 0, Header, 1, 10, 480
1, 0, Start_track
1, 0, Title_t, "untitled"
1, 0, Text_t, "CHA  1  \012"
1, 0, Text_t, "CHA  1  \012"
1, 0, Text_t, "CHA  1  \012"
1, 0, Text_t, "CHA  1  \012"
1, 0, Text_t, "CHA  1  \012"
1, 0, Text_t, "CHA  1  \012"
1, 0, SMPTE_offset, 32, 0, 3, 15, 0
1, 0, Time_signature, 4, 2, 24, 8
1, 0, Key_signature, 0, "major"
1, 0, Tempo, 750000
1, 17280, Tempo, 1090909
1, 28560, Tempo, 2000000
1, 29280, Tempo, 750000
1, 269994, Tempo, 909091
1, 411600, Tempo, 444444
1, 504247, Tempo, 666667
1, 504247, End_track
2, 0, Start_track
2, 0, MIDI_port, 0
2, 0, Title_t, "Prelude "
2, 0, Program_c, 0, 24
2, 0, Control_c, 0, 7, 100
2, 0, Control_c, 0, 10, 64
2, 120, Note_on_c, 0, 71, 100
2, 236, Note_on_c, 0, 71, 0
2, 240, Note_on_c, 0, 66, 100
2, 356, Note_on_c, 0, 66, 0
2, 360, Note_on_c, 0, 69, 100
2, 476, Note_on_c, 0, 69, 0
2, 480, Note_on_c, 0, 67, 100
2, 596, Note_on_c, 0, 67, 0
2, 600, Note_on_c, 0, 69, 100
2, 716, Note_on_c, 0, 69, 0
2, 720, Note_on_c, 0, 71, 100
2, 836, Note_on_c, 0, 71, 0
2, 840, Note_on_c, 0, 66, 100
2, 956, Note_on_c, 0, 66, 0
2, 960, Note_on_c, 0, 67, 100
2, 1076, Note_on_c, 0, 67, 0
2, 1080, Note_on_c, 0, 63, 100
2, 1196, Note_on_c, 0, 63, 0
2, 1200, Note_on_c, 0, 64, 100
2, 1316, Note_on_c, 0, 64, 0
2, 1320, Note_on_c, 0, 59, 100
2, 1436, Note_on_c, 0, 59, 0
2, 1440, Note_on_c, 0, 60, 100
2, 1556, Note_on_c, 0, 60, 0
2, 1560, Note_on_c, 0, 62, 100
2, 1676, Note_on_c, 0, 62, 0
2, 1680, Note_on_c, 0, 64, 100
2, 1796, Note_on_c, 0, 64, 0
2, 1800, Note_on_c, 0, 59, 100
2, 1916, Note_on_c, 0, 59, 0
2, 1920, Note_on_c, 0, 60, 100
2, 2036, Note_on_c, 0, 60, 0
2, 2040, Note_on_c, 0, 56, 100
2, 2156, Note_on_c, 0, 56, 0
2, 2160, Note_on_c, 0, 57, 100
2, 2276, Note_on_c, 0, 57, 0
2, 2280, Note_on_c, 0, 52, 100
2, 2396, Note_on_c, 0, 52, 0
2, 2400, Note_on_c, 0, 54, 100
2, 2516, Note_on_c, 0, 54, 0
2, 2520, Note_on_c, 0, 55, 100
2, 2636, Note_on_c, 0, 55, 0
2, 2640, Note_on_c, 0, 57, 100
2, 2756, Note_on_c, 0, 57, 0
2, 2760, Note_on_c, 0, 52, 100
2, 2876, Note_on_c, 0, 52, 0
2, 2880, Note_on_c, 0, 54, 100
2, 2996, Note_on_c, 0, 54, 0
2, 3000, Note_on_c, 0, 49, 100
2, 3116, Note_on_c, 0, 49, 0
2, 3120, Note_on_c, 0, 51, 100
2, 3236, Note_on_c, 0, 51, 0
2, 3240, Note_on_c, 0, 52, 100
2, 3356, Note_on_c, 0, 52, 0
2, 3360, Note_on_c, 0, 51, 100
2, 3476, Note_on_c, 0, 51, 0
2, 3480, Note_on_c, 0, 45, 100
2, 3596, Note_on_c, 0, 45, 0
2, 3600, Note_on_c, 0, 47, 100
2, 3716, Note_on_c, 0, 47, 0
2, 3720, Note_on_c, 0, 42, 100
2, 3836, Note_on_c, 0, 42, 0
2, 3840, Note_on_c, 0, 43, 100
2, 3956, Note_on_c, 0, 43, 0
2, 3960, Note_on_c, 0, 45, 100
2, 4076, Note_on_c, 0, 45, 0
2, 4080, Note_on_c, 0, 47, 100
2, 4196, Note_on_c, 0, 47, 0
2, 4200, Note_on_c, 0, 42, 100
2, 4316, Note_on_c, 0, 42, 0
2, 4320, Note_on_c, 0, 43, 100
2, 4436, Note_on_c, 0, 43, 0
2, 4440, Note_on_c, 0, 47, 100
2, 4556, Note_on_c, 0, 47, 0
2, 4560, Note_on_c, 0, 52, 100
2, 4676, Note_on_c, 0, 52, 0
2, 4680, Note_on_c, 0, 51, 100
2, 4796, Note_on_c, 0, 51, 0
2, 4800, Note_on_c, 0, 52, 100
2, 4916, Note_on_c, 0, 52, 0
2, 4920, Note_on_c, 0, 43, 100
2, 5036, Note_on_c, 0, 43, 0
2, 5040, Note_on_c, 0, 42, 100
2, 5156, Note_on_c, 0, 42, 0
2, 5160, Note_on_c, 0, 40, 100
2, 5276, Note_on_c, 0, 40, 0
2, 5280, Note_on_c, 0, 39, 100
2, 5396, Note_on_c, 0, 39, 0
2, 5400, Note_on_c, 0, 42, 100
2, 5516, Note_on_c, 0, 42, 0
2, 5520, Note_on_c, 0, 47, 100
2, 5636, Note_on_c, 0, 47, 0
2, 5640, Note_on_c, 0, 45, 100
2, 5756, Note_on_c, 0, 45, 0
2, 5760, Note_on_c, 0, 43, 100
2, 5876, Note_on_c, 0, 43, 0
2, 5880, Note_on_c, 0, 59, 100
2, 5996, Note_on_c, 0, 59, 0
2, 6000, Note_on_c, 0, 54, 100
2, 6116, Note_on_c, 0, 54, 0
2, 6120, Note_on_c, 0, 57, 100
2, 6236, Note_on_c, 0, 57, 0
2, 6240, Note_on_c, 0, 55, 100
2, 6356, Note_on_c, 0, 55, 0
2, 6360, Note_on_c, 0, 57, 100
2, 6476, Note_on_c, 0, 57, 0
2, 6480, Note_on_c, 0, 59, 100
2, 6596, Note_on_c, 0, 59, 0
2, 6600, Note_on_c, 0, 54, 100
2, 6716, Note_on_c, 0, 54, 0
2, 6720, Note_on_c, 0, 55, 100
2, 6836, Note_on_c, 0, 55, 0
2, 6840, Note_on_c, 0, 51, 100
2, 6956, Note_on_c, 0, 51, 0
2, 6960, Note_on_c, 0, 52, 100
2, 7076, Note_on_c, 0, 52, 0
2, 7080, Note_on_c, 0, 45, 100
2, 7196, Note_on_c, 0, 45, 0
2, 7200, Note_on_c, 0, 47, 100
2, 7236, Note_on_c, 0, 47, 0
2, 7240, Note_on_c, 0, 45, 100
2, 7276, Note_on_c, 0, 45, 0
2, 7280, Note_on_c, 0, 47, 100
2, 7316, Note_on_c, 0, 47, 0
2, 7320, Note_on_c, 0, 45, 100
2, 7356, Note_on_c, 0, 45, 0
2, 7360, Note_on_c, 0, 47, 100
2, 7396, Note_on_c, 0, 47, 0
2, 7400, Note_on_c, 0, 45, 100
2, 7436, Note_on_c, 0, 45, 0
2, 7440, Note_on_c, 0, 47, 100
2, 7476, Note_on_c, 0, 47, 0
2, 7480, Note_on_c, 0, 45, 100
2, 7516, Note_on_c, 0, 45, 0
2, 7520, Note_on_c, 0, 47, 100
2, 7556, Note_on_c, 0, 47, 0
2, 7560, Note_on_c, 0, 47, 100
2, 7676, Note_on_c, 0, 47, 0
2, 7680, Note_on_c, 0, 40, 100
2, 7916, Note_on_c, 0, 40, 0
2, 8220, Note_on_c, 0, 60, 100
2, 8276, Note_on_c, 0, 60, 0
2, 8280, Note_on_c, 0, 59, 100
2, 8336, Note_on_c, 0, 59, 0
2, 8340, Note_on_c, 0, 57, 100
2, 8396, Note_on_c, 0, 57, 0
2, 8400, Note_on_c, 0, 55, 100
2, 8456, Note_on_c, 0, 55, 0
2, 8460, Note_on_c, 0, 54, 100
2, 8516, Note_on_c, 0, 54, 0
2, 8520, Note_on_c, 0, 52, 100
2, 8560, Note_on_c, 0, 54, 100
2, 8576, Note_on_c, 0, 52, 0
2, 8596, Note_on_c, 0, 54, 0
2, 8600, Note_on_c, 0, 51, 100
2, 8636, Note_on_c, 0, 51, 0
2, 8640, Note_on_c, 0, 40, 100
2, 8640, Note_on_c, 0, 43, 100
2, 8640, Note_on_c, 0, 47, 100
2, 8640, Note_on_c, 0, 52, 100
2, 8696, Note_on_c, 0, 52, 0
2, 8700, Note_on_c, 0, 51, 100
2, 8756, Note_on_c, 0, 51, 0
2, 8760, Note_on_c, 0, 52, 100
2, 9116, Note_on_c, 0, 52, 0
2, 9116, Note_on_c, 0, 40, 0
2, 9116, Note_on_c, 0, 43, 0
2, 9116, Note_on_c, 0, 47, 0
2, 9240, Note_on_c, 0, 67, 100
2, 9356, Note_on_c, 0, 67, 0
2, 9360, Note_on_c, 0, 66, 100
2, 9396, Note_on_c, 0, 66, 0
2, 9400, Note_on_c, 0, 67, 100
2, 9436, Note_on_c, 0, 67, 0
2, 9440, Note_on_c, 0, 66, 100
2, 9476, Note_on_c, 0, 66, 0
2, 9480, Note_on_c, 0, 67, 100
2, 9536, Note_on_c, 0, 67, 0
2, 9540, Note_on_c, 0, 69, 100
2, 9596, Note_on_c, 0, 69, 0
2, 9600, Note_on_c, 0, 63, 100
2, 9956, Note_on_c, 0, 63, 0
2, 9960, Note_on_c, 0, 54, 100
2, 9960, Note_on_c, 0, 57, 100
2, 9960, Note_on_c, 0, 63, 100
2, 10076, Note_on_c, 0, 63, 0
2, 10076, Note_on_c, 0, 57, 0
2, 10076, Note_on_c, 0, 54, 0
2, 10080, Note_on_c, 0, 54, 100
2, 10080, Note_on_c, 0, 57, 100
2, 10080, Note_on_c, 0, 63, 100
2, 10436, Note_on_c, 0, 63, 0
2, 10436, Note_on_c, 0, 57, 0
2, 10436, Note_on_c, 0, 54, 0
2, 10440, Note_on_c, 0, 54, 100
2, 10440, Note_on_c, 0, 57, 100
2, 10440, Note_on_c, 0, 63, 100
2, 10556, Note_on_c, 0, 63, 0
2, 10556, Note_on_c, 0, 57, 0
2, 10556, Note_on_c, 0, 54, 0
2, 10560, Note_on_c, 0, 40, 100
2, 10560, Note_on_c, 0, 47, 100
2, 10560, Note_on_c, 0, 52, 100
2, 10560, Note_on_c, 0, 55, 100
2, 10560, Note_on_c, 0, 59, 100
2, 10560, Note_on_c, 0, 64, 100
2, 11036, Note_on_c, 0, 64, 0
2, 11036, Note_on_c, 0, 47, 0
2, 11036, Note_on_c, 0, 52, 0
2, 11036, Note_on_c, 0, 40, 0
2, 11036, Note_on_c, 0, 59, 0
2, 11036, Note_on_c, 0, 55, 0
2, 11160, Note_on_c, 0, 66, 100
2, 11276, Note_on_c, 0, 66, 0
2, 11280, Note_on_c, 0, 64, 100
2, 11396, Note_on_c, 0, 64, 0
2, 11400, Note_on_c, 0, 62, 100
2, 11516, Note_on_c, 0, 62, 0
2, 11520, Note_on_c, 0, 61, 100
2, 11636, Note_on_c, 0, 61, 0
2, 11640, Note_on_c, 0, 62, 100
2, 11756, Note_on_c, 0, 62, 0
2, 11760, Note_on_c, 0, 64, 100
2, 11876, Note_on_c, 0, 64, 0
2, 11880, Note_on_c, 0, 62, 100
2, 11996, Note_on_c, 0, 62, 0
2, 12000, Note_on_c, 0, 61, 100
2, 12116, Note_on_c, 0, 61, 0
2, 12120, Note_on_c, 0, 59, 100
2, 12236, Note_on_c, 0, 59, 0
2, 12240, Note_on_c, 0, 58, 100
2, 12356, Note_on_c, 0, 58, 0
2, 12360, Note_on_c, 0, 59, 100
2, 12476, Note_on_c, 0, 59, 0
2, 12480, Note_on_c, 0, 58, 100
2, 12836, Note_on_c, 0, 58, 0
2, 12840, Note_on_c, 0, 40, 100
2, 12840, Note_on_c, 0, 49, 100
2, 12840, Note_on_c, 0, 54, 100
2, 12840, Note_on_c, 0, 58, 100
2, 12956, Note_on_c, 0, 58, 0
2, 12956, Note_on_c, 0, 40, 0
2, 12956, Note_on_c, 0, 49, 0
2, 12956, Note_on_c, 0, 54, 0
2, 12960, Note_on_c, 0, 40, 100
2, 12960, Note_on_c, 0, 49, 100
2, 12960, Note_on_c, 0, 54, 100
2, 12960, Note_on_c, 0, 58, 100
2, 13316, Note_on_c, 0, 58, 0
2, 13316, Note_on_c, 0, 40, 0
2, 13316, Note_on_c, 0, 49, 0
2, 13316, Note_on_c, 0, 54, 0
2, 13320, Note_on_c, 0, 40, 100
2, 13320, Note_on_c, 0, 49, 100
2, 13320, Note_on_c, 0, 54, 100
2, 13320, Note_on_c, 0, 58, 100
2, 13436, Note_on_c, 0, 58, 0
2, 13436, Note_on_c, 0, 40, 0
2, 13436, Note_on_c, 0, 49, 0
2, 13436, Note_on_c, 0, 54, 0
2, 13440, Note_on_c, 0, 38, 100
2, 13440, Note_on_c, 0, 47, 100
2, 13440, Note_on_c, 0, 50, 100
2, 13440, Note_on_c, 0, 54, 100
2, 13440, Note_on_c, 0, 59, 100
2, 13916, Note_on_c, 0, 59, 0
2, 13916, Note_on_c, 0, 50, 0
2, 13916, Note_on_c, 0, 38, 0
2, 13916, Note_on_c, 0, 47, 0
2, 13916, Note_on_c, 0, 54, 0
2, 14040, Note_on_c, 0, 66, 100
2, 14156, Note_on_c, 0, 66, 0
2, 14160, Note_on_c, 0, 61, 100
2, 14276, Note_on_c, 0, 61, 0
2, 14280, Note_on_c, 0, 64, 100
2, 14396, Note_on_c, 0, 64, 0
2, 14400, Note_on_c, 0, 62, 100
2, 14516, Note_on_c, 0, 62, 0
2, 14520, Note_on_c, 0, 64, 100
2, 14636, Note_on_c, 0, 64, 0
2, 14640, Note_on_c, 0, 66, 100
2, 14756, Note_on_c, 0, 66, 0
2, 14760, Note_on_c, 0, 61, 100
2, 14876, Note_on_c, 0, 61, 0
2, 14880, Note_on_c, 0, 62, 100
2, 14996, Note_on_c, 0, 62, 0
2, 15000, Note_on_c, 0, 58, 100
2, 15116, Note_on_c, 0, 58, 0
2, 15120, Note_on_c, 0, 59, 100
2, 15236, Note_on_c, 0, 59, 0
2, 15240, Note_on_c, 0, 61, 100
2, 15296, Note_on_c, 0, 61, 0
2, 15300, Note_on_c, 0, 62, 100
2, 15356, Note_on_c, 0, 62, 0
2, 15360, Note_on_c, 0, 56, 100
2, 15716, Note_on_c, 0, 56, 0
2, 15720, Note_on_c, 0, 40, 100
2, 15720, Note_on_c, 0, 47, 100
2, 15720, Note_on_c, 0, 52, 100
2, 15720, Note_on_c, 0, 56, 100
2, 15836, Note_on_c, 0, 56, 0
2, 15836, Note_on_c, 0, 40, 0
2, 15836, Note_on_c, 0, 47, 0
2, 15836, Note_on_c, 0, 52, 0
2, 15840, Note_on_c, 0, 40, 100
2, 15840, Note_on_c, 0, 47, 100
2, 15840, Note_on_c, 0, 50, 100
2, 15840, Note_on_c, 0, 56, 100
2, 16196, Note_on_c, 0, 56, 0
2, 16196, Note_on_c, 0, 40, 0
2, 16196, Note_on_c, 0, 47, 0
2, 16196, Note_on_c, 0, 50, 0
2, 16200, Note_on_c, 0, 40, 100
2, 16200, Note_on_c, 0, 47, 100
2, 16200, Note_on_c, 0, 50, 100
2, 16200, Note_on_c, 0, 56, 100
2, 16316, Note_on_c, 0, 56, 0
2, 16316, Note_on_c, 0, 40, 0
2, 16316, Note_on_c, 0, 47, 0
2, 16316, Note_on_c, 0, 50, 0
2, 16320, Note_on_c, 0, 36, 100
2, 16320, Note_on_c, 0, 48, 100
2, 16320, Note_on_c, 0, 52, 100
2, 16320, Note_on_c, 0, 57, 100
2, 16796, Note_on_c, 0, 57, 0
2, 16796, Note_on_c, 0, 36, 0
2, 16796, Note_on_c, 0, 48, 0
2, 16796, Note_on_c, 0, 52, 0
2, 16800, Note_on_c, 0, 69, 100
2, 16856, Note_on_c, 0, 69, 0
2, 16860, Note_on_c, 0, 67, 100
2, 16916, Note_on_c, 0, 67, 0
2, 16920, Note_on_c, 0, 65, 100
2, 16976, Note_on_c, 0, 65, 0
2, 16980, Note_on_c, 0, 64, 100
2, 17036, Note_on_c, 0, 64, 0
2, 17040, Note_on_c, 0, 62, 100
2, 17096, Note_on_c, 0, 62, 0
2, 17100, Note_on_c, 0, 60, 100
2, 17156, Note_on_c, 0, 60, 0
2, 17160, Note_on_c, 0, 59, 100
2, 17216, Note_on_c, 0, 59, 0
2, 17220, Note_on_c, 0, 57, 100
2, 17276, Note_on_c, 0, 57, 0
2, 17280, Note_on_c, 0, 62, 100
2, 17636, Note_on_c, 0, 62, 0
2, 17640, Note_on_c, 0, 44, 100
2, 17640, Note_on_c, 0, 52, 100
2, 17640, Note_on_c, 0, 59, 100
2, 17640, Note_on_c, 0, 62, 100
2, 17756, Note_on_c, 0, 62, 0
2, 17756, Note_on_c, 0, 44, 0
2, 17756, Note_on_c, 0, 52, 0
2, 17756, Note_on_c, 0, 59, 0
2, 17760, Note_on_c, 0, 44, 100
2, 17760, Note_on_c, 0, 52, 100
2, 17760, Note_on_c, 0, 59, 100
2, 17760, Note_on_c, 0, 62, 100
2, 18116, Note_on_c, 0, 62, 0
2, 18116, Note_on_c, 0, 44, 0
2, 18116, Note_on_c, 0, 52, 0
2, 18116, Note_on_c, 0, 59, 0
2, 18120, Note_on_c, 0, 44, 100
2, 18120, Note_on_c, 0, 52, 100
2, 18120, Note_on_c, 0, 59, 100
2, 18120, Note_on_c, 0, 62, 100
2, 18236, Note_on_c, 0, 62, 0
2, 18236, Note_on_c, 0, 44, 0
2, 18236, Note_on_c, 0, 52, 0
2, 18236, Note_on_c, 0, 59, 0
2, 18240, Note_on_c, 0, 45, 100
2, 18240, Note_on_c, 0, 52, 100
2, 18240, Note_on_c, 0, 57, 100
2, 18240, Note_on_c, 0, 61, 100
2, 18276, Note_on_c, 0, 61, 0
2, 18280, Note_on_c, 0, 62, 100
2, 18316, Note_on_c, 0, 62, 0
2, 18320, Note_on_c, 0, 61, 100
2, 18356, Note_on_c, 0, 61, 0
2, 18360, Note_on_c, 0, 62, 100
2, 18396, Note_on_c, 0, 62, 0
2, 18440, Note_on_c, 0, 61, 100
2, 18476, Note_on_c, 0, 61, 0
2, 18480, Note_on_c, 0, 62, 100
2, 18516, Note_on_c, 0, 62, 0
2, 18540, Note_on_c, 0, 61, 100
2, 18716, Note_on_c, 0, 61, 0
2, 18716, Note_on_c, 0, 45, 0
2, 18716, Note_on_c, 0, 52, 0
2, 18716, Note_on_c, 0, 57, 0
2, 18720, Note_on_c, 0, 52, 100
2, 18776, Note_on_c, 0, 52, 0
2, 18780, Note_on_c, 0, 54, 100
2, 18836, Note_on_c, 0, 54, 0
2, 18840, Note_on_c, 0, 56, 100
2, 18896, Note_on_c, 0, 56, 0
2, 18900, Note_on_c, 0, 57, 100
2, 18956, Note_on_c, 0, 57, 0
2, 18960, Note_on_c, 0, 59, 100
2, 19016, Note_on_c, 0, 59, 0
2, 19020, Note_on_c, 0, 60, 100
2, 19076, Note_on_c, 0, 60, 0
2, 19080, Note_on_c, 0, 62, 100
2, 19120, Note_on_c, 0, 64, 100
2, 19136, Note_on_c, 0, 62, 0
2, 19156, Note_on_c, 0, 64, 0
2, 19160, Note_on_c, 0, 59, 100
2, 19196, Note_on_c, 0, 59, 0
2, 19200, Note_on_c, 0, 45, 100
2, 19200, Note_on_c, 0, 52, 100
2, 19200, Note_on_c, 0, 57, 100
2, 19200, Note_on_c, 0, 60, 100
2, 19556, Note_on_c, 0, 60, 0
2, 19556, Note_on_c, 0, 45, 0
2, 19556, Note_on_c, 0, 52, 0
2, 19556, Note_on_c, 0, 57, 0
2, 19560, Note_on_c, 0, 45, 100
2, 19560, Note_on_c, 0, 52, 100
2, 19560, Note_on_c, 0, 57, 100
2, 19560, Note_on_c, 0, 60, 100
2, 19676, Note_on_c, 0, 60, 0
2, 19676, Note_on_c, 0, 45, 0
2, 19676, Note_on_c, 0, 52, 0
2, 19676, Note_on_c, 0, 57, 0
2, 19680, Note_on_c, 0, 45, 100
2, 19680, Note_on_c, 0, 57, 100
2, 19680, Note_on_c, 0, 60, 100
2, 19680, Note_on_c, 0, 65, 100
2, 20036, Note_on_c, 0, 65, 0
2, 20036, Note_on_c, 0, 45, 0
2, 20036, Note_on_c, 0, 57, 0
2, 20036, Note_on_c, 0, 60, 0
2, 20040, Note_on_c, 0, 45, 100
2, 20040, Note_on_c, 0, 55, 100
2, 20040, Note_on_c, 0, 60, 100
2, 20040, Note_on_c, 0, 64, 100
2, 20156, Note_on_c, 0, 64, 0
2, 20156, Note_on_c, 0, 45, 0
2, 20156, Note_on_c, 0, 55, 0
2, 20156, Note_on_c, 0, 60, 0
2, 20160, Note_on_c, 0, 45, 100
2, 20160, Note_on_c, 0, 54, 100
2, 20160, Note_on_c, 0, 59, 100
2, 20160, Note_on_c, 0, 63, 100
2, 20636, Note_on_c, 0, 63, 0
2, 20636, Note_on_c, 0, 45, 0
2, 20636, Note_on_c, 0, 54, 0
2, 20636, Note_on_c, 0, 59, 0
2, 20640, Note_on_c, 0, 43, 100
2, 20640, Note_on_c, 0, 52, 100
2, 20640, Note_on_c, 0, 59, 100
2, 20640, Note_on_c, 0, 64, 100
2, 20876, Note_on_c, 0, 59, 0
2, 20876, Note_on_c, 0, 43, 0
2, 20876, Note_on_c, 0, 52, 0
2, 20996, Note_on_c, 0, 64, 0
2, 21000, Note_on_c, 0, 62, 100
2, 21036, Note_on_c, 0, 62, 0
2, 21040, Note_on_c, 0, 60, 100
2, 21076, Note_on_c, 0, 60, 0
2, 21080, Note_on_c, 0, 59, 100
2, 21116, Note_on_c, 0, 59, 0
2, 21120, Note_on_c, 0, 43, 100
2, 21120, Note_on_c, 0, 52, 100
2, 21120, Note_on_c, 0, 57, 100
2, 21120, Note_on_c, 0, 61, 100
2, 21356, Note_on_c, 0, 57, 0
2, 21356, Note_on_c, 0, 43, 0
2, 21356, Note_on_c, 0, 52, 0
2, 21476, Note_on_c, 0, 61, 0
2, 21480, Note_on_c, 0, 69, 100
2, 21536, Note_on_c, 0, 69, 0
2, 21540, Note_on_c, 0, 61, 100
2, 21596, Note_on_c, 0, 61, 0
2, 21600, Note_on_c, 0, 63, 100
2, 21840, Note_on_c, 0, 42, 100
2, 21840, Note_on_c, 0, 54, 100
2, 21840, Note_on_c, 0, 57, 100
2, 21956, Note_on_c, 0, 63, 0
2, 21960, Note_on_c, 0, 63, 100
2, 22076, Note_on_c, 0, 63, 0
2, 22076, Note_on_c, 0, 57, 0
2, 22076, Note_on_c, 0, 54, 0
2, 22076, Note_on_c, 0, 42, 0
2, 22080, Note_on_c, 0, 43, 100
2, 22080, Note_on_c, 0, 52, 100
2, 22080, Note_on_c, 0, 59, 100
2, 22080, Note_on_c, 0, 64, 100
2, 22436, Note_on_c, 0, 64, 0
2, 22440, Note_on_c, 0, 64, 100
2, 22476, Note_on_c, 0, 64, 0
2, 22480, Note_on_c, 0, 62, 100
2, 22516, Note_on_c, 0, 62, 0
2, 22520, Note_on_c, 0, 60, 100
2, 22556, Note_on_c, 0, 60, 0
2, 22556, Note_on_c, 0, 59, 0
2, 22556, Note_on_c, 0, 52, 0
2, 22556, Note_on_c, 0, 43, 0
2, 22560, Note_on_c, 0, 59, 100
2, 22596, Note_on_c, 0, 59, 0
2, 22600, Note_on_c, 0, 60, 100
2, 22636, Note_on_c, 0, 60, 0
2, 22640, Note_on_c, 0, 59, 100
2, 22676, Note_on_c, 0, 59, 0
2, 22680, Note_on_c, 0, 60, 100
2, 22716, Note_on_c, 0, 60, 0
2, 22740, Note_on_c, 0, 59, 100
2, 22916, Note_on_c, 0, 59, 0
2, 22920, Note_on_c, 0, 59, 100
2, 23036, Note_on_c, 0, 59, 0
2, 23040, Note_on_c, 0, 39, 100
2, 23040, Note_on_c, 0, 47, 100
2, 23040, Note_on_c, 0, 54, 100
2, 23040, Note_on_c, 0, 57, 100
2, 23040, Note_on_c, 0, 59, 100
2, 23396, Note_on_c, 0, 59, 0
2, 23400, Note_on_c, 0, 66, 100
2, 23456, Note_on_c, 0, 66, 0
2, 23460, Note_on_c, 0, 59, 100
2, 23516, Note_on_c, 0, 59, 0
2, 23516, Note_on_c, 0, 54, 0
2, 23516, Note_on_c, 0, 39, 0
2, 23516, Note_on_c, 0, 47, 0
2, 23516, Note_on_c, 0, 57, 0
2, 23520, Note_on_c, 0, 59, 100
2, 23556, Note_on_c, 0, 59, 0
2, 23560, Note_on_c, 0, 60, 100
2, 23596, Note_on_c, 0, 60, 0
2, 23600, Note_on_c, 0, 59, 100
2, 23636, Note_on_c, 0, 59, 0
2, 23640, Note_on_c, 0, 60, 100
2, 23676, Note_on_c, 0, 60, 0
2, 23700, Note_on_c, 0, 59, 100
2, 23760, Note_on_c, 0, 39, 100
2, 23760, Note_on_c, 0, 47, 100
2, 23760, Note_on_c, 0, 54, 100
2, 23876, Note_on_c, 0, 59, 0
2, 23880, Note_on_c, 0, 59, 100
2, 23996, Note_on_c, 0, 59, 0
2, 23996, Note_on_c, 0, 54, 0
2, 23996, Note_on_c, 0, 47, 0
2, 23996, Note_on_c, 0, 39, 0
2, 24000, Note_on_c, 0, 40, 100
2, 24000, Note_on_c, 0, 47, 100
2, 24000, Note_on_c, 0, 52, 100
2, 24000, Note_on_c, 0, 55, 100
2, 24000, Note_on_c, 0, 59, 100
2, 24356, Note_on_c, 0, 59, 0
2, 24360, Note_on_c, 0, 67, 100
2, 24416, Note_on_c, 0, 67, 0
2, 24420, Note_on_c, 0, 59, 100
2, 24476, Note_on_c, 0, 59, 0
2, 24476, Note_on_c, 0, 52, 0
2, 24476, Note_on_c, 0, 40, 0
2, 24476, Note_on_c, 0, 47, 0
2, 24476, Note_on_c, 0, 55, 0
2, 24480, Note_on_c, 0, 59, 100
2, 24516, Note_on_c, 0, 59, 0
2, 24520, Note_on_c, 0, 60, 100
2, 24556, Note_on_c, 0, 60, 0
2, 24560, Note_on_c, 0, 59, 100
2, 24596, Note_on_c, 0, 59, 0
2, 24600, Note_on_c, 0, 60, 100
2, 24636, Note_on_c, 0, 60, 0
2, 24660, Note_on_c, 0, 59, 100
2, 24720, Note_on_c, 0, 40, 100
2, 24720, Note_on_c, 0, 52, 100
2, 24720, Note_on_c, 0, 55, 100
2, 24836, Note_on_c, 0, 59, 0
2, 24840, Note_on_c, 0, 59, 100
2, 24956, Note_on_c, 0, 59, 0
2, 24956, Note_on_c, 0, 55, 0
2, 24956, Note_on_c, 0, 52, 0
2, 24956, Note_on_c, 0, 40, 0
2, 24960, Note_on_c, 0, 40, 100
2, 24960, Note_on_c, 0, 49, 100
2, 24960, Note_on_c, 0, 54, 100
2, 24960, Note_on_c, 0, 58, 100
2, 25316, Note_on_c, 0, 58, 0
2, 25320, Note_on_c, 0, 58, 100
2, 25436, Note_on_c, 0, 58, 0
2, 25436, Note_on_c, 0, 54, 0
2, 25436, Note_on_c, 0, 49, 0
2, 25436, Note_on_c, 0, 40, 0
2, 25440, Note_on_c, 0, 38, 100
2, 25440, Note_on_c, 0, 54, 100
2, 25440, Note_on_c, 0, 59, 100
2, 25560, Note_on_c, 0, 71, 100
2, 25596, Note_on_c, 0, 71, 0
2, 25600, Note_on_c, 0, 69, 100
2, 25636, Note_on_c, 0, 69, 0
2, 25660, Note_on_c, 0, 67, 100
2, 25676, Note_on_c, 0, 59, 0
2, 25676, Note_on_c, 0, 38, 0
2, 25676, Note_on_c, 0, 54, 0
2, 25696, Note_on_c, 0, 67, 0
2, 25720, Note_on_c, 0, 66, 100
2, 25756, Note_on_c, 0, 66, 0
2, 25760, Note_on_c, 0, 64, 100
2, 25796, Note_on_c, 0, 64, 0
2, 25800, Note_on_c, 0, 62, 100
2, 25836, Note_on_c, 0, 62, 0
2, 25840, Note_on_c, 0, 61, 100
2, 25876, Note_on_c, 0, 61, 0
2, 25880, Note_on_c, 0, 59, 100
2, 25916, Note_on_c, 0, 59, 0
2, 25920, Note_on_c, 0, 64, 100
2, 26220, Note_on_c, 0, 56, 100
2, 26276, Note_on_c, 0, 56, 0
2, 26276, Note_on_c, 0, 64, 0
2, 26280, Note_on_c, 0, 50, 100
2, 26280, Note_on_c, 0, 57, 100
2, 26336, Note_on_c, 0, 57, 0
2, 26340, Note_on_c, 0, 59, 100
2, 26396, Note_on_c, 0, 59, 0
2, 26396, Note_on_c, 0, 50, 0
2, 26400, Note_on_c, 0, 48, 100
2, 26400, Note_on_c, 0, 52, 100
2, 26400, Note_on_c, 0, 57, 100
2, 26756, Note_on_c, 0, 57, 0
2, 26756, Note_on_c, 0, 52, 0
2, 26760, Note_on_c, 0, 54, 100
2, 26760, Note_on_c, 0, 57, 100
2, 26876, Note_on_c, 0, 57, 0
2, 26876, Note_on_c, 0, 54, 0
2, 26876, Note_on_c, 0, 48, 0
2, 26880, Note_on_c, 0, 47, 100
2, 26880, Note_on_c, 0, 52, 100
2, 26880, Note_on_c, 0, 55, 100
2, 26880, Note_on_c, 0, 59, 100
2, 27236, Note_on_c, 0, 55, 0
2, 27236, Note_on_c, 0, 52, 0
2, 27240, Note_on_c, 0, 54, 100
2, 27356, Note_on_c, 0, 54, 0
2, 27360, Note_on_c, 0, 52, 100
2, 27360, Note_on_c, 0, 55, 100
2, 27596, Note_on_c, 0, 59, 0
2, 27716, Note_on_c, 0, 55, 0
2, 27716, Note_on_c, 0, 52, 0
2, 27720, Note_on_c, 0, 52, 100
2, 27720, Note_on_c, 0, 58, 100
2, 27720, Note_on_c, 0, 61, 100
2, 27836, Note_on_c, 0, 61, 0
2, 27836, Note_on_c, 0, 47, 0
2, 27836, Note_on_c, 0, 52, 0
2, 27836, Note_on_c, 0, 58, 0
2, 27840, Note_on_c, 0, 47, 100
2, 27840, Note_on_c, 0, 54, 100
2, 27840, Note_on_c, 0, 59, 100
2, 27840, Note_on_c, 0, 63, 100
2, 28196, Note_on_c, 0, 63, 0
2, 28196, Note_on_c, 0, 59, 0
2, 28196, Note_on_c, 0, 54, 0
2, 28200, Note_on_c, 0, 54, 100
2, 28200, Note_on_c, 0, 59, 100
2, 28200, Note_on_c, 0, 63, 100
2, 28316, Note_on_c, 0, 63, 0
2, 28316, Note_on_c, 0, 59, 0
2, 28316, Note_on_c, 0, 54, 0
2, 28320, Note_on_c, 0, 55, 100
2, 28320, Note_on_c, 0, 59, 100
2, 28320, Note_on_c, 0, 64, 100
2, 28676, Note_on_c, 0, 64, 0
2, 28676, Note_on_c, 0, 59, 0
2, 28676, Note_on_c, 0, 55, 0
2, 28680, Note_on_c, 0, 52, 100
2, 28680, Note_on_c, 0, 59, 100
2, 28680, Note_on_c, 0, 66, 100
2, 28736, Note_on_c, 0, 66, 0
2, 28740, Note_on_c, 0, 67, 100
2, 28796, Note_on_c, 0, 67, 0
2, 28796, Note_on_c, 0, 59, 0
2, 28796, Note_on_c, 0, 52, 0
2, 28796, Note_on_c, 0, 47, 0
2, 28800, Note_on_c, 0, 47, 100
2, 28800, Note_on_c, 0, 51, 100
2, 28800, Note_on_c, 0, 59, 100
2, 28800, Note_on_c, 0, 66, 100
2, 29276, Note_on_c, 0, 66, 0
2, 29276, Note_on_c, 0, 47, 0
2, 29276, Note_on_c, 0, 51, 0
2, 29276, Note_on_c, 0, 59, 0
2, 29280, Note_on_c, 0, 66, 100
2, 29516, Note_on_c, 0, 66, 0
2, 29520, Note_on_c, 0, 71, 100
2, 29756, Note_on_c, 0, 71, 0
2, 29760, Note_on_c, 0, 71, 100
2, 29996, Note_on_c, 0, 71, 0
2, 30000, Note_on_c, 0, 59, 100
2, 30000, Note_on_c, 0, 69, 100
2, 30236, Note_on_c, 0, 69, 0
2, 30236, Note_on_c, 0, 59, 0
2, 30240, Note_on_c, 0, 64, 100
2, 30240, Note_on_c, 0, 67, 100
2, 30476, Note_on_c, 0, 67, 0
2, 30476, Note_on_c, 0, 64, 0
2, 30480, Note_on_c, 0, 64, 100
2, 30480, Note_on_c, 0, 67, 100
2, 30596, Note_on_c, 0, 67, 0
2, 30600, Note_on_c, 0, 66, 100
2, 30716, Note_on_c, 0, 66, 0
2, 30716, Note_on_c, 0, 64, 0
2, 30720, Note_on_c, 0, 62, 100
2, 30720, Note_on_c, 0, 67, 100
2, 30836, Note_on_c, 0, 67, 0
2, 30840, Note_on_c, 0, 64, 100
2, 30956, Note_on_c, 0, 64, 0
2, 30956, Note_on_c, 0, 62, 0
2, 30960, Note_on_c, 0, 60, 100
2, 30960, Note_on_c, 0, 69, 100
2, 31196, Note_on_c, 0, 69, 0
2, 31196, Note_on_c, 0, 60, 0
2, 31200, Note_on_c, 0, 60, 100
2, 31200, Note_on_c, 0, 69, 100
2, 31316, Note_on_c, 0, 60, 0
2, 31320, Note_on_c, 0, 59, 100
2, 31436, Note_on_c, 0, 59, 0
2, 31436, Note_on_c, 0, 69, 0
2, 31440, Note_on_c, 0, 60, 100
2, 31440, Note_on_c, 0, 67, 100
2, 31556, Note_on_c, 0, 60, 0
2, 31560, Note_on_c, 0, 57, 100
2, 31676, Note_on_c, 0, 57, 0
2, 31676, Note_on_c, 0, 67, 0
2, 31680, Note_on_c, 0, 62, 100
2, 31680, Note_on_c, 0, 66, 100
2, 31916, Note_on_c, 0, 66, 0
2, 31916, Note_on_c, 0, 62, 0
2, 31920, Note_on_c, 0, 62, 100
2, 31920, Note_on_c, 0, 66, 100
2, 32036, Note_on_c, 0, 66, 0
2, 32040, Note_on_c, 0, 64, 100
2, 32156, Note_on_c, 0, 64, 0
2, 32156, Note_on_c, 0, 62, 0
2, 32160, Note_on_c, 0, 60, 100
2, 32160, Note_on_c, 0, 66, 100
2, 32276, Note_on_c, 0, 66, 0
2, 32280, Note_on_c, 0, 62, 100
2, 32396, Note_on_c, 0, 62, 0
2, 32396, Note_on_c, 0, 60, 0
2, 32400, Note_on_c, 0, 59, 100
2, 32400, Note_on_c, 0, 67, 100
2, 32636, Note_on_c, 0, 67, 0
2, 32636, Note_on_c, 0, 59, 0
2, 32640, Note_on_c, 0, 59, 100
2, 32640, Note_on_c, 0, 67, 100
2, 32756, Note_on_c, 0, 59, 0
2, 32760, Note_on_c, 0, 57, 100
2, 32876, Note_on_c, 0, 57, 0
2, 32876, Note_on_c, 0, 67, 0
2, 32880, Note_on_c, 0, 59, 100
2, 32880, Note_on_c, 0, 66, 100
2, 32996, Note_on_c, 0, 59, 0
2, 33000, Note_on_c, 0, 55, 100
2, 33116, Note_on_c, 0, 55, 0
2, 33116, Note_on_c, 0, 66, 0
2, 33120, Note_on_c, 0, 60, 100
2, 33120, Note_on_c, 0, 64, 100
2, 33356, Note_on_c, 0, 64, 0
2, 33356, Note_on_c, 0, 60, 0
2, 33360, Note_on_c, 0, 60, 100
2, 33360, Note_on_c, 0, 69, 100
2, 33476, Note_on_c, 0, 60, 0
2, 33480, Note_on_c, 0, 59, 100
2, 33596, Note_on_c, 0, 59, 0
2, 33600, Note_on_c, 0, 60, 100
2, 33716, Note_on_c, 0, 60, 0
2, 33720, Note_on_c, 0, 57, 100
2, 33836, Note_on_c, 0, 57, 0
2, 33840, Note_on_c, 0, 59, 100
2, 34076, Note_on_c, 0, 59, 0
2, 34076, Note_on_c, 0, 69, 0
2, 34080, Note_on_c, 0, 64, 100
2, 34080, Note_on_c, 0, 67, 100
2, 34196, Note_on_c, 0, 67, 0
2, 34200, Note_on_c, 0, 66, 100
2, 34316, Note_on_c, 0, 66, 0
2, 34316, Note_on_c, 0, 64, 0
2, 34320, Note_on_c, 0, 52, 100
2, 34320, Note_on_c, 0, 64, 100
2, 34320, Note_on_c, 0, 67, 100
2, 34556, Note_on_c, 0, 67, 0
2, 34556, Note_on_c, 0, 52, 0
2, 34560, Note_on_c, 0, 59, 100
2, 34560, Note_on_c, 0, 66, 100
2, 34796, Note_on_c, 0, 59, 0
2, 34796, Note_on_c, 0, 64, 0
2, 34800, Note_on_c, 0, 59, 100
2, 34800, Note_on_c, 0, 63, 100
2, 34916, Note_on_c, 0, 63, 0
2, 34920, Note_on_c, 0, 61, 100
2, 35036, Note_on_c, 0, 61, 0
2, 35036, Note_on_c, 0, 59, 0
2, 35040, Note_on_c, 0, 57, 100
2, 35040, Note_on_c, 0, 63, 100
2, 35276, Note_on_c, 0, 63, 0
2, 35276, Note_on_c, 0, 57, 0
2, 35276, Note_on_c, 0, 66, 0
2, 35280, Note_on_c, 0, 55, 100
2, 35280, Note_on_c, 0, 64, 100
2, 35516, Note_on_c, 0, 64, 0
2, 35516, Note_on_c, 0, 55, 0
2, 35520, Note_on_c, 0, 55, 100
2, 35520, Note_on_c, 0, 64, 100
2, 35636, Note_on_c, 0, 55, 0
2, 35640, Note_on_c, 0, 54, 100
2, 35756, Note_on_c, 0, 54, 0
2, 35756, Note_on_c, 0, 64, 0
2, 35760, Note_on_c, 0, 55, 100
2, 35760, Note_on_c, 0, 62, 100
2, 35876, Note_on_c, 0, 55, 0
2, 35880, Note_on_c, 0, 52, 100
2, 35996, Note_on_c, 0, 52, 0
2, 35996, Note_on_c, 0, 62, 0
2, 36000, Note_on_c, 0, 57, 100
2, 36000, Note_on_c, 0, 61, 100
2, 36236, Note_on_c, 0, 61, 0
2, 36236, Note_on_c, 0, 57, 0
2, 36240, Note_on_c, 0, 57, 100
2, 36240, Note_on_c, 0, 61, 100
2, 36356, Note_on_c, 0, 61, 0
2, 36360, Note_on_c, 0, 59, 100
2, 36476, Note_on_c, 0, 59, 0
2, 36476, Note_on_c, 0, 57, 0
2, 36480, Note_on_c, 0, 55, 100
2, 36480, Note_on_c, 0, 61, 100
2, 36596, Note_on_c, 0, 61, 0
2, 36600, Note_on_c, 0, 57, 100
2, 36716, Note_on_c, 0, 57, 0
2, 36716, Note_on_c, 0, 55, 0
2, 36720, Note_on_c, 0, 54, 100
2, 36720, Note_on_c, 0, 62, 100
2, 36956, Note_on_c, 0, 62, 0
2, 36956, Note_on_c, 0, 54, 0
2, 36960, Note_on_c, 0, 54, 100
2, 36960, Note_on_c, 0, 62, 100
2, 37076, Note_on_c, 0, 54, 0
2, 37080, Note_on_c, 0, 52, 100
2, 37196, Note_on_c, 0, 52, 0
2, 37196, Note_on_c, 0, 62, 0
2, 37200, Note_on_c, 0, 54, 100
2, 37200, Note_on_c, 0, 60, 100
2, 37316, Note_on_c, 0, 54, 0
2, 37320, Note_on_c, 0, 50, 100
2, 37436, Note_on_c, 0, 50, 0
2, 37436, Note_on_c, 0, 60, 0
2, 37440, Note_on_c, 0, 55, 100
2, 37440, Note_on_c, 0, 59, 100
2, 37676, Note_on_c, 0, 59, 0
2, 37676, Note_on_c, 0, 55, 0
2, 37680, Note_on_c, 0, 55, 100
2, 37680, Note_on_c, 0, 64, 100
2, 37796, Note_on_c, 0, 55, 0
2, 37800, Note_on_c, 0, 54, 100
2, 37916, Note_on_c, 0, 54, 0
2, 37920, Note_on_c, 0, 55, 100
2, 38036, Note_on_c, 0, 55, 0
2, 38040, Note_on_c, 0, 52, 100
2, 38156, Note_on_c, 0, 52, 0
2, 38160, Note_on_c, 0, 54, 100
2, 38396, Note_on_c, 0, 54, 0
2, 38396, Note_on_c, 0, 64, 0
2, 38400, Note_on_c, 0, 59, 100
2, 38400, Note_on_c, 0, 62, 100
2, 38516, Note_on_c, 0, 62, 0
2, 38520, Note_on_c, 0, 61, 100
2, 38636, Note_on_c, 0, 61, 0
2, 38636, Note_on_c, 0, 59, 0
2, 38640, Note_on_c, 0, 47, 100
2, 38640, Note_on_c, 0, 59, 100
2, 38640, Note_on_c, 0, 62, 100
2, 38876, Note_on_c, 0, 62, 0
2, 38876, Note_on_c, 0, 47, 0
2, 38880, Note_on_c, 0, 54, 100
2, 38880, Note_on_c, 0, 61, 100
2, 39116, Note_on_c, 0, 54, 0
2, 39116, Note_on_c, 0, 59, 0
2, 39120, Note_on_c, 0, 54, 100
2, 39120, Note_on_c, 0, 58, 100
2, 39236, Note_on_c, 0, 58, 0
2, 39240, Note_on_c, 0, 56, 100
2, 39356, Note_on_c, 0, 56, 0
2, 39356, Note_on_c, 0, 54, 0
2, 39360, Note_on_c, 0, 42, 100
2, 39360, Note_on_c, 0, 52, 100
2, 39360, Note_on_c, 0, 58, 100
2, 39596, Note_on_c, 0, 58, 0
2, 39596, Note_on_c, 0, 61, 0
2, 39596, Note_on_c, 0, 42, 0
2, 39596, Note_on_c, 0, 52, 0
2, 39600, Note_on_c, 0, 47, 100
2, 39600, Note_on_c, 0, 51, 100
2, 39600, Note_on_c, 0, 59, 100
2, 39836, Note_on_c, 0, 51, 0
2, 39836, Note_on_c, 0, 47, 0
2, 39840, Note_on_c, 0, 47, 100
2, 39840, Note_on_c, 0, 51, 100
2, 39956, Note_on_c, 0, 51, 0
2, 39960, Note_on_c, 0, 49, 100
2, 40076, Note_on_c, 0, 49, 0
2, 40076, Note_on_c, 0, 47, 0
2, 40076, Note_on_c, 0, 59, 0
2, 40080, Note_on_c, 0, 45, 100
2, 40080, Note_on_c, 0, 51, 100
2, 40196, Note_on_c, 0, 51, 0
2, 40200, Note_on_c, 0, 47, 100
2, 40316, Note_on_c, 0, 47, 0
2, 40316, Note_on_c, 0, 45, 0
2, 40320, Note_on_c, 0, 43, 100
2, 40320, Note_on_c, 0, 52, 100
2, 40556, Note_on_c, 0, 52, 0
2, 40556, Note_on_c, 0, 43, 0
2, 40560, Note_on_c, 0, 43, 100
2, 40560, Note_on_c, 0, 52, 100
2, 40676, Note_on_c, 0, 43, 0
2, 40680, Note_on_c, 0, 42, 100
2, 40796, Note_on_c, 0, 42, 0
2, 40796, Note_on_c, 0, 52, 0
2, 40800, Note_on_c, 0, 43, 100
2, 40800, Note_on_c, 0, 50, 100
2, 40916, Note_on_c, 0, 43, 0
2, 40920, Note_on_c, 0, 40, 100
2, 41036, Note_on_c, 0, 40, 0
2, 41036, Note_on_c, 0, 50, 0
2, 41040, Note_on_c, 0, 45, 100
2, 41040, Note_on_c, 0, 49, 100
2, 41276, Note_on_c, 0, 49, 0
2, 41276, Note_on_c, 0, 45, 0
2, 41280, Note_on_c, 0, 45, 100
2, 41280, Note_on_c, 0, 49, 100
2, 41396, Note_on_c, 0, 49, 0
2, 41400, Note_on_c, 0, 47, 100
2, 41516, Note_on_c, 0, 47, 0
2, 41516, Note_on_c, 0, 45, 0
2, 41520, Note_on_c, 0, 43, 100
2, 41520, Note_on_c, 0, 49, 100
2, 41636, Note_on_c, 0, 49, 0
2, 41640, Note_on_c, 0, 45, 100
2, 41756, Note_on_c, 0, 45, 0
2, 41756, Note_on_c, 0, 43, 0
2, 41760, Note_on_c, 0, 42, 100
2, 41760, Note_on_c, 0, 50, 100
2, 41996, Note_on_c, 0, 50, 0
2, 41996, Note_on_c, 0, 42, 0
2, 42000, Note_on_c, 0, 42, 100
2, 42000, Note_on_c, 0, 50, 100
2, 42116, Note_on_c, 0, 42, 0
2, 42120, Note_on_c, 0, 40, 100
2, 42236, Note_on_c, 0, 40, 0
2, 42236, Note_on_c, 0, 50, 0
2, 42240, Note_on_c, 0, 42, 100
2, 42240, Note_on_c, 0, 48, 100
2, 42356, Note_on_c, 0, 42, 0
2, 42360, Note_on_c, 0, 38, 100
2, 42476, Note_on_c, 0, 38, 0
2, 42476, Note_on_c, 0, 48, 0
2, 42480, Note_on_c, 0, 43, 100
2, 42480, Note_on_c, 0, 47, 100
2, 42716, Note_on_c, 0, 47, 0
2, 42716, Note_on_c, 0, 43, 0
2, 42720, Note_on_c, 0, 43, 100
2, 42720, Note_on_c, 0, 52, 100
2, 42836, Note_on_c, 0, 43, 0
2, 42840, Note_on_c, 0, 42, 100
2, 42956, Note_on_c, 0, 42, 0
2, 42956, Note_on_c, 0, 52, 0
2, 42960, Note_on_c, 0, 43, 100
2, 42960, Note_on_c, 0, 50, 100
2, 43076, Note_on_c, 0, 43, 0
2, 43080, Note_on_c, 0, 40, 100
2, 43196, Note_on_c, 0, 40, 0
2, 43196, Note_on_c, 0, 50, 0
2, 43200, Note_on_c, 0, 45, 100
2, 43200, Note_on_c, 0, 49, 100
2, 43436, Note_on_c, 0, 49, 0
2, 43436, Note_on_c, 0, 45, 0
2, 43440, Note_on_c, 0, 45, 100
2, 43440, Note_on_c, 0, 54, 100
2, 43556, Note_on_c, 0, 45, 0
2, 43560, Note_on_c, 0, 43, 100
2, 43676, Note_on_c, 0, 43, 0
2, 43676, Note_on_c, 0, 54, 0
2, 43680, Note_on_c, 0, 45, 100
2, 43680, Note_on_c, 0, 52, 100
2, 43796, Note_on_c, 0, 45, 0
2, 43800, Note_on_c, 0, 42, 100
2, 43916, Note_on_c, 0, 42, 0
2, 43916, Note_on_c, 0, 52, 0
2, 43920, Note_on_c, 0, 47, 100
2, 43920, Note_on_c, 0, 51, 100
2, 44156, Note_on_c, 0, 51, 0
2, 44156, Note_on_c, 0, 47, 0
2, 44160, Note_on_c, 0, 47, 100
2, 44160, Note_on_c, 0, 55, 100
2, 44276, Note_on_c, 0, 47, 0
2, 44280, Note_on_c, 0, 45, 100
2, 44396, Note_on_c, 0, 45, 0
2, 44396, Note_on_c, 0, 55, 0
2, 44400, Note_on_c, 0, 47, 100
2, 44400, Note_on_c, 0, 54, 100
2, 44516, Note_on_c, 0, 47, 0
2, 44520, Note_on_c, 0, 43, 100
2, 44636, Note_on_c, 0, 43, 0
2, 44636, Note_on_c, 0, 54, 0
2, 44640, Note_on_c, 0, 48, 100
2, 44640, Note_on_c, 0, 52, 100
2, 44876, Note_on_c, 0, 52, 0
2, 44876, Note_on_c, 0, 48, 0
2, 44880, Note_on_c, 0, 48, 100
2, 44880, Note_on_c, 0, 57, 100
2, 44996, Note_on_c, 0, 48, 0
2, 45000, Note_on_c, 0, 47, 100
2, 45116, Note_on_c, 0, 47, 0
2, 45120, Note_on_c, 0, 48, 100
2, 45236, Note_on_c, 0, 48, 0
2, 45240, Note_on_c, 0, 45, 100
2, 45356, Note_on_c, 0, 45, 0
2, 45360, Note_on_c, 0, 47, 100
2, 45596, Note_on_c, 0, 47, 0
2, 45596, Note_on_c, 0, 57, 0
2, 45600, Note_on_c, 0, 52, 100
2, 45600, Note_on_c, 0, 55, 100
2, 45716, Note_on_c, 0, 55, 0
2, 45720, Note_on_c, 0, 54, 100
2, 45836, Note_on_c, 0, 54, 0
2, 45836, Note_on_c, 0, 52, 0
2, 45840, Note_on_c, 0, 52, 100
2, 45840, Note_on_c, 0, 55, 100
2, 45840, Note_on_c, 0, 64, 100
2, 46076, Note_on_c, 0, 64, 0
2, 46076, Note_on_c, 0, 55, 0
2, 46080, Note_on_c, 0, 54, 100
2, 46080, Note_on_c, 0, 71, 100
2, 46316, Note_on_c, 0, 71, 0
2, 46316, Note_on_c, 0, 52, 0
2, 46320, Note_on_c, 0, 51, 100
2, 46320, Note_on_c, 0, 71, 100
2, 46556, Note_on_c, 0, 71, 0
2, 46560, Note_on_c, 0, 59, 100
2, 46560, Note_on_c, 0, 69, 100
2, 46796, Note_on_c, 0, 69, 0
2, 46796, Note_on_c, 0, 54, 0
2, 46796, Note_on_c, 0, 51, 0
2, 46796, Note_on_c, 0, 59, 0
2, 46800, Note_on_c, 0, 52, 100
2, 46800, Note_on_c, 0, 64, 100
2, 46800, Note_on_c, 0, 67, 100
2, 47036, Note_on_c, 0, 67, 0
2, 47036, Note_on_c, 0, 64, 0
2, 47036, Note_on_c, 0, 52, 0
2, 47040, Note_on_c, 0, 64, 100
2, 47040, Note_on_c, 0, 67, 100
2, 47156, Note_on_c, 0, 67, 0
2, 47160, Note_on_c, 0, 66, 100
2, 47276, Note_on_c, 0, 66, 0
2, 47276, Note_on_c, 0, 64, 0
2, 47280, Note_on_c, 0, 62, 100
2, 47280, Note_on_c, 0, 67, 100
2, 47396, Note_on_c, 0, 67, 0
2, 47400, Note_on_c, 0, 64, 100
2, 47516, Note_on_c, 0, 64, 0
2, 47516, Note_on_c, 0, 62, 0
2, 47520, Note_on_c, 0, 60, 100
2, 47520, Note_on_c, 0, 69, 100
2, 47756, Note_on_c, 0, 69, 0
2, 47756, Note_on_c, 0, 60, 0
2, 47760, Note_on_c, 0, 60, 100
2, 47760, Note_on_c, 0, 64, 100
2, 47876, Note_on_c, 0, 60, 0
2, 47880, Note_on_c, 0, 59, 100
2, 47996, Note_on_c, 0, 59, 0
2, 47996, Note_on_c, 0, 64, 0
2, 48000, Note_on_c, 0, 60, 100
2, 48000, Note_on_c, 0, 69, 100
2, 48116, Note_on_c, 0, 60, 0
2, 48120, Note_on_c, 0, 57, 100
2, 48236, Note_on_c, 0, 57, 0
2, 48236, Note_on_c, 0, 69, 0
2, 48240, Note_on_c, 0, 56, 100
2, 48240, Note_on_c, 0, 71, 100
2, 48476, Note_on_c, 0, 71, 0
2, 48476, Note_on_c, 0, 56, 0
2, 48480, Note_on_c, 0, 56, 100
2, 48480, Note_on_c, 0, 64, 100
2, 48596, Note_on_c, 0, 56, 0
2, 48600, Note_on_c, 0, 54, 100
2, 48716, Note_on_c, 0, 54, 0
2, 48716, Note_on_c, 0, 64, 0
2, 48720, Note_on_c, 0, 56, 100
2, 48720, Note_on_c, 0, 71, 100
2, 48836, Note_on_c, 0, 56, 0
2, 48840, Note_on_c, 0, 52, 100
2, 48956, Note_on_c, 0, 52, 0
2, 48956, Note_on_c, 0, 71, 0
2, 48960, Note_on_c, 0, 57, 100
2, 48960, Note_on_c, 0, 72, 100
2, 49076, Note_on_c, 0, 57, 0
2, 49080, Note_on_c, 0, 56, 100
2, 49196, Note_on_c, 0, 56, 0
2, 49196, Note_on_c, 0, 72, 0
2, 49200, Note_on_c, 0, 57, 100
2, 49200, Note_on_c, 0, 64, 100
2, 49316, Note_on_c, 0, 57, 0
2, 49320, Note_on_c, 0, 59, 100
2, 49436, Note_on_c, 0, 59, 0
2, 49436, Note_on_c, 0, 64, 0
2, 49440, Note_on_c, 0, 60, 100
2, 49440, Note_on_c, 0, 69, 100
2, 49556, Note_on_c, 0, 60, 0
2, 49560, Note_on_c, 0, 57, 100
2, 49676, Note_on_c, 0, 57, 0
2, 49676, Note_on_c, 0, 69, 0
2, 49680, Note_on_c, 0, 62, 100
2, 49680, Note_on_c, 0, 66, 100
2, 49916, Note_on_c, 0, 66, 0
2, 49916, Note_on_c, 0, 62, 0
2, 49920, Note_on_c, 0, 50, 100
2, 49920, Note_on_c, 0, 66, 100
2, 50036, Note_on_c, 0, 66, 0
2, 50040, Note_on_c, 0, 64, 100
2, 50156, Note_on_c, 0, 64, 0
2, 50156, Note_on_c, 0, 50, 0
2, 50160, Note_on_c, 0, 48, 100
2, 50160, Note_on_c, 0, 66, 100
2, 50276, Note_on_c, 0, 66, 0
2, 50280, Note_on_c, 0, 62, 100
2, 50396, Note_on_c, 0, 62, 0
2, 50396, Note_on_c, 0, 48, 0
2, 50400, Note_on_c, 0, 47, 100
2, 50400, Note_on_c, 0, 67, 100
2, 50636, Note_on_c, 0, 67, 0
2, 50636, Note_on_c, 0, 47, 0
2, 50640, Note_on_c, 0, 47, 100
2, 50640, Note_on_c, 0, 62, 100
2, 50640, Note_on_c, 0, 67, 100
2, 50756, Note_on_c, 0, 47, 0
2, 50760, Note_on_c, 0, 45, 100
2, 50876, Note_on_c, 0, 45, 0
2, 50876, Note_on_c, 0, 67, 0
2, 50876, Note_on_c, 0, 62, 0
2, 50880, Note_on_c, 0, 47, 100
2, 50880, Note_on_c, 0, 62, 100
2, 50880, Note_on_c, 0, 66, 100
2, 50996, Note_on_c, 0, 47, 0
2, 51000, Note_on_c, 0, 43, 100
2, 51116, Note_on_c, 0, 43, 0
2, 51116, Note_on_c, 0, 66, 0
2, 51116, Note_on_c, 0, 62, 0
2, 51120, Note_on_c, 0, 48, 100
2, 51120, Note_on_c, 0, 55, 100
2, 51120, Note_on_c, 0, 60, 100
2, 51120, Note_on_c, 0, 64, 100
2, 51356, Note_on_c, 0, 64, 0
2, 51356, Note_on_c, 0, 48, 0
2, 51356, Note_on_c, 0, 55, 0
2, 51356, Note_on_c, 0, 60, 0
2, 51360, Note_on_c, 0, 48, 100
2, 51360, Note_on_c, 0, 64, 100
2, 51360, Note_on_c, 0, 69, 100
2, 51476, Note_on_c, 0, 48, 0
2, 51480, Note_on_c, 0, 47, 100
2, 51596, Note_on_c, 0, 47, 0
2, 51596, Note_on_c, 0, 69, 0
2, 51596, Note_on_c, 0, 64, 0
2, 51600, Note_on_c, 0, 48, 100
2, 51600, Note_on_c, 0, 64, 100
2, 51600, Note_on_c, 0, 67, 100
2, 51716, Note_on_c, 0, 48, 0
2, 51720, Note_on_c, 0, 45, 100
2, 51836, Note_on_c, 0, 45, 0
2, 51836, Note_on_c, 0, 67, 0
2, 51836, Note_on_c, 0, 64, 0
2, 51840, Note_on_c, 0, 50, 100
2, 51840, Note_on_c, 0, 57, 100
2, 51840, Note_on_c, 0, 62, 100
2, 51840, Note_on_c, 0, 66, 100
2, 52076, Note_on_c, 0, 66, 0
2, 52076, Note_on_c, 0, 50, 0
2, 52076, Note_on_c, 0, 57, 0
2, 52076, Note_on_c, 0, 62, 0
2, 52080, Note_on_c, 0, 59, 100
2, 52080, Note_on_c, 0, 67, 100
2, 52196, Note_on_c, 0, 67, 0
2, 52196, Note_on_c, 0, 59, 0
2, 52200, Note_on_c, 0, 57, 100
2, 52200, Note_on_c, 0, 66, 100
2, 52316, Note_on_c, 0, 66, 0
2, 52316, Note_on_c, 0, 57, 0
2, 52320, Note_on_c, 0, 59, 100
2, 52320, Note_on_c, 0, 67, 100
2, 52436, Note_on_c, 0, 67, 0
2, 52436, Note_on_c, 0, 59, 0
2, 52440, Note_on_c, 0, 55, 100
2, 52440, Note_on_c, 0, 64, 100
2, 52556, Note_on_c, 0, 64, 0
2, 52556, Note_on_c, 0, 55, 0
2, 52560, Note_on_c, 0, 50, 100
2, 52560, Note_on_c, 0, 57, 100
2, 52560, Note_on_c, 0, 62, 100
2, 52560, Note_on_c, 0, 66, 100
2, 52796, Note_on_c, 0, 66, 0
2, 52796, Note_on_c, 0, 62, 0
2, 52796, Note_on_c, 0, 57, 0
2, 52800, Note_on_c, 0, 55, 100
2, 52800, Note_on_c, 0, 71, 100
2, 52916, Note_on_c, 0, 71, 0
2, 52916, Note_on_c, 0, 55, 0
2, 52920, Note_on_c, 0, 54, 100
2, 52920, Note_on_c, 0, 69, 100
2, 53036, Note_on_c, 0, 69, 0
2, 53036, Note_on_c, 0, 54, 0
2, 53036, Note_on_c, 0, 50, 0
2, 53040, Note_on_c, 0, 55, 100
2, 53040, Note_on_c, 0, 71, 100
2, 53156, Note_on_c, 0, 71, 0
2, 53156, Note_on_c, 0, 55, 0
2, 53160, Note_on_c, 0, 52, 100
2, 53160, Note_on_c, 0, 67, 100
2, 53276, Note_on_c, 0, 67, 0
2, 53276, Note_on_c, 0, 52, 0
2, 53280, Note_on_c, 0, 50, 100
2, 53280, Note_on_c, 0, 54, 100
2, 53280, Note_on_c, 0, 62, 100
2, 53280, Note_on_c, 0, 69, 100
2, 53516, Note_on_c, 0, 69, 0
2, 53516, Note_on_c, 0, 50, 0
2, 53516, Note_on_c, 0, 54, 0
2, 53516, Note_on_c, 0, 62, 0
2, 53520, Note_on_c, 0, 47, 100
2, 53520, Note_on_c, 0, 55, 100
2, 53520, Note_on_c, 0, 62, 100
2, 53636, Note_on_c, 0, 47, 0
2, 53640, Note_on_c, 0, 45, 100
2, 53756, Note_on_c, 0, 45, 0
2, 53756, Note_on_c, 0, 62, 0
2, 53756, Note_on_c, 0, 55, 0
2, 53760, Note_on_c, 0, 47, 100
2, 53760, Note_on_c, 0, 55, 100
2, 53760, Note_on_c, 0, 62, 100
2, 53876, Note_on_c, 0, 47, 0
2, 53880, Note_on_c, 0, 43, 100
2, 53996, Note_on_c, 0, 43, 0
2, 53996, Note_on_c, 0, 62, 0
2, 53996, Note_on_c, 0, 55, 0
2, 54000, Note_on_c, 0, 48, 100
2, 54000, Note_on_c, 0, 55, 100
2, 54000, Note_on_c, 0, 62, 100
2, 54000, Note_on_c, 0, 64, 100
2, 54236, Note_on_c, 0, 64, 0
2, 54236, Note_on_c, 0, 48, 0
2, 54236, Note_on_c, 0, 55, 0
2, 54236, Note_on_c, 0, 62, 0
2, 54240, Note_on_c, 0, 48, 100
2, 54240, Note_on_c, 0, 57, 100
2, 54240, Note_on_c, 0, 60, 100
2, 54240, Note_on_c, 0, 64, 100
2, 54356, Note_on_c, 0, 48, 0
2, 54360, Note_on_c, 0, 47, 100
2, 54476, Note_on_c, 0, 47, 0
2, 54476, Note_on_c, 0, 64, 0
2, 54476, Note_on_c, 0, 60, 0
2, 54476, Note_on_c, 0, 57, 0
2, 54480, Note_on_c, 0, 48, 100
2, 54480, Note_on_c, 0, 60, 100
2, 54480, Note_on_c, 0, 64, 100
2, 54596, Note_on_c, 0, 48, 0
2, 54600, Note_on_c, 0, 45, 100
2, 54716, Note_on_c, 0, 45, 0
2, 54716, Note_on_c, 0, 64, 0
2, 54716, Note_on_c, 0, 60, 0
2, 54720, Note_on_c, 0, 50, 100
2, 54720, Note_on_c, 0, 60, 100
2, 54720, Note_on_c, 0, 62, 100
2, 54720, Note_on_c, 0, 66, 100
2, 54956, Note_on_c, 0, 66, 0
2, 54956, Note_on_c, 0, 50, 0
2, 54956, Note_on_c, 0, 60, 0
2, 54956, Note_on_c, 0, 62, 0
2, 54960, Note_on_c, 0, 52, 100
2, 54960, Note_on_c, 0, 59, 100
2, 54960, Note_on_c, 0, 67, 100
2, 55196, Note_on_c, 0, 67, 0
2, 55196, Note_on_c, 0, 59, 0
2, 55196, Note_on_c, 0, 52, 0
2, 55200, Note_on_c, 0, 54, 100
2, 55200, Note_on_c, 0, 62, 100
2, 55200, Note_on_c, 0, 69, 100
2, 55436, Note_on_c, 0, 69, 0
2, 55436, Note_on_c, 0, 62, 0
2, 55436, Note_on_c, 0, 54, 0
2, 55440, Note_on_c, 0, 55, 100
2, 55440, Note_on_c, 0, 62, 100
2, 55440, Note_on_c, 0, 71, 100
2, 55556, Note_on_c, 0, 71, 0
2, 55560, Note_on_c, 0, 67, 100
2, 55676, Note_on_c, 0, 67, 0
2, 55676, Note_on_c, 0, 62, 0
2, 55676, Note_on_c, 0, 55, 0
2, 55680, Note_on_c, 0, 50, 100
2, 55680, Note_on_c, 0, 57, 100
2, 55680, Note_on_c, 0, 62, 100
2, 55680, Note_on_c, 0, 66, 100
2, 55916, Note_on_c, 0, 62, 0
2, 55916, Note_on_c, 0, 50, 0
2, 55916, Note_on_c, 0, 57, 0
2, 55920, Note_on_c, 0, 38, 100
2, 55920, Note_on_c, 0, 50, 100
2, 55920, Note_on_c, 0, 60, 100
2, 56036, Note_on_c, 0, 66, 0
2, 56040, Note_on_c, 0, 67, 100
2, 56156, Note_on_c, 0, 67, 0
2, 56156, Note_on_c, 0, 60, 0
2, 56156, Note_on_c, 0, 50, 0
2, 56156, Note_on_c, 0, 38, 0
2, 56160, Note_on_c, 0, 43, 100
2, 56160, Note_on_c, 0, 59, 100
2, 56160, Note_on_c, 0, 62, 100
2, 56160, Note_on_c, 0, 67, 100
2, 56396, Note_on_c, 0, 67, 0
2, 56396, Note_on_c, 0, 43, 0
2, 56396, Note_on_c, 0, 59, 0
2, 56396, Note_on_c, 0, 62, 0
2, 56400, Note_on_c, 0, 55, 100
2, 56400, Note_on_c, 0, 64, 100
2, 56516, Note_on_c, 0, 55, 0
2, 56520, Note_on_c, 0, 54, 100
2, 56636, Note_on_c, 0, 54, 0
2, 56636, Note_on_c, 0, 64, 0
2, 56640, Note_on_c, 0, 55, 100
2, 56640, Note_on_c, 0, 62, 100
2, 56756, Note_on_c, 0, 55, 0
2, 56760, Note_on_c, 0, 52, 100
2, 56876, Note_on_c, 0, 52, 0
2, 56876, Note_on_c, 0, 62, 0
2, 56880, Note_on_c, 0, 57, 100
2, 56880, Note_on_c, 0, 61, 100
2, 57116, Note_on_c, 0, 61, 0
2, 57116, Note_on_c, 0, 57, 0
2, 57120, Note_on_c, 0, 57, 100
2, 57120, Note_on_c, 0, 61, 100
2, 57236, Note_on_c, 0, 61, 0
2, 57240, Note_on_c, 0, 59, 100
2, 57356, Note_on_c, 0, 59, 0
2, 57356, Note_on_c, 0, 57, 0
2, 57360, Note_on_c, 0, 55, 100
2, 57360, Note_on_c, 0, 61, 100
2, 57476, Note_on_c, 0, 61, 0
2, 57480, Note_on_c, 0, 57, 100
2, 57596, Note_on_c, 0, 57, 0
2, 57596, Note_on_c, 0, 55, 0
2, 57600, Note_on_c, 0, 54, 100
2, 57600, Note_on_c, 0, 62, 100
2, 57836, Note_on_c, 0, 62, 0
2, 57836, Note_on_c, 0, 54, 0
2, 57840, Note_on_c, 0, 54, 100
2, 57840, Note_on_c, 0, 62, 100
2, 57956, Note_on_c, 0, 54, 0
2, 57960, Note_on_c, 0, 52, 100
2, 58076, Note_on_c, 0, 52, 0
2, 58076, Note_on_c, 0, 62, 0
2, 58080, Note_on_c, 0, 54, 100
2, 58080, Note_on_c, 0, 60, 100
2, 58196, Note_on_c, 0, 54, 0
2, 58200, Note_on_c, 0, 50, 100
2, 58316, Note_on_c, 0, 50, 0
2, 58316, Note_on_c, 0, 60, 0
2, 58320, Note_on_c, 0, 55, 100
2, 58320, Note_on_c, 0, 59, 100
2, 58556, Note_on_c, 0, 59, 0
2, 58556, Note_on_c, 0, 55, 0
2, 58560, Note_on_c, 0, 55, 100
2, 58560, Note_on_c, 0, 59, 100
2, 58676, Note_on_c, 0, 59, 0
2, 58680, Note_on_c, 0, 57, 100
2, 58796, Note_on_c, 0, 57, 0
2, 58796, Note_on_c, 0, 55, 0
2, 58800, Note_on_c, 0, 54, 100
2, 58800, Note_on_c, 0, 59, 100
2, 58916, Note_on_c, 0, 59, 0
2, 58920, Note_on_c, 0, 55, 100
2, 59036, Note_on_c, 0, 55, 0
2, 59036, Note_on_c, 0, 54, 0
2, 59040, Note_on_c, 0, 52, 100
2, 59040, Note_on_c, 0, 60, 100
2, 59276, Note_on_c, 0, 60, 0
2, 59276, Note_on_c, 0, 52, 0
2, 59280, Note_on_c, 0, 57, 100
2, 59280, Note_on_c, 0, 60, 100
2, 59396, Note_on_c, 0, 60, 0
2, 59400, Note_on_c, 0, 59, 100
2, 59516, Note_on_c, 0, 59, 0
2, 59520, Note_on_c, 0, 60, 100
2, 59636, Note_on_c, 0, 60, 0
2, 59640, Note_on_c, 0, 57, 100
2, 59756, Note_on_c, 0, 57, 0
2, 59756, Note_on_c, 0, 57, 0
2, 59760, Note_on_c, 0, 59, 100
2, 59996, Note_on_c, 0, 59, 0
2, 60000, Note_on_c, 0, 55, 100
2, 60000, Note_on_c, 0, 64, 100
2, 60116, Note_on_c, 0, 55, 0
2, 60120, Note_on_c, 0, 54, 100
2, 60236, Note_on_c, 0, 54, 0
2, 60240, Note_on_c, 0, 40, 100
2, 60240, Note_on_c, 0, 55, 100
2, 60356, Note_on_c, 0, 55, 0
2, 60360, Note_on_c, 0, 52, 100
2, 60476, Note_on_c, 0, 52, 0
2, 60476, Note_on_c, 0, 40, 0
2, 60480, Note_on_c, 0, 47, 100
2, 60480, Note_on_c, 0, 54, 100
2, 60716, Note_on_c, 0, 47, 0
2, 60716, Note_on_c, 0, 64, 0
2, 60720, Note_on_c, 0, 47, 100
2, 60720, Note_on_c, 0, 63, 100
2, 60836, Note_on_c, 0, 63, 0
2, 60840, Note_on_c, 0, 61, 100
2, 60956, Note_on_c, 0, 61, 0
2, 60956, Note_on_c, 0, 47, 0
2, 60960, Note_on_c, 0, 45, 100
2, 60960, Note_on_c, 0, 63, 100
2, 61076, Note_on_c, 0, 63, 0
2, 61080, Note_on_c, 0, 59, 100
2, 61196, Note_on_c, 0, 59, 0
2, 61196, Note_on_c, 0, 45, 0
2, 61196, Note_on_c, 0, 54, 0
2, 61200, Note_on_c, 0, 44, 100
2, 61200, Note_on_c, 0, 52, 100
2, 61200, Note_on_c, 0, 64, 100
2, 61436, Note_on_c, 0, 64, 0
2, 61436, Note_on_c, 0, 44, 0
2, 61440, Note_on_c, 0, 44, 100
2, 61440, Note_on_c, 0, 59, 100
2, 61556, Note_on_c, 0, 44, 0
2, 61560, Note_on_c, 0, 42, 100
2, 61676, Note_on_c, 0, 42, 0
2, 61676, Note_on_c, 0, 59, 0
2, 61680, Note_on_c, 0, 44, 100
2, 61680, Note_on_c, 0, 64, 100
2, 61796, Note_on_c, 0, 44, 0
2, 61800, Note_on_c, 0, 40, 100
2, 61916, Note_on_c, 0, 40, 0
2, 61916, Note_on_c, 0, 64, 0
2, 61916, Note_on_c, 0, 52, 0
2, 61920, Note_on_c, 0, 45, 100
2, 61920, Note_on_c, 0, 52, 100
2, 61920, Note_on_c, 0, 60, 100
2, 62156, Note_on_c, 0, 60, 0
2, 62156, Note_on_c, 0, 45, 0
2, 62160, Note_on_c, 0, 45, 100
2, 62160, Note_on_c, 0, 57, 100
2, 62276, Note_on_c, 0, 45, 0
2, 62280, Note_on_c, 0, 44, 100
2, 62396, Note_on_c, 0, 44, 0
2, 62396, Note_on_c, 0, 57, 0
2, 62400, Note_on_c, 0, 45, 100
2, 62400, Note_on_c, 0, 60, 100
2, 62516, Note_on_c, 0, 45, 0
2, 62520, Note_on_c, 0, 42, 100
2, 62636, Note_on_c, 0, 42, 0
2, 62636, Note_on_c, 0, 60, 0
2, 62636, Note_on_c, 0, 52, 0
2, 62640, Note_on_c, 0, 44, 100
2, 62640, Note_on_c, 0, 52, 100
2, 62640, Note_on_c, 0, 59, 100
2, 62876, Note_on_c, 0, 59, 0
2, 62876, Note_on_c, 0, 44, 0
2, 62880, Note_on_c, 0, 44, 100
2, 62880, Note_on_c, 0, 64, 100
2, 62996, Note_on_c, 0, 44, 0
2, 63000, Note_on_c, 0, 42, 100
2, 63116, Note_on_c, 0, 42, 0
2, 63116, Note_on_c, 0, 64, 0
2, 63120, Note_on_c, 0, 44, 100
2, 63120, Note_on_c, 0, 59, 100
2, 63236, Note_on_c, 0, 44, 0
2, 63240, Note_on_c, 0, 40, 100
2, 63356, Note_on_c, 0, 40, 0
2, 63356, Note_on_c, 0, 59, 0
2, 63360, Note_on_c, 0, 45, 100
2, 63360, Note_on_c, 0, 60, 100
2, 63596, Note_on_c, 0, 60, 0
2, 63596, Note_on_c, 0, 52, 0
2, 63600, Note_on_c, 0, 57, 100
2, 63600, Note_on_c, 0, 60, 100
2, 63600, Note_on_c, 0, 65, 100
2, 63716, Note_on_c, 0, 65, 0
2, 63720, Note_on_c, 0, 67, 100
2, 63836, Note_on_c, 0, 67, 0
2, 63836, Note_on_c, 0, 60, 0
2, 63836, Note_on_c, 0, 57, 0
2, 63840, Note_on_c, 0, 55, 100
2, 63840, Note_on_c, 0, 64, 100
2, 63956, Note_on_c, 0, 64, 0
2, 63960, Note_on_c, 0, 65, 100
2, 64076, Note_on_c, 0, 65, 0
2, 64076, Note_on_c, 0, 55, 0
2, 64080, Note_on_c, 0, 54, 100
2, 64080, Note_on_c, 0, 59, 100
2, 64080, Note_on_c, 0, 63, 100
2, 64316, Note_on_c, 0, 63, 0
2, 64316, Note_on_c, 0, 45, 0
2, 64316, Note_on_c, 0, 54, 0
2, 64316, Note_on_c, 0, 59, 0
2, 64320, Note_on_c, 0, 71, 100
2, 64436, Note_on_c, 0, 71, 0
2, 64440, Note_on_c, 0, 63, 100
2, 64556, Note_on_c, 0, 63, 0
2, 64560, Note_on_c, 0, 71, 100
2, 64676, Note_on_c, 0, 71, 0
2, 64680, Note_on_c, 0, 63, 100
2, 64796, Note_on_c, 0, 63, 0
2, 64800, Note_on_c, 0, 43, 100
2, 64800, Note_on_c, 0, 64, 100
2, 65036, Note_on_c, 0, 64, 0
2, 65040, Note_on_c, 0, 55, 100
2, 65040, Note_on_c, 0, 59, 100
2, 65040, Note_on_c, 0, 64, 100
2, 65156, Note_on_c, 0, 64, 0
2, 65160, Note_on_c, 0, 66, 100
2, 65276, Note_on_c, 0, 66, 0
2, 65276, Note_on_c, 0, 59, 0
2, 65276, Note_on_c, 0, 55, 0
2, 65280, Note_on_c, 0, 54, 100
2, 65280, Note_on_c, 0, 62, 100
2, 65396, Note_on_c, 0, 62, 0
2, 65400, Note_on_c, 0, 64, 100
2, 65516, Note_on_c, 0, 64, 0
2, 65516, Note_on_c, 0, 54, 0
2, 65520, Note_on_c, 0, 52, 100
2, 65520, Note_on_c, 0, 57, 100
2, 65520, Note_on_c, 0, 61, 100
2, 65756, Note_on_c, 0, 61, 0
2, 65756, Note_on_c, 0, 43, 0
2, 65756, Note_on_c, 0, 52, 0
2, 65756, Note_on_c, 0, 57, 0
2, 65760, Note_on_c, 0, 69, 100
2, 65876, Note_on_c, 0, 69, 0
2, 65880, Note_on_c, 0, 61, 100
2, 65996, Note_on_c, 0, 61, 0
2, 66000, Note_on_c, 0, 69, 100
2, 66116, Note_on_c, 0, 69, 0
2, 66120, Note_on_c, 0, 61, 100
2, 66236, Note_on_c, 0, 61, 0
2, 66240, Note_on_c, 0, 42, 100
2, 66240, Note_on_c, 0, 62, 100
2, 66476, Note_on_c, 0, 62, 0
2, 66480, Note_on_c, 0, 54, 100
2, 66480, Note_on_c, 0, 57, 100
2, 66480, Note_on_c, 0, 62, 100
2, 66596, Note_on_c, 0, 62, 0
2, 66600, Note_on_c, 0, 64, 100
2, 66716, Note_on_c, 0, 64, 0
2, 66716, Note_on_c, 0, 57, 0
2, 66716, Note_on_c, 0, 54, 0
2, 66716, Note_on_c, 0, 42, 0
2, 66720, Note_on_c, 0, 52, 100
2, 66720, Note_on_c, 0, 60, 100
2, 66836, Note_on_c, 0, 60, 0
2, 66840, Note_on_c, 0, 62, 100
2, 66956, Note_on_c, 0, 62, 0
2, 66956, Note_on_c, 0, 52, 0
2, 66960, Note_on_c, 0, 43, 100
2, 66960, Note_on_c, 0, 50, 100
2, 66960, Note_on_c, 0, 55, 100
2, 66960, Note_on_c, 0, 59, 100
2, 67196, Note_on_c, 0, 59, 0
2, 67196, Note_on_c, 0, 55, 0
2, 67196, Note_on_c, 0, 50, 0
2, 67200, Note_on_c, 0, 52, 100
2, 67200, Note_on_c, 0, 67, 100
2, 67316, Note_on_c, 0, 67, 0
2, 67320, Note_on_c, 0, 59, 100
2, 67436, Note_on_c, 0, 59, 0
2, 67436, Note_on_c, 0, 43, 0
2, 67440, Note_on_c, 0, 43, 100
2, 67440, Note_on_c, 0, 67, 100
2, 67556, Note_on_c, 0, 67, 0
2, 67560, Note_on_c, 0, 59, 100
2, 67676, Note_on_c, 0, 59, 0
2, 67676, Note_on_c, 0, 43, 0
2, 67680, Note_on_c, 0, 45, 100
2, 67680, Note_on_c, 0, 57, 100
2, 67680, Note_on_c, 0, 60, 100
2, 67916, Note_on_c, 0, 60, 0
2, 67916, Note_on_c, 0, 57, 0
2, 67916, Note_on_c, 0, 52, 0
2, 67920, Note_on_c, 0, 54, 100
2, 67920, Note_on_c, 0, 69, 100
2, 68036, Note_on_c, 0, 69, 0
2, 68040, Note_on_c, 0, 61, 100
2, 68156, Note_on_c, 0, 61, 0
2, 68156, Note_on_c, 0, 45, 0
2, 68160, Note_on_c, 0, 45, 100
2, 68160, Note_on_c, 0, 69, 100
2, 68276, Note_on_c, 0, 69, 0
2, 68280, Note_on_c, 0, 61, 100
2, 68396, Note_on_c, 0, 61, 0
2, 68396, Note_on_c, 0, 45, 0
2, 68400, Note_on_c, 0, 47, 100
2, 68400, Note_on_c, 0, 59, 100
2, 68400, Note_on_c, 0, 62, 100
2, 68636, Note_on_c, 0, 62, 0
2, 68636, Note_on_c, 0, 54, 0
2, 68636, Note_on_c, 0, 47, 0
2, 68636, Note_on_c, 0, 59, 0
2, 68640, Note_on_c, 0, 71, 100
2, 68756, Note_on_c, 0, 71, 0
2, 68760, Note_on_c, 0, 63, 100
2, 68876, Note_on_c, 0, 63, 0
2, 68880, Note_on_c, 0, 45, 100
2, 68880, Note_on_c, 0, 54, 100
2, 68880, Note_on_c, 0, 59, 100
2, 68880, Note_on_c, 0, 71, 100
2, 68996, Note_on_c, 0, 71, 0
2, 69000, Note_on_c, 0, 63, 100
2, 69116, Note_on_c, 0, 63, 0
2, 69116, Note_on_c, 0, 59, 0
2, 69116, Note_on_c, 0, 54, 0
2, 69116, Note_on_c, 0, 45, 0
2, 69120, Note_on_c, 0, 43, 100
2, 69120, Note_on_c, 0, 55, 100
2, 69120, Note_on_c, 0, 59, 100
2, 69120, Note_on_c, 0, 64, 100
2, 69356, Note_on_c, 0, 64, 0
2, 69356, Note_on_c, 0, 43, 0
2, 69356, Note_on_c, 0, 55, 0
2, 69356, Note_on_c, 0, 59, 0
2, 69360, Note_on_c, 0, 42, 100
2, 69360, Note_on_c, 0, 57, 100
2, 69360, Note_on_c, 0, 63, 100
2, 69360, Note_on_c, 0, 66, 100
2, 69596, Note_on_c, 0, 66, 0
2, 69596, Note_on_c, 0, 42, 0
2, 69596, Note_on_c, 0, 57, 0
2, 69596, Note_on_c, 0, 63, 0
2, 69600, Note_on_c, 0, 40, 100
2, 69600, Note_on_c, 0, 59, 100
2, 69600, Note_on_c, 0, 64, 100
2, 69600, Note_on_c, 0, 67, 100
2, 69836, Note_on_c, 0, 64, 0
2, 69836, Note_on_c, 0, 40, 0
2, 69836, Note_on_c, 0, 59, 0
2, 69840, Note_on_c, 0, 45, 100
2, 69840, Note_on_c, 0, 60, 100
2, 69956, Note_on_c, 0, 67, 0
2, 69960, Note_on_c, 0, 69, 100
2, 70076, Note_on_c, 0, 69, 0
2, 70076, Note_on_c, 0, 60, 0
2, 70076, Note_on_c, 0, 45, 0
2, 70080, Note_on_c, 0, 47, 100
2, 70080, Note_on_c, 0, 59, 100
2, 70080, Note_on_c, 0, 66, 100
2, 70316, Note_on_c, 0, 59, 0
2, 70320, Note_on_c, 0, 51, 100
2, 70320, Note_on_c, 0, 57, 100
2, 70436, Note_on_c, 0, 66, 0
2, 70440, Note_on_c, 0, 64, 100
2, 70556, Note_on_c, 0, 64, 0
2, 70556, Note_on_c, 0, 57, 0
2, 70556, Note_on_c, 0, 51, 0
2, 70556, Note_on_c, 0, 47, 0
2, 70560, Note_on_c, 0, 40, 100
2, 70560, Note_on_c, 0, 47, 100
2, 70560, Note_on_c, 0, 52, 100
2, 70560, Note_on_c, 0, 59, 100
2, 70560, Note_on_c, 0, 64, 100
2, 71276, Note_on_c, 0, 64, 0
2, 71276, Note_on_c, 0, 52, 0
2, 71276, Note_on_c, 0, 40, 0
2, 71276, Note_on_c, 0, 47, 0
2, 71276, Note_on_c, 0, 59, 0
2, 71276, End_track
3, 0, Start_track
3, 0, MIDI_port, 0
3, 0, Title_t, "Allemande"
3, 0, Program_c, 0, 24
3, 0, Control_c, 0, 7, 100
3, 0, Control_c, 0, 10, 64
3, 73080, Note_on_c, 0, 59, 100
3, 73196, Note_on_c, 0, 59, 0
3, 73200, Note_on_c, 0, 59, 100
3, 73200, Note_on_c, 0, 59, 100
3, 73320, Note_on_c, 0, 40, 100
3, 73320, Note_on_c, 0, 40, 100
3, 73436, Note_on_c, 0, 40, 0
3, 73436, Note_on_c, 0, 40, 0
3, 73440, Note_on_c, 0, 43, 100
3, 73440, Note_on_c, 0, 43, 100
3, 73556, Note_on_c, 0, 43, 0
3, 73556, Note_on_c, 0, 43, 0
3, 73560, Note_on_c, 0, 47, 100
3, 73560, Note_on_c, 0, 47, 100
3, 73676, Note_on_c, 0, 47, 0
3, 73676, Note_on_c, 0, 59, 0
3, 73676, Note_on_c, 0, 59, 0
3, 73676, Note_on_c, 0, 47, 0
3, 73680, Note_on_c, 0, 52, 100
3, 73680, Note_on_c, 0, 52, 100
3, 73800, Note_on_c, 0, 64, 100
3, 73800, Note_on_c, 0, 64, 100
3, 73916, Note_on_c, 0, 64, 0
3, 73916, Note_on_c, 0, 52, 0
3, 73916, Note_on_c, 0, 52, 0
3, 73916, Note_on_c, 0, 64, 0
3, 73920, Note_on_c, 0, 62, 100
3, 73920, Note_on_c, 0, 62, 100
3, 74036, Note_on_c, 0, 62, 0
3, 74036, Note_on_c, 0, 62, 0
3, 74040, Note_on_c, 0, 60, 100
3, 74040, Note_on_c, 0, 60, 100
3, 74156, Note_on_c, 0, 60, 0
3, 74156, Note_on_c, 0, 60, 0
3, 74160, Note_on_c, 0, 59, 100
3, 74160, Note_on_c, 0, 59, 100
3, 74276, Note_on_c, 0, 59, 0
3, 74276, Note_on_c, 0, 59, 0
3, 74280, Note_on_c, 0, 57, 100
3, 74280, Note_on_c, 0, 57, 100
3, 74396, Note_on_c, 0, 57, 0
3, 74396, Note_on_c, 0, 57, 0
3, 74400, Note_on_c, 0, 55, 100
3, 74400, Note_on_c, 0, 55, 100
3, 74516, Note_on_c, 0, 55, 0
3, 74516, Note_on_c, 0, 55, 0
3, 74520, Note_on_c, 0, 54, 100
3, 74520, Note_on_c, 0, 54, 100
3, 74636, Note_on_c, 0, 54, 0
3, 74636, Note_on_c, 0, 54, 0
3, 74640, Note_on_c, 0, 52, 100
3, 74640, Note_on_c, 0, 52, 100
3, 74760, Note_on_c, 0, 55, 100
3, 74760, Note_on_c, 0, 55, 100
3, 74876, Note_on_c, 0, 55, 0
3, 74876, Note_on_c, 0, 55, 0
3, 74880, Note_on_c, 0, 59, 100
3, 74880, Note_on_c, 0, 59, 100
3, 74996, Note_on_c, 0, 59, 0
3, 74996, Note_on_c, 0, 59, 0
3, 75000, Note_on_c, 0, 64, 100
3, 75000, Note_on_c, 0, 64, 100
3, 75116, Note_on_c, 0, 64, 0
3, 75116, Note_on_c, 0, 52, 0
3, 75116, Note_on_c, 0, 52, 0
3, 75116, Note_on_c, 0, 64, 0
3, 75120, Note_on_c, 0, 63, 100
3, 75120, Note_on_c, 0, 63, 100
3, 75240, Note_on_c, 0, 47, 100
3, 75240, Note_on_c, 0, 47, 100
3, 75356, Note_on_c, 0, 47, 0
3, 75356, Note_on_c, 0, 47, 0
3, 75360, Note_on_c, 0, 51, 100
3, 75360, Note_on_c, 0, 51, 100
3, 75476, Note_on_c, 0, 51, 0
3, 75476, Note_on_c, 0, 51, 0
3, 75480, Note_on_c, 0, 54, 100
3, 75480, Note_on_c, 0, 54, 100
3, 75596, Note_on_c, 0, 54, 0
3, 75596, Note_on_c, 0, 63, 0
3, 75596, Note_on_c, 0, 63, 0
3, 75596, Note_on_c, 0, 54, 0
3, 75600, Note_on_c, 0, 59, 100
3, 75600, Note_on_c, 0, 59, 100
3, 75720, Note_on_c, 0, 64, 100
3, 75720, Note_on_c, 0, 64, 100
3, 75836, Note_on_c, 0, 64, 0
3, 75836, Note_on_c, 0, 59, 0
3, 75836, Note_on_c, 0, 59, 0
3, 75836, Note_on_c, 0, 64, 0
3, 75840, Note_on_c, 0, 49, 100
3, 75840, Note_on_c, 0, 49, 100
3, 75840, Note_on_c, 0, 63, 100
3, 75840, Note_on_c, 0, 63, 100
3, 75956, Note_on_c, 0, 63, 0
3, 75956, Note_on_c, 0, 63, 0
3, 75960, Note_on_c, 0, 64, 100
3, 75960, Note_on_c, 0, 64, 100
3, 76076, Note_on_c, 0, 64, 0
3, 76076, Note_on_c, 0, 49, 0
3, 76076, Note_on_c, 0, 49, 0
3, 76076, Note_on_c, 0, 64, 0
3, 76080, Note_on_c, 0, 51, 100
3, 76080, Note_on_c, 0, 51, 100
3, 76080, Note_on_c, 0, 66, 100
3, 76080, Note_on_c, 0, 66, 100
3, 76196, Note_on_c, 0, 66, 0
3, 76196, Note_on_c, 0, 66, 0
3, 76200, Note_on_c, 0, 59, 100
3, 76200, Note_on_c, 0, 59, 100
3, 76316, Note_on_c, 0, 59, 0
3, 76316, Note_on_c, 0, 51, 0
3, 76316, Note_on_c, 0, 51, 0
3, 76316, Note_on_c, 0, 59, 0
3, 76320, Note_on_c, 0, 52, 100
3, 76320, Note_on_c, 0, 52, 100
3, 76320, Note_on_c, 0, 64, 100
3, 76320, Note_on_c, 0, 64, 100
3, 76436, Note_on_c, 0, 64, 0
3, 76436, Note_on_c, 0, 64, 0
3, 76440, Note_on_c, 0, 67, 100
3, 76440, Note_on_c, 0, 67, 100
3, 76556, Note_on_c, 0, 67, 0
3, 76556, Note_on_c, 0, 52, 0
3, 76556, Note_on_c, 0, 52, 0
3, 76556, Note_on_c, 0, 67, 0
3, 76560, Note_on_c, 0, 45, 100
3, 76560, Note_on_c, 0, 45, 100
3, 76560, Note_on_c, 0, 66, 100
3, 76560, Note_on_c, 0, 66, 100
3, 76676, Note_on_c, 0, 66, 0
3, 76676, Note_on_c, 0, 66, 0
3, 76680, Note_on_c, 0, 61, 100
3, 76680, Note_on_c, 0, 61, 100
3, 76796, Note_on_c, 0, 61, 0
3, 76796, Note_on_c, 0, 45, 0
3, 76796, Note_on_c, 0, 45, 0
3, 76796, Note_on_c, 0, 61, 0
3, 76800, Note_on_c, 0, 47, 100
3, 76800, Note_on_c, 0, 47, 100
3, 76800, Note_on_c, 0, 63, 100
3, 76800, Note_on_c, 0, 63, 100
3, 76916, Note_on_c, 0, 63, 0
3, 76916, Note_on_c, 0, 63, 0
3, 76920, Note_on_c, 0, 57, 100
3, 76920, Note_on_c, 0, 57, 100
3, 77036, Note_on_c, 0, 57, 0
3, 77036, Note_on_c, 0, 47, 0
3, 77036, Note_on_c, 0, 47, 0
3, 77036, Note_on_c, 0, 57, 0
3, 77040, Note_on_c, 0, 40, 100
3, 77040, Note_on_c, 0, 40, 100
3, 77040, Note_on_c, 0, 55, 100
3, 77040, Note_on_c, 0, 55, 100
3, 77156, Note_on_c, 0, 55, 0
3, 77156, Note_on_c, 0, 55, 0
3, 77160, Note_on_c, 0, 59, 100
3, 77160, Note_on_c, 0, 59, 100
3, 77276, Note_on_c, 0, 59, 0
3, 77276, Note_on_c, 0, 59, 0
3, 77280, Note_on_c, 0, 64, 100
3, 77280, Note_on_c, 0, 64, 100
3, 77400, Note_on_c, 0, 47, 100
3, 77400, Note_on_c, 0, 47, 100
3, 77516, Note_on_c, 0, 47, 0
3, 77516, Note_on_c, 0, 47, 0
3, 77520, Note_on_c, 0, 52, 100
3, 77520, Note_on_c, 0, 52, 100
3, 77636, Note_on_c, 0, 64, 0
3, 77636, Note_on_c, 0, 64, 0
3, 77640, Note_on_c, 0, 59, 100
3, 77640, Note_on_c, 0, 59, 100
3, 77756, Note_on_c, 0, 59, 0
3, 77756, Note_on_c, 0, 40, 0
3, 77756, Note_on_c, 0, 40, 0
3, 77756, Note_on_c, 0, 59, 0
3, 77760, Note_on_c, 0, 40, 100
3, 77760, Note_on_c, 0, 40, 100
3, 77760, Note_on_c, 0, 60, 100
3, 77760, Note_on_c, 0, 60, 100
3, 77876, Note_on_c, 0, 60, 0
3, 77876, Note_on_c, 0, 60, 0
3, 77880, Note_on_c, 0, 62, 100
3, 77880, Note_on_c, 0, 62, 100
3, 77996, Note_on_c, 0, 62, 0
3, 77996, Note_on_c, 0, 40, 0
3, 77996, Note_on_c, 0, 40, 0
3, 77996, Note_on_c, 0, 62, 0
3, 78000, Note_on_c, 0, 45, 100
3, 78000, Note_on_c, 0, 45, 100
3, 78000, Note_on_c, 0, 60, 100
3, 78000, Note_on_c, 0, 60, 100
3, 78116, Note_on_c, 0, 60, 0
3, 78116, Note_on_c, 0, 60, 0
3, 78120, Note_on_c, 0, 59, 100
3, 78120, Note_on_c, 0, 59, 100
3, 78236, Note_on_c, 0, 59, 0
3, 78236, Note_on_c, 0, 52, 0
3, 78236, Note_on_c, 0, 45, 0
3, 78236, Note_on_c, 0, 52, 0
3, 78236, Note_on_c, 0, 59, 0
3, 78236, Note_on_c, 0, 45, 0
3, 78240, Note_on_c, 0, 47, 100
3, 78240, Note_on_c, 0, 47, 100
3, 78240, Note_on_c, 0, 57, 100
3, 78240, Note_on_c, 0, 57, 100
3, 78356, Note_on_c, 0, 57, 0
3, 78356, Note_on_c, 0, 57, 0
3, 78360, Note_on_c, 0, 55, 100
3, 78360, Note_on_c, 0, 55, 100
3, 78476, Note_on_c, 0, 55, 0
3, 78476, Note_on_c, 0, 47, 0
3, 78476, Note_on_c, 0, 47, 0
3, 78476, Note_on_c, 0, 55, 0
3, 78480, Note_on_c, 0, 50, 100
3, 78480, Note_on_c, 0, 50, 100
3, 78480, Note_on_c, 0, 54, 100
3, 78480, Note_on_c, 0, 54, 100
3, 78596, Note_on_c, 0, 54, 0
3, 78596, Note_on_c, 0, 54, 0
3, 78600, Note_on_c, 0, 57, 100
3, 78600, Note_on_c, 0, 57, 100
3, 78716, Note_on_c, 0, 57, 0
3, 78716, Note_on_c, 0, 50, 0
3, 78716, Note_on_c, 0, 50, 0
3, 78716, Note_on_c, 0, 57, 0
3, 78720, Note_on_c, 0, 38, 100
3, 78720, Note_on_c, 0, 50, 100
3, 78720, Note_on_c, 0, 62, 100
3, 78720, Note_on_c, 0, 62, 100
3, 78836, Note_on_c, 0, 62, 0
3, 78836, Note_on_c, 0, 62, 0
3, 78840, Note_on_c, 0, 57, 100
3, 78840, Note_on_c, 0, 57, 100
3, 78956, Note_on_c, 0, 57, 0
3, 78956, Note_on_c, 0, 38, 0
3, 78956, Note_on_c, 0, 50, 0
3, 78956, Note_on_c, 0, 57, 0
3, 78960, Note_on_c, 0, 43, 100
3, 78960, Note_on_c, 0, 43, 100
3, 78960, Note_on_c, 0, 59, 100
3, 78960, Note_on_c, 0, 59, 100
3, 79080, Note_on_c, 0, 54, 100
3, 79080, Note_on_c, 0, 54, 100
3, 79196, Note_on_c, 0, 54, 0
3, 79196, Note_on_c, 0, 54, 0
3, 79200, Note_on_c, 0, 55, 100
3, 79200, Note_on_c, 0, 55, 100
3, 79320, Note_on_c, 0, 50, 100
3, 79320, Note_on_c, 0, 50, 100
3, 79436, Note_on_c, 0, 50, 0
3, 79436, Note_on_c, 0, 43, 0
3, 79436, Note_on_c, 0, 55, 0
3, 79436, Note_on_c, 0, 43, 0
3, 79436, Note_on_c, 0, 59, 0
3, 79436, Note_on_c, 0, 59, 0
3, 79436, Note_on_c, 0, 55, 0
3, 79436, Note_on_c, 0, 50, 0
3, 79440, Note_on_c, 0, 52, 100
3, 79440, Note_on_c, 0, 52, 100
3, 79556, Note_on_c, 0, 52, 0
3, 79556, Note_on_c, 0, 52, 0
3, 79560, Note_on_c, 0, 47, 100
3, 79560, Note_on_c, 0, 47, 100
3, 79560, Note_on_c, 0, 62, 100
3, 79560, Note_on_c, 0, 62, 100
3, 79676, Note_on_c, 0, 62, 0
3, 79676, Note_on_c, 0, 47, 0
3, 79676, Note_on_c, 0, 47, 0
3, 79676, Note_on_c, 0, 62, 0
3, 79680, Note_on_c, 0, 48, 100
3, 79680, Note_on_c, 0, 48, 100
3, 79680, Note_on_c, 0, 60, 100
3, 79680, Note_on_c, 0, 60, 100
3, 79796, Note_on_c, 0, 60, 0
3, 79796, Note_on_c, 0, 48, 0
3, 79796, Note_on_c, 0, 48, 0
3, 79796, Note_on_c, 0, 60, 0
3, 79800, Note_on_c, 0, 50, 100
3, 79800, Note_on_c, 0, 50, 100
3, 79800, Note_on_c, 0, 59, 100
3, 79800, Note_on_c, 0, 59, 100
3, 79916, Note_on_c, 0, 59, 0
3, 79916, Note_on_c, 0, 50, 0
3, 79916, Note_on_c, 0, 50, 0
3, 79916, Note_on_c, 0, 59, 0
3, 79920, Note_on_c, 0, 48, 100
3, 79920, Note_on_c, 0, 48, 100
3, 79920, Note_on_c, 0, 64, 100
3, 79920, Note_on_c, 0, 64, 100
3, 80040, Note_on_c, 0, 59, 100
3, 80040, Note_on_c, 0, 59, 100
3, 80156, Note_on_c, 0, 59, 0
3, 80156, Note_on_c, 0, 64, 0
3, 80156, Note_on_c, 0, 64, 0
3, 80156, Note_on_c, 0, 59, 0
3, 80160, Note_on_c, 0, 60, 100
3, 80160, Note_on_c, 0, 60, 100
3, 80276, Note_on_c, 0, 60, 0
3, 80276, Note_on_c, 0, 60, 0
3, 80280, Note_on_c, 0, 62, 100
3, 80280, Note_on_c, 0, 62, 100
3, 80396, Note_on_c, 0, 62, 0
3, 80396, Note_on_c, 0, 48, 0
3, 80396, Note_on_c, 0, 48, 0
3, 80396, Note_on_c, 0, 62, 0
3, 80400, Note_on_c, 0, 60, 100
3, 80400, Note_on_c, 0, 60, 100
3, 80516, Note_on_c, 0, 60, 0
3, 80516, Note_on_c, 0, 60, 0
3, 80520, Note_on_c, 0, 59, 100
3, 80520, Note_on_c, 0, 59, 100
3, 80636, Note_on_c, 0, 59, 0
3, 80636, Note_on_c, 0, 59, 0
3, 80640, Note_on_c, 0, 57, 100
3, 80640, Note_on_c, 0, 57, 100
3, 80756, Note_on_c, 0, 57, 0
3, 80756, Note_on_c, 0, 57, 0
3, 80760, Note_on_c, 0, 55, 100
3, 80760, Note_on_c, 0, 55, 100
3, 80876, Note_on_c, 0, 55, 0
3, 80876, Note_on_c, 0, 55, 0
3, 80880, Note_on_c, 0, 54, 100
3, 80880, Note_on_c, 0, 54, 100
3, 80996, Note_on_c, 0, 54, 0
3, 80996, Note_on_c, 0, 54, 0
3, 81000, Note_on_c, 0, 52, 100
3, 81000, Note_on_c, 0, 52, 100
3, 81116, Note_on_c, 0, 52, 0
3, 81116, Note_on_c, 0, 52, 0
3, 81120, Note_on_c, 0, 50, 100
3, 81120, Note_on_c, 0, 50, 100
3, 81236, Note_on_c, 0, 50, 0
3, 81236, Note_on_c, 0, 50, 0
3, 81240, Note_on_c, 0, 48, 100
3, 81240, Note_on_c, 0, 48, 100
3, 81356, Note_on_c, 0, 48, 0
3, 81356, Note_on_c, 0, 48, 0
3, 81360, Note_on_c, 0, 47, 100
3, 81360, Note_on_c, 0, 47, 100
3, 81480, Note_on_c, 0, 50, 100
3, 81480, Note_on_c, 0, 50, 100
3, 81596, Note_on_c, 0, 50, 0
3, 81596, Note_on_c, 0, 50, 0
3, 81600, Note_on_c, 0, 55, 100
3, 81600, Note_on_c, 0, 55, 100
3, 81716, Note_on_c, 0, 55, 0
3, 81716, Note_on_c, 0, 55, 0
3, 81720, Note_on_c, 0, 59, 100
3, 81720, Note_on_c, 0, 59, 100
3, 81836, Note_on_c, 0, 59, 0
3, 81836, Note_on_c, 0, 47, 0
3, 81836, Note_on_c, 0, 47, 0
3, 81836, Note_on_c, 0, 59, 0
3, 81840, Note_on_c, 0, 48, 100
3, 81840, Note_on_c, 0, 48, 100
3, 81840, Note_on_c, 0, 57, 100
3, 81840, Note_on_c, 0, 57, 100
3, 81956, Note_on_c, 0, 57, 0
3, 81956, Note_on_c, 0, 57, 0
3, 81960, Note_on_c, 0, 59, 100
3, 81960, Note_on_c, 0, 59, 100
3, 82076, Note_on_c, 0, 59, 0
3, 82076, Note_on_c, 0, 48, 0
3, 82076, Note_on_c, 0, 48, 0
3, 82076, Note_on_c, 0, 59, 0
3, 82080, Note_on_c, 0, 49, 100
3, 82080, Note_on_c, 0, 49, 100
3, 82080, Note_on_c, 0, 52, 100
3, 82080, Note_on_c, 0, 52, 100
3, 82196, Note_on_c, 0, 52, 0
3, 82196, Note_on_c, 0, 52, 0
3, 82200, Note_on_c, 0, 55, 100
3, 82200, Note_on_c, 0, 55, 100
3, 82316, Note_on_c, 0, 55, 0
3, 82316, Note_on_c, 0, 49, 0
3, 82316, Note_on_c, 0, 49, 0
3, 82316, Note_on_c, 0, 55, 0
3, 82320, Note_on_c, 0, 50, 100
3, 82320, Note_on_c, 0, 50, 100
3, 82320, Note_on_c, 0, 54, 100
3, 82320, Note_on_c, 0, 54, 100
3, 82436, Note_on_c, 0, 54, 0
3, 82436, Note_on_c, 0, 54, 0
3, 82440, Note_on_c, 0, 59, 100
3, 82440, Note_on_c, 0, 59, 100
3, 82556, Note_on_c, 0, 59, 0
3, 82556, Note_on_c, 0, 50, 0
3, 82556, Note_on_c, 0, 50, 0
3, 82556, Note_on_c, 0, 59, 0
3, 82560, Note_on_c, 0, 51, 100
3, 82560, Note_on_c, 0, 51, 100
3, 82560, Note_on_c, 0, 54, 100
3, 82560, Note_on_c, 0, 54, 100
3, 82676, Note_on_c, 0, 54, 0
3, 82676, Note_on_c, 0, 54, 0
3, 82680, Note_on_c, 0, 57, 100
3, 82680, Note_on_c, 0, 57, 100
3, 82796, Note_on_c, 0, 57, 0
3, 82796, Note_on_c, 0, 51, 0
3, 82796, Note_on_c, 0, 51, 0
3, 82796, Note_on_c, 0, 57, 0
3, 82800, Note_on_c, 0, 52, 100
3, 82800, Note_on_c, 0, 52, 100
3, 82800, Note_on_c, 0, 55, 100
3, 82800, Note_on_c, 0, 55, 100
3, 82916, Note_on_c, 0, 55, 0
3, 82916, Note_on_c, 0, 55, 0
3, 82920, Note_on_c, 0, 57, 100
3, 82920, Note_on_c, 0, 57, 100
3, 83036, Note_on_c, 0, 57, 0
3, 83036, Note_on_c, 0, 52, 0
3, 83036, Note_on_c, 0, 52, 0
3, 83036, Note_on_c, 0, 57, 0
3, 83040, Note_on_c, 0, 55, 100
3, 83040, Note_on_c, 0, 55, 100
3, 83156, Note_on_c, 0, 55, 0
3, 83156, Note_on_c, 0, 55, 0
3, 83160, Note_on_c, 0, 54, 100
3, 83160, Note_on_c, 0, 54, 100
3, 83276, Note_on_c, 0, 54, 0
3, 83276, Note_on_c, 0, 54, 0
3, 83280, Note_on_c, 0, 52, 100
3, 83280, Note_on_c, 0, 52, 100
3, 83396, Note_on_c, 0, 52, 0
3, 83396, Note_on_c, 0, 52, 0
3, 83400, Note_on_c, 0, 50, 100
3, 83400, Note_on_c, 0, 50, 100
3, 83516, Note_on_c, 0, 50, 0
3, 83516, Note_on_c, 0, 50, 0
3, 83520, Note_on_c, 0, 49, 100
3, 83520, Note_on_c, 0, 49, 100
3, 83636, Note_on_c, 0, 49, 0
3, 83636, Note_on_c, 0, 49, 0
3, 83640, Note_on_c, 0, 47, 100
3, 83640, Note_on_c, 0, 47, 100
3, 83756, Note_on_c, 0, 47, 0
3, 83756, Note_on_c, 0, 47, 0
3, 83760, Note_on_c, 0, 46, 100
3, 83760, Note_on_c, 0, 46, 100
3, 83880, Note_on_c, 0, 61, 100
3, 83880, Note_on_c, 0, 61, 100
3, 84000, Note_on_c, 0, 54, 100
3, 84000, Note_on_c, 0, 54, 100
3, 84116, Note_on_c, 0, 61, 0
3, 84116, Note_on_c, 0, 61, 0
3, 84120, Note_on_c, 0, 61, 100
3, 84120, Note_on_c, 0, 61, 100
3, 84236, Note_on_c, 0, 61, 0
3, 84236, Note_on_c, 0, 54, 0
3, 84236, Note_on_c, 0, 46, 0
3, 84236, Note_on_c, 0, 46, 0
3, 84236, Note_on_c, 0, 61, 0
3, 84236, Note_on_c, 0, 54, 0
3, 84240, Note_on_c, 0, 47, 100
3, 84240, Note_on_c, 0, 47, 100
3, 84240, Note_on_c, 0, 62, 100
3, 84240, Note_on_c, 0, 62, 100
3, 84360, Note_on_c, 0, 59, 100
3, 84360, Note_on_c, 0, 59, 100
3, 84476, Note_on_c, 0, 59, 0
3, 84476, Note_on_c, 0, 47, 0
3, 84476, Note_on_c, 0, 62, 0
3, 84476, Note_on_c, 0, 47, 0
3, 84476, Note_on_c, 0, 59, 0
3, 84476, Note_on_c, 0, 62, 0
3, 84480, Note_on_c, 0, 49, 100
3, 84480, Note_on_c, 0, 49, 100
3, 84480, Note_on_c, 0, 64, 100
3, 84480, Note_on_c, 0, 64, 100
3, 84600, Note_on_c, 0, 59, 100
3, 84600, Note_on_c, 0, 59, 100
3, 84716, Note_on_c, 0, 59, 0
3, 84716, Note_on_c, 0, 49, 0
3, 84716, Note_on_c, 0, 64, 0
3, 84716, Note_on_c, 0, 49, 0
3, 84716, Note_on_c, 0, 59, 0
3, 84716, Note_on_c, 0, 64, 0
3, 84720, Note_on_c, 0, 50, 100
3, 84720, Note_on_c, 0, 50, 100
3, 84720, Note_on_c, 0, 66, 100
3, 84720, Note_on_c, 0, 66, 100
3, 84836, Note_on_c, 0, 66, 0
3, 84836, Note_on_c, 0, 66, 0
3, 84840, Note_on_c, 0, 59, 100
3, 84840, Note_on_c, 0, 59, 100
3, 84956, Note_on_c, 0, 59, 0
3, 84956, Note_on_c, 0, 50, 0
3, 84956, Note_on_c, 0, 50, 0
3, 84956, Note_on_c, 0, 59, 0
3, 84960, Note_on_c, 0, 47, 100
3, 84960, Note_on_c, 0, 47, 100
3, 84960, Note_on_c, 0, 71, 100
3, 84960, Note_on_c, 0, 71, 100
3, 85076, Note_on_c, 0, 71, 0
3, 85076, Note_on_c, 0, 71, 0
3, 85080, Note_on_c, 0, 69, 100
3, 85080, Note_on_c, 0, 69, 100
3, 85196, Note_on_c, 0, 69, 0
3, 85196, Note_on_c, 0, 47, 0
3, 85196, Note_on_c, 0, 47, 0
3, 85196, Note_on_c, 0, 69, 0
3, 85200, Note_on_c, 0, 52, 100
3, 85200, Note_on_c, 0, 52, 100
3, 85200, Note_on_c, 0, 67, 100
3, 85200, Note_on_c, 0, 67, 100
3, 85316, Note_on_c, 0, 67, 0
3, 85316, Note_on_c, 0, 67, 0
3, 85320, Note_on_c, 0, 66, 100
3, 85320, Note_on_c, 0, 66, 100
3, 85436, Note_on_c, 0, 66, 0
3, 85436, Note_on_c, 0, 52, 0
3, 85436, Note_on_c, 0, 52, 0
3, 85436, Note_on_c, 0, 66, 0
3, 85440, Note_on_c, 0, 54, 100
3, 85440, Note_on_c, 0, 54, 100
3, 85440, Note_on_c, 0, 64, 100
3, 85440, Note_on_c, 0, 64, 100
3, 85556, Note_on_c, 0, 64, 0
3, 85556, Note_on_c, 0, 64, 0
3, 85560, Note_on_c, 0, 62, 100
3, 85560, Note_on_c, 0, 62, 100
3, 85676, Note_on_c, 0, 62, 0
3, 85676, Note_on_c, 0, 54, 0
3, 85676, Note_on_c, 0, 54, 0
3, 85676, Note_on_c, 0, 62, 0
3, 85680, Note_on_c, 0, 55, 100
3, 85680, Note_on_c, 0, 55, 100
3, 85680, Note_on_c, 0, 61, 100
3, 85680, Note_on_c, 0, 61, 100
3, 85796, Note_on_c, 0, 61, 0
3, 85796, Note_on_c, 0, 61, 0
3, 85800, Note_on_c, 0, 59, 100
3, 85800, Note_on_c, 0, 59, 100
3, 85916, Note_on_c, 0, 59, 0
3, 85916, Note_on_c, 0, 55, 0
3, 85916, Note_on_c, 0, 55, 0
3, 85916, Note_on_c, 0, 59, 0
3, 85920, Note_on_c, 0, 52, 100
3, 85920, Note_on_c, 0, 52, 100
3, 85920, Note_on_c, 0, 58, 100
3, 85920, Note_on_c, 0, 58, 100
3, 86036, Note_on_c, 0, 58, 0
3, 86036, Note_on_c, 0, 58, 0
3, 86040, Note_on_c, 0, 59, 100
3, 86040, Note_on_c, 0, 59, 100
3, 86156, Note_on_c, 0, 59, 0
3, 86156, Note_on_c, 0, 52, 0
3, 86156, Note_on_c, 0, 52, 0
3, 86156, Note_on_c, 0, 59, 0
3, 86160, Note_on_c, 0, 54, 100
3, 86160, Note_on_c, 0, 54, 100
3, 86160, Note_on_c, 0, 59, 100
3, 86160, Note_on_c, 0, 59, 100
3, 86396, Note_on_c, 0, 54, 0
3, 86396, Note_on_c, 0, 54, 0
3, 86400, Note_on_c, 0, 42, 100
3, 86400, Note_on_c, 0, 42, 100
3, 86516, Note_on_c, 0, 59, 0
3, 86516, Note_on_c, 0, 59, 0
3, 86520, Note_on_c, 0, 58, 100
3, 86520, Note_on_c, 0, 58, 100
3, 86636, Note_on_c, 0, 58, 0
3, 86636, Note_on_c, 0, 42, 0
3, 86636, Note_on_c, 0, 42, 0
3, 86636, Note_on_c, 0, 58, 0
3, 86640, Note_on_c, 0, 59, 100
3, 86640, Note_on_c, 0, 59, 100
3, 86760, Note_on_c, 0, 47, 100
3, 86760, Note_on_c, 0, 47, 100
3, 86876, Note_on_c, 0, 47, 0
3, 86876, Note_on_c, 0, 47, 0
3, 86880, Note_on_c, 0, 49, 100
3, 86880, Note_on_c, 0, 49, 100
3, 86996, Note_on_c, 0, 49, 0
3, 86996, Note_on_c, 0, 49, 0
3, 87000, Note_on_c, 0, 51, 100
3, 87000, Note_on_c, 0, 51, 100
3, 87116, Note_on_c, 0, 51, 0
3, 87116, Note_on_c, 0, 59, 0
3, 87116, Note_on_c, 0, 59, 0
3, 87116, Note_on_c, 0, 51, 0
3, 87120, Note_on_c, 0, 52, 100
3, 87120, Note_on_c, 0, 52, 100
3, 87236, Note_on_c, 0, 52, 0
3, 87236, Note_on_c, 0, 52, 0
3, 87240, Note_on_c, 0, 54, 100
3, 87240, Note_on_c, 0, 54, 100
3, 87356, Note_on_c, 0, 54, 0
3, 87356, Note_on_c, 0, 54, 0
3, 87360, Note_on_c, 0, 56, 100
3, 87360, Note_on_c, 0, 56, 100
3, 87476, Note_on_c, 0, 56, 0
3, 87476, Note_on_c, 0, 56, 0
3, 87480, Note_on_c, 0, 58, 100
3, 87480, Note_on_c, 0, 58, 100
3, 87596, Note_on_c, 0, 58, 0
3, 87596, Note_on_c, 0, 58, 0
3, 87600, Note_on_c, 0, 59, 100
3, 87720, Note_on_c, 0, 52, 100
3, 87720, Note_on_c, 0, 52, 100
3, 87720, Note_on_c, 0, 55, 100
3, 87720, Note_on_c, 0, 55, 100
3, 87836, Note_on_c, 0, 55, 0
3, 87836, Note_on_c, 0, 52, 0
3, 87836, Note_on_c, 0, 55, 0
3, 87836, Note_on_c, 0, 52, 0
3, 87840, Note_on_c, 0, 51, 100
3, 87840, Note_on_c, 0, 51, 100
3, 87840, Note_on_c, 0, 54, 100
3, 87840, Note_on_c, 0, 54, 100
3, 87956, Note_on_c, 0, 54, 0
3, 87956, Note_on_c, 0, 51, 0
3, 87956, Note_on_c, 0, 54, 0
3, 87956, Note_on_c, 0, 51, 0
3, 87960, Note_on_c, 0, 49, 100
3, 87960, Note_on_c, 0, 49, 100
3, 87960, Note_on_c, 0, 52, 100
3, 87960, Note_on_c, 0, 52, 100
3, 88076, Note_on_c, 0, 52, 0
3, 88076, Note_on_c, 0, 49, 0
3, 88076, Note_on_c, 0, 52, 0
3, 88076, Note_on_c, 0, 49, 0
3, 88080, Note_on_c, 0, 47, 100
3, 88080, Note_on_c, 0, 47, 100
3, 88080, Note_on_c, 0, 51, 100
3, 88080, Note_on_c, 0, 54, 100
3, 88080, Note_on_c, 0, 54, 100
3, 88436, Note_on_c, 0, 54, 0
3, 88436, Note_on_c, 0, 47, 0
3, 88436, Note_on_c, 0, 47, 0
3, 88436, Note_on_c, 0, 51, 0
3, 88436, Note_on_c, 0, 54, 0
3, 88440, Note_on_c, 0, 59, 100
3, 88556, Note_on_c, 0, 59, 0
3, 88556, Note_on_c, 0, 59, 0
3, 88560, Note_on_c, 0, 59, 100
3, 88680, Note_on_c, 0, 40, 100
3, 88796, Note_on_c, 0, 40, 0
3, 88800, Note_on_c, 0, 43, 100
3, 88916, Note_on_c, 0, 43, 0
3, 88920, Note_on_c, 0, 47, 100
3, 89036, Note_on_c, 0, 47, 0
3, 89036, Note_on_c, 0, 59, 0
3, 89040, Note_on_c, 0, 52, 100
3, 89160, Note_on_c, 0, 64, 100
3, 89276, Note_on_c, 0, 64, 0
3, 89276, Note_on_c, 0, 52, 0
3, 89280, Note_on_c, 0, 62, 100
3, 89396, Note_on_c, 0, 62, 0
3, 89400, Note_on_c, 0, 60, 100
3, 89516, Note_on_c, 0, 60, 0
3, 89520, Note_on_c, 0, 59, 100
3, 89636, Note_on_c, 0, 59, 0
3, 89640, Note_on_c, 0, 57, 100
3, 89756, Note_on_c, 0, 57, 0
3, 89760, Note_on_c, 0, 55, 100
3, 89876, Note_on_c, 0, 55, 0
3, 89880, Note_on_c, 0, 54, 100
3, 89996, Note_on_c, 0, 54, 0
3, 90000, Note_on_c, 0, 52, 100
3, 90120, Note_on_c, 0, 55, 100
3, 90236, Note_on_c, 0, 55, 0
3, 90240, Note_on_c, 0, 59, 100
3, 90356, Note_on_c, 0, 59, 0
3, 90360, Note_on_c, 0, 64, 100
3, 90476, Note_on_c, 0, 64, 0
3, 90476, Note_on_c, 0, 52, 0
3, 90480, Note_on_c, 0, 63, 100
3, 90600, Note_on_c, 0, 47, 100
3, 90716, Note_on_c, 0, 47, 0
3, 90720, Note_on_c, 0, 51, 100
3, 90836, Note_on_c, 0, 51, 0
3, 90840, Note_on_c, 0, 54, 100
3, 90956, Note_on_c, 0, 54, 0
3, 90956, Note_on_c, 0, 63, 0
3, 90960, Note_on_c, 0, 59, 100
3, 91080, Note_on_c, 0, 64, 100
3, 91196, Note_on_c, 0, 64, 0
3, 91196, Note_on_c, 0, 59, 0
3, 91200, Note_on_c, 0, 49, 100
3, 91200, Note_on_c, 0, 63, 100
3, 91316, Note_on_c, 0, 63, 0
3, 91320, Note_on_c, 0, 64, 100
3, 91436, Note_on_c, 0, 64, 0
3, 91436, Note_on_c, 0, 49, 0
3, 91440, Note_on_c, 0, 51, 100
3, 91440, Note_on_c, 0, 66, 100
3, 91556, Note_on_c, 0, 66, 0
3, 91560, Note_on_c, 0, 59, 100
3, 91676, Note_on_c, 0, 59, 0
3, 91676, Note_on_c, 0, 51, 0
3, 91680, Note_on_c, 0, 52, 100
3, 91680, Note_on_c, 0, 64, 100
3, 91796, Note_on_c, 0, 64, 0
3, 91800, Note_on_c, 0, 67, 100
3, 91916, Note_on_c, 0, 67, 0
3, 91916, Note_on_c, 0, 52, 0
3, 91920, Note_on_c, 0, 45, 100
3, 91920, Note_on_c, 0, 66, 100
3, 92036, Note_on_c, 0, 66, 0
3, 92040, Note_on_c, 0, 61, 100
3, 92156, Note_on_c, 0, 61, 0
3, 92156, Note_on_c, 0, 45, 0
3, 92160, Note_on_c, 0, 47, 100
3, 92160, Note_on_c, 0, 63, 100
3, 92276, Note_on_c, 0, 63, 0
3, 92280, Note_on_c, 0, 57, 100
3, 92396, Note_on_c, 0, 57, 0
3, 92396, Note_on_c, 0, 47, 0
3, 92400, Note_on_c, 0, 40, 100
3, 92400, Note_on_c, 0, 55, 100
3, 92516, Note_on_c, 0, 55, 0
3, 92520, Note_on_c, 0, 59, 100
3, 92636, Note_on_c, 0, 59, 0
3, 92640, Note_on_c, 0, 64, 100
3, 92760, Note_on_c, 0, 47, 100
3, 92876, Note_on_c, 0, 47, 0
3, 92880, Note_on_c, 0, 52, 100
3, 92996, Note_on_c, 0, 64, 0
3, 93000, Note_on_c, 0, 59, 100
3, 93116, Note_on_c, 0, 59, 0
3, 93116, Note_on_c, 0, 40, 0
3, 93120, Note_on_c, 0, 40, 100
3, 93120, Note_on_c, 0, 60, 100
3, 93236, Note_on_c, 0, 60, 0
3, 93240, Note_on_c, 0, 62, 100
3, 93356, Note_on_c, 0, 62, 0
3, 93356, Note_on_c, 0, 40, 0
3, 93360, Note_on_c, 0, 45, 100
3, 93360, Note_on_c, 0, 60, 100
3, 93476, Note_on_c, 0, 60, 0
3, 93480, Note_on_c, 0, 59, 100
3, 93596, Note_on_c, 0, 59, 0
3, 93596, Note_on_c, 0, 45, 0
3, 93596, Note_on_c, 0, 52, 0
3, 93600, Note_on_c, 0, 47, 100
3, 93600, Note_on_c, 0, 57, 100
3, 93716, Note_on_c, 0, 57, 0
3, 93720, Note_on_c, 0, 55, 100
3, 93836, Note_on_c, 0, 55, 0
3, 93836, Note_on_c, 0, 47, 0
3, 93840, Note_on_c, 0, 50, 100
3, 93840, Note_on_c, 0, 54, 100
3, 93956, Note_on_c, 0, 54, 0
3, 93960, Note_on_c, 0, 57, 100
3, 94076, Note_on_c, 0, 57, 0
3, 94076, Note_on_c, 0, 50, 0
3, 94080, Note_on_c, 0, 38, 100
3, 94080, Note_on_c, 0, 62, 100
3, 94196, Note_on_c, 0, 62, 0
3, 94200, Note_on_c, 0, 57, 100
3, 94316, Note_on_c, 0, 57, 0
3, 94316, Note_on_c, 0, 38, 0
3, 94320, Note_on_c, 0, 43, 100
3, 94320, Note_on_c, 0, 59, 100
3, 94440, Note_on_c, 0, 54, 100
3, 94556, Note_on_c, 0, 54, 0
3, 94560, Note_on_c, 0, 55, 100
3, 94680, Note_on_c, 0, 50, 100
3, 94796, Note_on_c, 0, 50, 0
3, 94796, Note_on_c, 0, 43, 0
3, 94796, Note_on_c, 0, 59, 0
3, 94796, Note_on_c, 0, 55, 0
3, 94800, Note_on_c, 0, 52, 100
3, 94916, Note_on_c, 0, 52, 0
3, 94920, Note_on_c, 0, 47, 100
3, 94920, Note_on_c, 0, 62, 100
3, 95036, Note_on_c, 0, 62, 0
3, 95036, Note_on_c, 0, 47, 0
3, 95040, Note_on_c, 0, 48, 100
3, 95040, Note_on_c, 0, 60, 100
3, 95156, Note_on_c, 0, 60, 0
3, 95156, Note_on_c, 0, 48, 0
3, 95160, Note_on_c, 0, 50, 100
3, 95160, Note_on_c, 0, 59, 100
3, 95276, Note_on_c, 0, 59, 0
3, 95276, Note_on_c, 0, 50, 0
3, 95280, Note_on_c, 0, 48, 100
3, 95280, Note_on_c, 0, 64, 100
3, 95400, Note_on_c, 0, 59, 100
3, 95516, Note_on_c, 0, 59, 0
3, 95516, Note_on_c, 0, 64, 0
3, 95520, Note_on_c, 0, 60, 100
3, 95636, Note_on_c, 0, 60, 0
3, 95640, Note_on_c, 0, 62, 100
3, 95756, Note_on_c, 0, 62, 0
3, 95756, Note_on_c, 0, 48, 0
3, 95760, Note_on_c, 0, 60, 100
3, 95876, Note_on_c, 0, 60, 0
3, 95880, Note_on_c, 0, 59, 100
3, 95996, Note_on_c, 0, 59, 0
3, 96000, Note_on_c, 0, 57, 100
3, 96116, Note_on_c, 0, 57, 0
3, 96120, Note_on_c, 0, 55, 100
3, 96236, Note_on_c, 0, 55, 0
3, 96240, Note_on_c, 0, 54, 100
3, 96356, Note_on_c, 0, 54, 0
3, 96360, Note_on_c, 0, 52, 100
3, 96476, Note_on_c, 0, 52, 0
3, 96480, Note_on_c, 0, 50, 100
3, 96596, Note_on_c, 0, 50, 0
3, 96600, Note_on_c, 0, 48, 100
3, 96716, Note_on_c, 0, 48, 0
3, 96720, Note_on_c, 0, 47, 100
3, 96840, Note_on_c, 0, 50, 100
3, 96956, Note_on_c, 0, 50, 0
3, 96960, Note_on_c, 0, 55, 100
3, 97076, Note_on_c, 0, 55, 0
3, 97080, Note_on_c, 0, 59, 100
3, 97196, Note_on_c, 0, 59, 0
3, 97196, Note_on_c, 0, 47, 0
3, 97200, Note_on_c, 0, 48, 100
3, 97200, Note_on_c, 0, 57, 100
3, 97316, Note_on_c, 0, 57, 0
3, 97320, Note_on_c, 0, 59, 100
3, 97436, Note_on_c, 0, 59, 0
3, 97436, Note_on_c, 0, 48, 0
3, 97440, Note_on_c, 0, 49, 100
3, 97440, Note_on_c, 0, 52, 100
3, 97556, Note_on_c, 0, 52, 0
3, 97560, Note_on_c, 0, 55, 100
3, 97676, Note_on_c, 0, 55, 0
3, 97676, Note_on_c, 0, 49, 0
3, 97680, Note_on_c, 0, 50, 100
3, 97680, Note_on_c, 0, 54, 100
3, 97796, Note_on_c, 0, 54, 0
3, 97800, Note_on_c, 0, 59, 100
3, 97916, Note_on_c, 0, 59, 0
3, 97916, Note_on_c, 0, 50, 0
3, 97920, Note_on_c, 0, 51, 100
3, 97920, Note_on_c, 0, 54, 100
3, 98036, Note_on_c, 0, 54, 0
3, 98040, Note_on_c, 0, 57, 100
3, 98156, Note_on_c, 0, 57, 0
3, 98156, Note_on_c, 0, 51, 0
3, 98160, Note_on_c, 0, 52, 100
3, 98160, Note_on_c, 0, 55, 100
3, 98276, Note_on_c, 0, 55, 0
3, 98280, Note_on_c, 0, 57, 100
3, 98396, Note_on_c, 0, 57, 0
3, 98396, Note_on_c, 0, 52, 0
3, 98400, Note_on_c, 0, 55, 100
3, 98516, Note_on_c, 0, 55, 0
3, 98520, Note_on_c, 0, 54, 100
3, 98636, Note_on_c, 0, 54, 0
3, 98640, Note_on_c, 0, 52, 100
3, 98756, Note_on_c, 0, 52, 0
3, 98760, Note_on_c, 0, 50, 100
3, 98876, Note_on_c, 0, 50, 0
3, 98880, Note_on_c, 0, 49, 100
3, 98996, Note_on_c, 0, 49, 0
3, 99000, Note_on_c, 0, 47, 100
3, 99116, Note_on_c, 0, 47, 0
3, 99120, Note_on_c, 0, 46, 100
3, 99240, Note_on_c, 0, 61, 100
3, 99360, Note_on_c, 0, 54, 100
3, 99476, Note_on_c, 0, 61, 0
3, 99480, Note_on_c, 0, 61, 100
3, 99596, Note_on_c, 0, 61, 0
3, 99596, Note_on_c, 0, 54, 0
3, 99596, Note_on_c, 0, 46, 0
3, 99600, Note_on_c, 0, 47, 100
3, 99600, Note_on_c, 0, 62, 100
3, 99720, Note_on_c, 0, 59, 100
3, 99836, Note_on_c, 0, 59, 0
3, 99836, Note_on_c, 0, 62, 0
3, 99836, Note_on_c, 0, 47, 0
3, 99840, Note_on_c, 0, 49, 100
3, 99840, Note_on_c, 0, 64, 100
3, 99960, Note_on_c, 0, 59, 100
3, 100076, Note_on_c, 0, 59, 0
3, 100076, Note_on_c, 0, 64, 0
3, 100076, Note_on_c, 0, 49, 0
3, 100080, Note_on_c, 0, 50, 100
3, 100080, Note_on_c, 0, 66, 100
3, 100196, Note_on_c, 0, 66, 0
3, 100200, Note_on_c, 0, 59, 100
3, 100316, Note_on_c, 0, 59, 0
3, 100316, Note_on_c, 0, 50, 0
3, 100320, Note_on_c, 0, 47, 100
3, 100320, Note_on_c, 0, 71, 100
3, 100436, Note_on_c, 0, 71, 0
3, 100440, Note_on_c, 0, 69, 100
3, 100556, Note_on_c, 0, 69, 0
3, 100556, Note_on_c, 0, 47, 0
3, 100560, Note_on_c, 0, 52, 100
3, 100560, Note_on_c, 0, 67, 100
3, 100676, Note_on_c, 0, 67, 0
3, 100680, Note_on_c, 0, 66, 100
3, 100796, Note_on_c, 0, 66, 0
3, 100796, Note_on_c, 0, 52, 0
3, 100800, Note_on_c, 0, 54, 100
3, 100800, Note_on_c, 0, 64, 100
3, 100916, Note_on_c, 0, 64, 0
3, 100920, Note_on_c, 0, 62, 100
3, 101036, Note_on_c, 0, 62, 0
3, 101036, Note_on_c, 0, 54, 0
3, 101040, Note_on_c, 0, 55, 100
3, 101040, Note_on_c, 0, 61, 100
3, 101156, Note_on_c, 0, 61, 0
3, 101160, Note_on_c, 0, 59, 100
3, 101276, Note_on_c, 0, 59, 0
3, 101276, Note_on_c, 0, 55, 0
3, 101280, Note_on_c, 0, 52, 100
3, 101280, Note_on_c, 0, 58, 100
3, 101396, Note_on_c, 0, 58, 0
3, 101400, Note_on_c, 0, 59, 100
3, 101516, Note_on_c, 0, 59, 0
3, 101516, Note_on_c, 0, 52, 0
3, 101520, Note_on_c, 0, 54, 100
3, 101520, Note_on_c, 0, 59, 100
3, 101756, Note_on_c, 0, 54, 0
3, 101760, Note_on_c, 0, 42, 100
3, 101876, Note_on_c, 0, 59, 0
3, 101880, Note_on_c, 0, 58, 100
3, 101996, Note_on_c, 0, 58, 0
3, 101996, Note_on_c, 0, 42, 0
3, 102000, Note_on_c, 0, 59, 100
3, 102120, Note_on_c, 0, 47, 100
3, 102236, Note_on_c, 0, 47, 0
3, 102240, Note_on_c, 0, 49, 100
3, 102356, Note_on_c, 0, 49, 0
3, 102360, Note_on_c, 0, 51, 100
3, 102476, Note_on_c, 0, 51, 0
3, 102476, Note_on_c, 0, 59, 0
3, 102480, Note_on_c, 0, 52, 100
3, 102596, Note_on_c, 0, 52, 0
3, 102600, Note_on_c, 0, 54, 100
3, 102716, Note_on_c, 0, 54, 0
3, 102720, Note_on_c, 0, 56, 100
3, 102836, Note_on_c, 0, 56, 0
3, 102840, Note_on_c, 0, 58, 100
3, 102956, Note_on_c, 0, 58, 0
3, 102960, Note_on_c, 0, 59, 100
3, 103080, Note_on_c, 0, 52, 100
3, 103080, Note_on_c, 0, 55, 100
3, 103196, Note_on_c, 0, 55, 0
3, 103196, Note_on_c, 0, 52, 0
3, 103200, Note_on_c, 0, 51, 100
3, 103200, Note_on_c, 0, 54, 100
3, 103316, Note_on_c, 0, 54, 0
3, 103316, Note_on_c, 0, 51, 0
3, 103320, Note_on_c, 0, 49, 100
3, 103320, Note_on_c, 0, 52, 100
3, 103436, Note_on_c, 0, 52, 0
3, 103436, Note_on_c, 0, 49, 0
3, 103440, Note_on_c, 0, 47, 100
3, 103440, Note_on_c, 0, 51, 100
3, 103440, Note_on_c, 0, 54, 100
3, 103796, Note_on_c, 0, 54, 0
3, 103796, Note_on_c, 0, 51, 0
3, 103796, Note_on_c, 0, 47, 0
3, 103800, Note_on_c, 0, 63, 100
3, 103916, Note_on_c, 0, 63, 0
3, 103916, Note_on_c, 0, 59, 0
3, 103920, Note_on_c, 0, 63, 100
3, 104040, Note_on_c, 0, 47, 100
3, 104156, Note_on_c, 0, 47, 0
3, 104160, Note_on_c, 0, 51, 100
3, 104276, Note_on_c, 0, 51, 0
3, 104280, Note_on_c, 0, 54, 100
3, 104396, Note_on_c, 0, 54, 0
3, 104396, Note_on_c, 0, 63, 0
3, 104400, Note_on_c, 0, 59, 100
3, 104520, Note_on_c, 0, 71, 100
3, 104636, Note_on_c, 0, 71, 0
3, 104636, Note_on_c, 0, 59, 0
3, 104640, Note_on_c, 0, 69, 100
3, 104756, Note_on_c, 0, 69, 0
3, 104760, Note_on_c, 0, 67, 100
3, 104876, Note_on_c, 0, 67, 0
3, 104880, Note_on_c, 0, 66, 100
3, 104996, Note_on_c, 0, 66, 0
3, 105000, Note_on_c, 0, 64, 100
3, 105116, Note_on_c, 0, 64, 0
3, 105120, Note_on_c, 0, 63, 100
3, 105236, Note_on_c, 0, 63, 0
3, 105240, Note_on_c, 0, 61, 100
3, 105356, Note_on_c, 0, 61, 0
3, 105360, Note_on_c, 0, 59, 100
3, 105480, Note_on_c, 0, 57, 100
3, 105596, Note_on_c, 0, 57, 0
3, 105596, Note_on_c, 0, 59, 0
3, 105600, Note_on_c, 0, 55, 100
3, 105600, Note_on_c, 0, 63, 100
3, 105716, Note_on_c, 0, 55, 0
3, 105720, Note_on_c, 0, 54, 100
3, 105836, Note_on_c, 0, 54, 0
3, 105836, Note_on_c, 0, 63, 0
3, 105840, Note_on_c, 0, 55, 100
3, 105840, Note_on_c, 0, 64, 100
3, 105956, Note_on_c, 0, 64, 0
3, 105956, Note_on_c, 0, 55, 0
3, 105960, Note_on_c, 0, 52, 100
3, 105960, Note_on_c, 0, 67, 100
3, 106076, Note_on_c, 0, 67, 0
3, 106076, Note_on_c, 0, 52, 0
3, 106080, Note_on_c, 0, 55, 100
3, 106080, Note_on_c, 0, 71, 100
3, 106196, Note_on_c, 0, 55, 0
3, 106200, Note_on_c, 0, 59, 100
3, 106316, Note_on_c, 0, 59, 0
3, 106320, Note_on_c, 0, 64, 100
3, 106436, Note_on_c, 0, 71, 0
3, 106440, Note_on_c, 0, 69, 100
3, 106556, Note_on_c, 0, 69, 0
3, 106556, Note_on_c, 0, 64, 0
3, 106560, Note_on_c, 0, 67, 100
3, 106676, Note_on_c, 0, 67, 0
3, 106680, Note_on_c, 0, 66, 100
3, 106796, Note_on_c, 0, 66, 0
3, 106800, Note_on_c, 0, 64, 100
3, 106916, Note_on_c, 0, 64, 0
3, 106920, Note_on_c, 0, 62, 100
3, 107036, Note_on_c, 0, 62, 0
3, 107040, Note_on_c, 0, 61, 100
3, 107156, Note_on_c, 0, 61, 0
3, 107160, Note_on_c, 0, 59, 100
3, 107276, Note_on_c, 0, 59, 0
3, 107280, Note_on_c, 0, 57, 100
3, 107400, Note_on_c, 0, 55, 100
3, 107516, Note_on_c, 0, 55, 0
3, 107516, Note_on_c, 0, 57, 0
3, 107520, Note_on_c, 0, 54, 100
3, 107520, Note_on_c, 0, 61, 100
3, 107636, Note_on_c, 0, 54, 0
3, 107640, Note_on_c, 0, 52, 100
3, 107756, Note_on_c, 0, 52, 0
3, 107756, Note_on_c, 0, 61, 0
3, 107760, Note_on_c, 0, 54, 100
3, 107760, Note_on_c, 0, 62, 100
3, 107876, Note_on_c, 0, 54, 0
3, 107880, Note_on_c, 0, 50, 100
3, 107996, Note_on_c, 0, 50, 0
3, 107996, Note_on_c, 0, 62, 0
3, 108000, Note_on_c, 0, 54, 100
3, 108120, Note_on_c, 0, 57, 100
3, 108236, Note_on_c, 0, 57, 0
3, 108236, Note_on_c, 0, 54, 0
3, 108240, Note_on_c, 0, 62, 100
3, 108356, Note_on_c, 0, 62, 0
3, 108360, Note_on_c, 0, 64, 100
3, 108476, Note_on_c, 0, 64, 0
3, 108480, Note_on_c, 0, 62, 100
3, 108596, Note_on_c, 0, 62, 0
3, 108600, Note_on_c, 0, 60, 100
3, 108716, Note_on_c, 0, 60, 0
3, 108720, Note_on_c, 0, 59, 100
3, 108836, Note_on_c, 0, 59, 0
3, 108840, Note_on_c, 0, 57, 100
3, 108956, Note_on_c, 0, 57, 0
3, 108960, Note_on_c, 0, 55, 100
3, 109076, Note_on_c, 0, 55, 0
3, 109080, Note_on_c, 0, 54, 100
3, 109196, Note_on_c, 0, 54, 0
3, 109200, Note_on_c, 0, 52, 100
3, 109320, Note_on_c, 0, 50, 100
3, 109436, Note_on_c, 0, 50, 0
3, 109436, Note_on_c, 0, 52, 0
3, 109440, Note_on_c, 0, 49, 100
3, 109556, Note_on_c, 0, 49, 0
3, 109560, Note_on_c, 0, 47, 100
3, 109560, Note_on_c, 0, 64, 100
3, 109676, Note_on_c, 0, 64, 0
3, 109676, Note_on_c, 0, 47, 0
3, 109680, Note_on_c, 0, 46, 100
3, 109680, Note_on_c, 0, 66, 100
3, 109796, Note_on_c, 0, 66, 0
3, 109800, Note_on_c, 0, 67, 100
3, 109916, Note_on_c, 0, 67, 0
3, 109916, Note_on_c, 0, 46, 0
3, 109920, Note_on_c, 0, 42, 100
3, 109920, Note_on_c, 0, 66, 100
3, 110036, Note_on_c, 0, 66, 0
3, 110040, Note_on_c, 0, 64, 100
3, 110156, Note_on_c, 0, 64, 0
3, 110156, Note_on_c, 0, 42, 0
3, 110160, Note_on_c, 0, 47, 100
3, 110160, Note_on_c, 0, 62, 100
3, 110276, Note_on_c, 0, 62, 0
3, 110280, Note_on_c, 0, 61, 100
3, 110396, Note_on_c, 0, 61, 0
3, 110396, Note_on_c, 0, 47, 0
3, 110400, Note_on_c, 0, 49, 100
3, 110400, Note_on_c, 0, 59, 100
3, 110516, Note_on_c, 0, 59, 0
3, 110520, Note_on_c, 0, 58, 100
3, 110636, Note_on_c, 0, 58, 0
3, 110636, Note_on_c, 0, 49, 0
3, 110640, Note_on_c, 0, 50, 100
3, 110640, Note_on_c, 0, 59, 100
3, 110756, Note_on_c, 0, 59, 0
3, 110760, Note_on_c, 0, 58, 100
3, 110876, Note_on_c, 0, 58, 0
3, 110876, Note_on_c, 0, 50, 0
3, 110880, Note_on_c, 0, 47, 100
3, 110880, Note_on_c, 0, 59, 100
3, 110996, Note_on_c, 0, 59, 0
3, 111000, Note_on_c, 0, 61, 100
3, 111116, Note_on_c, 0, 61, 0
3, 111116, Note_on_c, 0, 47, 0
3, 111120, Note_on_c, 0, 54, 100
3, 111120, Note_on_c, 0, 58, 100
3, 111120, Note_on_c, 0, 61, 100
3, 111356, Note_on_c, 0, 54, 0
3, 111360, Note_on_c, 0, 42, 100
3, 111476, Note_on_c, 0, 61, 0
3, 111480, Note_on_c, 0, 59, 100
3, 111596, Note_on_c, 0, 59, 0
3, 111596, Note_on_c, 0, 42, 0
3, 111596, Note_on_c, 0, 58, 0
3, 111600, Note_on_c, 0, 47, 100
3, 111600, Note_on_c, 0, 59, 100
3, 111720, Note_on_c, 0, 55, 100
3, 111836, Note_on_c, 0, 55, 0
3, 111840, Note_on_c, 0, 54, 100
3, 111956, Note_on_c, 0, 54, 0
3, 111960, Note_on_c, 0, 52, 100
3, 112076, Note_on_c, 0, 52, 0
3, 112076, Note_on_c, 0, 59, 0
3, 112076, Note_on_c, 0, 47, 0
3, 112080, Note_on_c, 0, 51, 100
3, 112196, Note_on_c, 0, 51, 0
3, 112200, Note_on_c, 0, 48, 100
3, 112316, Note_on_c, 0, 48, 0
3, 112320, Note_on_c, 0, 47, 100
3, 112436, Note_on_c, 0, 47, 0
3, 112440, Note_on_c, 0, 45, 100
3, 112556, Note_on_c, 0, 45, 0
3, 112560, Note_on_c, 0, 44, 100
3, 112680, Note_on_c, 0, 59, 100
3, 112796, Note_on_c, 0, 59, 0
3, 112800, Note_on_c, 0, 64, 100
3, 112916, Note_on_c, 0, 44, 0
3, 112920, Note_on_c, 0, 47, 100
3, 113036, Note_on_c, 0, 47, 0
3, 113036, Note_on_c, 0, 64, 0
3, 113040, Note_on_c, 0, 52, 100
3, 113160, Note_on_c, 0, 56, 100
3, 113276, Note_on_c, 0, 56, 0
3, 113276, Note_on_c, 0, 52, 0
3, 113280, Note_on_c, 0, 40, 100
3, 113280, Note_on_c, 0, 59, 100
3, 113396, Note_on_c, 0, 59, 0
3, 113400, Note_on_c, 0, 52, 100
3, 113516, Note_on_c, 0, 52, 0
3, 113516, Note_on_c, 0, 40, 0
3, 113520, Note_on_c, 0, 60, 100
3, 113640, Note_on_c, 0, 45, 100
3, 113756, Note_on_c, 0, 45, 0
3, 113756, Note_on_c, 0, 60, 0
3, 113760, Note_on_c, 0, 48, 100
3, 113876, Note_on_c, 0, 48, 0
3, 113880, Note_on_c, 0, 52, 100
3, 113996, Note_on_c, 0, 52, 0
3, 114000, Note_on_c, 0, 57, 100
3, 114000, Note_on_c, 0, 60, 100
3, 114120, Note_on_c, 0, 47, 100
3, 114236, Note_on_c, 0, 47, 0
3, 114236, Note_on_c, 0, 60, 0
3, 114236, Note_on_c, 0, 57, 0
3, 114240, Note_on_c, 0, 45, 100
3, 114356, Note_on_c, 0, 45, 0
3, 114360, Note_on_c, 0, 43, 100
3, 114476, Note_on_c, 0, 43, 0
3, 114480, Note_on_c, 0, 42, 100
3, 114600, Note_on_c, 0, 57, 100
3, 114716, Note_on_c, 0, 57, 0
3, 114720, Note_on_c, 0, 62, 100
3, 114836, Note_on_c, 0, 42, 0
3, 114840, Note_on_c, 0, 45, 100
3, 114956, Note_on_c, 0, 45, 0
3, 114956, Note_on_c, 0, 62, 0
3, 114960, Note_on_c, 0, 50, 100
3, 115080, Note_on_c, 0, 54, 100
3, 115196, Note_on_c, 0, 54, 0
3, 115196, Note_on_c, 0, 50, 0
3, 115200, Note_on_c, 0, 38, 100
3, 115200, Note_on_c, 0, 57, 100
3, 115316, Note_on_c, 0, 57, 0
3, 115320, Note_on_c, 0, 50, 100
3, 115436, Note_on_c, 0, 50, 0
3, 115436, Note_on_c, 0, 38, 0
3, 115440, Note_on_c, 0, 59, 100
3, 115560, Note_on_c, 0, 43, 100
3, 115676, Note_on_c, 0, 43, 0
3, 115676, Note_on_c, 0, 59, 0
3, 115680, Note_on_c, 0, 47, 100
3, 115796, Note_on_c, 0, 47, 0
3, 115800, Note_on_c, 0, 50, 100
3, 115916, Note_on_c, 0, 50, 0
3, 115920, Note_on_c, 0, 55, 100
3, 115920, Note_on_c, 0, 59, 100
3, 116040, Note_on_c, 0, 55, 100
3, 116156, Note_on_c, 0, 55, 0
3, 116156, Note_on_c, 0, 59, 0
3, 116156, Note_on_c, 0, 55, 0
3, 116160, Note_on_c, 0, 54, 100
3, 116276, Note_on_c, 0, 54, 0
3, 116280, Note_on_c, 0, 52, 100
3, 116396, Note_on_c, 0, 52, 0
3, 116400, Note_on_c, 0, 51, 100
3, 116520, Note_on_c, 0, 54, 100
3, 116636, Note_on_c, 0, 54, 0
3, 116640, Note_on_c, 0, 59, 100
3, 116756, Note_on_c, 0, 51, 0
3, 116760, Note_on_c, 0, 42, 100
3, 116876, Note_on_c, 0, 42, 0
3, 116876, Note_on_c, 0, 59, 0
3, 116880, Note_on_c, 0, 47, 100
3, 117000, Note_on_c, 0, 51, 100
3, 117116, Note_on_c, 0, 51, 0
3, 117116, Note_on_c, 0, 47, 0
3, 117120, Note_on_c, 0, 39, 100
3, 117120, Note_on_c, 0, 54, 100
3, 117236, Note_on_c, 0, 54, 0
3, 117240, Note_on_c, 0, 47, 100
3, 117356, Note_on_c, 0, 47, 0
3, 117356, Note_on_c, 0, 39, 0
3, 117360, Note_on_c, 0, 55, 100
3, 117480, Note_on_c, 0, 40, 100
3, 117596, Note_on_c, 0, 40, 0
3, 117600, Note_on_c, 0, 43, 100
3, 117716, Note_on_c, 0, 43, 0
3, 117720, Note_on_c, 0, 47, 100
3, 117836, Note_on_c, 0, 47, 0
3, 117836, Note_on_c, 0, 55, 0
3, 117840, Note_on_c, 0, 52, 100
3, 117960, Note_on_c, 0, 55, 100
3, 118076, Note_on_c, 0, 55, 0
3, 118080, Note_on_c, 0, 59, 100
3, 118196, Note_on_c, 0, 59, 0
3, 118200, Note_on_c, 0, 64, 100
3, 118316, Note_on_c, 0, 64, 0
3, 118316, Note_on_c, 0, 52, 0
3, 118320, Note_on_c, 0, 60, 100
3, 118440, Note_on_c, 0, 45, 100
3, 118556, Note_on_c, 0, 45, 0
3, 118560, Note_on_c, 0, 48, 100
3, 118676, Note_on_c, 0, 48, 0
3, 118680, Note_on_c, 0, 52, 100
3, 118796, Note_on_c, 0, 52, 0
3, 118796, Note_on_c, 0, 60, 0
3, 118800, Note_on_c, 0, 57, 100
3, 118920, Note_on_c, 0, 61, 100
3, 119036, Note_on_c, 0, 61, 0
3, 119040, Note_on_c, 0, 66, 100
3, 119156, Note_on_c, 0, 66, 0
3, 119160, Note_on_c, 0, 69, 100
3, 119276, Note_on_c, 0, 69, 0
3, 119276, Note_on_c, 0, 57, 0
3, 119280, Note_on_c, 0, 63, 100
3, 119400, Note_on_c, 0, 47, 100
3, 119516, Note_on_c, 0, 47, 0
3, 119520, Note_on_c, 0, 51, 100
3, 119636, Note_on_c, 0, 51, 0
3, 119640, Note_on_c, 0, 54, 100
3, 119756, Note_on_c, 0, 54, 0
3, 119756, Note_on_c, 0, 63, 0
3, 119760, Note_on_c, 0, 59, 100
3, 119876, Note_on_c, 0, 59, 0
3, 119880, Note_on_c, 0, 61, 100
3, 119996, Note_on_c, 0, 61, 0
3, 120000, Note_on_c, 0, 45, 100
3, 120000, Note_on_c, 0, 54, 100
3, 120000, Note_on_c, 0, 63, 100
3, 120116, Note_on_c, 0, 63, 0
3, 120120, Note_on_c, 0, 59, 100
3, 120236, Note_on_c, 0, 59, 0
3, 120236, Note_on_c, 0, 54, 0
3, 120236, Note_on_c, 0, 45, 0
3, 120240, Note_on_c, 0, 43, 100
3, 120240, Note_on_c, 0, 52, 100
3, 120240, Note_on_c, 0, 64, 100
3, 120356, Note_on_c, 0, 64, 0
3, 120360, Note_on_c, 0, 55, 100
3, 120476, Note_on_c, 0, 55, 0
3, 120476, Note_on_c, 0, 52, 0
3, 120476, Note_on_c, 0, 43, 0
3, 120480, Note_on_c, 0, 45, 100
3, 120480, Note_on_c, 0, 54, 100
3, 120596, Note_on_c, 0, 54, 0
3, 120596, Note_on_c, 0, 45, 0
3, 120600, Note_on_c, 0, 48, 100
3, 120600, Note_on_c, 0, 52, 100
3, 120716, Note_on_c, 0, 52, 0
3, 120716, Note_on_c, 0, 48, 0
3, 120720, Note_on_c, 0, 47, 100
3, 120720, Note_on_c, 0, 51, 100
3, 121076, Note_on_c, 0, 51, 0
3, 121080, Note_on_c, 0, 52, 100
3, 121196, Note_on_c, 0, 52, 0
3, 121196, Note_on_c, 0, 47, 0
3, 121200, Note_on_c, 0, 52, 100
3, 121320, Note_on_c, 0, 40, 100
3, 121436, Note_on_c, 0, 52, 0
3, 121440, Note_on_c, 0, 54, 100
3, 121556, Note_on_c, 0, 54, 0
3, 121560, Note_on_c, 0, 56, 100
3, 121676, Note_on_c, 0, 56, 0
3, 121676, Note_on_c, 0, 40, 0
3, 121680, Note_on_c, 0, 57, 100
3, 121796, Note_on_c, 0, 57, 0
3, 121800, Note_on_c, 0, 59, 100
3, 121916, Note_on_c, 0, 59, 0
3, 121920, Note_on_c, 0, 60, 100
3, 122036, Note_on_c, 0, 60, 0
3, 122040, Note_on_c, 0, 62, 100
3, 122156, Note_on_c, 0, 62, 0
3, 122160, Note_on_c, 0, 64, 100
3, 122280, Note_on_c, 0, 48, 100
3, 122280, Note_on_c, 0, 57, 100
3, 122396, Note_on_c, 0, 57, 0
3, 122396, Note_on_c, 0, 48, 0
3, 122400, Note_on_c, 0, 47, 100
3, 122400, Note_on_c, 0, 56, 100
3, 122516, Note_on_c, 0, 56, 0
3, 122516, Note_on_c, 0, 47, 0
3, 122520, Note_on_c, 0, 45, 100
3, 122520, Note_on_c, 0, 54, 100
3, 122636, Note_on_c, 0, 54, 0
3, 122636, Note_on_c, 0, 45, 0
3, 122640, Note_on_c, 0, 40, 100
3, 122640, Note_on_c, 0, 44, 100
3, 122640, Note_on_c, 0, 47, 100
3, 122640, Note_on_c, 0, 52, 100
3, 122996, Note_on_c, 0, 52, 0
3, 122996, Note_on_c, 0, 44, 0
3, 122996, Note_on_c, 0, 47, 0
3, 122996, Note_on_c, 0, 40, 0
3, 123000, Note_on_c, 0, 63, 100
3, 123116, Note_on_c, 0, 63, 0
3, 123116, Note_on_c, 0, 64, 0
3, 123120, Note_on_c, 0, 63, 100
3, 123240, Note_on_c, 0, 47, 100
3, 123356, Note_on_c, 0, 47, 0
3, 123360, Note_on_c, 0, 51, 100
3, 123476, Note_on_c, 0, 51, 0
3, 123480, Note_on_c, 0, 54, 100
3, 123596, Note_on_c, 0, 54, 0
3, 123596, Note_on_c, 0, 63, 0
3, 123600, Note_on_c, 0, 59, 100
3, 123720, Note_on_c, 0, 71, 100
3, 123836, Note_on_c, 0, 71, 0
3, 123836, Note_on_c, 0, 59, 0
3, 123840, Note_on_c, 0, 69, 100
3, 123956, Note_on_c, 0, 69, 0
3, 123960, Note_on_c, 0, 67, 100
3, 124076, Note_on_c, 0, 67, 0
3, 124080, Note_on_c, 0, 66, 100
3, 124196, Note_on_c, 0, 66, 0
3, 124200, Note_on_c, 0, 64, 100
3, 124316, Note_on_c, 0, 64, 0
3, 124320, Note_on_c, 0, 63, 100
3, 124436, Note_on_c, 0, 63, 0
3, 124440, Note_on_c, 0, 61, 100
3, 124556, Note_on_c, 0, 61, 0
3, 124560, Note_on_c, 0, 59, 100
3, 124680, Note_on_c, 0, 57, 100
3, 124796, Note_on_c, 0, 57, 0
3, 124796, Note_on_c, 0, 59, 0
3, 124800, Note_on_c, 0, 55, 100
3, 124800, Note_on_c, 0, 63, 100
3, 124916, Note_on_c, 0, 55, 0
3, 124920, Note_on_c, 0, 54, 100
3, 125036, Note_on_c, 0, 54, 0
3, 125036, Note_on_c, 0, 63, 0
3, 125040, Note_on_c, 0, 55, 100
3, 125040, Note_on_c, 0, 64, 100
3, 125156, Note_on_c, 0, 64, 0
3, 125156, Note_on_c, 0, 55, 0
3, 125160, Note_on_c, 0, 52, 100
3, 125160, Note_on_c, 0, 67, 100
3, 125276, Note_on_c, 0, 67, 0
3, 125276, Note_on_c, 0, 52, 0
3, 125280, Note_on_c, 0, 55, 100
3, 125280, Note_on_c, 0, 71, 100
3, 125396, Note_on_c, 0, 55, 0
3, 125400, Note_on_c, 0, 59, 100
3, 125516, Note_on_c, 0, 59, 0
3, 125520, Note_on_c, 0, 64, 100
3, 125636, Note_on_c, 0, 71, 0
3, 125640, Note_on_c, 0, 69, 100
3, 125756, Note_on_c, 0, 69, 0
3, 125756, Note_on_c, 0, 64, 0
3, 125760, Note_on_c, 0, 67, 100
3, 125876, Note_on_c, 0, 67, 0
3, 125880, Note_on_c, 0, 66, 100
3, 125996, Note_on_c, 0, 66, 0
3, 126000, Note_on_c, 0, 64, 100
3, 126116, Note_on_c, 0, 64, 0
3, 126120, Note_on_c, 0, 62, 100
3, 126236, Note_on_c, 0, 62, 0
3, 126240, Note_on_c, 0, 61, 100
3, 126356, Note_on_c, 0, 61, 0
3, 126360, Note_on_c, 0, 59, 100
3, 126476, Note_on_c, 0, 59, 0
3, 126480, Note_on_c, 0, 57, 100
3, 126600, Note_on_c, 0, 55, 100
3, 126716, Note_on_c, 0, 55, 0
3, 126716, Note_on_c, 0, 57, 0
3, 126720, Note_on_c, 0, 54, 100
3, 126720, Note_on_c, 0, 61, 100
3, 126836, Note_on_c, 0, 54, 0
3, 126840, Note_on_c, 0, 52, 100
3, 126956, Note_on_c, 0, 52, 0
3, 126956, Note_on_c, 0, 61, 0
3, 126960, Note_on_c, 0, 54, 100
3, 126960, Note_on_c, 0, 62, 100
3, 127076, Note_on_c, 0, 54, 0
3, 127080, Note_on_c, 0, 50, 100
3, 127196, Note_on_c, 0, 50, 0
3, 127196, Note_on_c, 0, 62, 0
3, 127200, Note_on_c, 0, 54, 100
3, 127320, Note_on_c, 0, 57, 100
3, 127436, Note_on_c, 0, 57, 0
3, 127436, Note_on_c, 0, 54, 0
3, 127440, Note_on_c, 0, 62, 100
3, 127556, Note_on_c, 0, 62, 0
3, 127560, Note_on_c, 0, 64, 100
3, 127676, Note_on_c, 0, 64, 0
3, 127680, Note_on_c, 0, 62, 100
3, 127796, Note_on_c, 0, 62, 0
3, 127800, Note_on_c, 0, 60, 100
3, 127916, Note_on_c, 0, 60, 0
3, 127920, Note_on_c, 0, 59, 100
3, 128036, Note_on_c, 0, 59, 0
3, 128040, Note_on_c, 0, 57, 100
3, 128156, Note_on_c, 0, 57, 0
3, 128160, Note_on_c, 0, 55, 100
3, 128276, Note_on_c, 0, 55, 0
3, 128280, Note_on_c, 0, 54, 100
3, 128396, Note_on_c, 0, 54, 0
3, 128400, Note_on_c, 0, 52, 100
3, 128520, Note_on_c, 0, 50, 100
3, 128636, Note_on_c, 0, 50, 0
3, 128636, Note_on_c, 0, 52, 0
3, 128640, Note_on_c, 0, 49, 100
3, 128756, Note_on_c, 0, 49, 0
3, 128760, Note_on_c, 0, 47, 100
3, 128760, Note_on_c, 0, 64, 100
3, 128876, Note_on_c, 0, 64, 0
3, 128876, Note_on_c, 0, 47, 0
3, 128880, Note_on_c, 0, 46, 100
3, 128880, Note_on_c, 0, 66, 100
3, 128996, Note_on_c, 0, 66, 0
3, 129000, Note_on_c, 0, 67, 100
3, 129116, Note_on_c, 0, 67, 0
3, 129116, Note_on_c, 0, 46, 0
3, 129120, Note_on_c, 0, 42, 100
3, 129120, Note_on_c, 0, 66, 100
3, 129236, Note_on_c, 0, 66, 0
3, 129240, Note_on_c, 0, 64, 100
3, 129356, Note_on_c, 0, 64, 0
3, 129356, Note_on_c, 0, 42, 0
3, 129360, Note_on_c, 0, 47, 100
3, 129360, Note_on_c, 0, 62, 100
3, 129476, Note_on_c, 0, 62, 0
3, 129480, Note_on_c, 0, 61, 100
3, 129596, Note_on_c, 0, 61, 0
3, 129596, Note_on_c, 0, 47, 0
3, 129600, Note_on_c, 0, 49, 100
3, 129600, Note_on_c, 0, 59, 100
3, 129716, Note_on_c, 0, 59, 0
3, 129720, Note_on_c, 0, 58, 100
3, 129836, Note_on_c, 0, 58, 0
3, 129836, Note_on_c, 0, 49, 0
3, 129840, Note_on_c, 0, 50, 100
3, 129840, Note_on_c, 0, 59, 100
3, 129956, Note_on_c, 0, 59, 0
3, 129960, Note_on_c, 0, 58, 100
3, 130076, Note_on_c, 0, 58, 0
3, 130076, Note_on_c, 0, 50, 0
3, 130080, Note_on_c, 0, 47, 100
3, 130080, Note_on_c, 0, 59, 100
3, 130196, Note_on_c, 0, 59, 0
3, 130200, Note_on_c, 0, 61, 100
3, 130316, Note_on_c, 0, 61, 0
3, 130316, Note_on_c, 0, 47, 0
3, 130320, Note_on_c, 0, 54, 100
3, 130320, Note_on_c, 0, 58, 100
3, 130320, Note_on_c, 0, 61, 100
3, 130556, Note_on_c, 0, 54, 0
3, 130560, Note_on_c, 0, 42, 100
3, 130676, Note_on_c, 0, 61, 0
3, 130680, Note_on_c, 0, 59, 100
3, 130796, Note_on_c, 0, 59, 0
3, 130796, Note_on_c, 0, 42, 0
3, 130796, Note_on_c, 0, 58, 0
3, 130800, Note_on_c, 0, 47, 100
3, 130800, Note_on_c, 0, 59, 100
3, 130920, Note_on_c, 0, 55, 100
3, 131036, Note_on_c, 0, 55, 0
3, 131040, Note_on_c, 0, 54, 100
3, 131156, Note_on_c, 0, 54, 0
3, 131160, Note_on_c, 0, 52, 100
3, 131276, Note_on_c, 0, 52, 0
3, 131276, Note_on_c, 0, 59, 0
3, 131276, Note_on_c, 0, 47, 0
3, 131280, Note_on_c, 0, 51, 100
3, 131396, Note_on_c, 0, 51, 0
3, 131400, Note_on_c, 0, 48, 100
3, 131516, Note_on_c, 0, 48, 0
3, 131520, Note_on_c, 0, 47, 100
3, 131636, Note_on_c, 0, 47, 0
3, 131640, Note_on_c, 0, 45, 100
3, 131756, Note_on_c, 0, 45, 0
3, 131760, Note_on_c, 0, 44, 100
3, 131880, Note_on_c, 0, 59, 100
3, 131996, Note_on_c, 0, 59, 0
3, 132000, Note_on_c, 0, 64, 100
3, 132116, Note_on_c, 0, 44, 0
3, 132120, Note_on_c, 0, 47, 100
3, 132236, Note_on_c, 0, 47, 0
3, 132236, Note_on_c, 0, 64, 0
3, 132240, Note_on_c, 0, 52, 100
3, 132360, Note_on_c, 0, 56, 100
3, 132476, Note_on_c, 0, 56, 0
3, 132476, Note_on_c, 0, 52, 0
3, 132480, Note_on_c, 0, 40, 100
3, 132480, Note_on_c, 0, 59, 100
3, 132596, Note_on_c, 0, 59, 0
3, 132600, Note_on_c, 0, 52, 100
3, 132716, Note_on_c, 0, 52, 0
3, 132716, Note_on_c, 0, 40, 0
3, 132720, Note_on_c, 0, 60, 100
3, 132840, Note_on_c, 0, 45, 100
3, 132956, Note_on_c, 0, 45, 0
3, 132956, Note_on_c, 0, 60, 0
3, 132960, Note_on_c, 0, 48, 100
3, 133076, Note_on_c, 0, 48, 0
3, 133080, Note_on_c, 0, 52, 100
3, 133196, Note_on_c, 0, 52, 0
3, 133200, Note_on_c, 0, 57, 100
3, 133200, Note_on_c, 0, 60, 100
3, 133320, Note_on_c, 0, 47, 100
3, 133436, Note_on_c, 0, 47, 0
3, 133436, Note_on_c, 0, 60, 0
3, 133436, Note_on_c, 0, 57, 0
3, 133440, Note_on_c, 0, 45, 100
3, 133556, Note_on_c, 0, 45, 0
3, 133560, Note_on_c, 0, 43, 100
3, 133676, Note_on_c, 0, 43, 0
3, 133680, Note_on_c, 0, 42, 100
3, 133800, Note_on_c, 0, 57, 100
3, 133916, Note_on_c, 0, 57, 0
3, 133920, Note_on_c, 0, 62, 100
3, 134036, Note_on_c, 0, 42, 0
3, 134040, Note_on_c, 0, 45, 100
3, 134156, Note_on_c, 0, 45, 0
3, 134156, Note_on_c, 0, 62, 0
3, 134160, Note_on_c, 0, 50, 100
3, 134280, Note_on_c, 0, 54, 100
3, 134396, Note_on_c, 0, 54, 0
3, 134396, Note_on_c, 0, 50, 0
3, 134400, Note_on_c, 0, 38, 100
3, 134400, Note_on_c, 0, 57, 100
3, 134516, Note_on_c, 0, 57, 0
3, 134520, Note_on_c, 0, 50, 100
3, 134636, Note_on_c, 0, 50, 0
3, 134636, Note_on_c, 0, 38, 0
3, 134640, Note_on_c, 0, 59, 100
3, 134760, Note_on_c, 0, 43, 100
3, 134876, Note_on_c, 0, 43, 0
3, 134876, Note_on_c, 0, 59, 0
3, 134880, Note_on_c, 0, 47, 100
3, 134996, Note_on_c, 0, 47, 0
3, 135000, Note_on_c, 0, 50, 100
3, 135116, Note_on_c, 0, 50, 0
3, 135120, Note_on_c, 0, 55, 100
3, 135120, Note_on_c, 0, 59, 100
3, 135240, Note_on_c, 0, 55, 100
3, 135356, Note_on_c, 0, 55, 0
3, 135356, Note_on_c, 0, 59, 0
3, 135356, Note_on_c, 0, 55, 0
3, 135360, Note_on_c, 0, 54, 100
3, 135476, Note_on_c, 0, 54, 0
3, 135480, Note_on_c, 0, 52, 100
3, 135596, Note_on_c, 0, 52, 0
3, 135600, Note_on_c, 0, 51, 100
3, 135720, Note_on_c, 0, 54, 100
3, 135836, Note_on_c, 0, 54, 0
3, 135840, Note_on_c, 0, 59, 100
3, 135956, Note_on_c, 0, 51, 0
3, 135960, Note_on_c, 0, 42, 100
3, 136076, Note_on_c, 0, 42, 0
3, 136076, Note_on_c, 0, 59, 0
3, 136080, Note_on_c, 0, 47, 100
3, 136200, Note_on_c, 0, 51, 100
3, 136316, Note_on_c, 0, 51, 0
3, 136316, Note_on_c, 0, 47, 0
3, 136320, Note_on_c, 0, 39, 100
3, 136320, Note_on_c, 0, 54, 100
3, 136436, Note_on_c, 0, 54, 0
3, 136440, Note_on_c, 0, 47, 100
3, 136556, Note_on_c, 0, 47, 0
3, 136556, Note_on_c, 0, 39, 0
3, 136560, Note_on_c, 0, 55, 100
3, 136680, Note_on_c, 0, 40, 100
3, 136796, Note_on_c, 0, 40, 0
3, 136800, Note_on_c, 0, 43, 100
3, 136916, Note_on_c, 0, 43, 0
3, 136920, Note_on_c, 0, 47, 100
3, 137036, Note_on_c, 0, 47, 0
3, 137036, Note_on_c, 0, 55, 0
3, 137040, Note_on_c, 0, 52, 100
3, 137160, Note_on_c, 0, 55, 100
3, 137276, Note_on_c, 0, 55, 0
3, 137280, Note_on_c, 0, 59, 100
3, 137396, Note_on_c, 0, 59, 0
3, 137400, Note_on_c, 0, 64, 100
3, 137516, Note_on_c, 0, 64, 0
3, 137516, Note_on_c, 0, 52, 0
3, 137520, Note_on_c, 0, 60, 100
3, 137640, Note_on_c, 0, 45, 100
3, 137756, Note_on_c, 0, 45, 0
3, 137760, Note_on_c, 0, 48, 100
3, 137876, Note_on_c, 0, 48, 0
3, 137880, Note_on_c, 0, 52, 100
3, 137996, Note_on_c, 0, 52, 0
3, 137996, Note_on_c, 0, 60, 0
3, 138000, Note_on_c, 0, 57, 100
3, 138120, Note_on_c, 0, 61, 100
3, 138236, Note_on_c, 0, 61, 0
3, 138240, Note_on_c, 0, 66, 100
3, 138356, Note_on_c, 0, 66, 0
3, 138360, Note_on_c, 0, 69, 100
3, 138476, Note_on_c, 0, 69, 0
3, 138476, Note_on_c, 0, 57, 0
3, 138480, Note_on_c, 0, 63, 100
3, 138600, Note_on_c, 0, 47, 100
3, 138716, Note_on_c, 0, 47, 0
3, 138720, Note_on_c, 0, 51, 100
3, 138836, Note_on_c, 0, 51, 0
3, 138840, Note_on_c, 0, 54, 100
3, 138956, Note_on_c, 0, 54, 0
3, 138956, Note_on_c, 0, 63, 0
3, 138960, Note_on_c, 0, 59, 100
3, 139076, Note_on_c, 0, 59, 0
3, 139080, Note_on_c, 0, 61, 100
3, 139196, Note_on_c, 0, 61, 0
3, 139200, Note_on_c, 0, 45, 100
3, 139200, Note_on_c, 0, 54, 100
3, 139200, Note_on_c, 0, 63, 100
3, 139316, Note_on_c, 0, 63, 0
3, 139320, Note_on_c, 0, 59, 100
3, 139436, Note_on_c, 0, 59, 0
3, 139436, Note_on_c, 0, 54, 0
3, 139436, Note_on_c, 0, 45, 0
3, 139440, Note_on_c, 0, 43, 100
3, 139440, Note_on_c, 0, 52, 100
3, 139440, Note_on_c, 0, 64, 100
3, 139556, Note_on_c, 0, 64, 0
3, 139560, Note_on_c, 0, 55, 100
3, 139676, Note_on_c, 0, 55, 0
3, 139676, Note_on_c, 0, 52, 0
3, 139676, Note_on_c, 0, 43, 0
3, 139680, Note_on_c, 0, 45, 100
3, 139680, Note_on_c, 0, 54, 100
3, 139796, Note_on_c, 0, 54, 0
3, 139796, Note_on_c, 0, 45, 0
3, 139800, Note_on_c, 0, 48, 100
3, 139800, Note_on_c, 0, 52, 100
3, 139916, Note_on_c, 0, 52, 0
3, 139916, Note_on_c, 0, 48, 0
3, 139920, Note_on_c, 0, 47, 100
3, 139920, Note_on_c, 0, 51, 100
3, 140276, Note_on_c, 0, 51, 0
3, 140280, Note_on_c, 0, 52, 100
3, 140396, Note_on_c, 0, 52, 0
3, 140396, Note_on_c, 0, 47, 0
3, 140400, Note_on_c, 0, 52, 100
3, 140520, Note_on_c, 0, 40, 100
3, 140636, Note_on_c, 0, 52, 0
3, 140640, Note_on_c, 0, 54, 100
3, 140756, Note_on_c, 0, 54, 0
3, 140760, Note_on_c, 0, 56, 100
3, 140876, Note_on_c, 0, 56, 0
3, 140876, Note_on_c, 0, 40, 0
3, 140880, Note_on_c, 0, 57, 100
3, 140996, Note_on_c, 0, 57, 0
3, 141000, Note_on_c, 0, 59, 100
3, 141116, Note_on_c, 0, 59, 0
3, 141120, Note_on_c, 0, 60, 100
3, 141236, Note_on_c, 0, 60, 0
3, 141240, Note_on_c, 0, 62, 100
3, 141356, Note_on_c, 0, 62, 0
3, 141360, Note_on_c, 0, 64, 100
3, 141480, Note_on_c, 0, 48, 100
3, 141480, Note_on_c, 0, 57, 100
3, 141596, Note_on_c, 0, 57, 0
3, 141596, Note_on_c, 0, 48, 0
3, 141600, Note_on_c, 0, 47, 100
3, 141600, Note_on_c, 0, 56, 100
3, 141716, Note_on_c, 0, 56, 0
3, 141716, Note_on_c, 0, 47, 0
3, 141720, Note_on_c, 0, 45, 100
3, 141720, Note_on_c, 0, 54, 100
3, 141836, Note_on_c, 0, 54, 0
3, 141836, Note_on_c, 0, 45, 0
3, 141840, Note_on_c, 0, 40, 100
3, 141840, Note_on_c, 0, 44, 100
3, 141840, Note_on_c, 0, 47, 100
3, 141840, Note_on_c, 0, 52, 100
3, 142196, Note_on_c, 0, 52, 0
3, 142196, Note_on_c, 0, 44, 0
3, 142196, Note_on_c, 0, 47, 0
3, 142196, Note_on_c, 0, 40, 0
3, 142316, Note_on_c, 0, 64, 0
3, 142316, End_track
4, 0, Start_track
4, 0, MIDI_port, 0
4, 0, Title_t, "Courante"
4, 0, Program_c, 0, 24
4, 0, Control_c, 0, 7, 100
4, 0, Control_c, 0, 10, 64
4, 144960, Note_on_c, 0, 52, 100
4, 145196, Note_on_c, 0, 52, 0
4, 145200, Note_on_c, 0, 52, 100
4, 145680, Note_on_c, 0, 40, 100
4, 145916, Note_on_c, 0, 40, 0
4, 145916, Note_on_c, 0, 52, 0
4, 145920, Note_on_c, 0, 52, 100
4, 145920, Note_on_c, 0, 54, 100
4, 146156, Note_on_c, 0, 54, 0
4, 146156, Note_on_c, 0, 52, 0
4, 146160, Note_on_c, 0, 51, 100
4, 146160, Note_on_c, 0, 54, 100
4, 146396, Note_on_c, 0, 51, 0
4, 146516, Note_on_c, 0, 54, 0
4, 146520, Note_on_c, 0, 52, 100
4, 146576, Note_on_c, 0, 52, 0
4, 146580, Note_on_c, 0, 54, 100
4, 146636, Note_on_c, 0, 54, 0
4, 146640, Note_on_c, 0, 52, 100
4, 146640, Note_on_c, 0, 55, 100
4, 146876, Note_on_c, 0, 52, 0
4, 146996, Note_on_c, 0, 55, 0
4, 147000, Note_on_c, 0, 57, 100
4, 147116, Note_on_c, 0, 57, 0
4, 147120, Note_on_c, 0, 48, 100
4, 147120, Note_on_c, 0, 57, 100
4, 147596, Note_on_c, 0, 48, 0
4, 147600, Note_on_c, 0, 50, 100
4, 147600, Note_on_c, 0, 54, 100
4, 147836, Note_on_c, 0, 57, 0
4, 147840, Note_on_c, 0, 55, 100
4, 147956, Note_on_c, 0, 55, 0
4, 147960, Note_on_c, 0, 57, 100
4, 148076, Note_on_c, 0, 57, 0
4, 148076, Note_on_c, 0, 54, 0
4, 148076, Note_on_c, 0, 50, 0
4, 148080, Note_on_c, 0, 55, 100
4, 148080, Note_on_c, 0, 59, 100
4, 148560, Note_on_c, 0, 43, 100
4, 148796, Note_on_c, 0, 43, 0
4, 148796, Note_on_c, 0, 59, 0
4, 148800, Note_on_c, 0, 54, 100
4, 148800, Note_on_c, 0, 59, 100
4, 149036, Note_on_c, 0, 59, 0
4, 149036, Note_on_c, 0, 54, 0
4, 149036, Note_on_c, 0, 55, 0
4, 149040, Note_on_c, 0, 52, 100
4, 149040, Note_on_c, 0, 55, 100
4, 149040, Note_on_c, 0, 60, 100
4, 149516, Note_on_c, 0, 60, 0
4, 149516, Note_on_c, 0, 55, 0
4, 149516, Note_on_c, 0, 52, 0
4, 149520, Note_on_c, 0, 50, 100
4, 149520, Note_on_c, 0, 54, 100
4, 149520, Note_on_c, 0, 59, 100
4, 149996, Note_on_c, 0, 59, 0
4, 149996, Note_on_c, 0, 54, 0
4, 149996, Note_on_c, 0, 50, 0
4, 150000, Note_on_c, 0, 48, 100
4, 150000, Note_on_c, 0, 55, 100
4, 150000, Note_on_c, 0, 64, 100
4, 150476, Note_on_c, 0, 55, 0
4, 150480, Note_on_c, 0, 57, 100
4, 150716, Note_on_c, 0, 64, 0
4, 150720, Note_on_c, 0, 66, 100
4, 150956, Note_on_c, 0, 66, 0
4, 150956, Note_on_c, 0, 57, 0
4, 150956, Note_on_c, 0, 48, 0
4, 150960, Note_on_c, 0, 59, 100
4, 150960, Note_on_c, 0, 63, 100
4, 151436, Note_on_c, 0, 59, 0
4, 151440, Note_on_c, 0, 47, 100
4, 151676, Note_on_c, 0, 47, 0
4, 151680, Note_on_c, 0, 59, 100
4, 151916, Note_on_c, 0, 59, 0
4, 151920, Note_on_c, 0, 57, 100
4, 152396, Note_on_c, 0, 57, 0
4, 152396, Note_on_c, 0, 63, 0
4, 152400, Note_on_c, 0, 55, 100
4, 152400, Note_on_c, 0, 64, 100
4, 152876, Note_on_c, 0, 55, 0
4, 152880, Note_on_c, 0, 54, 100
4, 152880, Note_on_c, 0, 66, 100
4, 153356, Note_on_c, 0, 64, 0
4, 153360, Note_on_c, 0, 63, 100
4, 153596, Note_on_c, 0, 66, 0
4, 153600, Note_on_c, 0, 64, 100
4, 153716, Note_on_c, 0, 64, 0
4, 153720, Note_on_c, 0, 66, 100
4, 153836, Note_on_c, 0, 66, 0
4, 153836, Note_on_c, 0, 63, 0
4, 153836, Note_on_c, 0, 54, 0
4, 153840, Note_on_c, 0, 52, 100
4, 153840, Note_on_c, 0, 64, 100
4, 153840, Note_on_c, 0, 67, 100
4, 154316, Note_on_c, 0, 64, 0
4, 154316, Note_on_c, 0, 52, 0
4, 154320, Note_on_c, 0, 40, 100
4, 154556, Note_on_c, 0, 40, 0
4, 154556, Note_on_c, 0, 67, 0
4, 154560, Note_on_c, 0, 54, 100
4, 154560, Note_on_c, 0, 66, 100
4, 154796, Note_on_c, 0, 66, 0
4, 154796, Note_on_c, 0, 54, 0
4, 154800, Note_on_c, 0, 55, 100
4, 154800, Note_on_c, 0, 64, 100
4, 155036, Note_on_c, 0, 55, 0
4, 155040, Note_on_c, 0, 57, 100
4, 155276, Note_on_c, 0, 57, 0
4, 155276, Note_on_c, 0, 64, 0
4, 155280, Note_on_c, 0, 59, 100
4, 155280, Note_on_c, 0, 62, 100
4, 155516, Note_on_c, 0, 62, 0
4, 155520, Note_on_c, 0, 64, 100
4, 155756, Note_on_c, 0, 64, 0
4, 155756, Note_on_c, 0, 59, 0
4, 155760, Note_on_c, 0, 54, 100
4, 155760, Note_on_c, 0, 57, 100
4, 155760, Note_on_c, 0, 60, 100
4, 156236, Note_on_c, 0, 57, 0
4, 156236, Note_on_c, 0, 54, 0
4, 156240, Note_on_c, 0, 55, 100
4, 156476, Note_on_c, 0, 60, 0
4, 156480, Note_on_c, 0, 59, 100
4, 156716, Note_on_c, 0, 59, 0
4, 156716, Note_on_c, 0, 55, 0
4, 156720, Note_on_c, 0, 48, 100
4, 156720, Note_on_c, 0, 60, 100
4, 156720, Note_on_c, 0, 64, 100
4, 157196, Note_on_c, 0, 48, 0
4, 157200, Note_on_c, 0, 48, 100
4, 157436, Note_on_c, 0, 48, 0
4, 157436, Note_on_c, 0, 64, 0
4, 157436, Note_on_c, 0, 60, 0
4, 157440, Note_on_c, 0, 50, 100
4, 157440, Note_on_c, 0, 62, 100
4, 157676, Note_on_c, 0, 62, 0
4, 157676, Note_on_c, 0, 50, 0
4, 157680, Note_on_c, 0, 52, 100
4, 157680, Note_on_c, 0, 60, 100
4, 157916, Note_on_c, 0, 60, 0
4, 157920, Note_on_c, 0, 59, 100
4, 158156, Note_on_c, 0, 59, 0
4, 158160, Note_on_c, 0, 55, 100
4, 158160, Note_on_c, 0, 60, 100
4, 158396, Note_on_c, 0, 60, 0
4, 158400, Note_on_c, 0, 62, 100
4, 158636, Note_on_c, 0, 62, 0
4, 158636, Note_on_c, 0, 55, 0
4, 158636, Note_on_c, 0, 52, 0
4, 158640, Note_on_c, 0, 50, 100
4, 158640, Note_on_c, 0, 54, 100
4, 158640, Note_on_c, 0, 59, 100
4, 159116, Note_on_c, 0, 54, 0
4, 159116, Note_on_c, 0, 50, 0
4, 159120, Note_on_c, 0, 48, 100
4, 159120, Note_on_c, 0, 52, 100
4, 159356, Note_on_c, 0, 59, 0
4, 159360, Note_on_c, 0, 57, 100
4, 159596, Note_on_c, 0, 57, 0
4, 159596, Note_on_c, 0, 52, 0
4, 159596, Note_on_c, 0, 48, 0
4, 159600, Note_on_c, 0, 47, 100
4, 159600, Note_on_c, 0, 50, 100
4, 159600, Note_on_c, 0, 62, 100
4, 160076, Note_on_c, 0, 50, 0
4, 160076, Note_on_c, 0, 47, 0
4, 160080, Note_on_c, 0, 48, 100
4, 160080, Note_on_c, 0, 52, 100
4, 160316, Note_on_c, 0, 62, 0
4, 160320, Note_on_c, 0, 60, 100
4, 160556, Note_on_c, 0, 60, 0
4, 160556, Note_on_c, 0, 52, 0
4, 160556, Note_on_c, 0, 48, 0
4, 160560, Note_on_c, 0, 50, 100
4, 160560, Note_on_c, 0, 54, 100
4, 160560, Note_on_c, 0, 59, 100
4, 160796, Note_on_c, 0, 59, 0
4, 160800, Note_on_c, 0, 57, 100
4, 161036, Note_on_c, 0, 57, 0
4, 161036, Note_on_c, 0, 54, 0
4, 161036, Note_on_c, 0, 50, 0
4, 161040, Note_on_c, 0, 52, 100
4, 161040, Note_on_c, 0, 55, 100
4, 161276, Note_on_c, 0, 55, 0
4, 161276, Note_on_c, 0, 52, 0
4, 161280, Note_on_c, 0, 48, 100
4, 161280, Note_on_c, 0, 57, 100
4, 161396, Note_on_c, 0, 57, 0
4, 161400, Note_on_c, 0, 59, 100
4, 161516, Note_on_c, 0, 59, 0
4, 161516, Note_on_c, 0, 48, 0
4, 161520, Note_on_c, 0, 50, 100
4, 161520, Note_on_c, 0, 54, 100
4, 161996, Note_on_c, 0, 50, 0
4, 162000, Note_on_c, 0, 50, 100
4, 162236, Note_on_c, 0, 54, 0
4, 162240, Note_on_c, 0, 55, 100
4, 162476, Note_on_c, 0, 55, 0
4, 162476, Note_on_c, 0, 50, 0
4, 162480, Note_on_c, 0, 55, 100
4, 162960, Note_on_c, 0, 43, 100
4, 163196, Note_on_c, 0, 55, 0
4, 163200, Note_on_c, 0, 57, 100
4, 163316, Note_on_c, 0, 57, 0
4, 163320, Note_on_c, 0, 59, 100
4, 163436, Note_on_c, 0, 59, 0
4, 163436, Note_on_c, 0, 43, 0
4, 163440, Note_on_c, 0, 42, 100
4, 163440, Note_on_c, 0, 60, 100
4, 163556, Note_on_c, 0, 60, 0
4, 163560, Note_on_c, 0, 62, 100
4, 163676, Note_on_c, 0, 62, 0
4, 163680, Note_on_c, 0, 64, 100
4, 163796, Note_on_c, 0, 64, 0
4, 163800, Note_on_c, 0, 66, 100
4, 163916, Note_on_c, 0, 66, 0
4, 163916, Note_on_c, 0, 42, 0
4, 163920, Note_on_c, 0, 40, 100
4, 163920, Note_on_c, 0, 67, 100
4, 164396, Note_on_c, 0, 67, 0
4, 164396, Note_on_c, 0, 40, 0
4, 164400, Note_on_c, 0, 52, 100
4, 164400, Note_on_c, 0, 55, 100
4, 164400, Note_on_c, 0, 61, 100
4, 164876, Note_on_c, 0, 55, 0
4, 164876, Note_on_c, 0, 52, 0
4, 164880, Note_on_c, 0, 50, 100
4, 164880, Note_on_c, 0, 54, 100
4, 165116, Note_on_c, 0, 61, 0
4, 165120, Note_on_c, 0, 62, 100
4, 165236, Note_on_c, 0, 62, 0
4, 165240, Note_on_c, 0, 64, 100
4, 165356, Note_on_c, 0, 64, 0
4, 165356, Note_on_c, 0, 54, 0
4, 165356, Note_on_c, 0, 50, 0
4, 165360, Note_on_c, 0, 49, 100
4, 165360, Note_on_c, 0, 52, 100
4, 165360, Note_on_c, 0, 58, 100
4, 165836, Note_on_c, 0, 52, 0
4, 165836, Note_on_c, 0, 49, 0
4, 165840, Note_on_c, 0, 47, 100
4, 165840, Note_on_c, 0, 50, 100
4, 166076, Note_on_c, 0, 58, 0
4, 166080, Note_on_c, 0, 59, 100
4, 166316, Note_on_c, 0, 59, 0
4, 166316, Note_on_c, 0, 50, 0
4, 166316, Note_on_c, 0, 47, 0
4, 166320, Note_on_c, 0, 46, 100
4, 166320, Note_on_c, 0, 49, 100
4, 166320, Note_on_c, 0, 54, 100
4, 166796, Note_on_c, 0, 54, 0
4, 166796, Note_on_c, 0, 49, 0
4, 166796, Note_on_c, 0, 46, 0
4, 166800, Note_on_c, 0, 47, 100
4, 166800, Note_on_c, 0, 50, 100
4, 166800, Note_on_c, 0, 55, 100
4, 167276, Note_on_c, 0, 55, 0
4, 167276, Note_on_c, 0, 50, 0
4, 167276, Note_on_c, 0, 47, 0
4, 167280, Note_on_c, 0, 49, 100
4, 167280, Note_on_c, 0, 52, 100
4, 167756, Note_on_c, 0, 49, 0
4, 167760, Note_on_c, 0, 47, 100
4, 167996, Note_on_c, 0, 52, 0
4, 168000, Note_on_c, 0, 52, 100
4, 168236, Note_on_c, 0, 52, 0
4, 168236, Note_on_c, 0, 47, 0
4, 168240, Note_on_c, 0, 46, 100
4, 168240, Note_on_c, 0, 49, 100
4, 168240, Note_on_c, 0, 52, 100
4, 168716, Note_on_c, 0, 46, 0
4, 168720, Note_on_c, 0, 42, 100
4, 168956, Note_on_c, 0, 52, 0
4, 168960, Note_on_c, 0, 54, 100
4, 169196, Note_on_c, 0, 54, 0
4, 169196, Note_on_c, 0, 42, 0
4, 169196, Note_on_c, 0, 49, 0
4, 169200, Note_on_c, 0, 47, 100
4, 169200, Note_on_c, 0, 50, 100
4, 169436, Note_on_c, 0, 50, 0
4, 169440, Note_on_c, 0, 59, 100
4, 169676, Note_on_c, 0, 59, 0
4, 169676, Note_on_c, 0, 47, 0
4, 169680, Note_on_c, 0, 40, 100
4, 169680, Note_on_c, 0, 49, 100
4, 169680, Note_on_c, 0, 67, 100
4, 169916, Note_on_c, 0, 67, 0
4, 169920, Note_on_c, 0, 59, 100
4, 170156, Note_on_c, 0, 59, 0
4, 170156, Note_on_c, 0, 40, 0
4, 170160, Note_on_c, 0, 42, 100
4, 170160, Note_on_c, 0, 58, 100
4, 170196, Note_on_c, 0, 58, 0
4, 170200, Note_on_c, 0, 59, 100
4, 170236, Note_on_c, 0, 59, 0
4, 170240, Note_on_c, 0, 58, 100
4, 170276, Note_on_c, 0, 58, 0
4, 170280, Note_on_c, 0, 59, 100
4, 170316, Note_on_c, 0, 59, 0
4, 170320, Note_on_c, 0, 58, 100
4, 170356, Note_on_c, 0, 58, 0
4, 170360, Note_on_c, 0, 59, 100
4, 170396, Note_on_c, 0, 59, 0
4, 170400, Note_on_c, 0, 58, 100
4, 170636, Note_on_c, 0, 49, 0
4, 170640, Note_on_c, 0, 52, 100
4, 170876, Note_on_c, 0, 58, 0
4, 170880, Note_on_c, 0, 59, 100
4, 171116, Note_on_c, 0, 59, 0
4, 171116, Note_on_c, 0, 52, 0
4, 171116, Note_on_c, 0, 42, 0
4, 171120, Note_on_c, 0, 51, 100
4, 171120, Note_on_c, 0, 59, 100
4, 171600, Note_on_c, 0, 47, 100
4, 171836, Note_on_c, 0, 51, 0
4, 171840, Note_on_c, 0, 54, 100
4, 172076, Note_on_c, 0, 54, 0
4, 172076, Note_on_c, 0, 47, 0
4, 172076, Note_on_c, 0, 59, 0
4, 172080, Note_on_c, 0, 49, 100
4, 172080, Note_on_c, 0, 52, 100
4, 172080, Note_on_c, 0, 56, 100
4, 172316, Note_on_c, 0, 56, 0
4, 172320, Note_on_c, 0, 58, 100
4, 172556, Note_on_c, 0, 58, 0
4, 172556, Note_on_c, 0, 52, 0
4, 172556, Note_on_c, 0, 49, 0
4, 172560, Note_on_c, 0, 47, 100
4, 172560, Note_on_c, 0, 51, 100
4, 172560, Note_on_c, 0, 59, 100
4, 173516, Note_on_c, 0, 59, 0
4, 173516, Note_on_c, 0, 51, 0
4, 173516, Note_on_c, 0, 47, 0
4, 173760, Note_on_c, 0, 52, 100
4, 173996, Note_on_c, 0, 52, 0
4, 174000, Note_on_c, 0, 52, 100
4, 174480, Note_on_c, 0, 40, 100
4, 174716, Note_on_c, 0, 40, 0
4, 174716, Note_on_c, 0, 52, 0
4, 174720, Note_on_c, 0, 52, 100
4, 174720, Note_on_c, 0, 54, 100
4, 174956, Note_on_c, 0, 54, 0
4, 174956, Note_on_c, 0, 52, 0
4, 174960, Note_on_c, 0, 51, 100
4, 174960, Note_on_c, 0, 54, 100
4, 175196, Note_on_c, 0, 51, 0
4, 175316, Note_on_c, 0, 54, 0
4, 175320, Note_on_c, 0, 52, 100
4, 175376, Note_on_c, 0, 52, 0
4, 175380, Note_on_c, 0, 54, 100
4, 175436, Note_on_c, 0, 54, 0
4, 175440, Note_on_c, 0, 52, 100
4, 175440, Note_on_c, 0, 55, 100
4, 175676, Note_on_c, 0, 52, 0
4, 175796, Note_on_c, 0, 55, 0
4, 175800, Note_on_c, 0, 57, 100
4, 175916, Note_on_c, 0, 57, 0
4, 175920, Note_on_c, 0, 48, 100
4, 175920, Note_on_c, 0, 57, 100
4, 176396, Note_on_c, 0, 48, 0
4, 176400, Note_on_c, 0, 50, 100
4, 176400, Note_on_c, 0, 54, 100
4, 176636, Note_on_c, 0, 57, 0
4, 176640, Note_on_c, 0, 55, 100
4, 176756, Note_on_c, 0, 55, 0
4, 176760, Note_on_c, 0, 57, 100
4, 176876, Note_on_c, 0, 57, 0
4, 176876, Note_on_c, 0, 54, 0
4, 176876, Note_on_c, 0, 50, 0
4, 176880, Note_on_c, 0, 55, 100
4, 176880, Note_on_c, 0, 59, 100
4, 177360, Note_on_c, 0, 43, 100
4, 177596, Note_on_c, 0, 43, 0
4, 177596, Note_on_c, 0, 59, 0
4, 177600, Note_on_c, 0, 54, 100
4, 177600, Note_on_c, 0, 59, 100
4, 177836, Note_on_c, 0, 59, 0
4, 177836, Note_on_c, 0, 54, 0
4, 177836, Note_on_c, 0, 55, 0
4, 177840, Note_on_c, 0, 52, 100
4, 177840, Note_on_c, 0, 55, 100
4, 177840, Note_on_c, 0, 60, 100
4, 178316, Note_on_c, 0, 60, 0
4, 178316, Note_on_c, 0, 55, 0
4, 178316, Note_on_c, 0, 52, 0
4, 178320, Note_on_c, 0, 50, 100
4, 178320, Note_on_c, 0, 54, 100
4, 178320, Note_on_c, 0, 59, 100
4, 178796, Note_on_c, 0, 59, 0
4, 178796, Note_on_c, 0, 54, 0
4, 178796, Note_on_c, 0, 50, 0
4, 178800, Note_on_c, 0, 48, 100
4, 178800, Note_on_c, 0, 55, 100
4, 178800, Note_on_c, 0, 64, 100
4, 179276, Note_on_c, 0, 55, 0
4, 179280, Note_on_c, 0, 57, 100
4, 179516, Note_on_c, 0, 64, 0
4, 179520, Note_on_c, 0, 66, 100
4, 179756, Note_on_c, 0, 66, 0
4, 179756, Note_on_c, 0, 57, 0
4, 179756, Note_on_c, 0, 48, 0
4, 179760, Note_on_c, 0, 59, 100
4, 179760, Note_on_c, 0, 63, 100
4, 180236, Note_on_c, 0, 59, 0
4, 180240, Note_on_c, 0, 47, 100
4, 180476, Note_on_c, 0, 47, 0
4, 180480, Note_on_c, 0, 59, 100
4, 180716, Note_on_c, 0, 59, 0
4, 180720, Note_on_c, 0, 57, 100
4, 181196, Note_on_c, 0, 57, 0
4, 181196, Note_on_c, 0, 63, 0
4, 181200, Note_on_c, 0, 55, 100
4, 181200, Note_on_c, 0, 64, 100
4, 181676, Note_on_c, 0, 55, 0
4, 181680, Note_on_c, 0, 54, 100
4, 181680, Note_on_c, 0, 66, 100
4, 182156, Note_on_c, 0, 64, 0
4, 182160, Note_on_c, 0, 63, 100
4, 182396, Note_on_c, 0, 66, 0
4, 182400, Note_on_c, 0, 64, 100
4, 182516, Note_on_c, 0, 64, 0
4, 182520, Note_on_c, 0, 66, 100
4, 182636, Note_on_c, 0, 66, 0
4, 182636, Note_on_c, 0, 63, 0
4, 182636, Note_on_c, 0, 54, 0
4, 182640, Note_on_c, 0, 52, 100
4, 182640, Note_on_c, 0, 64, 100
4, 182640, Note_on_c, 0, 67, 100
4, 183116, Note_on_c, 0, 64, 0
4, 183116, Note_on_c, 0, 52, 0
4, 183120, Note_on_c, 0, 40, 100
4, 183356, Note_on_c, 0, 40, 0
4, 183356, Note_on_c, 0, 67, 0
4, 183360, Note_on_c, 0, 54, 100
4, 183360, Note_on_c, 0, 66, 100
4, 183596, Note_on_c, 0, 66, 0
4, 183596, Note_on_c, 0, 54, 0
4, 183600, Note_on_c, 0, 55, 100
4, 183600, Note_on_c, 0, 64, 100
4, 183836, Note_on_c, 0, 55, 0
4, 183840, Note_on_c, 0, 57, 100
4, 184076, Note_on_c, 0, 57, 0
4, 184076, Note_on_c, 0, 64, 0
4, 184080, Note_on_c, 0, 59, 100
4, 184080, Note_on_c, 0, 62, 100
4, 184316, Note_on_c, 0, 62, 0
4, 184320, Note_on_c, 0, 64, 100
4, 184556, Note_on_c, 0, 64, 0
4, 184556, Note_on_c, 0, 59, 0
4, 184560, Note_on_c, 0, 54, 100
4, 184560, Note_on_c, 0, 57, 100
4, 184560, Note_on_c, 0, 60, 100
4, 185036, Note_on_c, 0, 57, 0
4, 185036, Note_on_c, 0, 54, 0
4, 185040, Note_on_c, 0, 55, 100
4, 185276, Note_on_c, 0, 60, 0
4, 185280, Note_on_c, 0, 59, 100
4, 185516, Note_on_c, 0, 59, 0
4, 185516, Note_on_c, 0, 55, 0
4, 185520, Note_on_c, 0, 48, 100
4, 185520, Note_on_c, 0, 60, 100
4, 185520, Note_on_c, 0, 64, 100
4, 185996, Note_on_c, 0, 48, 0
4, 186000, Note_on_c, 0, 48, 100
4, 186236, Note_on_c, 0, 48, 0
4, 186236, Note_on_c, 0, 64, 0
4, 186236, Note_on_c, 0, 60, 0
4, 186240, Note_on_c, 0, 50, 100
4, 186240, Note_on_c, 0, 62, 100
4, 186476, Note_on_c, 0, 62, 0
4, 186476, Note_on_c, 0, 50, 0
4, 186480, Note_on_c, 0, 52, 100
4, 186480, Note_on_c, 0, 60, 100
4, 186716, Note_on_c, 0, 60, 0
4, 186720, Note_on_c, 0, 59, 100
4, 186956, Note_on_c, 0, 59, 0
4, 186960, Note_on_c, 0, 55, 100
4, 186960, Note_on_c, 0, 60, 100
4, 187196, Note_on_c, 0, 60, 0
4, 187200, Note_on_c, 0, 62, 100
4, 187436, Note_on_c, 0, 62, 0
4, 187436, Note_on_c, 0, 55, 0
4, 187436, Note_on_c, 0, 52, 0
4, 187440, Note_on_c, 0, 50, 100
4, 187440, Note_on_c, 0, 54, 100
4, 187440, Note_on_c, 0, 59, 100
4, 187916, Note_on_c, 0, 54, 0
4, 187916, Note_on_c, 0, 50, 0
4, 187920, Note_on_c, 0, 48, 100
4, 187920, Note_on_c, 0, 52, 100
4, 188156, Note_on_c, 0, 59, 0
4, 188160, Note_on_c, 0, 57, 100
4, 188396, Note_on_c, 0, 57, 0
4, 188396, Note_on_c, 0, 52, 0
4, 188396, Note_on_c, 0, 48, 0
4, 188400, Note_on_c, 0, 47, 100
4, 188400, Note_on_c, 0, 50, 100
4, 188400, Note_on_c, 0, 62, 100
4, 188876, Note_on_c, 0, 50, 0
4, 188876, Note_on_c, 0, 47, 0
4, 188880, Note_on_c, 0, 48, 100
4, 188880, Note_on_c, 0, 52, 100
4, 189116, Note_on_c, 0, 62, 0
4, 189120, Note_on_c, 0, 60, 100
4, 189356, Note_on_c, 0, 60, 0
4, 189356, Note_on_c, 0, 52, 0
4, 189356, Note_on_c, 0, 48, 0
4, 189360, Note_on_c, 0, 50, 100
4, 189360, Note_on_c, 0, 54, 100
4, 189360, Note_on_c, 0, 59, 100
4, 189596, Note_on_c, 0, 59, 0
4, 189600, Note_on_c, 0, 57, 100
4, 189836, Note_on_c, 0, 57, 0
4, 189836, Note_on_c, 0, 54, 0
4, 189836, Note_on_c, 0, 50, 0
4, 189840, Note_on_c, 0, 52, 100
4, 189840, Note_on_c, 0, 55, 100
4, 190076, Note_on_c, 0, 55, 0
4, 190076, Note_on_c, 0, 52, 0
4, 190080, Note_on_c, 0, 48, 100
4, 190080, Note_on_c, 0, 57, 100
4, 190196, Note_on_c, 0, 57, 0
4, 190200, Note_on_c, 0, 59, 100
4, 190316, Note_on_c, 0, 59, 0
4, 190316, Note_on_c, 0, 48, 0
4, 190320, Note_on_c, 0, 50, 100
4, 190320, Note_on_c, 0, 54, 100
4, 190796, Note_on_c, 0, 50, 0
4, 190800, Note_on_c, 0, 50, 100
4, 191036, Note_on_c, 0, 54, 0
4, 191040, Note_on_c, 0, 55, 100
4, 191276, Note_on_c, 0, 55, 0
4, 191276, Note_on_c, 0, 50, 0
4, 191280, Note_on_c, 0, 55, 100
4, 191760, Note_on_c, 0, 43, 100
4, 191996, Note_on_c, 0, 55, 0
4, 192000, Note_on_c, 0, 57, 100
4, 192116, Note_on_c, 0, 57, 0
4, 192120, Note_on_c, 0, 59, 100
4, 192236, Note_on_c, 0, 59, 0
4, 192236, Note_on_c, 0, 43, 0
4, 192240, Note_on_c, 0, 42, 100
4, 192240, Note_on_c, 0, 60, 100
4, 192356, Note_on_c, 0, 60, 0
4, 192360, Note_on_c, 0, 62, 100
4, 192476, Note_on_c, 0, 62, 0
4, 192480, Note_on_c, 0, 64, 100
4, 192596, Note_on_c, 0, 64, 0
4, 192600, Note_on_c, 0, 66, 100
4, 192716, Note_on_c, 0, 66, 0
4, 192716, Note_on_c, 0, 42, 0
4, 192720, Note_on_c, 0, 40, 100
4, 192720, Note_on_c, 0, 67, 100
4, 193196, Note_on_c, 0, 67, 0
4, 193196, Note_on_c, 0, 40, 0
4, 193200, Note_on_c, 0, 52, 100
4, 193200, Note_on_c, 0, 55, 100
4, 193200, Note_on_c, 0, 61, 100
4, 193676, Note_on_c, 0, 55, 0
4, 193676, Note_on_c, 0, 52, 0
4, 193680, Note_on_c, 0, 50, 100
4, 193680, Note_on_c, 0, 54, 100
4, 193916, Note_on_c, 0, 61, 0
4, 193920, Note_on_c, 0, 62, 100
4, 194036, Note_on_c, 0, 62, 0
4, 194040, Note_on_c, 0, 64, 100
4, 194156, Note_on_c, 0, 64, 0
4, 194156, Note_on_c, 0, 54, 0
4, 194156, Note_on_c, 0, 50, 0
4, 194160, Note_on_c, 0, 49, 100
4, 194160, Note_on_c, 0, 52, 100
4, 194160, Note_on_c, 0, 58, 100
4, 194636, Note_on_c, 0, 52, 0
4, 194636, Note_on_c, 0, 49, 0
4, 194640, Note_on_c, 0, 47, 100
4, 194640, Note_on_c, 0, 50, 100
4, 194876, Note_on_c, 0, 58, 0
4, 194880, Note_on_c, 0, 59, 100
4, 195116, Note_on_c, 0, 59, 0
4, 195116, Note_on_c, 0, 50, 0
4, 195116, Note_on_c, 0, 47, 0
4, 195120, Note_on_c, 0, 46, 100
4, 195120, Note_on_c, 0, 49, 100
4, 195120, Note_on_c, 0, 54, 100
4, 195596, Note_on_c, 0, 54, 0
4, 195596, Note_on_c, 0, 49, 0
4, 195596, Note_on_c, 0, 46, 0
4, 195600, Note_on_c, 0, 47, 100
4, 195600, Note_on_c, 0, 50, 100
4, 195600, Note_on_c, 0, 55, 100
4, 196076, Note_on_c, 0, 55, 0
4, 196076, Note_on_c, 0, 50, 0
4, 196076, Note_on_c, 0, 47, 0
4, 196080, Note_on_c, 0, 49, 100
4, 196080, Note_on_c, 0, 52, 100
4, 196556, Note_on_c, 0, 49, 0
4, 196560, Note_on_c, 0, 47, 100
4, 196796, Note_on_c, 0, 52, 0
4, 196800, Note_on_c, 0, 52, 100
4, 197036, Note_on_c, 0, 52, 0
4, 197036, Note_on_c, 0, 47, 0
4, 197040, Note_on_c, 0, 46, 100
4, 197040, Note_on_c, 0, 49, 100
4, 197040, Note_on_c, 0, 52, 100
4, 197516, Note_on_c, 0, 46, 0
4, 197520, Note_on_c, 0, 42, 100
4, 197756, Note_on_c, 0, 52, 0
4, 197760, Note_on_c, 0, 54, 100
4, 197996, Note_on_c, 0, 54, 0
4, 197996, Note_on_c, 0, 42, 0
4, 197996, Note_on_c, 0, 49, 0
4, 198000, Note_on_c, 0, 47, 100
4, 198000, Note_on_c, 0, 50, 100
4, 198236, Note_on_c, 0, 50, 0
4, 198240, Note_on_c, 0, 59, 100
4, 198476, Note_on_c, 0, 59, 0
4, 198476, Note_on_c, 0, 47, 0
4, 198480, Note_on_c, 0, 40, 100
4, 198480, Note_on_c, 0, 49, 100
4, 198480, Note_on_c, 0, 67, 100
4, 198716, Note_on_c, 0, 67, 0
4, 198720, Note_on_c, 0, 59, 100
4, 198956, Note_on_c, 0, 59, 0
4, 198956, Note_on_c, 0, 40, 0
4, 198960, Note_on_c, 0, 42, 100
4, 198960, Note_on_c, 0, 58, 100
4, 198996, Note_on_c, 0, 58, 0
4, 199000, Note_on_c, 0, 59, 100
4, 199036, Note_on_c, 0, 59, 0
4, 199040, Note_on_c, 0, 58, 100
4, 199076, Note_on_c, 0, 58, 0
4, 199080, Note_on_c, 0, 59, 100
4, 199116, Note_on_c, 0, 59, 0
4, 199120, Note_on_c, 0, 58, 100
4, 199156, Note_on_c, 0, 58, 0
4, 199160, Note_on_c, 0, 59, 100
4, 199196, Note_on_c, 0, 59, 0
4, 199200, Note_on_c, 0, 58, 100
4, 199436, Note_on_c, 0, 49, 0
4, 199440, Note_on_c, 0, 52, 100
4, 199676, Note_on_c, 0, 58, 0
4, 199680, Note_on_c, 0, 59, 100
4, 199916, Note_on_c, 0, 59, 0
4, 199916, Note_on_c, 0, 52, 0
4, 199916, Note_on_c, 0, 42, 0
4, 199920, Note_on_c, 0, 51, 100
4, 199920, Note_on_c, 0, 59, 100
4, 200400, Note_on_c, 0, 47, 100
4, 200636, Note_on_c, 0, 51, 0
4, 200640, Note_on_c, 0, 54, 100
4, 200876, Note_on_c, 0, 54, 0
4, 200876, Note_on_c, 0, 47, 0
4, 200876, Note_on_c, 0, 59, 0
4, 200880, Note_on_c, 0, 49, 100
4, 200880, Note_on_c, 0, 52, 100
4, 200880, Note_on_c, 0, 56, 100
4, 201116, Note_on_c, 0, 56, 0
4, 201120, Note_on_c, 0, 58, 100
4, 201356, Note_on_c, 0, 58, 0
4, 201356, Note_on_c, 0, 52, 0
4, 201356, Note_on_c, 0, 49, 0
4, 201360, Note_on_c, 0, 47, 100
4, 201360, Note_on_c, 0, 51, 100
4, 201360, Note_on_c, 0, 59, 100
4, 202316, Note_on_c, 0, 59, 0
4, 202316, Note_on_c, 0, 51, 0
4, 202316, Note_on_c, 0, 47, 0
4, 202560, Note_on_c, 0, 71, 100
4, 202796, Note_on_c, 0, 71, 0
4, 202800, Note_on_c, 0, 55, 100
4, 202800, Note_on_c, 0, 62, 100
4, 202800, Note_on_c, 0, 67, 100
4, 202800, Note_on_c, 0, 71, 100
4, 203280, Note_on_c, 0, 43, 100
4, 203516, Note_on_c, 0, 71, 0
4, 203516, Note_on_c, 0, 67, 0
4, 203516, Note_on_c, 0, 55, 0
4, 203516, Note_on_c, 0, 62, 0
4, 203520, Note_on_c, 0, 57, 100
4, 203520, Note_on_c, 0, 69, 100
4, 203756, Note_on_c, 0, 69, 0
4, 203756, Note_on_c, 0, 57, 0
4, 203756, Note_on_c, 0, 43, 0
4, 203760, Note_on_c, 0, 59, 100
4, 203760, Note_on_c, 0, 67, 100
4, 203996, Note_on_c, 0, 67, 0
4, 203996, Note_on_c, 0, 59, 0
4, 204000, Note_on_c, 0, 60, 100
4, 204000, Note_on_c, 0, 69, 100
4, 204236, Note_on_c, 0, 69, 0
4, 204236, Note_on_c, 0, 60, 0
4, 204240, Note_on_c, 0, 62, 100
4, 204240, Note_on_c, 0, 66, 100
4, 204720, Note_on_c, 0, 60, 100
4, 204956, Note_on_c, 0, 66, 0
4, 204960, Note_on_c, 0, 66, 100
4, 205196, Note_on_c, 0, 66, 0
4, 205196, Note_on_c, 0, 60, 0
4, 205196, Note_on_c, 0, 62, 0
4, 205200, Note_on_c, 0, 59, 100
4, 205200, Note_on_c, 0, 62, 100
4, 205200, Note_on_c, 0, 67, 100
4, 205676, Note_on_c, 0, 67, 0
4, 205676, Note_on_c, 0, 62, 0
4, 205676, Note_on_c, 0, 59, 0
4, 205680, Note_on_c, 0, 60, 100
4, 205680, Note_on_c, 0, 64, 100
4, 206156, Note_on_c, 0, 64, 0
4, 206156, Note_on_c, 0, 60, 0
4, 206160, Note_on_c, 0, 59, 100
4, 206160, Note_on_c, 0, 69, 100
4, 206396, Note_on_c, 0, 69, 0
4, 206400, Note_on_c, 0, 67, 100
4, 206636, Note_on_c, 0, 67, 0
4, 206636, Note_on_c, 0, 59, 0
4, 206640, Note_on_c, 0, 57, 100
4, 206640, Note_on_c, 0, 60, 100
4, 206640, Note_on_c, 0, 66, 100
4, 206876, Note_on_c, 0, 66, 0
4, 206880, Note_on_c, 0, 64, 100
4, 207116, Note_on_c, 0, 64, 0
4, 207116, Note_on_c, 0, 60, 0
4, 207116, Note_on_c, 0, 57, 0
4, 207120, Note_on_c, 0, 59, 100
4, 207120, Note_on_c, 0, 63, 100
4, 207596, Note_on_c, 0, 59, 0
4, 207600, Note_on_c, 0, 47, 100
4, 207836, Note_on_c, 0, 47, 0
4, 207840, Note_on_c, 0, 59, 100
4, 208076, Note_on_c, 0, 59, 0
4, 208080, Note_on_c, 0, 57, 100
4, 208320, Note_on_c, 0, 63, 100
4, 208556, Note_on_c, 0, 63, 0
4, 208556, Note_on_c, 0, 57, 0
4, 208556, Note_on_c, 0, 63, 0
4, 208560, Note_on_c, 0, 56, 100
4, 208560, Note_on_c, 0, 59, 100
4, 208560, Note_on_c, 0, 64, 100
4, 209036, Note_on_c, 0, 56, 0
4, 209040, Note_on_c, 0, 52, 100
4, 209276, Note_on_c, 0, 64, 0
4, 209280, Note_on_c, 0, 62, 100
4, 209516, Note_on_c, 0, 62, 0
4, 209516, Note_on_c, 0, 52, 0
4, 209516, Note_on_c, 0, 59, 0
4, 209520, Note_on_c, 0, 57, 100
4, 209520, Note_on_c, 0, 60, 100
4, 209756, Note_on_c, 0, 60, 0
4, 209760, Note_on_c, 0, 62, 100
4, 209996, Note_on_c, 0, 62, 0
4, 210000, Note_on_c, 0, 50, 100
4, 210000, Note_on_c, 0, 59, 100
4, 210476, Note_on_c, 0, 50, 0
4, 210476, Note_on_c, 0, 57, 0
4, 210480, Note_on_c, 0, 52, 100
4, 210480, Note_on_c, 0, 56, 100
4, 210716, Note_on_c, 0, 59, 0
4, 210720, Note_on_c, 0, 59, 100
4, 210956, Note_on_c, 0, 59, 0
4, 210956, Note_on_c, 0, 56, 0
4, 210956, Note_on_c, 0, 52, 0
4, 210960, Note_on_c, 0, 45, 100
4, 210960, Note_on_c, 0, 57, 100
4, 210960, Note_on_c, 0, 60, 100
4, 211436, Note_on_c, 0, 60, 0
4, 211436, Note_on_c, 0, 57, 0
4, 211436, Note_on_c, 0, 45, 0
4, 211440, Note_on_c, 0, 53, 100
4, 211440, Note_on_c, 0, 57, 100
4, 211916, Note_on_c, 0, 57, 0
4, 211916, Note_on_c, 0, 53, 0
4, 211920, Note_on_c, 0, 52, 100
4, 211920, Note_on_c, 0, 55, 100
4, 211920, Note_on_c, 0, 62, 100
4, 212156, Note_on_c, 0, 62, 0
4, 212160, Note_on_c, 0, 60, 100
4, 212396, Note_on_c, 0, 60, 0
4, 212396, Note_on_c, 0, 55, 0
4, 212396, Note_on_c, 0, 52, 0
4, 212400, Note_on_c, 0, 50, 100
4, 212400, Note_on_c, 0, 53, 100
4, 212400, Note_on_c, 0, 59, 100
4, 212636, Note_on_c, 0, 59, 0
4, 212640, Note_on_c, 0, 57, 100
4, 212876, Note_on_c, 0, 57, 0
4, 212876, Note_on_c, 0, 53, 0
4, 212876, Note_on_c, 0, 50, 0
4, 212880, Note_on_c, 0, 52, 100
4, 212880, Note_on_c, 0, 56, 100
4, 213356, Note_on_c, 0, 56, 0
4, 213356, Note_on_c, 0, 52, 0
4, 213360, Note_on_c, 0, 50, 100
4, 213600, Note_on_c, 0, 56, 100
4, 213836, Note_on_c, 0, 56, 0
4, 213836, Note_on_c, 0, 50, 0
4, 213840, Note_on_c, 0, 48, 100
4, 213840, Note_on_c, 0, 52, 100
4, 213840, Note_on_c, 0, 57, 100
4, 214316, Note_on_c, 0, 52, 0
4, 214316, Note_on_c, 0, 48, 0
4, 214320, Note_on_c, 0, 47, 100
4, 214320, Note_on_c, 0, 50, 100
4, 214556, Note_on_c, 0, 57, 0
4, 214560, Note_on_c, 0, 57, 100
4, 214796, Note_on_c, 0, 57, 0
4, 214796, Note_on_c, 0, 50, 0
4, 214796, Note_on_c, 0, 47, 0
4, 214800, Note_on_c, 0, 45, 100
4, 214800, Note_on_c, 0, 53, 100
4, 214800, Note_on_c, 0, 62, 100
4, 215276, Note_on_c, 0, 53, 0
4, 215276, Note_on_c, 0, 45, 0
4, 215280, Note_on_c, 0, 44, 100
4, 215280, Note_on_c, 0, 52, 100
4, 215516, Note_on_c, 0, 62, 0
4, 215520, Note_on_c, 0, 64, 100
4, 215756, Note_on_c, 0, 64, 0
4, 215756, Note_on_c, 0, 52, 0
4, 215756, Note_on_c, 0, 44, 0
4, 215760, Note_on_c, 0, 45, 100
4, 215760, Note_on_c, 0, 52, 100
4, 215760, Note_on_c, 0, 57, 100
4, 215760, Note_on_c, 0, 60, 100
4, 215996, Note_on_c, 0, 60, 0
4, 215996, Note_on_c, 0, 45, 0
4, 215996, Note_on_c, 0, 52, 0
4, 216000, Note_on_c, 0, 50, 100
4, 216000, Note_on_c, 0, 62, 100
4, 216236, Note_on_c, 0, 62, 0
4, 216236, Note_on_c, 0, 50, 0
4, 216240, Note_on_c, 0, 52, 100
4, 216240, Note_on_c, 0, 59, 100
4, 216716, Note_on_c, 0, 59, 0
4, 216716, Note_on_c, 0, 52, 0
4, 216716, Note_on_c, 0, 57, 0
4, 216720, Note_on_c, 0, 40, 100
4, 216720, Note_on_c, 0, 56, 100
4, 216960, Note_on_c, 0, 57, 100
4, 217196, Note_on_c, 0, 57, 0
4, 217196, Note_on_c, 0, 56, 0
4, 217196, Note_on_c, 0, 40, 0
4, 217200, Note_on_c, 0, 45, 100
4, 217200, Note_on_c, 0, 57, 100
4, 217680, Note_on_c, 0, 52, 100
4, 217916, Note_on_c, 0, 57, 0
4, 217920, Note_on_c, 0, 59, 100
4, 218156, Note_on_c, 0, 59, 0
4, 218156, Note_on_c, 0, 52, 0
4, 218156, Note_on_c, 0, 45, 0
4, 218160, Note_on_c, 0, 57, 100
4, 218160, Note_on_c, 0, 60, 100
4, 218636, Note_on_c, 0, 57, 0
4, 218640, Note_on_c, 0, 55, 100
4, 218876, Note_on_c, 0, 60, 0
4, 218880, Note_on_c, 0, 61, 100
4, 219116, Note_on_c, 0, 61, 0
4, 219116, Note_on_c, 0, 55, 0
4, 219120, Note_on_c, 0, 54, 100
4, 219120, Note_on_c, 0, 59, 100
4, 219120, Note_on_c, 0, 62, 100
4, 219596, Note_on_c, 0, 59, 0
4, 219596, Note_on_c, 0, 54, 0
4, 219600, Note_on_c, 0, 52, 100
4, 219600, Note_on_c, 0, 55, 100
4, 219836, Note_on_c, 0, 62, 0
4, 219840, Note_on_c, 0, 64, 100
4, 220076, Note_on_c, 0, 64, 0
4, 220076, Note_on_c, 0, 55, 0
4, 220076, Note_on_c, 0, 52, 0
4, 220080, Note_on_c, 0, 50, 100
4, 220080, Note_on_c, 0, 57, 100
4, 220080, Note_on_c, 0, 62, 100
4, 220080, Note_on_c, 0, 66, 100
4, 220556, Note_on_c, 0, 50, 0
4, 220560, Note_on_c, 0, 48, 100
4, 220796, Note_on_c, 0, 66, 0
4, 220800, Note_on_c, 0, 66, 100
4, 221036, Note_on_c, 0, 66, 0
4, 221036, Note_on_c, 0, 48, 0
4, 221036, Note_on_c, 0, 57, 0
4, 221040, Note_on_c, 0, 47, 100
4, 221040, Note_on_c, 0, 55, 100
4, 221040, Note_on_c, 0, 67, 100
4, 221516, Note_on_c, 0, 47, 0
4, 221516, Note_on_c, 0, 62, 0
4, 221520, Note_on_c, 0, 48, 100
4, 221520, Note_on_c, 0, 64, 100
4, 221756, Note_on_c, 0, 67, 0
4, 221760, Note_on_c, 0, 69, 100
4, 221996, Note_on_c, 0, 69, 0
4, 221996, Note_on_c, 0, 64, 0
4, 221996, Note_on_c, 0, 48, 0
4, 221996, Note_on_c, 0, 55, 0
4, 222000, Note_on_c, 0, 45, 100
4, 222000, Note_on_c, 0, 60, 100
4, 222000, Note_on_c, 0, 69, 100
4, 222476, Note_on_c, 0, 69, 0
4, 222476, Note_on_c, 0, 60, 0
4, 222476, Note_on_c, 0, 45, 0
4, 222480, Note_on_c, 0, 50, 100
4, 222480, Note_on_c, 0, 54, 100
4, 222480, Note_on_c, 0, 62, 100
4, 222720, Note_on_c, 0, 67, 100
4, 222836, Note_on_c, 0, 67, 0
4, 222840, Note_on_c, 0, 69, 100
4, 222956, Note_on_c, 0, 69, 0
4, 222956, Note_on_c, 0, 62, 0
4, 222956, Note_on_c, 0, 54, 0
4, 222956, Note_on_c, 0, 50, 0
4, 222960, Note_on_c, 0, 55, 100
4, 222960, Note_on_c, 0, 62, 100
4, 222960, Note_on_c, 0, 71, 100
4, 223196, Note_on_c, 0, 55, 0
4, 223200, Note_on_c, 0, 55, 100
4, 223436, Note_on_c, 0, 55, 0
4, 223440, Note_on_c, 0, 57, 100
4, 223676, Note_on_c, 0, 57, 0
4, 223676, Note_on_c, 0, 62, 0
4, 223680, Note_on_c, 0, 55, 100
4, 223680, Note_on_c, 0, 63, 100
4, 223916, Note_on_c, 0, 63, 0
4, 223916, Note_on_c, 0, 55, 0
4, 223916, Note_on_c, 0, 71, 0
4, 223920, Note_on_c, 0, 54, 100
4, 223920, Note_on_c, 0, 64, 100
4, 224156, Note_on_c, 0, 54, 0
4, 224160, Note_on_c, 0, 52, 100
4, 224276, Note_on_c, 0, 64, 0
4, 224280, Note_on_c, 0, 63, 100
4, 224336, Note_on_c, 0, 63, 0
4, 224340, Note_on_c, 0, 64, 100
4, 224396, Note_on_c, 0, 64, 0
4, 224396, Note_on_c, 0, 52, 0
4, 224400, Note_on_c, 0, 51, 100
4, 224400, Note_on_c, 0, 66, 100
4, 224880, Note_on_c, 0, 54, 100
4, 225356, Note_on_c, 0, 54, 0
4, 225360, Note_on_c, 0, 59, 100
4, 225600, Note_on_c, 0, 71, 100
4, 225836, Note_on_c, 0, 71, 0
4, 225836, Note_on_c, 0, 51, 0
4, 225836, Note_on_c, 0, 66, 0
4, 225836, Note_on_c, 0, 59, 0
4, 225840, Note_on_c, 0, 52, 100
4, 225840, Note_on_c, 0, 59, 100
4, 225840, Note_on_c, 0, 67, 100
4, 225956, Note_on_c, 0, 67, 0
4, 225960, Note_on_c, 0, 69, 100
4, 226076, Note_on_c, 0, 69, 0
4, 226080, Note_on_c, 0, 71, 100
4, 226316, Note_on_c, 0, 71, 0
4, 226316, Note_on_c, 0, 59, 0
4, 226316, Note_on_c, 0, 52, 0
4, 226320, Note_on_c, 0, 71, 100
4, 226436, Note_on_c, 0, 71, 0
4, 226440, Note_on_c, 0, 69, 100
4, 226556, Note_on_c, 0, 69, 0
4, 226560, Note_on_c, 0, 50, 100
4, 226560, Note_on_c, 0, 59, 100
4, 226560, Note_on_c, 0, 67, 100
4, 226796, Note_on_c, 0, 67, 0
4, 226796, Note_on_c, 0, 59, 0
4, 226796, Note_on_c, 0, 50, 0
4, 226800, Note_on_c, 0, 48, 100
4, 226800, Note_on_c, 0, 64, 100
4, 226800, Note_on_c, 0, 69, 100
4, 226916, Note_on_c, 0, 69, 0
4, 226920, Note_on_c, 0, 71, 100
4, 227036, Note_on_c, 0, 71, 0
4, 227036, Note_on_c, 0, 64, 0
4, 227036, Note_on_c, 0, 48, 0
4, 227040, Note_on_c, 0, 72, 100
4, 227276, Note_on_c, 0, 72, 0
4, 227280, Note_on_c, 0, 47, 100
4, 227280, Note_on_c, 0, 54, 100
4, 227280, Note_on_c, 0, 63, 100
4, 227396, Note_on_c, 0, 63, 0
4, 227400, Note_on_c, 0, 64, 100
4, 227516, Note_on_c, 0, 64, 0
4, 227520, Note_on_c, 0, 66, 100
4, 227756, Note_on_c, 0, 66, 0
4, 227756, Note_on_c, 0, 54, 0
4, 227756, Note_on_c, 0, 47, 0
4, 227760, Note_on_c, 0, 66, 100
4, 227876, Note_on_c, 0, 66, 0
4, 227880, Note_on_c, 0, 64, 100
4, 227996, Note_on_c, 0, 64, 0
4, 228000, Note_on_c, 0, 45, 100
4, 228000, Note_on_c, 0, 54, 100
4, 228000, Note_on_c, 0, 63, 100
4, 228236, Note_on_c, 0, 63, 0
4, 228236, Note_on_c, 0, 54, 0
4, 228236, Note_on_c, 0, 45, 0
4, 228240, Note_on_c, 0, 43, 100
4, 228240, Note_on_c, 0, 55, 100
4, 228240, Note_on_c, 0, 64, 100
4, 228356, Note_on_c, 0, 64, 0
4, 228360, Note_on_c, 0, 66, 100
4, 228476, Note_on_c, 0, 66, 0
4, 228480, Note_on_c, 0, 67, 100
4, 228716, Note_on_c, 0, 67, 0
4, 228716, Note_on_c, 0, 55, 0
4, 228716, Note_on_c, 0, 43, 0
4, 228720, Note_on_c, 0, 45, 100
4, 228720, Note_on_c, 0, 52, 100
4, 228720, Note_on_c, 0, 60, 100
4, 229196, Note_on_c, 0, 52, 0
4, 229200, Note_on_c, 0, 55, 100
4, 229436, Note_on_c, 0, 60, 0
4, 229440, Note_on_c, 0, 61, 100
4, 229676, Note_on_c, 0, 61, 0
4, 229676, Note_on_c, 0, 55, 0
4, 229676, Note_on_c, 0, 45, 0
4, 229680, Note_on_c, 0, 47, 100
4, 229680, Note_on_c, 0, 54, 100
4, 229680, Note_on_c, 0, 62, 100
4, 230156, Note_on_c, 0, 54, 0
4, 230160, Note_on_c, 0, 59, 100
4, 230396, Note_on_c, 0, 62, 0
4, 230400, Note_on_c, 0, 63, 100
4, 230636, Note_on_c, 0, 63, 0
4, 230636, Note_on_c, 0, 47, 0
4, 230640, Note_on_c, 0, 48, 100
4, 230640, Note_on_c, 0, 64, 100
4, 231116, Note_on_c, 0, 48, 0
4, 231116, Note_on_c, 0, 59, 0
4, 231120, Note_on_c, 0, 49, 100
4, 231120, Note_on_c, 0, 57, 100
4, 231356, Note_on_c, 0, 64, 0
4, 231360, Note_on_c, 0, 64, 100
4, 231596, Note_on_c, 0, 64, 0
4, 231596, Note_on_c, 0, 49, 0
4, 231600, Note_on_c, 0, 50, 100
4, 231600, Note_on_c, 0, 66, 100
4, 232076, Note_on_c, 0, 50, 0
4, 232076, Note_on_c, 0, 57, 0
4, 232080, Note_on_c, 0, 51, 100
4, 232080, Note_on_c, 0, 54, 100
4, 232316, Note_on_c, 0, 66, 0
4, 232320, Note_on_c, 0, 59, 100
4, 232556, Note_on_c, 0, 59, 0
4, 232556, Note_on_c, 0, 54, 0
4, 232556, Note_on_c, 0, 51, 0
4, 232560, Note_on_c, 0, 52, 100
4, 232560, Note_on_c, 0, 67, 100
4, 232796, Note_on_c, 0, 67, 0
4, 232860, Note_on_c, 0, 69, 100
4, 232916, Note_on_c, 0, 69, 0
4, 232920, Note_on_c, 0, 67, 100
4, 232976, Note_on_c, 0, 67, 0
4, 232980, Note_on_c, 0, 66, 100
4, 233036, Note_on_c, 0, 66, 0
4, 233040, Note_on_c, 0, 45, 100
4, 233040, Note_on_c, 0, 64, 100
4, 233156, Note_on_c, 0, 64, 0
4, 233160, Note_on_c, 0, 63, 100
4, 233276, Note_on_c, 0, 63, 0
4, 233280, Note_on_c, 0, 64, 100
4, 233396, Note_on_c, 0, 64, 0
4, 233400, Note_on_c, 0, 66, 100
4, 233516, Note_on_c, 0, 66, 0
4, 233516, Note_on_c, 0, 45, 0
4, 233520, Note_on_c, 0, 47, 100
4, 233520, Note_on_c, 0, 66, 100
4, 233556, Note_on_c, 0, 66, 0
4, 233560, Note_on_c, 0, 67, 100
4, 233596, Note_on_c, 0, 67, 0
4, 233600, Note_on_c, 0, 66, 100
4, 233636, Note_on_c, 0, 66, 0
4, 233640, Note_on_c, 0, 67, 100
4, 233676, Note_on_c, 0, 67, 0
4, 233680, Note_on_c, 0, 66, 100
4, 233716, Note_on_c, 0, 66, 0
4, 233720, Note_on_c, 0, 67, 100
4, 233756, Note_on_c, 0, 67, 0
4, 233760, Note_on_c, 0, 66, 100
4, 233996, Note_on_c, 0, 52, 0
4, 234000, Note_on_c, 0, 51, 100
4, 234236, Note_on_c, 0, 66, 0
4, 234240, Note_on_c, 0, 64, 100
4, 234476, Note_on_c, 0, 64, 0
4, 234476, Note_on_c, 0, 51, 0
4, 234476, Note_on_c, 0, 47, 0
4, 234480, Note_on_c, 0, 52, 100
4, 234480, Note_on_c, 0, 64, 100
4, 234960, Note_on_c, 0, 40, 100
4, 235196, Note_on_c, 0, 64, 0
4, 235200, Note_on_c, 0, 66, 100
4, 235256, Note_on_c, 0, 66, 0
4, 235260, Note_on_c, 0, 68, 100
4, 235316, Note_on_c, 0, 68, 0
4, 235320, Note_on_c, 0, 69, 100
4, 235436, Note_on_c, 0, 69, 0
4, 235436, Note_on_c, 0, 52, 0
4, 235440, Note_on_c, 0, 54, 100
4, 235440, Note_on_c, 0, 57, 100
4, 235440, Note_on_c, 0, 63, 100
4, 235796, Note_on_c, 0, 63, 0
4, 235800, Note_on_c, 0, 63, 100
4, 235916, Note_on_c, 0, 63, 0
4, 235916, Note_on_c, 0, 57, 0
4, 235916, Note_on_c, 0, 54, 0
4, 235920, Note_on_c, 0, 52, 100
4, 235920, Note_on_c, 0, 56, 100
4, 235920, Note_on_c, 0, 59, 100
4, 235920, Note_on_c, 0, 64, 100
4, 236876, Note_on_c, 0, 64, 0
4, 236876, Note_on_c, 0, 56, 0
4, 236876, Note_on_c, 0, 40, 0
4, 236876, Note_on_c, 0, 52, 0
4, 236876, Note_on_c, 0, 59, 0
4, 237120, Note_on_c, 0, 71, 100
4, 237356, Note_on_c, 0, 71, 0
4, 237360, Note_on_c, 0, 55, 100
4, 237360, Note_on_c, 0, 62, 100
4, 237360, Note_on_c, 0, 67, 100
4, 237360, Note_on_c, 0, 71, 100
4, 237840, Note_on_c, 0, 43, 100
4, 238076, Note_on_c, 0, 71, 0
4, 238076, Note_on_c, 0, 67, 0
4, 238076, Note_on_c, 0, 55, 0
4, 238076, Note_on_c, 0, 62, 0
4, 238080, Note_on_c, 0, 57, 100
4, 238080, Note_on_c, 0, 69, 100
4, 238316, Note_on_c, 0, 69, 0
4, 238316, Note_on_c, 0, 57, 0
4, 238316, Note_on_c, 0, 43, 0
4, 238320, Note_on_c, 0, 59, 100
4, 238320, Note_on_c, 0, 67, 100
4, 238556, Note_on_c, 0, 67, 0
4, 238556, Note_on_c, 0, 59, 0
4, 238560, Note_on_c, 0, 60, 100
4, 238560, Note_on_c, 0, 69, 100
4, 238796, Note_on_c, 0, 69, 0
4, 238796, Note_on_c, 0, 60, 0
4, 238800, Note_on_c, 0, 62, 100
4, 238800, Note_on_c, 0, 66, 100
4, 239280, Note_on_c, 0, 60, 100
4, 239516, Note_on_c, 0, 66, 0
4, 239520, Note_on_c, 0, 66, 100
4, 239756, Note_on_c, 0, 66, 0
4, 239756, Note_on_c, 0, 60, 0
4, 239756, Note_on_c, 0, 62, 0
4, 239760, Note_on_c, 0, 59, 100
4, 239760, Note_on_c, 0, 62, 100
4, 239760, Note_on_c, 0, 67, 100
4, 240236, Note_on_c, 0, 67, 0
4, 240236, Note_on_c, 0, 62, 0
4, 240236, Note_on_c, 0, 59, 0
4, 240240, Note_on_c, 0, 60, 100
4, 240240, Note_on_c, 0, 64, 100
4, 240716, Note_on_c, 0, 64, 0
4, 240716, Note_on_c, 0, 60, 0
4, 240720, Note_on_c, 0, 59, 100
4, 240720, Note_on_c, 0, 69, 100
4, 240956, Note_on_c, 0, 69, 0
4, 240960, Note_on_c, 0, 67, 100
4, 241196, Note_on_c, 0, 67, 0
4, 241196, Note_on_c, 0, 59, 0
4, 241200, Note_on_c, 0, 57, 100
4, 241200, Note_on_c, 0, 60, 100
4, 241200, Note_on_c, 0, 66, 100
4, 241436, Note_on_c, 0, 66, 0
4, 241440, Note_on_c, 0, 64, 100
4, 241676, Note_on_c, 0, 64, 0
4, 241676, Note_on_c, 0, 60, 0
4, 241676, Note_on_c, 0, 57, 0
4, 241680, Note_on_c, 0, 59, 100
4, 241680, Note_on_c, 0, 63, 100
4, 242156, Note_on_c, 0, 59, 0
4, 242160, Note_on_c, 0, 47, 100
4, 242396, Note_on_c, 0, 47, 0
4, 242400, Note_on_c, 0, 59, 100
4, 242636, Note_on_c, 0, 59, 0
4, 242640, Note_on_c, 0, 57, 100
4, 242880, Note_on_c, 0, 63, 100
4, 243116, Note_on_c, 0, 63, 0
4, 243116, Note_on_c, 0, 57, 0
4, 243116, Note_on_c, 0, 63, 0
4, 243120, Note_on_c, 0, 56, 100
4, 243120, Note_on_c, 0, 59, 100
4, 243120, Note_on_c, 0, 64, 100
4, 243596, Note_on_c, 0, 56, 0
4, 243600, Note_on_c, 0, 52, 100
4, 243836, Note_on_c, 0, 64, 0
4, 243840, Note_on_c, 0, 62, 100
4, 244076, Note_on_c, 0, 62, 0
4, 244076, Note_on_c, 0, 52, 0
4, 244076, Note_on_c, 0, 59, 0
4, 244080, Note_on_c, 0, 57, 100
4, 244080, Note_on_c, 0, 60, 100
4, 244316, Note_on_c, 0, 60, 0
4, 244320, Note_on_c, 0, 62, 100
4, 244556, Note_on_c, 0, 62, 0
4, 244560, Note_on_c, 0, 50, 100
4, 244560, Note_on_c, 0, 59, 100
4, 245036, Note_on_c, 0, 50, 0
4, 245036, Note_on_c, 0, 57, 0
4, 245040, Note_on_c, 0, 52, 100
4, 245040, Note_on_c, 0, 56, 100
4, 245276, Note_on_c, 0, 59, 0
4, 245280, Note_on_c, 0, 59, 100
4, 245516, Note_on_c, 0, 59, 0
4, 245516, Note_on_c, 0, 56, 0
4, 245516, Note_on_c, 0, 52, 0
4, 245520, Note_on_c, 0, 45, 100
4, 245520, Note_on_c, 0, 57, 100
4, 245520, Note_on_c, 0, 60, 100
4, 245996, Note_on_c, 0, 60, 0
4, 245996, Note_on_c, 0, 57, 0
4, 245996, Note_on_c, 0, 45, 0
4, 246000, Note_on_c, 0, 53, 100
4, 246000, Note_on_c, 0, 57, 100
4, 246476, Note_on_c, 0, 57, 0
4, 246476, Note_on_c, 0, 53, 0
4, 246480, Note_on_c, 0, 52, 100
4, 246480, Note_on_c, 0, 55, 100
4, 246480, Note_on_c, 0, 62, 100
4, 246716, Note_on_c, 0, 62, 0
4, 246720, Note_on_c, 0, 60, 100
4, 246956, Note_on_c, 0, 60, 0
4, 246956, Note_on_c, 0, 55, 0
4, 246956, Note_on_c, 0, 52, 0
4, 246960, Note_on_c, 0, 50, 100
4, 246960, Note_on_c, 0, 53, 100
4, 246960, Note_on_c, 0, 59, 100
4, 247196, Note_on_c, 0, 59, 0
4, 247200, Note_on_c, 0, 57, 100
4, 247436, Note_on_c, 0, 57, 0
4, 247436, Note_on_c, 0, 53, 0
4, 247436, Note_on_c, 0, 50, 0
4, 247440, Note_on_c, 0, 52, 100
4, 247440, Note_on_c, 0, 56, 100
4, 247916, Note_on_c, 0, 56, 0
4, 247916, Note_on_c, 0, 52, 0
4, 247920, Note_on_c, 0, 50, 100
4, 248160, Note_on_c, 0, 56, 100
4, 248396, Note_on_c, 0, 56, 0
4, 248396, Note_on_c, 0, 50, 0
4, 248400, Note_on_c, 0, 48, 100
4, 248400, Note_on_c, 0, 52, 100
4, 248400, Note_on_c, 0, 57, 100
4, 248876, Note_on_c, 0, 52, 0
4, 248876, Note_on_c, 0, 48, 0
4, 248880, Note_on_c, 0, 47, 100
4, 248880, Note_on_c, 0, 50, 100
4, 249116, Note_on_c, 0, 57, 0
4, 249120, Note_on_c, 0, 57, 100
4, 249356, Note_on_c, 0, 57, 0
4, 249356, Note_on_c, 0, 50, 0
4, 249356, Note_on_c, 0, 47, 0
4, 249360, Note_on_c, 0, 45, 100
4, 249360, Note_on_c, 0, 53, 100
4, 249360, Note_on_c, 0, 62, 100
4, 249836, Note_on_c, 0, 53, 0
4, 249836, Note_on_c, 0, 45, 0
4, 249840, Note_on_c, 0, 44, 100
4, 249840, Note_on_c, 0, 52, 100
4, 250076, Note_on_c, 0, 62, 0
4, 250080, Note_on_c, 0, 64, 100
4, 250316, Note_on_c, 0, 64, 0
4, 250316, Note_on_c, 0, 52, 0
4, 250316, Note_on_c, 0, 44, 0
4, 250320, Note_on_c, 0, 45, 100
4, 250320, Note_on_c, 0, 52, 100
4, 250320, Note_on_c, 0, 57, 100
4, 250320, Note_on_c, 0, 60, 100
4, 250556, Note_on_c, 0, 60, 0
4, 250556, Note_on_c, 0, 45, 0
4, 250556, Note_on_c, 0, 52, 0
4, 250560, Note_on_c, 0, 50, 100
4, 250560, Note_on_c, 0, 62, 100
4, 250796, Note_on_c, 0, 62, 0
4, 250796, Note_on_c, 0, 50, 0
4, 250800, Note_on_c, 0, 52, 100
4, 250800, Note_on_c, 0, 59, 100
4, 251276, Note_on_c, 0, 59, 0
4, 251276, Note_on_c, 0, 52, 0
4, 251276, Note_on_c, 0, 57, 0
4, 251280, Note_on_c, 0, 40, 100
4, 251280, Note_on_c, 0, 56, 100
4, 251520, Note_on_c, 0, 57, 100
4, 251756, Note_on_c, 0, 57, 0
4, 251756, Note_on_c, 0, 56, 0
4, 251756, Note_on_c, 0, 40, 0
4, 251760, Note_on_c, 0, 45, 100
4, 251760, Note_on_c, 0, 57, 100
4, 252240, Note_on_c, 0, 52, 100
4, 252476, Note_on_c, 0, 57, 0
4, 252480, Note_on_c, 0, 59, 100
4, 252716, Note_on_c, 0, 59, 0
4, 252716, Note_on_c, 0, 52, 0
4, 252716, Note_on_c, 0, 45, 0
4, 252720, Note_on_c, 0, 57, 100
4, 252720, Note_on_c, 0, 60, 100
4, 253196, Note_on_c, 0, 57, 0
4, 253200, Note_on_c, 0, 55, 100
4, 253436, Note_on_c, 0, 60, 0
4, 253440, Note_on_c, 0, 61, 100
4, 253676, Note_on_c, 0, 61, 0
4, 253676, Note_on_c, 0, 55, 0
4, 253680, Note_on_c, 0, 54, 100
4, 253680, Note_on_c, 0, 59, 100
4, 253680, Note_on_c, 0, 62, 100
4, 254156, Note_on_c, 0, 59, 0
4, 254156, Note_on_c, 0, 54, 0
4, 254160, Note_on_c, 0, 52, 100
4, 254160, Note_on_c, 0, 55, 100
4, 254396, Note_on_c, 0, 62, 0
4, 254400, Note_on_c, 0, 64, 100
4, 254636, Note_on_c, 0, 64, 0
4, 254636, Note_on_c, 0, 55, 0
4, 254636, Note_on_c, 0, 52, 0
4, 254640, Note_on_c, 0, 50, 100
4, 254640, Note_on_c, 0, 57, 100
4, 254640, Note_on_c, 0, 62, 100
4, 254640, Note_on_c, 0, 66, 100
4, 255116, Note_on_c, 0, 50, 0
4, 255120, Note_on_c, 0, 48, 100
4, 255356, Note_on_c, 0, 66, 0
4, 255360, Note_on_c, 0, 66, 100
4, 255596, Note_on_c, 0, 66, 0
4, 255596, Note_on_c, 0, 48, 0
4, 255596, Note_on_c, 0, 57, 0
4, 255600, Note_on_c, 0, 47, 100
4, 255600, Note_on_c, 0, 55, 100
4, 255600, Note_on_c, 0, 67, 100
4, 256076, Note_on_c, 0, 47, 0
4, 256076, Note_on_c, 0, 62, 0
4, 256080, Note_on_c, 0, 48, 100
4, 256080, Note_on_c, 0, 64, 100
4, 256316, Note_on_c, 0, 67, 0
4, 256320, Note_on_c, 0, 69, 100
4, 256556, Note_on_c, 0, 69, 0
4, 256556, Note_on_c, 0, 64, 0
4, 256556, Note_on_c, 0, 48, 0
4, 256556, Note_on_c, 0, 55, 0
4, 256560, Note_on_c, 0, 45, 100
4, 256560, Note_on_c, 0, 60, 100
4, 256560, Note_on_c, 0, 69, 100
4, 257036, Note_on_c, 0, 69, 0
4, 257036, Note_on_c, 0, 60, 0
4, 257036, Note_on_c, 0, 45, 0
4, 257040, Note_on_c, 0, 50, 100
4, 257040, Note_on_c, 0, 54, 100
4, 257040, Note_on_c, 0, 62, 100
4, 257280, Note_on_c, 0, 67, 100
4, 257396, Note_on_c, 0, 67, 0
4, 257400, Note_on_c, 0, 69, 100
4, 257516, Note_on_c, 0, 69, 0
4, 257516, Note_on_c, 0, 62, 0
4, 257516, Note_on_c, 0, 54, 0
4, 257516, Note_on_c, 0, 50, 0
4, 257520, Note_on_c, 0, 55, 100
4, 257520, Note_on_c, 0, 62, 100
4, 257520, Note_on_c, 0, 71, 100
4, 257756, Note_on_c, 0, 55, 0
4, 257760, Note_on_c, 0, 55, 100
4, 257996, Note_on_c, 0, 55, 0
4, 258000, Note_on_c, 0, 57, 100
4, 258236, Note_on_c, 0, 57, 0
4, 258236, Note_on_c, 0, 62, 0
4, 258240, Note_on_c, 0, 55, 100
4, 258240, Note_on_c, 0, 63, 100
4, 258476, Note_on_c, 0, 63, 0
4, 258476, Note_on_c, 0, 55, 0
4, 258476, Note_on_c, 0, 71, 0
4, 258480, Note_on_c, 0, 54, 100
4, 258480, Note_on_c, 0, 64, 100
4, 258716, Note_on_c, 0, 54, 0
4, 258720, Note_on_c, 0, 52, 100
4, 258836, Note_on_c, 0, 64, 0
4, 258840, Note_on_c, 0, 63, 100
4, 258896, Note_on_c, 0, 63, 0
4, 258900, Note_on_c, 0, 64, 100
4, 258956, Note_on_c, 0, 64, 0
4, 258956, Note_on_c, 0, 52, 0
4, 258960, Note_on_c, 0, 51, 100
4, 258960, Note_on_c, 0, 66, 100
4, 259440, Note_on_c, 0, 54, 100
4, 259916, Note_on_c, 0, 54, 0
4, 259920, Note_on_c, 0, 59, 100
4, 260160, Note_on_c, 0, 71, 100
4, 260396, Note_on_c, 0, 71, 0
4, 260396, Note_on_c, 0, 51, 0
4, 260396, Note_on_c, 0, 66, 0
4, 260396, Note_on_c, 0, 59, 0
4, 260400, Note_on_c, 0, 52, 100
4, 260400, Note_on_c, 0, 59, 100
4, 260400, Note_on_c, 0, 67, 100
4, 260516, Note_on_c, 0, 67, 0
4, 260520, Note_on_c, 0, 69, 100
4, 260636, Note_on_c, 0, 69, 0
4, 260640, Note_on_c, 0, 71, 100
4, 260876, Note_on_c, 0, 71, 0
4, 260876, Note_on_c, 0, 59, 0
4, 260876, Note_on_c, 0, 52, 0
4, 260880, Note_on_c, 0, 71, 100
4, 260996, Note_on_c, 0, 71, 0
4, 261000, Note_on_c, 0, 69, 100
4, 261116, Note_on_c, 0, 69, 0
4, 261120, Note_on_c, 0, 50, 100
4, 261120, Note_on_c, 0, 59, 100
4, 261120, Note_on_c, 0, 67, 100
4, 261356, Note_on_c, 0, 67, 0
4, 261356, Note_on_c, 0, 59, 0
4, 261356, Note_on_c, 0, 50, 0
4, 261360, Note_on_c, 0, 48, 100
4, 261360, Note_on_c, 0, 64, 100
4, 261360, Note_on_c, 0, 69, 100
4, 261476, Note_on_c, 0, 69, 0
4, 261480, Note_on_c, 0, 71, 100
4, 261596, Note_on_c, 0, 71, 0
4, 261596, Note_on_c, 0, 64, 0
4, 261596, Note_on_c, 0, 48, 0
4, 261600, Note_on_c, 0, 72, 100
4, 261836, Note_on_c, 0, 72, 0
4, 261840, Note_on_c, 0, 47, 100
4, 261840, Note_on_c, 0, 54, 100
4, 261840, Note_on_c, 0, 63, 100
4, 261956, Note_on_c, 0, 63, 0
4, 261960, Note_on_c, 0, 64, 100
4, 262076, Note_on_c, 0, 64, 0
4, 262080, Note_on_c, 0, 66, 100
4, 262316, Note_on_c, 0, 66, 0
4, 262316, Note_on_c, 0, 54, 0
4, 262316, Note_on_c, 0, 47, 0
4, 262320, Note_on_c, 0, 66, 100
4, 262436, Note_on_c, 0, 66, 0
4, 262440, Note_on_c, 0, 64, 100
4, 262556, Note_on_c, 0, 64, 0
4, 262560, Note_on_c, 0, 45, 100
4, 262560, Note_on_c, 0, 54, 100
4, 262560, Note_on_c, 0, 63, 100
4, 262796, Note_on_c, 0, 63, 0
4, 262796, Note_on_c, 0, 54, 0
4, 262796, Note_on_c, 0, 45, 0
4, 262800, Note_on_c, 0, 43, 100
4, 262800, Note_on_c, 0, 55, 100
4, 262800, Note_on_c, 0, 64, 100
4, 262916, Note_on_c, 0, 64, 0
4, 262920, Note_on_c, 0, 66, 100
4, 263036, Note_on_c, 0, 66, 0
4, 263040, Note_on_c, 0, 67, 100
4, 263276, Note_on_c, 0, 67, 0
4, 263276, Note_on_c, 0, 55, 0
4, 263276, Note_on_c, 0, 43, 0
4, 263280, Note_on_c, 0, 45, 100
4, 263280, Note_on_c, 0, 52, 100
4, 263280, Note_on_c, 0, 60, 100
4, 263756, Note_on_c, 0, 52, 0
4, 263760, Note_on_c, 0, 55, 100
4, 263996, Note_on_c, 0, 60, 0
4, 264000, Note_on_c, 0, 61, 100
4, 264236, Note_on_c, 0, 61, 0
4, 264236, Note_on_c, 0, 55, 0
4, 264236, Note_on_c, 0, 45, 0
4, 264240, Note_on_c, 0, 47, 100
4, 264240, Note_on_c, 0, 54, 100
4, 264240, Note_on_c, 0, 62, 100
4, 264716, Note_on_c, 0, 54, 0
4, 264720, Note_on_c, 0, 59, 100
4, 264956, Note_on_c, 0, 62, 0
4, 264960, Note_on_c, 0, 63, 100
4, 265196, Note_on_c, 0, 63, 0
4, 265196, Note_on_c, 0, 47, 0
4, 265200, Note_on_c, 0, 48, 100
4, 265200, Note_on_c, 0, 64, 100
4, 265676, Note_on_c, 0, 48, 0
4, 265676, Note_on_c, 0, 59, 0
4, 265680, Note_on_c, 0, 49, 100
4, 265680, Note_on_c, 0, 57, 100
4, 265916, Note_on_c, 0, 64, 0
4, 265920, Note_on_c, 0, 64, 100
4, 266156, Note_on_c, 0, 64, 0
4, 266156, Note_on_c, 0, 49, 0
4, 266160, Note_on_c, 0, 50, 100
4, 266160, Note_on_c, 0, 66, 100
4, 266636, Note_on_c, 0, 50, 0
4, 266636, Note_on_c, 0, 57, 0
4, 266640, Note_on_c, 0, 51, 100
4, 266640, Note_on_c, 0, 54, 100
4, 266876, Note_on_c, 0, 66, 0
4, 266880, Note_on_c, 0, 59, 100
4, 267116, Note_on_c, 0, 59, 0
4, 267116, Note_on_c, 0, 54, 0
4, 267116, Note_on_c, 0, 51, 0
4, 267120, Note_on_c, 0, 52, 100
4, 267120, Note_on_c, 0, 67, 100
4, 267356, Note_on_c, 0, 67, 0
4, 267420, Note_on_c, 0, 69, 100
4, 267476, Note_on_c, 0, 69, 0
4, 267480, Note_on_c, 0, 67, 100
4, 267536, Note_on_c, 0, 67, 0
4, 267540, Note_on_c, 0, 66, 100
4, 267596, Note_on_c, 0, 66, 0
4, 267600, Note_on_c, 0, 45, 100
4, 267600, Note_on_c, 0, 64, 100
4, 267716, Note_on_c, 0, 64, 0
4, 267720, Note_on_c, 0, 63, 100
4, 267836, Note_on_c, 0, 63, 0
4, 267840, Note_on_c, 0, 64, 100
4, 267956, Note_on_c, 0, 64, 0
4, 267960, Note_on_c, 0, 66, 100
4, 268076, Note_on_c, 0, 66, 0
4, 268076, Note_on_c, 0, 45, 0
4, 268080, Note_on_c, 0, 47, 100
4, 268080, Note_on_c, 0, 66, 100
4, 268116, Note_on_c, 0, 66, 0
4, 268120, Note_on_c, 0, 67, 100
4, 268156, Note_on_c, 0, 67, 0
4, 268160, Note_on_c, 0, 66, 100
4, 268196, Note_on_c, 0, 66, 0
4, 268200, Note_on_c, 0, 67, 100
4, 268236, Note_on_c, 0, 67, 0
4, 268240, Note_on_c, 0, 66, 100
4, 268276, Note_on_c, 0, 66, 0
4, 268280, Note_on_c, 0, 67, 100
4, 268316, Note_on_c, 0, 67, 0
4, 268320, Note_on_c, 0, 66, 100
4, 268556, Note_on_c, 0, 52, 0
4, 268560, Note_on_c, 0, 51, 100
4, 268796, Note_on_c, 0, 66, 0
4, 268800, Note_on_c, 0, 64, 100
4, 269036, Note_on_c, 0, 64, 0
4, 269036, Note_on_c, 0, 51, 0
4, 269036, Note_on_c, 0, 47, 0
4, 269040, Note_on_c, 0, 52, 100
4, 269040, Note_on_c, 0, 64, 100
4, 269520, Note_on_c, 0, 40, 100
4, 269756, Note_on_c, 0, 64, 0
4, 269760, Note_on_c, 0, 66, 100
4, 269816, Note_on_c, 0, 66, 0
4, 269820, Note_on_c, 0, 68, 100
4, 269876, Note_on_c, 0, 68, 0
4, 269880, Note_on_c, 0, 69, 100
4, 269996, Note_on_c, 0, 69, 0
4, 269996, Note_on_c, 0, 52, 0
4, 270000, Note_on_c, 0, 54, 100
4, 270000, Note_on_c, 0, 57, 100
4, 270000, Note_on_c, 0, 63, 100
4, 270356, Note_on_c, 0, 63, 0
4, 270360, Note_on_c, 0, 63, 100
4, 270476, Note_on_c, 0, 63, 0
4, 270476, Note_on_c, 0, 57, 0
4, 270476, Note_on_c, 0, 54, 0
4, 270480, Note_on_c, 0, 52, 100
4, 270480, Note_on_c, 0, 56, 100
4, 270480, Note_on_c, 0, 59, 100
4, 270480, Note_on_c, 0, 64, 100
4, 271436, Note_on_c, 0, 64, 0
4, 271436, Note_on_c, 0, 56, 0
4, 271436, Note_on_c, 0, 40, 0
4, 271436, Note_on_c, 0, 52, 0
4, 271436, Note_on_c, 0, 59, 0
4, 271436, End_track
5, 0, Start_track
5, 0, MIDI_port, 0
5, 0, Title_t, "Sarabande"
5, 0, Program_c, 0, 24
5, 0, Control_c, 0, 7, 100
5, 0, Control_c, 0, 10, 64
5, 271920, Note_on_c, 0, 40, 100
5, 271920, Note_on_c, 0, 52, 100
5, 271920, Note_on_c, 0, 55, 100
5, 271920, Note_on_c, 0, 59, 100
5, 272876, Note_on_c, 0, 55, 0
5, 273120, Note_on_c, 0, 60, 100
5, 273356, Note_on_c, 0, 60, 0
5, 273356, Note_on_c, 0, 59, 0
5, 273360, Note_on_c, 0, 59, 100
5, 273596, Note_on_c, 0, 59, 0
5, 273600, Note_on_c, 0, 57, 100
5, 273836, Note_on_c, 0, 57, 0
5, 273840, Note_on_c, 0, 55, 100
5, 273876, Note_on_c, 0, 55, 0
5, 273880, Note_on_c, 0, 57, 100
5, 273916, Note_on_c, 0, 57, 0
5, 273920, Note_on_c, 0, 55, 100
5, 273956, Note_on_c, 0, 55, 0
5, 273960, Note_on_c, 0, 57, 100
5, 273996, Note_on_c, 0, 57, 0
5, 274000, Note_on_c, 0, 55, 100
5, 274036, Note_on_c, 0, 55, 0
5, 274040, Note_on_c, 0, 57, 100
5, 274076, Note_on_c, 0, 57, 0
5, 274080, Note_on_c, 0, 55, 100
5, 274316, Note_on_c, 0, 55, 0
5, 274320, Note_on_c, 0, 54, 100
5, 274556, Note_on_c, 0, 54, 0
5, 274560, Note_on_c, 0, 52, 100
5, 274796, Note_on_c, 0, 52, 0
5, 274796, Note_on_c, 0, 52, 0
5, 274796, Note_on_c, 0, 40, 0
5, 274800, Note_on_c, 0, 52, 100
5, 274800, Note_on_c, 0, 55, 100
5, 274800, Note_on_c, 0, 60, 100
5, 275516, Note_on_c, 0, 60, 0
5, 275520, Note_on_c, 0, 59, 100
5, 275756, Note_on_c, 0, 59, 0
5, 275756, Note_on_c, 0, 55, 0
5, 275756, Note_on_c, 0, 52, 0
5, 275760, Note_on_c, 0, 54, 100
5, 275760, Note_on_c, 0, 57, 100
5, 277196, Note_on_c, 0, 54, 0
5, 277200, Note_on_c, 0, 52, 100
5, 277676, Note_on_c, 0, 52, 0
5, 277680, Note_on_c, 0, 51, 100
5, 278160, Note_on_c, 0, 57, 100
5, 278636, Note_on_c, 0, 57, 0
5, 278636, Note_on_c, 0, 57, 0
5, 278640, Note_on_c, 0, 59, 100
5, 279116, Note_on_c, 0, 59, 0
5, 279120, Note_on_c, 0, 60, 100
5, 279596, Note_on_c, 0, 60, 0
5, 279600, Note_on_c, 0, 59, 100
5, 280076, Note_on_c, 0, 59, 0
5, 280080, Note_on_c, 0, 57, 100
5, 280556, Note_on_c, 0, 57, 0
5, 280556, Note_on_c, 0, 51, 0
5, 280560, Note_on_c, 0, 52, 100
5, 280560, Note_on_c, 0, 55, 100
5, 280596, Note_on_c, 0, 55, 0
5, 280600, Note_on_c, 0, 57, 100
5, 280636, Note_on_c, 0, 57, 0
5, 280640, Note_on_c, 0, 55, 100
5, 280676, Note_on_c, 0, 55, 0
5, 280680, Note_on_c, 0, 57, 100
5, 280716, Note_on_c, 0, 57, 0
5, 280720, Note_on_c, 0, 55, 100
5, 280756, Note_on_c, 0, 55, 0
5, 280760, Note_on_c, 0, 57, 100
5, 280796, Note_on_c, 0, 57, 0
5, 280800, Note_on_c, 0, 55, 100
5, 281520, Note_on_c, 0, 47, 100
5, 282000, Note_on_c, 0, 54, 100
5, 282236, Note_on_c, 0, 55, 0
5, 282476, Note_on_c, 0, 52, 0
5, 282476, Note_on_c, 0, 47, 0
5, 282476, Note_on_c, 0, 54, 0
5, 282480, Note_on_c, 0, 43, 100
5, 282480, Note_on_c, 0, 47, 100
5, 282480, Note_on_c, 0, 52, 100
5, 283436, Note_on_c, 0, 52, 0
5, 283436, Note_on_c, 0, 47, 0
5, 283436, Note_on_c, 0, 43, 0
5, 283440, Note_on_c, 0, 52, 100
5, 283440, Note_on_c, 0, 59, 100
5, 283440, Note_on_c, 0, 67, 100
5, 283496, Note_on_c, 0, 67, 0
5, 283500, Note_on_c, 0, 66, 100
5, 283556, Note_on_c, 0, 66, 0
5, 283560, Note_on_c, 0, 67, 100
5, 283916, Note_on_c, 0, 67, 0
5, 283920, Note_on_c, 0, 69, 100
5, 284036, Note_on_c, 0, 69, 0
5, 284040, Note_on_c, 0, 67, 100
5, 284156, Note_on_c, 0, 67, 0
5, 284160, Note_on_c, 0, 66, 100
5, 284276, Note_on_c, 0, 66, 0
5, 284280, Note_on_c, 0, 64, 100
5, 284396, Note_on_c, 0, 64, 0
5, 284396, Note_on_c, 0, 59, 0
5, 284396, Note_on_c, 0, 52, 0
5, 284400, Note_on_c, 0, 54, 100
5, 284400, Note_on_c, 0, 57, 100
5, 284400, Note_on_c, 0, 62, 100
5, 285836, Note_on_c, 0, 62, 0
5, 285840, Note_on_c, 0, 60, 100
5, 286316, Note_on_c, 0, 60, 0
5, 286316, Note_on_c, 0, 57, 0
5, 286316, Note_on_c, 0, 54, 0
5, 286320, Note_on_c, 0, 55, 100
5, 286320, Note_on_c, 0, 59, 100
5, 287280, Note_on_c, 0, 43, 100
5, 287756, Note_on_c, 0, 59, 0
5, 287760, Note_on_c, 0, 59, 100
5, 288236, Note_on_c, 0, 59, 0
5, 288236, Note_on_c, 0, 43, 0
5, 288236, Note_on_c, 0, 55, 0
5, 288240, Note_on_c, 0, 54, 100
5, 288240, Note_on_c, 0, 57, 100
5, 288240, Note_on_c, 0, 61, 100
5, 288956, Note_on_c, 0, 61, 0
5, 288960, Note_on_c, 0, 63, 100
5, 289196, Note_on_c, 0, 63, 0
5, 289196, Note_on_c, 0, 57, 0
5, 289196, Note_on_c, 0, 54, 0
5, 289200, Note_on_c, 0, 52, 100
5, 289200, Note_on_c, 0, 55, 100
5, 289200, Note_on_c, 0, 64, 100
5, 289676, Note_on_c, 0, 55, 0
5, 289676, Note_on_c, 0, 52, 0
5, 289680, Note_on_c, 0, 50, 100
5, 289680, Note_on_c, 0, 54, 100
5, 289916, Note_on_c, 0, 64, 0
5, 289920, Note_on_c, 0, 55, 100
5, 290156, Note_on_c, 0, 55, 0
5, 290156, Note_on_c, 0, 54, 0
5, 290156, Note_on_c, 0, 50, 0
5, 290160, Note_on_c, 0, 48, 100
5, 290160, Note_on_c, 0, 52, 100
5, 290160, Note_on_c, 0, 57, 100
5, 290636, Note_on_c, 0, 52, 0
5, 290640, Note_on_c, 0, 54, 100
5, 290876, Note_on_c, 0, 54, 0
5, 290880, Note_on_c, 0, 55, 100
5, 291116, Note_on_c, 0, 55, 0
5, 291120, Note_on_c, 0, 54, 100
5, 291596, Note_on_c, 0, 54, 0
5, 291596, Note_on_c, 0, 57, 0
5, 291596, Note_on_c, 0, 48, 0
5, 291600, Note_on_c, 0, 48, 100
5, 291600, Note_on_c, 0, 52, 100
5, 291600, Note_on_c, 0, 59, 100
5, 291716, Note_on_c, 0, 59, 0
5, 291720, Note_on_c, 0, 57, 100
5, 291836, Note_on_c, 0, 57, 0
5, 291840, Note_on_c, 0, 55, 100
5, 291956, Note_on_c, 0, 55, 0
5, 291960, Note_on_c, 0, 57, 100
5, 292076, Note_on_c, 0, 57, 0
5, 292076, Note_on_c, 0, 52, 0
5, 292076, Note_on_c, 0, 48, 0
5, 292080, Note_on_c, 0, 51, 100
5, 292080, Note_on_c, 0, 59, 100
5, 293036, Note_on_c, 0, 51, 0
5, 293040, Note_on_c, 0, 47, 100
5, 293516, Note_on_c, 0, 59, 0
5, 293520, Note_on_c, 0, 52, 100
5, 293520, Note_on_c, 0, 60, 100
5, 293996, Note_on_c, 0, 60, 0
5, 293996, Note_on_c, 0, 52, 0
5, 294000, Note_on_c, 0, 51, 100
5, 294000, Note_on_c, 0, 59, 100
5, 294956, Note_on_c, 0, 59, 0
5, 294956, Note_on_c, 0, 51, 0
5, 294956, Note_on_c, 0, 47, 0
5, 294960, Note_on_c, 0, 40, 100
5, 294960, Note_on_c, 0, 52, 100
5, 294960, Note_on_c, 0, 55, 100
5, 294960, Note_on_c, 0, 59, 100
5, 295916, Note_on_c, 0, 55, 0
5, 296160, Note_on_c, 0, 60, 100
5, 296396, Note_on_c, 0, 60, 0
5, 296396, Note_on_c, 0, 59, 0
5, 296400, Note_on_c, 0, 59, 100
5, 296636, Note_on_c, 0, 59, 0
5, 296640, Note_on_c, 0, 57, 100
5, 296876, Note_on_c, 0, 57, 0
5, 296880, Note_on_c, 0, 55, 100
5, 296916, Note_on_c, 0, 55, 0
5, 296920, Note_on_c, 0, 57, 100
5, 296956, Note_on_c, 0, 57, 0
5, 296960, Note_on_c, 0, 55, 100
5, 296996, Note_on_c, 0, 55, 0
5, 297000, Note_on_c, 0, 57, 100
5, 297036, Note_on_c, 0, 57, 0
5, 297040, Note_on_c, 0, 55, 100
5, 297076, Note_on_c, 0, 55, 0
5, 297080, Note_on_c, 0, 57, 100
5, 297116, Note_on_c, 0, 57, 0
5, 297120, Note_on_c, 0, 55, 100
5, 297356, Note_on_c, 0, 55, 0
5, 297360, Note_on_c, 0, 54, 100
5, 297596, Note_on_c, 0, 54, 0
5, 297600, Note_on_c, 0, 52, 100
5, 297836, Note_on_c, 0, 52, 0
5, 297836, Note_on_c, 0, 52, 0
5, 297836, Note_on_c, 0, 40, 0
5, 297840, Note_on_c, 0, 52, 100
5, 297840, Note_on_c, 0, 55, 100
5, 297840, Note_on_c, 0, 60, 100
5, 298556, Note_on_c, 0, 60, 0
5, 298560, Note_on_c, 0, 59, 100
5, 298796, Note_on_c, 0, 59, 0
5, 298796, Note_on_c, 0, 55, 0
5, 298796, Note_on_c, 0, 52, 0
5, 298800, Note_on_c, 0, 54, 100
5, 298800, Note_on_c, 0, 57, 100
5, 300236, Note_on_c, 0, 54, 0
5, 300240, Note_on_c, 0, 52, 100
5, 300716, Note_on_c, 0, 52, 0
5, 300720, Note_on_c, 0, 51, 100
5, 301200, Note_on_c, 0, 57, 100
5, 301676, Note_on_c, 0, 57, 0
5, 301676, Note_on_c, 0, 57, 0
5, 301680, Note_on_c, 0, 59, 100
5, 302156, Note_on_c, 0, 59, 0
5, 302160, Note_on_c, 0, 60, 100
5, 302636, Note_on_c, 0, 60, 0
5, 302640, Note_on_c, 0, 59, 100
5, 303116, Note_on_c, 0, 59, 0
5, 303120, Note_on_c, 0, 57, 100
5, 303596, Note_on_c, 0, 57, 0
5, 303596, Note_on_c, 0, 51, 0
5, 303600, Note_on_c, 0, 52, 100
5, 303600, Note_on_c, 0, 55, 100
5, 303636, Note_on_c, 0, 55, 0
5, 303640, Note_on_c, 0, 57, 100
5, 303676, Note_on_c, 0, 57, 0
5, 303680, Note_on_c, 0, 55, 100
5, 303716, Note_on_c, 0, 55, 0
5, 303720, Note_on_c, 0, 57, 100
5, 303756, Note_on_c, 0, 57, 0
5, 303760, Note_on_c, 0, 55, 100
5, 303796, Note_on_c, 0, 55, 0
5, 303800, Note_on_c, 0, 57, 100
5, 303836, Note_on_c, 0, 57, 0
5, 303840, Note_on_c, 0, 55, 100
5, 304560, Note_on_c, 0, 47, 100
5, 305040, Note_on_c, 0, 54, 100
5, 305276, Note_on_c, 0, 55, 0
5, 305516, Note_on_c, 0, 52, 0
5, 305516, Note_on_c, 0, 47, 0
5, 305516, Note_on_c, 0, 54, 0
5, 305520, Note_on_c, 0, 43, 100
5, 305520, Note_on_c, 0, 47, 100
5, 305520, Note_on_c, 0, 52, 100
5, 306476, Note_on_c, 0, 52, 0
5, 306476, Note_on_c, 0, 47, 0
5, 306476, Note_on_c, 0, 43, 0
5, 306480, Note_on_c, 0, 52, 100
5, 306480, Note_on_c, 0, 59, 100
5, 306480, Note_on_c, 0, 67, 100
5, 306536, Note_on_c, 0, 67, 0
5, 306540, Note_on_c, 0, 66, 100
5, 306596, Note_on_c, 0, 66, 0
5, 306600, Note_on_c, 0, 67, 100
5, 306956, Note_on_c, 0, 67, 0
5, 306960, Note_on_c, 0, 69, 100
5, 307076, Note_on_c, 0, 69, 0
5, 307080, Note_on_c, 0, 67, 100
5, 307196, Note_on_c, 0, 67, 0
5, 307200, Note_on_c, 0, 66, 100
5, 307316, Note_on_c, 0, 66, 0
5, 307320, Note_on_c, 0, 64, 100
5, 307436, Note_on_c, 0, 64, 0
5, 307436, Note_on_c, 0, 59, 0
5, 307436, Note_on_c, 0, 52, 0
5, 307440, Note_on_c, 0, 54, 100
5, 307440, Note_on_c, 0, 57, 100
5, 307440, Note_on_c, 0, 62, 100
5, 308876, Note_on_c, 0, 62, 0
5, 308880, Note_on_c, 0, 60, 100
5, 309356, Note_on_c, 0, 60, 0
5, 309356, Note_on_c, 0, 57, 0
5, 309356, Note_on_c, 0, 54, 0
5, 309360, Note_on_c, 0, 55, 100
5, 309360, Note_on_c, 0, 59, 100
5, 310320, Note_on_c, 0, 43, 100
5, 310796, Note_on_c, 0, 59, 0
5, 310800, Note_on_c, 0, 59, 100
5, 311276, Note_on_c, 0, 59, 0
5, 311276, Note_on_c, 0, 43, 0
5, 311276, Note_on_c, 0, 55, 0
5, 311280, Note_on_c, 0, 54, 100
5, 311280, Note_on_c, 0, 57, 100
5, 311280, Note_on_c, 0, 61, 100
5, 311996, Note_on_c, 0, 61, 0
5, 312000, Note_on_c, 0, 63, 100
5, 312236, Note_on_c, 0, 63, 0
5, 312236, Note_on_c, 0, 57, 0
5, 312236, Note_on_c, 0, 54, 0
5, 312240, Note_on_c, 0, 52, 100
5, 312240, Note_on_c, 0, 55, 100
5, 312240, Note_on_c, 0, 64, 100
5, 312716, Note_on_c, 0, 55, 0
5, 312716, Note_on_c, 0, 52, 0
5, 312720, Note_on_c, 0, 50, 100
5, 312720, Note_on_c, 0, 54, 100
5, 312956, Note_on_c, 0, 64, 0
5, 312960, Note_on_c, 0, 55, 100
5, 313196, Note_on_c, 0, 55, 0
5, 313196, Note_on_c, 0, 54, 0
5, 313196, Note_on_c, 0, 50, 0
5, 313200, Note_on_c, 0, 48, 100
5, 313200, Note_on_c, 0, 52, 100
5, 313200, Note_on_c, 0, 57, 100
5, 313676, Note_on_c, 0, 52, 0
5, 313680, Note_on_c, 0, 54, 100
5, 313916, Note_on_c, 0, 54, 0
5, 313920, Note_on_c, 0, 55, 100
5, 314156, Note_on_c, 0, 55, 0
5, 314160, Note_on_c, 0, 54, 100
5, 314636, Note_on_c, 0, 54, 0
5, 314636, Note_on_c, 0, 57, 0
5, 314636, Note_on_c, 0, 48, 0
5, 314640, Note_on_c, 0, 48, 100
5, 314640, Note_on_c, 0, 52, 100
5, 314640, Note_on_c, 0, 59, 100
5, 314756, Note_on_c, 0, 59, 0
5, 314760, Note_on_c, 0, 57, 100
5, 314876, Note_on_c, 0, 57, 0
5, 314880, Note_on_c, 0, 55, 100
5, 314996, Note_on_c, 0, 55, 0
5, 315000, Note_on_c, 0, 57, 100
5, 315116, Note_on_c, 0, 57, 0
5, 315116, Note_on_c, 0, 52, 0
5, 315116, Note_on_c, 0, 48, 0
5, 315120, Note_on_c, 0, 51, 100
5, 315120, Note_on_c, 0, 59, 100
5, 316076, Note_on_c, 0, 51, 0
5, 316080, Note_on_c, 0, 47, 100
5, 316556, Note_on_c, 0, 59, 0
5, 316560, Note_on_c, 0, 52, 100
5, 316560, Note_on_c, 0, 60, 100
5, 317036, Note_on_c, 0, 60, 0
5, 317036, Note_on_c, 0, 52, 0
5, 317040, Note_on_c, 0, 51, 100
5, 317040, Note_on_c, 0, 59, 100
5, 317996, Note_on_c, 0, 59, 0
5, 317996, Note_on_c, 0, 51, 0
5, 317996, Note_on_c, 0, 47, 0
5, 318000, Note_on_c, 0, 47, 100
5, 318000, Note_on_c, 0, 62, 100
5, 318000, Note_on_c, 0, 66, 100
5, 318956, Note_on_c, 0, 62, 0
5, 318956, Note_on_c, 0, 47, 0
5, 318960, Note_on_c, 0, 46, 100
5, 318960, Note_on_c, 0, 61, 100
5, 319200, Note_on_c, 0, 67, 100
5, 319436, Note_on_c, 0, 67, 0
5, 319436, Note_on_c, 0, 66, 0
5, 319440, Note_on_c, 0, 66, 100
5, 319676, Note_on_c, 0, 66, 0
5, 319680, Note_on_c, 0, 64, 100
5, 319916, Note_on_c, 0, 64, 0
5, 319916, Note_on_c, 0, 61, 0
5, 319916, Note_on_c, 0, 46, 0
5, 319920, Note_on_c, 0, 47, 100
5, 319920, Note_on_c, 0, 54, 100
5, 319920, Note_on_c, 0, 59, 100
5, 319920, Note_on_c, 0, 62, 100
5, 320396, Note_on_c, 0, 62, 0
5, 320400, Note_on_c, 0, 61, 100
5, 320636, Note_on_c, 0, 61, 0
5, 320640, Note_on_c, 0, 59, 100
5, 320876, Note_on_c, 0, 59, 0
5, 320876, Note_on_c, 0, 47, 0
5, 320876, Note_on_c, 0, 54, 0
5, 320876, Note_on_c, 0, 59, 0
5, 320880, Note_on_c, 0, 47, 100
5, 320880, Note_on_c, 0, 55, 100
5, 320880, Note_on_c, 0, 62, 100
5, 320880, Note_on_c, 0, 67, 100
5, 321356, Note_on_c, 0, 67, 0
5, 321360, Note_on_c, 0, 66, 100
5, 321596, Note_on_c, 0, 66, 0
5, 321600, Note_on_c, 0, 64, 100
5, 321836, Note_on_c, 0, 64, 0
5, 321836, Note_on_c, 0, 47, 0
5, 321836, Note_on_c, 0, 55, 0
5, 321836, Note_on_c, 0, 62, 0
5, 321840, Note_on_c, 0, 48, 100
5, 321840, Note_on_c, 0, 55, 100
5, 321840, Note_on_c, 0, 60, 100
5, 321840, Note_on_c, 0, 64, 100
5, 323276, Note_on_c, 0, 64, 0
5, 323276, Note_on_c, 0, 48, 0
5, 323276, Note_on_c, 0, 55, 0
5, 323276, Note_on_c, 0, 60, 0
5, 323280, Note_on_c, 0, 64, 100
5, 323396, Note_on_c, 0, 64, 0
5, 323400, Note_on_c, 0, 66, 100
5, 323516, Note_on_c, 0, 66, 0
5, 323520, Note_on_c, 0, 67, 100
5, 323636, Note_on_c, 0, 67, 0
5, 323640, Note_on_c, 0, 69, 100
5, 323696, Note_on_c, 0, 69, 0
5, 323700, Note_on_c, 0, 71, 100
5, 323756, Note_on_c, 0, 71, 0
5, 323760, Note_on_c, 0, 45, 100
5, 323760, Note_on_c, 0, 57, 100
5, 323760, Note_on_c, 0, 60, 100
5, 323760, Note_on_c, 0, 66, 100
5, 323760, Note_on_c, 0, 72, 100
5, 324716, Note_on_c, 0, 72, 0
5, 324716, Note_on_c, 0, 60, 0
5, 324716, Note_on_c, 0, 45, 0
5, 324716, Note_on_c, 0, 57, 0
5, 324716, Note_on_c, 0, 66, 0
5, 324720, Note_on_c, 0, 47, 100
5, 324720, Note_on_c, 0, 50, 100
5, 324720, Note_on_c, 0, 55, 100
5, 324720, Note_on_c, 0, 67, 100
5, 324720, Note_on_c, 0, 71, 100
5, 325676, Note_on_c, 0, 50, 0
5, 325676, Note_on_c, 0, 47, 0
5, 325680, Note_on_c, 0, 48, 100
5, 325680, Note_on_c, 0, 52, 100
5, 326156, Note_on_c, 0, 67, 0
5, 326156, Note_on_c, 0, 71, 0
5, 326160, Note_on_c, 0, 69, 100
5, 326636, Note_on_c, 0, 69, 0
5, 326636, Note_on_c, 0, 52, 0
5, 326636, Note_on_c, 0, 48, 0
5, 326640, Note_on_c, 0, 50, 100
5, 326640, Note_on_c, 0, 62, 100
5, 326640, Note_on_c, 0, 69, 100
5, 327596, Note_on_c, 0, 55, 0
5, 327600, Note_on_c, 0, 54, 100
5, 328076, Note_on_c, 0, 69, 0
5, 328076, Note_on_c, 0, 62, 0
5, 328080, Note_on_c, 0, 71, 100
5, 328556, Note_on_c, 0, 71, 0
5, 328556, Note_on_c, 0, 50, 0
5, 328560, Note_on_c, 0, 69, 100
5, 329516, Note_on_c, 0, 69, 0
5, 329516, Note_on_c, 0, 54, 0
5, 329520, Note_on_c, 0, 52, 100
5, 329520, Note_on_c, 0, 61, 100
5, 329520, Note_on_c, 0, 66, 100
5, 329520, Note_on_c, 0, 70, 100
5, 330236, Note_on_c, 0, 70, 0
5, 330236, Note_on_c, 0, 66, 0
5, 330236, Note_on_c, 0, 61, 0
5, 330240, Note_on_c, 0, 68, 100
5, 330356, Note_on_c, 0, 68, 0
5, 330360, Note_on_c, 0, 70, 100
5, 330476, Note_on_c, 0, 70, 0
5, 330476, Note_on_c, 0, 52, 0
5, 330480, Note_on_c, 0, 50, 100
5, 330480, Note_on_c, 0, 59, 100
5, 330480, Note_on_c, 0, 66, 100
5, 330480, Note_on_c, 0, 71, 100
5, 331916, Note_on_c, 0, 71, 0
5, 331916, Note_on_c, 0, 66, 0
5, 331916, Note_on_c, 0, 59, 0
5, 331920, Note_on_c, 0, 69, 100
5, 331976, Note_on_c, 0, 69, 0
5, 331980, Note_on_c, 0, 67, 100
5, 332036, Note_on_c, 0, 67, 0
5, 332040, Note_on_c, 0, 66, 100
5, 332096, Note_on_c, 0, 66, 0
5, 332100, Note_on_c, 0, 64, 100
5, 332156, Note_on_c, 0, 64, 0
5, 332160, Note_on_c, 0, 62, 100
5, 332276, Note_on_c, 0, 62, 0
5, 332280, Note_on_c, 0, 61, 100
5, 332336, Note_on_c, 0, 61, 0
5, 332340, Note_on_c, 0, 59, 100
5, 332396, Note_on_c, 0, 59, 0
5, 332396, Note_on_c, 0, 50, 0
5, 332400, Note_on_c, 0, 49, 100
5, 332400, Note_on_c, 0, 52, 100
5, 332400, Note_on_c, 0, 59, 100
5, 332400, Note_on_c, 0, 64, 100
5, 333356, Note_on_c, 0, 59, 0
5, 333356, Note_on_c, 0, 49, 0
5, 333356, Note_on_c, 0, 52, 0
5, 333720, Note_on_c, 0, 66, 100
5, 333836, Note_on_c, 0, 66, 0
5, 333836, Note_on_c, 0, 64, 0
5, 333840, Note_on_c, 0, 64, 100
5, 333956, Note_on_c, 0, 64, 0
5, 333960, Note_on_c, 0, 63, 100
5, 334076, Note_on_c, 0, 63, 0
5, 334080, Note_on_c, 0, 64, 100
5, 334196, Note_on_c, 0, 64, 0
5, 334200, Note_on_c, 0, 66, 100
5, 334256, Note_on_c, 0, 66, 0
5, 334260, Note_on_c, 0, 67, 100
5, 334316, Note_on_c, 0, 67, 0
5, 334320, Note_on_c, 0, 49, 100
5, 334320, Note_on_c, 0, 52, 100
5, 334320, Note_on_c, 0, 58, 100
5, 335276, Note_on_c, 0, 58, 0
5, 335276, Note_on_c, 0, 52, 0
5, 335276, Note_on_c, 0, 49, 0
5, 335280, Note_on_c, 0, 50, 100
5, 335280, Note_on_c, 0, 54, 100
5, 335280, Note_on_c, 0, 59, 100
5, 335756, Note_on_c, 0, 54, 0
5, 335756, Note_on_c, 0, 50, 0
5, 335760, Note_on_c, 0, 52, 100
5, 335760, Note_on_c, 0, 55, 100
5, 335996, Note_on_c, 0, 59, 0
5, 336000, Note_on_c, 0, 61, 100
5, 336236, Note_on_c, 0, 61, 0
5, 336236, Note_on_c, 0, 55, 0
5, 336236, Note_on_c, 0, 52, 0
5, 336240, Note_on_c, 0, 54, 100
5, 336240, Note_on_c, 0, 59, 100
5, 336240, Note_on_c, 0, 61, 100
5, 337196, Note_on_c, 0, 59, 0
5, 337200, Note_on_c, 0, 42, 100
5, 337200, Note_on_c, 0, 58, 100
5, 337676, Note_on_c, 0, 61, 0
5, 337680, Note_on_c, 0, 59, 100
5, 338156, Note_on_c, 0, 59, 0
5, 338156, Note_on_c, 0, 58, 0
5, 338156, Note_on_c, 0, 42, 0
5, 338156, Note_on_c, 0, 54, 0
5, 338160, Note_on_c, 0, 59, 100
5, 338640, Note_on_c, 0, 47, 100
5, 339116, Note_on_c, 0, 47, 0
5, 339120, Note_on_c, 0, 51, 100
5, 339596, Note_on_c, 0, 51, 0
5, 339600, Note_on_c, 0, 54, 100
5, 340076, Note_on_c, 0, 54, 0
5, 340076, Note_on_c, 0, 59, 0
5, 340080, Note_on_c, 0, 59, 100
5, 341036, Note_on_c, 0, 59, 0
5, 341040, Note_on_c, 0, 47, 100
5, 341040, Note_on_c, 0, 54, 100
5, 341040, Note_on_c, 0, 59, 100
5, 341040, Note_on_c, 0, 62, 100
5, 341996, Note_on_c, 0, 62, 0
5, 341996, Note_on_c, 0, 47, 0
5, 341996, Note_on_c, 0, 54, 0
5, 341996, Note_on_c, 0, 59, 0
5, 342000, Note_on_c, 0, 47, 100
5, 342000, Note_on_c, 0, 50, 100
5, 342000, Note_on_c, 0, 56, 100
5, 342036, Note_on_c, 0, 56, 0
5, 342040, Note_on_c, 0, 57, 100
5, 342076, Note_on_c, 0, 57, 0
5, 342080, Note_on_c, 0, 56, 100
5, 342116, Note_on_c, 0, 56, 0
5, 342120, Note_on_c, 0, 57, 100
5, 342156, Note_on_c, 0, 57, 0
5, 342160, Note_on_c, 0, 56, 100
5, 342196, Note_on_c, 0, 56, 0
5, 342200, Note_on_c, 0, 57, 100
5, 342236, Note_on_c, 0, 57, 0
5, 342240, Note_on_c, 0, 56, 100
5, 343440, Note_on_c, 0, 56, 100
5, 343676, Note_on_c, 0, 56, 0
5, 343676, Note_on_c, 0, 56, 0
5, 343916, Note_on_c, 0, 50, 0
5, 343916, Note_on_c, 0, 47, 0
5, 343920, Note_on_c, 0, 48, 100
5, 343920, Note_on_c, 0, 52, 100
5, 343920, Note_on_c, 0, 57, 100
5, 345356, Note_on_c, 0, 57, 0
5, 345356, Note_on_c, 0, 52, 0
5, 345356, Note_on_c, 0, 48, 0
5, 345360, Note_on_c, 0, 71, 100
5, 345476, Note_on_c, 0, 71, 0
5, 345480, Note_on_c, 0, 69, 100
5, 345596, Note_on_c, 0, 69, 0
5, 345600, Note_on_c, 0, 67, 100
5, 345716, Note_on_c, 0, 67, 0
5, 345720, Note_on_c, 0, 66, 100
5, 345776, Note_on_c, 0, 66, 0
5, 345780, Note_on_c, 0, 64, 100
5, 345836, Note_on_c, 0, 64, 0
5, 345840, Note_on_c, 0, 48, 100
5, 345840, Note_on_c, 0, 54, 100
5, 345840, Note_on_c, 0, 63, 100
5, 346796, Note_on_c, 0, 63, 0
5, 346796, Note_on_c, 0, 54, 0
5, 346800, Note_on_c, 0, 55, 100
5, 346800, Note_on_c, 0, 64, 100
5, 347756, Note_on_c, 0, 64, 0
5, 347756, Note_on_c, 0, 55, 0
5, 347756, Note_on_c, 0, 48, 0
5, 347760, Note_on_c, 0, 49, 100
5, 347760, Note_on_c, 0, 54, 100
5, 347760, Note_on_c, 0, 58, 100
5, 348716, Note_on_c, 0, 54, 0
5, 348720, Note_on_c, 0, 52, 100
5, 349196, Note_on_c, 0, 58, 0
5, 349200, Note_on_c, 0, 58, 100
5, 349676, Note_on_c, 0, 58, 0
5, 349676, Note_on_c, 0, 52, 0
5, 349676, Note_on_c, 0, 49, 0
5, 349680, Note_on_c, 0, 50, 100
5, 349680, Note_on_c, 0, 54, 100
5, 349680, Note_on_c, 0, 59, 100
5, 351116, Note_on_c, 0, 59, 0
5, 351116, Note_on_c, 0, 54, 0
5, 351116, Note_on_c, 0, 50, 0
5, 351120, Note_on_c, 0, 72, 100
5, 351236, Note_on_c, 0, 72, 0
5, 351240, Note_on_c, 0, 71, 100
5, 351356, Note_on_c, 0, 71, 0
5, 351360, Note_on_c, 0, 69, 100
5, 351476, Note_on_c, 0, 69, 0
5, 351480, Note_on_c, 0, 67, 100
5, 351596, Note_on_c, 0, 67, 0
5, 351600, Note_on_c, 0, 51, 100
5, 351600, Note_on_c, 0, 59, 100
5, 351600, Note_on_c, 0, 66, 100
5, 352556, Note_on_c, 0, 66, 0
5, 352556, Note_on_c, 0, 59, 0
5, 352556, Note_on_c, 0, 51, 0
5, 352560, Note_on_c, 0, 52, 100
5, 352560, Note_on_c, 0, 59, 100
5, 352560, Note_on_c, 0, 67, 100
5, 353036, Note_on_c, 0, 59, 0
5, 353040, Note_on_c, 0, 57, 100
5, 353516, Note_on_c, 0, 57, 0
5, 353520, Note_on_c, 0, 55, 100
5, 353996, Note_on_c, 0, 67, 0
5, 353996, Note_on_c, 0, 52, 0
5, 354000, Note_on_c, 0, 71, 100
5, 354116, Note_on_c, 0, 71, 0
5, 354120, Note_on_c, 0, 69, 100
5, 354236, Note_on_c, 0, 69, 0
5, 354240, Note_on_c, 0, 67, 100
5, 354356, Note_on_c, 0, 67, 0
5, 354360, Note_on_c, 0, 69, 100
5, 354416, Note_on_c, 0, 69, 0
5, 354420, Note_on_c, 0, 71, 100
5, 354476, Note_on_c, 0, 71, 0
5, 354476, Note_on_c, 0, 55, 0
5, 354480, Note_on_c, 0, 54, 100
5, 354480, Note_on_c, 0, 57, 100
5, 354480, Note_on_c, 0, 63, 100
5, 355436, Note_on_c, 0, 63, 0
5, 355436, Note_on_c, 0, 57, 0
5, 355436, Note_on_c, 0, 54, 0
5, 355440, Note_on_c, 0, 55, 100
5, 355440, Note_on_c, 0, 59, 100
5, 355440, Note_on_c, 0, 64, 100
5, 356396, Note_on_c, 0, 55, 0
5, 356400, Note_on_c, 0, 48, 100
5, 356400, Note_on_c, 0, 52, 100
5, 356876, Note_on_c, 0, 64, 0
5, 356880, Note_on_c, 0, 67, 100
5, 357356, Note_on_c, 0, 67, 0
5, 357356, Note_on_c, 0, 52, 0
5, 357356, Note_on_c, 0, 59, 0
5, 357360, Note_on_c, 0, 57, 100
5, 357360, Note_on_c, 0, 66, 100
5, 357836, Note_on_c, 0, 66, 0
5, 357840, Note_on_c, 0, 67, 100
5, 358076, Note_on_c, 0, 67, 0
5, 358080, Note_on_c, 0, 69, 100
5, 358316, Note_on_c, 0, 69, 0
5, 358316, Note_on_c, 0, 48, 0
5, 358320, Note_on_c, 0, 47, 100
5, 358320, Note_on_c, 0, 54, 100
5, 358320, Note_on_c, 0, 63, 100
5, 358796, Note_on_c, 0, 63, 0
5, 358796, Note_on_c, 0, 54, 0
5, 358796, Note_on_c, 0, 57, 0
5, 358800, Note_on_c, 0, 52, 100
5, 358800, Note_on_c, 0, 55, 100
5, 358800, Note_on_c, 0, 64, 100
5, 359036, Note_on_c, 0, 64, 0
5, 359036, Note_on_c, 0, 55, 0
5, 359036, Note_on_c, 0, 52, 0
5, 359040, Note_on_c, 0, 57, 100
5, 359040, Note_on_c, 0, 66, 100
5, 359156, Note_on_c, 0, 66, 0
5, 359160, Note_on_c, 0, 67, 100
5, 359276, Note_on_c, 0, 67, 0
5, 359276, Note_on_c, 0, 57, 0
5, 359280, Note_on_c, 0, 59, 100
5, 359280, Note_on_c, 0, 66, 100
5, 359316, Note_on_c, 0, 66, 0
5, 359320, Note_on_c, 0, 67, 100
5, 359356, Note_on_c, 0, 67, 0
5, 359360, Note_on_c, 0, 66, 100
5, 359396, Note_on_c, 0, 66, 0
5, 359400, Note_on_c, 0, 67, 100
5, 359436, Note_on_c, 0, 67, 0
5, 359440, Note_on_c, 0, 66, 100
5, 359476, Note_on_c, 0, 66, 0
5, 359480, Note_on_c, 0, 67, 100
5, 359516, Note_on_c, 0, 67, 0
5, 359520, Note_on_c, 0, 66, 100
5, 360236, Note_on_c, 0, 59, 0
5, 360236, Note_on_c, 0, 47, 0
5, 360240, Note_on_c, 0, 51, 100
5, 360240, Note_on_c, 0, 57, 100
5, 360720, Note_on_c, 0, 64, 100
5, 360956, Note_on_c, 0, 66, 0
5, 361196, Note_on_c, 0, 51, 0
5, 361196, Note_on_c, 0, 57, 0
5, 361196, Note_on_c, 0, 64, 0
5, 361200, Note_on_c, 0, 40, 100
5, 361200, Note_on_c, 0, 52, 100
5, 361200, Note_on_c, 0, 57, 100
5, 361200, Note_on_c, 0, 64, 100
5, 362156, Note_on_c, 0, 57, 0
5, 362160, Note_on_c, 0, 56, 100
5, 362636, Note_on_c, 0, 64, 0
5, 362640, Note_on_c, 0, 66, 100
5, 363116, Note_on_c, 0, 66, 0
5, 363120, Note_on_c, 0, 64, 100
5, 364076, Note_on_c, 0, 64, 0
5, 364076, Note_on_c, 0, 40, 0
5, 364076, Note_on_c, 0, 52, 0
5, 364076, Note_on_c, 0, 56, 0
5, 364080, Note_on_c, 0, 47, 100
5, 364080, Note_on_c, 0, 62, 100
5, 364080, Note_on_c, 0, 66, 100
5, 365036, Note_on_c, 0, 62, 0
5, 365036, Note_on_c, 0, 47, 0
5, 365040, Note_on_c, 0, 46, 100
5, 365040, Note_on_c, 0, 61, 100
5, 365280, Note_on_c, 0, 67, 100
5, 365516, Note_on_c, 0, 67, 0
5, 365516, Note_on_c, 0, 66, 0
5, 365520, Note_on_c, 0, 66, 100
5, 365756, Note_on_c, 0, 66, 0
5, 365760, Note_on_c, 0, 64, 100
5, 365996, Note_on_c, 0, 64, 0
5, 365996, Note_on_c, 0, 61, 0
5, 365996, Note_on_c, 0, 46, 0
5, 366000, Note_on_c, 0, 47, 100
5, 366000, Note_on_c, 0, 54, 100
5, 366000, Note_on_c, 0, 59, 100
5, 366000, Note_on_c, 0, 62, 100
5, 366476, Note_on_c, 0, 62, 0
5, 366480, Note_on_c, 0, 61, 100
5, 366716, Note_on_c, 0, 61, 0
5, 366720, Note_on_c, 0, 59, 100
5, 366956, Note_on_c, 0, 59, 0
5, 366956, Note_on_c, 0, 47, 0
5, 366956, Note_on_c, 0, 54, 0
5, 366956, Note_on_c, 0, 59, 0
5, 366960, Note_on_c, 0, 47, 100
5, 366960, Note_on_c, 0, 55, 100
5, 366960, Note_on_c, 0, 62, 100
5, 366960, Note_on_c, 0, 67, 100
5, 367436, Note_on_c, 0, 67, 0
5, 367440, Note_on_c, 0, 66, 100
5, 367676, Note_on_c, 0, 66, 0
5, 367680, Note_on_c, 0, 64, 100
5, 367916, Note_on_c, 0, 64, 0
5, 367916, Note_on_c, 0, 47, 0
5, 367916, Note_on_c, 0, 55, 0
5, 367916, Note_on_c, 0, 62, 0
5, 367920, Note_on_c, 0, 48, 100
5, 367920, Note_on_c, 0, 55, 100
5, 367920, Note_on_c, 0, 60, 100
5, 367920, Note_on_c, 0, 64, 100
5, 369356, Note_on_c, 0, 64, 0
5, 369356, Note_on_c, 0, 48, 0
5, 369356, Note_on_c, 0, 55, 0
5, 369356, Note_on_c, 0, 60, 0
5, 369360, Note_on_c, 0, 64, 100
5, 369476, Note_on_c, 0, 64, 0
5, 369480, Note_on_c, 0, 66, 100
5, 369596, Note_on_c, 0, 66, 0
5, 369600, Note_on_c, 0, 67, 100
5, 369716, Note_on_c, 0, 67, 0
5, 369720, Note_on_c, 0, 69, 100
5, 369776, Note_on_c, 0, 69, 0
5, 369780, Note_on_c, 0, 71, 100
5, 369836, Note_on_c, 0, 71, 0
5, 369840, Note_on_c, 0, 45, 100
5, 369840, Note_on_c, 0, 57, 100
5, 369840, Note_on_c, 0, 60, 100
5, 369840, Note_on_c, 0, 66, 100
5, 369840, Note_on_c, 0, 72, 100
5, 370796, Note_on_c, 0, 72, 0
5, 370796, Note_on_c, 0, 60, 0
5, 370796, Note_on_c, 0, 45, 0
5, 370796, Note_on_c, 0, 57, 0
5, 370796, Note_on_c, 0, 66, 0
5, 370800, Note_on_c, 0, 47, 100
5, 370800, Note_on_c, 0, 50, 100
5, 370800, Note_on_c, 0, 55, 100
5, 370800, Note_on_c, 0, 67, 100
5, 370800, Note_on_c, 0, 71, 100
5, 371756, Note_on_c, 0, 50, 0
5, 371756, Note_on_c, 0, 47, 0
5, 371760, Note_on_c, 0, 48, 100
5, 371760, Note_on_c, 0, 52, 100
5, 372236, Note_on_c, 0, 67, 0
5, 372236, Note_on_c, 0, 71, 0
5, 372240, Note_on_c, 0, 69, 100
5, 372716, Note_on_c, 0, 69, 0
5, 372716, Note_on_c, 0, 52, 0
5, 372716, Note_on_c, 0, 48, 0
5, 372720, Note_on_c, 0, 50, 100
5, 372720, Note_on_c, 0, 62, 100
5, 372720, Note_on_c, 0, 69, 100
5, 373676, Note_on_c, 0, 55, 0
5, 373680, Note_on_c, 0, 54, 100
5, 374156, Note_on_c, 0, 69, 0
5, 374156, Note_on_c, 0, 62, 0
5, 374160, Note_on_c, 0, 71, 100
5, 374636, Note_on_c, 0, 71, 0
5, 374636, Note_on_c, 0, 50, 0
5, 374640, Note_on_c, 0, 69, 100
5, 375596, Note_on_c, 0, 69, 0
5, 375596, Note_on_c, 0, 54, 0
5, 375600, Note_on_c, 0, 52, 100
5, 375600, Note_on_c, 0, 61, 100
5, 375600, Note_on_c, 0, 66, 100
5, 375600, Note_on_c, 0, 70, 100
5, 376316, Note_on_c, 0, 70, 0
5, 376316, Note_on_c, 0, 66, 0
5, 376316, Note_on_c, 0, 61, 0
5, 376320, Note_on_c, 0, 68, 100
5, 376436, Note_on_c, 0, 68, 0
5, 376440, Note_on_c, 0, 70, 100
5, 376556, Note_on_c, 0, 70, 0
5, 376556, Note_on_c, 0, 52, 0
5, 376560, Note_on_c, 0, 50, 100
5, 376560, Note_on_c, 0, 59, 100
5, 376560, Note_on_c, 0, 66, 100
5, 376560, Note_on_c, 0, 71, 100
5, 377996, Note_on_c, 0, 71, 0
5, 377996, Note_on_c, 0, 66, 0
5, 377996, Note_on_c, 0, 59, 0
5, 378000, Note_on_c, 0, 69, 100
5, 378056, Note_on_c, 0, 69, 0
5, 378060, Note_on_c, 0, 67, 100
5, 378116, Note_on_c, 0, 67, 0
5, 378120, Note_on_c, 0, 66, 100
5, 378176, Note_on_c, 0, 66, 0
5, 378180, Note_on_c, 0, 64, 100
5, 378236, Note_on_c, 0, 64, 0
5, 378240, Note_on_c, 0, 62, 100
5, 378356, Note_on_c, 0, 62, 0
5, 378360, Note_on_c, 0, 61, 100
5, 378416, Note_on_c, 0, 61, 0
5, 378420, Note_on_c, 0, 59, 100
5, 378476, Note_on_c, 0, 59, 0
5, 378476, Note_on_c, 0, 50, 0
5, 378480, Note_on_c, 0, 49, 100
5, 378480, Note_on_c, 0, 52, 100
5, 378480, Note_on_c, 0, 59, 100
5, 378480, Note_on_c, 0, 64, 100
5, 379436, Note_on_c, 0, 59, 0
5, 379436, Note_on_c, 0, 49, 0
5, 379436, Note_on_c, 0, 52, 0
5, 379800, Note_on_c, 0, 66, 100
5, 379916, Note_on_c, 0, 66, 0
5, 379916, Note_on_c, 0, 64, 0
5, 379920, Note_on_c, 0, 64, 100
5, 380036, Note_on_c, 0, 64, 0
5, 380040, Note_on_c, 0, 63, 100
5, 380156, Note_on_c, 0, 63, 0
5, 380160, Note_on_c, 0, 64, 100
5, 380276, Note_on_c, 0, 64, 0
5, 380280, Note_on_c, 0, 66, 100
5, 380336, Note_on_c, 0, 66, 0
5, 380340, Note_on_c, 0, 67, 100
5, 380396, Note_on_c, 0, 67, 0
5, 380400, Note_on_c, 0, 49, 100
5, 380400, Note_on_c, 0, 52, 100
5, 380400, Note_on_c, 0, 58, 100
5, 381356, Note_on_c, 0, 58, 0
5, 381356, Note_on_c, 0, 52, 0
5, 381356, Note_on_c, 0, 49, 0
5, 381360, Note_on_c, 0, 50, 100
5, 381360, Note_on_c, 0, 54, 100
5, 381360, Note_on_c, 0, 59, 100
5, 381836, Note_on_c, 0, 54, 0
5, 381836, Note_on_c, 0, 50, 0
5, 381840, Note_on_c, 0, 52, 100
5, 381840, Note_on_c, 0, 55, 100
5, 382076, Note_on_c, 0, 59, 0
5, 382080, Note_on_c, 0, 61, 100
5, 382316, Note_on_c, 0, 61, 0
5, 382316, Note_on_c, 0, 55, 0
5, 382316, Note_on_c, 0, 52, 0
5, 382320, Note_on_c, 0, 54, 100
5, 382320, Note_on_c, 0, 59, 100
5, 382320, Note_on_c, 0, 61, 100
5, 383276, Note_on_c, 0, 59, 0
5, 383280, Note_on_c, 0, 42, 100
5, 383280, Note_on_c, 0, 58, 100
5, 383756, Note_on_c, 0, 61, 0
5, 383760, Note_on_c, 0, 59, 100
5, 384236, Note_on_c, 0, 59, 0
5, 384236, Note_on_c, 0, 58, 0
5, 384236, Note_on_c, 0, 42, 0
5, 384236, Note_on_c, 0, 54, 0
5, 384240, Note_on_c, 0, 59, 100
5, 384720, Note_on_c, 0, 47, 100
5, 385196, Note_on_c, 0, 47, 0
5, 385200, Note_on_c, 0, 51, 100
5, 385676, Note_on_c, 0, 51, 0
5, 385680, Note_on_c, 0, 54, 100
5, 386156, Note_on_c, 0, 54, 0
5, 386156, Note_on_c, 0, 59, 0
5, 386160, Note_on_c, 0, 59, 100
5, 387116, Note_on_c, 0, 59, 0
5, 387120, Note_on_c, 0, 47, 100
5, 387120, Note_on_c, 0, 54, 100
5, 387120, Note_on_c, 0, 59, 100
5, 387120, Note_on_c, 0, 62, 100
5, 388076, Note_on_c, 0, 62, 0
5, 388076, Note_on_c, 0, 47, 0
5, 388076, Note_on_c, 0, 54, 0
5, 388076, Note_on_c, 0, 59, 0
5, 388080, Note_on_c, 0, 47, 100
5, 388080, Note_on_c, 0, 50, 100
5, 388080, Note_on_c, 0, 56, 100
5, 388116, Note_on_c, 0, 56, 0
5, 388120, Note_on_c, 0, 57, 100
5, 388156, Note_on_c, 0, 57, 0
5, 388160, Note_on_c, 0, 56, 100
5, 388196, Note_on_c, 0, 56, 0
5, 388200, Note_on_c, 0, 57, 100
5, 388236, Note_on_c, 0, 57, 0
5, 388240, Note_on_c, 0, 56, 100
5, 388276, Note_on_c, 0, 56, 0
5, 388280, Note_on_c, 0, 57, 100
5, 388316, Note_on_c, 0, 57, 0
5, 388320, Note_on_c, 0, 56, 100
5, 389520, Note_on_c, 0, 56, 100
5, 389756, Note_on_c, 0, 56, 0
5, 389756, Note_on_c, 0, 56, 0
5, 389996, Note_on_c, 0, 50, 0
5, 389996, Note_on_c, 0, 47, 0
5, 390000, Note_on_c, 0, 48, 100
5, 390000, Note_on_c, 0, 52, 100
5, 390000, Note_on_c, 0, 57, 100
5, 391436, Note_on_c, 0, 57, 0
5, 391436, Note_on_c, 0, 52, 0
5, 391436, Note_on_c, 0, 48, 0
5, 391440, Note_on_c, 0, 71, 100
5, 391556, Note_on_c, 0, 71, 0
5, 391560, Note_on_c, 0, 69, 100
5, 391676, Note_on_c, 0, 69, 0
5, 391680, Note_on_c, 0, 67, 100
5, 391796, Note_on_c, 0, 67, 0
5, 391800, Note_on_c, 0, 66, 100
5, 391856, Note_on_c, 0, 66, 0
5, 391860, Note_on_c, 0, 64, 100
5, 391916, Note_on_c, 0, 64, 0
5, 391920, Note_on_c, 0, 48, 100
5, 391920, Note_on_c, 0, 54, 100
5, 391920, Note_on_c, 0, 63, 100
5, 392876, Note_on_c, 0, 63, 0
5, 392876, Note_on_c, 0, 54, 0
5, 392880, Note_on_c, 0, 55, 100
5, 392880, Note_on_c, 0, 64, 100
5, 393836, Note_on_c, 0, 64, 0
5, 393836, Note_on_c, 0, 55, 0
5, 393836, Note_on_c, 0, 48, 0
5, 393840, Note_on_c, 0, 49, 100
5, 393840, Note_on_c, 0, 54, 100
5, 393840, Note_on_c, 0, 58, 100
5, 394796, Note_on_c, 0, 54, 0
5, 394800, Note_on_c, 0, 52, 100
5, 395276, Note_on_c, 0, 58, 0
5, 395280, Note_on_c, 0, 58, 100
5, 395756, Note_on_c, 0, 58, 0
5, 395756, Note_on_c, 0, 52, 0
5, 395756, Note_on_c, 0, 49, 0
5, 395760, Note_on_c, 0, 50, 100
5, 395760, Note_on_c, 0, 54, 100
5, 395760, Note_on_c, 0, 59, 100
5, 397196, Note_on_c, 0, 59, 0
5, 397196, Note_on_c, 0, 54, 0
5, 397196, Note_on_c, 0, 50, 0
5, 397200, Note_on_c, 0, 72, 100
5, 397316, Note_on_c, 0, 72, 0
5, 397320, Note_on_c, 0, 71, 100
5, 397436, Note_on_c, 0, 71, 0
5, 397440, Note_on_c, 0, 69, 100
5, 397556, Note_on_c, 0, 69, 0
5, 397560, Note_on_c, 0, 67, 100
5, 397676, Note_on_c, 0, 67, 0
5, 397680, Note_on_c, 0, 51, 100
5, 397680, Note_on_c, 0, 59, 100
5, 397680, Note_on_c, 0, 66, 100
5, 398636, Note_on_c, 0, 66, 0
5, 398636, Note_on_c, 0, 59, 0
5, 398636, Note_on_c, 0, 51, 0
5, 398640, Note_on_c, 0, 52, 100
5, 398640, Note_on_c, 0, 59, 100
5, 398640, Note_on_c, 0, 67, 100
5, 399116, Note_on_c, 0, 59, 0
5, 399120, Note_on_c, 0, 57, 100
5, 399596, Note_on_c, 0, 57, 0
5, 399600, Note_on_c, 0, 55, 100
5, 400076, Note_on_c, 0, 67, 0
5, 400076, Note_on_c, 0, 52, 0
5, 400080, Note_on_c, 0, 71, 100
5, 400196, Note_on_c, 0, 71, 0
5, 400200, Note_on_c, 0, 69, 100
5, 400316, Note_on_c, 0, 69, 0
5, 400320, Note_on_c, 0, 67, 100
5, 400436, Note_on_c, 0, 67, 0
5, 400440, Note_on_c, 0, 69, 100
5, 400496, Note_on_c, 0, 69, 0
5, 400500, Note_on_c, 0, 71, 100
5, 400556, Note_on_c, 0, 71, 0
5, 400556, Note_on_c, 0, 55, 0
5, 400560, Note_on_c, 0, 54, 100
5, 400560, Note_on_c, 0, 57, 100
5, 400560, Note_on_c, 0, 63, 100
5, 401516, Note_on_c, 0, 63, 0
5, 401516, Note_on_c, 0, 57, 0
5, 401516, Note_on_c, 0, 54, 0
5, 401520, Note_on_c, 0, 55, 100
5, 401520, Note_on_c, 0, 59, 100
5, 401520, Note_on_c, 0, 64, 100
5, 402476, Note_on_c, 0, 55, 0
5, 402480, Note_on_c, 0, 48, 100
5, 402480, Note_on_c, 0, 52, 100
5, 402956, Note_on_c, 0, 64, 0
5, 402960, Note_on_c, 0, 67, 100
5, 403436, Note_on_c, 0, 67, 0
5, 403436, Note_on_c, 0, 52, 0
5, 403436, Note_on_c, 0, 59, 0
5, 403440, Note_on_c, 0, 57, 100
5, 403440, Note_on_c, 0, 66, 100
5, 403916, Note_on_c, 0, 66, 0
5, 403920, Note_on_c, 0, 67, 100
5, 404156, Note_on_c, 0, 67, 0
5, 404160, Note_on_c, 0, 69, 100
5, 404396, Note_on_c, 0, 69, 0
5, 404396, Note_on_c, 0, 48, 0
5, 404400, Note_on_c, 0, 47, 100
5, 404400, Note_on_c, 0, 54, 100
5, 404400, Note_on_c, 0, 63, 100
5, 404876, Note_on_c, 0, 63, 0
5, 404876, Note_on_c, 0, 54, 0
5, 404876, Note_on_c, 0, 57, 0
5, 404880, Note_on_c, 0, 52, 100
5, 404880, Note_on_c, 0, 55, 100
5, 404880, Note_on_c, 0, 64, 100
5, 405116, Note_on_c, 0, 64, 0
5, 405116, Note_on_c, 0, 55, 0
5, 405116, Note_on_c, 0, 52, 0
5, 405120, Note_on_c, 0, 57, 100
5, 405120, Note_on_c, 0, 66, 100
5, 405236, Note_on_c, 0, 66, 0
5, 405240, Note_on_c, 0, 67, 100
5, 405356, Note_on_c, 0, 67, 0
5, 405356, Note_on_c, 0, 57, 0
5, 405360, Note_on_c, 0, 59, 100
5, 405360, Note_on_c, 0, 66, 100
5, 405396, Note_on_c, 0, 66, 0
5, 405400, Note_on_c, 0, 67, 100
5, 405436, Note_on_c, 0, 67, 0
5, 405440, Note_on_c, 0, 66, 100
5, 405476, Note_on_c, 0, 66, 0
5, 405480, Note_on_c, 0, 67, 100
5, 405516, Note_on_c, 0, 67, 0
5, 405520, Note_on_c, 0, 66, 100
5, 405556, Note_on_c, 0, 66, 0
5, 405560, Note_on_c, 0, 67, 100
5, 405596, Note_on_c, 0, 67, 0
5, 405600, Note_on_c, 0, 66, 100
5, 406316, Note_on_c, 0, 59, 0
5, 406316, Note_on_c, 0, 47, 0
5, 406320, Note_on_c, 0, 51, 100
5, 406320, Note_on_c, 0, 57, 100
5, 406800, Note_on_c, 0, 64, 100
5, 407036, Note_on_c, 0, 66, 0
5, 407276, Note_on_c, 0, 51, 0
5, 407276, Note_on_c, 0, 57, 0
5, 407276, Note_on_c, 0, 64, 0
5, 407280, Note_on_c, 0, 40, 100
5, 407280, Note_on_c, 0, 52, 100
5, 407280, Note_on_c, 0, 57, 100
5, 407280, Note_on_c, 0, 64, 100
5, 408236, Note_on_c, 0, 57, 0
5, 408240, Note_on_c, 0, 56, 100
5, 408716, Note_on_c, 0, 64, 0
5, 408720, Note_on_c, 0, 66, 100
5, 409196, Note_on_c, 0, 66, 0
5, 409200, Note_on_c, 0, 64, 100
5, 410156, Note_on_c, 0, 64, 0
5, 410156, Note_on_c, 0, 40, 0
5, 410156, Note_on_c, 0, 52, 0
5, 410156, Note_on_c, 0, 56, 0
5, 410156, End_track
6, 0, Start_track
6, 0, MIDI_port, 0
6, 0, Title_t, "Bourree "
6, 0, Program_c, 0, 24
6, 0, Control_c, 0, 7, 100
6, 0, Control_c, 0, 10, 64
6, 411600, Note_on_c, 0, 43, 100
6, 411600, Note_on_c, 0, 64, 100
6, 411836, Note_on_c, 0, 64, 0
6, 411836, Note_on_c, 0, 43, 0
6, 411840, Note_on_c, 0, 42, 100
6, 411840, Note_on_c, 0, 66, 100
6, 412076, Note_on_c, 0, 66, 0
6, 412076, Note_on_c, 0, 42, 0
6, 412080, Note_on_c, 0, 40, 100
6, 412080, Note_on_c, 0, 67, 100
6, 412556, Note_on_c, 0, 67, 0
6, 412556, Note_on_c, 0, 40, 0
6, 412560, Note_on_c, 0, 45, 100
6, 412560, Note_on_c, 0, 66, 100
6, 412796, Note_on_c, 0, 66, 0
6, 412800, Note_on_c, 0, 64, 100
6, 413036, Note_on_c, 0, 64, 0
6, 413036, Note_on_c, 0, 45, 0
6, 413040, Note_on_c, 0, 47, 100
6, 413040, Note_on_c, 0, 63, 100
6, 413516, Note_on_c, 0, 63, 0
6, 413516, Note_on_c, 0, 47, 0
6, 413520, Note_on_c, 0, 45, 100
6, 413520, Note_on_c, 0, 64, 100
6, 413756, Note_on_c, 0, 64, 0
6, 413760, Note_on_c, 0, 66, 100
6, 413996, Note_on_c, 0, 66, 0
6, 413996, Note_on_c, 0, 45, 0
6, 414000, Note_on_c, 0, 43, 100
6, 414000, Note_on_c, 0, 59, 100
6, 414476, Note_on_c, 0, 59, 0
6, 414476, Note_on_c, 0, 43, 0
6, 414480, Note_on_c, 0, 42, 100
6, 414480, Note_on_c, 0, 61, 100
6, 414716, Note_on_c, 0, 61, 0
6, 414720, Note_on_c, 0, 63, 100
6, 414956, Note_on_c, 0, 63, 0
6, 414956, Note_on_c, 0, 42, 0
6, 414960, Note_on_c, 0, 40, 100
6, 414960, Note_on_c, 0, 64, 100
6, 415436, Note_on_c, 0, 64, 0
6, 415436, Note_on_c, 0, 40, 0
6, 415440, Note_on_c, 0, 42, 100
6, 415440, Note_on_c, 0, 62, 100
6, 415676, Note_on_c, 0, 62, 0
6, 415680, Note_on_c, 0, 60, 100
6, 415916, Note_on_c, 0, 60, 0
6, 415916, Note_on_c, 0, 42, 0
6, 415920, Note_on_c, 0, 43, 100
6, 415920, Note_on_c, 0, 59, 100
6, 416396, Note_on_c, 0, 59, 0
6, 416396, Note_on_c, 0, 43, 0
6, 416400, Note_on_c, 0, 45, 100
6, 416400, Note_on_c, 0, 57, 100
6, 416636, Note_on_c, 0, 57, 0
6, 416640, Note_on_c, 0, 55, 100
6, 416876, Note_on_c, 0, 55, 0
6, 416876, Note_on_c, 0, 45, 0
6, 416880, Note_on_c, 0, 47, 100
6, 416880, Note_on_c, 0, 54, 100
6, 417356, Note_on_c, 0, 54, 0
6, 417356, Note_on_c, 0, 47, 0
6, 417360, Note_on_c, 0, 45, 100
6, 417360, Note_on_c, 0, 55, 100
6, 417596, Note_on_c, 0, 55, 0
6, 417600, Note_on_c, 0, 57, 100
6, 417836, Note_on_c, 0, 57, 0
6, 417836, Note_on_c, 0, 45, 0
6, 417840, Note_on_c, 0, 43, 100
6, 417840, Note_on_c, 0, 59, 100
6, 418076, Note_on_c, 0, 59, 0
6, 418080, Note_on_c, 0, 57, 100
6, 418316, Note_on_c, 0, 57, 0
6, 418316, Note_on_c, 0, 43, 0
6, 418320, Note_on_c, 0, 47, 100
6, 418320, Note_on_c, 0, 55, 100
6, 418556, Note_on_c, 0, 55, 0
6, 418560, Note_on_c, 0, 54, 100
6, 418796, Note_on_c, 0, 54, 0
6, 418796, Note_on_c, 0, 47, 0
6, 418800, Note_on_c, 0, 40, 100
6, 418800, Note_on_c, 0, 52, 100
6, 419036, Note_on_c, 0, 40, 0
6, 419040, Note_on_c, 0, 42, 100
6, 419276, Note_on_c, 0, 42, 0
6, 419276, Note_on_c, 0, 52, 0
6, 419280, Note_on_c, 0, 43, 100
6, 419280, Note_on_c, 0, 64, 100
6, 419516, Note_on_c, 0, 64, 0
6, 419516, Note_on_c, 0, 43, 0
6, 419520, Note_on_c, 0, 42, 100
6, 419520, Note_on_c, 0, 66, 100
6, 419756, Note_on_c, 0, 66, 0
6, 419756, Note_on_c, 0, 42, 0
6, 419760, Note_on_c, 0, 40, 100
6, 419760, Note_on_c, 0, 67, 100
6, 420236, Note_on_c, 0, 67, 0
6, 420236, Note_on_c, 0, 40, 0
6, 420240, Note_on_c, 0, 45, 100
6, 420240, Note_on_c, 0, 66, 100
6, 420476, Note_on_c, 0, 66, 0
6, 420480, Note_on_c, 0, 64, 100
6, 420716, Note_on_c, 0, 64, 0
6, 420716, Note_on_c, 0, 45, 0
6, 420720, Note_on_c, 0, 47, 100
6, 420720, Note_on_c, 0, 63, 100
6, 421196, Note_on_c, 0, 63, 0
6, 421196, Note_on_c, 0, 47, 0
6, 421200, Note_on_c, 0, 45, 100
6, 421200, Note_on_c, 0, 64, 100
6, 421436, Note_on_c, 0, 64, 0
6, 421440, Note_on_c, 0, 66, 100
6, 421676, Note_on_c, 0, 66, 0
6, 421676, Note_on_c, 0, 45, 0
6, 421680, Note_on_c, 0, 43, 100
6, 421680, Note_on_c, 0, 59, 100
6, 422156, Note_on_c, 0, 59, 0
6, 422156, Note_on_c, 0, 43, 0
6, 422160, Note_on_c, 0, 42, 100
6, 422160, Note_on_c, 0, 61, 100
6, 422396, Note_on_c, 0, 61, 0
6, 422400, Note_on_c, 0, 63, 100
6, 422636, Note_on_c, 0, 63, 0
6, 422636, Note_on_c, 0, 42, 0
6, 422640, Note_on_c, 0, 40, 100
6, 422640, Note_on_c, 0, 64, 100
6, 423116, Note_on_c, 0, 64, 0
6, 423116, Note_on_c, 0, 40, 0
6, 423120, Note_on_c, 0, 42, 100
6, 423120, Note_on_c, 0, 62, 100
6, 423356, Note_on_c, 0, 62, 0
6, 423360, Note_on_c, 0, 60, 100
6, 423596, Note_on_c, 0, 60, 0
6, 423596, Note_on_c, 0, 42, 0
6, 423600, Note_on_c, 0, 43, 100
6, 423600, Note_on_c, 0, 59, 100
6, 424076, Note_on_c, 0, 59, 0
6, 424076, Note_on_c, 0, 43, 0
6, 424080, Note_on_c, 0, 48, 100
6, 424080, Note_on_c, 0, 57, 100
6, 424316, Note_on_c, 0, 57, 0
6, 424320, Note_on_c, 0, 55, 100
6, 424556, Note_on_c, 0, 55, 0
6, 424556, Note_on_c, 0, 48, 0
6, 424560, Note_on_c, 0, 50, 100
6, 424560, Note_on_c, 0, 54, 100
6, 424596, Note_on_c, 0, 54, 0
6, 424600, Note_on_c, 0, 55, 100
6, 424636, Note_on_c, 0, 55, 0
6, 424640, Note_on_c, 0, 54, 100
6, 424676, Note_on_c, 0, 54, 0
6, 424680, Note_on_c, 0, 55, 100
6, 424716, Note_on_c, 0, 55, 0
6, 424720, Note_on_c, 0, 54, 100
6, 424756, Note_on_c, 0, 54, 0
6, 424760, Note_on_c, 0, 55, 100
6, 424796, Note_on_c, 0, 55, 0
6, 424800, Note_on_c, 0, 54, 100
6, 425036, Note_on_c, 0, 50, 0
6, 425040, Note_on_c, 0, 50, 100
6, 425276, Note_on_c, 0, 54, 0
6, 425280, Note_on_c, 0, 55, 100
6, 425516, Note_on_c, 0, 55, 0
6, 425516, Note_on_c, 0, 50, 0
6, 425520, Note_on_c, 0, 43, 100
6, 425520, Note_on_c, 0, 47, 100
6, 425520, Note_on_c, 0, 50, 100
6, 425520, Note_on_c, 0, 55, 100
6, 426956, Note_on_c, 0, 55, 0
6, 426956, Note_on_c, 0, 43, 0
6, 426956, Note_on_c, 0, 47, 0
6, 426956, Note_on_c, 0, 50, 0
6, 426960, Note_on_c, 0, 43, 100
6, 426960, Note_on_c, 0, 64, 100
6, 427196, Note_on_c, 0, 64, 0
6, 427196, Note_on_c, 0, 43, 0
6, 427200, Note_on_c, 0, 42, 100
6, 427200, Note_on_c, 0, 66, 100
6, 427436, Note_on_c, 0, 66, 0
6, 427436, Note_on_c, 0, 42, 0
6, 427440, Note_on_c, 0, 40, 100
6, 427440, Note_on_c, 0, 67, 100
6, 427916, Note_on_c, 0, 67, 0
6, 427916, Note_on_c, 0, 40, 0
6, 427920, Note_on_c, 0, 45, 100
6, 427920, Note_on_c, 0, 66, 100
6, 428156, Note_on_c, 0, 66, 0
6, 428160, Note_on_c, 0, 64, 100
6, 428396, Note_on_c, 0, 64, 0
6, 428396, Note_on_c, 0, 45, 0
6, 428400, Note_on_c, 0, 47, 100
6, 428400, Note_on_c, 0, 63, 100
6, 428876, Note_on_c, 0, 63, 0
6, 428876, Note_on_c, 0, 47, 0
6, 428880, Note_on_c, 0, 45, 100
6, 428880, Note_on_c, 0, 64, 100
6, 429116, Note_on_c, 0, 64, 0
6, 429120, Note_on_c, 0, 66, 100
6, 429356, Note_on_c, 0, 66, 0
6, 429356, Note_on_c, 0, 45, 0
6, 429360, Note_on_c, 0, 43, 100
6, 429360, Note_on_c, 0, 59, 100
6, 429836, Note_on_c, 0, 59, 0
6, 429836, Note_on_c, 0, 43, 0
6, 429840, Note_on_c, 0, 42, 100
6, 429840, Note_on_c, 0, 61, 100
6, 430076, Note_on_c, 0, 61, 0
6, 430080, Note_on_c, 0, 63, 100
6, 430316, Note_on_c, 0, 63, 0
6, 430316, Note_on_c, 0, 42, 0
6, 430320, Note_on_c, 0, 40, 100
6, 430320, Note_on_c, 0, 64, 100
6, 430796, Note_on_c, 0, 64, 0
6, 430796, Note_on_c, 0, 40, 0
6, 430800, Note_on_c, 0, 42, 100
6, 430800, Note_on_c, 0, 62, 100
6, 431036, Note_on_c, 0, 62, 0
6, 431040, Note_on_c, 0, 60, 100
6, 431276, Note_on_c, 0, 60, 0
6, 431276, Note_on_c, 0, 42, 0
6, 431280, Note_on_c, 0, 43, 100
6, 431280, Note_on_c, 0, 59, 100
6, 431756, Note_on_c, 0, 59, 0
6, 431756, Note_on_c, 0, 43, 0
6, 431760, Note_on_c, 0, 45, 100
6, 431760, Note_on_c, 0, 57, 100
6, 431996, Note_on_c, 0, 57, 0
6, 432000, Note_on_c, 0, 55, 100
6, 432236, Note_on_c, 0, 55, 0
6, 432236, Note_on_c, 0, 45, 0
6, 432240, Note_on_c, 0, 47, 100
6, 432240, Note_on_c, 0, 54, 100
6, 432716, Note_on_c, 0, 54, 0
6, 432716, Note_on_c, 0, 47, 0
6, 432720, Note_on_c, 0, 45, 100
6, 432720, Note_on_c, 0, 55, 100
6, 432956, Note_on_c, 0, 55, 0
6, 432960, Note_on_c, 0, 57, 100
6, 433196, Note_on_c, 0, 57, 0
6, 433196, Note_on_c, 0, 45, 0
6, 433200, Note_on_c, 0, 43, 100
6, 433200, Note_on_c, 0, 59, 100
6, 433436, Note_on_c, 0, 59, 0
6, 433440, Note_on_c, 0, 57, 100
6, 433676, Note_on_c, 0, 57, 0
6, 433676, Note_on_c, 0, 43, 0
6, 433680, Note_on_c, 0, 47, 100
6, 433680, Note_on_c, 0, 55, 100
6, 433916, Note_on_c, 0, 55, 0
6, 433920, Note_on_c, 0, 54, 100
6, 434156, Note_on_c, 0, 54, 0
6, 434156, Note_on_c, 0, 47, 0
6, 434160, Note_on_c, 0, 40, 100
6, 434160, Note_on_c, 0, 52, 100
6, 434396, Note_on_c, 0, 40, 0
6, 434400, Note_on_c, 0, 42, 100
6, 434636, Note_on_c, 0, 42, 0
6, 434636, Note_on_c, 0, 52, 0
6, 434640, Note_on_c, 0, 43, 100
6, 434640, Note_on_c, 0, 64, 100
6, 434876, Note_on_c, 0, 64, 0
6, 434876, Note_on_c, 0, 43, 0
6, 434880, Note_on_c, 0, 42, 100
6, 434880, Note_on_c, 0, 66, 100
6, 435116, Note_on_c, 0, 66, 0
6, 435116, Note_on_c, 0, 42, 0
6, 435120, Note_on_c, 0, 40, 100
6, 435120, Note_on_c, 0, 67, 100
6, 435596, Note_on_c, 0, 67, 0
6, 435596, Note_on_c, 0, 40, 0
6, 435600, Note_on_c, 0, 45, 100
6, 435600, Note_on_c, 0, 66, 100
6, 435836, Note_on_c, 0, 66, 0
6, 435840, Note_on_c, 0, 64, 100
6, 436076, Note_on_c, 0, 64, 0
6, 436076, Note_on_c, 0, 45, 0
6, 436080, Note_on_c, 0, 47, 100
6, 436080, Note_on_c, 0, 63, 100
6, 436556, Note_on_c, 0, 63, 0
6, 436556, Note_on_c, 0, 47, 0
6, 436560, Note_on_c, 0, 45, 100
6, 436560, Note_on_c, 0, 64, 100
6, 436796, Note_on_c, 0, 64, 0
6, 436800, Note_on_c, 0, 66, 100
6, 437036, Note_on_c, 0, 66, 0
6, 437036, Note_on_c, 0, 45, 0
6, 437040, Note_on_c, 0, 43, 100
6, 437040, Note_on_c, 0, 59, 100
6, 437516, Note_on_c, 0, 59, 0
6, 437516, Note_on_c, 0, 43, 0
6, 437520, Note_on_c, 0, 42, 100
6, 437520, Note_on_c, 0, 61, 100
6, 437756, Note_on_c, 0, 61, 0
6, 437760, Note_on_c, 0, 63, 100
6, 437996, Note_on_c, 0, 63, 0
6, 437996, Note_on_c, 0, 42, 0
6, 438000, Note_on_c, 0, 40, 100
6, 438000, Note_on_c, 0, 64, 100
6, 438476, Note_on_c, 0, 64, 0
6, 438476, Note_on_c, 0, 40, 0
6, 438480, Note_on_c, 0, 42, 100
6, 438480, Note_on_c, 0, 62, 100
6, 438716, Note_on_c, 0, 62, 0
6, 438720, Note_on_c, 0, 60, 100
6, 438956, Note_on_c, 0, 60, 0
6, 438956, Note_on_c, 0, 42, 0
6, 438960, Note_on_c, 0, 43, 100
6, 438960, Note_on_c, 0, 59, 100
6, 439436, Note_on_c, 0, 59, 0
6, 439436, Note_on_c, 0, 43, 0
6, 439440, Note_on_c, 0, 48, 100
6, 439440, Note_on_c, 0, 57, 100
6, 439676, Note_on_c, 0, 57, 0
6, 439680, Note_on_c, 0, 55, 100
6, 439916, Note_on_c, 0, 55, 0
6, 439916, Note_on_c, 0, 48, 0
6, 439920, Note_on_c, 0, 50, 100
6, 439920, Note_on_c, 0, 54, 100
6, 439956, Note_on_c, 0, 54, 0
6, 439960, Note_on_c, 0, 55, 100
6, 439996, Note_on_c, 0, 55, 0
6, 440000, Note_on_c, 0, 54, 100
6, 440036, Note_on_c, 0, 54, 0
6, 440040, Note_on_c, 0, 55, 100
6, 440076, Note_on_c, 0, 55, 0
6, 440080, Note_on_c, 0, 54, 100
6, 440116, Note_on_c, 0, 54, 0
6, 440120, Note_on_c, 0, 55, 100
6, 440156, Note_on_c, 0, 55, 0
6, 440160, Note_on_c, 0, 54, 100
6, 440396, Note_on_c, 0, 50, 0
6, 440400, Note_on_c, 0, 50, 100
6, 440636, Note_on_c, 0, 54, 0
6, 440640, Note_on_c, 0, 55, 100
6, 440876, Note_on_c, 0, 55, 0
6, 440876, Note_on_c, 0, 50, 0
6, 440880, Note_on_c, 0, 43, 100
6, 440880, Note_on_c, 0, 47, 100
6, 440880, Note_on_c, 0, 50, 100
6, 440880, Note_on_c, 0, 55, 100
6, 442316, Note_on_c, 0, 55, 0
6, 442316, Note_on_c, 0, 43, 0
6, 442316, Note_on_c, 0, 47, 0
6, 442316, Note_on_c, 0, 50, 0
6, 442320, Note_on_c, 0, 43, 100
6, 442320, Note_on_c, 0, 59, 100
6, 442556, Note_on_c, 0, 59, 0
6, 442560, Note_on_c, 0, 55, 100
6, 442796, Note_on_c, 0, 55, 0
6, 442796, Note_on_c, 0, 43, 0
6, 442800, Note_on_c, 0, 42, 100
6, 442800, Note_on_c, 0, 62, 100
6, 443276, Note_on_c, 0, 62, 0
6, 443276, Note_on_c, 0, 42, 0
6, 443280, Note_on_c, 0, 50, 100
6, 443280, Note_on_c, 0, 57, 100
6, 443516, Note_on_c, 0, 57, 0
6, 443520, Note_on_c, 0, 60, 100
6, 443756, Note_on_c, 0, 60, 0
6, 443756, Note_on_c, 0, 50, 0
6, 443760, Note_on_c, 0, 43, 100
6, 443760, Note_on_c, 0, 59, 100
6, 444236, Note_on_c, 0, 59, 0
6, 444236, Note_on_c, 0, 43, 0
6, 444240, Note_on_c, 0, 47, 100
6, 444240, Note_on_c, 0, 67, 100
6, 444476, Note_on_c, 0, 67, 0
6, 444480, Note_on_c, 0, 62, 100
6, 444716, Note_on_c, 0, 62, 0
6, 444716, Note_on_c, 0, 47, 0
6, 444720, Note_on_c, 0, 48, 100
6, 444720, Note_on_c, 0, 64, 100
6, 445196, Note_on_c, 0, 64, 0
6, 445196, Note_on_c, 0, 48, 0
6, 445200, Note_on_c, 0, 44, 100
6, 445200, Note_on_c, 0, 59, 100
6, 445436, Note_on_c, 0, 59, 0
6, 445440, Note_on_c, 0, 62, 100
6, 445676, Note_on_c, 0, 62, 0
6, 445676, Note_on_c, 0, 44, 0
6, 445680, Note_on_c, 0, 45, 100
6, 445680, Note_on_c, 0, 60, 100
6, 446156, Note_on_c, 0, 60, 0
6, 446156, Note_on_c, 0, 45, 0
6, 446160, Note_on_c, 0, 50, 100
6, 446160, Note_on_c, 0, 59, 100
6, 446396, Note_on_c, 0, 59, 0
6, 446400, Note_on_c, 0, 57, 100
6, 446636, Note_on_c, 0, 57, 0
6, 446636, Note_on_c, 0, 50, 0
6, 446640, Note_on_c, 0, 52, 100
6, 446640, Note_on_c, 0, 56, 100
6, 447116, Note_on_c, 0, 56, 0
6, 447116, Note_on_c, 0, 52, 0
6, 447120, Note_on_c, 0, 45, 100
6, 447120, Note_on_c, 0, 57, 100
6, 447356, Note_on_c, 0, 57, 0
6, 447360, Note_on_c, 0, 59, 100
6, 447596, Note_on_c, 0, 59, 0
6, 447596, Note_on_c, 0, 45, 0
6, 447600, Note_on_c, 0, 52, 100
6, 447600, Note_on_c, 0, 60, 100
6, 448076, Note_on_c, 0, 60, 0
6, 448076, Note_on_c, 0, 52, 0
6, 448080, Note_on_c, 0, 40, 100
6, 448080, Note_on_c, 0, 59, 100
6, 448316, Note_on_c, 0, 59, 0
6, 448320, Note_on_c, 0, 57, 100
6, 448556, Note_on_c, 0, 57, 0
6, 448556, Note_on_c, 0, 40, 0
6, 448560, Note_on_c, 0, 45, 100
6, 448560, Note_on_c, 0, 57, 100
6, 448796, Note_on_c, 0, 45, 0
6, 448800, Note_on_c, 0, 47, 100
6, 449036, Note_on_c, 0, 47, 0
6, 449040, Note_on_c, 0, 45, 100
6, 449276, Note_on_c, 0, 45, 0
6, 449280, Note_on_c, 0, 43, 100
6, 449516, Note_on_c, 0, 43, 0
6, 449520, Note_on_c, 0, 42, 100
6, 449996, Note_on_c, 0, 42, 0
6, 449996, Note_on_c, 0, 57, 0
6, 450000, Note_on_c, 0, 50, 100
6, 450000, Note_on_c, 0, 62, 100
6, 450236, Note_on_c, 0, 62, 0
6, 450240, Note_on_c, 0, 57, 100
6, 450476, Note_on_c, 0, 57, 0
6, 450476, Note_on_c, 0, 50, 0
6, 450480, Note_on_c, 0, 43, 100
6, 450480, Note_on_c, 0, 59, 100
6, 450956, Note_on_c, 0, 59, 0
6, 450956, Note_on_c, 0, 43, 0
6, 450960, Note_on_c, 0, 47, 100
6, 450960, Note_on_c, 0, 67, 100
6, 451196, Note_on_c, 0, 67, 0
6, 451200, Note_on_c, 0, 62, 100
6, 451436, Note_on_c, 0, 62, 0
6, 451436, Note_on_c, 0, 47, 0
6, 451440, Note_on_c, 0, 48, 100
6, 451440, Note_on_c, 0, 64, 100
6, 451916, Note_on_c, 0, 64, 0
6, 451916, Note_on_c, 0, 48, 0
6, 451920, Note_on_c, 0, 44, 100
6, 451920, Note_on_c, 0, 59, 100
6, 452156, Note_on_c, 0, 59, 0
6, 452160, Note_on_c, 0, 62, 100
6, 452396, Note_on_c, 0, 62, 0
6, 452396, Note_on_c, 0, 44, 0
6, 452400, Note_on_c, 0, 45, 100
6, 452400, Note_on_c, 0, 60, 100
6, 452876, Note_on_c, 0, 60, 0
6, 452876, Note_on_c, 0, 45, 0
6, 452880, Note_on_c, 0, 49, 100
6, 452880, Note_on_c, 0, 69, 100
6, 453116, Note_on_c, 0, 69, 0
6, 453120, Note_on_c, 0, 64, 100
6, 453356, Note_on_c, 0, 64, 0
6, 453356, Note_on_c, 0, 49, 0
6, 453360, Note_on_c, 0, 50, 100
6, 453360, Note_on_c, 0, 66, 100
6, 453836, Note_on_c, 0, 66, 0
6, 453836, Note_on_c, 0, 50, 0
6, 453840, Note_on_c, 0, 46, 100
6, 453840, Note_on_c, 0, 61, 100
6, 454076, Note_on_c, 0, 61, 0
6, 454080, Note_on_c, 0, 64, 100
6, 454316, Note_on_c, 0, 64, 0
6, 454316, Note_on_c, 0, 46, 0
6, 454320, Note_on_c, 0, 47, 100
6, 454320, Note_on_c, 0, 62, 100
6, 454796, Note_on_c, 0, 62, 0
6, 454796, Note_on_c, 0, 47, 0
6, 454800, Note_on_c, 0, 52, 100
6, 454800, Note_on_c, 0, 61, 100
6, 455036, Note_on_c, 0, 61, 0
6, 455040, Note_on_c, 0, 59, 100
6, 455276, Note_on_c, 0, 59, 0
6, 455276, Note_on_c, 0, 52, 0
6, 455280, Note_on_c, 0, 54, 100
6, 455280, Note_on_c, 0, 58, 100
6, 455316, Note_on_c, 0, 58, 0
6, 455320, Note_on_c, 0, 59, 100
6, 455356, Note_on_c, 0, 59, 0
6, 455360, Note_on_c, 0, 58, 100
6, 455396, Note_on_c, 0, 58, 0
6, 455400, Note_on_c, 0, 59, 100
6, 455436, Note_on_c, 0, 59, 0
6, 455440, Note_on_c, 0, 58, 100
6, 455476, Note_on_c, 0, 58, 0
6, 455480, Note_on_c, 0, 59, 100
6, 455516, Note_on_c, 0, 59, 0
6, 455520, Note_on_c, 0, 58, 100
6, 455756, Note_on_c, 0, 54, 0
6, 455760, Note_on_c, 0, 42, 100
6, 455996, Note_on_c, 0, 58, 0
6, 456000, Note_on_c, 0, 59, 100
6, 456236, Note_on_c, 0, 59, 0
6, 456236, Note_on_c, 0, 42, 0
6, 456240, Note_on_c, 0, 47, 100
6, 456240, Note_on_c, 0, 59, 100
6, 456476, Note_on_c, 0, 47, 0
6, 456480, Note_on_c, 0, 46, 100
6, 456716, Note_on_c, 0, 46, 0
6, 456720, Note_on_c, 0, 47, 100
6, 456956, Note_on_c, 0, 47, 0
6, 456960, Note_on_c, 0, 49, 100
6, 457196, Note_on_c, 0, 49, 0
6, 457200, Note_on_c, 0, 51, 100
6, 457676, Note_on_c, 0, 51, 0
6, 457676, Note_on_c, 0, 59, 0
6, 457680, Note_on_c, 0, 47, 100
6, 457680, Note_on_c, 0, 71, 100
6, 457916, Note_on_c, 0, 71, 0
6, 457920, Note_on_c, 0, 66, 100
6, 458156, Note_on_c, 0, 66, 0
6, 458156, Note_on_c, 0, 47, 0
6, 458160, Note_on_c, 0, 52, 100
6, 458160, Note_on_c, 0, 68, 100
6, 458636, Note_on_c, 0, 68, 0
6, 458636, Note_on_c, 0, 52, 0
6, 458640, Note_on_c, 0, 50, 100
6, 458640, Note_on_c, 0, 66, 100
6, 458876, Note_on_c, 0, 66, 0
6, 458880, Note_on_c, 0, 64, 100
6, 459116, Note_on_c, 0, 64, 0
6, 459116, Note_on_c, 0, 50, 0
6, 459120, Note_on_c, 0, 49, 100
6, 459120, Note_on_c, 0, 69, 100
6, 459596, Note_on_c, 0, 69, 0
6, 459596, Note_on_c, 0, 49, 0
6, 459600, Note_on_c, 0, 45, 100
6, 459600, Note_on_c, 0, 64, 100
6, 459836, Note_on_c, 0, 64, 0
6, 459840, Note_on_c, 0, 67, 100
6, 460076, Note_on_c, 0, 67, 0
6, 460076, Note_on_c, 0, 45, 0
6, 460080, Note_on_c, 0, 50, 100
6, 460080, Note_on_c, 0, 66, 100
6, 460556, Note_on_c, 0, 66, 0
6, 460556, Note_on_c, 0, 50, 0
6, 460560, Note_on_c, 0, 48, 100
6, 460560, Note_on_c, 0, 64, 100
6, 460796, Note_on_c, 0, 64, 0
6, 460800, Note_on_c, 0, 62, 100
6, 461036, Note_on_c, 0, 62, 0
6, 461036, Note_on_c, 0, 48, 0
6, 461040, Note_on_c, 0, 47, 100
6, 461040, Note_on_c, 0, 67, 100
6, 461516, Note_on_c, 0, 67, 0
6, 461516, Note_on_c, 0, 47, 0
6, 461520, Note_on_c, 0, 43, 100
6, 461520, Note_on_c, 0, 62, 100
6, 461756, Note_on_c, 0, 62, 0
6, 461760, Note_on_c, 0, 65, 100
6, 461996, Note_on_c, 0, 65, 0
6, 461996, Note_on_c, 0, 43, 0
6, 462000, Note_on_c, 0, 48, 100
6, 462000, Note_on_c, 0, 64, 100
6, 462476, Note_on_c, 0, 64, 0
6, 462476, Note_on_c, 0, 48, 0
6, 462480, Note_on_c, 0, 47, 100
6, 462480, Note_on_c, 0, 69, 100
6, 462716, Note_on_c, 0, 69, 0
6, 462720, Note_on_c, 0, 64, 100
6, 462956, Note_on_c, 0, 64, 0
6, 462956, Note_on_c, 0, 47, 0
6, 462960, Note_on_c, 0, 45, 100
6, 462960, Note_on_c, 0, 66, 100
6, 463436, Note_on_c, 0, 66, 0
6, 463436, Note_on_c, 0, 45, 0
6, 463440, Note_on_c, 0, 42, 100
6, 463440, Note_on_c, 0, 61, 100
6, 463676, Note_on_c, 0, 61, 0
6, 463680, Note_on_c, 0, 64, 100
6, 463916, Note_on_c, 0, 64, 0
6, 463916, Note_on_c, 0, 42, 0
6, 463920, Note_on_c, 0, 47, 100
6, 463920, Note_on_c, 0, 63, 100
6, 464396, Note_on_c, 0, 63, 0
6, 464400, Note_on_c, 0, 59, 100
6, 464636, Note_on_c, 0, 47, 0
6, 464640, Note_on_c, 0, 48, 100
6, 464876, Note_on_c, 0, 48, 0
6, 464880, Note_on_c, 0, 47, 100
6, 465116, Note_on_c, 0, 47, 0
6, 465120, Note_on_c, 0, 45, 100
6, 465356, Note_on_c, 0, 45, 0
6, 465356, Note_on_c, 0, 59, 0
6, 465360, Note_on_c, 0, 44, 100
6, 465360, Note_on_c, 0, 64, 100
6, 465596, Note_on_c, 0, 64, 0
6, 465600, Note_on_c, 0, 59, 100
6, 465836, Note_on_c, 0, 59, 0
6, 465836, Note_on_c, 0, 44, 0
6, 465840, Note_on_c, 0, 45, 100
6, 465840, Note_on_c, 0, 60, 100
6, 466076, Note_on_c, 0, 45, 0
6, 466080, Note_on_c, 0, 52, 100
6, 466316, Note_on_c, 0, 52, 0
6, 466316, Note_on_c, 0, 60, 0
6, 466320, Note_on_c, 0, 54, 100
6, 466320, Note_on_c, 0, 62, 100
6, 466556, Note_on_c, 0, 62, 0
6, 466560, Note_on_c, 0, 57, 100
6, 466796, Note_on_c, 0, 57, 0
6, 466796, Note_on_c, 0, 54, 0
6, 466800, Note_on_c, 0, 43, 100
6, 466800, Note_on_c, 0, 59, 100
6, 467036, Note_on_c, 0, 43, 0
6, 467040, Note_on_c, 0, 51, 100
6, 467276, Note_on_c, 0, 51, 0
6, 467276, Note_on_c, 0, 59, 0
6, 467280, Note_on_c, 0, 52, 100
6, 467280, Note_on_c, 0, 60, 100
6, 467516, Note_on_c, 0, 60, 0
6, 467520, Note_on_c, 0, 55, 100
6, 467756, Note_on_c, 0, 55, 0
6, 467756, Note_on_c, 0, 52, 0
6, 467760, Note_on_c, 0, 42, 100
6, 467760, Note_on_c, 0, 57, 100
6, 467996, Note_on_c, 0, 42, 0
6, 468000, Note_on_c, 0, 49, 100
6, 468236, Note_on_c, 0, 49, 0
6, 468236, Note_on_c, 0, 57, 0
6, 468240, Note_on_c, 0, 51, 100
6, 468240, Note_on_c, 0, 59, 100
6, 468476, Note_on_c, 0, 59, 0
6, 468480, Note_on_c, 0, 54, 100
6, 468716, Note_on_c, 0, 54, 0
6, 468716, Note_on_c, 0, 51, 0
6, 468720, Note_on_c, 0, 40, 100
6, 468720, Note_on_c, 0, 55, 100
6, 469196, Note_on_c, 0, 55, 0
6, 469196, Note_on_c, 0, 40, 0
6, 469200, Note_on_c, 0, 45, 100
6, 469200, Note_on_c, 0, 54, 100
6, 469436, Note_on_c, 0, 54, 0
6, 469440, Note_on_c, 0, 52, 100
6, 469676, Note_on_c, 0, 52, 0
6, 469676, Note_on_c, 0, 45, 0
6, 469680, Note_on_c, 0, 47, 100
6, 469680, Note_on_c, 0, 51, 100
6, 470156, Note_on_c, 0, 51, 0
6, 470156, Note_on_c, 0, 47, 0
6, 470160, Note_on_c, 0, 45, 100
6, 470160, Note_on_c, 0, 52, 100
6, 470396, Note_on_c, 0, 52, 0
6, 470400, Note_on_c, 0, 54, 100
6, 470636, Note_on_c, 0, 54, 0
6, 470636, Note_on_c, 0, 45, 0
6, 470640, Note_on_c, 0, 47, 100
6, 470640, Note_on_c, 0, 55, 100
6, 471116, Note_on_c, 0, 55, 0
6, 471120, Note_on_c, 0, 54, 100
6, 471356, Note_on_c, 0, 54, 0
6, 471360, Note_on_c, 0, 52, 100
6, 471596, Note_on_c, 0, 52, 0
6, 471596, Note_on_c, 0, 47, 0
6, 471600, Note_on_c, 0, 40, 100
6, 471600, Note_on_c, 0, 52, 100
6, 473036, Note_on_c, 0, 52, 0
6, 473036, Note_on_c, 0, 40, 0
6, 473040, Note_on_c, 0, 43, 100
6, 473040, Note_on_c, 0, 59, 100
6, 473276, Note_on_c, 0, 59, 0
6, 473280, Note_on_c, 0, 55, 100
6, 473516, Note_on_c, 0, 55, 0
6, 473516, Note_on_c, 0, 43, 0
6, 473520, Note_on_c, 0, 42, 100
6, 473520, Note_on_c, 0, 62, 100
6, 473996, Note_on_c, 0, 62, 0
6, 473996, Note_on_c, 0, 42, 0
6, 474000, Note_on_c, 0, 50, 100
6, 474000, Note_on_c, 0, 57, 100
6, 474236, Note_on_c, 0, 57, 0
6, 474240, Note_on_c, 0, 60, 100
6, 474476, Note_on_c, 0, 60, 0
6, 474476, Note_on_c, 0, 50, 0
6, 474480, Note_on_c, 0, 43, 100
6, 474480, Note_on_c, 0, 59, 100
6, 474956, Note_on_c, 0, 59, 0
6, 474956, Note_on_c, 0, 43, 0
6, 474960, Note_on_c, 0, 47, 100
6, 474960, Note_on_c, 0, 67, 100
6, 475196, Note_on_c, 0, 67, 0
6, 475200, Note_on_c, 0, 62, 100
6, 475436, Note_on_c, 0, 62, 0
6, 475436, Note_on_c, 0, 47, 0
6, 475440, Note_on_c, 0, 48, 100
6, 475440, Note_on_c, 0, 64, 100
6, 475916, Note_on_c, 0, 64, 0
6, 475916, Note_on_c, 0, 48, 0
6, 475920, Note_on_c, 0, 44, 100
6, 475920, Note_on_c, 0, 59, 100
6, 476156, Note_on_c, 0, 59, 0
6, 476160, Note_on_c, 0, 62, 100
6, 476396, Note_on_c, 0, 62, 0
6, 476396, Note_on_c, 0, 44, 0
6, 476400, Note_on_c, 0, 45, 100
6, 476400, Note_on_c, 0, 60, 100
6, 476876, Note_on_c, 0, 60, 0
6, 476876, Note_on_c, 0, 45, 0
6, 476880, Note_on_c, 0, 50, 100
6, 476880, Note_on_c, 0, 59, 100
6, 477116, Note_on_c, 0, 59, 0
6, 477120, Note_on_c, 0, 57, 100
6, 477356, Note_on_c, 0, 57, 0
6, 477356, Note_on_c, 0, 50, 0
6, 477360, Note_on_c, 0, 52, 100
6, 477360, Note_on_c, 0, 56, 100
6, 477836, Note_on_c, 0, 56, 0
6, 477836, Note_on_c, 0, 52, 0
6, 477840, Note_on_c, 0, 45, 100
6, 477840, Note_on_c, 0, 57, 100
6, 478076, Note_on_c, 0, 57, 0
6, 478080, Note_on_c, 0, 59, 100
6, 478316, Note_on_c, 0, 59, 0
6, 478316, Note_on_c, 0, 45, 0
6, 478320, Note_on_c, 0, 52, 100
6, 478320, Note_on_c, 0, 60, 100
6, 478796, Note_on_c, 0, 60, 0
6, 478796, Note_on_c, 0, 52, 0
6, 478800, Note_on_c, 0, 40, 100
6, 478800, Note_on_c, 0, 59, 100
6, 479036, Note_on_c, 0, 59, 0
6, 479040, Note_on_c, 0, 57, 100
6, 479276, Note_on_c, 0, 57, 0
6, 479276, Note_on_c, 0, 40, 0
6, 479280, Note_on_c, 0, 45, 100
6, 479280, Note_on_c, 0, 57, 100
6, 479516, Note_on_c, 0, 45, 0
6, 479520, Note_on_c, 0, 47, 100
6, 479756, Note_on_c, 0, 47, 0
6, 479760, Note_on_c, 0, 45, 100
6, 479996, Note_on_c, 0, 45, 0
6, 480000, Note_on_c, 0, 43, 100
6, 480236, Note_on_c, 0, 43, 0
6, 480240, Note_on_c, 0, 42, 100
6, 480716, Note_on_c, 0, 42, 0
6, 480716, Note_on_c, 0, 57, 0
6, 480720, Note_on_c, 0, 50, 100
6, 480720, Note_on_c, 0, 62, 100
6, 480956, Note_on_c, 0, 62, 0
6, 480960, Note_on_c, 0, 57, 100
6, 481196, Note_on_c, 0, 57, 0
6, 481196, Note_on_c, 0, 50, 0
6, 481200, Note_on_c, 0, 43, 100
6, 481200, Note_on_c, 0, 59, 100
6, 481676, Note_on_c, 0, 59, 0
6, 481676, Note_on_c, 0, 43, 0
6, 481680, Note_on_c, 0, 47, 100
6, 481680, Note_on_c, 0, 67, 100
6, 481916, Note_on_c, 0, 67, 0
6, 481920, Note_on_c, 0, 62, 100
6, 482156, Note_on_c, 0, 62, 0
6, 482156, Note_on_c, 0, 47, 0
6, 482160, Note_on_c, 0, 48, 100
6, 482160, Note_on_c, 0, 64, 100
6, 482636, Note_on_c, 0, 64, 0
6, 482636, Note_on_c, 0, 48, 0
6, 482640, Note_on_c, 0, 44, 100
6, 482640, Note_on_c, 0, 59, 100
6, 482876, Note_on_c, 0, 59, 0
6, 482880, Note_on_c, 0, 62, 100
6, 483116, Note_on_c, 0, 62, 0
6, 483116, Note_on_c, 0, 44, 0
6, 483120, Note_on_c, 0, 45, 100
6, 483120, Note_on_c, 0, 60, 100
6, 483596, Note_on_c, 0, 60, 0
6, 483596, Note_on_c, 0, 45, 0
6, 483600, Note_on_c, 0, 49, 100
6, 483600, Note_on_c, 0, 69, 100
6, 483836, Note_on_c, 0, 69, 0
6, 483840, Note_on_c, 0, 64, 100
6, 484076, Note_on_c, 0, 64, 0
6, 484076, Note_on_c, 0, 49, 0
6, 484080, Note_on_c, 0, 50, 100
6, 484080, Note_on_c, 0, 66, 100
6, 484556, Note_on_c, 0, 66, 0
6, 484556, Note_on_c, 0, 50, 0
6, 484560, Note_on_c, 0, 46, 100
6, 484560, Note_on_c, 0, 61, 100
6, 484796, Note_on_c, 0, 61, 0
6, 484800, Note_on_c, 0, 64, 100
6, 485036, Note_on_c, 0, 64, 0
6, 485036, Note_on_c, 0, 46, 0
6, 485040, Note_on_c, 0, 47, 100
6, 485040, Note_on_c, 0, 62, 100
6, 485516, Note_on_c, 0, 62, 0
6, 485516, Note_on_c, 0, 47, 0
6, 485520, Note_on_c, 0, 52, 100
6, 485520, Note_on_c, 0, 61, 100
6, 485756, Note_on_c, 0, 61, 0
6, 485760, Note_on_c, 0, 59, 100
6, 485996, Note_on_c, 0, 59, 0
6, 485996, Note_on_c, 0, 52, 0
6, 486000, Note_on_c, 0, 54, 100
6, 486000, Note_on_c, 0, 58, 100
6, 486036, Note_on_c, 0, 58, 0
6, 486040, Note_on_c, 0, 59, 100
6, 486076, Note_on_c, 0, 59, 0
6, 486080, Note_on_c, 0, 58, 100
6, 486116, Note_on_c, 0, 58, 0
6, 486120, Note_on_c, 0, 59, 100
6, 486156, Note_on_c, 0, 59, 0
6, 486160, Note_on_c, 0, 58, 100
6, 486196, Note_on_c, 0, 58, 0
6, 486200, Note_on_c, 0, 59, 100
6, 486236, Note_on_c, 0, 59, 0
6, 486240, Note_on_c, 0, 58, 100
6, 486476, Note_on_c, 0, 54, 0
6, 486480, Note_on_c, 0, 42, 100
6, 486716, Note_on_c, 0, 58, 0
6, 486720, Note_on_c, 0, 59, 100
6, 486956, Note_on_c, 0, 59, 0
6, 486956, Note_on_c, 0, 42, 0
6, 486960, Note_on_c, 0, 47, 100
6, 486960, Note_on_c, 0, 59, 100
6, 487196, Note_on_c, 0, 47, 0
6, 487200, Note_on_c, 0, 46, 100
6, 487436, Note_on_c, 0, 46, 0
6, 487440, Note_on_c, 0, 47, 100
6, 487676, Note_on_c, 0, 47, 0
6, 487680, Note_on_c, 0, 49, 100
6, 487916, Note_on_c, 0, 49, 0
6, 487920, Note_on_c, 0, 51, 100
6, 488396, Note_on_c, 0, 51, 0
6, 488396, Note_on_c, 0, 59, 0
6, 488400, Note_on_c, 0, 47, 100
6, 488400, Note_on_c, 0, 71, 100
6, 488636, Note_on_c, 0, 71, 0
6, 488640, Note_on_c, 0, 66, 100
6, 488876, Note_on_c, 0, 66, 0
6, 488876, Note_on_c, 0, 47, 0
6, 488880, Note_on_c, 0, 52, 100
6, 488880, Note_on_c, 0, 68, 100
6, 489356, Note_on_c, 0, 68, 0
6, 489356, Note_on_c, 0, 52, 0
6, 489360, Note_on_c, 0, 50, 100
6, 489360, Note_on_c, 0, 66, 100
6, 489596, Note_on_c, 0, 66, 0
6, 489600, Note_on_c, 0, 64, 100
6, 489836, Note_on_c, 0, 64, 0
6, 489836, Note_on_c, 0, 50, 0
6, 489840, Note_on_c, 0, 49, 100
6, 489840, Note_on_c, 0, 69, 100
6, 490316, Note_on_c, 0, 69, 0
6, 490316, Note_on_c, 0, 49, 0
6, 490320, Note_on_c, 0, 45, 100
6, 490320, Note_on_c, 0, 64, 100
6, 490556, Note_on_c, 0, 64, 0
6, 490560, Note_on_c, 0, 67, 100
6, 490796, Note_on_c, 0, 67, 0
6, 490796, Note_on_c, 0, 45, 0
6, 490800, Note_on_c, 0, 50, 100
6, 490800, Note_on_c, 0, 66, 100
6, 491276, Note_on_c, 0, 66, 0
6, 491276, Note_on_c, 0, 50, 0
6, 491280, Note_on_c, 0, 48, 100
6, 491280, Note_on_c, 0, 64, 100
6, 491516, Note_on_c, 0, 64, 0
6, 491520, Note_on_c, 0, 62, 100
6, 491756, Note_on_c, 0, 62, 0
6, 491756, Note_on_c, 0, 48, 0
6, 491760, Note_on_c, 0, 47, 100
6, 491760, Note_on_c, 0, 67, 100
6, 492236, Note_on_c, 0, 67, 0
6, 492236, Note_on_c, 0, 47, 0
6, 492240, Note_on_c, 0, 43, 100
6, 492240, Note_on_c, 0, 62, 100
6, 492476, Note_on_c, 0, 62, 0
6, 492480, Note_on_c, 0, 65, 100
6, 492716, Note_on_c, 0, 65, 0
6, 492716, Note_on_c, 0, 43, 0
6, 492720, Note_on_c, 0, 48, 100
6, 492720, Note_on_c, 0, 64, 100
6, 493196, Note_on_c, 0, 64, 0
6, 493196, Note_on_c, 0, 48, 0
6, 493200, Note_on_c, 0, 47, 100
6, 493200, Note_on_c, 0, 69, 100
6, 493436, Note_on_c, 0, 69, 0
6, 493440, Note_on_c, 0, 64, 100
6, 493676, Note_on_c, 0, 64, 0
6, 493676, Note_on_c, 0, 47, 0
6, 493680, Note_on_c, 0, 45, 100
6, 493680, Note_on_c, 0, 66, 100
6, 494156, Note_on_c, 0, 66, 0
6, 494156, Note_on_c, 0, 45, 0
6, 494160, Note_on_c, 0, 42, 100
6, 494160, Note_on_c, 0, 61, 100
6, 494396, Note_on_c, 0, 61, 0
6, 494400, Note_on_c, 0, 64, 100
6, 494636, Note_on_c, 0, 64, 0
6, 494636, Note_on_c, 0, 42, 0
6, 494640, Note_on_c, 0, 47, 100
6, 494640, Note_on_c, 0, 63, 100
6, 495116, Note_on_c, 0, 63, 0
6, 495120, Note_on_c, 0, 59, 100
6, 495356, Note_on_c, 0, 47, 0
6, 495360, Note_on_c, 0, 48, 100
6, 495596, Note_on_c, 0, 48, 0
6, 495600, Note_on_c, 0, 47, 100
6, 495836, Note_on_c, 0, 47, 0
6, 495840, Note_on_c, 0, 45, 100
6, 496076, Note_on_c, 0, 45, 0
6, 496076, Note_on_c, 0, 59, 0
6, 496080, Note_on_c, 0, 44, 100
6, 496080, Note_on_c, 0, 64, 100
6, 496316, Note_on_c, 0, 64, 0
6, 496320, Note_on_c, 0, 59, 100
6, 496556, Note_on_c, 0, 59, 0
6, 496556, Note_on_c, 0, 44, 0
6, 496560, Note_on_c, 0, 45, 100
6, 496560, Note_on_c, 0, 60, 100
6, 496796, Note_on_c, 0, 45, 0
6, 496800, Note_on_c, 0, 52, 100
6, 497036, Note_on_c, 0, 52, 0
6, 497036, Note_on_c, 0, 60, 0
6, 497040, Note_on_c, 0, 54, 100
6, 497040, Note_on_c, 0, 62, 100
6, 497276, Note_on_c, 0, 62, 0
6, 497280, Note_on_c, 0, 57, 100
6, 497516, Note_on_c, 0, 57, 0
6, 497516, Note_on_c, 0, 54, 0
6, 497520, Note_on_c, 0, 43, 100
6, 497520, Note_on_c, 0, 59, 100
6, 497756, Note_on_c, 0, 43, 0
6, 497760, Note_on_c, 0, 51, 100
6, 497996, Note_on_c, 0, 51, 0
6, 497996, Note_on_c, 0, 59, 0
6, 498000, Note_on_c, 0, 52, 100
6, 498000, Note_on_c, 0, 60, 100
6, 498236, Note_on_c, 0, 60, 0
6, 498240, Note_on_c, 0, 55, 100
6, 498476, Note_on_c, 0, 55, 0
6, 498476, Note_on_c, 0, 52, 0
6, 498480, Note_on_c, 0, 42, 100
6, 498480, Note_on_c, 0, 57, 100
6, 498716, Note_on_c, 0, 42, 0
6, 498720, Note_on_c, 0, 49, 100
6, 498956, Note_on_c, 0, 49, 0
6, 498956, Note_on_c, 0, 57, 0
6, 498960, Note_on_c, 0, 51, 100
6, 498960, Note_on_c, 0, 59, 100
6, 499196, Note_on_c, 0, 59, 0
6, 499200, Note_on_c, 0, 54, 100
6, 499436, Note_on_c, 0, 54, 0
6, 499436, Note_on_c, 0, 51, 0
6, 499440, Note_on_c, 0, 40, 100
6, 499440, Note_on_c, 0, 55, 100
6, 499916, Note_on_c, 0, 55, 0
6, 499916, Note_on_c, 0, 40, 0
6, 499920, Note_on_c, 0, 45, 100
6, 499920, Note_on_c, 0, 54, 100
6, 500156, Note_on_c, 0, 54, 0
6, 500160, Note_on_c, 0, 52, 100
6, 500396, Note_on_c, 0, 52, 0
6, 500396, Note_on_c, 0, 45, 0
6, 500400, Note_on_c, 0, 47, 100
6, 500400, Note_on_c, 0, 51, 100
6, 500876, Note_on_c, 0, 51, 0
6, 500876, Note_on_c, 0, 47, 0
6, 500880, Note_on_c, 0, 45, 100
6, 500880, Note_on_c, 0, 52, 100
6, 501116, Note_on_c, 0, 52, 0
6, 501120, Note_on_c, 0, 54, 100
6, 501356, Note_on_c, 0, 54, 0
6, 501356, Note_on_c, 0, 45, 0
6, 501360, Note_on_c, 0, 47, 100
6, 501360, Note_on_c, 0, 55, 100
6, 501836, Note_on_c, 0, 55, 0
6, 501840, Note_on_c, 0, 54, 100
6, 502076, Note_on_c, 0, 54, 0
6, 502080, Note_on_c, 0, 52, 100
6, 502316, Note_on_c, 0, 52, 0
6, 502316, Note_on_c, 0, 47, 0
6, 502320, Note_on_c, 0, 40, 100
6, 502320, Note_on_c, 0, 52, 100
6, 503756, Note_on_c, 0, 52, 0
6, 503756, Note_on_c, 0, 40, 0
6, 503756, End_track
7, 0, Start_track
7, 0, MIDI_port, 0
7, 0, Title_t, "Gigue   "
7, 0, Program_c, 0, 24
7, 0, Control_c, 0, 7, 100
7, 0, Control_c, 0, 10, 64
7, 504360, Note_on_c, 0, 52, 100
7, 504476, Note_on_c, 0, 52, 0
7, 504480, Note_on_c, 0, 50, 100
7, 504596, Note_on_c, 0, 50, 0
7, 504600, Note_on_c, 0, 48, 100
7, 504716, Note_on_c, 0, 48, 0
7, 504720, Note_on_c, 0, 47, 100
7, 504836, Note_on_c, 0, 47, 0
7, 504840, Note_on_c, 0, 45, 100
7, 504956, Note_on_c, 0, 45, 0
7, 504960, Note_on_c, 0, 43, 100
7, 505200, Note_on_c, 0, 52, 100
7, 505436, Note_on_c, 0, 52, 0
7, 505436, Note_on_c, 0, 43, 0
7, 505440, Note_on_c, 0, 54, 100
7, 505676, Note_on_c, 0, 54, 0
7, 505680, Note_on_c, 0, 40, 100
7, 505680, Note_on_c, 0, 55, 100
7, 505680, Note_on_c, 0, 55, 100
7, 505796, Note_on_c, 0, 55, 0
7, 505796, Note_on_c, 0, 55, 0
7, 505800, Note_on_c, 0, 59, 100
7, 505916, Note_on_c, 0, 59, 0
7, 505916, Note_on_c, 0, 40, 0
7, 505920, Note_on_c, 0, 42, 100
7, 505920, Note_on_c, 0, 55, 100
7, 506036, Note_on_c, 0, 55, 0
7, 506040, Note_on_c, 0, 52, 100
7, 506156, Note_on_c, 0, 52, 0
7, 506156, Note_on_c, 0, 42, 0
7, 506160, Note_on_c, 0, 43, 100
7, 506160, Note_on_c, 0, 64, 100
7, 506276, Note_on_c, 0, 64, 0
7, 506280, Note_on_c, 0, 59, 100
7, 506396, Note_on_c, 0, 59, 0
7, 506396, Note_on_c, 0, 43, 0
7, 506400, Note_on_c, 0, 45, 100
7, 506400, Note_on_c, 0, 60, 100
7, 506516, Note_on_c, 0, 60, 0
7, 506520, Note_on_c, 0, 59, 100
7, 506636, Note_on_c, 0, 59, 0
7, 506636, Note_on_c, 0, 45, 0
7, 506640, Note_on_c, 0, 47, 100
7, 506640, Note_on_c, 0, 57, 100
7, 506756, Note_on_c, 0, 57, 0
7, 506760, Note_on_c, 0, 55, 100
7, 506876, Note_on_c, 0, 55, 0
7, 506876, Note_on_c, 0, 47, 0
7, 506880, Note_on_c, 0, 48, 100
7, 506880, Note_on_c, 0, 54, 100
7, 506996, Note_on_c, 0, 54, 0
7, 507000, Note_on_c, 0, 52, 100
7, 507116, Note_on_c, 0, 52, 0
7, 507116, Note_on_c, 0, 48, 0
7, 507120, Note_on_c, 0, 47, 100
7, 507120, Note_on_c, 0, 51, 100
7, 507236, Note_on_c, 0, 51, 0
7, 507240, Note_on_c, 0, 66, 100
7, 507356, Note_on_c, 0, 66, 0
7, 507356, Note_on_c, 0, 47, 0
7, 507360, Note_on_c, 0, 49, 100
7, 507360, Note_on_c, 0, 63, 100
7, 507476, Note_on_c, 0, 63, 0
7, 507480, Note_on_c, 0, 59, 100
7, 507596, Note_on_c, 0, 59, 0
7, 507596, Note_on_c, 0, 49, 0
7, 507600, Note_on_c, 0, 51, 100
7, 507600, Note_on_c, 0, 71, 100
7, 507716, Note_on_c, 0, 71, 0
7, 507720, Note_on_c, 0, 66, 100
7, 507836, Note_on_c, 0, 66, 0
7, 507836, Note_on_c, 0, 51, 0
7, 507840, Note_on_c, 0, 52, 100
7, 507840, Note_on_c, 0, 67, 100
7, 507956, Note_on_c, 0, 67, 0
7, 507960, Note_on_c, 0, 66, 100
7, 508076, Note_on_c, 0, 66, 0
7, 508076, Note_on_c, 0, 52, 0
7, 508080, Note_on_c, 0, 54, 100
7, 508080, Note_on_c, 0, 64, 100
7, 508196, Note_on_c, 0, 64, 0
7, 508200, Note_on_c, 0, 62, 100
7, 508316, Note_on_c, 0, 62, 0
7, 508316, Note_on_c, 0, 54, 0
7, 508320, Note_on_c, 0, 55, 100
7, 508320, Note_on_c, 0, 60, 100
7, 508436, Note_on_c, 0, 60, 0
7, 508440, Note_on_c, 0, 59, 100
7, 508556, Note_on_c, 0, 59, 0
7, 508556, Note_on_c, 0, 55, 0
7, 508560, Note_on_c, 0, 57, 100
7, 508560, Note_on_c, 0, 60, 100
7, 508676, Note_on_c, 0, 60, 0
7, 508676, Note_on_c, 0, 57, 0
7, 508680, Note_on_c, 0, 59, 100
7, 508680, Note_on_c, 0, 62, 100
7, 508796, Note_on_c, 0, 62, 0
7, 508796, Note_on_c, 0, 59, 0
7, 508800, Note_on_c, 0, 57, 100
7, 508800, Note_on_c, 0, 60, 100
7, 508916, Note_on_c, 0, 60, 0
7, 508916, Note_on_c, 0, 57, 0
7, 508920, Note_on_c, 0, 55, 100
7, 508920, Note_on_c, 0, 59, 100
7, 509036, Note_on_c, 0, 59, 0
7, 509036, Note_on_c, 0, 55, 0
7, 509040, Note_on_c, 0, 54, 100
7, 509040, Note_on_c, 0, 57, 100
7, 509156, Note_on_c, 0, 57, 0
7, 509156, Note_on_c, 0, 54, 0
7, 509160, Note_on_c, 0, 52, 100
7, 509160, Note_on_c, 0, 55, 100
7, 509276, Note_on_c, 0, 55, 0
7, 509276, Note_on_c, 0, 52, 0
7, 509280, Note_on_c, 0, 54, 100
7, 509280, Note_on_c, 0, 57, 100
7, 509396, Note_on_c, 0, 57, 0
7, 509396, Note_on_c, 0, 54, 0
7, 509400, Note_on_c, 0, 55, 100
7, 509400, Note_on_c, 0, 59, 100
7, 509516, Note_on_c, 0, 59, 0
7, 509516, Note_on_c, 0, 55, 0
7, 509520, Note_on_c, 0, 57, 100
7, 509520, Note_on_c, 0, 60, 100
7, 509636, Note_on_c, 0, 60, 0
7, 509636, Note_on_c, 0, 57, 0
7, 509640, Note_on_c, 0, 55, 100
7, 509640, Note_on_c, 0, 59, 100
7, 509756, Note_on_c, 0, 59, 0
7, 509756, Note_on_c, 0, 55, 0
7, 509760, Note_on_c, 0, 54, 100
7, 509760, Note_on_c, 0, 57, 100
7, 509876, Note_on_c, 0, 57, 0
7, 509876, Note_on_c, 0, 54, 0
7, 509880, Note_on_c, 0, 52, 100
7, 509880, Note_on_c, 0, 55, 100
7, 509996, Note_on_c, 0, 55, 0
7, 509996, Note_on_c, 0, 52, 0
7, 510000, Note_on_c, 0, 51, 100
7, 510000, Note_on_c, 0, 54, 100
7, 510116, Note_on_c, 0, 51, 0
7, 510120, Note_on_c, 0, 48, 100
7, 510236, Note_on_c, 0, 48, 0
7, 510240, Note_on_c, 0, 47, 100
7, 510356, Note_on_c, 0, 47, 0
7, 510360, Note_on_c, 0, 45, 100
7, 510476, Note_on_c, 0, 45, 0
7, 510476, Note_on_c, 0, 54, 0
7, 510480, Note_on_c, 0, 43, 100
7, 510480, Note_on_c, 0, 54, 100
7, 510596, Note_on_c, 0, 43, 0
7, 510600, Note_on_c, 0, 42, 100
7, 510716, Note_on_c, 0, 42, 0
7, 510716, Note_on_c, 0, 54, 0
7, 510720, Note_on_c, 0, 40, 100
7, 510720, Note_on_c, 0, 52, 100
7, 510720, Note_on_c, 0, 55, 100
7, 510836, Note_on_c, 0, 40, 0
7, 510840, Note_on_c, 0, 47, 100
7, 510956, Note_on_c, 0, 47, 0
7, 510960, Note_on_c, 0, 43, 100
7, 511076, Note_on_c, 0, 43, 0
7, 511080, Note_on_c, 0, 40, 100
7, 511196, Note_on_c, 0, 40, 0
7, 511196, Note_on_c, 0, 55, 0
7, 511196, Note_on_c, 0, 52, 0
7, 511200, Note_on_c, 0, 52, 100
7, 511200, Note_on_c, 0, 56, 100
7, 511316, Note_on_c, 0, 52, 0
7, 511320, Note_on_c, 0, 47, 100
7, 511436, Note_on_c, 0, 47, 0
7, 511436, Note_on_c, 0, 56, 0
7, 511440, Note_on_c, 0, 48, 100
7, 511440, Note_on_c, 0, 57, 100
7, 511556, Note_on_c, 0, 48, 0
7, 511560, Note_on_c, 0, 52, 100
7, 511676, Note_on_c, 0, 52, 0
7, 511680, Note_on_c, 0, 48, 100
7, 511796, Note_on_c, 0, 48, 0
7, 511800, Note_on_c, 0, 46, 100
7, 511916, Note_on_c, 0, 46, 0
7, 511916, Note_on_c, 0, 57, 0
7, 511920, Note_on_c, 0, 54, 100
7, 511920, Note_on_c, 0, 58, 100
7, 512036, Note_on_c, 0, 54, 0
7, 512040, Note_on_c, 0, 49, 100
7, 512156, Note_on_c, 0, 49, 0
7, 512156, Note_on_c, 0, 58, 0
7, 512160, Note_on_c, 0, 50, 100
7, 512160, Note_on_c, 0, 59, 100
7, 512276, Note_on_c, 0, 59, 0
7, 512280, Note_on_c, 0, 60, 100
7, 512396, Note_on_c, 0, 60, 0
7, 512396, Note_on_c, 0, 50, 0
7, 512400, Note_on_c, 0, 49, 100
7, 512400, Note_on_c, 0, 59, 100
7, 512516, Note_on_c, 0, 59, 0
7, 512520, Note_on_c, 0, 57, 100
7, 512636, Note_on_c, 0, 57, 0
7, 512636, Note_on_c, 0, 49, 0
7, 512640, Note_on_c, 0, 51, 100
7, 512640, Note_on_c, 0, 55, 100
7, 512756, Note_on_c, 0, 55, 0
7, 512760, Note_on_c, 0, 54, 100
7, 512876, Note_on_c, 0, 54, 0
7, 512876, Note_on_c, 0, 51, 0
7, 512880, Note_on_c, 0, 52, 100
7, 512880, Note_on_c, 0, 55, 100
7, 512996, Note_on_c, 0, 55, 0
7, 513000, Note_on_c, 0, 57, 100
7, 513116, Note_on_c, 0, 57, 0
7, 513116, Note_on_c, 0, 52, 0
7, 513120, Note_on_c, 0, 55, 100
7, 513120, Note_on_c, 0, 64, 100
7, 513236, Note_on_c, 0, 55, 0
7, 513240, Note_on_c, 0, 54, 100
7, 513356, Note_on_c, 0, 54, 0
7, 513356, Note_on_c, 0, 64, 0
7, 513360, Note_on_c, 0, 52, 100
7, 513360, Note_on_c, 0, 66, 100
7, 513476, Note_on_c, 0, 52, 0
7, 513480, Note_on_c, 0, 51, 100
7, 513596, Note_on_c, 0, 51, 0
7, 513596, Note_on_c, 0, 66, 0
7, 513600, Note_on_c, 0, 52, 100
7, 513600, Note_on_c, 0, 67, 100
7, 513716, Note_on_c, 0, 67, 0
7, 513720, Note_on_c, 0, 69, 100
7, 513836, Note_on_c, 0, 69, 0
7, 513836, Note_on_c, 0, 52, 0
7, 513840, Note_on_c, 0, 54, 100
7, 513840, Note_on_c, 0, 67, 100
7, 513956, Note_on_c, 0, 67, 0
7, 513960, Note_on_c, 0, 66, 100
7, 514076, Note_on_c, 0, 66, 0
7, 514076, Note_on_c, 0, 54, 0
7, 514080, Note_on_c, 0, 55, 100
7, 514080, Note_on_c, 0, 64, 100
7, 514196, Note_on_c, 0, 64, 0
7, 514200, Note_on_c, 0, 62, 100
7, 514316, Note_on_c, 0, 62, 0
7, 514316, Note_on_c, 0, 55, 0
7, 514320, Note_on_c, 0, 57, 100
7, 514320, Note_on_c, 0, 61, 100
7, 514436, Note_on_c, 0, 57, 0
7, 514440, Note_on_c, 0, 59, 100
7, 514556, Note_on_c, 0, 59, 0
7, 514556, Note_on_c, 0, 61, 0
7, 514560, Note_on_c, 0, 57, 100
7, 514560, Note_on_c, 0, 62, 100
7, 514676, Note_on_c, 0, 57, 0
7, 514680, Note_on_c, 0, 55, 100
7, 514796, Note_on_c, 0, 55, 0
7, 514796, Note_on_c, 0, 62, 0
7, 514800, Note_on_c, 0, 54, 100
7, 514800, Note_on_c, 0, 64, 100
7, 514916, Note_on_c, 0, 54, 0
7, 514920, Note_on_c, 0, 52, 100
7, 515036, Note_on_c, 0, 52, 0
7, 515036, Note_on_c, 0, 64, 0
7, 515040, Note_on_c, 0, 50, 100
7, 515040, Note_on_c, 0, 66, 100
7, 515156, Note_on_c, 0, 66, 0
7, 515160, Note_on_c, 0, 67, 100
7, 515276, Note_on_c, 0, 67, 0
7, 515276, Note_on_c, 0, 50, 0
7, 515280, Note_on_c, 0, 52, 100
7, 515280, Note_on_c, 0, 66, 100
7, 515396, Note_on_c, 0, 66, 0
7, 515400, Note_on_c, 0, 64, 100
7, 515516, Note_on_c, 0, 64, 0
7, 515516, Note_on_c, 0, 52, 0
7, 515520, Note_on_c, 0, 54, 100
7, 515520, Note_on_c, 0, 62, 100
7, 515636, Note_on_c, 0, 62, 0
7, 515640, Note_on_c, 0, 60, 100
7, 515756, Note_on_c, 0, 60, 0
7, 515756, Note_on_c, 0, 54, 0
7, 515760, Note_on_c, 0, 55, 100
7, 515760, Note_on_c, 0, 59, 100
7, 515876, Note_on_c, 0, 59, 0
7, 515880, Note_on_c, 0, 62, 100
7, 515996, Note_on_c, 0, 62, 0
7, 516000, Note_on_c, 0, 59, 100
7, 516116, Note_on_c, 0, 59, 0
7, 516116, Note_on_c, 0, 55, 0
7, 516120, Note_on_c, 0, 55, 100
7, 516236, Note_on_c, 0, 55, 0
7, 516240, Note_on_c, 0, 59, 100
7, 516240, Note_on_c, 0, 67, 100
7, 516356, Note_on_c, 0, 67, 0
7, 516360, Note_on_c, 0, 62, 100
7, 516476, Note_on_c, 0, 62, 0
7, 516476, Note_on_c, 0, 59, 0
7, 516480, Note_on_c, 0, 60, 101
7, 516480, Note_on_c, 0, 64, 100
7, 516600, Note_on_c, 0, 55, 100
7, 516716, Note_on_c, 0, 55, 0
7, 516720, Note_on_c, 0, 52, 100
7, 516836, Note_on_c, 0, 52, 0
7, 516840, Note_on_c, 0, 48, 100
7, 516956, Note_on_c, 0, 48, 0
7, 516956, Note_on_c, 0, 64, 0
7, 516956, Note_on_c, 0, 60, 0
7, 516960, Note_on_c, 0, 60, 100
7, 517076, Note_on_c, 0, 60, 0
7, 517080, Note_on_c, 0, 55, 100
7, 517196, Note_on_c, 0, 55, 0
7, 517200, Note_on_c, 0, 45, 101
7, 517320, Note_on_c, 0, 64, 100
7, 517436, Note_on_c, 0, 64, 0
7, 517440, Note_on_c, 0, 61, 100
7, 517556, Note_on_c, 0, 61, 0
7, 517560, Note_on_c, 0, 57, 100
7, 517676, Note_on_c, 0, 57, 0
7, 517676, Note_on_c, 0, 45, 0
7, 517680, Note_on_c, 0, 49, 101
7, 517680, Note_on_c, 0, 69, 100
7, 517796, Note_on_c, 0, 69, 0
7, 517800, Note_on_c, 0, 64, 100
7, 517916, Note_on_c, 0, 64, 0
7, 517916, Note_on_c, 0, 49, 0
7, 517920, Note_on_c, 0, 62, 101
7, 517920, Note_on_c, 0, 66, 101
7, 518040, Note_on_c, 0, 57, 101
7, 518156, Note_on_c, 0, 57, 0
7, 518160, Note_on_c, 0, 54, 101
7, 518276, Note_on_c, 0, 54, 0
7, 518280, Note_on_c, 0, 50, 101
7, 518396, Note_on_c, 0, 50, 0
7, 518396, Note_on_c, 0, 66, 0
7, 518396, Note_on_c, 0, 62, 0
7, 518400, Note_on_c, 0, 62, 101
7, 518516, Note_on_c, 0, 62, 0
7, 518520, Note_on_c, 0, 57, 101
7, 518636, Note_on_c, 0, 57, 0
7, 518640, Note_on_c, 0, 47, 101
7, 518640, Note_on_c, 0, 51, 101
7, 518756, Note_on_c, 0, 51, 0
7, 518760, Note_on_c, 0, 62, 101
7, 518876, Note_on_c, 0, 62, 0
7, 518876, Note_on_c, 0, 47, 0
7, 518880, Note_on_c, 0, 45, 101
7, 518880, Note_on_c, 0, 59, 101
7, 518996, Note_on_c, 0, 59, 0
7, 519000, Note_on_c, 0, 55, 101
7, 519000, Note_on_c, 0, 55, 101
7, 519116, Note_on_c, 0, 55, 0
7, 519116, Note_on_c, 0, 55, 0
7, 519116, Note_on_c, 0, 45, 0
7, 519120, Note_on_c, 0, 47, 101
7, 519120, Note_on_c, 0, 47, 101
7, 519120, Note_on_c, 0, 67, 101
7, 519236, Note_on_c, 0, 67, 0
7, 519240, Note_on_c, 0, 62, 101
7, 519356, Note_on_c, 0, 62, 0
7, 519356, Note_on_c, 0, 47, 0
7, 519356, Note_on_c, 0, 47, 0
7, 519360, Note_on_c, 0, 48, 101
7, 519360, Note_on_c, 0, 64, 101
7, 519476, Note_on_c, 0, 64, 0
7, 519480, Note_on_c, 0, 62, 101
7, 519596, Note_on_c, 0, 62, 0
7, 519596, Note_on_c, 0, 48, 0
7, 519600, Note_on_c, 0, 50, 101
7, 519600, Note_on_c, 0, 60, 101
7, 519716, Note_on_c, 0, 60, 0
7, 519720, Note_on_c, 0, 59, 101
7, 519836, Note_on_c, 0, 59, 0
7, 519836, Note_on_c, 0, 50, 0
7, 519840, Note_on_c, 0, 52, 101
7, 519840, Note_on_c, 0, 57, 101
7, 519956, Note_on_c, 0, 57, 0
7, 519960, Note_on_c, 0, 55, 101
7, 520076, Note_on_c, 0, 55, 0
7, 520076, Note_on_c, 0, 52, 0
7, 520080, Note_on_c, 0, 50, 101
7, 520080, Note_on_c, 0, 54, 101
7, 520196, Note_on_c, 0, 50, 0
7, 520200, Note_on_c, 0, 52, 101
7, 520316, Note_on_c, 0, 52, 0
7, 520316, Note_on_c, 0, 54, 0
7, 520320, Note_on_c, 0, 50, 101
7, 520320, Note_on_c, 0, 55, 101
7, 520436, Note_on_c, 0, 50, 0
7, 520440, Note_on_c, 0, 48, 101
7, 520556, Note_on_c, 0, 48, 0
7, 520556, Note_on_c, 0, 55, 0
7, 520560, Note_on_c, 0, 47, 101
7, 520560, Note_on_c, 0, 57, 101
7, 520676, Note_on_c, 0, 47, 0
7, 520680, Note_on_c, 0, 45, 101
7, 520796, Note_on_c, 0, 45, 0
7, 520796, Note_on_c, 0, 57, 0
7, 520800, Note_on_c, 0, 43, 101
7, 520800, Note_on_c, 0, 55, 101
7, 520800, Note_on_c, 0, 59, 101
7, 520916, Note_on_c, 0, 55, 0
7, 520920, Note_on_c, 0, 57, 101
7, 521036, Note_on_c, 0, 57, 0
7, 521036, Note_on_c, 0, 59, 0
7, 521036, Note_on_c, 0, 43, 0
7, 521040, Note_on_c, 0, 55, 101
7, 521040, Note_on_c, 0, 60, 101
7, 521156, Note_on_c, 0, 55, 0
7, 521160, Note_on_c, 0, 53, 101
7, 521276, Note_on_c, 0, 53, 0
7, 521276, Note_on_c, 0, 60, 0
7, 521280, Note_on_c, 0, 52, 101
7, 521280, Note_on_c, 0, 62, 101
7, 521396, Note_on_c, 0, 52, 0
7, 521400, Note_on_c, 0, 50, 101
7, 521516, Note_on_c, 0, 50, 0
7, 521516, Note_on_c, 0, 62, 0
7, 521520, Note_on_c, 0, 48, 101
7, 521520, Note_on_c, 0, 60, 101
7, 521520, Note_on_c, 0, 64, 101
7, 521636, Note_on_c, 0, 64, 0
7, 521636, Note_on_c, 0, 60, 0
7, 521640, Note_on_c, 0, 67, 101
7, 521756, Note_on_c, 0, 67, 0
7, 521756, Note_on_c, 0, 48, 0
7, 521760, Note_on_c, 0, 50, 101
7, 521760, Note_on_c, 0, 72, 101
7, 521876, Note_on_c, 0, 72, 0
7, 521880, Note_on_c, 0, 71, 101
7, 521996, Note_on_c, 0, 71, 0
7, 521996, Note_on_c, 0, 50, 0
7, 522000, Note_on_c, 0, 52, 101
7, 522000, Note_on_c, 0, 69, 101
7, 522116, Note_on_c, 0, 69, 0
7, 522120, Note_on_c, 0, 67, 101
7, 522236, Note_on_c, 0, 67, 0
7, 522236, Note_on_c, 0, 52, 0
7, 522240, Note_on_c, 0, 50, 101
7, 522240, Note_on_c, 0, 66, 101
7, 522356, Note_on_c, 0, 66, 0
7, 522360, Note_on_c, 0, 67, 101
7, 522476, Note_on_c, 0, 67, 0
7, 522476, Note_on_c, 0, 50, 0
7, 522480, Note_on_c, 0, 40, 101
7, 522480, Note_on_c, 0, 66, 101
7, 522596, Note_on_c, 0, 66, 0
7, 522600, Note_on_c, 0, 64, 101
7, 522716, Note_on_c, 0, 64, 0
7, 522716, Note_on_c, 0, 40, 0
7, 522720, Note_on_c, 0, 42, 101
7, 522720, Note_on_c, 0, 62, 101
7, 522836, Note_on_c, 0, 62, 0
7, 522840, Note_on_c, 0, 60, 101
7, 522956, Note_on_c, 0, 60, 0
7, 522956, Note_on_c, 0, 42, 0
7, 522960, Note_on_c, 0, 43, 101
7, 522960, Note_on_c, 0, 59, 101
7, 523076, Note_on_c, 0, 43, 0
7, 523080, Note_on_c, 0, 47, 101
7, 523196, Note_on_c, 0, 47, 0
7, 523200, Note_on_c, 0, 43, 101
7, 523316, Note_on_c, 0, 43, 0
7, 523320, Note_on_c, 0, 40, 101
7, 523436, Note_on_c, 0, 40, 0
7, 523436, Note_on_c, 0, 59, 0
7, 523440, Note_on_c, 0, 52, 101
7, 523440, Note_on_c, 0, 55, 101
7, 523440, Note_on_c, 0, 59, 101
7, 523556, Note_on_c, 0, 52, 0
7, 523560, Note_on_c, 0, 47, 101
7, 523676, Note_on_c, 0, 47, 0
7, 523676, Note_on_c, 0, 59, 0
7, 523676, Note_on_c, 0, 55, 0
7, 523680, Note_on_c, 0, 48, 101
7, 523680, Note_on_c, 0, 57, 101
7, 523796, Note_on_c, 0, 48, 0
7, 523800, Note_on_c, 0, 52, 101
7, 523916, Note_on_c, 0, 52, 0
7, 523920, Note_on_c, 0, 48, 101
7, 524036, Note_on_c, 0, 48, 0
7, 524040, Note_on_c, 0, 45, 101
7, 524156, Note_on_c, 0, 45, 0
7, 524156, Note_on_c, 0, 57, 0
7, 524160, Note_on_c, 0, 50, 101
7, 524160, Note_on_c, 0, 54, 101
7, 524160, Note_on_c, 0, 57, 101
7, 524276, Note_on_c, 0, 50, 0
7, 524280, Note_on_c, 0, 50, 101
7, 524396, Note_on_c, 0, 50, 0
7, 524396, Note_on_c, 0, 57, 0
7, 524396, Note_on_c, 0, 54, 0
7, 524400, Note_on_c, 0, 43, 101
7, 524400, Note_on_c, 0, 55, 101
7, 524516, Note_on_c, 0, 55, 0
7, 524520, Note_on_c, 0, 59, 101
7, 524636, Note_on_c, 0, 59, 0
7, 524640, Note_on_c, 0, 57, 101
7, 524756, Note_on_c, 0, 57, 0
7, 524760, Note_on_c, 0, 55, 101
7, 524876, Note_on_c, 0, 55, 0
7, 524876, Note_on_c, 0, 43, 0
7, 524880, Note_on_c, 0, 43, 101
7, 524880, Note_on_c, 0, 54, 101
7, 524996, Note_on_c, 0, 54, 0
7, 525000, Note_on_c, 0, 52, 101
7, 525116, Note_on_c, 0, 52, 0
7, 525116, Note_on_c, 0, 43, 0
7, 525120, Note_on_c, 0, 45, 101
7, 525120, Note_on_c, 0, 60, 101
7, 525236, Note_on_c, 0, 60, 0
7, 525240, Note_on_c, 0, 59, 101
7, 525356, Note_on_c, 0, 59, 0
7, 525356, Note_on_c, 0, 45, 0
7, 525360, Note_on_c, 0, 47, 101
7, 525360, Note_on_c, 0, 57, 101
7, 525476, Note_on_c, 0, 57, 0
7, 525480, Note_on_c, 0, 55, 101
7, 525596, Note_on_c, 0, 55, 0
7, 525596, Note_on_c, 0, 47, 0
7, 525600, Note_on_c, 0, 48, 101
7, 525600, Note_on_c, 0, 54, 101
7, 525716, Note_on_c, 0, 54, 0
7, 525720, Note_on_c, 0, 52, 101
7, 525836, Note_on_c, 0, 52, 0
7, 525836, Note_on_c, 0, 48, 0
7, 525840, Note_on_c, 0, 47, 101
7, 525840, Note_on_c, 0, 47, 101
7, 525840, Note_on_c, 0, 47, 101
7, 525840, Note_on_c, 0, 51, 101
7, 525956, Note_on_c, 0, 51, 0
7, 525960, Note_on_c, 0, 66, 101
7, 526076, Note_on_c, 0, 66, 0
7, 526076, Note_on_c, 0, 47, 0
7, 526076, Note_on_c, 0, 47, 0
7, 526076, Note_on_c, 0, 47, 0
7, 526080, Note_on_c, 0, 49, 101
7, 526080, Note_on_c, 0, 64, 101
7, 526196, Note_on_c, 0, 64, 0
7, 526200, Note_on_c, 0, 63, 101
7, 526316, Note_on_c, 0, 63, 0
7, 526316, Note_on_c, 0, 49, 0
7, 526320, Note_on_c, 0, 51, 101
7, 526320, Note_on_c, 0, 61, 101
7, 526436, Note_on_c, 0, 61, 0
7, 526440, Note_on_c, 0, 59, 101
7, 526556, Note_on_c, 0, 59, 0
7, 526556, Note_on_c, 0, 51, 0
7, 526560, Note_on_c, 0, 52, 101
7, 526560, Note_on_c, 0, 67, 101
7, 526676, Note_on_c, 0, 67, 0
7, 526680, Note_on_c, 0, 66, 101
7, 526796, Note_on_c, 0, 66, 0
7, 526796, Note_on_c, 0, 52, 0
7, 526800, Note_on_c, 0, 54, 101
7, 526800, Note_on_c, 0, 64, 101
7, 526916, Note_on_c, 0, 64, 0
7, 526920, Note_on_c, 0, 62, 101
7, 527036, Note_on_c, 0, 62, 0
7, 527036, Note_on_c, 0, 54, 0
7, 527040, Note_on_c, 0, 55, 101
7, 527040, Note_on_c, 0, 60, 101
7, 527156, Note_on_c, 0, 60, 0
7, 527160, Note_on_c, 0, 59, 101
7, 527276, Note_on_c, 0, 59, 0
7, 527276, Note_on_c, 0, 55, 0
7, 527280, Note_on_c, 0, 54, 101
7, 527280, Note_on_c, 0, 58, 101
7, 527396, Note_on_c, 0, 58, 0
7, 527400, Note_on_c, 0, 61, 101
7, 527516, Note_on_c, 0, 61, 0
7, 527520, Note_on_c, 0, 58, 101
7, 527636, Note_on_c, 0, 58, 0
7, 527636, Note_on_c, 0, 54, 0
7, 527640, Note_on_c, 0, 54, 101
7, 527756, Note_on_c, 0, 54, 0
7, 527760, Note_on_c, 0, 58, 101
7, 527760, Note_on_c, 0, 66, 101
7, 527876, Note_on_c, 0, 66, 0
7, 527880, Note_on_c, 0, 61, 101
7, 527996, Note_on_c, 0, 61, 0
7, 527996, Note_on_c, 0, 58, 0
7, 528000, Note_on_c, 0, 59, 101
7, 528000, Note_on_c, 0, 62, 101
7, 528116, Note_on_c, 0, 59, 0
7, 528120, Note_on_c, 0, 54, 101
7, 528236, Note_on_c, 0, 54, 0
7, 528240, Note_on_c, 0, 50, 101
7, 528356, Note_on_c, 0, 50, 0
7, 528360, Note_on_c, 0, 47, 101
7, 528476, Note_on_c, 0, 47, 0
7, 528476, Note_on_c, 0, 62, 0
7, 528480, Note_on_c, 0, 59, 101
7, 528480, Note_on_c, 0, 63, 101
7, 528596, Note_on_c, 0, 59, 0
7, 528600, Note_on_c, 0, 54, 101
7, 528716, Note_on_c, 0, 54, 0
7, 528716, Note_on_c, 0, 63, 0
7, 528720, Note_on_c, 0, 55, 101
7, 528720, Note_on_c, 0, 59, 101
7, 528720, Note_on_c, 0, 64, 101
7, 528836, Note_on_c, 0, 64, 0
7, 528836, Note_on_c, 0, 59, 0
7, 528836, Note_on_c, 0, 55, 0
7, 528840, Note_on_c, 0, 54, 101
7, 528840, Note_on_c, 0, 63, 101
7, 528956, Note_on_c, 0, 63, 0
7, 528956, Note_on_c, 0, 54, 0
7, 528960, Note_on_c, 0, 55, 101
7, 528960, Note_on_c, 0, 59, 101
7, 528960, Note_on_c, 0, 64, 101
7, 529076, Note_on_c, 0, 64, 0
7, 529076, Note_on_c, 0, 59, 0
7, 529076, Note_on_c, 0, 55, 0
7, 529080, Note_on_c, 0, 54, 101
7, 529080, Note_on_c, 0, 63, 101
7, 529196, Note_on_c, 0, 63, 0
7, 529196, Note_on_c, 0, 54, 0
7, 529200, Note_on_c, 0, 55, 101
7, 529200, Note_on_c, 0, 59, 101
7, 529200, Note_on_c, 0, 64, 101
7, 529316, Note_on_c, 0, 64, 0
7, 529316, Note_on_c, 0, 59, 0
7, 529316, Note_on_c, 0, 55, 0
7, 529320, Note_on_c, 0, 54, 101
7, 529320, Note_on_c, 0, 66, 101
7, 529436, Note_on_c, 0, 66, 0
7, 529436, Note_on_c, 0, 54, 0
7, 529440, Note_on_c, 0, 52, 101
7, 529440, Note_on_c, 0, 59, 101
7, 529440, Note_on_c, 0, 67, 101
7, 529676, Note_on_c, 0, 67, 0
7, 529676, Note_on_c, 0, 52, 0
7, 529680, Note_on_c, 0, 54, 101
7, 529680, Note_on_c, 0, 61, 101
7, 529916, Note_on_c, 0, 54, 0
7, 529916, Note_on_c, 0, 59, 0
7, 529920, Note_on_c, 0, 42, 101
7, 529920, Note_on_c, 0, 58, 101
7, 530036, Note_on_c, 0, 61, 0
7, 530040, Note_on_c, 0, 59, 101
7, 530156, Note_on_c, 0, 59, 0
7, 530156, Note_on_c, 0, 58, 0
7, 530156, Note_on_c, 0, 42, 0
7, 530160, Note_on_c, 0, 47, 101
7, 530160, Note_on_c, 0, 59, 101
7, 530276, Note_on_c, 0, 59, 0
7, 530280, Note_on_c, 0, 54, 101
7, 530396, Note_on_c, 0, 54, 0
7, 530396, Note_on_c, 0, 47, 0
7, 530400, Note_on_c, 0, 47, 101
7, 530400, Note_on_c, 0, 51, 101
7, 530516, Note_on_c, 0, 51, 0
7, 530520, Note_on_c, 0, 54, 101
7, 530636, Note_on_c, 0, 54, 0
7, 530636, Note_on_c, 0, 47, 0
7, 530640, Note_on_c, 0, 47, 101
7, 530640, Note_on_c, 0, 59, 101
7, 530756, Note_on_c, 0, 59, 0
7, 530760, Note_on_c, 0, 54, 101
7, 530876, Note_on_c, 0, 54, 0
7, 530876, Note_on_c, 0, 47, 0
7, 530880, Note_on_c, 0, 47, 101
7, 530880, Note_on_c, 0, 55, 101
7, 530996, Note_on_c, 0, 55, 0
7, 531000, Note_on_c, 0, 52, 101
7, 531116, Note_on_c, 0, 52, 0
7, 531116, Note_on_c, 0, 47, 0
7, 531120, Note_on_c, 0, 47, 101
7, 531120, Note_on_c, 0, 55, 101
7, 531236, Note_on_c, 0, 55, 0
7, 531240, Note_on_c, 0, 59, 101
7, 531356, Note_on_c, 0, 59, 0
7, 531356, Note_on_c, 0, 47, 0
7, 531360, Note_on_c, 0, 47, 101
7, 531360, Note_on_c, 0, 64, 101
7, 531476, Note_on_c, 0, 64, 0
7, 531480, Note_on_c, 0, 58, 101
7, 531596, Note_on_c, 0, 58, 0
7, 531596, Note_on_c, 0, 47, 0
7, 531600, Note_on_c, 0, 47, 100
7, 531600, Note_on_c, 0, 51, 100
7, 531600, Note_on_c, 0, 59, 100
7, 531716, Note_on_c, 0, 51, 0
7, 531720, Note_on_c, 0, 55, 100
7, 531720, Note_on_c, 0, 64, 100
7, 531836, Note_on_c, 0, 64, 0
7, 531836, Note_on_c, 0, 55, 0
7, 531840, Note_on_c, 0, 57, 100
7, 531840, Note_on_c, 0, 66, 100
7, 531956, Note_on_c, 0, 66, 0
7, 531956, Note_on_c, 0, 57, 0
7, 531960, Note_on_c, 0, 55, 100
7, 531960, Note_on_c, 0, 64, 100
7, 532076, Note_on_c, 0, 64, 0
7, 532076, Note_on_c, 0, 47, 0
7, 532076, Note_on_c, 0, 59, 0
7, 532076, Note_on_c, 0, 55, 0
7, 532080, Note_on_c, 0, 54, 100
7, 532080, Note_on_c, 0, 63, 100
7, 532196, Note_on_c, 0, 63, 0
7, 532196, Note_on_c, 0, 54, 0
7, 532200, Note_on_c, 0, 52, 100
7, 532200, Note_on_c, 0, 61, 100
7, 532316, Note_on_c, 0, 61, 0
7, 532316, Note_on_c, 0, 52, 0
7, 532320, Note_on_c, 0, 47, 100
7, 532320, Note_on_c, 0, 54, 100
7, 532320, Note_on_c, 0, 59, 100
7, 532320, Note_on_c, 0, 63, 100
7, 533036, Note_on_c, 0, 63, 0
7, 533036, Note_on_c, 0, 47, 0
7, 533036, Note_on_c, 0, 54, 0
7, 533036, Note_on_c, 0, 59, 0
7, 533160, Note_on_c, 0, 52, 100
7, 533276, Note_on_c, 0, 52, 0
7, 533280, Note_on_c, 0, 50, 100
7, 533396, Note_on_c, 0, 50, 0
7, 533400, Note_on_c, 0, 48, 100
7, 533516, Note_on_c, 0, 48, 0
7, 533520, Note_on_c, 0, 47, 100
7, 533636, Note_on_c, 0, 47, 0
7, 533640, Note_on_c, 0, 45, 100
7, 533756, Note_on_c, 0, 45, 0
7, 533760, Note_on_c, 0, 43, 100
7, 534000, Note_on_c, 0, 52, 100
7, 534236, Note_on_c, 0, 52, 0
7, 534236, Note_on_c, 0, 43, 0
7, 534240, Note_on_c, 0, 54, 100
7, 534476, Note_on_c, 0, 54, 0
7, 534480, Note_on_c, 0, 40, 100
7, 534480, Note_on_c, 0, 55, 100
7, 534480, Note_on_c, 0, 55, 100
7, 534596, Note_on_c, 0, 55, 0
7, 534596, Note_on_c, 0, 55, 0
7, 534600, Note_on_c, 0, 59, 100
7, 534716, Note_on_c, 0, 59, 0
7, 534716, Note_on_c, 0, 40, 0
7, 534720, Note_on_c, 0, 42, 100
7, 534720, Note_on_c, 0, 55, 100
7, 534836, Note_on_c, 0, 55, 0
7, 534840, Note_on_c, 0, 52, 100
7, 534956, Note_on_c, 0, 52, 0
7, 534956, Note_on_c, 0, 42, 0
7, 534960, Note_on_c, 0, 43, 100
7, 534960, Note_on_c, 0, 64, 100
7, 535076, Note_on_c, 0, 64, 0
7, 535080, Note_on_c, 0, 59, 100
7, 535196, Note_on_c, 0, 59, 0
7, 535196, Note_on_c, 0, 43, 0
7, 535200, Note_on_c, 0, 45, 100
7, 535200, Note_on_c, 0, 60, 100
7, 535316, Note_on_c, 0, 60, 0
7, 535320, Note_on_c, 0, 59, 100
7, 535436, Note_on_c, 0, 59, 0
7, 535436, Note_on_c, 0, 45, 0
7, 535440, Note_on_c, 0, 47, 100
7, 535440, Note_on_c, 0, 57, 100
7, 535556, Note_on_c, 0, 57, 0
7, 535560, Note_on_c, 0, 55, 100
7, 535676, Note_on_c, 0, 55, 0
7, 535676, Note_on_c, 0, 47, 0
7, 535680, Note_on_c, 0, 48, 100
7, 535680, Note_on_c, 0, 54, 100
7, 535796, Note_on_c, 0, 54, 0
7, 535800, Note_on_c, 0, 52, 100
7, 535916, Note_on_c, 0, 52, 0
7, 535916, Note_on_c, 0, 48, 0
7, 535920, Note_on_c, 0, 47, 100
7, 535920, Note_on_c, 0, 51, 100
7, 536036, Note_on_c, 0, 51, 0
7, 536040, Note_on_c, 0, 66, 100
7, 536156, Note_on_c, 0, 66, 0
7, 536156, Note_on_c, 0, 47, 0
7, 536160, Note_on_c, 0, 49, 100
7, 536160, Note_on_c, 0, 63, 100
7, 536276, Note_on_c, 0, 63, 0
7, 536280, Note_on_c, 0, 59, 100
7, 536396, Note_on_c, 0, 59, 0
7, 536396, Note_on_c, 0, 49, 0
7, 536400, Note_on_c, 0, 51, 100
7, 536400, Note_on_c, 0, 71, 100
7, 536516, Note_on_c, 0, 71, 0
7, 536520, Note_on_c, 0, 66, 100
7, 536636, Note_on_c, 0, 66, 0
7, 536636, Note_on_c, 0, 51, 0
7, 536640, Note_on_c, 0, 52, 100
7, 536640, Note_on_c, 0, 67, 100
7, 536756, Note_on_c, 0, 67, 0
7, 536760, Note_on_c, 0, 66, 100
7, 536876, Note_on_c, 0, 66, 0
7, 536876, Note_on_c, 0, 52, 0
7, 536880, Note_on_c, 0, 54, 100
7, 536880, Note_on_c, 0, 64, 100
7, 536996, Note_on_c, 0, 64, 0
7, 537000, Note_on_c, 0, 62, 100
7, 537116, Note_on_c, 0, 62, 0
7, 537116, Note_on_c, 0, 54, 0
7, 537120, Note_on_c, 0, 55, 100
7, 537120, Note_on_c, 0, 60, 100
7, 537236, Note_on_c, 0, 60, 0
7, 537240, Note_on_c, 0, 59, 100
7, 537356, Note_on_c, 0, 59, 0
7, 537356, Note_on_c, 0, 55, 0
7, 537360, Note_on_c, 0, 57, 100
7, 537360, Note_on_c, 0, 60, 100
7, 537476, Note_on_c, 0, 60, 0
7, 537476, Note_on_c, 0, 57, 0
7, 537480, Note_on_c, 0, 59, 100
7, 537480, Note_on_c, 0, 62, 100
7, 537596, Note_on_c, 0, 62, 0
7, 537596, Note_on_c, 0, 59, 0
7, 537600, Note_on_c, 0, 57, 100
7, 537600, Note_on_c, 0, 60, 100
7, 537716, Note_on_c, 0, 60, 0
7, 537716, Note_on_c, 0, 57, 0
7, 537720, Note_on_c, 0, 55, 100
7, 537720, Note_on_c, 0, 59, 100
7, 537836, Note_on_c, 0, 59, 0
7, 537836, Note_on_c, 0, 55, 0
7, 537840, Note_on_c, 0, 54, 100
7, 537840, Note_on_c, 0, 57, 100
7, 537956, Note_on_c, 0, 57, 0
7, 537956, Note_on_c, 0, 54, 0
7, 537960, Note_on_c, 0, 52, 100
7, 537960, Note_on_c, 0, 55, 100
7, 538076, Note_on_c, 0, 55, 0
7, 538076, Note_on_c, 0, 52, 0
7, 538080, Note_on_c, 0, 54, 100
7, 538080, Note_on_c, 0, 57, 100
7, 538196, Note_on_c, 0, 57, 0
7, 538196, Note_on_c, 0, 54, 0
7, 538200, Note_on_c, 0, 55, 100
7, 538200, Note_on_c, 0, 59, 100
7, 538316, Note_on_c, 0, 59, 0
7, 538316, Note_on_c, 0, 55, 0
7, 538320, Note_on_c, 0, 57, 100
7, 538320, Note_on_c, 0, 60, 100
7, 538436, Note_on_c, 0, 60, 0
7, 538436, Note_on_c, 0, 57, 0
7, 538440, Note_on_c, 0, 55, 100
7, 538440, Note_on_c, 0, 59, 100
7, 538556, Note_on_c, 0, 59, 0
7, 538556, Note_on_c, 0, 55, 0
7, 538560, Note_on_c, 0, 54, 100
7, 538560, Note_on_c, 0, 57, 100
7, 538676, Note_on_c, 0, 57, 0
7, 538676, Note_on_c, 0, 54, 0
7, 538680, Note_on_c, 0, 52, 100
7, 538680, Note_on_c, 0, 55, 100
7, 538796, Note_on_c, 0, 55, 0
7, 538796, Note_on_c, 0, 52, 0
7, 538800, Note_on_c, 0, 51, 100
7, 538800, Note_on_c, 0, 54, 100
7, 538916, Note_on_c, 0, 51, 0
7, 538920, Note_on_c, 0, 48, 100
7, 539036, Note_on_c, 0, 48, 0
7, 539040, Note_on_c, 0, 47, 100
7, 539156, Note_on_c, 0, 47, 0
7, 539160, Note_on_c, 0, 45, 100
7, 539276, Note_on_c, 0, 45, 0
7, 539276, Note_on_c, 0, 54, 0
7, 539280, Note_on_c, 0, 43, 100
7, 539280, Note_on_c, 0, 54, 100
7, 539396, Note_on_c, 0, 43, 0
7, 539400, Note_on_c, 0, 42, 100
7, 539516, Note_on_c, 0, 42, 0
7, 539516, Note_on_c, 0, 54, 0
7, 539520, Note_on_c, 0, 40, 100
7, 539520, Note_on_c, 0, 52, 100
7, 539520, Note_on_c, 0, 55, 100
7, 539636, Note_on_c, 0, 40, 0
7, 539640, Note_on_c, 0, 47, 100
7, 539756, Note_on_c, 0, 47, 0
7, 539760, Note_on_c, 0, 43, 100
7, 539876, Note_on_c, 0, 43, 0
7, 539880, Note_on_c, 0, 40, 100
7, 539996, Note_on_c, 0, 40, 0
7, 539996, Note_on_c, 0, 55, 0
7, 539996, Note_on_c, 0, 52, 0
7, 540000, Note_on_c, 0, 52, 100
7, 540000, Note_on_c, 0, 56, 100
7, 540116, Note_on_c, 0, 52, 0
7, 540120, Note_on_c, 0, 47, 100
7, 540236, Note_on_c, 0, 47, 0
7, 540236, Note_on_c, 0, 56, 0
7, 540240, Note_on_c, 0, 48, 100
7, 540240, Note_on_c, 0, 57, 100
7, 540356, Note_on_c, 0, 48, 0
7, 540360, Note_on_c, 0, 52, 100
7, 540476, Note_on_c, 0, 52, 0
7, 540480, Note_on_c, 0, 48, 100
7, 540596, Note_on_c, 0, 48, 0
7, 540600, Note_on_c, 0, 46, 100
7, 540716, Note_on_c, 0, 46, 0
7, 540716, Note_on_c, 0, 57, 0
7, 540720, Note_on_c, 0, 54, 100
7, 540720, Note_on_c, 0, 58, 100
7, 540836, Note_on_c, 0, 54, 0
7, 540840, Note_on_c, 0, 49, 100
7, 540956, Note_on_c, 0, 49, 0
7, 540956, Note_on_c, 0, 58, 0
7, 540960, Note_on_c, 0, 50, 100
7, 540960, Note_on_c, 0, 59, 100
7, 541076, Note_on_c, 0, 59, 0
7, 541080, Note_on_c, 0, 60, 100
7, 541196, Note_on_c, 0, 60, 0
7, 541196, Note_on_c, 0, 50, 0
7, 541200, Note_on_c, 0, 49, 100
7, 541200, Note_on_c, 0, 59, 100
7, 541316, Note_on_c, 0, 59, 0
7, 541320, Note_on_c, 0, 57, 100
7, 541436, Note_on_c, 0, 57, 0
7, 541436, Note_on_c, 0, 49, 0
7, 541440, Note_on_c, 0, 51, 100
7, 541440, Note_on_c, 0, 55, 100
7, 541556, Note_on_c, 0, 55, 0
7, 541560, Note_on_c, 0, 54, 100
7, 541676, Note_on_c, 0, 54, 0
7, 541676, Note_on_c, 0, 51, 0
7, 541680, Note_on_c, 0, 52, 100
7, 541680, Note_on_c, 0, 55, 100
7, 541796, Note_on_c, 0, 55, 0
7, 541800, Note_on_c, 0, 57, 100
7, 541916, Note_on_c, 0, 57, 0
7, 541916, Note_on_c, 0, 52, 0
7, 541920, Note_on_c, 0, 55, 100
7, 541920, Note_on_c, 0, 64, 100
7, 542036, Note_on_c, 0, 55, 0
7, 542040, Note_on_c, 0, 54, 100
7, 542156, Note_on_c, 0, 54, 0
7, 542156, Note_on_c, 0, 64, 0
7, 542160, Note_on_c, 0, 52, 100
7, 542160, Note_on_c, 0, 66, 100
7, 542276, Note_on_c, 0, 52, 0
7, 542280, Note_on_c, 0, 51, 100
7, 542396, Note_on_c, 0, 51, 0
7, 542396, Note_on_c, 0, 66, 0
7, 542400, Note_on_c, 0, 52, 100
7, 542400, Note_on_c, 0, 67, 100
7, 542516, Note_on_c, 0, 67, 0
7, 542520, Note_on_c, 0, 69, 100
7, 542636, Note_on_c, 0, 69, 0
7, 542636, Note_on_c, 0, 52, 0
7, 542640, Note_on_c, 0, 54, 100
7, 542640, Note_on_c, 0, 67, 100
7, 542756, Note_on_c, 0, 67, 0
7, 542760, Note_on_c, 0, 66, 100
7, 542876, Note_on_c, 0, 66, 0
7, 542876, Note_on_c, 0, 54, 0
7, 542880, Note_on_c, 0, 55, 100
7, 542880, Note_on_c, 0, 64, 100
7, 542996, Note_on_c, 0, 64, 0
7, 543000, Note_on_c, 0, 62, 100
7, 543116, Note_on_c, 0, 62, 0
7, 543116, Note_on_c, 0, 55, 0
7, 543120, Note_on_c, 0, 57, 100
7, 543120, Note_on_c, 0, 61, 100
7, 543236, Note_on_c, 0, 57, 0
7, 543240, Note_on_c, 0, 59, 100
7, 543356, Note_on_c, 0, 59, 0
7, 543356, Note_on_c, 0, 61, 0
7, 543360, Note_on_c, 0, 57, 100
7, 543360, Note_on_c, 0, 62, 100
7, 543476, Note_on_c, 0, 57, 0
7, 543480, Note_on_c, 0, 55, 100
7, 543596, Note_on_c, 0, 55, 0
7, 543596, Note_on_c, 0, 62, 0
7, 543600, Note_on_c, 0, 54, 100
7, 543600, Note_on_c, 0, 64, 100
7, 543716, Note_on_c, 0, 54, 0
7, 543720, Note_on_c, 0, 52, 100
7, 543836, Note_on_c, 0, 52, 0
7, 543836, Note_on_c, 0, 64, 0
7, 543840, Note_on_c, 0, 50, 100
7, 543840, Note_on_c, 0, 66, 100
7, 543956, Note_on_c, 0, 66, 0
7, 543960, Note_on_c, 0, 67, 100
7, 544076, Note_on_c, 0, 67, 0
7, 544076, Note_on_c, 0, 50, 0
7, 544080, Note_on_c, 0, 52, 100
7, 544080, Note_on_c, 0, 66, 100
7, 544196, Note_on_c, 0, 66, 0
7, 544200, Note_on_c, 0, 64, 100
7, 544316, Note_on_c, 0, 64, 0
7, 544316, Note_on_c, 0, 52, 0
7, 544320, Note_on_c, 0, 54, 100
7, 544320, Note_on_c, 0, 62, 100
7, 544436, Note_on_c, 0, 62, 0
7, 544440, Note_on_c, 0, 60, 100
7, 544556, Note_on_c, 0, 60, 0
7, 544556, Note_on_c, 0, 54, 0
7, 544560, Note_on_c, 0, 55, 100
7, 544560, Note_on_c, 0, 59, 100
7, 544676, Note_on_c, 0, 59, 0
7, 544680, Note_on_c, 0, 62, 100
7, 544796, Note_on_c, 0, 62, 0
7, 544800, Note_on_c, 0, 59, 100
7, 544916, Note_on_c, 0, 59, 0
7, 544916, Note_on_c, 0, 55, 0
7, 544920, Note_on_c, 0, 55, 100
7, 545036, Note_on_c, 0, 55, 0
7, 545040, Note_on_c, 0, 59, 100
7, 545040, Note_on_c, 0, 67, 100
7, 545156, Note_on_c, 0, 67, 0
7, 545160, Note_on_c, 0, 62, 100
7, 545276, Note_on_c, 0, 62, 0
7, 545276, Note_on_c, 0, 59, 0
7, 545280, Note_on_c, 0, 60, 101
7, 545280, Note_on_c, 0, 64, 100
7, 545400, Note_on_c, 0, 55, 100
7, 545516, Note_on_c, 0, 55, 0
7, 545520, Note_on_c, 0, 52, 100
7, 545636, Note_on_c, 0, 52, 0
7, 545640, Note_on_c, 0, 48, 100
7, 545756, Note_on_c, 0, 48, 0
7, 545756, Note_on_c, 0, 64, 0
7, 545756, Note_on_c, 0, 60, 0
7, 545760, Note_on_c, 0, 60, 100
7, 545876, Note_on_c, 0, 60, 0
7, 545880, Note_on_c, 0, 55, 100
7, 545996, Note_on_c, 0, 55, 0
7, 546000, Note_on_c, 0, 45, 101
7, 546120, Note_on_c, 0, 64, 100
7, 546236, Note_on_c, 0, 64, 0
7, 546240, Note_on_c, 0, 61, 100
7, 546356, Note_on_c, 0, 61, 0
7, 546360, Note_on_c, 0, 57, 100
7, 546476, Note_on_c, 0, 57, 0
7, 546476, Note_on_c, 0, 45, 0
7, 546480, Note_on_c, 0, 49, 101
7, 546480, Note_on_c, 0, 69, 100
7, 546596, Note_on_c, 0, 69, 0
7, 546600, Note_on_c, 0, 64, 100
7, 546716, Note_on_c, 0, 64, 0
7, 546716, Note_on_c, 0, 49, 0
7, 546720, Note_on_c, 0, 62, 101
7, 546720, Note_on_c, 0, 66, 101
7, 546840, Note_on_c, 0, 57, 101
7, 546956, Note_on_c, 0, 57, 0
7, 546960, Note_on_c, 0, 54, 101
7, 547076, Note_on_c, 0, 54, 0
7, 547080, Note_on_c, 0, 50, 101
7, 547196, Note_on_c, 0, 50, 0
7, 547196, Note_on_c, 0, 66, 0
7, 547196, Note_on_c, 0, 62, 0
7, 547200, Note_on_c, 0, 62, 101
7, 547316, Note_on_c, 0, 62, 0
7, 547320, Note_on_c, 0, 57, 101
7, 547436, Note_on_c, 0, 57, 0
7, 547440, Note_on_c, 0, 47, 101
7, 547440, Note_on_c, 0, 51, 101
7, 547556, Note_on_c, 0, 51, 0
7, 547560, Note_on_c, 0, 62, 101
7, 547676, Note_on_c, 0, 62, 0
7, 547676, Note_on_c, 0, 47, 0
7, 547680, Note_on_c, 0, 45, 101
7, 547680, Note_on_c, 0, 59, 101
7, 547796, Note_on_c, 0, 59, 0
7, 547800, Note_on_c, 0, 55, 101
7, 547800, Note_on_c, 0, 55, 101
7, 547916, Note_on_c, 0, 55, 0
7, 547916, Note_on_c, 0, 55, 0
7, 547916, Note_on_c, 0, 45, 0
7, 547920, Note_on_c, 0, 47, 101
7, 547920, Note_on_c, 0, 47, 101
7, 547920, Note_on_c, 0, 67, 101
7, 548036, Note_on_c, 0, 67, 0
7, 548040, Note_on_c, 0, 62, 101
7, 548156, Note_on_c, 0, 62, 0
7, 548156, Note_on_c, 0, 47, 0
7, 548156, Note_on_c, 0, 47, 0
7, 548160, Note_on_c, 0, 48, 101
7, 548160, Note_on_c, 0, 64, 101
7, 548276, Note_on_c, 0, 64, 0
7, 548280, Note_on_c, 0, 62, 101
7, 548396, Note_on_c, 0, 62, 0
7, 548396, Note_on_c, 0, 48, 0
7, 548400, Note_on_c, 0, 50, 101
7, 548400, Note_on_c, 0, 60, 101
7, 548516, Note_on_c, 0, 60, 0
7, 548520, Note_on_c, 0, 59, 101
7, 548636, Note_on_c, 0, 59, 0
7, 548636, Note_on_c, 0, 50, 0
7, 548640, Note_on_c, 0, 52, 101
7, 548640, Note_on_c, 0, 57, 101
7, 548756, Note_on_c, 0, 57, 0
7, 548760, Note_on_c, 0, 55, 101
7, 548876, Note_on_c, 0, 55, 0
7, 548876, Note_on_c, 0, 52, 0
7, 548880, Note_on_c, 0, 50, 101
7, 548880, Note_on_c, 0, 54, 101
7, 548996, Note_on_c, 0, 50, 0
7, 549000, Note_on_c, 0, 52, 101
7, 549116, Note_on_c, 0, 52, 0
7, 549116, Note_on_c, 0, 54, 0
7, 549120, Note_on_c, 0, 50, 101
7, 549120, Note_on_c, 0, 55, 101
7, 549236, Note_on_c, 0, 50, 0
7, 549240, Note_on_c, 0, 48, 101
7, 549356, Note_on_c, 0, 48, 0
7, 549356, Note_on_c, 0, 55, 0
7, 549360, Note_on_c, 0, 47, 101
7, 549360, Note_on_c, 0, 57, 101
7, 549476, Note_on_c, 0, 47, 0
7, 549480, Note_on_c, 0, 45, 101
7, 549596, Note_on_c, 0, 45, 0
7, 549596, Note_on_c, 0, 57, 0
7, 549600, Note_on_c, 0, 43, 101
7, 549600, Note_on_c, 0, 55, 101
7, 549600, Note_on_c, 0, 59, 101
7, 549716, Note_on_c, 0, 55, 0
7, 549720, Note_on_c, 0, 57, 101
7, 549836, Note_on_c, 0, 57, 0
7, 549836, Note_on_c, 0, 59, 0
7, 549836, Note_on_c, 0, 43, 0
7, 549840, Note_on_c, 0, 55, 101
7, 549840, Note_on_c, 0, 60, 101
7, 549956, Note_on_c, 0, 55, 0
7, 549960, Note_on_c, 0, 53, 101
7, 550076, Note_on_c, 0, 53, 0
7, 550076, Note_on_c, 0, 60, 0
7, 550080, Note_on_c, 0, 52, 101
7, 550080, Note_on_c, 0, 62, 101
7, 550196, Note_on_c, 0, 52, 0
7, 550200, Note_on_c, 0, 50, 101
7, 550316, Note_on_c, 0, 50, 0
7, 550316, Note_on_c, 0, 62, 0
7, 550320, Note_on_c, 0, 48, 101
7, 550320, Note_on_c, 0, 60, 101
7, 550320, Note_on_c, 0, 64, 101
7, 550436, Note_on_c, 0, 64, 0
7, 550436, Note_on_c, 0, 60, 0
7, 550440, Note_on_c, 0, 67, 101
7, 550556, Note_on_c, 0, 67, 0
7, 550556, Note_on_c, 0, 48, 0
7, 550560, Note_on_c, 0, 50, 101
7, 550560, Note_on_c, 0, 72, 101
7, 550676, Note_on_c, 0, 72, 0
7, 550680, Note_on_c, 0, 71, 101
7, 550796, Note_on_c, 0, 71, 0
7, 550796, Note_on_c, 0, 50, 0
7, 550800, Note_on_c, 0, 52, 101
7, 550800, Note_on_c, 0, 69, 101
7, 550916, Note_on_c, 0, 69, 0
7, 550920, Note_on_c, 0, 67, 101
7, 551036, Note_on_c, 0, 67, 0
7, 551036, Note_on_c, 0, 52, 0
7, 551040, Note_on_c, 0, 50, 101
7, 551040, Note_on_c, 0, 66, 101
7, 551156, Note_on_c, 0, 66, 0
7, 551160, Note_on_c, 0, 67, 101
7, 551276, Note_on_c, 0, 67, 0
7, 551276, Note_on_c, 0, 50, 0
7, 551280, Note_on_c, 0, 40, 101
7, 551280, Note_on_c, 0, 66, 101
7, 551396, Note_on_c, 0, 66, 0
7, 551400, Note_on_c, 0, 64, 101
7, 551516, Note_on_c, 0, 64, 0
7, 551516, Note_on_c, 0, 40, 0
7, 551520, Note_on_c, 0, 42, 101
7, 551520, Note_on_c, 0, 62, 101
7, 551636, Note_on_c, 0, 62, 0
7, 551640, Note_on_c, 0, 60, 101
7, 551756, Note_on_c, 0, 60, 0
7, 551756, Note_on_c, 0, 42, 0
7, 551760, Note_on_c, 0, 43, 101
7, 551760, Note_on_c, 0, 59, 101
7, 551876, Note_on_c, 0, 43, 0
7, 551880, Note_on_c, 0, 47, 101
7, 551996, Note_on_c, 0, 47, 0
7, 552000, Note_on_c, 0, 43, 101
7, 552116, Note_on_c, 0, 43, 0
7, 552120, Note_on_c, 0, 40, 101
7, 552236, Note_on_c, 0, 40, 0
7, 552236, Note_on_c, 0, 59, 0
7, 552240, Note_on_c, 0, 52, 101
7, 552240, Note_on_c, 0, 55, 101
7, 552240, Note_on_c, 0, 59, 101
7, 552356, Note_on_c, 0, 52, 0
7, 552360, Note_on_c, 0, 47, 101
7, 552476, Note_on_c, 0, 47, 0
7, 552476, Note_on_c, 0, 59, 0
7, 552476, Note_on_c, 0, 55, 0
7, 552480, Note_on_c, 0, 48, 101
7, 552480, Note_on_c, 0, 57, 101
7, 552596, Note_on_c, 0, 48, 0
7, 552600, Note_on_c, 0, 52, 101
7, 552716, Note_on_c, 0, 52, 0
7, 552720, Note_on_c, 0, 48, 101
7, 552836, Note_on_c, 0, 48, 0
7, 552840, Note_on_c, 0, 45, 101
7, 552956, Note_on_c, 0, 45, 0
7, 552956, Note_on_c, 0, 57, 0
7, 552960, Note_on_c, 0, 50, 101
7, 552960, Note_on_c, 0, 54, 101
7, 552960, Note_on_c, 0, 57, 101
7, 553076, Note_on_c, 0, 50, 0
7, 553080, Note_on_c, 0, 50, 101
7, 553196, Note_on_c, 0, 50, 0
7, 553196, Note_on_c, 0, 57, 0
7, 553196, Note_on_c, 0, 54, 0
7, 553200, Note_on_c, 0, 43, 101
7, 553200, Note_on_c, 0, 55, 101
7, 553316, Note_on_c, 0, 55, 0
7, 553320, Note_on_c, 0, 59, 101
7, 553436, Note_on_c, 0, 59, 0
7, 553440, Note_on_c, 0, 57, 101
7, 553556, Note_on_c, 0, 57, 0
7, 553560, Note_on_c, 0, 55, 101
7, 553676, Note_on_c, 0, 55, 0
7, 553676, Note_on_c, 0, 43, 0
7, 553680, Note_on_c, 0, 43, 101
7, 553680, Note_on_c, 0, 54, 101
7, 553796, Note_on_c, 0, 54, 0
7, 553800, Note_on_c, 0, 52, 101
7, 553916, Note_on_c, 0, 52, 0
7, 553916, Note_on_c, 0, 43, 0
7, 553920, Note_on_c, 0, 45, 101
7, 553920, Note_on_c, 0, 60, 101
7, 554036, Note_on_c, 0, 60, 0
7, 554040, Note_on_c, 0, 59, 101
7, 554156, Note_on_c, 0, 59, 0
7, 554156, Note_on_c, 0, 45, 0
7, 554160, Note_on_c, 0, 47, 101
7, 554160, Note_on_c, 0, 57, 101
7, 554276, Note_on_c, 0, 57, 0
7, 554280, Note_on_c, 0, 55, 101
7, 554396, Note_on_c, 0, 55, 0
7, 554396, Note_on_c, 0, 47, 0
7, 554400, Note_on_c, 0, 48, 101
7, 554400, Note_on_c, 0, 54, 101
7, 554516, Note_on_c, 0, 54, 0
7, 554520, Note_on_c, 0, 52, 101
7, 554636, Note_on_c, 0, 52, 0
7, 554636, Note_on_c, 0, 48, 0
7, 554640, Note_on_c, 0, 47, 101
7, 554640, Note_on_c, 0, 47, 101
7, 554640, Note_on_c, 0, 47, 101
7, 554640, Note_on_c, 0, 51, 101
7, 554756, Note_on_c, 0, 51, 0
7, 554760, Note_on_c, 0, 66, 101
7, 554876, Note_on_c, 0, 66, 0
7, 554876, Note_on_c, 0, 47, 0
7, 554876, Note_on_c, 0, 47, 0
7, 554876, Note_on_c, 0, 47, 0
7, 554880, Note_on_c, 0, 49, 101
7, 554880, Note_on_c, 0, 64, 101
7, 554996, Note_on_c, 0, 64, 0
7, 555000, Note_on_c, 0, 63, 101
7, 555116, Note_on_c, 0, 63, 0
7, 555116, Note_on_c, 0, 49, 0
7, 555120, Note_on_c, 0, 51, 101
7, 555120, Note_on_c, 0, 61, 101
7, 555236, Note_on_c, 0, 61, 0
7, 555240, Note_on_c, 0, 59, 101
7, 555356, Note_on_c, 0, 59, 0
7, 555356, Note_on_c, 0, 51, 0
7, 555360, Note_on_c, 0, 52, 101
7, 555360, Note_on_c, 0, 67, 101
7, 555476, Note_on_c, 0, 67, 0
7, 555480, Note_on_c, 0, 66, 101
7, 555596, Note_on_c, 0, 66, 0
7, 555596, Note_on_c, 0, 52, 0
7, 555600, Note_on_c, 0, 54, 101
7, 555600, Note_on_c, 0, 64, 101
7, 555716, Note_on_c, 0, 64, 0
7, 555720, Note_on_c, 0, 62, 101
7, 555836, Note_on_c, 0, 62, 0
7, 555836, Note_on_c, 0, 54, 0
7, 555840, Note_on_c, 0, 55, 101
7, 555840, Note_on_c, 0, 60, 101
7, 555956, Note_on_c, 0, 60, 0
7, 555960, Note_on_c, 0, 59, 101
7, 556076, Note_on_c, 0, 59, 0
7, 556076, Note_on_c, 0, 55, 0
7, 556080, Note_on_c, 0, 54, 101
7, 556080, Note_on_c, 0, 58, 101
7, 556196, Note_on_c, 0, 58, 0
7, 556200, Note_on_c, 0, 61, 101
7, 556316, Note_on_c, 0, 61, 0
7, 556320, Note_on_c, 0, 58, 101
7, 556436, Note_on_c, 0, 58, 0
7, 556436, Note_on_c, 0, 54, 0
7, 556440, Note_on_c, 0, 54, 101
7, 556556, Note_on_c, 0, 54, 0
7, 556560, Note_on_c, 0, 58, 101
7, 556560, Note_on_c, 0, 66, 101
7, 556676, Note_on_c, 0, 66, 0
7, 556680, Note_on_c, 0, 61, 101
7, 556796, Note_on_c, 0, 61, 0
7, 556796, Note_on_c, 0, 58, 0
7, 556800, Note_on_c, 0, 59, 101
7, 556800, Note_on_c, 0, 62, 101
7, 556916, Note_on_c, 0, 59, 0
7, 556920, Note_on_c, 0, 54, 101
7, 557036, Note_on_c, 0, 54, 0
7, 557040, Note_on_c, 0, 50, 101
7, 557156, Note_on_c, 0, 50, 0
7, 557160, Note_on_c, 0, 47, 101
7, 557276, Note_on_c, 0, 47, 0
7, 557276, Note_on_c, 0, 62, 0
7, 557280, Note_on_c, 0, 59, 101
7, 557280, Note_on_c, 0, 63, 101
7, 557396, Note_on_c, 0, 59, 0
7, 557400, Note_on_c, 0, 54, 101
7, 557516, Note_on_c, 0, 54, 0
7, 557516, Note_on_c, 0, 63, 0
7, 557520, Note_on_c, 0, 55, 101
7, 557520, Note_on_c, 0, 59, 101
7, 557520, Note_on_c, 0, 64, 101
7, 557636, Note_on_c, 0, 64, 0
7, 557636, Note_on_c, 0, 59, 0
7, 557636, Note_on_c, 0, 55, 0
7, 557640, Note_on_c, 0, 54, 101
7, 557640, Note_on_c, 0, 63, 101
7, 557756, Note_on_c, 0, 63, 0
7, 557756, Note_on_c, 0, 54, 0
7, 557760, Note_on_c, 0, 55, 101
7, 557760, Note_on_c, 0, 59, 101
7, 557760, Note_on_c, 0, 64, 101
7, 557876, Note_on_c, 0, 64, 0
7, 557876, Note_on_c, 0, 59, 0
7, 557876, Note_on_c, 0, 55, 0
7, 557880, Note_on_c, 0, 54, 101
7, 557880, Note_on_c, 0, 63, 101
7, 557996, Note_on_c, 0, 63, 0
7, 557996, Note_on_c, 0, 54, 0
7, 558000, Note_on_c, 0, 55, 101
7, 558000, Note_on_c, 0, 59, 101
7, 558000, Note_on_c, 0, 64, 101
7, 558116, Note_on_c, 0, 64, 0
7, 558116, Note_on_c, 0, 59, 0
7, 558116, Note_on_c, 0, 55, 0
7, 558120, Note_on_c, 0, 54, 101
7, 558120, Note_on_c, 0, 66, 101
7, 558236, Note_on_c, 0, 66, 0
7, 558236, Note_on_c, 0, 54, 0
7, 558240, Note_on_c, 0, 52, 101
7, 558240, Note_on_c, 0, 59, 101
7, 558240, Note_on_c, 0, 67, 101
7, 558476, Note_on_c, 0, 67, 0
7, 558476, Note_on_c, 0, 52, 0
7, 558480, Note_on_c, 0, 54, 101
7, 558480, Note_on_c, 0, 61, 101
7, 558716, Note_on_c, 0, 54, 0
7, 558716, Note_on_c, 0, 59, 0
7, 558720, Note_on_c, 0, 42, 101
7, 558720, Note_on_c, 0, 58, 101
7, 558836, Note_on_c, 0, 61, 0
7, 558840, Note_on_c, 0, 59, 101
7, 558956, Note_on_c, 0, 59, 0
7, 558956, Note_on_c, 0, 58, 0
7, 558956, Note_on_c, 0, 42, 0
7, 558960, Note_on_c, 0, 47, 101
7, 558960, Note_on_c, 0, 59, 101
7, 559076, Note_on_c, 0, 59, 0
7, 559080, Note_on_c, 0, 54, 101
7, 559196, Note_on_c, 0, 54, 0
7, 559196, Note_on_c, 0, 47, 0
7, 559200, Note_on_c, 0, 47, 101
7, 559200, Note_on_c, 0, 51, 101
7, 559316, Note_on_c, 0, 51, 0
7, 559320, Note_on_c, 0, 54, 101
7, 559436, Note_on_c, 0, 54, 0
7, 559436, Note_on_c, 0, 47, 0
7, 559440, Note_on_c, 0, 47, 101
7, 559440, Note_on_c, 0, 59, 101
7, 559556, Note_on_c, 0, 59, 0
7, 559560, Note_on_c, 0, 54, 101
7, 559676, Note_on_c, 0, 54, 0
7, 559676, Note_on_c, 0, 47, 0
7, 559680, Note_on_c, 0, 47, 101
7, 559680, Note_on_c, 0, 55, 101
7, 559796, Note_on_c, 0, 55, 0
7, 559800, Note_on_c, 0, 52, 101
7, 559916, Note_on_c, 0, 52, 0
7, 559916, Note_on_c, 0, 47, 0
7, 559920, Note_on_c, 0, 47, 101
7, 559920, Note_on_c, 0, 55, 101
7, 560036, Note_on_c, 0, 55, 0
7, 560040, Note_on_c, 0, 59, 101
7, 560156, Note_on_c, 0, 59, 0
7, 560156, Note_on_c, 0, 47, 0
7, 560160, Note_on_c, 0, 47, 101
7, 560160, Note_on_c, 0, 64, 101
7, 560276, Note_on_c, 0, 64, 0
7, 560280, Note_on_c, 0, 58, 101
7, 560396, Note_on_c, 0, 58, 0
7, 560396, Note_on_c, 0, 47, 0
7, 560400, Note_on_c, 0, 47, 100
7, 560400, Note_on_c, 0, 51, 100
7, 560400, Note_on_c, 0, 59, 100
7, 560516, Note_on_c, 0, 51, 0
7, 560520, Note_on_c, 0, 55, 100
7, 560520, Note_on_c, 0, 64, 100
7, 560636, Note_on_c, 0, 64, 0
7, 560636, Note_on_c, 0, 55, 0
7, 560640, Note_on_c, 0, 57, 100
7, 560640, Note_on_c, 0, 66, 100
7, 560756, Note_on_c, 0, 66, 0
7, 560756, Note_on_c, 0, 57, 0
7, 560760, Note_on_c, 0, 55, 100
7, 560760, Note_on_c, 0, 64, 100
7, 560876, Note_on_c, 0, 64, 0
7, 560876, Note_on_c, 0, 47, 0
7, 560876, Note_on_c, 0, 59, 0
7, 560876, Note_on_c, 0, 55, 0
7, 560880, Note_on_c, 0, 54, 100
7, 560880, Note_on_c, 0, 63, 100
7, 560996, Note_on_c, 0, 63, 0
7, 560996, Note_on_c, 0, 54, 0
7, 561000, Note_on_c, 0, 52, 100
7, 561000, Note_on_c, 0, 61, 100
7, 561116, Note_on_c, 0, 61, 0
7, 561116, Note_on_c, 0, 52, 0
7, 561120, Note_on_c, 0, 47, 100
7, 561120, Note_on_c, 0, 54, 100
7, 561120, Note_on_c, 0, 59, 100
7, 561120, Note_on_c, 0, 63, 100
7, 561836, Note_on_c, 0, 63, 0
7, 561836, Note_on_c, 0, 47, 0
7, 561836, Note_on_c, 0, 54, 0
7, 561836, Note_on_c, 0, 59, 0
7, 561960, Note_on_c, 0, 47, 101
7, 562076, Note_on_c, 0, 47, 0
7, 562080, Note_on_c, 0, 49, 101
7, 562196, Note_on_c, 0, 49, 0
7, 562200, Note_on_c, 0, 51, 101
7, 562316, Note_on_c, 0, 51, 0
7, 562320, Note_on_c, 0, 52, 101
7, 562436, Note_on_c, 0, 52, 0
7, 562440, Note_on_c, 0, 54, 101
7, 562556, Note_on_c, 0, 54, 0
7, 562560, Note_on_c, 0, 51, 99
7, 562560, Note_on_c, 0, 55, 99
7, 562676, Note_on_c, 0, 51, 0
7, 562680, Note_on_c, 0, 40, 99
7, 562796, Note_on_c, 0, 40, 0
7, 562800, Note_on_c, 0, 42, 99
7, 562916, Note_on_c, 0, 42, 0
7, 562920, Note_on_c, 0, 43, 99
7, 563036, Note_on_c, 0, 43, 0
7, 563036, Note_on_c, 0, 55, 0
7, 563040, Note_on_c, 0, 45, 99
7, 563040, Note_on_c, 0, 54, 99
7, 563156, Note_on_c, 0, 45, 0
7, 563160, Note_on_c, 0, 47, 99
7, 563276, Note_on_c, 0, 47, 0
7, 563276, Note_on_c, 0, 54, 0
7, 563280, Note_on_c, 0, 48, 100
7, 563280, Note_on_c, 0, 51, 100
7, 563280, Note_on_c, 0, 52, 99
7, 563396, Note_on_c, 0, 51, 0
7, 563400, Note_on_c, 0, 64, 100
7, 563516, Note_on_c, 0, 64, 0
7, 563520, Note_on_c, 0, 66, 100
7, 563636, Note_on_c, 0, 66, 0
7, 563640, Note_on_c, 0, 67, 100
7, 563756, Note_on_c, 0, 67, 0
7, 563756, Note_on_c, 0, 52, 0
7, 563756, Note_on_c, 0, 48, 0
7, 563760, Note_on_c, 0, 47, 100
7, 563760, Note_on_c, 0, 69, 100
7, 563876, Note_on_c, 0, 69, 0
7, 563880, Note_on_c, 0, 71, 100
7, 563996, Note_on_c, 0, 71, 0
7, 563996, Note_on_c, 0, 47, 0
7, 564000, Note_on_c, 0, 45, 100
7, 564000, Note_on_c, 0, 72, 100
7, 564116, Note_on_c, 0, 45, 0
7, 564120, Note_on_c, 0, 54, 100
7, 564236, Note_on_c, 0, 54, 0
7, 564236, Note_on_c, 0, 72, 0
7, 564240, Note_on_c, 0, 55, 100
7, 564240, Note_on_c, 0, 71, 100
7, 564356, Note_on_c, 0, 55, 0
7, 564360, Note_on_c, 0, 57, 100
7, 564476, Note_on_c, 0, 57, 0
7, 564476, Note_on_c, 0, 71, 0
7, 564480, Note_on_c, 0, 59, 100
7, 564480, Note_on_c, 0, 67, 100
7, 564596, Note_on_c, 0, 59, 0
7, 564600, Note_on_c, 0, 60, 100
7, 564716, Note_on_c, 0, 60, 0
7, 564716, Note_on_c, 0, 67, 0
7, 564720, Note_on_c, 0, 62, 100
7, 564720, Note_on_c, 0, 69, 100
7, 564836, Note_on_c, 0, 62, 0
7, 564840, Note_on_c, 0, 67, 100
7, 564956, Note_on_c, 0, 67, 0
7, 564960, Note_on_c, 0, 66, 100
7, 565076, Note_on_c, 0, 66, 0
7, 565080, Note_on_c, 0, 64, 100
7, 565196, Note_on_c, 0, 64, 0
7, 565200, Note_on_c, 0, 62, 100
7, 565316, Note_on_c, 0, 62, 0
7, 565320, Note_on_c, 0, 60, 100
7, 565436, Note_on_c, 0, 60, 0
7, 565436, Note_on_c, 0, 69, 0
7, 565440, Note_on_c, 0, 51, 101
7, 565440, Note_on_c, 0, 59, 100
7, 565556, Note_on_c, 0, 51, 0
7, 565560, Note_on_c, 0, 62, 101
7, 565676, Note_on_c, 0, 62, 0
7, 565680, Note_on_c, 0, 64, 101
7, 565796, Note_on_c, 0, 64, 0
7, 565800, Note_on_c, 0, 66, 101
7, 565916, Note_on_c, 0, 66, 0
7, 565916, Note_on_c, 0, 59, 0
7, 565920, Note_on_c, 0, 57, 101
7, 565920, Note_on_c, 0, 67, 101
7, 566036, Note_on_c, 0, 67, 0
7, 566040, Note_on_c, 0, 69, 101
7, 566156, Note_on_c, 0, 69, 0
7, 566156, Note_on_c, 0, 57, 0
7, 566160, Note_on_c, 0, 55, 101
7, 566160, Note_on_c, 0, 71, 101
7, 566276, Note_on_c, 0, 71, 0
7, 566280, Note_on_c, 0, 59, 101
7, 566396, Note_on_c, 0, 59, 0
7, 566400, Note_on_c, 0, 60, 101
7, 566516, Note_on_c, 0, 60, 0
7, 566520, Note_on_c, 0, 62, 101
7, 566636, Note_on_c, 0, 62, 0
7, 566636, Note_on_c, 0, 55, 0
7, 566640, Note_on_c, 0, 54, 101
7, 566640, Note_on_c, 0, 64, 101
7, 566756, Note_on_c, 0, 64, 0
7, 566760, Note_on_c, 0, 66, 101
7, 566876, Note_on_c, 0, 66, 0
7, 566876, Note_on_c, 0, 54, 0
7, 566880, Note_on_c, 0, 52, 101
7, 566880, Note_on_c, 0, 67, 101
7, 566996, Note_on_c, 0, 52, 0
7, 567000, Note_on_c, 0, 55, 101
7, 567116, Note_on_c, 0, 55, 0
7, 567120, Note_on_c, 0, 59, 101
7, 567236, Note_on_c, 0, 59, 0
7, 567240, Note_on_c, 0, 64, 101
7, 567356, Note_on_c, 0, 64, 0
7, 567356, Note_on_c, 0, 67, 0
7, 567360, Note_on_c, 0, 57, 101
7, 567360, Note_on_c, 0, 67, 101
7, 567476, Note_on_c, 0, 57, 0
7, 567480, Note_on_c, 0, 60, 101
7, 567596, Note_on_c, 0, 60, 0
7, 567596, Note_on_c, 0, 67, 0
7, 567600, Note_on_c, 0, 50, 101
7, 567600, Note_on_c, 0, 66, 101
7, 567716, Note_on_c, 0, 50, 0
7, 567720, Note_on_c, 0, 54, 101
7, 567836, Note_on_c, 0, 54, 0
7, 567840, Note_on_c, 0, 57, 101
7, 567956, Note_on_c, 0, 57, 0
7, 567960, Note_on_c, 0, 62, 101
7, 568076, Note_on_c, 0, 62, 0
7, 568076, Note_on_c, 0, 66, 0
7, 568080, Note_on_c, 0, 55, 101
7, 568080, Note_on_c, 0, 66, 101
7, 568196, Note_on_c, 0, 55, 0
7, 568200, Note_on_c, 0, 59, 101
7, 568316, Note_on_c, 0, 59, 0
7, 568316, Note_on_c, 0, 66, 0
7, 568320, Note_on_c, 0, 48, 101
7, 568320, Note_on_c, 0, 64, 101
7, 568436, Note_on_c, 0, 48, 0
7, 568440, Note_on_c, 0, 52, 101
7, 568556, Note_on_c, 0, 52, 0
7, 568560, Note_on_c, 0, 55, 101
7, 568676, Note_on_c, 0, 55, 0
7, 568680, Note_on_c, 0, 60, 101
7, 568796, Note_on_c, 0, 60, 0
7, 568796, Note_on_c, 0, 64, 0
7, 568800, Note_on_c, 0, 54, 101
7, 568800, Note_on_c, 0, 64, 101
7, 568916, Note_on_c, 0, 54, 0
7, 568920, Note_on_c, 0, 57, 101
7, 569036, Note_on_c, 0, 57, 0
7, 569036, Note_on_c, 0, 64, 0
7, 569040, Note_on_c, 0, 47, 101
7, 569040, Note_on_c, 0, 63, 101
7, 569156, Note_on_c, 0, 47, 0
7, 569160, Note_on_c, 0, 51, 101
7, 569276, Note_on_c, 0, 51, 0
7, 569280, Note_on_c, 0, 54, 101
7, 569396, Note_on_c, 0, 54, 0
7, 569400, Note_on_c, 0, 59, 101
7, 569516, Note_on_c, 0, 59, 0
7, 569516, Note_on_c, 0, 63, 0
7, 569520, Note_on_c, 0, 52, 101
7, 569520, Note_on_c, 0, 62, 101
7, 569636, Note_on_c, 0, 52, 0
7, 569640, Note_on_c, 0, 56, 101
7, 569756, Note_on_c, 0, 56, 0
7, 569756, Note_on_c, 0, 62, 0
7, 569760, Note_on_c, 0, 45, 101
7, 569760, Note_on_c, 0, 61, 101
7, 569876, Note_on_c, 0, 45, 0
7, 569880, Note_on_c, 0, 49, 101
7, 569996, Note_on_c, 0, 49, 0
7, 570000, Note_on_c, 0, 52, 101
7, 570116, Note_on_c, 0, 52, 0
7, 570120, Note_on_c, 0, 57, 101
7, 570236, Note_on_c, 0, 57, 0
7, 570236, Note_on_c, 0, 61, 0
7, 570240, Note_on_c, 0, 50, 101
7, 570240, Note_on_c, 0, 60, 101
7, 570356, Note_on_c, 0, 50, 0
7, 570360, Note_on_c, 0, 54, 101
7, 570476, Note_on_c, 0, 54, 0
7, 570476, Note_on_c, 0, 60, 0
7, 570480, Note_on_c, 0, 43, 101
7, 570480, Note_on_c, 0, 59, 101
7, 570596, Note_on_c, 0, 59, 0
7, 570600, Note_on_c, 0, 55, 101
7, 570716, Note_on_c, 0, 55, 0
7, 570716, Note_on_c, 0, 43, 0
7, 570720, Note_on_c, 0, 57, 101
7, 570836, Note_on_c, 0, 57, 0
7, 570840, Note_on_c, 0, 43, 101
7, 570840, Note_on_c, 0, 59, 101
7, 570956, Note_on_c, 0, 59, 0
7, 570956, Note_on_c, 0, 43, 0
7, 570960, Note_on_c, 0, 45, 101
7, 570960, Note_on_c, 0, 60, 101
7, 571076, Note_on_c, 0, 60, 0
7, 571076, Note_on_c, 0, 45, 0
7, 571080, Note_on_c, 0, 47, 101
7, 571080, Note_on_c, 0, 62, 101
7, 571196, Note_on_c, 0, 62, 0
7, 571196, Note_on_c, 0, 47, 0
7, 571200, Note_on_c, 0, 48, 101
7, 571200, Note_on_c, 0, 64, 101
7, 571316, Note_on_c, 0, 64, 0
7, 571316, Note_on_c, 0, 48, 0
7, 571320, Note_on_c, 0, 47, 101
7, 571320, Note_on_c, 0, 62, 101
7, 571436, Note_on_c, 0, 62, 0
7, 571436, Note_on_c, 0, 47, 0
7, 571440, Note_on_c, 0, 48, 101
7, 571440, Note_on_c, 0, 64, 101
7, 571556, Note_on_c, 0, 64, 0
7, 571556, Note_on_c, 0, 48, 0
7, 571560, Note_on_c, 0, 50, 101
7, 571560, Note_on_c, 0, 66, 101
7, 571676, Note_on_c, 0, 66, 0
7, 571676, Note_on_c, 0, 50, 0
7, 571680, Note_on_c, 0, 52, 101
7, 571680, Note_on_c, 0, 67, 101
7, 571796, Note_on_c, 0, 67, 0
7, 571796, Note_on_c, 0, 52, 0
7, 571800, Note_on_c, 0, 54, 101
7, 571800, Note_on_c, 0, 69, 101
7, 571916, Note_on_c, 0, 69, 0
7, 571916, Note_on_c, 0, 54, 0
7, 571920, Note_on_c, 0, 55, 101
7, 571920, Note_on_c, 0, 55, 101
7, 571920, Note_on_c, 0, 71, 101
7, 572036, Note_on_c, 0, 71, 0
7, 572036, Note_on_c, 0, 55, 0
7, 572036, Note_on_c, 0, 55, 0
7, 572040, Note_on_c, 0, 54, 101
7, 572040, Note_on_c, 0, 57, 101
7, 572156, Note_on_c, 0, 57, 0
7, 572156, Note_on_c, 0, 54, 0
7, 572160, Note_on_c, 0, 55, 101
7, 572160, Note_on_c, 0, 55, 101
7, 572160, Note_on_c, 0, 59, 101
7, 572276, Note_on_c, 0, 59, 0
7, 572276, Note_on_c, 0, 55, 0
7, 572276, Note_on_c, 0, 55, 0
7, 572280, Note_on_c, 0, 57, 101
7, 572280, Note_on_c, 0, 60, 101
7, 572396, Note_on_c, 0, 60, 0
7, 572396, Note_on_c, 0, 57, 0
7, 572400, Note_on_c, 0, 59, 101
7, 572400, Note_on_c, 0, 62, 101
7, 572516, Note_on_c, 0, 62, 0
7, 572516, Note_on_c, 0, 59, 0
7, 572520, Note_on_c, 0, 43, 101
7, 572636, Note_on_c, 0, 43, 0
7, 572640, Note_on_c, 0, 48, 101
7, 572640, Note_on_c, 0, 55, 101
7, 572640, Note_on_c, 0, 64, 101
7, 572756, Note_on_c, 0, 55, 0
7, 572756, Note_on_c, 0, 48, 0
7, 572760, Note_on_c, 0, 40, 101
7, 572876, Note_on_c, 0, 40, 0
7, 572876, Note_on_c, 0, 64, 0
7, 572880, Note_on_c, 0, 45, 101
7, 572880, Note_on_c, 0, 57, 101
7, 572996, Note_on_c, 0, 45, 0
7, 573000, Note_on_c, 0, 48, 101
7, 573116, Note_on_c, 0, 48, 0
7, 573120, Note_on_c, 0, 50, 101
7, 573120, Note_on_c, 0, 54, 101
7, 573236, Note_on_c, 0, 57, 0
7, 573240, Note_on_c, 0, 55, 101
7, 573356, Note_on_c, 0, 55, 0
7, 573356, Note_on_c, 0, 54, 0
7, 573356, Note_on_c, 0, 50, 0
7, 573360, Note_on_c, 0, 43, 101
7, 573360, Note_on_c, 0, 55, 101
7, 573476, Note_on_c, 0, 55, 0
7, 573480, Note_on_c, 0, 59, 101
7, 573596, Note_on_c, 0, 59, 0
7, 573600, Note_on_c, 0, 62, 101
7, 573716, Note_on_c, 0, 62, 0
7, 573720, Note_on_c, 0, 67, 101
7, 573836, Note_on_c, 0, 67, 0
7, 573836, Note_on_c, 0, 43, 0
7, 573840, Note_on_c, 0, 47, 101
7, 573840, Note_on_c, 0, 55, 101
7, 573956, Note_on_c, 0, 55, 0
7, 573960, Note_on_c, 0, 66, 101
7, 574076, Note_on_c, 0, 66, 0
7, 574076, Note_on_c, 0, 47, 0
7, 574080, Note_on_c, 0, 48, 101
7, 574080, Note_on_c, 0, 60, 101
7, 574080, Note_on_c, 0, 64, 101
7, 574196, Note_on_c, 0, 48, 0
7, 574200, Note_on_c, 0, 52, 101
7, 574316, Note_on_c, 0, 52, 0
7, 574320, Note_on_c, 0, 55, 101
7, 574436, Note_on_c, 0, 55, 0
7, 574436, Note_on_c, 0, 60, 0
7, 574440, Note_on_c, 0, 60, 101
7, 574556, Note_on_c, 0, 60, 0
7, 574556, Note_on_c, 0, 64, 0
7, 574560, Note_on_c, 0, 48, 101
7, 574676, Note_on_c, 0, 48, 0
7, 574680, Note_on_c, 0, 55, 101
7, 574796, Note_on_c, 0, 55, 0
7, 574800, Note_on_c, 0, 49, 101
7, 574800, Note_on_c, 0, 57, 101
7, 574916, Note_on_c, 0, 57, 0
7, 574920, Note_on_c, 0, 61, 101
7, 575036, Note_on_c, 0, 61, 0
7, 575040, Note_on_c, 0, 64, 101
7, 575156, Note_on_c, 0, 64, 0
7, 575160, Note_on_c, 0, 69, 101
7, 575276, Note_on_c, 0, 69, 0
7, 575276, Note_on_c, 0, 49, 0
7, 575280, Note_on_c, 0, 49, 101
7, 575280, Note_on_c, 0, 57, 101
7, 575396, Note_on_c, 0, 57, 0
7, 575400, Note_on_c, 0, 67, 101
7, 575516, Note_on_c, 0, 67, 0
7, 575516, Note_on_c, 0, 49, 0
7, 575520, Note_on_c, 0, 50, 101
7, 575520, Note_on_c, 0, 66, 101
7, 575636, Note_on_c, 0, 50, 0
7, 575640, Note_on_c, 0, 54, 101
7, 575756, Note_on_c, 0, 54, 0
7, 575760, Note_on_c, 0, 57, 101
7, 575876, Note_on_c, 0, 57, 0
7, 575880, Note_on_c, 0, 62, 101
7, 575996, Note_on_c, 0, 62, 0
7, 575996, Note_on_c, 0, 66, 0
7, 576000, Note_on_c, 0, 50, 101
7, 576116, Note_on_c, 0, 50, 0
7, 576120, Note_on_c, 0, 57, 101
7, 576236, Note_on_c, 0, 57, 0
7, 576240, Note_on_c, 0, 51, 101
7, 576240, Note_on_c, 0, 59, 101
7, 576356, Note_on_c, 0, 59, 0
7, 576360, Note_on_c, 0, 63, 101
7, 576476, Note_on_c, 0, 63, 0
7, 576480, Note_on_c, 0, 66, 101
7, 576596, Note_on_c, 0, 66, 0
7, 576600, Note_on_c, 0, 71, 101
7, 576716, Note_on_c, 0, 71, 0
7, 576716, Note_on_c, 0, 51, 0
7, 576720, Note_on_c, 0, 59, 101
7, 576836, Note_on_c, 0, 59, 0
7, 576840, Note_on_c, 0, 69, 101
7, 576956, Note_on_c, 0, 69, 0
7, 576960, Note_on_c, 0, 52, 101
7, 576960, Note_on_c, 0, 67, 101
7, 577076, Note_on_c, 0, 52, 0
7, 577080, Note_on_c, 0, 55, 101
7, 577196, Note_on_c, 0, 55, 0
7, 577200, Note_on_c, 0, 59, 101
7, 577316, Note_on_c, 0, 59, 0
7, 577316, Note_on_c, 0, 67, 0
7, 577320, Note_on_c, 0, 64, 101
7, 577320, Note_on_c, 0, 72, 101
7, 577436, Note_on_c, 0, 72, 0
7, 577436, Note_on_c, 0, 64, 0
7, 577440, Note_on_c, 0, 50, 101
7, 577440, Note_on_c, 0, 66, 101
7, 577556, Note_on_c, 0, 66, 0
7, 577556, Note_on_c, 0, 50, 0
7, 577560, Note_on_c, 0, 62, 101
7, 577560, Note_on_c, 0, 71, 101
7, 577676, Note_on_c, 0, 71, 0
7, 577676, Note_on_c, 0, 62, 0
7, 577680, Note_on_c, 0, 48, 101
7, 577680, Note_on_c, 0, 64, 101
7, 577796, Note_on_c, 0, 48, 0
7, 577800, Note_on_c, 0, 52, 101
7, 577916, Note_on_c, 0, 52, 0
7, 577920, Note_on_c, 0, 57, 101
7, 578036, Note_on_c, 0, 57, 0
7, 578036, Note_on_c, 0, 64, 0
7, 578040, Note_on_c, 0, 60, 101
7, 578040, Note_on_c, 0, 69, 101
7, 578156, Note_on_c, 0, 69, 0
7, 578156, Note_on_c, 0, 60, 0
7, 578160, Note_on_c, 0, 47, 101
7, 578160, Note_on_c, 0, 62, 101
7, 578276, Note_on_c, 0, 62, 0
7, 578276, Note_on_c, 0, 47, 0
7, 578280, Note_on_c, 0, 59, 101
7, 578280, Note_on_c, 0, 67, 101
7, 578280, Note_on_c, 0, 67, 101
7, 578396, Note_on_c, 0, 67, 0
7, 578396, Note_on_c, 0, 67, 0
7, 578396, Note_on_c, 0, 59, 0
7, 578400, Note_on_c, 0, 45, 101
7, 578400, Note_on_c, 0, 60, 101
7, 578516, Note_on_c, 0, 45, 0
7, 578520, Note_on_c, 0, 48, 101
7, 578636, Note_on_c, 0, 48, 0
7, 578640, Note_on_c, 0, 53, 101
7, 578756, Note_on_c, 0, 53, 0
7, 578756, Note_on_c, 0, 60, 0
7, 578760, Note_on_c, 0, 57, 101
7, 578760, Note_on_c, 0, 65, 101
7, 578876, Note_on_c, 0, 65, 0
7, 578876, Note_on_c, 0, 57, 0
7, 578880, Note_on_c, 0, 43, 101
7, 578880, Note_on_c, 0, 59, 101
7, 578996, Note_on_c, 0, 59, 0
7, 578996, Note_on_c, 0, 43, 0
7, 579000, Note_on_c, 0, 55, 101
7, 579000, Note_on_c, 0, 64, 101
7, 579116, Note_on_c, 0, 64, 0
7, 579116, Note_on_c, 0, 55, 0
7, 579120, Note_on_c, 0, 54, 101
7, 579120, Note_on_c, 0, 63, 101
7, 579236, Note_on_c, 0, 63, 0
7, 579240, Note_on_c, 0, 72, 101
7, 579356, Note_on_c, 0, 72, 0
7, 579360, Note_on_c, 0, 69, 101
7, 579476, Note_on_c, 0, 69, 0
7, 579480, Note_on_c, 0, 66, 101
7, 579596, Note_on_c, 0, 66, 0
7, 579596, Note_on_c, 0, 54, 0
7, 579600, Note_on_c, 0, 51, 101
7, 579600, Note_on_c, 0, 71, 101
7, 579716, Note_on_c, 0, 71, 0
7, 579720, Note_on_c, 0, 66, 101
7, 579836, Note_on_c, 0, 66, 0
7, 579836, Note_on_c, 0, 51, 0
7, 579840, Note_on_c, 0, 52, 101
7, 579840, Note_on_c, 0, 67, 101
7, 579956, Note_on_c, 0, 67, 0
7, 579960, Note_on_c, 0, 71, 101
7, 580076, Note_on_c, 0, 71, 0
7, 580080, Note_on_c, 0, 67, 101
7, 580196, Note_on_c, 0, 67, 0
7, 580200, Note_on_c, 0, 64, 101
7, 580316, Note_on_c, 0, 64, 0
7, 580316, Note_on_c, 0, 52, 0
7, 580320, Note_on_c, 0, 49, 101
7, 580320, Note_on_c, 0, 69, 101
7, 580436, Note_on_c, 0, 69, 0
7, 580440, Note_on_c, 0, 64, 101
7, 580556, Note_on_c, 0, 64, 0
7, 580556, Note_on_c, 0, 49, 0
7, 580560, Note_on_c, 0, 50, 101
7, 580560, Note_on_c, 0, 66, 101
7, 580676, Note_on_c, 0, 66, 0
7, 580680, Note_on_c, 0, 69, 101
7, 580796, Note_on_c, 0, 69, 0
7, 580796, Note_on_c, 0, 50, 0
7, 580800, Note_on_c, 0, 57, 101
7, 580800, Note_on_c, 0, 66, 101
7, 580916, Note_on_c, 0, 66, 0
7, 580920, Note_on_c, 0, 62, 101
7, 581036, Note_on_c, 0, 62, 0
7, 581036, Note_on_c, 0, 57, 0
7, 581040, Note_on_c, 0, 47, 101
7, 581040, Note_on_c, 0, 67, 101
7, 581156, Note_on_c, 0, 67, 0
7, 581160, Note_on_c, 0, 62, 101
7, 581276, Note_on_c, 0, 62, 0
7, 581276, Note_on_c, 0, 47, 0
7, 581280, Note_on_c, 0, 48, 101
7, 581280, Note_on_c, 0, 64, 101
7, 581396, Note_on_c, 0, 64, 0
7, 581400, Note_on_c, 0, 67, 101
7, 581516, Note_on_c, 0, 67, 0
7, 581516, Note_on_c, 0, 48, 0
7, 581520, Note_on_c, 0, 55, 101
7, 581520, Note_on_c, 0, 64, 101
7, 581636, Note_on_c, 0, 64, 0
7, 581640, Note_on_c, 0, 60, 101
7, 581756, Note_on_c, 0, 60, 0
7, 581756, Note_on_c, 0, 55, 0
7, 581760, Note_on_c, 0, 45, 101
7, 581760, Note_on_c, 0, 65, 101
7, 581876, Note_on_c, 0, 65, 0
7, 581880, Note_on_c, 0, 69, 101
7, 581996, Note_on_c, 0, 69, 0
7, 581996, Note_on_c, 0, 45, 0
7, 582000, Note_on_c, 0, 47, 101
7, 582000, Note_on_c, 0, 63, 101
7, 582116, Note_on_c, 0, 63, 0
7, 582120, Note_on_c, 0, 66, 101
7, 582236, Note_on_c, 0, 66, 0
7, 582236, Note_on_c, 0, 47, 0
7, 582240, Note_on_c, 0, 54, 101
7, 582240, Note_on_c, 0, 63, 101
7, 582356, Note_on_c, 0, 63, 0
7, 582360, Note_on_c, 0, 59, 101
7, 582476, Note_on_c, 0, 59, 0
7, 582476, Note_on_c, 0, 54, 0
7, 582480, Note_on_c, 0, 43, 101
7, 582480, Note_on_c, 0, 64, 101
7, 582596, Note_on_c, 0, 64, 0
7, 582600, Note_on_c, 0, 67, 101
7, 582716, Note_on_c, 0, 67, 0
7, 582716, Note_on_c, 0, 43, 0
7, 582720, Note_on_c, 0, 45, 101
7, 582720, Note_on_c, 0, 60, 101
7, 582836, Note_on_c, 0, 60, 0
7, 582840, Note_on_c, 0, 72, 101
7, 582956, Note_on_c, 0, 72, 0
7, 582960, Note_on_c, 0, 69, 101
7, 583076, Note_on_c, 0, 69, 0
7, 583080, Note_on_c, 0, 65, 101
7, 583196, Note_on_c, 0, 65, 0
7, 583196, Note_on_c, 0, 45, 0
7, 583200, Note_on_c, 0, 57, 101
7, 583200, Note_on_c, 0, 72, 101
7, 583316, Note_on_c, 0, 72, 0
7, 583320, Note_on_c, 0, 64, 101
7, 583436, Note_on_c, 0, 64, 0
7, 583436, Note_on_c, 0, 57, 0
7, 583440, Note_on_c, 0, 59, 101
7, 583440, Note_on_c, 0, 63, 101
7, 583556, Note_on_c, 0, 59, 0
7, 583560, Note_on_c, 0, 47, 101
7, 583676, Note_on_c, 0, 47, 0
7, 583680, Note_on_c, 0, 49, 101
7, 583796, Note_on_c, 0, 49, 0
7, 583800, Note_on_c, 0, 51, 101
7, 583916, Note_on_c, 0, 51, 0
7, 583916, Note_on_c, 0, 63, 0
7, 583920, Note_on_c, 0, 52, 101
7, 584036, Note_on_c, 0, 52, 0
7, 584040, Note_on_c, 0, 54, 101
7, 584156, Note_on_c, 0, 54, 0
7, 584160, Note_on_c, 0, 51, 100
7, 584160, Note_on_c, 0, 55, 100
7, 584276, Note_on_c, 0, 51, 0
7, 584280, Note_on_c, 0, 59, 100
7, 584396, Note_on_c, 0, 59, 0
7, 584400, Note_on_c, 0, 61, 100
7, 584516, Note_on_c, 0, 61, 0
7, 584520, Note_on_c, 0, 63, 100
7, 584636, Note_on_c, 0, 63, 0
7, 584636, Note_on_c, 0, 55, 0
7, 584640, Note_on_c, 0, 54, 100
7, 584640, Note_on_c, 0, 64, 100
7, 584756, Note_on_c, 0, 64, 0
7, 584760, Note_on_c, 0, 66, 100
7, 584876, Note_on_c, 0, 66, 0
7, 584876, Note_on_c, 0, 54, 0
7, 584880, Note_on_c, 0, 52, 100
7, 584880, Note_on_c, 0, 67, 100
7, 584996, Note_on_c, 0, 67, 0
7, 585000, Note_on_c, 0, 55, 100
7, 585116, Note_on_c, 0, 55, 0
7, 585120, Note_on_c, 0, 57, 100
7, 585236, Note_on_c, 0, 57, 0
7, 585240, Note_on_c, 0, 59, 100
7, 585356, Note_on_c, 0, 59, 0
7, 585356, Note_on_c, 0, 52, 0
7, 585360, Note_on_c, 0, 50, 100
7, 585360, Note_on_c, 0, 60, 100
7, 585476, Note_on_c, 0, 60, 0
7, 585480, Note_on_c, 0, 62, 100
7, 585596, Note_on_c, 0, 62, 0
7, 585596, Note_on_c, 0, 50, 0
7, 585600, Note_on_c, 0, 48, 100
7, 585600, Note_on_c, 0, 64, 100
7, 585716, Note_on_c, 0, 64, 0
7, 585720, Note_on_c, 0, 52, 100
7, 585836, Note_on_c, 0, 52, 0
7, 585840, Note_on_c, 0, 54, 100
7, 585956, Note_on_c, 0, 54, 0
7, 585960, Note_on_c, 0, 55, 100
7, 586076, Note_on_c, 0, 55, 0
7, 586076, Note_on_c, 0, 48, 0
7, 586080, Note_on_c, 0, 47, 100
7, 586080, Note_on_c, 0, 57, 100
7, 586196, Note_on_c, 0, 57, 0
7, 586200, Note_on_c, 0, 59, 100
7, 586316, Note_on_c, 0, 59, 0
7, 586316, Note_on_c, 0, 47, 0
7, 586320, Note_on_c, 0, 45, 100
7, 586320, Note_on_c, 0, 60, 100
7, 586436, Note_on_c, 0, 60, 0
7, 586440, Note_on_c, 0, 62, 100
7, 586556, Note_on_c, 0, 62, 0
7, 586556, Note_on_c, 0, 45, 0
7, 586560, Note_on_c, 0, 48, 100
7, 586560, Note_on_c, 0, 64, 100
7, 586676, Note_on_c, 0, 64, 0
7, 586680, Note_on_c, 0, 62, 100
7, 586796, Note_on_c, 0, 62, 0
7, 586796, Note_on_c, 0, 48, 0
7, 586800, Note_on_c, 0, 43, 100
7, 586800, Note_on_c, 0, 52, 100
7, 586800, Note_on_c, 0, 60, 100
7, 586916, Note_on_c, 0, 60, 0
7, 586920, Note_on_c, 0, 59, 100
7, 587036, Note_on_c, 0, 59, 0
7, 587036, Note_on_c, 0, 52, 0
7, 587036, Note_on_c, 0, 43, 0
7, 587040, Note_on_c, 0, 45, 100
7, 587040, Note_on_c, 0, 57, 100
7, 587156, Note_on_c, 0, 57, 0
7, 587160, Note_on_c, 0, 55, 100
7, 587276, Note_on_c, 0, 55, 0
7, 587276, Note_on_c, 0, 45, 0
7, 587280, Note_on_c, 0, 47, 100
7, 587280, Note_on_c, 0, 54, 100
7, 587396, Note_on_c, 0, 54, 0
7, 587400, Note_on_c, 0, 52, 100
7, 587516, Note_on_c, 0, 52, 0
7, 587516, Note_on_c, 0, 47, 0
7, 587520, Note_on_c, 0, 47, 100
7, 587520, Note_on_c, 0, 54, 100
7, 587636, Note_on_c, 0, 54, 0
7, 587640, Note_on_c, 0, 51, 100
7, 587756, Note_on_c, 0, 51, 0
7, 587756, Note_on_c, 0, 47, 0
7, 587760, Note_on_c, 0, 40, 100
7, 587760, Note_on_c, 0, 52, 100
7, 587876, Note_on_c, 0, 52, 0
7, 587880, Note_on_c, 0, 59, 100
7, 587996, Note_on_c, 0, 59, 0
7, 587996, Note_on_c, 0, 40, 0
7, 588000, Note_on_c, 0, 40, 100
7, 588000, Note_on_c, 0, 56, 100
7, 588116, Note_on_c, 0, 56, 0
7, 588120, Note_on_c, 0, 59, 100
7, 588236, Note_on_c, 0, 59, 0
7, 588236, Note_on_c, 0, 40, 0
7, 588240, Note_on_c, 0, 40, 100
7, 588240, Note_on_c, 0, 64, 100
7, 588356, Note_on_c, 0, 64, 0
7, 588360, Note_on_c, 0, 59, 100
7, 588476, Note_on_c, 0, 59, 0
7, 588476, Note_on_c, 0, 40, 0
7, 588480, Note_on_c, 0, 40, 100
7, 588480, Note_on_c, 0, 60, 100
7, 588596, Note_on_c, 0, 60, 0
7, 588600, Note_on_c, 0, 57, 100
7, 588716, Note_on_c, 0, 57, 0
7, 588716, Note_on_c, 0, 40, 0
7, 588720, Note_on_c, 0, 40, 100
7, 588720, Note_on_c, 0, 60, 100
7, 588836, Note_on_c, 0, 60, 0
7, 588840, Note_on_c, 0, 64, 100
7, 588956, Note_on_c, 0, 64, 0
7, 588956, Note_on_c, 0, 40, 0
7, 588960, Note_on_c, 0, 40, 100
7, 588960, Note_on_c, 0, 69, 100
7, 589076, Note_on_c, 0, 69, 0
7, 589080, Note_on_c, 0, 63, 100
7, 589196, Note_on_c, 0, 63, 0
7, 589196, Note_on_c, 0, 40, 0
7, 589200, Note_on_c, 0, 40, 101
7, 589200, Note_on_c, 0, 51, 101
7, 589200, Note_on_c, 0, 64, 101
7, 589316, Note_on_c, 0, 51, 0
7, 589320, Note_on_c, 0, 60, 101
7, 589320, Note_on_c, 0, 69, 101
7, 589436, Note_on_c, 0, 69, 0
7, 589436, Note_on_c, 0, 60, 0
7, 589440, Note_on_c, 0, 59, 101
7, 589440, Note_on_c, 0, 68, 101
7, 589556, Note_on_c, 0, 68, 0
7, 589556, Note_on_c, 0, 59, 0
7, 589560, Note_on_c, 0, 57, 101
7, 589560, Note_on_c, 0, 66, 101
7, 589676, Note_on_c, 0, 66, 0
7, 589676, Note_on_c, 0, 40, 0
7, 589676, Note_on_c, 0, 64, 0
7, 589676, Note_on_c, 0, 57, 0
7, 589680, Note_on_c, 0, 55, 101
7, 589680, Note_on_c, 0, 64, 101
7, 589796, Note_on_c, 0, 64, 0
7, 589796, Note_on_c, 0, 55, 0
7, 589800, Note_on_c, 0, 54, 101
7, 589800, Note_on_c, 0, 63, 101
7, 589916, Note_on_c, 0, 63, 0
7, 589916, Note_on_c, 0, 54, 0
7, 589920, Note_on_c, 0, 40, 101
7, 589920, Note_on_c, 0, 56, 101
7, 589920, Note_on_c, 0, 59, 101
7, 589920, Note_on_c, 0, 64, 101
7, 590636, Note_on_c, 0, 64, 0
7, 590636, Note_on_c, 0, 40, 0
7, 590636, Note_on_c, 0, 56, 0
7, 590636, Note_on_c, 0, 59, 0
7, 590760, Note_on_c, 0, 47, 101
7, 590876, Note_on_c, 0, 47, 0
7, 590880, Note_on_c, 0, 49, 101
7, 590996, Note_on_c, 0, 49, 0
7, 591000, Note_on_c, 0, 51, 101
7, 591116, Note_on_c, 0, 51, 0
7, 591120, Note_on_c, 0, 52, 101
7, 591236, Note_on_c, 0, 52, 0
7, 591240, Note_on_c, 0, 54, 101
7, 591356, Note_on_c, 0, 54, 0
7, 591360, Note_on_c, 0, 51, 99
7, 591360, Note_on_c, 0, 55, 99
7, 591476, Note_on_c, 0, 51, 0
7, 591480, Note_on_c, 0, 40, 99
7, 591596, Note_on_c, 0, 40, 0
7, 591600, Note_on_c, 0, 42, 99
7, 591716, Note_on_c, 0, 42, 0
7, 591720, Note_on_c, 0, 43, 99
7, 591836, Note_on_c, 0, 43, 0
7, 591836, Note_on_c, 0, 55, 0
7, 591840, Note_on_c, 0, 45, 99
7, 591840, Note_on_c, 0, 54, 99
7, 591956, Note_on_c, 0, 45, 0
7, 591960, Note_on_c, 0, 47, 99
7, 592076, Note_on_c, 0, 47, 0
7, 592076, Note_on_c, 0, 54, 0
7, 592080, Note_on_c, 0, 48, 100
7, 592080, Note_on_c, 0, 51, 100
7, 592080, Note_on_c, 0, 52, 99
7, 592196, Note_on_c, 0, 51, 0
7, 592200, Note_on_c, 0, 64, 100
7, 592316, Note_on_c, 0, 64, 0
7, 592320, Note_on_c, 0, 66, 100
7, 592436, Note_on_c, 0, 66, 0
7, 592440, Note_on_c, 0, 67, 100
7, 592556, Note_on_c, 0, 67, 0
7, 592556, Note_on_c, 0, 52, 0
7, 592556, Note_on_c, 0, 48, 0
7, 592560, Note_on_c, 0, 47, 100
7, 592560, Note_on_c, 0, 69, 100
7, 592676, Note_on_c, 0, 69, 0
7, 592680, Note_on_c, 0, 71, 100
7, 592796, Note_on_c, 0, 71, 0
7, 592796, Note_on_c, 0, 47, 0
7, 592800, Note_on_c, 0, 45, 100
7, 592800, Note_on_c, 0, 72, 100
7, 592916, Note_on_c, 0, 45, 0
7, 592920, Note_on_c, 0, 54, 100
7, 593036, Note_on_c, 0, 54, 0
7, 593036, Note_on_c, 0, 72, 0
7, 593040, Note_on_c, 0, 55, 100
7, 593040, Note_on_c, 0, 71, 100
7, 593156, Note_on_c, 0, 55, 0
7, 593160, Note_on_c, 0, 57, 100
7, 593276, Note_on_c, 0, 57, 0
7, 593276, Note_on_c, 0, 71, 0
7, 593280, Note_on_c, 0, 59, 100
7, 593280, Note_on_c, 0, 67, 100
7, 593396, Note_on_c, 0, 59, 0
7, 593400, Note_on_c, 0, 60, 100
7, 593516, Note_on_c, 0, 60, 0
7, 593516, Note_on_c, 0, 67, 0
7, 593520, Note_on_c, 0, 62, 100
7, 593520, Note_on_c, 0, 69, 100
7, 593636, Note_on_c, 0, 62, 0
7, 593640, Note_on_c, 0, 67, 100
7, 593756, Note_on_c, 0, 67, 0
7, 593760, Note_on_c, 0, 66, 100
7, 593876, Note_on_c, 0, 66, 0
7, 593880, Note_on_c, 0, 64, 100
7, 593996, Note_on_c, 0, 64, 0
7, 594000, Note_on_c, 0, 62, 100
7, 594116, Note_on_c, 0, 62, 0
7, 594120, Note_on_c, 0, 60, 100
7, 594236, Note_on_c, 0, 60, 0
7, 594236, Note_on_c, 0, 69, 0
7, 594240, Note_on_c, 0, 51, 101
7, 594240, Note_on_c, 0, 59, 100
7, 594356, Note_on_c, 0, 51, 0
7, 594360, Note_on_c, 0, 62, 101
7, 594476, Note_on_c, 0, 62, 0
7, 594480, Note_on_c, 0, 64, 101
7, 594596, Note_on_c, 0, 64, 0
7, 594600, Note_on_c, 0, 66, 101
7, 594716, Note_on_c, 0, 66, 0
7, 594716, Note_on_c, 0, 59, 0
7, 594720, Note_on_c, 0, 57, 101
7, 594720, Note_on_c, 0, 67, 101
7, 594836, Note_on_c, 0, 67, 0
7, 594840, Note_on_c, 0, 69, 101
7, 594956, Note_on_c, 0, 69, 0
7, 594956, Note_on_c, 0, 57, 0
7, 594960, Note_on_c, 0, 55, 101
7, 594960, Note_on_c, 0, 71, 101
7, 595076, Note_on_c, 0, 71, 0
7, 595080, Note_on_c, 0, 59, 101
7, 595196, Note_on_c, 0, 59, 0
7, 595200, Note_on_c, 0, 60, 101
7, 595316, Note_on_c, 0, 60, 0
7, 595320, Note_on_c, 0, 62, 101
7, 595436, Note_on_c, 0, 62, 0
7, 595436, Note_on_c, 0, 55, 0
7, 595440, Note_on_c, 0, 54, 101
7, 595440, Note_on_c, 0, 64, 101
7, 595556, Note_on_c, 0, 64, 0
7, 595560, Note_on_c, 0, 66, 101
7, 595676, Note_on_c, 0, 66, 0
7, 595676, Note_on_c, 0, 54, 0
7, 595680, Note_on_c, 0, 52, 101
7, 595680, Note_on_c, 0, 67, 101
7, 595796, Note_on_c, 0, 52, 0
7, 595800, Note_on_c, 0, 55, 101
7, 595916, Note_on_c, 0, 55, 0
7, 595920, Note_on_c, 0, 59, 101
7, 596036, Note_on_c, 0, 59, 0
7, 596040, Note_on_c, 0, 64, 101
7, 596156, Note_on_c, 0, 64, 0
7, 596156, Note_on_c, 0, 67, 0
7, 596160, Note_on_c, 0, 57, 101
7, 596160, Note_on_c, 0, 67, 101
7, 596276, Note_on_c, 0, 57, 0
7, 596280, Note_on_c, 0, 60, 101
7, 596396, Note_on_c, 0, 60, 0
7, 596396, Note_on_c, 0, 67, 0
7, 596400, Note_on_c, 0, 50, 101
7, 596400, Note_on_c, 0, 66, 101
7, 596516, Note_on_c, 0, 50, 0
7, 596520, Note_on_c, 0, 54, 101
7, 596636, Note_on_c, 0, 54, 0
7, 596640, Note_on_c, 0, 57, 101
7, 596756, Note_on_c, 0, 57, 0
7, 596760, Note_on_c, 0, 62, 101
7, 596876, Note_on_c, 0, 62, 0
7, 596876, Note_on_c, 0, 66, 0
7, 596880, Note_on_c, 0, 55, 101
7, 596880, Note_on_c, 0, 66, 101
7, 596996, Note_on_c, 0, 55, 0
7, 597000, Note_on_c, 0, 59, 101
7, 597116, Note_on_c, 0, 59, 0
7, 597116, Note_on_c, 0, 66, 0
7, 597120, Note_on_c, 0, 48, 101
7, 597120, Note_on_c, 0, 64, 101
7, 597236, Note_on_c, 0, 48, 0
7, 597240, Note_on_c, 0, 52, 101
7, 597356, Note_on_c, 0, 52, 0
7, 597360, Note_on_c, 0, 55, 101
7, 597476, Note_on_c, 0, 55, 0
7, 597480, Note_on_c, 0, 60, 101
7, 597596, Note_on_c, 0, 60, 0
7, 597596, Note_on_c, 0, 64, 0
7, 597600, Note_on_c, 0, 54, 101
7, 597600, Note_on_c, 0, 64, 101
7, 597716, Note_on_c, 0, 54, 0
7, 597720, Note_on_c, 0, 57, 101
7, 597836, Note_on_c, 0, 57, 0
7, 597836, Note_on_c, 0, 64, 0
7, 597840, Note_on_c, 0, 47, 101
7, 597840, Note_on_c, 0, 63, 101
7, 597956, Note_on_c, 0, 47, 0
7, 597960, Note_on_c, 0, 51, 101
7, 598076, Note_on_c, 0, 51, 0
7, 598080, Note_on_c, 0, 54, 101
7, 598196, Note_on_c, 0, 54, 0
7, 598200, Note_on_c, 0, 59, 101
7, 598316, Note_on_c, 0, 59, 0
7, 598316, Note_on_c, 0, 63, 0
7, 598320, Note_on_c, 0, 52, 101
7, 598320, Note_on_c, 0, 62, 101
7, 598436, Note_on_c, 0, 52, 0
7, 598440, Note_on_c, 0, 56, 101
7, 598556, Note_on_c, 0, 56, 0
7, 598556, Note_on_c, 0, 62, 0
7, 598560, Note_on_c, 0, 45, 101
7, 598560, Note_on_c, 0, 61, 101
7, 598676, Note_on_c, 0, 45, 0
7, 598680, Note_on_c, 0, 49, 101
7, 598796, Note_on_c, 0, 49, 0
7, 598800, Note_on_c, 0, 52, 101
7, 598916, Note_on_c, 0, 52, 0
7, 598920, Note_on_c, 0, 57, 101
7, 599036, Note_on_c, 0, 57, 0
7, 599036, Note_on_c, 0, 61, 0
7, 599040, Note_on_c, 0, 50, 101
7, 599040, Note_on_c, 0, 60, 101
7, 599156, Note_on_c, 0, 50, 0
7, 599160, Note_on_c, 0, 54, 101
7, 599276, Note_on_c, 0, 54, 0
7, 599276, Note_on_c, 0, 60, 0
7, 599280, Note_on_c, 0, 43, 101
7, 599280, Note_on_c, 0, 59, 101
7, 599396, Note_on_c, 0, 59, 0
7, 599400, Note_on_c, 0, 55, 101
7, 599516, Note_on_c, 0, 55, 0
7, 599516, Note_on_c, 0, 43, 0
7, 599520, Note_on_c, 0, 57, 101
7, 599636, Note_on_c, 0, 57, 0
7, 599640, Note_on_c, 0, 43, 101
7, 599640, Note_on_c, 0, 59, 101
7, 599756, Note_on_c, 0, 59, 0
7, 599756, Note_on_c, 0, 43, 0
7, 599760, Note_on_c, 0, 45, 101
7, 599760, Note_on_c, 0, 60, 101
7, 599876, Note_on_c, 0, 60, 0
7, 599876, Note_on_c, 0, 45, 0
7, 599880, Note_on_c, 0, 47, 101
7, 599880, Note_on_c, 0, 62, 101
7, 599996, Note_on_c, 0, 62, 0
7, 599996, Note_on_c, 0, 47, 0
7, 600000, Note_on_c, 0, 48, 101
7, 600000, Note_on_c, 0, 64, 101
7, 600116, Note_on_c, 0, 64, 0
7, 600116, Note_on_c, 0, 48, 0
7, 600120, Note_on_c, 0, 47, 101
7, 600120, Note_on_c, 0, 62, 101
7, 600236, Note_on_c, 0, 62, 0
7, 600236, Note_on_c, 0, 47, 0
7, 600240, Note_on_c, 0, 48, 101
7, 600240, Note_on_c, 0, 64, 101
7, 600356, Note_on_c, 0, 64, 0
7, 600356, Note_on_c, 0, 48, 0
7, 600360, Note_on_c, 0, 50, 101
7, 600360, Note_on_c, 0, 66, 101
7, 600476, Note_on_c, 0, 66, 0
7, 600476, Note_on_c, 0, 50, 0
7, 600480, Note_on_c, 0, 52, 101
7, 600480, Note_on_c, 0, 67, 101
7, 600596, Note_on_c, 0, 67, 0
7, 600596, Note_on_c, 0, 52, 0
7, 600600, Note_on_c, 0, 54, 101
7, 600600, Note_on_c, 0, 69, 101
7, 600716, Note_on_c, 0, 69, 0
7, 600716, Note_on_c, 0, 54, 0
7, 600720, Note_on_c, 0, 55, 101
7, 600720, Note_on_c, 0, 55, 101
7, 600720, Note_on_c, 0, 71, 101
7, 600836, Note_on_c, 0, 71, 0
7, 600836, Note_on_c, 0, 55, 0
7, 600836, Note_on_c, 0, 55, 0
7, 600840, Note_on_c, 0, 54, 101
7, 600840, Note_on_c, 0, 57, 101
7, 600956, Note_on_c, 0, 57, 0
7, 600956, Note_on_c, 0, 54, 0
7, 600960, Note_on_c, 0, 55, 101
7, 600960, Note_on_c, 0, 55, 101
7, 600960, Note_on_c, 0, 59, 101
7, 601076, Note_on_c, 0, 59, 0
7, 601076, Note_on_c, 0, 55, 0
7, 601076, Note_on_c, 0, 55, 0
7, 601080, Note_on_c, 0, 57, 101
7, 601080, Note_on_c, 0, 60, 101
7, 601196, Note_on_c, 0, 60, 0
7, 601196, Note_on_c, 0, 57, 0
7, 601200, Note_on_c, 0, 59, 101
7, 601200, Note_on_c, 0, 62, 101
7, 601316, Note_on_c, 0, 62, 0
7, 601316, Note_on_c, 0, 59, 0
7, 601320, Note_on_c, 0, 43, 101
7, 601436, Note_on_c, 0, 43, 0
7, 601440, Note_on_c, 0, 48, 101
7, 601440, Note_on_c, 0, 55, 101
7, 601440, Note_on_c, 0, 64, 101
7, 601556, Note_on_c, 0, 55, 0
7, 601556, Note_on_c, 0, 48, 0
7, 601560, Note_on_c, 0, 40, 101
7, 601676, Note_on_c, 0, 40, 0
7, 601676, Note_on_c, 0, 64, 0
7, 601680, Note_on_c, 0, 45, 101
7, 601680, Note_on_c, 0, 57, 101
7, 601796, Note_on_c, 0, 45, 0
7, 601800, Note_on_c, 0, 48, 101
7, 601916, Note_on_c, 0, 48, 0
7, 601920, Note_on_c, 0, 50, 101
7, 601920, Note_on_c, 0, 54, 101
7, 602036, Note_on_c, 0, 57, 0
7, 602040, Note_on_c, 0, 55, 101
7, 602156, Note_on_c, 0, 55, 0
7, 602156, Note_on_c, 0, 54, 0
7, 602156, Note_on_c, 0, 50, 0
7, 602160, Note_on_c, 0, 43, 101
7, 602160, Note_on_c, 0, 55, 101
7, 602276, Note_on_c, 0, 55, 0
7, 602280, Note_on_c, 0, 59, 101
7, 602396, Note_on_c, 0, 59, 0
7, 602400, Note_on_c, 0, 62, 101
7, 602516, Note_on_c, 0, 62, 0
7, 602520, Note_on_c, 0, 67, 101
7, 602636, Note_on_c, 0, 67, 0
7, 602636, Note_on_c, 0, 43, 0
7, 602640, Note_on_c, 0, 47, 101
7, 602640, Note_on_c, 0, 55, 101
7, 602756, Note_on_c, 0, 55, 0
7, 602760, Note_on_c, 0, 66, 101
7, 602876, Note_on_c, 0, 66, 0
7, 602876, Note_on_c, 0, 47, 0
7, 602880, Note_on_c, 0, 48, 101
7, 602880, Note_on_c, 0, 60, 101
7, 602880, Note_on_c, 0, 64, 101
7, 602996, Note_on_c, 0, 48, 0
7, 603000, Note_on_c, 0, 52, 101
7, 603116, Note_on_c, 0, 52, 0
7, 603120, Note_on_c, 0, 55, 101
7, 603236, Note_on_c, 0, 55, 0
7, 603236, Note_on_c, 0, 60, 0
7, 603240, Note_on_c, 0, 60, 101
7, 603356, Note_on_c, 0, 60, 0
7, 603356, Note_on_c, 0, 64, 0
7, 603360, Note_on_c, 0, 48, 101
7, 603476, Note_on_c, 0, 48, 0
7, 603480, Note_on_c, 0, 55, 101
7, 603596, Note_on_c, 0, 55, 0
7, 603600, Note_on_c, 0, 49, 101
7, 603600, Note_on_c, 0, 57, 101
7, 603716, Note_on_c, 0, 57, 0
7, 603720, Note_on_c, 0, 61, 101
7, 603836, Note_on_c, 0, 61, 0
7, 603840, Note_on_c, 0, 64, 101
7, 603956, Note_on_c, 0, 64, 0
7, 603960, Note_on_c, 0, 69, 101
7, 604076, Note_on_c, 0, 69, 0
7, 604076, Note_on_c, 0, 49, 0
7, 604080, Note_on_c, 0, 49, 101
7, 604080, Note_on_c, 0, 57, 101
7, 604196, Note_on_c, 0, 57, 0
7, 604200, Note_on_c, 0, 67, 101
7, 604316, Note_on_c, 0, 67, 0
7, 604316, Note_on_c, 0, 49, 0
7, 604320, Note_on_c, 0, 50, 101
7, 604320, Note_on_c, 0, 66, 101
7, 604436, Note_on_c, 0, 50, 0
7, 604440, Note_on_c, 0, 54, 101
7, 604556, Note_on_c, 0, 54, 0
7, 604560, Note_on_c, 0, 57, 101
7, 604676, Note_on_c, 0, 57, 0
7, 604680, Note_on_c, 0, 62, 101
7, 604796, Note_on_c, 0, 62, 0
7, 604796, Note_on_c, 0, 66, 0
7, 604800, Note_on_c, 0, 50, 101
7, 604916, Note_on_c, 0, 50, 0
7, 604920, Note_on_c, 0, 57, 101
7, 605036, Note_on_c, 0, 57, 0
7, 605040, Note_on_c, 0, 51, 101
7, 605040, Note_on_c, 0, 59, 101
7, 605156, Note_on_c, 0, 59, 0
7, 605160, Note_on_c, 0, 63, 101
7, 605276, Note_on_c, 0, 63, 0
7, 605280, Note_on_c, 0, 66, 101
7, 605396, Note_on_c, 0, 66, 0
7, 605400, Note_on_c, 0, 71, 101
7, 605516, Note_on_c, 0, 71, 0
7, 605516, Note_on_c, 0, 51, 0
7, 605520, Note_on_c, 0, 59, 101
7, 605636, Note_on_c, 0, 59, 0
7, 605640, Note_on_c, 0, 69, 101
7, 605756, Note_on_c, 0, 69, 0
7, 605760, Note_on_c, 0, 52, 101
7, 605760, Note_on_c, 0, 67, 101
7, 605876, Note_on_c, 0, 52, 0
7, 605880, Note_on_c, 0, 55, 101
7, 605996, Note_on_c, 0, 55, 0
7, 606000, Note_on_c, 0, 59, 101
7, 606116, Note_on_c, 0, 59, 0
7, 606116, Note_on_c, 0, 67, 0
7, 606120, Note_on_c, 0, 64, 101
7, 606120, Note_on_c, 0, 72, 101
7, 606236, Note_on_c, 0, 72, 0
7, 606236, Note_on_c, 0, 64, 0
7, 606240, Note_on_c, 0, 50, 101
7, 606240, Note_on_c, 0, 66, 101
7, 606356, Note_on_c, 0, 66, 0
7, 606356, Note_on_c, 0, 50, 0
7, 606360, Note_on_c, 0, 62, 101
7, 606360, Note_on_c, 0, 71, 101
7, 606476, Note_on_c, 0, 71, 0
7, 606476, Note_on_c, 0, 62, 0
7, 606480, Note_on_c, 0, 48, 101
7, 606480, Note_on_c, 0, 64, 101
7, 606596, Note_on_c, 0, 48, 0
7, 606600, Note_on_c, 0, 52, 101
7, 606716, Note_on_c, 0, 52, 0
7, 606720, Note_on_c, 0, 57, 101
7, 606836, Note_on_c, 0, 57, 0
7, 606836, Note_on_c, 0, 64, 0
7, 606840, Note_on_c, 0, 60, 101
7, 606840, Note_on_c, 0, 69, 101
7, 606956, Note_on_c, 0, 69, 0
7, 606956, Note_on_c, 0, 60, 0
7, 606960, Note_on_c, 0, 47, 101
7, 606960, Note_on_c, 0, 62, 101
7, 607076, Note_on_c, 0, 62, 0
7, 607076, Note_on_c, 0, 47, 0
7, 607080, Note_on_c, 0, 59, 101
7, 607080, Note_on_c, 0, 67, 101
7, 607080, Note_on_c, 0, 67, 101
7, 607196, Note_on_c, 0, 67, 0
7, 607196, Note_on_c, 0, 67, 0
7, 607196, Note_on_c, 0, 59, 0
7, 607200, Note_on_c, 0, 45, 101
7, 607200, Note_on_c, 0, 60, 101
7, 607316, Note_on_c, 0, 45, 0
7, 607320, Note_on_c, 0, 48, 101
7, 607436, Note_on_c, 0, 48, 0
7, 607440, Note_on_c, 0, 53, 101
7, 607556, Note_on_c, 0, 53, 0
7, 607556, Note_on_c, 0, 60, 0
7, 607560, Note_on_c, 0, 57, 101
7, 607560, Note_on_c, 0, 65, 101
7, 607676, Note_on_c, 0, 65, 0
7, 607676, Note_on_c, 0, 57, 0
7, 607680, Note_on_c, 0, 43, 101
7, 607680, Note_on_c, 0, 59, 101
7, 607796, Note_on_c, 0, 59, 0
7, 607796, Note_on_c, 0, 43, 0
7, 607800, Note_on_c, 0, 55, 101
7, 607800, Note_on_c, 0, 64, 101
7, 607916, Note_on_c, 0, 64, 0
7, 607916, Note_on_c, 0, 55, 0
7, 607920, Note_on_c, 0, 54, 101
7, 607920, Note_on_c, 0, 63, 101
7, 608036, Note_on_c, 0, 63, 0
7, 608040, Note_on_c, 0, 72, 101
7, 608156, Note_on_c, 0, 72, 0
7, 608160, Note_on_c, 0, 69, 101
7, 608276, Note_on_c, 0, 69, 0
7, 608280, Note_on_c, 0, 66, 101
7, 608396, Note_on_c, 0, 66, 0
7, 608396, Note_on_c, 0, 54, 0
7, 608400, Note_on_c, 0, 51, 101
7, 608400, Note_on_c, 0, 71, 101
7, 608516, Note_on_c, 0, 71, 0
7, 608520, Note_on_c, 0, 66, 101
7, 608636, Note_on_c, 0, 66, 0
7, 608636, Note_on_c, 0, 51, 0
7, 608640, Note_on_c, 0, 52, 101
7, 608640, Note_on_c, 0, 67, 101
7, 608756, Note_on_c, 0, 67, 0
7, 608760, Note_on_c, 0, 71, 101
7, 608876, Note_on_c, 0, 71, 0
7, 608880, Note_on_c, 0, 67, 101
7, 608996, Note_on_c, 0, 67, 0
7, 609000, Note_on_c, 0, 64, 101
7, 609116, Note_on_c, 0, 64, 0
7, 609116, Note_on_c, 0, 52, 0
7, 609120, Note_on_c, 0, 49, 101
7, 609120, Note_on_c, 0, 69, 101
7, 609236, Note_on_c, 0, 69, 0
7, 609240, Note_on_c, 0, 64, 101
7, 609356, Note_on_c, 0, 64, 0
7, 609356, Note_on_c, 0, 49, 0
7, 609360, Note_on_c, 0, 50, 101
7, 609360, Note_on_c, 0, 66, 101
7, 609476, Note_on_c, 0, 66, 0
7, 609480, Note_on_c, 0, 69, 101
7, 609596, Note_on_c, 0, 69, 0
7, 609596, Note_on_c, 0, 50, 0
7, 609600, Note_on_c, 0, 57, 101
7, 609600, Note_on_c, 0, 66, 101
7, 609716, Note_on_c, 0, 66, 0
7, 609720, Note_on_c, 0, 62, 101
7, 609836, Note_on_c, 0, 62, 0
7, 609836, Note_on_c, 0, 57, 0
7, 609840, Note_on_c, 0, 47, 101
7, 609840, Note_on_c, 0, 67, 101
7, 609956, Note_on_c, 0, 67, 0
7, 609960, Note_on_c, 0, 62, 101
7, 610076, Note_on_c, 0, 62, 0
7, 610076, Note_on_c, 0, 47, 0
7, 610080, Note_on_c, 0, 48, 101
7, 610080, Note_on_c, 0, 64, 101
7, 610196, Note_on_c, 0, 64, 0
7, 610200, Note_on_c, 0, 67, 101
7, 610316, Note_on_c, 0, 67, 0
7, 610316, Note_on_c, 0, 48, 0
7, 610320, Note_on_c, 0, 55, 101
7, 610320, Note_on_c, 0, 64, 101
7, 610436, Note_on_c, 0, 64, 0
7, 610440, Note_on_c, 0, 60, 101
7, 610556, Note_on_c, 0, 60, 0
7, 610556, Note_on_c, 0, 55, 0
7, 610560, Note_on_c, 0, 45, 101
7, 610560, Note_on_c, 0, 65, 101
7, 610676, Note_on_c, 0, 65, 0
7, 610680, Note_on_c, 0, 69, 101
7, 610796, Note_on_c, 0, 69, 0
7, 610796, Note_on_c, 0, 45, 0
7, 610800, Note_on_c, 0, 47, 101
7, 610800, Note_on_c, 0, 63, 101
7, 610916, Note_on_c, 0, 63, 0
7, 610920, Note_on_c, 0, 66, 101
7, 611036, Note_on_c, 0, 66, 0
7, 611036, Note_on_c, 0, 47, 0
7, 611040, Note_on_c, 0, 54, 101
7, 611040, Note_on_c, 0, 63, 101
7, 611156, Note_on_c, 0, 63, 0
7, 611160, Note_on_c, 0, 59, 101
7, 611276, Note_on_c, 0, 59, 0
7, 611276, Note_on_c, 0, 54, 0
7, 611280, Note_on_c, 0, 43, 101
7, 611280, Note_on_c, 0, 64, 101
7, 611396, Note_on_c, 0, 64, 0
7, 611400, Note_on_c, 0, 67, 101
7, 611516, Note_on_c, 0, 67, 0
7, 611516, Note_on_c, 0, 43, 0
7, 611520, Note_on_c, 0, 45, 101
7, 611520, Note_on_c, 0, 60, 101
7, 611636, Note_on_c, 0, 60, 0
7, 611640, Note_on_c, 0, 72, 101
7, 611756, Note_on_c, 0, 72, 0
7, 611760, Note_on_c, 0, 69, 101
7, 611876, Note_on_c, 0, 69, 0
7, 611880, Note_on_c, 0, 65, 101
7, 611996, Note_on_c, 0, 65, 0
7, 611996, Note_on_c, 0, 45, 0
7, 612000, Note_on_c, 0, 57, 101
7, 612000, Note_on_c, 0, 72, 101
7, 612116, Note_on_c, 0, 72, 0
7, 612120, Note_on_c, 0, 64, 101
7, 612236, Note_on_c, 0, 64, 0
7, 612236, Note_on_c, 0, 57, 0
7, 612240, Note_on_c, 0, 59, 101
7, 612240, Note_on_c, 0, 63, 101
7, 612356, Note_on_c, 0, 59, 0
7, 612360, Note_on_c, 0, 47, 101
7, 612476, Note_on_c, 0, 47, 0
7, 612480, Note_on_c, 0, 49, 101
7, 612596, Note_on_c, 0, 49, 0
7, 612600, Note_on_c, 0, 51, 101
7, 612716, Note_on_c, 0, 51, 0
7, 612716, Note_on_c, 0, 63, 0
7, 612720, Note_on_c, 0, 52, 101
7, 612836, Note_on_c, 0, 52, 0
7, 612840, Note_on_c, 0, 54, 101
7, 612956, Note_on_c, 0, 54, 0
7, 612960, Note_on_c, 0, 51, 100
7, 612960, Note_on_c, 0, 55, 100
7, 613076, Note_on_c, 0, 51, 0
7, 613080, Note_on_c, 0, 59, 100
7, 613196, Note_on_c, 0, 59, 0
7, 613200, Note_on_c, 0, 61, 100
7, 613316, Note_on_c, 0, 61, 0
7, 613320, Note_on_c, 0, 63, 100
7, 613436, Note_on_c, 0, 63, 0
7, 613436, Note_on_c, 0, 55, 0
7, 613440, Note_on_c, 0, 54, 100
7, 613440, Note_on_c, 0, 64, 100
7, 613556, Note_on_c, 0, 64, 0
7, 613560, Note_on_c, 0, 66, 100
7, 613676, Note_on_c, 0, 66, 0
7, 613676, Note_on_c, 0, 54, 0
7, 613680, Note_on_c, 0, 52, 100
7, 613680, Note_on_c, 0, 67, 100
7, 613796, Note_on_c, 0, 67, 0
7, 613800, Note_on_c, 0, 55, 100
7, 613916, Note_on_c, 0, 55, 0
7, 613920, Note_on_c, 0, 57, 100
7, 614036, Note_on_c, 0, 57, 0
7, 614040, Note_on_c, 0, 59, 100
7, 614156, Note_on_c, 0, 59, 0
7, 614156, Note_on_c, 0, 52, 0
7, 614160, Note_on_c, 0, 50, 100
7, 614160, Note_on_c, 0, 60, 100
7, 614276, Note_on_c, 0, 60, 0
7, 614280, Note_on_c, 0, 62, 100
7, 614396, Note_on_c, 0, 62, 0
7, 614396, Note_on_c, 0, 50, 0
7, 614400, Note_on_c, 0, 48, 100
7, 614400, Note_on_c, 0, 64, 100
7, 614516, Note_on_c, 0, 64, 0
7, 614520, Note_on_c, 0, 52, 100
7, 614636, Note_on_c, 0, 52, 0
7, 614640, Note_on_c, 0, 54, 100
7, 614756, Note_on_c, 0, 54, 0
7, 614760, Note_on_c, 0, 55, 100
7, 614876, Note_on_c, 0, 55, 0
7, 614876, Note_on_c, 0, 48, 0
7, 614880, Note_on_c, 0, 47, 100
7, 614880, Note_on_c, 0, 57, 100
7, 614996, Note_on_c, 0, 57, 0
7, 615000, Note_on_c, 0, 59, 100
7, 615116, Note_on_c, 0, 59, 0
7, 615116, Note_on_c, 0, 47, 0
7, 615120, Note_on_c, 0, 45, 100
7, 615120, Note_on_c, 0, 60, 100
7, 615236, Note_on_c, 0, 60, 0
7, 615240, Note_on_c, 0, 62, 100
7, 615356, Note_on_c, 0, 62, 0
7, 615356, Note_on_c, 0, 45, 0
7, 615360, Note_on_c, 0, 48, 100
7, 615360, Note_on_c, 0, 64, 100
7, 615476, Note_on_c, 0, 64, 0
7, 615480, Note_on_c, 0, 62, 100
7, 615596, Note_on_c, 0, 62, 0
7, 615596, Note_on_c, 0, 48, 0
7, 615600, Note_on_c, 0, 43, 100
7, 615600, Note_on_c, 0, 52, 100
7, 615600, Note_on_c, 0, 60, 100
7, 615716, Note_on_c, 0, 60, 0
7, 615720, Note_on_c, 0, 59, 100
7, 615836, Note_on_c, 0, 59, 0
7, 615836, Note_on_c, 0, 52, 0
7, 615836, Note_on_c, 0, 43, 0
7, 615840, Note_on_c, 0, 45, 100
7, 615840, Note_on_c, 0, 57, 100
7, 615956, Note_on_c, 0, 57, 0
7, 615960, Note_on_c, 0, 55, 100
7, 616076, Note_on_c, 0, 55, 0
7, 616076, Note_on_c, 0, 45, 0
7, 616080, Note_on_c, 0, 47, 100
7, 616080, Note_on_c, 0, 54, 100
7, 616196, Note_on_c, 0, 54, 0
7, 616200, Note_on_c, 0, 52, 100
7, 616316, Note_on_c, 0, 52, 0
7, 616316, Note_on_c, 0, 47, 0
7, 616320, Note_on_c, 0, 47, 100
7, 616320, Note_on_c, 0, 54, 100
7, 616436, Note_on_c, 0, 54, 0
7, 616440, Note_on_c, 0, 51, 100
7, 616556, Note_on_c, 0, 51, 0
7, 616556, Note_on_c, 0, 47, 0
7, 616560, Note_on_c, 0, 40, 100
7, 616560, Note_on_c, 0, 52, 100
7, 616676, Note_on_c, 0, 52, 0
7, 616680, Note_on_c, 0, 59, 100
7, 616796, Note_on_c, 0, 59, 0
7, 616796, Note_on_c, 0, 40, 0
7, 616800, Note_on_c, 0, 40, 100
7, 616800, Note_on_c, 0, 56, 100
7, 616916, Note_on_c, 0, 56, 0
7, 616920, Note_on_c, 0, 59, 100
7, 617036, Note_on_c, 0, 59, 0
7, 617036, Note_on_c, 0, 40, 0
7, 617040, Note_on_c, 0, 40, 100
7, 617040, Note_on_c, 0, 64, 100
7, 617156, Note_on_c, 0, 64, 0
7, 617160, Note_on_c, 0, 59, 100
7, 617276, Note_on_c, 0, 59, 0
7, 617276, Note_on_c, 0, 40, 0
7, 617280, Note_on_c, 0, 40, 100
7, 617280, Note_on_c, 0, 60, 100
7, 617396, Note_on_c, 0, 60, 0
7, 617400, Note_on_c, 0, 57, 100
7, 617516, Note_on_c, 0, 57, 0
7, 617516, Note_on_c, 0, 40, 0
7, 617520, Note_on_c, 0, 40, 100
7, 617520, Note_on_c, 0, 60, 100
7, 617636, Note_on_c, 0, 60, 0
7, 617640, Note_on_c, 0, 64, 100
7, 617756, Note_on_c, 0, 64, 0
7, 617756, Note_on_c, 0, 40, 0
7, 617760, Note_on_c, 0, 40, 100
7, 617760, Note_on_c, 0, 69, 100
7, 617876, Note_on_c, 0, 69, 0
7, 617880, Note_on_c, 0, 63, 100
7, 617996, Note_on_c, 0, 63, 0
7, 617996, Note_on_c, 0, 40, 0
7, 618000, Note_on_c, 0, 40, 101
7, 618000, Note_on_c, 0, 51, 101
7, 618000, Note_on_c, 0, 64, 101
7, 618116, Note_on_c, 0, 51, 0
7, 618120, Note_on_c, 0, 60, 101
7, 618120, Note_on_c, 0, 69, 101
7, 618236, Note_on_c, 0, 69, 0
7, 618236, Note_on_c, 0, 60, 0
7, 618240, Note_on_c, 0, 59, 101
7, 618240, Note_on_c, 0, 68, 101
7, 618356, Note_on_c, 0, 68, 0
7, 618356, Note_on_c, 0, 59, 0
7, 618360, Note_on_c, 0, 57, 101
7, 618360, Note_on_c, 0, 66, 101
7, 618476, Note_on_c, 0, 66, 0
7, 618476, Note_on_c, 0, 40, 0
7, 618476, Note_on_c, 0, 64, 0
7, 618476, Note_on_c, 0, 57, 0
7, 618480, Note_on_c, 0, 55, 101
7, 618480, Note_on_c, 0, 64, 101
7, 618596, Note_on_c, 0, 64, 0
7, 618596, Note_on_c, 0, 55, 0
7, 618600, Note_on_c, 0, 54, 101
7, 618600, Note_on_c, 0, 63, 101
7, 618716, Note_on_c, 0, 63, 0
7, 618716, Note_on_c, 0, 54, 0
7, 618720, Note_on_c, 0, 40, 101
7, 618720, Note_on_c, 0, 56, 101
7, 618720, Note_on_c, 0, 59, 101
7, 618720, Note_on_c, 0, 64, 101
7, 619436, Note_on_c, 0, 64, 0
7, 619436, Note_on_c, 0, 40, 0
7, 619436, Note_on_c, 0, 56, 0
7, 619436, Note_on_c, 0, 59, 0
7, 619436, End_track
8, 0, Start_track
8, 0, MIDI_port, 0
8, 0, Title_t, "Johann Sebastian Bach  (1685-1750)"
8, 0, End_track
9, 0, Start_track
9, 0, MIDI_port, 0
9, 0, Title_t, "Suite in E minor for Solo Lute - BWV 996"
9, 0, End_track
10, 0, Start_track
10, 0, MIDI_port, 0
10, 0, End_track
0, 0, End_of_file
