0, 0, Header, 1, 3, 384
1, 0, Start_track
1, 0, Tempo, 500000
1, 0, Time_signature, 4, 2, 24, 8
1, 400896, End_track
2, 0, Start_track
2, 0, Text_t, "harpsichord: John Sankey"
2, 0, Program_c, 0, 6
2, 0, Pitch_bend_c, 0, 8192
2, 0, Program_c, 1, 6
2, 0, Pitch_bend_c, 1, 7792
2, 0, Program_c, 2, 6
2, 0, Pitch_bend_c, 2, 7876
2, 0, Program_c, 3, 6
2, 0, Pitch_bend_c, 3, 7952
2, 0, Program_c, 4, 6
2, 0, Pitch_bend_c, 4, 7792
2, 0, Program_c, 5, 6
2, 0, Pitch_bend_c, 5, 8112
2, 0, Program_c, 6, 6
2, 0, Pitch_bend_c, 6, 7712
2, 0, Program_c, 7, 6
2, 0, Pitch_bend_c, 7, 8037
2, 0, Program_c, 8, 6
2, 0, Pitch_bend_c, 8, 7872
2, 0, Program_c, 10, 6
2, 0, Pitch_bend_c, 10, 7712
2, 0, Program_c, 11, 6
2, 0, Pitch_bend_c, 11, 8032
2, 0, Program_c, 12, 6
2, 0, Pitch_bend_c, 12, 7872
2, 0, Title_t, "Track 1"
2, 96, Note_on_c, 10, 57, 127
2, 96, Note_on_c, 2, 50, 127
2, 96, Note_on_c, 6, 54, 127
2, 490, Note_on_c, 10, 69, 127
2, 883, Note_off_c, 6, 54, 127
2, 884, Note_on_c, 6, 78, 127
2, 1080, Note_off_c, 6, 78, 127
2, 1081, Note_on_c, 4, 76, 127
2, 1276, Note_off_c, 2, 50, 127
2, 1277, Note_off_c, 4, 76, 127
2, 1277, Note_off_c, 10, 57, 127
2, 1278, Note_on_c, 4, 76, 127
2, 1278, Note_on_c, 1, 61, 127
2, 1278, Note_on_c, 10, 57, 127
2, 1670, Note_off_c, 10, 69, 127
2, 1671, Note_off_c, 4, 76, 127
2, 1672, Note_on_c, 10, 69, 127
2, 2065, Note_off_c, 10, 69, 127
2, 2065, Note_off_c, 10, 57, 127
2, 2065, Note_off_c, 1, 61, 127
2, 2066, Note_on_c, 1, 73, 127
2, 2066, Note_on_c, 4, 64, 127
2, 2066, Note_on_c, 10, 69, 127
2, 2066, Note_on_c, 1, 61, 127
2, 2066, Note_on_c, 7, 55, 127
2, 2066, Note_on_c, 10, 57, 127
2, 2459, Note_off_c, 10, 57, 127
2, 2459, Note_off_c, 7, 55, 127
2, 2459, Note_off_c, 1, 61, 127
2, 2459, Note_off_c, 10, 69, 127
2, 2459, Note_off_c, 4, 64, 127
2, 2459, Note_off_c, 1, 73, 127
2, 2460, Note_on_c, 10, 69, 127
2, 2460, Note_on_c, 2, 74, 127
2, 2460, Note_on_c, 6, 66, 127
2, 2460, Note_on_c, 2, 62, 127
2, 2460, Note_on_c, 10, 57, 127
2, 2460, Note_on_c, 6, 54, 127
2, 2853, Note_off_c, 6, 54, 127
2, 2853, Note_off_c, 2, 74, 127
2, 2854, Note_on_c, 4, 76, 127
2, 2854, Note_on_c, 4, 52, 127
2, 3247, Note_off_c, 4, 52, 127
2, 3247, Note_off_c, 4, 76, 127
2, 3247, Note_off_c, 10, 57, 127
2, 3247, Note_off_c, 2, 62, 127
2, 3247, Note_off_c, 6, 66, 127
2, 3248, Note_on_c, 6, 78, 127
2, 3248, Note_on_c, 2, 50, 127
2, 3248, Note_on_c, 10, 57, 127
2, 3640, Note_off_c, 10, 69, 127
2, 3641, Note_off_c, 10, 57, 127
2, 3641, Note_off_c, 2, 50, 127
2, 3641, Note_off_c, 6, 78, 127
2, 3642, Note_on_c, 1, 73, 127
2, 3642, Note_on_c, 10, 69, 127
2, 3642, Note_on_c, 4, 64, 127
2, 3642, Note_on_c, 10, 57, 127
2, 4035, Note_off_c, 10, 69, 127
2, 4035, Note_off_c, 1, 73, 127
2, 4036, Note_on_c, 10, 69, 127
2, 4429, Note_off_c, 10, 69, 127
2, 4429, Note_off_c, 10, 57, 127
2, 4429, Note_off_c, 4, 64, 127
2, 4430, Note_on_c, 2, 62, 127
2, 4430, Note_on_c, 2, 74, 127
2, 4430, Note_on_c, 10, 69, 127
2, 4430, Note_on_c, 6, 66, 127
2, 4430, Note_on_c, 10, 57, 127
2, 4430, Note_on_c, 6, 54, 127
2, 4823, Note_off_c, 6, 54, 127
2, 4823, Note_off_c, 10, 57, 127
2, 4823, Note_off_c, 6, 66, 127
2, 4823, Note_off_c, 10, 69, 127
2, 4823, Note_off_c, 2, 74, 127
2, 4823, Note_off_c, 2, 62, 127
2, 4824, Note_on_c, 7, 67, 127
2, 4824, Note_on_c, 12, 71, 127
2, 4824, Note_on_c, 2, 62, 127
2, 4824, Note_on_c, 12, 59, 127
2, 4824, Note_on_c, 7, 55, 127
2, 5217, Note_off_c, 7, 55, 127
2, 5217, Note_off_c, 12, 71, 127
2, 5217, Note_off_c, 7, 67, 127
2, 5218, Note_on_c, 10, 69, 127
2, 5218, Note_on_c, 6, 54, 127
2, 5611, Note_off_c, 6, 54, 127
2, 5611, Note_off_c, 10, 69, 127
2, 5612, Note_on_c, 7, 67, 127
2, 5612, Note_on_c, 4, 52, 127
2, 6004, Note_off_c, 12, 59, 127
2, 6004, Note_off_c, 2, 62, 127
2, 6005, Note_off_c, 4, 52, 127
2, 6005, Note_off_c, 7, 67, 127
2, 6006, Note_on_c, 10, 69, 127
2, 6006, Note_on_c, 2, 62, 127
2, 6006, Note_on_c, 6, 54, 127
2, 6006, Note_on_c, 10, 57, 127
2, 6399, Note_off_c, 6, 54, 127
2, 6399, Note_off_c, 10, 69, 127
2, 6400, Note_on_c, 7, 67, 127
2, 6400, Note_on_c, 4, 52, 127
2, 6793, Note_off_c, 4, 52, 127
2, 6793, Note_off_c, 7, 67, 127
2, 6794, Note_on_c, 6, 66, 127
2, 6794, Note_on_c, 2, 50, 127
2, 7186, Note_off_c, 10, 57, 127
2, 7186, Note_off_c, 2, 62, 127
2, 7187, Note_off_c, 2, 50, 127
2, 7187, Note_off_c, 6, 66, 127
2, 7188, Note_on_c, 2, 62, 127
2, 7188, Note_on_c, 12, 71, 127
2, 7188, Note_on_c, 7, 55, 127
2, 7188, Note_on_c, 4, 52, 127
2, 7188, Note_on_c, 7, 43, 127
2, 7384, Note_off_c, 12, 71, 127
2, 7385, Note_on_c, 4, 64, 127
2, 7578, Note_off_c, 2, 62, 127
2, 7581, Note_off_c, 4, 64, 127
2, 7581, Note_off_c, 7, 43, 127
2, 7581, Note_off_c, 7, 55, 127
2, 7582, Note_on_c, 1, 61, 127
2, 7582, Note_on_c, 6, 66, 127
2, 7582, Note_on_c, 10, 45, 127
2, 7713, Note_off_c, 6, 66, 127
2, 7713, Note_on_c, 4, 64, 127
2, 7779, Note_off_c, 4, 64, 127
2, 7779, Note_on_c, 6, 66, 127
2, 7845, Note_off_c, 6, 66, 127
2, 7845, Note_on_c, 4, 64, 127
2, 7911, Note_off_c, 4, 64, 127
2, 7911, Note_on_c, 6, 66, 127
2, 7976, Note_off_c, 4, 52, 127
2, 7977, Note_off_c, 6, 66, 127
2, 7977, Note_on_c, 4, 64, 127
2, 7977, Note_on_c, 7, 55, 127
2, 8172, Note_off_c, 4, 64, 127
2, 8173, Note_off_c, 1, 61, 127
2, 8174, Note_on_c, 2, 62, 127
2, 8370, Note_off_c, 2, 62, 127
2, 8370, Note_off_c, 7, 55, 127
2, 8370, Note_off_c, 10, 45, 127
2, 8371, Note_on_c, 10, 57, 127
2, 8371, Note_on_c, 2, 62, 127
2, 8371, Note_on_c, 2, 50, 127
2, 8371, Note_on_c, 6, 54, 127
2, 8765, Note_on_c, 10, 69, 127
2, 9158, Note_off_c, 10, 69, 127
2, 9158, Note_off_c, 6, 54, 127
2, 9158, Note_off_c, 2, 50, 127
2, 9158, Note_off_c, 2, 62, 127
2, 9158, Note_off_c, 10, 57, 127
2, 9159, Note_on_c, 6, 78, 127
2, 9355, Note_off_c, 6, 78, 127
2, 9356, Note_on_c, 4, 76, 127
2, 9552, Note_off_c, 4, 76, 127
2, 9553, Note_on_c, 4, 76, 127
2, 9946, Note_off_c, 4, 76, 127
2, 9947, Note_on_c, 10, 69, 127
2, 9947, Note_on_c, 10, 57, 127
2, 10340, Note_off_c, 10, 57, 127
2, 10341, Note_on_c, 6, 66, 127
2, 10537, Note_off_c, 6, 66, 127
2, 10538, Note_on_c, 4, 64, 127
2, 10734, Note_off_c, 4, 64, 127
2, 10735, Note_on_c, 4, 64, 127
2, 11127, Note_off_c, 10, 69, 127
2, 11129, Note_on_c, 10, 57, 127
2, 11522, Note_off_c, 10, 57, 127
2, 11522, Note_off_c, 4, 64, 127
2, 11523, Note_on_c, 1, 73, 127
2, 11523, Note_on_c, 10, 69, 127
2, 11523, Note_on_c, 7, 67, 127
2, 11916, Note_off_c, 7, 67, 127
2, 11916, Note_off_c, 10, 69, 127
2, 11916, Note_off_c, 1, 73, 127
2, 11917, Note_on_c, 2, 74, 127
2, 11917, Note_on_c, 10, 69, 127
2, 11917, Note_on_c, 12, 71, 127
2, 11917, Note_on_c, 6, 66, 127
2, 12310, Note_off_c, 6, 66, 127
2, 12310, Note_off_c, 12, 71, 127
2, 12310, Note_off_c, 10, 69, 127
2, 12310, Note_off_c, 2, 74, 127
2, 12311, Note_on_c, 4, 76, 127
2, 12311, Note_on_c, 7, 67, 127
2, 12311, Note_on_c, 1, 73, 127
2, 12311, Note_on_c, 4, 64, 127
2, 12704, Note_off_c, 4, 64, 127
2, 12704, Note_off_c, 1, 73, 127
2, 12704, Note_off_c, 7, 67, 127
2, 12704, Note_off_c, 4, 76, 127
2, 12705, Note_on_c, 6, 78, 127
2, 12705, Note_on_c, 2, 74, 127
2, 12705, Note_on_c, 10, 69, 127
2, 12705, Note_on_c, 2, 62, 127
2, 13098, Note_off_c, 2, 62, 127
2, 13098, Note_off_c, 10, 69, 127
2, 13098, Note_off_c, 2, 74, 127
2, 13098, Note_off_c, 6, 78, 127
2, 13099, Note_on_c, 1, 73, 127
2, 13099, Note_on_c, 10, 69, 127
2, 13099, Note_on_c, 10, 57, 127
2, 13099, Note_on_c, 4, 64, 127
2, 13492, Note_off_c, 10, 69, 127
2, 13492, Note_off_c, 1, 73, 127
2, 13493, Note_on_c, 1, 61, 127
2, 13493, Note_on_c, 10, 69, 127
2, 13886, Note_off_c, 10, 69, 127
2, 13886, Note_off_c, 1, 61, 127
2, 13886, Note_off_c, 4, 64, 127
2, 13886, Note_off_c, 10, 57, 127
2, 13887, Note_on_c, 2, 62, 127
2, 13887, Note_on_c, 2, 74, 127
2, 13887, Note_on_c, 6, 66, 127
2, 13887, Note_on_c, 10, 69, 127
2, 13887, Note_on_c, 10, 57, 127
2, 13887, Note_on_c, 6, 54, 127
2, 14280, Note_off_c, 6, 54, 127
2, 14280, Note_off_c, 10, 57, 127
2, 14280, Note_off_c, 10, 69, 127
2, 14280, Note_off_c, 6, 66, 127
2, 14280, Note_off_c, 2, 74, 127
2, 14280, Note_off_c, 2, 62, 127
2, 14281, Note_on_c, 7, 67, 127
2, 14281, Note_on_c, 2, 62, 127
2, 14281, Note_on_c, 12, 71, 127
2, 14281, Note_on_c, 7, 55, 127
2, 14674, Note_off_c, 7, 55, 127
2, 14674, Note_off_c, 12, 71, 127
2, 14674, Note_off_c, 7, 67, 127
2, 14675, Note_on_c, 10, 69, 127
2, 14675, Note_on_c, 6, 66, 127
2, 14675, Note_on_c, 10, 57, 127
2, 15068, Note_off_c, 10, 57, 127
2, 15068, Note_off_c, 6, 66, 127
2, 15068, Note_off_c, 10, 69, 127
2, 15068, Note_off_c, 2, 62, 127
2, 15069, Note_on_c, 7, 67, 127
2, 15069, Note_on_c, 4, 64, 127
2, 15069, Note_on_c, 12, 59, 127
2, 15462, Note_off_c, 12, 59, 127
2, 15462, Note_off_c, 4, 64, 127
2, 15462, Note_off_c, 7, 67, 127
2, 15463, Note_on_c, 10, 69, 127
2, 15463, Note_on_c, 2, 62, 127
2, 15463, Note_on_c, 6, 66, 127
2, 15463, Note_on_c, 6, 54, 127
2, 15856, Note_off_c, 6, 54, 127
2, 15856, Note_off_c, 6, 66, 127
2, 15856, Note_off_c, 10, 69, 127
2, 15857, Note_on_c, 7, 67, 127
2, 15857, Note_on_c, 4, 64, 127
2, 15857, Note_on_c, 7, 55, 127
2, 16250, Note_off_c, 7, 55, 127
2, 16250, Note_off_c, 4, 64, 127
2, 16250, Note_off_c, 7, 67, 127
2, 16250, Note_off_c, 2, 62, 127
2, 16251, Note_on_c, 6, 66, 127
2, 16251, Note_on_c, 2, 62, 127
2, 16251, Note_on_c, 10, 57, 127
2, 16644, Note_off_c, 10, 57, 127
2, 16644, Note_off_c, 2, 62, 127
2, 16644, Note_off_c, 6, 66, 127
2, 16645, Note_on_c, 2, 62, 127
2, 16645, Note_on_c, 12, 71, 127
2, 16645, Note_on_c, 7, 55, 127
2, 16841, Note_off_c, 12, 71, 127
2, 16842, Note_on_c, 4, 64, 127
2, 17038, Note_off_c, 4, 64, 127
2, 17038, Note_off_c, 7, 55, 127
2, 17039, Note_on_c, 4, 64, 127
2, 17039, Note_on_c, 10, 57, 127
2, 17235, Note_off_c, 4, 64, 127
2, 17236, Note_on_c, 6, 66, 127
2, 17432, Note_off_c, 6, 66, 127
2, 17432, Note_off_c, 2, 62, 127
2, 17433, Note_on_c, 1, 61, 127
2, 17433, Note_on_c, 7, 67, 127
2, 17629, Note_off_c, 7, 67, 127
2, 17630, Note_on_c, 10, 69, 127
2, 17823, Note_off_c, 1, 61, 127
2, 17826, Note_off_c, 10, 69, 127
2, 17826, Note_off_c, 10, 57, 127
2, 17827, Note_on_c, 2, 62, 127
2, 17827, Note_on_c, 6, 66, 127
2, 18220, Note_off_c, 6, 66, 127
2, 18220, Note_off_c, 2, 62, 127
2, 18221, Note_on_c, 2, 62, 127
2, 18221, Note_on_c, 12, 59, 127
2, 18417, Note_off_c, 2, 62, 127
2, 18418, Note_on_c, 4, 64, 127
2, 18614, Note_off_c, 4, 64, 127
2, 18615, Note_on_c, 6, 66, 127
2, 18615, Note_on_c, 2, 62, 127
2, 18811, Note_off_c, 6, 66, 127
2, 18812, Note_on_c, 7, 67, 127
2, 19005, Note_off_c, 2, 62, 127
2, 19008, Note_off_c, 7, 67, 127
2, 19008, Note_off_c, 12, 59, 127
2, 19009, Note_on_c, 10, 69, 127
2, 19009, Note_on_c, 4, 64, 127
2, 19009, Note_on_c, 6, 66, 127
2, 19009, Note_on_c, 1, 61, 127
2, 19402, Note_off_c, 1, 61, 127
2, 19402, Note_off_c, 6, 66, 127
2, 19402, Note_off_c, 4, 64, 127
2, 19402, Note_off_c, 10, 69, 127
2, 19403, Note_on_c, 2, 62, 127
2, 19403, Note_on_c, 8, 68, 127
2, 19403, Note_on_c, 12, 71, 127
2, 19403, Note_on_c, 12, 59, 127
2, 19796, Note_off_c, 12, 59, 127
2, 19796, Note_off_c, 12, 71, 127
2, 19796, Note_off_c, 8, 68, 127
2, 19796, Note_off_c, 2, 62, 127
2, 19797, Note_on_c, 10, 69, 127
2, 19797, Note_on_c, 1, 61, 127
2, 19797, Note_on_c, 1, 73, 127
2, 19797, Note_on_c, 4, 64, 127
2, 19797, Note_on_c, 10, 57, 127
2, 20190, Note_off_c, 10, 57, 127
2, 20190, Note_off_c, 4, 64, 127
2, 20190, Note_off_c, 1, 73, 127
2, 20190, Note_off_c, 1, 61, 127
2, 20190, Note_off_c, 10, 69, 127
2, 20191, Note_on_c, 2, 74, 127
2, 20191, Note_on_c, 4, 64, 127
2, 20191, Note_on_c, 12, 71, 127
2, 20191, Note_on_c, 12, 59, 127
2, 20191, Note_on_c, 8, 56, 127
2, 20584, Note_off_c, 8, 56, 127
2, 20584, Note_off_c, 2, 74, 127
2, 20585, Note_on_c, 4, 76, 127
2, 20585, Note_on_c, 4, 52, 127
2, 20781, Note_off_c, 4, 76, 127
2, 20782, Note_on_c, 2, 74, 127
2, 20978, Note_off_c, 2, 74, 127
2, 20978, Note_off_c, 4, 52, 127
2, 20978, Note_off_c, 12, 59, 127
2, 20978, Note_off_c, 12, 71, 127
2, 20978, Note_off_c, 4, 64, 127
2, 20979, Note_on_c, 1, 73, 127
2, 20979, Note_on_c, 4, 64, 127
2, 20979, Note_on_c, 10, 69, 127
2, 20979, Note_on_c, 10, 57, 127
2, 21175, Note_off_c, 1, 73, 127
2, 21176, Note_on_c, 2, 74, 127
2, 21369, Note_off_c, 10, 69, 127
2, 21369, Note_off_c, 4, 64, 127
2, 21372, Note_off_c, 2, 74, 127
2, 21372, Note_off_c, 10, 57, 127
2, 21373, Note_on_c, 12, 71, 127
2, 21373, Note_on_c, 6, 66, 127
2, 21373, Note_on_c, 2, 62, 127
2, 21373, Note_on_c, 2, 50, 127
2, 21569, Note_off_c, 2, 62, 127
2, 21569, Note_off_c, 12, 71, 127
2, 21570, Note_on_c, 10, 69, 127
2, 21570, Note_on_c, 1, 61, 127
2, 21763, Note_off_c, 2, 50, 127
2, 21763, Note_off_c, 6, 66, 127
2, 21766, Note_off_c, 1, 61, 127
2, 21766, Note_off_c, 10, 69, 127
2, 21767, Note_on_c, 10, 69, 127
2, 21767, Note_on_c, 4, 64, 127
2, 21767, Note_on_c, 4, 52, 127
2, 21767, Note_on_c, 12, 59, 127
2, 21898, Note_off_c, 10, 69, 127
2, 21898, Note_on_c, 8, 68, 127
2, 21964, Note_off_c, 8, 68, 127
2, 21964, Note_on_c, 10, 69, 127
2, 22030, Note_off_c, 10, 69, 127
2, 22030, Note_on_c, 8, 68, 127
2, 22096, Note_off_c, 8, 68, 127
2, 22096, Note_on_c, 10, 69, 127
2, 22161, Note_off_c, 12, 59, 127
2, 22162, Note_off_c, 10, 69, 127
2, 22162, Note_on_c, 8, 68, 127
2, 22162, Note_on_c, 2, 62, 127
2, 22357, Note_off_c, 8, 68, 127
2, 22359, Note_on_c, 10, 69, 127
2, 22555, Note_off_c, 10, 69, 127
2, 22555, Note_off_c, 2, 62, 127
2, 22555, Note_off_c, 4, 52, 127
2, 22555, Note_off_c, 4, 64, 127
2, 22556, Note_on_c, 4, 64, 127
2, 22556, Note_on_c, 10, 69, 127
2, 22556, Note_on_c, 1, 61, 127
2, 22556, Note_on_c, 10, 57, 127
2, 22949, Note_off_c, 4, 64, 127
2, 22966, Note_on_c, 4, 76, 127
2, 22966, Note_on_c, 1, 73, 127
2, 23343, Note_off_c, 10, 57, 127
2, 23343, Note_off_c, 1, 61, 127
2, 23343, Note_off_c, 10, 69, 127
2, 23359, Note_off_c, 1, 73, 127
2, 23359, Note_off_c, 4, 76, 127
2, 23360, Note_on_c, 2, 74, 127
2, 23360, Note_on_c, 6, 78, 127
2, 23753, Note_off_c, 6, 78, 127
2, 23753, Note_off_c, 2, 74, 127
2, 23754, Note_on_c, 7, 79, 127
2, 23754, Note_on_c, 4, 76, 127
2, 24148, Note_on_c, 7, 67, 127
2, 24148, Note_on_c, 4, 64, 127
2, 24541, Note_off_c, 4, 64, 127
2, 24541, Note_off_c, 7, 67, 127
2, 24542, Note_on_c, 6, 66, 127
2, 24542, Note_on_c, 10, 69, 127
2, 24934, Note_off_c, 4, 76, 127
2, 24934, Note_off_c, 7, 79, 127
2, 24935, Note_off_c, 10, 69, 127
2, 24935, Note_off_c, 6, 66, 127
2, 24936, Note_on_c, 7, 67, 127
2, 24936, Note_on_c, 12, 71, 127
2, 25329, Note_off_c, 12, 71, 127
2, 25329, Note_off_c, 7, 67, 127
2, 25330, Note_on_c, 6, 66, 127
2, 25330, Note_on_c, 10, 69, 127
2, 25330, Note_on_c, 12, 71, 127
2, 25330, Note_on_c, 2, 74, 127
2, 25723, Note_off_c, 2, 74, 127
2, 25723, Note_off_c, 12, 71, 127
2, 25723, Note_off_c, 10, 69, 127
2, 25723, Note_off_c, 6, 66, 127
2, 25724, Note_on_c, 4, 64, 127
2, 25724, Note_on_c, 7, 67, 127
2, 25724, Note_on_c, 1, 73, 127
2, 25724, Note_on_c, 4, 76, 127
2, 26117, Note_off_c, 4, 76, 127
2, 26117, Note_off_c, 1, 73, 127
2, 26117, Note_off_c, 7, 67, 127
2, 26117, Note_off_c, 4, 64, 127
2, 26118, Note_on_c, 10, 69, 127
2, 26118, Note_on_c, 2, 62, 127
2, 26118, Note_on_c, 2, 74, 127
2, 26118, Note_on_c, 6, 78, 127
2, 26511, Note_off_c, 6, 78, 127
2, 26511, Note_off_c, 2, 62, 127
2, 26512, Note_on_c, 4, 64, 127
2, 26512, Note_on_c, 7, 79, 127
2, 26905, Note_off_c, 7, 79, 127
2, 26905, Note_off_c, 4, 64, 127
2, 26906, Note_on_c, 6, 66, 127
2, 26906, Note_on_c, 10, 81, 127
2, 27298, Note_off_c, 2, 74, 127
2, 27298, Note_off_c, 10, 69, 127
2, 27299, Note_off_c, 10, 81, 127
2, 27299, Note_off_c, 6, 66, 127
2, 27300, Note_on_c, 7, 67, 127
2, 27300, Note_on_c, 12, 83, 127
2, 27300, Note_on_c, 7, 79, 127
2, 27496, Note_off_c, 7, 79, 127
2, 27496, Note_off_c, 12, 83, 127
2, 27497, Note_on_c, 6, 78, 127
2, 27497, Note_on_c, 10, 81, 127
2, 27693, Note_off_c, 10, 81, 127
2, 27693, Note_off_c, 6, 78, 127
2, 27693, Note_off_c, 7, 67, 127
2, 27694, Note_on_c, 1, 61, 127
2, 27694, Note_on_c, 4, 76, 127
2, 27792, Note_on_c, 6, 78, 127
2, 27858, Note_off_c, 6, 78, 127
2, 27891, Note_on_c, 7, 79, 127
2, 28087, Note_off_c, 1, 61, 127
2, 28088, Note_on_c, 2, 62, 127
2, 28281, Note_off_c, 7, 79, 127
2, 28284, Note_off_c, 4, 76, 127
2, 28285, Note_on_c, 2, 74, 127
2, 28285, Note_on_c, 6, 78, 127
2, 28481, Note_off_c, 6, 78, 127
2, 28481, Note_off_c, 2, 74, 127
2, 28481, Note_off_c, 2, 62, 127
2, 28482, Note_on_c, 7, 55, 127
2, 28482, Note_on_c, 4, 76, 127
2, 28482, Note_on_c, 2, 74, 127
2, 28875, Note_off_c, 7, 55, 127
2, 28876, Note_on_c, 4, 52, 127
2, 29072, Note_off_c, 4, 76, 127
2, 29073, Note_on_c, 6, 78, 127
2, 29269, Note_off_c, 6, 78, 127
2, 29269, Note_off_c, 4, 52, 127
2, 29269, Note_off_c, 2, 74, 127
2, 29270, Note_on_c, 10, 57, 127
2, 29270, Note_on_c, 1, 73, 127
2, 29270, Note_on_c, 7, 79, 127
2, 29466, Note_off_c, 7, 79, 127
2, 29467, Note_on_c, 10, 81, 127
2, 29660, Note_off_c, 1, 73, 127
2, 29663, Note_off_c, 10, 81, 127
2, 29663, Note_off_c, 10, 57, 127
2, 29664, Note_on_c, 2, 62, 127
2, 29664, Note_on_c, 6, 78, 127
2, 29664, Note_on_c, 2, 74, 127
2, 29860, Note_off_c, 6, 78, 127
2, 29860, Note_off_c, 2, 62, 127
2, 29861, Note_on_c, 7, 55, 127
2, 29861, Note_on_c, 7, 79, 127
2, 30057, Note_off_c, 7, 79, 127
2, 30057, Note_off_c, 7, 55, 127
2, 30058, Note_on_c, 10, 57, 127
2, 30058, Note_on_c, 6, 78, 127
2, 30189, Note_off_c, 6, 78, 127
2, 30189, Note_on_c, 4, 76, 127
2, 30255, Note_off_c, 4, 76, 127
2, 30255, Note_on_c, 6, 78, 127
2, 30321, Note_off_c, 6, 78, 127
2, 30321, Note_on_c, 4, 76, 127
2, 30387, Note_off_c, 4, 76, 127
2, 30387, Note_on_c, 6, 78, 127
2, 30452, Note_off_c, 10, 57, 127
2, 30452, Note_off_c, 2, 74, 127
2, 30453, Note_off_c, 6, 78, 127
2, 30453, Note_on_c, 10, 45, 127
2, 30453, Note_on_c, 1, 73, 127
2, 30453, Note_on_c, 4, 76, 127
2, 30648, Note_off_c, 4, 76, 127
2, 30650, Note_on_c, 2, 74, 127
2, 30843, Note_off_c, 1, 73, 127
2, 30846, Note_off_c, 2, 74, 127
2, 30846, Note_off_c, 10, 45, 127
2, 30847, Note_on_c, 2, 50, 127
2, 30847, Note_on_c, 10, 69, 127
2, 30847, Note_on_c, 2, 74, 127
2, 30847, Note_on_c, 6, 66, 127
2, 31216, Note_off_c, 2, 50, 127
2, 31237, Note_off_c, 2, 74, 127
2, 31237, Note_off_c, 10, 69, 127
2, 31240, Note_off_c, 6, 66, 127
2, 31257, Note_on_c, 6, 66, 127
2, 31651, Note_on_c, 2, 74, 127
2, 31847, Note_off_c, 2, 74, 127
2, 31848, Note_on_c, 1, 73, 127
2, 32044, Note_off_c, 1, 73, 127
2, 32045, Note_on_c, 1, 73, 127
2, 32437, Note_off_c, 6, 66, 127
2, 32438, Note_off_c, 1, 73, 127
2, 32439, Note_on_c, 6, 66, 127
2, 32439, Note_on_c, 6, 54, 127
2, 32832, Note_off_c, 6, 54, 127
2, 32833, Note_on_c, 12, 71, 127
2, 32833, Note_on_c, 2, 62, 127
2, 33029, Note_off_c, 2, 62, 127
2, 33029, Note_off_c, 12, 71, 127
2, 33030, Note_on_c, 11, 70, 127
2, 33030, Note_on_c, 1, 61, 127
2, 33226, Note_off_c, 1, 61, 127
2, 33226, Note_off_c, 11, 70, 127
2, 33227, Note_on_c, 11, 70, 127
2, 33227, Note_on_c, 1, 61, 127
2, 33619, Note_off_c, 6, 66, 127
2, 33620, Note_off_c, 1, 61, 127
2, 33620, Note_off_c, 11, 70, 127
2, 33621, Note_on_c, 12, 71, 127
2, 33621, Note_on_c, 2, 62, 127
2, 33817, Note_off_c, 2, 62, 127
2, 33817, Note_off_c, 12, 71, 127
2, 33818, Note_on_c, 11, 70, 127
2, 33818, Note_on_c, 4, 64, 127
2, 34014, Note_off_c, 4, 64, 127
2, 34014, Note_off_c, 11, 70, 127
2, 34015, Note_on_c, 12, 71, 127
2, 34015, Note_on_c, 2, 62, 127
2, 34211, Note_off_c, 2, 62, 127
2, 34211, Note_off_c, 12, 71, 127
2, 34212, Note_on_c, 1, 73, 127
2, 34212, Note_on_c, 1, 61, 127
2, 34408, Note_off_c, 1, 61, 127
2, 34408, Note_off_c, 1, 73, 127
2, 34409, Note_on_c, 2, 74, 127
2, 34409, Note_on_c, 12, 59, 127
2, 34802, Note_off_c, 2, 74, 127
2, 34803, Note_on_c, 12, 71, 127
2, 35196, Note_off_c, 12, 71, 127
2, 35196, Note_off_c, 12, 59, 127
2, 35197, Note_on_c, 7, 79, 127
2, 35197, Note_on_c, 12, 59, 127
2, 35197, Note_on_c, 2, 62, 127
2, 35393, Note_off_c, 7, 79, 127
2, 35394, Note_on_c, 6, 78, 127
2, 35590, Note_off_c, 6, 78, 127
2, 35590, Note_off_c, 2, 62, 127
2, 35591, Note_on_c, 6, 78, 127
2, 35591, Note_on_c, 1, 61, 127
2, 35984, Note_off_c, 6, 78, 127
2, 35984, Note_off_c, 12, 59, 127
2, 35985, Note_on_c, 1, 73, 127
2, 35985, Note_on_c, 11, 58, 127
2, 36378, Note_off_c, 11, 58, 127
2, 36378, Note_off_c, 1, 73, 127
2, 36378, Note_off_c, 1, 61, 127
2, 36379, Note_on_c, 2, 74, 127
2, 36379, Note_on_c, 12, 59, 127
2, 36772, Note_off_c, 2, 74, 127
2, 36773, Note_on_c, 4, 76, 127
2, 36773, Note_on_c, 4, 52, 127
2, 36969, Note_off_c, 4, 76, 127
2, 36970, Note_on_c, 6, 78, 127
2, 37067, Note_off_c, 6, 78, 127
2, 37068, Note_on_c, 7, 79, 127
2, 37165, Note_off_c, 7, 79, 127
2, 37165, Note_off_c, 4, 52, 127
2, 37166, Note_on_c, 4, 76, 127
2, 37166, Note_on_c, 6, 54, 127
2, 37263, Note_off_c, 4, 76, 127
2, 37264, Note_on_c, 2, 74, 127
2, 37361, Note_off_c, 2, 74, 127
2, 37362, Note_on_c, 4, 76, 127
2, 37459, Note_off_c, 4, 76, 127
2, 37460, Note_on_c, 2, 74, 127
2, 37556, Note_off_c, 12, 59, 127
2, 37557, Note_off_c, 2, 74, 127
2, 37558, Note_on_c, 1, 73, 127
2, 37558, Note_on_c, 11, 58, 127
2, 37754, Note_off_c, 11, 58, 127
2, 37754, Note_off_c, 1, 73, 127
2, 37755, Note_on_c, 12, 71, 127
2, 37755, Note_on_c, 12, 59, 127
2, 37951, Note_off_c, 12, 59, 127
2, 37951, Note_off_c, 12, 71, 127
2, 37951, Note_off_c, 6, 54, 127
2, 37952, Note_on_c, 12, 71, 127
2, 37952, Note_on_c, 12, 47, 127
2, 37952, Note_on_c, 12, 59, 127
2, 38363, Note_off_c, 12, 59, 127
2, 38378, Note_on_c, 2, 62, 127
2, 38378, Note_on_c, 6, 66, 127
2, 38378, Note_on_c, 12, 59, 127
2, 38392, Note_off_c, 12, 47, 127
2, 38727, Note_off_c, 12, 71, 127
2, 38771, Note_off_c, 12, 59, 127
2, 38771, Note_off_c, 6, 66, 127
2, 38771, Note_off_c, 2, 62, 127
2, 38772, Note_on_c, 6, 66, 127
2, 38772, Note_on_c, 2, 74, 127
2, 38772, Note_on_c, 12, 47, 127
2, 38772, Note_on_c, 12, 59, 127
2, 38968, Note_off_c, 2, 74, 127
2, 38969, Note_on_c, 1, 73, 127
2, 39165, Note_off_c, 1, 73, 127
2, 39165, Note_off_c, 12, 47, 127
2, 39166, Note_on_c, 1, 73, 127
2, 39166, Note_on_c, 6, 54, 127
2, 39559, Note_off_c, 1, 73, 127
2, 39559, Note_off_c, 12, 59, 127
2, 39559, Note_off_c, 6, 66, 127
2, 39560, Note_on_c, 6, 66, 127
2, 39560, Note_on_c, 11, 58, 127
2, 39953, Note_off_c, 11, 58, 127
2, 39953, Note_off_c, 6, 66, 127
2, 39953, Note_off_c, 6, 54, 127
2, 39954, Note_on_c, 11, 70, 127
2, 39954, Note_on_c, 6, 66, 127
2, 39954, Note_on_c, 1, 61, 127
2, 39954, Note_on_c, 4, 52, 127
2, 40347, Note_off_c, 4, 52, 127
2, 40347, Note_off_c, 1, 61, 127
2, 40347, Note_off_c, 6, 66, 127
2, 40347, Note_off_c, 11, 70, 127
2, 40348, Note_on_c, 6, 66, 127
2, 40348, Note_on_c, 12, 71, 127
2, 40348, Note_on_c, 2, 50, 127
2, 40348, Note_on_c, 12, 59, 127
2, 40741, Note_off_c, 2, 50, 127
2, 40741, Note_off_c, 12, 71, 127
2, 40742, Note_on_c, 1, 73, 127
2, 40742, Note_on_c, 1, 49, 127
2, 41135, Note_off_c, 1, 49, 127
2, 41135, Note_off_c, 1, 73, 127
2, 41136, Note_on_c, 2, 74, 127
2, 41136, Note_on_c, 12, 47, 127
2, 41528, Note_off_c, 12, 59, 127
2, 41529, Note_off_c, 12, 47, 127
2, 41529, Note_off_c, 2, 74, 127
2, 41530, Note_on_c, 11, 70, 127
2, 41530, Note_on_c, 6, 54, 127
2, 41530, Note_on_c, 1, 61, 127
2, 41918, Note_off_c, 6, 66, 127
2, 41923, Note_off_c, 11, 70, 127
2, 41924, Note_on_c, 6, 66, 127
2, 42317, Note_off_c, 6, 66, 127
2, 42317, Note_off_c, 1, 61, 127
2, 42317, Note_off_c, 6, 54, 127
2, 42334, Note_on_c, 3, 63, 127
2, 42334, Note_on_c, 6, 66, 127
2, 42335, Note_on_c, 12, 83, 127
2, 42335, Note_on_c, 6, 78, 127
2, 42335, Note_on_c, 12, 71, 127
2, 42727, Note_off_c, 6, 66, 127
2, 42727, Note_off_c, 3, 63, 127
2, 42728, Note_off_c, 12, 71, 127
2, 42728, Note_off_c, 6, 78, 127
2, 42728, Note_off_c, 12, 83, 127
2, 42728, Note_on_c, 4, 64, 127
2, 42728, Note_on_c, 7, 67, 127
2, 42728, Note_on_c, 7, 79, 127
2, 42728, Note_on_c, 4, 76, 127
2, 42728, Note_on_c, 12, 71, 127
2, 43121, Note_off_c, 12, 71, 127
2, 43121, Note_off_c, 4, 76, 127
2, 43121, Note_off_c, 7, 79, 127
2, 43121, Note_off_c, 7, 67, 127
2, 43121, Note_off_c, 4, 64, 127
2, 43122, Note_on_c, 6, 66, 127
2, 43122, Note_on_c, 2, 74, 127
2, 43122, Note_on_c, 6, 78, 127
2, 43515, Note_off_c, 6, 78, 127
2, 43515, Note_off_c, 2, 74, 127
2, 43515, Note_off_c, 6, 66, 127
2, 43516, Note_on_c, 7, 67, 127
2, 43516, Note_on_c, 1, 73, 127
2, 43516, Note_on_c, 4, 76, 127
2, 43909, Note_off_c, 4, 76, 127
2, 43909, Note_off_c, 1, 73, 127
2, 43909, Note_off_c, 7, 67, 127
2, 43910, Note_on_c, 6, 66, 127
2, 43910, Note_on_c, 11, 58, 127
2, 43910, Note_on_c, 6, 78, 127
2, 43910, Note_on_c, 1, 73, 127
2, 44303, Note_off_c, 6, 78, 127
2, 44304, Note_on_c, 4, 76, 127
2, 44697, Note_off_c, 4, 76, 127
2, 44697, Note_off_c, 1, 73, 127
2, 44697, Note_off_c, 11, 58, 127
2, 44697, Note_off_c, 6, 66, 127
2, 44698, Note_on_c, 12, 59, 127
2, 44698, Note_on_c, 2, 62, 127
2, 44698, Note_on_c, 6, 66, 127
2, 44698, Note_on_c, 2, 74, 127
2, 44698, Note_on_c, 12, 71, 127
2, 45091, Note_off_c, 2, 74, 127
2, 45091, Note_off_c, 6, 66, 127
2, 45091, Note_off_c, 2, 62, 127
2, 45091, Note_off_c, 12, 59, 127
2, 45092, Note_on_c, 4, 52, 127
2, 45092, Note_on_c, 1, 61, 127
2, 45092, Note_on_c, 7, 79, 127
2, 45288, Note_off_c, 7, 79, 127
2, 45289, Note_on_c, 1, 73, 127
2, 45485, Note_off_c, 1, 73, 127
2, 45485, Note_off_c, 4, 52, 127
2, 45485, Note_off_c, 12, 71, 127
2, 45486, Note_on_c, 6, 54, 127
2, 45486, Note_on_c, 11, 70, 127
2, 45486, Note_on_c, 2, 74, 127
2, 45617, Note_off_c, 2, 74, 127
2, 45617, Note_on_c, 1, 73, 127
2, 45683, Note_off_c, 1, 73, 127
2, 45683, Note_on_c, 2, 74, 127
2, 45749, Note_off_c, 2, 74, 127
2, 45749, Note_on_c, 1, 73, 127
2, 45815, Note_off_c, 1, 73, 127
2, 45815, Note_on_c, 2, 74, 127
2, 45880, Note_off_c, 1, 61, 127
2, 45881, Note_off_c, 2, 74, 127
2, 45881, Note_on_c, 4, 64, 127
2, 45881, Note_on_c, 1, 73, 127
2, 46076, Note_off_c, 1, 73, 127
2, 46078, Note_on_c, 12, 71, 127
2, 46274, Note_off_c, 12, 71, 127
2, 46274, Note_off_c, 4, 64, 127
2, 46274, Note_off_c, 11, 70, 127
2, 46274, Note_off_c, 6, 54, 127
2, 46275, Note_on_c, 12, 59, 127
2, 46275, Note_on_c, 2, 62, 127
2, 46275, Note_on_c, 12, 71, 127
2, 46275, Note_on_c, 6, 66, 127
2, 46665, Note_off_c, 2, 62, 127
2, 46668, Note_off_c, 6, 66, 127
2, 46668, Note_off_c, 12, 71, 127
2, 46697, Note_on_c, 2, 62, 127
2, 47062, Note_off_c, 12, 59, 127
2, 47095, Note_on_c, 7, 67, 127
2, 47291, Note_off_c, 7, 67, 127
2, 47292, Note_on_c, 6, 66, 127
2, 47484, Note_off_c, 2, 62, 127
2, 47488, Note_off_c, 6, 66, 127
2, 47489, Note_on_c, 6, 66, 127
2, 47882, Note_off_c, 6, 66, 127
2, 47883, Note_on_c, 2, 50, 127
2, 47883, Note_on_c, 10, 57, 127
2, 47883, Note_on_c, 2, 62, 127
2, 48276, Note_off_c, 2, 62, 127
2, 48276, Note_off_c, 10, 57, 127
2, 48277, Note_on_c, 2, 62, 127
2, 48277, Note_on_c, 6, 66, 127
2, 48473, Note_off_c, 2, 62, 127
2, 48474, Note_on_c, 0, 60, 127
2, 48670, Note_off_c, 0, 60, 127
2, 48670, Note_off_c, 6, 66, 127
2, 48670, Note_off_c, 2, 50, 127
2, 48671, Note_on_c, 12, 59, 127
2, 48671, Note_on_c, 4, 64, 127
2, 48671, Note_on_c, 7, 67, 127
2, 49064, Note_off_c, 7, 67, 127
2, 49064, Note_off_c, 4, 64, 127
2, 49064, Note_off_c, 12, 59, 127
2, 49065, Note_on_c, 10, 57, 127
2, 49065, Note_on_c, 6, 66, 127
2, 49065, Note_on_c, 10, 69, 127
2, 49458, Note_off_c, 10, 69, 127
2, 49458, Note_off_c, 6, 66, 127
2, 49458, Note_off_c, 10, 57, 127
2, 49459, Note_on_c, 7, 55, 127
2, 49459, Note_on_c, 12, 71, 127
2, 49459, Note_on_c, 7, 67, 127
2, 49852, Note_off_c, 7, 67, 127
2, 49852, Note_off_c, 12, 71, 127
2, 49852, Note_off_c, 7, 55, 127
2, 49853, Note_on_c, 2, 62, 127
2, 49853, Note_on_c, 10, 69, 127
2, 49853, Note_on_c, 6, 66, 127
2, 50243, Note_off_c, 2, 62, 127
2, 50246, Note_off_c, 10, 69, 127
2, 50247, Note_on_c, 2, 62, 127
2, 50640, Note_off_c, 2, 62, 127
2, 50640, Note_off_c, 6, 66, 127
2, 50652, Note_on_c, 2, 62, 127
2, 50652, Note_on_c, 6, 66, 127
2, 50652, Note_on_c, 10, 69, 127
2, 51045, Note_off_c, 10, 69, 127
2, 51045, Note_off_c, 6, 66, 127
2, 51045, Note_off_c, 2, 62, 127
2, 51051, Note_on_c, 12, 71, 127
2, 51051, Note_on_c, 8, 68, 127
2, 51051, Note_on_c, 2, 62, 127
2, 51444, Note_off_c, 2, 62, 127
2, 51444, Note_off_c, 8, 68, 127
2, 51444, Note_off_c, 12, 71, 127
2, 51445, Note_on_c, 11, 70, 127
2, 51445, Note_on_c, 1, 73, 127
2, 51445, Note_on_c, 1, 61, 127
2, 51445, Note_on_c, 4, 64, 127
2, 51838, Note_off_c, 4, 64, 127
2, 51838, Note_off_c, 1, 61, 127
2, 51838, Note_off_c, 1, 73, 127
2, 51838, Note_off_c, 11, 70, 127
2, 51839, Note_on_c, 12, 71, 127
2, 51839, Note_on_c, 2, 74, 127
2, 51839, Note_on_c, 12, 59, 127
2, 51839, Note_on_c, 6, 66, 127
2, 52232, Note_off_c, 6, 66, 127
2, 52232, Note_off_c, 12, 59, 127
2, 52232, Note_off_c, 2, 74, 127
2, 52232, Note_off_c, 12, 71, 127
2, 52233, Note_on_c, 1, 73, 127
2, 52233, Note_on_c, 10, 69, 127
2, 52233, Note_on_c, 6, 66, 127
2, 52626, Note_off_c, 10, 69, 127
2, 52626, Note_off_c, 1, 73, 127
2, 52627, Note_on_c, 10, 69, 127
2, 53020, Note_off_c, 10, 69, 127
2, 53020, Note_off_c, 6, 66, 127
2, 53029, Note_on_c, 7, 67, 127
2, 53029, Note_on_c, 10, 69, 127
2, 53029, Note_on_c, 1, 73, 127
2, 53422, Note_off_c, 1, 73, 127
2, 53422, Note_off_c, 10, 69, 127
2, 53422, Note_off_c, 7, 67, 127
2, 53431, Note_on_c, 6, 66, 127
2, 53431, Note_on_c, 10, 69, 127
2, 53431, Note_on_c, 3, 75, 127
2, 53824, Note_off_c, 3, 75, 127
2, 53824, Note_off_c, 10, 69, 127
2, 53824, Note_off_c, 6, 66, 127
2, 53825, Note_on_c, 4, 64, 127
2, 53825, Note_on_c, 7, 67, 127
2, 53825, Note_on_c, 12, 71, 127
2, 53825, Note_on_c, 4, 76, 127
2, 54218, Note_off_c, 4, 76, 127
2, 54218, Note_off_c, 12, 71, 127
2, 54218, Note_off_c, 7, 67, 127
2, 54218, Note_off_c, 4, 64, 127
2, 54219, Note_on_c, 6, 66, 127
2, 54219, Note_on_c, 3, 63, 127
2, 54219, Note_on_c, 12, 71, 127
2, 54219, Note_on_c, 6, 78, 127
2, 54612, Note_off_c, 6, 78, 127
2, 54612, Note_off_c, 3, 63, 127
2, 54612, Note_off_c, 6, 66, 127
2, 54613, Note_on_c, 4, 64, 127
2, 54613, Note_on_c, 7, 79, 127
2, 54900, Note_on_c, 6, 78, 127
2, 54907, Note_off_c, 7, 79, 127
2, 54997, Note_off_c, 6, 78, 127
2, 55005, Note_off_c, 12, 71, 127
2, 55006, Note_on_c, 4, 76, 127
2, 55006, Note_on_c, 7, 67, 127
2, 55293, Note_on_c, 2, 74, 127
2, 55300, Note_off_c, 4, 76, 127
2, 55390, Note_off_c, 2, 74, 127
2, 55395, Note_off_c, 7, 67, 127
2, 55398, Note_off_c, 4, 64, 127
2, 55399, Note_on_c, 10, 57, 127
2, 55399, Note_on_c, 0, 72, 127
2, 55399, Note_on_c, 4, 64, 127
2, 55686, Note_on_c, 12, 71, 127
2, 55693, Note_off_c, 0, 72, 127
2, 55783, Note_off_c, 12, 71, 127
2, 55792, Note_on_c, 10, 69, 127
2, 56079, Note_on_c, 7, 67, 127
2, 56086, Note_off_c, 10, 69, 127
2, 56176, Note_off_c, 7, 67, 127
2, 56184, Note_off_c, 10, 57, 127
2, 56185, Note_on_c, 12, 59, 127
2, 56185, Note_on_c, 7, 67, 127
2, 56251, Note_off_c, 7, 67, 127
2, 56251, Note_on_c, 6, 66, 127
2, 56317, Note_off_c, 6, 66, 127
2, 56317, Note_on_c, 7, 67, 127
2, 56383, Note_off_c, 7, 67, 127
2, 56383, Note_on_c, 6, 66, 127
2, 56578, Note_off_c, 4, 64, 127
2, 56580, Note_on_c, 3, 63, 127
2, 56736, Note_off_c, 6, 66, 127
2, 56769, Note_on_c, 4, 64, 127
2, 56965, Note_off_c, 4, 64, 127
2, 56970, Note_off_c, 3, 63, 127
2, 56973, Note_off_c, 12, 59, 127
2, 56974, Note_on_c, 12, 59, 127
2, 56974, Note_on_c, 4, 52, 127
2, 56974, Note_on_c, 7, 55, 127
2, 56974, Note_on_c, 4, 64, 127
2, 57384, Note_on_c, 12, 71, 127
2, 57564, Note_off_c, 7, 55, 127
2, 57761, Note_off_c, 4, 64, 127
2, 57761, Note_off_c, 4, 52, 127
2, 57761, Note_off_c, 12, 59, 127
2, 57777, Note_off_c, 12, 71, 127
2, 57794, Note_on_c, 7, 79, 127
2, 57990, Note_off_c, 7, 79, 127
2, 57991, Note_on_c, 6, 78, 127
2, 58187, Note_off_c, 6, 78, 127
2, 58188, Note_on_c, 6, 78, 127
2, 58581, Note_off_c, 6, 78, 127
2, 58582, Note_on_c, 12, 71, 127
2, 58582, Note_on_c, 12, 59, 127
2, 58975, Note_off_c, 12, 59, 127
2, 58976, Note_on_c, 7, 67, 127
2, 59172, Note_off_c, 7, 67, 127
2, 59173, Note_on_c, 6, 66, 127
2, 59369, Note_off_c, 6, 66, 127
2, 59370, Note_on_c, 6, 66, 127
2, 59764, Note_on_c, 12, 59, 127
2, 59950, Note_off_c, 6, 66, 127
2, 60032, Note_off_c, 12, 71, 127
2, 60157, Note_off_c, 12, 59, 127
2, 60158, Note_on_c, 3, 75, 127
2, 60158, Note_on_c, 12, 71, 127
2, 60158, Note_on_c, 6, 66, 127
2, 60158, Note_on_c, 10, 57, 127
2, 60158, Note_on_c, 12, 59, 127
2, 60158, Note_on_c, 3, 63, 127
2, 60551, Note_off_c, 3, 63, 127
2, 60551, Note_off_c, 12, 59, 127
2, 60551, Note_off_c, 10, 57, 127
2, 60551, Note_off_c, 6, 66, 127
2, 60551, Note_off_c, 12, 71, 127
2, 60551, Note_off_c, 3, 75, 127
2, 60552, Note_on_c, 4, 76, 127
2, 60552, Note_on_c, 12, 71, 127
2, 60552, Note_on_c, 4, 64, 127
2, 60552, Note_on_c, 7, 55, 127
2, 60552, Note_on_c, 12, 59, 127
2, 60942, Note_off_c, 7, 55, 127
2, 60945, Note_off_c, 4, 76, 127
2, 60946, Note_on_c, 6, 78, 127
2, 60946, Note_on_c, 6, 54, 127
2, 61339, Note_off_c, 6, 54, 127
2, 61339, Note_off_c, 6, 78, 127
2, 61339, Note_off_c, 12, 59, 127
2, 61339, Note_off_c, 4, 64, 127
2, 61339, Note_off_c, 12, 71, 127
2, 61340, Note_on_c, 7, 79, 127
2, 61340, Note_on_c, 12, 71, 127
2, 61340, Note_on_c, 4, 76, 127
2, 61340, Note_on_c, 4, 64, 127
2, 61340, Note_on_c, 12, 59, 127
2, 61340, Note_on_c, 4, 52, 127
2, 61733, Note_off_c, 4, 52, 127
2, 61733, Note_off_c, 12, 59, 127
2, 61733, Note_off_c, 4, 64, 127
2, 61733, Note_off_c, 4, 76, 127
2, 61733, Note_off_c, 12, 71, 127
2, 61733, Note_off_c, 7, 79, 127
2, 61734, Note_on_c, 3, 75, 127
2, 61734, Note_on_c, 12, 71, 127
2, 61734, Note_on_c, 6, 66, 127
2, 61734, Note_on_c, 12, 59, 127
2, 62127, Note_off_c, 12, 71, 127
2, 62127, Note_off_c, 3, 75, 127
2, 62128, Note_on_c, 12, 71, 127
2, 62128, Note_on_c, 12, 47, 127
2, 62521, Note_off_c, 12, 47, 127
2, 62521, Note_off_c, 12, 71, 127
2, 62521, Note_off_c, 12, 59, 127
2, 62521, Note_off_c, 6, 66, 127
2, 62522, Note_on_c, 4, 76, 127
2, 62522, Note_on_c, 12, 71, 127
2, 62522, Note_on_c, 4, 64, 127
2, 62522, Note_on_c, 7, 67, 127
2, 62522, Note_on_c, 12, 59, 127
2, 62522, Note_on_c, 7, 55, 127
2, 62915, Note_off_c, 7, 55, 127
2, 62915, Note_off_c, 12, 59, 127
2, 62915, Note_off_c, 7, 67, 127
2, 62915, Note_off_c, 4, 64, 127
2, 62915, Note_off_c, 12, 71, 127
2, 62915, Note_off_c, 4, 76, 127
2, 62916, Note_on_c, 0, 72, 127
2, 62916, Note_on_c, 10, 69, 127
2, 62916, Note_on_c, 4, 64, 127
2, 62916, Note_on_c, 0, 60, 127
2, 62916, Note_on_c, 10, 57, 127
2, 63309, Note_off_c, 10, 57, 127
2, 63309, Note_off_c, 10, 69, 127
2, 63309, Note_off_c, 0, 72, 127
2, 63310, Note_on_c, 12, 71, 127
2, 63310, Note_on_c, 7, 55, 127
2, 63703, Note_off_c, 7, 55, 127
2, 63703, Note_off_c, 12, 71, 127
2, 63703, Note_off_c, 0, 60, 127
2, 63703, Note_off_c, 4, 64, 127
2, 63704, Note_on_c, 10, 69, 127
2, 63704, Note_on_c, 3, 63, 127
2, 63704, Note_on_c, 12, 59, 127
2, 63704, Note_on_c, 10, 57, 127
2, 63704, Note_on_c, 6, 54, 127
2, 64097, Note_off_c, 6, 54, 127
2, 64097, Note_off_c, 10, 57, 127
2, 64097, Note_off_c, 12, 59, 127
2, 64097, Note_off_c, 3, 63, 127
2, 64097, Note_off_c, 10, 69, 127
2, 64098, Note_on_c, 4, 64, 127
2, 64098, Note_on_c, 12, 71, 127
2, 64098, Note_on_c, 12, 59, 127
2, 64098, Note_on_c, 7, 55, 127
2, 64491, Note_off_c, 7, 55, 127
2, 64491, Note_off_c, 12, 71, 127
2, 64492, Note_on_c, 10, 69, 127
2, 64492, Note_on_c, 6, 54, 127
2, 64885, Note_off_c, 6, 54, 127
2, 64885, Note_off_c, 10, 69, 127
2, 64885, Note_off_c, 12, 59, 127
2, 64885, Note_off_c, 4, 64, 127
2, 64886, Note_on_c, 7, 67, 127
2, 64886, Note_on_c, 4, 64, 127
2, 64886, Note_on_c, 12, 59, 127
2, 64886, Note_on_c, 4, 52, 127
2, 65279, Note_off_c, 4, 52, 127
2, 65279, Note_off_c, 12, 59, 127
2, 65279, Note_off_c, 7, 67, 127
2, 65280, Note_on_c, 0, 72, 127
2, 65280, Note_on_c, 10, 57, 127
2, 65280, Note_on_c, 6, 54, 127
2, 65280, Note_on_c, 10, 45, 127
2, 65476, Note_off_c, 0, 72, 127
2, 65477, Note_on_c, 6, 66, 127
2, 65673, Note_off_c, 6, 66, 127
2, 65673, Note_off_c, 10, 45, 127
2, 65674, Note_on_c, 7, 67, 127
2, 65674, Note_on_c, 12, 47, 127
2, 65805, Note_off_c, 7, 67, 127
2, 65805, Note_on_c, 6, 66, 127
2, 65871, Note_off_c, 6, 66, 127
2, 65871, Note_on_c, 7, 67, 127
2, 65937, Note_off_c, 7, 67, 127
2, 65937, Note_on_c, 6, 66, 127
2, 66003, Note_off_c, 6, 66, 127
2, 66003, Note_on_c, 7, 67, 127
2, 66067, Note_off_c, 4, 64, 127
2, 66068, Note_off_c, 6, 54, 127
2, 66068, Note_off_c, 10, 57, 127
2, 66069, Note_off_c, 7, 67, 127
2, 66069, Note_on_c, 6, 66, 127
2, 66069, Note_on_c, 3, 63, 127
2, 66069, Note_on_c, 10, 57, 127
2, 66264, Note_off_c, 6, 66, 127
2, 66266, Note_on_c, 4, 64, 127
2, 66459, Note_off_c, 3, 63, 127
2, 66462, Note_off_c, 4, 64, 127
2, 66462, Note_off_c, 10, 57, 127
2, 66462, Note_off_c, 12, 47, 127
2, 66463, Note_on_c, 4, 64, 127
2, 66463, Note_on_c, 12, 59, 127
2, 66463, Note_on_c, 7, 55, 127
2, 66463, Note_on_c, 4, 52, 127
2, 66856, Note_off_c, 12, 59, 127
2, 66856, Note_off_c, 4, 64, 127
2, 66873, Note_on_c, 4, 76, 127
2, 66873, Note_on_c, 7, 67, 127
2, 67250, Note_off_c, 4, 52, 127
2, 67250, Note_off_c, 7, 55, 127
2, 67266, Note_off_c, 7, 67, 127
2, 67266, Note_off_c, 4, 76, 127
2, 67267, Note_on_c, 10, 69, 127
2, 67267, Note_on_c, 6, 78, 127
2, 67660, Note_off_c, 6, 78, 127
2, 67660, Note_off_c, 10, 69, 127
2, 67661, Note_on_c, 7, 79, 127
2, 67661, Note_on_c, 12, 71, 127
2, 68071, Note_on_c, 4, 64, 127
2, 68071, Note_on_c, 7, 67, 127
2, 68464, Note_off_c, 7, 67, 127
2, 68464, Note_off_c, 4, 64, 127
2, 68465, Note_on_c, 10, 69, 127
2, 68465, Note_on_c, 6, 66, 127
2, 68841, Note_off_c, 12, 71, 127
2, 68841, Note_off_c, 7, 79, 127
2, 68858, Note_off_c, 6, 66, 127
2, 68858, Note_off_c, 10, 69, 127
2, 68859, Note_on_c, 7, 67, 127
2, 68859, Note_on_c, 12, 71, 127
2, 69252, Note_off_c, 12, 71, 127
2, 69252, Note_off_c, 7, 67, 127
2, 69269, Note_on_c, 7, 67, 127
2, 69269, Note_on_c, 12, 71, 127
2, 69269, Note_on_c, 12, 83, 127
2, 69269, Note_on_c, 4, 76, 127
2, 69662, Note_off_c, 4, 76, 127
2, 69662, Note_off_c, 12, 83, 127
2, 69662, Note_off_c, 12, 71, 127
2, 69662, Note_off_c, 7, 67, 127
2, 69663, Note_on_c, 6, 66, 127
2, 69663, Note_on_c, 10, 69, 127
2, 69663, Note_on_c, 3, 75, 127
2, 69663, Note_on_c, 12, 71, 127
2, 70056, Note_off_c, 12, 71, 127
2, 70056, Note_off_c, 3, 75, 127
2, 70056, Note_off_c, 10, 69, 127
2, 70056, Note_off_c, 6, 66, 127
2, 70057, Note_on_c, 7, 67, 127
2, 70057, Note_on_c, 4, 64, 127
2, 70057, Note_on_c, 4, 76, 127
2, 70057, Note_on_c, 12, 71, 127
2, 70450, Note_off_c, 4, 76, 127
2, 70450, Note_off_c, 4, 64, 127
2, 70450, Note_off_c, 7, 67, 127
2, 70451, Note_on_c, 6, 66, 127
2, 70451, Note_on_c, 3, 63, 127
2, 70451, Note_on_c, 6, 78, 127
2, 70844, Note_off_c, 6, 78, 127
2, 70844, Note_off_c, 3, 63, 127
2, 70844, Note_off_c, 6, 66, 127
2, 70844, Note_off_c, 12, 71, 127
2, 70845, Note_on_c, 4, 64, 127
2, 70845, Note_on_c, 7, 79, 127
2, 70845, Note_on_c, 12, 71, 127
2, 71238, Note_off_c, 12, 71, 127
2, 71238, Note_off_c, 7, 79, 127
2, 71238, Note_off_c, 4, 64, 127
2, 71239, Note_on_c, 6, 66, 127
2, 71239, Note_on_c, 12, 59, 127
2, 71239, Note_on_c, 3, 75, 127
2, 71239, Note_on_c, 12, 71, 127
2, 71632, Note_off_c, 12, 71, 127
2, 71632, Note_off_c, 3, 75, 127
2, 71632, Note_off_c, 6, 66, 127
2, 71633, Note_on_c, 3, 63, 127
2, 71633, Note_on_c, 6, 66, 127
2, 71633, Note_on_c, 12, 71, 127
2, 72026, Note_off_c, 12, 71, 127
2, 72026, Note_off_c, 6, 66, 127
2, 72026, Note_off_c, 3, 63, 127
2, 72026, Note_off_c, 12, 59, 127
2, 72027, Note_on_c, 10, 57, 127
2, 72027, Note_on_c, 3, 63, 127
2, 72027, Note_on_c, 12, 59, 127
2, 72420, Note_off_c, 12, 59, 127
2, 72420, Note_off_c, 3, 63, 127
2, 72420, Note_off_c, 10, 57, 127
2, 72421, Note_on_c, 7, 55, 127
2, 72421, Note_on_c, 12, 59, 127
2, 72421, Note_on_c, 4, 64, 127
2, 72421, Note_on_c, 1, 61, 127
2, 72814, Note_off_c, 1, 61, 127
2, 72814, Note_off_c, 4, 64, 127
2, 72814, Note_off_c, 12, 59, 127
2, 72814, Note_off_c, 7, 55, 127
2, 72815, Note_on_c, 6, 54, 127
2, 72815, Note_on_c, 10, 57, 127
2, 72815, Note_on_c, 3, 63, 127
2, 72815, Note_on_c, 6, 66, 127
2, 73208, Note_off_c, 6, 66, 127
2, 73208, Note_off_c, 3, 63, 127
2, 73208, Note_off_c, 10, 57, 127
2, 73208, Note_off_c, 6, 54, 127
2, 73209, Note_on_c, 12, 59, 127
2, 73209, Note_on_c, 4, 52, 127
2, 73209, Note_on_c, 7, 67, 127
2, 73209, Note_on_c, 4, 64, 127
2, 73602, Note_off_c, 4, 64, 127
2, 73602, Note_off_c, 7, 67, 127
2, 73602, Note_off_c, 4, 52, 127
2, 73602, Note_off_c, 12, 59, 127
2, 73603, Note_on_c, 3, 51, 127
2, 73603, Note_on_c, 12, 59, 127
2, 73603, Note_on_c, 10, 69, 127
2, 73603, Note_on_c, 6, 66, 127
2, 73996, Note_off_c, 3, 51, 127
2, 73997, Note_on_c, 12, 47, 127
2, 74193, Note_off_c, 10, 69, 127
2, 74194, Note_on_c, 12, 71, 127
2, 74390, Note_off_c, 12, 71, 127
2, 74390, Note_off_c, 12, 47, 127
2, 74390, Note_off_c, 6, 66, 127
2, 74390, Note_off_c, 12, 59, 127
2, 74391, Note_on_c, 4, 52, 127
2, 74391, Note_on_c, 12, 59, 127
2, 74391, Note_on_c, 7, 67, 127
2, 74391, Note_on_c, 4, 64, 127
2, 74587, Note_off_c, 7, 67, 127
2, 74588, Note_on_c, 6, 66, 127
2, 74784, Note_off_c, 6, 66, 127
2, 74784, Note_off_c, 12, 59, 127
2, 74784, Note_off_c, 4, 52, 127
2, 74785, Note_on_c, 4, 52, 127
2, 74785, Note_on_c, 0, 60, 127
2, 74785, Note_on_c, 10, 45, 127
2, 74785, Note_on_c, 7, 67, 127
2, 74981, Note_off_c, 7, 67, 127
2, 74982, Note_on_c, 10, 69, 127
2, 75178, Note_off_c, 10, 69, 127
2, 75178, Note_off_c, 10, 45, 127
2, 75178, Note_off_c, 0, 60, 127
2, 75178, Note_off_c, 4, 52, 127
2, 75178, Note_off_c, 4, 64, 127
2, 75179, Note_on_c, 12, 47, 127
2, 75179, Note_on_c, 12, 59, 127
2, 75179, Note_on_c, 7, 67, 127
2, 75179, Note_on_c, 3, 63, 127
2, 75245, Note_on_c, 6, 66, 127
2, 75246, Note_off_c, 7, 67, 127
2, 75311, Note_on_c, 7, 67, 127
2, 75312, Note_off_c, 6, 66, 127
2, 75377, Note_on_c, 6, 66, 127
2, 75378, Note_off_c, 7, 67, 127
2, 75443, Note_on_c, 7, 67, 127
2, 75444, Note_off_c, 6, 66, 127
2, 75509, Note_on_c, 6, 66, 127
2, 75510, Note_off_c, 7, 67, 127
2, 75574, Note_off_c, 12, 59, 127
2, 75575, Note_on_c, 10, 57, 127
2, 75735, Note_off_c, 6, 66, 127
2, 75771, Note_off_c, 3, 63, 127
2, 75772, Note_on_c, 4, 64, 127
2, 75956, Note_off_c, 4, 64, 127
2, 75968, Note_off_c, 10, 57, 127
2, 75968, Note_off_c, 12, 47, 127
2, 75969, Note_on_c, 7, 55, 127
2, 75969, Note_on_c, 4, 52, 127
2, 75969, Note_on_c, 12, 59, 127
2, 75969, Note_on_c, 4, 64, 127
2, 76362, Note_off_c, 12, 59, 127
2, 76395, Note_on_c, 7, 67, 127
2, 76395, Note_on_c, 12, 71, 127
2, 76395, Note_on_c, 4, 76, 127
2, 76449, Note_off_c, 4, 64, 127
2, 76756, Note_off_c, 4, 52, 127
2, 76756, Note_off_c, 7, 55, 127
2, 76788, Note_off_c, 4, 76, 127
2, 76788, Note_off_c, 12, 71, 127
2, 76788, Note_off_c, 7, 67, 127
2, 76789, Note_on_c, 6, 66, 127
2, 76789, Note_on_c, 2, 74, 127
2, 76789, Note_on_c, 10, 69, 127
2, 77182, Note_off_c, 10, 69, 127
2, 77182, Note_off_c, 2, 74, 127
2, 77182, Note_off_c, 6, 66, 127
2, 77183, Note_on_c, 0, 72, 127
2, 77183, Note_on_c, 4, 64, 127
2, 77183, Note_on_c, 7, 67, 127
2, 77576, Note_off_c, 7, 67, 127
2, 77576, Note_off_c, 4, 64, 127
2, 77576, Note_off_c, 0, 72, 127
2, 77577, Note_on_c, 6, 66, 127
2, 77577, Note_on_c, 2, 74, 127
2, 77577, Note_on_c, 10, 69, 127
2, 77970, Note_off_c, 10, 69, 127
2, 77970, Note_off_c, 2, 74, 127
2, 77970, Note_off_c, 6, 66, 127
2, 77971, Note_on_c, 7, 67, 127
2, 77971, Note_on_c, 12, 71, 127
2, 77971, Note_on_c, 4, 76, 127
2, 78364, Note_off_c, 4, 76, 127
2, 78364, Note_off_c, 12, 71, 127
2, 78364, Note_off_c, 7, 67, 127
2, 78365, Note_on_c, 0, 72, 127
2, 78365, Note_on_c, 10, 69, 127
2, 78365, Note_on_c, 6, 78, 127
2, 78758, Note_off_c, 6, 78, 127
2, 78758, Note_off_c, 10, 69, 127
2, 78758, Note_off_c, 0, 72, 127
2, 78759, Note_on_c, 7, 79, 127
2, 78759, Note_on_c, 12, 71, 127
2, 78759, Note_on_c, 2, 74, 127
2, 79152, Note_off_c, 2, 74, 127
2, 79152, Note_off_c, 12, 71, 127
2, 79152, Note_off_c, 7, 79, 127
2, 79153, Note_on_c, 10, 69, 127
2, 79153, Note_on_c, 0, 72, 127
2, 79153, Note_on_c, 6, 78, 127
2, 79546, Note_off_c, 6, 78, 127
2, 79546, Note_off_c, 0, 72, 127
2, 79546, Note_off_c, 10, 69, 127
2, 79547, Note_on_c, 12, 83, 127
2, 79547, Note_on_c, 7, 67, 127
2, 79547, Note_on_c, 2, 74, 127
2, 79940, Note_off_c, 2, 74, 127
2, 79941, Note_on_c, 0, 72, 127
2, 80137, Note_off_c, 12, 83, 127
2, 80138, Note_on_c, 10, 81, 127
2, 80331, Note_off_c, 0, 72, 127
2, 80334, Note_off_c, 10, 81, 127
2, 80335, Note_on_c, 12, 71, 127
2, 80335, Note_on_c, 7, 79, 127
2, 80531, Note_off_c, 7, 79, 127
2, 80532, Note_on_c, 6, 78, 127
2, 80727, Note_off_c, 7, 67, 127
2, 80728, Note_off_c, 6, 78, 127
2, 80729, Note_on_c, 0, 60, 127
2, 80729, Note_on_c, 4, 76, 127
2, 80925, Note_off_c, 4, 76, 127
2, 80925, Note_off_c, 12, 71, 127
2, 80926, Note_on_c, 10, 69, 127
2, 80926, Note_on_c, 6, 78, 127
2, 81122, Note_off_c, 6, 78, 127
2, 81122, Note_off_c, 10, 69, 127
2, 81122, Note_off_c, 0, 60, 127
2, 81123, Note_on_c, 2, 62, 127
2, 81123, Note_on_c, 10, 69, 127
2, 81123, Note_on_c, 7, 79, 127
2, 81200, Note_off_c, 7, 79, 127
2, 81200, Note_on_c, 6, 78, 127
2, 81267, Note_on_c, 7, 79, 127
2, 81277, Note_off_c, 6, 78, 127
2, 81339, Note_on_c, 6, 78, 127
2, 81344, Note_off_c, 7, 79, 127
2, 81516, Note_off_c, 10, 69, 127
2, 81517, Note_on_c, 0, 72, 127
2, 81677, Note_off_c, 6, 78, 127
2, 81714, Note_on_c, 7, 79, 127
2, 81907, Note_off_c, 0, 72, 127
2, 81910, Note_off_c, 7, 79, 127
2, 81910, Note_off_c, 2, 62, 127
2, 81911, Note_on_c, 7, 55, 127
2, 81911, Note_on_c, 12, 71, 127
2, 81911, Note_on_c, 7, 79, 127
2, 81911, Note_on_c, 2, 74, 127
2, 81911, Note_on_c, 7, 67, 127
2, 82304, Note_off_c, 7, 67, 127
2, 82304, Note_off_c, 2, 74, 127
2, 82304, Note_off_c, 7, 79, 127
2, 82304, Note_off_c, 12, 71, 127
2, 82321, Note_on_c, 7, 67, 127
2, 82698, Note_off_c, 7, 55, 127
2, 82714, Note_off_c, 7, 67, 127
2, 82731, Note_on_c, 4, 76, 127
2, 82927, Note_off_c, 4, 76, 127
2, 82928, Note_on_c, 2, 74, 127
2, 83124, Note_off_c, 2, 74, 127
2, 83125, Note_on_c, 2, 74, 127
2, 83518, Note_off_c, 2, 74, 127
2, 83519, Note_on_c, 7, 55, 127
2, 83519, Note_on_c, 7, 67, 127
2, 83912, Note_off_c, 7, 55, 127
2, 83913, Note_on_c, 4, 64, 127
2, 84109, Note_off_c, 4, 64, 127
2, 84110, Note_on_c, 2, 62, 127
2, 84306, Note_off_c, 2, 62, 127
2, 84307, Note_on_c, 2, 62, 127
2, 84699, Note_off_c, 7, 67, 127
2, 84700, Note_off_c, 2, 62, 127
2, 84701, Note_on_c, 7, 55, 127
2, 85094, Note_off_c, 7, 55, 127
2, 85095, Note_on_c, 0, 60, 127
2, 85095, Note_on_c, 2, 62, 127
2, 85095, Note_on_c, 6, 66, 127
2, 85095, Note_on_c, 10, 69, 127
2, 85488, Note_off_c, 10, 69, 127
2, 85488, Note_off_c, 6, 66, 127
2, 85488, Note_off_c, 2, 62, 127
2, 85488, Note_off_c, 0, 60, 127
2, 85489, Note_on_c, 12, 59, 127
2, 85489, Note_on_c, 2, 62, 127
2, 85489, Note_on_c, 7, 67, 127
2, 85489, Note_on_c, 12, 71, 127
2, 85882, Note_off_c, 12, 71, 127
2, 85882, Note_off_c, 7, 67, 127
2, 85882, Note_off_c, 2, 62, 127
2, 85882, Note_off_c, 12, 59, 127
2, 85883, Note_on_c, 0, 60, 127
2, 85883, Note_on_c, 10, 57, 127
2, 85883, Note_on_c, 10, 69, 127
2, 85883, Note_on_c, 0, 72, 127
2, 86276, Note_off_c, 0, 72, 127
2, 86276, Note_off_c, 10, 69, 127
2, 86276, Note_off_c, 10, 57, 127
2, 86276, Note_off_c, 0, 60, 127
2, 86277, Note_on_c, 12, 59, 127
2, 86277, Note_on_c, 7, 55, 127
2, 86277, Note_on_c, 12, 71, 127
2, 86277, Note_on_c, 2, 74, 127
2, 86670, Note_off_c, 2, 74, 127
2, 86670, Note_off_c, 12, 71, 127
2, 86670, Note_off_c, 7, 55, 127
2, 86670, Note_off_c, 12, 59, 127
2, 86671, Note_on_c, 10, 57, 127
2, 86671, Note_on_c, 0, 60, 127
2, 86671, Note_on_c, 6, 66, 127
2, 87064, Note_off_c, 0, 60, 127
2, 87064, Note_off_c, 10, 57, 127
2, 87065, Note_on_c, 12, 59, 127
2, 87065, Note_on_c, 7, 55, 127
2, 87261, Note_off_c, 6, 66, 127
2, 87262, Note_on_c, 7, 67, 127
2, 87458, Note_off_c, 7, 67, 127
2, 87458, Note_off_c, 7, 55, 127
2, 87458, Note_off_c, 12, 59, 127
2, 87459, Note_on_c, 6, 54, 127
2, 87459, Note_on_c, 10, 57, 127
2, 87459, Note_on_c, 10, 69, 127
2, 87655, Note_off_c, 10, 69, 127
2, 87656, Note_on_c, 12, 71, 127
2, 87852, Note_off_c, 12, 71, 127
2, 87852, Note_off_c, 10, 57, 127
2, 87852, Note_off_c, 6, 54, 127
2, 87853, Note_on_c, 7, 55, 127
2, 87853, Note_on_c, 12, 59, 127
2, 87853, Note_on_c, 7, 67, 127
2, 88049, Note_off_c, 7, 67, 127
2, 88050, Note_on_c, 2, 62, 127
2, 88246, Note_off_c, 2, 62, 127
2, 88246, Note_off_c, 12, 59, 127
2, 88246, Note_off_c, 7, 55, 127
2, 88247, Note_on_c, 0, 48, 127
2, 88247, Note_on_c, 0, 60, 127
2, 88247, Note_on_c, 4, 64, 127
2, 88443, Note_off_c, 4, 64, 127
2, 88444, Note_on_c, 6, 66, 127
2, 88640, Note_off_c, 6, 66, 127
2, 88640, Note_off_c, 0, 60, 127
2, 88641, Note_on_c, 12, 59, 127
2, 88641, Note_on_c, 7, 67, 127
2, 88837, Note_off_c, 7, 67, 127
2, 88838, Note_on_c, 10, 69, 127
2, 89034, Note_off_c, 10, 69, 127
2, 89034, Note_off_c, 12, 59, 127
2, 89034, Note_off_c, 0, 48, 127
2, 89035, Note_on_c, 10, 57, 127
2, 89035, Note_on_c, 2, 50, 127
2, 89035, Note_on_c, 6, 66, 127
2, 89425, Note_off_c, 10, 57, 127
2, 89428, Note_off_c, 6, 66, 127
2, 89429, Note_on_c, 2, 62, 127
2, 89625, Note_off_c, 2, 50, 127
2, 89626, Note_on_c, 0, 60, 127
2, 89822, Note_off_c, 0, 60, 127
2, 89822, Note_off_c, 2, 62, 127
2, 89831, Note_on_c, 12, 59, 127
2, 89831, Note_on_c, 10, 69, 127
2, 89831, Note_on_c, 6, 66, 127
2, 90027, Note_off_c, 12, 59, 127
2, 90028, Note_on_c, 10, 57, 127
2, 90224, Note_off_c, 10, 57, 127
2, 90224, Note_off_c, 6, 66, 127
2, 90224, Note_off_c, 10, 69, 127
2, 90225, Note_on_c, 7, 55, 127
2, 90225, Note_on_c, 12, 71, 127
2, 90225, Note_on_c, 7, 67, 127
2, 90618, Note_off_c, 7, 67, 127
2, 90618, Note_off_c, 12, 71, 127
2, 90619, Note_on_c, 0, 72, 127
2, 90619, Note_on_c, 10, 69, 127
2, 90815, Note_off_c, 7, 55, 127
2, 91012, Note_off_c, 10, 69, 127
2, 91012, Note_off_c, 0, 72, 127
2, 91013, Note_on_c, 5, 53, 127
2, 91013, Note_on_c, 2, 74, 127
2, 91013, Note_on_c, 12, 71, 127
2, 91406, Note_off_c, 12, 71, 127
2, 91406, Note_off_c, 2, 74, 127
2, 91406, Note_off_c, 5, 53, 127
2, 91407, Note_on_c, 4, 52, 127
2, 91407, Note_on_c, 4, 76, 127
2, 91407, Note_on_c, 0, 72, 127
2, 91800, Note_off_c, 0, 72, 127
2, 91800, Note_off_c, 4, 52, 127
2, 91801, Note_on_c, 6, 54, 127
2, 91801, Note_on_c, 10, 69, 127
2, 91997, Note_off_c, 4, 76, 127
2, 91998, Note_on_c, 2, 74, 127
2, 92191, Note_off_c, 10, 69, 127
2, 92194, Note_off_c, 2, 74, 127
2, 92194, Note_off_c, 6, 54, 127
2, 92195, Note_on_c, 7, 55, 127
2, 92195, Note_on_c, 2, 62, 127
2, 92195, Note_on_c, 0, 72, 127
2, 92195, Note_on_c, 7, 67, 127
2, 92391, Note_off_c, 0, 72, 127
2, 92392, Note_on_c, 12, 71, 127
2, 92588, Note_off_c, 12, 71, 127
2, 92588, Note_off_c, 2, 62, 127
2, 92588, Note_off_c, 7, 55, 127
2, 92589, Note_on_c, 4, 64, 127
2, 92589, Note_on_c, 0, 48, 127
2, 92589, Note_on_c, 12, 71, 127
2, 92785, Note_off_c, 12, 71, 127
2, 92786, Note_on_c, 0, 72, 127
2, 92982, Note_off_c, 0, 72, 127
2, 92982, Note_off_c, 0, 48, 127
2, 92982, Note_off_c, 4, 64, 127
2, 92983, Note_on_c, 2, 50, 127
2, 92983, Note_on_c, 10, 57, 127
2, 92983, Note_on_c, 12, 71, 127
2, 93049, Note_off_c, 12, 71, 127
2, 93055, Note_on_c, 10, 69, 127
2, 93121, Note_off_c, 10, 69, 127
2, 93127, Note_on_c, 12, 71, 127
2, 93193, Note_off_c, 12, 71, 127
2, 93199, Note_on_c, 10, 69, 127
2, 93375, Note_off_c, 7, 67, 127
2, 93376, Note_off_c, 10, 57, 127
2, 93377, Note_on_c, 2, 62, 127
2, 93377, Note_on_c, 6, 66, 127
2, 93537, Note_off_c, 10, 69, 127
2, 93574, Note_on_c, 7, 67, 127
2, 93767, Note_off_c, 6, 66, 127
2, 93770, Note_off_c, 7, 67, 127
2, 93770, Note_off_c, 2, 62, 127
2, 93770, Note_off_c, 2, 50, 127
2, 93771, Note_on_c, 7, 43, 127
2, 93771, Note_on_c, 12, 59, 127
2, 93771, Note_on_c, 2, 62, 127
2, 93771, Note_on_c, 7, 67, 127
2, 94164, Note_off_c, 7, 67, 127
2, 94181, Note_on_c, 12, 71, 127
2, 94558, Note_off_c, 2, 62, 127
2, 94558, Note_off_c, 12, 59, 127
2, 94558, Note_off_c, 7, 43, 127
2, 94574, Note_off_c, 12, 71, 127
2, 94575, Note_on_c, 4, 76, 127
2, 94771, Note_off_c, 4, 76, 127
2, 94772, Note_on_c, 2, 74, 127
2, 94968, Note_off_c, 2, 74, 127
2, 94969, Note_on_c, 0, 72, 127
2, 95362, Note_off_c, 0, 72, 127
2, 95363, Note_on_c, 10, 69, 127
2, 95363, Note_on_c, 10, 57, 127
2, 95756, Note_off_c, 10, 69, 127
2, 95757, Note_on_c, 10, 69, 127
2, 95953, Note_off_c, 10, 69, 127
2, 95953, Note_off_c, 10, 57, 127
2, 95954, Note_on_c, 7, 67, 127
2, 96150, Note_off_c, 7, 67, 127
2, 96151, Note_on_c, 6, 66, 127
2, 96544, Note_off_c, 6, 66, 127
2, 96545, Note_on_c, 2, 74, 127
2, 96545, Note_on_c, 2, 62, 127
2, 96741, Note_off_c, 2, 74, 127
2, 96742, Note_on_c, 0, 72, 127
2, 96938, Note_off_c, 0, 72, 127
2, 96939, Note_on_c, 12, 71, 127
2, 97135, Note_off_c, 12, 71, 127
2, 97135, Note_off_c, 2, 62, 127
2, 97136, Note_on_c, 10, 69, 127
2, 97332, Note_off_c, 10, 69, 127
2, 97333, Note_on_c, 7, 67, 127
2, 97726, Note_off_c, 7, 67, 127
2, 97727, Note_on_c, 4, 64, 127
2, 97924, Note_on_c, 2, 62, 127
2, 98117, Note_off_c, 4, 64, 127
2, 98120, Note_off_c, 2, 62, 127
2, 98121, Note_on_c, 10, 69, 127
2, 98121, Note_on_c, 0, 60, 127
2, 98317, Note_off_c, 0, 60, 127
2, 98318, Note_on_c, 12, 59, 127
2, 98514, Note_off_c, 12, 59, 127
2, 98515, Note_on_c, 10, 57, 127
2, 98711, Note_off_c, 10, 69, 127
2, 98712, Note_on_c, 12, 71, 127
2, 98908, Note_off_c, 12, 71, 127
2, 98908, Note_off_c, 10, 57, 127
2, 98909, Note_on_c, 10, 69, 127
2, 98909, Note_on_c, 4, 52, 127
2, 98909, Note_on_c, 12, 59, 127
2, 99104, Note_off_c, 10, 69, 127
2, 99106, Note_on_c, 8, 68, 127
2, 99302, Note_off_c, 12, 59, 127
2, 99303, Note_on_c, 4, 64, 127
2, 99496, Note_off_c, 8, 68, 127
2, 99499, Note_off_c, 4, 64, 127
2, 99500, Note_on_c, 10, 69, 127
2, 99500, Note_on_c, 2, 62, 127
2, 99696, Note_off_c, 2, 62, 127
2, 99696, Note_off_c, 10, 69, 127
2, 99696, Note_off_c, 4, 52, 127
2, 99697, Note_on_c, 10, 69, 127
2, 99697, Note_on_c, 10, 57, 127
2, 99697, Note_on_c, 1, 61, 127
2, 100090, Note_off_c, 10, 69, 127
2, 100091, Note_on_c, 1, 73, 127
2, 100091, Note_on_c, 4, 76, 127
2, 100484, Note_off_c, 4, 76, 127
2, 100484, Note_off_c, 1, 73, 127
2, 100484, Note_off_c, 1, 61, 127
2, 100484, Note_off_c, 10, 57, 127
2, 100485, Note_on_c, 2, 74, 127
2, 100485, Note_on_c, 6, 78, 127
2, 100878, Note_off_c, 6, 78, 127
2, 100878, Note_off_c, 2, 74, 127
2, 100879, Note_on_c, 4, 76, 127
2, 100879, Note_on_c, 1, 73, 127
2, 101272, Note_off_c, 1, 73, 127
2, 101272, Note_off_c, 4, 76, 127
2, 101273, Note_on_c, 10, 69, 127
2, 101273, Note_on_c, 10, 57, 127
2, 101273, Note_on_c, 1, 61, 127
2, 101666, Note_off_c, 1, 61, 127
2, 101666, Note_off_c, 10, 57, 127
2, 101667, Note_on_c, 2, 62, 127
2, 101667, Note_on_c, 12, 59, 127
2, 102060, Note_off_c, 12, 59, 127
2, 102060, Note_off_c, 2, 62, 127
2, 102061, Note_on_c, 1, 61, 127
2, 102061, Note_on_c, 4, 64, 127
2, 102454, Note_off_c, 10, 69, 127
2, 102455, Note_on_c, 10, 69, 127
2, 102455, Note_on_c, 6, 66, 127
2, 102848, Note_off_c, 6, 66, 127
2, 102848, Note_off_c, 10, 69, 127
2, 102848, Note_off_c, 4, 64, 127
2, 102848, Note_off_c, 1, 61, 127
2, 102849, Note_on_c, 12, 71, 127
2, 102849, Note_on_c, 8, 68, 127
2, 102849, Note_on_c, 2, 62, 127
2, 102849, Note_on_c, 12, 59, 127
2, 103242, Note_off_c, 12, 59, 127
2, 103242, Note_off_c, 2, 62, 127
2, 103242, Note_off_c, 8, 68, 127
2, 103242, Note_off_c, 12, 71, 127
2, 103243, Note_on_c, 10, 69, 127
2, 103243, Note_on_c, 1, 73, 127
2, 103243, Note_on_c, 10, 57, 127
2, 103243, Note_on_c, 4, 64, 127
2, 103636, Note_off_c, 10, 57, 127
2, 103637, Note_on_c, 8, 56, 127
2, 104030, Note_off_c, 8, 56, 127
2, 104030, Note_off_c, 4, 64, 127
2, 104030, Note_off_c, 1, 73, 127
2, 104030, Note_off_c, 10, 69, 127
2, 104031, Note_on_c, 2, 74, 127
2, 104031, Note_on_c, 10, 69, 127
2, 104031, Note_on_c, 6, 66, 127
2, 104031, Note_on_c, 6, 54, 127
2, 104424, Note_off_c, 6, 54, 127
2, 104424, Note_off_c, 6, 66, 127
2, 104424, Note_off_c, 10, 69, 127
2, 104425, Note_on_c, 12, 71, 127
2, 104425, Note_on_c, 4, 64, 127
2, 104425, Note_on_c, 8, 56, 127
2, 104621, Note_off_c, 2, 74, 127
2, 104622, Note_on_c, 4, 76, 127
2, 104815, Note_off_c, 12, 71, 127
2, 104818, Note_off_c, 4, 76, 127
2, 104818, Note_off_c, 8, 56, 127
2, 104818, Note_off_c, 4, 64, 127
2, 104819, Note_on_c, 10, 69, 127
2, 104819, Note_on_c, 2, 74, 127
2, 104819, Note_on_c, 4, 64, 127
2, 104819, Note_on_c, 10, 57, 127
2, 104959, Note_off_c, 2, 74, 127
2, 104965, Note_on_c, 1, 73, 127
2, 105047, Note_on_c, 2, 74, 127
2, 105053, Note_off_c, 1, 73, 127
2, 105129, Note_on_c, 1, 73, 127
2, 105135, Note_off_c, 2, 74, 127
2, 105210, Note_off_c, 10, 57, 127
2, 105211, Note_on_c, 2, 74, 127
2, 105211, Note_on_c, 10, 45, 127
2, 105217, Note_off_c, 1, 73, 127
2, 105291, Note_off_c, 2, 74, 127
2, 105293, Note_on_c, 1, 73, 127
2, 105401, Note_off_c, 1, 73, 127
2, 105406, Note_off_c, 10, 69, 127
2, 105407, Note_on_c, 12, 71, 127
2, 105603, Note_off_c, 12, 71, 127
2, 105603, Note_off_c, 10, 45, 127
2, 105603, Note_off_c, 4, 64, 127
2, 105604, Note_on_c, 12, 71, 127
2, 105604, Note_on_c, 8, 68, 127
2, 105604, Note_on_c, 4, 64, 127
2, 105604, Note_on_c, 4, 52, 127
2, 105997, Note_off_c, 8, 68, 127
2, 105997, Note_off_c, 12, 71, 127
2, 105998, Note_on_c, 4, 76, 127
2, 105998, Note_on_c, 8, 68, 127
2, 106391, Note_off_c, 8, 68, 127
2, 106391, Note_off_c, 4, 76, 127
2, 106391, Note_off_c, 4, 52, 127
2, 106391, Note_off_c, 4, 64, 127
2, 106408, Note_on_c, 10, 69, 127
2, 106408, Note_on_c, 6, 78, 127
2, 106801, Note_off_c, 6, 78, 127
2, 106801, Note_off_c, 10, 69, 127
2, 106802, Note_on_c, 8, 80, 127
2, 106802, Note_on_c, 12, 71, 127
2, 107195, Note_off_c, 12, 71, 127
2, 107195, Note_off_c, 8, 80, 127
2, 107196, Note_on_c, 2, 62, 127
2, 107196, Note_on_c, 8, 68, 127
2, 107196, Note_on_c, 12, 71, 127
2, 107196, Note_on_c, 6, 78, 127
2, 107589, Note_off_c, 6, 78, 127
2, 107589, Note_off_c, 12, 71, 127
2, 107589, Note_off_c, 8, 68, 127
2, 107589, Note_off_c, 2, 62, 127
2, 107590, Note_on_c, 10, 69, 127
2, 107590, Note_on_c, 1, 61, 127
2, 107590, Note_on_c, 1, 73, 127
2, 107590, Note_on_c, 4, 76, 127
2, 107983, Note_off_c, 4, 76, 127
2, 107983, Note_off_c, 1, 73, 127
2, 107983, Note_off_c, 1, 61, 127
2, 107983, Note_off_c, 10, 69, 127
2, 107984, Note_on_c, 2, 62, 127
2, 107984, Note_on_c, 6, 66, 127
2, 107984, Note_on_c, 10, 69, 127
2, 107984, Note_on_c, 6, 78, 127
2, 108377, Note_off_c, 6, 78, 127
2, 108377, Note_off_c, 2, 62, 127
2, 108378, Note_on_c, 1, 61, 127
2, 108378, Note_on_c, 4, 76, 127
2, 108771, Note_off_c, 4, 76, 127
2, 108771, Note_off_c, 1, 61, 127
2, 108771, Note_off_c, 10, 69, 127
2, 108771, Note_off_c, 6, 66, 127
2, 108772, Note_on_c, 6, 66, 127
2, 108772, Note_on_c, 12, 59, 127
2, 108772, Note_on_c, 2, 74, 127
2, 108772, Note_on_c, 12, 71, 127
2, 109165, Note_off_c, 2, 74, 127
2, 109165, Note_off_c, 12, 59, 127
2, 109165, Note_off_c, 6, 66, 127
2, 109166, Note_on_c, 1, 61, 127
2, 109166, Note_on_c, 4, 64, 127
2, 109166, Note_on_c, 4, 76, 127
2, 109559, Note_off_c, 12, 71, 127
2, 109560, Note_on_c, 10, 69, 127
2, 109756, Note_off_c, 4, 76, 127
2, 109757, Note_on_c, 6, 78, 127
2, 109950, Note_off_c, 10, 69, 127
2, 109953, Note_off_c, 6, 78, 127
2, 109953, Note_off_c, 4, 64, 127
2, 109953, Note_off_c, 1, 61, 127
2, 109954, Note_on_c, 8, 56, 127
2, 109954, Note_on_c, 4, 64, 127
2, 109954, Note_on_c, 4, 76, 127
2, 109954, Note_on_c, 12, 71, 127
2, 110150, Note_off_c, 4, 76, 127
2, 110151, Note_on_c, 2, 74, 127
2, 110344, Note_off_c, 12, 71, 127
2, 110347, Note_off_c, 2, 74, 127
2, 110347, Note_off_c, 4, 64, 127
2, 110347, Note_off_c, 8, 56, 127
2, 110348, Note_on_c, 10, 57, 127
2, 110348, Note_on_c, 4, 64, 127
2, 110348, Note_on_c, 1, 73, 127
2, 110742, Note_on_c, 10, 69, 127
2, 110938, Note_off_c, 1, 73, 127
2, 110939, Note_on_c, 2, 74, 127
2, 111132, Note_off_c, 10, 69, 127
2, 111135, Note_off_c, 2, 74, 127
2, 111135, Note_off_c, 4, 64, 127
2, 111135, Note_off_c, 10, 57, 127
2, 111136, Note_on_c, 5, 53, 127
2, 111136, Note_on_c, 1, 61, 127
2, 111136, Note_on_c, 8, 68, 127
2, 111136, Note_on_c, 1, 73, 127
2, 111332, Note_off_c, 1, 73, 127
2, 111333, Note_on_c, 2, 74, 127
2, 111526, Note_off_c, 8, 68, 127
2, 111529, Note_off_c, 2, 74, 127
2, 111529, Note_off_c, 1, 61, 127
2, 111529, Note_off_c, 5, 53, 127
2, 111530, Note_on_c, 1, 61, 127
2, 111530, Note_on_c, 6, 54, 127
2, 111530, Note_on_c, 10, 69, 127
2, 111530, Note_on_c, 1, 73, 127
2, 111923, Note_off_c, 10, 69, 127
2, 111923, Note_off_c, 6, 54, 127
2, 111924, Note_on_c, 5, 53, 127
2, 111924, Note_on_c, 8, 68, 127
2, 112120, Note_off_c, 1, 73, 127
2, 112121, Note_on_c, 2, 74, 127
2, 112314, Note_off_c, 8, 68, 127
2, 112317, Note_off_c, 2, 74, 127
2, 112317, Note_off_c, 5, 53, 127
2, 112317, Note_off_c, 1, 61, 127
2, 112318, Note_on_c, 3, 51, 127
2, 112318, Note_on_c, 3, 63, 127
2, 112318, Note_on_c, 6, 66, 127
2, 112318, Note_on_c, 1, 73, 127
2, 112514, Note_off_c, 1, 73, 127
2, 112515, Note_on_c, 2, 74, 127
2, 112708, Note_off_c, 6, 66, 127
2, 112711, Note_off_c, 2, 74, 127
2, 112711, Note_off_c, 3, 63, 127
2, 112711, Note_off_c, 3, 51, 127
2, 112712, Note_on_c, 1, 61, 127
2, 112712, Note_on_c, 5, 53, 127
2, 112712, Note_on_c, 8, 68, 127
2, 112712, Note_on_c, 1, 73, 127
2, 113105, Note_off_c, 8, 68, 127
2, 113105, Note_off_c, 5, 53, 127
2, 113106, Note_on_c, 1, 49, 127
2, 113106, Note_on_c, 5, 65, 127
2, 113302, Note_off_c, 1, 73, 127
2, 113303, Note_on_c, 12, 71, 127
2, 113496, Note_off_c, 5, 65, 127
2, 113499, Note_off_c, 12, 71, 127
2, 113499, Note_off_c, 1, 49, 127
2, 113499, Note_off_c, 1, 61, 127
2, 113500, Note_on_c, 6, 54, 127
2, 113500, Note_on_c, 6, 66, 127
2, 113500, Note_on_c, 10, 69, 127
2, 113500, Note_on_c, 1, 61, 127
2, 113696, Note_off_c, 10, 69, 127
2, 113696, Note_off_c, 6, 66, 127
2, 113697, Note_on_c, 8, 68, 127
2, 113890, Note_off_c, 1, 61, 127
2, 113893, Note_off_c, 8, 68, 127
2, 113894, Note_on_c, 12, 47, 127
2, 113894, Note_on_c, 10, 69, 127
2, 113894, Note_on_c, 2, 62, 127
2, 114090, Note_off_c, 10, 69, 127
2, 114091, Note_on_c, 12, 71, 127
2, 114284, Note_off_c, 2, 62, 127
2, 114287, Note_off_c, 12, 71, 127
2, 114287, Note_off_c, 12, 47, 127
2, 114288, Note_on_c, 1, 49, 127
2, 114288, Note_on_c, 10, 69, 127
2, 114288, Note_on_c, 1, 61, 127
2, 114357, Note_on_c, 8, 68, 127
2, 114360, Note_off_c, 10, 69, 127
2, 114426, Note_on_c, 10, 69, 127
2, 114429, Note_off_c, 8, 68, 127
2, 114492, Note_off_c, 10, 69, 127
2, 114495, Note_on_c, 8, 68, 127
2, 114681, Note_off_c, 6, 54, 127
2, 114683, Note_on_c, 5, 53, 127
2, 114880, Note_on_c, 6, 66, 127
2, 114885, Note_off_c, 8, 68, 127
2, 115076, Note_off_c, 6, 66, 127
2, 115076, Note_off_c, 5, 53, 127
2, 115076, Note_off_c, 1, 61, 127
2, 115076, Note_off_c, 1, 49, 127
2, 115077, Note_on_c, 6, 42, 127
2, 115077, Note_on_c, 6, 54, 127
2, 115077, Note_on_c, 1, 61, 127
2, 115077, Note_on_c, 6, 66, 127
2, 115077, Note_on_c, 10, 57, 127
2, 115470, Note_off_c, 10, 57, 127
2, 115470, Note_off_c, 6, 66, 127
2, 115470, Note_off_c, 1, 61, 127
2, 115487, Note_on_c, 10, 69, 127
2, 115864, Note_off_c, 6, 54, 127
2, 115864, Note_off_c, 6, 42, 127
2, 115897, Note_on_c, 12, 71, 127
2, 115900, Note_off_c, 10, 69, 127
2, 116093, Note_off_c, 12, 71, 127
2, 116094, Note_on_c, 10, 69, 127
2, 116290, Note_off_c, 10, 69, 127
2, 116291, Note_on_c, 10, 69, 127
2, 116684, Note_off_c, 10, 69, 127
2, 116685, Note_on_c, 10, 57, 127
2, 116685, Note_on_c, 6, 54, 127
2, 116685, Note_on_c, 2, 62, 127
2, 116685, Note_on_c, 2, 74, 127
2, 116685, Note_on_c, 10, 69, 127
2, 117078, Note_off_c, 10, 69, 127
2, 117078, Note_off_c, 2, 74, 127
2, 117078, Note_off_c, 2, 62, 127
2, 117078, Note_off_c, 6, 54, 127
2, 117078, Note_off_c, 10, 57, 127
2, 117079, Note_on_c, 7, 55, 127
2, 117079, Note_on_c, 12, 59, 127
2, 117079, Note_on_c, 7, 67, 127
2, 117079, Note_on_c, 2, 62, 127
2, 117079, Note_on_c, 12, 71, 127
2, 117079, Note_on_c, 2, 74, 127
2, 117275, Note_off_c, 7, 55, 127
2, 117276, Note_on_c, 6, 54, 127
2, 117469, Note_off_c, 12, 59, 127
2, 117472, Note_off_c, 6, 54, 127
2, 117472, Note_off_c, 2, 74, 127
2, 117472, Note_off_c, 12, 71, 127
2, 117472, Note_off_c, 2, 62, 127
2, 117472, Note_off_c, 7, 67, 127
2, 117473, Note_on_c, 6, 54, 127
2, 117473, Note_on_c, 10, 57, 127
2, 117473, Note_on_c, 2, 62, 127
2, 117473, Note_on_c, 10, 69, 127
2, 117473, Note_on_c, 2, 74, 127
2, 117866, Note_off_c, 6, 54, 127
2, 117867, Note_on_c, 2, 50, 127
2, 118063, Note_off_c, 2, 74, 127
2, 118064, Note_on_c, 4, 76, 127
2, 118260, Note_off_c, 4, 76, 127
2, 118260, Note_off_c, 2, 50, 127
2, 118260, Note_off_c, 10, 69, 127
2, 118260, Note_off_c, 2, 62, 127
2, 118260, Note_off_c, 10, 57, 127
2, 118261, Note_on_c, 12, 59, 127
2, 118261, Note_on_c, 7, 55, 127
2, 118261, Note_on_c, 7, 67, 127
2, 118261, Note_on_c, 2, 74, 127
2, 118261, Note_on_c, 12, 71, 127
2, 118457, Note_off_c, 2, 74, 127
2, 118457, Note_off_c, 7, 55, 127
2, 118458, Note_on_c, 6, 54, 127
2, 118458, Note_on_c, 4, 76, 127
2, 118651, Note_off_c, 12, 71, 127
2, 118651, Note_off_c, 7, 67, 127
2, 118651, Note_off_c, 12, 59, 127
2, 118654, Note_off_c, 4, 76, 127
2, 118654, Note_off_c, 6, 54, 127
2, 118655, Note_on_c, 10, 57, 127
2, 118655, Note_on_c, 6, 54, 127
2, 118655, Note_on_c, 10, 69, 127
2, 118655, Note_on_c, 2, 74, 127
2, 118655, Note_on_c, 2, 62, 127
2, 118851, Note_off_c, 2, 74, 127
2, 118852, Note_on_c, 4, 76, 127
2, 119048, Note_off_c, 4, 76, 127
2, 119048, Note_off_c, 6, 54, 127
2, 119049, Note_on_c, 2, 50, 127
2, 119049, Note_on_c, 2, 74, 127
2, 119245, Note_off_c, 2, 74, 127
2, 119246, Note_on_c, 1, 73, 127
2, 119442, Note_off_c, 1, 73, 127
2, 119442, Note_off_c, 2, 50, 127
2, 119442, Note_off_c, 2, 62, 127
2, 119442, Note_off_c, 10, 69, 127
2, 119442, Note_off_c, 10, 57, 127
2, 119443, Note_on_c, 7, 55, 127
2, 119443, Note_on_c, 12, 59, 127
2, 119443, Note_on_c, 7, 67, 127
2, 119443, Note_on_c, 12, 71, 127
2, 119443, Note_on_c, 2, 62, 127
2, 119639, Note_off_c, 12, 71, 127
2, 119639, Note_off_c, 7, 55, 127
2, 119640, Note_on_c, 6, 54, 127
2, 119640, Note_on_c, 1, 73, 127
2, 119833, Note_off_c, 2, 62, 127
2, 119833, Note_off_c, 7, 67, 127
2, 119833, Note_off_c, 12, 59, 127
2, 119836, Note_off_c, 1, 73, 127
2, 119836, Note_off_c, 6, 54, 127
2, 119837, Note_on_c, 6, 54, 127
2, 119837, Note_on_c, 10, 57, 127
2, 119837, Note_on_c, 10, 69, 127
2, 119837, Note_on_c, 2, 74, 127
2, 119837, Note_on_c, 2, 62, 127
2, 120033, Note_off_c, 2, 74, 127
2, 120033, Note_off_c, 10, 57, 127
2, 120033, Note_off_c, 6, 54, 127
2, 120034, Note_on_c, 7, 55, 127
2, 120034, Note_on_c, 4, 76, 127
2, 120230, Note_off_c, 4, 76, 127
2, 120230, Note_off_c, 7, 55, 127
2, 120231, Note_on_c, 10, 57, 127
2, 120231, Note_on_c, 6, 78, 127
2, 120624, Note_off_c, 6, 78, 127
2, 120624, Note_off_c, 2, 62, 127
2, 120624, Note_off_c, 10, 69, 127
2, 120625, Note_on_c, 10, 45, 127
2, 120625, Note_on_c, 4, 76, 127
2, 120625, Note_on_c, 7, 67, 127
2, 120625, Note_on_c, 1, 73, 127
2, 120821, Note_off_c, 1, 73, 127
2, 120821, Note_off_c, 4, 76, 127
2, 120822, Note_on_c, 2, 74, 127
2, 121015, Note_off_c, 7, 67, 127
2, 121018, Note_off_c, 2, 74, 127
2, 121018, Note_off_c, 10, 45, 127
2, 121018, Note_off_c, 10, 57, 127
2, 121019, Note_on_c, 2, 50, 127
2, 121019, Note_on_c, 10, 57, 127
2, 121019, Note_on_c, 10, 69, 127
2, 121019, Note_on_c, 6, 66, 127
2, 121019, Note_on_c, 2, 74, 127
2, 121412, Note_off_c, 2, 74, 127
2, 121412, Note_off_c, 10, 69, 127
2, 121429, Note_on_c, 10, 69, 127
2, 121806, Note_off_c, 6, 66, 127
2, 121806, Note_off_c, 10, 57, 127
2, 121806, Note_off_c, 2, 50, 127
2, 121822, Note_off_c, 10, 69, 127
2, 121839, Note_on_c, 6, 78, 127
2, 122035, Note_off_c, 6, 78, 127
2, 122036, Note_on_c, 4, 76, 127
2, 122232, Note_off_c, 4, 76, 127
2, 122233, Note_on_c, 4, 76, 127
2, 122626, Note_off_c, 4, 76, 127
2, 122627, Note_on_c, 10, 57, 127
2, 122627, Note_on_c, 10, 69, 127
2, 122627, Note_on_c, 4, 64, 127
2, 122823, Note_off_c, 10, 57, 127
2, 122824, Note_on_c, 12, 59, 127
2, 123020, Note_off_c, 12, 59, 127
2, 123020, Note_off_c, 4, 64, 127
2, 123020, Note_off_c, 10, 69, 127
2, 123021, Note_on_c, 1, 61, 127
2, 123021, Note_on_c, 10, 69, 127
2, 123217, Note_off_c, 10, 69, 127
2, 123217, Note_off_c, 1, 61, 127
2, 123218, Note_on_c, 10, 57, 127
2, 123218, Note_on_c, 7, 67, 127
2, 123414, Note_off_c, 7, 67, 127
2, 123414, Note_off_c, 10, 57, 127
2, 123415, Note_on_c, 2, 62, 127
2, 123415, Note_on_c, 6, 66, 127
2, 123809, Note_on_c, 10, 69, 127
2, 124202, Note_off_c, 10, 69, 127
2, 124202, Note_off_c, 6, 66, 127
2, 124202, Note_off_c, 2, 62, 127
2, 124203, Note_on_c, 6, 78, 127
2, 124399, Note_off_c, 6, 78, 127
2, 124400, Note_on_c, 4, 76, 127
2, 124596, Note_off_c, 4, 76, 127
2, 124597, Note_on_c, 4, 76, 127
2, 124793, Note_off_c, 4, 76, 127
2, 124794, Note_on_c, 2, 74, 127
2, 124990, Note_off_c, 2, 74, 127
2, 124991, Note_on_c, 8, 56, 127
2, 124991, Note_on_c, 4, 64, 127
2, 124991, Note_on_c, 4, 76, 127
2, 124991, Note_on_c, 12, 71, 127
2, 125187, Note_off_c, 12, 71, 127
2, 125187, Note_off_c, 4, 76, 127
2, 125188, Note_on_c, 12, 71, 127
2, 125381, Note_off_c, 4, 64, 127
2, 125384, Note_off_c, 12, 71, 127
2, 125384, Note_off_c, 8, 56, 127
2, 125385, Note_on_c, 4, 52, 127
2, 125385, Note_on_c, 12, 59, 127
2, 125385, Note_on_c, 1, 73, 127
2, 125385, Note_on_c, 8, 68, 127
2, 125581, Note_off_c, 1, 73, 127
2, 125582, Note_on_c, 2, 74, 127
2, 125775, Note_off_c, 8, 68, 127
2, 125778, Note_off_c, 2, 74, 127
2, 125778, Note_off_c, 12, 59, 127
2, 125778, Note_off_c, 4, 52, 127
2, 125779, Note_on_c, 1, 61, 127
2, 125779, Note_on_c, 10, 57, 127
2, 125779, Note_on_c, 10, 69, 127
2, 125779, Note_on_c, 1, 73, 127
2, 125779, Note_on_c, 4, 64, 127
2, 125975, Note_off_c, 1, 73, 127
2, 125975, Note_off_c, 10, 69, 127
2, 125975, Note_off_c, 10, 57, 127
2, 125976, Note_on_c, 7, 55, 127
2, 125976, Note_on_c, 12, 71, 127
2, 126169, Note_off_c, 4, 64, 127
2, 126169, Note_off_c, 1, 61, 127
2, 126172, Note_off_c, 12, 71, 127
2, 126172, Note_off_c, 7, 55, 127
2, 126173, Note_on_c, 6, 54, 127
2, 126173, Note_on_c, 2, 62, 127
2, 126173, Note_on_c, 10, 69, 127
2, 126173, Note_on_c, 6, 66, 127
2, 126369, Note_off_c, 6, 54, 127
2, 126370, Note_on_c, 4, 52, 127
2, 126563, Note_off_c, 2, 62, 127
2, 126566, Note_off_c, 4, 52, 127
2, 126566, Note_off_c, 6, 66, 127
2, 126566, Note_off_c, 10, 69, 127
2, 126567, Note_on_c, 10, 57, 127
2, 126567, Note_on_c, 2, 50, 127
2, 126567, Note_on_c, 10, 69, 127
2, 126567, Note_on_c, 6, 66, 127
2, 126567, Note_on_c, 2, 74, 127
2, 126763, Note_off_c, 2, 74, 127
2, 126764, Note_on_c, 1, 73, 127
2, 126957, Note_off_c, 6, 66, 127
2, 126957, Note_off_c, 10, 69, 127
2, 126960, Note_off_c, 1, 73, 127
2, 126960, Note_off_c, 2, 50, 127
2, 126960, Note_off_c, 10, 57, 127
2, 126961, Note_on_c, 10, 57, 127
2, 126961, Note_on_c, 1, 61, 127
2, 126961, Note_on_c, 1, 73, 127
2, 126961, Note_on_c, 4, 64, 127
2, 126961, Note_on_c, 10, 69, 127
2, 127157, Note_off_c, 10, 57, 127
2, 127158, Note_on_c, 7, 55, 127
2, 127351, Note_off_c, 1, 61, 127
2, 127354, Note_off_c, 7, 55, 127
2, 127354, Note_off_c, 4, 64, 127
2, 127354, Note_off_c, 1, 73, 127
2, 127355, Note_on_c, 6, 54, 127
2, 127355, Note_on_c, 2, 62, 127
2, 127355, Note_on_c, 6, 66, 127
2, 127551, Note_off_c, 6, 54, 127
2, 127552, Note_on_c, 4, 52, 127
2, 127745, Note_off_c, 2, 62, 127
2, 127748, Note_off_c, 4, 52, 127
2, 127748, Note_off_c, 6, 66, 127
2, 127748, Note_off_c, 10, 69, 127
2, 127749, Note_on_c, 10, 57, 127
2, 127749, Note_on_c, 2, 50, 127
2, 127749, Note_on_c, 6, 66, 127
2, 127749, Note_on_c, 2, 62, 127
2, 127945, Note_off_c, 2, 62, 127
2, 127945, Note_off_c, 6, 66, 127
2, 127946, Note_on_c, 1, 61, 127
2, 127946, Note_on_c, 4, 64, 127
2, 128142, Note_off_c, 4, 64, 127
2, 128142, Note_off_c, 1, 61, 127
2, 128142, Note_off_c, 2, 50, 127
2, 128142, Note_off_c, 10, 57, 127
2, 128143, Note_on_c, 10, 57, 127
2, 128143, Note_on_c, 1, 61, 127
2, 128143, Note_on_c, 4, 64, 127
2, 128339, Note_off_c, 10, 57, 127
2, 128340, Note_on_c, 7, 55, 127
2, 128536, Note_off_c, 7, 55, 127
2, 128536, Note_off_c, 4, 64, 127
2, 128536, Note_off_c, 1, 61, 127
2, 128537, Note_on_c, 6, 54, 127
2, 128537, Note_on_c, 10, 57, 127
2, 128537, Note_on_c, 2, 62, 127
2, 128733, Note_off_c, 2, 62, 127
2, 128733, Note_off_c, 6, 54, 127
2, 128734, Note_on_c, 4, 52, 127
2, 128734, Note_on_c, 4, 64, 127
2, 128927, Note_off_c, 10, 57, 127
2, 128930, Note_off_c, 4, 64, 127
2, 128930, Note_off_c, 4, 52, 127
2, 128931, Note_on_c, 2, 50, 127
2, 128931, Note_on_c, 10, 57, 127
2, 128931, Note_on_c, 6, 66, 127
2, 128931, Note_on_c, 2, 62, 127
2, 128931, Note_on_c, 2, 74, 127
2, 129127, Note_off_c, 2, 74, 127
2, 129127, Note_off_c, 6, 66, 127
2, 129128, Note_on_c, 1, 73, 127
2, 129321, Note_off_c, 2, 62, 127
2, 129324, Note_off_c, 1, 73, 127
2, 129324, Note_off_c, 10, 57, 127
2, 129324, Note_off_c, 2, 50, 127
2, 129325, Note_on_c, 7, 55, 127
2, 129325, Note_on_c, 12, 59, 127
2, 129325, Note_on_c, 12, 71, 127
2, 129325, Note_on_c, 2, 62, 127
2, 129718, Note_off_c, 7, 55, 127
2, 129719, Note_on_c, 6, 54, 127
2, 129915, Note_off_c, 12, 71, 127
2, 129916, Note_on_c, 10, 69, 127
2, 130112, Note_off_c, 10, 69, 127
2, 130112, Note_off_c, 6, 54, 127
2, 130112, Note_off_c, 2, 62, 127
2, 130112, Note_off_c, 12, 59, 127
2, 130113, Note_on_c, 4, 52, 127
2, 130113, Note_on_c, 7, 55, 127
2, 130113, Note_on_c, 7, 67, 127
2, 130113, Note_on_c, 1, 61, 127
2, 130309, Note_off_c, 7, 67, 127
2, 130310, Note_on_c, 6, 66, 127
2, 130503, Note_off_c, 1, 61, 127
2, 130506, Note_off_c, 6, 66, 127
2, 130506, Note_off_c, 7, 55, 127
2, 130506, Note_off_c, 4, 52, 127
2, 130507, Note_on_c, 2, 50, 127
2, 130507, Note_on_c, 10, 57, 127
2, 130507, Note_on_c, 6, 66, 127
2, 130507, Note_on_c, 2, 62, 127
2, 130703, Note_off_c, 6, 66, 127
2, 130704, Note_on_c, 7, 67, 127
2, 130900, Note_off_c, 7, 67, 127
2, 130900, Note_off_c, 2, 50, 127
2, 130901, Note_on_c, 10, 45, 127
2, 130901, Note_on_c, 6, 66, 127
2, 131059, Note_on_c, 4, 64, 127
2, 131061, Note_off_c, 6, 66, 127
2, 131137, Note_off_c, 4, 64, 127
2, 131137, Note_on_c, 6, 66, 127
2, 131215, Note_off_c, 6, 66, 127
2, 131215, Note_on_c, 4, 64, 127
2, 131292, Note_off_c, 2, 62, 127
2, 131292, Note_off_c, 10, 57, 127
2, 131293, Note_off_c, 4, 64, 127
2, 131293, Note_on_c, 7, 55, 127
2, 131293, Note_on_c, 1, 61, 127
2, 131293, Note_on_c, 6, 66, 127
2, 131371, Note_off_c, 6, 66, 127
2, 131371, Note_on_c, 4, 64, 127
2, 131489, Note_off_c, 4, 64, 127
2, 131489, Note_on_c, 2, 62, 127
2, 131682, Note_off_c, 1, 61, 127
2, 131685, Note_off_c, 2, 62, 127
2, 131685, Note_off_c, 7, 55, 127
2, 131685, Note_off_c, 10, 45, 127
2, 131686, Note_on_c, 2, 50, 127
2, 131686, Note_on_c, 6, 54, 127
2, 131686, Note_on_c, 2, 62, 127
2, 131686, Note_on_c, 10, 57, 127
2, 132079, Note_off_c, 10, 57, 127
2, 132079, Note_off_c, 2, 62, 127
2, 132080, Note_on_c, 10, 69, 127
2, 132080, Note_on_c, 6, 66, 127
2, 132473, Note_off_c, 6, 54, 127
2, 132473, Note_off_c, 2, 50, 127
2, 132490, Note_off_c, 6, 66, 127
2, 132490, Note_off_c, 10, 69, 127
2, 132490, Note_on_c, 12, 71, 127
2, 132490, Note_on_c, 7, 67, 127
2, 132686, Note_off_c, 7, 67, 127
2, 132686, Note_off_c, 12, 71, 127
2, 132687, Note_on_c, 10, 69, 127
2, 132687, Note_on_c, 6, 66, 127
2, 132883, Note_off_c, 6, 66, 127
2, 132883, Note_off_c, 10, 69, 127
2, 132884, Note_on_c, 10, 69, 127
2, 132884, Note_on_c, 6, 66, 127
2, 132884, Note_on_c, 2, 50, 127
2, 133080, Note_off_c, 2, 50, 127
2, 133081, Note_on_c, 0, 48, 127
2, 133277, Note_off_c, 0, 48, 127
2, 133278, Note_on_c, 2, 62, 127
2, 133278, Note_on_c, 12, 47, 127
2, 133474, Note_off_c, 12, 47, 127
2, 133475, Note_on_c, 10, 45, 127
2, 133577, Note_off_c, 6, 66, 127
2, 133577, Note_off_c, 10, 69, 127
2, 133671, Note_off_c, 10, 45, 127
2, 133671, Note_off_c, 2, 62, 127
2, 133672, Note_on_c, 12, 71, 127
2, 133672, Note_on_c, 7, 67, 127
2, 133672, Note_on_c, 7, 43, 127
2, 133868, Note_off_c, 7, 67, 127
2, 133868, Note_off_c, 12, 71, 127
2, 133869, Note_on_c, 10, 69, 127
2, 133869, Note_on_c, 6, 66, 127
2, 134065, Note_off_c, 6, 66, 127
2, 134065, Note_off_c, 10, 69, 127
2, 134065, Note_off_c, 7, 43, 127
2, 134066, Note_on_c, 10, 69, 127
2, 134066, Note_on_c, 6, 66, 127
2, 134066, Note_on_c, 2, 50, 127
2, 134262, Note_off_c, 2, 50, 127
2, 134263, Note_on_c, 0, 48, 127
2, 134459, Note_off_c, 0, 48, 127
2, 134460, Note_on_c, 2, 62, 127
2, 134460, Note_on_c, 12, 47, 127
2, 134656, Note_off_c, 12, 47, 127
2, 134657, Note_on_c, 10, 45, 127
2, 134759, Note_off_c, 6, 66, 127
2, 134759, Note_off_c, 10, 69, 127
2, 134853, Note_off_c, 10, 45, 127
2, 134853, Note_off_c, 2, 62, 127
2, 134854, Note_on_c, 7, 67, 127
2, 134854, Note_on_c, 12, 71, 127
2, 134854, Note_on_c, 7, 43, 127
2, 135050, Note_off_c, 12, 71, 127
2, 135051, Note_on_c, 10, 69, 127
2, 135247, Note_off_c, 10, 69, 127
2, 135247, Note_off_c, 7, 43, 127
2, 135248, Note_on_c, 10, 69, 127
2, 135248, Note_on_c, 2, 50, 127
2, 135641, Note_off_c, 10, 69, 127
2, 135641, Note_off_c, 7, 67, 127
2, 135642, Note_on_c, 6, 66, 127
2, 135642, Note_on_c, 2, 74, 127
2, 135838, Note_off_c, 2, 74, 127
2, 135839, Note_on_c, 0, 72, 127
2, 136032, Note_off_c, 6, 66, 127
2, 136035, Note_off_c, 0, 72, 127
2, 136035, Note_off_c, 2, 50, 127
2, 136036, Note_on_c, 12, 71, 127
2, 136036, Note_on_c, 7, 67, 127
2, 136036, Note_on_c, 7, 55, 127
2, 136232, Note_off_c, 7, 67, 127
2, 136232, Note_off_c, 12, 71, 127
2, 136233, Note_on_c, 6, 66, 127
2, 136233, Note_on_c, 10, 69, 127
2, 136429, Note_off_c, 10, 69, 127
2, 136429, Note_off_c, 6, 66, 127
2, 136430, Note_on_c, 7, 67, 127
2, 136430, Note_on_c, 4, 64, 127
2, 136626, Note_off_c, 4, 64, 127
2, 136626, Note_off_c, 7, 67, 127
2, 136627, Note_on_c, 6, 66, 127
2, 136627, Note_on_c, 2, 62, 127
2, 136823, Note_off_c, 2, 62, 127
2, 136823, Note_off_c, 6, 66, 127
2, 136823, Note_off_c, 7, 55, 127
2, 136824, Note_on_c, 6, 66, 127
2, 136824, Note_on_c, 1, 61, 127
2, 136824, Note_on_c, 10, 57, 127
2, 136955, Note_off_c, 6, 66, 127
2, 136955, Note_on_c, 4, 64, 127
2, 137021, Note_off_c, 4, 64, 127
2, 137021, Note_on_c, 6, 66, 127
2, 137087, Note_off_c, 6, 66, 127
2, 137087, Note_on_c, 4, 64, 127
2, 137153, Note_off_c, 4, 64, 127
2, 137153, Note_on_c, 6, 66, 127
2, 137218, Note_off_c, 10, 57, 127
2, 137219, Note_off_c, 6, 66, 127
2, 137219, Note_on_c, 4, 64, 127
2, 137219, Note_on_c, 10, 45, 127
2, 137414, Note_off_c, 4, 64, 127
2, 137415, Note_off_c, 1, 61, 127
2, 137416, Note_on_c, 2, 62, 127
2, 137612, Note_off_c, 2, 62, 127
2, 137612, Note_off_c, 10, 45, 127
2, 137613, Note_on_c, 2, 62, 127
2, 137613, Note_on_c, 2, 50, 127
2, 138013, Note_off_c, 2, 62, 127
2, 138030, Note_on_c, 10, 69, 127
2, 138213, Note_off_c, 2, 50, 127
2, 138429, Note_off_c, 10, 69, 127
2, 138430, Note_on_c, 6, 78, 127
2, 138629, Note_off_c, 6, 78, 127
2, 138630, Note_on_c, 4, 76, 127
2, 138829, Note_off_c, 4, 76, 127
2, 138830, Note_on_c, 10, 57, 127
2, 138830, Note_on_c, 1, 61, 127
2, 138830, Note_on_c, 4, 76, 127
2, 139029, Note_off_c, 10, 57, 127
2, 139030, Note_on_c, 7, 55, 127
2, 139226, Note_off_c, 1, 61, 127
2, 139229, Note_off_c, 7, 55, 127
2, 139229, Note_off_c, 4, 76, 127
2, 139230, Note_on_c, 2, 62, 127
2, 139230, Note_on_c, 6, 54, 127
2, 139230, Note_on_c, 10, 69, 127
2, 139429, Note_off_c, 6, 54, 127
2, 139430, Note_on_c, 4, 52, 127
2, 139626, Note_off_c, 2, 62, 127
2, 139629, Note_off_c, 4, 52, 127
2, 139629, Note_off_c, 10, 69, 127
2, 139630, Note_on_c, 2, 50, 127
2, 139630, Note_on_c, 10, 57, 127
2, 139630, Note_on_c, 2, 62, 127
2, 139630, Note_on_c, 6, 78, 127
2, 139829, Note_off_c, 6, 78, 127
2, 139830, Note_on_c, 4, 76, 127
2, 140029, Note_off_c, 4, 76, 127
2, 140029, Note_off_c, 2, 62, 127
2, 140029, Note_off_c, 10, 57, 127
2, 140029, Note_off_c, 2, 50, 127
2, 140030, Note_on_c, 7, 55, 127
2, 140030, Note_on_c, 2, 62, 127
2, 140030, Note_on_c, 4, 76, 127
2, 140430, Note_off_c, 2, 62, 127
2, 140430, Note_off_c, 7, 55, 127
2, 140431, Note_on_c, 10, 57, 127
2, 140431, Note_on_c, 1, 61, 127
2, 140630, Note_off_c, 4, 76, 127
2, 140631, Note_on_c, 6, 78, 127
2, 140830, Note_off_c, 6, 78, 127
2, 140830, Note_off_c, 1, 61, 127
2, 140830, Note_off_c, 10, 57, 127
2, 140831, Note_on_c, 12, 59, 127
2, 140831, Note_on_c, 2, 62, 127
2, 140831, Note_on_c, 7, 79, 127
2, 141030, Note_off_c, 7, 79, 127
2, 141031, Note_on_c, 10, 81, 127
2, 141230, Note_off_c, 10, 81, 127
2, 141230, Note_off_c, 2, 62, 127
2, 141230, Note_off_c, 12, 59, 127
2, 141231, Note_on_c, 2, 62, 127
2, 141231, Note_on_c, 10, 57, 127
2, 141231, Note_on_c, 6, 78, 127
2, 141430, Note_off_c, 6, 78, 127
2, 141430, Note_off_c, 10, 57, 127
2, 141431, Note_on_c, 7, 55, 127
2, 141431, Note_on_c, 4, 76, 127
2, 141630, Note_off_c, 4, 76, 127
2, 141630, Note_off_c, 7, 55, 127
2, 141631, Note_on_c, 10, 57, 127
2, 141631, Note_on_c, 6, 78, 127
2, 141698, Note_off_c, 6, 78, 127
2, 141698, Note_on_c, 4, 76, 127
2, 141765, Note_off_c, 4, 76, 127
2, 141765, Note_on_c, 6, 78, 127
2, 141832, Note_off_c, 6, 78, 127
2, 141832, Note_on_c, 4, 76, 127
2, 141899, Note_off_c, 4, 76, 127
2, 141899, Note_on_c, 6, 78, 127
2, 141966, Note_off_c, 6, 78, 127
2, 141966, Note_on_c, 4, 76, 127
2, 142032, Note_off_c, 2, 62, 127
2, 142033, Note_on_c, 1, 61, 127
2, 142217, Note_off_c, 4, 76, 127
2, 142234, Note_on_c, 2, 74, 127
2, 142433, Note_off_c, 2, 74, 127
2, 142433, Note_off_c, 1, 61, 127
2, 142433, Note_off_c, 10, 57, 127
2, 142434, Note_on_c, 2, 62, 127
2, 142434, Note_on_c, 2, 50, 127
2, 142434, Note_on_c, 2, 74, 127
2, 142844, Note_off_c, 2, 74, 127
2, 142861, Note_on_c, 2, 74, 127
2, 142861, Note_on_c, 6, 66, 127
2, 142861, Note_on_c, 10, 69, 127
2, 143270, Note_off_c, 6, 66, 127
2, 143271, Note_off_c, 10, 69, 127
2, 143272, Note_on_c, 12, 71, 127
2, 143272, Note_on_c, 7, 67, 127
2, 143477, Note_off_c, 7, 67, 127
2, 143477, Note_off_c, 12, 71, 127
2, 143478, Note_on_c, 6, 66, 127
2, 143478, Note_on_c, 10, 69, 127
2, 143667, Note_off_c, 2, 50, 127
2, 143667, Note_off_c, 2, 62, 127
2, 143683, Note_off_c, 10, 69, 127
2, 143683, Note_off_c, 6, 66, 127
2, 143684, Note_on_c, 7, 67, 127
2, 143684, Note_on_c, 10, 69, 127
2, 143684, Note_on_c, 2, 62, 127
2, 143684, Note_on_c, 2, 50, 127
2, 144144, Note_off_c, 7, 67, 127
2, 144145, Note_on_c, 6, 66, 127
2, 144374, Note_off_c, 10, 69, 127
2, 144375, Note_on_c, 12, 71, 127
2, 144601, Note_off_c, 6, 66, 127
2, 144605, Note_off_c, 12, 71, 127
2, 144606, Note_on_c, 7, 67, 127
2, 144606, Note_on_c, 4, 64, 127
2, 144835, Note_off_c, 7, 67, 127
2, 144836, Note_on_c, 10, 69, 127
2, 145062, Note_off_c, 4, 64, 127
2, 145066, Note_off_c, 10, 69, 127
2, 145066, Note_off_c, 2, 50, 127
2, 145066, Note_off_c, 2, 62, 127
2, 145067, Note_off_c, 2, 74, 127
2, 145067, Note_on_c, 2, 50, 127
2, 145068, Note_on_c, 2, 62, 127
2, 145069, Note_on_c, 6, 66, 127
2, 145070, Note_on_c, 10, 69, 127
2, 145071, Note_on_c, 2, 74, 127
2, 146867, Note_off_c, 2, 50, 127
2, 146868, Note_off_c, 2, 62, 127
2, 146869, Note_off_c, 6, 66, 127
2, 146870, Note_off_c, 10, 69, 127
2, 146871, Note_off_c, 2, 74, 127
2, 147217, Note_on_c, 6, 54, 127
2, 147217, Note_on_c, 11, 58, 127
2, 147217, Note_on_c, 6, 66, 127
2, 147217, Note_on_c, 1, 73, 127
2, 147217, Note_on_c, 11, 70, 127
2, 147217, Note_on_c, 1, 61, 127
2, 148310, Note_off_c, 1, 61, 127
2, 148310, Note_off_c, 11, 70, 127
2, 148310, Note_off_c, 1, 73, 127
2, 148310, Note_off_c, 6, 66, 127
2, 148310, Note_off_c, 11, 58, 127
2, 148310, Note_off_c, 6, 54, 127
2, 148311, Note_on_c, 2, 74, 127
2, 148367, Note_off_c, 2, 74, 127
2, 148368, Note_on_c, 1, 73, 127
2, 148540, Note_off_c, 1, 73, 127
2, 148541, Note_on_c, 12, 71, 127
2, 148597, Note_off_c, 12, 71, 127
2, 148598, Note_on_c, 11, 70, 127
2, 148770, Note_off_c, 11, 70, 127
2, 148771, Note_on_c, 2, 74, 127
2, 148827, Note_off_c, 2, 74, 127
2, 148828, Note_on_c, 1, 73, 127
2, 149000, Note_off_c, 1, 73, 127
2, 149001, Note_on_c, 12, 71, 127
2, 149057, Note_off_c, 12, 71, 127
2, 149058, Note_on_c, 4, 76, 127
2, 149230, Note_off_c, 4, 76, 127
2, 149231, Note_on_c, 2, 74, 127
2, 149287, Note_off_c, 2, 74, 127
2, 149288, Note_on_c, 1, 73, 127
2, 149460, Note_off_c, 1, 73, 127
2, 149461, Note_on_c, 12, 71, 127
2, 149517, Note_off_c, 12, 71, 127
2, 149518, Note_on_c, 6, 78, 127
2, 149690, Note_off_c, 6, 78, 127
2, 149691, Note_on_c, 2, 74, 127
2, 149747, Note_off_c, 2, 74, 127
2, 149748, Note_on_c, 1, 73, 127
2, 149920, Note_off_c, 1, 73, 127
2, 149921, Note_on_c, 12, 71, 127
2, 149977, Note_off_c, 12, 71, 127
2, 149978, Note_on_c, 7, 79, 127
2, 150208, Note_on_c, 1, 73, 127
2, 150208, Note_on_c, 4, 64, 127
2, 150208, Note_on_c, 11, 70, 127
2, 150208, Note_on_c, 11, 58, 127
2, 150208, Note_on_c, 1, 61, 127
2, 150434, Note_off_c, 7, 79, 127
2, 150438, Note_off_c, 4, 64, 127
2, 150439, Note_on_c, 6, 66, 127
2, 150439, Note_on_c, 6, 78, 127
2, 150667, Note_off_c, 6, 66, 127
2, 150668, Note_off_c, 6, 78, 127
2, 150669, Note_on_c, 4, 76, 127
2, 150898, Note_off_c, 4, 76, 127
2, 150898, Note_off_c, 1, 61, 127
2, 150898, Note_off_c, 11, 58, 127
2, 150898, Note_off_c, 11, 70, 127
2, 150898, Note_off_c, 1, 73, 127
2, 150899, Note_on_c, 12, 71, 127
2, 150899, Note_on_c, 4, 76, 127
2, 150899, Note_on_c, 2, 62, 127
2, 150899, Note_on_c, 6, 66, 127
2, 150899, Note_on_c, 12, 47, 127
2, 150899, Note_on_c, 12, 59, 127
2, 150941, Note_on_c, 2, 74, 127
2, 150942, Note_off_c, 4, 76, 127
2, 150983, Note_on_c, 4, 76, 127
2, 150984, Note_off_c, 2, 74, 127
2, 151025, Note_on_c, 2, 74, 127
2, 151026, Note_off_c, 4, 76, 127
2, 151235, Note_off_c, 2, 74, 127
2, 151243, Note_off_c, 12, 71, 127
2, 151244, Note_on_c, 1, 73, 127
2, 151358, Note_off_c, 1, 73, 127
2, 151359, Note_on_c, 12, 71, 127
2, 151587, Note_off_c, 6, 66, 127
2, 151588, Note_off_c, 12, 59, 127
2, 151588, Note_off_c, 12, 47, 127
2, 151588, Note_off_c, 2, 62, 127
2, 151925, Note_on_c, 12, 59, 127
2, 152139, Note_off_c, 12, 71, 127
2, 152174, Note_on_c, 1, 61, 127
2, 152205, Note_off_c, 12, 59, 127
2, 152230, Note_off_c, 1, 61, 127
2, 152231, Note_on_c, 2, 62, 127
2, 152287, Note_off_c, 2, 62, 127
2, 152288, Note_on_c, 4, 64, 127
2, 152344, Note_off_c, 4, 64, 127
2, 152345, Note_on_c, 6, 66, 127
2, 152401, Note_off_c, 6, 66, 127
2, 152402, Note_on_c, 7, 67, 127
2, 152458, Note_off_c, 7, 67, 127
2, 152459, Note_on_c, 10, 69, 127
2, 152515, Note_off_c, 10, 69, 127
2, 152516, Note_on_c, 12, 71, 127
2, 152572, Note_off_c, 12, 71, 127
2, 152573, Note_on_c, 1, 73, 127
2, 152629, Note_off_c, 1, 73, 127
2, 152630, Note_on_c, 2, 74, 127
2, 152686, Note_off_c, 2, 74, 127
2, 152687, Note_on_c, 4, 76, 127
2, 152743, Note_off_c, 4, 76, 127
2, 152744, Note_on_c, 6, 78, 127
2, 152800, Note_off_c, 6, 78, 127
2, 152801, Note_on_c, 7, 79, 127
2, 152857, Note_off_c, 7, 79, 127
2, 152858, Note_on_c, 10, 81, 127
2, 152914, Note_off_c, 10, 81, 127
2, 152915, Note_on_c, 12, 83, 127
2, 152958, Note_on_c, 6, 54, 127
2, 152958, Note_on_c, 10, 57, 127
2, 152958, Note_on_c, 3, 63, 127
2, 152958, Note_on_c, 6, 66, 127
2, 153172, Note_on_c, 0, 84, 127
2, 153213, Note_off_c, 12, 83, 127
2, 153354, Note_off_c, 6, 54, 127
2, 153369, Note_off_c, 0, 84, 127
2, 153370, Note_on_c, 6, 54, 127
2, 153370, Note_on_c, 12, 83, 127
2, 153568, Note_off_c, 12, 83, 127
2, 153569, Note_on_c, 10, 81, 127
2, 153752, Note_off_c, 6, 66, 127
2, 153752, Note_off_c, 3, 63, 127
2, 153752, Note_off_c, 10, 57, 127
2, 153767, Note_off_c, 10, 81, 127
2, 153767, Note_off_c, 6, 54, 127
2, 153768, Note_on_c, 4, 52, 127
2, 153768, Note_on_c, 12, 59, 127
2, 153768, Note_on_c, 4, 64, 127
2, 153768, Note_on_c, 7, 79, 127
2, 153967, Note_on_c, 6, 78, 127
2, 154165, Note_off_c, 6, 78, 127
2, 154166, Note_on_c, 4, 76, 127
2, 154365, Note_on_c, 2, 74, 127
2, 154563, Note_off_c, 2, 74, 127
2, 154563, Note_off_c, 4, 64, 127
2, 154563, Note_off_c, 12, 59, 127
2, 154563, Note_off_c, 4, 52, 127
2, 154564, Note_on_c, 10, 57, 127
2, 154564, Note_on_c, 1, 73, 127
2, 154762, Note_off_c, 1, 73, 127
2, 154763, Note_on_c, 12, 71, 127
2, 154961, Note_off_c, 12, 71, 127
2, 154962, Note_on_c, 10, 69, 127
2, 155160, Note_off_c, 10, 69, 127
2, 155161, Note_on_c, 7, 67, 127
2, 155353, Note_off_c, 7, 79, 127
2, 155357, Note_off_c, 4, 76, 127
2, 155358, Note_off_c, 7, 67, 127
2, 155369, Note_on_c, 6, 66, 127
2, 155369, Note_on_c, 10, 69, 127
2, 155574, Note_on_c, 4, 76, 127
2, 155772, Note_off_c, 4, 76, 127
2, 155773, Note_on_c, 2, 74, 127
2, 155971, Note_off_c, 2, 74, 127
2, 155972, Note_on_c, 1, 73, 127
2, 156164, Note_off_c, 10, 69, 127
2, 156170, Note_off_c, 1, 73, 127
2, 156171, Note_on_c, 12, 71, 127
2, 156171, Note_on_c, 7, 67, 127
2, 156363, Note_off_c, 6, 66, 127
2, 156370, Note_on_c, 6, 66, 127
2, 156568, Note_off_c, 6, 66, 127
2, 156568, Note_off_c, 12, 71, 127
2, 156569, Note_on_c, 4, 64, 127
2, 156569, Note_on_c, 1, 73, 127
2, 156767, Note_off_c, 1, 73, 127
2, 156767, Note_off_c, 4, 64, 127
2, 156768, Note_on_c, 2, 62, 127
2, 156768, Note_on_c, 2, 74, 127
2, 156946, Note_off_c, 10, 57, 127
2, 156965, Note_off_c, 2, 74, 127
2, 156965, Note_off_c, 2, 62, 127
2, 156966, Note_on_c, 1, 61, 127
2, 156966, Note_on_c, 4, 76, 127
2, 157165, Note_on_c, 12, 71, 127
2, 157362, Note_off_c, 7, 67, 127
2, 157363, Note_off_c, 12, 71, 127
2, 157364, Note_on_c, 10, 69, 127
2, 157364, Note_on_c, 4, 64, 127
2, 157562, Note_off_c, 10, 69, 127
2, 157563, Note_on_c, 7, 67, 127
2, 157757, Note_off_c, 4, 64, 127
2, 157760, Note_off_c, 7, 67, 127
2, 157760, Note_off_c, 1, 61, 127
2, 157761, Note_on_c, 2, 62, 127
2, 157761, Note_on_c, 6, 66, 127
2, 157959, Note_off_c, 2, 62, 127
2, 157960, Note_on_c, 1, 61, 127
2, 158157, Note_off_c, 4, 76, 127
2, 158158, Note_off_c, 1, 61, 127
2, 158159, Note_on_c, 12, 59, 127
2, 158159, Note_on_c, 2, 74, 127
2, 158159, Note_on_c, 12, 71, 127
2, 158357, Note_off_c, 12, 59, 127
2, 158358, Note_on_c, 10, 57, 127
2, 158556, Note_off_c, 10, 57, 127
2, 158556, Note_off_c, 12, 71, 127
2, 158556, Note_off_c, 6, 66, 127
2, 158557, Note_on_c, 8, 56, 127
2, 158557, Note_on_c, 4, 64, 127
2, 158755, Note_off_c, 2, 74, 127
2, 158756, Note_on_c, 6, 78, 127
2, 158954, Note_off_c, 6, 78, 127
2, 158955, Note_on_c, 4, 76, 127
2, 159153, Note_off_c, 4, 76, 127
2, 159154, Note_on_c, 2, 74, 127
2, 159352, Note_off_c, 2, 74, 127
2, 159352, Note_off_c, 4, 64, 127
2, 159352, Note_off_c, 8, 56, 127
2, 159353, Note_on_c, 10, 57, 127
2, 159353, Note_on_c, 4, 64, 127
2, 159353, Note_on_c, 1, 73, 127
2, 159551, Note_off_c, 10, 57, 127
2, 159552, Note_on_c, 12, 59, 127
2, 159552, Note_on_c, 10, 69, 127
2, 159750, Note_off_c, 10, 69, 127
2, 159750, Note_off_c, 12, 59, 127
2, 159751, Note_on_c, 10, 57, 127
2, 159751, Note_on_c, 12, 71, 127
2, 159949, Note_off_c, 12, 71, 127
2, 159949, Note_off_c, 10, 57, 127
2, 159949, Note_off_c, 1, 73, 127
2, 159950, Note_on_c, 7, 55, 127
2, 159950, Note_on_c, 1, 73, 127
2, 160148, Note_off_c, 1, 73, 127
2, 160148, Note_off_c, 7, 55, 127
2, 160148, Note_off_c, 4, 64, 127
2, 160149, Note_on_c, 6, 54, 127
2, 160149, Note_on_c, 2, 74, 127
2, 160348, Note_on_c, 6, 66, 127
2, 160348, Note_on_c, 4, 76, 127
2, 160546, Note_off_c, 4, 76, 127
2, 160546, Note_off_c, 6, 66, 127
2, 160547, Note_on_c, 4, 64, 127
2, 160547, Note_on_c, 6, 78, 127
2, 160745, Note_off_c, 6, 78, 127
2, 160745, Note_off_c, 4, 64, 127
2, 160746, Note_on_c, 2, 62, 127
2, 160746, Note_on_c, 7, 79, 127
2, 160944, Note_off_c, 7, 79, 127
2, 160944, Note_off_c, 2, 62, 127
2, 160944, Note_off_c, 2, 74, 127
2, 160945, Note_on_c, 1, 61, 127
2, 160945, Note_on_c, 10, 69, 127
2, 160945, Note_on_c, 10, 81, 127
2, 161143, Note_off_c, 1, 61, 127
2, 161144, Note_on_c, 10, 57, 127
2, 161342, Note_off_c, 10, 57, 127
2, 161343, Note_on_c, 2, 62, 127
2, 161541, Note_off_c, 2, 62, 127
2, 161542, Note_on_c, 0, 60, 127
2, 161734, Note_off_c, 6, 54, 127
2, 161739, Note_off_c, 0, 60, 127
2, 161739, Note_off_c, 10, 69, 127
2, 161740, Note_on_c, 12, 59, 127
2, 161740, Note_on_c, 7, 55, 127
2, 161740, Note_on_c, 2, 74, 127
2, 161938, Note_off_c, 2, 74, 127
2, 161939, Note_on_c, 12, 71, 127
2, 162136, Note_off_c, 10, 81, 127
2, 162137, Note_off_c, 12, 71, 127
2, 162138, Note_on_c, 7, 79, 127
2, 162138, Note_on_c, 4, 76, 127
2, 162336, Note_off_c, 4, 76, 127
2, 162337, Note_on_c, 2, 74, 127
2, 162535, Note_off_c, 2, 74, 127
2, 162535, Note_off_c, 7, 55, 127
2, 162535, Note_off_c, 12, 59, 127
2, 162536, Note_on_c, 10, 57, 127
2, 162536, Note_on_c, 4, 64, 127
2, 162536, Note_on_c, 1, 73, 127
2, 162735, Note_on_c, 4, 76, 127
2, 162933, Note_off_c, 4, 76, 127
2, 162933, Note_off_c, 7, 79, 127
2, 162934, Note_on_c, 10, 81, 127
2, 163132, Note_off_c, 10, 81, 127
2, 163133, Note_on_c, 7, 79, 127
2, 163331, Note_off_c, 7, 79, 127
2, 163331, Note_off_c, 4, 64, 127
2, 163331, Note_off_c, 10, 57, 127
2, 163332, Note_on_c, 11, 58, 127
2, 163332, Note_on_c, 6, 78, 127
2, 163531, Note_on_c, 1, 61, 127
2, 163729, Note_off_c, 1, 61, 127
2, 163730, Note_on_c, 6, 66, 127
2, 163928, Note_off_c, 6, 66, 127
2, 163929, Note_on_c, 4, 64, 127
2, 164121, Note_off_c, 1, 73, 127
2, 164126, Note_off_c, 4, 64, 127
2, 164126, Note_off_c, 11, 58, 127
2, 164127, Note_on_c, 2, 62, 127
2, 164127, Note_on_c, 12, 59, 127
2, 164127, Note_on_c, 12, 71, 127
2, 164326, Note_off_c, 6, 78, 127
2, 164326, Note_on_c, 2, 74, 127
2, 164524, Note_off_c, 2, 74, 127
2, 164525, Note_on_c, 7, 79, 127
2, 164723, Note_off_c, 7, 79, 127
2, 164724, Note_on_c, 6, 78, 127
2, 164922, Note_off_c, 6, 78, 127
2, 164922, Note_off_c, 12, 71, 127
2, 164922, Note_off_c, 2, 62, 127
2, 164923, Note_on_c, 4, 64, 127
2, 164923, Note_on_c, 4, 76, 127
2, 164923, Note_on_c, 1, 73, 127
2, 165122, Note_on_c, 11, 70, 127
2, 165316, Note_off_c, 1, 73, 127
2, 165316, Note_off_c, 4, 76, 127
2, 165319, Note_off_c, 11, 70, 127
2, 165319, Note_off_c, 4, 64, 127
2, 165320, Note_on_c, 2, 62, 127
2, 165320, Note_on_c, 2, 74, 127
2, 165320, Note_on_c, 12, 71, 127
2, 165519, Note_on_c, 8, 68, 127
2, 165711, Note_off_c, 12, 59, 127
2, 165713, Note_off_c, 12, 71, 127
2, 165713, Note_off_c, 2, 74, 127
2, 165716, Note_off_c, 8, 68, 127
2, 165716, Note_off_c, 2, 62, 127
2, 165717, Note_on_c, 6, 54, 127
2, 165717, Note_on_c, 1, 73, 127
2, 165717, Note_on_c, 11, 70, 127
2, 165717, Note_on_c, 6, 66, 127
2, 165928, Note_on_c, 1, 61, 127
2, 166138, Note_off_c, 1, 61, 127
2, 166139, Note_on_c, 4, 64, 127
2, 166349, Note_off_c, 4, 64, 127
2, 166350, Note_on_c, 2, 62, 127
2, 166560, Note_off_c, 2, 62, 127
2, 166561, Note_on_c, 1, 61, 127
2, 166771, Note_off_c, 6, 66, 127
2, 166771, Note_off_c, 11, 70, 127
2, 166771, Note_off_c, 1, 73, 127
2, 166772, Note_on_c, 4, 64, 127
2, 166982, Note_off_c, 4, 64, 127
2, 166982, Note_off_c, 1, 61, 127
2, 166983, Note_on_c, 12, 59, 127
2, 166983, Note_on_c, 7, 67, 127
2, 167193, Note_off_c, 7, 67, 127
2, 167194, Note_on_c, 6, 66, 127
2, 167399, Note_off_c, 6, 54, 127
2, 167405, Note_off_c, 6, 66, 127
2, 167406, Note_on_c, 6, 54, 127
2, 167406, Note_on_c, 4, 64, 127
2, 167406, Note_on_c, 1, 61, 127
2, 167639, Note_on_c, 8, 68, 127
2, 167871, Note_off_c, 8, 68, 127
2, 167872, Note_on_c, 12, 71, 127
2, 168104, Note_off_c, 12, 71, 127
2, 168105, Note_on_c, 11, 70, 127
2, 168335, Note_off_c, 12, 59, 127
2, 168336, Note_off_c, 11, 70, 127
2, 168336, Note_off_c, 1, 61, 127
2, 168336, Note_off_c, 4, 64, 127
2, 168337, Note_on_c, 12, 59, 127
2, 168337, Note_on_c, 8, 68, 127
2, 168337, Note_on_c, 5, 65, 127
2, 168337, Note_on_c, 2, 62, 127
2, 169034, Note_off_c, 8, 68, 127
2, 169051, Note_on_c, 11, 70, 127
2, 169260, Note_off_c, 6, 54, 127
2, 169266, Note_off_c, 2, 62, 127
2, 169266, Note_off_c, 5, 65, 127
2, 169266, Note_off_c, 12, 59, 127
2, 169282, Note_off_c, 11, 70, 127
2, 169298, Note_on_c, 6, 54, 127
2, 169299, Note_on_c, 11, 58, 127
2, 169300, Note_on_c, 6, 66, 127
2, 169300, Note_on_c, 1, 61, 127
2, 169301, Note_on_c, 11, 70, 127
2, 171498, Note_off_c, 6, 54, 127
2, 171499, Note_off_c, 11, 58, 127
2, 171500, Note_off_c, 1, 61, 127
2, 171500, Note_off_c, 6, 66, 127
2, 171501, Note_off_c, 11, 70, 127
2, 171929, Note_on_c, 12, 59, 127
2, 172388, Note_off_c, 12, 59, 127
2, 172394, Note_on_c, 6, 66, 127
2, 172851, Note_off_c, 6, 66, 127
2, 172859, Note_on_c, 2, 62, 127
2, 173207, Note_off_c, 2, 62, 127
2, 173208, Note_on_c, 1, 61, 127
2, 173323, Note_off_c, 1, 61, 127
2, 173324, Note_on_c, 12, 59, 127
2, 173556, Note_off_c, 12, 59, 127
2, 173557, Note_on_c, 1, 61, 127
2, 173672, Note_off_c, 1, 61, 127
2, 173673, Note_on_c, 2, 62, 127
2, 173788, Note_off_c, 2, 62, 127
2, 173789, Note_on_c, 4, 64, 127
2, 174020, Note_off_c, 4, 64, 127
2, 174022, Note_on_c, 4, 64, 127
2, 174254, Note_off_c, 4, 64, 127
2, 174255, Note_on_c, 4, 64, 127
2, 174487, Note_off_c, 4, 64, 127
2, 174488, Note_on_c, 4, 64, 127
2, 174721, Note_on_c, 6, 66, 127
2, 174953, Note_off_c, 4, 64, 127
2, 174954, Note_on_c, 2, 62, 127
2, 175069, Note_off_c, 2, 62, 127
2, 175070, Note_on_c, 1, 61, 127
2, 175185, Note_off_c, 1, 61, 127
2, 175185, Note_off_c, 6, 66, 127
2, 175186, Note_on_c, 2, 62, 127
2, 175186, Note_on_c, 12, 71, 127
2, 175418, Note_off_c, 2, 62, 127
2, 175419, Note_on_c, 1, 61, 127
2, 175534, Note_off_c, 1, 61, 127
2, 175535, Note_on_c, 12, 59, 127
2, 175650, Note_off_c, 12, 59, 127
2, 175650, Note_off_c, 12, 71, 127
2, 175651, Note_on_c, 1, 61, 127
2, 175651, Note_on_c, 10, 69, 127
2, 175999, Note_off_c, 10, 69, 127
2, 176000, Note_on_c, 8, 68, 127
2, 176115, Note_off_c, 8, 68, 127
2, 176115, Note_off_c, 1, 61, 127
2, 176116, Note_on_c, 2, 62, 127
2, 176116, Note_on_c, 6, 66, 127
2, 176348, Note_off_c, 6, 66, 127
2, 176349, Note_on_c, 8, 68, 127
2, 176464, Note_off_c, 8, 68, 127
2, 176465, Note_on_c, 10, 69, 127
2, 176580, Note_off_c, 10, 69, 127
2, 176580, Note_off_c, 2, 62, 127
2, 176581, Note_on_c, 3, 63, 127
2, 176581, Note_on_c, 12, 71, 127
2, 176813, Note_off_c, 12, 71, 127
2, 176814, Note_on_c, 12, 71, 127
2, 177046, Note_off_c, 12, 71, 127
2, 177046, Note_off_c, 3, 63, 127
2, 177047, Note_on_c, 5, 65, 127
2, 177047, Note_on_c, 12, 71, 127
2, 177279, Note_off_c, 12, 71, 127
2, 177280, Note_on_c, 12, 71, 127
2, 177512, Note_off_c, 5, 65, 127
2, 177513, Note_on_c, 6, 66, 127
2, 177745, Note_off_c, 12, 71, 127
2, 177746, Note_on_c, 10, 69, 127
2, 177861, Note_off_c, 10, 69, 127
2, 177862, Note_on_c, 8, 68, 127
2, 177977, Note_off_c, 8, 68, 127
2, 177977, Note_off_c, 6, 66, 127
2, 177978, Note_on_c, 1, 61, 127
2, 177978, Note_on_c, 10, 69, 127
2, 178210, Note_off_c, 10, 69, 127
2, 178210, Note_off_c, 1, 61, 127
2, 178211, Note_on_c, 3, 63, 127
2, 178211, Note_on_c, 7, 67, 127
2, 178326, Note_off_c, 7, 67, 127
2, 178327, Note_on_c, 6, 66, 127
2, 178442, Note_off_c, 6, 66, 127
2, 178442, Note_off_c, 3, 63, 127
2, 178443, Note_on_c, 4, 64, 127
2, 178443, Note_on_c, 7, 67, 127
2, 178675, Note_off_c, 4, 64, 127
2, 178676, Note_on_c, 12, 59, 127
2, 178908, Note_off_c, 12, 59, 127
2, 178909, Note_on_c, 4, 64, 127
2, 179024, Note_off_c, 7, 67, 127
2, 179025, Note_on_c, 6, 66, 127
2, 179140, Note_off_c, 6, 66, 127
2, 179141, Note_on_c, 7, 67, 127
2, 179256, Note_off_c, 7, 67, 127
2, 179257, Note_on_c, 10, 69, 127
2, 179372, Note_off_c, 10, 69, 127
2, 179373, Note_on_c, 6, 66, 127
2, 179605, Note_off_c, 4, 64, 127
2, 179606, Note_on_c, 2, 62, 127
2, 179721, Note_off_c, 2, 62, 127
2, 179722, Note_on_c, 1, 61, 127
2, 179837, Note_off_c, 1, 61, 127
2, 179837, Note_off_c, 6, 66, 127
2, 179838, Note_on_c, 2, 62, 127
2, 179838, Note_on_c, 12, 71, 127
2, 179953, Note_off_c, 2, 62, 127
2, 179954, Note_on_c, 1, 61, 127
2, 180069, Note_off_c, 1, 61, 127
2, 180070, Note_on_c, 2, 62, 127
2, 180185, Note_off_c, 2, 62, 127
2, 180186, Note_on_c, 4, 64, 127
2, 180301, Note_off_c, 4, 64, 127
2, 180302, Note_on_c, 6, 66, 127
2, 180302, Note_on_c, 1, 73, 127
2, 180534, Note_off_c, 12, 71, 127
2, 180535, Note_on_c, 10, 69, 127
2, 180650, Note_off_c, 10, 69, 127
2, 180651, Note_on_c, 8, 68, 127
2, 180763, Note_off_c, 1, 73, 127
2, 180767, Note_off_c, 8, 68, 127
2, 180768, Note_on_c, 6, 78, 127
2, 180768, Note_on_c, 10, 69, 127
2, 181000, Note_off_c, 10, 69, 127
2, 181001, Note_on_c, 8, 68, 127
2, 181105, Note_off_c, 6, 66, 127
2, 181116, Note_off_c, 8, 68, 127
2, 181117, Note_on_c, 6, 66, 127
2, 181229, Note_off_c, 6, 78, 127
2, 181233, Note_off_c, 6, 66, 127
2, 181234, Note_on_c, 1, 61, 127
2, 181234, Note_on_c, 8, 68, 127
2, 181234, Note_on_c, 4, 76, 127
2, 181582, Note_off_c, 4, 76, 127
2, 181583, Note_on_c, 2, 74, 127
2, 181695, Note_off_c, 8, 68, 127
2, 181699, Note_off_c, 2, 74, 127
2, 181699, Note_off_c, 1, 61, 127
2, 181700, Note_on_c, 4, 64, 127
2, 181700, Note_on_c, 1, 73, 127
2, 181932, Note_off_c, 1, 73, 127
2, 181933, Note_on_c, 1, 73, 127
2, 182048, Note_off_c, 1, 73, 127
2, 182049, Note_on_c, 2, 74, 127
2, 182164, Note_off_c, 2, 74, 127
2, 182165, Note_on_c, 4, 76, 127
2, 182165, Note_on_c, 8, 68, 127
2, 182397, Note_off_c, 4, 76, 127
2, 182397, Note_off_c, 4, 64, 127
2, 182398, Note_on_c, 2, 62, 127
2, 182398, Note_on_c, 4, 76, 127
2, 182626, Note_off_c, 8, 68, 127
2, 182630, Note_off_c, 4, 76, 127
2, 182630, Note_off_c, 2, 62, 127
2, 182631, Note_on_c, 1, 61, 127
2, 182631, Note_on_c, 11, 70, 127
2, 182631, Note_on_c, 4, 76, 127
2, 182861, Note_off_c, 4, 76, 127
2, 182862, Note_off_c, 1, 61, 127
2, 182863, Note_on_c, 6, 66, 127
2, 182863, Note_on_c, 4, 76, 127
2, 183091, Note_off_c, 11, 70, 127
2, 183095, Note_off_c, 6, 66, 127
2, 183096, Note_on_c, 12, 59, 127
2, 183096, Note_on_c, 12, 71, 127
2, 183324, Note_off_c, 4, 76, 127
2, 183328, Note_off_c, 12, 71, 127
2, 183329, Note_on_c, 6, 66, 127
2, 183329, Note_on_c, 2, 74, 127
2, 183444, Note_off_c, 2, 74, 127
2, 183445, Note_on_c, 1, 73, 127
2, 183559, Note_off_c, 6, 66, 127
2, 183560, Note_off_c, 1, 73, 127
2, 183561, Note_on_c, 2, 74, 127
2, 183561, Note_on_c, 12, 71, 127
2, 183676, Note_off_c, 12, 59, 127
2, 183677, Note_on_c, 2, 62, 127
2, 183792, Note_off_c, 2, 62, 127
2, 183793, Note_on_c, 7, 67, 127
2, 183908, Note_off_c, 7, 67, 127
2, 183909, Note_on_c, 6, 66, 127
2, 184024, Note_off_c, 6, 66, 127
2, 184024, Note_off_c, 2, 74, 127
2, 184025, Note_on_c, 4, 64, 127
2, 184025, Note_on_c, 1, 73, 127
2, 184140, Note_off_c, 4, 64, 127
2, 184141, Note_on_c, 1, 61, 127
2, 184256, Note_off_c, 1, 61, 127
2, 184257, Note_on_c, 2, 62, 127
2, 184372, Note_off_c, 2, 62, 127
2, 184373, Note_on_c, 4, 64, 127
2, 184488, Note_off_c, 4, 64, 127
2, 184488, Note_off_c, 12, 71, 127
2, 184489, Note_on_c, 6, 66, 127
2, 184489, Note_on_c, 11, 70, 127
2, 184605, Note_off_c, 1, 73, 127
2, 184605, Note_on_c, 1, 73, 127
2, 184720, Note_off_c, 1, 73, 127
2, 184721, Note_on_c, 6, 78, 127
2, 184836, Note_off_c, 6, 78, 127
2, 184837, Note_on_c, 4, 76, 127
2, 184949, Note_off_c, 11, 70, 127
2, 184953, Note_off_c, 4, 76, 127
2, 184953, Note_off_c, 6, 66, 127
2, 184954, Note_on_c, 12, 59, 127
2, 184954, Note_on_c, 12, 71, 127
2, 184954, Note_on_c, 2, 74, 127
2, 185069, Note_off_c, 2, 74, 127
2, 185069, Note_off_c, 12, 71, 127
2, 185070, Note_on_c, 12, 71, 127
2, 185185, Note_off_c, 12, 71, 127
2, 185186, Note_on_c, 10, 69, 127
2, 185186, Note_on_c, 1, 73, 127
2, 185301, Note_off_c, 1, 73, 127
2, 185302, Note_on_c, 2, 74, 127
2, 185416, Note_off_c, 10, 69, 127
2, 185417, Note_off_c, 2, 74, 127
2, 185417, Note_off_c, 12, 59, 127
2, 185418, Note_on_c, 4, 64, 127
2, 185418, Note_on_c, 8, 68, 127
2, 185418, Note_on_c, 4, 76, 127
2, 185650, Note_off_c, 8, 68, 127
2, 185650, Note_off_c, 4, 64, 127
2, 185651, Note_on_c, 2, 62, 127
2, 185651, Note_on_c, 11, 70, 127
2, 185766, Note_off_c, 11, 70, 127
2, 185767, Note_on_c, 12, 71, 127
2, 185882, Note_off_c, 12, 71, 127
2, 185882, Note_off_c, 2, 62, 127
2, 185883, Note_on_c, 1, 61, 127
2, 185883, Note_on_c, 6, 54, 127
2, 185883, Note_on_c, 11, 70, 127
2, 186115, Note_off_c, 1, 61, 127
2, 186115, Note_off_c, 4, 76, 127
2, 186116, Note_on_c, 6, 66, 127
2, 186116, Note_on_c, 2, 74, 127
2, 186231, Note_off_c, 2, 74, 127
2, 186232, Note_on_c, 1, 73, 127
2, 186344, Note_off_c, 11, 70, 127
2, 186344, Note_off_c, 6, 54, 127
2, 186348, Note_off_c, 1, 73, 127
2, 186349, Note_on_c, 12, 59, 127
2, 186349, Note_on_c, 2, 74, 127
2, 186577, Note_off_c, 6, 66, 127
2, 186581, Note_off_c, 2, 74, 127
2, 186582, Note_on_c, 2, 62, 127
2, 186582, Note_on_c, 1, 73, 127
2, 186697, Note_off_c, 1, 73, 127
2, 186698, Note_on_c, 12, 71, 127
2, 186810, Note_off_c, 12, 59, 127
2, 186814, Note_off_c, 12, 71, 127
2, 186814, Note_off_c, 2, 62, 127
2, 186815, Note_on_c, 1, 61, 127
2, 186815, Note_on_c, 10, 57, 127
2, 186815, Note_on_c, 1, 73, 127
2, 186815, Note_on_c, 6, 66, 127
2, 187163, Note_off_c, 10, 57, 127
2, 187164, Note_on_c, 8, 56, 127
2, 187276, Note_off_c, 1, 61, 127
2, 187280, Note_off_c, 8, 56, 127
2, 187280, Note_off_c, 6, 66, 127
2, 187280, Note_off_c, 1, 73, 127
2, 187281, Note_on_c, 6, 54, 127
2, 187281, Note_on_c, 10, 69, 127
2, 187281, Note_on_c, 2, 74, 127
2, 187513, Note_off_c, 6, 54, 127
2, 187514, Note_on_c, 8, 56, 127
2, 187629, Note_off_c, 8, 56, 127
2, 187630, Note_on_c, 10, 57, 127
2, 187745, Note_off_c, 10, 57, 127
2, 187745, Note_off_c, 2, 74, 127
2, 187745, Note_off_c, 10, 69, 127
2, 187746, Note_on_c, 12, 59, 127
2, 187746, Note_on_c, 6, 66, 127
2, 187746, Note_on_c, 3, 75, 127
2, 187978, Note_off_c, 12, 59, 127
2, 187979, Note_on_c, 12, 59, 127
2, 188211, Note_off_c, 12, 59, 127
2, 188211, Note_off_c, 3, 75, 127
2, 188211, Note_off_c, 6, 66, 127
2, 188212, Note_on_c, 12, 59, 127
2, 188212, Note_on_c, 5, 77, 127
2, 188212, Note_on_c, 8, 68, 127
2, 188444, Note_off_c, 12, 59, 127
2, 188445, Note_on_c, 12, 59, 127
2, 188677, Note_off_c, 8, 68, 127
2, 188677, Note_off_c, 5, 77, 127
2, 188678, Note_on_c, 1, 61, 127
2, 188678, Note_on_c, 1, 73, 127
2, 188678, Note_on_c, 6, 78, 127
2, 188906, Note_off_c, 12, 59, 127
2, 188911, Note_on_c, 10, 57, 127
2, 189026, Note_off_c, 10, 57, 127
2, 189027, Note_on_c, 8, 56, 127
2, 189139, Note_off_c, 1, 61, 127
2, 189143, Note_off_c, 8, 56, 127
2, 189143, Note_off_c, 6, 78, 127
2, 189143, Note_off_c, 1, 73, 127
2, 189144, Note_on_c, 6, 66, 127
2, 189144, Note_on_c, 10, 57, 127
2, 189144, Note_on_c, 10, 69, 127
2, 189144, Note_on_c, 1, 73, 127
2, 189376, Note_off_c, 1, 73, 127
2, 189376, Note_off_c, 10, 57, 127
2, 189377, Note_on_c, 7, 55, 127
2, 189377, Note_on_c, 3, 75, 127
2, 189492, Note_off_c, 7, 55, 127
2, 189493, Note_on_c, 6, 54, 127
2, 189605, Note_off_c, 10, 69, 127
2, 189605, Note_off_c, 6, 66, 127
2, 189609, Note_off_c, 6, 54, 127
2, 189609, Note_off_c, 3, 75, 127
2, 189610, Note_on_c, 7, 55, 127
2, 189610, Note_on_c, 4, 64, 127
2, 189610, Note_on_c, 4, 76, 127
2, 189610, Note_on_c, 12, 71, 127
2, 189958, Note_off_c, 4, 64, 127
2, 189959, Note_on_c, 2, 62, 127
2, 190071, Note_off_c, 12, 71, 127
2, 190071, Note_off_c, 7, 55, 127
2, 190075, Note_off_c, 2, 62, 127
2, 190076, Note_on_c, 10, 57, 127
2, 190076, Note_on_c, 1, 61, 127
2, 190191, Note_off_c, 4, 76, 127
2, 190192, Note_on_c, 4, 76, 127
2, 190307, Note_off_c, 4, 76, 127
2, 190307, Note_off_c, 1, 61, 127
2, 190308, Note_on_c, 1, 61, 127
2, 190308, Note_on_c, 2, 74, 127
2, 190423, Note_off_c, 2, 74, 127
2, 190423, Note_off_c, 1, 61, 127
2, 190424, Note_on_c, 2, 62, 127
2, 190424, Note_on_c, 1, 73, 127
2, 190536, Note_off_c, 10, 57, 127
2, 190540, Note_off_c, 1, 73, 127
2, 190540, Note_off_c, 2, 62, 127
2, 190541, Note_on_c, 4, 64, 127
2, 190541, Note_on_c, 8, 56, 127
2, 190541, Note_on_c, 12, 71, 127
2, 190773, Note_off_c, 4, 64, 127
2, 190774, Note_on_c, 4, 64, 127
2, 191002, Note_off_c, 8, 56, 127
2, 191006, Note_off_c, 4, 64, 127
2, 191006, Note_off_c, 12, 71, 127
2, 191007, Note_on_c, 11, 58, 127
2, 191007, Note_on_c, 4, 64, 127
2, 191007, Note_on_c, 1, 73, 127
2, 191239, Note_off_c, 4, 64, 127
2, 191240, Note_on_c, 4, 64, 127
2, 191468, Note_off_c, 11, 58, 127
2, 191473, Note_on_c, 12, 59, 127
2, 191473, Note_on_c, 6, 66, 127
2, 191701, Note_off_c, 4, 64, 127
2, 191706, Note_on_c, 2, 62, 127
2, 191821, Note_off_c, 2, 62, 127
2, 191822, Note_on_c, 1, 61, 127
2, 191937, Note_off_c, 1, 61, 127
2, 191937, Note_off_c, 6, 66, 127
2, 191937, Note_off_c, 1, 73, 127
2, 191938, Note_on_c, 2, 62, 127
2, 191938, Note_on_c, 12, 71, 127
2, 192170, Note_off_c, 2, 62, 127
2, 192170, Note_off_c, 12, 59, 127
2, 192171, Note_on_c, 1, 61, 127
2, 192171, Note_on_c, 7, 55, 127
2, 192171, Note_on_c, 1, 73, 127
2, 192286, Note_off_c, 1, 73, 127
2, 192286, Note_off_c, 1, 61, 127
2, 192287, Note_on_c, 12, 59, 127
2, 192287, Note_on_c, 2, 74, 127
2, 192399, Note_off_c, 12, 71, 127
2, 192401, Note_off_c, 7, 55, 127
2, 192402, Note_off_c, 2, 74, 127
2, 192402, Note_off_c, 12, 59, 127
2, 192403, Note_on_c, 1, 61, 127
2, 192403, Note_on_c, 6, 54, 127
2, 192403, Note_on_c, 1, 73, 127
2, 192403, Note_on_c, 10, 69, 127
2, 192751, Note_off_c, 10, 69, 127
2, 192752, Note_on_c, 8, 68, 127
2, 192864, Note_off_c, 1, 73, 127
2, 192868, Note_off_c, 8, 68, 127
2, 192868, Note_off_c, 6, 54, 127
2, 192868, Note_off_c, 1, 61, 127
2, 192869, Note_on_c, 12, 59, 127
2, 192869, Note_on_c, 2, 62, 127
2, 192869, Note_on_c, 6, 66, 127
2, 193101, Note_off_c, 6, 66, 127
2, 193102, Note_on_c, 8, 68, 127
2, 193217, Note_off_c, 8, 68, 127
2, 193218, Note_on_c, 10, 69, 127
2, 193333, Note_off_c, 10, 69, 127
2, 193333, Note_off_c, 2, 62, 127
2, 193333, Note_off_c, 12, 59, 127
2, 193334, Note_on_c, 3, 63, 127
2, 193334, Note_on_c, 8, 56, 127
2, 193334, Note_on_c, 12, 71, 127
2, 193566, Note_off_c, 12, 71, 127
2, 193567, Note_on_c, 12, 71, 127
2, 193799, Note_off_c, 12, 71, 127
2, 193799, Note_off_c, 8, 56, 127
2, 193799, Note_off_c, 3, 63, 127
2, 193800, Note_on_c, 1, 61, 127
2, 193800, Note_on_c, 5, 65, 127
2, 193800, Note_on_c, 12, 71, 127
2, 194032, Note_off_c, 12, 71, 127
2, 194033, Note_on_c, 12, 71, 127
2, 194265, Note_off_c, 5, 65, 127
2, 194265, Note_off_c, 1, 61, 127
2, 194266, Note_on_c, 6, 66, 127
2, 194266, Note_on_c, 6, 54, 127
2, 194497, Note_off_c, 6, 66, 127
2, 194498, Note_off_c, 12, 71, 127
2, 194499, Note_on_c, 1, 61, 127
2, 194499, Note_on_c, 10, 69, 127
2, 194614, Note_off_c, 10, 69, 127
2, 194615, Note_on_c, 8, 68, 127
2, 194730, Note_off_c, 8, 68, 127
2, 194730, Note_off_c, 1, 61, 127
2, 194731, Note_on_c, 6, 66, 127
2, 194731, Note_on_c, 10, 69, 127
2, 194963, Note_off_c, 10, 69, 127
2, 194963, Note_off_c, 6, 66, 127
2, 194963, Note_off_c, 6, 54, 127
2, 194964, Note_on_c, 4, 52, 127
2, 194964, Note_on_c, 8, 68, 127
2, 194964, Note_on_c, 12, 71, 127
2, 195079, Note_off_c, 12, 71, 127
2, 195079, Note_off_c, 8, 68, 127
2, 195080, Note_on_c, 1, 73, 127
2, 195080, Note_on_c, 10, 69, 127
2, 195195, Note_off_c, 10, 69, 127
2, 195195, Note_off_c, 1, 73, 127
2, 195195, Note_off_c, 4, 52, 127
2, 195196, Note_on_c, 2, 50, 127
2, 195196, Note_on_c, 2, 74, 127
2, 195196, Note_on_c, 12, 71, 127
2, 195428, Note_off_c, 2, 74, 127
2, 195428, Note_off_c, 2, 50, 127
2, 195429, Note_on_c, 1, 49, 127
2, 195429, Note_on_c, 2, 74, 127
2, 195657, Note_off_c, 12, 71, 127
2, 195661, Note_off_c, 2, 74, 127
2, 195661, Note_off_c, 1, 49, 127
2, 195662, Note_on_c, 6, 66, 127
2, 195662, Note_on_c, 2, 50, 127
2, 195662, Note_on_c, 2, 74, 127
2, 195894, Note_off_c, 2, 74, 127
2, 195894, Note_off_c, 2, 50, 127
2, 195895, Note_on_c, 12, 47, 127
2, 195895, Note_on_c, 2, 74, 127
2, 196123, Note_off_c, 6, 66, 127
2, 196127, Note_off_c, 12, 47, 127
2, 196128, Note_on_c, 4, 52, 127
2, 196128, Note_on_c, 7, 67, 127
2, 196360, Note_off_c, 2, 74, 127
2, 196361, Note_on_c, 1, 73, 127
2, 196593, Note_off_c, 7, 67, 127
2, 196593, Note_off_c, 4, 52, 127
2, 196594, Note_on_c, 4, 64, 127
2, 196594, Note_on_c, 7, 55, 127
2, 196826, Note_off_c, 1, 73, 127
2, 196827, Note_on_c, 12, 71, 127
2, 197059, Note_off_c, 7, 55, 127
2, 197059, Note_off_c, 4, 64, 127
2, 197060, Note_on_c, 6, 54, 127
2, 197060, Note_on_c, 6, 66, 127
2, 197060, Note_on_c, 1, 73, 127
2, 197288, Note_off_c, 12, 71, 127
2, 197293, Note_on_c, 11, 70, 127
2, 197408, Note_off_c, 11, 70, 127
2, 197409, Note_on_c, 8, 68, 127
2, 197521, Note_off_c, 1, 73, 127
2, 197521, Note_off_c, 6, 66, 127
2, 197521, Note_off_c, 6, 54, 127
2, 197525, Note_off_c, 8, 68, 127
2, 197526, Note_on_c, 6, 78, 127
2, 197526, Note_on_c, 11, 70, 127
2, 197874, Note_off_c, 11, 70, 127
2, 197875, Note_on_c, 12, 71, 127
2, 197987, Note_off_c, 6, 78, 127
2, 197991, Note_off_c, 12, 71, 127
2, 197992, Note_on_c, 2, 74, 127
2, 197992, Note_on_c, 12, 71, 127
2, 198224, Note_off_c, 12, 71, 127
2, 198225, Note_on_c, 6, 66, 127
2, 198332, Note_off_c, 2, 74, 127
2, 198342, Note_on_c, 1, 73, 127
2, 198456, Note_off_c, 6, 66, 127
2, 198457, Note_off_c, 1, 73, 127
2, 198458, Note_on_c, 7, 67, 127
2, 198458, Note_on_c, 12, 71, 127
2, 198690, Note_off_c, 12, 71, 127
2, 198691, Note_on_c, 1, 73, 127
2, 198806, Note_off_c, 1, 73, 127
2, 198807, Note_on_c, 2, 74, 127
2, 198919, Note_off_c, 7, 67, 127
2, 198923, Note_off_c, 2, 74, 127
2, 198924, Note_on_c, 4, 76, 127
2, 198924, Note_on_c, 8, 68, 127
2, 199156, Note_off_c, 4, 76, 127
2, 199157, Note_on_c, 4, 76, 127
2, 199385, Note_off_c, 8, 68, 127
2, 199389, Note_off_c, 4, 76, 127
2, 199390, Note_on_c, 4, 76, 127
2, 199390, Note_on_c, 11, 70, 127
2, 199620, Note_off_c, 4, 76, 127
2, 199622, Note_on_c, 4, 76, 127
2, 199850, Note_off_c, 11, 70, 127
2, 199855, Note_on_c, 12, 59, 127
2, 199855, Note_on_c, 12, 71, 127
2, 200083, Note_off_c, 4, 76, 127
2, 200087, Note_off_c, 12, 71, 127
2, 200088, Note_on_c, 2, 74, 127
2, 200088, Note_on_c, 6, 66, 127
2, 200203, Note_off_c, 2, 74, 127
2, 200204, Note_on_c, 1, 73, 127
2, 200317, Note_off_c, 6, 66, 127
2, 200319, Note_off_c, 1, 73, 127
2, 200319, Note_off_c, 12, 59, 127
2, 200320, Note_on_c, 6, 66, 127
2, 200320, Note_on_c, 2, 74, 127
2, 200320, Note_on_c, 10, 69, 127
2, 200552, Note_off_c, 2, 74, 127
2, 200553, Note_on_c, 1, 73, 127
2, 200668, Note_off_c, 1, 73, 127
2, 200669, Note_on_c, 12, 71, 127
2, 200781, Note_off_c, 10, 69, 127
2, 200785, Note_off_c, 12, 71, 127
2, 200785, Note_off_c, 6, 66, 127
2, 200786, Note_on_c, 4, 64, 127
2, 200786, Note_on_c, 1, 73, 127
2, 200786, Note_on_c, 7, 67, 127
2, 201134, Note_off_c, 4, 64, 127
2, 201135, Note_on_c, 2, 62, 127
2, 201250, Note_off_c, 2, 62, 127
2, 201250, Note_off_c, 1, 73, 127
2, 201251, Note_on_c, 1, 61, 127
2, 201251, Note_on_c, 4, 76, 127
2, 201483, Note_off_c, 1, 61, 127
2, 201483, Note_off_c, 7, 67, 127
2, 201484, Note_on_c, 1, 61, 127
2, 201484, Note_on_c, 4, 64, 127
2, 201599, Note_off_c, 4, 64, 127
2, 201599, Note_off_c, 1, 61, 127
2, 201600, Note_on_c, 2, 62, 127
2, 201600, Note_on_c, 6, 66, 127
2, 201715, Note_off_c, 6, 66, 127
2, 201715, Note_off_c, 2, 62, 127
2, 201716, Note_on_c, 4, 64, 127
2, 201716, Note_on_c, 7, 67, 127
2, 201947, Note_off_c, 4, 64, 127
2, 201948, Note_off_c, 4, 76, 127
2, 201949, Note_on_c, 4, 64, 127
2, 201949, Note_on_c, 2, 74, 127
2, 202177, Note_off_c, 7, 67, 127
2, 202180, Note_off_c, 4, 64, 127
2, 202181, Note_off_c, 2, 74, 127
2, 202182, Note_on_c, 4, 64, 127
2, 202182, Note_on_c, 7, 67, 127
2, 202182, Note_on_c, 1, 73, 127
2, 202414, Note_off_c, 1, 73, 127
2, 202414, Note_off_c, 4, 64, 127
2, 202415, Note_on_c, 4, 64, 127
2, 202415, Note_on_c, 12, 71, 127
2, 202643, Note_off_c, 7, 67, 127
2, 202647, Note_off_c, 12, 71, 127
2, 202648, Note_on_c, 11, 70, 127
2, 202648, Note_on_c, 6, 66, 127
2, 202880, Note_off_c, 4, 64, 127
2, 202881, Note_on_c, 2, 62, 127
2, 202996, Note_off_c, 2, 62, 127
2, 202997, Note_on_c, 1, 61, 127
2, 203112, Note_off_c, 1, 61, 127
2, 203112, Note_off_c, 6, 66, 127
2, 203112, Note_off_c, 11, 70, 127
2, 203113, Note_on_c, 2, 62, 127
2, 203113, Note_on_c, 12, 71, 127
2, 203113, Note_on_c, 6, 66, 127
2, 203345, Note_off_c, 6, 66, 127
2, 203345, Note_off_c, 2, 62, 127
2, 203346, Note_on_c, 1, 61, 127
2, 203346, Note_on_c, 7, 67, 127
2, 203461, Note_off_c, 1, 61, 127
2, 203462, Note_on_c, 12, 59, 127
2, 203577, Note_off_c, 12, 59, 127
2, 203577, Note_off_c, 7, 67, 127
2, 203578, Note_on_c, 1, 49, 127
2, 203578, Note_on_c, 1, 61, 127
2, 203578, Note_on_c, 4, 64, 127
2, 203694, Note_off_c, 12, 71, 127
2, 203694, Note_on_c, 11, 70, 127
2, 203808, Note_off_c, 4, 64, 127
2, 203809, Note_off_c, 11, 70, 127
2, 203810, Note_on_c, 12, 71, 127
2, 203810, Note_on_c, 4, 64, 127
2, 203925, Note_off_c, 12, 71, 127
2, 203926, Note_on_c, 1, 73, 127
2, 204040, Note_off_c, 4, 64, 127
2, 204041, Note_off_c, 1, 73, 127
2, 204041, Note_off_c, 1, 61, 127
2, 204041, Note_off_c, 1, 49, 127
2, 204042, Note_on_c, 6, 54, 127
2, 204042, Note_on_c, 4, 64, 127
2, 204042, Note_on_c, 11, 70, 127
2, 204272, Note_off_c, 4, 64, 127
2, 204274, Note_on_c, 1, 61, 127
2, 204381, Note_off_c, 11, 70, 127
2, 204391, Note_on_c, 12, 71, 127
2, 204505, Note_off_c, 1, 61, 127
2, 204506, Note_off_c, 12, 71, 127
2, 204506, Note_off_c, 6, 54, 127
2, 204507, Note_on_c, 12, 59, 127
2, 204507, Note_on_c, 2, 50, 127
2, 204507, Note_on_c, 6, 66, 127
2, 204507, Note_on_c, 12, 71, 127
2, 204855, Note_off_c, 2, 50, 127
2, 204856, Note_on_c, 1, 49, 127
2, 204968, Note_off_c, 12, 59, 127
2, 204972, Note_off_c, 1, 49, 127
2, 204972, Note_off_c, 12, 71, 127
2, 204972, Note_off_c, 6, 66, 127
2, 204973, Note_on_c, 12, 47, 127
2, 204973, Note_on_c, 6, 54, 127
2, 204973, Note_on_c, 2, 74, 127
2, 204973, Note_on_c, 12, 71, 127
2, 205205, Note_off_c, 12, 47, 127
2, 205206, Note_on_c, 1, 49, 127
2, 205321, Note_off_c, 1, 49, 127
2, 205322, Note_on_c, 2, 50, 127
2, 205434, Note_off_c, 6, 54, 127
2, 205438, Note_off_c, 2, 50, 127
2, 205439, Note_on_c, 4, 52, 127
2, 205439, Note_on_c, 8, 56, 127
2, 205671, Note_off_c, 4, 52, 127
2, 205672, Note_on_c, 4, 52, 127
2, 205900, Note_off_c, 8, 56, 127
2, 205904, Note_off_c, 4, 52, 127
2, 205904, Note_off_c, 12, 71, 127
2, 205904, Note_off_c, 2, 74, 127
2, 205905, Note_on_c, 11, 58, 127
2, 205905, Note_on_c, 4, 52, 127
2, 205905, Note_on_c, 6, 66, 127
2, 205905, Note_on_c, 1, 73, 127
2, 206137, Note_off_c, 4, 52, 127
2, 206138, Note_on_c, 4, 52, 127
2, 206366, Note_off_c, 11, 58, 127
2, 206370, Note_off_c, 1, 73, 127
2, 206371, Note_on_c, 12, 59, 127
2, 206371, Note_on_c, 12, 71, 127
2, 206599, Note_off_c, 4, 52, 127
2, 206604, Note_on_c, 2, 50, 127
2, 206719, Note_off_c, 2, 50, 127
2, 206720, Note_on_c, 1, 49, 127
2, 206832, Note_off_c, 12, 59, 127
2, 206835, Note_off_c, 6, 66, 127
2, 206836, Note_off_c, 1, 49, 127
2, 206836, Note_off_c, 12, 71, 127
2, 206837, Note_on_c, 2, 50, 127
2, 206837, Note_on_c, 12, 71, 127
2, 206837, Note_on_c, 6, 66, 127
2, 207069, Note_off_c, 2, 50, 127
2, 207070, Note_on_c, 1, 49, 127
2, 207185, Note_off_c, 1, 49, 127
2, 207186, Note_on_c, 12, 47, 127
2, 207301, Note_off_c, 12, 47, 127
2, 207301, Note_off_c, 6, 66, 127
2, 207301, Note_off_c, 12, 71, 127
2, 207302, Note_on_c, 1, 49, 127
2, 207302, Note_on_c, 4, 64, 127
2, 207302, Note_on_c, 10, 69, 127
2, 207650, Note_off_c, 10, 69, 127
2, 207651, Note_on_c, 7, 67, 127
2, 207766, Note_off_c, 7, 67, 127
2, 207766, Note_off_c, 4, 64, 127
2, 207766, Note_off_c, 1, 49, 127
2, 207767, Note_on_c, 2, 50, 127
2, 207767, Note_on_c, 2, 62, 127
2, 207767, Note_on_c, 6, 66, 127
2, 207999, Note_off_c, 6, 66, 127
2, 207999, Note_off_c, 2, 62, 127
2, 208000, Note_on_c, 1, 61, 127
2, 208000, Note_on_c, 8, 68, 127
2, 208115, Note_off_c, 8, 68, 127
2, 208116, Note_on_c, 10, 69, 127
2, 208228, Note_off_c, 2, 50, 127
2, 208232, Note_off_c, 10, 69, 127
2, 208232, Note_off_c, 1, 61, 127
2, 208233, Note_on_c, 3, 51, 127
2, 208233, Note_on_c, 12, 59, 127
2, 208233, Note_on_c, 12, 71, 127
2, 208465, Note_off_c, 12, 71, 127
2, 208465, Note_off_c, 12, 59, 127
2, 208466, Note_on_c, 10, 57, 127
2, 208466, Note_on_c, 12, 71, 127
2, 208694, Note_off_c, 3, 51, 127
2, 208698, Note_off_c, 12, 71, 127
2, 208698, Note_off_c, 10, 57, 127
2, 208699, Note_on_c, 5, 53, 127
2, 208699, Note_on_c, 8, 56, 127
2, 208699, Note_on_c, 12, 71, 127
2, 208931, Note_off_c, 12, 71, 127
2, 208932, Note_on_c, 12, 71, 127
2, 209164, Note_off_c, 8, 56, 127
2, 209164, Note_off_c, 5, 53, 127
2, 209165, Note_on_c, 1, 61, 127
2, 209165, Note_on_c, 6, 54, 127
2, 209397, Note_off_c, 1, 61, 127
2, 209397, Note_off_c, 12, 71, 127
2, 209398, Note_on_c, 1, 61, 127
2, 209398, Note_on_c, 10, 69, 127
2, 209513, Note_off_c, 10, 69, 127
2, 209514, Note_on_c, 8, 68, 127
2, 209629, Note_off_c, 8, 68, 127
2, 209629, Note_off_c, 1, 61, 127
2, 209630, Note_on_c, 1, 61, 127
2, 209630, Note_on_c, 10, 69, 127
2, 209862, Note_off_c, 10, 69, 127
2, 209862, Note_off_c, 1, 61, 127
2, 209862, Note_off_c, 6, 54, 127
2, 209863, Note_on_c, 4, 52, 127
2, 209863, Note_on_c, 1, 61, 127
2, 209863, Note_on_c, 8, 68, 127
2, 210095, Note_off_c, 8, 68, 127
2, 210095, Note_off_c, 4, 52, 127
2, 210096, Note_on_c, 2, 50, 127
2, 210096, Note_on_c, 6, 66, 127
2, 210324, Note_off_c, 1, 61, 127
2, 210329, Note_on_c, 12, 59, 127
2, 210444, Note_off_c, 12, 59, 127
2, 210445, Note_on_c, 10, 57, 127
2, 210560, Note_off_c, 10, 57, 127
2, 210561, Note_on_c, 12, 59, 127
2, 210793, Note_off_c, 6, 66, 127
2, 210793, Note_off_c, 2, 50, 127
2, 210794, Note_on_c, 1, 49, 127
2, 210794, Note_on_c, 8, 68, 127
2, 210909, Note_off_c, 1, 49, 127
2, 210910, Note_on_c, 12, 47, 127
2, 211025, Note_off_c, 12, 47, 127
2, 211025, Note_off_c, 8, 68, 127
2, 211026, Note_on_c, 1, 49, 127
2, 211026, Note_on_c, 5, 65, 127
2, 211258, Note_off_c, 12, 59, 127
2, 211259, Note_on_c, 10, 57, 127
2, 211374, Note_off_c, 10, 57, 127
2, 211375, Note_on_c, 8, 56, 127
2, 211490, Note_off_c, 8, 56, 127
2, 211491, Note_on_c, 10, 57, 127
2, 211606, Note_off_c, 5, 65, 127
2, 211607, Note_on_c, 1, 61, 127
2, 211722, Note_off_c, 1, 61, 127
2, 211723, Note_on_c, 6, 66, 127
2, 211956, Note_on_c, 8, 68, 127
2, 212188, Note_off_c, 10, 57, 127
2, 212189, Note_on_c, 8, 56, 127
2, 212304, Note_off_c, 8, 56, 127
2, 212305, Note_on_c, 6, 54, 127
2, 212410, Note_off_c, 6, 66, 127
2, 212420, Note_off_c, 6, 54, 127
2, 212420, Note_off_c, 8, 68, 127
2, 212421, Note_on_c, 8, 56, 127
2, 212421, Note_on_c, 1, 73, 127
2, 212421, Note_on_c, 5, 65, 127
2, 212879, Note_off_c, 1, 49, 127
2, 212885, Note_off_c, 5, 65, 127
2, 212885, Note_off_c, 1, 73, 127
2, 212885, Note_off_c, 8, 56, 127
2, 212886, Note_on_c, 6, 42, 127
2, 212886, Note_on_c, 6, 54, 127
2, 212886, Note_on_c, 10, 69, 127
2, 212886, Note_on_c, 6, 66, 127
2, 213234, Note_off_c, 10, 69, 127
2, 213235, Note_on_c, 8, 68, 127
2, 213347, Note_off_c, 6, 66, 127
2, 213351, Note_off_c, 8, 68, 127
2, 213352, Note_on_c, 6, 66, 127
2, 213584, Note_off_c, 6, 66, 127
2, 213584, Note_off_c, 6, 54, 127
2, 213585, Note_on_c, 4, 52, 127
2, 213585, Note_on_c, 8, 68, 127
2, 213700, Note_off_c, 8, 68, 127
2, 213701, Note_on_c, 10, 69, 127
2, 213816, Note_off_c, 10, 69, 127
2, 213816, Note_off_c, 4, 52, 127
2, 213816, Note_off_c, 6, 42, 127
2, 213817, Note_on_c, 3, 51, 127
2, 213817, Note_on_c, 8, 44, 127
2, 213817, Note_on_c, 12, 71, 127
2, 214049, Note_off_c, 12, 71, 127
2, 214050, Note_on_c, 12, 71, 127
2, 214282, Note_off_c, 12, 71, 127
2, 214282, Note_off_c, 8, 44, 127
2, 214282, Note_off_c, 3, 51, 127
2, 214283, Note_on_c, 5, 53, 127
2, 214283, Note_on_c, 1, 49, 127
2, 214283, Note_on_c, 12, 71, 127
2, 214515, Note_off_c, 12, 71, 127
2, 214516, Note_on_c, 12, 71, 127
2, 214748, Note_off_c, 1, 49, 127
2, 214748, Note_off_c, 5, 53, 127
2, 214749, Note_on_c, 6, 42, 127
2, 214749, Note_on_c, 6, 54, 127
2, 214749, Note_on_c, 1, 61, 127
2, 214977, Note_off_c, 12, 71, 127
2, 214982, Note_on_c, 11, 70, 127
2, 215097, Note_off_c, 11, 70, 127
2, 215098, Note_on_c, 8, 68, 127
2, 215210, Note_off_c, 1, 61, 127
2, 215210, Note_off_c, 6, 54, 127
2, 215214, Note_off_c, 8, 68, 127
2, 215215, Note_on_c, 6, 66, 127
2, 215215, Note_on_c, 11, 70, 127
2, 215447, Note_off_c, 6, 66, 127
2, 215448, Note_on_c, 4, 64, 127
2, 215676, Note_off_c, 11, 70, 127
2, 215680, Note_off_c, 4, 64, 127
2, 215680, Note_off_c, 6, 42, 127
2, 215681, Note_on_c, 12, 47, 127
2, 215681, Note_on_c, 6, 54, 127
2, 215681, Note_on_c, 2, 62, 127
2, 215681, Note_on_c, 12, 71, 127
2, 216029, Note_off_c, 2, 62, 127
2, 216030, Note_on_c, 1, 61, 127
2, 216142, Note_off_c, 12, 71, 127
2, 216142, Note_off_c, 6, 54, 127
2, 216146, Note_off_c, 1, 61, 127
2, 216147, Note_on_c, 12, 59, 127
2, 216380, Note_on_c, 1, 61, 127
2, 216495, Note_off_c, 1, 61, 127
2, 216496, Note_on_c, 2, 62, 127
2, 216608, Note_off_c, 12, 59, 127
2, 216612, Note_off_c, 2, 62, 127
2, 216612, Note_off_c, 12, 47, 127
2, 216613, Note_on_c, 7, 55, 127
2, 216613, Note_on_c, 4, 64, 127
2, 216845, Note_off_c, 4, 64, 127
2, 216846, Note_on_c, 4, 64, 127
2, 216961, Note_off_c, 7, 55, 127
2, 216962, Note_on_c, 6, 54, 127
2, 217077, Note_off_c, 6, 54, 127
2, 217077, Note_off_c, 4, 64, 127
2, 217078, Note_on_c, 4, 52, 127
2, 217078, Note_on_c, 4, 64, 127
2, 217310, Note_off_c, 4, 64, 127
2, 217310, Note_off_c, 4, 52, 127
2, 217311, Note_on_c, 6, 54, 127
2, 217311, Note_on_c, 4, 64, 127
2, 217426, Note_off_c, 6, 54, 127
2, 217427, Note_on_c, 7, 55, 127
2, 217542, Note_off_c, 7, 55, 127
2, 217542, Note_off_c, 4, 64, 127
2, 217543, Note_on_c, 10, 57, 127
2, 217543, Note_on_c, 1, 61, 127
2, 217775, Note_off_c, 10, 57, 127
2, 217776, Note_on_c, 10, 57, 127
2, 217891, Note_off_c, 1, 61, 127
2, 217892, Note_on_c, 12, 59, 127
2, 218007, Note_off_c, 12, 59, 127
2, 218007, Note_off_c, 10, 57, 127
2, 218008, Note_on_c, 10, 57, 127
2, 218240, Note_off_c, 10, 57, 127
2, 218241, Note_on_c, 10, 57, 127
2, 218241, Note_on_c, 12, 59, 127
2, 218356, Note_off_c, 12, 59, 127
2, 218357, Note_on_c, 1, 61, 127
2, 218472, Note_off_c, 1, 61, 127
2, 218472, Note_off_c, 10, 57, 127
2, 218473, Note_on_c, 6, 54, 127
2, 218473, Note_on_c, 2, 62, 127
2, 218705, Note_off_c, 2, 62, 127
2, 218706, Note_on_c, 2, 62, 127
2, 218821, Note_off_c, 6, 54, 127
2, 218822, Note_on_c, 4, 52, 127
2, 218937, Note_off_c, 4, 52, 127
2, 218937, Note_off_c, 2, 62, 127
2, 218938, Note_on_c, 2, 50, 127
2, 218938, Note_on_c, 2, 62, 127
2, 219170, Note_off_c, 2, 62, 127
2, 219170, Note_off_c, 2, 50, 127
2, 219171, Note_on_c, 4, 52, 127
2, 219171, Note_on_c, 2, 62, 127
2, 219286, Note_off_c, 4, 52, 127
2, 219287, Note_on_c, 6, 54, 127
2, 219402, Note_off_c, 6, 54, 127
2, 219402, Note_off_c, 2, 62, 127
2, 219403, Note_on_c, 7, 55, 127
2, 219403, Note_on_c, 12, 71, 127
2, 219403, Note_on_c, 12, 59, 127
2, 219742, Note_off_c, 12, 59, 127
2, 219752, Note_on_c, 10, 57, 127
2, 219864, Note_off_c, 7, 55, 127
2, 219868, Note_off_c, 10, 57, 127
2, 219868, Note_off_c, 12, 71, 127
2, 219869, Note_on_c, 7, 55, 127
2, 219869, Note_on_c, 4, 52, 127
2, 219869, Note_on_c, 4, 76, 127
2, 220101, Note_off_c, 7, 55, 127
2, 220102, Note_on_c, 10, 57, 127
2, 220217, Note_off_c, 10, 57, 127
2, 220218, Note_on_c, 7, 55, 127
2, 220330, Note_off_c, 4, 52, 127
2, 220334, Note_off_c, 7, 55, 127
2, 220334, Note_off_c, 4, 76, 127
2, 220335, Note_on_c, 6, 54, 127
2, 220335, Note_on_c, 12, 47, 127
2, 220335, Note_on_c, 3, 75, 127
2, 220335, Note_on_c, 6, 66, 127
2, 220683, Note_off_c, 3, 75, 127
2, 220684, Note_on_c, 1, 73, 127
2, 220796, Note_off_c, 6, 66, 127
2, 220800, Note_off_c, 1, 73, 127
2, 220801, Note_on_c, 12, 71, 127
2, 221034, Note_on_c, 1, 73, 127
2, 221149, Note_off_c, 1, 73, 127
2, 221150, Note_on_c, 3, 75, 127
2, 221262, Note_off_c, 12, 71, 127
2, 221266, Note_off_c, 3, 75, 127
2, 221266, Note_off_c, 12, 47, 127
2, 221266, Note_off_c, 6, 54, 127
2, 221267, Note_on_c, 4, 76, 127
2, 221267, Note_on_c, 7, 67, 127
2, 221499, Note_off_c, 4, 76, 127
2, 221500, Note_on_c, 4, 76, 127
2, 221607, Note_off_c, 7, 67, 127
2, 221617, Note_on_c, 6, 66, 127
2, 221731, Note_off_c, 4, 76, 127
2, 221732, Note_off_c, 6, 66, 127
2, 221733, Note_on_c, 4, 64, 127
2, 221733, Note_on_c, 4, 76, 127
2, 221965, Note_off_c, 4, 76, 127
2, 221965, Note_off_c, 4, 64, 127
2, 221966, Note_on_c, 4, 76, 127
2, 221966, Note_on_c, 6, 66, 127
2, 222081, Note_off_c, 6, 66, 127
2, 222082, Note_on_c, 7, 67, 127
2, 222197, Note_off_c, 7, 67, 127
2, 222198, Note_on_c, 6, 66, 127
2, 222426, Note_off_c, 4, 76, 127
2, 222431, Note_on_c, 3, 75, 127
2, 222528, Note_off_c, 3, 75, 127
2, 222547, Note_on_c, 1, 73, 127
2, 222644, Note_off_c, 1, 73, 127
2, 222659, Note_off_c, 6, 66, 127
2, 222664, Note_on_c, 12, 71, 127
2, 222664, Note_on_c, 2, 74, 127
2, 222896, Note_off_c, 12, 71, 127
2, 222897, Note_on_c, 10, 69, 127
2, 223012, Note_off_c, 10, 69, 127
2, 223013, Note_on_c, 8, 68, 127
2, 223128, Note_off_c, 8, 68, 127
2, 223129, Note_on_c, 10, 69, 127
2, 223361, Note_off_c, 2, 74, 127
2, 223362, Note_on_c, 1, 73, 127
2, 223459, Note_off_c, 1, 73, 127
2, 223478, Note_on_c, 12, 71, 127
2, 223575, Note_off_c, 12, 71, 127
2, 223594, Note_on_c, 0, 72, 127
2, 223826, Note_off_c, 10, 69, 127
2, 223827, Note_on_c, 7, 67, 127
2, 223942, Note_off_c, 7, 67, 127
2, 223943, Note_on_c, 6, 66, 127
2, 224058, Note_off_c, 6, 66, 127
2, 224059, Note_on_c, 7, 67, 127
2, 224291, Note_off_c, 0, 72, 127
2, 224292, Note_on_c, 12, 71, 127
2, 224407, Note_off_c, 12, 71, 127
2, 224408, Note_on_c, 10, 69, 127
2, 224523, Note_off_c, 10, 69, 127
2, 224524, Note_on_c, 12, 71, 127
2, 224756, Note_off_c, 7, 67, 127
2, 224757, Note_on_c, 6, 66, 127
2, 224872, Note_off_c, 6, 66, 127
2, 224873, Note_on_c, 4, 64, 127
2, 224988, Note_off_c, 4, 64, 127
2, 224989, Note_on_c, 6, 66, 127
2, 225221, Note_off_c, 6, 66, 127
2, 225221, Note_off_c, 12, 71, 127
2, 225222, Note_on_c, 10, 69, 127
2, 225222, Note_on_c, 1, 61, 127
2, 225337, Note_off_c, 10, 69, 127
2, 225338, Note_on_c, 7, 67, 127
2, 225452, Note_off_c, 1, 61, 127
2, 225453, Note_off_c, 7, 67, 127
2, 225454, Note_on_c, 2, 62, 127
2, 225454, Note_on_c, 6, 66, 127
2, 225684, Note_off_c, 2, 62, 127
2, 225686, Note_on_c, 11, 58, 127
2, 225801, Note_off_c, 6, 66, 127
2, 225802, Note_on_c, 4, 64, 127
2, 225917, Note_off_c, 4, 64, 127
2, 225917, Note_off_c, 11, 58, 127
2, 225918, Note_on_c, 12, 47, 127
2, 225918, Note_on_c, 12, 59, 127
2, 225918, Note_on_c, 2, 62, 127
2, 226150, Note_off_c, 2, 62, 127
2, 226151, Note_on_c, 4, 64, 127
2, 226266, Note_off_c, 4, 64, 127
2, 226267, Note_on_c, 2, 62, 127
2, 226382, Note_off_c, 2, 62, 127
2, 226382, Note_off_c, 12, 47, 127
2, 226383, Note_on_c, 6, 54, 127
2, 226383, Note_on_c, 1, 61, 127
2, 226615, Note_off_c, 12, 59, 127
2, 226616, Note_on_c, 10, 57, 127
2, 226844, Note_off_c, 6, 54, 127
2, 226848, Note_off_c, 1, 61, 127
2, 226849, Note_on_c, 3, 51, 127
2, 226849, Note_on_c, 6, 66, 127
2, 227197, Note_off_c, 3, 51, 127
2, 227198, Note_on_c, 1, 49, 127
2, 227313, Note_off_c, 1, 49, 127
2, 227313, Note_off_c, 6, 66, 127
2, 227313, Note_off_c, 10, 57, 127
2, 227314, Note_on_c, 12, 47, 127
2, 227314, Note_on_c, 12, 71, 127
2, 227314, Note_on_c, 6, 66, 127
2, 227546, Note_off_c, 12, 47, 127
2, 227547, Note_on_c, 1, 49, 127
2, 227662, Note_off_c, 1, 49, 127
2, 227663, Note_on_c, 3, 51, 127
2, 227778, Note_off_c, 3, 51, 127
2, 227778, Note_off_c, 6, 66, 127
2, 227778, Note_off_c, 12, 71, 127
2, 227779, Note_on_c, 4, 52, 127
2, 227779, Note_on_c, 7, 67, 127
2, 227779, Note_on_c, 12, 59, 127
2, 228011, Note_off_c, 4, 52, 127
2, 228012, Note_on_c, 4, 52, 127
2, 228127, Note_off_c, 7, 67, 127
2, 228128, Note_on_c, 6, 66, 127
2, 228240, Note_off_c, 12, 59, 127
2, 228244, Note_off_c, 6, 66, 127
2, 228244, Note_off_c, 4, 52, 127
2, 228245, Note_on_c, 4, 52, 127
2, 228245, Note_on_c, 1, 61, 127
2, 228245, Note_on_c, 4, 64, 127
2, 228477, Note_off_c, 4, 64, 127
2, 228477, Note_off_c, 1, 61, 127
2, 228477, Note_off_c, 4, 52, 127
2, 228478, Note_on_c, 4, 52, 127
2, 228478, Note_on_c, 6, 66, 127
2, 228478, Note_on_c, 2, 62, 127
2, 228593, Note_off_c, 6, 66, 127
2, 228594, Note_on_c, 7, 67, 127
2, 228708, Note_off_c, 2, 62, 127
2, 228709, Note_off_c, 7, 67, 127
2, 228709, Note_off_c, 4, 52, 127
2, 228710, Note_on_c, 1, 49, 127
2, 228710, Note_on_c, 10, 69, 127
2, 228710, Note_on_c, 4, 64, 127
2, 228942, Note_off_c, 10, 69, 127
2, 228943, Note_on_c, 10, 69, 127
2, 229058, Note_off_c, 1, 49, 127
2, 229059, Note_on_c, 12, 47, 127
2, 229171, Note_off_c, 4, 64, 127
2, 229175, Note_off_c, 12, 47, 127
2, 229175, Note_off_c, 10, 69, 127
2, 229176, Note_on_c, 10, 45, 127
2, 229176, Note_on_c, 10, 69, 127
2, 229176, Note_on_c, 1, 61, 127
2, 229408, Note_off_c, 10, 69, 127
2, 229408, Note_off_c, 10, 45, 127
2, 229409, Note_on_c, 12, 47, 127
2, 229409, Note_on_c, 10, 69, 127
2, 229524, Note_off_c, 12, 47, 127
2, 229525, Note_on_c, 1, 49, 127
2, 229640, Note_off_c, 1, 49, 127
2, 229640, Note_off_c, 10, 69, 127
2, 229641, Note_on_c, 6, 54, 127
2, 229641, Note_on_c, 2, 50, 127
2, 229641, Note_on_c, 6, 66, 127
2, 229873, Note_off_c, 1, 61, 127
2, 229874, Note_on_c, 2, 62, 127
2, 229989, Note_off_c, 2, 62, 127
2, 229990, Note_on_c, 1, 61, 127
2, 230105, Note_off_c, 1, 61, 127
2, 230105, Note_off_c, 6, 54, 127
2, 230106, Note_on_c, 12, 59, 127
2, 230337, Note_off_c, 6, 66, 127
2, 230338, Note_off_c, 2, 50, 127
2, 230339, Note_on_c, 4, 52, 127
2, 230339, Note_on_c, 1, 61, 127
2, 230339, Note_on_c, 4, 64, 127
2, 230454, Note_off_c, 1, 61, 127
2, 230455, Note_on_c, 2, 62, 127
2, 230567, Note_off_c, 12, 59, 127
2, 230571, Note_off_c, 2, 62, 127
2, 230571, Note_off_c, 4, 52, 127
2, 230572, Note_on_c, 6, 54, 127
2, 230572, Note_on_c, 11, 58, 127
2, 230572, Note_on_c, 1, 61, 127
2, 230920, Note_off_c, 11, 58, 127
2, 230920, Note_off_c, 6, 54, 127
2, 230921, Note_on_c, 8, 56, 127
2, 231036, Note_off_c, 8, 56, 127
2, 231037, Note_on_c, 6, 54, 127
2, 231269, Note_off_c, 6, 54, 127
2, 231269, Note_off_c, 1, 61, 127
2, 231269, Note_off_c, 4, 64, 127
2, 231270, Note_on_c, 8, 56, 127
2, 231270, Note_on_c, 2, 62, 127
2, 231385, Note_off_c, 2, 62, 127
2, 231385, Note_off_c, 8, 56, 127
2, 231386, Note_on_c, 11, 58, 127
2, 231386, Note_on_c, 1, 61, 127
2, 231501, Note_off_c, 1, 61, 127
2, 231501, Note_off_c, 11, 58, 127
2, 231502, Note_on_c, 12, 59, 127
2, 231502, Note_on_c, 2, 62, 127
2, 231734, Note_off_c, 12, 59, 127
2, 231735, Note_on_c, 10, 57, 127
2, 231967, Note_off_c, 10, 57, 127
2, 231968, Note_on_c, 7, 55, 127
2, 231968, Note_on_c, 12, 59, 127
2, 232200, Note_off_c, 7, 55, 127
2, 232200, Note_off_c, 2, 62, 127
2, 232201, Note_on_c, 6, 54, 127
2, 232201, Note_on_c, 4, 64, 127
2, 232316, Note_off_c, 6, 54, 127
2, 232317, Note_on_c, 4, 52, 127
2, 232432, Note_off_c, 4, 52, 127
2, 232432, Note_off_c, 4, 64, 127
2, 232433, Note_on_c, 2, 50, 127
2, 232433, Note_on_c, 6, 66, 127
2, 232665, Note_off_c, 12, 59, 127
2, 232666, Note_on_c, 1, 61, 127
2, 232894, Note_off_c, 6, 66, 127
2, 232898, Note_off_c, 1, 61, 127
2, 232899, Note_on_c, 2, 62, 127
2, 232899, Note_on_c, 12, 71, 127
2, 233131, Note_off_c, 2, 50, 127
2, 233132, Note_on_c, 4, 52, 127
2, 233364, Note_off_c, 4, 52, 127
2, 233364, Note_off_c, 12, 71, 127
2, 233364, Note_off_c, 2, 62, 127
2, 233365, Note_on_c, 6, 42, 127
2, 233365, Note_on_c, 6, 54, 127
2, 233365, Note_on_c, 1, 61, 127
2, 233365, Note_on_c, 11, 70, 127
2, 233597, Note_off_c, 11, 70, 127
2, 233598, Note_on_c, 12, 71, 127
2, 233713, Note_off_c, 12, 71, 127
2, 233714, Note_on_c, 1, 73, 127
2, 233826, Note_off_c, 1, 61, 127
2, 233830, Note_off_c, 1, 73, 127
2, 233830, Note_off_c, 6, 54, 127
2, 233830, Note_off_c, 6, 42, 127
2, 233831, Note_on_c, 12, 47, 127
2, 233831, Note_on_c, 6, 54, 127
2, 233831, Note_on_c, 2, 74, 127
2, 233831, Note_on_c, 12, 59, 127
2, 234063, Note_off_c, 2, 74, 127
2, 234064, Note_on_c, 4, 76, 127
2, 234179, Note_off_c, 4, 76, 127
2, 234180, Note_on_c, 2, 74, 127
2, 234292, Note_off_c, 12, 59, 127
2, 234296, Note_off_c, 2, 74, 127
2, 234296, Note_off_c, 6, 54, 127
2, 234296, Note_off_c, 12, 47, 127
2, 234297, Note_on_c, 11, 46, 127
2, 234297, Note_on_c, 6, 54, 127
2, 234297, Note_on_c, 1, 61, 127
2, 234297, Note_on_c, 1, 73, 127
2, 234529, Note_off_c, 1, 61, 127
2, 234530, Note_on_c, 2, 62, 127
2, 234645, Note_off_c, 11, 46, 127
2, 234646, Note_on_c, 8, 44, 127
2, 234758, Note_off_c, 1, 73, 127
2, 234758, Note_off_c, 6, 54, 127
2, 234762, Note_off_c, 8, 44, 127
2, 234762, Note_off_c, 2, 62, 127
2, 234763, Note_on_c, 1, 61, 127
2, 234763, Note_on_c, 6, 42, 127
2, 234763, Note_on_c, 11, 70, 127
2, 234763, Note_on_c, 4, 64, 127
2, 234995, Note_off_c, 6, 42, 127
2, 234996, Note_on_c, 8, 44, 127
2, 235111, Note_off_c, 8, 44, 127
2, 235112, Note_on_c, 11, 46, 127
2, 235224, Note_off_c, 1, 61, 127
2, 235228, Note_off_c, 11, 46, 127
2, 235228, Note_off_c, 4, 64, 127
2, 235228, Note_off_c, 11, 70, 127
2, 235245, Note_on_c, 2, 62, 127
2, 235245, Note_on_c, 6, 66, 127
2, 235245, Note_on_c, 12, 59, 127
2, 235245, Note_on_c, 12, 47, 127
2, 235871, Note_off_c, 12, 47, 127
2, 235871, Note_off_c, 12, 59, 127
2, 235871, Note_off_c, 6, 66, 127
2, 235871, Note_off_c, 2, 62, 127
2, 236012, Note_on_c, 4, 52, 127
2, 236012, Note_on_c, 12, 59, 127
2, 236012, Note_on_c, 7, 67, 127
2, 236012, Note_on_c, 4, 64, 127
2, 236261, Note_off_c, 4, 64, 127
2, 236261, Note_off_c, 7, 67, 127
2, 236261, Note_off_c, 12, 59, 127
2, 236261, Note_off_c, 4, 52, 127
2, 236262, Note_on_c, 1, 49, 127
2, 236262, Note_on_c, 10, 57, 127
2, 236262, Note_on_c, 4, 64, 127
2, 236262, Note_on_c, 7, 67, 127
2, 236636, Note_off_c, 1, 49, 127
2, 236637, Note_on_c, 12, 47, 127
2, 236757, Note_off_c, 10, 57, 127
2, 236761, Note_off_c, 12, 47, 127
2, 236762, Note_on_c, 10, 45, 127
2, 236887, Note_off_c, 7, 67, 127
2, 236887, Note_off_c, 4, 64, 127
2, 237011, Note_off_c, 10, 45, 127
2, 237012, Note_on_c, 12, 47, 127
2, 237012, Note_on_c, 10, 57, 127
2, 237012, Note_on_c, 7, 67, 127
2, 237012, Note_on_c, 4, 64, 127
2, 237136, Note_off_c, 12, 47, 127
2, 237137, Note_on_c, 1, 49, 127
2, 237260, Note_off_c, 10, 57, 127
2, 237261, Note_off_c, 1, 49, 127
2, 237261, Note_off_c, 4, 64, 127
2, 237261, Note_off_c, 7, 67, 127
2, 237262, Note_on_c, 2, 50, 127
2, 237262, Note_on_c, 10, 57, 127
2, 237262, Note_on_c, 6, 66, 127
2, 237262, Note_on_c, 2, 62, 127
2, 237517, Note_off_c, 2, 50, 127
2, 237518, Note_on_c, 2, 50, 127
2, 237645, Note_off_c, 2, 62, 127
2, 237646, Note_on_c, 4, 64, 127
2, 237769, Note_off_c, 6, 66, 127
2, 237769, Note_off_c, 10, 57, 127
2, 237773, Note_off_c, 4, 64, 127
2, 237773, Note_off_c, 2, 50, 127
2, 237774, Note_on_c, 6, 54, 127
2, 237774, Note_on_c, 2, 50, 127
2, 237774, Note_on_c, 12, 71, 127
2, 237774, Note_on_c, 6, 66, 127
2, 238029, Note_off_c, 6, 66, 127
2, 238029, Note_off_c, 2, 50, 127
2, 238030, Note_on_c, 2, 50, 127
2, 238030, Note_on_c, 8, 68, 127
2, 238157, Note_off_c, 8, 68, 127
2, 238158, Note_on_c, 6, 66, 127
2, 238281, Note_off_c, 6, 54, 127
2, 238285, Note_off_c, 6, 66, 127
2, 238285, Note_off_c, 2, 50, 127
2, 238286, Note_on_c, 8, 44, 127
2, 238286, Note_on_c, 8, 56, 127
2, 238286, Note_on_c, 5, 65, 127
2, 238553, Note_off_c, 12, 71, 127
2, 238570, Note_on_c, 2, 74, 127
2, 238703, Note_off_c, 2, 74, 127
2, 238704, Note_on_c, 1, 73, 127
2, 238816, Note_off_c, 5, 65, 127
2, 238836, Note_off_c, 1, 73, 127
2, 238837, Note_on_c, 12, 71, 127
2, 238955, Note_off_c, 8, 56, 127
2, 238955, Note_off_c, 8, 44, 127
2, 238970, Note_off_c, 12, 71, 127
2, 238971, Note_on_c, 11, 70, 127
2, 239104, Note_off_c, 11, 70, 127
2, 239105, Note_on_c, 12, 71, 127
2, 239105, Note_on_c, 4, 64, 127
2, 239105, Note_on_c, 12, 59, 127
2, 239105, Note_on_c, 7, 55, 127
2, 239238, Note_off_c, 12, 71, 127
2, 239239, Note_on_c, 1, 73, 127
2, 239370, Note_off_c, 4, 64, 127
2, 239371, Note_off_c, 1, 73, 127
2, 239371, Note_off_c, 7, 55, 127
2, 239371, Note_off_c, 12, 59, 127
2, 239372, Note_on_c, 2, 74, 127
2, 239372, Note_on_c, 6, 66, 127
2, 239372, Note_on_c, 11, 58, 127
2, 239372, Note_on_c, 6, 54, 127
2, 239666, Note_off_c, 11, 58, 127
2, 239668, Note_on_c, 12, 59, 127
2, 239814, Note_off_c, 2, 74, 127
2, 239816, Note_on_c, 4, 76, 127
2, 239962, Note_off_c, 4, 76, 127
2, 239964, Note_on_c, 2, 74, 127
2, 239964, Note_on_c, 4, 64, 127
2, 240038, Note_off_c, 2, 74, 127
2, 240038, Note_on_c, 1, 73, 127
2, 240112, Note_off_c, 1, 73, 127
2, 240112, Note_on_c, 2, 74, 127
2, 240186, Note_off_c, 2, 74, 127
2, 240186, Note_on_c, 1, 73, 127
2, 240258, Note_off_c, 12, 59, 127
2, 240260, Note_on_c, 11, 58, 127
2, 240408, Note_on_c, 12, 71, 127
2, 240417, Note_off_c, 1, 73, 127
2, 240554, Note_off_c, 12, 71, 127
2, 240554, Note_off_c, 11, 58, 127
2, 240554, Note_off_c, 6, 54, 127
2, 240554, Note_off_c, 6, 66, 127
2, 240556, Note_on_c, 6, 66, 127
2, 240556, Note_on_c, 12, 71, 127
2, 240556, Note_on_c, 12, 59, 127
2, 240556, Note_on_c, 12, 47, 127
2, 240951, Note_off_c, 6, 66, 127
2, 240951, Note_off_c, 4, 64, 127
2, 240953, Note_on_c, 3, 63, 127
2, 241173, Note_off_c, 3, 63, 127
2, 241192, Note_on_c, 1, 61, 127
2, 241412, Note_off_c, 1, 61, 127
2, 241432, Note_on_c, 3, 63, 127
2, 241432, Note_on_c, 6, 54, 127
2, 242956, Note_off_c, 12, 47, 127
2, 242956, Note_off_c, 12, 59, 127
2, 242956, Note_off_c, 12, 71, 127
2, 243032, Note_off_c, 6, 54, 127
2, 243032, Note_off_c, 3, 63, 127
2, 244555, Note_on_c, 8, 44, 127
2, 244968, Note_on_c, 12, 71, 127
2, 245365, Note_on_c, 2, 74, 127
2, 245546, Note_off_c, 8, 44, 127
2, 245564, Note_on_c, 8, 56, 127
2, 245761, Note_off_c, 8, 56, 127
2, 245763, Note_on_c, 4, 64, 127
2, 245763, Note_on_c, 6, 54, 127
2, 245960, Note_off_c, 6, 54, 127
2, 245962, Note_on_c, 4, 52, 127
2, 246152, Note_off_c, 2, 74, 127
2, 246158, Note_off_c, 4, 52, 127
2, 246158, Note_off_c, 12, 71, 127
2, 246160, Note_on_c, 10, 57, 127
2, 246573, Note_on_c, 10, 69, 127
2, 246970, Note_on_c, 1, 73, 127
2, 247151, Note_off_c, 10, 57, 127
2, 247169, Note_on_c, 6, 54, 127
2, 247350, Note_off_c, 4, 64, 127
2, 247366, Note_off_c, 6, 54, 127
2, 247368, Note_on_c, 4, 52, 127
2, 247368, Note_on_c, 4, 64, 127
2, 247565, Note_off_c, 4, 52, 127
2, 247567, Note_on_c, 2, 50, 127
2, 247757, Note_off_c, 1, 73, 127
2, 247761, Note_off_c, 4, 64, 127
2, 247763, Note_off_c, 2, 50, 127
2, 247763, Note_off_c, 10, 69, 127
2, 247765, Note_on_c, 1, 49, 127
2, 248178, Note_on_c, 4, 76, 127
2, 248575, Note_on_c, 7, 79, 127
2, 248756, Note_off_c, 1, 49, 127
2, 248774, Note_on_c, 1, 61, 127
2, 248971, Note_off_c, 1, 61, 127
2, 248973, Note_on_c, 10, 69, 127
2, 248973, Note_on_c, 12, 59, 127
2, 249170, Note_off_c, 12, 59, 127
2, 249172, Note_on_c, 10, 57, 127
2, 249362, Note_off_c, 7, 79, 127
2, 249368, Note_off_c, 10, 57, 127
2, 249368, Note_off_c, 4, 76, 127
2, 249370, Note_on_c, 2, 62, 127
2, 249783, Note_on_c, 2, 74, 127
2, 250180, Note_on_c, 6, 78, 127
2, 250361, Note_off_c, 2, 62, 127
2, 250379, Note_on_c, 12, 59, 127
2, 250560, Note_off_c, 10, 69, 127
2, 250576, Note_off_c, 12, 59, 127
2, 250578, Note_on_c, 10, 57, 127
2, 250578, Note_on_c, 10, 69, 127
2, 250775, Note_off_c, 10, 57, 127
2, 250777, Note_on_c, 7, 55, 127
2, 250967, Note_off_c, 6, 78, 127
2, 250973, Note_off_c, 7, 55, 127
2, 250973, Note_off_c, 10, 69, 127
2, 250973, Note_off_c, 2, 74, 127
2, 250991, Note_on_c, 0, 72, 127
2, 250991, Note_on_c, 6, 54, 127
2, 251388, Note_on_c, 2, 74, 127
2, 251785, Note_on_c, 10, 81, 127
2, 251982, Note_off_c, 6, 54, 127
2, 251984, Note_on_c, 6, 54, 127
2, 252181, Note_off_c, 6, 54, 127
2, 252181, Note_off_c, 0, 72, 127
2, 252183, Note_on_c, 0, 72, 127
2, 252183, Note_on_c, 4, 52, 127
2, 252380, Note_off_c, 4, 52, 127
2, 252382, Note_on_c, 2, 50, 127
2, 252579, Note_off_c, 2, 50, 127
2, 252579, Note_off_c, 0, 72, 127
2, 252581, Note_on_c, 12, 71, 127
2, 252581, Note_on_c, 7, 55, 127
2, 252976, Note_off_c, 2, 74, 127
2, 252994, Note_on_c, 2, 74, 127
2, 253373, Note_off_c, 10, 81, 127
2, 253391, Note_on_c, 7, 79, 127
2, 253572, Note_off_c, 7, 55, 127
2, 253590, Note_on_c, 7, 55, 127
2, 253771, Note_off_c, 12, 71, 127
2, 253787, Note_off_c, 7, 55, 127
2, 253789, Note_on_c, 10, 57, 127
2, 253789, Note_on_c, 12, 71, 127
2, 253986, Note_off_c, 10, 57, 127
2, 253988, Note_on_c, 12, 59, 127
2, 254178, Note_off_c, 7, 79, 127
2, 254184, Note_off_c, 12, 59, 127
2, 254184, Note_off_c, 12, 71, 127
2, 254184, Note_off_c, 2, 74, 127
2, 254186, Note_on_c, 3, 51, 127
2, 254186, Note_on_c, 10, 69, 127
2, 254599, Note_on_c, 12, 71, 127
2, 254996, Note_on_c, 6, 78, 127
2, 255177, Note_off_c, 3, 51, 127
2, 255195, Note_on_c, 3, 51, 127
2, 255376, Note_off_c, 10, 69, 127
2, 255392, Note_off_c, 3, 51, 127
2, 255394, Note_on_c, 10, 69, 127
2, 255394, Note_on_c, 1, 49, 127
2, 255591, Note_off_c, 1, 49, 127
2, 255593, Note_on_c, 12, 47, 127
2, 255790, Note_off_c, 12, 47, 127
2, 255790, Note_off_c, 10, 69, 127
2, 255792, Note_on_c, 7, 67, 127
2, 255792, Note_on_c, 4, 52, 127
2, 256187, Note_off_c, 12, 71, 127
2, 256205, Note_on_c, 12, 71, 127
2, 256584, Note_off_c, 6, 78, 127
2, 256602, Note_on_c, 4, 76, 127
2, 256783, Note_off_c, 4, 52, 127
2, 256801, Note_on_c, 2, 50, 127
2, 256982, Note_off_c, 7, 67, 127
2, 256998, Note_off_c, 2, 50, 127
2, 257000, Note_on_c, 1, 49, 127
2, 257000, Note_on_c, 7, 67, 127
2, 257197, Note_off_c, 1, 49, 127
2, 257199, Note_on_c, 12, 47, 127
2, 257389, Note_off_c, 4, 76, 127
2, 257395, Note_off_c, 12, 47, 127
2, 257395, Note_off_c, 7, 67, 127
2, 257395, Note_off_c, 12, 71, 127
2, 257397, Note_on_c, 11, 46, 127
2, 257397, Note_on_c, 6, 66, 127
2, 257810, Note_on_c, 1, 73, 127
2, 258207, Note_on_c, 4, 76, 127
2, 258388, Note_off_c, 11, 46, 127
2, 258406, Note_on_c, 11, 58, 127
2, 258587, Note_off_c, 6, 66, 127
2, 258603, Note_off_c, 11, 58, 127
2, 258605, Note_on_c, 11, 70, 127
2, 258605, Note_on_c, 8, 56, 127
2, 258802, Note_off_c, 8, 56, 127
2, 258804, Note_on_c, 6, 54, 127
2, 258994, Note_off_c, 4, 76, 127
2, 258998, Note_off_c, 11, 70, 127
2, 259000, Note_off_c, 6, 54, 127
2, 259000, Note_off_c, 1, 73, 127
2, 259002, Note_on_c, 12, 59, 127
2, 259415, Note_on_c, 12, 71, 127
2, 259812, Note_on_c, 2, 74, 127
2, 259993, Note_off_c, 12, 59, 127
2, 260011, Note_on_c, 12, 59, 127
2, 260208, Note_off_c, 12, 59, 127
2, 260210, Note_on_c, 1, 61, 127
2, 260210, Note_on_c, 7, 67, 127
2, 260407, Note_off_c, 1, 61, 127
2, 260409, Note_on_c, 2, 62, 127
2, 260599, Note_off_c, 2, 74, 127
2, 260605, Note_off_c, 2, 62, 127
2, 260605, Note_off_c, 7, 67, 127
2, 260605, Note_off_c, 12, 71, 127
2, 260623, Note_on_c, 10, 69, 127
2, 260623, Note_on_c, 0, 48, 127
2, 261020, Note_on_c, 2, 74, 127
2, 261417, Note_on_c, 6, 78, 127
2, 261614, Note_off_c, 0, 48, 127
2, 261616, Note_on_c, 4, 52, 127
2, 261813, Note_off_c, 4, 52, 127
2, 261813, Note_off_c, 10, 69, 127
2, 261815, Note_on_c, 10, 69, 127
2, 261815, Note_on_c, 2, 50, 127
2, 262012, Note_off_c, 2, 50, 127
2, 262014, Note_on_c, 0, 48, 127
2, 262204, Note_off_c, 6, 78, 127
2, 262210, Note_off_c, 0, 48, 127
2, 262210, Note_off_c, 10, 69, 127
2, 262210, Note_off_c, 2, 74, 127
2, 262212, Note_on_c, 12, 71, 127
2, 262212, Note_on_c, 12, 47, 127
2, 262409, Note_off_c, 12, 47, 127
2, 262411, Note_on_c, 2, 74, 127
2, 262411, Note_on_c, 12, 59, 127
2, 262608, Note_off_c, 12, 59, 127
2, 262610, Note_on_c, 7, 79, 127
2, 262610, Note_on_c, 1, 61, 127
2, 262807, Note_off_c, 1, 61, 127
2, 262809, Note_on_c, 2, 62, 127
2, 262991, Note_off_c, 2, 74, 127
2, 262999, Note_off_c, 12, 71, 127
2, 263005, Note_off_c, 2, 62, 127
2, 263007, Note_on_c, 4, 76, 127
2, 263007, Note_on_c, 10, 69, 127
2, 263007, Note_on_c, 1, 61, 127
2, 263601, Note_off_c, 1, 61, 127
2, 263603, Note_on_c, 12, 59, 127
2, 263700, Note_off_c, 12, 59, 127
2, 263702, Note_on_c, 10, 57, 127
2, 263799, Note_off_c, 10, 57, 127
2, 263799, Note_off_c, 10, 69, 127
2, 263799, Note_off_c, 7, 79, 127
2, 263801, Note_on_c, 10, 69, 127
2, 263801, Note_on_c, 6, 78, 127
2, 263801, Note_on_c, 2, 62, 127
2, 263998, Note_off_c, 2, 62, 127
2, 264000, Note_on_c, 4, 52, 127
2, 264197, Note_off_c, 4, 52, 127
2, 264197, Note_off_c, 4, 76, 127
2, 264199, Note_on_c, 2, 74, 127
2, 264199, Note_on_c, 6, 54, 127
2, 264396, Note_off_c, 6, 54, 127
2, 264398, Note_on_c, 7, 55, 127
2, 264595, Note_off_c, 7, 55, 127
2, 264597, Note_on_c, 6, 54, 127
2, 265191, Note_off_c, 6, 54, 127
2, 265193, Note_on_c, 4, 52, 127
2, 265290, Note_off_c, 4, 52, 127
2, 265292, Note_on_c, 2, 50, 127
2, 265389, Note_off_c, 2, 50, 127
2, 265389, Note_off_c, 6, 78, 127
2, 265389, Note_off_c, 10, 69, 127
2, 265391, Note_on_c, 12, 71, 127
2, 265391, Note_on_c, 7, 55, 127
2, 265588, Note_off_c, 7, 55, 127
2, 265590, Note_on_c, 6, 54, 127
2, 265787, Note_off_c, 6, 54, 127
2, 265789, Note_on_c, 8, 56, 127
2, 265986, Note_off_c, 8, 56, 127
2, 265988, Note_on_c, 10, 57, 127
2, 266185, Note_off_c, 10, 57, 127
2, 266187, Note_on_c, 4, 76, 127
2, 266187, Note_on_c, 8, 56, 127
2, 266580, Note_off_c, 2, 74, 127
2, 266781, Note_off_c, 8, 56, 127
2, 266783, Note_on_c, 6, 54, 127
2, 266880, Note_off_c, 6, 54, 127
2, 266882, Note_on_c, 4, 52, 127
2, 266979, Note_off_c, 4, 52, 127
2, 266979, Note_off_c, 4, 76, 127
2, 266979, Note_off_c, 12, 71, 127
2, 266981, Note_on_c, 10, 57, 127
2, 267048, Note_on_c, 10, 69, 127
2, 267112, Note_on_c, 1, 73, 127
2, 267176, Note_on_c, 4, 76, 127
2, 267910, Note_off_c, 10, 69, 127
2, 267974, Note_off_c, 1, 73, 127
2, 268269, Note_on_c, 10, 81, 127
2, 268276, Note_off_c, 4, 76, 127
2, 268565, Note_on_c, 4, 76, 127
2, 268574, Note_off_c, 10, 81, 127
2, 268781, Note_off_c, 10, 57, 127
2, 268850, Note_off_c, 4, 76, 127
2, 268853, Note_on_c, 6, 78, 127
2, 268853, Note_on_c, 10, 81, 127
2, 269140, Note_off_c, 10, 81, 127
2, 269140, Note_off_c, 6, 78, 127
2, 269142, Note_on_c, 1, 73, 127
2, 269142, Note_on_c, 4, 76, 127
2, 269428, Note_off_c, 4, 76, 127
2, 269428, Note_off_c, 1, 73, 127
2, 269430, Note_on_c, 10, 69, 127
2, 269430, Note_on_c, 2, 74, 127
2, 269430, Note_on_c, 6, 78, 127
2, 269716, Note_off_c, 6, 78, 127
2, 269716, Note_off_c, 2, 74, 127
2, 269716, Note_off_c, 10, 69, 127
2, 269718, Note_on_c, 4, 64, 127
2, 269718, Note_on_c, 10, 69, 127
2, 269718, Note_on_c, 1, 73, 127
2, 270004, Note_off_c, 1, 73, 127
2, 270004, Note_off_c, 10, 69, 127
2, 270004, Note_off_c, 4, 64, 127
2, 270006, Note_on_c, 2, 74, 127
2, 270006, Note_on_c, 6, 66, 127
2, 270006, Note_on_c, 10, 69, 127
2, 270006, Note_on_c, 2, 62, 127
2, 270292, Note_off_c, 2, 62, 127
2, 270292, Note_off_c, 10, 69, 127
2, 270292, Note_off_c, 6, 66, 127
2, 270292, Note_off_c, 2, 74, 127
2, 270294, Note_on_c, 4, 64, 127
2, 270294, Note_on_c, 10, 69, 127
2, 270294, Note_on_c, 1, 73, 127
2, 270294, Note_on_c, 10, 57, 127
2, 270647, Note_off_c, 10, 57, 127
2, 270647, Note_off_c, 1, 73, 127
2, 270647, Note_off_c, 10, 69, 127
2, 270647, Note_off_c, 4, 64, 127
2, 270649, Note_on_c, 12, 71, 127
2, 270649, Note_on_c, 2, 62, 127
2, 270649, Note_on_c, 8, 68, 127
2, 270649, Note_on_c, 12, 59, 127
2, 271002, Note_off_c, 12, 59, 127
2, 271002, Note_off_c, 8, 68, 127
2, 271011, Note_on_c, 6, 54, 127
2, 271049, Note_off_c, 12, 71, 127
2, 271078, Note_off_c, 2, 62, 127
2, 271080, Note_on_c, 2, 62, 127
2, 271144, Note_on_c, 10, 69, 127
2, 271208, Note_on_c, 12, 71, 127
2, 271272, Note_on_c, 0, 72, 127
2, 271538, Note_off_c, 12, 71, 127
2, 271964, Note_off_c, 2, 62, 127
2, 272044, Note_off_c, 10, 69, 127
2, 272050, Note_on_c, 2, 74, 127
2, 272156, Note_off_c, 0, 72, 127
2, 272225, Note_off_c, 2, 74, 127
2, 272227, Note_on_c, 10, 69, 127
2, 272404, Note_on_c, 0, 72, 127
2, 272426, Note_off_c, 6, 54, 127
2, 272579, Note_off_c, 0, 72, 127
2, 272581, Note_on_c, 12, 71, 127
2, 272758, Note_on_c, 2, 62, 127
2, 272933, Note_off_c, 2, 62, 127
2, 272935, Note_on_c, 10, 57, 127
2, 273110, Note_off_c, 10, 57, 127
2, 273112, Note_on_c, 12, 59, 127
2, 273287, Note_off_c, 12, 59, 127
2, 273287, Note_off_c, 10, 69, 127
2, 273289, Note_on_c, 6, 54, 127
2, 273289, Note_on_c, 7, 67, 127
2, 273464, Note_off_c, 6, 54, 127
2, 273466, Note_on_c, 7, 55, 127
2, 273641, Note_off_c, 7, 67, 127
2, 273641, Note_off_c, 12, 71, 127
2, 273659, Note_on_c, 7, 67, 127
2, 273659, Note_on_c, 4, 76, 127
2, 273659, Note_on_c, 10, 69, 127
2, 273659, Note_on_c, 1, 49, 127
2, 273667, Note_off_c, 7, 55, 127
2, 273918, Note_off_c, 1, 49, 127
2, 273921, Note_on_c, 2, 50, 127
2, 274115, Note_off_c, 4, 76, 127
2, 274151, Note_on_c, 2, 74, 127
2, 274151, Note_on_c, 2, 38, 127
2, 274577, Note_off_c, 7, 67, 127
2, 274611, Note_on_c, 6, 66, 127
2, 274839, Note_off_c, 6, 66, 127
2, 274857, Note_on_c, 4, 64, 127
2, 275085, Note_off_c, 4, 64, 127
2, 275103, Note_on_c, 6, 66, 127
2, 276659, Note_off_c, 10, 69, 127
2, 276951, Note_off_c, 2, 74, 127
2, 276981, Note_off_c, 2, 38, 127
2, 277003, Note_off_c, 6, 66, 127
2, 277021, Note_off_c, 2, 50, 127
2, 278468, Note_on_c, 2, 74, 127
2, 278663, Note_off_c, 2, 74, 127
2, 278677, Note_on_c, 2, 74, 127
2, 278771, Note_off_c, 2, 74, 127
2, 278782, Note_on_c, 2, 74, 127
2, 278876, Note_off_c, 2, 74, 127
2, 278887, Note_on_c, 2, 74, 127
2, 279082, Note_off_c, 2, 74, 127
2, 279096, Note_on_c, 2, 74, 127
2, 279291, Note_off_c, 2, 74, 127
2, 279305, Note_on_c, 2, 74, 127
2, 279500, Note_off_c, 2, 74, 127
2, 279514, Note_on_c, 2, 74, 127
2, 279709, Note_off_c, 2, 74, 127
2, 279723, Note_on_c, 6, 78, 127
2, 279918, Note_off_c, 6, 78, 127
2, 279932, Note_on_c, 10, 81, 127
2, 280127, Note_off_c, 10, 81, 127
2, 280141, Note_on_c, 2, 74, 127
2, 280336, Note_off_c, 2, 74, 127
2, 280350, Note_on_c, 6, 78, 127
2, 280545, Note_off_c, 6, 78, 127
2, 280559, Note_on_c, 10, 81, 127
2, 280754, Note_off_c, 10, 81, 127
2, 280768, Note_on_c, 2, 74, 127
2, 280963, Note_off_c, 2, 74, 127
2, 280977, Note_on_c, 6, 78, 127
2, 281172, Note_off_c, 6, 78, 127
2, 281186, Note_on_c, 12, 83, 127
2, 281280, Note_off_c, 12, 83, 127
2, 281291, Note_on_c, 10, 81, 127
2, 281385, Note_off_c, 10, 81, 127
2, 281396, Note_on_c, 7, 79, 127
2, 281490, Note_off_c, 7, 79, 127
2, 281501, Note_on_c, 6, 78, 127
2, 281595, Note_off_c, 6, 78, 127
2, 281606, Note_on_c, 7, 79, 127
2, 281801, Note_off_c, 7, 79, 127
2, 281815, Note_on_c, 12, 83, 127
2, 282010, Note_off_c, 12, 83, 127
2, 282024, Note_on_c, 4, 76, 127
2, 282219, Note_off_c, 4, 76, 127
2, 282233, Note_on_c, 7, 79, 127
2, 282428, Note_off_c, 7, 79, 127
2, 282442, Note_on_c, 12, 83, 127
2, 282637, Note_off_c, 12, 83, 127
2, 282651, Note_on_c, 4, 76, 127
2, 282846, Note_off_c, 4, 76, 127
2, 282860, Note_on_c, 7, 79, 127
2, 283055, Note_off_c, 7, 79, 127
2, 283069, Note_on_c, 10, 81, 127
2, 283163, Note_off_c, 10, 81, 127
2, 283174, Note_on_c, 7, 79, 127
2, 283268, Note_off_c, 7, 79, 127
2, 283279, Note_on_c, 6, 78, 127
2, 283373, Note_off_c, 6, 78, 127
2, 283384, Note_on_c, 4, 76, 127
2, 283478, Note_off_c, 4, 76, 127
2, 283489, Note_on_c, 6, 78, 127
2, 283684, Note_off_c, 6, 78, 127
2, 283698, Note_on_c, 10, 81, 127
2, 283893, Note_off_c, 10, 81, 127
2, 283907, Note_on_c, 2, 74, 127
2, 284102, Note_off_c, 2, 74, 127
2, 284116, Note_on_c, 4, 76, 127
2, 284311, Note_off_c, 4, 76, 127
2, 284325, Note_on_c, 7, 79, 127
2, 284520, Note_off_c, 7, 79, 127
2, 284534, Note_on_c, 1, 73, 127
2, 284729, Note_off_c, 1, 73, 127
2, 284743, Note_on_c, 2, 74, 127
2, 284938, Note_off_c, 2, 74, 127
2, 284952, Note_on_c, 6, 78, 127
2, 285147, Note_off_c, 6, 78, 127
2, 285161, Note_on_c, 12, 71, 127
2, 285356, Note_off_c, 12, 71, 127
2, 285370, Note_on_c, 1, 73, 127
2, 285565, Note_off_c, 1, 73, 127
2, 285579, Note_on_c, 4, 76, 127
2, 285774, Note_off_c, 4, 76, 127
2, 285788, Note_on_c, 10, 69, 127
2, 285983, Note_off_c, 10, 69, 127
2, 285997, Note_on_c, 10, 69, 127
2, 286192, Note_off_c, 10, 69, 127
2, 286206, Note_on_c, 10, 69, 127
2, 286300, Note_off_c, 10, 69, 127
2, 286311, Note_on_c, 10, 69, 127
2, 286405, Note_off_c, 10, 69, 127
2, 286416, Note_on_c, 10, 69, 127
2, 286416, Note_on_c, 12, 71, 127
2, 286611, Note_off_c, 12, 71, 127
2, 286611, Note_off_c, 10, 69, 127
2, 286625, Note_on_c, 1, 73, 127
2, 286625, Note_on_c, 10, 69, 127
2, 286820, Note_off_c, 10, 69, 127
2, 286820, Note_off_c, 1, 73, 127
2, 286834, Note_on_c, 10, 69, 127
2, 286834, Note_on_c, 4, 76, 127
2, 287029, Note_off_c, 4, 76, 127
2, 287029, Note_off_c, 10, 69, 127
2, 287043, Note_on_c, 10, 69, 127
2, 287238, Note_off_c, 10, 69, 127
2, 287252, Note_on_c, 10, 81, 127
2, 287252, Note_on_c, 1, 73, 127
2, 287447, Note_off_c, 1, 73, 127
2, 287447, Note_off_c, 10, 81, 127
2, 287461, Note_on_c, 4, 76, 127
2, 287656, Note_off_c, 4, 76, 127
2, 287670, Note_on_c, 10, 69, 127
2, 287865, Note_off_c, 10, 69, 127
2, 287879, Note_on_c, 10, 81, 127
2, 287879, Note_on_c, 1, 73, 127
2, 288074, Note_off_c, 1, 73, 127
2, 288074, Note_off_c, 10, 81, 127
2, 288088, Note_on_c, 4, 76, 127
2, 288283, Note_off_c, 4, 76, 127
2, 288297, Note_on_c, 10, 69, 127
2, 288492, Note_off_c, 10, 69, 127
2, 288506, Note_on_c, 1, 73, 127
2, 288506, Note_on_c, 11, 82, 127
2, 288701, Note_off_c, 11, 82, 127
2, 288701, Note_off_c, 1, 73, 127
2, 288715, Note_on_c, 6, 78, 127
2, 288809, Note_off_c, 6, 78, 127
2, 288820, Note_on_c, 4, 76, 127
2, 288914, Note_off_c, 4, 76, 127
2, 288925, Note_on_c, 2, 74, 127
2, 289019, Note_off_c, 2, 74, 127
2, 289030, Note_on_c, 1, 73, 127
2, 289124, Note_off_c, 1, 73, 127
2, 289135, Note_on_c, 12, 83, 127
2, 289135, Note_on_c, 2, 74, 127
2, 289330, Note_off_c, 2, 74, 127
2, 289330, Note_off_c, 12, 83, 127
2, 289344, Note_on_c, 6, 78, 127
2, 289539, Note_off_c, 6, 78, 127
2, 289553, Note_on_c, 12, 71, 127
2, 289748, Note_off_c, 12, 71, 127
2, 289762, Note_on_c, 2, 74, 127
2, 289762, Note_on_c, 12, 83, 127
2, 289957, Note_off_c, 12, 83, 127
2, 289957, Note_off_c, 2, 74, 127
2, 289971, Note_on_c, 6, 78, 127
2, 290166, Note_off_c, 6, 78, 127
2, 290180, Note_on_c, 12, 71, 127
2, 290375, Note_off_c, 12, 71, 127
2, 290389, Note_on_c, 8, 80, 127
2, 290389, Note_on_c, 2, 74, 127
2, 290584, Note_off_c, 2, 74, 127
2, 290584, Note_off_c, 8, 80, 127
2, 290598, Note_on_c, 4, 76, 127
2, 290692, Note_off_c, 4, 76, 127
2, 290703, Note_on_c, 2, 74, 127
2, 290797, Note_off_c, 2, 74, 127
2, 290808, Note_on_c, 1, 73, 127
2, 290902, Note_off_c, 1, 73, 127
2, 290913, Note_on_c, 12, 71, 127
2, 291007, Note_off_c, 12, 71, 127
2, 291018, Note_on_c, 1, 73, 127
2, 291018, Note_on_c, 10, 81, 127
2, 291213, Note_off_c, 10, 81, 127
2, 291213, Note_off_c, 1, 73, 127
2, 291227, Note_on_c, 4, 76, 127
2, 291422, Note_off_c, 4, 76, 127
2, 291436, Note_on_c, 6, 78, 127
2, 291436, Note_on_c, 10, 69, 127
2, 291631, Note_off_c, 10, 69, 127
2, 291631, Note_off_c, 6, 78, 127
2, 291645, Note_on_c, 12, 71, 127
2, 291645, Note_on_c, 2, 74, 127
2, 291840, Note_off_c, 2, 74, 127
2, 291840, Note_off_c, 12, 71, 127
2, 291854, Note_on_c, 2, 74, 127
2, 292049, Note_off_c, 2, 74, 127
2, 292063, Note_on_c, 8, 68, 127
2, 292063, Note_on_c, 4, 76, 127
2, 292258, Note_off_c, 4, 76, 127
2, 292258, Note_off_c, 8, 68, 127
2, 292272, Note_on_c, 1, 73, 127
2, 292272, Note_on_c, 10, 69, 127
2, 292467, Note_off_c, 10, 69, 127
2, 292467, Note_off_c, 1, 73, 127
2, 292481, Note_on_c, 1, 73, 127
2, 292676, Note_off_c, 1, 73, 127
2, 292690, Note_on_c, 6, 66, 127
2, 292690, Note_on_c, 2, 74, 127
2, 292885, Note_off_c, 2, 74, 127
2, 292885, Note_off_c, 6, 66, 127
2, 292899, Note_on_c, 12, 71, 127
2, 292899, Note_on_c, 7, 67, 127
2, 293094, Note_off_c, 7, 67, 127
2, 293094, Note_off_c, 12, 71, 127
2, 293108, Note_on_c, 12, 71, 127
2, 293303, Note_off_c, 12, 71, 127
2, 293317, Note_on_c, 4, 64, 127
2, 293317, Note_on_c, 1, 73, 127
2, 293512, Note_off_c, 1, 73, 127
2, 293512, Note_off_c, 4, 64, 127
2, 293526, Note_on_c, 10, 69, 127
2, 293526, Note_on_c, 6, 66, 127
2, 293721, Note_off_c, 6, 66, 127
2, 293721, Note_off_c, 10, 69, 127
2, 293735, Note_on_c, 10, 69, 127
2, 293930, Note_off_c, 10, 69, 127
2, 293944, Note_on_c, 2, 62, 127
2, 293944, Note_on_c, 12, 71, 127
2, 294139, Note_off_c, 12, 71, 127
2, 294139, Note_off_c, 2, 62, 127
2, 294153, Note_on_c, 7, 67, 127
2, 294153, Note_on_c, 4, 64, 127
2, 294348, Note_off_c, 4, 64, 127
2, 294348, Note_off_c, 7, 67, 127
2, 294362, Note_on_c, 7, 67, 127
2, 294557, Note_off_c, 7, 67, 127
2, 294571, Note_on_c, 1, 61, 127
2, 294571, Note_on_c, 10, 69, 127
2, 294766, Note_off_c, 10, 69, 127
2, 294766, Note_off_c, 1, 61, 127
2, 294780, Note_on_c, 2, 62, 127
2, 294780, Note_on_c, 6, 66, 127
2, 294975, Note_off_c, 2, 62, 127
2, 294989, Note_on_c, 2, 62, 127
2, 295083, Note_off_c, 2, 62, 127
2, 295094, Note_on_c, 2, 62, 127
2, 295188, Note_off_c, 2, 62, 127
2, 295188, Note_off_c, 6, 66, 127
2, 295199, Note_on_c, 2, 62, 127
2, 295199, Note_on_c, 7, 67, 127
2, 295199, Note_on_c, 4, 64, 127
2, 295394, Note_off_c, 4, 64, 127
2, 295394, Note_off_c, 7, 67, 127
2, 295394, Note_off_c, 2, 62, 127
2, 295408, Note_on_c, 2, 62, 127
2, 295408, Note_on_c, 6, 66, 127
2, 295408, Note_on_c, 10, 69, 127
2, 295603, Note_off_c, 10, 69, 127
2, 295603, Note_off_c, 6, 66, 127
2, 295603, Note_off_c, 2, 62, 127
2, 295617, Note_on_c, 2, 62, 127
2, 295617, Note_on_c, 10, 69, 127
2, 295812, Note_off_c, 10, 69, 127
2, 295812, Note_off_c, 2, 62, 127
2, 295826, Note_on_c, 2, 62, 127
2, 296021, Note_off_c, 2, 62, 127
2, 296035, Note_on_c, 6, 66, 127
2, 296035, Note_on_c, 10, 81, 127
2, 296035, Note_on_c, 2, 74, 127
2, 296230, Note_off_c, 10, 81, 127
2, 296230, Note_off_c, 6, 66, 127
2, 296244, Note_on_c, 10, 69, 127
2, 296244, Note_on_c, 6, 78, 127
2, 296439, Note_off_c, 10, 69, 127
2, 296439, Note_off_c, 2, 74, 127
2, 296453, Note_on_c, 2, 62, 127
2, 296648, Note_off_c, 2, 62, 127
2, 296651, Note_off_c, 6, 78, 127
2, 296662, Note_on_c, 6, 66, 127
2, 296662, Note_on_c, 10, 81, 127
2, 296662, Note_on_c, 2, 74, 127
2, 296857, Note_off_c, 10, 81, 127
2, 296857, Note_off_c, 6, 66, 127
2, 296871, Note_on_c, 10, 69, 127
2, 296871, Note_on_c, 6, 78, 127
2, 297066, Note_off_c, 10, 69, 127
2, 297066, Note_off_c, 2, 74, 127
2, 297080, Note_on_c, 2, 62, 127
2, 297275, Note_off_c, 2, 62, 127
2, 297278, Note_off_c, 6, 78, 127
2, 297289, Note_on_c, 6, 66, 127
2, 297289, Note_on_c, 10, 81, 127
2, 297289, Note_on_c, 3, 75, 127
2, 297484, Note_off_c, 10, 81, 127
2, 297484, Note_off_c, 6, 66, 127
2, 297498, Note_on_c, 12, 71, 127
2, 297498, Note_on_c, 6, 78, 127
2, 297592, Note_off_c, 12, 71, 127
2, 297603, Note_on_c, 10, 69, 127
2, 297694, Note_off_c, 3, 75, 127
2, 297697, Note_off_c, 10, 69, 127
2, 297708, Note_on_c, 7, 67, 127
2, 297802, Note_off_c, 7, 67, 127
2, 297813, Note_on_c, 6, 66, 127
2, 297907, Note_off_c, 6, 66, 127
2, 297907, Note_off_c, 6, 78, 127
2, 297918, Note_on_c, 7, 67, 127
2, 297918, Note_on_c, 4, 76, 127
2, 297918, Note_on_c, 12, 83, 127
2, 298113, Note_off_c, 12, 83, 127
2, 298113, Note_off_c, 7, 67, 127
2, 298127, Note_on_c, 12, 71, 127
2, 298127, Note_on_c, 7, 79, 127
2, 298322, Note_off_c, 12, 71, 127
2, 298322, Note_off_c, 4, 76, 127
2, 298336, Note_on_c, 4, 64, 127
2, 298531, Note_off_c, 4, 64, 127
2, 298534, Note_off_c, 7, 79, 127
2, 298545, Note_on_c, 7, 67, 127
2, 298545, Note_on_c, 12, 83, 127
2, 298545, Note_on_c, 4, 76, 127
2, 298740, Note_off_c, 12, 83, 127
2, 298740, Note_off_c, 7, 67, 127
2, 298754, Note_on_c, 12, 71, 127
2, 298754, Note_on_c, 7, 79, 127
2, 298949, Note_off_c, 12, 71, 127
2, 298949, Note_off_c, 4, 76, 127
2, 298963, Note_on_c, 4, 64, 127
2, 299158, Note_off_c, 4, 64, 127
2, 299161, Note_off_c, 7, 79, 127
2, 299172, Note_on_c, 7, 67, 127
2, 299172, Note_on_c, 1, 73, 127
2, 299172, Note_on_c, 4, 76, 127
2, 299367, Note_off_c, 7, 67, 127
2, 299381, Note_on_c, 10, 69, 127
2, 299467, Note_off_c, 4, 76, 127
2, 299467, Note_off_c, 1, 73, 127
2, 299475, Note_off_c, 10, 69, 127
2, 299486, Note_on_c, 7, 67, 127
2, 299580, Note_off_c, 7, 67, 127
2, 299591, Note_on_c, 6, 66, 127
2, 299685, Note_off_c, 6, 66, 127
2, 299696, Note_on_c, 4, 64, 127
2, 299790, Note_off_c, 4, 64, 127
2, 299801, Note_on_c, 6, 66, 127
2, 299801, Note_on_c, 2, 74, 127
2, 299801, Note_on_c, 10, 81, 127
2, 299996, Note_off_c, 10, 81, 127
2, 299996, Note_off_c, 6, 66, 127
2, 300010, Note_on_c, 10, 69, 127
2, 300010, Note_on_c, 6, 78, 127
2, 300205, Note_off_c, 10, 69, 127
2, 300205, Note_off_c, 2, 74, 127
2, 300219, Note_on_c, 2, 62, 127
2, 300219, Note_on_c, 12, 71, 127
2, 300414, Note_off_c, 12, 71, 127
2, 300414, Note_off_c, 2, 62, 127
2, 300414, Note_off_c, 6, 78, 127
2, 300428, Note_on_c, 4, 64, 127
2, 300428, Note_on_c, 4, 76, 127
2, 300428, Note_on_c, 7, 67, 127
2, 300623, Note_off_c, 4, 64, 127
2, 300625, Note_off_c, 7, 67, 127
2, 300637, Note_on_c, 7, 67, 127
2, 300836, Note_off_c, 4, 76, 127
2, 300847, Note_on_c, 1, 61, 127
2, 300847, Note_on_c, 10, 69, 127
2, 301042, Note_off_c, 10, 69, 127
2, 301042, Note_off_c, 1, 61, 127
2, 301042, Note_off_c, 7, 67, 127
2, 301056, Note_on_c, 2, 62, 127
2, 301056, Note_on_c, 10, 69, 127
2, 301056, Note_on_c, 6, 66, 127
2, 301251, Note_off_c, 2, 62, 127
2, 301253, Note_off_c, 6, 66, 127
2, 301265, Note_on_c, 6, 66, 127
2, 301460, Note_off_c, 6, 66, 127
2, 301463, Note_off_c, 10, 69, 127
2, 301474, Note_on_c, 4, 64, 127
2, 301474, Note_on_c, 8, 68, 127
2, 301474, Note_on_c, 12, 71, 127
2, 301669, Note_off_c, 8, 68, 127
2, 301669, Note_off_c, 4, 64, 127
2, 301683, Note_on_c, 1, 61, 127
2, 301683, Note_on_c, 4, 64, 127
2, 301878, Note_off_c, 1, 61, 127
2, 301880, Note_off_c, 4, 64, 127
2, 301892, Note_on_c, 4, 64, 127
2, 302087, Note_off_c, 4, 64, 127
2, 302090, Note_off_c, 12, 71, 127
2, 302101, Note_on_c, 10, 57, 127
2, 302101, Note_on_c, 10, 69, 127
2, 302101, Note_on_c, 6, 66, 127
2, 302296, Note_off_c, 6, 66, 127
2, 302296, Note_off_c, 10, 57, 127
2, 302310, Note_on_c, 12, 59, 127
2, 302310, Note_on_c, 2, 62, 127
2, 302519, Note_on_c, 8, 68, 127
2, 302718, Note_off_c, 12, 59, 127
2, 302718, Note_off_c, 10, 69, 127
2, 302729, Note_on_c, 4, 52, 127
2, 302824, Note_off_c, 2, 62, 127
2, 302924, Note_off_c, 4, 52, 127
2, 302927, Note_off_c, 8, 68, 127
2, 302938, Note_on_c, 10, 57, 127
2, 302938, Note_on_c, 1, 61, 127
2, 302938, Note_on_c, 10, 69, 127
2, 303133, Note_off_c, 10, 69, 127
2, 303133, Note_off_c, 1, 61, 127
2, 303147, Note_on_c, 12, 71, 127
2, 303147, Note_on_c, 2, 62, 127
2, 303342, Note_off_c, 2, 62, 127
2, 303342, Note_off_c, 12, 71, 127
2, 303345, Note_off_c, 10, 57, 127
2, 303356, Note_on_c, 10, 57, 127
2, 303356, Note_on_c, 4, 64, 127
2, 303356, Note_on_c, 1, 73, 127
2, 303551, Note_off_c, 1, 73, 127
2, 303551, Note_off_c, 4, 64, 127
2, 303551, Note_off_c, 10, 57, 127
2, 303565, Note_on_c, 6, 54, 127
2, 303565, Note_on_c, 2, 74, 127
2, 303565, Note_on_c, 6, 66, 127
2, 303760, Note_off_c, 6, 66, 127
2, 303774, Note_on_c, 10, 69, 127
2, 303969, Note_off_c, 10, 69, 127
2, 303969, Note_off_c, 2, 74, 127
2, 303972, Note_off_c, 6, 54, 127
2, 303983, Note_on_c, 10, 57, 127
2, 303983, Note_on_c, 4, 64, 127
2, 303983, Note_on_c, 1, 73, 127
2, 304178, Note_off_c, 1, 73, 127
2, 304178, Note_off_c, 4, 64, 127
2, 304178, Note_off_c, 10, 57, 127
2, 304192, Note_on_c, 2, 50, 127
2, 304192, Note_on_c, 2, 74, 127
2, 304192, Note_on_c, 6, 66, 127
2, 304387, Note_off_c, 6, 66, 127
2, 304401, Note_on_c, 10, 69, 127
2, 304596, Note_off_c, 10, 69, 127
2, 304596, Note_off_c, 2, 74, 127
2, 304599, Note_off_c, 2, 50, 127
2, 304610, Note_on_c, 10, 57, 127
2, 304610, Note_on_c, 4, 64, 127
2, 304610, Note_on_c, 1, 73, 127
2, 304805, Note_off_c, 1, 73, 127
2, 304805, Note_off_c, 4, 64, 127
2, 304805, Note_off_c, 10, 57, 127
2, 304819, Note_on_c, 6, 54, 127
2, 304819, Note_on_c, 2, 74, 127
2, 304819, Note_on_c, 6, 66, 127
2, 305014, Note_off_c, 6, 66, 127
2, 305028, Note_on_c, 10, 69, 127
2, 305223, Note_off_c, 10, 69, 127
2, 305223, Note_off_c, 2, 74, 127
2, 305226, Note_off_c, 6, 54, 127
2, 305237, Note_on_c, 10, 57, 127
2, 305237, Note_on_c, 1, 73, 127
2, 305237, Note_on_c, 4, 64, 127
2, 305432, Note_off_c, 4, 64, 127
2, 305432, Note_off_c, 1, 73, 127
2, 305432, Note_off_c, 10, 57, 127
2, 305446, Note_on_c, 2, 50, 127
2, 305446, Note_on_c, 2, 74, 127
2, 305446, Note_on_c, 6, 66, 127
2, 305641, Note_off_c, 6, 66, 127
2, 305641, Note_off_c, 2, 50, 127
2, 305655, Note_on_c, 4, 52, 127
2, 305655, Note_on_c, 7, 67, 127
2, 305850, Note_off_c, 7, 67, 127
2, 305850, Note_off_c, 4, 52, 127
2, 305850, Note_off_c, 2, 74, 127
2, 305864, Note_on_c, 6, 54, 127
2, 305864, Note_on_c, 1, 73, 127
2, 305864, Note_on_c, 10, 69, 127
2, 306059, Note_off_c, 10, 69, 127
2, 306059, Note_off_c, 1, 73, 127
2, 306059, Note_off_c, 6, 54, 127
2, 306073, Note_on_c, 7, 55, 127
2, 306073, Note_on_c, 7, 67, 127
2, 306073, Note_on_c, 12, 71, 127
2, 306268, Note_off_c, 7, 55, 127
2, 306282, Note_on_c, 12, 59, 127
2, 306477, Note_off_c, 12, 59, 127
2, 306480, Note_off_c, 12, 71, 127
2, 306480, Note_off_c, 7, 67, 127
2, 306491, Note_on_c, 2, 50, 127
2, 306491, Note_on_c, 6, 66, 127
2, 306491, Note_on_c, 2, 74, 127
2, 306686, Note_off_c, 2, 74, 127
2, 306686, Note_off_c, 6, 66, 127
2, 306686, Note_off_c, 2, 50, 127
2, 306700, Note_on_c, 7, 55, 127
2, 306700, Note_on_c, 12, 71, 127
2, 306700, Note_on_c, 7, 67, 127
2, 306895, Note_off_c, 7, 55, 127
2, 306909, Note_on_c, 12, 59, 127
2, 307104, Note_off_c, 12, 59, 127
2, 307107, Note_off_c, 7, 67, 127
2, 307107, Note_off_c, 12, 71, 127
2, 307118, Note_on_c, 4, 52, 127
2, 307118, Note_on_c, 4, 76, 127
2, 307118, Note_on_c, 8, 68, 127
2, 307313, Note_off_c, 8, 68, 127
2, 307313, Note_off_c, 4, 76, 127
2, 307313, Note_off_c, 4, 52, 127
2, 307327, Note_on_c, 10, 57, 127
2, 307327, Note_on_c, 1, 73, 127
2, 307327, Note_on_c, 10, 69, 127
2, 307522, Note_off_c, 10, 57, 127
2, 307536, Note_on_c, 1, 61, 127
2, 307731, Note_off_c, 1, 61, 127
2, 307734, Note_off_c, 10, 69, 127
2, 307734, Note_off_c, 1, 73, 127
2, 307745, Note_on_c, 4, 52, 127
2, 307745, Note_on_c, 8, 68, 127
2, 307745, Note_on_c, 4, 76, 127
2, 307940, Note_off_c, 4, 76, 127
2, 307940, Note_off_c, 8, 68, 127
2, 307940, Note_off_c, 4, 52, 127
2, 307954, Note_on_c, 10, 57, 127
2, 307954, Note_on_c, 1, 73, 127
2, 307954, Note_on_c, 10, 69, 127
2, 308149, Note_off_c, 1, 73, 127
2, 308149, Note_off_c, 10, 57, 127
2, 308163, Note_on_c, 12, 59, 127
2, 308163, Note_on_c, 2, 74, 127
2, 308358, Note_off_c, 2, 74, 127
2, 308358, Note_off_c, 12, 59, 127
2, 308358, Note_off_c, 10, 69, 127
2, 308372, Note_on_c, 1, 61, 127
2, 308372, Note_on_c, 10, 69, 127
2, 308372, Note_on_c, 4, 76, 127
2, 308567, Note_off_c, 4, 76, 127
2, 308567, Note_off_c, 10, 69, 127
2, 308567, Note_off_c, 1, 61, 127
2, 308581, Note_on_c, 2, 62, 127
2, 308581, Note_on_c, 2, 74, 127
2, 308581, Note_on_c, 6, 66, 127
2, 308776, Note_off_c, 6, 66, 127
2, 308776, Note_off_c, 2, 74, 127
2, 308790, Note_on_c, 10, 81, 127
2, 308985, Note_off_c, 10, 81, 127
2, 308988, Note_off_c, 2, 62, 127
2, 308999, Note_on_c, 10, 57, 127
2, 308999, Note_on_c, 10, 69, 127
2, 308999, Note_on_c, 4, 64, 127
2, 308999, Note_on_c, 1, 73, 127
2, 309194, Note_off_c, 1, 73, 127
2, 309194, Note_off_c, 4, 64, 127
2, 309194, Note_off_c, 10, 69, 127
2, 309194, Note_off_c, 10, 57, 127
2, 309208, Note_on_c, 12, 59, 127
2, 309208, Note_on_c, 6, 66, 127
2, 309208, Note_on_c, 2, 74, 127
2, 309403, Note_off_c, 2, 74, 127
2, 309417, Note_on_c, 6, 78, 127
2, 309612, Note_off_c, 6, 78, 127
2, 309612, Note_off_c, 6, 66, 127
2, 309615, Note_off_c, 12, 59, 127
2, 309626, Note_on_c, 10, 57, 127
2, 309626, Note_on_c, 1, 73, 127
2, 309626, Note_on_c, 10, 69, 127
2, 309821, Note_off_c, 10, 69, 127
2, 309821, Note_off_c, 1, 73, 127
2, 309821, Note_off_c, 10, 57, 127
2, 309835, Note_on_c, 2, 62, 127
2, 309835, Note_on_c, 6, 66, 127
2, 309835, Note_on_c, 2, 74, 127
2, 310030, Note_off_c, 2, 74, 127
2, 310030, Note_off_c, 6, 66, 127
2, 310044, Note_on_c, 10, 81, 127
2, 310239, Note_off_c, 10, 81, 127
2, 310242, Note_off_c, 2, 62, 127
2, 310253, Note_on_c, 10, 57, 127
2, 310253, Note_on_c, 4, 64, 127
2, 310253, Note_on_c, 1, 73, 127
2, 310253, Note_on_c, 10, 69, 127
2, 310448, Note_off_c, 10, 69, 127
2, 310448, Note_off_c, 1, 73, 127
2, 310448, Note_off_c, 4, 64, 127
2, 310448, Note_off_c, 10, 57, 127
2, 310462, Note_on_c, 12, 59, 127
2, 310462, Note_on_c, 2, 74, 127
2, 310462, Note_on_c, 6, 66, 127
2, 310657, Note_off_c, 2, 74, 127
2, 310671, Note_on_c, 6, 78, 127
2, 310866, Note_off_c, 6, 78, 127
2, 310866, Note_off_c, 6, 66, 127
2, 310869, Note_off_c, 12, 59, 127
2, 310880, Note_on_c, 10, 57, 127
2, 310880, Note_on_c, 10, 69, 127
2, 310880, Note_on_c, 1, 73, 127
2, 311075, Note_off_c, 1, 73, 127
2, 311075, Note_off_c, 10, 69, 127
2, 311075, Note_off_c, 10, 57, 127
2, 311089, Note_on_c, 2, 50, 127
2, 311089, Note_on_c, 2, 62, 127
2, 311089, Note_on_c, 2, 74, 127
2, 311089, Note_on_c, 6, 66, 127
2, 311284, Note_off_c, 2, 50, 127
2, 311298, Note_on_c, 2, 50, 127
2, 311392, Note_off_c, 2, 50, 127
2, 311403, Note_on_c, 2, 50, 127
2, 311494, Note_off_c, 2, 62, 127
2, 311497, Note_off_c, 2, 50, 127
2, 311508, Note_on_c, 2, 50, 127
2, 311508, Note_on_c, 10, 57, 127
2, 311703, Note_off_c, 10, 57, 127
2, 311703, Note_off_c, 2, 50, 127
2, 311706, Note_off_c, 6, 66, 127
2, 311706, Note_off_c, 2, 74, 127
2, 311717, Note_on_c, 2, 50, 127
2, 311717, Note_on_c, 6, 54, 127
2, 311912, Note_off_c, 2, 50, 127
2, 311926, Note_on_c, 2, 50, 127
2, 312121, Note_off_c, 2, 50, 127
2, 312121, Note_off_c, 6, 54, 127
2, 312135, Note_on_c, 2, 62, 127
2, 312135, Note_on_c, 2, 50, 127
2, 312330, Note_off_c, 2, 50, 127
2, 312330, Note_off_c, 2, 62, 127
2, 312344, Note_on_c, 6, 54, 127
2, 312344, Note_on_c, 2, 62, 127
2, 312344, Note_on_c, 10, 69, 127
2, 312539, Note_off_c, 10, 69, 127
2, 312539, Note_off_c, 6, 54, 127
2, 312553, Note_on_c, 10, 57, 127
2, 312553, Note_on_c, 6, 66, 127
2, 312748, Note_off_c, 10, 57, 127
2, 312748, Note_off_c, 2, 62, 127
2, 312762, Note_on_c, 2, 50, 127
2, 312957, Note_off_c, 2, 50, 127
2, 312960, Note_off_c, 6, 66, 127
2, 312971, Note_on_c, 6, 54, 127
2, 312971, Note_on_c, 2, 62, 127
2, 312971, Note_on_c, 10, 69, 127
2, 313166, Note_off_c, 10, 69, 127
2, 313166, Note_off_c, 6, 54, 127
2, 313180, Note_on_c, 10, 57, 127
2, 313180, Note_on_c, 6, 66, 127
2, 313375, Note_off_c, 10, 57, 127
2, 313375, Note_off_c, 2, 62, 127
2, 313389, Note_on_c, 2, 50, 127
2, 313584, Note_off_c, 2, 50, 127
2, 313587, Note_off_c, 6, 66, 127
2, 313598, Note_on_c, 6, 54, 127
2, 313598, Note_on_c, 3, 63, 127
2, 313598, Note_on_c, 10, 69, 127
2, 313793, Note_off_c, 10, 69, 127
2, 313793, Note_off_c, 6, 54, 127
2, 313807, Note_on_c, 12, 59, 127
2, 313807, Note_on_c, 6, 66, 127
2, 313901, Note_off_c, 12, 59, 127
2, 313912, Note_on_c, 10, 57, 127
2, 314003, Note_off_c, 3, 63, 127
2, 314006, Note_off_c, 10, 57, 127
2, 314017, Note_on_c, 7, 55, 127
2, 314111, Note_off_c, 7, 55, 127
2, 314122, Note_on_c, 6, 54, 127
2, 314216, Note_off_c, 6, 54, 127
2, 314216, Note_off_c, 6, 66, 127
2, 314227, Note_on_c, 7, 55, 127
2, 314227, Note_on_c, 12, 71, 127
2, 314227, Note_on_c, 4, 64, 127
2, 314422, Note_off_c, 12, 71, 127
2, 314422, Note_off_c, 7, 55, 127
2, 314436, Note_on_c, 12, 59, 127
2, 314436, Note_on_c, 7, 67, 127
2, 314631, Note_off_c, 12, 59, 127
2, 314631, Note_off_c, 4, 64, 127
2, 314645, Note_on_c, 4, 52, 127
2, 314840, Note_off_c, 4, 52, 127
2, 314843, Note_off_c, 7, 67, 127
2, 314854, Note_on_c, 7, 55, 127
2, 314854, Note_on_c, 4, 64, 127
2, 314854, Note_on_c, 12, 71, 127
2, 315049, Note_off_c, 12, 71, 127
2, 315049, Note_off_c, 7, 55, 127
2, 315063, Note_on_c, 12, 59, 127
2, 315063, Note_on_c, 7, 67, 127
2, 315258, Note_off_c, 12, 59, 127
2, 315258, Note_off_c, 4, 64, 127
2, 315272, Note_on_c, 4, 52, 127
2, 315467, Note_off_c, 4, 52, 127
2, 315470, Note_off_c, 7, 67, 127
2, 315481, Note_on_c, 7, 55, 127
2, 315481, Note_on_c, 4, 64, 127
2, 315481, Note_on_c, 1, 61, 127
2, 315676, Note_off_c, 7, 55, 127
2, 315690, Note_on_c, 10, 57, 127
2, 315776, Note_off_c, 1, 61, 127
2, 315776, Note_off_c, 4, 64, 127
2, 315784, Note_off_c, 10, 57, 127
2, 315795, Note_on_c, 7, 55, 127
2, 315889, Note_off_c, 7, 55, 127
2, 315900, Note_on_c, 6, 54, 127
2, 315994, Note_off_c, 6, 54, 127
2, 316005, Note_on_c, 4, 52, 127
2, 316099, Note_off_c, 4, 52, 127
2, 316110, Note_on_c, 6, 54, 127
2, 316110, Note_on_c, 2, 62, 127
2, 316110, Note_on_c, 10, 69, 127
2, 316305, Note_off_c, 10, 69, 127
2, 316305, Note_off_c, 6, 54, 127
2, 316319, Note_on_c, 10, 57, 127
2, 316319, Note_on_c, 6, 66, 127
2, 316514, Note_off_c, 10, 57, 127
2, 316514, Note_off_c, 2, 62, 127
2, 316528, Note_on_c, 2, 50, 127
2, 316723, Note_off_c, 2, 50, 127
2, 316726, Note_off_c, 6, 66, 127
2, 316737, Note_on_c, 4, 52, 127
2, 316737, Note_on_c, 7, 67, 127
2, 316737, Note_on_c, 1, 61, 127
2, 316932, Note_off_c, 7, 67, 127
2, 316932, Note_off_c, 4, 52, 127
2, 316946, Note_on_c, 7, 55, 127
2, 316946, Note_on_c, 4, 64, 127
2, 317141, Note_off_c, 7, 55, 127
2, 317141, Note_off_c, 1, 61, 127
2, 317155, Note_on_c, 1, 49, 127
2, 317350, Note_off_c, 1, 49, 127
2, 317353, Note_off_c, 4, 64, 127
2, 317364, Note_on_c, 2, 50, 127
2, 317364, Note_on_c, 6, 66, 127
2, 317364, Note_on_c, 12, 59, 127
2, 317559, Note_off_c, 6, 66, 127
2, 317559, Note_off_c, 2, 50, 127
2, 317573, Note_on_c, 6, 54, 127
2, 317573, Note_on_c, 2, 62, 127
2, 317768, Note_off_c, 6, 54, 127
2, 317768, Note_off_c, 12, 59, 127
2, 317782, Note_on_c, 12, 47, 127
2, 317977, Note_off_c, 12, 47, 127
2, 317980, Note_off_c, 2, 62, 127
2, 317991, Note_on_c, 1, 49, 127
2, 317991, Note_on_c, 10, 57, 127
2, 317991, Note_on_c, 4, 64, 127
2, 318186, Note_off_c, 10, 57, 127
2, 318186, Note_off_c, 1, 49, 127
2, 318200, Note_on_c, 8, 56, 127
2, 318200, Note_on_c, 4, 52, 127
2, 318395, Note_off_c, 4, 52, 127
2, 318395, Note_off_c, 8, 56, 127
2, 318398, Note_off_c, 4, 64, 127
2, 318409, Note_on_c, 8, 44, 127
2, 318409, Note_on_c, 12, 59, 127
2, 318409, Note_on_c, 4, 64, 127
2, 318604, Note_off_c, 4, 64, 127
2, 318604, Note_off_c, 12, 59, 127
2, 318604, Note_off_c, 8, 44, 127
2, 318618, Note_on_c, 10, 57, 127
2, 318618, Note_on_c, 10, 45, 127
2, 318618, Note_on_c, 1, 61, 127
2, 318813, Note_off_c, 1, 61, 127
2, 318813, Note_off_c, 10, 45, 127
2, 318827, Note_on_c, 12, 47, 127
2, 318827, Note_on_c, 2, 62, 127
2, 319022, Note_off_c, 2, 62, 127
2, 319022, Note_off_c, 12, 47, 127
2, 319022, Note_off_c, 10, 57, 127
2, 319036, Note_on_c, 1, 49, 127
2, 319036, Note_on_c, 10, 57, 127
2, 319036, Note_on_c, 4, 64, 127
2, 319231, Note_off_c, 4, 64, 127
2, 319231, Note_off_c, 10, 57, 127
2, 319231, Note_off_c, 1, 49, 127
2, 319245, Note_on_c, 10, 57, 127
2, 319245, Note_on_c, 2, 50, 127
2, 319245, Note_on_c, 6, 66, 127
2, 319440, Note_off_c, 6, 66, 127
2, 319440, Note_off_c, 2, 50, 127
2, 319440, Note_off_c, 10, 57, 127
2, 319454, Note_on_c, 4, 52, 127
2, 319454, Note_on_c, 7, 67, 127
2, 319649, Note_off_c, 7, 67, 127
2, 319649, Note_off_c, 4, 52, 127
2, 319663, Note_on_c, 2, 62, 127
2, 319663, Note_on_c, 6, 54, 127
2, 319663, Note_on_c, 10, 69, 127
2, 319858, Note_off_c, 10, 69, 127
2, 319858, Note_off_c, 6, 54, 127
2, 319858, Note_off_c, 2, 62, 127
2, 319872, Note_on_c, 12, 59, 127
2, 319872, Note_on_c, 7, 55, 127
2, 319872, Note_on_c, 2, 62, 127
2, 320067, Note_off_c, 2, 62, 127
2, 320081, Note_on_c, 4, 64, 127
2, 320276, Note_off_c, 4, 64, 127
2, 320279, Note_off_c, 7, 55, 127
2, 320279, Note_off_c, 12, 59, 127
2, 320290, Note_on_c, 6, 54, 127
2, 320290, Note_on_c, 10, 57, 127
2, 320290, Note_on_c, 6, 66, 127
2, 320485, Note_off_c, 6, 66, 127
2, 320485, Note_off_c, 10, 57, 127
2, 320485, Note_off_c, 6, 54, 127
2, 320499, Note_on_c, 7, 55, 127
2, 320499, Note_on_c, 4, 52, 127
2, 320499, Note_on_c, 7, 67, 127
2, 320694, Note_off_c, 7, 67, 127
2, 320708, Note_on_c, 10, 69, 127
2, 320903, Note_off_c, 10, 69, 127
2, 320906, Note_off_c, 4, 52, 127
2, 320906, Note_off_c, 7, 55, 127
2, 320917, Note_on_c, 6, 54, 127
2, 320917, Note_on_c, 2, 50, 127
2, 320917, Note_on_c, 12, 71, 127
2, 321112, Note_off_c, 12, 71, 127
2, 321112, Note_off_c, 2, 50, 127
2, 321112, Note_off_c, 6, 54, 127
2, 321126, Note_on_c, 4, 52, 127
2, 321126, Note_on_c, 1, 49, 127
2, 321126, Note_on_c, 10, 69, 127
2, 321321, Note_off_c, 10, 69, 127
2, 321335, Note_on_c, 1, 73, 127
2, 321530, Note_off_c, 1, 73, 127
2, 321533, Note_off_c, 4, 52, 127
2, 321544, Note_on_c, 10, 57, 127
2, 321544, Note_on_c, 4, 64, 127
2, 321739, Note_off_c, 4, 64, 127
2, 321739, Note_off_c, 10, 57, 127
2, 321742, Note_off_c, 1, 49, 127
2, 321753, Note_on_c, 6, 54, 127
2, 321753, Note_on_c, 2, 50, 127
2, 321753, Note_on_c, 6, 66, 127
2, 321948, Note_off_c, 6, 66, 127
2, 321962, Note_on_c, 10, 69, 127
2, 322157, Note_off_c, 10, 69, 127
2, 322160, Note_off_c, 6, 54, 127
2, 322171, Note_on_c, 6, 54, 127
2, 322171, Note_on_c, 2, 62, 127
2, 322366, Note_off_c, 2, 62, 127
2, 322366, Note_off_c, 6, 54, 127
2, 322369, Note_off_c, 2, 50, 127
2, 322380, Note_on_c, 7, 43, 127
2, 322380, Note_on_c, 7, 55, 127
2, 322380, Note_on_c, 12, 59, 127
2, 322577, Note_off_c, 12, 59, 127
2, 322589, Note_on_c, 12, 59, 127
2, 322784, Note_off_c, 12, 59, 127
2, 322784, Note_off_c, 7, 55, 127
2, 322784, Note_off_c, 7, 43, 127
2, 322798, Note_on_c, 10, 45, 127
2, 322798, Note_on_c, 4, 52, 127
2, 322798, Note_on_c, 1, 61, 127
2, 322993, Note_off_c, 1, 61, 127
2, 322993, Note_off_c, 4, 52, 127
2, 322993, Note_off_c, 10, 45, 127
2, 323007, Note_on_c, 2, 50, 127
2, 323007, Note_on_c, 6, 54, 127
2, 323007, Note_on_c, 2, 62, 127
2, 323202, Note_off_c, 6, 54, 127
2, 323202, Note_off_c, 2, 50, 127
2, 323216, Note_on_c, 6, 54, 127
2, 323411, Note_off_c, 6, 54, 127
2, 323414, Note_off_c, 2, 62, 127
2, 323425, Note_on_c, 8, 56, 127
2, 323425, Note_on_c, 12, 47, 127
2, 323425, Note_on_c, 2, 62, 127
2, 323620, Note_off_c, 2, 62, 127
2, 323620, Note_off_c, 12, 47, 127
2, 323620, Note_off_c, 8, 56, 127
2, 323634, Note_on_c, 10, 45, 127
2, 323634, Note_on_c, 10, 57, 127
2, 323634, Note_on_c, 1, 61, 127
2, 323634, Note_on_c, 10, 69, 127
2, 323829, Note_off_c, 10, 69, 127
2, 323843, Note_on_c, 10, 69, 127
2, 323937, Note_off_c, 10, 69, 127
2, 323948, Note_on_c, 10, 69, 127
2, 324039, Note_off_c, 1, 61, 127
2, 324042, Note_off_c, 10, 69, 127
2, 324042, Note_off_c, 10, 57, 127
2, 324042, Note_off_c, 10, 45, 127
2, 324053, Note_on_c, 12, 47, 127
2, 324053, Note_on_c, 10, 69, 127
2, 324248, Note_off_c, 10, 69, 127
2, 324248, Note_off_c, 12, 47, 127
2, 324262, Note_on_c, 1, 49, 127
2, 324262, Note_on_c, 4, 64, 127
2, 324262, Note_on_c, 10, 69, 127
2, 324457, Note_off_c, 10, 69, 127
2, 324457, Note_off_c, 1, 49, 127
2, 324471, Note_on_c, 4, 52, 127
2, 324471, Note_on_c, 10, 69, 127
2, 324666, Note_off_c, 10, 69, 127
2, 324666, Note_off_c, 4, 52, 127
2, 324666, Note_off_c, 4, 64, 127
2, 324680, Note_on_c, 10, 45, 127
2, 324680, Note_on_c, 10, 69, 127
2, 324875, Note_off_c, 10, 69, 127
2, 324875, Note_off_c, 10, 45, 127
2, 324889, Note_on_c, 4, 64, 127
2, 324889, Note_on_c, 10, 57, 127
2, 324889, Note_on_c, 1, 73, 127
2, 325084, Note_off_c, 1, 73, 127
2, 325084, Note_off_c, 4, 64, 127
2, 325098, Note_on_c, 1, 61, 127
2, 325098, Note_on_c, 4, 76, 127
2, 325293, Note_off_c, 4, 76, 127
2, 325293, Note_off_c, 10, 57, 127
2, 325307, Note_on_c, 10, 69, 127
2, 325502, Note_off_c, 10, 69, 127
2, 325505, Note_off_c, 1, 61, 127
2, 325516, Note_on_c, 4, 64, 127
2, 325516, Note_on_c, 10, 57, 127
2, 325516, Note_on_c, 1, 73, 127
2, 325711, Note_off_c, 1, 73, 127
2, 325711, Note_off_c, 4, 64, 127
2, 325725, Note_on_c, 1, 61, 127
2, 325725, Note_on_c, 4, 76, 127
2, 325920, Note_off_c, 4, 76, 127
2, 325920, Note_off_c, 10, 57, 127
2, 325934, Note_on_c, 10, 69, 127
2, 326129, Note_off_c, 10, 69, 127
2, 326132, Note_off_c, 1, 61, 127
2, 326143, Note_on_c, 11, 58, 127
2, 326143, Note_on_c, 4, 64, 127
2, 326143, Note_on_c, 1, 73, 127
2, 326338, Note_off_c, 1, 73, 127
2, 326338, Note_off_c, 4, 64, 127
2, 326352, Note_on_c, 1, 61, 127
2, 326352, Note_on_c, 6, 78, 127
2, 326446, Note_off_c, 6, 78, 127
2, 326457, Note_on_c, 4, 76, 127
2, 326548, Note_off_c, 11, 58, 127
2, 326551, Note_off_c, 4, 76, 127
2, 326562, Note_on_c, 2, 74, 127
2, 326656, Note_off_c, 2, 74, 127
2, 326667, Note_on_c, 1, 73, 127
2, 326761, Note_off_c, 1, 73, 127
2, 326761, Note_off_c, 1, 61, 127
2, 326772, Note_on_c, 6, 66, 127
2, 326772, Note_on_c, 12, 59, 127
2, 326772, Note_on_c, 2, 74, 127
2, 326967, Note_off_c, 2, 74, 127
2, 326967, Note_off_c, 6, 66, 127
2, 326981, Note_on_c, 2, 62, 127
2, 326981, Note_on_c, 6, 78, 127
2, 327176, Note_off_c, 6, 78, 127
2, 327176, Note_off_c, 12, 59, 127
2, 327190, Note_on_c, 12, 71, 127
2, 327385, Note_off_c, 12, 71, 127
2, 327388, Note_off_c, 2, 62, 127
2, 327399, Note_on_c, 12, 59, 127
2, 327399, Note_on_c, 6, 66, 127
2, 327399, Note_on_c, 2, 74, 127
2, 327594, Note_off_c, 2, 74, 127
2, 327594, Note_off_c, 6, 66, 127
2, 327608, Note_on_c, 2, 62, 127
2, 327608, Note_on_c, 6, 78, 127
2, 327803, Note_off_c, 6, 78, 127
2, 327803, Note_off_c, 12, 59, 127
2, 327817, Note_on_c, 12, 71, 127
2, 328012, Note_off_c, 12, 71, 127
2, 328015, Note_off_c, 2, 62, 127
2, 328026, Note_on_c, 12, 59, 127
2, 328026, Note_on_c, 8, 56, 127
2, 328026, Note_on_c, 2, 74, 127
2, 328221, Note_off_c, 2, 74, 127
2, 328235, Note_on_c, 4, 76, 127
2, 328321, Note_off_c, 8, 56, 127
2, 328321, Note_off_c, 12, 59, 127
2, 328329, Note_off_c, 4, 76, 127
2, 328340, Note_on_c, 2, 74, 127
2, 328434, Note_off_c, 2, 74, 127
2, 328445, Note_on_c, 1, 73, 127
2, 328539, Note_off_c, 1, 73, 127
2, 328550, Note_on_c, 12, 71, 127
2, 328644, Note_off_c, 12, 71, 127
2, 328655, Note_on_c, 4, 64, 127
2, 328655, Note_on_c, 10, 57, 127
2, 328655, Note_on_c, 1, 73, 127
2, 328850, Note_off_c, 1, 73, 127
2, 328850, Note_off_c, 4, 64, 127
2, 328864, Note_on_c, 1, 61, 127
2, 328864, Note_on_c, 4, 76, 127
2, 329059, Note_off_c, 4, 76, 127
2, 329059, Note_off_c, 10, 57, 127
2, 329073, Note_on_c, 10, 69, 127
2, 329268, Note_off_c, 10, 69, 127
2, 329271, Note_off_c, 1, 61, 127
2, 329282, Note_on_c, 2, 50, 127
2, 329282, Note_on_c, 2, 62, 127
2, 329282, Note_on_c, 12, 71, 127
2, 329477, Note_off_c, 12, 71, 127
2, 329477, Note_off_c, 2, 62, 127
2, 329491, Note_on_c, 12, 59, 127
2, 329491, Note_on_c, 2, 74, 127
2, 329686, Note_off_c, 2, 74, 127
2, 329686, Note_off_c, 2, 50, 127
2, 329700, Note_on_c, 4, 52, 127
2, 329700, Note_on_c, 8, 68, 127
2, 329895, Note_off_c, 8, 68, 127
2, 329895, Note_off_c, 4, 52, 127
2, 329895, Note_off_c, 12, 59, 127
2, 329909, Note_on_c, 1, 49, 127
2, 329909, Note_on_c, 1, 61, 127
2, 329909, Note_on_c, 10, 69, 127
2, 330104, Note_off_c, 10, 69, 127
2, 330104, Note_off_c, 1, 61, 127
2, 330118, Note_on_c, 10, 57, 127
2, 330118, Note_on_c, 1, 73, 127
2, 330313, Note_off_c, 1, 73, 127
2, 330313, Note_off_c, 1, 49, 127
2, 330327, Note_on_c, 2, 50, 127
2, 330327, Note_on_c, 6, 66, 127
2, 330522, Note_off_c, 6, 66, 127
2, 330522, Note_off_c, 2, 50, 127
2, 330522, Note_off_c, 10, 57, 127
2, 330536, Note_on_c, 12, 47, 127
2, 330536, Note_on_c, 12, 59, 127
2, 330536, Note_on_c, 8, 68, 127
2, 330731, Note_off_c, 8, 68, 127
2, 330731, Note_off_c, 12, 59, 127
2, 330745, Note_on_c, 8, 56, 127
2, 330745, Note_on_c, 12, 71, 127
2, 330940, Note_off_c, 12, 71, 127
2, 330940, Note_off_c, 12, 47, 127
2, 330954, Note_on_c, 1, 49, 127
2, 330954, Note_on_c, 5, 65, 127
2, 331149, Note_off_c, 5, 65, 127
2, 331149, Note_off_c, 1, 49, 127
2, 331149, Note_off_c, 8, 56, 127
2, 331163, Note_on_c, 6, 54, 127
2, 331163, Note_on_c, 10, 57, 127
2, 331163, Note_on_c, 6, 66, 127
2, 331363, Note_off_c, 6, 66, 127
2, 331373, Note_on_c, 1, 73, 127
2, 331573, Note_off_c, 1, 73, 127
2, 331576, Note_off_c, 10, 57, 127
2, 331576, Note_off_c, 6, 54, 127
2, 331583, Note_on_c, 1, 61, 127
2, 331583, Note_on_c, 10, 69, 127
2, 331783, Note_off_c, 10, 69, 127
2, 331783, Note_off_c, 1, 61, 127
2, 331793, Note_on_c, 10, 57, 127
2, 331793, Note_on_c, 6, 54, 127
2, 331793, Note_on_c, 6, 66, 127
2, 331993, Note_off_c, 6, 66, 127
2, 332003, Note_on_c, 2, 74, 127
2, 332203, Note_off_c, 2, 74, 127
2, 332206, Note_off_c, 6, 54, 127
2, 332206, Note_off_c, 10, 57, 127
2, 332213, Note_on_c, 2, 62, 127
2, 332213, Note_on_c, 10, 69, 127
2, 332413, Note_off_c, 10, 69, 127
2, 332413, Note_off_c, 2, 62, 127
2, 332423, Note_on_c, 8, 56, 127
2, 332423, Note_on_c, 12, 59, 127
2, 332423, Note_on_c, 12, 71, 127
2, 332623, Note_off_c, 12, 71, 127
2, 332633, Note_on_c, 2, 74, 127
2, 332833, Note_off_c, 2, 74, 127
2, 332836, Note_off_c, 12, 59, 127
2, 332836, Note_off_c, 8, 56, 127
2, 332843, Note_on_c, 4, 64, 127
2, 332843, Note_on_c, 12, 71, 127
2, 333043, Note_off_c, 12, 71, 127
2, 333043, Note_off_c, 4, 64, 127
2, 333053, Note_on_c, 4, 52, 127
2, 333053, Note_on_c, 12, 59, 127
2, 333053, Note_on_c, 8, 68, 127
2, 333253, Note_off_c, 8, 68, 127
2, 333263, Note_on_c, 4, 76, 127
2, 333463, Note_off_c, 4, 76, 127
2, 333466, Note_off_c, 12, 59, 127
2, 333466, Note_off_c, 4, 52, 127
2, 333473, Note_on_c, 8, 56, 127
2, 333473, Note_on_c, 12, 71, 127
2, 333673, Note_off_c, 12, 71, 127
2, 333673, Note_off_c, 8, 56, 127
2, 333683, Note_on_c, 10, 57, 127
2, 333683, Note_on_c, 4, 52, 127
2, 333683, Note_on_c, 1, 73, 127
2, 333883, Note_off_c, 1, 73, 127
2, 333893, Note_on_c, 4, 76, 127
2, 334093, Note_off_c, 4, 76, 127
2, 334096, Note_off_c, 4, 52, 127
2, 334096, Note_off_c, 10, 57, 127
2, 334103, Note_on_c, 8, 56, 127
2, 334103, Note_on_c, 12, 71, 127
2, 334303, Note_off_c, 12, 71, 127
2, 334303, Note_off_c, 8, 56, 127
2, 334313, Note_on_c, 4, 52, 127
2, 334313, Note_on_c, 10, 57, 127
2, 334313, Note_on_c, 1, 73, 127
2, 334513, Note_off_c, 1, 73, 127
2, 334523, Note_on_c, 4, 76, 127
2, 334723, Note_off_c, 4, 76, 127
2, 334726, Note_off_c, 10, 57, 127
2, 334726, Note_off_c, 4, 52, 127
2, 334733, Note_on_c, 10, 57, 127
2, 334733, Note_on_c, 1, 73, 127
2, 334933, Note_off_c, 1, 73, 127
2, 334933, Note_off_c, 10, 57, 127
2, 334943, Note_on_c, 10, 57, 127
2, 334943, Note_on_c, 6, 54, 127
2, 334943, Note_on_c, 2, 74, 127
2, 335145, Note_off_c, 2, 74, 127
2, 335153, Note_on_c, 6, 78, 127
2, 335355, Note_off_c, 6, 78, 127
2, 335358, Note_off_c, 6, 54, 127
2, 335358, Note_off_c, 10, 57, 127
2, 335362, Note_on_c, 7, 55, 127
2, 335362, Note_on_c, 12, 71, 127
2, 335564, Note_off_c, 12, 71, 127
2, 335564, Note_off_c, 7, 55, 127
2, 335572, Note_on_c, 4, 64, 127
2, 335572, Note_on_c, 4, 52, 127
2, 335572, Note_on_c, 1, 73, 127
2, 335774, Note_off_c, 1, 73, 127
2, 335774, Note_off_c, 4, 64, 127
2, 335782, Note_on_c, 1, 61, 127
2, 335782, Note_on_c, 4, 76, 127
2, 335984, Note_off_c, 4, 76, 127
2, 335984, Note_off_c, 4, 52, 127
2, 335992, Note_on_c, 6, 54, 127
2, 335992, Note_on_c, 11, 70, 127
2, 336194, Note_off_c, 11, 70, 127
2, 336194, Note_off_c, 6, 54, 127
2, 336194, Note_off_c, 1, 61, 127
2, 336202, Note_on_c, 12, 59, 127
2, 336202, Note_on_c, 2, 62, 127
2, 336202, Note_on_c, 12, 71, 127
2, 336202, Note_on_c, 6, 66, 127
2, 336404, Note_off_c, 6, 66, 127
2, 336404, Note_off_c, 12, 71, 127
2, 336412, Note_on_c, 6, 66, 127
2, 336512, Note_off_c, 6, 66, 127
2, 336516, Note_on_c, 6, 66, 127
2, 336616, Note_off_c, 6, 66, 127
2, 336616, Note_off_c, 2, 62, 127
2, 336616, Note_off_c, 12, 59, 127
2, 336620, Note_on_c, 1, 61, 127
2, 336620, Note_on_c, 11, 58, 127
2, 336620, Note_on_c, 6, 78, 127
2, 336620, Note_on_c, 6, 66, 127
2, 336822, Note_off_c, 6, 66, 127
2, 336822, Note_off_c, 6, 78, 127
2, 336822, Note_off_c, 11, 58, 127
2, 336822, Note_off_c, 1, 61, 127
2, 336830, Note_on_c, 12, 59, 127
2, 336830, Note_on_c, 2, 74, 127
2, 336830, Note_on_c, 6, 66, 127
2, 337032, Note_off_c, 6, 66, 127
2, 337032, Note_off_c, 2, 74, 127
2, 337040, Note_on_c, 6, 66, 127
2, 337242, Note_off_c, 6, 66, 127
2, 337242, Note_off_c, 12, 59, 127
2, 337250, Note_on_c, 6, 66, 127
2, 337452, Note_off_c, 6, 66, 127
2, 337460, Note_on_c, 6, 54, 127
2, 337460, Note_on_c, 1, 61, 127
2, 337460, Note_on_c, 10, 69, 127
2, 337662, Note_off_c, 10, 69, 127
2, 337662, Note_off_c, 1, 61, 127
2, 337670, Note_on_c, 10, 57, 127
2, 337670, Note_on_c, 1, 73, 127
2, 337872, Note_off_c, 1, 73, 127
2, 337872, Note_off_c, 6, 54, 127
2, 337880, Note_on_c, 6, 66, 127
2, 338082, Note_off_c, 6, 66, 127
2, 338085, Note_off_c, 10, 57, 127
2, 338089, Note_on_c, 1, 61, 127
2, 338089, Note_on_c, 4, 52, 127
2, 338089, Note_on_c, 10, 69, 127
2, 338291, Note_off_c, 10, 69, 127
2, 338291, Note_off_c, 1, 61, 127
2, 338299, Note_on_c, 10, 57, 127
2, 338299, Note_on_c, 1, 73, 127
2, 338501, Note_off_c, 1, 73, 127
2, 338501, Note_off_c, 4, 52, 127
2, 338509, Note_on_c, 6, 66, 127
2, 338711, Note_off_c, 6, 66, 127
2, 338714, Note_off_c, 10, 57, 127
2, 338718, Note_on_c, 2, 62, 127
2, 338718, Note_on_c, 2, 50, 127
2, 338718, Note_on_c, 12, 71, 127
2, 338920, Note_off_c, 12, 71, 127
2, 338920, Note_off_c, 2, 62, 127
2, 338928, Note_on_c, 12, 59, 127
2, 338928, Note_on_c, 2, 74, 127
2, 339028, Note_off_c, 2, 74, 127
2, 339032, Note_on_c, 1, 73, 127
2, 339129, Note_off_c, 2, 50, 127
2, 339132, Note_off_c, 1, 73, 127
2, 339136, Note_on_c, 12, 71, 127
2, 339236, Note_off_c, 12, 71, 127
2, 339240, Note_on_c, 10, 69, 127
2, 339340, Note_off_c, 10, 69, 127
2, 339340, Note_off_c, 12, 59, 127
2, 339344, Note_on_c, 12, 59, 127
2, 339344, Note_on_c, 4, 52, 127
2, 339344, Note_on_c, 8, 68, 127
2, 339546, Note_off_c, 8, 68, 127
2, 339546, Note_off_c, 12, 59, 127
2, 339554, Note_on_c, 8, 56, 127
2, 339554, Note_on_c, 12, 71, 127
2, 339756, Note_off_c, 12, 71, 127
2, 339756, Note_off_c, 4, 52, 127
2, 339764, Note_on_c, 4, 64, 127
2, 339966, Note_off_c, 4, 64, 127
2, 339969, Note_off_c, 8, 56, 127
2, 339973, Note_on_c, 1, 49, 127
2, 339973, Note_on_c, 1, 61, 127
2, 339973, Note_on_c, 10, 69, 127
2, 340175, Note_off_c, 10, 69, 127
2, 340175, Note_off_c, 1, 61, 127
2, 340183, Note_on_c, 10, 57, 127
2, 340183, Note_on_c, 1, 73, 127
2, 340283, Note_off_c, 1, 73, 127
2, 340287, Note_on_c, 12, 71, 127
2, 340384, Note_off_c, 1, 49, 127
2, 340387, Note_off_c, 12, 71, 127
2, 340391, Note_on_c, 10, 69, 127
2, 340491, Note_off_c, 10, 69, 127
2, 340495, Note_on_c, 7, 67, 127
2, 340595, Note_off_c, 7, 67, 127
2, 340595, Note_off_c, 10, 57, 127
2, 340599, Note_on_c, 10, 57, 127
2, 340599, Note_on_c, 2, 50, 127
2, 340599, Note_on_c, 6, 66, 127
2, 340801, Note_off_c, 6, 66, 127
2, 340801, Note_off_c, 10, 57, 127
2, 340809, Note_on_c, 6, 54, 127
2, 340809, Note_on_c, 10, 69, 127
2, 341011, Note_off_c, 10, 69, 127
2, 341011, Note_off_c, 2, 50, 127
2, 341019, Note_on_c, 2, 62, 127
2, 341221, Note_off_c, 2, 62, 127
2, 341224, Note_off_c, 6, 54, 127
2, 341228, Note_on_c, 12, 47, 127
2, 341228, Note_on_c, 12, 59, 127
2, 341228, Note_on_c, 7, 67, 127
2, 341430, Note_off_c, 7, 67, 127
2, 341430, Note_off_c, 12, 59, 127
2, 341438, Note_on_c, 7, 55, 127
2, 341438, Note_on_c, 12, 71, 127
2, 341538, Note_off_c, 12, 71, 127
2, 341542, Note_on_c, 10, 69, 127
2, 341639, Note_off_c, 12, 47, 127
2, 341642, Note_off_c, 10, 69, 127
2, 341646, Note_on_c, 7, 67, 127
2, 341746, Note_off_c, 7, 67, 127
2, 341750, Note_on_c, 6, 66, 127
2, 341850, Note_off_c, 6, 66, 127
2, 341850, Note_off_c, 7, 55, 127
2, 341854, Note_on_c, 4, 52, 127
2, 341854, Note_on_c, 7, 55, 127
2, 341854, Note_on_c, 7, 67, 127
2, 342056, Note_off_c, 7, 67, 127
2, 342056, Note_off_c, 7, 55, 127
2, 342056, Note_off_c, 4, 52, 127
2, 342064, Note_on_c, 1, 49, 127
2, 342064, Note_on_c, 4, 52, 127
2, 342064, Note_on_c, 10, 69, 127
2, 342164, Note_off_c, 10, 69, 127
2, 342168, Note_on_c, 7, 67, 127
2, 342268, Note_off_c, 7, 67, 127
2, 342272, Note_on_c, 6, 66, 127
2, 342372, Note_off_c, 6, 66, 127
2, 342376, Note_on_c, 4, 64, 127
2, 342476, Note_off_c, 4, 64, 127
2, 342476, Note_off_c, 4, 52, 127
2, 342476, Note_off_c, 1, 49, 127
2, 342480, Note_on_c, 2, 50, 127
2, 342480, Note_on_c, 6, 66, 127
2, 342682, Note_off_c, 6, 66, 127
2, 342690, Note_on_c, 10, 69, 127
2, 342892, Note_off_c, 10, 69, 127
2, 342895, Note_off_c, 2, 50, 127
2, 342899, Note_on_c, 10, 57, 127
2, 342899, Note_on_c, 1, 61, 127
2, 343101, Note_off_c, 1, 61, 127
2, 343101, Note_off_c, 10, 57, 127
2, 343109, Note_on_c, 6, 54, 127
2, 343109, Note_on_c, 2, 62, 127
2, 343311, Note_off_c, 2, 62, 127
2, 343319, Note_on_c, 6, 66, 127
2, 343521, Note_off_c, 6, 66, 127
2, 343524, Note_off_c, 6, 54, 127
2, 343528, Note_on_c, 6, 54, 127
2, 343528, Note_on_c, 2, 62, 127
2, 343730, Note_off_c, 2, 62, 127
2, 343730, Note_off_c, 6, 54, 127
2, 343738, Note_on_c, 2, 50, 127
2, 343738, Note_on_c, 12, 71, 127
2, 343940, Note_off_c, 12, 71, 127
2, 343948, Note_on_c, 2, 74, 127
2, 344150, Note_off_c, 2, 74, 127
2, 344153, Note_off_c, 2, 50, 127
2, 344157, Note_on_c, 2, 62, 127
2, 344157, Note_on_c, 6, 66, 127
2, 344359, Note_off_c, 6, 66, 127
2, 344359, Note_off_c, 2, 62, 127
2, 344367, Note_on_c, 12, 59, 127
2, 344367, Note_on_c, 7, 67, 127
2, 344569, Note_off_c, 7, 67, 127
2, 344569, Note_off_c, 12, 59, 127
2, 344577, Note_on_c, 7, 55, 127
2, 344577, Note_on_c, 12, 71, 127
2, 344779, Note_off_c, 12, 71, 127
2, 344787, Note_on_c, 4, 64, 127
2, 344989, Note_off_c, 4, 64, 127
2, 344992, Note_off_c, 7, 55, 127
2, 344996, Note_on_c, 2, 50, 127
2, 344996, Note_on_c, 10, 57, 127
2, 344996, Note_on_c, 6, 66, 127
2, 345198, Note_off_c, 6, 66, 127
2, 345198, Note_off_c, 10, 57, 127
2, 345206, Note_on_c, 10, 57, 127
2, 345206, Note_on_c, 10, 69, 127
2, 345306, Note_off_c, 10, 57, 127
2, 345310, Note_on_c, 10, 57, 127
2, 345407, Note_off_c, 10, 69, 127
2, 345407, Note_off_c, 2, 50, 127
2, 345410, Note_off_c, 10, 57, 127
2, 345414, Note_on_c, 10, 57, 127
2, 345414, Note_on_c, 10, 45, 127
2, 345414, Note_on_c, 1, 61, 127
2, 345616, Note_off_c, 1, 61, 127
2, 345616, Note_off_c, 10, 45, 127
2, 345616, Note_off_c, 10, 57, 127
2, 345624, Note_on_c, 6, 42, 127
2, 345624, Note_on_c, 10, 57, 127
2, 345624, Note_on_c, 2, 62, 127
2, 345826, Note_off_c, 10, 57, 127
2, 345834, Note_on_c, 10, 57, 127
2, 346036, Note_off_c, 10, 57, 127
2, 346036, Note_off_c, 2, 62, 127
2, 346036, Note_off_c, 6, 42, 127
2, 346044, Note_on_c, 10, 57, 127
2, 346246, Note_off_c, 10, 57, 127
2, 346254, Note_on_c, 10, 57, 127
2, 346254, Note_on_c, 1, 61, 127
2, 346254, Note_on_c, 4, 76, 127
2, 346456, Note_off_c, 4, 76, 127
2, 346456, Note_off_c, 1, 61, 127
2, 346464, Note_on_c, 4, 64, 127
2, 346464, Note_on_c, 1, 73, 127
2, 346666, Note_off_c, 4, 64, 127
2, 346666, Note_off_c, 10, 57, 127
2, 346674, Note_on_c, 10, 57, 127
2, 346876, Note_off_c, 10, 57, 127
2, 346879, Note_off_c, 1, 73, 127
2, 346883, Note_on_c, 1, 61, 127
2, 346883, Note_on_c, 10, 57, 127
2, 346883, Note_on_c, 4, 76, 127
2, 347085, Note_off_c, 4, 76, 127
2, 347085, Note_off_c, 1, 61, 127
2, 347093, Note_on_c, 4, 64, 127
2, 347093, Note_on_c, 1, 73, 127
2, 347295, Note_off_c, 4, 64, 127
2, 347295, Note_off_c, 10, 57, 127
2, 347303, Note_on_c, 10, 57, 127
2, 347505, Note_off_c, 10, 57, 127
2, 347508, Note_off_c, 1, 73, 127
2, 347512, Note_on_c, 1, 61, 127
2, 347512, Note_on_c, 11, 58, 127
2, 347512, Note_on_c, 4, 76, 127
2, 347714, Note_off_c, 4, 76, 127
2, 347714, Note_off_c, 1, 61, 127
2, 347722, Note_on_c, 6, 66, 127
2, 347722, Note_on_c, 1, 73, 127
2, 347822, Note_off_c, 6, 66, 127
2, 347826, Note_on_c, 4, 64, 127
2, 347923, Note_off_c, 11, 58, 127
2, 347926, Note_off_c, 4, 64, 127
2, 347930, Note_on_c, 2, 62, 127
2, 348030, Note_off_c, 2, 62, 127
2, 348034, Note_on_c, 1, 61, 127
2, 348134, Note_off_c, 1, 61, 127
2, 348134, Note_off_c, 1, 73, 127
2, 348138, Note_on_c, 12, 59, 127
2, 348138, Note_on_c, 2, 62, 127
2, 348138, Note_on_c, 6, 78, 127
2, 348340, Note_off_c, 6, 78, 127
2, 348340, Note_off_c, 2, 62, 127
2, 348348, Note_on_c, 6, 66, 127
2, 348348, Note_on_c, 2, 74, 127
2, 348550, Note_off_c, 6, 66, 127
2, 348550, Note_off_c, 12, 59, 127
2, 348558, Note_on_c, 12, 59, 127
2, 348760, Note_off_c, 12, 59, 127
2, 348763, Note_off_c, 2, 74, 127
2, 348767, Note_on_c, 12, 59, 127
2, 348767, Note_on_c, 2, 62, 127
2, 348767, Note_on_c, 6, 78, 127
2, 348969, Note_off_c, 6, 78, 127
2, 348969, Note_off_c, 2, 62, 127
2, 348977, Note_on_c, 6, 66, 127
2, 348977, Note_on_c, 2, 74, 127
2, 349179, Note_off_c, 6, 66, 127
2, 349179, Note_off_c, 12, 59, 127
2, 349187, Note_on_c, 12, 59, 127
2, 349389, Note_off_c, 12, 59, 127
2, 349392, Note_off_c, 2, 74, 127
2, 349396, Note_on_c, 2, 62, 127
2, 349396, Note_on_c, 8, 56, 127
2, 349396, Note_on_c, 12, 71, 127
2, 349598, Note_off_c, 2, 62, 127
2, 349606, Note_on_c, 4, 64, 127
2, 349706, Note_off_c, 4, 64, 127
2, 349710, Note_on_c, 2, 62, 127
2, 349807, Note_off_c, 12, 71, 127
2, 349807, Note_off_c, 8, 56, 127
2, 349810, Note_off_c, 2, 62, 127
2, 349814, Note_on_c, 1, 61, 127
2, 349914, Note_off_c, 1, 61, 127
2, 349918, Note_on_c, 12, 59, 127
2, 350018, Note_off_c, 12, 59, 127
2, 350022, Note_on_c, 1, 61, 127
2, 350022, Note_on_c, 10, 57, 127
2, 350022, Note_on_c, 4, 76, 127
2, 350224, Note_off_c, 4, 76, 127
2, 350224, Note_off_c, 1, 61, 127
2, 350232, Note_on_c, 4, 64, 127
2, 350232, Note_on_c, 1, 73, 127
2, 350434, Note_off_c, 4, 64, 127
2, 350434, Note_off_c, 10, 57, 127
2, 350442, Note_on_c, 10, 57, 127
2, 350644, Note_off_c, 10, 57, 127
2, 350647, Note_off_c, 1, 73, 127
2, 350651, Note_on_c, 12, 59, 127
2, 350651, Note_on_c, 8, 56, 127
2, 350651, Note_on_c, 2, 74, 127
2, 350853, Note_off_c, 2, 74, 127
2, 350853, Note_off_c, 12, 59, 127
2, 350861, Note_on_c, 2, 62, 127
2, 350861, Note_on_c, 12, 71, 127
2, 351063, Note_off_c, 2, 62, 127
2, 351063, Note_off_c, 8, 56, 127
2, 351071, Note_on_c, 8, 56, 127
2, 351273, Note_off_c, 8, 56, 127
2, 351276, Note_off_c, 12, 71, 127
2, 351280, Note_on_c, 6, 54, 127
2, 351280, Note_on_c, 10, 57, 127
2, 351280, Note_on_c, 1, 73, 127
2, 351482, Note_off_c, 1, 73, 127
2, 351482, Note_off_c, 10, 57, 127
2, 351490, Note_on_c, 1, 61, 127
2, 351490, Note_on_c, 10, 69, 127
2, 351692, Note_off_c, 1, 61, 127
2, 351692, Note_off_c, 6, 54, 127
2, 351700, Note_on_c, 6, 54, 127
2, 351902, Note_off_c, 6, 54, 127
2, 351905, Note_off_c, 10, 69, 127
2, 351909, Note_on_c, 4, 52, 127
2, 351909, Note_on_c, 8, 56, 127
2, 351909, Note_on_c, 12, 71, 127
2, 352111, Note_off_c, 12, 71, 127
2, 352111, Note_off_c, 8, 56, 127
2, 352119, Note_on_c, 12, 59, 127
2, 352119, Note_on_c, 8, 68, 127
2, 352321, Note_off_c, 12, 59, 127
2, 352321, Note_off_c, 4, 52, 127
2, 352329, Note_on_c, 4, 52, 127
2, 352531, Note_off_c, 4, 52, 127
2, 352534, Note_off_c, 8, 68, 127
2, 352538, Note_on_c, 10, 57, 127
2, 352538, Note_on_c, 6, 54, 127
2, 352538, Note_on_c, 10, 69, 127
2, 352740, Note_off_c, 10, 69, 127
2, 352740, Note_off_c, 6, 54, 127
2, 352740, Note_off_c, 10, 57, 127
2, 352748, Note_on_c, 3, 51, 127
2, 352748, Note_on_c, 6, 54, 127
2, 352748, Note_on_c, 12, 71, 127
2, 352950, Note_off_c, 12, 71, 127
2, 352958, Note_on_c, 10, 69, 127
2, 353160, Note_off_c, 10, 69, 127
2, 353163, Note_off_c, 6, 54, 127
2, 353163, Note_off_c, 3, 51, 127
2, 353167, Note_on_c, 12, 59, 127
2, 353167, Note_on_c, 4, 52, 127
2, 353167, Note_on_c, 8, 68, 127
2, 353369, Note_off_c, 8, 68, 127
2, 353377, Note_on_c, 6, 66, 127
2, 353579, Note_off_c, 6, 66, 127
2, 353587, Note_on_c, 4, 64, 127
2, 353688, Note_off_c, 4, 52, 127
2, 353688, Note_off_c, 12, 59, 127
2, 353788, Note_off_c, 4, 64, 127
2, 353796, Note_on_c, 4, 64, 127
2, 353796, Note_on_c, 7, 67, 127
2, 354002, Note_off_c, 7, 67, 127
2, 354002, Note_off_c, 4, 64, 127
2, 354005, Note_on_c, 1, 61, 127
2, 354005, Note_on_c, 10, 69, 127
2, 354211, Note_off_c, 10, 69, 127
2, 354214, Note_on_c, 7, 67, 127
2, 354420, Note_off_c, 7, 67, 127
2, 354423, Note_off_c, 1, 61, 127
2, 354423, Note_on_c, 2, 62, 127
2, 354423, Note_on_c, 6, 66, 127
2, 354629, Note_off_c, 6, 66, 127
2, 354629, Note_off_c, 2, 62, 127
2, 354632, Note_on_c, 12, 59, 127
2, 354632, Note_on_c, 7, 67, 127
2, 354838, Note_off_c, 7, 67, 127
2, 354841, Note_on_c, 6, 66, 127
2, 355047, Note_off_c, 6, 66, 127
2, 355050, Note_off_c, 12, 59, 127
2, 355050, Note_on_c, 0, 60, 127
2, 355050, Note_on_c, 4, 64, 127
2, 355256, Note_off_c, 4, 64, 127
2, 355256, Note_off_c, 0, 60, 127
2, 355259, Note_on_c, 10, 57, 127
2, 355259, Note_on_c, 6, 66, 127
2, 355465, Note_off_c, 6, 66, 127
2, 355468, Note_on_c, 4, 64, 127
2, 355674, Note_off_c, 4, 64, 127
2, 355677, Note_off_c, 10, 57, 127
2, 355677, Note_on_c, 12, 59, 127
2, 355677, Note_on_c, 3, 63, 127
2, 355883, Note_off_c, 3, 63, 127
2, 355883, Note_off_c, 12, 59, 127
2, 355886, Note_on_c, 10, 57, 127
2, 355886, Note_on_c, 12, 59, 127
2, 356092, Note_off_c, 12, 59, 127
2, 356092, Note_off_c, 10, 57, 127
2, 356095, Note_on_c, 7, 55, 127
2, 356095, Note_on_c, 4, 64, 127
2, 356301, Note_off_c, 7, 55, 127
2, 356304, Note_on_c, 10, 57, 127
2, 356499, Note_off_c, 10, 57, 127
2, 356513, Note_off_c, 4, 64, 127
2, 356513, Note_on_c, 6, 54, 127
2, 356513, Note_on_c, 6, 66, 127
2, 356708, Note_off_c, 6, 66, 127
2, 356708, Note_off_c, 6, 54, 127
2, 356722, Note_on_c, 12, 59, 127
2, 356722, Note_on_c, 3, 63, 127
2, 356917, Note_off_c, 3, 63, 127
2, 356917, Note_off_c, 12, 59, 127
2, 356931, Note_on_c, 4, 40, 127
2, 356931, Note_on_c, 7, 55, 127
2, 356931, Note_on_c, 4, 64, 127
2, 357126, Note_off_c, 4, 40, 127
2, 357140, Note_on_c, 4, 40, 127
2, 357234, Note_off_c, 4, 40, 127
2, 357245, Note_on_c, 4, 40, 127
2, 357336, Note_off_c, 7, 55, 127
2, 357339, Note_off_c, 4, 40, 127
2, 357339, Note_off_c, 4, 64, 127
2, 357350, Note_on_c, 4, 40, 127
2, 357350, Note_on_c, 12, 71, 127
2, 357545, Note_off_c, 12, 71, 127
2, 357545, Note_off_c, 4, 40, 127
2, 357559, Note_on_c, 4, 40, 127
2, 357559, Note_on_c, 7, 67, 127
2, 357754, Note_off_c, 4, 40, 127
2, 357768, Note_on_c, 4, 40, 127
2, 357963, Note_off_c, 4, 40, 127
2, 357966, Note_off_c, 7, 67, 127
2, 357977, Note_on_c, 4, 40, 127
2, 357977, Note_on_c, 7, 67, 127
2, 358172, Note_off_c, 7, 67, 127
2, 358172, Note_off_c, 4, 40, 127
2, 358186, Note_on_c, 7, 43, 127
2, 358186, Note_on_c, 4, 64, 127
2, 358381, Note_off_c, 7, 43, 127
2, 358395, Note_on_c, 12, 47, 127
2, 358590, Note_off_c, 12, 47, 127
2, 358593, Note_off_c, 4, 64, 127
2, 358604, Note_on_c, 4, 40, 127
2, 358604, Note_on_c, 7, 67, 127
2, 358799, Note_off_c, 7, 67, 127
2, 358799, Note_off_c, 4, 40, 127
2, 358813, Note_on_c, 7, 43, 127
2, 358813, Note_on_c, 4, 64, 127
2, 359008, Note_off_c, 7, 43, 127
2, 359022, Note_on_c, 12, 47, 127
2, 359217, Note_off_c, 12, 47, 127
2, 359220, Note_off_c, 4, 64, 127
2, 359231, Note_on_c, 4, 40, 127
2, 359231, Note_on_c, 7, 67, 127
2, 359426, Note_off_c, 7, 67, 127
2, 359426, Note_off_c, 4, 40, 127
2, 359440, Note_on_c, 7, 43, 127
2, 359440, Note_on_c, 4, 64, 127
2, 359635, Note_off_c, 7, 43, 127
2, 359649, Note_on_c, 0, 48, 127
2, 359743, Note_off_c, 0, 48, 127
2, 359754, Note_on_c, 12, 47, 127
2, 359848, Note_off_c, 12, 47, 127
2, 359848, Note_off_c, 4, 64, 127
2, 359859, Note_on_c, 10, 45, 127
2, 359859, Note_on_c, 6, 66, 127
2, 359953, Note_off_c, 10, 45, 127
2, 359964, Note_on_c, 7, 43, 127
2, 360055, Note_off_c, 6, 66, 127
2, 360058, Note_off_c, 7, 43, 127
2, 360069, Note_on_c, 6, 42, 127
2, 360069, Note_on_c, 3, 63, 127
2, 360264, Note_off_c, 6, 42, 127
2, 360278, Note_on_c, 12, 47, 127
2, 360473, Note_off_c, 12, 47, 127
2, 360476, Note_off_c, 3, 63, 127
2, 360487, Note_on_c, 10, 45, 127
2, 360487, Note_on_c, 6, 78, 127
2, 360682, Note_off_c, 6, 78, 127
2, 360682, Note_off_c, 10, 45, 127
2, 360696, Note_on_c, 7, 43, 127
2, 360696, Note_on_c, 12, 71, 127
2, 360891, Note_off_c, 12, 71, 127
2, 360891, Note_off_c, 7, 43, 127
2, 360905, Note_on_c, 4, 52, 127
2, 360905, Note_on_c, 7, 67, 127
2, 361100, Note_off_c, 7, 67, 127
2, 361100, Note_off_c, 4, 52, 127
2, 361114, Note_on_c, 7, 55, 127
2, 361114, Note_on_c, 4, 76, 127
2, 361309, Note_off_c, 4, 76, 127
2, 361309, Note_off_c, 7, 55, 127
2, 361323, Note_on_c, 6, 54, 127
2, 361323, Note_on_c, 10, 69, 127
2, 361518, Note_off_c, 10, 69, 127
2, 361518, Note_off_c, 6, 54, 127
2, 361532, Note_on_c, 12, 59, 127
2, 361532, Note_on_c, 6, 66, 127
2, 361727, Note_off_c, 6, 66, 127
2, 361727, Note_off_c, 12, 59, 127
2, 361741, Note_on_c, 12, 47, 127
2, 361741, Note_on_c, 3, 75, 127
2, 361936, Note_off_c, 3, 75, 127
2, 361936, Note_off_c, 12, 47, 127
2, 361950, Note_on_c, 4, 52, 127
2, 361950, Note_on_c, 7, 67, 127
2, 362145, Note_off_c, 7, 67, 127
2, 362145, Note_off_c, 4, 52, 127
2, 362159, Note_on_c, 7, 55, 127
2, 362159, Note_on_c, 4, 64, 127
2, 362354, Note_off_c, 4, 64, 127
2, 362354, Note_off_c, 7, 55, 127
2, 362368, Note_on_c, 4, 52, 127
2, 362368, Note_on_c, 0, 72, 127
2, 362563, Note_off_c, 0, 72, 127
2, 362563, Note_off_c, 4, 52, 127
2, 362577, Note_on_c, 6, 54, 127
2, 362577, Note_on_c, 10, 69, 127
2, 362772, Note_off_c, 10, 69, 127
2, 362772, Note_off_c, 6, 54, 127
2, 362786, Note_on_c, 3, 51, 127
2, 362786, Note_on_c, 6, 66, 127
2, 362981, Note_off_c, 6, 66, 127
2, 362981, Note_off_c, 3, 51, 127
2, 362995, Note_on_c, 12, 47, 127
2, 362995, Note_on_c, 12, 71, 127
2, 363190, Note_off_c, 12, 71, 127
2, 363190, Note_off_c, 12, 47, 127
2, 363204, Note_on_c, 4, 52, 127
2, 363204, Note_on_c, 7, 67, 127
2, 363399, Note_off_c, 7, 67, 127
2, 363399, Note_off_c, 4, 52, 127
2, 363413, Note_on_c, 1, 49, 127
2, 363413, Note_on_c, 4, 64, 127
2, 363608, Note_off_c, 4, 64, 127
2, 363608, Note_off_c, 1, 49, 127
2, 363622, Note_on_c, 10, 45, 127
2, 363622, Note_on_c, 10, 69, 127
2, 363817, Note_off_c, 10, 69, 127
2, 363817, Note_off_c, 10, 45, 127
2, 363831, Note_on_c, 2, 50, 127
2, 363831, Note_on_c, 6, 66, 127
2, 364026, Note_off_c, 6, 66, 127
2, 364026, Note_off_c, 2, 50, 127
2, 364040, Note_on_c, 6, 54, 127
2, 364040, Note_on_c, 2, 62, 127
2, 364235, Note_off_c, 2, 62, 127
2, 364235, Note_off_c, 6, 54, 127
2, 364249, Note_on_c, 1, 49, 127
2, 364249, Note_on_c, 10, 69, 127
2, 364444, Note_off_c, 10, 69, 127
2, 364444, Note_off_c, 1, 49, 127
2, 364458, Note_on_c, 2, 50, 127
2, 364458, Note_on_c, 6, 66, 127
2, 364653, Note_off_c, 6, 66, 127
2, 364653, Note_off_c, 2, 50, 127
2, 364667, Note_on_c, 6, 54, 127
2, 364667, Note_on_c, 10, 69, 127
2, 364862, Note_off_c, 10, 69, 127
2, 364862, Note_off_c, 6, 54, 127
2, 364876, Note_on_c, 10, 57, 127
2, 364876, Note_on_c, 6, 66, 127
2, 365071, Note_off_c, 10, 57, 127
2, 365073, Note_off_c, 6, 66, 127
2, 365085, Note_on_c, 2, 62, 127
2, 365280, Note_off_c, 2, 62, 127
2, 365294, Note_on_c, 6, 54, 127
2, 365294, Note_on_c, 10, 69, 127
2, 365489, Note_off_c, 10, 69, 127
2, 365489, Note_off_c, 6, 54, 127
2, 365503, Note_on_c, 10, 57, 127
2, 365503, Note_on_c, 6, 66, 127
2, 365698, Note_off_c, 10, 57, 127
2, 365700, Note_off_c, 6, 66, 127
2, 365712, Note_on_c, 2, 50, 127
2, 365907, Note_off_c, 2, 50, 127
2, 365921, Note_on_c, 10, 45, 127
2, 365921, Note_on_c, 6, 66, 127
2, 366116, Note_off_c, 6, 66, 127
2, 366116, Note_off_c, 10, 45, 127
2, 366130, Note_on_c, 6, 54, 127
2, 366130, Note_on_c, 2, 62, 127
2, 366325, Note_off_c, 6, 54, 127
2, 366327, Note_off_c, 2, 62, 127
2, 366339, Note_on_c, 2, 50, 127
2, 366534, Note_off_c, 2, 50, 127
2, 366548, Note_on_c, 10, 45, 127
2, 366548, Note_on_c, 6, 66, 127
2, 366743, Note_off_c, 6, 66, 127
2, 366743, Note_off_c, 10, 45, 127
2, 366757, Note_on_c, 6, 54, 127
2, 366757, Note_on_c, 2, 62, 127
2, 366952, Note_off_c, 2, 62, 127
2, 366952, Note_off_c, 6, 54, 127
2, 366966, Note_on_c, 4, 52, 127
2, 366966, Note_on_c, 0, 60, 127
2, 367161, Note_off_c, 0, 60, 127
2, 367161, Note_off_c, 4, 52, 127
2, 367175, Note_on_c, 6, 54, 127
2, 367175, Note_on_c, 10, 57, 127
2, 367370, Note_off_c, 10, 57, 127
2, 367370, Note_off_c, 6, 54, 127
2, 367384, Note_on_c, 2, 50, 127
2, 367384, Note_on_c, 2, 62, 127
2, 367579, Note_off_c, 2, 62, 127
2, 367579, Note_off_c, 2, 50, 127
2, 367593, Note_on_c, 7, 55, 127
2, 367593, Note_on_c, 12, 59, 127
2, 367593, Note_on_c, 2, 74, 127
2, 367788, Note_off_c, 2, 74, 127
2, 367788, Note_off_c, 12, 59, 127
2, 367802, Note_on_c, 2, 62, 127
2, 367802, Note_on_c, 2, 74, 127
2, 367896, Note_off_c, 2, 74, 127
2, 367907, Note_on_c, 2, 74, 127
2, 367998, Note_off_c, 7, 55, 127
2, 368000, Note_off_c, 2, 62, 127
2, 368001, Note_off_c, 2, 74, 127
2, 368012, Note_on_c, 2, 74, 127
2, 368012, Note_on_c, 12, 59, 127
2, 368207, Note_off_c, 12, 59, 127
2, 368207, Note_off_c, 2, 74, 127
2, 368221, Note_on_c, 6, 54, 127
2, 368221, Note_on_c, 2, 74, 127
2, 368416, Note_off_c, 2, 74, 127
2, 368430, Note_on_c, 10, 57, 127
2, 368430, Note_on_c, 2, 74, 127
2, 368625, Note_off_c, 2, 74, 127
2, 368625, Note_off_c, 10, 57, 127
2, 368625, Note_off_c, 6, 54, 127
2, 368639, Note_on_c, 6, 54, 127
2, 368639, Note_on_c, 2, 50, 127
2, 368639, Note_on_c, 2, 74, 127
2, 368834, Note_off_c, 2, 74, 127
2, 368834, Note_off_c, 2, 50, 127
2, 368834, Note_off_c, 6, 54, 127
2, 368848, Note_on_c, 2, 62, 127
2, 368848, Note_on_c, 6, 78, 127
2, 368848, Note_on_c, 10, 69, 127
2, 369043, Note_off_c, 10, 69, 127
2, 369043, Note_off_c, 6, 78, 127
2, 369057, Note_on_c, 10, 81, 127
2, 369057, Note_on_c, 6, 66, 127
2, 369252, Note_off_c, 10, 81, 127
2, 369252, Note_off_c, 2, 62, 127
2, 369266, Note_on_c, 2, 74, 127
2, 369461, Note_off_c, 2, 74, 127
2, 369461, Note_off_c, 6, 66, 127
2, 369475, Note_on_c, 2, 62, 127
2, 369475, Note_on_c, 10, 69, 127
2, 369475, Note_on_c, 6, 78, 127
2, 369670, Note_off_c, 6, 78, 127
2, 369670, Note_off_c, 10, 69, 127
2, 369684, Note_on_c, 6, 66, 127
2, 369684, Note_on_c, 10, 81, 127
2, 369879, Note_off_c, 10, 81, 127
2, 369879, Note_off_c, 2, 62, 127
2, 369893, Note_on_c, 2, 74, 127
2, 370088, Note_off_c, 2, 74, 127
2, 370088, Note_off_c, 6, 66, 127
2, 370102, Note_on_c, 3, 63, 127
2, 370102, Note_on_c, 10, 69, 127
2, 370102, Note_on_c, 6, 78, 127
2, 370297, Note_off_c, 6, 78, 127
2, 370297, Note_off_c, 10, 69, 127
2, 370311, Note_on_c, 6, 66, 127
2, 370311, Note_on_c, 12, 83, 127
2, 370405, Note_off_c, 12, 83, 127
2, 370416, Note_on_c, 10, 81, 127
2, 370507, Note_off_c, 3, 63, 127
2, 370510, Note_off_c, 10, 81, 127
2, 370521, Note_on_c, 7, 79, 127
2, 370615, Note_off_c, 7, 79, 127
2, 370626, Note_on_c, 6, 78, 127
2, 370717, Note_off_c, 6, 66, 127
2, 370720, Note_off_c, 6, 78, 127
2, 370731, Note_on_c, 4, 64, 127
2, 370731, Note_on_c, 12, 71, 127
2, 370731, Note_on_c, 7, 79, 127
2, 370926, Note_off_c, 7, 79, 127
2, 370926, Note_off_c, 12, 71, 127
2, 370940, Note_on_c, 12, 83, 127
2, 370940, Note_on_c, 7, 67, 127
2, 371135, Note_off_c, 12, 83, 127
2, 371135, Note_off_c, 4, 64, 127
2, 371149, Note_on_c, 4, 76, 127
2, 371344, Note_off_c, 4, 76, 127
2, 371344, Note_off_c, 7, 67, 127
2, 371358, Note_on_c, 4, 64, 127
2, 371358, Note_on_c, 7, 79, 127
2, 371358, Note_on_c, 12, 71, 127
2, 371553, Note_off_c, 12, 71, 127
2, 371553, Note_off_c, 7, 79, 127
2, 371567, Note_on_c, 7, 67, 127
2, 371567, Note_on_c, 12, 83, 127
2, 371762, Note_off_c, 12, 83, 127
2, 371762, Note_off_c, 4, 64, 127
2, 371776, Note_on_c, 4, 76, 127
2, 371971, Note_off_c, 4, 76, 127
2, 371971, Note_off_c, 7, 67, 127
2, 371985, Note_on_c, 1, 61, 127
2, 371985, Note_on_c, 4, 64, 127
2, 371985, Note_on_c, 7, 79, 127
2, 372180, Note_off_c, 7, 79, 127
2, 372194, Note_on_c, 10, 81, 127
2, 372288, Note_off_c, 10, 81, 127
2, 372299, Note_on_c, 7, 79, 127
2, 372390, Note_off_c, 4, 64, 127
2, 372390, Note_off_c, 1, 61, 127
2, 372393, Note_off_c, 7, 79, 127
2, 372404, Note_on_c, 6, 78, 127
2, 372498, Note_off_c, 6, 78, 127
2, 372509, Note_on_c, 4, 76, 127
2, 372603, Note_off_c, 4, 76, 127
2, 372614, Note_on_c, 2, 62, 127
2, 372614, Note_on_c, 6, 78, 127
2, 372614, Note_on_c, 10, 69, 127
2, 372809, Note_off_c, 10, 69, 127
2, 372809, Note_off_c, 6, 78, 127
2, 372823, Note_on_c, 6, 66, 127
2, 372823, Note_on_c, 10, 81, 127
2, 373018, Note_off_c, 10, 81, 127
2, 373018, Note_off_c, 2, 62, 127
2, 373032, Note_on_c, 2, 74, 127
2, 373227, Note_off_c, 2, 74, 127
2, 373227, Note_off_c, 6, 66, 127
2, 373241, Note_on_c, 7, 55, 127
2, 373241, Note_on_c, 7, 67, 127
2, 373241, Note_on_c, 4, 76, 127
2, 373436, Note_off_c, 4, 76, 127
2, 373436, Note_off_c, 7, 67, 127
2, 373450, Note_on_c, 7, 79, 127
2, 373450, Note_on_c, 4, 64, 127
2, 373645, Note_off_c, 7, 79, 127
2, 373648, Note_off_c, 7, 55, 127
2, 373659, Note_on_c, 10, 57, 127
2, 373659, Note_on_c, 1, 73, 127
2, 373854, Note_off_c, 1, 73, 127
2, 373854, Note_off_c, 10, 57, 127
2, 373854, Note_off_c, 4, 64, 127
2, 373868, Note_on_c, 6, 54, 127
2, 373868, Note_on_c, 6, 66, 127
2, 373868, Note_on_c, 2, 74, 127
2, 374063, Note_off_c, 2, 74, 127
2, 374063, Note_off_c, 6, 66, 127
2, 374077, Note_on_c, 2, 62, 127
2, 374077, Note_on_c, 6, 78, 127
2, 374272, Note_off_c, 6, 78, 127
2, 374275, Note_off_c, 6, 54, 127
2, 374286, Note_on_c, 7, 55, 127
2, 374286, Note_on_c, 12, 71, 127
2, 374481, Note_off_c, 12, 71, 127
2, 374481, Note_off_c, 7, 55, 127
2, 374481, Note_off_c, 2, 62, 127
2, 374495, Note_on_c, 4, 52, 127
2, 374495, Note_on_c, 1, 73, 127
2, 374495, Note_on_c, 4, 64, 127
2, 374690, Note_off_c, 4, 64, 127
2, 374690, Note_off_c, 1, 73, 127
2, 374704, Note_on_c, 1, 61, 127
2, 374704, Note_on_c, 4, 76, 127
2, 374899, Note_off_c, 4, 76, 127
2, 374902, Note_off_c, 4, 52, 127
2, 374913, Note_on_c, 6, 54, 127
2, 374913, Note_on_c, 10, 69, 127
2, 375108, Note_off_c, 10, 69, 127
2, 375108, Note_off_c, 6, 54, 127
2, 375108, Note_off_c, 1, 61, 127
2, 375122, Note_on_c, 2, 50, 127
2, 375122, Note_on_c, 2, 62, 127
2, 375122, Note_on_c, 12, 71, 127
2, 375317, Note_off_c, 12, 71, 127
2, 375317, Note_off_c, 2, 62, 127
2, 375331, Note_on_c, 12, 59, 127
2, 375331, Note_on_c, 2, 74, 127
2, 375526, Note_off_c, 2, 74, 127
2, 375529, Note_off_c, 2, 50, 127
2, 375540, Note_on_c, 4, 52, 127
2, 375540, Note_on_c, 8, 68, 127
2, 375735, Note_off_c, 8, 68, 127
2, 375735, Note_off_c, 4, 52, 127
2, 375735, Note_off_c, 12, 59, 127
2, 375749, Note_on_c, 10, 57, 127
2, 375749, Note_on_c, 10, 69, 127
2, 375749, Note_on_c, 1, 61, 127
2, 375944, Note_off_c, 1, 61, 127
2, 375958, Note_on_c, 4, 64, 127
2, 376153, Note_off_c, 4, 64, 127
2, 376153, Note_off_c, 10, 69, 127
2, 376153, Note_off_c, 10, 57, 127
2, 376167, Note_on_c, 10, 57, 127
2, 376167, Note_on_c, 1, 73, 127
2, 376362, Note_off_c, 1, 73, 127
2, 376362, Note_off_c, 10, 57, 127
2, 376376, Note_on_c, 6, 54, 127
2, 376376, Note_on_c, 2, 62, 127
2, 376376, Note_on_c, 10, 69, 127
2, 376571, Note_off_c, 2, 62, 127
2, 376585, Note_on_c, 6, 66, 127
2, 376780, Note_off_c, 6, 66, 127
2, 376780, Note_off_c, 10, 69, 127
2, 376780, Note_off_c, 6, 54, 127
2, 376794, Note_on_c, 2, 74, 127
2, 376794, Note_on_c, 10, 57, 127
2, 376989, Note_off_c, 10, 57, 127
2, 376989, Note_off_c, 2, 74, 127
2, 377003, Note_on_c, 7, 55, 127
2, 377003, Note_on_c, 12, 71, 127
2, 377003, Note_on_c, 4, 64, 127
2, 377198, Note_off_c, 4, 64, 127
2, 377212, Note_on_c, 7, 67, 127
2, 377407, Note_off_c, 7, 67, 127
2, 377407, Note_off_c, 12, 71, 127
2, 377407, Note_off_c, 7, 55, 127
2, 377421, Note_on_c, 4, 76, 127
2, 377421, Note_on_c, 12, 59, 127
2, 377616, Note_off_c, 12, 59, 127
2, 377616, Note_off_c, 4, 76, 127
2, 377630, Note_on_c, 10, 57, 127
2, 377630, Note_on_c, 6, 66, 127
2, 377630, Note_on_c, 1, 73, 127
2, 377825, Note_off_c, 6, 66, 127
2, 377839, Note_on_c, 10, 69, 127
2, 378034, Note_off_c, 10, 69, 127
2, 378034, Note_off_c, 1, 73, 127
2, 378034, Note_off_c, 10, 57, 127
2, 378048, Note_on_c, 6, 78, 127
2, 378048, Note_on_c, 1, 61, 127
2, 378243, Note_off_c, 1, 61, 127
2, 378243, Note_off_c, 6, 78, 127
2, 378257, Note_on_c, 12, 59, 127
2, 378257, Note_on_c, 2, 74, 127
2, 378257, Note_on_c, 6, 66, 127
2, 378452, Note_off_c, 6, 66, 127
2, 378452, Note_off_c, 2, 74, 127
2, 378466, Note_on_c, 2, 62, 127
2, 378466, Note_on_c, 12, 71, 127
2, 378661, Note_off_c, 12, 71, 127
2, 378661, Note_off_c, 2, 62, 127
2, 378664, Note_off_c, 12, 59, 127
2, 378675, Note_on_c, 1, 61, 127
2, 378675, Note_on_c, 4, 64, 127
2, 378870, Note_off_c, 4, 64, 127
2, 378870, Note_off_c, 1, 61, 127
2, 378884, Note_on_c, 2, 62, 127
2, 378884, Note_on_c, 6, 66, 127
2, 379079, Note_off_c, 6, 66, 127
2, 379079, Note_off_c, 2, 62, 127
2, 379093, Note_on_c, 1, 61, 127
2, 379093, Note_on_c, 4, 64, 127
2, 379288, Note_off_c, 4, 64, 127
2, 379288, Note_off_c, 1, 61, 127
2, 379302, Note_on_c, 3, 63, 127
2, 379302, Note_on_c, 6, 66, 127
2, 379497, Note_off_c, 6, 66, 127
2, 379497, Note_off_c, 3, 63, 127
2, 379511, Note_on_c, 4, 64, 127
2, 379511, Note_on_c, 7, 67, 127
2, 379511, Note_on_c, 12, 83, 127
2, 379706, Note_off_c, 12, 83, 127
2, 379706, Note_off_c, 7, 67, 127
2, 379720, Note_on_c, 12, 71, 127
2, 379720, Note_on_c, 7, 79, 127
2, 379915, Note_off_c, 7, 79, 127
2, 379915, Note_off_c, 12, 71, 127
2, 379915, Note_off_c, 4, 64, 127
2, 379929, Note_on_c, 4, 64, 127
2, 380124, Note_off_c, 4, 64, 127
2, 380138, Note_on_c, 1, 61, 127
2, 380138, Note_on_c, 4, 64, 127
2, 380333, Note_off_c, 4, 64, 127
2, 380347, Note_on_c, 10, 69, 127
2, 380542, Note_off_c, 10, 69, 127
2, 380542, Note_off_c, 1, 61, 127
2, 380556, Note_on_c, 4, 64, 127
2, 380751, Note_off_c, 4, 64, 127
2, 380765, Note_on_c, 2, 62, 127
2, 380765, Note_on_c, 6, 66, 127
2, 380765, Note_on_c, 10, 81, 127
2, 380960, Note_off_c, 10, 81, 127
2, 380960, Note_off_c, 6, 66, 127
2, 380974, Note_on_c, 6, 78, 127
2, 380974, Note_on_c, 10, 69, 127
2, 381169, Note_off_c, 10, 69, 127
2, 381169, Note_off_c, 6, 78, 127
2, 381169, Note_off_c, 2, 62, 127
2, 381183, Note_on_c, 6, 66, 127
2, 381378, Note_off_c, 6, 66, 127
2, 381392, Note_on_c, 12, 59, 127
2, 381392, Note_on_c, 2, 62, 127
2, 381587, Note_off_c, 2, 62, 127
2, 381601, Note_on_c, 7, 67, 127
2, 381796, Note_off_c, 7, 67, 127
2, 381796, Note_off_c, 12, 59, 127
2, 381810, Note_on_c, 2, 62, 127
2, 382005, Note_off_c, 2, 62, 127
2, 382019, Note_on_c, 1, 61, 127
2, 382019, Note_on_c, 7, 79, 127
2, 382019, Note_on_c, 4, 64, 127
2, 382214, Note_off_c, 4, 64, 127
2, 382214, Note_off_c, 7, 79, 127
2, 382228, Note_on_c, 7, 67, 127
2, 382228, Note_on_c, 4, 76, 127
2, 382423, Note_off_c, 4, 76, 127
2, 382423, Note_off_c, 7, 67, 127
2, 382423, Note_off_c, 1, 61, 127
2, 382437, Note_on_c, 4, 64, 127
2, 382632, Note_off_c, 4, 64, 127
2, 382646, Note_on_c, 11, 58, 127
2, 382646, Note_on_c, 1, 61, 127
2, 382841, Note_off_c, 1, 61, 127
2, 382855, Note_on_c, 6, 66, 127
2, 383050, Note_off_c, 6, 66, 127
2, 383064, Note_on_c, 1, 61, 127
2, 383259, Note_off_c, 1, 61, 127
2, 383262, Note_off_c, 11, 58, 127
2, 383273, Note_on_c, 12, 59, 127
2, 383273, Note_on_c, 2, 62, 127
2, 383273, Note_on_c, 6, 78, 127
2, 383468, Note_off_c, 6, 78, 127
2, 383468, Note_off_c, 2, 62, 127
2, 383468, Note_off_c, 12, 59, 127
2, 383482, Note_on_c, 1, 61, 127
2, 383482, Note_on_c, 2, 74, 127
2, 383677, Note_off_c, 2, 74, 127
2, 383677, Note_off_c, 1, 61, 127
2, 383691, Note_on_c, 3, 63, 127
2, 383691, Note_on_c, 12, 83, 127
2, 383886, Note_off_c, 12, 83, 127
2, 383886, Note_off_c, 3, 63, 127
2, 383900, Note_on_c, 4, 64, 127
2, 383900, Note_on_c, 12, 71, 127
2, 383900, Note_on_c, 7, 79, 127
2, 384095, Note_off_c, 7, 79, 127
2, 384095, Note_off_c, 12, 71, 127
2, 384109, Note_on_c, 4, 76, 127
2, 384109, Note_on_c, 7, 67, 127
2, 384304, Note_off_c, 7, 67, 127
2, 384304, Note_off_c, 4, 76, 127
2, 384307, Note_off_c, 4, 64, 127
2, 384318, Note_on_c, 3, 63, 127
2, 384318, Note_on_c, 6, 78, 127
2, 384513, Note_off_c, 6, 78, 127
2, 384513, Note_off_c, 3, 63, 127
2, 384527, Note_on_c, 4, 64, 127
2, 384527, Note_on_c, 7, 79, 127
2, 384722, Note_off_c, 7, 79, 127
2, 384722, Note_off_c, 4, 64, 127
2, 384736, Note_on_c, 2, 62, 127
2, 384736, Note_on_c, 4, 76, 127
2, 384931, Note_off_c, 4, 76, 127
2, 384931, Note_off_c, 2, 62, 127
2, 384945, Note_on_c, 1, 61, 127
2, 384945, Note_on_c, 10, 81, 127
2, 385140, Note_off_c, 10, 81, 127
2, 385140, Note_off_c, 1, 61, 127
2, 385154, Note_on_c, 2, 62, 127
2, 385154, Note_on_c, 6, 78, 127
2, 385154, Note_on_c, 10, 69, 127
2, 385349, Note_off_c, 10, 69, 127
2, 385349, Note_off_c, 6, 78, 127
2, 385363, Note_on_c, 6, 66, 127
2, 385363, Note_on_c, 2, 74, 127
2, 385558, Note_off_c, 2, 74, 127
2, 385558, Note_off_c, 6, 66, 127
2, 385561, Note_off_c, 2, 62, 127
2, 385572, Note_on_c, 1, 61, 127
2, 385572, Note_on_c, 4, 76, 127
2, 385767, Note_off_c, 4, 76, 127
2, 385767, Note_off_c, 1, 61, 127
2, 385781, Note_on_c, 2, 62, 127
2, 385781, Note_on_c, 10, 69, 127
2, 385781, Note_on_c, 6, 78, 127
2, 385976, Note_off_c, 6, 78, 127
2, 385976, Note_off_c, 10, 69, 127
2, 385990, Note_on_c, 6, 66, 127
2, 385990, Note_on_c, 2, 74, 127
2, 386185, Note_off_c, 2, 74, 127
2, 386185, Note_off_c, 6, 66, 127
2, 386188, Note_off_c, 2, 62, 127
2, 386199, Note_on_c, 7, 55, 127
2, 386199, Note_on_c, 4, 76, 127
2, 386199, Note_on_c, 12, 71, 127
2, 386394, Note_off_c, 4, 76, 127
2, 386394, Note_off_c, 7, 55, 127
2, 386408, Note_on_c, 10, 57, 127
2, 386408, Note_on_c, 1, 73, 127
2, 386613, Note_off_c, 12, 71, 127
2, 386628, Note_on_c, 10, 69, 127
2, 386833, Note_off_c, 1, 73, 127
2, 386848, Note_on_c, 6, 78, 127
2, 387053, Note_off_c, 6, 78, 127
2, 387056, Note_off_c, 10, 57, 127
2, 387067, Note_on_c, 10, 57, 127
2, 387067, Note_on_c, 12, 71, 127
2, 387275, Note_off_c, 10, 69, 127
2, 387286, Note_on_c, 7, 67, 127
2, 387491, Note_off_c, 12, 71, 127
2, 387506, Note_on_c, 4, 76, 127
2, 387711, Note_off_c, 4, 76, 127
2, 387714, Note_off_c, 10, 57, 127
2, 387725, Note_on_c, 10, 57, 127
2, 387725, Note_on_c, 10, 69, 127
2, 387933, Note_off_c, 7, 67, 127
2, 387944, Note_on_c, 6, 66, 127
2, 388149, Note_off_c, 10, 69, 127
2, 388152, Note_off_c, 10, 57, 127
2, 388163, Note_on_c, 10, 57, 127
2, 388163, Note_on_c, 2, 74, 127
2, 388368, Note_off_c, 2, 74, 127
2, 388368, Note_off_c, 10, 57, 127
2, 388383, Note_on_c, 7, 55, 127
2, 388383, Note_on_c, 12, 71, 127
2, 388591, Note_off_c, 6, 66, 127
2, 388602, Note_on_c, 4, 64, 127
2, 388807, Note_off_c, 12, 71, 127
2, 388810, Note_off_c, 7, 55, 127
2, 388821, Note_on_c, 10, 57, 127
2, 388821, Note_on_c, 1, 73, 127
2, 389026, Note_off_c, 1, 73, 127
2, 389026, Note_off_c, 10, 57, 127
2, 389041, Note_on_c, 6, 54, 127
2, 389041, Note_on_c, 10, 69, 127
2, 389249, Note_off_c, 4, 64, 127
2, 389260, Note_on_c, 2, 62, 127
2, 389465, Note_off_c, 10, 69, 127
2, 389468, Note_off_c, 6, 54, 127
2, 389479, Note_on_c, 7, 55, 127
2, 389479, Note_on_c, 12, 71, 127
2, 389684, Note_off_c, 12, 71, 127
2, 389684, Note_off_c, 7, 55, 127
2, 389699, Note_on_c, 10, 57, 127
2, 389699, Note_on_c, 4, 64, 127
2, 389904, Note_off_c, 4, 64, 127
2, 389919, Note_on_c, 6, 66, 127
2, 390124, Note_off_c, 6, 66, 127
2, 390127, Note_off_c, 10, 57, 127
2, 390127, Note_off_c, 2, 62, 127
2, 390138, Note_on_c, 10, 45, 127
2, 390138, Note_on_c, 1, 61, 127
2, 390138, Note_on_c, 7, 67, 127
2, 390343, Note_off_c, 7, 67, 127
2, 390343, Note_off_c, 1, 61, 127
2, 390343, Note_off_c, 10, 45, 127
2, 390358, Note_on_c, 2, 50, 127
2, 390358, Note_on_c, 6, 66, 127
2, 390358, Note_on_c, 2, 62, 127
2, 390573, Note_off_c, 2, 50, 127
2, 390589, Note_on_c, 2, 50, 127
2, 390692, Note_off_c, 2, 50, 127
2, 390704, Note_on_c, 2, 50, 127
2, 390807, Note_off_c, 2, 50, 127
2, 390807, Note_off_c, 2, 62, 127
2, 390807, Note_off_c, 6, 66, 127
2, 390819, Note_on_c, 2, 50, 127
2, 390819, Note_on_c, 7, 67, 127
2, 390819, Note_on_c, 4, 64, 127
2, 391034, Note_off_c, 4, 64, 127
2, 391034, Note_off_c, 7, 67, 127
2, 391034, Note_off_c, 2, 50, 127
2, 391050, Note_on_c, 2, 50, 127
2, 391050, Note_on_c, 6, 66, 127
2, 391050, Note_on_c, 10, 69, 127
2, 391265, Note_off_c, 10, 69, 127
2, 391265, Note_off_c, 6, 66, 127
2, 391265, Note_off_c, 2, 50, 127
2, 391281, Note_on_c, 2, 50, 127
2, 391281, Note_on_c, 10, 69, 127
2, 391496, Note_off_c, 10, 69, 127
2, 391496, Note_off_c, 2, 50, 127
2, 391512, Note_on_c, 2, 50, 127
2, 391512, Note_on_c, 2, 62, 127
2, 391727, Note_off_c, 2, 62, 127
2, 391727, Note_off_c, 2, 50, 127
2, 391743, Note_on_c, 6, 54, 127
2, 391743, Note_on_c, 2, 50, 127
2, 391743, Note_on_c, 2, 74, 127
2, 391743, Note_on_c, 10, 69, 127
2, 391958, Note_off_c, 10, 69, 127
2, 391958, Note_off_c, 6, 54, 127
2, 391974, Note_on_c, 10, 57, 127
2, 391974, Note_on_c, 6, 66, 127
2, 392189, Note_off_c, 10, 57, 127
2, 392189, Note_off_c, 2, 74, 127
2, 392189, Note_off_c, 2, 50, 127
2, 392205, Note_on_c, 2, 50, 127
2, 392420, Note_off_c, 2, 50, 127
2, 392424, Note_off_c, 6, 66, 127
2, 392436, Note_on_c, 6, 54, 127
2, 392436, Note_on_c, 2, 50, 127
2, 392436, Note_on_c, 2, 74, 127
2, 392436, Note_on_c, 10, 69, 127
2, 392651, Note_off_c, 10, 69, 127
2, 392651, Note_off_c, 6, 54, 127
2, 392667, Note_on_c, 10, 57, 127
2, 392667, Note_on_c, 6, 66, 127
2, 392882, Note_off_c, 10, 57, 127
2, 392882, Note_off_c, 2, 74, 127
2, 392882, Note_off_c, 2, 50, 127
2, 392898, Note_on_c, 2, 50, 127
2, 393113, Note_off_c, 2, 50, 127
2, 393117, Note_off_c, 6, 66, 127
2, 393129, Note_on_c, 7, 55, 127
2, 393129, Note_on_c, 2, 50, 127
2, 393129, Note_on_c, 12, 83, 127
2, 393129, Note_on_c, 2, 74, 127
2, 393344, Note_off_c, 12, 83, 127
2, 393344, Note_off_c, 7, 55, 127
2, 393360, Note_on_c, 12, 59, 127
2, 393360, Note_on_c, 7, 79, 127
2, 393575, Note_off_c, 12, 59, 127
2, 393575, Note_off_c, 2, 74, 127
2, 393575, Note_off_c, 2, 50, 127
2, 393591, Note_on_c, 2, 50, 127
2, 393806, Note_off_c, 2, 50, 127
2, 393810, Note_off_c, 7, 79, 127
2, 393822, Note_on_c, 7, 55, 127
2, 393822, Note_on_c, 2, 50, 127
2, 393822, Note_on_c, 12, 83, 127
2, 393822, Note_on_c, 2, 74, 127
2, 394037, Note_off_c, 12, 83, 127
2, 394037, Note_off_c, 7, 55, 127
2, 394053, Note_on_c, 12, 59, 127
2, 394053, Note_on_c, 7, 79, 127
2, 394268, Note_off_c, 12, 59, 127
2, 394268, Note_off_c, 2, 74, 127
2, 394268, Note_off_c, 2, 50, 127
2, 394284, Note_on_c, 2, 50, 127
2, 394499, Note_off_c, 2, 50, 127
2, 394503, Note_off_c, 7, 79, 127
2, 394515, Note_on_c, 6, 54, 127
2, 394515, Note_on_c, 2, 50, 127
2, 394515, Note_on_c, 10, 81, 127
2, 394515, Note_on_c, 2, 74, 127
2, 394730, Note_off_c, 10, 81, 127
2, 394730, Note_off_c, 6, 54, 127
2, 394746, Note_on_c, 10, 57, 127
2, 394746, Note_on_c, 6, 78, 127
2, 394961, Note_off_c, 6, 78, 127
2, 394961, Note_off_c, 2, 74, 127
2, 394961, Note_off_c, 2, 50, 127
2, 394963, Note_off_c, 10, 57, 127
2, 394976, Note_on_c, 10, 81, 127
2, 395326, Note_off_c, 10, 81, 127
2, 395351, Note_on_c, 2, 74, 127
2, 395351, Note_on_c, 6, 78, 127
2, 395351, Note_on_c, 10, 69, 127
2, 395351, Note_on_c, 10, 57, 127
2, 395351, Note_on_c, 2, 62, 127
2, 395351, Note_on_c, 2, 50, 127
2, 395351, Note_on_c, 6, 54, 127
2, 396029, Note_off_c, 6, 54, 127
2, 396029, Note_off_c, 2, 50, 127
2, 396029, Note_off_c, 2, 62, 127
2, 396029, Note_off_c, 10, 57, 127
2, 396029, Note_off_c, 10, 69, 127
2, 396029, Note_off_c, 6, 78, 127
2, 396029, Note_off_c, 2, 74, 127
2, 400896, End_track
3, 0, Start_track
3, 0, Title_t, "MIDI"
3, 1536, End_track
0, 0, End_of_file
