0, 0, Header, 1, 3, 384
1, 0, Start_track
1, 0, Tempo, 500000
1, 0, Time_signature, 4, 2, 24, 8
1, 462336, End_track
2, 0, Start_track
2, 0, Text_t, "harpsichord: John Sankey"
2, 0, Program_c, 0, 6
2, 0, Pitch_bend_c, 0, 8192
2, 0, Program_c, 1, 6
2, 0, Pitch_bend_c, 1, 7792
2, 0, Program_c, 2, 6
2, 0, Pitch_bend_c, 2, 7876
2, 0, Program_c, 3, 6
2, 0, Pitch_bend_c, 3, 7952
2, 0, Program_c, 4, 6
2, 0, Pitch_bend_c, 4, 7792
2, 0, Program_c, 5, 6
2, 0, Pitch_bend_c, 5, 8112
2, 0, Program_c, 6, 6
2, 0, Pitch_bend_c, 6, 7712
2, 0, Program_c, 7, 6
2, 0, Pitch_bend_c, 7, 8037
2, 0, Program_c, 8, 6
2, 0, Pitch_bend_c, 8, 7872
2, 0, Program_c, 10, 6
2, 0, Pitch_bend_c, 10, 7712
2, 0, Program_c, 11, 6
2, 0, Pitch_bend_c, 11, 8032
2, 0, Program_c, 12, 6
2, 0, Pitch_bend_c, 12, 7872
2, 0, Title_t, "Track 1"
2, 96, Note_on_c, 10, 57, 127
2, 96, Note_on_c, 0, 60, 127
2, 96, Note_on_c, 4, 64, 127
2, 96, Note_on_c, 10, 69, 127
2, 162, Note_on_c, 8, 68, 127
2, 193, Note_off_c, 10, 69, 127
2, 228, Note_off_c, 8, 68, 127
2, 228, Note_on_c, 10, 69, 127
2, 491, Note_off_c, 0, 60, 127
2, 493, Note_off_c, 10, 69, 127
2, 493, Note_on_c, 12, 59, 127
2, 493, Note_on_c, 8, 68, 127
2, 882, Note_off_c, 4, 64, 127
2, 882, Note_off_c, 10, 57, 127
2, 888, Note_off_c, 8, 68, 127
2, 888, Note_off_c, 12, 59, 127
2, 890, Note_on_c, 10, 45, 127
2, 890, Note_on_c, 0, 60, 127
2, 890, Note_on_c, 8, 68, 127
2, 890, Note_on_c, 4, 64, 127
2, 1107, Note_off_c, 8, 68, 127
2, 1109, Note_on_c, 10, 69, 127
2, 1285, Note_off_c, 0, 60, 127
2, 1306, Note_off_c, 10, 69, 127
2, 1308, Note_on_c, 2, 62, 127
2, 1308, Note_on_c, 12, 71, 127
2, 1676, Note_off_c, 4, 64, 127
2, 1676, Note_off_c, 10, 45, 127
2, 1682, Note_off_c, 12, 71, 127
2, 1682, Note_off_c, 2, 62, 127
2, 1684, Note_on_c, 4, 52, 127
2, 1684, Note_on_c, 12, 59, 127
2, 1684, Note_on_c, 10, 69, 127
2, 1684, Note_on_c, 4, 64, 127
2, 1881, Note_off_c, 10, 69, 127
2, 1883, Note_on_c, 8, 68, 127
2, 1980, Note_off_c, 8, 68, 127
2, 1982, Note_on_c, 10, 69, 127
2, 2079, Note_off_c, 10, 69, 127
2, 2081, Note_on_c, 8, 68, 127
2, 2278, Note_off_c, 8, 68, 127
2, 2280, Note_on_c, 6, 66, 127
2, 2470, Note_off_c, 4, 64, 127
2, 2476, Note_off_c, 6, 66, 127
2, 2476, Note_off_c, 12, 59, 127
2, 2478, Note_on_c, 8, 56, 127
2, 2478, Note_on_c, 12, 59, 127
2, 2478, Note_on_c, 4, 64, 127
2, 2873, Note_off_c, 4, 52, 127
2, 2875, Note_on_c, 2, 50, 127
2, 3057, Note_off_c, 4, 64, 127
2, 3057, Note_off_c, 12, 59, 127
2, 3243, Note_off_c, 8, 56, 127
2, 3270, Note_off_c, 2, 50, 127
2, 3272, Note_on_c, 0, 48, 127
2, 3272, Note_on_c, 10, 57, 127
2, 3272, Note_on_c, 10, 69, 127
2, 3272, Note_on_c, 4, 64, 127
2, 4064, Note_off_c, 4, 64, 127
2, 4064, Note_off_c, 10, 69, 127
2, 4064, Note_off_c, 10, 57, 127
2, 4064, Note_off_c, 0, 48, 127
2, 4066, Note_on_c, 8, 44, 127
2, 4066, Note_on_c, 4, 52, 127
2, 4066, Note_on_c, 2, 62, 127
2, 4066, Note_on_c, 10, 69, 127
2, 4364, Note_off_c, 10, 69, 127
2, 4364, Note_on_c, 12, 71, 127
2, 4474, Note_on_c, 10, 69, 127
2, 4486, Note_off_c, 12, 71, 127
2, 4571, Note_off_c, 10, 69, 127
2, 4583, Note_on_c, 12, 71, 127
2, 4852, Note_off_c, 2, 62, 127
2, 4858, Note_off_c, 4, 52, 127
2, 4858, Note_off_c, 8, 44, 127
2, 4860, Note_on_c, 10, 45, 127
2, 4860, Note_on_c, 10, 57, 127
2, 4860, Note_on_c, 4, 52, 127
2, 4860, Note_on_c, 0, 60, 127
2, 4860, Note_on_c, 2, 74, 127
2, 4862, Note_off_c, 12, 71, 127
2, 5056, Note_off_c, 2, 74, 127
2, 5058, Note_on_c, 0, 72, 127
2, 5255, Note_off_c, 0, 72, 127
2, 5257, Note_on_c, 12, 71, 127
2, 5454, Note_off_c, 12, 71, 127
2, 5456, Note_on_c, 10, 69, 127
2, 5646, Note_off_c, 0, 60, 127
2, 5652, Note_off_c, 10, 69, 127
2, 5652, Note_off_c, 4, 52, 127
2, 5652, Note_off_c, 10, 57, 127
2, 5652, Note_off_c, 10, 45, 127
2, 5654, Note_on_c, 10, 57, 127
2, 5654, Note_on_c, 0, 60, 127
2, 5654, Note_on_c, 4, 64, 127
2, 5654, Note_on_c, 10, 69, 127
2, 6049, Note_off_c, 10, 57, 127
2, 6051, Note_on_c, 12, 59, 127
2, 6316, Note_off_c, 10, 69, 127
2, 6316, Note_off_c, 4, 64, 127
2, 6440, Note_off_c, 0, 60, 127
2, 6446, Note_off_c, 12, 59, 127
2, 6448, Note_on_c, 3, 63, 127
2, 6448, Note_on_c, 0, 60, 127
2, 6448, Note_on_c, 6, 78, 127
2, 6448, Note_on_c, 10, 69, 127
2, 6514, Note_on_c, 4, 76, 127
2, 6547, Note_off_c, 6, 78, 127
2, 6580, Note_on_c, 6, 78, 127
2, 6611, Note_off_c, 4, 76, 127
2, 7101, Note_on_c, 7, 79, 127
2, 7107, Note_off_c, 6, 78, 127
2, 7239, Note_off_c, 7, 79, 127
2, 7239, Note_off_c, 3, 63, 127
2, 7241, Note_on_c, 4, 64, 127
2, 7241, Note_on_c, 7, 79, 127
2, 7539, Note_off_c, 7, 79, 127
2, 7539, Note_on_c, 10, 81, 127
2, 7636, Note_off_c, 0, 60, 127
2, 7638, Note_on_c, 12, 59, 127
2, 7648, Note_on_c, 7, 79, 127
2, 7679, Note_off_c, 10, 81, 127
2, 7758, Note_on_c, 10, 81, 127
2, 7789, Note_off_c, 7, 79, 127
2, 7835, Note_off_c, 12, 59, 127
2, 7837, Note_on_c, 10, 57, 127
2, 8027, Note_off_c, 4, 64, 127
2, 8033, Note_off_c, 10, 57, 127
2, 8033, Note_off_c, 10, 69, 127
2, 8035, Note_off_c, 10, 81, 127
2, 8035, Note_on_c, 12, 59, 127
2, 8035, Note_on_c, 6, 78, 127
2, 8035, Note_on_c, 6, 66, 127
2, 8252, Note_off_c, 6, 78, 127
2, 8254, Note_on_c, 4, 76, 127
2, 8430, Note_off_c, 4, 76, 127
2, 8432, Note_on_c, 10, 57, 127
2, 8432, Note_on_c, 3, 75, 127
2, 8629, Note_off_c, 3, 75, 127
2, 8631, Note_on_c, 12, 71, 127
2, 8821, Note_off_c, 6, 66, 127
2, 8827, Note_off_c, 12, 71, 127
2, 8827, Note_off_c, 10, 57, 127
2, 8829, Note_on_c, 7, 55, 127
2, 8829, Note_on_c, 4, 64, 127
2, 8829, Note_on_c, 3, 75, 127
2, 9127, Note_off_c, 3, 75, 127
2, 9127, Note_on_c, 4, 76, 127
2, 9224, Note_off_c, 7, 55, 127
2, 9226, Note_on_c, 10, 57, 127
2, 9425, Note_off_c, 4, 76, 127
2, 9425, Note_on_c, 7, 67, 127
2, 9622, Note_off_c, 7, 67, 127
2, 9622, Note_off_c, 10, 57, 127
2, 9622, Note_off_c, 12, 59, 127
2, 9624, Note_on_c, 12, 59, 127
2, 9624, Note_on_c, 7, 67, 127
2, 9821, Note_off_c, 7, 67, 127
2, 9823, Note_on_c, 6, 66, 127
2, 9920, Note_off_c, 6, 66, 127
2, 9922, Note_on_c, 7, 67, 127
2, 10019, Note_off_c, 7, 67, 127
2, 10021, Note_on_c, 6, 66, 127
2, 10118, Note_off_c, 6, 66, 127
2, 10120, Note_on_c, 7, 67, 127
2, 10217, Note_off_c, 7, 67, 127
2, 10219, Note_on_c, 6, 66, 127
2, 10416, Note_off_c, 12, 59, 127
2, 10416, Note_off_c, 4, 64, 127
2, 10418, Note_on_c, 6, 54, 127
2, 10418, Note_on_c, 12, 47, 127
2, 10418, Note_on_c, 3, 63, 127
2, 10799, Note_off_c, 6, 66, 127
2, 10813, Note_off_c, 3, 63, 127
2, 10813, Note_off_c, 6, 54, 127
2, 10815, Note_on_c, 8, 56, 127
2, 10815, Note_on_c, 4, 64, 127
2, 11012, Note_off_c, 8, 56, 127
2, 11014, Note_on_c, 10, 57, 127
2, 11204, Note_off_c, 12, 47, 127
2, 11210, Note_off_c, 4, 64, 127
2, 11212, Note_on_c, 4, 52, 127
2, 11212, Note_on_c, 4, 64, 127
2, 11309, Note_off_c, 4, 64, 127
2, 11311, Note_on_c, 3, 63, 127
2, 11408, Note_off_c, 3, 63, 127
2, 11410, Note_on_c, 4, 64, 127
2, 11592, Note_off_c, 10, 57, 127
2, 11609, Note_on_c, 8, 56, 127
2, 11806, Note_off_c, 8, 56, 127
2, 11808, Note_on_c, 6, 54, 127
2, 11998, Note_off_c, 4, 52, 127
2, 12004, Note_off_c, 6, 54, 127
2, 12006, Note_on_c, 4, 40, 127
2, 12006, Note_on_c, 8, 56, 127
2, 12006, Note_on_c, 12, 59, 127
2, 12709, Note_off_c, 12, 59, 127
2, 12750, Note_off_c, 8, 56, 127
2, 12750, Note_off_c, 4, 40, 127
2, 12787, Note_off_c, 4, 64, 127
2, 12799, Note_on_c, 0, 48, 127
2, 12799, Note_on_c, 7, 55, 127
2, 12799, Note_on_c, 4, 64, 127
2, 12799, Note_on_c, 12, 71, 127
2, 12996, Note_off_c, 12, 71, 127
2, 12998, Note_on_c, 0, 72, 127
2, 13192, Note_off_c, 4, 64, 127
2, 13194, Note_off_c, 0, 72, 127
2, 13196, Note_on_c, 2, 62, 127
2, 13196, Note_on_c, 0, 72, 127
2, 13393, Note_off_c, 0, 72, 127
2, 13395, Note_on_c, 12, 71, 127
2, 13579, Note_off_c, 7, 55, 127
2, 13589, Note_off_c, 2, 62, 127
2, 13591, Note_off_c, 12, 71, 127
2, 13593, Note_on_c, 0, 36, 127
2, 13593, Note_on_c, 4, 64, 127
2, 13593, Note_on_c, 12, 71, 127
2, 13790, Note_off_c, 12, 71, 127
2, 13792, Note_on_c, 0, 72, 127
2, 13986, Note_off_c, 4, 64, 127
2, 13988, Note_off_c, 0, 72, 127
2, 13990, Note_on_c, 5, 65, 127
2, 13990, Note_on_c, 0, 72, 127
2, 14187, Note_off_c, 0, 72, 127
2, 14189, Note_on_c, 2, 74, 127
2, 14370, Note_off_c, 0, 48, 127
2, 14383, Note_off_c, 5, 65, 127
2, 14385, Note_off_c, 2, 74, 127
2, 14385, Note_off_c, 0, 36, 127
2, 14387, Note_on_c, 7, 55, 127
2, 14387, Note_on_c, 0, 72, 127
2, 14387, Note_on_c, 2, 62, 127
2, 14478, Note_on_c, 12, 71, 127
2, 14536, Note_off_c, 0, 72, 127
2, 14569, Note_on_c, 0, 72, 127
2, 14627, Note_off_c, 12, 71, 127
2, 14660, Note_on_c, 12, 71, 127
2, 14718, Note_off_c, 0, 72, 127
2, 14784, Note_on_c, 10, 57, 127
2, 14784, Note_on_c, 10, 69, 127
2, 14809, Note_off_c, 12, 71, 127
2, 14981, Note_off_c, 10, 69, 127
2, 14983, Note_on_c, 7, 67, 127
2, 15180, Note_off_c, 7, 67, 127
2, 15180, Note_off_c, 10, 57, 127
2, 15182, Note_on_c, 12, 59, 127
2, 15182, Note_on_c, 7, 67, 127
2, 15577, Note_off_c, 7, 55, 127
2, 15579, Note_on_c, 6, 54, 127
2, 15968, Note_off_c, 12, 59, 127
2, 15974, Note_off_c, 6, 54, 127
2, 15974, Note_off_c, 7, 67, 127
2, 15974, Note_off_c, 2, 62, 127
2, 15976, Note_on_c, 4, 52, 127
2, 15976, Note_on_c, 12, 59, 127
2, 15976, Note_on_c, 7, 67, 127
2, 15976, Note_on_c, 3, 75, 127
2, 16173, Note_off_c, 3, 75, 127
2, 16175, Note_on_c, 4, 76, 127
2, 16369, Note_off_c, 7, 67, 127
2, 16371, Note_off_c, 4, 76, 127
2, 16373, Note_on_c, 6, 66, 127
2, 16373, Note_on_c, 4, 76, 127
2, 16570, Note_off_c, 4, 76, 127
2, 16572, Note_on_c, 3, 75, 127
2, 16746, Note_off_c, 12, 59, 127
2, 16766, Note_off_c, 6, 66, 127
2, 16768, Note_off_c, 3, 75, 127
2, 16770, Note_on_c, 4, 40, 127
2, 16770, Note_on_c, 3, 75, 127
2, 16770, Note_on_c, 7, 67, 127
2, 16967, Note_off_c, 3, 75, 127
2, 16969, Note_on_c, 4, 76, 127
2, 17163, Note_off_c, 7, 67, 127
2, 17165, Note_off_c, 4, 76, 127
2, 17167, Note_on_c, 10, 69, 127
2, 17167, Note_on_c, 4, 76, 127
2, 17364, Note_off_c, 4, 76, 127
2, 17366, Note_on_c, 6, 78, 127
2, 17550, Note_off_c, 4, 52, 127
2, 17560, Note_off_c, 10, 69, 127
2, 17562, Note_off_c, 6, 78, 127
2, 17562, Note_off_c, 4, 40, 127
2, 17564, Note_on_c, 12, 59, 127
2, 17564, Note_on_c, 6, 66, 127
2, 17564, Note_on_c, 4, 76, 127
2, 17686, Note_off_c, 4, 76, 127
2, 17709, Note_on_c, 3, 75, 127
2, 17786, Note_on_c, 4, 76, 127
2, 17807, Note_off_c, 3, 75, 127
2, 17863, Note_on_c, 3, 75, 127
2, 17909, Note_off_c, 4, 76, 127
2, 17961, Note_off_c, 3, 75, 127
2, 17963, Note_on_c, 1, 61, 127
2, 17963, Note_on_c, 1, 73, 127
2, 18160, Note_off_c, 1, 73, 127
2, 18162, Note_on_c, 12, 71, 127
2, 18359, Note_off_c, 12, 71, 127
2, 18359, Note_off_c, 1, 61, 127
2, 18361, Note_on_c, 3, 63, 127
2, 18361, Note_on_c, 12, 71, 127
2, 18756, Note_off_c, 12, 59, 127
2, 18758, Note_on_c, 10, 57, 127
2, 19023, Note_off_c, 12, 71, 127
2, 19097, Note_off_c, 6, 66, 127
2, 19147, Note_off_c, 3, 63, 127
2, 19153, Note_off_c, 10, 57, 127
2, 19155, Note_on_c, 12, 59, 127
2, 19155, Note_on_c, 8, 56, 127
2, 19155, Note_on_c, 4, 64, 127
2, 19155, Note_on_c, 2, 74, 127
2, 19254, Note_on_c, 1, 73, 127
2, 19304, Note_off_c, 2, 74, 127
2, 19354, Note_on_c, 2, 74, 127
2, 19404, Note_off_c, 1, 73, 127
2, 19551, Note_off_c, 2, 74, 127
2, 19553, Note_on_c, 1, 73, 127
2, 19948, Note_off_c, 1, 73, 127
2, 19948, Note_off_c, 8, 56, 127
2, 19950, Note_on_c, 4, 52, 127
2, 19950, Note_on_c, 2, 74, 127
2, 19950, Note_on_c, 8, 68, 127
2, 20188, Note_off_c, 2, 74, 127
2, 20190, Note_on_c, 4, 76, 127
2, 20269, Note_on_c, 2, 74, 127
2, 20286, Note_off_c, 4, 76, 127
2, 20348, Note_on_c, 4, 76, 127
2, 20365, Note_off_c, 2, 74, 127
2, 20737, Note_off_c, 8, 68, 127
2, 20743, Note_off_c, 4, 76, 127
2, 20743, Note_off_c, 4, 52, 127
2, 20743, Note_off_c, 4, 64, 127
2, 20743, Note_off_c, 12, 59, 127
2, 20745, Note_on_c, 10, 57, 127
2, 20745, Note_on_c, 10, 69, 127
2, 20745, Note_on_c, 4, 64, 127
2, 20745, Note_on_c, 1, 73, 127
2, 21140, Note_off_c, 10, 57, 127
2, 21142, Note_on_c, 7, 55, 127
2, 21537, Note_off_c, 7, 55, 127
2, 21537, Note_off_c, 1, 73, 127
2, 21537, Note_off_c, 4, 64, 127
2, 21537, Note_off_c, 10, 69, 127
2, 21539, Note_on_c, 5, 53, 127
2, 21539, Note_on_c, 2, 74, 127
2, 21539, Note_on_c, 2, 62, 127
2, 21870, Note_off_c, 2, 74, 127
2, 21934, Note_off_c, 5, 53, 127
2, 21936, Note_on_c, 2, 50, 127
2, 21936, Note_on_c, 5, 65, 127
2, 22288, Note_off_c, 5, 65, 127
2, 22331, Note_off_c, 2, 50, 127
2, 22333, Note_on_c, 11, 58, 127
2, 22333, Note_on_c, 7, 43, 127
2, 22333, Note_on_c, 5, 65, 127
2, 22530, Note_off_c, 5, 65, 127
2, 22532, Note_on_c, 4, 64, 127
2, 22598, Note_off_c, 4, 64, 127
2, 22598, Note_on_c, 5, 65, 127
2, 22664, Note_off_c, 5, 65, 127
2, 22664, Note_on_c, 4, 64, 127
2, 22728, Note_off_c, 7, 43, 127
2, 22728, Note_off_c, 11, 58, 127
2, 22730, Note_off_c, 4, 64, 127
2, 22730, Note_on_c, 10, 57, 127
2, 22730, Note_on_c, 11, 46, 127
2, 22730, Note_on_c, 5, 65, 127
2, 22796, Note_off_c, 5, 65, 127
2, 22796, Note_on_c, 4, 64, 127
2, 22926, Note_off_c, 10, 57, 127
2, 22928, Note_on_c, 7, 55, 127
2, 23110, Note_off_c, 2, 62, 127
2, 23122, Note_off_c, 11, 46, 127
2, 23124, Note_off_c, 7, 55, 127
2, 23126, Note_on_c, 10, 45, 127
2, 23126, Note_on_c, 10, 57, 127
2, 23126, Note_on_c, 2, 62, 127
2, 23323, Note_off_c, 2, 62, 127
2, 23325, Note_on_c, 1, 61, 127
2, 23391, Note_on_c, 2, 62, 127
2, 23395, Note_off_c, 1, 61, 127
2, 23457, Note_on_c, 1, 61, 127
2, 23461, Note_off_c, 2, 62, 127
2, 23521, Note_off_c, 10, 57, 127
2, 23523, Note_on_c, 4, 52, 127
2, 23523, Note_on_c, 2, 62, 127
2, 23527, Note_off_c, 1, 61, 127
2, 23589, Note_on_c, 1, 61, 127
2, 23593, Note_off_c, 2, 62, 127
2, 23719, Note_off_c, 4, 52, 127
2, 23721, Note_on_c, 7, 55, 127
2, 23787, Note_off_c, 4, 64, 127
2, 23911, Note_off_c, 10, 45, 127
2, 23919, Note_on_c, 2, 50, 127
2, 23919, Note_on_c, 2, 62, 127
2, 23921, Note_off_c, 1, 61, 127
2, 24300, Note_off_c, 7, 55, 127
2, 24317, Note_on_c, 6, 54, 127
2, 24514, Note_off_c, 6, 54, 127
2, 24516, Note_on_c, 4, 52, 127
2, 24706, Note_off_c, 2, 50, 127
2, 24712, Note_off_c, 4, 52, 127
2, 24714, Note_on_c, 2, 38, 127
2, 24714, Note_on_c, 6, 54, 127
2, 24714, Note_on_c, 10, 57, 127
2, 25109, Note_off_c, 2, 62, 127
2, 25293, Note_off_c, 10, 57, 127
2, 25506, Note_off_c, 6, 54, 127
2, 25506, Note_off_c, 2, 38, 127
2, 25508, Note_on_c, 2, 50, 127
2, 25508, Note_on_c, 10, 57, 127
2, 25508, Note_on_c, 5, 77, 127
2, 25508, Note_on_c, 10, 69, 127
2, 25508, Note_on_c, 2, 62, 127
2, 25607, Note_on_c, 4, 76, 127
2, 25659, Note_off_c, 5, 77, 127
2, 25707, Note_on_c, 5, 77, 127
2, 25759, Note_off_c, 4, 76, 127
2, 25904, Note_off_c, 5, 77, 127
2, 25906, Note_on_c, 7, 79, 127
2, 26295, Note_off_c, 2, 62, 127
2, 26301, Note_off_c, 7, 79, 127
2, 26301, Note_off_c, 2, 50, 127
2, 26303, Note_on_c, 0, 48, 127
2, 26303, Note_on_c, 7, 79, 127
2, 26500, Note_off_c, 7, 79, 127
2, 26502, Note_on_c, 10, 81, 127
2, 26698, Note_off_c, 10, 81, 127
2, 26698, Note_off_c, 0, 48, 127
2, 26698, Note_off_c, 10, 69, 127
2, 26698, Note_off_c, 10, 57, 127
2, 26700, Note_on_c, 11, 46, 127
2, 26700, Note_on_c, 2, 62, 127
2, 26700, Note_on_c, 7, 67, 127
2, 26700, Note_on_c, 2, 74, 127
2, 27095, Note_off_c, 2, 74, 127
2, 27095, Note_off_c, 7, 67, 127
2, 27095, Note_off_c, 2, 62, 127
2, 27095, Note_off_c, 11, 46, 127
2, 27097, Note_on_c, 4, 64, 127
2, 27097, Note_on_c, 10, 45, 127
2, 27097, Note_on_c, 10, 69, 127
2, 27097, Note_on_c, 2, 74, 127
2, 27196, Note_on_c, 1, 73, 127
2, 27229, Note_off_c, 2, 74, 127
2, 27295, Note_off_c, 1, 73, 127
2, 27295, Note_on_c, 2, 74, 127
2, 27394, Note_off_c, 2, 74, 127
2, 27394, Note_on_c, 1, 73, 127
2, 27491, Note_off_c, 4, 64, 127
2, 27493, Note_off_c, 1, 73, 127
2, 27493, Note_on_c, 2, 62, 127
2, 27493, Note_on_c, 12, 71, 127
2, 27882, Note_off_c, 10, 69, 127
2, 27888, Note_off_c, 12, 71, 127
2, 27888, Note_off_c, 2, 62, 127
2, 27890, Note_on_c, 1, 61, 127
2, 27890, Note_on_c, 4, 64, 127
2, 27890, Note_on_c, 12, 71, 127
2, 28285, Note_off_c, 12, 71, 127
2, 28287, Note_on_c, 10, 69, 127
2, 28593, Note_off_c, 4, 64, 127
2, 28618, Note_off_c, 10, 69, 127
2, 28682, Note_off_c, 1, 61, 127
2, 28682, Note_off_c, 10, 45, 127
2, 28684, Note_on_c, 10, 57, 127
2, 28684, Note_on_c, 10, 69, 127
2, 28684, Note_on_c, 4, 64, 127
2, 28684, Note_on_c, 0, 72, 127
2, 28783, Note_on_c, 12, 71, 127
2, 28833, Note_off_c, 0, 72, 127
2, 28883, Note_on_c, 0, 72, 127
2, 28933, Note_off_c, 12, 71, 127
2, 29080, Note_off_c, 0, 72, 127
2, 29082, Note_on_c, 2, 74, 127
2, 29471, Note_off_c, 10, 69, 127
2, 29477, Note_off_c, 2, 74, 127
2, 29477, Note_off_c, 10, 57, 127
2, 29479, Note_on_c, 7, 55, 127
2, 29479, Note_on_c, 12, 59, 127
2, 29479, Note_on_c, 2, 74, 127
2, 29676, Note_off_c, 2, 74, 127
2, 29678, Note_on_c, 4, 76, 127
2, 29875, Note_off_c, 4, 76, 127
2, 29875, Note_off_c, 12, 59, 127
2, 29875, Note_off_c, 7, 55, 127
2, 29875, Note_off_c, 4, 64, 127
2, 29877, Note_on_c, 5, 53, 127
2, 29877, Note_on_c, 2, 62, 127
2, 29877, Note_on_c, 10, 69, 127
2, 30272, Note_off_c, 10, 69, 127
2, 30272, Note_off_c, 2, 62, 127
2, 30272, Note_off_c, 5, 53, 127
2, 30274, Note_on_c, 4, 52, 127
2, 30274, Note_on_c, 12, 59, 127
2, 30274, Note_on_c, 4, 64, 127
2, 30274, Note_on_c, 10, 69, 127
2, 30415, Note_off_c, 10, 69, 127
2, 30415, Note_on_c, 8, 68, 127
2, 30494, Note_on_c, 10, 69, 127
2, 30498, Note_off_c, 8, 68, 127
2, 30572, Note_on_c, 8, 68, 127
2, 30576, Note_off_c, 10, 69, 127
2, 30669, Note_off_c, 12, 59, 127
2, 30671, Note_on_c, 10, 57, 127
2, 30671, Note_on_c, 6, 66, 127
2, 30683, Note_off_c, 8, 68, 127
2, 31060, Note_off_c, 4, 64, 127
2, 31066, Note_off_c, 6, 66, 127
2, 31066, Note_off_c, 10, 57, 127
2, 31068, Note_on_c, 8, 56, 127
2, 31068, Note_on_c, 4, 64, 127
2, 31068, Note_on_c, 12, 59, 127
2, 31647, Note_off_c, 4, 64, 127
2, 31730, Note_off_c, 12, 59, 127
2, 31833, Note_off_c, 8, 56, 127
2, 31860, Note_off_c, 4, 52, 127
2, 31862, Note_on_c, 12, 59, 127
2, 31862, Note_on_c, 2, 50, 127
2, 31862, Note_on_c, 2, 62, 127
2, 31862, Note_on_c, 2, 74, 127
2, 32059, Note_off_c, 2, 74, 127
2, 32061, Note_on_c, 4, 76, 127
2, 32258, Note_off_c, 4, 76, 127
2, 32260, Note_on_c, 5, 77, 127
2, 32655, Note_off_c, 5, 77, 127
2, 32657, Note_on_c, 4, 76, 127
2, 32729, Note_on_c, 2, 74, 127
2, 32739, Note_off_c, 4, 76, 127
2, 32801, Note_on_c, 4, 76, 127
2, 32811, Note_off_c, 2, 74, 127
2, 32873, Note_on_c, 2, 74, 127
2, 32883, Note_off_c, 4, 76, 127
2, 33053, Note_on_c, 12, 71, 127
2, 33065, Note_off_c, 2, 74, 127
2, 33448, Note_off_c, 12, 71, 127
2, 33448, Note_off_c, 2, 62, 127
2, 33450, Note_on_c, 4, 64, 127
2, 33450, Note_on_c, 10, 69, 127
2, 33647, Note_off_c, 10, 69, 127
2, 33649, Note_on_c, 8, 68, 127
2, 33843, Note_off_c, 4, 64, 127
2, 33847, Note_on_c, 4, 64, 127
2, 34041, Note_off_c, 8, 68, 127
2, 34242, Note_off_c, 4, 64, 127
2, 34242, Note_off_c, 2, 50, 127
2, 34242, Note_off_c, 12, 59, 127
2, 34244, Note_on_c, 6, 54, 127
2, 34244, Note_on_c, 3, 51, 127
2, 34244, Note_on_c, 8, 68, 127
2, 34441, Note_off_c, 8, 68, 127
2, 34443, Note_on_c, 10, 69, 127
2, 34642, Note_on_c, 0, 60, 127
2, 35037, Note_off_c, 0, 60, 127
2, 35037, Note_off_c, 3, 51, 127
2, 35037, Note_off_c, 6, 54, 127
2, 35039, Note_on_c, 4, 52, 127
2, 35039, Note_on_c, 12, 59, 127
2, 35436, Note_on_c, 0, 60, 127
2, 35633, Note_off_c, 10, 69, 127
2, 35635, Note_on_c, 12, 71, 127
2, 35732, Note_off_c, 12, 71, 127
2, 35734, Note_on_c, 0, 72, 127
2, 35829, Note_off_c, 0, 60, 127
2, 35831, Note_off_c, 0, 72, 127
2, 35831, Note_off_c, 4, 52, 127
2, 35833, Note_on_c, 4, 40, 127
2, 35833, Note_on_c, 2, 62, 127
2, 35833, Note_on_c, 10, 69, 127
2, 36001, Note_off_c, 10, 69, 127
2, 36001, Note_on_c, 8, 68, 127
2, 36078, Note_on_c, 10, 69, 127
2, 36084, Note_off_c, 8, 68, 127
2, 36154, Note_on_c, 8, 68, 127
2, 36160, Note_off_c, 10, 69, 127
2, 36230, Note_on_c, 10, 69, 127
2, 36236, Note_off_c, 8, 68, 127
2, 36306, Note_on_c, 8, 68, 127
2, 36312, Note_off_c, 10, 69, 127
2, 36440, Note_on_c, 10, 69, 127
2, 36450, Note_off_c, 8, 68, 127
2, 36613, Note_off_c, 10, 69, 127
2, 36623, Note_off_c, 4, 40, 127
2, 36623, Note_off_c, 12, 59, 127
2, 36625, Note_on_c, 10, 45, 127
2, 36625, Note_on_c, 10, 69, 127
2, 36625, Note_on_c, 4, 64, 127
2, 37020, Note_off_c, 2, 62, 127
2, 37022, Note_on_c, 1, 61, 127
2, 37219, Note_off_c, 1, 61, 127
2, 37221, Note_on_c, 12, 59, 127
2, 37418, Note_off_c, 12, 59, 127
2, 37420, Note_on_c, 12, 59, 127
2, 37815, Note_off_c, 12, 59, 127
2, 37817, Note_on_c, 1, 61, 127
2, 38032, Note_off_c, 10, 69, 127
2, 38212, Note_off_c, 1, 61, 127
2, 38212, Note_off_c, 4, 64, 127
2, 38212, Note_off_c, 10, 45, 127
2, 38230, Note_on_c, 10, 57, 127
2, 38230, Note_on_c, 10, 69, 127
2, 38296, Note_on_c, 8, 68, 127
2, 38327, Note_off_c, 10, 69, 127
2, 38362, Note_off_c, 8, 68, 127
2, 38362, Note_on_c, 10, 69, 127
2, 38627, Note_off_c, 10, 69, 127
2, 38627, Note_on_c, 0, 72, 127
2, 38824, Note_off_c, 0, 72, 127
2, 38826, Note_on_c, 4, 76, 127
2, 39023, Note_off_c, 4, 76, 127
2, 39023, Note_off_c, 10, 57, 127
2, 39025, Note_on_c, 10, 45, 127
2, 39025, Note_on_c, 2, 74, 127
2, 39091, Note_off_c, 2, 74, 127
2, 39091, Note_on_c, 0, 72, 127
2, 39157, Note_off_c, 0, 72, 127
2, 39157, Note_on_c, 2, 74, 127
2, 39223, Note_off_c, 2, 74, 127
2, 39223, Note_on_c, 0, 72, 127
2, 39420, Note_off_c, 0, 72, 127
2, 39422, Note_on_c, 10, 69, 127
2, 39619, Note_off_c, 10, 69, 127
2, 39621, Note_on_c, 0, 72, 127
2, 39818, Note_off_c, 0, 72, 127
2, 39818, Note_off_c, 10, 45, 127
2, 39820, Note_on_c, 4, 52, 127
2, 39820, Note_on_c, 10, 69, 127
2, 39886, Note_off_c, 10, 69, 127
2, 39886, Note_on_c, 8, 68, 127
2, 39952, Note_off_c, 8, 68, 127
2, 39952, Note_on_c, 10, 69, 127
2, 40018, Note_off_c, 10, 69, 127
2, 40018, Note_on_c, 8, 68, 127
2, 40215, Note_off_c, 8, 68, 127
2, 40217, Note_on_c, 12, 71, 127
2, 40414, Note_off_c, 12, 71, 127
2, 40416, Note_on_c, 4, 76, 127
2, 40613, Note_off_c, 4, 76, 127
2, 40613, Note_off_c, 4, 52, 127
2, 40615, Note_on_c, 4, 40, 127
2, 40615, Note_on_c, 10, 69, 127
2, 40681, Note_off_c, 10, 69, 127
2, 40681, Note_on_c, 8, 68, 127
2, 40747, Note_off_c, 8, 68, 127
2, 40747, Note_on_c, 10, 69, 127
2, 40813, Note_off_c, 10, 69, 127
2, 40813, Note_on_c, 8, 68, 127
2, 41010, Note_off_c, 8, 68, 127
2, 41012, Note_on_c, 4, 64, 127
2, 41209, Note_off_c, 4, 64, 127
2, 41211, Note_on_c, 8, 68, 127
2, 41408, Note_off_c, 8, 68, 127
2, 41408, Note_off_c, 4, 40, 127
2, 41410, Note_on_c, 10, 57, 127
2, 41410, Note_on_c, 10, 69, 127
2, 41507, Note_off_c, 10, 69, 127
2, 41509, Note_on_c, 8, 68, 127
2, 41606, Note_off_c, 8, 68, 127
2, 41608, Note_on_c, 10, 69, 127
2, 41805, Note_off_c, 10, 57, 127
2, 41807, Note_on_c, 0, 60, 127
2, 42004, Note_off_c, 0, 60, 127
2, 42006, Note_on_c, 4, 64, 127
2, 42203, Note_off_c, 4, 64, 127
2, 42203, Note_off_c, 10, 69, 127
2, 42205, Note_on_c, 8, 56, 127
2, 42205, Note_on_c, 0, 72, 127
2, 42437, Note_off_c, 0, 72, 127
2, 42439, Note_on_c, 12, 71, 127
2, 42534, Note_off_c, 12, 71, 127
2, 42536, Note_on_c, 0, 72, 127
2, 42600, Note_off_c, 8, 56, 127
2, 42602, Note_off_c, 0, 72, 127
2, 42602, Note_on_c, 4, 52, 127
2, 42602, Note_on_c, 12, 71, 127
2, 42668, Note_off_c, 12, 71, 127
2, 42668, Note_on_c, 0, 72, 127
2, 42734, Note_off_c, 0, 72, 127
2, 42734, Note_on_c, 12, 71, 127
2, 42798, Note_off_c, 4, 52, 127
2, 42800, Note_off_c, 12, 71, 127
2, 42800, Note_on_c, 8, 56, 127
2, 42800, Note_on_c, 10, 69, 127
2, 42899, Note_off_c, 10, 69, 127
2, 42899, Note_on_c, 12, 71, 127
2, 42996, Note_off_c, 12, 71, 127
2, 42996, Note_off_c, 8, 56, 127
2, 42998, Note_on_c, 10, 57, 127
2, 42998, Note_on_c, 0, 72, 127
2, 43064, Note_on_c, 12, 71, 127
2, 43095, Note_off_c, 0, 72, 127
2, 43130, Note_off_c, 12, 71, 127
2, 43130, Note_on_c, 0, 72, 127
2, 43395, Note_off_c, 0, 72, 127
2, 43395, Note_on_c, 4, 76, 127
2, 43592, Note_off_c, 4, 76, 127
2, 43594, Note_on_c, 0, 72, 127
2, 43791, Note_off_c, 0, 72, 127
2, 43791, Note_off_c, 10, 57, 127
2, 43793, Note_on_c, 10, 45, 127
2, 43793, Note_on_c, 10, 69, 127
2, 44145, Note_off_c, 10, 69, 127
2, 44188, Note_off_c, 10, 45, 127
2, 44190, Note_on_c, 10, 57, 127
2, 44190, Note_on_c, 0, 84, 127
2, 44387, Note_off_c, 0, 84, 127
2, 44389, Note_on_c, 10, 81, 127
2, 44586, Note_off_c, 10, 81, 127
2, 44586, Note_off_c, 10, 57, 127
2, 44588, Note_on_c, 0, 60, 127
2, 44588, Note_on_c, 7, 79, 127
2, 44654, Note_off_c, 7, 79, 127
2, 44654, Note_on_c, 6, 78, 127
2, 44720, Note_off_c, 6, 78, 127
2, 44720, Note_on_c, 7, 79, 127
2, 44786, Note_off_c, 7, 79, 127
2, 44786, Note_on_c, 6, 78, 127
2, 44983, Note_off_c, 0, 60, 127
2, 44985, Note_on_c, 10, 57, 127
2, 45101, Note_on_c, 7, 79, 127
2, 45103, Note_off_c, 6, 78, 127
2, 45182, Note_off_c, 10, 57, 127
2, 45184, Note_off_c, 7, 79, 127
2, 45184, Note_on_c, 0, 60, 127
2, 45184, Note_on_c, 6, 78, 127
2, 45250, Note_off_c, 6, 78, 127
2, 45250, Note_on_c, 4, 76, 127
2, 45316, Note_off_c, 4, 76, 127
2, 45316, Note_on_c, 6, 78, 127
2, 45380, Note_off_c, 0, 60, 127
2, 45382, Note_off_c, 6, 78, 127
2, 45382, Note_on_c, 6, 54, 127
2, 45382, Note_on_c, 7, 79, 127
2, 45777, Note_off_c, 6, 54, 127
2, 45779, Note_on_c, 10, 57, 127
2, 45961, Note_off_c, 7, 79, 127
2, 45975, Note_off_c, 10, 57, 127
2, 45977, Note_on_c, 6, 54, 127
2, 45977, Note_on_c, 10, 81, 127
2, 46174, Note_off_c, 10, 81, 127
2, 46174, Note_off_c, 6, 54, 127
2, 46176, Note_on_c, 12, 59, 127
2, 46176, Note_on_c, 4, 76, 127
2, 46242, Note_off_c, 4, 76, 127
2, 46242, Note_on_c, 3, 75, 127
2, 46308, Note_off_c, 3, 75, 127
2, 46308, Note_on_c, 4, 76, 127
2, 46374, Note_off_c, 4, 76, 127
2, 46374, Note_on_c, 3, 75, 127
2, 46571, Note_off_c, 12, 59, 127
2, 46573, Note_off_c, 3, 75, 127
2, 46573, Note_on_c, 10, 57, 127
2, 46573, Note_on_c, 6, 78, 127
2, 46770, Note_off_c, 6, 78, 127
2, 46772, Note_on_c, 12, 71, 127
2, 46969, Note_off_c, 12, 71, 127
2, 46969, Note_off_c, 10, 57, 127
2, 46971, Note_on_c, 7, 55, 127
2, 46971, Note_on_c, 4, 76, 127
2, 47366, Note_off_c, 4, 76, 127
2, 47366, Note_off_c, 7, 55, 127
2, 47368, Note_on_c, 0, 60, 127
2, 47368, Note_on_c, 4, 64, 127
2, 47565, Note_off_c, 4, 64, 127
2, 47567, Note_on_c, 7, 67, 127
2, 47764, Note_off_c, 7, 67, 127
2, 47764, Note_off_c, 0, 60, 127
2, 47766, Note_on_c, 10, 57, 127
2, 47766, Note_on_c, 10, 69, 127
2, 47863, Note_off_c, 10, 69, 127
2, 47865, Note_on_c, 12, 71, 127
2, 47962, Note_off_c, 12, 71, 127
2, 47964, Note_on_c, 0, 72, 127
2, 48161, Note_off_c, 0, 72, 127
2, 48161, Note_off_c, 10, 57, 127
2, 48163, Note_on_c, 6, 54, 127
2, 48163, Note_on_c, 10, 69, 127
2, 48360, Note_off_c, 10, 69, 127
2, 48362, Note_on_c, 6, 66, 127
2, 48559, Note_off_c, 6, 66, 127
2, 48559, Note_off_c, 6, 54, 127
2, 48561, Note_on_c, 12, 59, 127
2, 48561, Note_on_c, 4, 64, 127
2, 48826, Note_off_c, 4, 64, 127
2, 48826, Note_on_c, 3, 63, 127
2, 48892, Note_off_c, 3, 63, 127
2, 48892, Note_on_c, 4, 64, 127
2, 48956, Note_off_c, 12, 59, 127
2, 48958, Note_off_c, 4, 64, 127
2, 48958, Note_on_c, 12, 47, 127
2, 48958, Note_on_c, 3, 63, 127
2, 49155, Note_off_c, 3, 63, 127
2, 49157, Note_on_c, 3, 63, 127
2, 49354, Note_off_c, 3, 63, 127
2, 49354, Note_off_c, 12, 47, 127
2, 49356, Note_on_c, 4, 52, 127
2, 49356, Note_on_c, 4, 64, 127
2, 49422, Note_on_c, 3, 63, 127
2, 49453, Note_off_c, 4, 64, 127
2, 49488, Note_off_c, 3, 63, 127
2, 49488, Note_on_c, 4, 64, 127
2, 49751, Note_off_c, 4, 52, 127
2, 49753, Note_on_c, 8, 56, 127
2, 49950, Note_off_c, 8, 56, 127
2, 49952, Note_on_c, 12, 59, 127
2, 50149, Note_off_c, 12, 59, 127
2, 50151, Note_on_c, 8, 56, 127
2, 50348, Note_off_c, 8, 56, 127
2, 50350, Note_on_c, 4, 52, 127
2, 50549, Note_on_c, 4, 40, 127
2, 50731, Note_off_c, 4, 64, 127
2, 50847, Note_off_c, 4, 52, 127
2, 50944, Note_off_c, 4, 40, 127
2, 50946, Note_on_c, 0, 48, 127
2, 50946, Note_on_c, 0, 72, 127
2, 51012, Note_off_c, 0, 72, 127
2, 51012, Note_on_c, 12, 71, 127
2, 51078, Note_off_c, 12, 71, 127
2, 51078, Note_on_c, 0, 72, 127
2, 51343, Note_off_c, 0, 72, 127
2, 51343, Note_on_c, 4, 76, 127
2, 51540, Note_off_c, 4, 76, 127
2, 51542, Note_on_c, 7, 79, 127
2, 51739, Note_off_c, 7, 79, 127
2, 51739, Note_off_c, 0, 48, 127
2, 51741, Note_on_c, 0, 36, 127
2, 51741, Note_on_c, 5, 77, 127
2, 51807, Note_off_c, 5, 77, 127
2, 51807, Note_on_c, 4, 76, 127
2, 51873, Note_off_c, 4, 76, 127
2, 51873, Note_on_c, 5, 77, 127
2, 51939, Note_off_c, 5, 77, 127
2, 51939, Note_on_c, 4, 76, 127
2, 52138, Note_off_c, 4, 76, 127
2, 52138, Note_on_c, 0, 72, 127
2, 52335, Note_off_c, 0, 72, 127
2, 52337, Note_on_c, 4, 76, 127
2, 52534, Note_off_c, 4, 76, 127
2, 52534, Note_off_c, 0, 36, 127
2, 52536, Note_on_c, 7, 43, 127
2, 52536, Note_on_c, 12, 71, 127
2, 52931, Note_off_c, 12, 71, 127
2, 52933, Note_on_c, 2, 74, 127
2, 53130, Note_off_c, 2, 74, 127
2, 53132, Note_on_c, 7, 79, 127
2, 53329, Note_off_c, 7, 79, 127
2, 53329, Note_off_c, 7, 43, 127
2, 53331, Note_on_c, 7, 55, 127
2, 53331, Note_on_c, 7, 67, 127
2, 53428, Note_off_c, 7, 67, 127
2, 53430, Note_on_c, 6, 66, 127
2, 53527, Note_off_c, 6, 66, 127
2, 53529, Note_on_c, 7, 67, 127
2, 53726, Note_off_c, 7, 55, 127
2, 53728, Note_on_c, 12, 59, 127
2, 53925, Note_off_c, 12, 59, 127
2, 53927, Note_on_c, 7, 55, 127
2, 54124, Note_off_c, 7, 55, 127
2, 54124, Note_off_c, 7, 67, 127
2, 54126, Note_on_c, 4, 52, 127
2, 54126, Note_on_c, 4, 76, 127
2, 54192, Note_off_c, 4, 76, 127
2, 54192, Note_on_c, 3, 75, 127
2, 54258, Note_off_c, 3, 75, 127
2, 54258, Note_on_c, 4, 76, 127
2, 54523, Note_off_c, 4, 76, 127
2, 54523, Note_on_c, 7, 79, 127
2, 54720, Note_off_c, 7, 79, 127
2, 54722, Note_on_c, 12, 83, 127
2, 54919, Note_off_c, 12, 83, 127
2, 54919, Note_off_c, 4, 52, 127
2, 54921, Note_on_c, 4, 40, 127
2, 54921, Note_on_c, 10, 81, 127
2, 54987, Note_off_c, 10, 81, 127
2, 54987, Note_on_c, 7, 79, 127
2, 55053, Note_off_c, 7, 79, 127
2, 55053, Note_on_c, 10, 81, 127
2, 55119, Note_off_c, 10, 81, 127
2, 55119, Note_on_c, 7, 79, 127
2, 55316, Note_off_c, 7, 79, 127
2, 55318, Note_on_c, 4, 76, 127
2, 55515, Note_off_c, 4, 76, 127
2, 55517, Note_on_c, 7, 79, 127
2, 55714, Note_off_c, 7, 79, 127
2, 55714, Note_off_c, 4, 40, 127
2, 55716, Note_on_c, 12, 47, 127
2, 55716, Note_on_c, 3, 75, 127
2, 56111, Note_off_c, 3, 75, 127
2, 56113, Note_on_c, 6, 78, 127
2, 56310, Note_off_c, 6, 78, 127
2, 56312, Note_on_c, 12, 83, 127
2, 56509, Note_off_c, 12, 83, 127
2, 56509, Note_off_c, 12, 47, 127
2, 56511, Note_on_c, 12, 59, 127
2, 56511, Note_on_c, 12, 71, 127
2, 56608, Note_off_c, 12, 71, 127
2, 56610, Note_on_c, 10, 69, 127
2, 56707, Note_off_c, 10, 69, 127
2, 56709, Note_on_c, 12, 71, 127
2, 56906, Note_off_c, 12, 59, 127
2, 56908, Note_on_c, 3, 63, 127
2, 57105, Note_off_c, 3, 63, 127
2, 57107, Note_on_c, 12, 59, 127
2, 57304, Note_off_c, 12, 59, 127
2, 57304, Note_off_c, 12, 71, 127
2, 57306, Note_on_c, 8, 56, 127
2, 57306, Note_on_c, 4, 76, 127
2, 57372, Note_off_c, 4, 76, 127
2, 57372, Note_on_c, 2, 74, 127
2, 57438, Note_off_c, 2, 74, 127
2, 57438, Note_on_c, 4, 76, 127
2, 57504, Note_off_c, 4, 76, 127
2, 57504, Note_on_c, 2, 74, 127
2, 57701, Note_off_c, 2, 74, 127
2, 57703, Note_on_c, 5, 77, 127
2, 57900, Note_off_c, 5, 77, 127
2, 57902, Note_on_c, 4, 76, 127
2, 58099, Note_off_c, 4, 76, 127
2, 58099, Note_off_c, 8, 56, 127
2, 58101, Note_on_c, 10, 57, 127
2, 58101, Note_on_c, 2, 74, 127
2, 58473, Note_off_c, 2, 74, 127
2, 58498, Note_on_c, 5, 77, 127
2, 58695, Note_off_c, 5, 77, 127
2, 58697, Note_on_c, 4, 76, 127
2, 58894, Note_off_c, 4, 76, 127
2, 58894, Note_off_c, 10, 57, 127
2, 58896, Note_on_c, 11, 58, 127
2, 58896, Note_on_c, 2, 74, 127
2, 59248, Note_off_c, 2, 74, 127
2, 59294, Note_on_c, 5, 77, 127
2, 59491, Note_off_c, 5, 77, 127
2, 59493, Note_on_c, 4, 76, 127
2, 59690, Note_off_c, 4, 76, 127
2, 59690, Note_off_c, 11, 58, 127
2, 59692, Note_on_c, 5, 53, 127
2, 59692, Note_on_c, 2, 74, 127
2, 60023, Note_off_c, 2, 74, 127
2, 60089, Note_on_c, 5, 77, 127
2, 60286, Note_off_c, 5, 77, 127
2, 60288, Note_on_c, 3, 75, 127
2, 60485, Note_off_c, 3, 75, 127
2, 60485, Note_off_c, 5, 53, 127
2, 60487, Note_on_c, 7, 55, 127
2, 60487, Note_on_c, 3, 75, 127
2, 60607, Note_on_c, 2, 74, 127
2, 60609, Note_off_c, 3, 75, 127
2, 60727, Note_on_c, 1, 73, 127
2, 60729, Note_off_c, 2, 74, 127
2, 60880, Note_off_c, 1, 73, 127
2, 60882, Note_off_c, 7, 55, 127
2, 60884, Note_on_c, 8, 56, 127
2, 60884, Note_on_c, 2, 74, 127
2, 61101, Note_off_c, 2, 74, 127
2, 61103, Note_on_c, 5, 65, 127
2, 61279, Note_off_c, 5, 65, 127
2, 61279, Note_off_c, 8, 56, 127
2, 61281, Note_on_c, 10, 57, 127
2, 61281, Note_on_c, 5, 65, 127
2, 61413, Note_off_c, 5, 65, 127
2, 61413, Note_on_c, 4, 64, 127
2, 61479, Note_off_c, 4, 64, 127
2, 61479, Note_on_c, 5, 65, 127
2, 61545, Note_off_c, 5, 65, 127
2, 61545, Note_on_c, 4, 64, 127
2, 61611, Note_off_c, 4, 64, 127
2, 61611, Note_on_c, 5, 65, 127
2, 61675, Note_off_c, 10, 57, 127
2, 61677, Note_off_c, 5, 65, 127
2, 61677, Note_on_c, 10, 45, 127
2, 61677, Note_on_c, 4, 64, 127
2, 61876, Note_off_c, 4, 64, 127
2, 61876, Note_on_c, 2, 62, 127
2, 62073, Note_off_c, 2, 62, 127
2, 62073, Note_off_c, 10, 45, 127
2, 62075, Note_on_c, 2, 50, 127
2, 62075, Note_on_c, 2, 62, 127
2, 62158, Note_on_c, 1, 61, 127
2, 62177, Note_off_c, 2, 62, 127
2, 62239, Note_off_c, 1, 61, 127
2, 62241, Note_on_c, 2, 62, 127
2, 62471, Note_off_c, 2, 50, 127
2, 62473, Note_on_c, 5, 53, 127
2, 62670, Note_off_c, 5, 53, 127
2, 62672, Note_on_c, 2, 50, 127
2, 62869, Note_off_c, 2, 50, 127
2, 62871, Note_on_c, 2, 38, 127
2, 63421, Note_off_c, 2, 62, 127
2, 63663, Note_off_c, 2, 38, 127
2, 63665, Note_on_c, 2, 50, 127
2, 64060, Note_off_c, 2, 50, 127
2, 64062, Note_on_c, 4, 52, 127
2, 64062, Note_on_c, 5, 77, 127
2, 64259, Note_off_c, 5, 77, 127
2, 64261, Note_on_c, 7, 79, 127
2, 64458, Note_off_c, 7, 79, 127
2, 64458, Note_off_c, 4, 52, 127
2, 64460, Note_on_c, 5, 53, 127
2, 64460, Note_on_c, 10, 81, 127
2, 64855, Note_off_c, 10, 81, 127
2, 64855, Note_off_c, 5, 53, 127
2, 64857, Note_on_c, 7, 55, 127
2, 64857, Note_on_c, 5, 77, 127
2, 65054, Note_off_c, 5, 77, 127
2, 65056, Note_on_c, 2, 74, 127
2, 65253, Note_off_c, 2, 74, 127
2, 65253, Note_off_c, 7, 55, 127
2, 65255, Note_on_c, 10, 57, 127
2, 65255, Note_on_c, 2, 74, 127
2, 65338, Note_on_c, 1, 73, 127
2, 65344, Note_off_c, 2, 74, 127
2, 65410, Note_on_c, 2, 74, 127
2, 65412, Note_off_c, 1, 73, 127
2, 65482, Note_on_c, 1, 73, 127
2, 65484, Note_off_c, 2, 74, 127
2, 65671, Note_on_c, 2, 74, 127
2, 65703, Note_off_c, 1, 73, 127
2, 65847, Note_off_c, 2, 74, 127
2, 65860, Note_on_c, 4, 76, 127
2, 66036, Note_off_c, 4, 76, 127
2, 66047, Note_off_c, 10, 57, 127
2, 66049, Note_on_c, 10, 45, 127
2, 66049, Note_on_c, 10, 69, 127
2, 66446, Note_on_c, 4, 52, 127
2, 66835, Note_off_c, 10, 45, 127
2, 66841, Note_off_c, 4, 52, 127
2, 66843, Note_on_c, 10, 57, 127
2, 67238, Note_off_c, 10, 57, 127
2, 67240, Note_on_c, 12, 59, 127
2, 67240, Note_on_c, 0, 72, 127
2, 67430, Note_off_c, 10, 69, 127
2, 67436, Note_off_c, 0, 72, 127
2, 67438, Note_on_c, 2, 74, 127
2, 67635, Note_off_c, 2, 74, 127
2, 67635, Note_off_c, 12, 59, 127
2, 67637, Note_on_c, 0, 60, 127
2, 67637, Note_on_c, 2, 74, 127
2, 67834, Note_off_c, 2, 74, 127
2, 67836, Note_on_c, 4, 76, 127
2, 68033, Note_off_c, 4, 76, 127
2, 68033, Note_off_c, 0, 60, 127
2, 68035, Note_on_c, 2, 62, 127
2, 68035, Note_on_c, 0, 72, 127
2, 68232, Note_off_c, 0, 72, 127
2, 68234, Note_on_c, 10, 69, 127
2, 68431, Note_off_c, 10, 69, 127
2, 68431, Note_off_c, 2, 62, 127
2, 68433, Note_on_c, 4, 64, 127
2, 68433, Note_on_c, 10, 69, 127
2, 68514, Note_off_c, 10, 69, 127
2, 68516, Note_on_c, 8, 68, 127
2, 68597, Note_off_c, 8, 68, 127
2, 68599, Note_on_c, 10, 69, 127
2, 68680, Note_off_c, 10, 69, 127
2, 68680, Note_on_c, 8, 68, 127
2, 68831, Note_on_c, 10, 69, 127
2, 68858, Note_off_c, 8, 68, 127
2, 69028, Note_off_c, 10, 69, 127
2, 69030, Note_on_c, 12, 71, 127
2, 69227, Note_off_c, 12, 71, 127
2, 69227, Note_off_c, 4, 64, 127
2, 69229, Note_on_c, 4, 52, 127
2, 69229, Note_on_c, 4, 64, 127
2, 69624, Note_off_c, 4, 52, 127
2, 69626, Note_on_c, 5, 53, 127
2, 69823, Note_off_c, 5, 53, 127
2, 69825, Note_on_c, 4, 52, 127
2, 69891, Note_off_c, 4, 64, 127
2, 70021, Note_off_c, 4, 52, 127
2, 70023, Note_on_c, 2, 50, 127
2, 70023, Note_on_c, 5, 77, 127
2, 70104, Note_off_c, 5, 77, 127
2, 70106, Note_on_c, 4, 76, 127
2, 70187, Note_off_c, 4, 76, 127
2, 70189, Note_on_c, 5, 77, 127
2, 70421, Note_on_c, 2, 74, 127
2, 70427, Note_off_c, 5, 77, 127
2, 70617, Note_off_c, 2, 74, 127
2, 70619, Note_on_c, 5, 77, 127
2, 70809, Note_off_c, 2, 50, 127
2, 70815, Note_off_c, 5, 77, 127
2, 70817, Note_on_c, 0, 72, 127
2, 70896, Note_on_c, 12, 71, 127
2, 70900, Note_off_c, 0, 72, 127
2, 70974, Note_on_c, 0, 72, 127
2, 70978, Note_off_c, 12, 71, 127
2, 71052, Note_on_c, 12, 71, 127
2, 71056, Note_off_c, 0, 72, 127
2, 71197, Note_off_c, 12, 71, 127
2, 71214, Note_on_c, 2, 74, 127
2, 71411, Note_off_c, 2, 74, 127
2, 71413, Note_on_c, 12, 71, 127
2, 71610, Note_off_c, 12, 71, 127
2, 71612, Note_on_c, 2, 50, 127
2, 71612, Note_on_c, 10, 69, 127
2, 71678, Note_off_c, 10, 69, 127
2, 71678, Note_on_c, 8, 68, 127
2, 71744, Note_off_c, 8, 68, 127
2, 71744, Note_on_c, 10, 69, 127
2, 71810, Note_off_c, 10, 69, 127
2, 71810, Note_on_c, 8, 68, 127
2, 72007, Note_off_c, 8, 68, 127
2, 72009, Note_on_c, 12, 71, 127
2, 72206, Note_off_c, 12, 71, 127
2, 72208, Note_on_c, 4, 64, 127
2, 72405, Note_off_c, 4, 64, 127
2, 72405, Note_off_c, 2, 50, 127
2, 72407, Note_on_c, 3, 51, 127
2, 72407, Note_on_c, 10, 69, 127
2, 72802, Note_off_c, 10, 69, 127
2, 72804, Note_on_c, 6, 54, 127
2, 72804, Note_on_c, 0, 60, 127
2, 73001, Note_off_c, 0, 60, 127
2, 73003, Note_on_c, 10, 57, 127
2, 73193, Note_off_c, 3, 51, 127
2, 73199, Note_off_c, 10, 57, 127
2, 73199, Note_off_c, 6, 54, 127
2, 73201, Note_on_c, 4, 52, 127
2, 73201, Note_on_c, 12, 59, 127
2, 73398, Note_off_c, 12, 59, 127
2, 73400, Note_on_c, 12, 71, 127
2, 73597, Note_off_c, 12, 71, 127
2, 73597, Note_off_c, 4, 52, 127
2, 73599, Note_on_c, 2, 50, 127
2, 73599, Note_on_c, 0, 72, 127
2, 73796, Note_off_c, 0, 72, 127
2, 73798, Note_on_c, 2, 74, 127
2, 73995, Note_off_c, 2, 74, 127
2, 73995, Note_off_c, 2, 50, 127
2, 73997, Note_on_c, 4, 52, 127
2, 73997, Note_on_c, 10, 69, 127
2, 74129, Note_off_c, 10, 69, 127
2, 74129, Note_on_c, 8, 68, 127
2, 74195, Note_off_c, 8, 68, 127
2, 74195, Note_on_c, 10, 69, 127
2, 74261, Note_off_c, 10, 69, 127
2, 74261, Note_on_c, 8, 68, 127
2, 74327, Note_off_c, 8, 68, 127
2, 74327, Note_on_c, 10, 69, 127
2, 74391, Note_off_c, 4, 52, 127
2, 74393, Note_off_c, 10, 69, 127
2, 74393, Note_on_c, 4, 40, 127
2, 74393, Note_on_c, 8, 68, 127
2, 74590, Note_off_c, 8, 68, 127
2, 74592, Note_on_c, 10, 69, 127
2, 74789, Note_off_c, 10, 69, 127
2, 74789, Note_off_c, 4, 40, 127
2, 74791, Note_on_c, 10, 45, 127
2, 74791, Note_on_c, 10, 69, 127
2, 75186, Note_off_c, 10, 45, 127
2, 75188, Note_on_c, 1, 49, 127
2, 75385, Note_off_c, 1, 49, 127
2, 75387, Note_on_c, 4, 52, 127
2, 75584, Note_off_c, 4, 52, 127
2, 75586, Note_on_c, 1, 49, 127
2, 75783, Note_off_c, 1, 49, 127
2, 75785, Note_on_c, 10, 45, 127
2, 75984, Note_on_c, 10, 33, 127
2, 76199, Note_off_c, 10, 69, 127
2, 76365, Note_off_c, 10, 45, 127
2, 76379, Note_off_c, 10, 33, 127
2, 76397, Note_on_c, 10, 69, 127
2, 76397, Note_on_c, 10, 45, 127
2, 76792, Note_off_c, 10, 45, 127
2, 76792, Note_off_c, 10, 69, 127
2, 76794, Note_on_c, 0, 72, 127
2, 76794, Note_on_c, 12, 47, 127
2, 76924, Note_off_c, 0, 72, 127
2, 76926, Note_on_c, 2, 74, 127
2, 77056, Note_off_c, 2, 74, 127
2, 77058, Note_on_c, 4, 76, 127
2, 77188, Note_off_c, 4, 76, 127
2, 77188, Note_off_c, 12, 47, 127
2, 77190, Note_on_c, 0, 72, 127
2, 77190, Note_on_c, 0, 48, 127
2, 77320, Note_off_c, 0, 72, 127
2, 77322, Note_on_c, 2, 74, 127
2, 77452, Note_off_c, 2, 74, 127
2, 77454, Note_on_c, 4, 76, 127
2, 77584, Note_off_c, 4, 76, 127
2, 77584, Note_off_c, 0, 48, 127
2, 77586, Note_on_c, 0, 72, 127
2, 77586, Note_on_c, 2, 50, 127
2, 77716, Note_off_c, 0, 72, 127
2, 77718, Note_on_c, 2, 74, 127
2, 77848, Note_off_c, 2, 74, 127
2, 77850, Note_on_c, 4, 76, 127
2, 77980, Note_off_c, 4, 76, 127
2, 77980, Note_off_c, 2, 50, 127
2, 77982, Note_on_c, 8, 68, 127
2, 77982, Note_on_c, 4, 52, 127
2, 78377, Note_off_c, 4, 52, 127
2, 78377, Note_off_c, 8, 68, 127
2, 78379, Note_on_c, 12, 71, 127
2, 78379, Note_on_c, 6, 54, 127
2, 78509, Note_off_c, 12, 71, 127
2, 78511, Note_on_c, 0, 72, 127
2, 78641, Note_off_c, 0, 72, 127
2, 78643, Note_on_c, 2, 74, 127
2, 78773, Note_off_c, 2, 74, 127
2, 78773, Note_off_c, 6, 54, 127
2, 78775, Note_on_c, 12, 71, 127
2, 78775, Note_on_c, 8, 56, 127
2, 78905, Note_off_c, 12, 71, 127
2, 78907, Note_on_c, 0, 72, 127
2, 79037, Note_off_c, 0, 72, 127
2, 79039, Note_on_c, 2, 74, 127
2, 79169, Note_off_c, 2, 74, 127
2, 79169, Note_off_c, 8, 56, 127
2, 79171, Note_on_c, 12, 71, 127
2, 79171, Note_on_c, 4, 52, 127
2, 79301, Note_off_c, 12, 71, 127
2, 79303, Note_on_c, 0, 72, 127
2, 79433, Note_off_c, 0, 72, 127
2, 79435, Note_on_c, 2, 74, 127
2, 79565, Note_off_c, 2, 74, 127
2, 79565, Note_off_c, 4, 52, 127
2, 79567, Note_on_c, 0, 72, 127
2, 79567, Note_on_c, 10, 57, 127
2, 79962, Note_off_c, 10, 57, 127
2, 79962, Note_off_c, 0, 72, 127
2, 79964, Note_on_c, 12, 71, 127
2, 79964, Note_on_c, 2, 50, 127
2, 80094, Note_off_c, 12, 71, 127
2, 80096, Note_on_c, 0, 72, 127
2, 80226, Note_off_c, 0, 72, 127
2, 80228, Note_on_c, 2, 74, 127
2, 80358, Note_off_c, 2, 74, 127
2, 80358, Note_off_c, 2, 50, 127
2, 80360, Note_on_c, 2, 74, 127
2, 80360, Note_on_c, 4, 52, 127
2, 80557, Note_off_c, 2, 74, 127
2, 80559, Note_on_c, 0, 72, 127
2, 80636, Note_on_c, 2, 74, 127
2, 80638, Note_off_c, 0, 72, 127
2, 80712, Note_on_c, 0, 72, 127
2, 80716, Note_off_c, 2, 74, 127
2, 80755, Note_off_c, 4, 52, 127
2, 80757, Note_on_c, 4, 40, 127
2, 80945, Note_off_c, 0, 72, 127
2, 80955, Note_on_c, 12, 71, 127
2, 81152, Note_off_c, 12, 71, 127
2, 81152, Note_off_c, 4, 40, 127
2, 81154, Note_on_c, 0, 72, 127
2, 81154, Note_on_c, 10, 57, 127
2, 81284, Note_off_c, 0, 72, 127
2, 81286, Note_on_c, 2, 74, 127
2, 81416, Note_off_c, 2, 74, 127
2, 81418, Note_on_c, 4, 76, 127
2, 81548, Note_off_c, 4, 76, 127
2, 81548, Note_off_c, 10, 57, 127
2, 81550, Note_on_c, 0, 72, 127
2, 81550, Note_on_c, 8, 56, 127
2, 81680, Note_off_c, 0, 72, 127
2, 81682, Note_on_c, 2, 74, 127
2, 81812, Note_off_c, 2, 74, 127
2, 81814, Note_on_c, 4, 76, 127
2, 81944, Note_off_c, 4, 76, 127
2, 81944, Note_off_c, 8, 56, 127
2, 81946, Note_on_c, 10, 69, 127
2, 81946, Note_on_c, 10, 57, 127
2, 82341, Note_off_c, 10, 57, 127
2, 82343, Note_on_c, 12, 59, 127
2, 82442, Note_off_c, 10, 69, 127
2, 82738, Note_off_c, 12, 59, 127
2, 82740, Note_on_c, 6, 78, 127
2, 82740, Note_on_c, 0, 60, 127
2, 83135, Note_off_c, 0, 60, 127
2, 83135, Note_off_c, 6, 78, 127
2, 83137, Note_on_c, 10, 81, 127
2, 83137, Note_on_c, 12, 59, 127
2, 83267, Note_off_c, 10, 81, 127
2, 83269, Note_on_c, 7, 79, 127
2, 83399, Note_off_c, 7, 79, 127
2, 83401, Note_on_c, 6, 78, 127
2, 83531, Note_off_c, 6, 78, 127
2, 83531, Note_off_c, 12, 59, 127
2, 83533, Note_on_c, 10, 81, 127
2, 83533, Note_on_c, 0, 60, 127
2, 83533, Note_on_c, 10, 57, 127
2, 83663, Note_off_c, 10, 81, 127
2, 83665, Note_on_c, 7, 79, 127
2, 83795, Note_off_c, 7, 79, 127
2, 83797, Note_on_c, 6, 78, 127
2, 83927, Note_off_c, 6, 78, 127
2, 83927, Note_off_c, 10, 57, 127
2, 83927, Note_off_c, 0, 60, 127
2, 83929, Note_on_c, 10, 81, 127
2, 83929, Note_on_c, 10, 57, 127
2, 83929, Note_on_c, 6, 54, 127
2, 84059, Note_off_c, 10, 81, 127
2, 84061, Note_on_c, 7, 79, 127
2, 84191, Note_off_c, 7, 79, 127
2, 84193, Note_on_c, 6, 78, 127
2, 84323, Note_off_c, 6, 78, 127
2, 84323, Note_off_c, 6, 54, 127
2, 84323, Note_off_c, 10, 57, 127
2, 84325, Note_on_c, 3, 75, 127
2, 84325, Note_on_c, 12, 59, 127
2, 84720, Note_off_c, 3, 75, 127
2, 84722, Note_on_c, 6, 78, 127
2, 84722, Note_on_c, 10, 57, 127
2, 84852, Note_off_c, 6, 78, 127
2, 84854, Note_on_c, 4, 76, 127
2, 84984, Note_off_c, 4, 76, 127
2, 84986, Note_on_c, 3, 75, 127
2, 85116, Note_off_c, 3, 75, 127
2, 85116, Note_off_c, 10, 57, 127
2, 85118, Note_on_c, 4, 76, 127
2, 85118, Note_on_c, 7, 55, 127
2, 85513, Note_off_c, 7, 55, 127
2, 85513, Note_off_c, 4, 76, 127
2, 85513, Note_off_c, 12, 59, 127
2, 85515, Note_on_c, 7, 67, 127
2, 85515, Note_on_c, 12, 59, 127
2, 85515, Note_on_c, 4, 52, 127
2, 85645, Note_off_c, 7, 67, 127
2, 85647, Note_on_c, 6, 66, 127
2, 85777, Note_off_c, 6, 66, 127
2, 85779, Note_on_c, 4, 64, 127
2, 85909, Note_off_c, 4, 64, 127
2, 85909, Note_off_c, 4, 52, 127
2, 85909, Note_off_c, 12, 59, 127
2, 85911, Note_on_c, 6, 66, 127
2, 85911, Note_on_c, 10, 57, 127
2, 86306, Note_off_c, 10, 57, 127
2, 86306, Note_off_c, 6, 66, 127
2, 86308, Note_on_c, 10, 69, 127
2, 86308, Note_on_c, 6, 54, 127
2, 86438, Note_off_c, 10, 69, 127
2, 86440, Note_on_c, 7, 67, 127
2, 86570, Note_off_c, 7, 67, 127
2, 86572, Note_on_c, 6, 66, 127
2, 86702, Note_off_c, 6, 66, 127
2, 86702, Note_off_c, 6, 54, 127
2, 86704, Note_on_c, 7, 67, 127
2, 86704, Note_on_c, 12, 59, 127
2, 86834, Note_off_c, 7, 67, 127
2, 86836, Note_on_c, 6, 66, 127
2, 86966, Note_off_c, 6, 66, 127
2, 86968, Note_on_c, 7, 67, 127
2, 87098, Note_off_c, 7, 67, 127
2, 87098, Note_off_c, 12, 59, 127
2, 87100, Note_on_c, 6, 66, 127
2, 87100, Note_on_c, 12, 47, 127
2, 87297, Note_off_c, 6, 66, 127
2, 87299, Note_on_c, 4, 64, 127
2, 87496, Note_off_c, 4, 64, 127
2, 87496, Note_off_c, 12, 47, 127
2, 87498, Note_on_c, 4, 64, 127
2, 87498, Note_on_c, 4, 52, 127
2, 87893, Note_off_c, 4, 52, 127
2, 87893, Note_off_c, 4, 64, 127
2, 87895, Note_on_c, 8, 68, 127
2, 87895, Note_on_c, 12, 47, 127
2, 88025, Note_off_c, 8, 68, 127
2, 88027, Note_on_c, 6, 66, 127
2, 88157, Note_off_c, 6, 66, 127
2, 88159, Note_on_c, 4, 64, 127
2, 88289, Note_off_c, 4, 64, 127
2, 88289, Note_off_c, 12, 47, 127
2, 88291, Note_on_c, 4, 64, 127
2, 88291, Note_on_c, 4, 40, 127
2, 88870, Note_off_c, 4, 64, 127
2, 89083, Note_off_c, 4, 40, 127
2, 89085, Note_on_c, 0, 72, 127
2, 89085, Note_on_c, 0, 48, 127
2, 89480, Note_off_c, 0, 48, 127
2, 89480, Note_off_c, 0, 72, 127
2, 89482, Note_on_c, 4, 76, 127
2, 89482, Note_on_c, 2, 50, 127
2, 89612, Note_off_c, 4, 76, 127
2, 89614, Note_on_c, 5, 77, 127
2, 89744, Note_off_c, 5, 77, 127
2, 89746, Note_on_c, 7, 79, 127
2, 89876, Note_off_c, 7, 79, 127
2, 89876, Note_off_c, 2, 50, 127
2, 89878, Note_on_c, 4, 76, 127
2, 89878, Note_on_c, 4, 52, 127
2, 90008, Note_off_c, 4, 76, 127
2, 90010, Note_on_c, 5, 77, 127
2, 90140, Note_off_c, 5, 77, 127
2, 90142, Note_on_c, 7, 79, 127
2, 90272, Note_off_c, 7, 79, 127
2, 90272, Note_off_c, 4, 52, 127
2, 90274, Note_on_c, 4, 76, 127
2, 90274, Note_on_c, 0, 48, 127
2, 90404, Note_off_c, 4, 76, 127
2, 90406, Note_on_c, 5, 77, 127
2, 90536, Note_off_c, 5, 77, 127
2, 90538, Note_on_c, 7, 79, 127
2, 90668, Note_off_c, 7, 79, 127
2, 90668, Note_off_c, 0, 48, 127
2, 90670, Note_on_c, 12, 71, 127
2, 90670, Note_on_c, 7, 55, 127
2, 91065, Note_off_c, 7, 55, 127
2, 91065, Note_off_c, 12, 71, 127
2, 91067, Note_on_c, 7, 79, 127
2, 91067, Note_on_c, 2, 50, 127
2, 91197, Note_off_c, 7, 79, 127
2, 91199, Note_on_c, 10, 81, 127
2, 91329, Note_off_c, 10, 81, 127
2, 91331, Note_on_c, 12, 83, 127
2, 91461, Note_off_c, 12, 83, 127
2, 91461, Note_off_c, 2, 50, 127
2, 91463, Note_on_c, 7, 79, 127
2, 91463, Note_on_c, 7, 43, 127
2, 91593, Note_off_c, 7, 79, 127
2, 91595, Note_on_c, 10, 81, 127
2, 91725, Note_off_c, 10, 81, 127
2, 91727, Note_on_c, 12, 83, 127
2, 91857, Note_off_c, 12, 83, 127
2, 91857, Note_off_c, 7, 43, 127
2, 91859, Note_on_c, 7, 79, 127
2, 91859, Note_on_c, 6, 54, 127
2, 91989, Note_off_c, 7, 79, 127
2, 91991, Note_on_c, 10, 81, 127
2, 92121, Note_off_c, 10, 81, 127
2, 92123, Note_on_c, 12, 83, 127
2, 92253, Note_off_c, 12, 83, 127
2, 92253, Note_off_c, 6, 54, 127
2, 92255, Note_on_c, 12, 71, 127
2, 92255, Note_on_c, 4, 52, 127
2, 92650, Note_off_c, 4, 52, 127
2, 92650, Note_off_c, 12, 71, 127
2, 92652, Note_on_c, 7, 67, 127
2, 92652, Note_on_c, 6, 54, 127
2, 92782, Note_off_c, 7, 67, 127
2, 92784, Note_on_c, 6, 66, 127
2, 92914, Note_off_c, 6, 66, 127
2, 92916, Note_on_c, 4, 64, 127
2, 93046, Note_off_c, 4, 64, 127
2, 93046, Note_off_c, 6, 54, 127
2, 93048, Note_on_c, 7, 67, 127
2, 93048, Note_on_c, 7, 55, 127
2, 93178, Note_off_c, 7, 67, 127
2, 93180, Note_on_c, 6, 66, 127
2, 93310, Note_off_c, 6, 66, 127
2, 93312, Note_on_c, 4, 64, 127
2, 93442, Note_off_c, 4, 64, 127
2, 93442, Note_off_c, 7, 55, 127
2, 93444, Note_on_c, 7, 67, 127
2, 93444, Note_on_c, 4, 52, 127
2, 93574, Note_off_c, 7, 67, 127
2, 93576, Note_on_c, 6, 66, 127
2, 93706, Note_off_c, 6, 66, 127
2, 93708, Note_on_c, 4, 64, 127
2, 93838, Note_off_c, 4, 64, 127
2, 93838, Note_off_c, 4, 52, 127
2, 93840, Note_on_c, 3, 63, 127
2, 93840, Note_on_c, 12, 59, 127
2, 94235, Note_off_c, 12, 59, 127
2, 94235, Note_off_c, 3, 63, 127
2, 94237, Note_on_c, 6, 66, 127
2, 94237, Note_on_c, 6, 54, 127
2, 94367, Note_off_c, 6, 66, 127
2, 94369, Note_on_c, 7, 67, 127
2, 94499, Note_off_c, 7, 67, 127
2, 94501, Note_on_c, 10, 69, 127
2, 94631, Note_off_c, 10, 69, 127
2, 94631, Note_off_c, 6, 54, 127
2, 94633, Note_on_c, 3, 63, 127
2, 94633, Note_on_c, 12, 47, 127
2, 94763, Note_off_c, 3, 63, 127
2, 94765, Note_on_c, 4, 64, 127
2, 94895, Note_off_c, 4, 64, 127
2, 94897, Note_on_c, 6, 66, 127
2, 95027, Note_off_c, 6, 66, 127
2, 95027, Note_off_c, 12, 47, 127
2, 95029, Note_on_c, 12, 59, 127
2, 95029, Note_on_c, 10, 57, 127
2, 95360, Note_off_c, 12, 59, 127
2, 95424, Note_off_c, 10, 57, 127
2, 95426, Note_on_c, 2, 74, 127
2, 95426, Note_on_c, 8, 56, 127
2, 95623, Note_off_c, 2, 74, 127
2, 95625, Note_on_c, 5, 65, 127
2, 95822, Note_off_c, 5, 65, 127
2, 95824, Note_on_c, 5, 65, 127
2, 96006, Note_off_c, 8, 56, 127
2, 96020, Note_off_c, 5, 65, 127
2, 96022, Note_on_c, 2, 74, 127
2, 96219, Note_off_c, 2, 74, 127
2, 96221, Note_on_c, 2, 74, 127
2, 96221, Note_on_c, 10, 57, 127
2, 96418, Note_off_c, 2, 74, 127
2, 96420, Note_on_c, 5, 65, 127
2, 96617, Note_off_c, 5, 65, 127
2, 96619, Note_on_c, 5, 65, 127
2, 96801, Note_off_c, 10, 57, 127
2, 96815, Note_off_c, 5, 65, 127
2, 96817, Note_on_c, 2, 74, 127
2, 97014, Note_off_c, 2, 74, 127
2, 97016, Note_on_c, 2, 74, 127
2, 97016, Note_on_c, 11, 58, 127
2, 97213, Note_off_c, 2, 74, 127
2, 97215, Note_on_c, 5, 65, 127
2, 97412, Note_off_c, 5, 65, 127
2, 97414, Note_on_c, 5, 65, 127
2, 97596, Note_off_c, 11, 58, 127
2, 97610, Note_off_c, 5, 65, 127
2, 97612, Note_on_c, 2, 74, 127
2, 97809, Note_off_c, 2, 74, 127
2, 97811, Note_on_c, 2, 74, 127
2, 97811, Note_on_c, 10, 57, 127
2, 98008, Note_off_c, 2, 74, 127
2, 98010, Note_on_c, 5, 65, 127
2, 98207, Note_off_c, 5, 65, 127
2, 98209, Note_on_c, 5, 65, 127
2, 98391, Note_off_c, 10, 57, 127
2, 98405, Note_off_c, 5, 65, 127
2, 98407, Note_on_c, 2, 74, 127
2, 98604, Note_off_c, 2, 74, 127
2, 98606, Note_on_c, 2, 74, 127
2, 98606, Note_on_c, 8, 56, 127
2, 98803, Note_off_c, 2, 74, 127
2, 98805, Note_on_c, 5, 65, 127
2, 99002, Note_off_c, 5, 65, 127
2, 99004, Note_on_c, 5, 65, 127
2, 99186, Note_off_c, 8, 56, 127
2, 99200, Note_off_c, 5, 65, 127
2, 99202, Note_on_c, 4, 64, 127
2, 99399, Note_off_c, 4, 64, 127
2, 99401, Note_on_c, 5, 65, 127
2, 99401, Note_on_c, 10, 57, 127
2, 99519, Note_off_c, 5, 65, 127
2, 99533, Note_on_c, 4, 64, 127
2, 99599, Note_off_c, 4, 64, 127
2, 99599, Note_on_c, 5, 65, 127
2, 99665, Note_off_c, 5, 65, 127
2, 99665, Note_on_c, 4, 64, 127
2, 99731, Note_off_c, 4, 64, 127
2, 99731, Note_on_c, 5, 65, 127
2, 99795, Note_off_c, 10, 57, 127
2, 99797, Note_off_c, 5, 65, 127
2, 99797, Note_on_c, 4, 64, 127
2, 99797, Note_on_c, 10, 45, 127
2, 99994, Note_off_c, 4, 64, 127
2, 99996, Note_on_c, 2, 62, 127
2, 100193, Note_off_c, 2, 62, 127
2, 100193, Note_off_c, 10, 45, 127
2, 100195, Note_on_c, 2, 62, 127
2, 100195, Note_on_c, 2, 50, 127
2, 100590, Note_off_c, 2, 50, 127
2, 100590, Note_off_c, 2, 62, 127
2, 100592, Note_on_c, 5, 65, 127
2, 100592, Note_on_c, 1, 49, 127
2, 100722, Note_off_c, 5, 65, 127
2, 100724, Note_on_c, 7, 67, 127
2, 100854, Note_off_c, 7, 67, 127
2, 100856, Note_on_c, 10, 69, 127
2, 100986, Note_off_c, 10, 69, 127
2, 100986, Note_off_c, 1, 49, 127
2, 100988, Note_on_c, 2, 62, 127
2, 100988, Note_on_c, 2, 50, 127
2, 101383, Note_off_c, 2, 50, 127
2, 101385, Note_on_c, 4, 52, 127
2, 101780, Note_off_c, 4, 52, 127
2, 101780, Note_off_c, 2, 62, 127
2, 101782, Note_on_c, 10, 81, 127
2, 101782, Note_on_c, 5, 53, 127
2, 101979, Note_off_c, 10, 81, 127
2, 101981, Note_on_c, 5, 77, 127
2, 102178, Note_off_c, 5, 77, 127
2, 102178, Note_off_c, 5, 53, 127
2, 102180, Note_on_c, 5, 77, 127
2, 102180, Note_on_c, 4, 52, 127
2, 102377, Note_off_c, 5, 77, 127
2, 102379, Note_on_c, 10, 81, 127
2, 102576, Note_off_c, 10, 81, 127
2, 102576, Note_off_c, 4, 52, 127
2, 102578, Note_on_c, 10, 81, 127
2, 102578, Note_on_c, 5, 53, 127
2, 102775, Note_off_c, 10, 81, 127
2, 102777, Note_on_c, 2, 74, 127
2, 102974, Note_off_c, 2, 74, 127
2, 102974, Note_off_c, 5, 53, 127
2, 102976, Note_on_c, 2, 74, 127
2, 102976, Note_on_c, 7, 55, 127
2, 103173, Note_off_c, 2, 74, 127
2, 103175, Note_on_c, 10, 81, 127
2, 103372, Note_off_c, 10, 81, 127
2, 103372, Note_off_c, 7, 55, 127
2, 103374, Note_on_c, 10, 81, 127
2, 103374, Note_on_c, 10, 57, 127
2, 103571, Note_off_c, 10, 81, 127
2, 103573, Note_on_c, 1, 73, 127
2, 103770, Note_off_c, 1, 73, 127
2, 103770, Note_off_c, 10, 57, 127
2, 103772, Note_on_c, 1, 73, 127
2, 103772, Note_on_c, 8, 56, 127
2, 103969, Note_off_c, 1, 73, 127
2, 103971, Note_on_c, 4, 76, 127
2, 104168, Note_off_c, 4, 76, 127
2, 104168, Note_off_c, 8, 56, 127
2, 104170, Note_on_c, 10, 69, 127
2, 104170, Note_on_c, 10, 57, 127
2, 104565, Note_off_c, 10, 57, 127
2, 104567, Note_on_c, 12, 59, 127
2, 104749, Note_off_c, 10, 69, 127
2, 104962, Note_off_c, 12, 59, 127
2, 104964, Note_on_c, 4, 76, 127
2, 104964, Note_on_c, 0, 60, 127
2, 105161, Note_off_c, 4, 76, 127
2, 105163, Note_on_c, 0, 72, 127
2, 105360, Note_off_c, 0, 72, 127
2, 105360, Note_off_c, 0, 60, 127
2, 105362, Note_on_c, 0, 72, 127
2, 105362, Note_on_c, 12, 59, 127
2, 105559, Note_off_c, 0, 72, 127
2, 105561, Note_on_c, 4, 76, 127
2, 105758, Note_off_c, 4, 76, 127
2, 105758, Note_off_c, 12, 59, 127
2, 105760, Note_on_c, 4, 76, 127
2, 105760, Note_on_c, 0, 60, 127
2, 105957, Note_off_c, 4, 76, 127
2, 105959, Note_on_c, 10, 69, 127
2, 106156, Note_off_c, 10, 69, 127
2, 106156, Note_off_c, 0, 60, 127
2, 106158, Note_on_c, 10, 69, 127
2, 106158, Note_on_c, 2, 62, 127
2, 106355, Note_off_c, 10, 69, 127
2, 106357, Note_on_c, 4, 76, 127
2, 106554, Note_off_c, 4, 76, 127
2, 106554, Note_off_c, 2, 62, 127
2, 106556, Note_on_c, 4, 76, 127
2, 106556, Note_on_c, 4, 64, 127
2, 106753, Note_off_c, 4, 76, 127
2, 106755, Note_on_c, 8, 68, 127
2, 106952, Note_off_c, 8, 68, 127
2, 106952, Note_off_c, 4, 64, 127
2, 106954, Note_on_c, 8, 68, 127
2, 106954, Note_on_c, 3, 63, 127
2, 107151, Note_off_c, 8, 68, 127
2, 107153, Note_on_c, 12, 71, 127
2, 107350, Note_off_c, 12, 71, 127
2, 107350, Note_off_c, 3, 63, 127
2, 107352, Note_on_c, 4, 64, 127
2, 107749, Note_on_c, 4, 52, 127
2, 107931, Note_off_c, 4, 64, 127
2, 108144, Note_off_c, 4, 52, 127
2, 108146, Note_on_c, 5, 77, 127
2, 108146, Note_on_c, 2, 50, 127
2, 108276, Note_off_c, 5, 77, 127
2, 108278, Note_on_c, 4, 76, 127
2, 108408, Note_off_c, 4, 76, 127
2, 108410, Note_on_c, 2, 74, 127
2, 108540, Note_off_c, 2, 74, 127
2, 108542, Note_on_c, 5, 77, 127
2, 108672, Note_off_c, 5, 77, 127
2, 108674, Note_on_c, 4, 76, 127
2, 108724, Note_off_c, 2, 50, 127
2, 108805, Note_off_c, 4, 76, 127
2, 108807, Note_on_c, 2, 74, 127
2, 108937, Note_off_c, 2, 74, 127
2, 108939, Note_on_c, 2, 74, 127
2, 108939, Note_on_c, 2, 50, 127
2, 109069, Note_off_c, 2, 74, 127
2, 109071, Note_on_c, 0, 72, 127
2, 109201, Note_off_c, 0, 72, 127
2, 109203, Note_on_c, 12, 71, 127
2, 109333, Note_off_c, 12, 71, 127
2, 109335, Note_on_c, 2, 74, 127
2, 109465, Note_off_c, 2, 74, 127
2, 109467, Note_on_c, 0, 72, 127
2, 109517, Note_off_c, 2, 50, 127
2, 109598, Note_off_c, 0, 72, 127
2, 109600, Note_on_c, 12, 71, 127
2, 109730, Note_off_c, 12, 71, 127
2, 109732, Note_on_c, 12, 71, 127
2, 109732, Note_on_c, 2, 50, 127
2, 109862, Note_off_c, 12, 71, 127
2, 109864, Note_on_c, 10, 69, 127
2, 109994, Note_off_c, 10, 69, 127
2, 109996, Note_on_c, 8, 68, 127
2, 110126, Note_off_c, 8, 68, 127
2, 110128, Note_on_c, 8, 68, 127
2, 110258, Note_off_c, 8, 68, 127
2, 110260, Note_on_c, 6, 66, 127
2, 110310, Note_off_c, 2, 50, 127
2, 110391, Note_off_c, 6, 66, 127
2, 110393, Note_on_c, 4, 64, 127
2, 110523, Note_off_c, 4, 64, 127
2, 110525, Note_on_c, 10, 69, 127
2, 110525, Note_on_c, 3, 51, 127
2, 110920, Note_off_c, 10, 69, 127
2, 110922, Note_on_c, 0, 72, 127
2, 111052, Note_off_c, 0, 72, 127
2, 111054, Note_on_c, 12, 71, 127
2, 111104, Note_off_c, 3, 51, 127
2, 111185, Note_off_c, 12, 71, 127
2, 111187, Note_on_c, 10, 69, 127
2, 111317, Note_off_c, 10, 69, 127
2, 111319, Note_on_c, 10, 69, 127
2, 111319, Note_on_c, 4, 52, 127
2, 111516, Note_off_c, 10, 69, 127
2, 111518, Note_on_c, 8, 68, 127
2, 111715, Note_off_c, 8, 68, 127
2, 111715, Note_off_c, 4, 52, 127
2, 111717, Note_on_c, 10, 69, 127
2, 111717, Note_on_c, 2, 50, 127
2, 111914, Note_off_c, 10, 69, 127
2, 111916, Note_on_c, 0, 60, 127
2, 112113, Note_off_c, 0, 60, 127
2, 112113, Note_off_c, 2, 50, 127
2, 112115, Note_on_c, 0, 60, 127
2, 112115, Note_on_c, 4, 52, 127
2, 112247, Note_off_c, 0, 60, 127
2, 112247, Note_on_c, 12, 59, 127
2, 112313, Note_off_c, 12, 59, 127
2, 112313, Note_on_c, 0, 60, 127
2, 112379, Note_off_c, 0, 60, 127
2, 112379, Note_on_c, 12, 59, 127
2, 112445, Note_off_c, 12, 59, 127
2, 112445, Note_on_c, 0, 60, 127
2, 112509, Note_off_c, 4, 52, 127
2, 112511, Note_off_c, 0, 60, 127
2, 112511, Note_on_c, 12, 59, 127
2, 112511, Note_on_c, 4, 40, 127
2, 112708, Note_off_c, 12, 59, 127
2, 112710, Note_on_c, 10, 57, 127
2, 112907, Note_off_c, 10, 57, 127
2, 112907, Note_off_c, 4, 40, 127
2, 112909, Note_on_c, 10, 57, 127
2, 112909, Note_on_c, 10, 45, 127
2, 113304, Note_off_c, 10, 45, 127
2, 113304, Note_off_c, 10, 57, 127
2, 113306, Note_on_c, 1, 61, 127
2, 113306, Note_on_c, 4, 40, 127
2, 113436, Note_off_c, 1, 61, 127
2, 113438, Note_on_c, 12, 59, 127
2, 113568, Note_off_c, 12, 59, 127
2, 113570, Note_on_c, 10, 57, 127
2, 113700, Note_off_c, 10, 57, 127
2, 113700, Note_off_c, 4, 40, 127
2, 113702, Note_on_c, 10, 57, 127
2, 113702, Note_on_c, 10, 33, 127
2, 114281, Note_off_c, 10, 57, 127
2, 114494, Note_off_c, 10, 33, 127
2, 114512, Note_on_c, 10, 57, 127
2, 114512, Note_on_c, 0, 72, 127
2, 114709, Note_off_c, 10, 57, 127
2, 114711, Note_on_c, 8, 56, 127
2, 114908, Note_off_c, 8, 56, 127
2, 114908, Note_off_c, 0, 72, 127
2, 114910, Note_on_c, 10, 57, 127
2, 114910, Note_on_c, 2, 74, 127
2, 115107, Note_off_c, 10, 57, 127
2, 115109, Note_on_c, 12, 59, 127
2, 115306, Note_off_c, 12, 59, 127
2, 115306, Note_off_c, 2, 74, 127
2, 115308, Note_on_c, 0, 60, 127
2, 115308, Note_on_c, 4, 76, 127
2, 115505, Note_off_c, 0, 60, 127
2, 115507, Note_on_c, 12, 59, 127
2, 115704, Note_off_c, 12, 59, 127
2, 115704, Note_off_c, 4, 76, 127
2, 115706, Note_on_c, 0, 60, 127
2, 115706, Note_on_c, 10, 69, 127
2, 115903, Note_off_c, 0, 60, 127
2, 115905, Note_on_c, 2, 62, 127
2, 116102, Note_off_c, 2, 62, 127
2, 116102, Note_off_c, 10, 69, 127
2, 116104, Note_on_c, 4, 64, 127
2, 116104, Note_on_c, 8, 68, 127
2, 116301, Note_off_c, 8, 68, 127
2, 116303, Note_on_c, 10, 69, 127
2, 116500, Note_off_c, 10, 69, 127
2, 116500, Note_off_c, 4, 64, 127
2, 116502, Note_on_c, 12, 59, 127
2, 116502, Note_on_c, 8, 68, 127
2, 116699, Note_off_c, 8, 68, 127
2, 116701, Note_on_c, 10, 69, 127
2, 116898, Note_off_c, 10, 69, 127
2, 116898, Note_off_c, 12, 59, 127
2, 116900, Note_on_c, 4, 52, 127
2, 116900, Note_on_c, 12, 71, 127
2, 117097, Note_off_c, 12, 71, 127
2, 117099, Note_on_c, 4, 64, 127
2, 117296, Note_off_c, 4, 64, 127
2, 117296, Note_off_c, 4, 52, 127
2, 117298, Note_on_c, 2, 62, 127
2, 117298, Note_on_c, 6, 66, 127
2, 117495, Note_off_c, 6, 66, 127
2, 117497, Note_on_c, 8, 68, 127
2, 117694, Note_off_c, 8, 68, 127
2, 117694, Note_off_c, 2, 62, 127
2, 117696, Note_on_c, 0, 60, 127
2, 117696, Note_on_c, 10, 69, 127
2, 117893, Note_off_c, 10, 69, 127
2, 117895, Note_on_c, 12, 71, 127
2, 118092, Note_off_c, 12, 71, 127
2, 118092, Note_off_c, 0, 60, 127
2, 118094, Note_on_c, 12, 59, 127
2, 118094, Note_on_c, 8, 68, 127
2, 118291, Note_off_c, 8, 68, 127
2, 118291, Note_off_c, 12, 59, 127
2, 118293, Note_on_c, 10, 57, 127
2, 118293, Note_on_c, 10, 69, 127
2, 118490, Note_off_c, 10, 69, 127
2, 118490, Note_off_c, 10, 57, 127
2, 118492, Note_on_c, 8, 56, 127
2, 118492, Note_on_c, 12, 71, 127
2, 118689, Note_off_c, 12, 71, 127
2, 118691, Note_on_c, 0, 72, 127
2, 118888, Note_off_c, 0, 72, 127
2, 118888, Note_off_c, 8, 56, 127
2, 118890, Note_on_c, 4, 52, 127
2, 118890, Note_on_c, 10, 69, 127
2, 119087, Note_off_c, 10, 69, 127
2, 119089, Note_on_c, 12, 71, 127
2, 119286, Note_off_c, 12, 71, 127
2, 119286, Note_off_c, 4, 52, 127
2, 119288, Note_on_c, 10, 57, 127
2, 119288, Note_on_c, 0, 72, 127
2, 119418, Note_off_c, 0, 72, 127
2, 119420, Note_on_c, 2, 74, 127
2, 119550, Note_off_c, 2, 74, 127
2, 119552, Note_on_c, 0, 72, 127
2, 119682, Note_off_c, 0, 72, 127
2, 119682, Note_off_c, 10, 57, 127
2, 119684, Note_on_c, 4, 52, 127
2, 119684, Note_on_c, 12, 71, 127
2, 119814, Note_off_c, 12, 71, 127
2, 119816, Note_on_c, 0, 72, 127
2, 119946, Note_off_c, 0, 72, 127
2, 119948, Note_on_c, 12, 71, 127
2, 120078, Note_off_c, 12, 71, 127
2, 120078, Note_off_c, 4, 52, 127
2, 120080, Note_on_c, 10, 45, 127
2, 120080, Note_on_c, 10, 69, 127
2, 120475, Note_off_c, 10, 45, 127
2, 120477, Note_on_c, 10, 57, 127
2, 120659, Note_off_c, 10, 69, 127
2, 120673, Note_off_c, 10, 57, 127
2, 120675, Note_on_c, 12, 59, 127
2, 120872, Note_off_c, 12, 59, 127
2, 120874, Note_on_c, 0, 60, 127
2, 120874, Note_on_c, 6, 78, 127
2, 121071, Note_off_c, 6, 78, 127
2, 121073, Note_on_c, 7, 79, 127
2, 121270, Note_off_c, 7, 79, 127
2, 121270, Note_off_c, 0, 60, 127
2, 121272, Note_on_c, 12, 59, 127
2, 121272, Note_on_c, 10, 81, 127
2, 121469, Note_off_c, 10, 81, 127
2, 121471, Note_on_c, 7, 79, 127
2, 121668, Note_off_c, 7, 79, 127
2, 121668, Note_off_c, 12, 59, 127
2, 121670, Note_on_c, 0, 60, 127
2, 121670, Note_on_c, 6, 78, 127
2, 121867, Note_off_c, 6, 78, 127
2, 121869, Note_on_c, 4, 76, 127
2, 122066, Note_off_c, 4, 76, 127
2, 122066, Note_off_c, 0, 60, 127
2, 122068, Note_on_c, 10, 57, 127
2, 122068, Note_on_c, 6, 78, 127
2, 122265, Note_off_c, 6, 78, 127
2, 122267, Note_on_c, 4, 76, 127
2, 122464, Note_off_c, 4, 76, 127
2, 122464, Note_off_c, 10, 57, 127
2, 122466, Note_on_c, 12, 59, 127
2, 122466, Note_on_c, 3, 75, 127
2, 122663, Note_off_c, 3, 75, 127
2, 122665, Note_on_c, 4, 76, 127
2, 122862, Note_off_c, 4, 76, 127
2, 122862, Note_off_c, 12, 59, 127
2, 122864, Note_on_c, 10, 57, 127
2, 122864, Note_on_c, 1, 73, 127
2, 123061, Note_off_c, 1, 73, 127
2, 123063, Note_on_c, 3, 75, 127
2, 123260, Note_off_c, 3, 75, 127
2, 123260, Note_off_c, 10, 57, 127
2, 123262, Note_on_c, 7, 55, 127
2, 123262, Note_on_c, 4, 76, 127
2, 123459, Note_off_c, 4, 76, 127
2, 123461, Note_on_c, 2, 74, 127
2, 123658, Note_off_c, 2, 74, 127
2, 123658, Note_off_c, 7, 55, 127
2, 123660, Note_on_c, 4, 52, 127
2, 123660, Note_on_c, 0, 72, 127
2, 123857, Note_off_c, 0, 72, 127
2, 123859, Note_on_c, 12, 71, 127
2, 124056, Note_off_c, 12, 71, 127
2, 124056, Note_off_c, 4, 52, 127
2, 124058, Note_on_c, 0, 60, 127
2, 124058, Note_on_c, 10, 69, 127
2, 124255, Note_off_c, 10, 69, 127
2, 124257, Note_on_c, 7, 67, 127
2, 124454, Note_off_c, 7, 67, 127
2, 124454, Note_off_c, 0, 60, 127
2, 124456, Note_on_c, 10, 57, 127
2, 124456, Note_on_c, 6, 66, 127
2, 124653, Note_off_c, 6, 66, 127
2, 124655, Note_on_c, 7, 67, 127
2, 124852, Note_off_c, 7, 67, 127
2, 124852, Note_off_c, 10, 57, 127
2, 124854, Note_on_c, 12, 59, 127
2, 124854, Note_on_c, 7, 67, 127
2, 124986, Note_off_c, 7, 67, 127
2, 124986, Note_on_c, 6, 66, 127
2, 125052, Note_off_c, 6, 66, 127
2, 125052, Note_on_c, 7, 67, 127
2, 125118, Note_off_c, 7, 67, 127
2, 125118, Note_on_c, 6, 66, 127
2, 125184, Note_off_c, 6, 66, 127
2, 125184, Note_on_c, 7, 67, 127
2, 125248, Note_off_c, 12, 59, 127
2, 125250, Note_off_c, 7, 67, 127
2, 125250, Note_on_c, 12, 47, 127
2, 125250, Note_on_c, 6, 66, 127
2, 125447, Note_off_c, 6, 66, 127
2, 125449, Note_on_c, 4, 64, 127
2, 125646, Note_off_c, 4, 64, 127
2, 125646, Note_off_c, 12, 47, 127
2, 125648, Note_on_c, 4, 52, 127
2, 125648, Note_on_c, 4, 64, 127
2, 125845, Note_off_c, 4, 52, 127
2, 125847, Note_on_c, 3, 51, 127
2, 126044, Note_off_c, 3, 51, 127
2, 126046, Note_on_c, 1, 49, 127
2, 126243, Note_off_c, 1, 49, 127
2, 126245, Note_on_c, 3, 51, 127
2, 126442, Note_off_c, 3, 51, 127
2, 126444, Note_on_c, 4, 52, 127
2, 126839, Note_off_c, 4, 64, 127
2, 126841, Note_on_c, 4, 40, 127
2, 127230, Note_off_c, 4, 52, 127
2, 127236, Note_off_c, 4, 40, 127
2, 127238, Note_on_c, 0, 48, 127
2, 127238, Note_on_c, 4, 76, 127
2, 127435, Note_off_c, 0, 48, 127
2, 127437, Note_on_c, 12, 47, 127
2, 127634, Note_off_c, 12, 47, 127
2, 127634, Note_off_c, 4, 76, 127
2, 127636, Note_on_c, 0, 48, 127
2, 127636, Note_on_c, 5, 77, 127
2, 127833, Note_off_c, 0, 48, 127
2, 127835, Note_on_c, 2, 50, 127
2, 128032, Note_off_c, 2, 50, 127
2, 128032, Note_off_c, 5, 77, 127
2, 128034, Note_on_c, 4, 52, 127
2, 128034, Note_on_c, 7, 79, 127
2, 128231, Note_off_c, 4, 52, 127
2, 128233, Note_on_c, 2, 50, 127
2, 128430, Note_off_c, 2, 50, 127
2, 128430, Note_off_c, 7, 79, 127
2, 128432, Note_on_c, 4, 52, 127
2, 128432, Note_on_c, 0, 72, 127
2, 128629, Note_off_c, 4, 52, 127
2, 128631, Note_on_c, 5, 53, 127
2, 128828, Note_off_c, 5, 53, 127
2, 128828, Note_off_c, 0, 72, 127
2, 128830, Note_on_c, 7, 55, 127
2, 128830, Note_on_c, 12, 71, 127
2, 129027, Note_off_c, 12, 71, 127
2, 129029, Note_on_c, 10, 69, 127
2, 129226, Note_off_c, 10, 69, 127
2, 129226, Note_off_c, 7, 55, 127
2, 129228, Note_on_c, 2, 50, 127
2, 129228, Note_on_c, 12, 71, 127
2, 129425, Note_off_c, 12, 71, 127
2, 129427, Note_on_c, 10, 69, 127
2, 129624, Note_off_c, 10, 69, 127
2, 129624, Note_off_c, 2, 50, 127
2, 129626, Note_on_c, 7, 43, 127
2, 129626, Note_on_c, 7, 67, 127
2, 129823, Note_off_c, 7, 67, 127
2, 129825, Note_on_c, 2, 74, 127
2, 130022, Note_off_c, 2, 74, 127
2, 130022, Note_off_c, 7, 43, 127
2, 130024, Note_on_c, 6, 54, 127
2, 130024, Note_on_c, 4, 76, 127
2, 130221, Note_off_c, 4, 76, 127
2, 130223, Note_on_c, 6, 78, 127
2, 130420, Note_off_c, 6, 78, 127
2, 130420, Note_off_c, 6, 54, 127
2, 130422, Note_on_c, 4, 52, 127
2, 130422, Note_on_c, 7, 79, 127
2, 130619, Note_off_c, 4, 52, 127
2, 130621, Note_on_c, 3, 51, 127
2, 130818, Note_off_c, 3, 51, 127
2, 130818, Note_off_c, 7, 79, 127
2, 130820, Note_on_c, 4, 52, 127
2, 130820, Note_on_c, 10, 81, 127
2, 131017, Note_off_c, 4, 52, 127
2, 131019, Note_on_c, 6, 54, 127
2, 131216, Note_off_c, 6, 54, 127
2, 131216, Note_off_c, 10, 81, 127
2, 131218, Note_on_c, 7, 55, 127
2, 131218, Note_on_c, 12, 83, 127
2, 131415, Note_off_c, 7, 55, 127
2, 131417, Note_on_c, 6, 54, 127
2, 131614, Note_off_c, 6, 54, 127
2, 131614, Note_off_c, 12, 83, 127
2, 131616, Note_on_c, 7, 55, 127
2, 131616, Note_on_c, 4, 76, 127
2, 131813, Note_off_c, 7, 55, 127
2, 131815, Note_on_c, 10, 57, 127
2, 132012, Note_off_c, 10, 57, 127
2, 132012, Note_off_c, 4, 76, 127
2, 132014, Note_on_c, 12, 59, 127
2, 132014, Note_on_c, 3, 75, 127
2, 132211, Note_off_c, 3, 75, 127
2, 132213, Note_on_c, 1, 73, 127
2, 132410, Note_off_c, 1, 73, 127
2, 132410, Note_off_c, 12, 59, 127
2, 132412, Note_on_c, 6, 54, 127
2, 132412, Note_on_c, 3, 75, 127
2, 132609, Note_off_c, 3, 75, 127
2, 132611, Note_on_c, 1, 73, 127
2, 132808, Note_off_c, 1, 73, 127
2, 132808, Note_off_c, 6, 54, 127
2, 132810, Note_on_c, 12, 47, 127
2, 132810, Note_on_c, 12, 71, 127
2, 133205, Note_off_c, 12, 47, 127
2, 133207, Note_on_c, 10, 57, 127
2, 133306, Note_off_c, 12, 71, 127
2, 133337, Note_off_c, 10, 57, 127
2, 133339, Note_on_c, 12, 59, 127
2, 133469, Note_off_c, 12, 59, 127
2, 133471, Note_on_c, 10, 57, 127
2, 133601, Note_off_c, 10, 57, 127
2, 133603, Note_on_c, 8, 56, 127
2, 133603, Note_on_c, 2, 74, 127
2, 133733, Note_off_c, 2, 74, 127
2, 133735, Note_on_c, 1, 73, 127
2, 133865, Note_off_c, 1, 73, 127
2, 133867, Note_on_c, 2, 74, 127
2, 133997, Note_off_c, 2, 74, 127
2, 133997, Note_off_c, 8, 56, 127
2, 133999, Note_on_c, 8, 44, 127
2, 133999, Note_on_c, 2, 74, 127
2, 134129, Note_off_c, 2, 74, 127
2, 134131, Note_on_c, 1, 73, 127
2, 134261, Note_off_c, 1, 73, 127
2, 134263, Note_on_c, 2, 74, 127
2, 134393, Note_off_c, 2, 74, 127
2, 134393, Note_off_c, 8, 44, 127
2, 134395, Note_on_c, 10, 57, 127
2, 134395, Note_on_c, 2, 74, 127
2, 134525, Note_off_c, 2, 74, 127
2, 134527, Note_on_c, 1, 73, 127
2, 134657, Note_off_c, 1, 73, 127
2, 134659, Note_on_c, 2, 74, 127
2, 134789, Note_off_c, 2, 74, 127
2, 134789, Note_off_c, 10, 57, 127
2, 134791, Note_on_c, 10, 45, 127
2, 134791, Note_on_c, 2, 74, 127
2, 134921, Note_off_c, 2, 74, 127
2, 134923, Note_on_c, 1, 73, 127
2, 135053, Note_off_c, 1, 73, 127
2, 135055, Note_on_c, 2, 74, 127
2, 135185, Note_off_c, 2, 74, 127
2, 135185, Note_off_c, 10, 45, 127
2, 135187, Note_on_c, 11, 58, 127
2, 135187, Note_on_c, 2, 74, 127
2, 135317, Note_off_c, 2, 74, 127
2, 135319, Note_on_c, 1, 73, 127
2, 135449, Note_off_c, 1, 73, 127
2, 135451, Note_on_c, 2, 74, 127
2, 135581, Note_off_c, 2, 74, 127
2, 135581, Note_off_c, 11, 58, 127
2, 135583, Note_on_c, 11, 46, 127
2, 135583, Note_on_c, 2, 74, 127
2, 135713, Note_off_c, 2, 74, 127
2, 135715, Note_on_c, 1, 73, 127
2, 135845, Note_off_c, 1, 73, 127
2, 135847, Note_on_c, 2, 74, 127
2, 135977, Note_off_c, 2, 74, 127
2, 135977, Note_off_c, 11, 46, 127
2, 135979, Note_on_c, 5, 53, 127
2, 135979, Note_on_c, 2, 74, 127
2, 136109, Note_off_c, 2, 74, 127
2, 136111, Note_on_c, 1, 73, 127
2, 136241, Note_off_c, 1, 73, 127
2, 136243, Note_on_c, 2, 74, 127
2, 136373, Note_off_c, 2, 74, 127
2, 136373, Note_off_c, 5, 53, 127
2, 136375, Note_on_c, 5, 41, 127
2, 136375, Note_on_c, 2, 74, 127
2, 136505, Note_off_c, 2, 74, 127
2, 136507, Note_on_c, 1, 73, 127
2, 136637, Note_off_c, 1, 73, 127
2, 136639, Note_on_c, 2, 74, 127
2, 136769, Note_off_c, 2, 74, 127
2, 136769, Note_off_c, 5, 41, 127
2, 136771, Note_on_c, 7, 55, 127
2, 136771, Note_on_c, 2, 74, 127
2, 136968, Note_off_c, 2, 74, 127
2, 136970, Note_on_c, 1, 73, 127
2, 137167, Note_off_c, 1, 73, 127
2, 137167, Note_off_c, 7, 55, 127
2, 137169, Note_on_c, 8, 56, 127
2, 137169, Note_on_c, 2, 74, 127
2, 137366, Note_off_c, 2, 74, 127
2, 137368, Note_on_c, 4, 76, 127
2, 137565, Note_off_c, 4, 76, 127
2, 137565, Note_off_c, 8, 56, 127
2, 137567, Note_on_c, 10, 57, 127
2, 137567, Note_on_c, 2, 74, 127
2, 137699, Note_off_c, 2, 74, 127
2, 137699, Note_on_c, 1, 73, 127
2, 137765, Note_off_c, 1, 73, 127
2, 137765, Note_on_c, 2, 74, 127
2, 137831, Note_off_c, 2, 74, 127
2, 137831, Note_on_c, 1, 73, 127
2, 137897, Note_off_c, 1, 73, 127
2, 137897, Note_on_c, 2, 74, 127
2, 137961, Note_off_c, 10, 57, 127
2, 137963, Note_off_c, 2, 74, 127
2, 137963, Note_on_c, 10, 45, 127
2, 137963, Note_on_c, 1, 73, 127
2, 138160, Note_off_c, 1, 73, 127
2, 138162, Note_on_c, 2, 74, 127
2, 138359, Note_off_c, 2, 74, 127
2, 138359, Note_off_c, 10, 45, 127
2, 138361, Note_on_c, 2, 50, 127
2, 138361, Note_on_c, 2, 74, 127
2, 138558, Note_off_c, 2, 50, 127
2, 138560, Note_on_c, 1, 49, 127
2, 138757, Note_off_c, 1, 49, 127
2, 138759, Note_on_c, 2, 50, 127
2, 138956, Note_off_c, 2, 50, 127
2, 138958, Note_on_c, 4, 52, 127
2, 139148, Note_off_c, 2, 74, 127
2, 139154, Note_off_c, 4, 52, 127
2, 139156, Note_on_c, 5, 53, 127
2, 139355, Note_on_c, 1, 73, 127
2, 139552, Note_off_c, 1, 73, 127
2, 139552, Note_off_c, 5, 53, 127
2, 139554, Note_on_c, 4, 52, 127
2, 139554, Note_on_c, 2, 74, 127
2, 139751, Note_off_c, 2, 74, 127
2, 139753, Note_on_c, 4, 76, 127
2, 139950, Note_off_c, 4, 76, 127
2, 139950, Note_off_c, 4, 52, 127
2, 139952, Note_on_c, 2, 50, 127
2, 139952, Note_on_c, 5, 77, 127
2, 140149, Note_off_c, 2, 50, 127
2, 140151, Note_on_c, 1, 49, 127
2, 140348, Note_off_c, 1, 49, 127
2, 140348, Note_off_c, 5, 77, 127
2, 140350, Note_on_c, 2, 50, 127
2, 140350, Note_on_c, 7, 79, 127
2, 140547, Note_off_c, 2, 50, 127
2, 140549, Note_on_c, 4, 52, 127
2, 140746, Note_off_c, 4, 52, 127
2, 140746, Note_off_c, 7, 79, 127
2, 140748, Note_on_c, 5, 53, 127
2, 140748, Note_on_c, 10, 81, 127
2, 140945, Note_off_c, 5, 53, 127
2, 140947, Note_on_c, 4, 52, 127
2, 141144, Note_off_c, 4, 52, 127
2, 141144, Note_off_c, 10, 81, 127
2, 141146, Note_on_c, 5, 53, 127
2, 141146, Note_on_c, 2, 74, 127
2, 141343, Note_off_c, 5, 53, 127
2, 141345, Note_on_c, 7, 55, 127
2, 141542, Note_off_c, 7, 55, 127
2, 141542, Note_off_c, 2, 74, 127
2, 141544, Note_on_c, 10, 57, 127
2, 141544, Note_on_c, 1, 73, 127
2, 141741, Note_off_c, 1, 73, 127
2, 141743, Note_on_c, 12, 71, 127
2, 141940, Note_off_c, 12, 71, 127
2, 141940, Note_off_c, 10, 57, 127
2, 141942, Note_on_c, 4, 52, 127
2, 141942, Note_on_c, 1, 73, 127
2, 142139, Note_off_c, 1, 73, 127
2, 142141, Note_on_c, 12, 71, 127
2, 142338, Note_off_c, 12, 71, 127
2, 142338, Note_off_c, 4, 52, 127
2, 142340, Note_on_c, 10, 45, 127
2, 142340, Note_on_c, 10, 69, 127
2, 142537, Note_off_c, 10, 45, 127
2, 142539, Note_on_c, 4, 52, 127
2, 142736, Note_off_c, 4, 52, 127
2, 142736, Note_off_c, 10, 69, 127
2, 142738, Note_on_c, 6, 54, 127
2, 142738, Note_on_c, 12, 71, 127
2, 142935, Note_off_c, 6, 54, 127
2, 142937, Note_on_c, 8, 56, 127
2, 143134, Note_off_c, 8, 56, 127
2, 143134, Note_off_c, 12, 71, 127
2, 143136, Note_on_c, 10, 57, 127
2, 143136, Note_on_c, 0, 72, 127
2, 143333, Note_off_c, 10, 57, 127
2, 143335, Note_on_c, 8, 56, 127
2, 143532, Note_off_c, 8, 56, 127
2, 143532, Note_off_c, 0, 72, 127
2, 143534, Note_on_c, 10, 57, 127
2, 143534, Note_on_c, 2, 74, 127
2, 143731, Note_off_c, 10, 57, 127
2, 143733, Note_on_c, 12, 59, 127
2, 143930, Note_off_c, 12, 59, 127
2, 143930, Note_off_c, 2, 74, 127
2, 143932, Note_on_c, 0, 60, 127
2, 143932, Note_on_c, 4, 76, 127
2, 144129, Note_off_c, 0, 60, 127
2, 144131, Note_on_c, 12, 59, 127
2, 144328, Note_off_c, 12, 59, 127
2, 144328, Note_off_c, 4, 76, 127
2, 144330, Note_on_c, 0, 60, 127
2, 144330, Note_on_c, 10, 69, 127
2, 144527, Note_off_c, 0, 60, 127
2, 144529, Note_on_c, 2, 62, 127
2, 144726, Note_off_c, 2, 62, 127
2, 144726, Note_off_c, 10, 69, 127
2, 144728, Note_on_c, 4, 64, 127
2, 144728, Note_on_c, 8, 68, 127
2, 144925, Note_off_c, 8, 68, 127
2, 144927, Note_on_c, 6, 66, 127
2, 145124, Note_off_c, 6, 66, 127
2, 145124, Note_off_c, 4, 64, 127
2, 145126, Note_on_c, 12, 59, 127
2, 145126, Note_on_c, 8, 68, 127
2, 145323, Note_off_c, 8, 68, 127
2, 145325, Note_on_c, 6, 66, 127
2, 145522, Note_off_c, 6, 66, 127
2, 145522, Note_off_c, 12, 59, 127
2, 145524, Note_on_c, 4, 52, 127
2, 145524, Note_on_c, 4, 64, 127
2, 145919, Note_off_c, 4, 52, 127
2, 145921, Note_on_c, 4, 52, 127
2, 146020, Note_off_c, 4, 64, 127
2, 146051, Note_off_c, 4, 52, 127
2, 146053, Note_on_c, 5, 53, 127
2, 146183, Note_off_c, 5, 53, 127
2, 146185, Note_on_c, 4, 52, 127
2, 146315, Note_off_c, 4, 52, 127
2, 146317, Note_on_c, 2, 50, 127
2, 146317, Note_on_c, 5, 77, 127
2, 146514, Note_off_c, 5, 77, 127
2, 146516, Note_on_c, 4, 76, 127
2, 146713, Note_off_c, 4, 76, 127
2, 146715, Note_on_c, 2, 74, 127
2, 146897, Note_off_c, 2, 50, 127
2, 146911, Note_off_c, 2, 74, 127
2, 146913, Note_on_c, 0, 72, 127
2, 147110, Note_off_c, 0, 72, 127
2, 147112, Note_on_c, 2, 50, 127
2, 147112, Note_on_c, 2, 74, 127
2, 147309, Note_off_c, 2, 74, 127
2, 147311, Note_on_c, 0, 72, 127
2, 147508, Note_off_c, 0, 72, 127
2, 147510, Note_on_c, 12, 71, 127
2, 147692, Note_off_c, 2, 50, 127
2, 147706, Note_off_c, 12, 71, 127
2, 147708, Note_on_c, 10, 69, 127
2, 147905, Note_off_c, 10, 69, 127
2, 147907, Note_on_c, 2, 50, 127
2, 147907, Note_on_c, 8, 68, 127
2, 148104, Note_off_c, 8, 68, 127
2, 148106, Note_on_c, 6, 66, 127
2, 148303, Note_off_c, 6, 66, 127
2, 148305, Note_on_c, 4, 64, 127
2, 148487, Note_off_c, 2, 50, 127
2, 148501, Note_off_c, 4, 64, 127
2, 148503, Note_on_c, 2, 62, 127
2, 148700, Note_off_c, 2, 62, 127
2, 148702, Note_on_c, 3, 51, 127
2, 148702, Note_on_c, 0, 60, 127
2, 148899, Note_off_c, 3, 51, 127
2, 148901, Note_on_c, 4, 52, 127
2, 149033, Note_off_c, 0, 60, 127
2, 149097, Note_off_c, 4, 52, 127
2, 149099, Note_on_c, 1, 49, 127
2, 149099, Note_on_c, 10, 69, 127
2, 149296, Note_off_c, 1, 49, 127
2, 149298, Note_on_c, 3, 51, 127
2, 149495, Note_off_c, 3, 51, 127
2, 149497, Note_on_c, 4, 52, 127
2, 149694, Note_off_c, 10, 69, 127
2, 149696, Note_on_c, 8, 68, 127
2, 149893, Note_off_c, 8, 68, 127
2, 149893, Note_off_c, 4, 52, 127
2, 149895, Note_on_c, 3, 51, 127
2, 149895, Note_on_c, 10, 69, 127
2, 150092, Note_off_c, 10, 69, 127
2, 150094, Note_on_c, 12, 71, 127
2, 150291, Note_off_c, 12, 71, 127
2, 150291, Note_off_c, 3, 51, 127
2, 150293, Note_on_c, 4, 52, 127
2, 150293, Note_on_c, 10, 69, 127
2, 150425, Note_off_c, 10, 69, 127
2, 150425, Note_on_c, 8, 68, 127
2, 150491, Note_off_c, 8, 68, 127
2, 150491, Note_on_c, 10, 69, 127
2, 150557, Note_off_c, 10, 69, 127
2, 150557, Note_on_c, 8, 68, 127
2, 150623, Note_off_c, 8, 68, 127
2, 150623, Note_on_c, 10, 69, 127
2, 150687, Note_off_c, 4, 52, 127
2, 150689, Note_off_c, 10, 69, 127
2, 150689, Note_on_c, 4, 40, 127
2, 150689, Note_on_c, 8, 68, 127
2, 150886, Note_off_c, 8, 68, 127
2, 150888, Note_on_c, 10, 69, 127
2, 151085, Note_off_c, 10, 69, 127
2, 151085, Note_off_c, 4, 40, 127
2, 151087, Note_on_c, 10, 45, 127
2, 151087, Note_on_c, 10, 69, 127
2, 151284, Note_off_c, 10, 45, 127
2, 151286, Note_on_c, 4, 52, 127
2, 151483, Note_off_c, 4, 52, 127
2, 151485, Note_on_c, 1, 49, 127
2, 151682, Note_off_c, 1, 49, 127
2, 151684, Note_on_c, 8, 44, 127
2, 151881, Note_off_c, 8, 44, 127
2, 151883, Note_on_c, 10, 45, 127
2, 152082, Note_on_c, 4, 40, 127
2, 152254, Note_off_c, 4, 40, 127
2, 152279, Note_off_c, 10, 69, 127
2, 152281, Note_on_c, 10, 33, 127
2, 152670, Note_off_c, 10, 45, 127
2, 152676, Note_off_c, 10, 33, 127
2, 152694, Note_on_c, 10, 57, 127
2, 152893, Note_on_c, 10, 69, 127
2, 153090, Note_off_c, 10, 57, 127
2, 153092, Note_on_c, 12, 59, 127
2, 153274, Note_off_c, 10, 69, 127
2, 153291, Note_on_c, 8, 68, 127
2, 153488, Note_off_c, 8, 68, 127
2, 153488, Note_off_c, 12, 59, 127
2, 153490, Note_on_c, 10, 69, 127
2, 153490, Note_on_c, 0, 60, 127
2, 153687, Note_off_c, 10, 69, 127
2, 153689, Note_on_c, 12, 71, 127
2, 153886, Note_off_c, 12, 71, 127
2, 153886, Note_off_c, 0, 60, 127
2, 153888, Note_on_c, 0, 72, 127
2, 153888, Note_on_c, 10, 57, 127
2, 154085, Note_off_c, 0, 72, 127
2, 154087, Note_on_c, 2, 74, 127
2, 154284, Note_off_c, 2, 74, 127
2, 154286, Note_on_c, 12, 71, 127
2, 154385, Note_off_c, 10, 57, 127
2, 154482, Note_off_c, 12, 71, 127
2, 154484, Note_on_c, 4, 76, 127
2, 154484, Note_on_c, 8, 56, 127
2, 154681, Note_off_c, 8, 56, 127
2, 154683, Note_on_c, 6, 54, 127
2, 154861, Note_off_c, 4, 76, 127
2, 154882, Note_on_c, 3, 75, 127
2, 155079, Note_off_c, 3, 75, 127
2, 155079, Note_off_c, 6, 54, 127
2, 155081, Note_on_c, 4, 76, 127
2, 155081, Note_on_c, 8, 56, 127
2, 155278, Note_off_c, 4, 76, 127
2, 155280, Note_on_c, 5, 77, 127
2, 155477, Note_off_c, 5, 77, 127
2, 155477, Note_off_c, 8, 56, 127
2, 155479, Note_on_c, 4, 76, 127
2, 155479, Note_on_c, 4, 52, 127
2, 155676, Note_off_c, 4, 76, 127
2, 155678, Note_on_c, 2, 74, 127
2, 155875, Note_off_c, 2, 74, 127
2, 155875, Note_off_c, 4, 52, 127
2, 155877, Note_on_c, 0, 72, 127
2, 155877, Note_on_c, 10, 57, 127
2, 156074, Note_off_c, 0, 72, 127
2, 156076, Note_on_c, 10, 81, 127
2, 156273, Note_off_c, 10, 81, 127
2, 156273, Note_off_c, 10, 57, 127
2, 156275, Note_on_c, 0, 72, 127
2, 156275, Note_on_c, 5, 53, 127
2, 156472, Note_off_c, 0, 72, 127
2, 156474, Note_on_c, 10, 81, 127
2, 156671, Note_off_c, 10, 81, 127
2, 156671, Note_off_c, 5, 53, 127
2, 156673, Note_on_c, 12, 71, 127
2, 156673, Note_on_c, 2, 50, 127
2, 156870, Note_off_c, 12, 71, 127
2, 156872, Note_on_c, 10, 81, 127
2, 157069, Note_off_c, 10, 81, 127
2, 157069, Note_off_c, 2, 50, 127
2, 157071, Note_on_c, 8, 80, 127
2, 157071, Note_on_c, 4, 52, 127
2, 157268, Note_off_c, 8, 80, 127
2, 157270, Note_on_c, 2, 74, 127
2, 157467, Note_off_c, 2, 74, 127
2, 157467, Note_off_c, 4, 52, 127
2, 157469, Note_on_c, 0, 72, 127
2, 157469, Note_on_c, 10, 45, 127
2, 157666, Note_off_c, 0, 72, 127
2, 157668, Note_on_c, 4, 76, 127
2, 157865, Note_off_c, 4, 76, 127
2, 157867, Note_on_c, 8, 68, 127
2, 158064, Note_off_c, 8, 68, 127
2, 158066, Note_on_c, 12, 71, 127
2, 158263, Note_off_c, 12, 71, 127
2, 158265, Note_on_c, 10, 69, 127
2, 158360, Note_off_c, 10, 45, 127
2, 158463, Note_on_c, 8, 56, 127
2, 158660, Note_off_c, 8, 56, 127
2, 158662, Note_on_c, 10, 57, 127
2, 158859, Note_off_c, 10, 57, 127
2, 158861, Note_on_c, 12, 59, 127
2, 159051, Note_off_c, 10, 69, 127
2, 159057, Note_off_c, 12, 59, 127
2, 159059, Note_on_c, 0, 60, 127
2, 159258, Note_on_c, 4, 76, 127
2, 159455, Note_off_c, 0, 60, 127
2, 159457, Note_on_c, 12, 59, 127
2, 159639, Note_off_c, 4, 76, 127
2, 159656, Note_on_c, 3, 75, 127
2, 159853, Note_off_c, 3, 75, 127
2, 159853, Note_off_c, 12, 59, 127
2, 159855, Note_on_c, 4, 76, 127
2, 159855, Note_on_c, 0, 60, 127
2, 160052, Note_off_c, 4, 76, 127
2, 160054, Note_on_c, 10, 69, 127
2, 160251, Note_off_c, 10, 69, 127
2, 160251, Note_off_c, 0, 60, 127
2, 160253, Note_on_c, 12, 71, 127
2, 160253, Note_on_c, 10, 57, 127
2, 160450, Note_off_c, 12, 71, 127
2, 160452, Note_on_c, 0, 72, 127
2, 160649, Note_off_c, 0, 72, 127
2, 160649, Note_off_c, 10, 57, 127
2, 160651, Note_on_c, 12, 71, 127
2, 160651, Note_on_c, 3, 51, 127
2, 160848, Note_off_c, 12, 71, 127
2, 160850, Note_on_c, 12, 83, 127
2, 161047, Note_off_c, 3, 51, 127
2, 161049, Note_on_c, 1, 61, 127
2, 161208, Note_off_c, 12, 83, 127
2, 161247, Note_on_c, 10, 81, 127
2, 161444, Note_off_c, 1, 61, 127
2, 161446, Note_on_c, 3, 63, 127
2, 161624, Note_off_c, 10, 81, 127
2, 161645, Note_on_c, 6, 78, 127
2, 161842, Note_off_c, 6, 78, 127
2, 161842, Note_off_c, 3, 63, 127
2, 161844, Note_on_c, 12, 83, 127
2, 161844, Note_on_c, 12, 59, 127
2, 162041, Note_off_c, 12, 83, 127
2, 162043, Note_on_c, 10, 81, 127
2, 162240, Note_off_c, 10, 81, 127
2, 162240, Note_off_c, 12, 59, 127
2, 162242, Note_on_c, 7, 79, 127
2, 162242, Note_on_c, 4, 64, 127
2, 162439, Note_off_c, 7, 79, 127
2, 162441, Note_on_c, 12, 71, 127
2, 162638, Note_off_c, 12, 71, 127
2, 162638, Note_off_c, 4, 64, 127
2, 162640, Note_on_c, 4, 76, 127
2, 162640, Note_on_c, 0, 60, 127
2, 162837, Note_off_c, 4, 76, 127
2, 162839, Note_on_c, 7, 79, 127
2, 163036, Note_off_c, 7, 79, 127
2, 163036, Note_off_c, 0, 60, 127
2, 163038, Note_on_c, 6, 78, 127
2, 163038, Note_on_c, 10, 57, 127
2, 163235, Note_off_c, 6, 78, 127
2, 163237, Note_on_c, 4, 76, 127
2, 163434, Note_off_c, 4, 76, 127
2, 163434, Note_off_c, 10, 57, 127
2, 163436, Note_on_c, 3, 75, 127
2, 163436, Note_on_c, 12, 59, 127
2, 163633, Note_off_c, 3, 75, 127
2, 163635, Note_on_c, 10, 69, 127
2, 163832, Note_off_c, 10, 69, 127
2, 163832, Note_off_c, 12, 59, 127
2, 163834, Note_on_c, 8, 68, 127
2, 163834, Note_on_c, 4, 52, 127
2, 164031, Note_off_c, 8, 68, 127
2, 164033, Note_on_c, 12, 71, 127
2, 164230, Note_off_c, 12, 71, 127
2, 164232, Note_on_c, 8, 68, 127
2, 164232, Note_on_c, 12, 47, 127
2, 164429, Note_off_c, 8, 68, 127
2, 164431, Note_on_c, 3, 63, 127
2, 164605, Note_off_c, 12, 47, 127
2, 164628, Note_off_c, 3, 63, 127
2, 164630, Note_on_c, 4, 64, 127
2, 164630, Note_on_c, 4, 40, 127
2, 164829, Note_off_c, 4, 52, 127
2, 165210, Note_off_c, 4, 64, 127
2, 165423, Note_off_c, 4, 40, 127
2, 165425, Note_on_c, 0, 48, 127
2, 165624, Note_on_c, 0, 72, 127
2, 165821, Note_off_c, 0, 48, 127
2, 165823, Note_on_c, 2, 50, 127
2, 166020, Note_off_c, 0, 72, 127
2, 166022, Note_on_c, 12, 71, 127
2, 166219, Note_off_c, 12, 71, 127
2, 166219, Note_off_c, 2, 50, 127
2, 166221, Note_on_c, 0, 72, 127
2, 166221, Note_on_c, 4, 52, 127
2, 166420, Note_on_c, 7, 79, 127
2, 166617, Note_off_c, 4, 52, 127
2, 166619, Note_on_c, 10, 45, 127
2, 166816, Note_off_c, 10, 45, 127
2, 166816, Note_off_c, 7, 79, 127
2, 166818, Note_on_c, 6, 78, 127
2, 166818, Note_on_c, 2, 50, 127
2, 167015, Note_off_c, 2, 50, 127
2, 167015, Note_off_c, 6, 78, 127
2, 167017, Note_on_c, 7, 79, 127
2, 167017, Note_on_c, 7, 43, 127
2, 167216, Note_off_c, 0, 72, 127
2, 167216, Note_on_c, 0, 72, 127
2, 167413, Note_off_c, 0, 72, 127
2, 167413, Note_off_c, 7, 43, 127
2, 167415, Note_on_c, 12, 71, 127
2, 167415, Note_on_c, 2, 50, 127
2, 167612, Note_off_c, 12, 71, 127
2, 167614, Note_on_c, 10, 69, 127
2, 167804, Note_off_c, 7, 79, 127
2, 167810, Note_off_c, 10, 69, 127
2, 167810, Note_off_c, 2, 50, 127
2, 167812, Note_on_c, 12, 71, 127
2, 167812, Note_on_c, 7, 55, 127
2, 168009, Note_off_c, 12, 71, 127
2, 168011, Note_on_c, 2, 74, 127
2, 168208, Note_off_c, 2, 74, 127
2, 168208, Note_off_c, 7, 55, 127
2, 168210, Note_on_c, 4, 76, 127
2, 168210, Note_on_c, 6, 54, 127
2, 168407, Note_off_c, 4, 76, 127
2, 168409, Note_on_c, 6, 78, 127
2, 168606, Note_off_c, 6, 78, 127
2, 168606, Note_off_c, 6, 54, 127
2, 168608, Note_on_c, 7, 79, 127
2, 168608, Note_on_c, 4, 52, 127
2, 168805, Note_off_c, 7, 79, 127
2, 168807, Note_on_c, 4, 76, 127
2, 169004, Note_off_c, 4, 52, 127
2, 169006, Note_on_c, 6, 54, 127
2, 169203, Note_off_c, 4, 76, 127
2, 169205, Note_on_c, 3, 75, 127
2, 169402, Note_off_c, 3, 75, 127
2, 169402, Note_off_c, 6, 54, 127
2, 169404, Note_on_c, 4, 76, 127
2, 169404, Note_on_c, 7, 55, 127
2, 169603, Note_on_c, 12, 71, 127
2, 169800, Note_off_c, 7, 55, 127
2, 169802, Note_on_c, 1, 49, 127
2, 169999, Note_off_c, 1, 49, 127
2, 169999, Note_off_c, 12, 71, 127
2, 170001, Note_on_c, 11, 70, 127
2, 170001, Note_on_c, 6, 54, 127
2, 170198, Note_off_c, 6, 54, 127
2, 170198, Note_off_c, 11, 70, 127
2, 170200, Note_on_c, 12, 71, 127
2, 170200, Note_on_c, 12, 47, 127
2, 170399, Note_off_c, 4, 76, 127
2, 170399, Note_on_c, 4, 76, 127
2, 170596, Note_off_c, 4, 76, 127
2, 170596, Note_off_c, 12, 47, 127
2, 170598, Note_on_c, 3, 75, 127
2, 170598, Note_on_c, 6, 54, 127
2, 170795, Note_off_c, 3, 75, 127
2, 170797, Note_on_c, 1, 73, 127
2, 170987, Note_off_c, 12, 71, 127
2, 170993, Note_off_c, 1, 73, 127
2, 170993, Note_off_c, 6, 54, 127
2, 170995, Note_on_c, 3, 75, 127
2, 170995, Note_on_c, 12, 59, 127
2, 171192, Note_off_c, 3, 75, 127
2, 171194, Note_on_c, 6, 78, 127
2, 171391, Note_off_c, 6, 78, 127
2, 171391, Note_off_c, 12, 59, 127
2, 171393, Note_on_c, 8, 80, 127
2, 171393, Note_on_c, 10, 57, 127
2, 171590, Note_off_c, 8, 80, 127
2, 171592, Note_on_c, 10, 81, 127
2, 171789, Note_off_c, 10, 81, 127
2, 171789, Note_off_c, 10, 57, 127
2, 171791, Note_on_c, 12, 83, 127
2, 171791, Note_on_c, 8, 56, 127
2, 171988, Note_off_c, 8, 56, 127
2, 171990, Note_on_c, 2, 74, 127
2, 171990, Note_on_c, 4, 64, 127
2, 172187, Note_off_c, 4, 64, 127
2, 172187, Note_off_c, 2, 74, 127
2, 172189, Note_on_c, 2, 74, 127
2, 172189, Note_on_c, 4, 64, 127
2, 172371, Note_off_c, 12, 83, 127
2, 172385, Note_off_c, 4, 64, 127
2, 172385, Note_off_c, 2, 74, 127
2, 172387, Note_on_c, 12, 83, 127
2, 172387, Note_on_c, 8, 56, 127
2, 172584, Note_off_c, 8, 56, 127
2, 172584, Note_off_c, 12, 83, 127
2, 172586, Note_on_c, 10, 81, 127
2, 172586, Note_on_c, 10, 57, 127
2, 172783, Note_off_c, 10, 57, 127
2, 172785, Note_on_c, 0, 72, 127
2, 172785, Note_on_c, 5, 65, 127
2, 172982, Note_off_c, 5, 65, 127
2, 172982, Note_off_c, 0, 72, 127
2, 172984, Note_on_c, 0, 72, 127
2, 172984, Note_on_c, 5, 65, 127
2, 173166, Note_off_c, 10, 81, 127
2, 173180, Note_off_c, 5, 65, 127
2, 173180, Note_off_c, 0, 72, 127
2, 173182, Note_on_c, 10, 81, 127
2, 173182, Note_on_c, 10, 57, 127
2, 173379, Note_off_c, 10, 57, 127
2, 173379, Note_off_c, 10, 81, 127
2, 173381, Note_on_c, 7, 79, 127
2, 173381, Note_on_c, 11, 58, 127
2, 173578, Note_off_c, 11, 58, 127
2, 173580, Note_on_c, 11, 70, 127
2, 173580, Note_on_c, 7, 67, 127
2, 173777, Note_off_c, 7, 67, 127
2, 173777, Note_off_c, 11, 70, 127
2, 173779, Note_on_c, 11, 70, 127
2, 173779, Note_on_c, 7, 67, 127
2, 173961, Note_off_c, 7, 79, 127
2, 173975, Note_off_c, 7, 67, 127
2, 173975, Note_off_c, 11, 70, 127
2, 173977, Note_on_c, 7, 79, 127
2, 173977, Note_on_c, 11, 58, 127
2, 174174, Note_off_c, 11, 58, 127
2, 174174, Note_off_c, 7, 79, 127
2, 174176, Note_on_c, 5, 77, 127
2, 174176, Note_on_c, 5, 53, 127
2, 174373, Note_off_c, 5, 53, 127
2, 174375, Note_on_c, 10, 69, 127
2, 174375, Note_on_c, 2, 62, 127
2, 174572, Note_off_c, 2, 62, 127
2, 174572, Note_off_c, 10, 69, 127
2, 174574, Note_on_c, 10, 69, 127
2, 174574, Note_on_c, 2, 62, 127
2, 174756, Note_off_c, 5, 77, 127
2, 174770, Note_off_c, 2, 62, 127
2, 174770, Note_off_c, 10, 69, 127
2, 174772, Note_on_c, 5, 77, 127
2, 174772, Note_on_c, 5, 53, 127
2, 174969, Note_off_c, 5, 53, 127
2, 174969, Note_off_c, 5, 77, 127
2, 174971, Note_on_c, 4, 76, 127
2, 174971, Note_on_c, 7, 55, 127
2, 175168, Note_off_c, 7, 55, 127
2, 175170, Note_on_c, 7, 67, 127
2, 175170, Note_on_c, 11, 58, 127
2, 175367, Note_off_c, 11, 58, 127
2, 175367, Note_off_c, 7, 67, 127
2, 175369, Note_on_c, 7, 67, 127
2, 175369, Note_on_c, 2, 62, 127
2, 175551, Note_off_c, 4, 76, 127
2, 175565, Note_off_c, 2, 62, 127
2, 175565, Note_off_c, 7, 67, 127
2, 175567, Note_on_c, 4, 76, 127
2, 175567, Note_on_c, 7, 55, 127
2, 175764, Note_off_c, 7, 55, 127
2, 175766, Note_on_c, 5, 65, 127
2, 175766, Note_on_c, 10, 57, 127
2, 175960, Note_off_c, 4, 76, 127
2, 175964, Note_on_c, 2, 74, 127
2, 176158, Note_off_c, 5, 65, 127
2, 176160, Note_off_c, 2, 74, 127
2, 176160, Note_off_c, 10, 57, 127
2, 176162, Note_on_c, 4, 64, 127
2, 176162, Note_on_c, 10, 45, 127
2, 176361, Note_on_c, 1, 73, 127
2, 176555, Note_off_c, 4, 64, 127
2, 176557, Note_off_c, 1, 73, 127
2, 176557, Note_off_c, 10, 45, 127
2, 176559, Note_on_c, 2, 74, 127
2, 176559, Note_on_c, 2, 50, 127
2, 176758, Note_on_c, 10, 69, 127
2, 176955, Note_off_c, 10, 69, 127
2, 176957, Note_on_c, 5, 65, 127
2, 177154, Note_off_c, 5, 65, 127
2, 177156, Note_on_c, 2, 62, 127
2, 177346, Note_off_c, 2, 74, 127
2, 177352, Note_off_c, 2, 62, 127
2, 177352, Note_off_c, 2, 50, 127
2, 177354, Note_on_c, 10, 57, 127
2, 177551, Note_off_c, 10, 57, 127
2, 177553, Note_on_c, 5, 53, 127
2, 177750, Note_off_c, 5, 53, 127
2, 177752, Note_on_c, 2, 50, 127
2, 177949, Note_off_c, 2, 50, 127
2, 177951, Note_on_c, 10, 45, 127
2, 178148, Note_off_c, 10, 45, 127
2, 178150, Note_on_c, 2, 38, 127
2, 178349, Note_on_c, 2, 74, 127
2, 178546, Note_off_c, 2, 38, 127
2, 178548, Note_on_c, 4, 40, 127
2, 178745, Note_off_c, 2, 74, 127
2, 178747, Note_on_c, 1, 73, 127
2, 178944, Note_off_c, 1, 73, 127
2, 178944, Note_off_c, 4, 40, 127
2, 178946, Note_on_c, 2, 74, 127
2, 178946, Note_on_c, 5, 41, 127
2, 179145, Note_on_c, 10, 81, 127
2, 179342, Note_off_c, 5, 41, 127
2, 179344, Note_on_c, 12, 71, 127
2, 179344, Note_on_c, 4, 40, 127
2, 179344, Note_on_c, 4, 52, 127
2, 179538, Note_off_c, 10, 81, 127
2, 179542, Note_on_c, 8, 80, 127
2, 179736, Note_off_c, 12, 71, 127
2, 179738, Note_off_c, 8, 80, 127
2, 179738, Note_off_c, 4, 40, 127
2, 179740, Note_on_c, 10, 81, 127
2, 179740, Note_on_c, 10, 45, 127
2, 179939, Note_off_c, 2, 74, 127
2, 179939, Note_on_c, 2, 74, 127
2, 180136, Note_off_c, 2, 74, 127
2, 180136, Note_off_c, 10, 45, 127
2, 180138, Note_on_c, 0, 72, 127
2, 180138, Note_on_c, 12, 47, 127
2, 180335, Note_off_c, 0, 72, 127
2, 180337, Note_on_c, 12, 71, 127
2, 180527, Note_off_c, 10, 81, 127
2, 180533, Note_off_c, 12, 71, 127
2, 180533, Note_off_c, 12, 47, 127
2, 180533, Note_off_c, 4, 52, 127
2, 180535, Note_on_c, 4, 76, 127
2, 180535, Note_on_c, 0, 48, 127
2, 180734, Note_on_c, 12, 71, 127
2, 180931, Note_off_c, 12, 71, 127
2, 180931, Note_off_c, 0, 48, 127
2, 180933, Note_on_c, 0, 72, 127
2, 180933, Note_on_c, 4, 52, 127
2, 181130, Note_off_c, 0, 72, 127
2, 181132, Note_on_c, 2, 74, 127
2, 181322, Note_off_c, 4, 76, 127
2, 181328, Note_off_c, 2, 74, 127
2, 181328, Note_off_c, 4, 52, 127
2, 181330, Note_on_c, 0, 72, 127
2, 181330, Note_on_c, 10, 45, 127
2, 181462, Note_off_c, 0, 72, 127
2, 181528, Note_on_c, 10, 69, 127
2, 181725, Note_off_c, 10, 45, 127
2, 181727, Note_on_c, 12, 47, 127
2, 181924, Note_off_c, 10, 69, 127
2, 181926, Note_on_c, 8, 68, 127
2, 182123, Note_off_c, 8, 68, 127
2, 182123, Note_off_c, 12, 47, 127
2, 182125, Note_on_c, 10, 69, 127
2, 182125, Note_on_c, 0, 48, 127
2, 182324, Note_on_c, 4, 64, 127
2, 182521, Note_off_c, 4, 64, 127
2, 182521, Note_off_c, 0, 48, 127
2, 182523, Note_on_c, 6, 66, 127
2, 182523, Note_on_c, 12, 59, 127
2, 182523, Note_on_c, 12, 47, 127
2, 182722, Note_on_c, 3, 63, 127
2, 182916, Note_off_c, 6, 66, 127
2, 182918, Note_off_c, 3, 63, 127
2, 182918, Note_off_c, 12, 47, 127
2, 182920, Note_on_c, 4, 64, 127
2, 182920, Note_on_c, 4, 52, 127
2, 183119, Note_off_c, 10, 69, 127
2, 183119, Note_on_c, 10, 69, 127
2, 183316, Note_off_c, 10, 69, 127
2, 183316, Note_off_c, 4, 52, 127
2, 183318, Note_on_c, 8, 68, 127
2, 183318, Note_on_c, 6, 54, 127
2, 183515, Note_off_c, 8, 68, 127
2, 183517, Note_on_c, 6, 66, 127
2, 183707, Note_off_c, 4, 64, 127
2, 183713, Note_off_c, 6, 66, 127
2, 183713, Note_off_c, 6, 54, 127
2, 183713, Note_off_c, 12, 59, 127
2, 183715, Note_on_c, 12, 71, 127
2, 183715, Note_on_c, 8, 56, 127
2, 183914, Note_on_c, 4, 64, 127
2, 184111, Note_off_c, 4, 64, 127
2, 184111, Note_off_c, 8, 56, 127
2, 184113, Note_on_c, 6, 66, 127
2, 184113, Note_on_c, 4, 52, 127
2, 184310, Note_off_c, 6, 66, 127
2, 184312, Note_on_c, 8, 68, 127
2, 184478, Note_off_c, 8, 68, 127
2, 184503, Note_off_c, 12, 71, 127
2, 184509, Note_off_c, 4, 52, 127
2, 184511, Note_on_c, 2, 74, 127
2, 184511, Note_on_c, 5, 53, 127
2, 184710, Note_on_c, 10, 69, 127
2, 184907, Note_off_c, 10, 69, 127
2, 184907, Note_off_c, 5, 53, 127
2, 184909, Note_on_c, 12, 71, 127
2, 184909, Note_on_c, 4, 52, 127
2, 185106, Note_off_c, 12, 71, 127
2, 185108, Note_on_c, 0, 72, 127
2, 185305, Note_off_c, 0, 72, 127
2, 185305, Note_off_c, 4, 52, 127
2, 185307, Note_on_c, 12, 71, 127
2, 185307, Note_on_c, 2, 50, 127
2, 185504, Note_off_c, 12, 71, 127
2, 185506, Note_off_c, 2, 74, 127
2, 185506, Note_on_c, 2, 74, 127
2, 185703, Note_off_c, 2, 50, 127
2, 185705, Note_on_c, 6, 66, 127
2, 185705, Note_on_c, 12, 47, 127
2, 185902, Note_off_c, 6, 66, 127
2, 185904, Note_on_c, 10, 69, 127
2, 186101, Note_off_c, 10, 69, 127
2, 186101, Note_off_c, 12, 47, 127
2, 186103, Note_on_c, 8, 68, 127
2, 186103, Note_on_c, 4, 52, 127
2, 186293, Note_off_c, 2, 74, 127
2, 186301, Note_on_c, 12, 71, 127
2, 186498, Note_off_c, 12, 71, 127
2, 186498, Note_off_c, 4, 52, 127
2, 186500, Note_on_c, 0, 72, 127
2, 186500, Note_on_c, 2, 50, 127
2, 186697, Note_off_c, 0, 72, 127
2, 186699, Note_on_c, 2, 74, 127
2, 186896, Note_off_c, 2, 74, 127
2, 186896, Note_off_c, 2, 50, 127
2, 186898, Note_on_c, 4, 76, 127
2, 186898, Note_on_c, 0, 48, 127
2, 187097, Note_off_c, 8, 68, 127
2, 187097, Note_on_c, 8, 68, 127
2, 187294, Note_off_c, 8, 68, 127
2, 187294, Note_off_c, 0, 48, 127
2, 187296, Note_on_c, 10, 69, 127
2, 187296, Note_on_c, 8, 56, 127
2, 187296, Note_on_c, 12, 47, 127
2, 187493, Note_off_c, 10, 69, 127
2, 187495, Note_on_c, 12, 71, 127
2, 187692, Note_off_c, 12, 71, 127
2, 187692, Note_off_c, 12, 47, 127
2, 187692, Note_off_c, 8, 56, 127
2, 187694, Note_on_c, 0, 72, 127
2, 187694, Note_on_c, 10, 57, 127
2, 187694, Note_on_c, 10, 45, 127
2, 187893, Note_off_c, 4, 76, 127
2, 187893, Note_on_c, 5, 77, 127
2, 188087, Note_off_c, 0, 72, 127
2, 188089, Note_off_c, 5, 77, 127
2, 188089, Note_off_c, 10, 45, 127
2, 188091, Note_on_c, 12, 71, 127
2, 188091, Note_on_c, 2, 74, 127
2, 188091, Note_on_c, 2, 50, 127
2, 188288, Note_off_c, 2, 74, 127
2, 188290, Note_on_c, 4, 76, 127
2, 188484, Note_off_c, 12, 71, 127
2, 188486, Note_off_c, 4, 76, 127
2, 188486, Note_off_c, 2, 50, 127
2, 188488, Note_on_c, 10, 69, 127
2, 188488, Note_on_c, 0, 72, 127
2, 188488, Note_on_c, 4, 52, 127
2, 188685, Note_off_c, 0, 72, 127
2, 188687, Note_on_c, 2, 74, 127
2, 188881, Note_off_c, 10, 69, 127
2, 188883, Note_off_c, 2, 74, 127
2, 188883, Note_off_c, 10, 57, 127
2, 188885, Note_on_c, 12, 71, 127
2, 188885, Note_on_c, 8, 56, 127
2, 189084, Note_on_c, 2, 74, 127
2, 189274, Note_off_c, 4, 52, 127
2, 189280, Note_off_c, 8, 56, 127
2, 189282, Note_on_c, 10, 57, 127
2, 189414, Note_off_c, 2, 74, 127
2, 189480, Note_on_c, 4, 76, 127
2, 189670, Note_off_c, 12, 71, 127
2, 189676, Note_off_c, 4, 76, 127
2, 189676, Note_off_c, 10, 57, 127
2, 189678, Note_on_c, 1, 73, 127
2, 189678, Note_on_c, 4, 52, 127
2, 189877, Note_on_c, 8, 68, 127
2, 190074, Note_off_c, 8, 68, 127
2, 190074, Note_off_c, 4, 52, 127
2, 190076, Note_on_c, 10, 69, 127
2, 190076, Note_on_c, 10, 45, 127
2, 190275, Note_on_c, 4, 64, 127
2, 190474, Note_on_c, 10, 57, 127
2, 190863, Note_off_c, 10, 45, 127
2, 190863, Note_off_c, 10, 69, 127
2, 190869, Note_off_c, 10, 57, 127
2, 190869, Note_off_c, 4, 64, 127
2, 190869, Note_off_c, 1, 73, 127
2, 190871, Note_on_c, 10, 69, 127
2, 190871, Note_on_c, 10, 45, 127
2, 191068, Note_off_c, 10, 69, 127
2, 191070, Note_on_c, 12, 71, 127
2, 191267, Note_off_c, 12, 71, 127
2, 191267, Note_off_c, 10, 45, 127
2, 191269, Note_on_c, 0, 72, 127
2, 191269, Note_on_c, 10, 57, 127
2, 191466, Note_off_c, 0, 72, 127
2, 191468, Note_on_c, 2, 74, 127
2, 191665, Note_off_c, 2, 74, 127
2, 191665, Note_off_c, 10, 57, 127
2, 191667, Note_on_c, 4, 76, 127
2, 191667, Note_on_c, 8, 56, 127
2, 191864, Note_off_c, 4, 76, 127
2, 191866, Note_on_c, 6, 78, 127
2, 192063, Note_off_c, 6, 78, 127
2, 192063, Note_off_c, 8, 56, 127
2, 192065, Note_on_c, 8, 80, 127
2, 192065, Note_on_c, 6, 54, 127
2, 192262, Note_off_c, 8, 80, 127
2, 192264, Note_on_c, 10, 81, 127
2, 192461, Note_off_c, 10, 81, 127
2, 192461, Note_off_c, 6, 54, 127
2, 192463, Note_on_c, 8, 80, 127
2, 192463, Note_on_c, 4, 52, 127
2, 192660, Note_off_c, 8, 80, 127
2, 192662, Note_on_c, 10, 81, 127
2, 192759, Note_off_c, 10, 81, 127
2, 192761, Note_on_c, 8, 80, 127
2, 192858, Note_off_c, 8, 80, 127
2, 192858, Note_off_c, 4, 52, 127
2, 192860, Note_on_c, 10, 81, 127
2, 192860, Note_on_c, 6, 54, 127
2, 192957, Note_off_c, 10, 81, 127
2, 192959, Note_on_c, 8, 80, 127
2, 193056, Note_off_c, 8, 80, 127
2, 193058, Note_on_c, 6, 78, 127
2, 193255, Note_off_c, 6, 78, 127
2, 193255, Note_off_c, 6, 54, 127
2, 193257, Note_on_c, 4, 76, 127
2, 193257, Note_on_c, 8, 56, 127
2, 193454, Note_off_c, 4, 76, 127
2, 193456, Note_on_c, 5, 77, 127
2, 193653, Note_off_c, 5, 77, 127
2, 193653, Note_off_c, 8, 56, 127
2, 193655, Note_on_c, 4, 76, 127
2, 193655, Note_on_c, 4, 52, 127
2, 193852, Note_off_c, 4, 76, 127
2, 193854, Note_on_c, 2, 74, 127
2, 194051, Note_off_c, 2, 74, 127
2, 194051, Note_off_c, 4, 52, 127
2, 194053, Note_on_c, 0, 72, 127
2, 194053, Note_on_c, 10, 57, 127
2, 194250, Note_off_c, 0, 72, 127
2, 194252, Note_on_c, 4, 76, 127
2, 194449, Note_off_c, 4, 76, 127
2, 194449, Note_off_c, 10, 57, 127
2, 194451, Note_on_c, 5, 77, 127
2, 194451, Note_on_c, 0, 48, 127
2, 194648, Note_off_c, 5, 77, 127
2, 194650, Note_on_c, 4, 76, 127
2, 194847, Note_off_c, 4, 76, 127
2, 194847, Note_off_c, 0, 48, 127
2, 194849, Note_on_c, 2, 74, 127
2, 194849, Note_on_c, 2, 50, 127
2, 195046, Note_off_c, 2, 74, 127
2, 195048, Note_on_c, 0, 72, 127
2, 195245, Note_off_c, 0, 72, 127
2, 195245, Note_off_c, 2, 50, 127
2, 195247, Note_on_c, 12, 71, 127
2, 195247, Note_on_c, 4, 52, 127
2, 195444, Note_off_c, 12, 71, 127
2, 195446, Note_on_c, 2, 74, 127
2, 195643, Note_off_c, 2, 74, 127
2, 195643, Note_off_c, 4, 52, 127
2, 195645, Note_on_c, 0, 72, 127
2, 195645, Note_on_c, 10, 45, 127
2, 195842, Note_off_c, 0, 72, 127
2, 195844, Note_on_c, 2, 74, 127
2, 195941, Note_off_c, 2, 74, 127
2, 195943, Note_on_c, 0, 72, 127
2, 196040, Note_off_c, 0, 72, 127
2, 196042, Note_on_c, 2, 74, 127
2, 196139, Note_off_c, 2, 74, 127
2, 196141, Note_on_c, 0, 72, 127
2, 196238, Note_off_c, 0, 72, 127
2, 196238, Note_off_c, 10, 45, 127
2, 196240, Note_on_c, 12, 71, 127
2, 196240, Note_on_c, 4, 52, 127
2, 196437, Note_off_c, 4, 52, 127
2, 196437, Note_off_c, 12, 71, 127
2, 196439, Note_on_c, 10, 69, 127
2, 196439, Note_on_c, 10, 57, 127
2, 196636, Note_off_c, 10, 57, 127
2, 196638, Note_on_c, 12, 59, 127
2, 196835, Note_off_c, 12, 59, 127
2, 196837, Note_on_c, 0, 60, 127
2, 197019, Note_off_c, 10, 69, 127
2, 197033, Note_off_c, 0, 60, 127
2, 197035, Note_on_c, 12, 59, 127
2, 197232, Note_off_c, 12, 59, 127
2, 197234, Note_on_c, 6, 78, 127
2, 197234, Note_on_c, 10, 57, 127
2, 197431, Note_off_c, 6, 78, 127
2, 197433, Note_on_c, 7, 79, 127
2, 197630, Note_off_c, 7, 79, 127
2, 197630, Note_off_c, 10, 57, 127
2, 197632, Note_on_c, 10, 81, 127
2, 197632, Note_on_c, 10, 45, 127
2, 197829, Note_off_c, 10, 81, 127
2, 197831, Note_on_c, 7, 79, 127
2, 198028, Note_off_c, 7, 79, 127
2, 198028, Note_off_c, 10, 45, 127
2, 198030, Note_on_c, 6, 78, 127
2, 198030, Note_on_c, 12, 59, 127
2, 198227, Note_off_c, 6, 78, 127
2, 198229, Note_on_c, 7, 79, 127
2, 198426, Note_off_c, 7, 79, 127
2, 198426, Note_off_c, 12, 59, 127
2, 198428, Note_on_c, 10, 81, 127
2, 198428, Note_on_c, 12, 47, 127
2, 198625, Note_off_c, 10, 81, 127
2, 198627, Note_on_c, 7, 79, 127
2, 198824, Note_off_c, 7, 79, 127
2, 198824, Note_off_c, 12, 47, 127
2, 198826, Note_on_c, 6, 78, 127
2, 198826, Note_on_c, 0, 60, 127
2, 199023, Note_off_c, 6, 78, 127
2, 199025, Note_on_c, 7, 79, 127
2, 199222, Note_off_c, 7, 79, 127
2, 199222, Note_off_c, 0, 60, 127
2, 199224, Note_on_c, 10, 81, 127
2, 199224, Note_on_c, 0, 48, 127
2, 199421, Note_off_c, 10, 81, 127
2, 199423, Note_on_c, 3, 75, 127
2, 199620, Note_off_c, 3, 75, 127
2, 199620, Note_off_c, 0, 48, 127
2, 199622, Note_on_c, 4, 76, 127
2, 199622, Note_on_c, 7, 55, 127
2, 199819, Note_off_c, 4, 76, 127
2, 199821, Note_on_c, 6, 78, 127
2, 200018, Note_off_c, 6, 78, 127
2, 200018, Note_off_c, 7, 55, 127
2, 200020, Note_on_c, 7, 79, 127
2, 200020, Note_on_c, 7, 43, 127
2, 200217, Note_off_c, 7, 79, 127
2, 200219, Note_on_c, 12, 71, 127
2, 200416, Note_off_c, 12, 71, 127
2, 200416, Note_off_c, 7, 43, 127
2, 200418, Note_on_c, 0, 72, 127
2, 200418, Note_on_c, 10, 57, 127
2, 200615, Note_off_c, 0, 72, 127
2, 200617, Note_on_c, 4, 76, 127
2, 200814, Note_off_c, 4, 76, 127
2, 200814, Note_off_c, 10, 57, 127
2, 200816, Note_on_c, 6, 78, 127
2, 200816, Note_on_c, 10, 45, 127
2, 201013, Note_off_c, 6, 78, 127
2, 201015, Note_on_c, 4, 76, 127
2, 201212, Note_off_c, 4, 76, 127
2, 201212, Note_off_c, 10, 45, 127
2, 201214, Note_on_c, 3, 75, 127
2, 201214, Note_on_c, 12, 59, 127
2, 201413, Note_on_c, 10, 69, 127
2, 201610, Note_off_c, 10, 69, 127
2, 201610, Note_off_c, 12, 59, 127
2, 201612, Note_on_c, 12, 71, 127
2, 201612, Note_on_c, 12, 47, 127
2, 201809, Note_off_c, 12, 71, 127
2, 201811, Note_on_c, 10, 69, 127
2, 202001, Note_off_c, 3, 75, 127
2, 202007, Note_off_c, 10, 69, 127
2, 202007, Note_off_c, 12, 47, 127
2, 202009, Note_on_c, 8, 68, 127
2, 202009, Note_on_c, 4, 76, 127
2, 202009, Note_on_c, 4, 52, 127
2, 202206, Note_off_c, 8, 68, 127
2, 202208, Note_on_c, 12, 71, 127
2, 202405, Note_off_c, 12, 71, 127
2, 202407, Note_on_c, 10, 69, 127
2, 202604, Note_off_c, 10, 69, 127
2, 202606, Note_on_c, 12, 71, 127
2, 202803, Note_off_c, 12, 71, 127
2, 202805, Note_on_c, 4, 64, 127
2, 203004, Note_on_c, 12, 47, 127
2, 203201, Note_off_c, 12, 47, 127
2, 203201, Note_off_c, 4, 52, 127
2, 203203, Note_on_c, 4, 40, 127
2, 203385, Note_off_c, 4, 64, 127
2, 203459, Note_off_c, 4, 76, 127
2, 203598, Note_off_c, 4, 40, 127
2, 203600, Note_on_c, 0, 72, 127
2, 203600, Note_on_c, 0, 48, 127
2, 203797, Note_off_c, 0, 72, 127
2, 203799, Note_on_c, 2, 74, 127
2, 203996, Note_off_c, 2, 74, 127
2, 203996, Note_off_c, 0, 48, 127
2, 203998, Note_on_c, 4, 76, 127
2, 203998, Note_on_c, 2, 50, 127
2, 204195, Note_off_c, 4, 76, 127
2, 204197, Note_on_c, 5, 77, 127
2, 204394, Note_off_c, 5, 77, 127
2, 204394, Note_off_c, 2, 50, 127
2, 204396, Note_on_c, 7, 79, 127
2, 204396, Note_on_c, 4, 52, 127
2, 204593, Note_off_c, 7, 79, 127
2, 204595, Note_on_c, 10, 81, 127
2, 204792, Note_off_c, 10, 81, 127
2, 204792, Note_off_c, 4, 52, 127
2, 204794, Note_on_c, 12, 83, 127
2, 204794, Note_on_c, 0, 48, 127
2, 204991, Note_off_c, 12, 83, 127
2, 204993, Note_on_c, 0, 84, 127
2, 205190, Note_off_c, 0, 84, 127
2, 205190, Note_off_c, 0, 48, 127
2, 205192, Note_on_c, 12, 83, 127
2, 205192, Note_on_c, 7, 55, 127
2, 205389, Note_off_c, 12, 83, 127
2, 205391, Note_on_c, 0, 84, 127
2, 205488, Note_off_c, 0, 84, 127
2, 205490, Note_on_c, 12, 83, 127
2, 205587, Note_off_c, 12, 83, 127
2, 205587, Note_off_c, 7, 55, 127
2, 205589, Note_on_c, 0, 84, 127
2, 205589, Note_on_c, 6, 54, 127
2, 205686, Note_off_c, 0, 84, 127
2, 205688, Note_on_c, 12, 83, 127
2, 205785, Note_off_c, 12, 83, 127
2, 205787, Note_on_c, 10, 81, 127
2, 205984, Note_off_c, 10, 81, 127
2, 205984, Note_off_c, 6, 54, 127
2, 205986, Note_on_c, 7, 79, 127
2, 205986, Note_on_c, 7, 55, 127
2, 206183, Note_off_c, 7, 79, 127
2, 206185, Note_on_c, 10, 81, 127
2, 206382, Note_off_c, 10, 81, 127
2, 206382, Note_off_c, 7, 55, 127
2, 206384, Note_on_c, 7, 79, 127
2, 206384, Note_on_c, 7, 43, 127
2, 206581, Note_off_c, 7, 79, 127
2, 206583, Note_on_c, 6, 78, 127
2, 206780, Note_off_c, 6, 78, 127
2, 206780, Note_off_c, 7, 43, 127
2, 206782, Note_on_c, 4, 76, 127
2, 206782, Note_on_c, 4, 52, 127
2, 206979, Note_off_c, 4, 76, 127
2, 206981, Note_on_c, 0, 72, 127
2, 207178, Note_off_c, 0, 72, 127
2, 207178, Note_off_c, 4, 52, 127
2, 207180, Note_on_c, 12, 71, 127
2, 207180, Note_on_c, 6, 54, 127
2, 207377, Note_off_c, 12, 71, 127
2, 207379, Note_on_c, 10, 69, 127
2, 207576, Note_off_c, 10, 69, 127
2, 207576, Note_off_c, 6, 54, 127
2, 207578, Note_on_c, 7, 67, 127
2, 207578, Note_on_c, 7, 55, 127
2, 207775, Note_off_c, 7, 67, 127
2, 207777, Note_on_c, 6, 66, 127
2, 207974, Note_off_c, 6, 66, 127
2, 207974, Note_off_c, 7, 55, 127
2, 207976, Note_on_c, 4, 64, 127
2, 207976, Note_on_c, 10, 57, 127
2, 208173, Note_off_c, 4, 64, 127
2, 208175, Note_on_c, 6, 66, 127
2, 208372, Note_off_c, 6, 66, 127
2, 208372, Note_off_c, 10, 57, 127
2, 208374, Note_on_c, 4, 64, 127
2, 208374, Note_on_c, 12, 59, 127
2, 208471, Note_off_c, 4, 64, 127
2, 208473, Note_on_c, 3, 63, 127
2, 208570, Note_off_c, 3, 63, 127
2, 208572, Note_on_c, 4, 64, 127
2, 208669, Note_off_c, 4, 64, 127
2, 208671, Note_on_c, 3, 63, 127
2, 208768, Note_off_c, 3, 63, 127
2, 208768, Note_off_c, 12, 59, 127
2, 208770, Note_on_c, 4, 64, 127
2, 208770, Note_on_c, 1, 49, 127
2, 208867, Note_off_c, 4, 64, 127
2, 208869, Note_on_c, 3, 63, 127
2, 208966, Note_off_c, 3, 63, 127
2, 208968, Note_on_c, 1, 61, 127
2, 209165, Note_off_c, 1, 61, 127
2, 209165, Note_off_c, 1, 49, 127
2, 209167, Note_on_c, 12, 59, 127
2, 209167, Note_on_c, 3, 51, 127
2, 209364, Note_off_c, 3, 51, 127
2, 209366, Note_on_c, 1, 49, 127
2, 209563, Note_off_c, 1, 49, 127
2, 209565, Note_on_c, 12, 47, 127
2, 209747, Note_off_c, 12, 59, 127
2, 209761, Note_off_c, 12, 47, 127
2, 209763, Note_on_c, 3, 51, 127
2, 209960, Note_off_c, 3, 51, 127
2, 209962, Note_on_c, 2, 74, 127
2, 209962, Note_on_c, 8, 44, 127
2, 210159, Note_off_c, 2, 74, 127
2, 210161, Note_on_c, 1, 73, 127
2, 210358, Note_off_c, 1, 73, 127
2, 210360, Note_on_c, 2, 74, 127
2, 210557, Note_off_c, 8, 44, 127
2, 210559, Note_on_c, 2, 62, 127
2, 210559, Note_on_c, 4, 52, 127
2, 210753, Note_off_c, 2, 74, 127
2, 210755, Note_off_c, 4, 52, 127
2, 210755, Note_off_c, 2, 62, 127
2, 210757, Note_on_c, 2, 74, 127
2, 210757, Note_on_c, 10, 45, 127
2, 210954, Note_off_c, 2, 74, 127
2, 210956, Note_on_c, 1, 73, 127
2, 211153, Note_off_c, 1, 73, 127
2, 211155, Note_on_c, 2, 74, 127
2, 211352, Note_off_c, 10, 45, 127
2, 211354, Note_on_c, 2, 62, 127
2, 211354, Note_on_c, 5, 53, 127
2, 211548, Note_off_c, 2, 74, 127
2, 211550, Note_off_c, 5, 53, 127
2, 211550, Note_off_c, 2, 62, 127
2, 211552, Note_on_c, 2, 74, 127
2, 211552, Note_on_c, 11, 46, 127
2, 211749, Note_off_c, 2, 74, 127
2, 211751, Note_on_c, 1, 73, 127
2, 211948, Note_off_c, 1, 73, 127
2, 211950, Note_on_c, 2, 74, 127
2, 212147, Note_off_c, 11, 46, 127
2, 212149, Note_on_c, 2, 62, 127
2, 212149, Note_on_c, 7, 55, 127
2, 212343, Note_off_c, 2, 74, 127
2, 212345, Note_off_c, 7, 55, 127
2, 212345, Note_off_c, 2, 62, 127
2, 212347, Note_on_c, 2, 74, 127
2, 212347, Note_on_c, 5, 41, 127
2, 212544, Note_off_c, 2, 74, 127
2, 212546, Note_on_c, 1, 73, 127
2, 212743, Note_off_c, 1, 73, 127
2, 212745, Note_on_c, 2, 74, 127
2, 212942, Note_off_c, 5, 41, 127
2, 212944, Note_on_c, 2, 62, 127
2, 212944, Note_on_c, 2, 50, 127
2, 213138, Note_off_c, 2, 74, 127
2, 213140, Note_off_c, 2, 50, 127
2, 213142, Note_on_c, 7, 43, 127
2, 213233, Note_off_c, 2, 62, 127
2, 213341, Note_on_c, 11, 70, 127
2, 213538, Note_off_c, 11, 70, 127
2, 213538, Note_off_c, 7, 43, 127
2, 213540, Note_on_c, 10, 69, 127
2, 213540, Note_on_c, 7, 55, 127
2, 213737, Note_off_c, 10, 69, 127
2, 213739, Note_on_c, 7, 67, 127
2, 213936, Note_off_c, 7, 67, 127
2, 213936, Note_off_c, 7, 55, 127
2, 213938, Note_on_c, 5, 65, 127
2, 213938, Note_on_c, 10, 57, 127
2, 214135, Note_off_c, 5, 65, 127
2, 214137, Note_on_c, 4, 64, 127
2, 214334, Note_off_c, 4, 64, 127
2, 214334, Note_off_c, 10, 57, 127
2, 214336, Note_on_c, 2, 62, 127
2, 214336, Note_on_c, 10, 45, 127
2, 214533, Note_off_c, 2, 62, 127
2, 214535, Note_on_c, 4, 64, 127
2, 214732, Note_off_c, 4, 64, 127
2, 214732, Note_off_c, 10, 45, 127
2, 214734, Note_on_c, 5, 65, 127
2, 214734, Note_on_c, 2, 50, 127
2, 214931, Note_off_c, 5, 65, 127
2, 214933, Note_on_c, 2, 62, 127
2, 215130, Note_off_c, 2, 62, 127
2, 215130, Note_off_c, 2, 50, 127
2, 215132, Note_on_c, 5, 65, 127
2, 215132, Note_on_c, 4, 52, 127
2, 215329, Note_off_c, 5, 65, 127
2, 215331, Note_on_c, 10, 69, 127
2, 215528, Note_off_c, 10, 69, 127
2, 215528, Note_off_c, 4, 52, 127
2, 215530, Note_on_c, 2, 74, 127
2, 215530, Note_on_c, 5, 53, 127
2, 215727, Note_off_c, 5, 53, 127
2, 215729, Note_on_c, 7, 55, 127
2, 215926, Note_off_c, 7, 55, 127
2, 215928, Note_on_c, 5, 53, 127
2, 216110, Note_off_c, 2, 74, 127
2, 216124, Note_off_c, 5, 53, 127
2, 216126, Note_on_c, 4, 52, 127
2, 216323, Note_off_c, 4, 52, 127
2, 216325, Note_on_c, 5, 77, 127
2, 216325, Note_on_c, 2, 50, 127
2, 216522, Note_off_c, 5, 77, 127
2, 216524, Note_on_c, 7, 79, 127
2, 216721, Note_off_c, 7, 79, 127
2, 216721, Note_off_c, 2, 50, 127
2, 216723, Note_on_c, 10, 81, 127
2, 216723, Note_on_c, 4, 52, 127
2, 216920, Note_off_c, 10, 81, 127
2, 216922, Note_on_c, 7, 79, 127
2, 217119, Note_off_c, 7, 79, 127
2, 217119, Note_off_c, 4, 52, 127
2, 217121, Note_on_c, 5, 77, 127
2, 217121, Note_on_c, 5, 53, 127
2, 217318, Note_off_c, 5, 77, 127
2, 217320, Note_on_c, 4, 76, 127
2, 217517, Note_off_c, 4, 76, 127
2, 217517, Note_off_c, 5, 53, 127
2, 217519, Note_on_c, 2, 74, 127
2, 217519, Note_on_c, 7, 55, 127
2, 217716, Note_off_c, 2, 74, 127
2, 217718, Note_on_c, 4, 76, 127
2, 217915, Note_off_c, 4, 76, 127
2, 217915, Note_off_c, 7, 55, 127
2, 217917, Note_on_c, 1, 73, 127
2, 217917, Note_on_c, 10, 57, 127
2, 218114, Note_off_c, 1, 73, 127
2, 218116, Note_on_c, 2, 74, 127
2, 218313, Note_off_c, 2, 74, 127
2, 218313, Note_off_c, 10, 57, 127
2, 218315, Note_on_c, 1, 73, 127
2, 218315, Note_on_c, 4, 52, 127
2, 218512, Note_off_c, 1, 73, 127
2, 218514, Note_on_c, 12, 71, 127
2, 218711, Note_off_c, 12, 71, 127
2, 218711, Note_off_c, 4, 52, 127
2, 218713, Note_on_c, 10, 69, 127
2, 218713, Note_on_c, 10, 45, 127
2, 218910, Note_off_c, 10, 45, 127
2, 218910, Note_off_c, 10, 69, 127
2, 218912, Note_on_c, 12, 59, 127
2, 219109, Note_off_c, 12, 59, 127
2, 219111, Note_on_c, 10, 57, 127
2, 219308, Note_off_c, 10, 57, 127
2, 219310, Note_on_c, 8, 56, 127
2, 219507, Note_off_c, 8, 56, 127
2, 219509, Note_on_c, 0, 72, 127
2, 219509, Note_on_c, 10, 57, 127
2, 219706, Note_off_c, 0, 72, 127
2, 219708, Note_on_c, 2, 74, 127
2, 219905, Note_off_c, 2, 74, 127
2, 219905, Note_off_c, 10, 57, 127
2, 219907, Note_on_c, 4, 76, 127
2, 219907, Note_on_c, 12, 59, 127
2, 220104, Note_off_c, 4, 76, 127
2, 220106, Note_on_c, 2, 74, 127
2, 220303, Note_off_c, 2, 74, 127
2, 220303, Note_off_c, 12, 59, 127
2, 220305, Note_on_c, 0, 72, 127
2, 220305, Note_on_c, 0, 60, 127
2, 220502, Note_off_c, 0, 72, 127
2, 220504, Note_on_c, 12, 71, 127
2, 220701, Note_off_c, 12, 71, 127
2, 220701, Note_off_c, 0, 60, 127
2, 220703, Note_on_c, 10, 69, 127
2, 220703, Note_on_c, 2, 62, 127
2, 220900, Note_off_c, 10, 69, 127
2, 220902, Note_on_c, 12, 71, 127
2, 221099, Note_off_c, 12, 71, 127
2, 221099, Note_off_c, 2, 62, 127
2, 221101, Note_on_c, 8, 68, 127
2, 221101, Note_on_c, 4, 64, 127
2, 221298, Note_off_c, 8, 68, 127
2, 221300, Note_on_c, 10, 69, 127
2, 221497, Note_off_c, 10, 69, 127
2, 221497, Note_off_c, 4, 64, 127
2, 221499, Note_on_c, 8, 68, 127
2, 221499, Note_on_c, 12, 59, 127
2, 221696, Note_off_c, 8, 68, 127
2, 221698, Note_on_c, 6, 66, 127
2, 221895, Note_off_c, 6, 66, 127
2, 221895, Note_off_c, 12, 59, 127
2, 221897, Note_on_c, 4, 64, 127
2, 221897, Note_on_c, 4, 52, 127
2, 222094, Note_off_c, 4, 52, 127
2, 222094, Note_off_c, 4, 64, 127
2, 222096, Note_on_c, 7, 55, 127
2, 222293, Note_off_c, 7, 55, 127
2, 222295, Note_on_c, 5, 53, 127
2, 222492, Note_off_c, 5, 53, 127
2, 222494, Note_on_c, 4, 52, 127
2, 222691, Note_off_c, 4, 52, 127
2, 222693, Note_on_c, 5, 77, 127
2, 222693, Note_on_c, 2, 50, 127
2, 222890, Note_off_c, 5, 77, 127
2, 222892, Note_on_c, 2, 74, 127
2, 223089, Note_off_c, 2, 74, 127
2, 223089, Note_off_c, 2, 50, 127
2, 223091, Note_on_c, 2, 74, 127
2, 223091, Note_on_c, 4, 52, 127
2, 223288, Note_off_c, 2, 74, 127
2, 223290, Note_on_c, 12, 71, 127
2, 223487, Note_off_c, 12, 71, 127
2, 223487, Note_off_c, 4, 52, 127
2, 223489, Note_on_c, 12, 71, 127
2, 223489, Note_on_c, 5, 53, 127
2, 223686, Note_off_c, 12, 71, 127
2, 223688, Note_on_c, 8, 68, 127
2, 223885, Note_off_c, 8, 68, 127
2, 223885, Note_off_c, 5, 53, 127
2, 223887, Note_on_c, 8, 68, 127
2, 223887, Note_on_c, 2, 50, 127
2, 224084, Note_off_c, 8, 68, 127
2, 224086, Note_on_c, 4, 64, 127
2, 224283, Note_off_c, 4, 64, 127
2, 224283, Note_off_c, 2, 50, 127
2, 224285, Note_on_c, 4, 64, 127
2, 224285, Note_on_c, 2, 50, 127
2, 224482, Note_off_c, 4, 64, 127
2, 224484, Note_on_c, 12, 59, 127
2, 224681, Note_off_c, 12, 59, 127
2, 224681, Note_off_c, 2, 50, 127
2, 224683, Note_on_c, 12, 59, 127
2, 224683, Note_on_c, 4, 52, 127
2, 224880, Note_off_c, 12, 59, 127
2, 224882, Note_on_c, 8, 56, 127
2, 225079, Note_off_c, 8, 56, 127
2, 225079, Note_off_c, 4, 52, 127
2, 225081, Note_on_c, 10, 57, 127
2, 225081, Note_on_c, 6, 54, 127
2, 225278, Note_off_c, 10, 57, 127
2, 225280, Note_on_c, 10, 69, 127
2, 225477, Note_off_c, 10, 69, 127
2, 225477, Note_off_c, 6, 54, 127
2, 225479, Note_on_c, 8, 68, 127
2, 225479, Note_on_c, 3, 51, 127
2, 225676, Note_off_c, 8, 68, 127
2, 225678, Note_on_c, 10, 69, 127
2, 225875, Note_off_c, 10, 69, 127
2, 225875, Note_off_c, 3, 51, 127
2, 225877, Note_on_c, 0, 60, 127
2, 225877, Note_on_c, 4, 52, 127
2, 226074, Note_off_c, 0, 60, 127
2, 226076, Note_on_c, 10, 69, 127
2, 226273, Note_off_c, 10, 69, 127
2, 226273, Note_off_c, 4, 52, 127
2, 226275, Note_on_c, 8, 68, 127
2, 226275, Note_on_c, 3, 51, 127
2, 226472, Note_off_c, 8, 68, 127
2, 226474, Note_on_c, 10, 69, 127
2, 226671, Note_off_c, 10, 69, 127
2, 226671, Note_off_c, 3, 51, 127
2, 226673, Note_on_c, 4, 64, 127
2, 226673, Note_on_c, 4, 52, 127
2, 226870, Note_off_c, 4, 64, 127
2, 226872, Note_on_c, 8, 68, 127
2, 227069, Note_off_c, 8, 68, 127
2, 227069, Note_off_c, 4, 52, 127
2, 227071, Note_on_c, 6, 66, 127
2, 227071, Note_on_c, 4, 40, 127
2, 227268, Note_off_c, 6, 66, 127
2, 227270, Note_on_c, 8, 68, 127
2, 227464, Note_off_c, 4, 40, 127
2, 227466, Note_off_c, 8, 68, 127
2, 227468, Note_on_c, 10, 69, 127
2, 227565, Note_off_c, 10, 69, 127
2, 227567, Note_on_c, 8, 68, 127
2, 227664, Note_off_c, 8, 68, 127
2, 227666, Note_on_c, 10, 69, 127
2, 227666, Note_on_c, 10, 45, 127
2, 227865, Note_on_c, 1, 49, 127
2, 228064, Note_on_c, 4, 52, 127
2, 228263, Note_on_c, 10, 57, 127
2, 228857, Note_off_c, 10, 69, 127
2, 228859, Note_off_c, 1, 49, 127
2, 228967, Note_off_c, 10, 57, 127
2, 229054, Note_off_c, 10, 45, 127
2, 229058, Note_off_c, 4, 52, 127
2, 229074, Note_on_c, 10, 57, 127
2, 229074, Note_on_c, 10, 69, 127
2, 229462, Note_off_c, 10, 57, 127
2, 229464, Note_on_c, 12, 59, 127
2, 229657, Note_off_c, 10, 69, 127
2, 229659, Note_on_c, 8, 68, 127
2, 229852, Note_off_c, 8, 68, 127
2, 229852, Note_off_c, 12, 59, 127
2, 229854, Note_on_c, 0, 60, 127
2, 229854, Note_on_c, 10, 69, 127
2, 230242, Note_off_c, 10, 69, 127
2, 230242, Note_off_c, 0, 60, 127
2, 230244, Note_on_c, 2, 62, 127
2, 230244, Note_on_c, 12, 71, 127
2, 230632, Note_off_c, 12, 71, 127
2, 230632, Note_off_c, 2, 62, 127
2, 230634, Note_on_c, 4, 52, 127
2, 230634, Note_on_c, 8, 68, 127
2, 231022, Note_off_c, 4, 52, 127
2, 231024, Note_on_c, 6, 54, 127
2, 231217, Note_off_c, 8, 68, 127
2, 231219, Note_on_c, 10, 69, 127
2, 231412, Note_off_c, 10, 69, 127
2, 231412, Note_off_c, 6, 54, 127
2, 231414, Note_on_c, 8, 56, 127
2, 231414, Note_on_c, 12, 71, 127
2, 231802, Note_off_c, 12, 71, 127
2, 231802, Note_off_c, 8, 56, 127
2, 231804, Note_on_c, 10, 57, 127
2, 231804, Note_on_c, 4, 64, 127
2, 232192, Note_off_c, 4, 64, 127
2, 232192, Note_off_c, 10, 57, 127
2, 232194, Note_on_c, 0, 48, 127
2, 232194, Note_on_c, 4, 76, 127
2, 232582, Note_off_c, 4, 76, 127
2, 232584, Note_on_c, 10, 57, 127
2, 232584, Note_on_c, 5, 77, 127
2, 232777, Note_off_c, 5, 77, 127
2, 232779, Note_on_c, 4, 76, 127
2, 232966, Note_off_c, 0, 48, 127
2, 232972, Note_off_c, 4, 76, 127
2, 232974, Note_on_c, 12, 47, 127
2, 232974, Note_on_c, 2, 74, 127
2, 233356, Note_off_c, 10, 57, 127
2, 233362, Note_off_c, 2, 74, 127
2, 233364, Note_on_c, 8, 56, 127
2, 233364, Note_on_c, 0, 72, 127
2, 233557, Note_off_c, 0, 72, 127
2, 233559, Note_on_c, 12, 71, 127
2, 233746, Note_off_c, 12, 47, 127
2, 233752, Note_off_c, 12, 71, 127
2, 233752, Note_off_c, 8, 56, 127
2, 233754, Note_on_c, 10, 45, 127
2, 233754, Note_on_c, 10, 57, 127
2, 233754, Note_on_c, 0, 72, 127
2, 234142, Note_off_c, 0, 72, 127
2, 234142, Note_off_c, 10, 57, 127
2, 234144, Note_on_c, 4, 52, 127
2, 234144, Note_on_c, 12, 71, 127
2, 234337, Note_off_c, 12, 71, 127
2, 234339, Note_on_c, 0, 72, 127
2, 234526, Note_off_c, 10, 45, 127
2, 234532, Note_off_c, 0, 72, 127
2, 234532, Note_off_c, 4, 52, 127
2, 234534, Note_on_c, 10, 57, 127
2, 234534, Note_on_c, 10, 69, 127
2, 234922, Note_off_c, 10, 57, 127
2, 234924, Note_on_c, 12, 59, 127
2, 235103, Note_off_c, 10, 69, 127
2, 235312, Note_off_c, 12, 59, 127
2, 235314, Note_on_c, 0, 60, 127
2, 235314, Note_on_c, 6, 78, 127
2, 235702, Note_off_c, 0, 60, 127
2, 235704, Note_on_c, 12, 59, 127
2, 235897, Note_off_c, 6, 78, 127
2, 235899, Note_on_c, 7, 79, 127
2, 236092, Note_off_c, 7, 79, 127
2, 236092, Note_off_c, 12, 59, 127
2, 236094, Note_on_c, 0, 60, 127
2, 236094, Note_on_c, 10, 81, 127
2, 236482, Note_off_c, 10, 81, 127
2, 236482, Note_off_c, 0, 60, 127
2, 236484, Note_on_c, 10, 57, 127
2, 236484, Note_on_c, 6, 78, 127
2, 236872, Note_off_c, 6, 78, 127
2, 236872, Note_off_c, 10, 57, 127
2, 236874, Note_on_c, 12, 59, 127
2, 236874, Note_on_c, 3, 75, 127
2, 237262, Note_off_c, 12, 59, 127
2, 237264, Note_on_c, 1, 61, 127
2, 237457, Note_off_c, 3, 75, 127
2, 237459, Note_on_c, 4, 76, 127
2, 237652, Note_off_c, 4, 76, 127
2, 237652, Note_off_c, 1, 61, 127
2, 237654, Note_on_c, 3, 63, 127
2, 237654, Note_on_c, 6, 78, 127
2, 238042, Note_off_c, 6, 78, 127
2, 238042, Note_off_c, 3, 63, 127
2, 238044, Note_on_c, 4, 64, 127
2, 238044, Note_on_c, 12, 71, 127
2, 238432, Note_off_c, 12, 71, 127
2, 238432, Note_off_c, 4, 64, 127
2, 238434, Note_on_c, 7, 55, 127
2, 238434, Note_on_c, 4, 76, 127
2, 238822, Note_off_c, 4, 76, 127
2, 238822, Note_off_c, 7, 55, 127
2, 238824, Note_on_c, 10, 57, 127
2, 238824, Note_on_c, 3, 75, 127
2, 239017, Note_off_c, 3, 75, 127
2, 239019, Note_on_c, 4, 76, 127
2, 239212, Note_off_c, 4, 76, 127
2, 239212, Note_off_c, 10, 57, 127
2, 239214, Note_on_c, 12, 59, 127
2, 239214, Note_on_c, 12, 71, 127
2, 239602, Note_off_c, 12, 71, 127
2, 239602, Note_off_c, 12, 59, 127
2, 239604, Note_on_c, 12, 47, 127
2, 239604, Note_on_c, 10, 69, 127
2, 239797, Note_off_c, 10, 69, 127
2, 239799, Note_on_c, 12, 71, 127
2, 239992, Note_off_c, 12, 71, 127
2, 239992, Note_off_c, 12, 47, 127
2, 239994, Note_on_c, 4, 52, 127
2, 239994, Note_on_c, 8, 68, 127
2, 240382, Note_off_c, 8, 68, 127
2, 240382, Note_off_c, 4, 52, 127
2, 240384, Note_on_c, 12, 47, 127
2, 240384, Note_on_c, 6, 66, 127
2, 240577, Note_off_c, 6, 66, 127
2, 240579, Note_on_c, 8, 68, 127
2, 240772, Note_off_c, 8, 68, 127
2, 240772, Note_off_c, 12, 47, 127
2, 240774, Note_on_c, 4, 40, 127
2, 240774, Note_on_c, 4, 64, 127
2, 241343, Note_off_c, 4, 64, 127
2, 241552, Note_off_c, 4, 40, 127
2, 241554, Note_on_c, 0, 48, 127
2, 241554, Note_on_c, 0, 72, 127
2, 241942, Note_off_c, 0, 48, 127
2, 241944, Note_on_c, 2, 50, 127
2, 242137, Note_off_c, 0, 72, 127
2, 242139, Note_on_c, 12, 71, 127
2, 242332, Note_off_c, 12, 71, 127
2, 242332, Note_off_c, 2, 50, 127
2, 242334, Note_on_c, 4, 52, 127
2, 242334, Note_on_c, 0, 72, 127
2, 242722, Note_off_c, 4, 52, 127
2, 242724, Note_on_c, 5, 53, 127
2, 242917, Note_off_c, 0, 72, 127
2, 242919, Note_on_c, 2, 74, 127
2, 243112, Note_off_c, 2, 74, 127
2, 243112, Note_off_c, 5, 53, 127
2, 243114, Note_on_c, 7, 55, 127
2, 243114, Note_on_c, 12, 71, 127
2, 243502, Note_off_c, 7, 55, 127
2, 243504, Note_on_c, 10, 57, 127
2, 243697, Note_off_c, 12, 71, 127
2, 243699, Note_on_c, 0, 72, 127
2, 243795, Note_off_c, 0, 72, 127
2, 243797, Note_on_c, 2, 74, 127
2, 243893, Note_off_c, 2, 74, 127
2, 243893, Note_off_c, 10, 57, 127
2, 243895, Note_on_c, 12, 59, 127
2, 243895, Note_on_c, 7, 67, 127
2, 244281, Note_off_c, 7, 67, 127
2, 244283, Note_off_c, 12, 59, 127
2, 244285, Note_on_c, 7, 55, 127
2, 244673, Note_off_c, 7, 55, 127
2, 244675, Note_on_c, 4, 52, 127
2, 244675, Note_on_c, 4, 76, 127
2, 245063, Note_off_c, 4, 52, 127
2, 245065, Note_on_c, 6, 54, 127
2, 245258, Note_off_c, 4, 76, 127
2, 245260, Note_on_c, 3, 75, 127
2, 245453, Note_off_c, 3, 75, 127
2, 245453, Note_off_c, 6, 54, 127
2, 245455, Note_on_c, 7, 55, 127
2, 245455, Note_on_c, 4, 76, 127
2, 245843, Note_off_c, 7, 55, 127
2, 245845, Note_on_c, 10, 57, 127
2, 246038, Note_off_c, 4, 76, 127
2, 246040, Note_on_c, 6, 78, 127
2, 246233, Note_off_c, 6, 78, 127
2, 246233, Note_off_c, 10, 57, 127
2, 246235, Note_on_c, 12, 59, 127
2, 246235, Note_on_c, 3, 75, 127
2, 246623, Note_off_c, 12, 59, 127
2, 246625, Note_on_c, 1, 61, 127
2, 246818, Note_off_c, 3, 75, 127
2, 246820, Note_on_c, 4, 76, 127
2, 246916, Note_off_c, 4, 76, 127
2, 246918, Note_on_c, 6, 78, 127
2, 247014, Note_off_c, 6, 78, 127
2, 247014, Note_off_c, 1, 61, 127
2, 247016, Note_on_c, 3, 63, 127
2, 247016, Note_on_c, 12, 71, 127
2, 247402, Note_off_c, 12, 71, 127
2, 247404, Note_off_c, 3, 63, 127
2, 247406, Note_on_c, 12, 59, 127
2, 247794, Note_off_c, 12, 59, 127
2, 247796, Note_on_c, 8, 56, 127
2, 247796, Note_on_c, 2, 74, 127
2, 247989, Note_off_c, 2, 74, 127
2, 247989, Note_off_c, 8, 56, 127
2, 247991, Note_on_c, 4, 64, 127
2, 247991, Note_on_c, 4, 76, 127
2, 248184, Note_off_c, 4, 76, 127
2, 248184, Note_off_c, 4, 64, 127
2, 248186, Note_on_c, 8, 56, 127
2, 248186, Note_on_c, 5, 77, 127
2, 248379, Note_off_c, 5, 77, 127
2, 248379, Note_off_c, 8, 56, 127
2, 248381, Note_on_c, 4, 64, 127
2, 248381, Note_on_c, 1, 73, 127
2, 248574, Note_off_c, 1, 73, 127
2, 248574, Note_off_c, 4, 64, 127
2, 248576, Note_on_c, 10, 57, 127
2, 248576, Note_on_c, 2, 74, 127
2, 248769, Note_off_c, 2, 74, 127
2, 248769, Note_off_c, 10, 57, 127
2, 248771, Note_on_c, 5, 65, 127
2, 248771, Note_on_c, 4, 76, 127
2, 248964, Note_off_c, 4, 76, 127
2, 248964, Note_off_c, 5, 65, 127
2, 248966, Note_on_c, 10, 57, 127
2, 248966, Note_on_c, 5, 77, 127
2, 249159, Note_off_c, 5, 77, 127
2, 249159, Note_off_c, 10, 57, 127
2, 249161, Note_on_c, 5, 65, 127
2, 249161, Note_on_c, 1, 73, 127
2, 249354, Note_off_c, 1, 73, 127
2, 249354, Note_off_c, 5, 65, 127
2, 249356, Note_on_c, 11, 58, 127
2, 249356, Note_on_c, 2, 74, 127
2, 249549, Note_off_c, 2, 74, 127
2, 249549, Note_off_c, 11, 58, 127
2, 249551, Note_on_c, 7, 67, 127
2, 249551, Note_on_c, 4, 76, 127
2, 249744, Note_off_c, 4, 76, 127
2, 249744, Note_off_c, 7, 67, 127
2, 249746, Note_on_c, 11, 58, 127
2, 249746, Note_on_c, 5, 77, 127
2, 249939, Note_off_c, 5, 77, 127
2, 249939, Note_off_c, 11, 58, 127
2, 249941, Note_on_c, 7, 67, 127
2, 249941, Note_on_c, 1, 73, 127
2, 250134, Note_off_c, 1, 73, 127
2, 250134, Note_off_c, 7, 67, 127
2, 250136, Note_on_c, 5, 53, 127
2, 250136, Note_on_c, 2, 74, 127
2, 250329, Note_off_c, 2, 74, 127
2, 250329, Note_off_c, 5, 53, 127
2, 250331, Note_on_c, 2, 62, 127
2, 250331, Note_on_c, 4, 76, 127
2, 250524, Note_off_c, 4, 76, 127
2, 250524, Note_off_c, 2, 62, 127
2, 250526, Note_on_c, 5, 53, 127
2, 250526, Note_on_c, 5, 77, 127
2, 250719, Note_off_c, 5, 77, 127
2, 250719, Note_off_c, 5, 53, 127
2, 250721, Note_on_c, 2, 62, 127
2, 250721, Note_on_c, 1, 73, 127
2, 250914, Note_off_c, 1, 73, 127
2, 250914, Note_off_c, 2, 62, 127
2, 250916, Note_on_c, 7, 55, 127
2, 250916, Note_on_c, 2, 74, 127
2, 251109, Note_off_c, 2, 74, 127
2, 251111, Note_on_c, 0, 72, 127
2, 251304, Note_off_c, 0, 72, 127
2, 251306, Note_on_c, 11, 58, 127
2, 251306, Note_on_c, 11, 70, 127
2, 251499, Note_off_c, 11, 70, 127
2, 251501, Note_on_c, 10, 69, 127
2, 251694, Note_off_c, 10, 69, 127
2, 251694, Note_off_c, 11, 58, 127
2, 251696, Note_on_c, 2, 62, 127
2, 251696, Note_on_c, 7, 67, 127
2, 251889, Note_off_c, 7, 67, 127
2, 251891, Note_on_c, 5, 65, 127
2, 252084, Note_off_c, 5, 65, 127
2, 252084, Note_off_c, 2, 62, 127
2, 252084, Note_off_c, 7, 55, 127
2, 252086, Note_on_c, 1, 61, 127
2, 252086, Note_on_c, 10, 57, 127
2, 252086, Note_on_c, 4, 64, 127
2, 252279, Note_off_c, 4, 64, 127
2, 252281, Note_on_c, 5, 65, 127
2, 252474, Note_off_c, 5, 65, 127
2, 252474, Note_off_c, 10, 57, 127
2, 252474, Note_off_c, 1, 61, 127
2, 252476, Note_on_c, 2, 62, 127
2, 252671, Note_on_c, 0, 60, 127
2, 252864, Note_off_c, 0, 60, 127
2, 252866, Note_on_c, 11, 58, 127
2, 253059, Note_off_c, 11, 58, 127
2, 253061, Note_on_c, 10, 57, 127
2, 253254, Note_off_c, 10, 57, 127
2, 253256, Note_on_c, 7, 55, 127
2, 253449, Note_off_c, 7, 55, 127
2, 253451, Note_on_c, 5, 53, 127
2, 253644, Note_off_c, 5, 53, 127
2, 253646, Note_on_c, 4, 52, 127
2, 253839, Note_off_c, 4, 52, 127
2, 253841, Note_on_c, 5, 53, 127
2, 254034, Note_off_c, 5, 53, 127
2, 254034, Note_off_c, 2, 62, 127
2, 254036, Note_on_c, 2, 50, 127
2, 254036, Note_on_c, 5, 77, 127
2, 254431, Note_off_c, 2, 50, 127
2, 254433, Note_on_c, 4, 52, 127
2, 254630, Note_off_c, 5, 77, 127
2, 254632, Note_on_c, 7, 79, 127
2, 254829, Note_off_c, 7, 79, 127
2, 254829, Note_off_c, 4, 52, 127
2, 254831, Note_on_c, 5, 53, 127
2, 254831, Note_on_c, 10, 81, 127
2, 255226, Note_off_c, 5, 53, 127
2, 255228, Note_on_c, 7, 55, 127
2, 255325, Note_off_c, 10, 81, 127
2, 255327, Note_on_c, 5, 77, 127
2, 255424, Note_off_c, 5, 77, 127
2, 255426, Note_on_c, 4, 76, 127
2, 255523, Note_off_c, 4, 76, 127
2, 255525, Note_on_c, 2, 74, 127
2, 255622, Note_off_c, 2, 74, 127
2, 255622, Note_off_c, 7, 55, 127
2, 255624, Note_on_c, 10, 57, 127
2, 255624, Note_on_c, 1, 73, 127
2, 256019, Note_off_c, 10, 57, 127
2, 256021, Note_on_c, 12, 59, 127
2, 256218, Note_off_c, 1, 73, 127
2, 256220, Note_on_c, 2, 74, 127
2, 256317, Note_off_c, 2, 74, 127
2, 256319, Note_on_c, 4, 76, 127
2, 256416, Note_off_c, 4, 76, 127
2, 256416, Note_off_c, 12, 59, 127
2, 256418, Note_on_c, 1, 61, 127
2, 256418, Note_on_c, 10, 69, 127
2, 256813, Note_off_c, 1, 61, 127
2, 256815, Note_on_c, 10, 57, 127
2, 256997, Note_off_c, 10, 69, 127
2, 257210, Note_off_c, 10, 57, 127
2, 257212, Note_on_c, 10, 45, 127
2, 257212, Note_on_c, 0, 72, 127
2, 257607, Note_off_c, 10, 45, 127
2, 257609, Note_on_c, 12, 47, 127
2, 257806, Note_off_c, 0, 72, 127
2, 257808, Note_on_c, 2, 74, 127
2, 258005, Note_off_c, 2, 74, 127
2, 258005, Note_off_c, 12, 47, 127
2, 258007, Note_on_c, 0, 48, 127
2, 258007, Note_on_c, 4, 76, 127
2, 258402, Note_off_c, 0, 48, 127
2, 258404, Note_on_c, 2, 50, 127
2, 258501, Note_off_c, 4, 76, 127
2, 258503, Note_on_c, 0, 72, 127
2, 258600, Note_off_c, 0, 72, 127
2, 258602, Note_on_c, 12, 71, 127
2, 258699, Note_off_c, 12, 71, 127
2, 258701, Note_on_c, 10, 69, 127
2, 258798, Note_off_c, 10, 69, 127
2, 258798, Note_off_c, 2, 50, 127
2, 258800, Note_on_c, 4, 52, 127
2, 258800, Note_on_c, 8, 68, 127
2, 259195, Note_off_c, 4, 52, 127
2, 259197, Note_on_c, 6, 54, 127
2, 259394, Note_off_c, 8, 68, 127
2, 259396, Note_on_c, 10, 69, 127
2, 259493, Note_off_c, 10, 69, 127
2, 259495, Note_on_c, 12, 71, 127
2, 259592, Note_off_c, 12, 71, 127
2, 259592, Note_off_c, 6, 54, 127
2, 259594, Note_on_c, 8, 56, 127
2, 259594, Note_on_c, 4, 64, 127
2, 259989, Note_off_c, 8, 56, 127
2, 259991, Note_on_c, 4, 52, 127
2, 260173, Note_off_c, 4, 64, 127
2, 260386, Note_off_c, 4, 52, 127
2, 260388, Note_on_c, 2, 50, 127
2, 260388, Note_on_c, 5, 77, 127
2, 260785, Note_on_c, 2, 38, 127
2, 260982, Note_off_c, 5, 77, 127
2, 260984, Note_on_c, 4, 76, 127
2, 261174, Note_off_c, 2, 50, 127
2, 261180, Note_off_c, 4, 76, 127
2, 261182, Note_on_c, 2, 74, 127
2, 261364, Note_off_c, 2, 38, 127
2, 261378, Note_off_c, 2, 74, 127
2, 261380, Note_on_c, 0, 72, 127
2, 261577, Note_off_c, 0, 72, 127
2, 261579, Note_on_c, 2, 74, 127
2, 261776, Note_off_c, 2, 74, 127
2, 261778, Note_on_c, 0, 72, 127
2, 261975, Note_off_c, 0, 72, 127
2, 261977, Note_on_c, 2, 50, 127
2, 261977, Note_on_c, 12, 71, 127
2, 262374, Note_on_c, 2, 38, 127
2, 262571, Note_off_c, 12, 71, 127
2, 262573, Note_on_c, 10, 69, 127
2, 262763, Note_off_c, 2, 50, 127
2, 262769, Note_off_c, 10, 69, 127
2, 262771, Note_on_c, 8, 68, 127
2, 262953, Note_off_c, 2, 38, 127
2, 262967, Note_off_c, 8, 68, 127
2, 262969, Note_on_c, 6, 66, 127
2, 263166, Note_off_c, 6, 66, 127
2, 263168, Note_on_c, 8, 68, 127
2, 263365, Note_off_c, 8, 68, 127
2, 263367, Note_on_c, 4, 64, 127
2, 263564, Note_off_c, 4, 64, 127
2, 263566, Note_on_c, 0, 48, 127
2, 263566, Note_on_c, 10, 69, 127
2, 263961, Note_off_c, 0, 48, 127
2, 263963, Note_on_c, 2, 50, 127
2, 264160, Note_off_c, 10, 69, 127
2, 264162, Note_on_c, 12, 71, 127
2, 264359, Note_off_c, 12, 71, 127
2, 264359, Note_off_c, 2, 50, 127
2, 264361, Note_on_c, 4, 52, 127
2, 264361, Note_on_c, 10, 69, 127
2, 264493, Note_off_c, 10, 69, 127
2, 264493, Note_on_c, 8, 68, 127
2, 264559, Note_off_c, 8, 68, 127
2, 264559, Note_on_c, 10, 69, 127
2, 264625, Note_off_c, 10, 69, 127
2, 264625, Note_on_c, 8, 68, 127
2, 264691, Note_off_c, 8, 68, 127
2, 264691, Note_on_c, 10, 69, 127
2, 264755, Note_off_c, 4, 52, 127
2, 264757, Note_off_c, 10, 69, 127
2, 264757, Note_on_c, 4, 40, 127
2, 264757, Note_on_c, 8, 68, 127
2, 264954, Note_off_c, 8, 68, 127
2, 264956, Note_on_c, 10, 69, 127
2, 265153, Note_off_c, 10, 69, 127
2, 265153, Note_off_c, 4, 40, 127
2, 265155, Note_on_c, 10, 45, 127
2, 265155, Note_on_c, 10, 69, 127
2, 265354, Note_on_c, 4, 64, 127
2, 265551, Note_off_c, 4, 64, 127
2, 265553, Note_on_c, 5, 65, 127
2, 265750, Note_off_c, 5, 65, 127
2, 265752, Note_on_c, 2, 62, 127
2, 265949, Note_off_c, 2, 62, 127
2, 265951, Note_on_c, 4, 64, 127
2, 265951, Note_on_c, 4, 52, 127
2, 266198, Note_on_c, 12, 59, 127
2, 266281, Note_off_c, 4, 64, 127
2, 266483, Note_off_c, 12, 59, 127
2, 266502, Note_on_c, 10, 57, 127
2, 266502, Note_on_c, 1, 61, 127
2, 266738, Note_off_c, 4, 52, 127
2, 266744, Note_off_c, 10, 45, 127
2, 267455, Note_off_c, 10, 69, 127
2, 268102, Note_off_c, 1, 61, 127
2, 268302, Note_off_c, 10, 57, 127
2, 268682, Note_on_c, 10, 45, 127
2, 268682, Note_on_c, 4, 76, 127
2, 269208, Note_off_c, 4, 76, 127
2, 269208, Note_off_c, 10, 45, 127
2, 269212, Note_on_c, 12, 47, 127
2, 269212, Note_on_c, 2, 74, 127
2, 269466, Note_off_c, 2, 74, 127
2, 269466, Note_off_c, 12, 47, 127
2, 269476, Note_on_c, 0, 48, 127
2, 269476, Note_on_c, 0, 72, 127
2, 269730, Note_off_c, 0, 72, 127
2, 269740, Note_on_c, 12, 71, 127
2, 269994, Note_off_c, 12, 71, 127
2, 270000, Note_off_c, 0, 48, 127
2, 270004, Note_on_c, 2, 50, 127
2, 270004, Note_on_c, 10, 69, 127
2, 270258, Note_off_c, 10, 69, 127
2, 270258, Note_off_c, 2, 50, 127
2, 270268, Note_on_c, 4, 52, 127
2, 270268, Note_on_c, 8, 68, 127
2, 270522, Note_off_c, 8, 68, 127
2, 270532, Note_on_c, 10, 69, 127
2, 270786, Note_off_c, 10, 69, 127
2, 270792, Note_off_c, 4, 52, 127
2, 270796, Note_on_c, 6, 54, 127
2, 270796, Note_on_c, 12, 71, 127
2, 271050, Note_off_c, 12, 71, 127
2, 271050, Note_off_c, 6, 54, 127
2, 271060, Note_on_c, 8, 56, 127
2, 271060, Note_on_c, 4, 64, 127
2, 271314, Note_off_c, 8, 56, 127
2, 271324, Note_on_c, 6, 54, 127
2, 271578, Note_off_c, 6, 54, 127
2, 271588, Note_on_c, 4, 52, 127
2, 271842, Note_off_c, 4, 52, 127
2, 271848, Note_off_c, 4, 64, 127
2, 271852, Note_on_c, 0, 48, 127
2, 271852, Note_on_c, 10, 69, 127
2, 272106, Note_off_c, 10, 69, 127
2, 272116, Note_on_c, 4, 52, 127
2, 272116, Note_on_c, 12, 71, 127
2, 272370, Note_off_c, 12, 71, 127
2, 272370, Note_off_c, 4, 52, 127
2, 272380, Note_on_c, 10, 57, 127
2, 272380, Note_on_c, 0, 72, 127
2, 272634, Note_off_c, 0, 72, 127
2, 272634, Note_off_c, 10, 57, 127
2, 272634, Note_off_c, 0, 48, 127
2, 272644, Note_on_c, 12, 47, 127
2, 272644, Note_on_c, 2, 74, 127
2, 272898, Note_off_c, 2, 74, 127
2, 272908, Note_on_c, 10, 57, 127
2, 272908, Note_on_c, 0, 72, 127
2, 273162, Note_off_c, 0, 72, 127
2, 273162, Note_off_c, 10, 57, 127
2, 273172, Note_on_c, 8, 56, 127
2, 273172, Note_on_c, 12, 71, 127
2, 273426, Note_off_c, 12, 71, 127
2, 273426, Note_off_c, 8, 56, 127
2, 273426, Note_off_c, 12, 47, 127
2, 273436, Note_on_c, 10, 45, 127
2, 273436, Note_on_c, 10, 57, 127
2, 273436, Note_on_c, 0, 72, 127
2, 273690, Note_off_c, 0, 72, 127
2, 273700, Note_on_c, 12, 71, 127
2, 273954, Note_off_c, 12, 71, 127
2, 273960, Note_off_c, 10, 57, 127
2, 273960, Note_off_c, 10, 45, 127
2, 273964, Note_on_c, 12, 59, 127
2, 273964, Note_on_c, 0, 72, 127
2, 274218, Note_off_c, 0, 72, 127
2, 274218, Note_off_c, 12, 59, 127
2, 274228, Note_on_c, 0, 60, 127
2, 274228, Note_on_c, 10, 69, 127
2, 274482, Note_off_c, 0, 60, 127
2, 274492, Note_on_c, 2, 62, 127
2, 274746, Note_off_c, 2, 62, 127
2, 274756, Note_on_c, 12, 59, 127
2, 274806, Note_off_c, 10, 69, 127
2, 275011, Note_off_c, 12, 59, 127
2, 275021, Note_on_c, 10, 57, 127
2, 275021, Note_on_c, 6, 78, 127
2, 275275, Note_off_c, 6, 78, 127
2, 275285, Note_on_c, 0, 84, 127
2, 275539, Note_off_c, 0, 84, 127
2, 275545, Note_off_c, 10, 57, 127
2, 275549, Note_on_c, 7, 55, 127
2, 275549, Note_on_c, 12, 83, 127
2, 275803, Note_off_c, 12, 83, 127
2, 275803, Note_off_c, 7, 55, 127
2, 275813, Note_on_c, 6, 54, 127
2, 275813, Note_on_c, 10, 81, 127
2, 276067, Note_off_c, 10, 81, 127
2, 276077, Note_on_c, 12, 83, 127
2, 276331, Note_off_c, 12, 83, 127
2, 276337, Note_off_c, 6, 54, 127
2, 276341, Note_on_c, 4, 52, 127
2, 276341, Note_on_c, 7, 79, 127
2, 276595, Note_off_c, 7, 79, 127
2, 276595, Note_off_c, 4, 52, 127
2, 276605, Note_on_c, 6, 54, 127
2, 276605, Note_on_c, 3, 75, 127
2, 276859, Note_off_c, 3, 75, 127
2, 276869, Note_on_c, 10, 81, 127
2, 277123, Note_off_c, 10, 81, 127
2, 277129, Note_off_c, 6, 54, 127
2, 277133, Note_on_c, 4, 52, 127
2, 277133, Note_on_c, 7, 79, 127
2, 277387, Note_off_c, 7, 79, 127
2, 277387, Note_off_c, 4, 52, 127
2, 277397, Note_on_c, 3, 51, 127
2, 277397, Note_on_c, 6, 78, 127
2, 277651, Note_off_c, 6, 78, 127
2, 277661, Note_on_c, 7, 79, 127
2, 277915, Note_off_c, 7, 79, 127
2, 277921, Note_off_c, 3, 51, 127
2, 277925, Note_on_c, 4, 52, 127
2, 277925, Note_on_c, 4, 76, 127
2, 278179, Note_off_c, 4, 76, 127
2, 278179, Note_off_c, 4, 52, 127
2, 278189, Note_on_c, 7, 43, 127
2, 278189, Note_on_c, 12, 83, 127
2, 278443, Note_off_c, 12, 83, 127
2, 278453, Note_on_c, 10, 81, 127
2, 278707, Note_off_c, 10, 81, 127
2, 278713, Note_off_c, 7, 43, 127
2, 278717, Note_on_c, 10, 45, 127
2, 278717, Note_on_c, 7, 79, 127
2, 278971, Note_off_c, 7, 79, 127
2, 278971, Note_off_c, 10, 45, 127
2, 278981, Note_on_c, 12, 47, 127
2, 278981, Note_on_c, 6, 78, 127
2, 279235, Note_off_c, 6, 78, 127
2, 279245, Note_on_c, 4, 76, 127
2, 279499, Note_off_c, 4, 76, 127
2, 279509, Note_on_c, 3, 75, 127
2, 279763, Note_off_c, 3, 75, 127
2, 279769, Note_off_c, 12, 47, 127
2, 279773, Note_on_c, 4, 52, 127
2, 279773, Note_on_c, 4, 76, 127
2, 280027, Note_off_c, 4, 52, 127
2, 280037, Note_on_c, 8, 56, 127
2, 280291, Note_off_c, 8, 56, 127
2, 280301, Note_on_c, 12, 59, 127
2, 280555, Note_off_c, 12, 59, 127
2, 280565, Note_on_c, 8, 56, 127
2, 280960, Note_off_c, 4, 76, 127
2, 281090, Note_off_c, 8, 56, 127
2, 281094, Note_on_c, 4, 52, 127
2, 281348, Note_off_c, 4, 52, 127
2, 281358, Note_on_c, 0, 48, 127
2, 281358, Note_on_c, 7, 79, 127
2, 281884, Note_off_c, 7, 79, 127
2, 281884, Note_off_c, 0, 48, 127
2, 281888, Note_on_c, 2, 50, 127
2, 281888, Note_on_c, 5, 77, 127
2, 282142, Note_off_c, 5, 77, 127
2, 282142, Note_off_c, 2, 50, 127
2, 282152, Note_on_c, 4, 52, 127
2, 282152, Note_on_c, 4, 76, 127
2, 282406, Note_off_c, 4, 76, 127
2, 282416, Note_on_c, 2, 74, 127
2, 282670, Note_off_c, 2, 74, 127
2, 282676, Note_off_c, 4, 52, 127
2, 282680, Note_on_c, 5, 53, 127
2, 282680, Note_on_c, 0, 72, 127
2, 282934, Note_off_c, 0, 72, 127
2, 282934, Note_off_c, 5, 53, 127
2, 282944, Note_on_c, 7, 55, 127
2, 282944, Note_on_c, 12, 71, 127
2, 283198, Note_off_c, 12, 71, 127
2, 283208, Note_on_c, 0, 72, 127
2, 283462, Note_off_c, 0, 72, 127
2, 283468, Note_off_c, 7, 55, 127
2, 283472, Note_on_c, 10, 57, 127
2, 283472, Note_on_c, 2, 74, 127
2, 283726, Note_off_c, 2, 74, 127
2, 283726, Note_off_c, 10, 57, 127
2, 283736, Note_on_c, 12, 59, 127
2, 283736, Note_on_c, 7, 67, 127
2, 283990, Note_off_c, 12, 59, 127
2, 284000, Note_on_c, 10, 57, 127
2, 284254, Note_off_c, 10, 57, 127
2, 284264, Note_on_c, 7, 55, 127
2, 284314, Note_off_c, 7, 67, 127
2, 284519, Note_off_c, 7, 55, 127
2, 284529, Note_on_c, 4, 52, 127
2, 284529, Note_on_c, 12, 83, 127
2, 285055, Note_off_c, 12, 83, 127
2, 285055, Note_off_c, 4, 52, 127
2, 285059, Note_on_c, 6, 54, 127
2, 285059, Note_on_c, 10, 81, 127
2, 285313, Note_off_c, 10, 81, 127
2, 285313, Note_off_c, 6, 54, 127
2, 285323, Note_on_c, 7, 55, 127
2, 285323, Note_on_c, 7, 79, 127
2, 285577, Note_off_c, 7, 79, 127
2, 285587, Note_on_c, 6, 78, 127
2, 285841, Note_off_c, 6, 78, 127
2, 285847, Note_off_c, 7, 55, 127
2, 285851, Note_on_c, 10, 57, 127
2, 285851, Note_on_c, 4, 76, 127
2, 286105, Note_off_c, 4, 76, 127
2, 286105, Note_off_c, 10, 57, 127
2, 286115, Note_on_c, 12, 59, 127
2, 286115, Note_on_c, 3, 75, 127
2, 286369, Note_off_c, 3, 75, 127
2, 286379, Note_on_c, 4, 76, 127
2, 286633, Note_off_c, 4, 76, 127
2, 286639, Note_off_c, 12, 59, 127
2, 286643, Note_on_c, 1, 61, 127
2, 286643, Note_on_c, 6, 78, 127
2, 286897, Note_off_c, 6, 78, 127
2, 286897, Note_off_c, 1, 61, 127
2, 286907, Note_on_c, 3, 63, 127
2, 286907, Note_on_c, 12, 71, 127
2, 287161, Note_off_c, 3, 63, 127
2, 287171, Note_on_c, 1, 61, 127
2, 287425, Note_off_c, 1, 61, 127
2, 287435, Note_on_c, 12, 59, 127
2, 287689, Note_off_c, 12, 59, 127
2, 287695, Note_off_c, 12, 71, 127
2, 287699, Note_on_c, 8, 56, 127
2, 287699, Note_on_c, 2, 74, 127
2, 287953, Note_off_c, 2, 74, 127
2, 287963, Note_on_c, 5, 65, 127
2, 288217, Note_off_c, 5, 65, 127
2, 288227, Note_on_c, 2, 74, 127
2, 288275, Note_off_c, 8, 56, 127
2, 288482, Note_off_c, 2, 74, 127
2, 288492, Note_on_c, 10, 57, 127
2, 288492, Note_on_c, 2, 74, 127
2, 288746, Note_off_c, 2, 74, 127
2, 288756, Note_on_c, 5, 65, 127
2, 289010, Note_off_c, 5, 65, 127
2, 289020, Note_on_c, 2, 74, 127
2, 289068, Note_off_c, 10, 57, 127
2, 289275, Note_off_c, 2, 74, 127
2, 289285, Note_on_c, 11, 58, 127
2, 289285, Note_on_c, 2, 74, 127
2, 289539, Note_off_c, 2, 74, 127
2, 289549, Note_on_c, 5, 65, 127
2, 289803, Note_off_c, 5, 65, 127
2, 289813, Note_on_c, 2, 74, 127
2, 289861, Note_off_c, 11, 58, 127
2, 290068, Note_off_c, 2, 74, 127
2, 290078, Note_on_c, 10, 57, 127
2, 290078, Note_on_c, 2, 74, 127
2, 290332, Note_off_c, 2, 74, 127
2, 290342, Note_on_c, 5, 65, 127
2, 290596, Note_off_c, 5, 65, 127
2, 290606, Note_on_c, 2, 74, 127
2, 290654, Note_off_c, 10, 57, 127
2, 290861, Note_off_c, 2, 74, 127
2, 290871, Note_on_c, 8, 56, 127
2, 290871, Note_on_c, 2, 74, 127
2, 291125, Note_off_c, 2, 74, 127
2, 291135, Note_on_c, 5, 65, 127
2, 291389, Note_off_c, 5, 65, 127
2, 291399, Note_on_c, 2, 74, 127
2, 291447, Note_off_c, 8, 56, 127
2, 291654, Note_off_c, 2, 74, 127
2, 291664, Note_on_c, 10, 57, 127
2, 291664, Note_on_c, 4, 64, 127
2, 291918, Note_off_c, 4, 64, 127
2, 291928, Note_on_c, 2, 74, 127
2, 292182, Note_off_c, 2, 74, 127
2, 292188, Note_off_c, 10, 57, 127
2, 292192, Note_on_c, 10, 45, 127
2, 292192, Note_on_c, 1, 73, 127
2, 292446, Note_off_c, 1, 73, 127
2, 292446, Note_off_c, 10, 45, 127
2, 292456, Note_on_c, 2, 50, 127
2, 292456, Note_on_c, 2, 74, 127
2, 292710, Note_off_c, 2, 74, 127
2, 292720, Note_on_c, 10, 69, 127
2, 292974, Note_off_c, 10, 69, 127
2, 292984, Note_on_c, 5, 65, 127
2, 293238, Note_off_c, 5, 65, 127
2, 293248, Note_on_c, 2, 62, 127
2, 293509, Note_off_c, 2, 50, 127
2, 293513, Note_on_c, 5, 53, 127
2, 293767, Note_off_c, 5, 53, 127
2, 293777, Note_on_c, 10, 57, 127
2, 294031, Note_off_c, 10, 57, 127
2, 294031, Note_off_c, 2, 62, 127
2, 294041, Note_on_c, 2, 62, 127
2, 294306, Note_on_c, 10, 81, 127
2, 294560, Note_off_c, 10, 81, 127
2, 294566, Note_off_c, 2, 62, 127
2, 294570, Note_on_c, 4, 64, 127
2, 294570, Note_on_c, 7, 79, 127
2, 294824, Note_off_c, 7, 79, 127
2, 294824, Note_off_c, 4, 64, 127
2, 294834, Note_on_c, 5, 65, 127
2, 294834, Note_on_c, 5, 77, 127
2, 295088, Note_off_c, 5, 77, 127
2, 295098, Note_on_c, 4, 76, 127
2, 295352, Note_off_c, 4, 76, 127
2, 295358, Note_off_c, 5, 65, 127
2, 295362, Note_on_c, 7, 55, 127
2, 295362, Note_on_c, 2, 74, 127
2, 295616, Note_off_c, 2, 74, 127
2, 295616, Note_off_c, 7, 55, 127
2, 295626, Note_on_c, 10, 57, 127
2, 295626, Note_on_c, 1, 73, 127
2, 295880, Note_off_c, 1, 73, 127
2, 295890, Note_on_c, 2, 74, 127
2, 296144, Note_off_c, 2, 74, 127
2, 296150, Note_off_c, 10, 57, 127
2, 296154, Note_on_c, 12, 59, 127
2, 296154, Note_on_c, 4, 76, 127
2, 296408, Note_off_c, 4, 76, 127
2, 296408, Note_off_c, 12, 59, 127
2, 296418, Note_on_c, 1, 61, 127
2, 296418, Note_on_c, 10, 69, 127
2, 296672, Note_off_c, 1, 61, 127
2, 296682, Note_on_c, 12, 59, 127
2, 296936, Note_off_c, 12, 59, 127
2, 296946, Note_on_c, 10, 57, 127
2, 297200, Note_off_c, 10, 57, 127
2, 297200, Note_off_c, 10, 69, 127
2, 297210, Note_on_c, 10, 45, 127
2, 297475, Note_on_c, 4, 76, 127
2, 297729, Note_off_c, 4, 76, 127
2, 297735, Note_off_c, 10, 45, 127
2, 297739, Note_on_c, 12, 47, 127
2, 297739, Note_on_c, 2, 74, 127
2, 297993, Note_off_c, 2, 74, 127
2, 297993, Note_off_c, 12, 47, 127
2, 298003, Note_on_c, 0, 48, 127
2, 298003, Note_on_c, 0, 72, 127
2, 298257, Note_off_c, 0, 72, 127
2, 298267, Note_on_c, 12, 71, 127
2, 298521, Note_off_c, 12, 71, 127
2, 298527, Note_off_c, 0, 48, 127
2, 298531, Note_on_c, 2, 38, 127
2, 298531, Note_on_c, 10, 69, 127
2, 298785, Note_off_c, 10, 69, 127
2, 298785, Note_off_c, 2, 38, 127
2, 298795, Note_on_c, 4, 40, 127
2, 298795, Note_on_c, 8, 68, 127
2, 299049, Note_off_c, 8, 68, 127
2, 299059, Note_on_c, 10, 69, 127
2, 299313, Note_off_c, 10, 69, 127
2, 299319, Note_off_c, 4, 40, 127
2, 299323, Note_on_c, 6, 42, 127
2, 299323, Note_on_c, 12, 71, 127
2, 299577, Note_off_c, 12, 71, 127
2, 299577, Note_off_c, 6, 42, 127
2, 299587, Note_on_c, 8, 44, 127
2, 299587, Note_on_c, 4, 64, 127
2, 299841, Note_off_c, 8, 44, 127
2, 299851, Note_on_c, 6, 42, 127
2, 300105, Note_off_c, 6, 42, 127
2, 300115, Note_on_c, 4, 40, 127
2, 300165, Note_off_c, 4, 64, 127
2, 300370, Note_off_c, 4, 40, 127
2, 300380, Note_on_c, 2, 38, 127
2, 300380, Note_on_c, 5, 77, 127
2, 300634, Note_off_c, 5, 77, 127
2, 300644, Note_on_c, 4, 76, 127
2, 300898, Note_off_c, 4, 76, 127
2, 300908, Note_on_c, 2, 74, 127
2, 300956, Note_off_c, 2, 38, 127
2, 301138, Note_off_c, 2, 74, 127
2, 301173, Note_on_c, 2, 50, 127
2, 301173, Note_on_c, 6, 78, 127
2, 301427, Note_off_c, 6, 78, 127
2, 301437, Note_on_c, 12, 83, 127
2, 301691, Note_off_c, 12, 83, 127
2, 301701, Note_on_c, 10, 81, 127
2, 301749, Note_off_c, 2, 50, 127
2, 301956, Note_off_c, 10, 81, 127
2, 301966, Note_on_c, 4, 40, 127
2, 301966, Note_on_c, 7, 79, 127
2, 302196, Note_off_c, 7, 79, 127
2, 302230, Note_on_c, 6, 78, 127
2, 302484, Note_off_c, 6, 78, 127
2, 302494, Note_on_c, 4, 76, 127
2, 302542, Note_off_c, 4, 40, 127
2, 302749, Note_off_c, 4, 76, 127
2, 302759, Note_on_c, 4, 52, 127
2, 302759, Note_on_c, 8, 80, 127
2, 303013, Note_off_c, 8, 80, 127
2, 303023, Note_on_c, 0, 84, 127
2, 303277, Note_off_c, 0, 84, 127
2, 303287, Note_on_c, 12, 83, 127
2, 303335, Note_off_c, 4, 52, 127
2, 303542, Note_off_c, 12, 83, 127
2, 303552, Note_on_c, 5, 53, 127
2, 303552, Note_on_c, 10, 81, 127
2, 303806, Note_off_c, 10, 81, 127
2, 303816, Note_on_c, 8, 80, 127
2, 304070, Note_off_c, 8, 80, 127
2, 304076, Note_off_c, 5, 53, 127
2, 304080, Note_on_c, 3, 51, 127
2, 304080, Note_on_c, 10, 81, 127
2, 304334, Note_off_c, 10, 81, 127
2, 304334, Note_off_c, 3, 51, 127
2, 304344, Note_on_c, 4, 52, 127
2, 304344, Note_on_c, 0, 72, 127
2, 304598, Note_off_c, 0, 72, 127
2, 304608, Note_on_c, 2, 74, 127
2, 304862, Note_off_c, 2, 74, 127
2, 304868, Note_off_c, 4, 52, 127
2, 304872, Note_on_c, 4, 40, 127
2, 304872, Note_on_c, 12, 71, 127
2, 305126, Note_off_c, 12, 71, 127
2, 305126, Note_off_c, 4, 40, 127
2, 305136, Note_on_c, 10, 45, 127
2, 305136, Note_on_c, 10, 69, 127
2, 305390, Note_off_c, 10, 69, 127
2, 305400, Note_on_c, 1, 73, 127
2, 305654, Note_off_c, 1, 73, 127
2, 305664, Note_on_c, 4, 76, 127
2, 305918, Note_off_c, 4, 76, 127
2, 305928, Note_on_c, 10, 81, 127
2, 306421, Note_on_c, 4, 52, 127
2, 306711, Note_off_c, 10, 81, 127
2, 306717, Note_off_c, 10, 45, 127
2, 306769, Note_on_c, 10, 57, 127
2, 306771, Note_off_c, 4, 52, 127
2, 306982, Note_on_c, 0, 72, 127
2, 307195, Note_on_c, 4, 76, 127
2, 307404, Note_off_c, 0, 72, 127
2, 307408, Note_on_c, 0, 72, 127
2, 307619, Note_off_c, 0, 72, 127
2, 307621, Note_on_c, 10, 69, 127
2, 307832, Note_off_c, 10, 57, 127
2, 307834, Note_on_c, 10, 57, 127
2, 308038, Note_off_c, 4, 76, 127
2, 308045, Note_off_c, 10, 57, 127
2, 308047, Note_on_c, 0, 60, 127
2, 308258, Note_off_c, 0, 60, 127
2, 308260, Note_on_c, 10, 57, 127
2, 308464, Note_off_c, 10, 69, 127
2, 308471, Note_off_c, 10, 57, 127
2, 308473, Note_on_c, 8, 56, 127
2, 308686, Note_on_c, 12, 71, 127
2, 308899, Note_on_c, 4, 76, 127
2, 309108, Note_off_c, 12, 71, 127
2, 309112, Note_on_c, 12, 71, 127
2, 309323, Note_off_c, 12, 71, 127
2, 309325, Note_on_c, 4, 64, 127
2, 309536, Note_off_c, 8, 56, 127
2, 309538, Note_on_c, 4, 52, 127
2, 309742, Note_off_c, 4, 76, 127
2, 309749, Note_off_c, 4, 52, 127
2, 309751, Note_on_c, 8, 56, 127
2, 309962, Note_off_c, 8, 56, 127
2, 309964, Note_on_c, 4, 52, 127
2, 310175, Note_off_c, 4, 52, 127
2, 310177, Note_on_c, 10, 57, 127
2, 310388, Note_off_c, 4, 64, 127
2, 310390, Note_on_c, 10, 69, 127
2, 310601, Note_off_c, 10, 69, 127
2, 310601, Note_off_c, 10, 57, 127
2, 310603, Note_on_c, 4, 52, 127
2, 310603, Note_on_c, 0, 72, 127
2, 310814, Note_off_c, 0, 72, 127
2, 310816, Note_on_c, 4, 76, 127
2, 311027, Note_off_c, 4, 76, 127
2, 311027, Note_off_c, 4, 52, 127
2, 311029, Note_on_c, 6, 54, 127
2, 311029, Note_on_c, 2, 74, 127
2, 311240, Note_off_c, 2, 74, 127
2, 311242, Note_on_c, 0, 72, 127
2, 311453, Note_off_c, 0, 72, 127
2, 311453, Note_off_c, 6, 54, 127
2, 311455, Note_on_c, 8, 56, 127
2, 311455, Note_on_c, 12, 71, 127
2, 311666, Note_off_c, 12, 71, 127
2, 311668, Note_on_c, 2, 74, 127
2, 311879, Note_off_c, 2, 74, 127
2, 311879, Note_off_c, 8, 56, 127
2, 311881, Note_on_c, 10, 57, 127
2, 311881, Note_on_c, 0, 72, 127
2, 312094, Note_on_c, 4, 76, 127
2, 312305, Note_off_c, 4, 76, 127
2, 312307, Note_on_c, 10, 81, 127
2, 312503, Note_off_c, 0, 72, 127
2, 312519, Note_off_c, 10, 81, 127
2, 312521, Note_on_c, 4, 76, 127
2, 312732, Note_off_c, 4, 76, 127
2, 312734, Note_on_c, 10, 69, 127
2, 312945, Note_off_c, 10, 57, 127
2, 312947, Note_on_c, 10, 57, 127
2, 313158, Note_off_c, 10, 57, 127
2, 313160, Note_on_c, 0, 60, 127
2, 313371, Note_off_c, 0, 60, 127
2, 313373, Note_on_c, 10, 57, 127
2, 313577, Note_off_c, 10, 69, 127
2, 313584, Note_off_c, 10, 57, 127
2, 313586, Note_on_c, 6, 54, 127
2, 313799, Note_on_c, 10, 81, 127
2, 314010, Note_off_c, 10, 81, 127
2, 314012, Note_on_c, 0, 84, 127
2, 314223, Note_off_c, 0, 84, 127
2, 314225, Note_on_c, 10, 81, 127
2, 314436, Note_off_c, 10, 81, 127
2, 314438, Note_on_c, 6, 78, 127
2, 314649, Note_off_c, 6, 54, 127
2, 314651, Note_on_c, 6, 54, 127
2, 314651, Note_on_c, 10, 81, 127
2, 314860, Note_off_c, 6, 78, 127
2, 314862, Note_off_c, 10, 81, 127
2, 314862, Note_off_c, 6, 54, 127
2, 314864, Note_on_c, 10, 57, 127
2, 314864, Note_on_c, 6, 78, 127
2, 315075, Note_off_c, 10, 57, 127
2, 315077, Note_on_c, 6, 54, 127
2, 315077, Note_on_c, 10, 81, 127
2, 315286, Note_off_c, 6, 78, 127
2, 315288, Note_off_c, 10, 81, 127
2, 315288, Note_off_c, 6, 54, 127
2, 315290, Note_on_c, 12, 59, 127
2, 315290, Note_on_c, 3, 75, 127
2, 315394, Note_off_c, 3, 75, 127
2, 315396, Note_on_c, 1, 73, 127
2, 315500, Note_off_c, 1, 73, 127
2, 315500, Note_off_c, 12, 59, 127
2, 315502, Note_on_c, 3, 63, 127
2, 315502, Note_on_c, 3, 75, 127
2, 315713, Note_off_c, 3, 63, 127
2, 315715, Note_on_c, 6, 66, 127
2, 315926, Note_off_c, 6, 66, 127
2, 315926, Note_off_c, 3, 75, 127
2, 315928, Note_on_c, 3, 63, 127
2, 315928, Note_on_c, 3, 75, 127
2, 316139, Note_off_c, 3, 75, 127
2, 316139, Note_off_c, 3, 63, 127
2, 316141, Note_on_c, 12, 59, 127
2, 316141, Note_on_c, 4, 76, 127
2, 316283, Note_off_c, 4, 76, 127
2, 316283, Note_on_c, 3, 75, 127
2, 316352, Note_off_c, 12, 59, 127
2, 316354, Note_off_c, 3, 75, 127
2, 316354, Note_on_c, 3, 63, 127
2, 316354, Note_on_c, 4, 76, 127
2, 316425, Note_off_c, 4, 76, 127
2, 316425, Note_on_c, 3, 75, 127
2, 316496, Note_off_c, 3, 75, 127
2, 316496, Note_on_c, 4, 76, 127
2, 316565, Note_off_c, 3, 63, 127
2, 316567, Note_off_c, 4, 76, 127
2, 316567, Note_on_c, 6, 54, 127
2, 316567, Note_on_c, 3, 75, 127
2, 316776, Note_off_c, 3, 75, 127
2, 316778, Note_off_c, 6, 54, 127
2, 316780, Note_on_c, 10, 57, 127
2, 316780, Note_on_c, 3, 75, 127
2, 316978, Note_off_c, 3, 75, 127
2, 316991, Note_off_c, 10, 57, 127
2, 316993, Note_on_c, 7, 55, 127
2, 316993, Note_on_c, 4, 76, 127
2, 317204, Note_off_c, 4, 76, 127
2, 317206, Note_on_c, 6, 78, 127
2, 317417, Note_off_c, 6, 78, 127
2, 317419, Note_on_c, 7, 79, 127
2, 317526, Note_off_c, 7, 55, 127
2, 317630, Note_off_c, 7, 79, 127
2, 317632, Note_on_c, 0, 60, 127
2, 317632, Note_on_c, 4, 76, 127
2, 317843, Note_off_c, 4, 76, 127
2, 317843, Note_off_c, 0, 60, 127
2, 317845, Note_on_c, 10, 57, 127
2, 317845, Note_on_c, 6, 78, 127
2, 318056, Note_off_c, 6, 78, 127
2, 318056, Note_off_c, 10, 57, 127
2, 318058, Note_on_c, 6, 54, 127
2, 318058, Note_on_c, 4, 76, 127
2, 318269, Note_off_c, 4, 76, 127
2, 318269, Note_off_c, 6, 54, 127
2, 318271, Note_on_c, 12, 59, 127
2, 318271, Note_on_c, 3, 75, 127
2, 318482, Note_off_c, 3, 75, 127
2, 318484, Note_on_c, 6, 78, 127
2, 318695, Note_off_c, 6, 78, 127
2, 318695, Note_off_c, 12, 59, 127
2, 318697, Note_on_c, 4, 52, 127
2, 318697, Note_on_c, 4, 76, 127
2, 318910, Note_on_c, 8, 80, 127
2, 319121, Note_off_c, 8, 80, 127
2, 319123, Note_on_c, 12, 83, 127
2, 319319, Note_off_c, 4, 76, 127
2, 319335, Note_off_c, 12, 83, 127
2, 319337, Note_on_c, 8, 80, 127
2, 319548, Note_off_c, 8, 80, 127
2, 319550, Note_on_c, 4, 76, 127
2, 319717, Note_off_c, 4, 52, 127
2, 319764, Note_on_c, 5, 53, 127
2, 319975, Note_off_c, 5, 53, 127
2, 319977, Note_on_c, 4, 52, 127
2, 320188, Note_off_c, 4, 52, 127
2, 320190, Note_on_c, 2, 50, 127
2, 320394, Note_off_c, 4, 76, 127
2, 320401, Note_off_c, 2, 50, 127
2, 320403, Note_on_c, 0, 48, 127
2, 320616, Note_on_c, 4, 76, 127
2, 320829, Note_on_c, 7, 79, 127
2, 321029, Note_off_c, 7, 79, 127
2, 321038, Note_off_c, 4, 76, 127
2, 321042, Note_on_c, 4, 76, 127
2, 321246, Note_off_c, 0, 48, 127
2, 321253, Note_off_c, 4, 76, 127
2, 321255, Note_on_c, 0, 72, 127
2, 321468, Note_on_c, 0, 60, 127
2, 321679, Note_off_c, 0, 60, 127
2, 321681, Note_on_c, 4, 64, 127
2, 321892, Note_off_c, 4, 64, 127
2, 321894, Note_on_c, 0, 60, 127
2, 322098, Note_off_c, 0, 72, 127
2, 322105, Note_off_c, 0, 60, 127
2, 322107, Note_on_c, 7, 67, 127
2, 322320, Note_on_c, 12, 71, 127
2, 322533, Note_on_c, 2, 74, 127
2, 322742, Note_off_c, 12, 71, 127
2, 322744, Note_off_c, 2, 74, 127
2, 322746, Note_on_c, 12, 71, 127
2, 322950, Note_off_c, 7, 67, 127
2, 322957, Note_off_c, 12, 71, 127
2, 322959, Note_on_c, 7, 67, 127
2, 323172, Note_on_c, 7, 55, 127
2, 323383, Note_off_c, 7, 55, 127
2, 323385, Note_on_c, 12, 59, 127
2, 323596, Note_off_c, 12, 59, 127
2, 323598, Note_on_c, 7, 55, 127
2, 323802, Note_off_c, 7, 67, 127
2, 323809, Note_off_c, 7, 55, 127
2, 323811, Note_on_c, 4, 52, 127
2, 324024, Note_on_c, 7, 79, 127
2, 324237, Note_on_c, 12, 83, 127
2, 324446, Note_off_c, 7, 79, 127
2, 324448, Note_off_c, 12, 83, 127
2, 324450, Note_on_c, 7, 79, 127
2, 324661, Note_off_c, 7, 79, 127
2, 324663, Note_on_c, 4, 76, 127
2, 324876, Note_on_c, 4, 40, 127
2, 325087, Note_off_c, 4, 40, 127
2, 325087, Note_off_c, 4, 52, 127
2, 325089, Note_on_c, 7, 43, 127
2, 325300, Note_off_c, 7, 43, 127
2, 325302, Note_on_c, 4, 40, 127
2, 325506, Note_off_c, 4, 76, 127
2, 325513, Note_off_c, 4, 40, 127
2, 325515, Note_on_c, 12, 47, 127
2, 325728, Note_on_c, 3, 75, 127
2, 325941, Note_on_c, 6, 78, 127
2, 326150, Note_off_c, 3, 75, 127
2, 326152, Note_off_c, 6, 78, 127
2, 326154, Note_on_c, 3, 75, 127
2, 326365, Note_off_c, 3, 75, 127
2, 326367, Note_on_c, 12, 71, 127
2, 326578, Note_off_c, 12, 47, 127
2, 326580, Note_on_c, 12, 59, 127
2, 326791, Note_off_c, 12, 59, 127
2, 326793, Note_on_c, 3, 63, 127
2, 327004, Note_off_c, 3, 63, 127
2, 327006, Note_on_c, 12, 59, 127
2, 327217, Note_off_c, 12, 59, 127
2, 327217, Note_off_c, 12, 71, 127
2, 327219, Note_on_c, 8, 56, 127
2, 327219, Note_on_c, 2, 74, 127
2, 327432, Note_on_c, 5, 77, 127
2, 327641, Note_off_c, 2, 74, 127
2, 327643, Note_off_c, 5, 77, 127
2, 327645, Note_on_c, 2, 74, 127
2, 327856, Note_off_c, 8, 56, 127
2, 327858, Note_on_c, 8, 44, 127
2, 327858, Note_on_c, 5, 65, 127
2, 328067, Note_off_c, 2, 74, 127
2, 328069, Note_off_c, 5, 65, 127
2, 328069, Note_off_c, 8, 44, 127
2, 328071, Note_on_c, 10, 45, 127
2, 328071, Note_on_c, 2, 74, 127
2, 328284, Note_on_c, 5, 77, 127
2, 328493, Note_off_c, 2, 74, 127
2, 328495, Note_off_c, 5, 77, 127
2, 328497, Note_on_c, 2, 74, 127
2, 328708, Note_off_c, 10, 45, 127
2, 328710, Note_on_c, 10, 57, 127
2, 328710, Note_on_c, 5, 65, 127
2, 328919, Note_off_c, 2, 74, 127
2, 328921, Note_off_c, 5, 65, 127
2, 328921, Note_off_c, 10, 57, 127
2, 328923, Note_on_c, 11, 58, 127
2, 328923, Note_on_c, 2, 74, 127
2, 329136, Note_on_c, 5, 77, 127
2, 329345, Note_off_c, 2, 74, 127
2, 329347, Note_off_c, 5, 77, 127
2, 329349, Note_on_c, 2, 74, 127
2, 329560, Note_off_c, 11, 58, 127
2, 329562, Note_on_c, 11, 46, 127
2, 329562, Note_on_c, 5, 65, 127
2, 329771, Note_off_c, 2, 74, 127
2, 329773, Note_off_c, 5, 65, 127
2, 329773, Note_off_c, 11, 46, 127
2, 329775, Note_on_c, 10, 45, 127
2, 329775, Note_on_c, 2, 74, 127
2, 329988, Note_on_c, 5, 77, 127
2, 330197, Note_off_c, 2, 74, 127
2, 330199, Note_off_c, 5, 77, 127
2, 330201, Note_on_c, 2, 74, 127
2, 330412, Note_off_c, 2, 74, 127
2, 330412, Note_off_c, 10, 45, 127
2, 330414, Note_on_c, 10, 57, 127
2, 330414, Note_on_c, 5, 65, 127
2, 330625, Note_off_c, 10, 57, 127
2, 330627, Note_on_c, 2, 62, 127
2, 330838, Note_off_c, 5, 65, 127
2, 330840, Note_on_c, 10, 69, 127
2, 331051, Note_off_c, 10, 69, 127
2, 331051, Note_off_c, 2, 62, 127
2, 331053, Note_on_c, 5, 53, 127
2, 331053, Note_on_c, 2, 74, 127
2, 331264, Note_off_c, 2, 74, 127
2, 331264, Note_off_c, 5, 53, 127
2, 331266, Note_on_c, 7, 55, 127
2, 331266, Note_on_c, 4, 76, 127
2, 331477, Note_off_c, 4, 76, 127
2, 331477, Note_off_c, 7, 55, 127
2, 331479, Note_on_c, 10, 57, 127
2, 331479, Note_on_c, 2, 74, 127
2, 331621, Note_off_c, 2, 74, 127
2, 331621, Note_on_c, 1, 73, 127
2, 331690, Note_off_c, 10, 57, 127
2, 331692, Note_off_c, 1, 73, 127
2, 331692, Note_on_c, 4, 52, 127
2, 331692, Note_on_c, 2, 74, 127
2, 331763, Note_off_c, 2, 74, 127
2, 331763, Note_on_c, 1, 73, 127
2, 331834, Note_off_c, 1, 73, 127
2, 331834, Note_on_c, 2, 74, 127
2, 331903, Note_off_c, 4, 52, 127
2, 331905, Note_off_c, 2, 74, 127
2, 331905, Note_on_c, 10, 57, 127
2, 331910, Note_on_c, 1, 73, 127
2, 332116, Note_off_c, 10, 57, 127
2, 332118, Note_on_c, 10, 45, 127
2, 332290, Note_off_c, 1, 73, 127
2, 332329, Note_off_c, 10, 45, 127
2, 332331, Note_on_c, 2, 50, 127
2, 332331, Note_on_c, 2, 74, 127
2, 332544, Note_on_c, 5, 77, 127
2, 332755, Note_off_c, 5, 77, 127
2, 332757, Note_on_c, 10, 81, 127
2, 332953, Note_off_c, 2, 74, 127
2, 332969, Note_off_c, 10, 81, 127
2, 332971, Note_on_c, 5, 77, 127
2, 333182, Note_off_c, 5, 77, 127
2, 333184, Note_on_c, 2, 74, 127
2, 333395, Note_off_c, 2, 50, 127
2, 333397, Note_on_c, 5, 53, 127
2, 333608, Note_off_c, 5, 53, 127
2, 333610, Note_on_c, 10, 57, 127
2, 333821, Note_off_c, 10, 57, 127
2, 333823, Note_on_c, 5, 53, 127
2, 334034, Note_off_c, 5, 53, 127
2, 334036, Note_on_c, 2, 50, 127
2, 334247, Note_off_c, 2, 74, 127
2, 334249, Note_on_c, 5, 77, 127
2, 334460, Note_off_c, 5, 77, 127
2, 334462, Note_on_c, 10, 81, 127
2, 334675, Note_on_c, 5, 77, 127
2, 334884, Note_off_c, 10, 81, 127
2, 334886, Note_off_c, 5, 77, 127
2, 334886, Note_off_c, 2, 50, 127
2, 334888, Note_on_c, 5, 53, 127
2, 334888, Note_on_c, 2, 74, 127
2, 335101, Note_on_c, 5, 77, 127
2, 335310, Note_off_c, 2, 74, 127
2, 335312, Note_off_c, 5, 77, 127
2, 335312, Note_off_c, 5, 53, 127
2, 335314, Note_on_c, 2, 50, 127
2, 335314, Note_on_c, 10, 69, 127
2, 335527, Note_on_c, 2, 74, 127
2, 335736, Note_off_c, 10, 69, 127
2, 335738, Note_off_c, 2, 74, 127
2, 335738, Note_off_c, 2, 50, 127
2, 335740, Note_on_c, 10, 57, 127
2, 335740, Note_on_c, 1, 73, 127
2, 335953, Note_on_c, 4, 76, 127
2, 336164, Note_off_c, 4, 76, 127
2, 336166, Note_on_c, 10, 81, 127
2, 336377, Note_off_c, 10, 81, 127
2, 336379, Note_on_c, 4, 76, 127
2, 336583, Note_off_c, 1, 73, 127
2, 336590, Note_off_c, 4, 76, 127
2, 336592, Note_on_c, 10, 69, 127
2, 336803, Note_off_c, 10, 57, 127
2, 336805, Note_on_c, 4, 52, 127
2, 337016, Note_off_c, 4, 52, 127
2, 337018, Note_on_c, 10, 57, 127
2, 337229, Note_off_c, 10, 57, 127
2, 337231, Note_on_c, 4, 52, 127
2, 337435, Note_off_c, 10, 69, 127
2, 337442, Note_off_c, 4, 52, 127
2, 337444, Note_on_c, 10, 45, 127
2, 337657, Note_on_c, 0, 72, 127
2, 337868, Note_off_c, 0, 72, 127
2, 337870, Note_on_c, 4, 76, 127
2, 338083, Note_on_c, 0, 72, 127
2, 338292, Note_off_c, 4, 76, 127
2, 338294, Note_off_c, 0, 72, 127
2, 338294, Note_off_c, 10, 45, 127
2, 338296, Note_on_c, 0, 48, 127
2, 338296, Note_on_c, 10, 69, 127
2, 338509, Note_on_c, 0, 72, 127
2, 338718, Note_off_c, 10, 69, 127
2, 338720, Note_off_c, 0, 72, 127
2, 338720, Note_off_c, 0, 48, 127
2, 338722, Note_on_c, 10, 45, 127
2, 338722, Note_on_c, 4, 64, 127
2, 338935, Note_on_c, 10, 69, 127
2, 339144, Note_off_c, 4, 64, 127
2, 339146, Note_off_c, 10, 69, 127
2, 339146, Note_off_c, 10, 45, 127
2, 339148, Note_on_c, 4, 52, 127
2, 339148, Note_on_c, 8, 68, 127
2, 339361, Note_on_c, 12, 71, 127
2, 339572, Note_off_c, 12, 71, 127
2, 339574, Note_on_c, 4, 76, 127
2, 339785, Note_off_c, 4, 76, 127
2, 339787, Note_on_c, 12, 71, 127
2, 339991, Note_off_c, 8, 68, 127
2, 339998, Note_off_c, 12, 71, 127
2, 340000, Note_on_c, 4, 64, 127
2, 340211, Note_off_c, 4, 52, 127
2, 340213, Note_on_c, 4, 52, 127
2, 340424, Note_off_c, 4, 52, 127
2, 340426, Note_on_c, 5, 53, 127
2, 340622, Note_off_c, 4, 64, 127
2, 340638, Note_off_c, 5, 53, 127
2, 340640, Note_on_c, 4, 52, 127
2, 340851, Note_off_c, 4, 52, 127
2, 340853, Note_on_c, 2, 50, 127
2, 340853, Note_on_c, 5, 77, 127
2, 341064, Note_off_c, 5, 77, 127
2, 341066, Note_on_c, 10, 81, 127
2, 341170, Note_off_c, 10, 81, 127
2, 341172, Note_on_c, 5, 77, 127
2, 341276, Note_off_c, 5, 77, 127
2, 341278, Note_on_c, 2, 74, 127
2, 341489, Note_off_c, 2, 74, 127
2, 341491, Note_on_c, 5, 77, 127
2, 341595, Note_off_c, 5, 77, 127
2, 341597, Note_on_c, 2, 74, 127
2, 341701, Note_off_c, 2, 74, 127
2, 341703, Note_on_c, 12, 71, 127
2, 341914, Note_off_c, 12, 71, 127
2, 341916, Note_on_c, 2, 74, 127
2, 342020, Note_off_c, 2, 74, 127
2, 342022, Note_on_c, 12, 71, 127
2, 342126, Note_off_c, 12, 71, 127
2, 342126, Note_off_c, 2, 50, 127
2, 342128, Note_on_c, 2, 50, 127
2, 342128, Note_on_c, 8, 68, 127
2, 342339, Note_off_c, 8, 68, 127
2, 342341, Note_on_c, 12, 71, 127
2, 342445, Note_off_c, 12, 71, 127
2, 342447, Note_on_c, 8, 68, 127
2, 342551, Note_off_c, 8, 68, 127
2, 342551, Note_off_c, 2, 50, 127
2, 342553, Note_on_c, 0, 48, 127
2, 342553, Note_on_c, 10, 69, 127
2, 342764, Note_off_c, 10, 69, 127
2, 342766, Note_on_c, 4, 76, 127
2, 342870, Note_off_c, 4, 76, 127
2, 342872, Note_on_c, 0, 72, 127
2, 342976, Note_off_c, 0, 72, 127
2, 342978, Note_on_c, 10, 69, 127
2, 343189, Note_off_c, 10, 69, 127
2, 343191, Note_on_c, 0, 72, 127
2, 343295, Note_off_c, 0, 72, 127
2, 343297, Note_on_c, 10, 69, 127
2, 343401, Note_off_c, 10, 69, 127
2, 343403, Note_on_c, 4, 64, 127
2, 343614, Note_off_c, 4, 64, 127
2, 343616, Note_on_c, 10, 69, 127
2, 343720, Note_off_c, 10, 69, 127
2, 343722, Note_on_c, 4, 64, 127
2, 343826, Note_off_c, 4, 64, 127
2, 343826, Note_off_c, 0, 48, 127
2, 343828, Note_on_c, 10, 45, 127
2, 343828, Note_on_c, 0, 60, 127
2, 344039, Note_off_c, 0, 60, 127
2, 344041, Note_on_c, 4, 64, 127
2, 344145, Note_off_c, 4, 64, 127
2, 344147, Note_on_c, 0, 60, 127
2, 344251, Note_off_c, 0, 60, 127
2, 344251, Note_off_c, 10, 45, 127
2, 344253, Note_on_c, 5, 53, 127
2, 344253, Note_on_c, 10, 57, 127
2, 344464, Note_off_c, 5, 53, 127
2, 344466, Note_on_c, 4, 52, 127
2, 344677, Note_off_c, 4, 52, 127
2, 344679, Note_on_c, 2, 50, 127
2, 344890, Note_off_c, 2, 50, 127
2, 344890, Note_off_c, 10, 57, 127
2, 344892, Note_on_c, 5, 53, 127
2, 344892, Note_on_c, 10, 69, 127
2, 345103, Note_off_c, 10, 69, 127
2, 345103, Note_off_c, 5, 53, 127
2, 345105, Note_on_c, 4, 52, 127
2, 345105, Note_on_c, 8, 68, 127
2, 345316, Note_off_c, 8, 68, 127
2, 345318, Note_on_c, 12, 71, 127
2, 345529, Note_off_c, 12, 71, 127
2, 345529, Note_off_c, 4, 52, 127
2, 345531, Note_on_c, 4, 40, 127
2, 345531, Note_on_c, 4, 76, 127
2, 345742, Note_off_c, 4, 76, 127
2, 345744, Note_on_c, 12, 71, 127
2, 345955, Note_off_c, 12, 71, 127
2, 345955, Note_off_c, 4, 40, 127
2, 345957, Note_on_c, 10, 45, 127
2, 345957, Note_on_c, 10, 57, 127
2, 345957, Note_on_c, 1, 73, 127
2, 346168, Note_off_c, 1, 73, 127
2, 346170, Note_on_c, 4, 76, 127
2, 346381, Note_off_c, 4, 76, 127
2, 346383, Note_on_c, 10, 81, 127
2, 346596, Note_on_c, 4, 76, 127
2, 346807, Note_off_c, 4, 76, 127
2, 346809, Note_on_c, 10, 69, 127
2, 347005, Note_off_c, 10, 81, 127
2, 347021, Note_off_c, 10, 45, 127
2, 347022, Note_on_c, 4, 52, 127
2, 347233, Note_off_c, 4, 52, 127
2, 347234, Note_on_c, 10, 45, 127
2, 347357, Note_off_c, 10, 57, 127
2, 347423, Note_off_c, 10, 69, 127
2, 347439, Note_on_c, 4, 76, 127
2, 347439, Note_on_c, 10, 57, 127
2, 347612, Note_off_c, 10, 57, 127
2, 347612, Note_off_c, 4, 76, 127
2, 347614, Note_on_c, 12, 71, 127
2, 347614, Note_on_c, 8, 56, 127
2, 347659, Note_off_c, 10, 45, 127
2, 347787, Note_off_c, 8, 56, 127
2, 347787, Note_off_c, 12, 71, 127
2, 347789, Note_on_c, 0, 72, 127
2, 347789, Note_on_c, 10, 57, 127
2, 347962, Note_off_c, 10, 57, 127
2, 347962, Note_off_c, 0, 72, 127
2, 347964, Note_on_c, 4, 76, 127
2, 347964, Note_on_c, 0, 60, 127
2, 348137, Note_off_c, 0, 60, 127
2, 348137, Note_off_c, 4, 76, 127
2, 348139, Note_on_c, 8, 68, 127
2, 348139, Note_on_c, 12, 59, 127
2, 348312, Note_off_c, 12, 59, 127
2, 348312, Note_off_c, 8, 68, 127
2, 348314, Note_on_c, 12, 71, 127
2, 348314, Note_on_c, 2, 62, 127
2, 348487, Note_off_c, 2, 62, 127
2, 348487, Note_off_c, 12, 71, 127
2, 348489, Note_on_c, 10, 69, 127
2, 348489, Note_on_c, 0, 60, 127
2, 348662, Note_off_c, 0, 60, 127
2, 348662, Note_off_c, 10, 69, 127
2, 348664, Note_on_c, 0, 72, 127
2, 348664, Note_on_c, 4, 64, 127
2, 348837, Note_off_c, 4, 64, 127
2, 348837, Note_off_c, 0, 72, 127
2, 348839, Note_on_c, 12, 71, 127
2, 348839, Note_on_c, 8, 56, 127
2, 349012, Note_off_c, 8, 56, 127
2, 349012, Note_off_c, 12, 71, 127
2, 349014, Note_on_c, 6, 66, 127
2, 349014, Note_on_c, 12, 59, 127
2, 349187, Note_off_c, 12, 59, 127
2, 349187, Note_off_c, 6, 66, 127
2, 349189, Note_on_c, 8, 68, 127
2, 349189, Note_on_c, 4, 52, 127
2, 349362, Note_off_c, 4, 52, 127
2, 349362, Note_off_c, 8, 68, 127
2, 349364, Note_on_c, 12, 71, 127
2, 349364, Note_on_c, 8, 56, 127
2, 349537, Note_off_c, 8, 56, 127
2, 349537, Note_off_c, 12, 71, 127
2, 349539, Note_on_c, 3, 63, 127
2, 349539, Note_on_c, 6, 54, 127
2, 349712, Note_off_c, 6, 54, 127
2, 349712, Note_off_c, 3, 63, 127
2, 349714, Note_on_c, 6, 66, 127
2, 349714, Note_on_c, 10, 57, 127
2, 349887, Note_off_c, 10, 57, 127
2, 349887, Note_off_c, 6, 66, 127
2, 349889, Note_on_c, 4, 64, 127
2, 349889, Note_on_c, 8, 56, 127
2, 350062, Note_off_c, 8, 56, 127
2, 350062, Note_off_c, 4, 64, 127
2, 350064, Note_on_c, 8, 68, 127
2, 350064, Note_on_c, 12, 59, 127
2, 350237, Note_off_c, 12, 59, 127
2, 350237, Note_off_c, 8, 68, 127
2, 350239, Note_on_c, 10, 69, 127
2, 350239, Note_on_c, 0, 48, 127
2, 350412, Note_off_c, 0, 48, 127
2, 350412, Note_off_c, 10, 69, 127
2, 350414, Note_on_c, 4, 64, 127
2, 350414, Note_on_c, 10, 57, 127
2, 350587, Note_off_c, 10, 57, 127
2, 350587, Note_off_c, 4, 64, 127
2, 350589, Note_on_c, 10, 69, 127
2, 350589, Note_on_c, 4, 52, 127
2, 350762, Note_off_c, 4, 52, 127
2, 350762, Note_off_c, 10, 69, 127
2, 350764, Note_on_c, 0, 72, 127
2, 350764, Note_on_c, 10, 45, 127
2, 350937, Note_off_c, 10, 45, 127
2, 350937, Note_off_c, 0, 72, 127
2, 350939, Note_on_c, 12, 71, 127
2, 350939, Note_on_c, 8, 56, 127
2, 351112, Note_off_c, 8, 56, 127
2, 351112, Note_off_c, 12, 71, 127
2, 351114, Note_on_c, 4, 64, 127
2, 351114, Note_on_c, 6, 54, 127
2, 351287, Note_off_c, 6, 54, 127
2, 351287, Note_off_c, 4, 64, 127
2, 351289, Note_on_c, 12, 71, 127
2, 351289, Note_on_c, 8, 56, 127
2, 351462, Note_off_c, 8, 56, 127
2, 351462, Note_off_c, 12, 71, 127
2, 351464, Note_on_c, 2, 74, 127
2, 351464, Note_on_c, 4, 52, 127
2, 351637, Note_off_c, 4, 52, 127
2, 351637, Note_off_c, 2, 74, 127
2, 351639, Note_on_c, 0, 72, 127
2, 351639, Note_on_c, 10, 57, 127
2, 351812, Note_off_c, 10, 57, 127
2, 351812, Note_off_c, 0, 72, 127
2, 351814, Note_on_c, 5, 77, 127
2, 351814, Note_on_c, 12, 59, 127
2, 351987, Note_off_c, 12, 59, 127
2, 351987, Note_off_c, 5, 77, 127
2, 351989, Note_on_c, 4, 76, 127
2, 351989, Note_on_c, 0, 60, 127
2, 352162, Note_off_c, 0, 60, 127
2, 352162, Note_off_c, 4, 76, 127
2, 352164, Note_on_c, 12, 71, 127
2, 352164, Note_on_c, 2, 62, 127
2, 352337, Note_off_c, 2, 62, 127
2, 352337, Note_off_c, 12, 71, 127
2, 352339, Note_on_c, 0, 72, 127
2, 352339, Note_on_c, 4, 64, 127
2, 352512, Note_off_c, 4, 64, 127
2, 352512, Note_off_c, 0, 72, 127
2, 352514, Note_on_c, 4, 76, 127
2, 352514, Note_on_c, 2, 62, 127
2, 352687, Note_off_c, 2, 62, 127
2, 352687, Note_off_c, 4, 76, 127
2, 352689, Note_on_c, 10, 69, 127
2, 352689, Note_on_c, 0, 60, 127
2, 352862, Note_off_c, 0, 60, 127
2, 352864, Note_on_c, 12, 59, 127
2, 352889, Note_off_c, 10, 69, 127
2, 353036, Note_off_c, 12, 59, 127
2, 353038, Note_on_c, 0, 84, 127
2, 353038, Note_on_c, 10, 57, 127
2, 353211, Note_off_c, 0, 84, 127
2, 353213, Note_on_c, 12, 83, 127
2, 353386, Note_off_c, 12, 83, 127
2, 353386, Note_off_c, 10, 57, 127
2, 353388, Note_on_c, 10, 81, 127
2, 353388, Note_on_c, 0, 60, 127
2, 353561, Note_off_c, 0, 60, 127
2, 353561, Note_off_c, 10, 81, 127
2, 353563, Note_on_c, 7, 79, 127
2, 353563, Note_on_c, 12, 59, 127
2, 353736, Note_off_c, 12, 59, 127
2, 353736, Note_off_c, 7, 79, 127
2, 353738, Note_on_c, 6, 78, 127
2, 353738, Note_on_c, 10, 57, 127
2, 353911, Note_off_c, 10, 57, 127
2, 353911, Note_off_c, 6, 78, 127
2, 353913, Note_on_c, 12, 83, 127
2, 353913, Note_on_c, 7, 55, 127
2, 354086, Note_off_c, 7, 55, 127
2, 354086, Note_off_c, 12, 83, 127
2, 354088, Note_on_c, 10, 81, 127
2, 354088, Note_on_c, 6, 54, 127
2, 354261, Note_off_c, 6, 54, 127
2, 354261, Note_off_c, 10, 81, 127
2, 354263, Note_on_c, 7, 79, 127
2, 354263, Note_on_c, 12, 59, 127
2, 354436, Note_off_c, 12, 59, 127
2, 354436, Note_off_c, 7, 79, 127
2, 354438, Note_on_c, 6, 78, 127
2, 354438, Note_on_c, 10, 57, 127
2, 354611, Note_off_c, 10, 57, 127
2, 354611, Note_off_c, 6, 78, 127
2, 354613, Note_on_c, 4, 76, 127
2, 354613, Note_on_c, 7, 55, 127
2, 354786, Note_off_c, 7, 55, 127
2, 354786, Note_off_c, 4, 76, 127
2, 354788, Note_on_c, 3, 75, 127
2, 354788, Note_on_c, 6, 54, 127
2, 354961, Note_off_c, 6, 54, 127
2, 354961, Note_off_c, 3, 75, 127
2, 354963, Note_on_c, 7, 79, 127
2, 354963, Note_on_c, 4, 52, 127
2, 355136, Note_off_c, 4, 52, 127
2, 355136, Note_off_c, 7, 79, 127
2, 355138, Note_on_c, 6, 78, 127
2, 355138, Note_on_c, 3, 51, 127
2, 355311, Note_off_c, 3, 51, 127
2, 355311, Note_off_c, 6, 78, 127
2, 355313, Note_on_c, 4, 76, 127
2, 355313, Note_on_c, 7, 55, 127
2, 355486, Note_off_c, 7, 55, 127
2, 355486, Note_off_c, 4, 76, 127
2, 355488, Note_on_c, 3, 75, 127
2, 355488, Note_on_c, 6, 54, 127
2, 355661, Note_off_c, 6, 54, 127
2, 355661, Note_off_c, 3, 75, 127
2, 355663, Note_on_c, 1, 73, 127
2, 355663, Note_on_c, 4, 52, 127
2, 355836, Note_off_c, 4, 52, 127
2, 355836, Note_off_c, 1, 73, 127
2, 355838, Note_on_c, 12, 71, 127
2, 355838, Note_on_c, 3, 51, 127
2, 356011, Note_off_c, 3, 51, 127
2, 356011, Note_off_c, 12, 71, 127
2, 356013, Note_on_c, 4, 76, 127
2, 356013, Note_on_c, 1, 49, 127
2, 356186, Note_off_c, 1, 49, 127
2, 356186, Note_off_c, 4, 76, 127
2, 356188, Note_on_c, 3, 75, 127
2, 356188, Note_on_c, 12, 47, 127
2, 356361, Note_off_c, 12, 47, 127
2, 356361, Note_off_c, 3, 75, 127
2, 356363, Note_on_c, 1, 73, 127
2, 356363, Note_on_c, 10, 45, 127
2, 356536, Note_off_c, 10, 45, 127
2, 356536, Note_off_c, 1, 73, 127
2, 356538, Note_on_c, 12, 71, 127
2, 356538, Note_on_c, 8, 44, 127
2, 356711, Note_off_c, 8, 44, 127
2, 356711, Note_off_c, 12, 71, 127
2, 356713, Note_on_c, 10, 69, 127
2, 356713, Note_on_c, 10, 45, 127
2, 356886, Note_off_c, 10, 45, 127
2, 356886, Note_off_c, 10, 69, 127
2, 356888, Note_on_c, 8, 68, 127
2, 356888, Note_on_c, 12, 47, 127
2, 357061, Note_off_c, 8, 68, 127
2, 357063, Note_on_c, 6, 66, 127
2, 357236, Note_off_c, 6, 66, 127
2, 357236, Note_off_c, 12, 47, 127
2, 357238, Note_on_c, 8, 68, 127
2, 357238, Note_on_c, 4, 52, 127
2, 357411, Note_off_c, 4, 52, 127
2, 357411, Note_off_c, 8, 68, 127
2, 357413, Note_on_c, 0, 72, 127
2, 357413, Note_on_c, 12, 47, 127
2, 357586, Note_off_c, 12, 47, 127
2, 357586, Note_off_c, 0, 72, 127
2, 357588, Note_on_c, 12, 71, 127
2, 357588, Note_on_c, 8, 44, 127
2, 357761, Note_off_c, 8, 44, 127
2, 357761, Note_off_c, 12, 71, 127
2, 357763, Note_on_c, 10, 69, 127
2, 357763, Note_on_c, 6, 42, 127
2, 357936, Note_off_c, 6, 42, 127
2, 357936, Note_off_c, 10, 69, 127
2, 357938, Note_on_c, 8, 68, 127
2, 357938, Note_on_c, 4, 40, 127
2, 358111, Note_off_c, 8, 68, 127
2, 358113, Note_on_c, 6, 66, 127
2, 358113, Note_on_c, 12, 47, 127
2, 358284, Note_off_c, 4, 40, 127
2, 358286, Note_off_c, 12, 47, 127
2, 358286, Note_off_c, 6, 66, 127
2, 358288, Note_on_c, 4, 64, 127
2, 358288, Note_on_c, 4, 52, 127
2, 358635, Note_off_c, 4, 52, 127
2, 358635, Note_off_c, 4, 64, 127
2, 358637, Note_on_c, 0, 60, 127
2, 358637, Note_on_c, 0, 36, 127
2, 358810, Note_off_c, 0, 60, 127
2, 358812, Note_on_c, 2, 62, 127
2, 358985, Note_off_c, 2, 62, 127
2, 358985, Note_off_c, 0, 36, 127
2, 358987, Note_on_c, 4, 64, 127
2, 358987, Note_on_c, 0, 48, 127
2, 359160, Note_off_c, 0, 48, 127
2, 359160, Note_off_c, 4, 64, 127
2, 359162, Note_on_c, 5, 65, 127
2, 359162, Note_on_c, 2, 50, 127
2, 359335, Note_off_c, 2, 50, 127
2, 359335, Note_off_c, 5, 65, 127
2, 359337, Note_on_c, 7, 67, 127
2, 359337, Note_on_c, 4, 52, 127
2, 359510, Note_off_c, 4, 52, 127
2, 359510, Note_off_c, 7, 67, 127
2, 359512, Note_on_c, 10, 57, 127
2, 359512, Note_on_c, 5, 53, 127
2, 359685, Note_off_c, 5, 53, 127
2, 359685, Note_off_c, 10, 57, 127
2, 359687, Note_on_c, 12, 59, 127
2, 359687, Note_on_c, 7, 55, 127
2, 359860, Note_off_c, 7, 55, 127
2, 359860, Note_off_c, 12, 59, 127
2, 359862, Note_on_c, 0, 60, 127
2, 359862, Note_on_c, 10, 45, 127
2, 360035, Note_off_c, 10, 45, 127
2, 360035, Note_off_c, 0, 60, 127
2, 360037, Note_on_c, 2, 62, 127
2, 360037, Note_on_c, 12, 47, 127
2, 360210, Note_off_c, 12, 47, 127
2, 360210, Note_off_c, 2, 62, 127
2, 360212, Note_on_c, 6, 66, 127
2, 360212, Note_on_c, 2, 50, 127
2, 360385, Note_off_c, 2, 50, 127
2, 360385, Note_off_c, 6, 66, 127
2, 360387, Note_on_c, 7, 67, 127
2, 360387, Note_on_c, 4, 52, 127
2, 360560, Note_off_c, 4, 52, 127
2, 360560, Note_off_c, 7, 67, 127
2, 360562, Note_on_c, 10, 69, 127
2, 360562, Note_on_c, 6, 54, 127
2, 360735, Note_off_c, 6, 54, 127
2, 360735, Note_off_c, 10, 69, 127
2, 360737, Note_on_c, 12, 71, 127
2, 360737, Note_on_c, 7, 55, 127
2, 360910, Note_off_c, 7, 55, 127
2, 360910, Note_off_c, 12, 71, 127
2, 360912, Note_on_c, 12, 59, 127
2, 360912, Note_on_c, 10, 57, 127
2, 361085, Note_off_c, 10, 57, 127
2, 361085, Note_off_c, 12, 59, 127
2, 361087, Note_on_c, 1, 61, 127
2, 361087, Note_on_c, 7, 55, 127
2, 361260, Note_off_c, 7, 55, 127
2, 361260, Note_off_c, 1, 61, 127
2, 361262, Note_on_c, 3, 63, 127
2, 361262, Note_on_c, 6, 54, 127
2, 361435, Note_off_c, 6, 54, 127
2, 361435, Note_off_c, 3, 63, 127
2, 361437, Note_on_c, 4, 64, 127
2, 361437, Note_on_c, 4, 52, 127
2, 361610, Note_off_c, 4, 64, 127
2, 361612, Note_on_c, 6, 66, 127
2, 361785, Note_off_c, 6, 66, 127
2, 361785, Note_off_c, 4, 52, 127
2, 361787, Note_on_c, 7, 67, 127
2, 361787, Note_on_c, 4, 52, 127
2, 361960, Note_off_c, 4, 52, 127
2, 361960, Note_off_c, 7, 67, 127
2, 361962, Note_on_c, 10, 69, 127
2, 361962, Note_on_c, 6, 54, 127
2, 362135, Note_off_c, 6, 54, 127
2, 362135, Note_off_c, 10, 69, 127
2, 362137, Note_on_c, 12, 71, 127
2, 362137, Note_on_c, 7, 55, 127
2, 362310, Note_off_c, 7, 55, 127
2, 362310, Note_off_c, 12, 71, 127
2, 362312, Note_on_c, 1, 61, 127
2, 362312, Note_on_c, 10, 57, 127
2, 362485, Note_off_c, 10, 57, 127
2, 362485, Note_off_c, 1, 61, 127
2, 362487, Note_on_c, 3, 63, 127
2, 362487, Note_on_c, 12, 59, 127
2, 362660, Note_off_c, 12, 59, 127
2, 362660, Note_off_c, 3, 63, 127
2, 362662, Note_on_c, 4, 64, 127
2, 362662, Note_on_c, 1, 49, 127
2, 362835, Note_off_c, 1, 49, 127
2, 362835, Note_off_c, 4, 64, 127
2, 362837, Note_on_c, 6, 66, 127
2, 362837, Note_on_c, 3, 51, 127
2, 363010, Note_off_c, 3, 51, 127
2, 363010, Note_off_c, 6, 66, 127
2, 363012, Note_on_c, 7, 67, 127
2, 363012, Note_on_c, 4, 52, 127
2, 363185, Note_off_c, 4, 52, 127
2, 363185, Note_off_c, 7, 67, 127
2, 363187, Note_on_c, 6, 66, 127
2, 363187, Note_on_c, 3, 51, 127
2, 363360, Note_off_c, 3, 51, 127
2, 363360, Note_off_c, 6, 66, 127
2, 363362, Note_on_c, 4, 64, 127
2, 363362, Note_on_c, 1, 49, 127
2, 363535, Note_off_c, 1, 49, 127
2, 363535, Note_off_c, 4, 64, 127
2, 363537, Note_on_c, 3, 63, 127
2, 363537, Note_on_c, 12, 47, 127
2, 363710, Note_off_c, 3, 63, 127
2, 363712, Note_on_c, 1, 61, 127
2, 363885, Note_off_c, 1, 61, 127
2, 363885, Note_off_c, 12, 47, 127
2, 363887, Note_on_c, 12, 59, 127
2, 364062, Note_on_c, 10, 57, 127
2, 364235, Note_off_c, 10, 57, 127
2, 364235, Note_off_c, 12, 59, 127
2, 364237, Note_on_c, 5, 77, 127
2, 364237, Note_on_c, 8, 56, 127
2, 364410, Note_off_c, 5, 77, 127
2, 364412, Note_on_c, 4, 76, 127
2, 364585, Note_off_c, 4, 76, 127
2, 364585, Note_off_c, 8, 56, 127
2, 364587, Note_on_c, 2, 74, 127
2, 364587, Note_on_c, 5, 65, 127
2, 364760, Note_off_c, 5, 65, 127
2, 364760, Note_off_c, 2, 74, 127
2, 364762, Note_on_c, 1, 73, 127
2, 364762, Note_on_c, 4, 64, 127
2, 364935, Note_off_c, 4, 64, 127
2, 364935, Note_off_c, 1, 73, 127
2, 364937, Note_on_c, 2, 74, 127
2, 364937, Note_on_c, 2, 62, 127
2, 365110, Note_off_c, 2, 62, 127
2, 365110, Note_off_c, 2, 74, 127
2, 365112, Note_on_c, 4, 76, 127
2, 365112, Note_on_c, 1, 61, 127
2, 365285, Note_off_c, 1, 61, 127
2, 365285, Note_off_c, 4, 76, 127
2, 365287, Note_on_c, 5, 77, 127
2, 365287, Note_on_c, 2, 62, 127
2, 365460, Note_off_c, 2, 62, 127
2, 365460, Note_off_c, 5, 77, 127
2, 365462, Note_on_c, 4, 76, 127
2, 365462, Note_on_c, 4, 64, 127
2, 365635, Note_off_c, 4, 64, 127
2, 365635, Note_off_c, 4, 76, 127
2, 365637, Note_on_c, 2, 74, 127
2, 365637, Note_on_c, 5, 65, 127
2, 365810, Note_off_c, 5, 65, 127
2, 365810, Note_off_c, 2, 74, 127
2, 365812, Note_on_c, 1, 73, 127
2, 365812, Note_on_c, 4, 64, 127
2, 365985, Note_off_c, 4, 64, 127
2, 365985, Note_off_c, 1, 73, 127
2, 365987, Note_on_c, 2, 74, 127
2, 365987, Note_on_c, 2, 62, 127
2, 366160, Note_off_c, 2, 62, 127
2, 366160, Note_off_c, 2, 74, 127
2, 366162, Note_on_c, 4, 76, 127
2, 366162, Note_on_c, 1, 61, 127
2, 366335, Note_off_c, 1, 61, 127
2, 366335, Note_off_c, 4, 76, 127
2, 366337, Note_on_c, 5, 77, 127
2, 366337, Note_on_c, 2, 62, 127
2, 366510, Note_off_c, 2, 62, 127
2, 366510, Note_off_c, 5, 77, 127
2, 366512, Note_on_c, 4, 76, 127
2, 366512, Note_on_c, 4, 64, 127
2, 366685, Note_off_c, 4, 64, 127
2, 366685, Note_off_c, 4, 76, 127
2, 366687, Note_on_c, 2, 74, 127
2, 366687, Note_on_c, 5, 65, 127
2, 366860, Note_off_c, 5, 65, 127
2, 366860, Note_off_c, 2, 74, 127
2, 366862, Note_on_c, 1, 73, 127
2, 366862, Note_on_c, 4, 64, 127
2, 367035, Note_off_c, 4, 64, 127
2, 367035, Note_off_c, 1, 73, 127
2, 367037, Note_on_c, 2, 74, 127
2, 367037, Note_on_c, 2, 62, 127
2, 367210, Note_off_c, 2, 62, 127
2, 367210, Note_off_c, 2, 74, 127
2, 367212, Note_on_c, 4, 76, 127
2, 367212, Note_on_c, 1, 61, 127
2, 367385, Note_off_c, 1, 61, 127
2, 367385, Note_off_c, 4, 76, 127
2, 367387, Note_on_c, 5, 77, 127
2, 367387, Note_on_c, 2, 62, 127
2, 367560, Note_off_c, 2, 62, 127
2, 367560, Note_off_c, 5, 77, 127
2, 367562, Note_on_c, 7, 79, 127
2, 367562, Note_on_c, 4, 64, 127
2, 367735, Note_off_c, 4, 64, 127
2, 367735, Note_off_c, 7, 79, 127
2, 367737, Note_on_c, 10, 81, 127
2, 367737, Note_on_c, 5, 65, 127
2, 367910, Note_off_c, 5, 65, 127
2, 367910, Note_off_c, 10, 81, 127
2, 367912, Note_on_c, 10, 69, 127
2, 367912, Note_on_c, 7, 67, 127
2, 368085, Note_off_c, 7, 67, 127
2, 368085, Note_off_c, 10, 69, 127
2, 368087, Note_on_c, 12, 71, 127
2, 368087, Note_on_c, 5, 65, 127
2, 368260, Note_off_c, 5, 65, 127
2, 368260, Note_off_c, 12, 71, 127
2, 368262, Note_on_c, 1, 73, 127
2, 368262, Note_on_c, 4, 64, 127
2, 368435, Note_off_c, 4, 64, 127
2, 368435, Note_off_c, 1, 73, 127
2, 368437, Note_on_c, 2, 74, 127
2, 368437, Note_on_c, 2, 62, 127
2, 368610, Note_off_c, 2, 74, 127
2, 368612, Note_on_c, 5, 65, 127
2, 368785, Note_off_c, 5, 65, 127
2, 368787, Note_on_c, 7, 67, 127
2, 368960, Note_off_c, 7, 67, 127
2, 368962, Note_on_c, 10, 69, 127
2, 369129, Note_off_c, 2, 62, 127
2, 369134, Note_off_c, 10, 69, 127
2, 369136, Note_on_c, 2, 62, 127
2, 369311, Note_on_c, 5, 53, 127
2, 369484, Note_off_c, 5, 53, 127
2, 369486, Note_on_c, 7, 55, 127
2, 369659, Note_off_c, 7, 55, 127
2, 369661, Note_on_c, 10, 57, 127
2, 369828, Note_off_c, 2, 62, 127
2, 369833, Note_off_c, 10, 57, 127
2, 369835, Note_on_c, 2, 50, 127
2, 370007, Note_on_c, 11, 82, 127
2, 370177, Note_off_c, 11, 82, 127
2, 370179, Note_on_c, 10, 81, 127
2, 370349, Note_off_c, 10, 81, 127
2, 370351, Note_on_c, 11, 82, 127
2, 370516, Note_off_c, 2, 50, 127
2, 370521, Note_off_c, 11, 82, 127
2, 370523, Note_on_c, 10, 81, 127
2, 370693, Note_off_c, 10, 81, 127
2, 370695, Note_on_c, 7, 79, 127
2, 370695, Note_on_c, 11, 70, 127
2, 370865, Note_off_c, 11, 70, 127
2, 370865, Note_off_c, 7, 79, 127
2, 370867, Note_on_c, 5, 77, 127
2, 370867, Note_on_c, 10, 69, 127
2, 371037, Note_off_c, 10, 69, 127
2, 371037, Note_off_c, 5, 77, 127
2, 371039, Note_on_c, 7, 79, 127
2, 371039, Note_on_c, 11, 70, 127
2, 371209, Note_off_c, 11, 70, 127
2, 371209, Note_off_c, 7, 79, 127
2, 371211, Note_on_c, 5, 77, 127
2, 371211, Note_on_c, 10, 69, 127
2, 371381, Note_off_c, 10, 69, 127
2, 371381, Note_off_c, 5, 77, 127
2, 371383, Note_on_c, 4, 76, 127
2, 371383, Note_on_c, 7, 67, 127
2, 371553, Note_off_c, 7, 67, 127
2, 371553, Note_off_c, 4, 76, 127
2, 371555, Note_on_c, 2, 74, 127
2, 371555, Note_on_c, 5, 65, 127
2, 371725, Note_off_c, 5, 65, 127
2, 371725, Note_off_c, 2, 74, 127
2, 371727, Note_on_c, 4, 76, 127
2, 371727, Note_on_c, 7, 67, 127
2, 371897, Note_off_c, 7, 67, 127
2, 371897, Note_off_c, 4, 76, 127
2, 371899, Note_on_c, 1, 73, 127
2, 371899, Note_on_c, 4, 64, 127
2, 372069, Note_off_c, 4, 64, 127
2, 372069, Note_off_c, 1, 73, 127
2, 372071, Note_on_c, 2, 74, 127
2, 372071, Note_on_c, 5, 65, 127
2, 372241, Note_off_c, 5, 65, 127
2, 372241, Note_off_c, 2, 74, 127
2, 372243, Note_on_c, 1, 73, 127
2, 372243, Note_on_c, 4, 64, 127
2, 372413, Note_off_c, 4, 64, 127
2, 372413, Note_off_c, 1, 73, 127
2, 372415, Note_on_c, 12, 71, 127
2, 372415, Note_on_c, 2, 62, 127
2, 372585, Note_off_c, 2, 62, 127
2, 372585, Note_off_c, 12, 71, 127
2, 372587, Note_on_c, 10, 69, 127
2, 372587, Note_on_c, 1, 61, 127
2, 372757, Note_off_c, 1, 61, 127
2, 372757, Note_off_c, 10, 69, 127
2, 372759, Note_on_c, 5, 77, 127
2, 372759, Note_on_c, 12, 59, 127
2, 372929, Note_off_c, 12, 59, 127
2, 372929, Note_off_c, 5, 77, 127
2, 372931, Note_on_c, 4, 76, 127
2, 372931, Note_on_c, 10, 57, 127
2, 373101, Note_off_c, 4, 76, 127
2, 373103, Note_on_c, 5, 77, 127
2, 373271, Note_off_c, 10, 57, 127
2, 373273, Note_off_c, 5, 77, 127
2, 373275, Note_on_c, 4, 76, 127
2, 373445, Note_off_c, 4, 76, 127
2, 373447, Note_on_c, 2, 74, 127
2, 373447, Note_on_c, 5, 65, 127
2, 373617, Note_off_c, 5, 65, 127
2, 373617, Note_off_c, 2, 74, 127
2, 373619, Note_on_c, 0, 72, 127
2, 373619, Note_on_c, 4, 64, 127
2, 373789, Note_off_c, 4, 64, 127
2, 373789, Note_off_c, 0, 72, 127
2, 373791, Note_on_c, 2, 74, 127
2, 373791, Note_on_c, 5, 65, 127
2, 373961, Note_off_c, 5, 65, 127
2, 373961, Note_off_c, 2, 74, 127
2, 373963, Note_on_c, 0, 72, 127
2, 373963, Note_on_c, 4, 64, 127
2, 374133, Note_off_c, 4, 64, 127
2, 374133, Note_off_c, 0, 72, 127
2, 374135, Note_on_c, 12, 71, 127
2, 374135, Note_on_c, 2, 62, 127
2, 374305, Note_off_c, 2, 62, 127
2, 374305, Note_off_c, 12, 71, 127
2, 374307, Note_on_c, 10, 69, 127
2, 374307, Note_on_c, 0, 60, 127
2, 374477, Note_off_c, 0, 60, 127
2, 374477, Note_off_c, 10, 69, 127
2, 374479, Note_on_c, 12, 71, 127
2, 374479, Note_on_c, 2, 62, 127
2, 374649, Note_off_c, 2, 62, 127
2, 374649, Note_off_c, 12, 71, 127
2, 374651, Note_on_c, 8, 68, 127
2, 374651, Note_on_c, 12, 59, 127
2, 374821, Note_off_c, 12, 59, 127
2, 374821, Note_off_c, 8, 68, 127
2, 374823, Note_on_c, 6, 66, 127
2, 374823, Note_on_c, 10, 57, 127
2, 374993, Note_off_c, 10, 57, 127
2, 374993, Note_off_c, 6, 66, 127
2, 374995, Note_on_c, 4, 64, 127
2, 374995, Note_on_c, 8, 56, 127
2, 375165, Note_off_c, 8, 56, 127
2, 375167, Note_on_c, 10, 57, 127
2, 375337, Note_off_c, 10, 57, 127
2, 375337, Note_off_c, 4, 64, 127
2, 375339, Note_on_c, 2, 74, 127
2, 375339, Note_on_c, 12, 59, 127
2, 375339, Note_on_c, 2, 50, 127
2, 375509, Note_off_c, 2, 74, 127
2, 375511, Note_on_c, 4, 76, 127
2, 375681, Note_off_c, 4, 76, 127
2, 375683, Note_on_c, 5, 77, 127
2, 375841, Note_off_c, 2, 50, 127
2, 375841, Note_off_c, 12, 59, 127
2, 375854, Note_off_c, 5, 77, 127
2, 375856, Note_on_c, 4, 76, 127
2, 376026, Note_off_c, 4, 76, 127
2, 376028, Note_on_c, 2, 74, 127
2, 376198, Note_off_c, 2, 74, 127
2, 376200, Note_on_c, 4, 76, 127
2, 376370, Note_off_c, 4, 76, 127
2, 376372, Note_on_c, 0, 72, 127
2, 376372, Note_on_c, 0, 60, 127
2, 376542, Note_off_c, 0, 72, 127
2, 376544, Note_on_c, 2, 74, 127
2, 376714, Note_off_c, 2, 74, 127
2, 376714, Note_off_c, 0, 60, 127
2, 376716, Note_on_c, 12, 71, 127
2, 376716, Note_on_c, 2, 62, 127
2, 376886, Note_off_c, 2, 62, 127
2, 376886, Note_off_c, 12, 71, 127
2, 376888, Note_on_c, 0, 72, 127
2, 376888, Note_on_c, 4, 64, 127
2, 377058, Note_off_c, 4, 64, 127
2, 377058, Note_off_c, 0, 72, 127
2, 377060, Note_on_c, 2, 74, 127
2, 377060, Note_on_c, 5, 65, 127
2, 377230, Note_off_c, 5, 65, 127
2, 377230, Note_off_c, 2, 74, 127
2, 377232, Note_on_c, 0, 72, 127
2, 377232, Note_on_c, 4, 64, 127
2, 377402, Note_off_c, 4, 64, 127
2, 377402, Note_off_c, 0, 72, 127
2, 377404, Note_on_c, 12, 71, 127
2, 377404, Note_on_c, 2, 62, 127
2, 377574, Note_off_c, 2, 62, 127
2, 377574, Note_off_c, 12, 71, 127
2, 377576, Note_on_c, 0, 72, 127
2, 377576, Note_on_c, 4, 64, 127
2, 377746, Note_off_c, 4, 64, 127
2, 377746, Note_off_c, 0, 72, 127
2, 377748, Note_on_c, 10, 69, 127
2, 377748, Note_on_c, 0, 60, 127
2, 377918, Note_off_c, 0, 60, 127
2, 377918, Note_off_c, 10, 69, 127
2, 377920, Note_on_c, 12, 71, 127
2, 377920, Note_on_c, 2, 62, 127
2, 378090, Note_off_c, 2, 62, 127
2, 378090, Note_off_c, 12, 71, 127
2, 378092, Note_on_c, 8, 68, 127
2, 378092, Note_on_c, 12, 59, 127
2, 378262, Note_off_c, 12, 59, 127
2, 378262, Note_off_c, 8, 68, 127
2, 378264, Note_on_c, 4, 76, 127
2, 378264, Note_on_c, 8, 68, 127
2, 378434, Note_off_c, 8, 68, 127
2, 378434, Note_off_c, 4, 76, 127
2, 378436, Note_on_c, 10, 69, 127
2, 378436, Note_on_c, 0, 60, 127
2, 378606, Note_off_c, 0, 60, 127
2, 378606, Note_off_c, 10, 69, 127
2, 378608, Note_on_c, 0, 72, 127
2, 378608, Note_on_c, 10, 69, 127
2, 378778, Note_off_c, 10, 69, 127
2, 378778, Note_off_c, 0, 72, 127
2, 378780, Note_on_c, 12, 71, 127
2, 378780, Note_on_c, 2, 62, 127
2, 378950, Note_off_c, 2, 62, 127
2, 378950, Note_off_c, 12, 71, 127
2, 378952, Note_on_c, 10, 69, 127
2, 378952, Note_on_c, 6, 66, 127
2, 379122, Note_off_c, 6, 66, 127
2, 379122, Note_off_c, 10, 69, 127
2, 379124, Note_on_c, 8, 68, 127
2, 379124, Note_on_c, 4, 64, 127
2, 379294, Note_off_c, 4, 64, 127
2, 379294, Note_off_c, 8, 68, 127
2, 379296, Note_on_c, 12, 71, 127
2, 379296, Note_on_c, 8, 68, 127
2, 379466, Note_off_c, 8, 68, 127
2, 379466, Note_off_c, 12, 71, 127
2, 379468, Note_on_c, 1, 73, 127
2, 379468, Note_on_c, 10, 69, 127
2, 379638, Note_off_c, 10, 69, 127
2, 379638, Note_off_c, 1, 73, 127
2, 379640, Note_on_c, 4, 76, 127
2, 379640, Note_on_c, 1, 61, 127
2, 379810, Note_off_c, 1, 61, 127
2, 379810, Note_off_c, 4, 76, 127
2, 379812, Note_on_c, 5, 77, 127
2, 379812, Note_on_c, 2, 62, 127
2, 379982, Note_off_c, 2, 62, 127
2, 379982, Note_off_c, 5, 77, 127
2, 379984, Note_on_c, 2, 74, 127
2, 379984, Note_on_c, 12, 59, 127
2, 380154, Note_off_c, 12, 59, 127
2, 380154, Note_off_c, 2, 74, 127
2, 380156, Note_on_c, 4, 76, 127
2, 380156, Note_on_c, 1, 61, 127
2, 380326, Note_off_c, 1, 61, 127
2, 380326, Note_off_c, 4, 76, 127
2, 380328, Note_on_c, 12, 71, 127
2, 380328, Note_on_c, 8, 56, 127
2, 380498, Note_off_c, 8, 56, 127
2, 380498, Note_off_c, 12, 71, 127
2, 380500, Note_on_c, 1, 73, 127
2, 380500, Note_on_c, 10, 57, 127
2, 380686, Note_off_c, 10, 57, 127
2, 380688, Note_off_c, 1, 73, 127
2, 380690, Note_on_c, 4, 52, 127
2, 380690, Note_on_c, 8, 68, 127
2, 380860, Note_off_c, 8, 68, 127
2, 380880, Note_on_c, 10, 69, 127
2, 381030, Note_off_c, 4, 52, 127
2, 381188, Note_on_c, 10, 45, 127
2, 381532, Note_on_c, 1, 49, 127
2, 381876, Note_on_c, 4, 52, 127
2, 382220, Note_on_c, 10, 57, 127
2, 383620, Note_off_c, 10, 57, 127
2, 383682, Note_off_c, 1, 49, 127
2, 383688, Note_off_c, 10, 45, 127
2, 383690, Note_off_c, 4, 52, 127
2, 383880, Note_off_c, 10, 69, 127
2, 384364, Note_on_c, 4, 64, 127
2, 384364, Note_on_c, 10, 69, 127
2, 384364, Note_on_c, 0, 60, 127
2, 384364, Note_on_c, 10, 57, 127
2, 384706, Note_off_c, 10, 69, 127
2, 384708, Note_on_c, 12, 71, 127
2, 385045, Note_off_c, 4, 64, 127
2, 385050, Note_off_c, 12, 71, 127
2, 385050, Note_off_c, 10, 57, 127
2, 385050, Note_off_c, 0, 60, 127
2, 385052, Note_on_c, 0, 72, 127
2, 385052, Note_on_c, 10, 69, 127
2, 385052, Note_on_c, 10, 57, 127
2, 385052, Note_on_c, 5, 53, 127
2, 385394, Note_off_c, 0, 72, 127
2, 385396, Note_on_c, 2, 74, 127
2, 385738, Note_off_c, 2, 74, 127
2, 385738, Note_off_c, 5, 53, 127
2, 385738, Note_off_c, 10, 57, 127
2, 385740, Note_on_c, 4, 76, 127
2, 385740, Note_on_c, 12, 59, 127
2, 385740, Note_on_c, 4, 52, 127
2, 386082, Note_off_c, 10, 69, 127
2, 386084, Note_on_c, 10, 69, 127
2, 386426, Note_off_c, 10, 69, 127
2, 386428, Note_on_c, 8, 68, 127
2, 386770, Note_off_c, 4, 52, 127
2, 386772, Note_on_c, 2, 50, 127
2, 387114, Note_off_c, 2, 50, 127
2, 387114, Note_off_c, 8, 68, 127
2, 387114, Note_off_c, 12, 59, 127
2, 387116, Note_on_c, 10, 69, 127
2, 387116, Note_on_c, 0, 60, 127
2, 387116, Note_on_c, 0, 48, 127
2, 387458, Note_off_c, 0, 60, 127
2, 387460, Note_off_c, 4, 76, 127
2, 387460, Note_on_c, 5, 77, 127
2, 387460, Note_on_c, 2, 62, 127
2, 387797, Note_off_c, 0, 48, 127
2, 387802, Note_off_c, 2, 62, 127
2, 387802, Note_off_c, 5, 77, 127
2, 387804, Note_on_c, 4, 76, 127
2, 387804, Note_on_c, 0, 60, 127
2, 387804, Note_on_c, 4, 52, 127
2, 388146, Note_off_c, 0, 60, 127
2, 388146, Note_off_c, 4, 76, 127
2, 388146, Note_off_c, 10, 69, 127
2, 388148, Note_on_c, 2, 74, 127
2, 388148, Note_on_c, 8, 68, 127
2, 388148, Note_on_c, 12, 59, 127
2, 388485, Note_off_c, 4, 52, 127
2, 388490, Note_off_c, 12, 59, 127
2, 388490, Note_off_c, 8, 68, 127
2, 388490, Note_off_c, 2, 74, 127
2, 388492, Note_on_c, 10, 69, 127
2, 388492, Note_on_c, 0, 72, 127
2, 388492, Note_on_c, 10, 45, 127
2, 388492, Note_on_c, 10, 57, 127
2, 388834, Note_off_c, 10, 57, 127
2, 388834, Note_off_c, 0, 72, 127
2, 388836, Note_on_c, 12, 71, 127
2, 388836, Note_on_c, 12, 59, 127
2, 389173, Note_off_c, 10, 69, 127
2, 389178, Note_off_c, 12, 59, 127
2, 389178, Note_off_c, 12, 71, 127
2, 389180, Note_on_c, 4, 64, 127
2, 389180, Note_on_c, 10, 69, 127
2, 389180, Note_on_c, 0, 60, 127
2, 389522, Note_off_c, 0, 60, 127
2, 389524, Note_on_c, 12, 59, 127
2, 389682, Note_off_c, 4, 64, 127
2, 389754, Note_off_c, 10, 69, 127
2, 389867, Note_off_c, 12, 59, 127
2, 389867, Note_off_c, 10, 45, 127
2, 389869, Note_on_c, 10, 69, 127
2, 389869, Note_on_c, 6, 78, 127
2, 389869, Note_on_c, 0, 48, 127
2, 389869, Note_on_c, 10, 57, 127
2, 390211, Note_off_c, 0, 48, 127
2, 390211, Note_off_c, 6, 78, 127
2, 390213, Note_on_c, 7, 79, 127
2, 390213, Note_on_c, 12, 47, 127
2, 390555, Note_off_c, 12, 47, 127
2, 390555, Note_off_c, 7, 79, 127
2, 390557, Note_on_c, 10, 81, 127
2, 390557, Note_on_c, 0, 48, 127
2, 390899, Note_off_c, 0, 48, 127
2, 390899, Note_off_c, 10, 81, 127
2, 390899, Note_off_c, 10, 69, 127
2, 390901, Note_on_c, 6, 78, 127
2, 390901, Note_on_c, 0, 72, 127
2, 390901, Note_on_c, 10, 45, 127
2, 391243, Note_off_c, 10, 45, 127
2, 391243, Note_off_c, 0, 72, 127
2, 391243, Note_off_c, 6, 78, 127
2, 391243, Note_off_c, 10, 57, 127
2, 391245, Note_on_c, 3, 75, 127
2, 391245, Note_on_c, 12, 71, 127
2, 391245, Note_on_c, 12, 47, 127
2, 391245, Note_on_c, 6, 54, 127
2, 391587, Note_off_c, 3, 75, 127
2, 391589, Note_on_c, 4, 76, 127
2, 391931, Note_off_c, 4, 76, 127
2, 391931, Note_off_c, 6, 54, 127
2, 391931, Note_off_c, 12, 47, 127
2, 391933, Note_on_c, 6, 78, 127
2, 391933, Note_on_c, 10, 57, 127
2, 391933, Note_on_c, 3, 63, 127
2, 392275, Note_off_c, 6, 78, 127
2, 392275, Note_off_c, 12, 71, 127
2, 392277, Note_on_c, 12, 71, 127
2, 392619, Note_off_c, 3, 63, 127
2, 392619, Note_off_c, 10, 57, 127
2, 392621, Note_on_c, 4, 76, 127
2, 392621, Note_on_c, 7, 55, 127
2, 392621, Note_on_c, 4, 64, 127
2, 392958, Note_off_c, 12, 71, 127
2, 392963, Note_off_c, 7, 55, 127
2, 392963, Note_off_c, 4, 76, 127
2, 392965, Note_on_c, 0, 72, 127
2, 392965, Note_on_c, 6, 78, 127
2, 392965, Note_on_c, 10, 57, 127
2, 393302, Note_off_c, 4, 64, 127
2, 393307, Note_off_c, 10, 57, 127
2, 393307, Note_off_c, 6, 78, 127
2, 393307, Note_off_c, 0, 72, 127
2, 393309, Note_on_c, 12, 71, 127
2, 393309, Note_on_c, 7, 79, 127
2, 393309, Note_on_c, 12, 59, 127
2, 393309, Note_on_c, 3, 63, 127
2, 393395, Note_off_c, 7, 79, 127
2, 393395, Note_on_c, 6, 78, 127
2, 393481, Note_off_c, 6, 78, 127
2, 393481, Note_on_c, 7, 79, 127
2, 393567, Note_off_c, 7, 79, 127
2, 393567, Note_on_c, 6, 78, 127
2, 393651, Note_off_c, 12, 71, 127
2, 393653, Note_on_c, 10, 69, 127
2, 393872, Note_off_c, 6, 78, 127
2, 393876, Note_on_c, 4, 76, 127
2, 393996, Note_off_c, 3, 63, 127
2, 393996, Note_off_c, 12, 59, 127
2, 393998, Note_off_c, 4, 76, 127
2, 393998, Note_on_c, 4, 76, 127
2, 393998, Note_on_c, 4, 52, 127
2, 393998, Note_on_c, 4, 64, 127
2, 394335, Note_off_c, 10, 69, 127
2, 394342, Note_on_c, 10, 69, 127
2, 394684, Note_off_c, 10, 69, 127
2, 394684, Note_off_c, 4, 64, 127
2, 394686, Note_on_c, 8, 68, 127
2, 394686, Note_on_c, 4, 40, 127
2, 395259, Note_off_c, 8, 68, 127
2, 395372, Note_off_c, 4, 40, 127
2, 395372, Note_off_c, 4, 76, 127
2, 395374, Note_on_c, 0, 72, 127
2, 395374, Note_on_c, 7, 67, 127
2, 395374, Note_on_c, 4, 64, 127
2, 395374, Note_on_c, 0, 60, 127
2, 395376, Note_off_c, 4, 52, 127
2, 395716, Note_off_c, 0, 72, 127
2, 395718, Note_on_c, 2, 74, 127
2, 396060, Note_off_c, 2, 74, 127
2, 396060, Note_off_c, 0, 60, 127
2, 396062, Note_on_c, 4, 76, 127
2, 396062, Note_on_c, 0, 48, 127
2, 396404, Note_off_c, 0, 48, 127
2, 396404, Note_off_c, 4, 76, 127
2, 396406, Note_on_c, 5, 77, 127
2, 396406, Note_on_c, 2, 50, 127
2, 396748, Note_off_c, 2, 50, 127
2, 396748, Note_off_c, 5, 77, 127
2, 396750, Note_on_c, 7, 79, 127
2, 396750, Note_on_c, 4, 52, 127
2, 397092, Note_off_c, 4, 52, 127
2, 397094, Note_on_c, 5, 53, 127
2, 397359, Note_off_c, 7, 79, 127
2, 397434, Note_off_c, 4, 64, 127
2, 397436, Note_off_c, 5, 53, 127
2, 397438, Note_on_c, 12, 71, 127
2, 397438, Note_on_c, 7, 55, 127
2, 397438, Note_on_c, 2, 62, 127
2, 398115, Note_off_c, 7, 67, 127
2, 398124, Note_off_c, 2, 62, 127
2, 398124, Note_off_c, 7, 55, 127
2, 398124, Note_off_c, 12, 71, 127
2, 398126, Note_on_c, 12, 71, 127
2, 398126, Note_on_c, 4, 76, 127
2, 398126, Note_on_c, 4, 64, 127
2, 398126, Note_on_c, 7, 67, 127
2, 398468, Note_off_c, 4, 76, 127
2, 398470, Note_on_c, 6, 78, 127
2, 398812, Note_off_c, 6, 78, 127
2, 398812, Note_off_c, 4, 64, 127
2, 398814, Note_on_c, 7, 79, 127
2, 398814, Note_on_c, 4, 52, 127
2, 399156, Note_off_c, 4, 52, 127
2, 399156, Note_off_c, 7, 79, 127
2, 399158, Note_on_c, 10, 81, 127
2, 399158, Note_on_c, 6, 54, 127
2, 399500, Note_off_c, 6, 54, 127
2, 399500, Note_off_c, 10, 81, 127
2, 399502, Note_on_c, 12, 83, 127
2, 399502, Note_on_c, 7, 55, 127
2, 399844, Note_off_c, 7, 55, 127
2, 399846, Note_on_c, 10, 57, 127
2, 400111, Note_off_c, 12, 83, 127
2, 400186, Note_off_c, 7, 67, 127
2, 400188, Note_off_c, 10, 57, 127
2, 400190, Note_on_c, 3, 75, 127
2, 400190, Note_on_c, 12, 59, 127
2, 400190, Note_on_c, 6, 66, 127
2, 400867, Note_off_c, 12, 71, 127
2, 400876, Note_off_c, 6, 66, 127
2, 400876, Note_off_c, 12, 59, 127
2, 400876, Note_off_c, 3, 75, 127
2, 400878, Note_on_c, 12, 71, 127
2, 400878, Note_on_c, 2, 74, 127
2, 400878, Note_on_c, 7, 67, 127
2, 400878, Note_on_c, 7, 55, 127
2, 401220, Note_off_c, 2, 74, 127
2, 401222, Note_on_c, 1, 73, 127
2, 401564, Note_off_c, 1, 73, 127
2, 401564, Note_off_c, 7, 67, 127
2, 401566, Note_on_c, 2, 74, 127
2, 401566, Note_on_c, 5, 65, 127
2, 401908, Note_off_c, 2, 74, 127
2, 401910, Note_on_c, 4, 76, 127
2, 402252, Note_off_c, 4, 76, 127
2, 402252, Note_off_c, 5, 65, 127
2, 402252, Note_off_c, 12, 71, 127
2, 402254, Note_on_c, 10, 69, 127
2, 402254, Note_on_c, 1, 73, 127
2, 402254, Note_on_c, 4, 64, 127
2, 402596, Note_off_c, 1, 73, 127
2, 402596, Note_off_c, 10, 69, 127
2, 402598, Note_on_c, 10, 69, 127
2, 402938, Note_off_c, 7, 55, 127
2, 402940, Note_off_c, 10, 69, 127
2, 402940, Note_off_c, 4, 64, 127
2, 402942, Note_on_c, 12, 71, 127
2, 402942, Note_on_c, 2, 74, 127
2, 402942, Note_on_c, 8, 56, 127
2, 402942, Note_on_c, 5, 65, 127
2, 403284, Note_off_c, 5, 65, 127
2, 403286, Note_on_c, 4, 64, 127
2, 403623, Note_off_c, 8, 56, 127
2, 403628, Note_off_c, 4, 64, 127
2, 403628, Note_off_c, 2, 74, 127
2, 403628, Note_off_c, 12, 71, 127
2, 403630, Note_on_c, 10, 69, 127
2, 403630, Note_on_c, 5, 65, 127
2, 403630, Note_on_c, 10, 57, 127
2, 403802, Note_on_c, 1, 73, 127
2, 403972, Note_off_c, 1, 73, 127
2, 403972, Note_off_c, 5, 65, 127
2, 403974, Note_on_c, 2, 74, 127
2, 403974, Note_on_c, 2, 62, 127
2, 404144, Note_off_c, 2, 74, 127
2, 404146, Note_on_c, 4, 76, 127
2, 404316, Note_off_c, 4, 76, 127
2, 404316, Note_off_c, 2, 62, 127
2, 404318, Note_on_c, 5, 77, 127
2, 404318, Note_on_c, 1, 61, 127
2, 404404, Note_off_c, 5, 77, 127
2, 404404, Note_on_c, 4, 76, 127
2, 404490, Note_off_c, 4, 76, 127
2, 404490, Note_on_c, 5, 77, 127
2, 404576, Note_off_c, 5, 77, 127
2, 404576, Note_on_c, 4, 76, 127
2, 404660, Note_off_c, 10, 69, 127
2, 404662, Note_on_c, 7, 67, 127
2, 404834, Note_off_c, 4, 76, 127
2, 404834, Note_on_c, 2, 74, 127
2, 405004, Note_off_c, 2, 74, 127
2, 405004, Note_off_c, 1, 61, 127
2, 405004, Note_off_c, 10, 57, 127
2, 405006, Note_on_c, 2, 74, 127
2, 405006, Note_on_c, 2, 50, 127
2, 405006, Note_on_c, 2, 62, 127
2, 405343, Note_off_c, 7, 67, 127
2, 405350, Note_on_c, 7, 67, 127
2, 405692, Note_off_c, 7, 67, 127
2, 405692, Note_off_c, 2, 62, 127
2, 405694, Note_on_c, 6, 66, 127
2, 405694, Note_on_c, 2, 38, 127
2, 406333, Note_off_c, 2, 50, 127
2, 406375, Note_off_c, 6, 66, 127
2, 406380, Note_off_c, 2, 38, 127
2, 406380, Note_off_c, 2, 74, 127
2, 406382, Note_on_c, 5, 77, 127
2, 406382, Note_on_c, 10, 69, 127
2, 406382, Note_on_c, 2, 62, 127
2, 406382, Note_on_c, 2, 50, 127
2, 406724, Note_off_c, 2, 50, 127
2, 406724, Note_off_c, 5, 77, 127
2, 406726, Note_on_c, 7, 79, 127
2, 406726, Note_on_c, 4, 52, 127
2, 407063, Note_off_c, 2, 62, 127
2, 407068, Note_off_c, 4, 52, 127
2, 407068, Note_off_c, 7, 79, 127
2, 407070, Note_on_c, 10, 81, 127
2, 407070, Note_on_c, 0, 60, 127
2, 407070, Note_on_c, 6, 54, 127
2, 407412, Note_off_c, 6, 54, 127
2, 407412, Note_off_c, 0, 60, 127
2, 407412, Note_off_c, 10, 81, 127
2, 407412, Note_off_c, 10, 69, 127
2, 407414, Note_on_c, 2, 74, 127
2, 407414, Note_on_c, 7, 67, 127
2, 407414, Note_on_c, 7, 55, 127
2, 407414, Note_on_c, 11, 58, 127
2, 407756, Note_off_c, 11, 58, 127
2, 407756, Note_off_c, 7, 55, 127
2, 407756, Note_off_c, 7, 67, 127
2, 407756, Note_off_c, 2, 74, 127
2, 407758, Note_on_c, 4, 64, 127
2, 407758, Note_on_c, 1, 73, 127
2, 407758, Note_on_c, 10, 57, 127
2, 408100, Note_off_c, 10, 57, 127
2, 408102, Note_on_c, 12, 59, 127
2, 408272, Note_off_c, 1, 73, 127
2, 408274, Note_on_c, 12, 71, 127
2, 408444, Note_off_c, 12, 71, 127
2, 408444, Note_off_c, 12, 59, 127
2, 408446, Note_on_c, 10, 69, 127
2, 408446, Note_on_c, 10, 45, 127
2, 408446, Note_on_c, 1, 61, 127
2, 409132, Note_off_c, 1, 61, 127
2, 409132, Note_off_c, 10, 45, 127
2, 409132, Note_off_c, 10, 69, 127
2, 409132, Note_off_c, 4, 64, 127
2, 409134, Note_on_c, 4, 64, 127
2, 409134, Note_on_c, 0, 72, 127
2, 409134, Note_on_c, 10, 57, 127
2, 409134, Note_on_c, 10, 45, 127
2, 409476, Note_off_c, 10, 45, 127
2, 409476, Note_off_c, 0, 72, 127
2, 409478, Note_on_c, 2, 74, 127
2, 409478, Note_on_c, 12, 47, 127
2, 409815, Note_off_c, 10, 57, 127
2, 409820, Note_off_c, 12, 47, 127
2, 409820, Note_off_c, 2, 74, 127
2, 409822, Note_on_c, 4, 76, 127
2, 409822, Note_on_c, 1, 49, 127
2, 409822, Note_on_c, 7, 55, 127
2, 410164, Note_off_c, 7, 55, 127
2, 410164, Note_off_c, 1, 49, 127
2, 410164, Note_off_c, 4, 76, 127
2, 410164, Note_off_c, 4, 64, 127
2, 410166, Note_on_c, 10, 69, 127
2, 410166, Note_on_c, 5, 53, 127
2, 410166, Note_on_c, 2, 50, 127
2, 410508, Note_off_c, 2, 50, 127
2, 410508, Note_off_c, 5, 53, 127
2, 410508, Note_off_c, 10, 69, 127
2, 410510, Note_on_c, 8, 68, 127
2, 410510, Note_on_c, 12, 59, 127
2, 410510, Note_on_c, 4, 52, 127
2, 410852, Note_off_c, 4, 52, 127
2, 410854, Note_on_c, 6, 54, 127
2, 411024, Note_off_c, 8, 68, 127
2, 411026, Note_on_c, 6, 66, 127
2, 411196, Note_off_c, 6, 66, 127
2, 411196, Note_off_c, 6, 54, 127
2, 411198, Note_on_c, 4, 64, 127
2, 411198, Note_on_c, 8, 56, 127
2, 411198, Note_on_c, 4, 40, 127
2, 411771, Note_off_c, 8, 56, 127
2, 411884, Note_off_c, 4, 40, 127
2, 411884, Note_off_c, 4, 64, 127
2, 411884, Note_off_c, 12, 59, 127
2, 411886, Note_on_c, 11, 70, 127
2, 411886, Note_on_c, 5, 65, 127
2, 411886, Note_on_c, 2, 50, 127
2, 411886, Note_on_c, 5, 53, 127
2, 412239, Note_off_c, 11, 70, 127
2, 412241, Note_on_c, 0, 72, 127
2, 412594, Note_off_c, 0, 72, 127
2, 412594, Note_off_c, 5, 53, 127
2, 412596, Note_on_c, 2, 74, 127
2, 412596, Note_on_c, 11, 58, 127
2, 412949, Note_off_c, 2, 74, 127
2, 412951, Note_on_c, 11, 70, 127
2, 413304, Note_off_c, 11, 70, 127
2, 413304, Note_off_c, 11, 58, 127
2, 413304, Note_off_c, 5, 65, 127
2, 413306, Note_on_c, 4, 64, 127
2, 413306, Note_on_c, 8, 68, 127
2, 413306, Note_on_c, 12, 59, 127
2, 413670, Note_off_c, 4, 64, 127
2, 413672, Note_on_c, 4, 64, 127
2, 414030, Note_off_c, 8, 68, 127
2, 414034, Note_off_c, 2, 50, 127
2, 414036, Note_off_c, 4, 64, 127
2, 414036, Note_off_c, 12, 59, 127
2, 414038, Note_on_c, 6, 66, 127
2, 414038, Note_on_c, 10, 69, 127
2, 414038, Note_on_c, 0, 60, 127
2, 414038, Note_on_c, 3, 51, 127
2, 414402, Note_off_c, 0, 60, 127
2, 414404, Note_on_c, 12, 59, 127
2, 414762, Note_off_c, 3, 51, 127
2, 414768, Note_off_c, 12, 59, 127
2, 414768, Note_off_c, 6, 66, 127
2, 414770, Note_on_c, 4, 64, 127
2, 414770, Note_on_c, 4, 52, 127
2, 414770, Note_on_c, 0, 60, 127
2, 414962, Note_off_c, 10, 69, 127
2, 414962, Note_on_c, 12, 71, 127
2, 415152, Note_off_c, 12, 71, 127
2, 415152, Note_off_c, 0, 60, 127
2, 415154, Note_on_c, 0, 72, 127
2, 415154, Note_on_c, 10, 57, 127
2, 415280, Note_off_c, 0, 72, 127
2, 415282, Note_on_c, 12, 71, 127
2, 415408, Note_off_c, 12, 71, 127
2, 415410, Note_on_c, 10, 69, 127
2, 415530, Note_off_c, 4, 52, 127
2, 415536, Note_off_c, 10, 69, 127
2, 415536, Note_off_c, 10, 57, 127
2, 415538, Note_on_c, 10, 69, 127
2, 415538, Note_on_c, 12, 59, 127
2, 415538, Note_on_c, 4, 40, 127
2, 415730, Note_off_c, 10, 69, 127
2, 415730, Note_on_c, 8, 68, 127
2, 415826, Note_off_c, 8, 68, 127
2, 415826, Note_on_c, 10, 69, 127
2, 415920, Note_off_c, 12, 59, 127
2, 415922, Note_off_c, 10, 69, 127
2, 415922, Note_on_c, 8, 68, 127
2, 415922, Note_on_c, 1, 61, 127
2, 416112, Note_off_c, 1, 61, 127
2, 416134, Note_off_c, 8, 68, 127
2, 416146, Note_on_c, 2, 62, 127
2, 416146, Note_on_c, 10, 69, 127
2, 416336, Note_off_c, 2, 62, 127
2, 416376, Note_off_c, 10, 69, 127
2, 416378, Note_off_c, 4, 40, 127
2, 416386, Note_on_c, 10, 69, 127
2, 416386, Note_on_c, 1, 61, 127
2, 416386, Note_on_c, 10, 45, 127
2, 417830, Note_off_c, 4, 64, 127
2, 417842, Note_off_c, 10, 45, 127
2, 417842, Note_off_c, 1, 61, 127
2, 417842, Note_off_c, 10, 69, 127
2, 417938, Note_on_c, 10, 57, 127
2, 417938, Note_on_c, 0, 60, 127
2, 417938, Note_on_c, 4, 64, 127
2, 417938, Note_on_c, 10, 69, 127
2, 418338, Note_off_c, 10, 69, 127
2, 418340, Note_off_c, 0, 60, 127
2, 418342, Note_on_c, 12, 59, 127
2, 418342, Note_on_c, 8, 68, 127
2, 418738, Note_off_c, 4, 64, 127
2, 418738, Note_off_c, 10, 57, 127
2, 418744, Note_off_c, 8, 68, 127
2, 418744, Note_off_c, 12, 59, 127
2, 418746, Note_on_c, 10, 45, 127
2, 418746, Note_on_c, 0, 60, 127
2, 418746, Note_on_c, 10, 69, 127
2, 418746, Note_on_c, 4, 64, 127
2, 419146, Note_off_c, 10, 69, 127
2, 419148, Note_off_c, 0, 60, 127
2, 419150, Note_on_c, 2, 62, 127
2, 419150, Note_on_c, 12, 71, 127
2, 419546, Note_off_c, 4, 64, 127
2, 419546, Note_off_c, 10, 45, 127
2, 419550, Note_off_c, 12, 71, 127
2, 419550, Note_off_c, 2, 62, 127
2, 419554, Note_on_c, 4, 52, 127
2, 419554, Note_on_c, 12, 59, 127
2, 419554, Note_on_c, 10, 69, 127
2, 419554, Note_on_c, 4, 64, 127
2, 419954, Note_off_c, 10, 69, 127
2, 419958, Note_on_c, 8, 68, 127
2, 420158, Note_off_c, 8, 68, 127
2, 420160, Note_on_c, 6, 66, 127
2, 420354, Note_off_c, 4, 64, 127
2, 420360, Note_off_c, 6, 66, 127
2, 420360, Note_off_c, 12, 59, 127
2, 420362, Note_on_c, 8, 56, 127
2, 420362, Note_on_c, 12, 59, 127
2, 420362, Note_on_c, 4, 64, 127
2, 420764, Note_off_c, 4, 52, 127
2, 420766, Note_on_c, 2, 50, 127
2, 420951, Note_off_c, 4, 64, 127
2, 420951, Note_off_c, 12, 59, 127
2, 421140, Note_off_c, 8, 56, 127
2, 421167, Note_off_c, 2, 50, 127
2, 421169, Note_on_c, 0, 48, 127
2, 421169, Note_on_c, 10, 57, 127
2, 421169, Note_on_c, 10, 69, 127
2, 421169, Note_on_c, 4, 64, 127
2, 421975, Note_off_c, 4, 64, 127
2, 421975, Note_off_c, 10, 69, 127
2, 421975, Note_off_c, 10, 57, 127
2, 421975, Note_off_c, 0, 48, 127
2, 421977, Note_on_c, 8, 44, 127
2, 421977, Note_on_c, 4, 52, 127
2, 421977, Note_on_c, 2, 62, 127
2, 421977, Note_on_c, 10, 69, 127
2, 422377, Note_off_c, 10, 69, 127
2, 422381, Note_on_c, 12, 71, 127
2, 422777, Note_off_c, 2, 62, 127
2, 422781, Note_off_c, 12, 71, 127
2, 422783, Note_off_c, 4, 52, 127
2, 422783, Note_off_c, 8, 44, 127
2, 422785, Note_on_c, 10, 45, 127
2, 422785, Note_on_c, 10, 57, 127
2, 422785, Note_on_c, 4, 52, 127
2, 422785, Note_on_c, 0, 60, 127
2, 422785, Note_on_c, 2, 74, 127
2, 422985, Note_off_c, 2, 74, 127
2, 422987, Note_on_c, 0, 72, 127
2, 423187, Note_off_c, 0, 72, 127
2, 423189, Note_on_c, 12, 71, 127
2, 423458, Note_off_c, 12, 71, 127
2, 423458, Note_on_c, 10, 69, 127
2, 423584, Note_off_c, 0, 60, 127
2, 423588, Note_off_c, 10, 69, 127
2, 423590, Note_off_c, 4, 52, 127
2, 423590, Note_off_c, 10, 57, 127
2, 423590, Note_off_c, 10, 45, 127
2, 423592, Note_on_c, 10, 57, 127
2, 423592, Note_on_c, 0, 60, 127
2, 423592, Note_on_c, 4, 64, 127
2, 423592, Note_on_c, 10, 69, 127
2, 423994, Note_off_c, 10, 57, 127
2, 423996, Note_on_c, 12, 59, 127
2, 424265, Note_off_c, 10, 69, 127
2, 424265, Note_off_c, 4, 64, 127
2, 424391, Note_off_c, 0, 60, 127
2, 424397, Note_off_c, 12, 59, 127
2, 424399, Note_on_c, 3, 63, 127
2, 424399, Note_on_c, 0, 60, 127
2, 424399, Note_on_c, 6, 78, 127
2, 424399, Note_on_c, 10, 69, 127
2, 424988, Note_off_c, 6, 78, 127
2, 425005, Note_on_c, 7, 79, 127
2, 425205, Note_off_c, 7, 79, 127
2, 425205, Note_off_c, 3, 63, 127
2, 425207, Note_on_c, 4, 64, 127
2, 425207, Note_on_c, 7, 79, 127
2, 425609, Note_off_c, 0, 60, 127
2, 425611, Note_on_c, 12, 59, 127
2, 425796, Note_off_c, 7, 79, 127
2, 425811, Note_off_c, 12, 59, 127
2, 425813, Note_on_c, 10, 57, 127
2, 425813, Note_on_c, 10, 81, 127
2, 426007, Note_off_c, 4, 64, 127
2, 426013, Note_off_c, 10, 81, 127
2, 426013, Note_off_c, 10, 57, 127
2, 426013, Note_off_c, 10, 69, 127
2, 426015, Note_on_c, 12, 59, 127
2, 426015, Note_on_c, 6, 78, 127
2, 426015, Note_on_c, 6, 66, 127
2, 426236, Note_off_c, 6, 78, 127
2, 426238, Note_on_c, 4, 76, 127
2, 426417, Note_off_c, 4, 76, 127
2, 426419, Note_on_c, 10, 57, 127
2, 426419, Note_on_c, 3, 75, 127
2, 426619, Note_off_c, 3, 75, 127
2, 426621, Note_on_c, 12, 71, 127
2, 426815, Note_off_c, 6, 66, 127
2, 426821, Note_off_c, 12, 71, 127
2, 426821, Note_off_c, 10, 57, 127
2, 426823, Note_on_c, 7, 55, 127
2, 426823, Note_on_c, 4, 64, 127
2, 426823, Note_on_c, 4, 76, 127
2, 427225, Note_off_c, 7, 55, 127
2, 427227, Note_on_c, 10, 57, 127
2, 427412, Note_off_c, 4, 76, 127
2, 427429, Note_on_c, 7, 67, 127
2, 427629, Note_off_c, 7, 67, 127
2, 427629, Note_off_c, 10, 57, 127
2, 427629, Note_off_c, 12, 59, 127
2, 427631, Note_on_c, 12, 59, 127
2, 427631, Note_on_c, 7, 67, 127
2, 427831, Note_off_c, 7, 67, 127
2, 427833, Note_on_c, 6, 66, 127
2, 427932, Note_off_c, 6, 66, 127
2, 427934, Note_on_c, 7, 67, 127
2, 428033, Note_off_c, 7, 67, 127
2, 428035, Note_on_c, 6, 66, 127
2, 428134, Note_off_c, 6, 66, 127
2, 428136, Note_on_c, 7, 67, 127
2, 428235, Note_off_c, 7, 67, 127
2, 428237, Note_on_c, 6, 66, 127
2, 428437, Note_off_c, 12, 59, 127
2, 428437, Note_off_c, 4, 64, 127
2, 428439, Note_on_c, 6, 54, 127
2, 428439, Note_on_c, 12, 47, 127
2, 428439, Note_on_c, 3, 63, 127
2, 428826, Note_off_c, 6, 66, 127
2, 428841, Note_off_c, 3, 63, 127
2, 428841, Note_off_c, 6, 54, 127
2, 428843, Note_on_c, 8, 56, 127
2, 428843, Note_on_c, 4, 64, 127
2, 429043, Note_off_c, 8, 56, 127
2, 429045, Note_on_c, 10, 57, 127
2, 429239, Note_off_c, 12, 47, 127
2, 429245, Note_off_c, 4, 64, 127
2, 429247, Note_on_c, 4, 52, 127
2, 429247, Note_on_c, 4, 64, 127
2, 429634, Note_off_c, 10, 57, 127
2, 429651, Note_on_c, 8, 56, 127
2, 429836, Note_off_c, 4, 64, 127
2, 429851, Note_off_c, 8, 56, 127
2, 429853, Note_on_c, 6, 54, 127
2, 430047, Note_off_c, 4, 52, 127
2, 430048, Note_off_c, 6, 54, 127
2, 430055, Note_on_c, 4, 40, 127
2, 430055, Note_on_c, 8, 56, 127
2, 430055, Note_on_c, 12, 59, 127
2, 430771, Note_off_c, 12, 59, 127
2, 430813, Note_off_c, 8, 56, 127
2, 430813, Note_off_c, 4, 40, 127
2, 430864, Note_on_c, 0, 48, 127
2, 430864, Note_on_c, 7, 55, 127
2, 430864, Note_on_c, 4, 64, 127
2, 430864, Note_on_c, 12, 71, 127
2, 431064, Note_off_c, 12, 71, 127
2, 431066, Note_on_c, 0, 72, 127
2, 431264, Note_off_c, 4, 64, 127
2, 431266, Note_off_c, 0, 72, 127
2, 431268, Note_on_c, 2, 62, 127
2, 431268, Note_on_c, 0, 72, 127
2, 431468, Note_off_c, 0, 72, 127
2, 431470, Note_on_c, 12, 71, 127
2, 431564, Note_off_c, 7, 55, 127
2, 431668, Note_off_c, 2, 62, 127
2, 431670, Note_off_c, 12, 71, 127
2, 431672, Note_on_c, 0, 36, 127
2, 431672, Note_on_c, 4, 64, 127
2, 431672, Note_on_c, 12, 71, 127
2, 431872, Note_off_c, 12, 71, 127
2, 431874, Note_on_c, 0, 72, 127
2, 432072, Note_off_c, 4, 64, 127
2, 432074, Note_off_c, 0, 72, 127
2, 432076, Note_on_c, 5, 65, 127
2, 432076, Note_on_c, 0, 72, 127
2, 432276, Note_off_c, 0, 72, 127
2, 432278, Note_on_c, 2, 74, 127
2, 432464, Note_off_c, 0, 48, 127
2, 432476, Note_off_c, 5, 65, 127
2, 432478, Note_off_c, 2, 74, 127
2, 432478, Note_off_c, 0, 36, 127
2, 432480, Note_on_c, 7, 55, 127
2, 432480, Note_on_c, 0, 72, 127
2, 432480, Note_on_c, 2, 62, 127
2, 432680, Note_off_c, 0, 72, 127
2, 432682, Note_on_c, 12, 71, 127
2, 432884, Note_on_c, 10, 57, 127
2, 433082, Note_off_c, 12, 71, 127
2, 433086, Note_on_c, 10, 69, 127
2, 433286, Note_off_c, 10, 69, 127
2, 433286, Note_off_c, 10, 57, 127
2, 433288, Note_on_c, 12, 59, 127
2, 433288, Note_on_c, 7, 67, 127
2, 433690, Note_off_c, 7, 55, 127
2, 433692, Note_on_c, 6, 54, 127
2, 434088, Note_off_c, 12, 59, 127
2, 434094, Note_off_c, 6, 54, 127
2, 434094, Note_off_c, 7, 67, 127
2, 434094, Note_off_c, 2, 62, 127
2, 434096, Note_on_c, 4, 52, 127
2, 434096, Note_on_c, 12, 59, 127
2, 434096, Note_on_c, 7, 67, 127
2, 434096, Note_on_c, 3, 75, 127
2, 434296, Note_off_c, 3, 75, 127
2, 434298, Note_on_c, 4, 76, 127
2, 434496, Note_off_c, 7, 67, 127
2, 434498, Note_off_c, 4, 76, 127
2, 434500, Note_on_c, 6, 66, 127
2, 434500, Note_on_c, 4, 76, 127
2, 434700, Note_off_c, 4, 76, 127
2, 434702, Note_on_c, 3, 75, 127
2, 434796, Note_off_c, 12, 59, 127
2, 434900, Note_off_c, 6, 66, 127
2, 434902, Note_off_c, 3, 75, 127
2, 434904, Note_on_c, 4, 40, 127
2, 434904, Note_on_c, 3, 75, 127
2, 434904, Note_on_c, 7, 67, 127
2, 435104, Note_off_c, 3, 75, 127
2, 435106, Note_on_c, 4, 76, 127
2, 435304, Note_off_c, 7, 67, 127
2, 435306, Note_off_c, 4, 76, 127
2, 435308, Note_on_c, 10, 69, 127
2, 435308, Note_on_c, 4, 76, 127
2, 435508, Note_off_c, 4, 76, 127
2, 435510, Note_on_c, 6, 78, 127
2, 435696, Note_off_c, 4, 52, 127
2, 435708, Note_off_c, 10, 69, 127
2, 435710, Note_off_c, 6, 78, 127
2, 435710, Note_off_c, 4, 40, 127
2, 435712, Note_on_c, 12, 59, 127
2, 435712, Note_on_c, 6, 66, 127
2, 435712, Note_on_c, 4, 76, 127
2, 435914, Note_off_c, 4, 76, 127
2, 435914, Note_on_c, 3, 75, 127
2, 436116, Note_on_c, 1, 61, 127
2, 436314, Note_off_c, 3, 75, 127
2, 436318, Note_on_c, 1, 73, 127
2, 436518, Note_off_c, 1, 73, 127
2, 436518, Note_off_c, 1, 61, 127
2, 436520, Note_on_c, 3, 63, 127
2, 436520, Note_on_c, 12, 71, 127
2, 436922, Note_off_c, 12, 59, 127
2, 436924, Note_on_c, 10, 57, 127
2, 437193, Note_off_c, 12, 71, 127
2, 437269, Note_off_c, 6, 66, 127
2, 437320, Note_off_c, 3, 63, 127
2, 437326, Note_off_c, 10, 57, 127
2, 437328, Note_on_c, 12, 59, 127
2, 437328, Note_on_c, 8, 56, 127
2, 437328, Note_on_c, 4, 64, 127
2, 437328, Note_on_c, 2, 74, 127
2, 437728, Note_off_c, 2, 74, 127
2, 437732, Note_on_c, 1, 73, 127
2, 438134, Note_off_c, 1, 73, 127
2, 438134, Note_off_c, 8, 56, 127
2, 438136, Note_on_c, 4, 52, 127
2, 438136, Note_on_c, 2, 74, 127
2, 438136, Note_on_c, 8, 68, 127
2, 438536, Note_off_c, 2, 74, 127
2, 438540, Note_on_c, 4, 76, 127
2, 438936, Note_off_c, 8, 68, 127
2, 438942, Note_off_c, 4, 76, 127
2, 438942, Note_off_c, 4, 52, 127
2, 438942, Note_off_c, 4, 64, 127
2, 438942, Note_off_c, 12, 59, 127
2, 438944, Note_on_c, 10, 57, 127
2, 438944, Note_on_c, 10, 69, 127
2, 438944, Note_on_c, 4, 64, 127
2, 438944, Note_on_c, 1, 73, 127
2, 439346, Note_off_c, 10, 57, 127
2, 439348, Note_on_c, 7, 55, 127
2, 439750, Note_off_c, 7, 55, 127
2, 439750, Note_off_c, 1, 73, 127
2, 439750, Note_off_c, 4, 64, 127
2, 439750, Note_off_c, 10, 69, 127
2, 439752, Note_on_c, 5, 53, 127
2, 439752, Note_on_c, 2, 74, 127
2, 439752, Note_on_c, 2, 62, 127
2, 440154, Note_off_c, 5, 53, 127
2, 440156, Note_on_c, 2, 50, 127
2, 440341, Note_off_c, 2, 74, 127
2, 440358, Note_on_c, 5, 65, 127
2, 440558, Note_off_c, 5, 65, 127
2, 440558, Note_off_c, 2, 50, 127
2, 440560, Note_on_c, 11, 58, 127
2, 440560, Note_on_c, 7, 43, 127
2, 440560, Note_on_c, 5, 65, 127
2, 440760, Note_off_c, 5, 65, 127
2, 440762, Note_on_c, 4, 64, 127
2, 440829, Note_off_c, 4, 64, 127
2, 440829, Note_on_c, 5, 65, 127
2, 440896, Note_off_c, 5, 65, 127
2, 440896, Note_on_c, 4, 64, 127
2, 440961, Note_off_c, 7, 43, 127
2, 440961, Note_off_c, 11, 58, 127
2, 440963, Note_off_c, 4, 64, 127
2, 440963, Note_on_c, 10, 57, 127
2, 440963, Note_on_c, 11, 46, 127
2, 440963, Note_on_c, 5, 65, 127
2, 441030, Note_off_c, 5, 65, 127
2, 441030, Note_on_c, 4, 64, 127
2, 441163, Note_off_c, 10, 57, 127
2, 441165, Note_on_c, 7, 55, 127
2, 441350, Note_off_c, 2, 62, 127
2, 441363, Note_off_c, 11, 46, 127
2, 441365, Note_off_c, 7, 55, 127
2, 441367, Note_on_c, 10, 45, 127
2, 441367, Note_on_c, 10, 57, 127
2, 441367, Note_on_c, 1, 61, 127
2, 441769, Note_off_c, 10, 57, 127
2, 441771, Note_on_c, 4, 52, 127
2, 441971, Note_off_c, 4, 52, 127
2, 441973, Note_on_c, 7, 55, 127
2, 442040, Note_off_c, 4, 64, 127
2, 442166, Note_off_c, 1, 61, 127
2, 442166, Note_off_c, 10, 45, 127
2, 442174, Note_on_c, 2, 50, 127
2, 442174, Note_on_c, 2, 62, 127
2, 442561, Note_off_c, 7, 55, 127
2, 442578, Note_on_c, 6, 54, 127
2, 442778, Note_off_c, 6, 54, 127
2, 442780, Note_on_c, 4, 52, 127
2, 442974, Note_off_c, 2, 50, 127
2, 442980, Note_off_c, 4, 52, 127
2, 442982, Note_on_c, 2, 38, 127
2, 442982, Note_on_c, 6, 54, 127
2, 442982, Note_on_c, 10, 57, 127
2, 443384, Note_off_c, 2, 62, 127
2, 443571, Note_off_c, 10, 57, 127
2, 443788, Note_off_c, 6, 54, 127
2, 443788, Note_off_c, 2, 38, 127
2, 443806, Note_on_c, 2, 62, 127
2, 443806, Note_on_c, 10, 69, 127
2, 443806, Note_on_c, 5, 77, 127
2, 443806, Note_on_c, 10, 57, 127
2, 443806, Note_on_c, 2, 50, 127
2, 444206, Note_off_c, 5, 77, 127
2, 444210, Note_on_c, 7, 79, 127
2, 444606, Note_off_c, 2, 62, 127
2, 444612, Note_off_c, 7, 79, 127
2, 444612, Note_off_c, 2, 50, 127
2, 444614, Note_on_c, 10, 81, 127
2, 444614, Note_on_c, 0, 48, 127
2, 445014, Note_off_c, 10, 81, 127
2, 445016, Note_off_c, 0, 48, 127
2, 445016, Note_off_c, 10, 57, 127
2, 445016, Note_off_c, 10, 69, 127
2, 445018, Note_on_c, 2, 74, 127
2, 445018, Note_on_c, 7, 67, 127
2, 445018, Note_on_c, 2, 62, 127
2, 445018, Note_on_c, 11, 46, 127
2, 445420, Note_off_c, 11, 46, 127
2, 445420, Note_off_c, 2, 62, 127
2, 445420, Note_off_c, 7, 67, 127
2, 445420, Note_off_c, 2, 74, 127
2, 445422, Note_on_c, 1, 73, 127
2, 445422, Note_on_c, 10, 69, 127
2, 445422, Note_on_c, 10, 45, 127
2, 445422, Note_on_c, 4, 64, 127
2, 445824, Note_off_c, 4, 64, 127
2, 445826, Note_on_c, 2, 62, 127
2, 446011, Note_off_c, 1, 73, 127
2, 446028, Note_on_c, 12, 71, 127
2, 446222, Note_off_c, 10, 69, 127
2, 446228, Note_off_c, 12, 71, 127
2, 446228, Note_off_c, 2, 62, 127
2, 446230, Note_on_c, 10, 69, 127
2, 446230, Note_on_c, 4, 64, 127
2, 446230, Note_on_c, 1, 61, 127
2, 446819, Note_off_c, 10, 69, 127
2, 446945, Note_off_c, 4, 64, 127
2, 447036, Note_off_c, 1, 61, 127
2, 447036, Note_off_c, 10, 45, 127
2, 447038, Note_on_c, 0, 72, 127
2, 447038, Note_on_c, 4, 64, 127
2, 447038, Note_on_c, 10, 69, 127
2, 447038, Note_on_c, 10, 57, 127
2, 447438, Note_off_c, 0, 72, 127
2, 447442, Note_on_c, 2, 74, 127
2, 447838, Note_off_c, 10, 69, 127
2, 447844, Note_off_c, 2, 74, 127
2, 447844, Note_off_c, 10, 57, 127
2, 447846, Note_on_c, 4, 76, 127
2, 447846, Note_on_c, 12, 59, 127
2, 447846, Note_on_c, 7, 55, 127
2, 448246, Note_off_c, 4, 76, 127
2, 448248, Note_off_c, 7, 55, 127
2, 448248, Note_off_c, 12, 59, 127
2, 448248, Note_off_c, 4, 64, 127
2, 448250, Note_on_c, 10, 69, 127
2, 448250, Note_on_c, 2, 62, 127
2, 448250, Note_on_c, 5, 53, 127
2, 448652, Note_off_c, 5, 53, 127
2, 448652, Note_off_c, 2, 62, 127
2, 448652, Note_off_c, 10, 69, 127
2, 448654, Note_on_c, 8, 68, 127
2, 448654, Note_on_c, 4, 64, 127
2, 448654, Note_on_c, 12, 59, 127
2, 448654, Note_on_c, 4, 52, 127
2, 449056, Note_off_c, 12, 59, 127
2, 449058, Note_on_c, 10, 57, 127
2, 449243, Note_off_c, 8, 68, 127
2, 449260, Note_on_c, 6, 66, 127
2, 449454, Note_off_c, 4, 64, 127
2, 449460, Note_off_c, 6, 66, 127
2, 449460, Note_off_c, 10, 57, 127
2, 449462, Note_on_c, 12, 59, 127
2, 449462, Note_on_c, 4, 64, 127
2, 449462, Note_on_c, 8, 56, 127
2, 450051, Note_off_c, 4, 64, 127
2, 450135, Note_off_c, 12, 59, 127
2, 450240, Note_off_c, 8, 56, 127
2, 450267, Note_off_c, 4, 52, 127
2, 450269, Note_on_c, 2, 74, 127
2, 450269, Note_on_c, 2, 62, 127
2, 450269, Note_on_c, 2, 50, 127
2, 450269, Note_on_c, 12, 59, 127
2, 450473, Note_off_c, 2, 74, 127
2, 450475, Note_on_c, 4, 76, 127
2, 450679, Note_off_c, 4, 76, 127
2, 450681, Note_on_c, 5, 77, 127
2, 451090, Note_off_c, 5, 77, 127
2, 451092, Note_on_c, 4, 76, 127
2, 451296, Note_off_c, 4, 76, 127
2, 451298, Note_on_c, 2, 74, 127
2, 451502, Note_off_c, 2, 74, 127
2, 451504, Note_on_c, 12, 71, 127
2, 451913, Note_off_c, 12, 71, 127
2, 451913, Note_off_c, 2, 62, 127
2, 451915, Note_on_c, 10, 69, 127
2, 451915, Note_on_c, 4, 64, 127
2, 452122, Note_off_c, 10, 69, 127
2, 452124, Note_on_c, 8, 68, 127
2, 452329, Note_off_c, 4, 64, 127
2, 452333, Note_on_c, 4, 64, 127
2, 452538, Note_off_c, 8, 68, 127
2, 452750, Note_off_c, 4, 64, 127
2, 452750, Note_off_c, 12, 59, 127
2, 452750, Note_off_c, 2, 50, 127
2, 452752, Note_on_c, 8, 68, 127
2, 452752, Note_on_c, 3, 51, 127
2, 452752, Note_on_c, 6, 54, 127
2, 452959, Note_off_c, 8, 68, 127
2, 452961, Note_on_c, 10, 69, 127
2, 453170, Note_on_c, 0, 60, 127
2, 453587, Note_off_c, 0, 60, 127
2, 453587, Note_off_c, 6, 54, 127
2, 453587, Note_off_c, 3, 51, 127
2, 453589, Note_on_c, 12, 59, 127
2, 453589, Note_on_c, 4, 52, 127
2, 454016, Note_on_c, 0, 60, 127
2, 454227, Note_off_c, 10, 69, 127
2, 454229, Note_on_c, 12, 71, 127
2, 454333, Note_off_c, 12, 71, 127
2, 454335, Note_on_c, 0, 72, 127
2, 454437, Note_off_c, 0, 60, 127
2, 454439, Note_off_c, 0, 72, 127
2, 454439, Note_off_c, 4, 52, 127
2, 454441, Note_on_c, 10, 69, 127
2, 454441, Note_on_c, 2, 62, 127
2, 454441, Note_on_c, 4, 40, 127
2, 454621, Note_off_c, 10, 69, 127
2, 454621, Note_on_c, 8, 68, 127
2, 454703, Note_on_c, 10, 69, 127
2, 454710, Note_off_c, 8, 68, 127
2, 454786, Note_on_c, 8, 68, 127
2, 454793, Note_off_c, 10, 69, 127
2, 454869, Note_on_c, 10, 69, 127
2, 454876, Note_off_c, 8, 68, 127
2, 454952, Note_on_c, 8, 68, 127
2, 454959, Note_off_c, 10, 69, 127
2, 455097, Note_on_c, 10, 69, 127
2, 455108, Note_off_c, 8, 68, 127
2, 455284, Note_off_c, 10, 69, 127
2, 455295, Note_off_c, 4, 40, 127
2, 455295, Note_off_c, 12, 59, 127
2, 455297, Note_on_c, 4, 64, 127
2, 455297, Note_on_c, 10, 69, 127
2, 455297, Note_on_c, 10, 45, 127
2, 456446, Note_off_c, 2, 62, 127
2, 456449, Note_on_c, 1, 61, 127
2, 458089, Note_off_c, 1, 61, 127
2, 458098, Note_off_c, 10, 45, 127
2, 458098, Note_off_c, 10, 69, 127
2, 458098, Note_off_c, 4, 64, 127
2, 462336, End_track
3, 0, Start_track
3, 0, Title_t, "MIDI"
3, 1536, End_track
0, 0, End_of_file
