0, 0, Header, 0, 1, 384
1, 0, Start_track
1, 0, Copyright_t, "(C) John Sankey 1998"
1, 0, Program_c, 0, 6
1, 0, Pitch_bend_c, 0, 8192
1, 0, Program_c, 1, 6
1, 0, Pitch_bend_c, 1, 7792
1, 0, Program_c, 2, 6
1, 0, Pitch_bend_c, 2, 7876
1, 0, Program_c, 3, 6
1, 0, Pitch_bend_c, 3, 7952
1, 0, Program_c, 4, 6
1, 0, Pitch_bend_c, 4, 7792
1, 0, Program_c, 5, 6
1, 0, Pitch_bend_c, 5, 8112
1, 0, Program_c, 6, 6
1, 0, Pitch_bend_c, 6, 7712
1, 0, Program_c, 7, 6
1, 0, Pitch_bend_c, 7, 8037
1, 0, Program_c, 8, 6
1, 0, Pitch_bend_c, 8, 7872
1, 0, Program_c, 10, 6
1, 0, Pitch_bend_c, 10, 7712
1, 0, Program_c, 11, 6
1, 0, Pitch_bend_c, 11, 8032
1, 0, Program_c, 12, 6
1, 0, Pitch_bend_c, 12, 7872
1, 0, Tempo, 500000
1, 48, Note_on_c, 7, 79, 127
1, 595, Note_off_c, 7, 79, 127
1, 596, Note_on_c, 2, 74, 127
1, 1145, Note_on_c, 7, 55, 127
1, 1145, Note_on_c, 7, 79, 127
1, 1145, Note_on_c, 11, 82, 127
1, 1692, Note_off_c, 7, 55, 127
1, 1693, Note_on_c, 2, 50, 127
1, 1966, Note_off_c, 11, 82, 127
1, 1966, Note_off_c, 7, 79, 127
1, 1967, Note_on_c, 10, 81, 127
1, 1967, Note_on_c, 6, 78, 127
1, 2240, Note_off_c, 6, 78, 127
1, 2240, Note_off_c, 10, 81, 127
1, 2240, Note_off_c, 2, 50, 127
1, 2241, Note_on_c, 11, 58, 127
1, 2241, Note_on_c, 7, 79, 127
1, 2514, Note_off_c, 7, 79, 127
1, 2514, Note_off_c, 11, 58, 127
1, 2515, Note_on_c, 10, 57, 127
1, 2515, Note_on_c, 6, 78, 127
1, 2515, Note_on_c, 0, 72, 127
1, 2524, Note_off_c, 2, 74, 127
1, 2788, Note_off_c, 0, 72, 127
1, 2788, Note_off_c, 6, 78, 127
1, 2788, Note_off_c, 10, 57, 127
1, 2789, Note_on_c, 11, 58, 127
1, 2789, Note_on_c, 2, 74, 127
1, 2789, Note_on_c, 7, 79, 127
1, 3062, Note_off_c, 7, 79, 127
1, 3062, Note_off_c, 2, 74, 127
1, 3062, Note_off_c, 11, 58, 127
1, 3063, Note_on_c, 0, 60, 127
1, 3063, Note_on_c, 3, 75, 127
1, 3063, Note_on_c, 10, 81, 127
1, 3336, Note_off_c, 10, 81, 127
1, 3336, Note_off_c, 3, 75, 127
1, 3336, Note_off_c, 0, 60, 127
1, 3337, Note_on_c, 10, 57, 127
1, 3337, Note_on_c, 6, 54, 127
1, 3337, Note_on_c, 0, 60, 127
1, 3337, Note_on_c, 3, 63, 127
1, 3337, Note_on_c, 10, 69, 127
1, 3337, Note_on_c, 0, 72, 127
1, 4158, Note_off_c, 0, 72, 127
1, 4158, Note_off_c, 3, 63, 127
1, 4159, Note_on_c, 3, 75, 127
1, 4432, Note_off_c, 3, 75, 127
1, 4432, Note_off_c, 0, 60, 127
1, 4433, Note_on_c, 2, 74, 127
1, 4433, Note_on_c, 2, 62, 127
1, 4706, Note_off_c, 2, 74, 127
1, 4706, Note_off_c, 6, 54, 127
1, 4706, Note_off_c, 10, 57, 127
1, 4707, Note_on_c, 4, 52, 127
1, 4707, Note_on_c, 0, 72, 127
1, 4978, Note_off_c, 10, 69, 127
1, 4979, Note_off_c, 0, 72, 127
1, 4979, Note_off_c, 4, 52, 127
1, 4980, Note_on_c, 6, 54, 127
1, 4980, Note_on_c, 11, 70, 127
1, 5253, Note_off_c, 11, 70, 127
1, 5253, Note_off_c, 6, 54, 127
1, 5253, Note_off_c, 2, 62, 127
1, 5254, Note_on_c, 6, 54, 127
1, 5254, Note_on_c, 2, 50, 127
1, 5254, Note_on_c, 10, 69, 127
1, 5527, Note_off_c, 10, 69, 127
1, 5527, Note_off_c, 2, 50, 127
1, 5527, Note_off_c, 6, 54, 127
1, 5528, Note_on_c, 7, 55, 127
1, 5528, Note_on_c, 11, 70, 127
1, 5801, Note_off_c, 11, 70, 127
1, 5802, Note_on_c, 11, 58, 127
1, 5802, Note_on_c, 7, 67, 127
1, 6075, Note_off_c, 7, 67, 127
1, 6075, Note_off_c, 11, 58, 127
1, 6076, Note_on_c, 2, 62, 127
1, 6076, Note_on_c, 11, 70, 127
1, 6349, Note_off_c, 11, 70, 127
1, 6349, Note_off_c, 7, 55, 127
1, 6350, Note_on_c, 5, 53, 127
1, 6350, Note_on_c, 2, 74, 127
1, 6623, Note_off_c, 2, 74, 127
1, 6623, Note_off_c, 5, 53, 127
1, 6624, Note_on_c, 3, 51, 127
1, 6624, Note_on_c, 7, 79, 127
1, 6761, Note_off_c, 2, 62, 127
1, 6897, Note_off_c, 7, 79, 127
1, 6898, Note_on_c, 7, 55, 127
1, 6898, Note_on_c, 10, 81, 127
1, 7034, Note_off_c, 10, 81, 127
1, 7035, Note_on_c, 11, 82, 127
1, 7166, Note_off_c, 3, 51, 127
1, 7170, Note_off_c, 11, 82, 127
1, 7170, Note_off_c, 7, 55, 127
1, 7171, Note_on_c, 0, 48, 127
1, 7171, Note_on_c, 0, 60, 127
1, 7171, Note_on_c, 10, 81, 127
1, 7171, Note_on_c, 3, 75, 127
1, 7444, Note_off_c, 10, 81, 127
1, 7444, Note_off_c, 0, 60, 127
1, 7445, Note_on_c, 11, 58, 127
1, 7445, Note_on_c, 7, 79, 127
1, 7714, Note_off_c, 3, 75, 127
1, 7714, Note_off_c, 0, 48, 127
1, 7718, Note_off_c, 7, 79, 127
1, 7718, Note_off_c, 11, 58, 127
1, 7719, Note_on_c, 10, 57, 127
1, 7719, Note_on_c, 2, 50, 127
1, 7719, Note_on_c, 6, 78, 127
1, 7719, Note_on_c, 2, 74, 127
1, 7855, Note_off_c, 6, 78, 127
1, 7856, Note_on_c, 4, 76, 127
1, 7992, Note_off_c, 4, 76, 127
1, 7993, Note_on_c, 6, 78, 127
1, 8814, Note_off_c, 6, 78, 127
1, 8814, Note_off_c, 2, 74, 127
1, 8814, Note_off_c, 2, 50, 127
1, 8814, Note_off_c, 10, 57, 127
1, 8815, Note_on_c, 7, 79, 127
1, 9362, Note_off_c, 7, 79, 127
1, 9363, Note_on_c, 2, 74, 127
1, 9912, Note_on_c, 7, 55, 127
1, 9912, Note_on_c, 7, 79, 127
1, 10048, Note_off_c, 7, 79, 127
1, 10049, Note_on_c, 10, 81, 127
1, 10185, Note_off_c, 10, 81, 127
1, 10186, Note_on_c, 11, 82, 127
1, 10459, Note_off_c, 7, 55, 127
1, 10460, Note_on_c, 2, 50, 127
1, 10733, Note_off_c, 11, 82, 127
1, 10734, Note_on_c, 6, 78, 127
1, 10734, Note_on_c, 10, 81, 127
1, 11005, Note_off_c, 2, 74, 127
1, 11006, Note_off_c, 10, 81, 127
1, 11006, Note_off_c, 6, 78, 127
1, 11006, Note_off_c, 2, 50, 127
1, 11007, Note_on_c, 11, 58, 127
1, 11007, Note_on_c, 7, 79, 127
1, 11280, Note_off_c, 7, 79, 127
1, 11280, Note_off_c, 11, 58, 127
1, 11281, Note_on_c, 10, 57, 127
1, 11281, Note_on_c, 0, 72, 127
1, 11281, Note_on_c, 6, 78, 127
1, 11554, Note_off_c, 6, 78, 127
1, 11554, Note_off_c, 0, 72, 127
1, 11554, Note_off_c, 10, 57, 127
1, 11555, Note_on_c, 11, 58, 127
1, 11555, Note_on_c, 7, 79, 127
1, 11555, Note_on_c, 2, 74, 127
1, 11828, Note_off_c, 2, 74, 127
1, 11828, Note_off_c, 7, 79, 127
1, 11828, Note_off_c, 11, 58, 127
1, 11829, Note_on_c, 0, 60, 127
1, 11829, Note_on_c, 3, 75, 127
1, 11829, Note_on_c, 10, 81, 127
1, 12102, Note_off_c, 10, 81, 127
1, 12102, Note_off_c, 3, 75, 127
1, 12102, Note_off_c, 0, 60, 127
1, 12103, Note_on_c, 10, 57, 127
1, 12103, Note_on_c, 6, 54, 127
1, 12103, Note_on_c, 0, 60, 127
1, 12103, Note_on_c, 10, 69, 127
1, 12103, Note_on_c, 3, 63, 127
1, 12240, Note_on_c, 11, 70, 127
1, 12376, Note_off_c, 11, 70, 127
1, 12377, Note_on_c, 0, 72, 127
1, 12920, Note_off_c, 0, 72, 127
1, 12924, Note_off_c, 3, 63, 127
1, 12924, Note_off_c, 0, 60, 127
1, 12925, Note_on_c, 2, 74, 127
1, 13061, Note_off_c, 2, 74, 127
1, 13062, Note_on_c, 3, 75, 127
1, 13198, Note_off_c, 3, 75, 127
1, 13199, Note_on_c, 2, 74, 127
1, 13199, Note_on_c, 2, 62, 127
1, 13330, Note_off_c, 10, 69, 127
1, 13471, Note_off_c, 2, 74, 127
1, 13471, Note_off_c, 6, 54, 127
1, 13471, Note_off_c, 10, 57, 127
1, 13472, Note_on_c, 4, 52, 127
1, 13472, Note_on_c, 0, 72, 127
1, 13745, Note_off_c, 0, 72, 127
1, 13745, Note_off_c, 4, 52, 127
1, 13746, Note_on_c, 6, 54, 127
1, 13746, Note_on_c, 2, 74, 127
1, 13882, Note_off_c, 2, 74, 127
1, 13883, Note_off_c, 2, 62, 127
1, 13883, Note_on_c, 0, 72, 127
1, 14019, Note_off_c, 0, 72, 127
1, 14020, Note_on_c, 2, 50, 127
1, 14020, Note_on_c, 11, 70, 127
1, 14156, Note_off_c, 11, 70, 127
1, 14157, Note_on_c, 10, 69, 127
1, 14288, Note_off_c, 6, 54, 127
1, 14292, Note_off_c, 10, 69, 127
1, 14292, Note_off_c, 2, 50, 127
1, 14293, Note_on_c, 7, 55, 127
1, 14293, Note_on_c, 11, 70, 127
1, 14566, Note_off_c, 11, 70, 127
1, 14566, Note_off_c, 7, 55, 127
1, 14567, Note_on_c, 11, 58, 127
1, 14567, Note_on_c, 7, 67, 127
1, 14840, Note_off_c, 7, 67, 127
1, 14840, Note_off_c, 11, 58, 127
1, 14841, Note_on_c, 2, 62, 127
1, 14841, Note_on_c, 11, 70, 127
1, 15114, Note_off_c, 11, 70, 127
1, 15115, Note_on_c, 5, 53, 127
1, 15115, Note_on_c, 2, 74, 127
1, 15388, Note_off_c, 2, 74, 127
1, 15388, Note_off_c, 5, 53, 127
1, 15389, Note_on_c, 3, 51, 127
1, 15389, Note_on_c, 7, 79, 127
1, 15662, Note_off_c, 7, 79, 127
1, 15662, Note_off_c, 2, 62, 127
1, 15663, Note_on_c, 7, 55, 127
1, 15663, Note_on_c, 10, 81, 127
1, 15799, Note_off_c, 10, 81, 127
1, 15800, Note_on_c, 11, 82, 127
1, 15931, Note_off_c, 3, 51, 127
1, 15935, Note_off_c, 11, 82, 127
1, 15935, Note_off_c, 7, 55, 127
1, 15936, Note_on_c, 0, 48, 127
1, 15936, Note_on_c, 0, 60, 127
1, 15936, Note_on_c, 10, 81, 127
1, 15936, Note_on_c, 3, 75, 127
1, 16209, Note_off_c, 10, 81, 127
1, 16209, Note_off_c, 0, 60, 127
1, 16210, Note_on_c, 11, 58, 127
1, 16210, Note_on_c, 7, 79, 127
1, 16479, Note_off_c, 3, 75, 127
1, 16479, Note_off_c, 0, 48, 127
1, 16483, Note_off_c, 7, 79, 127
1, 16483, Note_off_c, 11, 58, 127
1, 16484, Note_on_c, 2, 50, 127
1, 16484, Note_on_c, 10, 57, 127
1, 16484, Note_on_c, 7, 79, 127
1, 16484, Note_on_c, 2, 74, 127
1, 16755, Note_off_c, 7, 79, 127
1, 16756, Note_off_c, 10, 57, 127
1, 16756, Note_off_c, 2, 50, 127
1, 16757, Note_on_c, 0, 48, 127
1, 16757, Note_on_c, 6, 78, 127
1, 16824, Note_off_c, 6, 78, 127
1, 16825, Note_on_c, 7, 79, 127
1, 16892, Note_off_c, 7, 79, 127
1, 16893, Note_on_c, 6, 78, 127
1, 16960, Note_off_c, 6, 78, 127
1, 16961, Note_on_c, 7, 79, 127
1, 17028, Note_off_c, 7, 79, 127
1, 17028, Note_off_c, 0, 48, 127
1, 17029, Note_on_c, 11, 46, 127
1, 17029, Note_on_c, 6, 78, 127
1, 17302, Note_off_c, 11, 46, 127
1, 17303, Note_on_c, 10, 45, 127
1, 17429, Note_off_c, 6, 78, 127
1, 17576, Note_off_c, 10, 45, 127
1, 17576, Note_off_c, 2, 74, 127
1, 17577, Note_on_c, 7, 43, 127
1, 17577, Note_on_c, 11, 82, 127
1, 17713, Note_off_c, 7, 43, 127
1, 17714, Note_on_c, 7, 67, 127
1, 17850, Note_off_c, 7, 67, 127
1, 17851, Note_on_c, 11, 70, 127
1, 17851, Note_on_c, 2, 74, 127
1, 17987, Note_off_c, 11, 70, 127
1, 17988, Note_on_c, 10, 69, 127
1, 18119, Note_off_c, 11, 82, 127
1, 18123, Note_off_c, 10, 69, 127
1, 18123, Note_off_c, 2, 74, 127
1, 18124, Note_on_c, 7, 67, 127
1, 18124, Note_on_c, 7, 79, 127
1, 18260, Note_off_c, 7, 67, 127
1, 18261, Note_on_c, 5, 65, 127
1, 18397, Note_off_c, 5, 65, 127
1, 18397, Note_off_c, 7, 79, 127
1, 18398, Note_on_c, 3, 63, 127
1, 18398, Note_on_c, 11, 82, 127
1, 18534, Note_off_c, 3, 63, 127
1, 18535, Note_on_c, 2, 62, 127
1, 18671, Note_off_c, 2, 62, 127
1, 18671, Note_off_c, 11, 82, 127
1, 18672, Note_on_c, 0, 60, 127
1, 18672, Note_on_c, 3, 75, 127
1, 18808, Note_off_c, 0, 60, 127
1, 18809, Note_on_c, 2, 62, 127
1, 18945, Note_off_c, 2, 62, 127
1, 18945, Note_off_c, 3, 75, 127
1, 18946, Note_on_c, 3, 63, 127
1, 18946, Note_on_c, 0, 72, 127
1, 19082, Note_off_c, 3, 63, 127
1, 19083, Note_on_c, 2, 62, 127
1, 19219, Note_off_c, 2, 62, 127
1, 19219, Note_off_c, 0, 72, 127
1, 19220, Note_on_c, 0, 60, 127
1, 19220, Note_on_c, 3, 75, 127
1, 19356, Note_off_c, 0, 60, 127
1, 19357, Note_on_c, 11, 58, 127
1, 19493, Note_off_c, 11, 58, 127
1, 19493, Note_off_c, 3, 75, 127
1, 19494, Note_on_c, 10, 57, 127
1, 19494, Note_on_c, 7, 79, 127
1, 19630, Note_off_c, 10, 57, 127
1, 19631, Note_on_c, 7, 55, 127
1, 19767, Note_off_c, 7, 55, 127
1, 19767, Note_off_c, 7, 79, 127
1, 19768, Note_on_c, 5, 53, 127
1, 19768, Note_on_c, 10, 81, 127
1, 19904, Note_off_c, 5, 53, 127
1, 19905, Note_on_c, 5, 65, 127
1, 20041, Note_off_c, 5, 65, 127
1, 20042, Note_on_c, 10, 69, 127
1, 20042, Note_on_c, 0, 72, 127
1, 20178, Note_off_c, 10, 69, 127
1, 20179, Note_on_c, 7, 67, 127
1, 20310, Note_off_c, 10, 81, 127
1, 20314, Note_off_c, 7, 67, 127
1, 20314, Note_off_c, 0, 72, 127
1, 20315, Note_on_c, 5, 65, 127
1, 20315, Note_on_c, 5, 77, 127
1, 20451, Note_off_c, 5, 65, 127
1, 20452, Note_on_c, 3, 63, 127
1, 20588, Note_off_c, 3, 63, 127
1, 20588, Note_off_c, 5, 77, 127
1, 20589, Note_on_c, 2, 62, 127
1, 20589, Note_on_c, 10, 81, 127
1, 20725, Note_off_c, 2, 62, 127
1, 20726, Note_on_c, 0, 60, 127
1, 20862, Note_off_c, 0, 60, 127
1, 20862, Note_off_c, 10, 81, 127
1, 20863, Note_on_c, 11, 58, 127
1, 20863, Note_on_c, 2, 74, 127
1, 20999, Note_off_c, 11, 58, 127
1, 21000, Note_on_c, 0, 60, 127
1, 21136, Note_off_c, 0, 60, 127
1, 21136, Note_off_c, 2, 74, 127
1, 21137, Note_on_c, 2, 62, 127
1, 21137, Note_on_c, 11, 70, 127
1, 21273, Note_off_c, 2, 62, 127
1, 21274, Note_on_c, 0, 60, 127
1, 21410, Note_off_c, 0, 60, 127
1, 21410, Note_off_c, 11, 70, 127
1, 21411, Note_on_c, 11, 58, 127
1, 21411, Note_on_c, 2, 74, 127
1, 21547, Note_off_c, 11, 58, 127
1, 21548, Note_on_c, 10, 57, 127
1, 21684, Note_off_c, 10, 57, 127
1, 21684, Note_off_c, 2, 74, 127
1, 21685, Note_on_c, 7, 55, 127
1, 21685, Note_on_c, 5, 77, 127
1, 21821, Note_off_c, 7, 55, 127
1, 21822, Note_on_c, 5, 53, 127
1, 21958, Note_off_c, 5, 53, 127
1, 21958, Note_off_c, 5, 77, 127
1, 21959, Note_on_c, 4, 52, 127
1, 21959, Note_on_c, 7, 79, 127
1, 22095, Note_off_c, 4, 52, 127
1, 22096, Note_on_c, 4, 64, 127
1, 22232, Note_off_c, 4, 64, 127
1, 22233, Note_on_c, 7, 67, 127
1, 22233, Note_on_c, 12, 71, 127
1, 22369, Note_off_c, 7, 67, 127
1, 22370, Note_on_c, 5, 65, 127
1, 22501, Note_off_c, 7, 79, 127
1, 22505, Note_off_c, 5, 65, 127
1, 22505, Note_off_c, 12, 71, 127
1, 22506, Note_on_c, 4, 64, 127
1, 22506, Note_on_c, 4, 76, 127
1, 22642, Note_off_c, 4, 64, 127
1, 22643, Note_on_c, 2, 62, 127
1, 22779, Note_off_c, 2, 62, 127
1, 22779, Note_off_c, 4, 76, 127
1, 22780, Note_on_c, 1, 61, 127
1, 22780, Note_on_c, 7, 79, 127
1, 22916, Note_off_c, 1, 61, 127
1, 22917, Note_on_c, 12, 59, 127
1, 23053, Note_off_c, 12, 59, 127
1, 23053, Note_off_c, 7, 79, 127
1, 23054, Note_on_c, 10, 57, 127
1, 23054, Note_on_c, 1, 73, 127
1, 23190, Note_off_c, 10, 57, 127
1, 23191, Note_on_c, 12, 59, 127
1, 23327, Note_off_c, 12, 59, 127
1, 23327, Note_off_c, 1, 73, 127
1, 23328, Note_on_c, 1, 61, 127
1, 23328, Note_on_c, 10, 69, 127
1, 23464, Note_off_c, 1, 61, 127
1, 23465, Note_on_c, 12, 59, 127
1, 23601, Note_off_c, 12, 59, 127
1, 23601, Note_off_c, 10, 69, 127
1, 23602, Note_on_c, 10, 57, 127
1, 23602, Note_on_c, 1, 73, 127
1, 23738, Note_off_c, 10, 57, 127
1, 23739, Note_on_c, 7, 55, 127
1, 23875, Note_off_c, 7, 55, 127
1, 23875, Note_off_c, 1, 73, 127
1, 23876, Note_on_c, 6, 54, 127
1, 23876, Note_on_c, 4, 76, 127
1, 24012, Note_off_c, 6, 54, 127
1, 24013, Note_on_c, 4, 52, 127
1, 24149, Note_off_c, 4, 52, 127
1, 24149, Note_off_c, 4, 76, 127
1, 24150, Note_on_c, 2, 50, 127
1, 24150, Note_on_c, 6, 78, 127
1, 24423, Note_off_c, 6, 78, 127
1, 24424, Note_on_c, 6, 78, 127
1, 24560, Note_off_c, 6, 78, 127
1, 24561, Note_on_c, 7, 79, 127
1, 24692, Note_off_c, 2, 50, 127
1, 24696, Note_off_c, 7, 79, 127
1, 24697, Note_on_c, 10, 81, 127
1, 24970, Note_off_c, 10, 81, 127
1, 24971, Note_on_c, 6, 66, 127
1, 24971, Note_on_c, 3, 75, 127
1, 25107, Note_off_c, 6, 66, 127
1, 25108, Note_on_c, 7, 67, 127
1, 25244, Note_off_c, 7, 67, 127
1, 25245, Note_on_c, 10, 57, 127
1, 25245, Note_on_c, 6, 54, 127
1, 25245, Note_on_c, 10, 69, 127
1, 25514, Note_off_c, 3, 75, 127
1, 25518, Note_off_c, 10, 69, 127
1, 25519, Note_on_c, 3, 63, 127
1, 25519, Note_on_c, 6, 78, 127
1, 25655, Note_off_c, 6, 78, 127
1, 25656, Note_on_c, 7, 79, 127
1, 25787, Note_off_c, 6, 54, 127
1, 25787, Note_off_c, 10, 57, 127
1, 25791, Note_off_c, 7, 79, 127
1, 25792, Note_on_c, 10, 81, 127
1, 26003, Note_off_c, 3, 63, 127
1, 26064, Note_off_c, 10, 81, 127
1, 26065, Note_on_c, 6, 66, 127
1, 26065, Note_on_c, 2, 74, 127
1, 26201, Note_off_c, 6, 66, 127
1, 26202, Note_on_c, 7, 67, 127
1, 26338, Note_off_c, 7, 67, 127
1, 26339, Note_on_c, 6, 54, 127
1, 26339, Note_on_c, 10, 57, 127
1, 26339, Note_on_c, 10, 69, 127
1, 26608, Note_off_c, 2, 74, 127
1, 26612, Note_off_c, 10, 69, 127
1, 26613, Note_on_c, 2, 62, 127
1, 26613, Note_on_c, 6, 78, 127
1, 26749, Note_off_c, 6, 78, 127
1, 26750, Note_on_c, 7, 79, 127
1, 26881, Note_off_c, 10, 57, 127
1, 26881, Note_off_c, 6, 54, 127
1, 26885, Note_off_c, 7, 79, 127
1, 26886, Note_on_c, 10, 81, 127
1, 27155, Note_off_c, 2, 62, 127
1, 27159, Note_off_c, 10, 81, 127
1, 27160, Note_on_c, 0, 72, 127
1, 27160, Note_on_c, 6, 66, 127
1, 27296, Note_off_c, 6, 66, 127
1, 27297, Note_on_c, 7, 67, 127
1, 27433, Note_off_c, 7, 67, 127
1, 27434, Note_on_c, 6, 54, 127
1, 27434, Note_on_c, 10, 57, 127
1, 27434, Note_on_c, 10, 69, 127
1, 27703, Note_off_c, 0, 72, 127
1, 27707, Note_off_c, 10, 69, 127
1, 27708, Note_on_c, 0, 60, 127
1, 27708, Note_on_c, 6, 78, 127
1, 27844, Note_off_c, 6, 78, 127
1, 27845, Note_on_c, 7, 79, 127
1, 27976, Note_off_c, 10, 57, 127
1, 27976, Note_off_c, 6, 54, 127
1, 27980, Note_off_c, 7, 79, 127
1, 27981, Note_on_c, 10, 81, 127
1, 28254, Note_off_c, 10, 81, 127
1, 28254, Note_off_c, 0, 60, 127
1, 28255, Note_on_c, 2, 62, 127
1, 28255, Note_on_c, 10, 57, 127
1, 28255, Note_on_c, 6, 54, 127
1, 28255, Note_on_c, 0, 72, 127
1, 28255, Note_on_c, 10, 69, 127
1, 28528, Note_off_c, 10, 69, 127
1, 28528, Note_off_c, 0, 72, 127
1, 28528, Note_off_c, 6, 54, 127
1, 28528, Note_off_c, 10, 57, 127
1, 28528, Note_off_c, 2, 62, 127
1, 28529, Note_on_c, 7, 55, 127
1, 28529, Note_on_c, 2, 62, 127
1, 28529, Note_on_c, 11, 70, 127
1, 28529, Note_on_c, 7, 67, 127
1, 28802, Note_off_c, 7, 67, 127
1, 28802, Note_off_c, 11, 70, 127
1, 28802, Note_off_c, 2, 62, 127
1, 28802, Note_off_c, 7, 55, 127
1, 28803, Note_on_c, 7, 67, 127
1, 28803, Note_on_c, 11, 70, 127
1, 28803, Note_on_c, 7, 79, 127
1, 28939, Note_off_c, 11, 70, 127
1, 28939, Note_off_c, 7, 67, 127
1, 28940, Note_on_c, 6, 66, 127
1, 28940, Note_on_c, 10, 69, 127
1, 29076, Note_off_c, 10, 69, 127
1, 29076, Note_off_c, 6, 66, 127
1, 29077, Note_on_c, 7, 67, 127
1, 29077, Note_on_c, 11, 70, 127
1, 29346, Note_off_c, 7, 79, 127
1, 29350, Note_off_c, 11, 70, 127
1, 29350, Note_off_c, 7, 67, 127
1, 29351, Note_on_c, 2, 62, 127
1, 29351, Note_on_c, 7, 55, 127
1, 29351, Note_on_c, 11, 70, 127
1, 29351, Note_on_c, 7, 79, 127
1, 29624, Note_off_c, 11, 70, 127
1, 29624, Note_off_c, 7, 55, 127
1, 29624, Note_off_c, 2, 62, 127
1, 29625, Note_on_c, 0, 60, 127
1, 29625, Note_on_c, 10, 57, 127
1, 29625, Note_on_c, 0, 72, 127
1, 29894, Note_off_c, 7, 79, 127
1, 29898, Note_off_c, 0, 72, 127
1, 29898, Note_off_c, 10, 57, 127
1, 29898, Note_off_c, 0, 60, 127
1, 29899, Note_on_c, 10, 69, 127
1, 29899, Note_on_c, 7, 79, 127
1, 29899, Note_on_c, 0, 72, 127
1, 30035, Note_off_c, 0, 72, 127
1, 30035, Note_off_c, 10, 69, 127
1, 30036, Note_on_c, 7, 67, 127
1, 30036, Note_on_c, 11, 70, 127
1, 30172, Note_off_c, 11, 70, 127
1, 30172, Note_off_c, 7, 67, 127
1, 30173, Note_on_c, 10, 69, 127
1, 30173, Note_on_c, 0, 72, 127
1, 30442, Note_off_c, 7, 79, 127
1, 30446, Note_off_c, 0, 72, 127
1, 30446, Note_off_c, 10, 69, 127
1, 30447, Note_on_c, 3, 63, 127
1, 30447, Note_on_c, 10, 57, 127
1, 30447, Note_on_c, 7, 79, 127
1, 30447, Note_on_c, 0, 72, 127
1, 30720, Note_off_c, 0, 72, 127
1, 30720, Note_off_c, 10, 57, 127
1, 30720, Note_off_c, 3, 63, 127
1, 30721, Note_on_c, 2, 62, 127
1, 30721, Note_on_c, 11, 58, 127
1, 30721, Note_on_c, 2, 74, 127
1, 30990, Note_off_c, 7, 79, 127
1, 30994, Note_off_c, 2, 74, 127
1, 30994, Note_off_c, 11, 58, 127
1, 30994, Note_off_c, 2, 62, 127
1, 30995, Note_on_c, 11, 70, 127
1, 30995, Note_on_c, 7, 79, 127
1, 30995, Note_on_c, 2, 74, 127
1, 31131, Note_off_c, 2, 74, 127
1, 31131, Note_off_c, 11, 70, 127
1, 31132, Note_on_c, 10, 69, 127
1, 31132, Note_on_c, 0, 72, 127
1, 31268, Note_off_c, 0, 72, 127
1, 31268, Note_off_c, 10, 69, 127
1, 31269, Note_on_c, 11, 70, 127
1, 31269, Note_on_c, 2, 74, 127
1, 31538, Note_off_c, 7, 79, 127
1, 31542, Note_off_c, 2, 74, 127
1, 31542, Note_off_c, 11, 70, 127
1, 31543, Note_on_c, 7, 67, 127
1, 31543, Note_on_c, 11, 58, 127
1, 31543, Note_on_c, 7, 79, 127
1, 31543, Note_on_c, 2, 74, 127
1, 31816, Note_off_c, 2, 74, 127
1, 31816, Note_off_c, 11, 58, 127
1, 31816, Note_off_c, 7, 67, 127
1, 31817, Note_on_c, 3, 63, 127
1, 31817, Note_on_c, 0, 60, 127
1, 31817, Note_on_c, 3, 75, 127
1, 32086, Note_off_c, 7, 79, 127
1, 32090, Note_off_c, 3, 75, 127
1, 32090, Note_off_c, 0, 60, 127
1, 32090, Note_off_c, 3, 63, 127
1, 32091, Note_on_c, 0, 72, 127
1, 32091, Note_on_c, 3, 75, 127
1, 32091, Note_on_c, 7, 79, 127
1, 32227, Note_off_c, 3, 75, 127
1, 32227, Note_off_c, 0, 72, 127
1, 32228, Note_on_c, 11, 70, 127
1, 32228, Note_on_c, 2, 74, 127
1, 32364, Note_off_c, 2, 74, 127
1, 32364, Note_off_c, 11, 70, 127
1, 32365, Note_on_c, 0, 72, 127
1, 32365, Note_on_c, 3, 75, 127
1, 32634, Note_off_c, 7, 79, 127
1, 32638, Note_off_c, 3, 75, 127
1, 32638, Note_off_c, 0, 72, 127
1, 32639, Note_on_c, 11, 70, 127
1, 32639, Note_on_c, 7, 55, 127
1, 32639, Note_on_c, 7, 79, 127
1, 32639, Note_on_c, 2, 74, 127
1, 32912, Note_off_c, 2, 74, 127
1, 32912, Note_off_c, 7, 55, 127
1, 32912, Note_off_c, 11, 70, 127
1, 32913, Note_on_c, 2, 62, 127
1, 32913, Note_on_c, 2, 74, 127
1, 32913, Note_on_c, 10, 69, 127
1, 33049, Note_off_c, 2, 62, 127
1, 33050, Note_on_c, 7, 67, 127
1, 33181, Note_off_c, 7, 79, 127
1, 33185, Note_off_c, 7, 67, 127
1, 33185, Note_off_c, 2, 74, 127
1, 33186, Note_on_c, 6, 66, 127
1, 33186, Note_on_c, 7, 79, 127
1, 33322, Note_off_c, 6, 66, 127
1, 33323, Note_on_c, 4, 64, 127
1, 33454, Note_off_c, 10, 69, 127
1, 33458, Note_off_c, 4, 64, 127
1, 33459, Note_on_c, 2, 62, 127
1, 33459, Note_on_c, 2, 74, 127
1, 33459, Note_on_c, 10, 69, 127
1, 33595, Note_off_c, 2, 62, 127
1, 33596, Note_on_c, 0, 60, 127
1, 33727, Note_off_c, 7, 79, 127
1, 33731, Note_off_c, 0, 60, 127
1, 33732, Note_on_c, 11, 58, 127
1, 33732, Note_on_c, 6, 78, 127
1, 33868, Note_off_c, 11, 58, 127
1, 33869, Note_on_c, 10, 57, 127
1, 34000, Note_off_c, 10, 69, 127
1, 34000, Note_off_c, 2, 74, 127
1, 34004, Note_off_c, 10, 57, 127
1, 34004, Note_off_c, 6, 78, 127
1, 34005, Note_on_c, 7, 55, 127
1, 34005, Note_on_c, 11, 70, 127
1, 34005, Note_on_c, 7, 79, 127
1, 34005, Note_on_c, 2, 74, 127
1, 34278, Note_off_c, 7, 55, 127
1, 34279, Note_on_c, 5, 53, 127
1, 34415, Note_off_c, 5, 53, 127
1, 34416, Note_on_c, 3, 51, 127
1, 34552, Note_off_c, 3, 51, 127
1, 34553, Note_on_c, 2, 50, 127
1, 34689, Note_off_c, 2, 50, 127
1, 34690, Note_on_c, 0, 48, 127
1, 34826, Note_off_c, 0, 48, 127
1, 34826, Note_off_c, 2, 74, 127
1, 34826, Note_off_c, 7, 79, 127
1, 34826, Note_off_c, 11, 70, 127
1, 34827, Note_on_c, 11, 46, 127
1, 34963, Note_off_c, 11, 46, 127
1, 34964, Note_on_c, 10, 45, 127
1, 35100, Note_off_c, 10, 45, 127
1, 35101, Note_on_c, 7, 43, 127
1, 35101, Note_on_c, 7, 79, 127
1, 35501, Note_off_c, 7, 43, 127
1, 35648, Note_off_c, 7, 79, 127
1, 35649, Note_on_c, 2, 74, 127
1, 36192, Note_off_c, 2, 74, 127
1, 36198, Note_on_c, 7, 55, 127
1, 36198, Note_on_c, 7, 79, 127
1, 36319, Note_off_c, 7, 79, 127
1, 36320, Note_on_c, 10, 81, 127
1, 36441, Note_off_c, 10, 81, 127
1, 36442, Note_on_c, 7, 79, 127
1, 36523, Note_off_c, 7, 79, 127
1, 36524, Note_on_c, 10, 81, 127
1, 36605, Note_off_c, 10, 81, 127
1, 36606, Note_on_c, 11, 82, 127
1, 36742, Note_off_c, 7, 55, 127
1, 36743, Note_on_c, 2, 50, 127
1, 37006, Note_off_c, 11, 82, 127
1, 37017, Note_on_c, 10, 81, 127
1, 37290, Note_off_c, 10, 81, 127
1, 37290, Note_off_c, 2, 50, 127
1, 37291, Note_on_c, 11, 58, 127
1, 37291, Note_on_c, 7, 79, 127
1, 37427, Note_off_c, 7, 79, 127
1, 37428, Note_on_c, 6, 78, 127
1, 37564, Note_off_c, 6, 78, 127
1, 37564, Note_off_c, 11, 58, 127
1, 37565, Note_on_c, 10, 57, 127
1, 37565, Note_on_c, 7, 79, 127
1, 37701, Note_off_c, 7, 79, 127
1, 37702, Note_on_c, 10, 81, 127
1, 37838, Note_off_c, 10, 81, 127
1, 37838, Note_off_c, 10, 57, 127
1, 37839, Note_on_c, 11, 58, 127
1, 37839, Note_on_c, 7, 79, 127
1, 37975, Note_off_c, 7, 79, 127
1, 37976, Note_on_c, 6, 78, 127
1, 38112, Note_off_c, 6, 78, 127
1, 38112, Note_off_c, 11, 58, 127
1, 38113, Note_on_c, 0, 60, 127
1, 38113, Note_on_c, 7, 79, 127
1, 38249, Note_off_c, 7, 79, 127
1, 38250, Note_on_c, 10, 81, 127
1, 38386, Note_off_c, 10, 81, 127
1, 38386, Note_off_c, 0, 60, 127
1, 38387, Note_on_c, 6, 54, 127
1, 38387, Note_on_c, 0, 72, 127
1, 38523, Note_off_c, 0, 72, 127
1, 38524, Note_on_c, 10, 57, 127
1, 38524, Note_on_c, 11, 70, 127
1, 38660, Note_off_c, 11, 70, 127
1, 38660, Note_off_c, 10, 57, 127
1, 38661, Note_on_c, 3, 63, 127
1, 38661, Note_on_c, 0, 72, 127
1, 38787, Note_off_c, 6, 54, 127
1, 38797, Note_off_c, 3, 63, 127
1, 38798, Note_on_c, 2, 62, 127
1, 38934, Note_off_c, 2, 62, 127
1, 38935, Note_on_c, 0, 60, 127
1, 39071, Note_off_c, 0, 60, 127
1, 39072, Note_on_c, 11, 58, 127
1, 39208, Note_off_c, 11, 58, 127
1, 39208, Note_off_c, 0, 72, 127
1, 39209, Note_on_c, 10, 57, 127
1, 39209, Note_on_c, 3, 75, 127
1, 39345, Note_off_c, 10, 57, 127
1, 39346, Note_on_c, 7, 55, 127
1, 39482, Note_off_c, 7, 55, 127
1, 39482, Note_off_c, 3, 75, 127
1, 39483, Note_on_c, 6, 54, 127
1, 39483, Note_on_c, 3, 75, 127
1, 39550, Note_off_c, 3, 75, 127
1, 39551, Note_on_c, 2, 74, 127
1, 39618, Note_off_c, 2, 74, 127
1, 39618, Note_off_c, 6, 54, 127
1, 39619, Note_on_c, 7, 55, 127
1, 39619, Note_on_c, 3, 75, 127
1, 39686, Note_off_c, 3, 75, 127
1, 39687, Note_on_c, 2, 74, 127
1, 39754, Note_off_c, 2, 74, 127
1, 39754, Note_off_c, 7, 55, 127
1, 39755, Note_on_c, 10, 57, 127
1, 39755, Note_on_c, 0, 72, 127
1, 39891, Note_off_c, 10, 57, 127
1, 39892, Note_on_c, 7, 55, 127
1, 40028, Note_off_c, 7, 55, 127
1, 40028, Note_off_c, 0, 72, 127
1, 40029, Note_on_c, 6, 54, 127
1, 40029, Note_on_c, 2, 74, 127
1, 40165, Note_off_c, 2, 74, 127
1, 40165, Note_off_c, 6, 54, 127
1, 40166, Note_on_c, 4, 52, 127
1, 40166, Note_on_c, 0, 72, 127
1, 40302, Note_off_c, 0, 72, 127
1, 40302, Note_off_c, 4, 52, 127
1, 40303, Note_on_c, 6, 54, 127
1, 40303, Note_on_c, 11, 70, 127
1, 40439, Note_off_c, 11, 70, 127
1, 40439, Note_off_c, 6, 54, 127
1, 40440, Note_on_c, 2, 50, 127
1, 40440, Note_on_c, 10, 69, 127
1, 40576, Note_off_c, 10, 69, 127
1, 40576, Note_off_c, 2, 50, 127
1, 40577, Note_on_c, 7, 55, 127
1, 40577, Note_on_c, 11, 70, 127
1, 40713, Note_off_c, 7, 55, 127
1, 40714, Note_on_c, 10, 57, 127
1, 40850, Note_off_c, 10, 57, 127
1, 40850, Note_off_c, 11, 70, 127
1, 40851, Note_on_c, 11, 58, 127
1, 40851, Note_on_c, 7, 67, 127
1, 40987, Note_off_c, 11, 58, 127
1, 40988, Note_on_c, 10, 57, 127
1, 41124, Note_off_c, 10, 57, 127
1, 41124, Note_off_c, 7, 67, 127
1, 41125, Note_on_c, 7, 55, 127
1, 41125, Note_on_c, 11, 70, 127
1, 41261, Note_off_c, 7, 55, 127
1, 41262, Note_on_c, 5, 53, 127
1, 41398, Note_off_c, 5, 53, 127
1, 41398, Note_off_c, 11, 70, 127
1, 41399, Note_on_c, 3, 51, 127
1, 41399, Note_on_c, 2, 74, 127
1, 41535, Note_off_c, 3, 51, 127
1, 41536, Note_on_c, 2, 50, 127
1, 41672, Note_off_c, 2, 50, 127
1, 41672, Note_off_c, 2, 74, 127
1, 41673, Note_on_c, 3, 51, 127
1, 41673, Note_on_c, 7, 79, 127
1, 41810, Note_on_c, 7, 55, 127
1, 41944, Note_off_c, 3, 51, 127
1, 41945, Note_off_c, 7, 55, 127
1, 41945, Note_off_c, 7, 79, 127
1, 41946, Note_on_c, 0, 60, 127
1, 41946, Note_on_c, 10, 81, 127
1, 42082, Note_off_c, 10, 81, 127
1, 42083, Note_on_c, 2, 50, 127
1, 42083, Note_on_c, 11, 82, 127
1, 42219, Note_off_c, 11, 82, 127
1, 42219, Note_off_c, 2, 50, 127
1, 42220, Note_on_c, 0, 48, 127
1, 42220, Note_on_c, 10, 81, 127
1, 42356, Note_off_c, 10, 81, 127
1, 42357, Note_on_c, 7, 79, 127
1, 42488, Note_off_c, 0, 60, 127
1, 42492, Note_off_c, 7, 79, 127
1, 42493, Note_on_c, 11, 58, 127
1, 42493, Note_on_c, 6, 78, 127
1, 42629, Note_off_c, 6, 78, 127
1, 42630, Note_on_c, 7, 79, 127
1, 42761, Note_off_c, 0, 48, 127
1, 42765, Note_off_c, 7, 79, 127
1, 42765, Note_off_c, 11, 58, 127
1, 42766, Note_on_c, 2, 50, 127
1, 42766, Note_on_c, 10, 57, 127
1, 42766, Note_on_c, 6, 78, 127
1, 42902, Note_off_c, 10, 57, 127
1, 42903, Note_on_c, 2, 62, 127
1, 43039, Note_off_c, 2, 62, 127
1, 43040, Note_on_c, 0, 60, 127
1, 43176, Note_off_c, 0, 60, 127
1, 43177, Note_on_c, 2, 62, 127
1, 43313, Note_off_c, 2, 62, 127
1, 43314, Note_on_c, 11, 58, 127
1, 43450, Note_off_c, 11, 58, 127
1, 43451, Note_on_c, 0, 60, 127
1, 43587, Note_off_c, 0, 60, 127
1, 43587, Note_off_c, 6, 78, 127
1, 43587, Note_off_c, 2, 50, 127
1, 43588, Note_on_c, 10, 57, 127
1, 43724, Note_off_c, 10, 57, 127
1, 43725, Note_on_c, 11, 58, 127
1, 43861, Note_off_c, 11, 58, 127
1, 43862, Note_on_c, 7, 55, 127
1, 43862, Note_on_c, 7, 79, 127
1, 43998, Note_off_c, 7, 79, 127
1, 43999, Note_on_c, 11, 82, 127
1, 44135, Note_off_c, 11, 82, 127
1, 44135, Note_off_c, 7, 55, 127
1, 44136, Note_on_c, 2, 62, 127
1, 44136, Note_on_c, 10, 81, 127
1, 44272, Note_off_c, 10, 81, 127
1, 44273, Note_on_c, 11, 82, 127
1, 44409, Note_off_c, 11, 82, 127
1, 44409, Note_off_c, 2, 62, 127
1, 44410, Note_on_c, 11, 58, 127
1, 44410, Note_on_c, 7, 79, 127
1, 44546, Note_off_c, 7, 79, 127
1, 44547, Note_on_c, 10, 81, 127
1, 44683, Note_off_c, 10, 81, 127
1, 44683, Note_off_c, 11, 58, 127
1, 44684, Note_on_c, 7, 55, 127
1, 44684, Note_on_c, 5, 77, 127
1, 44820, Note_off_c, 5, 77, 127
1, 44821, Note_on_c, 7, 79, 127
1, 44957, Note_off_c, 7, 79, 127
1, 44957, Note_off_c, 7, 55, 127
1, 44958, Note_on_c, 0, 60, 127
1, 44958, Note_on_c, 3, 75, 127
1, 45094, Note_off_c, 0, 60, 127
1, 45095, Note_on_c, 3, 63, 127
1, 45215, Note_off_c, 3, 75, 127
1, 45231, Note_off_c, 3, 63, 127
1, 45232, Note_on_c, 2, 62, 127
1, 45232, Note_on_c, 7, 79, 127
1, 45368, Note_off_c, 2, 62, 127
1, 45369, Note_on_c, 3, 63, 127
1, 45489, Note_off_c, 7, 79, 127
1, 45505, Note_off_c, 3, 63, 127
1, 45506, Note_on_c, 0, 60, 127
1, 45506, Note_on_c, 11, 82, 127
1, 45642, Note_off_c, 0, 60, 127
1, 45643, Note_on_c, 2, 62, 127
1, 45779, Note_off_c, 2, 62, 127
1, 45780, Note_on_c, 11, 58, 127
1, 45916, Note_off_c, 11, 58, 127
1, 45917, Note_on_c, 0, 60, 127
1, 45991, Note_off_c, 11, 82, 127
1, 46052, Note_off_c, 0, 60, 127
1, 46053, Note_on_c, 5, 53, 127
1, 46053, Note_on_c, 10, 81, 127
1, 46189, Note_off_c, 10, 81, 127
1, 46190, Note_on_c, 11, 82, 127
1, 46326, Note_off_c, 11, 82, 127
1, 46326, Note_off_c, 5, 53, 127
1, 46327, Note_on_c, 0, 60, 127
1, 46327, Note_on_c, 7, 79, 127
1, 46463, Note_off_c, 7, 79, 127
1, 46464, Note_on_c, 10, 81, 127
1, 46600, Note_off_c, 10, 81, 127
1, 46600, Note_off_c, 0, 60, 127
1, 46601, Note_on_c, 10, 57, 127
1, 46601, Note_on_c, 5, 77, 127
1, 46737, Note_off_c, 5, 77, 127
1, 46738, Note_on_c, 7, 79, 127
1, 46874, Note_off_c, 7, 79, 127
1, 46874, Note_off_c, 10, 57, 127
1, 46875, Note_on_c, 5, 53, 127
1, 46875, Note_on_c, 3, 75, 127
1, 47011, Note_off_c, 3, 75, 127
1, 47012, Note_on_c, 5, 77, 127
1, 47148, Note_off_c, 5, 77, 127
1, 47148, Note_off_c, 5, 53, 127
1, 47149, Note_on_c, 11, 58, 127
1, 47149, Note_on_c, 2, 74, 127
1, 47285, Note_off_c, 11, 58, 127
1, 47286, Note_on_c, 2, 62, 127
1, 47406, Note_off_c, 2, 74, 127
1, 47422, Note_off_c, 2, 62, 127
1, 47423, Note_on_c, 0, 60, 127
1, 47423, Note_on_c, 5, 77, 127
1, 47559, Note_off_c, 0, 60, 127
1, 47560, Note_on_c, 2, 62, 127
1, 47680, Note_off_c, 5, 77, 127
1, 47696, Note_off_c, 2, 62, 127
1, 47697, Note_on_c, 11, 58, 127
1, 47697, Note_on_c, 10, 81, 127
1, 47833, Note_off_c, 11, 58, 127
1, 47834, Note_on_c, 0, 60, 127
1, 47970, Note_off_c, 0, 60, 127
1, 47971, Note_on_c, 10, 57, 127
1, 48107, Note_off_c, 10, 57, 127
1, 48108, Note_on_c, 11, 58, 127
1, 48182, Note_off_c, 10, 81, 127
1, 48243, Note_off_c, 11, 58, 127
1, 48244, Note_on_c, 4, 52, 127
1, 48244, Note_on_c, 7, 79, 127
1, 48380, Note_off_c, 7, 79, 127
1, 48381, Note_on_c, 10, 81, 127
1, 48517, Note_off_c, 10, 81, 127
1, 48517, Note_off_c, 4, 52, 127
1, 48518, Note_on_c, 11, 58, 127
1, 48518, Note_on_c, 5, 77, 127
1, 48654, Note_off_c, 5, 77, 127
1, 48655, Note_on_c, 7, 79, 127
1, 48791, Note_off_c, 7, 79, 127
1, 48791, Note_off_c, 11, 58, 127
1, 48792, Note_on_c, 7, 55, 127
1, 48792, Note_on_c, 4, 76, 127
1, 48928, Note_off_c, 4, 76, 127
1, 48929, Note_on_c, 5, 77, 127
1, 49065, Note_off_c, 5, 77, 127
1, 49065, Note_off_c, 7, 55, 127
1, 49066, Note_on_c, 4, 52, 127
1, 49066, Note_on_c, 2, 74, 127
1, 49202, Note_off_c, 2, 74, 127
1, 49203, Note_on_c, 4, 76, 127
1, 49339, Note_off_c, 4, 76, 127
1, 49339, Note_off_c, 4, 52, 127
1, 49340, Note_on_c, 10, 57, 127
1, 49340, Note_on_c, 1, 73, 127
1, 49476, Note_off_c, 1, 73, 127
1, 49477, Note_on_c, 4, 76, 127
1, 49613, Note_off_c, 4, 76, 127
1, 49613, Note_off_c, 10, 57, 127
1, 49614, Note_on_c, 10, 45, 127
1, 49614, Note_on_c, 1, 73, 127
1, 49750, Note_off_c, 1, 73, 127
1, 49751, Note_on_c, 4, 76, 127
1, 49887, Note_off_c, 4, 76, 127
1, 49887, Note_off_c, 10, 45, 127
1, 49888, Note_on_c, 1, 49, 127
1, 49888, Note_on_c, 10, 81, 127
1, 50024, Note_off_c, 10, 81, 127
1, 50025, Note_on_c, 4, 76, 127
1, 50161, Note_off_c, 4, 76, 127
1, 50161, Note_off_c, 1, 49, 127
1, 50162, Note_on_c, 10, 45, 127
1, 50162, Note_on_c, 1, 73, 127
1, 50298, Note_off_c, 1, 73, 127
1, 50299, Note_on_c, 4, 76, 127
1, 50435, Note_off_c, 4, 76, 127
1, 50436, Note_on_c, 10, 69, 127
1, 50562, Note_off_c, 10, 45, 127
1, 50572, Note_off_c, 10, 69, 127
1, 50573, Note_on_c, 4, 76, 127
1, 50640, Note_off_c, 4, 76, 127
1, 50641, Note_on_c, 2, 74, 127
1, 50708, Note_off_c, 2, 74, 127
1, 50709, Note_on_c, 10, 45, 127
1, 50709, Note_on_c, 1, 73, 127
1, 50845, Note_off_c, 1, 73, 127
1, 50846, Note_on_c, 4, 76, 127
1, 50982, Note_off_c, 4, 76, 127
1, 50982, Note_off_c, 10, 45, 127
1, 50983, Note_on_c, 1, 49, 127
1, 50983, Note_on_c, 10, 81, 127
1, 51119, Note_off_c, 10, 81, 127
1, 51120, Note_on_c, 4, 76, 127
1, 51256, Note_off_c, 4, 76, 127
1, 51256, Note_off_c, 1, 49, 127
1, 51257, Note_on_c, 10, 45, 127
1, 51257, Note_on_c, 1, 73, 127
1, 51393, Note_off_c, 1, 73, 127
1, 51394, Note_on_c, 4, 76, 127
1, 51530, Note_off_c, 4, 76, 127
1, 51531, Note_on_c, 10, 69, 127
1, 51657, Note_off_c, 10, 45, 127
1, 51667, Note_off_c, 10, 69, 127
1, 51668, Note_on_c, 4, 76, 127
1, 51804, Note_off_c, 4, 76, 127
1, 51805, Note_on_c, 10, 45, 127
1, 51805, Note_on_c, 1, 73, 127
1, 51872, Note_off_c, 1, 73, 127
1, 51873, Note_on_c, 4, 76, 127
1, 51940, Note_off_c, 4, 76, 127
1, 51941, Note_on_c, 5, 77, 127
1, 52008, Note_off_c, 5, 77, 127
1, 52009, Note_on_c, 7, 79, 127
1, 52076, Note_off_c, 7, 79, 127
1, 52076, Note_off_c, 10, 45, 127
1, 52077, Note_on_c, 1, 49, 127
1, 52077, Note_on_c, 10, 81, 127
1, 52213, Note_off_c, 10, 81, 127
1, 52214, Note_on_c, 4, 76, 127
1, 52350, Note_off_c, 4, 76, 127
1, 52350, Note_off_c, 1, 49, 127
1, 52351, Note_on_c, 10, 45, 127
1, 52351, Note_on_c, 1, 73, 127
1, 52487, Note_off_c, 1, 73, 127
1, 52488, Note_on_c, 4, 76, 127
1, 52624, Note_off_c, 4, 76, 127
1, 52624, Note_off_c, 10, 45, 127
1, 52625, Note_on_c, 2, 50, 127
1, 52625, Note_on_c, 5, 77, 127
1, 52761, Note_off_c, 5, 77, 127
1, 52762, Note_on_c, 2, 74, 127
1, 52898, Note_off_c, 2, 74, 127
1, 52898, Note_off_c, 2, 50, 127
1, 52899, Note_on_c, 2, 38, 127
1, 52899, Note_on_c, 4, 76, 127
1, 53035, Note_off_c, 4, 76, 127
1, 53036, Note_on_c, 5, 77, 127
1, 53172, Note_off_c, 5, 77, 127
1, 53172, Note_off_c, 2, 38, 127
1, 53173, Note_on_c, 4, 40, 127
1, 53173, Note_on_c, 7, 79, 127
1, 53309, Note_off_c, 7, 79, 127
1, 53310, Note_on_c, 10, 81, 127
1, 53446, Note_off_c, 10, 81, 127
1, 53446, Note_off_c, 4, 40, 127
1, 53447, Note_on_c, 4, 52, 127
1, 53447, Note_on_c, 12, 83, 127
1, 53583, Note_off_c, 12, 83, 127
1, 53584, Note_on_c, 1, 85, 127
1, 53720, Note_off_c, 1, 85, 127
1, 53720, Note_off_c, 4, 52, 127
1, 53721, Note_on_c, 5, 53, 127
1, 53721, Note_on_c, 2, 86, 127
1, 53857, Note_off_c, 5, 53, 127
1, 53858, Note_on_c, 11, 58, 127
1, 53994, Note_off_c, 11, 58, 127
1, 53995, Note_on_c, 10, 57, 127
1, 54131, Note_off_c, 10, 57, 127
1, 54132, Note_on_c, 7, 55, 127
1, 54268, Note_off_c, 7, 55, 127
1, 54269, Note_on_c, 5, 53, 127
1, 54405, Note_off_c, 5, 53, 127
1, 54406, Note_on_c, 7, 55, 127
1, 54542, Note_off_c, 7, 55, 127
1, 54542, Note_off_c, 2, 86, 127
1, 54543, Note_on_c, 5, 53, 127
1, 54543, Note_on_c, 5, 77, 127
1, 54679, Note_off_c, 5, 53, 127
1, 54680, Note_on_c, 2, 50, 127
1, 54816, Note_off_c, 2, 50, 127
1, 54816, Note_off_c, 5, 77, 127
1, 54817, Note_on_c, 7, 55, 127
1, 54817, Note_on_c, 3, 75, 127
1, 54953, Note_off_c, 3, 75, 127
1, 54954, Note_on_c, 5, 77, 127
1, 55090, Note_off_c, 5, 77, 127
1, 55090, Note_off_c, 7, 55, 127
1, 55091, Note_on_c, 7, 43, 127
1, 55091, Note_on_c, 7, 79, 127
1, 55227, Note_off_c, 7, 79, 127
1, 55228, Note_on_c, 3, 75, 127
1, 55364, Note_off_c, 3, 75, 127
1, 55364, Note_off_c, 7, 43, 127
1, 55365, Note_on_c, 10, 45, 127
1, 55365, Note_on_c, 1, 73, 127
1, 55501, Note_off_c, 1, 73, 127
1, 55502, Note_on_c, 4, 76, 127
1, 55638, Note_off_c, 4, 76, 127
1, 55638, Note_off_c, 10, 45, 127
1, 55639, Note_on_c, 10, 57, 127
1, 55639, Note_on_c, 10, 69, 127
1, 55775, Note_off_c, 10, 69, 127
1, 55776, Note_on_c, 1, 73, 127
1, 55912, Note_off_c, 1, 73, 127
1, 55912, Note_off_c, 10, 57, 127
1, 55913, Note_on_c, 11, 58, 127
1, 55913, Note_on_c, 2, 74, 127
1, 56186, Note_off_c, 2, 74, 127
1, 56186, Note_off_c, 11, 58, 127
1, 56187, Note_on_c, 10, 57, 127
1, 56187, Note_on_c, 2, 62, 127
1, 56323, Note_off_c, 10, 57, 127
1, 56324, Note_on_c, 7, 55, 127
1, 56458, Note_off_c, 2, 62, 127
1, 56459, Note_off_c, 7, 55, 127
1, 56460, Note_on_c, 5, 53, 127
1, 56596, Note_off_c, 5, 53, 127
1, 56597, Note_on_c, 4, 52, 127
1, 56733, Note_off_c, 4, 52, 127
1, 56734, Note_on_c, 5, 53, 127
1, 56734, Note_on_c, 2, 74, 127
1, 56841, Note_off_c, 2, 74, 127
1, 56842, Note_on_c, 4, 76, 127
1, 56869, Note_off_c, 5, 53, 127
1, 56870, Note_on_c, 2, 50, 127
1, 56923, Note_off_c, 4, 76, 127
1, 56924, Note_on_c, 5, 77, 127
1, 57005, Note_off_c, 5, 77, 127
1, 57005, Note_off_c, 2, 50, 127
1, 57006, Note_on_c, 7, 55, 127
1, 57006, Note_on_c, 3, 75, 127
1, 57142, Note_off_c, 3, 75, 127
1, 57143, Note_on_c, 5, 77, 127
1, 57210, Note_off_c, 5, 77, 127
1, 57211, Note_on_c, 7, 79, 127
1, 57278, Note_off_c, 7, 79, 127
1, 57278, Note_off_c, 7, 55, 127
1, 57279, Note_on_c, 7, 43, 127
1, 57279, Note_on_c, 7, 79, 127
1, 57415, Note_off_c, 7, 79, 127
1, 57416, Note_on_c, 10, 81, 127
1, 57483, Note_off_c, 10, 81, 127
1, 57484, Note_on_c, 11, 82, 127
1, 57551, Note_off_c, 11, 82, 127
1, 57551, Note_off_c, 7, 43, 127
1, 57552, Note_on_c, 10, 45, 127
1, 57552, Note_on_c, 2, 74, 127
1, 57688, Note_off_c, 2, 74, 127
1, 57689, Note_on_c, 1, 73, 127
1, 57825, Note_off_c, 1, 73, 127
1, 57825, Note_off_c, 10, 45, 127
1, 57826, Note_on_c, 10, 57, 127
1, 57826, Note_on_c, 12, 71, 127
1, 57962, Note_off_c, 12, 71, 127
1, 57963, Note_on_c, 1, 73, 127
1, 58099, Note_off_c, 1, 73, 127
1, 58099, Note_off_c, 10, 57, 127
1, 58100, Note_on_c, 11, 58, 127
1, 58100, Note_on_c, 2, 74, 127
1, 58200, Note_off_c, 2, 74, 127
1, 58237, Note_on_c, 1, 73, 127
1, 58337, Note_off_c, 1, 73, 127
1, 58373, Note_off_c, 11, 58, 127
1, 58374, Note_on_c, 10, 57, 127
1, 58374, Note_on_c, 2, 74, 127
1, 58510, Note_off_c, 10, 57, 127
1, 58511, Note_on_c, 7, 55, 127
1, 58647, Note_off_c, 7, 55, 127
1, 58648, Note_on_c, 5, 53, 127
1, 58774, Note_off_c, 2, 74, 127
1, 58784, Note_off_c, 5, 53, 127
1, 58785, Note_on_c, 4, 52, 127
1, 58921, Note_off_c, 4, 52, 127
1, 58922, Note_on_c, 2, 50, 127
1, 58922, Note_on_c, 5, 77, 127
1, 59029, Note_off_c, 5, 77, 127
1, 59030, Note_on_c, 7, 79, 127
1, 59057, Note_off_c, 2, 50, 127
1, 59058, Note_on_c, 1, 49, 127
1, 59111, Note_off_c, 7, 79, 127
1, 59112, Note_on_c, 10, 81, 127
1, 59193, Note_off_c, 10, 81, 127
1, 59193, Note_off_c, 1, 49, 127
1, 59194, Note_on_c, 2, 50, 127
1, 59194, Note_on_c, 7, 79, 127
1, 59330, Note_off_c, 7, 79, 127
1, 59331, Note_on_c, 5, 77, 127
1, 59467, Note_off_c, 5, 77, 127
1, 59467, Note_off_c, 2, 50, 127
1, 59468, Note_on_c, 7, 55, 127
1, 59468, Note_on_c, 4, 76, 127
1, 59604, Note_off_c, 4, 76, 127
1, 59605, Note_on_c, 2, 74, 127
1, 59741, Note_off_c, 2, 74, 127
1, 59741, Note_off_c, 7, 55, 127
1, 59742, Note_on_c, 10, 57, 127
1, 59742, Note_on_c, 10, 69, 127
1, 60015, Note_off_c, 10, 69, 127
1, 60015, Note_off_c, 10, 57, 127
1, 60022, Note_on_c, 1, 73, 127
1, 60022, Note_on_c, 10, 45, 127
1, 60295, Note_off_c, 10, 45, 127
1, 60295, Note_off_c, 1, 73, 127
1, 60306, Note_on_c, 2, 74, 127
1, 60306, Note_on_c, 2, 38, 127
1, 60306, Note_on_c, 2, 50, 127
1, 60853, Note_off_c, 2, 74, 127
1, 60854, Note_on_c, 10, 69, 127
1, 61401, Note_off_c, 2, 50, 127
1, 61401, Note_off_c, 2, 38, 127
1, 61402, Note_on_c, 5, 77, 127
1, 61402, Note_on_c, 2, 74, 127
1, 61402, Note_on_c, 2, 50, 127
1, 61949, Note_off_c, 2, 50, 127
1, 61950, Note_on_c, 10, 45, 127
1, 62223, Note_off_c, 2, 74, 127
1, 62223, Note_off_c, 5, 77, 127
1, 62224, Note_on_c, 1, 73, 127
1, 62224, Note_on_c, 4, 76, 127
1, 62497, Note_off_c, 4, 76, 127
1, 62497, Note_off_c, 1, 73, 127
1, 62497, Note_off_c, 10, 45, 127
1, 62498, Note_on_c, 2, 74, 127
1, 62498, Note_on_c, 5, 53, 127
1, 62771, Note_off_c, 5, 53, 127
1, 62771, Note_off_c, 2, 74, 127
1, 62772, Note_on_c, 1, 73, 127
1, 62772, Note_on_c, 7, 67, 127
1, 62772, Note_on_c, 4, 52, 127
1, 62781, Note_off_c, 10, 69, 127
1, 63045, Note_off_c, 4, 52, 127
1, 63045, Note_off_c, 7, 67, 127
1, 63045, Note_off_c, 1, 73, 127
1, 63046, Note_on_c, 10, 69, 127
1, 63046, Note_on_c, 2, 74, 127
1, 63046, Note_on_c, 5, 53, 127
1, 63319, Note_off_c, 5, 53, 127
1, 63319, Note_off_c, 2, 74, 127
1, 63319, Note_off_c, 10, 69, 127
1, 63320, Note_on_c, 4, 76, 127
1, 63320, Note_on_c, 11, 70, 127
1, 63320, Note_on_c, 7, 55, 127
1, 63593, Note_off_c, 7, 55, 127
1, 63593, Note_off_c, 11, 70, 127
1, 63593, Note_off_c, 4, 76, 127
1, 63594, Note_on_c, 7, 67, 127
1, 63594, Note_on_c, 4, 64, 127
1, 63594, Note_on_c, 4, 52, 127
1, 63594, Note_on_c, 7, 55, 127
1, 63594, Note_on_c, 1, 49, 127
1, 63594, Note_on_c, 11, 58, 127
1, 64415, Note_off_c, 7, 67, 127
1, 64416, Note_on_c, 10, 69, 127
1, 64552, Note_off_c, 10, 69, 127
1, 64553, Note_on_c, 11, 70, 127
1, 64689, Note_off_c, 11, 70, 127
1, 64689, Note_off_c, 11, 58, 127
1, 64689, Note_off_c, 7, 55, 127
1, 64690, Note_on_c, 10, 69, 127
1, 64690, Note_on_c, 10, 57, 127
1, 64963, Note_off_c, 10, 69, 127
1, 64963, Note_off_c, 1, 49, 127
1, 64963, Note_off_c, 4, 52, 127
1, 64964, Note_on_c, 7, 67, 127
1, 64964, Note_on_c, 12, 47, 127
1, 64974, Note_off_c, 4, 64, 127
1, 65237, Note_off_c, 12, 47, 127
1, 65237, Note_off_c, 7, 67, 127
1, 65238, Note_on_c, 5, 65, 127
1, 65238, Note_on_c, 1, 49, 127
1, 65511, Note_off_c, 1, 49, 127
1, 65511, Note_off_c, 5, 65, 127
1, 65512, Note_on_c, 4, 64, 127
1, 65512, Note_on_c, 10, 45, 127
1, 65785, Note_off_c, 10, 45, 127
1, 65785, Note_off_c, 4, 64, 127
1, 65785, Note_off_c, 10, 57, 127
1, 65786, Note_on_c, 5, 65, 127
1, 65786, Note_on_c, 2, 50, 127
1, 66059, Note_off_c, 5, 65, 127
1, 66060, Note_on_c, 2, 62, 127
1, 66060, Note_on_c, 5, 53, 127
1, 66333, Note_off_c, 5, 53, 127
1, 66333, Note_off_c, 2, 62, 127
1, 66334, Note_on_c, 5, 65, 127
1, 66334, Note_on_c, 10, 57, 127
1, 66607, Note_off_c, 5, 65, 127
1, 66607, Note_off_c, 2, 50, 127
1, 66608, Note_on_c, 10, 69, 127
1, 66608, Note_on_c, 0, 48, 127
1, 66881, Note_off_c, 0, 48, 127
1, 66881, Note_off_c, 10, 69, 127
1, 66882, Note_on_c, 2, 74, 127
1, 66882, Note_on_c, 11, 46, 127
1, 67155, Note_off_c, 2, 74, 127
1, 67155, Note_off_c, 10, 57, 127
1, 67156, Note_on_c, 4, 76, 127
1, 67156, Note_on_c, 2, 50, 127
1, 67292, Note_off_c, 4, 76, 127
1, 67293, Note_on_c, 5, 77, 127
1, 67424, Note_off_c, 11, 46, 127
1, 67428, Note_off_c, 5, 77, 127
1, 67428, Note_off_c, 2, 50, 127
1, 67429, Note_on_c, 4, 76, 127
1, 67429, Note_on_c, 11, 70, 127
1, 67429, Note_on_c, 7, 43, 127
1, 67429, Note_on_c, 7, 55, 127
1, 67702, Note_off_c, 7, 55, 127
1, 67702, Note_off_c, 11, 70, 127
1, 67702, Note_off_c, 4, 76, 127
1, 67703, Note_on_c, 2, 74, 127
1, 67703, Note_on_c, 5, 53, 127
1, 67972, Note_off_c, 7, 43, 127
1, 67976, Note_off_c, 5, 53, 127
1, 67976, Note_off_c, 2, 74, 127
1, 67977, Note_on_c, 1, 73, 127
1, 67977, Note_on_c, 10, 45, 127
1, 67977, Note_on_c, 4, 52, 127
1, 68250, Note_off_c, 1, 73, 127
1, 68251, Note_on_c, 10, 69, 127
1, 68520, Note_off_c, 10, 45, 127
1, 68525, Note_on_c, 10, 81, 127
1, 68661, Note_off_c, 4, 52, 127
1, 68662, Note_on_c, 10, 57, 127
1, 68751, Note_off_c, 10, 69, 127
1, 68798, Note_off_c, 10, 57, 127
1, 68799, Note_on_c, 1, 73, 127
1, 68799, Note_on_c, 10, 45, 127
1, 68935, Note_off_c, 10, 45, 127
1, 68936, Note_on_c, 10, 57, 127
1, 69072, Note_off_c, 10, 57, 127
1, 69072, Note_off_c, 1, 73, 127
1, 69073, Note_on_c, 2, 74, 127
1, 69073, Note_on_c, 12, 47, 127
1, 69209, Note_off_c, 12, 47, 127
1, 69210, Note_on_c, 12, 59, 127
1, 69346, Note_off_c, 12, 59, 127
1, 69346, Note_off_c, 10, 81, 127
1, 69347, Note_on_c, 7, 79, 127
1, 69347, Note_on_c, 12, 47, 127
1, 69483, Note_off_c, 12, 47, 127
1, 69483, Note_off_c, 7, 79, 127
1, 69484, Note_on_c, 6, 78, 127
1, 69484, Note_on_c, 12, 59, 127
1, 69615, Note_off_c, 2, 74, 127
1, 69619, Note_off_c, 12, 59, 127
1, 69619, Note_off_c, 6, 78, 127
1, 69620, Note_on_c, 4, 76, 127
1, 69620, Note_on_c, 7, 79, 127
1, 69620, Note_on_c, 1, 49, 127
1, 69756, Note_off_c, 1, 49, 127
1, 69757, Note_on_c, 1, 61, 127
1, 69893, Note_off_c, 1, 61, 127
1, 69893, Note_off_c, 7, 79, 127
1, 69894, Note_on_c, 7, 79, 127
1, 69894, Note_on_c, 1, 49, 127
1, 70030, Note_off_c, 1, 49, 127
1, 70031, Note_on_c, 1, 61, 127
1, 70162, Note_off_c, 4, 76, 127
1, 70166, Note_off_c, 1, 61, 127
1, 70167, Note_on_c, 10, 69, 127
1, 70167, Note_on_c, 2, 50, 127
1, 70303, Note_off_c, 2, 50, 127
1, 70304, Note_on_c, 6, 54, 127
1, 70435, Note_off_c, 7, 79, 127
1, 70439, Note_off_c, 6, 54, 127
1, 70440, Note_on_c, 6, 78, 127
1, 70440, Note_on_c, 10, 57, 127
1, 70576, Note_off_c, 10, 57, 127
1, 70577, Note_on_c, 2, 62, 127
1, 70706, Note_off_c, 2, 62, 127
1, 70709, Note_off_c, 10, 69, 127
1, 70713, Note_off_c, 6, 78, 127
1, 70714, Note_on_c, 2, 74, 127
1, 70851, Note_on_c, 2, 50, 127
1, 70987, Note_off_c, 2, 50, 127
1, 70988, Note_on_c, 6, 78, 127
1, 70988, Note_on_c, 2, 38, 127
1, 71124, Note_off_c, 2, 38, 127
1, 71125, Note_on_c, 2, 50, 127
1, 71261, Note_off_c, 2, 50, 127
1, 71261, Note_off_c, 6, 78, 127
1, 71262, Note_on_c, 7, 79, 127
1, 71262, Note_on_c, 4, 40, 127
1, 71398, Note_off_c, 4, 40, 127
1, 71399, Note_on_c, 4, 52, 127
1, 71535, Note_off_c, 4, 52, 127
1, 71535, Note_off_c, 2, 74, 127
1, 71536, Note_on_c, 0, 72, 127
1, 71536, Note_on_c, 4, 40, 127
1, 71672, Note_off_c, 4, 40, 127
1, 71672, Note_off_c, 0, 72, 127
1, 71673, Note_on_c, 12, 71, 127
1, 71673, Note_on_c, 4, 52, 127
1, 71804, Note_off_c, 7, 79, 127
1, 71808, Note_off_c, 4, 52, 127
1, 71808, Note_off_c, 12, 71, 127
1, 71809, Note_on_c, 10, 81, 127
1, 71809, Note_on_c, 0, 72, 127
1, 71809, Note_on_c, 6, 42, 127
1, 71945, Note_off_c, 6, 42, 127
1, 71946, Note_on_c, 6, 54, 127
1, 72082, Note_off_c, 6, 54, 127
1, 72082, Note_off_c, 0, 72, 127
1, 72083, Note_on_c, 0, 72, 127
1, 72083, Note_on_c, 6, 42, 127
1, 72219, Note_off_c, 6, 42, 127
1, 72220, Note_on_c, 6, 54, 127
1, 72351, Note_off_c, 10, 81, 127
1, 72355, Note_off_c, 6, 54, 127
1, 72356, Note_on_c, 2, 74, 127
1, 72356, Note_on_c, 7, 43, 127
1, 72492, Note_off_c, 7, 43, 127
1, 72493, Note_on_c, 12, 47, 127
1, 72624, Note_off_c, 0, 72, 127
1, 72628, Note_off_c, 12, 47, 127
1, 72628, Note_off_c, 2, 74, 127
1, 72629, Note_on_c, 12, 71, 127
1, 72629, Note_on_c, 7, 67, 127
1, 72629, Note_on_c, 2, 50, 127
1, 72765, Note_off_c, 2, 50, 127
1, 72766, Note_on_c, 7, 55, 127
1, 72895, Note_off_c, 7, 55, 127
1, 72902, Note_off_c, 7, 67, 127
1, 72903, Note_on_c, 7, 79, 127
1, 73040, Note_on_c, 7, 55, 127
1, 73171, Note_off_c, 12, 71, 127
1, 73175, Note_off_c, 7, 55, 127
1, 73176, Note_on_c, 12, 71, 127
1, 73176, Note_on_c, 7, 43, 127
1, 73312, Note_off_c, 7, 43, 127
1, 73313, Note_on_c, 7, 55, 127
1, 73449, Note_off_c, 7, 55, 127
1, 73449, Note_off_c, 12, 71, 127
1, 73450, Note_on_c, 0, 72, 127
1, 73450, Note_on_c, 10, 45, 127
1, 73586, Note_off_c, 10, 45, 127
1, 73587, Note_on_c, 10, 57, 127
1, 73723, Note_off_c, 10, 57, 127
1, 73723, Note_off_c, 7, 79, 127
1, 73724, Note_on_c, 5, 77, 127
1, 73724, Note_on_c, 10, 45, 127
1, 73860, Note_off_c, 10, 45, 127
1, 73860, Note_off_c, 5, 77, 127
1, 73861, Note_on_c, 4, 76, 127
1, 73861, Note_on_c, 10, 57, 127
1, 73992, Note_off_c, 0, 72, 127
1, 73996, Note_off_c, 10, 57, 127
1, 73996, Note_off_c, 4, 76, 127
1, 73997, Note_on_c, 2, 74, 127
1, 73997, Note_on_c, 5, 77, 127
1, 73997, Note_on_c, 12, 47, 127
1, 74133, Note_off_c, 12, 47, 127
1, 74134, Note_on_c, 12, 59, 127
1, 74270, Note_off_c, 12, 59, 127
1, 74270, Note_off_c, 5, 77, 127
1, 74271, Note_on_c, 5, 77, 127
1, 74271, Note_on_c, 12, 47, 127
1, 74407, Note_off_c, 12, 47, 127
1, 74408, Note_on_c, 12, 59, 127
1, 74539, Note_off_c, 2, 74, 127
1, 74543, Note_off_c, 12, 59, 127
1, 74544, Note_on_c, 7, 67, 127
1, 74544, Note_on_c, 0, 48, 127
1, 74680, Note_off_c, 0, 48, 127
1, 74681, Note_on_c, 4, 52, 127
1, 74812, Note_off_c, 5, 77, 127
1, 74816, Note_off_c, 4, 52, 127
1, 74817, Note_on_c, 4, 76, 127
1, 74817, Note_on_c, 7, 55, 127
1, 74953, Note_off_c, 7, 55, 127
1, 74954, Note_on_c, 0, 60, 127
1, 75083, Note_off_c, 0, 60, 127
1, 75086, Note_off_c, 7, 67, 127
1, 75090, Note_off_c, 4, 76, 127
1, 75091, Note_on_c, 0, 72, 127
1, 75228, Note_on_c, 0, 48, 127
1, 75364, Note_off_c, 0, 48, 127
1, 75365, Note_on_c, 4, 76, 127
1, 75365, Note_on_c, 0, 36, 127
1, 75501, Note_off_c, 0, 36, 127
1, 75502, Note_on_c, 0, 48, 127
1, 75638, Note_off_c, 0, 48, 127
1, 75638, Note_off_c, 4, 76, 127
1, 75639, Note_on_c, 5, 77, 127
1, 75639, Note_on_c, 2, 38, 127
1, 75775, Note_off_c, 2, 38, 127
1, 75776, Note_on_c, 2, 50, 127
1, 75912, Note_off_c, 2, 50, 127
1, 75912, Note_off_c, 0, 72, 127
1, 75913, Note_on_c, 11, 70, 127
1, 75913, Note_on_c, 2, 38, 127
1, 76049, Note_off_c, 2, 38, 127
1, 76049, Note_off_c, 11, 70, 127
1, 76050, Note_on_c, 10, 69, 127
1, 76050, Note_on_c, 2, 50, 127
1, 76181, Note_off_c, 5, 77, 127
1, 76185, Note_off_c, 2, 50, 127
1, 76185, Note_off_c, 10, 69, 127
1, 76186, Note_on_c, 11, 70, 127
1, 76186, Note_on_c, 7, 79, 127
1, 76186, Note_on_c, 4, 40, 127
1, 76322, Note_off_c, 4, 40, 127
1, 76323, Note_on_c, 4, 52, 127
1, 76459, Note_off_c, 4, 52, 127
1, 76459, Note_off_c, 11, 70, 127
1, 76460, Note_on_c, 11, 70, 127
1, 76460, Note_on_c, 4, 40, 127
1, 76596, Note_off_c, 4, 40, 127
1, 76597, Note_on_c, 4, 52, 127
1, 76728, Note_off_c, 7, 79, 127
1, 76732, Note_off_c, 4, 52, 127
1, 76733, Note_on_c, 0, 72, 127
1, 76733, Note_on_c, 5, 41, 127
1, 76869, Note_off_c, 5, 41, 127
1, 76870, Note_on_c, 10, 45, 127
1, 77001, Note_off_c, 11, 70, 127
1, 77005, Note_off_c, 10, 45, 127
1, 77005, Note_off_c, 0, 72, 127
1, 77006, Note_on_c, 10, 69, 127
1, 77006, Note_on_c, 5, 65, 127
1, 77006, Note_on_c, 0, 48, 127
1, 77142, Note_off_c, 0, 48, 127
1, 77143, Note_on_c, 5, 53, 127
1, 77279, Note_off_c, 5, 65, 127
1, 77280, Note_on_c, 5, 77, 127
1, 77406, Note_off_c, 10, 69, 127
1, 77416, Note_off_c, 5, 53, 127
1, 77417, Note_on_c, 5, 53, 127
1, 77553, Note_off_c, 5, 53, 127
1, 77554, Note_on_c, 10, 69, 127
1, 77554, Note_on_c, 5, 41, 127
1, 77690, Note_off_c, 5, 41, 127
1, 77691, Note_on_c, 5, 53, 127
1, 77827, Note_off_c, 5, 53, 127
1, 77827, Note_off_c, 10, 69, 127
1, 77828, Note_on_c, 11, 70, 127
1, 77828, Note_on_c, 7, 43, 127
1, 77964, Note_off_c, 7, 43, 127
1, 77965, Note_on_c, 7, 55, 127
1, 78101, Note_off_c, 7, 55, 127
1, 78101, Note_off_c, 5, 77, 127
1, 78102, Note_on_c, 3, 75, 127
1, 78102, Note_on_c, 7, 43, 127
1, 78238, Note_off_c, 7, 43, 127
1, 78238, Note_off_c, 3, 75, 127
1, 78239, Note_on_c, 2, 74, 127
1, 78239, Note_on_c, 7, 55, 127
1, 78370, Note_off_c, 11, 70, 127
1, 78374, Note_off_c, 7, 55, 127
1, 78374, Note_off_c, 2, 74, 127
1, 78375, Note_on_c, 3, 75, 127
1, 78375, Note_on_c, 0, 72, 127
1, 78375, Note_on_c, 10, 45, 127
1, 78511, Note_off_c, 10, 45, 127
1, 78512, Note_on_c, 10, 57, 127
1, 78648, Note_off_c, 10, 57, 127
1, 78648, Note_off_c, 3, 75, 127
1, 78649, Note_on_c, 3, 75, 127
1, 78649, Note_on_c, 10, 45, 127
1, 78785, Note_off_c, 10, 45, 127
1, 78786, Note_on_c, 10, 57, 127
1, 78917, Note_off_c, 0, 72, 127
1, 78921, Note_off_c, 10, 57, 127
1, 78922, Note_on_c, 5, 65, 127
1, 78922, Note_on_c, 11, 46, 127
1, 79058, Note_off_c, 11, 46, 127
1, 79059, Note_on_c, 2, 50, 127
1, 79190, Note_off_c, 3, 75, 127
1, 79194, Note_off_c, 2, 50, 127
1, 79195, Note_on_c, 2, 74, 127
1, 79195, Note_on_c, 5, 53, 127
1, 79331, Note_off_c, 5, 53, 127
1, 79332, Note_on_c, 11, 58, 127
1, 79461, Note_off_c, 11, 58, 127
1, 79464, Note_off_c, 5, 65, 127
1, 79468, Note_off_c, 2, 74, 127
1, 79475, Note_on_c, 11, 70, 127
1, 79611, Note_off_c, 11, 70, 127
1, 79622, Note_on_c, 2, 74, 127
1, 79758, Note_off_c, 2, 74, 127
1, 79759, Note_on_c, 0, 72, 127
1, 79895, Note_off_c, 0, 72, 127
1, 79896, Note_on_c, 11, 70, 127
1, 80032, Note_off_c, 11, 70, 127
1, 80033, Note_on_c, 11, 46, 127
1, 80033, Note_on_c, 5, 77, 127
1, 80169, Note_off_c, 5, 77, 127
1, 80170, Note_on_c, 2, 74, 127
1, 80306, Note_off_c, 2, 74, 127
1, 80307, Note_on_c, 3, 75, 127
1, 80443, Note_off_c, 3, 75, 127
1, 80444, Note_on_c, 0, 72, 127
1, 80580, Note_off_c, 0, 72, 127
1, 80580, Note_off_c, 11, 46, 127
1, 80581, Note_on_c, 5, 53, 127
1, 80581, Note_on_c, 2, 74, 127
1, 80717, Note_off_c, 2, 74, 127
1, 80718, Note_on_c, 11, 70, 127
1, 80854, Note_off_c, 11, 70, 127
1, 80854, Note_off_c, 5, 53, 127
1, 80855, Note_on_c, 5, 41, 127
1, 80855, Note_on_c, 0, 72, 127
1, 80991, Note_off_c, 0, 72, 127
1, 80992, Note_on_c, 10, 69, 127
1, 81128, Note_off_c, 10, 69, 127
1, 81128, Note_off_c, 5, 41, 127
1, 81129, Note_on_c, 11, 46, 127
1, 81129, Note_on_c, 11, 70, 127
1, 81265, Note_off_c, 11, 70, 127
1, 81266, Note_on_c, 2, 74, 127
1, 81402, Note_off_c, 2, 74, 127
1, 81403, Note_on_c, 0, 72, 127
1, 81539, Note_off_c, 0, 72, 127
1, 81540, Note_on_c, 11, 70, 127
1, 81676, Note_off_c, 11, 70, 127
1, 81677, Note_on_c, 5, 77, 127
1, 81813, Note_off_c, 5, 77, 127
1, 81814, Note_on_c, 2, 74, 127
1, 81950, Note_off_c, 2, 74, 127
1, 81950, Note_off_c, 11, 46, 127
1, 81951, Note_on_c, 0, 72, 127
1, 82087, Note_off_c, 0, 72, 127
1, 82088, Note_on_c, 11, 70, 127
1, 82224, Note_off_c, 11, 70, 127
1, 82225, Note_on_c, 11, 46, 127
1, 82225, Note_on_c, 5, 77, 127
1, 82361, Note_off_c, 5, 77, 127
1, 82361, Note_off_c, 11, 46, 127
1, 82362, Note_on_c, 2, 50, 127
1, 82362, Note_on_c, 3, 75, 127
1, 82429, Note_off_c, 3, 75, 127
1, 82430, Note_on_c, 2, 74, 127
1, 82497, Note_off_c, 2, 74, 127
1, 82497, Note_off_c, 2, 50, 127
1, 82498, Note_on_c, 0, 48, 127
1, 82498, Note_on_c, 3, 75, 127
1, 82634, Note_off_c, 3, 75, 127
1, 82634, Note_off_c, 0, 48, 127
1, 82635, Note_on_c, 11, 46, 127
1, 82635, Note_on_c, 2, 74, 127
1, 82702, Note_off_c, 2, 74, 127
1, 82703, Note_on_c, 0, 72, 127
1, 82770, Note_off_c, 0, 72, 127
1, 82770, Note_off_c, 11, 46, 127
1, 82771, Note_on_c, 5, 53, 127
1, 82771, Note_on_c, 2, 74, 127
1, 82907, Note_off_c, 2, 74, 127
1, 82907, Note_off_c, 5, 53, 127
1, 82908, Note_on_c, 2, 50, 127
1, 82908, Note_on_c, 0, 72, 127
1, 82975, Note_off_c, 0, 72, 127
1, 82976, Note_on_c, 11, 70, 127
1, 83043, Note_off_c, 11, 70, 127
1, 83043, Note_off_c, 2, 50, 127
1, 83044, Note_on_c, 3, 51, 127
1, 83044, Note_on_c, 0, 72, 127
1, 83180, Note_off_c, 0, 72, 127
1, 83180, Note_off_c, 3, 51, 127
1, 83181, Note_on_c, 5, 53, 127
1, 83181, Note_on_c, 11, 70, 127
1, 83248, Note_off_c, 11, 70, 127
1, 83249, Note_on_c, 10, 69, 127
1, 83316, Note_off_c, 10, 69, 127
1, 83316, Note_off_c, 5, 53, 127
1, 83317, Note_on_c, 11, 46, 127
1, 83317, Note_on_c, 11, 70, 127
1, 83453, Note_off_c, 11, 70, 127
1, 83454, Note_on_c, 2, 74, 127
1, 83590, Note_off_c, 2, 74, 127
1, 83591, Note_on_c, 0, 72, 127
1, 83727, Note_off_c, 0, 72, 127
1, 83728, Note_on_c, 11, 70, 127
1, 83859, Note_off_c, 11, 46, 127
1, 83863, Note_off_c, 11, 70, 127
1, 83864, Note_on_c, 5, 77, 127
1, 84000, Note_off_c, 5, 77, 127
1, 84001, Note_on_c, 2, 74, 127
1, 84131, Note_off_c, 2, 74, 127
1, 84138, Note_on_c, 0, 72, 127
1, 84268, Note_off_c, 0, 72, 127
1, 84275, Note_on_c, 12, 71, 127
1, 84405, Note_off_c, 12, 71, 127
1, 84412, Note_on_c, 0, 48, 127
1, 84412, Note_on_c, 7, 79, 127
1, 84548, Note_off_c, 7, 79, 127
1, 84549, Note_on_c, 3, 75, 127
1, 84685, Note_off_c, 3, 75, 127
1, 84686, Note_on_c, 5, 77, 127
1, 84822, Note_off_c, 5, 77, 127
1, 84823, Note_on_c, 2, 74, 127
1, 84959, Note_off_c, 2, 74, 127
1, 84959, Note_off_c, 0, 48, 127
1, 84960, Note_on_c, 7, 55, 127
1, 84960, Note_on_c, 3, 75, 127
1, 85096, Note_off_c, 3, 75, 127
1, 85097, Note_on_c, 0, 72, 127
1, 85233, Note_off_c, 0, 72, 127
1, 85233, Note_off_c, 7, 55, 127
1, 85234, Note_on_c, 7, 43, 127
1, 85234, Note_on_c, 2, 74, 127
1, 85370, Note_off_c, 2, 74, 127
1, 85371, Note_on_c, 12, 71, 127
1, 85507, Note_off_c, 12, 71, 127
1, 85507, Note_off_c, 7, 43, 127
1, 85508, Note_on_c, 0, 48, 127
1, 85508, Note_on_c, 0, 72, 127
1, 85644, Note_off_c, 0, 72, 127
1, 85645, Note_on_c, 3, 75, 127
1, 85781, Note_off_c, 3, 75, 127
1, 85782, Note_on_c, 2, 74, 127
1, 85918, Note_off_c, 2, 74, 127
1, 85919, Note_on_c, 0, 72, 127
1, 86055, Note_off_c, 0, 72, 127
1, 86056, Note_on_c, 7, 79, 127
1, 86192, Note_off_c, 7, 79, 127
1, 86193, Note_on_c, 3, 75, 127
1, 86329, Note_off_c, 3, 75, 127
1, 86329, Note_off_c, 0, 48, 127
1, 86330, Note_on_c, 2, 74, 127
1, 86466, Note_off_c, 2, 74, 127
1, 86467, Note_on_c, 0, 72, 127
1, 86603, Note_off_c, 0, 72, 127
1, 86604, Note_on_c, 0, 48, 127
1, 86604, Note_on_c, 7, 79, 127
1, 86740, Note_off_c, 7, 79, 127
1, 86740, Note_off_c, 0, 48, 127
1, 86741, Note_on_c, 3, 51, 127
1, 86741, Note_on_c, 5, 77, 127
1, 86808, Note_off_c, 5, 77, 127
1, 86809, Note_on_c, 3, 75, 127
1, 86876, Note_off_c, 3, 75, 127
1, 86876, Note_off_c, 3, 51, 127
1, 86877, Note_on_c, 2, 50, 127
1, 86877, Note_on_c, 5, 77, 127
1, 87013, Note_off_c, 5, 77, 127
1, 87013, Note_off_c, 2, 50, 127
1, 87014, Note_on_c, 0, 48, 127
1, 87014, Note_on_c, 3, 75, 127
1, 87081, Note_off_c, 3, 75, 127
1, 87082, Note_on_c, 2, 74, 127
1, 87149, Note_off_c, 2, 74, 127
1, 87149, Note_off_c, 0, 48, 127
1, 87150, Note_on_c, 7, 55, 127
1, 87150, Note_on_c, 3, 75, 127
1, 87286, Note_off_c, 3, 75, 127
1, 87286, Note_off_c, 7, 55, 127
1, 87287, Note_on_c, 3, 51, 127
1, 87287, Note_on_c, 2, 74, 127
1, 87354, Note_off_c, 2, 74, 127
1, 87355, Note_on_c, 0, 72, 127
1, 87422, Note_off_c, 0, 72, 127
1, 87422, Note_off_c, 3, 51, 127
1, 87423, Note_on_c, 5, 53, 127
1, 87423, Note_on_c, 2, 74, 127
1, 87559, Note_off_c, 2, 74, 127
1, 87559, Note_off_c, 5, 53, 127
1, 87560, Note_on_c, 7, 55, 127
1, 87560, Note_on_c, 0, 72, 127
1, 87627, Note_off_c, 0, 72, 127
1, 87628, Note_on_c, 12, 71, 127
1, 87695, Note_off_c, 12, 71, 127
1, 87695, Note_off_c, 7, 55, 127
1, 87696, Note_on_c, 0, 48, 127
1, 87696, Note_on_c, 0, 72, 127
1, 87832, Note_off_c, 0, 72, 127
1, 87833, Note_on_c, 3, 75, 127
1, 87969, Note_off_c, 3, 75, 127
1, 87970, Note_on_c, 2, 74, 127
1, 88106, Note_off_c, 2, 74, 127
1, 88107, Note_on_c, 0, 72, 127
1, 88238, Note_off_c, 0, 48, 127
1, 88242, Note_off_c, 0, 72, 127
1, 88243, Note_on_c, 7, 79, 127
1, 88379, Note_off_c, 7, 79, 127
1, 88380, Note_on_c, 4, 76, 127
1, 88510, Note_off_c, 4, 76, 127
1, 88517, Note_on_c, 2, 74, 127
1, 88647, Note_off_c, 2, 74, 127
1, 88654, Note_on_c, 1, 73, 127
1, 88784, Note_off_c, 1, 73, 127
1, 88791, Note_on_c, 2, 50, 127
1, 88791, Note_on_c, 10, 81, 127
1, 88927, Note_off_c, 10, 81, 127
1, 88928, Note_on_c, 5, 77, 127
1, 89064, Note_off_c, 5, 77, 127
1, 89065, Note_on_c, 7, 79, 127
1, 89201, Note_off_c, 7, 79, 127
1, 89202, Note_on_c, 4, 76, 127
1, 89338, Note_off_c, 4, 76, 127
1, 89338, Note_off_c, 2, 50, 127
1, 89339, Note_on_c, 10, 57, 127
1, 89339, Note_on_c, 5, 77, 127
1, 89475, Note_off_c, 5, 77, 127
1, 89476, Note_on_c, 2, 74, 127
1, 89612, Note_off_c, 2, 74, 127
1, 89612, Note_off_c, 10, 57, 127
1, 89613, Note_on_c, 10, 45, 127
1, 89613, Note_on_c, 4, 76, 127
1, 89749, Note_off_c, 4, 76, 127
1, 89750, Note_on_c, 1, 73, 127
1, 89886, Note_off_c, 1, 73, 127
1, 89886, Note_off_c, 10, 45, 127
1, 89887, Note_on_c, 2, 50, 127
1, 89887, Note_on_c, 2, 74, 127
1, 90023, Note_off_c, 2, 74, 127
1, 90024, Note_on_c, 5, 77, 127
1, 90160, Note_off_c, 5, 77, 127
1, 90161, Note_on_c, 4, 76, 127
1, 90297, Note_off_c, 4, 76, 127
1, 90298, Note_on_c, 2, 74, 127
1, 90434, Note_off_c, 2, 74, 127
1, 90435, Note_on_c, 10, 81, 127
1, 90571, Note_off_c, 10, 81, 127
1, 90572, Note_on_c, 5, 77, 127
1, 90708, Note_off_c, 5, 77, 127
1, 90708, Note_off_c, 2, 50, 127
1, 90709, Note_on_c, 4, 76, 127
1, 90845, Note_off_c, 4, 76, 127
1, 90846, Note_on_c, 2, 74, 127
1, 90982, Note_off_c, 2, 74, 127
1, 90983, Note_on_c, 2, 50, 127
1, 90983, Note_on_c, 10, 81, 127
1, 91119, Note_off_c, 10, 81, 127
1, 91119, Note_off_c, 2, 50, 127
1, 91120, Note_on_c, 5, 53, 127
1, 91120, Note_on_c, 7, 79, 127
1, 91187, Note_off_c, 7, 79, 127
1, 91188, Note_on_c, 5, 77, 127
1, 91255, Note_off_c, 5, 77, 127
1, 91255, Note_off_c, 5, 53, 127
1, 91256, Note_on_c, 4, 52, 127
1, 91256, Note_on_c, 7, 79, 127
1, 91392, Note_off_c, 7, 79, 127
1, 91392, Note_off_c, 4, 52, 127
1, 91393, Note_on_c, 2, 50, 127
1, 91393, Note_on_c, 5, 77, 127
1, 91460, Note_off_c, 5, 77, 127
1, 91461, Note_on_c, 4, 76, 127
1, 91528, Note_off_c, 4, 76, 127
1, 91528, Note_off_c, 2, 50, 127
1, 91529, Note_on_c, 10, 57, 127
1, 91529, Note_on_c, 5, 77, 127
1, 91665, Note_off_c, 5, 77, 127
1, 91665, Note_off_c, 10, 57, 127
1, 91666, Note_on_c, 5, 53, 127
1, 91666, Note_on_c, 4, 76, 127
1, 91733, Note_off_c, 4, 76, 127
1, 91734, Note_on_c, 2, 74, 127
1, 91801, Note_off_c, 2, 74, 127
1, 91801, Note_off_c, 5, 53, 127
1, 91802, Note_on_c, 7, 55, 127
1, 91802, Note_on_c, 4, 76, 127
1, 91938, Note_off_c, 4, 76, 127
1, 91938, Note_off_c, 7, 55, 127
1, 91939, Note_on_c, 10, 57, 127
1, 91939, Note_on_c, 2, 74, 127
1, 92006, Note_off_c, 2, 74, 127
1, 92007, Note_on_c, 1, 73, 127
1, 92074, Note_off_c, 1, 73, 127
1, 92074, Note_off_c, 10, 57, 127
1, 92075, Note_on_c, 2, 50, 127
1, 92075, Note_on_c, 2, 74, 127
1, 92211, Note_off_c, 2, 74, 127
1, 92212, Note_on_c, 5, 77, 127
1, 92348, Note_off_c, 5, 77, 127
1, 92349, Note_on_c, 2, 62, 127
1, 92349, Note_on_c, 4, 76, 127
1, 92395, Note_off_c, 2, 50, 127
1, 92485, Note_off_c, 4, 76, 127
1, 92486, Note_on_c, 2, 74, 127
1, 92622, Note_off_c, 2, 74, 127
1, 92623, Note_on_c, 10, 81, 127
1, 92759, Note_off_c, 10, 81, 127
1, 92759, Note_off_c, 2, 62, 127
1, 92760, Note_on_c, 2, 62, 127
1, 92760, Note_on_c, 5, 77, 127
1, 92896, Note_off_c, 5, 77, 127
1, 92896, Note_off_c, 2, 62, 127
1, 92897, Note_on_c, 4, 64, 127
1, 92897, Note_on_c, 4, 76, 127
1, 93033, Note_off_c, 4, 76, 127
1, 93033, Note_off_c, 4, 64, 127
1, 93034, Note_on_c, 5, 65, 127
1, 93034, Note_on_c, 2, 74, 127
1, 93170, Note_off_c, 2, 74, 127
1, 93170, Note_off_c, 5, 65, 127
1, 93171, Note_on_c, 7, 55, 127
1, 93171, Note_on_c, 11, 82, 127
1, 93307, Note_off_c, 11, 82, 127
1, 93308, Note_on_c, 7, 79, 127
1, 93444, Note_off_c, 7, 79, 127
1, 93444, Note_off_c, 7, 55, 127
1, 93445, Note_on_c, 5, 65, 127
1, 93445, Note_on_c, 10, 81, 127
1, 93581, Note_off_c, 10, 81, 127
1, 93582, Note_on_c, 5, 77, 127
1, 93716, Note_off_c, 5, 65, 127
1, 93717, Note_off_c, 5, 77, 127
1, 93718, Note_on_c, 7, 79, 127
1, 93854, Note_off_c, 7, 79, 127
1, 93855, Note_on_c, 7, 67, 127
1, 93855, Note_on_c, 3, 75, 127
1, 93991, Note_off_c, 3, 75, 127
1, 93991, Note_off_c, 7, 67, 127
1, 93992, Note_on_c, 10, 69, 127
1, 93992, Note_on_c, 5, 77, 127
1, 94128, Note_off_c, 5, 77, 127
1, 94128, Note_off_c, 10, 69, 127
1, 94129, Note_on_c, 11, 70, 127
1, 94129, Note_on_c, 2, 74, 127
1, 94265, Note_off_c, 2, 74, 127
1, 94265, Note_off_c, 11, 70, 127
1, 94266, Note_on_c, 0, 60, 127
1, 94266, Note_on_c, 3, 75, 127
1, 94402, Note_off_c, 3, 75, 127
1, 94402, Note_off_c, 0, 60, 127
1, 94403, Note_on_c, 10, 69, 127
1, 94403, Note_on_c, 2, 74, 127
1, 94470, Note_off_c, 2, 74, 127
1, 94471, Note_on_c, 0, 72, 127
1, 94538, Note_off_c, 0, 72, 127
1, 94538, Note_off_c, 10, 69, 127
1, 94539, Note_on_c, 11, 58, 127
1, 94539, Note_on_c, 2, 74, 127
1, 94675, Note_off_c, 2, 74, 127
1, 94675, Note_off_c, 11, 58, 127
1, 94676, Note_on_c, 7, 67, 127
1, 94676, Note_on_c, 0, 72, 127
1, 94743, Note_off_c, 0, 72, 127
1, 94744, Note_on_c, 11, 70, 127
1, 94811, Note_off_c, 11, 70, 127
1, 94811, Note_off_c, 7, 67, 127
1, 94812, Note_on_c, 10, 57, 127
1, 94812, Note_on_c, 0, 72, 127
1, 94948, Note_off_c, 0, 72, 127
1, 94948, Note_off_c, 10, 57, 127
1, 94949, Note_on_c, 5, 65, 127
1, 94949, Note_on_c, 11, 70, 127
1, 95016, Note_off_c, 11, 70, 127
1, 95017, Note_on_c, 10, 69, 127
1, 95084, Note_off_c, 10, 69, 127
1, 95084, Note_off_c, 5, 65, 127
1, 95085, Note_on_c, 7, 55, 127
1, 95085, Note_on_c, 11, 70, 127
1, 95221, Note_off_c, 11, 70, 127
1, 95221, Note_off_c, 7, 55, 127
1, 95222, Note_on_c, 4, 64, 127
1, 95222, Note_on_c, 10, 69, 127
1, 95289, Note_off_c, 10, 69, 127
1, 95290, Note_on_c, 7, 67, 127
1, 95357, Note_off_c, 7, 67, 127
1, 95357, Note_off_c, 4, 64, 127
1, 95358, Note_on_c, 5, 53, 127
1, 95358, Note_on_c, 10, 69, 127
1, 95631, Note_off_c, 10, 69, 127
1, 95631, Note_off_c, 5, 53, 127
1, 95632, Note_on_c, 5, 65, 127
1, 95632, Note_on_c, 10, 69, 127
1, 95769, Note_on_c, 11, 70, 127
1, 95905, Note_off_c, 11, 70, 127
1, 95906, Note_on_c, 0, 72, 127
1, 96032, Note_off_c, 5, 65, 127
1, 96175, Note_off_c, 10, 69, 127
1, 96179, Note_off_c, 0, 72, 127
1, 96180, Note_on_c, 10, 57, 127
1, 96180, Note_on_c, 7, 79, 127
1, 96317, Note_on_c, 11, 58, 127
1, 96453, Note_off_c, 11, 58, 127
1, 96454, Note_on_c, 0, 60, 127
1, 96723, Note_off_c, 10, 57, 127
1, 96727, Note_off_c, 0, 60, 127
1, 96727, Note_off_c, 7, 79, 127
1, 96728, Note_on_c, 7, 67, 127
1, 96728, Note_on_c, 10, 69, 127
1, 96865, Note_on_c, 11, 70, 127
1, 97001, Note_off_c, 11, 70, 127
1, 97002, Note_on_c, 0, 72, 127
1, 97271, Note_off_c, 10, 69, 127
1, 97275, Note_off_c, 0, 72, 127
1, 97275, Note_off_c, 7, 67, 127
1, 97276, Note_on_c, 10, 57, 127
1, 97276, Note_on_c, 5, 77, 127
1, 97413, Note_on_c, 11, 58, 127
1, 97549, Note_off_c, 11, 58, 127
1, 97550, Note_on_c, 0, 60, 127
1, 97819, Note_off_c, 10, 57, 127
1, 97823, Note_off_c, 0, 60, 127
1, 97823, Note_off_c, 5, 77, 127
1, 97824, Note_on_c, 5, 65, 127
1, 97824, Note_on_c, 10, 69, 127
1, 97961, Note_on_c, 11, 70, 127
1, 98097, Note_off_c, 11, 70, 127
1, 98098, Note_on_c, 0, 72, 127
1, 98367, Note_off_c, 10, 69, 127
1, 98371, Note_off_c, 0, 72, 127
1, 98371, Note_off_c, 5, 65, 127
1, 98372, Note_on_c, 10, 57, 127
1, 98372, Note_on_c, 3, 75, 127
1, 98509, Note_on_c, 11, 58, 127
1, 98645, Note_off_c, 11, 58, 127
1, 98646, Note_on_c, 0, 60, 127
1, 98782, Note_off_c, 3, 75, 127
1, 98783, Note_on_c, 5, 65, 127
1, 98914, Note_off_c, 10, 57, 127
1, 98918, Note_off_c, 0, 60, 127
1, 98919, Note_on_c, 3, 63, 127
1, 98919, Note_on_c, 10, 69, 127
1, 99055, Note_off_c, 10, 69, 127
1, 99056, Note_on_c, 11, 70, 127
1, 99182, Note_off_c, 5, 65, 127
1, 99192, Note_off_c, 11, 70, 127
1, 99193, Note_on_c, 0, 72, 127
1, 99319, Note_off_c, 3, 63, 127
1, 99329, Note_off_c, 0, 72, 127
1, 99330, Note_on_c, 5, 53, 127
1, 99330, Note_on_c, 2, 74, 127
1, 99466, Note_off_c, 2, 74, 127
1, 99466, Note_off_c, 5, 53, 127
1, 99467, Note_on_c, 7, 55, 127
1, 99467, Note_on_c, 0, 72, 127
1, 99467, Note_on_c, 3, 75, 127
1, 99467, Note_on_c, 5, 65, 127
1, 99603, Note_off_c, 7, 55, 127
1, 99604, Note_on_c, 10, 57, 127
1, 99740, Note_off_c, 10, 57, 127
1, 99740, Note_off_c, 5, 65, 127
1, 99740, Note_off_c, 3, 75, 127
1, 99740, Note_off_c, 0, 72, 127
1, 99741, Note_on_c, 5, 65, 127
1, 99741, Note_on_c, 11, 58, 127
1, 99741, Note_on_c, 11, 70, 127
1, 99741, Note_on_c, 2, 74, 127
1, 100014, Note_off_c, 2, 74, 127
1, 100014, Note_off_c, 11, 70, 127
1, 100014, Note_off_c, 5, 65, 127
1, 100015, Note_on_c, 11, 70, 127
1, 100015, Note_on_c, 11, 82, 127
1, 100015, Note_on_c, 2, 74, 127
1, 100151, Note_off_c, 2, 74, 127
1, 100151, Note_off_c, 11, 70, 127
1, 100152, Note_on_c, 10, 69, 127
1, 100152, Note_on_c, 0, 72, 127
1, 100283, Note_off_c, 11, 58, 127
1, 100287, Note_off_c, 0, 72, 127
1, 100287, Note_off_c, 10, 69, 127
1, 100288, Note_on_c, 11, 70, 127
1, 100288, Note_on_c, 2, 74, 127
1, 100557, Note_off_c, 11, 82, 127
1, 100561, Note_off_c, 2, 74, 127
1, 100561, Note_off_c, 11, 70, 127
1, 100562, Note_on_c, 11, 58, 127
1, 100562, Note_on_c, 5, 65, 127
1, 100562, Note_on_c, 11, 82, 127
1, 100562, Note_on_c, 2, 74, 127
1, 100835, Note_off_c, 2, 74, 127
1, 100835, Note_off_c, 5, 65, 127
1, 100835, Note_off_c, 11, 58, 127
1, 100836, Note_on_c, 0, 60, 127
1, 100836, Note_on_c, 3, 63, 127
1, 100836, Note_on_c, 3, 75, 127
1, 101105, Note_off_c, 11, 82, 127
1, 101109, Note_off_c, 3, 75, 127
1, 101109, Note_off_c, 3, 63, 127
1, 101109, Note_off_c, 0, 60, 127
1, 101110, Note_on_c, 0, 72, 127
1, 101110, Note_on_c, 3, 75, 127
1, 101110, Note_on_c, 11, 82, 127
1, 101246, Note_off_c, 3, 75, 127
1, 101246, Note_off_c, 0, 72, 127
1, 101247, Note_on_c, 11, 70, 127
1, 101247, Note_on_c, 2, 74, 127
1, 101383, Note_off_c, 2, 74, 127
1, 101383, Note_off_c, 11, 70, 127
1, 101384, Note_on_c, 0, 72, 127
1, 101384, Note_on_c, 3, 75, 127
1, 101653, Note_off_c, 11, 82, 127
1, 101657, Note_off_c, 3, 75, 127
1, 101657, Note_off_c, 0, 72, 127
1, 101658, Note_on_c, 7, 67, 127
1, 101658, Note_on_c, 0, 60, 127
1, 101658, Note_on_c, 3, 75, 127
1, 101658, Note_on_c, 11, 82, 127
1, 101931, Note_off_c, 3, 75, 127
1, 101931, Note_off_c, 0, 60, 127
1, 101931, Note_off_c, 7, 67, 127
1, 101932, Note_on_c, 5, 65, 127
1, 101932, Note_on_c, 2, 62, 127
1, 101932, Note_on_c, 5, 77, 127
1, 102201, Note_off_c, 11, 82, 127
1, 102205, Note_off_c, 5, 77, 127
1, 102205, Note_off_c, 2, 62, 127
1, 102205, Note_off_c, 5, 65, 127
1, 102206, Note_on_c, 2, 74, 127
1, 102206, Note_on_c, 11, 82, 127
1, 102206, Note_on_c, 5, 77, 127
1, 102342, Note_off_c, 5, 77, 127
1, 102342, Note_off_c, 2, 74, 127
1, 102343, Note_on_c, 0, 72, 127
1, 102343, Note_on_c, 3, 75, 127
1, 102479, Note_off_c, 3, 75, 127
1, 102479, Note_off_c, 0, 72, 127
1, 102480, Note_on_c, 2, 74, 127
1, 102480, Note_on_c, 5, 77, 127
1, 102749, Note_off_c, 11, 82, 127
1, 102753, Note_off_c, 5, 77, 127
1, 102753, Note_off_c, 2, 74, 127
1, 102754, Note_on_c, 2, 62, 127
1, 102754, Note_on_c, 11, 70, 127
1, 102754, Note_on_c, 5, 77, 127
1, 102754, Note_on_c, 11, 82, 127
1, 103027, Note_off_c, 5, 77, 127
1, 103027, Note_off_c, 11, 70, 127
1, 103027, Note_off_c, 2, 62, 127
1, 103028, Note_on_c, 3, 63, 127
1, 103028, Note_on_c, 7, 67, 127
1, 103028, Note_on_c, 7, 79, 127
1, 103297, Note_off_c, 11, 82, 127
1, 103301, Note_off_c, 7, 79, 127
1, 103301, Note_off_c, 7, 67, 127
1, 103301, Note_off_c, 3, 63, 127
1, 103302, Note_on_c, 3, 75, 127
1, 103302, Note_on_c, 7, 79, 127
1, 103302, Note_on_c, 11, 82, 127
1, 103438, Note_off_c, 7, 79, 127
1, 103438, Note_off_c, 3, 75, 127
1, 103439, Note_on_c, 2, 74, 127
1, 103439, Note_on_c, 5, 77, 127
1, 103575, Note_off_c, 5, 77, 127
1, 103575, Note_off_c, 2, 74, 127
1, 103576, Note_on_c, 3, 75, 127
1, 103576, Note_on_c, 7, 79, 127
1, 103845, Note_off_c, 11, 82, 127
1, 103849, Note_off_c, 7, 79, 127
1, 103849, Note_off_c, 3, 75, 127
1, 103850, Note_on_c, 2, 74, 127
1, 103850, Note_on_c, 11, 58, 127
1, 103850, Note_on_c, 5, 77, 127
1, 103850, Note_on_c, 11, 82, 127
1, 104123, Note_off_c, 5, 77, 127
1, 104123, Note_off_c, 11, 58, 127
1, 104123, Note_off_c, 2, 74, 127
1, 104124, Note_on_c, 5, 65, 127
1, 104124, Note_on_c, 5, 77, 127
1, 104124, Note_on_c, 0, 72, 127
1, 104260, Note_off_c, 5, 65, 127
1, 104261, Note_on_c, 11, 70, 127
1, 104392, Note_off_c, 11, 82, 127
1, 104396, Note_off_c, 11, 70, 127
1, 104397, Note_on_c, 10, 69, 127
1, 104397, Note_on_c, 11, 82, 127
1, 104533, Note_off_c, 10, 69, 127
1, 104534, Note_on_c, 7, 67, 127
1, 104665, Note_off_c, 0, 72, 127
1, 104665, Note_off_c, 5, 77, 127
1, 104669, Note_off_c, 7, 67, 127
1, 104670, Note_on_c, 5, 65, 127
1, 104670, Note_on_c, 0, 72, 127
1, 104670, Note_on_c, 3, 75, 127
1, 104806, Note_off_c, 5, 65, 127
1, 104807, Note_on_c, 3, 63, 127
1, 104938, Note_off_c, 11, 82, 127
1, 104942, Note_off_c, 3, 63, 127
1, 104943, Note_on_c, 2, 62, 127
1, 104943, Note_on_c, 10, 81, 127
1, 105079, Note_off_c, 2, 62, 127
1, 105080, Note_on_c, 0, 60, 127
1, 105211, Note_off_c, 3, 75, 127
1, 105211, Note_off_c, 0, 72, 127
1, 105215, Note_off_c, 0, 60, 127
1, 105215, Note_off_c, 10, 81, 127
1, 105216, Note_on_c, 11, 58, 127
1, 105216, Note_on_c, 11, 70, 127
1, 105362, Note_off_c, 11, 70, 127
1, 105365, Note_on_c, 2, 74, 127
1, 105501, Note_off_c, 2, 74, 127
1, 105506, Note_on_c, 0, 72, 127
1, 105642, Note_off_c, 0, 72, 127
1, 105643, Note_on_c, 11, 70, 127
1, 105758, Note_off_c, 11, 58, 127
1, 105778, Note_off_c, 11, 70, 127
1, 105779, Note_on_c, 5, 77, 127
1, 105915, Note_off_c, 5, 77, 127
1, 105916, Note_on_c, 10, 81, 127
1, 106052, Note_off_c, 10, 81, 127
1, 106053, Note_on_c, 7, 79, 127
1, 106189, Note_off_c, 7, 79, 127
1, 106190, Note_on_c, 5, 77, 127
1, 106326, Note_off_c, 5, 77, 127
1, 106327, Note_on_c, 11, 82, 127
1, 106464, Note_on_c, 11, 58, 127
1, 106600, Note_off_c, 11, 58, 127
1, 106601, Note_on_c, 10, 57, 127
1, 106737, Note_off_c, 10, 57, 127
1, 106738, Note_on_c, 7, 55, 127
1, 106874, Note_off_c, 7, 55, 127
1, 106875, Note_on_c, 5, 53, 127
1, 107011, Note_off_c, 5, 53, 127
1, 107012, Note_on_c, 3, 51, 127
1, 107148, Note_off_c, 3, 51, 127
1, 107149, Note_on_c, 2, 50, 127
1, 107285, Note_off_c, 2, 50, 127
1, 107286, Note_on_c, 0, 48, 127
1, 107422, Note_off_c, 0, 48, 127
1, 107422, Note_off_c, 11, 82, 127
1, 107423, Note_on_c, 11, 70, 127
1, 107423, Note_on_c, 11, 46, 127
1, 107552, Note_on_c, 0, 72, 127
1, 107559, Note_off_c, 11, 70, 127
1, 107619, Note_off_c, 0, 72, 127
1, 107625, Note_on_c, 2, 74, 127
1, 107692, Note_off_c, 2, 74, 127
1, 107698, Note_on_c, 0, 72, 127
1, 107827, Note_on_c, 2, 74, 127
1, 107834, Note_off_c, 0, 72, 127
1, 107894, Note_off_c, 2, 74, 127
1, 107900, Note_on_c, 11, 70, 127
1, 107967, Note_off_c, 11, 70, 127
1, 107967, Note_off_c, 11, 46, 127
1, 107973, Note_on_c, 5, 77, 127
1, 108102, Note_on_c, 7, 79, 127
1, 108109, Note_off_c, 5, 77, 127
1, 108169, Note_off_c, 7, 79, 127
1, 108175, Note_on_c, 10, 81, 127
1, 108242, Note_off_c, 10, 81, 127
1, 108248, Note_on_c, 7, 79, 127
1, 108377, Note_on_c, 10, 81, 127
1, 108384, Note_off_c, 7, 79, 127
1, 108444, Note_off_c, 10, 81, 127
1, 108450, Note_on_c, 5, 77, 127
1, 108517, Note_off_c, 5, 77, 127
1, 108523, Note_on_c, 11, 82, 127
1, 108523, Note_on_c, 11, 58, 127
1, 108659, Note_off_c, 11, 58, 127
1, 108660, Note_on_c, 10, 57, 127
1, 108796, Note_off_c, 10, 57, 127
1, 108797, Note_on_c, 11, 58, 127
1, 108933, Note_off_c, 11, 58, 127
1, 108934, Note_on_c, 0, 60, 127
1, 109070, Note_off_c, 0, 60, 127
1, 109071, Note_on_c, 2, 62, 127
1, 109207, Note_off_c, 2, 62, 127
1, 109207, Note_off_c, 11, 82, 127
1, 109208, Note_on_c, 11, 82, 127
1, 109208, Note_on_c, 0, 60, 127
1, 109344, Note_off_c, 0, 60, 127
1, 109344, Note_off_c, 11, 82, 127
1, 109345, Note_on_c, 10, 81, 127
1, 109345, Note_on_c, 2, 62, 127
1, 109481, Note_off_c, 10, 81, 127
1, 109482, Note_on_c, 11, 82, 127
1, 109482, Note_on_c, 11, 58, 127
1, 109618, Note_off_c, 11, 82, 127
1, 109619, Note_on_c, 7, 79, 127
1, 109619, Note_on_c, 4, 52, 127
1, 109755, Note_off_c, 7, 79, 127
1, 109756, Note_on_c, 11, 82, 127
1, 109887, Note_off_c, 2, 62, 127
1, 109891, Note_off_c, 11, 82, 127
1, 109892, Note_on_c, 5, 77, 127
1, 110028, Note_off_c, 5, 77, 127
1, 110029, Note_on_c, 11, 82, 127
1, 110165, Note_off_c, 11, 82, 127
1, 110166, Note_off_c, 11, 58, 127
1, 110166, Note_on_c, 4, 76, 127
1, 110302, Note_off_c, 4, 76, 127
1, 110303, Note_off_c, 4, 52, 127
1, 110303, Note_on_c, 11, 82, 127
1, 110439, Note_off_c, 11, 82, 127
1, 110440, Note_on_c, 2, 74, 127
1, 110576, Note_off_c, 2, 74, 127
1, 110577, Note_on_c, 11, 82, 127
1, 110713, Note_off_c, 11, 82, 127
1, 110714, Note_on_c, 2, 74, 127
1, 110714, Note_on_c, 10, 57, 127
1, 110781, Note_off_c, 2, 74, 127
1, 110782, Note_on_c, 1, 73, 127
1, 110849, Note_off_c, 1, 73, 127
1, 110849, Note_off_c, 10, 57, 127
1, 110850, Note_on_c, 2, 74, 127
1, 110850, Note_on_c, 8, 56, 127
1, 110917, Note_off_c, 2, 74, 127
1, 110918, Note_on_c, 1, 73, 127
1, 110985, Note_off_c, 8, 56, 127
1, 110986, Note_on_c, 10, 57, 127
1, 111122, Note_off_c, 10, 57, 127
1, 111123, Note_on_c, 12, 59, 127
1, 111259, Note_off_c, 12, 59, 127
1, 111260, Note_on_c, 1, 61, 127
1, 111317, Note_off_c, 1, 73, 127
1, 111396, Note_off_c, 1, 61, 127
1, 111397, Note_on_c, 10, 81, 127
1, 111397, Note_on_c, 12, 59, 127
1, 111533, Note_off_c, 12, 59, 127
1, 111533, Note_off_c, 10, 81, 127
1, 111534, Note_on_c, 7, 79, 127
1, 111534, Note_on_c, 1, 61, 127
1, 111670, Note_off_c, 7, 79, 127
1, 111671, Note_on_c, 10, 81, 127
1, 111671, Note_on_c, 10, 57, 127
1, 111805, Note_off_c, 1, 61, 127
1, 111806, Note_off_c, 10, 81, 127
1, 111807, Note_on_c, 5, 77, 127
1, 111807, Note_on_c, 2, 62, 127
1, 111807, Note_on_c, 2, 50, 127
1, 111943, Note_off_c, 5, 77, 127
1, 111944, Note_on_c, 10, 81, 127
1, 112080, Note_off_c, 10, 81, 127
1, 112081, Note_on_c, 4, 76, 127
1, 112212, Note_off_c, 10, 57, 127
1, 112216, Note_off_c, 4, 76, 127
1, 112217, Note_on_c, 10, 81, 127
1, 112353, Note_off_c, 10, 81, 127
1, 112354, Note_on_c, 2, 74, 127
1, 112490, Note_off_c, 2, 74, 127
1, 112491, Note_off_c, 2, 50, 127
1, 112491, Note_off_c, 2, 62, 127
1, 112491, Note_on_c, 10, 81, 127
1, 112627, Note_off_c, 10, 81, 127
1, 112628, Note_on_c, 0, 72, 127
1, 112764, Note_off_c, 0, 72, 127
1, 112765, Note_on_c, 10, 81, 127
1, 112901, Note_off_c, 10, 81, 127
1, 112902, Note_on_c, 0, 72, 127
1, 112902, Note_on_c, 7, 55, 127
1, 112969, Note_off_c, 0, 72, 127
1, 112970, Note_on_c, 12, 71, 127
1, 113037, Note_off_c, 12, 71, 127
1, 113037, Note_off_c, 7, 55, 127
1, 113038, Note_on_c, 0, 72, 127
1, 113038, Note_on_c, 6, 54, 127
1, 113105, Note_off_c, 0, 72, 127
1, 113106, Note_on_c, 12, 71, 127
1, 113173, Note_off_c, 6, 54, 127
1, 113174, Note_on_c, 7, 55, 127
1, 113310, Note_off_c, 7, 55, 127
1, 113311, Note_on_c, 10, 57, 127
1, 113447, Note_off_c, 10, 57, 127
1, 113448, Note_on_c, 12, 59, 127
1, 113505, Note_off_c, 12, 71, 127
1, 113584, Note_off_c, 12, 59, 127
1, 113585, Note_on_c, 7, 79, 127
1, 113585, Note_on_c, 10, 57, 127
1, 113721, Note_off_c, 10, 57, 127
1, 113721, Note_off_c, 7, 79, 127
1, 113722, Note_on_c, 5, 77, 127
1, 113722, Note_on_c, 12, 59, 127
1, 113858, Note_off_c, 12, 59, 127
1, 113858, Note_off_c, 5, 77, 127
1, 113859, Note_on_c, 7, 79, 127
1, 113859, Note_on_c, 7, 55, 127
1, 113995, Note_off_c, 7, 79, 127
1, 113996, Note_on_c, 3, 75, 127
1, 113996, Note_on_c, 0, 60, 127
1, 113996, Note_on_c, 0, 48, 127
1, 114132, Note_off_c, 3, 75, 127
1, 114133, Note_on_c, 7, 79, 127
1, 114269, Note_off_c, 7, 79, 127
1, 114270, Note_on_c, 2, 74, 127
1, 114401, Note_off_c, 7, 55, 127
1, 114405, Note_off_c, 2, 74, 127
1, 114406, Note_on_c, 7, 79, 127
1, 114542, Note_off_c, 7, 79, 127
1, 114543, Note_on_c, 0, 72, 127
1, 114679, Note_off_c, 0, 72, 127
1, 114680, Note_off_c, 0, 48, 127
1, 114680, Note_off_c, 0, 60, 127
1, 114680, Note_on_c, 7, 79, 127
1, 114816, Note_off_c, 7, 79, 127
1, 114817, Note_on_c, 11, 70, 127
1, 114953, Note_off_c, 11, 70, 127
1, 114954, Note_on_c, 7, 79, 127
1, 115090, Note_off_c, 7, 79, 127
1, 115091, Note_on_c, 10, 69, 127
1, 115091, Note_on_c, 5, 53, 127
1, 115227, Note_off_c, 5, 53, 127
1, 115228, Note_on_c, 2, 62, 127
1, 115364, Note_off_c, 2, 62, 127
1, 115365, Note_on_c, 0, 60, 127
1, 115501, Note_off_c, 0, 60, 127
1, 115502, Note_on_c, 11, 58, 127
1, 115633, Note_off_c, 10, 69, 127
1, 115637, Note_off_c, 11, 58, 127
1, 115638, Note_on_c, 10, 57, 127
1, 115774, Note_off_c, 10, 57, 127
1, 115775, Note_on_c, 10, 69, 127
1, 115775, Note_on_c, 7, 55, 127
1, 115911, Note_off_c, 7, 55, 127
1, 115911, Note_off_c, 10, 69, 127
1, 115912, Note_on_c, 12, 71, 127
1, 115912, Note_on_c, 5, 53, 127
1, 116048, Note_off_c, 5, 53, 127
1, 116048, Note_off_c, 12, 71, 127
1, 116049, Note_on_c, 1, 73, 127
1, 116049, Note_on_c, 4, 52, 127
1, 116185, Note_off_c, 4, 52, 127
1, 116185, Note_off_c, 1, 73, 127
1, 116186, Note_on_c, 2, 74, 127
1, 116186, Note_on_c, 5, 53, 127
1, 116322, Note_off_c, 2, 74, 127
1, 116323, Note_on_c, 10, 69, 127
1, 116459, Note_off_c, 10, 69, 127
1, 116459, Note_off_c, 5, 53, 127
1, 116460, Note_on_c, 1, 73, 127
1, 116460, Note_on_c, 10, 57, 127
1, 116596, Note_off_c, 1, 73, 127
1, 116597, Note_on_c, 2, 74, 127
1, 116733, Note_off_c, 2, 74, 127
1, 116733, Note_off_c, 10, 57, 127
1, 116734, Note_on_c, 4, 76, 127
1, 116734, Note_on_c, 1, 49, 127
1, 116870, Note_off_c, 4, 76, 127
1, 116871, Note_on_c, 10, 69, 127
1, 117007, Note_off_c, 10, 69, 127
1, 117007, Note_off_c, 1, 49, 127
1, 117008, Note_on_c, 2, 74, 127
1, 117008, Note_on_c, 10, 57, 127
1, 117144, Note_off_c, 2, 74, 127
1, 117145, Note_on_c, 4, 76, 127
1, 117281, Note_off_c, 4, 76, 127
1, 117281, Note_off_c, 10, 57, 127
1, 117282, Note_on_c, 5, 77, 127
1, 117282, Note_on_c, 2, 50, 127
1, 117418, Note_off_c, 5, 77, 127
1, 117419, Note_on_c, 10, 69, 127
1, 117555, Note_off_c, 10, 69, 127
1, 117555, Note_off_c, 2, 50, 127
1, 117556, Note_on_c, 4, 76, 127
1, 117556, Note_on_c, 10, 57, 127
1, 117692, Note_off_c, 4, 76, 127
1, 117693, Note_on_c, 5, 77, 127
1, 117829, Note_off_c, 5, 77, 127
1, 117829, Note_off_c, 10, 57, 127
1, 117830, Note_on_c, 7, 79, 127
1, 117830, Note_on_c, 4, 52, 127
1, 117966, Note_off_c, 7, 79, 127
1, 117967, Note_on_c, 10, 69, 127
1, 118103, Note_off_c, 10, 69, 127
1, 118103, Note_off_c, 4, 52, 127
1, 118104, Note_on_c, 5, 77, 127
1, 118104, Note_on_c, 10, 57, 127
1, 118240, Note_off_c, 5, 77, 127
1, 118241, Note_on_c, 7, 79, 127
1, 118377, Note_off_c, 7, 79, 127
1, 118377, Note_off_c, 10, 57, 127
1, 118378, Note_on_c, 10, 81, 127
1, 118378, Note_on_c, 5, 53, 127
1, 118514, Note_off_c, 5, 53, 127
1, 118514, Note_off_c, 10, 81, 127
1, 118515, Note_on_c, 7, 79, 127
1, 118515, Note_on_c, 4, 52, 127
1, 118651, Note_off_c, 4, 52, 127
1, 118651, Note_off_c, 7, 79, 127
1, 118652, Note_on_c, 10, 81, 127
1, 118652, Note_on_c, 5, 53, 127
1, 118788, Note_off_c, 5, 53, 127
1, 118788, Note_off_c, 10, 81, 127
1, 118789, Note_on_c, 11, 82, 127
1, 118789, Note_on_c, 7, 55, 127
1, 118925, Note_off_c, 7, 55, 127
1, 118925, Note_off_c, 11, 82, 127
1, 118926, Note_on_c, 7, 79, 127
1, 118926, Note_on_c, 10, 57, 127
1, 119062, Note_off_c, 7, 79, 127
1, 119063, Note_on_c, 6, 78, 127
1, 119199, Note_off_c, 6, 78, 127
1, 119199, Note_off_c, 10, 57, 127
1, 119200, Note_on_c, 7, 79, 127
1, 119200, Note_on_c, 10, 45, 127
1, 119336, Note_off_c, 7, 79, 127
1, 119337, Note_on_c, 10, 81, 127
1, 119473, Note_off_c, 10, 81, 127
1, 119473, Note_off_c, 10, 45, 127
1, 119474, Note_on_c, 6, 78, 127
1, 119474, Note_on_c, 2, 50, 127
1, 119610, Note_off_c, 2, 50, 127
1, 119611, Note_on_c, 7, 55, 127
1, 119747, Note_off_c, 7, 55, 127
1, 119748, Note_on_c, 6, 54, 127
1, 119884, Note_off_c, 6, 54, 127
1, 119885, Note_on_c, 4, 52, 127
1, 120016, Note_off_c, 6, 78, 127
1, 120020, Note_off_c, 4, 52, 127
1, 120021, Note_on_c, 2, 50, 127
1, 120157, Note_off_c, 2, 50, 127
1, 120158, Note_on_c, 2, 74, 127
1, 120158, Note_on_c, 0, 48, 127
1, 120294, Note_off_c, 0, 48, 127
1, 120294, Note_off_c, 2, 74, 127
1, 120295, Note_on_c, 4, 76, 127
1, 120295, Note_on_c, 11, 46, 127
1, 120431, Note_off_c, 11, 46, 127
1, 120431, Note_off_c, 4, 76, 127
1, 120432, Note_on_c, 6, 78, 127
1, 120432, Note_on_c, 10, 45, 127
1, 120568, Note_off_c, 10, 45, 127
1, 120568, Note_off_c, 6, 78, 127
1, 120569, Note_on_c, 7, 79, 127
1, 120569, Note_on_c, 7, 43, 127
1, 120705, Note_off_c, 7, 79, 127
1, 120706, Note_on_c, 10, 81, 127
1, 120842, Note_off_c, 10, 81, 127
1, 120842, Note_off_c, 7, 43, 127
1, 120843, Note_on_c, 11, 82, 127
1, 120843, Note_on_c, 7, 67, 127
1, 121116, Note_off_c, 7, 67, 127
1, 121117, Note_on_c, 7, 67, 127
1, 121117, Note_on_c, 11, 70, 127
1, 121253, Note_off_c, 11, 82, 127
1, 121254, Note_on_c, 10, 81, 127
1, 121390, Note_off_c, 10, 81, 127
1, 121390, Note_off_c, 7, 67, 127
1, 121391, Note_on_c, 7, 79, 127
1, 121391, Note_on_c, 7, 67, 127
1, 121527, Note_off_c, 7, 79, 127
1, 121528, Note_on_c, 5, 77, 127
1, 121664, Note_off_c, 5, 77, 127
1, 121664, Note_off_c, 7, 67, 127
1, 121665, Note_on_c, 3, 75, 127
1, 121665, Note_on_c, 0, 60, 127
1, 121801, Note_off_c, 3, 75, 127
1, 121802, Note_on_c, 2, 74, 127
1, 121938, Note_off_c, 2, 74, 127
1, 121938, Note_off_c, 0, 60, 127
1, 121938, Note_off_c, 11, 70, 127
1, 121939, Note_on_c, 3, 75, 127
1, 121939, Note_on_c, 7, 67, 127
1, 121939, Note_on_c, 0, 60, 127
1, 122212, Note_off_c, 0, 60, 127
1, 122212, Note_off_c, 7, 67, 127
1, 122213, Note_on_c, 0, 60, 127
1, 122213, Note_on_c, 3, 63, 127
1, 122349, Note_off_c, 3, 75, 127
1, 122350, Note_on_c, 0, 72, 127
1, 122486, Note_off_c, 0, 72, 127
1, 122486, Note_off_c, 3, 63, 127
1, 122486, Note_off_c, 0, 60, 127
1, 122487, Note_on_c, 2, 74, 127
1, 122487, Note_on_c, 7, 67, 127
1, 122487, Note_on_c, 0, 60, 127
1, 122623, Note_off_c, 2, 74, 127
1, 122624, Note_on_c, 3, 75, 127
1, 122760, Note_off_c, 3, 75, 127
1, 122760, Note_off_c, 0, 60, 127
1, 122760, Note_off_c, 7, 67, 127
1, 122761, Note_on_c, 5, 77, 127
1, 122761, Note_on_c, 5, 65, 127
1, 122761, Note_on_c, 10, 69, 127
1, 122897, Note_off_c, 5, 77, 127
1, 122898, Note_on_c, 7, 79, 127
1, 123034, Note_off_c, 7, 79, 127
1, 123034, Note_off_c, 5, 65, 127
1, 123035, Note_on_c, 10, 81, 127
1, 123035, Note_on_c, 5, 65, 127
1, 123308, Note_off_c, 5, 65, 127
1, 123309, Note_on_c, 5, 65, 127
1, 123445, Note_off_c, 10, 81, 127
1, 123446, Note_on_c, 7, 79, 127
1, 123582, Note_off_c, 7, 79, 127
1, 123582, Note_off_c, 5, 65, 127
1, 123583, Note_on_c, 5, 77, 127
1, 123583, Note_on_c, 5, 65, 127
1, 123719, Note_off_c, 5, 77, 127
1, 123720, Note_on_c, 3, 75, 127
1, 123856, Note_off_c, 3, 75, 127
1, 123856, Note_off_c, 5, 65, 127
1, 123857, Note_on_c, 2, 74, 127
1, 123857, Note_on_c, 11, 58, 127
1, 123993, Note_off_c, 2, 74, 127
1, 123994, Note_on_c, 0, 72, 127
1, 124130, Note_off_c, 0, 72, 127
1, 124130, Note_off_c, 11, 58, 127
1, 124131, Note_off_c, 10, 69, 127
1, 124131, Note_on_c, 2, 74, 127
1, 124131, Note_on_c, 5, 65, 127
1, 124131, Note_on_c, 11, 58, 127
1, 124404, Note_off_c, 11, 58, 127
1, 124404, Note_off_c, 5, 65, 127
1, 124405, Note_on_c, 11, 58, 127
1, 124405, Note_on_c, 2, 62, 127
1, 124541, Note_off_c, 2, 74, 127
1, 124542, Note_on_c, 11, 70, 127
1, 124678, Note_off_c, 11, 70, 127
1, 124678, Note_off_c, 2, 62, 127
1, 124678, Note_off_c, 11, 58, 127
1, 124679, Note_on_c, 0, 72, 127
1, 124679, Note_on_c, 5, 65, 127
1, 124679, Note_on_c, 11, 58, 127
1, 124815, Note_off_c, 0, 72, 127
1, 124816, Note_on_c, 2, 74, 127
1, 124952, Note_off_c, 2, 74, 127
1, 124952, Note_off_c, 11, 58, 127
1, 124952, Note_off_c, 5, 65, 127
1, 124953, Note_on_c, 4, 76, 127
1, 124953, Note_on_c, 7, 67, 127
1, 124953, Note_on_c, 4, 64, 127
1, 125089, Note_off_c, 4, 76, 127
1, 125090, Note_on_c, 5, 77, 127
1, 125226, Note_off_c, 5, 77, 127
1, 125226, Note_off_c, 4, 64, 127
1, 125227, Note_on_c, 7, 79, 127
1, 125227, Note_on_c, 4, 64, 127
1, 125500, Note_off_c, 4, 64, 127
1, 125501, Note_on_c, 4, 64, 127
1, 125637, Note_off_c, 7, 79, 127
1, 125638, Note_on_c, 5, 77, 127
1, 125774, Note_off_c, 5, 77, 127
1, 125774, Note_off_c, 4, 64, 127
1, 125775, Note_on_c, 4, 76, 127
1, 125775, Note_on_c, 4, 64, 127
1, 125911, Note_off_c, 4, 76, 127
1, 125912, Note_on_c, 2, 74, 127
1, 126048, Note_off_c, 2, 74, 127
1, 126048, Note_off_c, 4, 64, 127
1, 126049, Note_on_c, 1, 73, 127
1, 126049, Note_on_c, 10, 57, 127
1, 126185, Note_off_c, 1, 73, 127
1, 126186, Note_on_c, 12, 71, 127
1, 126322, Note_off_c, 12, 71, 127
1, 126322, Note_off_c, 10, 57, 127
1, 126323, Note_off_c, 7, 67, 127
1, 126323, Note_on_c, 1, 73, 127
1, 126323, Note_on_c, 4, 64, 127
1, 126323, Note_on_c, 10, 57, 127
1, 126596, Note_off_c, 10, 57, 127
1, 126596, Note_off_c, 4, 64, 127
1, 126597, Note_on_c, 1, 61, 127
1, 126597, Note_on_c, 10, 57, 127
1, 126733, Note_off_c, 1, 73, 127
1, 126734, Note_on_c, 1, 73, 127
1, 126870, Note_off_c, 1, 73, 127
1, 126870, Note_off_c, 10, 57, 127
1, 126870, Note_off_c, 1, 61, 127
1, 126871, Note_on_c, 2, 74, 127
1, 126871, Note_on_c, 10, 69, 127
1, 126871, Note_on_c, 10, 57, 127
1, 127007, Note_off_c, 2, 74, 127
1, 127008, Note_on_c, 4, 76, 127
1, 127144, Note_off_c, 4, 76, 127
1, 127144, Note_off_c, 10, 57, 127
1, 127145, Note_on_c, 6, 78, 127
1, 127145, Note_on_c, 2, 62, 127
1, 127281, Note_off_c, 2, 62, 127
1, 127281, Note_off_c, 6, 78, 127
1, 127282, Note_on_c, 4, 76, 127
1, 127282, Note_on_c, 1, 61, 127
1, 127413, Note_off_c, 10, 69, 127
1, 127417, Note_off_c, 1, 61, 127
1, 127417, Note_off_c, 4, 76, 127
1, 127418, Note_on_c, 6, 78, 127
1, 127418, Note_on_c, 2, 62, 127
1, 127554, Note_off_c, 2, 62, 127
1, 127554, Note_off_c, 6, 78, 127
1, 127555, Note_on_c, 7, 79, 127
1, 127555, Note_on_c, 4, 64, 127
1, 127691, Note_off_c, 4, 64, 127
1, 127691, Note_off_c, 7, 79, 127
1, 127692, Note_on_c, 10, 81, 127
1, 127692, Note_on_c, 6, 66, 127
1, 127828, Note_off_c, 6, 66, 127
1, 127829, Note_on_c, 4, 64, 127
1, 127965, Note_off_c, 4, 64, 127
1, 127965, Note_off_c, 10, 81, 127
1, 127966, Note_on_c, 3, 75, 127
1, 127966, Note_on_c, 6, 66, 127
1, 128102, Note_off_c, 6, 66, 127
1, 128103, Note_on_c, 7, 67, 127
1, 128239, Note_off_c, 7, 67, 127
1, 128240, Note_on_c, 6, 54, 127
1, 128240, Note_on_c, 10, 57, 127
1, 128513, Note_off_c, 10, 57, 127
1, 128513, Note_off_c, 6, 54, 127
1, 128513, Note_off_c, 3, 75, 127
1, 128514, Note_on_c, 6, 78, 127
1, 128514, Note_on_c, 3, 63, 127
1, 128650, Note_off_c, 6, 78, 127
1, 128651, Note_on_c, 7, 79, 127
1, 128787, Note_off_c, 7, 79, 127
1, 128788, Note_on_c, 10, 81, 127
1, 129061, Note_off_c, 10, 81, 127
1, 129061, Note_off_c, 3, 63, 127
1, 129062, Note_on_c, 2, 74, 127
1, 129062, Note_on_c, 6, 66, 127
1, 129198, Note_off_c, 6, 66, 127
1, 129199, Note_on_c, 7, 67, 127
1, 129335, Note_off_c, 7, 67, 127
1, 129336, Note_on_c, 10, 57, 127
1, 129336, Note_on_c, 6, 54, 127
1, 129336, Note_on_c, 10, 69, 127
1, 129609, Note_off_c, 10, 69, 127
1, 129609, Note_off_c, 6, 54, 127
1, 129609, Note_off_c, 10, 57, 127
1, 129609, Note_off_c, 2, 74, 127
1, 129610, Note_on_c, 6, 78, 127
1, 129610, Note_on_c, 2, 62, 127
1, 129746, Note_off_c, 6, 78, 127
1, 129747, Note_on_c, 7, 79, 127
1, 129883, Note_off_c, 7, 79, 127
1, 129884, Note_on_c, 10, 81, 127
1, 130157, Note_off_c, 10, 81, 127
1, 130157, Note_off_c, 2, 62, 127
1, 130158, Note_on_c, 0, 72, 127
1, 130158, Note_on_c, 6, 66, 127
1, 130294, Note_off_c, 6, 66, 127
1, 130295, Note_on_c, 7, 67, 127
1, 130431, Note_off_c, 7, 67, 127
1, 130432, Note_on_c, 6, 54, 127
1, 130432, Note_on_c, 10, 57, 127
1, 130432, Note_on_c, 10, 69, 127
1, 130705, Note_off_c, 10, 69, 127
1, 130705, Note_off_c, 10, 57, 127
1, 130705, Note_off_c, 6, 54, 127
1, 130705, Note_off_c, 0, 72, 127
1, 130706, Note_on_c, 6, 78, 127
1, 130706, Note_on_c, 0, 60, 127
1, 130842, Note_off_c, 6, 78, 127
1, 130843, Note_on_c, 7, 79, 127
1, 130979, Note_off_c, 7, 79, 127
1, 130980, Note_on_c, 10, 81, 127
1, 131253, Note_off_c, 10, 81, 127
1, 131253, Note_off_c, 0, 60, 127
1, 131254, Note_on_c, 0, 72, 127
1, 131254, Note_on_c, 10, 57, 127
1, 131254, Note_on_c, 6, 54, 127
1, 131254, Note_on_c, 2, 62, 127
1, 131527, Note_off_c, 2, 62, 127
1, 131527, Note_off_c, 6, 54, 127
1, 131527, Note_off_c, 10, 57, 127
1, 131527, Note_off_c, 0, 72, 127
1, 131528, Note_on_c, 11, 70, 127
1, 131528, Note_on_c, 7, 55, 127
1, 131664, Note_off_c, 11, 70, 127
1, 131665, Note_on_c, 7, 67, 127
1, 131801, Note_off_c, 7, 67, 127
1, 131801, Note_off_c, 7, 55, 127
1, 131802, Note_on_c, 10, 69, 127
1, 131802, Note_on_c, 5, 53, 127
1, 131938, Note_off_c, 5, 53, 127
1, 131938, Note_off_c, 10, 69, 127
1, 131939, Note_on_c, 11, 70, 127
1, 131939, Note_on_c, 3, 51, 127
1, 132075, Note_off_c, 3, 51, 127
1, 132075, Note_off_c, 11, 70, 127
1, 132076, Note_on_c, 0, 72, 127
1, 132076, Note_on_c, 2, 50, 127
1, 132212, Note_off_c, 2, 50, 127
1, 132212, Note_off_c, 0, 72, 127
1, 132213, Note_on_c, 2, 74, 127
1, 132213, Note_on_c, 0, 48, 127
1, 132349, Note_off_c, 0, 48, 127
1, 132349, Note_off_c, 2, 74, 127
1, 132350, Note_on_c, 4, 76, 127
1, 132350, Note_on_c, 11, 46, 127
1, 132486, Note_off_c, 11, 46, 127
1, 132486, Note_off_c, 4, 76, 127
1, 132487, Note_on_c, 6, 78, 127
1, 132487, Note_on_c, 10, 45, 127
1, 132623, Note_off_c, 10, 45, 127
1, 132623, Note_off_c, 6, 78, 127
1, 132624, Note_on_c, 7, 79, 127
1, 132624, Note_on_c, 11, 46, 127
1, 132760, Note_off_c, 11, 46, 127
1, 132761, Note_on_c, 10, 45, 127
1, 132897, Note_off_c, 10, 45, 127
1, 132897, Note_off_c, 7, 79, 127
1, 132898, Note_on_c, 5, 77, 127
1, 132898, Note_on_c, 11, 46, 127
1, 133034, Note_off_c, 11, 46, 127
1, 133034, Note_off_c, 5, 77, 127
1, 133035, Note_on_c, 3, 75, 127
1, 133035, Note_on_c, 0, 48, 127
1, 133171, Note_off_c, 0, 48, 127
1, 133171, Note_off_c, 3, 75, 127
1, 133172, Note_on_c, 2, 74, 127
1, 133172, Note_on_c, 2, 50, 127
1, 133309, Note_on_c, 0, 72, 127
1, 133445, Note_off_c, 0, 72, 127
1, 133446, Note_on_c, 11, 70, 127
1, 133446, Note_on_c, 2, 38, 127
1, 133572, Note_off_c, 2, 74, 127
1, 133582, Note_off_c, 11, 70, 127
1, 133589, Note_on_c, 10, 69, 127
1, 133714, Note_off_c, 2, 50, 127
1, 133718, Note_off_c, 2, 38, 127
1, 133724, Note_off_c, 10, 69, 127
1, 133743, Note_on_c, 7, 43, 127
1, 133743, Note_on_c, 7, 79, 127
1, 133743, Note_on_c, 7, 67, 127
1, 134286, Note_off_c, 7, 43, 127
1, 134290, Note_off_c, 7, 67, 127
1, 134290, Note_off_c, 7, 79, 127
1, 134291, Note_on_c, 2, 74, 127
1, 134840, Note_on_c, 7, 55, 127
1, 134840, Note_on_c, 7, 79, 127
1, 134840, Note_on_c, 11, 82, 127
1, 135387, Note_off_c, 7, 55, 127
1, 135388, Note_on_c, 2, 50, 127
1, 135661, Note_off_c, 11, 82, 127
1, 135661, Note_off_c, 7, 79, 127
1, 135662, Note_on_c, 6, 78, 127
1, 135662, Note_on_c, 10, 81, 127
1, 135935, Note_off_c, 10, 81, 127
1, 135935, Note_off_c, 6, 78, 127
1, 135935, Note_off_c, 2, 50, 127
1, 135936, Note_on_c, 11, 58, 127
1, 135936, Note_on_c, 7, 79, 127
1, 136209, Note_off_c, 7, 79, 127
1, 136209, Note_off_c, 11, 58, 127
1, 136210, Note_on_c, 10, 57, 127
1, 136210, Note_on_c, 0, 72, 127
1, 136210, Note_on_c, 6, 78, 127
1, 136219, Note_off_c, 2, 74, 127
1, 136483, Note_off_c, 6, 78, 127
1, 136483, Note_off_c, 0, 72, 127
1, 136483, Note_off_c, 10, 57, 127
1, 136484, Note_on_c, 11, 58, 127
1, 136484, Note_on_c, 7, 79, 127
1, 136484, Note_on_c, 2, 74, 127
1, 136757, Note_off_c, 2, 74, 127
1, 136757, Note_off_c, 7, 79, 127
1, 136757, Note_off_c, 11, 58, 127
1, 136758, Note_on_c, 0, 60, 127
1, 136758, Note_on_c, 3, 75, 127
1, 136758, Note_on_c, 10, 81, 127
1, 137031, Note_off_c, 10, 81, 127
1, 137031, Note_off_c, 3, 75, 127
1, 137031, Note_off_c, 0, 60, 127
1, 137032, Note_on_c, 6, 54, 127
1, 137032, Note_on_c, 10, 57, 127
1, 137032, Note_on_c, 0, 72, 127
1, 137032, Note_on_c, 3, 63, 127
1, 137032, Note_on_c, 10, 69, 127
1, 137853, Note_off_c, 3, 63, 127
1, 137853, Note_off_c, 0, 72, 127
1, 137854, Note_on_c, 2, 74, 127
1, 137990, Note_off_c, 2, 74, 127
1, 137991, Note_on_c, 3, 75, 127
1, 138127, Note_off_c, 3, 75, 127
1, 138128, Note_on_c, 2, 62, 127
1, 138128, Note_on_c, 2, 74, 127
1, 138401, Note_off_c, 2, 74, 127
1, 138401, Note_off_c, 10, 57, 127
1, 138401, Note_off_c, 6, 54, 127
1, 138402, Note_on_c, 4, 52, 127
1, 138402, Note_on_c, 0, 72, 127
1, 138673, Note_off_c, 10, 69, 127
1, 138674, Note_off_c, 0, 72, 127
1, 138674, Note_off_c, 4, 52, 127
1, 138675, Note_on_c, 6, 54, 127
1, 138675, Note_on_c, 11, 70, 127
1, 138948, Note_off_c, 11, 70, 127
1, 138948, Note_off_c, 6, 54, 127
1, 138948, Note_off_c, 2, 62, 127
1, 138949, Note_on_c, 2, 50, 127
1, 138949, Note_on_c, 6, 54, 127
1, 138949, Note_on_c, 10, 69, 127
1, 139222, Note_off_c, 10, 69, 127
1, 139222, Note_off_c, 6, 54, 127
1, 139222, Note_off_c, 2, 50, 127
1, 139223, Note_on_c, 7, 55, 127
1, 139223, Note_on_c, 11, 70, 127
1, 139497, Note_on_c, 11, 58, 127
1, 139497, Note_on_c, 7, 67, 127
1, 139766, Note_off_c, 11, 70, 127
1, 139770, Note_off_c, 11, 58, 127
1, 139771, Note_on_c, 2, 62, 127
1, 139771, Note_on_c, 11, 70, 127
1, 140040, Note_off_c, 7, 67, 127
1, 140044, Note_off_c, 11, 70, 127
1, 140044, Note_off_c, 7, 55, 127
1, 140045, Note_on_c, 5, 53, 127
1, 140045, Note_on_c, 2, 74, 127
1, 140318, Note_off_c, 2, 74, 127
1, 140318, Note_off_c, 5, 53, 127
1, 140319, Note_on_c, 3, 51, 127
1, 140319, Note_on_c, 7, 79, 127
1, 140592, Note_off_c, 7, 79, 127
1, 140593, Note_on_c, 7, 55, 127
1, 140593, Note_on_c, 10, 81, 127
1, 140729, Note_off_c, 10, 81, 127
1, 140730, Note_on_c, 11, 82, 127
1, 140861, Note_off_c, 3, 51, 127
1, 140865, Note_off_c, 11, 82, 127
1, 140865, Note_off_c, 2, 62, 127
1, 140866, Note_on_c, 0, 60, 127
1, 140866, Note_on_c, 0, 48, 127
1, 140866, Note_on_c, 3, 75, 127
1, 140866, Note_on_c, 10, 81, 127
1, 141135, Note_off_c, 7, 55, 127
1, 141139, Note_off_c, 10, 81, 127
1, 141139, Note_off_c, 0, 60, 127
1, 141140, Note_on_c, 11, 58, 127
1, 141140, Note_on_c, 7, 79, 127
1, 141409, Note_off_c, 3, 75, 127
1, 141409, Note_off_c, 0, 48, 127
1, 141413, Note_off_c, 7, 79, 127
1, 141413, Note_off_c, 11, 58, 127
1, 141414, Note_on_c, 2, 50, 127
1, 141414, Note_on_c, 10, 57, 127
1, 141414, Note_on_c, 2, 74, 127
1, 141414, Note_on_c, 6, 78, 127
1, 141687, Note_off_c, 2, 74, 127
1, 141688, Note_on_c, 0, 72, 127
1, 141961, Note_off_c, 0, 72, 127
1, 141962, Note_on_c, 11, 70, 127
1, 142098, Note_off_c, 11, 70, 127
1, 142099, Note_off_c, 6, 78, 127
1, 142099, Note_off_c, 2, 50, 127
1, 142099, Note_on_c, 2, 74, 127
1, 142235, Note_off_c, 2, 74, 127
1, 142235, Note_off_c, 10, 57, 127
1, 142236, Note_on_c, 10, 69, 127
1, 142236, Note_on_c, 4, 76, 127
1, 142372, Note_off_c, 4, 76, 127
1, 142373, Note_on_c, 6, 78, 127
1, 142507, Note_off_c, 10, 69, 127
1, 142508, Note_off_c, 6, 78, 127
1, 142509, Note_on_c, 7, 67, 127
1, 142509, Note_on_c, 11, 70, 127
1, 142509, Note_on_c, 7, 79, 127
1, 142645, Note_off_c, 7, 79, 127
1, 142646, Note_on_c, 10, 81, 127
1, 142782, Note_off_c, 10, 81, 127
1, 142782, Note_off_c, 7, 67, 127
1, 142783, Note_on_c, 5, 65, 127
1, 142783, Note_on_c, 11, 82, 127
1, 142919, Note_off_c, 11, 82, 127
1, 142920, Note_on_c, 10, 81, 127
1, 143056, Note_off_c, 10, 81, 127
1, 143056, Note_off_c, 5, 65, 127
1, 143057, Note_on_c, 3, 63, 127
1, 143057, Note_on_c, 7, 79, 127
1, 143193, Note_off_c, 7, 79, 127
1, 143194, Note_on_c, 5, 77, 127
1, 143330, Note_off_c, 5, 77, 127
1, 143330, Note_off_c, 3, 63, 127
1, 143331, Note_on_c, 2, 62, 127
1, 143331, Note_on_c, 3, 75, 127
1, 143467, Note_off_c, 3, 75, 127
1, 143468, Note_on_c, 2, 74, 127
1, 143604, Note_off_c, 2, 74, 127
1, 143604, Note_off_c, 2, 62, 127
1, 143604, Note_off_c, 11, 70, 127
1, 143605, Note_on_c, 0, 60, 127
1, 143605, Note_on_c, 3, 75, 127
1, 143741, Note_off_c, 3, 75, 127
1, 143742, Note_on_c, 2, 74, 127
1, 143878, Note_off_c, 2, 74, 127
1, 143879, Note_on_c, 11, 70, 127
1, 143879, Note_on_c, 0, 72, 127
1, 144015, Note_off_c, 0, 72, 127
1, 144016, Note_on_c, 2, 74, 127
1, 144152, Note_off_c, 2, 74, 127
1, 144152, Note_off_c, 11, 70, 127
1, 144153, Note_on_c, 10, 69, 127
1, 144153, Note_on_c, 3, 75, 127
1, 144289, Note_off_c, 3, 75, 127
1, 144290, Note_on_c, 5, 77, 127
1, 144426, Note_off_c, 5, 77, 127
1, 144426, Note_off_c, 10, 69, 127
1, 144427, Note_on_c, 7, 67, 127
1, 144427, Note_on_c, 7, 79, 127
1, 144563, Note_off_c, 7, 79, 127
1, 144564, Note_on_c, 3, 75, 127
1, 144647, Note_off_c, 0, 60, 127
1, 144700, Note_off_c, 3, 75, 127
1, 144700, Note_off_c, 7, 67, 127
1, 144701, Note_on_c, 5, 65, 127
1, 144701, Note_on_c, 5, 77, 127
1, 144701, Note_on_c, 10, 69, 127
1, 144837, Note_off_c, 5, 77, 127
1, 144838, Note_on_c, 7, 79, 127
1, 144974, Note_off_c, 7, 79, 127
1, 144974, Note_off_c, 5, 65, 127
1, 144975, Note_on_c, 3, 63, 127
1, 144975, Note_on_c, 10, 81, 127
1, 145111, Note_off_c, 10, 81, 127
1, 145112, Note_on_c, 7, 79, 127
1, 145248, Note_off_c, 7, 79, 127
1, 145248, Note_off_c, 3, 63, 127
1, 145249, Note_on_c, 2, 62, 127
1, 145249, Note_on_c, 5, 77, 127
1, 145385, Note_off_c, 5, 77, 127
1, 145386, Note_on_c, 3, 75, 127
1, 145522, Note_off_c, 3, 75, 127
1, 145522, Note_off_c, 2, 62, 127
1, 145523, Note_on_c, 0, 60, 127
1, 145523, Note_on_c, 2, 74, 127
1, 145659, Note_off_c, 2, 74, 127
1, 145660, Note_on_c, 0, 72, 127
1, 145796, Note_off_c, 0, 72, 127
1, 145796, Note_off_c, 0, 60, 127
1, 145796, Note_off_c, 10, 69, 127
1, 145797, Note_on_c, 11, 58, 127
1, 145797, Note_on_c, 2, 74, 127
1, 145933, Note_off_c, 2, 74, 127
1, 145934, Note_on_c, 0, 72, 127
1, 146070, Note_off_c, 0, 72, 127
1, 146071, Note_on_c, 10, 69, 127
1, 146071, Note_on_c, 11, 70, 127
1, 146207, Note_off_c, 11, 70, 127
1, 146208, Note_on_c, 0, 72, 127
1, 146344, Note_off_c, 0, 72, 127
1, 146344, Note_off_c, 10, 69, 127
1, 146345, Note_on_c, 7, 67, 127
1, 146345, Note_on_c, 2, 74, 127
1, 146481, Note_off_c, 2, 74, 127
1, 146482, Note_on_c, 3, 75, 127
1, 146618, Note_off_c, 3, 75, 127
1, 146618, Note_off_c, 7, 67, 127
1, 146619, Note_on_c, 5, 65, 127
1, 146619, Note_on_c, 5, 77, 127
1, 146755, Note_off_c, 5, 77, 127
1, 146756, Note_on_c, 2, 74, 127
1, 146839, Note_off_c, 11, 58, 127
1, 146892, Note_off_c, 2, 74, 127
1, 146892, Note_off_c, 5, 65, 127
1, 146893, Note_on_c, 3, 63, 127
1, 146893, Note_on_c, 7, 67, 127
1, 146893, Note_on_c, 3, 75, 127
1, 147029, Note_off_c, 3, 75, 127
1, 147030, Note_on_c, 5, 77, 127
1, 147166, Note_off_c, 5, 77, 127
1, 147166, Note_off_c, 3, 63, 127
1, 147167, Note_on_c, 2, 62, 127
1, 147167, Note_on_c, 7, 79, 127
1, 147303, Note_off_c, 7, 79, 127
1, 147304, Note_on_c, 5, 77, 127
1, 147440, Note_off_c, 5, 77, 127
1, 147440, Note_off_c, 2, 62, 127
1, 147441, Note_on_c, 0, 60, 127
1, 147441, Note_on_c, 3, 75, 127
1, 147577, Note_off_c, 3, 75, 127
1, 147578, Note_on_c, 2, 74, 127
1, 147714, Note_off_c, 2, 74, 127
1, 147714, Note_off_c, 0, 60, 127
1, 147715, Note_on_c, 11, 58, 127
1, 147715, Note_on_c, 0, 72, 127
1, 147851, Note_off_c, 0, 72, 127
1, 147852, Note_on_c, 11, 70, 127
1, 147988, Note_off_c, 11, 70, 127
1, 147988, Note_off_c, 11, 58, 127
1, 147988, Note_off_c, 7, 67, 127
1, 147989, Note_on_c, 10, 57, 127
1, 147989, Note_on_c, 0, 72, 127
1, 148125, Note_off_c, 0, 72, 127
1, 148126, Note_on_c, 11, 70, 127
1, 148262, Note_off_c, 11, 70, 127
1, 148263, Note_on_c, 7, 67, 127
1, 148263, Note_on_c, 10, 69, 127
1, 148399, Note_off_c, 10, 69, 127
1, 148400, Note_on_c, 11, 70, 127
1, 148536, Note_off_c, 11, 70, 127
1, 148536, Note_off_c, 7, 67, 127
1, 148537, Note_on_c, 5, 65, 127
1, 148537, Note_on_c, 0, 72, 127
1, 148673, Note_off_c, 0, 72, 127
1, 148674, Note_on_c, 2, 74, 127
1, 148810, Note_off_c, 2, 74, 127
1, 148810, Note_off_c, 5, 65, 127
1, 148811, Note_on_c, 3, 63, 127
1, 148811, Note_on_c, 3, 75, 127
1, 148947, Note_off_c, 3, 75, 127
1, 148948, Note_on_c, 0, 72, 127
1, 149045, Note_off_c, 10, 57, 127
1, 149084, Note_off_c, 0, 72, 127
1, 149084, Note_off_c, 3, 63, 127
1, 149085, Note_on_c, 2, 62, 127
1, 149085, Note_on_c, 6, 78, 127
1, 149221, Note_off_c, 6, 78, 127
1, 149222, Note_on_c, 7, 79, 127
1, 149358, Note_off_c, 7, 79, 127
1, 149359, Note_on_c, 0, 60, 127
1, 149359, Note_on_c, 10, 81, 127
1, 149495, Note_off_c, 10, 81, 127
1, 149496, Note_on_c, 7, 79, 127
1, 149632, Note_off_c, 7, 79, 127
1, 149632, Note_off_c, 0, 60, 127
1, 149633, Note_on_c, 11, 58, 127
1, 149633, Note_on_c, 6, 78, 127
1, 149769, Note_off_c, 6, 78, 127
1, 149770, Note_on_c, 4, 76, 127
1, 149906, Note_off_c, 4, 76, 127
1, 149906, Note_off_c, 11, 58, 127
1, 149907, Note_on_c, 10, 57, 127
1, 149907, Note_on_c, 2, 74, 127
1, 150043, Note_off_c, 2, 74, 127
1, 150044, Note_on_c, 0, 72, 127
1, 150180, Note_off_c, 0, 72, 127
1, 150180, Note_off_c, 10, 57, 127
1, 150180, Note_off_c, 2, 62, 127
1, 150181, Note_on_c, 7, 55, 127
1, 150181, Note_on_c, 11, 70, 127
1, 150310, Note_off_c, 11, 70, 127
1, 150317, Note_off_c, 7, 55, 127
1, 150318, Note_on_c, 11, 70, 127
1, 150454, Note_off_c, 11, 70, 127
1, 150455, Note_on_c, 10, 69, 127
1, 150455, Note_on_c, 7, 79, 127
1, 150591, Note_off_c, 10, 69, 127
1, 150592, Note_on_c, 11, 70, 127
1, 150728, Note_off_c, 11, 70, 127
1, 150728, Note_off_c, 7, 79, 127
1, 150729, Note_on_c, 7, 67, 127
1, 150729, Note_on_c, 7, 79, 127
1, 150865, Note_off_c, 7, 67, 127
1, 150866, Note_on_c, 11, 70, 127
1, 151002, Note_off_c, 11, 70, 127
1, 151002, Note_off_c, 7, 79, 127
1, 151003, Note_on_c, 10, 69, 127
1, 151003, Note_on_c, 7, 79, 127
1, 151139, Note_off_c, 10, 69, 127
1, 151140, Note_on_c, 11, 70, 127
1, 151276, Note_off_c, 11, 70, 127
1, 151276, Note_off_c, 7, 79, 127
1, 151277, Note_on_c, 10, 69, 127
1, 151277, Note_on_c, 7, 79, 127
1, 151413, Note_off_c, 10, 69, 127
1, 151414, Note_on_c, 0, 72, 127
1, 151550, Note_off_c, 0, 72, 127
1, 151550, Note_off_c, 7, 79, 127
1, 151551, Note_on_c, 11, 70, 127
1, 151551, Note_on_c, 7, 79, 127
1, 151687, Note_off_c, 11, 70, 127
1, 151688, Note_on_c, 0, 72, 127
1, 151824, Note_off_c, 0, 72, 127
1, 151824, Note_off_c, 7, 79, 127
1, 151825, Note_on_c, 10, 69, 127
1, 151825, Note_on_c, 7, 79, 127
1, 151961, Note_off_c, 10, 69, 127
1, 151962, Note_on_c, 0, 72, 127
1, 152098, Note_off_c, 0, 72, 127
1, 152098, Note_off_c, 7, 79, 127
1, 152099, Note_on_c, 11, 70, 127
1, 152099, Note_on_c, 7, 79, 127
1, 152235, Note_off_c, 11, 70, 127
1, 152236, Note_on_c, 0, 72, 127
1, 152372, Note_off_c, 0, 72, 127
1, 152372, Note_off_c, 7, 79, 127
1, 152373, Note_on_c, 11, 70, 127
1, 152373, Note_on_c, 7, 79, 127
1, 152509, Note_off_c, 11, 70, 127
1, 152510, Note_on_c, 2, 74, 127
1, 152646, Note_off_c, 2, 74, 127
1, 152646, Note_off_c, 7, 79, 127
1, 152647, Note_on_c, 0, 72, 127
1, 152647, Note_on_c, 7, 79, 127
1, 152783, Note_off_c, 0, 72, 127
1, 152784, Note_on_c, 2, 74, 127
1, 152920, Note_off_c, 2, 74, 127
1, 152920, Note_off_c, 7, 79, 127
1, 152921, Note_on_c, 11, 70, 127
1, 152921, Note_on_c, 7, 79, 127
1, 153057, Note_off_c, 11, 70, 127
1, 153058, Note_on_c, 2, 74, 127
1, 153194, Note_off_c, 2, 74, 127
1, 153194, Note_off_c, 7, 79, 127
1, 153195, Note_on_c, 0, 72, 127
1, 153195, Note_on_c, 7, 79, 127
1, 153331, Note_off_c, 0, 72, 127
1, 153332, Note_on_c, 2, 74, 127
1, 153468, Note_off_c, 2, 74, 127
1, 153468, Note_off_c, 7, 79, 127
1, 153469, Note_on_c, 0, 72, 127
1, 153469, Note_on_c, 7, 79, 127
1, 153605, Note_off_c, 0, 72, 127
1, 153606, Note_on_c, 3, 75, 127
1, 153742, Note_off_c, 3, 75, 127
1, 153742, Note_off_c, 7, 79, 127
1, 153743, Note_on_c, 2, 74, 127
1, 153743, Note_on_c, 7, 79, 127
1, 153879, Note_off_c, 2, 74, 127
1, 153880, Note_on_c, 3, 75, 127
1, 154016, Note_off_c, 3, 75, 127
1, 154016, Note_off_c, 7, 79, 127
1, 154017, Note_on_c, 0, 72, 127
1, 154017, Note_on_c, 7, 79, 127
1, 154153, Note_off_c, 0, 72, 127
1, 154154, Note_on_c, 3, 75, 127
1, 154290, Note_off_c, 3, 75, 127
1, 154290, Note_off_c, 7, 79, 127
1, 154291, Note_on_c, 2, 74, 127
1, 154291, Note_on_c, 7, 79, 127
1, 154427, Note_off_c, 2, 74, 127
1, 154428, Note_on_c, 3, 75, 127
1, 154564, Note_off_c, 3, 75, 127
1, 154565, Note_on_c, 11, 70, 127
1, 154565, Note_on_c, 2, 74, 127
1, 154713, Note_on_c, 7, 43, 127
1, 154788, Note_off_c, 7, 43, 127
1, 154789, Note_on_c, 10, 45, 127
1, 154843, Note_off_c, 7, 79, 127
1, 154864, Note_off_c, 10, 45, 127
1, 154864, Note_on_c, 7, 79, 127
1, 154864, Note_on_c, 11, 46, 127
1, 155005, Note_off_c, 11, 46, 127
1, 155006, Note_on_c, 0, 48, 127
1, 155126, Note_off_c, 2, 74, 127
1, 155126, Note_off_c, 11, 70, 127
1, 155146, Note_off_c, 0, 48, 127
1, 155147, Note_on_c, 2, 74, 127
1, 155147, Note_on_c, 0, 72, 127
1, 155147, Note_on_c, 10, 69, 127
1, 155147, Note_on_c, 2, 50, 127
1, 155288, Note_off_c, 2, 50, 127
1, 155289, Note_on_c, 0, 48, 127
1, 155425, Note_off_c, 7, 79, 127
1, 155429, Note_off_c, 0, 48, 127
1, 155430, Note_on_c, 6, 78, 127
1, 155430, Note_on_c, 2, 50, 127
1, 155571, Note_off_c, 2, 50, 127
1, 155572, Note_on_c, 2, 38, 127
1, 155708, Note_off_c, 10, 69, 127
1, 155708, Note_off_c, 0, 72, 127
1, 155708, Note_off_c, 2, 74, 127
1, 155712, Note_off_c, 2, 38, 127
1, 155712, Note_off_c, 6, 78, 127
1, 155713, Note_on_c, 11, 70, 127
1, 155713, Note_on_c, 2, 74, 127
1, 155713, Note_on_c, 7, 79, 127
1, 155713, Note_on_c, 7, 67, 127
1, 155713, Note_on_c, 7, 43, 127
1, 155989, Note_off_c, 7, 43, 127
1, 155989, Note_off_c, 7, 67, 127
1, 155989, Note_off_c, 7, 79, 127
1, 155989, Note_off_c, 2, 74, 127
1, 155989, Note_off_c, 11, 70, 127
1, 155990, Note_on_c, 5, 77, 127
1, 155990, Note_on_c, 10, 45, 127
1, 156127, Note_off_c, 10, 45, 127
1, 156127, Note_off_c, 5, 77, 127
1, 156128, Note_on_c, 3, 75, 127
1, 156128, Note_on_c, 11, 46, 127
1, 156265, Note_off_c, 11, 46, 127
1, 156265, Note_off_c, 3, 75, 127
1, 156266, Note_on_c, 2, 74, 127
1, 156266, Note_on_c, 0, 48, 127
1, 156403, Note_off_c, 0, 48, 127
1, 156403, Note_off_c, 2, 74, 127
1, 156404, Note_on_c, 0, 72, 127
1, 156404, Note_on_c, 2, 50, 127
1, 156541, Note_off_c, 2, 50, 127
1, 156541, Note_off_c, 0, 72, 127
1, 156542, Note_on_c, 11, 70, 127
1, 156542, Note_on_c, 4, 52, 127
1, 156679, Note_off_c, 4, 52, 127
1, 156679, Note_off_c, 11, 70, 127
1, 156680, Note_on_c, 10, 69, 127
1, 156680, Note_on_c, 6, 54, 127
1, 156817, Note_off_c, 6, 54, 127
1, 156817, Note_off_c, 10, 69, 127
1, 156818, Note_on_c, 7, 67, 127
1, 156818, Note_on_c, 7, 55, 127
1, 157094, Note_off_c, 7, 55, 127
1, 157094, Note_off_c, 7, 67, 127
1, 157095, Note_on_c, 11, 70, 127
1, 157095, Note_on_c, 7, 79, 127
1, 157095, Note_on_c, 7, 67, 127
1, 157232, Note_off_c, 7, 67, 127
1, 157232, Note_off_c, 11, 70, 127
1, 157233, Note_on_c, 10, 69, 127
1, 157233, Note_on_c, 6, 66, 127
1, 157370, Note_off_c, 6, 66, 127
1, 157370, Note_off_c, 10, 69, 127
1, 157371, Note_on_c, 11, 70, 127
1, 157371, Note_on_c, 7, 67, 127
1, 157643, Note_off_c, 7, 79, 127
1, 157647, Note_off_c, 7, 67, 127
1, 157647, Note_off_c, 11, 70, 127
1, 157648, Note_on_c, 7, 79, 127
1, 157648, Note_on_c, 11, 70, 127
1, 157648, Note_on_c, 2, 62, 127
1, 157648, Note_on_c, 7, 55, 127
1, 157924, Note_off_c, 7, 55, 127
1, 157924, Note_off_c, 2, 62, 127
1, 157924, Note_off_c, 11, 70, 127
1, 157925, Note_on_c, 0, 72, 127
1, 157925, Note_on_c, 0, 60, 127
1, 157925, Note_on_c, 10, 57, 127
1, 158197, Note_off_c, 7, 79, 127
1, 158201, Note_off_c, 10, 57, 127
1, 158201, Note_off_c, 0, 60, 127
1, 158201, Note_off_c, 0, 72, 127
1, 158202, Note_on_c, 7, 79, 127
1, 158202, Note_on_c, 0, 72, 127
1, 158202, Note_on_c, 10, 69, 127
1, 158339, Note_off_c, 10, 69, 127
1, 158339, Note_off_c, 0, 72, 127
1, 158340, Note_on_c, 11, 70, 127
1, 158340, Note_on_c, 7, 67, 127
1, 158477, Note_off_c, 7, 67, 127
1, 158477, Note_off_c, 11, 70, 127
1, 158478, Note_on_c, 0, 72, 127
1, 158478, Note_on_c, 10, 69, 127
1, 158750, Note_off_c, 7, 79, 127
1, 158754, Note_off_c, 10, 69, 127
1, 158754, Note_off_c, 0, 72, 127
1, 158755, Note_on_c, 0, 72, 127
1, 158755, Note_on_c, 7, 79, 127
1, 158755, Note_on_c, 10, 57, 127
1, 158755, Note_on_c, 3, 63, 127
1, 159031, Note_off_c, 3, 63, 127
1, 159031, Note_off_c, 10, 57, 127
1, 159031, Note_off_c, 0, 72, 127
1, 159032, Note_on_c, 2, 74, 127
1, 159032, Note_on_c, 11, 58, 127
1, 159032, Note_on_c, 2, 62, 127
1, 159304, Note_off_c, 7, 79, 127
1, 159308, Note_off_c, 2, 62, 127
1, 159308, Note_off_c, 11, 58, 127
1, 159308, Note_off_c, 2, 74, 127
1, 159309, Note_on_c, 7, 79, 127
1, 159309, Note_on_c, 2, 74, 127
1, 159309, Note_on_c, 11, 70, 127
1, 159446, Note_off_c, 11, 70, 127
1, 159446, Note_off_c, 2, 74, 127
1, 159447, Note_on_c, 0, 72, 127
1, 159447, Note_on_c, 10, 69, 127
1, 159584, Note_off_c, 10, 69, 127
1, 159584, Note_off_c, 0, 72, 127
1, 159585, Note_on_c, 2, 74, 127
1, 159585, Note_on_c, 11, 70, 127
1, 159857, Note_off_c, 7, 79, 127
1, 159861, Note_off_c, 11, 70, 127
1, 159861, Note_off_c, 2, 74, 127
1, 159862, Note_on_c, 7, 79, 127
1, 159862, Note_on_c, 2, 74, 127
1, 159862, Note_on_c, 11, 58, 127
1, 159862, Note_on_c, 7, 67, 127
1, 160138, Note_off_c, 7, 67, 127
1, 160138, Note_off_c, 11, 58, 127
1, 160138, Note_off_c, 2, 74, 127
1, 160139, Note_on_c, 3, 75, 127
1, 160139, Note_on_c, 3, 63, 127
1, 160139, Note_on_c, 0, 60, 127
1, 160411, Note_off_c, 7, 79, 127
1, 160415, Note_off_c, 0, 60, 127
1, 160415, Note_off_c, 3, 63, 127
1, 160415, Note_off_c, 3, 75, 127
1, 160416, Note_on_c, 7, 79, 127
1, 160416, Note_on_c, 3, 75, 127
1, 160416, Note_on_c, 0, 72, 127
1, 160553, Note_off_c, 0, 72, 127
1, 160553, Note_off_c, 3, 75, 127
1, 160554, Note_on_c, 2, 74, 127
1, 160554, Note_on_c, 11, 70, 127
1, 160691, Note_off_c, 11, 70, 127
1, 160691, Note_off_c, 2, 74, 127
1, 160692, Note_on_c, 3, 75, 127
1, 160692, Note_on_c, 0, 72, 127
1, 160964, Note_off_c, 7, 79, 127
1, 160968, Note_off_c, 0, 72, 127
1, 160968, Note_off_c, 3, 75, 127
1, 160969, Note_on_c, 7, 79, 127
1, 160969, Note_on_c, 2, 74, 127
1, 160969, Note_on_c, 7, 55, 127
1, 160969, Note_on_c, 11, 70, 127
1, 161245, Note_off_c, 11, 70, 127
1, 161245, Note_off_c, 7, 55, 127
1, 161245, Note_off_c, 2, 74, 127
1, 161262, Note_on_c, 2, 62, 127
1, 161262, Note_on_c, 10, 69, 127
1, 161262, Note_on_c, 2, 74, 127
1, 161535, Note_off_c, 7, 79, 127
1, 161557, Note_on_c, 7, 79, 127
1, 161862, Note_off_c, 2, 74, 127
1, 161862, Note_off_c, 10, 69, 127
1, 161868, Note_on_c, 2, 50, 127
1, 161868, Note_on_c, 2, 74, 127
1, 161868, Note_on_c, 10, 69, 127
1, 161868, Note_on_c, 0, 72, 127
1, 162190, Note_off_c, 7, 79, 127
1, 162197, Note_on_c, 6, 78, 127
1, 162615, Note_off_c, 0, 72, 127
1, 162615, Note_off_c, 10, 69, 127
1, 162615, Note_off_c, 2, 74, 127
1, 162622, Note_off_c, 6, 78, 127
1, 162622, Note_off_c, 2, 50, 127
1, 162622, Note_off_c, 2, 62, 127
1, 162624, Note_on_c, 7, 43, 127
1, 162624, Note_on_c, 2, 50, 127
1, 162624, Note_on_c, 7, 55, 127
1, 162624, Note_on_c, 11, 70, 127
1, 162624, Note_on_c, 2, 74, 127
1, 162624, Note_on_c, 7, 79, 127
1, 162624, Note_on_c, 7, 67, 127
1, 164824, Note_off_c, 7, 67, 127
1, 164824, Note_off_c, 7, 79, 127
1, 164824, Note_off_c, 2, 74, 127
1, 164824, Note_off_c, 11, 70, 127
1, 164824, Note_off_c, 7, 55, 127
1, 164824, Note_off_c, 2, 50, 127
1, 164824, Note_off_c, 7, 43, 127
1, 167578, Note_on_c, 2, 62, 127
1, 167578, Note_on_c, 2, 74, 127
1, 168070, Note_off_c, 2, 62, 127
1, 168073, Note_on_c, 5, 65, 127
1, 168261, Note_off_c, 2, 74, 127
1, 168279, Note_on_c, 5, 77, 127
1, 168421, Note_off_c, 5, 77, 127
1, 168424, Note_on_c, 4, 76, 127
1, 168566, Note_off_c, 4, 76, 127
1, 168566, Note_off_c, 5, 65, 127
1, 168569, Note_on_c, 10, 69, 127
1, 168569, Note_on_c, 5, 77, 127
1, 168675, Note_off_c, 5, 77, 127
1, 168678, Note_on_c, 4, 76, 127
1, 168784, Note_off_c, 4, 76, 127
1, 168787, Note_on_c, 5, 77, 127
1, 169063, Note_off_c, 10, 69, 127
1, 169066, Note_on_c, 5, 65, 127
1, 169311, Note_off_c, 5, 77, 127
1, 169314, Note_on_c, 7, 79, 127
1, 169559, Note_off_c, 7, 79, 127
1, 169559, Note_off_c, 5, 65, 127
1, 169562, Note_on_c, 2, 62, 127
1, 169562, Note_on_c, 10, 81, 127
1, 169807, Note_off_c, 10, 81, 127
1, 169810, Note_on_c, 7, 79, 127
1, 170055, Note_off_c, 7, 79, 127
1, 170055, Note_off_c, 2, 62, 127
1, 170058, Note_on_c, 11, 70, 127
1, 170058, Note_on_c, 10, 81, 127
1, 170303, Note_off_c, 10, 81, 127
1, 170306, Note_on_c, 11, 82, 127
1, 170537, Note_off_c, 11, 82, 127
1, 170550, Note_off_c, 11, 70, 127
1, 170553, Note_on_c, 1, 61, 127
1, 170553, Note_on_c, 5, 77, 127
1, 170716, Note_off_c, 5, 77, 127
1, 170719, Note_on_c, 4, 76, 127
1, 170814, Note_on_c, 5, 77, 127
1, 170817, Note_off_c, 4, 76, 127
1, 170894, Note_on_c, 4, 76, 127
1, 170897, Note_off_c, 5, 77, 127
1, 170972, Note_on_c, 5, 77, 127
1, 170975, Note_off_c, 4, 76, 127
1, 171047, Note_off_c, 1, 61, 127
1, 171050, Note_on_c, 11, 70, 127
1, 171055, Note_on_c, 4, 76, 127
1, 171058, Note_off_c, 5, 77, 127
1, 171473, Note_off_c, 4, 76, 127
1, 171543, Note_off_c, 11, 70, 127
1, 171546, Note_on_c, 0, 60, 127
1, 171546, Note_on_c, 10, 81, 127
1, 171791, Note_off_c, 10, 81, 127
1, 171794, Note_on_c, 11, 82, 127
1, 172039, Note_off_c, 11, 82, 127
1, 172039, Note_off_c, 0, 60, 127
1, 172042, Note_on_c, 4, 64, 127
1, 172042, Note_on_c, 10, 81, 127
1, 172287, Note_off_c, 10, 81, 127
1, 172290, Note_on_c, 7, 79, 127
1, 172535, Note_off_c, 7, 79, 127
1, 172535, Note_off_c, 4, 64, 127
1, 172538, Note_on_c, 10, 69, 127
1, 172538, Note_on_c, 5, 77, 127
1, 172732, Note_off_c, 5, 77, 127
1, 172735, Note_on_c, 4, 76, 127
1, 172874, Note_off_c, 4, 76, 127
1, 172884, Note_on_c, 7, 79, 127
1, 173023, Note_off_c, 7, 79, 127
1, 173031, Note_off_c, 10, 69, 127
1, 173034, Note_on_c, 0, 60, 127
1, 173034, Note_on_c, 5, 77, 127
1, 173189, Note_off_c, 5, 77, 127
1, 173199, Note_on_c, 4, 76, 127
1, 173354, Note_off_c, 4, 76, 127
1, 173364, Note_on_c, 2, 74, 127
1, 173519, Note_off_c, 2, 74, 127
1, 173527, Note_off_c, 0, 60, 127
1, 173530, Note_on_c, 12, 59, 127
1, 173530, Note_on_c, 2, 74, 127
1, 173775, Note_off_c, 2, 74, 127
1, 173778, Note_on_c, 1, 73, 127
1, 174023, Note_off_c, 1, 73, 127
1, 174023, Note_off_c, 12, 59, 127
1, 174026, Note_on_c, 10, 69, 127
1, 174026, Note_on_c, 2, 74, 127
1, 174464, Note_off_c, 2, 74, 127
1, 174518, Note_off_c, 10, 69, 127
1, 174521, Note_on_c, 11, 58, 127
1, 174521, Note_on_c, 7, 79, 127
1, 175013, Note_off_c, 11, 58, 127
1, 175016, Note_on_c, 2, 62, 127
1, 175137, Note_off_c, 7, 79, 127
1, 175140, Note_on_c, 10, 81, 127
1, 175261, Note_off_c, 10, 81, 127
1, 175264, Note_on_c, 11, 82, 127
1, 175385, Note_off_c, 11, 82, 127
1, 175388, Note_on_c, 10, 81, 127
1, 175509, Note_off_c, 10, 81, 127
1, 175509, Note_off_c, 2, 62, 127
1, 175512, Note_on_c, 7, 67, 127
1, 175512, Note_on_c, 7, 79, 127
1, 175633, Note_off_c, 7, 79, 127
1, 175636, Note_on_c, 10, 81, 127
1, 175757, Note_off_c, 10, 81, 127
1, 175760, Note_on_c, 7, 79, 127
1, 175881, Note_off_c, 7, 79, 127
1, 175884, Note_on_c, 5, 77, 127
1, 176005, Note_off_c, 5, 77, 127
1, 176005, Note_off_c, 7, 67, 127
1, 176008, Note_on_c, 11, 58, 127
1, 176008, Note_on_c, 4, 76, 127
1, 176145, Note_off_c, 4, 76, 127
1, 176148, Note_on_c, 2, 74, 127
1, 176264, Note_off_c, 2, 74, 127
1, 176267, Note_on_c, 1, 73, 127
1, 176383, Note_off_c, 1, 73, 127
1, 176386, Note_on_c, 2, 74, 127
1, 176489, Note_off_c, 2, 74, 127
1, 176502, Note_off_c, 11, 58, 127
1, 176505, Note_on_c, 10, 57, 127
1, 176505, Note_on_c, 2, 74, 127
1, 176997, Note_off_c, 2, 74, 127
1, 176997, Note_off_c, 10, 57, 127
1, 177000, Note_on_c, 7, 67, 127
1, 177000, Note_on_c, 1, 73, 127
1, 177492, Note_off_c, 7, 67, 127
1, 177495, Note_on_c, 10, 69, 127
1, 177877, Note_off_c, 1, 73, 127
1, 177988, Note_off_c, 10, 69, 127
1, 177991, Note_on_c, 7, 67, 127
1, 177991, Note_on_c, 1, 73, 127
1, 178483, Note_off_c, 1, 73, 127
1, 178483, Note_off_c, 7, 67, 127
1, 178486, Note_on_c, 5, 65, 127
1, 178486, Note_on_c, 2, 74, 127
1, 178767, Note_off_c, 2, 74, 127
1, 178770, Note_on_c, 4, 76, 127
1, 178912, Note_off_c, 4, 76, 127
1, 178915, Note_on_c, 2, 74, 127
1, 178979, Note_off_c, 5, 65, 127
1, 178982, Note_on_c, 4, 64, 127
1, 179057, Note_off_c, 2, 74, 127
1, 179060, Note_on_c, 1, 73, 127
1, 179199, Note_off_c, 1, 73, 127
1, 179202, Note_on_c, 2, 74, 127
1, 179333, Note_off_c, 2, 74, 127
1, 179336, Note_on_c, 4, 76, 127
1, 179475, Note_off_c, 4, 76, 127
1, 179475, Note_off_c, 4, 64, 127
1, 179478, Note_on_c, 2, 62, 127
1, 179478, Note_on_c, 5, 77, 127
1, 179723, Note_off_c, 5, 77, 127
1, 179726, Note_on_c, 7, 79, 127
1, 179847, Note_off_c, 7, 79, 127
1, 179850, Note_on_c, 5, 77, 127
1, 179971, Note_off_c, 5, 77, 127
1, 179971, Note_off_c, 2, 62, 127
1, 179974, Note_on_c, 10, 69, 127
1, 179974, Note_on_c, 4, 76, 127
1, 180170, Note_off_c, 4, 76, 127
1, 180173, Note_on_c, 5, 77, 127
1, 180328, Note_off_c, 5, 77, 127
1, 180331, Note_on_c, 2, 74, 127
1, 180468, Note_off_c, 2, 74, 127
1, 180468, Note_off_c, 10, 69, 127
1, 180471, Note_on_c, 2, 62, 127
1, 180471, Note_on_c, 10, 81, 127
1, 180963, Note_off_c, 2, 62, 127
1, 180966, Note_on_c, 4, 64, 127
1, 181458, Note_off_c, 4, 64, 127
1, 181461, Note_on_c, 12, 71, 127
1, 181706, Note_off_c, 10, 81, 127
1, 181709, Note_on_c, 8, 80, 127
1, 181830, Note_off_c, 8, 80, 127
1, 181833, Note_on_c, 10, 81, 127
1, 181954, Note_off_c, 10, 81, 127
1, 181954, Note_off_c, 12, 71, 127
1, 181957, Note_on_c, 2, 62, 127
1, 181957, Note_on_c, 8, 80, 127
1, 182202, Note_off_c, 8, 80, 127
1, 182205, Note_on_c, 10, 81, 127
1, 182436, Note_off_c, 10, 81, 127
1, 182449, Note_off_c, 2, 62, 127
1, 182452, Note_on_c, 1, 61, 127
1, 182452, Note_on_c, 10, 81, 127
1, 182671, Note_off_c, 10, 81, 127
1, 182674, Note_on_c, 4, 76, 127
1, 182803, Note_off_c, 4, 76, 127
1, 182811, Note_on_c, 6, 78, 127
1, 182940, Note_off_c, 6, 78, 127
1, 182945, Note_off_c, 1, 61, 127
1, 182948, Note_on_c, 11, 70, 127
1, 182948, Note_on_c, 7, 79, 127
1, 183115, Note_off_c, 7, 79, 127
1, 183123, Note_on_c, 10, 81, 127
1, 183275, Note_off_c, 10, 81, 127
1, 183283, Note_on_c, 11, 82, 127
1, 183435, Note_off_c, 11, 82, 127
1, 183440, Note_off_c, 11, 70, 127
1, 183443, Note_on_c, 0, 60, 127
1, 183443, Note_on_c, 7, 79, 127
1, 183935, Note_off_c, 0, 60, 127
1, 183938, Note_on_c, 2, 62, 127
1, 184183, Note_off_c, 7, 79, 127
1, 184186, Note_on_c, 6, 78, 127
1, 184307, Note_off_c, 6, 78, 127
1, 184310, Note_on_c, 7, 79, 127
1, 184431, Note_off_c, 7, 79, 127
1, 184431, Note_off_c, 2, 62, 127
1, 184434, Note_on_c, 10, 69, 127
1, 184434, Note_on_c, 6, 78, 127
1, 184679, Note_off_c, 6, 78, 127
1, 184682, Note_on_c, 7, 79, 127
1, 184803, Note_off_c, 7, 79, 127
1, 184806, Note_on_c, 6, 78, 127
1, 184927, Note_off_c, 6, 78, 127
1, 184927, Note_off_c, 10, 69, 127
1, 184930, Note_on_c, 0, 60, 127
1, 184930, Note_on_c, 4, 76, 127
1, 185093, Note_off_c, 4, 76, 127
1, 185096, Note_on_c, 7, 79, 127
1, 185253, Note_off_c, 7, 79, 127
1, 185261, Note_on_c, 6, 78, 127
1, 185418, Note_off_c, 6, 78, 127
1, 185423, Note_off_c, 0, 60, 127
1, 185426, Note_on_c, 12, 59, 127
1, 185426, Note_on_c, 7, 79, 127
1, 185671, Note_off_c, 7, 79, 127
1, 185674, Note_on_c, 2, 74, 127
1, 185919, Note_off_c, 2, 74, 127
1, 185919, Note_off_c, 12, 59, 127
1, 185922, Note_on_c, 7, 67, 127
1, 185922, Note_on_c, 1, 73, 127
1, 186167, Note_off_c, 1, 73, 127
1, 186170, Note_on_c, 2, 74, 127
1, 186415, Note_off_c, 2, 74, 127
1, 186415, Note_off_c, 7, 67, 127
1, 186418, Note_on_c, 11, 58, 127
1, 186418, Note_on_c, 4, 76, 127
1, 186663, Note_off_c, 4, 76, 127
1, 186666, Note_on_c, 2, 74, 127
1, 186911, Note_off_c, 2, 74, 127
1, 186911, Note_off_c, 11, 58, 127
1, 186914, Note_on_c, 2, 62, 127
1, 186914, Note_on_c, 1, 73, 127
1, 187159, Note_off_c, 1, 73, 127
1, 187162, Note_on_c, 2, 74, 127
1, 187407, Note_off_c, 2, 74, 127
1, 187407, Note_off_c, 2, 62, 127
1, 187410, Note_on_c, 4, 64, 127
1, 187410, Note_on_c, 7, 79, 127
1, 187655, Note_off_c, 7, 79, 127
1, 187658, Note_on_c, 2, 74, 127
1, 187903, Note_off_c, 2, 74, 127
1, 187903, Note_off_c, 4, 64, 127
1, 187906, Note_on_c, 7, 67, 127
1, 187906, Note_on_c, 11, 82, 127
1, 188151, Note_off_c, 11, 82, 127
1, 188154, Note_on_c, 2, 74, 127
1, 188396, Note_off_c, 7, 67, 127
1, 188399, Note_off_c, 2, 74, 127
1, 188402, Note_on_c, 2, 74, 127
1, 188897, Note_on_c, 10, 57, 127
1, 189389, Note_off_c, 10, 57, 127
1, 189392, Note_on_c, 1, 61, 127
1, 189513, Note_off_c, 2, 74, 127
1, 189516, Note_on_c, 1, 73, 127
1, 189637, Note_off_c, 1, 73, 127
1, 189640, Note_on_c, 2, 74, 127
1, 189761, Note_off_c, 2, 74, 127
1, 189764, Note_on_c, 1, 73, 127
1, 189885, Note_off_c, 1, 61, 127
1, 189888, Note_on_c, 4, 64, 127
1, 190016, Note_off_c, 1, 73, 127
1, 190043, Note_on_c, 10, 69, 127
1, 190163, Note_off_c, 10, 69, 127
1, 190166, Note_on_c, 12, 71, 127
1, 190286, Note_off_c, 12, 71, 127
1, 190289, Note_on_c, 1, 73, 127
1, 190409, Note_off_c, 1, 73, 127
1, 190409, Note_off_c, 4, 64, 127
1, 190412, Note_on_c, 10, 69, 127
1, 190412, Note_on_c, 2, 74, 127
1, 190540, Note_off_c, 2, 74, 127
1, 190543, Note_on_c, 4, 76, 127
1, 190671, Note_off_c, 4, 76, 127
1, 190674, Note_on_c, 6, 78, 127
1, 190802, Note_off_c, 6, 78, 127
1, 190805, Note_on_c, 8, 80, 127
1, 190933, Note_off_c, 8, 80, 127
1, 190936, Note_on_c, 10, 81, 127
1, 191127, Note_off_c, 10, 81, 127
1, 191130, Note_on_c, 8, 80, 127
1, 191239, Note_off_c, 8, 80, 127
1, 191258, Note_on_c, 6, 78, 127
1, 191364, Note_off_c, 6, 78, 127
1, 191367, Note_on_c, 8, 80, 127
1, 191449, Note_off_c, 10, 69, 127
1, 191473, Note_off_c, 8, 80, 127
1, 191476, Note_on_c, 10, 81, 127
1, 191997, Note_off_c, 10, 81, 127
1, 192016, Note_on_c, 10, 45, 127
1, 192016, Note_on_c, 10, 57, 127
1, 192016, Note_on_c, 4, 52, 127
1, 192016, Note_on_c, 10, 81, 127
1, 192016, Note_on_c, 4, 76, 127
1, 192016, Note_on_c, 0, 72, 127
1, 192537, Note_off_c, 0, 72, 127
1, 192537, Note_off_c, 4, 76, 127
1, 192537, Note_off_c, 10, 81, 127
1, 192537, Note_off_c, 4, 52, 127
1, 192537, Note_off_c, 10, 57, 127
1, 192537, Note_off_c, 10, 45, 127
1, 192540, Note_on_c, 10, 45, 127
1, 192540, Note_on_c, 10, 57, 127
1, 192540, Note_on_c, 4, 52, 127
1, 192540, Note_on_c, 4, 76, 127
1, 192540, Note_on_c, 0, 72, 127
1, 192540, Note_on_c, 10, 81, 127
1, 193061, Note_off_c, 10, 81, 127
1, 193061, Note_off_c, 0, 72, 127
1, 193061, Note_off_c, 4, 76, 127
1, 193061, Note_off_c, 4, 52, 127
1, 193061, Note_off_c, 10, 57, 127
1, 193061, Note_off_c, 10, 45, 127
1, 193064, Note_on_c, 10, 45, 127
1, 193064, Note_on_c, 4, 52, 127
1, 193064, Note_on_c, 10, 57, 127
1, 193064, Note_on_c, 10, 81, 127
1, 193064, Note_on_c, 4, 76, 127
1, 193064, Note_on_c, 0, 72, 127
1, 193585, Note_off_c, 0, 72, 127
1, 193585, Note_off_c, 4, 76, 127
1, 193585, Note_off_c, 10, 81, 127
1, 193585, Note_off_c, 10, 57, 127
1, 193585, Note_off_c, 4, 52, 127
1, 193585, Note_off_c, 10, 45, 127
1, 193588, Note_on_c, 4, 52, 127
1, 193588, Note_on_c, 10, 45, 127
1, 193588, Note_on_c, 10, 57, 127
1, 193588, Note_on_c, 10, 81, 127
1, 193588, Note_on_c, 4, 76, 127
1, 193588, Note_on_c, 0, 72, 127
1, 194109, Note_off_c, 0, 72, 127
1, 194109, Note_off_c, 4, 76, 127
1, 194109, Note_off_c, 10, 81, 127
1, 194109, Note_off_c, 10, 57, 127
1, 194109, Note_off_c, 10, 45, 127
1, 194109, Note_off_c, 4, 52, 127
1, 194112, Note_on_c, 4, 52, 127
1, 194112, Note_on_c, 10, 45, 127
1, 194112, Note_on_c, 10, 57, 127
1, 194112, Note_on_c, 10, 81, 127
1, 194112, Note_on_c, 4, 76, 127
1, 194112, Note_on_c, 0, 72, 127
1, 194633, Note_off_c, 0, 72, 127
1, 194633, Note_off_c, 4, 76, 127
1, 194633, Note_off_c, 10, 81, 127
1, 194633, Note_off_c, 10, 57, 127
1, 194633, Note_off_c, 10, 45, 127
1, 194633, Note_off_c, 4, 52, 127
1, 194636, Note_on_c, 12, 59, 127
1, 194636, Note_on_c, 4, 52, 127
1, 194636, Note_on_c, 4, 76, 127
1, 194636, Note_on_c, 12, 71, 127
1, 194636, Note_on_c, 10, 81, 127
1, 195157, Note_off_c, 10, 81, 127
1, 195157, Note_off_c, 12, 71, 127
1, 195157, Note_off_c, 4, 76, 127
1, 195157, Note_off_c, 4, 52, 127
1, 195157, Note_off_c, 12, 59, 127
1, 195160, Note_on_c, 12, 59, 127
1, 195160, Note_on_c, 4, 52, 127
1, 195160, Note_on_c, 10, 81, 127
1, 195160, Note_on_c, 4, 76, 127
1, 195160, Note_on_c, 12, 71, 127
1, 195681, Note_off_c, 12, 71, 127
1, 195681, Note_off_c, 4, 76, 127
1, 195681, Note_off_c, 10, 81, 127
1, 195681, Note_off_c, 4, 52, 127
1, 195681, Note_off_c, 12, 59, 127
1, 195684, Note_on_c, 12, 59, 127
1, 195684, Note_on_c, 4, 52, 127
1, 195684, Note_on_c, 12, 71, 127
1, 195684, Note_on_c, 4, 76, 127
1, 195684, Note_on_c, 10, 81, 127
1, 196205, Note_off_c, 10, 81, 127
1, 196205, Note_off_c, 4, 76, 127
1, 196205, Note_off_c, 12, 71, 127
1, 196205, Note_off_c, 4, 52, 127
1, 196205, Note_off_c, 12, 59, 127
1, 196208, Note_on_c, 12, 59, 127
1, 196208, Note_on_c, 4, 52, 127
1, 196208, Note_on_c, 10, 81, 127
1, 196208, Note_on_c, 4, 76, 127
1, 196208, Note_on_c, 12, 71, 127
1, 196729, Note_off_c, 12, 71, 127
1, 196729, Note_off_c, 4, 76, 127
1, 196729, Note_off_c, 10, 81, 127
1, 196729, Note_off_c, 4, 52, 127
1, 196729, Note_off_c, 12, 59, 127
1, 196732, Note_on_c, 4, 52, 127
1, 196732, Note_on_c, 12, 59, 127
1, 196732, Note_on_c, 12, 71, 127
1, 196732, Note_on_c, 10, 81, 127
1, 196732, Note_on_c, 4, 76, 127
1, 197253, Note_off_c, 4, 76, 127
1, 197253, Note_off_c, 10, 81, 127
1, 197253, Note_off_c, 12, 71, 127
1, 197253, Note_off_c, 12, 59, 127
1, 197253, Note_off_c, 4, 52, 127
1, 197256, Note_on_c, 4, 52, 127
1, 197256, Note_on_c, 12, 59, 127
1, 197256, Note_on_c, 12, 71, 127
1, 197256, Note_on_c, 10, 81, 127
1, 197256, Note_on_c, 4, 76, 127
1, 197777, Note_off_c, 4, 76, 127
1, 197777, Note_off_c, 10, 81, 127
1, 197777, Note_off_c, 12, 71, 127
1, 197777, Note_off_c, 12, 59, 127
1, 197777, Note_off_c, 4, 52, 127
1, 197780, Note_on_c, 4, 52, 127
1, 197780, Note_on_c, 4, 40, 127
1, 197780, Note_on_c, 4, 76, 127
1, 197780, Note_on_c, 2, 74, 127
1, 197780, Note_on_c, 12, 71, 127
1, 197780, Note_on_c, 8, 80, 127
1, 198301, Note_off_c, 8, 80, 127
1, 198301, Note_off_c, 12, 71, 127
1, 198301, Note_off_c, 2, 74, 127
1, 198301, Note_off_c, 4, 76, 127
1, 198301, Note_off_c, 4, 40, 127
1, 198301, Note_off_c, 4, 52, 127
1, 198304, Note_on_c, 4, 40, 127
1, 198304, Note_on_c, 4, 52, 127
1, 198304, Note_on_c, 4, 76, 127
1, 198304, Note_on_c, 2, 74, 127
1, 198304, Note_on_c, 8, 80, 127
1, 198304, Note_on_c, 12, 71, 127
1, 198825, Note_off_c, 12, 71, 127
1, 198825, Note_off_c, 8, 80, 127
1, 198825, Note_off_c, 2, 74, 127
1, 198825, Note_off_c, 4, 76, 127
1, 198825, Note_off_c, 4, 52, 127
1, 198825, Note_off_c, 4, 40, 127
1, 198828, Note_on_c, 4, 52, 127
1, 198828, Note_on_c, 4, 40, 127
1, 198828, Note_on_c, 2, 74, 127
1, 198828, Note_on_c, 12, 71, 127
1, 198828, Note_on_c, 8, 80, 127
1, 198828, Note_on_c, 4, 76, 127
1, 199349, Note_off_c, 4, 76, 127
1, 199349, Note_off_c, 8, 80, 127
1, 199349, Note_off_c, 12, 71, 127
1, 199349, Note_off_c, 2, 74, 127
1, 199349, Note_off_c, 4, 40, 127
1, 199349, Note_off_c, 4, 52, 127
1, 199352, Note_on_c, 4, 40, 127
1, 199352, Note_on_c, 4, 52, 127
1, 199352, Note_on_c, 2, 74, 127
1, 199352, Note_on_c, 12, 71, 127
1, 199352, Note_on_c, 8, 80, 127
1, 199352, Note_on_c, 4, 76, 127
1, 199873, Note_off_c, 4, 76, 127
1, 199873, Note_off_c, 8, 80, 127
1, 199873, Note_off_c, 12, 71, 127
1, 199873, Note_off_c, 2, 74, 127
1, 199873, Note_off_c, 4, 52, 127
1, 199873, Note_off_c, 4, 40, 127
1, 199876, Note_on_c, 4, 40, 127
1, 199876, Note_on_c, 4, 52, 127
1, 199876, Note_on_c, 12, 71, 127
1, 199876, Note_on_c, 8, 80, 127
1, 199876, Note_on_c, 4, 76, 127
1, 199876, Note_on_c, 2, 74, 127
1, 200397, Note_off_c, 2, 74, 127
1, 200397, Note_off_c, 4, 76, 127
1, 200397, Note_off_c, 8, 80, 127
1, 200397, Note_off_c, 12, 71, 127
1, 200397, Note_off_c, 4, 52, 127
1, 200397, Note_off_c, 4, 40, 127
1, 200408, Note_on_c, 4, 40, 127
1, 200408, Note_on_c, 4, 52, 127
1, 200408, Note_on_c, 2, 74, 127
1, 200408, Note_on_c, 12, 71, 127
1, 200408, Note_on_c, 8, 80, 127
1, 200408, Note_on_c, 4, 76, 127
1, 200929, Note_off_c, 4, 76, 127
1, 200929, Note_off_c, 8, 80, 127
1, 200929, Note_off_c, 12, 71, 127
1, 200929, Note_off_c, 2, 74, 127
1, 200929, Note_off_c, 4, 52, 127
1, 200929, Note_off_c, 4, 40, 127
1, 200948, Note_on_c, 10, 81, 127
1, 200948, Note_on_c, 0, 72, 127
1, 200948, Note_on_c, 4, 76, 127
1, 200948, Note_on_c, 10, 57, 127
1, 200948, Note_on_c, 10, 45, 127
1, 200948, Note_on_c, 4, 52, 127
1, 201437, Note_off_c, 4, 52, 127
1, 201440, Note_off_c, 10, 45, 127
1, 201440, Note_off_c, 4, 76, 127
1, 201440, Note_off_c, 0, 72, 127
1, 201440, Note_off_c, 10, 81, 127
1, 201514, Note_on_c, 0, 72, 127
1, 201928, Note_off_c, 10, 57, 127
1, 202023, Note_off_c, 0, 72, 127
1, 202025, Note_on_c, 10, 57, 127
1, 202025, Note_on_c, 12, 71, 127
1, 202255, Note_off_c, 12, 71, 127
1, 202258, Note_on_c, 2, 74, 127
1, 202387, Note_off_c, 2, 74, 127
1, 202390, Note_on_c, 0, 72, 127
1, 202519, Note_off_c, 0, 72, 127
1, 202519, Note_off_c, 10, 57, 127
1, 202522, Note_on_c, 0, 60, 127
1, 202522, Note_on_c, 12, 71, 127
1, 202716, Note_off_c, 12, 71, 127
1, 202719, Note_on_c, 0, 72, 127
1, 202865, Note_off_c, 0, 72, 127
1, 202868, Note_on_c, 10, 69, 127
1, 203014, Note_off_c, 10, 69, 127
1, 203014, Note_off_c, 0, 60, 127
1, 203017, Note_on_c, 5, 65, 127
1, 203017, Note_on_c, 10, 81, 127
1, 203262, Note_off_c, 10, 81, 127
1, 203265, Note_on_c, 12, 83, 127
1, 203386, Note_off_c, 12, 83, 127
1, 203389, Note_on_c, 0, 84, 127
1, 203510, Note_off_c, 0, 84, 127
1, 203510, Note_off_c, 5, 65, 127
1, 203513, Note_on_c, 10, 57, 127
1, 203513, Note_on_c, 12, 83, 127
1, 203634, Note_off_c, 12, 83, 127
1, 203637, Note_on_c, 10, 81, 127
1, 203758, Note_off_c, 10, 81, 127
1, 203761, Note_on_c, 8, 80, 127
1, 203882, Note_off_c, 8, 80, 127
1, 203885, Note_on_c, 10, 81, 127
1, 204006, Note_off_c, 10, 81, 127
1, 204006, Note_off_c, 10, 57, 127
1, 204009, Note_on_c, 8, 56, 127
1, 204009, Note_on_c, 5, 77, 127
1, 204254, Note_off_c, 5, 77, 127
1, 204257, Note_on_c, 4, 76, 127
1, 204502, Note_off_c, 4, 76, 127
1, 204502, Note_off_c, 8, 56, 127
1, 204505, Note_on_c, 5, 65, 127
1, 204505, Note_on_c, 5, 77, 127
1, 204644, Note_off_c, 5, 77, 127
1, 204647, Note_on_c, 3, 75, 127
1, 204786, Note_off_c, 3, 75, 127
1, 204789, Note_on_c, 4, 76, 127
1, 204998, Note_off_c, 4, 76, 127
1, 204998, Note_off_c, 5, 65, 127
1, 205001, Note_on_c, 7, 55, 127
1, 205001, Note_on_c, 4, 76, 127
1, 205101, Note_off_c, 4, 76, 127
1, 205104, Note_on_c, 3, 75, 127
1, 205204, Note_off_c, 3, 75, 127
1, 205207, Note_on_c, 4, 76, 127
1, 205493, Note_off_c, 7, 55, 127
1, 205496, Note_on_c, 12, 59, 127
1, 205988, Note_off_c, 12, 59, 127
1, 205991, Note_on_c, 4, 64, 127
1, 206061, Note_off_c, 4, 76, 127
1, 206115, Note_on_c, 4, 76, 127
1, 206236, Note_off_c, 4, 76, 127
1, 206239, Note_on_c, 0, 84, 127
1, 206360, Note_off_c, 0, 84, 127
1, 206363, Note_on_c, 12, 83, 127
1, 206484, Note_off_c, 12, 83, 127
1, 206484, Note_off_c, 4, 64, 127
1, 206487, Note_on_c, 7, 55, 127
1, 206487, Note_on_c, 10, 81, 127
1, 206690, Note_off_c, 10, 81, 127
1, 206693, Note_on_c, 12, 83, 127
1, 206835, Note_off_c, 12, 83, 127
1, 206838, Note_on_c, 8, 80, 127
1, 206980, Note_off_c, 8, 80, 127
1, 206980, Note_off_c, 7, 55, 127
1, 206983, Note_on_c, 6, 54, 127
1, 206983, Note_on_c, 10, 81, 127
1, 207228, Note_off_c, 10, 81, 127
1, 207231, Note_on_c, 4, 76, 127
1, 207476, Note_off_c, 4, 76, 127
1, 207476, Note_off_c, 6, 54, 127
1, 207479, Note_on_c, 4, 64, 127
1, 207479, Note_on_c, 0, 72, 127
1, 207724, Note_off_c, 0, 72, 127
1, 207727, Note_on_c, 10, 69, 127
1, 207972, Note_off_c, 10, 69, 127
1, 207972, Note_off_c, 4, 64, 127
1, 207975, Note_on_c, 5, 53, 127
1, 207975, Note_on_c, 10, 69, 127
1, 208467, Note_off_c, 5, 53, 127
1, 208470, Note_on_c, 10, 57, 127
1, 208591, Note_off_c, 10, 69, 127
1, 208594, Note_on_c, 8, 68, 127
1, 208715, Note_off_c, 8, 68, 127
1, 208718, Note_on_c, 10, 69, 127
1, 208839, Note_off_c, 10, 69, 127
1, 208842, Note_on_c, 12, 71, 127
1, 208963, Note_off_c, 12, 71, 127
1, 208963, Note_off_c, 10, 57, 127
1, 208966, Note_on_c, 2, 62, 127
1, 208966, Note_on_c, 0, 72, 127
1, 209087, Note_off_c, 0, 72, 127
1, 209090, Note_on_c, 12, 71, 127
1, 209211, Note_off_c, 12, 71, 127
1, 209214, Note_on_c, 0, 72, 127
1, 209335, Note_off_c, 0, 72, 127
1, 209338, Note_on_c, 2, 74, 127
1, 209459, Note_off_c, 2, 74, 127
1, 209459, Note_off_c, 2, 62, 127
1, 209462, Note_on_c, 5, 53, 127
1, 209462, Note_on_c, 4, 76, 127
1, 209583, Note_off_c, 4, 76, 127
1, 209586, Note_on_c, 2, 74, 127
1, 209707, Note_off_c, 2, 74, 127
1, 209710, Note_on_c, 0, 72, 127
1, 209831, Note_off_c, 0, 72, 127
1, 209834, Note_on_c, 2, 74, 127
1, 209955, Note_off_c, 2, 74, 127
1, 209955, Note_off_c, 5, 53, 127
1, 209958, Note_on_c, 4, 52, 127
1, 209958, Note_on_c, 4, 76, 127
1, 210450, Note_off_c, 4, 52, 127
1, 210453, Note_on_c, 12, 59, 127
1, 210945, Note_off_c, 12, 59, 127
1, 210948, Note_on_c, 4, 64, 127
1, 210990, Note_off_c, 4, 76, 127
1, 211196, Note_on_c, 3, 75, 127
1, 211441, Note_off_c, 3, 75, 127
1, 211441, Note_off_c, 4, 64, 127
1, 211444, Note_on_c, 7, 67, 127
1, 211444, Note_on_c, 4, 76, 127
1, 211689, Note_off_c, 4, 76, 127
1, 211692, Note_on_c, 6, 78, 127
1, 211937, Note_off_c, 6, 78, 127
1, 211937, Note_off_c, 7, 67, 127
1, 211940, Note_on_c, 0, 72, 127
1, 211940, Note_on_c, 7, 79, 127
1, 212185, Note_off_c, 7, 79, 127
1, 212188, Note_on_c, 10, 81, 127
1, 212433, Note_off_c, 10, 81, 127
1, 212433, Note_off_c, 0, 72, 127
1, 212436, Note_on_c, 4, 64, 127
1, 212436, Note_on_c, 12, 83, 127
1, 212681, Note_off_c, 12, 83, 127
1, 212684, Note_on_c, 0, 84, 127
1, 212929, Note_off_c, 0, 84, 127
1, 212932, Note_on_c, 6, 66, 127
1, 212932, Note_on_c, 0, 84, 127
1, 213424, Note_off_c, 0, 84, 127
1, 213424, Note_off_c, 6, 66, 127
1, 213427, Note_on_c, 10, 69, 127
1, 213427, Note_on_c, 7, 79, 127
1, 213522, Note_off_c, 7, 79, 127
1, 213525, Note_on_c, 6, 78, 127
1, 213620, Note_off_c, 6, 78, 127
1, 213623, Note_on_c, 7, 79, 127
1, 213718, Note_off_c, 7, 79, 127
1, 213721, Note_on_c, 6, 78, 127
1, 213919, Note_off_c, 10, 69, 127
1, 213919, Note_off_c, 4, 64, 127
1, 213922, Note_on_c, 2, 62, 127
1, 214417, Note_on_c, 6, 66, 127
1, 214592, Note_off_c, 6, 78, 127
1, 214664, Note_on_c, 10, 81, 127
1, 214785, Note_off_c, 10, 81, 127
1, 214788, Note_on_c, 8, 80, 127
1, 214909, Note_off_c, 8, 80, 127
1, 214909, Note_off_c, 6, 66, 127
1, 214912, Note_on_c, 12, 71, 127
1, 214912, Note_on_c, 10, 81, 127
1, 215106, Note_off_c, 10, 81, 127
1, 215109, Note_on_c, 12, 83, 127
1, 215255, Note_off_c, 12, 83, 127
1, 215258, Note_on_c, 0, 84, 127
1, 215404, Note_off_c, 0, 84, 127
1, 215404, Note_off_c, 2, 62, 127
1, 215407, Note_on_c, 2, 62, 127
1, 215407, Note_on_c, 12, 83, 127
1, 215570, Note_off_c, 12, 83, 127
1, 215573, Note_on_c, 0, 84, 127
1, 215736, Note_off_c, 0, 84, 127
1, 215739, Note_on_c, 10, 81, 127
1, 215894, Note_off_c, 12, 71, 127
1, 215902, Note_off_c, 10, 81, 127
1, 215905, Note_on_c, 4, 64, 127
1, 215905, Note_on_c, 10, 81, 127
1, 216191, Note_off_c, 10, 81, 127
1, 216194, Note_on_c, 8, 80, 127
1, 216294, Note_off_c, 8, 80, 127
1, 216297, Note_on_c, 10, 81, 127
1, 216397, Note_off_c, 10, 81, 127
1, 216397, Note_off_c, 4, 64, 127
1, 216400, Note_on_c, 8, 68, 127
1, 216400, Note_on_c, 8, 80, 127
1, 216838, Note_off_c, 8, 80, 127
1, 216892, Note_off_c, 8, 68, 127
1, 216892, Note_off_c, 2, 62, 127
1, 216895, Note_on_c, 0, 60, 127
1, 216895, Note_on_c, 10, 81, 127
1, 217140, Note_off_c, 10, 81, 127
1, 217143, Note_on_c, 7, 79, 127
1, 217388, Note_off_c, 7, 79, 127
1, 217391, Note_on_c, 4, 64, 127
1, 217391, Note_on_c, 5, 77, 127
1, 217636, Note_off_c, 5, 77, 127
1, 217639, Note_on_c, 4, 76, 127
1, 217884, Note_off_c, 4, 76, 127
1, 217884, Note_off_c, 4, 64, 127
1, 217887, Note_on_c, 10, 69, 127
1, 217887, Note_on_c, 5, 77, 127
1, 218106, Note_off_c, 5, 77, 127
1, 218134, Note_on_c, 3, 75, 127
1, 218379, Note_off_c, 0, 60, 127
1, 218382, Note_on_c, 0, 60, 127
1, 218601, Note_off_c, 3, 75, 127
1, 218629, Note_on_c, 4, 76, 127
1, 218866, Note_off_c, 10, 69, 127
1, 218876, Note_on_c, 6, 66, 127
1, 219285, Note_on_c, 3, 75, 127
1, 219337, Note_off_c, 4, 76, 127
1, 219368, Note_off_c, 6, 66, 127
1, 219371, Note_on_c, 10, 69, 127
1, 219863, Note_off_c, 10, 69, 127
1, 219863, Note_off_c, 0, 60, 127
1, 219866, Note_on_c, 12, 59, 127
1, 220136, Note_off_c, 3, 75, 127
1, 220375, Note_off_c, 12, 59, 127
1, 220378, Note_on_c, 3, 63, 127
1, 220378, Note_on_c, 12, 71, 127
1, 220641, Note_off_c, 12, 71, 127
1, 220644, Note_on_c, 3, 75, 127
1, 220774, Note_off_c, 3, 75, 127
1, 220777, Note_on_c, 6, 78, 127
1, 220907, Note_off_c, 6, 78, 127
1, 220907, Note_off_c, 3, 63, 127
1, 220910, Note_on_c, 6, 66, 127
1, 220910, Note_on_c, 10, 81, 127
1, 221040, Note_off_c, 10, 81, 127
1, 221043, Note_on_c, 0, 84, 127
1, 221173, Note_off_c, 0, 84, 127
1, 221176, Note_on_c, 12, 83, 127
1, 221306, Note_off_c, 12, 83, 127
1, 221309, Note_on_c, 10, 81, 127
1, 221439, Note_off_c, 10, 81, 127
1, 221439, Note_off_c, 6, 66, 127
1, 221442, Note_on_c, 10, 57, 127
1, 221442, Note_on_c, 7, 79, 127
1, 221589, Note_off_c, 7, 79, 127
1, 221592, Note_on_c, 6, 78, 127
1, 221689, Note_off_c, 6, 78, 127
1, 221692, Note_on_c, 4, 76, 127
1, 221784, Note_off_c, 4, 76, 127
1, 221787, Note_on_c, 7, 79, 127
1, 221872, Note_off_c, 7, 79, 127
1, 221875, Note_on_c, 6, 78, 127
1, 221960, Note_off_c, 6, 78, 127
1, 221960, Note_off_c, 10, 57, 127
1, 221963, Note_on_c, 7, 55, 127
1, 221963, Note_on_c, 3, 75, 127
1, 222455, Note_off_c, 3, 75, 127
1, 222455, Note_off_c, 7, 55, 127
1, 222458, Note_on_c, 12, 59, 127
1, 222458, Note_on_c, 4, 76, 127
1, 222925, Note_off_c, 4, 76, 127
1, 222951, Note_off_c, 12, 59, 127
1, 222954, Note_on_c, 4, 64, 127
1, 222954, Note_on_c, 12, 83, 127
1, 223209, Note_off_c, 12, 83, 127
1, 223212, Note_on_c, 7, 79, 127
1, 223446, Note_off_c, 7, 79, 127
1, 223446, Note_off_c, 4, 64, 127
1, 223449, Note_on_c, 12, 59, 127
1, 223449, Note_on_c, 10, 81, 127
1, 223704, Note_off_c, 10, 81, 127
1, 223707, Note_on_c, 6, 78, 127
1, 223941, Note_off_c, 6, 78, 127
1, 223941, Note_off_c, 12, 59, 127
1, 223944, Note_on_c, 7, 55, 127
1, 223944, Note_on_c, 7, 79, 127
1, 224199, Note_off_c, 7, 79, 127
1, 224202, Note_on_c, 4, 76, 127
1, 224436, Note_off_c, 4, 76, 127
1, 224436, Note_off_c, 7, 55, 127
1, 224439, Note_on_c, 4, 64, 127
1, 224439, Note_on_c, 5, 77, 127
1, 224725, Note_off_c, 5, 77, 127
1, 224728, Note_on_c, 2, 74, 127
1, 224931, Note_off_c, 2, 74, 127
1, 224931, Note_off_c, 4, 64, 127
1, 224934, Note_on_c, 7, 55, 127
1, 224934, Note_on_c, 2, 74, 127
1, 225241, Note_off_c, 2, 74, 127
1, 225244, Note_on_c, 1, 73, 127
1, 225334, Note_off_c, 1, 73, 127
1, 225337, Note_on_c, 2, 74, 127
1, 225427, Note_off_c, 2, 74, 127
1, 225427, Note_off_c, 7, 55, 127
1, 225430, Note_on_c, 10, 57, 127
1, 225430, Note_on_c, 1, 73, 127
1, 225899, Note_off_c, 1, 73, 127
1, 225923, Note_off_c, 10, 57, 127
1, 225926, Note_on_c, 1, 61, 127
1, 225926, Note_on_c, 10, 81, 127
1, 226171, Note_off_c, 10, 81, 127
1, 226174, Note_on_c, 11, 82, 127
1, 226419, Note_off_c, 11, 82, 127
1, 226419, Note_off_c, 1, 61, 127
1, 226422, Note_on_c, 10, 57, 127
1, 226422, Note_on_c, 10, 81, 127
1, 226667, Note_off_c, 10, 81, 127
1, 226670, Note_on_c, 7, 79, 127
1, 226915, Note_off_c, 7, 79, 127
1, 226915, Note_off_c, 10, 57, 127
1, 226918, Note_on_c, 7, 55, 127
1, 226918, Note_on_c, 5, 77, 127
1, 227163, Note_off_c, 5, 77, 127
1, 227166, Note_on_c, 4, 76, 127
1, 227411, Note_off_c, 4, 76, 127
1, 227411, Note_off_c, 7, 55, 127
1, 227414, Note_on_c, 4, 64, 127
1, 227414, Note_on_c, 2, 74, 127
1, 227659, Note_off_c, 2, 74, 127
1, 227662, Note_on_c, 1, 73, 127
1, 227907, Note_off_c, 1, 73, 127
1, 227907, Note_off_c, 4, 64, 127
1, 227910, Note_on_c, 5, 53, 127
1, 227910, Note_on_c, 1, 73, 127
1, 228402, Note_off_c, 1, 73, 127
1, 228402, Note_off_c, 5, 53, 127
1, 228405, Note_on_c, 10, 57, 127
1, 228405, Note_on_c, 2, 74, 127
1, 228897, Note_off_c, 10, 57, 127
1, 228900, Note_on_c, 2, 62, 127
1, 229145, Note_off_c, 2, 74, 127
1, 229148, Note_on_c, 5, 77, 127
1, 229393, Note_off_c, 5, 77, 127
1, 229393, Note_off_c, 2, 62, 127
1, 229396, Note_on_c, 10, 57, 127
1, 229396, Note_on_c, 4, 76, 127
1, 229641, Note_off_c, 4, 76, 127
1, 229644, Note_on_c, 2, 74, 127
1, 229889, Note_off_c, 2, 74, 127
1, 229889, Note_off_c, 10, 57, 127
1, 229892, Note_on_c, 5, 53, 127
1, 229892, Note_on_c, 10, 81, 127
1, 230137, Note_off_c, 10, 81, 127
1, 230140, Note_on_c, 5, 77, 127
1, 230385, Note_off_c, 5, 77, 127
1, 230385, Note_off_c, 5, 53, 127
1, 230388, Note_on_c, 2, 62, 127
1, 230388, Note_on_c, 4, 76, 127
1, 230582, Note_off_c, 4, 76, 127
1, 230585, Note_on_c, 5, 77, 127
1, 230731, Note_off_c, 5, 77, 127
1, 230734, Note_on_c, 2, 74, 127
1, 230880, Note_off_c, 2, 74, 127
1, 230880, Note_off_c, 2, 62, 127
1, 230883, Note_on_c, 5, 53, 127
1, 230883, Note_on_c, 11, 82, 127
1, 231128, Note_off_c, 11, 82, 127
1, 231131, Note_on_c, 0, 84, 127
1, 231376, Note_off_c, 0, 84, 127
1, 231376, Note_off_c, 5, 53, 127
1, 231379, Note_on_c, 7, 55, 127
1, 231379, Note_on_c, 10, 81, 127
1, 231624, Note_off_c, 10, 81, 127
1, 231627, Note_on_c, 11, 82, 127
1, 231872, Note_off_c, 11, 82, 127
1, 231872, Note_off_c, 7, 55, 127
1, 231875, Note_on_c, 4, 52, 127
1, 231875, Note_on_c, 10, 81, 127
1, 232145, Note_off_c, 10, 81, 127
1, 232148, Note_on_c, 11, 82, 127
1, 232367, Note_off_c, 11, 82, 127
1, 232367, Note_off_c, 4, 52, 127
1, 232370, Note_on_c, 7, 55, 127
1, 232370, Note_on_c, 0, 84, 127
1, 232573, Note_off_c, 0, 84, 127
1, 232576, Note_on_c, 11, 82, 127
1, 232779, Note_off_c, 11, 82, 127
1, 232782, Note_on_c, 0, 84, 127
1, 232862, Note_off_c, 7, 55, 127
1, 232865, Note_on_c, 0, 60, 127
1, 232914, Note_off_c, 0, 84, 127
1, 232917, Note_on_c, 11, 82, 127
1, 233048, Note_off_c, 11, 82, 127
1, 233051, Note_on_c, 0, 84, 127
1, 233182, Note_off_c, 0, 84, 127
1, 233185, Note_on_c, 11, 82, 127
1, 233316, Note_off_c, 11, 82, 127
1, 233319, Note_on_c, 0, 84, 127
1, 233358, Note_off_c, 0, 60, 127
1, 233361, Note_on_c, 4, 52, 127
1, 233451, Note_off_c, 0, 84, 127
1, 233454, Note_on_c, 11, 82, 127
1, 233585, Note_off_c, 11, 82, 127
1, 233588, Note_on_c, 10, 81, 127
1, 233719, Note_off_c, 10, 81, 127
1, 233722, Note_on_c, 11, 82, 127
1, 233853, Note_off_c, 11, 82, 127
1, 233853, Note_off_c, 4, 52, 127
1, 233856, Note_on_c, 5, 53, 127
1, 233856, Note_on_c, 11, 82, 127
1, 234348, Note_off_c, 5, 53, 127
1, 234351, Note_on_c, 10, 57, 127
1, 234627, Note_off_c, 11, 82, 127
1, 234630, Note_on_c, 10, 81, 127
1, 234736, Note_off_c, 10, 81, 127
1, 234739, Note_on_c, 11, 82, 127
1, 234845, Note_off_c, 11, 82, 127
1, 234845, Note_off_c, 10, 57, 127
1, 234848, Note_on_c, 0, 60, 127
1, 234848, Note_on_c, 10, 81, 127
1, 235340, Note_off_c, 0, 60, 127
1, 235343, Note_on_c, 5, 65, 127
1, 235570, Note_off_c, 10, 81, 127
1, 235591, Note_on_c, 11, 82, 127
1, 235836, Note_off_c, 11, 82, 127
1, 235836, Note_off_c, 5, 65, 127
1, 235839, Note_on_c, 11, 58, 127
1, 235839, Note_on_c, 10, 81, 127
1, 236002, Note_off_c, 10, 81, 127
1, 236005, Note_on_c, 7, 79, 127
1, 236168, Note_off_c, 7, 79, 127
1, 236171, Note_on_c, 5, 77, 127
1, 236334, Note_off_c, 5, 77, 127
1, 236334, Note_off_c, 11, 58, 127
1, 236337, Note_on_c, 7, 67, 127
1, 236337, Note_on_c, 4, 76, 127
1, 236706, Note_off_c, 4, 76, 127
1, 236709, Note_on_c, 5, 77, 127
1, 236830, Note_off_c, 5, 77, 127
1, 236830, Note_off_c, 7, 67, 127
1, 236833, Note_on_c, 0, 60, 127
1, 236833, Note_on_c, 5, 77, 127
1, 237099, Note_off_c, 5, 77, 127
1, 237102, Note_on_c, 4, 76, 127
1, 237213, Note_off_c, 4, 76, 127
1, 237216, Note_on_c, 5, 77, 127
1, 237327, Note_off_c, 5, 77, 127
1, 237327, Note_off_c, 0, 60, 127
1, 237330, Note_on_c, 4, 64, 127
1, 237330, Note_on_c, 4, 76, 127
1, 237822, Note_off_c, 4, 64, 127
1, 237825, Note_on_c, 7, 67, 127
1, 238005, Note_off_c, 4, 76, 127
1, 238072, Note_on_c, 0, 72, 127
1, 238317, Note_off_c, 0, 72, 127
1, 238317, Note_off_c, 7, 67, 127
1, 238320, Note_on_c, 11, 58, 127
1, 238320, Note_on_c, 2, 74, 127
1, 238487, Note_off_c, 2, 74, 127
1, 238490, Note_on_c, 5, 77, 127
1, 238650, Note_off_c, 5, 77, 127
1, 238653, Note_on_c, 4, 76, 127
1, 238813, Note_off_c, 4, 76, 127
1, 238813, Note_off_c, 11, 58, 127
1, 238816, Note_on_c, 10, 57, 127
1, 238816, Note_on_c, 4, 76, 127
1, 239308, Note_off_c, 4, 76, 127
1, 239308, Note_off_c, 10, 57, 127
1, 239311, Note_on_c, 5, 65, 127
1, 239311, Note_on_c, 5, 77, 127
1, 239432, Note_off_c, 5, 77, 127
1, 239435, Note_on_c, 4, 76, 127
1, 239556, Note_off_c, 4, 76, 127
1, 239559, Note_on_c, 5, 77, 127
1, 239804, Note_off_c, 5, 65, 127
1, 239807, Note_on_c, 2, 62, 127
1, 240176, Note_off_c, 5, 77, 127
1, 240179, Note_on_c, 7, 79, 127
1, 240300, Note_off_c, 7, 79, 127
1, 240300, Note_off_c, 2, 62, 127
1, 240303, Note_on_c, 11, 58, 127
1, 240303, Note_on_c, 5, 77, 127
1, 240424, Note_off_c, 5, 77, 127
1, 240427, Note_on_c, 4, 76, 127
1, 240548, Note_off_c, 4, 76, 127
1, 240551, Note_on_c, 5, 77, 127
1, 240672, Note_off_c, 5, 77, 127
1, 240675, Note_on_c, 7, 79, 127
1, 240796, Note_off_c, 7, 79, 127
1, 240796, Note_off_c, 11, 58, 127
1, 240799, Note_on_c, 0, 60, 127
1, 240799, Note_on_c, 5, 77, 127
1, 241065, Note_off_c, 5, 77, 127
1, 241068, Note_on_c, 7, 79, 127
1, 241292, Note_off_c, 7, 79, 127
1, 241292, Note_off_c, 0, 60, 127
1, 241295, Note_on_c, 11, 58, 127
1, 241295, Note_on_c, 10, 81, 127
1, 241514, Note_off_c, 10, 81, 127
1, 241517, Note_on_c, 7, 79, 127
1, 241733, Note_off_c, 7, 79, 127
1, 241736, Note_on_c, 10, 81, 127
1, 241788, Note_off_c, 11, 58, 127
1, 241791, Note_on_c, 0, 60, 127
1, 241866, Note_off_c, 10, 81, 127
1, 241869, Note_on_c, 7, 79, 127
1, 241998, Note_off_c, 7, 79, 127
1, 242001, Note_on_c, 10, 81, 127
1, 242130, Note_off_c, 10, 81, 127
1, 242133, Note_on_c, 7, 79, 127
1, 242262, Note_off_c, 7, 79, 127
1, 242265, Note_on_c, 0, 48, 127
1, 242265, Note_on_c, 10, 81, 127
1, 242286, Note_off_c, 0, 60, 127
1, 242395, Note_off_c, 10, 81, 127
1, 242398, Note_on_c, 7, 79, 127
1, 242527, Note_off_c, 7, 79, 127
1, 242530, Note_on_c, 5, 77, 127
1, 242674, Note_off_c, 5, 77, 127
1, 242674, Note_on_c, 7, 79, 127
1, 242815, Note_off_c, 0, 48, 127
1, 242818, Note_on_c, 5, 53, 127
1, 242818, Note_on_c, 5, 77, 127
1, 242821, Note_off_c, 7, 79, 127
1, 243385, Note_off_c, 5, 77, 127
1, 243385, Note_off_c, 5, 53, 127
1, 243398, Note_on_c, 0, 72, 127
1, 243398, Note_on_c, 5, 77, 127
1, 243398, Note_on_c, 10, 69, 127
1, 243398, Note_on_c, 5, 41, 127
1, 243398, Note_on_c, 0, 48, 127
1, 243398, Note_on_c, 5, 53, 127
1, 243919, Note_off_c, 5, 53, 127
1, 243919, Note_off_c, 0, 48, 127
1, 243919, Note_off_c, 5, 41, 127
1, 243919, Note_off_c, 10, 69, 127
1, 243919, Note_off_c, 5, 77, 127
1, 243919, Note_off_c, 0, 72, 127
1, 243922, Note_on_c, 10, 69, 127
1, 243922, Note_on_c, 0, 72, 127
1, 243922, Note_on_c, 5, 77, 127
1, 243922, Note_on_c, 5, 53, 127
1, 243922, Note_on_c, 5, 41, 127
1, 243922, Note_on_c, 0, 48, 127
1, 244443, Note_off_c, 0, 48, 127
1, 244443, Note_off_c, 5, 41, 127
1, 244443, Note_off_c, 5, 53, 127
1, 244443, Note_off_c, 5, 77, 127
1, 244443, Note_off_c, 0, 72, 127
1, 244443, Note_off_c, 10, 69, 127
1, 244446, Note_on_c, 5, 77, 127
1, 244446, Note_on_c, 10, 69, 127
1, 244446, Note_on_c, 0, 72, 127
1, 244446, Note_on_c, 0, 48, 127
1, 244446, Note_on_c, 5, 53, 127
1, 244446, Note_on_c, 5, 41, 127
1, 244967, Note_off_c, 5, 41, 127
1, 244967, Note_off_c, 5, 53, 127
1, 244967, Note_off_c, 0, 48, 127
1, 244967, Note_off_c, 0, 72, 127
1, 244967, Note_off_c, 10, 69, 127
1, 244967, Note_off_c, 5, 77, 127
1, 244970, Note_on_c, 10, 69, 127
1, 244970, Note_on_c, 0, 72, 127
1, 244970, Note_on_c, 5, 77, 127
1, 244970, Note_on_c, 0, 48, 127
1, 244970, Note_on_c, 5, 53, 127
1, 244970, Note_on_c, 5, 41, 127
1, 245491, Note_off_c, 5, 41, 127
1, 245491, Note_off_c, 5, 53, 127
1, 245491, Note_off_c, 0, 48, 127
1, 245491, Note_off_c, 5, 77, 127
1, 245491, Note_off_c, 0, 72, 127
1, 245491, Note_off_c, 10, 69, 127
1, 245494, Note_on_c, 5, 77, 127
1, 245494, Note_on_c, 10, 69, 127
1, 245494, Note_on_c, 0, 72, 127
1, 245494, Note_on_c, 5, 53, 127
1, 245494, Note_on_c, 5, 41, 127
1, 245494, Note_on_c, 0, 48, 127
1, 246015, Note_off_c, 0, 48, 127
1, 246015, Note_off_c, 5, 41, 127
1, 246015, Note_off_c, 5, 53, 127
1, 246015, Note_off_c, 0, 72, 127
1, 246015, Note_off_c, 10, 69, 127
1, 246015, Note_off_c, 5, 77, 127
1, 246018, Note_on_c, 7, 67, 127
1, 246018, Note_on_c, 0, 72, 127
1, 246018, Note_on_c, 5, 77, 127
1, 246018, Note_on_c, 7, 55, 127
1, 246018, Note_on_c, 0, 48, 127
1, 246539, Note_off_c, 0, 48, 127
1, 246539, Note_off_c, 7, 55, 127
1, 246539, Note_off_c, 5, 77, 127
1, 246539, Note_off_c, 0, 72, 127
1, 246539, Note_off_c, 7, 67, 127
1, 246542, Note_on_c, 5, 77, 127
1, 246542, Note_on_c, 7, 67, 127
1, 246542, Note_on_c, 0, 72, 127
1, 246542, Note_on_c, 7, 55, 127
1, 246542, Note_on_c, 0, 48, 127
1, 247063, Note_off_c, 0, 48, 127
1, 247063, Note_off_c, 7, 55, 127
1, 247063, Note_off_c, 0, 72, 127
1, 247063, Note_off_c, 7, 67, 127
1, 247063, Note_off_c, 5, 77, 127
1, 247066, Note_on_c, 7, 67, 127
1, 247066, Note_on_c, 0, 72, 127
1, 247066, Note_on_c, 5, 77, 127
1, 247066, Note_on_c, 7, 55, 127
1, 247066, Note_on_c, 0, 48, 127
1, 247587, Note_off_c, 0, 48, 127
1, 247587, Note_off_c, 7, 55, 127
1, 247587, Note_off_c, 5, 77, 127
1, 247587, Note_off_c, 0, 72, 127
1, 247587, Note_off_c, 7, 67, 127
1, 247590, Note_on_c, 7, 67, 127
1, 247590, Note_on_c, 0, 72, 127
1, 247590, Note_on_c, 5, 77, 127
1, 247590, Note_on_c, 7, 55, 127
1, 247590, Note_on_c, 0, 48, 127
1, 248111, Note_off_c, 0, 48, 127
1, 248111, Note_off_c, 7, 55, 127
1, 248111, Note_off_c, 5, 77, 127
1, 248111, Note_off_c, 0, 72, 127
1, 248111, Note_off_c, 7, 67, 127
1, 248114, Note_on_c, 0, 72, 127
1, 248114, Note_on_c, 5, 77, 127
1, 248114, Note_on_c, 7, 67, 127
1, 248114, Note_on_c, 7, 55, 127
1, 248114, Note_on_c, 0, 48, 127
1, 248635, Note_off_c, 0, 48, 127
1, 248635, Note_off_c, 7, 55, 127
1, 248635, Note_off_c, 7, 67, 127
1, 248635, Note_off_c, 5, 77, 127
1, 248635, Note_off_c, 0, 72, 127
1, 248638, Note_on_c, 0, 72, 127
1, 248638, Note_on_c, 5, 77, 127
1, 248638, Note_on_c, 7, 67, 127
1, 248638, Note_on_c, 7, 55, 127
1, 248638, Note_on_c, 0, 48, 127
1, 249159, Note_off_c, 0, 48, 127
1, 249159, Note_off_c, 7, 55, 127
1, 249159, Note_off_c, 7, 67, 127
1, 249159, Note_off_c, 5, 77, 127
1, 249159, Note_off_c, 0, 72, 127
1, 249162, Note_on_c, 4, 76, 127
1, 249162, Note_on_c, 0, 72, 127
1, 249162, Note_on_c, 7, 67, 127
1, 249162, Note_on_c, 11, 70, 127
1, 249162, Note_on_c, 0, 48, 127
1, 249162, Note_on_c, 0, 36, 127
1, 249683, Note_off_c, 0, 36, 127
1, 249683, Note_off_c, 0, 48, 127
1, 249683, Note_off_c, 11, 70, 127
1, 249683, Note_off_c, 7, 67, 127
1, 249683, Note_off_c, 0, 72, 127
1, 249683, Note_off_c, 4, 76, 127
1, 249686, Note_on_c, 0, 72, 127
1, 249686, Note_on_c, 4, 76, 127
1, 249686, Note_on_c, 7, 67, 127
1, 249686, Note_on_c, 11, 70, 127
1, 249686, Note_on_c, 0, 36, 127
1, 249686, Note_on_c, 0, 48, 127
1, 250207, Note_off_c, 0, 48, 127
1, 250207, Note_off_c, 0, 36, 127
1, 250207, Note_off_c, 11, 70, 127
1, 250207, Note_off_c, 7, 67, 127
1, 250207, Note_off_c, 4, 76, 127
1, 250207, Note_off_c, 0, 72, 127
1, 250210, Note_on_c, 0, 72, 127
1, 250210, Note_on_c, 4, 76, 127
1, 250210, Note_on_c, 7, 67, 127
1, 250210, Note_on_c, 11, 70, 127
1, 250210, Note_on_c, 0, 48, 127
1, 250210, Note_on_c, 0, 36, 127
1, 250731, Note_off_c, 0, 36, 127
1, 250731, Note_off_c, 0, 48, 127
1, 250731, Note_off_c, 11, 70, 127
1, 250731, Note_off_c, 7, 67, 127
1, 250731, Note_off_c, 4, 76, 127
1, 250731, Note_off_c, 0, 72, 127
1, 250734, Note_on_c, 0, 72, 127
1, 250734, Note_on_c, 4, 76, 127
1, 250734, Note_on_c, 7, 67, 127
1, 250734, Note_on_c, 11, 70, 127
1, 250734, Note_on_c, 0, 36, 127
1, 250734, Note_on_c, 0, 48, 127
1, 251255, Note_off_c, 0, 48, 127
1, 251255, Note_off_c, 0, 36, 127
1, 251255, Note_off_c, 11, 70, 127
1, 251255, Note_off_c, 7, 67, 127
1, 251255, Note_off_c, 4, 76, 127
1, 251255, Note_off_c, 0, 72, 127
1, 251258, Note_on_c, 0, 72, 127
1, 251258, Note_on_c, 4, 76, 127
1, 251258, Note_on_c, 7, 67, 127
1, 251258, Note_on_c, 11, 70, 127
1, 251258, Note_on_c, 0, 36, 127
1, 251258, Note_on_c, 0, 48, 127
1, 251779, Note_off_c, 0, 48, 127
1, 251779, Note_off_c, 0, 36, 127
1, 251779, Note_off_c, 11, 70, 127
1, 251779, Note_off_c, 7, 67, 127
1, 251779, Note_off_c, 4, 76, 127
1, 251779, Note_off_c, 0, 72, 127
1, 251782, Note_on_c, 4, 76, 127
1, 251782, Note_on_c, 7, 67, 127
1, 251782, Note_on_c, 11, 70, 127
1, 251782, Note_on_c, 0, 72, 127
1, 251782, Note_on_c, 0, 48, 127
1, 251782, Note_on_c, 0, 36, 127
1, 252303, Note_off_c, 0, 36, 127
1, 252303, Note_off_c, 0, 48, 127
1, 252303, Note_off_c, 0, 72, 127
1, 252303, Note_off_c, 11, 70, 127
1, 252303, Note_off_c, 7, 67, 127
1, 252303, Note_off_c, 4, 76, 127
1, 252322, Note_on_c, 5, 41, 127
1, 252322, Note_on_c, 5, 53, 127
1, 252322, Note_on_c, 0, 48, 127
1, 252322, Note_on_c, 10, 69, 127
1, 252322, Note_on_c, 5, 77, 127
1, 252322, Note_on_c, 0, 72, 127
1, 252322, Note_on_c, 5, 65, 127
1, 253010, Note_off_c, 5, 65, 127
1, 253010, Note_off_c, 0, 72, 127
1, 253010, Note_off_c, 5, 77, 127
1, 253010, Note_off_c, 10, 69, 127
1, 253084, Note_on_c, 10, 81, 127
1, 253230, Note_off_c, 10, 81, 127
1, 253233, Note_on_c, 7, 79, 127
1, 253309, Note_off_c, 0, 48, 127
1, 253309, Note_off_c, 5, 41, 127
1, 253366, Note_off_c, 5, 53, 127
1, 253380, Note_off_c, 7, 79, 127
1, 253383, Note_on_c, 5, 53, 127
1, 253383, Note_on_c, 10, 81, 127
1, 253504, Note_off_c, 10, 81, 127
1, 253507, Note_on_c, 7, 79, 127
1, 253628, Note_off_c, 7, 79, 127
1, 253631, Note_on_c, 10, 81, 127
1, 253876, Note_off_c, 5, 53, 127
1, 253879, Note_on_c, 10, 57, 127
1, 254124, Note_off_c, 10, 81, 127
1, 254127, Note_on_c, 10, 69, 127
1, 254372, Note_off_c, 10, 69, 127
1, 254372, Note_off_c, 10, 57, 127
1, 254375, Note_on_c, 2, 62, 127
1, 254375, Note_on_c, 12, 71, 127
1, 254867, Note_off_c, 2, 62, 127
1, 254870, Note_on_c, 5, 53, 127
1, 255015, Note_off_c, 12, 71, 127
1, 255067, Note_on_c, 0, 72, 127
1, 255213, Note_off_c, 0, 72, 127
1, 255216, Note_on_c, 2, 74, 127
1, 255362, Note_off_c, 2, 74, 127
1, 255362, Note_off_c, 5, 53, 127
1, 255365, Note_on_c, 7, 55, 127
1, 255365, Note_on_c, 0, 72, 127
1, 255651, Note_off_c, 0, 72, 127
1, 255654, Note_on_c, 12, 71, 127
1, 255754, Note_off_c, 12, 71, 127
1, 255757, Note_on_c, 0, 72, 127
1, 255857, Note_off_c, 0, 72, 127
1, 255857, Note_off_c, 7, 55, 127
1, 255860, Note_on_c, 12, 59, 127
1, 255860, Note_on_c, 12, 71, 127
1, 256352, Note_off_c, 12, 59, 127
1, 256355, Note_on_c, 2, 62, 127
1, 256737, Note_off_c, 12, 71, 127
1, 256848, Note_off_c, 2, 62, 127
1, 256851, Note_on_c, 12, 59, 127
1, 257099, Note_on_c, 12, 71, 127
1, 257344, Note_off_c, 12, 71, 127
1, 257344, Note_off_c, 12, 59, 127
1, 257347, Note_on_c, 7, 55, 127
1, 257347, Note_on_c, 0, 72, 127
1, 257839, Note_off_c, 7, 55, 127
1, 257842, Note_on_c, 2, 62, 127
1, 258036, Note_off_c, 0, 72, 127
1, 258039, Note_on_c, 4, 76, 127
1, 258185, Note_off_c, 4, 76, 127
1, 258188, Note_on_c, 2, 74, 127
1, 258334, Note_off_c, 2, 74, 127
1, 258334, Note_off_c, 2, 62, 127
1, 258337, Note_on_c, 7, 55, 127
1, 258337, Note_on_c, 4, 76, 127
1, 258829, Note_off_c, 7, 55, 127
1, 258832, Note_on_c, 12, 59, 127
1, 259026, Note_off_c, 4, 76, 127
1, 259029, Note_on_c, 7, 79, 127
1, 259175, Note_off_c, 7, 79, 127
1, 259178, Note_on_c, 5, 77, 127
1, 259324, Note_off_c, 5, 77, 127
1, 259324, Note_off_c, 12, 59, 127
1, 259327, Note_on_c, 4, 64, 127
1, 259327, Note_on_c, 7, 79, 127
1, 259819, Note_off_c, 4, 64, 127
1, 259822, Note_on_c, 12, 59, 127
1, 260067, Note_off_c, 7, 79, 127
1, 260070, Note_on_c, 12, 71, 127
1, 260191, Note_off_c, 12, 71, 127
1, 260194, Note_on_c, 1, 73, 127
1, 260315, Note_off_c, 1, 73, 127
1, 260315, Note_off_c, 12, 59, 127
1, 260318, Note_on_c, 7, 55, 127
1, 260318, Note_on_c, 2, 74, 127
1, 260563, Note_off_c, 2, 74, 127
1, 260566, Note_on_c, 4, 76, 127
1, 260687, Note_off_c, 4, 76, 127
1, 260690, Note_on_c, 5, 77, 127
1, 260811, Note_off_c, 5, 77, 127
1, 260811, Note_off_c, 7, 55, 127
1, 260814, Note_on_c, 4, 64, 127
1, 260814, Note_on_c, 4, 76, 127
1, 261059, Note_off_c, 4, 76, 127
1, 261062, Note_on_c, 5, 77, 127
1, 261183, Note_off_c, 5, 77, 127
1, 261186, Note_on_c, 2, 74, 127
1, 261307, Note_off_c, 2, 74, 127
1, 261307, Note_off_c, 4, 64, 127
1, 261310, Note_on_c, 10, 57, 127
1, 261310, Note_on_c, 2, 74, 127
1, 261604, Note_off_c, 2, 74, 127
1, 261609, Note_on_c, 1, 73, 127
1, 261704, Note_off_c, 1, 73, 127
1, 261707, Note_on_c, 2, 74, 127
1, 261802, Note_off_c, 2, 74, 127
1, 261802, Note_off_c, 10, 57, 127
1, 261805, Note_on_c, 1, 61, 127
1, 261805, Note_on_c, 1, 73, 127
1, 262297, Note_off_c, 1, 61, 127
1, 262300, Note_on_c, 4, 64, 127
1, 262669, Note_off_c, 1, 73, 127
1, 262672, Note_on_c, 10, 69, 127
1, 262793, Note_off_c, 10, 69, 127
1, 262793, Note_off_c, 4, 64, 127
1, 262796, Note_on_c, 1, 61, 127
1, 262796, Note_on_c, 12, 71, 127
1, 262917, Note_off_c, 12, 71, 127
1, 262920, Note_on_c, 1, 73, 127
1, 263041, Note_off_c, 1, 73, 127
1, 263044, Note_on_c, 12, 71, 127
1, 263165, Note_off_c, 12, 71, 127
1, 263168, Note_on_c, 1, 73, 127
1, 263289, Note_off_c, 1, 73, 127
1, 263289, Note_off_c, 1, 61, 127
1, 263292, Note_on_c, 10, 57, 127
1, 263292, Note_on_c, 2, 74, 127
1, 263459, Note_off_c, 2, 74, 127
1, 263462, Note_on_c, 4, 76, 127
1, 263568, Note_off_c, 4, 76, 127
1, 263571, Note_on_c, 2, 74, 127
1, 263677, Note_off_c, 2, 74, 127
1, 263680, Note_on_c, 1, 73, 127
1, 263786, Note_off_c, 1, 73, 127
1, 263786, Note_off_c, 10, 57, 127
1, 263789, Note_on_c, 4, 64, 127
1, 263789, Note_on_c, 2, 74, 127
1, 263910, Note_off_c, 2, 74, 127
1, 263913, Note_on_c, 4, 76, 127
1, 264034, Note_off_c, 4, 76, 127
1, 264037, Note_on_c, 2, 74, 127
1, 264158, Note_off_c, 2, 74, 127
1, 264161, Note_on_c, 4, 76, 127
1, 264282, Note_off_c, 4, 76, 127
1, 264282, Note_off_c, 4, 64, 127
1, 264285, Note_on_c, 10, 57, 127
1, 264285, Note_on_c, 5, 77, 127
1, 264452, Note_off_c, 5, 77, 127
1, 264455, Note_on_c, 7, 79, 127
1, 264561, Note_off_c, 7, 79, 127
1, 264564, Note_on_c, 5, 77, 127
1, 264670, Note_off_c, 5, 77, 127
1, 264673, Note_on_c, 4, 76, 127
1, 264779, Note_off_c, 4, 76, 127
1, 264779, Note_off_c, 10, 57, 127
1, 264782, Note_on_c, 1, 61, 127
1, 264782, Note_on_c, 5, 77, 127
1, 264903, Note_off_c, 5, 77, 127
1, 264906, Note_on_c, 7, 79, 127
1, 265027, Note_off_c, 7, 79, 127
1, 265030, Note_on_c, 5, 77, 127
1, 265151, Note_off_c, 5, 77, 127
1, 265154, Note_on_c, 7, 79, 127
1, 265275, Note_off_c, 7, 79, 127
1, 265275, Note_off_c, 1, 61, 127
1, 265278, Note_on_c, 5, 65, 127
1, 265278, Note_on_c, 10, 81, 127
1, 265647, Note_off_c, 10, 81, 127
1, 265650, Note_on_c, 7, 79, 127
1, 265771, Note_off_c, 7, 79, 127
1, 265771, Note_off_c, 5, 65, 127
1, 265774, Note_on_c, 1, 61, 127
1, 265774, Note_on_c, 5, 77, 127
1, 265926, Note_off_c, 5, 77, 127
1, 265929, Note_on_c, 4, 76, 127
1, 266112, Note_off_c, 4, 76, 127
1, 266115, Note_on_c, 7, 79, 127
1, 266267, Note_off_c, 7, 79, 127
1, 266267, Note_off_c, 1, 61, 127
1, 266270, Note_on_c, 10, 57, 127
1, 266270, Note_on_c, 5, 77, 127
1, 266515, Note_off_c, 5, 77, 127
1, 266518, Note_on_c, 4, 76, 127
1, 266763, Note_off_c, 4, 76, 127
1, 266763, Note_off_c, 10, 57, 127
1, 266766, Note_on_c, 5, 65, 127
1, 266766, Note_on_c, 2, 74, 127
1, 267011, Note_off_c, 2, 74, 127
1, 267014, Note_on_c, 4, 76, 127
1, 267135, Note_off_c, 4, 76, 127
1, 267138, Note_on_c, 1, 73, 127
1, 267259, Note_off_c, 1, 73, 127
1, 267259, Note_off_c, 5, 65, 127
1, 267262, Note_on_c, 11, 58, 127
1, 267262, Note_on_c, 1, 73, 127
1, 267589, Note_off_c, 1, 73, 127
1, 267592, Note_on_c, 2, 74, 127
1, 267672, Note_off_c, 2, 74, 127
1, 267675, Note_on_c, 1, 73, 127
1, 267755, Note_off_c, 1, 73, 127
1, 267755, Note_off_c, 11, 58, 127
1, 267758, Note_on_c, 2, 62, 127
1, 267758, Note_on_c, 2, 74, 127
1, 268250, Note_off_c, 2, 62, 127
1, 268253, Note_on_c, 5, 65, 127
1, 268377, Note_off_c, 2, 74, 127
1, 268501, Note_on_c, 2, 74, 127
1, 268746, Note_off_c, 2, 74, 127
1, 268746, Note_off_c, 5, 65, 127
1, 268749, Note_on_c, 2, 62, 127
1, 268749, Note_on_c, 1, 73, 127
1, 268994, Note_off_c, 1, 73, 127
1, 268997, Note_on_c, 2, 74, 127
1, 269242, Note_off_c, 2, 74, 127
1, 269242, Note_off_c, 2, 62, 127
1, 269245, Note_on_c, 11, 58, 127
1, 269245, Note_on_c, 5, 77, 127
1, 269503, Note_on_c, 2, 74, 127
1, 269518, Note_off_c, 5, 77, 127
1, 269737, Note_off_c, 2, 74, 127
1, 269737, Note_off_c, 11, 58, 127
1, 269740, Note_on_c, 5, 65, 127
1, 269740, Note_on_c, 1, 73, 127
1, 269985, Note_off_c, 1, 73, 127
1, 269988, Note_on_c, 2, 74, 127
1, 270233, Note_off_c, 2, 74, 127
1, 270233, Note_off_c, 5, 65, 127
1, 270236, Note_on_c, 11, 58, 127
1, 270236, Note_on_c, 7, 79, 127
1, 270494, Note_on_c, 2, 74, 127
1, 270509, Note_off_c, 7, 79, 127
1, 270728, Note_off_c, 2, 74, 127
1, 270728, Note_off_c, 11, 58, 127
1, 270731, Note_on_c, 2, 62, 127
1, 270731, Note_on_c, 1, 73, 127
1, 270976, Note_off_c, 1, 73, 127
1, 270979, Note_on_c, 2, 74, 127
1, 271224, Note_off_c, 2, 74, 127
1, 271224, Note_off_c, 2, 62, 127
1, 271227, Note_on_c, 7, 67, 127
1, 271227, Note_on_c, 4, 76, 127
1, 271475, Note_on_c, 2, 74, 127
1, 271501, Note_off_c, 4, 76, 127
1, 271720, Note_off_c, 2, 74, 127
1, 271720, Note_off_c, 7, 67, 127
1, 271723, Note_on_c, 2, 62, 127
1, 271723, Note_on_c, 7, 79, 127
1, 271971, Note_on_c, 2, 74, 127
1, 271997, Note_off_c, 7, 79, 127
1, 272216, Note_off_c, 2, 74, 127
1, 272216, Note_off_c, 2, 62, 127
1, 272219, Note_on_c, 11, 58, 127
1, 272219, Note_on_c, 11, 82, 127
1, 272477, Note_on_c, 7, 79, 127
1, 272492, Note_off_c, 11, 82, 127
1, 272711, Note_off_c, 7, 79, 127
1, 272711, Note_off_c, 11, 58, 127
1, 272714, Note_on_c, 7, 67, 127
1, 272714, Note_on_c, 4, 76, 127
1, 272959, Note_off_c, 4, 76, 127
1, 272962, Note_on_c, 2, 74, 127
1, 273207, Note_off_c, 2, 74, 127
1, 273207, Note_off_c, 7, 67, 127
1, 273210, Note_on_c, 10, 57, 127
1, 273210, Note_on_c, 1, 73, 127
1, 273468, Note_on_c, 10, 69, 127
1, 273483, Note_off_c, 1, 73, 127
1, 273702, Note_off_c, 10, 69, 127
1, 273702, Note_off_c, 10, 57, 127
1, 273705, Note_on_c, 1, 61, 127
1, 273705, Note_on_c, 8, 68, 127
1, 273950, Note_off_c, 8, 68, 127
1, 273953, Note_on_c, 10, 69, 127
1, 274198, Note_off_c, 10, 69, 127
1, 274198, Note_off_c, 1, 61, 127
1, 274201, Note_on_c, 4, 64, 127
1, 274201, Note_on_c, 1, 73, 127
1, 274449, Note_on_c, 10, 69, 127
1, 274475, Note_off_c, 1, 73, 127
1, 274694, Note_off_c, 10, 69, 127
1, 274694, Note_off_c, 4, 64, 127
1, 274697, Note_on_c, 7, 55, 127
1, 274697, Note_on_c, 4, 76, 127
1, 274945, Note_on_c, 10, 69, 127
1, 274971, Note_off_c, 4, 76, 127
1, 275190, Note_off_c, 10, 69, 127
1, 275190, Note_off_c, 7, 55, 127
1, 275193, Note_on_c, 5, 53, 127
1, 275193, Note_on_c, 10, 81, 127
1, 275451, Note_on_c, 5, 77, 127
1, 275466, Note_off_c, 10, 81, 127
1, 275685, Note_off_c, 5, 77, 127
1, 275685, Note_off_c, 5, 53, 127
1, 275688, Note_on_c, 2, 62, 127
1, 275688, Note_on_c, 2, 74, 127
1, 275933, Note_off_c, 2, 74, 127
1, 275936, Note_on_c, 0, 72, 127
1, 276181, Note_off_c, 0, 72, 127
1, 276181, Note_off_c, 2, 62, 127
1, 276184, Note_on_c, 4, 52, 127
1, 276184, Note_on_c, 11, 70, 127
1, 276442, Note_on_c, 7, 67, 127
1, 276457, Note_off_c, 11, 70, 127
1, 276676, Note_off_c, 7, 67, 127
1, 276676, Note_off_c, 4, 52, 127
1, 276679, Note_on_c, 11, 58, 127
1, 276679, Note_on_c, 6, 66, 127
1, 276924, Note_off_c, 6, 66, 127
1, 276927, Note_on_c, 7, 67, 127
1, 277172, Note_off_c, 7, 67, 127
1, 277172, Note_off_c, 11, 58, 127
1, 277175, Note_on_c, 2, 62, 127
1, 277175, Note_on_c, 11, 70, 127
1, 277423, Note_on_c, 7, 67, 127
1, 277449, Note_off_c, 11, 70, 127
1, 277668, Note_off_c, 7, 67, 127
1, 277668, Note_off_c, 2, 62, 127
1, 277671, Note_on_c, 11, 58, 127
1, 277671, Note_on_c, 2, 74, 127
1, 277919, Note_on_c, 7, 67, 127
1, 277945, Note_off_c, 2, 74, 127
1, 278164, Note_off_c, 7, 67, 127
1, 278164, Note_off_c, 11, 58, 127
1, 278167, Note_on_c, 7, 55, 127
1, 278167, Note_on_c, 7, 79, 127
1, 278425, Note_on_c, 4, 76, 127
1, 278440, Note_off_c, 7, 79, 127
1, 278659, Note_off_c, 4, 76, 127
1, 278659, Note_off_c, 7, 55, 127
1, 278662, Note_on_c, 4, 52, 127
1, 278662, Note_on_c, 1, 73, 127
1, 278907, Note_off_c, 1, 73, 127
1, 278910, Note_on_c, 2, 74, 127
1, 279155, Note_off_c, 2, 74, 127
1, 279155, Note_off_c, 4, 52, 127
1, 279158, Note_on_c, 10, 57, 127
1, 279158, Note_on_c, 2, 74, 127
1, 279428, Note_off_c, 2, 74, 127
1, 279431, Note_on_c, 1, 73, 127
1, 279540, Note_off_c, 1, 73, 127
1, 279543, Note_on_c, 2, 74, 127
1, 279652, Note_off_c, 2, 74, 127
1, 279652, Note_off_c, 10, 57, 127
1, 279655, Note_on_c, 1, 61, 127
1, 279655, Note_on_c, 1, 73, 127
1, 280147, Note_off_c, 1, 61, 127
1, 280150, Note_on_c, 4, 64, 127
1, 280220, Note_off_c, 1, 73, 127
1, 280274, Note_on_c, 10, 69, 127
1, 280395, Note_off_c, 10, 69, 127
1, 280398, Note_on_c, 12, 71, 127
1, 280519, Note_off_c, 12, 71, 127
1, 280522, Note_on_c, 1, 73, 127
1, 280643, Note_off_c, 1, 73, 127
1, 280643, Note_off_c, 4, 64, 127
1, 280646, Note_on_c, 7, 55, 127
1, 280646, Note_on_c, 2, 74, 127
1, 280767, Note_off_c, 2, 74, 127
1, 280770, Note_on_c, 4, 76, 127
1, 280891, Note_off_c, 4, 76, 127
1, 280894, Note_on_c, 5, 77, 127
1, 281015, Note_off_c, 5, 77, 127
1, 281018, Note_on_c, 7, 79, 127
1, 281139, Note_off_c, 7, 79, 127
1, 281139, Note_off_c, 7, 55, 127
1, 281142, Note_on_c, 5, 53, 127
1, 281142, Note_on_c, 10, 81, 127
1, 281387, Note_off_c, 10, 81, 127
1, 281390, Note_on_c, 5, 77, 127
1, 281635, Note_off_c, 5, 77, 127
1, 281635, Note_off_c, 5, 53, 127
1, 281638, Note_on_c, 2, 62, 127
1, 281638, Note_on_c, 4, 76, 127
1, 281883, Note_off_c, 4, 76, 127
1, 281886, Note_on_c, 2, 74, 127
1, 282131, Note_off_c, 2, 74, 127
1, 282131, Note_off_c, 2, 62, 127
1, 282134, Note_on_c, 7, 55, 127
1, 282134, Note_on_c, 11, 82, 127
1, 282477, Note_off_c, 11, 82, 127
1, 282480, Note_on_c, 5, 77, 127
1, 282650, Note_off_c, 5, 77, 127
1, 282650, Note_off_c, 7, 55, 127
1, 282653, Note_on_c, 11, 58, 127
1, 282653, Note_on_c, 4, 76, 127
1, 282823, Note_off_c, 4, 76, 127
1, 282826, Note_on_c, 5, 77, 127
1, 282996, Note_off_c, 5, 77, 127
1, 282999, Note_on_c, 2, 74, 127
1, 283169, Note_off_c, 2, 74, 127
1, 283169, Note_off_c, 11, 58, 127
1, 283172, Note_on_c, 10, 57, 127
1, 283172, Note_on_c, 2, 74, 127
1, 283688, Note_off_c, 10, 57, 127
1, 283691, Note_on_c, 7, 55, 127
1, 283818, Note_off_c, 2, 74, 127
1, 283821, Note_on_c, 1, 73, 127
1, 283952, Note_off_c, 1, 73, 127
1, 283955, Note_on_c, 12, 71, 127
1, 284086, Note_off_c, 12, 71, 127
1, 284089, Note_on_c, 1, 73, 127
1, 284220, Note_off_c, 1, 73, 127
1, 284220, Note_off_c, 7, 55, 127
1, 284223, Note_on_c, 10, 57, 127
1, 284223, Note_on_c, 2, 74, 127
1, 284403, Note_off_c, 2, 74, 127
1, 284406, Note_on_c, 1, 73, 127
1, 284495, Note_off_c, 1, 73, 127
1, 284498, Note_on_c, 2, 74, 127
1, 284587, Note_off_c, 2, 74, 127
1, 284590, Note_on_c, 1, 73, 127
1, 284679, Note_off_c, 1, 73, 127
1, 284682, Note_on_c, 2, 74, 127
1, 284771, Note_off_c, 2, 74, 127
1, 284771, Note_off_c, 10, 57, 127
1, 284775, Note_on_c, 10, 45, 127
1, 284775, Note_on_c, 1, 73, 127
1, 285053, Note_on_c, 2, 74, 127
1, 285064, Note_off_c, 1, 73, 127
1, 285320, Note_off_c, 10, 45, 127
1, 285323, Note_off_c, 2, 74, 127
1, 285338, Note_on_c, 2, 74, 127
1, 285338, Note_on_c, 2, 50, 127
1, 285903, Note_off_c, 2, 50, 127
1, 285903, Note_off_c, 2, 74, 127
1, 285926, Note_on_c, 2, 62, 127
1, 285926, Note_on_c, 5, 65, 127
1, 285926, Note_on_c, 10, 69, 127
1, 285926, Note_on_c, 2, 74, 127
1, 285926, Note_on_c, 2, 50, 127
1, 285926, Note_on_c, 10, 57, 127
1, 286447, Note_off_c, 10, 57, 127
1, 286447, Note_off_c, 2, 50, 127
1, 286447, Note_off_c, 2, 74, 127
1, 286447, Note_off_c, 10, 69, 127
1, 286447, Note_off_c, 5, 65, 127
1, 286447, Note_off_c, 2, 62, 127
1, 286450, Note_on_c, 2, 62, 127
1, 286450, Note_on_c, 2, 74, 127
1, 286450, Note_on_c, 5, 65, 127
1, 286450, Note_on_c, 10, 69, 127
1, 286450, Note_on_c, 10, 57, 127
1, 286450, Note_on_c, 2, 50, 127
1, 286971, Note_off_c, 2, 50, 127
1, 286971, Note_off_c, 10, 57, 127
1, 286971, Note_off_c, 10, 69, 127
1, 286971, Note_off_c, 5, 65, 127
1, 286971, Note_off_c, 2, 74, 127
1, 286971, Note_off_c, 2, 62, 127
1, 286974, Note_on_c, 2, 62, 127
1, 286974, Note_on_c, 2, 74, 127
1, 286974, Note_on_c, 10, 69, 127
1, 286974, Note_on_c, 5, 65, 127
1, 286974, Note_on_c, 10, 57, 127
1, 286974, Note_on_c, 2, 50, 127
1, 287495, Note_off_c, 2, 50, 127
1, 287495, Note_off_c, 10, 57, 127
1, 287495, Note_off_c, 5, 65, 127
1, 287495, Note_off_c, 10, 69, 127
1, 287495, Note_off_c, 2, 74, 127
1, 287495, Note_off_c, 2, 62, 127
1, 287498, Note_on_c, 10, 69, 127
1, 287498, Note_on_c, 2, 74, 127
1, 287498, Note_on_c, 2, 62, 127
1, 287498, Note_on_c, 5, 65, 127
1, 287498, Note_on_c, 10, 57, 127
1, 287498, Note_on_c, 2, 50, 127
1, 288019, Note_off_c, 2, 50, 127
1, 288019, Note_off_c, 10, 57, 127
1, 288019, Note_off_c, 5, 65, 127
1, 288019, Note_off_c, 2, 62, 127
1, 288019, Note_off_c, 2, 74, 127
1, 288019, Note_off_c, 10, 69, 127
1, 288022, Note_on_c, 10, 69, 127
1, 288022, Note_on_c, 2, 74, 127
1, 288022, Note_on_c, 2, 62, 127
1, 288022, Note_on_c, 5, 65, 127
1, 288022, Note_on_c, 2, 50, 127
1, 288022, Note_on_c, 10, 57, 127
1, 288543, Note_off_c, 10, 57, 127
1, 288543, Note_off_c, 2, 50, 127
1, 288543, Note_off_c, 5, 65, 127
1, 288543, Note_off_c, 2, 62, 127
1, 288543, Note_off_c, 2, 74, 127
1, 288543, Note_off_c, 10, 69, 127
1, 288546, Note_on_c, 2, 74, 127
1, 288546, Note_on_c, 4, 64, 127
1, 288546, Note_on_c, 10, 69, 127
1, 288546, Note_on_c, 10, 57, 127
1, 289067, Note_off_c, 10, 57, 127
1, 289067, Note_off_c, 10, 69, 127
1, 289067, Note_off_c, 4, 64, 127
1, 289067, Note_off_c, 2, 74, 127
1, 289070, Note_on_c, 2, 74, 127
1, 289070, Note_on_c, 4, 64, 127
1, 289070, Note_on_c, 10, 69, 127
1, 289070, Note_on_c, 10, 57, 127
1, 289591, Note_off_c, 10, 57, 127
1, 289591, Note_off_c, 10, 69, 127
1, 289591, Note_off_c, 4, 64, 127
1, 289591, Note_off_c, 2, 74, 127
1, 289594, Note_on_c, 4, 64, 127
1, 289594, Note_on_c, 10, 69, 127
1, 289594, Note_on_c, 2, 74, 127
1, 289594, Note_on_c, 10, 57, 127
1, 290115, Note_off_c, 10, 57, 127
1, 290115, Note_off_c, 2, 74, 127
1, 290115, Note_off_c, 10, 69, 127
1, 290115, Note_off_c, 4, 64, 127
1, 290118, Note_on_c, 2, 74, 127
1, 290118, Note_on_c, 4, 64, 127
1, 290118, Note_on_c, 10, 69, 127
1, 290118, Note_on_c, 10, 57, 127
1, 290639, Note_off_c, 10, 57, 127
1, 290639, Note_off_c, 10, 69, 127
1, 290639, Note_off_c, 4, 64, 127
1, 290639, Note_off_c, 2, 74, 127
1, 290642, Note_on_c, 2, 74, 127
1, 290642, Note_on_c, 4, 64, 127
1, 290642, Note_on_c, 10, 69, 127
1, 290642, Note_on_c, 10, 57, 127
1, 291163, Note_off_c, 10, 57, 127
1, 291163, Note_off_c, 10, 69, 127
1, 291163, Note_off_c, 4, 64, 127
1, 291163, Note_off_c, 2, 74, 127
1, 291166, Note_on_c, 2, 74, 127
1, 291166, Note_on_c, 4, 64, 127
1, 291166, Note_on_c, 10, 69, 127
1, 291166, Note_on_c, 10, 57, 127
1, 291687, Note_off_c, 10, 57, 127
1, 291687, Note_off_c, 10, 69, 127
1, 291687, Note_off_c, 4, 64, 127
1, 291687, Note_off_c, 2, 74, 127
1, 291690, Note_on_c, 4, 64, 127
1, 291690, Note_on_c, 7, 67, 127
1, 291690, Note_on_c, 10, 69, 127
1, 291690, Note_on_c, 1, 73, 127
1, 291690, Note_on_c, 10, 45, 127
1, 291690, Note_on_c, 10, 57, 127
1, 292211, Note_off_c, 10, 57, 127
1, 292211, Note_off_c, 10, 45, 127
1, 292211, Note_off_c, 1, 73, 127
1, 292211, Note_off_c, 10, 69, 127
1, 292211, Note_off_c, 7, 67, 127
1, 292211, Note_off_c, 4, 64, 127
1, 292214, Note_on_c, 10, 69, 127
1, 292214, Note_on_c, 7, 67, 127
1, 292214, Note_on_c, 1, 73, 127
1, 292214, Note_on_c, 4, 64, 127
1, 292214, Note_on_c, 10, 45, 127
1, 292214, Note_on_c, 10, 57, 127
1, 292735, Note_off_c, 10, 57, 127
1, 292735, Note_off_c, 10, 45, 127
1, 292735, Note_off_c, 4, 64, 127
1, 292735, Note_off_c, 1, 73, 127
1, 292735, Note_off_c, 7, 67, 127
1, 292735, Note_off_c, 10, 69, 127
1, 292738, Note_on_c, 1, 73, 127
1, 292738, Note_on_c, 4, 64, 127
1, 292738, Note_on_c, 7, 67, 127
1, 292738, Note_on_c, 10, 69, 127
1, 292738, Note_on_c, 10, 57, 127
1, 292738, Note_on_c, 10, 45, 127
1, 293259, Note_off_c, 10, 45, 127
1, 293259, Note_off_c, 10, 57, 127
1, 293259, Note_off_c, 10, 69, 127
1, 293259, Note_off_c, 7, 67, 127
1, 293259, Note_off_c, 4, 64, 127
1, 293259, Note_off_c, 1, 73, 127
1, 293262, Note_on_c, 7, 67, 127
1, 293262, Note_on_c, 10, 69, 127
1, 293262, Note_on_c, 4, 64, 127
1, 293262, Note_on_c, 1, 73, 127
1, 293262, Note_on_c, 10, 45, 127
1, 293262, Note_on_c, 10, 57, 127
1, 293783, Note_off_c, 10, 57, 127
1, 293783, Note_off_c, 10, 45, 127
1, 293783, Note_off_c, 1, 73, 127
1, 293783, Note_off_c, 4, 64, 127
1, 293783, Note_off_c, 10, 69, 127
1, 293783, Note_off_c, 7, 67, 127
1, 293786, Note_on_c, 7, 67, 127
1, 293786, Note_on_c, 10, 69, 127
1, 293786, Note_on_c, 4, 64, 127
1, 293786, Note_on_c, 1, 73, 127
1, 293786, Note_on_c, 10, 57, 127
1, 293786, Note_on_c, 10, 45, 127
1, 294338, Note_off_c, 10, 45, 127
1, 294338, Note_off_c, 10, 57, 127
1, 294338, Note_off_c, 1, 73, 127
1, 294338, Note_off_c, 4, 64, 127
1, 294338, Note_off_c, 10, 69, 127
1, 294338, Note_off_c, 7, 67, 127
1, 294351, Note_on_c, 10, 57, 127
1, 294351, Note_on_c, 10, 45, 127
1, 294351, Note_on_c, 1, 73, 127
1, 294351, Note_on_c, 7, 67, 127
1, 294351, Note_on_c, 4, 64, 127
1, 294351, Note_on_c, 10, 69, 127
1, 294924, Note_off_c, 10, 69, 127
1, 294924, Note_off_c, 4, 64, 127
1, 294924, Note_off_c, 7, 67, 127
1, 294924, Note_off_c, 1, 73, 127
1, 294924, Note_off_c, 10, 45, 127
1, 294924, Note_off_c, 10, 57, 127
1, 294959, Note_on_c, 2, 50, 127
1, 294959, Note_on_c, 10, 57, 127
1, 294959, Note_on_c, 5, 65, 127
1, 294959, Note_on_c, 2, 62, 127
1, 294959, Note_on_c, 2, 74, 127
1, 294959, Note_on_c, 10, 69, 127
1, 298409, Note_off_c, 10, 69, 127
1, 298409, Note_off_c, 2, 74, 127
1, 298409, Note_off_c, 2, 62, 127
1, 298409, Note_off_c, 5, 65, 127
1, 298409, Note_off_c, 10, 57, 127
1, 298409, Note_off_c, 2, 50, 127
1, 300847, Note_on_c, 7, 43, 127
1, 300847, Note_on_c, 7, 55, 127
1, 300847, Note_on_c, 7, 79, 127
1, 300978, Note_off_c, 7, 79, 127
1, 300979, Note_on_c, 11, 82, 127
1, 301110, Note_off_c, 11, 82, 127
1, 301111, Note_on_c, 7, 79, 127
1, 301242, Note_off_c, 7, 79, 127
1, 301242, Note_off_c, 7, 55, 127
1, 301242, Note_off_c, 7, 43, 127
1, 301243, Note_on_c, 2, 50, 127
1, 301243, Note_on_c, 10, 57, 127
1, 301243, Note_on_c, 6, 78, 127
1, 301374, Note_off_c, 6, 78, 127
1, 301375, Note_on_c, 10, 81, 127
1, 301506, Note_off_c, 10, 81, 127
1, 301507, Note_on_c, 6, 78, 127
1, 301638, Note_off_c, 6, 78, 127
1, 301638, Note_off_c, 10, 57, 127
1, 301638, Note_off_c, 2, 50, 127
1, 301639, Note_on_c, 11, 58, 127
1, 301639, Note_on_c, 7, 55, 127
1, 301639, Note_on_c, 7, 79, 127
1, 301770, Note_off_c, 7, 79, 127
1, 301771, Note_on_c, 11, 82, 127
1, 301902, Note_off_c, 11, 82, 127
1, 301903, Note_on_c, 7, 79, 127
1, 302034, Note_off_c, 7, 79, 127
1, 302034, Note_off_c, 7, 55, 127
1, 302034, Note_off_c, 11, 58, 127
1, 302035, Note_on_c, 2, 50, 127
1, 302035, Note_on_c, 10, 57, 127
1, 302035, Note_on_c, 6, 78, 127
1, 302166, Note_off_c, 6, 78, 127
1, 302167, Note_on_c, 10, 81, 127
1, 302298, Note_off_c, 10, 81, 127
1, 302299, Note_on_c, 6, 78, 127
1, 302430, Note_off_c, 6, 78, 127
1, 302430, Note_off_c, 10, 57, 127
1, 302430, Note_off_c, 2, 50, 127
1, 302431, Note_on_c, 7, 43, 127
1, 302431, Note_on_c, 7, 55, 127
1, 302431, Note_on_c, 7, 79, 127
1, 302562, Note_off_c, 7, 79, 127
1, 302563, Note_on_c, 11, 82, 127
1, 302694, Note_off_c, 11, 82, 127
1, 302695, Note_on_c, 7, 79, 127
1, 302826, Note_off_c, 7, 79, 127
1, 302826, Note_off_c, 7, 55, 127
1, 302826, Note_off_c, 7, 43, 127
1, 302827, Note_on_c, 2, 50, 127
1, 302827, Note_on_c, 10, 57, 127
1, 302827, Note_on_c, 6, 78, 127
1, 302958, Note_off_c, 6, 78, 127
1, 302959, Note_on_c, 10, 81, 127
1, 303090, Note_off_c, 10, 81, 127
1, 303091, Note_on_c, 6, 78, 127
1, 303222, Note_off_c, 6, 78, 127
1, 303222, Note_off_c, 10, 57, 127
1, 303222, Note_off_c, 2, 50, 127
1, 303223, Note_on_c, 2, 50, 127
1, 303223, Note_on_c, 11, 46, 127
1, 303223, Note_on_c, 7, 55, 127
1, 303223, Note_on_c, 7, 79, 127
1, 303354, Note_off_c, 7, 79, 127
1, 303355, Note_on_c, 10, 81, 127
1, 303486, Note_off_c, 10, 81, 127
1, 303487, Note_on_c, 11, 82, 127
1, 303618, Note_off_c, 11, 82, 127
1, 303618, Note_off_c, 7, 55, 127
1, 303618, Note_off_c, 11, 46, 127
1, 303618, Note_off_c, 2, 50, 127
1, 303619, Note_on_c, 0, 48, 127
1, 303619, Note_on_c, 10, 57, 127
1, 303619, Note_on_c, 3, 51, 127
1, 303619, Note_on_c, 10, 81, 127
1, 303750, Note_off_c, 10, 81, 127
1, 303751, Note_on_c, 11, 82, 127
1, 303882, Note_off_c, 11, 82, 127
1, 303883, Note_on_c, 7, 79, 127
1, 304014, Note_off_c, 7, 79, 127
1, 304014, Note_off_c, 3, 51, 127
1, 304014, Note_off_c, 10, 57, 127
1, 304014, Note_off_c, 0, 48, 127
1, 304015, Note_on_c, 2, 50, 127
1, 304015, Note_on_c, 10, 57, 127
1, 304015, Note_on_c, 6, 78, 127
1, 304146, Note_off_c, 6, 78, 127
1, 304147, Note_on_c, 4, 76, 127
1, 304278, Note_off_c, 4, 76, 127
1, 304279, Note_on_c, 6, 78, 127
1, 304410, Note_off_c, 6, 78, 127
1, 304410, Note_off_c, 10, 57, 127
1, 304410, Note_off_c, 2, 50, 127
1, 304411, Note_on_c, 6, 54, 127
1, 304411, Note_on_c, 2, 50, 127
1, 304411, Note_on_c, 2, 74, 127
1, 304542, Note_off_c, 2, 50, 127
1, 304543, Note_on_c, 0, 48, 127
1, 304674, Note_off_c, 0, 48, 127
1, 304674, Note_off_c, 6, 54, 127
1, 304675, Note_on_c, 2, 50, 127
1, 304700, Note_off_c, 2, 74, 127
1, 304807, Note_off_c, 2, 50, 127
1, 304808, Note_on_c, 12, 47, 127
1, 304808, Note_on_c, 7, 55, 127
1, 304808, Note_on_c, 2, 50, 127
1, 304808, Note_on_c, 2, 74, 127
1, 304939, Note_off_c, 2, 74, 127
1, 304940, Note_on_c, 7, 79, 127
1, 305071, Note_off_c, 7, 79, 127
1, 305072, Note_on_c, 2, 74, 127
1, 305203, Note_off_c, 2, 74, 127
1, 305203, Note_off_c, 2, 50, 127
1, 305203, Note_off_c, 7, 55, 127
1, 305203, Note_off_c, 12, 47, 127
1, 305204, Note_on_c, 7, 43, 127
1, 305204, Note_on_c, 7, 55, 127
1, 305204, Note_on_c, 2, 50, 127
1, 305204, Note_on_c, 12, 71, 127
1, 305335, Note_off_c, 12, 71, 127
1, 305336, Note_on_c, 7, 79, 127
1, 305467, Note_off_c, 7, 79, 127
1, 305468, Note_on_c, 2, 74, 127
1, 305599, Note_off_c, 2, 74, 127
1, 305599, Note_off_c, 2, 50, 127
1, 305599, Note_off_c, 7, 55, 127
1, 305599, Note_off_c, 7, 43, 127
1, 305600, Note_on_c, 0, 48, 127
1, 305600, Note_on_c, 7, 55, 127
1, 305600, Note_on_c, 3, 75, 127
1, 305731, Note_off_c, 3, 75, 127
1, 305732, Note_on_c, 7, 79, 127
1, 305863, Note_off_c, 7, 79, 127
1, 305864, Note_on_c, 3, 75, 127
1, 305995, Note_off_c, 3, 75, 127
1, 305995, Note_off_c, 7, 55, 127
1, 305995, Note_off_c, 0, 48, 127
1, 305996, Note_on_c, 3, 51, 127
1, 305996, Note_on_c, 7, 55, 127
1, 305996, Note_on_c, 0, 72, 127
1, 306127, Note_off_c, 0, 72, 127
1, 306128, Note_on_c, 7, 79, 127
1, 306259, Note_off_c, 7, 79, 127
1, 306260, Note_on_c, 0, 72, 127
1, 306391, Note_off_c, 0, 72, 127
1, 306391, Note_off_c, 7, 55, 127
1, 306391, Note_off_c, 3, 51, 127
1, 306392, Note_on_c, 5, 53, 127
1, 306392, Note_on_c, 0, 60, 127
1, 306392, Note_on_c, 10, 69, 127
1, 306523, Note_off_c, 10, 69, 127
1, 306524, Note_on_c, 5, 77, 127
1, 306655, Note_off_c, 5, 77, 127
1, 306656, Note_on_c, 0, 72, 127
1, 306787, Note_off_c, 0, 72, 127
1, 306787, Note_off_c, 0, 60, 127
1, 306787, Note_off_c, 5, 53, 127
1, 306788, Note_on_c, 5, 53, 127
1, 306788, Note_on_c, 0, 60, 127
1, 306788, Note_on_c, 10, 69, 127
1, 306919, Note_off_c, 10, 69, 127
1, 306920, Note_on_c, 5, 77, 127
1, 307051, Note_off_c, 5, 77, 127
1, 307052, Note_on_c, 0, 72, 127
1, 307183, Note_off_c, 0, 72, 127
1, 307183, Note_off_c, 0, 60, 127
1, 307183, Note_off_c, 5, 53, 127
1, 307184, Note_on_c, 11, 46, 127
1, 307184, Note_on_c, 5, 53, 127
1, 307184, Note_on_c, 11, 58, 127
1, 307184, Note_on_c, 2, 74, 127
1, 307315, Note_off_c, 2, 74, 127
1, 307316, Note_on_c, 11, 82, 127
1, 307447, Note_off_c, 11, 82, 127
1, 307448, Note_on_c, 5, 77, 127
1, 307579, Note_off_c, 5, 77, 127
1, 307579, Note_off_c, 11, 58, 127
1, 307579, Note_off_c, 5, 53, 127
1, 307579, Note_off_c, 11, 46, 127
1, 307580, Note_on_c, 5, 53, 127
1, 307580, Note_on_c, 11, 46, 127
1, 307580, Note_on_c, 11, 58, 127
1, 307580, Note_on_c, 2, 74, 127
1, 307711, Note_off_c, 2, 74, 127
1, 307712, Note_on_c, 11, 82, 127
1, 307843, Note_off_c, 11, 82, 127
1, 307844, Note_on_c, 5, 77, 127
1, 307975, Note_off_c, 5, 77, 127
1, 307975, Note_off_c, 11, 58, 127
1, 307975, Note_off_c, 11, 46, 127
1, 307975, Note_off_c, 5, 53, 127
1, 307976, Note_on_c, 3, 51, 127
1, 307976, Note_on_c, 11, 58, 127
1, 307976, Note_on_c, 7, 79, 127
1, 308107, Note_off_c, 7, 79, 127
1, 308108, Note_on_c, 11, 82, 127
1, 308239, Note_off_c, 11, 82, 127
1, 308240, Note_on_c, 7, 79, 127
1, 308371, Note_off_c, 7, 79, 127
1, 308371, Note_off_c, 11, 58, 127
1, 308371, Note_off_c, 3, 51, 127
1, 308372, Note_on_c, 11, 58, 127
1, 308372, Note_on_c, 7, 55, 127
1, 308372, Note_on_c, 3, 75, 127
1, 308503, Note_off_c, 3, 75, 127
1, 308504, Note_on_c, 7, 79, 127
1, 308635, Note_off_c, 7, 79, 127
1, 308636, Note_on_c, 3, 75, 127
1, 308767, Note_off_c, 3, 75, 127
1, 308767, Note_off_c, 7, 55, 127
1, 308767, Note_off_c, 11, 58, 127
1, 308768, Note_on_c, 0, 60, 127
1, 308768, Note_on_c, 3, 51, 127
1, 308768, Note_on_c, 7, 55, 127
1, 308768, Note_on_c, 0, 72, 127
1, 308899, Note_off_c, 0, 72, 127
1, 308900, Note_on_c, 3, 75, 127
1, 309031, Note_off_c, 3, 75, 127
1, 309032, Note_on_c, 0, 72, 127
1, 309163, Note_off_c, 0, 72, 127
1, 309163, Note_off_c, 7, 55, 127
1, 309163, Note_off_c, 3, 51, 127
1, 309163, Note_off_c, 0, 60, 127
1, 309164, Note_on_c, 3, 51, 127
1, 309164, Note_on_c, 0, 48, 127
1, 309164, Note_on_c, 0, 60, 127
1, 309164, Note_on_c, 10, 69, 127
1, 309295, Note_off_c, 10, 69, 127
1, 309296, Note_on_c, 0, 72, 127
1, 309427, Note_off_c, 0, 72, 127
1, 309428, Note_on_c, 10, 69, 127
1, 309559, Note_off_c, 10, 69, 127
1, 309559, Note_off_c, 0, 60, 127
1, 309559, Note_off_c, 0, 48, 127
1, 309559, Note_off_c, 3, 51, 127
1, 309560, Note_on_c, 5, 53, 127
1, 309560, Note_on_c, 10, 57, 127
1, 309560, Note_on_c, 0, 60, 127
1, 309560, Note_on_c, 5, 65, 127
1, 309691, Note_off_c, 5, 65, 127
1, 309692, Note_on_c, 10, 69, 127
1, 309823, Note_off_c, 10, 69, 127
1, 309824, Note_on_c, 0, 72, 127
1, 309955, Note_off_c, 0, 72, 127
1, 309955, Note_off_c, 0, 60, 127
1, 309955, Note_off_c, 10, 57, 127
1, 309955, Note_off_c, 5, 53, 127
1, 309956, Note_on_c, 10, 57, 127
1, 309956, Note_on_c, 5, 53, 127
1, 309956, Note_on_c, 0, 60, 127
1, 309956, Note_on_c, 3, 75, 127
1, 310087, Note_off_c, 3, 75, 127
1, 310088, Note_on_c, 0, 72, 127
1, 310219, Note_off_c, 0, 72, 127
1, 310220, Note_on_c, 10, 69, 127
1, 310351, Note_off_c, 10, 69, 127
1, 310351, Note_off_c, 0, 60, 127
1, 310351, Note_off_c, 5, 53, 127
1, 310351, Note_off_c, 10, 57, 127
1, 310352, Note_on_c, 5, 53, 127
1, 310352, Note_on_c, 0, 60, 127
1, 310352, Note_on_c, 10, 57, 127
1, 310352, Note_on_c, 5, 65, 127
1, 310483, Note_off_c, 5, 65, 127
1, 310484, Note_on_c, 10, 69, 127
1, 310615, Note_off_c, 10, 69, 127
1, 310616, Note_on_c, 0, 72, 127
1, 310747, Note_off_c, 0, 72, 127
1, 310747, Note_off_c, 10, 57, 127
1, 310747, Note_off_c, 0, 60, 127
1, 310747, Note_off_c, 5, 53, 127
1, 310748, Note_on_c, 5, 53, 127
1, 310748, Note_on_c, 0, 60, 127
1, 310748, Note_on_c, 10, 57, 127
1, 310748, Note_on_c, 3, 75, 127
1, 310879, Note_off_c, 3, 75, 127
1, 310880, Note_on_c, 0, 72, 127
1, 311011, Note_off_c, 0, 72, 127
1, 311012, Note_on_c, 10, 69, 127
1, 311143, Note_off_c, 10, 69, 127
1, 311143, Note_off_c, 10, 57, 127
1, 311143, Note_off_c, 0, 60, 127
1, 311143, Note_off_c, 5, 53, 127
1, 311144, Note_on_c, 0, 60, 127
1, 311144, Note_on_c, 10, 57, 127
1, 311144, Note_on_c, 5, 53, 127
1, 311144, Note_on_c, 5, 65, 127
1, 311275, Note_off_c, 5, 65, 127
1, 311276, Note_on_c, 10, 69, 127
1, 311407, Note_off_c, 10, 69, 127
1, 311408, Note_on_c, 0, 72, 127
1, 311539, Note_off_c, 0, 72, 127
1, 311539, Note_off_c, 5, 53, 127
1, 311539, Note_off_c, 10, 57, 127
1, 311539, Note_off_c, 0, 60, 127
1, 311540, Note_on_c, 5, 53, 127
1, 311540, Note_on_c, 0, 60, 127
1, 311540, Note_on_c, 10, 57, 127
1, 311540, Note_on_c, 3, 75, 127
1, 311671, Note_off_c, 3, 75, 127
1, 311672, Note_on_c, 0, 72, 127
1, 311803, Note_off_c, 0, 72, 127
1, 311804, Note_on_c, 10, 69, 127
1, 311917, Note_off_c, 10, 69, 127
1, 311928, Note_off_c, 5, 53, 127
1, 311935, Note_off_c, 10, 57, 127
1, 311935, Note_off_c, 0, 60, 127
1, 311936, Note_on_c, 11, 58, 127
1, 311936, Note_on_c, 2, 62, 127
1, 311936, Note_on_c, 5, 77, 127
1, 312067, Note_off_c, 5, 77, 127
1, 312068, Note_on_c, 3, 75, 127
1, 312199, Note_off_c, 3, 75, 127
1, 312200, Note_on_c, 2, 74, 127
1, 312331, Note_off_c, 2, 74, 127
1, 312331, Note_off_c, 2, 62, 127
1, 312331, Note_off_c, 11, 58, 127
1, 312332, Note_on_c, 5, 53, 127
1, 312332, Note_on_c, 10, 57, 127
1, 312332, Note_on_c, 3, 63, 127
1, 312332, Note_on_c, 0, 72, 127
1, 312463, Note_off_c, 0, 72, 127
1, 312464, Note_on_c, 11, 70, 127
1, 312595, Note_off_c, 11, 70, 127
1, 312596, Note_on_c, 10, 69, 127
1, 312727, Note_off_c, 10, 69, 127
1, 312727, Note_off_c, 3, 63, 127
1, 312727, Note_off_c, 10, 57, 127
1, 312727, Note_off_c, 5, 53, 127
1, 312728, Note_on_c, 2, 62, 127
1, 312728, Note_on_c, 11, 58, 127
1, 312728, Note_on_c, 11, 70, 127
1, 312859, Note_off_c, 11, 70, 127
1, 312860, Note_on_c, 2, 74, 127
1, 312991, Note_off_c, 2, 74, 127
1, 312992, Note_on_c, 5, 77, 127
1, 313123, Note_off_c, 5, 77, 127
1, 313123, Note_off_c, 11, 58, 127
1, 313123, Note_off_c, 2, 62, 127
1, 313124, Note_on_c, 11, 58, 127
1, 313124, Note_on_c, 2, 62, 127
1, 313124, Note_on_c, 11, 82, 127
1, 313255, Note_off_c, 11, 82, 127
1, 313256, Note_on_c, 5, 77, 127
1, 313387, Note_off_c, 5, 77, 127
1, 313388, Note_on_c, 2, 74, 127
1, 313519, Note_off_c, 2, 74, 127
1, 313519, Note_off_c, 2, 62, 127
1, 313519, Note_off_c, 11, 58, 127
1, 313520, Note_on_c, 2, 62, 127
1, 313520, Note_on_c, 11, 58, 127
1, 313520, Note_on_c, 11, 70, 127
1, 313651, Note_off_c, 11, 70, 127
1, 313652, Note_on_c, 5, 65, 127
1, 313783, Note_off_c, 5, 65, 127
1, 313784, Note_on_c, 11, 70, 127
1, 313915, Note_off_c, 11, 70, 127
1, 313915, Note_off_c, 11, 58, 127
1, 313915, Note_off_c, 2, 62, 127
1, 313916, Note_on_c, 11, 58, 127
1, 313916, Note_on_c, 2, 62, 127
1, 313916, Note_on_c, 5, 65, 127
1, 314040, Note_off_c, 2, 62, 127
1, 314047, Note_off_c, 5, 65, 127
1, 314048, Note_on_c, 2, 62, 127
1, 314179, Note_off_c, 2, 62, 127
1, 314180, Note_on_c, 5, 65, 127
1, 314311, Note_off_c, 5, 65, 127
1, 314311, Note_off_c, 11, 58, 127
1, 314312, Note_on_c, 11, 46, 127
1, 314312, Note_on_c, 11, 58, 127
1, 314443, Note_off_c, 11, 46, 127
1, 314444, Note_on_c, 2, 50, 127
1, 314575, Note_off_c, 2, 50, 127
1, 314576, Note_on_c, 5, 53, 127
1, 314704, Note_off_c, 11, 58, 127
1, 314707, Note_off_c, 5, 53, 127
1, 314708, Note_on_c, 11, 58, 127
1, 314839, Note_off_c, 11, 58, 127
1, 314840, Note_on_c, 2, 62, 127
1, 314971, Note_off_c, 2, 62, 127
1, 314972, Note_on_c, 10, 57, 127
1, 315103, Note_off_c, 10, 57, 127
1, 315104, Note_on_c, 11, 58, 127
1, 315104, Note_on_c, 7, 79, 127
1, 315236, Note_on_c, 7, 55, 127
1, 315236, Note_on_c, 11, 82, 127
1, 315237, Note_off_c, 11, 58, 127
1, 315248, Note_off_c, 7, 79, 127
1, 315367, Note_off_c, 11, 82, 127
1, 315367, Note_off_c, 7, 55, 127
1, 315368, Note_on_c, 11, 58, 127
1, 315368, Note_on_c, 7, 79, 127
1, 315499, Note_off_c, 7, 79, 127
1, 315499, Note_off_c, 11, 58, 127
1, 315500, Note_on_c, 2, 62, 127
1, 315500, Note_on_c, 6, 78, 127
1, 315631, Note_off_c, 6, 78, 127
1, 315632, Note_on_c, 2, 50, 127
1, 315632, Note_on_c, 10, 81, 127
1, 315633, Note_off_c, 2, 62, 127
1, 315751, Note_off_c, 10, 81, 127
1, 315763, Note_off_c, 2, 50, 127
1, 315764, Note_on_c, 2, 62, 127
1, 315764, Note_on_c, 6, 78, 127
1, 315883, Note_off_c, 6, 78, 127
1, 315895, Note_off_c, 2, 62, 127
1, 315896, Note_on_c, 11, 58, 127
1, 315896, Note_on_c, 7, 79, 127
1, 316028, Note_on_c, 7, 55, 127
1, 316028, Note_on_c, 11, 82, 127
1, 316029, Note_off_c, 11, 58, 127
1, 316040, Note_off_c, 7, 79, 127
1, 316159, Note_off_c, 11, 82, 127
1, 316159, Note_off_c, 7, 55, 127
1, 316160, Note_on_c, 11, 58, 127
1, 316160, Note_on_c, 7, 79, 127
1, 316291, Note_off_c, 7, 79, 127
1, 316291, Note_off_c, 11, 58, 127
1, 316292, Note_on_c, 2, 62, 127
1, 316292, Note_on_c, 6, 78, 127
1, 316423, Note_off_c, 6, 78, 127
1, 316424, Note_on_c, 2, 50, 127
1, 316424, Note_on_c, 10, 81, 127
1, 316425, Note_off_c, 2, 62, 127
1, 316543, Note_off_c, 10, 81, 127
1, 316555, Note_off_c, 2, 50, 127
1, 316556, Note_on_c, 2, 62, 127
1, 316556, Note_on_c, 6, 78, 127
1, 316675, Note_off_c, 6, 78, 127
1, 316687, Note_off_c, 2, 62, 127
1, 316688, Note_on_c, 11, 58, 127
1, 316688, Note_on_c, 7, 79, 127
1, 316820, Note_on_c, 7, 55, 127
1, 316820, Note_on_c, 11, 82, 127
1, 316821, Note_off_c, 11, 58, 127
1, 316832, Note_off_c, 7, 79, 127
1, 316951, Note_off_c, 11, 82, 127
1, 316951, Note_off_c, 7, 55, 127
1, 316952, Note_on_c, 11, 58, 127
1, 316952, Note_on_c, 7, 79, 127
1, 317083, Note_off_c, 7, 79, 127
1, 317083, Note_off_c, 11, 58, 127
1, 317084, Note_on_c, 2, 62, 127
1, 317084, Note_on_c, 6, 78, 127
1, 317215, Note_off_c, 6, 78, 127
1, 317216, Note_on_c, 2, 50, 127
1, 317216, Note_on_c, 10, 81, 127
1, 317217, Note_off_c, 2, 62, 127
1, 317335, Note_off_c, 10, 81, 127
1, 317347, Note_off_c, 2, 50, 127
1, 317348, Note_on_c, 2, 62, 127
1, 317348, Note_on_c, 6, 78, 127
1, 317467, Note_off_c, 6, 78, 127
1, 317479, Note_off_c, 2, 62, 127
1, 317480, Note_on_c, 11, 58, 127
1, 317480, Note_on_c, 7, 79, 127
1, 317612, Note_on_c, 10, 57, 127
1, 317612, Note_on_c, 10, 81, 127
1, 317613, Note_off_c, 11, 58, 127
1, 317624, Note_off_c, 7, 79, 127
1, 317743, Note_off_c, 10, 81, 127
1, 317743, Note_off_c, 10, 57, 127
1, 317744, Note_on_c, 7, 55, 127
1, 317744, Note_on_c, 11, 82, 127
1, 317875, Note_off_c, 11, 82, 127
1, 317875, Note_off_c, 7, 55, 127
1, 317876, Note_on_c, 0, 60, 127
1, 317876, Note_on_c, 10, 81, 127
1, 318007, Note_off_c, 10, 81, 127
1, 318008, Note_on_c, 2, 62, 127
1, 318008, Note_on_c, 11, 82, 127
1, 318009, Note_off_c, 0, 60, 127
1, 318127, Note_off_c, 11, 82, 127
1, 318139, Note_off_c, 2, 62, 127
1, 318140, Note_on_c, 3, 63, 127
1, 318140, Note_on_c, 7, 79, 127
1, 318259, Note_off_c, 7, 79, 127
1, 318271, Note_off_c, 3, 63, 127
1, 318272, Note_on_c, 2, 62, 127
1, 318272, Note_on_c, 6, 78, 127
1, 318404, Note_on_c, 4, 76, 127
1, 318416, Note_off_c, 6, 78, 127
1, 318535, Note_off_c, 4, 76, 127
1, 318535, Note_off_c, 2, 62, 127
1, 318536, Note_on_c, 2, 50, 127
1, 318536, Note_on_c, 6, 78, 127
1, 318667, Note_off_c, 6, 78, 127
1, 318667, Note_off_c, 2, 50, 127
1, 318668, Note_on_c, 2, 62, 127
1, 318668, Note_on_c, 2, 74, 127
1, 318800, Note_on_c, 0, 60, 127
1, 318801, Note_off_c, 2, 62, 127
1, 318931, Note_off_c, 0, 60, 127
1, 318932, Note_on_c, 2, 62, 127
1, 318957, Note_off_c, 2, 74, 127
1, 319064, Note_off_c, 2, 62, 127
1, 319065, Note_on_c, 12, 59, 127
1, 319065, Note_on_c, 2, 74, 127
1, 319197, Note_on_c, 2, 62, 127
1, 319197, Note_on_c, 7, 79, 127
1, 319198, Note_off_c, 12, 59, 127
1, 319209, Note_off_c, 2, 74, 127
1, 319328, Note_off_c, 7, 79, 127
1, 319328, Note_off_c, 2, 62, 127
1, 319329, Note_on_c, 12, 59, 127
1, 319329, Note_on_c, 2, 74, 127
1, 319460, Note_off_c, 2, 74, 127
1, 319460, Note_off_c, 12, 59, 127
1, 319461, Note_on_c, 7, 55, 127
1, 319461, Note_on_c, 12, 71, 127
1, 319592, Note_off_c, 12, 71, 127
1, 319593, Note_on_c, 12, 59, 127
1, 319593, Note_on_c, 7, 79, 127
1, 319594, Note_off_c, 7, 55, 127
1, 319712, Note_off_c, 7, 79, 127
1, 319724, Note_off_c, 12, 59, 127
1, 319725, Note_on_c, 7, 55, 127
1, 319725, Note_on_c, 2, 74, 127
1, 319844, Note_off_c, 2, 74, 127
1, 319856, Note_off_c, 7, 55, 127
1, 319857, Note_on_c, 0, 60, 127
1, 319857, Note_on_c, 3, 75, 127
1, 319989, Note_on_c, 3, 63, 127
1, 319989, Note_on_c, 7, 79, 127
1, 319990, Note_off_c, 0, 60, 127
1, 320001, Note_off_c, 3, 75, 127
1, 320120, Note_off_c, 7, 79, 127
1, 320120, Note_off_c, 3, 63, 127
1, 320121, Note_on_c, 0, 60, 127
1, 320121, Note_on_c, 3, 75, 127
1, 320252, Note_off_c, 3, 75, 127
1, 320252, Note_off_c, 0, 60, 127
1, 320253, Note_on_c, 10, 57, 127
1, 320253, Note_on_c, 0, 72, 127
1, 320384, Note_off_c, 0, 72, 127
1, 320385, Note_on_c, 0, 60, 127
1, 320385, Note_on_c, 7, 79, 127
1, 320386, Note_off_c, 10, 57, 127
1, 320504, Note_off_c, 7, 79, 127
1, 320516, Note_off_c, 0, 60, 127
1, 320517, Note_on_c, 10, 57, 127
1, 320517, Note_on_c, 0, 72, 127
1, 320636, Note_off_c, 0, 72, 127
1, 320648, Note_off_c, 10, 57, 127
1, 320649, Note_on_c, 5, 53, 127
1, 320649, Note_on_c, 10, 69, 127
1, 320781, Note_on_c, 10, 57, 127
1, 320781, Note_on_c, 5, 77, 127
1, 320782, Note_off_c, 5, 53, 127
1, 320793, Note_off_c, 10, 69, 127
1, 320912, Note_off_c, 5, 77, 127
1, 320912, Note_off_c, 10, 57, 127
1, 320913, Note_on_c, 5, 53, 127
1, 320913, Note_on_c, 0, 72, 127
1, 321044, Note_off_c, 0, 72, 127
1, 321044, Note_off_c, 5, 53, 127
1, 321045, Note_on_c, 10, 57, 127
1, 321045, Note_on_c, 10, 69, 127
1, 321176, Note_off_c, 10, 69, 127
1, 321177, Note_on_c, 0, 60, 127
1, 321177, Note_on_c, 5, 77, 127
1, 321178, Note_off_c, 10, 57, 127
1, 321296, Note_off_c, 5, 77, 127
1, 321308, Note_off_c, 0, 60, 127
1, 321309, Note_on_c, 10, 57, 127
1, 321309, Note_on_c, 0, 72, 127
1, 321428, Note_off_c, 0, 72, 127
1, 321440, Note_off_c, 10, 57, 127
1, 321441, Note_on_c, 11, 58, 127
1, 321441, Note_on_c, 2, 74, 127
1, 321573, Note_on_c, 5, 65, 127
1, 321573, Note_on_c, 11, 82, 127
1, 321574, Note_off_c, 11, 58, 127
1, 321585, Note_off_c, 2, 74, 127
1, 321704, Note_off_c, 11, 82, 127
1, 321704, Note_off_c, 5, 65, 127
1, 321705, Note_on_c, 2, 62, 127
1, 321705, Note_on_c, 5, 77, 127
1, 321836, Note_off_c, 5, 77, 127
1, 321836, Note_off_c, 2, 62, 127
1, 321837, Note_on_c, 11, 58, 127
1, 321837, Note_on_c, 2, 74, 127
1, 321968, Note_off_c, 2, 74, 127
1, 321969, Note_on_c, 2, 62, 127
1, 321969, Note_on_c, 11, 82, 127
1, 321970, Note_off_c, 11, 58, 127
1, 322088, Note_off_c, 11, 82, 127
1, 322100, Note_off_c, 2, 62, 127
1, 322101, Note_on_c, 11, 58, 127
1, 322101, Note_on_c, 5, 77, 127
1, 322220, Note_off_c, 5, 77, 127
1, 322232, Note_off_c, 11, 58, 127
1, 322233, Note_on_c, 3, 63, 127
1, 322233, Note_on_c, 7, 79, 127
1, 322365, Note_on_c, 11, 82, 127
1, 322377, Note_off_c, 7, 79, 127
1, 322496, Note_off_c, 11, 82, 127
1, 322496, Note_off_c, 3, 63, 127
1, 322497, Note_on_c, 3, 51, 127
1, 322497, Note_on_c, 7, 79, 127
1, 322628, Note_off_c, 7, 79, 127
1, 322628, Note_off_c, 3, 51, 127
1, 322629, Note_on_c, 7, 55, 127
1, 322629, Note_on_c, 3, 75, 127
1, 322760, Note_off_c, 3, 75, 127
1, 322761, Note_on_c, 11, 58, 127
1, 322761, Note_on_c, 7, 79, 127
1, 322762, Note_off_c, 7, 55, 127
1, 322880, Note_off_c, 7, 79, 127
1, 322892, Note_off_c, 11, 58, 127
1, 322893, Note_on_c, 7, 55, 127
1, 322893, Note_on_c, 3, 75, 127
1, 323012, Note_off_c, 3, 75, 127
1, 323024, Note_off_c, 7, 55, 127
1, 323025, Note_on_c, 3, 51, 127
1, 323025, Note_on_c, 0, 72, 127
1, 323157, Note_on_c, 7, 55, 127
1, 323157, Note_on_c, 3, 75, 127
1, 323158, Note_off_c, 3, 51, 127
1, 323169, Note_off_c, 0, 72, 127
1, 323288, Note_off_c, 3, 75, 127
1, 323288, Note_off_c, 7, 55, 127
1, 323289, Note_on_c, 3, 51, 127
1, 323289, Note_on_c, 0, 72, 127
1, 323420, Note_off_c, 0, 72, 127
1, 323420, Note_off_c, 3, 51, 127
1, 323421, Note_on_c, 0, 48, 127
1, 323421, Note_on_c, 10, 69, 127
1, 323552, Note_off_c, 10, 69, 127
1, 323553, Note_on_c, 3, 51, 127
1, 323553, Note_on_c, 0, 72, 127
1, 323554, Note_off_c, 0, 48, 127
1, 323672, Note_off_c, 0, 72, 127
1, 323684, Note_off_c, 3, 51, 127
1, 323685, Note_on_c, 0, 48, 127
1, 323685, Note_on_c, 10, 69, 127
1, 323804, Note_off_c, 10, 69, 127
1, 323816, Note_off_c, 0, 48, 127
1, 323817, Note_on_c, 10, 45, 127
1, 323817, Note_on_c, 5, 65, 127
1, 323949, Note_on_c, 0, 48, 127
1, 323949, Note_on_c, 10, 69, 127
1, 323950, Note_off_c, 10, 45, 127
1, 323961, Note_off_c, 5, 65, 127
1, 324080, Note_off_c, 10, 69, 127
1, 324080, Note_off_c, 0, 48, 127
1, 324081, Note_on_c, 10, 45, 127
1, 324081, Note_on_c, 0, 72, 127
1, 324212, Note_off_c, 0, 72, 127
1, 324212, Note_off_c, 10, 45, 127
1, 324213, Note_on_c, 5, 41, 127
1, 324213, Note_on_c, 3, 75, 127
1, 324344, Note_off_c, 3, 75, 127
1, 324345, Note_on_c, 10, 45, 127
1, 324345, Note_on_c, 0, 72, 127
1, 324346, Note_off_c, 5, 41, 127
1, 324464, Note_off_c, 0, 72, 127
1, 324476, Note_off_c, 10, 45, 127
1, 324477, Note_on_c, 0, 48, 127
1, 324477, Note_on_c, 10, 69, 127
1, 324596, Note_off_c, 10, 69, 127
1, 324608, Note_off_c, 0, 48, 127
1, 324609, Note_on_c, 3, 51, 127
1, 324609, Note_on_c, 5, 65, 127
1, 324741, Note_on_c, 0, 48, 127
1, 324741, Note_on_c, 10, 69, 127
1, 324742, Note_off_c, 3, 51, 127
1, 324753, Note_off_c, 5, 65, 127
1, 324872, Note_off_c, 10, 69, 127
1, 324872, Note_off_c, 0, 48, 127
1, 324873, Note_on_c, 10, 45, 127
1, 324873, Note_on_c, 0, 72, 127
1, 325004, Note_off_c, 0, 72, 127
1, 325004, Note_off_c, 10, 45, 127
1, 325005, Note_on_c, 5, 41, 127
1, 325005, Note_on_c, 3, 75, 127
1, 325136, Note_off_c, 3, 75, 127
1, 325137, Note_on_c, 10, 45, 127
1, 325137, Note_on_c, 0, 72, 127
1, 325138, Note_off_c, 5, 41, 127
1, 325256, Note_off_c, 0, 72, 127
1, 325268, Note_off_c, 10, 45, 127
1, 325269, Note_on_c, 0, 48, 127
1, 325269, Note_on_c, 10, 69, 127
1, 325388, Note_off_c, 10, 69, 127
1, 325400, Note_off_c, 0, 48, 127
1, 325401, Note_on_c, 3, 51, 127
1, 325401, Note_on_c, 5, 65, 127
1, 325533, Note_on_c, 0, 48, 127
1, 325533, Note_on_c, 10, 69, 127
1, 325534, Note_off_c, 3, 51, 127
1, 325545, Note_off_c, 5, 65, 127
1, 325664, Note_off_c, 10, 69, 127
1, 325664, Note_off_c, 0, 48, 127
1, 325665, Note_on_c, 10, 45, 127
1, 325665, Note_on_c, 0, 72, 127
1, 325796, Note_off_c, 0, 72, 127
1, 325796, Note_off_c, 10, 45, 127
1, 325797, Note_on_c, 5, 41, 127
1, 325797, Note_on_c, 3, 75, 127
1, 325928, Note_off_c, 3, 75, 127
1, 325929, Note_on_c, 10, 45, 127
1, 325929, Note_on_c, 0, 72, 127
1, 325930, Note_off_c, 5, 41, 127
1, 326048, Note_off_c, 0, 72, 127
1, 326060, Note_off_c, 10, 45, 127
1, 326061, Note_on_c, 0, 48, 127
1, 326061, Note_on_c, 10, 69, 127
1, 326180, Note_off_c, 10, 69, 127
1, 326192, Note_off_c, 0, 48, 127
1, 326193, Note_on_c, 2, 50, 127
1, 326193, Note_on_c, 5, 77, 127
1, 326325, Note_on_c, 0, 48, 127
1, 326325, Note_on_c, 3, 75, 127
1, 326326, Note_off_c, 2, 50, 127
1, 326337, Note_off_c, 5, 77, 127
1, 326444, Note_off_c, 3, 75, 127
1, 326456, Note_off_c, 0, 48, 127
1, 326457, Note_on_c, 11, 46, 127
1, 326457, Note_on_c, 2, 74, 127
1, 326576, Note_off_c, 2, 74, 127
1, 326588, Note_off_c, 11, 46, 127
1, 326589, Note_on_c, 3, 51, 127
1, 326589, Note_on_c, 0, 72, 127
1, 326720, Note_off_c, 0, 72, 127
1, 326721, Note_on_c, 0, 48, 127
1, 326721, Note_on_c, 11, 70, 127
1, 326722, Note_off_c, 3, 51, 127
1, 326840, Note_off_c, 11, 70, 127
1, 326852, Note_off_c, 0, 48, 127
1, 326853, Note_on_c, 5, 53, 127
1, 326853, Note_on_c, 10, 69, 127
1, 326972, Note_off_c, 10, 69, 127
1, 326984, Note_off_c, 5, 53, 127
1, 326985, Note_on_c, 11, 46, 127
1, 326985, Note_on_c, 11, 70, 127
1, 327117, Note_on_c, 2, 74, 127
1, 327129, Note_off_c, 11, 70, 127
1, 327248, Note_off_c, 2, 74, 127
1, 327249, Note_on_c, 5, 77, 127
1, 327380, Note_off_c, 5, 77, 127
1, 327381, Note_on_c, 11, 82, 127
1, 327513, Note_on_c, 5, 77, 127
1, 327525, Note_off_c, 11, 82, 127
1, 327578, Note_off_c, 11, 46, 127
1, 327644, Note_off_c, 5, 77, 127
1, 327645, Note_on_c, 2, 74, 127
1, 327776, Note_off_c, 2, 74, 127
1, 327777, Note_on_c, 11, 46, 127
1, 327777, Note_on_c, 11, 70, 127
1, 327908, Note_off_c, 11, 46, 127
1, 327909, Note_on_c, 2, 50, 127
1, 327909, Note_on_c, 5, 65, 127
1, 327921, Note_off_c, 11, 70, 127
1, 328040, Note_off_c, 5, 65, 127
1, 328040, Note_off_c, 2, 50, 127
1, 328041, Note_on_c, 5, 53, 127
1, 328041, Note_on_c, 11, 70, 127
1, 328172, Note_off_c, 11, 70, 127
1, 328172, Note_off_c, 5, 53, 127
1, 328173, Note_on_c, 11, 58, 127
1, 328173, Note_on_c, 5, 65, 127
1, 328304, Note_off_c, 11, 58, 127
1, 328305, Note_on_c, 5, 53, 127
1, 328305, Note_on_c, 2, 62, 127
1, 328317, Note_off_c, 5, 65, 127
1, 328436, Note_off_c, 2, 62, 127
1, 328436, Note_off_c, 5, 53, 127
1, 328437, Note_on_c, 2, 50, 127
1, 328437, Note_on_c, 5, 65, 127
1, 328568, Note_off_c, 5, 65, 127
1, 328568, Note_off_c, 2, 50, 127
1, 328569, Note_on_c, 11, 46, 127
1, 328569, Note_on_c, 11, 58, 127
1, 328700, Note_off_c, 11, 46, 127
1, 328701, Note_on_c, 5, 53, 127
1, 328827, Note_off_c, 11, 58, 127
1, 328832, Note_off_c, 5, 53, 127
1, 328833, Note_on_c, 11, 58, 127
1, 328964, Note_off_c, 11, 58, 127
1, 328965, Note_on_c, 5, 53, 127
1, 329096, Note_off_c, 5, 53, 127
1, 329097, Note_on_c, 2, 50, 127
1, 329228, Note_off_c, 2, 50, 127
1, 329229, Note_on_c, 5, 53, 127
1, 329360, Note_off_c, 5, 53, 127
1, 329361, Note_on_c, 11, 46, 127
1, 329361, Note_on_c, 11, 58, 127
1, 329361, Note_on_c, 11, 70, 127
1, 329492, Note_off_c, 11, 70, 127
1, 329493, Note_on_c, 2, 74, 127
1, 329624, Note_off_c, 2, 74, 127
1, 329625, Note_on_c, 11, 70, 127
1, 329756, Note_off_c, 11, 70, 127
1, 329756, Note_off_c, 11, 58, 127
1, 329756, Note_off_c, 11, 46, 127
1, 329757, Note_on_c, 0, 60, 127
1, 329757, Note_on_c, 5, 53, 127
1, 329757, Note_on_c, 10, 69, 127
1, 329888, Note_off_c, 10, 69, 127
1, 329889, Note_on_c, 0, 72, 127
1, 330020, Note_off_c, 0, 72, 127
1, 330021, Note_on_c, 10, 69, 127
1, 330152, Note_off_c, 10, 69, 127
1, 330152, Note_off_c, 5, 53, 127
1, 330152, Note_off_c, 0, 60, 127
1, 330153, Note_on_c, 2, 62, 127
1, 330153, Note_on_c, 11, 58, 127
1, 330153, Note_on_c, 11, 70, 127
1, 330284, Note_off_c, 11, 70, 127
1, 330285, Note_on_c, 2, 74, 127
1, 330416, Note_off_c, 2, 74, 127
1, 330417, Note_on_c, 11, 70, 127
1, 330548, Note_off_c, 11, 70, 127
1, 330548, Note_off_c, 11, 58, 127
1, 330548, Note_off_c, 2, 62, 127
1, 330549, Note_on_c, 5, 53, 127
1, 330549, Note_on_c, 0, 60, 127
1, 330549, Note_on_c, 10, 69, 127
1, 330680, Note_off_c, 10, 69, 127
1, 330681, Note_on_c, 0, 72, 127
1, 330812, Note_off_c, 0, 72, 127
1, 330813, Note_on_c, 10, 69, 127
1, 330944, Note_off_c, 10, 69, 127
1, 330944, Note_off_c, 0, 60, 127
1, 330944, Note_off_c, 5, 53, 127
1, 330945, Note_on_c, 11, 46, 127
1, 330945, Note_on_c, 11, 58, 127
1, 330945, Note_on_c, 11, 70, 127
1, 331076, Note_off_c, 11, 70, 127
1, 331077, Note_on_c, 2, 74, 127
1, 331208, Note_off_c, 2, 74, 127
1, 331209, Note_on_c, 11, 70, 127
1, 331340, Note_off_c, 11, 70, 127
1, 331340, Note_off_c, 11, 58, 127
1, 331340, Note_off_c, 11, 46, 127
1, 331341, Note_on_c, 5, 53, 127
1, 331341, Note_on_c, 0, 60, 127
1, 331341, Note_on_c, 10, 69, 127
1, 331472, Note_off_c, 10, 69, 127
1, 331473, Note_on_c, 0, 72, 127
1, 331604, Note_off_c, 0, 72, 127
1, 331605, Note_on_c, 10, 69, 127
1, 331736, Note_off_c, 10, 69, 127
1, 331736, Note_off_c, 0, 60, 127
1, 331736, Note_off_c, 5, 53, 127
1, 331737, Note_on_c, 5, 53, 127
1, 331737, Note_on_c, 2, 50, 127
1, 331737, Note_on_c, 11, 58, 127
1, 331737, Note_on_c, 11, 70, 127
1, 331868, Note_off_c, 11, 70, 127
1, 331869, Note_on_c, 0, 72, 127
1, 332000, Note_off_c, 0, 72, 127
1, 332001, Note_on_c, 2, 74, 127
1, 332132, Note_off_c, 2, 74, 127
1, 332132, Note_off_c, 11, 58, 127
1, 332132, Note_off_c, 2, 50, 127
1, 332132, Note_off_c, 5, 53, 127
1, 332133, Note_on_c, 7, 55, 127
1, 332133, Note_on_c, 3, 51, 127
1, 332133, Note_on_c, 0, 60, 127
1, 332133, Note_on_c, 0, 72, 127
1, 332264, Note_off_c, 0, 72, 127
1, 332265, Note_on_c, 2, 74, 127
1, 332396, Note_off_c, 2, 74, 127
1, 332397, Note_on_c, 11, 70, 127
1, 332528, Note_off_c, 11, 70, 127
1, 332528, Note_off_c, 0, 60, 127
1, 332528, Note_off_c, 3, 51, 127
1, 332528, Note_off_c, 7, 55, 127
1, 332529, Note_on_c, 5, 53, 127
1, 332529, Note_on_c, 0, 60, 127
1, 332529, Note_on_c, 10, 69, 127
1, 332660, Note_off_c, 10, 69, 127
1, 332661, Note_on_c, 7, 67, 127
1, 332792, Note_off_c, 7, 67, 127
1, 332793, Note_on_c, 5, 65, 127
1, 332924, Note_off_c, 5, 65, 127
1, 332924, Note_off_c, 0, 60, 127
1, 332925, Note_on_c, 12, 47, 127
1, 333055, Note_off_c, 5, 53, 127
1, 333057, Note_on_c, 3, 51, 127
1, 333188, Note_off_c, 3, 51, 127
1, 333188, Note_off_c, 12, 47, 127
1, 333189, Note_on_c, 2, 50, 127
1, 333320, Note_off_c, 2, 50, 127
1, 333321, Note_on_c, 0, 48, 127
1, 333321, Note_on_c, 3, 51, 127
1, 333321, Note_on_c, 7, 55, 127
1, 333321, Note_on_c, 0, 72, 127
1, 333452, Note_off_c, 0, 72, 127
1, 333453, Note_on_c, 3, 75, 127
1, 333584, Note_off_c, 3, 75, 127
1, 333585, Note_on_c, 0, 72, 127
1, 333716, Note_off_c, 0, 72, 127
1, 333716, Note_off_c, 7, 55, 127
1, 333716, Note_off_c, 3, 51, 127
1, 333716, Note_off_c, 0, 48, 127
1, 333717, Note_on_c, 7, 43, 127
1, 333717, Note_on_c, 2, 50, 127
1, 333717, Note_on_c, 12, 71, 127
1, 333848, Note_off_c, 12, 71, 127
1, 333849, Note_on_c, 2, 74, 127
1, 333980, Note_off_c, 2, 74, 127
1, 333981, Note_on_c, 12, 71, 127
1, 334112, Note_off_c, 12, 71, 127
1, 334112, Note_off_c, 2, 50, 127
1, 334112, Note_off_c, 7, 43, 127
1, 334113, Note_on_c, 0, 48, 127
1, 334113, Note_on_c, 0, 36, 127
1, 334113, Note_on_c, 0, 72, 127
1, 334244, Note_off_c, 0, 72, 127
1, 334245, Note_on_c, 3, 75, 127
1, 334376, Note_off_c, 3, 75, 127
1, 334377, Note_on_c, 0, 72, 127
1, 334508, Note_off_c, 0, 72, 127
1, 334508, Note_off_c, 0, 36, 127
1, 334508, Note_off_c, 0, 48, 127
1, 334509, Note_on_c, 2, 50, 127
1, 334509, Note_on_c, 7, 43, 127
1, 334509, Note_on_c, 12, 71, 127
1, 334640, Note_off_c, 12, 71, 127
1, 334641, Note_on_c, 2, 74, 127
1, 334772, Note_off_c, 2, 74, 127
1, 334773, Note_on_c, 12, 71, 127
1, 334904, Note_off_c, 12, 71, 127
1, 334904, Note_off_c, 7, 43, 127
1, 334904, Note_off_c, 2, 50, 127
1, 334905, Note_on_c, 3, 51, 127
1, 334905, Note_on_c, 0, 48, 127
1, 334905, Note_on_c, 0, 72, 127
1, 335036, Note_off_c, 0, 72, 127
1, 335037, Note_on_c, 3, 75, 127
1, 335168, Note_off_c, 3, 75, 127
1, 335169, Note_on_c, 0, 72, 127
1, 335300, Note_off_c, 0, 72, 127
1, 335300, Note_off_c, 0, 48, 127
1, 335300, Note_off_c, 3, 51, 127
1, 335301, Note_on_c, 2, 50, 127
1, 335301, Note_on_c, 5, 53, 127
1, 335301, Note_on_c, 12, 71, 127
1, 335432, Note_off_c, 12, 71, 127
1, 335433, Note_on_c, 2, 74, 127
1, 335564, Note_off_c, 2, 74, 127
1, 335565, Note_on_c, 12, 71, 127
1, 335696, Note_off_c, 12, 71, 127
1, 335696, Note_off_c, 5, 53, 127
1, 335696, Note_off_c, 2, 50, 127
1, 335697, Note_on_c, 7, 55, 127
1, 335697, Note_on_c, 3, 51, 127
1, 335697, Note_on_c, 0, 72, 127
1, 335828, Note_off_c, 0, 72, 127
1, 335829, Note_on_c, 2, 74, 127
1, 335960, Note_off_c, 2, 74, 127
1, 335961, Note_on_c, 3, 75, 127
1, 336092, Note_off_c, 3, 75, 127
1, 336092, Note_off_c, 3, 51, 127
1, 336092, Note_off_c, 7, 55, 127
1, 336093, Note_on_c, 5, 53, 127
1, 336093, Note_on_c, 8, 56, 127
1, 336093, Note_on_c, 2, 74, 127
1, 336224, Note_off_c, 2, 74, 127
1, 336225, Note_on_c, 3, 75, 127
1, 336356, Note_off_c, 3, 75, 127
1, 336357, Note_on_c, 0, 72, 127
1, 336488, Note_off_c, 0, 72, 127
1, 336488, Note_off_c, 8, 56, 127
1, 336488, Note_off_c, 5, 53, 127
1, 336489, Note_on_c, 7, 55, 127
1, 336489, Note_on_c, 12, 71, 127
1, 336620, Note_off_c, 12, 71, 127
1, 336621, Note_on_c, 10, 69, 127
1, 336752, Note_off_c, 10, 69, 127
1, 336753, Note_on_c, 7, 43, 127
1, 336753, Note_on_c, 7, 67, 127
1, 336881, Note_off_c, 7, 55, 127
1, 336884, Note_off_c, 7, 67, 127
1, 336884, Note_off_c, 7, 43, 127
1, 336885, Note_on_c, 12, 59, 127
1, 337016, Note_off_c, 12, 59, 127
1, 337021, Note_on_c, 10, 57, 127
1, 337152, Note_off_c, 10, 57, 127
1, 337157, Note_on_c, 7, 55, 127
1, 337288, Note_off_c, 7, 55, 127
1, 337297, Note_on_c, 7, 79, 127
1, 337297, Note_on_c, 0, 60, 127
1, 337297, Note_on_c, 3, 63, 127
1, 337428, Note_off_c, 7, 79, 127
1, 337429, Note_on_c, 0, 72, 127
1, 337561, Note_on_c, 7, 79, 127
1, 337584, Note_off_c, 0, 72, 127
1, 337693, Note_off_c, 7, 79, 127
1, 337693, Note_off_c, 3, 63, 127
1, 337693, Note_off_c, 0, 60, 127
1, 337694, Note_on_c, 8, 80, 127
1, 337694, Note_on_c, 12, 59, 127
1, 337694, Note_on_c, 5, 65, 127
1, 337694, Note_on_c, 2, 62, 127
1, 337826, Note_on_c, 5, 77, 127
1, 337849, Note_off_c, 8, 80, 127
1, 337958, Note_off_c, 5, 77, 127
1, 337959, Note_on_c, 8, 80, 127
1, 338090, Note_off_c, 8, 80, 127
1, 338090, Note_off_c, 2, 62, 127
1, 338090, Note_off_c, 5, 65, 127
1, 338090, Note_off_c, 12, 59, 127
1, 338091, Note_on_c, 7, 79, 127
1, 338091, Note_on_c, 3, 63, 127
1, 338091, Note_on_c, 0, 60, 127
1, 338222, Note_off_c, 7, 79, 127
1, 338223, Note_on_c, 0, 72, 127
1, 338355, Note_on_c, 7, 79, 127
1, 338378, Note_off_c, 0, 72, 127
1, 338487, Note_off_c, 7, 79, 127
1, 338487, Note_off_c, 0, 60, 127
1, 338487, Note_off_c, 3, 63, 127
1, 338488, Note_on_c, 8, 80, 127
1, 338488, Note_on_c, 5, 65, 127
1, 338488, Note_on_c, 2, 62, 127
1, 338488, Note_on_c, 12, 59, 127
1, 338620, Note_on_c, 5, 77, 127
1, 338643, Note_off_c, 8, 80, 127
1, 338752, Note_off_c, 5, 77, 127
1, 338753, Note_on_c, 8, 80, 127
1, 338884, Note_off_c, 8, 80, 127
1, 338884, Note_off_c, 12, 59, 127
1, 338884, Note_off_c, 2, 62, 127
1, 338884, Note_off_c, 5, 65, 127
1, 338885, Note_on_c, 7, 79, 127
1, 338885, Note_on_c, 3, 63, 127
1, 338885, Note_on_c, 0, 60, 127
1, 339016, Note_off_c, 7, 79, 127
1, 339017, Note_on_c, 5, 77, 127
1, 339148, Note_off_c, 5, 77, 127
1, 339149, Note_on_c, 3, 75, 127
1, 339280, Note_off_c, 3, 75, 127
1, 339280, Note_off_c, 0, 60, 127
1, 339280, Note_off_c, 3, 63, 127
1, 339281, Note_on_c, 2, 74, 127
1, 339281, Note_on_c, 7, 55, 127
1, 339281, Note_on_c, 3, 51, 127
1, 339412, Note_off_c, 2, 74, 127
1, 339413, Note_on_c, 3, 75, 127
1, 339544, Note_off_c, 3, 75, 127
1, 339545, Note_on_c, 0, 72, 127
1, 339676, Note_off_c, 0, 72, 127
1, 339676, Note_off_c, 3, 51, 127
1, 339676, Note_off_c, 7, 55, 127
1, 339677, Note_on_c, 1, 73, 127
1, 339677, Note_on_c, 8, 56, 127
1, 339677, Note_on_c, 5, 53, 127
1, 339808, Note_off_c, 1, 73, 127
1, 339809, Note_on_c, 3, 75, 127
1, 339940, Note_off_c, 3, 75, 127
1, 339941, Note_on_c, 5, 77, 127
1, 340072, Note_off_c, 5, 77, 127
1, 340072, Note_off_c, 5, 53, 127
1, 340072, Note_off_c, 8, 56, 127
1, 340073, Note_on_c, 1, 73, 127
1, 340073, Note_on_c, 5, 53, 127
1, 340073, Note_on_c, 8, 56, 127
1, 340204, Note_off_c, 1, 73, 127
1, 340205, Note_on_c, 3, 75, 127
1, 340336, Note_off_c, 3, 75, 127
1, 340337, Note_on_c, 0, 72, 127
1, 340468, Note_off_c, 0, 72, 127
1, 340468, Note_off_c, 8, 56, 127
1, 340468, Note_off_c, 5, 53, 127
1, 340469, Note_on_c, 12, 71, 127
1, 340469, Note_on_c, 7, 55, 127
1, 340469, Note_on_c, 5, 53, 127
1, 340600, Note_off_c, 12, 71, 127
1, 340601, Note_on_c, 10, 69, 127
1, 340732, Note_off_c, 10, 69, 127
1, 340733, Note_on_c, 7, 67, 127
1, 340864, Note_off_c, 7, 67, 127
1, 340864, Note_off_c, 5, 53, 127
1, 340864, Note_off_c, 7, 55, 127
1, 340865, Note_on_c, 0, 72, 127
1, 340865, Note_on_c, 7, 55, 127
1, 340865, Note_on_c, 3, 51, 127
1, 340996, Note_off_c, 0, 72, 127
1, 340997, Note_on_c, 3, 63, 127
1, 341128, Note_off_c, 3, 63, 127
1, 341129, Note_on_c, 0, 72, 127
1, 341260, Note_off_c, 0, 72, 127
1, 341260, Note_off_c, 3, 51, 127
1, 341260, Note_off_c, 7, 55, 127
1, 341261, Note_on_c, 5, 65, 127
1, 341261, Note_on_c, 5, 53, 127
1, 341261, Note_on_c, 8, 56, 127
1, 341392, Note_off_c, 5, 65, 127
1, 341393, Note_on_c, 0, 72, 127
1, 341524, Note_off_c, 0, 72, 127
1, 341525, Note_on_c, 2, 74, 127
1, 341656, Note_off_c, 2, 74, 127
1, 341656, Note_off_c, 8, 56, 127
1, 341656, Note_off_c, 5, 53, 127
1, 341657, Note_on_c, 7, 67, 127
1, 341657, Note_on_c, 7, 55, 127
1, 341788, Note_off_c, 7, 67, 127
1, 341789, Note_on_c, 0, 72, 127
1, 341920, Note_off_c, 0, 72, 127
1, 341921, Note_on_c, 12, 71, 127
1, 342052, Note_off_c, 12, 71, 127
1, 342052, Note_off_c, 7, 55, 127
1, 342053, Note_on_c, 0, 72, 127
1, 342053, Note_on_c, 3, 63, 127
1, 342053, Note_on_c, 0, 48, 127
1, 342184, Note_off_c, 0, 48, 127
1, 342185, Note_on_c, 3, 51, 127
1, 342316, Note_off_c, 3, 51, 127
1, 342317, Note_on_c, 7, 55, 127
1, 342445, Note_off_c, 3, 63, 127
1, 342448, Note_off_c, 7, 55, 127
1, 342449, Note_on_c, 0, 60, 127
1, 342569, Note_off_c, 0, 72, 127
1, 342580, Note_off_c, 0, 60, 127
1, 342581, Note_on_c, 0, 72, 127
1, 342581, Note_on_c, 11, 58, 127
1, 342712, Note_off_c, 11, 58, 127
1, 342712, Note_off_c, 0, 72, 127
1, 342713, Note_on_c, 2, 74, 127
1, 342713, Note_on_c, 10, 57, 127
1, 342844, Note_off_c, 10, 57, 127
1, 342844, Note_off_c, 2, 74, 127
1, 342845, Note_on_c, 3, 75, 127
1, 342845, Note_on_c, 7, 55, 127
1, 342845, Note_on_c, 11, 58, 127
1, 342976, Note_off_c, 3, 75, 127
1, 342977, Note_on_c, 5, 77, 127
1, 343108, Note_off_c, 5, 77, 127
1, 343109, Note_on_c, 7, 79, 127
1, 343240, Note_off_c, 7, 79, 127
1, 343240, Note_off_c, 11, 58, 127
1, 343240, Note_off_c, 7, 55, 127
1, 343241, Note_on_c, 7, 79, 127
1, 343241, Note_on_c, 3, 63, 127
1, 343241, Note_on_c, 7, 55, 127
1, 343241, Note_on_c, 11, 58, 127
1, 343372, Note_off_c, 7, 79, 127
1, 343373, Note_on_c, 10, 81, 127
1, 343504, Note_off_c, 10, 81, 127
1, 343505, Note_on_c, 11, 82, 127
1, 343636, Note_off_c, 11, 82, 127
1, 343636, Note_off_c, 11, 58, 127
1, 343636, Note_off_c, 7, 55, 127
1, 343636, Note_off_c, 3, 63, 127
1, 343637, Note_on_c, 1, 73, 127
1, 343637, Note_on_c, 7, 55, 127
1, 343637, Note_on_c, 10, 57, 127
1, 343637, Note_on_c, 4, 64, 127
1, 343768, Note_off_c, 1, 73, 127
1, 343769, Note_on_c, 12, 71, 127
1, 343900, Note_off_c, 12, 71, 127
1, 343901, Note_on_c, 10, 69, 127
1, 344032, Note_off_c, 10, 69, 127
1, 344032, Note_off_c, 4, 64, 127
1, 344032, Note_off_c, 10, 57, 127
1, 344032, Note_off_c, 7, 55, 127
1, 344033, Note_on_c, 2, 74, 127
1, 344033, Note_on_c, 10, 57, 127
1, 344033, Note_on_c, 2, 62, 127
1, 344033, Note_on_c, 5, 53, 127
1, 344164, Note_off_c, 2, 74, 127
1, 344165, Note_on_c, 5, 65, 127
1, 344296, Note_off_c, 5, 65, 127
1, 344297, Note_on_c, 2, 74, 127
1, 344428, Note_off_c, 2, 74, 127
1, 344428, Note_off_c, 5, 53, 127
1, 344428, Note_off_c, 2, 62, 127
1, 344428, Note_off_c, 10, 57, 127
1, 344429, Note_on_c, 7, 67, 127
1, 344429, Note_on_c, 4, 64, 127
1, 344429, Note_on_c, 11, 58, 127
1, 344429, Note_on_c, 7, 55, 127
1, 344560, Note_off_c, 7, 67, 127
1, 344561, Note_on_c, 2, 74, 127
1, 344692, Note_off_c, 2, 74, 127
1, 344693, Note_on_c, 4, 76, 127
1, 344824, Note_off_c, 4, 76, 127
1, 344824, Note_off_c, 7, 55, 127
1, 344824, Note_off_c, 11, 58, 127
1, 344824, Note_off_c, 4, 64, 127
1, 344825, Note_on_c, 4, 64, 127
1, 344825, Note_on_c, 10, 69, 127
1, 344825, Note_on_c, 10, 57, 127
1, 344956, Note_off_c, 10, 69, 127
1, 344957, Note_on_c, 2, 74, 127
1, 345088, Note_off_c, 2, 74, 127
1, 345089, Note_on_c, 1, 73, 127
1, 345220, Note_off_c, 1, 73, 127
1, 345220, Note_off_c, 10, 57, 127
1, 345220, Note_off_c, 4, 64, 127
1, 345221, Note_on_c, 2, 74, 127
1, 345221, Note_on_c, 5, 65, 127
1, 345221, Note_on_c, 2, 50, 127
1, 345352, Note_off_c, 2, 50, 127
1, 345353, Note_on_c, 5, 53, 127
1, 345484, Note_off_c, 5, 53, 127
1, 345485, Note_on_c, 10, 57, 127
1, 345613, Note_off_c, 5, 65, 127
1, 345616, Note_off_c, 10, 57, 127
1, 345617, Note_on_c, 2, 62, 127
1, 345732, Note_off_c, 2, 74, 127
1, 345749, Note_off_c, 2, 62, 127
1, 345750, Note_on_c, 2, 74, 127
1, 345750, Note_on_c, 0, 60, 127
1, 345881, Note_off_c, 0, 60, 127
1, 345881, Note_off_c, 2, 74, 127
1, 345882, Note_on_c, 4, 76, 127
1, 345882, Note_on_c, 11, 58, 127
1, 346013, Note_off_c, 11, 58, 127
1, 346013, Note_off_c, 4, 76, 127
1, 346014, Note_on_c, 6, 78, 127
1, 346014, Note_on_c, 10, 57, 127
1, 346014, Note_on_c, 0, 60, 127
1, 346145, Note_off_c, 6, 78, 127
1, 346146, Note_on_c, 7, 79, 127
1, 346277, Note_off_c, 7, 79, 127
1, 346278, Note_on_c, 10, 81, 127
1, 346409, Note_off_c, 10, 81, 127
1, 346409, Note_off_c, 0, 60, 127
1, 346409, Note_off_c, 10, 57, 127
1, 346410, Note_on_c, 6, 78, 127
1, 346410, Note_on_c, 2, 62, 127
1, 346410, Note_on_c, 0, 60, 127
1, 346541, Note_off_c, 6, 78, 127
1, 346545, Note_on_c, 4, 76, 127
1, 346676, Note_off_c, 4, 76, 127
1, 346681, Note_on_c, 2, 74, 127
1, 346805, Note_off_c, 0, 60, 127
1, 346805, Note_off_c, 2, 62, 127
1, 346812, Note_off_c, 2, 74, 127
1, 346822, Note_on_c, 2, 62, 127
1, 346822, Note_on_c, 11, 58, 127
1, 346822, Note_on_c, 7, 79, 127
1, 346953, Note_off_c, 7, 79, 127
1, 346954, Note_on_c, 11, 82, 127
1, 347085, Note_off_c, 11, 82, 127
1, 347086, Note_on_c, 7, 79, 127
1, 347217, Note_off_c, 7, 79, 127
1, 347217, Note_off_c, 11, 58, 127
1, 347217, Note_off_c, 2, 62, 127
1, 347218, Note_on_c, 0, 60, 127
1, 347218, Note_on_c, 10, 57, 127
1, 347218, Note_on_c, 6, 78, 127
1, 347349, Note_off_c, 6, 78, 127
1, 347350, Note_on_c, 10, 81, 127
1, 347481, Note_off_c, 10, 81, 127
1, 347482, Note_on_c, 6, 78, 127
1, 347613, Note_off_c, 6, 78, 127
1, 347613, Note_off_c, 10, 57, 127
1, 347613, Note_off_c, 0, 60, 127
1, 347614, Note_on_c, 11, 58, 127
1, 347614, Note_on_c, 7, 55, 127
1, 347614, Note_on_c, 7, 79, 127
1, 347745, Note_off_c, 7, 79, 127
1, 347746, Note_on_c, 11, 82, 127
1, 347877, Note_off_c, 11, 82, 127
1, 347878, Note_on_c, 7, 79, 127
1, 348009, Note_off_c, 7, 79, 127
1, 348009, Note_off_c, 7, 55, 127
1, 348009, Note_off_c, 11, 58, 127
1, 348010, Note_on_c, 2, 50, 127
1, 348010, Note_on_c, 10, 57, 127
1, 348010, Note_on_c, 6, 78, 127
1, 348141, Note_off_c, 6, 78, 127
1, 348142, Note_on_c, 10, 81, 127
1, 348273, Note_off_c, 10, 81, 127
1, 348274, Note_on_c, 6, 78, 127
1, 348405, Note_off_c, 6, 78, 127
1, 348405, Note_off_c, 10, 57, 127
1, 348405, Note_off_c, 2, 50, 127
1, 348406, Note_on_c, 7, 43, 127
1, 348406, Note_on_c, 7, 55, 127
1, 348406, Note_on_c, 7, 79, 127
1, 348537, Note_off_c, 7, 79, 127
1, 348538, Note_on_c, 11, 82, 127
1, 348669, Note_off_c, 11, 82, 127
1, 348670, Note_on_c, 7, 79, 127
1, 348801, Note_off_c, 7, 79, 127
1, 348801, Note_off_c, 7, 55, 127
1, 348801, Note_off_c, 7, 43, 127
1, 348802, Note_on_c, 2, 50, 127
1, 348802, Note_on_c, 10, 57, 127
1, 348802, Note_on_c, 6, 78, 127
1, 348933, Note_off_c, 6, 78, 127
1, 348934, Note_on_c, 10, 81, 127
1, 349065, Note_off_c, 10, 81, 127
1, 349066, Note_on_c, 6, 78, 127
1, 349197, Note_off_c, 6, 78, 127
1, 349197, Note_off_c, 10, 57, 127
1, 349197, Note_off_c, 2, 50, 127
1, 349198, Note_on_c, 11, 46, 127
1, 349198, Note_on_c, 7, 55, 127
1, 349198, Note_on_c, 2, 50, 127
1, 349198, Note_on_c, 7, 79, 127
1, 349329, Note_off_c, 7, 79, 127
1, 349330, Note_on_c, 10, 81, 127
1, 349461, Note_off_c, 10, 81, 127
1, 349462, Note_on_c, 11, 82, 127
1, 349593, Note_off_c, 11, 82, 127
1, 349593, Note_off_c, 2, 50, 127
1, 349593, Note_off_c, 7, 55, 127
1, 349593, Note_off_c, 11, 46, 127
1, 349594, Note_on_c, 3, 51, 127
1, 349594, Note_on_c, 0, 48, 127
1, 349594, Note_on_c, 10, 57, 127
1, 349594, Note_on_c, 10, 81, 127
1, 349725, Note_off_c, 10, 81, 127
1, 349726, Note_on_c, 11, 82, 127
1, 349857, Note_off_c, 11, 82, 127
1, 349858, Note_on_c, 7, 79, 127
1, 349989, Note_off_c, 7, 79, 127
1, 349989, Note_off_c, 10, 57, 127
1, 349989, Note_off_c, 0, 48, 127
1, 349989, Note_off_c, 3, 51, 127
1, 349990, Note_on_c, 2, 50, 127
1, 349990, Note_on_c, 10, 57, 127
1, 349990, Note_on_c, 6, 78, 127
1, 350121, Note_off_c, 6, 78, 127
1, 350128, Note_on_c, 4, 76, 127
1, 350259, Note_off_c, 4, 76, 127
1, 350266, Note_on_c, 2, 74, 127
1, 350372, Note_off_c, 10, 57, 127
1, 350372, Note_off_c, 2, 50, 127
1, 350392, Note_off_c, 2, 74, 127
1, 350402, Note_on_c, 2, 74, 127
1, 350402, Note_on_c, 2, 50, 127
1, 350402, Note_on_c, 7, 55, 127
1, 350402, Note_on_c, 12, 47, 127
1, 350533, Note_off_c, 2, 74, 127
1, 350534, Note_on_c, 7, 79, 127
1, 350665, Note_off_c, 7, 79, 127
1, 350666, Note_on_c, 2, 74, 127
1, 350797, Note_off_c, 2, 74, 127
1, 350797, Note_off_c, 12, 47, 127
1, 350797, Note_off_c, 7, 55, 127
1, 350797, Note_off_c, 2, 50, 127
1, 350798, Note_on_c, 3, 75, 127
1, 350798, Note_on_c, 7, 55, 127
1, 350798, Note_on_c, 0, 48, 127
1, 350929, Note_off_c, 3, 75, 127
1, 350930, Note_on_c, 7, 79, 127
1, 351061, Note_off_c, 7, 79, 127
1, 351062, Note_on_c, 3, 75, 127
1, 351193, Note_off_c, 3, 75, 127
1, 351193, Note_off_c, 0, 48, 127
1, 351193, Note_off_c, 7, 55, 127
1, 351194, Note_on_c, 0, 72, 127
1, 351194, Note_on_c, 0, 48, 127
1, 351194, Note_on_c, 5, 53, 127
1, 351194, Note_on_c, 10, 45, 127
1, 351325, Note_off_c, 0, 72, 127
1, 351326, Note_on_c, 5, 77, 127
1, 351457, Note_off_c, 5, 77, 127
1, 351458, Note_on_c, 0, 72, 127
1, 351589, Note_off_c, 0, 72, 127
1, 351589, Note_off_c, 10, 45, 127
1, 351589, Note_off_c, 5, 53, 127
1, 351589, Note_off_c, 0, 48, 127
1, 351590, Note_on_c, 2, 74, 127
1, 351590, Note_on_c, 11, 46, 127
1, 351590, Note_on_c, 5, 53, 127
1, 351721, Note_off_c, 2, 74, 127
1, 351722, Note_on_c, 5, 77, 127
1, 351853, Note_off_c, 5, 77, 127
1, 351854, Note_on_c, 2, 74, 127
1, 351985, Note_off_c, 2, 74, 127
1, 351985, Note_off_c, 5, 53, 127
1, 351985, Note_off_c, 11, 46, 127
1, 351986, Note_on_c, 11, 70, 127
1, 351986, Note_on_c, 7, 55, 127
1, 351986, Note_on_c, 11, 58, 127
1, 352117, Note_off_c, 11, 70, 127
1, 352118, Note_on_c, 3, 75, 127
1, 352249, Note_off_c, 3, 75, 127
1, 352250, Note_on_c, 11, 70, 127
1, 352381, Note_off_c, 11, 70, 127
1, 352381, Note_off_c, 11, 58, 127
1, 352381, Note_off_c, 7, 55, 127
1, 352382, Note_on_c, 0, 72, 127
1, 352382, Note_on_c, 3, 63, 127
1, 352382, Note_on_c, 7, 55, 127
1, 352382, Note_on_c, 10, 57, 127
1, 352513, Note_off_c, 0, 72, 127
1, 352514, Note_on_c, 3, 75, 127
1, 352645, Note_off_c, 3, 75, 127
1, 352646, Note_on_c, 0, 72, 127
1, 352777, Note_off_c, 0, 72, 127
1, 352777, Note_off_c, 10, 57, 127
1, 352777, Note_off_c, 7, 55, 127
1, 352777, Note_off_c, 3, 63, 127
1, 352778, Note_on_c, 10, 69, 127
1, 352778, Note_on_c, 2, 62, 127
1, 352778, Note_on_c, 6, 54, 127
1, 352778, Note_on_c, 10, 57, 127
1, 352909, Note_off_c, 10, 69, 127
1, 352910, Note_on_c, 2, 74, 127
1, 353041, Note_off_c, 2, 74, 127
1, 353042, Note_on_c, 10, 69, 127
1, 353173, Note_off_c, 10, 69, 127
1, 353173, Note_off_c, 10, 57, 127
1, 353173, Note_off_c, 6, 54, 127
1, 353173, Note_off_c, 2, 62, 127
1, 353174, Note_on_c, 11, 70, 127
1, 353174, Note_on_c, 2, 62, 127
1, 353174, Note_on_c, 7, 55, 127
1, 353305, Note_off_c, 11, 70, 127
1, 353306, Note_on_c, 7, 67, 127
1, 353437, Note_off_c, 7, 67, 127
1, 353438, Note_on_c, 11, 70, 127
1, 353569, Note_off_c, 11, 70, 127
1, 353569, Note_off_c, 7, 55, 127
1, 353569, Note_off_c, 2, 62, 127
1, 353570, Note_on_c, 2, 74, 127
1, 353570, Note_on_c, 7, 55, 127
1, 353570, Note_on_c, 2, 50, 127
1, 353570, Note_on_c, 11, 46, 127
1, 353701, Note_off_c, 2, 74, 127
1, 353702, Note_on_c, 7, 79, 127
1, 353833, Note_off_c, 7, 79, 127
1, 353834, Note_on_c, 2, 74, 127
1, 353965, Note_off_c, 2, 74, 127
1, 353965, Note_off_c, 11, 46, 127
1, 353965, Note_off_c, 2, 50, 127
1, 353965, Note_off_c, 7, 55, 127
1, 353966, Note_on_c, 3, 75, 127
1, 353966, Note_on_c, 7, 55, 127
1, 353966, Note_on_c, 0, 60, 127
1, 353966, Note_on_c, 0, 48, 127
1, 354097, Note_off_c, 3, 75, 127
1, 354098, Note_on_c, 0, 72, 127
1, 354229, Note_off_c, 0, 72, 127
1, 354230, Note_on_c, 7, 79, 127
1, 354361, Note_off_c, 7, 79, 127
1, 354361, Note_off_c, 0, 48, 127
1, 354361, Note_off_c, 0, 60, 127
1, 354361, Note_off_c, 7, 55, 127
1, 354362, Note_on_c, 10, 81, 127
1, 354362, Note_on_c, 10, 57, 127
1, 354362, Note_on_c, 1, 49, 127
1, 354362, Note_on_c, 4, 52, 127
1, 354493, Note_off_c, 10, 81, 127
1, 354494, Note_on_c, 4, 76, 127
1, 354625, Note_off_c, 4, 76, 127
1, 354626, Note_on_c, 10, 81, 127
1, 354757, Note_off_c, 10, 81, 127
1, 354757, Note_off_c, 4, 52, 127
1, 354757, Note_off_c, 1, 49, 127
1, 354757, Note_off_c, 10, 57, 127
1, 354758, Note_on_c, 6, 78, 127
1, 354758, Note_on_c, 2, 62, 127
1, 354758, Note_on_c, 2, 50, 127
1, 354758, Note_on_c, 10, 57, 127
1, 354889, Note_off_c, 6, 78, 127
1, 354890, Note_on_c, 2, 74, 127
1, 355021, Note_off_c, 2, 74, 127
1, 355022, Note_on_c, 6, 78, 127
1, 355153, Note_off_c, 6, 78, 127
1, 355153, Note_off_c, 10, 57, 127
1, 355153, Note_off_c, 2, 50, 127
1, 355153, Note_off_c, 2, 62, 127
1, 355154, Note_on_c, 7, 79, 127
1, 355154, Note_on_c, 11, 58, 127
1, 355154, Note_on_c, 11, 46, 127
1, 355154, Note_on_c, 2, 50, 127
1, 355285, Note_off_c, 7, 79, 127
1, 355286, Note_on_c, 2, 74, 127
1, 355417, Note_off_c, 2, 74, 127
1, 355418, Note_on_c, 7, 79, 127
1, 355549, Note_off_c, 7, 79, 127
1, 355549, Note_off_c, 2, 50, 127
1, 355549, Note_off_c, 11, 46, 127
1, 355549, Note_off_c, 11, 58, 127
1, 355550, Note_on_c, 0, 72, 127
1, 355550, Note_on_c, 10, 57, 127
1, 355550, Note_on_c, 0, 48, 127
1, 355550, Note_on_c, 3, 51, 127
1, 355681, Note_off_c, 0, 72, 127
1, 355682, Note_on_c, 7, 79, 127
1, 355813, Note_off_c, 7, 79, 127
1, 355814, Note_on_c, 10, 81, 127
1, 355945, Note_off_c, 10, 81, 127
1, 355945, Note_off_c, 3, 51, 127
1, 355945, Note_off_c, 0, 48, 127
1, 355945, Note_off_c, 10, 57, 127
1, 355946, Note_on_c, 2, 74, 127
1, 355946, Note_on_c, 2, 50, 127
1, 355946, Note_on_c, 10, 57, 127
1, 356077, Note_off_c, 2, 74, 127
1, 356078, Note_on_c, 7, 79, 127
1, 356209, Note_off_c, 7, 79, 127
1, 356216, Note_on_c, 6, 78, 127
1, 356334, Note_off_c, 10, 57, 127
1, 356334, Note_off_c, 2, 50, 127
1, 356351, Note_off_c, 6, 78, 127
1, 356358, Note_on_c, 7, 55, 127
1, 356358, Note_on_c, 2, 50, 127
1, 356358, Note_on_c, 7, 43, 127
1, 356358, Note_on_c, 7, 79, 127
1, 356490, Note_on_c, 11, 82, 127
1, 356621, Note_off_c, 11, 82, 127
1, 356621, Note_off_c, 7, 79, 127
1, 356622, Note_on_c, 7, 79, 127
1, 356753, Note_off_c, 7, 79, 127
1, 356753, Note_off_c, 7, 43, 127
1, 356753, Note_off_c, 2, 50, 127
1, 356753, Note_off_c, 7, 55, 127
1, 356754, Note_on_c, 0, 48, 127
1, 356754, Note_on_c, 3, 51, 127
1, 356754, Note_on_c, 8, 80, 127
1, 356885, Note_off_c, 8, 80, 127
1, 356886, Note_on_c, 7, 79, 127
1, 357017, Note_off_c, 7, 79, 127
1, 357018, Note_on_c, 6, 78, 127
1, 357149, Note_off_c, 6, 78, 127
1, 357149, Note_off_c, 3, 51, 127
1, 357149, Note_off_c, 0, 48, 127
1, 357150, Note_on_c, 11, 46, 127
1, 357150, Note_on_c, 2, 50, 127
1, 357150, Note_on_c, 7, 79, 127
1, 357282, Note_on_c, 11, 82, 127
1, 357413, Note_off_c, 11, 82, 127
1, 357413, Note_off_c, 7, 79, 127
1, 357414, Note_on_c, 7, 79, 127
1, 357545, Note_off_c, 7, 79, 127
1, 357545, Note_off_c, 2, 50, 127
1, 357545, Note_off_c, 11, 46, 127
1, 357546, Note_on_c, 3, 51, 127
1, 357546, Note_on_c, 0, 48, 127
1, 357546, Note_on_c, 8, 80, 127
1, 357677, Note_off_c, 8, 80, 127
1, 357678, Note_on_c, 7, 79, 127
1, 357809, Note_off_c, 7, 79, 127
1, 357810, Note_on_c, 6, 78, 127
1, 357941, Note_off_c, 6, 78, 127
1, 357941, Note_off_c, 0, 48, 127
1, 357941, Note_off_c, 3, 51, 127
1, 357942, Note_on_c, 11, 46, 127
1, 357942, Note_on_c, 2, 50, 127
1, 357942, Note_on_c, 7, 79, 127
1, 358073, Note_off_c, 7, 79, 127
1, 358074, Note_on_c, 2, 74, 127
1, 358205, Note_off_c, 2, 74, 127
1, 358206, Note_on_c, 7, 79, 127
1, 358337, Note_off_c, 2, 50, 127
1, 358337, Note_off_c, 11, 46, 127
1, 358338, Note_on_c, 2, 50, 127
1, 358338, Note_on_c, 10, 69, 127
1, 358469, Note_off_c, 10, 69, 127
1, 358469, Note_off_c, 7, 79, 127
1, 358470, Note_on_c, 7, 79, 127
1, 358601, Note_off_c, 7, 79, 127
1, 358602, Note_on_c, 6, 78, 127
1, 358733, Note_off_c, 6, 78, 127
1, 358733, Note_off_c, 2, 50, 127
1, 358734, Note_on_c, 7, 43, 127
1, 358734, Note_on_c, 7, 55, 127
1, 358734, Note_on_c, 7, 79, 127
1, 358865, Note_off_c, 7, 79, 127
1, 358866, Note_on_c, 11, 82, 127
1, 358997, Note_off_c, 11, 82, 127
1, 358998, Note_on_c, 7, 79, 127
1, 359129, Note_off_c, 7, 79, 127
1, 359129, Note_off_c, 7, 55, 127
1, 359129, Note_off_c, 7, 43, 127
1, 359130, Note_on_c, 7, 55, 127
1, 359130, Note_on_c, 7, 43, 127
1, 359130, Note_on_c, 2, 74, 127
1, 359261, Note_off_c, 2, 74, 127
1, 359262, Note_on_c, 7, 79, 127
1, 359393, Note_off_c, 7, 79, 127
1, 359394, Note_on_c, 2, 74, 127
1, 359525, Note_off_c, 2, 74, 127
1, 359525, Note_off_c, 7, 43, 127
1, 359525, Note_off_c, 7, 55, 127
1, 359526, Note_on_c, 7, 55, 127
1, 359526, Note_on_c, 7, 43, 127
1, 359526, Note_on_c, 11, 70, 127
1, 359657, Note_off_c, 11, 70, 127
1, 359658, Note_on_c, 2, 74, 127
1, 359789, Note_off_c, 2, 74, 127
1, 359790, Note_on_c, 11, 70, 127
1, 359921, Note_off_c, 11, 70, 127
1, 359921, Note_off_c, 7, 43, 127
1, 359921, Note_off_c, 7, 55, 127
1, 359922, Note_on_c, 7, 43, 127
1, 359922, Note_on_c, 7, 55, 127
1, 359922, Note_on_c, 7, 67, 127
1, 360053, Note_off_c, 7, 67, 127
1, 360054, Note_on_c, 11, 70, 127
1, 360185, Note_off_c, 11, 70, 127
1, 360186, Note_on_c, 7, 67, 127
1, 360317, Note_off_c, 7, 67, 127
1, 360317, Note_off_c, 7, 55, 127
1, 360317, Note_off_c, 7, 43, 127
1, 360318, Note_on_c, 7, 43, 127
1, 360318, Note_on_c, 7, 55, 127
1, 360318, Note_on_c, 2, 62, 127
1, 360449, Note_off_c, 2, 62, 127
1, 360450, Note_on_c, 7, 67, 127
1, 360581, Note_off_c, 7, 67, 127
1, 360582, Note_on_c, 2, 62, 127
1, 360713, Note_off_c, 2, 62, 127
1, 360713, Note_off_c, 7, 55, 127
1, 360713, Note_off_c, 7, 43, 127
1, 360714, Note_on_c, 7, 43, 127
1, 360714, Note_on_c, 7, 55, 127
1, 360714, Note_on_c, 7, 67, 127
1, 360845, Note_off_c, 7, 67, 127
1, 360846, Note_on_c, 11, 70, 127
1, 360977, Note_off_c, 11, 70, 127
1, 360978, Note_on_c, 7, 67, 127
1, 361109, Note_off_c, 7, 67, 127
1, 361109, Note_off_c, 7, 55, 127
1, 361109, Note_off_c, 7, 43, 127
1, 361110, Note_on_c, 7, 43, 127
1, 361110, Note_on_c, 7, 55, 127
1, 361110, Note_on_c, 2, 74, 127
1, 361241, Note_off_c, 2, 74, 127
1, 361242, Note_on_c, 7, 79, 127
1, 361373, Note_off_c, 7, 79, 127
1, 361374, Note_on_c, 2, 74, 127
1, 361505, Note_off_c, 2, 74, 127
1, 361505, Note_off_c, 7, 55, 127
1, 361505, Note_off_c, 7, 43, 127
1, 361506, Note_on_c, 7, 43, 127
1, 361506, Note_on_c, 7, 55, 127
1, 361506, Note_on_c, 11, 70, 127
1, 361637, Note_off_c, 11, 70, 127
1, 361638, Note_on_c, 7, 67, 127
1, 361769, Note_off_c, 7, 67, 127
1, 361770, Note_on_c, 2, 62, 127
1, 361901, Note_off_c, 2, 62, 127
1, 361901, Note_off_c, 7, 55, 127
1, 361901, Note_off_c, 7, 43, 127
1, 361902, Note_on_c, 7, 43, 127
1, 361902, Note_on_c, 7, 55, 127
1, 362033, Note_off_c, 7, 43, 127
1, 362034, Note_on_c, 11, 46, 127
1, 362165, Note_off_c, 11, 46, 127
1, 362166, Note_on_c, 2, 50, 127
1, 362294, Note_off_c, 7, 55, 127
1, 362297, Note_off_c, 2, 50, 127
1, 362299, Note_on_c, 7, 55, 127
1, 362442, Note_on_c, 5, 53, 127
1, 362443, Note_off_c, 7, 55, 127
1, 362573, Note_off_c, 5, 53, 127
1, 362576, Note_on_c, 3, 51, 127
1, 362707, Note_off_c, 3, 51, 127
1, 362710, Note_on_c, 11, 70, 127
1, 362710, Note_on_c, 2, 50, 127
1, 362841, Note_off_c, 2, 50, 127
1, 362842, Note_on_c, 2, 74, 127
1, 362842, Note_on_c, 11, 46, 127
1, 362958, Note_off_c, 11, 70, 127
1, 362974, Note_off_c, 11, 46, 127
1, 362974, Note_off_c, 2, 74, 127
1, 362975, Note_on_c, 11, 70, 127
1, 362975, Note_on_c, 2, 50, 127
1, 363106, Note_off_c, 2, 50, 127
1, 363106, Note_off_c, 11, 70, 127
1, 363107, Note_on_c, 10, 69, 127
1, 363107, Note_on_c, 5, 53, 127
1, 363238, Note_off_c, 5, 53, 127
1, 363238, Note_off_c, 10, 69, 127
1, 363239, Note_on_c, 0, 72, 127
1, 363239, Note_on_c, 5, 41, 127
1, 363370, Note_off_c, 5, 41, 127
1, 363370, Note_off_c, 0, 72, 127
1, 363371, Note_on_c, 10, 69, 127
1, 363371, Note_on_c, 5, 53, 127
1, 363502, Note_off_c, 5, 53, 127
1, 363502, Note_off_c, 10, 69, 127
1, 363503, Note_on_c, 11, 70, 127
1, 363503, Note_on_c, 2, 50, 127
1, 363634, Note_off_c, 2, 50, 127
1, 363635, Note_on_c, 2, 74, 127
1, 363635, Note_on_c, 11, 46, 127
1, 363751, Note_off_c, 11, 70, 127
1, 363767, Note_off_c, 11, 46, 127
1, 363767, Note_off_c, 2, 74, 127
1, 363768, Note_on_c, 11, 70, 127
1, 363768, Note_on_c, 2, 50, 127
1, 363899, Note_off_c, 2, 50, 127
1, 363899, Note_off_c, 11, 70, 127
1, 363900, Note_on_c, 10, 69, 127
1, 363900, Note_on_c, 5, 53, 127
1, 364031, Note_off_c, 5, 53, 127
1, 364031, Note_off_c, 10, 69, 127
1, 364032, Note_on_c, 0, 72, 127
1, 364032, Note_on_c, 5, 41, 127
1, 364163, Note_off_c, 5, 41, 127
1, 364163, Note_off_c, 0, 72, 127
1, 364164, Note_on_c, 10, 69, 127
1, 364164, Note_on_c, 5, 53, 127
1, 364295, Note_off_c, 5, 53, 127
1, 364295, Note_off_c, 10, 69, 127
1, 364296, Note_on_c, 11, 70, 127
1, 364296, Note_on_c, 2, 50, 127
1, 364427, Note_off_c, 2, 50, 127
1, 364428, Note_on_c, 2, 74, 127
1, 364428, Note_on_c, 11, 46, 127
1, 364544, Note_off_c, 11, 70, 127
1, 364560, Note_off_c, 11, 46, 127
1, 364560, Note_off_c, 2, 74, 127
1, 364561, Note_on_c, 11, 70, 127
1, 364561, Note_on_c, 2, 50, 127
1, 364692, Note_off_c, 2, 50, 127
1, 364692, Note_off_c, 11, 70, 127
1, 364693, Note_on_c, 10, 69, 127
1, 364693, Note_on_c, 5, 53, 127
1, 364824, Note_off_c, 5, 53, 127
1, 364824, Note_off_c, 10, 69, 127
1, 364825, Note_on_c, 0, 72, 127
1, 364825, Note_on_c, 5, 41, 127
1, 364956, Note_off_c, 5, 41, 127
1, 364956, Note_off_c, 0, 72, 127
1, 364957, Note_on_c, 10, 69, 127
1, 364957, Note_on_c, 5, 53, 127
1, 365088, Note_off_c, 5, 53, 127
1, 365088, Note_off_c, 10, 69, 127
1, 365089, Note_on_c, 11, 70, 127
1, 365089, Note_on_c, 2, 50, 127
1, 365220, Note_off_c, 2, 50, 127
1, 365220, Note_off_c, 11, 70, 127
1, 365221, Note_on_c, 0, 72, 127
1, 365221, Note_on_c, 0, 48, 127
1, 365352, Note_off_c, 0, 48, 127
1, 365352, Note_off_c, 0, 72, 127
1, 365353, Note_on_c, 2, 74, 127
1, 365353, Note_on_c, 11, 46, 127
1, 365484, Note_off_c, 11, 46, 127
1, 365484, Note_off_c, 2, 74, 127
1, 365485, Note_on_c, 0, 72, 127
1, 365485, Note_on_c, 3, 51, 127
1, 365616, Note_off_c, 3, 51, 127
1, 365616, Note_off_c, 0, 72, 127
1, 365617, Note_on_c, 2, 74, 127
1, 365617, Note_on_c, 5, 53, 127
1, 365748, Note_off_c, 5, 53, 127
1, 365748, Note_off_c, 2, 74, 127
1, 365749, Note_on_c, 11, 70, 127
1, 365749, Note_on_c, 7, 55, 127
1, 365880, Note_off_c, 7, 55, 127
1, 365880, Note_off_c, 11, 70, 127
1, 365881, Note_on_c, 10, 69, 127
1, 365881, Note_on_c, 5, 53, 127
1, 366012, Note_off_c, 10, 69, 127
1, 366013, Note_on_c, 7, 67, 127
1, 366144, Note_off_c, 7, 67, 127
1, 366145, Note_on_c, 5, 65, 127
1, 366145, Note_on_c, 5, 41, 127
1, 366273, Note_off_c, 5, 53, 127
1, 366276, Note_off_c, 5, 41, 127
1, 366277, Note_on_c, 5, 53, 127
1, 366408, Note_off_c, 5, 53, 127
1, 366408, Note_off_c, 5, 65, 127
1, 366409, Note_on_c, 3, 51, 127
1, 366540, Note_off_c, 3, 51, 127
1, 366541, Note_on_c, 2, 50, 127
1, 366672, Note_off_c, 2, 50, 127
1, 366673, Note_on_c, 0, 72, 127
1, 366673, Note_on_c, 3, 51, 127
1, 366804, Note_off_c, 3, 51, 127
1, 366805, Note_on_c, 3, 75, 127
1, 366805, Note_on_c, 0, 48, 127
1, 366936, Note_off_c, 0, 48, 127
1, 366936, Note_off_c, 3, 75, 127
1, 366936, Note_off_c, 0, 72, 127
1, 366937, Note_on_c, 0, 72, 127
1, 366937, Note_on_c, 3, 51, 127
1, 367068, Note_off_c, 3, 51, 127
1, 367068, Note_off_c, 0, 72, 127
1, 367069, Note_on_c, 12, 71, 127
1, 367069, Note_on_c, 7, 55, 127
1, 367200, Note_off_c, 7, 55, 127
1, 367200, Note_off_c, 12, 71, 127
1, 367201, Note_on_c, 2, 74, 127
1, 367201, Note_on_c, 7, 43, 127
1, 367332, Note_off_c, 7, 43, 127
1, 367332, Note_off_c, 2, 74, 127
1, 367333, Note_on_c, 12, 71, 127
1, 367333, Note_on_c, 7, 55, 127
1, 367464, Note_off_c, 7, 55, 127
1, 367464, Note_off_c, 12, 71, 127
1, 367465, Note_on_c, 0, 72, 127
1, 367465, Note_on_c, 3, 51, 127
1, 367596, Note_off_c, 3, 51, 127
1, 367597, Note_on_c, 3, 75, 127
1, 367597, Note_on_c, 0, 48, 127
1, 367728, Note_off_c, 0, 48, 127
1, 367728, Note_off_c, 3, 75, 127
1, 367728, Note_off_c, 0, 72, 127
1, 367729, Note_on_c, 0, 72, 127
1, 367729, Note_on_c, 3, 51, 127
1, 367860, Note_off_c, 3, 51, 127
1, 367860, Note_off_c, 0, 72, 127
1, 367861, Note_on_c, 12, 71, 127
1, 367861, Note_on_c, 7, 55, 127
1, 367992, Note_off_c, 7, 55, 127
1, 367992, Note_off_c, 12, 71, 127
1, 367993, Note_on_c, 2, 74, 127
1, 367993, Note_on_c, 7, 43, 127
1, 368124, Note_off_c, 7, 43, 127
1, 368124, Note_off_c, 2, 74, 127
1, 368125, Note_on_c, 12, 71, 127
1, 368125, Note_on_c, 7, 55, 127
1, 368256, Note_off_c, 7, 55, 127
1, 368256, Note_off_c, 12, 71, 127
1, 368257, Note_on_c, 0, 72, 127
1, 368257, Note_on_c, 3, 51, 127
1, 368388, Note_off_c, 3, 51, 127
1, 368389, Note_on_c, 3, 75, 127
1, 368389, Note_on_c, 0, 48, 127
1, 368520, Note_off_c, 0, 48, 127
1, 368520, Note_off_c, 3, 75, 127
1, 368520, Note_off_c, 0, 72, 127
1, 368521, Note_on_c, 0, 72, 127
1, 368521, Note_on_c, 3, 51, 127
1, 368652, Note_off_c, 3, 51, 127
1, 368652, Note_off_c, 0, 72, 127
1, 368653, Note_on_c, 12, 71, 127
1, 368653, Note_on_c, 7, 55, 127
1, 368784, Note_off_c, 7, 55, 127
1, 368784, Note_off_c, 12, 71, 127
1, 368785, Note_on_c, 2, 74, 127
1, 368785, Note_on_c, 7, 43, 127
1, 368916, Note_off_c, 7, 43, 127
1, 368916, Note_off_c, 2, 74, 127
1, 368917, Note_on_c, 12, 71, 127
1, 368917, Note_on_c, 7, 55, 127
1, 369048, Note_off_c, 7, 55, 127
1, 369048, Note_off_c, 12, 71, 127
1, 369049, Note_on_c, 0, 72, 127
1, 369049, Note_on_c, 3, 51, 127
1, 369180, Note_off_c, 3, 51, 127
1, 369180, Note_off_c, 0, 72, 127
1, 369181, Note_on_c, 2, 74, 127
1, 369181, Note_on_c, 2, 50, 127
1, 369312, Note_off_c, 2, 50, 127
1, 369312, Note_off_c, 2, 74, 127
1, 369313, Note_on_c, 3, 75, 127
1, 369313, Note_on_c, 0, 48, 127
1, 369444, Note_off_c, 0, 48, 127
1, 369444, Note_off_c, 3, 75, 127
1, 369445, Note_on_c, 2, 74, 127
1, 369445, Note_on_c, 5, 53, 127
1, 369576, Note_off_c, 5, 53, 127
1, 369576, Note_off_c, 2, 74, 127
1, 369577, Note_on_c, 3, 75, 127
1, 369577, Note_on_c, 7, 55, 127
1, 369708, Note_off_c, 7, 55, 127
1, 369708, Note_off_c, 3, 75, 127
1, 369709, Note_on_c, 0, 72, 127
1, 369709, Note_on_c, 8, 56, 127
1, 369840, Note_off_c, 8, 56, 127
1, 369840, Note_off_c, 0, 72, 127
1, 369841, Note_on_c, 12, 71, 127
1, 369841, Note_on_c, 7, 55, 127
1, 369972, Note_off_c, 12, 71, 127
1, 369973, Note_on_c, 10, 69, 127
1, 369973, Note_on_c, 7, 43, 127
1, 370047, Note_off_c, 7, 55, 127
1, 370104, Note_off_c, 7, 43, 127
1, 370104, Note_off_c, 10, 69, 127
1, 370105, Note_on_c, 7, 67, 127
1, 370105, Note_on_c, 10, 57, 127
1, 370236, Note_off_c, 10, 57, 127
1, 370237, Note_on_c, 12, 59, 127
1, 370368, Note_off_c, 12, 59, 127
1, 370368, Note_off_c, 7, 67, 127
1, 370369, Note_on_c, 10, 57, 127
1, 370500, Note_off_c, 10, 57, 127
1, 370501, Note_on_c, 7, 55, 127
1, 370632, Note_off_c, 7, 55, 127
1, 370633, Note_on_c, 7, 79, 127
1, 370633, Note_on_c, 0, 60, 127
1, 370764, Note_off_c, 0, 60, 127
1, 370765, Note_on_c, 0, 72, 127
1, 370765, Note_on_c, 3, 63, 127
1, 370896, Note_off_c, 3, 63, 127
1, 370896, Note_off_c, 0, 72, 127
1, 370896, Note_off_c, 7, 79, 127
1, 370897, Note_on_c, 7, 79, 127
1, 370897, Note_on_c, 0, 60, 127
1, 371028, Note_off_c, 0, 60, 127
1, 371028, Note_off_c, 7, 79, 127
1, 371029, Note_on_c, 8, 80, 127
1, 371029, Note_on_c, 12, 59, 127
1, 371160, Note_off_c, 12, 59, 127
1, 371161, Note_on_c, 5, 77, 127
1, 371161, Note_on_c, 2, 62, 127
1, 371292, Note_off_c, 2, 62, 127
1, 371292, Note_off_c, 5, 77, 127
1, 371292, Note_off_c, 8, 80, 127
1, 371293, Note_on_c, 8, 80, 127
1, 371293, Note_on_c, 12, 59, 127
1, 371424, Note_off_c, 12, 59, 127
1, 371424, Note_off_c, 8, 80, 127
1, 371425, Note_on_c, 7, 79, 127
1, 371425, Note_on_c, 0, 60, 127
1, 371556, Note_off_c, 0, 60, 127
1, 371557, Note_on_c, 0, 72, 127
1, 371557, Note_on_c, 3, 63, 127
1, 371688, Note_off_c, 3, 63, 127
1, 371688, Note_off_c, 0, 72, 127
1, 371688, Note_off_c, 7, 79, 127
1, 371689, Note_on_c, 7, 79, 127
1, 371689, Note_on_c, 0, 60, 127
1, 371820, Note_off_c, 0, 60, 127
1, 371820, Note_off_c, 7, 79, 127
1, 371821, Note_on_c, 8, 80, 127
1, 371821, Note_on_c, 12, 59, 127
1, 371952, Note_off_c, 12, 59, 127
1, 371953, Note_on_c, 5, 77, 127
1, 371953, Note_on_c, 2, 62, 127
1, 372084, Note_off_c, 2, 62, 127
1, 372084, Note_off_c, 5, 77, 127
1, 372084, Note_off_c, 8, 80, 127
1, 372085, Note_on_c, 8, 80, 127
1, 372085, Note_on_c, 12, 59, 127
1, 372216, Note_off_c, 12, 59, 127
1, 372216, Note_off_c, 8, 80, 127
1, 372217, Note_on_c, 7, 79, 127
1, 372217, Note_on_c, 0, 60, 127
1, 372348, Note_off_c, 7, 79, 127
1, 372349, Note_on_c, 5, 77, 127
1, 372349, Note_on_c, 0, 48, 127
1, 372382, Note_off_c, 0, 60, 127
1, 372480, Note_off_c, 0, 48, 127
1, 372480, Note_off_c, 5, 77, 127
1, 372481, Note_on_c, 3, 75, 127
1, 372481, Note_on_c, 11, 58, 127
1, 372612, Note_off_c, 11, 58, 127
1, 372612, Note_off_c, 3, 75, 127
1, 372613, Note_on_c, 2, 74, 127
1, 372613, Note_on_c, 8, 56, 127
1, 372744, Note_off_c, 2, 74, 127
1, 372745, Note_on_c, 3, 75, 127
1, 372745, Note_on_c, 0, 48, 127
1, 372778, Note_off_c, 8, 56, 127
1, 372876, Note_off_c, 0, 48, 127
1, 372876, Note_off_c, 3, 75, 127
1, 372877, Note_on_c, 0, 72, 127
1, 372877, Note_on_c, 7, 55, 127
1, 373008, Note_off_c, 7, 55, 127
1, 373008, Note_off_c, 0, 72, 127
1, 373009, Note_on_c, 1, 73, 127
1, 373009, Note_on_c, 5, 53, 127
1, 373140, Note_off_c, 5, 53, 127
1, 373140, Note_off_c, 1, 73, 127
1, 373141, Note_on_c, 3, 75, 127
1, 373141, Note_on_c, 7, 55, 127
1, 373272, Note_off_c, 7, 55, 127
1, 373272, Note_off_c, 3, 75, 127
1, 373273, Note_on_c, 5, 77, 127
1, 373273, Note_on_c, 8, 56, 127
1, 373404, Note_off_c, 8, 56, 127
1, 373404, Note_off_c, 5, 77, 127
1, 373405, Note_on_c, 1, 73, 127
1, 373405, Note_on_c, 5, 53, 127
1, 373536, Note_off_c, 5, 53, 127
1, 373536, Note_off_c, 1, 73, 127
1, 373537, Note_on_c, 3, 75, 127
1, 373537, Note_on_c, 3, 51, 127
1, 373668, Note_off_c, 3, 51, 127
1, 373668, Note_off_c, 3, 75, 127
1, 373669, Note_on_c, 0, 72, 127
1, 373669, Note_on_c, 2, 50, 127
1, 373800, Note_off_c, 2, 50, 127
1, 373800, Note_off_c, 0, 72, 127
1, 373801, Note_on_c, 12, 71, 127
1, 373801, Note_on_c, 7, 55, 127
1, 373932, Note_off_c, 12, 71, 127
1, 373933, Note_on_c, 10, 69, 127
1, 373933, Note_on_c, 7, 43, 127
1, 373966, Note_off_c, 7, 55, 127
1, 374064, Note_off_c, 7, 43, 127
1, 374064, Note_off_c, 10, 69, 127
1, 374065, Note_on_c, 7, 67, 127
1, 374065, Note_on_c, 5, 53, 127
1, 374196, Note_off_c, 5, 53, 127
1, 374196, Note_off_c, 7, 67, 127
1, 374197, Note_on_c, 0, 72, 127
1, 374197, Note_on_c, 3, 51, 127
1, 374328, Note_off_c, 3, 51, 127
1, 374329, Note_on_c, 3, 63, 127
1, 374329, Note_on_c, 0, 48, 127
1, 374403, Note_off_c, 0, 72, 127
1, 374460, Note_off_c, 0, 48, 127
1, 374460, Note_off_c, 3, 63, 127
1, 374461, Note_on_c, 0, 72, 127
1, 374461, Note_on_c, 3, 51, 127
1, 374592, Note_off_c, 3, 51, 127
1, 374592, Note_off_c, 0, 72, 127
1, 374593, Note_on_c, 5, 65, 127
1, 374593, Note_on_c, 8, 56, 127
1, 374724, Note_off_c, 8, 56, 127
1, 374725, Note_on_c, 0, 72, 127
1, 374725, Note_on_c, 7, 55, 127
1, 374799, Note_off_c, 5, 65, 127
1, 374856, Note_off_c, 7, 55, 127
1, 374856, Note_off_c, 0, 72, 127
1, 374857, Note_on_c, 2, 74, 127
1, 374857, Note_on_c, 5, 53, 127
1, 374988, Note_off_c, 5, 53, 127
1, 374988, Note_off_c, 2, 74, 127
1, 374989, Note_on_c, 7, 67, 127
1, 374989, Note_on_c, 7, 55, 127
1, 375120, Note_off_c, 7, 55, 127
1, 375121, Note_on_c, 0, 72, 127
1, 375121, Note_on_c, 5, 53, 127
1, 375195, Note_off_c, 7, 67, 127
1, 375252, Note_off_c, 5, 53, 127
1, 375252, Note_off_c, 0, 72, 127
1, 375253, Note_on_c, 12, 71, 127
1, 375253, Note_on_c, 7, 55, 127
1, 375384, Note_off_c, 7, 55, 127
1, 375384, Note_off_c, 12, 71, 127
1, 375385, Note_on_c, 0, 72, 127
1, 375385, Note_on_c, 0, 48, 127
1, 375517, Note_on_c, 0, 60, 127
1, 375648, Note_off_c, 0, 60, 127
1, 375648, Note_off_c, 0, 48, 127
1, 375659, Note_on_c, 11, 58, 127
1, 375777, Note_off_c, 0, 72, 127
1, 375790, Note_off_c, 11, 58, 127
1, 375794, Note_on_c, 8, 56, 127
1, 375925, Note_off_c, 8, 56, 127
1, 375929, Note_on_c, 7, 55, 127
1, 375929, Note_on_c, 0, 72, 127
1, 376060, Note_off_c, 0, 72, 127
1, 376060, Note_off_c, 7, 55, 127
1, 376061, Note_on_c, 5, 53, 127
1, 376061, Note_on_c, 2, 74, 127
1, 376192, Note_off_c, 2, 74, 127
1, 376192, Note_off_c, 5, 53, 127
1, 376193, Note_on_c, 3, 51, 127
1, 376193, Note_on_c, 3, 75, 127
1, 376324, Note_off_c, 3, 75, 127
1, 376324, Note_off_c, 3, 51, 127
1, 376325, Note_on_c, 2, 50, 127
1, 376325, Note_on_c, 5, 77, 127
1, 376456, Note_off_c, 5, 77, 127
1, 376456, Note_off_c, 2, 50, 127
1, 376457, Note_on_c, 0, 48, 127
1, 376457, Note_on_c, 7, 79, 127
1, 376588, Note_off_c, 7, 79, 127
1, 376588, Note_off_c, 0, 48, 127
1, 376589, Note_on_c, 11, 46, 127
1, 376589, Note_on_c, 7, 79, 127
1, 376720, Note_off_c, 7, 79, 127
1, 376720, Note_off_c, 11, 46, 127
1, 376721, Note_on_c, 10, 45, 127
1, 376721, Note_on_c, 10, 81, 127
1, 376852, Note_off_c, 10, 81, 127
1, 376852, Note_off_c, 10, 45, 127
1, 376853, Note_on_c, 7, 43, 127
1, 376853, Note_on_c, 11, 82, 127
1, 376984, Note_off_c, 11, 82, 127
1, 376984, Note_off_c, 7, 43, 127
1, 376985, Note_on_c, 10, 45, 127
1, 376985, Note_on_c, 1, 73, 127
1, 377116, Note_off_c, 1, 73, 127
1, 377117, Note_on_c, 10, 57, 127
1, 377117, Note_on_c, 12, 71, 127
1, 377129, Note_off_c, 10, 45, 127
1, 377248, Note_off_c, 12, 71, 127
1, 377248, Note_off_c, 10, 57, 127
1, 377249, Note_on_c, 7, 55, 127
1, 377249, Note_on_c, 10, 69, 127
1, 377380, Note_off_c, 10, 69, 127
1, 377380, Note_off_c, 7, 55, 127
1, 377381, Note_on_c, 5, 53, 127
1, 377381, Note_on_c, 2, 74, 127
1, 377512, Note_off_c, 5, 53, 127
1, 377513, Note_on_c, 2, 50, 127
1, 377513, Note_on_c, 5, 65, 127
1, 377644, Note_off_c, 5, 65, 127
1, 377644, Note_off_c, 2, 50, 127
1, 377644, Note_off_c, 2, 74, 127
1, 377645, Note_on_c, 5, 53, 127
1, 377645, Note_on_c, 2, 74, 127
1, 377776, Note_off_c, 5, 53, 127
1, 377777, Note_on_c, 11, 58, 127
1, 377777, Note_on_c, 7, 67, 127
1, 377908, Note_off_c, 7, 67, 127
1, 377908, Note_off_c, 11, 58, 127
1, 377908, Note_off_c, 2, 74, 127
1, 377909, Note_on_c, 10, 57, 127
1, 377909, Note_on_c, 2, 74, 127
1, 378040, Note_off_c, 2, 74, 127
1, 378040, Note_off_c, 10, 57, 127
1, 378041, Note_on_c, 7, 55, 127
1, 378041, Note_on_c, 4, 76, 127
1, 378172, Note_off_c, 7, 55, 127
1, 378173, Note_on_c, 10, 57, 127
1, 378173, Note_on_c, 10, 69, 127
1, 378304, Note_off_c, 10, 69, 127
1, 378304, Note_off_c, 10, 57, 127
1, 378304, Note_off_c, 4, 76, 127
1, 378305, Note_on_c, 7, 55, 127
1, 378305, Note_on_c, 2, 74, 127
1, 378436, Note_off_c, 2, 74, 127
1, 378436, Note_off_c, 7, 55, 127
1, 378437, Note_on_c, 10, 57, 127
1, 378437, Note_on_c, 1, 73, 127
1, 378568, Note_off_c, 1, 73, 127
1, 378568, Note_off_c, 10, 57, 127
1, 378569, Note_on_c, 2, 50, 127
1, 378569, Note_on_c, 2, 74, 127
1, 378701, Note_on_c, 2, 62, 127
1, 378832, Note_off_c, 2, 62, 127
1, 378832, Note_off_c, 2, 50, 127
1, 378833, Note_on_c, 0, 60, 127
1, 378961, Note_off_c, 2, 74, 127
1, 378964, Note_off_c, 0, 60, 127
1, 378965, Note_on_c, 11, 58, 127
1, 379096, Note_off_c, 11, 58, 127
1, 379097, Note_on_c, 10, 57, 127
1, 379097, Note_on_c, 2, 74, 127
1, 379228, Note_off_c, 2, 74, 127
1, 379228, Note_off_c, 10, 57, 127
1, 379229, Note_on_c, 7, 55, 127
1, 379229, Note_on_c, 4, 76, 127
1, 379360, Note_off_c, 4, 76, 127
1, 379360, Note_off_c, 7, 55, 127
1, 379361, Note_on_c, 0, 60, 127
1, 379361, Note_on_c, 6, 78, 127
1, 379492, Note_off_c, 6, 78, 127
1, 379492, Note_off_c, 0, 60, 127
1, 379493, Note_on_c, 11, 58, 127
1, 379493, Note_on_c, 7, 79, 127
1, 379624, Note_off_c, 7, 79, 127
1, 379624, Note_off_c, 11, 58, 127
1, 379625, Note_on_c, 10, 57, 127
1, 379625, Note_on_c, 10, 81, 127
1, 379756, Note_off_c, 10, 81, 127
1, 379756, Note_off_c, 10, 57, 127
1, 379757, Note_on_c, 2, 62, 127
1, 379757, Note_on_c, 6, 78, 127
1, 379888, Note_off_c, 6, 78, 127
1, 379894, Note_on_c, 4, 76, 127
1, 379894, Note_on_c, 2, 50, 127
1, 379922, Note_off_c, 2, 62, 127
1, 380025, Note_off_c, 2, 50, 127
1, 380025, Note_off_c, 4, 76, 127
1, 380029, Note_on_c, 2, 74, 127
1, 380029, Note_on_c, 0, 60, 127
1, 380147, Note_off_c, 2, 74, 127
1, 380148, Note_off_c, 0, 60, 127
1, 380169, Note_on_c, 7, 79, 127
1, 380169, Note_on_c, 11, 58, 127
1, 380300, Note_off_c, 11, 58, 127
1, 380300, Note_off_c, 7, 79, 127
1, 380301, Note_on_c, 11, 82, 127
1, 380301, Note_on_c, 7, 55, 127
1, 380432, Note_off_c, 7, 55, 127
1, 380432, Note_off_c, 11, 82, 127
1, 380433, Note_on_c, 7, 79, 127
1, 380433, Note_on_c, 11, 58, 127
1, 380564, Note_off_c, 11, 58, 127
1, 380564, Note_off_c, 7, 79, 127
1, 380565, Note_on_c, 6, 78, 127
1, 380565, Note_on_c, 2, 62, 127
1, 380696, Note_off_c, 2, 62, 127
1, 380696, Note_off_c, 6, 78, 127
1, 380697, Note_on_c, 10, 81, 127
1, 380697, Note_on_c, 2, 50, 127
1, 380828, Note_off_c, 2, 50, 127
1, 380828, Note_off_c, 10, 81, 127
1, 380829, Note_on_c, 6, 78, 127
1, 380829, Note_on_c, 0, 60, 127
1, 380960, Note_off_c, 0, 60, 127
1, 380960, Note_off_c, 6, 78, 127
1, 380961, Note_on_c, 7, 79, 127
1, 380961, Note_on_c, 11, 58, 127
1, 381092, Note_off_c, 11, 58, 127
1, 381092, Note_off_c, 7, 79, 127
1, 381093, Note_on_c, 11, 82, 127
1, 381093, Note_on_c, 7, 55, 127
1, 381224, Note_off_c, 7, 55, 127
1, 381224, Note_off_c, 11, 82, 127
1, 381225, Note_on_c, 7, 79, 127
1, 381225, Note_on_c, 11, 58, 127
1, 381356, Note_off_c, 11, 58, 127
1, 381356, Note_off_c, 7, 79, 127
1, 381357, Note_on_c, 6, 78, 127
1, 381357, Note_on_c, 2, 62, 127
1, 381488, Note_off_c, 2, 62, 127
1, 381488, Note_off_c, 6, 78, 127
1, 381489, Note_on_c, 10, 81, 127
1, 381489, Note_on_c, 2, 50, 127
1, 381620, Note_off_c, 2, 50, 127
1, 381620, Note_off_c, 10, 81, 127
1, 381621, Note_on_c, 6, 78, 127
1, 381621, Note_on_c, 0, 60, 127
1, 381752, Note_off_c, 0, 60, 127
1, 381752, Note_off_c, 6, 78, 127
1, 381753, Note_on_c, 7, 79, 127
1, 381753, Note_on_c, 11, 58, 127
1, 381884, Note_off_c, 11, 58, 127
1, 381884, Note_off_c, 7, 79, 127
1, 381885, Note_on_c, 11, 82, 127
1, 381885, Note_on_c, 7, 55, 127
1, 382016, Note_off_c, 7, 55, 127
1, 382016, Note_off_c, 11, 82, 127
1, 382017, Note_on_c, 7, 79, 127
1, 382017, Note_on_c, 11, 58, 127
1, 382148, Note_off_c, 11, 58, 127
1, 382148, Note_off_c, 7, 79, 127
1, 382149, Note_on_c, 6, 78, 127
1, 382149, Note_on_c, 2, 62, 127
1, 382280, Note_off_c, 2, 62, 127
1, 382280, Note_off_c, 6, 78, 127
1, 382281, Note_on_c, 10, 81, 127
1, 382281, Note_on_c, 2, 50, 127
1, 382412, Note_off_c, 2, 50, 127
1, 382412, Note_off_c, 10, 81, 127
1, 382413, Note_on_c, 6, 78, 127
1, 382413, Note_on_c, 0, 60, 127
1, 382544, Note_off_c, 0, 60, 127
1, 382544, Note_off_c, 6, 78, 127
1, 382545, Note_on_c, 7, 79, 127
1, 382545, Note_on_c, 11, 58, 127
1, 382676, Note_off_c, 11, 58, 127
1, 382676, Note_off_c, 7, 79, 127
1, 382677, Note_on_c, 10, 81, 127
1, 382677, Note_on_c, 10, 57, 127
1, 382808, Note_off_c, 10, 57, 127
1, 382808, Note_off_c, 10, 81, 127
1, 382809, Note_on_c, 11, 82, 127
1, 382809, Note_on_c, 7, 55, 127
1, 382940, Note_off_c, 7, 55, 127
1, 382940, Note_off_c, 11, 82, 127
1, 382941, Note_on_c, 10, 81, 127
1, 382941, Note_on_c, 0, 60, 127
1, 383072, Note_off_c, 0, 60, 127
1, 383072, Note_off_c, 10, 81, 127
1, 383073, Note_on_c, 11, 82, 127
1, 383073, Note_on_c, 2, 62, 127
1, 383204, Note_off_c, 2, 62, 127
1, 383204, Note_off_c, 11, 82, 127
1, 383205, Note_on_c, 7, 79, 127
1, 383205, Note_on_c, 3, 63, 127
1, 383336, Note_off_c, 3, 63, 127
1, 383336, Note_off_c, 7, 79, 127
1, 383337, Note_on_c, 6, 78, 127
1, 383337, Note_on_c, 2, 62, 127
1, 383468, Note_off_c, 6, 78, 127
1, 383469, Note_on_c, 4, 76, 127
1, 383469, Note_on_c, 2, 50, 127
1, 383502, Note_off_c, 2, 62, 127
1, 383600, Note_off_c, 2, 50, 127
1, 383600, Note_off_c, 4, 76, 127
1, 383601, Note_on_c, 2, 74, 127
1, 383601, Note_on_c, 0, 60, 127
1, 383715, Note_off_c, 2, 74, 127
1, 383717, Note_off_c, 0, 60, 127
1, 383750, Note_on_c, 12, 59, 127
1, 383750, Note_on_c, 2, 74, 127
1, 383881, Note_off_c, 12, 59, 127
1, 383882, Note_on_c, 7, 55, 127
1, 383882, Note_on_c, 7, 79, 127
1, 384009, Note_off_c, 2, 74, 127
1, 384013, Note_off_c, 7, 79, 127
1, 384013, Note_off_c, 7, 55, 127
1, 384014, Note_on_c, 12, 59, 127
1, 384014, Note_on_c, 2, 74, 127
1, 384145, Note_off_c, 2, 74, 127
1, 384145, Note_off_c, 12, 59, 127
1, 384146, Note_on_c, 0, 60, 127
1, 384146, Note_on_c, 3, 75, 127
1, 384277, Note_off_c, 0, 60, 127
1, 384278, Note_on_c, 0, 48, 127
1, 384278, Note_on_c, 7, 79, 127
1, 384405, Note_off_c, 3, 75, 127
1, 384409, Note_off_c, 7, 79, 127
1, 384409, Note_off_c, 0, 48, 127
1, 384410, Note_on_c, 11, 58, 127
1, 384410, Note_on_c, 3, 75, 127
1, 384541, Note_off_c, 3, 75, 127
1, 384541, Note_off_c, 11, 58, 127
1, 384542, Note_on_c, 10, 57, 127
1, 384542, Note_on_c, 0, 72, 127
1, 384673, Note_off_c, 10, 57, 127
1, 384674, Note_on_c, 5, 53, 127
1, 384674, Note_on_c, 5, 77, 127
1, 384801, Note_off_c, 0, 72, 127
1, 384805, Note_off_c, 5, 77, 127
1, 384805, Note_off_c, 5, 53, 127
1, 384806, Note_on_c, 10, 57, 127
1, 384806, Note_on_c, 0, 72, 127
1, 384937, Note_off_c, 0, 72, 127
1, 384937, Note_off_c, 10, 57, 127
1, 384938, Note_on_c, 11, 58, 127
1, 384938, Note_on_c, 2, 74, 127
1, 385069, Note_off_c, 11, 58, 127
1, 385070, Note_on_c, 11, 46, 127
1, 385070, Note_on_c, 5, 77, 127
1, 385197, Note_off_c, 2, 74, 127
1, 385201, Note_off_c, 5, 77, 127
1, 385201, Note_off_c, 11, 46, 127
1, 385202, Note_on_c, 11, 58, 127
1, 385202, Note_on_c, 2, 74, 127
1, 385333, Note_off_c, 2, 74, 127
1, 385333, Note_off_c, 11, 58, 127
1, 385334, Note_on_c, 7, 55, 127
1, 385334, Note_on_c, 11, 70, 127
1, 385465, Note_off_c, 7, 55, 127
1, 385466, Note_on_c, 3, 51, 127
1, 385466, Note_on_c, 3, 75, 127
1, 385593, Note_off_c, 11, 70, 127
1, 385597, Note_off_c, 3, 75, 127
1, 385597, Note_off_c, 3, 51, 127
1, 385598, Note_on_c, 7, 55, 127
1, 385598, Note_on_c, 11, 70, 127
1, 385729, Note_off_c, 11, 70, 127
1, 385729, Note_off_c, 7, 55, 127
1, 385730, Note_on_c, 10, 57, 127
1, 385730, Note_on_c, 0, 72, 127
1, 385861, Note_off_c, 10, 57, 127
1, 385862, Note_on_c, 10, 45, 127
1, 385862, Note_on_c, 3, 75, 127
1, 385989, Note_off_c, 0, 72, 127
1, 385993, Note_off_c, 3, 75, 127
1, 385993, Note_off_c, 10, 45, 127
1, 385994, Note_on_c, 10, 57, 127
1, 385994, Note_on_c, 0, 72, 127
1, 386125, Note_off_c, 0, 72, 127
1, 386125, Note_off_c, 10, 57, 127
1, 386126, Note_on_c, 6, 54, 127
1, 386126, Note_on_c, 10, 69, 127
1, 386257, Note_off_c, 6, 54, 127
1, 386258, Note_on_c, 2, 50, 127
1, 386258, Note_on_c, 2, 74, 127
1, 386385, Note_off_c, 10, 69, 127
1, 386389, Note_off_c, 2, 74, 127
1, 386389, Note_off_c, 2, 50, 127
1, 386390, Note_on_c, 6, 54, 127
1, 386390, Note_on_c, 10, 69, 127
1, 386521, Note_off_c, 10, 69, 127
1, 386521, Note_off_c, 6, 54, 127
1, 386522, Note_on_c, 7, 55, 127
1, 386522, Note_on_c, 11, 70, 127
1, 386653, Note_off_c, 11, 70, 127
1, 386653, Note_off_c, 7, 55, 127
1, 386654, Note_on_c, 7, 43, 127
1, 386654, Note_on_c, 7, 67, 127
1, 386785, Note_off_c, 7, 67, 127
1, 386785, Note_off_c, 7, 43, 127
1, 386786, Note_on_c, 7, 55, 127
1, 386786, Note_on_c, 11, 70, 127
1, 386917, Note_off_c, 11, 70, 127
1, 386917, Note_off_c, 7, 55, 127
1, 386918, Note_on_c, 11, 58, 127
1, 386918, Note_on_c, 2, 74, 127
1, 387049, Note_off_c, 11, 58, 127
1, 387050, Note_on_c, 7, 55, 127
1, 387050, Note_on_c, 7, 79, 127
1, 387177, Note_off_c, 2, 74, 127
1, 387181, Note_off_c, 7, 79, 127
1, 387181, Note_off_c, 7, 55, 127
1, 387182, Note_on_c, 11, 58, 127
1, 387182, Note_on_c, 2, 74, 127
1, 387313, Note_off_c, 2, 74, 127
1, 387313, Note_off_c, 11, 58, 127
1, 387314, Note_on_c, 0, 60, 127
1, 387314, Note_on_c, 3, 75, 127
1, 387445, Note_off_c, 0, 60, 127
1, 387446, Note_on_c, 0, 48, 127
1, 387446, Note_on_c, 0, 72, 127
1, 387573, Note_off_c, 3, 75, 127
1, 387577, Note_off_c, 0, 72, 127
1, 387577, Note_off_c, 0, 48, 127
1, 387578, Note_on_c, 0, 60, 127
1, 387578, Note_on_c, 7, 79, 127
1, 387709, Note_off_c, 7, 79, 127
1, 387709, Note_off_c, 0, 60, 127
1, 387710, Note_on_c, 1, 61, 127
1, 387710, Note_on_c, 10, 81, 127
1, 387841, Note_off_c, 1, 61, 127
1, 387842, Note_on_c, 10, 57, 127
1, 387842, Note_on_c, 4, 76, 127
1, 387969, Note_off_c, 10, 81, 127
1, 387973, Note_off_c, 4, 76, 127
1, 387973, Note_off_c, 10, 57, 127
1, 387974, Note_on_c, 1, 61, 127
1, 387974, Note_on_c, 10, 81, 127
1, 388105, Note_off_c, 10, 81, 127
1, 388105, Note_off_c, 1, 61, 127
1, 388106, Note_on_c, 2, 62, 127
1, 388106, Note_on_c, 6, 78, 127
1, 388237, Note_off_c, 2, 62, 127
1, 388238, Note_on_c, 2, 50, 127
1, 388238, Note_on_c, 2, 74, 127
1, 388365, Note_off_c, 6, 78, 127
1, 388369, Note_off_c, 2, 74, 127
1, 388369, Note_off_c, 2, 50, 127
1, 388370, Note_on_c, 0, 60, 127
1, 388370, Note_on_c, 6, 78, 127
1, 388501, Note_off_c, 6, 78, 127
1, 388501, Note_off_c, 0, 60, 127
1, 388502, Note_on_c, 11, 58, 127
1, 388502, Note_on_c, 7, 79, 127
1, 388633, Note_off_c, 11, 58, 127
1, 388634, Note_on_c, 7, 55, 127
1, 388634, Note_on_c, 2, 74, 127
1, 388761, Note_off_c, 7, 79, 127
1, 388765, Note_off_c, 2, 74, 127
1, 388765, Note_off_c, 7, 55, 127
1, 388766, Note_on_c, 11, 58, 127
1, 388766, Note_on_c, 7, 79, 127
1, 388897, Note_off_c, 11, 58, 127
1, 388898, Note_on_c, 3, 63, 127
1, 388898, Note_on_c, 0, 72, 127
1, 389029, Note_off_c, 0, 72, 127
1, 389029, Note_off_c, 3, 63, 127
1, 389029, Note_off_c, 7, 79, 127
1, 389030, Note_on_c, 2, 62, 127
1, 389030, Note_on_c, 7, 79, 127
1, 389161, Note_off_c, 7, 79, 127
1, 389161, Note_off_c, 2, 62, 127
1, 389162, Note_on_c, 0, 60, 127
1, 389162, Note_on_c, 10, 81, 127
1, 389293, Note_off_c, 0, 60, 127
1, 389294, Note_on_c, 2, 62, 127
1, 389294, Note_on_c, 2, 74, 127
1, 389425, Note_off_c, 2, 74, 127
1, 389425, Note_off_c, 2, 62, 127
1, 389425, Note_off_c, 10, 81, 127
1, 389426, Note_on_c, 0, 60, 127
1, 389426, Note_on_c, 7, 79, 127
1, 389557, Note_off_c, 7, 79, 127
1, 389557, Note_off_c, 0, 60, 127
1, 389567, Note_on_c, 6, 78, 127
1, 389567, Note_on_c, 2, 62, 127
1, 389698, Note_off_c, 2, 62, 127
1, 389698, Note_off_c, 6, 78, 127
1, 389706, Note_on_c, 7, 79, 127
1, 389706, Note_on_c, 11, 58, 127
1, 389706, Note_on_c, 7, 55, 127
1, 389839, Note_off_c, 11, 58, 127
1, 389839, Note_off_c, 7, 79, 127
1, 389840, Note_on_c, 11, 82, 127
1, 389840, Note_on_c, 2, 62, 127
1, 389973, Note_off_c, 2, 62, 127
1, 389973, Note_off_c, 11, 82, 127
1, 389974, Note_on_c, 7, 79, 127
1, 389974, Note_on_c, 7, 67, 127
1, 390093, Note_off_c, 7, 55, 127
1, 390107, Note_off_c, 7, 67, 127
1, 390107, Note_off_c, 7, 79, 127
1, 390108, Note_on_c, 8, 80, 127
1, 390108, Note_on_c, 0, 60, 127
1, 390241, Note_off_c, 8, 80, 127
1, 390242, Note_on_c, 7, 79, 127
1, 390242, Note_on_c, 3, 63, 127
1, 390375, Note_off_c, 3, 63, 127
1, 390375, Note_off_c, 7, 79, 127
1, 390376, Note_on_c, 6, 78, 127
1, 390376, Note_on_c, 10, 69, 127
1, 390495, Note_off_c, 0, 60, 127
1, 390509, Note_off_c, 10, 69, 127
1, 390509, Note_off_c, 6, 78, 127
1, 390510, Note_on_c, 7, 79, 127
1, 390510, Note_on_c, 11, 58, 127
1, 390643, Note_off_c, 7, 79, 127
1, 390644, Note_on_c, 11, 82, 127
1, 390644, Note_on_c, 2, 62, 127
1, 390777, Note_off_c, 2, 62, 127
1, 390777, Note_off_c, 11, 82, 127
1, 390778, Note_on_c, 7, 79, 127
1, 390778, Note_on_c, 7, 67, 127
1, 390897, Note_off_c, 11, 58, 127
1, 390911, Note_off_c, 7, 67, 127
1, 390911, Note_off_c, 7, 79, 127
1, 390912, Note_on_c, 8, 80, 127
1, 390912, Note_on_c, 0, 60, 127
1, 391045, Note_off_c, 8, 80, 127
1, 391046, Note_on_c, 7, 79, 127
1, 391046, Note_on_c, 3, 63, 127
1, 391179, Note_off_c, 3, 63, 127
1, 391179, Note_off_c, 7, 79, 127
1, 391180, Note_on_c, 6, 78, 127
1, 391180, Note_on_c, 10, 69, 127
1, 391299, Note_off_c, 0, 60, 127
1, 391313, Note_off_c, 10, 69, 127
1, 391313, Note_off_c, 6, 78, 127
1, 391314, Note_on_c, 7, 79, 127
1, 391314, Note_on_c, 11, 58, 127
1, 391447, Note_off_c, 7, 79, 127
1, 391448, Note_on_c, 2, 74, 127
1, 391448, Note_on_c, 7, 67, 127
1, 391581, Note_off_c, 7, 67, 127
1, 391581, Note_off_c, 2, 74, 127
1, 391581, Note_off_c, 11, 58, 127
1, 391582, Note_on_c, 7, 79, 127
1, 391582, Note_on_c, 0, 60, 127
1, 391715, Note_off_c, 0, 60, 127
1, 391715, Note_off_c, 7, 79, 127
1, 391716, Note_on_c, 10, 69, 127
1, 391716, Note_on_c, 2, 62, 127
1, 391849, Note_off_c, 2, 62, 127
1, 391850, Note_on_c, 7, 79, 127
1, 391850, Note_on_c, 0, 60, 127
1, 391983, Note_off_c, 0, 60, 127
1, 391983, Note_off_c, 7, 79, 127
1, 391984, Note_on_c, 6, 78, 127
1, 391984, Note_on_c, 2, 62, 127
1, 392113, Note_off_c, 10, 69, 127
1, 392116, Note_off_c, 2, 62, 127
1, 392116, Note_off_c, 6, 78, 127
1, 392117, Note_on_c, 7, 79, 127
1, 392117, Note_on_c, 7, 55, 127
1, 392252, Note_on_c, 11, 82, 127
1, 392386, Note_off_c, 11, 82, 127
1, 392386, Note_off_c, 7, 79, 127
1, 392387, Note_on_c, 7, 79, 127
1, 392521, Note_off_c, 7, 79, 127
1, 392521, Note_off_c, 7, 55, 127
1, 392522, Note_on_c, 2, 74, 127
1, 392522, Note_on_c, 7, 67, 127
1, 392656, Note_off_c, 7, 67, 127
1, 392657, Note_on_c, 7, 79, 127
1, 392657, Note_on_c, 11, 70, 127
1, 392791, Note_off_c, 11, 70, 127
1, 392791, Note_off_c, 7, 79, 127
1, 392791, Note_off_c, 2, 74, 127
1, 392792, Note_on_c, 2, 74, 127
1, 392792, Note_on_c, 7, 67, 127
1, 392926, Note_off_c, 7, 67, 127
1, 392926, Note_off_c, 2, 74, 127
1, 392927, Note_on_c, 11, 70, 127
1, 392927, Note_on_c, 2, 62, 127
1, 393061, Note_off_c, 2, 62, 127
1, 393062, Note_on_c, 2, 74, 127
1, 393062, Note_on_c, 7, 67, 127
1, 393196, Note_off_c, 7, 67, 127
1, 393196, Note_off_c, 2, 74, 127
1, 393196, Note_off_c, 11, 70, 127
1, 393197, Note_on_c, 11, 70, 127
1, 393197, Note_on_c, 2, 62, 127
1, 393331, Note_off_c, 2, 62, 127
1, 393331, Note_off_c, 11, 70, 127
1, 393332, Note_on_c, 7, 67, 127
1, 393332, Note_on_c, 11, 58, 127
1, 393466, Note_off_c, 11, 58, 127
1, 393467, Note_on_c, 11, 70, 127
1, 393467, Note_on_c, 2, 62, 127
1, 393601, Note_off_c, 2, 62, 127
1, 393601, Note_off_c, 11, 70, 127
1, 393601, Note_off_c, 7, 67, 127
1, 393602, Note_on_c, 7, 67, 127
1, 393602, Note_on_c, 11, 58, 127
1, 393736, Note_off_c, 11, 58, 127
1, 393736, Note_off_c, 7, 67, 127
1, 393737, Note_on_c, 2, 62, 127
1, 393737, Note_on_c, 7, 55, 127
1, 393871, Note_off_c, 7, 55, 127
1, 393872, Note_on_c, 7, 67, 127
1, 393872, Note_on_c, 11, 58, 127
1, 394006, Note_off_c, 7, 67, 127
1, 394006, Note_off_c, 2, 62, 127
1, 394007, Note_on_c, 2, 62, 127
1, 394007, Note_on_c, 7, 55, 127
1, 394141, Note_off_c, 7, 55, 127
1, 394141, Note_off_c, 2, 62, 127
1, 394141, Note_off_c, 11, 58, 127
1, 394142, Note_on_c, 7, 67, 127
1, 394142, Note_on_c, 2, 50, 127
1, 394276, Note_off_c, 2, 50, 127
1, 394276, Note_off_c, 7, 67, 127
1, 394277, Note_on_c, 11, 70, 127
1, 394277, Note_on_c, 7, 55, 127
1, 394411, Note_off_c, 11, 70, 127
1, 394412, Note_on_c, 7, 67, 127
1, 394412, Note_on_c, 2, 50, 127
1, 394546, Note_off_c, 2, 50, 127
1, 394546, Note_off_c, 7, 67, 127
1, 394546, Note_off_c, 7, 55, 127
1, 394547, Note_on_c, 2, 74, 127
1, 394547, Note_on_c, 11, 46, 127
1, 394681, Note_off_c, 11, 46, 127
1, 394681, Note_off_c, 2, 74, 127
1, 394682, Note_on_c, 7, 79, 127
1, 394682, Note_on_c, 2, 50, 127
1, 394816, Note_off_c, 7, 79, 127
1, 394817, Note_on_c, 2, 74, 127
1, 394817, Note_on_c, 11, 46, 127
1, 394921, Note_off_c, 2, 74, 127
1, 394950, Note_off_c, 11, 46, 127
1, 394950, Note_off_c, 2, 50, 127
1, 394951, Note_on_c, 11, 70, 127
1, 394951, Note_on_c, 7, 43, 127
1, 395064, Note_off_c, 11, 70, 127
1, 395088, Note_off_c, 7, 43, 127
1, 395097, Note_on_c, 7, 67, 127
1, 395097, Note_on_c, 11, 46, 127
1, 395210, Note_off_c, 7, 67, 127
1, 395234, Note_off_c, 11, 46, 127
1, 395243, Note_on_c, 2, 62, 127
1, 395243, Note_on_c, 2, 50, 127
1, 395356, Note_off_c, 2, 62, 127
1, 395380, Note_off_c, 2, 50, 127
1, 395437, Note_on_c, 7, 55, 127
1, 397151, Note_off_c, 7, 55, 127
1, 403271, End_track
0, 0, End_of_file
