0, 0, Header, 1, 5, 384
1, 0, Start_track
1, 0, Title_t, "untitled"
1, 0, SMPTE_offset, 96, 0, 3, 0, 0
1, 0, Time_signature, 4, 2, 24, 8
1, 0, Key_signature, 0, "major"
1, 0, Tempo, 923077
1, 121344, Tempo, 923077
1, 121380, Tempo, 937500
1, 121416, Tempo, 952381
1, 121452, Tempo, 967742
1, 121488, Tempo, 983607
1, 121524, Tempo, 1000000
1, 121560, Tempo, 1016949
1, 121596, Tempo, 1034483
1, 121632, Tempo, 1052632
1, 121668, Tempo, 1071429
1, 121704, Tempo, 1090909
1, 121740, Tempo, 1111111
1, 121776, Tempo, 1132075
1, 121812, Tempo, 1153846
1, 121848, Tempo, 1176471
1, 121884, Tempo, 1200000
1, 121920, Tempo, 1224490
1, 121956, Tempo, 1250000
1, 121992, Tempo, 1276596
1, 122028, Tempo, 1304348
1, 122064, Tempo, 1333333
1, 122100, Tempo, 1363636
1, 122136, Tempo, 1395349
1, 122172, Tempo, 1428571
1, 122208, Tempo, 1463415
1, 122244, Tempo, 1500000
1, 122280, Tempo, 1538462
1, 122316, Tempo, 1578947
1, 122352, Tempo, 1621622
1, 122388, Tempo, 1666667
1, 122424, Tempo, 1714286
1, 122424, End_track
2, 0, Start_track
2, 0, MIDI_port, 0
2, 0, Title_t, "J.S. Bach: Fantasia, BWV 906 (part 1)"
2, 0, Control_c, 0, 0, 0
2, 0, Control_c, 0, 32, 0
2, 0, Program_c, 0, 6
2, 0, Control_c, 0, 7, 100
2, 0, Control_c, 0, 10, 54
2, 0, Note_on_c, 0, 84, 100
2, 64, Note_on_c, 0, 79, 100
2, 92, Note_on_c, 0, 84, 0
2, 128, Note_on_c, 0, 75, 100
2, 156, Note_on_c, 0, 79, 0
2, 192, Note_on_c, 0, 72, 100
2, 220, Note_on_c, 0, 75, 0
2, 252, Note_on_c, 0, 67, 100
2, 284, Note_on_c, 0, 72, 0
2, 316, Note_on_c, 0, 63, 100
2, 344, Note_on_c, 0, 67, 0
2, 384, Note_on_c, 0, 60, 100
2, 408, Note_on_c, 0, 63, 0
2, 512, Note_on_c, 0, 60, 0
2, 576, Note_on_c, 0, 84, 100
2, 576, Note_on_c, 0, 79, 100
2, 576, Note_on_c, 0, 75, 100
2, 764, Note_on_c, 0, 75, 0
2, 764, Note_on_c, 0, 79, 0
2, 764, Note_on_c, 0, 84, 0
2, 768, Note_on_c, 0, 75, 100
2, 768, Note_on_c, 0, 79, 100
2, 768, Note_on_c, 0, 84, 100
2, 956, Note_on_c, 0, 84, 0
2, 956, Note_on_c, 0, 75, 0
2, 960, Note_on_c, 0, 83, 100
2, 960, Note_on_c, 0, 74, 100
2, 1088, Note_on_c, 0, 74, 0
2, 1088, Note_on_c, 0, 83, 0
2, 1128, Note_on_c, 0, 79, 0
2, 1136, Note_on_c, 0, 79, 100
2, 1188, Note_on_c, 0, 77, 100
2, 1208, Note_on_c, 0, 79, 0
2, 1224, Note_on_c, 0, 77, 0
2, 1224, Note_on_c, 0, 79, 100
2, 1256, Note_on_c, 0, 77, 100
2, 1260, Note_on_c, 0, 79, 0
2, 1288, Note_on_c, 0, 79, 100
2, 1292, Note_on_c, 0, 77, 0
2, 1324, Note_on_c, 0, 79, 0
2, 1324, Note_on_c, 0, 77, 100
2, 1356, Note_on_c, 0, 79, 100
2, 1360, Note_on_c, 0, 77, 0
2, 1388, Note_on_c, 0, 77, 100
2, 1392, Note_on_c, 0, 79, 0
2, 1420, Note_on_c, 0, 76, 100
2, 1424, Note_on_c, 0, 77, 0
2, 1468, Note_on_c, 0, 76, 0
2, 1468, Note_on_c, 0, 77, 100
2, 1516, Note_on_c, 0, 77, 0
2, 1536, Note_on_c, 0, 82, 100
2, 1600, Note_on_c, 0, 79, 100
2, 1628, Note_on_c, 0, 82, 0
2, 1664, Note_on_c, 0, 76, 100
2, 1692, Note_on_c, 0, 79, 0
2, 1728, Note_on_c, 0, 72, 100
2, 1756, Note_on_c, 0, 76, 0
2, 1788, Note_on_c, 0, 67, 100
2, 1820, Note_on_c, 0, 72, 0
2, 1852, Note_on_c, 0, 64, 100
2, 1880, Note_on_c, 0, 67, 0
2, 1920, Note_on_c, 0, 60, 100
2, 1944, Note_on_c, 0, 64, 0
2, 2048, Note_on_c, 0, 60, 0
2, 2112, Note_on_c, 0, 82, 100
2, 2112, Note_on_c, 0, 79, 100
2, 2112, Note_on_c, 0, 72, 100
2, 2300, Note_on_c, 0, 72, 0
2, 2300, Note_on_c, 0, 79, 0
2, 2300, Note_on_c, 0, 82, 0
2, 2304, Note_on_c, 0, 82, 100
2, 2304, Note_on_c, 0, 72, 100
2, 2304, Note_on_c, 0, 79, 100
2, 2492, Note_on_c, 0, 79, 0
2, 2492, Note_on_c, 0, 82, 0
2, 2496, Note_on_c, 0, 81, 100
2, 2496, Note_on_c, 0, 77, 100
2, 2624, Note_on_c, 0, 77, 0
2, 2624, Note_on_c, 0, 81, 0
2, 2664, Note_on_c, 0, 72, 0
2, 2672, Note_on_c, 0, 74, 100
2, 2724, Note_on_c, 0, 72, 100
2, 2744, Note_on_c, 0, 74, 0
2, 2760, Note_on_c, 0, 72, 0
2, 2760, Note_on_c, 0, 74, 100
2, 2792, Note_on_c, 0, 72, 100
2, 2796, Note_on_c, 0, 74, 0
2, 2824, Note_on_c, 0, 74, 100
2, 2828, Note_on_c, 0, 72, 0
2, 2860, Note_on_c, 0, 74, 0
2, 2860, Note_on_c, 0, 72, 100
2, 2892, Note_on_c, 0, 74, 100
2, 2896, Note_on_c, 0, 72, 0
2, 2924, Note_on_c, 0, 72, 100
2, 2928, Note_on_c, 0, 74, 0
2, 2956, Note_on_c, 0, 71, 100
2, 2960, Note_on_c, 0, 72, 0
2, 3004, Note_on_c, 0, 71, 0
2, 3004, Note_on_c, 0, 72, 100
2, 3052, Note_on_c, 0, 72, 0
2, 3072, Note_on_c, 0, 80, 100
2, 3136, Note_on_c, 0, 77, 100
2, 3152, Note_on_c, 0, 80, 0
2, 3200, Note_on_c, 0, 74, 100
2, 3216, Note_on_c, 0, 77, 0
2, 3264, Note_on_c, 0, 71, 100
2, 3280, Note_on_c, 0, 74, 0
2, 3324, Note_on_c, 0, 65, 100
2, 3344, Note_on_c, 0, 71, 0
2, 3388, Note_on_c, 0, 62, 100
2, 3404, Note_on_c, 0, 65, 0
2, 3456, Note_on_c, 0, 59, 100
2, 3468, Note_on_c, 0, 62, 0
2, 3584, Note_on_c, 0, 59, 0
2, 3648, Note_on_c, 0, 80, 100
2, 3648, Note_on_c, 0, 77, 100
2, 3648, Note_on_c, 0, 74, 100
2, 3648, Note_on_c, 0, 71, 100
2, 3748, Note_on_c, 0, 71, 0
2, 3748, Note_on_c, 0, 80, 0
2, 3748, Note_on_c, 0, 77, 0
2, 3748, Note_on_c, 0, 74, 0
2, 3840, Note_on_c, 0, 80, 100
2, 3840, Note_on_c, 0, 77, 100
2, 3840, Note_on_c, 0, 74, 100
2, 3840, Note_on_c, 0, 71, 100
2, 4032, Note_on_c, 0, 79, 100
2, 4032, Note_on_c, 0, 75, 100
2, 4032, Note_on_c, 0, 72, 100
2, 4040, Note_on_c, 0, 71, 0
2, 4040, Note_on_c, 0, 74, 0
2, 4040, Note_on_c, 0, 80, 0
2, 4040, Note_on_c, 0, 77, 0
2, 4176, Note_on_c, 0, 72, 0
2, 4176, Note_on_c, 0, 79, 0
2, 4176, Note_on_c, 0, 75, 0
2, 4672, Note_on_c, 0, 72, 100
2, 4736, Note_on_c, 0, 74, 100
2, 4752, Note_on_c, 0, 72, 0
2, 4800, Note_on_c, 0, 75, 100
2, 4816, Note_on_c, 0, 74, 0
2, 4860, Note_on_c, 0, 77, 100
2, 4880, Note_on_c, 0, 75, 0
2, 4924, Note_on_c, 0, 79, 100
2, 4940, Note_on_c, 0, 77, 0
2, 4992, Note_on_c, 0, 80, 110
2, 5004, Note_on_c, 0, 79, 0
2, 5056, Note_on_c, 0, 79, 100
2, 5080, Note_on_c, 0, 80, 0
2, 5120, Note_on_c, 0, 77, 100
2, 5136, Note_on_c, 0, 79, 0
2, 5184, Note_on_c, 0, 75, 100
2, 5200, Note_on_c, 0, 77, 0
2, 5244, Note_on_c, 0, 74, 100
2, 5264, Note_on_c, 0, 75, 0
2, 5308, Note_on_c, 0, 72, 100
2, 5324, Note_on_c, 0, 74, 0
2, 5376, Note_on_c, 0, 71, 100
2, 5388, Note_on_c, 0, 72, 0
2, 5440, Note_on_c, 0, 74, 100
2, 5456, Note_on_c, 0, 71, 0
2, 5504, Note_on_c, 0, 72, 100
2, 5520, Note_on_c, 0, 74, 0
2, 5568, Note_on_c, 0, 71, 100
2, 5584, Note_on_c, 0, 72, 0
2, 5628, Note_on_c, 0, 69, 100
2, 5648, Note_on_c, 0, 71, 0
2, 5692, Note_on_c, 0, 67, 100
2, 5708, Note_on_c, 0, 69, 0
2, 5760, Note_on_c, 0, 65, 110
2, 5772, Note_on_c, 0, 67, 0
2, 5824, Note_on_c, 0, 68, 100
2, 5848, Note_on_c, 0, 65, 0
2, 5888, Note_on_c, 0, 67, 100
2, 5904, Note_on_c, 0, 68, 0
2, 5952, Note_on_c, 0, 65, 100
2, 5968, Note_on_c, 0, 67, 0
2, 6012, Note_on_c, 0, 63, 100
2, 6032, Note_on_c, 0, 65, 0
2, 6076, Note_on_c, 0, 62, 100
2, 6092, Note_on_c, 0, 63, 0
2, 6144, Note_on_c, 0, 63, 100
2, 6156, Note_on_c, 0, 62, 0
2, 6180, Note_on_c, 0, 62, 100
2, 6192, Note_on_c, 0, 63, 0
2, 6220, Note_on_c, 0, 63, 100
2, 6228, Note_on_c, 0, 62, 0
2, 6336, Note_on_c, 0, 60, 100
2, 6380, Note_on_c, 0, 63, 0
2, 6464, Note_on_c, 0, 60, 0
2, 6592, Note_on_c, 0, 74, 100
2, 6656, Note_on_c, 0, 75, 100
2, 6672, Note_on_c, 0, 74, 0
2, 6720, Note_on_c, 0, 76, 100
2, 6736, Note_on_c, 0, 75, 0
2, 6780, Note_on_c, 0, 77, 100
2, 6800, Note_on_c, 0, 76, 0
2, 6844, Note_on_c, 0, 78, 100
2, 6860, Note_on_c, 0, 77, 0
2, 6912, Note_on_c, 0, 79, 100
2, 6924, Note_on_c, 0, 78, 0
2, 6976, Note_on_c, 0, 78, 100
2, 7004, Note_on_c, 0, 79, 0
2, 7040, Note_on_c, 0, 81, 100
2, 7056, Note_on_c, 0, 78, 0
2, 7092, Note_on_c, 0, 81, 0
2, 7104, Note_on_c, 0, 75, 100
2, 7164, Note_on_c, 0, 74, 100
2, 7196, Note_on_c, 0, 75, 0
2, 7228, Note_on_c, 0, 79, 100
2, 7244, Note_on_c, 0, 74, 0
2, 7280, Note_on_c, 0, 79, 0
2, 7296, Note_on_c, 0, 72, 100
2, 7360, Note_on_c, 0, 71, 100
2, 7388, Note_on_c, 0, 72, 0
2, 7424, Note_on_c, 0, 74, 100
2, 7440, Note_on_c, 0, 71, 0
2, 7476, Note_on_c, 0, 74, 0
2, 7488, Note_on_c, 0, 68, 100
2, 7548, Note_on_c, 0, 67, 100
2, 7580, Note_on_c, 0, 68, 0
2, 7612, Note_on_c, 0, 77, 100
2, 7628, Note_on_c, 0, 67, 0
2, 7664, Note_on_c, 0, 77, 0
2, 7680, Note_on_c, 0, 76, 100
2, 7744, Note_on_c, 0, 73, 100
2, 7756, Note_on_c, 0, 76, 0
2, 7808, Note_on_c, 0, 70, 100
2, 7820, Note_on_c, 0, 73, 0
2, 7872, Note_on_c, 0, 67, 100
2, 7884, Note_on_c, 0, 70, 0
2, 8048, Note_on_c, 0, 67, 0
2, 8128, Note_on_c, 0, 72, 100
2, 8192, Note_on_c, 0, 73, 100
2, 8208, Note_on_c, 0, 72, 0
2, 8256, Note_on_c, 0, 74, 100
2, 8272, Note_on_c, 0, 73, 0
2, 8316, Note_on_c, 0, 75, 100
2, 8336, Note_on_c, 0, 74, 0
2, 8380, Note_on_c, 0, 76, 100
2, 8396, Note_on_c, 0, 75, 0
2, 8448, Note_on_c, 0, 77, 100
2, 8460, Note_on_c, 0, 76, 0
2, 8512, Note_on_c, 0, 76, 100
2, 8540, Note_on_c, 0, 77, 0
2, 8576, Note_on_c, 0, 79, 100
2, 8592, Note_on_c, 0, 76, 0
2, 8628, Note_on_c, 0, 79, 0
2, 8640, Note_on_c, 0, 73, 100
2, 8700, Note_on_c, 0, 72, 100
2, 8732, Note_on_c, 0, 73, 0
2, 8764, Note_on_c, 0, 77, 100
2, 8780, Note_on_c, 0, 72, 0
2, 8816, Note_on_c, 0, 77, 0
2, 8832, Note_on_c, 0, 70, 100
2, 8896, Note_on_c, 0, 69, 100
2, 8924, Note_on_c, 0, 70, 0
2, 8960, Note_on_c, 0, 72, 100
2, 8976, Note_on_c, 0, 69, 0
2, 9012, Note_on_c, 0, 72, 0
2, 9024, Note_on_c, 0, 66, 100
2, 9084, Note_on_c, 0, 65, 100
2, 9116, Note_on_c, 0, 66, 0
2, 9148, Note_on_c, 0, 75, 100
2, 9164, Note_on_c, 0, 65, 0
2, 9200, Note_on_c, 0, 75, 0
2, 9216, Note_on_c, 0, 74, 100
2, 9280, Note_on_c, 0, 71, 100
2, 9308, Note_on_c, 0, 74, 0
2, 9344, Note_on_c, 0, 68, 100
2, 9372, Note_on_c, 0, 71, 0
2, 9408, Note_on_c, 0, 65, 100
2, 9436, Note_on_c, 0, 68, 0
2, 9596, Note_on_c, 0, 65, 0
2, 9664, Note_on_c, 0, 77, 100
2, 9728, Note_on_c, 0, 75, 100
2, 9756, Note_on_c, 0, 77, 0
2, 9792, Note_on_c, 0, 74, 100
2, 9820, Note_on_c, 0, 75, 0
2, 9852, Note_on_c, 0, 72, 100
2, 9884, Note_on_c, 0, 74, 0
2, 9916, Note_on_c, 0, 71, 100
2, 9944, Note_on_c, 0, 72, 0
2, 9976, Note_on_c, 0, 71, 0
2, 9984, Note_on_c, 0, 71, 100
2, 10048, Note_on_c, 0, 72, 100
2, 10076, Note_on_c, 0, 71, 0
2, 10112, Note_on_c, 0, 67, 100
2, 10140, Note_on_c, 0, 72, 0
2, 10176, Note_on_c, 0, 63, 100
2, 10204, Note_on_c, 0, 67, 0
2, 10364, Note_on_c, 0, 63, 0
2, 10432, Note_on_c, 0, 75, 100
2, 10496, Note_on_c, 0, 74, 100
2, 10524, Note_on_c, 0, 75, 0
2, 10560, Note_on_c, 0, 72, 100
2, 10588, Note_on_c, 0, 74, 0
2, 10620, Note_on_c, 0, 74, 100
2, 10652, Note_on_c, 0, 72, 0
2, 10684, Note_on_c, 0, 75, 100
2, 10712, Note_on_c, 0, 74, 0
2, 10752, Note_on_c, 0, 65, 100
2, 10776, Note_on_c, 0, 75, 0
2, 10808, Note_on_c, 0, 63, 100
2, 10816, Note_on_c, 0, 65, 0
2, 10840, Note_on_c, 0, 65, 100
2, 10844, Note_on_c, 0, 63, 0
2, 10872, Note_on_c, 0, 63, 100
2, 10876, Note_on_c, 0, 65, 0
2, 10904, Note_on_c, 0, 65, 100
2, 10908, Note_on_c, 0, 63, 0
2, 10924, Note_on_c, 0, 63, 100
2, 10940, Note_on_c, 0, 65, 0
2, 10956, Note_on_c, 0, 65, 100
2, 10960, Note_on_c, 0, 63, 0
2, 10988, Note_on_c, 0, 63, 100
2, 10992, Note_on_c, 0, 65, 0
2, 11020, Note_on_c, 0, 65, 100
2, 11024, Note_on_c, 0, 63, 0
2, 11052, Note_on_c, 0, 63, 100
2, 11056, Note_on_c, 0, 65, 0
2, 11084, Note_on_c, 0, 65, 100
2, 11088, Note_on_c, 0, 63, 0
2, 11116, Note_on_c, 0, 63, 100
2, 11120, Note_on_c, 0, 65, 0
2, 11148, Note_on_c, 0, 65, 100
2, 11152, Note_on_c, 0, 63, 0
2, 11180, Note_on_c, 0, 63, 100
2, 11184, Note_on_c, 0, 65, 0
2, 11212, Note_on_c, 0, 65, 100
2, 11216, Note_on_c, 0, 63, 0
2, 11244, Note_on_c, 0, 63, 100
2, 11248, Note_on_c, 0, 65, 0
2, 11276, Note_on_c, 0, 65, 100
2, 11280, Note_on_c, 0, 63, 0
2, 11308, Note_on_c, 0, 63, 100
2, 11312, Note_on_c, 0, 65, 0
2, 11340, Note_on_c, 0, 65, 100
2, 11344, Note_on_c, 0, 63, 0
2, 11372, Note_on_c, 0, 63, 100
2, 11376, Note_on_c, 0, 65, 0
2, 11424, Note_on_c, 0, 63, 0
2, 11424, Note_on_c, 0, 62, 100
2, 11460, Note_on_c, 0, 62, 0
2, 11472, Note_on_c, 0, 63, 100
2, 11508, Note_on_c, 0, 63, 0
2, 11520, Note_on_c, 0, 63, 100
2, 11520, Note_on_c, 0, 60, 100
2, 11708, Note_on_c, 0, 60, 0
2, 11708, Note_on_c, 0, 63, 0
2, 11712, Note_on_c, 0, 59, 100
2, 11712, Note_on_c, 0, 62, 100
2, 11900, Note_on_c, 0, 62, 0
2, 11900, Note_on_c, 0, 59, 0
2, 12352, Note_on_c, 0, 70, 100
2, 12416, Note_on_c, 0, 67, 100
2, 12432, Note_on_c, 0, 70, 0
2, 12480, Note_on_c, 0, 61, 100
2, 12480, Note_on_c, 0, 82, 100
2, 12480, Note_on_c, 0, 79, 100
2, 12480, Note_on_c, 0, 76, 100
2, 12496, Note_on_c, 0, 67, 0
2, 12540, Note_on_c, 0, 70, 100
2, 12560, Note_on_c, 0, 61, 0
2, 12604, Note_on_c, 0, 67, 100
2, 12620, Note_on_c, 0, 70, 0
2, 12668, Note_on_c, 0, 76, 0
2, 12668, Note_on_c, 0, 79, 0
2, 12668, Note_on_c, 0, 82, 0
2, 12672, Note_on_c, 0, 61, 100
2, 12672, Note_on_c, 0, 82, 100
2, 12672, Note_on_c, 0, 79, 100
2, 12672, Note_on_c, 0, 76, 100
2, 12684, Note_on_c, 0, 67, 0
2, 12736, Note_on_c, 0, 70, 100
2, 12752, Note_on_c, 0, 61, 0
2, 12800, Note_on_c, 0, 67, 100
2, 12816, Note_on_c, 0, 70, 0
2, 12860, Note_on_c, 0, 76, 0
2, 12860, Note_on_c, 0, 79, 0
2, 12860, Note_on_c, 0, 82, 0
2, 12864, Note_on_c, 0, 61, 100
2, 12880, Note_on_c, 0, 67, 0
2, 12924, Note_on_c, 0, 70, 100
2, 12944, Note_on_c, 0, 61, 0
2, 12988, Note_on_c, 0, 67, 100
2, 13004, Note_on_c, 0, 70, 0
2, 13056, Note_on_c, 0, 60, 100
2, 13068, Note_on_c, 0, 67, 0
2, 13120, Note_on_c, 0, 68, 100
2, 13136, Note_on_c, 0, 60, 0
2, 13184, Note_on_c, 0, 65, 100
2, 13200, Note_on_c, 0, 68, 0
2, 13248, Note_on_c, 0, 60, 100
2, 13248, Note_on_c, 0, 77, 100
2, 13248, Note_on_c, 0, 80, 100
2, 13264, Note_on_c, 0, 65, 0
2, 13308, Note_on_c, 0, 68, 100
2, 13328, Note_on_c, 0, 60, 0
2, 13372, Note_on_c, 0, 65, 100
2, 13388, Note_on_c, 0, 68, 0
2, 13436, Note_on_c, 0, 80, 0
2, 13436, Note_on_c, 0, 77, 0
2, 13440, Note_on_c, 0, 60, 100
2, 13440, Note_on_c, 0, 80, 100
2, 13440, Note_on_c, 0, 77, 100
2, 13452, Note_on_c, 0, 65, 0
2, 13504, Note_on_c, 0, 68, 100
2, 13520, Note_on_c, 0, 60, 0
2, 13568, Note_on_c, 0, 65, 100
2, 13584, Note_on_c, 0, 68, 0
2, 13628, Note_on_c, 0, 77, 0
2, 13628, Note_on_c, 0, 80, 0
2, 13632, Note_on_c, 0, 60, 100
2, 13648, Note_on_c, 0, 65, 0
2, 13692, Note_on_c, 0, 68, 100
2, 13712, Note_on_c, 0, 60, 0
2, 13756, Note_on_c, 0, 65, 100
2, 13772, Note_on_c, 0, 68, 0
2, 13824, Note_on_c, 0, 59, 100
2, 13836, Note_on_c, 0, 65, 0
2, 13888, Note_on_c, 0, 68, 100
2, 13904, Note_on_c, 0, 59, 0
2, 13952, Note_on_c, 0, 65, 100
2, 13968, Note_on_c, 0, 68, 0
2, 14016, Note_on_c, 0, 59, 100
2, 14016, Note_on_c, 0, 80, 100
2, 14016, Note_on_c, 0, 77, 100
2, 14016, Note_on_c, 0, 74, 100
2, 14032, Note_on_c, 0, 65, 0
2, 14076, Note_on_c, 0, 68, 100
2, 14096, Note_on_c, 0, 59, 0
2, 14140, Note_on_c, 0, 65, 100
2, 14156, Note_on_c, 0, 68, 0
2, 14204, Note_on_c, 0, 74, 0
2, 14204, Note_on_c, 0, 77, 0
2, 14204, Note_on_c, 0, 80, 0
2, 14208, Note_on_c, 0, 59, 100
2, 14208, Note_on_c, 0, 80, 100
2, 14208, Note_on_c, 0, 77, 100
2, 14208, Note_on_c, 0, 74, 100
2, 14220, Note_on_c, 0, 65, 0
2, 14272, Note_on_c, 0, 68, 100
2, 14288, Note_on_c, 0, 59, 0
2, 14336, Note_on_c, 0, 65, 100
2, 14352, Note_on_c, 0, 68, 0
2, 14396, Note_on_c, 0, 74, 0
2, 14396, Note_on_c, 0, 77, 0
2, 14396, Note_on_c, 0, 80, 0
2, 14400, Note_on_c, 0, 59, 100
2, 14416, Note_on_c, 0, 65, 0
2, 14460, Note_on_c, 0, 68, 100
2, 14480, Note_on_c, 0, 59, 0
2, 14524, Note_on_c, 0, 65, 100
2, 14540, Note_on_c, 0, 68, 0
2, 14592, Note_on_c, 0, 58, 100
2, 14604, Note_on_c, 0, 65, 0
2, 14656, Note_on_c, 0, 67, 100
2, 14672, Note_on_c, 0, 58, 0
2, 14720, Note_on_c, 0, 63, 100
2, 14736, Note_on_c, 0, 67, 0
2, 14784, Note_on_c, 0, 58, 100
2, 14784, Note_on_c, 0, 75, 100
2, 14784, Note_on_c, 0, 79, 100
2, 14800, Note_on_c, 0, 63, 0
2, 14844, Note_on_c, 0, 67, 100
2, 14864, Note_on_c, 0, 58, 0
2, 14908, Note_on_c, 0, 63, 100
2, 14924, Note_on_c, 0, 67, 0
2, 14972, Note_on_c, 0, 79, 0
2, 14972, Note_on_c, 0, 75, 0
2, 14976, Note_on_c, 0, 58, 100
2, 14976, Note_on_c, 0, 75, 100
2, 14976, Note_on_c, 0, 79, 100
2, 14988, Note_on_c, 0, 63, 0
2, 15040, Note_on_c, 0, 67, 100
2, 15056, Note_on_c, 0, 58, 0
2, 15104, Note_on_c, 0, 63, 100
2, 15120, Note_on_c, 0, 67, 0
2, 15164, Note_on_c, 0, 79, 0
2, 15164, Note_on_c, 0, 75, 0
2, 15168, Note_on_c, 0, 58, 100
2, 15184, Note_on_c, 0, 63, 0
2, 15228, Note_on_c, 0, 67, 100
2, 15248, Note_on_c, 0, 58, 0
2, 15292, Note_on_c, 0, 63, 100
2, 15308, Note_on_c, 0, 67, 0
2, 15360, Note_on_c, 0, 60, 100
2, 15372, Note_on_c, 0, 63, 0
2, 15424, Note_on_c, 0, 62, 100
2, 15440, Note_on_c, 0, 60, 0
2, 15488, Note_on_c, 0, 63, 100
2, 15504, Note_on_c, 0, 62, 0
2, 15552, Note_on_c, 0, 65, 100
2, 15552, Note_on_c, 0, 72, 100
2, 15568, Note_on_c, 0, 63, 0
2, 15612, Note_on_c, 0, 67, 100
2, 15676, Note_on_c, 0, 68, 100
2, 15692, Note_on_c, 0, 67, 0
2, 15740, Note_on_c, 0, 65, 0
2, 15740, Note_on_c, 0, 72, 0
2, 15744, Note_on_c, 0, 58, 100
2, 15744, Note_on_c, 0, 74, 100
2, 15756, Note_on_c, 0, 68, 0
2, 15808, Note_on_c, 0, 68, 100
2, 15824, Note_on_c, 0, 58, 0
2, 15872, Note_on_c, 0, 67, 100
2, 15888, Note_on_c, 0, 68, 0
2, 15932, Note_on_c, 0, 74, 0
2, 15936, Note_on_c, 0, 65, 100
2, 15952, Note_on_c, 0, 67, 0
2, 15996, Note_on_c, 0, 63, 100
2, 16016, Note_on_c, 0, 65, 0
2, 16060, Note_on_c, 0, 62, 100
2, 16076, Note_on_c, 0, 63, 0
2, 16128, Note_on_c, 0, 63, 100
2, 16140, Note_on_c, 0, 62, 0
2, 16192, Note_on_c, 0, 65, 100
2, 16208, Note_on_c, 0, 63, 0
2, 16256, Note_on_c, 0, 67, 100
2, 16272, Note_on_c, 0, 65, 0
2, 16320, Note_on_c, 0, 68, 100
2, 16320, Note_on_c, 0, 75, 100
2, 16336, Note_on_c, 0, 67, 0
2, 16380, Note_on_c, 0, 70, 100
2, 16400, Note_on_c, 0, 68, 0
2, 16444, Note_on_c, 0, 72, 100
2, 16460, Note_on_c, 0, 70, 0
2, 16508, Note_on_c, 0, 75, 0
2, 16512, Note_on_c, 0, 62, 100
2, 16512, Note_on_c, 0, 77, 100
2, 16524, Note_on_c, 0, 72, 0
2, 16576, Note_on_c, 0, 72, 100
2, 16592, Note_on_c, 0, 62, 0
2, 16640, Note_on_c, 0, 70, 100
2, 16656, Note_on_c, 0, 72, 0
2, 16700, Note_on_c, 0, 77, 0
2, 16704, Note_on_c, 0, 68, 100
2, 16720, Note_on_c, 0, 70, 0
2, 16764, Note_on_c, 0, 67, 100
2, 16784, Note_on_c, 0, 68, 0
2, 16828, Note_on_c, 0, 65, 100
2, 16844, Note_on_c, 0, 67, 0
2, 16896, Note_on_c, 0, 67, 100
2, 16908, Note_on_c, 0, 65, 0
2, 16960, Note_on_c, 0, 75, 100
2, 16976, Note_on_c, 0, 67, 0
2, 17024, Note_on_c, 0, 74, 100
2, 17040, Note_on_c, 0, 75, 0
2, 17088, Note_on_c, 0, 72, 100
2, 17104, Note_on_c, 0, 74, 0
2, 17148, Note_on_c, 0, 70, 100
2, 17168, Note_on_c, 0, 72, 0
2, 17212, Note_on_c, 0, 68, 100
2, 17228, Note_on_c, 0, 70, 0
2, 17280, Note_on_c, 0, 67, 100
2, 17292, Note_on_c, 0, 68, 0
2, 17344, Note_on_c, 0, 70, 100
2, 17360, Note_on_c, 0, 67, 0
2, 17408, Note_on_c, 0, 75, 100
2, 17424, Note_on_c, 0, 70, 0
2, 17472, Note_on_c, 0, 65, 100
2, 17488, Note_on_c, 0, 75, 0
2, 17532, Note_on_c, 0, 68, 100
2, 17552, Note_on_c, 0, 65, 0
2, 17596, Note_on_c, 0, 74, 100
2, 17612, Note_on_c, 0, 68, 0
2, 17664, Note_on_c, 0, 75, 100
2, 17676, Note_on_c, 0, 74, 0
2, 17728, Note_on_c, 0, 70, 100
2, 17744, Note_on_c, 0, 75, 0
2, 17792, Note_on_c, 0, 67, 100
2, 17808, Note_on_c, 0, 70, 0
2, 17856, Note_on_c, 0, 72, 100
2, 17856, Note_on_c, 0, 75, 100
2, 17872, Note_on_c, 0, 67, 0
2, 17916, Note_on_c, 0, 68, 100
2, 17936, Note_on_c, 0, 72, 0
2, 17980, Note_on_c, 0, 63, 100
2, 17984, Note_on_c, 0, 75, 0
2, 17996, Note_on_c, 0, 68, 0
2, 18048, Note_on_c, 0, 70, 100
2, 18048, Note_on_c, 0, 75, 100
2, 18060, Note_on_c, 0, 63, 0
2, 18112, Note_on_c, 0, 67, 100
2, 18128, Note_on_c, 0, 70, 0
2, 18176, Note_on_c, 0, 75, 0
2, 18176, Note_on_c, 0, 63, 100
2, 18192, Note_on_c, 0, 67, 0
2, 18240, Note_on_c, 0, 68, 100
2, 18256, Note_on_c, 0, 63, 0
2, 18300, Note_on_c, 0, 65, 100
2, 18320, Note_on_c, 0, 68, 0
2, 18364, Note_on_c, 0, 62, 100
2, 18380, Note_on_c, 0, 65, 0
2, 18432, Note_on_c, 0, 67, 100
2, 18444, Note_on_c, 0, 62, 0
2, 18496, Note_on_c, 0, 63, 100
2, 18512, Note_on_c, 0, 67, 0
2, 18560, Note_on_c, 0, 58, 100
2, 18576, Note_on_c, 0, 63, 0
2, 18624, Note_on_c, 0, 68, 100
2, 18624, Note_on_c, 0, 75, 100
2, 18640, Note_on_c, 0, 58, 0
2, 18684, Note_on_c, 0, 63, 100
2, 18704, Note_on_c, 0, 68, 0
2, 18748, Note_on_c, 0, 60, 100
2, 18752, Note_on_c, 0, 75, 0
2, 18764, Note_on_c, 0, 63, 0
2, 18816, Note_on_c, 0, 67, 100
2, 18816, Note_on_c, 0, 75, 100
2, 18828, Note_on_c, 0, 60, 0
2, 18880, Note_on_c, 0, 63, 100
2, 18896, Note_on_c, 0, 67, 0
2, 18944, Note_on_c, 0, 75, 0
2, 18944, Note_on_c, 0, 58, 100
2, 18960, Note_on_c, 0, 63, 0
2, 19008, Note_on_c, 0, 65, 100
2, 19024, Note_on_c, 0, 58, 0
2, 19068, Note_on_c, 0, 62, 100
2, 19088, Note_on_c, 0, 65, 0
2, 19132, Note_on_c, 0, 56, 100
2, 19148, Note_on_c, 0, 62, 0
2, 19200, Note_on_c, 0, 55, 100
2, 19212, Note_on_c, 0, 56, 0
2, 19264, Note_on_c, 0, 58, 100
2, 19280, Note_on_c, 0, 55, 0
2, 19328, Note_on_c, 0, 63, 100
2, 19344, Note_on_c, 0, 58, 0
2, 19392, Note_on_c, 0, 60, 100
2, 19408, Note_on_c, 0, 63, 0
2, 19452, Note_on_c, 0, 63, 100
2, 19472, Note_on_c, 0, 60, 0
2, 19516, Note_on_c, 0, 68, 100
2, 19532, Note_on_c, 0, 63, 0
2, 19584, Note_on_c, 0, 63, 100
2, 19596, Note_on_c, 0, 68, 0
2, 19768, Note_on_c, 0, 63, 0
2, 19776, Note_on_c, 0, 62, 100
2, 19796, Note_on_c, 0, 63, 100
2, 19816, Note_on_c, 0, 62, 0
2, 19836, Note_on_c, 0, 63, 0
2, 19836, Note_on_c, 0, 62, 100
2, 19900, Note_on_c, 0, 63, 100
2, 19916, Note_on_c, 0, 62, 0
2, 19964, Note_on_c, 0, 63, 0
2, 19968, Note_on_c, 0, 63, 100
2, 20096, Note_on_c, 0, 63, 0
2, 20160, Note_on_c, 0, 75, 100
2, 20372, Note_on_c, 0, 75, 0
2, 20416, Note_on_c, 0, 70, 100
2, 20480, Note_on_c, 0, 69, 100
2, 20496, Note_on_c, 0, 70, 0
2, 20544, Note_on_c, 0, 68, 100
2, 20560, Note_on_c, 0, 69, 0
2, 20604, Note_on_c, 0, 67, 100
2, 20624, Note_on_c, 0, 68, 0
2, 20668, Note_on_c, 0, 66, 100
2, 20684, Note_on_c, 0, 67, 0
2, 20736, Note_on_c, 0, 67, 100
2, 20748, Note_on_c, 0, 66, 0
2, 20864, Note_on_c, 0, 67, 0
2, 20928, Note_on_c, 0, 74, 100
2, 21128, Note_on_c, 0, 74, 0
2, 21184, Note_on_c, 0, 75, 100
2, 21248, Note_on_c, 0, 76, 100
2, 21264, Note_on_c, 0, 75, 0
2, 21312, Note_on_c, 0, 77, 100
2, 21328, Note_on_c, 0, 76, 0
2, 21372, Note_on_c, 0, 78, 100
2, 21392, Note_on_c, 0, 77, 0
2, 21436, Note_on_c, 0, 79, 100
2, 21452, Note_on_c, 0, 78, 0
2, 21504, Note_on_c, 0, 72, 100
2, 21516, Note_on_c, 0, 79, 0
2, 21560, Note_on_c, 0, 70, 100
2, 21568, Note_on_c, 0, 72, 0
2, 21592, Note_on_c, 0, 72, 100
2, 21596, Note_on_c, 0, 70, 0
2, 21624, Note_on_c, 0, 70, 100
2, 21628, Note_on_c, 0, 72, 0
2, 21656, Note_on_c, 0, 72, 100
2, 21660, Note_on_c, 0, 70, 0
2, 21676, Note_on_c, 0, 70, 100
2, 21692, Note_on_c, 0, 72, 0
2, 21708, Note_on_c, 0, 72, 100
2, 21712, Note_on_c, 0, 70, 0
2, 21740, Note_on_c, 0, 70, 100
2, 21744, Note_on_c, 0, 72, 0
2, 21772, Note_on_c, 0, 72, 100
2, 21776, Note_on_c, 0, 70, 0
2, 21804, Note_on_c, 0, 70, 100
2, 21808, Note_on_c, 0, 72, 0
2, 21836, Note_on_c, 0, 72, 100
2, 21840, Note_on_c, 0, 70, 0
2, 21868, Note_on_c, 0, 70, 100
2, 21872, Note_on_c, 0, 72, 0
2, 21936, Note_on_c, 0, 70, 0
2, 21952, Note_on_c, 0, 69, 100
2, 22016, Note_on_c, 0, 67, 100
2, 22032, Note_on_c, 0, 69, 0
2, 22080, Note_on_c, 0, 66, 100
2, 22096, Note_on_c, 0, 67, 0
2, 22140, Note_on_c, 0, 67, 100
2, 22160, Note_on_c, 0, 66, 0
2, 22204, Note_on_c, 0, 64, 100
2, 22220, Note_on_c, 0, 67, 0
2, 22272, Note_on_c, 0, 66, 100
2, 22284, Note_on_c, 0, 64, 0
2, 22336, Note_on_c, 0, 62, 100
2, 22352, Note_on_c, 0, 66, 0
2, 22404, Note_on_c, 0, 66, 100
2, 22416, Note_on_c, 0, 62, 0
2, 22464, Note_on_c, 0, 69, 100
2, 22484, Note_on_c, 0, 66, 0
2, 22524, Note_on_c, 0, 72, 100
2, 22544, Note_on_c, 0, 69, 0
2, 22588, Note_on_c, 0, 75, 100
2, 22604, Note_on_c, 0, 72, 0
2, 22656, Note_on_c, 0, 81, 100
2, 22668, Note_on_c, 0, 75, 0
2, 22720, Note_on_c, 0, 75, 100
2, 22736, Note_on_c, 0, 81, 0
2, 22788, Note_on_c, 0, 74, 100
2, 22800, Note_on_c, 0, 75, 0
2, 22848, Note_on_c, 0, 72, 100
2, 22868, Note_on_c, 0, 74, 0
2, 22908, Note_on_c, 0, 70, 100
2, 22928, Note_on_c, 0, 72, 0
2, 22972, Note_on_c, 0, 69, 100
2, 22988, Note_on_c, 0, 70, 0
2, 23040, Note_on_c, 0, 70, 100
2, 23052, Note_on_c, 0, 69, 0
2, 23104, Note_on_c, 0, 74, 100
2, 23120, Note_on_c, 0, 70, 0
2, 23172, Note_on_c, 0, 79, 100
2, 23184, Note_on_c, 0, 74, 0
2, 23232, Note_on_c, 0, 75, 100
2, 23252, Note_on_c, 0, 79, 0
2, 23292, Note_on_c, 0, 74, 100
2, 23312, Note_on_c, 0, 75, 0
2, 23356, Note_on_c, 0, 72, 100
2, 23372, Note_on_c, 0, 74, 0
2, 23424, Note_on_c, 0, 70, 100
2, 23436, Note_on_c, 0, 72, 0
2, 23488, Note_on_c, 0, 69, 100
2, 23504, Note_on_c, 0, 70, 0
2, 23556, Note_on_c, 0, 67, 100
2, 23568, Note_on_c, 0, 69, 0
2, 23616, Note_on_c, 0, 69, 100
2, 23636, Note_on_c, 0, 67, 0
2, 23676, Note_on_c, 0, 67, 100
2, 23696, Note_on_c, 0, 69, 0
2, 23740, Note_on_c, 0, 66, 100
2, 23756, Note_on_c, 0, 67, 0
2, 23808, Note_on_c, 0, 67, 100
2, 23820, Note_on_c, 0, 66, 0
2, 23872, Note_on_c, 0, 62, 100
2, 23888, Note_on_c, 0, 67, 0
2, 23940, Note_on_c, 0, 59, 100
2, 23952, Note_on_c, 0, 62, 0
2, 24000, Note_on_c, 0, 55, 100
2, 24020, Note_on_c, 0, 59, 0
2, 24188, Note_on_c, 0, 55, 0
2, 24576, Note_on_c, 0, 84, 100
2, 24640, Note_on_c, 0, 79, 100
2, 24668, Note_on_c, 0, 84, 0
2, 24704, Note_on_c, 0, 75, 100
2, 24732, Note_on_c, 0, 79, 0
2, 24768, Note_on_c, 0, 72, 100
2, 24796, Note_on_c, 0, 75, 0
2, 24828, Note_on_c, 0, 67, 100
2, 24860, Note_on_c, 0, 72, 0
2, 24892, Note_on_c, 0, 63, 100
2, 24920, Note_on_c, 0, 67, 0
2, 24960, Note_on_c, 0, 60, 100
2, 24984, Note_on_c, 0, 63, 0
2, 25088, Note_on_c, 0, 60, 0
2, 25152, Note_on_c, 0, 84, 100
2, 25152, Note_on_c, 0, 79, 100
2, 25152, Note_on_c, 0, 75, 100
2, 25340, Note_on_c, 0, 75, 0
2, 25340, Note_on_c, 0, 79, 0
2, 25340, Note_on_c, 0, 84, 0
2, 25344, Note_on_c, 0, 75, 100
2, 25344, Note_on_c, 0, 79, 100
2, 25344, Note_on_c, 0, 84, 100
2, 25532, Note_on_c, 0, 84, 0
2, 25532, Note_on_c, 0, 79, 0
2, 25532, Note_on_c, 0, 75, 0
2, 25536, Note_on_c, 0, 83, 100
2, 25536, Note_on_c, 0, 74, 100
2, 25664, Note_on_c, 0, 74, 0
2, 25664, Note_on_c, 0, 83, 0
2, 25712, Note_on_c, 0, 79, 100
2, 25764, Note_on_c, 0, 77, 100
2, 25800, Note_on_c, 0, 77, 0
2, 25800, Note_on_c, 0, 79, 100
2, 25832, Note_on_c, 0, 77, 100
2, 25836, Note_on_c, 0, 79, 0
2, 25864, Note_on_c, 0, 79, 100
2, 25868, Note_on_c, 0, 77, 0
2, 25900, Note_on_c, 0, 79, 0
2, 25900, Note_on_c, 0, 77, 100
2, 25932, Note_on_c, 0, 79, 100
2, 25936, Note_on_c, 0, 77, 0
2, 25964, Note_on_c, 0, 77, 100
2, 25968, Note_on_c, 0, 79, 0
2, 25968, Note_on_c, 0, 79, 0
2, 25996, Note_on_c, 0, 76, 100
2, 26000, Note_on_c, 0, 77, 0
2, 26044, Note_on_c, 0, 76, 0
2, 26044, Note_on_c, 0, 77, 100
2, 26092, Note_on_c, 0, 77, 0
2, 26112, Note_on_c, 0, 82, 100
2, 26176, Note_on_c, 0, 79, 100
2, 26204, Note_on_c, 0, 82, 0
2, 26240, Note_on_c, 0, 76, 100
2, 26268, Note_on_c, 0, 79, 0
2, 26304, Note_on_c, 0, 72, 100
2, 26332, Note_on_c, 0, 76, 0
2, 26364, Note_on_c, 0, 67, 100
2, 26396, Note_on_c, 0, 72, 0
2, 26428, Note_on_c, 0, 64, 100
2, 26456, Note_on_c, 0, 67, 0
2, 26496, Note_on_c, 0, 60, 100
2, 26520, Note_on_c, 0, 64, 0
2, 26624, Note_on_c, 0, 60, 0
2, 26688, Note_on_c, 0, 82, 100
2, 26688, Note_on_c, 0, 79, 100
2, 26688, Note_on_c, 0, 72, 100
2, 26876, Note_on_c, 0, 72, 0
2, 26876, Note_on_c, 0, 79, 0
2, 26876, Note_on_c, 0, 82, 0
2, 26880, Note_on_c, 0, 82, 100
2, 26880, Note_on_c, 0, 72, 100
2, 26880, Note_on_c, 0, 79, 100
2, 27068, Note_on_c, 0, 79, 0
2, 27068, Note_on_c, 0, 72, 0
2, 27068, Note_on_c, 0, 82, 0
2, 27072, Note_on_c, 0, 81, 100
2, 27072, Note_on_c, 0, 77, 100
2, 27200, Note_on_c, 0, 77, 0
2, 27200, Note_on_c, 0, 81, 0
2, 27248, Note_on_c, 0, 74, 100
2, 27300, Note_on_c, 0, 72, 100
2, 27320, Note_on_c, 0, 74, 0
2, 27336, Note_on_c, 0, 72, 0
2, 27336, Note_on_c, 0, 74, 100
2, 27368, Note_on_c, 0, 72, 100
2, 27372, Note_on_c, 0, 74, 0
2, 27400, Note_on_c, 0, 74, 100
2, 27404, Note_on_c, 0, 72, 0
2, 27436, Note_on_c, 0, 74, 0
2, 27436, Note_on_c, 0, 72, 100
2, 27468, Note_on_c, 0, 74, 100
2, 27472, Note_on_c, 0, 72, 0
2, 27500, Note_on_c, 0, 72, 100
2, 27504, Note_on_c, 0, 74, 0
2, 27532, Note_on_c, 0, 71, 100
2, 27536, Note_on_c, 0, 72, 0
2, 27580, Note_on_c, 0, 71, 0
2, 27580, Note_on_c, 0, 72, 100
2, 27628, Note_on_c, 0, 72, 0
2, 27648, Note_on_c, 0, 80, 100
2, 27712, Note_on_c, 0, 77, 100
2, 27728, Note_on_c, 0, 80, 0
2, 27776, Note_on_c, 0, 74, 100
2, 27792, Note_on_c, 0, 77, 0
2, 27840, Note_on_c, 0, 71, 100
2, 27856, Note_on_c, 0, 74, 0
2, 27900, Note_on_c, 0, 65, 100
2, 27920, Note_on_c, 0, 71, 0
2, 27964, Note_on_c, 0, 62, 100
2, 27980, Note_on_c, 0, 65, 0
2, 28032, Note_on_c, 0, 59, 100
2, 28044, Note_on_c, 0, 62, 0
2, 28160, Note_on_c, 0, 59, 0
2, 28224, Note_on_c, 0, 80, 100
2, 28224, Note_on_c, 0, 77, 100
2, 28224, Note_on_c, 0, 74, 100
2, 28224, Note_on_c, 0, 71, 100
2, 28324, Note_on_c, 0, 71, 0
2, 28324, Note_on_c, 0, 80, 0
2, 28324, Note_on_c, 0, 77, 0
2, 28324, Note_on_c, 0, 74, 0
2, 28416, Note_on_c, 0, 80, 100
2, 28416, Note_on_c, 0, 77, 100
2, 28416, Note_on_c, 0, 74, 100
2, 28416, Note_on_c, 0, 71, 100
2, 28608, Note_on_c, 0, 79, 100
2, 28608, Note_on_c, 0, 75, 100
2, 28608, Note_on_c, 0, 72, 100
2, 28616, Note_on_c, 0, 71, 0
2, 28616, Note_on_c, 0, 74, 0
2, 28616, Note_on_c, 0, 80, 0
2, 28616, Note_on_c, 0, 77, 0
2, 28752, Note_on_c, 0, 72, 0
2, 28752, Note_on_c, 0, 79, 0
2, 28752, Note_on_c, 0, 75, 0
2, 29248, Note_on_c, 0, 72, 100
2, 29312, Note_on_c, 0, 74, 100
2, 29328, Note_on_c, 0, 72, 0
2, 29376, Note_on_c, 0, 75, 100
2, 29392, Note_on_c, 0, 74, 0
2, 29436, Note_on_c, 0, 77, 100
2, 29456, Note_on_c, 0, 75, 0
2, 29500, Note_on_c, 0, 79, 100
2, 29516, Note_on_c, 0, 77, 0
2, 29568, Note_on_c, 0, 80, 110
2, 29580, Note_on_c, 0, 79, 0
2, 29632, Note_on_c, 0, 79, 100
2, 29656, Note_on_c, 0, 80, 0
2, 29696, Note_on_c, 0, 77, 100
2, 29712, Note_on_c, 0, 79, 0
2, 29760, Note_on_c, 0, 75, 100
2, 29776, Note_on_c, 0, 77, 0
2, 29820, Note_on_c, 0, 74, 100
2, 29840, Note_on_c, 0, 75, 0
2, 29884, Note_on_c, 0, 72, 100
2, 29900, Note_on_c, 0, 74, 0
2, 29952, Note_on_c, 0, 71, 100
2, 29964, Note_on_c, 0, 72, 0
2, 30016, Note_on_c, 0, 74, 100
2, 30032, Note_on_c, 0, 71, 0
2, 30080, Note_on_c, 0, 72, 100
2, 30096, Note_on_c, 0, 74, 0
2, 30144, Note_on_c, 0, 71, 100
2, 30160, Note_on_c, 0, 72, 0
2, 30204, Note_on_c, 0, 69, 100
2, 30224, Note_on_c, 0, 71, 0
2, 30268, Note_on_c, 0, 67, 100
2, 30284, Note_on_c, 0, 69, 0
2, 30336, Note_on_c, 0, 65, 110
2, 30348, Note_on_c, 0, 67, 0
2, 30400, Note_on_c, 0, 68, 100
2, 30416, Note_on_c, 0, 65, 0
2, 30464, Note_on_c, 0, 67, 100
2, 30480, Note_on_c, 0, 68, 0
2, 30528, Note_on_c, 0, 65, 100
2, 30544, Note_on_c, 0, 67, 0
2, 30588, Note_on_c, 0, 63, 100
2, 30608, Note_on_c, 0, 65, 0
2, 30652, Note_on_c, 0, 62, 100
2, 30668, Note_on_c, 0, 63, 0
2, 30720, Note_on_c, 0, 63, 100
2, 30732, Note_on_c, 0, 62, 0
2, 30756, Note_on_c, 0, 62, 100
2, 30768, Note_on_c, 0, 63, 0
2, 30796, Note_on_c, 0, 63, 100
2, 30804, Note_on_c, 0, 62, 0
2, 30912, Note_on_c, 0, 60, 100
2, 30956, Note_on_c, 0, 63, 0
2, 31040, Note_on_c, 0, 60, 0
2, 31168, Note_on_c, 0, 74, 100
2, 31232, Note_on_c, 0, 75, 100
2, 31248, Note_on_c, 0, 74, 0
2, 31296, Note_on_c, 0, 76, 100
2, 31312, Note_on_c, 0, 75, 0
2, 31356, Note_on_c, 0, 77, 100
2, 31376, Note_on_c, 0, 76, 0
2, 31420, Note_on_c, 0, 78, 100
2, 31436, Note_on_c, 0, 77, 0
2, 31488, Note_on_c, 0, 79, 100
2, 31500, Note_on_c, 0, 78, 0
2, 31552, Note_on_c, 0, 78, 100
2, 31568, Note_on_c, 0, 79, 0
2, 31616, Note_on_c, 0, 81, 100
2, 31632, Note_on_c, 0, 78, 0
2, 31668, Note_on_c, 0, 81, 0
2, 31680, Note_on_c, 0, 75, 100
2, 31740, Note_on_c, 0, 74, 100
2, 31772, Note_on_c, 0, 75, 0
2, 31804, Note_on_c, 0, 79, 100
2, 31820, Note_on_c, 0, 74, 0
2, 31856, Note_on_c, 0, 79, 0
2, 31872, Note_on_c, 0, 72, 100
2, 31936, Note_on_c, 0, 71, 100
2, 31964, Note_on_c, 0, 72, 0
2, 32000, Note_on_c, 0, 74, 100
2, 32016, Note_on_c, 0, 71, 0
2, 32052, Note_on_c, 0, 74, 0
2, 32064, Note_on_c, 0, 68, 100
2, 32124, Note_on_c, 0, 67, 100
2, 32156, Note_on_c, 0, 68, 0
2, 32188, Note_on_c, 0, 77, 100
2, 32204, Note_on_c, 0, 67, 0
2, 32240, Note_on_c, 0, 77, 0
2, 32256, Note_on_c, 0, 76, 100
2, 32320, Note_on_c, 0, 73, 100
2, 32332, Note_on_c, 0, 76, 0
2, 32384, Note_on_c, 0, 70, 100
2, 32396, Note_on_c, 0, 73, 0
2, 32448, Note_on_c, 0, 67, 100
2, 32460, Note_on_c, 0, 70, 0
2, 32624, Note_on_c, 0, 67, 0
2, 32704, Note_on_c, 0, 72, 100
2, 32768, Note_on_c, 0, 73, 100
2, 32784, Note_on_c, 0, 72, 0
2, 32832, Note_on_c, 0, 74, 100
2, 32848, Note_on_c, 0, 73, 0
2, 32892, Note_on_c, 0, 75, 100
2, 32912, Note_on_c, 0, 74, 0
2, 32956, Note_on_c, 0, 76, 100
2, 32972, Note_on_c, 0, 75, 0
2, 33024, Note_on_c, 0, 77, 100
2, 33036, Note_on_c, 0, 76, 0
2, 33088, Note_on_c, 0, 76, 100
2, 33116, Note_on_c, 0, 77, 0
2, 33152, Note_on_c, 0, 79, 100
2, 33168, Note_on_c, 0, 76, 0
2, 33204, Note_on_c, 0, 79, 0
2, 33216, Note_on_c, 0, 73, 100
2, 33276, Note_on_c, 0, 72, 100
2, 33308, Note_on_c, 0, 73, 0
2, 33340, Note_on_c, 0, 77, 100
2, 33356, Note_on_c, 0, 72, 0
2, 33392, Note_on_c, 0, 77, 0
2, 33408, Note_on_c, 0, 70, 100
2, 33472, Note_on_c, 0, 69, 100
2, 33500, Note_on_c, 0, 70, 0
2, 33536, Note_on_c, 0, 72, 100
2, 33552, Note_on_c, 0, 69, 0
2, 33588, Note_on_c, 0, 72, 0
2, 33600, Note_on_c, 0, 66, 100
2, 33660, Note_on_c, 0, 65, 100
2, 33692, Note_on_c, 0, 66, 0
2, 33724, Note_on_c, 0, 75, 100
2, 33740, Note_on_c, 0, 65, 0
2, 33776, Note_on_c, 0, 75, 0
2, 33792, Note_on_c, 0, 74, 100
2, 33856, Note_on_c, 0, 71, 100
2, 33884, Note_on_c, 0, 74, 0
2, 33920, Note_on_c, 0, 68, 100
2, 33948, Note_on_c, 0, 71, 0
2, 33984, Note_on_c, 0, 65, 100
2, 34012, Note_on_c, 0, 68, 0
2, 34076, Note_on_c, 0, 65, 0
2, 34240, Note_on_c, 0, 77, 100
2, 34304, Note_on_c, 0, 75, 100
2, 34332, Note_on_c, 0, 77, 0
2, 34368, Note_on_c, 0, 74, 100
2, 34396, Note_on_c, 0, 75, 0
2, 34428, Note_on_c, 0, 72, 100
2, 34460, Note_on_c, 0, 74, 0
2, 34492, Note_on_c, 0, 71, 100
2, 34520, Note_on_c, 0, 72, 0
2, 34552, Note_on_c, 0, 71, 0
2, 34560, Note_on_c, 0, 71, 100
2, 34624, Note_on_c, 0, 72, 100
2, 34652, Note_on_c, 0, 71, 0
2, 34688, Note_on_c, 0, 67, 100
2, 34716, Note_on_c, 0, 72, 0
2, 34752, Note_on_c, 0, 63, 100
2, 34780, Note_on_c, 0, 67, 0
2, 34940, Note_on_c, 0, 63, 0
2, 35008, Note_on_c, 0, 75, 100
2, 35072, Note_on_c, 0, 74, 100
2, 35100, Note_on_c, 0, 75, 0
2, 35136, Note_on_c, 0, 72, 100
2, 35164, Note_on_c, 0, 74, 0
2, 35196, Note_on_c, 0, 74, 100
2, 35228, Note_on_c, 0, 72, 0
2, 35260, Note_on_c, 0, 75, 100
2, 35288, Note_on_c, 0, 74, 0
2, 35328, Note_on_c, 0, 65, 100
2, 35352, Note_on_c, 0, 75, 0
2, 35384, Note_on_c, 0, 63, 100
2, 35416, Note_on_c, 0, 65, 100
2, 35420, Note_on_c, 0, 63, 0
2, 35448, Note_on_c, 0, 63, 100
2, 35452, Note_on_c, 0, 65, 0
2, 35480, Note_on_c, 0, 65, 100
2, 35484, Note_on_c, 0, 63, 0
2, 35500, Note_on_c, 0, 63, 100
2, 35516, Note_on_c, 0, 65, 0
2, 35532, Note_on_c, 0, 65, 100
2, 35536, Note_on_c, 0, 63, 0
2, 35564, Note_on_c, 0, 63, 100
2, 35568, Note_on_c, 0, 65, 0
2, 35596, Note_on_c, 0, 65, 100
2, 35600, Note_on_c, 0, 63, 0
2, 35628, Note_on_c, 0, 63, 100
2, 35632, Note_on_c, 0, 65, 0
2, 35660, Note_on_c, 0, 65, 100
2, 35664, Note_on_c, 0, 63, 0
2, 35692, Note_on_c, 0, 63, 100
2, 35696, Note_on_c, 0, 65, 0
2, 35724, Note_on_c, 0, 65, 100
2, 35728, Note_on_c, 0, 63, 0
2, 35756, Note_on_c, 0, 63, 100
2, 35760, Note_on_c, 0, 65, 0
2, 35788, Note_on_c, 0, 65, 100
2, 35792, Note_on_c, 0, 63, 0
2, 35820, Note_on_c, 0, 63, 100
2, 35824, Note_on_c, 0, 65, 0
2, 35852, Note_on_c, 0, 65, 100
2, 35856, Note_on_c, 0, 63, 0
2, 35884, Note_on_c, 0, 63, 100
2, 35888, Note_on_c, 0, 65, 0
2, 35916, Note_on_c, 0, 65, 100
2, 35920, Note_on_c, 0, 63, 0
2, 35948, Note_on_c, 0, 63, 100
2, 35952, Note_on_c, 0, 65, 0
2, 35952, Note_on_c, 0, 65, 0
2, 36000, Note_on_c, 0, 63, 0
2, 36000, Note_on_c, 0, 62, 100
2, 36036, Note_on_c, 0, 62, 0
2, 36048, Note_on_c, 0, 63, 100
2, 36084, Note_on_c, 0, 63, 0
2, 36096, Note_on_c, 0, 63, 100
2, 36096, Note_on_c, 0, 60, 100
2, 36284, Note_on_c, 0, 60, 0
2, 36284, Note_on_c, 0, 63, 0
2, 36288, Note_on_c, 0, 59, 100
2, 36288, Note_on_c, 0, 62, 100
2, 36476, Note_on_c, 0, 62, 0
2, 36476, Note_on_c, 0, 59, 0
2, 36928, Note_on_c, 0, 70, 100
2, 36992, Note_on_c, 0, 67, 100
2, 37008, Note_on_c, 0, 70, 0
2, 37056, Note_on_c, 0, 61, 100
2, 37056, Note_on_c, 0, 82, 100
2, 37056, Note_on_c, 0, 79, 100
2, 37056, Note_on_c, 0, 76, 100
2, 37072, Note_on_c, 0, 67, 0
2, 37116, Note_on_c, 0, 70, 100
2, 37136, Note_on_c, 0, 61, 0
2, 37180, Note_on_c, 0, 67, 100
2, 37196, Note_on_c, 0, 70, 0
2, 37244, Note_on_c, 0, 76, 0
2, 37244, Note_on_c, 0, 79, 0
2, 37244, Note_on_c, 0, 82, 0
2, 37248, Note_on_c, 0, 61, 100
2, 37248, Note_on_c, 0, 82, 100
2, 37248, Note_on_c, 0, 79, 100
2, 37248, Note_on_c, 0, 76, 100
2, 37260, Note_on_c, 0, 67, 0
2, 37312, Note_on_c, 0, 70, 100
2, 37328, Note_on_c, 0, 61, 0
2, 37376, Note_on_c, 0, 67, 100
2, 37392, Note_on_c, 0, 70, 0
2, 37436, Note_on_c, 0, 76, 0
2, 37436, Note_on_c, 0, 79, 0
2, 37436, Note_on_c, 0, 82, 0
2, 37440, Note_on_c, 0, 61, 100
2, 37456, Note_on_c, 0, 67, 0
2, 37500, Note_on_c, 0, 70, 100
2, 37520, Note_on_c, 0, 61, 0
2, 37564, Note_on_c, 0, 67, 100
2, 37580, Note_on_c, 0, 70, 0
2, 37632, Note_on_c, 0, 60, 100
2, 37644, Note_on_c, 0, 67, 0
2, 37696, Note_on_c, 0, 68, 100
2, 37712, Note_on_c, 0, 60, 0
2, 37760, Note_on_c, 0, 65, 100
2, 37776, Note_on_c, 0, 68, 0
2, 37824, Note_on_c, 0, 60, 100
2, 37824, Note_on_c, 0, 77, 100
2, 37824, Note_on_c, 0, 80, 100
2, 37884, Note_on_c, 0, 68, 100
2, 37904, Note_on_c, 0, 60, 0
2, 37948, Note_on_c, 0, 65, 100
2, 37964, Note_on_c, 0, 68, 0
2, 38012, Note_on_c, 0, 80, 0
2, 38012, Note_on_c, 0, 77, 0
2, 38016, Note_on_c, 0, 60, 100
2, 38016, Note_on_c, 0, 80, 100
2, 38016, Note_on_c, 0, 77, 100
2, 38028, Note_on_c, 0, 65, 0
2, 38080, Note_on_c, 0, 68, 100
2, 38096, Note_on_c, 0, 60, 0
2, 38144, Note_on_c, 0, 65, 100
2, 38160, Note_on_c, 0, 68, 0
2, 38204, Note_on_c, 0, 77, 0
2, 38204, Note_on_c, 0, 80, 0
2, 38208, Note_on_c, 0, 60, 100
2, 38224, Note_on_c, 0, 65, 0
2, 38268, Note_on_c, 0, 68, 100
2, 38288, Note_on_c, 0, 60, 0
2, 38332, Note_on_c, 0, 65, 100
2, 38348, Note_on_c, 0, 68, 0
2, 38400, Note_on_c, 0, 59, 100
2, 38404, Note_on_c, 0, 65, 0
2, 38464, Note_on_c, 0, 68, 100
2, 38480, Note_on_c, 0, 59, 0
2, 38528, Note_on_c, 0, 65, 100
2, 38544, Note_on_c, 0, 68, 0
2, 38592, Note_on_c, 0, 59, 100
2, 38592, Note_on_c, 0, 80, 100
2, 38592, Note_on_c, 0, 77, 100
2, 38592, Note_on_c, 0, 74, 100
2, 38608, Note_on_c, 0, 65, 0
2, 38652, Note_on_c, 0, 68, 100
2, 38672, Note_on_c, 0, 59, 0
2, 38716, Note_on_c, 0, 65, 100
2, 38732, Note_on_c, 0, 68, 0
2, 38780, Note_on_c, 0, 77, 0
2, 38780, Note_on_c, 0, 80, 0
2, 38780, Note_on_c, 0, 74, 0
2, 38784, Note_on_c, 0, 59, 100
2, 38784, Note_on_c, 0, 80, 100
2, 38784, Note_on_c, 0, 77, 100
2, 38784, Note_on_c, 0, 74, 100
2, 38796, Note_on_c, 0, 65, 0
2, 38848, Note_on_c, 0, 68, 100
2, 38864, Note_on_c, 0, 59, 0
2, 38912, Note_on_c, 0, 65, 100
2, 38928, Note_on_c, 0, 68, 0
2, 38972, Note_on_c, 0, 77, 0
2, 38972, Note_on_c, 0, 80, 0
2, 38972, Note_on_c, 0, 74, 0
2, 38976, Note_on_c, 0, 59, 100
2, 38992, Note_on_c, 0, 65, 0
2, 39036, Note_on_c, 0, 68, 100
2, 39056, Note_on_c, 0, 59, 0
2, 39100, Note_on_c, 0, 65, 100
2, 39116, Note_on_c, 0, 68, 0
2, 39168, Note_on_c, 0, 58, 100
2, 39180, Note_on_c, 0, 65, 0
2, 39180, Note_on_c, 0, 65, 0
2, 39232, Note_on_c, 0, 67, 100
2, 39248, Note_on_c, 0, 58, 0
2, 39296, Note_on_c, 0, 63, 100
2, 39312, Note_on_c, 0, 67, 0
2, 39360, Note_on_c, 0, 58, 100
2, 39360, Note_on_c, 0, 75, 100
2, 39360, Note_on_c, 0, 79, 100
2, 39376, Note_on_c, 0, 63, 0
2, 39420, Note_on_c, 0, 67, 100
2, 39440, Note_on_c, 0, 58, 0
2, 39484, Note_on_c, 0, 63, 100
2, 39500, Note_on_c, 0, 67, 0
2, 39548, Note_on_c, 0, 75, 0
2, 39552, Note_on_c, 0, 58, 100
2, 39552, Note_on_c, 0, 75, 100
2, 39552, Note_on_c, 0, 79, 100
2, 39564, Note_on_c, 0, 63, 0
2, 39616, Note_on_c, 0, 67, 100
2, 39632, Note_on_c, 0, 58, 0
2, 39680, Note_on_c, 0, 63, 100
2, 39696, Note_on_c, 0, 67, 0
2, 39740, Note_on_c, 0, 79, 0
2, 39740, Note_on_c, 0, 79, 0
2, 39740, Note_on_c, 0, 75, 0
2, 39744, Note_on_c, 0, 58, 100
2, 39760, Note_on_c, 0, 63, 0
2, 39804, Note_on_c, 0, 67, 100
2, 39824, Note_on_c, 0, 58, 0
2, 39868, Note_on_c, 0, 63, 100
2, 39884, Note_on_c, 0, 67, 0
2, 39936, Note_on_c, 0, 60, 100
2, 39948, Note_on_c, 0, 63, 0
2, 40000, Note_on_c, 0, 62, 100
2, 40016, Note_on_c, 0, 60, 0
2, 40064, Note_on_c, 0, 63, 100
2, 40080, Note_on_c, 0, 62, 0
2, 40128, Note_on_c, 0, 65, 100
2, 40128, Note_on_c, 0, 72, 100
2, 40144, Note_on_c, 0, 63, 0
2, 40188, Note_on_c, 0, 67, 100
2, 40252, Note_on_c, 0, 68, 100
2, 40268, Note_on_c, 0, 67, 0
2, 40316, Note_on_c, 0, 65, 0
2, 40316, Note_on_c, 0, 72, 0
2, 40320, Note_on_c, 0, 58, 100
2, 40320, Note_on_c, 0, 74, 100
2, 40332, Note_on_c, 0, 68, 0
2, 40384, Note_on_c, 0, 68, 100
2, 40400, Note_on_c, 0, 58, 0
2, 40448, Note_on_c, 0, 67, 100
2, 40464, Note_on_c, 0, 68, 0
2, 40508, Note_on_c, 0, 74, 0
2, 40512, Note_on_c, 0, 65, 100
2, 40528, Note_on_c, 0, 67, 0
2, 40572, Note_on_c, 0, 63, 100
2, 40636, Note_on_c, 0, 62, 100
2, 40652, Note_on_c, 0, 63, 0
2, 40704, Note_on_c, 0, 63, 100
2, 40716, Note_on_c, 0, 62, 0
2, 40768, Note_on_c, 0, 65, 100
2, 40784, Note_on_c, 0, 63, 0
2, 40832, Note_on_c, 0, 67, 100
2, 40848, Note_on_c, 0, 65, 0
2, 40848, Note_on_c, 0, 65, 0
2, 40896, Note_on_c, 0, 68, 100
2, 40896, Note_on_c, 0, 75, 100
2, 40912, Note_on_c, 0, 67, 0
2, 40956, Note_on_c, 0, 70, 100
2, 40976, Note_on_c, 0, 68, 0
2, 41020, Note_on_c, 0, 72, 100
2, 41036, Note_on_c, 0, 70, 0
2, 41084, Note_on_c, 0, 75, 0
2, 41088, Note_on_c, 0, 62, 100
2, 41088, Note_on_c, 0, 77, 100
2, 41100, Note_on_c, 0, 72, 0
2, 41152, Note_on_c, 0, 72, 100
2, 41168, Note_on_c, 0, 62, 0
2, 41216, Note_on_c, 0, 70, 100
2, 41232, Note_on_c, 0, 72, 0
2, 41276, Note_on_c, 0, 77, 0
2, 41280, Note_on_c, 0, 68, 100
2, 41296, Note_on_c, 0, 70, 0
2, 41340, Note_on_c, 0, 67, 100
2, 41360, Note_on_c, 0, 68, 0
2, 41404, Note_on_c, 0, 65, 100
2, 41420, Note_on_c, 0, 67, 0
2, 41472, Note_on_c, 0, 67, 100
2, 41484, Note_on_c, 0, 65, 0
2, 41536, Note_on_c, 0, 75, 100
2, 41552, Note_on_c, 0, 67, 0
2, 41600, Note_on_c, 0, 74, 100
2, 41616, Note_on_c, 0, 75, 0
2, 41664, Note_on_c, 0, 72, 100
2, 41680, Note_on_c, 0, 74, 0
2, 41724, Note_on_c, 0, 70, 100
2, 41744, Note_on_c, 0, 72, 0
2, 41788, Note_on_c, 0, 68, 100
2, 41804, Note_on_c, 0, 70, 0
2, 41856, Note_on_c, 0, 67, 100
2, 41868, Note_on_c, 0, 68, 0
2, 41920, Note_on_c, 0, 70, 100
2, 41936, Note_on_c, 0, 67, 0
2, 41984, Note_on_c, 0, 75, 100
2, 42000, Note_on_c, 0, 70, 0
2, 42048, Note_on_c, 0, 65, 100
2, 42064, Note_on_c, 0, 75, 0
2, 42108, Note_on_c, 0, 68, 100
2, 42128, Note_on_c, 0, 65, 0
2, 42172, Note_on_c, 0, 74, 100
2, 42188, Note_on_c, 0, 68, 0
2, 42240, Note_on_c, 0, 75, 100
2, 42252, Note_on_c, 0, 74, 0
2, 42304, Note_on_c, 0, 70, 100
2, 42320, Note_on_c, 0, 75, 0
2, 42368, Note_on_c, 0, 67, 100
2, 42384, Note_on_c, 0, 70, 0
2, 42432, Note_on_c, 0, 72, 100
2, 42432, Note_on_c, 0, 75, 100
2, 42448, Note_on_c, 0, 67, 0
2, 42492, Note_on_c, 0, 68, 100
2, 42512, Note_on_c, 0, 72, 0
2, 42556, Note_on_c, 0, 63, 100
2, 42560, Note_on_c, 0, 75, 0
2, 42572, Note_on_c, 0, 68, 0
2, 42624, Note_on_c, 0, 70, 100
2, 42624, Note_on_c, 0, 75, 100
2, 42636, Note_on_c, 0, 63, 0
2, 42688, Note_on_c, 0, 67, 100
2, 42704, Note_on_c, 0, 70, 0
2, 42752, Note_on_c, 0, 75, 0
2, 42752, Note_on_c, 0, 63, 100
2, 42768, Note_on_c, 0, 67, 0
2, 42816, Note_on_c, 0, 68, 100
2, 42832, Note_on_c, 0, 63, 0
2, 42876, Note_on_c, 0, 65, 100
2, 42896, Note_on_c, 0, 68, 0
2, 42940, Note_on_c, 0, 62, 100
2, 42956, Note_on_c, 0, 65, 0
2, 43008, Note_on_c, 0, 67, 100
2, 43020, Note_on_c, 0, 62, 0
2, 43072, Note_on_c, 0, 63, 100
2, 43088, Note_on_c, 0, 67, 0
2, 43136, Note_on_c, 0, 58, 100
2, 43152, Note_on_c, 0, 63, 0
2, 43200, Note_on_c, 0, 68, 100
2, 43200, Note_on_c, 0, 75, 100
2, 43216, Note_on_c, 0, 58, 0
2, 43260, Note_on_c, 0, 63, 100
2, 43280, Note_on_c, 0, 68, 0
2, 43324, Note_on_c, 0, 60, 100
2, 43328, Note_on_c, 0, 75, 0
2, 43340, Note_on_c, 0, 63, 0
2, 43392, Note_on_c, 0, 67, 100
2, 43392, Note_on_c, 0, 75, 100
2, 43404, Note_on_c, 0, 60, 0
2, 43456, Note_on_c, 0, 63, 100
2, 43472, Note_on_c, 0, 67, 0
2, 43520, Note_on_c, 0, 75, 0
2, 43520, Note_on_c, 0, 58, 100
2, 43536, Note_on_c, 0, 63, 0
2, 43584, Note_on_c, 0, 65, 100
2, 43600, Note_on_c, 0, 58, 0
2, 43644, Note_on_c, 0, 62, 100
2, 43664, Note_on_c, 0, 65, 0
2, 43708, Note_on_c, 0, 56, 100
2, 43724, Note_on_c, 0, 62, 0
2, 43776, Note_on_c, 0, 55, 100
2, 43788, Note_on_c, 0, 56, 0
2, 43840, Note_on_c, 0, 58, 100
2, 43856, Note_on_c, 0, 55, 0
2, 43904, Note_on_c, 0, 63, 100
2, 43920, Note_on_c, 0, 58, 0
2, 43968, Note_on_c, 0, 60, 100
2, 43984, Note_on_c, 0, 63, 0
2, 44028, Note_on_c, 0, 63, 100
2, 44048, Note_on_c, 0, 60, 0
2, 44092, Note_on_c, 0, 68, 100
2, 44108, Note_on_c, 0, 63, 0
2, 44160, Note_on_c, 0, 63, 100
2, 44172, Note_on_c, 0, 68, 0
2, 44344, Note_on_c, 0, 63, 0
2, 44352, Note_on_c, 0, 62, 100
2, 44372, Note_on_c, 0, 63, 100
2, 44392, Note_on_c, 0, 62, 0
2, 44412, Note_on_c, 0, 63, 0
2, 44412, Note_on_c, 0, 62, 100
2, 44476, Note_on_c, 0, 63, 100
2, 44492, Note_on_c, 0, 62, 0
2, 44540, Note_on_c, 0, 63, 0
2, 44544, Note_on_c, 0, 63, 100
2, 44672, Note_on_c, 0, 63, 0
2, 44736, Note_on_c, 0, 75, 100
2, 44948, Note_on_c, 0, 75, 0
2, 44992, Note_on_c, 0, 70, 100
2, 45056, Note_on_c, 0, 69, 100
2, 45072, Note_on_c, 0, 70, 0
2, 45120, Note_on_c, 0, 68, 100
2, 45136, Note_on_c, 0, 69, 0
2, 45180, Note_on_c, 0, 67, 100
2, 45200, Note_on_c, 0, 68, 0
2, 45244, Note_on_c, 0, 66, 100
2, 45260, Note_on_c, 0, 67, 0
2, 45312, Note_on_c, 0, 67, 100
2, 45324, Note_on_c, 0, 66, 0
2, 45440, Note_on_c, 0, 67, 0
2, 45504, Note_on_c, 0, 74, 100
2, 45704, Note_on_c, 0, 74, 0
2, 45760, Note_on_c, 0, 75, 100
2, 45824, Note_on_c, 0, 76, 100
2, 45840, Note_on_c, 0, 75, 0
2, 45888, Note_on_c, 0, 77, 100
2, 45904, Note_on_c, 0, 76, 0
2, 45948, Note_on_c, 0, 78, 100
2, 45968, Note_on_c, 0, 77, 0
2, 46012, Note_on_c, 0, 79, 100
2, 46028, Note_on_c, 0, 78, 0
2, 46080, Note_on_c, 0, 72, 100
2, 46092, Note_on_c, 0, 79, 0
2, 46136, Note_on_c, 0, 70, 100
2, 46144, Note_on_c, 0, 72, 0
2, 46168, Note_on_c, 0, 72, 100
2, 46172, Note_on_c, 0, 70, 0
2, 46200, Note_on_c, 0, 70, 100
2, 46204, Note_on_c, 0, 72, 0
2, 46232, Note_on_c, 0, 72, 100
2, 46236, Note_on_c, 0, 70, 0
2, 46252, Note_on_c, 0, 70, 100
2, 46268, Note_on_c, 0, 72, 0
2, 46284, Note_on_c, 0, 72, 100
2, 46288, Note_on_c, 0, 70, 0
2, 46316, Note_on_c, 0, 70, 100
2, 46320, Note_on_c, 0, 72, 0
2, 46348, Note_on_c, 0, 72, 100
2, 46352, Note_on_c, 0, 70, 0
2, 46380, Note_on_c, 0, 70, 100
2, 46384, Note_on_c, 0, 72, 0
2, 46412, Note_on_c, 0, 72, 100
2, 46416, Note_on_c, 0, 70, 0
2, 46444, Note_on_c, 0, 70, 100
2, 46448, Note_on_c, 0, 72, 0
2, 46512, Note_on_c, 0, 70, 0
2, 46528, Note_on_c, 0, 69, 100
2, 46592, Note_on_c, 0, 67, 100
2, 46608, Note_on_c, 0, 69, 0
2, 46656, Note_on_c, 0, 66, 100
2, 46672, Note_on_c, 0, 67, 0
2, 46716, Note_on_c, 0, 67, 100
2, 46736, Note_on_c, 0, 66, 0
2, 46780, Note_on_c, 0, 64, 100
2, 46796, Note_on_c, 0, 67, 0
2, 46848, Note_on_c, 0, 66, 100
2, 46860, Note_on_c, 0, 64, 0
2, 46912, Note_on_c, 0, 62, 100
2, 46928, Note_on_c, 0, 66, 0
2, 46980, Note_on_c, 0, 66, 100
2, 46992, Note_on_c, 0, 62, 0
2, 47040, Note_on_c, 0, 69, 100
2, 47060, Note_on_c, 0, 66, 0
2, 47100, Note_on_c, 0, 72, 100
2, 47120, Note_on_c, 0, 69, 0
2, 47164, Note_on_c, 0, 75, 100
2, 47180, Note_on_c, 0, 72, 0
2, 47232, Note_on_c, 0, 81, 100
2, 47244, Note_on_c, 0, 75, 0
2, 47296, Note_on_c, 0, 75, 100
2, 47312, Note_on_c, 0, 81, 0
2, 47364, Note_on_c, 0, 74, 100
2, 47376, Note_on_c, 0, 75, 0
2, 47424, Note_on_c, 0, 72, 100
2, 47444, Note_on_c, 0, 74, 0
2, 47484, Note_on_c, 0, 70, 100
2, 47504, Note_on_c, 0, 72, 0
2, 47548, Note_on_c, 0, 69, 100
2, 47564, Note_on_c, 0, 70, 0
2, 47616, Note_on_c, 0, 70, 100
2, 47628, Note_on_c, 0, 69, 0
2, 47680, Note_on_c, 0, 74, 100
2, 47696, Note_on_c, 0, 70, 0
2, 47748, Note_on_c, 0, 79, 100
2, 47760, Note_on_c, 0, 74, 0
2, 47808, Note_on_c, 0, 75, 100
2, 47828, Note_on_c, 0, 79, 0
2, 47868, Note_on_c, 0, 74, 100
2, 47888, Note_on_c, 0, 75, 0
2, 47932, Note_on_c, 0, 72, 100
2, 47948, Note_on_c, 0, 74, 0
2, 48000, Note_on_c, 0, 70, 100
2, 48012, Note_on_c, 0, 72, 0
2, 48064, Note_on_c, 0, 69, 100
2, 48080, Note_on_c, 0, 70, 0
2, 48132, Note_on_c, 0, 67, 100
2, 48144, Note_on_c, 0, 69, 0
2, 48192, Note_on_c, 0, 69, 100
2, 48212, Note_on_c, 0, 67, 0
2, 48252, Note_on_c, 0, 67, 100
2, 48272, Note_on_c, 0, 69, 0
2, 48316, Note_on_c, 0, 66, 100
2, 48332, Note_on_c, 0, 67, 0
2, 48384, Note_on_c, 0, 67, 100
2, 48396, Note_on_c, 0, 66, 0
2, 48448, Note_on_c, 0, 62, 100
2, 48464, Note_on_c, 0, 67, 0
2, 48516, Note_on_c, 0, 59, 100
2, 48528, Note_on_c, 0, 62, 0
2, 48576, Note_on_c, 0, 55, 100
2, 48596, Note_on_c, 0, 59, 0
2, 48764, Note_on_c, 0, 55, 0
2, 49152, Note_on_c, 0, 79, 100
2, 49216, Note_on_c, 0, 74, 100
2, 49244, Note_on_c, 0, 79, 0
2, 49280, Note_on_c, 0, 70, 100
2, 49308, Note_on_c, 0, 74, 0
2, 49344, Note_on_c, 0, 67, 100
2, 49372, Note_on_c, 0, 70, 0
2, 49404, Note_on_c, 0, 62, 100
2, 49436, Note_on_c, 0, 67, 0
2, 49468, Note_on_c, 0, 58, 100
2, 49496, Note_on_c, 0, 62, 0
2, 49536, Note_on_c, 0, 55, 100
2, 49560, Note_on_c, 0, 58, 0
2, 49664, Note_on_c, 0, 55, 0
2, 49728, Note_on_c, 0, 79, 100
2, 49728, Note_on_c, 0, 74, 100
2, 49728, Note_on_c, 0, 82, 100
2, 49916, Note_on_c, 0, 82, 0
2, 49916, Note_on_c, 0, 74, 0
2, 49916, Note_on_c, 0, 79, 0
2, 49920, Note_on_c, 0, 74, 100
2, 49920, Note_on_c, 0, 79, 100
2, 49920, Note_on_c, 0, 82, 100
2, 50108, Note_on_c, 0, 82, 0
2, 50108, Note_on_c, 0, 79, 0
2, 50108, Note_on_c, 0, 74, 0
2, 50112, Note_on_c, 0, 78, 100
2, 50112, Note_on_c, 0, 81, 100
2, 50240, Note_on_c, 0, 81, 0
2, 50240, Note_on_c, 0, 78, 0
2, 50288, Note_on_c, 0, 75, 100
2, 50340, Note_on_c, 0, 74, 100
2, 50360, Note_on_c, 0, 75, 0
2, 50376, Note_on_c, 0, 74, 0
2, 50376, Note_on_c, 0, 75, 100
2, 50408, Note_on_c, 0, 74, 100
2, 50412, Note_on_c, 0, 75, 0
2, 50440, Note_on_c, 0, 75, 100
2, 50444, Note_on_c, 0, 74, 0
2, 50476, Note_on_c, 0, 75, 0
2, 50476, Note_on_c, 0, 74, 100
2, 50508, Note_on_c, 0, 75, 100
2, 50512, Note_on_c, 0, 74, 0
2, 50540, Note_on_c, 0, 74, 100
2, 50544, Note_on_c, 0, 75, 0
2, 50572, Note_on_c, 0, 73, 100
2, 50576, Note_on_c, 0, 74, 0
2, 50620, Note_on_c, 0, 73, 0
2, 50620, Note_on_c, 0, 74, 100
2, 50668, Note_on_c, 0, 74, 0
2, 50688, Note_on_c, 0, 84, 100
2, 50752, Note_on_c, 0, 81, 100
2, 50780, Note_on_c, 0, 84, 0
2, 50816, Note_on_c, 0, 78, 100
2, 50844, Note_on_c, 0, 81, 0
2, 50880, Note_on_c, 0, 74, 100
2, 50908, Note_on_c, 0, 78, 0
2, 50940, Note_on_c, 0, 69, 100
2, 50972, Note_on_c, 0, 74, 0
2, 51004, Note_on_c, 0, 66, 100
2, 51032, Note_on_c, 0, 69, 0
2, 51072, Note_on_c, 0, 62, 100
2, 51096, Note_on_c, 0, 66, 0
2, 51200, Note_on_c, 0, 62, 0
2, 51264, Note_on_c, 0, 84, 100
2, 51264, Note_on_c, 0, 81, 100
2, 51264, Note_on_c, 0, 74, 100
2, 51264, Note_on_c, 0, 78, 100
2, 51452, Note_on_c, 0, 78, 0
2, 51452, Note_on_c, 0, 84, 0
2, 51452, Note_on_c, 0, 81, 0
2, 51452, Note_on_c, 0, 74, 0
2, 51456, Note_on_c, 0, 84, 100
2, 51456, Note_on_c, 0, 74, 100
2, 51456, Note_on_c, 0, 81, 100
2, 51456, Note_on_c, 0, 78, 100
2, 51644, Note_on_c, 0, 78, 0
2, 51644, Note_on_c, 0, 84, 0
2, 51644, Note_on_c, 0, 74, 0
2, 51644, Note_on_c, 0, 81, 0
2, 51648, Note_on_c, 0, 82, 100
2, 51648, Note_on_c, 0, 79, 100
2, 51776, Note_on_c, 0, 79, 0
2, 51776, Note_on_c, 0, 82, 0
2, 51824, Note_on_c, 0, 75, 100
2, 51876, Note_on_c, 0, 74, 100
2, 51896, Note_on_c, 0, 75, 0
2, 51912, Note_on_c, 0, 74, 0
2, 51912, Note_on_c, 0, 75, 100
2, 51944, Note_on_c, 0, 74, 100
2, 51948, Note_on_c, 0, 75, 0
2, 51976, Note_on_c, 0, 75, 100
2, 51980, Note_on_c, 0, 74, 0
2, 52012, Note_on_c, 0, 75, 0
2, 52012, Note_on_c, 0, 74, 100
2, 52044, Note_on_c, 0, 75, 100
2, 52048, Note_on_c, 0, 74, 0
2, 52076, Note_on_c, 0, 74, 100
2, 52080, Note_on_c, 0, 75, 0
2, 52108, Note_on_c, 0, 73, 100
2, 52112, Note_on_c, 0, 74, 0
2, 52156, Note_on_c, 0, 73, 0
2, 52156, Note_on_c, 0, 74, 100
2, 52204, Note_on_c, 0, 74, 0
2, 52224, Note_on_c, 0, 77, 100
2, 52288, Note_on_c, 0, 74, 100
2, 52316, Note_on_c, 0, 77, 0
2, 52352, Note_on_c, 0, 71, 100
2, 52380, Note_on_c, 0, 74, 0
2, 52416, Note_on_c, 0, 68, 100
2, 52444, Note_on_c, 0, 71, 0
2, 52476, Note_on_c, 0, 65, 100
2, 52508, Note_on_c, 0, 68, 0
2, 52540, Note_on_c, 0, 62, 100
2, 52568, Note_on_c, 0, 65, 0
2, 52608, Note_on_c, 0, 55, 100
2, 52632, Note_on_c, 0, 62, 0
2, 52700, Note_on_c, 0, 55, 0
2, 52800, Note_on_c, 0, 77, 100
2, 53028, Note_on_c, 0, 77, 0
2, 53056, Note_on_c, 0, 79, 100
2, 53120, Note_on_c, 0, 75, 100
2, 53132, Note_on_c, 0, 79, 0
2, 53184, Note_on_c, 0, 72, 100
2, 53196, Note_on_c, 0, 75, 0
2, 53244, Note_on_c, 0, 67, 100
2, 53260, Note_on_c, 0, 72, 0
2, 53308, Note_on_c, 0, 63, 100
2, 53320, Note_on_c, 0, 67, 0
2, 53376, Note_on_c, 0, 60, 100
2, 53384, Note_on_c, 0, 63, 0
2, 53504, Note_on_c, 0, 60, 0
2, 53568, Note_on_c, 0, 75, 100
2, 53808, Note_on_c, 0, 75, 0
2, 53824, Note_on_c, 0, 72, 100
2, 53888, Note_on_c, 0, 69, 100
2, 53916, Note_on_c, 0, 72, 0
2, 53952, Note_on_c, 0, 66, 100
2, 53980, Note_on_c, 0, 69, 0
2, 54012, Note_on_c, 0, 63, 100
2, 54044, Note_on_c, 0, 66, 0
2, 54076, Note_on_c, 0, 60, 100
2, 54104, Note_on_c, 0, 63, 0
2, 54144, Note_on_c, 0, 57, 100
2, 54168, Note_on_c, 0, 60, 0
2, 54272, Note_on_c, 0, 57, 0
2, 54336, Note_on_c, 0, 75, 100
2, 54564, Note_on_c, 0, 75, 0
2, 54592, Note_on_c, 0, 77, 100
2, 54656, Note_on_c, 0, 74, 100
2, 54668, Note_on_c, 0, 77, 0
2, 54720, Note_on_c, 0, 70, 100
2, 54732, Note_on_c, 0, 74, 0
2, 54780, Note_on_c, 0, 65, 100
2, 54796, Note_on_c, 0, 70, 0
2, 54844, Note_on_c, 0, 62, 100
2, 54856, Note_on_c, 0, 65, 0
2, 54912, Note_on_c, 0, 58, 100
2, 54920, Note_on_c, 0, 62, 0
2, 55040, Note_on_c, 0, 58, 0
2, 55104, Note_on_c, 0, 74, 100
2, 55360, Note_on_c, 0, 67, 100
2, 55368, Note_on_c, 0, 74, 0
2, 55424, Note_on_c, 0, 68, 100
2, 55432, Note_on_c, 0, 67, 0
2, 55488, Note_on_c, 0, 69, 100
2, 55496, Note_on_c, 0, 68, 0
2, 55548, Note_on_c, 0, 70, 100
2, 55560, Note_on_c, 0, 69, 0
2, 55612, Note_on_c, 0, 71, 100
2, 55620, Note_on_c, 0, 70, 0
2, 55680, Note_on_c, 0, 72, 100
2, 55684, Note_on_c, 0, 71, 0
2, 55708, Note_on_c, 0, 71, 100
2, 55716, Note_on_c, 0, 72, 0
2, 55740, Note_on_c, 0, 72, 100
2, 55744, Note_on_c, 0, 71, 0
2, 55980, Note_on_c, 0, 72, 0
2, 56128, Note_on_c, 0, 74, 100
2, 56196, Note_on_c, 0, 72, 100
2, 56200, Note_on_c, 0, 74, 0
2, 56256, Note_on_c, 0, 71, 100
2, 56268, Note_on_c, 0, 72, 0
2, 56316, Note_on_c, 0, 70, 100
2, 56328, Note_on_c, 0, 71, 0
2, 56380, Note_on_c, 0, 69, 100
2, 56388, Note_on_c, 0, 70, 0
2, 56448, Note_on_c, 0, 70, 100
2, 56452, Note_on_c, 0, 69, 0
2, 56576, Note_on_c, 0, 70, 0
2, 56640, Note_on_c, 0, 79, 100
2, 56768, Note_on_c, 0, 79, 0
2, 56896, Note_on_c, 0, 72, 100
2, 56964, Note_on_c, 0, 73, 100
2, 56968, Note_on_c, 0, 72, 0
2, 57024, Note_on_c, 0, 74, 100
2, 57036, Note_on_c, 0, 73, 0
2, 57084, Note_on_c, 0, 75, 100
2, 57096, Note_on_c, 0, 74, 0
2, 57148, Note_on_c, 0, 76, 100
2, 57156, Note_on_c, 0, 75, 0
2, 57216, Note_on_c, 0, 77, 100
2, 57220, Note_on_c, 0, 76, 0
2, 57248, Note_on_c, 0, 76, 100
2, 57252, Note_on_c, 0, 77, 0
2, 57284, Note_on_c, 0, 76, 0
2, 57284, Note_on_c, 0, 77, 100
2, 57596, Note_on_c, 0, 77, 0
2, 57664, Note_on_c, 0, 79, 100
2, 57732, Note_on_c, 0, 77, 100
2, 57736, Note_on_c, 0, 79, 0
2, 57792, Note_on_c, 0, 76, 100
2, 57804, Note_on_c, 0, 77, 0
2, 57852, Note_on_c, 0, 75, 100
2, 57864, Note_on_c, 0, 76, 0
2, 57916, Note_on_c, 0, 74, 100
2, 57924, Note_on_c, 0, 75, 0
2, 57984, Note_on_c, 0, 75, 100
2, 57988, Note_on_c, 0, 74, 0
2, 58112, Note_on_c, 0, 75, 0
2, 58176, Note_on_c, 0, 84, 100
2, 58432, Note_on_c, 0, 77, 100
2, 58440, Note_on_c, 0, 84, 0
2, 58500, Note_on_c, 0, 78, 100
2, 58504, Note_on_c, 0, 77, 0
2, 58560, Note_on_c, 0, 79, 100
2, 58572, Note_on_c, 0, 78, 0
2, 58620, Note_on_c, 0, 80, 100
2, 58632, Note_on_c, 0, 79, 0
2, 58684, Note_on_c, 0, 81, 100
2, 58692, Note_on_c, 0, 80, 0
2, 58752, Note_on_c, 0, 82, 100
2, 58756, Note_on_c, 0, 81, 0
2, 58784, Note_on_c, 0, 81, 100
2, 58788, Note_on_c, 0, 82, 0
2, 58820, Note_on_c, 0, 81, 0
2, 58820, Note_on_c, 0, 82, 100
2, 59132, Note_on_c, 0, 82, 0
2, 59200, Note_on_c, 0, 84, 100
2, 59268, Note_on_c, 0, 82, 100
2, 59272, Note_on_c, 0, 84, 0
2, 59328, Note_on_c, 0, 81, 100
2, 59340, Note_on_c, 0, 82, 0
2, 59388, Note_on_c, 0, 80, 100
2, 59400, Note_on_c, 0, 81, 0
2, 59452, Note_on_c, 0, 79, 100
2, 59460, Note_on_c, 0, 80, 0
2, 59520, Note_on_c, 0, 80, 100
2, 59524, Note_on_c, 0, 79, 0
2, 59968, Note_on_c, 0, 77, 100
2, 59984, Note_on_c, 0, 80, 0
2, 60036, Note_on_c, 0, 76, 100
2, 60048, Note_on_c, 0, 77, 0
2, 60096, Note_on_c, 0, 77, 100
2, 60116, Note_on_c, 0, 76, 0
2, 60156, Note_on_c, 0, 79, 100
2, 60176, Note_on_c, 0, 77, 0
2, 60220, Note_on_c, 0, 80, 100
2, 60236, Note_on_c, 0, 79, 0
2, 60288, Note_on_c, 0, 82, 100
2, 60300, Note_on_c, 0, 80, 0
2, 60352, Note_on_c, 0, 78, 100
2, 60368, Note_on_c, 0, 82, 0
2, 60420, Note_on_c, 0, 77, 100
2, 60432, Note_on_c, 0, 78, 0
2, 60480, Note_on_c, 0, 78, 100
2, 60500, Note_on_c, 0, 77, 0
2, 60540, Note_on_c, 0, 80, 100
2, 60560, Note_on_c, 0, 78, 0
2, 60604, Note_on_c, 0, 82, 100
2, 60620, Note_on_c, 0, 80, 0
2, 60672, Note_on_c, 0, 76, 100
2, 60684, Note_on_c, 0, 82, 0
2, 60736, Note_on_c, 0, 82, 100
2, 60752, Note_on_c, 0, 76, 0
2, 60804, Note_on_c, 0, 79, 100
2, 60816, Note_on_c, 0, 82, 0
2, 60864, Note_on_c, 0, 76, 100
2, 60884, Note_on_c, 0, 79, 0
2, 60924, Note_on_c, 0, 72, 100
2, 60944, Note_on_c, 0, 76, 0
2, 60988, Note_on_c, 0, 71, 100
2, 61004, Note_on_c, 0, 72, 0
2, 61056, Note_on_c, 0, 72, 100
2, 61068, Note_on_c, 0, 71, 0
2, 61244, Note_on_c, 0, 72, 0
2, 61440, Note_on_c, 0, 75, 100
2, 61440, Note_on_c, 0, 72, 100
2, 61440, Note_on_c, 0, 69, 100
2, 61568, Note_on_c, 0, 69, 0
2, 61568, Note_on_c, 0, 72, 0
2, 61568, Note_on_c, 0, 75, 0
2, 62016, Note_on_c, 0, 75, 100
2, 62016, Note_on_c, 0, 72, 100
2, 62016, Note_on_c, 0, 69, 100
2, 62204, Note_on_c, 0, 69, 0
2, 62204, Note_on_c, 0, 72, 0
2, 62204, Note_on_c, 0, 75, 0
2, 62208, Note_on_c, 0, 73, 100
2, 62208, Note_on_c, 0, 70, 100
2, 62336, Note_on_c, 0, 70, 0
2, 62336, Note_on_c, 0, 73, 0
2, 62784, Note_on_c, 0, 73, 100
2, 62784, Note_on_c, 0, 70, 100
2, 62784, Note_on_c, 0, 68, 100
2, 62912, Note_on_c, 0, 68, 0
2, 62912, Note_on_c, 0, 70, 0
2, 62912, Note_on_c, 0, 73, 0
2, 62976, Note_on_c, 0, 67, 100
2, 62976, Note_on_c, 0, 70, 100
2, 62976, Note_on_c, 0, 73, 100
2, 63104, Note_on_c, 0, 73, 0
2, 63104, Note_on_c, 0, 70, 0
2, 63104, Note_on_c, 0, 67, 0
2, 63552, Note_on_c, 0, 67, 100
2, 63552, Note_on_c, 0, 70, 100
2, 63552, Note_on_c, 0, 73, 100
2, 63740, Note_on_c, 0, 73, 0
2, 63740, Note_on_c, 0, 70, 0
2, 63740, Note_on_c, 0, 67, 0
2, 63744, Note_on_c, 0, 68, 100
2, 63744, Note_on_c, 0, 72, 100
2, 63872, Note_on_c, 0, 72, 0
2, 63872, Note_on_c, 0, 68, 0
2, 64704, Note_on_c, 0, 65, 100
2, 64892, Note_on_c, 0, 65, 0
2, 64896, Note_on_c, 0, 67, 100
2, 65084, Note_on_c, 0, 67, 0
2, 65472, Note_on_c, 0, 68, 100
2, 65660, Note_on_c, 0, 68, 0
2, 65664, Note_on_c, 0, 70, 100
2, 65852, Note_on_c, 0, 70, 0
2, 66048, Note_on_c, 0, 60, 100
2, 66112, Note_on_c, 0, 68, 100
2, 66124, Note_on_c, 0, 60, 0
2, 66180, Note_on_c, 0, 67, 100
2, 66188, Note_on_c, 0, 68, 0
2, 66240, Note_on_c, 0, 65, 100
2, 66240, Note_on_c, 0, 73, 100
2, 66256, Note_on_c, 0, 67, 0
2, 66300, Note_on_c, 0, 63, 100
2, 66300, Note_on_c, 0, 72, 100
2, 66316, Note_on_c, 0, 73, 0
2, 66316, Note_on_c, 0, 65, 0
2, 66364, Note_on_c, 0, 61, 100
2, 66364, Note_on_c, 0, 70, 100
2, 66376, Note_on_c, 0, 63, 0
2, 66376, Note_on_c, 0, 72, 0
2, 66432, Note_on_c, 0, 60, 100
2, 66432, Note_on_c, 0, 75, 100
2, 66440, Note_on_c, 0, 61, 0
2, 66440, Note_on_c, 0, 70, 0
2, 66496, Note_on_c, 0, 63, 100
2, 66508, Note_on_c, 0, 60, 0
2, 66564, Note_on_c, 0, 68, 100
2, 66572, Note_on_c, 0, 63, 0
2, 66620, Note_on_c, 0, 75, 0
2, 66624, Note_on_c, 0, 58, 100
2, 66640, Note_on_c, 0, 68, 0
2, 66684, Note_on_c, 0, 61, 100
2, 66700, Note_on_c, 0, 58, 0
2, 66748, Note_on_c, 0, 67, 100
2, 66760, Note_on_c, 0, 61, 0
2, 66816, Note_on_c, 0, 60, 100
2, 66824, Note_on_c, 0, 67, 0
2, 66880, Note_on_c, 0, 63, 100
2, 66892, Note_on_c, 0, 60, 0
2, 66948, Note_on_c, 0, 68, 100
2, 66956, Note_on_c, 0, 63, 0
2, 67008, Note_on_c, 0, 72, 100
2, 67024, Note_on_c, 0, 68, 0
2, 67068, Note_on_c, 0, 67, 100
2, 67132, Note_on_c, 0, 68, 100
2, 67144, Note_on_c, 0, 67, 0
2, 67196, Note_on_c, 0, 72, 0
2, 67200, Note_on_c, 0, 75, 100
2, 67208, Note_on_c, 0, 68, 0
2, 67264, Note_on_c, 0, 67, 100
2, 67276, Note_on_c, 0, 75, 0
2, 67332, Note_on_c, 0, 68, 100
2, 67340, Note_on_c, 0, 67, 0
2, 67392, Note_on_c, 0, 75, 100
2, 67392, Note_on_c, 0, 72, 100
2, 67408, Note_on_c, 0, 68, 0
2, 67452, Note_on_c, 0, 67, 100
2, 67468, Note_on_c, 0, 75, 0
2, 67516, Note_on_c, 0, 68, 100
2, 67528, Note_on_c, 0, 67, 0
2, 67580, Note_on_c, 0, 72, 0
2, 67584, Note_on_c, 0, 77, 100
2, 67592, Note_on_c, 0, 68, 0
2, 67712, Note_on_c, 0, 77, 0
2, 67836, Note_on_c, 0, 67, 100
2, 67900, Note_on_c, 0, 68, 100
2, 67912, Note_on_c, 0, 67, 0
2, 67968, Note_on_c, 0, 77, 100
2, 67976, Note_on_c, 0, 68, 0
2, 68032, Note_on_c, 0, 67, 100
2, 68044, Note_on_c, 0, 77, 0
2, 68100, Note_on_c, 0, 68, 100
2, 68108, Note_on_c, 0, 67, 0
2, 68160, Note_on_c, 0, 77, 100
2, 68176, Note_on_c, 0, 68, 0
2, 68220, Note_on_c, 0, 67, 100
2, 68236, Note_on_c, 0, 77, 0
2, 68284, Note_on_c, 0, 68, 100
2, 68296, Note_on_c, 0, 67, 0
2, 68352, Note_on_c, 0, 77, 100
2, 68360, Note_on_c, 0, 68, 0
2, 68480, Note_on_c, 0, 77, 0
2, 68604, Note_on_c, 0, 67, 100
2, 68668, Note_on_c, 0, 68, 100
2, 68680, Note_on_c, 0, 67, 0
2, 68736, Note_on_c, 0, 77, 100
2, 68744, Note_on_c, 0, 68, 0
2, 68800, Note_on_c, 0, 67, 100
2, 68812, Note_on_c, 0, 77, 0
2, 68868, Note_on_c, 0, 68, 100
2, 68876, Note_on_c, 0, 67, 0
2, 68928, Note_on_c, 0, 77, 100
2, 68944, Note_on_c, 0, 68, 0
2, 68988, Note_on_c, 0, 67, 100
2, 69004, Note_on_c, 0, 77, 0
2, 69052, Note_on_c, 0, 68, 100
2, 69064, Note_on_c, 0, 67, 0
2, 69120, Note_on_c, 0, 77, 100
2, 69128, Note_on_c, 0, 68, 0
2, 69248, Note_on_c, 0, 77, 0
2, 69372, Note_on_c, 0, 67, 100
2, 69436, Note_on_c, 0, 68, 100
2, 69448, Note_on_c, 0, 67, 0
2, 69504, Note_on_c, 0, 77, 100
2, 69512, Note_on_c, 0, 68, 0
2, 69568, Note_on_c, 0, 67, 100
2, 69580, Note_on_c, 0, 77, 0
2, 69636, Note_on_c, 0, 68, 100
2, 69644, Note_on_c, 0, 67, 0
2, 69696, Note_on_c, 0, 77, 100
2, 69712, Note_on_c, 0, 68, 0
2, 69756, Note_on_c, 0, 67, 100
2, 69772, Note_on_c, 0, 77, 0
2, 69820, Note_on_c, 0, 68, 100
2, 69832, Note_on_c, 0, 67, 0
2, 69888, Note_on_c, 0, 77, 100
2, 69896, Note_on_c, 0, 68, 0
2, 70016, Note_on_c, 0, 77, 0
2, 70140, Note_on_c, 0, 67, 100
2, 70204, Note_on_c, 0, 68, 100
2, 70216, Note_on_c, 0, 67, 0
2, 70272, Note_on_c, 0, 77, 100
2, 70280, Note_on_c, 0, 68, 0
2, 70336, Note_on_c, 0, 67, 100
2, 70348, Note_on_c, 0, 77, 0
2, 70404, Note_on_c, 0, 68, 100
2, 70412, Note_on_c, 0, 67, 0
2, 70464, Note_on_c, 0, 77, 100
2, 70480, Note_on_c, 0, 68, 0
2, 70524, Note_on_c, 0, 67, 100
2, 70540, Note_on_c, 0, 77, 0
2, 70588, Note_on_c, 0, 68, 100
2, 70600, Note_on_c, 0, 67, 0
2, 70656, Note_on_c, 0, 75, 100
2, 70664, Note_on_c, 0, 68, 0
2, 70844, Note_on_c, 0, 75, 0
2, 70848, Note_on_c, 0, 70, 100
2, 70848, Note_on_c, 0, 72, 100
2, 70908, Note_on_c, 0, 68, 100
2, 70924, Note_on_c, 0, 70, 0
2, 70972, Note_on_c, 0, 67, 100
2, 70984, Note_on_c, 0, 68, 0
2, 71036, Note_on_c, 0, 72, 0
2, 71040, Note_on_c, 0, 65, 100
2, 71040, Note_on_c, 0, 80, 100
2, 71048, Note_on_c, 0, 67, 0
2, 71104, Note_on_c, 0, 68, 100
2, 71116, Note_on_c, 0, 65, 0
2, 71172, Note_on_c, 0, 72, 100
2, 71180, Note_on_c, 0, 68, 0
2, 71228, Note_on_c, 0, 80, 0
2, 71232, Note_on_c, 0, 77, 100
2, 71248, Note_on_c, 0, 72, 0
2, 71360, Note_on_c, 0, 77, 0
2, 71424, Note_on_c, 0, 74, 100
2, 71612, Note_on_c, 0, 74, 0
2, 71616, Note_on_c, 0, 68, 100
2, 71616, Note_on_c, 0, 70, 100
2, 71676, Note_on_c, 0, 67, 100
2, 71692, Note_on_c, 0, 68, 0
2, 71740, Note_on_c, 0, 65, 100
2, 71752, Note_on_c, 0, 67, 0
2, 71804, Note_on_c, 0, 70, 0
2, 71808, Note_on_c, 0, 63, 100
2, 71808, Note_on_c, 0, 79, 100
2, 71816, Note_on_c, 0, 65, 0
2, 71872, Note_on_c, 0, 67, 100
2, 71884, Note_on_c, 0, 79, 0
2, 71884, Note_on_c, 0, 63, 0
2, 71940, Note_on_c, 0, 70, 100
2, 71948, Note_on_c, 0, 67, 0
2, 72000, Note_on_c, 0, 75, 100
2, 72016, Note_on_c, 0, 70, 0
2, 72128, Note_on_c, 0, 75, 0
2, 72192, Note_on_c, 0, 72, 100
2, 72280, Note_on_c, 0, 72, 0
2, 72324, Note_on_c, 0, 65, 100
2, 72384, Note_on_c, 0, 70, 100
2, 72412, Note_on_c, 0, 65, 0
2, 72472, Note_on_c, 0, 70, 0
2, 72508, Note_on_c, 0, 64, 100
2, 72576, Note_on_c, 0, 68, 100
2, 72596, Note_on_c, 0, 64, 0
2, 72664, Note_on_c, 0, 68, 0
2, 72708, Note_on_c, 0, 62, 100
2, 72768, Note_on_c, 0, 67, 100
2, 72796, Note_on_c, 0, 62, 0
2, 72856, Note_on_c, 0, 67, 0
2, 72892, Note_on_c, 0, 60, 100
2, 72960, Note_on_c, 0, 66, 100
2, 72980, Note_on_c, 0, 60, 0
2, 73048, Note_on_c, 0, 66, 0
2, 73092, Note_on_c, 0, 72, 100
2, 73152, Note_on_c, 0, 66, 100
2, 73180, Note_on_c, 0, 72, 0
2, 73240, Note_on_c, 0, 66, 0
2, 73276, Note_on_c, 0, 60, 100
2, 73344, Note_on_c, 0, 66, 100
2, 73364, Note_on_c, 0, 60, 0
2, 73432, Note_on_c, 0, 66, 0
2, 73476, Note_on_c, 0, 72, 100
2, 73536, Note_on_c, 0, 66, 100
2, 73564, Note_on_c, 0, 72, 0
2, 73624, Note_on_c, 0, 66, 0
2, 73660, Note_on_c, 0, 60, 100
2, 73728, Note_on_c, 0, 63, 100
2, 73748, Note_on_c, 0, 60, 0
2, 73792, Note_on_c, 0, 67, 100
2, 73804, Note_on_c, 0, 63, 0
2, 73860, Note_on_c, 0, 68, 100
2, 73868, Note_on_c, 0, 67, 0
2, 73920, Note_on_c, 0, 69, 100
2, 73936, Note_on_c, 0, 68, 0
2, 73980, Note_on_c, 0, 70, 100
2, 73996, Note_on_c, 0, 69, 0
2, 74044, Note_on_c, 0, 71, 100
2, 74056, Note_on_c, 0, 70, 0
2, 74112, Note_on_c, 0, 72, 100
2, 74120, Note_on_c, 0, 71, 0
2, 74176, Note_on_c, 0, 74, 100
2, 74188, Note_on_c, 0, 72, 0
2, 74244, Note_on_c, 0, 75, 100
2, 74252, Note_on_c, 0, 74, 0
2, 74304, Note_on_c, 0, 76, 100
2, 74320, Note_on_c, 0, 75, 0
2, 74364, Note_on_c, 0, 77, 100
2, 74380, Note_on_c, 0, 76, 0
2, 74428, Note_on_c, 0, 78, 100
2, 74440, Note_on_c, 0, 77, 0
2, 74496, Note_on_c, 0, 79, 100
2, 74504, Note_on_c, 0, 78, 0
2, 74560, Note_on_c, 0, 74, 100
2, 74572, Note_on_c, 0, 79, 0
2, 74628, Note_on_c, 0, 71, 100
2, 74636, Note_on_c, 0, 74, 0
2, 74688, Note_on_c, 0, 67, 100
2, 74704, Note_on_c, 0, 71, 0
2, 74748, Note_on_c, 0, 62, 100
2, 74764, Note_on_c, 0, 67, 0
2, 74812, Note_on_c, 0, 59, 100
2, 74824, Note_on_c, 0, 62, 0
2, 74880, Note_on_c, 0, 55, 100
2, 74888, Note_on_c, 0, 59, 0
2, 75068, Note_on_c, 0, 55, 0
2, 75264, Note_on_c, 0, 84, 100
2, 75328, Note_on_c, 0, 79, 100
2, 75356, Note_on_c, 0, 84, 0
2, 75392, Note_on_c, 0, 75, 100
2, 75420, Note_on_c, 0, 79, 0
2, 75456, Note_on_c, 0, 72, 100
2, 75484, Note_on_c, 0, 75, 0
2, 75516, Note_on_c, 0, 67, 100
2, 75548, Note_on_c, 0, 72, 0
2, 75580, Note_on_c, 0, 63, 100
2, 75608, Note_on_c, 0, 67, 0
2, 75648, Note_on_c, 0, 60, 100
2, 75672, Note_on_c, 0, 63, 0
2, 75776, Note_on_c, 0, 60, 0
2, 75840, Note_on_c, 0, 84, 100
2, 75840, Note_on_c, 0, 79, 100
2, 75840, Note_on_c, 0, 75, 100
2, 76028, Note_on_c, 0, 75, 0
2, 76028, Note_on_c, 0, 79, 0
2, 76028, Note_on_c, 0, 84, 0
2, 76032, Note_on_c, 0, 75, 100
2, 76032, Note_on_c, 0, 79, 100
2, 76032, Note_on_c, 0, 84, 100
2, 76220, Note_on_c, 0, 84, 0
2, 76220, Note_on_c, 0, 79, 0
2, 76220, Note_on_c, 0, 75, 0
2, 76224, Note_on_c, 0, 83, 100
2, 76224, Note_on_c, 0, 74, 100
2, 76352, Note_on_c, 0, 74, 0
2, 76352, Note_on_c, 0, 83, 0
2, 76400, Note_on_c, 0, 79, 100
2, 76452, Note_on_c, 0, 77, 100
2, 76488, Note_on_c, 0, 77, 0
2, 76488, Note_on_c, 0, 79, 100
2, 76520, Note_on_c, 0, 77, 100
2, 76524, Note_on_c, 0, 79, 0
2, 76552, Note_on_c, 0, 79, 100
2, 76556, Note_on_c, 0, 77, 0
2, 76588, Note_on_c, 0, 79, 0
2, 76588, Note_on_c, 0, 77, 100
2, 76620, Note_on_c, 0, 79, 100
2, 76624, Note_on_c, 0, 77, 0
2, 76652, Note_on_c, 0, 77, 100
2, 76656, Note_on_c, 0, 79, 0
2, 76656, Note_on_c, 0, 79, 0
2, 76684, Note_on_c, 0, 76, 100
2, 76688, Note_on_c, 0, 77, 0
2, 76732, Note_on_c, 0, 76, 0
2, 76732, Note_on_c, 0, 77, 100
2, 76780, Note_on_c, 0, 77, 0
2, 76800, Note_on_c, 0, 82, 100
2, 76864, Note_on_c, 0, 79, 100
2, 76892, Note_on_c, 0, 82, 0
2, 76928, Note_on_c, 0, 76, 100
2, 76956, Note_on_c, 0, 79, 0
2, 76992, Note_on_c, 0, 72, 100
2, 77020, Note_on_c, 0, 76, 0
2, 77052, Note_on_c, 0, 67, 100
2, 77084, Note_on_c, 0, 72, 0
2, 77116, Note_on_c, 0, 64, 100
2, 77144, Note_on_c, 0, 67, 0
2, 77184, Note_on_c, 0, 60, 100
2, 77208, Note_on_c, 0, 64, 0
2, 77312, Note_on_c, 0, 60, 0
2, 77376, Note_on_c, 0, 82, 100
2, 77376, Note_on_c, 0, 79, 100
2, 77376, Note_on_c, 0, 72, 100
2, 77564, Note_on_c, 0, 72, 0
2, 77564, Note_on_c, 0, 79, 0
2, 77564, Note_on_c, 0, 82, 0
2, 77568, Note_on_c, 0, 82, 100
2, 77568, Note_on_c, 0, 72, 100
2, 77568, Note_on_c, 0, 79, 100
2, 77756, Note_on_c, 0, 79, 0
2, 77756, Note_on_c, 0, 72, 0
2, 77756, Note_on_c, 0, 82, 0
2, 77760, Note_on_c, 0, 81, 100
2, 77760, Note_on_c, 0, 77, 100
2, 77888, Note_on_c, 0, 77, 0
2, 77888, Note_on_c, 0, 81, 0
2, 77936, Note_on_c, 0, 74, 100
2, 77988, Note_on_c, 0, 72, 100
2, 78008, Note_on_c, 0, 74, 0
2, 78024, Note_on_c, 0, 72, 0
2, 78024, Note_on_c, 0, 74, 100
2, 78056, Note_on_c, 0, 72, 100
2, 78060, Note_on_c, 0, 74, 0
2, 78088, Note_on_c, 0, 74, 100
2, 78092, Note_on_c, 0, 72, 0
2, 78124, Note_on_c, 0, 74, 0
2, 78124, Note_on_c, 0, 72, 100
2, 78156, Note_on_c, 0, 74, 100
2, 78160, Note_on_c, 0, 72, 0
2, 78188, Note_on_c, 0, 72, 100
2, 78192, Note_on_c, 0, 74, 0
2, 78220, Note_on_c, 0, 71, 100
2, 78224, Note_on_c, 0, 72, 0
2, 78268, Note_on_c, 0, 71, 0
2, 78268, Note_on_c, 0, 72, 100
2, 78316, Note_on_c, 0, 72, 0
2, 78336, Note_on_c, 0, 80, 100
2, 78400, Note_on_c, 0, 77, 100
2, 78412, Note_on_c, 0, 80, 0
2, 78468, Note_on_c, 0, 74, 100
2, 78476, Note_on_c, 0, 77, 0
2, 78528, Note_on_c, 0, 71, 100
2, 78544, Note_on_c, 0, 74, 0
2, 78588, Note_on_c, 0, 65, 100
2, 78604, Note_on_c, 0, 71, 0
2, 78652, Note_on_c, 0, 62, 100
2, 78664, Note_on_c, 0, 65, 0
2, 78720, Note_on_c, 0, 59, 100
2, 78728, Note_on_c, 0, 62, 0
2, 78784, Note_on_c, 0, 62, 100
2, 78796, Note_on_c, 0, 59, 0
2, 78852, Note_on_c, 0, 65, 100
2, 78860, Note_on_c, 0, 62, 0
2, 78912, Note_on_c, 0, 68, 100
2, 78928, Note_on_c, 0, 65, 0
2, 78972, Note_on_c, 0, 71, 100
2, 78988, Note_on_c, 0, 68, 0
2, 79036, Note_on_c, 0, 74, 100
2, 79048, Note_on_c, 0, 71, 0
2, 79104, Note_on_c, 0, 77, 100
2, 79112, Note_on_c, 0, 74, 0
2, 79168, Note_on_c, 0, 74, 100
2, 79180, Note_on_c, 0, 77, 0
2, 79236, Note_on_c, 0, 71, 100
2, 79244, Note_on_c, 0, 74, 0
2, 79296, Note_on_c, 0, 67, 100
2, 79312, Note_on_c, 0, 71, 0
2, 79356, Note_on_c, 0, 62, 100
2, 79372, Note_on_c, 0, 67, 0
2, 79420, Note_on_c, 0, 59, 100
2, 79432, Note_on_c, 0, 62, 0
2, 79488, Note_on_c, 0, 55, 100
2, 79496, Note_on_c, 0, 59, 0
2, 79616, Note_on_c, 0, 55, 0
2, 79680, Note_on_c, 0, 79, 100
2, 79808, Note_on_c, 0, 79, 0
2, 79872, Note_on_c, 0, 72, 100
2, 79888, Note_on_c, 0, 71, 100
2, 79904, Note_on_c, 0, 72, 0
2, 79908, Note_on_c, 0, 72, 100
2, 79920, Note_on_c, 0, 71, 0
2, 79996, Note_on_c, 0, 72, 0
2, 79996, Note_on_c, 0, 74, 100
2, 80028, Note_on_c, 0, 72, 100
2, 80032, Note_on_c, 0, 74, 0
2, 80060, Note_on_c, 0, 71, 100
2, 80064, Note_on_c, 0, 72, 0
2, 80080, Note_on_c, 0, 72, 100
2, 80096, Note_on_c, 0, 71, 0
2, 80208, Note_on_c, 0, 74, 100
2, 80228, Note_on_c, 0, 72, 0
2, 80248, Note_on_c, 0, 74, 0
2, 80256, Note_on_c, 0, 75, 105
2, 80256, Note_on_c, 0, 71, 100
2, 80288, Note_on_c, 0, 74, 100
2, 80296, Note_on_c, 0, 75, 0
2, 80324, Note_on_c, 0, 75, 100
2, 80328, Note_on_c, 0, 74, 0
2, 80360, Note_on_c, 0, 74, 100
2, 80364, Note_on_c, 0, 75, 0
2, 80396, Note_on_c, 0, 75, 100
2, 80400, Note_on_c, 0, 74, 0
2, 80432, Note_on_c, 0, 74, 100
2, 80436, Note_on_c, 0, 75, 0
2, 80468, Note_on_c, 0, 75, 100
2, 80472, Note_on_c, 0, 74, 0
2, 80504, Note_on_c, 0, 74, 100
2, 80508, Note_on_c, 0, 75, 0
2, 80584, Note_on_c, 0, 72, 100
2, 80592, Note_on_c, 0, 74, 0
2, 80624, Note_on_c, 0, 72, 0
2, 80636, Note_on_c, 0, 71, 0
2, 80640, Note_on_c, 0, 72, 100
2, 80704, Note_on_c, 0, 71, 100
2, 80732, Note_on_c, 0, 72, 0
2, 80772, Note_on_c, 0, 74, 100
2, 80776, Note_on_c, 0, 71, 0
2, 80832, Note_on_c, 0, 68, 100
2, 80844, Note_on_c, 0, 74, 0
2, 80892, Note_on_c, 0, 67, 100
2, 80924, Note_on_c, 0, 68, 0
2, 80956, Note_on_c, 0, 70, 100
2, 80964, Note_on_c, 0, 67, 0
2, 81024, Note_on_c, 0, 65, 100
2, 81028, Note_on_c, 0, 70, 0
2, 81088, Note_on_c, 0, 64, 100
2, 81096, Note_on_c, 0, 65, 0
2, 81156, Note_on_c, 0, 67, 100
2, 81160, Note_on_c, 0, 64, 0
2, 81216, Note_on_c, 0, 61, 100
2, 81228, Note_on_c, 0, 67, 0
2, 81276, Note_on_c, 0, 60, 100
2, 81308, Note_on_c, 0, 61, 0
2, 81340, Note_on_c, 0, 70, 100
2, 81348, Note_on_c, 0, 60, 0
2, 81396, Note_on_c, 0, 70, 0
2, 81408, Note_on_c, 0, 70, 100
2, 81472, Note_on_c, 0, 69, 100
2, 81500, Note_on_c, 0, 70, 0
2, 81540, Note_on_c, 0, 72, 100
2, 81544, Note_on_c, 0, 69, 0
2, 81600, Note_on_c, 0, 66, 100
2, 81612, Note_on_c, 0, 72, 0
2, 81660, Note_on_c, 0, 65, 100
2, 81692, Note_on_c, 0, 66, 0
2, 81724, Note_on_c, 0, 68, 100
2, 81732, Note_on_c, 0, 65, 0
2, 81792, Note_on_c, 0, 63, 100
2, 81796, Note_on_c, 0, 68, 0
2, 81856, Note_on_c, 0, 62, 100
2, 81884, Note_on_c, 0, 63, 0
2, 81924, Note_on_c, 0, 65, 100
2, 81928, Note_on_c, 0, 62, 0
2, 81984, Note_on_c, 0, 59, 100
2, 81996, Note_on_c, 0, 65, 0
2, 82044, Note_on_c, 0, 58, 100
2, 82076, Note_on_c, 0, 59, 0
2, 82108, Note_on_c, 0, 68, 100
2, 82116, Note_on_c, 0, 58, 0
2, 82168, Note_on_c, 0, 68, 0
2, 82176, Note_on_c, 0, 68, 100
2, 82240, Note_on_c, 0, 67, 100
2, 82268, Note_on_c, 0, 68, 0
2, 82308, Note_on_c, 0, 70, 100
2, 82312, Note_on_c, 0, 67, 0
2, 82368, Note_on_c, 0, 64, 100
2, 82380, Note_on_c, 0, 70, 0
2, 82428, Note_on_c, 0, 63, 100
2, 82460, Note_on_c, 0, 64, 0
2, 82492, Note_on_c, 0, 67, 100
2, 82500, Note_on_c, 0, 63, 0
2, 82560, Note_on_c, 0, 61, 100
2, 82564, Note_on_c, 0, 67, 0
2, 82624, Note_on_c, 0, 60, 100
2, 82652, Note_on_c, 0, 61, 0
2, 82692, Note_on_c, 0, 63, 100
2, 82696, Note_on_c, 0, 60, 0
2, 82752, Note_on_c, 0, 58, 100
2, 82764, Note_on_c, 0, 63, 0
2, 82812, Note_on_c, 0, 57, 100
2, 82844, Note_on_c, 0, 58, 0
2, 82876, Note_on_c, 0, 66, 100
2, 82884, Note_on_c, 0, 57, 0
2, 82936, Note_on_c, 0, 66, 0
2, 82944, Note_on_c, 0, 66, 100
2, 83132, Note_on_c, 0, 66, 0
2, 83136, Note_on_c, 0, 67, 100
2, 83392, Note_on_c, 0, 69, 100
2, 83396, Note_on_c, 0, 67, 0
2, 83460, Note_on_c, 0, 71, 100
2, 83468, Note_on_c, 0, 69, 0
2, 83520, Note_on_c, 0, 72, 100
2, 83536, Note_on_c, 0, 71, 0
2, 83580, Note_on_c, 0, 74, 100
2, 83596, Note_on_c, 0, 72, 0
2, 83644, Note_on_c, 0, 75, 100
2, 83656, Note_on_c, 0, 74, 0
2, 83712, Note_on_c, 0, 65, 100
2, 83720, Note_on_c, 0, 75, 0
2, 83776, Note_on_c, 0, 75, 100
2, 83788, Note_on_c, 0, 65, 0
2, 83844, Note_on_c, 0, 74, 100
2, 83852, Note_on_c, 0, 75, 0
2, 83904, Note_on_c, 0, 77, 100
2, 83920, Note_on_c, 0, 74, 0
2, 83964, Note_on_c, 0, 75, 100
2, 83980, Note_on_c, 0, 77, 0
2, 84028, Note_on_c, 0, 74, 100
2, 84040, Note_on_c, 0, 75, 0
2, 84096, Note_on_c, 0, 75, 100
2, 84104, Note_on_c, 0, 74, 0
2, 84160, Note_on_c, 0, 74, 100
2, 84172, Note_on_c, 0, 75, 0
2, 84228, Note_on_c, 0, 72, 100
2, 84236, Note_on_c, 0, 74, 0
2, 84288, Note_on_c, 0, 74, 100
2, 84304, Note_on_c, 0, 72, 0
2, 84348, Note_on_c, 0, 72, 100
2, 84364, Note_on_c, 0, 74, 0
2, 84412, Note_on_c, 0, 71, 100
2, 84424, Note_on_c, 0, 72, 0
2, 84480, Note_on_c, 0, 72, 100
2, 84488, Note_on_c, 0, 71, 0
2, 84544, Note_on_c, 0, 74, 100
2, 84556, Note_on_c, 0, 72, 0
2, 84612, Note_on_c, 0, 75, 100
2, 84620, Note_on_c, 0, 74, 0
2, 84672, Note_on_c, 0, 65, 100
2, 84688, Note_on_c, 0, 75, 0
2, 84732, Note_on_c, 0, 75, 100
2, 84748, Note_on_c, 0, 65, 0
2, 84796, Note_on_c, 0, 74, 100
2, 84808, Note_on_c, 0, 75, 0
2, 84864, Note_on_c, 0, 63, 100
2, 84872, Note_on_c, 0, 74, 0
2, 84928, Note_on_c, 0, 74, 100
2, 84940, Note_on_c, 0, 63, 0
2, 84996, Note_on_c, 0, 72, 100
2, 85004, Note_on_c, 0, 74, 0
2, 85056, Note_on_c, 0, 62, 100
2, 85072, Note_on_c, 0, 72, 0
2, 85116, Note_on_c, 0, 72, 100
2, 85132, Note_on_c, 0, 62, 0
2, 85180, Note_on_c, 0, 71, 100
2, 85192, Note_on_c, 0, 72, 0
2, 85248, Note_on_c, 0, 72, 100
2, 85256, Note_on_c, 0, 71, 0
2, 85312, Note_on_c, 0, 67, 100
2, 85324, Note_on_c, 0, 72, 0
2, 85380, Note_on_c, 0, 63, 100
2, 85388, Note_on_c, 0, 67, 0
2, 85440, Note_on_c, 0, 60, 100
2, 85456, Note_on_c, 0, 63, 0
2, 85628, Note_on_c, 0, 60, 0
2, 86016, Note_on_c, 0, 79, 100
2, 86080, Note_on_c, 0, 74, 100
2, 86108, Note_on_c, 0, 79, 0
2, 86144, Note_on_c, 0, 70, 100
2, 86172, Note_on_c, 0, 74, 0
2, 86208, Note_on_c, 0, 67, 100
2, 86236, Note_on_c, 0, 70, 0
2, 86268, Note_on_c, 0, 62, 100
2, 86300, Note_on_c, 0, 67, 0
2, 86332, Note_on_c, 0, 58, 100
2, 86360, Note_on_c, 0, 62, 0
2, 86400, Note_on_c, 0, 55, 100
2, 86424, Note_on_c, 0, 58, 0
2, 86528, Note_on_c, 0, 55, 0
2, 86592, Note_on_c, 0, 79, 100
2, 86592, Note_on_c, 0, 74, 100
2, 86592, Note_on_c, 0, 82, 100
2, 86780, Note_on_c, 0, 82, 0
2, 86780, Note_on_c, 0, 74, 0
2, 86780, Note_on_c, 0, 79, 0
2, 86784, Note_on_c, 0, 74, 100
2, 86784, Note_on_c, 0, 79, 100
2, 86784, Note_on_c, 0, 82, 100
2, 86972, Note_on_c, 0, 82, 0
2, 86972, Note_on_c, 0, 79, 0
2, 86972, Note_on_c, 0, 74, 0
2, 86976, Note_on_c, 0, 78, 100
2, 86976, Note_on_c, 0, 81, 100
2, 87104, Note_on_c, 0, 81, 0
2, 87104, Note_on_c, 0, 78, 0
2, 87152, Note_on_c, 0, 75, 100
2, 87204, Note_on_c, 0, 74, 100
2, 87224, Note_on_c, 0, 75, 0
2, 87240, Note_on_c, 0, 74, 0
2, 87240, Note_on_c, 0, 75, 100
2, 87272, Note_on_c, 0, 74, 100
2, 87276, Note_on_c, 0, 75, 0
2, 87304, Note_on_c, 0, 75, 100
2, 87308, Note_on_c, 0, 74, 0
2, 87340, Note_on_c, 0, 75, 0
2, 87340, Note_on_c, 0, 74, 100
2, 87372, Note_on_c, 0, 75, 100
2, 87376, Note_on_c, 0, 74, 0
2, 87404, Note_on_c, 0, 74, 100
2, 87408, Note_on_c, 0, 75, 0
2, 87436, Note_on_c, 0, 73, 100
2, 87440, Note_on_c, 0, 74, 0
2, 87484, Note_on_c, 0, 73, 0
2, 87484, Note_on_c, 0, 74, 100
2, 87532, Note_on_c, 0, 74, 0
2, 87552, Note_on_c, 0, 84, 100
2, 87616, Note_on_c, 0, 81, 100
2, 87644, Note_on_c, 0, 84, 0
2, 87680, Note_on_c, 0, 78, 100
2, 87708, Note_on_c, 0, 81, 0
2, 87744, Note_on_c, 0, 74, 100
2, 87772, Note_on_c, 0, 78, 0
2, 87804, Note_on_c, 0, 69, 100
2, 87836, Note_on_c, 0, 74, 0
2, 87868, Note_on_c, 0, 66, 100
2, 87896, Note_on_c, 0, 69, 0
2, 87936, Note_on_c, 0, 62, 100
2, 87960, Note_on_c, 0, 66, 0
2, 88064, Note_on_c, 0, 62, 0
2, 88128, Note_on_c, 0, 84, 100
2, 88128, Note_on_c, 0, 81, 100
2, 88128, Note_on_c, 0, 74, 100
2, 88128, Note_on_c, 0, 78, 100
2, 88316, Note_on_c, 0, 78, 0
2, 88316, Note_on_c, 0, 84, 0
2, 88316, Note_on_c, 0, 81, 0
2, 88316, Note_on_c, 0, 74, 0
2, 88320, Note_on_c, 0, 84, 100
2, 88320, Note_on_c, 0, 74, 100
2, 88320, Note_on_c, 0, 81, 100
2, 88320, Note_on_c, 0, 78, 100
2, 88508, Note_on_c, 0, 78, 0
2, 88508, Note_on_c, 0, 84, 0
2, 88508, Note_on_c, 0, 74, 0
2, 88508, Note_on_c, 0, 81, 0
2, 88512, Note_on_c, 0, 82, 100
2, 88512, Note_on_c, 0, 79, 100
2, 88640, Note_on_c, 0, 79, 0
2, 88640, Note_on_c, 0, 82, 0
2, 88688, Note_on_c, 0, 75, 100
2, 88740, Note_on_c, 0, 74, 100
2, 88760, Note_on_c, 0, 75, 0
2, 88776, Note_on_c, 0, 74, 0
2, 88776, Note_on_c, 0, 75, 100
2, 88808, Note_on_c, 0, 74, 100
2, 88812, Note_on_c, 0, 75, 0
2, 88840, Note_on_c, 0, 75, 100
2, 88844, Note_on_c, 0, 74, 0
2, 88876, Note_on_c, 0, 75, 0
2, 88876, Note_on_c, 0, 74, 100
2, 88908, Note_on_c, 0, 75, 100
2, 88912, Note_on_c, 0, 74, 0
2, 88940, Note_on_c, 0, 74, 100
2, 88944, Note_on_c, 0, 75, 0
2, 88972, Note_on_c, 0, 73, 100
2, 88976, Note_on_c, 0, 74, 0
2, 89020, Note_on_c, 0, 73, 0
2, 89020, Note_on_c, 0, 74, 100
2, 89068, Note_on_c, 0, 74, 0
2, 89088, Note_on_c, 0, 77, 100
2, 89152, Note_on_c, 0, 74, 100
2, 89180, Note_on_c, 0, 77, 0
2, 89216, Note_on_c, 0, 71, 100
2, 89244, Note_on_c, 0, 74, 0
2, 89280, Note_on_c, 0, 68, 100
2, 89308, Note_on_c, 0, 71, 0
2, 89340, Note_on_c, 0, 65, 100
2, 89372, Note_on_c, 0, 68, 0
2, 89404, Note_on_c, 0, 62, 100
2, 89432, Note_on_c, 0, 65, 0
2, 89472, Note_on_c, 0, 55, 100
2, 89496, Note_on_c, 0, 62, 0
2, 89600, Note_on_c, 0, 55, 0
2, 89664, Note_on_c, 0, 77, 100
2, 89892, Note_on_c, 0, 77, 0
2, 89920, Note_on_c, 0, 79, 100
2, 89984, Note_on_c, 0, 75, 100
2, 89996, Note_on_c, 0, 79, 0
2, 90048, Note_on_c, 0, 72, 100
2, 90060, Note_on_c, 0, 75, 0
2, 90108, Note_on_c, 0, 67, 100
2, 90124, Note_on_c, 0, 72, 0
2, 90172, Note_on_c, 0, 63, 100
2, 90184, Note_on_c, 0, 67, 0
2, 90240, Note_on_c, 0, 60, 100
2, 90248, Note_on_c, 0, 63, 0
2, 90368, Note_on_c, 0, 60, 0
2, 90432, Note_on_c, 0, 75, 100
2, 90672, Note_on_c, 0, 75, 0
2, 90688, Note_on_c, 0, 72, 100
2, 90752, Note_on_c, 0, 69, 100
2, 90780, Note_on_c, 0, 72, 0
2, 90816, Note_on_c, 0, 66, 100
2, 90844, Note_on_c, 0, 69, 0
2, 90876, Note_on_c, 0, 63, 100
2, 90908, Note_on_c, 0, 66, 0
2, 90940, Note_on_c, 0, 60, 100
2, 90968, Note_on_c, 0, 63, 0
2, 91008, Note_on_c, 0, 57, 100
2, 91032, Note_on_c, 0, 60, 0
2, 91136, Note_on_c, 0, 57, 0
2, 91200, Note_on_c, 0, 75, 100
2, 91428, Note_on_c, 0, 75, 0
2, 91456, Note_on_c, 0, 77, 100
2, 91520, Note_on_c, 0, 74, 100
2, 91532, Note_on_c, 0, 77, 0
2, 91584, Note_on_c, 0, 70, 100
2, 91596, Note_on_c, 0, 74, 0
2, 91644, Note_on_c, 0, 65, 100
2, 91660, Note_on_c, 0, 70, 0
2, 91708, Note_on_c, 0, 62, 100
2, 91720, Note_on_c, 0, 65, 0
2, 91776, Note_on_c, 0, 58, 100
2, 91784, Note_on_c, 0, 62, 0
2, 91904, Note_on_c, 0, 58, 0
2, 91968, Note_on_c, 0, 74, 100
2, 92224, Note_on_c, 0, 67, 100
2, 92232, Note_on_c, 0, 74, 0
2, 92288, Note_on_c, 0, 68, 100
2, 92296, Note_on_c, 0, 67, 0
2, 92352, Note_on_c, 0, 69, 100
2, 92360, Note_on_c, 0, 68, 0
2, 92412, Note_on_c, 0, 70, 100
2, 92424, Note_on_c, 0, 69, 0
2, 92476, Note_on_c, 0, 71, 100
2, 92484, Note_on_c, 0, 70, 0
2, 92544, Note_on_c, 0, 72, 100
2, 92548, Note_on_c, 0, 71, 0
2, 92572, Note_on_c, 0, 71, 100
2, 92580, Note_on_c, 0, 72, 0
2, 92604, Note_on_c, 0, 72, 100
2, 92608, Note_on_c, 0, 71, 0
2, 92844, Note_on_c, 0, 72, 0
2, 92992, Note_on_c, 0, 74, 100
2, 93060, Note_on_c, 0, 72, 100
2, 93064, Note_on_c, 0, 74, 0
2, 93120, Note_on_c, 0, 71, 100
2, 93132, Note_on_c, 0, 72, 0
2, 93180, Note_on_c, 0, 70, 100
2, 93192, Note_on_c, 0, 71, 0
2, 93244, Note_on_c, 0, 69, 100
2, 93252, Note_on_c, 0, 70, 0
2, 93312, Note_on_c, 0, 70, 100
2, 93316, Note_on_c, 0, 69, 0
2, 93440, Note_on_c, 0, 70, 0
2, 93504, Note_on_c, 0, 79, 100
2, 93632, Note_on_c, 0, 79, 0
2, 93760, Note_on_c, 0, 72, 100
2, 93828, Note_on_c, 0, 73, 100
2, 93832, Note_on_c, 0, 72, 0
2, 93888, Note_on_c, 0, 74, 100
2, 93900, Note_on_c, 0, 73, 0
2, 93948, Note_on_c, 0, 75, 100
2, 93960, Note_on_c, 0, 74, 0
2, 94012, Note_on_c, 0, 76, 100
2, 94020, Note_on_c, 0, 75, 0
2, 94080, Note_on_c, 0, 77, 100
2, 94084, Note_on_c, 0, 76, 0
2, 94112, Note_on_c, 0, 76, 100
2, 94116, Note_on_c, 0, 77, 0
2, 94148, Note_on_c, 0, 76, 0
2, 94148, Note_on_c, 0, 77, 100
2, 94460, Note_on_c, 0, 77, 0
2, 94528, Note_on_c, 0, 79, 100
2, 94596, Note_on_c, 0, 77, 100
2, 94600, Note_on_c, 0, 79, 0
2, 94656, Note_on_c, 0, 76, 100
2, 94668, Note_on_c, 0, 77, 0
2, 94716, Note_on_c, 0, 75, 100
2, 94728, Note_on_c, 0, 76, 0
2, 94780, Note_on_c, 0, 74, 100
2, 94788, Note_on_c, 0, 75, 0
2, 94848, Note_on_c, 0, 75, 100
2, 94852, Note_on_c, 0, 74, 0
2, 94976, Note_on_c, 0, 75, 0
2, 95040, Note_on_c, 0, 84, 100
2, 95296, Note_on_c, 0, 77, 100
2, 95304, Note_on_c, 0, 84, 0
2, 95364, Note_on_c, 0, 78, 100
2, 95368, Note_on_c, 0, 77, 0
2, 95424, Note_on_c, 0, 79, 100
2, 95436, Note_on_c, 0, 78, 0
2, 95484, Note_on_c, 0, 80, 100
2, 95496, Note_on_c, 0, 79, 0
2, 95548, Note_on_c, 0, 81, 100
2, 95556, Note_on_c, 0, 80, 0
2, 95616, Note_on_c, 0, 82, 100
2, 95620, Note_on_c, 0, 81, 0
2, 95648, Note_on_c, 0, 81, 100
2, 95652, Note_on_c, 0, 82, 0
2, 95684, Note_on_c, 0, 81, 0
2, 95684, Note_on_c, 0, 82, 100
2, 95996, Note_on_c, 0, 82, 0
2, 96064, Note_on_c, 0, 84, 100
2, 96132, Note_on_c, 0, 82, 100
2, 96136, Note_on_c, 0, 84, 0
2, 96192, Note_on_c, 0, 81, 100
2, 96204, Note_on_c, 0, 82, 0
2, 96252, Note_on_c, 0, 80, 100
2, 96264, Note_on_c, 0, 81, 0
2, 96316, Note_on_c, 0, 79, 100
2, 96324, Note_on_c, 0, 80, 0
2, 96384, Note_on_c, 0, 80, 100
2, 96388, Note_on_c, 0, 79, 0
2, 96832, Note_on_c, 0, 77, 100
2, 96848, Note_on_c, 0, 80, 0
2, 96900, Note_on_c, 0, 76, 100
2, 96912, Note_on_c, 0, 77, 0
2, 96960, Note_on_c, 0, 77, 100
2, 96980, Note_on_c, 0, 76, 0
2, 97020, Note_on_c, 0, 79, 100
2, 97040, Note_on_c, 0, 77, 0
2, 97084, Note_on_c, 0, 80, 100
2, 97100, Note_on_c, 0, 79, 0
2, 97152, Note_on_c, 0, 82, 100
2, 97164, Note_on_c, 0, 80, 0
2, 97216, Note_on_c, 0, 78, 100
2, 97232, Note_on_c, 0, 82, 0
2, 97284, Note_on_c, 0, 77, 100
2, 97296, Note_on_c, 0, 78, 0
2, 97344, Note_on_c, 0, 78, 100
2, 97364, Note_on_c, 0, 77, 0
2, 97404, Note_on_c, 0, 80, 100
2, 97424, Note_on_c, 0, 78, 0
2, 97468, Note_on_c, 0, 82, 100
2, 97484, Note_on_c, 0, 80, 0
2, 97536, Note_on_c, 0, 76, 100
2, 97548, Note_on_c, 0, 82, 0
2, 97600, Note_on_c, 0, 82, 100
2, 97616, Note_on_c, 0, 76, 0
2, 97668, Note_on_c, 0, 79, 100
2, 97680, Note_on_c, 0, 82, 0
2, 97728, Note_on_c, 0, 76, 100
2, 97748, Note_on_c, 0, 79, 0
2, 97788, Note_on_c, 0, 72, 100
2, 97808, Note_on_c, 0, 76, 0
2, 97852, Note_on_c, 0, 71, 100
2, 97868, Note_on_c, 0, 72, 0
2, 97920, Note_on_c, 0, 72, 100
2, 97932, Note_on_c, 0, 71, 0
2, 98108, Note_on_c, 0, 72, 0
2, 98304, Note_on_c, 0, 75, 100
2, 98304, Note_on_c, 0, 72, 100
2, 98304, Note_on_c, 0, 69, 100
2, 98432, Note_on_c, 0, 69, 0
2, 98432, Note_on_c, 0, 72, 0
2, 98432, Note_on_c, 0, 75, 0
2, 98880, Note_on_c, 0, 75, 100
2, 98880, Note_on_c, 0, 72, 100
2, 98880, Note_on_c, 0, 69, 100
2, 99068, Note_on_c, 0, 69, 0
2, 99068, Note_on_c, 0, 72, 0
2, 99068, Note_on_c, 0, 75, 0
2, 99072, Note_on_c, 0, 73, 100
2, 99072, Note_on_c, 0, 70, 100
2, 99200, Note_on_c, 0, 70, 0
2, 99200, Note_on_c, 0, 73, 0
2, 99648, Note_on_c, 0, 73, 100
2, 99648, Note_on_c, 0, 70, 100
2, 99648, Note_on_c, 0, 68, 100
2, 99776, Note_on_c, 0, 68, 0
2, 99776, Note_on_c, 0, 70, 0
2, 99776, Note_on_c, 0, 73, 0
2, 99840, Note_on_c, 0, 67, 100
2, 99840, Note_on_c, 0, 70, 100
2, 99840, Note_on_c, 0, 73, 100
2, 99968, Note_on_c, 0, 73, 0
2, 99968, Note_on_c, 0, 70, 0
2, 99968, Note_on_c, 0, 67, 0
2, 100416, Note_on_c, 0, 67, 100
2, 100416, Note_on_c, 0, 70, 100
2, 100416, Note_on_c, 0, 73, 100
2, 100604, Note_on_c, 0, 73, 0
2, 100604, Note_on_c, 0, 70, 0
2, 100604, Note_on_c, 0, 67, 0
2, 100608, Note_on_c, 0, 68, 100
2, 100608, Note_on_c, 0, 72, 100
2, 100736, Note_on_c, 0, 72, 0
2, 100736, Note_on_c, 0, 68, 0
2, 101568, Note_on_c, 0, 65, 100
2, 101756, Note_on_c, 0, 65, 0
2, 101760, Note_on_c, 0, 67, 100
2, 101948, Note_on_c, 0, 67, 0
2, 102336, Note_on_c, 0, 68, 100
2, 102524, Note_on_c, 0, 68, 0
2, 102528, Note_on_c, 0, 70, 100
2, 102716, Note_on_c, 0, 70, 0
2, 102912, Note_on_c, 0, 60, 100
2, 102976, Note_on_c, 0, 68, 100
2, 102988, Note_on_c, 0, 60, 0
2, 103044, Note_on_c, 0, 67, 100
2, 103052, Note_on_c, 0, 68, 0
2, 103104, Note_on_c, 0, 65, 100
2, 103104, Note_on_c, 0, 73, 100
2, 103120, Note_on_c, 0, 67, 0
2, 103164, Note_on_c, 0, 63, 100
2, 103164, Note_on_c, 0, 72, 100
2, 103180, Note_on_c, 0, 73, 0
2, 103180, Note_on_c, 0, 65, 0
2, 103228, Note_on_c, 0, 61, 100
2, 103228, Note_on_c, 0, 70, 100
2, 103240, Note_on_c, 0, 63, 0
2, 103240, Note_on_c, 0, 72, 0
2, 103296, Note_on_c, 0, 60, 100
2, 103296, Note_on_c, 0, 75, 100
2, 103304, Note_on_c, 0, 61, 0
2, 103304, Note_on_c, 0, 70, 0
2, 103360, Note_on_c, 0, 63, 100
2, 103372, Note_on_c, 0, 60, 0
2, 103428, Note_on_c, 0, 68, 100
2, 103436, Note_on_c, 0, 63, 0
2, 103484, Note_on_c, 0, 75, 0
2, 103488, Note_on_c, 0, 58, 100
2, 103504, Note_on_c, 0, 68, 0
2, 103548, Note_on_c, 0, 61, 100
2, 103564, Note_on_c, 0, 58, 0
2, 103612, Note_on_c, 0, 67, 100
2, 103624, Note_on_c, 0, 61, 0
2, 103680, Note_on_c, 0, 60, 100
2, 103688, Note_on_c, 0, 67, 0
2, 103744, Note_on_c, 0, 63, 100
2, 103756, Note_on_c, 0, 60, 0
2, 103812, Note_on_c, 0, 68, 100
2, 103820, Note_on_c, 0, 63, 0
2, 103872, Note_on_c, 0, 72, 100
2, 103888, Note_on_c, 0, 68, 0
2, 103932, Note_on_c, 0, 67, 100
2, 103948, Note_on_c, 0, 72, 0
2, 103996, Note_on_c, 0, 68, 100
2, 104008, Note_on_c, 0, 67, 0
2, 104064, Note_on_c, 0, 75, 100
2, 104072, Note_on_c, 0, 68, 0
2, 104128, Note_on_c, 0, 67, 100
2, 104140, Note_on_c, 0, 75, 0
2, 104196, Note_on_c, 0, 68, 100
2, 104204, Note_on_c, 0, 67, 0
2, 104256, Note_on_c, 0, 75, 100
2, 104256, Note_on_c, 0, 72, 100
2, 104272, Note_on_c, 0, 68, 0
2, 104316, Note_on_c, 0, 67, 100
2, 104332, Note_on_c, 0, 75, 0
2, 104380, Note_on_c, 0, 68, 100
2, 104392, Note_on_c, 0, 67, 0
2, 104444, Note_on_c, 0, 72, 0
2, 104448, Note_on_c, 0, 77, 100
2, 104456, Note_on_c, 0, 68, 0
2, 104576, Note_on_c, 0, 77, 0
2, 104700, Note_on_c, 0, 67, 100
2, 104764, Note_on_c, 0, 68, 100
2, 104776, Note_on_c, 0, 67, 0
2, 104832, Note_on_c, 0, 77, 100
2, 104840, Note_on_c, 0, 68, 0
2, 104896, Note_on_c, 0, 67, 100
2, 104908, Note_on_c, 0, 77, 0
2, 104964, Note_on_c, 0, 68, 100
2, 104972, Note_on_c, 0, 67, 0
2, 105024, Note_on_c, 0, 77, 100
2, 105040, Note_on_c, 0, 68, 0
2, 105084, Note_on_c, 0, 67, 100
2, 105100, Note_on_c, 0, 77, 0
2, 105148, Note_on_c, 0, 68, 100
2, 105160, Note_on_c, 0, 67, 0
2, 105216, Note_on_c, 0, 77, 100
2, 105224, Note_on_c, 0, 68, 0
2, 105344, Note_on_c, 0, 77, 0
2, 105468, Note_on_c, 0, 67, 100
2, 105532, Note_on_c, 0, 68, 100
2, 105544, Note_on_c, 0, 67, 0
2, 105600, Note_on_c, 0, 77, 100
2, 105608, Note_on_c, 0, 68, 0
2, 105664, Note_on_c, 0, 67, 100
2, 105676, Note_on_c, 0, 77, 0
2, 105732, Note_on_c, 0, 68, 100
2, 105740, Note_on_c, 0, 67, 0
2, 105792, Note_on_c, 0, 77, 100
2, 105808, Note_on_c, 0, 68, 0
2, 105852, Note_on_c, 0, 67, 100
2, 105868, Note_on_c, 0, 77, 0
2, 105916, Note_on_c, 0, 68, 100
2, 105928, Note_on_c, 0, 67, 0
2, 105984, Note_on_c, 0, 77, 100
2, 105992, Note_on_c, 0, 68, 0
2, 106112, Note_on_c, 0, 77, 0
2, 106236, Note_on_c, 0, 67, 100
2, 106300, Note_on_c, 0, 68, 100
2, 106312, Note_on_c, 0, 67, 0
2, 106368, Note_on_c, 0, 77, 100
2, 106376, Note_on_c, 0, 68, 0
2, 106432, Note_on_c, 0, 67, 100
2, 106444, Note_on_c, 0, 77, 0
2, 106500, Note_on_c, 0, 68, 100
2, 106508, Note_on_c, 0, 67, 0
2, 106560, Note_on_c, 0, 77, 100
2, 106576, Note_on_c, 0, 68, 0
2, 106620, Note_on_c, 0, 67, 100
2, 106636, Note_on_c, 0, 77, 0
2, 106684, Note_on_c, 0, 68, 100
2, 106696, Note_on_c, 0, 67, 0
2, 106752, Note_on_c, 0, 77, 100
2, 106760, Note_on_c, 0, 68, 0
2, 106880, Note_on_c, 0, 77, 0
2, 107004, Note_on_c, 0, 67, 100
2, 107068, Note_on_c, 0, 68, 100
2, 107080, Note_on_c, 0, 67, 0
2, 107136, Note_on_c, 0, 77, 100
2, 107144, Note_on_c, 0, 68, 0
2, 107200, Note_on_c, 0, 67, 100
2, 107212, Note_on_c, 0, 77, 0
2, 107268, Note_on_c, 0, 68, 100
2, 107276, Note_on_c, 0, 67, 0
2, 107328, Note_on_c, 0, 77, 100
2, 107344, Note_on_c, 0, 68, 0
2, 107388, Note_on_c, 0, 67, 100
2, 107404, Note_on_c, 0, 77, 0
2, 107452, Note_on_c, 0, 68, 100
2, 107464, Note_on_c, 0, 67, 0
2, 107520, Note_on_c, 0, 75, 100
2, 107528, Note_on_c, 0, 68, 0
2, 107708, Note_on_c, 0, 75, 0
2, 107712, Note_on_c, 0, 70, 100
2, 107712, Note_on_c, 0, 72, 100
2, 107772, Note_on_c, 0, 68, 100
2, 107788, Note_on_c, 0, 70, 0
2, 107836, Note_on_c, 0, 67, 100
2, 107848, Note_on_c, 0, 68, 0
2, 107900, Note_on_c, 0, 72, 0
2, 107904, Note_on_c, 0, 65, 100
2, 107904, Note_on_c, 0, 80, 100
2, 107912, Note_on_c, 0, 67, 0
2, 107968, Note_on_c, 0, 68, 100
2, 107980, Note_on_c, 0, 65, 0
2, 108036, Note_on_c, 0, 72, 100
2, 108044, Note_on_c, 0, 68, 0
2, 108092, Note_on_c, 0, 80, 0
2, 108096, Note_on_c, 0, 77, 100
2, 108112, Note_on_c, 0, 72, 0
2, 108224, Note_on_c, 0, 77, 0
2, 108288, Note_on_c, 0, 74, 100
2, 108476, Note_on_c, 0, 74, 0
2, 108480, Note_on_c, 0, 68, 100
2, 108480, Note_on_c, 0, 70, 100
2, 108540, Note_on_c, 0, 67, 100
2, 108556, Note_on_c, 0, 68, 0
2, 108604, Note_on_c, 0, 65, 100
2, 108616, Note_on_c, 0, 67, 0
2, 108668, Note_on_c, 0, 70, 0
2, 108672, Note_on_c, 0, 63, 100
2, 108672, Note_on_c, 0, 79, 100
2, 108680, Note_on_c, 0, 65, 0
2, 108736, Note_on_c, 0, 67, 100
2, 108748, Note_on_c, 0, 63, 0
2, 108804, Note_on_c, 0, 70, 100
2, 108812, Note_on_c, 0, 67, 0
2, 108860, Note_on_c, 0, 79, 0
2, 108864, Note_on_c, 0, 75, 100
2, 108880, Note_on_c, 0, 70, 0
2, 108992, Note_on_c, 0, 75, 0
2, 109056, Note_on_c, 0, 72, 100
2, 109144, Note_on_c, 0, 72, 0
2, 109188, Note_on_c, 0, 65, 100
2, 109248, Note_on_c, 0, 70, 100
2, 109276, Note_on_c, 0, 65, 0
2, 109336, Note_on_c, 0, 70, 0
2, 109372, Note_on_c, 0, 64, 100
2, 109440, Note_on_c, 0, 68, 100
2, 109460, Note_on_c, 0, 64, 0
2, 109528, Note_on_c, 0, 68, 0
2, 109572, Note_on_c, 0, 62, 100
2, 109632, Note_on_c, 0, 67, 100
2, 109660, Note_on_c, 0, 62, 0
2, 109720, Note_on_c, 0, 67, 0
2, 109756, Note_on_c, 0, 60, 100
2, 109824, Note_on_c, 0, 66, 100
2, 109844, Note_on_c, 0, 60, 0
2, 109912, Note_on_c, 0, 66, 0
2, 109956, Note_on_c, 0, 72, 100
2, 110016, Note_on_c, 0, 66, 100
2, 110044, Note_on_c, 0, 72, 0
2, 110104, Note_on_c, 0, 66, 0
2, 110140, Note_on_c, 0, 60, 100
2, 110208, Note_on_c, 0, 66, 100
2, 110228, Note_on_c, 0, 60, 0
2, 110296, Note_on_c, 0, 66, 0
2, 110340, Note_on_c, 0, 72, 100
2, 110400, Note_on_c, 0, 66, 100
2, 110428, Note_on_c, 0, 72, 0
2, 110488, Note_on_c, 0, 66, 0
2, 110524, Note_on_c, 0, 60, 100
2, 110592, Note_on_c, 0, 63, 100
2, 110612, Note_on_c, 0, 60, 0
2, 110656, Note_on_c, 0, 67, 100
2, 110668, Note_on_c, 0, 63, 0
2, 110724, Note_on_c, 0, 68, 100
2, 110732, Note_on_c, 0, 67, 0
2, 110784, Note_on_c, 0, 69, 100
2, 110800, Note_on_c, 0, 68, 0
2, 110844, Note_on_c, 0, 70, 100
2, 110860, Note_on_c, 0, 69, 0
2, 110908, Note_on_c, 0, 71, 100
2, 110920, Note_on_c, 0, 70, 0
2, 110976, Note_on_c, 0, 72, 100
2, 110984, Note_on_c, 0, 71, 0
2, 111040, Note_on_c, 0, 74, 100
2, 111052, Note_on_c, 0, 72, 0
2, 111108, Note_on_c, 0, 75, 100
2, 111116, Note_on_c, 0, 74, 0
2, 111168, Note_on_c, 0, 76, 100
2, 111184, Note_on_c, 0, 75, 0
2, 111228, Note_on_c, 0, 77, 100
2, 111244, Note_on_c, 0, 76, 0
2, 111292, Note_on_c, 0, 78, 100
2, 111304, Note_on_c, 0, 77, 0
2, 111360, Note_on_c, 0, 79, 100
2, 111368, Note_on_c, 0, 78, 0
2, 111424, Note_on_c, 0, 74, 100
2, 111436, Note_on_c, 0, 79, 0
2, 111492, Note_on_c, 0, 71, 100
2, 111500, Note_on_c, 0, 74, 0
2, 111552, Note_on_c, 0, 67, 100
2, 111568, Note_on_c, 0, 71, 0
2, 111612, Note_on_c, 0, 62, 100
2, 111628, Note_on_c, 0, 67, 0
2, 111676, Note_on_c, 0, 59, 100
2, 111688, Note_on_c, 0, 62, 0
2, 111744, Note_on_c, 0, 55, 100
2, 111752, Note_on_c, 0, 59, 0
2, 111932, Note_on_c, 0, 55, 0
2, 112128, Note_on_c, 0, 84, 100
2, 112192, Note_on_c, 0, 79, 100
2, 112220, Note_on_c, 0, 84, 0
2, 112256, Note_on_c, 0, 75, 100
2, 112284, Note_on_c, 0, 79, 0
2, 112320, Note_on_c, 0, 72, 100
2, 112348, Note_on_c, 0, 75, 0
2, 112380, Note_on_c, 0, 67, 100
2, 112412, Note_on_c, 0, 72, 0
2, 112444, Note_on_c, 0, 63, 100
2, 112472, Note_on_c, 0, 67, 0
2, 112512, Note_on_c, 0, 60, 100
2, 112536, Note_on_c, 0, 63, 0
2, 112640, Note_on_c, 0, 60, 0
2, 112704, Note_on_c, 0, 84, 100
2, 112704, Note_on_c, 0, 79, 100
2, 112704, Note_on_c, 0, 75, 100
2, 112892, Note_on_c, 0, 75, 0
2, 112892, Note_on_c, 0, 79, 0
2, 112892, Note_on_c, 0, 84, 0
2, 112896, Note_on_c, 0, 75, 100
2, 112896, Note_on_c, 0, 79, 100
2, 112896, Note_on_c, 0, 84, 100
2, 113084, Note_on_c, 0, 84, 0
2, 113084, Note_on_c, 0, 79, 0
2, 113084, Note_on_c, 0, 75, 0
2, 113088, Note_on_c, 0, 83, 100
2, 113088, Note_on_c, 0, 74, 100
2, 113216, Note_on_c, 0, 74, 0
2, 113216, Note_on_c, 0, 83, 0
2, 113264, Note_on_c, 0, 79, 100
2, 113316, Note_on_c, 0, 77, 100
2, 113352, Note_on_c, 0, 77, 0
2, 113352, Note_on_c, 0, 79, 100
2, 113384, Note_on_c, 0, 77, 100
2, 113388, Note_on_c, 0, 79, 0
2, 113416, Note_on_c, 0, 79, 100
2, 113420, Note_on_c, 0, 77, 0
2, 113452, Note_on_c, 0, 79, 0
2, 113452, Note_on_c, 0, 77, 100
2, 113484, Note_on_c, 0, 79, 100
2, 113488, Note_on_c, 0, 77, 0
2, 113516, Note_on_c, 0, 77, 100
2, 113520, Note_on_c, 0, 79, 0
2, 113520, Note_on_c, 0, 79, 0
2, 113548, Note_on_c, 0, 76, 100
2, 113552, Note_on_c, 0, 77, 0
2, 113596, Note_on_c, 0, 76, 0
2, 113596, Note_on_c, 0, 77, 100
2, 113644, Note_on_c, 0, 77, 0
2, 113664, Note_on_c, 0, 82, 100
2, 113728, Note_on_c, 0, 79, 100
2, 113756, Note_on_c, 0, 82, 0
2, 113792, Note_on_c, 0, 76, 100
2, 113820, Note_on_c, 0, 79, 0
2, 113856, Note_on_c, 0, 72, 100
2, 113884, Note_on_c, 0, 76, 0
2, 113916, Note_on_c, 0, 67, 100
2, 113948, Note_on_c, 0, 72, 0
2, 113980, Note_on_c, 0, 64, 100
2, 114008, Note_on_c, 0, 67, 0
2, 114048, Note_on_c, 0, 60, 100
2, 114072, Note_on_c, 0, 64, 0
2, 114176, Note_on_c, 0, 60, 0
2, 114240, Note_on_c, 0, 82, 100
2, 114240, Note_on_c, 0, 79, 100
2, 114240, Note_on_c, 0, 72, 100
2, 114428, Note_on_c, 0, 72, 0
2, 114428, Note_on_c, 0, 79, 0
2, 114428, Note_on_c, 0, 82, 0
2, 114432, Note_on_c, 0, 82, 100
2, 114432, Note_on_c, 0, 72, 100
2, 114432, Note_on_c, 0, 79, 100
2, 114620, Note_on_c, 0, 79, 0
2, 114620, Note_on_c, 0, 72, 0
2, 114620, Note_on_c, 0, 82, 0
2, 114624, Note_on_c, 0, 81, 100
2, 114624, Note_on_c, 0, 77, 100
2, 114752, Note_on_c, 0, 77, 0
2, 114752, Note_on_c, 0, 81, 0
2, 114800, Note_on_c, 0, 74, 100
2, 114852, Note_on_c, 0, 72, 100
2, 114872, Note_on_c, 0, 74, 0
2, 114888, Note_on_c, 0, 72, 0
2, 114888, Note_on_c, 0, 74, 100
2, 114920, Note_on_c, 0, 72, 100
2, 114924, Note_on_c, 0, 74, 0
2, 114952, Note_on_c, 0, 74, 100
2, 114956, Note_on_c, 0, 72, 0
2, 114988, Note_on_c, 0, 74, 0
2, 114988, Note_on_c, 0, 72, 100
2, 115020, Note_on_c, 0, 74, 100
2, 115024, Note_on_c, 0, 72, 0
2, 115052, Note_on_c, 0, 72, 100
2, 115056, Note_on_c, 0, 74, 0
2, 115084, Note_on_c, 0, 71, 100
2, 115088, Note_on_c, 0, 72, 0
2, 115132, Note_on_c, 0, 71, 0
2, 115132, Note_on_c, 0, 72, 100
2, 115180, Note_on_c, 0, 72, 0
2, 115200, Note_on_c, 0, 80, 100
2, 115264, Note_on_c, 0, 77, 100
2, 115276, Note_on_c, 0, 80, 0
2, 115332, Note_on_c, 0, 74, 100
2, 115340, Note_on_c, 0, 77, 0
2, 115392, Note_on_c, 0, 71, 100
2, 115408, Note_on_c, 0, 74, 0
2, 115452, Note_on_c, 0, 65, 100
2, 115468, Note_on_c, 0, 71, 0
2, 115516, Note_on_c, 0, 62, 100
2, 115528, Note_on_c, 0, 65, 0
2, 115584, Note_on_c, 0, 59, 100
2, 115592, Note_on_c, 0, 62, 0
2, 115648, Note_on_c, 0, 62, 100
2, 115660, Note_on_c, 0, 59, 0
2, 115716, Note_on_c, 0, 65, 100
2, 115724, Note_on_c, 0, 62, 0
2, 115776, Note_on_c, 0, 68, 100
2, 115792, Note_on_c, 0, 65, 0
2, 115836, Note_on_c, 0, 71, 100
2, 115852, Note_on_c, 0, 68, 0
2, 115900, Note_on_c, 0, 74, 100
2, 115912, Note_on_c, 0, 71, 0
2, 115968, Note_on_c, 0, 77, 100
2, 115976, Note_on_c, 0, 74, 0
2, 116032, Note_on_c, 0, 74, 100
2, 116044, Note_on_c, 0, 77, 0
2, 116100, Note_on_c, 0, 71, 100
2, 116108, Note_on_c, 0, 74, 0
2, 116160, Note_on_c, 0, 67, 100
2, 116176, Note_on_c, 0, 71, 0
2, 116220, Note_on_c, 0, 62, 100
2, 116236, Note_on_c, 0, 67, 0
2, 116284, Note_on_c, 0, 59, 100
2, 116296, Note_on_c, 0, 62, 0
2, 116352, Note_on_c, 0, 55, 100
2, 116360, Note_on_c, 0, 59, 0
2, 116480, Note_on_c, 0, 55, 0
2, 116544, Note_on_c, 0, 79, 100
2, 116736, Note_on_c, 0, 79, 0
2, 116736, Note_on_c, 0, 72, 100
2, 116752, Note_on_c, 0, 71, 100
2, 116768, Note_on_c, 0, 72, 0
2, 116772, Note_on_c, 0, 72, 100
2, 116784, Note_on_c, 0, 71, 0
2, 116860, Note_on_c, 0, 72, 0
2, 116860, Note_on_c, 0, 74, 100
2, 116892, Note_on_c, 0, 72, 100
2, 116896, Note_on_c, 0, 74, 0
2, 116924, Note_on_c, 0, 71, 100
2, 116928, Note_on_c, 0, 72, 0
2, 116944, Note_on_c, 0, 72, 100
2, 116960, Note_on_c, 0, 71, 0
2, 117072, Note_on_c, 0, 74, 100
2, 117092, Note_on_c, 0, 72, 0
2, 117112, Note_on_c, 0, 74, 0
2, 117120, Note_on_c, 0, 75, 105
2, 117120, Note_on_c, 0, 71, 100
2, 117152, Note_on_c, 0, 74, 100
2, 117160, Note_on_c, 0, 75, 0
2, 117188, Note_on_c, 0, 75, 100
2, 117192, Note_on_c, 0, 74, 0
2, 117224, Note_on_c, 0, 74, 100
2, 117228, Note_on_c, 0, 75, 0
2, 117260, Note_on_c, 0, 75, 100
2, 117264, Note_on_c, 0, 74, 0
2, 117296, Note_on_c, 0, 74, 100
2, 117300, Note_on_c, 0, 75, 0
2, 117332, Note_on_c, 0, 75, 100
2, 117336, Note_on_c, 0, 74, 0
2, 117368, Note_on_c, 0, 74, 100
2, 117372, Note_on_c, 0, 75, 0
2, 117448, Note_on_c, 0, 72, 100
2, 117456, Note_on_c, 0, 74, 0
2, 117488, Note_on_c, 0, 72, 0
2, 117500, Note_on_c, 0, 71, 0
2, 117504, Note_on_c, 0, 72, 100
2, 117568, Note_on_c, 0, 71, 100
2, 117596, Note_on_c, 0, 72, 0
2, 117636, Note_on_c, 0, 74, 100
2, 117640, Note_on_c, 0, 71, 0
2, 117696, Note_on_c, 0, 68, 100
2, 117708, Note_on_c, 0, 74, 0
2, 117756, Note_on_c, 0, 67, 100
2, 117788, Note_on_c, 0, 68, 0
2, 117820, Note_on_c, 0, 70, 100
2, 117828, Note_on_c, 0, 67, 0
2, 117888, Note_on_c, 0, 65, 100
2, 117892, Note_on_c, 0, 70, 0
2, 117952, Note_on_c, 0, 64, 100
2, 117960, Note_on_c, 0, 65, 0
2, 118020, Note_on_c, 0, 67, 100
2, 118024, Note_on_c, 0, 64, 0
2, 118080, Note_on_c, 0, 61, 100
2, 118092, Note_on_c, 0, 67, 0
2, 118140, Note_on_c, 0, 60, 100
2, 118172, Note_on_c, 0, 61, 0
2, 118204, Note_on_c, 0, 70, 100
2, 118212, Note_on_c, 0, 60, 0
2, 118260, Note_on_c, 0, 70, 0
2, 118272, Note_on_c, 0, 70, 100
2, 118336, Note_on_c, 0, 69, 100
2, 118364, Note_on_c, 0, 70, 0
2, 118404, Note_on_c, 0, 72, 100
2, 118408, Note_on_c, 0, 69, 0
2, 118464, Note_on_c, 0, 66, 100
2, 118476, Note_on_c, 0, 72, 0
2, 118524, Note_on_c, 0, 65, 100
2, 118556, Note_on_c, 0, 66, 0
2, 118588, Note_on_c, 0, 68, 100
2, 118596, Note_on_c, 0, 65, 0
2, 118656, Note_on_c, 0, 63, 100
2, 118660, Note_on_c, 0, 68, 0
2, 118720, Note_on_c, 0, 62, 100
2, 118748, Note_on_c, 0, 63, 0
2, 118788, Note_on_c, 0, 65, 100
2, 118792, Note_on_c, 0, 62, 0
2, 118848, Note_on_c, 0, 59, 100
2, 118860, Note_on_c, 0, 65, 0
2, 118908, Note_on_c, 0, 58, 100
2, 118940, Note_on_c, 0, 59, 0
2, 118972, Note_on_c, 0, 68, 100
2, 118980, Note_on_c, 0, 58, 0
2, 119032, Note_on_c, 0, 68, 0
2, 119040, Note_on_c, 0, 68, 100
2, 119104, Note_on_c, 0, 67, 100
2, 119132, Note_on_c, 0, 68, 0
2, 119172, Note_on_c, 0, 70, 100
2, 119176, Note_on_c, 0, 67, 0
2, 119232, Note_on_c, 0, 64, 100
2, 119244, Note_on_c, 0, 70, 0
2, 119292, Note_on_c, 0, 63, 100
2, 119324, Note_on_c, 0, 64, 0
2, 119356, Note_on_c, 0, 67, 100
2, 119364, Note_on_c, 0, 63, 0
2, 119424, Note_on_c, 0, 61, 100
2, 119428, Note_on_c, 0, 67, 0
2, 119488, Note_on_c, 0, 60, 100
2, 119516, Note_on_c, 0, 61, 0
2, 119556, Note_on_c, 0, 63, 100
2, 119560, Note_on_c, 0, 60, 0
2, 119616, Note_on_c, 0, 58, 100
2, 119628, Note_on_c, 0, 63, 0
2, 119676, Note_on_c, 0, 57, 100
2, 119708, Note_on_c, 0, 58, 0
2, 119740, Note_on_c, 0, 66, 100
2, 119748, Note_on_c, 0, 57, 0
2, 119800, Note_on_c, 0, 66, 0
2, 119808, Note_on_c, 0, 66, 100
2, 119996, Note_on_c, 0, 66, 0
2, 120000, Note_on_c, 0, 67, 100
2, 120256, Note_on_c, 0, 69, 100
2, 120260, Note_on_c, 0, 67, 0
2, 120324, Note_on_c, 0, 71, 100
2, 120332, Note_on_c, 0, 69, 0
2, 120384, Note_on_c, 0, 72, 100
2, 120400, Note_on_c, 0, 71, 0
2, 120444, Note_on_c, 0, 74, 100
2, 120460, Note_on_c, 0, 72, 0
2, 120508, Note_on_c, 0, 75, 100
2, 120520, Note_on_c, 0, 74, 0
2, 120576, Note_on_c, 0, 65, 100
2, 120584, Note_on_c, 0, 75, 0
2, 120640, Note_on_c, 0, 75, 100
2, 120652, Note_on_c, 0, 65, 0
2, 120708, Note_on_c, 0, 74, 100
2, 120716, Note_on_c, 0, 75, 0
2, 120768, Note_on_c, 0, 77, 100
2, 120784, Note_on_c, 0, 74, 0
2, 120828, Note_on_c, 0, 75, 100
2, 120844, Note_on_c, 0, 77, 0
2, 120892, Note_on_c, 0, 74, 100
2, 120904, Note_on_c, 0, 75, 0
2, 120960, Note_on_c, 0, 75, 100
2, 120968, Note_on_c, 0, 74, 0
2, 121024, Note_on_c, 0, 74, 100
2, 121036, Note_on_c, 0, 75, 0
2, 121092, Note_on_c, 0, 72, 100
2, 121100, Note_on_c, 0, 74, 0
2, 121152, Note_on_c, 0, 74, 100
2, 121168, Note_on_c, 0, 72, 0
2, 121212, Note_on_c, 0, 72, 100
2, 121228, Note_on_c, 0, 74, 0
2, 121276, Note_on_c, 0, 71, 100
2, 121288, Note_on_c, 0, 72, 0
2, 121344, Note_on_c, 0, 72, 100
2, 121352, Note_on_c, 0, 71, 0
2, 121408, Note_on_c, 0, 74, 100
2, 121420, Note_on_c, 0, 72, 0
2, 121476, Note_on_c, 0, 75, 100
2, 121484, Note_on_c, 0, 74, 0
2, 121536, Note_on_c, 0, 65, 100
2, 121552, Note_on_c, 0, 75, 0
2, 121596, Note_on_c, 0, 75, 100
2, 121612, Note_on_c, 0, 65, 0
2, 121660, Note_on_c, 0, 74, 100
2, 121672, Note_on_c, 0, 75, 0
2, 121728, Note_on_c, 0, 63, 100
2, 121736, Note_on_c, 0, 74, 0
2, 121792, Note_on_c, 0, 74, 100
2, 121804, Note_on_c, 0, 63, 0
2, 121860, Note_on_c, 0, 72, 100
2, 121868, Note_on_c, 0, 74, 0
2, 121920, Note_on_c, 0, 62, 100
2, 121936, Note_on_c, 0, 72, 0
2, 121980, Note_on_c, 0, 72, 100
2, 121996, Note_on_c, 0, 62, 0
2, 122044, Note_on_c, 0, 71, 100
2, 122056, Note_on_c, 0, 72, 0
2, 122112, Note_on_c, 0, 72, 100
2, 122120, Note_on_c, 0, 71, 0
2, 122176, Note_on_c, 0, 67, 100
2, 122244, Note_on_c, 0, 63, 100
2, 122304, Note_on_c, 0, 60, 100
2, 123260, Note_on_c, 0, 60, 0
2, 123260, Note_on_c, 0, 72, 0
2, 123260, Note_on_c, 0, 67, 0
2, 123260, Note_on_c, 0, 63, 0
2, 123260, End_track
3, 0, Start_track
3, 0, MIDI_port, 0
3, 0, Title_t, "Sequenced by T.L. Hubeart Jr."
3, 0, Control_c, 1, 0, 0
3, 0, Control_c, 1, 32, 0
3, 0, Program_c, 1, 6
3, 0, Control_c, 1, 7, 100
3, 0, Control_c, 1, 10, 74
3, 0, Note_on_c, 1, 36, 100
3, 188, Note_on_c, 1, 36, 0
3, 192, Note_on_c, 1, 48, 100
3, 380, Note_on_c, 1, 48, 0
3, 448, Note_on_c, 1, 55, 100
3, 512, Note_on_c, 1, 55, 0
3, 512, Note_on_c, 1, 53, 100
3, 576, Note_on_c, 1, 53, 0
3, 576, Note_on_c, 1, 51, 100
3, 636, Note_on_c, 1, 50, 100
3, 640, Note_on_c, 1, 51, 0
3, 700, Note_on_c, 1, 50, 0
3, 700, Note_on_c, 1, 48, 100
3, 764, Note_on_c, 1, 48, 0
3, 768, Note_on_c, 1, 55, 100
3, 804, Note_on_c, 1, 54, 100
3, 816, Note_on_c, 1, 55, 0
3, 844, Note_on_c, 1, 55, 100
3, 852, Note_on_c, 1, 54, 0
3, 960, Note_on_c, 1, 43, 100
3, 1004, Note_on_c, 1, 55, 0
3, 1088, Note_on_c, 1, 43, 0
3, 1536, Note_on_c, 1, 40, 100
3, 1724, Note_on_c, 1, 40, 0
3, 1728, Note_on_c, 1, 52, 100
3, 1916, Note_on_c, 1, 52, 0
3, 1984, Note_on_c, 1, 55, 100
3, 2048, Note_on_c, 1, 55, 0
3, 2048, Note_on_c, 1, 53, 100
3, 2112, Note_on_c, 1, 53, 0
3, 2112, Note_on_c, 1, 52, 100
3, 2172, Note_on_c, 1, 50, 100
3, 2176, Note_on_c, 1, 52, 0
3, 2236, Note_on_c, 1, 50, 0
3, 2236, Note_on_c, 1, 48, 100
3, 2300, Note_on_c, 1, 48, 0
3, 2304, Note_on_c, 1, 53, 100
3, 2340, Note_on_c, 1, 52, 100
3, 2352, Note_on_c, 1, 53, 0
3, 2380, Note_on_c, 1, 53, 100
3, 2388, Note_on_c, 1, 52, 0
3, 2496, Note_on_c, 1, 41, 100
3, 2540, Note_on_c, 1, 53, 0
3, 2624, Note_on_c, 1, 41, 0
3, 3072, Note_on_c, 1, 38, 100
3, 3260, Note_on_c, 1, 38, 0
3, 3264, Note_on_c, 1, 50, 100
3, 3452, Note_on_c, 1, 50, 0
3, 3520, Note_on_c, 1, 53, 100
3, 3584, Note_on_c, 1, 51, 100
3, 3600, Note_on_c, 1, 53, 0
3, 3648, Note_on_c, 1, 50, 100
3, 3664, Note_on_c, 1, 51, 0
3, 3708, Note_on_c, 1, 48, 100
3, 3728, Note_on_c, 1, 50, 0
3, 3772, Note_on_c, 1, 47, 100
3, 3788, Note_on_c, 1, 48, 0
3, 3840, Note_on_c, 1, 51, 100
3, 3852, Note_on_c, 1, 47, 0
3, 3904, Note_on_c, 1, 43, 100
3, 3920, Note_on_c, 1, 51, 0
3, 3968, Note_on_c, 1, 45, 100
3, 3984, Note_on_c, 1, 43, 0
3, 4032, Note_on_c, 1, 47, 100
3, 4048, Note_on_c, 1, 45, 0
3, 4092, Note_on_c, 1, 48, 100
3, 4112, Note_on_c, 1, 47, 0
3, 4156, Note_on_c, 1, 50, 100
3, 4172, Note_on_c, 1, 48, 0
3, 4224, Note_on_c, 1, 51, 110
3, 4236, Note_on_c, 1, 50, 0
3, 4288, Note_on_c, 1, 48, 100
3, 4312, Note_on_c, 1, 51, 0
3, 4352, Note_on_c, 1, 50, 100
3, 4368, Note_on_c, 1, 48, 0
3, 4416, Note_on_c, 1, 51, 100
3, 4432, Note_on_c, 1, 50, 0
3, 4476, Note_on_c, 1, 53, 100
3, 4496, Note_on_c, 1, 51, 0
3, 4540, Note_on_c, 1, 55, 100
3, 4556, Note_on_c, 1, 53, 0
3, 4608, Note_on_c, 1, 56, 100
3, 4620, Note_on_c, 1, 55, 0
3, 4796, Note_on_c, 1, 56, 0
3, 4800, Note_on_c, 1, 55, 100
3, 4988, Note_on_c, 1, 55, 0
3, 4992, Note_on_c, 1, 53, 100
3, 5180, Note_on_c, 1, 53, 0
3, 5184, Note_on_c, 1, 54, 100
3, 5372, Note_on_c, 1, 54, 0
3, 5376, Note_on_c, 1, 55, 100
3, 5412, Note_on_c, 1, 54, 100
3, 5424, Note_on_c, 1, 55, 0
3, 5452, Note_on_c, 1, 55, 100
3, 5460, Note_on_c, 1, 54, 0
3, 5568, Note_on_c, 1, 43, 100
3, 5612, Note_on_c, 1, 55, 0
3, 5696, Note_on_c, 1, 43, 0
3, 6144, Note_on_c, 1, 36, 100
3, 6208, Note_on_c, 1, 39, 100
3, 6224, Note_on_c, 1, 36, 0
3, 6272, Note_on_c, 1, 43, 100
3, 6288, Note_on_c, 1, 39, 0
3, 6336, Note_on_c, 1, 48, 100
3, 6352, Note_on_c, 1, 43, 0
3, 6396, Note_on_c, 1, 51, 100
3, 6416, Note_on_c, 1, 48, 0
3, 6460, Note_on_c, 1, 55, 100
3, 6476, Note_on_c, 1, 51, 0
3, 6528, Note_on_c, 1, 60, 100
3, 6540, Note_on_c, 1, 55, 0
3, 6716, Note_on_c, 1, 60, 0
3, 6720, Note_on_c, 1, 48, 100
3, 6848, Note_on_c, 1, 48, 0
3, 6912, Note_on_c, 1, 50, 100
3, 6940, Note_on_c, 1, 48, 100
3, 6952, Note_on_c, 1, 50, 0
3, 6968, Note_on_c, 1, 50, 100
3, 6980, Note_on_c, 1, 48, 0
3, 7000, Note_on_c, 1, 48, 100
3, 7008, Note_on_c, 1, 50, 0
3, 7104, Note_on_c, 1, 47, 100
3, 7128, Note_on_c, 1, 48, 0
3, 7232, Note_on_c, 1, 47, 0
3, 7680, Note_on_c, 1, 36, 100
3, 7744, Note_on_c, 1, 40, 100
3, 7760, Note_on_c, 1, 36, 0
3, 7808, Note_on_c, 1, 43, 100
3, 7824, Note_on_c, 1, 40, 0
3, 7872, Note_on_c, 1, 48, 100
3, 7888, Note_on_c, 1, 43, 0
3, 7932, Note_on_c, 1, 52, 100
3, 7952, Note_on_c, 1, 48, 0
3, 7996, Note_on_c, 1, 55, 100
3, 8012, Note_on_c, 1, 52, 0
3, 8064, Note_on_c, 1, 58, 100
3, 8076, Note_on_c, 1, 55, 0
3, 8252, Note_on_c, 1, 58, 0
3, 8256, Note_on_c, 1, 46, 100
3, 8384, Note_on_c, 1, 46, 0
3, 8448, Note_on_c, 1, 48, 100
3, 8476, Note_on_c, 1, 46, 100
3, 8488, Note_on_c, 1, 48, 0
3, 8504, Note_on_c, 1, 48, 100
3, 8516, Note_on_c, 1, 46, 0
3, 8536, Note_on_c, 1, 46, 100
3, 8544, Note_on_c, 1, 48, 0
3, 8640, Note_on_c, 1, 45, 100
3, 8664, Note_on_c, 1, 46, 0
3, 8768, Note_on_c, 1, 45, 0
3, 9216, Note_on_c, 1, 44, 100
3, 9280, Note_on_c, 1, 47, 100
3, 9308, Note_on_c, 1, 44, 0
3, 9344, Note_on_c, 1, 50, 100
3, 9372, Note_on_c, 1, 47, 0
3, 9408, Note_on_c, 1, 53, 100
3, 9436, Note_on_c, 1, 50, 0
3, 9468, Note_on_c, 1, 56, 100
3, 9500, Note_on_c, 1, 53, 0
3, 9532, Note_on_c, 1, 59, 100
3, 9560, Note_on_c, 1, 56, 0
3, 9600, Note_on_c, 1, 62, 100
3, 9624, Note_on_c, 1, 59, 0
3, 9728, Note_on_c, 1, 62, 0
3, 9792, Note_on_c, 1, 44, 100
3, 9980, Note_on_c, 1, 44, 0
3, 9984, Note_on_c, 1, 43, 100
3, 10048, Note_on_c, 1, 48, 100
3, 10076, Note_on_c, 1, 43, 0
3, 10112, Note_on_c, 1, 51, 100
3, 10140, Note_on_c, 1, 48, 0
3, 10176, Note_on_c, 1, 55, 100
3, 10204, Note_on_c, 1, 51, 0
3, 10236, Note_on_c, 1, 59, 100
3, 10268, Note_on_c, 1, 55, 0
3, 10300, Note_on_c, 1, 60, 100
3, 10328, Note_on_c, 1, 59, 0
3, 10368, Note_on_c, 1, 63, 100
3, 10392, Note_on_c, 1, 60, 0
3, 10496, Note_on_c, 1, 63, 0
3, 10560, Note_on_c, 1, 43, 100
3, 10748, Note_on_c, 1, 43, 0
3, 10752, Note_on_c, 1, 42, 100
3, 10844, Note_on_c, 1, 42, 0
3, 10848, Note_on_c, 1, 54, 100
3, 10848, Note_on_c, 1, 60, 100
3, 10940, Note_on_c, 1, 60, 0
3, 10940, Note_on_c, 1, 54, 0
3, 10944, Note_on_c, 1, 54, 100
3, 10944, Note_on_c, 1, 60, 100
3, 11036, Note_on_c, 1, 60, 0
3, 11036, Note_on_c, 1, 54, 0
3, 11040, Note_on_c, 1, 54, 100
3, 11040, Note_on_c, 1, 60, 100
3, 11132, Note_on_c, 1, 60, 0
3, 11132, Note_on_c, 1, 54, 0
3, 11136, Note_on_c, 1, 60, 100
3, 11136, Note_on_c, 1, 54, 100
3, 11200, Note_on_c, 1, 54, 0
3, 11200, Note_on_c, 1, 60, 0
3, 11232, Note_on_c, 1, 60, 100
3, 11232, Note_on_c, 1, 54, 100
3, 11296, Note_on_c, 1, 54, 0
3, 11296, Note_on_c, 1, 60, 0
3, 11328, Note_on_c, 1, 60, 100
3, 11328, Note_on_c, 1, 54, 100
3, 11392, Note_on_c, 1, 54, 0
3, 11392, Note_on_c, 1, 60, 0
3, 11424, Note_on_c, 1, 60, 100
3, 11424, Note_on_c, 1, 54, 100
3, 11488, Note_on_c, 1, 54, 0
3, 11488, Note_on_c, 1, 60, 0
3, 11520, Note_on_c, 1, 55, 100
3, 11752, Note_on_c, 1, 55, 0
3, 11772, Note_on_c, 1, 55, 100
3, 11836, Note_on_c, 1, 54, 100
3, 11844, Note_on_c, 1, 55, 0
3, 11904, Note_on_c, 1, 55, 100
3, 11908, Note_on_c, 1, 54, 0
3, 11968, Note_on_c, 1, 50, 100
3, 11976, Note_on_c, 1, 55, 0
3, 12032, Note_on_c, 1, 47, 100
3, 12040, Note_on_c, 1, 50, 0
3, 12096, Note_on_c, 1, 43, 100
3, 12104, Note_on_c, 1, 47, 0
3, 12156, Note_on_c, 1, 50, 100
3, 12168, Note_on_c, 1, 43, 0
3, 12220, Note_on_c, 1, 53, 100
3, 12228, Note_on_c, 1, 50, 0
3, 12288, Note_on_c, 1, 52, 100
3, 12292, Note_on_c, 1, 53, 0
3, 12416, Note_on_c, 1, 52, 0
3, 12864, Note_on_c, 1, 52, 100
3, 12992, Note_on_c, 1, 52, 0
3, 13056, Note_on_c, 1, 53, 100
3, 13184, Note_on_c, 1, 53, 0
3, 13632, Note_on_c, 1, 53, 100
3, 13760, Note_on_c, 1, 53, 0
3, 13824, Note_on_c, 1, 50, 100
3, 13952, Note_on_c, 1, 50, 0
3, 14400, Note_on_c, 1, 50, 100
3, 14528, Note_on_c, 1, 50, 0
3, 14592, Note_on_c, 1, 51, 100
3, 14720, Note_on_c, 1, 51, 0
3, 15168, Note_on_c, 1, 51, 100
3, 15296, Note_on_c, 1, 51, 0
3, 15360, Note_on_c, 1, 44, 100
3, 15548, Note_on_c, 1, 44, 0
3, 15936, Note_on_c, 1, 46, 100
3, 16124, Note_on_c, 1, 46, 0
3, 16128, Note_on_c, 1, 48, 100
3, 16316, Note_on_c, 1, 48, 0
3, 16704, Note_on_c, 1, 50, 100
3, 16892, Note_on_c, 1, 50, 0
3, 16896, Note_on_c, 1, 51, 100
3, 17024, Note_on_c, 1, 51, 0
3, 17088, Note_on_c, 1, 56, 100
3, 17216, Note_on_c, 1, 56, 0
3, 17280, Note_on_c, 1, 58, 100
3, 17408, Note_on_c, 1, 58, 0
3, 17472, Note_on_c, 1, 46, 100
3, 17600, Note_on_c, 1, 46, 0
3, 17664, Note_on_c, 1, 51, 100
3, 17792, Note_on_c, 1, 51, 0
3, 18240, Note_on_c, 1, 51, 100
3, 18368, Note_on_c, 1, 51, 0
3, 18432, Note_on_c, 1, 51, 100
3, 18560, Note_on_c, 1, 51, 0
3, 19008, Note_on_c, 1, 51, 100
3, 19136, Note_on_c, 1, 51, 0
3, 19200, Note_on_c, 1, 51, 100
3, 19328, Note_on_c, 1, 51, 0
3, 19392, Note_on_c, 1, 56, 100
3, 19520, Note_on_c, 1, 56, 0
3, 19584, Note_on_c, 1, 58, 100
3, 19712, Note_on_c, 1, 58, 0
3, 19776, Note_on_c, 1, 46, 100
3, 19904, Note_on_c, 1, 46, 0
3, 19968, Note_on_c, 1, 51, 100
3, 20032, Note_on_c, 1, 53, 100
3, 20048, Note_on_c, 1, 51, 0
3, 20096, Note_on_c, 1, 55, 100
3, 20112, Note_on_c, 1, 53, 0
3, 20160, Note_on_c, 1, 57, 100
3, 20176, Note_on_c, 1, 55, 0
3, 20220, Note_on_c, 1, 58, 100
3, 20240, Note_on_c, 1, 57, 0
3, 20284, Note_on_c, 1, 59, 100
3, 20300, Note_on_c, 1, 58, 0
3, 20352, Note_on_c, 1, 60, 100
3, 20364, Note_on_c, 1, 59, 0
3, 20480, Note_on_c, 1, 60, 0
3, 20544, Note_on_c, 1, 48, 100
3, 20672, Note_on_c, 1, 48, 0
3, 20736, Note_on_c, 1, 50, 100
3, 20800, Note_on_c, 1, 52, 100
3, 20816, Note_on_c, 1, 50, 0
3, 20864, Note_on_c, 1, 54, 100
3, 20880, Note_on_c, 1, 52, 0
3, 20928, Note_on_c, 1, 55, 100
3, 20944, Note_on_c, 1, 54, 0
3, 20988, Note_on_c, 1, 56, 100
3, 21008, Note_on_c, 1, 55, 0
3, 21052, Note_on_c, 1, 57, 100
3, 21068, Note_on_c, 1, 56, 0
3, 21120, Note_on_c, 1, 58, 100
3, 21132, Note_on_c, 1, 57, 0
3, 21248, Note_on_c, 1, 58, 0
3, 21312, Note_on_c, 1, 46, 100
3, 21440, Note_on_c, 1, 46, 0
3, 21504, Note_on_c, 1, 49, 100
3, 21568, Note_on_c, 1, 50, 100
3, 21584, Note_on_c, 1, 49, 0
3, 21636, Note_on_c, 1, 52, 100
3, 21648, Note_on_c, 1, 50, 0
3, 21696, Note_on_c, 1, 54, 100
3, 21716, Note_on_c, 1, 52, 0
3, 21756, Note_on_c, 1, 55, 100
3, 21776, Note_on_c, 1, 54, 0
3, 21820, Note_on_c, 1, 56, 100
3, 21836, Note_on_c, 1, 55, 0
3, 21888, Note_on_c, 1, 57, 100
3, 21900, Note_on_c, 1, 56, 0
3, 22016, Note_on_c, 1, 57, 0
3, 22080, Note_on_c, 1, 48, 100
3, 22208, Note_on_c, 1, 48, 0
3, 22272, Note_on_c, 1, 48, 100
3, 22336, Note_on_c, 1, 60, 100
3, 22352, Note_on_c, 1, 48, 0
3, 22404, Note_on_c, 1, 57, 100
3, 22416, Note_on_c, 1, 60, 0
3, 22464, Note_on_c, 1, 54, 100
3, 22484, Note_on_c, 1, 57, 0
3, 22524, Note_on_c, 1, 50, 100
3, 22544, Note_on_c, 1, 54, 0
3, 22588, Note_on_c, 1, 45, 100
3, 22604, Note_on_c, 1, 50, 0
3, 22656, Note_on_c, 1, 42, 100
3, 22668, Note_on_c, 1, 45, 0
3, 22784, Note_on_c, 1, 42, 0
3, 22848, Note_on_c, 1, 38, 100
3, 22976, Note_on_c, 1, 38, 0
3, 23040, Note_on_c, 1, 43, 100
3, 23168, Note_on_c, 1, 43, 0
3, 23232, Note_on_c, 1, 48, 100
3, 23360, Note_on_c, 1, 48, 0
3, 23424, Note_on_c, 1, 50, 100
3, 23552, Note_on_c, 1, 50, 0
3, 23616, Note_on_c, 1, 38, 100
3, 23744, Note_on_c, 1, 38, 0
3, 23808, Note_on_c, 1, 43, 100
3, 24060, Note_on_c, 1, 47, 100
3, 24064, Note_on_c, 1, 43, 0
3, 24124, Note_on_c, 1, 50, 100
3, 24164, Note_on_c, 1, 47, 0
3, 24192, Note_on_c, 1, 55, 100
3, 24228, Note_on_c, 1, 50, 0
3, 24380, Note_on_c, 1, 55, 0
3, 24576, Note_on_c, 1, 36, 100
3, 24764, Note_on_c, 1, 36, 0
3, 24768, Note_on_c, 1, 48, 100
3, 24956, Note_on_c, 1, 48, 0
3, 25024, Note_on_c, 1, 55, 100
3, 25088, Note_on_c, 1, 55, 0
3, 25088, Note_on_c, 1, 53, 100
3, 25152, Note_on_c, 1, 53, 0
3, 25152, Note_on_c, 1, 51, 100
3, 25212, Note_on_c, 1, 50, 100
3, 25216, Note_on_c, 1, 51, 0
3, 25276, Note_on_c, 1, 50, 0
3, 25276, Note_on_c, 1, 48, 100
3, 25340, Note_on_c, 1, 48, 0
3, 25344, Note_on_c, 1, 55, 100
3, 25380, Note_on_c, 1, 54, 100
3, 25392, Note_on_c, 1, 55, 0
3, 25420, Note_on_c, 1, 55, 100
3, 25428, Note_on_c, 1, 54, 0
3, 25536, Note_on_c, 1, 43, 100
3, 25580, Note_on_c, 1, 55, 0
3, 25664, Note_on_c, 1, 43, 0
3, 26112, Note_on_c, 1, 40, 100
3, 26300, Note_on_c, 1, 40, 0
3, 26304, Note_on_c, 1, 52, 100
3, 26492, Note_on_c, 1, 52, 0
3, 26560, Note_on_c, 1, 55, 100
3, 26624, Note_on_c, 1, 55, 0
3, 26624, Note_on_c, 1, 53, 100
3, 26688, Note_on_c, 1, 53, 0
3, 26688, Note_on_c, 1, 52, 100
3, 26748, Note_on_c, 1, 50, 100
3, 26752, Note_on_c, 1, 52, 0
3, 26812, Note_on_c, 1, 50, 0
3, 26812, Note_on_c, 1, 48, 100
3, 26876, Note_on_c, 1, 48, 0
3, 26880, Note_on_c, 1, 53, 100
3, 26916, Note_on_c, 1, 52, 100
3, 26928, Note_on_c, 1, 53, 0
3, 26956, Note_on_c, 1, 53, 100
3, 26964, Note_on_c, 1, 52, 0
3, 27072, Note_on_c, 1, 41, 100
3, 27116, Note_on_c, 1, 53, 0
3, 27200, Note_on_c, 1, 41, 0
3, 27648, Note_on_c, 1, 38, 100
3, 27836, Note_on_c, 1, 38, 0
3, 27840, Note_on_c, 1, 50, 100
3, 28028, Note_on_c, 1, 50, 0
3, 28096, Note_on_c, 1, 53, 100
3, 28160, Note_on_c, 1, 51, 100
3, 28176, Note_on_c, 1, 53, 0
3, 28224, Note_on_c, 1, 50, 100
3, 28240, Note_on_c, 1, 51, 0
3, 28284, Note_on_c, 1, 48, 100
3, 28304, Note_on_c, 1, 50, 0
3, 28348, Note_on_c, 1, 47, 100
3, 28364, Note_on_c, 1, 48, 0
3, 28416, Note_on_c, 1, 51, 100
3, 28428, Note_on_c, 1, 47, 0
3, 28480, Note_on_c, 1, 43, 100
3, 28496, Note_on_c, 1, 51, 0
3, 28544, Note_on_c, 1, 45, 100
3, 28560, Note_on_c, 1, 43, 0
3, 28608, Note_on_c, 1, 47, 100
3, 28624, Note_on_c, 1, 45, 0
3, 28668, Note_on_c, 1, 48, 100
3, 28688, Note_on_c, 1, 47, 0
3, 28732, Note_on_c, 1, 50, 100
3, 28748, Note_on_c, 1, 48, 0
3, 28800, Note_on_c, 1, 51, 110
3, 28812, Note_on_c, 1, 50, 0
3, 28864, Note_on_c, 1, 48, 100
3, 28888, Note_on_c, 1, 51, 0
3, 28928, Note_on_c, 1, 50, 100
3, 28944, Note_on_c, 1, 48, 0
3, 28992, Note_on_c, 1, 51, 100
3, 29008, Note_on_c, 1, 50, 0
3, 29052, Note_on_c, 1, 53, 100
3, 29072, Note_on_c, 1, 51, 0
3, 29116, Note_on_c, 1, 55, 100
3, 29132, Note_on_c, 1, 53, 0
3, 29184, Note_on_c, 1, 56, 100
3, 29196, Note_on_c, 1, 55, 0
3, 29372, Note_on_c, 1, 56, 0
3, 29376, Note_on_c, 1, 55, 100
3, 29564, Note_on_c, 1, 55, 0
3, 29568, Note_on_c, 1, 53, 100
3, 29756, Note_on_c, 1, 53, 0
3, 29760, Note_on_c, 1, 54, 100
3, 29948, Note_on_c, 1, 54, 0
3, 29952, Note_on_c, 1, 55, 100
3, 29988, Note_on_c, 1, 54, 100
3, 30000, Note_on_c, 1, 55, 0
3, 30028, Note_on_c, 1, 55, 100
3, 30036, Note_on_c, 1, 54, 0
3, 30144, Note_on_c, 1, 43, 100
3, 30188, Note_on_c, 1, 55, 0
3, 30272, Note_on_c, 1, 43, 0
3, 30720, Note_on_c, 1, 36, 100
3, 30784, Note_on_c, 1, 39, 100
3, 30800, Note_on_c, 1, 36, 0
3, 30848, Note_on_c, 1, 43, 100
3, 30864, Note_on_c, 1, 39, 0
3, 30912, Note_on_c, 1, 48, 100
3, 30928, Note_on_c, 1, 43, 0
3, 30972, Note_on_c, 1, 51, 100
3, 30992, Note_on_c, 1, 48, 0
3, 31036, Note_on_c, 1, 55, 100
3, 31052, Note_on_c, 1, 51, 0
3, 31104, Note_on_c, 1, 60, 100
3, 31116, Note_on_c, 1, 55, 0
3, 31292, Note_on_c, 1, 60, 0
3, 31296, Note_on_c, 1, 48, 100
3, 31424, Note_on_c, 1, 48, 0
3, 31488, Note_on_c, 1, 50, 100
3, 31516, Note_on_c, 1, 48, 100
3, 31528, Note_on_c, 1, 50, 0
3, 31544, Note_on_c, 1, 50, 100
3, 31556, Note_on_c, 1, 48, 0
3, 31576, Note_on_c, 1, 48, 100
3, 31584, Note_on_c, 1, 50, 0
3, 31680, Note_on_c, 1, 47, 100
3, 31704, Note_on_c, 1, 48, 0
3, 31808, Note_on_c, 1, 47, 0
3, 32256, Note_on_c, 1, 36, 100
3, 32320, Note_on_c, 1, 40, 100
3, 32336, Note_on_c, 1, 36, 0
3, 32384, Note_on_c, 1, 43, 100
3, 32400, Note_on_c, 1, 40, 0
3, 32448, Note_on_c, 1, 48, 100
3, 32464, Note_on_c, 1, 43, 0
3, 32508, Note_on_c, 1, 52, 100
3, 32528, Note_on_c, 1, 48, 0
3, 32572, Note_on_c, 1, 55, 100
3, 32588, Note_on_c, 1, 52, 0
3, 32640, Note_on_c, 1, 58, 100
3, 32652, Note_on_c, 1, 55, 0
3, 32828, Note_on_c, 1, 58, 0
3, 32832, Note_on_c, 1, 46, 100
3, 32960, Note_on_c, 1, 46, 0
3, 33024, Note_on_c, 1, 48, 100
3, 33052, Note_on_c, 1, 46, 100
3, 33064, Note_on_c, 1, 48, 0
3, 33080, Note_on_c, 1, 48, 100
3, 33092, Note_on_c, 1, 46, 0
3, 33112, Note_on_c, 1, 46, 100
3, 33120, Note_on_c, 1, 48, 0
3, 33216, Note_on_c, 1, 45, 100
3, 33240, Note_on_c, 1, 46, 0
3, 33344, Note_on_c, 1, 45, 0
3, 33792, Note_on_c, 1, 44, 100
3, 33856, Note_on_c, 1, 47, 100
3, 33884, Note_on_c, 1, 44, 0
3, 33920, Note_on_c, 1, 50, 100
3, 33948, Note_on_c, 1, 47, 0
3, 33984, Note_on_c, 1, 53, 100
3, 34012, Note_on_c, 1, 50, 0
3, 34044, Note_on_c, 1, 56, 100
3, 34076, Note_on_c, 1, 53, 0
3, 34108, Note_on_c, 1, 59, 100
3, 34136, Note_on_c, 1, 56, 0
3, 34176, Note_on_c, 1, 62, 100
3, 34200, Note_on_c, 1, 59, 0
3, 34304, Note_on_c, 1, 62, 0
3, 34368, Note_on_c, 1, 44, 100
3, 34556, Note_on_c, 1, 44, 0
3, 34560, Note_on_c, 1, 43, 100
3, 34624, Note_on_c, 1, 48, 100
3, 34652, Note_on_c, 1, 43, 0
3, 34688, Note_on_c, 1, 51, 100
3, 34716, Note_on_c, 1, 48, 0
3, 34752, Note_on_c, 1, 55, 100
3, 34780, Note_on_c, 1, 51, 0
3, 34812, Note_on_c, 1, 59, 100
3, 34844, Note_on_c, 1, 55, 0
3, 34876, Note_on_c, 1, 60, 100
3, 34904, Note_on_c, 1, 59, 0
3, 34944, Note_on_c, 1, 63, 100
3, 34968, Note_on_c, 1, 60, 0
3, 35072, Note_on_c, 1, 63, 0
3, 35136, Note_on_c, 1, 43, 100
3, 35324, Note_on_c, 1, 43, 0
3, 35328, Note_on_c, 1, 42, 100
3, 35420, Note_on_c, 1, 42, 0
3, 35424, Note_on_c, 1, 54, 100
3, 35424, Note_on_c, 1, 60, 100
3, 35516, Note_on_c, 1, 60, 0
3, 35516, Note_on_c, 1, 54, 0
3, 35520, Note_on_c, 1, 54, 100
3, 35520, Note_on_c, 1, 60, 100
3, 35612, Note_on_c, 1, 60, 0
3, 35612, Note_on_c, 1, 54, 0
3, 35616, Note_on_c, 1, 54, 100
3, 35616, Note_on_c, 1, 60, 100
3, 35708, Note_on_c, 1, 60, 0
3, 35708, Note_on_c, 1, 54, 0
3, 35712, Note_on_c, 1, 60, 100
3, 35712, Note_on_c, 1, 54, 100
3, 35776, Note_on_c, 1, 54, 0
3, 35776, Note_on_c, 1, 60, 0
3, 35808, Note_on_c, 1, 60, 100
3, 35808, Note_on_c, 1, 54, 100
3, 35872, Note_on_c, 1, 54, 0
3, 35872, Note_on_c, 1, 60, 0
3, 35904, Note_on_c, 1, 60, 100
3, 35904, Note_on_c, 1, 54, 100
3, 35968, Note_on_c, 1, 54, 0
3, 35968, Note_on_c, 1, 60, 0
3, 36000, Note_on_c, 1, 60, 100
3, 36000, Note_on_c, 1, 54, 100
3, 36064, Note_on_c, 1, 54, 0
3, 36064, Note_on_c, 1, 60, 0
3, 36096, Note_on_c, 1, 55, 100
3, 36328, Note_on_c, 1, 55, 0
3, 36348, Note_on_c, 1, 55, 100
3, 36412, Note_on_c, 1, 54, 100
3, 36420, Note_on_c, 1, 55, 0
3, 36480, Note_on_c, 1, 55, 100
3, 36484, Note_on_c, 1, 54, 0
3, 36544, Note_on_c, 1, 50, 100
3, 36552, Note_on_c, 1, 55, 0
3, 36608, Note_on_c, 1, 47, 100
3, 36616, Note_on_c, 1, 50, 0
3, 36672, Note_on_c, 1, 43, 100
3, 36680, Note_on_c, 1, 47, 0
3, 36732, Note_on_c, 1, 50, 100
3, 36744, Note_on_c, 1, 43, 0
3, 36796, Note_on_c, 1, 53, 100
3, 36804, Note_on_c, 1, 50, 0
3, 36864, Note_on_c, 1, 52, 100
3, 36868, Note_on_c, 1, 53, 0
3, 36992, Note_on_c, 1, 52, 0
3, 37440, Note_on_c, 1, 52, 100
3, 37568, Note_on_c, 1, 52, 0
3, 37632, Note_on_c, 1, 53, 100
3, 37760, Note_on_c, 1, 53, 0
3, 38208, Note_on_c, 1, 53, 100
3, 38336, Note_on_c, 1, 53, 0
3, 38400, Note_on_c, 1, 50, 100
3, 38528, Note_on_c, 1, 50, 0
3, 38976, Note_on_c, 1, 50, 100
3, 39104, Note_on_c, 1, 50, 0
3, 39168, Note_on_c, 1, 51, 100
3, 39296, Note_on_c, 1, 51, 0
3, 39744, Note_on_c, 1, 51, 100
3, 39872, Note_on_c, 1, 51, 0
3, 39936, Note_on_c, 1, 44, 100
3, 40124, Note_on_c, 1, 44, 0
3, 40512, Note_on_c, 1, 46, 100
3, 40700, Note_on_c, 1, 46, 0
3, 40704, Note_on_c, 1, 48, 100
3, 40892, Note_on_c, 1, 48, 0
3, 41280, Note_on_c, 1, 50, 100
3, 41468, Note_on_c, 1, 50, 0
3, 41472, Note_on_c, 1, 51, 100
3, 41600, Note_on_c, 1, 51, 0
3, 41664, Note_on_c, 1, 56, 100
3, 41792, Note_on_c, 1, 56, 0
3, 41856, Note_on_c, 1, 58, 100
3, 41984, Note_on_c, 1, 58, 0
3, 42048, Note_on_c, 1, 46, 100
3, 42176, Note_on_c, 1, 46, 0
3, 42240, Note_on_c, 1, 51, 100
3, 42368, Note_on_c, 1, 51, 0
3, 42816, Note_on_c, 1, 51, 100
3, 42944, Note_on_c, 1, 51, 0
3, 43008, Note_on_c, 1, 51, 100
3, 43136, Note_on_c, 1, 51, 0
3, 43584, Note_on_c, 1, 51, 100
3, 43712, Note_on_c, 1, 51, 0
3, 43776, Note_on_c, 1, 51, 100
3, 43904, Note_on_c, 1, 51, 0
3, 43968, Note_on_c, 1, 56, 100
3, 44096, Note_on_c, 1, 56, 0
3, 44160, Note_on_c, 1, 58, 100
3, 44288, Note_on_c, 1, 58, 0
3, 44352, Note_on_c, 1, 46, 100
3, 44480, Note_on_c, 1, 46, 0
3, 44544, Note_on_c, 1, 51, 100
3, 44608, Note_on_c, 1, 53, 100
3, 44624, Note_on_c, 1, 51, 0
3, 44672, Note_on_c, 1, 55, 100
3, 44688, Note_on_c, 1, 53, 0
3, 44736, Note_on_c, 1, 57, 100
3, 44752, Note_on_c, 1, 55, 0
3, 44796, Note_on_c, 1, 58, 100
3, 44816, Note_on_c, 1, 57, 0
3, 44860, Note_on_c, 1, 59, 100
3, 44876, Note_on_c, 1, 58, 0
3, 44928, Note_on_c, 1, 60, 100
3, 44940, Note_on_c, 1, 59, 0
3, 45056, Note_on_c, 1, 60, 0
3, 45120, Note_on_c, 1, 48, 100
3, 45248, Note_on_c, 1, 48, 0
3, 45312, Note_on_c, 1, 50, 100
3, 45376, Note_on_c, 1, 52, 100
3, 45392, Note_on_c, 1, 50, 0
3, 45440, Note_on_c, 1, 54, 100
3, 45456, Note_on_c, 1, 52, 0
3, 45504, Note_on_c, 1, 55, 100
3, 45520, Note_on_c, 1, 54, 0
3, 45564, Note_on_c, 1, 56, 100
3, 45584, Note_on_c, 1, 55, 0
3, 45628, Note_on_c, 1, 57, 100
3, 45644, Note_on_c, 1, 56, 0
3, 45696, Note_on_c, 1, 58, 100
3, 45708, Note_on_c, 1, 57, 0
3, 45824, Note_on_c, 1, 58, 0
3, 45888, Note_on_c, 1, 46, 100
3, 46016, Note_on_c, 1, 46, 0
3, 46080, Note_on_c, 1, 49, 100
3, 46144, Note_on_c, 1, 50, 100
3, 46160, Note_on_c, 1, 49, 0
3, 46212, Note_on_c, 1, 52, 100
3, 46224, Note_on_c, 1, 50, 0
3, 46272, Note_on_c, 1, 54, 100
3, 46292, Note_on_c, 1, 52, 0
3, 46332, Note_on_c, 1, 55, 100
3, 46352, Note_on_c, 1, 54, 0
3, 46396, Note_on_c, 1, 56, 100
3, 46412, Note_on_c, 1, 55, 0
3, 46464, Note_on_c, 1, 57, 100
3, 46476, Note_on_c, 1, 56, 0
3, 46592, Note_on_c, 1, 57, 0
3, 46656, Note_on_c, 1, 48, 100
3, 46784, Note_on_c, 1, 48, 0
3, 46848, Note_on_c, 1, 48, 100
3, 46912, Note_on_c, 1, 60, 100
3, 46928, Note_on_c, 1, 48, 0
3, 46980, Note_on_c, 1, 57, 100
3, 46992, Note_on_c, 1, 60, 0
3, 47040, Note_on_c, 1, 54, 100
3, 47060, Note_on_c, 1, 57, 0
3, 47100, Note_on_c, 1, 50, 100
3, 47120, Note_on_c, 1, 54, 0
3, 47164, Note_on_c, 1, 45, 100
3, 47180, Note_on_c, 1, 50, 0
3, 47232, Note_on_c, 1, 42, 100
3, 47244, Note_on_c, 1, 45, 0
3, 47360, Note_on_c, 1, 42, 0
3, 47424, Note_on_c, 1, 38, 100
3, 47552, Note_on_c, 1, 38, 0
3, 47616, Note_on_c, 1, 43, 100
3, 47744, Note_on_c, 1, 43, 0
3, 47808, Note_on_c, 1, 48, 100
3, 47936, Note_on_c, 1, 48, 0
3, 48000, Note_on_c, 1, 50, 100
3, 48128, Note_on_c, 1, 50, 0
3, 48192, Note_on_c, 1, 38, 100
3, 48320, Note_on_c, 1, 38, 0
3, 48384, Note_on_c, 1, 43, 100
3, 48636, Note_on_c, 1, 47, 100
3, 48640, Note_on_c, 1, 43, 0
3, 48700, Note_on_c, 1, 50, 100
3, 48740, Note_on_c, 1, 47, 0
3, 48768, Note_on_c, 1, 55, 100
3, 48804, Note_on_c, 1, 50, 0
3, 48956, Note_on_c, 1, 55, 0
3, 49152, Note_on_c, 1, 43, 100
3, 49340, Note_on_c, 1, 43, 0
3, 49344, Note_on_c, 1, 55, 100
3, 49532, Note_on_c, 1, 55, 0
3, 49600, Note_on_c, 1, 50, 100
3, 49664, Note_on_c, 1, 50, 0
3, 49664, Note_on_c, 1, 48, 100
3, 49728, Note_on_c, 1, 48, 0
3, 49728, Note_on_c, 1, 46, 100
3, 49788, Note_on_c, 1, 45, 100
3, 49792, Note_on_c, 1, 46, 0
3, 49852, Note_on_c, 1, 45, 0
3, 49852, Note_on_c, 1, 43, 100
3, 49916, Note_on_c, 1, 43, 0
3, 49920, Note_on_c, 1, 50, 100
3, 50108, Note_on_c, 1, 50, 0
3, 50112, Note_on_c, 1, 38, 100
3, 50240, Note_on_c, 1, 38, 0
3, 50688, Note_on_c, 1, 42, 100
3, 50876, Note_on_c, 1, 42, 0
3, 50880, Note_on_c, 1, 54, 100
3, 51068, Note_on_c, 1, 54, 0
3, 51136, Note_on_c, 1, 57, 100
3, 51200, Note_on_c, 1, 57, 0
3, 51200, Note_on_c, 1, 55, 100
3, 51264, Note_on_c, 1, 55, 0
3, 51264, Note_on_c, 1, 54, 100
3, 51324, Note_on_c, 1, 52, 100
3, 51328, Note_on_c, 1, 54, 0
3, 51388, Note_on_c, 1, 52, 0
3, 51388, Note_on_c, 1, 50, 100
3, 51452, Note_on_c, 1, 50, 0
3, 51456, Note_on_c, 1, 55, 100
3, 51644, Note_on_c, 1, 55, 0
3, 51648, Note_on_c, 1, 43, 100
3, 51776, Note_on_c, 1, 43, 0
3, 52224, Note_on_c, 1, 59, 100
3, 52412, Note_on_c, 1, 59, 0
3, 52608, Note_on_c, 1, 43, 100
3, 52672, Note_on_c, 1, 47, 100
3, 52700, Note_on_c, 1, 43, 0
3, 52736, Note_on_c, 1, 50, 100
3, 52764, Note_on_c, 1, 47, 0
3, 52800, Note_on_c, 1, 55, 100
3, 52828, Note_on_c, 1, 50, 0
3, 52860, Note_on_c, 1, 59, 100
3, 52892, Note_on_c, 1, 55, 0
3, 52924, Note_on_c, 1, 62, 100
3, 52952, Note_on_c, 1, 59, 0
3, 52992, Note_on_c, 1, 60, 100
3, 53016, Note_on_c, 1, 62, 0
3, 53120, Note_on_c, 1, 60, 0
3, 53184, Note_on_c, 1, 48, 100
3, 53424, Note_on_c, 1, 48, 0
3, 53440, Note_on_c, 1, 51, 100
3, 53504, Note_on_c, 1, 55, 100
3, 53532, Note_on_c, 1, 51, 0
3, 53568, Note_on_c, 1, 60, 100
3, 53596, Note_on_c, 1, 55, 0
3, 53628, Note_on_c, 1, 63, 100
3, 53660, Note_on_c, 1, 60, 0
3, 53692, Note_on_c, 1, 67, 100
3, 53720, Note_on_c, 1, 63, 0
3, 53760, Note_on_c, 1, 57, 100
3, 53784, Note_on_c, 1, 67, 0
3, 53948, Note_on_c, 1, 57, 0
3, 54144, Note_on_c, 1, 41, 100
3, 54208, Note_on_c, 1, 45, 100
3, 54236, Note_on_c, 1, 41, 0
3, 54272, Note_on_c, 1, 48, 100
3, 54300, Note_on_c, 1, 45, 0
3, 54336, Note_on_c, 1, 53, 100
3, 54364, Note_on_c, 1, 48, 0
3, 54396, Note_on_c, 1, 57, 100
3, 54428, Note_on_c, 1, 53, 0
3, 54460, Note_on_c, 1, 60, 100
3, 54488, Note_on_c, 1, 57, 0
3, 54528, Note_on_c, 1, 58, 100
3, 54552, Note_on_c, 1, 60, 0
3, 54656, Note_on_c, 1, 58, 0
3, 54720, Note_on_c, 1, 46, 100
3, 54960, Note_on_c, 1, 46, 0
3, 54976, Note_on_c, 1, 50, 100
3, 55040, Note_on_c, 1, 53, 100
3, 55068, Note_on_c, 1, 50, 0
3, 55104, Note_on_c, 1, 58, 100
3, 55132, Note_on_c, 1, 53, 0
3, 55164, Note_on_c, 1, 62, 100
3, 55196, Note_on_c, 1, 58, 0
3, 55228, Note_on_c, 1, 65, 100
3, 55256, Note_on_c, 1, 62, 0
3, 55296, Note_on_c, 1, 63, 100
3, 55320, Note_on_c, 1, 65, 0
3, 55484, Note_on_c, 1, 63, 0
3, 55488, Note_on_c, 1, 51, 100
3, 55676, Note_on_c, 1, 51, 0
3, 55744, Note_on_c, 1, 50, 100
3, 55812, Note_on_c, 1, 51, 100
3, 55816, Note_on_c, 1, 50, 0
3, 55872, Note_on_c, 1, 52, 100
3, 55884, Note_on_c, 1, 51, 0
3, 55932, Note_on_c, 1, 53, 100
3, 55944, Note_on_c, 1, 52, 0
3, 55996, Note_on_c, 1, 54, 100
3, 56004, Note_on_c, 1, 53, 0
3, 56064, Note_on_c, 1, 55, 100
3, 56068, Note_on_c, 1, 54, 0
3, 56092, Note_on_c, 1, 54, 100
3, 56096, Note_on_c, 1, 55, 0
3, 56120, Note_on_c, 1, 55, 100
3, 56124, Note_on_c, 1, 54, 0
3, 56360, Note_on_c, 1, 55, 0
3, 56512, Note_on_c, 1, 56, 100
3, 56580, Note_on_c, 1, 55, 100
3, 56584, Note_on_c, 1, 56, 0
3, 56640, Note_on_c, 1, 54, 100
3, 56652, Note_on_c, 1, 55, 0
3, 56700, Note_on_c, 1, 53, 100
3, 56712, Note_on_c, 1, 54, 0
3, 56764, Note_on_c, 1, 52, 100
3, 56772, Note_on_c, 1, 53, 0
3, 56832, Note_on_c, 1, 56, 100
3, 56836, Note_on_c, 1, 52, 0
3, 57020, Note_on_c, 1, 56, 0
3, 57024, Note_on_c, 1, 44, 100
3, 57280, Note_on_c, 1, 43, 100
3, 57320, Note_on_c, 1, 44, 0
3, 57348, Note_on_c, 1, 44, 100
3, 57352, Note_on_c, 1, 43, 0
3, 57408, Note_on_c, 1, 45, 100
3, 57420, Note_on_c, 1, 44, 0
3, 57468, Note_on_c, 1, 46, 100
3, 57480, Note_on_c, 1, 45, 0
3, 57532, Note_on_c, 1, 47, 100
3, 57540, Note_on_c, 1, 46, 0
3, 57600, Note_on_c, 1, 48, 100
3, 57604, Note_on_c, 1, 47, 0
3, 57632, Note_on_c, 1, 47, 100
3, 57636, Note_on_c, 1, 48, 0
3, 57668, Note_on_c, 1, 47, 0
3, 57668, Note_on_c, 1, 48, 100
3, 57908, Note_on_c, 1, 48, 0
3, 58048, Note_on_c, 1, 49, 100
3, 58116, Note_on_c, 1, 48, 100
3, 58120, Note_on_c, 1, 49, 0
3, 58176, Note_on_c, 1, 47, 100
3, 58188, Note_on_c, 1, 48, 0
3, 58236, Note_on_c, 1, 46, 100
3, 58248, Note_on_c, 1, 47, 0
3, 58300, Note_on_c, 1, 45, 100
3, 58308, Note_on_c, 1, 46, 0
3, 58368, Note_on_c, 1, 49, 100
3, 58372, Note_on_c, 1, 45, 0
3, 58556, Note_on_c, 1, 49, 0
3, 58560, Note_on_c, 1, 61, 100
3, 58816, Note_on_c, 1, 60, 100
3, 58856, Note_on_c, 1, 61, 0
3, 58884, Note_on_c, 1, 61, 100
3, 58888, Note_on_c, 1, 60, 0
3, 58944, Note_on_c, 1, 62, 100
3, 58956, Note_on_c, 1, 61, 0
3, 59004, Note_on_c, 1, 63, 100
3, 59016, Note_on_c, 1, 62, 0
3, 59068, Note_on_c, 1, 64, 100
3, 59076, Note_on_c, 1, 63, 0
3, 59136, Note_on_c, 1, 65, 100
3, 59140, Note_on_c, 1, 64, 0
3, 59168, Note_on_c, 1, 64, 100
3, 59172, Note_on_c, 1, 65, 0
3, 59204, Note_on_c, 1, 64, 0
3, 59204, Note_on_c, 1, 65, 100
3, 59444, Note_on_c, 1, 65, 0
3, 59584, Note_on_c, 1, 53, 100
3, 59652, Note_on_c, 1, 52, 100
3, 59656, Note_on_c, 1, 53, 0
3, 59712, Note_on_c, 1, 53, 100
3, 59724, Note_on_c, 1, 52, 0
3, 59772, Note_on_c, 1, 55, 100
3, 59784, Note_on_c, 1, 53, 0
3, 59836, Note_on_c, 1, 56, 100
3, 59844, Note_on_c, 1, 55, 0
3, 59904, Note_on_c, 1, 58, 100
3, 59908, Note_on_c, 1, 56, 0
3, 59968, Note_on_c, 1, 56, 100
3, 59984, Note_on_c, 1, 58, 0
3, 60036, Note_on_c, 1, 55, 100
3, 60048, Note_on_c, 1, 56, 0
3, 60096, Note_on_c, 1, 56, 100
3, 60116, Note_on_c, 1, 55, 0
3, 60156, Note_on_c, 1, 58, 100
3, 60176, Note_on_c, 1, 56, 0
3, 60220, Note_on_c, 1, 60, 100
3, 60236, Note_on_c, 1, 58, 0
3, 60288, Note_on_c, 1, 61, 100
3, 60300, Note_on_c, 1, 60, 0
3, 60416, Note_on_c, 1, 61, 0
3, 60480, Note_on_c, 1, 58, 100
3, 60608, Note_on_c, 1, 58, 0
3, 60672, Note_on_c, 1, 60, 100
3, 60800, Note_on_c, 1, 60, 0
3, 60864, Note_on_c, 1, 48, 100
3, 61120, Note_on_c, 1, 52, 100
3, 61128, Note_on_c, 1, 48, 0
3, 61188, Note_on_c, 1, 55, 100
3, 61200, Note_on_c, 1, 52, 0
3, 61248, Note_on_c, 1, 58, 100
3, 61268, Note_on_c, 1, 55, 0
3, 61308, Note_on_c, 1, 57, 100
3, 61328, Note_on_c, 1, 58, 0
3, 61372, Note_on_c, 1, 55, 100
3, 61388, Note_on_c, 1, 57, 0
3, 61440, Note_on_c, 1, 54, 100
3, 61452, Note_on_c, 1, 55, 0
3, 61504, Note_on_c, 1, 63, 100
3, 61528, Note_on_c, 1, 54, 0
3, 61572, Note_on_c, 1, 60, 100
3, 61592, Note_on_c, 1, 63, 0
3, 61632, Note_on_c, 1, 54, 100
3, 61632, Note_on_c, 1, 45, 100
3, 61660, Note_on_c, 1, 60, 0
3, 61692, Note_on_c, 1, 63, 100
3, 61720, Note_on_c, 1, 54, 0
3, 61756, Note_on_c, 1, 60, 100
3, 61780, Note_on_c, 1, 63, 0
3, 61820, Note_on_c, 1, 45, 0
3, 61824, Note_on_c, 1, 54, 100
3, 61824, Note_on_c, 1, 45, 100
3, 61844, Note_on_c, 1, 60, 0
3, 61888, Note_on_c, 1, 63, 100
3, 61912, Note_on_c, 1, 54, 0
3, 61956, Note_on_c, 1, 60, 100
3, 61976, Note_on_c, 1, 63, 0
3, 62012, Note_on_c, 1, 45, 0
3, 62016, Note_on_c, 1, 54, 100
3, 62044, Note_on_c, 1, 60, 0
3, 62076, Note_on_c, 1, 63, 100
3, 62104, Note_on_c, 1, 54, 0
3, 62140, Note_on_c, 1, 60, 100
3, 62164, Note_on_c, 1, 63, 0
3, 62208, Note_on_c, 1, 53, 100
3, 62228, Note_on_c, 1, 60, 0
3, 62272, Note_on_c, 1, 61, 100
3, 62296, Note_on_c, 1, 53, 0
3, 62340, Note_on_c, 1, 58, 100
3, 62360, Note_on_c, 1, 61, 0
3, 62400, Note_on_c, 1, 53, 100
3, 62400, Note_on_c, 1, 46, 100
3, 62428, Note_on_c, 1, 58, 0
3, 62460, Note_on_c, 1, 61, 100
3, 62488, Note_on_c, 1, 53, 0
3, 62524, Note_on_c, 1, 58, 100
3, 62548, Note_on_c, 1, 61, 0
3, 62588, Note_on_c, 1, 46, 0
3, 62592, Note_on_c, 1, 53, 100
3, 62592, Note_on_c, 1, 46, 100
3, 62612, Note_on_c, 1, 58, 0
3, 62656, Note_on_c, 1, 61, 100
3, 62680, Note_on_c, 1, 53, 0
3, 62724, Note_on_c, 1, 58, 100
3, 62744, Note_on_c, 1, 61, 0
3, 62780, Note_on_c, 1, 46, 0
3, 62784, Note_on_c, 1, 53, 100
3, 62812, Note_on_c, 1, 58, 0
3, 62844, Note_on_c, 1, 61, 100
3, 62872, Note_on_c, 1, 53, 0
3, 62908, Note_on_c, 1, 58, 100
3, 62932, Note_on_c, 1, 61, 0
3, 62976, Note_on_c, 1, 52, 100
3, 62996, Note_on_c, 1, 58, 0
3, 63040, Note_on_c, 1, 61, 100
3, 63064, Note_on_c, 1, 52, 0
3, 63108, Note_on_c, 1, 58, 100
3, 63128, Note_on_c, 1, 61, 0
3, 63168, Note_on_c, 1, 52, 100
3, 63168, Note_on_c, 1, 43, 100
3, 63196, Note_on_c, 1, 58, 0
3, 63228, Note_on_c, 1, 61, 100
3, 63256, Note_on_c, 1, 52, 0
3, 63292, Note_on_c, 1, 58, 100
3, 63316, Note_on_c, 1, 61, 0
3, 63356, Note_on_c, 1, 43, 0
3, 63360, Note_on_c, 1, 52, 100
3, 63360, Note_on_c, 1, 43, 100
3, 63380, Note_on_c, 1, 58, 0
3, 63424, Note_on_c, 1, 61, 100
3, 63448, Note_on_c, 1, 52, 0
3, 63492, Note_on_c, 1, 58, 100
3, 63512, Note_on_c, 1, 61, 0
3, 63548, Note_on_c, 1, 43, 0
3, 63552, Note_on_c, 1, 52, 100
3, 63580, Note_on_c, 1, 58, 0
3, 63612, Note_on_c, 1, 61, 100
3, 63640, Note_on_c, 1, 52, 0
3, 63676, Note_on_c, 1, 58, 100
3, 63700, Note_on_c, 1, 61, 0
3, 63744, Note_on_c, 1, 51, 100
3, 63764, Note_on_c, 1, 58, 0
3, 63808, Note_on_c, 1, 60, 100
3, 63832, Note_on_c, 1, 51, 0
3, 63876, Note_on_c, 1, 56, 100
3, 63896, Note_on_c, 1, 60, 0
3, 63936, Note_on_c, 1, 51, 100
3, 63936, Note_on_c, 1, 44, 100
3, 63964, Note_on_c, 1, 56, 0
3, 63996, Note_on_c, 1, 60, 100
3, 64024, Note_on_c, 1, 51, 0
3, 64060, Note_on_c, 1, 56, 100
3, 64084, Note_on_c, 1, 60, 0
3, 64124, Note_on_c, 1, 44, 0
3, 64128, Note_on_c, 1, 51, 100
3, 64128, Note_on_c, 1, 44, 100
3, 64148, Note_on_c, 1, 56, 0
3, 64192, Note_on_c, 1, 60, 100
3, 64216, Note_on_c, 1, 51, 0
3, 64260, Note_on_c, 1, 56, 100
3, 64280, Note_on_c, 1, 60, 0
3, 64316, Note_on_c, 1, 44, 0
3, 64320, Note_on_c, 1, 51, 100
3, 64320, Note_on_c, 1, 48, 100
3, 64348, Note_on_c, 1, 56, 0
3, 64380, Note_on_c, 1, 60, 100
3, 64408, Note_on_c, 1, 51, 0
3, 64444, Note_on_c, 1, 56, 100
3, 64448, Note_on_c, 1, 48, 0
3, 64468, Note_on_c, 1, 60, 0
3, 64512, Note_on_c, 1, 53, 100
3, 64512, Note_on_c, 1, 49, 100
3, 64532, Note_on_c, 1, 56, 0
3, 64576, Note_on_c, 1, 55, 100
3, 64588, Note_on_c, 1, 53, 0
3, 64644, Note_on_c, 1, 56, 100
3, 64652, Note_on_c, 1, 55, 0
3, 64700, Note_on_c, 1, 49, 0
3, 64704, Note_on_c, 1, 58, 100
3, 64720, Note_on_c, 1, 56, 0
3, 64764, Note_on_c, 1, 60, 100
3, 64780, Note_on_c, 1, 58, 0
3, 64828, Note_on_c, 1, 61, 100
3, 64840, Note_on_c, 1, 60, 0
3, 64896, Note_on_c, 1, 51, 100
3, 64904, Note_on_c, 1, 61, 0
3, 64960, Note_on_c, 1, 61, 100
3, 64972, Note_on_c, 1, 51, 0
3, 65028, Note_on_c, 1, 60, 100
3, 65036, Note_on_c, 1, 61, 0
3, 65088, Note_on_c, 1, 58, 100
3, 65088, Note_on_c, 1, 51, 100
3, 65104, Note_on_c, 1, 60, 0
3, 65148, Note_on_c, 1, 56, 100
3, 65164, Note_on_c, 1, 58, 0
3, 65212, Note_on_c, 1, 55, 100
3, 65224, Note_on_c, 1, 56, 0
3, 65276, Note_on_c, 1, 51, 0
3, 65280, Note_on_c, 1, 56, 100
3, 65280, Note_on_c, 1, 53, 100
3, 65288, Note_on_c, 1, 55, 0
3, 65344, Note_on_c, 1, 58, 100
3, 65356, Note_on_c, 1, 56, 0
3, 65412, Note_on_c, 1, 60, 100
3, 65420, Note_on_c, 1, 58, 0
3, 65468, Note_on_c, 1, 53, 0
3, 65472, Note_on_c, 1, 61, 100
3, 65488, Note_on_c, 1, 60, 0
3, 65532, Note_on_c, 1, 63, 100
3, 65548, Note_on_c, 1, 61, 0
3, 65596, Note_on_c, 1, 65, 100
3, 65608, Note_on_c, 1, 63, 0
3, 65664, Note_on_c, 1, 55, 100
3, 65672, Note_on_c, 1, 65, 0
3, 65728, Note_on_c, 1, 65, 100
3, 65740, Note_on_c, 1, 55, 0
3, 65796, Note_on_c, 1, 63, 100
3, 65804, Note_on_c, 1, 65, 0
3, 65856, Note_on_c, 1, 61, 100
3, 65856, Note_on_c, 1, 55, 100
3, 65872, Note_on_c, 1, 63, 0
3, 65916, Note_on_c, 1, 60, 100
3, 65932, Note_on_c, 1, 61, 0
3, 65980, Note_on_c, 1, 58, 100
3, 65992, Note_on_c, 1, 60, 0
3, 66044, Note_on_c, 1, 55, 0
3, 66048, Note_on_c, 1, 56, 100
3, 66056, Note_on_c, 1, 58, 0
3, 66236, Note_on_c, 1, 56, 0
3, 66624, Note_on_c, 1, 51, 100
3, 66812, Note_on_c, 1, 51, 0
3, 66816, Note_on_c, 1, 44, 100
3, 67004, Note_on_c, 1, 44, 0
3, 67200, Note_on_c, 1, 60, 100
3, 67388, Note_on_c, 1, 60, 0
3, 67584, Note_on_c, 1, 61, 100
3, 67648, Note_on_c, 1, 65, 100
3, 67660, Note_on_c, 1, 61, 0
3, 67716, Note_on_c, 1, 68, 100
3, 67724, Note_on_c, 1, 65, 0
3, 67776, Note_on_c, 1, 72, 100
3, 67792, Note_on_c, 1, 68, 0
3, 67904, Note_on_c, 1, 72, 0
3, 67968, Note_on_c, 1, 61, 100
3, 68096, Note_on_c, 1, 61, 0
3, 68160, Note_on_c, 1, 72, 100
3, 68288, Note_on_c, 1, 72, 0
3, 68352, Note_on_c, 1, 62, 100
3, 68416, Note_on_c, 1, 65, 100
3, 68428, Note_on_c, 1, 62, 0
3, 68484, Note_on_c, 1, 68, 100
3, 68492, Note_on_c, 1, 65, 0
3, 68544, Note_on_c, 1, 71, 100
3, 68560, Note_on_c, 1, 68, 0
3, 68672, Note_on_c, 1, 71, 0
3, 68736, Note_on_c, 1, 62, 100
3, 68864, Note_on_c, 1, 62, 0
3, 68928, Note_on_c, 1, 71, 100
3, 69056, Note_on_c, 1, 71, 0
3, 69120, Note_on_c, 1, 60, 100
3, 69184, Note_on_c, 1, 65, 100
3, 69196, Note_on_c, 1, 60, 0
3, 69252, Note_on_c, 1, 68, 100
3, 69260, Note_on_c, 1, 65, 0
3, 69312, Note_on_c, 1, 72, 100
3, 69328, Note_on_c, 1, 68, 0
3, 69440, Note_on_c, 1, 72, 0
3, 69504, Note_on_c, 1, 60, 100
3, 69632, Note_on_c, 1, 60, 0
3, 69696, Note_on_c, 1, 72, 100
3, 69824, Note_on_c, 1, 72, 0
3, 69888, Note_on_c, 1, 59, 100
3, 69952, Note_on_c, 1, 65, 100
3, 69964, Note_on_c, 1, 59, 0
3, 70020, Note_on_c, 1, 68, 100
3, 70028, Note_on_c, 1, 65, 0
3, 70080, Note_on_c, 1, 74, 100
3, 70096, Note_on_c, 1, 68, 0
3, 70208, Note_on_c, 1, 74, 0
3, 70272, Note_on_c, 1, 59, 100
3, 70400, Note_on_c, 1, 59, 0
3, 70464, Note_on_c, 1, 74, 100
3, 70592, Note_on_c, 1, 74, 0
3, 70656, Note_on_c, 1, 60, 100
3, 70720, Note_on_c, 1, 63, 100
3, 70732, Note_on_c, 1, 60, 0
3, 70788, Note_on_c, 1, 67, 100
3, 70796, Note_on_c, 1, 63, 0
3, 70864, Note_on_c, 1, 67, 0
3, 71232, Note_on_c, 1, 63, 100
3, 71292, Note_on_c, 1, 62, 100
3, 71308, Note_on_c, 1, 63, 0
3, 71356, Note_on_c, 1, 60, 100
3, 71368, Note_on_c, 1, 62, 0
3, 71424, Note_on_c, 1, 58, 100
3, 71432, Note_on_c, 1, 60, 0
3, 71488, Note_on_c, 1, 62, 100
3, 71500, Note_on_c, 1, 58, 0
3, 71556, Note_on_c, 1, 65, 100
3, 71564, Note_on_c, 1, 62, 0
3, 71632, Note_on_c, 1, 65, 0
3, 72000, Note_on_c, 1, 61, 100
3, 72060, Note_on_c, 1, 60, 100
3, 72076, Note_on_c, 1, 61, 0
3, 72124, Note_on_c, 1, 58, 100
3, 72136, Note_on_c, 1, 60, 0
3, 72192, Note_on_c, 1, 56, 100
3, 72200, Note_on_c, 1, 58, 0
3, 72256, Note_on_c, 1, 68, 100
3, 72280, Note_on_c, 1, 56, 0
3, 72344, Note_on_c, 1, 68, 0
3, 72384, Note_on_c, 1, 56, 100
3, 72444, Note_on_c, 1, 67, 100
3, 72472, Note_on_c, 1, 56, 0
3, 72532, Note_on_c, 1, 67, 0
3, 72576, Note_on_c, 1, 56, 100
3, 72640, Note_on_c, 1, 65, 100
3, 72664, Note_on_c, 1, 56, 0
3, 72728, Note_on_c, 1, 65, 0
3, 72768, Note_on_c, 1, 56, 100
3, 72828, Note_on_c, 1, 63, 100
3, 72856, Note_on_c, 1, 56, 0
3, 72916, Note_on_c, 1, 63, 0
3, 72960, Note_on_c, 1, 57, 100
3, 73024, Note_on_c, 1, 63, 100
3, 73048, Note_on_c, 1, 57, 0
3, 73112, Note_on_c, 1, 63, 0
3, 73152, Note_on_c, 1, 57, 100
3, 73212, Note_on_c, 1, 63, 100
3, 73240, Note_on_c, 1, 57, 0
3, 73300, Note_on_c, 1, 63, 0
3, 73344, Note_on_c, 1, 57, 100
3, 73408, Note_on_c, 1, 62, 100
3, 73432, Note_on_c, 1, 57, 0
3, 73496, Note_on_c, 1, 62, 0
3, 73536, Note_on_c, 1, 57, 100
3, 73596, Note_on_c, 1, 60, 100
3, 73624, Note_on_c, 1, 57, 0
3, 73684, Note_on_c, 1, 60, 0
3, 73728, Note_on_c, 1, 55, 100
3, 73792, Note_on_c, 1, 60, 100
3, 73804, Note_on_c, 1, 55, 0
3, 73860, Note_on_c, 1, 59, 100
3, 73868, Note_on_c, 1, 60, 0
3, 73920, Note_on_c, 1, 60, 100
3, 73936, Note_on_c, 1, 59, 0
3, 73980, Note_on_c, 1, 61, 100
3, 73996, Note_on_c, 1, 60, 0
3, 74044, Note_on_c, 1, 62, 100
3, 74056, Note_on_c, 1, 61, 0
3, 74112, Note_on_c, 1, 63, 100
3, 74120, Note_on_c, 1, 62, 0
3, 74176, Note_on_c, 1, 60, 100
3, 74188, Note_on_c, 1, 63, 0
3, 74244, Note_on_c, 1, 59, 100
3, 74252, Note_on_c, 1, 60, 0
3, 74304, Note_on_c, 1, 58, 100
3, 74320, Note_on_c, 1, 59, 0
3, 74364, Note_on_c, 1, 57, 100
3, 74380, Note_on_c, 1, 58, 0
3, 74428, Note_on_c, 1, 56, 100
3, 74440, Note_on_c, 1, 57, 0
3, 74496, Note_on_c, 1, 55, 100
3, 74504, Note_on_c, 1, 56, 0
3, 74684, Note_on_c, 1, 55, 0
3, 74944, Note_on_c, 1, 44, 100
3, 75012, Note_on_c, 1, 43, 100
3, 75020, Note_on_c, 1, 44, 0
3, 75072, Note_on_c, 1, 41, 100
3, 75088, Note_on_c, 1, 43, 0
3, 75132, Note_on_c, 1, 39, 100
3, 75148, Note_on_c, 1, 41, 0
3, 75196, Note_on_c, 1, 38, 100
3, 75208, Note_on_c, 1, 39, 0
3, 75264, Note_on_c, 1, 36, 100
3, 75272, Note_on_c, 1, 38, 0
3, 75452, Note_on_c, 1, 36, 0
3, 75456, Note_on_c, 1, 48, 100
3, 75644, Note_on_c, 1, 48, 0
3, 75712, Note_on_c, 1, 55, 100
3, 75776, Note_on_c, 1, 55, 0
3, 75776, Note_on_c, 1, 53, 100
3, 75840, Note_on_c, 1, 53, 0
3, 75840, Note_on_c, 1, 51, 100
3, 75900, Note_on_c, 1, 50, 100
3, 75904, Note_on_c, 1, 51, 0
3, 75964, Note_on_c, 1, 50, 0
3, 75964, Note_on_c, 1, 48, 100
3, 76028, Note_on_c, 1, 48, 0
3, 76032, Note_on_c, 1, 55, 100
3, 76068, Note_on_c, 1, 54, 100
3, 76080, Note_on_c, 1, 55, 0
3, 76108, Note_on_c, 1, 55, 100
3, 76116, Note_on_c, 1, 54, 0
3, 76224, Note_on_c, 1, 43, 100
3, 76268, Note_on_c, 1, 55, 0
3, 76352, Note_on_c, 1, 43, 0
3, 76800, Note_on_c, 1, 40, 100
3, 76988, Note_on_c, 1, 40, 0
3, 76992, Note_on_c, 1, 52, 100
3, 77180, Note_on_c, 1, 52, 0
3, 77248, Note_on_c, 1, 55, 100
3, 77312, Note_on_c, 1, 55, 0
3, 77312, Note_on_c, 1, 53, 100
3, 77376, Note_on_c, 1, 53, 0
3, 77376, Note_on_c, 1, 52, 100
3, 77436, Note_on_c, 1, 50, 100
3, 77440, Note_on_c, 1, 52, 0
3, 77500, Note_on_c, 1, 50, 0
3, 77500, Note_on_c, 1, 48, 100
3, 77564, Note_on_c, 1, 48, 0
3, 77568, Note_on_c, 1, 53, 100
3, 77604, Note_on_c, 1, 52, 100
3, 77616, Note_on_c, 1, 53, 0
3, 77644, Note_on_c, 1, 53, 100
3, 77652, Note_on_c, 1, 52, 0
3, 77760, Note_on_c, 1, 41, 100
3, 77804, Note_on_c, 1, 53, 0
3, 77888, Note_on_c, 1, 41, 0
3, 78336, Note_on_c, 1, 38, 100
3, 78524, Note_on_c, 1, 38, 0
3, 78528, Note_on_c, 1, 50, 100
3, 78676, Note_on_c, 1, 50, 0
3, 78912, Note_on_c, 1, 48, 100
3, 79100, Note_on_c, 1, 48, 0
3, 79104, Note_on_c, 1, 47, 100
3, 79292, Note_on_c, 1, 47, 0
3, 79296, Note_on_c, 1, 50, 100
3, 79444, Note_on_c, 1, 50, 0
3, 79488, Note_on_c, 1, 53, 105
3, 79552, Note_on_c, 1, 43, 100
3, 79556, Note_on_c, 1, 53, 0
3, 79620, Note_on_c, 1, 45, 100
3, 79628, Note_on_c, 1, 43, 0
3, 79680, Note_on_c, 1, 47, 100
3, 79696, Note_on_c, 1, 45, 0
3, 79740, Note_on_c, 1, 48, 100
3, 79756, Note_on_c, 1, 47, 0
3, 79804, Note_on_c, 1, 50, 100
3, 79816, Note_on_c, 1, 48, 0
3, 79872, Note_on_c, 1, 51, 100
3, 79880, Note_on_c, 1, 50, 0
3, 79936, Note_on_c, 1, 48, 100
3, 79948, Note_on_c, 1, 51, 0
3, 80004, Note_on_c, 1, 46, 100
3, 80012, Note_on_c, 1, 48, 0
3, 80064, Note_on_c, 1, 44, 100
3, 80080, Note_on_c, 1, 46, 0
3, 80124, Note_on_c, 1, 43, 100
3, 80140, Note_on_c, 1, 44, 0
3, 80188, Note_on_c, 1, 41, 100
3, 80200, Note_on_c, 1, 43, 0
3, 80256, Note_on_c, 1, 43, 100
3, 80264, Note_on_c, 1, 41, 0
3, 80384, Note_on_c, 1, 43, 0
3, 80448, Note_on_c, 1, 55, 100
3, 80640, Note_on_c, 1, 56, 100
3, 80788, Note_on_c, 1, 55, 0
3, 80800, Note_on_c, 1, 56, 0
3, 80832, Note_on_c, 1, 62, 100
3, 80832, Note_on_c, 1, 53, 100
3, 80992, Note_on_c, 1, 53, 0
3, 80992, Note_on_c, 1, 62, 0
3, 81024, Note_on_c, 1, 58, 100
3, 81024, Note_on_c, 1, 55, 100
3, 81184, Note_on_c, 1, 55, 0
3, 81184, Note_on_c, 1, 58, 0
3, 81216, Note_on_c, 1, 55, 100
3, 81216, Note_on_c, 1, 52, 100
3, 81376, Note_on_c, 1, 52, 0
3, 81376, Note_on_c, 1, 55, 0
3, 81408, Note_on_c, 1, 53, 100
3, 81596, Note_on_c, 1, 53, 0
3, 81600, Note_on_c, 1, 60, 100
3, 81600, Note_on_c, 1, 51, 100
3, 81788, Note_on_c, 1, 51, 0
3, 81788, Note_on_c, 1, 60, 0
3, 81792, Note_on_c, 1, 56, 100
3, 81792, Note_on_c, 1, 53, 100
3, 81980, Note_on_c, 1, 53, 0
3, 81980, Note_on_c, 1, 56, 0
3, 81984, Note_on_c, 1, 53, 100
3, 81984, Note_on_c, 1, 50, 100
3, 82172, Note_on_c, 1, 50, 0
3, 82172, Note_on_c, 1, 53, 0
3, 82176, Note_on_c, 1, 51, 100
3, 82364, Note_on_c, 1, 51, 0
3, 82368, Note_on_c, 1, 49, 100
3, 82368, Note_on_c, 1, 58, 100
3, 82556, Note_on_c, 1, 58, 0
3, 82556, Note_on_c, 1, 49, 0
3, 82560, Note_on_c, 1, 55, 100
3, 82560, Note_on_c, 1, 51, 100
3, 82748, Note_on_c, 1, 51, 0
3, 82748, Note_on_c, 1, 55, 0
3, 82752, Note_on_c, 1, 51, 100
3, 82752, Note_on_c, 1, 48, 100
3, 82940, Note_on_c, 1, 48, 0
3, 82940, Note_on_c, 1, 51, 0
3, 82944, Note_on_c, 1, 48, 100
3, 82944, Note_on_c, 1, 50, 100
3, 83008, Note_on_c, 1, 47, 100
3, 83020, Note_on_c, 1, 48, 0
3, 83076, Note_on_c, 1, 45, 100
3, 83084, Note_on_c, 1, 47, 0
3, 83136, Note_on_c, 1, 47, 100
3, 83152, Note_on_c, 1, 45, 0
3, 83196, Note_on_c, 1, 48, 100
3, 83212, Note_on_c, 1, 47, 0
3, 83260, Note_on_c, 1, 50, 100
3, 83272, Note_on_c, 1, 48, 0
3, 83324, Note_on_c, 1, 50, 0
3, 83328, Note_on_c, 1, 51, 100
3, 83336, Note_on_c, 1, 50, 0
3, 83392, Note_on_c, 1, 48, 100
3, 83404, Note_on_c, 1, 51, 0
3, 83460, Note_on_c, 1, 50, 100
3, 83468, Note_on_c, 1, 48, 0
3, 83520, Note_on_c, 1, 51, 100
3, 83536, Note_on_c, 1, 50, 0
3, 83580, Note_on_c, 1, 53, 100
3, 83596, Note_on_c, 1, 51, 0
3, 83644, Note_on_c, 1, 55, 100
3, 83656, Note_on_c, 1, 53, 0
3, 83712, Note_on_c, 1, 56, 100
3, 83720, Note_on_c, 1, 55, 0
3, 83776, Note_on_c, 1, 60, 100
3, 83788, Note_on_c, 1, 56, 0
3, 83844, Note_on_c, 1, 58, 100
3, 83852, Note_on_c, 1, 60, 0
3, 83904, Note_on_c, 1, 56, 100
3, 83920, Note_on_c, 1, 58, 0
3, 83964, Note_on_c, 1, 55, 100
3, 83980, Note_on_c, 1, 56, 0
3, 84028, Note_on_c, 1, 53, 100
3, 84040, Note_on_c, 1, 55, 0
3, 84096, Note_on_c, 1, 55, 100
3, 84104, Note_on_c, 1, 53, 0
3, 84160, Note_on_c, 1, 53, 100
3, 84172, Note_on_c, 1, 55, 0
3, 84228, Note_on_c, 1, 51, 100
3, 84236, Note_on_c, 1, 53, 0
3, 84288, Note_on_c, 1, 53, 100
3, 84304, Note_on_c, 1, 51, 0
3, 84348, Note_on_c, 1, 51, 100
3, 84364, Note_on_c, 1, 53, 0
3, 84412, Note_on_c, 1, 50, 100
3, 84424, Note_on_c, 1, 51, 0
3, 84480, Note_on_c, 1, 51, 100
3, 84488, Note_on_c, 1, 50, 0
3, 84544, Note_on_c, 1, 50, 100
3, 84556, Note_on_c, 1, 51, 0
3, 84612, Note_on_c, 1, 48, 100
3, 84620, Note_on_c, 1, 50, 0
3, 84672, Note_on_c, 1, 56, 100
3, 84688, Note_on_c, 1, 48, 0
3, 84732, Note_on_c, 1, 55, 100
3, 84748, Note_on_c, 1, 56, 0
3, 84796, Note_on_c, 1, 53, 100
3, 84808, Note_on_c, 1, 55, 0
3, 84864, Note_on_c, 1, 55, 100
3, 84872, Note_on_c, 1, 53, 0
3, 85052, Note_on_c, 1, 55, 0
3, 85056, Note_on_c, 1, 43, 100
3, 85244, Note_on_c, 1, 43, 0
3, 85248, Note_on_c, 1, 36, 100
3, 85500, Note_on_c, 1, 39, 100
3, 85508, Note_on_c, 1, 36, 0
3, 85564, Note_on_c, 1, 43, 100
3, 85592, Note_on_c, 1, 39, 0
3, 85632, Note_on_c, 1, 48, 100
3, 85656, Note_on_c, 1, 43, 0
3, 85820, Note_on_c, 1, 48, 0
3, 86016, Note_on_c, 1, 43, 100
3, 86204, Note_on_c, 1, 43, 0
3, 86208, Note_on_c, 1, 55, 100
3, 86396, Note_on_c, 1, 55, 0
3, 86464, Note_on_c, 1, 50, 100
3, 86528, Note_on_c, 1, 50, 0
3, 86528, Note_on_c, 1, 48, 100
3, 86592, Note_on_c, 1, 48, 0
3, 86592, Note_on_c, 1, 46, 100
3, 86652, Note_on_c, 1, 45, 100
3, 86656, Note_on_c, 1, 46, 0
3, 86716, Note_on_c, 1, 45, 0
3, 86716, Note_on_c, 1, 43, 100
3, 86780, Note_on_c, 1, 43, 0
3, 86784, Note_on_c, 1, 50, 100
3, 86972, Note_on_c, 1, 50, 0
3, 86976, Note_on_c, 1, 38, 100
3, 87104, Note_on_c, 1, 38, 0
3, 87552, Note_on_c, 1, 42, 100
3, 87740, Note_on_c, 1, 42, 0
3, 87744, Note_on_c, 1, 54, 100
3, 87932, Note_on_c, 1, 54, 0
3, 88000, Note_on_c, 1, 57, 100
3, 88064, Note_on_c, 1, 57, 0
3, 88064, Note_on_c, 1, 55, 100
3, 88128, Note_on_c, 1, 55, 0
3, 88128, Note_on_c, 1, 54, 100
3, 88188, Note_on_c, 1, 52, 100
3, 88192, Note_on_c, 1, 54, 0
3, 88252, Note_on_c, 1, 52, 0
3, 88252, Note_on_c, 1, 50, 100
3, 88316, Note_on_c, 1, 50, 0
3, 88320, Note_on_c, 1, 55, 100
3, 88508, Note_on_c, 1, 55, 0
3, 88512, Note_on_c, 1, 43, 100
3, 88640, Note_on_c, 1, 43, 0
3, 89088, Note_on_c, 1, 59, 100
3, 89276, Note_on_c, 1, 59, 0
3, 89472, Note_on_c, 1, 43, 100
3, 89536, Note_on_c, 1, 47, 100
3, 89564, Note_on_c, 1, 43, 0
3, 89600, Note_on_c, 1, 50, 100
3, 89628, Note_on_c, 1, 47, 0
3, 89664, Note_on_c, 1, 55, 100
3, 89692, Note_on_c, 1, 50, 0
3, 89724, Note_on_c, 1, 59, 100
3, 89756, Note_on_c, 1, 55, 0
3, 89788, Note_on_c, 1, 62, 100
3, 89816, Note_on_c, 1, 59, 0
3, 89856, Note_on_c, 1, 60, 100
3, 89880, Note_on_c, 1, 62, 0
3, 89984, Note_on_c, 1, 60, 0
3, 90048, Note_on_c, 1, 48, 100
3, 90288, Note_on_c, 1, 48, 0
3, 90304, Note_on_c, 1, 51, 100
3, 90368, Note_on_c, 1, 55, 100
3, 90396, Note_on_c, 1, 51, 0
3, 90432, Note_on_c, 1, 60, 100
3, 90460, Note_on_c, 1, 55, 0
3, 90492, Note_on_c, 1, 63, 100
3, 90524, Note_on_c, 1, 60, 0
3, 90556, Note_on_c, 1, 67, 100
3, 90584, Note_on_c, 1, 63, 0
3, 90624, Note_on_c, 1, 57, 100
3, 90648, Note_on_c, 1, 67, 0
3, 90812, Note_on_c, 1, 57, 0
3, 91008, Note_on_c, 1, 41, 100
3, 91072, Note_on_c, 1, 45, 100
3, 91100, Note_on_c, 1, 41, 0
3, 91136, Note_on_c, 1, 48, 100
3, 91164, Note_on_c, 1, 45, 0
3, 91200, Note_on_c, 1, 53, 100
3, 91228, Note_on_c, 1, 48, 0
3, 91260, Note_on_c, 1, 57, 100
3, 91292, Note_on_c, 1, 53, 0
3, 91324, Note_on_c, 1, 60, 100
3, 91352, Note_on_c, 1, 57, 0
3, 91392, Note_on_c, 1, 58, 100
3, 91416, Note_on_c, 1, 60, 0
3, 91520, Note_on_c, 1, 58, 0
3, 91584, Note_on_c, 1, 46, 100
3, 91824, Note_on_c, 1, 46, 0
3, 91840, Note_on_c, 1, 50, 100
3, 91904, Note_on_c, 1, 53, 100
3, 91932, Note_on_c, 1, 50, 0
3, 91968, Note_on_c, 1, 58, 100
3, 91996, Note_on_c, 1, 53, 0
3, 92028, Note_on_c, 1, 62, 100
3, 92060, Note_on_c, 1, 58, 0
3, 92092, Note_on_c, 1, 65, 100
3, 92120, Note_on_c, 1, 62, 0
3, 92160, Note_on_c, 1, 63, 100
3, 92184, Note_on_c, 1, 65, 0
3, 92348, Note_on_c, 1, 63, 0
3, 92352, Note_on_c, 1, 51, 100
3, 92540, Note_on_c, 1, 51, 0
3, 92608, Note_on_c, 1, 50, 100
3, 92676, Note_on_c, 1, 51, 100
3, 92680, Note_on_c, 1, 50, 0
3, 92736, Note_on_c, 1, 52, 100
3, 92748, Note_on_c, 1, 51, 0
3, 92796, Note_on_c, 1, 53, 100
3, 92808, Note_on_c, 1, 52, 0
3, 92860, Note_on_c, 1, 54, 100
3, 92868, Note_on_c, 1, 53, 0
3, 92928, Note_on_c, 1, 55, 100
3, 92932, Note_on_c, 1, 54, 0
3, 92956, Note_on_c, 1, 54, 100
3, 92960, Note_on_c, 1, 55, 0
3, 92984, Note_on_c, 1, 55, 100
3, 92988, Note_on_c, 1, 54, 0
3, 93224, Note_on_c, 1, 55, 0
3, 93376, Note_on_c, 1, 56, 100
3, 93444, Note_on_c, 1, 55, 100
3, 93448, Note_on_c, 1, 56, 0
3, 93504, Note_on_c, 1, 54, 100
3, 93516, Note_on_c, 1, 55, 0
3, 93564, Note_on_c, 1, 53, 100
3, 93576, Note_on_c, 1, 54, 0
3, 93628, Note_on_c, 1, 52, 100
3, 93636, Note_on_c, 1, 53, 0
3, 93696, Note_on_c, 1, 56, 100
3, 93700, Note_on_c, 1, 52, 0
3, 93884, Note_on_c, 1, 56, 0
3, 93888, Note_on_c, 1, 44, 100
3, 94144, Note_on_c, 1, 43, 100
3, 94184, Note_on_c, 1, 44, 0
3, 94212, Note_on_c, 1, 44, 100
3, 94216, Note_on_c, 1, 43, 0
3, 94272, Note_on_c, 1, 45, 100
3, 94284, Note_on_c, 1, 44, 0
3, 94332, Note_on_c, 1, 46, 100
3, 94344, Note_on_c, 1, 45, 0
3, 94396, Note_on_c, 1, 47, 100
3, 94404, Note_on_c, 1, 46, 0
3, 94464, Note_on_c, 1, 48, 100
3, 94468, Note_on_c, 1, 47, 0
3, 94496, Note_on_c, 1, 47, 100
3, 94500, Note_on_c, 1, 48, 0
3, 94532, Note_on_c, 1, 47, 0
3, 94532, Note_on_c, 1, 48, 100
3, 94772, Note_on_c, 1, 48, 0
3, 94912, Note_on_c, 1, 49, 100
3, 94980, Note_on_c, 1, 48, 100
3, 94984, Note_on_c, 1, 49, 0
3, 95040, Note_on_c, 1, 47, 100
3, 95052, Note_on_c, 1, 48, 0
3, 95100, Note_on_c, 1, 46, 100
3, 95112, Note_on_c, 1, 47, 0
3, 95164, Note_on_c, 1, 45, 100
3, 95172, Note_on_c, 1, 46, 0
3, 95232, Note_on_c, 1, 49, 100
3, 95236, Note_on_c, 1, 45, 0
3, 95420, Note_on_c, 1, 49, 0
3, 95424, Note_on_c, 1, 61, 100
3, 95680, Note_on_c, 1, 60, 100
3, 95720, Note_on_c, 1, 61, 0
3, 95748, Note_on_c, 1, 61, 100
3, 95752, Note_on_c, 1, 60, 0
3, 95808, Note_on_c, 1, 62, 100
3, 95820, Note_on_c, 1, 61, 0
3, 95868, Note_on_c, 1, 63, 100
3, 95880, Note_on_c, 1, 62, 0
3, 95932, Note_on_c, 1, 64, 100
3, 95940, Note_on_c, 1, 63, 0
3, 96000, Note_on_c, 1, 65, 100
3, 96004, Note_on_c, 1, 64, 0
3, 96032, Note_on_c, 1, 64, 100
3, 96036, Note_on_c, 1, 65, 0
3, 96068, Note_on_c, 1, 64, 0
3, 96068, Note_on_c, 1, 65, 100
3, 96308, Note_on_c, 1, 65, 0
3, 96448, Note_on_c, 1, 53, 100
3, 96516, Note_on_c, 1, 52, 100
3, 96520, Note_on_c, 1, 53, 0
3, 96576, Note_on_c, 1, 53, 100
3, 96588, Note_on_c, 1, 52, 0
3, 96636, Note_on_c, 1, 55, 100
3, 96648, Note_on_c, 1, 53, 0
3, 96700, Note_on_c, 1, 56, 100
3, 96708, Note_on_c, 1, 55, 0
3, 96768, Note_on_c, 1, 58, 100
3, 96772, Note_on_c, 1, 56, 0
3, 96832, Note_on_c, 1, 56, 100
3, 96848, Note_on_c, 1, 58, 0
3, 96900, Note_on_c, 1, 55, 100
3, 96912, Note_on_c, 1, 56, 0
3, 96960, Note_on_c, 1, 56, 100
3, 96980, Note_on_c, 1, 55, 0
3, 97020, Note_on_c, 1, 58, 100
3, 97040, Note_on_c, 1, 56, 0
3, 97084, Note_on_c, 1, 60, 100
3, 97100, Note_on_c, 1, 58, 0
3, 97152, Note_on_c, 1, 61, 100
3, 97164, Note_on_c, 1, 60, 0
3, 97280, Note_on_c, 1, 61, 0
3, 97344, Note_on_c, 1, 58, 100
3, 97472, Note_on_c, 1, 58, 0
3, 97536, Note_on_c, 1, 60, 100
3, 97664, Note_on_c, 1, 60, 0
3, 97728, Note_on_c, 1, 48, 100
3, 97984, Note_on_c, 1, 52, 100
3, 97992, Note_on_c, 1, 48, 0
3, 98052, Note_on_c, 1, 55, 100
3, 98064, Note_on_c, 1, 52, 0
3, 98112, Note_on_c, 1, 58, 100
3, 98132, Note_on_c, 1, 55, 0
3, 98172, Note_on_c, 1, 57, 100
3, 98192, Note_on_c, 1, 58, 0
3, 98236, Note_on_c, 1, 55, 100
3, 98252, Note_on_c, 1, 57, 0
3, 98304, Note_on_c, 1, 54, 100
3, 98316, Note_on_c, 1, 55, 0
3, 98368, Note_on_c, 1, 63, 100
3, 98392, Note_on_c, 1, 54, 0
3, 98436, Note_on_c, 1, 60, 100
3, 98456, Note_on_c, 1, 63, 0
3, 98496, Note_on_c, 1, 54, 100
3, 98496, Note_on_c, 1, 45, 100
3, 98524, Note_on_c, 1, 60, 0
3, 98556, Note_on_c, 1, 63, 100
3, 98584, Note_on_c, 1, 54, 0
3, 98620, Note_on_c, 1, 60, 100
3, 98644, Note_on_c, 1, 63, 0
3, 98684, Note_on_c, 1, 45, 0
3, 98688, Note_on_c, 1, 54, 100
3, 98688, Note_on_c, 1, 45, 100
3, 98708, Note_on_c, 1, 60, 0
3, 98752, Note_on_c, 1, 63, 100
3, 98776, Note_on_c, 1, 54, 0
3, 98820, Note_on_c, 1, 60, 100
3, 98840, Note_on_c, 1, 63, 0
3, 98876, Note_on_c, 1, 45, 0
3, 98880, Note_on_c, 1, 54, 100
3, 98908, Note_on_c, 1, 60, 0
3, 98940, Note_on_c, 1, 63, 100
3, 98968, Note_on_c, 1, 54, 0
3, 99004, Note_on_c, 1, 60, 100
3, 99028, Note_on_c, 1, 63, 0
3, 99072, Note_on_c, 1, 53, 100
3, 99092, Note_on_c, 1, 60, 0
3, 99136, Note_on_c, 1, 61, 100
3, 99160, Note_on_c, 1, 53, 0
3, 99204, Note_on_c, 1, 58, 100
3, 99224, Note_on_c, 1, 61, 0
3, 99264, Note_on_c, 1, 53, 100
3, 99264, Note_on_c, 1, 46, 100
3, 99292, Note_on_c, 1, 58, 0
3, 99324, Note_on_c, 1, 61, 100
3, 99352, Note_on_c, 1, 53, 0
3, 99388, Note_on_c, 1, 58, 100
3, 99412, Note_on_c, 1, 61, 0
3, 99452, Note_on_c, 1, 46, 0
3, 99456, Note_on_c, 1, 53, 100
3, 99456, Note_on_c, 1, 46, 100
3, 99476, Note_on_c, 1, 58, 0
3, 99520, Note_on_c, 1, 61, 100
3, 99544, Note_on_c, 1, 53, 0
3, 99588, Note_on_c, 1, 58, 100
3, 99608, Note_on_c, 1, 61, 0
3, 99644, Note_on_c, 1, 46, 0
3, 99648, Note_on_c, 1, 53, 100
3, 99676, Note_on_c, 1, 58, 0
3, 99708, Note_on_c, 1, 61, 100
3, 99736, Note_on_c, 1, 53, 0
3, 99772, Note_on_c, 1, 58, 100
3, 99796, Note_on_c, 1, 61, 0
3, 99840, Note_on_c, 1, 52, 100
3, 99860, Note_on_c, 1, 58, 0
3, 99904, Note_on_c, 1, 61, 100
3, 99928, Note_on_c, 1, 52, 0
3, 99972, Note_on_c, 1, 58, 100
3, 99992, Note_on_c, 1, 61, 0
3, 100032, Note_on_c, 1, 52, 100
3, 100032, Note_on_c, 1, 43, 100
3, 100060, Note_on_c, 1, 58, 0
3, 100092, Note_on_c, 1, 61, 100
3, 100120, Note_on_c, 1, 52, 0
3, 100156, Note_on_c, 1, 58, 100
3, 100180, Note_on_c, 1, 61, 0
3, 100220, Note_on_c, 1, 43, 0
3, 100224, Note_on_c, 1, 52, 100
3, 100224, Note_on_c, 1, 43, 100
3, 100244, Note_on_c, 1, 58, 0
3, 100288, Note_on_c, 1, 61, 100
3, 100312, Note_on_c, 1, 52, 0
3, 100356, Note_on_c, 1, 58, 100
3, 100376, Note_on_c, 1, 61, 0
3, 100412, Note_on_c, 1, 43, 0
3, 100416, Note_on_c, 1, 52, 100
3, 100444, Note_on_c, 1, 58, 0
3, 100476, Note_on_c, 1, 61, 100
3, 100504, Note_on_c, 1, 52, 0
3, 100540, Note_on_c, 1, 58, 100
3, 100564, Note_on_c, 1, 61, 0
3, 100608, Note_on_c, 1, 51, 100
3, 100628, Note_on_c, 1, 58, 0
3, 100672, Note_on_c, 1, 60, 100
3, 100696, Note_on_c, 1, 51, 0
3, 100740, Note_on_c, 1, 56, 100
3, 100760, Note_on_c, 1, 60, 0
3, 100800, Note_on_c, 1, 51, 100
3, 100800, Note_on_c, 1, 44, 100
3, 100828, Note_on_c, 1, 56, 0
3, 100860, Note_on_c, 1, 60, 100
3, 100888, Note_on_c, 1, 51, 0
3, 100924, Note_on_c, 1, 56, 100
3, 100948, Note_on_c, 1, 60, 0
3, 100988, Note_on_c, 1, 44, 0
3, 100992, Note_on_c, 1, 51, 100
3, 100992, Note_on_c, 1, 44, 100
3, 101012, Note_on_c, 1, 56, 0
3, 101056, Note_on_c, 1, 60, 100
3, 101080, Note_on_c, 1, 51, 0
3, 101124, Note_on_c, 1, 56, 100
3, 101144, Note_on_c, 1, 60, 0
3, 101180, Note_on_c, 1, 44, 0
3, 101184, Note_on_c, 1, 51, 100
3, 101184, Note_on_c, 1, 48, 100
3, 101212, Note_on_c, 1, 56, 0
3, 101244, Note_on_c, 1, 60, 100
3, 101272, Note_on_c, 1, 51, 0
3, 101308, Note_on_c, 1, 56, 100
3, 101312, Note_on_c, 1, 48, 0
3, 101332, Note_on_c, 1, 60, 0
3, 101376, Note_on_c, 1, 53, 100
3, 101376, Note_on_c, 1, 49, 100
3, 101396, Note_on_c, 1, 56, 0
3, 101440, Note_on_c, 1, 55, 100
3, 101452, Note_on_c, 1, 53, 0
3, 101508, Note_on_c, 1, 56, 100
3, 101516, Note_on_c, 1, 55, 0
3, 101564, Note_on_c, 1, 49, 0
3, 101568, Note_on_c, 1, 58, 100
3, 101584, Note_on_c, 1, 56, 0
3, 101628, Note_on_c, 1, 60, 100
3, 101644, Note_on_c, 1, 58, 0
3, 101692, Note_on_c, 1, 61, 100
3, 101704, Note_on_c, 1, 60, 0
3, 101760, Note_on_c, 1, 51, 100
3, 101768, Note_on_c, 1, 61, 0
3, 101824, Note_on_c, 1, 61, 100
3, 101836, Note_on_c, 1, 51, 0
3, 101892, Note_on_c, 1, 60, 100
3, 101900, Note_on_c, 1, 61, 0
3, 101952, Note_on_c, 1, 58, 100
3, 101952, Note_on_c, 1, 51, 100
3, 101968, Note_on_c, 1, 60, 0
3, 102012, Note_on_c, 1, 56, 100
3, 102028, Note_on_c, 1, 58, 0
3, 102076, Note_on_c, 1, 55, 100
3, 102088, Note_on_c, 1, 56, 0
3, 102140, Note_on_c, 1, 51, 0
3, 102144, Note_on_c, 1, 56, 100
3, 102144, Note_on_c, 1, 53, 100
3, 102152, Note_on_c, 1, 55, 0
3, 102208, Note_on_c, 1, 58, 100
3, 102220, Note_on_c, 1, 56, 0
3, 102276, Note_on_c, 1, 60, 100
3, 102284, Note_on_c, 1, 58, 0
3, 102332, Note_on_c, 1, 53, 0
3, 102336, Note_on_c, 1, 61, 100
3, 102352, Note_on_c, 1, 60, 0
3, 102396, Note_on_c, 1, 63, 100
3, 102412, Note_on_c, 1, 61, 0
3, 102460, Note_on_c, 1, 65, 100
3, 102472, Note_on_c, 1, 63, 0
3, 102528, Note_on_c, 1, 55, 100
3, 102536, Note_on_c, 1, 65, 0
3, 102592, Note_on_c, 1, 65, 100
3, 102604, Note_on_c, 1, 55, 0
3, 102660, Note_on_c, 1, 63, 100
3, 102668, Note_on_c, 1, 65, 0
3, 102720, Note_on_c, 1, 61, 100
3, 102720, Note_on_c, 1, 55, 100
3, 102736, Note_on_c, 1, 63, 0
3, 102780, Note_on_c, 1, 60, 100
3, 102796, Note_on_c, 1, 61, 0
3, 102844, Note_on_c, 1, 58, 100
3, 102856, Note_on_c, 1, 60, 0
3, 102908, Note_on_c, 1, 55, 0
3, 102912, Note_on_c, 1, 56, 100
3, 102920, Note_on_c, 1, 58, 0
3, 103100, Note_on_c, 1, 56, 0
3, 103488, Note_on_c, 1, 51, 100
3, 103676, Note_on_c, 1, 51, 0
3, 103680, Note_on_c, 1, 44, 100
3, 103868, Note_on_c, 1, 44, 0
3, 104064, Note_on_c, 1, 60, 100
3, 104252, Note_on_c, 1, 60, 0
3, 104448, Note_on_c, 1, 61, 100
3, 104512, Note_on_c, 1, 65, 100
3, 104524, Note_on_c, 1, 61, 0
3, 104580, Note_on_c, 1, 68, 100
3, 104588, Note_on_c, 1, 65, 0
3, 104640, Note_on_c, 1, 72, 100
3, 104656, Note_on_c, 1, 68, 0
3, 104768, Note_on_c, 1, 72, 0
3, 104832, Note_on_c, 1, 61, 100
3, 104960, Note_on_c, 1, 61, 0
3, 105024, Note_on_c, 1, 72, 100
3, 105152, Note_on_c, 1, 72, 0
3, 105216, Note_on_c, 1, 62, 100
3, 105280, Note_on_c, 1, 65, 100
3, 105292, Note_on_c, 1, 62, 0
3, 105348, Note_on_c, 1, 68, 100
3, 105356, Note_on_c, 1, 65, 0
3, 105408, Note_on_c, 1, 71, 100
3, 105424, Note_on_c, 1, 68, 0
3, 105536, Note_on_c, 1, 71, 0
3, 105600, Note_on_c, 1, 62, 100
3, 105728, Note_on_c, 1, 62, 0
3, 105792, Note_on_c, 1, 71, 100
3, 105920, Note_on_c, 1, 71, 0
3, 105984, Note_on_c, 1, 60, 100
3, 106048, Note_on_c, 1, 65, 100
3, 106060, Note_on_c, 1, 60, 0
3, 106116, Note_on_c, 1, 68, 100
3, 106124, Note_on_c, 1, 65, 0
3, 106176, Note_on_c, 1, 72, 100
3, 106192, Note_on_c, 1, 68, 0
3, 106304, Note_on_c, 1, 72, 0
3, 106368, Note_on_c, 1, 60, 100
3, 106496, Note_on_c, 1, 60, 0
3, 106560, Note_on_c, 1, 72, 100
3, 106688, Note_on_c, 1, 72, 0
3, 106752, Note_on_c, 1, 59, 100
3, 106816, Note_on_c, 1, 65, 100
3, 106828, Note_on_c, 1, 59, 0
3, 106884, Note_on_c, 1, 68, 100
3, 106892, Note_on_c, 1, 65, 0
3, 106944, Note_on_c, 1, 74, 100
3, 106960, Note_on_c, 1, 68, 0
3, 107072, Note_on_c, 1, 74, 0
3, 107136, Note_on_c, 1, 59, 100
3, 107264, Note_on_c, 1, 59, 0
3, 107328, Note_on_c, 1, 74, 100
3, 107456, Note_on_c, 1, 74, 0
3, 107520, Note_on_c, 1, 60, 100
3, 107584, Note_on_c, 1, 63, 100
3, 107596, Note_on_c, 1, 60, 0
3, 107652, Note_on_c, 1, 67, 100
3, 107660, Note_on_c, 1, 63, 0
3, 107728, Note_on_c, 1, 67, 0
3, 108096, Note_on_c, 1, 63, 100
3, 108156, Note_on_c, 1, 62, 100
3, 108172, Note_on_c, 1, 63, 0
3, 108220, Note_on_c, 1, 60, 100
3, 108232, Note_on_c, 1, 62, 0
3, 108288, Note_on_c, 1, 58, 100
3, 108296, Note_on_c, 1, 60, 0
3, 108352, Note_on_c, 1, 62, 100
3, 108364, Note_on_c, 1, 58, 0
3, 108420, Note_on_c, 1, 65, 100
3, 108428, Note_on_c, 1, 62, 0
3, 108496, Note_on_c, 1, 65, 0
3, 108864, Note_on_c, 1, 61, 100
3, 108924, Note_on_c, 1, 60, 100
3, 108940, Note_on_c, 1, 61, 0
3, 108988, Note_on_c, 1, 58, 100
3, 109000, Note_on_c, 1, 60, 0
3, 109056, Note_on_c, 1, 56, 100
3, 109064, Note_on_c, 1, 58, 0
3, 109120, Note_on_c, 1, 68, 100
3, 109144, Note_on_c, 1, 56, 0
3, 109208, Note_on_c, 1, 68, 0
3, 109248, Note_on_c, 1, 56, 100
3, 109308, Note_on_c, 1, 67, 100
3, 109336, Note_on_c, 1, 56, 0
3, 109396, Note_on_c, 1, 67, 0
3, 109440, Note_on_c, 1, 56, 100
3, 109504, Note_on_c, 1, 65, 100
3, 109528, Note_on_c, 1, 56, 0
3, 109592, Note_on_c, 1, 65, 0
3, 109632, Note_on_c, 1, 56, 100
3, 109692, Note_on_c, 1, 63, 100
3, 109720, Note_on_c, 1, 56, 0
3, 109780, Note_on_c, 1, 63, 0
3, 109824, Note_on_c, 1, 57, 100
3, 109888, Note_on_c, 1, 63, 100
3, 109912, Note_on_c, 1, 57, 0
3, 109976, Note_on_c, 1, 63, 0
3, 110016, Note_on_c, 1, 57, 100
3, 110076, Note_on_c, 1, 63, 100
3, 110104, Note_on_c, 1, 57, 0
3, 110164, Note_on_c, 1, 63, 0
3, 110208, Note_on_c, 1, 57, 100
3, 110272, Note_on_c, 1, 62, 100
3, 110296, Note_on_c, 1, 57, 0
3, 110360, Note_on_c, 1, 62, 0
3, 110400, Note_on_c, 1, 57, 100
3, 110460, Note_on_c, 1, 60, 100
3, 110488, Note_on_c, 1, 57, 0
3, 110548, Note_on_c, 1, 60, 0
3, 110592, Note_on_c, 1, 55, 100
3, 110656, Note_on_c, 1, 60, 100
3, 110668, Note_on_c, 1, 55, 0
3, 110724, Note_on_c, 1, 59, 100
3, 110732, Note_on_c, 1, 60, 0
3, 110784, Note_on_c, 1, 60, 100
3, 110800, Note_on_c, 1, 59, 0
3, 110844, Note_on_c, 1, 61, 100
3, 110860, Note_on_c, 1, 60, 0
3, 110908, Note_on_c, 1, 62, 100
3, 110920, Note_on_c, 1, 61, 0
3, 110976, Note_on_c, 1, 63, 100
3, 110984, Note_on_c, 1, 62, 0
3, 111040, Note_on_c, 1, 60, 100
3, 111052, Note_on_c, 1, 63, 0
3, 111108, Note_on_c, 1, 59, 100
3, 111116, Note_on_c, 1, 60, 0
3, 111168, Note_on_c, 1, 58, 100
3, 111184, Note_on_c, 1, 59, 0
3, 111228, Note_on_c, 1, 57, 100
3, 111244, Note_on_c, 1, 58, 0
3, 111292, Note_on_c, 1, 56, 100
3, 111304, Note_on_c, 1, 57, 0
3, 111360, Note_on_c, 1, 55, 100
3, 111368, Note_on_c, 1, 56, 0
3, 111548, Note_on_c, 1, 55, 0
3, 111808, Note_on_c, 1, 44, 100
3, 111876, Note_on_c, 1, 43, 100
3, 111884, Note_on_c, 1, 44, 0
3, 111936, Note_on_c, 1, 41, 100
3, 111952, Note_on_c, 1, 43, 0
3, 111996, Note_on_c, 1, 39, 100
3, 112012, Note_on_c, 1, 41, 0
3, 112060, Note_on_c, 1, 38, 100
3, 112072, Note_on_c, 1, 39, 0
3, 112128, Note_on_c, 1, 36, 100
3, 112136, Note_on_c, 1, 38, 0
3, 112316, Note_on_c, 1, 36, 0
3, 112320, Note_on_c, 1, 48, 100
3, 112508, Note_on_c, 1, 48, 0
3, 112576, Note_on_c, 1, 55, 100
3, 112640, Note_on_c, 1, 55, 0
3, 112640, Note_on_c, 1, 53, 100
3, 112704, Note_on_c, 1, 53, 0
3, 112704, Note_on_c, 1, 51, 100
3, 112764, Note_on_c, 1, 50, 100
3, 112768, Note_on_c, 1, 51, 0
3, 112828, Note_on_c, 1, 50, 0
3, 112828, Note_on_c, 1, 48, 100
3, 112892, Note_on_c, 1, 48, 0
3, 112896, Note_on_c, 1, 55, 100
3, 112932, Note_on_c, 1, 54, 100
3, 112944, Note_on_c, 1, 55, 0
3, 112972, Note_on_c, 1, 55, 100
3, 112980, Note_on_c, 1, 54, 0
3, 113088, Note_on_c, 1, 43, 100
3, 113132, Note_on_c, 1, 55, 0
3, 113216, Note_on_c, 1, 43, 0
3, 113664, Note_on_c, 1, 40, 100
3, 113852, Note_on_c, 1, 40, 0
3, 113856, Note_on_c, 1, 52, 100
3, 114044, Note_on_c, 1, 52, 0
3, 114112, Note_on_c, 1, 55, 100
3, 114176, Note_on_c, 1, 55, 0
3, 114176, Note_on_c, 1, 53, 100
3, 114240, Note_on_c, 1, 53, 0
3, 114240, Note_on_c, 1, 52, 100
3, 114300, Note_on_c, 1, 50, 100
3, 114304, Note_on_c, 1, 52, 0
3, 114364, Note_on_c, 1, 50, 0
3, 114364, Note_on_c, 1, 48, 100
3, 114428, Note_on_c, 1, 48, 0
3, 114432, Note_on_c, 1, 53, 100
3, 114468, Note_on_c, 1, 52, 100
3, 114480, Note_on_c, 1, 53, 0
3, 114508, Note_on_c, 1, 53, 100
3, 114516, Note_on_c, 1, 52, 0
3, 114624, Note_on_c, 1, 41, 100
3, 114668, Note_on_c, 1, 53, 0
3, 114752, Note_on_c, 1, 41, 0
3, 115200, Note_on_c, 1, 38, 100
3, 115388, Note_on_c, 1, 38, 0
3, 115392, Note_on_c, 1, 50, 100
3, 115540, Note_on_c, 1, 50, 0
3, 115776, Note_on_c, 1, 48, 100
3, 115964, Note_on_c, 1, 48, 0
3, 115968, Note_on_c, 1, 47, 100
3, 116156, Note_on_c, 1, 47, 0
3, 116160, Note_on_c, 1, 50, 100
3, 116308, Note_on_c, 1, 50, 0
3, 116352, Note_on_c, 1, 53, 105
3, 116416, Note_on_c, 1, 43, 100
3, 116420, Note_on_c, 1, 53, 0
3, 116484, Note_on_c, 1, 45, 100
3, 116492, Note_on_c, 1, 43, 0
3, 116544, Note_on_c, 1, 47, 100
3, 116560, Note_on_c, 1, 45, 0
3, 116604, Note_on_c, 1, 48, 100
3, 116620, Note_on_c, 1, 47, 0
3, 116668, Note_on_c, 1, 50, 100
3, 116680, Note_on_c, 1, 48, 0
3, 116736, Note_on_c, 1, 51, 100
3, 116744, Note_on_c, 1, 50, 0
3, 116800, Note_on_c, 1, 48, 100
3, 116812, Note_on_c, 1, 51, 0
3, 116868, Note_on_c, 1, 46, 100
3, 116876, Note_on_c, 1, 48, 0
3, 116928, Note_on_c, 1, 44, 100
3, 116944, Note_on_c, 1, 46, 0
3, 116988, Note_on_c, 1, 43, 100
3, 117004, Note_on_c, 1, 44, 0
3, 117052, Note_on_c, 1, 41, 100
3, 117064, Note_on_c, 1, 43, 0
3, 117120, Note_on_c, 1, 43, 100
3, 117128, Note_on_c, 1, 41, 0
3, 117248, Note_on_c, 1, 43, 0
3, 117312, Note_on_c, 1, 55, 100
3, 117504, Note_on_c, 1, 56, 100
3, 117652, Note_on_c, 1, 55, 0
3, 117664, Note_on_c, 1, 56, 0
3, 117696, Note_on_c, 1, 62, 100
3, 117696, Note_on_c, 1, 53, 100
3, 117856, Note_on_c, 1, 53, 0
3, 117856, Note_on_c, 1, 62, 0
3, 117888, Note_on_c, 1, 58, 100
3, 117888, Note_on_c, 1, 55, 100
3, 118048, Note_on_c, 1, 55, 0
3, 118048, Note_on_c, 1, 58, 0
3, 118080, Note_on_c, 1, 55, 100
3, 118080, Note_on_c, 1, 52, 100
3, 118240, Note_on_c, 1, 52, 0
3, 118240, Note_on_c, 1, 55, 0
3, 118272, Note_on_c, 1, 53, 100
3, 118460, Note_on_c, 1, 53, 0
3, 118464, Note_on_c, 1, 60, 100
3, 118464, Note_on_c, 1, 51, 100
3, 118652, Note_on_c, 1, 51, 0
3, 118652, Note_on_c, 1, 60, 0
3, 118656, Note_on_c, 1, 56, 100
3, 118656, Note_on_c, 1, 53, 100
3, 118844, Note_on_c, 1, 53, 0
3, 118844, Note_on_c, 1, 56, 0
3, 118848, Note_on_c, 1, 53, 100
3, 118848, Note_on_c, 1, 50, 100
3, 119036, Note_on_c, 1, 50, 0
3, 119036, Note_on_c, 1, 53, 0
3, 119040, Note_on_c, 1, 51, 100
3, 119228, Note_on_c, 1, 51, 0
3, 119232, Note_on_c, 1, 49, 100
3, 119232, Note_on_c, 1, 58, 100
3, 119420, Note_on_c, 1, 58, 0
3, 119420, Note_on_c, 1, 49, 0
3, 119424, Note_on_c, 1, 55, 100
3, 119424, Note_on_c, 1, 51, 100
3, 119612, Note_on_c, 1, 51, 0
3, 119612, Note_on_c, 1, 55, 0
3, 119616, Note_on_c, 1, 51, 100
3, 119616, Note_on_c, 1, 48, 100
3, 119804, Note_on_c, 1, 48, 0
3, 119804, Note_on_c, 1, 51, 0
3, 119808, Note_on_c, 1, 48, 100
3, 119808, Note_on_c, 1, 50, 100
3, 119872, Note_on_c, 1, 47, 100
3, 119884, Note_on_c, 1, 48, 0
3, 119940, Note_on_c, 1, 45, 100
3, 119948, Note_on_c, 1, 47, 0
3, 120000, Note_on_c, 1, 47, 100
3, 120016, Note_on_c, 1, 45, 0
3, 120060, Note_on_c, 1, 48, 100
3, 120076, Note_on_c, 1, 47, 0
3, 120124, Note_on_c, 1, 50, 100
3, 120136, Note_on_c, 1, 48, 0
3, 120188, Note_on_c, 1, 50, 0
3, 120192, Note_on_c, 1, 51, 100
3, 120200, Note_on_c, 1, 50, 0
3, 120256, Note_on_c, 1, 48, 100
3, 120268, Note_on_c, 1, 51, 0
3, 120324, Note_on_c, 1, 50, 100
3, 120332, Note_on_c, 1, 48, 0
3, 120384, Note_on_c, 1, 51, 100
3, 120400, Note_on_c, 1, 50, 0
3, 120444, Note_on_c, 1, 53, 100
3, 120460, Note_on_c, 1, 51, 0
3, 120508, Note_on_c, 1, 55, 100
3, 120520, Note_on_c, 1, 53, 0
3, 120576, Note_on_c, 1, 56, 100
3, 120584, Note_on_c, 1, 55, 0
3, 120640, Note_on_c, 1, 60, 100
3, 120652, Note_on_c, 1, 56, 0
3, 120708, Note_on_c, 1, 58, 100
3, 120716, Note_on_c, 1, 60, 0
3, 120768, Note_on_c, 1, 56, 100
3, 120784, Note_on_c, 1, 58, 0
3, 120828, Note_on_c, 1, 55, 100
3, 120844, Note_on_c, 1, 56, 0
3, 120892, Note_on_c, 1, 53, 100
3, 120904, Note_on_c, 1, 55, 0
3, 120960, Note_on_c, 1, 55, 100
3, 120968, Note_on_c, 1, 53, 0
3, 121024, Note_on_c, 1, 53, 100
3, 121036, Note_on_c, 1, 55, 0
3, 121092, Note_on_c, 1, 51, 100
3, 121100, Note_on_c, 1, 53, 0
3, 121152, Note_on_c, 1, 53, 100
3, 121168, Note_on_c, 1, 51, 0
3, 121212, Note_on_c, 1, 51, 100
3, 121228, Note_on_c, 1, 53, 0
3, 121276, Note_on_c, 1, 50, 100
3, 121288, Note_on_c, 1, 51, 0
3, 121344, Note_on_c, 1, 51, 100
3, 121352, Note_on_c, 1, 50, 0
3, 121408, Note_on_c, 1, 50, 100
3, 121420, Note_on_c, 1, 51, 0
3, 121476, Note_on_c, 1, 48, 100
3, 121484, Note_on_c, 1, 50, 0
3, 121536, Note_on_c, 1, 56, 100
3, 121552, Note_on_c, 1, 48, 0
3, 121596, Note_on_c, 1, 55, 100
3, 121612, Note_on_c, 1, 56, 0
3, 121660, Note_on_c, 1, 53, 100
3, 121672, Note_on_c, 1, 55, 0
3, 121728, Note_on_c, 1, 55, 100
3, 121736, Note_on_c, 1, 53, 0
3, 121916, Note_on_c, 1, 55, 0
3, 121920, Note_on_c, 1, 43, 100
3, 122108, Note_on_c, 1, 43, 0
3, 122112, Note_on_c, 1, 36, 100
3, 122364, Note_on_c, 1, 39, 100
3, 122428, Note_on_c, 1, 43, 100
3, 122496, Note_on_c, 1, 48, 100
3, 123260, Note_on_c, 1, 48, 0
3, 123260, Note_on_c, 1, 36, 0
3, 123260, Note_on_c, 1, 39, 0
3, 123260, Note_on_c, 1, 43, 0
3, 123260, End_track
4, 0, Start_track
4, 0, MIDI_port, 0
4, 0, Title_t, "(c) 1996 by T.L. Hubeart Jr."
4, 0, Control_c, 1, 7, 100
4, 0, End_track
5, 0, Start_track
5, 0, MIDI_port, 0
5, 0, Title_t, "Web site: http://members.aol.com/basfawlty"
5, 0, Control_c, 1, 7, 100
5, 0, End_track
0, 0, End_of_file
