0, 0, Header, 0, 1, 384
1, 0, Start_track
1, 0, Copyright_t, "(C) John Sankey 1998"
1, 0, Program_c, 0, 6
1, 0, Pitch_bend_c, 0, 8192
1, 0, Program_c, 1, 6
1, 0, Pitch_bend_c, 1, 7792
1, 0, Program_c, 2, 6
1, 0, Pitch_bend_c, 2, 7876
1, 0, Program_c, 3, 6
1, 0, Pitch_bend_c, 3, 7952
1, 0, Program_c, 4, 6
1, 0, Pitch_bend_c, 4, 7792
1, 0, Program_c, 5, 6
1, 0, Pitch_bend_c, 5, 8112
1, 0, Program_c, 6, 6
1, 0, Pitch_bend_c, 6, 7712
1, 0, Program_c, 7, 6
1, 0, Pitch_bend_c, 7, 8037
1, 0, Program_c, 8, 6
1, 0, Pitch_bend_c, 8, 7872
1, 0, Program_c, 10, 6
1, 0, Pitch_bend_c, 10, 7712
1, 0, Program_c, 11, 6
1, 0, Pitch_bend_c, 11, 8032
1, 0, Program_c, 12, 6
1, 0, Pitch_bend_c, 12, 7872
1, 0, Tempo, 500000
1, 48, Note_on_c, 12, 47, 127
1, 48, Note_on_c, 2, 50, 127
1, 48, Note_on_c, 6, 54, 127
1, 48, Note_on_c, 12, 59, 127
1, 48, Note_on_c, 2, 62, 127
1, 48, Note_on_c, 6, 66, 127
1, 48, Note_on_c, 12, 71, 127
1, 131, Note_off_c, 12, 71, 127
1, 131, Note_off_c, 6, 66, 127
1, 131, Note_off_c, 2, 62, 127
1, 131, Note_off_c, 12, 59, 127
1, 131, Note_off_c, 6, 54, 127
1, 131, Note_off_c, 2, 50, 127
1, 131, Note_off_c, 12, 47, 127
1, 148, Note_on_c, 12, 47, 127
1, 148, Note_on_c, 2, 50, 127
1, 148, Note_on_c, 6, 54, 127
1, 148, Note_on_c, 12, 59, 127
1, 148, Note_on_c, 2, 62, 127
1, 148, Note_on_c, 6, 66, 127
1, 148, Note_on_c, 12, 71, 127
1, 1249, Note_off_c, 12, 71, 127
1, 1249, Note_off_c, 6, 66, 127
1, 1249, Note_off_c, 2, 62, 127
1, 1249, Note_off_c, 12, 59, 127
1, 1249, Note_off_c, 6, 54, 127
1, 1249, Note_off_c, 2, 50, 127
1, 1249, Note_off_c, 12, 47, 127
1, 1298, Note_on_c, 2, 74, 127
1, 1298, Note_on_c, 12, 71, 127
1, 1298, Note_on_c, 6, 66, 127
1, 1298, Note_on_c, 12, 59, 127
1, 1298, Note_on_c, 6, 54, 127
1, 1298, Note_on_c, 2, 50, 127
1, 1298, Note_on_c, 12, 47, 127
1, 1397, Note_off_c, 12, 47, 127
1, 1397, Note_off_c, 2, 50, 127
1, 1397, Note_off_c, 6, 54, 127
1, 1397, Note_off_c, 12, 59, 127
1, 1397, Note_off_c, 6, 66, 127
1, 1397, Note_off_c, 12, 71, 127
1, 1397, Note_off_c, 2, 74, 127
1, 1398, Note_on_c, 2, 74, 127
1, 1398, Note_on_c, 12, 71, 127
1, 1398, Note_on_c, 6, 66, 127
1, 1398, Note_on_c, 12, 59, 127
1, 1398, Note_on_c, 6, 54, 127
1, 1398, Note_on_c, 2, 50, 127
1, 1398, Note_on_c, 12, 47, 127
1, 2499, Note_off_c, 12, 47, 127
1, 2499, Note_off_c, 2, 50, 127
1, 2499, Note_off_c, 6, 54, 127
1, 2499, Note_off_c, 12, 59, 127
1, 2499, Note_off_c, 6, 66, 127
1, 2499, Note_off_c, 12, 71, 127
1, 2499, Note_off_c, 2, 74, 127
1, 2548, Note_on_c, 12, 47, 127
1, 2548, Note_on_c, 2, 50, 127
1, 2548, Note_on_c, 6, 54, 127
1, 2548, Note_on_c, 12, 59, 127
1, 2548, Note_on_c, 12, 71, 127
1, 2548, Note_on_c, 2, 74, 127
1, 2548, Note_on_c, 6, 78, 127
1, 2647, Note_off_c, 6, 78, 127
1, 2647, Note_off_c, 2, 74, 127
1, 2647, Note_off_c, 12, 71, 127
1, 2647, Note_off_c, 12, 59, 127
1, 2647, Note_off_c, 6, 54, 127
1, 2647, Note_off_c, 2, 50, 127
1, 2647, Note_off_c, 12, 47, 127
1, 2648, Note_on_c, 12, 47, 127
1, 2648, Note_on_c, 2, 50, 127
1, 2648, Note_on_c, 6, 54, 127
1, 2648, Note_on_c, 12, 59, 127
1, 2648, Note_on_c, 12, 71, 127
1, 2648, Note_on_c, 2, 74, 127
1, 2648, Note_on_c, 6, 78, 127
1, 3749, Note_off_c, 6, 78, 127
1, 3749, Note_off_c, 2, 74, 127
1, 3749, Note_off_c, 12, 71, 127
1, 3749, Note_off_c, 12, 59, 127
1, 3749, Note_off_c, 6, 54, 127
1, 3749, Note_off_c, 2, 50, 127
1, 3749, Note_off_c, 12, 47, 127
1, 3798, Note_on_c, 12, 83, 127
1, 3798, Note_on_c, 6, 78, 127
1, 3798, Note_on_c, 2, 74, 127
1, 3798, Note_on_c, 12, 71, 127
1, 3798, Note_on_c, 12, 59, 127
1, 3798, Note_on_c, 6, 54, 127
1, 3798, Note_on_c, 2, 50, 127
1, 3798, Note_on_c, 12, 47, 127
1, 3897, Note_off_c, 12, 47, 127
1, 3897, Note_off_c, 2, 50, 127
1, 3897, Note_off_c, 6, 54, 127
1, 3897, Note_off_c, 12, 59, 127
1, 3897, Note_off_c, 12, 71, 127
1, 3897, Note_off_c, 2, 74, 127
1, 3897, Note_off_c, 6, 78, 127
1, 3897, Note_off_c, 12, 83, 127
1, 3898, Note_on_c, 12, 83, 127
1, 3898, Note_on_c, 6, 78, 127
1, 3898, Note_on_c, 2, 74, 127
1, 3898, Note_on_c, 12, 71, 127
1, 3898, Note_on_c, 12, 59, 127
1, 3898, Note_on_c, 6, 54, 127
1, 3898, Note_on_c, 2, 50, 127
1, 3898, Note_on_c, 12, 47, 127
1, 5698, Note_off_c, 12, 47, 127
1, 5698, Note_off_c, 2, 50, 127
1, 5698, Note_off_c, 6, 54, 127
1, 5698, Note_off_c, 12, 59, 127
1, 5698, Note_off_c, 12, 71, 127
1, 5698, Note_off_c, 2, 74, 127
1, 5698, Note_off_c, 6, 78, 127
1, 5698, Note_off_c, 12, 83, 127
1, 6244, Note_on_c, 12, 59, 127
1, 6244, Note_on_c, 12, 71, 127
1, 6383, Note_on_c, 1, 73, 127
1, 6389, Note_off_c, 12, 71, 127
1, 6517, Note_off_c, 1, 73, 127
1, 6518, Note_on_c, 2, 74, 127
1, 6518, Note_on_c, 12, 47, 127
1, 6652, Note_off_c, 2, 74, 127
1, 6653, Note_on_c, 4, 76, 127
1, 6722, Note_off_c, 12, 59, 127
1, 6785, Note_off_c, 12, 47, 127
1, 6786, Note_off_c, 4, 76, 127
1, 6787, Note_on_c, 6, 78, 127
1, 6921, Note_off_c, 6, 78, 127
1, 6922, Note_on_c, 1, 73, 127
1, 6922, Note_on_c, 2, 50, 127
1, 7056, Note_off_c, 2, 50, 127
1, 7056, Note_off_c, 1, 73, 127
1, 7057, Note_on_c, 2, 74, 127
1, 7057, Note_on_c, 1, 49, 127
1, 7191, Note_off_c, 1, 49, 127
1, 7191, Note_off_c, 2, 74, 127
1, 7192, Note_on_c, 4, 76, 127
1, 7192, Note_on_c, 12, 47, 127
1, 7326, Note_off_c, 12, 47, 127
1, 7326, Note_off_c, 4, 76, 127
1, 7327, Note_on_c, 6, 78, 127
1, 7327, Note_on_c, 11, 46, 127
1, 7461, Note_off_c, 11, 46, 127
1, 7461, Note_off_c, 6, 78, 127
1, 7462, Note_on_c, 1, 73, 127
1, 7462, Note_on_c, 1, 49, 127
1, 7596, Note_off_c, 1, 49, 127
1, 7596, Note_off_c, 1, 73, 127
1, 7597, Note_on_c, 2, 74, 127
1, 7597, Note_on_c, 12, 47, 127
1, 7731, Note_off_c, 12, 47, 127
1, 7731, Note_off_c, 2, 74, 127
1, 7732, Note_on_c, 4, 76, 127
1, 7732, Note_on_c, 11, 46, 127
1, 7866, Note_off_c, 11, 46, 127
1, 7866, Note_off_c, 4, 76, 127
1, 7867, Note_on_c, 2, 74, 127
1, 7867, Note_on_c, 12, 47, 127
1, 8001, Note_off_c, 12, 47, 127
1, 8002, Note_on_c, 6, 78, 127
1, 8002, Note_on_c, 6, 54, 127
1, 8036, Note_off_c, 2, 74, 127
1, 8136, Note_off_c, 6, 54, 127
1, 8136, Note_off_c, 6, 78, 127
1, 8137, Note_on_c, 4, 76, 127
1, 8137, Note_on_c, 8, 56, 127
1, 8271, Note_off_c, 8, 56, 127
1, 8271, Note_off_c, 4, 76, 127
1, 8272, Note_on_c, 6, 78, 127
1, 8272, Note_on_c, 11, 58, 127
1, 8406, Note_off_c, 11, 58, 127
1, 8406, Note_off_c, 6, 78, 127
1, 8407, Note_on_c, 2, 74, 127
1, 8407, Note_on_c, 12, 59, 127
1, 8541, Note_off_c, 12, 59, 127
1, 8541, Note_off_c, 2, 74, 127
1, 8542, Note_on_c, 4, 76, 127
1, 8542, Note_on_c, 1, 61, 127
1, 8676, Note_off_c, 1, 61, 127
1, 8676, Note_off_c, 4, 76, 127
1, 8677, Note_on_c, 1, 73, 127
1, 8677, Note_on_c, 12, 59, 127
1, 8811, Note_off_c, 12, 59, 127
1, 8811, Note_off_c, 1, 73, 127
1, 8812, Note_on_c, 2, 74, 127
1, 8812, Note_on_c, 10, 57, 127
1, 8946, Note_off_c, 10, 57, 127
1, 8946, Note_off_c, 2, 74, 127
1, 8947, Note_on_c, 12, 71, 127
1, 8947, Note_on_c, 7, 55, 127
1, 9081, Note_off_c, 7, 55, 127
1, 9081, Note_off_c, 12, 71, 127
1, 9082, Note_on_c, 6, 78, 127
1, 9082, Note_on_c, 10, 57, 127
1, 9216, Note_off_c, 10, 57, 127
1, 9216, Note_off_c, 6, 78, 127
1, 9217, Note_on_c, 4, 76, 127
1, 9217, Note_on_c, 7, 55, 127
1, 9351, Note_off_c, 7, 55, 127
1, 9351, Note_off_c, 4, 76, 127
1, 9352, Note_on_c, 6, 78, 127
1, 9352, Note_on_c, 6, 54, 127
1, 9486, Note_off_c, 6, 54, 127
1, 9486, Note_off_c, 6, 78, 127
1, 9487, Note_on_c, 7, 79, 127
1, 9487, Note_on_c, 4, 52, 127
1, 9621, Note_off_c, 4, 52, 127
1, 9622, Note_on_c, 4, 76, 127
1, 9622, Note_on_c, 7, 55, 127
1, 9656, Note_off_c, 7, 79, 127
1, 9756, Note_off_c, 7, 55, 127
1, 9756, Note_off_c, 4, 76, 127
1, 9757, Note_on_c, 6, 78, 127
1, 9757, Note_on_c, 6, 54, 127
1, 9891, Note_off_c, 6, 54, 127
1, 9891, Note_off_c, 6, 78, 127
1, 9892, Note_on_c, 7, 79, 127
1, 9892, Note_on_c, 4, 52, 127
1, 10026, Note_off_c, 4, 52, 127
1, 10026, Note_off_c, 7, 79, 127
1, 10027, Note_on_c, 1, 73, 127
1, 10027, Note_on_c, 10, 57, 127
1, 10161, Note_off_c, 10, 57, 127
1, 10162, Note_on_c, 4, 76, 127
1, 10162, Note_on_c, 12, 59, 127
1, 10196, Note_off_c, 1, 73, 127
1, 10296, Note_off_c, 12, 59, 127
1, 10296, Note_off_c, 4, 76, 127
1, 10297, Note_on_c, 2, 74, 127
1, 10297, Note_on_c, 10, 57, 127
1, 10431, Note_off_c, 10, 57, 127
1, 10431, Note_off_c, 2, 74, 127
1, 10432, Note_on_c, 4, 76, 127
1, 10432, Note_on_c, 7, 55, 127
1, 10566, Note_off_c, 7, 55, 127
1, 10566, Note_off_c, 4, 76, 127
1, 10567, Note_on_c, 10, 69, 127
1, 10567, Note_on_c, 6, 54, 127
1, 10701, Note_off_c, 6, 54, 127
1, 10702, Note_on_c, 4, 76, 127
1, 10702, Note_on_c, 7, 55, 127
1, 10736, Note_off_c, 10, 69, 127
1, 10836, Note_off_c, 7, 55, 127
1, 10836, Note_off_c, 4, 76, 127
1, 10837, Note_on_c, 2, 74, 127
1, 10837, Note_on_c, 6, 54, 127
1, 10971, Note_off_c, 6, 54, 127
1, 10971, Note_off_c, 2, 74, 127
1, 10972, Note_on_c, 4, 76, 127
1, 10972, Note_on_c, 4, 52, 127
1, 11106, Note_off_c, 4, 52, 127
1, 11106, Note_off_c, 4, 76, 127
1, 11107, Note_on_c, 6, 78, 127
1, 11107, Note_on_c, 2, 50, 127
1, 11241, Note_off_c, 2, 50, 127
1, 11242, Note_on_c, 2, 74, 127
1, 11242, Note_on_c, 6, 54, 127
1, 11276, Note_off_c, 6, 78, 127
1, 11376, Note_off_c, 6, 54, 127
1, 11376, Note_off_c, 2, 74, 127
1, 11377, Note_on_c, 4, 76, 127
1, 11377, Note_on_c, 4, 52, 127
1, 11511, Note_off_c, 4, 52, 127
1, 11511, Note_off_c, 4, 76, 127
1, 11512, Note_on_c, 6, 78, 127
1, 11512, Note_on_c, 2, 50, 127
1, 11646, Note_off_c, 2, 50, 127
1, 11646, Note_off_c, 6, 78, 127
1, 11647, Note_on_c, 12, 71, 127
1, 11647, Note_on_c, 7, 55, 127
1, 11781, Note_off_c, 7, 55, 127
1, 11782, Note_on_c, 2, 74, 127
1, 11782, Note_on_c, 10, 57, 127
1, 11816, Note_off_c, 12, 71, 127
1, 11916, Note_off_c, 10, 57, 127
1, 11916, Note_off_c, 2, 74, 127
1, 11917, Note_on_c, 1, 73, 127
1, 11917, Note_on_c, 7, 55, 127
1, 12051, Note_off_c, 7, 55, 127
1, 12051, Note_off_c, 1, 73, 127
1, 12052, Note_on_c, 2, 74, 127
1, 12052, Note_on_c, 6, 54, 127
1, 12186, Note_off_c, 6, 54, 127
1, 12186, Note_off_c, 2, 74, 127
1, 12187, Note_on_c, 7, 67, 127
1, 12187, Note_on_c, 4, 52, 127
1, 12321, Note_off_c, 4, 52, 127
1, 12322, Note_on_c, 2, 74, 127
1, 12322, Note_on_c, 6, 54, 127
1, 12356, Note_off_c, 7, 67, 127
1, 12456, Note_off_c, 6, 54, 127
1, 12456, Note_off_c, 2, 74, 127
1, 12457, Note_on_c, 1, 73, 127
1, 12457, Note_on_c, 4, 52, 127
1, 12591, Note_off_c, 4, 52, 127
1, 12591, Note_off_c, 1, 73, 127
1, 12592, Note_on_c, 2, 74, 127
1, 12592, Note_on_c, 2, 50, 127
1, 12726, Note_off_c, 2, 50, 127
1, 12726, Note_off_c, 2, 74, 127
1, 12727, Note_on_c, 4, 76, 127
1, 12727, Note_on_c, 1, 49, 127
1, 12861, Note_off_c, 1, 49, 127
1, 12862, Note_on_c, 1, 73, 127
1, 12862, Note_on_c, 4, 52, 127
1, 12910, Note_off_c, 4, 76, 127
1, 12996, Note_off_c, 4, 52, 127
1, 12996, Note_off_c, 1, 73, 127
1, 12997, Note_on_c, 2, 74, 127
1, 12997, Note_on_c, 2, 50, 127
1, 13131, Note_off_c, 2, 50, 127
1, 13131, Note_off_c, 2, 74, 127
1, 13132, Note_on_c, 4, 76, 127
1, 13132, Note_on_c, 1, 49, 127
1, 13266, Note_off_c, 1, 49, 127
1, 13266, Note_off_c, 4, 76, 127
1, 13267, Note_on_c, 11, 70, 127
1, 13267, Note_on_c, 6, 54, 127
1, 13401, Note_off_c, 6, 54, 127
1, 13402, Note_on_c, 1, 73, 127
1, 13402, Note_on_c, 7, 55, 127
1, 13436, Note_off_c, 11, 70, 127
1, 13536, Note_off_c, 7, 55, 127
1, 13536, Note_off_c, 1, 73, 127
1, 13537, Note_on_c, 12, 71, 127
1, 13537, Note_on_c, 6, 54, 127
1, 13671, Note_off_c, 6, 54, 127
1, 13671, Note_off_c, 12, 71, 127
1, 13672, Note_on_c, 1, 73, 127
1, 13672, Note_on_c, 4, 52, 127
1, 13806, Note_off_c, 4, 52, 127
1, 13806, Note_off_c, 1, 73, 127
1, 13807, Note_on_c, 6, 66, 127
1, 13807, Note_on_c, 2, 50, 127
1, 13941, Note_off_c, 2, 50, 127
1, 13942, Note_on_c, 1, 73, 127
1, 13942, Note_on_c, 4, 52, 127
1, 13976, Note_off_c, 6, 66, 127
1, 14076, Note_off_c, 4, 52, 127
1, 14076, Note_off_c, 1, 73, 127
1, 14077, Note_on_c, 12, 71, 127
1, 14077, Note_on_c, 2, 50, 127
1, 14211, Note_off_c, 2, 50, 127
1, 14211, Note_off_c, 12, 71, 127
1, 14212, Note_on_c, 1, 73, 127
1, 14212, Note_on_c, 1, 49, 127
1, 14346, Note_off_c, 1, 49, 127
1, 14346, Note_off_c, 1, 73, 127
1, 14347, Note_on_c, 2, 74, 127
1, 14347, Note_on_c, 12, 47, 127
1, 14481, Note_off_c, 12, 47, 127
1, 14482, Note_on_c, 6, 78, 127
1, 14482, Note_on_c, 6, 54, 127
1, 14544, Note_off_c, 2, 74, 127
1, 14616, Note_off_c, 6, 54, 127
1, 14616, Note_off_c, 6, 78, 127
1, 14617, Note_on_c, 4, 76, 127
1, 14617, Note_on_c, 8, 56, 127
1, 14751, Note_off_c, 8, 56, 127
1, 14751, Note_off_c, 4, 76, 127
1, 14752, Note_on_c, 6, 78, 127
1, 14752, Note_on_c, 11, 58, 127
1, 14886, Note_off_c, 11, 58, 127
1, 14886, Note_off_c, 6, 78, 127
1, 14887, Note_on_c, 2, 74, 127
1, 14887, Note_on_c, 12, 59, 127
1, 15021, Note_off_c, 12, 59, 127
1, 15021, Note_off_c, 2, 74, 127
1, 15022, Note_on_c, 4, 76, 127
1, 15022, Note_on_c, 11, 58, 127
1, 15156, Note_off_c, 11, 58, 127
1, 15156, Note_off_c, 4, 76, 127
1, 15157, Note_on_c, 2, 74, 127
1, 15157, Note_on_c, 12, 59, 127
1, 15291, Note_off_c, 12, 59, 127
1, 15291, Note_off_c, 2, 74, 127
1, 15292, Note_on_c, 1, 73, 127
1, 15292, Note_on_c, 1, 61, 127
1, 15426, Note_off_c, 1, 61, 127
1, 15426, Note_off_c, 1, 73, 127
1, 15427, Note_on_c, 12, 71, 127
1, 15427, Note_on_c, 2, 62, 127
1, 15561, Note_off_c, 2, 62, 127
1, 15562, Note_on_c, 12, 83, 127
1, 15562, Note_on_c, 12, 59, 127
1, 15624, Note_off_c, 12, 71, 127
1, 15696, Note_off_c, 12, 59, 127
1, 15696, Note_off_c, 12, 83, 127
1, 15697, Note_on_c, 10, 81, 127
1, 15697, Note_on_c, 1, 61, 127
1, 15831, Note_off_c, 1, 61, 127
1, 15831, Note_off_c, 10, 81, 127
1, 15832, Note_on_c, 12, 83, 127
1, 15832, Note_on_c, 3, 63, 127
1, 15966, Note_off_c, 3, 63, 127
1, 15966, Note_off_c, 12, 83, 127
1, 15967, Note_on_c, 7, 79, 127
1, 15967, Note_on_c, 4, 64, 127
1, 16101, Note_off_c, 4, 64, 127
1, 16102, Note_on_c, 12, 83, 127
1, 16102, Note_on_c, 12, 59, 127
1, 16178, Note_off_c, 7, 79, 127
1, 16236, Note_off_c, 12, 59, 127
1, 16236, Note_off_c, 12, 83, 127
1, 16237, Note_on_c, 10, 81, 127
1, 16237, Note_on_c, 1, 61, 127
1, 16371, Note_off_c, 1, 61, 127
1, 16371, Note_off_c, 10, 81, 127
1, 16372, Note_on_c, 12, 83, 127
1, 16372, Note_on_c, 3, 63, 127
1, 16506, Note_off_c, 3, 63, 127
1, 16506, Note_off_c, 12, 83, 127
1, 16507, Note_on_c, 7, 79, 127
1, 16507, Note_on_c, 4, 64, 127
1, 16641, Note_off_c, 4, 64, 127
1, 16641, Note_off_c, 7, 79, 127
1, 16642, Note_on_c, 10, 81, 127
1, 16642, Note_on_c, 3, 63, 127
1, 16776, Note_off_c, 3, 63, 127
1, 16776, Note_off_c, 10, 81, 127
1, 16777, Note_on_c, 7, 79, 127
1, 16777, Note_on_c, 4, 64, 127
1, 16911, Note_off_c, 4, 64, 127
1, 16911, Note_off_c, 7, 79, 127
1, 16912, Note_on_c, 6, 78, 127
1, 16912, Note_on_c, 6, 66, 127
1, 17046, Note_off_c, 6, 66, 127
1, 17046, Note_off_c, 6, 78, 127
1, 17047, Note_on_c, 4, 76, 127
1, 17047, Note_on_c, 7, 67, 127
1, 17181, Note_off_c, 7, 67, 127
1, 17182, Note_on_c, 7, 79, 127
1, 17182, Note_on_c, 4, 64, 127
1, 17244, Note_off_c, 4, 76, 127
1, 17316, Note_off_c, 4, 64, 127
1, 17316, Note_off_c, 7, 79, 127
1, 17317, Note_on_c, 10, 81, 127
1, 17317, Note_on_c, 6, 66, 127
1, 17451, Note_off_c, 6, 66, 127
1, 17451, Note_off_c, 10, 81, 127
1, 17452, Note_on_c, 12, 83, 127
1, 17452, Note_on_c, 7, 67, 127
1, 17586, Note_off_c, 7, 67, 127
1, 17586, Note_off_c, 12, 83, 127
1, 17598, Note_on_c, 1, 73, 127
1, 17598, Note_on_c, 10, 69, 127
1, 17732, Note_off_c, 10, 69, 127
1, 17738, Note_on_c, 4, 52, 127
1, 17738, Note_on_c, 4, 76, 127
1, 17809, Note_off_c, 1, 73, 127
1, 17872, Note_off_c, 4, 76, 127
1, 17872, Note_off_c, 4, 52, 127
1, 17873, Note_on_c, 6, 54, 127
1, 17873, Note_on_c, 2, 74, 127
1, 18007, Note_off_c, 2, 74, 127
1, 18007, Note_off_c, 6, 54, 127
1, 18008, Note_on_c, 7, 55, 127
1, 18008, Note_on_c, 4, 76, 127
1, 18142, Note_off_c, 4, 76, 127
1, 18142, Note_off_c, 7, 55, 127
1, 18143, Note_on_c, 10, 57, 127
1, 18143, Note_on_c, 1, 73, 127
1, 18277, Note_off_c, 1, 73, 127
1, 18277, Note_off_c, 10, 57, 127
1, 18278, Note_on_c, 7, 55, 127
1, 18278, Note_on_c, 2, 74, 127
1, 18412, Note_off_c, 2, 74, 127
1, 18412, Note_off_c, 7, 55, 127
1, 18413, Note_on_c, 10, 57, 127
1, 18413, Note_on_c, 1, 73, 127
1, 18547, Note_off_c, 1, 73, 127
1, 18547, Note_off_c, 10, 57, 127
1, 18548, Note_on_c, 12, 59, 127
1, 18548, Note_on_c, 12, 71, 127
1, 18682, Note_off_c, 12, 71, 127
1, 18682, Note_off_c, 12, 59, 127
1, 18683, Note_on_c, 1, 61, 127
1, 18683, Note_on_c, 10, 69, 127
1, 18817, Note_off_c, 1, 61, 127
1, 18818, Note_on_c, 10, 57, 127
1, 18818, Note_on_c, 1, 73, 127
1, 18852, Note_off_c, 10, 69, 127
1, 18952, Note_off_c, 1, 73, 127
1, 18952, Note_off_c, 10, 57, 127
1, 18953, Note_on_c, 12, 59, 127
1, 18953, Note_on_c, 2, 74, 127
1, 19087, Note_off_c, 2, 74, 127
1, 19087, Note_off_c, 12, 59, 127
1, 19088, Note_on_c, 1, 61, 127
1, 19088, Note_on_c, 4, 76, 127
1, 19222, Note_off_c, 4, 76, 127
1, 19222, Note_off_c, 1, 61, 127
1, 19223, Note_on_c, 2, 62, 127
1, 19223, Note_on_c, 6, 78, 127
1, 19357, Note_off_c, 2, 62, 127
1, 19358, Note_on_c, 10, 57, 127
1, 19358, Note_on_c, 10, 81, 127
1, 19462, Note_off_c, 6, 78, 127
1, 19492, Note_off_c, 10, 81, 127
1, 19492, Note_off_c, 10, 57, 127
1, 19493, Note_on_c, 12, 59, 127
1, 19493, Note_on_c, 7, 79, 127
1, 19627, Note_off_c, 7, 79, 127
1, 19627, Note_off_c, 12, 59, 127
1, 19628, Note_on_c, 1, 61, 127
1, 19628, Note_on_c, 10, 81, 127
1, 19762, Note_off_c, 10, 81, 127
1, 19762, Note_off_c, 1, 61, 127
1, 19763, Note_on_c, 2, 62, 127
1, 19763, Note_on_c, 6, 78, 127
1, 19897, Note_off_c, 6, 78, 127
1, 19897, Note_off_c, 2, 62, 127
1, 19898, Note_on_c, 1, 61, 127
1, 19898, Note_on_c, 7, 79, 127
1, 20032, Note_off_c, 7, 79, 127
1, 20032, Note_off_c, 1, 61, 127
1, 20033, Note_on_c, 2, 62, 127
1, 20033, Note_on_c, 6, 78, 127
1, 20167, Note_off_c, 6, 78, 127
1, 20167, Note_off_c, 2, 62, 127
1, 20168, Note_on_c, 4, 64, 127
1, 20168, Note_on_c, 4, 76, 127
1, 20302, Note_off_c, 4, 76, 127
1, 20302, Note_off_c, 4, 64, 127
1, 20303, Note_on_c, 6, 66, 127
1, 20303, Note_on_c, 2, 74, 127
1, 20437, Note_off_c, 6, 66, 127
1, 20438, Note_on_c, 2, 62, 127
1, 20438, Note_on_c, 6, 78, 127
1, 20472, Note_off_c, 2, 74, 127
1, 20572, Note_off_c, 6, 78, 127
1, 20572, Note_off_c, 2, 62, 127
1, 20573, Note_on_c, 4, 64, 127
1, 20573, Note_on_c, 7, 79, 127
1, 20707, Note_off_c, 7, 79, 127
1, 20707, Note_off_c, 4, 64, 127
1, 20711, Note_on_c, 6, 66, 127
1, 20711, Note_on_c, 10, 81, 127
1, 20845, Note_off_c, 10, 81, 127
1, 20845, Note_off_c, 6, 66, 127
1, 20855, Note_on_c, 12, 71, 127
1, 20855, Note_on_c, 7, 67, 127
1, 20989, Note_off_c, 7, 67, 127
1, 20994, Note_on_c, 2, 74, 127
1, 20994, Note_on_c, 2, 50, 127
1, 21066, Note_off_c, 12, 71, 127
1, 21128, Note_off_c, 2, 50, 127
1, 21128, Note_off_c, 2, 74, 127
1, 21129, Note_on_c, 0, 72, 127
1, 21129, Note_on_c, 4, 52, 127
1, 21263, Note_off_c, 4, 52, 127
1, 21263, Note_off_c, 0, 72, 127
1, 21264, Note_on_c, 2, 74, 127
1, 21264, Note_on_c, 6, 54, 127
1, 21398, Note_off_c, 6, 54, 127
1, 21398, Note_off_c, 2, 74, 127
1, 21399, Note_on_c, 12, 71, 127
1, 21399, Note_on_c, 7, 55, 127
1, 21533, Note_off_c, 7, 55, 127
1, 21533, Note_off_c, 12, 71, 127
1, 21534, Note_on_c, 0, 72, 127
1, 21534, Note_on_c, 6, 54, 127
1, 21668, Note_off_c, 6, 54, 127
1, 21668, Note_off_c, 0, 72, 127
1, 21669, Note_on_c, 12, 71, 127
1, 21669, Note_on_c, 7, 55, 127
1, 21803, Note_off_c, 7, 55, 127
1, 21803, Note_off_c, 12, 71, 127
1, 21804, Note_on_c, 10, 69, 127
1, 21804, Note_on_c, 10, 57, 127
1, 21938, Note_off_c, 10, 57, 127
1, 21938, Note_off_c, 10, 69, 127
1, 21939, Note_on_c, 7, 67, 127
1, 21939, Note_on_c, 12, 59, 127
1, 22073, Note_off_c, 12, 59, 127
1, 22074, Note_on_c, 12, 71, 127
1, 22074, Note_on_c, 7, 55, 127
1, 22122, Note_off_c, 7, 67, 127
1, 22208, Note_off_c, 7, 55, 127
1, 22208, Note_off_c, 12, 71, 127
1, 22209, Note_on_c, 0, 72, 127
1, 22209, Note_on_c, 10, 57, 127
1, 22343, Note_off_c, 10, 57, 127
1, 22343, Note_off_c, 0, 72, 127
1, 22344, Note_on_c, 2, 74, 127
1, 22344, Note_on_c, 12, 59, 127
1, 22478, Note_off_c, 12, 59, 127
1, 22478, Note_off_c, 2, 74, 127
1, 22479, Note_on_c, 4, 76, 127
1, 22479, Note_on_c, 1, 49, 127
1, 22613, Note_off_c, 1, 49, 127
1, 22614, Note_on_c, 7, 79, 127
1, 22614, Note_on_c, 4, 52, 127
1, 22747, Note_off_c, 4, 76, 127
1, 22748, Note_off_c, 4, 52, 127
1, 22748, Note_off_c, 7, 79, 127
1, 22749, Note_on_c, 6, 78, 127
1, 22749, Note_on_c, 2, 50, 127
1, 22883, Note_off_c, 2, 50, 127
1, 22883, Note_off_c, 6, 78, 127
1, 22884, Note_on_c, 7, 79, 127
1, 22884, Note_on_c, 4, 52, 127
1, 23018, Note_off_c, 4, 52, 127
1, 23018, Note_off_c, 7, 79, 127
1, 23019, Note_on_c, 4, 76, 127
1, 23019, Note_on_c, 1, 49, 127
1, 23153, Note_off_c, 1, 49, 127
1, 23153, Note_off_c, 4, 76, 127
1, 23154, Note_on_c, 6, 78, 127
1, 23154, Note_on_c, 2, 50, 127
1, 23288, Note_off_c, 2, 50, 127
1, 23288, Note_off_c, 6, 78, 127
1, 23289, Note_on_c, 4, 76, 127
1, 23289, Note_on_c, 1, 49, 127
1, 23423, Note_off_c, 1, 49, 127
1, 23423, Note_off_c, 4, 76, 127
1, 23424, Note_on_c, 2, 74, 127
1, 23424, Note_on_c, 2, 50, 127
1, 23558, Note_off_c, 2, 50, 127
1, 23558, Note_off_c, 2, 74, 127
1, 23559, Note_on_c, 1, 73, 127
1, 23559, Note_on_c, 4, 52, 127
1, 23693, Note_off_c, 4, 52, 127
1, 23694, Note_on_c, 4, 76, 127
1, 23694, Note_on_c, 1, 49, 127
1, 23728, Note_off_c, 1, 73, 127
1, 23828, Note_off_c, 1, 49, 127
1, 23828, Note_off_c, 4, 76, 127
1, 23829, Note_on_c, 6, 78, 127
1, 23829, Note_on_c, 2, 50, 127
1, 23963, Note_off_c, 2, 50, 127
1, 23963, Note_off_c, 6, 78, 127
1, 23964, Note_on_c, 7, 79, 127
1, 23964, Note_on_c, 4, 52, 127
1, 24098, Note_off_c, 4, 52, 127
1, 24098, Note_off_c, 7, 79, 127
1, 24099, Note_on_c, 11, 70, 127
1, 24099, Note_on_c, 6, 42, 127
1, 24235, Note_on_c, 6, 78, 127
1, 24369, Note_off_c, 6, 78, 127
1, 24370, Note_on_c, 4, 76, 127
1, 24494, Note_off_c, 11, 70, 127
1, 24504, Note_off_c, 4, 76, 127
1, 24505, Note_on_c, 2, 74, 127
1, 24639, Note_off_c, 2, 74, 127
1, 24640, Note_on_c, 1, 73, 127
1, 24774, Note_off_c, 1, 73, 127
1, 24775, Note_on_c, 6, 78, 127
1, 24909, Note_off_c, 6, 78, 127
1, 24910, Note_on_c, 4, 76, 127
1, 25044, Note_off_c, 4, 76, 127
1, 25045, Note_on_c, 2, 74, 127
1, 25179, Note_off_c, 2, 74, 127
1, 25180, Note_on_c, 1, 73, 127
1, 25314, Note_off_c, 1, 73, 127
1, 25315, Note_on_c, 12, 71, 127
1, 25449, Note_off_c, 12, 71, 127
1, 25450, Note_on_c, 11, 70, 127
1, 25584, Note_off_c, 11, 70, 127
1, 25585, Note_on_c, 8, 68, 127
1, 25719, Note_off_c, 8, 68, 127
1, 25720, Note_on_c, 6, 66, 127
1, 25854, Note_off_c, 6, 66, 127
1, 25854, Note_off_c, 6, 42, 127
1, 25855, Note_on_c, 6, 66, 127
1, 25855, Note_on_c, 6, 54, 127
1, 25989, Note_off_c, 6, 54, 127
1, 25989, Note_off_c, 6, 66, 127
1, 25990, Note_on_c, 4, 64, 127
1, 25990, Note_on_c, 4, 52, 127
1, 26124, Note_off_c, 4, 52, 127
1, 26124, Note_off_c, 4, 64, 127
1, 26125, Note_on_c, 2, 62, 127
1, 26125, Note_on_c, 2, 50, 127
1, 26259, Note_off_c, 2, 50, 127
1, 26259, Note_off_c, 2, 62, 127
1, 26260, Note_on_c, 1, 61, 127
1, 26260, Note_on_c, 1, 49, 127
1, 26394, Note_off_c, 1, 49, 127
1, 26394, Note_off_c, 1, 61, 127
1, 26395, Note_on_c, 6, 66, 127
1, 26395, Note_on_c, 6, 54, 127
1, 26529, Note_off_c, 6, 54, 127
1, 26529, Note_off_c, 6, 66, 127
1, 26530, Note_on_c, 4, 64, 127
1, 26530, Note_on_c, 4, 52, 127
1, 26664, Note_off_c, 4, 52, 127
1, 26664, Note_off_c, 4, 64, 127
1, 26665, Note_on_c, 2, 62, 127
1, 26665, Note_on_c, 2, 50, 127
1, 26799, Note_off_c, 2, 50, 127
1, 26799, Note_off_c, 2, 62, 127
1, 26800, Note_on_c, 1, 61, 127
1, 26800, Note_on_c, 1, 49, 127
1, 26934, Note_off_c, 1, 49, 127
1, 26934, Note_off_c, 1, 61, 127
1, 26935, Note_on_c, 12, 59, 127
1, 26935, Note_on_c, 12, 47, 127
1, 27069, Note_off_c, 12, 47, 127
1, 27069, Note_off_c, 12, 59, 127
1, 27070, Note_on_c, 11, 58, 127
1, 27070, Note_on_c, 11, 46, 127
1, 27204, Note_off_c, 11, 46, 127
1, 27204, Note_off_c, 11, 58, 127
1, 27205, Note_on_c, 8, 56, 127
1, 27205, Note_on_c, 8, 44, 127
1, 27339, Note_off_c, 8, 44, 127
1, 27339, Note_off_c, 8, 56, 127
1, 27340, Note_on_c, 11, 70, 127
1, 27340, Note_on_c, 6, 54, 127
1, 27340, Note_on_c, 6, 42, 127
1, 27492, Note_on_c, 6, 66, 127
1, 27517, Note_off_c, 11, 70, 127
1, 27610, Note_off_c, 6, 42, 127
1, 27610, Note_off_c, 6, 54, 127
1, 27626, Note_off_c, 6, 66, 127
1, 27627, Note_on_c, 4, 64, 127
1, 27627, Note_on_c, 11, 70, 127
1, 27761, Note_off_c, 11, 70, 127
1, 27762, Note_on_c, 1, 73, 127
1, 27896, Note_off_c, 1, 73, 127
1, 27896, Note_off_c, 4, 64, 127
1, 27897, Note_on_c, 1, 61, 127
1, 27897, Note_on_c, 6, 66, 127
1, 28033, Note_on_c, 1, 73, 127
1, 28046, Note_off_c, 6, 66, 127
1, 28167, Note_off_c, 1, 73, 127
1, 28167, Note_off_c, 1, 61, 127
1, 28168, Note_on_c, 11, 58, 127
1, 28168, Note_on_c, 6, 66, 127
1, 28304, Note_on_c, 1, 73, 127
1, 28317, Note_off_c, 6, 66, 127
1, 28438, Note_off_c, 1, 73, 127
1, 28438, Note_off_c, 11, 58, 127
1, 28439, Note_on_c, 6, 54, 127
1, 28439, Note_on_c, 6, 66, 127
1, 28575, Note_on_c, 11, 70, 127
1, 28588, Note_off_c, 6, 66, 127
1, 28709, Note_off_c, 11, 70, 127
1, 28709, Note_off_c, 6, 54, 127
1, 28710, Note_on_c, 4, 52, 127
1, 28710, Note_on_c, 6, 66, 127
1, 28846, Note_on_c, 11, 70, 127
1, 28859, Note_off_c, 6, 66, 127
1, 28980, Note_off_c, 11, 70, 127
1, 28980, Note_off_c, 4, 52, 127
1, 28981, Note_on_c, 2, 50, 127
1, 28981, Note_on_c, 6, 42, 127
1, 28981, Note_on_c, 12, 71, 127
1, 29117, Note_on_c, 6, 66, 127
1, 29158, Note_off_c, 12, 71, 127
1, 29251, Note_off_c, 6, 66, 127
1, 29251, Note_off_c, 6, 42, 127
1, 29251, Note_off_c, 2, 50, 127
1, 29252, Note_on_c, 12, 59, 127
1, 29252, Note_on_c, 12, 71, 127
1, 29386, Note_off_c, 12, 71, 127
1, 29387, Note_on_c, 2, 74, 127
1, 29521, Note_off_c, 2, 74, 127
1, 29521, Note_off_c, 12, 59, 127
1, 29522, Note_on_c, 7, 55, 127
1, 29522, Note_on_c, 6, 66, 127
1, 29658, Note_on_c, 2, 74, 127
1, 29671, Note_off_c, 6, 66, 127
1, 29792, Note_off_c, 2, 74, 127
1, 29792, Note_off_c, 7, 55, 127
1, 29793, Note_on_c, 6, 54, 127
1, 29793, Note_on_c, 6, 66, 127
1, 29929, Note_on_c, 2, 74, 127
1, 29942, Note_off_c, 6, 66, 127
1, 30063, Note_off_c, 2, 74, 127
1, 30063, Note_off_c, 6, 54, 127
1, 30064, Note_on_c, 2, 50, 127
1, 30064, Note_on_c, 6, 66, 127
1, 30200, Note_on_c, 12, 71, 127
1, 30213, Note_off_c, 6, 66, 127
1, 30334, Note_off_c, 12, 71, 127
1, 30334, Note_off_c, 2, 50, 127
1, 30335, Note_on_c, 12, 47, 127
1, 30335, Note_on_c, 6, 66, 127
1, 30471, Note_on_c, 12, 71, 127
1, 30484, Note_off_c, 6, 66, 127
1, 30605, Note_off_c, 12, 71, 127
1, 30605, Note_off_c, 12, 47, 127
1, 30606, Note_on_c, 6, 42, 127
1, 30606, Note_on_c, 11, 46, 127
1, 30606, Note_on_c, 1, 73, 127
1, 30742, Note_on_c, 6, 66, 127
1, 30783, Note_off_c, 1, 73, 127
1, 30876, Note_off_c, 6, 66, 127
1, 30876, Note_off_c, 11, 46, 127
1, 30876, Note_off_c, 6, 42, 127
1, 30877, Note_on_c, 6, 42, 127
1, 30877, Note_on_c, 1, 73, 127
1, 31011, Note_off_c, 1, 73, 127
1, 31012, Note_on_c, 4, 76, 127
1, 31146, Note_off_c, 4, 76, 127
1, 31146, Note_off_c, 6, 42, 127
1, 31147, Note_on_c, 11, 46, 127
1, 31147, Note_on_c, 6, 66, 127
1, 31283, Note_on_c, 4, 76, 127
1, 31296, Note_off_c, 6, 66, 127
1, 31417, Note_off_c, 4, 76, 127
1, 31417, Note_off_c, 11, 46, 127
1, 31418, Note_on_c, 1, 49, 127
1, 31418, Note_on_c, 6, 66, 127
1, 31554, Note_on_c, 4, 76, 127
1, 31567, Note_off_c, 6, 66, 127
1, 31688, Note_off_c, 4, 76, 127
1, 31688, Note_off_c, 1, 49, 127
1, 31689, Note_on_c, 6, 54, 127
1, 31689, Note_on_c, 6, 66, 127
1, 31825, Note_on_c, 1, 73, 127
1, 31838, Note_off_c, 6, 66, 127
1, 31959, Note_off_c, 1, 73, 127
1, 31959, Note_off_c, 6, 54, 127
1, 31960, Note_on_c, 11, 58, 127
1, 31960, Note_on_c, 6, 66, 127
1, 32096, Note_on_c, 1, 73, 127
1, 32109, Note_off_c, 6, 66, 127
1, 32230, Note_off_c, 1, 73, 127
1, 32230, Note_off_c, 11, 58, 127
1, 32231, Note_on_c, 12, 59, 127
1, 32231, Note_on_c, 12, 47, 127
1, 32231, Note_on_c, 2, 74, 127
1, 32367, Note_on_c, 12, 71, 127
1, 32408, Note_off_c, 2, 74, 127
1, 32501, Note_off_c, 12, 71, 127
1, 32501, Note_off_c, 12, 47, 127
1, 32501, Note_off_c, 12, 59, 127
1, 32502, Note_on_c, 1, 49, 127
1, 32502, Note_on_c, 1, 61, 127
1, 32502, Note_on_c, 2, 74, 127
1, 32638, Note_on_c, 6, 78, 127
1, 32651, Note_off_c, 2, 74, 127
1, 32772, Note_off_c, 6, 78, 127
1, 32772, Note_off_c, 1, 61, 127
1, 32772, Note_off_c, 1, 49, 127
1, 32773, Note_on_c, 12, 47, 127
1, 32773, Note_on_c, 12, 59, 127
1, 32773, Note_on_c, 2, 74, 127
1, 32909, Note_on_c, 12, 71, 127
1, 32922, Note_off_c, 2, 74, 127
1, 33043, Note_off_c, 12, 71, 127
1, 33043, Note_off_c, 12, 59, 127
1, 33043, Note_off_c, 12, 47, 127
1, 33044, Note_on_c, 10, 45, 127
1, 33044, Note_on_c, 10, 57, 127
1, 33044, Note_on_c, 2, 74, 127
1, 33180, Note_on_c, 6, 78, 127
1, 33193, Note_off_c, 2, 74, 127
1, 33314, Note_off_c, 6, 78, 127
1, 33314, Note_off_c, 10, 57, 127
1, 33314, Note_off_c, 10, 45, 127
1, 33315, Note_on_c, 7, 43, 127
1, 33315, Note_on_c, 7, 55, 127
1, 33315, Note_on_c, 2, 74, 127
1, 33451, Note_on_c, 12, 71, 127
1, 33464, Note_off_c, 2, 74, 127
1, 33585, Note_off_c, 12, 71, 127
1, 33585, Note_off_c, 7, 55, 127
1, 33585, Note_off_c, 7, 43, 127
1, 33586, Note_on_c, 6, 54, 127
1, 33586, Note_on_c, 6, 42, 127
1, 33586, Note_on_c, 2, 74, 127
1, 33720, Note_off_c, 2, 74, 127
1, 33721, Note_on_c, 6, 78, 127
1, 33855, Note_off_c, 6, 78, 127
1, 33855, Note_off_c, 6, 42, 127
1, 33855, Note_off_c, 6, 54, 127
1, 33856, Note_on_c, 4, 52, 127
1, 33856, Note_on_c, 4, 40, 127
1, 33856, Note_on_c, 4, 76, 127
1, 33992, Note_on_c, 12, 71, 127
1, 34033, Note_off_c, 4, 76, 127
1, 34126, Note_off_c, 12, 71, 127
1, 34126, Note_off_c, 4, 40, 127
1, 34126, Note_off_c, 4, 52, 127
1, 34127, Note_on_c, 3, 39, 127
1, 34127, Note_on_c, 3, 51, 127
1, 34127, Note_on_c, 4, 76, 127
1, 34263, Note_on_c, 7, 79, 127
1, 34276, Note_off_c, 4, 76, 127
1, 34397, Note_off_c, 7, 79, 127
1, 34397, Note_off_c, 3, 51, 127
1, 34397, Note_off_c, 3, 39, 127
1, 34398, Note_on_c, 4, 52, 127
1, 34398, Note_on_c, 4, 40, 127
1, 34398, Note_on_c, 4, 76, 127
1, 34534, Note_on_c, 12, 71, 127
1, 34547, Note_off_c, 4, 76, 127
1, 34668, Note_off_c, 12, 71, 127
1, 34668, Note_off_c, 4, 40, 127
1, 34668, Note_off_c, 4, 52, 127
1, 34669, Note_on_c, 6, 54, 127
1, 34669, Note_on_c, 6, 42, 127
1, 34669, Note_on_c, 4, 76, 127
1, 34805, Note_on_c, 7, 79, 127
1, 34818, Note_off_c, 4, 76, 127
1, 34939, Note_off_c, 7, 79, 127
1, 34939, Note_off_c, 6, 42, 127
1, 34939, Note_off_c, 6, 54, 127
1, 34940, Note_on_c, 7, 43, 127
1, 34940, Note_on_c, 7, 55, 127
1, 34940, Note_on_c, 4, 76, 127
1, 35076, Note_on_c, 12, 71, 127
1, 35089, Note_off_c, 4, 76, 127
1, 35210, Note_off_c, 12, 71, 127
1, 35210, Note_off_c, 7, 55, 127
1, 35210, Note_off_c, 7, 43, 127
1, 35211, Note_on_c, 4, 52, 127
1, 35211, Note_on_c, 4, 40, 127
1, 35211, Note_on_c, 4, 76, 127
1, 35347, Note_on_c, 7, 79, 127
1, 35360, Note_off_c, 4, 76, 127
1, 35481, Note_off_c, 7, 79, 127
1, 35481, Note_off_c, 4, 40, 127
1, 35481, Note_off_c, 4, 52, 127
1, 35482, Note_on_c, 6, 42, 127
1, 35482, Note_on_c, 6, 54, 127
1, 35482, Note_on_c, 11, 70, 127
1, 35618, Note_on_c, 6, 66, 127
1, 35659, Note_off_c, 11, 70, 127
1, 35752, Note_off_c, 6, 66, 127
1, 35752, Note_off_c, 6, 54, 127
1, 35752, Note_off_c, 6, 42, 127
1, 35753, Note_on_c, 4, 64, 127
1, 35753, Note_on_c, 11, 70, 127
1, 35887, Note_off_c, 11, 70, 127
1, 35888, Note_on_c, 1, 73, 127
1, 36022, Note_off_c, 1, 73, 127
1, 36022, Note_off_c, 4, 64, 127
1, 36023, Note_on_c, 1, 61, 127
1, 36023, Note_on_c, 6, 78, 127
1, 36159, Note_on_c, 6, 66, 127
1, 36200, Note_off_c, 6, 78, 127
1, 36293, Note_off_c, 6, 66, 127
1, 36293, Note_off_c, 1, 61, 127
1, 36294, Note_on_c, 4, 64, 127
1, 36294, Note_on_c, 11, 70, 127
1, 36428, Note_off_c, 11, 70, 127
1, 36429, Note_on_c, 1, 73, 127
1, 36563, Note_off_c, 1, 73, 127
1, 36563, Note_off_c, 4, 64, 127
1, 36564, Note_on_c, 11, 58, 127
1, 36564, Note_on_c, 4, 76, 127
1, 36700, Note_on_c, 6, 66, 127
1, 36741, Note_off_c, 4, 76, 127
1, 36834, Note_off_c, 6, 66, 127
1, 36834, Note_off_c, 11, 58, 127
1, 36835, Note_on_c, 1, 61, 127
1, 36835, Note_on_c, 11, 70, 127
1, 36969, Note_off_c, 11, 70, 127
1, 36970, Note_on_c, 1, 73, 127
1, 37104, Note_off_c, 1, 73, 127
1, 37104, Note_off_c, 1, 61, 127
1, 37105, Note_on_c, 2, 50, 127
1, 37105, Note_on_c, 6, 42, 127
1, 37105, Note_on_c, 2, 74, 127
1, 37241, Note_on_c, 12, 71, 127
1, 37282, Note_off_c, 2, 74, 127
1, 37375, Note_off_c, 12, 71, 127
1, 37375, Note_off_c, 6, 42, 127
1, 37376, Note_on_c, 12, 59, 127
1, 37376, Note_on_c, 6, 66, 127
1, 37510, Note_off_c, 6, 66, 127
1, 37511, Note_on_c, 2, 74, 127
1, 37641, Note_off_c, 2, 50, 127
1, 37645, Note_off_c, 2, 74, 127
1, 37645, Note_off_c, 12, 59, 127
1, 37646, Note_on_c, 2, 50, 127
1, 37646, Note_on_c, 2, 74, 127
1, 37782, Note_on_c, 12, 71, 127
1, 37823, Note_off_c, 2, 74, 127
1, 37916, Note_off_c, 12, 71, 127
1, 37916, Note_off_c, 2, 50, 127
1, 37917, Note_on_c, 6, 54, 127
1, 37917, Note_on_c, 6, 66, 127
1, 38051, Note_off_c, 6, 66, 127
1, 38052, Note_on_c, 2, 74, 127
1, 38186, Note_off_c, 2, 74, 127
1, 38186, Note_off_c, 6, 54, 127
1, 38187, Note_on_c, 12, 47, 127
1, 38187, Note_on_c, 2, 74, 127
1, 38323, Note_on_c, 12, 71, 127
1, 38364, Note_off_c, 2, 74, 127
1, 38457, Note_off_c, 12, 71, 127
1, 38457, Note_off_c, 12, 47, 127
1, 38458, Note_on_c, 2, 50, 127
1, 38458, Note_on_c, 6, 66, 127
1, 38592, Note_off_c, 6, 66, 127
1, 38593, Note_on_c, 2, 74, 127
1, 38727, Note_off_c, 2, 74, 127
1, 38727, Note_off_c, 2, 50, 127
1, 38728, Note_on_c, 6, 42, 127
1, 38728, Note_on_c, 1, 73, 127
1, 38864, Note_on_c, 12, 71, 127
1, 38905, Note_off_c, 1, 73, 127
1, 38998, Note_off_c, 12, 71, 127
1, 38999, Note_on_c, 8, 44, 127
1, 38999, Note_on_c, 6, 66, 127
1, 39133, Note_off_c, 6, 66, 127
1, 39134, Note_on_c, 1, 73, 127
1, 39268, Note_off_c, 1, 73, 127
1, 39268, Note_off_c, 8, 44, 127
1, 39269, Note_on_c, 11, 46, 127
1, 39269, Note_on_c, 1, 73, 127
1, 39405, Note_on_c, 12, 71, 127
1, 39446, Note_off_c, 1, 73, 127
1, 39539, Note_off_c, 12, 71, 127
1, 39539, Note_off_c, 11, 46, 127
1, 39540, Note_on_c, 12, 47, 127
1, 39540, Note_on_c, 6, 66, 127
1, 39674, Note_off_c, 6, 66, 127
1, 39675, Note_on_c, 1, 73, 127
1, 39809, Note_off_c, 1, 73, 127
1, 39809, Note_off_c, 12, 47, 127
1, 39810, Note_on_c, 1, 49, 127
1, 39810, Note_on_c, 1, 73, 127
1, 39946, Note_on_c, 12, 71, 127
1, 39987, Note_off_c, 1, 73, 127
1, 40080, Note_off_c, 12, 71, 127
1, 40080, Note_off_c, 1, 49, 127
1, 40081, Note_on_c, 2, 50, 127
1, 40081, Note_on_c, 6, 66, 127
1, 40215, Note_off_c, 6, 66, 127
1, 40216, Note_on_c, 1, 73, 127
1, 40350, Note_off_c, 1, 73, 127
1, 40350, Note_off_c, 2, 50, 127
1, 40351, Note_on_c, 4, 52, 127
1, 40351, Note_on_c, 1, 73, 127
1, 40487, Note_on_c, 11, 70, 127
1, 40528, Note_off_c, 1, 73, 127
1, 40621, Note_off_c, 11, 70, 127
1, 40621, Note_off_c, 4, 52, 127
1, 40622, Note_on_c, 2, 50, 127
1, 40622, Note_on_c, 6, 66, 127
1, 40756, Note_off_c, 6, 66, 127
1, 40757, Note_on_c, 1, 73, 127
1, 40891, Note_off_c, 1, 73, 127
1, 40891, Note_off_c, 2, 50, 127
1, 40892, Note_on_c, 4, 52, 127
1, 40892, Note_on_c, 1, 73, 127
1, 41028, Note_on_c, 11, 70, 127
1, 41069, Note_off_c, 1, 73, 127
1, 41162, Note_off_c, 11, 70, 127
1, 41162, Note_off_c, 4, 52, 127
1, 41163, Note_on_c, 7, 55, 127
1, 41163, Note_on_c, 6, 66, 127
1, 41297, Note_off_c, 6, 66, 127
1, 41298, Note_on_c, 1, 73, 127
1, 41432, Note_off_c, 1, 73, 127
1, 41432, Note_off_c, 7, 55, 127
1, 41433, Note_on_c, 6, 54, 127
1, 41433, Note_on_c, 1, 73, 127
1, 41567, Note_off_c, 1, 73, 127
1, 41568, Note_on_c, 11, 70, 127
1, 41702, Note_off_c, 11, 70, 127
1, 41702, Note_off_c, 6, 54, 127
1, 41703, Note_on_c, 4, 52, 127
1, 41703, Note_on_c, 6, 66, 127
1, 41837, Note_off_c, 6, 66, 127
1, 41838, Note_on_c, 1, 73, 127
1, 41968, Note_off_c, 6, 42, 127
1, 41972, Note_off_c, 1, 73, 127
1, 41972, Note_off_c, 4, 52, 127
1, 41973, Note_on_c, 2, 50, 127
1, 41973, Note_on_c, 12, 47, 127
1, 41973, Note_on_c, 12, 59, 127
1, 42103, Note_off_c, 12, 59, 127
1, 42110, Note_off_c, 12, 47, 127
1, 42110, Note_off_c, 2, 50, 127
1, 42114, Note_on_c, 12, 59, 127
1, 42114, Note_on_c, 12, 71, 127
1, 42251, Note_off_c, 12, 71, 127
1, 42251, Note_off_c, 12, 59, 127
1, 42257, Note_on_c, 10, 57, 127
1, 42257, Note_on_c, 10, 69, 127
1, 42394, Note_off_c, 10, 69, 127
1, 42394, Note_off_c, 10, 57, 127
1, 42395, Note_on_c, 7, 55, 127
1, 42395, Note_on_c, 7, 67, 127
1, 42532, Note_off_c, 7, 67, 127
1, 42532, Note_off_c, 7, 55, 127
1, 42533, Note_on_c, 6, 54, 127
1, 42533, Note_on_c, 6, 66, 127
1, 42670, Note_off_c, 6, 66, 127
1, 42670, Note_off_c, 6, 54, 127
1, 42671, Note_on_c, 12, 59, 127
1, 42671, Note_on_c, 12, 71, 127
1, 42808, Note_off_c, 12, 71, 127
1, 42808, Note_off_c, 12, 59, 127
1, 42809, Note_on_c, 10, 57, 127
1, 42809, Note_on_c, 10, 69, 127
1, 42946, Note_off_c, 10, 69, 127
1, 42946, Note_off_c, 10, 57, 127
1, 42947, Note_on_c, 7, 55, 127
1, 42947, Note_on_c, 7, 67, 127
1, 43084, Note_off_c, 7, 67, 127
1, 43084, Note_off_c, 7, 55, 127
1, 43085, Note_on_c, 6, 54, 127
1, 43085, Note_on_c, 6, 66, 127
1, 43222, Note_off_c, 6, 66, 127
1, 43222, Note_off_c, 6, 54, 127
1, 43223, Note_on_c, 4, 52, 127
1, 43223, Note_on_c, 4, 64, 127
1, 43360, Note_off_c, 4, 64, 127
1, 43360, Note_off_c, 4, 52, 127
1, 43361, Note_on_c, 2, 50, 127
1, 43361, Note_on_c, 2, 62, 127
1, 43498, Note_off_c, 2, 62, 127
1, 43498, Note_off_c, 2, 50, 127
1, 43505, Note_on_c, 1, 61, 127
1, 43505, Note_on_c, 1, 49, 127
1, 43642, Note_off_c, 1, 49, 127
1, 43642, Note_off_c, 1, 61, 127
1, 43661, Note_on_c, 12, 71, 127
1, 43661, Note_on_c, 12, 47, 127
1, 43795, Note_off_c, 12, 47, 127
1, 43796, Note_on_c, 6, 66, 127
1, 43796, Note_on_c, 12, 59, 127
1, 43929, Note_off_c, 12, 71, 127
1, 43930, Note_off_c, 12, 59, 127
1, 43930, Note_off_c, 6, 66, 127
1, 43931, Note_on_c, 12, 71, 127
1, 43931, Note_on_c, 6, 54, 127
1, 44065, Note_off_c, 6, 54, 127
1, 44066, Note_on_c, 2, 74, 127
1, 44066, Note_on_c, 12, 59, 127
1, 44200, Note_off_c, 12, 59, 127
1, 44200, Note_off_c, 2, 74, 127
1, 44201, Note_on_c, 6, 66, 127
1, 44201, Note_on_c, 2, 50, 127
1, 44325, Note_off_c, 12, 71, 127
1, 44335, Note_off_c, 2, 50, 127
1, 44335, Note_off_c, 6, 66, 127
1, 44336, Note_on_c, 2, 74, 127
1, 44336, Note_on_c, 6, 54, 127
1, 44470, Note_off_c, 6, 54, 127
1, 44470, Note_off_c, 2, 74, 127
1, 44471, Note_on_c, 6, 66, 127
1, 44471, Note_on_c, 2, 50, 127
1, 44605, Note_off_c, 2, 50, 127
1, 44605, Note_off_c, 6, 66, 127
1, 44606, Note_on_c, 2, 74, 127
1, 44606, Note_on_c, 6, 54, 127
1, 44740, Note_off_c, 6, 54, 127
1, 44740, Note_off_c, 2, 74, 127
1, 44741, Note_on_c, 6, 66, 127
1, 44741, Note_on_c, 12, 47, 127
1, 44875, Note_off_c, 12, 47, 127
1, 44875, Note_off_c, 6, 66, 127
1, 44876, Note_on_c, 12, 71, 127
1, 44876, Note_on_c, 2, 50, 127
1, 45010, Note_off_c, 2, 50, 127
1, 45011, Note_on_c, 6, 66, 127
1, 45011, Note_on_c, 12, 47, 127
1, 45144, Note_off_c, 12, 71, 127
1, 45145, Note_off_c, 12, 47, 127
1, 45145, Note_off_c, 6, 66, 127
1, 45146, Note_on_c, 12, 71, 127
1, 45146, Note_on_c, 2, 50, 127
1, 45280, Note_off_c, 2, 50, 127
1, 45280, Note_off_c, 12, 71, 127
1, 45281, Note_on_c, 1, 73, 127
1, 45281, Note_on_c, 11, 46, 127
1, 45415, Note_off_c, 11, 46, 127
1, 45416, Note_on_c, 6, 66, 127
1, 45416, Note_on_c, 1, 49, 127
1, 45549, Note_off_c, 1, 73, 127
1, 45550, Note_off_c, 1, 49, 127
1, 45550, Note_off_c, 6, 66, 127
1, 45551, Note_on_c, 1, 73, 127
1, 45551, Note_on_c, 11, 46, 127
1, 45685, Note_off_c, 11, 46, 127
1, 45686, Note_on_c, 4, 76, 127
1, 45686, Note_on_c, 1, 49, 127
1, 45820, Note_off_c, 1, 49, 127
1, 45820, Note_off_c, 4, 76, 127
1, 45821, Note_on_c, 6, 66, 127
1, 45821, Note_on_c, 6, 42, 127
1, 45955, Note_off_c, 6, 42, 127
1, 45955, Note_off_c, 6, 66, 127
1, 45956, Note_on_c, 4, 76, 127
1, 45956, Note_on_c, 8, 44, 127
1, 46086, Note_off_c, 1, 73, 127
1, 46090, Note_off_c, 8, 44, 127
1, 46090, Note_off_c, 4, 76, 127
1, 46091, Note_on_c, 6, 66, 127
1, 46091, Note_on_c, 11, 46, 127
1, 46225, Note_off_c, 11, 46, 127
1, 46225, Note_off_c, 6, 66, 127
1, 46226, Note_on_c, 4, 76, 127
1, 46226, Note_on_c, 12, 47, 127
1, 46360, Note_off_c, 12, 47, 127
1, 46360, Note_off_c, 4, 76, 127
1, 46361, Note_on_c, 6, 66, 127
1, 46361, Note_on_c, 1, 49, 127
1, 46495, Note_off_c, 1, 49, 127
1, 46495, Note_off_c, 6, 66, 127
1, 46496, Note_on_c, 1, 73, 127
1, 46496, Note_on_c, 2, 50, 127
1, 46630, Note_off_c, 2, 50, 127
1, 46631, Note_on_c, 6, 66, 127
1, 46631, Note_on_c, 4, 52, 127
1, 46764, Note_off_c, 1, 73, 127
1, 46765, Note_off_c, 4, 52, 127
1, 46765, Note_off_c, 6, 66, 127
1, 46766, Note_on_c, 1, 73, 127
1, 46766, Note_on_c, 6, 54, 127
1, 46900, Note_off_c, 6, 54, 127
1, 46900, Note_off_c, 1, 73, 127
1, 46901, Note_on_c, 2, 74, 127
1, 46901, Note_on_c, 12, 47, 127
1, 47035, Note_off_c, 12, 47, 127
1, 47036, Note_on_c, 12, 71, 127
1, 47036, Note_on_c, 2, 50, 127
1, 47169, Note_off_c, 2, 74, 127
1, 47170, Note_off_c, 2, 50, 127
1, 47170, Note_off_c, 12, 71, 127
1, 47171, Note_on_c, 2, 74, 127
1, 47171, Note_on_c, 6, 54, 127
1, 47305, Note_off_c, 6, 54, 127
1, 47306, Note_on_c, 6, 78, 127
1, 47306, Note_on_c, 12, 59, 127
1, 47439, Note_off_c, 2, 74, 127
1, 47440, Note_off_c, 12, 59, 127
1, 47440, Note_off_c, 6, 78, 127
1, 47441, Note_on_c, 2, 74, 127
1, 47441, Note_on_c, 6, 54, 127
1, 47575, Note_off_c, 6, 54, 127
1, 47576, Note_on_c, 12, 71, 127
1, 47576, Note_on_c, 12, 59, 127
1, 47709, Note_off_c, 2, 74, 127
1, 47710, Note_off_c, 12, 59, 127
1, 47710, Note_off_c, 12, 71, 127
1, 47711, Note_on_c, 2, 74, 127
1, 47711, Note_on_c, 6, 54, 127
1, 47845, Note_off_c, 6, 54, 127
1, 47846, Note_on_c, 6, 78, 127
1, 47846, Note_on_c, 2, 50, 127
1, 47979, Note_off_c, 2, 74, 127
1, 47980, Note_off_c, 2, 50, 127
1, 47980, Note_off_c, 6, 78, 127
1, 47981, Note_on_c, 2, 74, 127
1, 47981, Note_on_c, 12, 47, 127
1, 48115, Note_off_c, 12, 47, 127
1, 48116, Note_on_c, 12, 71, 127
1, 48116, Note_on_c, 2, 50, 127
1, 48249, Note_off_c, 2, 74, 127
1, 48250, Note_off_c, 2, 50, 127
1, 48250, Note_off_c, 12, 71, 127
1, 48251, Note_on_c, 2, 74, 127
1, 48251, Note_on_c, 6, 54, 127
1, 48385, Note_off_c, 6, 54, 127
1, 48385, Note_off_c, 2, 74, 127
1, 48386, Note_on_c, 6, 78, 127
1, 48386, Note_on_c, 12, 59, 127
1, 48520, Note_off_c, 12, 59, 127
1, 48520, Note_off_c, 6, 78, 127
1, 48521, Note_on_c, 4, 76, 127
1, 48521, Note_on_c, 7, 55, 127
1, 48655, Note_off_c, 7, 55, 127
1, 48656, Note_on_c, 12, 71, 127
1, 48656, Note_on_c, 12, 59, 127
1, 48789, Note_off_c, 4, 76, 127
1, 48790, Note_off_c, 12, 59, 127
1, 48790, Note_off_c, 12, 71, 127
1, 48791, Note_on_c, 4, 76, 127
1, 48791, Note_on_c, 7, 55, 127
1, 48925, Note_off_c, 7, 55, 127
1, 48926, Note_on_c, 7, 79, 127
1, 48926, Note_on_c, 12, 59, 127
1, 49059, Note_off_c, 4, 76, 127
1, 49060, Note_off_c, 12, 59, 127
1, 49060, Note_off_c, 7, 79, 127
1, 49061, Note_on_c, 4, 76, 127
1, 49061, Note_on_c, 4, 52, 127
1, 49195, Note_off_c, 4, 52, 127
1, 49196, Note_on_c, 12, 71, 127
1, 49196, Note_on_c, 7, 55, 127
1, 49329, Note_off_c, 4, 76, 127
1, 49330, Note_off_c, 7, 55, 127
1, 49330, Note_off_c, 12, 71, 127
1, 49331, Note_on_c, 4, 76, 127
1, 49331, Note_on_c, 12, 59, 127
1, 49465, Note_off_c, 12, 59, 127
1, 49466, Note_on_c, 7, 79, 127
1, 49466, Note_on_c, 4, 64, 127
1, 49599, Note_off_c, 4, 76, 127
1, 49600, Note_off_c, 4, 64, 127
1, 49600, Note_off_c, 7, 79, 127
1, 49601, Note_on_c, 4, 76, 127
1, 49601, Note_on_c, 12, 59, 127
1, 49735, Note_off_c, 12, 59, 127
1, 49736, Note_on_c, 12, 71, 127
1, 49736, Note_on_c, 7, 55, 127
1, 49869, Note_off_c, 4, 76, 127
1, 49870, Note_off_c, 7, 55, 127
1, 49870, Note_off_c, 12, 71, 127
1, 49871, Note_on_c, 4, 76, 127
1, 49871, Note_on_c, 4, 52, 127
1, 50005, Note_off_c, 4, 52, 127
1, 50005, Note_off_c, 4, 76, 127
1, 50006, Note_on_c, 7, 79, 127
1, 50006, Note_on_c, 4, 64, 127
1, 50140, Note_off_c, 4, 64, 127
1, 50140, Note_off_c, 7, 79, 127
1, 50141, Note_on_c, 11, 70, 127
1, 50141, Note_on_c, 6, 54, 127
1, 50275, Note_off_c, 6, 54, 127
1, 50276, Note_on_c, 6, 66, 127
1, 50276, Note_on_c, 4, 64, 127
1, 50409, Note_off_c, 11, 70, 127
1, 50410, Note_off_c, 4, 64, 127
1, 50410, Note_off_c, 6, 66, 127
1, 50411, Note_on_c, 11, 70, 127
1, 50411, Note_on_c, 1, 61, 127
1, 50545, Note_off_c, 1, 61, 127
1, 50545, Note_off_c, 11, 70, 127
1, 50546, Note_on_c, 1, 73, 127
1, 50546, Note_on_c, 4, 64, 127
1, 50680, Note_off_c, 4, 64, 127
1, 50680, Note_off_c, 1, 73, 127
1, 50681, Note_on_c, 6, 78, 127
1, 50681, Note_on_c, 6, 54, 127
1, 50815, Note_off_c, 6, 54, 127
1, 50816, Note_on_c, 6, 66, 127
1, 50816, Note_on_c, 4, 64, 127
1, 50950, Note_off_c, 4, 64, 127
1, 50951, Note_on_c, 11, 70, 127
1, 50951, Note_on_c, 1, 61, 127
1, 51019, Note_off_c, 6, 66, 127
1, 51075, Note_off_c, 6, 78, 127
1, 51085, Note_off_c, 1, 61, 127
1, 51085, Note_off_c, 11, 70, 127
1, 51086, Note_on_c, 1, 73, 127
1, 51086, Note_on_c, 4, 64, 127
1, 51220, Note_off_c, 4, 64, 127
1, 51220, Note_off_c, 1, 73, 127
1, 51221, Note_on_c, 6, 78, 127
1, 51221, Note_on_c, 6, 54, 127
1, 51355, Note_off_c, 6, 54, 127
1, 51356, Note_on_c, 6, 66, 127
1, 51356, Note_on_c, 4, 64, 127
1, 51489, Note_off_c, 6, 78, 127
1, 51490, Note_off_c, 4, 64, 127
1, 51491, Note_on_c, 11, 70, 127
1, 51491, Note_on_c, 1, 61, 127
1, 51559, Note_off_c, 6, 66, 127
1, 51625, Note_off_c, 1, 61, 127
1, 51625, Note_off_c, 11, 70, 127
1, 51626, Note_on_c, 1, 73, 127
1, 51626, Note_on_c, 4, 64, 127
1, 51760, Note_off_c, 4, 64, 127
1, 51760, Note_off_c, 1, 73, 127
1, 51761, Note_on_c, 2, 74, 127
1, 51761, Note_on_c, 12, 59, 127
1, 51895, Note_off_c, 12, 59, 127
1, 51896, Note_on_c, 12, 71, 127
1, 51896, Note_on_c, 2, 62, 127
1, 52029, Note_off_c, 2, 74, 127
1, 52030, Note_off_c, 2, 62, 127
1, 52030, Note_off_c, 12, 71, 127
1, 52031, Note_on_c, 6, 66, 127
1, 52031, Note_on_c, 12, 59, 127
1, 52165, Note_off_c, 12, 59, 127
1, 52166, Note_on_c, 2, 74, 127
1, 52166, Note_on_c, 6, 54, 127
1, 52234, Note_off_c, 6, 66, 127
1, 52300, Note_off_c, 6, 54, 127
1, 52300, Note_off_c, 2, 74, 127
1, 52301, Note_on_c, 2, 74, 127
1, 52301, Note_on_c, 12, 59, 127
1, 52435, Note_off_c, 12, 59, 127
1, 52436, Note_on_c, 12, 71, 127
1, 52436, Note_on_c, 6, 54, 127
1, 52569, Note_off_c, 2, 74, 127
1, 52570, Note_off_c, 6, 54, 127
1, 52570, Note_off_c, 12, 71, 127
1, 52571, Note_on_c, 6, 66, 127
1, 52571, Note_on_c, 2, 50, 127
1, 52705, Note_off_c, 2, 50, 127
1, 52706, Note_on_c, 2, 74, 127
1, 52706, Note_on_c, 6, 54, 127
1, 52774, Note_off_c, 6, 66, 127
1, 52840, Note_off_c, 6, 54, 127
1, 52840, Note_off_c, 2, 74, 127
1, 52841, Note_on_c, 2, 74, 127
1, 52841, Note_on_c, 12, 47, 127
1, 52975, Note_off_c, 12, 47, 127
1, 52976, Note_on_c, 12, 71, 127
1, 52976, Note_on_c, 2, 50, 127
1, 53109, Note_off_c, 2, 74, 127
1, 53110, Note_off_c, 2, 50, 127
1, 53110, Note_off_c, 12, 71, 127
1, 53111, Note_on_c, 6, 66, 127
1, 53111, Note_on_c, 1, 49, 127
1, 53245, Note_off_c, 1, 49, 127
1, 53246, Note_on_c, 2, 74, 127
1, 53246, Note_on_c, 12, 47, 127
1, 53314, Note_off_c, 6, 66, 127
1, 53380, Note_off_c, 12, 47, 127
1, 53380, Note_off_c, 2, 74, 127
1, 53381, Note_on_c, 1, 73, 127
1, 53381, Note_on_c, 6, 54, 127
1, 53515, Note_off_c, 6, 54, 127
1, 53516, Note_on_c, 12, 71, 127
1, 53516, Note_on_c, 7, 55, 127
1, 53650, Note_off_c, 7, 55, 127
1, 53650, Note_off_c, 12, 71, 127
1, 53651, Note_on_c, 6, 66, 127
1, 53651, Note_on_c, 4, 52, 127
1, 53719, Note_off_c, 1, 73, 127
1, 53785, Note_off_c, 4, 52, 127
1, 53786, Note_on_c, 1, 73, 127
1, 53786, Note_on_c, 7, 55, 127
1, 53876, Note_off_c, 6, 66, 127
1, 53920, Note_off_c, 7, 55, 127
1, 53920, Note_off_c, 1, 73, 127
1, 53921, Note_on_c, 1, 73, 127
1, 53921, Note_on_c, 6, 54, 127
1, 54055, Note_off_c, 6, 54, 127
1, 54056, Note_on_c, 12, 71, 127
1, 54056, Note_on_c, 7, 55, 127
1, 54190, Note_off_c, 7, 55, 127
1, 54190, Note_off_c, 12, 71, 127
1, 54191, Note_on_c, 6, 66, 127
1, 54191, Note_on_c, 4, 52, 127
1, 54259, Note_off_c, 1, 73, 127
1, 54325, Note_off_c, 4, 52, 127
1, 54326, Note_on_c, 1, 73, 127
1, 54326, Note_on_c, 7, 55, 127
1, 54416, Note_off_c, 6, 66, 127
1, 54460, Note_off_c, 7, 55, 127
1, 54460, Note_off_c, 1, 73, 127
1, 54461, Note_on_c, 1, 73, 127
1, 54461, Note_on_c, 6, 54, 127
1, 54595, Note_off_c, 6, 54, 127
1, 54596, Note_on_c, 12, 71, 127
1, 54596, Note_on_c, 7, 55, 127
1, 54730, Note_off_c, 7, 55, 127
1, 54730, Note_off_c, 12, 71, 127
1, 54731, Note_on_c, 6, 66, 127
1, 54731, Note_on_c, 4, 52, 127
1, 54799, Note_off_c, 1, 73, 127
1, 54865, Note_off_c, 4, 52, 127
1, 54866, Note_on_c, 1, 73, 127
1, 54866, Note_on_c, 7, 55, 127
1, 54956, Note_off_c, 6, 66, 127
1, 55000, Note_off_c, 7, 55, 127
1, 55000, Note_off_c, 1, 73, 127
1, 55001, Note_on_c, 1, 73, 127
1, 55001, Note_on_c, 6, 54, 127
1, 55137, Note_off_c, 6, 54, 127
1, 55138, Note_on_c, 11, 70, 127
1, 55138, Note_on_c, 7, 55, 127
1, 55274, Note_off_c, 7, 55, 127
1, 55274, Note_off_c, 11, 70, 127
1, 55275, Note_on_c, 6, 66, 127
1, 55275, Note_on_c, 6, 54, 127
1, 55401, Note_off_c, 1, 73, 127
1, 55411, Note_off_c, 6, 54, 127
1, 55412, Note_on_c, 1, 73, 127
1, 55412, Note_on_c, 7, 55, 127
1, 55546, Note_off_c, 6, 66, 127
1, 55547, Note_off_c, 7, 55, 127
1, 55547, Note_off_c, 1, 73, 127
1, 55548, Note_on_c, 1, 73, 127
1, 55548, Note_on_c, 6, 54, 127
1, 55684, Note_off_c, 6, 54, 127
1, 55685, Note_on_c, 11, 70, 127
1, 55685, Note_on_c, 7, 55, 127
1, 55821, Note_off_c, 7, 55, 127
1, 55821, Note_off_c, 11, 70, 127
1, 55822, Note_on_c, 6, 66, 127
1, 55822, Note_on_c, 6, 54, 127
1, 55948, Note_off_c, 1, 73, 127
1, 55958, Note_off_c, 6, 54, 127
1, 55959, Note_on_c, 1, 73, 127
1, 55959, Note_on_c, 7, 55, 127
1, 56093, Note_off_c, 6, 66, 127
1, 56094, Note_off_c, 7, 55, 127
1, 56094, Note_off_c, 1, 73, 127
1, 56095, Note_on_c, 1, 73, 127
1, 56095, Note_on_c, 6, 54, 127
1, 56173, Note_off_c, 6, 54, 127
1, 56175, Note_on_c, 7, 55, 127
1, 56253, Note_off_c, 7, 55, 127
1, 56255, Note_on_c, 11, 70, 127
1, 56255, Note_on_c, 6, 54, 127
1, 56333, Note_off_c, 6, 54, 127
1, 56335, Note_on_c, 7, 55, 127
1, 56413, Note_off_c, 7, 55, 127
1, 56413, Note_off_c, 11, 70, 127
1, 56415, Note_on_c, 6, 66, 127
1, 56415, Note_on_c, 6, 54, 127
1, 56493, Note_off_c, 6, 54, 127
1, 56495, Note_on_c, 7, 55, 127
1, 56562, Note_off_c, 1, 73, 127
1, 56574, Note_off_c, 7, 55, 127
1, 56574, Note_off_c, 6, 66, 127
1, 56576, Note_on_c, 1, 73, 127
1, 56576, Note_on_c, 4, 52, 127
1, 56654, Note_off_c, 4, 52, 127
1, 56656, Note_on_c, 6, 54, 127
1, 56744, Note_off_c, 6, 54, 127
1, 56752, Note_on_c, 12, 71, 127
1, 56752, Note_on_c, 12, 47, 127
1, 56756, Note_off_c, 1, 73, 127
1, 57652, Note_off_c, 12, 47, 127
1, 57652, Note_off_c, 12, 71, 127
1, 57886, Note_on_c, 2, 62, 127
1, 57886, Note_on_c, 12, 71, 127
1, 57886, Note_on_c, 6, 66, 127
1, 57886, Note_on_c, 2, 50, 127
1, 57886, Note_on_c, 12, 47, 127
1, 57886, Note_on_c, 6, 54, 127
1, 57886, Note_on_c, 12, 59, 127
1, 57985, Note_off_c, 12, 59, 127
1, 57985, Note_off_c, 6, 54, 127
1, 57985, Note_off_c, 12, 47, 127
1, 57985, Note_off_c, 2, 50, 127
1, 57985, Note_off_c, 6, 66, 127
1, 57985, Note_off_c, 12, 71, 127
1, 57985, Note_off_c, 2, 62, 127
1, 57986, Note_on_c, 12, 71, 127
1, 57986, Note_on_c, 2, 62, 127
1, 57986, Note_on_c, 6, 66, 127
1, 57986, Note_on_c, 6, 54, 127
1, 57986, Note_on_c, 12, 59, 127
1, 57986, Note_on_c, 12, 47, 127
1, 57986, Note_on_c, 2, 50, 127
1, 59087, Note_off_c, 2, 50, 127
1, 59087, Note_off_c, 12, 47, 127
1, 59087, Note_off_c, 12, 59, 127
1, 59087, Note_off_c, 6, 54, 127
1, 59087, Note_off_c, 6, 66, 127
1, 59087, Note_off_c, 2, 62, 127
1, 59087, Note_off_c, 12, 71, 127
1, 59088, Note_on_c, 6, 66, 127
1, 59088, Note_on_c, 2, 62, 127
1, 59088, Note_on_c, 12, 59, 127
1, 59088, Note_on_c, 12, 47, 127
1, 59088, Note_on_c, 2, 50, 127
1, 59088, Note_on_c, 6, 54, 127
1, 59187, Note_off_c, 6, 54, 127
1, 59187, Note_off_c, 2, 50, 127
1, 59187, Note_off_c, 12, 47, 127
1, 59187, Note_off_c, 12, 59, 127
1, 59187, Note_off_c, 2, 62, 127
1, 59187, Note_off_c, 6, 66, 127
1, 59188, Note_on_c, 2, 62, 127
1, 59188, Note_on_c, 6, 66, 127
1, 59188, Note_on_c, 6, 54, 127
1, 59188, Note_on_c, 12, 59, 127
1, 59188, Note_on_c, 12, 47, 127
1, 59188, Note_on_c, 2, 50, 127
1, 60289, Note_off_c, 2, 50, 127
1, 60289, Note_off_c, 12, 47, 127
1, 60289, Note_off_c, 12, 59, 127
1, 60289, Note_off_c, 6, 54, 127
1, 60289, Note_off_c, 6, 66, 127
1, 60289, Note_off_c, 2, 62, 127
1, 60290, Note_on_c, 2, 62, 127
1, 60290, Note_on_c, 12, 59, 127
1, 60290, Note_on_c, 12, 47, 127
1, 60290, Note_on_c, 2, 50, 127
1, 60290, Note_on_c, 6, 54, 127
1, 60389, Note_off_c, 6, 54, 127
1, 60389, Note_off_c, 2, 50, 127
1, 60389, Note_off_c, 12, 47, 127
1, 60389, Note_off_c, 12, 59, 127
1, 60389, Note_off_c, 2, 62, 127
1, 60390, Note_on_c, 12, 59, 127
1, 60390, Note_on_c, 2, 62, 127
1, 60390, Note_on_c, 12, 47, 127
1, 60390, Note_on_c, 6, 54, 127
1, 60390, Note_on_c, 2, 50, 127
1, 61491, Note_off_c, 2, 50, 127
1, 61491, Note_off_c, 6, 54, 127
1, 61491, Note_off_c, 12, 47, 127
1, 61491, Note_off_c, 2, 62, 127
1, 61491, Note_off_c, 12, 59, 127
1, 61508, Note_on_c, 6, 54, 127
1, 61508, Note_on_c, 2, 50, 127
1, 61508, Note_on_c, 12, 47, 127
1, 61508, Note_on_c, 12, 59, 127
1, 61607, Note_off_c, 12, 59, 127
1, 61607, Note_off_c, 12, 47, 127
1, 61607, Note_off_c, 2, 50, 127
1, 61607, Note_off_c, 6, 54, 127
1, 61608, Note_on_c, 6, 54, 127
1, 61608, Note_on_c, 2, 50, 127
1, 61608, Note_on_c, 12, 47, 127
1, 61608, Note_on_c, 12, 59, 127
1, 61735, Note_off_c, 12, 47, 127
1, 61735, Note_off_c, 2, 50, 127
1, 61735, Note_off_c, 6, 54, 127
1, 61752, Note_on_c, 12, 47, 127
1, 61863, Note_off_c, 12, 59, 127
1, 61879, Note_off_c, 12, 47, 127
1, 61880, Note_on_c, 12, 59, 127
1, 61880, Note_on_c, 11, 46, 127
1, 62007, Note_off_c, 11, 46, 127
1, 62008, Note_on_c, 12, 47, 127
1, 62135, Note_off_c, 12, 47, 127
1, 62135, Note_off_c, 12, 59, 127
1, 62136, Note_on_c, 11, 58, 127
1, 62136, Note_on_c, 11, 46, 127
1, 62263, Note_off_c, 11, 46, 127
1, 62264, Note_on_c, 12, 47, 127
1, 62391, Note_off_c, 12, 47, 127
1, 62391, Note_off_c, 11, 58, 127
1, 62392, Note_on_c, 12, 59, 127
1, 62392, Note_on_c, 11, 46, 127
1, 62519, Note_off_c, 11, 46, 127
1, 62520, Note_on_c, 12, 47, 127
1, 62647, Note_off_c, 12, 47, 127
1, 62647, Note_off_c, 12, 59, 127
1, 62648, Note_on_c, 6, 54, 127
1, 62648, Note_on_c, 6, 42, 127
1, 62775, Note_off_c, 6, 42, 127
1, 62776, Note_on_c, 12, 47, 127
1, 62903, Note_off_c, 12, 47, 127
1, 62903, Note_off_c, 6, 54, 127
1, 62904, Note_on_c, 12, 59, 127
1, 62904, Note_on_c, 11, 46, 127
1, 63031, Note_off_c, 11, 46, 127
1, 63032, Note_on_c, 12, 47, 127
1, 63159, Note_off_c, 12, 47, 127
1, 63159, Note_off_c, 12, 59, 127
1, 63160, Note_on_c, 8, 56, 127
1, 63160, Note_on_c, 8, 44, 127
1, 63287, Note_off_c, 8, 44, 127
1, 63288, Note_on_c, 1, 49, 127
1, 63415, Note_off_c, 1, 49, 127
1, 63415, Note_off_c, 8, 56, 127
1, 63416, Note_on_c, 1, 61, 127
1, 63416, Note_on_c, 12, 47, 127
1, 63543, Note_off_c, 12, 47, 127
1, 63544, Note_on_c, 1, 49, 127
1, 63671, Note_off_c, 1, 49, 127
1, 63671, Note_off_c, 1, 61, 127
1, 63672, Note_on_c, 12, 59, 127
1, 63672, Note_on_c, 12, 47, 127
1, 63799, Note_off_c, 12, 47, 127
1, 63800, Note_on_c, 1, 49, 127
1, 63927, Note_off_c, 1, 49, 127
1, 63927, Note_off_c, 12, 59, 127
1, 63928, Note_on_c, 1, 61, 127
1, 63928, Note_on_c, 12, 47, 127
1, 64055, Note_off_c, 12, 47, 127
1, 64056, Note_on_c, 1, 49, 127
1, 64183, Note_off_c, 1, 49, 127
1, 64183, Note_off_c, 1, 61, 127
1, 64184, Note_on_c, 8, 56, 127
1, 64184, Note_on_c, 8, 44, 127
1, 64311, Note_off_c, 8, 44, 127
1, 64312, Note_on_c, 1, 49, 127
1, 64439, Note_off_c, 1, 49, 127
1, 64439, Note_off_c, 8, 56, 127
1, 64440, Note_on_c, 1, 61, 127
1, 64440, Note_on_c, 12, 47, 127
1, 64567, Note_off_c, 12, 47, 127
1, 64568, Note_on_c, 1, 49, 127
1, 64695, Note_off_c, 1, 49, 127
1, 64695, Note_off_c, 1, 61, 127
1, 64696, Note_on_c, 11, 58, 127
1, 64696, Note_on_c, 11, 46, 127
1, 64823, Note_off_c, 11, 46, 127
1, 64824, Note_on_c, 2, 50, 127
1, 64951, Note_off_c, 2, 50, 127
1, 64951, Note_off_c, 11, 58, 127
1, 64952, Note_on_c, 2, 62, 127
1, 64952, Note_on_c, 1, 49, 127
1, 65079, Note_off_c, 1, 49, 127
1, 65080, Note_on_c, 2, 50, 127
1, 65207, Note_off_c, 2, 50, 127
1, 65207, Note_off_c, 2, 62, 127
1, 65208, Note_on_c, 1, 61, 127
1, 65208, Note_on_c, 1, 49, 127
1, 65335, Note_off_c, 1, 49, 127
1, 65336, Note_on_c, 2, 50, 127
1, 65463, Note_off_c, 2, 50, 127
1, 65463, Note_off_c, 1, 61, 127
1, 65464, Note_on_c, 2, 62, 127
1, 65464, Note_on_c, 1, 49, 127
1, 65591, Note_off_c, 1, 49, 127
1, 65592, Note_on_c, 2, 50, 127
1, 65719, Note_off_c, 2, 50, 127
1, 65719, Note_off_c, 2, 62, 127
1, 65720, Note_on_c, 11, 58, 127
1, 65720, Note_on_c, 11, 46, 127
1, 65847, Note_off_c, 11, 46, 127
1, 65848, Note_on_c, 2, 50, 127
1, 65975, Note_off_c, 2, 50, 127
1, 65975, Note_off_c, 11, 58, 127
1, 65976, Note_on_c, 2, 62, 127
1, 65976, Note_on_c, 1, 49, 127
1, 66103, Note_off_c, 1, 49, 127
1, 66104, Note_on_c, 2, 50, 127
1, 66231, Note_off_c, 2, 50, 127
1, 66231, Note_off_c, 2, 62, 127
1, 66232, Note_on_c, 12, 59, 127
1, 66232, Note_on_c, 12, 47, 127
1, 66359, Note_off_c, 12, 47, 127
1, 66360, Note_on_c, 4, 52, 127
1, 66487, Note_off_c, 4, 52, 127
1, 66487, Note_off_c, 12, 59, 127
1, 66488, Note_on_c, 4, 64, 127
1, 66488, Note_on_c, 2, 50, 127
1, 66615, Note_off_c, 2, 50, 127
1, 66616, Note_on_c, 4, 52, 127
1, 66743, Note_off_c, 4, 52, 127
1, 66743, Note_off_c, 4, 64, 127
1, 66744, Note_on_c, 2, 62, 127
1, 66744, Note_on_c, 2, 50, 127
1, 66871, Note_off_c, 2, 50, 127
1, 66872, Note_on_c, 4, 52, 127
1, 66999, Note_off_c, 4, 52, 127
1, 66999, Note_off_c, 2, 62, 127
1, 67000, Note_on_c, 4, 64, 127
1, 67000, Note_on_c, 2, 50, 127
1, 67127, Note_off_c, 2, 50, 127
1, 67128, Note_on_c, 4, 52, 127
1, 67255, Note_off_c, 4, 52, 127
1, 67255, Note_off_c, 4, 64, 127
1, 67256, Note_on_c, 12, 59, 127
1, 67256, Note_on_c, 12, 47, 127
1, 67383, Note_off_c, 12, 47, 127
1, 67384, Note_on_c, 4, 52, 127
1, 67511, Note_off_c, 4, 52, 127
1, 67511, Note_off_c, 12, 59, 127
1, 67512, Note_on_c, 4, 64, 127
1, 67512, Note_on_c, 2, 50, 127
1, 67639, Note_off_c, 2, 50, 127
1, 67640, Note_on_c, 4, 52, 127
1, 67767, Note_off_c, 4, 52, 127
1, 67767, Note_off_c, 4, 64, 127
1, 67768, Note_on_c, 1, 61, 127
1, 67768, Note_on_c, 1, 49, 127
1, 67895, Note_off_c, 1, 49, 127
1, 67896, Note_on_c, 6, 54, 127
1, 68013, Note_off_c, 1, 61, 127
1, 68023, Note_off_c, 6, 54, 127
1, 68024, Note_on_c, 6, 66, 127
1, 68024, Note_on_c, 4, 52, 127
1, 68151, Note_off_c, 4, 52, 127
1, 68152, Note_on_c, 6, 54, 127
1, 68269, Note_off_c, 6, 66, 127
1, 68279, Note_off_c, 6, 54, 127
1, 68280, Note_on_c, 4, 64, 127
1, 68280, Note_on_c, 4, 52, 127
1, 68407, Note_off_c, 4, 52, 127
1, 68408, Note_on_c, 6, 54, 127
1, 68525, Note_off_c, 4, 64, 127
1, 68535, Note_off_c, 6, 54, 127
1, 68536, Note_on_c, 6, 66, 127
1, 68536, Note_on_c, 4, 52, 127
1, 68663, Note_off_c, 4, 52, 127
1, 68664, Note_on_c, 6, 54, 127
1, 68781, Note_off_c, 6, 66, 127
1, 68791, Note_off_c, 6, 54, 127
1, 68792, Note_on_c, 1, 61, 127
1, 68792, Note_on_c, 1, 49, 127
1, 68919, Note_off_c, 1, 49, 127
1, 68920, Note_on_c, 6, 54, 127
1, 69032, Note_off_c, 1, 61, 127
1, 69047, Note_off_c, 6, 54, 127
1, 69048, Note_on_c, 6, 66, 127
1, 69048, Note_on_c, 4, 52, 127
1, 69175, Note_off_c, 4, 52, 127
1, 69176, Note_on_c, 6, 54, 127
1, 69288, Note_off_c, 6, 66, 127
1, 69303, Note_off_c, 6, 54, 127
1, 69304, Note_on_c, 2, 62, 127
1, 69304, Note_on_c, 2, 50, 127
1, 69431, Note_off_c, 2, 50, 127
1, 69432, Note_on_c, 4, 52, 127
1, 69559, Note_off_c, 4, 52, 127
1, 69559, Note_off_c, 2, 62, 127
1, 69560, Note_on_c, 4, 64, 127
1, 69560, Note_on_c, 6, 54, 127
1, 69687, Note_off_c, 6, 54, 127
1, 69688, Note_on_c, 4, 52, 127
1, 69815, Note_off_c, 4, 52, 127
1, 69815, Note_off_c, 4, 64, 127
1, 69816, Note_on_c, 2, 62, 127
1, 69816, Note_on_c, 2, 50, 127
1, 69943, Note_off_c, 2, 50, 127
1, 69944, Note_on_c, 1, 49, 127
1, 70071, Note_off_c, 1, 49, 127
1, 70071, Note_off_c, 2, 62, 127
1, 70072, Note_on_c, 1, 61, 127
1, 70072, Note_on_c, 12, 47, 127
1, 70199, Note_off_c, 12, 47, 127
1, 70200, Note_on_c, 11, 46, 127
1, 70327, Note_off_c, 11, 46, 127
1, 70327, Note_off_c, 1, 61, 127
1, 70328, Note_on_c, 12, 59, 127
1, 70328, Note_on_c, 12, 47, 127
1, 70455, Note_off_c, 12, 47, 127
1, 70456, Note_on_c, 11, 46, 127
1, 70583, Note_off_c, 11, 46, 127
1, 70583, Note_off_c, 12, 59, 127
1, 70584, Note_on_c, 11, 58, 127
1, 70584, Note_on_c, 8, 44, 127
1, 70711, Note_off_c, 8, 44, 127
1, 70712, Note_on_c, 6, 42, 127
1, 70839, Note_off_c, 6, 42, 127
1, 70839, Note_off_c, 11, 58, 127
1, 70840, Note_on_c, 12, 59, 127
1, 70840, Note_on_c, 7, 43, 127
1, 70970, Note_off_c, 7, 43, 127
1, 70970, Note_off_c, 12, 59, 127
1, 70982, Note_on_c, 6, 54, 127
1, 70982, Note_on_c, 6, 42, 127
1, 71112, Note_off_c, 6, 42, 127
1, 71112, Note_off_c, 6, 54, 127
1, 71118, Note_on_c, 7, 43, 127
1, 71118, Note_on_c, 7, 55, 127
1, 71251, Note_off_c, 7, 55, 127
1, 71251, Note_off_c, 7, 43, 127
1, 71252, Note_on_c, 4, 40, 127
1, 71252, Note_on_c, 4, 52, 127
1, 71385, Note_off_c, 4, 52, 127
1, 71385, Note_off_c, 4, 40, 127
1, 71386, Note_on_c, 6, 42, 127
1, 71386, Note_on_c, 6, 54, 127
1, 71523, Note_off_c, 6, 54, 127
1, 71523, Note_off_c, 6, 42, 127
1, 71524, Note_on_c, 12, 47, 127
1, 71524, Note_on_c, 12, 59, 127
1, 71661, Note_off_c, 12, 59, 127
1, 71661, Note_off_c, 12, 47, 127
1, 71662, Note_on_c, 10, 45, 127
1, 71662, Note_on_c, 10, 57, 127
1, 71804, Note_off_c, 10, 57, 127
1, 71804, Note_off_c, 10, 45, 127
1, 71806, Note_on_c, 7, 43, 127
1, 71806, Note_on_c, 7, 55, 127
1, 71948, Note_off_c, 7, 55, 127
1, 71948, Note_off_c, 7, 43, 127
1, 71950, Note_on_c, 6, 42, 127
1, 71950, Note_on_c, 6, 54, 127
1, 72100, Note_off_c, 6, 54, 127
1, 72100, Note_off_c, 6, 42, 127
1, 72102, Note_on_c, 4, 40, 127
1, 72102, Note_on_c, 4, 52, 127
1, 72252, Note_off_c, 4, 52, 127
1, 72252, Note_off_c, 4, 40, 127
1, 72254, Note_on_c, 2, 38, 127
1, 72254, Note_on_c, 2, 50, 127
1, 72422, Note_off_c, 2, 50, 127
1, 72422, Note_off_c, 2, 38, 127
1, 72424, Note_on_c, 1, 37, 127
1, 72424, Note_on_c, 1, 49, 127
1, 72592, Note_off_c, 1, 49, 127
1, 72592, Note_off_c, 1, 37, 127
1, 72626, Note_on_c, 12, 35, 127
1, 72626, Note_on_c, 12, 47, 127
1, 74655, Note_off_c, 12, 47, 127
1, 74655, Note_off_c, 12, 35, 127
1, 76790, Note_on_c, 2, 74, 127
1, 77054, Note_on_c, 5, 53, 127
1, 77281, Note_off_c, 2, 74, 127
1, 77300, Note_on_c, 8, 56, 127
1, 77300, Note_on_c, 2, 74, 127
1, 77546, Note_on_c, 12, 59, 127
1, 77791, Note_off_c, 2, 74, 127
1, 77792, Note_on_c, 2, 62, 127
1, 77792, Note_on_c, 2, 74, 127
1, 78037, Note_off_c, 2, 62, 127
1, 78038, Note_on_c, 5, 65, 127
1, 78274, Note_off_c, 5, 53, 127
1, 78283, Note_off_c, 2, 74, 127
1, 78284, Note_on_c, 8, 68, 127
1, 78284, Note_on_c, 2, 74, 127
1, 78284, Note_on_c, 5, 53, 127
1, 78520, Note_off_c, 12, 59, 127
1, 78520, Note_off_c, 8, 56, 127
1, 78531, Note_on_c, 12, 71, 127
1, 78767, Note_off_c, 8, 68, 127
1, 78767, Note_off_c, 5, 65, 127
1, 78774, Note_off_c, 12, 71, 127
1, 78776, Note_off_c, 5, 53, 127
1, 78776, Note_off_c, 2, 74, 127
1, 78777, Note_on_c, 2, 74, 127
1, 78777, Note_on_c, 6, 54, 127
1, 79023, Note_on_c, 11, 70, 127
1, 79268, Note_off_c, 11, 70, 127
1, 79268, Note_off_c, 6, 54, 127
1, 79268, Note_off_c, 2, 74, 127
1, 79270, Note_on_c, 12, 71, 127
1, 79270, Note_on_c, 2, 74, 127
1, 79270, Note_on_c, 6, 54, 127
1, 79516, Note_on_c, 6, 66, 127
1, 79761, Note_off_c, 6, 54, 127
1, 79761, Note_off_c, 2, 74, 127
1, 79762, Note_on_c, 2, 74, 127
1, 79762, Note_on_c, 6, 54, 127
1, 80008, Note_on_c, 11, 58, 127
1, 80253, Note_off_c, 11, 58, 127
1, 80253, Note_off_c, 6, 54, 127
1, 80253, Note_off_c, 2, 74, 127
1, 80254, Note_on_c, 12, 59, 127
1, 80254, Note_on_c, 2, 74, 127
1, 80490, Note_off_c, 6, 66, 127
1, 80490, Note_off_c, 12, 71, 127
1, 80501, Note_on_c, 5, 53, 127
1, 80737, Note_off_c, 12, 59, 127
1, 80746, Note_off_c, 2, 74, 127
1, 80755, Note_off_c, 5, 53, 127
1, 80759, Note_on_c, 1, 73, 127
1, 80764, Note_on_c, 6, 54, 127
1, 81010, Note_on_c, 8, 56, 127
1, 81250, Note_off_c, 1, 73, 127
1, 81257, Note_on_c, 1, 73, 127
1, 81257, Note_on_c, 12, 59, 127
1, 81503, Note_on_c, 1, 61, 127
1, 81738, Note_off_c, 8, 56, 127
1, 81744, Note_off_c, 12, 59, 127
1, 81749, Note_off_c, 1, 73, 127
1, 81750, Note_on_c, 1, 73, 127
1, 81750, Note_on_c, 5, 65, 127
1, 81995, Note_off_c, 6, 54, 127
1, 81996, Note_on_c, 8, 68, 127
1, 82241, Note_off_c, 1, 73, 127
1, 82242, Note_on_c, 6, 54, 127
1, 82242, Note_on_c, 12, 71, 127
1, 82488, Note_on_c, 1, 73, 127
1, 82724, Note_off_c, 12, 71, 127
1, 82724, Note_off_c, 8, 68, 127
1, 82724, Note_off_c, 5, 65, 127
1, 82724, Note_off_c, 1, 61, 127
1, 82733, Note_off_c, 1, 73, 127
1, 82733, Note_off_c, 6, 54, 127
1, 82734, Note_on_c, 6, 66, 127
1, 82734, Note_on_c, 1, 61, 127
1, 82734, Note_on_c, 6, 54, 127
1, 82734, Note_on_c, 10, 69, 127
1, 82993, Note_on_c, 1, 73, 127
1, 83225, Note_off_c, 6, 54, 127
1, 83225, Note_off_c, 1, 61, 127
1, 83225, Note_off_c, 6, 66, 127
1, 83238, Note_off_c, 1, 73, 127
1, 83244, Note_on_c, 10, 81, 127
1, 83244, Note_on_c, 1, 61, 127
1, 83244, Note_on_c, 6, 54, 127
1, 83244, Note_on_c, 6, 66, 127
1, 83489, Note_off_c, 10, 81, 127
1, 83490, Note_on_c, 7, 79, 127
1, 83735, Note_off_c, 7, 79, 127
1, 83735, Note_off_c, 6, 66, 127
1, 83735, Note_off_c, 6, 54, 127
1, 83735, Note_off_c, 1, 61, 127
1, 83736, Note_on_c, 6, 78, 127
1, 83736, Note_on_c, 6, 54, 127
1, 83736, Note_on_c, 1, 61, 127
1, 83736, Note_on_c, 6, 66, 127
1, 83981, Note_off_c, 6, 78, 127
1, 83982, Note_on_c, 4, 76, 127
1, 84227, Note_off_c, 4, 76, 127
1, 84227, Note_off_c, 6, 66, 127
1, 84227, Note_off_c, 1, 61, 127
1, 84227, Note_off_c, 6, 54, 127
1, 84228, Note_on_c, 3, 75, 127
1, 84228, Note_on_c, 6, 54, 127
1, 84228, Note_on_c, 6, 66, 127
1, 84228, Note_on_c, 1, 61, 127
1, 84473, Note_off_c, 3, 75, 127
1, 84474, Note_on_c, 4, 76, 127
1, 84693, Note_off_c, 10, 69, 127
1, 84717, Note_off_c, 4, 76, 127
1, 84719, Note_off_c, 1, 61, 127
1, 84719, Note_off_c, 6, 66, 127
1, 84719, Note_off_c, 6, 54, 127
1, 84720, Note_on_c, 3, 75, 127
1, 84983, Note_on_c, 12, 47, 127
1, 85211, Note_off_c, 3, 75, 127
1, 85229, Note_on_c, 3, 75, 127
1, 85229, Note_on_c, 3, 51, 127
1, 85476, Note_on_c, 6, 54, 127
1, 85720, Note_off_c, 3, 75, 127
1, 85722, Note_on_c, 3, 75, 127
1, 85722, Note_on_c, 10, 57, 127
1, 85968, Note_on_c, 6, 66, 127
1, 86214, Note_on_c, 12, 71, 127
1, 86457, Note_off_c, 12, 47, 127
1, 86459, Note_off_c, 3, 75, 127
1, 86460, Note_on_c, 3, 75, 127
1, 86575, Note_off_c, 3, 51, 127
1, 86696, Note_off_c, 12, 71, 127
1, 86696, Note_off_c, 6, 66, 127
1, 86696, Note_off_c, 10, 57, 127
1, 86696, Note_off_c, 6, 54, 127
1, 86703, Note_off_c, 3, 75, 127
1, 86706, Note_on_c, 4, 76, 127
1, 86706, Note_on_c, 4, 52, 127
1, 86969, Note_on_c, 12, 71, 127
1, 87197, Note_off_c, 4, 52, 127
1, 87197, Note_off_c, 4, 76, 127
1, 87215, Note_on_c, 7, 67, 127
1, 87215, Note_on_c, 4, 52, 127
1, 87215, Note_on_c, 4, 76, 127
1, 87462, Note_on_c, 3, 63, 127
1, 87706, Note_off_c, 4, 76, 127
1, 87706, Note_off_c, 4, 52, 127
1, 87707, Note_off_c, 3, 63, 127
1, 87708, Note_on_c, 4, 64, 127
1, 87708, Note_on_c, 4, 76, 127
1, 87954, Note_on_c, 12, 59, 127
1, 88199, Note_off_c, 4, 76, 127
1, 88200, Note_on_c, 7, 55, 127
1, 88200, Note_on_c, 4, 76, 127
1, 88446, Note_on_c, 4, 52, 127
1, 88681, Note_off_c, 7, 67, 127
1, 88682, Note_off_c, 7, 55, 127
1, 88682, Note_off_c, 12, 59, 127
1, 88682, Note_off_c, 4, 64, 127
1, 88682, Note_off_c, 12, 71, 127
1, 88689, Note_off_c, 4, 52, 127
1, 88691, Note_off_c, 4, 76, 127
1, 88692, Note_on_c, 4, 76, 127
1, 88938, Note_on_c, 11, 46, 127
1, 89183, Note_off_c, 4, 76, 127
1, 89184, Note_on_c, 1, 49, 127
1, 89184, Note_on_c, 4, 76, 127
1, 89430, Note_on_c, 6, 54, 127
1, 89675, Note_off_c, 4, 76, 127
1, 89676, Note_on_c, 11, 58, 127
1, 89676, Note_on_c, 4, 76, 127
1, 89921, Note_off_c, 11, 46, 127
1, 89923, Note_on_c, 6, 66, 127
1, 90167, Note_off_c, 4, 76, 127
1, 90169, Note_on_c, 1, 73, 127
1, 90169, Note_on_c, 11, 46, 127
1, 90415, Note_on_c, 3, 75, 127
1, 90547, Note_off_c, 3, 75, 127
1, 90555, Note_on_c, 4, 76, 127
1, 90651, Note_off_c, 1, 73, 127
1, 90661, Note_off_c, 11, 58, 127
1, 90662, Note_off_c, 6, 54, 127
1, 90664, Note_off_c, 1, 49, 127
1, 90670, Note_off_c, 11, 46, 127
1, 90687, Note_off_c, 4, 76, 127
1, 90689, Note_on_c, 3, 75, 127
1, 90689, Note_on_c, 12, 47, 127
1, 90691, Note_off_c, 6, 66, 127
1, 90944, Note_on_c, 11, 70, 127
1, 91186, Note_off_c, 12, 47, 127
1, 91186, Note_off_c, 3, 75, 127
1, 91192, Note_off_c, 11, 70, 127
1, 91194, Note_on_c, 12, 71, 127
1, 91194, Note_on_c, 3, 75, 127
1, 91194, Note_on_c, 12, 47, 127
1, 91443, Note_on_c, 6, 66, 127
1, 91691, Note_off_c, 12, 47, 127
1, 91691, Note_off_c, 3, 75, 127
1, 91692, Note_on_c, 3, 75, 127
1, 91942, Note_on_c, 12, 47, 127
1, 92189, Note_off_c, 3, 75, 127
1, 92191, Note_on_c, 6, 54, 127
1, 92191, Note_on_c, 3, 75, 127
1, 92440, Note_on_c, 10, 57, 127
1, 92678, Note_off_c, 6, 66, 127
1, 92679, Note_off_c, 12, 71, 127
1, 92684, Note_off_c, 6, 54, 127
1, 92688, Note_off_c, 10, 57, 127
1, 92688, Note_off_c, 3, 75, 127
1, 92688, Note_off_c, 12, 47, 127
1, 92707, Note_on_c, 5, 41, 127
1, 92707, Note_on_c, 2, 74, 127
1, 92968, Note_off_c, 2, 74, 127
1, 92969, Note_on_c, 1, 73, 127
1, 93230, Note_off_c, 1, 73, 127
1, 93230, Note_off_c, 5, 41, 127
1, 93231, Note_on_c, 5, 41, 127
1, 93231, Note_on_c, 2, 74, 127
1, 93493, Note_on_c, 11, 70, 127
1, 93749, Note_off_c, 2, 74, 127
1, 93754, Note_off_c, 11, 70, 127
1, 93754, Note_off_c, 5, 41, 127
1, 93755, Note_on_c, 5, 41, 127
1, 93755, Note_on_c, 2, 74, 127
1, 93755, Note_on_c, 12, 71, 127
1, 94017, Note_on_c, 6, 66, 127
1, 94273, Note_off_c, 12, 71, 127
1, 94278, Note_off_c, 6, 66, 127
1, 94278, Note_off_c, 2, 74, 127
1, 94280, Note_on_c, 12, 71, 127
1, 94280, Note_on_c, 1, 73, 127
1, 94280, Note_on_c, 8, 68, 127
1, 94532, Note_off_c, 5, 41, 127
1, 94540, Note_off_c, 1, 73, 127
1, 94540, Note_off_c, 12, 71, 127
1, 94541, Note_on_c, 5, 41, 127
1, 94797, Note_off_c, 8, 68, 127
1, 94802, Note_off_c, 5, 41, 127
1, 94803, Note_on_c, 1, 73, 127
1, 94803, Note_on_c, 6, 42, 127
1, 95077, Note_on_c, 12, 71, 127
1, 95349, Note_off_c, 12, 71, 127
1, 95349, Note_off_c, 6, 42, 127
1, 95349, Note_off_c, 1, 73, 127
1, 95351, Note_on_c, 1, 73, 127
1, 95351, Note_on_c, 6, 42, 127
1, 95351, Note_on_c, 11, 70, 127
1, 95623, Note_off_c, 11, 70, 127
1, 95625, Note_on_c, 8, 68, 127
1, 95894, Note_off_c, 6, 42, 127
1, 95897, Note_off_c, 8, 68, 127
1, 95897, Note_off_c, 1, 73, 127
1, 95898, Note_on_c, 6, 42, 127
1, 95898, Note_on_c, 1, 73, 127
1, 95898, Note_on_c, 11, 70, 127
1, 96188, Note_on_c, 5, 65, 127
1, 96453, Note_off_c, 11, 70, 127
1, 96453, Note_off_c, 1, 73, 127
1, 96465, Note_off_c, 6, 42, 127
1, 96478, Note_on_c, 6, 42, 127
1, 96478, Note_on_c, 1, 73, 127
1, 96478, Note_on_c, 6, 66, 127
1, 96478, Note_on_c, 11, 70, 127
1, 96486, Note_off_c, 5, 65, 127
1, 96811, Note_on_c, 5, 53, 127
1, 97148, Note_off_c, 5, 53, 127
1, 97158, Note_off_c, 11, 70, 127
1, 97158, Note_off_c, 6, 66, 127
1, 97158, Note_off_c, 1, 73, 127
1, 97170, Note_off_c, 6, 42, 127
1, 97178, Note_on_c, 1, 73, 127
1, 97178, Note_on_c, 6, 54, 127
1, 97178, Note_on_c, 6, 42, 127
1, 97178, Note_on_c, 6, 66, 127
1, 97178, Note_on_c, 11, 70, 127
1, 99778, Note_off_c, 1, 73, 127
1, 99878, Note_off_c, 11, 70, 127
1, 99978, Note_off_c, 6, 66, 127
1, 99978, Note_off_c, 6, 42, 127
1, 100078, Note_off_c, 6, 54, 127
1, 101541, Note_on_c, 12, 71, 127
1, 101827, Note_off_c, 12, 71, 127
1, 101829, Note_on_c, 10, 69, 127
1, 101971, Note_off_c, 10, 69, 127
1, 101973, Note_on_c, 7, 67, 127
1, 102115, Note_off_c, 7, 67, 127
1, 102117, Note_on_c, 6, 66, 127
1, 102259, Note_off_c, 6, 66, 127
1, 102261, Note_on_c, 4, 64, 127
1, 102403, Note_off_c, 4, 64, 127
1, 102405, Note_on_c, 2, 62, 127
1, 102547, Note_off_c, 2, 62, 127
1, 102549, Note_on_c, 1, 61, 127
1, 102691, Note_off_c, 1, 61, 127
1, 102693, Note_on_c, 12, 59, 127
1, 102835, Note_off_c, 12, 59, 127
1, 102837, Note_on_c, 1, 61, 127
1, 102979, Note_off_c, 1, 61, 127
1, 102981, Note_on_c, 2, 62, 127
1, 103123, Note_off_c, 2, 62, 127
1, 103125, Note_on_c, 4, 64, 127
1, 103267, Note_off_c, 4, 64, 127
1, 103269, Note_on_c, 6, 66, 127
1, 103411, Note_off_c, 6, 66, 127
1, 103413, Note_on_c, 8, 68, 127
1, 103555, Note_off_c, 8, 68, 127
1, 103557, Note_on_c, 11, 70, 127
1, 103699, Note_off_c, 11, 70, 127
1, 103701, Note_on_c, 12, 71, 127
1, 103843, Note_off_c, 12, 71, 127
1, 103845, Note_on_c, 11, 70, 127
1, 103987, Note_off_c, 11, 70, 127
1, 103989, Note_on_c, 12, 71, 127
1, 104131, Note_off_c, 12, 71, 127
1, 104133, Note_on_c, 1, 73, 127
1, 104275, Note_off_c, 1, 73, 127
1, 104277, Note_on_c, 11, 70, 127
1, 104419, Note_off_c, 11, 70, 127
1, 104421, Note_on_c, 6, 66, 127
1, 104563, Note_off_c, 6, 66, 127
1, 104565, Note_on_c, 8, 68, 127
1, 104707, Note_off_c, 8, 68, 127
1, 104709, Note_on_c, 11, 70, 127
1, 104851, Note_off_c, 11, 70, 127
1, 104853, Note_on_c, 12, 71, 127
1, 104995, Note_off_c, 12, 71, 127
1, 104997, Note_on_c, 1, 73, 127
1, 105141, Note_on_c, 6, 66, 127
1, 105162, Note_off_c, 1, 73, 127
1, 105284, Note_off_c, 6, 66, 127
1, 105286, Note_on_c, 11, 70, 127
1, 105428, Note_off_c, 11, 70, 127
1, 105430, Note_on_c, 1, 73, 127
1, 105572, Note_off_c, 1, 73, 127
1, 105574, Note_on_c, 4, 76, 127
1, 105716, Note_off_c, 4, 76, 127
1, 105718, Note_on_c, 7, 79, 127
1, 105860, Note_off_c, 7, 79, 127
1, 105862, Note_on_c, 6, 78, 127
1, 106004, Note_off_c, 6, 78, 127
1, 106006, Note_on_c, 4, 76, 127
1, 106148, Note_off_c, 4, 76, 127
1, 106150, Note_on_c, 2, 74, 127
1, 106294, Note_on_c, 12, 71, 127
1, 106315, Note_off_c, 2, 74, 127
1, 106437, Note_off_c, 12, 71, 127
1, 106439, Note_on_c, 2, 74, 127
1, 106581, Note_off_c, 2, 74, 127
1, 106583, Note_on_c, 6, 78, 127
1, 106725, Note_off_c, 6, 78, 127
1, 106727, Note_on_c, 7, 79, 127
1, 106871, Note_on_c, 2, 74, 127
1, 106892, Note_off_c, 7, 79, 127
1, 107014, Note_off_c, 2, 74, 127
1, 107016, Note_on_c, 1, 73, 127
1, 107158, Note_off_c, 1, 73, 127
1, 107160, Note_on_c, 12, 71, 127
1, 107302, Note_off_c, 12, 71, 127
1, 107304, Note_on_c, 11, 70, 127
1, 107448, Note_on_c, 6, 66, 127
1, 107469, Note_off_c, 11, 70, 127
1, 107591, Note_off_c, 6, 66, 127
1, 107593, Note_on_c, 4, 64, 127
1, 107735, Note_off_c, 4, 64, 127
1, 107737, Note_on_c, 11, 70, 127
1, 107879, Note_off_c, 11, 70, 127
1, 107881, Note_on_c, 12, 71, 127
1, 108025, Note_on_c, 2, 62, 127
1, 108046, Note_off_c, 12, 71, 127
1, 108168, Note_off_c, 2, 62, 127
1, 108170, Note_on_c, 1, 61, 127
1, 108312, Note_off_c, 1, 61, 127
1, 108314, Note_on_c, 12, 59, 127
1, 108456, Note_off_c, 12, 59, 127
1, 108458, Note_on_c, 6, 54, 127
1, 108602, Note_on_c, 1, 61, 127
1, 108623, Note_off_c, 6, 54, 127
1, 108745, Note_off_c, 1, 61, 127
1, 108747, Note_on_c, 12, 71, 127
1, 108889, Note_off_c, 12, 71, 127
1, 108891, Note_on_c, 1, 73, 127
1, 109033, Note_off_c, 1, 73, 127
1, 109035, Note_on_c, 11, 70, 127
1, 109179, Note_on_c, 1, 73, 127
1, 109200, Note_off_c, 11, 70, 127
1, 109322, Note_off_c, 1, 73, 127
1, 109324, Note_on_c, 6, 66, 127
1, 109474, Note_on_c, 11, 70, 127
1, 109489, Note_off_c, 6, 66, 127
1, 109607, Note_off_c, 11, 70, 127
1, 109627, Note_on_c, 12, 59, 127
1, 109769, Note_off_c, 12, 59, 127
1, 109771, Note_on_c, 1, 61, 127
1, 109913, Note_off_c, 1, 61, 127
1, 109915, Note_on_c, 2, 62, 127
1, 110057, Note_off_c, 2, 62, 127
1, 110059, Note_on_c, 4, 64, 127
1, 110201, Note_off_c, 4, 64, 127
1, 110203, Note_on_c, 6, 66, 127
1, 110345, Note_off_c, 6, 66, 127
1, 110347, Note_on_c, 8, 68, 127
1, 110489, Note_off_c, 8, 68, 127
1, 110491, Note_on_c, 11, 70, 127
1, 110633, Note_off_c, 11, 70, 127
1, 110635, Note_on_c, 6, 66, 127
1, 110777, Note_off_c, 6, 66, 127
1, 110779, Note_on_c, 12, 71, 127
1, 110923, Note_on_c, 12, 59, 127
1, 110993, Note_off_c, 12, 59, 127
1, 110995, Note_on_c, 1, 61, 127
1, 111065, Note_off_c, 1, 61, 127
1, 111067, Note_on_c, 2, 62, 127
1, 111199, Note_off_c, 12, 71, 127
1, 111209, Note_off_c, 2, 62, 127
1, 111211, Note_on_c, 4, 64, 127
1, 111353, Note_off_c, 4, 64, 127
1, 111355, Note_on_c, 6, 66, 127
1, 111355, Note_on_c, 11, 70, 127
1, 111497, Note_off_c, 11, 70, 127
1, 111497, Note_off_c, 6, 66, 127
1, 111499, Note_on_c, 8, 68, 127
1, 111499, Note_on_c, 12, 71, 127
1, 111641, Note_off_c, 12, 71, 127
1, 111641, Note_off_c, 8, 68, 127
1, 111643, Note_on_c, 11, 70, 127
1, 111643, Note_on_c, 1, 73, 127
1, 111785, Note_off_c, 1, 73, 127
1, 111785, Note_off_c, 11, 70, 127
1, 111787, Note_on_c, 6, 66, 127
1, 111787, Note_on_c, 11, 70, 127
1, 111929, Note_off_c, 11, 70, 127
1, 111929, Note_off_c, 6, 66, 127
1, 111931, Note_on_c, 12, 71, 127
1, 111931, Note_on_c, 2, 74, 127
1, 112075, Note_on_c, 12, 59, 127
1, 112145, Note_off_c, 12, 59, 127
1, 112147, Note_on_c, 1, 61, 127
1, 112217, Note_off_c, 1, 61, 127
1, 112219, Note_on_c, 2, 62, 127
1, 112361, Note_off_c, 2, 62, 127
1, 112363, Note_on_c, 4, 64, 127
1, 112505, Note_off_c, 4, 64, 127
1, 112505, Note_off_c, 2, 74, 127
1, 112505, Note_off_c, 12, 71, 127
1, 112507, Note_on_c, 6, 66, 127
1, 112507, Note_on_c, 1, 73, 127
1, 112507, Note_on_c, 11, 70, 127
1, 112649, Note_off_c, 11, 70, 127
1, 112649, Note_off_c, 1, 73, 127
1, 112649, Note_off_c, 6, 66, 127
1, 112651, Note_on_c, 8, 68, 127
1, 112651, Note_on_c, 12, 71, 127
1, 112793, Note_off_c, 12, 71, 127
1, 112793, Note_off_c, 8, 68, 127
1, 112795, Note_on_c, 11, 70, 127
1, 112795, Note_on_c, 1, 73, 127
1, 112937, Note_off_c, 1, 73, 127
1, 112937, Note_off_c, 11, 70, 127
1, 112939, Note_on_c, 6, 66, 127
1, 112939, Note_on_c, 11, 70, 127
1, 113081, Note_off_c, 11, 70, 127
1, 113081, Note_off_c, 6, 66, 127
1, 113083, Note_on_c, 12, 71, 127
1, 113083, Note_on_c, 2, 74, 127
1, 113227, Note_on_c, 12, 47, 127
1, 113297, Note_off_c, 12, 47, 127
1, 113299, Note_on_c, 1, 49, 127
1, 113369, Note_off_c, 1, 49, 127
1, 113369, Note_off_c, 2, 74, 127
1, 113371, Note_on_c, 2, 50, 127
1, 113371, Note_on_c, 6, 78, 127
1, 113513, Note_off_c, 2, 50, 127
1, 113515, Note_on_c, 4, 52, 127
1, 113653, Note_off_c, 12, 71, 127
1, 113657, Note_off_c, 4, 52, 127
1, 113659, Note_on_c, 6, 54, 127
1, 113659, Note_on_c, 11, 70, 127
1, 113659, Note_on_c, 1, 73, 127
1, 113801, Note_off_c, 6, 54, 127
1, 113803, Note_on_c, 8, 56, 127
1, 113941, Note_off_c, 6, 78, 127
1, 113945, Note_off_c, 8, 56, 127
1, 113947, Note_on_c, 11, 58, 127
1, 113947, Note_on_c, 4, 76, 127
1, 114089, Note_off_c, 11, 58, 127
1, 114091, Note_on_c, 6, 54, 127
1, 114229, Note_off_c, 1, 73, 127
1, 114229, Note_off_c, 11, 70, 127
1, 114233, Note_off_c, 6, 54, 127
1, 114233, Note_off_c, 4, 76, 127
1, 114235, Note_on_c, 12, 59, 127
1, 114235, Note_on_c, 12, 71, 127
1, 114235, Note_on_c, 2, 74, 127
1, 114377, Note_off_c, 12, 71, 127
1, 114379, Note_on_c, 12, 71, 127
1, 114449, Note_off_c, 12, 71, 127
1, 114451, Note_off_c, 2, 74, 127
1, 114451, Note_on_c, 1, 73, 127
1, 114521, Note_off_c, 1, 73, 127
1, 114521, Note_off_c, 12, 59, 127
1, 114523, Note_on_c, 12, 47, 127
1, 114523, Note_on_c, 2, 74, 127
1, 114665, Note_off_c, 2, 74, 127
1, 114667, Note_on_c, 4, 76, 127
1, 114737, Note_off_c, 4, 76, 127
1, 114739, Note_on_c, 6, 78, 127
1, 114809, Note_off_c, 6, 78, 127
1, 114811, Note_on_c, 7, 79, 127
1, 114943, Note_off_c, 12, 47, 127
1, 114955, Note_on_c, 6, 78, 127
1, 115097, Note_off_c, 6, 78, 127
1, 115099, Note_on_c, 12, 59, 127
1, 115099, Note_on_c, 4, 76, 127
1, 115241, Note_off_c, 4, 76, 127
1, 115243, Note_on_c, 2, 74, 127
1, 115385, Note_off_c, 2, 74, 127
1, 115385, Note_off_c, 12, 59, 127
1, 115387, Note_on_c, 11, 58, 127
1, 115387, Note_on_c, 1, 73, 127
1, 115529, Note_off_c, 1, 73, 127
1, 115531, Note_on_c, 4, 76, 127
1, 115673, Note_off_c, 4, 76, 127
1, 115673, Note_off_c, 11, 58, 127
1, 115675, Note_on_c, 11, 46, 127
1, 115675, Note_on_c, 2, 74, 127
1, 115817, Note_off_c, 2, 74, 127
1, 115819, Note_on_c, 1, 73, 127
1, 115960, Note_off_c, 11, 46, 127
1, 115962, Note_off_c, 1, 73, 127
1, 115962, Note_off_c, 7, 79, 127
1, 115964, Note_on_c, 6, 78, 127
1, 116108, Note_on_c, 4, 76, 127
1, 116250, Note_off_c, 4, 76, 127
1, 116252, Note_on_c, 10, 57, 127
1, 116252, Note_on_c, 2, 74, 127
1, 116394, Note_off_c, 2, 74, 127
1, 116396, Note_on_c, 1, 73, 127
1, 116538, Note_off_c, 1, 73, 127
1, 116538, Note_off_c, 10, 57, 127
1, 116540, Note_on_c, 8, 56, 127
1, 116540, Note_on_c, 12, 71, 127
1, 116682, Note_off_c, 12, 71, 127
1, 116684, Note_on_c, 2, 74, 127
1, 116826, Note_off_c, 2, 74, 127
1, 116826, Note_off_c, 8, 56, 127
1, 116828, Note_on_c, 8, 44, 127
1, 116828, Note_on_c, 1, 73, 127
1, 116970, Note_off_c, 1, 73, 127
1, 116972, Note_on_c, 12, 71, 127
1, 117113, Note_off_c, 8, 44, 127
1, 117115, Note_off_c, 12, 71, 127
1, 117115, Note_off_c, 6, 78, 127
1, 117117, Note_on_c, 4, 76, 127
1, 117261, Note_on_c, 2, 74, 127
1, 117403, Note_off_c, 2, 74, 127
1, 117405, Note_on_c, 7, 55, 127
1, 117405, Note_on_c, 1, 73, 127
1, 117547, Note_off_c, 1, 73, 127
1, 117549, Note_on_c, 12, 71, 127
1, 117691, Note_off_c, 12, 71, 127
1, 117691, Note_off_c, 7, 55, 127
1, 117693, Note_on_c, 6, 54, 127
1, 117693, Note_on_c, 11, 70, 127
1, 117835, Note_off_c, 11, 70, 127
1, 117837, Note_on_c, 1, 73, 127
1, 117979, Note_off_c, 1, 73, 127
1, 117979, Note_off_c, 6, 54, 127
1, 117981, Note_on_c, 6, 42, 127
1, 117981, Note_on_c, 12, 71, 127
1, 118123, Note_off_c, 12, 71, 127
1, 118125, Note_on_c, 11, 70, 127
1, 118267, Note_off_c, 11, 70, 127
1, 118267, Note_off_c, 6, 42, 127
1, 118267, Note_off_c, 4, 76, 127
1, 118269, Note_on_c, 12, 59, 127
1, 118269, Note_on_c, 2, 74, 127
1, 118413, Note_on_c, 6, 66, 127
1, 118555, Note_off_c, 6, 66, 127
1, 118555, Note_off_c, 12, 59, 127
1, 118557, Note_on_c, 12, 47, 127
1, 118557, Note_on_c, 12, 71, 127
1, 118689, Note_off_c, 2, 74, 127
1, 118701, Note_on_c, 2, 74, 127
1, 118843, Note_off_c, 2, 74, 127
1, 118843, Note_off_c, 12, 47, 127
1, 118845, Note_on_c, 4, 64, 127
1, 118845, Note_on_c, 1, 73, 127
1, 118887, Note_off_c, 12, 71, 127
1, 118989, Note_on_c, 12, 71, 127
1, 119131, Note_off_c, 12, 71, 127
1, 119131, Note_off_c, 4, 64, 127
1, 119133, Note_on_c, 4, 52, 127
1, 119133, Note_on_c, 11, 70, 127
1, 119275, Note_off_c, 11, 70, 127
1, 119277, Note_on_c, 8, 68, 127
1, 119419, Note_off_c, 8, 68, 127
1, 119419, Note_off_c, 4, 52, 127
1, 119421, Note_on_c, 6, 66, 127
1, 119421, Note_on_c, 11, 70, 127
1, 119563, Note_off_c, 6, 66, 127
1, 119565, Note_off_c, 1, 73, 127
1, 119565, Note_on_c, 6, 54, 127
1, 119565, Note_on_c, 4, 76, 127
1, 119707, Note_off_c, 4, 76, 127
1, 119707, Note_off_c, 6, 54, 127
1, 119709, Note_on_c, 8, 56, 127
1, 119709, Note_on_c, 2, 74, 127
1, 119841, Note_off_c, 11, 70, 127
1, 119851, Note_off_c, 2, 74, 127
1, 119851, Note_off_c, 8, 56, 127
1, 119853, Note_on_c, 11, 58, 127
1, 119853, Note_on_c, 1, 73, 127
1, 119995, Note_off_c, 1, 73, 127
1, 119995, Note_off_c, 11, 58, 127
1, 119997, Note_on_c, 12, 59, 127
1, 119997, Note_on_c, 2, 74, 127
1, 120141, Note_on_c, 12, 71, 127
1, 120259, Note_off_c, 2, 74, 127
1, 120283, Note_off_c, 12, 59, 127
1, 120285, Note_on_c, 12, 47, 127
1, 120285, Note_on_c, 2, 74, 127
1, 120321, Note_off_c, 12, 71, 127
1, 120429, Note_on_c, 6, 78, 127
1, 120465, Note_off_c, 2, 74, 127
1, 120571, Note_off_c, 12, 47, 127
1, 120573, Note_on_c, 2, 50, 127
1, 120573, Note_on_c, 2, 74, 127
1, 120609, Note_off_c, 6, 78, 127
1, 120717, Note_on_c, 12, 71, 127
1, 120835, Note_off_c, 2, 74, 127
1, 120859, Note_off_c, 2, 50, 127
1, 120861, Note_on_c, 6, 54, 127
1, 120861, Note_on_c, 2, 74, 127
1, 120897, Note_off_c, 12, 71, 127
1, 121005, Note_on_c, 6, 78, 127
1, 121041, Note_off_c, 2, 74, 127
1, 121147, Note_off_c, 6, 54, 127
1, 121149, Note_on_c, 12, 59, 127
1, 121149, Note_on_c, 2, 74, 127
1, 121185, Note_off_c, 6, 78, 127
1, 121293, Note_on_c, 12, 71, 127
1, 121411, Note_off_c, 2, 74, 127
1, 121435, Note_off_c, 12, 59, 127
1, 121437, Note_on_c, 12, 47, 127
1, 121437, Note_on_c, 2, 74, 127
1, 121473, Note_off_c, 12, 71, 127
1, 121581, Note_on_c, 6, 78, 127
1, 121617, Note_off_c, 2, 74, 127
1, 121722, Note_off_c, 12, 47, 127
1, 121725, Note_on_c, 2, 74, 127
1, 121761, Note_off_c, 6, 78, 127
1, 121869, Note_on_c, 12, 59, 127
1, 121869, Note_on_c, 12, 71, 127
1, 121920, Note_off_c, 2, 74, 127
1, 122012, Note_off_c, 12, 59, 127
1, 122014, Note_on_c, 1, 61, 127
1, 122014, Note_on_c, 2, 74, 127
1, 122050, Note_off_c, 12, 71, 127
1, 122156, Note_off_c, 1, 61, 127
1, 122158, Note_on_c, 2, 62, 127
1, 122158, Note_on_c, 6, 78, 127
1, 122194, Note_off_c, 2, 74, 127
1, 122300, Note_off_c, 2, 62, 127
1, 122302, Note_on_c, 4, 64, 127
1, 122302, Note_on_c, 7, 79, 127
1, 122338, Note_off_c, 6, 78, 127
1, 122446, Note_on_c, 2, 74, 127
1, 122564, Note_off_c, 7, 79, 127
1, 122588, Note_off_c, 4, 64, 127
1, 122590, Note_on_c, 4, 52, 127
1, 122590, Note_on_c, 12, 71, 127
1, 122626, Note_off_c, 2, 74, 127
1, 122734, Note_on_c, 7, 79, 127
1, 122770, Note_off_c, 12, 71, 127
1, 122875, Note_off_c, 7, 79, 127
1, 122877, Note_off_c, 4, 52, 127
1, 122879, Note_on_c, 7, 55, 127
1, 122879, Note_on_c, 7, 79, 127
1, 123023, Note_on_c, 2, 74, 127
1, 123141, Note_off_c, 7, 79, 127
1, 123165, Note_off_c, 7, 55, 127
1, 123167, Note_on_c, 12, 59, 127
1, 123167, Note_on_c, 12, 71, 127
1, 123203, Note_off_c, 2, 74, 127
1, 123311, Note_on_c, 7, 79, 127
1, 123347, Note_off_c, 12, 71, 127
1, 123452, Note_off_c, 7, 79, 127
1, 123454, Note_off_c, 12, 59, 127
1, 123456, Note_on_c, 4, 64, 127
1, 123456, Note_on_c, 7, 79, 127
1, 123600, Note_on_c, 2, 74, 127
1, 123718, Note_off_c, 7, 79, 127
1, 123742, Note_off_c, 4, 64, 127
1, 123744, Note_on_c, 4, 52, 127
1, 123744, Note_on_c, 12, 71, 127
1, 123780, Note_off_c, 2, 74, 127
1, 123888, Note_on_c, 7, 79, 127
1, 123924, Note_off_c, 12, 71, 127
1, 124029, Note_off_c, 7, 79, 127
1, 124029, Note_off_c, 4, 52, 127
1, 124032, Note_on_c, 7, 79, 127
1, 124176, Note_on_c, 4, 52, 127
1, 124176, Note_on_c, 2, 74, 127
1, 124294, Note_off_c, 7, 79, 127
1, 124318, Note_off_c, 4, 52, 127
1, 124320, Note_on_c, 6, 54, 127
1, 124320, Note_on_c, 12, 71, 127
1, 124356, Note_off_c, 2, 74, 127
1, 124462, Note_off_c, 6, 54, 127
1, 124464, Note_on_c, 7, 55, 127
1, 124464, Note_on_c, 7, 79, 127
1, 124500, Note_off_c, 12, 71, 127
1, 124605, Note_off_c, 7, 79, 127
1, 124607, Note_off_c, 7, 55, 127
1, 124609, Note_on_c, 10, 57, 127
1, 124609, Note_on_c, 7, 79, 127
1, 124753, Note_on_c, 1, 73, 127
1, 124871, Note_off_c, 7, 79, 127
1, 124895, Note_off_c, 10, 57, 127
1, 124897, Note_on_c, 10, 45, 127
1, 124897, Note_on_c, 10, 69, 127
1, 124933, Note_off_c, 1, 73, 127
1, 125041, Note_on_c, 7, 79, 127
1, 125077, Note_off_c, 10, 69, 127
1, 125182, Note_off_c, 7, 79, 127
1, 125184, Note_off_c, 10, 45, 127
1, 125186, Note_on_c, 1, 49, 127
1, 125186, Note_on_c, 7, 79, 127
1, 125330, Note_on_c, 1, 73, 127
1, 125448, Note_off_c, 7, 79, 127
1, 125472, Note_off_c, 1, 49, 127
1, 125474, Note_on_c, 4, 52, 127
1, 125474, Note_on_c, 10, 69, 127
1, 125510, Note_off_c, 1, 73, 127
1, 125618, Note_on_c, 7, 79, 127
1, 125654, Note_off_c, 10, 69, 127
1, 125759, Note_off_c, 7, 79, 127
1, 125761, Note_off_c, 4, 52, 127
1, 125763, Note_on_c, 10, 57, 127
1, 125763, Note_on_c, 7, 79, 127
1, 125907, Note_on_c, 1, 73, 127
1, 126025, Note_off_c, 7, 79, 127
1, 126049, Note_off_c, 10, 57, 127
1, 126051, Note_on_c, 10, 45, 127
1, 126051, Note_on_c, 10, 69, 127
1, 126087, Note_off_c, 1, 73, 127
1, 126195, Note_on_c, 7, 79, 127
1, 126231, Note_off_c, 10, 69, 127
1, 126336, Note_off_c, 7, 79, 127
1, 126336, Note_off_c, 10, 45, 127
1, 126339, Note_on_c, 7, 79, 127
1, 126483, Note_on_c, 10, 57, 127
1, 126483, Note_on_c, 1, 73, 127
1, 126534, Note_off_c, 7, 79, 127
1, 126626, Note_off_c, 10, 57, 127
1, 126628, Note_on_c, 12, 59, 127
1, 126628, Note_on_c, 10, 69, 127
1, 126664, Note_off_c, 1, 73, 127
1, 126770, Note_off_c, 12, 59, 127
1, 126772, Note_on_c, 1, 61, 127
1, 126772, Note_on_c, 7, 79, 127
1, 126808, Note_off_c, 10, 69, 127
1, 126914, Note_off_c, 1, 61, 127
1, 126916, Note_on_c, 2, 62, 127
1, 126916, Note_on_c, 6, 78, 127
1, 126952, Note_off_c, 7, 79, 127
1, 127060, Note_on_c, 1, 73, 127
1, 127178, Note_off_c, 6, 78, 127
1, 127202, Note_off_c, 2, 62, 127
1, 127204, Note_on_c, 2, 50, 127
1, 127204, Note_on_c, 10, 69, 127
1, 127240, Note_off_c, 1, 73, 127
1, 127348, Note_on_c, 6, 78, 127
1, 127384, Note_off_c, 10, 69, 127
1, 127489, Note_off_c, 6, 78, 127
1, 127491, Note_off_c, 2, 50, 127
1, 127493, Note_on_c, 6, 54, 127
1, 127493, Note_on_c, 6, 78, 127
1, 127637, Note_on_c, 1, 73, 127
1, 127755, Note_off_c, 6, 78, 127
1, 127779, Note_off_c, 6, 54, 127
1, 127781, Note_on_c, 10, 57, 127
1, 127781, Note_on_c, 10, 69, 127
1, 127817, Note_off_c, 1, 73, 127
1, 127925, Note_on_c, 6, 78, 127
1, 127961, Note_off_c, 10, 69, 127
1, 128066, Note_off_c, 6, 78, 127
1, 128068, Note_off_c, 10, 57, 127
1, 128070, Note_on_c, 2, 62, 127
1, 128070, Note_on_c, 6, 78, 127
1, 128214, Note_on_c, 1, 73, 127
1, 128332, Note_off_c, 6, 78, 127
1, 128356, Note_off_c, 2, 62, 127
1, 128358, Note_on_c, 2, 50, 127
1, 128358, Note_on_c, 10, 69, 127
1, 128394, Note_off_c, 1, 73, 127
1, 128502, Note_on_c, 6, 78, 127
1, 128538, Note_off_c, 10, 69, 127
1, 128643, Note_off_c, 6, 78, 127
1, 128643, Note_off_c, 2, 50, 127
1, 128646, Note_on_c, 6, 78, 127
1, 128790, Note_on_c, 2, 50, 127
1, 128790, Note_on_c, 1, 73, 127
1, 128908, Note_off_c, 6, 78, 127
1, 128932, Note_off_c, 2, 50, 127
1, 128934, Note_on_c, 4, 52, 127
1, 128934, Note_on_c, 10, 69, 127
1, 128970, Note_off_c, 1, 73, 127
1, 129076, Note_off_c, 4, 52, 127
1, 129078, Note_on_c, 6, 54, 127
1, 129078, Note_on_c, 6, 78, 127
1, 129114, Note_off_c, 10, 69, 127
1, 129219, Note_off_c, 6, 78, 127
1, 129221, Note_off_c, 6, 54, 127
1, 129223, Note_on_c, 7, 55, 127
1, 129223, Note_on_c, 6, 78, 127
1, 129367, Note_on_c, 12, 71, 127
1, 129485, Note_off_c, 6, 78, 127
1, 129509, Note_off_c, 7, 55, 127
1, 129511, Note_on_c, 7, 43, 127
1, 129511, Note_on_c, 7, 67, 127
1, 129547, Note_off_c, 12, 71, 127
1, 129655, Note_on_c, 6, 78, 127
1, 129691, Note_off_c, 7, 67, 127
1, 129796, Note_off_c, 6, 78, 127
1, 129798, Note_off_c, 7, 43, 127
1, 129800, Note_on_c, 12, 47, 127
1, 129800, Note_on_c, 6, 78, 127
1, 129944, Note_on_c, 12, 71, 127
1, 130062, Note_off_c, 6, 78, 127
1, 130086, Note_off_c, 12, 47, 127
1, 130088, Note_on_c, 2, 50, 127
1, 130088, Note_on_c, 7, 67, 127
1, 130124, Note_off_c, 12, 71, 127
1, 130232, Note_on_c, 6, 78, 127
1, 130268, Note_off_c, 7, 67, 127
1, 130373, Note_off_c, 6, 78, 127
1, 130375, Note_off_c, 2, 50, 127
1, 130377, Note_on_c, 7, 55, 127
1, 130377, Note_on_c, 6, 78, 127
1, 130521, Note_on_c, 12, 71, 127
1, 130639, Note_off_c, 6, 78, 127
1, 130663, Note_off_c, 7, 55, 127
1, 130665, Note_on_c, 7, 43, 127
1, 130665, Note_on_c, 7, 67, 127
1, 130701, Note_off_c, 12, 71, 127
1, 130809, Note_on_c, 6, 78, 127
1, 130845, Note_off_c, 7, 67, 127
1, 130950, Note_off_c, 6, 78, 127
1, 130953, Note_on_c, 6, 78, 127
1, 131025, Note_off_c, 7, 43, 127
1, 131097, Note_on_c, 7, 55, 127
1, 131097, Note_on_c, 12, 71, 127
1, 131148, Note_off_c, 6, 78, 127
1, 131240, Note_off_c, 7, 55, 127
1, 131242, Note_on_c, 10, 57, 127
1, 131242, Note_on_c, 7, 67, 127
1, 131278, Note_off_c, 12, 71, 127
1, 131384, Note_off_c, 10, 57, 127
1, 131386, Note_on_c, 12, 59, 127
1, 131386, Note_on_c, 6, 78, 127
1, 131422, Note_off_c, 7, 67, 127
1, 131528, Note_off_c, 12, 59, 127
1, 131530, Note_on_c, 1, 49, 127
1, 131530, Note_on_c, 4, 76, 127
1, 131566, Note_off_c, 6, 78, 127
1, 131674, Note_on_c, 12, 71, 127
1, 131792, Note_off_c, 4, 76, 127
1, 131816, Note_off_c, 1, 49, 127
1, 131818, Note_on_c, 1, 61, 127
1, 131818, Note_on_c, 7, 67, 127
1, 131854, Note_off_c, 12, 71, 127
1, 131962, Note_on_c, 4, 76, 127
1, 131998, Note_off_c, 7, 67, 127
1, 132103, Note_off_c, 4, 76, 127
1, 132105, Note_off_c, 1, 61, 127
1, 132107, Note_on_c, 4, 52, 127
1, 132107, Note_on_c, 4, 76, 127
1, 132251, Note_on_c, 12, 71, 127
1, 132369, Note_off_c, 4, 76, 127
1, 132393, Note_off_c, 4, 52, 127
1, 132395, Note_on_c, 7, 55, 127
1, 132395, Note_on_c, 7, 67, 127
1, 132431, Note_off_c, 12, 71, 127
1, 132539, Note_on_c, 4, 76, 127
1, 132575, Note_off_c, 7, 67, 127
1, 132680, Note_off_c, 4, 76, 127
1, 132682, Note_off_c, 7, 55, 127
1, 132684, Note_on_c, 1, 49, 127
1, 132684, Note_on_c, 4, 76, 127
1, 132828, Note_on_c, 12, 71, 127
1, 132946, Note_off_c, 4, 76, 127
1, 132972, Note_on_c, 7, 67, 127
1, 133008, Note_off_c, 12, 71, 127
1, 133116, Note_on_c, 4, 76, 127
1, 133152, Note_off_c, 7, 67, 127
1, 133254, Note_off_c, 1, 49, 127
1, 133257, Note_off_c, 4, 76, 127
1, 133260, Note_on_c, 4, 76, 127
1, 133404, Note_on_c, 1, 49, 127
1, 133404, Note_on_c, 12, 71, 127
1, 133522, Note_off_c, 4, 76, 127
1, 133546, Note_off_c, 1, 49, 127
1, 133548, Note_on_c, 3, 51, 127
1, 133548, Note_on_c, 7, 67, 127
1, 133584, Note_off_c, 12, 71, 127
1, 133690, Note_off_c, 3, 51, 127
1, 133692, Note_on_c, 4, 52, 127
1, 133692, Note_on_c, 4, 76, 127
1, 133728, Note_off_c, 7, 67, 127
1, 133833, Note_off_c, 4, 76, 127
1, 133835, Note_off_c, 4, 52, 127
1, 133837, Note_on_c, 6, 54, 127
1, 133837, Note_on_c, 4, 76, 127
1, 133981, Note_on_c, 11, 70, 127
1, 134099, Note_off_c, 4, 76, 127
1, 134123, Note_off_c, 6, 54, 127
1, 134125, Note_on_c, 6, 42, 127
1, 134125, Note_on_c, 6, 66, 127
1, 134161, Note_off_c, 11, 70, 127
1, 134269, Note_on_c, 4, 76, 127
1, 134305, Note_off_c, 6, 66, 127
1, 134410, Note_off_c, 4, 76, 127
1, 134412, Note_off_c, 6, 42, 127
1, 134414, Note_on_c, 11, 46, 127
1, 134414, Note_on_c, 4, 76, 127
1, 134558, Note_on_c, 11, 70, 127
1, 134676, Note_off_c, 4, 76, 127
1, 134700, Note_off_c, 11, 46, 127
1, 134702, Note_on_c, 1, 49, 127
1, 134702, Note_on_c, 6, 66, 127
1, 134738, Note_off_c, 11, 70, 127
1, 134846, Note_on_c, 4, 76, 127
1, 134882, Note_off_c, 6, 66, 127
1, 134987, Note_off_c, 4, 76, 127
1, 134989, Note_off_c, 1, 49, 127
1, 134991, Note_on_c, 6, 54, 127
1, 134991, Note_on_c, 4, 76, 127
1, 135135, Note_on_c, 11, 70, 127
1, 135253, Note_off_c, 4, 76, 127
1, 135277, Note_off_c, 6, 54, 127
1, 135279, Note_on_c, 6, 42, 127
1, 135279, Note_on_c, 6, 66, 127
1, 135315, Note_off_c, 11, 70, 127
1, 135423, Note_on_c, 4, 76, 127
1, 135459, Note_off_c, 6, 66, 127
1, 135564, Note_off_c, 4, 76, 127
1, 135567, Note_on_c, 4, 76, 127
1, 135639, Note_off_c, 6, 42, 127
1, 135711, Note_on_c, 6, 54, 127
1, 135711, Note_on_c, 11, 70, 127
1, 135762, Note_off_c, 4, 76, 127
1, 135854, Note_off_c, 6, 54, 127
1, 135856, Note_on_c, 8, 56, 127
1, 135856, Note_on_c, 6, 66, 127
1, 135892, Note_off_c, 11, 70, 127
1, 135998, Note_off_c, 8, 56, 127
1, 136000, Note_on_c, 11, 58, 127
1, 136000, Note_on_c, 4, 76, 127
1, 136036, Note_off_c, 6, 66, 127
1, 136142, Note_off_c, 11, 58, 127
1, 136144, Note_on_c, 12, 59, 127
1, 136144, Note_on_c, 2, 74, 127
1, 136180, Note_off_c, 4, 76, 127
1, 136286, Note_off_c, 2, 74, 127
1, 136288, Note_on_c, 12, 71, 127
1, 136430, Note_off_c, 12, 71, 127
1, 136430, Note_off_c, 12, 59, 127
1, 136432, Note_on_c, 10, 57, 127
1, 136432, Note_on_c, 2, 74, 127
1, 136574, Note_off_c, 2, 74, 127
1, 136574, Note_off_c, 10, 57, 127
1, 136576, Note_on_c, 7, 55, 127
1, 136576, Note_on_c, 6, 78, 127
1, 136718, Note_off_c, 6, 78, 127
1, 136718, Note_off_c, 7, 55, 127
1, 136720, Note_on_c, 6, 54, 127
1, 136720, Note_on_c, 2, 74, 127
1, 136862, Note_off_c, 2, 74, 127
1, 136862, Note_off_c, 6, 54, 127
1, 136864, Note_on_c, 4, 52, 127
1, 136864, Note_on_c, 12, 71, 127
1, 137006, Note_off_c, 12, 71, 127
1, 137006, Note_off_c, 4, 52, 127
1, 137008, Note_on_c, 2, 50, 127
1, 137008, Note_on_c, 2, 74, 127
1, 137150, Note_off_c, 2, 74, 127
1, 137150, Note_off_c, 2, 50, 127
1, 137152, Note_on_c, 1, 49, 127
1, 137152, Note_on_c, 6, 78, 127
1, 137294, Note_off_c, 6, 78, 127
1, 137294, Note_off_c, 1, 49, 127
1, 137296, Note_on_c, 12, 47, 127
1, 137296, Note_on_c, 2, 74, 127
1, 137438, Note_off_c, 2, 74, 127
1, 137440, Note_on_c, 12, 71, 127
1, 137582, Note_off_c, 12, 71, 127
1, 137582, Note_off_c, 12, 47, 127
1, 137584, Note_on_c, 1, 49, 127
1, 137584, Note_on_c, 2, 74, 127
1, 137726, Note_off_c, 2, 74, 127
1, 137726, Note_off_c, 1, 49, 127
1, 137728, Note_on_c, 2, 50, 127
1, 137728, Note_on_c, 6, 78, 127
1, 137870, Note_off_c, 6, 78, 127
1, 137870, Note_off_c, 2, 50, 127
1, 137872, Note_on_c, 4, 52, 127
1, 137872, Note_on_c, 2, 74, 127
1, 138014, Note_off_c, 2, 74, 127
1, 138014, Note_off_c, 4, 52, 127
1, 138016, Note_on_c, 6, 54, 127
1, 138016, Note_on_c, 12, 71, 127
1, 138158, Note_off_c, 12, 71, 127
1, 138158, Note_off_c, 6, 54, 127
1, 138160, Note_on_c, 8, 56, 127
1, 138160, Note_on_c, 2, 74, 127
1, 138302, Note_off_c, 2, 74, 127
1, 138302, Note_off_c, 8, 56, 127
1, 138304, Note_on_c, 11, 58, 127
1, 138304, Note_on_c, 6, 78, 127
1, 138446, Note_off_c, 6, 78, 127
1, 138446, Note_off_c, 11, 58, 127
1, 138448, Note_on_c, 12, 59, 127
1, 138448, Note_on_c, 2, 74, 127
1, 138590, Note_off_c, 2, 74, 127
1, 138592, Note_on_c, 12, 71, 127
1, 138734, Note_off_c, 12, 71, 127
1, 138736, Note_on_c, 2, 74, 127
1, 138878, Note_off_c, 2, 74, 127
1, 138880, Note_on_c, 7, 79, 127
1, 139022, Note_off_c, 7, 79, 127
1, 139024, Note_on_c, 2, 74, 127
1, 139166, Note_off_c, 2, 74, 127
1, 139166, Note_off_c, 12, 59, 127
1, 139168, Note_on_c, 10, 57, 127
1, 139168, Note_on_c, 12, 71, 127
1, 139310, Note_off_c, 12, 71, 127
1, 139310, Note_off_c, 10, 57, 127
1, 139312, Note_on_c, 7, 55, 127
1, 139312, Note_on_c, 2, 74, 127
1, 139454, Note_off_c, 2, 74, 127
1, 139454, Note_off_c, 7, 55, 127
1, 139456, Note_on_c, 6, 54, 127
1, 139456, Note_on_c, 7, 79, 127
1, 139598, Note_off_c, 7, 79, 127
1, 139598, Note_off_c, 6, 54, 127
1, 139600, Note_on_c, 7, 55, 127
1, 139600, Note_on_c, 2, 74, 127
1, 139742, Note_off_c, 2, 74, 127
1, 139742, Note_off_c, 7, 55, 127
1, 139744, Note_on_c, 6, 54, 127
1, 139744, Note_on_c, 12, 71, 127
1, 139886, Note_off_c, 12, 71, 127
1, 139886, Note_off_c, 6, 54, 127
1, 139888, Note_on_c, 4, 52, 127
1, 139888, Note_on_c, 2, 74, 127
1, 140030, Note_off_c, 2, 74, 127
1, 140030, Note_off_c, 4, 52, 127
1, 140032, Note_on_c, 2, 50, 127
1, 140032, Note_on_c, 7, 79, 127
1, 140174, Note_off_c, 7, 79, 127
1, 140174, Note_off_c, 2, 50, 127
1, 140176, Note_on_c, 4, 52, 127
1, 140176, Note_on_c, 2, 74, 127
1, 140318, Note_off_c, 2, 74, 127
1, 140318, Note_off_c, 4, 52, 127
1, 140320, Note_on_c, 2, 50, 127
1, 140320, Note_on_c, 12, 71, 127
1, 140462, Note_off_c, 12, 71, 127
1, 140462, Note_off_c, 2, 50, 127
1, 140464, Note_on_c, 1, 49, 127
1, 140464, Note_on_c, 2, 74, 127
1, 140606, Note_off_c, 2, 74, 127
1, 140606, Note_off_c, 1, 49, 127
1, 140608, Note_on_c, 12, 47, 127
1, 140608, Note_on_c, 7, 79, 127
1, 140750, Note_off_c, 7, 79, 127
1, 140750, Note_off_c, 12, 47, 127
1, 140752, Note_on_c, 1, 49, 127
1, 140752, Note_on_c, 5, 77, 127
1, 140894, Note_off_c, 1, 49, 127
1, 140896, Note_on_c, 12, 47, 127
1, 141038, Note_off_c, 12, 47, 127
1, 141038, Note_off_c, 5, 77, 127
1, 141040, Note_on_c, 1, 49, 127
1, 141040, Note_on_c, 1, 73, 127
1, 141182, Note_off_c, 1, 49, 127
1, 141184, Note_on_c, 2, 50, 127
1, 141325, Note_off_c, 1, 73, 127
1, 141327, Note_off_c, 2, 50, 127
1, 141329, Note_on_c, 1, 49, 127
1, 141471, Note_off_c, 1, 49, 127
1, 141473, Note_on_c, 2, 50, 127
1, 141615, Note_off_c, 2, 50, 127
1, 141617, Note_on_c, 1, 49, 127
1, 141759, Note_off_c, 1, 49, 127
1, 141761, Note_on_c, 12, 47, 127
1, 141903, Note_off_c, 12, 47, 127
1, 141905, Note_on_c, 10, 45, 127
1, 141905, Note_on_c, 1, 73, 127
1, 142047, Note_off_c, 1, 73, 127
1, 142047, Note_off_c, 10, 45, 127
1, 142049, Note_on_c, 10, 57, 127
1, 142049, Note_on_c, 12, 71, 127
1, 142191, Note_off_c, 12, 71, 127
1, 142191, Note_off_c, 10, 57, 127
1, 142193, Note_on_c, 8, 56, 127
1, 142193, Note_on_c, 1, 73, 127
1, 142335, Note_off_c, 8, 56, 127
1, 142337, Note_on_c, 10, 57, 127
1, 142337, Note_on_c, 6, 66, 127
1, 142358, Note_off_c, 1, 73, 127
1, 142480, Note_off_c, 6, 66, 127
1, 142480, Note_off_c, 10, 57, 127
1, 142482, Note_on_c, 10, 45, 127
1, 142482, Note_on_c, 1, 73, 127
1, 142624, Note_off_c, 1, 73, 127
1, 142624, Note_off_c, 10, 45, 127
1, 142626, Note_on_c, 10, 57, 127
1, 142626, Note_on_c, 12, 71, 127
1, 142768, Note_off_c, 12, 71, 127
1, 142768, Note_off_c, 10, 57, 127
1, 142770, Note_on_c, 8, 56, 127
1, 142770, Note_on_c, 1, 73, 127
1, 142912, Note_off_c, 8, 56, 127
1, 142914, Note_on_c, 10, 57, 127
1, 142914, Note_on_c, 6, 66, 127
1, 142935, Note_off_c, 1, 73, 127
1, 143057, Note_off_c, 6, 66, 127
1, 143057, Note_off_c, 10, 57, 127
1, 143059, Note_on_c, 10, 45, 127
1, 143059, Note_on_c, 3, 75, 127
1, 143201, Note_off_c, 3, 75, 127
1, 143201, Note_off_c, 10, 45, 127
1, 143203, Note_on_c, 10, 57, 127
1, 143203, Note_on_c, 1, 73, 127
1, 143345, Note_off_c, 1, 73, 127
1, 143345, Note_off_c, 10, 57, 127
1, 143347, Note_on_c, 8, 56, 127
1, 143347, Note_on_c, 3, 75, 127
1, 143489, Note_off_c, 8, 56, 127
1, 143491, Note_on_c, 10, 57, 127
1, 143491, Note_on_c, 6, 66, 127
1, 143542, Note_off_c, 3, 75, 127
1, 143634, Note_off_c, 6, 66, 127
1, 143634, Note_off_c, 10, 57, 127
1, 143636, Note_on_c, 10, 45, 127
1, 143636, Note_on_c, 3, 75, 127
1, 143778, Note_off_c, 3, 75, 127
1, 143778, Note_off_c, 10, 45, 127
1, 143780, Note_on_c, 10, 57, 127
1, 143780, Note_on_c, 1, 73, 127
1, 143922, Note_off_c, 1, 73, 127
1, 143922, Note_off_c, 10, 57, 127
1, 143924, Note_on_c, 8, 56, 127
1, 143924, Note_on_c, 3, 75, 127
1, 144066, Note_off_c, 8, 56, 127
1, 144068, Note_on_c, 10, 57, 127
1, 144068, Note_on_c, 6, 66, 127
1, 144119, Note_off_c, 3, 75, 127
1, 144211, Note_off_c, 6, 66, 127
1, 144211, Note_off_c, 10, 57, 127
1, 144213, Note_on_c, 12, 47, 127
1, 144213, Note_on_c, 3, 75, 127
1, 144355, Note_off_c, 3, 75, 127
1, 144355, Note_off_c, 12, 47, 127
1, 144357, Note_on_c, 8, 56, 127
1, 144357, Note_on_c, 1, 73, 127
1, 144499, Note_off_c, 1, 73, 127
1, 144499, Note_off_c, 8, 56, 127
1, 144501, Note_on_c, 6, 54, 127
1, 144501, Note_on_c, 3, 75, 127
1, 144643, Note_off_c, 6, 54, 127
1, 144645, Note_on_c, 8, 56, 127
1, 144645, Note_on_c, 12, 71, 127
1, 144711, Note_off_c, 3, 75, 127
1, 144787, Note_off_c, 12, 71, 127
1, 144787, Note_off_c, 8, 56, 127
1, 144789, Note_on_c, 12, 47, 127
1, 144789, Note_on_c, 3, 75, 127
1, 144931, Note_off_c, 3, 75, 127
1, 144931, Note_off_c, 12, 47, 127
1, 144933, Note_on_c, 8, 56, 127
1, 144933, Note_on_c, 1, 73, 127
1, 145075, Note_off_c, 1, 73, 127
1, 145075, Note_off_c, 8, 56, 127
1, 145077, Note_on_c, 6, 54, 127
1, 145077, Note_on_c, 3, 75, 127
1, 145219, Note_off_c, 6, 54, 127
1, 145221, Note_on_c, 8, 56, 127
1, 145221, Note_on_c, 12, 71, 127
1, 145287, Note_off_c, 3, 75, 127
1, 145363, Note_off_c, 12, 71, 127
1, 145363, Note_off_c, 8, 56, 127
1, 145365, Note_on_c, 1, 49, 127
1, 145365, Note_on_c, 5, 77, 127
1, 145507, Note_off_c, 5, 77, 127
1, 145507, Note_off_c, 1, 49, 127
1, 145509, Note_on_c, 8, 56, 127
1, 145509, Note_on_c, 3, 75, 127
1, 145651, Note_off_c, 3, 75, 127
1, 145651, Note_off_c, 8, 56, 127
1, 145653, Note_on_c, 6, 54, 127
1, 145653, Note_on_c, 5, 77, 127
1, 145795, Note_off_c, 6, 54, 127
1, 145797, Note_on_c, 8, 56, 127
1, 145797, Note_on_c, 12, 71, 127
1, 145878, Note_off_c, 5, 77, 127
1, 145940, Note_off_c, 8, 56, 127
1, 145942, Note_on_c, 1, 49, 127
1, 145942, Note_on_c, 5, 77, 127
1, 145948, Note_off_c, 12, 71, 127
1, 146084, Note_off_c, 5, 77, 127
1, 146084, Note_off_c, 1, 49, 127
1, 146086, Note_on_c, 8, 56, 127
1, 146086, Note_on_c, 3, 75, 127
1, 146228, Note_off_c, 3, 75, 127
1, 146228, Note_off_c, 8, 56, 127
1, 146230, Note_on_c, 6, 54, 127
1, 146230, Note_on_c, 5, 77, 127
1, 146372, Note_off_c, 6, 54, 127
1, 146374, Note_on_c, 8, 56, 127
1, 146374, Note_on_c, 12, 71, 127
1, 146455, Note_off_c, 5, 77, 127
1, 146517, Note_off_c, 8, 56, 127
1, 146519, Note_on_c, 2, 50, 127
1, 146519, Note_on_c, 6, 78, 127
1, 146525, Note_off_c, 12, 71, 127
1, 146661, Note_off_c, 6, 78, 127
1, 146661, Note_off_c, 2, 50, 127
1, 146663, Note_on_c, 2, 62, 127
1, 146663, Note_on_c, 5, 77, 127
1, 146805, Note_off_c, 5, 77, 127
1, 146805, Note_off_c, 2, 62, 127
1, 146807, Note_on_c, 1, 61, 127
1, 146807, Note_on_c, 6, 78, 127
1, 146949, Note_off_c, 1, 61, 127
1, 146951, Note_on_c, 2, 62, 127
1, 146951, Note_on_c, 10, 69, 127
1, 147047, Note_off_c, 6, 78, 127
1, 147093, Note_off_c, 2, 62, 127
1, 147095, Note_on_c, 2, 50, 127
1, 147095, Note_on_c, 6, 78, 127
1, 147109, Note_off_c, 10, 69, 127
1, 147238, Note_off_c, 6, 78, 127
1, 147238, Note_off_c, 2, 50, 127
1, 147240, Note_on_c, 2, 62, 127
1, 147240, Note_on_c, 5, 77, 127
1, 147382, Note_off_c, 5, 77, 127
1, 147382, Note_off_c, 2, 62, 127
1, 147384, Note_on_c, 1, 61, 127
1, 147384, Note_on_c, 6, 78, 127
1, 147526, Note_off_c, 1, 61, 127
1, 147528, Note_on_c, 2, 62, 127
1, 147528, Note_on_c, 10, 69, 127
1, 147624, Note_off_c, 6, 78, 127
1, 147670, Note_off_c, 2, 62, 127
1, 147672, Note_on_c, 12, 47, 127
1, 147672, Note_on_c, 6, 78, 127
1, 147686, Note_off_c, 10, 69, 127
1, 147815, Note_off_c, 6, 78, 127
1, 147815, Note_off_c, 12, 47, 127
1, 147817, Note_on_c, 2, 62, 127
1, 147817, Note_on_c, 5, 77, 127
1, 147959, Note_off_c, 5, 77, 127
1, 147959, Note_off_c, 2, 62, 127
1, 147961, Note_on_c, 1, 61, 127
1, 147961, Note_on_c, 6, 78, 127
1, 148103, Note_off_c, 1, 61, 127
1, 148105, Note_on_c, 2, 62, 127
1, 148105, Note_on_c, 8, 68, 127
1, 148216, Note_off_c, 6, 78, 127
1, 148248, Note_off_c, 2, 62, 127
1, 148250, Note_on_c, 12, 47, 127
1, 148250, Note_on_c, 6, 78, 127
1, 148256, Note_off_c, 8, 68, 127
1, 148392, Note_off_c, 6, 78, 127
1, 148392, Note_off_c, 12, 47, 127
1, 148394, Note_on_c, 2, 62, 127
1, 148394, Note_on_c, 5, 77, 127
1, 148536, Note_off_c, 5, 77, 127
1, 148536, Note_off_c, 2, 62, 127
1, 148538, Note_on_c, 1, 61, 127
1, 148538, Note_on_c, 6, 78, 127
1, 148680, Note_off_c, 1, 61, 127
1, 148682, Note_on_c, 2, 62, 127
1, 148682, Note_on_c, 8, 68, 127
1, 148793, Note_off_c, 6, 78, 127
1, 148825, Note_off_c, 2, 62, 127
1, 148827, Note_on_c, 1, 49, 127
1, 148827, Note_on_c, 5, 77, 127
1, 148833, Note_off_c, 8, 68, 127
1, 148969, Note_off_c, 5, 77, 127
1, 148969, Note_off_c, 1, 49, 127
1, 148971, Note_on_c, 1, 61, 127
1, 148971, Note_on_c, 3, 75, 127
1, 149113, Note_off_c, 3, 75, 127
1, 149113, Note_off_c, 1, 61, 127
1, 149115, Note_on_c, 12, 59, 127
1, 149115, Note_on_c, 5, 77, 127
1, 149257, Note_off_c, 12, 59, 127
1, 149259, Note_on_c, 1, 61, 127
1, 149259, Note_on_c, 8, 68, 127
1, 149385, Note_off_c, 5, 77, 127
1, 149401, Note_off_c, 8, 68, 127
1, 149401, Note_off_c, 1, 61, 127
1, 149403, Note_on_c, 1, 49, 127
1, 149403, Note_on_c, 5, 77, 127
1, 149545, Note_off_c, 5, 77, 127
1, 149545, Note_off_c, 1, 49, 127
1, 149547, Note_on_c, 1, 61, 127
1, 149547, Note_on_c, 3, 75, 127
1, 149689, Note_off_c, 3, 75, 127
1, 149689, Note_off_c, 1, 61, 127
1, 149691, Note_on_c, 12, 59, 127
1, 149691, Note_on_c, 5, 77, 127
1, 149833, Note_off_c, 5, 77, 127
1, 149833, Note_off_c, 12, 59, 127
1, 149835, Note_on_c, 1, 61, 127
1, 149835, Note_on_c, 8, 68, 127
1, 149977, Note_off_c, 8, 68, 127
1, 149977, Note_off_c, 1, 61, 127
1, 149979, Note_on_c, 6, 54, 127
1, 149979, Note_on_c, 6, 78, 127
1, 150265, Note_off_c, 6, 78, 127
1, 150267, Note_on_c, 4, 76, 127
1, 150409, Note_off_c, 4, 76, 127
1, 150411, Note_on_c, 2, 74, 127
1, 150549, Note_off_c, 6, 54, 127
1, 150553, Note_off_c, 2, 74, 127
1, 150555, Note_on_c, 1, 73, 127
1, 150697, Note_off_c, 1, 73, 127
1, 150699, Note_on_c, 12, 71, 127
1, 150841, Note_off_c, 12, 71, 127
1, 150843, Note_on_c, 10, 69, 127
1, 150985, Note_off_c, 10, 69, 127
1, 150987, Note_on_c, 8, 68, 127
1, 151129, Note_off_c, 8, 68, 127
1, 151131, Note_on_c, 6, 54, 127
1, 151131, Note_on_c, 6, 66, 127
1, 151273, Note_off_c, 6, 66, 127
1, 151275, Note_on_c, 8, 68, 127
1, 151417, Note_off_c, 8, 68, 127
1, 151417, Note_off_c, 6, 54, 127
1, 151419, Note_on_c, 8, 56, 127
1, 151419, Note_on_c, 10, 69, 127
1, 151561, Note_off_c, 10, 69, 127
1, 151563, Note_on_c, 12, 71, 127
1, 151705, Note_off_c, 12, 71, 127
1, 151705, Note_off_c, 8, 56, 127
1, 151707, Note_on_c, 10, 57, 127
1, 151707, Note_on_c, 1, 73, 127
1, 151849, Note_off_c, 1, 73, 127
1, 151851, Note_on_c, 3, 75, 127
1, 151993, Note_off_c, 3, 75, 127
1, 151993, Note_off_c, 10, 57, 127
1, 151995, Note_on_c, 6, 54, 127
1, 151995, Note_on_c, 5, 77, 127
1, 152137, Note_off_c, 5, 77, 127
1, 152139, Note_on_c, 6, 78, 127
1, 152281, Note_off_c, 6, 78, 127
1, 152281, Note_off_c, 6, 54, 127
1, 152283, Note_on_c, 1, 61, 127
1, 152283, Note_on_c, 5, 77, 127
1, 152425, Note_off_c, 5, 77, 127
1, 152427, Note_on_c, 6, 78, 127
1, 152569, Note_off_c, 6, 78, 127
1, 152569, Note_off_c, 1, 61, 127
1, 152571, Note_on_c, 1, 49, 127
1, 152571, Note_on_c, 8, 80, 127
1, 152713, Note_off_c, 8, 80, 127
1, 152715, Note_on_c, 5, 77, 127
1, 152856, Note_off_c, 1, 49, 127
1, 152858, Note_off_c, 5, 77, 127
1, 152860, Note_on_c, 1, 73, 127
1, 153002, Note_off_c, 1, 73, 127
1, 153004, Note_on_c, 3, 75, 127
1, 153146, Note_off_c, 3, 75, 127
1, 153148, Note_on_c, 3, 51, 127
1, 153148, Note_on_c, 5, 77, 127
1, 153290, Note_off_c, 5, 77, 127
1, 153292, Note_on_c, 6, 78, 127
1, 153434, Note_off_c, 6, 78, 127
1, 153434, Note_off_c, 3, 51, 127
1, 153436, Note_on_c, 5, 53, 127
1, 153436, Note_on_c, 8, 80, 127
1, 153578, Note_off_c, 8, 80, 127
1, 153580, Note_on_c, 1, 61, 127
1, 153722, Note_off_c, 1, 61, 127
1, 153724, Note_on_c, 5, 65, 127
1, 153866, Note_off_c, 5, 65, 127
1, 153868, Note_on_c, 8, 68, 127
1, 154006, Note_off_c, 5, 53, 127
1, 154010, Note_off_c, 8, 68, 127
1, 154012, Note_on_c, 12, 71, 127
1, 154154, Note_off_c, 12, 71, 127
1, 154156, Note_on_c, 2, 74, 127
1, 154298, Note_off_c, 2, 74, 127
1, 154300, Note_on_c, 1, 49, 127
1, 154300, Note_on_c, 1, 73, 127
1, 154442, Note_off_c, 1, 73, 127
1, 154444, Note_on_c, 12, 71, 127
1, 154586, Note_off_c, 12, 71, 127
1, 154586, Note_off_c, 1, 49, 127
1, 154588, Note_on_c, 6, 54, 127
1, 154588, Note_on_c, 10, 69, 127
1, 154730, Note_off_c, 10, 69, 127
1, 154732, Note_on_c, 6, 66, 127
1, 154874, Note_off_c, 6, 66, 127
1, 154874, Note_off_c, 6, 54, 127
1, 154876, Note_on_c, 6, 42, 127
1, 154876, Note_on_c, 10, 69, 127
1, 155018, Note_off_c, 10, 69, 127
1, 155020, Note_on_c, 1, 73, 127
1, 155162, Note_off_c, 1, 73, 127
1, 155162, Note_off_c, 6, 42, 127
1, 155164, Note_on_c, 12, 47, 127
1, 155164, Note_on_c, 2, 74, 127
1, 155306, Note_off_c, 2, 74, 127
1, 155308, Note_on_c, 10, 69, 127
1, 155450, Note_off_c, 10, 69, 127
1, 155452, Note_on_c, 2, 50, 127
1, 155452, Note_on_c, 8, 68, 127
1, 155594, Note_off_c, 8, 68, 127
1, 155596, Note_on_c, 6, 66, 127
1, 155738, Note_off_c, 6, 66, 127
1, 155738, Note_off_c, 2, 50, 127
1, 155740, Note_on_c, 1, 49, 127
1, 155740, Note_on_c, 5, 65, 127
1, 155882, Note_off_c, 5, 65, 127
1, 155884, Note_on_c, 1, 61, 127
1, 156026, Note_off_c, 1, 61, 127
1, 156026, Note_off_c, 12, 47, 127
1, 156028, Note_on_c, 8, 56, 127
1, 156028, Note_on_c, 12, 59, 127
1, 156170, Note_off_c, 12, 59, 127
1, 156172, Note_on_c, 5, 65, 127
1, 156310, Note_off_c, 1, 49, 127
1, 156314, Note_off_c, 5, 65, 127
1, 156314, Note_off_c, 8, 56, 127
1, 156316, Note_on_c, 1, 49, 127
1, 156316, Note_on_c, 10, 45, 127
1, 156316, Note_on_c, 6, 66, 127
1, 156458, Note_off_c, 6, 66, 127
1, 156460, Note_on_c, 10, 57, 127
1, 156602, Note_off_c, 10, 57, 127
1, 156602, Note_off_c, 10, 45, 127
1, 156602, Note_off_c, 1, 49, 127
1, 156604, Note_on_c, 2, 50, 127
1, 156604, Note_on_c, 12, 47, 127
1, 156604, Note_on_c, 8, 56, 127
1, 156746, Note_off_c, 8, 56, 127
1, 156748, Note_on_c, 6, 54, 127
1, 156890, Note_off_c, 6, 54, 127
1, 156890, Note_off_c, 12, 47, 127
1, 156890, Note_off_c, 2, 50, 127
1, 156892, Note_on_c, 1, 49, 127
1, 157036, Note_on_c, 8, 56, 127
1, 157178, Note_off_c, 8, 56, 127
1, 157178, Note_off_c, 1, 49, 127
1, 157180, Note_on_c, 12, 47, 127
1, 157180, Note_on_c, 6, 66, 127
1, 157322, Note_off_c, 6, 66, 127
1, 157324, Note_on_c, 8, 68, 127
1, 157466, Note_off_c, 8, 68, 127
1, 157466, Note_off_c, 12, 47, 127
1, 157468, Note_on_c, 1, 49, 127
1, 157468, Note_on_c, 5, 65, 127
1, 157610, Note_off_c, 5, 65, 127
1, 157612, Note_on_c, 8, 68, 127
1, 157754, Note_off_c, 8, 68, 127
1, 157754, Note_off_c, 1, 49, 127
1, 157756, Note_on_c, 1, 37, 127
1, 157756, Note_on_c, 1, 61, 127
1, 157898, Note_off_c, 1, 61, 127
1, 157900, Note_on_c, 5, 65, 127
1, 158042, Note_off_c, 5, 65, 127
1, 158042, Note_off_c, 1, 37, 127
1, 158044, Note_on_c, 6, 42, 127
1, 158044, Note_on_c, 6, 66, 127
1, 158186, Note_off_c, 6, 66, 127
1, 158188, Note_on_c, 8, 68, 127
1, 158330, Note_off_c, 8, 68, 127
1, 158332, Note_on_c, 10, 69, 127
1, 158474, Note_off_c, 10, 69, 127
1, 158476, Note_on_c, 12, 71, 127
1, 158614, Note_off_c, 6, 42, 127
1, 158618, Note_off_c, 12, 71, 127
1, 158620, Note_on_c, 1, 73, 127
1, 158762, Note_off_c, 1, 73, 127
1, 158764, Note_on_c, 3, 75, 127
1, 158906, Note_off_c, 3, 75, 127
1, 158908, Note_on_c, 5, 77, 127
1, 159050, Note_off_c, 5, 77, 127
1, 159052, Note_on_c, 1, 73, 127
1, 159194, Note_off_c, 1, 73, 127
1, 159206, Note_on_c, 6, 78, 127
1, 159356, Note_on_c, 6, 66, 127
1, 159426, Note_off_c, 6, 66, 127
1, 159428, Note_on_c, 8, 68, 127
1, 159498, Note_off_c, 8, 68, 127
1, 159500, Note_on_c, 10, 69, 127
1, 159626, Note_off_c, 6, 78, 127
1, 159642, Note_off_c, 10, 69, 127
1, 159644, Note_on_c, 12, 71, 127
1, 159786, Note_off_c, 12, 71, 127
1, 159788, Note_on_c, 5, 77, 127
1, 159788, Note_on_c, 1, 73, 127
1, 159930, Note_off_c, 1, 73, 127
1, 159930, Note_off_c, 5, 77, 127
1, 159932, Note_on_c, 6, 78, 127
1, 159932, Note_on_c, 3, 75, 127
1, 160074, Note_off_c, 3, 75, 127
1, 160074, Note_off_c, 6, 78, 127
1, 160076, Note_on_c, 5, 77, 127
1, 160076, Note_on_c, 8, 80, 127
1, 160218, Note_off_c, 8, 80, 127
1, 160218, Note_off_c, 5, 77, 127
1, 160220, Note_on_c, 5, 77, 127
1, 160220, Note_on_c, 1, 73, 127
1, 160362, Note_off_c, 1, 73, 127
1, 160362, Note_off_c, 5, 77, 127
1, 160364, Note_on_c, 10, 81, 127
1, 160364, Note_on_c, 6, 78, 127
1, 160508, Note_on_c, 6, 54, 127
1, 160578, Note_off_c, 6, 54, 127
1, 160580, Note_on_c, 8, 56, 127
1, 160650, Note_off_c, 8, 56, 127
1, 160652, Note_on_c, 10, 57, 127
1, 160794, Note_off_c, 10, 57, 127
1, 160796, Note_on_c, 12, 59, 127
1, 160938, Note_off_c, 12, 59, 127
1, 160938, Note_off_c, 6, 78, 127
1, 160938, Note_off_c, 10, 81, 127
1, 160940, Note_on_c, 5, 65, 127
1, 160940, Note_on_c, 1, 61, 127
1, 161082, Note_off_c, 1, 61, 127
1, 161082, Note_off_c, 5, 65, 127
1, 161084, Note_on_c, 6, 66, 127
1, 161084, Note_on_c, 3, 63, 127
1, 161226, Note_off_c, 3, 63, 127
1, 161226, Note_off_c, 6, 66, 127
1, 161228, Note_on_c, 8, 68, 127
1, 161228, Note_on_c, 5, 65, 127
1, 161370, Note_off_c, 5, 65, 127
1, 161370, Note_off_c, 8, 68, 127
1, 161372, Note_on_c, 5, 65, 127
1, 161372, Note_on_c, 1, 61, 127
1, 161514, Note_off_c, 1, 61, 127
1, 161514, Note_off_c, 5, 65, 127
1, 161516, Note_on_c, 6, 66, 127
1, 161516, Note_on_c, 10, 69, 127
1, 161660, Note_on_c, 6, 42, 127
1, 161730, Note_off_c, 6, 42, 127
1, 161732, Note_on_c, 8, 44, 127
1, 161802, Note_off_c, 8, 44, 127
1, 161804, Note_on_c, 1, 73, 127
1, 161804, Note_on_c, 10, 45, 127
1, 161946, Note_off_c, 10, 45, 127
1, 161948, Note_on_c, 12, 47, 127
1, 162086, Note_off_c, 10, 69, 127
1, 162086, Note_off_c, 6, 66, 127
1, 162090, Note_off_c, 12, 47, 127
1, 162092, Note_on_c, 8, 68, 127
1, 162092, Note_on_c, 5, 65, 127
1, 162092, Note_on_c, 1, 49, 127
1, 162234, Note_off_c, 1, 49, 127
1, 162236, Note_on_c, 3, 51, 127
1, 162374, Note_off_c, 1, 73, 127
1, 162378, Note_off_c, 3, 51, 127
1, 162380, Note_on_c, 12, 71, 127
1, 162380, Note_on_c, 5, 53, 127
1, 162522, Note_off_c, 5, 53, 127
1, 162524, Note_on_c, 1, 49, 127
1, 162662, Note_off_c, 5, 65, 127
1, 162662, Note_off_c, 8, 68, 127
1, 162666, Note_off_c, 1, 49, 127
1, 162666, Note_off_c, 12, 71, 127
1, 162668, Note_on_c, 6, 66, 127
1, 162668, Note_on_c, 10, 69, 127
1, 162668, Note_on_c, 6, 54, 127
1, 162810, Note_off_c, 10, 69, 127
1, 162810, Note_off_c, 6, 66, 127
1, 162812, Note_on_c, 6, 66, 127
1, 162882, Note_off_c, 6, 66, 127
1, 162884, Note_on_c, 8, 68, 127
1, 162954, Note_off_c, 8, 68, 127
1, 162954, Note_off_c, 6, 54, 127
1, 162956, Note_on_c, 10, 69, 127
1, 162956, Note_on_c, 6, 42, 127
1, 163098, Note_off_c, 10, 69, 127
1, 163100, Note_on_c, 12, 71, 127
1, 163170, Note_off_c, 12, 71, 127
1, 163172, Note_on_c, 1, 73, 127
1, 163242, Note_off_c, 1, 73, 127
1, 163244, Note_on_c, 2, 74, 127
1, 163388, Note_on_c, 1, 73, 127
1, 163530, Note_off_c, 1, 73, 127
1, 163530, Note_off_c, 6, 42, 127
1, 163532, Note_on_c, 12, 71, 127
1, 163532, Note_on_c, 6, 54, 127
1, 163674, Note_off_c, 12, 71, 127
1, 163676, Note_on_c, 10, 69, 127
1, 163818, Note_off_c, 10, 69, 127
1, 163818, Note_off_c, 6, 54, 127
1, 163820, Note_on_c, 8, 68, 127
1, 163820, Note_on_c, 5, 53, 127
1, 163962, Note_off_c, 8, 68, 127
1, 163964, Note_on_c, 12, 71, 127
1, 164106, Note_off_c, 12, 71, 127
1, 164106, Note_off_c, 5, 53, 127
1, 164108, Note_on_c, 10, 69, 127
1, 164108, Note_on_c, 5, 41, 127
1, 164250, Note_off_c, 10, 69, 127
1, 164252, Note_on_c, 8, 68, 127
1, 164393, Note_off_c, 5, 41, 127
1, 164395, Note_off_c, 8, 68, 127
1, 164395, Note_off_c, 2, 74, 127
1, 164397, Note_on_c, 1, 73, 127
1, 164541, Note_on_c, 12, 71, 127
1, 164683, Note_off_c, 12, 71, 127
1, 164685, Note_on_c, 10, 69, 127
1, 164685, Note_on_c, 4, 52, 127
1, 164827, Note_off_c, 10, 69, 127
1, 164829, Note_on_c, 8, 68, 127
1, 164971, Note_off_c, 8, 68, 127
1, 164971, Note_off_c, 4, 52, 127
1, 164973, Note_on_c, 6, 66, 127
1, 164973, Note_on_c, 3, 51, 127
1, 165115, Note_off_c, 6, 66, 127
1, 165117, Note_on_c, 10, 69, 127
1, 165259, Note_off_c, 10, 69, 127
1, 165259, Note_off_c, 3, 51, 127
1, 165261, Note_on_c, 8, 68, 127
1, 165261, Note_on_c, 3, 39, 127
1, 165403, Note_off_c, 8, 68, 127
1, 165405, Note_on_c, 6, 66, 127
1, 165546, Note_off_c, 3, 39, 127
1, 165548, Note_off_c, 6, 66, 127
1, 165548, Note_off_c, 1, 73, 127
1, 165550, Note_on_c, 12, 71, 127
1, 165694, Note_on_c, 10, 69, 127
1, 165836, Note_off_c, 10, 69, 127
1, 165838, Note_on_c, 8, 68, 127
1, 165838, Note_on_c, 2, 50, 127
1, 165980, Note_off_c, 8, 68, 127
1, 165982, Note_on_c, 6, 66, 127
1, 166124, Note_off_c, 6, 66, 127
1, 166124, Note_off_c, 2, 50, 127
1, 166126, Note_on_c, 5, 65, 127
1, 166126, Note_on_c, 1, 49, 127
1, 166268, Note_off_c, 5, 65, 127
1, 166270, Note_on_c, 8, 68, 127
1, 166412, Note_off_c, 8, 68, 127
1, 166412, Note_off_c, 1, 49, 127
1, 166414, Note_on_c, 6, 66, 127
1, 166414, Note_on_c, 1, 37, 127
1, 166556, Note_off_c, 6, 66, 127
1, 166558, Note_on_c, 5, 65, 127
1, 166700, Note_off_c, 5, 65, 127
1, 166700, Note_off_c, 1, 37, 127
1, 166700, Note_off_c, 12, 71, 127
1, 166702, Note_on_c, 10, 69, 127
1, 166702, Note_on_c, 6, 54, 127
1, 166846, Note_on_c, 1, 61, 127
1, 166988, Note_off_c, 1, 61, 127
1, 166988, Note_off_c, 6, 54, 127
1, 166990, Note_on_c, 6, 66, 127
1, 166990, Note_on_c, 6, 42, 127
1, 167122, Note_off_c, 10, 69, 127
1, 167134, Note_on_c, 10, 69, 127
1, 167275, Note_off_c, 6, 66, 127
1, 167277, Note_off_c, 10, 69, 127
1, 167277, Note_off_c, 6, 42, 127
1, 167279, Note_on_c, 8, 68, 127
1, 167279, Note_on_c, 12, 59, 127
1, 167421, Note_off_c, 8, 68, 127
1, 167423, Note_on_c, 6, 66, 127
1, 167565, Note_off_c, 6, 66, 127
1, 167565, Note_off_c, 12, 59, 127
1, 167567, Note_on_c, 5, 65, 127
1, 167567, Note_on_c, 12, 47, 127
1, 167709, Note_off_c, 5, 65, 127
1, 167711, Note_on_c, 3, 63, 127
1, 167853, Note_off_c, 3, 63, 127
1, 167853, Note_off_c, 12, 47, 127
1, 167855, Note_on_c, 5, 65, 127
1, 167855, Note_on_c, 1, 61, 127
1, 167997, Note_off_c, 5, 65, 127
1, 167999, Note_on_c, 12, 71, 127
1, 168141, Note_off_c, 12, 71, 127
1, 168141, Note_off_c, 1, 61, 127
1, 168143, Note_on_c, 10, 69, 127
1, 168143, Note_on_c, 1, 49, 127
1, 168285, Note_off_c, 10, 69, 127
1, 168287, Note_on_c, 8, 68, 127
1, 168429, Note_off_c, 8, 68, 127
1, 168429, Note_off_c, 1, 49, 127
1, 168431, Note_on_c, 10, 69, 127
1, 168431, Note_on_c, 6, 54, 127
1, 168573, Note_off_c, 10, 69, 127
1, 168575, Note_on_c, 6, 78, 127
1, 168717, Note_off_c, 6, 78, 127
1, 168717, Note_off_c, 6, 54, 127
1, 168719, Note_on_c, 1, 73, 127
1, 168719, Note_on_c, 6, 42, 127
1, 168861, Note_off_c, 1, 73, 127
1, 168863, Note_on_c, 6, 78, 127
1, 169005, Note_off_c, 6, 78, 127
1, 169007, Note_on_c, 11, 70, 127
1, 169149, Note_off_c, 11, 70, 127
1, 169149, Note_off_c, 6, 42, 127
1, 169151, Note_on_c, 1, 73, 127
1, 169151, Note_on_c, 6, 54, 127
1, 169293, Note_off_c, 6, 54, 127
1, 169293, Note_off_c, 1, 73, 127
1, 169295, Note_on_c, 11, 70, 127
1, 169295, Note_on_c, 1, 49, 127
1, 169437, Note_off_c, 1, 49, 127
1, 169437, Note_off_c, 11, 70, 127
1, 169439, Note_on_c, 1, 73, 127
1, 169439, Note_on_c, 6, 54, 127
1, 169581, Note_off_c, 6, 54, 127
1, 169581, Note_off_c, 1, 73, 127
1, 169583, Note_on_c, 6, 66, 127
1, 169583, Note_on_c, 11, 46, 127
1, 169725, Note_off_c, 11, 46, 127
1, 169725, Note_off_c, 6, 66, 127
1, 169727, Note_on_c, 11, 70, 127
1, 169727, Note_on_c, 1, 49, 127
1, 169869, Note_off_c, 1, 49, 127
1, 169869, Note_off_c, 11, 70, 127
1, 169871, Note_on_c, 1, 73, 127
1, 169871, Note_on_c, 11, 46, 127
1, 170013, Note_off_c, 11, 46, 127
1, 170013, Note_off_c, 1, 73, 127
1, 170015, Note_on_c, 6, 78, 127
1, 170015, Note_on_c, 1, 49, 127
1, 170157, Note_off_c, 1, 49, 127
1, 170157, Note_off_c, 6, 78, 127
1, 170159, Note_on_c, 4, 76, 127
1, 170159, Note_on_c, 6, 42, 127
1, 170301, Note_off_c, 6, 42, 127
1, 170303, Note_on_c, 1, 73, 127
1, 170303, Note_on_c, 11, 46, 127
1, 170444, Note_off_c, 4, 76, 127
1, 170446, Note_off_c, 11, 46, 127
1, 170446, Note_off_c, 1, 73, 127
1, 170448, Note_on_c, 6, 66, 127
1, 170448, Note_on_c, 1, 49, 127
1, 170590, Note_off_c, 1, 49, 127
1, 170590, Note_off_c, 6, 66, 127
1, 170592, Note_on_c, 4, 76, 127
1, 170592, Note_on_c, 6, 54, 127
1, 170734, Note_off_c, 6, 54, 127
1, 170734, Note_off_c, 4, 76, 127
1, 170736, Note_on_c, 2, 74, 127
1, 170736, Note_on_c, 12, 47, 127
1, 170878, Note_off_c, 2, 74, 127
1, 170880, Note_on_c, 12, 71, 127
1, 171022, Note_off_c, 12, 71, 127
1, 171022, Note_off_c, 12, 47, 127
1, 171024, Note_on_c, 2, 74, 127
1, 171024, Note_on_c, 12, 59, 127
1, 171166, Note_off_c, 2, 74, 127
1, 171168, Note_on_c, 6, 78, 127
1, 171310, Note_off_c, 6, 78, 127
1, 171310, Note_off_c, 12, 59, 127
1, 171312, Note_on_c, 7, 79, 127
1, 171312, Note_on_c, 4, 52, 127
1, 171456, Note_on_c, 2, 74, 127
1, 171598, Note_off_c, 2, 74, 127
1, 171598, Note_off_c, 4, 52, 127
1, 171600, Note_on_c, 12, 71, 127
1, 171600, Note_on_c, 7, 55, 127
1, 171672, Note_off_c, 7, 79, 127
1, 171742, Note_off_c, 12, 71, 127
1, 171744, Note_on_c, 7, 79, 127
1, 171886, Note_off_c, 7, 79, 127
1, 171886, Note_off_c, 7, 55, 127
1, 171888, Note_on_c, 1, 73, 127
1, 171888, Note_on_c, 10, 45, 127
1, 172030, Note_off_c, 1, 73, 127
1, 172032, Note_on_c, 12, 71, 127
1, 172174, Note_off_c, 12, 71, 127
1, 172174, Note_off_c, 10, 45, 127
1, 172176, Note_on_c, 10, 69, 127
1, 172176, Note_on_c, 10, 57, 127
1, 172318, Note_off_c, 10, 69, 127
1, 172320, Note_on_c, 1, 73, 127
1, 172462, Note_off_c, 1, 73, 127
1, 172462, Note_off_c, 10, 57, 127
1, 172464, Note_on_c, 6, 78, 127
1, 172464, Note_on_c, 2, 50, 127
1, 172608, Note_on_c, 1, 73, 127
1, 172750, Note_off_c, 1, 73, 127
1, 172750, Note_off_c, 2, 50, 127
1, 172752, Note_on_c, 10, 69, 127
1, 172752, Note_on_c, 6, 54, 127
1, 172824, Note_off_c, 6, 78, 127
1, 172894, Note_off_c, 10, 69, 127
1, 172896, Note_on_c, 6, 78, 127
1, 173038, Note_off_c, 6, 78, 127
1, 173038, Note_off_c, 6, 54, 127
1, 173040, Note_on_c, 12, 71, 127
1, 173040, Note_on_c, 7, 43, 127
1, 173182, Note_off_c, 12, 71, 127
1, 173184, Note_on_c, 10, 69, 127
1, 173326, Note_off_c, 10, 69, 127
1, 173326, Note_off_c, 7, 43, 127
1, 173328, Note_on_c, 7, 67, 127
1, 173328, Note_on_c, 7, 55, 127
1, 173470, Note_off_c, 7, 67, 127
1, 173472, Note_on_c, 12, 71, 127
1, 173614, Note_off_c, 12, 71, 127
1, 173614, Note_off_c, 7, 55, 127
1, 173616, Note_on_c, 4, 76, 127
1, 173616, Note_on_c, 1, 49, 127
1, 173760, Note_on_c, 12, 71, 127
1, 173902, Note_off_c, 12, 71, 127
1, 173902, Note_off_c, 1, 49, 127
1, 173904, Note_on_c, 7, 67, 127
1, 173904, Note_on_c, 4, 52, 127
1, 173976, Note_off_c, 4, 76, 127
1, 174046, Note_off_c, 7, 67, 127
1, 174048, Note_on_c, 4, 76, 127
1, 174190, Note_off_c, 4, 76, 127
1, 174190, Note_off_c, 4, 52, 127
1, 174192, Note_on_c, 10, 69, 127
1, 174192, Note_on_c, 6, 42, 127
1, 174334, Note_off_c, 10, 69, 127
1, 174336, Note_on_c, 7, 67, 127
1, 174478, Note_off_c, 7, 67, 127
1, 174478, Note_off_c, 6, 42, 127
1, 174480, Note_on_c, 6, 66, 127
1, 174480, Note_on_c, 6, 54, 127
1, 174622, Note_off_c, 6, 66, 127
1, 174624, Note_on_c, 10, 69, 127
1, 174766, Note_off_c, 10, 69, 127
1, 174766, Note_off_c, 6, 54, 127
1, 174768, Note_on_c, 2, 74, 127
1, 174768, Note_on_c, 12, 47, 127
1, 174912, Note_on_c, 10, 69, 127
1, 175054, Note_off_c, 10, 69, 127
1, 175054, Note_off_c, 12, 47, 127
1, 175056, Note_on_c, 6, 66, 127
1, 175056, Note_on_c, 2, 50, 127
1, 175128, Note_off_c, 2, 74, 127
1, 175198, Note_off_c, 6, 66, 127
1, 175200, Note_on_c, 2, 74, 127
1, 175342, Note_off_c, 2, 74, 127
1, 175342, Note_off_c, 2, 50, 127
1, 175344, Note_on_c, 7, 67, 127
1, 175344, Note_on_c, 4, 40, 127
1, 175486, Note_off_c, 7, 67, 127
1, 175488, Note_on_c, 6, 66, 127
1, 175630, Note_off_c, 6, 66, 127
1, 175630, Note_off_c, 4, 40, 127
1, 175632, Note_on_c, 4, 64, 127
1, 175632, Note_on_c, 4, 52, 127
1, 175774, Note_off_c, 4, 64, 127
1, 175776, Note_on_c, 7, 67, 127
1, 175918, Note_off_c, 7, 67, 127
1, 175918, Note_off_c, 4, 52, 127
1, 175920, Note_on_c, 1, 73, 127
1, 175920, Note_on_c, 10, 45, 127
1, 176064, Note_on_c, 7, 67, 127
1, 176205, Note_off_c, 1, 73, 127
1, 176207, Note_off_c, 7, 67, 127
1, 176207, Note_off_c, 10, 45, 127
1, 176209, Note_on_c, 4, 64, 127
1, 176209, Note_on_c, 1, 49, 127
1, 176351, Note_off_c, 4, 64, 127
1, 176353, Note_on_c, 7, 67, 127
1, 176495, Note_off_c, 7, 67, 127
1, 176495, Note_off_c, 1, 49, 127
1, 176497, Note_on_c, 6, 66, 127
1, 176497, Note_on_c, 2, 38, 127
1, 176639, Note_off_c, 6, 66, 127
1, 176641, Note_on_c, 4, 64, 127
1, 176783, Note_off_c, 4, 64, 127
1, 176783, Note_off_c, 2, 38, 127
1, 176785, Note_on_c, 2, 62, 127
1, 176785, Note_on_c, 6, 54, 127
1, 176927, Note_off_c, 6, 54, 127
1, 176927, Note_off_c, 2, 62, 127
1, 176929, Note_on_c, 6, 66, 127
1, 176929, Note_on_c, 4, 52, 127
1, 177071, Note_off_c, 4, 52, 127
1, 177071, Note_off_c, 6, 66, 127
1, 177073, Note_on_c, 12, 71, 127
1, 177073, Note_on_c, 2, 50, 127
1, 177215, Note_off_c, 2, 50, 127
1, 177215, Note_off_c, 12, 71, 127
1, 177217, Note_on_c, 6, 66, 127
1, 177217, Note_on_c, 1, 49, 127
1, 177359, Note_off_c, 1, 49, 127
1, 177359, Note_off_c, 6, 66, 127
1, 177361, Note_on_c, 2, 62, 127
1, 177361, Note_on_c, 12, 47, 127
1, 177503, Note_off_c, 12, 47, 127
1, 177503, Note_off_c, 2, 62, 127
1, 177505, Note_on_c, 12, 71, 127
1, 177505, Note_on_c, 2, 38, 127
1, 177647, Note_off_c, 2, 38, 127
1, 177647, Note_off_c, 12, 71, 127
1, 177649, Note_on_c, 8, 68, 127
1, 177649, Note_on_c, 4, 52, 127
1, 177791, Note_off_c, 4, 52, 127
1, 177791, Note_off_c, 8, 68, 127
1, 177793, Note_on_c, 6, 66, 127
1, 177793, Note_on_c, 2, 50, 127
1, 177935, Note_off_c, 2, 50, 127
1, 177935, Note_off_c, 6, 66, 127
1, 177937, Note_on_c, 4, 64, 127
1, 177937, Note_on_c, 1, 49, 127
1, 178079, Note_off_c, 1, 49, 127
1, 178079, Note_off_c, 4, 64, 127
1, 178081, Note_on_c, 1, 73, 127
1, 178081, Note_on_c, 4, 40, 127
1, 178223, Note_off_c, 4, 40, 127
1, 178223, Note_off_c, 1, 73, 127
1, 178225, Note_on_c, 11, 70, 127
1, 178225, Note_on_c, 6, 54, 127
1, 178367, Note_off_c, 6, 54, 127
1, 178367, Note_off_c, 11, 70, 127
1, 178369, Note_on_c, 8, 68, 127
1, 178369, Note_on_c, 4, 52, 127
1, 178511, Note_off_c, 4, 52, 127
1, 178511, Note_off_c, 8, 68, 127
1, 178513, Note_on_c, 6, 66, 127
1, 178513, Note_on_c, 2, 50, 127
1, 178655, Note_off_c, 2, 50, 127
1, 178655, Note_off_c, 6, 66, 127
1, 178657, Note_on_c, 2, 74, 127
1, 178657, Note_on_c, 6, 42, 127
1, 178799, Note_off_c, 6, 42, 127
1, 178799, Note_off_c, 2, 74, 127
1, 178801, Note_on_c, 12, 71, 127
1, 178801, Note_on_c, 8, 56, 127
1, 178943, Note_off_c, 8, 56, 127
1, 178943, Note_off_c, 12, 71, 127
1, 178945, Note_on_c, 11, 70, 127
1, 178945, Note_on_c, 6, 54, 127
1, 179087, Note_off_c, 6, 54, 127
1, 179087, Note_off_c, 11, 70, 127
1, 179089, Note_on_c, 8, 68, 127
1, 179089, Note_on_c, 4, 52, 127
1, 179231, Note_off_c, 4, 52, 127
1, 179231, Note_off_c, 8, 68, 127
1, 179233, Note_on_c, 4, 76, 127
1, 179233, Note_on_c, 8, 44, 127
1, 179375, Note_off_c, 8, 44, 127
1, 179375, Note_off_c, 4, 76, 127
1, 179377, Note_on_c, 1, 73, 127
1, 179377, Note_on_c, 11, 58, 127
1, 179519, Note_off_c, 11, 58, 127
1, 179519, Note_off_c, 1, 73, 127
1, 179521, Note_on_c, 12, 71, 127
1, 179521, Note_on_c, 8, 56, 127
1, 179663, Note_off_c, 8, 56, 127
1, 179663, Note_off_c, 12, 71, 127
1, 179665, Note_on_c, 11, 70, 127
1, 179665, Note_on_c, 6, 54, 127
1, 179807, Note_off_c, 6, 54, 127
1, 179807, Note_off_c, 11, 70, 127
1, 179809, Note_on_c, 6, 78, 127
1, 179809, Note_on_c, 11, 46, 127
1, 179951, Note_off_c, 11, 46, 127
1, 179951, Note_off_c, 6, 78, 127
1, 179953, Note_on_c, 2, 74, 127
1, 179953, Note_on_c, 12, 59, 127
1, 180095, Note_off_c, 12, 59, 127
1, 180097, Note_on_c, 1, 73, 127
1, 180097, Note_on_c, 10, 57, 127
1, 180239, Note_off_c, 10, 57, 127
1, 180239, Note_off_c, 1, 73, 127
1, 180241, Note_on_c, 12, 71, 127
1, 180241, Note_on_c, 7, 55, 127
1, 180358, Note_off_c, 2, 74, 127
1, 180384, Note_off_c, 7, 55, 127
1, 180384, Note_off_c, 12, 71, 127
1, 180386, Note_on_c, 2, 74, 127
1, 180386, Note_on_c, 6, 54, 127
1, 180528, Note_off_c, 6, 54, 127
1, 180528, Note_off_c, 2, 74, 127
1, 180530, Note_on_c, 7, 79, 127
1, 180530, Note_on_c, 4, 52, 127
1, 180672, Note_off_c, 4, 52, 127
1, 180674, Note_on_c, 1, 73, 127
1, 180674, Note_on_c, 7, 55, 127
1, 180740, Note_off_c, 7, 79, 127
1, 180816, Note_off_c, 7, 55, 127
1, 180816, Note_off_c, 1, 73, 127
1, 180818, Note_on_c, 2, 74, 127
1, 180818, Note_on_c, 6, 54, 127
1, 180960, Note_off_c, 6, 54, 127
1, 180962, Note_on_c, 12, 71, 127
1, 180962, Note_on_c, 4, 52, 127
1, 181103, Note_off_c, 2, 74, 127
1, 181105, Note_off_c, 4, 52, 127
1, 181105, Note_off_c, 12, 71, 127
1, 181107, Note_on_c, 11, 70, 127
1, 181107, Note_on_c, 6, 54, 127
1, 181249, Note_off_c, 11, 70, 127
1, 181251, Note_on_c, 8, 68, 127
1, 181393, Note_off_c, 8, 68, 127
1, 181393, Note_off_c, 6, 54, 127
1, 181395, Note_on_c, 6, 66, 127
1, 181395, Note_on_c, 6, 42, 127
1, 181537, Note_off_c, 6, 66, 127
1, 181539, Note_on_c, 6, 78, 127
1, 181681, Note_off_c, 6, 78, 127
1, 181681, Note_off_c, 6, 42, 127
1, 181683, Note_on_c, 1, 73, 127
1, 181683, Note_on_c, 11, 46, 127
1, 181825, Note_off_c, 1, 73, 127
1, 181827, Note_on_c, 6, 78, 127
1, 181969, Note_off_c, 6, 78, 127
1, 181969, Note_off_c, 11, 46, 127
1, 181971, Note_on_c, 11, 70, 127
1, 181971, Note_on_c, 1, 49, 127
1, 182113, Note_off_c, 11, 70, 127
1, 182115, Note_on_c, 1, 73, 127
1, 182257, Note_off_c, 1, 73, 127
1, 182257, Note_off_c, 1, 49, 127
1, 182259, Note_on_c, 11, 70, 127
1, 182259, Note_on_c, 6, 54, 127
1, 182401, Note_off_c, 11, 70, 127
1, 182403, Note_on_c, 8, 68, 127
1, 182545, Note_off_c, 8, 68, 127
1, 182545, Note_off_c, 6, 54, 127
1, 182547, Note_on_c, 6, 66, 127
1, 182547, Note_on_c, 8, 56, 127
1, 182689, Note_off_c, 8, 56, 127
1, 182689, Note_off_c, 6, 66, 127
1, 182691, Note_on_c, 6, 78, 127
1, 182691, Note_on_c, 11, 58, 127
1, 182833, Note_off_c, 11, 58, 127
1, 182833, Note_off_c, 6, 78, 127
1, 182835, Note_on_c, 1, 73, 127
1, 182835, Note_on_c, 12, 59, 127
1, 182977, Note_off_c, 12, 59, 127
1, 182977, Note_off_c, 1, 73, 127
1, 182979, Note_on_c, 6, 78, 127
1, 182979, Note_on_c, 1, 61, 127
1, 183121, Note_off_c, 1, 61, 127
1, 183121, Note_off_c, 6, 78, 127
1, 183123, Note_on_c, 11, 70, 127
1, 183123, Note_on_c, 2, 62, 127
1, 183265, Note_off_c, 2, 62, 127
1, 183265, Note_off_c, 11, 70, 127
1, 183267, Note_on_c, 1, 73, 127
1, 183267, Note_on_c, 4, 64, 127
1, 183409, Note_off_c, 4, 64, 127
1, 183409, Note_off_c, 1, 73, 127
1, 183411, Note_on_c, 11, 70, 127
1, 183411, Note_on_c, 6, 66, 127
1, 183553, Note_off_c, 11, 70, 127
1, 183555, Note_on_c, 8, 68, 127
1, 183697, Note_off_c, 8, 68, 127
1, 183697, Note_off_c, 6, 66, 127
1, 183699, Note_on_c, 6, 66, 127
1, 183699, Note_on_c, 1, 61, 127
1, 183841, Note_off_c, 6, 66, 127
1, 183843, Note_on_c, 6, 78, 127
1, 183985, Note_off_c, 6, 78, 127
1, 183985, Note_off_c, 1, 61, 127
1, 183987, Note_on_c, 1, 73, 127
1, 183987, Note_on_c, 11, 58, 127
1, 184129, Note_off_c, 1, 73, 127
1, 184131, Note_on_c, 6, 78, 127
1, 184273, Note_off_c, 6, 78, 127
1, 184273, Note_off_c, 11, 58, 127
1, 184275, Note_on_c, 11, 70, 127
1, 184275, Note_on_c, 1, 61, 127
1, 184417, Note_off_c, 11, 70, 127
1, 184419, Note_on_c, 1, 73, 127
1, 184561, Note_off_c, 1, 73, 127
1, 184561, Note_off_c, 1, 61, 127
1, 184563, Note_on_c, 11, 70, 127
1, 184563, Note_on_c, 6, 54, 127
1, 184705, Note_off_c, 11, 70, 127
1, 184707, Note_on_c, 6, 66, 127
1, 184849, Note_off_c, 6, 66, 127
1, 184849, Note_off_c, 6, 54, 127
1, 184851, Note_on_c, 11, 70, 127
1, 184851, Note_on_c, 1, 49, 127
1, 184993, Note_off_c, 11, 70, 127
1, 184995, Note_on_c, 1, 73, 127
1, 185137, Note_off_c, 1, 73, 127
1, 185137, Note_off_c, 1, 49, 127
1, 185139, Note_on_c, 6, 78, 127
1, 185139, Note_on_c, 11, 46, 127
1, 185283, Note_on_c, 6, 66, 127
1, 185424, Note_off_c, 6, 78, 127
1, 185426, Note_off_c, 6, 66, 127
1, 185426, Note_off_c, 11, 46, 127
1, 185428, Note_on_c, 11, 70, 127
1, 185428, Note_on_c, 1, 49, 127
1, 185570, Note_off_c, 11, 70, 127
1, 185572, Note_on_c, 1, 73, 127
1, 185714, Note_off_c, 1, 73, 127
1, 185714, Note_off_c, 1, 49, 127
1, 185716, Note_on_c, 6, 78, 127
1, 185716, Note_on_c, 6, 42, 127
1, 185860, Note_on_c, 1, 73, 127
1, 186004, Note_on_c, 11, 70, 127
1, 186136, Note_off_c, 6, 78, 127
1, 186148, Note_on_c, 6, 66, 127
1, 186280, Note_off_c, 1, 73, 127
1, 186292, Note_on_c, 1, 61, 127
1, 186424, Note_off_c, 11, 70, 127
1, 186433, Note_off_c, 6, 66, 127
1, 186436, Note_on_c, 6, 66, 127
1, 186577, Note_off_c, 1, 61, 127
1, 186579, Note_off_c, 6, 66, 127
1, 186581, Note_on_c, 1, 61, 127
1, 186723, Note_off_c, 1, 61, 127
1, 186725, Note_on_c, 11, 58, 127
1, 186867, Note_off_c, 11, 58, 127
1, 186867, Note_off_c, 6, 42, 127
1, 186869, Note_on_c, 6, 54, 127
1, 187013, Note_on_c, 4, 52, 127
1, 187155, Note_off_c, 4, 52, 127
1, 187157, Note_on_c, 2, 50, 127
1, 187299, Note_off_c, 2, 50, 127
1, 187301, Note_on_c, 1, 49, 127
1, 187439, Note_off_c, 6, 54, 127
1, 187443, Note_off_c, 1, 49, 127
1, 187445, Note_on_c, 12, 47, 127
1, 187587, Note_off_c, 12, 47, 127
1, 187589, Note_on_c, 11, 46, 127
1, 187731, Note_off_c, 11, 46, 127
1, 187733, Note_on_c, 8, 44, 127
1, 187882, Note_off_c, 8, 44, 127
1, 187883, Note_on_c, 6, 42, 127
1, 188033, Note_off_c, 6, 42, 127
1, 188037, Note_on_c, 5, 41, 127
1, 188037, Note_on_c, 2, 74, 127
1, 188037, Note_on_c, 12, 71, 127
1, 188037, Note_on_c, 8, 68, 127
1, 188181, Note_off_c, 8, 68, 127
1, 188181, Note_off_c, 12, 71, 127
1, 188181, Note_off_c, 2, 74, 127
1, 188183, Note_on_c, 5, 53, 127
1, 188183, Note_on_c, 12, 71, 127
1, 188183, Note_on_c, 8, 68, 127
1, 188183, Note_on_c, 2, 74, 127
1, 188311, Note_off_c, 5, 41, 127
1, 188328, Note_off_c, 2, 74, 127
1, 188328, Note_off_c, 8, 68, 127
1, 188328, Note_off_c, 12, 71, 127
1, 188330, Note_on_c, 5, 41, 127
1, 188330, Note_on_c, 12, 71, 127
1, 188330, Note_on_c, 8, 68, 127
1, 188330, Note_on_c, 2, 74, 127
1, 188458, Note_off_c, 5, 53, 127
1, 188475, Note_off_c, 2, 74, 127
1, 188475, Note_off_c, 8, 68, 127
1, 188475, Note_off_c, 12, 71, 127
1, 188477, Note_on_c, 5, 53, 127
1, 188477, Note_on_c, 12, 71, 127
1, 188477, Note_on_c, 8, 68, 127
1, 188477, Note_on_c, 2, 74, 127
1, 188605, Note_off_c, 5, 41, 127
1, 188622, Note_off_c, 2, 74, 127
1, 188622, Note_off_c, 8, 68, 127
1, 188622, Note_off_c, 12, 71, 127
1, 188624, Note_on_c, 5, 41, 127
1, 188624, Note_on_c, 12, 71, 127
1, 188624, Note_on_c, 2, 74, 127
1, 188624, Note_on_c, 8, 68, 127
1, 188752, Note_off_c, 5, 53, 127
1, 188769, Note_off_c, 8, 68, 127
1, 188769, Note_off_c, 2, 74, 127
1, 188769, Note_off_c, 12, 71, 127
1, 188771, Note_on_c, 5, 53, 127
1, 188771, Note_on_c, 12, 71, 127
1, 188771, Note_on_c, 8, 68, 127
1, 188771, Note_on_c, 2, 74, 127
1, 188899, Note_off_c, 5, 41, 127
1, 188916, Note_off_c, 2, 74, 127
1, 188916, Note_off_c, 8, 68, 127
1, 188916, Note_off_c, 12, 71, 127
1, 188918, Note_on_c, 5, 41, 127
1, 188918, Note_on_c, 12, 71, 127
1, 188918, Note_on_c, 8, 68, 127
1, 188918, Note_on_c, 2, 74, 127
1, 189046, Note_off_c, 5, 53, 127
1, 189063, Note_off_c, 2, 74, 127
1, 189063, Note_off_c, 8, 68, 127
1, 189063, Note_off_c, 12, 71, 127
1, 189065, Note_on_c, 5, 53, 127
1, 189065, Note_on_c, 8, 68, 127
1, 189065, Note_on_c, 12, 71, 127
1, 189065, Note_on_c, 2, 74, 127
1, 189193, Note_off_c, 5, 41, 127
1, 189210, Note_off_c, 2, 74, 127
1, 189210, Note_off_c, 12, 71, 127
1, 189210, Note_off_c, 8, 68, 127
1, 189210, Note_off_c, 5, 53, 127
1, 189212, Note_on_c, 6, 42, 127
1, 189212, Note_on_c, 1, 61, 127
1, 189212, Note_on_c, 1, 73, 127
1, 189212, Note_on_c, 6, 66, 127
1, 189212, Note_on_c, 11, 70, 127
1, 189356, Note_off_c, 11, 70, 127
1, 189356, Note_off_c, 6, 66, 127
1, 189356, Note_off_c, 1, 73, 127
1, 189356, Note_off_c, 1, 61, 127
1, 189356, Note_off_c, 6, 42, 127
1, 189358, Note_on_c, 6, 54, 127
1, 189358, Note_on_c, 1, 61, 127
1, 189358, Note_on_c, 6, 66, 127
1, 189358, Note_on_c, 11, 70, 127
1, 189358, Note_on_c, 1, 73, 127
1, 189502, Note_off_c, 1, 73, 127
1, 189502, Note_off_c, 11, 70, 127
1, 189502, Note_off_c, 6, 66, 127
1, 189502, Note_off_c, 1, 61, 127
1, 189502, Note_off_c, 6, 54, 127
1, 189504, Note_on_c, 1, 49, 127
1, 189504, Note_on_c, 1, 61, 127
1, 189504, Note_on_c, 6, 66, 127
1, 189504, Note_on_c, 11, 70, 127
1, 189504, Note_on_c, 1, 73, 127
1, 189648, Note_off_c, 1, 73, 127
1, 189648, Note_off_c, 11, 70, 127
1, 189648, Note_off_c, 6, 66, 127
1, 189648, Note_off_c, 1, 61, 127
1, 189648, Note_off_c, 1, 49, 127
1, 189650, Note_on_c, 6, 54, 127
1, 189650, Note_on_c, 1, 61, 127
1, 189650, Note_on_c, 6, 66, 127
1, 189650, Note_on_c, 11, 70, 127
1, 189650, Note_on_c, 1, 73, 127
1, 189794, Note_off_c, 1, 73, 127
1, 189794, Note_off_c, 11, 70, 127
1, 189794, Note_off_c, 6, 66, 127
1, 189794, Note_off_c, 1, 61, 127
1, 189794, Note_off_c, 6, 54, 127
1, 189796, Note_on_c, 11, 46, 127
1, 189796, Note_on_c, 1, 61, 127
1, 189796, Note_on_c, 6, 66, 127
1, 189796, Note_on_c, 11, 70, 127
1, 189796, Note_on_c, 1, 73, 127
1, 189940, Note_off_c, 1, 73, 127
1, 189940, Note_off_c, 11, 70, 127
1, 189940, Note_off_c, 6, 66, 127
1, 189940, Note_off_c, 1, 61, 127
1, 189940, Note_off_c, 11, 46, 127
1, 189942, Note_on_c, 1, 49, 127
1, 189942, Note_on_c, 1, 61, 127
1, 189942, Note_on_c, 6, 66, 127
1, 189942, Note_on_c, 11, 70, 127
1, 189942, Note_on_c, 1, 73, 127
1, 190086, Note_off_c, 1, 73, 127
1, 190086, Note_off_c, 11, 70, 127
1, 190086, Note_off_c, 6, 66, 127
1, 190086, Note_off_c, 1, 61, 127
1, 190086, Note_off_c, 1, 49, 127
1, 190088, Note_on_c, 6, 42, 127
1, 190088, Note_on_c, 1, 61, 127
1, 190088, Note_on_c, 6, 66, 127
1, 190088, Note_on_c, 11, 70, 127
1, 190088, Note_on_c, 1, 73, 127
1, 190232, Note_off_c, 1, 73, 127
1, 190232, Note_off_c, 11, 70, 127
1, 190232, Note_off_c, 6, 66, 127
1, 190232, Note_off_c, 1, 61, 127
1, 190232, Note_off_c, 6, 42, 127
1, 190234, Note_on_c, 6, 54, 127
1, 190234, Note_on_c, 1, 61, 127
1, 190234, Note_on_c, 6, 66, 127
1, 190234, Note_on_c, 11, 70, 127
1, 190234, Note_on_c, 1, 73, 127
1, 190378, Note_off_c, 1, 73, 127
1, 190378, Note_off_c, 11, 70, 127
1, 190378, Note_off_c, 6, 66, 127
1, 190378, Note_off_c, 1, 61, 127
1, 190378, Note_off_c, 6, 54, 127
1, 190380, Note_on_c, 5, 41, 127
1, 190380, Note_on_c, 8, 68, 127
1, 190380, Note_on_c, 12, 71, 127
1, 190380, Note_on_c, 2, 74, 127
1, 190524, Note_off_c, 2, 74, 127
1, 190524, Note_off_c, 12, 71, 127
1, 190524, Note_off_c, 8, 68, 127
1, 190526, Note_on_c, 5, 53, 127
1, 190526, Note_on_c, 2, 74, 127
1, 190526, Note_on_c, 8, 68, 127
1, 190526, Note_on_c, 12, 71, 127
1, 190654, Note_off_c, 5, 41, 127
1, 190671, Note_off_c, 12, 71, 127
1, 190671, Note_off_c, 8, 68, 127
1, 190671, Note_off_c, 2, 74, 127
1, 190673, Note_on_c, 5, 41, 127
1, 190673, Note_on_c, 2, 74, 127
1, 190673, Note_on_c, 12, 71, 127
1, 190673, Note_on_c, 8, 68, 127
1, 190801, Note_off_c, 5, 53, 127
1, 190818, Note_off_c, 8, 68, 127
1, 190818, Note_off_c, 12, 71, 127
1, 190818, Note_off_c, 2, 74, 127
1, 190820, Note_on_c, 5, 53, 127
1, 190820, Note_on_c, 8, 68, 127
1, 190820, Note_on_c, 12, 71, 127
1, 190820, Note_on_c, 2, 74, 127
1, 190948, Note_off_c, 5, 41, 127
1, 190965, Note_off_c, 2, 74, 127
1, 190965, Note_off_c, 12, 71, 127
1, 190965, Note_off_c, 8, 68, 127
1, 190967, Note_on_c, 5, 41, 127
1, 190967, Note_on_c, 12, 71, 127
1, 190967, Note_on_c, 8, 68, 127
1, 190967, Note_on_c, 2, 74, 127
1, 191095, Note_off_c, 5, 53, 127
1, 191112, Note_off_c, 2, 74, 127
1, 191112, Note_off_c, 8, 68, 127
1, 191112, Note_off_c, 12, 71, 127
1, 191114, Note_on_c, 5, 53, 127
1, 191114, Note_on_c, 12, 71, 127
1, 191114, Note_on_c, 8, 68, 127
1, 191114, Note_on_c, 2, 74, 127
1, 191242, Note_off_c, 5, 41, 127
1, 191259, Note_off_c, 2, 74, 127
1, 191259, Note_off_c, 8, 68, 127
1, 191259, Note_off_c, 12, 71, 127
1, 191261, Note_on_c, 5, 41, 127
1, 191261, Note_on_c, 12, 71, 127
1, 191261, Note_on_c, 8, 68, 127
1, 191261, Note_on_c, 2, 74, 127
1, 191389, Note_off_c, 5, 53, 127
1, 191406, Note_off_c, 2, 74, 127
1, 191406, Note_off_c, 8, 68, 127
1, 191406, Note_off_c, 12, 71, 127
1, 191408, Note_on_c, 5, 53, 127
1, 191408, Note_on_c, 2, 74, 127
1, 191408, Note_on_c, 12, 71, 127
1, 191408, Note_on_c, 8, 68, 127
1, 191536, Note_off_c, 5, 41, 127
1, 191553, Note_off_c, 8, 68, 127
1, 191553, Note_off_c, 12, 71, 127
1, 191553, Note_off_c, 2, 74, 127
1, 191553, Note_off_c, 5, 53, 127
1, 191555, Note_on_c, 6, 42, 127
1, 191555, Note_on_c, 1, 61, 127
1, 191555, Note_on_c, 6, 66, 127
1, 191555, Note_on_c, 11, 70, 127
1, 191555, Note_on_c, 1, 73, 127
1, 191699, Note_off_c, 1, 73, 127
1, 191699, Note_off_c, 11, 70, 127
1, 191699, Note_off_c, 6, 66, 127
1, 191699, Note_off_c, 1, 61, 127
1, 191699, Note_off_c, 6, 42, 127
1, 191701, Note_on_c, 6, 54, 127
1, 191701, Note_on_c, 1, 61, 127
1, 191701, Note_on_c, 6, 66, 127
1, 191701, Note_on_c, 11, 70, 127
1, 191701, Note_on_c, 1, 73, 127
1, 191845, Note_off_c, 1, 73, 127
1, 191845, Note_off_c, 11, 70, 127
1, 191845, Note_off_c, 6, 66, 127
1, 191845, Note_off_c, 1, 61, 127
1, 191845, Note_off_c, 6, 54, 127
1, 191847, Note_on_c, 1, 49, 127
1, 191847, Note_on_c, 1, 61, 127
1, 191847, Note_on_c, 6, 66, 127
1, 191847, Note_on_c, 11, 70, 127
1, 191847, Note_on_c, 1, 73, 127
1, 191991, Note_off_c, 1, 73, 127
1, 191991, Note_off_c, 11, 70, 127
1, 191991, Note_off_c, 6, 66, 127
1, 191991, Note_off_c, 1, 61, 127
1, 191991, Note_off_c, 1, 49, 127
1, 191993, Note_on_c, 6, 54, 127
1, 191993, Note_on_c, 1, 61, 127
1, 191993, Note_on_c, 6, 66, 127
1, 191993, Note_on_c, 11, 70, 127
1, 191993, Note_on_c, 1, 73, 127
1, 192137, Note_off_c, 1, 73, 127
1, 192137, Note_off_c, 11, 70, 127
1, 192137, Note_off_c, 6, 66, 127
1, 192137, Note_off_c, 1, 61, 127
1, 192137, Note_off_c, 6, 54, 127
1, 192139, Note_on_c, 11, 46, 127
1, 192139, Note_on_c, 1, 61, 127
1, 192139, Note_on_c, 6, 66, 127
1, 192139, Note_on_c, 11, 70, 127
1, 192139, Note_on_c, 1, 73, 127
1, 192283, Note_off_c, 1, 73, 127
1, 192283, Note_off_c, 11, 70, 127
1, 192283, Note_off_c, 6, 66, 127
1, 192283, Note_off_c, 1, 61, 127
1, 192283, Note_off_c, 11, 46, 127
1, 192285, Note_on_c, 1, 49, 127
1, 192285, Note_on_c, 1, 61, 127
1, 192285, Note_on_c, 6, 66, 127
1, 192285, Note_on_c, 11, 70, 127
1, 192285, Note_on_c, 1, 73, 127
1, 192429, Note_off_c, 1, 73, 127
1, 192429, Note_off_c, 11, 70, 127
1, 192429, Note_off_c, 6, 66, 127
1, 192429, Note_off_c, 1, 61, 127
1, 192429, Note_off_c, 1, 49, 127
1, 192431, Note_on_c, 6, 42, 127
1, 192431, Note_on_c, 1, 61, 127
1, 192431, Note_on_c, 6, 66, 127
1, 192431, Note_on_c, 11, 70, 127
1, 192431, Note_on_c, 1, 73, 127
1, 192575, Note_off_c, 1, 73, 127
1, 192575, Note_off_c, 11, 70, 127
1, 192575, Note_off_c, 6, 66, 127
1, 192575, Note_off_c, 1, 61, 127
1, 192575, Note_off_c, 6, 42, 127
1, 192577, Note_on_c, 6, 54, 127
1, 192577, Note_on_c, 1, 61, 127
1, 192577, Note_on_c, 6, 66, 127
1, 192577, Note_on_c, 11, 70, 127
1, 192577, Note_on_c, 1, 73, 127
1, 192721, Note_off_c, 1, 73, 127
1, 192721, Note_off_c, 11, 70, 127
1, 192721, Note_off_c, 6, 66, 127
1, 192721, Note_off_c, 1, 61, 127
1, 192721, Note_off_c, 6, 54, 127
1, 192723, Note_on_c, 5, 41, 127
1, 192723, Note_on_c, 8, 68, 127
1, 192723, Note_on_c, 2, 74, 127
1, 192723, Note_on_c, 12, 71, 127
1, 192867, Note_off_c, 12, 71, 127
1, 192867, Note_off_c, 2, 74, 127
1, 192867, Note_off_c, 8, 68, 127
1, 192869, Note_on_c, 5, 53, 127
1, 192869, Note_on_c, 12, 71, 127
1, 192869, Note_on_c, 8, 68, 127
1, 192869, Note_on_c, 2, 74, 127
1, 193012, Note_off_c, 5, 41, 127
1, 193014, Note_off_c, 2, 74, 127
1, 193014, Note_off_c, 8, 68, 127
1, 193014, Note_off_c, 12, 71, 127
1, 193016, Note_on_c, 5, 41, 127
1, 193016, Note_on_c, 12, 71, 127
1, 193016, Note_on_c, 8, 68, 127
1, 193016, Note_on_c, 2, 74, 127
1, 193159, Note_off_c, 5, 53, 127
1, 193161, Note_off_c, 2, 74, 127
1, 193161, Note_off_c, 8, 68, 127
1, 193161, Note_off_c, 12, 71, 127
1, 193163, Note_on_c, 5, 53, 127
1, 193163, Note_on_c, 12, 71, 127
1, 193163, Note_on_c, 8, 68, 127
1, 193163, Note_on_c, 2, 74, 127
1, 193306, Note_off_c, 5, 41, 127
1, 193308, Note_off_c, 2, 74, 127
1, 193308, Note_off_c, 8, 68, 127
1, 193308, Note_off_c, 12, 71, 127
1, 193310, Note_on_c, 5, 41, 127
1, 193310, Note_on_c, 8, 68, 127
1, 193310, Note_on_c, 2, 74, 127
1, 193310, Note_on_c, 12, 71, 127
1, 193453, Note_off_c, 5, 53, 127
1, 193455, Note_off_c, 12, 71, 127
1, 193455, Note_off_c, 2, 74, 127
1, 193455, Note_off_c, 8, 68, 127
1, 193457, Note_on_c, 5, 53, 127
1, 193457, Note_on_c, 8, 68, 127
1, 193457, Note_on_c, 12, 71, 127
1, 193457, Note_on_c, 2, 74, 127
1, 193600, Note_off_c, 5, 41, 127
1, 193602, Note_off_c, 2, 74, 127
1, 193602, Note_off_c, 12, 71, 127
1, 193602, Note_off_c, 8, 68, 127
1, 193604, Note_on_c, 5, 41, 127
1, 193604, Note_on_c, 8, 68, 127
1, 193604, Note_on_c, 2, 74, 127
1, 193604, Note_on_c, 12, 71, 127
1, 193747, Note_off_c, 5, 53, 127
1, 193749, Note_off_c, 12, 71, 127
1, 193749, Note_off_c, 2, 74, 127
1, 193749, Note_off_c, 8, 68, 127
1, 193751, Note_on_c, 5, 53, 127
1, 193751, Note_on_c, 8, 68, 127
1, 193751, Note_on_c, 2, 74, 127
1, 193751, Note_on_c, 12, 71, 127
1, 193894, Note_off_c, 5, 41, 127
1, 193896, Note_off_c, 12, 71, 127
1, 193896, Note_off_c, 2, 74, 127
1, 193896, Note_off_c, 8, 68, 127
1, 193896, Note_off_c, 5, 53, 127
1, 193898, Note_on_c, 6, 42, 127
1, 193898, Note_on_c, 6, 66, 127
1, 193898, Note_on_c, 1, 61, 127
1, 193898, Note_on_c, 12, 71, 127
1, 193898, Note_on_c, 1, 73, 127
1, 194042, Note_off_c, 1, 73, 127
1, 194042, Note_off_c, 12, 71, 127
1, 194042, Note_off_c, 1, 61, 127
1, 194042, Note_off_c, 6, 66, 127
1, 194044, Note_on_c, 6, 54, 127
1, 194044, Note_on_c, 1, 61, 127
1, 194044, Note_on_c, 6, 66, 127
1, 194044, Note_on_c, 12, 71, 127
1, 194188, Note_off_c, 12, 71, 127
1, 194188, Note_off_c, 6, 66, 127
1, 194188, Note_off_c, 1, 61, 127
1, 194188, Note_off_c, 6, 54, 127
1, 194190, Note_on_c, 1, 49, 127
1, 194190, Note_on_c, 1, 61, 127
1, 194190, Note_on_c, 6, 66, 127
1, 194190, Note_on_c, 12, 71, 127
1, 194334, Note_off_c, 12, 71, 127
1, 194334, Note_off_c, 6, 66, 127
1, 194334, Note_off_c, 1, 61, 127
1, 194334, Note_off_c, 1, 49, 127
1, 194336, Note_on_c, 2, 50, 127
1, 194336, Note_on_c, 1, 61, 127
1, 194336, Note_on_c, 6, 66, 127
1, 194336, Note_on_c, 12, 71, 127
1, 194480, Note_off_c, 12, 71, 127
1, 194480, Note_off_c, 6, 66, 127
1, 194480, Note_off_c, 1, 61, 127
1, 194480, Note_off_c, 2, 50, 127
1, 194482, Note_on_c, 4, 52, 127
1, 194482, Note_on_c, 1, 61, 127
1, 194482, Note_on_c, 6, 66, 127
1, 194482, Note_on_c, 12, 71, 127
1, 194626, Note_off_c, 12, 71, 127
1, 194626, Note_off_c, 6, 66, 127
1, 194626, Note_off_c, 1, 61, 127
1, 194626, Note_off_c, 4, 52, 127
1, 194628, Note_on_c, 11, 46, 127
1, 194628, Note_on_c, 1, 61, 127
1, 194628, Note_on_c, 6, 66, 127
1, 194628, Note_on_c, 12, 71, 127
1, 194772, Note_off_c, 12, 71, 127
1, 194772, Note_off_c, 6, 66, 127
1, 194772, Note_off_c, 1, 61, 127
1, 194772, Note_off_c, 11, 46, 127
1, 194774, Note_on_c, 12, 47, 127
1, 194774, Note_on_c, 1, 61, 127
1, 194774, Note_on_c, 6, 66, 127
1, 194774, Note_on_c, 12, 71, 127
1, 194918, Note_off_c, 12, 71, 127
1, 194918, Note_off_c, 6, 66, 127
1, 194918, Note_off_c, 1, 61, 127
1, 194918, Note_off_c, 12, 47, 127
1, 194920, Note_on_c, 1, 49, 127
1, 194920, Note_on_c, 1, 61, 127
1, 194920, Note_on_c, 6, 66, 127
1, 194920, Note_on_c, 12, 71, 127
1, 195054, Note_off_c, 6, 42, 127
1, 195065, Note_off_c, 12, 71, 127
1, 195065, Note_off_c, 6, 66, 127
1, 195065, Note_off_c, 1, 61, 127
1, 195065, Note_off_c, 1, 49, 127
1, 195067, Note_on_c, 6, 42, 127
1, 195067, Note_on_c, 1, 73, 127
1, 195067, Note_on_c, 4, 64, 127
1, 195067, Note_on_c, 6, 66, 127
1, 195067, Note_on_c, 11, 70, 127
1, 195211, Note_off_c, 11, 70, 127
1, 195211, Note_off_c, 6, 66, 127
1, 195211, Note_off_c, 4, 64, 127
1, 195211, Note_off_c, 1, 73, 127
1, 195213, Note_on_c, 6, 54, 127
1, 195213, Note_on_c, 4, 64, 127
1, 195213, Note_on_c, 6, 66, 127
1, 195213, Note_on_c, 11, 70, 127
1, 195213, Note_on_c, 1, 73, 127
1, 195357, Note_off_c, 1, 73, 127
1, 195357, Note_off_c, 11, 70, 127
1, 195357, Note_off_c, 6, 66, 127
1, 195357, Note_off_c, 4, 64, 127
1, 195357, Note_off_c, 6, 54, 127
1, 195359, Note_on_c, 1, 49, 127
1, 195359, Note_on_c, 4, 64, 127
1, 195359, Note_on_c, 6, 66, 127
1, 195359, Note_on_c, 11, 70, 127
1, 195359, Note_on_c, 1, 73, 127
1, 195503, Note_off_c, 1, 73, 127
1, 195503, Note_off_c, 11, 70, 127
1, 195503, Note_off_c, 6, 66, 127
1, 195503, Note_off_c, 4, 64, 127
1, 195503, Note_off_c, 1, 49, 127
1, 195505, Note_on_c, 6, 54, 127
1, 195505, Note_on_c, 4, 64, 127
1, 195505, Note_on_c, 6, 66, 127
1, 195505, Note_on_c, 11, 70, 127
1, 195505, Note_on_c, 1, 73, 127
1, 195649, Note_off_c, 1, 73, 127
1, 195649, Note_off_c, 11, 70, 127
1, 195649, Note_off_c, 6, 66, 127
1, 195649, Note_off_c, 4, 64, 127
1, 195649, Note_off_c, 6, 54, 127
1, 195651, Note_on_c, 11, 46, 127
1, 195651, Note_on_c, 4, 64, 127
1, 195651, Note_on_c, 6, 66, 127
1, 195651, Note_on_c, 11, 70, 127
1, 195651, Note_on_c, 1, 73, 127
1, 195795, Note_off_c, 1, 73, 127
1, 195795, Note_off_c, 11, 70, 127
1, 195795, Note_off_c, 6, 66, 127
1, 195795, Note_off_c, 4, 64, 127
1, 195795, Note_off_c, 11, 46, 127
1, 195797, Note_on_c, 1, 49, 127
1, 195797, Note_on_c, 4, 64, 127
1, 195797, Note_on_c, 6, 66, 127
1, 195797, Note_on_c, 11, 70, 127
1, 195797, Note_on_c, 1, 73, 127
1, 195941, Note_off_c, 1, 73, 127
1, 195941, Note_off_c, 11, 70, 127
1, 195941, Note_off_c, 6, 66, 127
1, 195941, Note_off_c, 4, 64, 127
1, 195941, Note_off_c, 1, 49, 127
1, 195941, Note_off_c, 6, 42, 127
1, 195943, Note_on_c, 6, 42, 127
1, 195943, Note_on_c, 4, 64, 127
1, 195943, Note_on_c, 6, 66, 127
1, 195943, Note_on_c, 11, 70, 127
1, 195943, Note_on_c, 1, 73, 127
1, 196087, Note_off_c, 1, 73, 127
1, 196087, Note_off_c, 11, 70, 127
1, 196087, Note_off_c, 6, 66, 127
1, 196087, Note_off_c, 4, 64, 127
1, 196089, Note_on_c, 6, 54, 127
1, 196089, Note_on_c, 4, 64, 127
1, 196089, Note_on_c, 6, 66, 127
1, 196089, Note_on_c, 11, 70, 127
1, 196089, Note_on_c, 1, 73, 127
1, 196232, Note_off_c, 6, 42, 127
1, 196234, Note_off_c, 1, 73, 127
1, 196234, Note_off_c, 11, 70, 127
1, 196234, Note_off_c, 6, 66, 127
1, 196234, Note_off_c, 4, 64, 127
1, 196234, Note_off_c, 6, 54, 127
1, 196252, Note_on_c, 2, 62, 127
1, 196252, Note_on_c, 12, 71, 127
1, 196252, Note_on_c, 6, 66, 127
1, 196252, Note_on_c, 12, 47, 127
1, 196538, Note_off_c, 6, 66, 127
1, 196538, Note_off_c, 12, 71, 127
1, 196538, Note_off_c, 2, 62, 127
1, 196540, Note_on_c, 10, 69, 127
1, 196682, Note_off_c, 10, 69, 127
1, 196684, Note_on_c, 7, 67, 127
1, 196822, Note_off_c, 12, 47, 127
1, 196826, Note_off_c, 7, 67, 127
1, 196828, Note_on_c, 6, 66, 127
1, 196970, Note_off_c, 6, 66, 127
1, 196972, Note_on_c, 4, 64, 127
1, 197114, Note_off_c, 4, 64, 127
1, 197116, Note_on_c, 2, 62, 127
1, 197258, Note_off_c, 2, 62, 127
1, 197260, Note_on_c, 1, 61, 127
1, 197402, Note_off_c, 1, 61, 127
1, 197404, Note_on_c, 12, 59, 127
1, 197404, Note_on_c, 12, 47, 127
1, 197546, Note_off_c, 12, 59, 127
1, 197548, Note_on_c, 1, 61, 127
1, 197690, Note_off_c, 1, 61, 127
1, 197690, Note_off_c, 12, 47, 127
1, 197692, Note_on_c, 2, 62, 127
1, 197692, Note_on_c, 1, 49, 127
1, 197834, Note_off_c, 2, 62, 127
1, 197836, Note_on_c, 4, 64, 127
1, 197978, Note_off_c, 4, 64, 127
1, 197978, Note_off_c, 1, 49, 127
1, 197980, Note_on_c, 6, 66, 127
1, 197980, Note_on_c, 2, 50, 127
1, 198122, Note_off_c, 6, 66, 127
1, 198124, Note_on_c, 8, 68, 127
1, 198266, Note_off_c, 8, 68, 127
1, 198266, Note_off_c, 2, 50, 127
1, 198268, Note_on_c, 11, 70, 127
1, 198268, Note_on_c, 12, 47, 127
1, 198410, Note_off_c, 11, 70, 127
1, 198412, Note_on_c, 12, 71, 127
1, 198554, Note_off_c, 12, 71, 127
1, 198554, Note_off_c, 12, 47, 127
1, 198556, Note_on_c, 11, 70, 127
1, 198556, Note_on_c, 6, 54, 127
1, 198698, Note_off_c, 11, 70, 127
1, 198700, Note_on_c, 12, 71, 127
1, 198842, Note_off_c, 12, 71, 127
1, 198842, Note_off_c, 6, 54, 127
1, 198844, Note_on_c, 1, 73, 127
1, 198844, Note_on_c, 6, 42, 127
1, 198986, Note_off_c, 1, 73, 127
1, 198988, Note_on_c, 11, 70, 127
1, 199129, Note_off_c, 6, 42, 127
1, 199131, Note_off_c, 11, 70, 127
1, 199133, Note_on_c, 6, 66, 127
1, 199275, Note_off_c, 6, 66, 127
1, 199277, Note_on_c, 8, 68, 127
1, 199419, Note_off_c, 8, 68, 127
1, 199421, Note_on_c, 11, 70, 127
1, 199421, Note_on_c, 8, 56, 127
1, 199563, Note_off_c, 11, 70, 127
1, 199565, Note_on_c, 12, 71, 127
1, 199707, Note_off_c, 12, 71, 127
1, 199707, Note_off_c, 8, 56, 127
1, 199709, Note_on_c, 1, 73, 127
1, 199709, Note_on_c, 11, 58, 127
1, 199851, Note_off_c, 1, 73, 127
1, 199853, Note_on_c, 6, 66, 127
1, 199995, Note_off_c, 6, 66, 127
1, 199997, Note_on_c, 11, 70, 127
1, 200139, Note_off_c, 11, 70, 127
1, 200141, Note_on_c, 1, 73, 127
1, 200279, Note_off_c, 11, 58, 127
1, 200283, Note_off_c, 1, 73, 127
1, 200285, Note_on_c, 4, 76, 127
1, 200427, Note_off_c, 4, 76, 127
1, 200429, Note_on_c, 7, 79, 127
1, 200571, Note_off_c, 7, 79, 127
1, 200573, Note_on_c, 6, 78, 127
1, 200573, Note_on_c, 6, 54, 127
1, 200715, Note_off_c, 6, 78, 127
1, 200717, Note_on_c, 4, 76, 127
1, 200859, Note_off_c, 4, 76, 127
1, 200859, Note_off_c, 6, 54, 127
1, 200861, Note_on_c, 2, 74, 127
1, 200861, Note_on_c, 12, 59, 127
1, 201003, Note_off_c, 2, 74, 127
1, 201005, Note_on_c, 12, 71, 127
1, 201147, Note_off_c, 12, 71, 127
1, 201149, Note_on_c, 2, 74, 127
1, 201149, Note_on_c, 12, 47, 127
1, 201291, Note_off_c, 2, 74, 127
1, 201293, Note_on_c, 6, 78, 127
1, 201435, Note_off_c, 6, 78, 127
1, 201435, Note_off_c, 12, 47, 127
1, 201437, Note_on_c, 7, 79, 127
1, 201437, Note_on_c, 4, 52, 127
1, 201579, Note_off_c, 7, 79, 127
1, 201581, Note_on_c, 2, 74, 127
1, 201723, Note_off_c, 2, 74, 127
1, 201723, Note_off_c, 12, 59, 127
1, 201725, Note_on_c, 1, 73, 127
1, 201725, Note_on_c, 7, 55, 127
1, 201867, Note_off_c, 1, 73, 127
1, 201869, Note_on_c, 12, 71, 127
1, 202011, Note_off_c, 12, 71, 127
1, 202011, Note_off_c, 7, 55, 127
1, 202013, Note_on_c, 11, 70, 127
1, 202013, Note_on_c, 6, 54, 127
1, 202155, Note_off_c, 11, 70, 127
1, 202157, Note_on_c, 6, 66, 127
1, 202299, Note_off_c, 6, 66, 127
1, 202299, Note_off_c, 4, 52, 127
1, 202301, Note_on_c, 4, 64, 127
1, 202301, Note_on_c, 1, 61, 127
1, 202443, Note_off_c, 4, 64, 127
1, 202445, Note_on_c, 11, 70, 127
1, 202583, Note_off_c, 6, 54, 127
1, 202587, Note_off_c, 11, 70, 127
1, 202587, Note_off_c, 1, 61, 127
1, 202589, Note_on_c, 12, 71, 127
1, 202589, Note_on_c, 2, 50, 127
1, 202589, Note_on_c, 6, 54, 127
1, 202731, Note_off_c, 12, 71, 127
1, 202733, Note_on_c, 2, 62, 127
1, 202875, Note_off_c, 2, 62, 127
1, 202875, Note_off_c, 6, 54, 127
1, 202875, Note_off_c, 2, 50, 127
1, 202877, Note_on_c, 1, 61, 127
1, 202877, Note_on_c, 7, 55, 127
1, 202877, Note_on_c, 4, 52, 127
1, 203019, Note_off_c, 1, 61, 127
1, 203021, Note_on_c, 12, 59, 127
1, 203163, Note_off_c, 12, 59, 127
1, 203163, Note_off_c, 4, 52, 127
1, 203163, Note_off_c, 7, 55, 127
1, 203165, Note_on_c, 6, 54, 127
1, 203309, Note_on_c, 1, 61, 127
1, 203451, Note_off_c, 1, 61, 127
1, 203451, Note_off_c, 6, 54, 127
1, 203453, Note_on_c, 12, 71, 127
1, 203453, Note_on_c, 4, 52, 127
1, 203595, Note_off_c, 12, 71, 127
1, 203597, Note_on_c, 1, 73, 127
1, 203739, Note_off_c, 1, 73, 127
1, 203739, Note_off_c, 4, 52, 127
1, 203741, Note_on_c, 11, 70, 127
1, 203741, Note_on_c, 6, 54, 127
1, 203883, Note_off_c, 11, 70, 127
1, 203885, Note_on_c, 1, 73, 127
1, 204027, Note_off_c, 1, 73, 127
1, 204027, Note_off_c, 6, 54, 127
1, 204029, Note_on_c, 6, 66, 127
1, 204029, Note_on_c, 6, 42, 127
1, 204171, Note_off_c, 6, 66, 127
1, 204173, Note_on_c, 11, 70, 127
1, 204291, Note_off_c, 11, 70, 127
1, 204315, Note_off_c, 6, 42, 127
1, 204317, Note_on_c, 12, 59, 127
1, 204317, Note_on_c, 12, 47, 127
1, 204459, Note_off_c, 12, 59, 127
1, 204461, Note_on_c, 1, 61, 127
1, 204603, Note_off_c, 1, 61, 127
1, 204605, Note_on_c, 2, 62, 127
1, 204747, Note_off_c, 2, 62, 127
1, 204749, Note_on_c, 4, 64, 127
1, 204891, Note_off_c, 4, 64, 127
1, 204893, Note_on_c, 6, 66, 127
1, 205035, Note_off_c, 6, 66, 127
1, 205037, Note_on_c, 8, 68, 127
1, 205179, Note_off_c, 8, 68, 127
1, 205179, Note_off_c, 12, 47, 127
1, 205181, Note_on_c, 11, 70, 127
1, 205323, Note_off_c, 11, 70, 127
1, 205325, Note_on_c, 6, 66, 127
1, 205467, Note_off_c, 6, 66, 127
1, 205469, Note_on_c, 12, 71, 127
1, 205613, Note_on_c, 12, 59, 127
1, 205683, Note_off_c, 12, 59, 127
1, 205685, Note_on_c, 1, 61, 127
1, 205755, Note_off_c, 1, 61, 127
1, 205757, Note_on_c, 2, 62, 127
1, 205889, Note_off_c, 12, 71, 127
1, 205899, Note_off_c, 2, 62, 127
1, 205901, Note_on_c, 4, 64, 127
1, 206043, Note_off_c, 4, 64, 127
1, 206045, Note_on_c, 11, 70, 127
1, 206045, Note_on_c, 6, 66, 127
1, 206187, Note_off_c, 6, 66, 127
1, 206187, Note_off_c, 11, 70, 127
1, 206189, Note_on_c, 8, 68, 127
1, 206189, Note_on_c, 12, 71, 127
1, 206331, Note_off_c, 12, 71, 127
1, 206331, Note_off_c, 8, 68, 127
1, 206333, Note_on_c, 1, 73, 127
1, 206333, Note_on_c, 11, 70, 127
1, 206475, Note_off_c, 11, 70, 127
1, 206475, Note_off_c, 1, 73, 127
1, 206477, Note_on_c, 11, 70, 127
1, 206477, Note_on_c, 6, 66, 127
1, 206619, Note_off_c, 6, 66, 127
1, 206619, Note_off_c, 11, 70, 127
1, 206621, Note_on_c, 12, 71, 127
1, 206621, Note_on_c, 2, 74, 127
1, 206765, Note_on_c, 12, 59, 127
1, 206835, Note_off_c, 12, 59, 127
1, 206837, Note_on_c, 1, 61, 127
1, 206907, Note_off_c, 1, 61, 127
1, 206909, Note_on_c, 2, 62, 127
1, 207051, Note_off_c, 2, 62, 127
1, 207053, Note_on_c, 4, 64, 127
1, 207195, Note_off_c, 4, 64, 127
1, 207195, Note_off_c, 2, 74, 127
1, 207195, Note_off_c, 12, 71, 127
1, 207197, Note_on_c, 1, 73, 127
1, 207197, Note_on_c, 11, 70, 127
1, 207197, Note_on_c, 6, 66, 127
1, 207339, Note_off_c, 6, 66, 127
1, 207339, Note_off_c, 11, 70, 127
1, 207339, Note_off_c, 1, 73, 127
1, 207341, Note_on_c, 12, 71, 127
1, 207341, Note_on_c, 8, 68, 127
1, 207483, Note_off_c, 8, 68, 127
1, 207483, Note_off_c, 12, 71, 127
1, 207485, Note_on_c, 1, 73, 127
1, 207485, Note_on_c, 11, 70, 127
1, 207627, Note_off_c, 11, 70, 127
1, 207627, Note_off_c, 1, 73, 127
1, 207629, Note_on_c, 11, 70, 127
1, 207629, Note_on_c, 6, 66, 127
1, 207771, Note_off_c, 6, 66, 127
1, 207771, Note_off_c, 11, 70, 127
1, 207773, Note_on_c, 12, 71, 127
1, 207773, Note_on_c, 2, 74, 127
1, 207917, Note_on_c, 12, 47, 127
1, 207987, Note_off_c, 12, 47, 127
1, 207989, Note_on_c, 1, 49, 127
1, 208059, Note_off_c, 1, 49, 127
1, 208061, Note_on_c, 6, 78, 127
1, 208061, Note_on_c, 2, 50, 127
1, 208203, Note_off_c, 2, 50, 127
1, 208205, Note_on_c, 4, 52, 127
1, 208343, Note_off_c, 2, 74, 127
1, 208343, Note_off_c, 12, 71, 127
1, 208347, Note_off_c, 4, 52, 127
1, 208349, Note_on_c, 11, 70, 127
1, 208349, Note_on_c, 1, 73, 127
1, 208349, Note_on_c, 6, 54, 127
1, 208491, Note_off_c, 6, 54, 127
1, 208493, Note_on_c, 8, 56, 127
1, 208631, Note_off_c, 6, 78, 127
1, 208635, Note_off_c, 8, 56, 127
1, 208637, Note_on_c, 4, 76, 127
1, 208637, Note_on_c, 11, 58, 127
1, 208779, Note_off_c, 11, 58, 127
1, 208781, Note_on_c, 6, 54, 127
1, 208919, Note_off_c, 1, 73, 127
1, 208919, Note_off_c, 11, 70, 127
1, 208923, Note_off_c, 6, 54, 127
1, 208923, Note_off_c, 4, 76, 127
1, 208925, Note_on_c, 12, 71, 127
1, 208925, Note_on_c, 2, 74, 127
1, 208925, Note_on_c, 12, 59, 127
1, 209067, Note_off_c, 12, 71, 127
1, 209069, Note_on_c, 12, 71, 127
1, 209139, Note_off_c, 12, 71, 127
1, 209141, Note_off_c, 2, 74, 127
1, 209141, Note_on_c, 1, 73, 127
1, 209211, Note_off_c, 1, 73, 127
1, 209211, Note_off_c, 12, 59, 127
1, 209213, Note_on_c, 2, 74, 127
1, 209213, Note_on_c, 12, 47, 127
1, 209355, Note_off_c, 2, 74, 127
1, 209357, Note_on_c, 4, 76, 127
1, 209427, Note_off_c, 4, 76, 127
1, 209429, Note_on_c, 6, 78, 127
1, 209499, Note_off_c, 6, 78, 127
1, 209501, Note_on_c, 7, 79, 127
1, 209645, Note_on_c, 6, 78, 127
1, 209723, Note_off_c, 12, 47, 127
1, 209787, Note_off_c, 6, 78, 127
1, 209789, Note_on_c, 4, 76, 127
1, 209789, Note_on_c, 12, 59, 127
1, 209931, Note_off_c, 4, 76, 127
1, 209933, Note_on_c, 2, 74, 127
1, 210075, Note_off_c, 2, 74, 127
1, 210075, Note_off_c, 12, 59, 127
1, 210077, Note_on_c, 1, 73, 127
1, 210077, Note_on_c, 11, 58, 127
1, 210219, Note_off_c, 1, 73, 127
1, 210221, Note_on_c, 4, 76, 127
1, 210363, Note_off_c, 4, 76, 127
1, 210363, Note_off_c, 11, 58, 127
1, 210363, Note_off_c, 7, 79, 127
1, 210365, Note_on_c, 2, 74, 127
1, 210365, Note_on_c, 11, 46, 127
1, 210507, Note_off_c, 2, 74, 127
1, 210509, Note_on_c, 1, 73, 127
1, 210650, Note_off_c, 11, 46, 127
1, 210652, Note_off_c, 1, 73, 127
1, 210654, Note_on_c, 6, 78, 127
1, 210798, Note_on_c, 4, 76, 127
1, 210940, Note_off_c, 4, 76, 127
1, 210942, Note_on_c, 2, 74, 127
1, 210942, Note_on_c, 10, 57, 127
1, 211084, Note_off_c, 2, 74, 127
1, 211086, Note_on_c, 1, 73, 127
1, 211228, Note_off_c, 1, 73, 127
1, 211228, Note_off_c, 10, 57, 127
1, 211230, Note_on_c, 12, 71, 127
1, 211230, Note_on_c, 8, 56, 127
1, 211372, Note_off_c, 12, 71, 127
1, 211374, Note_on_c, 2, 74, 127
1, 211516, Note_off_c, 2, 74, 127
1, 211516, Note_off_c, 8, 56, 127
1, 211516, Note_off_c, 6, 78, 127
1, 211518, Note_on_c, 1, 73, 127
1, 211518, Note_on_c, 8, 44, 127
1, 211660, Note_off_c, 1, 73, 127
1, 211662, Note_on_c, 12, 71, 127
1, 211803, Note_off_c, 8, 44, 127
1, 211805, Note_off_c, 12, 71, 127
1, 211807, Note_on_c, 4, 76, 127
1, 211951, Note_on_c, 2, 74, 127
1, 212093, Note_off_c, 2, 74, 127
1, 212095, Note_on_c, 1, 73, 127
1, 212095, Note_on_c, 7, 55, 127
1, 212237, Note_off_c, 1, 73, 127
1, 212239, Note_on_c, 12, 71, 127
1, 212381, Note_off_c, 12, 71, 127
1, 212381, Note_off_c, 7, 55, 127
1, 212383, Note_on_c, 11, 70, 127
1, 212383, Note_on_c, 6, 54, 127
1, 212525, Note_off_c, 11, 70, 127
1, 212527, Note_on_c, 1, 73, 127
1, 212669, Note_off_c, 1, 73, 127
1, 212669, Note_off_c, 6, 54, 127
1, 212669, Note_off_c, 4, 76, 127
1, 212671, Note_on_c, 12, 71, 127
1, 212671, Note_on_c, 6, 42, 127
1, 212813, Note_off_c, 12, 71, 127
1, 212815, Note_on_c, 11, 70, 127
1, 212957, Note_off_c, 11, 70, 127
1, 212957, Note_off_c, 6, 42, 127
1, 212959, Note_on_c, 2, 74, 127
1, 212959, Note_on_c, 12, 59, 127
1, 213101, Note_off_c, 2, 74, 127
1, 213103, Note_on_c, 6, 66, 127
1, 213245, Note_off_c, 6, 66, 127
1, 213245, Note_off_c, 12, 59, 127
1, 213247, Note_on_c, 12, 71, 127
1, 213247, Note_on_c, 12, 47, 127
1, 213389, Note_off_c, 12, 71, 127
1, 213391, Note_on_c, 2, 74, 127
1, 213533, Note_off_c, 2, 74, 127
1, 213533, Note_off_c, 12, 47, 127
1, 213535, Note_on_c, 1, 73, 127
1, 213535, Note_on_c, 4, 52, 127
1, 213677, Note_off_c, 1, 73, 127
1, 213679, Note_on_c, 12, 71, 127
1, 213821, Note_off_c, 12, 71, 127
1, 213821, Note_off_c, 4, 52, 127
1, 213823, Note_on_c, 11, 70, 127
1, 213823, Note_on_c, 4, 40, 127
1, 213965, Note_off_c, 11, 70, 127
1, 213967, Note_on_c, 8, 68, 127
1, 214109, Note_off_c, 8, 68, 127
1, 214109, Note_off_c, 4, 40, 127
1, 214111, Note_on_c, 11, 70, 127
1, 214111, Note_on_c, 6, 54, 127
1, 214255, Note_on_c, 4, 76, 127
1, 214396, Note_off_c, 11, 70, 127
1, 214398, Note_off_c, 4, 76, 127
1, 214398, Note_off_c, 6, 54, 127
1, 214400, Note_on_c, 2, 74, 127
1, 214400, Note_on_c, 6, 42, 127
1, 214542, Note_off_c, 2, 74, 127
1, 214544, Note_on_c, 1, 73, 127
1, 214686, Note_off_c, 1, 73, 127
1, 214686, Note_off_c, 6, 42, 127
1, 214688, Note_on_c, 2, 74, 127
1, 214688, Note_on_c, 12, 47, 127
1, 214830, Note_off_c, 12, 47, 127
1, 214832, Note_on_c, 12, 71, 127
1, 214832, Note_on_c, 2, 50, 127
1, 214958, Note_off_c, 2, 74, 127
1, 214974, Note_off_c, 2, 50, 127
1, 214974, Note_off_c, 12, 71, 127
1, 214976, Note_on_c, 2, 74, 127
1, 214976, Note_on_c, 6, 54, 127
1, 215118, Note_off_c, 6, 54, 127
1, 215120, Note_on_c, 6, 78, 127
1, 215120, Note_on_c, 12, 59, 127
1, 215246, Note_off_c, 2, 74, 127
1, 215262, Note_off_c, 12, 59, 127
1, 215262, Note_off_c, 6, 78, 127
1, 215264, Note_on_c, 2, 74, 127
1, 215264, Note_on_c, 12, 47, 127
1, 215406, Note_off_c, 12, 47, 127
1, 215408, Note_on_c, 12, 71, 127
1, 215408, Note_on_c, 2, 50, 127
1, 215534, Note_off_c, 2, 74, 127
1, 215550, Note_off_c, 2, 50, 127
1, 215550, Note_off_c, 12, 71, 127
1, 215552, Note_on_c, 2, 74, 127
1, 215552, Note_on_c, 6, 54, 127
1, 215694, Note_off_c, 6, 54, 127
1, 215696, Note_on_c, 6, 78, 127
1, 215696, Note_on_c, 12, 59, 127
1, 215822, Note_off_c, 2, 74, 127
1, 215838, Note_off_c, 12, 59, 127
1, 215838, Note_off_c, 6, 78, 127
1, 215840, Note_on_c, 2, 74, 127
1, 215840, Note_on_c, 12, 47, 127
1, 215984, Note_on_c, 12, 71, 127
1, 216110, Note_off_c, 2, 74, 127
1, 216126, Note_off_c, 12, 71, 127
1, 216128, Note_on_c, 2, 74, 127
1, 216272, Note_on_c, 6, 78, 127
1, 216398, Note_off_c, 2, 74, 127
1, 216410, Note_off_c, 12, 47, 127
1, 216414, Note_off_c, 6, 78, 127
1, 216416, Note_on_c, 2, 74, 127
1, 216560, Note_on_c, 12, 71, 127
1, 216560, Note_on_c, 10, 57, 127
1, 216686, Note_off_c, 2, 74, 127
1, 216702, Note_off_c, 10, 57, 127
1, 216702, Note_off_c, 12, 71, 127
1, 216704, Note_on_c, 2, 74, 127
1, 216704, Note_on_c, 7, 55, 127
1, 216846, Note_off_c, 7, 55, 127
1, 216846, Note_off_c, 2, 74, 127
1, 216848, Note_on_c, 6, 78, 127
1, 216848, Note_on_c, 6, 54, 127
1, 216990, Note_off_c, 6, 54, 127
1, 216990, Note_off_c, 6, 78, 127
1, 216992, Note_on_c, 7, 79, 127
1, 216992, Note_on_c, 4, 52, 127
1, 217134, Note_off_c, 7, 79, 127
1, 217136, Note_on_c, 4, 76, 127
1, 217136, Note_on_c, 7, 55, 127
1, 217277, Note_off_c, 4, 52, 127
1, 217279, Note_off_c, 7, 55, 127
1, 217279, Note_off_c, 4, 76, 127
1, 217281, Note_on_c, 7, 79, 127
1, 217281, Note_on_c, 12, 59, 127
1, 217423, Note_off_c, 12, 59, 127
1, 217423, Note_off_c, 7, 79, 127
1, 217425, Note_on_c, 12, 83, 127
1, 217425, Note_on_c, 4, 64, 127
1, 217567, Note_off_c, 12, 83, 127
1, 217569, Note_on_c, 7, 79, 127
1, 217569, Note_on_c, 4, 52, 127
1, 217710, Note_off_c, 4, 64, 127
1, 217712, Note_off_c, 7, 79, 127
1, 217714, Note_on_c, 4, 76, 127
1, 217714, Note_on_c, 7, 55, 127
1, 217855, Note_off_c, 4, 52, 127
1, 217857, Note_off_c, 7, 55, 127
1, 217857, Note_off_c, 4, 76, 127
1, 217859, Note_on_c, 7, 79, 127
1, 217859, Note_on_c, 12, 59, 127
1, 218001, Note_off_c, 12, 59, 127
1, 218001, Note_off_c, 7, 79, 127
1, 218003, Note_on_c, 12, 83, 127
1, 218003, Note_on_c, 4, 64, 127
1, 218145, Note_off_c, 12, 83, 127
1, 218147, Note_on_c, 7, 79, 127
1, 218147, Note_on_c, 4, 52, 127
1, 218288, Note_off_c, 4, 64, 127
1, 218290, Note_off_c, 7, 79, 127
1, 218292, Note_on_c, 4, 76, 127
1, 218434, Note_off_c, 4, 76, 127
1, 218436, Note_on_c, 7, 79, 127
1, 218578, Note_off_c, 7, 79, 127
1, 218580, Note_on_c, 12, 83, 127
1, 218718, Note_off_c, 4, 52, 127
1, 218722, Note_off_c, 12, 83, 127
1, 218724, Note_on_c, 7, 79, 127
1, 218866, Note_off_c, 7, 79, 127
1, 218868, Note_on_c, 4, 76, 127
1, 218868, Note_on_c, 2, 50, 127
1, 219010, Note_off_c, 2, 50, 127
1, 219010, Note_off_c, 4, 76, 127
1, 219012, Note_on_c, 7, 79, 127
1, 219012, Note_on_c, 1, 49, 127
1, 219154, Note_off_c, 1, 49, 127
1, 219154, Note_off_c, 7, 79, 127
1, 219156, Note_on_c, 12, 83, 127
1, 219156, Note_on_c, 12, 47, 127
1, 219298, Note_off_c, 12, 47, 127
1, 219298, Note_off_c, 12, 83, 127
1, 219300, Note_on_c, 1, 73, 127
1, 219300, Note_on_c, 10, 45, 127
1, 219442, Note_off_c, 10, 45, 127
1, 219444, Note_on_c, 10, 69, 127
1, 219444, Note_on_c, 1, 49, 127
1, 219585, Note_off_c, 1, 73, 127
1, 219587, Note_off_c, 1, 49, 127
1, 219587, Note_off_c, 10, 69, 127
1, 219589, Note_on_c, 1, 73, 127
1, 219589, Note_on_c, 4, 52, 127
1, 219731, Note_off_c, 4, 52, 127
1, 219731, Note_off_c, 1, 73, 127
1, 219733, Note_on_c, 4, 76, 127
1, 219733, Note_on_c, 10, 57, 127
1, 219875, Note_off_c, 10, 57, 127
1, 219877, Note_on_c, 1, 73, 127
1, 219877, Note_on_c, 10, 45, 127
1, 220019, Note_off_c, 10, 45, 127
1, 220019, Note_off_c, 1, 73, 127
1, 220021, Note_on_c, 10, 69, 127
1, 220021, Note_on_c, 1, 49, 127
1, 220153, Note_off_c, 4, 76, 127
1, 220163, Note_off_c, 1, 49, 127
1, 220163, Note_off_c, 10, 69, 127
1, 220165, Note_on_c, 1, 73, 127
1, 220165, Note_on_c, 4, 52, 127
1, 220307, Note_off_c, 4, 52, 127
1, 220307, Note_off_c, 1, 73, 127
1, 220309, Note_on_c, 4, 76, 127
1, 220309, Note_on_c, 10, 57, 127
1, 220451, Note_off_c, 10, 57, 127
1, 220453, Note_on_c, 1, 73, 127
1, 220453, Note_on_c, 10, 45, 127
1, 220595, Note_off_c, 1, 73, 127
1, 220597, Note_on_c, 10, 69, 127
1, 220729, Note_off_c, 4, 76, 127
1, 220739, Note_off_c, 10, 69, 127
1, 220741, Note_on_c, 1, 73, 127
1, 220883, Note_off_c, 1, 73, 127
1, 220885, Note_on_c, 4, 76, 127
1, 221023, Note_off_c, 10, 45, 127
1, 221029, Note_on_c, 1, 73, 127
1, 221171, Note_off_c, 1, 73, 127
1, 221173, Note_on_c, 10, 69, 127
1, 221173, Note_on_c, 7, 55, 127
1, 221305, Note_off_c, 4, 76, 127
1, 221315, Note_off_c, 7, 55, 127
1, 221315, Note_off_c, 10, 69, 127
1, 221317, Note_on_c, 1, 73, 127
1, 221317, Note_on_c, 6, 54, 127
1, 221459, Note_off_c, 6, 54, 127
1, 221459, Note_off_c, 1, 73, 127
1, 221461, Note_on_c, 4, 76, 127
1, 221461, Note_on_c, 4, 52, 127
1, 221603, Note_off_c, 4, 52, 127
1, 221603, Note_off_c, 4, 76, 127
1, 221605, Note_on_c, 6, 78, 127
1, 221605, Note_on_c, 2, 50, 127
1, 221747, Note_off_c, 6, 78, 127
1, 221749, Note_on_c, 2, 74, 127
1, 221749, Note_on_c, 6, 54, 127
1, 221891, Note_off_c, 6, 54, 127
1, 221891, Note_off_c, 2, 74, 127
1, 221893, Note_on_c, 6, 78, 127
1, 221893, Note_on_c, 10, 57, 127
1, 222025, Note_off_c, 2, 50, 127
1, 222035, Note_off_c, 10, 57, 127
1, 222035, Note_off_c, 6, 78, 127
1, 222037, Note_on_c, 10, 81, 127
1, 222037, Note_on_c, 2, 62, 127
1, 222179, Note_off_c, 10, 81, 127
1, 222181, Note_on_c, 6, 78, 127
1, 222181, Note_on_c, 2, 50, 127
1, 222322, Note_off_c, 2, 62, 127
1, 222324, Note_off_c, 6, 78, 127
1, 222326, Note_on_c, 2, 74, 127
1, 222326, Note_on_c, 6, 54, 127
1, 222468, Note_off_c, 6, 54, 127
1, 222468, Note_off_c, 2, 74, 127
1, 222470, Note_on_c, 6, 78, 127
1, 222470, Note_on_c, 10, 57, 127
1, 222602, Note_off_c, 2, 50, 127
1, 222612, Note_off_c, 10, 57, 127
1, 222612, Note_off_c, 6, 78, 127
1, 222614, Note_on_c, 10, 81, 127
1, 222614, Note_on_c, 2, 62, 127
1, 222756, Note_off_c, 10, 81, 127
1, 222758, Note_on_c, 6, 78, 127
1, 222758, Note_on_c, 2, 50, 127
1, 222899, Note_off_c, 2, 62, 127
1, 222901, Note_off_c, 6, 78, 127
1, 222903, Note_on_c, 2, 74, 127
1, 223045, Note_off_c, 2, 74, 127
1, 223047, Note_on_c, 6, 78, 127
1, 223189, Note_off_c, 6, 78, 127
1, 223191, Note_on_c, 10, 81, 127
1, 223329, Note_off_c, 2, 50, 127
1, 223333, Note_off_c, 10, 81, 127
1, 223335, Note_on_c, 6, 78, 127
1, 223477, Note_off_c, 6, 78, 127
1, 223479, Note_on_c, 2, 74, 127
1, 223479, Note_on_c, 1, 49, 127
1, 223621, Note_off_c, 1, 49, 127
1, 223621, Note_off_c, 2, 74, 127
1, 223623, Note_on_c, 6, 78, 127
1, 223623, Note_on_c, 12, 47, 127
1, 223765, Note_off_c, 12, 47, 127
1, 223765, Note_off_c, 6, 78, 127
1, 223767, Note_on_c, 10, 81, 127
1, 223767, Note_on_c, 10, 45, 127
1, 223909, Note_off_c, 10, 45, 127
1, 223909, Note_off_c, 10, 81, 127
1, 223911, Note_on_c, 12, 71, 127
1, 223911, Note_on_c, 7, 43, 127
1, 224053, Note_off_c, 7, 43, 127
1, 224053, Note_off_c, 12, 71, 127
1, 224055, Note_on_c, 7, 67, 127
1, 224055, Note_on_c, 12, 47, 127
1, 224197, Note_off_c, 12, 47, 127
1, 224199, Note_on_c, 12, 71, 127
1, 224199, Note_on_c, 2, 50, 127
1, 224341, Note_off_c, 2, 50, 127
1, 224343, Note_on_c, 2, 74, 127
1, 224343, Note_on_c, 7, 55, 127
1, 224475, Note_off_c, 7, 67, 127
1, 224484, Note_off_c, 12, 71, 127
1, 224486, Note_off_c, 7, 55, 127
1, 224486, Note_off_c, 2, 74, 127
1, 224488, Note_on_c, 12, 71, 127
1, 224488, Note_on_c, 7, 43, 127
1, 224630, Note_off_c, 7, 43, 127
1, 224630, Note_off_c, 12, 71, 127
1, 224632, Note_on_c, 7, 67, 127
1, 224632, Note_on_c, 12, 47, 127
1, 224774, Note_off_c, 12, 47, 127
1, 224776, Note_on_c, 12, 71, 127
1, 224776, Note_on_c, 2, 50, 127
1, 224918, Note_off_c, 2, 50, 127
1, 224920, Note_on_c, 2, 74, 127
1, 224920, Note_on_c, 7, 55, 127
1, 225052, Note_off_c, 7, 67, 127
1, 225061, Note_off_c, 12, 71, 127
1, 225063, Note_off_c, 7, 55, 127
1, 225063, Note_off_c, 2, 74, 127
1, 225065, Note_on_c, 12, 71, 127
1, 225065, Note_on_c, 7, 43, 127
1, 225207, Note_off_c, 12, 71, 127
1, 225209, Note_on_c, 7, 67, 127
1, 225353, Note_on_c, 12, 71, 127
1, 225497, Note_on_c, 2, 74, 127
1, 225629, Note_off_c, 7, 67, 127
1, 225635, Note_off_c, 7, 43, 127
1, 225638, Note_off_c, 12, 71, 127
1, 225640, Note_off_c, 2, 74, 127
1, 225642, Note_on_c, 12, 71, 127
1, 225784, Note_off_c, 12, 71, 127
1, 225786, Note_on_c, 7, 67, 127
1, 225786, Note_on_c, 6, 54, 127
1, 225928, Note_off_c, 6, 54, 127
1, 225928, Note_off_c, 7, 67, 127
1, 225930, Note_on_c, 12, 71, 127
1, 225930, Note_on_c, 4, 52, 127
1, 226072, Note_off_c, 4, 52, 127
1, 226072, Note_off_c, 12, 71, 127
1, 226074, Note_on_c, 2, 74, 127
1, 226074, Note_on_c, 2, 50, 127
1, 226216, Note_off_c, 2, 50, 127
1, 226216, Note_off_c, 2, 74, 127
1, 226218, Note_on_c, 4, 76, 127
1, 226218, Note_on_c, 1, 49, 127
1, 226360, Note_off_c, 4, 76, 127
1, 226362, Note_on_c, 12, 71, 127
1, 226362, Note_on_c, 4, 52, 127
1, 226504, Note_off_c, 4, 52, 127
1, 226504, Note_off_c, 12, 71, 127
1, 226506, Note_on_c, 4, 76, 127
1, 226506, Note_on_c, 7, 55, 127
1, 226638, Note_off_c, 1, 49, 127
1, 226648, Note_off_c, 7, 55, 127
1, 226648, Note_off_c, 4, 76, 127
1, 226650, Note_on_c, 7, 79, 127
1, 226650, Note_on_c, 12, 59, 127
1, 226792, Note_off_c, 7, 79, 127
1, 226794, Note_on_c, 4, 76, 127
1, 226794, Note_on_c, 1, 49, 127
1, 226936, Note_off_c, 4, 76, 127
1, 226938, Note_on_c, 12, 71, 127
1, 226938, Note_on_c, 4, 52, 127
1, 227070, Note_off_c, 12, 59, 127
1, 227080, Note_off_c, 4, 52, 127
1, 227080, Note_off_c, 12, 71, 127
1, 227082, Note_on_c, 4, 76, 127
1, 227082, Note_on_c, 7, 55, 127
1, 227214, Note_off_c, 1, 49, 127
1, 227224, Note_off_c, 7, 55, 127
1, 227224, Note_off_c, 4, 76, 127
1, 227226, Note_on_c, 7, 79, 127
1, 227226, Note_on_c, 12, 59, 127
1, 227368, Note_off_c, 7, 79, 127
1, 227370, Note_on_c, 4, 76, 127
1, 227370, Note_on_c, 1, 49, 127
1, 227511, Note_off_c, 12, 59, 127
1, 227513, Note_off_c, 4, 76, 127
1, 227515, Note_on_c, 12, 71, 127
1, 227657, Note_off_c, 12, 71, 127
1, 227659, Note_on_c, 4, 76, 127
1, 227801, Note_off_c, 4, 76, 127
1, 227803, Note_on_c, 7, 79, 127
1, 227941, Note_off_c, 1, 49, 127
1, 227945, Note_off_c, 7, 79, 127
1, 227947, Note_on_c, 4, 76, 127
1, 228089, Note_off_c, 4, 76, 127
1, 228091, Note_on_c, 12, 71, 127
1, 228091, Note_on_c, 12, 47, 127
1, 228233, Note_off_c, 12, 47, 127
1, 228233, Note_off_c, 12, 71, 127
1, 228235, Note_on_c, 4, 76, 127
1, 228235, Note_on_c, 11, 46, 127
1, 228377, Note_off_c, 11, 46, 127
1, 228377, Note_off_c, 4, 76, 127
1, 228379, Note_on_c, 7, 79, 127
1, 228379, Note_on_c, 8, 44, 127
1, 228521, Note_off_c, 8, 44, 127
1, 228521, Note_off_c, 7, 79, 127
1, 228523, Note_on_c, 11, 70, 127
1, 228523, Note_on_c, 6, 42, 127
1, 228665, Note_off_c, 6, 42, 127
1, 228667, Note_on_c, 6, 66, 127
1, 228667, Note_on_c, 11, 46, 127
1, 228808, Note_off_c, 11, 70, 127
1, 228810, Note_off_c, 11, 46, 127
1, 228812, Note_on_c, 11, 70, 127
1, 228812, Note_on_c, 1, 49, 127
1, 228953, Note_off_c, 6, 66, 127
1, 228955, Note_off_c, 1, 49, 127
1, 228957, Note_on_c, 1, 73, 127
1, 228957, Note_on_c, 6, 54, 127
1, 229098, Note_off_c, 11, 70, 127
1, 229100, Note_off_c, 6, 54, 127
1, 229102, Note_on_c, 11, 70, 127
1, 229102, Note_on_c, 6, 42, 127
1, 229243, Note_off_c, 1, 73, 127
1, 229245, Note_off_c, 6, 42, 127
1, 229247, Note_on_c, 6, 66, 127
1, 229247, Note_on_c, 11, 46, 127
1, 229388, Note_off_c, 11, 70, 127
1, 229390, Note_off_c, 11, 46, 127
1, 229392, Note_on_c, 11, 70, 127
1, 229392, Note_on_c, 1, 49, 127
1, 229533, Note_off_c, 6, 66, 127
1, 229535, Note_off_c, 1, 49, 127
1, 229537, Note_on_c, 1, 73, 127
1, 229537, Note_on_c, 6, 54, 127
1, 229678, Note_off_c, 11, 70, 127
1, 229680, Note_off_c, 6, 54, 127
1, 229682, Note_on_c, 11, 70, 127
1, 229682, Note_on_c, 6, 42, 127
1, 229823, Note_off_c, 1, 73, 127
1, 229826, Note_on_c, 6, 66, 127
1, 229967, Note_off_c, 11, 70, 127
1, 229970, Note_on_c, 11, 70, 127
1, 230111, Note_off_c, 6, 66, 127
1, 230114, Note_on_c, 1, 73, 127
1, 230252, Note_off_c, 6, 42, 127
1, 230255, Note_off_c, 11, 70, 127
1, 230258, Note_on_c, 11, 70, 127
1, 230399, Note_off_c, 1, 73, 127
1, 230402, Note_on_c, 6, 66, 127
1, 230402, Note_on_c, 4, 52, 127
1, 230543, Note_off_c, 11, 70, 127
1, 230545, Note_off_c, 4, 52, 127
1, 230545, Note_off_c, 6, 66, 127
1, 230547, Note_on_c, 11, 70, 127
1, 230547, Note_on_c, 2, 50, 127
1, 230689, Note_off_c, 2, 50, 127
1, 230689, Note_off_c, 11, 70, 127
1, 230691, Note_on_c, 1, 73, 127
1, 230691, Note_on_c, 1, 49, 127
1, 230833, Note_off_c, 1, 49, 127
1, 230833, Note_off_c, 1, 73, 127
1, 230835, Note_on_c, 2, 74, 127
1, 230835, Note_on_c, 12, 47, 127
1, 230977, Note_off_c, 2, 74, 127
1, 230979, Note_on_c, 6, 78, 127
1, 231121, Note_off_c, 6, 78, 127
1, 231123, Note_on_c, 4, 76, 127
1, 231265, Note_off_c, 4, 76, 127
1, 231267, Note_on_c, 6, 78, 127
1, 231405, Note_off_c, 12, 47, 127
1, 231409, Note_off_c, 6, 78, 127
1, 231411, Note_on_c, 2, 74, 127
1, 231553, Note_off_c, 2, 74, 127
1, 231555, Note_on_c, 4, 76, 127
1, 231555, Note_on_c, 6, 66, 127
1, 231697, Note_off_c, 6, 66, 127
1, 231697, Note_off_c, 4, 76, 127
1, 231699, Note_on_c, 1, 73, 127
1, 231699, Note_on_c, 4, 64, 127
1, 231841, Note_off_c, 4, 64, 127
1, 231841, Note_off_c, 1, 73, 127
1, 231843, Note_on_c, 2, 74, 127
1, 231843, Note_on_c, 6, 66, 127
1, 231985, Note_off_c, 6, 66, 127
1, 231985, Note_off_c, 2, 74, 127
1, 231987, Note_on_c, 12, 71, 127
1, 231987, Note_on_c, 2, 62, 127
1, 232129, Note_off_c, 2, 62, 127
1, 232129, Note_off_c, 12, 71, 127
1, 232131, Note_on_c, 6, 66, 127
1, 232131, Note_on_c, 4, 64, 127
1, 232273, Note_off_c, 4, 64, 127
1, 232273, Note_off_c, 6, 66, 127
1, 232275, Note_on_c, 12, 71, 127
1, 232275, Note_on_c, 1, 61, 127
1, 232417, Note_off_c, 1, 61, 127
1, 232417, Note_off_c, 12, 71, 127
1, 232419, Note_on_c, 11, 70, 127
1, 232419, Note_on_c, 2, 62, 127
1, 232561, Note_off_c, 2, 62, 127
1, 232561, Note_off_c, 11, 70, 127
1, 232563, Note_on_c, 12, 71, 127
1, 232563, Note_on_c, 12, 59, 127
1, 232705, Note_off_c, 12, 71, 127
1, 232707, Note_on_c, 6, 66, 127
1, 232849, Note_off_c, 6, 66, 127
1, 232851, Note_on_c, 2, 62, 127
1, 232993, Note_off_c, 2, 62, 127
1, 232995, Note_on_c, 6, 66, 127
1, 233133, Note_off_c, 12, 59, 127
1, 233137, Note_off_c, 6, 66, 127
1, 233139, Note_on_c, 12, 59, 127
1, 233283, Note_on_c, 6, 54, 127
1, 233424, Note_off_c, 12, 59, 127
1, 233426, Note_off_c, 6, 54, 127
1, 233428, Note_on_c, 12, 59, 127
1, 233570, Note_off_c, 12, 59, 127
1, 233572, Note_on_c, 11, 58, 127
1, 233714, Note_off_c, 11, 58, 127
1, 233716, Note_on_c, 12, 59, 127
1, 233860, Note_on_c, 6, 54, 127
1, 234002, Note_off_c, 6, 54, 127
1, 234004, Note_on_c, 2, 50, 127
1, 234146, Note_off_c, 2, 50, 127
1, 234154, Note_on_c, 6, 54, 127
1, 234286, Note_off_c, 12, 59, 127
1, 234296, Note_off_c, 6, 54, 127
1, 234308, Note_on_c, 12, 47, 127
1, 234452, Note_on_c, 12, 59, 127
1, 234594, Note_off_c, 12, 59, 127
1, 234594, Note_off_c, 12, 47, 127
1, 234596, Note_on_c, 12, 59, 127
1, 234596, Note_on_c, 2, 62, 127
1, 234738, Note_off_c, 2, 62, 127
1, 234740, Note_on_c, 6, 66, 127
1, 234882, Note_off_c, 6, 66, 127
1, 234882, Note_off_c, 12, 59, 127
1, 234884, Note_on_c, 3, 51, 127
1, 234884, Note_on_c, 12, 71, 127
1, 235028, Note_on_c, 6, 66, 127
1, 235100, Note_off_c, 12, 71, 127
1, 235170, Note_off_c, 6, 66, 127
1, 235170, Note_off_c, 3, 51, 127
1, 235172, Note_on_c, 12, 59, 127
1, 235172, Note_on_c, 3, 63, 127
1, 235314, Note_off_c, 3, 63, 127
1, 235316, Note_on_c, 12, 71, 127
1, 235458, Note_off_c, 12, 71, 127
1, 235458, Note_off_c, 12, 59, 127
1, 235460, Note_on_c, 4, 52, 127
1, 235460, Note_on_c, 8, 68, 127
1, 235604, Note_on_c, 4, 64, 127
1, 235676, Note_off_c, 8, 68, 127
1, 235746, Note_off_c, 4, 64, 127
1, 235746, Note_off_c, 4, 52, 127
1, 235748, Note_on_c, 12, 59, 127
1, 235748, Note_on_c, 8, 68, 127
1, 235890, Note_off_c, 8, 68, 127
1, 235892, Note_on_c, 12, 71, 127
1, 236034, Note_off_c, 12, 71, 127
1, 236034, Note_off_c, 12, 59, 127
1, 236036, Note_on_c, 5, 53, 127
1, 236036, Note_on_c, 1, 73, 127
1, 236180, Note_on_c, 8, 68, 127
1, 236252, Note_off_c, 1, 73, 127
1, 236322, Note_off_c, 8, 68, 127
1, 236322, Note_off_c, 5, 53, 127
1, 236324, Note_on_c, 1, 61, 127
1, 236324, Note_on_c, 5, 65, 127
1, 236466, Note_off_c, 5, 65, 127
1, 236468, Note_on_c, 1, 73, 127
1, 236610, Note_off_c, 1, 73, 127
1, 236610, Note_off_c, 1, 61, 127
1, 236612, Note_on_c, 6, 54, 127
1, 236612, Note_on_c, 11, 70, 127
1, 236756, Note_on_c, 6, 66, 127
1, 236828, Note_off_c, 11, 70, 127
1, 236898, Note_off_c, 6, 66, 127
1, 236898, Note_off_c, 6, 54, 127
1, 236900, Note_on_c, 1, 61, 127
1, 236900, Note_on_c, 11, 70, 127
1, 237042, Note_off_c, 11, 70, 127
1, 237044, Note_on_c, 1, 73, 127
1, 237186, Note_off_c, 1, 73, 127
1, 237186, Note_off_c, 1, 61, 127
1, 237188, Note_on_c, 6, 54, 127
1, 237188, Note_on_c, 2, 74, 127
1, 237332, Note_on_c, 10, 69, 127
1, 237473, Note_off_c, 2, 74, 127
1, 237475, Note_off_c, 10, 69, 127
1, 237475, Note_off_c, 6, 54, 127
1, 237477, Note_on_c, 2, 62, 127
1, 237477, Note_on_c, 6, 66, 127
1, 237619, Note_off_c, 6, 66, 127
1, 237621, Note_on_c, 2, 74, 127
1, 237763, Note_off_c, 2, 74, 127
1, 237763, Note_off_c, 2, 62, 127
1, 237765, Note_on_c, 7, 55, 127
1, 237765, Note_on_c, 12, 71, 127
1, 237907, Note_off_c, 12, 71, 127
1, 237909, Note_on_c, 7, 67, 127
1, 238051, Note_off_c, 7, 67, 127
1, 238051, Note_off_c, 7, 55, 127
1, 238053, Note_on_c, 2, 62, 127
1, 238053, Note_on_c, 12, 71, 127
1, 238195, Note_off_c, 12, 71, 127
1, 238197, Note_on_c, 2, 74, 127
1, 238339, Note_off_c, 2, 74, 127
1, 238339, Note_off_c, 2, 62, 127
1, 238341, Note_on_c, 8, 56, 127
1, 238341, Note_on_c, 4, 76, 127
1, 238485, Note_on_c, 12, 71, 127
1, 238627, Note_off_c, 12, 71, 127
1, 238627, Note_off_c, 8, 56, 127
1, 238629, Note_on_c, 4, 64, 127
1, 238629, Note_on_c, 8, 68, 127
1, 238701, Note_off_c, 4, 76, 127
1, 238771, Note_off_c, 8, 68, 127
1, 238773, Note_on_c, 4, 76, 127
1, 238915, Note_off_c, 4, 76, 127
1, 238915, Note_off_c, 4, 64, 127
1, 238917, Note_on_c, 10, 57, 127
1, 238917, Note_on_c, 1, 73, 127
1, 239059, Note_off_c, 1, 73, 127
1, 239061, Note_on_c, 10, 69, 127
1, 239203, Note_off_c, 10, 69, 127
1, 239203, Note_off_c, 10, 57, 127
1, 239205, Note_on_c, 4, 64, 127
1, 239205, Note_on_c, 1, 73, 127
1, 239347, Note_off_c, 1, 73, 127
1, 239349, Note_on_c, 4, 76, 127
1, 239491, Note_off_c, 4, 76, 127
1, 239491, Note_off_c, 4, 64, 127
1, 239493, Note_on_c, 11, 58, 127
1, 239493, Note_on_c, 6, 78, 127
1, 239637, Note_on_c, 1, 73, 127
1, 239779, Note_off_c, 1, 73, 127
1, 239779, Note_off_c, 11, 58, 127
1, 239781, Note_on_c, 6, 66, 127
1, 239781, Note_on_c, 11, 70, 127
1, 239913, Note_off_c, 6, 78, 127
1, 239923, Note_off_c, 11, 70, 127
1, 239925, Note_on_c, 6, 78, 127
1, 240067, Note_off_c, 6, 78, 127
1, 240067, Note_off_c, 6, 66, 127
1, 240069, Note_on_c, 12, 59, 127
1, 240069, Note_on_c, 2, 74, 127
1, 240211, Note_off_c, 2, 74, 127
1, 240213, Note_on_c, 12, 71, 127
1, 240355, Note_off_c, 12, 71, 127
1, 240357, Note_on_c, 2, 74, 127
1, 240499, Note_off_c, 2, 74, 127
1, 240501, Note_on_c, 6, 78, 127
1, 240643, Note_off_c, 6, 78, 127
1, 240645, Note_on_c, 7, 79, 127
1, 240789, Note_off_c, 12, 59, 127
1, 240799, Note_on_c, 4, 76, 127
1, 240815, Note_off_c, 7, 79, 127
1, 240949, Note_on_c, 0, 72, 127
1, 240949, Note_on_c, 4, 64, 127
1, 240949, Note_on_c, 4, 52, 127
1, 240959, Note_off_c, 4, 76, 127
1, 241091, Note_off_c, 0, 72, 127
1, 241093, Note_on_c, 11, 70, 127
1, 241235, Note_off_c, 4, 52, 127
1, 241235, Note_off_c, 4, 64, 127
1, 241237, Note_on_c, 4, 64, 127
1, 241237, Note_on_c, 6, 54, 127
1, 241237, Note_on_c, 1, 61, 127
1, 241378, Note_off_c, 11, 70, 127
1, 241380, Note_off_c, 4, 64, 127
1, 241382, Note_on_c, 11, 70, 127
1, 241524, Note_off_c, 11, 70, 127
1, 241524, Note_off_c, 1, 61, 127
1, 241524, Note_off_c, 6, 54, 127
1, 241526, Note_on_c, 12, 71, 127
1, 241526, Note_on_c, 7, 55, 127
1, 241526, Note_on_c, 12, 59, 127
1, 241670, Note_on_c, 2, 62, 127
1, 241811, Note_off_c, 12, 71, 127
1, 241813, Note_off_c, 2, 62, 127
1, 241813, Note_off_c, 12, 59, 127
1, 241813, Note_off_c, 7, 55, 127
1, 241815, Note_on_c, 1, 61, 127
1, 241815, Note_on_c, 7, 55, 127
1, 241815, Note_on_c, 4, 52, 127
1, 241959, Note_on_c, 12, 71, 127
1, 242031, Note_off_c, 1, 61, 127
1, 242101, Note_off_c, 12, 71, 127
1, 242101, Note_off_c, 4, 52, 127
1, 242101, Note_off_c, 7, 55, 127
1, 242103, Note_on_c, 1, 61, 127
1, 242103, Note_on_c, 6, 54, 127
1, 242247, Note_on_c, 11, 70, 127
1, 242319, Note_off_c, 1, 61, 127
1, 242377, Note_off_c, 11, 70, 127
1, 242389, Note_off_c, 6, 54, 127
1, 242397, Note_on_c, 12, 59, 127
1, 242397, Note_on_c, 12, 47, 127
1, 242547, Note_off_c, 12, 59, 127
1, 242553, Note_on_c, 12, 59, 127
1, 242553, Note_on_c, 12, 71, 127
1, 242554, Note_off_c, 12, 47, 127
1, 242697, Note_off_c, 12, 71, 127
1, 242697, Note_off_c, 12, 59, 127
1, 242699, Note_on_c, 10, 57, 127
1, 242699, Note_on_c, 10, 69, 127
1, 242843, Note_off_c, 10, 69, 127
1, 242843, Note_off_c, 10, 57, 127
1, 242845, Note_on_c, 7, 55, 127
1, 242845, Note_on_c, 7, 67, 127
1, 242989, Note_off_c, 7, 67, 127
1, 242989, Note_off_c, 7, 55, 127
1, 242991, Note_on_c, 6, 54, 127
1, 242991, Note_on_c, 6, 66, 127
1, 243135, Note_off_c, 6, 66, 127
1, 243135, Note_off_c, 6, 54, 127
1, 243137, Note_on_c, 4, 52, 127
1, 243137, Note_on_c, 4, 64, 127
1, 243281, Note_off_c, 4, 64, 127
1, 243281, Note_off_c, 4, 52, 127
1, 243283, Note_on_c, 2, 50, 127
1, 243283, Note_on_c, 2, 62, 127
1, 243427, Note_off_c, 2, 62, 127
1, 243427, Note_off_c, 2, 50, 127
1, 243429, Note_on_c, 1, 49, 127
1, 243429, Note_on_c, 1, 61, 127
1, 243557, Note_off_c, 1, 61, 127
1, 243574, Note_off_c, 1, 49, 127
1, 243576, Note_on_c, 12, 47, 127
1, 243576, Note_on_c, 2, 62, 127
1, 243718, Note_off_c, 2, 62, 127
1, 243736, Note_on_c, 12, 59, 127
1, 243878, Note_off_c, 12, 59, 127
1, 243880, Note_on_c, 2, 62, 127
1, 244022, Note_off_c, 2, 62, 127
1, 244024, Note_on_c, 6, 66, 127
1, 244166, Note_off_c, 6, 66, 127
1, 244168, Note_on_c, 12, 71, 127
1, 244236, Note_off_c, 12, 47, 127
1, 244310, Note_off_c, 12, 71, 127
1, 244312, Note_on_c, 10, 69, 127
1, 244312, Note_on_c, 12, 47, 127
1, 244454, Note_off_c, 12, 47, 127
1, 244454, Note_off_c, 10, 69, 127
1, 244456, Note_on_c, 8, 68, 127
1, 244456, Note_on_c, 1, 49, 127
1, 244598, Note_off_c, 1, 49, 127
1, 244598, Note_off_c, 8, 68, 127
1, 244600, Note_on_c, 6, 66, 127
1, 244600, Note_on_c, 2, 50, 127
1, 244742, Note_off_c, 2, 50, 127
1, 244742, Note_off_c, 6, 66, 127
1, 244744, Note_on_c, 8, 68, 127
1, 244744, Note_on_c, 4, 52, 127
1, 244886, Note_off_c, 8, 68, 127
1, 244888, Note_on_c, 4, 64, 127
1, 245026, Note_off_c, 4, 52, 127
1, 245030, Note_off_c, 4, 64, 127
1, 245032, Note_on_c, 8, 68, 127
1, 245032, Note_on_c, 4, 40, 127
1, 245174, Note_off_c, 8, 68, 127
1, 245176, Note_on_c, 12, 71, 127
1, 245317, Note_off_c, 4, 40, 127
1, 245319, Note_off_c, 12, 71, 127
1, 245321, Note_on_c, 1, 73, 127
1, 245463, Note_off_c, 1, 73, 127
1, 245465, Note_on_c, 12, 71, 127
1, 245465, Note_on_c, 1, 49, 127
1, 245607, Note_off_c, 1, 49, 127
1, 245607, Note_off_c, 12, 71, 127
1, 245609, Note_on_c, 11, 70, 127
1, 245609, Note_on_c, 2, 50, 127
1, 245751, Note_off_c, 2, 50, 127
1, 245751, Note_off_c, 11, 70, 127
1, 245753, Note_on_c, 8, 68, 127
1, 245753, Note_on_c, 4, 52, 127
1, 245895, Note_off_c, 4, 52, 127
1, 245895, Note_off_c, 8, 68, 127
1, 245897, Note_on_c, 11, 70, 127
1, 245897, Note_on_c, 6, 54, 127
1, 246039, Note_off_c, 11, 70, 127
1, 246041, Note_on_c, 6, 66, 127
1, 246183, Note_off_c, 6, 66, 127
1, 246185, Note_on_c, 11, 70, 127
1, 246185, Note_on_c, 6, 42, 127
1, 246257, Note_off_c, 6, 54, 127
1, 246327, Note_off_c, 11, 70, 127
1, 246329, Note_on_c, 1, 73, 127
1, 246470, Note_off_c, 6, 42, 127
1, 246472, Note_off_c, 1, 73, 127
1, 246474, Note_on_c, 2, 74, 127
1, 246616, Note_off_c, 2, 74, 127
1, 246618, Note_on_c, 1, 73, 127
1, 246618, Note_on_c, 2, 50, 127
1, 246760, Note_off_c, 2, 50, 127
1, 246760, Note_off_c, 1, 73, 127
1, 246762, Note_on_c, 12, 71, 127
1, 246762, Note_on_c, 4, 52, 127
1, 246904, Note_off_c, 4, 52, 127
1, 246904, Note_off_c, 12, 71, 127
1, 246906, Note_on_c, 10, 69, 127
1, 246906, Note_on_c, 6, 54, 127
1, 247048, Note_off_c, 6, 54, 127
1, 247048, Note_off_c, 10, 69, 127
1, 247050, Note_on_c, 12, 71, 127
1, 247050, Note_on_c, 7, 55, 127
1, 247192, Note_off_c, 12, 71, 127
1, 247194, Note_on_c, 7, 67, 127
1, 247336, Note_off_c, 7, 67, 127
1, 247338, Note_on_c, 12, 71, 127
1, 247338, Note_on_c, 7, 43, 127
1, 247470, Note_off_c, 7, 55, 127
1, 247480, Note_off_c, 12, 71, 127
1, 247482, Note_on_c, 2, 74, 127
1, 247623, Note_off_c, 7, 43, 127
1, 247625, Note_off_c, 2, 74, 127
1, 247627, Note_on_c, 4, 76, 127
1, 247769, Note_off_c, 4, 76, 127
1, 247771, Note_on_c, 2, 74, 127
1, 247771, Note_on_c, 4, 52, 127
1, 247913, Note_off_c, 4, 52, 127
1, 247913, Note_off_c, 2, 74, 127
1, 247915, Note_on_c, 1, 73, 127
1, 247915, Note_on_c, 6, 54, 127
1, 248057, Note_off_c, 6, 54, 127
1, 248057, Note_off_c, 1, 73, 127
1, 248059, Note_on_c, 12, 71, 127
1, 248059, Note_on_c, 8, 56, 127
1, 248201, Note_off_c, 8, 56, 127
1, 248201, Note_off_c, 12, 71, 127
1, 248203, Note_on_c, 1, 73, 127
1, 248203, Note_on_c, 10, 57, 127
1, 248345, Note_off_c, 1, 73, 127
1, 248347, Note_on_c, 10, 69, 127
1, 248489, Note_off_c, 10, 69, 127
1, 248491, Note_on_c, 1, 73, 127
1, 248491, Note_on_c, 10, 45, 127
1, 248633, Note_off_c, 1, 73, 127
1, 248635, Note_on_c, 4, 76, 127
1, 248773, Note_off_c, 10, 57, 127
1, 248776, Note_off_c, 10, 45, 127
1, 248778, Note_off_c, 4, 76, 127
1, 248780, Note_on_c, 6, 78, 127
1, 248922, Note_off_c, 6, 78, 127
1, 248924, Note_on_c, 4, 76, 127
1, 248924, Note_on_c, 6, 54, 127
1, 249066, Note_off_c, 6, 54, 127
1, 249066, Note_off_c, 4, 76, 127
1, 249068, Note_on_c, 2, 74, 127
1, 249068, Note_on_c, 8, 56, 127
1, 249210, Note_off_c, 8, 56, 127
1, 249210, Note_off_c, 2, 74, 127
1, 249212, Note_on_c, 1, 73, 127
1, 249212, Note_on_c, 11, 58, 127
1, 249354, Note_off_c, 11, 58, 127
1, 249354, Note_off_c, 1, 73, 127
1, 249356, Note_on_c, 2, 74, 127
1, 249356, Note_on_c, 12, 59, 127
1, 249498, Note_off_c, 2, 74, 127
1, 249500, Note_on_c, 12, 71, 127
1, 249642, Note_off_c, 12, 71, 127
1, 249644, Note_on_c, 2, 74, 127
1, 249644, Note_on_c, 12, 47, 127
1, 249786, Note_off_c, 2, 74, 127
1, 249788, Note_on_c, 6, 78, 127
1, 249930, Note_off_c, 6, 78, 127
1, 249930, Note_off_c, 12, 47, 127
1, 249932, Note_on_c, 7, 79, 127
1, 249932, Note_on_c, 4, 52, 127
1, 250085, Note_on_c, 4, 76, 127
1, 250122, Note_off_c, 7, 79, 127
1, 250218, Note_off_c, 12, 59, 127
1, 250236, Note_on_c, 4, 64, 127
1, 250236, Note_on_c, 0, 72, 127
1, 250245, Note_off_c, 4, 76, 127
1, 250378, Note_off_c, 0, 72, 127
1, 250380, Note_on_c, 11, 70, 127
1, 250502, Note_off_c, 4, 52, 127
1, 250522, Note_off_c, 11, 70, 127
1, 250522, Note_off_c, 4, 64, 127
1, 250524, Note_on_c, 6, 54, 127
1, 250524, Note_on_c, 1, 61, 127
1, 250524, Note_on_c, 4, 64, 127
1, 250666, Note_off_c, 4, 64, 127
1, 250668, Note_on_c, 11, 70, 127
1, 250810, Note_off_c, 11, 70, 127
1, 250810, Note_off_c, 1, 61, 127
1, 250810, Note_off_c, 6, 54, 127
1, 250812, Note_on_c, 12, 59, 127
1, 250812, Note_on_c, 7, 55, 127
1, 250812, Note_on_c, 12, 71, 127
1, 250954, Note_off_c, 12, 71, 127
1, 250956, Note_on_c, 2, 62, 127
1, 251098, Note_off_c, 2, 62, 127
1, 251098, Note_off_c, 7, 55, 127
1, 251098, Note_off_c, 12, 59, 127
1, 251100, Note_on_c, 7, 55, 127
1, 251100, Note_on_c, 4, 52, 127
1, 251100, Note_on_c, 1, 61, 127
1, 251242, Note_off_c, 1, 61, 127
1, 251244, Note_on_c, 12, 71, 127
1, 251386, Note_off_c, 12, 71, 127
1, 251386, Note_off_c, 4, 52, 127
1, 251386, Note_off_c, 7, 55, 127
1, 251388, Note_on_c, 6, 54, 127
1, 251388, Note_on_c, 1, 61, 127
1, 251530, Note_off_c, 1, 61, 127
1, 251532, Note_on_c, 11, 70, 127
1, 251674, Note_off_c, 11, 70, 127
1, 251674, Note_off_c, 6, 54, 127
1, 251679, Note_on_c, 12, 47, 127
1, 251679, Note_on_c, 12, 59, 127
1, 251825, Note_off_c, 12, 59, 127
1, 251825, Note_off_c, 12, 47, 127
1, 251840, Note_on_c, 12, 71, 127
1, 251840, Note_on_c, 12, 59, 127
1, 251986, Note_off_c, 12, 59, 127
1, 251986, Note_off_c, 12, 71, 127
1, 251988, Note_on_c, 10, 69, 127
1, 251988, Note_on_c, 10, 57, 127
1, 252134, Note_off_c, 10, 57, 127
1, 252134, Note_off_c, 10, 69, 127
1, 252136, Note_on_c, 7, 67, 127
1, 252136, Note_on_c, 7, 55, 127
1, 252282, Note_off_c, 7, 55, 127
1, 252282, Note_off_c, 7, 67, 127
1, 252284, Note_on_c, 6, 66, 127
1, 252284, Note_on_c, 6, 54, 127
1, 252430, Note_off_c, 6, 54, 127
1, 252430, Note_off_c, 6, 66, 127
1, 252432, Note_on_c, 4, 64, 127
1, 252432, Note_on_c, 4, 52, 127
1, 252578, Note_off_c, 4, 52, 127
1, 252578, Note_off_c, 4, 64, 127
1, 252580, Note_on_c, 2, 62, 127
1, 252580, Note_on_c, 2, 50, 127
1, 252726, Note_off_c, 2, 50, 127
1, 252726, Note_off_c, 2, 62, 127
1, 252728, Note_on_c, 1, 61, 127
1, 252728, Note_on_c, 1, 49, 127
1, 252874, Note_off_c, 1, 49, 127
1, 252874, Note_off_c, 1, 61, 127
1, 252876, Note_on_c, 2, 62, 127
1, 252876, Note_on_c, 2, 50, 127
1, 253026, Note_off_c, 2, 50, 127
1, 253026, Note_off_c, 2, 62, 127
1, 253028, Note_on_c, 12, 71, 127
1, 253028, Note_on_c, 12, 59, 127
1, 253178, Note_off_c, 12, 59, 127
1, 253178, Note_off_c, 12, 71, 127
1, 253180, Note_on_c, 10, 69, 127
1, 253180, Note_on_c, 10, 57, 127
1, 253330, Note_off_c, 10, 57, 127
1, 253330, Note_off_c, 10, 69, 127
1, 253332, Note_on_c, 7, 67, 127
1, 253332, Note_on_c, 7, 55, 127
1, 253482, Note_off_c, 7, 55, 127
1, 253482, Note_off_c, 7, 67, 127
1, 253484, Note_on_c, 6, 66, 127
1, 253484, Note_on_c, 6, 54, 127
1, 253634, Note_off_c, 6, 54, 127
1, 253634, Note_off_c, 6, 66, 127
1, 253636, Note_on_c, 4, 64, 127
1, 253636, Note_on_c, 4, 52, 127
1, 253786, Note_off_c, 4, 52, 127
1, 253786, Note_off_c, 4, 64, 127
1, 253788, Note_on_c, 2, 62, 127
1, 253788, Note_on_c, 2, 50, 127
1, 253938, Note_off_c, 2, 50, 127
1, 253938, Note_off_c, 2, 62, 127
1, 253940, Note_on_c, 1, 61, 127
1, 253940, Note_on_c, 1, 49, 127
1, 254090, Note_off_c, 1, 49, 127
1, 254090, Note_off_c, 1, 61, 127
1, 254092, Note_on_c, 12, 59, 127
1, 254092, Note_on_c, 12, 47, 127
1, 254246, Note_off_c, 12, 47, 127
1, 254246, Note_off_c, 12, 59, 127
1, 254248, Note_on_c, 12, 59, 127
1, 254248, Note_on_c, 12, 47, 127
1, 254402, Note_off_c, 12, 47, 127
1, 254402, Note_off_c, 12, 59, 127
1, 254404, Note_on_c, 10, 57, 127
1, 254404, Note_on_c, 10, 45, 127
1, 254558, Note_off_c, 10, 45, 127
1, 254558, Note_off_c, 10, 57, 127
1, 254560, Note_on_c, 7, 55, 127
1, 254560, Note_on_c, 7, 43, 127
1, 254714, Note_off_c, 7, 43, 127
1, 254714, Note_off_c, 7, 55, 127
1, 254716, Note_on_c, 6, 54, 127
1, 254716, Note_on_c, 6, 42, 127
1, 254870, Note_off_c, 6, 42, 127
1, 254870, Note_off_c, 6, 54, 127
1, 254872, Note_on_c, 4, 52, 127
1, 254872, Note_on_c, 4, 40, 127
1, 255026, Note_off_c, 4, 40, 127
1, 255026, Note_off_c, 4, 52, 127
1, 255028, Note_on_c, 2, 50, 127
1, 255028, Note_on_c, 2, 38, 127
1, 255182, Note_off_c, 2, 38, 127
1, 255182, Note_off_c, 2, 50, 127
1, 255184, Note_on_c, 1, 49, 127
1, 255184, Note_on_c, 1, 37, 127
1, 255338, Note_off_c, 1, 37, 127
1, 255338, Note_off_c, 1, 49, 127
1, 255340, Note_on_c, 2, 50, 127
1, 255340, Note_on_c, 2, 38, 127
1, 255505, Note_off_c, 2, 38, 127
1, 255505, Note_off_c, 2, 50, 127
1, 255511, Note_on_c, 12, 47, 127
1, 255511, Note_on_c, 12, 59, 127
1, 255669, Note_off_c, 12, 59, 127
1, 255669, Note_off_c, 12, 47, 127
1, 255676, Note_on_c, 10, 45, 127
1, 255676, Note_on_c, 10, 57, 127
1, 255834, Note_off_c, 10, 57, 127
1, 255834, Note_off_c, 10, 45, 127
1, 255836, Note_on_c, 7, 43, 127
1, 255836, Note_on_c, 7, 55, 127
1, 255994, Note_off_c, 7, 55, 127
1, 255994, Note_off_c, 7, 43, 127
1, 255996, Note_on_c, 6, 42, 127
1, 255996, Note_on_c, 6, 54, 127
1, 256154, Note_off_c, 6, 54, 127
1, 256154, Note_off_c, 6, 42, 127
1, 256156, Note_on_c, 4, 40, 127
1, 256156, Note_on_c, 4, 52, 127
1, 256314, Note_off_c, 4, 52, 127
1, 256314, Note_off_c, 4, 40, 127
1, 256316, Note_on_c, 2, 38, 127
1, 256316, Note_on_c, 2, 50, 127
1, 256486, Note_off_c, 2, 50, 127
1, 256486, Note_off_c, 2, 38, 127
1, 256508, Note_on_c, 1, 37, 127
1, 256508, Note_on_c, 1, 49, 127
1, 256698, Note_off_c, 1, 49, 127
1, 256698, Note_off_c, 1, 37, 127
1, 256724, Note_on_c, 6, 66, 127
1, 256724, Note_on_c, 12, 71, 127
1, 256724, Note_on_c, 3, 75, 127
1, 256724, Note_on_c, 12, 35, 127
1, 256724, Note_on_c, 12, 47, 127
1, 257490, Note_off_c, 12, 47, 127
1, 257490, Note_off_c, 12, 35, 127
1, 257490, Note_off_c, 3, 75, 127
1, 257490, Note_off_c, 12, 71, 127
1, 257490, Note_off_c, 6, 66, 127
1, 257492, Note_on_c, 12, 71, 127
1, 257492, Note_on_c, 6, 66, 127
1, 257492, Note_on_c, 3, 75, 127
1, 257492, Note_on_c, 6, 54, 127
1, 257492, Note_on_c, 12, 47, 127
1, 257492, Note_on_c, 10, 45, 127
1, 258258, Note_off_c, 10, 45, 127
1, 258258, Note_off_c, 12, 47, 127
1, 258258, Note_off_c, 6, 54, 127
1, 258258, Note_off_c, 3, 75, 127
1, 258258, Note_off_c, 6, 66, 127
1, 258258, Note_off_c, 12, 71, 127
1, 258260, Note_on_c, 12, 71, 127
1, 258260, Note_on_c, 4, 76, 127
1, 258260, Note_on_c, 4, 64, 127
1, 258260, Note_on_c, 12, 47, 127
1, 258260, Note_on_c, 4, 52, 127
1, 258260, Note_on_c, 8, 44, 127
1, 259410, Note_off_c, 8, 44, 127
1, 259410, Note_off_c, 4, 52, 127
1, 259410, Note_off_c, 12, 47, 127
1, 259410, Note_off_c, 4, 64, 127
1, 259410, Note_off_c, 4, 76, 127
1, 259410, Note_off_c, 12, 71, 127
1, 259796, Note_on_c, 10, 69, 127
1, 259796, Note_on_c, 1, 73, 127
1, 259796, Note_on_c, 4, 64, 127
1, 259796, Note_on_c, 4, 52, 127
1, 259796, Note_on_c, 10, 57, 127
1, 259796, Note_on_c, 10, 45, 127
1, 260562, Note_off_c, 10, 45, 127
1, 260562, Note_off_c, 10, 57, 127
1, 260562, Note_off_c, 4, 52, 127
1, 260562, Note_off_c, 4, 64, 127
1, 260562, Note_off_c, 1, 73, 127
1, 260562, Note_off_c, 10, 69, 127
1, 260564, Note_on_c, 1, 73, 127
1, 260564, Note_on_c, 4, 64, 127
1, 260564, Note_on_c, 10, 69, 127
1, 260564, Note_on_c, 10, 57, 127
1, 260564, Note_on_c, 4, 52, 127
1, 260564, Note_on_c, 7, 43, 127
1, 261330, Note_off_c, 7, 43, 127
1, 261330, Note_off_c, 4, 52, 127
1, 261330, Note_off_c, 10, 57, 127
1, 261330, Note_off_c, 10, 69, 127
1, 261330, Note_off_c, 4, 64, 127
1, 261330, Note_off_c, 1, 73, 127
1, 261332, Note_on_c, 2, 62, 127
1, 261332, Note_on_c, 10, 69, 127
1, 261332, Note_on_c, 2, 74, 127
1, 261332, Note_on_c, 6, 66, 127
1, 261332, Note_on_c, 2, 50, 127
1, 261332, Note_on_c, 6, 42, 127
1, 261332, Note_on_c, 10, 45, 127
1, 262482, Note_off_c, 10, 45, 127
1, 262482, Note_off_c, 6, 42, 127
1, 262482, Note_off_c, 2, 50, 127
1, 262482, Note_off_c, 6, 66, 127
1, 262482, Note_off_c, 2, 74, 127
1, 262482, Note_off_c, 10, 69, 127
1, 262482, Note_off_c, 2, 62, 127
1, 262940, Note_on_c, 2, 74, 127
1, 262940, Note_on_c, 8, 80, 127
1, 262940, Note_on_c, 12, 71, 127
1, 262940, Note_on_c, 12, 47, 127
1, 262940, Note_on_c, 2, 50, 127
1, 262940, Note_on_c, 12, 59, 127
1, 263706, Note_off_c, 12, 59, 127
1, 263706, Note_off_c, 2, 50, 127
1, 263706, Note_off_c, 12, 47, 127
1, 263706, Note_off_c, 12, 71, 127
1, 263706, Note_off_c, 8, 80, 127
1, 263706, Note_off_c, 2, 74, 127
1, 263724, Note_on_c, 12, 47, 127
1, 263724, Note_on_c, 12, 59, 127
1, 263724, Note_on_c, 2, 50, 127
1, 263724, Note_on_c, 8, 80, 127
1, 263724, Note_on_c, 2, 74, 127
1, 263724, Note_on_c, 12, 71, 127
1, 264500, Note_off_c, 12, 71, 127
1, 264500, Note_off_c, 2, 74, 127
1, 264500, Note_off_c, 8, 80, 127
1, 264500, Note_off_c, 2, 50, 127
1, 264500, Note_off_c, 12, 59, 127
1, 264500, Note_off_c, 12, 47, 127
1, 264524, Note_on_c, 10, 45, 127
1, 264524, Note_on_c, 4, 52, 127
1, 264524, Note_on_c, 0, 48, 127
1, 264524, Note_on_c, 10, 81, 127
1, 264524, Note_on_c, 4, 76, 127
1, 264524, Note_on_c, 0, 72, 127
1, 264906, Note_off_c, 4, 76, 127
1, 264964, Note_off_c, 0, 72, 127
1, 264964, Note_off_c, 10, 81, 127
1, 264980, Note_on_c, 4, 76, 127
1, 265362, Note_off_c, 4, 76, 127
1, 265364, Note_on_c, 0, 72, 127
1, 265674, Note_off_c, 0, 48, 127
1, 265674, Note_off_c, 4, 52, 127
1, 265674, Note_off_c, 10, 45, 127
1, 265746, Note_off_c, 0, 72, 127
1, 265748, Note_on_c, 12, 71, 127
1, 265956, Note_on_c, 11, 70, 127
1, 265968, Note_off_c, 12, 71, 127
1, 266068, Note_on_c, 12, 71, 127
1, 266096, Note_off_c, 11, 70, 127
1, 266180, Note_on_c, 11, 70, 127
1, 266188, Note_off_c, 12, 71, 127
1, 266274, Note_off_c, 11, 70, 127
1, 266276, Note_on_c, 12, 71, 127
1, 266370, Note_off_c, 12, 71, 127
1, 266372, Note_on_c, 11, 70, 127
1, 267184, Note_off_c, 11, 70, 127
1, 267188, Note_on_c, 11, 70, 127
1, 267188, Note_on_c, 1, 73, 127
1, 267188, Note_on_c, 6, 78, 127
1, 267188, Note_on_c, 6, 54, 127
1, 267188, Note_on_c, 6, 42, 127
1, 267188, Note_on_c, 1, 49, 127
1, 268024, Note_off_c, 1, 49, 127
1, 268024, Note_off_c, 6, 42, 127
1, 268024, Note_off_c, 6, 54, 127
1, 268024, Note_off_c, 6, 78, 127
1, 268024, Note_off_c, 1, 73, 127
1, 268024, Note_off_c, 11, 70, 127
1, 268026, Note_on_c, 12, 71, 127
1, 268026, Note_on_c, 5, 77, 127
1, 268026, Note_on_c, 8, 56, 127
1, 268026, Note_on_c, 8, 44, 127
1, 268338, Note_off_c, 5, 77, 127
1, 268340, Note_on_c, 6, 78, 127
1, 268443, Note_off_c, 6, 78, 127
1, 268445, Note_on_c, 5, 77, 127
1, 268652, Note_off_c, 5, 77, 127
1, 268654, Note_on_c, 6, 78, 127
1, 268757, Note_off_c, 6, 78, 127
1, 268759, Note_on_c, 8, 80, 127
1, 268862, Note_off_c, 8, 80, 127
1, 268864, Note_on_c, 6, 78, 127
1, 269001, Note_off_c, 6, 78, 127
1, 269003, Note_on_c, 5, 77, 127
1, 269073, Note_on_c, 6, 78, 127
1, 269090, Note_off_c, 5, 77, 127
1, 269142, Note_on_c, 5, 77, 127
1, 269159, Note_off_c, 6, 78, 127
1, 269211, Note_on_c, 6, 78, 127
1, 269228, Note_off_c, 5, 77, 127
1, 269280, Note_on_c, 5, 77, 127
1, 269297, Note_off_c, 6, 78, 127
1, 269584, Note_off_c, 5, 77, 127
1, 269607, Note_on_c, 6, 78, 127
1, 269697, Note_off_c, 8, 44, 127
1, 269697, Note_off_c, 8, 56, 127
1, 269697, Note_off_c, 12, 71, 127
1, 269738, Note_off_c, 6, 78, 127
1, 269747, Note_on_c, 6, 42, 127
1, 269747, Note_on_c, 1, 49, 127
1, 269747, Note_on_c, 6, 78, 127
1, 269747, Note_on_c, 11, 70, 127
1, 269747, Note_on_c, 1, 73, 127
1, 273094, Note_off_c, 1, 73, 127
1, 273094, Note_off_c, 11, 70, 127
1, 273094, Note_off_c, 6, 78, 127
1, 273094, Note_off_c, 1, 49, 127
1, 273094, Note_off_c, 6, 42, 127
1, 273194, Note_on_c, 12, 59, 127
1, 273194, Note_on_c, 12, 47, 127
1, 273356, Note_on_c, 2, 62, 127
1, 273413, Note_off_c, 12, 59, 127
1, 273518, Note_on_c, 6, 66, 127
1, 273518, Note_on_c, 12, 59, 127
1, 273575, Note_off_c, 2, 62, 127
1, 273680, Note_on_c, 2, 62, 127
1, 273737, Note_off_c, 6, 66, 127
1, 273826, Note_off_c, 12, 59, 127
1, 273842, Note_on_c, 6, 66, 127
1, 273842, Note_on_c, 12, 59, 127
1, 273899, Note_off_c, 2, 62, 127
1, 274004, Note_on_c, 2, 62, 127
1, 274061, Note_off_c, 6, 66, 127
1, 274161, Note_off_c, 12, 47, 127
1, 274162, Note_off_c, 12, 59, 127
1, 274166, Note_on_c, 12, 59, 127
1, 274166, Note_on_c, 12, 47, 127
1, 274223, Note_off_c, 2, 62, 127
1, 274328, Note_on_c, 2, 62, 127
1, 274486, Note_off_c, 12, 59, 127
1, 274488, Note_off_c, 12, 47, 127
1, 274490, Note_on_c, 12, 59, 127
1, 274490, Note_on_c, 12, 47, 127
1, 274547, Note_off_c, 2, 62, 127
1, 274652, Note_on_c, 2, 62, 127
1, 274812, Note_off_c, 12, 47, 127
1, 274812, Note_off_c, 12, 59, 127
1, 274814, Note_on_c, 6, 66, 127
1, 274814, Note_on_c, 12, 59, 127
1, 274871, Note_off_c, 2, 62, 127
1, 274976, Note_on_c, 2, 62, 127
1, 275033, Note_off_c, 6, 66, 127
1, 275136, Note_off_c, 2, 62, 127
1, 275136, Note_off_c, 12, 59, 127
1, 275138, Note_on_c, 11, 58, 127
1, 275138, Note_on_c, 6, 42, 127
1, 275300, Note_on_c, 1, 61, 127
1, 275357, Note_off_c, 11, 58, 127
1, 275462, Note_on_c, 6, 66, 127
1, 275462, Note_on_c, 6, 54, 127
1, 275519, Note_off_c, 1, 61, 127
1, 275624, Note_on_c, 1, 61, 127
1, 275681, Note_off_c, 6, 66, 127
1, 275784, Note_off_c, 6, 54, 127
1, 275786, Note_on_c, 6, 66, 127
1, 275786, Note_on_c, 6, 54, 127
1, 275843, Note_off_c, 1, 61, 127
1, 275948, Note_on_c, 1, 61, 127
1, 276005, Note_off_c, 6, 66, 127
1, 276108, Note_off_c, 6, 42, 127
1, 276110, Note_on_c, 11, 58, 127
1, 276110, Note_on_c, 6, 42, 127
1, 276167, Note_off_c, 1, 61, 127
1, 276272, Note_on_c, 1, 61, 127
1, 276329, Note_off_c, 11, 58, 127
1, 276432, Note_off_c, 6, 42, 127
1, 276434, Note_on_c, 11, 58, 127
1, 276434, Note_on_c, 6, 42, 127
1, 276491, Note_off_c, 1, 61, 127
1, 276596, Note_on_c, 1, 61, 127
1, 276653, Note_off_c, 11, 58, 127
1, 276756, Note_off_c, 6, 42, 127
1, 276756, Note_off_c, 6, 54, 127
1, 276758, Note_on_c, 6, 66, 127
1, 276758, Note_on_c, 6, 54, 127
1, 276815, Note_off_c, 1, 61, 127
1, 276920, Note_on_c, 1, 61, 127
1, 276977, Note_off_c, 6, 66, 127
1, 277080, Note_off_c, 1, 61, 127
1, 277080, Note_off_c, 6, 54, 127
1, 277082, Note_on_c, 12, 59, 127
1, 277082, Note_on_c, 12, 47, 127
1, 277244, Note_on_c, 2, 62, 127
1, 277301, Note_off_c, 12, 59, 127
1, 277406, Note_on_c, 6, 66, 127
1, 277406, Note_on_c, 12, 59, 127
1, 277463, Note_off_c, 2, 62, 127
1, 277568, Note_on_c, 2, 62, 127
1, 277625, Note_off_c, 6, 66, 127
1, 277728, Note_off_c, 12, 59, 127
1, 277730, Note_on_c, 6, 66, 127
1, 277730, Note_on_c, 12, 59, 127
1, 277787, Note_off_c, 2, 62, 127
1, 277892, Note_on_c, 2, 62, 127
1, 277949, Note_off_c, 6, 66, 127
1, 278046, Note_off_c, 12, 47, 127
1, 278052, Note_off_c, 12, 59, 127
1, 278054, Note_on_c, 12, 59, 127
1, 278054, Note_on_c, 12, 47, 127
1, 278111, Note_off_c, 2, 62, 127
1, 278216, Note_on_c, 2, 62, 127
1, 278376, Note_off_c, 12, 47, 127
1, 278376, Note_off_c, 12, 59, 127
1, 278378, Note_on_c, 12, 59, 127
1, 278378, Note_on_c, 12, 47, 127
1, 278435, Note_off_c, 2, 62, 127
1, 278540, Note_on_c, 2, 62, 127
1, 278700, Note_off_c, 12, 47, 127
1, 278700, Note_off_c, 12, 59, 127
1, 278702, Note_on_c, 6, 66, 127
1, 278702, Note_on_c, 12, 59, 127
1, 278759, Note_off_c, 2, 62, 127
1, 278864, Note_on_c, 2, 62, 127
1, 278921, Note_off_c, 6, 66, 127
1, 279024, Note_off_c, 12, 59, 127
1, 279026, Note_on_c, 10, 57, 127
1, 279026, Note_on_c, 12, 47, 127
1, 279083, Note_off_c, 2, 62, 127
1, 279188, Note_on_c, 3, 63, 127
1, 279245, Note_off_c, 10, 57, 127
1, 279348, Note_off_c, 12, 47, 127
1, 279350, Note_on_c, 6, 66, 127
1, 279350, Note_on_c, 12, 47, 127
1, 279407, Note_off_c, 3, 63, 127
1, 279512, Note_on_c, 3, 63, 127
1, 279569, Note_off_c, 6, 66, 127
1, 279672, Note_off_c, 12, 47, 127
1, 279674, Note_on_c, 6, 66, 127
1, 279674, Note_on_c, 12, 47, 127
1, 279731, Note_off_c, 3, 63, 127
1, 279836, Note_on_c, 3, 63, 127
1, 279893, Note_off_c, 6, 66, 127
1, 279996, Note_off_c, 12, 47, 127
1, 279998, Note_on_c, 10, 57, 127
1, 279998, Note_on_c, 12, 47, 127
1, 280055, Note_off_c, 3, 63, 127
1, 280160, Note_on_c, 3, 63, 127
1, 280217, Note_off_c, 10, 57, 127
1, 280320, Note_off_c, 12, 47, 127
1, 280322, Note_on_c, 10, 57, 127
1, 280322, Note_on_c, 12, 47, 127
1, 280379, Note_off_c, 3, 63, 127
1, 280484, Note_on_c, 3, 63, 127
1, 280541, Note_off_c, 10, 57, 127
1, 280644, Note_off_c, 12, 47, 127
1, 280646, Note_on_c, 6, 66, 127
1, 280646, Note_on_c, 12, 47, 127
1, 280703, Note_off_c, 3, 63, 127
1, 280808, Note_on_c, 3, 63, 127
1, 280865, Note_off_c, 6, 66, 127
1, 280968, Note_off_c, 3, 63, 127
1, 280968, Note_off_c, 12, 47, 127
1, 280970, Note_on_c, 7, 55, 127
1, 280970, Note_on_c, 4, 40, 127
1, 281148, Note_on_c, 12, 59, 127
1, 281206, Note_off_c, 7, 55, 127
1, 281310, Note_on_c, 4, 52, 127
1, 281310, Note_on_c, 4, 64, 127
1, 281384, Note_off_c, 12, 59, 127
1, 281472, Note_on_c, 12, 59, 127
1, 281546, Note_off_c, 4, 64, 127
1, 281632, Note_off_c, 4, 52, 127
1, 281634, Note_on_c, 4, 52, 127
1, 281634, Note_on_c, 4, 64, 127
1, 281708, Note_off_c, 12, 59, 127
1, 281796, Note_on_c, 12, 59, 127
1, 281870, Note_off_c, 4, 64, 127
1, 281940, Note_off_c, 4, 40, 127
1, 281958, Note_on_c, 4, 40, 127
1, 281958, Note_on_c, 7, 55, 127
1, 282032, Note_off_c, 12, 59, 127
1, 282120, Note_on_c, 12, 59, 127
1, 282194, Note_off_c, 7, 55, 127
1, 282280, Note_off_c, 4, 40, 127
1, 282282, Note_on_c, 4, 40, 127
1, 282282, Note_on_c, 7, 55, 127
1, 282356, Note_off_c, 12, 59, 127
1, 282444, Note_on_c, 12, 59, 127
1, 282518, Note_off_c, 7, 55, 127
1, 282604, Note_off_c, 4, 40, 127
1, 282604, Note_off_c, 4, 52, 127
1, 282606, Note_on_c, 4, 52, 127
1, 282606, Note_on_c, 4, 64, 127
1, 282680, Note_off_c, 12, 59, 127
1, 282768, Note_on_c, 12, 59, 127
1, 282842, Note_off_c, 4, 64, 127
1, 282928, Note_off_c, 4, 52, 127
1, 282946, Note_on_c, 4, 64, 127
1, 282946, Note_on_c, 4, 52, 127
1, 283004, Note_off_c, 12, 59, 127
1, 283108, Note_on_c, 7, 67, 127
1, 283182, Note_off_c, 4, 64, 127
1, 283270, Note_on_c, 12, 71, 127
1, 283270, Note_on_c, 4, 64, 127
1, 283344, Note_off_c, 7, 67, 127
1, 283432, Note_on_c, 7, 67, 127
1, 283506, Note_off_c, 12, 71, 127
1, 283592, Note_off_c, 4, 64, 127
1, 283594, Note_on_c, 12, 71, 127
1, 283594, Note_on_c, 4, 64, 127
1, 283668, Note_off_c, 7, 67, 127
1, 283756, Note_on_c, 7, 67, 127
1, 283830, Note_off_c, 12, 71, 127
1, 283900, Note_off_c, 4, 64, 127
1, 283916, Note_off_c, 4, 52, 127
1, 283918, Note_on_c, 4, 64, 127
1, 283918, Note_on_c, 4, 52, 127
1, 283992, Note_off_c, 7, 67, 127
1, 284080, Note_on_c, 7, 67, 127
1, 284224, Note_off_c, 4, 64, 127
1, 284240, Note_off_c, 4, 52, 127
1, 284242, Note_on_c, 4, 64, 127
1, 284242, Note_on_c, 4, 52, 127
1, 284316, Note_off_c, 7, 67, 127
1, 284404, Note_on_c, 7, 67, 127
1, 284564, Note_off_c, 4, 52, 127
1, 284564, Note_off_c, 4, 64, 127
1, 284566, Note_on_c, 12, 71, 127
1, 284566, Note_on_c, 4, 64, 127
1, 284640, Note_off_c, 7, 67, 127
1, 284728, Note_on_c, 7, 67, 127
1, 284802, Note_off_c, 12, 71, 127
1, 284888, Note_off_c, 7, 67, 127
1, 284888, Note_off_c, 4, 64, 127
1, 284890, Note_on_c, 3, 63, 127
1, 284890, Note_on_c, 12, 47, 127
1, 285052, Note_on_c, 6, 66, 127
1, 285126, Note_off_c, 3, 63, 127
1, 285214, Note_on_c, 12, 71, 127
1, 285214, Note_on_c, 12, 59, 127
1, 285288, Note_off_c, 6, 66, 127
1, 285376, Note_on_c, 6, 66, 127
1, 285450, Note_off_c, 12, 71, 127
1, 285536, Note_off_c, 12, 59, 127
1, 285538, Note_on_c, 12, 71, 127
1, 285538, Note_on_c, 12, 59, 127
1, 285612, Note_off_c, 6, 66, 127
1, 285700, Note_on_c, 6, 66, 127
1, 285774, Note_off_c, 12, 71, 127
1, 285860, Note_off_c, 12, 47, 127
1, 285862, Note_on_c, 3, 63, 127
1, 285862, Note_on_c, 12, 47, 127
1, 285936, Note_off_c, 6, 66, 127
1, 286024, Note_on_c, 6, 66, 127
1, 286098, Note_off_c, 3, 63, 127
1, 286184, Note_off_c, 12, 47, 127
1, 286186, Note_on_c, 3, 63, 127
1, 286186, Note_on_c, 12, 47, 127
1, 286260, Note_off_c, 6, 66, 127
1, 286348, Note_on_c, 6, 66, 127
1, 286422, Note_off_c, 3, 63, 127
1, 286508, Note_off_c, 12, 47, 127
1, 286508, Note_off_c, 12, 59, 127
1, 286510, Note_on_c, 12, 71, 127
1, 286510, Note_on_c, 12, 59, 127
1, 286584, Note_off_c, 6, 66, 127
1, 286672, Note_on_c, 6, 66, 127
1, 286746, Note_off_c, 12, 71, 127
1, 286832, Note_off_c, 6, 66, 127
1, 286832, Note_off_c, 12, 59, 127
1, 286834, Note_on_c, 4, 64, 127
1, 286834, Note_on_c, 4, 52, 127
1, 286996, Note_on_c, 7, 67, 127
1, 287070, Note_off_c, 4, 64, 127
1, 287158, Note_on_c, 12, 71, 127
1, 287158, Note_on_c, 4, 64, 127
1, 287232, Note_off_c, 7, 67, 127
1, 287320, Note_on_c, 7, 67, 127
1, 287394, Note_off_c, 12, 71, 127
1, 287480, Note_off_c, 4, 64, 127
1, 287482, Note_on_c, 12, 71, 127
1, 287482, Note_on_c, 4, 64, 127
1, 287556, Note_off_c, 7, 67, 127
1, 287644, Note_on_c, 7, 67, 127
1, 287718, Note_off_c, 12, 71, 127
1, 287788, Note_off_c, 4, 64, 127
1, 287804, Note_off_c, 4, 52, 127
1, 287806, Note_on_c, 4, 64, 127
1, 287806, Note_on_c, 4, 52, 127
1, 287880, Note_off_c, 7, 67, 127
1, 287968, Note_on_c, 7, 67, 127
1, 288112, Note_off_c, 4, 64, 127
1, 288128, Note_off_c, 4, 52, 127
1, 288130, Note_on_c, 4, 64, 127
1, 288130, Note_on_c, 4, 52, 127
1, 288204, Note_off_c, 7, 67, 127
1, 288292, Note_on_c, 7, 67, 127
1, 288436, Note_off_c, 4, 64, 127
1, 288452, Note_off_c, 4, 52, 127
1, 288454, Note_on_c, 12, 71, 127
1, 288454, Note_on_c, 4, 64, 127
1, 288528, Note_off_c, 7, 67, 127
1, 288616, Note_on_c, 7, 67, 127
1, 288690, Note_off_c, 12, 71, 127
1, 288776, Note_off_c, 4, 64, 127
1, 288778, Note_on_c, 2, 62, 127
1, 288778, Note_on_c, 4, 40, 127
1, 288852, Note_off_c, 7, 67, 127
1, 288940, Note_on_c, 8, 68, 127
1, 289014, Note_off_c, 2, 62, 127
1, 289102, Note_on_c, 12, 71, 127
1, 289102, Note_on_c, 4, 52, 127
1, 289176, Note_off_c, 8, 68, 127
1, 289264, Note_on_c, 8, 68, 127
1, 289338, Note_off_c, 12, 71, 127
1, 289424, Note_off_c, 4, 52, 127
1, 289426, Note_on_c, 12, 71, 127
1, 289426, Note_on_c, 4, 52, 127
1, 289500, Note_off_c, 8, 68, 127
1, 289588, Note_on_c, 8, 68, 127
1, 289662, Note_off_c, 12, 71, 127
1, 289748, Note_off_c, 4, 40, 127
1, 289750, Note_on_c, 2, 62, 127
1, 289750, Note_on_c, 4, 40, 127
1, 289824, Note_off_c, 8, 68, 127
1, 289912, Note_on_c, 8, 68, 127
1, 289986, Note_off_c, 2, 62, 127
1, 290072, Note_off_c, 4, 40, 127
1, 290074, Note_on_c, 2, 62, 127
1, 290074, Note_on_c, 4, 40, 127
1, 290148, Note_off_c, 8, 68, 127
1, 290236, Note_on_c, 8, 68, 127
1, 290310, Note_off_c, 2, 62, 127
1, 290396, Note_off_c, 4, 40, 127
1, 290396, Note_off_c, 4, 52, 127
1, 290398, Note_on_c, 12, 71, 127
1, 290398, Note_on_c, 4, 52, 127
1, 290472, Note_off_c, 8, 68, 127
1, 290560, Note_on_c, 8, 68, 127
1, 290634, Note_off_c, 12, 71, 127
1, 290720, Note_off_c, 8, 68, 127
1, 290720, Note_off_c, 4, 52, 127
1, 290722, Note_on_c, 0, 60, 127
1, 290722, Note_on_c, 10, 45, 127
1, 290884, Note_on_c, 10, 69, 127
1, 290958, Note_off_c, 0, 60, 127
1, 291046, Note_on_c, 0, 72, 127
1, 291046, Note_on_c, 10, 57, 127
1, 291120, Note_off_c, 10, 69, 127
1, 291208, Note_on_c, 10, 69, 127
1, 291282, Note_off_c, 0, 72, 127
1, 291368, Note_off_c, 10, 57, 127
1, 291370, Note_on_c, 0, 72, 127
1, 291370, Note_on_c, 10, 57, 127
1, 291444, Note_off_c, 10, 69, 127
1, 291532, Note_on_c, 10, 69, 127
1, 291606, Note_off_c, 0, 72, 127
1, 291692, Note_off_c, 10, 45, 127
1, 291694, Note_on_c, 4, 64, 127
1, 291694, Note_on_c, 10, 45, 127
1, 291768, Note_off_c, 10, 69, 127
1, 291856, Note_on_c, 10, 69, 127
1, 291930, Note_off_c, 4, 64, 127
1, 292016, Note_off_c, 10, 45, 127
1, 292018, Note_on_c, 4, 64, 127
1, 292018, Note_on_c, 10, 45, 127
1, 292092, Note_off_c, 10, 69, 127
1, 292180, Note_on_c, 10, 69, 127
1, 292254, Note_off_c, 4, 64, 127
1, 292340, Note_off_c, 10, 45, 127
1, 292340, Note_off_c, 10, 57, 127
1, 292342, Note_on_c, 0, 72, 127
1, 292342, Note_on_c, 10, 57, 127
1, 292416, Note_off_c, 10, 69, 127
1, 292504, Note_on_c, 10, 69, 127
1, 292578, Note_off_c, 0, 72, 127
1, 292664, Note_off_c, 10, 57, 127
1, 292676, Note_on_c, 4, 64, 127
1, 292676, Note_on_c, 6, 42, 127
1, 292740, Note_off_c, 10, 69, 127
1, 292844, Note_on_c, 11, 70, 127
1, 292912, Note_off_c, 4, 64, 127
1, 293006, Note_on_c, 6, 54, 127
1, 293006, Note_on_c, 1, 73, 127
1, 293080, Note_off_c, 11, 70, 127
1, 293168, Note_on_c, 11, 70, 127
1, 293242, Note_off_c, 1, 73, 127
1, 293328, Note_off_c, 6, 54, 127
1, 293330, Note_on_c, 6, 54, 127
1, 293330, Note_on_c, 1, 73, 127
1, 293404, Note_off_c, 11, 70, 127
1, 293492, Note_on_c, 11, 70, 127
1, 293566, Note_off_c, 1, 73, 127
1, 293646, Note_off_c, 6, 42, 127
1, 293654, Note_on_c, 6, 42, 127
1, 293654, Note_on_c, 4, 64, 127
1, 293728, Note_off_c, 11, 70, 127
1, 293816, Note_on_c, 11, 70, 127
1, 293890, Note_off_c, 4, 64, 127
1, 293976, Note_off_c, 6, 42, 127
1, 293978, Note_on_c, 6, 42, 127
1, 293978, Note_on_c, 4, 64, 127
1, 294052, Note_off_c, 11, 70, 127
1, 294140, Note_on_c, 11, 70, 127
1, 294214, Note_off_c, 4, 64, 127
1, 294300, Note_off_c, 6, 42, 127
1, 294300, Note_off_c, 6, 54, 127
1, 294302, Note_on_c, 6, 54, 127
1, 294302, Note_on_c, 1, 73, 127
1, 294376, Note_off_c, 11, 70, 127
1, 294464, Note_on_c, 11, 70, 127
1, 294538, Note_off_c, 1, 73, 127
1, 294624, Note_off_c, 11, 70, 127
1, 294624, Note_off_c, 6, 54, 127
1, 294626, Note_on_c, 12, 47, 127
1, 294626, Note_on_c, 2, 62, 127
1, 294788, Note_on_c, 6, 66, 127
1, 294913, Note_off_c, 2, 62, 127
1, 294950, Note_on_c, 12, 59, 127
1, 294950, Note_on_c, 12, 71, 127
1, 295075, Note_off_c, 6, 66, 127
1, 295112, Note_on_c, 2, 74, 127
1, 295237, Note_off_c, 12, 71, 127
1, 295272, Note_off_c, 12, 59, 127
1, 295274, Note_on_c, 12, 59, 127
1, 295274, Note_on_c, 6, 66, 127
1, 295399, Note_off_c, 2, 74, 127
1, 295436, Note_on_c, 12, 71, 127
1, 295561, Note_off_c, 6, 66, 127
1, 295596, Note_off_c, 12, 47, 127
1, 295598, Note_on_c, 12, 47, 127
1, 295598, Note_on_c, 2, 74, 127
1, 295723, Note_off_c, 12, 71, 127
1, 295760, Note_on_c, 6, 78, 127
1, 295885, Note_off_c, 2, 74, 127
1, 295920, Note_off_c, 12, 47, 127
1, 295922, Note_on_c, 12, 47, 127
1, 295922, Note_on_c, 12, 71, 127
1, 296047, Note_off_c, 6, 78, 127
1, 296084, Note_on_c, 2, 74, 127
1, 296209, Note_off_c, 12, 71, 127
1, 296244, Note_off_c, 12, 47, 127
1, 296244, Note_off_c, 12, 59, 127
1, 296246, Note_on_c, 12, 59, 127
1, 296246, Note_on_c, 6, 78, 127
1, 296371, Note_off_c, 2, 74, 127
1, 296408, Note_on_c, 12, 83, 127
1, 296533, Note_off_c, 6, 78, 127
1, 296568, Note_off_c, 12, 59, 127
1, 296586, Note_on_c, 8, 80, 127
1, 296586, Note_on_c, 4, 52, 127
1, 296695, Note_off_c, 12, 83, 127
1, 296748, Note_on_c, 2, 74, 127
1, 296831, Note_off_c, 8, 80, 127
1, 296910, Note_on_c, 12, 71, 127
1, 296910, Note_on_c, 4, 64, 127
1, 296993, Note_off_c, 2, 74, 127
1, 297072, Note_on_c, 2, 74, 127
1, 297155, Note_off_c, 12, 71, 127
1, 297233, Note_off_c, 4, 64, 127
1, 297235, Note_on_c, 12, 71, 127
1, 297235, Note_on_c, 4, 64, 127
1, 297318, Note_off_c, 2, 74, 127
1, 297397, Note_on_c, 2, 74, 127
1, 297480, Note_off_c, 12, 71, 127
1, 297558, Note_off_c, 4, 52, 127
1, 297560, Note_on_c, 8, 80, 127
1, 297560, Note_on_c, 4, 52, 127
1, 297643, Note_off_c, 2, 74, 127
1, 297722, Note_on_c, 2, 74, 127
1, 297805, Note_off_c, 8, 80, 127
1, 297883, Note_off_c, 4, 52, 127
1, 297885, Note_on_c, 8, 80, 127
1, 297885, Note_on_c, 4, 52, 127
1, 297968, Note_off_c, 2, 74, 127
1, 298047, Note_on_c, 2, 74, 127
1, 298130, Note_off_c, 8, 80, 127
1, 298208, Note_off_c, 4, 52, 127
1, 298208, Note_off_c, 4, 64, 127
1, 298210, Note_on_c, 12, 71, 127
1, 298210, Note_on_c, 4, 64, 127
1, 298293, Note_off_c, 2, 74, 127
1, 298372, Note_on_c, 2, 74, 127
1, 298455, Note_off_c, 12, 71, 127
1, 298533, Note_off_c, 2, 74, 127
1, 298533, Note_off_c, 4, 64, 127
1, 298535, Note_on_c, 0, 72, 127
1, 298535, Note_on_c, 10, 57, 127
1, 298713, Note_on_c, 4, 76, 127
1, 298780, Note_off_c, 0, 72, 127
1, 298875, Note_on_c, 10, 69, 127
1, 298875, Note_on_c, 10, 81, 127
1, 298958, Note_off_c, 4, 76, 127
1, 299037, Note_on_c, 4, 76, 127
1, 299120, Note_off_c, 10, 81, 127
1, 299198, Note_off_c, 10, 69, 127
1, 299200, Note_on_c, 10, 69, 127
1, 299200, Note_on_c, 10, 81, 127
1, 299283, Note_off_c, 4, 76, 127
1, 299362, Note_on_c, 4, 76, 127
1, 299445, Note_off_c, 10, 81, 127
1, 299507, Note_off_c, 10, 57, 127
1, 299525, Note_on_c, 10, 57, 127
1, 299525, Note_on_c, 0, 72, 127
1, 299608, Note_off_c, 4, 76, 127
1, 299687, Note_on_c, 4, 76, 127
1, 299770, Note_off_c, 0, 72, 127
1, 299840, Note_off_c, 10, 69, 127
1, 299848, Note_off_c, 10, 57, 127
1, 299850, Note_on_c, 10, 57, 127
1, 299850, Note_on_c, 10, 69, 127
1, 299933, Note_off_c, 4, 76, 127
1, 300012, Note_on_c, 0, 72, 127
1, 300173, Note_off_c, 10, 69, 127
1, 300173, Note_off_c, 10, 57, 127
1, 300175, Note_on_c, 10, 69, 127
1, 300175, Note_on_c, 4, 76, 127
1, 300258, Note_off_c, 0, 72, 127
1, 300337, Note_on_c, 0, 72, 127
1, 300420, Note_off_c, 4, 76, 127
1, 300498, Note_off_c, 0, 72, 127
1, 300498, Note_off_c, 10, 69, 127
1, 300500, Note_on_c, 10, 45, 127
1, 300500, Note_on_c, 10, 69, 127
1, 300662, Note_on_c, 1, 73, 127
1, 300745, Note_off_c, 10, 69, 127
1, 300824, Note_on_c, 10, 57, 127
1, 300824, Note_on_c, 7, 79, 127
1, 300907, Note_off_c, 1, 73, 127
1, 300986, Note_on_c, 1, 73, 127
1, 301069, Note_off_c, 7, 79, 127
1, 301147, Note_off_c, 10, 57, 127
1, 301149, Note_on_c, 10, 57, 127
1, 301149, Note_on_c, 7, 79, 127
1, 301232, Note_off_c, 1, 73, 127
1, 301311, Note_on_c, 1, 73, 127
1, 301394, Note_off_c, 7, 79, 127
1, 301472, Note_off_c, 10, 45, 127
1, 301474, Note_on_c, 10, 45, 127
1, 301474, Note_on_c, 10, 69, 127
1, 301557, Note_off_c, 1, 73, 127
1, 301636, Note_on_c, 1, 73, 127
1, 301719, Note_off_c, 10, 69, 127
1, 301797, Note_off_c, 10, 45, 127
1, 301799, Note_on_c, 10, 45, 127
1, 301799, Note_on_c, 10, 69, 127
1, 301882, Note_off_c, 1, 73, 127
1, 301961, Note_on_c, 1, 73, 127
1, 302044, Note_off_c, 10, 69, 127
1, 302122, Note_off_c, 10, 45, 127
1, 302122, Note_off_c, 10, 57, 127
1, 302124, Note_on_c, 10, 57, 127
1, 302124, Note_on_c, 7, 79, 127
1, 302207, Note_off_c, 1, 73, 127
1, 302286, Note_on_c, 1, 73, 127
1, 302369, Note_off_c, 7, 79, 127
1, 302447, Note_off_c, 1, 73, 127
1, 302447, Note_off_c, 10, 57, 127
1, 302449, Note_on_c, 2, 50, 127
1, 302449, Note_on_c, 10, 69, 127
1, 302627, Note_on_c, 2, 74, 127
1, 302694, Note_off_c, 10, 69, 127
1, 302789, Note_on_c, 5, 77, 127
1, 302789, Note_on_c, 2, 62, 127
1, 302872, Note_off_c, 2, 74, 127
1, 302951, Note_on_c, 2, 74, 127
1, 303034, Note_off_c, 5, 77, 127
1, 303112, Note_off_c, 2, 62, 127
1, 303114, Note_on_c, 5, 77, 127
1, 303114, Note_on_c, 2, 62, 127
1, 303197, Note_off_c, 2, 74, 127
1, 303276, Note_on_c, 2, 74, 127
1, 303359, Note_off_c, 5, 77, 127
1, 303421, Note_off_c, 2, 50, 127
1, 303439, Note_on_c, 10, 69, 127
1, 303439, Note_on_c, 2, 50, 127
1, 303522, Note_off_c, 2, 74, 127
1, 303601, Note_on_c, 2, 74, 127
1, 303684, Note_off_c, 10, 69, 127
1, 303762, Note_off_c, 2, 50, 127
1, 303764, Note_on_c, 10, 69, 127
1, 303764, Note_on_c, 2, 50, 127
1, 303847, Note_off_c, 2, 74, 127
1, 303926, Note_on_c, 2, 74, 127
1, 304009, Note_off_c, 10, 69, 127
1, 304087, Note_off_c, 2, 50, 127
1, 304087, Note_off_c, 2, 62, 127
1, 304089, Note_on_c, 5, 77, 127
1, 304089, Note_on_c, 2, 62, 127
1, 304172, Note_off_c, 2, 74, 127
1, 304251, Note_on_c, 2, 74, 127
1, 304334, Note_off_c, 5, 77, 127
1, 304412, Note_off_c, 2, 74, 127
1, 304412, Note_off_c, 2, 62, 127
1, 304414, Note_on_c, 10, 69, 127
1, 304414, Note_on_c, 12, 47, 127
1, 304592, Note_on_c, 3, 75, 127
1, 304659, Note_off_c, 10, 69, 127
1, 304754, Note_on_c, 12, 59, 127
1, 304754, Note_on_c, 6, 78, 127
1, 304837, Note_off_c, 3, 75, 127
1, 304916, Note_on_c, 3, 75, 127
1, 304999, Note_off_c, 6, 78, 127
1, 305077, Note_off_c, 12, 59, 127
1, 305079, Note_on_c, 12, 59, 127
1, 305079, Note_on_c, 6, 78, 127
1, 305162, Note_off_c, 3, 75, 127
1, 305241, Note_on_c, 3, 75, 127
1, 305324, Note_off_c, 6, 78, 127
1, 305386, Note_off_c, 12, 47, 127
1, 305404, Note_on_c, 12, 47, 127
1, 305404, Note_on_c, 10, 69, 127
1, 305487, Note_off_c, 3, 75, 127
1, 305566, Note_on_c, 3, 75, 127
1, 305649, Note_off_c, 10, 69, 127
1, 305727, Note_off_c, 12, 47, 127
1, 305729, Note_on_c, 12, 47, 127
1, 305729, Note_on_c, 10, 69, 127
1, 305812, Note_off_c, 3, 75, 127
1, 305891, Note_on_c, 3, 75, 127
1, 305974, Note_off_c, 10, 69, 127
1, 306052, Note_off_c, 12, 47, 127
1, 306052, Note_off_c, 12, 59, 127
1, 306054, Note_on_c, 12, 59, 127
1, 306054, Note_on_c, 6, 78, 127
1, 306137, Note_off_c, 3, 75, 127
1, 306216, Note_on_c, 3, 75, 127
1, 306299, Note_off_c, 6, 78, 127
1, 306377, Note_off_c, 3, 75, 127
1, 306377, Note_off_c, 12, 59, 127
1, 306379, Note_on_c, 4, 52, 127
1, 306379, Note_on_c, 7, 67, 127
1, 306557, Note_on_c, 4, 76, 127
1, 306624, Note_off_c, 7, 67, 127
1, 306719, Note_on_c, 7, 79, 127
1, 306719, Note_on_c, 4, 64, 127
1, 306802, Note_off_c, 4, 76, 127
1, 306881, Note_on_c, 4, 76, 127
1, 306964, Note_off_c, 7, 79, 127
1, 307042, Note_off_c, 4, 64, 127
1, 307044, Note_on_c, 7, 79, 127
1, 307044, Note_on_c, 4, 64, 127
1, 307127, Note_off_c, 4, 76, 127
1, 307206, Note_on_c, 4, 76, 127
1, 307289, Note_off_c, 7, 79, 127
1, 307351, Note_off_c, 4, 52, 127
1, 307369, Note_on_c, 12, 71, 127
1, 307369, Note_on_c, 4, 52, 127
1, 307452, Note_off_c, 4, 76, 127
1, 307531, Note_on_c, 4, 76, 127
1, 307614, Note_off_c, 12, 71, 127
1, 307692, Note_off_c, 4, 52, 127
1, 307694, Note_on_c, 12, 71, 127
1, 307694, Note_on_c, 4, 52, 127
1, 307777, Note_off_c, 4, 76, 127
1, 307856, Note_on_c, 4, 76, 127
1, 307939, Note_off_c, 12, 71, 127
1, 308017, Note_off_c, 4, 52, 127
1, 308017, Note_off_c, 4, 64, 127
1, 308019, Note_on_c, 7, 79, 127
1, 308019, Note_on_c, 4, 64, 127
1, 308102, Note_off_c, 4, 76, 127
1, 308181, Note_on_c, 4, 76, 127
1, 308264, Note_off_c, 7, 79, 127
1, 308342, Note_off_c, 4, 64, 127
1, 308344, Note_on_c, 0, 72, 127
1, 308344, Note_on_c, 4, 52, 127
1, 308427, Note_off_c, 4, 76, 127
1, 308522, Note_on_c, 4, 76, 127
1, 308589, Note_off_c, 0, 72, 127
1, 308684, Note_on_c, 4, 64, 127
1, 308684, Note_on_c, 7, 79, 127
1, 308767, Note_off_c, 4, 76, 127
1, 308846, Note_on_c, 4, 76, 127
1, 308929, Note_off_c, 7, 79, 127
1, 309007, Note_off_c, 4, 64, 127
1, 309009, Note_on_c, 4, 64, 127
1, 309009, Note_on_c, 7, 79, 127
1, 309092, Note_off_c, 4, 76, 127
1, 309171, Note_on_c, 4, 76, 127
1, 309254, Note_off_c, 7, 79, 127
1, 309316, Note_off_c, 4, 52, 127
1, 309334, Note_on_c, 4, 52, 127
1, 309334, Note_on_c, 0, 72, 127
1, 309417, Note_off_c, 4, 76, 127
1, 309496, Note_on_c, 4, 76, 127
1, 309579, Note_off_c, 0, 72, 127
1, 309657, Note_off_c, 4, 52, 127
1, 309659, Note_on_c, 4, 52, 127
1, 309659, Note_on_c, 0, 72, 127
1, 309742, Note_off_c, 4, 76, 127
1, 309821, Note_on_c, 4, 76, 127
1, 309904, Note_off_c, 0, 72, 127
1, 309982, Note_off_c, 4, 52, 127
1, 309982, Note_off_c, 4, 64, 127
1, 309984, Note_on_c, 4, 64, 127
1, 309984, Note_on_c, 7, 79, 127
1, 310067, Note_off_c, 4, 76, 127
1, 310146, Note_on_c, 4, 76, 127
1, 310229, Note_off_c, 7, 79, 127
1, 310307, Note_off_c, 4, 64, 127
1, 310309, Note_on_c, 4, 52, 127
1, 310309, Note_on_c, 12, 71, 127
1, 310392, Note_off_c, 4, 76, 127
1, 310487, Note_on_c, 4, 76, 127
1, 310554, Note_off_c, 12, 71, 127
1, 310649, Note_on_c, 7, 79, 127
1, 310649, Note_on_c, 4, 64, 127
1, 310732, Note_off_c, 4, 76, 127
1, 310811, Note_on_c, 4, 76, 127
1, 310894, Note_off_c, 7, 79, 127
1, 310972, Note_off_c, 4, 64, 127
1, 310974, Note_on_c, 7, 79, 127
1, 310974, Note_on_c, 4, 64, 127
1, 311057, Note_off_c, 4, 76, 127
1, 311136, Note_on_c, 4, 76, 127
1, 311219, Note_off_c, 7, 79, 127
1, 311281, Note_off_c, 4, 52, 127
1, 311299, Note_on_c, 12, 71, 127
1, 311299, Note_on_c, 4, 52, 127
1, 311382, Note_off_c, 4, 76, 127
1, 311461, Note_on_c, 4, 76, 127
1, 311544, Note_off_c, 12, 71, 127
1, 311622, Note_off_c, 4, 52, 127
1, 311624, Note_on_c, 12, 71, 127
1, 311624, Note_on_c, 4, 52, 127
1, 311707, Note_off_c, 4, 76, 127
1, 311786, Note_on_c, 4, 76, 127
1, 311869, Note_off_c, 12, 71, 127
1, 311947, Note_off_c, 4, 52, 127
1, 311947, Note_off_c, 4, 64, 127
1, 311949, Note_on_c, 7, 79, 127
1, 311949, Note_on_c, 4, 64, 127
1, 312032, Note_off_c, 4, 76, 127
1, 312111, Note_on_c, 4, 76, 127
1, 312194, Note_off_c, 7, 79, 127
1, 312272, Note_off_c, 4, 64, 127
1, 312274, Note_on_c, 11, 70, 127
1, 312274, Note_on_c, 1, 49, 127
1, 312357, Note_off_c, 4, 76, 127
1, 312452, Note_on_c, 4, 76, 127
1, 312519, Note_off_c, 11, 70, 127
1, 312614, Note_on_c, 1, 61, 127
1, 312614, Note_on_c, 7, 79, 127
1, 312697, Note_off_c, 4, 76, 127
1, 312776, Note_on_c, 4, 76, 127
1, 312859, Note_off_c, 7, 79, 127
1, 312937, Note_off_c, 1, 61, 127
1, 312939, Note_on_c, 1, 61, 127
1, 312939, Note_on_c, 7, 79, 127
1, 313022, Note_off_c, 4, 76, 127
1, 313101, Note_on_c, 4, 76, 127
1, 313184, Note_off_c, 7, 79, 127
1, 313246, Note_off_c, 1, 49, 127
1, 313264, Note_on_c, 1, 49, 127
1, 313264, Note_on_c, 11, 70, 127
1, 313347, Note_off_c, 4, 76, 127
1, 313426, Note_on_c, 4, 76, 127
1, 313509, Note_off_c, 11, 70, 127
1, 313587, Note_off_c, 1, 49, 127
1, 313589, Note_on_c, 1, 49, 127
1, 313589, Note_on_c, 11, 70, 127
1, 313672, Note_off_c, 4, 76, 127
1, 313751, Note_on_c, 4, 76, 127
1, 313834, Note_off_c, 11, 70, 127
1, 313912, Note_off_c, 1, 49, 127
1, 313912, Note_off_c, 1, 61, 127
1, 313914, Note_on_c, 1, 61, 127
1, 313914, Note_on_c, 7, 79, 127
1, 313997, Note_off_c, 4, 76, 127
1, 314076, Note_on_c, 4, 76, 127
1, 314159, Note_off_c, 7, 79, 127
1, 314237, Note_off_c, 4, 76, 127
1, 314237, Note_off_c, 1, 61, 127
1, 314239, Note_on_c, 12, 47, 127
1, 314239, Note_on_c, 12, 71, 127
1, 314417, Note_on_c, 3, 75, 127
1, 314484, Note_off_c, 12, 71, 127
1, 314579, Note_on_c, 6, 78, 127
1, 314579, Note_on_c, 12, 59, 127
1, 314662, Note_off_c, 3, 75, 127
1, 314741, Note_on_c, 3, 75, 127
1, 314824, Note_off_c, 6, 78, 127
1, 314902, Note_off_c, 12, 59, 127
1, 314904, Note_on_c, 6, 78, 127
1, 314904, Note_on_c, 12, 59, 127
1, 314987, Note_off_c, 3, 75, 127
1, 315066, Note_on_c, 3, 75, 127
1, 315149, Note_off_c, 6, 78, 127
1, 315211, Note_off_c, 12, 47, 127
1, 315229, Note_on_c, 12, 71, 127
1, 315229, Note_on_c, 12, 47, 127
1, 315312, Note_off_c, 3, 75, 127
1, 315391, Note_on_c, 3, 75, 127
1, 315474, Note_off_c, 12, 71, 127
1, 315552, Note_off_c, 12, 47, 127
1, 315554, Note_on_c, 12, 71, 127
1, 315554, Note_on_c, 12, 47, 127
1, 315637, Note_off_c, 3, 75, 127
1, 315716, Note_on_c, 3, 75, 127
1, 315799, Note_off_c, 12, 71, 127
1, 315877, Note_off_c, 12, 47, 127
1, 315877, Note_off_c, 12, 59, 127
1, 315879, Note_on_c, 6, 78, 127
1, 315879, Note_on_c, 12, 59, 127
1, 315962, Note_off_c, 3, 75, 127
1, 316041, Note_on_c, 3, 75, 127
1, 316124, Note_off_c, 6, 78, 127
1, 316202, Note_off_c, 12, 59, 127
1, 316204, Note_on_c, 10, 69, 127
1, 316204, Note_on_c, 12, 47, 127
1, 316287, Note_off_c, 3, 75, 127
1, 316366, Note_on_c, 3, 75, 127
1, 316449, Note_off_c, 10, 69, 127
1, 316527, Note_off_c, 12, 47, 127
1, 316529, Note_on_c, 6, 78, 127
1, 316529, Note_on_c, 12, 47, 127
1, 316612, Note_off_c, 3, 75, 127
1, 316691, Note_on_c, 3, 75, 127
1, 316774, Note_off_c, 6, 78, 127
1, 316852, Note_off_c, 12, 47, 127
1, 316854, Note_on_c, 6, 78, 127
1, 316854, Note_on_c, 12, 47, 127
1, 316937, Note_off_c, 3, 75, 127
1, 317016, Note_on_c, 3, 75, 127
1, 317099, Note_off_c, 6, 78, 127
1, 317177, Note_off_c, 12, 47, 127
1, 317179, Note_on_c, 10, 69, 127
1, 317179, Note_on_c, 12, 47, 127
1, 317262, Note_off_c, 3, 75, 127
1, 317341, Note_on_c, 3, 75, 127
1, 317424, Note_off_c, 10, 69, 127
1, 317502, Note_off_c, 12, 47, 127
1, 317504, Note_on_c, 10, 69, 127
1, 317504, Note_on_c, 12, 47, 127
1, 317587, Note_off_c, 3, 75, 127
1, 317666, Note_on_c, 3, 75, 127
1, 317749, Note_off_c, 10, 69, 127
1, 317827, Note_off_c, 12, 47, 127
1, 317829, Note_on_c, 6, 78, 127
1, 317829, Note_on_c, 12, 47, 127
1, 317912, Note_off_c, 3, 75, 127
1, 317991, Note_on_c, 3, 75, 127
1, 318074, Note_off_c, 6, 78, 127
1, 318152, Note_off_c, 3, 75, 127
1, 318152, Note_off_c, 12, 47, 127
1, 318154, Note_on_c, 4, 76, 127
1, 318154, Note_on_c, 4, 40, 127
1, 318335, Note_on_c, 12, 71, 127
1, 318412, Note_off_c, 4, 76, 127
1, 318500, Note_on_c, 4, 52, 127
1, 318500, Note_on_c, 4, 76, 127
1, 318593, Note_off_c, 12, 71, 127
1, 318665, Note_on_c, 7, 79, 127
1, 318758, Note_off_c, 4, 76, 127
1, 318828, Note_off_c, 4, 52, 127
1, 318830, Note_on_c, 4, 52, 127
1, 318830, Note_on_c, 4, 76, 127
1, 318923, Note_off_c, 7, 79, 127
1, 318995, Note_on_c, 12, 71, 127
1, 319088, Note_off_c, 4, 76, 127
1, 319142, Note_off_c, 4, 40, 127
1, 319160, Note_on_c, 4, 40, 127
1, 319160, Note_on_c, 7, 67, 127
1, 319253, Note_off_c, 12, 71, 127
1, 319325, Note_on_c, 12, 71, 127
1, 319418, Note_off_c, 7, 67, 127
1, 319488, Note_off_c, 4, 40, 127
1, 319490, Note_on_c, 4, 40, 127
1, 319490, Note_on_c, 4, 64, 127
1, 319583, Note_off_c, 12, 71, 127
1, 319655, Note_on_c, 7, 67, 127
1, 319748, Note_off_c, 4, 64, 127
1, 319818, Note_off_c, 4, 40, 127
1, 319818, Note_off_c, 4, 52, 127
1, 319820, Note_on_c, 4, 52, 127
1, 319820, Note_on_c, 12, 71, 127
1, 319913, Note_off_c, 7, 67, 127
1, 319985, Note_on_c, 4, 76, 127
1, 320078, Note_off_c, 12, 71, 127
1, 320150, Note_on_c, 4, 40, 127
1, 320150, Note_on_c, 7, 67, 127
1, 320244, Note_off_c, 4, 76, 127
1, 320317, Note_on_c, 4, 64, 127
1, 320411, Note_off_c, 7, 67, 127
1, 320477, Note_off_c, 4, 52, 127
1, 320484, Note_on_c, 4, 52, 127
1, 320484, Note_on_c, 7, 67, 127
1, 320578, Note_off_c, 4, 64, 127
1, 320651, Note_on_c, 12, 71, 127
1, 320745, Note_off_c, 7, 67, 127
1, 320816, Note_off_c, 4, 52, 127
1, 320818, Note_on_c, 4, 52, 127
1, 320818, Note_on_c, 7, 67, 127
1, 320912, Note_off_c, 12, 71, 127
1, 320985, Note_on_c, 4, 64, 127
1, 321079, Note_off_c, 7, 67, 127
1, 321150, Note_off_c, 4, 40, 127
1, 321152, Note_on_c, 4, 40, 127
1, 321152, Note_on_c, 12, 59, 127
1, 321246, Note_off_c, 4, 64, 127
1, 321319, Note_on_c, 4, 64, 127
1, 321413, Note_off_c, 12, 59, 127
1, 321484, Note_off_c, 4, 40, 127
1, 321486, Note_on_c, 4, 40, 127
1, 321486, Note_on_c, 7, 55, 127
1, 321580, Note_off_c, 4, 64, 127
1, 321653, Note_on_c, 12, 59, 127
1, 321747, Note_off_c, 7, 55, 127
1, 321818, Note_off_c, 4, 40, 127
1, 321818, Note_off_c, 4, 52, 127
1, 321820, Note_on_c, 4, 52, 127
1, 321820, Note_on_c, 4, 64, 127
1, 321914, Note_off_c, 12, 59, 127
1, 321987, Note_on_c, 7, 67, 127
1, 322081, Note_off_c, 4, 64, 127
1, 322154, Note_on_c, 4, 40, 127
1, 322154, Note_on_c, 12, 59, 127
1, 322248, Note_off_c, 7, 67, 127
1, 322337, Note_on_c, 7, 55, 127
1, 322415, Note_off_c, 12, 59, 127
1, 322481, Note_off_c, 4, 52, 127
1, 322504, Note_on_c, 12, 59, 127
1, 322504, Note_on_c, 4, 52, 127
1, 322598, Note_off_c, 7, 55, 127
1, 322671, Note_on_c, 4, 64, 127
1, 322765, Note_off_c, 12, 59, 127
1, 322831, Note_off_c, 4, 52, 127
1, 322838, Note_on_c, 12, 59, 127
1, 322838, Note_on_c, 4, 52, 127
1, 322932, Note_off_c, 4, 64, 127
1, 323005, Note_on_c, 7, 55, 127
1, 323099, Note_off_c, 12, 59, 127
1, 323154, Note_off_c, 4, 40, 127
1, 323163, Note_off_c, 4, 52, 127
1, 323172, Note_on_c, 4, 52, 127
1, 323172, Note_on_c, 4, 40, 127
1, 323266, Note_off_c, 7, 55, 127
1, 323339, Note_on_c, 7, 55, 127
1, 323504, Note_off_c, 4, 40, 127
1, 323506, Note_on_c, 12, 47, 127
1, 323506, Note_on_c, 4, 40, 127
1, 323600, Note_off_c, 7, 55, 127
1, 323666, Note_off_c, 4, 52, 127
1, 323673, Note_on_c, 4, 52, 127
1, 323767, Note_off_c, 12, 47, 127
1, 323823, Note_off_c, 4, 52, 127
1, 323838, Note_off_c, 4, 40, 127
1, 323840, Note_on_c, 7, 55, 127
1, 323840, Note_on_c, 4, 52, 127
1, 324007, Note_on_c, 12, 59, 127
1, 324101, Note_off_c, 7, 55, 127
1, 324165, Note_off_c, 4, 52, 127
1, 324174, Note_on_c, 4, 52, 127
1, 324174, Note_on_c, 4, 40, 127
1, 324271, Note_off_c, 12, 59, 127
1, 324346, Note_on_c, 7, 55, 127
1, 324511, Note_off_c, 4, 52, 127
1, 324518, Note_on_c, 12, 59, 127
1, 324518, Note_on_c, 4, 52, 127
1, 324615, Note_off_c, 7, 55, 127
1, 324690, Note_on_c, 4, 64, 127
1, 324787, Note_off_c, 12, 59, 127
1, 324860, Note_off_c, 4, 52, 127
1, 324862, Note_on_c, 7, 55, 127
1, 324862, Note_on_c, 4, 52, 127
1, 324959, Note_off_c, 4, 64, 127
1, 325034, Note_on_c, 12, 59, 127
1, 325131, Note_off_c, 7, 55, 127
1, 325204, Note_off_c, 4, 40, 127
1, 325206, Note_on_c, 4, 64, 127
1, 325206, Note_on_c, 4, 40, 127
1, 325303, Note_off_c, 12, 59, 127
1, 325378, Note_on_c, 7, 67, 127
1, 325457, Note_off_c, 4, 64, 127
1, 325548, Note_off_c, 4, 40, 127
1, 325550, Note_on_c, 4, 64, 127
1, 325550, Note_on_c, 4, 40, 127
1, 325623, Note_off_c, 7, 67, 127
1, 325756, Note_on_c, 7, 67, 127
1, 325807, Note_off_c, 4, 64, 127
1, 325946, Note_off_c, 4, 52, 127
1, 325959, Note_off_c, 4, 40, 127
1, 325961, Note_on_c, 12, 71, 127
1, 325961, Note_on_c, 4, 52, 127
1, 325991, Note_off_c, 7, 67, 127
1, 326167, Note_on_c, 4, 76, 127
1, 326176, Note_off_c, 12, 71, 127
1, 326371, Note_off_c, 4, 52, 127
1, 326389, Note_on_c, 12, 47, 127
1, 326389, Note_on_c, 12, 59, 127
1, 326389, Note_on_c, 6, 54, 127
1, 326389, Note_on_c, 6, 66, 127
1, 326389, Note_on_c, 3, 75, 127
1, 326403, Note_off_c, 4, 76, 127
1, 328853, Note_off_c, 3, 75, 127
1, 328853, Note_off_c, 6, 66, 127
1, 328853, Note_off_c, 6, 54, 127
1, 328853, Note_off_c, 12, 59, 127
1, 328853, Note_off_c, 12, 47, 127
1, 330174, Note_on_c, 7, 79, 127
1, 330174, Note_on_c, 4, 52, 127
1, 330347, Note_off_c, 4, 52, 127
1, 330349, Note_on_c, 3, 51, 127
1, 330522, Note_off_c, 3, 51, 127
1, 330524, Note_on_c, 4, 52, 127
1, 330697, Note_off_c, 4, 52, 127
1, 330697, Note_off_c, 7, 79, 127
1, 330699, Note_on_c, 10, 81, 127
1, 330699, Note_on_c, 6, 54, 127
1, 330872, Note_off_c, 6, 54, 127
1, 330872, Note_off_c, 10, 81, 127
1, 330874, Note_on_c, 7, 79, 127
1, 330874, Note_on_c, 4, 52, 127
1, 331047, Note_off_c, 4, 52, 127
1, 331049, Note_on_c, 3, 51, 127
1, 331222, Note_off_c, 3, 51, 127
1, 331224, Note_on_c, 4, 52, 127
1, 331397, Note_off_c, 4, 52, 127
1, 331397, Note_off_c, 7, 79, 127
1, 331399, Note_on_c, 6, 78, 127
1, 331399, Note_on_c, 6, 54, 127
1, 331572, Note_off_c, 6, 54, 127
1, 331572, Note_off_c, 6, 78, 127
1, 331574, Note_on_c, 4, 76, 127
1, 331574, Note_on_c, 7, 55, 127
1, 331747, Note_off_c, 7, 55, 127
1, 331749, Note_on_c, 10, 57, 127
1, 331922, Note_off_c, 10, 57, 127
1, 331924, Note_on_c, 12, 59, 127
1, 332097, Note_off_c, 12, 59, 127
1, 332097, Note_off_c, 4, 76, 127
1, 332099, Note_on_c, 2, 74, 127
1, 332099, Note_on_c, 7, 55, 127
1, 332272, Note_off_c, 7, 55, 127
1, 332272, Note_off_c, 2, 74, 127
1, 332274, Note_on_c, 0, 72, 127
1, 332274, Note_on_c, 10, 57, 127
1, 332447, Note_off_c, 0, 72, 127
1, 332449, Note_on_c, 12, 71, 127
1, 332622, Note_off_c, 12, 71, 127
1, 332624, Note_on_c, 0, 72, 127
1, 332797, Note_off_c, 0, 72, 127
1, 332797, Note_off_c, 10, 57, 127
1, 332799, Note_on_c, 2, 74, 127
1, 332799, Note_on_c, 12, 59, 127
1, 332972, Note_off_c, 12, 59, 127
1, 332972, Note_off_c, 2, 74, 127
1, 332974, Note_on_c, 0, 72, 127
1, 332974, Note_on_c, 10, 57, 127
1, 333147, Note_off_c, 0, 72, 127
1, 333149, Note_on_c, 12, 71, 127
1, 333322, Note_off_c, 12, 71, 127
1, 333324, Note_on_c, 0, 72, 127
1, 333497, Note_off_c, 0, 72, 127
1, 333497, Note_off_c, 10, 57, 127
1, 333499, Note_on_c, 2, 74, 127
1, 333499, Note_on_c, 7, 55, 127
1, 333672, Note_off_c, 7, 55, 127
1, 333672, Note_off_c, 2, 74, 127
1, 333674, Note_on_c, 0, 72, 127
1, 333674, Note_on_c, 6, 54, 127
1, 333847, Note_off_c, 0, 72, 127
1, 333849, Note_on_c, 2, 74, 127
1, 334022, Note_off_c, 2, 74, 127
1, 334024, Note_on_c, 4, 76, 127
1, 334197, Note_off_c, 4, 76, 127
1, 334197, Note_off_c, 6, 54, 127
1, 334199, Note_on_c, 0, 72, 127
1, 334199, Note_on_c, 4, 52, 127
1, 334372, Note_off_c, 4, 52, 127
1, 334372, Note_off_c, 0, 72, 127
1, 334374, Note_on_c, 6, 78, 127
1, 334374, Note_on_c, 2, 50, 127
1, 334547, Note_off_c, 2, 50, 127
1, 334549, Note_on_c, 1, 49, 127
1, 334722, Note_off_c, 1, 49, 127
1, 334724, Note_on_c, 2, 50, 127
1, 334897, Note_off_c, 2, 50, 127
1, 334897, Note_off_c, 6, 78, 127
1, 334899, Note_on_c, 7, 79, 127
1, 334899, Note_on_c, 4, 52, 127
1, 335072, Note_off_c, 4, 52, 127
1, 335072, Note_off_c, 7, 79, 127
1, 335074, Note_on_c, 6, 78, 127
1, 335074, Note_on_c, 2, 50, 127
1, 335247, Note_off_c, 2, 50, 127
1, 335249, Note_on_c, 1, 49, 127
1, 335422, Note_off_c, 1, 49, 127
1, 335424, Note_on_c, 2, 50, 127
1, 335597, Note_off_c, 2, 50, 127
1, 335597, Note_off_c, 6, 78, 127
1, 335599, Note_on_c, 4, 76, 127
1, 335599, Note_on_c, 4, 52, 127
1, 335772, Note_off_c, 4, 52, 127
1, 335772, Note_off_c, 4, 76, 127
1, 335774, Note_on_c, 2, 74, 127
1, 335774, Note_on_c, 6, 54, 127
1, 335947, Note_off_c, 6, 54, 127
1, 335949, Note_on_c, 7, 55, 127
1, 336122, Note_off_c, 7, 55, 127
1, 336124, Note_on_c, 10, 57, 127
1, 336297, Note_off_c, 10, 57, 127
1, 336297, Note_off_c, 2, 74, 127
1, 336299, Note_on_c, 0, 72, 127
1, 336299, Note_on_c, 6, 54, 127
1, 336472, Note_off_c, 6, 54, 127
1, 336472, Note_off_c, 0, 72, 127
1, 336474, Note_on_c, 12, 71, 127
1, 336474, Note_on_c, 7, 55, 127
1, 336647, Note_off_c, 12, 71, 127
1, 336649, Note_on_c, 10, 69, 127
1, 336822, Note_off_c, 10, 69, 127
1, 336824, Note_on_c, 12, 71, 127
1, 336997, Note_off_c, 12, 71, 127
1, 336997, Note_off_c, 7, 55, 127
1, 336999, Note_on_c, 0, 72, 127
1, 336999, Note_on_c, 10, 57, 127
1, 337172, Note_off_c, 10, 57, 127
1, 337172, Note_off_c, 0, 72, 127
1, 337174, Note_on_c, 12, 71, 127
1, 337174, Note_on_c, 7, 55, 127
1, 337347, Note_off_c, 12, 71, 127
1, 337349, Note_on_c, 10, 69, 127
1, 337522, Note_off_c, 10, 69, 127
1, 337524, Note_on_c, 12, 71, 127
1, 337697, Note_off_c, 12, 71, 127
1, 337697, Note_off_c, 7, 55, 127
1, 337699, Note_on_c, 0, 72, 127
1, 337699, Note_on_c, 6, 54, 127
1, 337872, Note_off_c, 6, 54, 127
1, 337872, Note_off_c, 0, 72, 127
1, 337874, Note_on_c, 12, 71, 127
1, 337874, Note_on_c, 4, 52, 127
1, 338047, Note_off_c, 12, 71, 127
1, 338049, Note_on_c, 0, 72, 127
1, 338222, Note_off_c, 0, 72, 127
1, 338224, Note_on_c, 2, 74, 127
1, 338397, Note_off_c, 2, 74, 127
1, 338397, Note_off_c, 4, 52, 127
1, 338399, Note_on_c, 12, 71, 127
1, 338399, Note_on_c, 2, 50, 127
1, 338572, Note_off_c, 2, 50, 127
1, 338572, Note_off_c, 12, 71, 127
1, 338574, Note_on_c, 4, 76, 127
1, 338574, Note_on_c, 0, 48, 127
1, 338747, Note_off_c, 0, 48, 127
1, 338749, Note_on_c, 12, 47, 127
1, 338922, Note_off_c, 12, 47, 127
1, 338924, Note_on_c, 0, 48, 127
1, 339097, Note_off_c, 0, 48, 127
1, 339097, Note_off_c, 4, 76, 127
1, 339099, Note_on_c, 6, 78, 127
1, 339099, Note_on_c, 2, 50, 127
1, 339272, Note_off_c, 2, 50, 127
1, 339272, Note_off_c, 6, 78, 127
1, 339274, Note_on_c, 4, 76, 127
1, 339274, Note_on_c, 0, 48, 127
1, 339447, Note_off_c, 0, 48, 127
1, 339449, Note_on_c, 12, 47, 127
1, 339622, Note_off_c, 12, 47, 127
1, 339624, Note_on_c, 0, 48, 127
1, 339797, Note_off_c, 0, 48, 127
1, 339797, Note_off_c, 4, 76, 127
1, 339799, Note_on_c, 2, 74, 127
1, 339799, Note_on_c, 2, 50, 127
1, 339972, Note_off_c, 2, 50, 127
1, 339972, Note_off_c, 2, 74, 127
1, 339974, Note_on_c, 0, 72, 127
1, 339974, Note_on_c, 4, 52, 127
1, 340147, Note_off_c, 4, 52, 127
1, 340149, Note_on_c, 6, 54, 127
1, 340322, Note_off_c, 6, 54, 127
1, 340324, Note_on_c, 7, 55, 127
1, 340497, Note_off_c, 7, 55, 127
1, 340497, Note_off_c, 0, 72, 127
1, 340499, Note_on_c, 12, 71, 127
1, 340499, Note_on_c, 4, 52, 127
1, 340672, Note_off_c, 4, 52, 127
1, 340672, Note_off_c, 12, 71, 127
1, 340674, Note_on_c, 10, 69, 127
1, 340674, Note_on_c, 6, 54, 127
1, 340847, Note_off_c, 10, 69, 127
1, 340849, Note_on_c, 8, 68, 127
1, 341022, Note_off_c, 8, 68, 127
1, 341024, Note_on_c, 10, 69, 127
1, 341197, Note_off_c, 10, 69, 127
1, 341197, Note_off_c, 6, 54, 127
1, 341199, Note_on_c, 12, 71, 127
1, 341199, Note_on_c, 7, 55, 127
1, 341372, Note_off_c, 7, 55, 127
1, 341372, Note_off_c, 12, 71, 127
1, 341374, Note_on_c, 10, 69, 127
1, 341374, Note_on_c, 6, 54, 127
1, 341547, Note_off_c, 10, 69, 127
1, 341549, Note_on_c, 8, 68, 127
1, 341722, Note_off_c, 8, 68, 127
1, 341724, Note_on_c, 10, 69, 127
1, 341897, Note_off_c, 10, 69, 127
1, 341897, Note_off_c, 6, 54, 127
1, 341899, Note_on_c, 0, 72, 127
1, 341899, Note_on_c, 4, 52, 127
1, 342072, Note_off_c, 4, 52, 127
1, 342072, Note_off_c, 0, 72, 127
1, 342074, Note_on_c, 10, 69, 127
1, 342074, Note_on_c, 3, 51, 127
1, 342247, Note_off_c, 10, 69, 127
1, 342249, Note_on_c, 8, 68, 127
1, 342422, Note_off_c, 8, 68, 127
1, 342424, Note_on_c, 10, 69, 127
1, 342597, Note_off_c, 10, 69, 127
1, 342597, Note_off_c, 3, 51, 127
1, 342615, Note_on_c, 1, 49, 127
1, 342615, Note_on_c, 6, 78, 127
1, 342805, Note_off_c, 1, 49, 127
1, 342806, Note_off_c, 6, 78, 127
1, 342822, Note_on_c, 12, 47, 127
1, 342822, Note_on_c, 6, 54, 127
1, 342822, Note_on_c, 3, 51, 127
1, 342822, Note_on_c, 12, 59, 127
1, 342822, Note_on_c, 10, 69, 127
1, 342822, Note_on_c, 3, 75, 127
1, 344222, Note_off_c, 3, 75, 127
1, 344222, Note_off_c, 10, 69, 127
1, 344222, Note_off_c, 12, 59, 127
1, 344222, Note_off_c, 3, 51, 127
1, 344222, Note_off_c, 6, 54, 127
1, 344222, Note_off_c, 12, 47, 127
1, 344501, Note_on_c, 4, 76, 127
1, 344501, Note_on_c, 7, 67, 127
1, 344501, Note_on_c, 12, 71, 127
1, 344501, Note_on_c, 12, 59, 127
1, 344501, Note_on_c, 4, 52, 127
1, 345242, Note_off_c, 4, 52, 127
1, 345242, Note_off_c, 12, 59, 127
1, 345242, Note_off_c, 12, 71, 127
1, 345242, Note_off_c, 7, 67, 127
1, 345242, Note_off_c, 4, 76, 127
1, 345244, Note_on_c, 12, 71, 127
1, 345244, Note_on_c, 4, 76, 127
1, 345244, Note_on_c, 6, 66, 127
1, 345244, Note_on_c, 12, 59, 127
1, 345985, Note_off_c, 12, 59, 127
1, 345985, Note_off_c, 6, 66, 127
1, 345985, Note_off_c, 4, 76, 127
1, 345985, Note_off_c, 12, 71, 127
1, 346003, Note_on_c, 12, 47, 127
1, 346003, Note_on_c, 10, 57, 127
1, 346003, Note_on_c, 6, 54, 127
1, 346003, Note_on_c, 12, 59, 127
1, 346003, Note_on_c, 6, 66, 127
1, 346003, Note_on_c, 3, 75, 127
1, 346003, Note_on_c, 12, 71, 127
1, 347116, Note_off_c, 12, 71, 127
1, 347116, Note_off_c, 3, 75, 127
1, 347116, Note_off_c, 6, 66, 127
1, 347116, Note_off_c, 12, 59, 127
1, 347116, Note_off_c, 6, 54, 127
1, 347116, Note_off_c, 10, 57, 127
1, 347116, Note_off_c, 12, 47, 127
1, 347304, Note_on_c, 6, 54, 127
1, 347304, Note_on_c, 12, 47, 127
1, 347304, Note_on_c, 12, 59, 127
1, 347304, Note_on_c, 10, 57, 127
1, 347304, Note_on_c, 6, 66, 127
1, 347304, Note_on_c, 12, 71, 127
1, 347304, Note_on_c, 3, 75, 127
1, 347488, Note_off_c, 3, 75, 127
1, 347488, Note_off_c, 12, 71, 127
1, 347488, Note_off_c, 6, 66, 127
1, 347488, Note_off_c, 10, 57, 127
1, 347488, Note_off_c, 12, 59, 127
1, 347488, Note_off_c, 12, 47, 127
1, 347488, Note_off_c, 6, 54, 127
1, 347490, Note_on_c, 7, 55, 127
1, 347490, Note_on_c, 4, 52, 127
1, 347490, Note_on_c, 12, 59, 127
1, 347490, Note_on_c, 4, 76, 127
1, 347490, Note_on_c, 12, 71, 127
1, 347490, Note_on_c, 7, 67, 127
1, 348876, Note_off_c, 7, 67, 127
1, 348876, Note_off_c, 12, 71, 127
1, 348876, Note_off_c, 4, 76, 127
1, 348876, Note_off_c, 12, 59, 127
1, 348876, Note_off_c, 4, 52, 127
1, 348876, Note_off_c, 7, 55, 127
1, 349079, Note_on_c, 11, 46, 127
1, 349079, Note_on_c, 4, 52, 127
1, 349079, Note_on_c, 1, 61, 127
1, 349079, Note_on_c, 4, 64, 127
1, 349079, Note_on_c, 7, 67, 127
1, 349871, Note_off_c, 7, 67, 127
1, 349871, Note_off_c, 4, 64, 127
1, 349871, Note_off_c, 1, 61, 127
1, 349871, Note_off_c, 4, 52, 127
1, 349871, Note_off_c, 11, 46, 127
1, 349873, Note_on_c, 12, 47, 127
1, 349873, Note_on_c, 12, 59, 127
1, 349873, Note_on_c, 6, 54, 127
1, 349873, Note_on_c, 4, 64, 127
1, 349873, Note_on_c, 6, 66, 127
1, 350665, Note_off_c, 6, 66, 127
1, 350665, Note_off_c, 4, 64, 127
1, 350665, Note_off_c, 6, 54, 127
1, 350665, Note_off_c, 12, 59, 127
1, 350665, Note_off_c, 12, 47, 127
1, 350667, Note_on_c, 12, 47, 127
1, 350667, Note_on_c, 12, 59, 127
1, 350667, Note_on_c, 6, 54, 127
1, 350667, Note_on_c, 6, 66, 127
1, 350667, Note_on_c, 3, 63, 127
1, 351857, Note_off_c, 3, 63, 127
1, 351857, Note_off_c, 6, 66, 127
1, 351857, Note_off_c, 6, 54, 127
1, 351857, Note_off_c, 12, 59, 127
1, 351857, Note_off_c, 12, 47, 127
1, 351859, Note_on_c, 12, 47, 127
1, 351859, Note_on_c, 12, 59, 127
1, 351859, Note_on_c, 6, 54, 127
1, 351859, Note_on_c, 6, 66, 127
1, 351859, Note_on_c, 3, 63, 127
1, 352254, Note_off_c, 3, 63, 127
1, 352254, Note_off_c, 6, 66, 127
1, 352254, Note_off_c, 6, 54, 127
1, 352254, Note_off_c, 12, 59, 127
1, 352254, Note_off_c, 12, 47, 127
1, 352256, Note_on_c, 4, 52, 127
1, 352256, Note_on_c, 4, 64, 127
1, 352256, Note_on_c, 12, 59, 127
1, 352256, Note_on_c, 7, 67, 127
1, 354635, Note_off_c, 7, 67, 127
1, 354635, Note_off_c, 12, 59, 127
1, 354635, Note_off_c, 4, 64, 127
1, 354635, Note_off_c, 4, 52, 127
1, 358559, Note_on_c, 6, 78, 127
1, 358559, Note_on_c, 12, 71, 127
1, 358559, Note_on_c, 2, 74, 127
1, 358559, Note_on_c, 6, 66, 127
1, 358559, Note_on_c, 12, 59, 127
1, 358559, Note_on_c, 6, 54, 127
1, 358559, Note_on_c, 2, 50, 127
1, 358559, Note_on_c, 12, 47, 127
1, 359106, Note_off_c, 6, 66, 127
1, 359106, Note_off_c, 2, 74, 127
1, 359106, Note_off_c, 12, 71, 127
1, 359106, Note_off_c, 6, 78, 127
1, 359107, Note_on_c, 2, 74, 127
1, 359380, Note_off_c, 12, 47, 127
1, 359380, Note_off_c, 2, 50, 127
1, 359380, Note_off_c, 6, 54, 127
1, 359380, Note_off_c, 12, 59, 127
1, 359654, Note_off_c, 2, 74, 127
1, 359655, Note_on_c, 12, 71, 127
1, 359655, Note_on_c, 2, 50, 127
1, 359655, Note_on_c, 12, 47, 127
1, 359928, Note_off_c, 12, 47, 127
1, 359928, Note_off_c, 2, 50, 127
1, 359928, Note_off_c, 12, 71, 127
1, 359929, Note_on_c, 12, 59, 127
1, 359929, Note_on_c, 1, 49, 127
1, 359929, Note_on_c, 4, 52, 127
1, 360200, Note_off_c, 12, 59, 127
1, 360201, Note_off_c, 4, 52, 127
1, 360201, Note_off_c, 1, 49, 127
1, 360202, Note_on_c, 2, 50, 127
1, 360202, Note_on_c, 6, 54, 127
1, 360475, Note_off_c, 6, 54, 127
1, 360475, Note_off_c, 2, 50, 127
1, 360476, Note_on_c, 6, 78, 127
1, 360476, Note_on_c, 12, 47, 127
1, 360476, Note_on_c, 2, 50, 127
1, 360749, Note_off_c, 2, 50, 127
1, 360749, Note_off_c, 12, 47, 127
1, 360749, Note_off_c, 6, 78, 127
1, 360750, Note_on_c, 7, 79, 127
1, 360750, Note_on_c, 4, 52, 127
1, 361023, Note_off_c, 7, 79, 127
1, 361024, Note_on_c, 7, 79, 127
1, 361293, Note_off_c, 4, 52, 127
1, 361297, Note_off_c, 7, 79, 127
1, 361298, Note_on_c, 7, 79, 127
1, 361298, Note_on_c, 11, 46, 127
1, 361298, Note_on_c, 4, 52, 127
1, 361571, Note_off_c, 7, 79, 127
1, 361572, Note_on_c, 7, 79, 127
1, 361845, Note_off_c, 7, 79, 127
1, 361845, Note_off_c, 4, 52, 127
1, 361845, Note_off_c, 11, 46, 127
1, 361846, Note_on_c, 6, 78, 127
1, 361846, Note_on_c, 12, 47, 127
1, 361846, Note_on_c, 2, 50, 127
1, 361982, Note_off_c, 6, 78, 127
1, 361983, Note_on_c, 4, 76, 127
1, 362119, Note_off_c, 4, 76, 127
1, 362120, Note_on_c, 2, 74, 127
1, 362256, Note_off_c, 2, 74, 127
1, 362257, Note_on_c, 1, 73, 127
1, 362388, Note_off_c, 2, 50, 127
1, 362388, Note_off_c, 12, 47, 127
1, 362392, Note_off_c, 1, 73, 127
1, 362393, Note_on_c, 12, 71, 127
1, 362666, Note_off_c, 12, 71, 127
1, 362667, Note_on_c, 2, 74, 127
1, 362667, Note_on_c, 12, 47, 127
1, 362667, Note_on_c, 6, 54, 127
1, 362940, Note_off_c, 6, 54, 127
1, 362940, Note_off_c, 12, 47, 127
1, 362940, Note_off_c, 2, 74, 127
1, 362941, Note_on_c, 1, 73, 127
1, 362941, Note_on_c, 6, 54, 127
1, 362941, Note_on_c, 10, 45, 127
1, 363214, Note_off_c, 1, 73, 127
1, 363215, Note_on_c, 6, 78, 127
1, 363488, Note_off_c, 6, 78, 127
1, 363488, Note_off_c, 10, 45, 127
1, 363489, Note_on_c, 12, 71, 127
1, 363489, Note_on_c, 7, 43, 127
1, 363762, Note_off_c, 12, 71, 127
1, 363762, Note_off_c, 6, 54, 127
1, 363763, Note_on_c, 7, 79, 127
1, 363763, Note_on_c, 4, 52, 127
1, 364032, Note_off_c, 7, 43, 127
1, 364036, Note_off_c, 4, 52, 127
1, 364036, Note_off_c, 7, 79, 127
1, 364037, Note_on_c, 11, 70, 127
1, 364037, Note_on_c, 6, 54, 127
1, 364037, Note_on_c, 6, 42, 127
1, 364310, Note_off_c, 11, 70, 127
1, 364311, Note_on_c, 8, 68, 127
1, 364447, Note_off_c, 8, 68, 127
1, 364448, Note_on_c, 11, 70, 127
1, 364584, Note_off_c, 11, 70, 127
1, 364585, Note_on_c, 6, 66, 127
1, 364858, Note_off_c, 6, 66, 127
1, 364858, Note_off_c, 6, 42, 127
1, 364858, Note_off_c, 6, 54, 127
1, 364859, Note_on_c, 6, 78, 127
1, 364995, Note_off_c, 6, 78, 127
1, 364996, Note_on_c, 7, 79, 127
1, 365132, Note_off_c, 7, 79, 127
1, 365133, Note_on_c, 10, 81, 127
1, 365133, Note_on_c, 12, 59, 127
1, 365251, Note_on_c, 1, 61, 127
1, 365254, Note_off_c, 12, 59, 127
1, 365327, Note_off_c, 1, 61, 127
1, 365329, Note_on_c, 3, 63, 127
1, 365404, Note_off_c, 3, 63, 127
1, 365405, Note_off_c, 10, 81, 127
1, 365406, Note_on_c, 12, 71, 127
1, 365406, Note_on_c, 1, 61, 127
1, 365542, Note_off_c, 1, 61, 127
1, 365543, Note_on_c, 4, 64, 127
1, 365679, Note_off_c, 4, 64, 127
1, 365679, Note_off_c, 12, 71, 127
1, 365680, Note_on_c, 12, 71, 127
1, 365680, Note_on_c, 3, 63, 127
1, 365816, Note_off_c, 3, 63, 127
1, 365817, Note_on_c, 6, 66, 127
1, 365953, Note_off_c, 6, 66, 127
1, 365953, Note_off_c, 12, 71, 127
1, 365954, Note_on_c, 10, 81, 127
1, 365954, Note_on_c, 12, 59, 127
1, 366090, Note_off_c, 12, 59, 127
1, 366091, Note_on_c, 3, 63, 127
1, 366227, Note_off_c, 3, 63, 127
1, 366227, Note_off_c, 10, 81, 127
1, 366228, Note_on_c, 12, 83, 127
1, 366228, Note_on_c, 4, 64, 127
1, 366295, Note_off_c, 12, 83, 127
1, 366296, Note_on_c, 10, 81, 127
1, 366363, Note_off_c, 10, 81, 127
1, 366364, Note_on_c, 12, 83, 127
1, 366431, Note_off_c, 12, 83, 127
1, 366432, Note_on_c, 10, 81, 127
1, 366499, Note_off_c, 10, 81, 127
1, 366499, Note_off_c, 4, 64, 127
1, 366500, Note_on_c, 7, 79, 127
1, 366500, Note_on_c, 4, 52, 127
1, 366773, Note_off_c, 7, 79, 127
1, 366774, Note_on_c, 7, 79, 127
1, 367043, Note_off_c, 4, 52, 127
1, 367047, Note_off_c, 7, 79, 127
1, 367048, Note_on_c, 4, 76, 127
1, 367184, Note_off_c, 4, 76, 127
1, 367185, Note_on_c, 6, 78, 127
1, 367321, Note_off_c, 6, 78, 127
1, 367322, Note_on_c, 7, 79, 127
1, 367322, Note_on_c, 10, 57, 127
1, 367443, Note_off_c, 10, 57, 127
1, 367444, Note_on_c, 12, 59, 127
1, 367520, Note_off_c, 12, 59, 127
1, 367520, Note_on_c, 1, 61, 127
1, 367594, Note_off_c, 7, 79, 127
1, 367595, Note_off_c, 1, 61, 127
1, 367595, Note_on_c, 10, 69, 127
1, 367595, Note_on_c, 12, 59, 127
1, 367731, Note_off_c, 12, 59, 127
1, 367732, Note_on_c, 2, 62, 127
1, 367868, Note_off_c, 2, 62, 127
1, 367868, Note_off_c, 10, 69, 127
1, 367869, Note_on_c, 10, 69, 127
1, 367869, Note_on_c, 1, 61, 127
1, 368005, Note_off_c, 1, 61, 127
1, 368006, Note_on_c, 4, 64, 127
1, 368142, Note_off_c, 4, 64, 127
1, 368142, Note_off_c, 10, 69, 127
1, 368143, Note_on_c, 7, 79, 127
1, 368143, Note_on_c, 10, 57, 127
1, 368279, Note_off_c, 10, 57, 127
1, 368280, Note_on_c, 1, 61, 127
1, 368416, Note_off_c, 1, 61, 127
1, 368416, Note_off_c, 7, 79, 127
1, 368417, Note_on_c, 10, 81, 127
1, 368417, Note_on_c, 2, 62, 127
1, 368484, Note_off_c, 10, 81, 127
1, 368485, Note_on_c, 7, 79, 127
1, 368552, Note_off_c, 7, 79, 127
1, 368553, Note_on_c, 10, 81, 127
1, 368620, Note_off_c, 10, 81, 127
1, 368621, Note_on_c, 7, 79, 127
1, 368688, Note_off_c, 7, 79, 127
1, 368688, Note_off_c, 2, 62, 127
1, 368689, Note_on_c, 6, 78, 127
1, 368689, Note_on_c, 2, 50, 127
1, 368962, Note_off_c, 6, 78, 127
1, 368963, Note_on_c, 6, 78, 127
1, 369232, Note_off_c, 2, 50, 127
1, 369236, Note_off_c, 6, 78, 127
1, 369237, Note_on_c, 2, 74, 127
1, 369373, Note_off_c, 2, 74, 127
1, 369374, Note_on_c, 4, 76, 127
1, 369510, Note_off_c, 4, 76, 127
1, 369511, Note_on_c, 6, 78, 127
1, 369511, Note_on_c, 7, 55, 127
1, 369617, Note_on_c, 10, 57, 127
1, 369618, Note_off_c, 7, 55, 127
1, 369697, Note_off_c, 10, 57, 127
1, 369701, Note_on_c, 12, 59, 127
1, 369781, Note_off_c, 12, 59, 127
1, 369784, Note_off_c, 6, 78, 127
1, 369785, Note_on_c, 7, 67, 127
1, 369785, Note_on_c, 10, 57, 127
1, 369921, Note_off_c, 10, 57, 127
1, 369922, Note_on_c, 0, 60, 127
1, 370058, Note_off_c, 0, 60, 127
1, 370058, Note_off_c, 7, 67, 127
1, 370059, Note_on_c, 7, 67, 127
1, 370059, Note_on_c, 12, 59, 127
1, 370195, Note_off_c, 12, 59, 127
1, 370196, Note_on_c, 2, 62, 127
1, 370332, Note_off_c, 2, 62, 127
1, 370332, Note_off_c, 7, 67, 127
1, 370333, Note_on_c, 6, 78, 127
1, 370333, Note_on_c, 7, 55, 127
1, 370469, Note_off_c, 7, 55, 127
1, 370470, Note_on_c, 12, 59, 127
1, 370606, Note_off_c, 12, 59, 127
1, 370606, Note_off_c, 6, 78, 127
1, 370607, Note_on_c, 7, 79, 127
1, 370607, Note_on_c, 1, 61, 127
1, 370674, Note_off_c, 7, 79, 127
1, 370675, Note_on_c, 6, 78, 127
1, 370742, Note_off_c, 6, 78, 127
1, 370743, Note_on_c, 7, 79, 127
1, 370810, Note_off_c, 7, 79, 127
1, 370811, Note_on_c, 6, 78, 127
1, 370878, Note_off_c, 6, 78, 127
1, 370878, Note_off_c, 1, 61, 127
1, 370879, Note_on_c, 4, 76, 127
1, 370879, Note_on_c, 1, 49, 127
1, 371152, Note_off_c, 4, 76, 127
1, 371153, Note_on_c, 4, 76, 127
1, 371422, Note_off_c, 1, 49, 127
1, 371426, Note_off_c, 4, 76, 127
1, 371427, Note_on_c, 1, 73, 127
1, 371563, Note_off_c, 1, 73, 127
1, 371564, Note_on_c, 2, 74, 127
1, 371700, Note_off_c, 2, 74, 127
1, 371701, Note_on_c, 4, 76, 127
1, 371701, Note_on_c, 6, 54, 127
1, 371788, Note_off_c, 6, 54, 127
1, 371791, Note_on_c, 8, 56, 127
1, 371878, Note_off_c, 8, 56, 127
1, 371881, Note_on_c, 11, 58, 127
1, 371968, Note_off_c, 11, 58, 127
1, 371974, Note_off_c, 4, 76, 127
1, 371975, Note_on_c, 6, 66, 127
1, 371975, Note_on_c, 8, 56, 127
1, 372111, Note_off_c, 8, 56, 127
1, 372112, Note_on_c, 12, 59, 127
1, 372248, Note_off_c, 12, 59, 127
1, 372248, Note_off_c, 6, 66, 127
1, 372249, Note_on_c, 6, 66, 127
1, 372249, Note_on_c, 11, 58, 127
1, 372385, Note_off_c, 11, 58, 127
1, 372386, Note_on_c, 1, 61, 127
1, 372522, Note_off_c, 1, 61, 127
1, 372522, Note_off_c, 6, 66, 127
1, 372523, Note_on_c, 4, 76, 127
1, 372523, Note_on_c, 6, 54, 127
1, 372659, Note_off_c, 6, 54, 127
1, 372660, Note_on_c, 11, 58, 127
1, 372796, Note_off_c, 11, 58, 127
1, 372796, Note_off_c, 4, 76, 127
1, 372797, Note_on_c, 6, 78, 127
1, 372797, Note_on_c, 12, 59, 127
1, 372864, Note_off_c, 6, 78, 127
1, 372865, Note_on_c, 4, 76, 127
1, 372932, Note_off_c, 4, 76, 127
1, 372933, Note_on_c, 6, 78, 127
1, 373000, Note_off_c, 6, 78, 127
1, 373001, Note_on_c, 4, 76, 127
1, 373068, Note_off_c, 4, 76, 127
1, 373068, Note_off_c, 12, 59, 127
1, 373069, Note_on_c, 2, 74, 127
1, 373069, Note_on_c, 12, 47, 127
1, 373342, Note_off_c, 2, 74, 127
1, 373343, Note_on_c, 2, 74, 127
1, 373479, Note_off_c, 12, 47, 127
1, 373480, Note_on_c, 12, 47, 127
1, 373616, Note_off_c, 12, 47, 127
1, 373616, Note_off_c, 2, 74, 127
1, 373617, Note_on_c, 6, 66, 127
1, 373617, Note_on_c, 1, 49, 127
1, 373753, Note_off_c, 1, 49, 127
1, 373753, Note_off_c, 6, 66, 127
1, 373754, Note_on_c, 10, 69, 127
1, 373754, Note_on_c, 2, 50, 127
1, 373890, Note_off_c, 2, 50, 127
1, 373890, Note_off_c, 10, 69, 127
1, 373891, Note_on_c, 8, 68, 127
1, 373891, Note_on_c, 4, 52, 127
1, 374027, Note_off_c, 4, 52, 127
1, 374027, Note_off_c, 8, 68, 127
1, 374028, Note_on_c, 6, 66, 127
1, 374028, Note_on_c, 2, 50, 127
1, 374164, Note_off_c, 2, 50, 127
1, 374164, Note_off_c, 6, 66, 127
1, 374165, Note_on_c, 8, 68, 127
1, 374165, Note_on_c, 4, 52, 127
1, 374301, Note_off_c, 4, 52, 127
1, 374301, Note_off_c, 8, 68, 127
1, 374302, Note_on_c, 10, 69, 127
1, 374302, Note_on_c, 6, 54, 127
1, 374438, Note_off_c, 6, 54, 127
1, 374438, Note_off_c, 10, 69, 127
1, 374439, Note_on_c, 8, 68, 127
1, 374439, Note_on_c, 4, 52, 127
1, 374575, Note_off_c, 4, 52, 127
1, 374575, Note_off_c, 8, 68, 127
1, 374576, Note_on_c, 10, 69, 127
1, 374576, Note_on_c, 6, 54, 127
1, 374712, Note_off_c, 6, 54, 127
1, 374712, Note_off_c, 10, 69, 127
1, 374713, Note_on_c, 6, 66, 127
1, 374713, Note_on_c, 4, 52, 127
1, 374849, Note_off_c, 4, 52, 127
1, 374849, Note_off_c, 6, 66, 127
1, 374850, Note_on_c, 8, 68, 127
1, 374850, Note_on_c, 2, 50, 127
1, 374986, Note_off_c, 2, 50, 127
1, 374986, Note_off_c, 8, 68, 127
1, 374987, Note_on_c, 11, 70, 127
1, 374987, Note_on_c, 1, 49, 127
1, 375123, Note_off_c, 1, 49, 127
1, 375123, Note_off_c, 11, 70, 127
1, 375124, Note_on_c, 8, 68, 127
1, 375124, Note_on_c, 4, 52, 127
1, 375260, Note_off_c, 4, 52, 127
1, 375260, Note_off_c, 8, 68, 127
1, 375261, Note_on_c, 11, 70, 127
1, 375261, Note_on_c, 2, 50, 127
1, 375397, Note_off_c, 2, 50, 127
1, 375397, Note_off_c, 11, 70, 127
1, 375398, Note_on_c, 12, 71, 127
1, 375398, Note_on_c, 1, 49, 127
1, 375534, Note_off_c, 1, 49, 127
1, 375534, Note_off_c, 12, 71, 127
1, 375535, Note_on_c, 11, 70, 127
1, 375535, Note_on_c, 6, 54, 127
1, 375671, Note_off_c, 6, 54, 127
1, 375671, Note_off_c, 11, 70, 127
1, 375672, Note_on_c, 12, 71, 127
1, 375672, Note_on_c, 7, 55, 127
1, 375808, Note_off_c, 7, 55, 127
1, 375808, Note_off_c, 12, 71, 127
1, 375809, Note_on_c, 8, 68, 127
1, 375809, Note_on_c, 6, 54, 127
1, 375945, Note_off_c, 6, 54, 127
1, 375945, Note_off_c, 8, 68, 127
1, 375946, Note_on_c, 11, 70, 127
1, 375946, Note_on_c, 4, 52, 127
1, 376082, Note_off_c, 4, 52, 127
1, 376082, Note_off_c, 11, 70, 127
1, 376083, Note_on_c, 12, 71, 127
1, 376083, Note_on_c, 2, 50, 127
1, 376219, Note_off_c, 12, 71, 127
1, 376220, Note_on_c, 11, 70, 127
1, 376333, Note_off_c, 2, 50, 127
1, 376356, Note_off_c, 11, 70, 127
1, 376357, Note_on_c, 12, 71, 127
1, 376357, Note_on_c, 12, 47, 127
1, 376493, Note_off_c, 12, 71, 127
1, 376494, Note_on_c, 1, 73, 127
1, 376607, Note_off_c, 12, 47, 127
1, 376630, Note_off_c, 1, 73, 127
1, 376631, Note_on_c, 12, 71, 127
1, 376631, Note_on_c, 12, 59, 127
1, 376767, Note_off_c, 12, 71, 127
1, 376768, Note_on_c, 1, 73, 127
1, 376904, Note_off_c, 1, 73, 127
1, 376905, Note_on_c, 11, 70, 127
1, 376905, Note_on_c, 1, 61, 127
1, 377041, Note_off_c, 1, 61, 127
1, 377041, Note_off_c, 11, 70, 127
1, 377042, Note_on_c, 12, 71, 127
1, 377042, Note_on_c, 2, 62, 127
1, 377178, Note_off_c, 2, 62, 127
1, 377178, Note_off_c, 12, 71, 127
1, 377179, Note_on_c, 1, 73, 127
1, 377179, Note_on_c, 4, 64, 127
1, 377315, Note_off_c, 1, 73, 127
1, 377316, Note_on_c, 12, 71, 127
1, 377452, Note_off_c, 12, 71, 127
1, 377452, Note_off_c, 4, 64, 127
1, 377453, Note_on_c, 1, 73, 127
1, 377453, Note_on_c, 1, 61, 127
1, 377589, Note_off_c, 1, 73, 127
1, 377590, Note_on_c, 2, 74, 127
1, 377726, Note_off_c, 2, 74, 127
1, 377726, Note_off_c, 1, 61, 127
1, 377726, Note_off_c, 12, 59, 127
1, 377727, Note_on_c, 1, 73, 127
1, 377727, Note_on_c, 6, 66, 127
1, 377727, Note_on_c, 11, 58, 127
1, 377863, Note_off_c, 1, 73, 127
1, 377864, Note_on_c, 2, 74, 127
1, 378000, Note_off_c, 2, 74, 127
1, 378001, Note_on_c, 12, 71, 127
1, 378137, Note_off_c, 12, 71, 127
1, 378138, Note_on_c, 1, 73, 127
1, 378274, Note_off_c, 1, 73, 127
1, 378274, Note_off_c, 11, 58, 127
1, 378275, Note_on_c, 2, 74, 127
1, 378275, Note_on_c, 12, 59, 127
1, 378411, Note_off_c, 2, 74, 127
1, 378412, Note_on_c, 1, 73, 127
1, 378548, Note_off_c, 1, 73, 127
1, 378548, Note_off_c, 6, 66, 127
1, 378549, Note_on_c, 2, 74, 127
1, 378549, Note_on_c, 2, 62, 127
1, 378685, Note_off_c, 2, 74, 127
1, 378686, Note_on_c, 4, 76, 127
1, 378817, Note_off_c, 12, 59, 127
1, 378821, Note_off_c, 4, 76, 127
1, 378822, Note_on_c, 2, 74, 127
1, 378822, Note_on_c, 6, 54, 127
1, 378958, Note_off_c, 2, 74, 127
1, 378959, Note_on_c, 4, 76, 127
1, 379090, Note_off_c, 2, 62, 127
1, 379094, Note_off_c, 4, 76, 127
1, 379095, Note_on_c, 1, 73, 127
1, 379095, Note_on_c, 10, 57, 127
1, 379231, Note_off_c, 1, 73, 127
1, 379232, Note_on_c, 2, 74, 127
1, 379363, Note_off_c, 6, 54, 127
1, 379367, Note_off_c, 2, 74, 127
1, 379367, Note_off_c, 10, 57, 127
1, 379368, Note_on_c, 4, 76, 127
1, 379368, Note_on_c, 7, 55, 127
1, 379368, Note_on_c, 12, 59, 127
1, 379504, Note_off_c, 4, 76, 127
1, 379505, Note_on_c, 2, 74, 127
1, 379641, Note_off_c, 2, 74, 127
1, 379641, Note_off_c, 12, 59, 127
1, 379642, Note_on_c, 4, 76, 127
1, 379642, Note_on_c, 2, 62, 127
1, 379778, Note_off_c, 4, 76, 127
1, 379779, Note_on_c, 6, 78, 127
1, 379910, Note_off_c, 7, 55, 127
1, 379914, Note_off_c, 6, 78, 127
1, 379915, Note_on_c, 4, 76, 127
1, 379915, Note_on_c, 10, 57, 127
1, 380051, Note_off_c, 4, 76, 127
1, 380052, Note_on_c, 6, 78, 127
1, 380183, Note_off_c, 2, 62, 127
1, 380187, Note_off_c, 6, 78, 127
1, 380188, Note_on_c, 2, 74, 127
1, 380188, Note_on_c, 1, 61, 127
1, 380324, Note_off_c, 2, 74, 127
1, 380325, Note_on_c, 4, 76, 127
1, 380456, Note_off_c, 10, 57, 127
1, 380460, Note_off_c, 4, 76, 127
1, 380461, Note_on_c, 6, 78, 127
1, 380461, Note_on_c, 2, 50, 127
1, 380587, Note_off_c, 1, 61, 127
1, 380734, Note_off_c, 6, 78, 127
1, 380735, Note_on_c, 7, 79, 127
1, 380735, Note_on_c, 12, 59, 127
1, 380871, Note_off_c, 7, 79, 127
1, 380872, Note_on_c, 6, 78, 127
1, 381003, Note_off_c, 2, 50, 127
1, 381007, Note_off_c, 6, 78, 127
1, 381008, Note_on_c, 4, 76, 127
1, 381008, Note_on_c, 7, 55, 127
1, 381144, Note_off_c, 4, 76, 127
1, 381145, Note_on_c, 2, 74, 127
1, 381276, Note_off_c, 12, 59, 127
1, 381280, Note_off_c, 2, 74, 127
1, 381281, Note_on_c, 1, 73, 127
1, 381281, Note_on_c, 4, 64, 127
1, 381417, Note_off_c, 1, 73, 127
1, 381418, Note_on_c, 12, 71, 127
1, 381549, Note_off_c, 7, 55, 127
1, 381553, Note_off_c, 12, 71, 127
1, 381553, Note_off_c, 4, 64, 127
1, 381554, Note_on_c, 11, 70, 127
1, 381554, Note_on_c, 6, 54, 127
1, 381691, Note_on_c, 4, 64, 127
1, 381827, Note_off_c, 4, 64, 127
1, 381827, Note_off_c, 11, 70, 127
1, 381828, Note_on_c, 6, 66, 127
1, 381828, Note_on_c, 2, 62, 127
1, 381964, Note_off_c, 2, 62, 127
1, 381965, Note_on_c, 1, 61, 127
1, 382096, Note_off_c, 6, 54, 127
1, 382100, Note_off_c, 1, 61, 127
1, 382100, Note_off_c, 6, 66, 127
1, 382101, Note_on_c, 12, 71, 127
1, 382101, Note_on_c, 12, 59, 127
1, 382237, Note_off_c, 12, 59, 127
1, 382238, Note_on_c, 10, 57, 127
1, 382374, Note_off_c, 10, 57, 127
1, 382375, Note_on_c, 2, 62, 127
1, 382375, Note_on_c, 6, 66, 127
1, 382375, Note_on_c, 7, 55, 127
1, 382511, Note_off_c, 7, 55, 127
1, 382512, Note_on_c, 6, 54, 127
1, 382648, Note_off_c, 6, 54, 127
1, 382648, Note_off_c, 6, 66, 127
1, 382648, Note_off_c, 2, 62, 127
1, 382649, Note_on_c, 7, 67, 127
1, 382649, Note_on_c, 4, 52, 127
1, 382649, Note_on_c, 1, 61, 127
1, 382785, Note_off_c, 4, 52, 127
1, 382786, Note_on_c, 2, 50, 127
1, 382922, Note_off_c, 2, 50, 127
1, 382923, Note_on_c, 4, 52, 127
1, 383059, Note_off_c, 4, 52, 127
1, 383060, Note_on_c, 1, 49, 127
1, 383191, Note_off_c, 1, 61, 127
1, 383195, Note_off_c, 1, 49, 127
1, 383195, Note_off_c, 7, 67, 127
1, 383195, Note_off_c, 12, 71, 127
1, 383196, Note_on_c, 6, 66, 127
1, 383196, Note_on_c, 11, 70, 127
1, 383196, Note_on_c, 1, 61, 127
1, 383196, Note_on_c, 6, 54, 127
1, 383332, Note_off_c, 6, 54, 127
1, 383333, Note_on_c, 4, 52, 127
1, 383469, Note_off_c, 4, 52, 127
1, 383469, Note_off_c, 6, 66, 127
1, 383470, Note_on_c, 4, 64, 127
1, 383470, Note_on_c, 6, 54, 127
1, 383606, Note_off_c, 6, 54, 127
1, 383607, Note_on_c, 6, 42, 127
1, 383738, Note_off_c, 1, 61, 127
1, 383738, Note_off_c, 11, 70, 127
1, 383742, Note_off_c, 6, 42, 127
1, 383742, Note_off_c, 4, 64, 127
1, 383743, Note_on_c, 12, 71, 127
1, 383743, Note_on_c, 12, 47, 127
1, 383743, Note_on_c, 2, 62, 127
1, 383879, Note_off_c, 12, 71, 127
1, 383896, Note_on_c, 6, 66, 127
1, 384032, Note_off_c, 6, 66, 127
1, 384033, Note_on_c, 12, 71, 127
1, 384169, Note_off_c, 12, 71, 127
1, 384170, Note_on_c, 6, 66, 127
1, 384285, Note_off_c, 2, 62, 127
1, 384285, Note_off_c, 12, 47, 127
1, 384305, Note_off_c, 6, 66, 127
1, 384306, Note_on_c, 12, 71, 127
1, 384442, Note_off_c, 12, 71, 127
1, 384443, Note_on_c, 6, 66, 127
1, 384579, Note_off_c, 6, 66, 127
1, 384580, Note_on_c, 12, 71, 127
1, 384716, Note_off_c, 12, 71, 127
1, 384717, Note_on_c, 6, 66, 127
1, 384853, Note_off_c, 6, 66, 127
1, 384854, Note_on_c, 12, 59, 127
1, 384854, Note_on_c, 12, 71, 127
1, 384990, Note_off_c, 12, 71, 127
1, 384991, Note_on_c, 11, 70, 127
1, 385127, Note_off_c, 11, 70, 127
1, 385127, Note_off_c, 12, 59, 127
1, 385128, Note_on_c, 2, 62, 127
1, 385128, Note_on_c, 12, 71, 127
1, 385264, Note_off_c, 12, 71, 127
1, 385264, Note_off_c, 2, 62, 127
1, 385265, Note_on_c, 1, 61, 127
1, 385265, Note_on_c, 1, 73, 127
1, 385401, Note_off_c, 1, 73, 127
1, 385401, Note_off_c, 1, 61, 127
1, 385402, Note_on_c, 2, 62, 127
1, 385402, Note_on_c, 12, 71, 127
1, 385538, Note_off_c, 12, 71, 127
1, 385539, Note_on_c, 1, 73, 127
1, 385675, Note_off_c, 1, 73, 127
1, 385675, Note_off_c, 2, 62, 127
1, 385676, Note_on_c, 12, 59, 127
1, 385676, Note_on_c, 11, 70, 127
1, 385812, Note_off_c, 11, 70, 127
1, 385813, Note_on_c, 12, 71, 127
1, 385949, Note_off_c, 12, 71, 127
1, 385949, Note_off_c, 12, 59, 127
1, 385950, Note_on_c, 11, 58, 127
1, 385950, Note_on_c, 1, 73, 127
1, 386087, Note_on_c, 6, 66, 127
1, 386121, Note_off_c, 1, 73, 127
1, 386222, Note_off_c, 6, 66, 127
1, 386222, Note_off_c, 11, 58, 127
1, 386223, Note_on_c, 11, 46, 127
1, 386223, Note_on_c, 1, 73, 127
1, 386360, Note_on_c, 6, 66, 127
1, 386394, Note_off_c, 1, 73, 127
1, 386495, Note_off_c, 6, 66, 127
1, 386496, Note_on_c, 1, 73, 127
1, 386633, Note_on_c, 6, 66, 127
1, 386667, Note_off_c, 1, 73, 127
1, 386764, Note_off_c, 11, 46, 127
1, 386768, Note_off_c, 6, 66, 127
1, 386769, Note_on_c, 1, 73, 127
1, 386906, Note_on_c, 6, 66, 127
1, 386940, Note_off_c, 1, 73, 127
1, 387041, Note_off_c, 6, 66, 127
1, 387042, Note_on_c, 11, 58, 127
1, 387042, Note_on_c, 1, 73, 127
1, 387178, Note_off_c, 1, 73, 127
1, 387179, Note_on_c, 12, 71, 127
1, 387315, Note_off_c, 12, 71, 127
1, 387315, Note_off_c, 11, 58, 127
1, 387316, Note_on_c, 6, 66, 127
1, 387316, Note_on_c, 1, 73, 127
1, 387452, Note_off_c, 1, 73, 127
1, 387452, Note_off_c, 6, 66, 127
1, 387453, Note_on_c, 4, 64, 127
1, 387453, Note_on_c, 2, 74, 127
1, 387589, Note_off_c, 2, 74, 127
1, 387589, Note_off_c, 4, 64, 127
1, 387590, Note_on_c, 6, 66, 127
1, 387590, Note_on_c, 1, 73, 127
1, 387726, Note_off_c, 1, 73, 127
1, 387727, Note_on_c, 2, 74, 127
1, 387863, Note_off_c, 2, 74, 127
1, 387863, Note_off_c, 6, 66, 127
1, 387864, Note_on_c, 11, 58, 127
1, 387864, Note_on_c, 12, 71, 127
1, 388000, Note_off_c, 12, 71, 127
1, 388001, Note_on_c, 1, 73, 127
1, 388137, Note_off_c, 1, 73, 127
1, 388137, Note_off_c, 11, 58, 127
1, 388138, Note_on_c, 12, 59, 127
1, 388138, Note_on_c, 2, 74, 127
1, 388275, Note_on_c, 6, 66, 127
1, 388366, Note_off_c, 2, 74, 127
1, 388410, Note_off_c, 6, 66, 127
1, 388411, Note_on_c, 12, 47, 127
1, 388411, Note_on_c, 2, 74, 127
1, 388480, Note_off_c, 12, 59, 127
1, 388549, Note_on_c, 6, 66, 127
1, 388640, Note_off_c, 2, 74, 127
1, 388684, Note_off_c, 6, 66, 127
1, 388685, Note_on_c, 2, 74, 127
1, 388822, Note_on_c, 6, 66, 127
1, 388913, Note_off_c, 2, 74, 127
1, 388953, Note_off_c, 12, 47, 127
1, 388957, Note_off_c, 6, 66, 127
1, 388958, Note_on_c, 2, 74, 127
1, 389095, Note_on_c, 6, 66, 127
1, 389158, Note_off_c, 2, 74, 127
1, 389231, Note_off_c, 6, 66, 127
1, 389232, Note_on_c, 12, 59, 127
1, 389232, Note_on_c, 2, 74, 127
1, 389368, Note_off_c, 2, 74, 127
1, 389369, Note_on_c, 1, 73, 127
1, 389505, Note_off_c, 1, 73, 127
1, 389505, Note_off_c, 12, 59, 127
1, 389506, Note_on_c, 12, 71, 127
1, 389506, Note_on_c, 2, 74, 127
1, 389642, Note_off_c, 2, 74, 127
1, 389642, Note_off_c, 12, 71, 127
1, 389643, Note_on_c, 11, 70, 127
1, 389643, Note_on_c, 4, 76, 127
1, 389779, Note_off_c, 4, 76, 127
1, 389779, Note_off_c, 11, 70, 127
1, 389780, Note_on_c, 12, 71, 127
1, 389780, Note_on_c, 2, 74, 127
1, 389916, Note_off_c, 2, 74, 127
1, 389917, Note_on_c, 4, 76, 127
1, 390053, Note_off_c, 4, 76, 127
1, 390053, Note_off_c, 12, 71, 127
1, 390054, Note_on_c, 12, 59, 127
1, 390054, Note_on_c, 1, 73, 127
1, 390190, Note_off_c, 1, 73, 127
1, 390191, Note_on_c, 2, 74, 127
1, 390327, Note_off_c, 2, 74, 127
1, 390327, Note_off_c, 12, 59, 127
1, 390328, Note_on_c, 1, 61, 127
1, 390328, Note_on_c, 4, 76, 127
1, 390465, Note_on_c, 6, 66, 127
1, 390599, Note_off_c, 4, 76, 127
1, 390602, Note_on_c, 1, 49, 127
1, 390602, Note_on_c, 4, 76, 127
1, 390636, Note_off_c, 6, 66, 127
1, 390727, Note_off_c, 1, 61, 127
1, 390738, Note_on_c, 6, 66, 127
1, 390872, Note_off_c, 4, 76, 127
1, 390875, Note_on_c, 4, 76, 127
1, 390909, Note_off_c, 6, 66, 127
1, 391012, Note_on_c, 6, 66, 127
1, 391143, Note_off_c, 1, 49, 127
1, 391146, Note_off_c, 4, 76, 127
1, 391149, Note_on_c, 4, 76, 127
1, 391183, Note_off_c, 6, 66, 127
1, 391284, Note_off_c, 4, 76, 127
1, 391285, Note_on_c, 6, 66, 127
1, 391421, Note_off_c, 6, 66, 127
1, 391422, Note_on_c, 1, 61, 127
1, 391422, Note_on_c, 4, 76, 127
1, 391558, Note_off_c, 4, 76, 127
1, 391559, Note_on_c, 2, 74, 127
1, 391695, Note_off_c, 2, 74, 127
1, 391695, Note_off_c, 1, 61, 127
1, 391696, Note_on_c, 11, 70, 127
1, 391696, Note_on_c, 4, 76, 127
1, 391832, Note_off_c, 4, 76, 127
1, 391832, Note_off_c, 11, 70, 127
1, 391833, Note_on_c, 8, 68, 127
1, 391833, Note_on_c, 6, 78, 127
1, 391969, Note_off_c, 6, 78, 127
1, 391969, Note_off_c, 8, 68, 127
1, 391970, Note_on_c, 11, 70, 127
1, 391970, Note_on_c, 4, 76, 127
1, 392106, Note_off_c, 4, 76, 127
1, 392107, Note_on_c, 6, 78, 127
1, 392243, Note_off_c, 6, 78, 127
1, 392243, Note_off_c, 11, 70, 127
1, 392244, Note_on_c, 1, 61, 127
1, 392244, Note_on_c, 2, 74, 127
1, 392380, Note_off_c, 2, 74, 127
1, 392381, Note_on_c, 4, 76, 127
1, 392517, Note_off_c, 4, 76, 127
1, 392517, Note_off_c, 1, 61, 127
1, 392518, Note_on_c, 2, 62, 127
1, 392518, Note_on_c, 6, 78, 127
1, 392654, Note_off_c, 2, 62, 127
1, 392655, Note_on_c, 1, 61, 127
1, 392791, Note_off_c, 1, 61, 127
1, 392791, Note_off_c, 6, 78, 127
1, 392792, Note_on_c, 12, 59, 127
1, 392792, Note_on_c, 7, 79, 127
1, 392928, Note_off_c, 7, 79, 127
1, 392928, Note_off_c, 12, 59, 127
1, 392929, Note_on_c, 10, 57, 127
1, 392929, Note_on_c, 6, 78, 127
1, 393065, Note_off_c, 6, 78, 127
1, 393065, Note_off_c, 10, 57, 127
1, 393066, Note_on_c, 7, 55, 127
1, 393066, Note_on_c, 4, 76, 127
1, 393202, Note_off_c, 4, 76, 127
1, 393202, Note_off_c, 7, 55, 127
1, 393203, Note_on_c, 6, 54, 127
1, 393203, Note_on_c, 2, 74, 127
1, 393339, Note_off_c, 2, 74, 127
1, 393339, Note_off_c, 6, 54, 127
1, 393340, Note_on_c, 7, 55, 127
1, 393340, Note_on_c, 1, 73, 127
1, 393476, Note_off_c, 1, 73, 127
1, 393476, Note_off_c, 7, 55, 127
1, 393477, Note_on_c, 4, 52, 127
1, 393477, Note_on_c, 12, 71, 127
1, 393613, Note_off_c, 12, 71, 127
1, 393613, Note_off_c, 4, 52, 127
1, 393614, Note_on_c, 6, 54, 127
1, 393614, Note_on_c, 11, 70, 127
1, 393750, Note_off_c, 11, 70, 127
1, 393751, Note_on_c, 12, 71, 127
1, 393887, Note_off_c, 12, 71, 127
1, 393888, Note_on_c, 8, 68, 127
1, 394024, Note_off_c, 8, 68, 127
1, 394025, Note_on_c, 11, 70, 127
1, 394161, Note_off_c, 11, 70, 127
1, 394162, Note_on_c, 6, 66, 127
1, 394299, Note_on_c, 1, 61, 127
1, 394435, Note_off_c, 1, 61, 127
1, 394435, Note_off_c, 6, 54, 127
1, 394436, Note_on_c, 11, 58, 127
1, 394562, Note_off_c, 6, 66, 127
1, 394572, Note_off_c, 11, 58, 127
1, 394573, Note_on_c, 1, 61, 127
1, 394709, Note_off_c, 1, 61, 127
1, 394710, Note_on_c, 6, 54, 127
1, 394847, Note_on_c, 11, 58, 127
1, 394981, Note_off_c, 6, 54, 127
1, 394982, Note_off_c, 11, 58, 127
1, 394983, Note_on_c, 6, 54, 127
1, 395120, Note_on_c, 11, 58, 127
1, 395254, Note_off_c, 6, 54, 127
1, 395255, Note_off_c, 11, 58, 127
1, 395256, Note_on_c, 1, 49, 127
1, 395392, Note_off_c, 1, 49, 127
1, 395393, Note_on_c, 6, 54, 127
1, 395529, Note_off_c, 6, 54, 127
1, 395530, Note_on_c, 1, 49, 127
1, 395666, Note_off_c, 1, 49, 127
1, 395667, Note_on_c, 6, 54, 127
1, 395803, Note_off_c, 6, 54, 127
1, 395804, Note_on_c, 6, 42, 127
1, 395804, Note_on_c, 11, 46, 127
1, 395804, Note_on_c, 6, 54, 127
1, 395804, Note_on_c, 1, 49, 127
1, 395941, Note_on_c, 6, 78, 127
1, 396077, Note_off_c, 6, 78, 127
1, 396078, Note_on_c, 4, 76, 127
1, 396214, Note_off_c, 4, 76, 127
1, 396215, Note_on_c, 6, 78, 127
1, 396351, Note_off_c, 6, 78, 127
1, 396352, Note_on_c, 1, 73, 127
1, 396488, Note_off_c, 1, 73, 127
1, 396489, Note_on_c, 6, 78, 127
1, 396625, Note_off_c, 6, 78, 127
1, 396625, Note_off_c, 1, 49, 127
1, 396625, Note_off_c, 6, 54, 127
1, 396625, Note_off_c, 11, 46, 127
1, 396625, Note_off_c, 6, 42, 127
1, 396626, Note_on_c, 1, 73, 127
1, 396762, Note_off_c, 1, 73, 127
1, 396763, Note_on_c, 6, 78, 127
1, 396899, Note_off_c, 6, 78, 127
1, 396900, Note_on_c, 11, 70, 127
1, 397036, Note_off_c, 11, 70, 127
1, 397037, Note_on_c, 4, 64, 127
1, 397037, Note_on_c, 1, 73, 127
1, 397173, Note_off_c, 1, 73, 127
1, 397173, Note_off_c, 4, 64, 127
1, 397174, Note_on_c, 1, 61, 127
1, 397174, Note_on_c, 11, 70, 127
1, 397310, Note_off_c, 11, 70, 127
1, 397310, Note_off_c, 1, 61, 127
1, 397311, Note_on_c, 4, 64, 127
1, 397311, Note_on_c, 1, 73, 127
1, 397447, Note_off_c, 1, 73, 127
1, 397447, Note_off_c, 4, 64, 127
1, 397448, Note_on_c, 11, 58, 127
1, 397448, Note_on_c, 6, 66, 127
1, 397584, Note_off_c, 6, 66, 127
1, 397584, Note_off_c, 11, 58, 127
1, 397585, Note_on_c, 1, 61, 127
1, 397585, Note_on_c, 11, 70, 127
1, 397721, Note_off_c, 11, 70, 127
1, 397721, Note_off_c, 1, 61, 127
1, 397722, Note_on_c, 6, 54, 127
1, 397722, Note_on_c, 1, 73, 127
1, 397858, Note_off_c, 1, 73, 127
1, 397858, Note_off_c, 6, 54, 127
1, 397859, Note_on_c, 11, 58, 127
1, 397859, Note_on_c, 6, 78, 127
1, 397995, Note_off_c, 6, 78, 127
1, 397995, Note_off_c, 11, 58, 127
1, 397996, Note_on_c, 12, 47, 127
1, 397996, Note_on_c, 2, 50, 127
1, 397996, Note_on_c, 6, 54, 127
1, 397996, Note_on_c, 12, 59, 127
1, 397996, Note_on_c, 2, 74, 127
1, 398132, Note_off_c, 2, 74, 127
1, 398133, Note_on_c, 12, 71, 127
1, 398269, Note_off_c, 12, 71, 127
1, 398270, Note_on_c, 11, 70, 127
1, 398406, Note_off_c, 11, 70, 127
1, 398407, Note_on_c, 12, 71, 127
1, 398543, Note_off_c, 12, 71, 127
1, 398544, Note_on_c, 6, 66, 127
1, 398680, Note_off_c, 6, 66, 127
1, 398681, Note_on_c, 12, 71, 127
1, 398817, Note_off_c, 12, 71, 127
1, 398817, Note_off_c, 12, 59, 127
1, 398817, Note_off_c, 6, 54, 127
1, 398817, Note_off_c, 2, 50, 127
1, 398817, Note_off_c, 12, 47, 127
1, 398818, Note_on_c, 6, 66, 127
1, 398954, Note_off_c, 6, 66, 127
1, 398955, Note_on_c, 12, 71, 127
1, 399091, Note_off_c, 12, 71, 127
1, 399092, Note_on_c, 3, 63, 127
1, 399228, Note_off_c, 3, 63, 127
1, 399229, Note_on_c, 10, 57, 127
1, 399229, Note_on_c, 6, 66, 127
1, 399365, Note_off_c, 6, 66, 127
1, 399365, Note_off_c, 10, 57, 127
1, 399366, Note_on_c, 6, 54, 127
1, 399366, Note_on_c, 3, 63, 127
1, 399502, Note_off_c, 3, 63, 127
1, 399502, Note_off_c, 6, 54, 127
1, 399503, Note_on_c, 10, 57, 127
1, 399503, Note_on_c, 6, 66, 127
1, 399639, Note_off_c, 6, 66, 127
1, 399639, Note_off_c, 10, 57, 127
1, 399640, Note_on_c, 3, 51, 127
1, 399640, Note_on_c, 12, 59, 127
1, 399776, Note_off_c, 12, 59, 127
1, 399776, Note_off_c, 3, 51, 127
1, 399777, Note_on_c, 6, 54, 127
1, 399777, Note_on_c, 3, 63, 127
1, 399913, Note_off_c, 3, 63, 127
1, 399913, Note_off_c, 6, 54, 127
1, 399914, Note_on_c, 12, 47, 127
1, 399914, Note_on_c, 6, 66, 127
1, 400050, Note_off_c, 6, 66, 127
1, 400050, Note_off_c, 12, 47, 127
1, 400051, Note_on_c, 3, 51, 127
1, 400051, Note_on_c, 12, 71, 127
1, 400187, Note_off_c, 12, 71, 127
1, 400187, Note_off_c, 3, 51, 127
1, 400188, Note_on_c, 4, 40, 127
1, 400188, Note_on_c, 12, 47, 127
1, 400188, Note_on_c, 7, 43, 127
1, 400188, Note_on_c, 4, 52, 127
1, 400188, Note_on_c, 7, 67, 127
1, 400324, Note_off_c, 7, 67, 127
1, 400325, Note_on_c, 4, 64, 127
1, 400461, Note_off_c, 4, 64, 127
1, 400462, Note_on_c, 3, 63, 127
1, 400598, Note_off_c, 3, 63, 127
1, 400599, Note_on_c, 4, 64, 127
1, 400735, Note_off_c, 4, 64, 127
1, 400736, Note_on_c, 12, 59, 127
1, 400872, Note_off_c, 12, 59, 127
1, 400873, Note_on_c, 4, 64, 127
1, 401009, Note_off_c, 4, 64, 127
1, 401009, Note_off_c, 4, 52, 127
1, 401009, Note_off_c, 7, 43, 127
1, 401009, Note_off_c, 12, 47, 127
1, 401009, Note_off_c, 4, 40, 127
1, 401010, Note_on_c, 12, 59, 127
1, 401146, Note_off_c, 12, 59, 127
1, 401147, Note_on_c, 4, 64, 127
1, 401283, Note_off_c, 4, 64, 127
1, 401284, Note_on_c, 8, 56, 127
1, 401420, Note_off_c, 8, 56, 127
1, 401421, Note_on_c, 2, 50, 127
1, 401421, Note_on_c, 12, 59, 127
1, 401557, Note_off_c, 12, 59, 127
1, 401557, Note_off_c, 2, 50, 127
1, 401558, Note_on_c, 12, 47, 127
1, 401558, Note_on_c, 8, 56, 127
1, 401694, Note_off_c, 8, 56, 127
1, 401694, Note_off_c, 12, 47, 127
1, 401695, Note_on_c, 2, 50, 127
1, 401695, Note_on_c, 12, 59, 127
1, 401831, Note_off_c, 12, 59, 127
1, 401831, Note_off_c, 2, 50, 127
1, 401832, Note_on_c, 8, 44, 127
1, 401832, Note_on_c, 4, 52, 127
1, 401968, Note_off_c, 4, 52, 127
1, 401968, Note_off_c, 8, 44, 127
1, 401969, Note_on_c, 12, 47, 127
1, 401969, Note_on_c, 8, 56, 127
1, 402105, Note_off_c, 8, 56, 127
1, 402105, Note_off_c, 12, 47, 127
1, 402106, Note_on_c, 4, 40, 127
1, 402106, Note_on_c, 12, 59, 127
1, 402242, Note_off_c, 12, 59, 127
1, 402242, Note_off_c, 4, 40, 127
1, 402243, Note_on_c, 8, 44, 127
1, 402243, Note_on_c, 4, 64, 127
1, 402379, Note_off_c, 4, 64, 127
1, 402379, Note_off_c, 8, 44, 127
1, 402380, Note_on_c, 11, 46, 127
1, 402380, Note_on_c, 6, 54, 127
1, 402380, Note_on_c, 1, 49, 127
1, 402380, Note_on_c, 1, 61, 127
1, 402516, Note_off_c, 1, 61, 127
1, 402517, Note_on_c, 6, 66, 127
1, 402653, Note_off_c, 6, 66, 127
1, 402654, Note_on_c, 4, 64, 127
1, 402790, Note_off_c, 4, 64, 127
1, 402791, Note_on_c, 6, 66, 127
1, 402927, Note_off_c, 6, 66, 127
1, 402928, Note_on_c, 1, 61, 127
1, 403064, Note_off_c, 1, 61, 127
1, 403065, Note_on_c, 6, 66, 127
1, 403201, Note_off_c, 6, 66, 127
1, 403201, Note_off_c, 1, 49, 127
1, 403201, Note_off_c, 6, 54, 127
1, 403201, Note_off_c, 11, 46, 127
1, 403202, Note_on_c, 1, 61, 127
1, 403338, Note_off_c, 1, 61, 127
1, 403339, Note_on_c, 6, 66, 127
1, 403475, Note_off_c, 6, 66, 127
1, 403476, Note_on_c, 11, 58, 127
1, 403612, Note_off_c, 11, 58, 127
1, 403613, Note_on_c, 4, 52, 127
1, 403613, Note_on_c, 1, 61, 127
1, 403749, Note_off_c, 1, 61, 127
1, 403749, Note_off_c, 4, 52, 127
1, 403750, Note_on_c, 1, 49, 127
1, 403750, Note_on_c, 11, 58, 127
1, 403886, Note_off_c, 11, 58, 127
1, 403886, Note_off_c, 1, 49, 127
1, 403887, Note_on_c, 4, 52, 127
1, 403887, Note_on_c, 1, 61, 127
1, 404023, Note_off_c, 1, 61, 127
1, 404023, Note_off_c, 4, 52, 127
1, 404024, Note_on_c, 11, 46, 127
1, 404024, Note_on_c, 6, 54, 127
1, 404160, Note_off_c, 6, 54, 127
1, 404160, Note_off_c, 11, 46, 127
1, 404161, Note_on_c, 1, 49, 127
1, 404161, Note_on_c, 11, 58, 127
1, 404297, Note_off_c, 11, 58, 127
1, 404297, Note_off_c, 1, 49, 127
1, 404298, Note_on_c, 6, 42, 127
1, 404298, Note_on_c, 1, 61, 127
1, 404434, Note_off_c, 1, 61, 127
1, 404434, Note_off_c, 6, 42, 127
1, 404435, Note_on_c, 11, 46, 127
1, 404435, Note_on_c, 6, 66, 127
1, 404571, Note_off_c, 6, 66, 127
1, 404571, Note_off_c, 11, 46, 127
1, 404572, Note_on_c, 12, 47, 127
1, 404572, Note_on_c, 3, 63, 127
1, 404708, Note_off_c, 3, 63, 127
1, 404709, Note_on_c, 12, 71, 127
1, 404845, Note_off_c, 12, 71, 127
1, 404846, Note_on_c, 11, 70, 127
1, 404982, Note_off_c, 11, 70, 127
1, 404983, Note_on_c, 12, 71, 127
1, 405119, Note_off_c, 12, 71, 127
1, 405120, Note_on_c, 6, 66, 127
1, 405256, Note_off_c, 6, 66, 127
1, 405257, Note_on_c, 12, 71, 127
1, 405393, Note_off_c, 12, 71, 127
1, 405394, Note_on_c, 6, 66, 127
1, 405530, Note_off_c, 6, 66, 127
1, 405531, Note_on_c, 12, 71, 127
1, 405667, Note_off_c, 12, 71, 127
1, 405667, Note_off_c, 12, 47, 127
1, 405668, Note_on_c, 3, 63, 127
1, 405804, Note_off_c, 3, 63, 127
1, 405805, Note_on_c, 10, 57, 127
1, 405805, Note_on_c, 6, 66, 127
1, 405941, Note_off_c, 6, 66, 127
1, 405941, Note_off_c, 10, 57, 127
1, 405942, Note_on_c, 6, 54, 127
1, 405942, Note_on_c, 3, 63, 127
1, 406078, Note_off_c, 3, 63, 127
1, 406078, Note_off_c, 6, 54, 127
1, 406079, Note_on_c, 10, 57, 127
1, 406079, Note_on_c, 6, 66, 127
1, 406215, Note_off_c, 6, 66, 127
1, 406215, Note_off_c, 10, 57, 127
1, 406216, Note_on_c, 3, 51, 127
1, 406216, Note_on_c, 12, 59, 127
1, 406352, Note_off_c, 12, 59, 127
1, 406352, Note_off_c, 3, 51, 127
1, 406353, Note_on_c, 6, 54, 127
1, 406353, Note_on_c, 3, 63, 127
1, 406489, Note_off_c, 3, 63, 127
1, 406489, Note_off_c, 6, 54, 127
1, 406490, Note_on_c, 12, 47, 127
1, 406490, Note_on_c, 6, 66, 127
1, 406626, Note_off_c, 6, 66, 127
1, 406626, Note_off_c, 12, 47, 127
1, 406627, Note_on_c, 3, 51, 127
1, 406627, Note_on_c, 12, 71, 127
1, 406763, Note_off_c, 12, 71, 127
1, 406763, Note_off_c, 3, 51, 127
1, 406764, Note_on_c, 5, 41, 127
1, 406764, Note_on_c, 5, 53, 127
1, 406764, Note_on_c, 8, 44, 127
1, 406764, Note_on_c, 1, 49, 127
1, 406764, Note_on_c, 8, 68, 127
1, 406900, Note_off_c, 8, 68, 127
1, 406901, Note_on_c, 1, 73, 127
1, 407037, Note_off_c, 1, 73, 127
1, 407038, Note_on_c, 12, 71, 127
1, 407174, Note_off_c, 12, 71, 127
1, 407175, Note_on_c, 1, 73, 127
1, 407311, Note_off_c, 1, 73, 127
1, 407312, Note_on_c, 8, 68, 127
1, 407448, Note_off_c, 8, 68, 127
1, 407449, Note_on_c, 1, 73, 127
1, 407585, Note_off_c, 1, 73, 127
1, 407585, Note_off_c, 1, 49, 127
1, 407585, Note_off_c, 8, 44, 127
1, 407585, Note_off_c, 5, 53, 127
1, 407585, Note_off_c, 5, 41, 127
1, 407586, Note_on_c, 8, 68, 127
1, 407722, Note_off_c, 8, 68, 127
1, 407723, Note_on_c, 1, 73, 127
1, 407859, Note_off_c, 1, 73, 127
1, 407860, Note_on_c, 5, 65, 127
1, 407996, Note_off_c, 5, 65, 127
1, 407997, Note_on_c, 12, 59, 127
1, 407997, Note_on_c, 8, 68, 127
1, 408133, Note_off_c, 8, 68, 127
1, 408133, Note_off_c, 12, 59, 127
1, 408134, Note_on_c, 8, 56, 127
1, 408134, Note_on_c, 5, 65, 127
1, 408270, Note_off_c, 5, 65, 127
1, 408270, Note_off_c, 8, 56, 127
1, 408271, Note_on_c, 12, 59, 127
1, 408271, Note_on_c, 8, 68, 127
1, 408407, Note_off_c, 8, 68, 127
1, 408407, Note_off_c, 12, 59, 127
1, 408408, Note_on_c, 5, 53, 127
1, 408408, Note_on_c, 1, 61, 127
1, 408544, Note_off_c, 1, 61, 127
1, 408544, Note_off_c, 5, 53, 127
1, 408545, Note_on_c, 8, 56, 127
1, 408545, Note_on_c, 5, 65, 127
1, 408681, Note_off_c, 5, 65, 127
1, 408681, Note_off_c, 8, 56, 127
1, 408682, Note_on_c, 1, 49, 127
1, 408682, Note_on_c, 8, 68, 127
1, 408818, Note_off_c, 8, 68, 127
1, 408818, Note_off_c, 1, 49, 127
1, 408819, Note_on_c, 5, 53, 127
1, 408819, Note_on_c, 1, 73, 127
1, 408955, Note_off_c, 1, 73, 127
1, 408955, Note_off_c, 5, 53, 127
1, 408956, Note_on_c, 10, 45, 127
1, 408956, Note_on_c, 6, 42, 127
1, 408956, Note_on_c, 6, 54, 127
1, 408956, Note_on_c, 1, 49, 127
1, 408956, Note_on_c, 10, 69, 127
1, 409092, Note_off_c, 10, 69, 127
1, 409093, Note_on_c, 6, 78, 127
1, 409229, Note_off_c, 6, 78, 127
1, 409230, Note_on_c, 5, 77, 127
1, 409366, Note_off_c, 5, 77, 127
1, 409367, Note_on_c, 6, 78, 127
1, 409503, Note_off_c, 6, 78, 127
1, 409504, Note_on_c, 1, 73, 127
1, 409640, Note_off_c, 1, 73, 127
1, 409641, Note_on_c, 6, 78, 127
1, 409777, Note_off_c, 6, 78, 127
1, 409777, Note_off_c, 1, 49, 127
1, 409777, Note_off_c, 6, 54, 127
1, 409777, Note_off_c, 6, 42, 127
1, 409777, Note_off_c, 10, 45, 127
1, 409778, Note_on_c, 1, 73, 127
1, 409914, Note_off_c, 1, 73, 127
1, 409915, Note_on_c, 6, 78, 127
1, 410051, Note_off_c, 6, 78, 127
1, 410052, Note_on_c, 11, 70, 127
1, 410188, Note_off_c, 11, 70, 127
1, 410189, Note_on_c, 4, 64, 127
1, 410189, Note_on_c, 1, 73, 127
1, 410325, Note_off_c, 1, 73, 127
1, 410325, Note_off_c, 4, 64, 127
1, 410326, Note_on_c, 1, 61, 127
1, 410326, Note_on_c, 11, 70, 127
1, 410462, Note_off_c, 11, 70, 127
1, 410462, Note_off_c, 1, 61, 127
1, 410463, Note_on_c, 4, 64, 127
1, 410463, Note_on_c, 1, 73, 127
1, 410599, Note_off_c, 1, 73, 127
1, 410599, Note_off_c, 4, 64, 127
1, 410600, Note_on_c, 11, 58, 127
1, 410600, Note_on_c, 6, 66, 127
1, 410736, Note_off_c, 6, 66, 127
1, 410736, Note_off_c, 11, 58, 127
1, 410737, Note_on_c, 1, 61, 127
1, 410737, Note_on_c, 11, 70, 127
1, 410873, Note_off_c, 11, 70, 127
1, 410873, Note_off_c, 1, 61, 127
1, 410874, Note_on_c, 6, 54, 127
1, 410874, Note_on_c, 1, 73, 127
1, 411010, Note_off_c, 1, 73, 127
1, 411010, Note_off_c, 6, 54, 127
1, 411011, Note_on_c, 11, 58, 127
1, 411011, Note_on_c, 6, 78, 127
1, 411147, Note_off_c, 6, 78, 127
1, 411147, Note_off_c, 11, 58, 127
1, 411148, Note_on_c, 12, 47, 127
1, 411148, Note_on_c, 2, 50, 127
1, 411148, Note_on_c, 6, 54, 127
1, 411148, Note_on_c, 12, 59, 127
1, 411148, Note_on_c, 2, 74, 127
1, 411284, Note_off_c, 2, 74, 127
1, 411285, Note_on_c, 12, 83, 127
1, 411421, Note_off_c, 12, 83, 127
1, 411422, Note_on_c, 11, 82, 127
1, 411558, Note_off_c, 11, 82, 127
1, 411559, Note_on_c, 12, 83, 127
1, 411695, Note_off_c, 12, 83, 127
1, 411696, Note_on_c, 6, 78, 127
1, 411832, Note_off_c, 6, 78, 127
1, 411833, Note_on_c, 12, 83, 127
1, 411969, Note_off_c, 12, 83, 127
1, 411969, Note_off_c, 12, 59, 127
1, 411969, Note_off_c, 6, 54, 127
1, 411969, Note_off_c, 2, 50, 127
1, 411969, Note_off_c, 12, 47, 127
1, 411970, Note_on_c, 6, 78, 127
1, 412106, Note_off_c, 6, 78, 127
1, 412107, Note_on_c, 12, 83, 127
1, 412243, Note_off_c, 12, 83, 127
1, 412244, Note_on_c, 3, 75, 127
1, 412380, Note_off_c, 3, 75, 127
1, 412381, Note_on_c, 10, 69, 127
1, 412381, Note_on_c, 6, 78, 127
1, 412517, Note_off_c, 6, 78, 127
1, 412517, Note_off_c, 10, 69, 127
1, 412518, Note_on_c, 6, 66, 127
1, 412518, Note_on_c, 3, 75, 127
1, 412654, Note_off_c, 3, 75, 127
1, 412654, Note_off_c, 6, 66, 127
1, 412655, Note_on_c, 10, 69, 127
1, 412655, Note_on_c, 6, 78, 127
1, 412791, Note_off_c, 6, 78, 127
1, 412791, Note_off_c, 10, 69, 127
1, 412792, Note_on_c, 3, 63, 127
1, 412792, Note_on_c, 12, 71, 127
1, 412928, Note_off_c, 12, 71, 127
1, 412928, Note_off_c, 3, 63, 127
1, 412929, Note_on_c, 6, 66, 127
1, 412929, Note_on_c, 3, 75, 127
1, 413065, Note_off_c, 3, 75, 127
1, 413065, Note_off_c, 6, 66, 127
1, 413066, Note_on_c, 12, 59, 127
1, 413066, Note_on_c, 6, 78, 127
1, 413202, Note_off_c, 6, 78, 127
1, 413202, Note_off_c, 12, 59, 127
1, 413203, Note_on_c, 3, 63, 127
1, 413203, Note_on_c, 12, 83, 127
1, 413339, Note_off_c, 12, 83, 127
1, 413339, Note_off_c, 3, 63, 127
1, 413340, Note_on_c, 7, 55, 127
1, 413340, Note_on_c, 4, 52, 127
1, 413340, Note_on_c, 12, 59, 127
1, 413340, Note_on_c, 4, 64, 127
1, 413340, Note_on_c, 7, 79, 127
1, 413476, Note_off_c, 7, 79, 127
1, 413477, Note_on_c, 10, 81, 127
1, 413613, Note_off_c, 10, 81, 127
1, 413614, Note_on_c, 12, 83, 127
1, 413750, Note_off_c, 12, 83, 127
1, 413751, Note_on_c, 7, 79, 127
1, 413887, Note_off_c, 7, 79, 127
1, 413887, Note_off_c, 4, 64, 127
1, 413887, Note_off_c, 12, 59, 127
1, 413887, Note_off_c, 4, 52, 127
1, 413887, Note_off_c, 7, 55, 127
1, 413888, Note_on_c, 7, 67, 127
1, 413888, Note_on_c, 4, 76, 127
1, 414024, Note_off_c, 4, 76, 127
1, 414024, Note_off_c, 7, 67, 127
1, 414025, Note_on_c, 10, 69, 127
1, 414025, Note_on_c, 6, 78, 127
1, 414161, Note_off_c, 6, 78, 127
1, 414161, Note_off_c, 10, 69, 127
1, 414162, Note_on_c, 12, 71, 127
1, 414162, Note_on_c, 7, 79, 127
1, 414298, Note_off_c, 7, 79, 127
1, 414298, Note_off_c, 12, 71, 127
1, 414299, Note_on_c, 7, 67, 127
1, 414299, Note_on_c, 4, 76, 127
1, 414435, Note_off_c, 4, 76, 127
1, 414435, Note_off_c, 7, 67, 127
1, 414436, Note_on_c, 4, 64, 127
1, 414436, Note_on_c, 1, 73, 127
1, 414572, Note_off_c, 1, 73, 127
1, 414572, Note_off_c, 4, 64, 127
1, 414573, Note_on_c, 6, 66, 127
1, 414573, Note_on_c, 2, 74, 127
1, 414709, Note_off_c, 2, 74, 127
1, 414709, Note_off_c, 6, 66, 127
1, 414710, Note_on_c, 7, 67, 127
1, 414710, Note_on_c, 4, 76, 127
1, 414846, Note_off_c, 4, 76, 127
1, 414846, Note_off_c, 7, 67, 127
1, 414847, Note_on_c, 4, 64, 127
1, 414847, Note_on_c, 1, 73, 127
1, 414983, Note_off_c, 1, 73, 127
1, 414983, Note_off_c, 4, 64, 127
1, 414984, Note_on_c, 1, 61, 127
1, 414984, Note_on_c, 11, 70, 127
1, 415120, Note_off_c, 11, 70, 127
1, 415120, Note_off_c, 1, 61, 127
1, 415121, Note_on_c, 2, 62, 127
1, 415121, Note_on_c, 12, 71, 127
1, 415257, Note_off_c, 12, 71, 127
1, 415257, Note_off_c, 2, 62, 127
1, 415258, Note_on_c, 4, 64, 127
1, 415258, Note_on_c, 1, 73, 127
1, 415394, Note_off_c, 1, 73, 127
1, 415394, Note_off_c, 4, 64, 127
1, 415395, Note_on_c, 1, 61, 127
1, 415395, Note_on_c, 11, 70, 127
1, 415531, Note_off_c, 11, 70, 127
1, 415531, Note_off_c, 1, 61, 127
1, 415532, Note_on_c, 11, 58, 127
1, 415532, Note_on_c, 6, 66, 127
1, 415668, Note_off_c, 11, 58, 127
1, 415669, Note_on_c, 1, 61, 127
1, 415669, Note_on_c, 11, 70, 127
1, 415796, Note_off_c, 6, 66, 127
1, 415805, Note_off_c, 11, 70, 127
1, 415805, Note_off_c, 1, 61, 127
1, 415806, Note_on_c, 6, 66, 127
1, 415806, Note_on_c, 1, 73, 127
1, 415942, Note_off_c, 1, 73, 127
1, 415943, Note_on_c, 1, 61, 127
1, 415943, Note_on_c, 6, 78, 127
1, 416074, Note_off_c, 6, 66, 127
1, 416078, Note_off_c, 6, 78, 127
1, 416078, Note_off_c, 1, 61, 127
1, 416079, Note_on_c, 11, 58, 127
1, 416079, Note_on_c, 6, 66, 127
1, 416215, Note_off_c, 11, 58, 127
1, 416216, Note_on_c, 1, 61, 127
1, 416216, Note_on_c, 11, 70, 127
1, 416352, Note_off_c, 11, 70, 127
1, 416352, Note_off_c, 1, 61, 127
1, 416353, Note_on_c, 6, 54, 127
1, 416353, Note_on_c, 1, 73, 127
1, 416489, Note_off_c, 1, 73, 127
1, 416489, Note_off_c, 6, 54, 127
1, 416490, Note_on_c, 11, 58, 127
1, 416490, Note_on_c, 6, 78, 127
1, 416621, Note_off_c, 6, 66, 127
1, 416625, Note_off_c, 6, 78, 127
1, 416625, Note_off_c, 11, 58, 127
1, 416626, Note_on_c, 12, 59, 127
1, 416626, Note_on_c, 2, 74, 127
1, 416762, Note_off_c, 2, 74, 127
1, 416763, Note_on_c, 12, 71, 127
1, 416899, Note_off_c, 12, 71, 127
1, 416899, Note_off_c, 12, 59, 127
1, 416900, Note_on_c, 10, 57, 127
1, 416900, Note_on_c, 2, 74, 127
1, 417036, Note_off_c, 2, 74, 127
1, 417036, Note_off_c, 10, 57, 127
1, 417037, Note_on_c, 7, 55, 127
1, 417037, Note_on_c, 6, 78, 127
1, 417173, Note_off_c, 6, 78, 127
1, 417173, Note_off_c, 7, 55, 127
1, 417174, Note_on_c, 6, 54, 127
1, 417174, Note_on_c, 2, 74, 127
1, 417310, Note_off_c, 2, 74, 127
1, 417310, Note_off_c, 6, 54, 127
1, 417311, Note_on_c, 4, 52, 127
1, 417311, Note_on_c, 12, 71, 127
1, 417447, Note_off_c, 12, 71, 127
1, 417447, Note_off_c, 4, 52, 127
1, 417448, Note_on_c, 2, 50, 127
1, 417448, Note_on_c, 2, 74, 127
1, 417584, Note_off_c, 2, 74, 127
1, 417584, Note_off_c, 2, 50, 127
1, 417585, Note_on_c, 1, 49, 127
1, 417585, Note_on_c, 6, 78, 127
1, 417721, Note_off_c, 6, 78, 127
1, 417721, Note_off_c, 1, 49, 127
1, 417722, Note_on_c, 12, 47, 127
1, 417722, Note_on_c, 3, 75, 127
1, 417859, Note_on_c, 12, 71, 127
1, 417928, Note_off_c, 3, 75, 127
1, 417995, Note_off_c, 12, 71, 127
1, 417995, Note_off_c, 12, 47, 127
1, 417996, Note_on_c, 6, 42, 127
1, 417996, Note_on_c, 3, 75, 127
1, 418132, Note_off_c, 3, 75, 127
1, 418133, Note_on_c, 6, 78, 127
1, 418269, Note_off_c, 6, 78, 127
1, 418269, Note_off_c, 6, 42, 127
1, 418270, Note_on_c, 12, 47, 127
1, 418270, Note_on_c, 3, 75, 127
1, 418407, Note_on_c, 12, 71, 127
1, 418476, Note_off_c, 3, 75, 127
1, 418513, Note_off_c, 12, 47, 127
1, 418543, Note_off_c, 12, 71, 127
1, 418544, Note_on_c, 10, 57, 127
1, 418544, Note_on_c, 3, 75, 127
1, 418680, Note_off_c, 3, 75, 127
1, 418680, Note_off_c, 10, 57, 127
1, 418681, Note_on_c, 12, 59, 127
1, 418681, Note_on_c, 6, 78, 127
1, 418817, Note_off_c, 6, 78, 127
1, 418817, Note_off_c, 12, 59, 127
1, 418818, Note_on_c, 0, 60, 127
1, 418818, Note_on_c, 3, 75, 127
1, 418955, Note_on_c, 10, 69, 127
1, 419024, Note_off_c, 3, 75, 127
1, 419091, Note_off_c, 10, 69, 127
1, 419091, Note_off_c, 0, 60, 127
1, 419092, Note_on_c, 0, 60, 127
1, 419092, Note_on_c, 3, 75, 127
1, 419228, Note_off_c, 3, 75, 127
1, 419229, Note_on_c, 6, 78, 127
1, 419365, Note_off_c, 6, 78, 127
1, 419365, Note_off_c, 0, 60, 127
1, 419366, Note_on_c, 0, 60, 127
1, 419366, Note_on_c, 3, 75, 127
1, 419503, Note_on_c, 10, 69, 127
1, 419572, Note_off_c, 3, 75, 127
1, 419639, Note_off_c, 0, 60, 127
1, 419640, Note_on_c, 0, 60, 127
1, 419640, Note_on_c, 3, 75, 127
1, 419674, Note_off_c, 10, 69, 127
1, 419775, Note_off_c, 3, 75, 127
1, 419776, Note_on_c, 6, 78, 127
1, 419912, Note_off_c, 6, 78, 127
1, 419912, Note_off_c, 0, 60, 127
1, 419913, Note_on_c, 12, 59, 127
1, 419913, Note_on_c, 4, 76, 127
1, 420049, Note_off_c, 12, 59, 127
1, 420050, Note_on_c, 0, 60, 127
1, 420050, Note_on_c, 12, 71, 127
1, 420184, Note_off_c, 4, 76, 127
1, 420185, Note_off_c, 12, 71, 127
1, 420185, Note_off_c, 0, 60, 127
1, 420186, Note_on_c, 12, 59, 127
1, 420186, Note_on_c, 4, 76, 127
1, 420322, Note_off_c, 4, 76, 127
1, 420322, Note_off_c, 12, 59, 127
1, 420323, Note_on_c, 10, 57, 127
1, 420323, Note_on_c, 7, 79, 127
1, 420459, Note_off_c, 7, 79, 127
1, 420459, Note_off_c, 10, 57, 127
1, 420460, Note_on_c, 7, 55, 127
1, 420460, Note_on_c, 4, 76, 127
1, 420596, Note_off_c, 7, 55, 127
1, 420597, Note_on_c, 6, 54, 127
1, 420597, Note_on_c, 12, 71, 127
1, 420731, Note_off_c, 4, 76, 127
1, 420732, Note_off_c, 6, 54, 127
1, 420733, Note_on_c, 4, 52, 127
1, 420733, Note_on_c, 4, 76, 127
1, 420802, Note_off_c, 12, 71, 127
1, 420869, Note_off_c, 4, 76, 127
1, 420869, Note_off_c, 4, 52, 127
1, 420870, Note_on_c, 2, 50, 127
1, 420870, Note_on_c, 7, 79, 127
1, 421006, Note_off_c, 7, 79, 127
1, 421006, Note_off_c, 2, 50, 127
1, 421007, Note_on_c, 1, 49, 127
1, 421007, Note_on_c, 5, 77, 127
1, 421144, Note_on_c, 1, 73, 127
1, 421278, Note_off_c, 5, 77, 127
1, 421279, Note_off_c, 1, 73, 127
1, 421279, Note_off_c, 1, 49, 127
1, 421280, Note_on_c, 8, 44, 127
1, 421280, Note_on_c, 5, 77, 127
1, 421416, Note_off_c, 5, 77, 127
1, 421417, Note_on_c, 8, 80, 127
1, 421553, Note_off_c, 8, 80, 127
1, 421553, Note_off_c, 8, 44, 127
1, 421554, Note_on_c, 1, 37, 127
1, 421554, Note_on_c, 5, 77, 127
1, 421691, Note_on_c, 1, 73, 127
1, 421782, Note_off_c, 1, 37, 127
1, 421825, Note_off_c, 5, 77, 127
1, 421826, Note_off_c, 1, 73, 127
1, 421827, Note_on_c, 12, 59, 127
1, 421827, Note_on_c, 5, 77, 127
1, 421963, Note_off_c, 5, 77, 127
1, 421963, Note_off_c, 12, 59, 127
1, 421964, Note_on_c, 1, 61, 127
1, 421964, Note_on_c, 8, 80, 127
1, 422100, Note_off_c, 8, 80, 127
1, 422100, Note_off_c, 1, 61, 127
1, 422101, Note_on_c, 2, 62, 127
1, 422101, Note_on_c, 5, 77, 127
1, 422238, Note_on_c, 12, 71, 127
1, 422372, Note_off_c, 5, 77, 127
1, 422373, Note_off_c, 12, 71, 127
1, 422373, Note_off_c, 2, 62, 127
1, 422374, Note_on_c, 2, 62, 127
1, 422374, Note_on_c, 5, 77, 127
1, 422510, Note_off_c, 5, 77, 127
1, 422511, Note_on_c, 8, 80, 127
1, 422647, Note_off_c, 8, 80, 127
1, 422647, Note_off_c, 2, 62, 127
1, 422648, Note_on_c, 2, 62, 127
1, 422648, Note_on_c, 5, 77, 127
1, 422785, Note_on_c, 12, 71, 127
1, 422919, Note_off_c, 5, 77, 127
1, 422920, Note_off_c, 2, 62, 127
1, 422921, Note_on_c, 2, 62, 127
1, 422921, Note_on_c, 5, 77, 127
1, 422990, Note_off_c, 12, 71, 127
1, 423057, Note_off_c, 5, 77, 127
1, 423058, Note_on_c, 8, 80, 127
1, 423194, Note_off_c, 8, 80, 127
1, 423194, Note_off_c, 2, 62, 127
1, 423195, Note_on_c, 1, 61, 127
1, 423195, Note_on_c, 6, 78, 127
1, 423331, Note_off_c, 1, 61, 127
1, 423332, Note_on_c, 2, 62, 127
1, 423332, Note_on_c, 1, 73, 127
1, 423466, Note_off_c, 6, 78, 127
1, 423467, Note_off_c, 1, 73, 127
1, 423467, Note_off_c, 2, 62, 127
1, 423468, Note_on_c, 1, 61, 127
1, 423468, Note_on_c, 10, 69, 127
1, 423604, Note_off_c, 10, 69, 127
1, 423604, Note_off_c, 1, 61, 127
1, 423605, Note_on_c, 12, 59, 127
1, 423605, Note_on_c, 6, 78, 127
1, 423741, Note_off_c, 6, 78, 127
1, 423741, Note_off_c, 12, 59, 127
1, 423742, Note_on_c, 10, 57, 127
1, 423742, Note_on_c, 6, 78, 127
1, 423878, Note_off_c, 10, 57, 127
1, 423879, Note_on_c, 8, 56, 127
1, 423879, Note_on_c, 1, 73, 127
1, 424013, Note_off_c, 6, 78, 127
1, 424014, Note_off_c, 1, 73, 127
1, 424014, Note_off_c, 8, 56, 127
1, 424015, Note_on_c, 6, 54, 127
1, 424015, Note_on_c, 10, 69, 127
1, 424151, Note_off_c, 10, 69, 127
1, 424151, Note_off_c, 6, 54, 127
1, 424152, Note_on_c, 4, 52, 127
1, 424152, Note_on_c, 6, 78, 127
1, 424288, Note_off_c, 6, 78, 127
1, 424288, Note_off_c, 4, 52, 127
1, 424289, Note_on_c, 2, 50, 127
1, 424289, Note_on_c, 6, 78, 127
1, 424425, Note_off_c, 2, 50, 127
1, 424426, Note_on_c, 4, 52, 127
1, 424426, Note_on_c, 2, 74, 127
1, 424562, Note_off_c, 2, 74, 127
1, 424562, Note_off_c, 4, 52, 127
1, 424563, Note_on_c, 2, 50, 127
1, 424563, Note_on_c, 8, 68, 127
1, 424632, Note_off_c, 6, 78, 127
1, 424699, Note_off_c, 8, 68, 127
1, 424699, Note_off_c, 2, 50, 127
1, 424700, Note_on_c, 1, 49, 127
1, 424700, Note_on_c, 6, 78, 127
1, 424836, Note_off_c, 6, 78, 127
1, 424836, Note_off_c, 1, 49, 127
1, 424837, Note_on_c, 12, 47, 127
1, 424837, Note_on_c, 6, 78, 127
1, 424973, Note_off_c, 12, 47, 127
1, 424974, Note_on_c, 1, 49, 127
1, 424974, Note_on_c, 2, 74, 127
1, 425110, Note_off_c, 2, 74, 127
1, 425110, Note_off_c, 1, 49, 127
1, 425111, Note_on_c, 2, 50, 127
1, 425111, Note_on_c, 8, 68, 127
1, 425180, Note_off_c, 6, 78, 127
1, 425247, Note_off_c, 8, 68, 127
1, 425247, Note_off_c, 2, 50, 127
1, 425248, Note_on_c, 12, 47, 127
1, 425248, Note_on_c, 6, 78, 127
1, 425384, Note_off_c, 6, 78, 127
1, 425384, Note_off_c, 12, 47, 127
1, 425385, Note_on_c, 1, 49, 127
1, 425385, Note_on_c, 5, 77, 127
1, 425521, Note_off_c, 1, 49, 127
1, 425522, Note_on_c, 8, 56, 127
1, 425522, Note_on_c, 1, 73, 127
1, 425658, Note_off_c, 1, 73, 127
1, 425658, Note_off_c, 8, 56, 127
1, 425659, Note_on_c, 1, 61, 127
1, 425659, Note_on_c, 8, 68, 127
1, 425728, Note_off_c, 5, 77, 127
1, 425795, Note_off_c, 8, 68, 127
1, 425795, Note_off_c, 1, 61, 127
1, 425796, Note_on_c, 2, 62, 127
1, 425796, Note_on_c, 5, 77, 127
1, 425932, Note_off_c, 5, 77, 127
1, 425932, Note_off_c, 2, 62, 127
1, 425933, Note_on_c, 1, 61, 127
1, 425933, Note_on_c, 5, 77, 127
1, 426069, Note_off_c, 1, 61, 127
1, 426070, Note_on_c, 12, 59, 127
1, 426070, Note_on_c, 1, 73, 127
1, 426204, Note_off_c, 5, 77, 127
1, 426205, Note_off_c, 1, 73, 127
1, 426205, Note_off_c, 12, 59, 127
1, 426206, Note_on_c, 10, 57, 127
1, 426206, Note_on_c, 8, 68, 127
1, 426342, Note_off_c, 8, 68, 127
1, 426342, Note_off_c, 10, 57, 127
1, 426348, Note_on_c, 8, 56, 127
1, 426348, Note_on_c, 5, 77, 127
1, 426484, Note_off_c, 5, 77, 127
1, 426484, Note_off_c, 8, 56, 127
1, 426496, Note_on_c, 6, 78, 127
1, 426496, Note_on_c, 10, 57, 127
1, 426496, Note_on_c, 6, 54, 127
1, 426769, Note_off_c, 6, 54, 127
1, 426769, Note_off_c, 10, 57, 127
1, 426770, Note_on_c, 12, 59, 127
1, 426770, Note_on_c, 8, 56, 127
1, 427039, Note_off_c, 6, 78, 127
1, 427043, Note_off_c, 8, 56, 127
1, 427043, Note_off_c, 12, 59, 127
1, 427044, Note_on_c, 1, 61, 127
1, 427044, Note_on_c, 10, 57, 127
1, 427317, Note_off_c, 10, 57, 127
1, 427317, Note_off_c, 1, 61, 127
1, 427318, Note_on_c, 1, 73, 127
1, 427318, Note_on_c, 6, 54, 127
1, 427318, Note_on_c, 10, 57, 127
1, 427591, Note_off_c, 10, 57, 127
1, 427591, Note_off_c, 6, 54, 127
1, 427591, Note_off_c, 1, 73, 127
1, 427592, Note_on_c, 2, 74, 127
1, 427592, Note_on_c, 12, 59, 127
1, 427865, Note_off_c, 2, 74, 127
1, 427866, Note_on_c, 2, 74, 127
1, 428139, Note_off_c, 2, 74, 127
1, 428139, Note_off_c, 12, 59, 127
1, 428140, Note_on_c, 2, 74, 127
1, 428140, Note_on_c, 12, 59, 127
1, 428140, Note_on_c, 5, 53, 127
1, 428413, Note_off_c, 2, 74, 127
1, 428414, Note_on_c, 2, 74, 127
1, 428687, Note_off_c, 2, 74, 127
1, 428687, Note_off_c, 5, 53, 127
1, 428687, Note_off_c, 12, 59, 127
1, 428688, Note_on_c, 1, 73, 127
1, 428688, Note_on_c, 6, 54, 127
1, 428688, Note_on_c, 10, 57, 127
1, 428824, Note_off_c, 1, 73, 127
1, 428825, Note_on_c, 12, 71, 127
1, 428961, Note_off_c, 12, 71, 127
1, 428962, Note_on_c, 10, 69, 127
1, 429098, Note_off_c, 10, 69, 127
1, 429099, Note_on_c, 8, 68, 127
1, 429235, Note_off_c, 8, 68, 127
1, 429236, Note_on_c, 6, 66, 127
1, 429373, Note_off_c, 10, 57, 127
1, 429373, Note_off_c, 6, 54, 127
1, 429509, Note_off_c, 6, 66, 127
1, 429510, Note_on_c, 10, 69, 127
1, 429510, Note_on_c, 6, 54, 127
1, 429510, Note_on_c, 1, 61, 127
1, 429783, Note_off_c, 1, 61, 127
1, 429783, Note_off_c, 6, 54, 127
1, 429783, Note_off_c, 10, 69, 127
1, 429784, Note_on_c, 8, 68, 127
1, 429784, Note_on_c, 1, 61, 127
1, 429784, Note_on_c, 4, 52, 127
1, 430058, Note_on_c, 1, 73, 127
1, 430184, Note_off_c, 8, 68, 127
1, 430331, Note_off_c, 4, 52, 127
1, 430332, Note_on_c, 6, 66, 127
1, 430332, Note_on_c, 2, 50, 127
1, 430458, Note_off_c, 1, 73, 127
1, 430605, Note_off_c, 1, 61, 127
1, 430606, Note_on_c, 2, 74, 127
1, 430606, Note_on_c, 12, 59, 127
1, 430732, Note_off_c, 6, 66, 127
1, 430875, Note_off_c, 2, 50, 127
1, 430879, Note_off_c, 12, 59, 127
1, 430879, Note_off_c, 2, 74, 127
1, 430880, Note_on_c, 5, 65, 127
1, 430880, Note_on_c, 1, 61, 127
1, 430880, Note_on_c, 1, 49, 127
1, 431153, Note_off_c, 5, 65, 127
1, 431154, Note_on_c, 3, 63, 127
1, 431290, Note_off_c, 3, 63, 127
1, 431291, Note_on_c, 5, 65, 127
1, 431420, Note_off_c, 1, 61, 127
1, 431427, Note_off_c, 5, 65, 127
1, 431428, Note_on_c, 1, 61, 127
1, 431701, Note_off_c, 1, 61, 127
1, 431701, Note_off_c, 1, 49, 127
1, 431702, Note_on_c, 1, 73, 127
1, 431838, Note_off_c, 1, 73, 127
1, 431839, Note_on_c, 2, 74, 127
1, 431975, Note_off_c, 2, 74, 127
1, 431976, Note_on_c, 4, 76, 127
1, 431976, Note_on_c, 6, 54, 127
1, 432112, Note_off_c, 6, 54, 127
1, 432113, Note_on_c, 8, 56, 127
1, 432180, Note_off_c, 8, 56, 127
1, 432181, Note_on_c, 11, 58, 127
1, 432248, Note_off_c, 11, 58, 127
1, 432248, Note_off_c, 4, 76, 127
1, 432249, Note_on_c, 6, 66, 127
1, 432249, Note_on_c, 8, 56, 127
1, 432385, Note_off_c, 8, 56, 127
1, 432386, Note_on_c, 12, 59, 127
1, 432522, Note_off_c, 12, 59, 127
1, 432522, Note_off_c, 6, 66, 127
1, 432523, Note_on_c, 6, 66, 127
1, 432523, Note_on_c, 11, 58, 127
1, 432659, Note_off_c, 11, 58, 127
1, 432660, Note_on_c, 1, 61, 127
1, 432796, Note_off_c, 1, 61, 127
1, 432796, Note_off_c, 6, 66, 127
1, 432797, Note_on_c, 4, 76, 127
1, 432797, Note_on_c, 6, 54, 127
1, 432933, Note_off_c, 6, 54, 127
1, 432934, Note_on_c, 11, 58, 127
1, 433070, Note_off_c, 11, 58, 127
1, 433070, Note_off_c, 4, 76, 127
1, 433071, Note_on_c, 6, 78, 127
1, 433071, Note_on_c, 12, 59, 127
1, 433138, Note_off_c, 6, 78, 127
1, 433139, Note_on_c, 4, 76, 127
1, 433206, Note_off_c, 4, 76, 127
1, 433207, Note_on_c, 6, 78, 127
1, 433274, Note_off_c, 6, 78, 127
1, 433275, Note_on_c, 4, 76, 127
1, 433342, Note_off_c, 4, 76, 127
1, 433342, Note_off_c, 12, 59, 127
1, 433343, Note_on_c, 2, 74, 127
1, 433343, Note_on_c, 12, 47, 127
1, 433616, Note_off_c, 2, 74, 127
1, 433617, Note_on_c, 2, 74, 127
1, 433886, Note_off_c, 12, 47, 127
1, 433890, Note_off_c, 2, 74, 127
1, 433891, Note_on_c, 12, 71, 127
1, 434027, Note_off_c, 12, 71, 127
1, 434028, Note_on_c, 1, 73, 127
1, 434164, Note_off_c, 1, 73, 127
1, 434165, Note_on_c, 2, 74, 127
1, 434165, Note_on_c, 4, 52, 127
1, 434286, Note_off_c, 4, 52, 127
1, 434287, Note_on_c, 6, 54, 127
1, 434363, Note_off_c, 6, 54, 127
1, 434363, Note_on_c, 8, 56, 127
1, 434437, Note_off_c, 2, 74, 127
1, 434438, Note_off_c, 8, 56, 127
1, 434438, Note_on_c, 4, 64, 127
1, 434438, Note_on_c, 6, 54, 127
1, 434574, Note_off_c, 6, 54, 127
1, 434575, Note_on_c, 10, 57, 127
1, 434711, Note_off_c, 10, 57, 127
1, 434711, Note_off_c, 4, 64, 127
1, 434712, Note_on_c, 4, 64, 127
1, 434712, Note_on_c, 8, 56, 127
1, 434848, Note_off_c, 8, 56, 127
1, 434849, Note_on_c, 12, 59, 127
1, 434985, Note_off_c, 12, 59, 127
1, 434985, Note_off_c, 4, 64, 127
1, 434986, Note_on_c, 2, 74, 127
1, 434986, Note_on_c, 4, 52, 127
1, 435122, Note_off_c, 4, 52, 127
1, 435123, Note_on_c, 8, 56, 127
1, 435259, Note_off_c, 8, 56, 127
1, 435259, Note_off_c, 2, 74, 127
1, 435260, Note_on_c, 4, 76, 127
1, 435260, Note_on_c, 10, 57, 127
1, 435327, Note_off_c, 4, 76, 127
1, 435328, Note_on_c, 2, 74, 127
1, 435395, Note_off_c, 2, 74, 127
1, 435396, Note_on_c, 4, 76, 127
1, 435463, Note_off_c, 4, 76, 127
1, 435464, Note_on_c, 2, 74, 127
1, 435531, Note_off_c, 2, 74, 127
1, 435532, Note_on_c, 1, 73, 127
1, 435532, Note_on_c, 10, 45, 127
1, 435658, Note_off_c, 10, 57, 127
1, 435805, Note_off_c, 1, 73, 127
1, 435806, Note_on_c, 1, 73, 127
1, 436075, Note_off_c, 10, 45, 127
1, 436079, Note_off_c, 1, 73, 127
1, 436080, Note_on_c, 10, 69, 127
1, 436216, Note_off_c, 10, 69, 127
1, 436217, Note_on_c, 12, 71, 127
1, 436353, Note_off_c, 12, 71, 127
1, 436354, Note_on_c, 1, 73, 127
1, 436354, Note_on_c, 2, 50, 127
1, 436461, Note_off_c, 2, 50, 127
1, 436462, Note_on_c, 4, 52, 127
1, 436543, Note_off_c, 4, 52, 127
1, 436544, Note_on_c, 6, 54, 127
1, 436625, Note_off_c, 6, 54, 127
1, 436625, Note_off_c, 1, 73, 127
1, 436626, Note_on_c, 2, 62, 127
1, 436626, Note_on_c, 4, 52, 127
1, 436762, Note_off_c, 4, 52, 127
1, 436763, Note_on_c, 8, 56, 127
1, 436899, Note_off_c, 8, 56, 127
1, 436899, Note_off_c, 2, 62, 127
1, 436900, Note_on_c, 2, 62, 127
1, 436900, Note_on_c, 6, 54, 127
1, 437036, Note_off_c, 6, 54, 127
1, 437037, Note_on_c, 10, 57, 127
1, 437173, Note_off_c, 10, 57, 127
1, 437173, Note_off_c, 2, 62, 127
1, 437174, Note_on_c, 1, 73, 127
1, 437174, Note_on_c, 2, 50, 127
1, 437310, Note_off_c, 2, 50, 127
1, 437311, Note_on_c, 6, 54, 127
1, 437447, Note_off_c, 6, 54, 127
1, 437447, Note_off_c, 1, 73, 127
1, 437448, Note_on_c, 2, 74, 127
1, 437448, Note_on_c, 8, 56, 127
1, 437515, Note_off_c, 2, 74, 127
1, 437516, Note_on_c, 1, 73, 127
1, 437583, Note_off_c, 1, 73, 127
1, 437584, Note_on_c, 2, 74, 127
1, 437651, Note_off_c, 2, 74, 127
1, 437652, Note_on_c, 1, 73, 127
1, 437719, Note_off_c, 1, 73, 127
1, 437720, Note_on_c, 12, 71, 127
1, 437720, Note_on_c, 8, 44, 127
1, 437989, Note_off_c, 8, 56, 127
1, 437993, Note_off_c, 12, 71, 127
1, 437994, Note_on_c, 12, 71, 127
1, 438263, Note_off_c, 8, 44, 127
1, 438267, Note_off_c, 12, 71, 127
1, 438268, Note_on_c, 8, 68, 127
1, 438404, Note_off_c, 8, 68, 127
1, 438405, Note_on_c, 10, 69, 127
1, 438541, Note_off_c, 10, 69, 127
1, 438542, Note_on_c, 12, 71, 127
1, 438542, Note_on_c, 1, 49, 127
1, 438632, Note_off_c, 1, 49, 127
1, 438633, Note_on_c, 3, 51, 127
1, 438723, Note_off_c, 3, 51, 127
1, 438724, Note_on_c, 5, 53, 127
1, 438814, Note_off_c, 5, 53, 127
1, 438814, Note_off_c, 12, 71, 127
1, 438815, Note_on_c, 1, 61, 127
1, 438815, Note_on_c, 3, 51, 127
1, 438951, Note_off_c, 3, 51, 127
1, 438952, Note_on_c, 6, 54, 127
1, 439088, Note_off_c, 6, 54, 127
1, 439088, Note_off_c, 1, 61, 127
1, 439089, Note_on_c, 1, 61, 127
1, 439089, Note_on_c, 5, 53, 127
1, 439225, Note_off_c, 5, 53, 127
1, 439226, Note_on_c, 8, 56, 127
1, 439362, Note_off_c, 8, 56, 127
1, 439362, Note_off_c, 1, 61, 127
1, 439363, Note_on_c, 12, 71, 127
1, 439363, Note_on_c, 1, 49, 127
1, 439499, Note_off_c, 1, 49, 127
1, 439500, Note_on_c, 5, 53, 127
1, 439636, Note_off_c, 5, 53, 127
1, 439636, Note_off_c, 12, 71, 127
1, 439637, Note_on_c, 1, 73, 127
1, 439637, Note_on_c, 6, 54, 127
1, 439704, Note_off_c, 1, 73, 127
1, 439705, Note_on_c, 12, 71, 127
1, 439772, Note_off_c, 12, 71, 127
1, 439773, Note_on_c, 1, 73, 127
1, 439840, Note_off_c, 1, 73, 127
1, 439841, Note_on_c, 12, 71, 127
1, 439908, Note_off_c, 12, 71, 127
1, 439909, Note_on_c, 10, 69, 127
1, 439909, Note_on_c, 6, 42, 127
1, 440182, Note_off_c, 10, 69, 127
1, 440183, Note_on_c, 10, 69, 127
1, 440319, Note_off_c, 6, 42, 127
1, 440320, Note_off_c, 6, 54, 127
1, 440320, Note_on_c, 6, 42, 127
1, 440456, Note_off_c, 6, 42, 127
1, 440456, Note_off_c, 10, 69, 127
1, 440457, Note_on_c, 1, 61, 127
1, 440457, Note_on_c, 8, 44, 127
1, 440593, Note_off_c, 8, 44, 127
1, 440593, Note_off_c, 1, 61, 127
1, 440594, Note_on_c, 4, 64, 127
1, 440594, Note_on_c, 10, 45, 127
1, 440730, Note_off_c, 10, 45, 127
1, 440730, Note_off_c, 4, 64, 127
1, 440731, Note_on_c, 3, 63, 127
1, 440731, Note_on_c, 12, 47, 127
1, 440867, Note_off_c, 12, 47, 127
1, 440867, Note_off_c, 3, 63, 127
1, 440868, Note_on_c, 1, 61, 127
1, 440868, Note_on_c, 10, 45, 127
1, 441004, Note_off_c, 10, 45, 127
1, 441004, Note_off_c, 1, 61, 127
1, 441005, Note_on_c, 3, 63, 127
1, 441005, Note_on_c, 12, 47, 127
1, 441141, Note_off_c, 12, 47, 127
1, 441141, Note_off_c, 3, 63, 127
1, 441142, Note_on_c, 4, 64, 127
1, 441142, Note_on_c, 1, 49, 127
1, 441278, Note_off_c, 1, 49, 127
1, 441278, Note_off_c, 4, 64, 127
1, 441279, Note_on_c, 3, 63, 127
1, 441279, Note_on_c, 12, 47, 127
1, 441415, Note_off_c, 12, 47, 127
1, 441415, Note_off_c, 3, 63, 127
1, 441416, Note_on_c, 4, 64, 127
1, 441416, Note_on_c, 1, 49, 127
1, 441552, Note_off_c, 1, 49, 127
1, 441552, Note_off_c, 4, 64, 127
1, 441553, Note_on_c, 1, 61, 127
1, 441553, Note_on_c, 12, 47, 127
1, 441689, Note_off_c, 12, 47, 127
1, 441689, Note_off_c, 1, 61, 127
1, 441690, Note_on_c, 3, 63, 127
1, 441690, Note_on_c, 10, 45, 127
1, 441826, Note_off_c, 10, 45, 127
1, 441826, Note_off_c, 3, 63, 127
1, 441827, Note_on_c, 5, 65, 127
1, 441827, Note_on_c, 8, 44, 127
1, 441963, Note_off_c, 8, 44, 127
1, 441963, Note_off_c, 5, 65, 127
1, 441964, Note_on_c, 3, 63, 127
1, 441964, Note_on_c, 12, 47, 127
1, 442100, Note_off_c, 12, 47, 127
1, 442100, Note_off_c, 3, 63, 127
1, 442101, Note_on_c, 5, 65, 127
1, 442101, Note_on_c, 10, 45, 127
1, 442237, Note_off_c, 10, 45, 127
1, 442237, Note_off_c, 5, 65, 127
1, 442238, Note_on_c, 6, 66, 127
1, 442238, Note_on_c, 8, 44, 127
1, 442374, Note_off_c, 8, 44, 127
1, 442374, Note_off_c, 6, 66, 127
1, 442375, Note_on_c, 5, 65, 127
1, 442375, Note_on_c, 1, 49, 127
1, 442511, Note_off_c, 1, 49, 127
1, 442511, Note_off_c, 5, 65, 127
1, 442512, Note_on_c, 6, 66, 127
1, 442512, Note_on_c, 2, 50, 127
1, 442648, Note_off_c, 2, 50, 127
1, 442648, Note_off_c, 6, 66, 127
1, 442649, Note_on_c, 3, 63, 127
1, 442649, Note_on_c, 1, 49, 127
1, 442785, Note_off_c, 1, 49, 127
1, 442785, Note_off_c, 3, 63, 127
1, 442786, Note_on_c, 5, 65, 127
1, 442786, Note_on_c, 12, 47, 127
1, 442922, Note_off_c, 12, 47, 127
1, 442922, Note_off_c, 5, 65, 127
1, 442923, Note_on_c, 6, 66, 127
1, 442923, Note_on_c, 10, 45, 127
1, 443059, Note_off_c, 6, 66, 127
1, 443060, Note_on_c, 5, 65, 127
1, 443180, Note_off_c, 10, 45, 127
1, 443196, Note_off_c, 5, 65, 127
1, 443197, Note_on_c, 6, 66, 127
1, 443197, Note_on_c, 6, 42, 127
1, 443333, Note_off_c, 6, 66, 127
1, 443334, Note_on_c, 8, 68, 127
1, 443454, Note_off_c, 6, 42, 127
1, 443470, Note_off_c, 8, 68, 127
1, 443471, Note_on_c, 6, 66, 127
1, 443471, Note_on_c, 6, 54, 127
1, 443607, Note_off_c, 6, 66, 127
1, 443608, Note_on_c, 8, 68, 127
1, 443744, Note_off_c, 8, 68, 127
1, 443745, Note_on_c, 5, 65, 127
1, 443745, Note_on_c, 8, 56, 127
1, 443881, Note_off_c, 8, 56, 127
1, 443881, Note_off_c, 5, 65, 127
1, 443882, Note_on_c, 6, 66, 127
1, 443882, Note_on_c, 10, 57, 127
1, 444018, Note_off_c, 10, 57, 127
1, 444018, Note_off_c, 6, 66, 127
1, 444019, Note_on_c, 8, 68, 127
1, 444019, Note_on_c, 12, 59, 127
1, 444155, Note_off_c, 8, 68, 127
1, 444156, Note_on_c, 6, 66, 127
1, 444292, Note_off_c, 6, 66, 127
1, 444292, Note_off_c, 6, 54, 127
1, 444293, Note_on_c, 8, 68, 127
1, 444293, Note_on_c, 8, 56, 127
1, 444429, Note_off_c, 8, 68, 127
1, 444430, Note_on_c, 10, 69, 127
1, 444561, Note_off_c, 12, 59, 127
1, 444565, Note_off_c, 10, 69, 127
1, 444565, Note_off_c, 8, 56, 127
1, 444566, Note_on_c, 8, 68, 127
1, 444566, Note_on_c, 1, 61, 127
1, 444566, Note_on_c, 5, 53, 127
1, 444702, Note_off_c, 8, 68, 127
1, 444703, Note_on_c, 10, 69, 127
1, 444839, Note_off_c, 10, 69, 127
1, 444839, Note_off_c, 5, 53, 127
1, 444840, Note_on_c, 6, 66, 127
1, 444840, Note_on_c, 1, 49, 127
1, 444976, Note_off_c, 6, 66, 127
1, 444977, Note_on_c, 8, 68, 127
1, 445113, Note_off_c, 8, 68, 127
1, 445113, Note_off_c, 1, 49, 127
1, 445114, Note_on_c, 10, 69, 127
1, 445114, Note_on_c, 6, 54, 127
1, 445250, Note_off_c, 10, 69, 127
1, 445251, Note_on_c, 8, 68, 127
1, 445387, Note_off_c, 8, 68, 127
1, 445387, Note_off_c, 1, 61, 127
1, 445388, Note_on_c, 10, 69, 127
1, 445388, Note_on_c, 10, 57, 127
1, 445524, Note_off_c, 10, 69, 127
1, 445525, Note_on_c, 12, 71, 127
1, 445656, Note_off_c, 6, 54, 127
1, 445660, Note_off_c, 12, 71, 127
1, 445661, Note_on_c, 10, 69, 127
1, 445661, Note_on_c, 1, 49, 127
1, 445797, Note_off_c, 10, 69, 127
1, 445798, Note_on_c, 12, 71, 127
1, 445929, Note_off_c, 10, 57, 127
1, 445933, Note_off_c, 12, 71, 127
1, 445934, Note_on_c, 8, 68, 127
1, 445934, Note_on_c, 4, 52, 127
1, 446070, Note_off_c, 8, 68, 127
1, 446071, Note_on_c, 10, 69, 127
1, 446202, Note_off_c, 1, 49, 127
1, 446206, Note_off_c, 10, 69, 127
1, 446206, Note_off_c, 4, 52, 127
1, 446207, Note_on_c, 12, 71, 127
1, 446207, Note_on_c, 2, 50, 127
1, 446207, Note_on_c, 6, 54, 127
1, 446343, Note_off_c, 12, 71, 127
1, 446344, Note_on_c, 10, 69, 127
1, 446480, Note_off_c, 10, 69, 127
1, 446480, Note_off_c, 6, 54, 127
1, 446481, Note_on_c, 12, 71, 127
1, 446481, Note_on_c, 10, 57, 127
1, 446617, Note_off_c, 12, 71, 127
1, 446618, Note_on_c, 1, 73, 127
1, 446749, Note_off_c, 2, 50, 127
1, 446753, Note_off_c, 1, 73, 127
1, 446754, Note_on_c, 12, 71, 127
1, 446754, Note_on_c, 4, 52, 127
1, 446890, Note_off_c, 12, 71, 127
1, 446891, Note_on_c, 1, 73, 127
1, 447022, Note_off_c, 10, 57, 127
1, 447026, Note_off_c, 1, 73, 127
1, 447027, Note_on_c, 10, 69, 127
1, 447027, Note_on_c, 8, 56, 127
1, 447163, Note_off_c, 10, 69, 127
1, 447164, Note_on_c, 12, 71, 127
1, 447295, Note_off_c, 4, 52, 127
1, 447299, Note_off_c, 12, 71, 127
1, 447300, Note_on_c, 1, 73, 127
1, 447300, Note_on_c, 10, 45, 127
1, 447426, Note_off_c, 8, 56, 127
1, 447573, Note_off_c, 1, 73, 127
1, 447574, Note_on_c, 2, 74, 127
1, 447574, Note_on_c, 6, 54, 127
1, 447710, Note_off_c, 2, 74, 127
1, 447711, Note_on_c, 1, 73, 127
1, 447842, Note_off_c, 10, 45, 127
1, 447846, Note_off_c, 1, 73, 127
1, 447847, Note_on_c, 12, 71, 127
1, 447847, Note_on_c, 2, 50, 127
1, 447983, Note_off_c, 12, 71, 127
1, 447984, Note_on_c, 10, 69, 127
1, 448115, Note_off_c, 6, 54, 127
1, 448119, Note_off_c, 10, 69, 127
1, 448120, Note_on_c, 8, 68, 127
1, 448120, Note_on_c, 12, 59, 127
1, 448256, Note_off_c, 8, 68, 127
1, 448257, Note_on_c, 6, 66, 127
1, 448388, Note_off_c, 2, 50, 127
1, 448392, Note_off_c, 6, 66, 127
1, 448392, Note_off_c, 12, 59, 127
1, 448393, Note_on_c, 5, 65, 127
1, 448393, Note_on_c, 1, 49, 127
1, 448530, Note_on_c, 12, 59, 127
1, 448666, Note_off_c, 12, 59, 127
1, 448666, Note_off_c, 5, 65, 127
1, 448667, Note_on_c, 1, 61, 127
1, 448667, Note_on_c, 10, 57, 127
1, 448803, Note_off_c, 10, 57, 127
1, 448804, Note_on_c, 8, 56, 127
1, 448935, Note_off_c, 1, 49, 127
1, 448939, Note_off_c, 8, 56, 127
1, 448939, Note_off_c, 1, 61, 127
1, 448940, Note_on_c, 6, 66, 127
1, 448940, Note_on_c, 6, 54, 127
1, 449076, Note_off_c, 6, 54, 127
1, 449077, Note_on_c, 4, 52, 127
1, 449213, Note_off_c, 4, 52, 127
1, 449214, Note_on_c, 1, 61, 127
1, 449214, Note_on_c, 10, 57, 127
1, 449214, Note_on_c, 2, 50, 127
1, 449350, Note_off_c, 2, 50, 127
1, 449351, Note_on_c, 1, 49, 127
1, 449487, Note_off_c, 1, 49, 127
1, 449487, Note_off_c, 10, 57, 127
1, 449487, Note_off_c, 1, 61, 127
1, 449488, Note_on_c, 2, 62, 127
1, 449488, Note_on_c, 12, 59, 127
1, 449488, Note_on_c, 8, 56, 127
1, 449488, Note_on_c, 12, 47, 127
1, 449624, Note_off_c, 12, 47, 127
1, 449625, Note_on_c, 10, 45, 127
1, 449761, Note_off_c, 10, 45, 127
1, 449762, Note_on_c, 12, 47, 127
1, 449898, Note_off_c, 12, 47, 127
1, 449899, Note_on_c, 8, 44, 127
1, 450030, Note_off_c, 8, 56, 127
1, 450034, Note_off_c, 8, 44, 127
1, 450034, Note_off_c, 12, 59, 127
1, 450034, Note_off_c, 2, 62, 127
1, 450034, Note_off_c, 6, 66, 127
1, 450035, Note_on_c, 1, 61, 127
1, 450035, Note_on_c, 5, 65, 127
1, 450035, Note_on_c, 8, 56, 127
1, 450035, Note_on_c, 1, 49, 127
1, 450171, Note_off_c, 1, 49, 127
1, 450172, Note_on_c, 12, 47, 127
1, 450308, Note_off_c, 12, 47, 127
1, 450309, Note_on_c, 1, 49, 127
1, 450445, Note_off_c, 1, 49, 127
1, 450446, Note_on_c, 1, 37, 127
1, 450577, Note_off_c, 8, 56, 127
1, 450581, Note_off_c, 1, 37, 127
1, 450581, Note_off_c, 5, 65, 127
1, 450581, Note_off_c, 1, 61, 127
1, 450582, Note_on_c, 10, 57, 127
1, 450582, Note_on_c, 6, 66, 127
1, 450582, Note_on_c, 1, 61, 127
1, 450582, Note_on_c, 6, 42, 127
1, 450855, Note_off_c, 1, 61, 127
1, 450855, Note_off_c, 6, 66, 127
1, 450855, Note_off_c, 10, 57, 127
1, 450872, Note_on_c, 1, 73, 127
1, 451125, Note_off_c, 6, 42, 127
1, 451145, Note_off_c, 1, 73, 127
1, 451146, Note_on_c, 2, 74, 127
1, 451283, Note_on_c, 6, 54, 127
1, 451419, Note_off_c, 6, 54, 127
1, 451420, Note_on_c, 10, 57, 127
1, 451420, Note_on_c, 10, 69, 127
1, 451431, Note_off_c, 2, 74, 127
1, 451555, Note_off_c, 10, 57, 127
1, 451556, Note_on_c, 2, 62, 127
1, 451676, Note_off_c, 10, 69, 127
1, 451692, Note_off_c, 2, 62, 127
1, 451693, Note_on_c, 7, 55, 127
1, 451693, Note_on_c, 12, 71, 127
1, 451829, Note_off_c, 7, 55, 127
1, 451830, Note_on_c, 12, 59, 127
1, 451966, Note_off_c, 12, 59, 127
1, 451967, Note_on_c, 2, 62, 127
1, 451967, Note_on_c, 7, 67, 127
1, 451978, Note_off_c, 12, 71, 127
1, 452102, Note_off_c, 2, 62, 127
1, 452103, Note_on_c, 7, 55, 127
1, 452223, Note_off_c, 7, 67, 127
1, 452239, Note_off_c, 7, 55, 127
1, 452240, Note_on_c, 10, 57, 127
1, 452240, Note_on_c, 4, 64, 127
1, 452376, Note_off_c, 10, 57, 127
1, 452377, Note_on_c, 1, 61, 127
1, 452513, Note_off_c, 1, 61, 127
1, 452514, Note_on_c, 2, 62, 127
1, 452514, Note_on_c, 10, 69, 127
1, 452525, Note_off_c, 4, 64, 127
1, 452649, Note_off_c, 2, 62, 127
1, 452650, Note_on_c, 1, 61, 127
1, 452770, Note_off_c, 10, 69, 127
1, 452786, Note_off_c, 1, 61, 127
1, 452787, Note_on_c, 2, 62, 127
1, 452787, Note_on_c, 6, 66, 127
1, 452923, Note_off_c, 2, 62, 127
1, 452924, Note_on_c, 4, 64, 127
1, 453055, Note_off_c, 6, 66, 127
1, 453060, Note_off_c, 4, 64, 127
1, 453061, Note_on_c, 6, 66, 127
1, 453061, Note_on_c, 2, 74, 127
1, 453198, Note_on_c, 4, 64, 127
1, 453329, Note_off_c, 6, 66, 127
1, 453333, Note_off_c, 4, 64, 127
1, 453334, Note_on_c, 2, 62, 127
1, 453334, Note_on_c, 6, 66, 127
1, 453470, Note_off_c, 2, 62, 127
1, 453471, Note_on_c, 10, 57, 127
1, 453602, Note_off_c, 2, 74, 127
1, 453606, Note_off_c, 10, 57, 127
1, 453607, Note_on_c, 7, 55, 127
1, 453607, Note_on_c, 2, 74, 127
1, 453743, Note_off_c, 7, 55, 127
1, 453744, Note_on_c, 6, 54, 127
1, 453875, Note_off_c, 6, 66, 127
1, 453879, Note_off_c, 6, 54, 127
1, 453880, Note_on_c, 4, 52, 127
1, 453880, Note_on_c, 7, 67, 127
1, 454016, Note_off_c, 4, 52, 127
1, 454017, Note_on_c, 2, 50, 127
1, 454148, Note_off_c, 2, 74, 127
1, 454152, Note_off_c, 2, 50, 127
1, 454153, Note_on_c, 1, 49, 127
1, 454153, Note_on_c, 2, 74, 127
1, 454289, Note_off_c, 1, 49, 127
1, 454290, Note_on_c, 12, 47, 127
1, 454421, Note_off_c, 7, 67, 127
1, 454425, Note_off_c, 12, 47, 127
1, 454426, Note_on_c, 10, 45, 127
1, 454426, Note_on_c, 10, 69, 127
1, 454562, Note_off_c, 10, 45, 127
1, 454563, Note_on_c, 7, 43, 127
1, 454694, Note_off_c, 2, 74, 127
1, 454698, Note_off_c, 7, 43, 127
1, 454699, Note_on_c, 6, 42, 127
1, 454699, Note_on_c, 1, 73, 127
1, 454835, Note_off_c, 6, 42, 127
1, 454836, Note_on_c, 4, 40, 127
1, 454967, Note_off_c, 10, 69, 127
1, 454971, Note_off_c, 4, 40, 127
1, 454971, Note_off_c, 1, 73, 127
1, 454972, Note_on_c, 2, 38, 127
1, 454972, Note_on_c, 2, 74, 127
1, 455109, Note_on_c, 10, 69, 127
1, 455243, Note_off_c, 2, 74, 127
1, 455244, Note_off_c, 10, 69, 127
1, 455244, Note_off_c, 2, 38, 127
1, 455245, Note_on_c, 6, 54, 127
1, 455245, Note_on_c, 2, 74, 127
1, 455381, Note_off_c, 6, 54, 127
1, 455382, Note_on_c, 4, 52, 127
1, 455382, Note_on_c, 10, 69, 127
1, 455516, Note_off_c, 2, 74, 127
1, 455517, Note_off_c, 10, 69, 127
1, 455517, Note_off_c, 4, 52, 127
1, 455518, Note_on_c, 6, 54, 127
1, 455518, Note_on_c, 2, 74, 127
1, 455655, Note_on_c, 10, 69, 127
1, 455789, Note_off_c, 2, 74, 127
1, 455790, Note_off_c, 10, 69, 127
1, 455790, Note_off_c, 6, 54, 127
1, 455791, Note_on_c, 2, 50, 127
1, 455791, Note_on_c, 2, 74, 127
1, 455927, Note_off_c, 2, 74, 127
1, 455928, Note_on_c, 10, 69, 127
1, 456064, Note_off_c, 10, 69, 127
1, 456064, Note_off_c, 2, 50, 127
1, 456065, Note_on_c, 10, 45, 127
1, 456065, Note_on_c, 0, 72, 127
1, 456202, Note_on_c, 10, 69, 127
1, 456336, Note_off_c, 0, 72, 127
1, 456337, Note_off_c, 10, 69, 127
1, 456337, Note_off_c, 10, 45, 127
1, 456338, Note_on_c, 10, 57, 127
1, 456338, Note_on_c, 0, 72, 127
1, 456474, Note_off_c, 10, 57, 127
1, 456475, Note_on_c, 7, 55, 127
1, 456475, Note_on_c, 10, 69, 127
1, 456609, Note_off_c, 0, 72, 127
1, 456610, Note_off_c, 10, 69, 127
1, 456610, Note_off_c, 7, 55, 127
1, 456611, Note_on_c, 10, 57, 127
1, 456611, Note_on_c, 0, 72, 127
1, 456748, Note_on_c, 10, 69, 127
1, 456882, Note_off_c, 0, 72, 127
1, 456883, Note_off_c, 10, 69, 127
1, 456883, Note_off_c, 10, 57, 127
1, 456884, Note_on_c, 6, 54, 127
1, 456884, Note_on_c, 0, 72, 127
1, 457021, Note_on_c, 10, 69, 127
1, 457155, Note_off_c, 0, 72, 127
1, 457156, Note_off_c, 10, 69, 127
1, 457156, Note_off_c, 6, 54, 127
1, 457157, Note_on_c, 2, 50, 127
1, 457157, Note_on_c, 0, 72, 127
1, 457294, Note_on_c, 6, 66, 127
1, 457428, Note_off_c, 0, 72, 127
1, 457429, Note_off_c, 6, 66, 127
1, 457429, Note_off_c, 2, 50, 127
1, 457430, Note_on_c, 2, 62, 127
1, 457430, Note_on_c, 0, 72, 127
1, 457566, Note_off_c, 2, 62, 127
1, 457567, Note_on_c, 0, 60, 127
1, 457567, Note_on_c, 6, 66, 127
1, 457701, Note_off_c, 0, 72, 127
1, 457702, Note_off_c, 6, 66, 127
1, 457702, Note_off_c, 0, 60, 127
1, 457703, Note_on_c, 2, 62, 127
1, 457703, Note_on_c, 0, 72, 127
1, 457840, Note_on_c, 6, 66, 127
1, 457974, Note_off_c, 0, 72, 127
1, 457975, Note_off_c, 6, 66, 127
1, 457975, Note_off_c, 2, 62, 127
1, 457976, Note_on_c, 2, 50, 127
1, 457976, Note_on_c, 0, 72, 127
1, 458112, Note_off_c, 0, 72, 127
1, 458113, Note_on_c, 6, 66, 127
1, 458249, Note_off_c, 6, 66, 127
1, 458249, Note_off_c, 2, 50, 127
1, 458250, Note_on_c, 7, 55, 127
1, 458250, Note_on_c, 12, 71, 127
1, 458387, Note_on_c, 7, 67, 127
1, 458521, Note_off_c, 12, 71, 127
1, 458522, Note_off_c, 7, 67, 127
1, 458522, Note_off_c, 7, 55, 127
1, 458523, Note_on_c, 6, 54, 127
1, 458523, Note_on_c, 12, 71, 127
1, 458659, Note_off_c, 6, 54, 127
1, 458660, Note_on_c, 4, 52, 127
1, 458660, Note_on_c, 7, 67, 127
1, 458794, Note_off_c, 12, 71, 127
1, 458795, Note_off_c, 7, 67, 127
1, 458795, Note_off_c, 4, 52, 127
1, 458796, Note_on_c, 2, 50, 127
1, 458796, Note_on_c, 12, 71, 127
1, 458932, Note_off_c, 2, 50, 127
1, 458933, Note_on_c, 0, 48, 127
1, 458933, Note_on_c, 7, 67, 127
1, 459067, Note_off_c, 12, 71, 127
1, 459068, Note_off_c, 7, 67, 127
1, 459068, Note_off_c, 0, 48, 127
1, 459069, Note_on_c, 12, 47, 127
1, 459069, Note_on_c, 12, 71, 127
1, 459205, Note_off_c, 12, 71, 127
1, 459205, Note_off_c, 12, 47, 127
1, 459206, Note_on_c, 10, 45, 127
1, 459206, Note_on_c, 7, 67, 127
1, 459342, Note_off_c, 7, 67, 127
1, 459342, Note_off_c, 10, 45, 127
1, 459343, Note_on_c, 8, 44, 127
1, 459343, Note_on_c, 4, 76, 127
1, 459480, Note_on_c, 12, 71, 127
1, 459614, Note_off_c, 4, 76, 127
1, 459615, Note_off_c, 12, 71, 127
1, 459615, Note_off_c, 8, 44, 127
1, 459616, Note_on_c, 8, 56, 127
1, 459616, Note_on_c, 4, 76, 127
1, 459752, Note_off_c, 8, 56, 127
1, 459753, Note_on_c, 6, 54, 127
1, 459753, Note_on_c, 12, 71, 127
1, 459887, Note_off_c, 4, 76, 127
1, 459888, Note_off_c, 12, 71, 127
1, 459888, Note_off_c, 6, 54, 127
1, 459889, Note_on_c, 8, 56, 127
1, 459889, Note_on_c, 4, 76, 127
1, 460026, Note_on_c, 12, 71, 127
1, 460160, Note_off_c, 4, 76, 127
1, 460161, Note_off_c, 12, 71, 127
1, 460161, Note_off_c, 8, 56, 127
1, 460162, Note_on_c, 4, 52, 127
1, 460162, Note_on_c, 4, 76, 127
1, 460298, Note_off_c, 4, 76, 127
1, 460299, Note_on_c, 12, 71, 127
1, 460435, Note_off_c, 12, 71, 127
1, 460435, Note_off_c, 4, 52, 127
1, 460436, Note_on_c, 12, 47, 127
1, 460436, Note_on_c, 2, 74, 127
1, 460573, Note_on_c, 12, 71, 127
1, 460707, Note_off_c, 2, 74, 127
1, 460708, Note_off_c, 12, 71, 127
1, 460708, Note_off_c, 12, 47, 127
1, 460709, Note_on_c, 12, 59, 127
1, 460709, Note_on_c, 2, 74, 127
1, 460845, Note_off_c, 12, 59, 127
1, 460846, Note_on_c, 10, 57, 127
1, 460846, Note_on_c, 12, 71, 127
1, 460980, Note_off_c, 2, 74, 127
1, 460981, Note_off_c, 12, 71, 127
1, 460981, Note_off_c, 10, 57, 127
1, 460982, Note_on_c, 12, 59, 127
1, 460982, Note_on_c, 2, 74, 127
1, 461119, Note_on_c, 12, 71, 127
1, 461253, Note_off_c, 2, 74, 127
1, 461254, Note_off_c, 12, 71, 127
1, 461254, Note_off_c, 12, 59, 127
1, 461255, Note_on_c, 8, 56, 127
1, 461255, Note_on_c, 2, 74, 127
1, 461391, Note_off_c, 2, 74, 127
1, 461392, Note_on_c, 12, 71, 127
1, 461528, Note_off_c, 12, 71, 127
1, 461528, Note_off_c, 8, 56, 127
1, 461529, Note_on_c, 4, 52, 127
1, 461529, Note_on_c, 2, 74, 127
1, 461666, Note_on_c, 8, 68, 127
1, 461800, Note_off_c, 2, 74, 127
1, 461801, Note_off_c, 8, 68, 127
1, 461801, Note_off_c, 4, 52, 127
1, 461802, Note_on_c, 4, 64, 127
1, 461802, Note_on_c, 2, 74, 127
1, 461938, Note_off_c, 4, 64, 127
1, 461939, Note_on_c, 2, 62, 127
1, 461939, Note_on_c, 8, 68, 127
1, 462073, Note_off_c, 2, 74, 127
1, 462074, Note_off_c, 8, 68, 127
1, 462074, Note_off_c, 2, 62, 127
1, 462075, Note_on_c, 4, 64, 127
1, 462075, Note_on_c, 2, 74, 127
1, 462212, Note_on_c, 8, 68, 127
1, 462346, Note_off_c, 2, 74, 127
1, 462347, Note_off_c, 8, 68, 127
1, 462347, Note_off_c, 4, 64, 127
1, 462348, Note_on_c, 4, 52, 127
1, 462348, Note_on_c, 2, 74, 127
1, 462484, Note_off_c, 2, 74, 127
1, 462485, Note_on_c, 8, 68, 127
1, 462621, Note_off_c, 8, 68, 127
1, 462621, Note_off_c, 4, 52, 127
1, 462622, Note_on_c, 10, 57, 127
1, 462622, Note_on_c, 1, 73, 127
1, 462759, Note_on_c, 10, 69, 127
1, 462893, Note_off_c, 1, 73, 127
1, 462894, Note_off_c, 10, 69, 127
1, 462894, Note_off_c, 10, 57, 127
1, 462895, Note_on_c, 8, 56, 127
1, 462895, Note_on_c, 1, 73, 127
1, 463031, Note_off_c, 8, 56, 127
1, 463032, Note_on_c, 6, 54, 127
1, 463032, Note_on_c, 10, 69, 127
1, 463166, Note_off_c, 1, 73, 127
1, 463167, Note_off_c, 10, 69, 127
1, 463167, Note_off_c, 6, 54, 127
1, 463168, Note_on_c, 4, 52, 127
1, 463168, Note_on_c, 1, 73, 127
1, 463304, Note_off_c, 4, 52, 127
1, 463305, Note_on_c, 2, 50, 127
1, 463305, Note_on_c, 10, 69, 127
1, 463439, Note_off_c, 1, 73, 127
1, 463440, Note_off_c, 10, 69, 127
1, 463440, Note_off_c, 2, 50, 127
1, 463441, Note_on_c, 1, 49, 127
1, 463441, Note_on_c, 1, 73, 127
1, 463577, Note_off_c, 1, 73, 127
1, 463577, Note_off_c, 1, 49, 127
1, 463578, Note_on_c, 12, 47, 127
1, 463578, Note_on_c, 10, 69, 127
1, 463714, Note_off_c, 10, 69, 127
1, 463714, Note_off_c, 12, 47, 127
1, 463715, Note_on_c, 11, 46, 127
1, 463715, Note_on_c, 6, 78, 127
1, 463852, Note_on_c, 1, 73, 127
1, 463986, Note_off_c, 6, 78, 127
1, 463987, Note_off_c, 1, 73, 127
1, 463987, Note_off_c, 11, 46, 127
1, 463988, Note_on_c, 11, 58, 127
1, 463988, Note_on_c, 6, 78, 127
1, 464124, Note_off_c, 11, 58, 127
1, 464125, Note_on_c, 8, 56, 127
1, 464125, Note_on_c, 1, 73, 127
1, 464259, Note_off_c, 6, 78, 127
1, 464260, Note_off_c, 1, 73, 127
1, 464260, Note_off_c, 8, 56, 127
1, 464261, Note_on_c, 11, 58, 127
1, 464261, Note_on_c, 6, 78, 127
1, 464398, Note_on_c, 1, 73, 127
1, 464532, Note_off_c, 6, 78, 127
1, 464533, Note_off_c, 1, 73, 127
1, 464533, Note_off_c, 11, 58, 127
1, 464534, Note_on_c, 6, 54, 127
1, 464534, Note_on_c, 6, 78, 127
1, 464670, Note_off_c, 6, 78, 127
1, 464671, Note_on_c, 1, 73, 127
1, 464807, Note_off_c, 1, 73, 127
1, 464807, Note_off_c, 6, 54, 127
1, 464808, Note_on_c, 1, 49, 127
1, 464808, Note_on_c, 4, 76, 127
1, 464945, Note_on_c, 1, 73, 127
1, 465079, Note_off_c, 4, 76, 127
1, 465080, Note_off_c, 1, 73, 127
1, 465080, Note_off_c, 1, 49, 127
1, 465081, Note_on_c, 1, 61, 127
1, 465081, Note_on_c, 4, 76, 127
1, 465217, Note_off_c, 1, 61, 127
1, 465218, Note_on_c, 12, 59, 127
1, 465218, Note_on_c, 1, 73, 127
1, 465352, Note_off_c, 4, 76, 127
1, 465353, Note_off_c, 1, 73, 127
1, 465353, Note_off_c, 12, 59, 127
1, 465354, Note_on_c, 1, 61, 127
1, 465354, Note_on_c, 4, 76, 127
1, 465491, Note_on_c, 1, 73, 127
1, 465625, Note_off_c, 4, 76, 127
1, 465626, Note_off_c, 1, 73, 127
1, 465626, Note_off_c, 1, 61, 127
1, 465627, Note_on_c, 11, 58, 127
1, 465627, Note_on_c, 4, 76, 127
1, 465763, Note_off_c, 4, 76, 127
1, 465764, Note_on_c, 1, 73, 127
1, 465900, Note_off_c, 1, 73, 127
1, 465900, Note_off_c, 11, 58, 127
1, 465901, Note_on_c, 6, 54, 127
1, 465901, Note_on_c, 4, 76, 127
1, 466038, Note_on_c, 11, 70, 127
1, 466172, Note_off_c, 4, 76, 127
1, 466173, Note_off_c, 11, 70, 127
1, 466173, Note_off_c, 6, 54, 127
1, 466174, Note_on_c, 6, 66, 127
1, 466174, Note_on_c, 4, 76, 127
1, 466310, Note_off_c, 6, 66, 127
1, 466311, Note_on_c, 4, 64, 127
1, 466311, Note_on_c, 11, 70, 127
1, 466445, Note_off_c, 4, 76, 127
1, 466446, Note_off_c, 11, 70, 127
1, 466446, Note_off_c, 4, 64, 127
1, 466447, Note_on_c, 6, 66, 127
1, 466447, Note_on_c, 4, 76, 127
1, 466584, Note_on_c, 11, 70, 127
1, 466718, Note_off_c, 4, 76, 127
1, 466719, Note_off_c, 11, 70, 127
1, 466719, Note_off_c, 6, 66, 127
1, 466720, Note_on_c, 6, 54, 127
1, 466720, Note_on_c, 4, 76, 127
1, 466856, Note_off_c, 4, 76, 127
1, 466857, Note_on_c, 11, 70, 127
1, 466993, Note_off_c, 11, 70, 127
1, 466993, Note_off_c, 6, 54, 127
1, 466994, Note_on_c, 12, 59, 127
1, 466994, Note_on_c, 2, 74, 127
1, 467131, Note_on_c, 12, 71, 127
1, 467265, Note_off_c, 2, 74, 127
1, 467266, Note_off_c, 12, 71, 127
1, 467266, Note_off_c, 12, 59, 127
1, 467267, Note_on_c, 11, 58, 127
1, 467267, Note_on_c, 2, 74, 127
1, 467403, Note_off_c, 11, 58, 127
1, 467404, Note_on_c, 8, 56, 127
1, 467404, Note_on_c, 12, 71, 127
1, 467538, Note_off_c, 2, 74, 127
1, 467539, Note_off_c, 12, 71, 127
1, 467539, Note_off_c, 8, 56, 127
1, 467540, Note_on_c, 6, 54, 127
1, 467540, Note_on_c, 2, 74, 127
1, 467676, Note_off_c, 6, 54, 127
1, 467677, Note_on_c, 4, 52, 127
1, 467677, Note_on_c, 12, 71, 127
1, 467811, Note_off_c, 2, 74, 127
1, 467812, Note_off_c, 12, 71, 127
1, 467812, Note_off_c, 4, 52, 127
1, 467813, Note_on_c, 2, 50, 127
1, 467813, Note_on_c, 2, 74, 127
1, 467949, Note_off_c, 2, 74, 127
1, 467949, Note_off_c, 2, 50, 127
1, 467950, Note_on_c, 1, 49, 127
1, 467950, Note_on_c, 12, 71, 127
1, 468086, Note_off_c, 12, 71, 127
1, 468086, Note_off_c, 1, 49, 127
1, 468087, Note_on_c, 12, 47, 127
1, 468087, Note_on_c, 7, 79, 127
1, 468224, Note_on_c, 2, 74, 127
1, 468358, Note_off_c, 7, 79, 127
1, 468359, Note_off_c, 2, 74, 127
1, 468359, Note_off_c, 12, 47, 127
1, 468360, Note_on_c, 12, 59, 127
1, 468360, Note_on_c, 7, 79, 127
1, 468496, Note_off_c, 12, 59, 127
1, 468497, Note_on_c, 11, 58, 127
1, 468497, Note_on_c, 2, 74, 127
1, 468631, Note_off_c, 7, 79, 127
1, 468632, Note_off_c, 2, 74, 127
1, 468632, Note_off_c, 11, 58, 127
1, 468633, Note_on_c, 12, 59, 127
1, 468633, Note_on_c, 7, 79, 127
1, 468770, Note_on_c, 2, 74, 127
1, 468904, Note_off_c, 7, 79, 127
1, 468905, Note_off_c, 2, 74, 127
1, 468905, Note_off_c, 12, 59, 127
1, 468906, Note_on_c, 7, 55, 127
1, 468906, Note_on_c, 7, 79, 127
1, 469042, Note_off_c, 7, 79, 127
1, 469043, Note_on_c, 2, 74, 127
1, 469179, Note_off_c, 2, 74, 127
1, 469179, Note_off_c, 7, 55, 127
1, 469180, Note_on_c, 4, 52, 127
1, 469180, Note_on_c, 7, 79, 127
1, 469317, Note_on_c, 12, 71, 127
1, 469451, Note_off_c, 7, 79, 127
1, 469452, Note_off_c, 12, 71, 127
1, 469452, Note_off_c, 4, 52, 127
1, 469453, Note_on_c, 4, 64, 127
1, 469453, Note_on_c, 7, 79, 127
1, 469589, Note_off_c, 4, 64, 127
1, 469590, Note_on_c, 2, 62, 127
1, 469590, Note_on_c, 12, 71, 127
1, 469724, Note_off_c, 7, 79, 127
1, 469725, Note_off_c, 12, 71, 127
1, 469725, Note_off_c, 2, 62, 127
1, 469726, Note_on_c, 4, 64, 127
1, 469726, Note_on_c, 7, 79, 127
1, 469863, Note_on_c, 12, 71, 127
1, 469997, Note_off_c, 7, 79, 127
1, 469998, Note_off_c, 12, 71, 127
1, 469998, Note_off_c, 4, 64, 127
1, 469999, Note_on_c, 1, 61, 127
1, 469999, Note_on_c, 7, 79, 127
1, 470135, Note_off_c, 7, 79, 127
1, 470136, Note_on_c, 12, 71, 127
1, 470272, Note_off_c, 12, 71, 127
1, 470272, Note_off_c, 1, 61, 127
1, 470273, Note_on_c, 6, 54, 127
1, 470273, Note_on_c, 11, 70, 127
1, 470410, Note_on_c, 4, 64, 127
1, 470544, Note_off_c, 11, 70, 127
1, 470545, Note_off_c, 4, 64, 127
1, 470545, Note_off_c, 6, 54, 127
1, 470546, Note_on_c, 1, 61, 127
1, 470546, Note_on_c, 11, 70, 127
1, 470682, Note_off_c, 11, 70, 127
1, 470682, Note_off_c, 1, 61, 127
1, 470683, Note_on_c, 12, 59, 127
1, 470683, Note_on_c, 4, 64, 127
1, 470819, Note_off_c, 4, 64, 127
1, 470819, Note_off_c, 12, 59, 127
1, 470820, Note_on_c, 1, 61, 127
1, 470820, Note_on_c, 11, 70, 127
1, 470957, Note_on_c, 4, 64, 127
1, 471091, Note_off_c, 11, 70, 127
1, 471092, Note_off_c, 4, 64, 127
1, 471092, Note_off_c, 1, 61, 127
1, 471093, Note_on_c, 6, 54, 127
1, 471093, Note_on_c, 11, 70, 127
1, 471229, Note_off_c, 11, 70, 127
1, 471230, Note_on_c, 4, 64, 127
1, 471366, Note_off_c, 4, 64, 127
1, 471366, Note_off_c, 6, 54, 127
1, 471367, Note_on_c, 7, 55, 127
1, 471367, Note_on_c, 12, 71, 127
1, 471504, Note_on_c, 2, 62, 127
1, 471638, Note_off_c, 12, 71, 127
1, 471639, Note_off_c, 2, 62, 127
1, 471639, Note_off_c, 7, 55, 127
1, 471640, Note_on_c, 12, 59, 127
1, 471640, Note_on_c, 12, 71, 127
1, 471776, Note_off_c, 12, 71, 127
1, 471776, Note_off_c, 12, 59, 127
1, 471777, Note_on_c, 11, 58, 127
1, 471777, Note_on_c, 2, 62, 127
1, 471913, Note_off_c, 2, 62, 127
1, 471913, Note_off_c, 11, 58, 127
1, 471914, Note_on_c, 12, 59, 127
1, 471914, Note_on_c, 12, 71, 127
1, 472051, Note_on_c, 2, 62, 127
1, 472185, Note_off_c, 12, 71, 127
1, 472186, Note_off_c, 2, 62, 127
1, 472186, Note_off_c, 12, 59, 127
1, 472187, Note_on_c, 7, 55, 127
1, 472187, Note_on_c, 12, 71, 127
1, 472323, Note_off_c, 12, 71, 127
1, 472324, Note_on_c, 2, 62, 127
1, 472460, Note_off_c, 2, 62, 127
1, 472460, Note_off_c, 7, 55, 127
1, 472461, Note_on_c, 4, 52, 127
1, 472461, Note_on_c, 12, 71, 127
1, 472598, Note_on_c, 1, 61, 127
1, 472732, Note_off_c, 12, 71, 127
1, 472733, Note_off_c, 1, 61, 127
1, 472733, Note_off_c, 4, 52, 127
1, 472734, Note_on_c, 12, 59, 127
1, 472734, Note_on_c, 12, 71, 127
1, 472870, Note_off_c, 12, 71, 127
1, 472870, Note_off_c, 12, 59, 127
1, 472871, Note_on_c, 11, 58, 127
1, 472871, Note_on_c, 1, 61, 127
1, 473007, Note_off_c, 1, 61, 127
1, 473007, Note_off_c, 11, 58, 127
1, 473008, Note_on_c, 12, 59, 127
1, 473008, Note_on_c, 12, 71, 127
1, 473145, Note_on_c, 1, 61, 127
1, 473279, Note_off_c, 12, 71, 127
1, 473280, Note_off_c, 1, 61, 127
1, 473280, Note_off_c, 12, 59, 127
1, 473281, Note_on_c, 4, 52, 127
1, 473281, Note_on_c, 12, 71, 127
1, 473417, Note_off_c, 12, 71, 127
1, 473418, Note_on_c, 1, 61, 127
1, 473554, Note_off_c, 1, 61, 127
1, 473554, Note_off_c, 4, 52, 127
1, 473555, Note_on_c, 6, 54, 127
1, 473555, Note_on_c, 11, 70, 127
1, 473691, Note_off_c, 6, 54, 127
1, 473692, Note_on_c, 4, 52, 127
1, 473692, Note_on_c, 1, 61, 127
1, 473826, Note_off_c, 11, 70, 127
1, 473827, Note_off_c, 1, 61, 127
1, 473827, Note_off_c, 4, 52, 127
1, 473828, Note_on_c, 2, 50, 127
1, 473828, Note_on_c, 11, 70, 127
1, 473964, Note_off_c, 11, 70, 127
1, 473964, Note_off_c, 2, 50, 127
1, 473965, Note_on_c, 4, 52, 127
1, 473965, Note_on_c, 1, 61, 127
1, 474101, Note_off_c, 1, 61, 127
1, 474101, Note_off_c, 4, 52, 127
1, 474102, Note_on_c, 6, 54, 127
1, 474102, Note_on_c, 11, 70, 127
1, 474239, Note_on_c, 1, 61, 127
1, 474373, Note_off_c, 11, 70, 127
1, 474374, Note_off_c, 1, 61, 127
1, 474374, Note_off_c, 6, 54, 127
1, 474375, Note_on_c, 6, 42, 127
1, 474375, Note_on_c, 11, 70, 127
1, 474511, Note_off_c, 11, 70, 127
1, 474512, Note_on_c, 1, 61, 127
1, 474648, Note_off_c, 1, 61, 127
1, 474648, Note_off_c, 6, 42, 127
1, 474649, Note_on_c, 12, 47, 127
1, 474649, Note_on_c, 12, 71, 127
1, 474789, Note_on_c, 6, 66, 127
1, 474927, Note_off_c, 12, 71, 127
1, 474928, Note_off_c, 6, 66, 127
1, 474929, Note_on_c, 2, 62, 127
1, 475068, Note_off_c, 2, 62, 127
1, 475069, Note_on_c, 6, 66, 127
1, 475204, Note_off_c, 12, 47, 127
1, 475208, Note_off_c, 6, 66, 127
1, 475209, Note_on_c, 12, 59, 127
1, 475349, Note_on_c, 6, 54, 127
1, 475488, Note_off_c, 6, 54, 127
1, 475489, Note_on_c, 2, 50, 127
1, 475629, Note_on_c, 6, 54, 127
1, 475785, Note_on_c, 6, 78, 127
1, 475785, Note_on_c, 12, 71, 127
1, 475785, Note_on_c, 2, 74, 127
1, 475785, Note_on_c, 6, 66, 127
1, 475785, Note_on_c, 12, 47, 127
1, 476332, Note_off_c, 2, 74, 127
1, 476332, Note_off_c, 12, 71, 127
1, 476332, Note_off_c, 6, 78, 127
1, 476333, Note_on_c, 2, 74, 127
1, 476727, Note_off_c, 6, 54, 127
1, 476734, Note_off_c, 12, 59, 127
1, 476737, Note_off_c, 2, 50, 127
1, 476742, Note_off_c, 12, 47, 127
1, 476742, Note_off_c, 6, 66, 127
1, 476880, Note_off_c, 2, 74, 127
1, 476881, Note_on_c, 12, 71, 127
1, 476881, Note_on_c, 12, 47, 127
1, 476881, Note_on_c, 2, 50, 127
1, 477154, Note_off_c, 2, 50, 127
1, 477154, Note_off_c, 12, 47, 127
1, 477154, Note_off_c, 12, 71, 127
1, 477155, Note_on_c, 12, 59, 127
1, 477155, Note_on_c, 1, 49, 127
1, 477155, Note_on_c, 4, 52, 127
1, 477428, Note_off_c, 4, 52, 127
1, 477428, Note_off_c, 1, 49, 127
1, 477429, Note_on_c, 2, 50, 127
1, 477429, Note_on_c, 6, 54, 127
1, 477555, Note_off_c, 12, 59, 127
1, 477702, Note_off_c, 6, 54, 127
1, 477702, Note_off_c, 2, 50, 127
1, 477703, Note_on_c, 6, 78, 127
1, 477703, Note_on_c, 12, 47, 127
1, 477703, Note_on_c, 2, 50, 127
1, 477976, Note_off_c, 2, 50, 127
1, 477976, Note_off_c, 12, 47, 127
1, 477976, Note_off_c, 6, 78, 127
1, 477977, Note_on_c, 7, 79, 127
1, 477977, Note_on_c, 4, 52, 127
1, 478250, Note_off_c, 7, 79, 127
1, 478251, Note_on_c, 7, 79, 127
1, 478520, Note_off_c, 4, 52, 127
1, 478524, Note_off_c, 7, 79, 127
1, 478525, Note_on_c, 7, 79, 127
1, 478525, Note_on_c, 11, 46, 127
1, 478525, Note_on_c, 4, 52, 127
1, 478798, Note_off_c, 7, 79, 127
1, 478799, Note_on_c, 7, 79, 127
1, 479072, Note_off_c, 7, 79, 127
1, 479072, Note_off_c, 4, 52, 127
1, 479072, Note_off_c, 11, 46, 127
1, 479073, Note_on_c, 6, 78, 127
1, 479073, Note_on_c, 12, 47, 127
1, 479073, Note_on_c, 2, 50, 127
1, 479209, Note_off_c, 6, 78, 127
1, 479210, Note_on_c, 4, 76, 127
1, 479346, Note_off_c, 4, 76, 127
1, 479347, Note_on_c, 2, 74, 127
1, 479483, Note_off_c, 2, 74, 127
1, 479484, Note_on_c, 1, 73, 127
1, 479620, Note_off_c, 1, 73, 127
1, 479621, Note_on_c, 12, 71, 127
1, 479758, Note_off_c, 2, 50, 127
1, 479758, Note_off_c, 12, 47, 127
1, 479894, Note_off_c, 12, 71, 127
1, 479895, Note_on_c, 2, 74, 127
1, 479895, Note_on_c, 12, 47, 127
1, 479895, Note_on_c, 6, 54, 127
1, 480168, Note_off_c, 6, 54, 127
1, 480168, Note_off_c, 12, 47, 127
1, 480168, Note_off_c, 2, 74, 127
1, 480169, Note_on_c, 1, 73, 127
1, 480169, Note_on_c, 6, 54, 127
1, 480169, Note_on_c, 10, 45, 127
1, 480442, Note_off_c, 1, 73, 127
1, 480443, Note_on_c, 6, 78, 127
1, 480716, Note_off_c, 6, 78, 127
1, 480716, Note_off_c, 10, 45, 127
1, 480717, Note_on_c, 12, 71, 127
1, 480717, Note_on_c, 7, 43, 127
1, 480990, Note_off_c, 12, 71, 127
1, 480990, Note_off_c, 6, 54, 127
1, 480991, Note_on_c, 7, 79, 127
1, 480991, Note_on_c, 4, 52, 127
1, 481260, Note_off_c, 7, 43, 127
1, 481264, Note_off_c, 4, 52, 127
1, 481264, Note_off_c, 7, 79, 127
1, 481265, Note_on_c, 11, 70, 127
1, 481265, Note_on_c, 6, 54, 127
1, 481265, Note_on_c, 6, 42, 127
1, 481538, Note_off_c, 11, 70, 127
1, 481539, Note_on_c, 8, 68, 127
1, 481675, Note_off_c, 8, 68, 127
1, 481676, Note_on_c, 11, 70, 127
1, 481812, Note_off_c, 11, 70, 127
1, 481813, Note_on_c, 6, 66, 127
1, 482086, Note_off_c, 6, 66, 127
1, 482086, Note_off_c, 6, 42, 127
1, 482086, Note_off_c, 6, 54, 127
1, 482103, Note_on_c, 6, 78, 127
1, 482239, Note_off_c, 6, 78, 127
1, 482240, Note_on_c, 7, 79, 127
1, 482376, Note_off_c, 7, 79, 127
1, 482377, Note_on_c, 12, 59, 127
1, 482377, Note_on_c, 3, 63, 127
1, 482377, Note_on_c, 10, 81, 127
1, 482513, Note_off_c, 10, 81, 127
1, 482514, Note_on_c, 6, 78, 127
1, 482650, Note_off_c, 6, 78, 127
1, 482650, Note_off_c, 3, 63, 127
1, 482650, Note_off_c, 12, 59, 127
1, 482651, Note_on_c, 4, 64, 127
1, 482651, Note_on_c, 1, 61, 127
1, 482651, Note_on_c, 7, 79, 127
1, 482787, Note_off_c, 7, 79, 127
1, 482788, Note_on_c, 10, 81, 127
1, 482924, Note_off_c, 10, 81, 127
1, 482924, Note_off_c, 1, 61, 127
1, 482924, Note_off_c, 4, 64, 127
1, 482925, Note_on_c, 3, 63, 127
1, 482925, Note_on_c, 6, 66, 127
1, 482925, Note_on_c, 12, 71, 127
1, 483198, Note_off_c, 12, 71, 127
1, 483198, Note_off_c, 6, 66, 127
1, 483198, Note_off_c, 3, 63, 127
1, 483199, Note_on_c, 3, 63, 127
1, 483199, Note_on_c, 12, 59, 127
1, 483199, Note_on_c, 10, 81, 127
1, 483472, Note_off_c, 10, 81, 127
1, 483472, Note_off_c, 12, 59, 127
1, 483472, Note_off_c, 3, 63, 127
1, 483473, Note_on_c, 4, 64, 127
1, 483473, Note_on_c, 10, 81, 127
1, 483609, Note_off_c, 10, 81, 127
1, 483610, Note_on_c, 7, 79, 127
1, 483746, Note_off_c, 7, 79, 127
1, 483747, Note_on_c, 4, 52, 127
1, 483747, Note_on_c, 6, 78, 127
1, 483883, Note_off_c, 6, 78, 127
1, 483884, Note_on_c, 7, 79, 127
1, 484001, Note_off_c, 4, 64, 127
1, 484020, Note_off_c, 7, 79, 127
1, 484021, Note_on_c, 4, 64, 127
1, 484290, Note_off_c, 4, 52, 127
1, 484296, Note_on_c, 4, 76, 127
1, 484422, Note_off_c, 4, 64, 127
1, 484432, Note_off_c, 4, 76, 127
1, 484433, Note_on_c, 6, 78, 127
1, 484569, Note_off_c, 6, 78, 127
1, 484570, Note_on_c, 1, 61, 127
1, 484570, Note_on_c, 10, 57, 127
1, 484570, Note_on_c, 7, 79, 127
1, 484706, Note_off_c, 7, 79, 127
1, 484707, Note_on_c, 1, 73, 127
1, 484843, Note_off_c, 1, 73, 127
1, 484843, Note_off_c, 10, 57, 127
1, 484843, Note_off_c, 1, 61, 127
1, 484844, Note_on_c, 2, 62, 127
1, 484844, Note_on_c, 12, 59, 127
1, 484844, Note_on_c, 7, 79, 127
1, 484980, Note_off_c, 7, 79, 127
1, 484981, Note_on_c, 1, 73, 127
1, 485117, Note_off_c, 1, 73, 127
1, 485117, Note_off_c, 12, 59, 127
1, 485117, Note_off_c, 2, 62, 127
1, 485118, Note_on_c, 1, 61, 127
1, 485118, Note_on_c, 4, 64, 127
1, 485118, Note_on_c, 10, 69, 127
1, 485391, Note_off_c, 10, 69, 127
1, 485391, Note_off_c, 4, 64, 127
1, 485391, Note_off_c, 1, 61, 127
1, 485392, Note_on_c, 10, 57, 127
1, 485392, Note_on_c, 1, 61, 127
1, 485392, Note_on_c, 7, 79, 127
1, 485665, Note_off_c, 7, 79, 127
1, 485665, Note_off_c, 1, 61, 127
1, 485665, Note_off_c, 10, 57, 127
1, 485666, Note_on_c, 2, 62, 127
1, 485666, Note_on_c, 7, 79, 127
1, 485802, Note_off_c, 7, 79, 127
1, 485803, Note_on_c, 6, 78, 127
1, 485939, Note_off_c, 6, 78, 127
1, 485940, Note_on_c, 2, 50, 127
1, 485940, Note_on_c, 4, 76, 127
1, 486076, Note_off_c, 4, 76, 127
1, 486077, Note_on_c, 6, 78, 127
1, 486194, Note_off_c, 2, 62, 127
1, 486213, Note_off_c, 6, 78, 127
1, 486214, Note_on_c, 2, 62, 127
1, 486483, Note_off_c, 2, 50, 127
1, 486489, Note_on_c, 2, 74, 127
1, 486615, Note_off_c, 2, 62, 127
1, 486625, Note_off_c, 2, 74, 127
1, 486626, Note_on_c, 4, 76, 127
1, 486762, Note_off_c, 4, 76, 127
1, 486763, Note_on_c, 12, 59, 127
1, 486763, Note_on_c, 7, 55, 127
1, 486763, Note_on_c, 6, 78, 127
1, 486899, Note_off_c, 6, 78, 127
1, 486900, Note_on_c, 2, 74, 127
1, 487036, Note_off_c, 2, 74, 127
1, 487036, Note_off_c, 7, 55, 127
1, 487036, Note_off_c, 12, 59, 127
1, 487037, Note_on_c, 1, 61, 127
1, 487037, Note_on_c, 10, 57, 127
1, 487037, Note_on_c, 12, 71, 127
1, 487173, Note_off_c, 12, 71, 127
1, 487174, Note_on_c, 10, 69, 127
1, 487310, Note_off_c, 10, 69, 127
1, 487310, Note_off_c, 10, 57, 127
1, 487310, Note_off_c, 1, 61, 127
1, 487311, Note_on_c, 12, 59, 127
1, 487311, Note_on_c, 2, 62, 127
1, 487311, Note_on_c, 7, 67, 127
1, 487584, Note_off_c, 7, 67, 127
1, 487584, Note_off_c, 2, 62, 127
1, 487584, Note_off_c, 12, 59, 127
1, 487585, Note_on_c, 12, 59, 127
1, 487585, Note_on_c, 7, 55, 127
1, 487585, Note_on_c, 6, 78, 127
1, 487858, Note_off_c, 6, 78, 127
1, 487858, Note_off_c, 7, 55, 127
1, 487858, Note_off_c, 12, 59, 127
1, 487859, Note_on_c, 1, 61, 127
1, 487859, Note_on_c, 7, 79, 127
1, 487965, Note_off_c, 7, 79, 127
1, 487968, Note_on_c, 6, 78, 127
1, 488049, Note_off_c, 6, 78, 127
1, 488050, Note_on_c, 4, 76, 127
1, 488131, Note_off_c, 4, 76, 127
1, 488132, Note_on_c, 1, 49, 127
1, 488132, Note_on_c, 6, 78, 127
1, 488268, Note_off_c, 6, 78, 127
1, 488269, Note_on_c, 3, 75, 127
1, 488400, Note_off_c, 1, 61, 127
1, 488404, Note_off_c, 3, 75, 127
1, 488405, Note_on_c, 4, 76, 127
1, 488674, Note_off_c, 1, 49, 127
1, 488678, Note_off_c, 4, 76, 127
1, 488679, Note_on_c, 1, 73, 127
1, 488815, Note_off_c, 1, 73, 127
1, 488816, Note_on_c, 2, 74, 127
1, 488952, Note_off_c, 2, 74, 127
1, 488953, Note_on_c, 11, 58, 127
1, 488953, Note_on_c, 6, 54, 127
1, 488953, Note_on_c, 4, 76, 127
1, 489089, Note_off_c, 4, 76, 127
1, 489090, Note_on_c, 1, 73, 127
1, 489226, Note_off_c, 1, 73, 127
1, 489226, Note_off_c, 6, 54, 127
1, 489226, Note_off_c, 11, 58, 127
1, 489227, Note_on_c, 8, 56, 127
1, 489227, Note_on_c, 12, 59, 127
1, 489227, Note_on_c, 11, 70, 127
1, 489363, Note_off_c, 11, 70, 127
1, 489364, Note_on_c, 1, 73, 127
1, 489500, Note_off_c, 1, 73, 127
1, 489500, Note_off_c, 12, 59, 127
1, 489500, Note_off_c, 8, 56, 127
1, 489501, Note_on_c, 11, 58, 127
1, 489501, Note_on_c, 1, 61, 127
1, 489501, Note_on_c, 6, 66, 127
1, 489774, Note_off_c, 6, 66, 127
1, 489774, Note_off_c, 1, 61, 127
1, 489774, Note_off_c, 11, 58, 127
1, 489775, Note_on_c, 6, 54, 127
1, 489775, Note_on_c, 11, 58, 127
1, 489775, Note_on_c, 4, 76, 127
1, 490048, Note_off_c, 4, 76, 127
1, 490048, Note_off_c, 11, 58, 127
1, 490048, Note_off_c, 6, 54, 127
1, 490049, Note_on_c, 12, 59, 127
1, 490049, Note_on_c, 6, 78, 127
1, 490116, Note_off_c, 6, 78, 127
1, 490117, Note_on_c, 4, 76, 127
1, 490184, Note_off_c, 4, 76, 127
1, 490185, Note_on_c, 6, 78, 127
1, 490252, Note_off_c, 6, 78, 127
1, 490253, Note_on_c, 4, 76, 127
1, 490320, Note_off_c, 4, 76, 127
1, 490320, Note_off_c, 12, 59, 127
1, 490321, Note_on_c, 12, 47, 127
1, 490321, Note_on_c, 2, 74, 127
1, 490457, Note_off_c, 12, 47, 127
1, 490458, Note_on_c, 1, 49, 127
1, 490594, Note_off_c, 1, 49, 127
1, 490594, Note_off_c, 2, 74, 127
1, 490595, Note_on_c, 2, 50, 127
1, 490595, Note_on_c, 12, 59, 127
1, 490868, Note_off_c, 12, 59, 127
1, 490868, Note_off_c, 2, 50, 127
1, 490869, Note_on_c, 12, 47, 127
1, 490869, Note_on_c, 6, 66, 127
1, 491005, Note_off_c, 6, 66, 127
1, 491006, Note_on_c, 10, 69, 127
1, 491142, Note_off_c, 10, 69, 127
1, 491142, Note_off_c, 12, 47, 127
1, 491143, Note_on_c, 4, 52, 127
1, 491143, Note_on_c, 8, 68, 127
1, 491279, Note_off_c, 8, 68, 127
1, 491280, Note_on_c, 6, 66, 127
1, 491416, Note_off_c, 6, 66, 127
1, 491417, Note_on_c, 8, 56, 127
1, 491417, Note_on_c, 4, 64, 127
1, 491553, Note_off_c, 4, 64, 127
1, 491554, Note_on_c, 6, 66, 127
1, 491685, Note_off_c, 4, 52, 127
1, 491689, Note_off_c, 6, 66, 127
1, 491689, Note_off_c, 8, 56, 127
1, 491690, Note_on_c, 12, 59, 127
1, 491690, Note_on_c, 8, 68, 127
1, 491826, Note_off_c, 8, 68, 127
1, 491827, Note_on_c, 10, 69, 127
1, 491963, Note_off_c, 10, 69, 127
1, 491963, Note_off_c, 12, 59, 127
1, 491964, Note_on_c, 2, 62, 127
1, 491964, Note_on_c, 12, 71, 127
1, 492100, Note_off_c, 12, 71, 127
1, 492101, Note_on_c, 1, 73, 127
1, 492237, Note_off_c, 1, 73, 127
1, 492237, Note_off_c, 2, 62, 127
1, 492238, Note_on_c, 6, 54, 127
1, 492238, Note_on_c, 11, 70, 127
1, 492374, Note_off_c, 11, 70, 127
1, 492375, Note_on_c, 8, 68, 127
1, 492511, Note_off_c, 8, 68, 127
1, 492512, Note_on_c, 11, 58, 127
1, 492512, Note_on_c, 6, 66, 127
1, 492648, Note_off_c, 6, 66, 127
1, 492649, Note_on_c, 8, 68, 127
1, 492785, Note_off_c, 8, 68, 127
1, 492785, Note_off_c, 11, 58, 127
1, 492786, Note_on_c, 1, 61, 127
1, 492786, Note_on_c, 11, 70, 127
1, 492922, Note_off_c, 11, 70, 127
1, 492923, Note_off_c, 6, 54, 127
1, 492923, Note_on_c, 12, 71, 127
1, 493059, Note_off_c, 12, 71, 127
1, 493059, Note_off_c, 1, 61, 127
1, 493060, Note_on_c, 6, 66, 127
1, 493060, Note_on_c, 1, 73, 127
1, 493196, Note_off_c, 1, 73, 127
1, 493197, Note_on_c, 2, 74, 127
1, 493333, Note_off_c, 2, 74, 127
1, 493333, Note_off_c, 6, 66, 127
1, 493334, Note_on_c, 8, 56, 127
1, 493334, Note_on_c, 12, 71, 127
1, 493470, Note_off_c, 12, 71, 127
1, 493471, Note_on_c, 11, 70, 127
1, 493607, Note_off_c, 11, 70, 127
1, 493608, Note_on_c, 12, 59, 127
1, 493608, Note_on_c, 8, 68, 127
1, 493744, Note_off_c, 8, 68, 127
1, 493745, Note_on_c, 11, 70, 127
1, 493881, Note_off_c, 11, 70, 127
1, 493881, Note_off_c, 12, 59, 127
1, 493882, Note_on_c, 2, 62, 127
1, 493882, Note_on_c, 12, 71, 127
1, 494018, Note_off_c, 12, 71, 127
1, 494019, Note_on_c, 1, 73, 127
1, 494155, Note_off_c, 1, 73, 127
1, 494155, Note_off_c, 2, 62, 127
1, 494155, Note_off_c, 8, 56, 127
1, 494156, Note_on_c, 6, 66, 127
1, 494156, Note_on_c, 2, 74, 127
1, 494292, Note_off_c, 2, 74, 127
1, 494293, Note_on_c, 4, 76, 127
1, 494429, Note_off_c, 4, 76, 127
1, 494429, Note_off_c, 6, 66, 127
1, 494430, Note_on_c, 11, 58, 127
1, 494430, Note_on_c, 1, 73, 127
1, 494566, Note_off_c, 1, 73, 127
1, 494567, Note_on_c, 12, 71, 127
1, 494703, Note_off_c, 12, 71, 127
1, 494704, Note_on_c, 1, 61, 127
1, 494704, Note_on_c, 11, 70, 127
1, 494840, Note_off_c, 11, 70, 127
1, 494841, Note_on_c, 12, 71, 127
1, 494977, Note_off_c, 12, 71, 127
1, 494977, Note_off_c, 1, 61, 127
1, 494978, Note_on_c, 4, 64, 127
1, 494978, Note_on_c, 1, 73, 127
1, 495114, Note_off_c, 1, 73, 127
1, 495115, Note_on_c, 2, 74, 127
1, 495251, Note_off_c, 2, 74, 127
1, 495251, Note_off_c, 4, 64, 127
1, 495252, Note_on_c, 7, 67, 127
1, 495252, Note_on_c, 4, 76, 127
1, 495388, Note_off_c, 4, 76, 127
1, 495389, Note_on_c, 6, 78, 127
1, 495400, Note_off_c, 11, 58, 127
1, 495524, Note_off_c, 6, 78, 127
1, 495524, Note_off_c, 7, 67, 127
1, 495525, Note_on_c, 12, 59, 127
1, 495525, Note_on_c, 2, 74, 127
1, 495661, Note_off_c, 2, 74, 127
1, 495662, Note_on_c, 1, 73, 127
1, 495798, Note_off_c, 1, 73, 127
1, 495799, Note_on_c, 2, 62, 127
1, 495799, Note_on_c, 12, 71, 127
1, 495935, Note_off_c, 12, 71, 127
1, 495936, Note_on_c, 1, 73, 127
1, 496072, Note_off_c, 1, 73, 127
1, 496072, Note_off_c, 2, 62, 127
1, 496073, Note_on_c, 6, 66, 127
1, 496073, Note_on_c, 2, 74, 127
1, 496209, Note_off_c, 2, 74, 127
1, 496210, Note_on_c, 4, 76, 127
1, 496346, Note_off_c, 4, 76, 127
1, 496346, Note_off_c, 6, 66, 127
1, 496347, Note_on_c, 2, 62, 127
1, 496347, Note_on_c, 6, 78, 127
1, 496483, Note_off_c, 6, 78, 127
1, 496484, Note_on_c, 7, 79, 127
1, 496620, Note_off_c, 7, 79, 127
1, 496620, Note_off_c, 2, 62, 127
1, 496620, Note_off_c, 12, 59, 127
1, 496621, Note_on_c, 1, 61, 127
1, 496621, Note_on_c, 6, 54, 127
1, 496621, Note_on_c, 11, 70, 127
1, 496757, Note_off_c, 11, 70, 127
1, 496758, Note_on_c, 8, 68, 127
1, 496894, Note_off_c, 8, 68, 127
1, 496894, Note_off_c, 6, 54, 127
1, 496895, Note_on_c, 4, 52, 127
1, 496895, Note_on_c, 11, 70, 127
1, 497031, Note_off_c, 11, 70, 127
1, 497032, Note_on_c, 6, 66, 127
1, 497163, Note_off_c, 1, 61, 127
1, 497167, Note_off_c, 6, 66, 127
1, 497167, Note_off_c, 4, 52, 127
1, 497168, Note_on_c, 2, 50, 127
1, 497168, Note_on_c, 12, 71, 127
1, 497304, Note_off_c, 12, 71, 127
1, 497305, Note_on_c, 2, 62, 127
1, 497441, Note_off_c, 2, 62, 127
1, 497442, Note_on_c, 6, 54, 127
1, 497442, Note_on_c, 12, 71, 127
1, 497579, Note_on_c, 2, 62, 127
1, 497613, Note_off_c, 12, 71, 127
1, 497710, Note_off_c, 2, 50, 127
1, 497714, Note_off_c, 2, 62, 127
1, 497714, Note_off_c, 6, 54, 127
1, 497715, Note_on_c, 4, 52, 127
1, 497715, Note_on_c, 1, 61, 127
1, 497852, Note_on_c, 12, 71, 127
1, 497886, Note_off_c, 1, 61, 127
1, 497987, Note_off_c, 12, 71, 127
1, 497988, Note_on_c, 7, 55, 127
1, 497988, Note_on_c, 1, 61, 127
1, 498125, Note_on_c, 12, 71, 127
1, 498159, Note_off_c, 1, 61, 127
1, 498256, Note_off_c, 4, 52, 127
1, 498260, Note_off_c, 12, 71, 127
1, 498260, Note_off_c, 7, 55, 127
1, 498261, Note_on_c, 6, 54, 127
1, 498261, Note_on_c, 1, 61, 127
1, 498398, Note_on_c, 11, 70, 127
1, 498432, Note_off_c, 1, 61, 127
1, 498533, Note_off_c, 11, 70, 127
1, 498534, Note_on_c, 6, 42, 127
1, 498534, Note_on_c, 1, 61, 127
1, 498670, Note_off_c, 1, 61, 127
1, 498671, Note_on_c, 11, 70, 127
1, 498807, Note_off_c, 11, 70, 127
1, 498807, Note_off_c, 6, 42, 127
1, 498808, Note_on_c, 12, 47, 127
1, 498808, Note_on_c, 12, 71, 127
1, 498808, Note_on_c, 2, 62, 127
1, 499084, Note_off_c, 2, 62, 127
1, 499084, Note_off_c, 12, 71, 127
1, 499084, Note_off_c, 12, 47, 127
1, 499084, Note_off_c, 6, 54, 127
1, 499101, Note_on_c, 12, 71, 127
1, 499101, Note_on_c, 12, 59, 127
1, 499238, Note_off_c, 12, 59, 127
1, 499238, Note_off_c, 12, 71, 127
1, 499239, Note_on_c, 12, 71, 127
1, 499239, Note_on_c, 12, 59, 127
1, 499376, Note_off_c, 12, 59, 127
1, 499376, Note_off_c, 12, 71, 127
1, 499377, Note_on_c, 10, 69, 127
1, 499377, Note_on_c, 10, 57, 127
1, 499514, Note_off_c, 10, 57, 127
1, 499514, Note_off_c, 10, 69, 127
1, 499515, Note_on_c, 10, 69, 127
1, 499515, Note_on_c, 10, 57, 127
1, 499652, Note_off_c, 10, 57, 127
1, 499652, Note_off_c, 10, 69, 127
1, 499653, Note_on_c, 7, 67, 127
1, 499653, Note_on_c, 7, 55, 127
1, 499790, Note_off_c, 7, 55, 127
1, 499790, Note_off_c, 7, 67, 127
1, 499791, Note_on_c, 7, 67, 127
1, 499791, Note_on_c, 7, 55, 127
1, 499928, Note_off_c, 7, 55, 127
1, 499928, Note_off_c, 7, 67, 127
1, 499929, Note_on_c, 6, 66, 127
1, 499929, Note_on_c, 6, 54, 127
1, 500066, Note_off_c, 6, 54, 127
1, 500066, Note_off_c, 6, 66, 127
1, 500067, Note_on_c, 6, 66, 127
1, 500067, Note_on_c, 6, 54, 127
1, 500204, Note_off_c, 6, 54, 127
1, 500204, Note_off_c, 6, 66, 127
1, 500205, Note_on_c, 4, 64, 127
1, 500205, Note_on_c, 4, 52, 127
1, 500342, Note_off_c, 4, 52, 127
1, 500342, Note_off_c, 4, 64, 127
1, 500343, Note_on_c, 4, 64, 127
1, 500343, Note_on_c, 4, 52, 127
1, 500480, Note_off_c, 4, 52, 127
1, 500480, Note_off_c, 4, 64, 127
1, 500481, Note_on_c, 2, 62, 127
1, 500481, Note_on_c, 2, 50, 127
1, 500618, Note_off_c, 2, 50, 127
1, 500618, Note_off_c, 2, 62, 127
1, 500619, Note_on_c, 2, 62, 127
1, 500619, Note_on_c, 2, 50, 127
1, 500756, Note_off_c, 2, 50, 127
1, 500756, Note_off_c, 2, 62, 127
1, 500757, Note_on_c, 1, 61, 127
1, 500757, Note_on_c, 1, 49, 127
1, 500894, Note_off_c, 1, 49, 127
1, 500894, Note_off_c, 1, 61, 127
1, 500895, Note_on_c, 1, 61, 127
1, 500895, Note_on_c, 1, 49, 127
1, 501032, Note_off_c, 1, 49, 127
1, 501032, Note_off_c, 1, 61, 127
1, 501033, Note_on_c, 12, 59, 127
1, 501033, Note_on_c, 12, 47, 127
1, 501170, Note_off_c, 12, 47, 127
1, 501170, Note_off_c, 12, 59, 127
1, 501171, Note_on_c, 12, 59, 127
1, 501171, Note_on_c, 12, 47, 127
1, 501308, Note_off_c, 12, 47, 127
1, 501308, Note_off_c, 12, 59, 127
1, 501309, Note_on_c, 2, 62, 127
1, 501309, Note_on_c, 2, 50, 127
1, 501446, Note_off_c, 2, 50, 127
1, 501446, Note_off_c, 2, 62, 127
1, 501447, Note_on_c, 2, 62, 127
1, 501447, Note_on_c, 2, 50, 127
1, 501584, Note_off_c, 2, 50, 127
1, 501584, Note_off_c, 2, 62, 127
1, 501585, Note_on_c, 4, 64, 127
1, 501585, Note_on_c, 4, 52, 127
1, 501722, Note_off_c, 4, 52, 127
1, 501722, Note_off_c, 4, 64, 127
1, 501723, Note_on_c, 4, 64, 127
1, 501723, Note_on_c, 4, 52, 127
1, 501860, Note_off_c, 4, 52, 127
1, 501860, Note_off_c, 4, 64, 127
1, 501861, Note_on_c, 6, 66, 127
1, 501861, Note_on_c, 6, 54, 127
1, 501998, Note_off_c, 6, 54, 127
1, 501998, Note_off_c, 6, 66, 127
1, 501999, Note_on_c, 6, 66, 127
1, 501999, Note_on_c, 6, 54, 127
1, 502136, Note_off_c, 6, 54, 127
1, 502136, Note_off_c, 6, 66, 127
1, 502137, Note_on_c, 7, 67, 127
1, 502137, Note_on_c, 7, 55, 127
1, 502274, Note_off_c, 7, 55, 127
1, 502274, Note_off_c, 7, 67, 127
1, 502275, Note_on_c, 7, 67, 127
1, 502275, Note_on_c, 7, 55, 127
1, 502412, Note_off_c, 7, 55, 127
1, 502412, Note_off_c, 7, 67, 127
1, 502429, Note_on_c, 2, 50, 127
1, 502429, Note_on_c, 2, 62, 127
1, 502566, Note_off_c, 2, 62, 127
1, 502566, Note_off_c, 2, 50, 127
1, 502567, Note_on_c, 2, 50, 127
1, 502567, Note_on_c, 2, 62, 127
1, 502704, Note_off_c, 2, 62, 127
1, 502704, Note_off_c, 2, 50, 127
1, 502705, Note_on_c, 4, 52, 127
1, 502705, Note_on_c, 4, 64, 127
1, 502842, Note_off_c, 4, 64, 127
1, 502842, Note_off_c, 4, 52, 127
1, 502843, Note_on_c, 4, 52, 127
1, 502843, Note_on_c, 4, 64, 127
1, 502980, Note_off_c, 4, 64, 127
1, 502980, Note_off_c, 4, 52, 127
1, 502981, Note_on_c, 6, 54, 127
1, 502981, Note_on_c, 6, 66, 127
1, 503118, Note_off_c, 6, 66, 127
1, 503118, Note_off_c, 6, 54, 127
1, 503119, Note_on_c, 6, 54, 127
1, 503119, Note_on_c, 6, 66, 127
1, 503256, Note_off_c, 6, 66, 127
1, 503256, Note_off_c, 6, 54, 127
1, 503257, Note_on_c, 7, 55, 127
1, 503257, Note_on_c, 7, 67, 127
1, 503394, Note_off_c, 7, 67, 127
1, 503394, Note_off_c, 7, 55, 127
1, 503395, Note_on_c, 7, 55, 127
1, 503395, Note_on_c, 7, 67, 127
1, 503532, Note_off_c, 7, 67, 127
1, 503532, Note_off_c, 7, 55, 127
1, 503549, Note_on_c, 2, 62, 127
1, 503549, Note_on_c, 2, 50, 127
1, 503686, Note_off_c, 2, 50, 127
1, 503686, Note_off_c, 2, 62, 127
1, 503687, Note_on_c, 2, 62, 127
1, 503687, Note_on_c, 2, 50, 127
1, 503824, Note_off_c, 2, 50, 127
1, 503824, Note_off_c, 2, 62, 127
1, 503825, Note_on_c, 4, 64, 127
1, 503825, Note_on_c, 4, 52, 127
1, 503962, Note_off_c, 4, 52, 127
1, 503962, Note_off_c, 4, 64, 127
1, 503963, Note_on_c, 4, 64, 127
1, 503963, Note_on_c, 4, 52, 127
1, 504100, Note_off_c, 4, 52, 127
1, 504100, Note_off_c, 4, 64, 127
1, 504101, Note_on_c, 6, 66, 127
1, 504101, Note_on_c, 6, 54, 127
1, 504238, Note_off_c, 6, 54, 127
1, 504238, Note_off_c, 6, 66, 127
1, 504239, Note_on_c, 6, 66, 127
1, 504239, Note_on_c, 6, 54, 127
1, 504376, Note_off_c, 6, 54, 127
1, 504376, Note_off_c, 6, 66, 127
1, 504377, Note_on_c, 7, 67, 127
1, 504377, Note_on_c, 7, 55, 127
1, 504514, Note_off_c, 7, 55, 127
1, 504514, Note_off_c, 7, 67, 127
1, 504515, Note_on_c, 7, 67, 127
1, 504515, Note_on_c, 7, 55, 127
1, 504652, Note_off_c, 7, 55, 127
1, 504652, Note_off_c, 7, 67, 127
1, 504653, Note_on_c, 4, 64, 127
1, 504653, Note_on_c, 4, 52, 127
1, 504790, Note_off_c, 4, 52, 127
1, 504790, Note_off_c, 4, 64, 127
1, 504791, Note_on_c, 4, 64, 127
1, 504791, Note_on_c, 4, 52, 127
1, 504928, Note_off_c, 4, 52, 127
1, 504928, Note_off_c, 4, 64, 127
1, 504929, Note_on_c, 6, 66, 127
1, 504929, Note_on_c, 6, 54, 127
1, 505066, Note_off_c, 6, 54, 127
1, 505066, Note_off_c, 6, 66, 127
1, 505067, Note_on_c, 6, 66, 127
1, 505067, Note_on_c, 6, 54, 127
1, 505204, Note_off_c, 6, 54, 127
1, 505204, Note_off_c, 6, 66, 127
1, 505221, Note_on_c, 6, 42, 127
1, 505221, Note_on_c, 6, 54, 127
1, 505358, Note_off_c, 6, 54, 127
1, 505358, Note_off_c, 6, 42, 127
1, 505359, Note_on_c, 6, 42, 127
1, 505359, Note_on_c, 6, 54, 127
1, 505496, Note_off_c, 6, 54, 127
1, 505496, Note_off_c, 6, 42, 127
1, 505513, Note_on_c, 12, 59, 127
1, 505513, Note_on_c, 6, 66, 127
1, 505513, Note_on_c, 12, 47, 127
1, 505649, Note_off_c, 6, 66, 127
1, 505649, Note_off_c, 12, 59, 127
1, 505650, Note_on_c, 4, 64, 127
1, 505786, Note_off_c, 4, 64, 127
1, 505786, Note_off_c, 12, 47, 127
1, 505787, Note_on_c, 2, 62, 127
1, 505787, Note_on_c, 6, 54, 127
1, 505923, Note_off_c, 2, 62, 127
1, 505924, Note_on_c, 4, 64, 127
1, 506060, Note_off_c, 4, 64, 127
1, 506060, Note_off_c, 6, 54, 127
1, 506061, Note_on_c, 6, 66, 127
1, 506061, Note_on_c, 12, 59, 127
1, 506197, Note_off_c, 6, 66, 127
1, 506198, Note_on_c, 12, 71, 127
1, 506334, Note_off_c, 12, 71, 127
1, 506334, Note_off_c, 12, 59, 127
1, 506335, Note_on_c, 11, 70, 127
1, 506335, Note_on_c, 6, 54, 127
1, 506471, Note_off_c, 11, 70, 127
1, 506472, Note_on_c, 12, 71, 127
1, 506608, Note_off_c, 12, 71, 127
1, 506608, Note_off_c, 6, 54, 127
1, 506609, Note_on_c, 6, 66, 127
1, 506609, Note_on_c, 3, 51, 127
1, 506745, Note_off_c, 6, 66, 127
1, 506746, Note_on_c, 4, 64, 127
1, 506882, Note_off_c, 4, 64, 127
1, 506882, Note_off_c, 3, 51, 127
1, 506883, Note_on_c, 3, 63, 127
1, 506883, Note_on_c, 6, 54, 127
1, 507019, Note_off_c, 3, 63, 127
1, 507020, Note_on_c, 4, 64, 127
1, 507156, Note_off_c, 4, 64, 127
1, 507156, Note_off_c, 6, 54, 127
1, 507157, Note_on_c, 6, 66, 127
1, 507157, Note_on_c, 12, 59, 127
1, 507293, Note_off_c, 6, 66, 127
1, 507294, Note_on_c, 12, 71, 127
1, 507430, Note_off_c, 12, 71, 127
1, 507430, Note_off_c, 12, 59, 127
1, 507431, Note_on_c, 10, 69, 127
1, 507431, Note_on_c, 6, 54, 127
1, 507567, Note_off_c, 10, 69, 127
1, 507568, Note_on_c, 12, 71, 127
1, 507704, Note_off_c, 12, 71, 127
1, 507704, Note_off_c, 6, 54, 127
1, 507705, Note_on_c, 8, 68, 127
1, 507705, Note_on_c, 4, 52, 127
1, 507841, Note_off_c, 4, 52, 127
1, 507841, Note_off_c, 8, 68, 127
1, 507842, Note_on_c, 6, 66, 127
1, 507842, Note_on_c, 6, 54, 127
1, 507978, Note_off_c, 6, 54, 127
1, 507978, Note_off_c, 6, 66, 127
1, 507979, Note_on_c, 4, 64, 127
1, 507979, Note_on_c, 8, 56, 127
1, 508115, Note_off_c, 8, 56, 127
1, 508115, Note_off_c, 4, 64, 127
1, 508116, Note_on_c, 6, 66, 127
1, 508116, Note_on_c, 10, 57, 127
1, 508252, Note_off_c, 10, 57, 127
1, 508252, Note_off_c, 6, 66, 127
1, 508253, Note_on_c, 8, 68, 127
1, 508253, Note_on_c, 12, 59, 127
1, 508389, Note_off_c, 12, 59, 127
1, 508389, Note_off_c, 8, 68, 127
1, 508390, Note_on_c, 10, 69, 127
1, 508390, Note_on_c, 10, 57, 127
1, 508526, Note_off_c, 10, 57, 127
1, 508526, Note_off_c, 10, 69, 127
1, 508527, Note_on_c, 12, 71, 127
1, 508527, Note_on_c, 8, 56, 127
1, 508663, Note_off_c, 8, 56, 127
1, 508663, Note_off_c, 12, 71, 127
1, 508664, Note_on_c, 10, 69, 127
1, 508664, Note_on_c, 6, 54, 127
1, 508800, Note_off_c, 6, 54, 127
1, 508800, Note_off_c, 10, 69, 127
1, 508801, Note_on_c, 8, 68, 127
1, 508801, Note_on_c, 4, 52, 127
1, 508937, Note_off_c, 4, 52, 127
1, 508937, Note_off_c, 8, 68, 127
1, 508938, Note_on_c, 6, 66, 127
1, 508938, Note_on_c, 6, 54, 127
1, 509074, Note_off_c, 6, 54, 127
1, 509074, Note_off_c, 6, 66, 127
1, 509075, Note_on_c, 4, 64, 127
1, 509075, Note_on_c, 8, 56, 127
1, 509211, Note_off_c, 8, 56, 127
1, 509211, Note_off_c, 4, 64, 127
1, 509212, Note_on_c, 6, 66, 127
1, 509212, Note_on_c, 10, 57, 127
1, 509348, Note_off_c, 10, 57, 127
1, 509348, Note_off_c, 6, 66, 127
1, 509349, Note_on_c, 8, 68, 127
1, 509349, Note_on_c, 12, 59, 127
1, 509485, Note_off_c, 12, 59, 127
1, 509485, Note_off_c, 8, 68, 127
1, 509486, Note_on_c, 10, 69, 127
1, 509486, Note_on_c, 10, 57, 127
1, 509622, Note_off_c, 10, 57, 127
1, 509622, Note_off_c, 10, 69, 127
1, 509623, Note_on_c, 12, 71, 127
1, 509623, Note_on_c, 8, 56, 127
1, 509759, Note_off_c, 8, 56, 127
1, 509759, Note_off_c, 12, 71, 127
1, 509760, Note_on_c, 10, 69, 127
1, 509760, Note_on_c, 6, 54, 127
1, 509896, Note_off_c, 6, 54, 127
1, 509896, Note_off_c, 10, 69, 127
1, 509897, Note_on_c, 8, 68, 127
1, 509897, Note_on_c, 5, 53, 127
1, 510033, Note_off_c, 8, 68, 127
1, 510034, Note_on_c, 6, 66, 127
1, 510170, Note_off_c, 6, 66, 127
1, 510170, Note_off_c, 5, 53, 127
1, 510171, Note_on_c, 5, 65, 127
1, 510171, Note_on_c, 8, 56, 127
1, 510307, Note_off_c, 5, 65, 127
1, 510308, Note_on_c, 6, 66, 127
1, 510444, Note_off_c, 6, 66, 127
1, 510444, Note_off_c, 8, 56, 127
1, 510445, Note_on_c, 8, 68, 127
1, 510445, Note_on_c, 1, 61, 127
1, 510581, Note_off_c, 8, 68, 127
1, 510582, Note_on_c, 1, 73, 127
1, 510718, Note_off_c, 1, 73, 127
1, 510718, Note_off_c, 1, 61, 127
1, 510719, Note_on_c, 12, 71, 127
1, 510719, Note_on_c, 8, 56, 127
1, 510855, Note_off_c, 12, 71, 127
1, 510856, Note_on_c, 1, 73, 127
1, 510992, Note_off_c, 1, 73, 127
1, 510992, Note_off_c, 8, 56, 127
1, 510993, Note_on_c, 8, 68, 127
1, 510993, Note_on_c, 5, 53, 127
1, 511129, Note_off_c, 8, 68, 127
1, 511130, Note_on_c, 6, 66, 127
1, 511266, Note_off_c, 6, 66, 127
1, 511266, Note_off_c, 5, 53, 127
1, 511267, Note_on_c, 5, 65, 127
1, 511267, Note_on_c, 8, 56, 127
1, 511403, Note_off_c, 5, 65, 127
1, 511404, Note_on_c, 6, 66, 127
1, 511540, Note_off_c, 6, 66, 127
1, 511540, Note_off_c, 8, 56, 127
1, 511541, Note_on_c, 8, 68, 127
1, 511541, Note_on_c, 1, 61, 127
1, 511677, Note_off_c, 8, 68, 127
1, 511678, Note_on_c, 1, 73, 127
1, 511814, Note_off_c, 1, 73, 127
1, 511814, Note_off_c, 1, 61, 127
1, 511815, Note_on_c, 12, 71, 127
1, 511815, Note_on_c, 8, 56, 127
1, 511951, Note_off_c, 12, 71, 127
1, 511952, Note_on_c, 1, 73, 127
1, 512088, Note_off_c, 1, 73, 127
1, 512088, Note_off_c, 8, 56, 127
1, 512089, Note_on_c, 11, 70, 127
1, 512089, Note_on_c, 6, 54, 127
1, 512225, Note_off_c, 6, 54, 127
1, 512225, Note_off_c, 11, 70, 127
1, 512226, Note_on_c, 8, 68, 127
1, 512226, Note_on_c, 8, 56, 127
1, 512362, Note_off_c, 8, 56, 127
1, 512362, Note_off_c, 8, 68, 127
1, 512363, Note_on_c, 6, 66, 127
1, 512363, Note_on_c, 11, 58, 127
1, 512499, Note_off_c, 11, 58, 127
1, 512499, Note_off_c, 6, 66, 127
1, 512500, Note_on_c, 8, 68, 127
1, 512500, Note_on_c, 12, 59, 127
1, 512636, Note_off_c, 12, 59, 127
1, 512636, Note_off_c, 8, 68, 127
1, 512637, Note_on_c, 11, 70, 127
1, 512637, Note_on_c, 1, 61, 127
1, 512773, Note_off_c, 1, 61, 127
1, 512773, Note_off_c, 11, 70, 127
1, 512774, Note_on_c, 12, 71, 127
1, 512774, Note_on_c, 12, 59, 127
1, 512910, Note_off_c, 12, 59, 127
1, 512910, Note_off_c, 12, 71, 127
1, 512911, Note_on_c, 1, 73, 127
1, 512911, Note_on_c, 11, 58, 127
1, 513047, Note_off_c, 11, 58, 127
1, 513047, Note_off_c, 1, 73, 127
1, 513048, Note_on_c, 12, 71, 127
1, 513048, Note_on_c, 8, 56, 127
1, 513184, Note_off_c, 8, 56, 127
1, 513184, Note_off_c, 12, 71, 127
1, 513185, Note_on_c, 11, 70, 127
1, 513185, Note_on_c, 6, 54, 127
1, 513321, Note_off_c, 6, 54, 127
1, 513321, Note_off_c, 11, 70, 127
1, 513322, Note_on_c, 8, 68, 127
1, 513322, Note_on_c, 8, 56, 127
1, 513458, Note_off_c, 8, 56, 127
1, 513458, Note_off_c, 8, 68, 127
1, 513459, Note_on_c, 6, 66, 127
1, 513459, Note_on_c, 11, 58, 127
1, 513595, Note_off_c, 11, 58, 127
1, 513595, Note_off_c, 6, 66, 127
1, 513596, Note_on_c, 8, 68, 127
1, 513596, Note_on_c, 12, 59, 127
1, 513732, Note_off_c, 12, 59, 127
1, 513732, Note_off_c, 8, 68, 127
1, 513733, Note_on_c, 11, 70, 127
1, 513733, Note_on_c, 1, 61, 127
1, 513869, Note_off_c, 1, 61, 127
1, 513869, Note_off_c, 11, 70, 127
1, 513870, Note_on_c, 12, 71, 127
1, 513870, Note_on_c, 12, 59, 127
1, 514006, Note_off_c, 12, 59, 127
1, 514006, Note_off_c, 12, 71, 127
1, 514007, Note_on_c, 1, 73, 127
1, 514007, Note_on_c, 11, 58, 127
1, 514143, Note_off_c, 11, 58, 127
1, 514143, Note_off_c, 1, 73, 127
1, 514144, Note_on_c, 12, 71, 127
1, 514144, Note_on_c, 8, 56, 127
1, 514280, Note_off_c, 8, 56, 127
1, 514280, Note_off_c, 12, 71, 127
1, 514281, Note_on_c, 10, 69, 127
1, 514281, Note_on_c, 6, 54, 127
1, 514417, Note_off_c, 10, 69, 127
1, 514418, Note_on_c, 7, 67, 127
1, 514554, Note_off_c, 7, 67, 127
1, 514554, Note_off_c, 6, 54, 127
1, 514555, Note_on_c, 6, 66, 127
1, 514555, Note_on_c, 10, 57, 127
1, 514691, Note_off_c, 6, 66, 127
1, 514692, Note_on_c, 7, 67, 127
1, 514828, Note_off_c, 7, 67, 127
1, 514828, Note_off_c, 10, 57, 127
1, 514829, Note_on_c, 10, 69, 127
1, 514829, Note_on_c, 2, 62, 127
1, 514965, Note_off_c, 10, 69, 127
1, 514966, Note_on_c, 2, 74, 127
1, 515102, Note_off_c, 2, 74, 127
1, 515102, Note_off_c, 2, 62, 127
1, 515103, Note_on_c, 1, 73, 127
1, 515103, Note_on_c, 10, 57, 127
1, 515239, Note_off_c, 1, 73, 127
1, 515240, Note_on_c, 2, 74, 127
1, 515376, Note_off_c, 2, 74, 127
1, 515376, Note_off_c, 10, 57, 127
1, 515377, Note_on_c, 10, 69, 127
1, 515377, Note_on_c, 6, 54, 127
1, 515513, Note_off_c, 10, 69, 127
1, 515514, Note_on_c, 7, 67, 127
1, 515650, Note_off_c, 7, 67, 127
1, 515650, Note_off_c, 6, 54, 127
1, 515651, Note_on_c, 6, 66, 127
1, 515651, Note_on_c, 10, 57, 127
1, 515787, Note_off_c, 6, 66, 127
1, 515788, Note_on_c, 7, 67, 127
1, 515924, Note_off_c, 7, 67, 127
1, 515924, Note_off_c, 10, 57, 127
1, 515925, Note_on_c, 10, 69, 127
1, 515925, Note_on_c, 2, 62, 127
1, 516061, Note_off_c, 10, 69, 127
1, 516062, Note_on_c, 2, 74, 127
1, 516198, Note_off_c, 2, 74, 127
1, 516198, Note_off_c, 2, 62, 127
1, 516199, Note_on_c, 0, 72, 127
1, 516199, Note_on_c, 10, 57, 127
1, 516335, Note_off_c, 0, 72, 127
1, 516336, Note_on_c, 2, 74, 127
1, 516472, Note_off_c, 2, 74, 127
1, 516472, Note_off_c, 10, 57, 127
1, 516473, Note_on_c, 12, 71, 127
1, 516473, Note_on_c, 7, 55, 127
1, 516609, Note_off_c, 7, 55, 127
1, 516609, Note_off_c, 12, 71, 127
1, 516610, Note_on_c, 10, 69, 127
1, 516610, Note_on_c, 10, 57, 127
1, 516746, Note_off_c, 10, 57, 127
1, 516746, Note_off_c, 10, 69, 127
1, 516747, Note_on_c, 7, 67, 127
1, 516747, Note_on_c, 12, 59, 127
1, 516883, Note_off_c, 12, 59, 127
1, 516883, Note_off_c, 7, 67, 127
1, 516884, Note_on_c, 10, 69, 127
1, 516884, Note_on_c, 0, 60, 127
1, 517020, Note_off_c, 0, 60, 127
1, 517020, Note_off_c, 10, 69, 127
1, 517021, Note_on_c, 12, 71, 127
1, 517021, Note_on_c, 2, 62, 127
1, 517157, Note_off_c, 2, 62, 127
1, 517157, Note_off_c, 12, 71, 127
1, 517158, Note_on_c, 0, 72, 127
1, 517158, Note_on_c, 0, 60, 127
1, 517294, Note_off_c, 0, 60, 127
1, 517294, Note_off_c, 0, 72, 127
1, 517295, Note_on_c, 2, 74, 127
1, 517295, Note_on_c, 12, 59, 127
1, 517431, Note_off_c, 12, 59, 127
1, 517431, Note_off_c, 2, 74, 127
1, 517432, Note_on_c, 0, 72, 127
1, 517432, Note_on_c, 10, 57, 127
1, 517568, Note_off_c, 10, 57, 127
1, 517568, Note_off_c, 0, 72, 127
1, 517569, Note_on_c, 12, 71, 127
1, 517569, Note_on_c, 7, 55, 127
1, 517705, Note_off_c, 7, 55, 127
1, 517705, Note_off_c, 12, 71, 127
1, 517706, Note_on_c, 10, 69, 127
1, 517706, Note_on_c, 10, 57, 127
1, 517842, Note_off_c, 10, 57, 127
1, 517842, Note_off_c, 10, 69, 127
1, 517843, Note_on_c, 7, 67, 127
1, 517843, Note_on_c, 12, 59, 127
1, 517979, Note_off_c, 12, 59, 127
1, 517979, Note_off_c, 7, 67, 127
1, 517980, Note_on_c, 10, 69, 127
1, 517980, Note_on_c, 0, 60, 127
1, 518116, Note_off_c, 0, 60, 127
1, 518116, Note_off_c, 10, 69, 127
1, 518117, Note_on_c, 12, 71, 127
1, 518117, Note_on_c, 2, 62, 127
1, 518253, Note_off_c, 2, 62, 127
1, 518253, Note_off_c, 12, 71, 127
1, 518254, Note_on_c, 0, 72, 127
1, 518254, Note_on_c, 0, 60, 127
1, 518390, Note_off_c, 0, 60, 127
1, 518390, Note_off_c, 0, 72, 127
1, 518391, Note_on_c, 2, 74, 127
1, 518391, Note_on_c, 12, 59, 127
1, 518527, Note_off_c, 12, 59, 127
1, 518527, Note_off_c, 2, 74, 127
1, 518528, Note_on_c, 0, 72, 127
1, 518528, Note_on_c, 10, 57, 127
1, 518664, Note_off_c, 10, 57, 127
1, 518664, Note_off_c, 0, 72, 127
1, 518665, Note_on_c, 12, 71, 127
1, 518665, Note_on_c, 8, 56, 127
1, 518801, Note_off_c, 12, 71, 127
1, 518802, Note_on_c, 10, 69, 127
1, 518938, Note_off_c, 10, 69, 127
1, 518938, Note_off_c, 8, 56, 127
1, 518939, Note_on_c, 8, 68, 127
1, 518939, Note_on_c, 12, 59, 127
1, 519075, Note_off_c, 8, 68, 127
1, 519076, Note_on_c, 10, 69, 127
1, 519212, Note_off_c, 10, 69, 127
1, 519212, Note_off_c, 12, 59, 127
1, 519213, Note_on_c, 12, 71, 127
1, 519213, Note_on_c, 4, 64, 127
1, 519349, Note_off_c, 12, 71, 127
1, 519350, Note_on_c, 4, 76, 127
1, 519486, Note_off_c, 4, 76, 127
1, 519486, Note_off_c, 4, 64, 127
1, 519487, Note_on_c, 2, 74, 127
1, 519487, Note_on_c, 12, 59, 127
1, 519623, Note_off_c, 2, 74, 127
1, 519624, Note_on_c, 4, 76, 127
1, 519760, Note_off_c, 4, 76, 127
1, 519760, Note_off_c, 12, 59, 127
1, 519761, Note_on_c, 12, 71, 127
1, 519761, Note_on_c, 8, 56, 127
1, 519897, Note_off_c, 12, 71, 127
1, 519898, Note_on_c, 10, 69, 127
1, 520034, Note_off_c, 10, 69, 127
1, 520034, Note_off_c, 8, 56, 127
1, 520035, Note_on_c, 8, 68, 127
1, 520035, Note_on_c, 12, 59, 127
1, 520171, Note_off_c, 8, 68, 127
1, 520172, Note_on_c, 10, 69, 127
1, 520308, Note_off_c, 10, 69, 127
1, 520308, Note_off_c, 12, 59, 127
1, 520309, Note_on_c, 12, 71, 127
1, 520309, Note_on_c, 4, 64, 127
1, 520445, Note_off_c, 12, 71, 127
1, 520446, Note_on_c, 4, 76, 127
1, 520582, Note_off_c, 4, 76, 127
1, 520582, Note_off_c, 4, 64, 127
1, 520583, Note_on_c, 2, 74, 127
1, 520583, Note_on_c, 12, 59, 127
1, 520719, Note_off_c, 2, 74, 127
1, 520720, Note_on_c, 4, 76, 127
1, 520856, Note_off_c, 4, 76, 127
1, 520856, Note_off_c, 12, 59, 127
1, 520857, Note_on_c, 1, 73, 127
1, 520857, Note_on_c, 10, 57, 127
1, 520993, Note_off_c, 10, 57, 127
1, 520993, Note_off_c, 1, 73, 127
1, 520994, Note_on_c, 12, 71, 127
1, 520994, Note_on_c, 12, 59, 127
1, 521130, Note_off_c, 12, 59, 127
1, 521130, Note_off_c, 12, 71, 127
1, 521131, Note_on_c, 10, 69, 127
1, 521131, Note_on_c, 1, 61, 127
1, 521267, Note_off_c, 1, 61, 127
1, 521267, Note_off_c, 10, 69, 127
1, 521268, Note_on_c, 12, 71, 127
1, 521268, Note_on_c, 2, 62, 127
1, 521404, Note_off_c, 2, 62, 127
1, 521404, Note_off_c, 12, 71, 127
1, 521405, Note_on_c, 1, 73, 127
1, 521405, Note_on_c, 4, 64, 127
1, 521541, Note_off_c, 4, 64, 127
1, 521541, Note_off_c, 1, 73, 127
1, 521542, Note_on_c, 2, 74, 127
1, 521542, Note_on_c, 2, 62, 127
1, 521678, Note_off_c, 2, 62, 127
1, 521678, Note_off_c, 2, 74, 127
1, 521679, Note_on_c, 4, 76, 127
1, 521679, Note_on_c, 1, 61, 127
1, 521815, Note_off_c, 1, 61, 127
1, 521815, Note_off_c, 4, 76, 127
1, 521816, Note_on_c, 2, 74, 127
1, 521816, Note_on_c, 12, 59, 127
1, 521952, Note_off_c, 12, 59, 127
1, 521952, Note_off_c, 2, 74, 127
1, 521953, Note_on_c, 1, 73, 127
1, 521953, Note_on_c, 10, 57, 127
1, 522089, Note_off_c, 10, 57, 127
1, 522089, Note_off_c, 1, 73, 127
1, 522090, Note_on_c, 12, 71, 127
1, 522090, Note_on_c, 12, 59, 127
1, 522226, Note_off_c, 12, 59, 127
1, 522226, Note_off_c, 12, 71, 127
1, 522227, Note_on_c, 10, 69, 127
1, 522227, Note_on_c, 1, 61, 127
1, 522363, Note_off_c, 1, 61, 127
1, 522363, Note_off_c, 10, 69, 127
1, 522364, Note_on_c, 12, 71, 127
1, 522364, Note_on_c, 2, 62, 127
1, 522500, Note_off_c, 2, 62, 127
1, 522500, Note_off_c, 12, 71, 127
1, 522501, Note_on_c, 1, 73, 127
1, 522501, Note_on_c, 4, 64, 127
1, 522637, Note_off_c, 4, 64, 127
1, 522637, Note_off_c, 1, 73, 127
1, 522638, Note_on_c, 2, 74, 127
1, 522638, Note_on_c, 2, 62, 127
1, 522774, Note_off_c, 2, 62, 127
1, 522774, Note_off_c, 2, 74, 127
1, 522775, Note_on_c, 4, 76, 127
1, 522775, Note_on_c, 1, 61, 127
1, 522911, Note_off_c, 1, 61, 127
1, 522911, Note_off_c, 4, 76, 127
1, 522912, Note_on_c, 2, 74, 127
1, 522912, Note_on_c, 12, 59, 127
1, 523048, Note_off_c, 12, 59, 127
1, 523048, Note_off_c, 2, 74, 127
1, 523049, Note_on_c, 1, 73, 127
1, 523049, Note_on_c, 11, 58, 127
1, 523185, Note_off_c, 1, 73, 127
1, 523186, Note_on_c, 12, 71, 127
1, 523322, Note_off_c, 12, 71, 127
1, 523322, Note_off_c, 11, 58, 127
1, 523323, Note_on_c, 11, 70, 127
1, 523323, Note_on_c, 1, 61, 127
1, 523459, Note_off_c, 11, 70, 127
1, 523460, Note_on_c, 12, 71, 127
1, 523596, Note_off_c, 12, 71, 127
1, 523596, Note_off_c, 1, 61, 127
1, 523597, Note_on_c, 1, 73, 127
1, 523597, Note_on_c, 6, 66, 127
1, 523733, Note_off_c, 1, 73, 127
1, 523734, Note_on_c, 6, 78, 127
1, 523870, Note_off_c, 6, 78, 127
1, 523870, Note_off_c, 6, 66, 127
1, 523871, Note_on_c, 4, 76, 127
1, 523871, Note_on_c, 1, 61, 127
1, 524007, Note_off_c, 4, 76, 127
1, 524008, Note_on_c, 6, 78, 127
1, 524144, Note_off_c, 6, 78, 127
1, 524144, Note_off_c, 1, 61, 127
1, 524145, Note_on_c, 1, 73, 127
1, 524145, Note_on_c, 11, 58, 127
1, 524281, Note_off_c, 1, 73, 127
1, 524282, Note_on_c, 12, 71, 127
1, 524418, Note_off_c, 12, 71, 127
1, 524418, Note_off_c, 11, 58, 127
1, 524419, Note_on_c, 11, 70, 127
1, 524419, Note_on_c, 1, 61, 127
1, 524555, Note_off_c, 11, 70, 127
1, 524556, Note_on_c, 12, 71, 127
1, 524692, Note_off_c, 12, 71, 127
1, 524692, Note_off_c, 1, 61, 127
1, 524693, Note_on_c, 1, 73, 127
1, 524693, Note_on_c, 6, 66, 127
1, 524829, Note_off_c, 1, 73, 127
1, 524830, Note_on_c, 6, 78, 127
1, 524966, Note_off_c, 6, 78, 127
1, 524966, Note_off_c, 6, 66, 127
1, 524967, Note_on_c, 4, 76, 127
1, 524967, Note_on_c, 1, 61, 127
1, 525103, Note_off_c, 4, 76, 127
1, 525104, Note_on_c, 6, 78, 127
1, 525240, Note_off_c, 6, 78, 127
1, 525240, Note_off_c, 1, 61, 127
1, 525241, Note_on_c, 2, 74, 127
1, 525241, Note_on_c, 12, 59, 127
1, 525377, Note_off_c, 12, 59, 127
1, 525377, Note_off_c, 2, 74, 127
1, 525378, Note_on_c, 1, 73, 127
1, 525378, Note_on_c, 1, 61, 127
1, 525514, Note_off_c, 1, 61, 127
1, 525514, Note_off_c, 1, 73, 127
1, 525515, Note_on_c, 12, 71, 127
1, 525515, Note_on_c, 2, 62, 127
1, 525651, Note_off_c, 2, 62, 127
1, 525651, Note_off_c, 12, 71, 127
1, 525652, Note_on_c, 1, 73, 127
1, 525652, Note_on_c, 4, 64, 127
1, 525788, Note_off_c, 4, 64, 127
1, 525788, Note_off_c, 1, 73, 127
1, 525789, Note_on_c, 2, 74, 127
1, 525789, Note_on_c, 6, 66, 127
1, 525925, Note_off_c, 6, 66, 127
1, 525925, Note_off_c, 2, 74, 127
1, 525926, Note_on_c, 4, 76, 127
1, 525926, Note_on_c, 4, 64, 127
1, 526062, Note_off_c, 4, 64, 127
1, 526062, Note_off_c, 4, 76, 127
1, 526063, Note_on_c, 6, 78, 127
1, 526063, Note_on_c, 2, 62, 127
1, 526199, Note_off_c, 2, 62, 127
1, 526199, Note_off_c, 6, 78, 127
1, 526200, Note_on_c, 4, 76, 127
1, 526200, Note_on_c, 1, 61, 127
1, 526336, Note_off_c, 1, 61, 127
1, 526336, Note_off_c, 4, 76, 127
1, 526337, Note_on_c, 2, 74, 127
1, 526337, Note_on_c, 12, 59, 127
1, 526473, Note_off_c, 12, 59, 127
1, 526473, Note_off_c, 2, 74, 127
1, 526474, Note_on_c, 1, 73, 127
1, 526474, Note_on_c, 1, 61, 127
1, 526610, Note_off_c, 1, 61, 127
1, 526610, Note_off_c, 1, 73, 127
1, 526611, Note_on_c, 12, 71, 127
1, 526611, Note_on_c, 2, 62, 127
1, 526747, Note_off_c, 2, 62, 127
1, 526747, Note_off_c, 12, 71, 127
1, 526748, Note_on_c, 1, 73, 127
1, 526748, Note_on_c, 4, 64, 127
1, 526884, Note_off_c, 4, 64, 127
1, 526884, Note_off_c, 1, 73, 127
1, 526885, Note_on_c, 2, 74, 127
1, 526885, Note_on_c, 6, 66, 127
1, 527021, Note_off_c, 6, 66, 127
1, 527021, Note_off_c, 2, 74, 127
1, 527022, Note_on_c, 4, 76, 127
1, 527022, Note_on_c, 4, 64, 127
1, 527158, Note_off_c, 4, 64, 127
1, 527158, Note_off_c, 4, 76, 127
1, 527159, Note_on_c, 6, 78, 127
1, 527159, Note_on_c, 2, 62, 127
1, 527295, Note_off_c, 2, 62, 127
1, 527295, Note_off_c, 6, 78, 127
1, 527296, Note_on_c, 4, 76, 127
1, 527296, Note_on_c, 1, 61, 127
1, 527432, Note_off_c, 1, 61, 127
1, 527432, Note_off_c, 4, 76, 127
1, 527433, Note_on_c, 2, 74, 127
1, 527433, Note_on_c, 12, 59, 127
1, 527569, Note_off_c, 2, 74, 127
1, 527570, Note_on_c, 1, 73, 127
1, 527706, Note_off_c, 1, 73, 127
1, 527706, Note_off_c, 12, 59, 127
1, 527707, Note_on_c, 12, 71, 127
1, 527707, Note_on_c, 2, 62, 127
1, 527843, Note_off_c, 12, 71, 127
1, 527844, Note_on_c, 1, 73, 127
1, 527980, Note_off_c, 1, 73, 127
1, 527980, Note_off_c, 2, 62, 127
1, 527981, Note_on_c, 2, 74, 127
1, 527981, Note_on_c, 7, 67, 127
1, 528117, Note_off_c, 2, 74, 127
1, 528118, Note_on_c, 7, 79, 127
1, 528254, Note_off_c, 7, 79, 127
1, 528254, Note_off_c, 7, 67, 127
1, 528255, Note_on_c, 6, 78, 127
1, 528255, Note_on_c, 2, 62, 127
1, 528391, Note_off_c, 6, 78, 127
1, 528392, Note_on_c, 7, 79, 127
1, 528528, Note_off_c, 7, 79, 127
1, 528528, Note_off_c, 2, 62, 127
1, 528529, Note_on_c, 2, 74, 127
1, 528529, Note_on_c, 12, 59, 127
1, 528665, Note_off_c, 2, 74, 127
1, 528666, Note_on_c, 1, 73, 127
1, 528802, Note_off_c, 1, 73, 127
1, 528802, Note_off_c, 12, 59, 127
1, 528803, Note_on_c, 12, 71, 127
1, 528803, Note_on_c, 2, 62, 127
1, 528939, Note_off_c, 12, 71, 127
1, 528940, Note_on_c, 1, 73, 127
1, 529076, Note_off_c, 1, 73, 127
1, 529076, Note_off_c, 2, 62, 127
1, 529077, Note_on_c, 2, 74, 127
1, 529077, Note_on_c, 7, 67, 127
1, 529213, Note_off_c, 2, 74, 127
1, 529214, Note_on_c, 7, 79, 127
1, 529350, Note_off_c, 7, 79, 127
1, 529350, Note_off_c, 7, 67, 127
1, 529351, Note_on_c, 6, 78, 127
1, 529351, Note_on_c, 2, 62, 127
1, 529487, Note_off_c, 6, 78, 127
1, 529488, Note_on_c, 7, 79, 127
1, 529624, Note_off_c, 7, 79, 127
1, 529624, Note_off_c, 2, 62, 127
1, 529625, Note_on_c, 11, 70, 127
1, 529625, Note_on_c, 1, 61, 127
1, 529761, Note_off_c, 1, 61, 127
1, 529761, Note_off_c, 11, 70, 127
1, 529762, Note_on_c, 8, 68, 127
1, 529762, Note_on_c, 2, 62, 127
1, 529898, Note_off_c, 2, 62, 127
1, 529898, Note_off_c, 8, 68, 127
1, 529899, Note_on_c, 6, 66, 127
1, 529899, Note_on_c, 4, 64, 127
1, 530035, Note_off_c, 4, 64, 127
1, 530035, Note_off_c, 6, 66, 127
1, 530036, Note_on_c, 8, 68, 127
1, 530036, Note_on_c, 2, 62, 127
1, 530172, Note_off_c, 2, 62, 127
1, 530172, Note_off_c, 8, 68, 127
1, 530173, Note_on_c, 11, 70, 127
1, 530173, Note_on_c, 1, 61, 127
1, 530309, Note_off_c, 1, 61, 127
1, 530309, Note_off_c, 11, 70, 127
1, 530310, Note_on_c, 12, 71, 127
1, 530310, Note_on_c, 12, 59, 127
1, 530446, Note_off_c, 12, 59, 127
1, 530446, Note_off_c, 12, 71, 127
1, 530447, Note_on_c, 1, 73, 127
1, 530447, Note_on_c, 11, 58, 127
1, 530583, Note_off_c, 11, 58, 127
1, 530583, Note_off_c, 1, 73, 127
1, 530584, Note_on_c, 12, 71, 127
1, 530584, Note_on_c, 8, 56, 127
1, 530720, Note_off_c, 8, 56, 127
1, 530720, Note_off_c, 12, 71, 127
1, 530721, Note_on_c, 11, 70, 127
1, 530721, Note_on_c, 6, 54, 127
1, 530857, Note_off_c, 6, 54, 127
1, 530857, Note_off_c, 11, 70, 127
1, 530858, Note_on_c, 8, 68, 127
1, 530858, Note_on_c, 8, 56, 127
1, 530994, Note_off_c, 8, 56, 127
1, 530994, Note_off_c, 8, 68, 127
1, 530995, Note_on_c, 6, 66, 127
1, 530995, Note_on_c, 11, 58, 127
1, 531131, Note_off_c, 11, 58, 127
1, 531131, Note_off_c, 6, 66, 127
1, 531132, Note_on_c, 8, 68, 127
1, 531132, Note_on_c, 8, 56, 127
1, 531268, Note_off_c, 8, 56, 127
1, 531268, Note_off_c, 8, 68, 127
1, 531269, Note_on_c, 11, 70, 127
1, 531269, Note_on_c, 6, 54, 127
1, 531405, Note_off_c, 6, 54, 127
1, 531405, Note_off_c, 11, 70, 127
1, 531406, Note_on_c, 1, 73, 127
1, 531406, Note_on_c, 4, 52, 127
1, 531542, Note_off_c, 4, 52, 127
1, 531542, Note_off_c, 1, 73, 127
1, 531543, Note_on_c, 12, 71, 127
1, 531543, Note_on_c, 2, 50, 127
1, 531679, Note_off_c, 2, 50, 127
1, 531679, Note_off_c, 12, 71, 127
1, 531680, Note_on_c, 1, 73, 127
1, 531680, Note_on_c, 1, 49, 127
1, 531816, Note_off_c, 1, 49, 127
1, 531816, Note_off_c, 1, 73, 127
1, 531833, Note_on_c, 12, 47, 127
1, 531833, Note_on_c, 6, 66, 127
1, 531969, Note_off_c, 6, 66, 127
1, 531970, Note_on_c, 4, 64, 127
1, 532106, Note_off_c, 4, 64, 127
1, 532106, Note_off_c, 12, 47, 127
1, 532107, Note_on_c, 2, 50, 127
1, 532107, Note_on_c, 2, 62, 127
1, 532243, Note_off_c, 2, 62, 127
1, 532244, Note_on_c, 4, 64, 127
1, 532380, Note_off_c, 4, 64, 127
1, 532380, Note_off_c, 2, 50, 127
1, 532381, Note_on_c, 12, 59, 127
1, 532381, Note_on_c, 6, 66, 127
1, 532518, Note_on_c, 12, 71, 127
1, 532654, Note_off_c, 12, 71, 127
1, 532654, Note_off_c, 12, 59, 127
1, 532655, Note_on_c, 6, 54, 127
1, 532655, Note_on_c, 11, 70, 127
1, 532791, Note_off_c, 11, 70, 127
1, 532792, Note_on_c, 12, 71, 127
1, 532923, Note_off_c, 6, 66, 127
1, 532927, Note_off_c, 12, 71, 127
1, 532927, Note_off_c, 6, 54, 127
1, 532928, Note_on_c, 2, 50, 127
1, 532928, Note_on_c, 6, 66, 127
1, 533064, Note_off_c, 6, 66, 127
1, 533065, Note_on_c, 4, 64, 127
1, 533201, Note_off_c, 4, 64, 127
1, 533201, Note_off_c, 2, 50, 127
1, 533202, Note_on_c, 6, 54, 127
1, 533202, Note_on_c, 2, 62, 127
1, 533338, Note_off_c, 2, 62, 127
1, 533339, Note_on_c, 4, 64, 127
1, 533475, Note_off_c, 4, 64, 127
1, 533475, Note_off_c, 6, 54, 127
1, 533476, Note_on_c, 12, 59, 127
1, 533476, Note_on_c, 6, 66, 127
1, 533613, Note_on_c, 12, 71, 127
1, 533749, Note_off_c, 12, 71, 127
1, 533749, Note_off_c, 12, 59, 127
1, 533750, Note_on_c, 6, 54, 127
1, 533750, Note_on_c, 11, 70, 127
1, 533886, Note_off_c, 11, 70, 127
1, 533887, Note_on_c, 12, 71, 127
1, 534018, Note_off_c, 6, 66, 127
1, 534022, Note_off_c, 12, 71, 127
1, 534022, Note_off_c, 6, 54, 127
1, 534023, Note_on_c, 4, 52, 127
1, 534023, Note_on_c, 4, 64, 127
1, 534159, Note_off_c, 4, 64, 127
1, 534160, Note_on_c, 2, 62, 127
1, 534296, Note_off_c, 2, 62, 127
1, 534296, Note_off_c, 4, 52, 127
1, 534297, Note_on_c, 7, 55, 127
1, 534297, Note_on_c, 1, 61, 127
1, 534433, Note_off_c, 1, 61, 127
1, 534434, Note_on_c, 2, 62, 127
1, 534570, Note_off_c, 2, 62, 127
1, 534570, Note_off_c, 7, 55, 127
1, 534571, Note_on_c, 12, 59, 127
1, 534571, Note_on_c, 4, 64, 127
1, 534708, Note_on_c, 12, 71, 127
1, 534844, Note_off_c, 12, 71, 127
1, 534844, Note_off_c, 12, 59, 127
1, 534845, Note_on_c, 7, 55, 127
1, 534845, Note_on_c, 11, 70, 127
1, 534981, Note_off_c, 11, 70, 127
1, 534982, Note_on_c, 12, 71, 127
1, 535113, Note_off_c, 4, 64, 127
1, 535117, Note_off_c, 12, 71, 127
1, 535117, Note_off_c, 7, 55, 127
1, 535118, Note_on_c, 4, 52, 127
1, 535118, Note_on_c, 4, 64, 127
1, 535254, Note_off_c, 4, 64, 127
1, 535255, Note_on_c, 2, 62, 127
1, 535391, Note_off_c, 2, 62, 127
1, 535391, Note_off_c, 4, 52, 127
1, 535392, Note_on_c, 7, 55, 127
1, 535392, Note_on_c, 1, 61, 127
1, 535528, Note_off_c, 1, 61, 127
1, 535529, Note_on_c, 2, 62, 127
1, 535665, Note_off_c, 2, 62, 127
1, 535665, Note_off_c, 7, 55, 127
1, 535666, Note_on_c, 12, 59, 127
1, 535666, Note_on_c, 4, 64, 127
1, 535803, Note_on_c, 12, 71, 127
1, 535939, Note_off_c, 12, 71, 127
1, 535939, Note_off_c, 12, 59, 127
1, 535940, Note_on_c, 7, 55, 127
1, 535940, Note_on_c, 11, 70, 127
1, 536076, Note_off_c, 11, 70, 127
1, 536077, Note_on_c, 12, 71, 127
1, 536208, Note_off_c, 4, 64, 127
1, 536212, Note_off_c, 12, 71, 127
1, 536212, Note_off_c, 7, 55, 127
1, 536213, Note_on_c, 6, 54, 127
1, 536213, Note_on_c, 4, 64, 127
1, 536349, Note_off_c, 4, 64, 127
1, 536350, Note_on_c, 2, 62, 127
1, 536486, Note_off_c, 2, 62, 127
1, 536486, Note_off_c, 6, 54, 127
1, 536487, Note_on_c, 12, 59, 127
1, 536487, Note_on_c, 1, 61, 127
1, 536623, Note_off_c, 1, 61, 127
1, 536624, Note_on_c, 2, 62, 127
1, 536760, Note_off_c, 2, 62, 127
1, 536760, Note_off_c, 12, 59, 127
1, 536761, Note_on_c, 11, 58, 127
1, 536761, Note_on_c, 4, 64, 127
1, 536898, Note_on_c, 11, 70, 127
1, 537034, Note_off_c, 11, 70, 127
1, 537034, Note_off_c, 11, 58, 127
1, 537035, Note_on_c, 1, 61, 127
1, 537035, Note_on_c, 8, 68, 127
1, 537171, Note_off_c, 8, 68, 127
1, 537172, Note_off_c, 4, 64, 127
1, 537172, Note_on_c, 11, 70, 127
1, 537308, Note_off_c, 11, 70, 127
1, 537308, Note_off_c, 1, 61, 127
1, 537309, Note_on_c, 6, 54, 127
1, 537309, Note_on_c, 4, 64, 127
1, 537445, Note_off_c, 4, 64, 127
1, 537446, Note_on_c, 2, 62, 127
1, 537582, Note_off_c, 2, 62, 127
1, 537582, Note_off_c, 6, 54, 127
1, 537583, Note_on_c, 12, 59, 127
1, 537583, Note_on_c, 1, 61, 127
1, 537719, Note_off_c, 1, 61, 127
1, 537720, Note_on_c, 2, 62, 127
1, 537856, Note_off_c, 2, 62, 127
1, 537856, Note_off_c, 12, 59, 127
1, 537857, Note_on_c, 11, 58, 127
1, 537857, Note_on_c, 4, 64, 127
1, 537994, Note_on_c, 11, 70, 127
1, 538128, Note_off_c, 4, 64, 127
1, 538129, Note_off_c, 11, 70, 127
1, 538129, Note_off_c, 11, 58, 127
1, 538130, Note_on_c, 1, 61, 127
1, 538130, Note_on_c, 8, 68, 127
1, 538266, Note_off_c, 8, 68, 127
1, 538267, Note_on_c, 11, 70, 127
1, 538403, Note_off_c, 11, 70, 127
1, 538403, Note_off_c, 1, 61, 127
1, 538404, Note_on_c, 12, 47, 127
1, 538404, Note_on_c, 12, 71, 127
1, 538543, Note_on_c, 12, 59, 127
1, 538679, Note_off_c, 12, 71, 127
1, 538680, Note_off_c, 12, 59, 127
1, 538680, Note_off_c, 12, 47, 127
1, 538697, Note_on_c, 12, 71, 127
1, 538697, Note_on_c, 12, 59, 127
1, 538834, Note_off_c, 12, 59, 127
1, 538834, Note_off_c, 12, 71, 127
1, 538835, Note_on_c, 12, 71, 127
1, 538835, Note_on_c, 12, 59, 127
1, 538972, Note_off_c, 12, 59, 127
1, 538972, Note_off_c, 12, 71, 127
1, 538973, Note_on_c, 10, 69, 127
1, 538973, Note_on_c, 10, 57, 127
1, 539110, Note_off_c, 10, 57, 127
1, 539110, Note_off_c, 10, 69, 127
1, 539111, Note_on_c, 10, 69, 127
1, 539111, Note_on_c, 10, 57, 127
1, 539248, Note_off_c, 10, 57, 127
1, 539248, Note_off_c, 10, 69, 127
1, 539249, Note_on_c, 7, 67, 127
1, 539249, Note_on_c, 7, 55, 127
1, 539386, Note_off_c, 7, 55, 127
1, 539386, Note_off_c, 7, 67, 127
1, 539387, Note_on_c, 7, 67, 127
1, 539387, Note_on_c, 7, 55, 127
1, 539524, Note_off_c, 7, 55, 127
1, 539524, Note_off_c, 7, 67, 127
1, 539525, Note_on_c, 6, 66, 127
1, 539525, Note_on_c, 6, 54, 127
1, 539662, Note_off_c, 6, 54, 127
1, 539662, Note_off_c, 6, 66, 127
1, 539663, Note_on_c, 6, 66, 127
1, 539663, Note_on_c, 6, 54, 127
1, 539800, Note_off_c, 6, 54, 127
1, 539800, Note_off_c, 6, 66, 127
1, 539801, Note_on_c, 4, 64, 127
1, 539801, Note_on_c, 4, 52, 127
1, 539938, Note_off_c, 4, 52, 127
1, 539938, Note_off_c, 4, 64, 127
1, 539939, Note_on_c, 4, 64, 127
1, 539939, Note_on_c, 4, 52, 127
1, 540076, Note_off_c, 4, 52, 127
1, 540076, Note_off_c, 4, 64, 127
1, 540077, Note_on_c, 2, 62, 127
1, 540077, Note_on_c, 2, 50, 127
1, 540214, Note_off_c, 2, 50, 127
1, 540214, Note_off_c, 2, 62, 127
1, 540215, Note_on_c, 2, 62, 127
1, 540215, Note_on_c, 2, 50, 127
1, 540352, Note_off_c, 2, 50, 127
1, 540352, Note_off_c, 2, 62, 127
1, 540353, Note_on_c, 1, 61, 127
1, 540353, Note_on_c, 1, 49, 127
1, 540490, Note_off_c, 1, 49, 127
1, 540490, Note_off_c, 1, 61, 127
1, 540491, Note_on_c, 1, 61, 127
1, 540491, Note_on_c, 1, 49, 127
1, 540628, Note_off_c, 1, 49, 127
1, 540628, Note_off_c, 1, 61, 127
1, 540629, Note_on_c, 12, 59, 127
1, 540629, Note_on_c, 12, 47, 127
1, 540766, Note_off_c, 12, 47, 127
1, 540766, Note_off_c, 12, 59, 127
1, 540767, Note_on_c, 12, 59, 127
1, 540767, Note_on_c, 12, 47, 127
1, 540904, Note_off_c, 12, 47, 127
1, 540904, Note_off_c, 12, 59, 127
1, 540905, Note_on_c, 2, 62, 127
1, 540905, Note_on_c, 2, 50, 127
1, 541042, Note_off_c, 2, 50, 127
1, 541042, Note_off_c, 2, 62, 127
1, 541043, Note_on_c, 2, 62, 127
1, 541043, Note_on_c, 2, 50, 127
1, 541180, Note_off_c, 2, 50, 127
1, 541180, Note_off_c, 2, 62, 127
1, 541181, Note_on_c, 4, 64, 127
1, 541181, Note_on_c, 4, 52, 127
1, 541318, Note_off_c, 4, 52, 127
1, 541318, Note_off_c, 4, 64, 127
1, 541319, Note_on_c, 4, 64, 127
1, 541319, Note_on_c, 4, 52, 127
1, 541456, Note_off_c, 4, 52, 127
1, 541456, Note_off_c, 4, 64, 127
1, 541457, Note_on_c, 6, 66, 127
1, 541457, Note_on_c, 6, 54, 127
1, 541594, Note_off_c, 6, 54, 127
1, 541594, Note_off_c, 6, 66, 127
1, 541595, Note_on_c, 6, 66, 127
1, 541595, Note_on_c, 6, 54, 127
1, 541732, Note_off_c, 6, 54, 127
1, 541732, Note_off_c, 6, 66, 127
1, 541733, Note_on_c, 7, 67, 127
1, 541733, Note_on_c, 7, 55, 127
1, 541872, Note_off_c, 7, 55, 127
1, 541872, Note_off_c, 7, 67, 127
1, 541882, Note_on_c, 7, 67, 127
1, 541882, Note_on_c, 7, 55, 127
1, 542021, Note_off_c, 7, 55, 127
1, 542021, Note_off_c, 7, 67, 127
1, 542029, Note_on_c, 2, 50, 127
1, 542029, Note_on_c, 2, 62, 127
1, 542168, Note_off_c, 2, 62, 127
1, 542168, Note_off_c, 2, 50, 127
1, 542169, Note_on_c, 2, 50, 127
1, 542169, Note_on_c, 2, 62, 127
1, 542308, Note_off_c, 2, 62, 127
1, 542308, Note_off_c, 2, 50, 127
1, 542309, Note_on_c, 4, 52, 127
1, 542309, Note_on_c, 4, 64, 127
1, 542448, Note_off_c, 4, 64, 127
1, 542448, Note_off_c, 4, 52, 127
1, 542449, Note_on_c, 4, 52, 127
1, 542449, Note_on_c, 4, 64, 127
1, 542588, Note_off_c, 4, 64, 127
1, 542588, Note_off_c, 4, 52, 127
1, 542589, Note_on_c, 6, 54, 127
1, 542589, Note_on_c, 6, 66, 127
1, 542728, Note_off_c, 6, 66, 127
1, 542728, Note_off_c, 6, 54, 127
1, 542729, Note_on_c, 6, 54, 127
1, 542729, Note_on_c, 6, 66, 127
1, 542868, Note_off_c, 6, 66, 127
1, 542868, Note_off_c, 6, 54, 127
1, 542869, Note_on_c, 7, 55, 127
1, 542869, Note_on_c, 7, 67, 127
1, 543008, Note_off_c, 7, 67, 127
1, 543008, Note_off_c, 7, 55, 127
1, 543009, Note_on_c, 7, 55, 127
1, 543009, Note_on_c, 7, 67, 127
1, 543148, Note_off_c, 7, 67, 127
1, 543148, Note_off_c, 7, 55, 127
1, 543160, Note_on_c, 2, 50, 127
1, 543160, Note_on_c, 2, 62, 127
1, 543301, Note_off_c, 2, 62, 127
1, 543301, Note_off_c, 2, 50, 127
1, 543307, Note_on_c, 2, 62, 127
1, 543307, Note_on_c, 2, 50, 127
1, 543448, Note_off_c, 2, 50, 127
1, 543448, Note_off_c, 2, 62, 127
1, 543449, Note_on_c, 4, 64, 127
1, 543449, Note_on_c, 4, 52, 127
1, 543590, Note_off_c, 4, 52, 127
1, 543590, Note_off_c, 4, 64, 127
1, 543591, Note_on_c, 4, 64, 127
1, 543591, Note_on_c, 4, 52, 127
1, 543732, Note_off_c, 4, 52, 127
1, 543732, Note_off_c, 4, 64, 127
1, 543733, Note_on_c, 6, 66, 127
1, 543733, Note_on_c, 6, 54, 127
1, 543874, Note_off_c, 6, 54, 127
1, 543874, Note_off_c, 6, 66, 127
1, 543875, Note_on_c, 6, 66, 127
1, 543875, Note_on_c, 6, 54, 127
1, 544016, Note_off_c, 6, 54, 127
1, 544016, Note_off_c, 6, 66, 127
1, 544017, Note_on_c, 7, 67, 127
1, 544017, Note_on_c, 7, 55, 127
1, 544158, Note_off_c, 7, 55, 127
1, 544158, Note_off_c, 7, 67, 127
1, 544159, Note_on_c, 7, 67, 127
1, 544159, Note_on_c, 7, 55, 127
1, 544300, Note_off_c, 7, 55, 127
1, 544300, Note_off_c, 7, 67, 127
1, 544301, Note_on_c, 4, 64, 127
1, 544301, Note_on_c, 4, 52, 127
1, 544443, Note_off_c, 4, 52, 127
1, 544443, Note_off_c, 4, 64, 127
1, 544445, Note_on_c, 4, 64, 127
1, 544445, Note_on_c, 4, 52, 127
1, 544587, Note_off_c, 4, 52, 127
1, 544587, Note_off_c, 4, 64, 127
1, 544589, Note_on_c, 6, 66, 127
1, 544589, Note_on_c, 6, 54, 127
1, 544731, Note_off_c, 6, 54, 127
1, 544731, Note_off_c, 6, 66, 127
1, 544733, Note_on_c, 6, 66, 127
1, 544733, Note_on_c, 6, 54, 127
1, 544875, Note_off_c, 6, 54, 127
1, 544875, Note_off_c, 6, 66, 127
1, 544877, Note_on_c, 6, 54, 127
1, 544877, Note_on_c, 6, 42, 127
1, 545019, Note_off_c, 6, 42, 127
1, 545019, Note_off_c, 6, 54, 127
1, 545032, Note_on_c, 6, 42, 127
1, 545032, Note_on_c, 6, 54, 127
1, 545187, Note_off_c, 6, 54, 127
1, 545187, Note_off_c, 6, 42, 127
1, 545197, Note_on_c, 12, 59, 127
1, 545197, Note_on_c, 12, 47, 127
1, 545771, Note_off_c, 12, 47, 127
1, 545771, Note_off_c, 12, 59, 127
1, 545885, Note_on_c, 2, 62, 127
1, 545885, Note_on_c, 6, 66, 127
1, 545885, Note_on_c, 12, 71, 127
1, 545885, Note_on_c, 12, 47, 127
1, 545885, Note_on_c, 6, 54, 127
1, 546459, Note_off_c, 6, 54, 127
1, 546459, Note_off_c, 12, 47, 127
1, 546459, Note_off_c, 12, 71, 127
1, 546459, Note_off_c, 6, 66, 127
1, 546459, Note_off_c, 2, 62, 127
1, 546477, Note_on_c, 6, 54, 127
1, 546477, Note_on_c, 6, 66, 127
1, 546477, Note_on_c, 1, 61, 127
1, 546477, Note_on_c, 12, 71, 127
1, 547051, Note_off_c, 12, 71, 127
1, 547051, Note_off_c, 1, 61, 127
1, 547051, Note_off_c, 6, 66, 127
1, 547051, Note_off_c, 6, 54, 127
1, 547069, Note_on_c, 4, 64, 127
1, 547069, Note_on_c, 6, 66, 127
1, 547069, Note_on_c, 11, 70, 127
1, 547069, Note_on_c, 1, 61, 127
1, 547069, Note_on_c, 6, 54, 127
1, 547069, Note_on_c, 6, 42, 127
1, 547643, Note_off_c, 6, 42, 127
1, 547643, Note_off_c, 6, 54, 127
1, 547643, Note_off_c, 1, 61, 127
1, 547643, Note_off_c, 11, 70, 127
1, 547643, Note_off_c, 6, 66, 127
1, 547643, Note_off_c, 4, 64, 127
1, 547661, Note_on_c, 12, 47, 127
1, 547661, Note_on_c, 6, 54, 127
1, 547661, Note_on_c, 12, 59, 127
1, 547661, Note_on_c, 6, 66, 127
1, 547661, Note_on_c, 12, 71, 127
1, 547661, Note_on_c, 2, 62, 127
1, 549962, Note_off_c, 2, 62, 127
1, 549962, Note_off_c, 12, 71, 127
1, 549962, Note_off_c, 6, 66, 127
1, 549962, Note_off_c, 12, 59, 127
1, 549962, Note_off_c, 6, 54, 127
1, 549962, Note_off_c, 12, 47, 127
1, 556032, End_track
0, 0, End_of_file
