0, 0, Header, 1, 3, 384
1, 0, Start_track
1, 0, Tempo, 500000
1, 0, Time_signature, 4, 2, 24, 8
1, 362496, End_track
2, 0, Start_track
2, 0, Text_t, "harpsichord: John Sankey"
2, 0, Program_c, 0, 6
2, 0, Pitch_bend_c, 0, 8192
2, 0, Program_c, 1, 6
2, 0, Pitch_bend_c, 1, 7792
2, 0, Program_c, 2, 6
2, 0, Pitch_bend_c, 2, 7876
2, 0, Program_c, 3, 6
2, 0, Pitch_bend_c, 3, 7952
2, 0, Program_c, 4, 6
2, 0, Pitch_bend_c, 4, 7792
2, 0, Program_c, 5, 6
2, 0, Pitch_bend_c, 5, 8112
2, 0, Program_c, 6, 6
2, 0, Pitch_bend_c, 6, 7712
2, 0, Program_c, 7, 6
2, 0, Pitch_bend_c, 7, 8037
2, 0, Program_c, 8, 6
2, 0, Pitch_bend_c, 8, 7872
2, 0, Program_c, 10, 6
2, 0, Pitch_bend_c, 10, 7712
2, 0, Program_c, 11, 6
2, 0, Pitch_bend_c, 11, 8032
2, 0, Program_c, 12, 6
2, 0, Pitch_bend_c, 12, 7872
2, 0, Title_t, "Track 1"
2, 137, Note_on_c, 4, 64, 127
2, 305, Note_off_c, 4, 64, 127
2, 307, Note_on_c, 8, 68, 127
2, 475, Note_off_c, 8, 68, 127
2, 477, Note_on_c, 4, 64, 127
2, 645, Note_off_c, 4, 64, 127
2, 647, Note_on_c, 12, 71, 127
2, 815, Note_off_c, 12, 71, 127
2, 817, Note_on_c, 12, 59, 127
2, 985, Note_off_c, 12, 59, 127
2, 987, Note_on_c, 3, 63, 127
2, 1155, Note_off_c, 3, 63, 127
2, 1157, Note_on_c, 12, 59, 127
2, 1325, Note_off_c, 12, 59, 127
2, 1327, Note_on_c, 4, 64, 127
2, 1664, Note_off_c, 4, 64, 127
2, 1666, Note_on_c, 4, 64, 127
2, 2003, Note_off_c, 4, 64, 127
2, 2005, Note_on_c, 4, 64, 127
2, 2342, Note_off_c, 4, 64, 127
2, 2344, Note_on_c, 4, 64, 127
2, 2681, Note_off_c, 4, 64, 127
2, 2683, Note_on_c, 6, 66, 127
2, 3020, Note_off_c, 6, 66, 127
2, 3022, Note_on_c, 10, 69, 127
2, 3190, Note_off_c, 10, 69, 127
2, 3192, Note_on_c, 8, 68, 127
2, 3360, Note_off_c, 8, 68, 127
2, 3362, Note_on_c, 6, 66, 127
2, 3699, Note_off_c, 6, 66, 127
2, 3701, Note_on_c, 12, 71, 127
2, 3869, Note_off_c, 12, 71, 127
2, 3871, Note_on_c, 10, 69, 127
2, 4039, Note_off_c, 10, 69, 127
2, 4041, Note_on_c, 8, 68, 127
2, 4378, Note_off_c, 8, 68, 127
2, 4380, Note_on_c, 12, 71, 127
2, 4548, Note_off_c, 12, 71, 127
2, 4550, Note_on_c, 10, 69, 127
2, 4718, Note_off_c, 10, 69, 127
2, 4720, Note_on_c, 8, 68, 127
2, 5057, Note_off_c, 8, 68, 127
2, 5059, Note_on_c, 1, 73, 127
2, 5227, Note_off_c, 1, 73, 127
2, 5229, Note_on_c, 12, 71, 127
2, 5397, Note_off_c, 12, 71, 127
2, 5399, Note_on_c, 11, 70, 127
2, 5567, Note_off_c, 11, 70, 127
2, 5569, Note_on_c, 8, 68, 127
2, 5737, Note_off_c, 8, 68, 127
2, 5739, Note_on_c, 11, 70, 127
2, 5907, Note_off_c, 11, 70, 127
2, 5909, Note_on_c, 6, 66, 127
2, 6077, Note_off_c, 6, 66, 127
2, 6079, Note_on_c, 12, 71, 127
2, 6416, Note_off_c, 12, 71, 127
2, 6418, Note_on_c, 8, 80, 127
2, 6755, Note_off_c, 8, 80, 127
2, 6757, Note_on_c, 11, 70, 127
2, 7209, Note_on_c, 12, 71, 127
2, 7234, Note_off_c, 11, 70, 127
2, 7423, Note_off_c, 12, 71, 127
2, 7435, Note_on_c, 1, 73, 127
2, 7502, Note_on_c, 12, 71, 127
2, 7504, Note_off_c, 1, 73, 127
2, 7569, Note_on_c, 1, 73, 127
2, 7571, Note_off_c, 12, 71, 127
2, 7636, Note_on_c, 12, 71, 127
2, 7638, Note_off_c, 1, 73, 127
2, 7703, Note_on_c, 1, 73, 127
2, 7705, Note_off_c, 12, 71, 127
2, 7772, Note_off_c, 1, 73, 127
2, 7774, Note_on_c, 12, 71, 127
2, 7942, Note_off_c, 12, 71, 127
2, 7944, Note_on_c, 11, 70, 127
2, 8112, Note_off_c, 11, 70, 127
2, 8114, Note_on_c, 12, 71, 127
2, 8283, Note_on_c, 12, 59, 127
2, 8451, Note_off_c, 12, 59, 127
2, 8453, Note_on_c, 3, 63, 127
2, 8621, Note_off_c, 3, 63, 127
2, 8621, Note_off_c, 12, 71, 127
2, 8623, Note_on_c, 12, 59, 127
2, 8623, Note_on_c, 10, 69, 127
2, 8791, Note_off_c, 10, 69, 127
2, 8791, Note_off_c, 12, 59, 127
2, 8793, Note_on_c, 4, 64, 127
2, 8793, Note_on_c, 8, 68, 127
2, 8961, Note_off_c, 4, 64, 127
2, 8963, Note_on_c, 4, 52, 127
2, 9131, Note_off_c, 4, 52, 127
2, 9131, Note_off_c, 8, 68, 127
2, 9133, Note_on_c, 8, 56, 127
2, 9133, Note_on_c, 4, 76, 127
2, 9301, Note_off_c, 8, 56, 127
2, 9303, Note_on_c, 4, 52, 127
2, 9471, Note_off_c, 4, 52, 127
2, 9473, Note_on_c, 12, 59, 127
2, 9810, Note_off_c, 12, 59, 127
2, 9810, Note_off_c, 4, 76, 127
2, 9812, Note_on_c, 12, 59, 127
2, 9812, Note_on_c, 6, 78, 127
2, 9980, Note_off_c, 6, 78, 127
2, 9982, Note_on_c, 4, 76, 127
2, 10150, Note_off_c, 4, 76, 127
2, 10150, Note_off_c, 12, 59, 127
2, 10152, Note_on_c, 12, 59, 127
2, 10152, Note_on_c, 3, 75, 127
2, 10320, Note_off_c, 3, 75, 127
2, 10322, Note_on_c, 4, 76, 127
2, 10490, Note_off_c, 4, 76, 127
2, 10490, Note_off_c, 12, 59, 127
2, 10492, Note_on_c, 12, 59, 127
2, 10492, Note_on_c, 1, 73, 127
2, 10660, Note_off_c, 1, 73, 127
2, 10662, Note_on_c, 3, 75, 127
2, 10830, Note_off_c, 3, 75, 127
2, 10830, Note_off_c, 12, 59, 127
2, 10832, Note_on_c, 1, 61, 127
2, 10832, Note_on_c, 4, 76, 127
2, 11169, Note_off_c, 4, 76, 127
2, 11169, Note_off_c, 1, 61, 127
2, 11171, Note_on_c, 4, 64, 127
2, 11171, Note_on_c, 11, 70, 127
2, 11339, Note_off_c, 4, 64, 127
2, 11341, Note_on_c, 3, 63, 127
2, 11509, Note_off_c, 3, 63, 127
2, 11509, Note_off_c, 11, 70, 127
2, 11511, Note_on_c, 1, 61, 127
2, 11511, Note_on_c, 11, 70, 127
2, 11848, Note_off_c, 1, 61, 127
2, 11850, Note_on_c, 6, 66, 127
2, 12018, Note_off_c, 6, 66, 127
2, 12018, Note_off_c, 11, 70, 127
2, 12020, Note_on_c, 4, 64, 127
2, 12020, Note_on_c, 11, 70, 127
2, 12188, Note_off_c, 11, 70, 127
2, 12188, Note_off_c, 4, 64, 127
2, 12190, Note_on_c, 3, 63, 127
2, 12190, Note_on_c, 12, 71, 127
2, 12527, Note_off_c, 3, 63, 127
2, 12529, Note_on_c, 6, 66, 127
2, 12697, Note_off_c, 6, 66, 127
2, 12699, Note_on_c, 4, 64, 127
2, 12867, Note_off_c, 4, 64, 127
2, 12869, Note_on_c, 3, 63, 127
2, 13038, Note_off_c, 12, 71, 127
2, 13206, Note_off_c, 3, 63, 127
2, 13208, Note_on_c, 8, 68, 127
2, 13208, Note_on_c, 4, 76, 127
2, 13376, Note_off_c, 8, 68, 127
2, 13378, Note_on_c, 4, 64, 127
2, 13546, Note_off_c, 4, 64, 127
2, 13546, Note_off_c, 4, 76, 127
2, 13548, Note_on_c, 3, 63, 127
2, 13548, Note_on_c, 6, 78, 127
2, 13716, Note_off_c, 3, 63, 127
2, 13718, Note_on_c, 1, 61, 127
2, 13886, Note_off_c, 1, 61, 127
2, 13886, Note_off_c, 6, 78, 127
2, 13888, Note_on_c, 3, 63, 127
2, 13888, Note_on_c, 8, 80, 127
2, 14056, Note_off_c, 8, 80, 127
2, 14056, Note_off_c, 3, 63, 127
2, 14058, Note_on_c, 12, 59, 127
2, 14058, Note_on_c, 10, 81, 127
2, 14226, Note_off_c, 10, 81, 127
2, 14226, Note_off_c, 12, 59, 127
2, 14228, Note_on_c, 4, 64, 127
2, 14228, Note_on_c, 8, 80, 127
2, 14565, Note_off_c, 8, 80, 127
2, 14565, Note_off_c, 4, 64, 127
2, 14567, Note_on_c, 1, 73, 127
2, 14567, Note_on_c, 6, 78, 127
2, 14735, Note_off_c, 6, 78, 127
2, 14737, Note_on_c, 4, 76, 127
2, 14905, Note_off_c, 4, 76, 127
2, 14905, Note_off_c, 1, 73, 127
2, 14907, Note_on_c, 3, 63, 127
2, 14907, Note_on_c, 6, 78, 127
2, 15075, Note_off_c, 6, 78, 127
2, 15077, Note_on_c, 12, 83, 127
2, 15245, Note_off_c, 12, 83, 127
2, 15245, Note_off_c, 3, 63, 127
2, 15247, Note_on_c, 4, 64, 127
2, 15247, Note_on_c, 8, 80, 127
2, 15415, Note_off_c, 8, 80, 127
2, 15417, Note_on_c, 4, 76, 127
2, 15585, Note_off_c, 4, 76, 127
2, 15585, Note_off_c, 4, 64, 127
2, 15587, Note_on_c, 4, 64, 127
2, 15587, Note_on_c, 8, 80, 127
2, 15675, Note_on_c, 6, 78, 127
2, 15682, Note_off_c, 8, 80, 127
2, 15744, Note_off_c, 6, 78, 127
2, 15746, Note_on_c, 8, 80, 127
2, 15815, Note_off_c, 8, 80, 127
2, 15817, Note_on_c, 6, 78, 127
2, 16094, Note_off_c, 4, 64, 127
2, 16096, Note_on_c, 3, 63, 127
2, 16096, Note_on_c, 4, 76, 127
2, 16100, Note_off_c, 6, 78, 127
2, 16264, Note_off_c, 4, 76, 127
2, 16264, Note_off_c, 3, 63, 127
2, 16266, Note_on_c, 4, 64, 127
2, 16266, Note_on_c, 4, 76, 127
2, 16603, Note_off_c, 4, 64, 127
2, 16605, Note_on_c, 1, 73, 127
2, 16773, Note_off_c, 4, 76, 127
2, 16775, Note_on_c, 6, 78, 127
2, 16943, Note_off_c, 6, 78, 127
2, 16945, Note_on_c, 3, 75, 127
2, 17282, Note_off_c, 1, 73, 127
2, 17284, Note_on_c, 0, 72, 127
2, 17452, Note_off_c, 3, 75, 127
2, 17454, Note_on_c, 4, 76, 127
2, 17622, Note_off_c, 4, 76, 127
2, 17622, Note_off_c, 0, 72, 127
2, 17624, Note_on_c, 1, 73, 127
2, 17624, Note_on_c, 4, 76, 127
2, 17792, Note_off_c, 4, 76, 127
2, 17794, Note_on_c, 6, 78, 127
2, 17962, Note_off_c, 6, 78, 127
2, 17962, Note_off_c, 1, 73, 127
2, 17964, Note_on_c, 12, 71, 127
2, 17964, Note_on_c, 8, 80, 127
2, 18132, Note_off_c, 12, 71, 127
2, 18134, Note_on_c, 1, 73, 127
2, 18302, Note_off_c, 1, 73, 127
2, 18302, Note_off_c, 8, 80, 127
2, 18304, Note_on_c, 3, 75, 127
2, 18304, Note_on_c, 6, 78, 127
2, 18472, Note_off_c, 6, 78, 127
2, 18474, Note_on_c, 8, 80, 127
2, 18642, Note_off_c, 8, 80, 127
2, 18642, Note_off_c, 3, 75, 127
2, 18644, Note_on_c, 11, 70, 127
2, 18644, Note_on_c, 6, 78, 127
2, 18812, Note_off_c, 6, 78, 127
2, 18814, Note_on_c, 4, 76, 127
2, 18982, Note_off_c, 4, 76, 127
2, 18982, Note_off_c, 11, 70, 127
2, 18984, Note_on_c, 12, 71, 127
2, 18984, Note_on_c, 3, 75, 127
2, 19152, Note_off_c, 12, 71, 127
2, 19154, Note_on_c, 6, 66, 127
2, 19322, Note_off_c, 6, 66, 127
2, 19322, Note_off_c, 3, 75, 127
2, 19324, Note_on_c, 8, 68, 127
2, 19324, Note_on_c, 4, 76, 127
2, 19492, Note_off_c, 4, 76, 127
2, 19494, Note_on_c, 12, 71, 127
2, 19662, Note_off_c, 12, 71, 127
2, 19662, Note_off_c, 8, 68, 127
2, 19664, Note_on_c, 10, 69, 127
2, 19664, Note_on_c, 1, 73, 127
2, 19832, Note_off_c, 1, 73, 127
2, 19834, Note_on_c, 6, 78, 127
2, 20002, Note_off_c, 6, 78, 127
2, 20002, Note_off_c, 10, 69, 127
2, 20004, Note_on_c, 8, 68, 127
2, 20004, Note_on_c, 12, 71, 127
2, 20172, Note_off_c, 12, 71, 127
2, 20174, Note_on_c, 4, 76, 127
2, 20342, Note_off_c, 4, 76, 127
2, 20342, Note_off_c, 8, 68, 127
2, 20344, Note_on_c, 6, 66, 127
2, 20344, Note_on_c, 10, 69, 127
2, 20512, Note_off_c, 10, 69, 127
2, 20514, Note_on_c, 3, 75, 127
2, 20682, Note_off_c, 3, 75, 127
2, 20682, Note_off_c, 6, 66, 127
2, 20684, Note_on_c, 4, 64, 127
2, 20684, Note_on_c, 8, 68, 127
2, 20852, Note_off_c, 8, 68, 127
2, 20854, Note_on_c, 1, 73, 127
2, 21022, Note_off_c, 1, 73, 127
2, 21022, Note_off_c, 4, 64, 127
2, 21024, Note_on_c, 3, 63, 127
2, 21024, Note_on_c, 6, 66, 127
2, 21192, Note_off_c, 6, 66, 127
2, 21194, Note_on_c, 12, 71, 127
2, 21362, Note_off_c, 12, 71, 127
2, 21362, Note_off_c, 3, 63, 127
2, 21364, Note_on_c, 1, 61, 127
2, 21364, Note_on_c, 4, 64, 127
2, 21532, Note_off_c, 4, 64, 127
2, 21534, Note_on_c, 10, 69, 127
2, 21702, Note_off_c, 10, 69, 127
2, 21702, Note_off_c, 1, 61, 127
2, 21704, Note_on_c, 12, 59, 127
2, 21704, Note_on_c, 3, 63, 127
2, 21872, Note_off_c, 3, 63, 127
2, 21874, Note_on_c, 10, 69, 127
2, 22042, Note_off_c, 10, 69, 127
2, 22042, Note_off_c, 12, 59, 127
2, 22044, Note_on_c, 4, 64, 127
2, 22044, Note_on_c, 8, 68, 127
2, 22212, Note_off_c, 8, 68, 127
2, 22214, Note_on_c, 10, 69, 127
2, 22297, Note_off_c, 10, 69, 127
2, 22299, Note_on_c, 12, 71, 127
2, 22382, Note_off_c, 12, 71, 127
2, 22384, Note_on_c, 8, 68, 127
2, 22455, Note_on_c, 6, 66, 127
2, 22480, Note_off_c, 8, 68, 127
2, 22524, Note_off_c, 6, 66, 127
2, 22526, Note_on_c, 8, 68, 127
2, 22595, Note_off_c, 8, 68, 127
2, 22597, Note_on_c, 6, 66, 127
2, 22879, Note_off_c, 6, 66, 127
2, 22891, Note_off_c, 4, 64, 127
2, 22893, Note_on_c, 3, 63, 127
2, 22893, Note_on_c, 8, 68, 127
2, 23061, Note_off_c, 8, 68, 127
2, 23061, Note_off_c, 3, 63, 127
2, 23063, Note_on_c, 4, 64, 127
2, 23063, Note_on_c, 8, 68, 127
2, 23231, Note_off_c, 4, 64, 127
2, 23233, Note_on_c, 4, 52, 127
2, 23401, Note_off_c, 4, 52, 127
2, 23401, Note_off_c, 8, 68, 127
2, 23403, Note_on_c, 8, 56, 127
2, 23403, Note_on_c, 12, 71, 127
2, 23571, Note_off_c, 12, 71, 127
2, 23571, Note_off_c, 8, 56, 127
2, 23573, Note_on_c, 4, 52, 127
2, 23573, Note_on_c, 8, 68, 127
2, 23741, Note_off_c, 8, 68, 127
2, 23741, Note_off_c, 4, 52, 127
2, 23743, Note_on_c, 12, 59, 127
2, 23743, Note_on_c, 6, 66, 127
2, 23911, Note_off_c, 12, 59, 127
2, 23913, Note_on_c, 12, 47, 127
2, 24081, Note_off_c, 12, 47, 127
2, 24081, Note_off_c, 6, 66, 127
2, 24083, Note_on_c, 3, 51, 127
2, 24083, Note_on_c, 3, 63, 127
2, 24083, Note_on_c, 12, 71, 127
2, 24251, Note_off_c, 3, 51, 127
2, 24253, Note_on_c, 12, 47, 127
2, 24421, Note_off_c, 12, 47, 127
2, 24421, Note_off_c, 12, 71, 127
2, 24421, Note_off_c, 3, 63, 127
2, 24423, Note_on_c, 4, 52, 127
2, 24423, Note_on_c, 4, 64, 127
2, 24423, Note_on_c, 8, 68, 127
2, 24760, Note_off_c, 4, 64, 127
2, 24760, Note_off_c, 4, 52, 127
2, 24762, Note_on_c, 4, 52, 127
2, 24762, Note_on_c, 4, 76, 127
2, 24930, Note_off_c, 4, 76, 127
2, 24932, Note_on_c, 3, 75, 127
2, 25100, Note_off_c, 3, 75, 127
2, 25100, Note_off_c, 4, 52, 127
2, 25102, Note_on_c, 4, 52, 127
2, 25102, Note_on_c, 1, 73, 127
2, 25270, Note_off_c, 1, 73, 127
2, 25272, Note_off_c, 8, 68, 127
2, 25272, Note_on_c, 3, 75, 127
2, 25440, Note_off_c, 3, 75, 127
2, 25440, Note_off_c, 4, 52, 127
2, 25442, Note_on_c, 4, 52, 127
2, 25442, Note_on_c, 1, 73, 127
2, 25442, Note_on_c, 8, 80, 127
2, 25610, Note_off_c, 1, 73, 127
2, 25612, Note_on_c, 12, 71, 127
2, 25780, Note_off_c, 12, 71, 127
2, 25780, Note_off_c, 4, 52, 127
2, 25782, Note_on_c, 6, 54, 127
2, 25782, Note_on_c, 10, 69, 127
2, 26119, Note_off_c, 6, 54, 127
2, 26119, Note_off_c, 8, 80, 127
2, 26121, Note_on_c, 10, 57, 127
2, 26121, Note_on_c, 6, 78, 127
2, 26289, Note_off_c, 6, 78, 127
2, 26289, Note_off_c, 10, 57, 127
2, 26291, Note_on_c, 8, 56, 127
2, 26291, Note_on_c, 4, 76, 127
2, 26459, Note_off_c, 4, 76, 127
2, 26459, Note_off_c, 8, 56, 127
2, 26461, Note_on_c, 6, 54, 127
2, 26461, Note_on_c, 3, 75, 127
2, 26798, Note_off_c, 6, 54, 127
2, 26798, Note_off_c, 10, 69, 127
2, 26800, Note_on_c, 12, 59, 127
2, 26800, Note_on_c, 8, 68, 127
2, 26968, Note_off_c, 8, 68, 127
2, 26968, Note_off_c, 12, 59, 127
2, 26970, Note_on_c, 10, 57, 127
2, 26970, Note_on_c, 6, 66, 127
2, 27138, Note_off_c, 6, 66, 127
2, 27138, Note_off_c, 10, 57, 127
2, 27140, Note_on_c, 8, 56, 127
2, 27140, Note_on_c, 12, 71, 127
2, 27477, Note_off_c, 8, 56, 127
2, 27477, Note_off_c, 3, 75, 127
2, 27479, Note_on_c, 12, 59, 127
2, 27479, Note_on_c, 8, 80, 127
2, 27647, Note_off_c, 8, 80, 127
2, 27647, Note_off_c, 12, 59, 127
2, 27649, Note_on_c, 10, 57, 127
2, 27649, Note_on_c, 6, 78, 127
2, 27817, Note_off_c, 6, 78, 127
2, 27817, Note_off_c, 10, 57, 127
2, 27819, Note_on_c, 8, 56, 127
2, 27819, Note_on_c, 4, 76, 127
2, 28156, Note_off_c, 8, 56, 127
2, 28156, Note_off_c, 12, 71, 127
2, 28158, Note_on_c, 1, 61, 127
2, 28158, Note_on_c, 11, 70, 127
2, 28326, Note_off_c, 11, 70, 127
2, 28326, Note_off_c, 1, 61, 127
2, 28328, Note_on_c, 12, 59, 127
2, 28328, Note_on_c, 8, 68, 127
2, 28496, Note_off_c, 8, 68, 127
2, 28496, Note_off_c, 12, 59, 127
2, 28496, Note_off_c, 4, 76, 127
2, 28498, Note_on_c, 11, 58, 127
2, 28498, Note_on_c, 1, 73, 127
2, 28498, Note_on_c, 6, 78, 127
2, 28666, Note_off_c, 6, 78, 127
2, 28666, Note_off_c, 11, 58, 127
2, 28668, Note_on_c, 8, 56, 127
2, 28668, Note_on_c, 8, 80, 127
2, 28836, Note_off_c, 8, 80, 127
2, 28836, Note_off_c, 8, 56, 127
2, 28838, Note_on_c, 11, 58, 127
2, 28838, Note_on_c, 6, 78, 127
2, 29006, Note_off_c, 6, 78, 127
2, 29006, Note_off_c, 11, 58, 127
2, 29008, Note_on_c, 6, 54, 127
2, 29008, Note_on_c, 4, 76, 127
2, 29176, Note_off_c, 4, 76, 127
2, 29176, Note_off_c, 6, 54, 127
2, 29178, Note_on_c, 12, 59, 127
2, 29178, Note_on_c, 3, 75, 127
2, 29346, Note_off_c, 1, 73, 127
2, 29348, Note_on_c, 1, 73, 127
2, 29516, Note_off_c, 1, 73, 127
2, 29516, Note_off_c, 12, 59, 127
2, 29518, Note_on_c, 8, 68, 127
2, 29518, Note_on_c, 12, 71, 127
2, 29686, Note_off_c, 3, 75, 127
2, 29688, Note_on_c, 4, 76, 127
2, 29856, Note_off_c, 12, 71, 127
2, 29856, Note_off_c, 8, 68, 127
2, 29858, Note_on_c, 11, 58, 127
2, 29858, Note_on_c, 1, 73, 127
2, 30026, Note_off_c, 4, 76, 127
2, 30028, Note_on_c, 6, 78, 127
2, 30196, Note_off_c, 6, 78, 127
2, 30196, Note_off_c, 1, 73, 127
2, 30196, Note_off_c, 11, 58, 127
2, 30198, Note_on_c, 12, 59, 127
2, 30198, Note_on_c, 12, 71, 127
2, 30198, Note_on_c, 3, 75, 127
2, 30366, Note_off_c, 3, 75, 127
2, 30368, Note_on_c, 4, 76, 127
2, 30536, Note_off_c, 4, 76, 127
2, 30536, Note_off_c, 12, 71, 127
2, 30536, Note_off_c, 12, 59, 127
2, 30538, Note_on_c, 12, 59, 127
2, 30538, Note_on_c, 1, 73, 127
2, 30877, Note_on_c, 6, 78, 127
2, 31045, Note_off_c, 6, 78, 127
2, 31045, Note_off_c, 12, 59, 127
2, 31047, Note_on_c, 11, 58, 127
2, 31047, Note_on_c, 4, 76, 127
2, 31215, Note_off_c, 4, 76, 127
2, 31215, Note_off_c, 11, 58, 127
2, 31217, Note_on_c, 12, 59, 127
2, 31217, Note_on_c, 3, 75, 127
2, 31385, Note_off_c, 1, 73, 127
2, 31387, Note_on_c, 6, 66, 127
2, 31555, Note_off_c, 6, 66, 127
2, 31557, Note_on_c, 12, 71, 127
2, 31725, Note_off_c, 12, 59, 127
2, 31727, Note_on_c, 1, 61, 127
2, 31895, Note_off_c, 1, 61, 127
2, 31897, Note_on_c, 3, 63, 127
2, 32065, Note_off_c, 3, 63, 127
2, 32065, Note_off_c, 12, 71, 127
2, 32067, Note_on_c, 1, 61, 127
2, 32067, Note_on_c, 12, 71, 127
2, 32235, Note_off_c, 12, 71, 127
2, 32235, Note_off_c, 1, 61, 127
2, 32237, Note_on_c, 3, 63, 127
2, 32237, Note_on_c, 6, 66, 127
2, 32405, Note_off_c, 6, 66, 127
2, 32405, Note_off_c, 3, 63, 127
2, 32407, Note_on_c, 4, 64, 127
2, 32407, Note_on_c, 8, 68, 127
2, 32575, Note_off_c, 8, 68, 127
2, 32575, Note_off_c, 4, 64, 127
2, 32575, Note_off_c, 3, 75, 127
2, 32577, Note_on_c, 6, 66, 127
2, 32577, Note_on_c, 10, 69, 127
2, 32916, Note_on_c, 1, 73, 127
2, 33084, Note_off_c, 1, 73, 127
2, 33086, Note_on_c, 3, 75, 127
2, 33254, Note_off_c, 3, 75, 127
2, 33254, Note_off_c, 10, 69, 127
2, 33254, Note_off_c, 6, 66, 127
2, 33256, Note_on_c, 8, 68, 127
2, 33256, Note_on_c, 12, 71, 127
2, 33256, Note_on_c, 4, 76, 127
2, 33424, Note_off_c, 4, 76, 127
2, 33426, Note_on_c, 6, 78, 127
2, 33594, Note_off_c, 6, 78, 127
2, 33594, Note_off_c, 12, 71, 127
2, 33594, Note_off_c, 8, 68, 127
2, 33596, Note_on_c, 6, 66, 127
2, 33596, Note_on_c, 2, 74, 127
2, 33596, Note_on_c, 8, 80, 127
2, 33764, Note_off_c, 8, 80, 127
2, 33766, Note_on_c, 10, 81, 127
2, 33934, Note_off_c, 10, 81, 127
2, 33934, Note_off_c, 6, 66, 127
2, 33936, Note_on_c, 5, 65, 127
2, 33936, Note_on_c, 12, 83, 127
2, 34104, Note_off_c, 2, 74, 127
2, 34106, Note_on_c, 1, 73, 127
2, 34274, Note_off_c, 12, 83, 127
2, 34274, Note_off_c, 5, 65, 127
2, 34276, Note_on_c, 6, 66, 127
2, 34276, Note_on_c, 10, 81, 127
2, 34444, Note_off_c, 10, 81, 127
2, 34446, Note_on_c, 12, 83, 127
2, 34614, Note_off_c, 12, 83, 127
2, 34614, Note_off_c, 1, 73, 127
2, 34616, Note_on_c, 12, 71, 127
2, 34616, Note_on_c, 8, 80, 127
2, 34784, Note_off_c, 8, 80, 127
2, 34786, Note_on_c, 6, 78, 127
2, 34954, Note_off_c, 6, 78, 127
2, 34954, Note_off_c, 6, 66, 127
2, 34956, Note_on_c, 4, 64, 127
2, 34956, Note_on_c, 8, 80, 127
2, 35124, Note_off_c, 8, 80, 127
2, 35126, Note_on_c, 10, 81, 127
2, 35294, Note_off_c, 10, 81, 127
2, 35294, Note_off_c, 12, 71, 127
2, 35296, Note_on_c, 11, 70, 127
2, 35296, Note_on_c, 6, 78, 127
2, 35464, Note_off_c, 6, 78, 127
2, 35466, Note_on_c, 4, 76, 127
2, 35634, Note_off_c, 4, 76, 127
2, 35634, Note_off_c, 11, 70, 127
2, 35634, Note_off_c, 4, 64, 127
2, 35636, Note_on_c, 3, 63, 127
2, 35636, Note_on_c, 12, 71, 127
2, 35636, Note_on_c, 6, 78, 127
2, 35804, Note_off_c, 6, 78, 127
2, 35806, Note_on_c, 8, 80, 127
2, 35974, Note_off_c, 8, 80, 127
2, 35974, Note_off_c, 3, 63, 127
2, 35976, Note_on_c, 1, 61, 127
2, 35976, Note_on_c, 4, 76, 127
2, 36144, Note_off_c, 4, 76, 127
2, 36146, Note_on_c, 3, 75, 127
2, 36314, Note_off_c, 3, 75, 127
2, 36314, Note_off_c, 1, 61, 127
2, 36314, Note_off_c, 12, 71, 127
2, 36316, Note_on_c, 6, 66, 127
2, 36316, Note_on_c, 11, 70, 127
2, 36316, Note_on_c, 4, 76, 127
2, 36484, Note_off_c, 4, 76, 127
2, 36486, Note_on_c, 6, 78, 127
2, 36654, Note_off_c, 6, 78, 127
2, 36654, Note_off_c, 11, 70, 127
2, 36654, Note_off_c, 6, 66, 127
2, 36656, Note_on_c, 12, 59, 127
2, 36656, Note_on_c, 12, 71, 127
2, 36656, Note_on_c, 3, 75, 127
2, 36824, Note_off_c, 12, 59, 127
2, 36826, Note_on_c, 12, 47, 127
2, 36994, Note_off_c, 12, 47, 127
2, 36996, Note_on_c, 3, 51, 127
2, 37151, Note_off_c, 3, 75, 127
2, 37151, Note_off_c, 12, 71, 127
2, 37163, Note_off_c, 3, 51, 127
2, 37165, Note_on_c, 12, 47, 127
2, 37333, Note_off_c, 12, 47, 127
2, 37335, Note_on_c, 4, 52, 127
2, 37503, Note_off_c, 4, 52, 127
2, 37505, Note_on_c, 4, 40, 127
2, 37505, Note_on_c, 4, 64, 127
2, 37673, Note_off_c, 4, 64, 127
2, 37673, Note_off_c, 4, 40, 127
2, 37675, Note_on_c, 8, 44, 127
2, 37675, Note_on_c, 4, 64, 127
2, 37843, Note_off_c, 4, 64, 127
2, 37843, Note_off_c, 8, 44, 127
2, 37845, Note_on_c, 4, 40, 127
2, 37845, Note_on_c, 4, 64, 127
2, 38013, Note_off_c, 4, 64, 127
2, 38013, Note_off_c, 4, 40, 127
2, 38015, Note_on_c, 12, 47, 127
2, 38015, Note_on_c, 4, 64, 127
2, 38183, Note_off_c, 4, 64, 127
2, 38185, Note_on_c, 4, 64, 127
2, 38353, Note_off_c, 4, 64, 127
2, 38353, Note_off_c, 12, 47, 127
2, 38355, Note_on_c, 12, 47, 127
2, 38355, Note_on_c, 4, 64, 127
2, 38523, Note_off_c, 4, 64, 127
2, 38525, Note_on_c, 4, 64, 127
2, 38693, Note_off_c, 4, 64, 127
2, 38693, Note_off_c, 12, 47, 127
2, 38695, Note_on_c, 12, 47, 127
2, 38695, Note_on_c, 6, 66, 127
2, 38751, Note_off_c, 6, 66, 127
2, 38751, Note_on_c, 4, 64, 127
2, 38807, Note_off_c, 4, 64, 127
2, 38807, Note_on_c, 6, 66, 127
2, 38863, Note_off_c, 6, 66, 127
2, 38863, Note_on_c, 4, 64, 127
2, 38919, Note_off_c, 4, 64, 127
2, 38919, Note_on_c, 6, 66, 127
2, 38975, Note_off_c, 6, 66, 127
2, 38975, Note_on_c, 4, 64, 127
2, 39030, Note_off_c, 12, 47, 127
2, 39032, Note_on_c, 12, 47, 127
2, 39187, Note_off_c, 4, 64, 127
2, 39201, Note_on_c, 3, 63, 127
2, 39369, Note_off_c, 3, 63, 127
2, 39369, Note_off_c, 12, 47, 127
2, 39371, Note_on_c, 1, 49, 127
2, 39371, Note_on_c, 4, 64, 127
2, 39539, Note_off_c, 4, 64, 127
2, 39541, Note_on_c, 3, 63, 127
2, 39709, Note_off_c, 3, 63, 127
2, 39709, Note_off_c, 1, 49, 127
2, 39711, Note_on_c, 4, 52, 127
2, 39711, Note_on_c, 1, 61, 127
2, 39879, Note_off_c, 1, 61, 127
2, 39879, Note_off_c, 4, 52, 127
2, 39881, Note_on_c, 3, 51, 127
2, 39881, Note_on_c, 3, 63, 127
2, 40049, Note_off_c, 3, 63, 127
2, 40049, Note_off_c, 3, 51, 127
2, 40051, Note_on_c, 1, 49, 127
2, 40051, Note_on_c, 4, 64, 127
2, 40388, Note_off_c, 4, 64, 127
2, 40388, Note_off_c, 1, 49, 127
2, 40390, Note_on_c, 6, 54, 127
2, 40390, Note_on_c, 1, 61, 127
2, 40558, Note_off_c, 6, 54, 127
2, 40560, Note_on_c, 4, 52, 127
2, 40728, Note_off_c, 4, 52, 127
2, 40728, Note_off_c, 1, 61, 127
2, 40730, Note_on_c, 3, 51, 127
2, 40730, Note_on_c, 6, 66, 127
2, 40898, Note_off_c, 6, 66, 127
2, 40900, Note_on_c, 4, 64, 127
2, 41068, Note_off_c, 4, 64, 127
2, 41068, Note_off_c, 3, 51, 127
2, 41070, Note_on_c, 6, 54, 127
2, 41070, Note_on_c, 3, 63, 127
2, 41238, Note_off_c, 3, 63, 127
2, 41238, Note_off_c, 6, 54, 127
2, 41240, Note_on_c, 4, 52, 127
2, 41240, Note_on_c, 4, 64, 127
2, 41408, Note_off_c, 4, 64, 127
2, 41408, Note_off_c, 4, 52, 127
2, 41410, Note_on_c, 3, 51, 127
2, 41410, Note_on_c, 6, 66, 127
2, 41747, Note_off_c, 6, 66, 127
2, 41747, Note_off_c, 3, 51, 127
2, 41749, Note_on_c, 8, 56, 127
2, 41749, Note_on_c, 12, 59, 127
2, 41917, Note_off_c, 8, 56, 127
2, 41919, Note_on_c, 4, 52, 127
2, 42087, Note_off_c, 4, 52, 127
2, 42089, Note_on_c, 3, 51, 127
2, 42257, Note_off_c, 3, 51, 127
2, 42259, Note_on_c, 1, 49, 127
2, 42427, Note_off_c, 1, 49, 127
2, 42427, Note_off_c, 12, 59, 127
2, 42429, Note_on_c, 3, 51, 127
2, 42429, Note_on_c, 12, 71, 127
2, 42597, Note_off_c, 12, 71, 127
2, 42597, Note_off_c, 3, 51, 127
2, 42599, Note_on_c, 12, 47, 127
2, 42599, Note_on_c, 10, 69, 127
2, 42767, Note_off_c, 10, 69, 127
2, 42767, Note_off_c, 12, 47, 127
2, 42769, Note_on_c, 4, 52, 127
2, 42769, Note_on_c, 8, 68, 127
2, 43106, Note_off_c, 8, 68, 127
2, 43106, Note_off_c, 4, 52, 127
2, 43108, Note_on_c, 1, 61, 127
2, 43108, Note_on_c, 6, 66, 127
2, 43276, Note_off_c, 6, 66, 127
2, 43278, Note_on_c, 4, 64, 127
2, 43446, Note_off_c, 4, 64, 127
2, 43446, Note_off_c, 1, 61, 127
2, 43448, Note_on_c, 3, 51, 127
2, 43448, Note_on_c, 1, 73, 127
2, 43616, Note_off_c, 1, 73, 127
2, 43618, Note_on_c, 12, 71, 127
2, 43786, Note_off_c, 12, 71, 127
2, 43786, Note_off_c, 3, 51, 127
2, 43788, Note_on_c, 4, 52, 127
2, 43788, Note_on_c, 10, 69, 127
2, 43956, Note_off_c, 10, 69, 127
2, 43958, Note_on_c, 8, 68, 127
2, 44126, Note_off_c, 8, 68, 127
2, 44126, Note_off_c, 4, 52, 127
2, 44128, Note_on_c, 4, 52, 127
2, 44128, Note_on_c, 6, 66, 127
2, 44296, Note_off_c, 6, 66, 127
2, 44298, Note_on_c, 8, 68, 127
2, 44466, Note_off_c, 8, 68, 127
2, 44468, Note_on_c, 10, 69, 127
2, 44636, Note_off_c, 10, 69, 127
2, 44636, Note_off_c, 4, 52, 127
2, 44638, Note_on_c, 3, 51, 127
2, 44638, Note_on_c, 12, 71, 127
2, 44806, Note_off_c, 12, 71, 127
2, 44806, Note_off_c, 3, 51, 127
2, 44808, Note_on_c, 4, 52, 127
2, 44808, Note_on_c, 8, 68, 127
2, 44976, Note_off_c, 8, 68, 127
2, 44978, Note_on_c, 4, 64, 127
2, 45146, Note_off_c, 4, 64, 127
2, 45148, Note_on_c, 8, 68, 127
2, 45316, Note_off_c, 8, 68, 127
2, 45318, Note_on_c, 4, 64, 127
2, 45486, Note_off_c, 4, 64, 127
2, 45488, Note_on_c, 12, 71, 127
2, 45656, Note_off_c, 12, 71, 127
2, 45658, Note_off_c, 4, 52, 127
2, 45658, Note_on_c, 12, 59, 127
2, 45826, Note_off_c, 12, 59, 127
2, 45828, Note_on_c, 8, 56, 127
2, 45828, Note_on_c, 3, 63, 127
2, 45996, Note_off_c, 3, 63, 127
2, 45998, Note_on_c, 12, 59, 127
2, 46166, Note_off_c, 12, 59, 127
2, 46166, Note_off_c, 8, 56, 127
2, 46168, Note_on_c, 1, 49, 127
2, 46168, Note_on_c, 4, 64, 127
2, 46336, Note_off_c, 4, 64, 127
2, 46338, Note_on_c, 1, 61, 127
2, 46506, Note_off_c, 1, 61, 127
2, 46508, Note_on_c, 4, 64, 127
2, 46676, Note_off_c, 4, 64, 127
2, 46678, Note_on_c, 1, 61, 127
2, 46846, Note_off_c, 1, 61, 127
2, 46848, Note_on_c, 11, 70, 127
2, 47017, Note_off_c, 1, 49, 127
2, 47017, Note_on_c, 11, 58, 127
2, 47185, Note_off_c, 11, 58, 127
2, 47187, Note_on_c, 6, 54, 127
2, 47187, Note_on_c, 1, 61, 127
2, 47355, Note_off_c, 1, 61, 127
2, 47357, Note_on_c, 11, 58, 127
2, 47525, Note_off_c, 11, 58, 127
2, 47525, Note_off_c, 6, 54, 127
2, 47527, Note_on_c, 12, 47, 127
2, 47527, Note_on_c, 3, 63, 127
2, 47695, Note_off_c, 3, 63, 127
2, 47697, Note_on_c, 12, 59, 127
2, 47865, Note_off_c, 12, 59, 127
2, 47867, Note_on_c, 3, 63, 127
2, 48035, Note_off_c, 3, 63, 127
2, 48037, Note_on_c, 12, 59, 127
2, 48205, Note_off_c, 12, 59, 127
2, 48205, Note_off_c, 11, 70, 127
2, 48207, Note_on_c, 8, 68, 127
2, 48376, Note_off_c, 12, 47, 127
2, 48376, Note_on_c, 8, 56, 127
2, 48544, Note_off_c, 8, 56, 127
2, 48546, Note_on_c, 4, 52, 127
2, 48546, Note_on_c, 12, 59, 127
2, 48714, Note_off_c, 12, 59, 127
2, 48716, Note_on_c, 8, 56, 127
2, 48884, Note_off_c, 8, 56, 127
2, 48884, Note_off_c, 8, 68, 127
2, 48886, Note_on_c, 11, 58, 127
2, 48886, Note_on_c, 6, 66, 127
2, 49054, Note_off_c, 11, 58, 127
2, 49056, Note_on_c, 6, 54, 127
2, 49224, Note_off_c, 6, 54, 127
2, 49224, Note_off_c, 4, 52, 127
2, 49226, Note_on_c, 3, 51, 127
2, 49226, Note_on_c, 12, 59, 127
2, 49394, Note_off_c, 6, 66, 127
2, 49396, Note_on_c, 8, 68, 127
2, 49564, Note_off_c, 8, 68, 127
2, 49564, Note_off_c, 3, 51, 127
2, 49566, Note_on_c, 1, 49, 127
2, 49566, Note_on_c, 4, 64, 127
2, 49734, Note_off_c, 12, 59, 127
2, 49736, Note_on_c, 12, 59, 127
2, 49904, Note_off_c, 12, 59, 127
2, 49904, Note_off_c, 1, 49, 127
2, 49906, Note_on_c, 6, 54, 127
2, 49906, Note_on_c, 11, 58, 127
2, 50074, Note_off_c, 4, 64, 127
2, 50076, Note_on_c, 6, 66, 127
2, 50244, Note_off_c, 6, 66, 127
2, 50244, Note_off_c, 11, 58, 127
2, 50244, Note_off_c, 6, 54, 127
2, 50246, Note_on_c, 12, 47, 127
2, 50246, Note_on_c, 12, 59, 127
2, 50246, Note_on_c, 3, 63, 127
2, 50414, Note_off_c, 3, 63, 127
2, 50416, Note_on_c, 12, 71, 127
2, 50584, Note_off_c, 12, 71, 127
2, 50584, Note_off_c, 12, 59, 127
2, 50584, Note_off_c, 12, 47, 127
2, 50586, Note_on_c, 6, 54, 127
2, 50586, Note_on_c, 10, 57, 127
2, 50586, Note_on_c, 3, 75, 127
2, 50754, Note_off_c, 3, 75, 127
2, 50756, Note_on_c, 12, 71, 127
2, 50924, Note_off_c, 12, 71, 127
2, 50924, Note_off_c, 10, 57, 127
2, 50924, Note_off_c, 6, 54, 127
2, 50926, Note_on_c, 4, 52, 127
2, 50926, Note_on_c, 8, 56, 127
2, 50926, Note_on_c, 4, 76, 127
2, 51094, Note_off_c, 4, 76, 127
2, 51096, Note_on_c, 4, 64, 127
2, 51264, Note_off_c, 4, 64, 127
2, 51264, Note_off_c, 8, 56, 127
2, 51264, Note_off_c, 4, 52, 127
2, 51266, Note_on_c, 4, 52, 127
2, 51266, Note_on_c, 8, 56, 127
2, 51266, Note_on_c, 8, 68, 127
2, 51434, Note_off_c, 8, 68, 127
2, 51436, Note_on_c, 4, 64, 127
2, 51584, Note_off_c, 8, 56, 127
2, 51603, Note_off_c, 4, 64, 127
2, 51603, Note_off_c, 4, 52, 127
2, 51605, Note_on_c, 12, 47, 127
2, 51605, Note_on_c, 6, 54, 127
2, 51605, Note_on_c, 12, 71, 127
2, 51774, Note_on_c, 4, 64, 127
2, 51942, Note_off_c, 4, 64, 127
2, 51942, Note_off_c, 12, 71, 127
2, 51944, Note_on_c, 4, 64, 127
2, 51944, Note_on_c, 12, 71, 127
2, 52112, Note_off_c, 4, 64, 127
2, 52114, Note_on_c, 4, 64, 127
2, 52282, Note_off_c, 4, 64, 127
2, 52282, Note_off_c, 12, 71, 127
2, 52284, Note_on_c, 4, 64, 127
2, 52284, Note_on_c, 12, 71, 127
2, 52621, Note_off_c, 12, 71, 127
2, 52623, Note_on_c, 12, 71, 127
2, 52791, Note_off_c, 4, 64, 127
2, 52793, Note_on_c, 3, 63, 127
2, 52961, Note_off_c, 3, 63, 127
2, 52961, Note_off_c, 12, 71, 127
2, 52961, Note_off_c, 6, 54, 127
2, 52961, Note_off_c, 12, 47, 127
2, 52963, Note_on_c, 8, 56, 127
2, 52963, Note_on_c, 12, 47, 127
2, 52963, Note_on_c, 4, 64, 127
2, 52963, Note_on_c, 1, 73, 127
2, 53300, Note_off_c, 1, 73, 127
2, 53302, Note_on_c, 4, 76, 127
2, 53470, Note_off_c, 4, 76, 127
2, 53472, Note_on_c, 3, 75, 127
2, 53640, Note_off_c, 3, 75, 127
2, 53642, Note_on_c, 1, 73, 127
2, 53811, Note_off_c, 4, 64, 127
2, 53979, Note_off_c, 1, 73, 127
2, 53979, Note_off_c, 12, 47, 127
2, 53979, Note_off_c, 8, 56, 127
2, 53981, Note_on_c, 1, 49, 127
2, 53981, Note_on_c, 11, 46, 127
2, 53981, Note_on_c, 6, 66, 127
2, 53981, Note_on_c, 6, 78, 127
2, 54149, Note_off_c, 6, 78, 127
2, 54151, Note_on_c, 4, 76, 127
2, 54319, Note_off_c, 4, 76, 127
2, 54319, Note_off_c, 6, 66, 127
2, 54319, Note_off_c, 11, 46, 127
2, 54319, Note_off_c, 1, 49, 127
2, 54321, Note_on_c, 12, 47, 127
2, 54321, Note_on_c, 6, 54, 127
2, 54321, Note_on_c, 12, 71, 127
2, 54321, Note_on_c, 3, 75, 127
2, 54658, Note_off_c, 3, 75, 127
2, 54660, Note_on_c, 6, 78, 127
2, 54828, Note_off_c, 6, 78, 127
2, 54830, Note_on_c, 4, 76, 127
2, 54998, Note_off_c, 4, 76, 127
2, 55000, Note_on_c, 3, 75, 127
2, 55169, Note_off_c, 12, 71, 127
2, 55337, Note_off_c, 3, 75, 127
2, 55337, Note_off_c, 6, 54, 127
2, 55337, Note_off_c, 12, 47, 127
2, 55339, Note_on_c, 8, 44, 127
2, 55339, Note_on_c, 4, 52, 127
2, 55339, Note_on_c, 12, 71, 127
2, 55339, Note_on_c, 8, 80, 127
2, 55507, Note_off_c, 8, 80, 127
2, 55509, Note_on_c, 4, 76, 127
2, 55677, Note_off_c, 4, 76, 127
2, 55677, Note_off_c, 12, 71, 127
2, 55677, Note_off_c, 4, 52, 127
2, 55677, Note_off_c, 8, 44, 127
2, 55679, Note_on_c, 12, 47, 127
2, 55679, Note_on_c, 6, 54, 127
2, 55679, Note_on_c, 12, 71, 127
2, 55679, Note_on_c, 3, 75, 127
2, 55847, Note_off_c, 3, 75, 127
2, 55849, Note_on_c, 1, 73, 127
2, 56017, Note_off_c, 1, 73, 127
2, 56017, Note_off_c, 6, 54, 127
2, 56019, Note_on_c, 10, 57, 127
2, 56019, Note_on_c, 3, 75, 127
2, 56174, Note_off_c, 12, 71, 127
2, 56186, Note_off_c, 3, 75, 127
2, 56188, Note_on_c, 12, 71, 127
2, 56350, Note_off_c, 12, 47, 127
2, 56355, Note_off_c, 10, 57, 127
2, 56357, Note_on_c, 8, 56, 127
2, 56357, Note_on_c, 1, 49, 127
2, 56357, Note_on_c, 4, 76, 127
2, 56523, Note_off_c, 12, 71, 127
2, 56694, Note_off_c, 4, 76, 127
2, 56694, Note_off_c, 8, 56, 127
2, 56696, Note_on_c, 6, 54, 127
2, 56696, Note_on_c, 10, 81, 127
2, 56864, Note_off_c, 6, 54, 127
2, 56866, Note_on_c, 4, 52, 127
2, 57028, Note_off_c, 1, 49, 127
2, 57033, Note_off_c, 4, 52, 127
2, 57035, Note_on_c, 3, 51, 127
2, 57035, Note_on_c, 12, 59, 127
2, 57203, Note_off_c, 10, 81, 127
2, 57205, Note_on_c, 12, 83, 127
2, 57373, Note_off_c, 12, 83, 127
2, 57373, Note_off_c, 3, 51, 127
2, 57375, Note_on_c, 4, 52, 127
2, 57375, Note_on_c, 8, 80, 127
2, 57543, Note_off_c, 8, 80, 127
2, 57545, Note_on_c, 10, 81, 127
2, 57713, Note_off_c, 10, 81, 127
2, 57713, Note_off_c, 12, 59, 127
2, 57715, Note_on_c, 10, 57, 127
2, 57715, Note_on_c, 6, 78, 127
2, 57798, Note_off_c, 6, 78, 127
2, 57800, Note_on_c, 4, 76, 127
2, 57883, Note_off_c, 4, 76, 127
2, 57883, Note_off_c, 10, 57, 127
2, 57885, Note_on_c, 6, 54, 127
2, 57885, Note_on_c, 6, 78, 127
2, 58053, Note_off_c, 4, 52, 127
2, 58055, Note_on_c, 3, 51, 127
2, 58221, Note_off_c, 6, 78, 127
2, 58223, Note_off_c, 6, 54, 127
2, 58225, Note_on_c, 12, 59, 127
2, 58225, Note_on_c, 8, 80, 127
2, 58393, Note_off_c, 8, 80, 127
2, 58393, Note_off_c, 12, 59, 127
2, 58395, Note_on_c, 8, 56, 127
2, 58395, Note_on_c, 4, 76, 127
2, 58478, Note_off_c, 4, 76, 127
2, 58480, Note_on_c, 3, 75, 127
2, 58563, Note_off_c, 3, 75, 127
2, 58563, Note_off_c, 8, 56, 127
2, 58565, Note_on_c, 4, 52, 127
2, 58565, Note_on_c, 4, 76, 127
2, 58733, Note_off_c, 3, 51, 127
2, 58735, Note_on_c, 1, 49, 127
2, 58901, Note_off_c, 4, 76, 127
2, 58903, Note_off_c, 4, 52, 127
2, 58905, Note_on_c, 10, 57, 127
2, 58905, Note_on_c, 6, 78, 127
2, 59073, Note_off_c, 6, 78, 127
2, 59073, Note_off_c, 10, 57, 127
2, 59075, Note_on_c, 6, 54, 127
2, 59075, Note_on_c, 3, 75, 127
2, 59158, Note_off_c, 3, 75, 127
2, 59160, Note_on_c, 1, 73, 127
2, 59243, Note_off_c, 1, 73, 127
2, 59243, Note_off_c, 6, 54, 127
2, 59245, Note_on_c, 3, 51, 127
2, 59245, Note_on_c, 3, 75, 127
2, 59413, Note_off_c, 1, 49, 127
2, 59415, Note_on_c, 12, 47, 127
2, 59581, Note_off_c, 3, 75, 127
2, 59583, Note_off_c, 3, 51, 127
2, 59585, Note_on_c, 8, 56, 127
2, 59585, Note_on_c, 4, 76, 127
2, 59753, Note_off_c, 4, 76, 127
2, 59753, Note_off_c, 8, 56, 127
2, 59755, Note_on_c, 4, 52, 127
2, 59755, Note_on_c, 1, 73, 127
2, 59838, Note_off_c, 1, 73, 127
2, 59840, Note_on_c, 12, 71, 127
2, 59923, Note_off_c, 12, 71, 127
2, 59923, Note_off_c, 4, 52, 127
2, 59925, Note_on_c, 1, 49, 127
2, 59925, Note_on_c, 1, 73, 127
2, 60093, Note_off_c, 12, 47, 127
2, 60095, Note_on_c, 10, 45, 127
2, 60261, Note_off_c, 1, 73, 127
2, 60263, Note_off_c, 1, 49, 127
2, 60265, Note_on_c, 6, 54, 127
2, 60265, Note_on_c, 3, 75, 127
2, 60433, Note_off_c, 3, 75, 127
2, 60433, Note_off_c, 10, 45, 127
2, 60435, Note_on_c, 8, 44, 127
2, 60435, Note_on_c, 0, 72, 127
2, 60603, Note_off_c, 0, 72, 127
2, 60605, Note_on_c, 11, 70, 127
2, 60773, Note_off_c, 11, 70, 127
2, 60773, Note_off_c, 6, 54, 127
2, 60775, Note_on_c, 4, 52, 127
2, 60775, Note_on_c, 8, 68, 127
2, 60943, Note_off_c, 8, 68, 127
2, 60943, Note_off_c, 4, 52, 127
2, 60945, Note_on_c, 3, 51, 127
2, 60945, Note_on_c, 3, 75, 127
2, 61113, Note_off_c, 3, 75, 127
2, 61113, Note_off_c, 3, 51, 127
2, 61113, Note_off_c, 8, 44, 127
2, 61115, Note_on_c, 1, 49, 127
2, 61115, Note_on_c, 4, 76, 127
2, 61283, Note_off_c, 4, 76, 127
2, 61285, Note_on_c, 3, 75, 127
2, 61453, Note_off_c, 3, 75, 127
2, 61453, Note_off_c, 1, 49, 127
2, 61455, Note_on_c, 6, 54, 127
2, 61455, Note_on_c, 10, 57, 127
2, 61455, Note_on_c, 1, 61, 127
2, 61455, Note_on_c, 1, 73, 127
2, 61623, Note_off_c, 1, 73, 127
2, 61625, Note_on_c, 3, 75, 127
2, 61793, Note_off_c, 3, 75, 127
2, 61793, Note_off_c, 10, 57, 127
2, 61793, Note_off_c, 6, 54, 127
2, 61795, Note_on_c, 8, 56, 127
2, 61795, Note_on_c, 4, 76, 127
2, 61963, Note_off_c, 4, 76, 127
2, 61965, Note_on_c, 3, 75, 127
2, 62021, Note_off_c, 3, 75, 127
2, 62021, Note_on_c, 4, 76, 127
2, 62077, Note_off_c, 4, 76, 127
2, 62077, Note_on_c, 3, 75, 127
2, 62126, Note_off_c, 1, 61, 127
2, 62133, Note_on_c, 0, 60, 127
2, 62288, Note_off_c, 3, 75, 127
2, 62302, Note_on_c, 1, 73, 127
2, 62470, Note_off_c, 1, 73, 127
2, 62470, Note_off_c, 0, 60, 127
2, 62470, Note_off_c, 8, 56, 127
2, 62472, Note_on_c, 1, 49, 127
2, 62472, Note_on_c, 1, 61, 127
2, 62472, Note_on_c, 1, 73, 127
2, 62640, Note_off_c, 1, 73, 127
2, 62642, Note_on_c, 4, 76, 127
2, 62810, Note_off_c, 4, 76, 127
2, 62812, Note_on_c, 3, 75, 127
2, 62980, Note_off_c, 3, 75, 127
2, 62980, Note_off_c, 1, 61, 127
2, 62982, Note_on_c, 1, 61, 127
2, 62982, Note_on_c, 1, 73, 127
2, 63144, Note_off_c, 1, 49, 127
2, 63149, Note_off_c, 1, 73, 127
2, 63149, Note_off_c, 1, 61, 127
2, 63151, Note_on_c, 3, 63, 127
2, 63151, Note_on_c, 6, 78, 127
2, 63319, Note_off_c, 6, 78, 127
2, 63321, Note_on_c, 1, 73, 127
2, 63489, Note_off_c, 1, 73, 127
2, 63491, Note_on_c, 12, 71, 127
2, 63659, Note_off_c, 12, 71, 127
2, 63659, Note_off_c, 3, 63, 127
2, 63661, Note_on_c, 3, 63, 127
2, 63661, Note_on_c, 10, 69, 127
2, 63829, Note_off_c, 10, 69, 127
2, 63829, Note_off_c, 3, 63, 127
2, 63831, Note_on_c, 4, 64, 127
2, 63831, Note_on_c, 8, 68, 127
2, 63999, Note_off_c, 8, 68, 127
2, 64001, Note_on_c, 8, 80, 127
2, 64169, Note_off_c, 8, 80, 127
2, 64171, Note_on_c, 6, 78, 127
2, 64339, Note_off_c, 6, 78, 127
2, 64339, Note_off_c, 4, 64, 127
2, 64341, Note_on_c, 4, 64, 127
2, 64341, Note_on_c, 4, 76, 127
2, 64509, Note_off_c, 4, 76, 127
2, 64509, Note_off_c, 4, 64, 127
2, 64511, Note_on_c, 6, 66, 127
2, 64511, Note_on_c, 10, 81, 127
2, 64679, Note_off_c, 10, 81, 127
2, 64681, Note_on_c, 4, 76, 127
2, 64849, Note_off_c, 4, 76, 127
2, 64851, Note_on_c, 3, 75, 127
2, 65019, Note_off_c, 3, 75, 127
2, 65019, Note_off_c, 6, 66, 127
2, 65021, Note_on_c, 6, 66, 127
2, 65021, Note_on_c, 1, 73, 127
2, 65189, Note_off_c, 1, 73, 127
2, 65189, Note_off_c, 6, 66, 127
2, 65191, Note_on_c, 8, 68, 127
2, 65191, Note_on_c, 12, 71, 127
2, 65360, Note_on_c, 4, 52, 127
2, 65528, Note_off_c, 4, 52, 127
2, 65530, Note_on_c, 8, 56, 127
2, 65698, Note_off_c, 8, 56, 127
2, 65698, Note_off_c, 12, 71, 127
2, 65700, Note_on_c, 4, 52, 127
2, 65700, Note_on_c, 1, 73, 127
2, 65868, Note_off_c, 1, 73, 127
2, 65868, Note_off_c, 4, 52, 127
2, 65868, Note_off_c, 8, 68, 127
2, 65870, Note_on_c, 12, 59, 127
2, 65870, Note_on_c, 6, 66, 127
2, 65870, Note_on_c, 12, 71, 127
2, 66038, Note_off_c, 12, 71, 127
2, 66038, Note_off_c, 12, 59, 127
2, 66040, Note_on_c, 12, 47, 127
2, 66040, Note_on_c, 1, 73, 127
2, 66208, Note_off_c, 1, 73, 127
2, 66208, Note_off_c, 12, 47, 127
2, 66208, Note_off_c, 6, 66, 127
2, 66210, Note_on_c, 3, 51, 127
2, 66210, Note_on_c, 6, 66, 127
2, 66210, Note_on_c, 12, 71, 127
2, 66378, Note_off_c, 12, 71, 127
2, 66378, Note_off_c, 3, 51, 127
2, 66380, Note_on_c, 12, 47, 127
2, 66380, Note_on_c, 1, 73, 127
2, 66548, Note_off_c, 1, 73, 127
2, 66548, Note_off_c, 12, 47, 127
2, 66548, Note_off_c, 6, 66, 127
2, 66550, Note_on_c, 4, 52, 127
2, 66550, Note_on_c, 8, 68, 127
2, 66550, Note_on_c, 12, 71, 127
2, 66718, Note_off_c, 12, 71, 127
2, 66720, Note_on_c, 1, 73, 127
2, 66888, Note_off_c, 1, 73, 127
2, 66888, Note_off_c, 8, 68, 127
2, 66888, Note_off_c, 4, 52, 127
2, 66890, Note_on_c, 4, 52, 127
2, 66890, Note_on_c, 8, 68, 127
2, 66890, Note_on_c, 12, 71, 127
2, 67058, Note_off_c, 12, 71, 127
2, 67060, Note_on_c, 1, 73, 127
2, 67228, Note_off_c, 1, 73, 127
2, 67228, Note_off_c, 8, 68, 127
2, 67228, Note_off_c, 4, 52, 127
2, 67230, Note_on_c, 4, 52, 127
2, 67230, Note_on_c, 8, 68, 127
2, 67230, Note_on_c, 12, 71, 127
2, 67398, Note_off_c, 12, 71, 127
2, 67400, Note_on_c, 1, 73, 127
2, 67568, Note_off_c, 1, 73, 127
2, 67568, Note_off_c, 8, 68, 127
2, 67568, Note_off_c, 4, 52, 127
2, 67570, Note_on_c, 4, 52, 127
2, 67570, Note_on_c, 8, 68, 127
2, 67570, Note_on_c, 12, 71, 127
2, 67738, Note_off_c, 12, 71, 127
2, 67740, Note_on_c, 1, 73, 127
2, 67908, Note_off_c, 1, 73, 127
2, 67908, Note_off_c, 8, 68, 127
2, 67908, Note_off_c, 4, 52, 127
2, 67910, Note_on_c, 6, 54, 127
2, 67910, Note_on_c, 6, 66, 127
2, 67910, Note_on_c, 10, 69, 127
2, 68247, Note_off_c, 6, 54, 127
2, 68249, Note_on_c, 10, 57, 127
2, 68417, Note_off_c, 10, 57, 127
2, 68419, Note_on_c, 8, 56, 127
2, 68587, Note_off_c, 8, 56, 127
2, 68589, Note_on_c, 6, 54, 127
2, 68758, Note_off_c, 10, 69, 127
2, 68758, Note_off_c, 6, 66, 127
2, 68926, Note_off_c, 6, 54, 127
2, 68928, Note_on_c, 12, 59, 127
2, 68928, Note_on_c, 3, 63, 127
2, 68928, Note_on_c, 6, 66, 127
2, 69096, Note_off_c, 12, 59, 127
2, 69098, Note_on_c, 10, 57, 127
2, 69266, Note_off_c, 10, 57, 127
2, 69266, Note_off_c, 6, 66, 127
2, 69266, Note_off_c, 3, 63, 127
2, 69268, Note_on_c, 8, 56, 127
2, 69268, Note_on_c, 8, 68, 127
2, 69268, Note_on_c, 12, 71, 127
2, 69605, Note_off_c, 8, 56, 127
2, 69607, Note_on_c, 12, 59, 127
2, 69775, Note_off_c, 12, 59, 127
2, 69777, Note_on_c, 10, 57, 127
2, 69945, Note_off_c, 10, 57, 127
2, 69947, Note_on_c, 8, 56, 127
2, 70116, Note_off_c, 12, 71, 127
2, 70116, Note_off_c, 8, 68, 127
2, 70284, Note_off_c, 8, 56, 127
2, 70286, Note_on_c, 1, 61, 127
2, 70286, Note_on_c, 4, 64, 127
2, 70286, Note_on_c, 8, 68, 127
2, 70454, Note_off_c, 1, 61, 127
2, 70456, Note_on_c, 12, 59, 127
2, 70624, Note_off_c, 12, 59, 127
2, 70624, Note_off_c, 8, 68, 127
2, 70626, Note_on_c, 11, 58, 127
2, 70626, Note_on_c, 1, 73, 127
2, 70794, Note_off_c, 11, 58, 127
2, 70796, Note_on_c, 8, 56, 127
2, 70964, Note_off_c, 8, 56, 127
2, 70964, Note_off_c, 4, 64, 127
2, 70966, Note_on_c, 11, 58, 127
2, 70966, Note_on_c, 6, 66, 127
2, 71134, Note_off_c, 11, 58, 127
2, 71136, Note_on_c, 6, 54, 127
2, 71304, Note_off_c, 6, 54, 127
2, 71304, Note_off_c, 1, 73, 127
2, 71306, Note_on_c, 12, 59, 127
2, 71306, Note_on_c, 3, 75, 127
2, 71474, Note_off_c, 12, 59, 127
2, 71476, Note_on_c, 11, 58, 127
2, 71644, Note_off_c, 11, 58, 127
2, 71644, Note_off_c, 6, 66, 127
2, 71646, Note_on_c, 12, 59, 127
2, 71646, Note_on_c, 8, 68, 127
2, 71814, Note_off_c, 12, 59, 127
2, 71816, Note_on_c, 8, 56, 127
2, 71984, Note_off_c, 8, 56, 127
2, 71984, Note_off_c, 3, 75, 127
2, 71986, Note_on_c, 1, 61, 127
2, 71986, Note_on_c, 4, 76, 127
2, 72154, Note_off_c, 1, 61, 127
2, 72156, Note_on_c, 12, 59, 127
2, 72324, Note_off_c, 12, 59, 127
2, 72324, Note_off_c, 8, 68, 127
2, 72326, Note_on_c, 1, 61, 127
2, 72326, Note_on_c, 11, 70, 127
2, 72494, Note_off_c, 1, 61, 127
2, 72496, Note_on_c, 11, 58, 127
2, 72664, Note_off_c, 11, 58, 127
2, 72664, Note_off_c, 4, 76, 127
2, 72666, Note_on_c, 3, 63, 127
2, 72666, Note_on_c, 6, 78, 127
2, 72834, Note_off_c, 3, 63, 127
2, 72836, Note_on_c, 1, 61, 127
2, 73004, Note_off_c, 1, 61, 127
2, 73004, Note_off_c, 11, 70, 127
2, 73006, Note_on_c, 3, 63, 127
2, 73006, Note_on_c, 12, 71, 127
2, 73174, Note_off_c, 3, 63, 127
2, 73176, Note_on_c, 12, 59, 127
2, 73344, Note_off_c, 12, 59, 127
2, 73344, Note_off_c, 6, 78, 127
2, 73346, Note_on_c, 4, 64, 127
2, 73346, Note_on_c, 8, 80, 127
2, 73514, Note_off_c, 12, 71, 127
2, 73516, Note_on_c, 12, 71, 127
2, 73684, Note_off_c, 12, 71, 127
2, 73686, Note_on_c, 1, 73, 127
2, 73854, Note_off_c, 1, 73, 127
2, 73856, Note_on_c, 3, 75, 127
2, 74024, Note_off_c, 3, 75, 127
2, 74024, Note_off_c, 8, 80, 127
2, 74026, Note_on_c, 4, 76, 127
2, 74195, Note_off_c, 4, 64, 127
2, 74195, Note_on_c, 1, 73, 127
2, 74363, Note_off_c, 1, 73, 127
2, 74365, Note_on_c, 1, 61, 127
2, 74365, Note_on_c, 8, 68, 127
2, 74533, Note_off_c, 8, 68, 127
2, 74535, Note_on_c, 12, 71, 127
2, 74703, Note_off_c, 12, 71, 127
2, 74703, Note_off_c, 1, 61, 127
2, 74705, Note_on_c, 3, 63, 127
2, 74705, Note_on_c, 11, 70, 127
2, 74873, Note_off_c, 11, 70, 127
2, 74875, Note_on_c, 6, 66, 127
2, 75043, Note_off_c, 6, 66, 127
2, 75043, Note_off_c, 4, 76, 127
2, 75045, Note_on_c, 12, 71, 127
2, 75045, Note_on_c, 3, 75, 127
2, 75213, Note_off_c, 3, 63, 127
2, 75215, Note_on_c, 4, 64, 127
2, 75383, Note_off_c, 4, 64, 127
2, 75383, Note_off_c, 3, 75, 127
2, 75385, Note_on_c, 6, 66, 127
2, 75385, Note_on_c, 1, 73, 127
2, 75553, Note_off_c, 12, 71, 127
2, 75555, Note_on_c, 12, 71, 127
2, 75723, Note_off_c, 12, 71, 127
2, 75725, Note_on_c, 11, 70, 127
2, 75893, Note_off_c, 1, 73, 127
2, 75893, Note_off_c, 6, 66, 127
2, 75895, Note_on_c, 4, 64, 127
2, 75895, Note_on_c, 1, 73, 127
2, 76061, Note_off_c, 11, 70, 127
2, 76063, Note_off_c, 1, 73, 127
2, 76063, Note_off_c, 4, 64, 127
2, 76065, Note_on_c, 3, 63, 127
2, 76234, Note_on_c, 12, 71, 127
2, 76402, Note_off_c, 12, 71, 127
2, 76402, Note_off_c, 3, 63, 127
2, 76404, Note_on_c, 12, 59, 127
2, 76404, Note_on_c, 3, 75, 127
2, 76572, Note_off_c, 3, 75, 127
2, 76574, Note_on_c, 12, 71, 127
2, 76742, Note_off_c, 12, 71, 127
2, 76742, Note_off_c, 12, 59, 127
2, 76744, Note_on_c, 8, 56, 127
2, 76744, Note_on_c, 4, 76, 127
2, 76912, Note_off_c, 4, 76, 127
2, 76914, Note_on_c, 4, 64, 127
2, 77082, Note_off_c, 4, 64, 127
2, 77082, Note_off_c, 8, 56, 127
2, 77084, Note_on_c, 4, 52, 127
2, 77084, Note_on_c, 8, 68, 127
2, 77252, Note_off_c, 8, 68, 127
2, 77254, Note_on_c, 4, 64, 127
2, 77422, Note_off_c, 4, 64, 127
2, 77422, Note_off_c, 4, 52, 127
2, 77424, Note_on_c, 3, 51, 127
2, 77424, Note_on_c, 12, 71, 127
2, 77592, Note_off_c, 3, 51, 127
2, 77594, Note_on_c, 12, 59, 127
2, 77762, Note_off_c, 12, 59, 127
2, 77762, Note_off_c, 12, 71, 127
2, 77764, Note_on_c, 3, 63, 127
2, 77764, Note_on_c, 12, 71, 127
2, 77932, Note_off_c, 3, 63, 127
2, 77934, Note_on_c, 12, 59, 127
2, 78102, Note_off_c, 12, 59, 127
2, 78102, Note_off_c, 12, 71, 127
2, 78104, Note_on_c, 4, 64, 127
2, 78104, Note_on_c, 12, 71, 127
2, 78272, Note_off_c, 4, 64, 127
2, 78274, Note_on_c, 4, 52, 127
2, 78442, Note_off_c, 4, 52, 127
2, 78442, Note_off_c, 12, 71, 127
2, 78444, Note_on_c, 8, 56, 127
2, 78444, Note_on_c, 12, 71, 127
2, 78612, Note_off_c, 8, 56, 127
2, 78614, Note_on_c, 4, 52, 127
2, 78782, Note_off_c, 4, 52, 127
2, 78782, Note_off_c, 12, 71, 127
2, 78784, Note_on_c, 10, 57, 127
2, 78784, Note_on_c, 1, 73, 127
2, 79121, Note_off_c, 1, 73, 127
2, 79123, Note_on_c, 4, 76, 127
2, 79291, Note_off_c, 4, 76, 127
2, 79293, Note_on_c, 3, 75, 127
2, 79455, Note_off_c, 10, 57, 127
2, 79460, Note_off_c, 3, 75, 127
2, 79462, Note_on_c, 1, 73, 127
2, 79545, Note_off_c, 1, 73, 127
2, 79547, Note_on_c, 12, 71, 127
2, 79630, Note_off_c, 12, 71, 127
2, 79632, Note_on_c, 6, 54, 127
2, 79632, Note_on_c, 1, 73, 127
2, 79800, Note_off_c, 1, 73, 127
2, 79800, Note_off_c, 6, 54, 127
2, 79802, Note_on_c, 10, 57, 127
2, 79802, Note_on_c, 6, 78, 127
2, 79970, Note_off_c, 6, 78, 127
2, 79970, Note_off_c, 10, 57, 127
2, 79972, Note_on_c, 6, 54, 127
2, 79972, Note_on_c, 4, 76, 127
2, 80140, Note_off_c, 4, 76, 127
2, 80140, Note_off_c, 6, 54, 127
2, 80142, Note_on_c, 12, 59, 127
2, 80142, Note_on_c, 3, 75, 127
2, 80479, Note_off_c, 3, 75, 127
2, 80479, Note_off_c, 12, 59, 127
2, 80481, Note_on_c, 12, 47, 127
2, 80481, Note_on_c, 6, 78, 127
2, 80649, Note_off_c, 6, 78, 127
2, 80651, Note_on_c, 4, 76, 127
2, 80819, Note_off_c, 4, 76, 127
2, 80821, Note_on_c, 3, 75, 127
2, 80904, Note_off_c, 3, 75, 127
2, 80906, Note_on_c, 1, 73, 127
2, 80989, Note_off_c, 1, 73, 127
2, 80991, Note_on_c, 3, 75, 127
2, 81159, Note_off_c, 3, 75, 127
2, 81159, Note_off_c, 12, 47, 127
2, 81161, Note_on_c, 4, 52, 127
2, 81161, Note_on_c, 8, 80, 127
2, 81329, Note_off_c, 8, 80, 127
2, 81331, Note_on_c, 4, 76, 127
2, 81499, Note_off_c, 4, 76, 127
2, 81499, Note_off_c, 4, 52, 127
2, 81501, Note_on_c, 6, 54, 127
2, 81501, Note_on_c, 3, 75, 127
2, 81669, Note_off_c, 3, 75, 127
2, 81671, Note_on_c, 1, 73, 127
2, 81839, Note_off_c, 1, 73, 127
2, 81839, Note_off_c, 6, 54, 127
2, 81841, Note_on_c, 12, 59, 127
2, 81841, Note_on_c, 3, 75, 127
2, 82009, Note_off_c, 3, 75, 127
2, 82009, Note_off_c, 12, 59, 127
2, 82011, Note_on_c, 10, 57, 127
2, 82011, Note_on_c, 12, 71, 127
2, 82179, Note_off_c, 12, 71, 127
2, 82179, Note_off_c, 10, 57, 127
2, 82181, Note_on_c, 8, 56, 127
2, 82181, Note_on_c, 4, 76, 127
2, 82518, Note_off_c, 4, 76, 127
2, 82518, Note_off_c, 8, 56, 127
2, 82520, Note_on_c, 10, 57, 127
2, 82520, Note_on_c, 1, 73, 127
2, 82688, Note_off_c, 10, 57, 127
2, 82690, Note_on_c, 8, 56, 127
2, 82858, Note_off_c, 8, 56, 127
2, 82858, Note_off_c, 1, 73, 127
2, 82860, Note_on_c, 6, 54, 127
2, 82860, Note_on_c, 3, 75, 127
2, 83197, Note_off_c, 3, 75, 127
2, 83197, Note_off_c, 6, 54, 127
2, 83199, Note_on_c, 4, 52, 127
2, 83199, Note_on_c, 4, 76, 127
2, 83536, Note_off_c, 4, 76, 127
2, 83536, Note_off_c, 4, 52, 127
2, 83538, Note_on_c, 6, 54, 127
2, 83538, Note_on_c, 6, 78, 127
2, 83651, Note_off_c, 6, 78, 127
2, 83651, Note_on_c, 4, 76, 127
2, 83707, Note_off_c, 4, 76, 127
2, 83707, Note_on_c, 6, 78, 127
2, 83763, Note_off_c, 6, 78, 127
2, 83763, Note_on_c, 4, 76, 127
2, 83819, Note_off_c, 4, 76, 127
2, 83819, Note_on_c, 6, 78, 127
2, 83875, Note_off_c, 6, 78, 127
2, 83875, Note_on_c, 4, 76, 127
2, 84099, Note_off_c, 4, 76, 127
2, 84101, Note_on_c, 3, 75, 127
2, 84212, Note_off_c, 3, 75, 127
2, 84212, Note_off_c, 6, 54, 127
2, 84214, Note_on_c, 4, 52, 127
2, 84214, Note_on_c, 4, 76, 127
2, 84383, Note_on_c, 4, 64, 127
2, 84551, Note_off_c, 4, 64, 127
2, 84551, Note_off_c, 4, 52, 127
2, 84553, Note_on_c, 1, 49, 127
2, 84553, Note_on_c, 8, 68, 127
2, 84721, Note_off_c, 8, 68, 127
2, 84723, Note_on_c, 4, 64, 127
2, 84891, Note_off_c, 4, 64, 127
2, 84891, Note_off_c, 1, 49, 127
2, 84891, Note_off_c, 4, 76, 127
2, 84893, Note_on_c, 3, 51, 127
2, 84893, Note_on_c, 12, 71, 127
2, 84893, Note_on_c, 6, 78, 127
2, 85061, Note_off_c, 12, 71, 127
2, 85063, Note_on_c, 12, 59, 127
2, 85231, Note_off_c, 12, 59, 127
2, 85233, Note_on_c, 3, 63, 127
2, 85401, Note_off_c, 3, 63, 127
2, 85403, Note_on_c, 12, 59, 127
2, 85571, Note_off_c, 12, 59, 127
2, 85571, Note_off_c, 6, 78, 127
2, 85571, Note_off_c, 3, 51, 127
2, 85573, Note_on_c, 4, 52, 127
2, 85573, Note_on_c, 4, 64, 127
2, 85573, Note_on_c, 8, 80, 127
2, 85741, Note_off_c, 8, 80, 127
2, 85743, Note_on_c, 6, 78, 127
2, 85911, Note_off_c, 6, 78, 127
2, 85911, Note_off_c, 4, 64, 127
2, 85911, Note_off_c, 4, 52, 127
2, 85913, Note_on_c, 6, 54, 127
2, 85913, Note_on_c, 4, 64, 127
2, 85913, Note_on_c, 8, 80, 127
2, 86081, Note_off_c, 8, 80, 127
2, 86083, Note_on_c, 4, 76, 127
2, 86251, Note_off_c, 4, 76, 127
2, 86251, Note_off_c, 4, 64, 127
2, 86251, Note_off_c, 6, 54, 127
2, 86253, Note_on_c, 8, 56, 127
2, 86253, Note_on_c, 4, 64, 127
2, 86253, Note_on_c, 12, 83, 127
2, 86590, Note_off_c, 12, 83, 127
2, 86590, Note_off_c, 4, 64, 127
2, 86590, Note_off_c, 8, 56, 127
2, 86592, Note_on_c, 1, 61, 127
2, 86592, Note_on_c, 4, 64, 127
2, 86592, Note_on_c, 8, 80, 127
2, 86760, Note_off_c, 8, 80, 127
2, 86762, Note_on_c, 4, 76, 127
2, 86930, Note_off_c, 4, 76, 127
2, 86930, Note_off_c, 4, 64, 127
2, 86930, Note_off_c, 1, 61, 127
2, 86932, Note_on_c, 10, 57, 127
2, 86932, Note_on_c, 6, 66, 127
2, 86932, Note_on_c, 1, 73, 127
2, 86932, Note_on_c, 10, 81, 127
2, 87269, Note_off_c, 6, 66, 127
2, 87271, Note_on_c, 10, 69, 127
2, 87439, Note_off_c, 10, 69, 127
2, 87441, Note_on_c, 8, 68, 127
2, 87609, Note_off_c, 8, 68, 127
2, 87611, Note_on_c, 6, 66, 127
2, 87780, Note_off_c, 10, 81, 127
2, 87780, Note_off_c, 1, 73, 127
2, 87780, Note_off_c, 10, 57, 127
2, 87948, Note_off_c, 6, 66, 127
2, 87950, Note_on_c, 12, 59, 127
2, 87950, Note_on_c, 12, 71, 127
2, 87950, Note_on_c, 3, 75, 127
2, 88118, Note_off_c, 12, 71, 127
2, 88120, Note_on_c, 10, 69, 127
2, 88288, Note_off_c, 10, 69, 127
2, 88288, Note_off_c, 3, 75, 127
2, 88288, Note_off_c, 12, 59, 127
2, 88290, Note_on_c, 4, 52, 127
2, 88290, Note_on_c, 8, 68, 127
2, 88290, Note_on_c, 4, 76, 127
2, 88627, Note_off_c, 8, 68, 127
2, 88629, Note_on_c, 12, 71, 127
2, 88797, Note_off_c, 12, 71, 127
2, 88799, Note_on_c, 10, 69, 127
2, 88967, Note_off_c, 10, 69, 127
2, 88969, Note_on_c, 8, 68, 127
2, 89137, Note_off_c, 4, 52, 127
2, 89139, Note_on_c, 3, 51, 127
2, 89307, Note_off_c, 3, 51, 127
2, 89307, Note_off_c, 8, 68, 127
2, 89309, Note_on_c, 4, 52, 127
2, 89309, Note_on_c, 1, 73, 127
2, 89477, Note_off_c, 1, 73, 127
2, 89477, Note_off_c, 4, 52, 127
2, 89479, Note_on_c, 1, 49, 127
2, 89479, Note_on_c, 12, 71, 127
2, 89647, Note_off_c, 12, 71, 127
2, 89647, Note_off_c, 1, 49, 127
2, 89649, Note_on_c, 6, 54, 127
2, 89649, Note_on_c, 11, 70, 127
2, 89817, Note_off_c, 11, 70, 127
2, 89819, Note_on_c, 8, 68, 127
2, 89987, Note_off_c, 8, 68, 127
2, 89989, Note_on_c, 11, 70, 127
2, 90157, Note_off_c, 11, 70, 127
2, 90159, Note_on_c, 6, 66, 127
2, 90327, Note_off_c, 6, 66, 127
2, 90327, Note_off_c, 6, 54, 127
2, 90327, Note_off_c, 4, 76, 127
2, 90329, Note_on_c, 8, 56, 127
2, 90329, Note_on_c, 12, 71, 127
2, 90329, Note_on_c, 3, 75, 127
2, 90497, Note_off_c, 8, 56, 127
2, 90499, Note_on_c, 6, 54, 127
2, 90667, Note_off_c, 6, 54, 127
2, 90667, Note_off_c, 3, 75, 127
2, 90667, Note_off_c, 12, 71, 127
2, 90669, Note_on_c, 4, 52, 127
2, 90669, Note_on_c, 8, 80, 127
2, 90669, Note_on_c, 1, 73, 127
2, 90837, Note_off_c, 1, 73, 127
2, 90839, Note_on_c, 12, 71, 127
2, 91007, Note_off_c, 12, 71, 127
2, 91007, Note_off_c, 8, 80, 127
2, 91009, Note_on_c, 11, 70, 127
2, 91009, Note_on_c, 1, 73, 127
2, 91346, Note_off_c, 1, 73, 127
2, 91346, Note_off_c, 11, 70, 127
2, 91346, Note_off_c, 4, 52, 127
2, 91348, Note_on_c, 3, 51, 127
2, 91348, Note_on_c, 12, 71, 127
2, 91348, Note_on_c, 3, 75, 127
2, 91516, Note_off_c, 3, 75, 127
2, 91518, Note_on_c, 4, 76, 127
2, 91686, Note_off_c, 4, 76, 127
2, 91686, Note_off_c, 3, 51, 127
2, 91688, Note_on_c, 1, 49, 127
2, 91688, Note_on_c, 4, 76, 127
2, 91771, Note_off_c, 4, 76, 127
2, 91773, Note_on_c, 3, 75, 127
2, 91856, Note_off_c, 3, 75, 127
2, 91858, Note_on_c, 4, 76, 127
2, 92026, Note_off_c, 1, 49, 127
2, 92026, Note_off_c, 12, 71, 127
2, 92028, Note_on_c, 6, 54, 127
2, 92028, Note_on_c, 11, 70, 127
2, 92194, Note_off_c, 4, 76, 127
2, 92198, Note_on_c, 3, 75, 127
2, 92366, Note_off_c, 3, 75, 127
2, 92366, Note_off_c, 11, 70, 127
2, 92366, Note_off_c, 6, 54, 127
2, 92368, Note_on_c, 12, 47, 127
2, 92368, Note_on_c, 12, 71, 127
2, 92368, Note_on_c, 3, 75, 127
2, 92536, Note_off_c, 12, 47, 127
2, 92538, Note_on_c, 12, 59, 127
2, 92704, Note_off_c, 3, 75, 127
2, 92704, Note_off_c, 12, 71, 127
2, 92708, Note_on_c, 3, 63, 127
2, 92715, Note_off_c, 12, 59, 127
2, 92877, Note_on_c, 12, 59, 127
2, 92919, Note_off_c, 3, 63, 127
2, 93044, Note_off_c, 12, 59, 127
2, 93046, Note_on_c, 4, 64, 127
2, 93214, Note_off_c, 4, 64, 127
2, 93216, Note_on_c, 4, 52, 127
2, 93216, Note_on_c, 8, 68, 127
2, 93384, Note_off_c, 8, 68, 127
2, 93384, Note_off_c, 4, 52, 127
2, 93386, Note_on_c, 8, 56, 127
2, 93386, Note_on_c, 12, 71, 127
2, 93554, Note_off_c, 12, 71, 127
2, 93554, Note_off_c, 8, 56, 127
2, 93556, Note_on_c, 4, 52, 127
2, 93556, Note_on_c, 8, 68, 127
2, 93724, Note_off_c, 8, 68, 127
2, 93724, Note_off_c, 4, 52, 127
2, 93726, Note_on_c, 12, 59, 127
2, 93726, Note_on_c, 3, 75, 127
2, 93894, Note_off_c, 12, 59, 127
2, 93896, Note_on_c, 12, 47, 127
2, 93896, Note_on_c, 3, 63, 127
2, 94062, Note_off_c, 3, 75, 127
2, 94064, Note_off_c, 3, 63, 127
2, 94064, Note_off_c, 12, 47, 127
2, 94066, Note_on_c, 3, 51, 127
2, 94066, Note_on_c, 6, 66, 127
2, 94234, Note_off_c, 3, 51, 127
2, 94236, Note_on_c, 12, 47, 127
2, 94236, Note_on_c, 3, 63, 127
2, 94402, Note_off_c, 6, 66, 127
2, 94404, Note_off_c, 3, 63, 127
2, 94404, Note_off_c, 12, 47, 127
2, 94406, Note_on_c, 4, 52, 127
2, 94406, Note_on_c, 8, 68, 127
2, 94574, Note_off_c, 4, 52, 127
2, 94576, Note_on_c, 4, 40, 127
2, 94576, Note_on_c, 8, 56, 127
2, 94744, Note_off_c, 8, 56, 127
2, 94744, Note_off_c, 4, 40, 127
2, 94746, Note_on_c, 8, 44, 127
2, 94746, Note_on_c, 12, 59, 127
2, 94901, Note_off_c, 8, 68, 127
2, 94913, Note_off_c, 12, 59, 127
2, 94913, Note_off_c, 8, 44, 127
2, 94915, Note_on_c, 4, 40, 127
2, 94915, Note_on_c, 8, 56, 127
2, 95083, Note_off_c, 8, 56, 127
2, 95083, Note_off_c, 4, 40, 127
2, 95085, Note_on_c, 12, 47, 127
2, 95085, Note_on_c, 3, 63, 127
2, 95254, Note_on_c, 12, 59, 127
2, 95420, Note_off_c, 3, 63, 127
2, 95422, Note_off_c, 12, 59, 127
2, 95422, Note_off_c, 12, 47, 127
2, 95424, Note_on_c, 12, 47, 127
2, 95424, Note_on_c, 6, 66, 127
2, 95593, Note_on_c, 3, 63, 127
2, 95759, Note_off_c, 6, 66, 127
2, 95761, Note_off_c, 3, 63, 127
2, 95761, Note_off_c, 12, 47, 127
2, 95763, Note_on_c, 12, 47, 127
2, 95763, Note_on_c, 12, 71, 127
2, 95932, Note_on_c, 6, 66, 127
2, 96098, Note_off_c, 12, 71, 127
2, 96100, Note_off_c, 6, 66, 127
2, 96100, Note_off_c, 12, 47, 127
2, 96102, Note_on_c, 12, 47, 127
2, 96102, Note_on_c, 8, 68, 127
2, 96271, Note_on_c, 3, 63, 127
2, 96278, Note_off_c, 8, 68, 127
2, 96439, Note_off_c, 3, 63, 127
2, 96439, Note_off_c, 12, 47, 127
2, 96441, Note_on_c, 1, 49, 127
2, 96441, Note_on_c, 4, 64, 127
2, 96610, Note_on_c, 1, 61, 127
2, 96776, Note_off_c, 4, 64, 127
2, 96778, Note_off_c, 1, 61, 127
2, 96778, Note_off_c, 1, 49, 127
2, 96780, Note_on_c, 4, 52, 127
2, 96780, Note_on_c, 8, 68, 127
2, 96948, Note_off_c, 4, 52, 127
2, 96950, Note_on_c, 3, 51, 127
2, 96950, Note_on_c, 4, 64, 127
2, 97116, Note_off_c, 8, 68, 127
2, 97118, Note_off_c, 4, 64, 127
2, 97118, Note_off_c, 3, 51, 127
2, 97120, Note_on_c, 1, 49, 127
2, 97120, Note_on_c, 1, 73, 127
2, 97289, Note_on_c, 8, 68, 127
2, 97457, Note_off_c, 8, 68, 127
2, 97457, Note_off_c, 1, 49, 127
2, 97459, Note_on_c, 6, 54, 127
2, 97459, Note_on_c, 10, 69, 127
2, 97614, Note_off_c, 1, 73, 127
2, 97626, Note_off_c, 10, 69, 127
2, 97626, Note_off_c, 6, 54, 127
2, 97628, Note_on_c, 4, 52, 127
2, 97628, Note_on_c, 8, 68, 127
2, 97796, Note_off_c, 8, 68, 127
2, 97796, Note_off_c, 4, 52, 127
2, 97798, Note_on_c, 3, 51, 127
2, 97798, Note_on_c, 6, 66, 127
2, 97967, Note_on_c, 12, 59, 127
2, 98133, Note_off_c, 6, 66, 127
2, 98135, Note_off_c, 12, 59, 127
2, 98135, Note_off_c, 3, 51, 127
2, 98137, Note_on_c, 6, 54, 127
2, 98137, Note_on_c, 10, 69, 127
2, 98305, Note_off_c, 10, 69, 127
2, 98305, Note_off_c, 6, 54, 127
2, 98307, Note_on_c, 4, 52, 127
2, 98307, Note_on_c, 8, 68, 127
2, 98475, Note_off_c, 8, 68, 127
2, 98475, Note_off_c, 4, 52, 127
2, 98477, Note_on_c, 3, 51, 127
2, 98477, Note_on_c, 6, 66, 127
2, 98646, Note_on_c, 12, 59, 127
2, 98812, Note_off_c, 6, 66, 127
2, 98814, Note_off_c, 12, 59, 127
2, 98814, Note_off_c, 3, 51, 127
2, 98816, Note_on_c, 8, 56, 127
2, 98816, Note_on_c, 12, 71, 127
2, 98984, Note_off_c, 12, 71, 127
2, 98984, Note_off_c, 8, 56, 127
2, 98986, Note_on_c, 4, 52, 127
2, 98986, Note_on_c, 8, 68, 127
2, 99154, Note_off_c, 8, 68, 127
2, 99154, Note_off_c, 4, 52, 127
2, 99156, Note_on_c, 3, 51, 127
2, 99156, Note_on_c, 6, 66, 127
2, 99324, Note_off_c, 3, 51, 127
2, 99326, Note_on_c, 1, 49, 127
2, 99326, Note_on_c, 12, 59, 127
2, 99492, Note_off_c, 6, 66, 127
2, 99494, Note_off_c, 12, 59, 127
2, 99494, Note_off_c, 1, 49, 127
2, 99496, Note_on_c, 3, 51, 127
2, 99496, Note_on_c, 12, 71, 127
2, 99664, Note_off_c, 12, 71, 127
2, 99664, Note_off_c, 3, 51, 127
2, 99666, Note_on_c, 12, 47, 127
2, 99666, Note_on_c, 10, 69, 127
2, 99834, Note_off_c, 10, 69, 127
2, 99834, Note_off_c, 12, 47, 127
2, 99836, Note_on_c, 4, 52, 127
2, 99836, Note_on_c, 8, 68, 127
2, 100005, Note_on_c, 4, 64, 127
2, 100171, Note_off_c, 8, 68, 127
2, 100173, Note_off_c, 4, 64, 127
2, 100173, Note_off_c, 4, 52, 127
2, 100175, Note_on_c, 1, 61, 127
2, 100175, Note_on_c, 4, 76, 127
2, 100343, Note_off_c, 4, 76, 127
2, 100345, Note_on_c, 1, 73, 127
2, 100513, Note_off_c, 1, 73, 127
2, 100513, Note_off_c, 1, 61, 127
2, 100515, Note_on_c, 3, 51, 127
2, 100515, Note_on_c, 6, 78, 127
2, 100684, Note_on_c, 10, 69, 127
2, 100852, Note_off_c, 10, 69, 127
2, 100852, Note_off_c, 3, 51, 127
2, 100854, Note_on_c, 4, 52, 127
2, 100854, Note_on_c, 8, 68, 127
2, 101009, Note_off_c, 6, 78, 127
2, 101023, Note_on_c, 4, 76, 127
2, 101189, Note_off_c, 8, 68, 127
2, 101191, Note_off_c, 4, 52, 127
2, 101193, Note_on_c, 10, 45, 127
2, 101193, Note_on_c, 6, 66, 127
2, 101359, Note_off_c, 4, 76, 127
2, 101363, Note_on_c, 4, 76, 127
2, 101531, Note_off_c, 4, 76, 127
2, 101531, Note_off_c, 10, 45, 127
2, 101533, Note_on_c, 12, 47, 127
2, 101533, Note_on_c, 3, 75, 127
2, 101688, Note_off_c, 6, 66, 127
2, 101702, Note_on_c, 6, 66, 127
2, 101868, Note_off_c, 3, 75, 127
2, 101870, Note_off_c, 6, 66, 127
2, 101870, Note_off_c, 12, 47, 127
2, 101872, Note_on_c, 4, 40, 127
2, 101872, Note_on_c, 8, 68, 127
2, 102041, Note_on_c, 4, 76, 127
2, 102207, Note_off_c, 8, 68, 127
2, 102211, Note_on_c, 6, 66, 127
2, 102377, Note_off_c, 4, 76, 127
2, 102381, Note_on_c, 3, 75, 127
2, 102543, Note_off_c, 4, 40, 127
2, 102547, Note_off_c, 6, 66, 127
2, 102549, Note_off_c, 3, 75, 127
2, 102551, Note_on_c, 4, 64, 127
2, 102551, Note_on_c, 8, 80, 127
2, 102719, Note_off_c, 4, 64, 127
2, 102721, Note_on_c, 1, 73, 127
2, 102889, Note_off_c, 1, 73, 127
2, 102889, Note_off_c, 8, 80, 127
2, 102891, Note_on_c, 3, 63, 127
2, 102891, Note_on_c, 6, 78, 127
2, 103059, Note_off_c, 3, 63, 127
2, 103061, Note_on_c, 0, 72, 127
2, 103229, Note_off_c, 0, 72, 127
2, 103229, Note_off_c, 6, 78, 127
2, 103231, Note_on_c, 4, 64, 127
2, 103231, Note_on_c, 8, 80, 127
2, 103400, Note_on_c, 1, 73, 127
2, 103568, Note_off_c, 1, 73, 127
2, 103568, Note_off_c, 4, 64, 127
2, 103570, Note_on_c, 8, 68, 127
2, 103570, Note_on_c, 0, 72, 127
2, 103725, Note_off_c, 8, 80, 127
2, 103737, Note_off_c, 0, 72, 127
2, 103739, Note_on_c, 6, 78, 127
2, 103907, Note_off_c, 6, 78, 127
2, 103907, Note_off_c, 8, 68, 127
2, 103909, Note_on_c, 10, 69, 127
2, 103909, Note_on_c, 4, 76, 127
2, 104078, Note_on_c, 1, 73, 127
2, 104246, Note_off_c, 1, 73, 127
2, 104246, Note_off_c, 10, 69, 127
2, 104248, Note_on_c, 4, 64, 127
2, 104248, Note_on_c, 8, 68, 127
2, 104403, Note_off_c, 4, 76, 127
2, 104415, Note_off_c, 8, 68, 127
2, 104417, Note_on_c, 1, 73, 127
2, 104585, Note_off_c, 1, 73, 127
2, 104585, Note_off_c, 4, 64, 127
2, 104587, Note_on_c, 6, 66, 127
2, 104587, Note_on_c, 3, 75, 127
2, 104756, Note_on_c, 11, 70, 127
2, 104922, Note_off_c, 3, 75, 127
2, 104924, Note_off_c, 11, 70, 127
2, 104924, Note_off_c, 6, 66, 127
2, 104926, Note_on_c, 8, 68, 127
2, 104926, Note_on_c, 0, 72, 127
2, 105094, Note_off_c, 8, 68, 127
2, 105096, Note_on_c, 6, 66, 127
2, 105264, Note_off_c, 6, 66, 127
2, 105264, Note_off_c, 0, 72, 127
2, 105266, Note_on_c, 4, 64, 127
2, 105266, Note_on_c, 1, 73, 127
2, 105434, Note_off_c, 4, 64, 127
2, 105436, Note_on_c, 3, 63, 127
2, 105604, Note_off_c, 3, 63, 127
2, 105606, Note_on_c, 1, 61, 127
2, 105774, Note_off_c, 1, 73, 127
2, 105776, Note_on_c, 1, 73, 127
2, 105944, Note_off_c, 1, 73, 127
2, 105944, Note_off_c, 1, 61, 127
2, 105946, Note_on_c, 8, 68, 127
2, 105946, Note_on_c, 0, 72, 127
2, 106114, Note_off_c, 0, 72, 127
2, 106116, Note_on_c, 1, 73, 127
2, 106194, Note_off_c, 8, 68, 127
2, 106284, Note_off_c, 1, 73, 127
2, 106286, Note_on_c, 7, 67, 127
2, 106286, Note_on_c, 3, 75, 127
2, 106454, Note_off_c, 3, 75, 127
2, 106456, Note_on_c, 11, 70, 127
2, 106534, Note_off_c, 7, 67, 127
2, 106624, Note_off_c, 11, 70, 127
2, 106626, Note_on_c, 8, 68, 127
2, 106626, Note_on_c, 0, 72, 127
2, 106794, Note_off_c, 8, 68, 127
2, 106796, Note_on_c, 3, 63, 127
2, 106874, Note_off_c, 0, 72, 127
2, 106964, Note_off_c, 3, 63, 127
2, 106966, Note_on_c, 8, 56, 127
2, 107134, Note_off_c, 8, 56, 127
2, 107136, Note_on_c, 7, 67, 127
2, 107136, Note_on_c, 1, 73, 127
2, 107304, Note_off_c, 1, 73, 127
2, 107304, Note_off_c, 7, 67, 127
2, 107306, Note_on_c, 8, 68, 127
2, 107306, Note_on_c, 0, 72, 127
2, 107474, Note_off_c, 0, 72, 127
2, 107476, Note_on_c, 1, 73, 127
2, 107554, Note_off_c, 8, 68, 127
2, 107644, Note_off_c, 1, 73, 127
2, 107646, Note_on_c, 6, 66, 127
2, 107646, Note_on_c, 3, 75, 127
2, 107814, Note_off_c, 3, 75, 127
2, 107816, Note_on_c, 8, 68, 127
2, 107894, Note_off_c, 6, 66, 127
2, 107984, Note_off_c, 8, 68, 127
2, 107986, Note_on_c, 5, 65, 127
2, 107986, Note_on_c, 1, 73, 127
2, 108154, Note_off_c, 5, 65, 127
2, 108156, Note_on_c, 1, 61, 127
2, 108234, Note_off_c, 1, 73, 127
2, 108324, Note_off_c, 1, 61, 127
2, 108326, Note_on_c, 5, 53, 127
2, 108494, Note_off_c, 5, 53, 127
2, 108496, Note_on_c, 1, 61, 127
2, 108496, Note_on_c, 12, 71, 127
2, 108664, Note_off_c, 12, 71, 127
2, 108664, Note_off_c, 1, 61, 127
2, 108666, Note_on_c, 6, 66, 127
2, 108666, Note_on_c, 11, 70, 127
2, 108834, Note_off_c, 11, 70, 127
2, 108836, Note_on_c, 12, 71, 127
2, 108914, Note_off_c, 6, 66, 127
2, 109004, Note_off_c, 12, 71, 127
2, 109006, Note_on_c, 5, 65, 127
2, 109006, Note_on_c, 1, 73, 127
2, 109174, Note_off_c, 1, 73, 127
2, 109176, Note_on_c, 8, 68, 127
2, 109254, Note_off_c, 5, 65, 127
2, 109344, Note_off_c, 8, 68, 127
2, 109346, Note_on_c, 6, 66, 127
2, 109346, Note_on_c, 11, 70, 127
2, 109514, Note_off_c, 6, 66, 127
2, 109516, Note_on_c, 1, 61, 127
2, 109629, Note_off_c, 11, 70, 127
2, 109684, Note_off_c, 1, 61, 127
2, 109686, Note_on_c, 6, 54, 127
2, 109854, Note_off_c, 6, 54, 127
2, 109856, Note_on_c, 5, 65, 127
2, 109856, Note_on_c, 12, 71, 127
2, 110024, Note_off_c, 12, 71, 127
2, 110024, Note_off_c, 5, 65, 127
2, 110026, Note_on_c, 6, 66, 127
2, 110026, Note_on_c, 11, 70, 127
2, 110194, Note_off_c, 11, 70, 127
2, 110196, Note_on_c, 12, 71, 127
2, 110274, Note_off_c, 6, 66, 127
2, 110364, Note_off_c, 12, 71, 127
2, 110366, Note_on_c, 4, 64, 127
2, 110366, Note_on_c, 1, 73, 127
2, 110534, Note_off_c, 1, 73, 127
2, 110536, Note_on_c, 6, 66, 127
2, 110614, Note_off_c, 4, 64, 127
2, 110704, Note_off_c, 6, 66, 127
2, 110706, Note_on_c, 3, 63, 127
2, 110706, Note_on_c, 12, 71, 127
2, 110874, Note_off_c, 3, 63, 127
2, 110876, Note_on_c, 12, 59, 127
2, 111024, Note_off_c, 12, 71, 127
2, 111043, Note_off_c, 12, 59, 127
2, 111045, Note_on_c, 3, 51, 127
2, 111213, Note_off_c, 3, 51, 127
2, 111215, Note_on_c, 12, 59, 127
2, 111215, Note_on_c, 10, 69, 127
2, 111383, Note_off_c, 10, 69, 127
2, 111383, Note_off_c, 12, 59, 127
2, 111385, Note_on_c, 4, 64, 127
2, 111385, Note_on_c, 8, 68, 127
2, 111553, Note_off_c, 8, 68, 127
2, 111555, Note_on_c, 10, 69, 127
2, 111633, Note_off_c, 4, 64, 127
2, 111723, Note_off_c, 10, 69, 127
2, 111725, Note_on_c, 3, 63, 127
2, 111725, Note_on_c, 12, 71, 127
2, 111893, Note_off_c, 12, 71, 127
2, 111895, Note_on_c, 4, 64, 127
2, 111973, Note_off_c, 3, 63, 127
2, 112063, Note_off_c, 4, 64, 127
2, 112065, Note_on_c, 1, 61, 127
2, 112065, Note_on_c, 10, 69, 127
2, 112233, Note_off_c, 1, 61, 127
2, 112235, Note_on_c, 10, 57, 127
2, 112403, Note_off_c, 10, 57, 127
2, 112405, Note_on_c, 1, 49, 127
2, 112454, Note_off_c, 10, 69, 127
2, 112572, Note_off_c, 1, 49, 127
2, 112574, Note_on_c, 10, 57, 127
2, 112574, Note_on_c, 8, 68, 127
2, 112742, Note_off_c, 8, 68, 127
2, 112742, Note_off_c, 10, 57, 127
2, 112744, Note_on_c, 2, 62, 127
2, 112744, Note_on_c, 6, 66, 127
2, 112912, Note_off_c, 6, 66, 127
2, 112914, Note_on_c, 8, 68, 127
2, 112992, Note_off_c, 2, 62, 127
2, 113082, Note_off_c, 8, 68, 127
2, 113084, Note_on_c, 1, 61, 127
2, 113084, Note_on_c, 10, 69, 127
2, 113252, Note_off_c, 10, 69, 127
2, 113254, Note_on_c, 3, 63, 127
2, 113332, Note_off_c, 1, 61, 127
2, 113422, Note_off_c, 3, 63, 127
2, 113424, Note_on_c, 0, 60, 127
2, 113424, Note_on_c, 8, 68, 127
2, 113592, Note_off_c, 0, 60, 127
2, 113594, Note_on_c, 8, 56, 127
2, 113762, Note_off_c, 8, 56, 127
2, 113764, Note_on_c, 0, 48, 127
2, 113902, Note_off_c, 8, 68, 127
2, 113932, Note_off_c, 0, 48, 127
2, 113934, Note_on_c, 8, 56, 127
2, 113934, Note_on_c, 6, 66, 127
2, 114102, Note_off_c, 6, 66, 127
2, 114102, Note_off_c, 8, 56, 127
2, 114104, Note_on_c, 1, 61, 127
2, 114104, Note_on_c, 4, 64, 127
2, 114272, Note_off_c, 4, 64, 127
2, 114274, Note_on_c, 6, 66, 127
2, 114352, Note_off_c, 1, 61, 127
2, 114442, Note_off_c, 6, 66, 127
2, 114444, Note_on_c, 0, 60, 127
2, 114444, Note_on_c, 8, 68, 127
2, 114612, Note_off_c, 8, 68, 127
2, 114614, Note_on_c, 3, 63, 127
2, 114692, Note_off_c, 0, 60, 127
2, 114782, Note_off_c, 3, 63, 127
2, 114784, Note_on_c, 1, 61, 127
2, 114784, Note_on_c, 4, 64, 127
2, 114952, Note_off_c, 1, 61, 127
2, 114954, Note_on_c, 8, 56, 127
2, 115122, Note_off_c, 8, 56, 127
2, 115124, Note_on_c, 1, 49, 127
2, 115279, Note_off_c, 4, 64, 127
2, 115291, Note_off_c, 1, 49, 127
2, 115293, Note_on_c, 8, 56, 127
2, 115293, Note_on_c, 3, 63, 127
2, 115461, Note_off_c, 3, 63, 127
2, 115461, Note_off_c, 8, 56, 127
2, 115463, Note_on_c, 1, 61, 127
2, 115463, Note_on_c, 4, 64, 127
2, 115631, Note_off_c, 4, 64, 127
2, 115633, Note_on_c, 8, 68, 127
2, 115746, Note_off_c, 1, 61, 127
2, 115801, Note_off_c, 8, 68, 127
2, 115803, Note_on_c, 3, 63, 127
2, 115803, Note_on_c, 6, 66, 127
2, 115971, Note_off_c, 6, 66, 127
2, 115973, Note_on_c, 10, 69, 127
2, 116086, Note_off_c, 3, 63, 127
2, 116141, Note_off_c, 10, 69, 127
2, 116143, Note_on_c, 4, 64, 127
2, 116143, Note_on_c, 8, 68, 127
2, 116311, Note_off_c, 4, 64, 127
2, 116313, Note_on_c, 12, 59, 127
2, 116481, Note_off_c, 12, 59, 127
2, 116483, Note_on_c, 4, 52, 127
2, 116638, Note_off_c, 8, 68, 127
2, 116650, Note_off_c, 4, 52, 127
2, 116652, Note_on_c, 12, 59, 127
2, 116652, Note_on_c, 6, 66, 127
2, 116820, Note_off_c, 6, 66, 127
2, 116820, Note_off_c, 12, 59, 127
2, 116822, Note_on_c, 4, 64, 127
2, 116822, Note_on_c, 8, 68, 127
2, 116990, Note_off_c, 8, 68, 127
2, 116992, Note_on_c, 12, 71, 127
2, 117140, Note_off_c, 4, 64, 127
2, 117159, Note_off_c, 12, 71, 127
2, 117161, Note_on_c, 6, 66, 127
2, 117161, Note_on_c, 11, 70, 127
2, 117329, Note_off_c, 11, 70, 127
2, 117331, Note_on_c, 1, 73, 127
2, 117479, Note_off_c, 6, 66, 127
2, 117498, Note_off_c, 1, 73, 127
2, 117500, Note_on_c, 8, 68, 127
2, 117500, Note_on_c, 12, 71, 127
2, 117668, Note_off_c, 8, 68, 127
2, 117670, Note_on_c, 3, 63, 127
2, 117838, Note_off_c, 3, 63, 127
2, 117840, Note_on_c, 8, 56, 127
2, 117925, Note_off_c, 12, 71, 127
2, 118008, Note_off_c, 8, 56, 127
2, 118010, Note_on_c, 3, 63, 127
2, 118010, Note_on_c, 11, 70, 127
2, 118178, Note_off_c, 11, 70, 127
2, 118178, Note_off_c, 3, 63, 127
2, 118180, Note_on_c, 8, 68, 127
2, 118180, Note_on_c, 12, 71, 127
2, 118348, Note_off_c, 12, 71, 127
2, 118350, Note_on_c, 3, 75, 127
2, 118516, Note_off_c, 8, 68, 127
2, 118518, Note_off_c, 3, 75, 127
2, 118520, Note_on_c, 11, 70, 127
2, 118520, Note_on_c, 1, 73, 127
2, 118688, Note_off_c, 1, 73, 127
2, 118690, Note_on_c, 4, 76, 127
2, 118856, Note_off_c, 11, 70, 127
2, 118858, Note_off_c, 4, 76, 127
2, 118860, Note_on_c, 12, 71, 127
2, 118860, Note_on_c, 3, 75, 127
2, 119028, Note_off_c, 12, 71, 127
2, 119030, Note_on_c, 6, 66, 127
2, 119178, Note_off_c, 3, 75, 127
2, 119197, Note_off_c, 6, 66, 127
2, 119199, Note_on_c, 12, 59, 127
2, 119367, Note_off_c, 12, 59, 127
2, 119369, Note_on_c, 11, 70, 127
2, 119369, Note_on_c, 1, 73, 127
2, 119537, Note_off_c, 1, 73, 127
2, 119537, Note_off_c, 11, 70, 127
2, 119539, Note_on_c, 12, 71, 127
2, 119539, Note_on_c, 3, 75, 127
2, 119707, Note_off_c, 12, 71, 127
2, 119709, Note_on_c, 6, 66, 127
2, 119787, Note_off_c, 3, 75, 127
2, 119877, Note_off_c, 6, 66, 127
2, 119879, Note_on_c, 12, 59, 127
2, 120047, Note_off_c, 12, 59, 127
2, 120049, Note_on_c, 11, 70, 127
2, 120049, Note_on_c, 1, 73, 127
2, 120217, Note_off_c, 1, 73, 127
2, 120217, Note_off_c, 11, 70, 127
2, 120219, Note_on_c, 12, 71, 127
2, 120219, Note_on_c, 3, 75, 127
2, 120387, Note_off_c, 3, 75, 127
2, 120389, Note_on_c, 4, 76, 127
2, 120502, Note_off_c, 12, 71, 127
2, 120557, Note_off_c, 4, 76, 127
2, 120559, Note_on_c, 3, 63, 127
2, 120559, Note_on_c, 6, 78, 127
2, 120728, Note_on_c, 6, 66, 127
2, 120841, Note_off_c, 3, 63, 127
2, 120894, Note_off_c, 6, 78, 127
2, 120896, Note_off_c, 6, 66, 127
2, 120898, Note_on_c, 4, 64, 127
2, 120898, Note_on_c, 8, 68, 127
2, 121067, Note_on_c, 12, 59, 127
2, 121127, Note_off_c, 4, 64, 127
2, 121145, Note_off_c, 8, 68, 127
2, 121235, Note_off_c, 12, 59, 127
2, 121237, Note_on_c, 4, 52, 127
2, 121405, Note_off_c, 4, 52, 127
2, 121407, Note_on_c, 3, 63, 127
2, 121407, Note_on_c, 6, 66, 127
2, 121575, Note_off_c, 6, 66, 127
2, 121575, Note_off_c, 3, 63, 127
2, 121577, Note_on_c, 4, 64, 127
2, 121577, Note_on_c, 8, 68, 127
2, 121745, Note_off_c, 8, 68, 127
2, 121747, Note_on_c, 11, 70, 127
2, 121825, Note_off_c, 4, 64, 127
2, 121915, Note_off_c, 11, 70, 127
2, 121917, Note_on_c, 3, 63, 127
2, 121917, Note_on_c, 12, 71, 127
2, 122085, Note_off_c, 12, 71, 127
2, 122087, Note_on_c, 1, 73, 127
2, 122165, Note_off_c, 3, 63, 127
2, 122255, Note_off_c, 1, 73, 127
2, 122257, Note_on_c, 6, 66, 127
2, 122257, Note_on_c, 11, 70, 127
2, 122425, Note_off_c, 6, 66, 127
2, 122427, Note_on_c, 1, 61, 127
2, 122505, Note_off_c, 11, 70, 127
2, 122597, Note_on_c, 6, 54, 127
2, 122710, Note_off_c, 1, 61, 127
2, 122765, Note_off_c, 6, 54, 127
2, 122767, Note_on_c, 5, 65, 127
2, 122767, Note_on_c, 12, 71, 127
2, 122935, Note_off_c, 12, 71, 127
2, 122935, Note_off_c, 5, 65, 127
2, 122937, Note_on_c, 6, 66, 127
2, 122937, Note_on_c, 11, 70, 127
2, 123105, Note_off_c, 6, 66, 127
2, 123107, Note_on_c, 1, 61, 127
2, 123276, Note_on_c, 6, 54, 127
2, 123431, Note_off_c, 11, 70, 127
2, 123442, Note_off_c, 1, 61, 127
2, 123444, Note_off_c, 6, 54, 127
2, 123446, Note_on_c, 5, 65, 127
2, 123446, Note_on_c, 12, 71, 127
2, 123446, Note_on_c, 2, 74, 127
2, 123614, Note_off_c, 2, 74, 127
2, 123614, Note_off_c, 12, 71, 127
2, 123614, Note_off_c, 5, 65, 127
2, 123616, Note_on_c, 6, 66, 127
2, 123616, Note_on_c, 11, 70, 127
2, 123616, Note_on_c, 1, 73, 127
2, 123784, Note_off_c, 6, 66, 127
2, 123786, Note_on_c, 4, 64, 127
2, 123864, Note_off_c, 1, 73, 127
2, 123954, Note_off_c, 4, 64, 127
2, 123956, Note_on_c, 2, 62, 127
2, 124124, Note_off_c, 2, 62, 127
2, 124124, Note_off_c, 11, 70, 127
2, 124126, Note_on_c, 4, 64, 127
2, 124126, Note_on_c, 12, 71, 127
2, 124126, Note_on_c, 2, 74, 127
2, 124294, Note_off_c, 2, 74, 127
2, 124294, Note_off_c, 4, 64, 127
2, 124296, Note_on_c, 6, 66, 127
2, 124296, Note_on_c, 1, 73, 127
2, 124464, Note_off_c, 12, 71, 127
2, 124466, Note_on_c, 12, 71, 127
2, 124544, Note_off_c, 1, 73, 127
2, 124634, Note_off_c, 12, 71, 127
2, 124634, Note_off_c, 6, 66, 127
2, 124636, Note_on_c, 6, 54, 127
2, 124636, Note_on_c, 11, 70, 127
2, 124805, Note_on_c, 6, 78, 127
2, 124973, Note_off_c, 6, 78, 127
2, 124973, Note_off_c, 11, 70, 127
2, 124973, Note_off_c, 6, 54, 127
2, 124975, Note_on_c, 12, 59, 127
2, 124975, Note_on_c, 12, 71, 127
2, 124975, Note_on_c, 3, 75, 127
2, 125143, Note_off_c, 12, 71, 127
2, 125143, Note_off_c, 12, 59, 127
2, 125145, Note_on_c, 12, 47, 127
2, 125145, Note_on_c, 6, 66, 127
2, 125313, Note_off_c, 6, 66, 127
2, 125313, Note_off_c, 12, 47, 127
2, 125315, Note_on_c, 3, 51, 127
2, 125315, Note_on_c, 12, 71, 127
2, 125483, Note_off_c, 12, 71, 127
2, 125483, Note_off_c, 3, 51, 127
2, 125485, Note_on_c, 12, 47, 127
2, 125485, Note_on_c, 6, 66, 127
2, 125647, Note_off_c, 3, 75, 127
2, 125652, Note_off_c, 6, 66, 127
2, 125652, Note_off_c, 12, 47, 127
2, 125654, Note_on_c, 4, 52, 127
2, 125654, Note_on_c, 8, 68, 127
2, 125822, Note_off_c, 4, 52, 127
2, 125824, Note_on_c, 4, 40, 127
2, 125824, Note_on_c, 12, 71, 127
2, 125992, Note_off_c, 12, 71, 127
2, 125992, Note_off_c, 4, 40, 127
2, 125994, Note_on_c, 8, 44, 127
2, 125994, Note_on_c, 4, 76, 127
2, 126162, Note_off_c, 4, 76, 127
2, 126162, Note_off_c, 8, 44, 127
2, 126164, Note_on_c, 4, 40, 127
2, 126164, Note_on_c, 1, 73, 127
2, 126332, Note_off_c, 1, 73, 127
2, 126332, Note_off_c, 4, 40, 127
2, 126332, Note_off_c, 8, 68, 127
2, 126334, Note_on_c, 12, 47, 127
2, 126334, Note_on_c, 6, 66, 127
2, 126334, Note_on_c, 3, 75, 127
2, 126671, Note_off_c, 3, 75, 127
2, 126671, Note_off_c, 6, 66, 127
2, 126671, Note_off_c, 12, 47, 127
2, 126673, Note_on_c, 12, 47, 127
2, 126673, Note_on_c, 8, 68, 127
2, 126673, Note_on_c, 4, 76, 127
2, 127010, Note_off_c, 4, 76, 127
2, 127010, Note_off_c, 8, 68, 127
2, 127010, Note_off_c, 12, 47, 127
2, 127012, Note_on_c, 12, 47, 127
2, 127012, Note_on_c, 6, 66, 127
2, 127012, Note_on_c, 4, 76, 127
2, 127349, Note_off_c, 6, 66, 127
2, 127349, Note_off_c, 12, 47, 127
2, 127351, Note_on_c, 12, 47, 127
2, 127351, Note_on_c, 10, 69, 127
2, 127519, Note_off_c, 4, 76, 127
2, 127521, Note_on_c, 3, 75, 127
2, 127689, Note_off_c, 3, 75, 127
2, 127689, Note_off_c, 10, 69, 127
2, 127689, Note_off_c, 12, 47, 127
2, 127691, Note_on_c, 1, 49, 127
2, 127691, Note_on_c, 8, 68, 127
2, 127691, Note_on_c, 4, 76, 127
2, 128028, Note_off_c, 4, 76, 127
2, 128028, Note_off_c, 1, 49, 127
2, 128030, Note_on_c, 4, 52, 127
2, 128030, Note_on_c, 1, 73, 127
2, 128198, Note_off_c, 4, 52, 127
2, 128200, Note_on_c, 3, 51, 127
2, 128362, Note_off_c, 8, 68, 127
2, 128367, Note_off_c, 3, 51, 127
2, 128369, Note_on_c, 1, 49, 127
2, 128537, Note_off_c, 1, 73, 127
2, 128539, Note_on_c, 12, 71, 127
2, 128707, Note_off_c, 12, 71, 127
2, 128707, Note_off_c, 1, 49, 127
2, 128709, Note_on_c, 6, 54, 127
2, 128709, Note_on_c, 11, 70, 127
2, 128877, Note_off_c, 11, 70, 127
2, 128877, Note_off_c, 6, 54, 127
2, 128879, Note_on_c, 4, 52, 127
2, 128879, Note_on_c, 8, 68, 127
2, 129047, Note_off_c, 8, 68, 127
2, 129047, Note_off_c, 4, 52, 127
2, 129049, Note_on_c, 3, 51, 127
2, 129049, Note_on_c, 6, 66, 127
2, 129386, Note_off_c, 6, 66, 127
2, 129386, Note_off_c, 3, 51, 127
2, 129388, Note_on_c, 6, 54, 127
2, 129388, Note_on_c, 3, 75, 127
2, 129556, Note_off_c, 6, 54, 127
2, 129558, Note_on_c, 4, 52, 127
2, 129726, Note_off_c, 4, 52, 127
2, 129728, Note_on_c, 3, 51, 127
2, 129896, Note_off_c, 3, 75, 127
2, 129898, Note_on_c, 1, 73, 127
2, 130066, Note_off_c, 1, 73, 127
2, 130066, Note_off_c, 3, 51, 127
2, 130068, Note_on_c, 8, 56, 127
2, 130068, Note_on_c, 12, 71, 127
2, 130236, Note_off_c, 12, 71, 127
2, 130236, Note_off_c, 8, 56, 127
2, 130238, Note_on_c, 6, 54, 127
2, 130238, Note_on_c, 10, 69, 127
2, 130406, Note_off_c, 10, 69, 127
2, 130406, Note_off_c, 6, 54, 127
2, 130408, Note_on_c, 5, 53, 127
2, 130408, Note_on_c, 8, 68, 127
2, 130576, Note_off_c, 5, 53, 127
2, 130578, Note_on_c, 3, 51, 127
2, 130746, Note_off_c, 3, 51, 127
2, 130746, Note_off_c, 8, 68, 127
2, 130748, Note_on_c, 5, 53, 127
2, 130748, Note_on_c, 1, 73, 127
2, 130916, Note_off_c, 5, 53, 127
2, 130918, Note_on_c, 1, 49, 127
2, 131086, Note_off_c, 1, 49, 127
2, 131088, Note_on_c, 6, 54, 127
2, 131425, Note_off_c, 6, 54, 127
2, 131425, Note_off_c, 1, 73, 127
2, 131427, Note_on_c, 2, 62, 127
2, 131427, Note_on_c, 12, 71, 127
2, 131595, Note_off_c, 12, 71, 127
2, 131597, Note_on_c, 11, 70, 127
2, 131765, Note_off_c, 11, 70, 127
2, 131765, Note_off_c, 2, 62, 127
2, 131767, Note_on_c, 5, 53, 127
2, 131767, Note_on_c, 8, 68, 127
2, 132104, Note_off_c, 8, 68, 127
2, 132104, Note_off_c, 5, 53, 127
2, 132106, Note_on_c, 6, 54, 127
2, 132106, Note_on_c, 11, 70, 127
2, 132217, Note_off_c, 11, 70, 127
2, 132219, Note_on_c, 12, 71, 127
2, 132330, Note_off_c, 12, 71, 127
2, 132332, Note_on_c, 1, 73, 127
2, 132443, Note_off_c, 1, 73, 127
2, 132443, Note_off_c, 6, 54, 127
2, 132445, Note_on_c, 6, 54, 127
2, 132445, Note_on_c, 11, 70, 127
2, 132556, Note_off_c, 11, 70, 127
2, 132558, Note_on_c, 8, 68, 127
2, 132614, Note_off_c, 8, 68, 127
2, 132614, Note_on_c, 11, 70, 127
2, 132670, Note_off_c, 11, 70, 127
2, 132670, Note_on_c, 8, 68, 127
2, 132726, Note_off_c, 8, 68, 127
2, 132726, Note_on_c, 11, 70, 127
2, 132782, Note_off_c, 11, 70, 127
2, 132782, Note_on_c, 8, 68, 127
2, 132950, Note_off_c, 8, 68, 127
2, 132950, Note_off_c, 6, 54, 127
2, 132952, Note_on_c, 5, 53, 127
2, 132952, Note_on_c, 8, 68, 127
2, 133120, Note_off_c, 8, 68, 127
2, 133120, Note_off_c, 5, 53, 127
2, 133122, Note_on_c, 6, 54, 127
2, 133122, Note_on_c, 11, 70, 127
2, 133290, Note_off_c, 11, 70, 127
2, 133292, Note_on_c, 8, 68, 127
2, 133460, Note_off_c, 8, 68, 127
2, 133462, Note_on_c, 6, 66, 127
2, 133630, Note_off_c, 6, 54, 127
2, 133632, Note_on_c, 8, 56, 127
2, 133800, Note_off_c, 8, 56, 127
2, 133802, Note_on_c, 11, 58, 127
2, 133970, Note_off_c, 11, 58, 127
2, 133970, Note_off_c, 6, 66, 127
2, 133972, Note_on_c, 12, 59, 127
2, 133972, Note_on_c, 8, 68, 127
2, 134140, Note_off_c, 8, 68, 127
2, 134140, Note_off_c, 12, 59, 127
2, 134142, Note_on_c, 1, 61, 127
2, 134142, Note_on_c, 11, 70, 127
2, 134310, Note_off_c, 11, 70, 127
2, 134310, Note_off_c, 1, 61, 127
2, 134312, Note_on_c, 3, 63, 127
2, 134312, Note_on_c, 12, 71, 127
2, 134480, Note_off_c, 12, 71, 127
2, 134480, Note_off_c, 3, 63, 127
2, 134482, Note_on_c, 4, 64, 127
2, 134482, Note_on_c, 8, 68, 127
2, 134650, Note_off_c, 8, 68, 127
2, 134650, Note_off_c, 4, 64, 127
2, 134652, Note_on_c, 3, 63, 127
2, 134652, Note_on_c, 11, 70, 127
2, 134820, Note_off_c, 11, 70, 127
2, 134820, Note_off_c, 3, 63, 127
2, 134822, Note_on_c, 1, 61, 127
2, 134822, Note_on_c, 12, 71, 127
2, 134990, Note_off_c, 1, 61, 127
2, 134992, Note_on_c, 12, 59, 127
2, 135160, Note_off_c, 12, 59, 127
2, 135160, Note_off_c, 12, 71, 127
2, 135162, Note_on_c, 1, 61, 127
2, 135162, Note_on_c, 12, 71, 127
2, 135245, Note_off_c, 12, 71, 127
2, 135259, Note_on_c, 11, 70, 127
2, 135342, Note_off_c, 11, 70, 127
2, 135356, Note_on_c, 12, 71, 127
2, 135499, Note_off_c, 1, 61, 127
2, 135501, Note_on_c, 6, 66, 127
2, 135670, Note_on_c, 11, 70, 127
2, 135674, Note_off_c, 12, 71, 127
2, 135838, Note_off_c, 11, 70, 127
2, 135838, Note_off_c, 6, 66, 127
2, 135840, Note_on_c, 3, 63, 127
2, 135840, Note_on_c, 12, 71, 127
2, 136008, Note_off_c, 12, 71, 127
2, 136010, Note_on_c, 11, 70, 127
2, 136178, Note_off_c, 11, 70, 127
2, 136180, Note_on_c, 12, 71, 127
2, 136348, Note_off_c, 12, 71, 127
2, 136348, Note_off_c, 3, 63, 127
2, 136350, Note_on_c, 1, 61, 127
2, 136350, Note_on_c, 1, 73, 127
2, 136518, Note_off_c, 1, 73, 127
2, 136518, Note_off_c, 1, 61, 127
2, 136520, Note_on_c, 12, 59, 127
2, 136520, Note_on_c, 3, 75, 127
2, 136688, Note_off_c, 12, 59, 127
2, 136690, Note_on_c, 1, 61, 127
2, 136858, Note_off_c, 1, 61, 127
2, 136858, Note_off_c, 3, 75, 127
2, 136860, Note_on_c, 3, 63, 127
2, 136860, Note_on_c, 12, 71, 127
2, 136860, Note_on_c, 3, 75, 127
2, 137028, Note_off_c, 3, 63, 127
2, 137030, Note_on_c, 4, 64, 127
2, 137198, Note_off_c, 4, 64, 127
2, 137198, Note_off_c, 3, 75, 127
2, 137198, Note_off_c, 12, 71, 127
2, 137200, Note_on_c, 6, 66, 127
2, 137200, Note_on_c, 11, 70, 127
2, 137200, Note_on_c, 1, 73, 127
2, 137368, Note_off_c, 1, 73, 127
2, 137370, Note_on_c, 12, 71, 127
2, 137536, Note_off_c, 11, 70, 127
2, 137538, Note_off_c, 12, 71, 127
2, 137538, Note_off_c, 6, 66, 127
2, 137540, Note_on_c, 6, 66, 127
2, 137540, Note_on_c, 11, 70, 127
2, 137708, Note_off_c, 11, 70, 127
2, 137710, Note_on_c, 12, 71, 127
2, 137878, Note_off_c, 12, 71, 127
2, 137878, Note_off_c, 6, 66, 127
2, 137880, Note_on_c, 6, 66, 127
2, 137880, Note_on_c, 11, 70, 127
2, 137880, Note_on_c, 1, 73, 127
2, 138048, Note_off_c, 6, 66, 127
2, 138050, Note_on_c, 4, 64, 127
2, 138218, Note_off_c, 4, 64, 127
2, 138218, Note_off_c, 1, 73, 127
2, 138218, Note_off_c, 11, 70, 127
2, 138220, Note_on_c, 3, 63, 127
2, 138220, Note_on_c, 12, 71, 127
2, 138220, Note_on_c, 3, 75, 127
2, 138388, Note_off_c, 3, 63, 127
2, 138390, Note_on_c, 4, 64, 127
2, 138558, Note_off_c, 4, 64, 127
2, 138558, Note_off_c, 3, 75, 127
2, 138558, Note_off_c, 12, 71, 127
2, 138560, Note_on_c, 6, 66, 127
2, 138560, Note_on_c, 11, 70, 127
2, 138560, Note_on_c, 1, 73, 127
2, 138728, Note_off_c, 1, 73, 127
2, 138730, Note_on_c, 12, 71, 127
2, 138896, Note_off_c, 11, 70, 127
2, 138898, Note_off_c, 12, 71, 127
2, 138898, Note_off_c, 6, 66, 127
2, 138900, Note_on_c, 6, 66, 127
2, 138900, Note_on_c, 11, 70, 127
2, 139068, Note_off_c, 11, 70, 127
2, 139070, Note_on_c, 12, 71, 127
2, 139238, Note_off_c, 12, 71, 127
2, 139238, Note_off_c, 6, 66, 127
2, 139240, Note_on_c, 6, 66, 127
2, 139240, Note_on_c, 11, 70, 127
2, 139240, Note_on_c, 1, 73, 127
2, 139408, Note_off_c, 6, 66, 127
2, 139410, Note_on_c, 4, 64, 127
2, 139578, Note_off_c, 4, 64, 127
2, 139578, Note_off_c, 1, 73, 127
2, 139578, Note_off_c, 11, 70, 127
2, 139580, Note_on_c, 3, 63, 127
2, 139580, Note_on_c, 12, 71, 127
2, 139580, Note_on_c, 3, 75, 127
2, 139748, Note_off_c, 3, 63, 127
2, 139750, Note_on_c, 4, 64, 127
2, 139918, Note_off_c, 4, 64, 127
2, 139918, Note_off_c, 3, 75, 127
2, 139918, Note_off_c, 12, 71, 127
2, 139920, Note_on_c, 6, 66, 127
2, 139920, Note_on_c, 11, 70, 127
2, 139920, Note_on_c, 1, 73, 127
2, 140088, Note_off_c, 1, 73, 127
2, 140090, Note_on_c, 12, 71, 127
2, 140256, Note_off_c, 11, 70, 127
2, 140258, Note_off_c, 12, 71, 127
2, 140258, Note_off_c, 6, 66, 127
2, 140260, Note_on_c, 6, 66, 127
2, 140260, Note_on_c, 11, 70, 127
2, 140428, Note_off_c, 11, 70, 127
2, 140430, Note_on_c, 12, 71, 127
2, 140598, Note_off_c, 12, 71, 127
2, 140598, Note_off_c, 6, 66, 127
2, 140600, Note_on_c, 6, 66, 127
2, 140600, Note_on_c, 11, 70, 127
2, 140600, Note_on_c, 1, 73, 127
2, 140768, Note_off_c, 1, 73, 127
2, 140770, Note_on_c, 3, 75, 127
2, 140938, Note_off_c, 3, 75, 127
2, 140938, Note_off_c, 11, 70, 127
2, 140938, Note_off_c, 6, 66, 127
2, 140940, Note_on_c, 6, 66, 127
2, 140940, Note_on_c, 1, 73, 127
2, 140940, Note_on_c, 4, 76, 127
2, 141108, Note_off_c, 4, 76, 127
2, 141110, Note_on_c, 6, 78, 127
2, 141278, Note_off_c, 6, 78, 127
2, 141278, Note_off_c, 1, 73, 127
2, 141278, Note_off_c, 6, 66, 127
2, 141280, Note_on_c, 8, 68, 127
2, 141280, Note_on_c, 0, 72, 127
2, 141280, Note_on_c, 3, 75, 127
2, 141448, Note_off_c, 3, 75, 127
2, 141450, Note_on_c, 1, 73, 127
2, 141616, Note_off_c, 0, 72, 127
2, 141618, Note_off_c, 1, 73, 127
2, 141618, Note_off_c, 8, 68, 127
2, 141620, Note_on_c, 8, 68, 127
2, 141620, Note_on_c, 0, 72, 127
2, 141788, Note_off_c, 0, 72, 127
2, 141790, Note_on_c, 1, 73, 127
2, 141958, Note_off_c, 1, 73, 127
2, 141958, Note_off_c, 8, 68, 127
2, 141960, Note_on_c, 8, 68, 127
2, 141960, Note_on_c, 0, 72, 127
2, 141960, Note_on_c, 3, 75, 127
2, 142128, Note_off_c, 8, 68, 127
2, 142130, Note_on_c, 6, 66, 127
2, 142298, Note_off_c, 6, 66, 127
2, 142298, Note_off_c, 3, 75, 127
2, 142298, Note_off_c, 0, 72, 127
2, 142300, Note_on_c, 4, 64, 127
2, 142300, Note_on_c, 1, 73, 127
2, 142300, Note_on_c, 4, 76, 127
2, 142468, Note_off_c, 4, 64, 127
2, 142470, Note_on_c, 6, 66, 127
2, 142638, Note_off_c, 6, 66, 127
2, 142638, Note_off_c, 4, 76, 127
2, 142638, Note_off_c, 1, 73, 127
2, 142640, Note_on_c, 8, 68, 127
2, 142640, Note_on_c, 0, 72, 127
2, 142640, Note_on_c, 3, 75, 127
2, 142808, Note_off_c, 3, 75, 127
2, 142810, Note_on_c, 1, 73, 127
2, 142976, Note_off_c, 0, 72, 127
2, 142978, Note_off_c, 1, 73, 127
2, 142978, Note_off_c, 8, 68, 127
2, 142980, Note_on_c, 8, 68, 127
2, 142980, Note_on_c, 0, 72, 127
2, 143148, Note_off_c, 0, 72, 127
2, 143150, Note_on_c, 1, 73, 127
2, 143318, Note_off_c, 1, 73, 127
2, 143318, Note_off_c, 8, 68, 127
2, 143320, Note_on_c, 8, 68, 127
2, 143320, Note_on_c, 0, 72, 127
2, 143320, Note_on_c, 3, 75, 127
2, 143488, Note_off_c, 8, 68, 127
2, 143490, Note_on_c, 6, 66, 127
2, 143658, Note_off_c, 6, 66, 127
2, 143658, Note_off_c, 3, 75, 127
2, 143658, Note_off_c, 0, 72, 127
2, 143660, Note_on_c, 4, 64, 127
2, 143660, Note_on_c, 1, 73, 127
2, 143660, Note_on_c, 4, 76, 127
2, 143828, Note_off_c, 4, 64, 127
2, 143830, Note_on_c, 6, 66, 127
2, 143998, Note_off_c, 6, 66, 127
2, 143998, Note_off_c, 4, 76, 127
2, 143998, Note_off_c, 1, 73, 127
2, 144000, Note_on_c, 8, 68, 127
2, 144000, Note_on_c, 0, 72, 127
2, 144000, Note_on_c, 3, 75, 127
2, 144168, Note_off_c, 3, 75, 127
2, 144170, Note_on_c, 6, 78, 127
2, 144336, Note_off_c, 0, 72, 127
2, 144338, Note_off_c, 6, 78, 127
2, 144340, Note_on_c, 10, 81, 127
2, 144495, Note_off_c, 8, 68, 127
2, 144507, Note_off_c, 10, 81, 127
2, 144509, Note_on_c, 8, 80, 127
2, 144677, Note_off_c, 8, 80, 127
2, 144679, Note_on_c, 6, 78, 127
2, 144848, Note_on_c, 10, 69, 127
2, 144848, Note_on_c, 1, 73, 127
2, 145016, Note_off_c, 1, 73, 127
2, 145016, Note_off_c, 10, 69, 127
2, 145018, Note_on_c, 8, 68, 127
2, 145018, Note_on_c, 2, 74, 127
2, 145186, Note_off_c, 2, 74, 127
2, 145186, Note_off_c, 8, 68, 127
2, 145188, Note_on_c, 6, 66, 127
2, 145188, Note_on_c, 1, 73, 127
2, 145356, Note_off_c, 1, 73, 127
2, 145356, Note_off_c, 6, 66, 127
2, 145358, Note_on_c, 8, 68, 127
2, 145358, Note_on_c, 0, 72, 127
2, 145526, Note_off_c, 6, 78, 127
2, 145528, Note_on_c, 8, 80, 127
2, 145696, Note_off_c, 8, 80, 127
2, 145696, Note_off_c, 0, 72, 127
2, 145696, Note_off_c, 8, 68, 127
2, 145698, Note_on_c, 1, 61, 127
2, 145698, Note_on_c, 1, 73, 127
2, 145698, Note_on_c, 4, 76, 127
2, 145866, Note_off_c, 4, 76, 127
2, 145868, Note_on_c, 6, 78, 127
2, 146036, Note_off_c, 6, 78, 127
2, 146036, Note_off_c, 1, 73, 127
2, 146036, Note_off_c, 1, 61, 127
2, 146038, Note_on_c, 8, 68, 127
2, 146038, Note_on_c, 0, 72, 127
2, 146038, Note_on_c, 3, 75, 127
2, 146375, Note_off_c, 8, 68, 127
2, 146377, Note_on_c, 8, 56, 127
2, 146545, Note_off_c, 3, 75, 127
2, 146547, Note_on_c, 1, 73, 127
2, 146713, Note_off_c, 8, 56, 127
2, 146715, Note_off_c, 1, 73, 127
2, 146715, Note_off_c, 0, 72, 127
2, 146717, Note_on_c, 1, 73, 127
2, 146717, Note_on_c, 1, 61, 127
2, 146886, Note_on_c, 1, 49, 127
2, 147054, Note_off_c, 1, 49, 127
2, 147056, Note_on_c, 4, 52, 127
2, 147224, Note_off_c, 4, 52, 127
2, 147224, Note_off_c, 1, 61, 127
2, 147224, Note_off_c, 1, 73, 127
2, 147226, Note_on_c, 1, 49, 127
2, 147226, Note_on_c, 8, 68, 127
2, 147226, Note_on_c, 4, 64, 127
2, 147226, Note_on_c, 1, 73, 127
2, 147394, Note_off_c, 1, 73, 127
2, 147394, Note_off_c, 4, 64, 127
2, 147394, Note_off_c, 8, 68, 127
2, 147394, Note_off_c, 1, 49, 127
2, 147396, Note_on_c, 8, 56, 127
2, 147396, Note_on_c, 8, 68, 127
2, 147396, Note_on_c, 3, 63, 127
2, 147396, Note_on_c, 0, 72, 127
2, 147564, Note_off_c, 8, 56, 127
2, 147566, Note_on_c, 8, 44, 127
2, 147734, Note_off_c, 8, 44, 127
2, 147736, Note_on_c, 0, 48, 127
2, 147891, Note_off_c, 3, 63, 127
2, 147891, Note_off_c, 8, 68, 127
2, 147903, Note_off_c, 0, 48, 127
2, 147903, Note_off_c, 0, 72, 127
2, 147905, Note_on_c, 8, 44, 127
2, 147905, Note_on_c, 0, 72, 127
2, 148073, Note_off_c, 0, 72, 127
2, 148073, Note_off_c, 8, 44, 127
2, 148075, Note_on_c, 1, 49, 127
2, 148075, Note_on_c, 4, 76, 127
2, 148243, Note_off_c, 4, 76, 127
2, 148245, Note_on_c, 3, 75, 127
2, 148413, Note_off_c, 3, 75, 127
2, 148413, Note_off_c, 1, 49, 127
2, 148415, Note_on_c, 1, 49, 127
2, 148415, Note_on_c, 1, 73, 127
2, 148583, Note_off_c, 1, 73, 127
2, 148585, Note_on_c, 3, 75, 127
2, 148753, Note_off_c, 3, 75, 127
2, 148753, Note_off_c, 1, 49, 127
2, 148755, Note_on_c, 1, 49, 127
2, 148755, Note_on_c, 4, 76, 127
2, 149092, Note_off_c, 4, 76, 127
2, 149092, Note_off_c, 1, 49, 127
2, 149094, Note_on_c, 1, 49, 127
2, 149094, Note_on_c, 3, 75, 127
2, 149262, Note_off_c, 3, 75, 127
2, 149264, Note_on_c, 1, 73, 127
2, 149432, Note_off_c, 1, 73, 127
2, 149432, Note_off_c, 1, 49, 127
2, 149434, Note_on_c, 3, 51, 127
2, 149434, Note_on_c, 6, 78, 127
2, 149771, Note_off_c, 3, 51, 127
2, 149773, Note_on_c, 6, 54, 127
2, 149773, Note_on_c, 0, 72, 127
2, 149941, Note_off_c, 6, 54, 127
2, 149943, Note_on_c, 4, 52, 127
2, 150111, Note_off_c, 4, 52, 127
2, 150111, Note_off_c, 6, 78, 127
2, 150113, Note_on_c, 3, 51, 127
2, 150113, Note_on_c, 6, 78, 127
2, 150268, Note_off_c, 0, 72, 127
2, 150450, Note_off_c, 3, 51, 127
2, 150452, Note_on_c, 8, 56, 127
2, 150452, Note_on_c, 0, 72, 127
2, 150620, Note_off_c, 8, 56, 127
2, 150622, Note_on_c, 6, 54, 127
2, 150790, Note_off_c, 6, 54, 127
2, 150790, Note_off_c, 6, 78, 127
2, 150792, Note_on_c, 4, 52, 127
2, 150792, Note_on_c, 8, 80, 127
2, 150947, Note_off_c, 0, 72, 127
2, 151129, Note_off_c, 4, 52, 127
2, 151131, Note_on_c, 8, 56, 127
2, 151131, Note_on_c, 1, 73, 127
2, 151299, Note_off_c, 8, 56, 127
2, 151301, Note_on_c, 6, 54, 127
2, 151469, Note_off_c, 6, 54, 127
2, 151469, Note_off_c, 8, 80, 127
2, 151471, Note_on_c, 4, 52, 127
2, 151471, Note_on_c, 8, 80, 127
2, 151626, Note_off_c, 1, 73, 127
2, 151808, Note_off_c, 8, 80, 127
2, 151808, Note_off_c, 4, 52, 127
2, 151810, Note_on_c, 10, 57, 127
2, 151810, Note_on_c, 1, 73, 127
2, 151810, Note_on_c, 4, 76, 127
2, 151978, Note_off_c, 10, 57, 127
2, 151980, Note_on_c, 8, 56, 127
2, 152148, Note_off_c, 8, 56, 127
2, 152148, Note_off_c, 4, 76, 127
2, 152150, Note_on_c, 7, 55, 127
2, 152150, Note_on_c, 3, 75, 127
2, 152318, Note_off_c, 7, 55, 127
2, 152320, Note_on_c, 5, 53, 127
2, 152488, Note_off_c, 5, 53, 127
2, 152488, Note_off_c, 1, 73, 127
2, 152490, Note_on_c, 7, 55, 127
2, 152490, Note_on_c, 1, 73, 127
2, 152658, Note_off_c, 7, 55, 127
2, 152660, Note_on_c, 3, 51, 127
2, 152828, Note_off_c, 3, 51, 127
2, 152828, Note_off_c, 1, 73, 127
2, 152830, Note_on_c, 8, 56, 127
2, 152830, Note_on_c, 12, 71, 127
2, 153165, Note_off_c, 12, 71, 127
2, 153167, Note_off_c, 3, 75, 127
2, 153169, Note_on_c, 4, 64, 127
2, 153169, Note_on_c, 1, 73, 127
2, 153338, Note_on_c, 3, 75, 127
2, 153500, Note_off_c, 8, 56, 127
2, 153505, Note_off_c, 3, 75, 127
2, 153507, Note_on_c, 7, 55, 127
2, 153507, Note_on_c, 4, 76, 127
2, 153839, Note_off_c, 1, 73, 127
2, 153839, Note_off_c, 4, 64, 127
2, 153844, Note_off_c, 4, 76, 127
2, 153844, Note_off_c, 7, 55, 127
2, 153846, Note_on_c, 8, 56, 127
2, 153846, Note_on_c, 3, 75, 127
2, 153846, Note_on_c, 12, 71, 127
2, 154014, Note_off_c, 3, 75, 127
2, 154016, Note_on_c, 4, 76, 127
2, 154182, Note_off_c, 12, 71, 127
2, 154184, Note_off_c, 4, 76, 127
2, 154186, Note_on_c, 1, 73, 127
2, 154186, Note_on_c, 11, 70, 127
2, 154354, Note_off_c, 1, 73, 127
2, 154356, Note_on_c, 4, 76, 127
2, 154524, Note_off_c, 4, 76, 127
2, 154524, Note_off_c, 8, 56, 127
2, 154526, Note_on_c, 7, 55, 127
2, 154526, Note_on_c, 3, 75, 127
2, 154694, Note_off_c, 3, 75, 127
2, 154696, Note_on_c, 1, 73, 127
2, 154858, Note_off_c, 11, 70, 127
2, 154863, Note_off_c, 1, 73, 127
2, 154863, Note_off_c, 7, 55, 127
2, 154865, Note_on_c, 8, 56, 127
2, 154865, Note_on_c, 12, 71, 127
2, 154865, Note_on_c, 8, 68, 127
2, 155033, Note_off_c, 8, 68, 127
2, 155033, Note_off_c, 12, 71, 127
2, 155035, Note_on_c, 8, 68, 127
2, 155203, Note_off_c, 8, 68, 127
2, 155205, Note_on_c, 12, 71, 127
2, 155373, Note_off_c, 12, 71, 127
2, 155375, Note_on_c, 8, 68, 127
2, 155537, Note_off_c, 8, 56, 127
2, 155542, Note_off_c, 8, 68, 127
2, 155544, Note_on_c, 3, 75, 127
2, 155712, Note_off_c, 3, 75, 127
2, 155714, Note_on_c, 3, 63, 127
2, 155882, Note_off_c, 3, 63, 127
2, 155884, Note_on_c, 3, 51, 127
2, 155884, Note_on_c, 11, 58, 127
2, 155884, Note_on_c, 7, 67, 127
2, 156053, Note_on_c, 3, 63, 127
2, 156221, Note_off_c, 7, 67, 127
2, 156221, Note_off_c, 11, 58, 127
2, 156221, Note_off_c, 3, 51, 127
2, 156223, Note_on_c, 4, 52, 127
2, 156223, Note_on_c, 8, 56, 127
2, 156223, Note_on_c, 8, 68, 127
2, 156560, Note_off_c, 8, 68, 127
2, 156560, Note_off_c, 3, 63, 127
2, 156562, Note_on_c, 4, 64, 127
2, 156562, Note_on_c, 8, 68, 127
2, 156730, Note_off_c, 4, 64, 127
2, 156732, Note_on_c, 3, 63, 127
2, 156900, Note_off_c, 3, 63, 127
2, 156900, Note_off_c, 8, 68, 127
2, 156900, Note_off_c, 4, 52, 127
2, 156902, Note_on_c, 5, 53, 127
2, 156902, Note_on_c, 2, 62, 127
2, 156902, Note_on_c, 8, 68, 127
2, 157071, Note_off_c, 8, 56, 127
2, 157071, Note_on_c, 12, 59, 127
2, 157239, Note_off_c, 12, 59, 127
2, 157239, Note_off_c, 8, 68, 127
2, 157241, Note_on_c, 11, 58, 127
2, 157241, Note_on_c, 8, 68, 127
2, 157409, Note_off_c, 11, 58, 127
2, 157411, Note_on_c, 8, 56, 127
2, 157579, Note_off_c, 8, 56, 127
2, 157579, Note_off_c, 8, 68, 127
2, 157579, Note_off_c, 2, 62, 127
2, 157579, Note_off_c, 5, 53, 127
2, 157581, Note_on_c, 7, 55, 127
2, 157581, Note_on_c, 3, 51, 127
2, 157581, Note_on_c, 3, 63, 127
2, 157581, Note_on_c, 11, 70, 127
2, 157918, Note_off_c, 11, 70, 127
2, 157920, Note_on_c, 1, 73, 127
2, 158088, Note_off_c, 1, 73, 127
2, 158090, Note_on_c, 12, 71, 127
2, 158258, Note_off_c, 12, 71, 127
2, 158260, Note_on_c, 11, 70, 127
2, 158429, Note_off_c, 3, 63, 127
2, 158429, Note_off_c, 3, 51, 127
2, 158429, Note_off_c, 7, 55, 127
2, 158597, Note_off_c, 11, 70, 127
2, 158599, Note_on_c, 3, 51, 127
2, 158599, Note_on_c, 7, 55, 127
2, 158599, Note_on_c, 3, 63, 127
2, 158599, Note_on_c, 3, 75, 127
2, 158767, Note_off_c, 3, 75, 127
2, 158769, Note_on_c, 1, 73, 127
2, 158937, Note_off_c, 1, 73, 127
2, 158937, Note_off_c, 3, 63, 127
2, 158937, Note_off_c, 7, 55, 127
2, 158937, Note_off_c, 3, 51, 127
2, 158939, Note_on_c, 8, 44, 127
2, 158939, Note_on_c, 8, 56, 127
2, 158939, Note_on_c, 3, 63, 127
2, 158939, Note_on_c, 0, 72, 127
2, 159276, Note_off_c, 0, 72, 127
2, 159278, Note_on_c, 3, 75, 127
2, 159446, Note_off_c, 3, 75, 127
2, 159448, Note_on_c, 1, 73, 127
2, 159616, Note_off_c, 1, 73, 127
2, 159618, Note_on_c, 0, 72, 127
2, 159787, Note_off_c, 3, 63, 127
2, 159787, Note_off_c, 8, 56, 127
2, 159787, Note_off_c, 8, 44, 127
2, 159955, Note_off_c, 0, 72, 127
2, 159957, Note_on_c, 12, 59, 127
2, 159957, Note_on_c, 8, 56, 127
2, 159957, Note_on_c, 5, 77, 127
2, 160125, Note_off_c, 5, 77, 127
2, 160127, Note_on_c, 3, 75, 127
2, 160295, Note_off_c, 3, 75, 127
2, 160295, Note_off_c, 8, 56, 127
2, 160295, Note_off_c, 12, 59, 127
2, 160297, Note_on_c, 11, 58, 127
2, 160297, Note_on_c, 2, 74, 127
2, 160465, Note_off_c, 2, 74, 127
2, 160467, Note_on_c, 0, 72, 127
2, 160635, Note_off_c, 0, 72, 127
2, 160637, Note_on_c, 8, 56, 127
2, 160637, Note_on_c, 2, 74, 127
2, 160805, Note_off_c, 2, 74, 127
2, 160807, Note_on_c, 11, 70, 127
2, 160975, Note_off_c, 11, 70, 127
2, 160975, Note_off_c, 8, 56, 127
2, 160977, Note_on_c, 6, 54, 127
2, 160977, Note_on_c, 3, 75, 127
2, 161314, Note_off_c, 3, 75, 127
2, 161314, Note_off_c, 11, 58, 127
2, 161316, Note_on_c, 8, 56, 127
2, 161316, Note_on_c, 12, 83, 127
2, 161653, Note_off_c, 12, 83, 127
2, 161653, Note_off_c, 6, 54, 127
2, 161655, Note_on_c, 5, 53, 127
2, 161655, Note_on_c, 1, 73, 127
2, 161992, Note_off_c, 1, 73, 127
2, 161992, Note_off_c, 5, 53, 127
2, 161992, Note_off_c, 8, 56, 127
2, 161994, Note_on_c, 6, 54, 127
2, 161994, Note_on_c, 11, 58, 127
2, 161994, Note_on_c, 3, 75, 127
2, 162162, Note_off_c, 3, 75, 127
2, 162164, Note_on_c, 1, 73, 127
2, 162332, Note_off_c, 1, 73, 127
2, 162332, Note_off_c, 11, 58, 127
2, 162332, Note_off_c, 6, 54, 127
2, 162334, Note_on_c, 8, 44, 127
2, 162334, Note_on_c, 8, 56, 127
2, 162334, Note_on_c, 12, 71, 127
2, 162502, Note_off_c, 12, 71, 127
2, 162504, Note_on_c, 1, 73, 127
2, 162672, Note_off_c, 1, 73, 127
2, 162672, Note_off_c, 8, 56, 127
2, 162672, Note_off_c, 8, 44, 127
2, 162674, Note_on_c, 11, 46, 127
2, 162674, Note_on_c, 6, 54, 127
2, 162674, Note_on_c, 11, 70, 127
2, 162842, Note_off_c, 11, 70, 127
2, 162844, Note_on_c, 12, 71, 127
2, 163012, Note_off_c, 12, 71, 127
2, 163012, Note_off_c, 6, 54, 127
2, 163012, Note_off_c, 11, 46, 127
2, 163014, Note_on_c, 12, 47, 127
2, 163014, Note_on_c, 5, 53, 127
2, 163014, Note_on_c, 8, 68, 127
2, 163182, Note_off_c, 8, 68, 127
2, 163184, Note_on_c, 11, 70, 127
2, 163352, Note_off_c, 11, 70, 127
2, 163352, Note_off_c, 5, 53, 127
2, 163352, Note_off_c, 12, 47, 127
2, 163354, Note_on_c, 8, 44, 127
2, 163354, Note_on_c, 3, 51, 127
2, 163354, Note_on_c, 6, 66, 127
2, 163522, Note_off_c, 6, 66, 127
2, 163524, Note_on_c, 8, 68, 127
2, 163692, Note_off_c, 8, 68, 127
2, 163692, Note_off_c, 8, 44, 127
2, 163694, Note_on_c, 11, 46, 127
2, 163694, Note_on_c, 6, 66, 127
2, 163749, Note_off_c, 6, 66, 127
2, 163751, Note_on_c, 5, 65, 127
2, 163806, Note_off_c, 5, 65, 127
2, 163808, Note_on_c, 6, 66, 127
2, 163863, Note_off_c, 6, 66, 127
2, 163865, Note_on_c, 5, 65, 127
2, 164033, Note_off_c, 3, 51, 127
2, 164035, Note_on_c, 2, 50, 127
2, 164204, Note_on_c, 3, 63, 127
2, 164289, Note_off_c, 5, 65, 127
2, 164372, Note_off_c, 3, 63, 127
2, 164372, Note_off_c, 2, 50, 127
2, 164372, Note_off_c, 11, 46, 127
2, 164374, Note_on_c, 12, 47, 127
2, 164374, Note_on_c, 3, 51, 127
2, 164374, Note_on_c, 3, 63, 127
2, 164711, Note_off_c, 3, 51, 127
2, 164713, Note_on_c, 8, 56, 127
2, 165050, Note_off_c, 3, 63, 127
2, 165050, Note_off_c, 12, 47, 127
2, 165052, Note_on_c, 1, 49, 127
2, 165052, Note_on_c, 5, 65, 127
2, 165389, Note_off_c, 8, 56, 127
2, 165391, Note_on_c, 11, 58, 127
2, 165728, Note_off_c, 5, 65, 127
2, 165728, Note_off_c, 1, 49, 127
2, 165730, Note_on_c, 3, 51, 127
2, 165730, Note_on_c, 7, 67, 127
2, 166067, Note_off_c, 7, 67, 127
2, 166067, Note_off_c, 3, 51, 127
2, 166067, Note_off_c, 11, 58, 127
2, 166069, Note_on_c, 4, 52, 127
2, 166069, Note_on_c, 8, 56, 127
2, 166069, Note_on_c, 8, 68, 127
2, 166237, Note_off_c, 8, 68, 127
2, 166239, Note_on_c, 11, 70, 127
2, 166407, Note_off_c, 11, 70, 127
2, 166407, Note_off_c, 4, 52, 127
2, 166409, Note_on_c, 1, 49, 127
2, 166409, Note_on_c, 12, 71, 127
2, 166522, Note_off_c, 12, 71, 127
2, 166522, Note_on_c, 11, 70, 127
2, 166577, Note_off_c, 11, 70, 127
2, 166579, Note_on_c, 12, 71, 127
2, 166634, Note_off_c, 12, 71, 127
2, 166636, Note_on_c, 11, 70, 127
2, 166691, Note_off_c, 11, 70, 127
2, 166693, Note_on_c, 12, 71, 127
2, 166748, Note_off_c, 12, 71, 127
2, 166748, Note_off_c, 1, 49, 127
2, 166748, Note_off_c, 8, 56, 127
2, 166750, Note_on_c, 3, 51, 127
2, 166750, Note_on_c, 7, 55, 127
2, 166750, Note_on_c, 11, 70, 127
2, 167004, Note_off_c, 11, 70, 127
2, 167004, Note_on_c, 8, 68, 127
2, 167087, Note_off_c, 8, 68, 127
2, 167087, Note_off_c, 7, 55, 127
2, 167087, Note_off_c, 3, 51, 127
2, 167089, Note_on_c, 4, 52, 127
2, 167089, Note_on_c, 8, 56, 127
2, 167089, Note_on_c, 8, 68, 127
2, 167426, Note_off_c, 8, 56, 127
2, 167428, Note_on_c, 1, 61, 127
2, 167765, Note_off_c, 8, 68, 127
2, 167765, Note_off_c, 4, 52, 127
2, 167767, Note_on_c, 6, 54, 127
2, 167767, Note_on_c, 11, 70, 127
2, 168104, Note_off_c, 1, 61, 127
2, 168106, Note_on_c, 3, 63, 127
2, 168443, Note_off_c, 11, 70, 127
2, 168443, Note_off_c, 6, 54, 127
2, 168445, Note_on_c, 8, 56, 127
2, 168445, Note_on_c, 0, 72, 127
2, 168782, Note_off_c, 0, 72, 127
2, 168782, Note_off_c, 8, 56, 127
2, 168782, Note_off_c, 3, 63, 127
2, 168784, Note_on_c, 10, 57, 127
2, 168784, Note_on_c, 1, 61, 127
2, 168784, Note_on_c, 1, 73, 127
2, 168952, Note_off_c, 1, 73, 127
2, 168954, Note_on_c, 3, 75, 127
2, 169122, Note_off_c, 3, 75, 127
2, 169122, Note_off_c, 10, 57, 127
2, 169124, Note_on_c, 6, 54, 127
2, 169124, Note_on_c, 4, 76, 127
2, 169180, Note_off_c, 4, 76, 127
2, 169180, Note_on_c, 3, 75, 127
2, 169235, Note_off_c, 3, 75, 127
2, 169237, Note_on_c, 4, 76, 127
2, 169292, Note_off_c, 4, 76, 127
2, 169294, Note_on_c, 3, 75, 127
2, 169349, Note_off_c, 3, 75, 127
2, 169351, Note_on_c, 4, 76, 127
2, 169406, Note_off_c, 4, 76, 127
2, 169408, Note_on_c, 3, 75, 127
2, 169463, Note_off_c, 6, 54, 127
2, 169463, Note_off_c, 1, 61, 127
2, 169465, Note_on_c, 8, 56, 127
2, 169465, Note_on_c, 0, 60, 127
2, 169620, Note_off_c, 3, 75, 127
2, 169634, Note_on_c, 1, 73, 127
2, 169789, Note_off_c, 1, 73, 127
2, 169801, Note_off_c, 0, 60, 127
2, 169801, Note_off_c, 8, 56, 127
2, 169803, Note_on_c, 11, 58, 127
2, 169803, Note_on_c, 1, 61, 127
2, 169803, Note_on_c, 1, 73, 127
2, 170140, Note_off_c, 1, 61, 127
2, 170142, Note_on_c, 6, 66, 127
2, 170479, Note_off_c, 1, 73, 127
2, 170479, Note_off_c, 11, 58, 127
2, 170481, Note_on_c, 0, 60, 127
2, 170481, Note_on_c, 3, 75, 127
2, 170818, Note_off_c, 6, 66, 127
2, 170820, Note_on_c, 8, 68, 127
2, 171157, Note_off_c, 3, 75, 127
2, 171157, Note_off_c, 0, 60, 127
2, 171159, Note_on_c, 1, 61, 127
2, 171159, Note_on_c, 5, 77, 127
2, 171496, Note_off_c, 5, 77, 127
2, 171496, Note_off_c, 8, 68, 127
2, 171498, Note_on_c, 6, 66, 127
2, 171498, Note_on_c, 6, 78, 127
2, 171666, Note_off_c, 6, 78, 127
2, 171668, Note_on_c, 8, 80, 127
2, 171836, Note_off_c, 8, 80, 127
2, 171838, Note_on_c, 8, 80, 127
2, 171921, Note_off_c, 8, 80, 127
2, 171923, Note_on_c, 6, 78, 127
2, 172006, Note_off_c, 6, 78, 127
2, 172008, Note_on_c, 8, 80, 127
2, 172176, Note_off_c, 6, 66, 127
2, 172176, Note_off_c, 1, 61, 127
2, 172178, Note_on_c, 12, 59, 127
2, 172178, Note_on_c, 5, 65, 127
2, 172344, Note_off_c, 8, 80, 127
2, 172348, Note_on_c, 6, 78, 127
2, 172516, Note_off_c, 6, 78, 127
2, 172516, Note_off_c, 5, 65, 127
2, 172516, Note_off_c, 12, 59, 127
2, 172518, Note_on_c, 11, 58, 127
2, 172518, Note_on_c, 6, 66, 127
2, 172518, Note_on_c, 6, 78, 127
2, 172687, Note_on_c, 11, 70, 127
2, 172853, Note_off_c, 6, 66, 127
2, 172855, Note_off_c, 11, 70, 127
2, 172857, Note_on_c, 1, 73, 127
2, 172857, Note_on_c, 4, 64, 127
2, 173025, Note_off_c, 1, 73, 127
2, 173027, Note_on_c, 11, 70, 127
2, 173193, Note_off_c, 4, 64, 127
2, 173195, Note_off_c, 11, 70, 127
2, 173195, Note_off_c, 6, 78, 127
2, 173195, Note_off_c, 11, 58, 127
2, 173197, Note_on_c, 12, 59, 127
2, 173197, Note_on_c, 3, 63, 127
2, 173197, Note_on_c, 3, 75, 127
2, 173197, Note_on_c, 6, 78, 127
2, 173365, Note_off_c, 3, 75, 127
2, 173365, Note_off_c, 3, 63, 127
2, 173367, Note_on_c, 3, 63, 127
2, 173536, Note_on_c, 6, 66, 127
2, 173702, Note_off_c, 3, 63, 127
2, 173704, Note_off_c, 6, 66, 127
2, 173706, Note_on_c, 3, 63, 127
2, 173874, Note_off_c, 3, 63, 127
2, 173874, Note_off_c, 12, 59, 127
2, 173876, Note_on_c, 4, 52, 127
2, 173876, Note_on_c, 8, 68, 127
2, 174213, Note_off_c, 8, 68, 127
2, 174215, Note_on_c, 10, 57, 127
2, 174215, Note_on_c, 8, 68, 127
2, 174383, Note_off_c, 10, 57, 127
2, 174385, Note_on_c, 8, 56, 127
2, 174547, Note_off_c, 4, 52, 127
2, 174552, Note_off_c, 8, 56, 127
2, 174552, Note_off_c, 8, 68, 127
2, 174552, Note_off_c, 6, 78, 127
2, 174554, Note_on_c, 1, 61, 127
2, 174554, Note_on_c, 8, 68, 127
2, 174554, Note_on_c, 4, 76, 127
2, 174891, Note_off_c, 8, 68, 127
2, 174893, Note_on_c, 4, 52, 127
2, 174893, Note_on_c, 8, 68, 127
2, 175230, Note_off_c, 8, 68, 127
2, 175230, Note_off_c, 4, 52, 127
2, 175232, Note_on_c, 6, 54, 127
2, 175232, Note_on_c, 11, 70, 127
2, 175569, Note_off_c, 11, 70, 127
2, 175571, Note_on_c, 1, 73, 127
2, 175739, Note_off_c, 1, 73, 127
2, 175741, Note_on_c, 12, 71, 127
2, 175909, Note_off_c, 12, 71, 127
2, 175909, Note_off_c, 1, 61, 127
2, 175911, Note_on_c, 11, 70, 127
2, 176080, Note_off_c, 6, 54, 127
2, 176248, Note_off_c, 4, 76, 127
2, 176250, Note_on_c, 6, 54, 127
2, 176250, Note_on_c, 1, 61, 127
2, 176250, Note_on_c, 6, 78, 127
2, 176418, Note_off_c, 6, 78, 127
2, 176420, Note_on_c, 4, 76, 127
2, 176582, Note_off_c, 11, 70, 127
2, 176587, Note_off_c, 4, 76, 127
2, 176587, Note_off_c, 1, 61, 127
2, 176587, Note_off_c, 6, 54, 127
2, 176589, Note_on_c, 12, 59, 127
2, 176589, Note_on_c, 12, 47, 127
2, 176589, Note_on_c, 3, 75, 127
2, 176928, Note_on_c, 12, 71, 127
2, 177096, Note_off_c, 12, 71, 127
2, 177098, Note_on_c, 10, 69, 127
2, 177260, Note_off_c, 3, 75, 127
2, 177265, Note_off_c, 10, 69, 127
2, 177265, Note_off_c, 12, 47, 127
2, 177265, Note_off_c, 12, 59, 127
2, 177267, Note_on_c, 4, 52, 127
2, 177267, Note_on_c, 8, 68, 127
2, 177606, Note_on_c, 4, 64, 127
2, 177606, Note_on_c, 1, 73, 127
2, 177774, Note_off_c, 1, 73, 127
2, 177774, Note_off_c, 4, 64, 127
2, 177776, Note_on_c, 3, 63, 127
2, 177776, Note_on_c, 12, 71, 127
2, 177938, Note_off_c, 8, 68, 127
2, 177943, Note_off_c, 12, 71, 127
2, 177943, Note_off_c, 3, 63, 127
2, 177945, Note_on_c, 1, 61, 127
2, 177945, Note_on_c, 11, 70, 127
2, 178114, Note_on_c, 6, 66, 127
2, 178282, Note_off_c, 11, 70, 127
2, 178282, Note_off_c, 1, 61, 127
2, 178282, Note_off_c, 4, 52, 127
2, 178284, Note_on_c, 3, 51, 127
2, 178284, Note_on_c, 12, 59, 127
2, 178284, Note_on_c, 12, 71, 127
2, 178452, Note_off_c, 6, 66, 127
2, 178454, Note_on_c, 6, 66, 127
2, 178622, Note_off_c, 3, 51, 127
2, 178624, Note_on_c, 4, 52, 127
2, 178792, Note_off_c, 6, 66, 127
2, 178794, Note_on_c, 10, 69, 127
2, 178962, Note_off_c, 10, 69, 127
2, 178962, Note_off_c, 4, 52, 127
2, 178964, Note_on_c, 3, 51, 127
2, 178964, Note_on_c, 6, 66, 127
2, 179132, Note_off_c, 6, 66, 127
2, 179134, Note_on_c, 8, 68, 127
2, 179302, Note_off_c, 8, 68, 127
2, 179302, Note_off_c, 3, 51, 127
2, 179302, Note_off_c, 12, 71, 127
2, 179302, Note_off_c, 12, 59, 127
2, 179304, Note_on_c, 1, 49, 127
2, 179304, Note_on_c, 1, 61, 127
2, 179304, Note_on_c, 4, 64, 127
2, 179304, Note_on_c, 11, 70, 127
2, 179472, Note_off_c, 4, 64, 127
2, 179474, Note_on_c, 6, 66, 127
2, 179642, Note_off_c, 6, 66, 127
2, 179642, Note_off_c, 11, 70, 127
2, 179642, Note_off_c, 1, 61, 127
2, 179642, Note_off_c, 1, 49, 127
2, 179644, Note_on_c, 12, 47, 127
2, 179644, Note_on_c, 6, 54, 127
2, 179644, Note_on_c, 3, 63, 127
2, 179644, Note_on_c, 12, 71, 127
2, 179812, Note_off_c, 3, 63, 127
2, 179814, Note_on_c, 4, 64, 127
2, 179982, Note_off_c, 4, 64, 127
2, 179982, Note_off_c, 6, 54, 127
2, 179982, Note_off_c, 12, 47, 127
2, 179984, Note_on_c, 6, 54, 127
2, 179984, Note_on_c, 1, 61, 127
2, 180321, Note_off_c, 12, 71, 127
2, 180323, Note_on_c, 6, 42, 127
2, 180323, Note_on_c, 10, 69, 127
2, 180491, Note_off_c, 1, 61, 127
2, 180493, Note_on_c, 1, 61, 127
2, 180655, Note_off_c, 6, 54, 127
2, 180660, Note_off_c, 1, 61, 127
2, 180660, Note_off_c, 6, 42, 127
2, 180662, Note_on_c, 8, 44, 127
2, 180662, Note_on_c, 12, 59, 127
2, 180997, Note_off_c, 8, 44, 127
2, 180999, Note_off_c, 10, 69, 127
2, 181001, Note_on_c, 8, 68, 127
2, 181169, Note_off_c, 8, 68, 127
2, 181171, Note_on_c, 12, 71, 127
2, 181333, Note_off_c, 12, 59, 127
2, 181338, Note_off_c, 12, 71, 127
2, 181340, Note_on_c, 10, 45, 127
2, 181340, Note_on_c, 1, 73, 127
2, 181677, Note_off_c, 10, 45, 127
2, 181679, Note_on_c, 10, 57, 127
2, 181847, Note_off_c, 10, 57, 127
2, 181849, Note_on_c, 1, 61, 127
2, 182017, Note_off_c, 1, 61, 127
2, 182019, Note_on_c, 12, 47, 127
2, 182019, Note_on_c, 3, 63, 127
2, 182354, Note_off_c, 12, 47, 127
2, 182356, Note_off_c, 1, 73, 127
2, 182358, Note_on_c, 12, 71, 127
2, 182526, Note_off_c, 12, 71, 127
2, 182528, Note_on_c, 3, 75, 127
2, 182690, Note_off_c, 3, 63, 127
2, 182695, Note_off_c, 3, 75, 127
2, 182697, Note_on_c, 1, 49, 127
2, 182697, Note_on_c, 4, 76, 127
2, 183032, Note_off_c, 1, 49, 127
2, 183036, Note_on_c, 1, 61, 127
2, 183204, Note_off_c, 1, 61, 127
2, 183206, Note_on_c, 4, 64, 127
2, 183374, Note_off_c, 4, 64, 127
2, 183376, Note_on_c, 3, 51, 127
2, 183376, Note_on_c, 6, 66, 127
2, 183711, Note_off_c, 3, 51, 127
2, 183713, Note_off_c, 4, 76, 127
2, 183715, Note_on_c, 3, 75, 127
2, 183883, Note_off_c, 3, 75, 127
2, 183885, Note_on_c, 6, 78, 127
2, 184047, Note_off_c, 6, 66, 127
2, 184052, Note_off_c, 6, 78, 127
2, 184054, Note_on_c, 4, 52, 127
2, 184054, Note_on_c, 8, 80, 127
2, 184389, Note_off_c, 4, 52, 127
2, 184393, Note_on_c, 4, 64, 127
2, 184561, Note_off_c, 4, 64, 127
2, 184563, Note_on_c, 8, 68, 127
2, 184731, Note_off_c, 8, 68, 127
2, 184733, Note_on_c, 6, 54, 127
2, 184733, Note_on_c, 10, 69, 127
2, 185068, Note_off_c, 6, 54, 127
2, 185070, Note_off_c, 8, 80, 127
2, 185072, Note_on_c, 6, 78, 127
2, 185240, Note_off_c, 6, 78, 127
2, 185242, Note_on_c, 10, 81, 127
2, 185404, Note_off_c, 10, 69, 127
2, 185409, Note_off_c, 10, 81, 127
2, 185411, Note_on_c, 8, 56, 127
2, 185411, Note_on_c, 12, 83, 127
2, 185746, Note_off_c, 8, 56, 127
2, 185750, Note_on_c, 8, 68, 127
2, 185918, Note_off_c, 8, 68, 127
2, 185920, Note_on_c, 12, 71, 127
2, 186088, Note_off_c, 12, 71, 127
2, 186090, Note_on_c, 10, 57, 127
2, 186090, Note_on_c, 1, 73, 127
2, 186427, Note_off_c, 12, 83, 127
2, 186429, Note_on_c, 10, 81, 127
2, 186597, Note_off_c, 10, 81, 127
2, 186597, Note_off_c, 1, 73, 127
2, 186599, Note_on_c, 12, 71, 127
2, 186599, Note_on_c, 8, 80, 127
2, 186761, Note_off_c, 10, 57, 127
2, 186766, Note_off_c, 8, 80, 127
2, 186766, Note_off_c, 12, 71, 127
2, 186768, Note_on_c, 10, 69, 127
2, 186768, Note_on_c, 6, 78, 127
2, 186936, Note_off_c, 6, 78, 127
2, 186936, Note_off_c, 10, 69, 127
2, 186938, Note_on_c, 8, 68, 127
2, 186938, Note_on_c, 4, 76, 127
2, 187106, Note_off_c, 4, 76, 127
2, 187106, Note_off_c, 8, 68, 127
2, 187108, Note_on_c, 10, 57, 127
2, 187108, Note_on_c, 6, 66, 127
2, 187108, Note_on_c, 3, 75, 127
2, 187276, Note_off_c, 3, 75, 127
2, 187276, Note_off_c, 6, 66, 127
2, 187278, Note_on_c, 4, 64, 127
2, 187278, Note_on_c, 1, 73, 127
2, 187446, Note_off_c, 1, 73, 127
2, 187446, Note_off_c, 4, 64, 127
2, 187448, Note_on_c, 3, 63, 127
2, 187448, Note_on_c, 12, 71, 127
2, 187616, Note_off_c, 3, 63, 127
2, 187618, Note_on_c, 1, 61, 127
2, 187786, Note_off_c, 1, 61, 127
2, 187786, Note_off_c, 12, 71, 127
2, 187786, Note_off_c, 10, 57, 127
2, 187788, Note_on_c, 8, 56, 127
2, 187788, Note_on_c, 12, 59, 127
2, 187788, Note_on_c, 4, 76, 127
2, 187956, Note_off_c, 4, 76, 127
2, 187958, Note_on_c, 6, 78, 127
2, 188126, Note_off_c, 6, 78, 127
2, 188126, Note_off_c, 12, 59, 127
2, 188126, Note_off_c, 8, 56, 127
2, 188128, Note_on_c, 6, 54, 127
2, 188128, Note_on_c, 10, 57, 127
2, 188128, Note_on_c, 4, 76, 127
2, 188239, Note_off_c, 4, 76, 127
2, 188241, Note_on_c, 3, 75, 127
2, 188297, Note_off_c, 3, 75, 127
2, 188297, Note_on_c, 4, 76, 127
2, 188353, Note_off_c, 4, 76, 127
2, 188353, Note_on_c, 3, 75, 127
2, 188409, Note_off_c, 3, 75, 127
2, 188409, Note_on_c, 4, 76, 127
2, 188462, Note_off_c, 10, 57, 127
2, 188464, Note_off_c, 6, 54, 127
2, 188466, Note_off_c, 4, 76, 127
2, 188466, Note_on_c, 4, 52, 127
2, 188466, Note_on_c, 8, 56, 127
2, 188466, Note_on_c, 1, 61, 127
2, 188466, Note_on_c, 3, 75, 127
2, 188522, Note_off_c, 3, 75, 127
2, 188522, Note_on_c, 4, 76, 127
2, 188578, Note_off_c, 4, 76, 127
2, 188578, Note_on_c, 3, 75, 127
2, 188634, Note_off_c, 3, 75, 127
2, 188634, Note_on_c, 4, 76, 127
2, 188800, Note_off_c, 1, 61, 127
2, 188802, Note_off_c, 4, 76, 127
2, 188802, Note_off_c, 8, 56, 127
2, 188802, Note_off_c, 4, 52, 127
2, 188804, Note_on_c, 3, 51, 127
2, 188804, Note_on_c, 12, 59, 127
2, 188804, Note_on_c, 6, 78, 127
2, 188972, Note_off_c, 6, 78, 127
2, 188974, Note_on_c, 12, 71, 127
2, 189142, Note_off_c, 12, 71, 127
2, 189144, Note_on_c, 6, 54, 127
2, 189144, Note_on_c, 12, 83, 127
2, 189312, Note_off_c, 12, 83, 127
2, 189314, Note_on_c, 10, 81, 127
2, 189476, Note_off_c, 3, 51, 127
2, 189481, Note_off_c, 10, 81, 127
2, 189481, Note_off_c, 6, 54, 127
2, 189483, Note_on_c, 4, 52, 127
2, 189483, Note_on_c, 8, 80, 127
2, 189820, Note_off_c, 8, 80, 127
2, 189820, Note_off_c, 12, 59, 127
2, 189822, Note_on_c, 4, 64, 127
2, 189822, Note_on_c, 6, 78, 127
2, 189990, Note_off_c, 6, 78, 127
2, 189992, Note_on_c, 4, 76, 127
2, 190160, Note_off_c, 4, 76, 127
2, 190160, Note_off_c, 4, 52, 127
2, 190162, Note_on_c, 1, 61, 127
2, 190162, Note_on_c, 10, 81, 127
2, 190499, Note_off_c, 10, 81, 127
2, 190499, Note_off_c, 1, 61, 127
2, 190501, Note_on_c, 10, 57, 127
2, 190501, Note_on_c, 8, 80, 127
2, 190669, Note_off_c, 8, 80, 127
2, 190671, Note_on_c, 6, 78, 127
2, 190839, Note_off_c, 6, 78, 127
2, 190839, Note_off_c, 10, 57, 127
2, 190841, Note_on_c, 12, 59, 127
2, 190841, Note_on_c, 6, 78, 127
2, 190924, Note_off_c, 6, 78, 127
2, 190938, Note_on_c, 4, 76, 127
2, 191021, Note_off_c, 4, 76, 127
2, 191035, Note_on_c, 6, 78, 127
2, 191178, Note_off_c, 4, 64, 127
2, 191180, Note_on_c, 3, 63, 127
2, 191349, Note_on_c, 4, 76, 127
2, 191353, Note_off_c, 6, 78, 127
2, 191515, Note_off_c, 3, 63, 127
2, 191517, Note_off_c, 4, 76, 127
2, 191517, Note_off_c, 12, 59, 127
2, 191519, Note_on_c, 4, 52, 127
2, 191519, Note_on_c, 4, 76, 127
2, 191688, Note_on_c, 4, 64, 127
2, 191856, Note_off_c, 4, 64, 127
2, 191858, Note_on_c, 8, 68, 127
2, 192026, Note_off_c, 8, 68, 127
2, 192026, Note_off_c, 4, 52, 127
2, 192028, Note_on_c, 6, 54, 127
2, 192028, Note_on_c, 4, 64, 127
2, 192190, Note_off_c, 4, 76, 127
2, 192195, Note_off_c, 4, 64, 127
2, 192195, Note_off_c, 6, 54, 127
2, 192197, Note_on_c, 8, 56, 127
2, 192197, Note_on_c, 12, 71, 127
2, 192366, Note_on_c, 12, 59, 127
2, 192534, Note_off_c, 12, 59, 127
2, 192536, Note_on_c, 3, 63, 127
2, 192691, Note_off_c, 12, 71, 127
2, 192703, Note_off_c, 3, 63, 127
2, 192703, Note_off_c, 8, 56, 127
2, 192705, Note_on_c, 8, 44, 127
2, 192705, Note_on_c, 12, 59, 127
2, 192873, Note_off_c, 12, 59, 127
2, 192873, Note_off_c, 8, 44, 127
2, 192875, Note_on_c, 1, 49, 127
2, 192875, Note_on_c, 4, 64, 127
2, 193212, Note_off_c, 4, 64, 127
2, 193214, Note_on_c, 4, 64, 127
2, 193382, Note_off_c, 1, 49, 127
2, 193384, Note_on_c, 3, 51, 127
2, 193552, Note_off_c, 3, 51, 127
2, 193552, Note_off_c, 4, 64, 127
2, 193554, Note_on_c, 4, 52, 127
2, 193554, Note_on_c, 4, 64, 127
2, 193891, Note_off_c, 4, 64, 127
2, 193893, Note_on_c, 4, 64, 127
2, 194061, Note_off_c, 4, 52, 127
2, 194063, Note_on_c, 4, 40, 127
2, 194231, Note_off_c, 4, 40, 127
2, 194231, Note_off_c, 4, 64, 127
2, 194233, Note_on_c, 10, 45, 127
2, 194233, Note_on_c, 4, 64, 127
2, 194233, Note_on_c, 6, 66, 127
2, 194570, Note_off_c, 6, 66, 127
2, 194572, Note_on_c, 10, 69, 127
2, 194740, Note_off_c, 10, 69, 127
2, 194740, Note_off_c, 10, 45, 127
2, 194742, Note_on_c, 6, 42, 127
2, 194742, Note_on_c, 8, 68, 127
2, 194910, Note_off_c, 8, 68, 127
2, 194910, Note_off_c, 6, 42, 127
2, 194912, Note_on_c, 12, 47, 127
2, 194912, Note_on_c, 6, 66, 127
2, 195249, Note_off_c, 6, 66, 127
2, 195249, Note_off_c, 4, 64, 127
2, 195251, Note_on_c, 3, 63, 127
2, 195251, Note_on_c, 12, 71, 127
2, 195419, Note_off_c, 12, 71, 127
2, 195421, Note_on_c, 10, 69, 127
2, 195589, Note_off_c, 10, 69, 127
2, 195589, Note_off_c, 3, 63, 127
2, 195589, Note_off_c, 12, 47, 127
2, 195591, Note_on_c, 4, 52, 127
2, 195591, Note_on_c, 4, 64, 127
2, 195591, Note_on_c, 8, 68, 127
2, 195928, Note_off_c, 8, 68, 127
2, 195930, Note_on_c, 12, 71, 127
2, 196098, Note_off_c, 12, 71, 127
2, 196098, Note_off_c, 4, 64, 127
2, 196100, Note_on_c, 3, 63, 127
2, 196100, Note_on_c, 10, 69, 127
2, 196268, Note_off_c, 10, 69, 127
2, 196268, Note_off_c, 3, 63, 127
2, 196270, Note_on_c, 4, 64, 127
2, 196270, Note_on_c, 8, 68, 127
2, 196439, Note_off_c, 4, 52, 127
2, 196607, Note_off_c, 8, 68, 127
2, 196609, Note_on_c, 1, 73, 127
2, 196777, Note_off_c, 1, 73, 127
2, 196777, Note_off_c, 4, 64, 127
2, 196779, Note_on_c, 1, 61, 127
2, 196779, Note_on_c, 12, 71, 127
2, 196947, Note_off_c, 12, 71, 127
2, 196947, Note_off_c, 1, 61, 127
2, 196949, Note_on_c, 6, 54, 127
2, 196949, Note_on_c, 6, 66, 127
2, 196949, Note_on_c, 11, 70, 127
2, 197117, Note_off_c, 11, 70, 127
2, 197119, Note_on_c, 8, 68, 127
2, 197287, Note_off_c, 8, 68, 127
2, 197289, Note_on_c, 11, 70, 127
2, 197457, Note_off_c, 11, 70, 127
2, 197457, Note_off_c, 6, 66, 127
2, 197459, Note_on_c, 4, 64, 127
2, 197459, Note_on_c, 6, 66, 127
2, 197627, Note_off_c, 6, 66, 127
2, 197627, Note_off_c, 4, 64, 127
2, 197627, Note_off_c, 6, 54, 127
2, 197629, Note_on_c, 8, 56, 127
2, 197629, Note_on_c, 3, 63, 127
2, 197629, Note_on_c, 12, 71, 127
2, 197966, Note_off_c, 12, 71, 127
2, 197968, Note_on_c, 8, 80, 127
2, 198136, Note_off_c, 3, 63, 127
2, 198138, Note_on_c, 4, 64, 127
2, 198306, Note_off_c, 4, 64, 127
2, 198306, Note_off_c, 8, 80, 127
2, 198306, Note_off_c, 8, 56, 127
2, 198308, Note_on_c, 6, 54, 127
2, 198308, Note_on_c, 6, 66, 127
2, 198308, Note_on_c, 11, 70, 127
2, 198645, Note_off_c, 11, 70, 127
2, 198647, Note_on_c, 12, 71, 127
2, 198815, Note_off_c, 6, 66, 127
2, 198817, Note_on_c, 5, 65, 127
2, 198985, Note_off_c, 5, 65, 127
2, 198985, Note_off_c, 12, 71, 127
2, 198987, Note_on_c, 6, 66, 127
2, 198987, Note_on_c, 12, 71, 127
2, 199155, Note_off_c, 12, 71, 127
2, 199157, Note_off_c, 6, 54, 127
2, 199157, Note_on_c, 1, 73, 127
2, 199325, Note_off_c, 1, 73, 127
2, 199325, Note_off_c, 6, 66, 127
2, 199327, Note_on_c, 6, 54, 127
2, 199327, Note_on_c, 12, 71, 127
2, 199495, Note_off_c, 12, 71, 127
2, 199497, Note_on_c, 11, 70, 127
2, 199665, Note_off_c, 11, 70, 127
2, 199665, Note_off_c, 6, 54, 127
2, 199667, Note_on_c, 12, 59, 127
2, 199667, Note_on_c, 12, 71, 127
2, 199835, Note_off_c, 12, 59, 127
2, 199837, Note_on_c, 12, 47, 127
2, 200005, Note_off_c, 12, 47, 127
2, 200007, Note_on_c, 3, 51, 127
2, 200175, Note_off_c, 3, 51, 127
2, 200175, Note_off_c, 12, 71, 127
2, 200177, Note_on_c, 12, 47, 127
2, 200177, Note_on_c, 12, 71, 127
2, 200345, Note_off_c, 12, 71, 127
2, 200345, Note_off_c, 12, 47, 127
2, 200347, Note_on_c, 6, 54, 127
2, 200347, Note_on_c, 12, 71, 127
2, 200515, Note_off_c, 12, 71, 127
2, 200515, Note_off_c, 6, 54, 127
2, 200517, Note_on_c, 6, 42, 127
2, 200517, Note_on_c, 11, 70, 127
2, 200685, Note_off_c, 11, 70, 127
2, 200685, Note_off_c, 6, 42, 127
2, 200687, Note_on_c, 11, 46, 127
2, 200687, Note_on_c, 11, 70, 127
2, 200855, Note_off_c, 11, 46, 127
2, 200857, Note_on_c, 6, 42, 127
2, 200942, Note_off_c, 11, 70, 127
2, 201025, Note_off_c, 6, 42, 127
2, 201027, Note_on_c, 12, 47, 127
2, 201196, Note_on_c, 3, 75, 127
2, 201364, Note_off_c, 3, 75, 127
2, 201364, Note_off_c, 12, 47, 127
2, 201366, Note_on_c, 12, 47, 127
2, 201366, Note_on_c, 6, 78, 127
2, 201534, Note_off_c, 6, 78, 127
2, 201536, Note_on_c, 3, 75, 127
2, 201704, Note_off_c, 3, 75, 127
2, 201704, Note_off_c, 12, 47, 127
2, 201706, Note_on_c, 12, 47, 127
2, 201706, Note_on_c, 12, 83, 127
2, 201875, Note_on_c, 12, 71, 127
2, 202041, Note_off_c, 12, 83, 127
2, 202043, Note_off_c, 12, 71, 127
2, 202043, Note_off_c, 12, 47, 127
2, 202045, Note_on_c, 12, 47, 127
2, 202045, Note_on_c, 3, 75, 127
2, 202213, Note_off_c, 3, 75, 127
2, 202215, Note_on_c, 12, 71, 127
2, 202383, Note_off_c, 12, 71, 127
2, 202383, Note_off_c, 12, 47, 127
2, 202385, Note_on_c, 1, 49, 127
2, 202385, Note_on_c, 4, 76, 127
2, 202722, Note_off_c, 1, 49, 127
2, 202724, Note_on_c, 4, 52, 127
2, 202809, Note_off_c, 4, 76, 127
2, 202892, Note_off_c, 4, 52, 127
2, 202894, Note_on_c, 3, 51, 127
2, 202894, Note_on_c, 1, 73, 127
2, 203062, Note_off_c, 1, 73, 127
2, 203062, Note_off_c, 3, 51, 127
2, 203064, Note_on_c, 1, 49, 127
2, 203064, Note_on_c, 10, 69, 127
2, 203401, Note_off_c, 1, 49, 127
2, 203403, Note_on_c, 6, 54, 127
2, 203488, Note_off_c, 10, 69, 127
2, 203571, Note_off_c, 6, 54, 127
2, 203573, Note_on_c, 4, 52, 127
2, 203573, Note_on_c, 10, 81, 127
2, 203741, Note_off_c, 10, 81, 127
2, 203741, Note_off_c, 4, 52, 127
2, 203743, Note_on_c, 3, 51, 127
2, 203743, Note_on_c, 6, 78, 127
2, 204080, Note_off_c, 3, 51, 127
2, 204082, Note_on_c, 6, 54, 127
2, 204167, Note_off_c, 6, 78, 127
2, 204250, Note_off_c, 6, 54, 127
2, 204252, Note_on_c, 4, 52, 127
2, 204252, Note_on_c, 3, 75, 127
2, 204420, Note_off_c, 3, 75, 127
2, 204420, Note_off_c, 4, 52, 127
2, 204422, Note_on_c, 3, 51, 127
2, 204422, Note_on_c, 12, 71, 127
2, 204759, Note_off_c, 3, 51, 127
2, 204761, Note_on_c, 8, 56, 127
2, 204846, Note_off_c, 12, 71, 127
2, 204929, Note_off_c, 8, 56, 127
2, 204931, Note_on_c, 4, 52, 127
2, 204931, Note_on_c, 8, 68, 127
2, 205099, Note_off_c, 8, 68, 127
2, 205099, Note_off_c, 4, 52, 127
2, 205101, Note_on_c, 3, 51, 127
2, 205101, Note_on_c, 6, 66, 127
2, 205269, Note_off_c, 3, 51, 127
2, 205271, Note_on_c, 1, 49, 127
2, 205439, Note_off_c, 1, 49, 127
2, 205439, Note_off_c, 6, 66, 127
2, 205441, Note_on_c, 3, 51, 127
2, 205441, Note_on_c, 12, 71, 127
2, 205609, Note_off_c, 3, 51, 127
2, 205611, Note_on_c, 12, 47, 127
2, 205779, Note_off_c, 12, 47, 127
2, 205779, Note_off_c, 12, 71, 127
2, 205781, Note_on_c, 4, 52, 127
2, 205781, Note_on_c, 8, 68, 127
2, 205949, Note_off_c, 8, 68, 127
2, 205951, Note_on_c, 6, 66, 127
2, 206119, Note_off_c, 6, 66, 127
2, 206119, Note_off_c, 4, 52, 127
2, 206121, Note_on_c, 1, 61, 127
2, 206121, Note_on_c, 8, 68, 127
2, 206289, Note_off_c, 8, 68, 127
2, 206291, Note_on_c, 4, 64, 127
2, 206459, Note_off_c, 4, 64, 127
2, 206459, Note_off_c, 1, 61, 127
2, 206461, Note_on_c, 3, 51, 127
2, 206461, Note_on_c, 6, 66, 127
2, 206629, Note_off_c, 6, 66, 127
2, 206631, Note_on_c, 10, 69, 127
2, 206799, Note_off_c, 10, 69, 127
2, 206799, Note_off_c, 3, 51, 127
2, 206801, Note_on_c, 4, 52, 127
2, 206801, Note_on_c, 8, 68, 127
2, 206969, Note_off_c, 8, 68, 127
2, 206971, Note_on_c, 4, 64, 127
2, 207139, Note_off_c, 4, 64, 127
2, 207139, Note_off_c, 4, 52, 127
2, 207141, Note_on_c, 12, 47, 127
2, 207141, Note_on_c, 6, 66, 127
2, 207309, Note_off_c, 6, 66, 127
2, 207311, Note_on_c, 10, 69, 127
2, 207479, Note_off_c, 10, 69, 127
2, 207479, Note_off_c, 12, 47, 127
2, 207481, Note_on_c, 4, 40, 127
2, 207481, Note_on_c, 8, 68, 127
2, 207649, Note_off_c, 8, 68, 127
2, 207651, Note_on_c, 4, 64, 127
2, 207819, Note_off_c, 4, 64, 127
2, 207819, Note_off_c, 4, 40, 127
2, 207821, Note_on_c, 12, 47, 127
2, 207821, Note_on_c, 6, 66, 127
2, 207989, Note_off_c, 6, 66, 127
2, 207991, Note_on_c, 4, 64, 127
2, 208159, Note_off_c, 4, 64, 127
2, 208161, Note_on_c, 3, 63, 127
2, 208329, Note_off_c, 3, 63, 127
2, 208331, Note_on_c, 1, 61, 127
2, 208499, Note_off_c, 1, 61, 127
2, 208501, Note_on_c, 12, 59, 127
2, 208529, Note_off_c, 12, 47, 127
2, 208668, Note_off_c, 12, 59, 127
2, 208670, Note_on_c, 10, 57, 127
2, 208670, Note_on_c, 3, 63, 127
2, 208838, Note_off_c, 3, 63, 127
2, 208838, Note_off_c, 10, 57, 127
2, 208840, Note_on_c, 8, 56, 127
2, 208840, Note_on_c, 5, 65, 127
2, 209008, Note_off_c, 5, 65, 127
2, 209008, Note_off_c, 8, 56, 127
2, 209010, Note_on_c, 6, 54, 127
2, 209010, Note_on_c, 6, 66, 127
2, 209178, Note_off_c, 6, 66, 127
2, 209178, Note_off_c, 6, 54, 127
2, 209180, Note_on_c, 5, 53, 127
2, 209180, Note_on_c, 8, 68, 127
2, 209348, Note_off_c, 8, 68, 127
2, 209350, Note_on_c, 12, 71, 127
2, 209518, Note_off_c, 12, 71, 127
2, 209518, Note_off_c, 5, 53, 127
2, 209520, Note_on_c, 6, 54, 127
2, 209520, Note_on_c, 10, 69, 127
2, 209688, Note_off_c, 10, 69, 127
2, 209690, Note_on_c, 6, 66, 127
2, 209858, Note_off_c, 6, 66, 127
2, 209858, Note_off_c, 6, 54, 127
2, 209860, Note_on_c, 1, 49, 127
2, 209860, Note_on_c, 8, 68, 127
2, 210028, Note_off_c, 8, 68, 127
2, 210030, Note_on_c, 12, 71, 127
2, 210198, Note_off_c, 12, 71, 127
2, 210198, Note_off_c, 1, 49, 127
2, 210200, Note_on_c, 6, 42, 127
2, 210200, Note_on_c, 10, 69, 127
2, 210368, Note_off_c, 10, 69, 127
2, 210370, Note_on_c, 6, 66, 127
2, 210538, Note_off_c, 6, 66, 127
2, 210538, Note_off_c, 6, 42, 127
2, 210540, Note_on_c, 1, 49, 127
2, 210540, Note_on_c, 8, 68, 127
2, 210708, Note_off_c, 8, 68, 127
2, 210710, Note_on_c, 6, 66, 127
2, 210878, Note_off_c, 6, 66, 127
2, 210880, Note_on_c, 5, 65, 127
2, 211048, Note_off_c, 5, 65, 127
2, 211050, Note_on_c, 3, 63, 127
2, 211218, Note_off_c, 3, 63, 127
2, 211220, Note_on_c, 1, 61, 127
2, 211248, Note_off_c, 1, 49, 127
2, 211387, Note_off_c, 1, 61, 127
2, 211389, Note_on_c, 1, 49, 127
2, 211389, Note_on_c, 2, 74, 127
2, 211557, Note_off_c, 2, 74, 127
2, 211557, Note_off_c, 1, 49, 127
2, 211559, Note_on_c, 5, 53, 127
2, 211559, Note_on_c, 1, 73, 127
2, 211727, Note_off_c, 1, 73, 127
2, 211727, Note_off_c, 5, 53, 127
2, 211729, Note_on_c, 1, 49, 127
2, 211729, Note_on_c, 12, 71, 127
2, 211897, Note_off_c, 12, 71, 127
2, 211897, Note_off_c, 1, 49, 127
2, 211899, Note_on_c, 6, 54, 127
2, 211899, Note_on_c, 10, 69, 127
2, 212067, Note_off_c, 10, 69, 127
2, 212067, Note_off_c, 6, 54, 127
2, 212069, Note_on_c, 10, 57, 127
2, 212069, Note_on_c, 1, 73, 127
2, 212237, Note_off_c, 1, 73, 127
2, 212237, Note_off_c, 10, 57, 127
2, 212239, Note_on_c, 8, 56, 127
2, 212239, Note_on_c, 12, 71, 127
2, 212407, Note_off_c, 12, 71, 127
2, 212407, Note_off_c, 8, 56, 127
2, 212409, Note_on_c, 5, 53, 127
2, 212409, Note_on_c, 8, 68, 127
2, 212577, Note_off_c, 8, 68, 127
2, 212577, Note_off_c, 5, 53, 127
2, 212579, Note_on_c, 6, 54, 127
2, 212579, Note_on_c, 10, 69, 127
2, 212747, Note_off_c, 10, 69, 127
2, 212747, Note_off_c, 6, 54, 127
2, 212749, Note_on_c, 10, 57, 127
2, 212749, Note_on_c, 1, 73, 127
2, 212917, Note_off_c, 1, 73, 127
2, 212917, Note_off_c, 10, 57, 127
2, 212919, Note_on_c, 8, 56, 127
2, 212919, Note_on_c, 12, 71, 127
2, 213087, Note_off_c, 12, 71, 127
2, 213087, Note_off_c, 8, 56, 127
2, 213089, Note_on_c, 5, 53, 127
2, 213089, Note_on_c, 8, 68, 127
2, 213257, Note_off_c, 8, 68, 127
2, 213257, Note_off_c, 5, 53, 127
2, 213259, Note_on_c, 6, 54, 127
2, 213259, Note_on_c, 10, 69, 127
2, 213427, Note_off_c, 10, 69, 127
2, 213429, Note_on_c, 6, 78, 127
2, 213597, Note_off_c, 6, 78, 127
2, 213597, Note_off_c, 6, 54, 127
2, 213599, Note_on_c, 12, 59, 127
2, 213599, Note_on_c, 8, 80, 127
2, 213767, Note_off_c, 8, 80, 127
2, 213769, Note_on_c, 3, 75, 127
2, 213937, Note_off_c, 3, 75, 127
2, 213937, Note_off_c, 12, 59, 127
2, 213939, Note_on_c, 1, 61, 127
2, 213939, Note_on_c, 5, 77, 127
2, 214107, Note_off_c, 5, 77, 127
2, 214109, Note_on_c, 1, 73, 127
2, 214277, Note_off_c, 1, 73, 127
2, 214277, Note_off_c, 1, 61, 127
2, 214279, Note_on_c, 5, 53, 127
2, 214279, Note_on_c, 8, 68, 127
2, 214447, Note_off_c, 8, 68, 127
2, 214449, Note_on_c, 12, 71, 127
2, 214617, Note_off_c, 12, 71, 127
2, 214617, Note_off_c, 5, 53, 127
2, 214619, Note_on_c, 6, 54, 127
2, 214619, Note_on_c, 10, 69, 127
2, 214787, Note_off_c, 10, 69, 127
2, 214787, Note_off_c, 6, 54, 127
2, 214789, Note_on_c, 10, 57, 127
2, 214789, Note_on_c, 1, 73, 127
2, 214957, Note_off_c, 1, 73, 127
2, 214957, Note_off_c, 10, 57, 127
2, 214959, Note_on_c, 8, 56, 127
2, 214959, Note_on_c, 12, 71, 127
2, 215127, Note_off_c, 12, 71, 127
2, 215127, Note_off_c, 8, 56, 127
2, 215129, Note_on_c, 5, 53, 127
2, 215129, Note_on_c, 8, 68, 127
2, 215297, Note_off_c, 8, 68, 127
2, 215297, Note_off_c, 5, 53, 127
2, 215299, Note_on_c, 6, 54, 127
2, 215299, Note_on_c, 10, 69, 127
2, 215467, Note_off_c, 10, 69, 127
2, 215467, Note_off_c, 6, 54, 127
2, 215469, Note_on_c, 10, 57, 127
2, 215469, Note_on_c, 1, 73, 127
2, 215637, Note_off_c, 1, 73, 127
2, 215637, Note_off_c, 10, 57, 127
2, 215639, Note_on_c, 8, 56, 127
2, 215639, Note_on_c, 12, 71, 127
2, 215807, Note_off_c, 12, 71, 127
2, 215807, Note_off_c, 8, 56, 127
2, 215809, Note_on_c, 5, 53, 127
2, 215809, Note_on_c, 8, 68, 127
2, 215977, Note_off_c, 8, 68, 127
2, 215977, Note_off_c, 5, 53, 127
2, 215979, Note_on_c, 6, 54, 127
2, 215979, Note_on_c, 10, 69, 127
2, 216147, Note_off_c, 10, 69, 127
2, 216149, Note_on_c, 6, 78, 127
2, 216317, Note_off_c, 6, 78, 127
2, 216317, Note_off_c, 6, 54, 127
2, 216319, Note_on_c, 12, 47, 127
2, 216319, Note_on_c, 8, 80, 127
2, 216487, Note_off_c, 8, 80, 127
2, 216489, Note_on_c, 3, 75, 127
2, 216657, Note_off_c, 3, 75, 127
2, 216657, Note_off_c, 12, 47, 127
2, 216659, Note_on_c, 1, 49, 127
2, 216659, Note_on_c, 5, 77, 127
2, 216827, Note_off_c, 5, 77, 127
2, 216829, Note_on_c, 1, 73, 127
2, 216997, Note_off_c, 1, 73, 127
2, 216997, Note_off_c, 1, 49, 127
2, 216999, Note_on_c, 5, 41, 127
2, 216999, Note_on_c, 8, 68, 127
2, 217167, Note_off_c, 8, 68, 127
2, 217169, Note_on_c, 12, 71, 127
2, 217337, Note_off_c, 12, 71, 127
2, 217337, Note_off_c, 5, 41, 127
2, 217339, Note_on_c, 6, 42, 127
2, 217339, Note_on_c, 10, 69, 127
2, 217507, Note_off_c, 10, 69, 127
2, 217509, Note_on_c, 8, 68, 127
2, 217677, Note_off_c, 8, 68, 127
2, 217677, Note_off_c, 6, 42, 127
2, 217679, Note_on_c, 12, 47, 127
2, 217679, Note_on_c, 6, 66, 127
2, 217847, Note_off_c, 6, 66, 127
2, 217849, Note_on_c, 8, 68, 127
2, 218017, Note_off_c, 8, 68, 127
2, 218017, Note_off_c, 12, 47, 127
2, 218019, Note_on_c, 1, 49, 127
2, 218019, Note_on_c, 6, 66, 127
2, 218187, Note_off_c, 6, 66, 127
2, 218189, Note_on_c, 5, 65, 127
2, 218254, Note_on_c, 6, 66, 127
2, 218259, Note_off_c, 5, 65, 127
2, 218319, Note_on_c, 5, 65, 127
2, 218324, Note_off_c, 6, 66, 127
2, 218513, Note_off_c, 5, 65, 127
2, 218527, Note_on_c, 6, 66, 127
2, 218695, Note_off_c, 6, 66, 127
2, 218695, Note_off_c, 1, 49, 127
2, 218697, Note_on_c, 6, 42, 127
2, 218697, Note_on_c, 6, 66, 127
2, 218865, Note_off_c, 6, 66, 127
2, 218867, Note_on_c, 1, 73, 127
2, 219035, Note_off_c, 1, 73, 127
2, 219037, Note_on_c, 12, 71, 127
2, 219205, Note_off_c, 12, 71, 127
2, 219207, Note_on_c, 10, 69, 127
2, 219375, Note_off_c, 10, 69, 127
2, 219377, Note_on_c, 2, 74, 127
2, 219405, Note_off_c, 6, 42, 127
2, 219546, Note_on_c, 6, 54, 127
2, 219714, Note_off_c, 6, 54, 127
2, 219716, Note_on_c, 12, 59, 127
2, 219884, Note_off_c, 12, 59, 127
2, 219886, Note_on_c, 10, 57, 127
2, 220048, Note_off_c, 2, 74, 127
2, 220053, Note_off_c, 10, 57, 127
2, 220055, Note_on_c, 8, 56, 127
2, 220224, Note_on_c, 4, 76, 127
2, 220392, Note_off_c, 4, 76, 127
2, 220392, Note_off_c, 8, 56, 127
2, 220394, Note_on_c, 10, 57, 127
2, 220394, Note_on_c, 1, 73, 127
2, 220562, Note_off_c, 1, 73, 127
2, 220564, Note_on_c, 2, 74, 127
2, 220732, Note_off_c, 2, 74, 127
2, 220734, Note_on_c, 12, 71, 127
2, 220817, Note_off_c, 12, 71, 127
2, 220819, Note_on_c, 10, 69, 127
2, 220902, Note_off_c, 10, 69, 127
2, 220904, Note_on_c, 12, 71, 127
2, 221072, Note_off_c, 10, 57, 127
2, 221074, Note_on_c, 7, 55, 127
2, 221240, Note_off_c, 12, 71, 127
2, 221244, Note_on_c, 1, 73, 127
2, 221412, Note_off_c, 1, 73, 127
2, 221414, Note_on_c, 10, 69, 127
2, 221497, Note_off_c, 10, 69, 127
2, 221499, Note_on_c, 7, 67, 127
2, 221582, Note_off_c, 7, 67, 127
2, 221584, Note_on_c, 10, 69, 127
2, 221752, Note_off_c, 7, 55, 127
2, 221754, Note_on_c, 6, 54, 127
2, 221920, Note_off_c, 10, 69, 127
2, 221924, Note_on_c, 12, 71, 127
2, 222092, Note_off_c, 12, 71, 127
2, 222094, Note_on_c, 7, 67, 127
2, 222177, Note_off_c, 7, 67, 127
2, 222179, Note_on_c, 6, 66, 127
2, 222262, Note_off_c, 6, 66, 127
2, 222264, Note_on_c, 7, 67, 127
2, 222432, Note_off_c, 6, 54, 127
2, 222434, Note_on_c, 4, 52, 127
2, 222600, Note_off_c, 7, 67, 127
2, 222604, Note_on_c, 10, 69, 127
2, 222772, Note_off_c, 10, 69, 127
2, 222774, Note_on_c, 6, 66, 127
2, 222857, Note_off_c, 6, 66, 127
2, 222859, Note_on_c, 4, 64, 127
2, 222942, Note_off_c, 4, 64, 127
2, 222944, Note_on_c, 6, 66, 127
2, 223112, Note_off_c, 4, 52, 127
2, 223114, Note_on_c, 2, 50, 127
2, 223280, Note_off_c, 6, 66, 127
2, 223284, Note_on_c, 7, 67, 127
2, 223452, Note_off_c, 7, 67, 127
2, 223454, Note_on_c, 4, 64, 127
2, 223537, Note_off_c, 4, 64, 127
2, 223539, Note_on_c, 2, 62, 127
2, 223622, Note_off_c, 2, 62, 127
2, 223624, Note_on_c, 4, 64, 127
2, 223792, Note_off_c, 2, 50, 127
2, 223794, Note_on_c, 1, 49, 127
2, 223960, Note_off_c, 4, 64, 127
2, 223964, Note_on_c, 6, 66, 127
2, 224132, Note_off_c, 6, 66, 127
2, 224132, Note_off_c, 1, 49, 127
2, 224134, Note_on_c, 12, 47, 127
2, 224134, Note_on_c, 2, 62, 127
2, 224303, Note_on_c, 12, 71, 127
2, 224469, Note_off_c, 2, 62, 127
2, 224469, Note_off_c, 12, 47, 127
2, 224471, Note_off_c, 12, 71, 127
2, 224473, Note_on_c, 1, 61, 127
2, 224641, Note_off_c, 1, 61, 127
2, 224643, Note_on_c, 2, 62, 127
2, 224811, Note_off_c, 2, 62, 127
2, 224813, Note_on_c, 1, 61, 127
2, 224982, Note_on_c, 12, 71, 127
2, 225148, Note_off_c, 1, 61, 127
2, 225150, Note_off_c, 12, 71, 127
2, 225152, Note_on_c, 5, 41, 127
2, 225152, Note_on_c, 2, 38, 127
2, 225152, Note_on_c, 12, 47, 127
2, 225152, Note_on_c, 2, 50, 127
2, 225152, Note_on_c, 1, 61, 127
2, 225320, Note_off_c, 1, 61, 127
2, 225322, Note_on_c, 2, 62, 127
2, 225490, Note_off_c, 2, 62, 127
2, 225490, Note_off_c, 2, 50, 127
2, 225490, Note_off_c, 12, 47, 127
2, 225490, Note_off_c, 2, 38, 127
2, 225490, Note_off_c, 5, 41, 127
2, 225492, Note_on_c, 7, 43, 127
2, 225492, Note_on_c, 4, 40, 127
2, 225492, Note_on_c, 1, 49, 127
2, 225492, Note_on_c, 4, 52, 127
2, 225492, Note_on_c, 1, 61, 127
2, 225661, Note_on_c, 12, 71, 127
2, 225827, Note_off_c, 1, 61, 127
2, 225829, Note_off_c, 12, 71, 127
2, 225831, Note_on_c, 1, 61, 127
2, 225999, Note_off_c, 1, 61, 127
2, 226001, Note_on_c, 2, 62, 127
2, 226169, Note_off_c, 2, 62, 127
2, 226171, Note_on_c, 1, 61, 127
2, 226340, Note_off_c, 4, 52, 127
2, 226340, Note_off_c, 1, 49, 127
2, 226340, Note_off_c, 4, 40, 127
2, 226340, Note_off_c, 7, 43, 127
2, 226340, Note_on_c, 12, 71, 127
2, 226506, Note_off_c, 1, 61, 127
2, 226508, Note_off_c, 12, 71, 127
2, 226510, Note_on_c, 5, 41, 127
2, 226510, Note_on_c, 8, 44, 127
2, 226510, Note_on_c, 1, 49, 127
2, 226510, Note_on_c, 5, 53, 127
2, 226510, Note_on_c, 1, 61, 127
2, 226678, Note_off_c, 1, 61, 127
2, 226680, Note_on_c, 2, 62, 127
2, 226848, Note_off_c, 2, 62, 127
2, 226848, Note_off_c, 5, 53, 127
2, 226848, Note_off_c, 1, 49, 127
2, 226848, Note_off_c, 8, 44, 127
2, 226848, Note_off_c, 5, 41, 127
2, 226850, Note_on_c, 1, 49, 127
2, 226850, Note_on_c, 6, 42, 127
2, 226850, Note_on_c, 6, 54, 127
2, 226850, Note_on_c, 1, 61, 127
2, 227019, Note_on_c, 12, 71, 127
2, 227185, Note_off_c, 1, 61, 127
2, 227187, Note_off_c, 12, 71, 127
2, 227189, Note_on_c, 1, 73, 127
2, 227357, Note_off_c, 1, 73, 127
2, 227359, Note_on_c, 12, 71, 127
2, 227527, Note_off_c, 12, 71, 127
2, 227529, Note_on_c, 11, 70, 127
2, 227698, Note_off_c, 6, 54, 127
2, 227698, Note_off_c, 6, 42, 127
2, 227698, Note_off_c, 1, 49, 127
2, 227698, Note_on_c, 1, 73, 127
2, 227864, Note_off_c, 11, 70, 127
2, 227866, Note_off_c, 1, 73, 127
2, 227868, Note_on_c, 6, 42, 127
2, 227868, Note_on_c, 11, 46, 127
2, 227868, Note_on_c, 1, 49, 127
2, 227868, Note_on_c, 6, 54, 127
2, 227868, Note_on_c, 2, 74, 127
2, 228036, Note_off_c, 2, 74, 127
2, 228038, Note_on_c, 4, 76, 127
2, 228206, Note_off_c, 4, 76, 127
2, 228206, Note_off_c, 6, 54, 127
2, 228206, Note_off_c, 1, 49, 127
2, 228206, Note_off_c, 11, 46, 127
2, 228206, Note_off_c, 6, 42, 127
2, 228208, Note_on_c, 12, 47, 127
2, 228208, Note_on_c, 2, 74, 127
2, 228376, Note_off_c, 12, 47, 127
2, 228378, Note_on_c, 12, 59, 127
2, 228546, Note_off_c, 12, 59, 127
2, 228548, Note_on_c, 11, 58, 127
2, 228716, Note_off_c, 11, 58, 127
2, 228716, Note_off_c, 2, 74, 127
2, 228718, Note_on_c, 12, 59, 127
2, 228718, Note_on_c, 12, 71, 127
2, 228886, Note_off_c, 12, 71, 127
2, 228888, Note_on_c, 1, 49, 127
2, 228888, Note_on_c, 4, 76, 127
2, 229054, Note_off_c, 12, 59, 127
2, 229056, Note_off_c, 1, 49, 127
2, 229058, Note_on_c, 12, 59, 127
2, 229226, Note_off_c, 12, 59, 127
2, 229228, Note_on_c, 11, 58, 127
2, 229396, Note_off_c, 11, 58, 127
2, 229396, Note_off_c, 4, 76, 127
2, 229398, Note_on_c, 12, 59, 127
2, 229398, Note_on_c, 1, 73, 127
2, 229566, Note_off_c, 1, 73, 127
2, 229568, Note_on_c, 2, 50, 127
2, 229568, Note_on_c, 6, 78, 127
2, 229734, Note_off_c, 12, 59, 127
2, 229736, Note_off_c, 2, 50, 127
2, 229738, Note_on_c, 12, 59, 127
2, 229906, Note_off_c, 12, 59, 127
2, 229908, Note_on_c, 11, 58, 127
2, 230076, Note_off_c, 11, 58, 127
2, 230076, Note_off_c, 6, 78, 127
2, 230078, Note_on_c, 12, 59, 127
2, 230078, Note_on_c, 2, 74, 127
2, 230246, Note_off_c, 2, 74, 127
2, 230248, Note_on_c, 4, 52, 127
2, 230248, Note_on_c, 7, 79, 127
2, 230414, Note_off_c, 12, 59, 127
2, 230416, Note_off_c, 4, 52, 127
2, 230418, Note_on_c, 12, 59, 127
2, 230586, Note_off_c, 12, 59, 127
2, 230588, Note_on_c, 11, 58, 127
2, 230756, Note_off_c, 11, 58, 127
2, 230756, Note_off_c, 7, 79, 127
2, 230758, Note_on_c, 12, 59, 127
2, 230758, Note_on_c, 4, 76, 127
2, 230926, Note_off_c, 4, 76, 127
2, 230926, Note_off_c, 12, 59, 127
2, 230928, Note_on_c, 6, 54, 127
2, 230928, Note_on_c, 11, 70, 127
2, 231096, Note_off_c, 6, 54, 127
2, 231098, Note_on_c, 7, 55, 127
2, 231266, Note_off_c, 7, 55, 127
2, 231268, Note_on_c, 6, 54, 127
2, 231436, Note_off_c, 6, 54, 127
2, 231438, Note_on_c, 4, 52, 127
2, 231438, Note_on_c, 6, 66, 127
2, 231600, Note_off_c, 11, 70, 127
2, 231605, Note_off_c, 6, 66, 127
2, 231605, Note_off_c, 4, 52, 127
2, 231607, Note_on_c, 2, 50, 127
2, 231607, Note_on_c, 12, 71, 127
2, 231776, Note_on_c, 7, 55, 127
2, 231942, Note_off_c, 2, 50, 127
2, 231944, Note_off_c, 7, 55, 127
2, 231946, Note_on_c, 4, 52, 127
2, 232101, Note_off_c, 12, 71, 127
2, 232113, Note_off_c, 4, 52, 127
2, 232115, Note_on_c, 1, 49, 127
2, 232115, Note_on_c, 1, 73, 127
2, 232283, Note_off_c, 1, 73, 127
2, 232283, Note_off_c, 1, 49, 127
2, 232285, Note_on_c, 6, 54, 127
2, 232285, Note_on_c, 11, 70, 127
2, 232453, Note_off_c, 6, 54, 127
2, 232455, Note_on_c, 7, 55, 127
2, 232623, Note_off_c, 7, 55, 127
2, 232625, Note_on_c, 6, 54, 127
2, 232793, Note_off_c, 6, 54, 127
2, 232793, Note_off_c, 11, 70, 127
2, 232795, Note_on_c, 4, 52, 127
2, 232795, Note_on_c, 8, 68, 127
2, 232947, Note_off_c, 8, 68, 127
2, 232963, Note_off_c, 4, 52, 127
2, 232965, Note_on_c, 2, 50, 127
2, 232965, Note_on_c, 6, 66, 127
2, 233133, Note_off_c, 2, 50, 127
2, 233135, Note_on_c, 1, 49, 127
2, 233303, Note_off_c, 1, 49, 127
2, 233305, Note_on_c, 2, 50, 127
2, 233390, Note_off_c, 6, 66, 127
2, 233473, Note_off_c, 2, 50, 127
2, 233475, Note_on_c, 12, 47, 127
2, 233475, Note_on_c, 10, 69, 127
2, 233643, Note_off_c, 10, 69, 127
2, 233643, Note_off_c, 12, 47, 127
2, 233645, Note_on_c, 4, 52, 127
2, 233645, Note_on_c, 8, 68, 127
2, 233813, Note_off_c, 4, 52, 127
2, 233815, Note_on_c, 2, 50, 127
2, 233983, Note_off_c, 2, 50, 127
2, 233985, Note_on_c, 4, 52, 127
2, 234070, Note_off_c, 8, 68, 127
2, 234153, Note_off_c, 4, 52, 127
2, 234155, Note_on_c, 1, 49, 127
2, 234155, Note_on_c, 1, 73, 127
2, 234323, Note_off_c, 1, 73, 127
2, 234323, Note_off_c, 1, 49, 127
2, 234325, Note_on_c, 2, 50, 127
2, 234325, Note_on_c, 6, 78, 127
2, 234493, Note_off_c, 2, 50, 127
2, 234495, Note_on_c, 1, 49, 127
2, 234663, Note_off_c, 1, 49, 127
2, 234665, Note_on_c, 2, 50, 127
2, 234750, Note_off_c, 6, 78, 127
2, 234833, Note_off_c, 2, 50, 127
2, 234835, Note_on_c, 12, 47, 127
2, 234835, Note_on_c, 8, 80, 127
2, 235003, Note_off_c, 8, 80, 127
2, 235003, Note_off_c, 12, 47, 127
2, 235005, Note_on_c, 1, 49, 127
2, 235005, Note_on_c, 5, 77, 127
2, 235173, Note_off_c, 1, 49, 127
2, 235175, Note_on_c, 2, 50, 127
2, 235343, Note_off_c, 2, 50, 127
2, 235345, Note_on_c, 1, 49, 127
2, 235479, Note_off_c, 5, 77, 127
2, 235513, Note_off_c, 1, 49, 127
2, 235515, Note_on_c, 12, 47, 127
2, 235515, Note_on_c, 3, 75, 127
2, 235683, Note_off_c, 3, 75, 127
2, 235683, Note_off_c, 12, 47, 127
2, 235685, Note_on_c, 10, 45, 127
2, 235685, Note_on_c, 1, 73, 127
2, 235853, Note_off_c, 10, 45, 127
2, 235855, Note_on_c, 6, 54, 127
2, 236023, Note_off_c, 6, 54, 127
2, 236025, Note_on_c, 5, 53, 127
2, 236193, Note_off_c, 5, 53, 127
2, 236195, Note_on_c, 6, 54, 127
2, 236195, Note_on_c, 10, 81, 127
2, 236357, Note_off_c, 1, 73, 127
2, 236362, Note_off_c, 10, 81, 127
2, 236362, Note_off_c, 6, 54, 127
2, 236364, Note_on_c, 8, 44, 127
2, 236364, Note_on_c, 12, 71, 127
2, 236532, Note_off_c, 8, 44, 127
2, 236534, Note_on_c, 6, 54, 127
2, 236702, Note_off_c, 6, 54, 127
2, 236704, Note_on_c, 5, 53, 127
2, 236872, Note_off_c, 5, 53, 127
2, 236874, Note_on_c, 6, 54, 127
2, 236874, Note_on_c, 10, 81, 127
2, 237036, Note_off_c, 12, 71, 127
2, 237041, Note_off_c, 10, 81, 127
2, 237041, Note_off_c, 6, 54, 127
2, 237043, Note_on_c, 8, 44, 127
2, 237043, Note_on_c, 12, 71, 127
2, 237211, Note_off_c, 8, 44, 127
2, 237213, Note_on_c, 6, 54, 127
2, 237381, Note_off_c, 6, 54, 127
2, 237383, Note_on_c, 5, 53, 127
2, 237551, Note_off_c, 5, 53, 127
2, 237553, Note_on_c, 6, 54, 127
2, 237553, Note_on_c, 10, 81, 127
2, 237715, Note_off_c, 12, 71, 127
2, 237720, Note_off_c, 10, 81, 127
2, 237720, Note_off_c, 6, 54, 127
2, 237722, Note_on_c, 1, 49, 127
2, 237722, Note_on_c, 12, 71, 127
2, 237890, Note_off_c, 1, 49, 127
2, 237892, Note_on_c, 5, 53, 127
2, 238060, Note_off_c, 5, 53, 127
2, 238062, Note_on_c, 3, 51, 127
2, 238230, Note_off_c, 3, 51, 127
2, 238232, Note_on_c, 5, 53, 127
2, 238232, Note_on_c, 8, 80, 127
2, 238394, Note_off_c, 12, 71, 127
2, 238399, Note_off_c, 8, 80, 127
2, 238399, Note_off_c, 5, 53, 127
2, 238401, Note_on_c, 6, 54, 127
2, 238401, Note_on_c, 10, 69, 127
2, 238569, Note_off_c, 6, 54, 127
2, 238571, Note_on_c, 10, 57, 127
2, 238739, Note_off_c, 10, 57, 127
2, 238741, Note_on_c, 8, 56, 127
2, 238909, Note_off_c, 8, 56, 127
2, 238911, Note_on_c, 10, 57, 127
2, 238911, Note_on_c, 6, 78, 127
2, 239073, Note_off_c, 10, 69, 127
2, 239078, Note_off_c, 6, 78, 127
2, 239078, Note_off_c, 10, 57, 127
2, 239080, Note_on_c, 12, 59, 127
2, 239080, Note_on_c, 8, 68, 127
2, 239248, Note_off_c, 12, 59, 127
2, 239250, Note_on_c, 10, 57, 127
2, 239418, Note_off_c, 10, 57, 127
2, 239420, Note_on_c, 12, 59, 127
2, 239588, Note_off_c, 12, 59, 127
2, 239590, Note_on_c, 8, 56, 127
2, 239590, Note_on_c, 6, 78, 127
2, 239752, Note_off_c, 8, 68, 127
2, 239757, Note_off_c, 6, 78, 127
2, 239757, Note_off_c, 8, 56, 127
2, 239759, Note_on_c, 1, 61, 127
2, 239759, Note_on_c, 5, 77, 127
2, 239927, Note_off_c, 1, 61, 127
2, 239929, Note_on_c, 12, 59, 127
2, 240097, Note_off_c, 12, 59, 127
2, 240099, Note_on_c, 1, 61, 127
2, 240267, Note_off_c, 1, 61, 127
2, 240267, Note_off_c, 5, 77, 127
2, 240269, Note_on_c, 1, 49, 127
2, 240269, Note_on_c, 5, 77, 127
2, 240437, Note_off_c, 5, 77, 127
2, 240437, Note_off_c, 1, 49, 127
2, 240439, Note_on_c, 6, 54, 127
2, 240439, Note_on_c, 6, 78, 127
2, 240608, Note_on_c, 6, 66, 127
2, 240776, Note_off_c, 6, 66, 127
2, 240778, Note_on_c, 10, 69, 127
2, 240946, Note_off_c, 10, 69, 127
2, 240948, Note_on_c, 6, 66, 127
2, 241110, Note_off_c, 6, 78, 127
2, 241110, Note_off_c, 6, 54, 127
2, 241115, Note_off_c, 6, 66, 127
2, 241117, Note_on_c, 1, 73, 127
2, 241286, Note_on_c, 1, 61, 127
2, 241452, Note_off_c, 1, 73, 127
2, 241454, Note_off_c, 1, 61, 127
2, 241456, Note_on_c, 8, 56, 127
2, 241456, Note_on_c, 4, 52, 127
2, 241456, Note_on_c, 4, 64, 127
2, 241624, Note_off_c, 4, 64, 127
2, 241626, Note_on_c, 1, 61, 127
2, 241794, Note_off_c, 1, 61, 127
2, 241794, Note_off_c, 4, 52, 127
2, 241794, Note_off_c, 8, 56, 127
2, 241796, Note_on_c, 2, 50, 127
2, 241796, Note_on_c, 10, 57, 127
2, 241796, Note_on_c, 6, 66, 127
2, 241964, Note_off_c, 10, 57, 127
2, 241966, Note_on_c, 8, 56, 127
2, 242134, Note_off_c, 8, 56, 127
2, 242134, Note_off_c, 6, 66, 127
2, 242136, Note_on_c, 10, 57, 127
2, 242136, Note_on_c, 6, 66, 127
2, 242304, Note_off_c, 10, 57, 127
2, 242306, Note_on_c, 6, 54, 127
2, 242474, Note_off_c, 6, 54, 127
2, 242474, Note_off_c, 6, 66, 127
2, 242476, Note_on_c, 12, 59, 127
2, 242476, Note_on_c, 6, 66, 127
2, 242644, Note_off_c, 12, 59, 127
2, 242646, Note_off_c, 2, 50, 127
2, 242646, Note_on_c, 10, 57, 127
2, 242814, Note_off_c, 10, 57, 127
2, 242814, Note_off_c, 6, 66, 127
2, 242816, Note_on_c, 2, 50, 127
2, 242816, Note_on_c, 12, 59, 127
2, 242816, Note_on_c, 6, 66, 127
2, 242984, Note_off_c, 12, 59, 127
2, 242986, Note_on_c, 6, 54, 127
2, 243154, Note_off_c, 6, 66, 127
2, 243154, Note_off_c, 2, 50, 127
2, 243156, Note_on_c, 12, 47, 127
2, 243156, Note_on_c, 8, 68, 127
2, 243493, Note_off_c, 8, 68, 127
2, 243493, Note_off_c, 6, 54, 127
2, 243495, Note_on_c, 8, 56, 127
2, 243495, Note_on_c, 12, 71, 127
2, 243663, Note_off_c, 12, 71, 127
2, 243663, Note_off_c, 8, 56, 127
2, 243665, Note_on_c, 6, 54, 127
2, 243665, Note_on_c, 10, 69, 127
2, 243833, Note_off_c, 10, 69, 127
2, 243833, Note_off_c, 6, 54, 127
2, 243833, Note_off_c, 12, 47, 127
2, 243835, Note_on_c, 1, 49, 127
2, 243835, Note_on_c, 5, 53, 127
2, 243835, Note_on_c, 8, 68, 127
2, 244172, Note_off_c, 8, 68, 127
2, 244174, Note_on_c, 1, 73, 127
2, 244342, Note_off_c, 1, 73, 127
2, 244342, Note_off_c, 5, 53, 127
2, 244344, Note_on_c, 5, 53, 127
2, 244344, Note_on_c, 12, 71, 127
2, 244512, Note_off_c, 12, 71, 127
2, 244512, Note_off_c, 5, 53, 127
2, 244512, Note_off_c, 1, 49, 127
2, 244514, Note_on_c, 6, 42, 127
2, 244514, Note_on_c, 6, 54, 127
2, 244514, Note_on_c, 10, 69, 127
2, 244851, Note_off_c, 10, 69, 127
2, 244853, Note_on_c, 1, 73, 127
2, 245021, Note_off_c, 1, 73, 127
2, 245023, Note_on_c, 12, 71, 127
2, 245191, Note_off_c, 12, 71, 127
2, 245193, Note_on_c, 10, 69, 127
2, 245362, Note_off_c, 6, 54, 127
2, 245362, Note_off_c, 6, 42, 127
2, 245530, Note_off_c, 10, 69, 127
2, 245532, Note_on_c, 6, 54, 127
2, 245532, Note_on_c, 10, 57, 127
2, 245532, Note_on_c, 2, 74, 127
2, 245700, Note_off_c, 2, 74, 127
2, 245702, Note_on_c, 1, 73, 127
2, 245870, Note_off_c, 1, 73, 127
2, 245870, Note_off_c, 10, 57, 127
2, 245870, Note_off_c, 6, 54, 127
2, 245872, Note_on_c, 8, 56, 127
2, 245872, Note_on_c, 12, 59, 127
2, 245872, Note_on_c, 12, 71, 127
2, 246040, Note_off_c, 12, 71, 127
2, 246042, Note_on_c, 4, 76, 127
2, 246210, Note_off_c, 4, 76, 127
2, 246210, Note_off_c, 12, 59, 127
2, 246210, Note_off_c, 8, 56, 127
2, 246212, Note_on_c, 10, 57, 127
2, 246212, Note_on_c, 1, 73, 127
2, 246380, Note_off_c, 1, 73, 127
2, 246382, Note_on_c, 10, 69, 127
2, 246550, Note_off_c, 10, 69, 127
2, 246552, Note_on_c, 4, 52, 127
2, 246552, Note_on_c, 1, 73, 127
2, 246635, Note_off_c, 1, 73, 127
2, 246637, Note_on_c, 12, 71, 127
2, 246720, Note_off_c, 12, 71, 127
2, 246722, Note_on_c, 1, 73, 127
2, 246805, Note_off_c, 1, 73, 127
2, 246807, Note_on_c, 12, 71, 127
2, 246890, Note_off_c, 10, 57, 127
2, 246892, Note_on_c, 8, 56, 127
2, 247061, Note_off_c, 12, 71, 127
2, 247061, Note_on_c, 10, 69, 127
2, 247229, Note_off_c, 10, 69, 127
2, 247229, Note_off_c, 8, 56, 127
2, 247229, Note_off_c, 4, 52, 127
2, 247231, Note_on_c, 10, 45, 127
2, 247231, Note_on_c, 10, 57, 127
2, 247231, Note_on_c, 10, 69, 127
2, 247400, Note_on_c, 4, 76, 127
2, 247566, Note_off_c, 10, 69, 127
2, 247568, Note_off_c, 4, 76, 127
2, 247570, Note_on_c, 1, 73, 127
2, 247738, Note_off_c, 1, 73, 127
2, 247740, Note_on_c, 10, 69, 127
2, 247832, Note_off_c, 10, 45, 127
2, 247903, Note_off_c, 10, 57, 127
2, 247908, Note_off_c, 10, 69, 127
2, 247910, Note_on_c, 8, 68, 127
2, 248079, Note_on_c, 12, 71, 127
2, 248247, Note_off_c, 12, 71, 127
2, 248249, Note_on_c, 12, 47, 127
2, 248249, Note_on_c, 8, 44, 127
2, 248249, Note_on_c, 4, 52, 127
2, 248249, Note_on_c, 4, 76, 127
2, 248404, Note_off_c, 8, 68, 127
2, 248416, Note_off_c, 4, 76, 127
2, 248418, Note_on_c, 4, 64, 127
2, 248586, Note_off_c, 4, 64, 127
2, 248586, Note_off_c, 4, 52, 127
2, 248586, Note_off_c, 8, 44, 127
2, 248586, Note_off_c, 12, 47, 127
2, 248588, Note_on_c, 10, 45, 127
2, 248588, Note_on_c, 4, 52, 127
2, 248588, Note_on_c, 1, 49, 127
2, 248588, Note_on_c, 10, 57, 127
2, 248588, Note_on_c, 10, 69, 127
2, 248756, Note_off_c, 10, 69, 127
2, 248758, Note_on_c, 4, 76, 127
2, 248926, Note_off_c, 4, 76, 127
2, 248928, Note_on_c, 1, 73, 127
2, 249083, Note_off_c, 10, 57, 127
2, 249083, Note_off_c, 1, 49, 127
2, 249083, Note_off_c, 4, 52, 127
2, 249083, Note_off_c, 10, 45, 127
2, 249095, Note_off_c, 1, 73, 127
2, 249097, Note_on_c, 10, 69, 127
2, 249265, Note_off_c, 10, 69, 127
2, 249267, Note_on_c, 12, 47, 127
2, 249267, Note_on_c, 8, 44, 127
2, 249267, Note_on_c, 4, 40, 127
2, 249267, Note_on_c, 4, 52, 127
2, 249267, Note_on_c, 8, 68, 127
2, 249435, Note_off_c, 8, 68, 127
2, 249437, Note_on_c, 12, 71, 127
2, 249605, Note_off_c, 12, 71, 127
2, 249607, Note_on_c, 4, 76, 127
2, 249762, Note_off_c, 4, 52, 127
2, 249762, Note_off_c, 4, 40, 127
2, 249762, Note_off_c, 8, 44, 127
2, 249762, Note_off_c, 12, 47, 127
2, 249774, Note_off_c, 4, 76, 127
2, 249776, Note_on_c, 4, 64, 127
2, 249944, Note_off_c, 4, 64, 127
2, 249946, Note_on_c, 4, 52, 127
2, 249946, Note_on_c, 8, 44, 127
2, 249946, Note_on_c, 4, 40, 127
2, 249946, Note_on_c, 12, 47, 127
2, 249946, Note_on_c, 8, 68, 127
2, 250114, Note_off_c, 8, 68, 127
2, 250116, Note_on_c, 12, 71, 127
2, 250284, Note_off_c, 12, 71, 127
2, 250286, Note_on_c, 8, 68, 127
2, 250454, Note_off_c, 8, 68, 127
2, 250456, Note_on_c, 4, 64, 127
2, 250548, Note_off_c, 12, 47, 127
2, 250548, Note_off_c, 4, 40, 127
2, 250548, Note_off_c, 8, 44, 127
2, 250548, Note_off_c, 4, 52, 127
2, 250624, Note_off_c, 4, 64, 127
2, 250626, Note_on_c, 3, 63, 127
2, 250795, Note_on_c, 6, 66, 127
2, 250963, Note_off_c, 6, 66, 127
2, 250965, Note_on_c, 3, 39, 127
2, 250965, Note_on_c, 12, 47, 127
2, 250965, Note_on_c, 3, 51, 127
2, 250965, Note_on_c, 12, 71, 127
2, 251120, Note_off_c, 3, 63, 127
2, 251132, Note_off_c, 12, 71, 127
2, 251134, Note_on_c, 12, 59, 127
2, 251302, Note_off_c, 12, 59, 127
2, 251302, Note_off_c, 3, 51, 127
2, 251302, Note_off_c, 12, 47, 127
2, 251302, Note_off_c, 3, 39, 127
2, 251304, Note_on_c, 4, 40, 127
2, 251304, Note_on_c, 8, 44, 127
2, 251304, Note_on_c, 4, 52, 127
2, 251304, Note_on_c, 12, 47, 127
2, 251304, Note_on_c, 4, 64, 127
2, 251472, Note_off_c, 4, 64, 127
2, 251474, Note_on_c, 12, 71, 127
2, 251642, Note_off_c, 12, 71, 127
2, 251644, Note_on_c, 8, 68, 127
2, 251799, Note_off_c, 12, 47, 127
2, 251799, Note_off_c, 4, 52, 127
2, 251799, Note_off_c, 8, 44, 127
2, 251799, Note_off_c, 4, 40, 127
2, 251811, Note_off_c, 8, 68, 127
2, 251813, Note_on_c, 4, 64, 127
2, 251981, Note_off_c, 4, 64, 127
2, 251983, Note_on_c, 3, 51, 127
2, 251983, Note_on_c, 12, 47, 127
2, 251983, Note_on_c, 6, 54, 127
2, 251983, Note_on_c, 3, 63, 127
2, 252151, Note_off_c, 3, 63, 127
2, 252153, Note_on_c, 6, 66, 127
2, 252321, Note_off_c, 6, 66, 127
2, 252323, Note_on_c, 12, 71, 127
2, 252478, Note_off_c, 6, 54, 127
2, 252478, Note_off_c, 12, 47, 127
2, 252478, Note_off_c, 3, 51, 127
2, 252490, Note_off_c, 12, 71, 127
2, 252492, Note_on_c, 12, 59, 127
2, 252661, Note_on_c, 8, 44, 127
2, 252829, Note_off_c, 12, 59, 127
2, 252831, Note_on_c, 12, 71, 127
2, 252999, Note_off_c, 12, 71, 127
2, 253001, Note_on_c, 4, 52, 127
2, 253001, Note_on_c, 8, 68, 127
2, 253169, Note_off_c, 8, 68, 127
2, 253171, Note_on_c, 4, 64, 127
2, 253339, Note_off_c, 4, 64, 127
2, 253339, Note_off_c, 8, 44, 127
2, 253341, Note_on_c, 10, 45, 127
2, 253341, Note_on_c, 1, 61, 127
2, 253509, Note_off_c, 1, 61, 127
2, 253511, Note_on_c, 1, 73, 127
2, 253679, Note_off_c, 1, 73, 127
2, 253679, Note_off_c, 4, 52, 127
2, 253681, Note_on_c, 6, 54, 127
2, 253681, Note_on_c, 10, 69, 127
2, 253849, Note_off_c, 10, 69, 127
2, 253851, Note_on_c, 6, 66, 127
2, 254019, Note_off_c, 6, 66, 127
2, 254019, Note_off_c, 10, 45, 127
2, 254021, Note_on_c, 12, 47, 127
2, 254021, Note_on_c, 3, 63, 127
2, 254190, Note_on_c, 3, 75, 127
2, 254215, Note_off_c, 3, 63, 127
2, 254358, Note_off_c, 3, 75, 127
2, 254358, Note_off_c, 6, 54, 127
2, 254360, Note_on_c, 8, 56, 127
2, 254360, Note_on_c, 12, 71, 127
2, 254528, Note_off_c, 12, 71, 127
2, 254530, Note_on_c, 8, 68, 127
2, 254698, Note_off_c, 8, 68, 127
2, 254698, Note_off_c, 12, 47, 127
2, 254700, Note_on_c, 1, 49, 127
2, 254700, Note_on_c, 4, 64, 127
2, 254869, Note_on_c, 4, 76, 127
2, 254929, Note_off_c, 4, 64, 127
2, 255037, Note_off_c, 4, 76, 127
2, 255037, Note_off_c, 8, 56, 127
2, 255039, Note_on_c, 10, 57, 127
2, 255039, Note_on_c, 1, 73, 127
2, 255207, Note_off_c, 1, 73, 127
2, 255209, Note_on_c, 10, 69, 127
2, 255377, Note_off_c, 10, 69, 127
2, 255377, Note_off_c, 1, 49, 127
2, 255379, Note_on_c, 3, 51, 127
2, 255379, Note_on_c, 6, 66, 127
2, 255548, Note_on_c, 6, 78, 127
2, 255643, Note_off_c, 6, 66, 127
2, 255715, Note_off_c, 6, 78, 127
2, 255715, Note_off_c, 10, 57, 127
2, 255717, Note_on_c, 12, 59, 127
2, 255717, Note_on_c, 3, 75, 127
2, 255885, Note_off_c, 3, 75, 127
2, 255887, Note_on_c, 12, 71, 127
2, 256055, Note_off_c, 12, 71, 127
2, 256055, Note_off_c, 3, 51, 127
2, 256057, Note_on_c, 4, 52, 127
2, 256057, Note_on_c, 8, 68, 127
2, 256226, Note_on_c, 8, 80, 127
2, 256374, Note_off_c, 8, 68, 127
2, 256393, Note_off_c, 8, 80, 127
2, 256393, Note_off_c, 12, 59, 127
2, 256395, Note_on_c, 1, 61, 127
2, 256395, Note_on_c, 4, 76, 127
2, 256563, Note_off_c, 4, 76, 127
2, 256565, Note_on_c, 1, 73, 127
2, 256733, Note_off_c, 1, 73, 127
2, 256733, Note_off_c, 4, 52, 127
2, 256735, Note_on_c, 6, 54, 127
2, 256735, Note_on_c, 10, 69, 127
2, 256904, Note_on_c, 10, 81, 127
2, 257072, Note_off_c, 10, 81, 127
2, 257072, Note_off_c, 1, 61, 127
2, 257074, Note_on_c, 3, 63, 127
2, 257074, Note_on_c, 6, 78, 127
2, 257079, Note_off_c, 10, 69, 127
2, 257241, Note_off_c, 6, 78, 127
2, 257243, Note_on_c, 3, 75, 127
2, 257411, Note_off_c, 3, 75, 127
2, 257411, Note_off_c, 6, 54, 127
2, 257413, Note_on_c, 8, 56, 127
2, 257413, Note_on_c, 12, 71, 127
2, 257582, Note_on_c, 12, 83, 127
2, 257750, Note_off_c, 12, 83, 127
2, 257750, Note_off_c, 3, 63, 127
2, 257752, Note_on_c, 4, 64, 127
2, 257752, Note_on_c, 8, 80, 127
2, 257907, Note_off_c, 12, 71, 127
2, 257919, Note_off_c, 8, 80, 127
2, 257921, Note_on_c, 4, 76, 127
2, 258089, Note_off_c, 4, 76, 127
2, 258089, Note_off_c, 8, 56, 127
2, 258091, Note_on_c, 10, 57, 127
2, 258091, Note_on_c, 1, 73, 127
2, 258428, Note_off_c, 4, 64, 127
2, 258430, Note_on_c, 3, 63, 127
2, 258598, Note_off_c, 1, 73, 127
2, 258600, Note_on_c, 3, 75, 127
2, 258768, Note_off_c, 3, 75, 127
2, 258768, Note_off_c, 3, 63, 127
2, 258770, Note_on_c, 1, 61, 127
2, 258770, Note_on_c, 4, 76, 127
2, 258938, Note_off_c, 4, 76, 127
2, 258940, Note_on_c, 6, 78, 127
2, 259108, Note_off_c, 6, 78, 127
2, 259108, Note_off_c, 1, 61, 127
2, 259108, Note_off_c, 10, 57, 127
2, 259110, Note_on_c, 4, 52, 127
2, 259110, Note_on_c, 12, 59, 127
2, 259110, Note_on_c, 8, 80, 127
2, 259278, Note_off_c, 8, 80, 127
2, 259278, Note_off_c, 4, 52, 127
2, 259280, Note_on_c, 6, 54, 127
2, 259280, Note_on_c, 10, 81, 127
2, 259448, Note_off_c, 10, 81, 127
2, 259448, Note_off_c, 6, 54, 127
2, 259448, Note_off_c, 12, 59, 127
2, 259450, Note_on_c, 8, 56, 127
2, 259450, Note_on_c, 4, 64, 127
2, 259450, Note_on_c, 12, 83, 127
2, 259619, Note_on_c, 12, 71, 127
2, 259787, Note_off_c, 12, 71, 127
2, 259787, Note_off_c, 8, 56, 127
2, 259789, Note_on_c, 10, 57, 127
2, 259789, Note_on_c, 1, 73, 127
2, 259944, Note_off_c, 12, 83, 127
2, 259958, Note_on_c, 10, 81, 127
2, 260124, Note_off_c, 1, 73, 127
2, 260126, Note_off_c, 10, 57, 127
2, 260128, Note_on_c, 12, 59, 127
2, 260128, Note_on_c, 12, 71, 127
2, 260294, Note_off_c, 10, 81, 127
2, 260298, Note_on_c, 8, 80, 127
2, 260464, Note_off_c, 12, 71, 127
2, 260466, Note_off_c, 4, 64, 127
2, 260468, Note_on_c, 3, 63, 127
2, 260468, Note_on_c, 10, 69, 127
2, 260634, Note_off_c, 8, 80, 127
2, 260638, Note_on_c, 6, 78, 127
2, 260800, Note_off_c, 12, 59, 127
2, 260804, Note_off_c, 10, 69, 127
2, 260804, Note_off_c, 3, 63, 127
2, 260806, Note_off_c, 6, 78, 127
2, 260808, Note_on_c, 4, 76, 127
2, 260808, Note_on_c, 12, 71, 127
2, 260808, Note_on_c, 8, 68, 127
2, 260808, Note_on_c, 4, 64, 127
2, 260977, Note_on_c, 4, 52, 127
2, 261145, Note_off_c, 4, 52, 127
2, 261147, Note_on_c, 8, 56, 127
2, 261315, Note_off_c, 8, 56, 127
2, 261317, Note_on_c, 4, 52, 127
2, 261409, Note_off_c, 4, 64, 127
2, 261409, Note_off_c, 8, 68, 127
2, 261409, Note_off_c, 12, 71, 127
2, 261409, Note_off_c, 4, 76, 127
2, 261485, Note_off_c, 4, 52, 127
2, 261487, Note_on_c, 12, 59, 127
2, 261655, Note_off_c, 12, 59, 127
2, 261657, Note_on_c, 12, 47, 127
2, 261657, Note_on_c, 6, 66, 127
2, 261825, Note_off_c, 6, 66, 127
2, 261825, Note_off_c, 12, 47, 127
2, 261827, Note_on_c, 3, 51, 127
2, 261827, Note_on_c, 8, 68, 127
2, 261995, Note_off_c, 8, 68, 127
2, 261995, Note_off_c, 3, 51, 127
2, 261997, Note_on_c, 12, 47, 127
2, 261997, Note_on_c, 10, 69, 127
2, 262165, Note_off_c, 10, 69, 127
2, 262165, Note_off_c, 12, 47, 127
2, 262167, Note_on_c, 4, 52, 127
2, 262167, Note_on_c, 8, 68, 127
2, 262504, Note_off_c, 4, 52, 127
2, 262506, Note_on_c, 4, 52, 127
2, 262843, Note_off_c, 4, 52, 127
2, 262845, Note_on_c, 4, 52, 127
2, 263013, Note_off_c, 8, 68, 127
2, 263015, Note_on_c, 8, 68, 127
2, 263183, Note_off_c, 8, 68, 127
2, 263183, Note_off_c, 4, 52, 127
2, 263185, Note_on_c, 4, 52, 127
2, 263185, Note_on_c, 10, 69, 127
2, 263353, Note_off_c, 10, 69, 127
2, 263355, Note_on_c, 12, 71, 127
2, 263523, Note_off_c, 12, 71, 127
2, 263523, Note_off_c, 4, 52, 127
2, 263525, Note_on_c, 6, 54, 127
2, 263525, Note_on_c, 10, 69, 127
2, 263862, Note_off_c, 6, 54, 127
2, 263864, Note_on_c, 10, 57, 127
2, 264032, Note_off_c, 10, 57, 127
2, 264034, Note_on_c, 8, 56, 127
2, 264202, Note_off_c, 8, 56, 127
2, 264204, Note_on_c, 6, 54, 127
2, 264372, Note_off_c, 10, 69, 127
2, 264374, Note_on_c, 10, 69, 127
2, 264542, Note_off_c, 10, 69, 127
2, 264542, Note_off_c, 6, 54, 127
2, 264544, Note_on_c, 12, 59, 127
2, 264544, Note_on_c, 8, 68, 127
2, 264712, Note_off_c, 8, 68, 127
2, 264712, Note_off_c, 12, 59, 127
2, 264714, Note_on_c, 10, 57, 127
2, 264714, Note_on_c, 6, 66, 127
2, 264882, Note_off_c, 6, 66, 127
2, 264882, Note_off_c, 10, 57, 127
2, 264884, Note_on_c, 8, 56, 127
2, 264884, Note_on_c, 12, 71, 127
2, 265221, Note_off_c, 8, 56, 127
2, 265223, Note_on_c, 12, 59, 127
2, 265391, Note_off_c, 12, 59, 127
2, 265393, Note_on_c, 10, 57, 127
2, 265561, Note_off_c, 10, 57, 127
2, 265563, Note_on_c, 8, 56, 127
2, 265731, Note_off_c, 12, 71, 127
2, 265733, Note_on_c, 12, 71, 127
2, 265901, Note_off_c, 12, 71, 127
2, 265901, Note_off_c, 8, 56, 127
2, 265903, Note_on_c, 1, 61, 127
2, 265903, Note_on_c, 10, 69, 127
2, 266071, Note_off_c, 10, 69, 127
2, 266071, Note_off_c, 1, 61, 127
2, 266073, Note_on_c, 12, 59, 127
2, 266073, Note_on_c, 8, 68, 127
2, 266241, Note_off_c, 8, 68, 127
2, 266241, Note_off_c, 12, 59, 127
2, 266243, Note_on_c, 11, 58, 127
2, 266243, Note_on_c, 1, 73, 127
2, 266411, Note_off_c, 11, 58, 127
2, 266413, Note_on_c, 8, 56, 127
2, 266581, Note_off_c, 8, 56, 127
2, 266583, Note_on_c, 11, 58, 127
2, 266751, Note_off_c, 11, 58, 127
2, 266751, Note_off_c, 1, 73, 127
2, 266753, Note_on_c, 6, 54, 127
2, 266753, Note_on_c, 1, 73, 127
2, 266921, Note_off_c, 1, 73, 127
2, 266921, Note_off_c, 6, 54, 127
2, 266923, Note_on_c, 12, 59, 127
2, 266923, Note_on_c, 2, 74, 127
2, 267091, Note_off_c, 2, 74, 127
2, 267093, Note_on_c, 12, 71, 127
2, 267261, Note_off_c, 12, 71, 127
2, 267261, Note_off_c, 12, 59, 127
2, 267263, Note_on_c, 7, 67, 127
2, 267263, Note_on_c, 4, 76, 127
2, 267431, Note_off_c, 4, 76, 127
2, 267433, Note_on_c, 2, 74, 127
2, 267601, Note_off_c, 2, 74, 127
2, 267601, Note_off_c, 7, 67, 127
2, 267603, Note_on_c, 11, 58, 127
2, 267603, Note_on_c, 7, 79, 127
2, 267771, Note_off_c, 7, 79, 127
2, 267773, Note_on_c, 1, 73, 127
2, 267941, Note_off_c, 1, 73, 127
2, 267941, Note_off_c, 11, 58, 127
2, 267943, Note_on_c, 12, 59, 127
2, 267943, Note_on_c, 2, 74, 127
2, 268111, Note_off_c, 2, 74, 127
2, 268113, Note_on_c, 4, 76, 127
2, 268281, Note_off_c, 4, 76, 127
2, 268283, Note_on_c, 2, 74, 127
2, 268338, Note_off_c, 2, 74, 127
2, 268340, Note_on_c, 1, 73, 127
2, 268396, Note_on_c, 2, 74, 127
2, 268422, Note_off_c, 1, 73, 127
2, 268450, Note_off_c, 2, 74, 127
2, 268452, Note_on_c, 1, 73, 127
2, 268620, Note_off_c, 12, 59, 127
2, 268622, Note_on_c, 11, 58, 127
2, 268707, Note_off_c, 1, 73, 127
2, 268792, Note_on_c, 3, 75, 127
2, 268960, Note_off_c, 3, 75, 127
2, 268960, Note_off_c, 11, 58, 127
2, 268962, Note_on_c, 12, 59, 127
2, 268962, Note_on_c, 3, 75, 127
2, 269130, Note_off_c, 3, 75, 127
2, 269132, Note_on_c, 12, 71, 127
2, 269300, Note_off_c, 12, 71, 127
2, 269302, Note_on_c, 3, 75, 127
2, 269470, Note_off_c, 3, 75, 127
2, 269472, Note_on_c, 12, 71, 127
2, 269640, Note_off_c, 12, 71, 127
2, 269642, Note_on_c, 6, 78, 127
2, 269670, Note_off_c, 12, 59, 127
2, 269809, Note_off_c, 6, 78, 127
2, 269811, Note_on_c, 11, 58, 127
2, 269811, Note_on_c, 6, 66, 127
2, 269979, Note_off_c, 6, 66, 127
2, 269979, Note_off_c, 11, 58, 127
2, 269981, Note_on_c, 8, 56, 127
2, 269981, Note_on_c, 11, 70, 127
2, 270149, Note_off_c, 11, 70, 127
2, 270149, Note_off_c, 8, 56, 127
2, 270151, Note_on_c, 6, 54, 127
2, 270151, Note_on_c, 6, 66, 127
2, 270319, Note_off_c, 6, 66, 127
2, 270319, Note_off_c, 6, 54, 127
2, 270321, Note_on_c, 8, 56, 127
2, 270321, Note_on_c, 12, 71, 127
2, 270658, Note_off_c, 12, 71, 127
2, 270660, Note_on_c, 12, 71, 127
2, 270997, Note_off_c, 12, 71, 127
2, 270999, Note_on_c, 12, 71, 127
2, 271027, Note_off_c, 8, 56, 127
2, 271168, Note_on_c, 12, 59, 127
2, 271336, Note_off_c, 12, 59, 127
2, 271336, Note_off_c, 12, 71, 127
2, 271338, Note_on_c, 11, 58, 127
2, 271338, Note_on_c, 12, 71, 127
2, 271506, Note_off_c, 11, 58, 127
2, 271508, Note_on_c, 8, 56, 127
2, 271676, Note_off_c, 8, 56, 127
2, 271676, Note_off_c, 12, 71, 127
2, 271678, Note_on_c, 11, 58, 127
2, 271678, Note_on_c, 1, 73, 127
2, 272015, Note_off_c, 1, 73, 127
2, 272017, Note_on_c, 4, 76, 127
2, 272185, Note_off_c, 4, 76, 127
2, 272187, Note_on_c, 3, 75, 127
2, 272355, Note_off_c, 3, 75, 127
2, 272357, Note_on_c, 1, 73, 127
2, 272385, Note_off_c, 11, 58, 127
2, 272526, Note_on_c, 6, 54, 127
2, 272694, Note_off_c, 6, 54, 127
2, 272694, Note_off_c, 1, 73, 127
2, 272696, Note_on_c, 8, 56, 127
2, 272696, Note_on_c, 6, 78, 127
2, 272864, Note_off_c, 6, 78, 127
2, 272864, Note_off_c, 8, 56, 127
2, 272866, Note_on_c, 11, 58, 127
2, 272866, Note_on_c, 4, 76, 127
2, 273034, Note_off_c, 4, 76, 127
2, 273034, Note_off_c, 11, 58, 127
2, 273036, Note_on_c, 12, 59, 127
2, 273036, Note_on_c, 3, 75, 127
2, 273373, Note_off_c, 3, 75, 127
2, 273375, Note_on_c, 6, 78, 127
2, 273543, Note_off_c, 6, 78, 127
2, 273545, Note_on_c, 4, 76, 127
2, 273713, Note_off_c, 4, 76, 127
2, 273715, Note_on_c, 3, 75, 127
2, 273743, Note_off_c, 12, 59, 127
2, 273884, Note_on_c, 11, 58, 127
2, 274052, Note_off_c, 11, 58, 127
2, 274052, Note_off_c, 3, 75, 127
2, 274054, Note_on_c, 12, 59, 127
2, 274054, Note_on_c, 8, 80, 127
2, 274222, Note_off_c, 8, 80, 127
2, 274222, Note_off_c, 12, 59, 127
2, 274224, Note_on_c, 1, 61, 127
2, 274224, Note_on_c, 4, 76, 127
2, 274392, Note_off_c, 4, 76, 127
2, 274392, Note_off_c, 1, 61, 127
2, 274394, Note_on_c, 3, 63, 127
2, 274394, Note_on_c, 12, 83, 127
2, 274562, Note_off_c, 3, 63, 127
2, 274564, Note_on_c, 1, 61, 127
2, 274732, Note_off_c, 1, 61, 127
2, 274734, Note_on_c, 3, 63, 127
2, 274902, Note_off_c, 3, 63, 127
2, 274902, Note_off_c, 12, 83, 127
2, 274904, Note_on_c, 12, 59, 127
2, 274904, Note_on_c, 6, 78, 127
2, 275072, Note_off_c, 6, 78, 127
2, 275072, Note_off_c, 12, 59, 127
2, 275074, Note_on_c, 4, 64, 127
2, 275074, Note_on_c, 8, 80, 127
2, 275242, Note_off_c, 8, 80, 127
2, 275244, Note_on_c, 3, 75, 127
2, 275412, Note_off_c, 3, 75, 127
2, 275412, Note_off_c, 4, 64, 127
2, 275414, Note_on_c, 8, 56, 127
2, 275414, Note_on_c, 4, 76, 127
2, 275582, Note_off_c, 4, 76, 127
2, 275584, Note_on_c, 12, 71, 127
2, 275752, Note_off_c, 12, 71, 127
2, 275752, Note_off_c, 8, 56, 127
2, 275754, Note_on_c, 10, 57, 127
2, 275754, Note_on_c, 1, 73, 127
2, 275922, Note_off_c, 10, 57, 127
2, 275924, Note_on_c, 8, 56, 127
2, 276092, Note_off_c, 8, 56, 127
2, 276094, Note_on_c, 10, 57, 127
2, 276262, Note_off_c, 10, 57, 127
2, 276262, Note_off_c, 1, 73, 127
2, 276264, Note_on_c, 4, 52, 127
2, 276264, Note_on_c, 4, 76, 127
2, 276432, Note_off_c, 4, 76, 127
2, 276432, Note_off_c, 4, 52, 127
2, 276434, Note_on_c, 6, 54, 127
2, 276434, Note_on_c, 10, 81, 127
2, 276602, Note_off_c, 10, 81, 127
2, 276604, Note_on_c, 4, 76, 127
2, 276772, Note_off_c, 4, 76, 127
2, 276772, Note_off_c, 6, 54, 127
2, 276774, Note_on_c, 10, 45, 127
2, 276774, Note_on_c, 6, 78, 127
2, 276942, Note_off_c, 6, 78, 127
2, 276944, Note_on_c, 1, 73, 127
2, 277112, Note_off_c, 1, 73, 127
2, 277112, Note_off_c, 10, 45, 127
2, 277114, Note_on_c, 12, 47, 127
2, 277114, Note_on_c, 3, 75, 127
2, 277282, Note_off_c, 12, 47, 127
2, 277284, Note_on_c, 10, 45, 127
2, 277452, Note_off_c, 10, 45, 127
2, 277454, Note_on_c, 12, 47, 127
2, 277622, Note_off_c, 12, 47, 127
2, 277622, Note_off_c, 3, 75, 127
2, 277624, Note_on_c, 6, 42, 127
2, 277624, Note_on_c, 3, 75, 127
2, 277792, Note_off_c, 3, 75, 127
2, 277792, Note_off_c, 6, 42, 127
2, 277794, Note_on_c, 8, 44, 127
2, 277794, Note_on_c, 4, 76, 127
2, 277962, Note_off_c, 4, 76, 127
2, 277962, Note_off_c, 8, 44, 127
2, 277964, Note_on_c, 6, 42, 127
2, 277964, Note_on_c, 6, 78, 127
2, 278132, Note_off_c, 6, 78, 127
2, 278132, Note_off_c, 6, 42, 127
2, 278134, Note_on_c, 8, 44, 127
2, 278134, Note_on_c, 4, 76, 127
2, 278302, Note_off_c, 4, 76, 127
2, 278302, Note_off_c, 8, 44, 127
2, 278304, Note_on_c, 4, 40, 127
2, 278304, Note_on_c, 3, 75, 127
2, 278472, Note_off_c, 3, 75, 127
2, 278472, Note_off_c, 4, 40, 127
2, 278474, Note_on_c, 10, 45, 127
2, 278474, Note_on_c, 1, 73, 127
2, 278642, Note_off_c, 1, 73, 127
2, 278644, Note_on_c, 3, 75, 127
2, 278812, Note_off_c, 3, 75, 127
2, 278812, Note_off_c, 10, 45, 127
2, 278814, Note_on_c, 12, 47, 127
2, 278814, Note_on_c, 1, 73, 127
2, 278982, Note_off_c, 1, 73, 127
2, 278984, Note_on_c, 12, 71, 127
2, 279152, Note_off_c, 12, 71, 127
2, 279152, Note_off_c, 12, 47, 127
2, 279154, Note_on_c, 1, 49, 127
2, 279154, Note_on_c, 10, 69, 127
2, 279322, Note_off_c, 10, 69, 127
2, 279324, Note_on_c, 12, 71, 127
2, 279407, Note_off_c, 12, 71, 127
2, 279409, Note_on_c, 10, 69, 127
2, 279492, Note_off_c, 10, 69, 127
2, 279492, Note_off_c, 1, 49, 127
2, 279494, Note_on_c, 3, 51, 127
2, 279494, Note_on_c, 12, 71, 127
2, 279577, Note_off_c, 12, 71, 127
2, 279579, Note_on_c, 10, 69, 127
2, 279662, Note_off_c, 10, 69, 127
2, 279664, Note_on_c, 8, 68, 127
2, 279832, Note_off_c, 8, 68, 127
2, 279832, Note_off_c, 3, 51, 127
2, 279834, Note_on_c, 4, 52, 127
2, 279834, Note_on_c, 8, 68, 127
2, 280505, Note_off_c, 8, 68, 127
2, 280544, Note_off_c, 4, 52, 127
2, 280701, Note_on_c, 4, 52, 127
2, 280701, Note_on_c, 1, 73, 127
2, 280888, Note_off_c, 1, 73, 127
2, 280888, Note_off_c, 4, 52, 127
2, 280890, Note_on_c, 3, 51, 127
2, 280890, Note_on_c, 3, 75, 127
2, 281077, Note_off_c, 3, 75, 127
2, 281077, Note_off_c, 3, 51, 127
2, 281079, Note_on_c, 1, 49, 127
2, 281079, Note_on_c, 4, 76, 127
2, 281266, Note_off_c, 4, 76, 127
2, 281266, Note_off_c, 1, 49, 127
2, 281268, Note_on_c, 3, 51, 127
2, 281268, Note_on_c, 7, 67, 127
2, 281441, Note_off_c, 7, 67, 127
2, 281443, Note_on_c, 1, 73, 127
2, 281616, Note_off_c, 3, 51, 127
2, 281618, Note_on_c, 8, 56, 127
2, 281791, Note_off_c, 1, 73, 127
2, 281793, Note_on_c, 12, 71, 127
2, 281966, Note_off_c, 8, 56, 127
2, 281968, Note_on_c, 1, 49, 127
2, 282048, Note_off_c, 12, 71, 127
2, 282143, Note_on_c, 12, 71, 127
2, 282316, Note_off_c, 1, 49, 127
2, 282318, Note_on_c, 6, 54, 127
2, 282491, Note_off_c, 12, 71, 127
2, 282493, Note_on_c, 11, 70, 127
2, 282666, Note_off_c, 6, 54, 127
2, 282668, Note_on_c, 12, 47, 127
2, 282748, Note_off_c, 11, 70, 127
2, 282843, Note_on_c, 11, 70, 127
2, 283016, Note_off_c, 12, 47, 127
2, 283018, Note_on_c, 4, 52, 127
2, 283191, Note_off_c, 11, 70, 127
2, 283193, Note_on_c, 8, 68, 127
2, 283366, Note_off_c, 4, 52, 127
2, 283368, Note_on_c, 3, 51, 127
2, 283448, Note_off_c, 8, 68, 127
2, 283543, Note_on_c, 8, 68, 127
2, 283716, Note_off_c, 3, 51, 127
2, 283718, Note_on_c, 2, 50, 127
2, 283891, Note_off_c, 8, 68, 127
2, 283893, Note_on_c, 7, 67, 127
2, 284066, Note_off_c, 7, 67, 127
2, 284066, Note_off_c, 2, 50, 127
2, 284068, Note_on_c, 3, 51, 127
2, 284068, Note_on_c, 7, 67, 127
2, 284243, Note_on_c, 3, 63, 127
2, 284414, Note_off_c, 7, 67, 127
2, 284416, Note_off_c, 3, 63, 127
2, 284416, Note_off_c, 3, 51, 127
2, 284418, Note_on_c, 8, 44, 127
2, 284418, Note_on_c, 12, 71, 127
2, 284591, Note_off_c, 12, 71, 127
2, 284593, Note_on_c, 1, 73, 127
2, 284766, Note_off_c, 1, 73, 127
2, 284766, Note_off_c, 8, 44, 127
2, 284768, Note_on_c, 1, 49, 127
2, 284768, Note_on_c, 12, 71, 127
2, 284853, Note_off_c, 12, 71, 127
2, 284855, Note_on_c, 11, 70, 127
2, 284933, Note_on_c, 12, 71, 127
2, 284940, Note_off_c, 11, 70, 127
2, 285011, Note_on_c, 11, 70, 127
2, 285018, Note_off_c, 12, 71, 127
2, 285089, Note_on_c, 12, 71, 127
2, 285096, Note_off_c, 11, 70, 127
2, 285114, Note_off_c, 1, 49, 127
2, 285116, Note_on_c, 3, 51, 127
2, 285167, Note_on_c, 11, 70, 127
2, 285174, Note_off_c, 12, 71, 127
2, 285289, Note_off_c, 11, 70, 127
2, 285291, Note_on_c, 12, 71, 127
2, 285464, Note_off_c, 12, 71, 127
2, 285464, Note_off_c, 3, 51, 127
2, 285466, Note_on_c, 8, 44, 127
2, 285466, Note_on_c, 12, 71, 127
2, 285639, Note_off_c, 12, 71, 127
2, 285639, Note_off_c, 8, 44, 127
2, 285644, Note_on_c, 11, 70, 127
2, 285644, Note_on_c, 8, 56, 127
2, 285817, Note_off_c, 8, 56, 127
2, 285817, Note_off_c, 11, 70, 127
2, 285821, Note_on_c, 0, 60, 127
2, 285821, Note_on_c, 8, 68, 127
2, 285994, Note_off_c, 0, 60, 127
2, 286007, Note_on_c, 8, 56, 127
2, 286169, Note_off_c, 8, 68, 127
2, 286180, Note_off_c, 8, 56, 127
2, 286182, Note_on_c, 4, 76, 127
2, 286182, Note_on_c, 1, 61, 127
2, 286350, Note_off_c, 1, 61, 127
2, 286352, Note_on_c, 1, 49, 127
2, 286520, Note_off_c, 1, 49, 127
2, 286522, Note_on_c, 8, 68, 127
2, 286522, Note_on_c, 4, 52, 127
2, 286690, Note_off_c, 4, 52, 127
2, 286692, Note_on_c, 1, 49, 127
2, 286860, Note_off_c, 1, 49, 127
2, 286860, Note_off_c, 8, 68, 127
2, 286862, Note_on_c, 10, 69, 127
2, 286862, Note_on_c, 6, 54, 127
2, 287199, Note_off_c, 6, 54, 127
2, 287199, Note_off_c, 4, 76, 127
2, 287201, Note_on_c, 6, 78, 127
2, 287201, Note_on_c, 6, 54, 127
2, 287369, Note_off_c, 6, 78, 127
2, 287371, Note_on_c, 4, 76, 127
2, 287539, Note_off_c, 4, 76, 127
2, 287539, Note_off_c, 6, 54, 127
2, 287541, Note_on_c, 3, 75, 127
2, 287541, Note_on_c, 6, 54, 127
2, 287709, Note_off_c, 3, 75, 127
2, 287711, Note_on_c, 4, 76, 127
2, 287879, Note_off_c, 4, 76, 127
2, 287879, Note_off_c, 6, 54, 127
2, 287881, Note_on_c, 1, 73, 127
2, 287881, Note_on_c, 6, 54, 127
2, 288049, Note_off_c, 1, 73, 127
2, 288051, Note_on_c, 3, 75, 127
2, 288219, Note_off_c, 3, 75, 127
2, 288219, Note_off_c, 6, 54, 127
2, 288219, Note_off_c, 10, 69, 127
2, 288221, Note_on_c, 0, 72, 127
2, 288221, Note_on_c, 8, 68, 127
2, 288221, Note_on_c, 8, 56, 127
2, 288389, Note_off_c, 8, 56, 127
2, 288391, Note_on_c, 10, 57, 127
2, 288559, Note_off_c, 10, 57, 127
2, 288561, Note_on_c, 6, 54, 127
2, 288729, Note_off_c, 6, 54, 127
2, 288729, Note_off_c, 0, 72, 127
2, 288731, Note_on_c, 0, 72, 127
2, 288731, Note_on_c, 8, 56, 127
2, 288899, Note_off_c, 8, 56, 127
2, 288899, Note_off_c, 0, 72, 127
2, 288901, Note_on_c, 1, 73, 127
2, 288901, Note_on_c, 4, 52, 127
2, 289069, Note_off_c, 8, 68, 127
2, 289071, Note_on_c, 8, 68, 127
2, 289239, Note_off_c, 4, 52, 127
2, 289239, Note_off_c, 1, 73, 127
2, 289241, Note_on_c, 12, 71, 127
2, 289241, Note_on_c, 5, 53, 127
2, 289409, Note_off_c, 8, 68, 127
2, 289411, Note_on_c, 8, 68, 127
2, 289579, Note_off_c, 8, 68, 127
2, 289579, Note_off_c, 5, 53, 127
2, 289579, Note_off_c, 12, 71, 127
2, 289581, Note_on_c, 10, 69, 127
2, 289581, Note_on_c, 6, 66, 127
2, 289581, Note_on_c, 6, 54, 127
2, 289749, Note_off_c, 6, 54, 127
2, 289751, Note_on_c, 8, 56, 127
2, 289919, Note_off_c, 8, 56, 127
2, 289921, Note_on_c, 4, 52, 127
2, 290089, Note_off_c, 4, 52, 127
2, 290089, Note_off_c, 10, 69, 127
2, 290091, Note_on_c, 10, 69, 127
2, 290091, Note_on_c, 6, 54, 127
2, 290259, Note_off_c, 6, 54, 127
2, 290259, Note_off_c, 10, 69, 127
2, 290261, Note_on_c, 12, 71, 127
2, 290261, Note_on_c, 3, 51, 127
2, 290429, Note_off_c, 6, 66, 127
2, 290431, Note_on_c, 6, 66, 127
2, 290599, Note_off_c, 3, 51, 127
2, 290599, Note_off_c, 12, 71, 127
2, 290601, Note_on_c, 10, 69, 127
2, 290601, Note_on_c, 3, 51, 127
2, 290769, Note_off_c, 6, 66, 127
2, 290771, Note_on_c, 6, 66, 127
2, 290939, Note_off_c, 6, 66, 127
2, 290939, Note_off_c, 3, 51, 127
2, 290939, Note_off_c, 10, 69, 127
2, 290941, Note_on_c, 8, 68, 127
2, 290941, Note_on_c, 4, 64, 127
2, 290941, Note_on_c, 4, 52, 127
2, 291109, Note_off_c, 4, 52, 127
2, 291111, Note_on_c, 6, 54, 127
2, 291279, Note_off_c, 6, 54, 127
2, 291281, Note_on_c, 3, 51, 127
2, 291449, Note_off_c, 3, 51, 127
2, 291451, Note_on_c, 4, 52, 127
2, 291613, Note_off_c, 4, 64, 127
2, 291618, Note_off_c, 4, 52, 127
2, 291618, Note_off_c, 8, 68, 127
2, 291620, Note_on_c, 4, 76, 127
2, 291620, Note_on_c, 1, 49, 127
2, 291788, Note_off_c, 1, 49, 127
2, 291788, Note_off_c, 4, 76, 127
2, 291790, Note_on_c, 6, 78, 127
2, 291790, Note_on_c, 3, 51, 127
2, 291958, Note_off_c, 3, 51, 127
2, 291958, Note_off_c, 6, 78, 127
2, 291960, Note_on_c, 3, 75, 127
2, 291960, Note_on_c, 12, 47, 127
2, 292128, Note_off_c, 12, 47, 127
2, 292128, Note_off_c, 3, 75, 127
2, 292130, Note_on_c, 4, 76, 127
2, 292130, Note_on_c, 1, 49, 127
2, 292298, Note_off_c, 1, 49, 127
2, 292298, Note_off_c, 4, 76, 127
2, 292300, Note_on_c, 1, 73, 127
2, 292300, Note_on_c, 10, 45, 127
2, 292468, Note_off_c, 10, 45, 127
2, 292468, Note_off_c, 1, 73, 127
2, 292470, Note_on_c, 3, 75, 127
2, 292470, Note_on_c, 12, 47, 127
2, 292638, Note_off_c, 12, 47, 127
2, 292638, Note_off_c, 3, 75, 127
2, 292640, Note_on_c, 12, 71, 127
2, 292640, Note_on_c, 8, 44, 127
2, 292808, Note_off_c, 8, 44, 127
2, 292808, Note_off_c, 12, 71, 127
2, 292810, Note_on_c, 1, 73, 127
2, 292810, Note_on_c, 10, 45, 127
2, 292978, Note_off_c, 10, 45, 127
2, 292978, Note_off_c, 1, 73, 127
2, 292980, Note_on_c, 10, 69, 127
2, 292980, Note_on_c, 6, 42, 127
2, 293148, Note_off_c, 6, 42, 127
2, 293148, Note_off_c, 10, 69, 127
2, 293150, Note_on_c, 12, 71, 127
2, 293150, Note_on_c, 8, 44, 127
2, 293318, Note_off_c, 8, 44, 127
2, 293318, Note_off_c, 12, 71, 127
2, 293320, Note_on_c, 8, 68, 127
2, 293320, Note_on_c, 4, 40, 127
2, 293488, Note_off_c, 4, 40, 127
2, 293488, Note_off_c, 8, 68, 127
2, 293490, Note_on_c, 10, 69, 127
2, 293490, Note_on_c, 6, 42, 127
2, 293658, Note_off_c, 6, 42, 127
2, 293658, Note_off_c, 10, 69, 127
2, 293660, Note_on_c, 12, 71, 127
2, 293660, Note_on_c, 3, 39, 127
2, 293828, Note_off_c, 12, 71, 127
2, 293830, Note_on_c, 6, 66, 127
2, 293998, Note_off_c, 6, 66, 127
2, 293998, Note_off_c, 3, 39, 127
2, 294000, Note_on_c, 8, 68, 127
2, 294000, Note_on_c, 3, 51, 127
2, 294168, Note_off_c, 3, 51, 127
2, 294168, Note_off_c, 8, 68, 127
2, 294170, Note_on_c, 10, 69, 127
2, 294170, Note_on_c, 12, 47, 127
2, 294338, Note_off_c, 12, 47, 127
2, 294338, Note_off_c, 10, 69, 127
2, 294340, Note_on_c, 8, 68, 127
2, 294340, Note_on_c, 4, 52, 127
2, 294508, Note_off_c, 8, 68, 127
2, 294510, Note_on_c, 10, 69, 127
2, 294678, Note_off_c, 10, 69, 127
2, 294678, Note_off_c, 4, 52, 127
2, 294680, Note_on_c, 12, 71, 127
2, 294680, Note_on_c, 4, 40, 127
2, 294848, Note_off_c, 12, 71, 127
2, 294850, Note_on_c, 8, 68, 127
2, 295018, Note_off_c, 8, 68, 127
2, 295020, Note_on_c, 1, 73, 127
2, 295175, Note_off_c, 4, 40, 127
2, 295187, Note_off_c, 1, 73, 127
2, 295189, Note_on_c, 8, 68, 127
2, 295357, Note_off_c, 8, 68, 127
2, 295359, Note_on_c, 11, 70, 127
2, 295359, Note_on_c, 4, 52, 127
2, 295527, Note_off_c, 4, 52, 127
2, 295527, Note_off_c, 11, 70, 127
2, 295529, Note_on_c, 12, 71, 127
2, 295529, Note_on_c, 1, 49, 127
2, 295697, Note_off_c, 1, 49, 127
2, 295697, Note_off_c, 12, 71, 127
2, 295699, Note_on_c, 11, 70, 127
2, 295699, Note_on_c, 6, 54, 127
2, 295867, Note_off_c, 11, 70, 127
2, 295869, Note_on_c, 12, 71, 127
2, 296037, Note_off_c, 12, 71, 127
2, 296037, Note_off_c, 6, 54, 127
2, 296039, Note_on_c, 1, 73, 127
2, 296039, Note_on_c, 6, 42, 127
2, 296207, Note_off_c, 1, 73, 127
2, 296209, Note_on_c, 11, 70, 127
2, 296377, Note_off_c, 11, 70, 127
2, 296379, Note_on_c, 3, 75, 127
2, 296534, Note_off_c, 6, 42, 127
2, 296546, Note_off_c, 3, 75, 127
2, 296548, Note_on_c, 11, 70, 127
2, 296716, Note_off_c, 11, 70, 127
2, 296718, Note_on_c, 12, 71, 127
2, 296718, Note_on_c, 6, 54, 127
2, 296886, Note_off_c, 6, 54, 127
2, 296886, Note_off_c, 12, 71, 127
2, 296888, Note_on_c, 1, 73, 127
2, 296888, Note_on_c, 3, 51, 127
2, 297056, Note_off_c, 3, 51, 127
2, 297056, Note_off_c, 1, 73, 127
2, 297058, Note_on_c, 12, 71, 127
2, 297058, Note_on_c, 8, 56, 127
2, 297226, Note_off_c, 12, 71, 127
2, 297228, Note_on_c, 1, 73, 127
2, 297396, Note_off_c, 1, 73, 127
2, 297396, Note_off_c, 8, 56, 127
2, 297398, Note_on_c, 3, 75, 127
2, 297398, Note_on_c, 8, 44, 127
2, 297566, Note_off_c, 3, 75, 127
2, 297568, Note_on_c, 12, 71, 127
2, 297736, Note_off_c, 12, 71, 127
2, 297738, Note_on_c, 4, 76, 127
2, 297893, Note_off_c, 8, 44, 127
2, 297905, Note_off_c, 4, 76, 127
2, 297907, Note_on_c, 12, 71, 127
2, 298075, Note_off_c, 12, 71, 127
2, 298077, Note_on_c, 1, 73, 127
2, 298077, Note_on_c, 8, 56, 127
2, 298245, Note_off_c, 8, 56, 127
2, 298245, Note_off_c, 1, 73, 127
2, 298247, Note_on_c, 3, 75, 127
2, 298247, Note_on_c, 4, 52, 127
2, 298415, Note_off_c, 4, 52, 127
2, 298415, Note_off_c, 3, 75, 127
2, 298417, Note_on_c, 1, 73, 127
2, 298417, Note_on_c, 10, 57, 127
2, 298585, Note_off_c, 1, 73, 127
2, 298587, Note_on_c, 3, 75, 127
2, 298755, Note_off_c, 3, 75, 127
2, 298755, Note_off_c, 10, 57, 127
2, 298757, Note_on_c, 4, 76, 127
2, 298757, Note_on_c, 10, 45, 127
2, 298925, Note_off_c, 4, 76, 127
2, 298927, Note_on_c, 1, 73, 127
2, 299095, Note_off_c, 1, 73, 127
2, 299097, Note_on_c, 10, 81, 127
2, 299265, Note_off_c, 10, 81, 127
2, 299267, Note_on_c, 12, 83, 127
2, 299435, Note_off_c, 12, 83, 127
2, 299435, Note_off_c, 10, 45, 127
2, 299437, Note_on_c, 10, 81, 127
2, 299437, Note_on_c, 6, 54, 127
2, 299605, Note_off_c, 10, 81, 127
2, 299607, Note_on_c, 8, 80, 127
2, 299775, Note_off_c, 8, 80, 127
2, 299775, Note_off_c, 6, 54, 127
2, 299777, Note_on_c, 6, 78, 127
2, 299777, Note_on_c, 8, 56, 127
2, 299945, Note_off_c, 6, 78, 127
2, 299947, Note_on_c, 4, 76, 127
2, 300115, Note_off_c, 4, 76, 127
2, 300115, Note_off_c, 8, 56, 127
2, 300117, Note_on_c, 3, 75, 127
2, 300117, Note_on_c, 10, 57, 127
2, 300285, Note_off_c, 3, 75, 127
2, 300287, Note_on_c, 4, 76, 127
2, 300455, Note_off_c, 4, 76, 127
2, 300455, Note_off_c, 10, 57, 127
2, 300457, Note_on_c, 12, 71, 127
2, 300457, Note_on_c, 8, 56, 127
2, 300794, Note_off_c, 8, 56, 127
2, 300796, Note_on_c, 4, 76, 127
2, 300796, Note_on_c, 6, 54, 127
2, 300881, Note_off_c, 12, 71, 127
2, 300964, Note_off_c, 6, 54, 127
2, 300964, Note_off_c, 4, 76, 127
2, 300966, Note_on_c, 8, 68, 127
2, 300966, Note_on_c, 4, 52, 127
2, 301134, Note_off_c, 4, 52, 127
2, 301134, Note_off_c, 8, 68, 127
2, 301136, Note_on_c, 8, 68, 127
2, 301136, Note_on_c, 12, 59, 127
2, 301304, Note_off_c, 8, 68, 127
2, 301306, Note_on_c, 8, 68, 127
2, 301389, Note_off_c, 8, 68, 127
2, 301391, Note_on_c, 6, 66, 127
2, 301474, Note_off_c, 6, 66, 127
2, 301474, Note_off_c, 12, 59, 127
2, 301476, Note_on_c, 8, 68, 127
2, 301476, Note_on_c, 12, 47, 127
2, 301559, Note_off_c, 8, 68, 127
2, 301561, Note_on_c, 6, 66, 127
2, 301644, Note_off_c, 6, 66, 127
2, 301646, Note_on_c, 4, 64, 127
2, 301812, Note_off_c, 12, 47, 127
2, 301814, Note_off_c, 4, 64, 127
2, 301816, Note_on_c, 4, 64, 127
2, 301985, Note_on_c, 4, 52, 127
2, 302153, Note_off_c, 4, 52, 127
2, 302153, Note_off_c, 4, 64, 127
2, 302155, Note_on_c, 12, 71, 127
2, 302155, Note_on_c, 4, 76, 127
2, 302155, Note_on_c, 8, 68, 127
2, 302155, Note_on_c, 8, 56, 127
2, 302323, Note_off_c, 8, 56, 127
2, 302325, Note_on_c, 4, 52, 127
2, 302493, Note_off_c, 4, 52, 127
2, 302493, Note_off_c, 8, 68, 127
2, 302495, Note_on_c, 6, 66, 127
2, 302495, Note_on_c, 12, 59, 127
2, 302663, Note_off_c, 12, 59, 127
2, 302665, Note_on_c, 12, 47, 127
2, 302833, Note_off_c, 12, 47, 127
2, 302833, Note_off_c, 4, 76, 127
2, 302835, Note_on_c, 3, 75, 127
2, 302835, Note_on_c, 3, 51, 127
2, 303003, Note_off_c, 3, 51, 127
2, 303005, Note_on_c, 12, 47, 127
2, 303173, Note_off_c, 12, 47, 127
2, 303173, Note_off_c, 6, 66, 127
2, 303175, Note_on_c, 8, 68, 127
2, 303175, Note_on_c, 4, 52, 127
2, 303512, Note_off_c, 4, 52, 127
2, 303514, Note_on_c, 4, 52, 127
2, 303851, Note_off_c, 4, 52, 127
2, 303851, Note_off_c, 8, 68, 127
2, 303851, Note_off_c, 3, 75, 127
2, 303853, Note_off_c, 12, 71, 127
2, 303853, Note_on_c, 1, 73, 127
2, 303853, Note_on_c, 4, 64, 127
2, 303853, Note_on_c, 8, 68, 127
2, 303853, Note_on_c, 4, 52, 127
2, 304190, Note_off_c, 4, 52, 127
2, 304192, Note_on_c, 4, 52, 127
2, 304524, Note_off_c, 8, 68, 127
2, 304529, Note_off_c, 4, 52, 127
2, 304529, Note_off_c, 1, 73, 127
2, 304531, Note_on_c, 10, 69, 127
2, 304531, Note_on_c, 6, 78, 127
2, 304531, Note_on_c, 6, 54, 127
2, 304868, Note_off_c, 6, 54, 127
2, 304868, Note_off_c, 4, 64, 127
2, 304870, Note_on_c, 3, 63, 127
2, 304870, Note_on_c, 10, 57, 127
2, 305038, Note_off_c, 10, 57, 127
2, 305040, Note_on_c, 8, 56, 127
2, 305208, Note_off_c, 8, 56, 127
2, 305208, Note_off_c, 3, 63, 127
2, 305208, Note_off_c, 6, 78, 127
2, 305210, Note_on_c, 6, 78, 127
2, 305210, Note_on_c, 3, 63, 127
2, 305210, Note_on_c, 6, 54, 127
2, 305547, Note_off_c, 6, 54, 127
2, 305547, Note_off_c, 3, 63, 127
2, 305547, Note_off_c, 10, 69, 127
2, 305549, Note_on_c, 12, 71, 127
2, 305549, Note_on_c, 12, 59, 127
2, 305717, Note_off_c, 12, 59, 127
2, 305719, Note_on_c, 10, 57, 127
2, 305881, Note_off_c, 6, 78, 127
2, 305886, Note_off_c, 10, 57, 127
2, 305886, Note_off_c, 12, 71, 127
2, 305888, Note_on_c, 12, 71, 127
2, 305888, Note_on_c, 8, 80, 127
2, 305888, Note_on_c, 4, 64, 127
2, 305888, Note_on_c, 8, 56, 127
2, 306225, Note_off_c, 8, 56, 127
2, 306227, Note_on_c, 12, 59, 127
2, 306395, Note_off_c, 12, 59, 127
2, 306397, Note_on_c, 10, 57, 127
2, 306565, Note_off_c, 10, 57, 127
2, 306567, Note_on_c, 8, 56, 127
2, 306736, Note_off_c, 4, 64, 127
2, 306736, Note_off_c, 12, 71, 127
2, 306904, Note_off_c, 8, 56, 127
2, 306904, Note_off_c, 8, 80, 127
2, 306906, Note_on_c, 1, 73, 127
2, 306906, Note_on_c, 4, 76, 127
2, 306906, Note_on_c, 4, 64, 127
2, 306906, Note_on_c, 1, 61, 127
2, 307074, Note_off_c, 1, 61, 127
2, 307076, Note_on_c, 12, 59, 127
2, 307244, Note_off_c, 12, 59, 127
2, 307244, Note_off_c, 4, 64, 127
2, 307244, Note_off_c, 4, 76, 127
2, 307244, Note_off_c, 1, 73, 127
2, 307246, Note_on_c, 4, 76, 127
2, 307246, Note_on_c, 4, 64, 127
2, 307246, Note_on_c, 1, 73, 127
2, 307246, Note_on_c, 11, 58, 127
2, 307414, Note_off_c, 11, 58, 127
2, 307416, Note_on_c, 8, 56, 127
2, 307584, Note_off_c, 8, 56, 127
2, 307586, Note_on_c, 11, 58, 127
2, 307754, Note_off_c, 11, 58, 127
2, 307756, Note_on_c, 6, 54, 127
2, 307924, Note_off_c, 6, 54, 127
2, 307924, Note_off_c, 1, 73, 127
2, 307924, Note_off_c, 4, 64, 127
2, 307924, Note_off_c, 4, 76, 127
2, 307926, Note_on_c, 12, 71, 127
2, 307926, Note_on_c, 3, 75, 127
2, 307926, Note_on_c, 6, 66, 127
2, 307926, Note_on_c, 12, 59, 127
2, 308263, Note_off_c, 12, 59, 127
2, 308263, Note_off_c, 6, 66, 127
2, 308265, Note_on_c, 4, 64, 127
2, 308265, Note_on_c, 8, 56, 127
2, 308602, Note_off_c, 8, 56, 127
2, 308602, Note_off_c, 3, 75, 127
2, 308602, Note_off_c, 12, 71, 127
2, 308604, Note_on_c, 6, 66, 127
2, 308604, Note_on_c, 1, 73, 127
2, 308604, Note_on_c, 11, 46, 127
2, 308941, Note_off_c, 11, 46, 127
2, 308941, Note_off_c, 1, 73, 127
2, 308941, Note_off_c, 4, 64, 127
2, 308943, Note_on_c, 12, 71, 127
2, 308943, Note_on_c, 3, 63, 127
2, 308943, Note_on_c, 12, 47, 127
2, 309275, Note_off_c, 6, 66, 127
2, 309280, Note_off_c, 12, 47, 127
2, 309280, Note_off_c, 3, 63, 127
2, 309280, Note_off_c, 12, 71, 127
2, 309282, Note_on_c, 1, 73, 127
2, 309282, Note_on_c, 4, 64, 127
2, 309282, Note_on_c, 8, 68, 127
2, 309282, Note_on_c, 12, 47, 127
2, 309619, Note_off_c, 8, 68, 127
2, 309619, Note_off_c, 4, 64, 127
2, 309621, Note_on_c, 6, 66, 127
2, 309789, Note_off_c, 12, 47, 127
2, 309791, Note_on_c, 11, 46, 127
2, 309953, Note_off_c, 1, 73, 127
2, 309958, Note_off_c, 11, 46, 127
2, 309958, Note_off_c, 6, 66, 127
2, 309960, Note_on_c, 6, 66, 127
2, 309960, Note_on_c, 3, 63, 127
2, 309960, Note_on_c, 12, 59, 127
2, 309960, Note_on_c, 12, 47, 127
2, 310128, Note_off_c, 12, 47, 127
2, 310130, Note_on_c, 1, 49, 127
2, 310298, Note_off_c, 1, 49, 127
2, 310300, Note_on_c, 12, 47, 127
2, 310468, Note_off_c, 12, 47, 127
2, 310470, Note_on_c, 10, 45, 127
2, 310632, Note_off_c, 3, 63, 127
2, 310632, Note_off_c, 6, 66, 127
2, 310637, Note_off_c, 10, 45, 127
2, 310639, Note_on_c, 8, 44, 127
2, 310807, Note_off_c, 8, 44, 127
2, 310809, Note_off_c, 12, 59, 127
2, 310809, Note_on_c, 4, 52, 127
2, 310978, Note_on_c, 6, 42, 127
2, 311109, Note_off_c, 4, 52, 127
2, 311146, Note_off_c, 6, 42, 127
2, 311148, Note_on_c, 3, 51, 127
2, 311293, Note_off_c, 3, 51, 127
2, 311318, Note_on_c, 4, 40, 127
2, 311487, Note_on_c, 4, 64, 127
2, 311655, Note_off_c, 4, 64, 127
2, 311655, Note_off_c, 4, 40, 127
2, 311657, Note_on_c, 8, 68, 127
2, 311657, Note_on_c, 8, 56, 127
2, 311657, Note_on_c, 12, 59, 127
2, 311657, Note_on_c, 4, 52, 127
2, 311825, Note_off_c, 8, 68, 127
2, 311827, Note_on_c, 4, 64, 127
2, 311995, Note_off_c, 4, 64, 127
2, 311995, Note_off_c, 8, 56, 127
2, 311997, Note_on_c, 12, 71, 127
2, 311997, Note_on_c, 6, 54, 127
2, 312152, Note_off_c, 12, 59, 127
2, 312164, Note_off_c, 12, 71, 127
2, 312166, Note_on_c, 12, 59, 127
2, 312334, Note_off_c, 4, 52, 127
2, 312336, Note_on_c, 3, 63, 127
2, 312336, Note_on_c, 3, 51, 127
2, 312502, Note_off_c, 12, 59, 127
2, 312504, Note_off_c, 3, 63, 127
2, 312506, Note_on_c, 12, 59, 127
2, 312674, Note_off_c, 12, 59, 127
2, 312674, Note_off_c, 6, 54, 127
2, 312676, Note_on_c, 4, 64, 127
2, 312676, Note_on_c, 8, 56, 127
2, 313013, Note_off_c, 4, 64, 127
2, 313015, Note_on_c, 4, 64, 127
2, 313352, Note_off_c, 4, 64, 127
2, 313352, Note_off_c, 8, 56, 127
2, 313352, Note_off_c, 3, 51, 127
2, 313354, Note_on_c, 4, 64, 127
2, 313354, Note_on_c, 4, 52, 127
2, 313354, Note_on_c, 1, 49, 127
2, 313691, Note_off_c, 4, 64, 127
2, 313693, Note_on_c, 4, 64, 127
2, 314030, Note_off_c, 4, 64, 127
2, 314030, Note_off_c, 1, 49, 127
2, 314032, Note_on_c, 6, 66, 127
2, 314032, Note_on_c, 1, 61, 127
2, 314032, Note_on_c, 10, 45, 127
2, 314369, Note_off_c, 1, 61, 127
2, 314369, Note_off_c, 6, 66, 127
2, 314371, Note_on_c, 10, 69, 127
2, 314371, Note_on_c, 6, 54, 127
2, 314539, Note_off_c, 10, 69, 127
2, 314541, Note_on_c, 8, 68, 127
2, 314709, Note_off_c, 8, 68, 127
2, 314709, Note_off_c, 6, 54, 127
2, 314709, Note_off_c, 10, 45, 127
2, 314711, Note_on_c, 6, 66, 127
2, 314711, Note_on_c, 12, 59, 127
2, 314711, Note_on_c, 12, 47, 127
2, 315048, Note_off_c, 6, 66, 127
2, 315050, Note_off_c, 4, 52, 127
2, 315050, Note_on_c, 12, 71, 127
2, 315050, Note_on_c, 3, 51, 127
2, 315218, Note_off_c, 12, 71, 127
2, 315220, Note_on_c, 10, 69, 127
2, 315388, Note_off_c, 10, 69, 127
2, 315388, Note_off_c, 3, 51, 127
2, 315388, Note_off_c, 12, 47, 127
2, 315390, Note_on_c, 8, 68, 127
2, 315390, Note_on_c, 4, 52, 127
2, 315390, Note_on_c, 4, 40, 127
2, 315727, Note_off_c, 8, 68, 127
2, 315729, Note_on_c, 12, 71, 127
2, 315897, Note_off_c, 12, 71, 127
2, 315899, Note_on_c, 10, 69, 127
2, 316067, Note_off_c, 10, 69, 127
2, 316067, Note_off_c, 12, 59, 127
2, 316069, Note_on_c, 8, 68, 127
2, 316238, Note_off_c, 4, 40, 127
2, 316238, Note_off_c, 4, 52, 127
2, 316406, Note_off_c, 8, 68, 127
2, 316408, Note_on_c, 1, 73, 127
2, 316408, Note_on_c, 1, 61, 127
2, 316408, Note_on_c, 6, 66, 127
2, 316408, Note_on_c, 4, 52, 127
2, 316576, Note_off_c, 1, 73, 127
2, 316578, Note_on_c, 12, 71, 127
2, 316746, Note_off_c, 12, 71, 127
2, 316746, Note_off_c, 4, 52, 127
2, 316746, Note_off_c, 6, 66, 127
2, 316746, Note_off_c, 1, 61, 127
2, 316748, Note_on_c, 11, 70, 127
2, 316748, Note_on_c, 6, 66, 127
2, 316748, Note_on_c, 1, 61, 127
2, 316748, Note_on_c, 4, 52, 127
2, 316916, Note_off_c, 11, 70, 127
2, 316918, Note_on_c, 8, 68, 127
2, 317086, Note_off_c, 8, 68, 127
2, 317088, Note_on_c, 11, 70, 127
2, 317243, Note_off_c, 6, 66, 127
2, 317255, Note_off_c, 11, 70, 127
2, 317257, Note_on_c, 6, 66, 127
2, 317425, Note_off_c, 6, 66, 127
2, 317425, Note_off_c, 4, 52, 127
2, 317425, Note_off_c, 1, 61, 127
2, 317427, Note_on_c, 12, 71, 127
2, 317427, Note_on_c, 12, 59, 127
2, 317427, Note_on_c, 3, 51, 127
2, 317764, Note_off_c, 3, 51, 127
2, 317764, Note_off_c, 12, 71, 127
2, 317766, Note_on_c, 8, 80, 127
2, 317766, Note_on_c, 4, 64, 127
2, 317766, Note_on_c, 4, 52, 127
2, 318098, Note_off_c, 12, 59, 127
2, 318103, Note_off_c, 4, 64, 127
2, 318103, Note_off_c, 8, 80, 127
2, 318105, Note_on_c, 11, 70, 127
2, 318105, Note_on_c, 6, 66, 127
2, 318105, Note_on_c, 1, 61, 127
2, 318442, Note_off_c, 1, 61, 127
2, 318442, Note_off_c, 11, 70, 127
2, 318442, Note_off_c, 4, 52, 127
2, 318444, Note_on_c, 12, 71, 127
2, 318444, Note_on_c, 12, 59, 127
2, 318444, Note_on_c, 3, 51, 127
2, 318776, Note_off_c, 6, 66, 127
2, 318781, Note_off_c, 3, 51, 127
2, 318781, Note_off_c, 12, 71, 127
2, 318783, Note_on_c, 1, 73, 127
2, 318783, Note_on_c, 4, 76, 127
2, 318783, Note_on_c, 1, 49, 127
2, 319120, Note_off_c, 12, 59, 127
2, 319122, Note_on_c, 11, 58, 127
2, 319290, Note_off_c, 4, 76, 127
2, 319290, Note_off_c, 1, 73, 127
2, 319292, Note_on_c, 3, 75, 127
2, 319460, Note_off_c, 3, 75, 127
2, 319460, Note_off_c, 11, 58, 127
2, 319460, Note_off_c, 1, 49, 127
2, 319462, Note_on_c, 6, 66, 127
2, 319462, Note_on_c, 3, 75, 127
2, 319462, Note_on_c, 12, 59, 127
2, 319462, Note_on_c, 12, 47, 127
2, 319630, Note_off_c, 12, 47, 127
2, 319632, Note_on_c, 6, 54, 127
2, 319800, Note_off_c, 6, 54, 127
2, 319802, Note_on_c, 8, 56, 127
2, 319970, Note_off_c, 8, 56, 127
2, 319972, Note_on_c, 10, 57, 127
2, 320064, Note_off_c, 12, 59, 127
2, 320135, Note_off_c, 6, 66, 127
2, 320140, Note_off_c, 10, 57, 127
2, 320142, Note_on_c, 12, 59, 127
2, 320310, Note_off_c, 3, 75, 127
2, 320312, Note_on_c, 3, 75, 127
2, 320480, Note_off_c, 3, 75, 127
2, 320482, Note_on_c, 1, 73, 127
2, 320482, Note_on_c, 12, 47, 127
2, 320650, Note_off_c, 1, 73, 127
2, 320652, Note_on_c, 12, 71, 127
2, 320814, Note_off_c, 12, 59, 127
2, 320819, Note_off_c, 12, 71, 127
2, 320819, Note_off_c, 12, 47, 127
2, 320821, Note_on_c, 4, 64, 127
2, 320821, Note_on_c, 12, 71, 127
2, 320821, Note_on_c, 4, 76, 127
2, 320821, Note_on_c, 8, 68, 127
2, 320821, Note_on_c, 8, 44, 127
2, 320989, Note_off_c, 8, 44, 127
2, 320991, Note_on_c, 12, 59, 127
2, 321159, Note_off_c, 12, 59, 127
2, 321161, Note_on_c, 1, 61, 127
2, 321316, Note_off_c, 4, 64, 127
2, 321328, Note_off_c, 1, 61, 127
2, 321330, Note_on_c, 3, 63, 127
2, 321498, Note_off_c, 3, 63, 127
2, 321500, Note_on_c, 4, 64, 127
2, 321837, Note_off_c, 4, 64, 127
2, 321837, Note_off_c, 8, 68, 127
2, 321837, Note_off_c, 4, 76, 127
2, 321837, Note_off_c, 12, 71, 127
2, 321855, Note_on_c, 8, 44, 127
2, 321855, Note_on_c, 4, 52, 127
2, 321855, Note_on_c, 12, 47, 127
2, 321855, Note_on_c, 2, 74, 127
2, 321855, Note_on_c, 12, 71, 127
2, 321855, Note_on_c, 4, 64, 127
2, 322213, Note_off_c, 4, 64, 127
2, 322213, Note_off_c, 12, 71, 127
2, 322213, Note_off_c, 2, 74, 127
2, 322213, Note_off_c, 12, 47, 127
2, 322213, Note_off_c, 4, 52, 127
2, 322213, Note_off_c, 8, 44, 127
2, 322231, Note_on_c, 0, 72, 127
2, 322231, Note_on_c, 4, 64, 127
2, 322231, Note_on_c, 4, 52, 127
2, 322231, Note_on_c, 10, 57, 127
2, 322231, Note_on_c, 10, 45, 127
2, 322231, Note_on_c, 0, 48, 127
2, 322949, Note_off_c, 4, 64, 127
2, 322949, Note_off_c, 0, 72, 127
2, 322951, Note_on_c, 10, 69, 127
2, 323309, Note_off_c, 10, 69, 127
2, 323311, Note_on_c, 7, 67, 127
2, 323489, Note_off_c, 7, 67, 127
2, 323491, Note_on_c, 6, 66, 127
2, 323669, Note_off_c, 6, 66, 127
2, 323669, Note_off_c, 0, 48, 127
2, 323669, Note_off_c, 10, 45, 127
2, 323669, Note_off_c, 10, 57, 127
2, 323669, Note_off_c, 4, 52, 127
2, 323671, Note_on_c, 12, 71, 127
2, 323671, Note_on_c, 12, 59, 127
2, 323671, Note_on_c, 3, 63, 127
2, 323671, Note_on_c, 6, 66, 127
2, 323671, Note_on_c, 3, 51, 127
2, 323671, Note_on_c, 6, 54, 127
2, 323671, Note_on_c, 12, 47, 127
2, 323671, Note_on_c, 10, 45, 127
2, 324749, Note_off_c, 10, 45, 127
2, 324749, Note_off_c, 12, 47, 127
2, 324749, Note_off_c, 6, 54, 127
2, 324749, Note_off_c, 3, 51, 127
2, 324749, Note_off_c, 6, 66, 127
2, 324749, Note_off_c, 3, 63, 127
2, 324749, Note_off_c, 12, 59, 127
2, 324749, Note_off_c, 12, 71, 127
2, 325151, Note_on_c, 6, 78, 127
2, 325310, Note_on_c, 12, 83, 127
2, 325338, Note_off_c, 6, 78, 127
2, 325437, Note_off_c, 12, 83, 127
2, 325438, Note_on_c, 6, 78, 127
2, 325565, Note_off_c, 6, 78, 127
2, 325566, Note_on_c, 3, 75, 127
2, 325693, Note_off_c, 3, 75, 127
2, 325694, Note_on_c, 6, 78, 127
2, 325821, Note_off_c, 6, 78, 127
2, 325822, Note_on_c, 3, 75, 127
2, 325949, Note_off_c, 3, 75, 127
2, 325950, Note_on_c, 12, 71, 127
2, 326077, Note_off_c, 12, 71, 127
2, 326078, Note_on_c, 3, 75, 127
2, 326205, Note_off_c, 3, 75, 127
2, 326206, Note_on_c, 12, 71, 127
2, 326333, Note_off_c, 12, 71, 127
2, 326334, Note_on_c, 6, 66, 127
2, 326461, Note_off_c, 6, 66, 127
2, 326462, Note_on_c, 12, 71, 127
2, 326589, Note_off_c, 12, 71, 127
2, 326590, Note_on_c, 6, 66, 127
2, 326717, Note_off_c, 6, 66, 127
2, 326718, Note_on_c, 3, 63, 127
2, 326845, Note_off_c, 3, 63, 127
2, 326846, Note_on_c, 6, 66, 127
2, 326973, Note_off_c, 6, 66, 127
2, 326974, Note_on_c, 3, 63, 127
2, 327101, Note_off_c, 3, 63, 127
2, 327102, Note_on_c, 12, 59, 127
2, 327229, Note_off_c, 12, 59, 127
2, 327230, Note_on_c, 3, 63, 127
2, 327357, Note_off_c, 3, 63, 127
2, 327358, Note_on_c, 12, 59, 127
2, 327485, Note_off_c, 12, 59, 127
2, 327486, Note_on_c, 6, 54, 127
2, 327613, Note_off_c, 6, 54, 127
2, 327614, Note_on_c, 12, 59, 127
2, 327741, Note_off_c, 12, 59, 127
2, 327742, Note_on_c, 6, 54, 127
2, 327869, Note_off_c, 6, 54, 127
2, 327870, Note_on_c, 3, 51, 127
2, 327997, Note_off_c, 3, 51, 127
2, 327998, Note_on_c, 6, 54, 127
2, 328125, Note_off_c, 6, 54, 127
2, 328142, Note_on_c, 4, 64, 127
2, 328142, Note_on_c, 12, 71, 127
2, 328142, Note_on_c, 4, 76, 127
2, 328142, Note_on_c, 8, 68, 127
2, 328142, Note_on_c, 12, 47, 127
2, 328142, Note_on_c, 4, 52, 127
2, 328142, Note_on_c, 8, 56, 127
2, 328142, Note_on_c, 8, 44, 127
2, 329050, Note_off_c, 8, 44, 127
2, 329050, Note_off_c, 8, 56, 127
2, 329050, Note_off_c, 4, 52, 127
2, 329050, Note_off_c, 12, 47, 127
2, 329050, Note_off_c, 8, 68, 127
2, 329050, Note_off_c, 4, 76, 127
2, 329050, Note_off_c, 12, 71, 127
2, 329050, Note_off_c, 4, 64, 127
2, 329506, Note_on_c, 4, 64, 127
2, 329656, Note_off_c, 4, 64, 127
2, 329658, Note_on_c, 6, 66, 127
2, 329808, Note_off_c, 6, 66, 127
2, 329810, Note_on_c, 8, 68, 127
2, 329960, Note_off_c, 8, 68, 127
2, 329962, Note_on_c, 10, 69, 127
2, 330112, Note_off_c, 10, 69, 127
2, 330114, Note_on_c, 12, 71, 127
2, 330264, Note_off_c, 12, 71, 127
2, 330266, Note_on_c, 1, 73, 127
2, 330416, Note_off_c, 1, 73, 127
2, 330418, Note_on_c, 3, 75, 127
2, 330568, Note_off_c, 3, 75, 127
2, 330570, Note_on_c, 4, 76, 127
2, 330570, Note_on_c, 8, 44, 127
2, 330720, Note_off_c, 4, 76, 127
2, 330722, Note_on_c, 8, 80, 127
2, 330872, Note_off_c, 8, 80, 127
2, 330874, Note_on_c, 4, 76, 127
2, 331024, Note_off_c, 4, 76, 127
2, 331026, Note_on_c, 12, 71, 127
2, 331171, Note_off_c, 8, 44, 127
2, 331176, Note_off_c, 12, 71, 127
2, 331178, Note_on_c, 8, 68, 127
2, 331328, Note_off_c, 8, 68, 127
2, 331330, Note_on_c, 12, 71, 127
2, 331480, Note_off_c, 12, 71, 127
2, 331482, Note_on_c, 8, 68, 127
2, 331632, Note_off_c, 8, 68, 127
2, 331634, Note_on_c, 4, 64, 127
2, 331784, Note_off_c, 4, 64, 127
2, 331786, Note_on_c, 4, 76, 127
2, 331786, Note_on_c, 10, 45, 127
2, 331938, Note_on_c, 8, 80, 127
2, 332086, Note_off_c, 4, 76, 127
2, 332088, Note_off_c, 8, 80, 127
2, 332090, Note_on_c, 4, 76, 127
2, 332240, Note_off_c, 4, 76, 127
2, 332242, Note_on_c, 12, 71, 127
2, 332387, Note_off_c, 10, 45, 127
2, 332392, Note_off_c, 12, 71, 127
2, 332394, Note_on_c, 8, 68, 127
2, 332544, Note_off_c, 8, 68, 127
2, 332546, Note_on_c, 12, 71, 127
2, 332696, Note_off_c, 12, 71, 127
2, 332698, Note_on_c, 8, 68, 127
2, 332848, Note_off_c, 8, 68, 127
2, 332850, Note_on_c, 4, 64, 127
2, 333000, Note_off_c, 4, 64, 127
2, 333002, Note_on_c, 4, 76, 127
2, 333002, Note_on_c, 12, 47, 127
2, 333154, Note_on_c, 8, 80, 127
2, 333302, Note_off_c, 4, 76, 127
2, 333304, Note_off_c, 8, 80, 127
2, 333306, Note_on_c, 4, 76, 127
2, 333458, Note_on_c, 12, 71, 127
2, 333527, Note_off_c, 4, 76, 127
2, 333603, Note_off_c, 12, 47, 127
2, 333608, Note_off_c, 12, 71, 127
2, 333610, Note_on_c, 8, 68, 127
2, 333760, Note_off_c, 8, 68, 127
2, 333762, Note_on_c, 12, 71, 127
2, 333912, Note_off_c, 12, 71, 127
2, 333914, Note_on_c, 8, 68, 127
2, 334064, Note_off_c, 8, 68, 127
2, 334066, Note_on_c, 4, 64, 127
2, 334216, Note_off_c, 4, 64, 127
2, 334218, Note_on_c, 4, 76, 127
2, 334218, Note_on_c, 1, 49, 127
2, 334370, Note_on_c, 8, 80, 127
2, 334518, Note_off_c, 4, 76, 127
2, 334520, Note_off_c, 8, 80, 127
2, 334522, Note_on_c, 4, 76, 127
2, 334674, Note_on_c, 12, 71, 127
2, 334775, Note_off_c, 4, 76, 127
2, 334819, Note_off_c, 1, 49, 127
2, 334824, Note_off_c, 12, 71, 127
2, 334826, Note_on_c, 8, 68, 127
2, 334978, Note_on_c, 12, 71, 127
2, 335054, Note_off_c, 8, 68, 127
2, 335128, Note_off_c, 12, 71, 127
2, 335130, Note_on_c, 8, 68, 127
2, 335280, Note_off_c, 8, 68, 127
2, 335282, Note_on_c, 4, 64, 127
2, 335432, Note_off_c, 4, 64, 127
2, 335434, Note_on_c, 4, 76, 127
2, 335434, Note_on_c, 6, 42, 127
2, 335586, Note_on_c, 11, 82, 127
2, 335734, Note_off_c, 4, 76, 127
2, 335736, Note_off_c, 11, 82, 127
2, 335738, Note_on_c, 4, 76, 127
2, 335890, Note_on_c, 1, 73, 127
2, 336035, Note_off_c, 6, 42, 127
2, 336038, Note_off_c, 4, 76, 127
2, 336040, Note_off_c, 1, 73, 127
2, 336042, Note_on_c, 11, 70, 127
2, 336194, Note_on_c, 1, 73, 127
2, 336342, Note_off_c, 11, 70, 127
2, 336345, Note_on_c, 11, 70, 127
2, 336493, Note_off_c, 1, 73, 127
2, 336495, Note_off_c, 11, 70, 127
2, 336497, Note_on_c, 6, 66, 127
2, 336647, Note_off_c, 6, 66, 127
2, 336649, Note_on_c, 3, 75, 127
2, 336649, Note_on_c, 12, 47, 127
2, 336801, Note_on_c, 10, 81, 127
2, 336949, Note_off_c, 3, 75, 127
2, 336952, Note_on_c, 3, 75, 127
2, 337100, Note_off_c, 10, 81, 127
2, 337102, Note_off_c, 3, 75, 127
2, 337104, Note_on_c, 12, 71, 127
2, 337249, Note_off_c, 12, 47, 127
2, 337255, Note_on_c, 6, 66, 127
2, 337403, Note_off_c, 12, 71, 127
2, 337406, Note_on_c, 12, 71, 127
2, 337554, Note_off_c, 6, 66, 127
2, 337556, Note_off_c, 12, 71, 127
2, 337558, Note_on_c, 6, 66, 127
2, 337708, Note_off_c, 6, 66, 127
2, 337710, Note_on_c, 3, 63, 127
2, 337860, Note_off_c, 3, 63, 127
2, 337862, Note_on_c, 2, 74, 127
2, 337862, Note_on_c, 4, 52, 127
2, 338014, Note_on_c, 8, 80, 127
2, 338162, Note_off_c, 2, 74, 127
2, 338164, Note_off_c, 8, 80, 127
2, 338166, Note_on_c, 2, 74, 127
2, 338318, Note_on_c, 12, 71, 127
2, 338463, Note_off_c, 4, 52, 127
2, 338466, Note_off_c, 2, 74, 127
2, 338468, Note_off_c, 12, 71, 127
2, 338470, Note_on_c, 8, 68, 127
2, 338622, Note_on_c, 12, 71, 127
2, 338770, Note_off_c, 8, 68, 127
2, 338772, Note_off_c, 12, 71, 127
2, 338774, Note_on_c, 8, 68, 127
2, 338924, Note_off_c, 8, 68, 127
2, 338926, Note_on_c, 4, 64, 127
2, 339076, Note_off_c, 4, 64, 127
2, 339078, Note_on_c, 1, 73, 127
2, 339078, Note_on_c, 10, 45, 127
2, 339230, Note_on_c, 7, 79, 127
2, 339378, Note_off_c, 1, 73, 127
2, 339380, Note_off_c, 7, 79, 127
2, 339382, Note_on_c, 1, 73, 127
2, 339534, Note_on_c, 10, 69, 127
2, 339679, Note_off_c, 10, 45, 127
2, 339682, Note_off_c, 1, 73, 127
2, 339684, Note_off_c, 10, 69, 127
2, 339686, Note_on_c, 4, 64, 127
2, 339838, Note_on_c, 10, 69, 127
2, 339986, Note_off_c, 4, 64, 127
2, 339988, Note_off_c, 10, 69, 127
2, 339990, Note_on_c, 4, 64, 127
2, 340140, Note_off_c, 4, 64, 127
2, 340142, Note_on_c, 1, 61, 127
2, 340292, Note_off_c, 1, 61, 127
2, 340294, Note_on_c, 0, 72, 127
2, 340294, Note_on_c, 3, 39, 127
2, 340444, Note_off_c, 0, 72, 127
2, 340446, Note_on_c, 6, 78, 127
2, 340596, Note_off_c, 6, 78, 127
2, 340598, Note_on_c, 0, 72, 127
2, 340748, Note_off_c, 0, 72, 127
2, 340750, Note_on_c, 10, 69, 127
2, 340895, Note_off_c, 3, 39, 127
2, 340900, Note_off_c, 10, 69, 127
2, 340902, Note_on_c, 6, 66, 127
2, 341052, Note_off_c, 6, 66, 127
2, 341054, Note_on_c, 10, 69, 127
2, 341204, Note_off_c, 10, 69, 127
2, 341206, Note_on_c, 6, 66, 127
2, 341356, Note_off_c, 6, 66, 127
2, 341358, Note_on_c, 3, 63, 127
2, 341508, Note_off_c, 3, 63, 127
2, 341510, Note_on_c, 12, 71, 127
2, 341510, Note_on_c, 7, 43, 127
2, 341662, Note_on_c, 4, 76, 127
2, 341810, Note_off_c, 12, 71, 127
2, 341812, Note_off_c, 4, 76, 127
2, 341814, Note_on_c, 12, 71, 127
2, 341964, Note_off_c, 12, 71, 127
2, 341966, Note_on_c, 7, 67, 127
2, 342111, Note_off_c, 7, 43, 127
2, 342116, Note_off_c, 7, 67, 127
2, 342118, Note_on_c, 4, 64, 127
2, 342270, Note_on_c, 7, 67, 127
2, 342418, Note_off_c, 4, 64, 127
2, 342420, Note_off_c, 7, 67, 127
2, 342422, Note_on_c, 4, 64, 127
2, 342572, Note_off_c, 4, 64, 127
2, 342574, Note_on_c, 12, 59, 127
2, 342724, Note_off_c, 12, 59, 127
2, 342726, Note_on_c, 1, 73, 127
2, 342726, Note_on_c, 11, 46, 127
2, 342878, Note_on_c, 4, 76, 127
2, 343026, Note_off_c, 1, 73, 127
2, 343028, Note_off_c, 4, 76, 127
2, 343030, Note_on_c, 1, 73, 127
2, 343180, Note_off_c, 1, 73, 127
2, 343182, Note_on_c, 7, 67, 127
2, 343334, Note_on_c, 4, 64, 127
2, 343482, Note_off_c, 7, 67, 127
2, 343485, Note_on_c, 7, 67, 127
2, 343633, Note_off_c, 4, 64, 127
2, 343635, Note_off_c, 7, 67, 127
2, 343637, Note_on_c, 4, 64, 127
2, 343789, Note_on_c, 7, 55, 127
2, 343865, Note_off_c, 4, 64, 127
2, 343939, Note_off_c, 7, 55, 127
2, 343939, Note_off_c, 11, 46, 127
2, 343941, Note_on_c, 7, 67, 127
2, 344093, Note_on_c, 1, 73, 127
2, 344241, Note_off_c, 7, 67, 127
2, 344243, Note_off_c, 1, 73, 127
2, 344245, Note_on_c, 7, 67, 127
2, 344395, Note_off_c, 7, 67, 127
2, 344397, Note_on_c, 4, 64, 127
2, 344549, Note_on_c, 1, 61, 127
2, 344697, Note_off_c, 4, 64, 127
2, 344700, Note_on_c, 4, 64, 127
2, 344848, Note_off_c, 1, 61, 127
2, 344850, Note_off_c, 4, 64, 127
2, 344852, Note_on_c, 1, 61, 127
2, 345002, Note_off_c, 1, 61, 127
2, 345004, Note_on_c, 4, 52, 127
2, 345154, Note_off_c, 4, 52, 127
2, 345156, Note_on_c, 4, 64, 127
2, 345319, Note_off_c, 4, 64, 127
2, 345321, Note_on_c, 7, 67, 127
2, 345484, Note_off_c, 7, 67, 127
2, 345486, Note_on_c, 4, 64, 127
2, 345649, Note_off_c, 4, 64, 127
2, 345651, Note_on_c, 1, 61, 127
2, 345814, Note_off_c, 1, 61, 127
2, 345816, Note_on_c, 11, 58, 127
2, 345979, Note_off_c, 11, 58, 127
2, 345981, Note_on_c, 1, 61, 127
2, 346144, Note_off_c, 1, 61, 127
2, 346146, Note_on_c, 11, 58, 127
2, 346309, Note_off_c, 11, 58, 127
2, 346311, Note_on_c, 1, 49, 127
2, 346474, Note_off_c, 1, 49, 127
2, 346492, Note_on_c, 11, 46, 127
2, 347149, Note_off_c, 11, 46, 127
2, 347151, Note_on_c, 4, 64, 127
2, 347151, Note_on_c, 7, 67, 127
2, 347151, Note_on_c, 4, 52, 127
2, 347151, Note_on_c, 11, 58, 127
2, 347151, Note_on_c, 1, 61, 127
2, 347151, Note_on_c, 1, 49, 127
2, 347808, Note_off_c, 1, 49, 127
2, 347808, Note_off_c, 1, 61, 127
2, 347808, Note_off_c, 11, 58, 127
2, 347808, Note_off_c, 4, 52, 127
2, 347808, Note_off_c, 7, 67, 127
2, 347810, Note_on_c, 6, 66, 127
2, 347810, Note_on_c, 12, 59, 127
2, 347810, Note_on_c, 12, 47, 127
2, 347810, Note_on_c, 6, 54, 127
2, 348517, Note_off_c, 6, 66, 127
2, 348517, Note_off_c, 4, 64, 127
2, 348519, Note_on_c, 12, 71, 127
2, 348519, Note_on_c, 3, 63, 127
2, 348872, Note_off_c, 3, 63, 127
2, 348872, Note_off_c, 12, 71, 127
2, 348872, Note_off_c, 12, 59, 127
2, 348874, Note_on_c, 0, 72, 127
2, 348874, Note_on_c, 10, 57, 127
2, 349227, Note_off_c, 10, 57, 127
2, 349227, Note_off_c, 0, 72, 127
2, 349227, Note_off_c, 6, 54, 127
2, 349227, Note_off_c, 12, 47, 127
2, 349229, Note_on_c, 2, 74, 127
2, 349229, Note_on_c, 4, 40, 127
2, 349229, Note_on_c, 4, 52, 127
2, 349229, Note_on_c, 8, 56, 127
2, 349582, Note_off_c, 2, 74, 127
2, 349584, Note_on_c, 12, 71, 127
2, 349937, Note_off_c, 12, 71, 127
2, 349939, Note_on_c, 8, 68, 127
2, 350292, Note_off_c, 8, 68, 127
2, 350294, Note_on_c, 4, 64, 127
2, 350647, Note_off_c, 4, 64, 127
2, 350647, Note_off_c, 8, 56, 127
2, 350647, Note_off_c, 4, 52, 127
2, 350649, Note_on_c, 0, 72, 127
2, 350649, Note_on_c, 10, 57, 127
2, 350649, Note_on_c, 4, 52, 127
2, 351003, Note_on_c, 10, 69, 127
2, 351356, Note_off_c, 4, 52, 127
2, 351358, Note_on_c, 6, 66, 127
2, 351358, Note_on_c, 3, 51, 127
2, 351358, Note_on_c, 6, 54, 127
2, 351712, Note_on_c, 3, 63, 127
2, 352059, Note_off_c, 6, 66, 127
2, 352065, Note_off_c, 3, 63, 127
2, 352065, Note_off_c, 6, 54, 127
2, 352065, Note_off_c, 3, 51, 127
2, 352065, Note_off_c, 10, 69, 127
2, 352065, Note_off_c, 10, 57, 127
2, 352065, Note_off_c, 0, 72, 127
2, 352083, Note_on_c, 12, 47, 127
2, 352083, Note_on_c, 4, 52, 127
2, 352083, Note_on_c, 8, 56, 127
2, 352083, Note_on_c, 4, 64, 127
2, 352083, Note_on_c, 12, 71, 127
2, 352083, Note_on_c, 8, 68, 127
2, 352083, Note_on_c, 4, 76, 127
2, 355584, Note_off_c, 4, 76, 127
2, 355584, Note_off_c, 8, 68, 127
2, 355584, Note_off_c, 12, 71, 127
2, 355584, Note_off_c, 4, 64, 127
2, 355584, Note_off_c, 8, 56, 127
2, 355584, Note_off_c, 4, 52, 127
2, 355584, Note_off_c, 12, 47, 127
2, 355586, Note_off_c, 4, 40, 127
2, 362496, End_track
3, 0, Start_track
3, 0, Title_t, "MIDI"
3, 1536, End_track
0, 0, End_of_file
