0, 0, Header, 1, 3, 384
1, 0, Start_track
1, 0, Tempo, 500000
1, 0, Time_signature, 4, 2, 24, 8
1, 222720, End_track
2, 0, Start_track
2, 0, Text_t, "harpsichord: John Sankey"
2, 0, Program_c, 0, 6
2, 0, Pitch_bend_c, 0, 8192
2, 0, Program_c, 1, 6
2, 0, Pitch_bend_c, 1, 7792
2, 0, Program_c, 2, 6
2, 0, Pitch_bend_c, 2, 7876
2, 0, Program_c, 3, 6
2, 0, Pitch_bend_c, 3, 7952
2, 0, Program_c, 4, 6
2, 0, Pitch_bend_c, 4, 7792
2, 0, Program_c, 5, 6
2, 0, Pitch_bend_c, 5, 8112
2, 0, Program_c, 6, 6
2, 0, Pitch_bend_c, 6, 7712
2, 0, Program_c, 7, 6
2, 0, Pitch_bend_c, 7, 8037
2, 0, Program_c, 8, 6
2, 0, Pitch_bend_c, 8, 7872
2, 0, Program_c, 10, 6
2, 0, Pitch_bend_c, 10, 7712
2, 0, Program_c, 11, 6
2, 0, Pitch_bend_c, 11, 8032
2, 0, Program_c, 12, 6
2, 0, Pitch_bend_c, 12, 7872
2, 0, Title_t, "Track 1"
2, 96, Note_on_c, 0, 60, 127
2, 96, Note_on_c, 10, 57, 127
2, 96, Note_on_c, 4, 64, 127
2, 96, Note_on_c, 0, 72, 127
2, 96, Note_on_c, 4, 76, 127
2, 96, Note_on_c, 10, 81, 127
2, 96, Note_on_c, 10, 69, 127
2, 967, Note_off_c, 10, 69, 127
2, 967, Note_off_c, 10, 81, 127
2, 967, Note_off_c, 4, 76, 127
2, 967, Note_off_c, 0, 72, 127
2, 967, Note_off_c, 0, 60, 127
2, 996, Note_off_c, 4, 64, 127
2, 996, Note_off_c, 10, 57, 127
2, 1143, Note_on_c, 10, 57, 127
2, 1143, Note_on_c, 4, 64, 127
2, 1143, Note_on_c, 0, 72, 127
2, 1143, Note_on_c, 4, 76, 127
2, 1143, Note_on_c, 10, 81, 127
2, 1488, Note_off_c, 10, 81, 127
2, 1488, Note_off_c, 4, 76, 127
2, 1488, Note_off_c, 0, 72, 127
2, 1488, Note_off_c, 4, 64, 127
2, 1488, Note_off_c, 10, 57, 127
2, 1492, Note_on_c, 4, 64, 127
2, 1492, Note_on_c, 7, 67, 127
2, 1492, Note_on_c, 7, 79, 127
2, 1492, Note_on_c, 12, 71, 127
2, 1837, Note_off_c, 7, 79, 127
2, 1837, Note_off_c, 4, 64, 127
2, 1841, Note_on_c, 2, 62, 127
2, 1841, Note_on_c, 5, 77, 127
2, 2181, Note_off_c, 12, 71, 127
2, 2181, Note_off_c, 7, 67, 127
2, 2186, Note_off_c, 5, 77, 127
2, 2186, Note_off_c, 2, 62, 127
2, 2190, Note_on_c, 0, 60, 127
2, 2190, Note_on_c, 0, 72, 127
2, 2190, Note_on_c, 10, 69, 127
2, 2190, Note_on_c, 4, 76, 127
2, 2535, Note_off_c, 4, 76, 127
2, 2535, Note_off_c, 10, 69, 127
2, 2535, Note_off_c, 0, 72, 127
2, 2535, Note_off_c, 0, 60, 127
2, 2539, Note_on_c, 12, 59, 127
2, 2539, Note_on_c, 2, 62, 127
2, 2539, Note_on_c, 8, 68, 127
2, 2539, Note_on_c, 2, 74, 127
2, 2884, Note_off_c, 2, 74, 127
2, 2884, Note_off_c, 8, 68, 127
2, 2884, Note_off_c, 2, 62, 127
2, 2884, Note_off_c, 12, 59, 127
2, 2888, Note_on_c, 10, 57, 127
2, 2888, Note_on_c, 4, 64, 127
2, 2888, Note_on_c, 2, 74, 127
2, 2888, Note_on_c, 10, 69, 127
2, 3233, Note_off_c, 2, 74, 127
2, 3237, Note_on_c, 0, 72, 127
2, 3582, Note_off_c, 0, 72, 127
2, 3586, Note_on_c, 0, 72, 127
2, 3759, Note_off_c, 10, 69, 127
2, 3759, Note_off_c, 4, 64, 127
2, 3759, Note_off_c, 10, 57, 127
2, 3932, Note_off_c, 0, 72, 127
2, 3936, Note_on_c, 12, 59, 127
2, 3936, Note_on_c, 7, 55, 127
2, 3936, Note_on_c, 4, 64, 127
2, 3936, Note_on_c, 12, 71, 127
2, 3936, Note_on_c, 7, 67, 127
2, 3936, Note_on_c, 4, 76, 127
2, 4281, Note_off_c, 4, 76, 127
2, 4281, Note_off_c, 7, 67, 127
2, 4281, Note_off_c, 12, 71, 127
2, 4281, Note_off_c, 4, 64, 127
2, 4281, Note_off_c, 7, 55, 127
2, 4281, Note_off_c, 12, 59, 127
2, 4285, Note_on_c, 10, 57, 127
2, 4285, Note_on_c, 5, 53, 127
2, 4285, Note_on_c, 2, 62, 127
2, 4285, Note_on_c, 10, 69, 127
2, 4285, Note_on_c, 5, 65, 127
2, 4285, Note_on_c, 2, 74, 127
2, 4630, Note_off_c, 2, 74, 127
2, 4630, Note_off_c, 5, 65, 127
2, 4630, Note_off_c, 10, 69, 127
2, 4630, Note_off_c, 2, 62, 127
2, 4630, Note_off_c, 5, 53, 127
2, 4630, Note_off_c, 10, 57, 127
2, 4634, Note_on_c, 7, 55, 127
2, 4634, Note_on_c, 0, 60, 127
2, 4634, Note_on_c, 4, 52, 127
2, 4634, Note_on_c, 4, 64, 127
2, 4634, Note_on_c, 0, 72, 127
2, 4634, Note_on_c, 7, 67, 127
2, 4979, Note_off_c, 7, 67, 127
2, 4979, Note_off_c, 0, 72, 127
2, 4979, Note_off_c, 4, 64, 127
2, 4979, Note_off_c, 4, 52, 127
2, 4979, Note_off_c, 0, 60, 127
2, 4979, Note_off_c, 7, 55, 127
2, 4983, Note_on_c, 5, 53, 127
2, 4983, Note_on_c, 2, 50, 127
2, 4983, Note_on_c, 12, 59, 127
2, 4983, Note_on_c, 5, 65, 127
2, 4983, Note_on_c, 2, 62, 127
2, 4983, Note_on_c, 12, 71, 127
2, 5328, Note_off_c, 12, 71, 127
2, 5328, Note_off_c, 2, 62, 127
2, 5328, Note_off_c, 5, 65, 127
2, 5328, Note_off_c, 12, 59, 127
2, 5328, Note_off_c, 2, 50, 127
2, 5328, Note_off_c, 5, 53, 127
2, 5332, Note_on_c, 4, 52, 127
2, 5332, Note_on_c, 10, 57, 127
2, 5332, Note_on_c, 0, 48, 127
2, 5332, Note_on_c, 10, 69, 127
2, 5332, Note_on_c, 4, 64, 127
2, 5332, Note_on_c, 0, 60, 127
2, 5677, Note_off_c, 0, 60, 127
2, 5677, Note_off_c, 4, 64, 127
2, 5677, Note_off_c, 10, 69, 127
2, 5677, Note_off_c, 0, 48, 127
2, 5677, Note_off_c, 10, 57, 127
2, 5677, Note_off_c, 4, 52, 127
2, 5681, Note_on_c, 2, 50, 127
2, 5681, Note_on_c, 12, 59, 127
2, 5681, Note_on_c, 12, 47, 127
2, 5681, Note_on_c, 2, 62, 127
2, 5681, Note_on_c, 10, 69, 127
2, 5681, Note_on_c, 5, 65, 127
2, 6026, Note_off_c, 10, 69, 127
2, 6030, Note_on_c, 8, 68, 127
2, 6375, Note_off_c, 8, 68, 127
2, 6379, Note_on_c, 8, 68, 127
2, 6552, Note_off_c, 5, 65, 127
2, 6552, Note_off_c, 2, 62, 127
2, 6552, Note_off_c, 12, 47, 127
2, 6552, Note_off_c, 12, 59, 127
2, 6552, Note_off_c, 2, 50, 127
2, 6725, Note_off_c, 8, 68, 127
2, 6729, Note_on_c, 4, 52, 127
2, 6729, Note_on_c, 0, 48, 127
2, 6729, Note_on_c, 10, 57, 127
2, 6729, Note_on_c, 4, 64, 127
2, 6729, Note_on_c, 0, 60, 127
2, 6729, Note_on_c, 10, 69, 127
2, 7074, Note_off_c, 10, 69, 127
2, 7074, Note_off_c, 0, 60, 127
2, 7074, Note_off_c, 4, 64, 127
2, 7074, Note_off_c, 10, 57, 127
2, 7074, Note_off_c, 0, 48, 127
2, 7074, Note_off_c, 4, 52, 127
2, 7078, Note_on_c, 12, 59, 127
2, 7078, Note_on_c, 2, 50, 127
2, 7078, Note_on_c, 12, 47, 127
2, 7078, Note_on_c, 10, 69, 127
2, 7078, Note_on_c, 2, 62, 127
2, 7423, Note_off_c, 10, 69, 127
2, 7427, Note_on_c, 8, 68, 127
2, 7772, Note_off_c, 8, 68, 127
2, 7776, Note_on_c, 8, 68, 127
2, 7949, Note_off_c, 2, 62, 127
2, 7949, Note_off_c, 12, 47, 127
2, 7949, Note_off_c, 2, 50, 127
2, 7949, Note_off_c, 12, 59, 127
2, 8122, Note_off_c, 8, 68, 127
2, 8126, Note_on_c, 10, 57, 127
2, 8126, Note_on_c, 4, 52, 127
2, 8126, Note_on_c, 0, 48, 127
2, 8126, Note_on_c, 0, 60, 127
2, 8126, Note_on_c, 4, 64, 127
2, 8126, Note_on_c, 10, 69, 127
2, 8471, Note_off_c, 10, 69, 127
2, 8471, Note_off_c, 4, 64, 127
2, 8471, Note_off_c, 0, 60, 127
2, 8471, Note_off_c, 0, 48, 127
2, 8471, Note_off_c, 4, 52, 127
2, 8471, Note_off_c, 10, 57, 127
2, 8475, Note_on_c, 5, 53, 127
2, 8475, Note_on_c, 2, 50, 127
2, 8475, Note_on_c, 12, 59, 127
2, 8475, Note_on_c, 5, 65, 127
2, 8475, Note_on_c, 2, 62, 127
2, 8475, Note_on_c, 10, 69, 127
2, 8820, Note_off_c, 10, 69, 127
2, 8824, Note_on_c, 12, 71, 127
2, 9164, Note_off_c, 2, 62, 127
2, 9164, Note_off_c, 5, 65, 127
2, 9169, Note_off_c, 12, 71, 127
2, 9169, Note_off_c, 12, 59, 127
2, 9169, Note_off_c, 2, 50, 127
2, 9169, Note_off_c, 5, 53, 127
2, 9173, Note_on_c, 2, 50, 127
2, 9173, Note_on_c, 12, 47, 127
2, 9173, Note_on_c, 8, 56, 127
2, 9173, Note_on_c, 12, 71, 127
2, 9173, Note_on_c, 8, 68, 127
2, 9173, Note_on_c, 2, 62, 127
2, 9518, Note_off_c, 12, 71, 127
2, 9522, Note_on_c, 0, 72, 127
2, 9862, Note_off_c, 2, 62, 127
2, 9862, Note_off_c, 8, 68, 127
2, 9867, Note_off_c, 0, 72, 127
2, 9867, Note_off_c, 8, 56, 127
2, 9867, Note_off_c, 12, 47, 127
2, 9867, Note_off_c, 2, 50, 127
2, 9871, Note_on_c, 10, 57, 127
2, 9871, Note_on_c, 4, 52, 127
2, 9871, Note_on_c, 10, 45, 127
2, 9871, Note_on_c, 0, 48, 127
2, 9871, Note_on_c, 4, 64, 127
2, 9871, Note_on_c, 10, 69, 127
2, 9871, Note_on_c, 0, 72, 127
2, 10216, Note_off_c, 0, 72, 127
2, 10216, Note_off_c, 10, 69, 127
2, 10220, Note_on_c, 12, 71, 127
2, 10560, Note_off_c, 4, 64, 127
2, 10565, Note_off_c, 12, 71, 127
2, 10565, Note_off_c, 0, 48, 127
2, 10565, Note_off_c, 10, 45, 127
2, 10565, Note_off_c, 4, 52, 127
2, 10565, Note_off_c, 10, 57, 127
2, 10569, Note_on_c, 12, 59, 127
2, 10569, Note_on_c, 8, 56, 127
2, 10569, Note_on_c, 4, 64, 127
2, 10569, Note_on_c, 12, 71, 127
2, 10914, Note_off_c, 12, 71, 127
2, 10918, Note_on_c, 0, 72, 127
2, 11258, Note_off_c, 4, 64, 127
2, 11263, Note_off_c, 0, 72, 127
2, 11263, Note_off_c, 8, 56, 127
2, 11263, Note_off_c, 12, 59, 127
2, 11267, Note_on_c, 10, 57, 127
2, 11267, Note_on_c, 0, 60, 127
2, 11267, Note_on_c, 10, 69, 127
2, 11267, Note_on_c, 4, 64, 127
2, 11267, Note_on_c, 0, 72, 127
2, 11612, Note_off_c, 0, 72, 127
2, 11616, Note_on_c, 2, 74, 127
2, 11956, Note_off_c, 4, 64, 127
2, 11956, Note_off_c, 10, 69, 127
2, 11961, Note_off_c, 2, 74, 127
2, 11961, Note_off_c, 0, 60, 127
2, 11961, Note_off_c, 10, 57, 127
2, 11965, Note_on_c, 6, 54, 127
2, 11965, Note_on_c, 10, 57, 127
2, 11965, Note_on_c, 6, 66, 127
2, 11965, Note_on_c, 2, 74, 127
2, 11965, Note_on_c, 10, 69, 127
2, 12310, Note_off_c, 2, 74, 127
2, 12310, Note_off_c, 6, 66, 127
2, 12310, Note_off_c, 10, 57, 127
2, 12310, Note_off_c, 6, 54, 127
2, 12314, Note_on_c, 12, 59, 127
2, 12314, Note_on_c, 12, 71, 127
2, 12314, Note_on_c, 3, 75, 127
2, 12314, Note_on_c, 6, 66, 127
2, 12654, Note_off_c, 10, 69, 127
2, 12659, Note_off_c, 6, 66, 127
2, 12659, Note_off_c, 3, 75, 127
2, 12659, Note_off_c, 12, 71, 127
2, 12659, Note_off_c, 12, 59, 127
2, 12663, Note_on_c, 4, 52, 127
2, 12663, Note_on_c, 12, 59, 127
2, 12663, Note_on_c, 8, 68, 127
2, 12663, Note_on_c, 4, 64, 127
2, 12663, Note_on_c, 4, 76, 127
2, 12663, Note_on_c, 12, 71, 127
2, 14056, Note_off_c, 12, 71, 127
2, 14056, Note_off_c, 4, 76, 127
2, 14056, Note_off_c, 4, 64, 127
2, 14056, Note_off_c, 8, 68, 127
2, 14056, Note_off_c, 12, 59, 127
2, 14056, Note_off_c, 4, 52, 127
2, 14108, Note_on_c, 12, 83, 127
2, 14108, Note_on_c, 4, 76, 127
2, 14108, Note_on_c, 8, 80, 127
2, 14108, Note_on_c, 12, 71, 127
2, 14108, Note_on_c, 12, 59, 127
2, 14108, Note_on_c, 4, 64, 127
2, 14108, Note_on_c, 4, 52, 127
2, 14108, Note_on_c, 8, 56, 127
2, 14979, Note_off_c, 8, 56, 127
2, 14979, Note_off_c, 4, 52, 127
2, 14979, Note_off_c, 4, 64, 127
2, 14979, Note_off_c, 12, 59, 127
2, 14979, Note_off_c, 12, 71, 127
2, 14979, Note_off_c, 8, 80, 127
2, 14979, Note_off_c, 4, 76, 127
2, 14979, Note_off_c, 12, 83, 127
2, 15155, Note_on_c, 12, 83, 127
2, 15155, Note_on_c, 2, 62, 127
2, 15155, Note_on_c, 8, 56, 127
2, 15500, Note_off_c, 8, 56, 127
2, 15500, Note_off_c, 2, 62, 127
2, 15500, Note_off_c, 12, 83, 127
2, 15504, Note_on_c, 0, 84, 127
2, 15504, Note_on_c, 10, 57, 127
2, 15504, Note_on_c, 0, 60, 127
2, 15849, Note_off_c, 0, 84, 127
2, 15853, Note_on_c, 5, 77, 127
2, 16198, Note_off_c, 5, 77, 127
2, 16202, Note_on_c, 5, 77, 127
2, 16375, Note_off_c, 0, 60, 127
2, 16375, Note_off_c, 10, 57, 127
2, 16548, Note_off_c, 5, 77, 127
2, 16552, Note_on_c, 0, 84, 127
2, 16552, Note_on_c, 10, 57, 127
2, 16552, Note_on_c, 0, 60, 127
2, 16897, Note_off_c, 0, 60, 127
2, 16897, Note_off_c, 10, 57, 127
2, 16897, Note_off_c, 0, 84, 127
2, 16901, Note_on_c, 12, 83, 127
2, 16901, Note_on_c, 2, 62, 127
2, 16901, Note_on_c, 8, 56, 127
2, 17246, Note_off_c, 12, 83, 127
2, 17250, Note_on_c, 4, 76, 127
2, 17595, Note_off_c, 4, 76, 127
2, 17599, Note_on_c, 4, 76, 127
2, 17772, Note_off_c, 8, 56, 127
2, 17772, Note_off_c, 2, 62, 127
2, 17945, Note_off_c, 4, 76, 127
2, 17949, Note_on_c, 12, 83, 127
2, 17949, Note_on_c, 8, 56, 127
2, 17949, Note_on_c, 2, 62, 127
2, 18294, Note_off_c, 2, 62, 127
2, 18294, Note_off_c, 8, 56, 127
2, 18294, Note_off_c, 12, 83, 127
2, 18298, Note_on_c, 0, 84, 127
2, 18298, Note_on_c, 10, 57, 127
2, 18298, Note_on_c, 0, 60, 127
2, 18643, Note_off_c, 0, 84, 127
2, 18647, Note_on_c, 5, 77, 127
2, 18992, Note_off_c, 5, 77, 127
2, 18996, Note_on_c, 5, 77, 127
2, 19169, Note_off_c, 0, 60, 127
2, 19169, Note_off_c, 10, 57, 127
2, 19342, Note_off_c, 5, 77, 127
2, 19346, Note_on_c, 0, 84, 127
2, 19346, Note_on_c, 0, 60, 127
2, 19346, Note_on_c, 10, 57, 127
2, 19691, Note_off_c, 10, 57, 127
2, 19691, Note_off_c, 0, 60, 127
2, 19691, Note_off_c, 0, 84, 127
2, 19695, Note_on_c, 12, 83, 127
2, 19695, Note_on_c, 8, 56, 127
2, 19695, Note_on_c, 2, 62, 127
2, 20040, Note_off_c, 12, 83, 127
2, 20044, Note_on_c, 4, 76, 127
2, 20389, Note_off_c, 4, 76, 127
2, 20393, Note_on_c, 4, 76, 127
2, 20566, Note_off_c, 2, 62, 127
2, 20566, Note_off_c, 8, 56, 127
2, 20739, Note_off_c, 4, 76, 127
2, 20743, Note_on_c, 10, 81, 127
2, 20743, Note_on_c, 10, 69, 127
2, 20743, Note_on_c, 0, 60, 127
2, 20743, Note_on_c, 10, 57, 127
2, 21088, Note_off_c, 10, 57, 127
2, 21088, Note_off_c, 0, 60, 127
2, 21088, Note_off_c, 10, 69, 127
2, 21088, Note_off_c, 10, 81, 127
2, 21092, Note_on_c, 5, 77, 127
2, 21092, Note_on_c, 10, 69, 127
2, 21092, Note_on_c, 0, 60, 127
2, 21092, Note_on_c, 10, 57, 127
2, 21437, Note_off_c, 10, 57, 127
2, 21437, Note_off_c, 0, 60, 127
2, 21437, Note_off_c, 10, 69, 127
2, 21437, Note_off_c, 5, 77, 127
2, 21441, Note_on_c, 8, 68, 127
2, 21441, Note_on_c, 4, 76, 127
2, 21441, Note_on_c, 12, 59, 127
2, 21441, Note_on_c, 2, 62, 127
2, 21786, Note_off_c, 2, 62, 127
2, 21786, Note_off_c, 12, 59, 127
2, 21786, Note_off_c, 4, 76, 127
2, 21786, Note_off_c, 8, 68, 127
2, 21790, Note_on_c, 10, 69, 127
2, 21790, Note_on_c, 4, 76, 127
2, 21790, Note_on_c, 0, 60, 127
2, 21790, Note_on_c, 4, 64, 127
2, 22135, Note_off_c, 4, 76, 127
2, 22139, Note_on_c, 2, 74, 127
2, 22479, Note_off_c, 10, 69, 127
2, 22484, Note_off_c, 2, 74, 127
2, 22484, Note_off_c, 4, 64, 127
2, 22484, Note_off_c, 0, 60, 127
2, 22488, Note_on_c, 2, 74, 127
2, 22488, Note_on_c, 4, 64, 127
2, 22488, Note_on_c, 8, 68, 127
2, 22488, Note_on_c, 12, 59, 127
2, 22833, Note_off_c, 2, 74, 127
2, 22837, Note_on_c, 0, 72, 127
2, 23177, Note_off_c, 8, 68, 127
2, 23177, Note_off_c, 4, 64, 127
2, 23182, Note_off_c, 0, 72, 127
2, 23182, Note_off_c, 12, 59, 127
2, 23186, Note_on_c, 10, 69, 127
2, 23186, Note_on_c, 0, 72, 127
2, 23186, Note_on_c, 4, 64, 127
2, 23186, Note_on_c, 10, 57, 127
2, 23531, Note_off_c, 0, 72, 127
2, 23535, Note_on_c, 5, 77, 127
2, 23875, Note_off_c, 4, 64, 127
2, 23875, Note_off_c, 10, 69, 127
2, 23880, Note_off_c, 5, 77, 127
2, 23880, Note_off_c, 10, 57, 127
2, 23884, Note_on_c, 10, 69, 127
2, 23884, Note_on_c, 4, 64, 127
2, 23884, Note_on_c, 4, 76, 127
2, 23884, Note_on_c, 0, 60, 127
2, 24229, Note_off_c, 4, 76, 127
2, 24233, Note_on_c, 2, 74, 127
2, 24573, Note_off_c, 4, 64, 127
2, 24573, Note_off_c, 10, 69, 127
2, 24578, Note_off_c, 2, 74, 127
2, 24578, Note_off_c, 0, 60, 127
2, 24582, Note_on_c, 8, 68, 127
2, 24582, Note_on_c, 2, 74, 127
2, 24582, Note_on_c, 4, 64, 127
2, 24582, Note_on_c, 12, 59, 127
2, 24927, Note_off_c, 2, 74, 127
2, 24931, Note_on_c, 0, 72, 127
2, 25271, Note_off_c, 4, 64, 127
2, 25271, Note_off_c, 8, 68, 127
2, 25276, Note_off_c, 0, 72, 127
2, 25276, Note_off_c, 12, 59, 127
2, 25280, Note_on_c, 0, 72, 127
2, 25280, Note_on_c, 10, 69, 127
2, 25280, Note_on_c, 4, 64, 127
2, 25280, Note_on_c, 10, 57, 127
2, 25625, Note_off_c, 10, 69, 127
2, 25625, Note_off_c, 0, 72, 127
2, 25629, Note_on_c, 12, 71, 127
2, 25974, Note_off_c, 12, 71, 127
2, 25974, Note_off_c, 10, 57, 127
2, 25974, Note_off_c, 4, 64, 127
2, 25978, Note_on_c, 12, 71, 127
2, 25978, Note_on_c, 4, 64, 127
2, 25978, Note_on_c, 12, 59, 127
2, 25978, Note_on_c, 7, 55, 127
2, 26323, Note_off_c, 12, 71, 127
2, 26327, Note_on_c, 4, 76, 127
2, 26667, Note_off_c, 4, 64, 127
2, 26672, Note_off_c, 4, 76, 127
2, 26672, Note_off_c, 7, 55, 127
2, 26672, Note_off_c, 12, 59, 127
2, 26676, Note_on_c, 2, 74, 127
2, 26676, Note_on_c, 10, 69, 127
2, 26676, Note_on_c, 2, 62, 127
2, 26676, Note_on_c, 5, 53, 127
2, 27021, Note_off_c, 2, 74, 127
2, 27025, Note_on_c, 0, 72, 127
2, 27365, Note_off_c, 10, 69, 127
2, 27370, Note_off_c, 0, 72, 127
2, 27370, Note_off_c, 5, 53, 127
2, 27370, Note_off_c, 2, 62, 127
2, 27374, Note_on_c, 7, 67, 127
2, 27374, Note_on_c, 0, 72, 127
2, 27374, Note_on_c, 4, 52, 127
2, 27374, Note_on_c, 7, 55, 127
2, 27719, Note_off_c, 0, 72, 127
2, 27723, Note_on_c, 12, 71, 127
2, 28063, Note_off_c, 7, 67, 127
2, 28068, Note_off_c, 12, 71, 127
2, 28068, Note_off_c, 7, 55, 127
2, 28068, Note_off_c, 4, 52, 127
2, 28072, Note_on_c, 12, 71, 127
2, 28072, Note_on_c, 5, 65, 127
2, 28072, Note_on_c, 2, 62, 127
2, 28072, Note_on_c, 2, 50, 127
2, 28417, Note_off_c, 12, 71, 127
2, 28421, Note_on_c, 10, 69, 127
2, 28761, Note_off_c, 5, 65, 127
2, 28766, Note_off_c, 10, 69, 127
2, 28766, Note_off_c, 2, 50, 127
2, 28766, Note_off_c, 2, 62, 127
2, 28770, Note_on_c, 10, 69, 127
2, 28770, Note_on_c, 0, 48, 127
2, 28770, Note_on_c, 4, 64, 127
2, 29115, Note_off_c, 4, 64, 127
2, 29115, Note_off_c, 0, 48, 127
2, 29119, Note_on_c, 5, 65, 127
2, 29119, Note_on_c, 2, 62, 127
2, 29119, Note_on_c, 2, 74, 127
2, 29119, Note_on_c, 12, 47, 127
2, 29459, Note_off_c, 10, 69, 127
2, 29464, Note_off_c, 12, 47, 127
2, 29464, Note_off_c, 2, 74, 127
2, 29464, Note_off_c, 2, 62, 127
2, 29464, Note_off_c, 5, 65, 127
2, 29468, Note_on_c, 10, 69, 127
2, 29468, Note_on_c, 4, 64, 127
2, 29468, Note_on_c, 0, 72, 127
2, 29468, Note_on_c, 10, 45, 127
2, 29813, Note_off_c, 0, 72, 127
2, 29813, Note_off_c, 10, 69, 127
2, 29817, Note_on_c, 12, 71, 127
2, 30157, Note_off_c, 4, 64, 127
2, 30162, Note_off_c, 12, 71, 127
2, 30162, Note_off_c, 10, 45, 127
2, 30166, Note_on_c, 2, 62, 127
2, 30166, Note_on_c, 12, 71, 127
2, 30166, Note_on_c, 8, 68, 127
2, 30166, Note_on_c, 4, 52, 127
2, 30511, Note_off_c, 8, 68, 127
2, 30511, Note_off_c, 12, 71, 127
2, 30515, Note_on_c, 10, 69, 127
2, 30855, Note_off_c, 2, 62, 127
2, 30860, Note_off_c, 10, 69, 127
2, 30860, Note_off_c, 4, 52, 127
2, 30864, Note_on_c, 0, 60, 127
2, 30864, Note_on_c, 4, 64, 127
2, 30864, Note_on_c, 10, 69, 127
2, 30864, Note_on_c, 10, 57, 127
2, 30864, Note_on_c, 10, 45, 127
2, 31735, Note_off_c, 10, 45, 127
2, 31735, Note_off_c, 10, 57, 127
2, 31735, Note_off_c, 10, 69, 127
2, 31735, Note_off_c, 4, 64, 127
2, 31735, Note_off_c, 0, 60, 127
2, 31911, Note_on_c, 12, 71, 127
2, 31911, Note_on_c, 4, 76, 127
2, 31911, Note_on_c, 7, 55, 127
2, 32256, Note_off_c, 7, 55, 127
2, 32256, Note_off_c, 4, 76, 127
2, 32256, Note_off_c, 12, 71, 127
2, 32260, Note_on_c, 2, 74, 127
2, 32260, Note_on_c, 10, 69, 127
2, 32260, Note_on_c, 5, 53, 127
2, 32605, Note_off_c, 2, 74, 127
2, 32609, Note_on_c, 0, 72, 127
2, 32949, Note_off_c, 10, 69, 127
2, 32954, Note_off_c, 0, 72, 127
2, 32954, Note_off_c, 5, 53, 127
2, 32958, Note_on_c, 7, 67, 127
2, 32958, Note_on_c, 0, 72, 127
2, 32958, Note_on_c, 4, 52, 127
2, 33303, Note_off_c, 0, 72, 127
2, 33307, Note_on_c, 12, 71, 127
2, 33647, Note_off_c, 7, 67, 127
2, 33652, Note_off_c, 12, 71, 127
2, 33652, Note_off_c, 4, 52, 127
2, 33656, Note_on_c, 5, 65, 127
2, 33656, Note_on_c, 12, 71, 127
2, 33656, Note_on_c, 2, 50, 127
2, 34001, Note_off_c, 12, 71, 127
2, 34005, Note_on_c, 10, 69, 127
2, 34345, Note_off_c, 5, 65, 127
2, 34350, Note_off_c, 10, 69, 127
2, 34350, Note_off_c, 2, 50, 127
2, 34354, Note_on_c, 4, 64, 127
2, 34354, Note_on_c, 10, 69, 127
2, 34354, Note_on_c, 0, 48, 127
2, 34699, Note_off_c, 0, 48, 127
2, 34699, Note_off_c, 10, 69, 127
2, 34699, Note_off_c, 4, 64, 127
2, 34703, Note_on_c, 2, 74, 127
2, 34703, Note_on_c, 2, 62, 127
2, 34703, Note_on_c, 5, 53, 127
2, 35048, Note_off_c, 5, 53, 127
2, 35048, Note_off_c, 2, 62, 127
2, 35048, Note_off_c, 2, 74, 127
2, 35052, Note_on_c, 0, 72, 127
2, 35052, Note_on_c, 5, 65, 127
2, 35052, Note_on_c, 2, 50, 127
2, 35052, Note_on_c, 10, 57, 127
2, 35397, Note_off_c, 0, 72, 127
2, 35401, Note_on_c, 12, 71, 127
2, 35741, Note_off_c, 10, 57, 127
2, 35741, Note_off_c, 5, 65, 127
2, 35746, Note_off_c, 12, 71, 127
2, 35746, Note_off_c, 2, 50, 127
2, 35750, Note_on_c, 12, 71, 127
2, 35750, Note_on_c, 2, 62, 127
2, 35750, Note_on_c, 4, 52, 127
2, 35750, Note_on_c, 8, 56, 127
2, 36095, Note_off_c, 12, 71, 127
2, 36099, Note_on_c, 10, 69, 127
2, 36439, Note_off_c, 8, 56, 127
2, 36439, Note_off_c, 2, 62, 127
2, 36444, Note_off_c, 10, 69, 127
2, 36444, Note_off_c, 4, 52, 127
2, 36448, Note_on_c, 4, 64, 127
2, 36448, Note_on_c, 10, 69, 127
2, 36448, Note_on_c, 0, 60, 127
2, 36448, Note_on_c, 10, 45, 127
2, 36448, Note_on_c, 10, 57, 127
2, 37319, Note_off_c, 10, 57, 127
2, 37319, Note_off_c, 10, 45, 127
2, 37319, Note_off_c, 0, 60, 127
2, 37319, Note_off_c, 10, 69, 127
2, 37319, Note_off_c, 4, 64, 127
2, 37495, Note_on_c, 0, 72, 127
2, 37495, Note_on_c, 5, 77, 127
2, 37495, Note_on_c, 10, 69, 127
2, 37840, Note_off_c, 10, 69, 127
2, 37840, Note_off_c, 5, 77, 127
2, 37840, Note_off_c, 0, 72, 127
2, 37844, Note_on_c, 0, 72, 127
2, 37844, Note_on_c, 5, 77, 127
2, 37844, Note_on_c, 10, 69, 127
2, 38013, Note_off_c, 0, 72, 127
2, 38018, Note_on_c, 0, 72, 127
2, 38187, Note_off_c, 10, 69, 127
2, 38189, Note_off_c, 0, 72, 127
2, 38189, Note_off_c, 5, 77, 127
2, 38193, Note_on_c, 4, 76, 127
2, 38193, Note_on_c, 12, 71, 127
2, 38364, Note_off_c, 12, 71, 127
2, 38368, Note_on_c, 10, 69, 127
2, 38539, Note_off_c, 10, 69, 127
2, 38539, Note_off_c, 4, 76, 127
2, 38543, Note_on_c, 4, 76, 127
2, 38543, Note_on_c, 12, 71, 127
2, 38543, Note_on_c, 8, 68, 127
2, 38712, Note_off_c, 12, 71, 127
2, 38717, Note_on_c, 12, 71, 127
2, 38886, Note_off_c, 8, 68, 127
2, 38888, Note_off_c, 12, 71, 127
2, 38888, Note_off_c, 4, 76, 127
2, 38892, Note_on_c, 5, 77, 127
2, 38892, Note_on_c, 10, 69, 127
2, 39063, Note_off_c, 10, 69, 127
2, 39067, Note_on_c, 8, 68, 127
2, 39238, Note_off_c, 8, 68, 127
2, 39238, Note_off_c, 5, 77, 127
2, 39242, Note_on_c, 0, 72, 127
2, 39242, Note_on_c, 5, 77, 127
2, 39242, Note_on_c, 10, 69, 127
2, 39411, Note_off_c, 0, 72, 127
2, 39416, Note_on_c, 0, 72, 127
2, 39585, Note_off_c, 10, 69, 127
2, 39587, Note_off_c, 0, 72, 127
2, 39587, Note_off_c, 5, 77, 127
2, 39591, Note_on_c, 4, 76, 127
2, 39591, Note_on_c, 12, 71, 127
2, 39762, Note_off_c, 12, 71, 127
2, 39766, Note_on_c, 10, 69, 127
2, 39937, Note_off_c, 10, 69, 127
2, 39937, Note_off_c, 4, 76, 127
2, 39941, Note_on_c, 12, 71, 127
2, 39941, Note_on_c, 4, 76, 127
2, 39941, Note_on_c, 8, 68, 127
2, 40110, Note_off_c, 12, 71, 127
2, 40115, Note_on_c, 12, 71, 127
2, 40284, Note_off_c, 8, 68, 127
2, 40286, Note_off_c, 12, 71, 127
2, 40286, Note_off_c, 4, 76, 127
2, 40290, Note_on_c, 12, 83, 127
2, 40290, Note_on_c, 10, 69, 127
2, 40461, Note_off_c, 10, 69, 127
2, 40465, Note_on_c, 8, 68, 127
2, 40636, Note_off_c, 8, 68, 127
2, 40636, Note_off_c, 12, 83, 127
2, 40640, Note_on_c, 4, 76, 127
2, 40640, Note_on_c, 0, 84, 127
2, 40640, Note_on_c, 10, 69, 127
2, 40811, Note_off_c, 10, 69, 127
2, 40815, Note_on_c, 0, 72, 127
2, 40986, Note_off_c, 0, 72, 127
2, 40986, Note_off_c, 4, 76, 127
2, 40990, Note_on_c, 10, 81, 127
2, 40990, Note_on_c, 6, 66, 127
2, 41161, Note_off_c, 6, 66, 127
2, 41165, Note_on_c, 10, 69, 127
2, 41330, Note_off_c, 0, 84, 127
2, 41335, Note_off_c, 10, 69, 127
2, 41339, Note_on_c, 12, 83, 127
2, 41339, Note_on_c, 7, 67, 127
2, 41510, Note_off_c, 7, 67, 127
2, 41514, Note_on_c, 12, 71, 127
2, 41679, Note_off_c, 10, 81, 127
2, 41684, Note_off_c, 12, 71, 127
2, 41688, Note_on_c, 7, 79, 127
2, 41688, Note_on_c, 4, 64, 127
2, 41859, Note_off_c, 4, 64, 127
2, 41863, Note_on_c, 7, 67, 127
2, 42028, Note_off_c, 12, 83, 127
2, 42033, Note_off_c, 7, 67, 127
2, 42037, Note_on_c, 10, 81, 127
2, 42037, Note_on_c, 6, 66, 127
2, 42208, Note_off_c, 6, 66, 127
2, 42212, Note_on_c, 10, 69, 127
2, 42377, Note_off_c, 7, 79, 127
2, 42382, Note_off_c, 10, 69, 127
2, 42386, Note_on_c, 6, 78, 127
2, 42386, Note_on_c, 3, 63, 127
2, 42557, Note_off_c, 3, 63, 127
2, 42561, Note_on_c, 6, 66, 127
2, 42726, Note_off_c, 10, 81, 127
2, 42731, Note_off_c, 6, 66, 127
2, 42731, Note_off_c, 6, 78, 127
2, 42735, Note_on_c, 7, 79, 127
2, 42735, Note_on_c, 4, 76, 127
2, 42735, Note_on_c, 4, 64, 127
2, 43080, Note_off_c, 4, 64, 127
2, 43080, Note_off_c, 4, 76, 127
2, 43080, Note_off_c, 7, 79, 127
2, 43084, Note_on_c, 2, 74, 127
2, 43084, Note_on_c, 8, 80, 127
2, 43084, Note_on_c, 12, 71, 127
2, 43429, Note_off_c, 12, 71, 127
2, 43429, Note_off_c, 8, 80, 127
2, 43429, Note_off_c, 2, 74, 127
2, 43433, Note_on_c, 4, 76, 127
2, 43433, Note_on_c, 10, 81, 127
2, 43433, Note_on_c, 0, 72, 127
2, 43602, Note_off_c, 4, 76, 127
2, 43607, Note_on_c, 4, 76, 127
2, 43778, Note_off_c, 4, 76, 127
2, 43778, Note_off_c, 10, 81, 127
2, 43782, Note_on_c, 7, 79, 127
2, 43782, Note_on_c, 2, 74, 127
2, 43831, Note_off_c, 0, 72, 127
2, 43953, Note_off_c, 2, 74, 127
2, 43957, Note_on_c, 0, 72, 127
2, 44128, Note_off_c, 0, 72, 127
2, 44128, Note_off_c, 7, 79, 127
2, 44132, Note_on_c, 2, 74, 127
2, 44132, Note_on_c, 7, 79, 127
2, 44132, Note_on_c, 12, 71, 127
2, 44301, Note_off_c, 2, 74, 127
2, 44306, Note_on_c, 2, 74, 127
2, 44477, Note_off_c, 2, 74, 127
2, 44477, Note_off_c, 7, 79, 127
2, 44481, Note_on_c, 6, 78, 127
2, 44481, Note_on_c, 0, 72, 127
2, 44530, Note_off_c, 12, 71, 127
2, 44652, Note_off_c, 0, 72, 127
2, 44656, Note_on_c, 12, 71, 127
2, 44827, Note_off_c, 12, 71, 127
2, 44827, Note_off_c, 6, 78, 127
2, 44831, Note_on_c, 0, 72, 127
2, 44831, Note_on_c, 6, 78, 127
2, 44831, Note_on_c, 10, 69, 127
2, 45000, Note_off_c, 0, 72, 127
2, 45005, Note_on_c, 0, 72, 127
2, 45176, Note_off_c, 0, 72, 127
2, 45176, Note_off_c, 6, 78, 127
2, 45180, Note_on_c, 4, 76, 127
2, 45180, Note_on_c, 12, 71, 127
2, 45229, Note_off_c, 10, 69, 127
2, 45351, Note_off_c, 12, 71, 127
2, 45355, Note_on_c, 10, 69, 127
2, 45526, Note_off_c, 10, 69, 127
2, 45526, Note_off_c, 4, 76, 127
2, 45530, Note_on_c, 4, 76, 127
2, 45530, Note_on_c, 12, 71, 127
2, 45530, Note_on_c, 7, 67, 127
2, 45699, Note_off_c, 12, 71, 127
2, 45704, Note_on_c, 12, 71, 127
2, 45875, Note_off_c, 12, 71, 127
2, 45875, Note_off_c, 4, 76, 127
2, 45879, Note_on_c, 3, 75, 127
2, 45879, Note_on_c, 10, 69, 127
2, 45928, Note_off_c, 7, 67, 127
2, 46050, Note_off_c, 10, 69, 127
2, 46054, Note_on_c, 7, 67, 127
2, 46225, Note_off_c, 7, 67, 127
2, 46225, Note_off_c, 3, 75, 127
2, 46229, Note_on_c, 10, 69, 127
2, 46229, Note_on_c, 3, 75, 127
2, 46229, Note_on_c, 6, 66, 127
2, 46574, Note_off_c, 6, 66, 127
2, 46574, Note_off_c, 3, 75, 127
2, 46574, Note_off_c, 10, 69, 127
2, 46578, Note_on_c, 7, 67, 127
2, 46578, Note_on_c, 12, 71, 127
2, 46578, Note_on_c, 4, 76, 127
2, 46578, Note_on_c, 4, 64, 127
2, 46749, Note_off_c, 4, 76, 127
2, 46753, Note_on_c, 6, 78, 127
2, 46922, Note_off_c, 7, 67, 127
2, 46924, Note_off_c, 6, 78, 127
2, 46928, Note_on_c, 6, 78, 127
2, 46928, Note_on_c, 12, 59, 127
2, 47268, Note_off_c, 4, 64, 127
2, 47277, Note_on_c, 3, 63, 127
2, 47448, Note_off_c, 6, 78, 127
2, 47452, Note_on_c, 4, 76, 127
2, 47617, Note_off_c, 12, 59, 127
2, 47622, Note_off_c, 4, 76, 127
2, 47622, Note_off_c, 3, 63, 127
2, 47622, Note_off_c, 12, 71, 127
2, 47626, Note_on_c, 8, 68, 127
2, 47626, Note_on_c, 4, 76, 127
2, 47626, Note_on_c, 4, 64, 127
2, 47626, Note_on_c, 4, 52, 127
2, 48495, Note_off_c, 4, 52, 127
2, 48495, Note_off_c, 4, 64, 127
2, 48497, Note_off_c, 4, 76, 127
2, 48497, Note_off_c, 8, 68, 127
2, 48499, Note_on_c, 12, 71, 127
2, 48670, Note_off_c, 12, 71, 127
2, 48674, Note_on_c, 4, 76, 127
2, 48674, Note_on_c, 12, 83, 127
2, 48674, Note_on_c, 10, 69, 127
2, 48845, Note_off_c, 10, 69, 127
2, 48849, Note_on_c, 8, 68, 127
2, 49020, Note_off_c, 8, 68, 127
2, 49020, Note_off_c, 12, 83, 127
2, 49020, Note_off_c, 4, 76, 127
2, 49024, Note_on_c, 0, 84, 127
2, 49024, Note_on_c, 4, 76, 127
2, 49024, Note_on_c, 10, 69, 127
2, 49195, Note_off_c, 10, 69, 127
2, 49199, Note_on_c, 0, 72, 127
2, 49370, Note_off_c, 0, 72, 127
2, 49370, Note_off_c, 4, 76, 127
2, 49374, Note_on_c, 10, 81, 127
2, 49374, Note_on_c, 6, 66, 127
2, 49545, Note_off_c, 6, 66, 127
2, 49549, Note_on_c, 10, 69, 127
2, 49714, Note_off_c, 0, 84, 127
2, 49719, Note_off_c, 10, 69, 127
2, 49723, Note_on_c, 12, 83, 127
2, 49723, Note_on_c, 7, 67, 127
2, 49894, Note_off_c, 7, 67, 127
2, 49898, Note_on_c, 12, 71, 127
2, 50063, Note_off_c, 10, 81, 127
2, 50068, Note_off_c, 12, 71, 127
2, 50072, Note_on_c, 7, 79, 127
2, 50072, Note_on_c, 4, 64, 127
2, 50243, Note_off_c, 4, 64, 127
2, 50247, Note_on_c, 7, 67, 127
2, 50412, Note_off_c, 12, 83, 127
2, 50417, Note_off_c, 7, 67, 127
2, 50421, Note_on_c, 10, 81, 127
2, 50421, Note_on_c, 6, 66, 127
2, 50592, Note_off_c, 6, 66, 127
2, 50596, Note_on_c, 10, 69, 127
2, 50761, Note_off_c, 7, 79, 127
2, 50766, Note_off_c, 10, 69, 127
2, 50770, Note_on_c, 6, 78, 127
2, 50770, Note_on_c, 3, 63, 127
2, 50941, Note_off_c, 3, 63, 127
2, 50945, Note_on_c, 6, 66, 127
2, 51110, Note_off_c, 10, 81, 127
2, 51115, Note_off_c, 6, 66, 127
2, 51115, Note_off_c, 6, 78, 127
2, 51119, Note_on_c, 4, 76, 127
2, 51119, Note_on_c, 7, 79, 127
2, 51119, Note_on_c, 4, 64, 127
2, 51464, Note_off_c, 4, 64, 127
2, 51464, Note_off_c, 7, 79, 127
2, 51464, Note_off_c, 4, 76, 127
2, 51468, Note_on_c, 2, 74, 127
2, 51468, Note_on_c, 8, 80, 127
2, 51468, Note_on_c, 12, 71, 127
2, 51813, Note_off_c, 12, 71, 127
2, 51813, Note_off_c, 8, 80, 127
2, 51813, Note_off_c, 2, 74, 127
2, 51817, Note_on_c, 4, 76, 127
2, 51817, Note_on_c, 10, 81, 127
2, 51817, Note_on_c, 0, 72, 127
2, 51986, Note_off_c, 4, 76, 127
2, 51991, Note_on_c, 4, 76, 127
2, 52076, Note_off_c, 0, 72, 127
2, 52161, Note_off_c, 4, 76, 127
2, 52161, Note_off_c, 10, 81, 127
2, 52165, Note_on_c, 7, 79, 127
2, 52165, Note_on_c, 2, 74, 127
2, 52336, Note_off_c, 2, 74, 127
2, 52340, Note_on_c, 0, 72, 127
2, 52511, Note_off_c, 0, 72, 127
2, 52511, Note_off_c, 7, 79, 127
2, 52515, Note_on_c, 7, 79, 127
2, 52515, Note_on_c, 2, 74, 127
2, 52515, Note_on_c, 12, 71, 127
2, 52684, Note_off_c, 2, 74, 127
2, 52689, Note_on_c, 2, 74, 127
2, 52774, Note_off_c, 12, 71, 127
2, 52859, Note_off_c, 2, 74, 127
2, 52859, Note_off_c, 7, 79, 127
2, 52863, Note_on_c, 6, 78, 127
2, 52863, Note_on_c, 0, 72, 127
2, 53034, Note_off_c, 0, 72, 127
2, 53038, Note_on_c, 12, 71, 127
2, 53209, Note_off_c, 12, 71, 127
2, 53209, Note_off_c, 6, 78, 127
2, 53213, Note_on_c, 6, 78, 127
2, 53213, Note_on_c, 0, 72, 127
2, 53213, Note_on_c, 10, 69, 127
2, 53382, Note_off_c, 0, 72, 127
2, 53387, Note_on_c, 0, 72, 127
2, 53472, Note_off_c, 10, 69, 127
2, 53557, Note_off_c, 0, 72, 127
2, 53557, Note_off_c, 6, 78, 127
2, 53561, Note_on_c, 4, 76, 127
2, 53561, Note_on_c, 12, 71, 127
2, 53732, Note_off_c, 12, 71, 127
2, 53736, Note_on_c, 10, 69, 127
2, 53907, Note_off_c, 10, 69, 127
2, 53907, Note_off_c, 4, 76, 127
2, 53911, Note_on_c, 12, 71, 127
2, 53911, Note_on_c, 4, 76, 127
2, 53911, Note_on_c, 7, 67, 127
2, 54080, Note_off_c, 12, 71, 127
2, 54085, Note_on_c, 12, 71, 127
2, 54170, Note_off_c, 7, 67, 127
2, 54255, Note_off_c, 12, 71, 127
2, 54255, Note_off_c, 4, 76, 127
2, 54259, Note_on_c, 3, 75, 127
2, 54259, Note_on_c, 10, 69, 127
2, 54430, Note_off_c, 10, 69, 127
2, 54434, Note_on_c, 7, 67, 127
2, 54605, Note_off_c, 7, 67, 127
2, 54605, Note_off_c, 3, 75, 127
2, 54609, Note_on_c, 3, 75, 127
2, 54609, Note_on_c, 10, 69, 127
2, 54609, Note_on_c, 6, 66, 127
2, 54954, Note_off_c, 6, 66, 127
2, 54954, Note_off_c, 10, 69, 127
2, 54954, Note_off_c, 3, 75, 127
2, 54958, Note_on_c, 7, 67, 127
2, 54958, Note_on_c, 12, 71, 127
2, 54958, Note_on_c, 4, 76, 127
2, 54958, Note_on_c, 4, 64, 127
2, 55129, Note_off_c, 4, 76, 127
2, 55133, Note_on_c, 6, 78, 127
2, 55302, Note_off_c, 7, 67, 127
2, 55304, Note_off_c, 6, 78, 127
2, 55308, Note_on_c, 6, 78, 127
2, 55308, Note_on_c, 12, 59, 127
2, 55648, Note_off_c, 4, 64, 127
2, 55657, Note_on_c, 3, 63, 127
2, 55828, Note_off_c, 6, 78, 127
2, 55832, Note_on_c, 4, 76, 127
2, 55997, Note_off_c, 12, 59, 127
2, 56002, Note_off_c, 4, 76, 127
2, 56002, Note_off_c, 3, 63, 127
2, 56002, Note_off_c, 12, 71, 127
2, 56006, Note_on_c, 4, 76, 127
2, 56006, Note_on_c, 12, 71, 127
2, 56006, Note_on_c, 8, 68, 127
2, 56006, Note_on_c, 4, 64, 127
2, 56006, Note_on_c, 4, 52, 127
2, 56877, Note_off_c, 4, 52, 127
2, 56877, Note_off_c, 4, 64, 127
2, 56877, Note_off_c, 8, 68, 127
2, 56877, Note_off_c, 12, 71, 127
2, 56877, Note_off_c, 4, 76, 127
2, 57053, Note_on_c, 12, 71, 127
2, 57053, Note_on_c, 6, 66, 127
2, 57053, Note_on_c, 3, 51, 127
2, 57398, Note_off_c, 3, 51, 127
2, 57398, Note_off_c, 6, 66, 127
2, 57398, Note_off_c, 12, 71, 127
2, 57402, Note_on_c, 7, 67, 127
2, 57402, Note_on_c, 0, 72, 127
2, 57402, Note_on_c, 4, 52, 127
2, 57573, Note_off_c, 4, 52, 127
2, 57577, Note_on_c, 7, 55, 127
2, 57748, Note_off_c, 7, 55, 127
2, 57748, Note_off_c, 0, 72, 127
2, 57752, Note_on_c, 12, 71, 127
2, 57752, Note_on_c, 6, 54, 127
2, 57923, Note_off_c, 6, 54, 127
2, 57927, Note_on_c, 4, 52, 127
2, 58092, Note_off_c, 7, 67, 127
2, 58097, Note_off_c, 4, 52, 127
2, 58097, Note_off_c, 12, 71, 127
2, 58101, Note_on_c, 12, 71, 127
2, 58101, Note_on_c, 6, 66, 127
2, 58101, Note_on_c, 3, 51, 127
2, 58272, Note_off_c, 3, 51, 127
2, 58276, Note_on_c, 6, 54, 127
2, 58447, Note_off_c, 6, 54, 127
2, 58447, Note_off_c, 12, 71, 127
2, 58451, Note_on_c, 0, 72, 127
2, 58451, Note_on_c, 4, 52, 127
2, 58622, Note_off_c, 4, 52, 127
2, 58626, Note_on_c, 3, 51, 127
2, 58791, Note_off_c, 6, 66, 127
2, 58796, Note_off_c, 3, 51, 127
2, 58796, Note_off_c, 0, 72, 127
2, 58800, Note_on_c, 0, 72, 127
2, 58800, Note_on_c, 7, 67, 127
2, 58800, Note_on_c, 4, 52, 127
2, 58971, Note_off_c, 4, 52, 127
2, 58975, Note_on_c, 7, 55, 127
2, 59146, Note_off_c, 7, 55, 127
2, 59146, Note_off_c, 0, 72, 127
2, 59150, Note_on_c, 12, 71, 127
2, 59150, Note_on_c, 6, 54, 127
2, 59321, Note_off_c, 6, 54, 127
2, 59325, Note_on_c, 4, 52, 127
2, 59490, Note_off_c, 7, 67, 127
2, 59495, Note_off_c, 4, 52, 127
2, 59495, Note_off_c, 12, 71, 127
2, 59499, Note_on_c, 6, 66, 127
2, 59499, Note_on_c, 12, 71, 127
2, 59499, Note_on_c, 2, 50, 127
2, 59670, Note_off_c, 2, 50, 127
2, 59674, Note_on_c, 6, 54, 127
2, 59845, Note_off_c, 6, 54, 127
2, 59845, Note_off_c, 12, 71, 127
2, 59849, Note_on_c, 10, 69, 127
2, 59849, Note_on_c, 4, 52, 127
2, 60020, Note_off_c, 4, 52, 127
2, 60024, Note_on_c, 2, 50, 127
2, 60189, Note_off_c, 6, 66, 127
2, 60194, Note_off_c, 2, 50, 127
2, 60194, Note_off_c, 10, 69, 127
2, 60198, Note_on_c, 10, 69, 127
2, 60198, Note_on_c, 4, 64, 127
2, 60198, Note_on_c, 0, 48, 127
2, 60369, Note_off_c, 0, 48, 127
2, 60373, Note_on_c, 4, 52, 127
2, 60544, Note_off_c, 4, 52, 127
2, 60544, Note_off_c, 10, 69, 127
2, 60548, Note_on_c, 7, 67, 127
2, 60548, Note_on_c, 2, 50, 127
2, 60719, Note_off_c, 2, 50, 127
2, 60723, Note_on_c, 0, 48, 127
2, 60888, Note_off_c, 4, 64, 127
2, 60893, Note_off_c, 0, 48, 127
2, 60893, Note_off_c, 7, 67, 127
2, 60897, Note_on_c, 2, 62, 127
2, 60897, Note_on_c, 7, 67, 127
2, 60897, Note_on_c, 12, 47, 127
2, 61068, Note_off_c, 12, 47, 127
2, 61072, Note_on_c, 2, 50, 127
2, 61243, Note_off_c, 2, 50, 127
2, 61243, Note_off_c, 7, 67, 127
2, 61243, Note_off_c, 2, 62, 127
2, 61247, Note_on_c, 10, 69, 127
2, 61247, Note_on_c, 0, 48, 127
2, 61418, Note_off_c, 0, 48, 127
2, 61422, Note_on_c, 12, 47, 127
2, 61593, Note_off_c, 12, 47, 127
2, 61593, Note_off_c, 10, 69, 127
2, 61597, Note_on_c, 4, 64, 127
2, 61597, Note_on_c, 10, 69, 127
2, 61597, Note_on_c, 0, 48, 127
2, 61768, Note_off_c, 0, 48, 127
2, 61772, Note_on_c, 4, 52, 127
2, 61943, Note_off_c, 4, 52, 127
2, 61943, Note_off_c, 10, 69, 127
2, 61947, Note_on_c, 7, 67, 127
2, 61947, Note_on_c, 2, 50, 127
2, 62118, Note_off_c, 2, 50, 127
2, 62122, Note_on_c, 0, 48, 127
2, 62287, Note_off_c, 4, 64, 127
2, 62292, Note_off_c, 0, 48, 127
2, 62292, Note_off_c, 7, 67, 127
2, 62296, Note_on_c, 2, 62, 127
2, 62296, Note_on_c, 7, 67, 127
2, 62296, Note_on_c, 12, 47, 127
2, 62467, Note_off_c, 12, 47, 127
2, 62471, Note_on_c, 2, 50, 127
2, 62642, Note_off_c, 2, 50, 127
2, 62642, Note_off_c, 7, 67, 127
2, 62646, Note_on_c, 6, 66, 127
2, 62646, Note_on_c, 0, 48, 127
2, 62817, Note_off_c, 0, 48, 127
2, 62821, Note_on_c, 12, 47, 127
2, 62986, Note_off_c, 2, 62, 127
2, 62991, Note_off_c, 12, 47, 127
2, 62991, Note_off_c, 6, 66, 127
2, 62995, Note_on_c, 0, 60, 127
2, 62995, Note_on_c, 6, 66, 127
2, 62995, Note_on_c, 10, 45, 127
2, 63166, Note_off_c, 10, 45, 127
2, 63170, Note_on_c, 0, 48, 127
2, 63341, Note_off_c, 0, 48, 127
2, 63341, Note_off_c, 6, 66, 127
2, 63345, Note_on_c, 4, 64, 127
2, 63345, Note_on_c, 12, 47, 127
2, 63516, Note_off_c, 12, 47, 127
2, 63520, Note_on_c, 10, 45, 127
2, 63685, Note_off_c, 0, 60, 127
2, 63690, Note_off_c, 10, 45, 127
2, 63690, Note_off_c, 4, 64, 127
2, 63694, Note_on_c, 12, 59, 127
2, 63694, Note_on_c, 4, 64, 127
2, 63694, Note_on_c, 7, 43, 127
2, 63865, Note_off_c, 7, 43, 127
2, 63869, Note_on_c, 7, 55, 127
2, 64040, Note_off_c, 7, 55, 127
2, 64040, Note_off_c, 4, 64, 127
2, 64040, Note_off_c, 12, 59, 127
2, 64044, Note_on_c, 10, 69, 127
2, 64044, Note_on_c, 6, 54, 127
2, 64215, Note_off_c, 6, 54, 127
2, 64219, Note_on_c, 4, 52, 127
2, 64390, Note_off_c, 4, 52, 127
2, 64390, Note_off_c, 10, 69, 127
2, 64394, Note_on_c, 10, 69, 127
2, 64394, Note_on_c, 6, 66, 127
2, 64394, Note_on_c, 12, 59, 127
2, 64394, Note_on_c, 3, 51, 127
2, 64739, Note_off_c, 3, 51, 127
2, 64739, Note_off_c, 12, 59, 127
2, 64739, Note_off_c, 6, 66, 127
2, 64739, Note_off_c, 10, 69, 127
2, 64743, Note_on_c, 7, 67, 127
2, 64743, Note_on_c, 4, 64, 127
2, 64743, Note_on_c, 12, 59, 127
2, 64743, Note_on_c, 4, 52, 127
2, 65088, Note_off_c, 4, 52, 127
2, 65088, Note_off_c, 12, 59, 127
2, 65088, Note_off_c, 4, 64, 127
2, 65088, Note_off_c, 7, 67, 127
2, 65092, Note_on_c, 7, 67, 127
2, 65092, Note_on_c, 4, 64, 127
2, 65092, Note_on_c, 0, 60, 127
2, 65092, Note_on_c, 10, 45, 127
2, 65437, Note_off_c, 10, 45, 127
2, 65437, Note_off_c, 0, 60, 127
2, 65437, Note_off_c, 4, 64, 127
2, 65437, Note_off_c, 7, 67, 127
2, 65441, Note_on_c, 6, 66, 127
2, 65441, Note_on_c, 3, 63, 127
2, 65441, Note_on_c, 12, 47, 127
2, 65441, Note_on_c, 12, 59, 127
2, 65612, Note_off_c, 3, 63, 127
2, 65612, Note_off_c, 6, 66, 127
2, 65616, Note_on_c, 4, 64, 127
2, 65787, Note_off_c, 4, 64, 127
2, 65787, Note_off_c, 12, 59, 127
2, 65787, Note_off_c, 12, 47, 127
2, 65791, Note_on_c, 4, 64, 127
2, 65791, Note_on_c, 8, 56, 127
2, 65791, Note_on_c, 4, 52, 127
2, 65791, Note_on_c, 4, 40, 127
2, 66662, Note_off_c, 4, 40, 127
2, 66662, Note_off_c, 4, 52, 127
2, 66662, Note_off_c, 8, 56, 127
2, 66662, Note_off_c, 4, 64, 127
2, 66838, Note_on_c, 12, 71, 127
2, 66838, Note_on_c, 4, 64, 127
2, 66838, Note_on_c, 8, 56, 127
2, 67183, Note_off_c, 8, 56, 127
2, 67183, Note_off_c, 4, 64, 127
2, 67183, Note_off_c, 12, 71, 127
2, 67187, Note_on_c, 4, 64, 127
2, 67187, Note_on_c, 0, 72, 127
2, 67187, Note_on_c, 10, 57, 127
2, 67358, Note_off_c, 0, 72, 127
2, 67362, Note_on_c, 12, 71, 127
2, 67533, Note_off_c, 12, 71, 127
2, 67537, Note_on_c, 10, 69, 127
2, 67695, Note_off_c, 4, 64, 127
2, 67708, Note_off_c, 10, 69, 127
2, 67712, Note_on_c, 12, 71, 127
2, 67883, Note_off_c, 12, 71, 127
2, 67887, Note_on_c, 0, 72, 127
2, 68058, Note_off_c, 0, 72, 127
2, 68062, Note_on_c, 2, 74, 127
2, 68233, Note_off_c, 2, 74, 127
2, 68233, Note_off_c, 10, 57, 127
2, 68237, Note_on_c, 4, 64, 127
2, 68237, Note_on_c, 12, 71, 127
2, 68237, Note_on_c, 7, 55, 127
2, 68408, Note_off_c, 12, 71, 127
2, 68412, Note_on_c, 1, 73, 127
2, 68581, Note_off_c, 4, 64, 127
2, 68583, Note_off_c, 1, 73, 127
2, 68583, Note_off_c, 7, 55, 127
2, 68587, Note_on_c, 2, 74, 127
2, 68587, Note_on_c, 2, 62, 127
2, 68587, Note_on_c, 10, 57, 127
2, 68587, Note_on_c, 6, 54, 127
2, 68758, Note_off_c, 2, 74, 127
2, 68762, Note_on_c, 1, 73, 127
2, 68931, Note_off_c, 2, 62, 127
2, 68933, Note_off_c, 1, 73, 127
2, 68933, Note_off_c, 6, 54, 127
2, 68933, Note_off_c, 10, 57, 127
2, 68937, Note_on_c, 12, 71, 127
2, 68937, Note_on_c, 2, 62, 127
2, 68937, Note_on_c, 12, 59, 127
2, 69108, Note_off_c, 12, 71, 127
2, 69112, Note_on_c, 1, 73, 127
2, 69281, Note_off_c, 2, 62, 127
2, 69283, Note_off_c, 1, 73, 127
2, 69287, Note_on_c, 3, 75, 127
2, 69445, Note_off_c, 12, 59, 127
2, 69458, Note_off_c, 3, 75, 127
2, 69462, Note_on_c, 4, 76, 127
2, 69633, Note_off_c, 4, 76, 127
2, 69637, Note_on_c, 1, 73, 127
2, 69637, Note_on_c, 12, 59, 127
2, 69637, Note_on_c, 6, 66, 127
2, 69637, Note_on_c, 10, 57, 127
2, 69808, Note_off_c, 1, 73, 127
2, 69812, Note_on_c, 3, 75, 127
2, 69981, Note_off_c, 6, 66, 127
2, 69981, Note_off_c, 12, 59, 127
2, 69983, Note_off_c, 3, 75, 127
2, 69983, Note_off_c, 10, 57, 127
2, 69987, Note_on_c, 7, 67, 127
2, 69987, Note_on_c, 12, 71, 127
2, 69987, Note_on_c, 4, 76, 127
2, 69987, Note_on_c, 7, 55, 127
2, 70158, Note_off_c, 7, 55, 127
2, 70162, Note_on_c, 6, 54, 127
2, 70333, Note_off_c, 6, 54, 127
2, 70337, Note_on_c, 4, 52, 127
2, 70508, Note_off_c, 4, 52, 127
2, 70512, Note_on_c, 6, 54, 127
2, 70683, Note_off_c, 6, 54, 127
2, 70687, Note_on_c, 7, 55, 127
2, 70787, Note_off_c, 4, 76, 127
2, 70787, Note_off_c, 12, 71, 127
2, 70787, Note_off_c, 7, 67, 127
2, 70858, Note_off_c, 7, 55, 127
2, 70862, Note_on_c, 10, 57, 127
2, 71033, Note_off_c, 10, 57, 127
2, 71037, Note_on_c, 4, 76, 127
2, 71037, Note_on_c, 12, 71, 127
2, 71037, Note_on_c, 6, 54, 127
2, 71208, Note_off_c, 6, 54, 127
2, 71212, Note_on_c, 7, 55, 127
2, 71383, Note_off_c, 7, 55, 127
2, 71383, Note_off_c, 12, 71, 127
2, 71383, Note_off_c, 4, 76, 127
2, 71387, Note_on_c, 10, 69, 127
2, 71387, Note_on_c, 0, 72, 127
2, 71387, Note_on_c, 6, 78, 127
2, 71387, Note_on_c, 10, 57, 127
2, 71558, Note_off_c, 10, 57, 127
2, 71562, Note_on_c, 7, 55, 127
2, 71733, Note_off_c, 7, 55, 127
2, 71737, Note_on_c, 6, 54, 127
2, 71908, Note_off_c, 6, 54, 127
2, 71912, Note_on_c, 7, 55, 127
2, 72083, Note_off_c, 7, 55, 127
2, 72087, Note_on_c, 10, 57, 127
2, 72258, Note_off_c, 10, 57, 127
2, 72260, Note_off_c, 6, 78, 127
2, 72260, Note_off_c, 0, 72, 127
2, 72260, Note_off_c, 10, 69, 127
2, 72262, Note_on_c, 12, 59, 127
2, 72433, Note_off_c, 12, 59, 127
2, 72437, Note_on_c, 6, 78, 127
2, 72437, Note_on_c, 1, 73, 127
2, 72437, Note_on_c, 4, 76, 127
2, 72437, Note_on_c, 7, 55, 127
2, 72608, Note_off_c, 7, 55, 127
2, 72612, Note_on_c, 10, 57, 127
2, 72783, Note_off_c, 10, 57, 127
2, 72783, Note_off_c, 4, 76, 127
2, 72783, Note_off_c, 1, 73, 127
2, 72787, Note_on_c, 3, 75, 127
2, 72787, Note_on_c, 12, 71, 127
2, 72787, Note_on_c, 12, 59, 127
2, 72958, Note_off_c, 3, 75, 127
2, 72962, Note_on_c, 4, 76, 127
2, 73127, Note_off_c, 6, 78, 127
2, 73132, Note_off_c, 4, 76, 127
2, 73136, Note_on_c, 3, 75, 127
2, 73294, Note_off_c, 12, 71, 127
2, 73307, Note_off_c, 3, 75, 127
2, 73311, Note_on_c, 4, 76, 127
2, 73482, Note_off_c, 4, 76, 127
2, 73486, Note_on_c, 6, 78, 127
2, 73657, Note_off_c, 6, 78, 127
2, 73659, Note_off_c, 12, 59, 127
2, 73661, Note_on_c, 7, 79, 127
2, 73832, Note_off_c, 7, 79, 127
2, 73836, Note_on_c, 4, 76, 127
2, 73836, Note_on_c, 3, 63, 127
2, 74007, Note_off_c, 4, 76, 127
2, 74011, Note_on_c, 6, 78, 127
2, 74180, Note_off_c, 3, 63, 127
2, 74182, Note_off_c, 6, 78, 127
2, 74186, Note_on_c, 7, 79, 127
2, 74186, Note_on_c, 4, 64, 127
2, 74357, Note_off_c, 4, 64, 127
2, 74357, Note_off_c, 7, 79, 127
2, 74361, Note_on_c, 10, 81, 127
2, 74361, Note_on_c, 6, 66, 127
2, 74532, Note_off_c, 6, 66, 127
2, 74532, Note_off_c, 10, 81, 127
2, 74536, Note_on_c, 12, 83, 127
2, 74536, Note_on_c, 7, 67, 127
2, 74707, Note_off_c, 7, 67, 127
2, 74707, Note_off_c, 12, 83, 127
2, 74711, Note_on_c, 10, 81, 127
2, 74711, Note_on_c, 6, 66, 127
2, 74882, Note_off_c, 6, 66, 127
2, 74882, Note_off_c, 10, 81, 127
2, 74886, Note_on_c, 4, 64, 127
2, 74886, Note_on_c, 7, 79, 127
2, 75057, Note_off_c, 7, 79, 127
2, 75057, Note_off_c, 4, 64, 127
2, 75061, Note_on_c, 6, 78, 127
2, 75061, Note_on_c, 2, 62, 127
2, 75232, Note_off_c, 2, 62, 127
2, 75232, Note_off_c, 6, 78, 127
2, 75236, Note_on_c, 4, 76, 127
2, 75236, Note_on_c, 0, 60, 127
2, 75407, Note_off_c, 0, 60, 127
2, 75407, Note_off_c, 4, 76, 127
2, 75411, Note_on_c, 2, 74, 127
2, 75411, Note_on_c, 12, 59, 127
2, 75582, Note_off_c, 12, 59, 127
2, 75582, Note_off_c, 2, 74, 127
2, 75586, Note_on_c, 10, 69, 127
2, 75586, Note_on_c, 0, 72, 127
2, 75586, Note_on_c, 10, 57, 127
2, 75757, Note_off_c, 0, 72, 127
2, 75761, Note_on_c, 3, 75, 127
2, 75930, Note_off_c, 10, 69, 127
2, 75932, Note_off_c, 3, 75, 127
2, 75936, Note_on_c, 7, 67, 127
2, 75936, Note_on_c, 4, 76, 127
2, 76107, Note_off_c, 4, 76, 127
2, 76111, Note_on_c, 6, 78, 127
2, 76280, Note_off_c, 7, 67, 127
2, 76282, Note_off_c, 6, 78, 127
2, 76282, Note_off_c, 10, 57, 127
2, 76286, Note_on_c, 4, 76, 127
2, 76286, Note_on_c, 6, 66, 127
2, 76286, Note_on_c, 12, 59, 127
2, 76370, Note_off_c, 4, 76, 127
2, 76374, Note_on_c, 3, 75, 127
2, 76458, Note_off_c, 3, 75, 127
2, 76462, Note_on_c, 4, 76, 127
2, 76546, Note_off_c, 4, 76, 127
2, 76550, Note_on_c, 3, 75, 127
2, 76637, Note_on_c, 12, 47, 127
2, 76810, Note_off_c, 3, 75, 127
2, 76812, Note_on_c, 4, 76, 127
2, 76977, Note_off_c, 12, 59, 127
2, 76977, Note_off_c, 6, 66, 127
2, 76982, Note_off_c, 4, 76, 127
2, 76982, Note_off_c, 12, 47, 127
2, 76986, Note_on_c, 7, 67, 127
2, 76986, Note_on_c, 4, 76, 127
2, 76986, Note_on_c, 4, 52, 127
2, 77157, Note_off_c, 4, 52, 127
2, 77161, Note_on_c, 2, 50, 127
2, 77332, Note_off_c, 2, 50, 127
2, 77336, Note_on_c, 4, 52, 127
2, 77507, Note_off_c, 4, 52, 127
2, 77511, Note_on_c, 6, 54, 127
2, 77682, Note_off_c, 6, 54, 127
2, 77686, Note_on_c, 7, 55, 127
2, 77857, Note_off_c, 7, 55, 127
2, 77859, Note_off_c, 4, 76, 127
2, 77859, Note_off_c, 7, 67, 127
2, 77861, Note_on_c, 10, 57, 127
2, 78032, Note_off_c, 10, 57, 127
2, 78036, Note_on_c, 12, 71, 127
2, 78036, Note_on_c, 7, 67, 127
2, 78036, Note_on_c, 12, 59, 127
2, 78207, Note_off_c, 12, 59, 127
2, 78211, Note_on_c, 0, 60, 127
2, 78382, Note_off_c, 0, 60, 127
2, 78382, Note_off_c, 7, 67, 127
2, 78382, Note_off_c, 12, 71, 127
2, 78386, Note_on_c, 6, 66, 127
2, 78386, Note_on_c, 10, 69, 127
2, 78386, Note_on_c, 2, 62, 127
2, 78557, Note_off_c, 10, 69, 127
2, 78561, Note_on_c, 7, 67, 127
2, 78732, Note_off_c, 7, 67, 127
2, 78736, Note_on_c, 10, 69, 127
2, 78907, Note_off_c, 10, 69, 127
2, 78911, Note_on_c, 12, 71, 127
2, 79082, Note_off_c, 12, 71, 127
2, 79086, Note_on_c, 10, 69, 127
2, 79257, Note_off_c, 10, 69, 127
2, 79259, Note_off_c, 2, 62, 127
2, 79259, Note_off_c, 6, 66, 127
2, 79261, Note_on_c, 0, 72, 127
2, 79432, Note_off_c, 0, 72, 127
2, 79436, Note_on_c, 12, 71, 127
2, 79436, Note_on_c, 6, 66, 127
2, 79436, Note_on_c, 12, 47, 127
2, 79607, Note_off_c, 6, 66, 127
2, 79607, Note_off_c, 12, 71, 127
2, 79611, Note_on_c, 10, 69, 127
2, 79782, Note_off_c, 10, 69, 127
2, 79782, Note_off_c, 12, 47, 127
2, 79786, Note_on_c, 4, 64, 127
2, 79786, Note_on_c, 7, 67, 127
2, 79786, Note_on_c, 0, 48, 127
2, 79957, Note_off_c, 0, 48, 127
2, 79961, Note_on_c, 12, 47, 127
2, 80132, Note_off_c, 12, 47, 127
2, 80136, Note_on_c, 0, 48, 127
2, 80307, Note_off_c, 0, 48, 127
2, 80311, Note_on_c, 2, 50, 127
2, 80482, Note_off_c, 2, 50, 127
2, 80486, Note_on_c, 4, 52, 127
2, 80657, Note_off_c, 4, 52, 127
2, 80659, Note_off_c, 7, 67, 127
2, 80659, Note_off_c, 4, 64, 127
2, 80661, Note_on_c, 5, 53, 127
2, 80832, Note_off_c, 5, 53, 127
2, 80836, Note_on_c, 4, 64, 127
2, 80836, Note_on_c, 7, 67, 127
2, 80836, Note_on_c, 7, 55, 127
2, 81007, Note_off_c, 7, 55, 127
2, 81011, Note_on_c, 10, 57, 127
2, 81182, Note_off_c, 10, 57, 127
2, 81182, Note_off_c, 7, 67, 127
2, 81182, Note_off_c, 4, 64, 127
2, 81186, Note_on_c, 2, 62, 127
2, 81186, Note_on_c, 5, 65, 127
2, 81186, Note_on_c, 12, 59, 127
2, 81357, Note_off_c, 5, 65, 127
2, 81361, Note_on_c, 4, 64, 127
2, 81532, Note_off_c, 4, 64, 127
2, 81536, Note_on_c, 5, 65, 127
2, 81707, Note_off_c, 5, 65, 127
2, 81711, Note_on_c, 7, 67, 127
2, 81882, Note_off_c, 7, 67, 127
2, 81886, Note_on_c, 5, 65, 127
2, 82057, Note_off_c, 5, 65, 127
2, 82059, Note_off_c, 12, 59, 127
2, 82059, Note_off_c, 2, 62, 127
2, 82061, Note_on_c, 10, 69, 127
2, 82232, Note_off_c, 10, 69, 127
2, 82236, Note_on_c, 2, 62, 127
2, 82236, Note_on_c, 7, 67, 127
2, 82236, Note_on_c, 7, 43, 127
2, 82407, Note_off_c, 7, 67, 127
2, 82407, Note_off_c, 2, 62, 127
2, 82411, Note_on_c, 5, 65, 127
2, 82582, Note_off_c, 5, 65, 127
2, 82582, Note_off_c, 7, 43, 127
2, 82586, Note_on_c, 4, 64, 127
2, 82586, Note_on_c, 0, 60, 127
2, 82586, Note_on_c, 10, 45, 127
2, 82757, Note_off_c, 10, 45, 127
2, 82761, Note_on_c, 7, 43, 127
2, 82932, Note_off_c, 7, 43, 127
2, 82936, Note_on_c, 10, 45, 127
2, 83107, Note_off_c, 10, 45, 127
2, 83111, Note_on_c, 12, 47, 127
2, 83282, Note_off_c, 12, 47, 127
2, 83286, Note_on_c, 0, 48, 127
2, 83457, Note_off_c, 0, 48, 127
2, 83459, Note_off_c, 0, 60, 127
2, 83459, Note_off_c, 4, 64, 127
2, 83461, Note_on_c, 2, 50, 127
2, 83632, Note_off_c, 2, 50, 127
2, 83636, Note_on_c, 0, 72, 127
2, 83636, Note_on_c, 4, 64, 127
2, 83636, Note_on_c, 4, 52, 127
2, 83807, Note_off_c, 4, 52, 127
2, 83811, Note_on_c, 6, 54, 127
2, 83982, Note_off_c, 6, 54, 127
2, 83982, Note_off_c, 4, 64, 127
2, 83982, Note_off_c, 0, 72, 127
2, 83986, Note_on_c, 2, 62, 127
2, 83986, Note_on_c, 12, 71, 127
2, 83986, Note_on_c, 8, 56, 127
2, 84157, Note_off_c, 12, 71, 127
2, 84161, Note_on_c, 10, 69, 127
2, 84332, Note_off_c, 10, 69, 127
2, 84336, Note_on_c, 12, 71, 127
2, 84507, Note_off_c, 12, 71, 127
2, 84511, Note_on_c, 0, 72, 127
2, 84682, Note_off_c, 0, 72, 127
2, 84686, Note_on_c, 2, 74, 127
2, 84857, Note_off_c, 2, 74, 127
2, 84859, Note_off_c, 8, 56, 127
2, 84859, Note_off_c, 2, 62, 127
2, 84861, Note_on_c, 4, 76, 127
2, 85032, Note_off_c, 4, 76, 127
2, 85036, Note_on_c, 5, 77, 127
2, 85036, Note_on_c, 0, 60, 127
2, 85036, Note_on_c, 10, 57, 127
2, 85207, Note_off_c, 5, 77, 127
2, 85211, Note_on_c, 4, 76, 127
2, 85382, Note_off_c, 4, 76, 127
2, 85382, Note_off_c, 10, 57, 127
2, 85382, Note_off_c, 0, 60, 127
2, 85386, Note_on_c, 2, 74, 127
2, 85386, Note_on_c, 12, 59, 127
2, 85386, Note_on_c, 2, 62, 127
2, 85557, Note_off_c, 2, 74, 127
2, 85561, Note_on_c, 4, 76, 127
2, 85732, Note_off_c, 4, 76, 127
2, 85732, Note_off_c, 2, 62, 127
2, 85732, Note_off_c, 12, 59, 127
2, 85736, Note_on_c, 10, 69, 127
2, 85736, Note_on_c, 0, 72, 127
2, 85736, Note_on_c, 0, 60, 127
2, 85907, Note_off_c, 0, 72, 127
2, 85911, Note_on_c, 2, 74, 127
2, 86082, Note_off_c, 2, 74, 127
2, 86082, Note_off_c, 0, 60, 127
2, 86086, Note_on_c, 0, 72, 127
2, 86086, Note_on_c, 2, 62, 127
2, 86179, Note_off_c, 0, 72, 127
2, 86183, Note_on_c, 12, 71, 127
2, 86276, Note_off_c, 12, 71, 127
2, 86280, Note_on_c, 0, 72, 127
2, 86373, Note_off_c, 0, 72, 127
2, 86377, Note_on_c, 12, 71, 127
2, 86428, Note_off_c, 10, 69, 127
2, 86433, Note_off_c, 2, 62, 127
2, 86437, Note_on_c, 8, 68, 127
2, 86437, Note_on_c, 4, 64, 127
2, 86608, Note_off_c, 8, 68, 127
2, 86612, Note_off_c, 12, 71, 127
2, 86612, Note_on_c, 10, 69, 127
2, 86783, Note_off_c, 10, 69, 127
2, 86783, Note_off_c, 4, 64, 127
2, 86787, Note_on_c, 10, 69, 127
2, 86787, Note_on_c, 10, 57, 127
2, 86958, Note_off_c, 10, 57, 127
2, 86962, Note_on_c, 0, 60, 127
2, 87133, Note_off_c, 0, 60, 127
2, 87137, Note_on_c, 12, 59, 127
2, 87308, Note_off_c, 12, 59, 127
2, 87312, Note_on_c, 10, 57, 127
2, 87477, Note_off_c, 10, 69, 127
2, 87482, Note_off_c, 10, 57, 127
2, 87486, Note_on_c, 8, 56, 127
2, 87657, Note_off_c, 8, 56, 127
2, 87661, Note_on_c, 12, 59, 127
2, 87832, Note_off_c, 12, 59, 127
2, 87836, Note_on_c, 12, 71, 127
2, 87836, Note_on_c, 4, 76, 127
2, 87836, Note_on_c, 10, 57, 127
2, 88007, Note_off_c, 10, 57, 127
2, 88011, Note_on_c, 8, 56, 127
2, 88182, Note_off_c, 8, 56, 127
2, 88182, Note_off_c, 4, 76, 127
2, 88182, Note_off_c, 12, 71, 127
2, 88186, Note_on_c, 0, 72, 127
2, 88186, Note_on_c, 5, 77, 127
2, 88186, Note_on_c, 10, 57, 127
2, 88357, Note_off_c, 10, 57, 127
2, 88361, Note_on_c, 0, 60, 127
2, 88532, Note_off_c, 0, 60, 127
2, 88532, Note_off_c, 5, 77, 127
2, 88536, Note_on_c, 4, 76, 127
2, 88536, Note_on_c, 12, 59, 127
2, 88707, Note_off_c, 12, 59, 127
2, 88711, Note_on_c, 10, 57, 127
2, 88876, Note_off_c, 0, 72, 127
2, 88881, Note_off_c, 10, 57, 127
2, 88881, Note_off_c, 4, 76, 127
2, 88885, Note_on_c, 12, 71, 127
2, 88885, Note_on_c, 4, 76, 127
2, 88885, Note_on_c, 8, 56, 127
2, 89056, Note_off_c, 8, 56, 127
2, 89060, Note_on_c, 12, 59, 127
2, 89231, Note_off_c, 12, 59, 127
2, 89231, Note_off_c, 4, 76, 127
2, 89235, Note_on_c, 5, 77, 127
2, 89235, Note_on_c, 10, 57, 127
2, 89406, Note_off_c, 10, 57, 127
2, 89410, Note_on_c, 8, 56, 127
2, 89575, Note_off_c, 12, 71, 127
2, 89580, Note_off_c, 8, 56, 127
2, 89580, Note_off_c, 5, 77, 127
2, 89584, Note_on_c, 5, 77, 127
2, 89584, Note_on_c, 0, 72, 127
2, 89584, Note_on_c, 10, 57, 127
2, 89755, Note_off_c, 10, 57, 127
2, 89759, Note_on_c, 0, 60, 127
2, 89930, Note_off_c, 0, 60, 127
2, 89930, Note_off_c, 5, 77, 127
2, 89934, Note_on_c, 4, 76, 127
2, 89934, Note_on_c, 12, 59, 127
2, 90105, Note_off_c, 12, 59, 127
2, 90109, Note_on_c, 10, 57, 127
2, 90274, Note_off_c, 0, 72, 127
2, 90279, Note_off_c, 10, 57, 127
2, 90279, Note_off_c, 4, 76, 127
2, 90283, Note_on_c, 12, 71, 127
2, 90283, Note_on_c, 4, 76, 127
2, 90283, Note_on_c, 8, 56, 127
2, 90628, Note_off_c, 8, 56, 127
2, 90628, Note_off_c, 4, 76, 127
2, 90628, Note_off_c, 12, 71, 127
2, 90632, Note_on_c, 12, 71, 127
2, 90632, Note_on_c, 4, 64, 127
2, 90632, Note_on_c, 8, 44, 127
2, 90977, Note_off_c, 8, 44, 127
2, 90977, Note_off_c, 4, 64, 127
2, 90977, Note_off_c, 12, 71, 127
2, 90981, Note_on_c, 5, 65, 127
2, 90981, Note_on_c, 10, 69, 127
2, 90981, Note_on_c, 10, 45, 127
2, 91152, Note_off_c, 10, 45, 127
2, 91156, Note_on_c, 0, 48, 127
2, 91327, Note_off_c, 0, 48, 127
2, 91327, Note_off_c, 5, 65, 127
2, 91331, Note_on_c, 4, 64, 127
2, 91331, Note_on_c, 12, 47, 127
2, 91502, Note_off_c, 12, 47, 127
2, 91506, Note_on_c, 10, 45, 127
2, 91671, Note_off_c, 10, 69, 127
2, 91676, Note_off_c, 10, 45, 127
2, 91676, Note_off_c, 4, 64, 127
2, 91680, Note_on_c, 12, 71, 127
2, 91680, Note_on_c, 4, 64, 127
2, 91680, Note_on_c, 8, 44, 127
2, 91851, Note_off_c, 8, 44, 127
2, 91855, Note_on_c, 12, 47, 127
2, 92026, Note_off_c, 12, 47, 127
2, 92026, Note_off_c, 4, 64, 127
2, 92030, Note_on_c, 5, 65, 127
2, 92030, Note_on_c, 10, 45, 127
2, 92201, Note_off_c, 10, 45, 127
2, 92205, Note_on_c, 8, 44, 127
2, 92370, Note_off_c, 12, 71, 127
2, 92375, Note_off_c, 8, 44, 127
2, 92375, Note_off_c, 5, 65, 127
2, 92379, Note_on_c, 10, 69, 127
2, 92379, Note_on_c, 5, 65, 127
2, 92379, Note_on_c, 10, 45, 127
2, 92550, Note_off_c, 10, 45, 127
2, 92554, Note_on_c, 0, 48, 127
2, 92725, Note_off_c, 0, 48, 127
2, 92725, Note_off_c, 5, 65, 127
2, 92729, Note_on_c, 4, 64, 127
2, 92729, Note_on_c, 12, 47, 127
2, 92900, Note_off_c, 12, 47, 127
2, 92904, Note_on_c, 10, 45, 127
2, 93069, Note_off_c, 10, 69, 127
2, 93074, Note_off_c, 10, 45, 127
2, 93074, Note_off_c, 4, 64, 127
2, 93078, Note_on_c, 4, 64, 127
2, 93078, Note_on_c, 12, 71, 127
2, 93078, Note_on_c, 8, 44, 127
2, 93249, Note_off_c, 8, 44, 127
2, 93253, Note_on_c, 12, 47, 127
2, 93424, Note_off_c, 12, 47, 127
2, 93424, Note_off_c, 4, 64, 127
2, 93428, Note_on_c, 5, 65, 127
2, 93428, Note_on_c, 10, 45, 127
2, 93599, Note_off_c, 10, 45, 127
2, 93603, Note_on_c, 8, 44, 127
2, 93768, Note_off_c, 12, 71, 127
2, 93773, Note_off_c, 8, 44, 127
2, 93773, Note_off_c, 5, 65, 127
2, 93777, Note_on_c, 5, 65, 127
2, 93777, Note_on_c, 10, 69, 127
2, 93777, Note_on_c, 10, 45, 127
2, 93948, Note_off_c, 10, 45, 127
2, 93952, Note_on_c, 0, 48, 127
2, 94123, Note_off_c, 0, 48, 127
2, 94123, Note_off_c, 5, 65, 127
2, 94127, Note_on_c, 4, 64, 127
2, 94127, Note_on_c, 12, 47, 127
2, 94298, Note_off_c, 12, 47, 127
2, 94302, Note_on_c, 10, 45, 127
2, 94467, Note_off_c, 10, 69, 127
2, 94472, Note_off_c, 10, 45, 127
2, 94472, Note_off_c, 4, 64, 127
2, 94476, Note_on_c, 4, 64, 127
2, 94476, Note_on_c, 12, 71, 127
2, 94476, Note_on_c, 7, 43, 127
2, 94647, Note_off_c, 7, 43, 127
2, 94651, Note_on_c, 12, 47, 127
2, 94822, Note_off_c, 12, 47, 127
2, 94822, Note_off_c, 4, 64, 127
2, 94826, Note_on_c, 2, 62, 127
2, 94826, Note_on_c, 10, 45, 127
2, 94997, Note_off_c, 10, 45, 127
2, 95001, Note_on_c, 7, 43, 127
2, 95166, Note_off_c, 12, 71, 127
2, 95171, Note_off_c, 7, 43, 127
2, 95171, Note_off_c, 2, 62, 127
2, 95175, Note_on_c, 2, 62, 127
2, 95175, Note_on_c, 10, 69, 127
2, 95175, Note_on_c, 5, 41, 127
2, 95346, Note_off_c, 5, 41, 127
2, 95350, Note_on_c, 10, 45, 127
2, 95521, Note_off_c, 10, 45, 127
2, 95521, Note_off_c, 2, 62, 127
2, 95525, Note_on_c, 0, 60, 127
2, 95525, Note_on_c, 7, 43, 127
2, 95696, Note_off_c, 7, 43, 127
2, 95700, Note_on_c, 5, 41, 127
2, 95865, Note_off_c, 10, 69, 127
2, 95870, Note_off_c, 0, 60, 127
2, 95874, Note_on_c, 10, 69, 127
2, 95874, Note_on_c, 0, 60, 127
2, 95874, Note_on_c, 4, 40, 127
2, 95885, Note_off_c, 5, 41, 127
2, 96045, Note_off_c, 4, 40, 127
2, 96049, Note_on_c, 7, 43, 127
2, 96220, Note_off_c, 7, 43, 127
2, 96220, Note_off_c, 0, 60, 127
2, 96224, Note_on_c, 12, 59, 127
2, 96224, Note_on_c, 5, 41, 127
2, 96395, Note_off_c, 5, 41, 127
2, 96399, Note_on_c, 4, 40, 127
2, 96564, Note_off_c, 10, 69, 127
2, 96569, Note_off_c, 4, 40, 127
2, 96569, Note_off_c, 12, 59, 127
2, 96573, Note_on_c, 10, 69, 127
2, 96573, Note_on_c, 12, 59, 127
2, 96573, Note_on_c, 2, 38, 127
2, 96744, Note_off_c, 2, 38, 127
2, 96748, Note_on_c, 12, 47, 127
2, 96919, Note_off_c, 12, 47, 127
2, 96919, Note_off_c, 12, 59, 127
2, 96923, Note_on_c, 2, 62, 127
2, 96923, Note_on_c, 0, 48, 127
2, 97094, Note_off_c, 0, 48, 127
2, 97098, Note_on_c, 2, 50, 127
2, 97269, Note_off_c, 2, 50, 127
2, 97269, Note_off_c, 2, 62, 127
2, 97273, Note_on_c, 4, 64, 127
2, 97273, Note_on_c, 0, 60, 127
2, 97273, Note_on_c, 4, 52, 127
2, 97444, Note_off_c, 4, 52, 127
2, 97448, Note_on_c, 5, 53, 127
2, 97619, Note_off_c, 5, 53, 127
2, 97619, Note_off_c, 0, 60, 127
2, 97619, Note_off_c, 4, 64, 127
2, 97619, Note_off_c, 10, 69, 127
2, 97623, Note_on_c, 12, 59, 127
2, 97623, Note_on_c, 4, 64, 127
2, 97623, Note_on_c, 8, 68, 127
2, 97623, Note_on_c, 4, 52, 127
2, 97794, Note_off_c, 4, 52, 127
2, 97798, Note_on_c, 2, 50, 127
2, 97969, Note_off_c, 2, 50, 127
2, 97969, Note_off_c, 8, 68, 127
2, 97969, Note_off_c, 4, 64, 127
2, 97969, Note_off_c, 12, 59, 127
2, 97973, Note_on_c, 10, 69, 127
2, 97973, Note_on_c, 0, 60, 127
2, 97973, Note_on_c, 4, 64, 127
2, 97973, Note_on_c, 10, 57, 127
2, 97973, Note_on_c, 0, 48, 127
2, 98144, Note_off_c, 0, 48, 127
2, 98148, Note_on_c, 2, 50, 127
2, 98319, Note_off_c, 2, 50, 127
2, 98323, Note_on_c, 0, 48, 127
2, 98494, Note_off_c, 0, 48, 127
2, 98498, Note_on_c, 12, 47, 127
2, 98669, Note_off_c, 12, 47, 127
2, 98673, Note_on_c, 10, 45, 127
2, 98846, Note_off_c, 10, 57, 127
2, 98846, Note_off_c, 4, 64, 127
2, 98846, Note_off_c, 0, 60, 127
2, 98846, Note_off_c, 10, 69, 127
2, 99019, Note_off_c, 10, 45, 127
2, 99023, Note_on_c, 4, 76, 127
2, 99023, Note_on_c, 12, 59, 127
2, 99023, Note_on_c, 8, 56, 127
2, 99368, Note_off_c, 8, 56, 127
2, 99368, Note_off_c, 12, 59, 127
2, 99368, Note_off_c, 4, 76, 127
2, 99372, Note_on_c, 5, 77, 127
2, 99372, Note_on_c, 10, 57, 127
2, 99372, Note_on_c, 0, 60, 127
2, 99721, Note_on_c, 0, 84, 127
2, 100066, Note_off_c, 0, 84, 127
2, 100070, Note_on_c, 0, 84, 127
2, 100243, Note_off_c, 0, 60, 127
2, 100243, Note_off_c, 10, 57, 127
2, 100243, Note_off_c, 5, 77, 127
2, 100416, Note_off_c, 0, 84, 127
2, 100420, Note_on_c, 5, 77, 127
2, 100420, Note_on_c, 0, 60, 127
2, 100420, Note_on_c, 10, 57, 127
2, 100765, Note_off_c, 10, 57, 127
2, 100765, Note_off_c, 0, 60, 127
2, 100765, Note_off_c, 5, 77, 127
2, 100769, Note_on_c, 4, 76, 127
2, 100769, Note_on_c, 8, 56, 127
2, 100769, Note_on_c, 12, 59, 127
2, 101118, Note_on_c, 12, 83, 127
2, 101463, Note_off_c, 12, 83, 127
2, 101467, Note_on_c, 12, 83, 127
2, 101640, Note_off_c, 12, 59, 127
2, 101640, Note_off_c, 8, 56, 127
2, 101640, Note_off_c, 4, 76, 127
2, 101813, Note_off_c, 12, 83, 127
2, 101817, Note_on_c, 4, 76, 127
2, 101817, Note_on_c, 12, 59, 127
2, 101817, Note_on_c, 8, 56, 127
2, 102162, Note_off_c, 8, 56, 127
2, 102162, Note_off_c, 12, 59, 127
2, 102162, Note_off_c, 4, 76, 127
2, 102166, Note_on_c, 5, 77, 127
2, 102166, Note_on_c, 0, 60, 127
2, 102166, Note_on_c, 10, 57, 127
2, 102515, Note_on_c, 0, 84, 127
2, 102855, Note_off_c, 5, 77, 127
2, 102860, Note_off_c, 0, 84, 127
2, 102864, Note_on_c, 0, 84, 127
2, 103037, Note_off_c, 10, 57, 127
2, 103037, Note_off_c, 0, 60, 127
2, 103210, Note_off_c, 0, 84, 127
2, 103214, Note_on_c, 0, 72, 127
2, 103214, Note_on_c, 5, 77, 127
2, 103214, Note_on_c, 10, 57, 127
2, 103559, Note_off_c, 10, 57, 127
2, 103559, Note_off_c, 5, 77, 127
2, 103559, Note_off_c, 0, 72, 127
2, 103563, Note_on_c, 4, 76, 127
2, 103563, Note_on_c, 12, 71, 127
2, 103563, Note_on_c, 8, 56, 127
2, 103908, Note_off_c, 8, 56, 127
2, 103912, Note_on_c, 4, 64, 127
2, 104257, Note_off_c, 4, 64, 127
2, 104261, Note_on_c, 4, 64, 127
2, 104434, Note_off_c, 12, 71, 127
2, 104434, Note_off_c, 4, 76, 127
2, 104607, Note_off_c, 4, 64, 127
2, 104611, Note_on_c, 4, 76, 127
2, 104611, Note_on_c, 12, 71, 127
2, 104611, Note_on_c, 8, 56, 127
2, 104956, Note_off_c, 8, 56, 127
2, 104956, Note_off_c, 12, 71, 127
2, 104956, Note_off_c, 4, 76, 127
2, 104960, Note_on_c, 5, 77, 127
2, 104960, Note_on_c, 0, 72, 127
2, 104960, Note_on_c, 10, 57, 127
2, 105305, Note_off_c, 10, 57, 127
2, 105309, Note_on_c, 5, 65, 127
2, 105654, Note_off_c, 5, 65, 127
2, 105658, Note_on_c, 5, 65, 127
2, 105831, Note_off_c, 0, 72, 127
2, 105831, Note_off_c, 5, 77, 127
2, 106004, Note_off_c, 5, 65, 127
2, 106008, Note_on_c, 0, 72, 127
2, 106008, Note_on_c, 5, 77, 127
2, 106008, Note_on_c, 10, 57, 127
2, 106353, Note_off_c, 10, 57, 127
2, 106353, Note_off_c, 5, 77, 127
2, 106353, Note_off_c, 0, 72, 127
2, 106357, Note_on_c, 4, 76, 127
2, 106357, Note_on_c, 12, 71, 127
2, 106357, Note_on_c, 8, 56, 127
2, 106702, Note_off_c, 8, 56, 127
2, 106706, Note_on_c, 4, 64, 127
2, 107051, Note_off_c, 4, 64, 127
2, 107055, Note_on_c, 4, 64, 127
2, 107228, Note_off_c, 12, 71, 127
2, 107392, Note_off_c, 4, 76, 127
2, 107401, Note_off_c, 4, 64, 127
2, 107405, Note_on_c, 4, 76, 127
2, 107405, Note_on_c, 12, 71, 127
2, 107405, Note_on_c, 8, 56, 127
2, 107750, Note_off_c, 8, 56, 127
2, 107750, Note_off_c, 12, 71, 127
2, 107750, Note_off_c, 4, 76, 127
2, 107754, Note_on_c, 5, 77, 127
2, 107754, Note_on_c, 0, 72, 127
2, 107754, Note_on_c, 10, 57, 127
2, 107925, Note_off_c, 10, 57, 127
2, 107929, Note_on_c, 0, 60, 127
2, 108100, Note_off_c, 0, 60, 127
2, 108104, Note_on_c, 5, 65, 127
2, 108275, Note_off_c, 5, 65, 127
2, 108279, Note_on_c, 0, 60, 127
2, 108450, Note_off_c, 0, 60, 127
2, 108454, Note_on_c, 10, 57, 127
2, 108625, Note_off_c, 10, 57, 127
2, 108627, Note_off_c, 0, 72, 127
2, 108629, Note_on_c, 0, 60, 127
2, 108791, Note_off_c, 5, 77, 127
2, 108800, Note_off_c, 0, 60, 127
2, 108804, Note_on_c, 0, 72, 127
2, 108804, Note_on_c, 5, 77, 127
2, 108804, Note_on_c, 5, 65, 127
2, 109149, Note_off_c, 5, 65, 127
2, 109149, Note_off_c, 5, 77, 127
2, 109149, Note_off_c, 0, 72, 127
2, 109153, Note_on_c, 4, 76, 127
2, 109153, Note_on_c, 12, 71, 127
2, 109153, Note_on_c, 8, 56, 127
2, 109498, Note_off_c, 8, 56, 127
2, 109502, Note_on_c, 4, 64, 127
2, 109847, Note_off_c, 4, 64, 127
2, 109851, Note_on_c, 4, 64, 127
2, 110024, Note_off_c, 12, 71, 127
2, 110188, Note_off_c, 4, 76, 127
2, 110197, Note_off_c, 4, 64, 127
2, 110201, Note_on_c, 2, 74, 127
2, 110201, Note_on_c, 12, 71, 127
2, 110201, Note_on_c, 8, 56, 127
2, 110546, Note_off_c, 8, 56, 127
2, 110546, Note_off_c, 12, 71, 127
2, 110546, Note_off_c, 2, 74, 127
2, 110550, Note_on_c, 10, 69, 127
2, 110550, Note_on_c, 0, 72, 127
2, 110550, Note_on_c, 10, 57, 127
2, 110721, Note_off_c, 10, 57, 127
2, 110725, Note_on_c, 7, 55, 127
2, 110896, Note_off_c, 7, 55, 127
2, 110896, Note_off_c, 0, 72, 127
2, 110900, Note_on_c, 0, 72, 127
2, 110900, Note_on_c, 6, 54, 127
2, 111071, Note_off_c, 6, 54, 127
2, 111075, Note_on_c, 4, 52, 127
2, 111240, Note_off_c, 10, 69, 127
2, 111245, Note_off_c, 4, 52, 127
2, 111245, Note_off_c, 0, 72, 127
2, 111249, Note_on_c, 2, 74, 127
2, 111249, Note_on_c, 10, 69, 127
2, 111249, Note_on_c, 3, 51, 127
2, 111389, Note_off_c, 2, 74, 127
2, 111391, Note_on_c, 0, 72, 127
2, 111460, Note_on_c, 2, 74, 127
2, 111462, Note_off_c, 0, 72, 127
2, 111529, Note_on_c, 0, 72, 127
2, 111531, Note_off_c, 2, 74, 127
2, 111598, Note_on_c, 2, 74, 127
2, 111600, Note_off_c, 0, 72, 127
2, 111667, Note_on_c, 0, 72, 127
2, 111669, Note_off_c, 2, 74, 127
2, 111756, Note_off_c, 10, 69, 127
2, 111769, Note_off_c, 3, 51, 127
2, 111773, Note_off_c, 0, 72, 127
2, 111773, Note_on_c, 12, 71, 127
2, 111773, Note_on_c, 8, 68, 127
2, 111773, Note_on_c, 4, 52, 127
2, 111944, Note_off_c, 4, 52, 127
2, 111944, Note_off_c, 8, 68, 127
2, 111944, Note_off_c, 12, 71, 127
2, 111948, Note_on_c, 12, 71, 127
2, 111948, Note_on_c, 8, 68, 127
2, 111948, Note_on_c, 4, 52, 127
2, 112297, Note_on_c, 4, 40, 127
2, 112637, Note_off_c, 4, 52, 127
2, 112642, Note_off_c, 8, 68, 127
2, 112642, Note_off_c, 12, 71, 127
2, 112670, Note_on_c, 8, 68, 127
2, 112804, Note_off_c, 4, 40, 127
2, 112841, Note_off_c, 8, 68, 127
2, 112845, Note_on_c, 10, 69, 127
2, 113016, Note_off_c, 10, 69, 127
2, 113020, Note_on_c, 4, 52, 127
2, 113020, Note_on_c, 2, 50, 127
2, 113020, Note_on_c, 12, 59, 127
2, 113020, Note_on_c, 6, 66, 127
2, 113191, Note_off_c, 6, 66, 127
2, 113195, Note_on_c, 8, 68, 127
2, 113366, Note_off_c, 8, 68, 127
2, 113366, Note_off_c, 12, 59, 127
2, 113366, Note_off_c, 2, 50, 127
2, 113366, Note_off_c, 4, 52, 127
2, 113370, Note_on_c, 10, 57, 127
2, 113370, Note_on_c, 4, 52, 127
2, 113370, Note_on_c, 0, 48, 127
2, 113370, Note_on_c, 10, 69, 127
2, 113541, Note_off_c, 10, 69, 127
2, 113545, Note_on_c, 12, 71, 127
2, 113716, Note_off_c, 12, 71, 127
2, 113720, Note_on_c, 8, 68, 127
2, 113878, Note_off_c, 0, 48, 127
2, 113878, Note_off_c, 4, 52, 127
2, 113878, Note_off_c, 10, 57, 127
2, 113891, Note_off_c, 8, 68, 127
2, 113895, Note_on_c, 10, 69, 127
2, 114066, Note_off_c, 10, 69, 127
2, 114070, Note_on_c, 12, 47, 127
2, 114070, Note_on_c, 8, 56, 127
2, 114070, Note_on_c, 2, 50, 127
2, 114070, Note_on_c, 12, 71, 127
2, 114241, Note_off_c, 12, 71, 127
2, 114245, Note_on_c, 0, 72, 127
2, 114416, Note_off_c, 0, 72, 127
2, 114420, Note_on_c, 10, 69, 127
2, 114578, Note_off_c, 2, 50, 127
2, 114578, Note_off_c, 8, 56, 127
2, 114578, Note_off_c, 12, 47, 127
2, 114591, Note_off_c, 10, 69, 127
2, 114595, Note_on_c, 12, 71, 127
2, 114766, Note_off_c, 12, 71, 127
2, 114770, Note_on_c, 4, 52, 127
2, 114770, Note_on_c, 10, 45, 127
2, 114770, Note_on_c, 10, 57, 127
2, 114770, Note_on_c, 0, 72, 127
2, 115115, Note_off_c, 0, 72, 127
2, 115119, Note_on_c, 10, 69, 127
2, 115464, Note_off_c, 10, 69, 127
2, 115464, Note_off_c, 10, 57, 127
2, 115464, Note_off_c, 10, 45, 127
2, 115464, Note_off_c, 4, 52, 127
2, 115468, Note_on_c, 8, 56, 127
2, 115468, Note_on_c, 4, 64, 127
2, 115468, Note_on_c, 12, 71, 127
2, 115639, Note_off_c, 8, 56, 127
2, 115643, Note_on_c, 10, 57, 127
2, 115814, Note_off_c, 10, 57, 127
2, 115818, Note_on_c, 6, 54, 127
2, 115976, Note_off_c, 12, 71, 127
2, 115976, Note_off_c, 4, 64, 127
2, 115989, Note_off_c, 6, 54, 127
2, 115993, Note_on_c, 8, 56, 127
2, 116164, Note_off_c, 8, 56, 127
2, 116168, Note_on_c, 10, 57, 127
2, 116168, Note_on_c, 10, 69, 127
2, 116168, Note_on_c, 0, 72, 127
2, 116168, Note_on_c, 4, 64, 127
2, 116339, Note_off_c, 10, 57, 127
2, 116343, Note_on_c, 12, 59, 127
2, 116514, Note_off_c, 12, 59, 127
2, 116518, Note_on_c, 8, 56, 127
2, 116676, Note_off_c, 4, 64, 127
2, 116676, Note_off_c, 0, 72, 127
2, 116676, Note_off_c, 10, 69, 127
2, 116689, Note_off_c, 8, 56, 127
2, 116693, Note_on_c, 10, 57, 127
2, 116864, Note_off_c, 10, 57, 127
2, 116868, Note_on_c, 12, 59, 127
2, 116868, Note_on_c, 12, 71, 127
2, 116868, Note_on_c, 7, 67, 127
2, 116868, Note_on_c, 2, 74, 127
2, 117039, Note_off_c, 12, 59, 127
2, 117043, Note_on_c, 0, 60, 127
2, 117214, Note_off_c, 0, 60, 127
2, 117218, Note_on_c, 10, 57, 127
2, 117376, Note_off_c, 2, 74, 127
2, 117376, Note_off_c, 7, 67, 127
2, 117376, Note_off_c, 12, 71, 127
2, 117389, Note_off_c, 10, 57, 127
2, 117393, Note_on_c, 12, 59, 127
2, 117564, Note_off_c, 12, 59, 127
2, 117568, Note_on_c, 0, 60, 127
2, 117743, Note_on_c, 4, 76, 127
2, 117914, Note_off_c, 4, 76, 127
2, 117918, Note_on_c, 0, 48, 127
2, 117918, Note_on_c, 7, 79, 127
2, 118089, Note_off_c, 7, 79, 127
2, 118093, Note_on_c, 5, 77, 127
2, 118258, Note_off_c, 0, 60, 127
2, 118263, Note_off_c, 5, 77, 127
2, 118267, Note_on_c, 4, 76, 127
2, 118425, Note_off_c, 0, 48, 127
2, 118438, Note_off_c, 4, 76, 127
2, 118442, Note_on_c, 2, 74, 127
2, 118613, Note_off_c, 2, 74, 127
2, 118617, Note_on_c, 0, 60, 127
2, 118617, Note_on_c, 7, 55, 127
2, 118617, Note_on_c, 4, 52, 127
2, 118617, Note_on_c, 0, 72, 127
2, 118788, Note_off_c, 0, 72, 127
2, 118792, Note_on_c, 12, 71, 127
2, 118963, Note_off_c, 12, 71, 127
2, 118963, Note_off_c, 4, 52, 127
2, 118963, Note_off_c, 7, 55, 127
2, 118963, Note_off_c, 0, 60, 127
2, 118967, Note_on_c, 10, 57, 127
2, 118967, Note_on_c, 0, 60, 127
2, 118967, Note_on_c, 5, 53, 127
2, 118967, Note_on_c, 10, 69, 127
2, 119138, Note_off_c, 10, 69, 127
2, 119142, Note_on_c, 5, 77, 127
2, 119313, Note_off_c, 5, 77, 127
2, 119317, Note_on_c, 10, 81, 127
2, 119488, Note_off_c, 10, 81, 127
2, 119492, Note_on_c, 7, 79, 127
2, 119663, Note_off_c, 7, 79, 127
2, 119667, Note_on_c, 5, 77, 127
2, 119838, Note_off_c, 5, 77, 127
2, 119840, Note_off_c, 5, 53, 127
2, 119840, Note_off_c, 0, 60, 127
2, 119840, Note_off_c, 10, 57, 127
2, 119842, Note_on_c, 4, 76, 127
2, 120013, Note_off_c, 4, 76, 127
2, 120017, Note_on_c, 10, 57, 127
2, 120017, Note_on_c, 2, 62, 127
2, 120017, Note_on_c, 5, 53, 127
2, 120017, Note_on_c, 2, 74, 127
2, 120188, Note_off_c, 2, 74, 127
2, 120192, Note_on_c, 0, 72, 127
2, 120363, Note_off_c, 0, 72, 127
2, 120363, Note_off_c, 5, 53, 127
2, 120363, Note_off_c, 2, 62, 127
2, 120363, Note_off_c, 10, 57, 127
2, 120367, Note_on_c, 7, 55, 127
2, 120367, Note_on_c, 2, 62, 127
2, 120367, Note_on_c, 12, 71, 127
2, 120538, Note_off_c, 12, 71, 127
2, 120542, Note_on_c, 7, 67, 127
2, 120713, Note_off_c, 7, 67, 127
2, 120717, Note_on_c, 0, 72, 127
2, 120875, Note_off_c, 2, 62, 127
2, 120891, Note_on_c, 4, 64, 127
2, 121062, Note_off_c, 4, 64, 127
2, 121066, Note_on_c, 2, 62, 127
2, 121224, Note_off_c, 0, 72, 127
2, 121240, Note_on_c, 0, 72, 127
2, 121411, Note_off_c, 0, 72, 127
2, 121415, Note_on_c, 12, 71, 127
2, 121586, Note_off_c, 12, 71, 127
2, 121590, Note_on_c, 2, 74, 127
2, 121755, Note_off_c, 2, 62, 127
2, 121760, Note_off_c, 2, 74, 127
2, 121760, Note_off_c, 7, 55, 127
2, 121764, Note_on_c, 0, 72, 127
2, 121764, Note_on_c, 7, 67, 127
2, 121764, Note_on_c, 4, 64, 127
2, 121939, Note_on_c, 0, 60, 127
2, 122108, Note_off_c, 4, 64, 127
2, 122110, Note_off_c, 0, 60, 127
2, 122114, Note_on_c, 4, 64, 127
2, 122285, Note_off_c, 4, 64, 127
2, 122289, Note_on_c, 2, 62, 127
2, 122460, Note_off_c, 2, 62, 127
2, 122464, Note_on_c, 0, 60, 127
2, 122635, Note_off_c, 0, 60, 127
2, 122637, Note_off_c, 7, 67, 127
2, 122637, Note_off_c, 0, 72, 127
2, 122639, Note_on_c, 12, 59, 127
2, 122810, Note_off_c, 12, 59, 127
2, 122814, Note_on_c, 10, 57, 127
2, 122814, Note_on_c, 0, 72, 127
2, 122814, Note_on_c, 7, 67, 127
2, 122814, Note_on_c, 4, 76, 127
2, 122985, Note_off_c, 10, 57, 127
2, 122989, Note_on_c, 7, 55, 127
2, 123160, Note_off_c, 7, 55, 127
2, 123160, Note_off_c, 4, 76, 127
2, 123160, Note_off_c, 7, 67, 127
2, 123160, Note_off_c, 0, 72, 127
2, 123164, Note_on_c, 5, 53, 127
2, 123164, Note_on_c, 0, 72, 127
2, 123164, Note_on_c, 10, 69, 127
2, 123164, Note_on_c, 5, 77, 127
2, 123335, Note_off_c, 5, 53, 127
2, 123339, Note_on_c, 10, 57, 127
2, 123510, Note_off_c, 10, 57, 127
2, 123514, Note_on_c, 7, 55, 127
2, 123685, Note_off_c, 7, 55, 127
2, 123689, Note_on_c, 10, 57, 127
2, 123860, Note_off_c, 10, 57, 127
2, 123864, Note_on_c, 5, 53, 127
2, 124035, Note_off_c, 5, 53, 127
2, 124037, Note_off_c, 5, 77, 127
2, 124037, Note_off_c, 10, 69, 127
2, 124037, Note_off_c, 0, 72, 127
2, 124039, Note_on_c, 4, 52, 127
2, 124210, Note_off_c, 4, 52, 127
2, 124214, Note_on_c, 2, 50, 127
2, 124214, Note_on_c, 5, 77, 127
2, 124214, Note_on_c, 2, 74, 127
2, 124214, Note_on_c, 10, 69, 127
2, 124385, Note_off_c, 2, 50, 127
2, 124389, Note_on_c, 0, 48, 127
2, 124560, Note_off_c, 0, 48, 127
2, 124560, Note_off_c, 10, 69, 127
2, 124560, Note_off_c, 2, 74, 127
2, 124560, Note_off_c, 5, 77, 127
2, 124564, Note_on_c, 12, 47, 127
2, 124564, Note_on_c, 2, 74, 127
2, 124564, Note_on_c, 7, 67, 127
2, 124564, Note_on_c, 5, 77, 127
2, 124735, Note_off_c, 12, 47, 127
2, 124739, Note_on_c, 7, 43, 127
2, 124910, Note_off_c, 7, 43, 127
2, 124910, Note_off_c, 5, 77, 127
2, 124910, Note_off_c, 2, 74, 127
2, 124914, Note_on_c, 0, 48, 127
2, 124914, Note_on_c, 0, 72, 127
2, 124914, Note_on_c, 4, 76, 127
2, 125085, Note_off_c, 0, 48, 127
2, 125089, Note_on_c, 5, 41, 127
2, 125254, Note_off_c, 7, 67, 127
2, 125259, Note_off_c, 5, 41, 127
2, 125259, Note_off_c, 4, 76, 127
2, 125263, Note_on_c, 7, 43, 127
2, 125263, Note_on_c, 2, 74, 127
2, 125421, Note_off_c, 0, 72, 127
2, 125437, Note_on_c, 10, 69, 127
2, 125608, Note_off_c, 10, 69, 127
2, 125612, Note_on_c, 12, 71, 127
2, 125783, Note_off_c, 12, 71, 127
2, 125787, Note_on_c, 5, 65, 127
2, 125952, Note_off_c, 2, 74, 127
2, 125957, Note_off_c, 5, 65, 127
2, 125957, Note_off_c, 7, 43, 127
2, 125961, Note_on_c, 0, 48, 127
2, 125961, Note_on_c, 4, 64, 127
2, 125961, Note_on_c, 0, 72, 127
2, 125961, Note_on_c, 7, 67, 127
2, 126306, Note_off_c, 0, 48, 127
2, 126310, Note_on_c, 11, 58, 127
2, 126655, Note_off_c, 11, 58, 127
2, 126659, Note_on_c, 11, 58, 127
2, 126832, Note_off_c, 7, 67, 127
2, 126832, Note_off_c, 0, 72, 127
2, 126832, Note_off_c, 4, 64, 127
2, 127005, Note_off_c, 11, 58, 127
2, 127009, Note_on_c, 0, 48, 127
2, 127009, Note_on_c, 7, 67, 127
2, 127009, Note_on_c, 4, 76, 127
2, 127009, Note_on_c, 0, 72, 127
2, 127354, Note_off_c, 0, 72, 127
2, 127354, Note_off_c, 4, 76, 127
2, 127354, Note_off_c, 7, 67, 127
2, 127354, Note_off_c, 0, 48, 127
2, 127358, Note_on_c, 5, 53, 127
2, 127358, Note_on_c, 10, 69, 127
2, 127358, Note_on_c, 5, 77, 127
2, 127358, Note_on_c, 0, 72, 127
2, 127703, Note_off_c, 5, 53, 127
2, 127707, Note_on_c, 0, 60, 127
2, 128052, Note_off_c, 0, 60, 127
2, 128056, Note_on_c, 0, 60, 127
2, 128229, Note_off_c, 0, 72, 127
2, 128229, Note_off_c, 5, 77, 127
2, 128229, Note_off_c, 10, 69, 127
2, 128402, Note_off_c, 0, 60, 127
2, 128406, Note_on_c, 5, 53, 127
2, 128406, Note_on_c, 5, 77, 127
2, 128406, Note_on_c, 2, 74, 127
2, 128406, Note_on_c, 10, 69, 127
2, 128751, Note_off_c, 10, 69, 127
2, 128751, Note_off_c, 2, 74, 127
2, 128751, Note_off_c, 5, 77, 127
2, 128751, Note_off_c, 5, 53, 127
2, 128755, Note_on_c, 0, 48, 127
2, 128755, Note_on_c, 4, 76, 127
2, 128755, Note_on_c, 0, 72, 127
2, 128755, Note_on_c, 7, 79, 127
2, 129100, Note_off_c, 0, 48, 127
2, 129104, Note_on_c, 11, 58, 127
2, 129449, Note_off_c, 11, 58, 127
2, 129453, Note_on_c, 11, 58, 127
2, 129626, Note_off_c, 7, 79, 127
2, 129626, Note_off_c, 0, 72, 127
2, 129626, Note_off_c, 4, 76, 127
2, 129799, Note_off_c, 11, 58, 127
2, 129803, Note_on_c, 0, 48, 127
2, 129803, Note_on_c, 4, 76, 127
2, 129803, Note_on_c, 0, 72, 127
2, 129803, Note_on_c, 7, 79, 127
2, 130148, Note_off_c, 7, 79, 127
2, 130148, Note_off_c, 0, 72, 127
2, 130148, Note_off_c, 4, 76, 127
2, 130148, Note_off_c, 0, 48, 127
2, 130152, Note_on_c, 5, 53, 127
2, 130152, Note_on_c, 10, 81, 127
2, 130323, Note_off_c, 10, 81, 127
2, 130327, Note_on_c, 5, 77, 127
2, 130498, Note_off_c, 5, 77, 127
2, 130498, Note_off_c, 5, 53, 127
2, 130502, Note_on_c, 10, 57, 127
2, 130502, Note_on_c, 0, 72, 127
2, 130673, Note_off_c, 0, 72, 127
2, 130673, Note_off_c, 10, 57, 127
2, 130677, Note_on_c, 11, 58, 127
2, 130677, Note_on_c, 5, 77, 127
2, 130848, Note_off_c, 5, 77, 127
2, 130848, Note_off_c, 11, 58, 127
2, 130852, Note_on_c, 0, 60, 127
2, 130852, Note_on_c, 4, 76, 127
2, 131023, Note_off_c, 4, 76, 127
2, 131027, Note_on_c, 7, 79, 127
2, 131198, Note_off_c, 7, 79, 127
2, 131198, Note_off_c, 0, 60, 127
2, 131202, Note_on_c, 0, 48, 127
2, 131202, Note_on_c, 0, 72, 127
2, 131373, Note_off_c, 0, 72, 127
2, 131377, Note_on_c, 4, 76, 127
2, 131548, Note_off_c, 4, 76, 127
2, 131548, Note_off_c, 0, 48, 127
2, 131552, Note_on_c, 5, 53, 127
2, 131552, Note_on_c, 5, 77, 127
2, 131723, Note_off_c, 5, 53, 127
2, 131727, Note_on_c, 7, 55, 127
2, 131898, Note_off_c, 7, 55, 127
2, 131902, Note_on_c, 10, 57, 127
2, 131902, Note_on_c, 5, 65, 127
2, 132073, Note_off_c, 10, 57, 127
2, 132077, Note_on_c, 5, 53, 127
2, 132248, Note_off_c, 5, 53, 127
2, 132252, Note_on_c, 0, 60, 127
2, 132410, Note_off_c, 5, 65, 127
2, 132423, Note_off_c, 0, 60, 127
2, 132425, Note_off_c, 5, 77, 127
2, 132427, Note_on_c, 2, 62, 127
2, 132598, Note_off_c, 2, 62, 127
2, 132602, Note_on_c, 4, 64, 127
2, 132602, Note_on_c, 7, 79, 127
2, 132773, Note_off_c, 4, 64, 127
2, 132777, Note_on_c, 0, 60, 127
2, 132948, Note_off_c, 0, 60, 127
2, 132948, Note_off_c, 7, 79, 127
2, 132952, Note_on_c, 5, 65, 127
2, 132952, Note_on_c, 10, 81, 127
2, 133123, Note_off_c, 10, 81, 127
2, 133127, Note_on_c, 5, 77, 127
2, 133298, Note_off_c, 5, 77, 127
2, 133298, Note_off_c, 5, 65, 127
2, 133302, Note_on_c, 5, 53, 127
2, 133302, Note_on_c, 2, 74, 127
2, 133473, Note_off_c, 2, 74, 127
2, 133473, Note_off_c, 5, 53, 127
2, 133477, Note_on_c, 7, 55, 127
2, 133477, Note_on_c, 5, 77, 127
2, 133648, Note_off_c, 5, 77, 127
2, 133648, Note_off_c, 7, 55, 127
2, 133652, Note_on_c, 10, 57, 127
2, 133652, Note_on_c, 4, 76, 127
2, 133823, Note_off_c, 4, 76, 127
2, 133827, Note_on_c, 1, 73, 127
2, 133998, Note_off_c, 1, 73, 127
2, 133998, Note_off_c, 10, 57, 127
2, 134002, Note_on_c, 10, 45, 127
2, 134002, Note_on_c, 10, 69, 127
2, 134173, Note_off_c, 10, 69, 127
2, 134177, Note_on_c, 1, 73, 127
2, 134348, Note_off_c, 1, 73, 127
2, 134348, Note_off_c, 10, 45, 127
2, 134352, Note_on_c, 2, 50, 127
2, 134352, Note_on_c, 2, 74, 127
2, 134523, Note_off_c, 2, 50, 127
2, 134527, Note_on_c, 4, 52, 127
2, 134698, Note_off_c, 4, 52, 127
2, 134702, Note_on_c, 5, 53, 127
2, 134702, Note_on_c, 2, 62, 127
2, 134873, Note_off_c, 5, 53, 127
2, 134877, Note_on_c, 2, 50, 127
2, 135048, Note_off_c, 2, 50, 127
2, 135052, Note_on_c, 7, 55, 127
2, 135210, Note_off_c, 2, 62, 127
2, 135223, Note_off_c, 7, 55, 127
2, 135225, Note_off_c, 2, 74, 127
2, 135227, Note_on_c, 10, 57, 127
2, 135398, Note_off_c, 10, 57, 127
2, 135402, Note_on_c, 12, 59, 127
2, 135402, Note_on_c, 7, 79, 127
2, 135573, Note_off_c, 12, 59, 127
2, 135577, Note_on_c, 7, 55, 127
2, 135748, Note_off_c, 7, 55, 127
2, 135748, Note_off_c, 7, 79, 127
2, 135752, Note_on_c, 0, 60, 127
2, 135752, Note_on_c, 4, 76, 127
2, 135923, Note_off_c, 4, 76, 127
2, 135927, Note_on_c, 0, 72, 127
2, 136098, Note_off_c, 0, 72, 127
2, 136098, Note_off_c, 0, 60, 127
2, 136102, Note_on_c, 4, 52, 127
2, 136102, Note_on_c, 7, 67, 127
2, 136273, Note_off_c, 7, 67, 127
2, 136273, Note_off_c, 4, 52, 127
2, 136277, Note_on_c, 5, 53, 127
2, 136277, Note_on_c, 0, 72, 127
2, 136448, Note_off_c, 0, 72, 127
2, 136448, Note_off_c, 5, 53, 127
2, 136452, Note_on_c, 7, 55, 127
2, 136452, Note_on_c, 12, 71, 127
2, 136623, Note_off_c, 12, 71, 127
2, 136627, Note_on_c, 2, 74, 127
2, 136798, Note_off_c, 2, 74, 127
2, 136798, Note_off_c, 7, 55, 127
2, 136802, Note_on_c, 7, 43, 127
2, 136802, Note_on_c, 7, 67, 127
2, 136973, Note_off_c, 7, 67, 127
2, 136977, Note_on_c, 12, 71, 127
2, 137148, Note_off_c, 12, 71, 127
2, 137148, Note_off_c, 7, 43, 127
2, 137152, Note_on_c, 0, 48, 127
2, 137152, Note_on_c, 0, 72, 127
2, 137323, Note_off_c, 0, 48, 127
2, 137327, Note_on_c, 2, 50, 127
2, 137498, Note_off_c, 2, 50, 127
2, 137498, Note_off_c, 0, 72, 127
2, 137502, Note_on_c, 4, 52, 127
2, 137502, Note_on_c, 0, 60, 127
2, 137673, Note_off_c, 4, 52, 127
2, 137677, Note_on_c, 5, 53, 127
2, 137848, Note_off_c, 5, 53, 127
2, 137848, Note_off_c, 0, 60, 127
2, 137852, Note_on_c, 7, 55, 127
2, 137852, Note_on_c, 12, 71, 127
2, 138027, Note_on_c, 5, 65, 127
2, 138198, Note_off_c, 5, 65, 127
2, 138198, Note_off_c, 7, 55, 127
2, 138202, Note_on_c, 7, 43, 127
2, 138202, Note_on_c, 7, 67, 127
2, 138373, Note_off_c, 7, 67, 127
2, 138377, Note_on_c, 5, 65, 127
2, 138542, Note_off_c, 12, 71, 127
2, 138547, Note_off_c, 5, 65, 127
2, 138547, Note_off_c, 7, 43, 127
2, 138551, Note_on_c, 0, 48, 127
2, 138551, Note_on_c, 4, 64, 127
2, 138726, Note_on_c, 7, 67, 127
2, 138897, Note_off_c, 7, 67, 127
2, 138897, Note_off_c, 0, 48, 127
2, 138901, Note_on_c, 4, 52, 127
2, 138901, Note_on_c, 0, 72, 127
2, 139059, Note_off_c, 4, 64, 127
2, 139072, Note_off_c, 4, 52, 127
2, 139076, Note_on_c, 5, 53, 127
2, 139076, Note_on_c, 4, 64, 127
2, 139247, Note_off_c, 4, 64, 127
2, 139247, Note_off_c, 5, 53, 127
2, 139251, Note_on_c, 7, 55, 127
2, 139251, Note_on_c, 2, 62, 127
2, 139409, Note_off_c, 0, 72, 127
2, 139425, Note_on_c, 0, 72, 127
2, 139596, Note_off_c, 0, 72, 127
2, 139596, Note_off_c, 7, 55, 127
2, 139600, Note_on_c, 7, 43, 127
2, 139600, Note_on_c, 12, 71, 127
2, 139758, Note_off_c, 2, 62, 127
2, 139771, Note_off_c, 12, 71, 127
2, 139775, Note_on_c, 2, 74, 127
2, 139946, Note_off_c, 2, 74, 127
2, 139946, Note_off_c, 7, 43, 127
2, 139950, Note_on_c, 0, 48, 127
2, 139950, Note_on_c, 0, 72, 127
2, 140121, Note_off_c, 0, 48, 127
2, 140125, Note_on_c, 12, 47, 127
2, 140296, Note_off_c, 12, 47, 127
2, 140300, Note_on_c, 0, 48, 127
2, 140471, Note_off_c, 0, 48, 127
2, 140475, Note_on_c, 2, 50, 127
2, 140646, Note_off_c, 2, 50, 127
2, 140650, Note_on_c, 0, 48, 127
2, 140821, Note_off_c, 0, 48, 127
2, 140823, Note_off_c, 0, 72, 127
2, 140825, Note_on_c, 12, 47, 127
2, 140996, Note_off_c, 12, 47, 127
2, 141000, Note_on_c, 10, 45, 127
2, 141000, Note_on_c, 0, 72, 127
2, 141171, Note_off_c, 10, 45, 127
2, 141175, Note_on_c, 7, 43, 127
2, 141346, Note_off_c, 7, 43, 127
2, 141346, Note_off_c, 0, 72, 127
2, 141350, Note_on_c, 5, 41, 127
2, 141350, Note_on_c, 2, 74, 127
2, 141521, Note_off_c, 2, 74, 127
2, 141525, Note_on_c, 0, 72, 127
2, 141696, Note_off_c, 0, 72, 127
2, 141696, Note_off_c, 5, 41, 127
2, 141700, Note_on_c, 2, 38, 127
2, 141700, Note_on_c, 12, 71, 127
2, 141871, Note_off_c, 12, 71, 127
2, 141875, Note_on_c, 10, 69, 127
2, 142046, Note_off_c, 10, 69, 127
2, 142046, Note_off_c, 2, 38, 127
2, 142050, Note_on_c, 4, 40, 127
2, 142050, Note_on_c, 8, 68, 127
2, 142221, Note_off_c, 8, 68, 127
2, 142225, Note_on_c, 12, 71, 127
2, 142396, Note_off_c, 12, 71, 127
2, 142400, Note_on_c, 4, 76, 127
2, 142571, Note_off_c, 4, 76, 127
2, 142575, Note_on_c, 8, 68, 127
2, 142740, Note_off_c, 4, 40, 127
2, 142745, Note_off_c, 8, 68, 127
2, 142749, Note_on_c, 10, 69, 127
2, 142833, Note_off_c, 10, 69, 127
2, 142837, Note_on_c, 8, 68, 127
2, 142921, Note_off_c, 8, 68, 127
2, 142925, Note_on_c, 10, 57, 127
2, 142925, Note_on_c, 10, 69, 127
2, 143096, Note_off_c, 10, 57, 127
2, 143100, Note_on_c, 7, 55, 127
2, 143271, Note_off_c, 7, 55, 127
2, 143271, Note_off_c, 10, 69, 127
2, 143275, Note_on_c, 5, 53, 127
2, 143275, Note_on_c, 12, 71, 127
2, 143446, Note_off_c, 12, 71, 127
2, 143446, Note_off_c, 5, 53, 127
2, 143450, Note_on_c, 4, 52, 127
2, 143450, Note_on_c, 0, 72, 127
2, 143621, Note_off_c, 0, 72, 127
2, 143621, Note_off_c, 4, 52, 127
2, 143625, Note_on_c, 2, 50, 127
2, 143625, Note_on_c, 2, 74, 127
2, 143796, Note_off_c, 2, 74, 127
2, 143796, Note_off_c, 2, 50, 127
2, 143800, Note_on_c, 0, 48, 127
2, 143800, Note_on_c, 4, 76, 127
2, 143971, Note_off_c, 4, 76, 127
2, 143971, Note_off_c, 0, 48, 127
2, 143975, Note_on_c, 12, 47, 127
2, 143975, Note_on_c, 5, 77, 127
2, 144146, Note_off_c, 5, 77, 127
2, 144146, Note_off_c, 12, 47, 127
2, 144150, Note_on_c, 0, 48, 127
2, 144150, Note_on_c, 4, 76, 127
2, 144321, Note_off_c, 4, 76, 127
2, 144325, Note_on_c, 8, 80, 127
2, 144496, Note_off_c, 8, 80, 127
2, 144500, Note_on_c, 10, 81, 127
2, 144671, Note_off_c, 0, 48, 127
2, 144675, Note_on_c, 2, 50, 127
2, 144675, Note_on_c, 0, 72, 127
2, 144846, Note_off_c, 0, 72, 127
2, 144846, Note_off_c, 2, 50, 127
2, 144850, Note_on_c, 4, 52, 127
2, 144850, Note_on_c, 12, 71, 127
2, 145008, Note_off_c, 10, 81, 127
2, 145024, Note_on_c, 10, 81, 127
2, 145193, Note_off_c, 12, 71, 127
2, 145195, Note_off_c, 10, 81, 127
2, 145195, Note_off_c, 4, 52, 127
2, 145199, Note_on_c, 4, 40, 127
2, 145199, Note_on_c, 8, 80, 127
2, 145370, Note_off_c, 8, 80, 127
2, 145374, Note_on_c, 12, 83, 127
2, 145545, Note_off_c, 12, 83, 127
2, 145545, Note_off_c, 4, 40, 127
2, 145549, Note_on_c, 10, 45, 127
2, 145549, Note_on_c, 10, 81, 127
2, 145894, Note_off_c, 10, 45, 127
2, 145898, Note_on_c, 10, 57, 127
2, 145898, Note_on_c, 10, 69, 127
2, 146069, Note_off_c, 10, 57, 127
2, 146073, Note_on_c, 12, 59, 127
2, 146238, Note_off_c, 10, 81, 127
2, 146243, Note_off_c, 12, 59, 127
2, 146247, Note_on_c, 0, 60, 127
2, 146405, Note_off_c, 10, 69, 127
2, 146596, Note_on_c, 4, 76, 127
2, 146941, Note_off_c, 4, 76, 127
2, 146941, Note_off_c, 0, 60, 127
2, 146945, Note_on_c, 2, 62, 127
2, 146945, Note_on_c, 5, 77, 127
2, 146945, Note_on_c, 12, 71, 127
2, 147290, Note_off_c, 5, 77, 127
2, 147294, Note_on_c, 4, 76, 127
2, 147634, Note_off_c, 12, 71, 127
2, 147639, Note_off_c, 4, 76, 127
2, 147639, Note_off_c, 2, 62, 127
2, 147643, Note_on_c, 0, 60, 127
2, 147643, Note_on_c, 4, 76, 127
2, 147643, Note_on_c, 0, 72, 127
2, 147988, Note_off_c, 0, 72, 127
2, 147988, Note_off_c, 4, 76, 127
2, 147992, Note_on_c, 2, 74, 127
2, 148337, Note_off_c, 2, 74, 127
2, 148337, Note_off_c, 0, 60, 127
2, 148341, Note_on_c, 7, 55, 127
2, 148341, Note_on_c, 2, 74, 127
2, 148341, Note_on_c, 12, 71, 127
2, 148686, Note_off_c, 2, 74, 127
2, 148690, Note_on_c, 7, 67, 127
2, 149035, Note_off_c, 7, 67, 127
2, 149039, Note_on_c, 7, 67, 127
2, 149212, Note_off_c, 7, 55, 127
2, 149385, Note_off_c, 7, 67, 127
2, 149385, Note_off_c, 12, 71, 127
2, 149389, Note_on_c, 5, 53, 127
2, 149389, Note_on_c, 5, 77, 127
2, 149389, Note_on_c, 2, 74, 127
2, 149734, Note_off_c, 2, 74, 127
2, 149734, Note_off_c, 5, 77, 127
2, 149734, Note_off_c, 5, 53, 127
2, 149738, Note_on_c, 4, 52, 127
2, 149738, Note_on_c, 7, 79, 127
2, 149738, Note_on_c, 1, 73, 127
2, 150083, Note_off_c, 7, 79, 127
2, 150087, Note_on_c, 5, 77, 127
2, 150427, Note_off_c, 1, 73, 127
2, 150432, Note_off_c, 5, 77, 127
2, 150432, Note_off_c, 4, 52, 127
2, 150436, Note_on_c, 2, 50, 127
2, 150436, Note_on_c, 5, 77, 127
2, 150436, Note_on_c, 2, 74, 127
2, 150781, Note_off_c, 2, 74, 127
2, 150781, Note_off_c, 5, 77, 127
2, 150785, Note_on_c, 4, 76, 127
2, 151130, Note_off_c, 4, 76, 127
2, 151130, Note_off_c, 2, 50, 127
2, 151134, Note_on_c, 10, 57, 127
2, 151134, Note_on_c, 4, 76, 127
2, 151134, Note_on_c, 1, 73, 127
2, 151479, Note_off_c, 1, 73, 127
2, 151483, Note_on_c, 10, 69, 127
2, 151828, Note_off_c, 10, 69, 127
2, 151832, Note_on_c, 10, 69, 127
2, 152005, Note_off_c, 10, 57, 127
2, 152178, Note_off_c, 10, 69, 127
2, 152178, Note_off_c, 4, 76, 127
2, 152182, Note_on_c, 4, 52, 127
2, 152182, Note_on_c, 1, 73, 127
2, 152182, Note_on_c, 7, 79, 127
2, 152527, Note_off_c, 7, 79, 127
2, 152527, Note_off_c, 1, 73, 127
2, 152527, Note_off_c, 4, 52, 127
2, 152531, Note_on_c, 5, 53, 127
2, 152531, Note_on_c, 10, 81, 127
2, 152531, Note_on_c, 10, 69, 127
2, 152876, Note_off_c, 10, 69, 127
2, 152876, Note_off_c, 10, 81, 127
2, 152876, Note_off_c, 5, 53, 127
2, 152880, Note_on_c, 7, 55, 127
2, 152880, Note_on_c, 7, 79, 127
2, 152880, Note_on_c, 12, 71, 127
2, 153225, Note_off_c, 12, 71, 127
2, 153225, Note_off_c, 7, 79, 127
2, 153225, Note_off_c, 7, 55, 127
2, 153229, Note_on_c, 10, 57, 127
2, 153229, Note_on_c, 7, 79, 127
2, 153229, Note_on_c, 1, 73, 127
2, 153574, Note_off_c, 7, 79, 127
2, 153578, Note_on_c, 5, 77, 127
2, 153918, Note_off_c, 1, 73, 127
2, 153923, Note_off_c, 5, 77, 127
2, 153923, Note_off_c, 10, 57, 127
2, 153927, Note_on_c, 11, 58, 127
2, 153927, Note_on_c, 5, 77, 127
2, 153927, Note_on_c, 2, 74, 127
2, 154272, Note_off_c, 5, 77, 127
2, 154272, Note_off_c, 11, 58, 127
2, 154276, Note_on_c, 7, 55, 127
2, 154276, Note_on_c, 11, 82, 127
2, 154621, Note_off_c, 11, 82, 127
2, 154621, Note_off_c, 7, 55, 127
2, 154625, Note_on_c, 5, 53, 127
2, 154625, Note_on_c, 10, 81, 127
2, 154970, Note_off_c, 10, 81, 127
2, 154970, Note_off_c, 5, 53, 127
2, 154970, Note_off_c, 2, 74, 127
2, 154974, Note_on_c, 4, 52, 127
2, 154974, Note_on_c, 1, 73, 127
2, 154974, Note_on_c, 7, 79, 127
2, 155319, Note_off_c, 7, 79, 127
2, 155319, Note_off_c, 1, 73, 127
2, 155319, Note_off_c, 4, 52, 127
2, 155323, Note_on_c, 2, 50, 127
2, 155323, Note_on_c, 2, 74, 127
2, 155323, Note_on_c, 5, 77, 127
2, 155668, Note_off_c, 2, 50, 127
2, 155672, Note_on_c, 7, 55, 127
2, 155843, Note_off_c, 5, 77, 127
2, 155847, Note_on_c, 4, 76, 127
2, 156018, Note_off_c, 4, 76, 127
2, 156018, Note_off_c, 7, 55, 127
2, 156022, Note_on_c, 10, 57, 127
2, 156022, Note_on_c, 5, 77, 127
2, 156164, Note_on_c, 4, 76, 127
2, 156166, Note_off_c, 5, 77, 127
2, 156233, Note_on_c, 5, 77, 127
2, 156235, Note_off_c, 4, 76, 127
2, 156302, Note_on_c, 4, 76, 127
2, 156304, Note_off_c, 5, 77, 127
2, 156368, Note_off_c, 10, 57, 127
2, 156368, Note_off_c, 2, 74, 127
2, 156372, Note_on_c, 10, 45, 127
2, 156372, Note_on_c, 1, 73, 127
2, 156372, Note_on_c, 5, 77, 127
2, 156374, Note_off_c, 4, 76, 127
2, 156441, Note_on_c, 4, 76, 127
2, 156443, Note_off_c, 5, 77, 127
2, 156543, Note_off_c, 1, 73, 127
2, 156547, Note_on_c, 2, 74, 127
2, 156556, Note_off_c, 4, 76, 127
2, 156718, Note_off_c, 2, 74, 127
2, 156718, Note_off_c, 10, 45, 127
2, 156722, Note_on_c, 2, 50, 127
2, 156722, Note_on_c, 2, 74, 127
2, 156722, Note_on_c, 10, 69, 127
2, 156722, Note_on_c, 5, 65, 127
2, 156893, Note_off_c, 2, 74, 127
2, 156897, Note_on_c, 5, 77, 127
2, 157066, Note_off_c, 5, 65, 127
2, 157066, Note_off_c, 10, 69, 127
2, 157068, Note_off_c, 5, 77, 127
2, 157072, Note_on_c, 2, 38, 127
2, 157072, Note_on_c, 10, 69, 127
2, 157247, Note_on_c, 0, 72, 127
2, 157412, Note_off_c, 2, 50, 127
2, 157416, Note_off_c, 10, 69, 127
2, 157418, Note_off_c, 0, 72, 127
2, 157422, Note_on_c, 11, 70, 127
2, 157580, Note_off_c, 2, 38, 127
2, 157593, Note_off_c, 11, 70, 127
2, 157597, Note_on_c, 7, 79, 127
2, 157768, Note_off_c, 7, 79, 127
2, 157772, Note_on_c, 7, 55, 127
2, 157772, Note_on_c, 12, 59, 127
2, 157772, Note_on_c, 2, 74, 127
2, 157943, Note_off_c, 2, 74, 127
2, 157947, Note_on_c, 5, 77, 127
2, 158118, Note_off_c, 5, 77, 127
2, 158118, Note_off_c, 12, 59, 127
2, 158118, Note_off_c, 7, 55, 127
2, 158122, Note_on_c, 0, 60, 127
2, 158122, Note_on_c, 4, 76, 127
2, 158293, Note_off_c, 4, 76, 127
2, 158297, Note_on_c, 0, 72, 127
2, 158468, Note_off_c, 0, 72, 127
2, 158472, Note_on_c, 0, 48, 127
2, 158472, Note_on_c, 7, 67, 127
2, 158643, Note_off_c, 7, 67, 127
2, 158647, Note_on_c, 11, 70, 127
2, 158812, Note_off_c, 0, 60, 127
2, 158817, Note_off_c, 11, 70, 127
2, 158821, Note_on_c, 10, 69, 127
2, 158979, Note_off_c, 0, 48, 127
2, 158992, Note_off_c, 10, 69, 127
2, 158996, Note_on_c, 5, 77, 127
2, 159167, Note_off_c, 5, 77, 127
2, 159171, Note_on_c, 5, 53, 127
2, 159171, Note_on_c, 10, 57, 127
2, 159171, Note_on_c, 0, 72, 127
2, 159342, Note_off_c, 0, 72, 127
2, 159346, Note_on_c, 3, 75, 127
2, 159517, Note_off_c, 3, 75, 127
2, 159517, Note_off_c, 10, 57, 127
2, 159517, Note_off_c, 5, 53, 127
2, 159521, Note_on_c, 11, 58, 127
2, 159521, Note_on_c, 2, 74, 127
2, 159692, Note_off_c, 2, 74, 127
2, 159696, Note_on_c, 11, 70, 127
2, 159867, Note_off_c, 11, 70, 127
2, 159871, Note_on_c, 11, 46, 127
2, 159871, Note_on_c, 5, 65, 127
2, 160042, Note_off_c, 5, 65, 127
2, 160046, Note_on_c, 10, 69, 127
2, 160211, Note_off_c, 11, 58, 127
2, 160216, Note_off_c, 10, 69, 127
2, 160220, Note_on_c, 7, 67, 127
2, 160378, Note_off_c, 11, 46, 127
2, 160391, Note_off_c, 7, 67, 127
2, 160395, Note_on_c, 4, 76, 127
2, 160566, Note_off_c, 4, 76, 127
2, 160570, Note_on_c, 4, 52, 127
2, 160570, Note_on_c, 7, 55, 127
2, 160570, Note_on_c, 11, 70, 127
2, 160741, Note_off_c, 11, 70, 127
2, 160745, Note_on_c, 2, 74, 127
2, 160916, Note_off_c, 2, 74, 127
2, 160916, Note_off_c, 7, 55, 127
2, 160916, Note_off_c, 4, 52, 127
2, 160920, Note_on_c, 10, 57, 127
2, 160920, Note_on_c, 1, 73, 127
2, 161091, Note_off_c, 10, 57, 127
2, 161095, Note_on_c, 11, 58, 127
2, 161266, Note_off_c, 11, 58, 127
2, 161266, Note_off_c, 1, 73, 127
2, 161270, Note_on_c, 10, 57, 127
2, 161270, Note_on_c, 10, 69, 127
2, 161441, Note_off_c, 10, 57, 127
2, 161445, Note_on_c, 7, 55, 127
2, 161616, Note_off_c, 7, 55, 127
2, 161620, Note_on_c, 5, 53, 127
2, 161778, Note_off_c, 10, 69, 127
2, 161791, Note_off_c, 5, 53, 127
2, 161795, Note_on_c, 4, 52, 127
2, 161966, Note_off_c, 4, 52, 127
2, 161970, Note_on_c, 5, 53, 127
2, 161970, Note_on_c, 10, 81, 127
2, 162141, Note_off_c, 5, 53, 127
2, 162145, Note_on_c, 2, 50, 127
2, 162316, Note_off_c, 2, 50, 127
2, 162316, Note_off_c, 10, 81, 127
2, 162320, Note_on_c, 7, 55, 127
2, 162320, Note_on_c, 2, 62, 127
2, 162320, Note_on_c, 11, 82, 127
2, 162665, Note_off_c, 11, 82, 127
2, 162669, Note_on_c, 1, 73, 127
2, 163014, Note_off_c, 1, 73, 127
2, 163018, Note_on_c, 2, 74, 127
2, 163191, Note_off_c, 2, 62, 127
2, 163191, Note_off_c, 7, 55, 127
2, 163364, Note_off_c, 2, 74, 127
2, 163368, Note_on_c, 6, 54, 127
2, 163368, Note_on_c, 2, 62, 127
2, 163368, Note_on_c, 10, 81, 127
2, 163713, Note_off_c, 10, 81, 127
2, 163713, Note_off_c, 2, 62, 127
2, 163713, Note_off_c, 6, 54, 127
2, 163717, Note_on_c, 7, 55, 127
2, 163717, Note_on_c, 2, 62, 127
2, 163717, Note_on_c, 11, 82, 127
2, 164062, Note_off_c, 11, 82, 127
2, 164066, Note_on_c, 1, 73, 127
2, 164411, Note_off_c, 1, 73, 127
2, 164415, Note_on_c, 2, 74, 127
2, 164588, Note_off_c, 2, 62, 127
2, 164588, Note_off_c, 7, 55, 127
2, 164761, Note_off_c, 2, 74, 127
2, 164765, Note_on_c, 4, 52, 127
2, 164765, Note_on_c, 7, 55, 127
2, 164765, Note_on_c, 11, 82, 127
2, 165110, Note_off_c, 11, 82, 127
2, 165110, Note_off_c, 7, 55, 127
2, 165110, Note_off_c, 4, 52, 127
2, 165114, Note_on_c, 1, 49, 127
2, 165114, Note_on_c, 10, 57, 127
2, 165114, Note_on_c, 10, 81, 127
2, 165459, Note_off_c, 10, 81, 127
2, 165459, Note_off_c, 1, 49, 127
2, 165463, Note_on_c, 2, 50, 127
2, 165463, Note_on_c, 7, 79, 127
2, 165634, Note_off_c, 7, 79, 127
2, 165638, Note_on_c, 5, 77, 127
2, 165803, Note_off_c, 10, 57, 127
2, 165808, Note_off_c, 5, 77, 127
2, 165808, Note_off_c, 2, 50, 127
2, 165812, Note_on_c, 7, 55, 127
2, 165812, Note_on_c, 5, 77, 127
2, 165983, Note_off_c, 5, 77, 127
2, 165987, Note_on_c, 4, 76, 127
2, 166158, Note_off_c, 4, 76, 127
2, 166158, Note_off_c, 7, 55, 127
2, 166162, Note_on_c, 10, 57, 127
2, 166162, Note_on_c, 1, 61, 127
2, 166162, Note_on_c, 5, 77, 127
2, 166333, Note_off_c, 5, 77, 127
2, 166337, Note_on_c, 7, 79, 127
2, 166508, Note_off_c, 7, 79, 127
2, 166508, Note_off_c, 1, 61, 127
2, 166508, Note_off_c, 10, 57, 127
2, 166512, Note_on_c, 2, 62, 127
2, 166512, Note_on_c, 2, 50, 127
2, 166512, Note_on_c, 5, 77, 127
2, 166683, Note_off_c, 5, 77, 127
2, 166687, Note_on_c, 4, 76, 127
2, 166858, Note_off_c, 4, 76, 127
2, 166862, Note_on_c, 2, 74, 127
2, 167033, Note_off_c, 2, 50, 127
2, 167037, Note_on_c, 4, 52, 127
2, 167208, Note_off_c, 4, 52, 127
2, 167212, Note_on_c, 5, 53, 127
2, 167297, Note_off_c, 2, 74, 127
2, 167384, Note_off_c, 2, 62, 127
2, 167386, Note_on_c, 2, 74, 127
2, 167557, Note_off_c, 2, 74, 127
2, 167557, Note_off_c, 5, 53, 127
2, 167561, Note_on_c, 10, 57, 127
2, 167561, Note_on_c, 2, 50, 127
2, 167561, Note_on_c, 4, 76, 127
2, 167732, Note_off_c, 4, 76, 127
2, 167736, Note_on_c, 5, 77, 127
2, 167907, Note_off_c, 5, 77, 127
2, 167907, Note_off_c, 2, 50, 127
2, 167907, Note_off_c, 10, 57, 127
2, 167911, Note_on_c, 12, 59, 127
2, 167911, Note_on_c, 7, 55, 127
2, 167911, Note_on_c, 12, 71, 127
2, 168082, Note_off_c, 12, 71, 127
2, 168086, Note_on_c, 2, 74, 127
2, 168257, Note_off_c, 2, 74, 127
2, 168261, Note_on_c, 4, 76, 127
2, 168419, Note_off_c, 7, 55, 127
2, 168419, Note_off_c, 12, 59, 127
2, 168432, Note_off_c, 4, 76, 127
2, 168436, Note_on_c, 5, 77, 127
2, 168607, Note_off_c, 5, 77, 127
2, 168611, Note_on_c, 0, 48, 127
2, 168611, Note_on_c, 7, 55, 127
2, 168611, Note_on_c, 0, 60, 127
2, 168611, Note_on_c, 4, 76, 127
2, 168782, Note_off_c, 4, 76, 127
2, 168786, Note_on_c, 7, 79, 127
2, 168957, Note_off_c, 7, 79, 127
2, 168961, Note_on_c, 10, 81, 127
2, 169119, Note_off_c, 0, 60, 127
2, 169119, Note_off_c, 7, 55, 127
2, 169119, Note_off_c, 0, 48, 127
2, 169132, Note_off_c, 10, 81, 127
2, 169136, Note_on_c, 11, 82, 127
2, 169307, Note_off_c, 11, 82, 127
2, 169311, Note_on_c, 5, 53, 127
2, 169311, Note_on_c, 10, 57, 127
2, 169311, Note_on_c, 0, 60, 127
2, 169311, Note_on_c, 10, 81, 127
2, 169482, Note_off_c, 10, 81, 127
2, 169486, Note_on_c, 0, 72, 127
2, 169657, Note_off_c, 0, 72, 127
2, 169661, Note_on_c, 2, 74, 127
2, 169819, Note_off_c, 0, 60, 127
2, 169819, Note_off_c, 10, 57, 127
2, 169819, Note_off_c, 5, 53, 127
2, 169832, Note_off_c, 2, 74, 127
2, 169836, Note_on_c, 4, 76, 127
2, 170007, Note_off_c, 4, 76, 127
2, 170011, Note_on_c, 2, 50, 127
2, 170011, Note_on_c, 10, 57, 127
2, 170011, Note_on_c, 5, 53, 127
2, 170011, Note_on_c, 2, 62, 127
2, 170011, Note_on_c, 5, 77, 127
2, 170182, Note_off_c, 5, 77, 127
2, 170186, Note_on_c, 10, 81, 127
2, 170357, Note_off_c, 10, 81, 127
2, 170361, Note_on_c, 12, 83, 127
2, 170519, Note_off_c, 2, 62, 127
2, 170519, Note_off_c, 5, 53, 127
2, 170519, Note_off_c, 10, 57, 127
2, 170519, Note_off_c, 2, 50, 127
2, 170532, Note_off_c, 12, 83, 127
2, 170536, Note_on_c, 0, 84, 127
2, 170707, Note_off_c, 0, 84, 127
2, 170711, Note_on_c, 7, 67, 127
2, 170711, Note_on_c, 12, 83, 127
2, 170882, Note_off_c, 12, 83, 127
2, 170882, Note_off_c, 7, 67, 127
2, 170886, Note_on_c, 10, 69, 127
2, 170886, Note_on_c, 0, 84, 127
2, 171057, Note_off_c, 0, 84, 127
2, 171057, Note_off_c, 10, 69, 127
2, 171061, Note_on_c, 7, 67, 127
2, 171061, Note_on_c, 12, 83, 127
2, 171232, Note_off_c, 12, 83, 127
2, 171232, Note_off_c, 7, 67, 127
2, 171236, Note_on_c, 5, 65, 127
2, 171236, Note_on_c, 10, 81, 127
2, 171407, Note_off_c, 10, 81, 127
2, 171407, Note_off_c, 5, 65, 127
2, 171411, Note_on_c, 4, 64, 127
2, 171411, Note_on_c, 12, 83, 127
2, 171582, Note_off_c, 12, 83, 127
2, 171582, Note_off_c, 4, 64, 127
2, 171586, Note_on_c, 2, 62, 127
2, 171586, Note_on_c, 7, 79, 127
2, 171757, Note_off_c, 7, 79, 127
2, 171757, Note_off_c, 2, 62, 127
2, 171761, Note_on_c, 0, 60, 127
2, 171761, Note_on_c, 2, 74, 127
2, 171932, Note_off_c, 2, 74, 127
2, 171932, Note_off_c, 0, 60, 127
2, 171936, Note_on_c, 12, 59, 127
2, 171936, Note_on_c, 5, 77, 127
2, 172107, Note_off_c, 5, 77, 127
2, 172107, Note_off_c, 12, 59, 127
2, 172111, Note_on_c, 0, 60, 127
2, 172111, Note_on_c, 4, 76, 127
2, 172282, Note_off_c, 0, 60, 127
2, 172286, Note_on_c, 2, 62, 127
2, 172457, Note_off_c, 2, 62, 127
2, 172457, Note_off_c, 4, 76, 127
2, 172461, Note_on_c, 0, 60, 127
2, 172461, Note_on_c, 0, 72, 127
2, 172632, Note_off_c, 0, 60, 127
2, 172636, Note_on_c, 12, 59, 127
2, 172807, Note_off_c, 12, 59, 127
2, 172811, Note_on_c, 10, 57, 127
2, 172896, Note_off_c, 0, 72, 127
2, 172981, Note_off_c, 10, 57, 127
2, 172985, Note_on_c, 7, 55, 127
2, 172985, Note_on_c, 10, 69, 127
2, 173156, Note_off_c, 10, 69, 127
2, 173156, Note_off_c, 7, 55, 127
2, 173160, Note_on_c, 5, 53, 127
2, 173160, Note_on_c, 12, 71, 127
2, 173331, Note_off_c, 12, 71, 127
2, 173331, Note_off_c, 5, 53, 127
2, 173335, Note_on_c, 4, 52, 127
2, 173335, Note_on_c, 0, 72, 127
2, 173506, Note_off_c, 0, 72, 127
2, 173506, Note_off_c, 4, 52, 127
2, 173510, Note_on_c, 2, 50, 127
2, 173510, Note_on_c, 12, 71, 127
2, 173681, Note_off_c, 12, 71, 127
2, 173685, Note_on_c, 0, 72, 127
2, 173856, Note_off_c, 0, 72, 127
2, 173860, Note_on_c, 12, 71, 127
2, 174031, Note_off_c, 12, 71, 127
2, 174035, Note_on_c, 10, 69, 127
2, 174206, Note_off_c, 10, 69, 127
2, 174210, Note_on_c, 2, 74, 127
2, 174381, Note_off_c, 2, 74, 127
2, 174383, Note_off_c, 2, 50, 127
2, 174385, Note_on_c, 0, 72, 127
2, 174556, Note_off_c, 0, 72, 127
2, 174560, Note_on_c, 5, 53, 127
2, 174560, Note_on_c, 2, 50, 127
2, 174560, Note_on_c, 12, 71, 127
2, 174731, Note_off_c, 12, 71, 127
2, 174735, Note_on_c, 10, 69, 127
2, 174906, Note_off_c, 10, 69, 127
2, 174906, Note_off_c, 2, 50, 127
2, 174906, Note_off_c, 5, 53, 127
2, 174910, Note_on_c, 4, 52, 127
2, 174910, Note_on_c, 8, 68, 127
2, 175081, Note_off_c, 8, 68, 127
2, 175085, Note_on_c, 10, 69, 127
2, 175256, Note_off_c, 10, 69, 127
2, 175256, Note_off_c, 4, 52, 127
2, 175260, Note_on_c, 6, 54, 127
2, 175260, Note_on_c, 12, 71, 127
2, 175431, Note_off_c, 12, 71, 127
2, 175435, Note_on_c, 0, 72, 127
2, 175606, Note_off_c, 0, 72, 127
2, 175606, Note_off_c, 6, 54, 127
2, 175610, Note_on_c, 8, 56, 127
2, 175610, Note_on_c, 12, 71, 127
2, 175781, Note_off_c, 12, 71, 127
2, 175785, Note_on_c, 8, 68, 127
2, 175956, Note_off_c, 8, 68, 127
2, 175956, Note_off_c, 8, 56, 127
2, 175960, Note_on_c, 4, 52, 127
2, 175960, Note_on_c, 10, 69, 127
2, 176131, Note_off_c, 10, 69, 127
2, 176135, Note_on_c, 12, 71, 127
2, 176306, Note_off_c, 12, 71, 127
2, 176306, Note_off_c, 4, 52, 127
2, 176310, Note_on_c, 10, 57, 127
2, 176310, Note_on_c, 0, 72, 127
2, 176481, Note_off_c, 0, 72, 127
2, 176485, Note_on_c, 2, 74, 127
2, 176656, Note_off_c, 2, 74, 127
2, 176656, Note_off_c, 10, 57, 127
2, 176660, Note_on_c, 12, 59, 127
2, 176660, Note_on_c, 4, 76, 127
2, 176831, Note_off_c, 4, 76, 127
2, 176835, Note_on_c, 5, 77, 127
2, 177006, Note_off_c, 5, 77, 127
2, 177006, Note_off_c, 12, 59, 127
2, 177010, Note_on_c, 0, 60, 127
2, 177010, Note_on_c, 4, 76, 127
2, 177181, Note_off_c, 4, 76, 127
2, 177185, Note_on_c, 0, 72, 127
2, 177356, Note_off_c, 0, 72, 127
2, 177356, Note_off_c, 0, 60, 127
2, 177360, Note_on_c, 10, 57, 127
2, 177360, Note_on_c, 2, 74, 127
2, 177531, Note_off_c, 2, 74, 127
2, 177535, Note_on_c, 4, 76, 127
2, 177706, Note_off_c, 4, 76, 127
2, 177706, Note_off_c, 10, 57, 127
2, 177710, Note_on_c, 2, 62, 127
2, 177710, Note_on_c, 5, 77, 127
2, 177881, Note_off_c, 5, 77, 127
2, 177885, Note_on_c, 7, 79, 127
2, 178056, Note_off_c, 7, 79, 127
2, 178056, Note_off_c, 2, 62, 127
2, 178060, Note_on_c, 4, 64, 127
2, 178060, Note_on_c, 10, 81, 127
2, 178231, Note_off_c, 10, 81, 127
2, 178235, Note_on_c, 11, 82, 127
2, 178406, Note_off_c, 11, 82, 127
2, 178406, Note_off_c, 4, 64, 127
2, 178410, Note_on_c, 5, 65, 127
2, 178410, Note_on_c, 10, 81, 127
2, 178581, Note_off_c, 10, 81, 127
2, 178585, Note_on_c, 8, 80, 127
2, 178756, Note_off_c, 8, 80, 127
2, 178756, Note_off_c, 5, 65, 127
2, 178760, Note_on_c, 2, 62, 127
2, 178760, Note_on_c, 10, 81, 127
2, 178931, Note_off_c, 10, 81, 127
2, 178935, Note_on_c, 12, 83, 127
2, 179106, Note_off_c, 12, 83, 127
2, 179106, Note_off_c, 2, 62, 127
2, 179110, Note_on_c, 4, 64, 127
2, 179110, Note_on_c, 8, 80, 127
2, 179281, Note_off_c, 8, 80, 127
2, 179281, Note_off_c, 4, 64, 127
2, 179285, Note_on_c, 5, 65, 127
2, 179285, Note_on_c, 10, 81, 127
2, 179456, Note_off_c, 10, 81, 127
2, 179456, Note_off_c, 5, 65, 127
2, 179460, Note_on_c, 4, 64, 127
2, 179460, Note_on_c, 7, 79, 127
2, 179631, Note_off_c, 7, 79, 127
2, 179631, Note_off_c, 4, 64, 127
2, 179635, Note_on_c, 2, 62, 127
2, 179635, Note_on_c, 5, 77, 127
2, 179806, Note_off_c, 5, 77, 127
2, 179806, Note_off_c, 2, 62, 127
2, 179810, Note_on_c, 0, 60, 127
2, 179810, Note_on_c, 4, 76, 127
2, 179981, Note_off_c, 4, 76, 127
2, 179981, Note_off_c, 0, 60, 127
2, 179985, Note_on_c, 12, 59, 127
2, 179985, Note_on_c, 5, 77, 127
2, 180156, Note_off_c, 5, 77, 127
2, 180156, Note_off_c, 12, 59, 127
2, 180160, Note_on_c, 10, 57, 127
2, 180160, Note_on_c, 4, 76, 127
2, 180331, Note_off_c, 4, 76, 127
2, 180331, Note_off_c, 10, 57, 127
2, 180335, Note_on_c, 8, 56, 127
2, 180335, Note_on_c, 2, 74, 127
2, 180506, Note_off_c, 2, 74, 127
2, 180506, Note_off_c, 8, 56, 127
2, 180510, Note_on_c, 10, 57, 127
2, 180510, Note_on_c, 0, 72, 127
2, 180859, Note_on_c, 2, 50, 127
2, 181030, Note_off_c, 0, 72, 127
2, 181034, Note_on_c, 12, 71, 127
2, 181205, Note_off_c, 12, 71, 127
2, 181205, Note_off_c, 2, 50, 127
2, 181209, Note_on_c, 4, 52, 127
2, 181209, Note_on_c, 0, 72, 127
2, 181351, Note_on_c, 12, 71, 127
2, 181355, Note_off_c, 0, 72, 127
2, 181420, Note_on_c, 0, 72, 127
2, 181435, Note_off_c, 12, 71, 127
2, 181490, Note_on_c, 12, 71, 127
2, 181492, Note_off_c, 0, 72, 127
2, 181556, Note_off_c, 4, 52, 127
2, 181556, Note_off_c, 10, 57, 127
2, 181560, Note_on_c, 8, 68, 127
2, 181560, Note_on_c, 4, 40, 127
2, 181560, Note_on_c, 0, 72, 127
2, 181562, Note_off_c, 12, 71, 127
2, 181629, Note_on_c, 12, 71, 127
2, 181631, Note_off_c, 0, 72, 127
2, 181731, Note_off_c, 8, 68, 127
2, 181735, Note_on_c, 10, 69, 127
2, 181744, Note_off_c, 12, 71, 127
2, 181906, Note_off_c, 10, 69, 127
2, 181906, Note_off_c, 4, 40, 127
2, 181910, Note_on_c, 10, 45, 127
2, 181910, Note_on_c, 10, 69, 127
2, 182259, Note_on_c, 5, 53, 127
2, 182599, Note_off_c, 10, 45, 127
2, 182604, Note_off_c, 5, 53, 127
2, 182608, Note_on_c, 5, 53, 127
2, 182953, Note_off_c, 10, 69, 127
2, 182957, Note_on_c, 10, 45, 127
2, 182957, Note_on_c, 0, 72, 127
2, 182957, Note_on_c, 5, 77, 127
2, 183297, Note_off_c, 5, 53, 127
2, 183302, Note_off_c, 5, 77, 127
2, 183302, Note_off_c, 0, 72, 127
2, 183302, Note_off_c, 10, 45, 127
2, 183306, Note_on_c, 8, 44, 127
2, 183306, Note_on_c, 5, 77, 127
2, 183306, Note_on_c, 12, 71, 127
2, 183651, Note_off_c, 5, 77, 127
2, 183651, Note_off_c, 8, 44, 127
2, 183655, Note_on_c, 4, 52, 127
2, 183655, Note_on_c, 4, 76, 127
2, 184000, Note_off_c, 4, 76, 127
2, 184000, Note_off_c, 4, 52, 127
2, 184004, Note_on_c, 4, 52, 127
2, 184004, Note_on_c, 4, 76, 127
2, 184349, Note_off_c, 4, 76, 127
2, 184349, Note_off_c, 12, 71, 127
2, 184353, Note_on_c, 8, 44, 127
2, 184353, Note_on_c, 12, 71, 127
2, 184353, Note_on_c, 2, 74, 127
2, 184693, Note_off_c, 4, 52, 127
2, 184698, Note_off_c, 2, 74, 127
2, 184698, Note_off_c, 12, 71, 127
2, 184698, Note_off_c, 8, 44, 127
2, 184702, Note_on_c, 10, 45, 127
2, 184702, Note_on_c, 10, 69, 127
2, 184702, Note_on_c, 2, 74, 127
2, 185047, Note_off_c, 2, 74, 127
2, 185047, Note_off_c, 10, 69, 127
2, 185047, Note_off_c, 10, 45, 127
2, 185051, Note_on_c, 5, 53, 127
2, 185051, Note_on_c, 0, 72, 127
2, 185396, Note_off_c, 5, 53, 127
2, 185400, Note_on_c, 5, 53, 127
2, 185558, Note_off_c, 0, 72, 127
2, 185749, Note_on_c, 10, 45, 127
2, 185749, Note_on_c, 5, 77, 127
2, 185749, Note_on_c, 0, 72, 127
2, 186089, Note_off_c, 5, 53, 127
2, 186094, Note_off_c, 0, 72, 127
2, 186094, Note_off_c, 5, 77, 127
2, 186094, Note_off_c, 10, 45, 127
2, 186098, Note_on_c, 8, 44, 127
2, 186098, Note_on_c, 5, 77, 127
2, 186098, Note_on_c, 12, 71, 127
2, 186443, Note_off_c, 5, 77, 127
2, 186447, Note_on_c, 4, 76, 127
2, 186792, Note_off_c, 4, 76, 127
2, 186796, Note_on_c, 4, 76, 127
2, 186969, Note_off_c, 8, 44, 127
2, 187142, Note_off_c, 4, 76, 127
2, 187142, Note_off_c, 12, 71, 127
2, 187146, Note_on_c, 8, 44, 127
2, 187146, Note_on_c, 2, 74, 127
2, 187146, Note_on_c, 12, 71, 127
2, 187491, Note_off_c, 12, 71, 127
2, 187491, Note_off_c, 2, 74, 127
2, 187491, Note_off_c, 8, 44, 127
2, 187495, Note_on_c, 10, 45, 127
2, 187495, Note_on_c, 10, 69, 127
2, 187495, Note_on_c, 2, 74, 127
2, 187666, Note_off_c, 10, 45, 127
2, 187670, Note_on_c, 0, 48, 127
2, 187841, Note_off_c, 0, 48, 127
2, 187841, Note_off_c, 2, 74, 127
2, 187845, Note_on_c, 5, 53, 127
2, 187845, Note_on_c, 0, 72, 127
2, 188016, Note_off_c, 5, 53, 127
2, 188020, Note_on_c, 0, 48, 127
2, 188185, Note_off_c, 10, 69, 127
2, 188190, Note_off_c, 0, 48, 127
2, 188194, Note_on_c, 10, 45, 127
2, 188365, Note_off_c, 10, 45, 127
2, 188369, Note_on_c, 0, 48, 127
2, 188534, Note_off_c, 0, 72, 127
2, 188539, Note_off_c, 0, 48, 127
2, 188543, Note_on_c, 5, 53, 127
2, 188718, Note_on_c, 2, 74, 127
2, 188889, Note_off_c, 2, 74, 127
2, 188889, Note_off_c, 5, 53, 127
2, 188893, Note_on_c, 8, 44, 127
2, 188893, Note_on_c, 4, 76, 127
2, 189064, Note_off_c, 4, 76, 127
2, 189068, Note_on_c, 8, 80, 127
2, 189239, Note_off_c, 8, 80, 127
2, 189243, Note_on_c, 4, 76, 127
2, 189414, Note_off_c, 4, 76, 127
2, 189418, Note_on_c, 12, 71, 127
2, 189589, Note_off_c, 12, 71, 127
2, 189593, Note_on_c, 4, 76, 127
2, 189764, Note_off_c, 4, 76, 127
2, 189766, Note_off_c, 8, 44, 127
2, 189768, Note_on_c, 8, 80, 127
2, 189939, Note_off_c, 8, 80, 127
2, 189943, Note_on_c, 8, 44, 127
2, 189943, Note_on_c, 4, 76, 127
2, 190114, Note_off_c, 4, 76, 127
2, 190118, Note_on_c, 12, 71, 127
2, 190289, Note_off_c, 12, 71, 127
2, 190289, Note_off_c, 8, 44, 127
2, 190293, Note_on_c, 10, 45, 127
2, 190293, Note_on_c, 0, 72, 127
2, 190464, Note_off_c, 10, 45, 127
2, 190468, Note_on_c, 0, 48, 127
2, 190639, Note_off_c, 0, 48, 127
2, 190639, Note_off_c, 0, 72, 127
2, 190643, Note_on_c, 5, 53, 127
2, 190643, Note_on_c, 10, 69, 127
2, 190814, Note_off_c, 5, 53, 127
2, 190818, Note_on_c, 0, 48, 127
2, 190987, Note_off_c, 10, 69, 127
2, 190989, Note_off_c, 0, 48, 127
2, 190993, Note_on_c, 10, 45, 127
2, 191164, Note_off_c, 10, 45, 127
2, 191168, Note_on_c, 0, 48, 127
2, 191339, Note_off_c, 0, 48, 127
2, 191343, Note_on_c, 5, 53, 127
2, 191343, Note_on_c, 5, 77, 127
2, 191343, Note_on_c, 0, 72, 127
2, 191514, Note_off_c, 5, 53, 127
2, 191518, Note_on_c, 10, 45, 127
2, 191689, Note_off_c, 10, 45, 127
2, 191689, Note_off_c, 0, 72, 127
2, 191689, Note_off_c, 5, 77, 127
2, 191693, Note_on_c, 7, 43, 127
2, 191693, Note_on_c, 5, 77, 127
2, 191693, Note_on_c, 12, 71, 127
2, 191864, Note_off_c, 7, 43, 127
2, 191868, Note_on_c, 12, 47, 127
2, 192039, Note_off_c, 12, 47, 127
2, 192039, Note_off_c, 5, 77, 127
2, 192043, Note_on_c, 4, 52, 127
2, 192043, Note_on_c, 4, 76, 127
2, 192214, Note_off_c, 4, 52, 127
2, 192218, Note_on_c, 7, 43, 127
2, 192383, Note_off_c, 12, 71, 127
2, 192388, Note_off_c, 7, 43, 127
2, 192392, Note_on_c, 5, 41, 127
2, 192392, Note_on_c, 10, 69, 127
2, 192563, Note_off_c, 5, 41, 127
2, 192567, Note_on_c, 10, 45, 127
2, 192732, Note_off_c, 4, 76, 127
2, 192737, Note_off_c, 10, 45, 127
2, 192741, Note_on_c, 2, 50, 127
2, 192741, Note_on_c, 2, 74, 127
2, 192912, Note_off_c, 2, 50, 127
2, 192916, Note_on_c, 5, 41, 127
2, 193081, Note_off_c, 10, 69, 127
2, 193086, Note_off_c, 5, 41, 127
2, 193090, Note_on_c, 4, 40, 127
2, 193090, Note_on_c, 8, 68, 127
2, 193261, Note_off_c, 4, 40, 127
2, 193265, Note_on_c, 12, 47, 127
2, 193430, Note_off_c, 2, 74, 127
2, 193435, Note_off_c, 12, 47, 127
2, 193435, Note_off_c, 8, 68, 127
2, 193439, Note_on_c, 4, 52, 127
2, 193439, Note_on_c, 0, 72, 127
2, 193439, Note_on_c, 4, 64, 127
2, 193610, Note_off_c, 0, 72, 127
2, 193610, Note_off_c, 4, 52, 127
2, 193614, Note_on_c, 8, 44, 127
2, 193614, Note_on_c, 12, 71, 127
2, 193783, Note_off_c, 4, 64, 127
2, 193785, Note_off_c, 12, 71, 127
2, 193785, Note_off_c, 8, 44, 127
2, 193789, Note_on_c, 10, 45, 127
2, 193789, Note_on_c, 0, 72, 127
2, 193960, Note_off_c, 10, 45, 127
2, 193964, Note_on_c, 4, 52, 127
2, 194135, Note_off_c, 4, 52, 127
2, 194135, Note_off_c, 0, 72, 127
2, 194139, Note_on_c, 10, 57, 127
2, 194139, Note_on_c, 10, 81, 127
2, 194310, Note_off_c, 10, 81, 127
2, 194310, Note_off_c, 10, 57, 127
2, 194314, Note_on_c, 0, 48, 127
2, 194314, Note_on_c, 7, 79, 127
2, 194485, Note_off_c, 7, 79, 127
2, 194485, Note_off_c, 0, 48, 127
2, 194489, Note_on_c, 2, 50, 127
2, 194489, Note_on_c, 5, 77, 127
2, 194660, Note_off_c, 5, 77, 127
2, 194660, Note_off_c, 2, 50, 127
2, 194664, Note_on_c, 4, 52, 127
2, 194664, Note_on_c, 4, 76, 127
2, 194835, Note_off_c, 4, 76, 127
2, 194835, Note_off_c, 4, 52, 127
2, 194839, Note_on_c, 5, 53, 127
2, 194839, Note_on_c, 2, 74, 127
2, 195010, Note_off_c, 2, 74, 127
2, 195010, Note_off_c, 5, 53, 127
2, 195014, Note_on_c, 2, 50, 127
2, 195014, Note_on_c, 0, 72, 127
2, 195185, Note_off_c, 0, 72, 127
2, 195185, Note_off_c, 2, 50, 127
2, 195189, Note_on_c, 4, 52, 127
2, 195189, Note_on_c, 0, 72, 127
2, 195329, Note_on_c, 12, 71, 127
2, 195331, Note_off_c, 0, 72, 127
2, 195400, Note_off_c, 12, 71, 127
2, 195400, Note_on_c, 0, 72, 127
2, 195469, Note_on_c, 12, 71, 127
2, 195471, Note_off_c, 0, 72, 127
2, 195538, Note_on_c, 4, 40, 127
2, 195538, Note_on_c, 0, 72, 127
2, 195540, Note_off_c, 12, 71, 127
2, 195607, Note_on_c, 12, 71, 127
2, 195609, Note_off_c, 0, 72, 127
2, 195711, Note_off_c, 12, 71, 127
2, 195713, Note_on_c, 10, 69, 127
2, 195878, Note_off_c, 4, 52, 127
2, 195883, Note_off_c, 10, 69, 127
2, 195883, Note_off_c, 4, 40, 127
2, 195887, Note_on_c, 10, 45, 127
2, 195887, Note_on_c, 10, 69, 127
2, 196058, Note_off_c, 10, 45, 127
2, 196062, Note_on_c, 4, 52, 127
2, 196233, Note_off_c, 4, 52, 127
2, 196237, Note_on_c, 6, 54, 127
2, 196408, Note_off_c, 6, 54, 127
2, 196412, Note_on_c, 8, 56, 127
2, 196583, Note_off_c, 8, 56, 127
2, 196587, Note_on_c, 10, 57, 127
2, 196758, Note_off_c, 10, 57, 127
2, 196760, Note_off_c, 10, 69, 127
2, 196762, Note_on_c, 4, 52, 127
2, 196933, Note_off_c, 4, 52, 127
2, 196937, Note_on_c, 0, 48, 127
2, 196937, Note_on_c, 10, 81, 127
2, 197108, Note_off_c, 0, 48, 127
2, 197112, Note_on_c, 10, 45, 127
2, 197283, Note_off_c, 10, 45, 127
2, 197283, Note_off_c, 10, 81, 127
2, 197287, Note_on_c, 4, 52, 127
2, 197287, Note_on_c, 8, 80, 127
2, 197458, Note_off_c, 4, 52, 127
2, 197462, Note_on_c, 5, 53, 127
2, 197633, Note_off_c, 5, 53, 127
2, 197633, Note_off_c, 8, 80, 127
2, 197637, Note_on_c, 4, 52, 127
2, 197637, Note_on_c, 5, 77, 127
2, 197808, Note_off_c, 4, 52, 127
2, 197812, Note_on_c, 2, 50, 127
2, 197983, Note_off_c, 2, 50, 127
2, 197983, Note_off_c, 5, 77, 127
2, 197987, Note_on_c, 0, 48, 127
2, 197987, Note_on_c, 4, 76, 127
2, 198158, Note_off_c, 0, 48, 127
2, 198162, Note_on_c, 2, 50, 127
2, 198333, Note_off_c, 2, 50, 127
2, 198333, Note_off_c, 4, 76, 127
2, 198337, Note_on_c, 0, 48, 127
2, 198337, Note_on_c, 2, 74, 127
2, 198508, Note_off_c, 0, 48, 127
2, 198512, Note_on_c, 12, 47, 127
2, 198683, Note_off_c, 12, 47, 127
2, 198683, Note_off_c, 2, 74, 127
2, 198687, Note_on_c, 10, 45, 127
2, 198687, Note_on_c, 0, 72, 127
2, 198858, Note_off_c, 10, 45, 127
2, 198862, Note_on_c, 4, 52, 127
2, 199033, Note_off_c, 4, 52, 127
2, 199033, Note_off_c, 0, 72, 127
2, 199037, Note_on_c, 6, 54, 127
2, 199037, Note_on_c, 12, 71, 127
2, 199208, Note_off_c, 6, 54, 127
2, 199212, Note_on_c, 8, 56, 127
2, 199383, Note_off_c, 8, 56, 127
2, 199383, Note_off_c, 12, 71, 127
2, 199387, Note_on_c, 10, 57, 127
2, 199387, Note_on_c, 10, 69, 127
2, 199558, Note_off_c, 10, 69, 127
2, 199562, Note_on_c, 12, 71, 127
2, 199733, Note_off_c, 12, 71, 127
2, 199737, Note_on_c, 10, 45, 127
2, 199737, Note_on_c, 0, 72, 127
2, 199908, Note_off_c, 0, 72, 127
2, 199912, Note_on_c, 2, 74, 127
2, 200077, Note_off_c, 10, 57, 127
2, 200082, Note_off_c, 2, 74, 127
2, 200082, Note_off_c, 10, 45, 127
2, 200086, Note_on_c, 7, 55, 127
2, 200086, Note_on_c, 4, 76, 127
2, 200257, Note_off_c, 4, 76, 127
2, 200261, Note_on_c, 5, 77, 127
2, 200432, Note_off_c, 5, 77, 127
2, 200432, Note_off_c, 7, 55, 127
2, 200436, Note_on_c, 5, 53, 127
2, 200436, Note_on_c, 4, 76, 127
2, 200607, Note_off_c, 4, 76, 127
2, 200611, Note_on_c, 2, 74, 127
2, 200782, Note_off_c, 2, 74, 127
2, 200782, Note_off_c, 5, 53, 127
2, 200786, Note_on_c, 4, 52, 127
2, 200786, Note_on_c, 0, 72, 127
2, 200957, Note_off_c, 0, 72, 127
2, 200961, Note_on_c, 2, 74, 127
2, 201132, Note_off_c, 2, 74, 127
2, 201132, Note_off_c, 4, 52, 127
2, 201136, Note_on_c, 2, 50, 127
2, 201136, Note_on_c, 0, 72, 127
2, 201307, Note_off_c, 0, 72, 127
2, 201311, Note_on_c, 12, 71, 127
2, 201482, Note_off_c, 12, 71, 127
2, 201482, Note_off_c, 2, 50, 127
2, 201486, Note_on_c, 0, 48, 127
2, 201486, Note_on_c, 10, 69, 127
2, 201657, Note_off_c, 10, 69, 127
2, 201661, Note_on_c, 4, 76, 127
2, 201832, Note_off_c, 4, 76, 127
2, 201832, Note_off_c, 0, 48, 127
2, 201836, Note_on_c, 12, 47, 127
2, 201836, Note_on_c, 6, 78, 127
2, 202007, Note_off_c, 6, 78, 127
2, 202011, Note_on_c, 8, 80, 127
2, 202182, Note_off_c, 8, 80, 127
2, 202182, Note_off_c, 12, 47, 127
2, 202186, Note_on_c, 10, 45, 127
2, 202186, Note_on_c, 10, 81, 127
2, 202357, Note_off_c, 10, 45, 127
2, 202361, Note_on_c, 10, 57, 127
2, 202361, Note_on_c, 4, 76, 127
2, 202532, Note_off_c, 10, 57, 127
2, 202536, Note_on_c, 4, 52, 127
2, 202536, Note_on_c, 0, 72, 127
2, 202707, Note_off_c, 4, 52, 127
2, 202711, Note_on_c, 0, 48, 127
2, 202711, Note_on_c, 10, 69, 127
2, 202876, Note_off_c, 10, 81, 127
2, 202881, Note_off_c, 10, 69, 127
2, 202881, Note_off_c, 0, 48, 127
2, 202885, Note_on_c, 10, 45, 127
2, 202885, Note_on_c, 10, 81, 127
2, 203056, Note_off_c, 4, 76, 127
2, 203062, Note_off_c, 10, 45, 127
2, 203066, Note_on_c, 10, 57, 127
2, 203066, Note_on_c, 4, 76, 127
2, 203237, Note_off_c, 0, 72, 127
2, 203243, Note_off_c, 10, 57, 127
2, 203247, Note_on_c, 4, 52, 127
2, 203247, Note_on_c, 0, 72, 127
2, 203423, Note_off_c, 4, 52, 127
2, 203427, Note_on_c, 0, 48, 127
2, 203427, Note_on_c, 10, 69, 127
2, 203590, Note_off_c, 4, 76, 127
2, 203598, Note_off_c, 10, 81, 127
2, 203602, Note_off_c, 0, 72, 127
2, 203604, Note_off_c, 10, 69, 127
2, 203604, Note_off_c, 0, 48, 127
2, 203608, Note_on_c, 10, 45, 127
2, 203608, Note_on_c, 6, 78, 127
2, 203796, Note_off_c, 10, 45, 127
2, 203800, Note_on_c, 10, 57, 127
2, 203800, Note_on_c, 3, 75, 127
2, 203992, Note_on_c, 6, 54, 127
2, 203992, Note_on_c, 10, 69, 127
2, 204180, Note_off_c, 6, 54, 127
2, 204184, Note_on_c, 3, 51, 127
2, 204184, Note_on_c, 6, 66, 127
2, 204358, Note_off_c, 10, 57, 127
2, 204458, Note_off_c, 3, 75, 127
2, 204458, Note_off_c, 6, 78, 127
2, 204464, Note_off_c, 3, 51, 127
2, 204470, Note_off_c, 10, 69, 127
2, 204472, Note_off_c, 6, 66, 127
2, 204496, Note_on_c, 12, 71, 127
2, 204496, Note_on_c, 4, 76, 127
2, 204496, Note_on_c, 4, 64, 127
2, 204496, Note_on_c, 8, 68, 127
2, 204496, Note_on_c, 12, 59, 127
2, 204496, Note_on_c, 8, 56, 127
2, 204496, Note_on_c, 4, 52, 127
2, 205896, Note_off_c, 4, 52, 127
2, 205896, Note_off_c, 8, 56, 127
2, 205896, Note_off_c, 12, 59, 127
2, 205896, Note_off_c, 8, 68, 127
2, 205896, Note_off_c, 4, 64, 127
2, 205896, Note_off_c, 4, 76, 127
2, 205896, Note_off_c, 12, 71, 127
2, 206159, Note_on_c, 12, 71, 127
2, 206279, Note_off_c, 12, 71, 127
2, 206295, Note_on_c, 0, 72, 127
2, 206362, Note_off_c, 0, 72, 127
2, 206365, Note_on_c, 2, 74, 127
2, 206432, Note_off_c, 2, 74, 127
2, 206435, Note_on_c, 4, 76, 127
2, 206502, Note_off_c, 4, 76, 127
2, 206505, Note_on_c, 2, 74, 127
2, 206572, Note_off_c, 2, 74, 127
2, 206575, Note_on_c, 0, 72, 127
2, 206642, Note_off_c, 0, 72, 127
2, 206645, Note_on_c, 12, 71, 127
2, 206712, Note_off_c, 12, 71, 127
2, 206715, Note_on_c, 10, 69, 127
2, 206795, Note_off_c, 10, 69, 127
2, 206801, Note_on_c, 12, 71, 127
2, 206868, Note_off_c, 12, 71, 127
2, 206871, Note_on_c, 0, 72, 127
2, 206938, Note_off_c, 0, 72, 127
2, 206941, Note_on_c, 2, 74, 127
2, 207008, Note_off_c, 2, 74, 127
2, 207011, Note_on_c, 0, 72, 127
2, 207078, Note_off_c, 0, 72, 127
2, 207081, Note_on_c, 12, 71, 127
2, 207148, Note_off_c, 12, 71, 127
2, 207151, Note_on_c, 10, 69, 127
2, 207218, Note_off_c, 10, 69, 127
2, 207221, Note_on_c, 7, 67, 127
2, 207301, Note_off_c, 7, 67, 127
2, 207307, Note_on_c, 10, 69, 127
2, 207374, Note_off_c, 10, 69, 127
2, 207377, Note_on_c, 12, 71, 127
2, 207444, Note_off_c, 12, 71, 127
2, 207447, Note_on_c, 0, 72, 127
2, 207514, Note_off_c, 0, 72, 127
2, 207517, Note_on_c, 12, 71, 127
2, 207584, Note_off_c, 12, 71, 127
2, 207587, Note_on_c, 10, 69, 127
2, 207654, Note_off_c, 10, 69, 127
2, 207657, Note_on_c, 7, 67, 127
2, 207724, Note_off_c, 7, 67, 127
2, 207727, Note_on_c, 5, 65, 127
2, 207807, Note_off_c, 5, 65, 127
2, 207813, Note_on_c, 7, 67, 127
2, 207880, Note_off_c, 7, 67, 127
2, 207883, Note_on_c, 10, 69, 127
2, 207950, Note_off_c, 10, 69, 127
2, 207953, Note_on_c, 12, 71, 127
2, 208020, Note_off_c, 12, 71, 127
2, 208023, Note_on_c, 10, 69, 127
2, 208090, Note_off_c, 10, 69, 127
2, 208093, Note_on_c, 7, 67, 127
2, 208160, Note_off_c, 7, 67, 127
2, 208163, Note_on_c, 5, 65, 127
2, 208230, Note_off_c, 5, 65, 127
2, 208233, Note_on_c, 4, 64, 127
2, 208313, Note_off_c, 4, 64, 127
2, 208319, Note_on_c, 5, 65, 127
2, 208386, Note_off_c, 5, 65, 127
2, 208389, Note_on_c, 7, 67, 127
2, 208456, Note_off_c, 7, 67, 127
2, 208459, Note_on_c, 10, 69, 127
2, 208526, Note_off_c, 10, 69, 127
2, 208529, Note_on_c, 7, 67, 127
2, 208596, Note_off_c, 7, 67, 127
2, 208599, Note_on_c, 5, 65, 127
2, 208666, Note_off_c, 5, 65, 127
2, 208669, Note_on_c, 4, 64, 127
2, 208736, Note_off_c, 4, 64, 127
2, 208739, Note_on_c, 2, 62, 127
2, 208819, Note_off_c, 2, 62, 127
2, 208825, Note_on_c, 4, 64, 127
2, 208892, Note_off_c, 4, 64, 127
2, 208895, Note_on_c, 5, 65, 127
2, 208962, Note_off_c, 5, 65, 127
2, 208965, Note_on_c, 7, 67, 127
2, 209032, Note_off_c, 7, 67, 127
2, 209035, Note_on_c, 5, 65, 127
2, 209102, Note_off_c, 5, 65, 127
2, 209105, Note_on_c, 4, 64, 127
2, 209172, Note_off_c, 4, 64, 127
2, 209175, Note_on_c, 2, 62, 127
2, 209242, Note_off_c, 2, 62, 127
2, 209245, Note_on_c, 0, 60, 127
2, 209312, Note_off_c, 0, 60, 127
2, 209315, Note_on_c, 2, 62, 127
2, 209382, Note_off_c, 2, 62, 127
2, 209385, Note_on_c, 4, 64, 127
2, 209452, Note_off_c, 4, 64, 127
2, 209455, Note_on_c, 5, 65, 127
2, 209522, Note_off_c, 5, 65, 127
2, 209525, Note_on_c, 4, 64, 127
2, 209592, Note_off_c, 4, 64, 127
2, 209595, Note_on_c, 2, 62, 127
2, 209662, Note_off_c, 2, 62, 127
2, 209665, Note_on_c, 0, 60, 127
2, 209732, Note_off_c, 0, 60, 127
2, 209735, Note_on_c, 12, 59, 127
2, 209802, Note_off_c, 12, 59, 127
2, 209805, Note_on_c, 10, 57, 127
2, 210210, Note_on_c, 7, 55, 127
2, 210214, Note_off_c, 10, 57, 127
2, 210278, Note_on_c, 5, 53, 127
2, 210290, Note_off_c, 7, 55, 127
2, 210330, Note_on_c, 4, 52, 127
2, 210358, Note_off_c, 5, 53, 127
2, 210382, Note_on_c, 2, 50, 127
2, 210410, Note_off_c, 4, 52, 127
2, 210434, Note_on_c, 0, 48, 127
2, 210462, Note_off_c, 2, 50, 127
2, 210486, Note_on_c, 12, 47, 127
2, 210514, Note_off_c, 0, 48, 127
2, 210538, Note_on_c, 10, 45, 127
2, 210556, Note_off_c, 12, 47, 127
2, 211018, Note_on_c, 4, 52, 127
2, 211018, Note_on_c, 0, 60, 127
2, 211018, Note_on_c, 10, 69, 127
2, 211018, Note_on_c, 4, 64, 127
2, 211338, Note_off_c, 10, 45, 127
2, 211590, Note_off_c, 10, 69, 127
2, 211590, Note_off_c, 0, 60, 127
2, 211594, Note_on_c, 2, 62, 127
2, 211594, Note_on_c, 12, 71, 127
2, 211776, Note_off_c, 4, 52, 127
2, 211782, Note_off_c, 12, 71, 127
2, 211782, Note_off_c, 2, 62, 127
2, 211786, Note_on_c, 12, 59, 127
2, 211786, Note_on_c, 8, 68, 127
2, 211786, Note_on_c, 4, 52, 127
2, 212170, Note_on_c, 4, 40, 127
2, 212344, Note_off_c, 12, 59, 127
2, 212358, Note_off_c, 8, 68, 127
2, 212362, Note_on_c, 0, 60, 127
2, 212362, Note_on_c, 10, 69, 127
2, 212548, Note_off_c, 4, 40, 127
2, 212550, Note_off_c, 10, 69, 127
2, 212550, Note_off_c, 0, 60, 127
2, 212550, Note_off_c, 4, 64, 127
2, 212554, Note_on_c, 10, 57, 127
2, 212554, Note_on_c, 10, 45, 127
2, 212554, Note_on_c, 10, 69, 127
2, 213015, Note_on_c, 1, 61, 127
2, 213015, Note_on_c, 4, 64, 127
2, 213445, Note_off_c, 4, 64, 127
2, 213445, Note_off_c, 1, 61, 127
2, 213476, Note_on_c, 2, 62, 127
2, 213476, Note_on_c, 5, 65, 127
2, 214162, Note_off_c, 5, 65, 127
2, 214162, Note_off_c, 2, 62, 127
2, 214183, Note_on_c, 4, 64, 127
2, 214183, Note_on_c, 1, 61, 127
2, 214393, Note_off_c, 10, 57, 127
2, 214397, Note_off_c, 1, 61, 127
2, 214397, Note_off_c, 4, 64, 127
2, 214414, Note_on_c, 4, 64, 127
2, 214414, Note_on_c, 10, 57, 127
2, 214414, Note_on_c, 1, 61, 127
2, 216224, Note_off_c, 10, 69, 127
2, 216224, Note_off_c, 10, 45, 127
2, 216224, Note_off_c, 4, 52, 127
2, 217171, Note_off_c, 1, 61, 127
2, 217171, Note_off_c, 10, 57, 127
2, 217171, Note_off_c, 4, 64, 127
2, 222720, End_track
3, 0, Start_track
3, 0, Title_t, "MIDI"
3, 1536, End_track
0, 0, End_of_file
