0, 0, Header, 0, 1, 384
1, 0, Start_track
1, 0, Copyright_t, "(C) John Sankey 1998"
1, 0, Program_c, 0, 6
1, 0, Pitch_bend_c, 0, 8192
1, 0, Program_c, 1, 6
1, 0, Pitch_bend_c, 1, 7792
1, 0, Program_c, 2, 6
1, 0, Pitch_bend_c, 2, 7876
1, 0, Program_c, 3, 6
1, 0, Pitch_bend_c, 3, 7952
1, 0, Program_c, 4, 6
1, 0, Pitch_bend_c, 4, 7792
1, 0, Program_c, 5, 6
1, 0, Pitch_bend_c, 5, 8112
1, 0, Program_c, 6, 6
1, 0, Pitch_bend_c, 6, 7712
1, 0, Program_c, 7, 6
1, 0, Pitch_bend_c, 7, 8037
1, 0, Program_c, 8, 6
1, 0, Pitch_bend_c, 8, 7872
1, 0, Program_c, 10, 6
1, 0, Pitch_bend_c, 10, 7712
1, 0, Program_c, 11, 6
1, 0, Pitch_bend_c, 11, 8032
1, 0, Program_c, 12, 6
1, 0, Pitch_bend_c, 12, 7872
1, 0, Tempo, 500000
1, 48, Note_on_c, 0, 60, 127
1, 48, Note_on_c, 0, 48, 127
1, 664, Note_off_c, 0, 48, 127
1, 664, Note_off_c, 0, 60, 127
1, 671, Note_on_c, 4, 64, 127
1, 671, Note_on_c, 4, 52, 127
1, 1136, Note_off_c, 4, 52, 127
1, 1136, Note_off_c, 4, 64, 127
1, 1138, Note_on_c, 5, 65, 127
1, 1138, Note_on_c, 5, 53, 127
1, 1292, Note_off_c, 5, 53, 127
1, 1292, Note_off_c, 5, 65, 127
1, 1294, Note_on_c, 7, 67, 127
1, 1294, Note_on_c, 7, 55, 127
1, 1589, Note_off_c, 7, 55, 127
1, 1589, Note_off_c, 7, 67, 127
1, 1605, Note_on_c, 0, 60, 127
1, 1605, Note_on_c, 0, 48, 127
1, 2124, Note_off_c, 0, 48, 127
1, 2124, Note_off_c, 0, 60, 127
1, 2228, Note_on_c, 7, 67, 127
1, 2228, Note_on_c, 7, 55, 127
1, 2538, Note_off_c, 7, 55, 127
1, 2538, Note_off_c, 7, 67, 127
1, 2540, Note_on_c, 10, 69, 127
1, 2540, Note_on_c, 10, 57, 127
1, 2850, Note_off_c, 10, 57, 127
1, 2850, Note_off_c, 10, 69, 127
1, 2852, Note_on_c, 10, 69, 127
1, 2852, Note_on_c, 10, 57, 127
1, 3162, Note_off_c, 10, 57, 127
1, 3162, Note_off_c, 10, 69, 127
1, 3164, Note_on_c, 10, 69, 127
1, 3164, Note_on_c, 10, 57, 127
1, 3474, Note_off_c, 10, 57, 127
1, 3474, Note_off_c, 10, 69, 127
1, 3476, Note_on_c, 10, 69, 127
1, 3476, Note_on_c, 10, 57, 127
1, 3786, Note_off_c, 10, 57, 127
1, 3786, Note_off_c, 10, 69, 127
1, 3788, Note_on_c, 12, 71, 127
1, 3788, Note_on_c, 12, 59, 127
1, 3942, Note_off_c, 12, 59, 127
1, 3942, Note_off_c, 12, 71, 127
1, 3944, Note_on_c, 10, 69, 127
1, 3944, Note_on_c, 10, 57, 127
1, 4098, Note_off_c, 10, 57, 127
1, 4098, Note_off_c, 10, 69, 127
1, 4100, Note_on_c, 7, 67, 127
1, 4100, Note_on_c, 7, 55, 127
1, 4254, Note_off_c, 7, 55, 127
1, 4254, Note_off_c, 7, 67, 127
1, 4256, Note_on_c, 5, 65, 127
1, 4256, Note_on_c, 5, 53, 127
1, 4410, Note_off_c, 5, 53, 127
1, 4410, Note_off_c, 5, 65, 127
1, 4412, Note_on_c, 7, 67, 127
1, 4412, Note_on_c, 7, 55, 127
1, 4722, Note_off_c, 7, 55, 127
1, 4722, Note_off_c, 7, 67, 127
1, 4724, Note_on_c, 7, 55, 127
1, 4724, Note_on_c, 7, 43, 127
1, 5034, Note_off_c, 7, 43, 127
1, 5034, Note_off_c, 7, 55, 127
1, 5036, Note_on_c, 7, 55, 127
1, 5036, Note_on_c, 7, 43, 127
1, 5336, Note_off_c, 7, 43, 127
1, 5336, Note_off_c, 7, 55, 127
1, 5363, Note_on_c, 7, 55, 127
1, 5363, Note_on_c, 7, 67, 127
1, 5673, Note_off_c, 7, 67, 127
1, 5673, Note_off_c, 7, 55, 127
1, 5675, Note_on_c, 7, 55, 127
1, 5675, Note_on_c, 7, 67, 127
1, 5985, Note_off_c, 7, 67, 127
1, 5985, Note_off_c, 7, 55, 127
1, 5987, Note_on_c, 7, 55, 127
1, 5987, Note_on_c, 7, 67, 127
1, 6297, Note_off_c, 7, 67, 127
1, 6297, Note_off_c, 7, 55, 127
1, 6299, Note_on_c, 10, 57, 127
1, 6299, Note_on_c, 10, 69, 127
1, 6453, Note_off_c, 10, 69, 127
1, 6453, Note_off_c, 10, 57, 127
1, 6455, Note_on_c, 7, 55, 127
1, 6455, Note_on_c, 7, 67, 127
1, 6609, Note_off_c, 7, 67, 127
1, 6609, Note_off_c, 7, 55, 127
1, 6611, Note_on_c, 5, 53, 127
1, 6611, Note_on_c, 5, 65, 127
1, 6765, Note_off_c, 5, 65, 127
1, 6765, Note_off_c, 5, 53, 127
1, 6767, Note_on_c, 4, 52, 127
1, 6767, Note_on_c, 4, 64, 127
1, 6921, Note_off_c, 4, 64, 127
1, 6921, Note_off_c, 4, 52, 127
1, 6923, Note_on_c, 5, 53, 127
1, 6923, Note_on_c, 5, 65, 127
1, 7233, Note_off_c, 5, 65, 127
1, 7233, Note_off_c, 5, 53, 127
1, 7235, Note_on_c, 5, 41, 127
1, 7235, Note_on_c, 5, 53, 127
1, 7545, Note_off_c, 5, 53, 127
1, 7545, Note_off_c, 5, 41, 127
1, 7547, Note_on_c, 5, 41, 127
1, 7547, Note_on_c, 5, 53, 127
1, 7847, Note_off_c, 5, 53, 127
1, 7847, Note_off_c, 5, 41, 127
1, 7874, Note_on_c, 5, 65, 127
1, 7874, Note_on_c, 5, 53, 127
1, 8184, Note_off_c, 5, 53, 127
1, 8184, Note_off_c, 5, 65, 127
1, 8186, Note_on_c, 5, 65, 127
1, 8186, Note_on_c, 5, 53, 127
1, 8496, Note_off_c, 5, 53, 127
1, 8496, Note_off_c, 5, 65, 127
1, 8498, Note_on_c, 5, 65, 127
1, 8498, Note_on_c, 5, 53, 127
1, 8808, Note_off_c, 5, 53, 127
1, 8808, Note_off_c, 5, 65, 127
1, 8810, Note_on_c, 7, 67, 127
1, 8810, Note_on_c, 7, 55, 127
1, 8964, Note_off_c, 7, 55, 127
1, 8964, Note_off_c, 7, 67, 127
1, 8966, Note_on_c, 5, 65, 127
1, 8966, Note_on_c, 5, 53, 127
1, 9120, Note_off_c, 5, 53, 127
1, 9120, Note_off_c, 5, 65, 127
1, 9122, Note_on_c, 4, 64, 127
1, 9122, Note_on_c, 4, 52, 127
1, 9276, Note_off_c, 4, 52, 127
1, 9276, Note_off_c, 4, 64, 127
1, 9278, Note_on_c, 2, 62, 127
1, 9278, Note_on_c, 2, 50, 127
1, 9432, Note_off_c, 2, 50, 127
1, 9432, Note_off_c, 2, 62, 127
1, 9434, Note_on_c, 4, 64, 127
1, 9434, Note_on_c, 4, 52, 127
1, 9744, Note_off_c, 4, 52, 127
1, 9744, Note_off_c, 4, 64, 127
1, 9746, Note_on_c, 7, 55, 127
1, 9746, Note_on_c, 7, 43, 127
1, 10056, Note_off_c, 7, 43, 127
1, 10056, Note_off_c, 7, 55, 127
1, 10058, Note_on_c, 7, 55, 127
1, 10058, Note_on_c, 7, 43, 127
1, 10355, Note_off_c, 7, 43, 127
1, 10355, Note_off_c, 7, 55, 127
1, 10370, Note_on_c, 4, 64, 127
1, 10370, Note_on_c, 4, 52, 127
1, 10680, Note_off_c, 4, 52, 127
1, 10680, Note_off_c, 4, 64, 127
1, 10682, Note_on_c, 4, 64, 127
1, 10682, Note_on_c, 4, 52, 127
1, 10992, Note_off_c, 4, 52, 127
1, 10992, Note_off_c, 4, 64, 127
1, 10994, Note_on_c, 7, 55, 127
1, 10994, Note_on_c, 7, 43, 127
1, 11304, Note_off_c, 7, 43, 127
1, 11304, Note_off_c, 7, 55, 127
1, 11322, Note_on_c, 4, 52, 127
1, 11322, Note_on_c, 4, 64, 127
1, 11387, Note_on_c, 2, 50, 127
1, 11387, Note_on_c, 2, 62, 127
1, 11398, Note_off_c, 4, 64, 127
1, 11398, Note_off_c, 4, 52, 127
1, 11452, Note_on_c, 4, 64, 127
1, 11452, Note_on_c, 4, 52, 127
1, 11463, Note_off_c, 2, 62, 127
1, 11463, Note_off_c, 2, 50, 127
1, 11517, Note_on_c, 2, 50, 127
1, 11517, Note_on_c, 2, 62, 127
1, 11528, Note_off_c, 4, 52, 127
1, 11528, Note_off_c, 4, 64, 127
1, 11582, Note_on_c, 4, 52, 127
1, 11582, Note_on_c, 4, 64, 127
1, 11593, Note_off_c, 2, 62, 127
1, 11593, Note_off_c, 2, 50, 127
1, 11647, Note_on_c, 2, 62, 127
1, 11647, Note_on_c, 2, 50, 127
1, 11658, Note_off_c, 4, 64, 127
1, 11658, Note_off_c, 4, 52, 127
1, 12097, Note_off_c, 2, 50, 127
1, 12097, Note_off_c, 2, 62, 127
1, 12321, Note_on_c, 7, 43, 127
1, 12321, Note_on_c, 7, 55, 127
1, 12631, Note_off_c, 7, 55, 127
1, 12631, Note_off_c, 7, 43, 127
1, 12633, Note_on_c, 0, 48, 127
1, 12633, Note_on_c, 0, 60, 127
1, 12943, Note_off_c, 0, 60, 127
1, 12943, Note_off_c, 0, 48, 127
1, 12945, Note_on_c, 7, 43, 127
1, 12945, Note_on_c, 7, 55, 127
1, 13099, Note_off_c, 7, 55, 127
1, 13099, Note_off_c, 7, 43, 127
1, 13101, Note_on_c, 0, 48, 127
1, 13101, Note_on_c, 0, 60, 127
1, 13255, Note_off_c, 0, 60, 127
1, 13255, Note_off_c, 0, 48, 127
1, 13257, Note_on_c, 2, 50, 127
1, 13257, Note_on_c, 2, 62, 127
1, 13567, Note_off_c, 2, 62, 127
1, 13567, Note_off_c, 2, 50, 127
1, 13569, Note_on_c, 7, 43, 127
1, 13569, Note_on_c, 7, 55, 127
1, 13723, Note_off_c, 7, 55, 127
1, 13723, Note_off_c, 7, 43, 127
1, 13725, Note_on_c, 2, 50, 127
1, 13725, Note_on_c, 2, 62, 127
1, 13879, Note_off_c, 2, 62, 127
1, 13879, Note_off_c, 2, 50, 127
1, 13881, Note_on_c, 4, 52, 127
1, 13881, Note_on_c, 4, 64, 127
1, 14191, Note_off_c, 4, 64, 127
1, 14191, Note_off_c, 4, 52, 127
1, 14193, Note_on_c, 7, 43, 127
1, 14193, Note_on_c, 7, 55, 127
1, 14347, Note_off_c, 7, 55, 127
1, 14347, Note_off_c, 7, 43, 127
1, 14349, Note_on_c, 4, 52, 127
1, 14349, Note_on_c, 4, 64, 127
1, 14503, Note_off_c, 4, 64, 127
1, 14503, Note_off_c, 4, 52, 127
1, 14505, Note_on_c, 5, 53, 127
1, 14505, Note_on_c, 5, 65, 127
1, 14815, Note_off_c, 5, 65, 127
1, 14815, Note_off_c, 5, 53, 127
1, 14817, Note_on_c, 7, 43, 127
1, 14817, Note_on_c, 7, 55, 127
1, 14971, Note_off_c, 7, 55, 127
1, 14971, Note_off_c, 7, 43, 127
1, 14973, Note_on_c, 5, 53, 127
1, 14973, Note_on_c, 5, 65, 127
1, 15127, Note_off_c, 5, 65, 127
1, 15127, Note_off_c, 5, 53, 127
1, 15129, Note_on_c, 7, 55, 127
1, 15129, Note_on_c, 7, 67, 127
1, 15274, Note_off_c, 7, 67, 127
1, 15274, Note_off_c, 7, 55, 127
1, 15285, Note_on_c, 7, 43, 127
1, 15285, Note_on_c, 7, 55, 127
1, 15439, Note_off_c, 7, 55, 127
1, 15439, Note_off_c, 7, 43, 127
1, 15441, Note_on_c, 10, 45, 127
1, 15441, Note_on_c, 10, 57, 127
1, 15595, Note_off_c, 10, 57, 127
1, 15595, Note_off_c, 10, 45, 127
1, 15597, Note_on_c, 12, 47, 127
1, 15597, Note_on_c, 12, 59, 127
1, 15751, Note_off_c, 12, 59, 127
1, 15751, Note_off_c, 12, 47, 127
1, 15753, Note_on_c, 0, 48, 127
1, 15753, Note_on_c, 0, 60, 127
1, 15907, Note_off_c, 0, 60, 127
1, 15907, Note_off_c, 0, 48, 127
1, 15909, Note_on_c, 2, 50, 127
1, 15909, Note_on_c, 2, 62, 127
1, 16063, Note_off_c, 2, 62, 127
1, 16063, Note_off_c, 2, 50, 127
1, 16065, Note_on_c, 4, 52, 127
1, 16065, Note_on_c, 4, 64, 127
1, 16219, Note_off_c, 4, 64, 127
1, 16219, Note_off_c, 4, 52, 127
1, 16221, Note_on_c, 5, 53, 127
1, 16221, Note_on_c, 5, 65, 127
1, 16375, Note_off_c, 5, 65, 127
1, 16375, Note_off_c, 5, 53, 127
1, 16377, Note_on_c, 7, 55, 127
1, 16377, Note_on_c, 7, 67, 127
1, 16531, Note_off_c, 7, 67, 127
1, 16531, Note_off_c, 7, 55, 127
1, 16533, Note_on_c, 5, 53, 127
1, 16533, Note_on_c, 5, 65, 127
1, 16687, Note_off_c, 5, 65, 127
1, 16687, Note_off_c, 5, 53, 127
1, 16689, Note_on_c, 4, 52, 127
1, 16689, Note_on_c, 4, 64, 127
1, 16843, Note_off_c, 4, 64, 127
1, 16843, Note_off_c, 4, 52, 127
1, 16845, Note_on_c, 5, 53, 127
1, 16845, Note_on_c, 5, 65, 127
1, 16999, Note_off_c, 5, 65, 127
1, 16999, Note_off_c, 5, 53, 127
1, 17001, Note_on_c, 7, 55, 127
1, 17001, Note_on_c, 7, 67, 127
1, 17301, Note_off_c, 7, 67, 127
1, 17301, Note_off_c, 7, 55, 127
1, 17312, Note_on_c, 7, 43, 127
1, 17312, Note_on_c, 7, 55, 127
1, 17612, Note_off_c, 7, 55, 127
1, 17612, Note_off_c, 7, 43, 127
1, 17639, Note_on_c, 0, 48, 127
1, 17639, Note_on_c, 7, 55, 127
1, 17639, Note_on_c, 4, 52, 127
1, 17795, Note_on_c, 7, 67, 127
1, 17949, Note_off_c, 7, 67, 127
1, 17949, Note_off_c, 4, 52, 127
1, 17951, Note_on_c, 0, 60, 127
1, 17951, Note_on_c, 0, 72, 127
1, 18029, Note_off_c, 7, 55, 127
1, 18094, Note_off_c, 0, 48, 127
1, 18105, Note_off_c, 0, 72, 127
1, 18107, Note_on_c, 4, 76, 127
1, 18261, Note_off_c, 4, 76, 127
1, 18261, Note_off_c, 0, 60, 127
1, 18263, Note_on_c, 12, 59, 127
1, 18263, Note_on_c, 2, 74, 127
1, 18417, Note_off_c, 2, 74, 127
1, 18419, Note_on_c, 7, 67, 127
1, 18573, Note_off_c, 7, 67, 127
1, 18573, Note_off_c, 12, 59, 127
1, 18575, Note_on_c, 7, 55, 127
1, 18575, Note_on_c, 2, 74, 127
1, 18729, Note_off_c, 2, 74, 127
1, 18731, Note_on_c, 5, 77, 127
1, 18885, Note_off_c, 5, 77, 127
1, 18885, Note_off_c, 7, 55, 127
1, 18887, Note_on_c, 0, 48, 127
1, 18887, Note_on_c, 4, 76, 127
1, 19041, Note_off_c, 4, 76, 127
1, 19043, Note_on_c, 7, 67, 127
1, 19197, Note_off_c, 7, 67, 127
1, 19197, Note_off_c, 0, 48, 127
1, 19199, Note_on_c, 0, 60, 127
1, 19199, Note_on_c, 0, 72, 127
1, 19353, Note_off_c, 0, 72, 127
1, 19355, Note_on_c, 2, 74, 127
1, 19431, Note_off_c, 2, 74, 127
1, 19433, Note_on_c, 4, 76, 127
1, 19509, Note_off_c, 4, 76, 127
1, 19509, Note_off_c, 0, 60, 127
1, 19511, Note_on_c, 12, 59, 127
1, 19511, Note_on_c, 2, 74, 127
1, 19665, Note_off_c, 2, 74, 127
1, 19667, Note_on_c, 7, 67, 127
1, 19821, Note_off_c, 7, 67, 127
1, 19821, Note_off_c, 12, 59, 127
1, 19823, Note_on_c, 7, 55, 127
1, 19823, Note_on_c, 2, 74, 127
1, 19977, Note_off_c, 2, 74, 127
1, 19979, Note_on_c, 5, 77, 127
1, 20133, Note_off_c, 5, 77, 127
1, 20133, Note_off_c, 7, 55, 127
1, 20135, Note_on_c, 0, 48, 127
1, 20135, Note_on_c, 4, 76, 127
1, 20289, Note_off_c, 4, 76, 127
1, 20291, Note_on_c, 7, 67, 127
1, 20445, Note_off_c, 7, 67, 127
1, 20445, Note_off_c, 0, 48, 127
1, 20447, Note_on_c, 0, 60, 127
1, 20447, Note_on_c, 0, 72, 127
1, 20601, Note_off_c, 0, 72, 127
1, 20603, Note_on_c, 2, 74, 127
1, 20679, Note_off_c, 2, 74, 127
1, 20681, Note_on_c, 4, 76, 127
1, 20757, Note_off_c, 4, 76, 127
1, 20757, Note_off_c, 0, 60, 127
1, 20759, Note_on_c, 12, 59, 127
1, 20759, Note_on_c, 2, 74, 127
1, 20913, Note_off_c, 2, 74, 127
1, 20915, Note_on_c, 7, 67, 127
1, 21069, Note_off_c, 7, 67, 127
1, 21069, Note_off_c, 12, 59, 127
1, 21071, Note_on_c, 7, 55, 127
1, 21071, Note_on_c, 2, 74, 127
1, 21225, Note_off_c, 2, 74, 127
1, 21227, Note_on_c, 4, 76, 127
1, 21303, Note_off_c, 4, 76, 127
1, 21305, Note_on_c, 5, 77, 127
1, 21381, Note_off_c, 5, 77, 127
1, 21381, Note_off_c, 7, 55, 127
1, 21383, Note_on_c, 0, 60, 127
1, 21383, Note_on_c, 5, 77, 127
1, 21435, Note_off_c, 5, 77, 127
1, 21435, Note_on_c, 4, 76, 127
1, 21487, Note_off_c, 4, 76, 127
1, 21487, Note_on_c, 5, 77, 127
1, 21537, Note_off_c, 0, 60, 127
1, 21539, Note_off_c, 5, 77, 127
1, 21539, Note_on_c, 0, 48, 127
1, 21539, Note_on_c, 4, 76, 127
1, 21693, Note_off_c, 0, 48, 127
1, 21695, Note_on_c, 4, 52, 127
1, 21695, Note_on_c, 0, 72, 127
1, 21701, Note_off_c, 4, 76, 127
1, 21849, Note_off_c, 4, 52, 127
1, 21851, Note_on_c, 7, 55, 127
1, 22005, Note_off_c, 7, 55, 127
1, 22007, Note_on_c, 0, 60, 127
1, 22085, Note_off_c, 0, 72, 127
1, 22161, Note_off_c, 0, 60, 127
1, 22163, Note_on_c, 4, 64, 127
1, 22163, Note_on_c, 0, 72, 127
1, 22317, Note_off_c, 0, 72, 127
1, 22317, Note_off_c, 4, 64, 127
1, 22319, Note_on_c, 2, 62, 127
1, 22319, Note_on_c, 4, 76, 127
1, 22473, Note_off_c, 4, 76, 127
1, 22473, Note_off_c, 2, 62, 127
1, 22475, Note_on_c, 0, 60, 127
1, 22475, Note_on_c, 5, 77, 127
1, 22629, Note_off_c, 5, 77, 127
1, 22629, Note_off_c, 0, 60, 127
1, 22631, Note_on_c, 12, 59, 127
1, 22631, Note_on_c, 2, 62, 127
1, 22631, Note_on_c, 7, 79, 127
1, 22785, Note_off_c, 7, 79, 127
1, 22787, Note_on_c, 5, 77, 127
1, 22941, Note_off_c, 5, 77, 127
1, 22941, Note_off_c, 12, 59, 127
1, 22943, Note_on_c, 7, 55, 127
1, 22943, Note_on_c, 7, 79, 127
1, 23097, Note_off_c, 7, 79, 127
1, 23099, Note_on_c, 10, 81, 127
1, 23248, Note_off_c, 2, 62, 127
1, 23253, Note_off_c, 10, 81, 127
1, 23253, Note_off_c, 7, 55, 127
1, 23255, Note_on_c, 4, 52, 127
1, 23255, Note_on_c, 7, 79, 127
1, 23409, Note_off_c, 7, 79, 127
1, 23411, Note_on_c, 4, 76, 127
1, 23565, Note_off_c, 4, 76, 127
1, 23565, Note_off_c, 4, 52, 127
1, 23567, Note_on_c, 4, 64, 127
1, 23567, Note_on_c, 0, 60, 127
1, 23567, Note_on_c, 7, 79, 127
1, 23721, Note_off_c, 7, 79, 127
1, 23723, Note_on_c, 10, 81, 127
1, 23877, Note_off_c, 10, 81, 127
1, 23877, Note_off_c, 0, 60, 127
1, 23877, Note_off_c, 4, 64, 127
1, 23879, Note_on_c, 12, 59, 127
1, 23879, Note_on_c, 2, 62, 127
1, 23879, Note_on_c, 7, 79, 127
1, 24033, Note_off_c, 7, 79, 127
1, 24035, Note_on_c, 5, 77, 127
1, 24189, Note_off_c, 5, 77, 127
1, 24189, Note_off_c, 12, 59, 127
1, 24191, Note_on_c, 7, 55, 127
1, 24191, Note_on_c, 7, 79, 127
1, 24345, Note_off_c, 7, 79, 127
1, 24347, Note_on_c, 10, 81, 127
1, 24496, Note_off_c, 2, 62, 127
1, 24501, Note_off_c, 10, 81, 127
1, 24501, Note_off_c, 7, 55, 127
1, 24503, Note_on_c, 4, 52, 127
1, 24503, Note_on_c, 7, 79, 127
1, 24657, Note_off_c, 7, 79, 127
1, 24659, Note_on_c, 4, 76, 127
1, 24813, Note_off_c, 4, 76, 127
1, 24813, Note_off_c, 4, 52, 127
1, 24815, Note_on_c, 0, 60, 127
1, 24815, Note_on_c, 4, 64, 127
1, 24815, Note_on_c, 7, 79, 127
1, 24969, Note_off_c, 7, 79, 127
1, 24971, Note_on_c, 10, 81, 127
1, 25125, Note_off_c, 10, 81, 127
1, 25125, Note_off_c, 4, 64, 127
1, 25125, Note_off_c, 0, 60, 127
1, 25127, Note_on_c, 12, 59, 127
1, 25127, Note_on_c, 2, 62, 127
1, 25127, Note_on_c, 7, 79, 127
1, 25281, Note_off_c, 7, 79, 127
1, 25283, Note_on_c, 5, 77, 127
1, 25437, Note_off_c, 5, 77, 127
1, 25437, Note_off_c, 12, 59, 127
1, 25439, Note_on_c, 7, 55, 127
1, 25439, Note_on_c, 7, 79, 127
1, 25582, Note_off_c, 2, 62, 127
1, 25593, Note_off_c, 7, 79, 127
1, 25595, Note_on_c, 10, 81, 127
1, 25749, Note_off_c, 10, 81, 127
1, 25749, Note_off_c, 7, 55, 127
1, 25751, Note_on_c, 4, 52, 127
1, 25751, Note_on_c, 7, 79, 127
1, 25905, Note_off_c, 7, 79, 127
1, 25907, Note_on_c, 4, 76, 127
1, 26061, Note_off_c, 4, 76, 127
1, 26061, Note_off_c, 4, 52, 127
1, 26063, Note_on_c, 4, 64, 127
1, 26063, Note_on_c, 0, 60, 127
1, 26063, Note_on_c, 7, 79, 127
1, 26217, Note_off_c, 7, 79, 127
1, 26219, Note_on_c, 10, 81, 127
1, 26373, Note_off_c, 10, 81, 127
1, 26373, Note_off_c, 0, 60, 127
1, 26373, Note_off_c, 4, 64, 127
1, 26375, Note_on_c, 12, 59, 127
1, 26375, Note_on_c, 2, 62, 127
1, 26375, Note_on_c, 7, 79, 127
1, 26529, Note_off_c, 7, 79, 127
1, 26529, Note_off_c, 2, 62, 127
1, 26529, Note_off_c, 12, 59, 127
1, 26531, Note_on_c, 10, 57, 127
1, 26531, Note_on_c, 5, 77, 127
1, 26685, Note_off_c, 5, 77, 127
1, 26685, Note_off_c, 10, 57, 127
1, 26687, Note_on_c, 7, 55, 127
1, 26687, Note_on_c, 4, 76, 127
1, 26841, Note_off_c, 4, 76, 127
1, 26841, Note_off_c, 7, 55, 127
1, 26843, Note_on_c, 5, 53, 127
1, 26843, Note_on_c, 2, 74, 127
1, 26997, Note_off_c, 2, 74, 127
1, 26997, Note_off_c, 5, 53, 127
1, 26999, Note_on_c, 7, 55, 127
1, 26999, Note_on_c, 4, 52, 127
1, 26999, Note_on_c, 0, 72, 127
1, 27155, Note_on_c, 0, 60, 127
1, 27275, Note_off_c, 4, 52, 127
1, 27275, Note_off_c, 7, 55, 127
1, 27309, Note_off_c, 0, 60, 127
1, 27309, Note_off_c, 0, 72, 127
1, 27311, Note_on_c, 2, 50, 127
1, 27311, Note_on_c, 5, 53, 127
1, 27311, Note_on_c, 2, 74, 127
1, 27413, Note_off_c, 2, 74, 127
1, 27415, Note_on_c, 0, 72, 127
1, 27467, Note_on_c, 0, 60, 127
1, 27517, Note_off_c, 0, 72, 127
1, 27519, Note_on_c, 2, 74, 127
1, 27587, Note_off_c, 5, 53, 127
1, 27587, Note_off_c, 2, 50, 127
1, 27621, Note_off_c, 2, 74, 127
1, 27621, Note_off_c, 0, 60, 127
1, 27623, Note_on_c, 7, 55, 127
1, 27623, Note_on_c, 0, 48, 127
1, 27623, Note_on_c, 0, 60, 127
1, 27623, Note_on_c, 4, 76, 127
1, 27777, Note_off_c, 4, 76, 127
1, 27777, Note_off_c, 0, 60, 127
1, 27777, Note_off_c, 0, 48, 127
1, 27777, Note_off_c, 7, 55, 127
1, 27779, Note_on_c, 4, 64, 127
1, 27779, Note_on_c, 7, 79, 127
1, 27933, Note_off_c, 7, 79, 127
1, 27933, Note_off_c, 4, 64, 127
1, 27935, Note_on_c, 2, 62, 127
1, 27935, Note_on_c, 5, 77, 127
1, 28089, Note_off_c, 5, 77, 127
1, 28089, Note_off_c, 2, 62, 127
1, 28091, Note_on_c, 4, 64, 127
1, 28091, Note_on_c, 7, 79, 127
1, 28245, Note_off_c, 7, 79, 127
1, 28245, Note_off_c, 4, 64, 127
1, 28247, Note_on_c, 0, 60, 127
1, 28247, Note_on_c, 4, 76, 127
1, 28401, Note_off_c, 4, 76, 127
1, 28401, Note_off_c, 0, 60, 127
1, 28403, Note_on_c, 4, 64, 127
1, 28403, Note_on_c, 7, 79, 127
1, 28557, Note_off_c, 7, 79, 127
1, 28557, Note_off_c, 4, 64, 127
1, 28559, Note_on_c, 10, 57, 127
1, 28559, Note_on_c, 0, 72, 127
1, 28713, Note_off_c, 0, 72, 127
1, 28713, Note_off_c, 10, 57, 127
1, 28715, Note_on_c, 0, 60, 127
1, 28715, Note_on_c, 4, 76, 127
1, 28869, Note_off_c, 4, 76, 127
1, 28869, Note_off_c, 0, 60, 127
1, 28871, Note_on_c, 2, 50, 127
1, 28871, Note_on_c, 5, 77, 127
1, 29025, Note_off_c, 5, 77, 127
1, 29025, Note_off_c, 2, 50, 127
1, 29027, Note_on_c, 5, 65, 127
1, 29027, Note_on_c, 10, 81, 127
1, 29181, Note_off_c, 10, 81, 127
1, 29181, Note_off_c, 5, 65, 127
1, 29183, Note_on_c, 4, 64, 127
1, 29183, Note_on_c, 7, 79, 127
1, 29337, Note_off_c, 7, 79, 127
1, 29337, Note_off_c, 4, 64, 127
1, 29339, Note_on_c, 5, 65, 127
1, 29339, Note_on_c, 10, 81, 127
1, 29493, Note_off_c, 10, 81, 127
1, 29493, Note_off_c, 5, 65, 127
1, 29495, Note_on_c, 2, 62, 127
1, 29495, Note_on_c, 5, 77, 127
1, 29649, Note_off_c, 5, 77, 127
1, 29649, Note_off_c, 2, 62, 127
1, 29651, Note_on_c, 5, 65, 127
1, 29651, Note_on_c, 10, 81, 127
1, 29805, Note_off_c, 10, 81, 127
1, 29805, Note_off_c, 5, 65, 127
1, 29807, Note_on_c, 12, 59, 127
1, 29807, Note_on_c, 2, 74, 127
1, 29961, Note_off_c, 2, 74, 127
1, 29961, Note_off_c, 12, 59, 127
1, 29963, Note_on_c, 2, 62, 127
1, 29963, Note_on_c, 5, 77, 127
1, 30117, Note_off_c, 5, 77, 127
1, 30117, Note_off_c, 2, 62, 127
1, 30119, Note_on_c, 4, 52, 127
1, 30119, Note_on_c, 7, 79, 127
1, 30273, Note_off_c, 7, 79, 127
1, 30273, Note_off_c, 4, 52, 127
1, 30275, Note_on_c, 7, 67, 127
1, 30275, Note_on_c, 12, 83, 127
1, 30429, Note_off_c, 12, 83, 127
1, 30429, Note_off_c, 7, 67, 127
1, 30431, Note_on_c, 5, 65, 127
1, 30431, Note_on_c, 10, 81, 127
1, 30585, Note_off_c, 10, 81, 127
1, 30585, Note_off_c, 5, 65, 127
1, 30587, Note_on_c, 7, 67, 127
1, 30587, Note_on_c, 12, 83, 127
1, 30741, Note_off_c, 12, 83, 127
1, 30741, Note_off_c, 7, 67, 127
1, 30743, Note_on_c, 4, 64, 127
1, 30743, Note_on_c, 7, 79, 127
1, 30897, Note_off_c, 7, 79, 127
1, 30897, Note_off_c, 4, 64, 127
1, 30899, Note_on_c, 7, 67, 127
1, 30899, Note_on_c, 12, 83, 127
1, 31053, Note_off_c, 12, 83, 127
1, 31053, Note_off_c, 7, 67, 127
1, 31055, Note_on_c, 0, 60, 127
1, 31055, Note_on_c, 4, 76, 127
1, 31209, Note_off_c, 4, 76, 127
1, 31209, Note_off_c, 0, 60, 127
1, 31211, Note_on_c, 4, 64, 127
1, 31211, Note_on_c, 7, 79, 127
1, 31365, Note_off_c, 7, 79, 127
1, 31365, Note_off_c, 4, 64, 127
1, 31367, Note_on_c, 6, 54, 127
1, 31367, Note_on_c, 10, 81, 127
1, 31521, Note_off_c, 10, 81, 127
1, 31521, Note_off_c, 6, 54, 127
1, 31523, Note_on_c, 10, 69, 127
1, 31523, Note_on_c, 0, 84, 127
1, 31677, Note_off_c, 0, 84, 127
1, 31677, Note_off_c, 10, 69, 127
1, 31679, Note_on_c, 7, 67, 127
1, 31679, Note_on_c, 12, 83, 127
1, 31833, Note_off_c, 12, 83, 127
1, 31833, Note_off_c, 7, 67, 127
1, 31835, Note_on_c, 10, 69, 127
1, 31835, Note_on_c, 0, 84, 127
1, 31989, Note_off_c, 0, 84, 127
1, 31989, Note_off_c, 10, 69, 127
1, 31991, Note_on_c, 6, 66, 127
1, 31991, Note_on_c, 10, 81, 127
1, 32145, Note_off_c, 10, 81, 127
1, 32145, Note_off_c, 6, 66, 127
1, 32147, Note_on_c, 10, 69, 127
1, 32147, Note_on_c, 0, 84, 127
1, 32301, Note_off_c, 0, 84, 127
1, 32301, Note_off_c, 10, 69, 127
1, 32303, Note_on_c, 7, 67, 127
1, 32303, Note_on_c, 12, 83, 127
1, 32457, Note_off_c, 12, 83, 127
1, 32457, Note_off_c, 7, 67, 127
1, 32459, Note_on_c, 10, 69, 127
1, 32459, Note_on_c, 0, 84, 127
1, 32613, Note_off_c, 0, 84, 127
1, 32613, Note_off_c, 10, 69, 127
1, 32615, Note_on_c, 6, 54, 127
1, 32615, Note_on_c, 2, 74, 127
1, 32769, Note_off_c, 2, 74, 127
1, 32769, Note_off_c, 6, 54, 127
1, 32771, Note_on_c, 10, 69, 127
1, 32771, Note_on_c, 0, 84, 127
1, 32925, Note_off_c, 0, 84, 127
1, 32925, Note_off_c, 10, 69, 127
1, 32927, Note_on_c, 7, 67, 127
1, 32927, Note_on_c, 12, 83, 127
1, 33081, Note_off_c, 12, 83, 127
1, 33081, Note_off_c, 7, 67, 127
1, 33083, Note_on_c, 10, 69, 127
1, 33083, Note_on_c, 0, 84, 127
1, 33237, Note_off_c, 0, 84, 127
1, 33237, Note_off_c, 10, 69, 127
1, 33239, Note_on_c, 6, 66, 127
1, 33239, Note_on_c, 10, 81, 127
1, 33393, Note_off_c, 10, 81, 127
1, 33393, Note_off_c, 6, 66, 127
1, 33395, Note_on_c, 10, 69, 127
1, 33395, Note_on_c, 0, 84, 127
1, 33549, Note_off_c, 0, 84, 127
1, 33549, Note_off_c, 10, 69, 127
1, 33551, Note_on_c, 7, 67, 127
1, 33551, Note_on_c, 12, 83, 127
1, 33705, Note_off_c, 12, 83, 127
1, 33705, Note_off_c, 7, 67, 127
1, 33707, Note_on_c, 10, 69, 127
1, 33707, Note_on_c, 0, 84, 127
1, 33861, Note_off_c, 0, 84, 127
1, 33861, Note_off_c, 10, 69, 127
1, 33863, Note_on_c, 6, 54, 127
1, 33863, Note_on_c, 4, 76, 127
1, 33923, Note_off_c, 4, 76, 127
1, 33923, Note_on_c, 2, 74, 127
1, 33983, Note_off_c, 2, 74, 127
1, 33983, Note_on_c, 4, 76, 127
1, 34017, Note_off_c, 6, 54, 127
1, 34019, Note_on_c, 10, 57, 127
1, 34043, Note_off_c, 4, 76, 127
1, 34043, Note_on_c, 2, 74, 127
1, 34173, Note_off_c, 10, 57, 127
1, 34175, Note_on_c, 12, 59, 127
1, 34329, Note_off_c, 12, 59, 127
1, 34331, Note_on_c, 0, 60, 127
1, 34485, Note_off_c, 0, 60, 127
1, 34487, Note_on_c, 2, 62, 127
1, 34587, Note_off_c, 2, 74, 127
1, 34641, Note_off_c, 2, 62, 127
1, 34643, Note_on_c, 2, 50, 127
1, 34643, Note_on_c, 2, 74, 127
1, 34797, Note_off_c, 2, 74, 127
1, 34797, Note_off_c, 2, 50, 127
1, 34799, Note_on_c, 0, 60, 127
1, 34799, Note_on_c, 4, 76, 127
1, 34953, Note_off_c, 4, 76, 127
1, 34953, Note_off_c, 0, 60, 127
1, 34955, Note_on_c, 2, 50, 127
1, 34955, Note_on_c, 6, 78, 127
1, 35109, Note_off_c, 6, 78, 127
1, 35109, Note_off_c, 2, 50, 127
1, 35111, Note_on_c, 12, 59, 127
1, 35111, Note_on_c, 7, 79, 127
1, 35265, Note_off_c, 7, 79, 127
1, 35265, Note_off_c, 12, 59, 127
1, 35267, Note_on_c, 2, 50, 127
1, 35267, Note_on_c, 10, 81, 127
1, 35421, Note_off_c, 2, 50, 127
1, 35423, Note_on_c, 10, 57, 127
1, 35423, Note_on_c, 6, 78, 127
1, 35575, Note_off_c, 10, 81, 127
1, 35577, Note_off_c, 6, 78, 127
1, 35577, Note_off_c, 10, 57, 127
1, 35579, Note_on_c, 2, 50, 127
1, 35579, Note_on_c, 10, 81, 127
1, 35733, Note_off_c, 10, 81, 127
1, 35733, Note_off_c, 2, 50, 127
1, 35735, Note_on_c, 12, 59, 127
1, 35735, Note_on_c, 7, 79, 127
1, 35889, Note_off_c, 7, 79, 127
1, 35889, Note_off_c, 12, 59, 127
1, 35891, Note_on_c, 2, 50, 127
1, 35891, Note_on_c, 2, 74, 127
1, 36045, Note_off_c, 2, 74, 127
1, 36045, Note_off_c, 2, 50, 127
1, 36047, Note_on_c, 0, 60, 127
1, 36047, Note_on_c, 4, 76, 127
1, 36201, Note_off_c, 4, 76, 127
1, 36201, Note_off_c, 0, 60, 127
1, 36203, Note_on_c, 2, 50, 127
1, 36203, Note_on_c, 6, 78, 127
1, 36357, Note_off_c, 6, 78, 127
1, 36357, Note_off_c, 2, 50, 127
1, 36359, Note_on_c, 12, 59, 127
1, 36359, Note_on_c, 7, 79, 127
1, 36513, Note_off_c, 7, 79, 127
1, 36513, Note_off_c, 12, 59, 127
1, 36515, Note_on_c, 2, 50, 127
1, 36515, Note_on_c, 10, 81, 127
1, 36669, Note_off_c, 10, 81, 127
1, 36669, Note_off_c, 2, 50, 127
1, 36671, Note_on_c, 10, 57, 127
1, 36671, Note_on_c, 6, 78, 127
1, 36825, Note_off_c, 6, 78, 127
1, 36825, Note_off_c, 10, 57, 127
1, 36827, Note_on_c, 2, 50, 127
1, 36827, Note_on_c, 10, 81, 127
1, 36981, Note_off_c, 10, 81, 127
1, 36981, Note_off_c, 2, 50, 127
1, 36983, Note_on_c, 12, 59, 127
1, 36983, Note_on_c, 7, 79, 127
1, 37137, Note_off_c, 7, 79, 127
1, 37137, Note_off_c, 12, 59, 127
1, 37139, Note_on_c, 2, 50, 127
1, 37139, Note_on_c, 2, 74, 127
1, 37293, Note_off_c, 2, 74, 127
1, 37293, Note_off_c, 2, 50, 127
1, 37295, Note_on_c, 0, 60, 127
1, 37295, Note_on_c, 4, 76, 127
1, 37449, Note_off_c, 4, 76, 127
1, 37449, Note_off_c, 0, 60, 127
1, 37451, Note_on_c, 2, 50, 127
1, 37451, Note_on_c, 6, 78, 127
1, 37605, Note_off_c, 6, 78, 127
1, 37605, Note_off_c, 2, 50, 127
1, 37607, Note_on_c, 12, 59, 127
1, 37607, Note_on_c, 7, 79, 127
1, 37761, Note_off_c, 7, 79, 127
1, 37761, Note_off_c, 12, 59, 127
1, 37763, Note_on_c, 7, 55, 127
1, 37763, Note_on_c, 10, 81, 127
1, 37917, Note_off_c, 7, 55, 127
1, 37919, Note_on_c, 10, 57, 127
1, 37919, Note_on_c, 5, 77, 127
1, 37958, Note_off_c, 10, 81, 127
1, 38073, Note_off_c, 5, 77, 127
1, 38073, Note_off_c, 10, 57, 127
1, 38075, Note_on_c, 12, 59, 127
1, 38075, Note_on_c, 7, 79, 127
1, 38229, Note_off_c, 12, 59, 127
1, 38231, Note_on_c, 0, 60, 127
1, 38231, Note_on_c, 4, 76, 127
1, 38270, Note_off_c, 7, 79, 127
1, 38385, Note_off_c, 4, 76, 127
1, 38385, Note_off_c, 0, 60, 127
1, 38387, Note_on_c, 7, 55, 127
1, 38387, Note_on_c, 5, 77, 127
1, 38541, Note_off_c, 7, 55, 127
1, 38543, Note_on_c, 2, 62, 127
1, 38543, Note_on_c, 2, 74, 127
1, 38582, Note_off_c, 5, 77, 127
1, 38697, Note_off_c, 2, 74, 127
1, 38697, Note_off_c, 2, 62, 127
1, 38699, Note_on_c, 7, 55, 127
1, 38699, Note_on_c, 4, 76, 127
1, 38853, Note_off_c, 7, 55, 127
1, 38855, Note_on_c, 4, 64, 127
1, 38855, Note_on_c, 0, 72, 127
1, 38894, Note_off_c, 4, 76, 127
1, 39009, Note_off_c, 0, 72, 127
1, 39009, Note_off_c, 4, 64, 127
1, 39011, Note_on_c, 5, 53, 127
1, 39011, Note_on_c, 2, 74, 127
1, 39165, Note_off_c, 5, 53, 127
1, 39167, Note_on_c, 2, 62, 127
1, 39167, Note_on_c, 12, 71, 127
1, 39206, Note_off_c, 2, 74, 127
1, 39321, Note_off_c, 12, 71, 127
1, 39321, Note_off_c, 2, 62, 127
1, 39323, Note_on_c, 4, 52, 127
1, 39323, Note_on_c, 0, 72, 127
1, 39477, Note_off_c, 4, 52, 127
1, 39479, Note_on_c, 0, 60, 127
1, 39479, Note_on_c, 10, 69, 127
1, 39502, Note_off_c, 0, 72, 127
1, 39633, Note_off_c, 10, 69, 127
1, 39633, Note_off_c, 0, 60, 127
1, 39635, Note_on_c, 2, 50, 127
1, 39635, Note_on_c, 12, 71, 127
1, 39789, Note_off_c, 12, 71, 127
1, 39789, Note_off_c, 2, 50, 127
1, 39791, Note_on_c, 12, 59, 127
1, 39791, Note_on_c, 7, 67, 127
1, 39945, Note_off_c, 7, 67, 127
1, 39945, Note_off_c, 12, 59, 127
1, 39947, Note_on_c, 0, 48, 127
1, 39947, Note_on_c, 10, 69, 127
1, 40090, Note_off_c, 10, 69, 127
1, 40101, Note_off_c, 0, 48, 127
1, 40103, Note_on_c, 10, 57, 127
1, 40103, Note_on_c, 6, 66, 127
1, 40257, Note_off_c, 10, 57, 127
1, 40259, Note_on_c, 6, 54, 127
1, 40259, Note_on_c, 2, 74, 127
1, 40330, Note_off_c, 6, 66, 127
1, 40413, Note_off_c, 2, 74, 127
1, 40413, Note_off_c, 6, 54, 127
1, 40415, Note_on_c, 2, 50, 127
1, 40415, Note_on_c, 0, 72, 127
1, 40569, Note_off_c, 0, 72, 127
1, 40569, Note_off_c, 2, 50, 127
1, 40571, Note_on_c, 6, 54, 127
1, 40571, Note_on_c, 2, 74, 127
1, 40725, Note_off_c, 2, 74, 127
1, 40725, Note_off_c, 6, 54, 127
1, 40727, Note_on_c, 7, 55, 127
1, 40727, Note_on_c, 12, 71, 127
1, 40881, Note_off_c, 7, 55, 127
1, 40883, Note_on_c, 12, 47, 127
1, 40883, Note_on_c, 7, 79, 127
1, 40954, Note_off_c, 12, 71, 127
1, 41037, Note_off_c, 7, 79, 127
1, 41037, Note_off_c, 12, 47, 127
1, 41039, Note_on_c, 7, 43, 127
1, 41039, Note_on_c, 6, 78, 127
1, 41193, Note_off_c, 6, 78, 127
1, 41193, Note_off_c, 7, 43, 127
1, 41195, Note_on_c, 12, 47, 127
1, 41195, Note_on_c, 7, 79, 127
1, 41349, Note_off_c, 7, 79, 127
1, 41349, Note_off_c, 12, 47, 127
1, 41351, Note_on_c, 0, 48, 127
1, 41351, Note_on_c, 4, 76, 127
1, 41451, Note_off_c, 4, 76, 127
1, 41456, Note_on_c, 2, 74, 127
1, 41505, Note_off_c, 0, 48, 127
1, 41523, Note_on_c, 4, 52, 127
1, 41533, Note_off_c, 2, 74, 127
1, 41533, Note_on_c, 0, 72, 127
1, 41609, Note_off_c, 0, 72, 127
1, 41609, Note_on_c, 2, 74, 127
1, 41677, Note_off_c, 4, 52, 127
1, 41679, Note_on_c, 0, 48, 127
1, 41685, Note_off_c, 2, 74, 127
1, 41685, Note_on_c, 4, 76, 127
1, 41761, Note_off_c, 4, 76, 127
1, 41761, Note_on_c, 0, 72, 127
1, 41832, Note_off_c, 0, 48, 127
1, 41834, Note_on_c, 10, 45, 127
1, 41837, Note_off_c, 0, 72, 127
1, 41837, Note_on_c, 2, 74, 127
1, 41913, Note_off_c, 2, 74, 127
1, 41913, Note_on_c, 4, 76, 127
1, 41988, Note_off_c, 10, 45, 127
1, 41990, Note_off_c, 4, 76, 127
1, 41990, Note_on_c, 12, 71, 127
1, 41990, Note_on_c, 2, 50, 127
1, 42042, Note_off_c, 12, 71, 127
1, 42042, Note_on_c, 10, 69, 127
1, 42094, Note_off_c, 10, 69, 127
1, 42094, Note_on_c, 12, 71, 127
1, 42146, Note_off_c, 12, 71, 127
1, 42146, Note_on_c, 10, 69, 127
1, 42300, Note_off_c, 2, 50, 127
1, 42302, Note_on_c, 2, 38, 127
1, 42454, Note_off_c, 10, 69, 127
1, 42457, Note_on_c, 7, 67, 127
1, 42611, Note_off_c, 7, 67, 127
1, 42611, Note_off_c, 2, 38, 127
1, 42613, Note_on_c, 7, 67, 127
1, 42613, Note_on_c, 7, 55, 127
1, 42613, Note_on_c, 12, 47, 127
1, 42613, Note_on_c, 2, 50, 127
1, 42613, Note_on_c, 7, 43, 127
1, 43229, Note_off_c, 7, 67, 127
1, 43234, Note_off_c, 7, 43, 127
1, 43234, Note_off_c, 2, 50, 127
1, 43234, Note_off_c, 12, 47, 127
1, 43234, Note_off_c, 7, 55, 127
1, 43252, Note_on_c, 12, 47, 127
1, 43252, Note_on_c, 12, 59, 127
1, 43717, Note_off_c, 12, 59, 127
1, 43717, Note_off_c, 12, 47, 127
1, 43719, Note_on_c, 0, 48, 127
1, 43719, Note_on_c, 0, 60, 127
1, 43873, Note_off_c, 0, 60, 127
1, 43873, Note_off_c, 0, 48, 127
1, 43875, Note_on_c, 2, 50, 127
1, 43875, Note_on_c, 2, 62, 127
1, 44185, Note_off_c, 2, 62, 127
1, 44185, Note_off_c, 2, 50, 127
1, 44187, Note_on_c, 7, 43, 127
1, 44187, Note_on_c, 7, 55, 127
1, 44738, Note_off_c, 7, 55, 127
1, 44738, Note_off_c, 7, 43, 127
1, 44809, Note_on_c, 2, 50, 127
1, 44809, Note_on_c, 2, 62, 127
1, 45119, Note_off_c, 2, 62, 127
1, 45119, Note_off_c, 2, 50, 127
1, 45121, Note_on_c, 4, 52, 127
1, 45121, Note_on_c, 4, 64, 127
1, 45431, Note_off_c, 4, 64, 127
1, 45431, Note_off_c, 4, 52, 127
1, 45433, Note_on_c, 4, 52, 127
1, 45433, Note_on_c, 4, 64, 127
1, 45743, Note_off_c, 4, 64, 127
1, 45743, Note_off_c, 4, 52, 127
1, 45745, Note_on_c, 4, 52, 127
1, 45745, Note_on_c, 4, 64, 127
1, 46055, Note_off_c, 4, 64, 127
1, 46055, Note_off_c, 4, 52, 127
1, 46057, Note_on_c, 4, 52, 127
1, 46057, Note_on_c, 4, 64, 127
1, 46367, Note_off_c, 4, 64, 127
1, 46367, Note_off_c, 4, 52, 127
1, 46369, Note_on_c, 5, 53, 127
1, 46369, Note_on_c, 5, 65, 127
1, 46523, Note_off_c, 5, 65, 127
1, 46523, Note_off_c, 5, 53, 127
1, 46525, Note_on_c, 4, 52, 127
1, 46525, Note_on_c, 4, 64, 127
1, 46679, Note_off_c, 4, 64, 127
1, 46679, Note_off_c, 4, 52, 127
1, 46681, Note_on_c, 2, 50, 127
1, 46681, Note_on_c, 2, 62, 127
1, 46835, Note_off_c, 2, 62, 127
1, 46835, Note_off_c, 2, 50, 127
1, 46837, Note_on_c, 0, 48, 127
1, 46837, Note_on_c, 0, 60, 127
1, 46991, Note_off_c, 0, 60, 127
1, 46991, Note_off_c, 0, 48, 127
1, 46993, Note_on_c, 2, 50, 127
1, 46993, Note_on_c, 2, 62, 127
1, 47303, Note_off_c, 2, 62, 127
1, 47303, Note_off_c, 2, 50, 127
1, 47305, Note_on_c, 2, 38, 127
1, 47305, Note_on_c, 2, 50, 127
1, 47615, Note_off_c, 2, 50, 127
1, 47615, Note_off_c, 2, 38, 127
1, 47617, Note_on_c, 2, 38, 127
1, 47617, Note_on_c, 2, 50, 127
1, 47917, Note_off_c, 2, 50, 127
1, 47917, Note_off_c, 2, 38, 127
1, 47945, Note_on_c, 2, 62, 127
1, 47945, Note_on_c, 2, 50, 127
1, 48255, Note_off_c, 2, 50, 127
1, 48255, Note_off_c, 2, 62, 127
1, 48257, Note_on_c, 2, 62, 127
1, 48257, Note_on_c, 2, 50, 127
1, 48567, Note_off_c, 2, 50, 127
1, 48567, Note_off_c, 2, 62, 127
1, 48569, Note_on_c, 2, 62, 127
1, 48569, Note_on_c, 2, 50, 127
1, 48879, Note_off_c, 2, 50, 127
1, 48879, Note_off_c, 2, 62, 127
1, 48881, Note_on_c, 4, 64, 127
1, 48881, Note_on_c, 4, 52, 127
1, 49035, Note_off_c, 4, 52, 127
1, 49035, Note_off_c, 4, 64, 127
1, 49037, Note_on_c, 2, 62, 127
1, 49037, Note_on_c, 2, 50, 127
1, 49191, Note_off_c, 2, 50, 127
1, 49191, Note_off_c, 2, 62, 127
1, 49193, Note_on_c, 0, 60, 127
1, 49193, Note_on_c, 0, 48, 127
1, 49347, Note_off_c, 0, 48, 127
1, 49347, Note_off_c, 0, 60, 127
1, 49349, Note_on_c, 12, 59, 127
1, 49349, Note_on_c, 12, 47, 127
1, 49503, Note_off_c, 12, 47, 127
1, 49503, Note_off_c, 12, 59, 127
1, 49505, Note_on_c, 0, 60, 127
1, 49505, Note_on_c, 0, 48, 127
1, 49815, Note_off_c, 0, 48, 127
1, 49815, Note_off_c, 0, 60, 127
1, 49817, Note_on_c, 0, 48, 127
1, 49817, Note_on_c, 0, 36, 127
1, 50127, Note_off_c, 0, 36, 127
1, 50127, Note_off_c, 0, 48, 127
1, 50129, Note_on_c, 0, 48, 127
1, 50129, Note_on_c, 0, 36, 127
1, 50429, Note_off_c, 0, 36, 127
1, 50429, Note_off_c, 0, 48, 127
1, 50457, Note_on_c, 0, 48, 127
1, 50457, Note_on_c, 0, 60, 127
1, 50767, Note_off_c, 0, 60, 127
1, 50767, Note_off_c, 0, 48, 127
1, 50769, Note_on_c, 0, 48, 127
1, 50769, Note_on_c, 0, 60, 127
1, 51079, Note_off_c, 0, 60, 127
1, 51079, Note_off_c, 0, 48, 127
1, 51081, Note_on_c, 0, 48, 127
1, 51081, Note_on_c, 0, 60, 127
1, 51391, Note_off_c, 0, 60, 127
1, 51391, Note_off_c, 0, 48, 127
1, 51393, Note_on_c, 2, 50, 127
1, 51393, Note_on_c, 2, 62, 127
1, 51547, Note_off_c, 2, 62, 127
1, 51547, Note_off_c, 2, 50, 127
1, 51549, Note_on_c, 0, 48, 127
1, 51549, Note_on_c, 0, 60, 127
1, 51703, Note_off_c, 0, 60, 127
1, 51703, Note_off_c, 0, 48, 127
1, 51705, Note_on_c, 12, 47, 127
1, 51705, Note_on_c, 12, 59, 127
1, 51859, Note_off_c, 12, 59, 127
1, 51859, Note_off_c, 12, 47, 127
1, 51861, Note_on_c, 10, 45, 127
1, 51861, Note_on_c, 10, 57, 127
1, 52015, Note_off_c, 10, 57, 127
1, 52015, Note_off_c, 10, 45, 127
1, 52017, Note_on_c, 12, 47, 127
1, 52017, Note_on_c, 12, 59, 127
1, 52327, Note_off_c, 12, 59, 127
1, 52327, Note_off_c, 12, 47, 127
1, 52329, Note_on_c, 2, 38, 127
1, 52329, Note_on_c, 2, 50, 127
1, 52639, Note_off_c, 2, 50, 127
1, 52639, Note_off_c, 2, 38, 127
1, 52641, Note_on_c, 2, 38, 127
1, 52641, Note_on_c, 2, 50, 127
1, 52925, Note_off_c, 2, 50, 127
1, 52925, Note_off_c, 2, 38, 127
1, 52953, Note_on_c, 12, 47, 127
1, 52953, Note_on_c, 12, 59, 127
1, 53263, Note_off_c, 12, 59, 127
1, 53263, Note_off_c, 12, 47, 127
1, 53265, Note_on_c, 12, 47, 127
1, 53265, Note_on_c, 12, 59, 127
1, 53575, Note_off_c, 12, 59, 127
1, 53575, Note_off_c, 12, 47, 127
1, 53577, Note_on_c, 2, 38, 127
1, 53577, Note_on_c, 2, 50, 127
1, 53874, Note_off_c, 2, 50, 127
1, 53874, Note_off_c, 2, 38, 127
1, 53889, Note_on_c, 12, 47, 127
1, 53889, Note_on_c, 12, 59, 127
1, 53965, Note_off_c, 12, 59, 127
1, 53965, Note_off_c, 12, 47, 127
1, 53967, Note_on_c, 10, 45, 127
1, 53967, Note_on_c, 10, 57, 127
1, 54043, Note_off_c, 10, 57, 127
1, 54043, Note_off_c, 10, 45, 127
1, 54045, Note_on_c, 12, 47, 127
1, 54045, Note_on_c, 12, 59, 127
1, 54121, Note_off_c, 12, 59, 127
1, 54121, Note_off_c, 12, 47, 127
1, 54123, Note_on_c, 10, 45, 127
1, 54123, Note_on_c, 10, 57, 127
1, 54577, Note_off_c, 10, 57, 127
1, 54577, Note_off_c, 10, 45, 127
1, 54855, Note_on_c, 2, 38, 127
1, 54855, Note_on_c, 2, 50, 127
1, 55163, Note_off_c, 2, 50, 127
1, 55163, Note_off_c, 2, 38, 127
1, 55166, Note_on_c, 7, 43, 127
1, 55166, Note_on_c, 7, 55, 127
1, 55476, Note_off_c, 7, 55, 127
1, 55476, Note_off_c, 7, 43, 127
1, 55478, Note_on_c, 2, 38, 127
1, 55478, Note_on_c, 2, 50, 127
1, 55632, Note_off_c, 2, 50, 127
1, 55634, Note_on_c, 7, 55, 127
1, 55786, Note_off_c, 2, 38, 127
1, 55788, Note_off_c, 7, 55, 127
1, 55790, Note_on_c, 10, 45, 127
1, 55790, Note_on_c, 10, 57, 127
1, 56100, Note_off_c, 10, 57, 127
1, 56100, Note_off_c, 10, 45, 127
1, 56102, Note_on_c, 2, 38, 127
1, 56102, Note_on_c, 2, 50, 127
1, 56256, Note_off_c, 2, 50, 127
1, 56258, Note_on_c, 10, 57, 127
1, 56410, Note_off_c, 2, 38, 127
1, 56412, Note_off_c, 10, 57, 127
1, 56414, Note_on_c, 12, 47, 127
1, 56414, Note_on_c, 12, 59, 127
1, 56724, Note_off_c, 12, 59, 127
1, 56724, Note_off_c, 12, 47, 127
1, 56726, Note_on_c, 2, 38, 127
1, 56726, Note_on_c, 2, 50, 127
1, 56880, Note_off_c, 2, 50, 127
1, 56882, Note_on_c, 12, 59, 127
1, 57034, Note_off_c, 2, 38, 127
1, 57036, Note_off_c, 12, 59, 127
1, 57038, Note_on_c, 0, 48, 127
1, 57038, Note_on_c, 0, 60, 127
1, 57348, Note_off_c, 0, 60, 127
1, 57348, Note_off_c, 0, 48, 127
1, 57350, Note_on_c, 2, 38, 127
1, 57350, Note_on_c, 2, 50, 127
1, 57504, Note_off_c, 2, 50, 127
1, 57506, Note_on_c, 0, 60, 127
1, 57658, Note_off_c, 2, 38, 127
1, 57660, Note_off_c, 0, 60, 127
1, 57662, Note_on_c, 2, 50, 127
1, 57662, Note_on_c, 2, 62, 127
1, 57816, Note_off_c, 2, 62, 127
1, 57816, Note_off_c, 2, 50, 127
1, 57818, Note_on_c, 2, 38, 127
1, 57818, Note_on_c, 2, 50, 127
1, 57972, Note_off_c, 2, 50, 127
1, 57972, Note_off_c, 2, 38, 127
1, 57974, Note_on_c, 4, 40, 127
1, 57974, Note_on_c, 4, 52, 127
1, 58128, Note_off_c, 4, 52, 127
1, 58128, Note_off_c, 4, 40, 127
1, 58130, Note_on_c, 6, 42, 127
1, 58130, Note_on_c, 6, 54, 127
1, 58284, Note_off_c, 6, 54, 127
1, 58284, Note_off_c, 6, 42, 127
1, 58286, Note_on_c, 7, 43, 127
1, 58286, Note_on_c, 7, 55, 127
1, 58440, Note_off_c, 7, 55, 127
1, 58440, Note_off_c, 7, 43, 127
1, 58442, Note_on_c, 10, 45, 127
1, 58442, Note_on_c, 10, 57, 127
1, 58596, Note_off_c, 10, 57, 127
1, 58596, Note_off_c, 10, 45, 127
1, 58598, Note_on_c, 12, 47, 127
1, 58598, Note_on_c, 12, 59, 127
1, 58752, Note_off_c, 12, 59, 127
1, 58752, Note_off_c, 12, 47, 127
1, 58754, Note_on_c, 0, 48, 127
1, 58754, Note_on_c, 0, 60, 127
1, 58908, Note_off_c, 0, 60, 127
1, 58908, Note_off_c, 0, 48, 127
1, 58910, Note_on_c, 2, 50, 127
1, 58910, Note_on_c, 2, 62, 127
1, 59064, Note_off_c, 2, 62, 127
1, 59064, Note_off_c, 2, 50, 127
1, 59066, Note_on_c, 0, 48, 127
1, 59066, Note_on_c, 0, 60, 127
1, 59220, Note_off_c, 0, 60, 127
1, 59220, Note_off_c, 0, 48, 127
1, 59222, Note_on_c, 12, 47, 127
1, 59222, Note_on_c, 12, 59, 127
1, 59376, Note_off_c, 12, 59, 127
1, 59376, Note_off_c, 12, 47, 127
1, 59378, Note_on_c, 0, 48, 127
1, 59378, Note_on_c, 0, 60, 127
1, 59532, Note_off_c, 0, 60, 127
1, 59532, Note_off_c, 0, 48, 127
1, 59534, Note_on_c, 2, 62, 127
1, 59534, Note_on_c, 2, 50, 127
1, 59818, Note_off_c, 2, 50, 127
1, 59818, Note_off_c, 2, 62, 127
1, 59846, Note_on_c, 2, 38, 127
1, 59846, Note_on_c, 2, 50, 127
1, 60130, Note_off_c, 2, 50, 127
1, 60130, Note_off_c, 2, 38, 127
1, 60158, Note_on_c, 7, 43, 127
1, 60158, Note_on_c, 2, 50, 127
1, 60158, Note_on_c, 12, 47, 127
1, 60330, Note_on_c, 2, 74, 127
1, 60468, Note_off_c, 12, 47, 127
1, 60468, Note_off_c, 2, 50, 127
1, 60484, Note_off_c, 2, 74, 127
1, 60486, Note_on_c, 7, 79, 127
1, 60486, Note_on_c, 7, 55, 127
1, 60640, Note_off_c, 7, 79, 127
1, 60642, Note_on_c, 12, 83, 127
1, 60775, Note_off_c, 7, 43, 127
1, 60796, Note_off_c, 12, 83, 127
1, 60796, Note_off_c, 7, 55, 127
1, 60798, Note_on_c, 10, 81, 127
1, 60798, Note_on_c, 6, 54, 127
1, 60954, Note_on_c, 2, 74, 127
1, 61025, Note_off_c, 10, 81, 127
1, 61108, Note_off_c, 2, 74, 127
1, 61108, Note_off_c, 6, 54, 127
1, 61110, Note_on_c, 10, 81, 127
1, 61110, Note_on_c, 2, 50, 127
1, 61264, Note_off_c, 10, 81, 127
1, 61266, Note_on_c, 0, 84, 127
1, 61420, Note_off_c, 0, 84, 127
1, 61420, Note_off_c, 2, 50, 127
1, 61422, Note_on_c, 12, 83, 127
1, 61422, Note_on_c, 7, 43, 127
1, 61578, Note_on_c, 2, 74, 127
1, 61730, Note_off_c, 12, 83, 127
1, 61732, Note_off_c, 2, 74, 127
1, 61732, Note_off_c, 7, 43, 127
1, 61734, Note_on_c, 7, 79, 127
1, 61734, Note_on_c, 7, 55, 127
1, 61888, Note_off_c, 7, 79, 127
1, 61890, Note_on_c, 10, 81, 127
1, 61966, Note_off_c, 10, 81, 127
1, 61968, Note_on_c, 12, 83, 127
1, 62044, Note_off_c, 12, 83, 127
1, 62044, Note_off_c, 7, 55, 127
1, 62046, Note_on_c, 10, 81, 127
1, 62046, Note_on_c, 6, 54, 127
1, 62200, Note_off_c, 10, 81, 127
1, 62202, Note_on_c, 2, 74, 127
1, 62356, Note_off_c, 2, 74, 127
1, 62356, Note_off_c, 6, 54, 127
1, 62358, Note_on_c, 10, 81, 127
1, 62358, Note_on_c, 2, 50, 127
1, 62512, Note_off_c, 10, 81, 127
1, 62514, Note_on_c, 0, 84, 127
1, 62668, Note_off_c, 0, 84, 127
1, 62668, Note_off_c, 2, 50, 127
1, 62670, Note_on_c, 12, 83, 127
1, 62670, Note_on_c, 7, 43, 127
1, 62826, Note_on_c, 2, 74, 127
1, 62897, Note_off_c, 12, 83, 127
1, 62980, Note_off_c, 2, 74, 127
1, 62980, Note_off_c, 7, 43, 127
1, 62982, Note_on_c, 7, 79, 127
1, 62982, Note_on_c, 7, 55, 127
1, 63136, Note_off_c, 7, 79, 127
1, 63138, Note_on_c, 10, 81, 127
1, 63214, Note_off_c, 10, 81, 127
1, 63216, Note_on_c, 12, 83, 127
1, 63292, Note_off_c, 12, 83, 127
1, 63292, Note_off_c, 7, 55, 127
1, 63294, Note_on_c, 10, 81, 127
1, 63294, Note_on_c, 6, 54, 127
1, 63450, Note_on_c, 2, 74, 127
1, 63489, Note_off_c, 10, 81, 127
1, 63604, Note_off_c, 2, 74, 127
1, 63604, Note_off_c, 6, 54, 127
1, 63606, Note_on_c, 10, 81, 127
1, 63606, Note_on_c, 2, 50, 127
1, 63760, Note_off_c, 10, 81, 127
1, 63762, Note_on_c, 12, 83, 127
1, 63838, Note_off_c, 12, 83, 127
1, 63840, Note_on_c, 0, 84, 127
1, 63916, Note_off_c, 0, 84, 127
1, 63916, Note_off_c, 2, 50, 127
1, 63918, Note_on_c, 0, 84, 127
1, 63918, Note_on_c, 7, 43, 127
1, 63970, Note_off_c, 0, 84, 127
1, 63970, Note_on_c, 12, 83, 127
1, 64022, Note_off_c, 12, 83, 127
1, 64022, Note_on_c, 0, 84, 127
1, 64072, Note_off_c, 7, 43, 127
1, 64074, Note_off_c, 0, 84, 127
1, 64074, Note_on_c, 12, 83, 127
1, 64074, Note_on_c, 7, 55, 127
1, 64150, Note_off_c, 12, 83, 127
1, 64228, Note_off_c, 7, 55, 127
1, 64230, Note_on_c, 7, 79, 127
1, 64230, Note_on_c, 6, 54, 127
1, 64384, Note_off_c, 6, 54, 127
1, 64386, Note_on_c, 4, 52, 127
1, 64540, Note_off_c, 4, 52, 127
1, 64542, Note_on_c, 2, 50, 127
1, 64696, Note_off_c, 2, 50, 127
1, 64698, Note_on_c, 0, 48, 127
1, 64782, Note_off_c, 7, 79, 127
1, 64852, Note_off_c, 0, 48, 127
1, 64854, Note_on_c, 2, 74, 127
1, 64854, Note_on_c, 12, 47, 127
1, 65008, Note_off_c, 12, 47, 127
1, 65010, Note_on_c, 10, 45, 127
1, 65164, Note_off_c, 10, 45, 127
1, 65164, Note_off_c, 2, 74, 127
1, 65166, Note_on_c, 2, 74, 127
1, 65166, Note_on_c, 7, 43, 127
1, 65320, Note_off_c, 7, 43, 127
1, 65320, Note_off_c, 2, 74, 127
1, 65322, Note_on_c, 4, 76, 127
1, 65322, Note_on_c, 0, 60, 127
1, 65476, Note_off_c, 0, 60, 127
1, 65476, Note_off_c, 4, 76, 127
1, 65478, Note_on_c, 2, 74, 127
1, 65478, Note_on_c, 12, 59, 127
1, 65478, Note_on_c, 7, 55, 127
1, 65632, Note_off_c, 12, 59, 127
1, 65632, Note_off_c, 2, 74, 127
1, 65634, Note_on_c, 4, 76, 127
1, 65634, Note_on_c, 0, 60, 127
1, 65770, Note_off_c, 7, 55, 127
1, 65788, Note_off_c, 0, 60, 127
1, 65788, Note_off_c, 4, 76, 127
1, 65790, Note_on_c, 2, 74, 127
1, 65790, Note_on_c, 12, 59, 127
1, 65790, Note_on_c, 7, 55, 127
1, 65944, Note_off_c, 12, 59, 127
1, 65944, Note_off_c, 2, 74, 127
1, 65946, Note_on_c, 4, 76, 127
1, 65946, Note_on_c, 0, 60, 127
1, 66082, Note_off_c, 7, 55, 127
1, 66100, Note_off_c, 0, 60, 127
1, 66100, Note_off_c, 4, 76, 127
1, 66102, Note_on_c, 2, 74, 127
1, 66102, Note_on_c, 7, 55, 127
1, 66102, Note_on_c, 12, 59, 127
1, 66256, Note_off_c, 12, 59, 127
1, 66256, Note_off_c, 2, 74, 127
1, 66258, Note_on_c, 4, 76, 127
1, 66258, Note_on_c, 0, 60, 127
1, 66394, Note_off_c, 7, 55, 127
1, 66412, Note_off_c, 0, 60, 127
1, 66412, Note_off_c, 4, 76, 127
1, 66414, Note_on_c, 12, 71, 127
1, 66414, Note_on_c, 2, 62, 127
1, 66414, Note_on_c, 7, 55, 127
1, 66568, Note_off_c, 2, 62, 127
1, 66568, Note_off_c, 12, 71, 127
1, 66570, Note_on_c, 0, 72, 127
1, 66570, Note_on_c, 4, 64, 127
1, 66706, Note_off_c, 7, 55, 127
1, 66724, Note_off_c, 4, 64, 127
1, 66724, Note_off_c, 0, 72, 127
1, 66726, Note_on_c, 7, 67, 127
1, 66726, Note_on_c, 12, 71, 127
1, 66726, Note_on_c, 2, 62, 127
1, 66880, Note_off_c, 2, 62, 127
1, 66880, Note_off_c, 12, 71, 127
1, 66882, Note_on_c, 0, 72, 127
1, 66882, Note_on_c, 4, 64, 127
1, 67034, Note_off_c, 7, 67, 127
1, 67036, Note_off_c, 4, 64, 127
1, 67036, Note_off_c, 0, 72, 127
1, 67038, Note_on_c, 7, 67, 127
1, 67038, Note_on_c, 12, 71, 127
1, 67038, Note_on_c, 2, 62, 127
1, 67192, Note_off_c, 2, 62, 127
1, 67192, Note_off_c, 12, 71, 127
1, 67194, Note_on_c, 0, 72, 127
1, 67194, Note_on_c, 4, 64, 127
1, 67346, Note_off_c, 7, 67, 127
1, 67348, Note_off_c, 4, 64, 127
1, 67348, Note_off_c, 0, 72, 127
1, 67350, Note_on_c, 7, 67, 127
1, 67350, Note_on_c, 12, 71, 127
1, 67350, Note_on_c, 2, 62, 127
1, 67504, Note_off_c, 2, 62, 127
1, 67504, Note_off_c, 12, 71, 127
1, 67506, Note_on_c, 0, 72, 127
1, 67506, Note_on_c, 4, 64, 127
1, 67658, Note_off_c, 7, 67, 127
1, 67660, Note_off_c, 4, 64, 127
1, 67660, Note_off_c, 0, 72, 127
1, 67662, Note_on_c, 7, 67, 127
1, 67662, Note_on_c, 2, 74, 127
1, 67662, Note_on_c, 12, 59, 127
1, 67816, Note_off_c, 12, 59, 127
1, 67816, Note_off_c, 2, 74, 127
1, 67818, Note_on_c, 4, 76, 127
1, 67818, Note_on_c, 0, 60, 127
1, 67970, Note_off_c, 7, 67, 127
1, 67972, Note_off_c, 0, 60, 127
1, 67972, Note_off_c, 4, 76, 127
1, 67974, Note_on_c, 7, 67, 127
1, 67974, Note_on_c, 2, 74, 127
1, 67974, Note_on_c, 12, 59, 127
1, 67974, Note_on_c, 7, 55, 127
1, 68128, Note_off_c, 12, 59, 127
1, 68128, Note_off_c, 2, 74, 127
1, 68130, Note_on_c, 4, 76, 127
1, 68130, Note_on_c, 0, 60, 127
1, 68266, Note_off_c, 7, 55, 127
1, 68282, Note_off_c, 7, 67, 127
1, 68284, Note_off_c, 0, 60, 127
1, 68284, Note_off_c, 4, 76, 127
1, 68286, Note_on_c, 2, 74, 127
1, 68286, Note_on_c, 7, 67, 127
1, 68286, Note_on_c, 12, 59, 127
1, 68286, Note_on_c, 7, 55, 127
1, 68440, Note_off_c, 12, 59, 127
1, 68440, Note_off_c, 2, 74, 127
1, 68442, Note_on_c, 4, 76, 127
1, 68442, Note_on_c, 0, 60, 127
1, 68578, Note_off_c, 7, 55, 127
1, 68594, Note_off_c, 7, 67, 127
1, 68596, Note_off_c, 0, 60, 127
1, 68596, Note_off_c, 4, 76, 127
1, 68598, Note_on_c, 7, 67, 127
1, 68598, Note_on_c, 2, 74, 127
1, 68598, Note_on_c, 7, 55, 127
1, 68598, Note_on_c, 12, 59, 127
1, 68752, Note_off_c, 12, 59, 127
1, 68752, Note_off_c, 2, 74, 127
1, 68754, Note_on_c, 4, 76, 127
1, 68754, Note_on_c, 0, 60, 127
1, 68890, Note_off_c, 7, 55, 127
1, 68906, Note_off_c, 7, 67, 127
1, 68908, Note_off_c, 0, 60, 127
1, 68908, Note_off_c, 4, 76, 127
1, 68910, Note_on_c, 7, 67, 127
1, 68910, Note_on_c, 0, 72, 127
1, 68910, Note_on_c, 2, 62, 127
1, 68910, Note_on_c, 7, 55, 127
1, 68975, Note_off_c, 0, 72, 127
1, 68975, Note_on_c, 12, 71, 127
1, 69040, Note_off_c, 12, 71, 127
1, 69040, Note_on_c, 0, 72, 127
1, 69064, Note_off_c, 2, 62, 127
1, 69066, Note_on_c, 0, 60, 127
1, 69105, Note_off_c, 0, 72, 127
1, 69105, Note_on_c, 12, 71, 127
1, 69191, Note_off_c, 12, 71, 127
1, 69219, Note_off_c, 7, 55, 127
1, 69219, Note_off_c, 7, 67, 127
1, 69221, Note_off_c, 0, 60, 127
1, 69223, Note_on_c, 7, 67, 127
1, 69223, Note_on_c, 12, 59, 127
1, 69377, Note_off_c, 12, 59, 127
1, 69379, Note_on_c, 10, 57, 127
1, 69533, Note_off_c, 10, 57, 127
1, 69535, Note_on_c, 7, 55, 127
1, 69689, Note_off_c, 7, 55, 127
1, 69691, Note_on_c, 5, 53, 127
1, 69808, Note_off_c, 7, 67, 127
1, 69845, Note_off_c, 5, 53, 127
1, 69847, Note_on_c, 7, 79, 127
1, 69847, Note_on_c, 4, 52, 127
1, 70001, Note_off_c, 4, 52, 127
1, 70003, Note_on_c, 2, 50, 127
1, 70157, Note_off_c, 2, 50, 127
1, 70157, Note_off_c, 7, 79, 127
1, 70159, Note_on_c, 7, 79, 127
1, 70159, Note_on_c, 0, 48, 127
1, 70313, Note_off_c, 0, 48, 127
1, 70313, Note_off_c, 7, 79, 127
1, 70315, Note_on_c, 10, 81, 127
1, 70315, Note_on_c, 5, 65, 127
1, 70469, Note_off_c, 5, 65, 127
1, 70469, Note_off_c, 10, 81, 127
1, 70471, Note_on_c, 7, 79, 127
1, 70471, Note_on_c, 4, 64, 127
1, 70471, Note_on_c, 0, 60, 127
1, 70625, Note_off_c, 4, 64, 127
1, 70625, Note_off_c, 7, 79, 127
1, 70627, Note_on_c, 10, 81, 127
1, 70627, Note_on_c, 5, 65, 127
1, 70763, Note_off_c, 0, 60, 127
1, 70781, Note_off_c, 5, 65, 127
1, 70781, Note_off_c, 10, 81, 127
1, 70783, Note_on_c, 7, 79, 127
1, 70783, Note_on_c, 4, 64, 127
1, 70783, Note_on_c, 0, 60, 127
1, 70937, Note_off_c, 4, 64, 127
1, 70937, Note_off_c, 7, 79, 127
1, 70939, Note_on_c, 10, 81, 127
1, 70939, Note_on_c, 5, 65, 127
1, 71075, Note_off_c, 0, 60, 127
1, 71093, Note_off_c, 5, 65, 127
1, 71093, Note_off_c, 10, 81, 127
1, 71095, Note_on_c, 7, 79, 127
1, 71095, Note_on_c, 0, 60, 127
1, 71095, Note_on_c, 4, 64, 127
1, 71249, Note_off_c, 4, 64, 127
1, 71249, Note_off_c, 7, 79, 127
1, 71251, Note_on_c, 10, 81, 127
1, 71251, Note_on_c, 5, 65, 127
1, 71387, Note_off_c, 0, 60, 127
1, 71405, Note_off_c, 5, 65, 127
1, 71405, Note_off_c, 10, 81, 127
1, 71407, Note_on_c, 4, 76, 127
1, 71407, Note_on_c, 7, 67, 127
1, 71407, Note_on_c, 0, 60, 127
1, 71561, Note_off_c, 7, 67, 127
1, 71561, Note_off_c, 4, 76, 127
1, 71563, Note_on_c, 5, 77, 127
1, 71563, Note_on_c, 10, 69, 127
1, 71699, Note_off_c, 0, 60, 127
1, 71717, Note_off_c, 10, 69, 127
1, 71717, Note_off_c, 5, 77, 127
1, 71719, Note_on_c, 0, 72, 127
1, 71719, Note_on_c, 4, 76, 127
1, 71719, Note_on_c, 7, 67, 127
1, 71873, Note_off_c, 7, 67, 127
1, 71873, Note_off_c, 4, 76, 127
1, 71875, Note_on_c, 5, 77, 127
1, 71875, Note_on_c, 10, 69, 127
1, 72027, Note_off_c, 0, 72, 127
1, 72029, Note_off_c, 10, 69, 127
1, 72029, Note_off_c, 5, 77, 127
1, 72031, Note_on_c, 0, 72, 127
1, 72031, Note_on_c, 4, 76, 127
1, 72031, Note_on_c, 7, 67, 127
1, 72185, Note_off_c, 7, 67, 127
1, 72185, Note_off_c, 4, 76, 127
1, 72187, Note_on_c, 5, 77, 127
1, 72187, Note_on_c, 10, 69, 127
1, 72339, Note_off_c, 0, 72, 127
1, 72341, Note_off_c, 10, 69, 127
1, 72341, Note_off_c, 5, 77, 127
1, 72343, Note_on_c, 4, 76, 127
1, 72343, Note_on_c, 0, 72, 127
1, 72343, Note_on_c, 7, 67, 127
1, 72497, Note_off_c, 7, 67, 127
1, 72497, Note_off_c, 4, 76, 127
1, 72499, Note_on_c, 5, 77, 127
1, 72499, Note_on_c, 10, 69, 127
1, 72651, Note_off_c, 0, 72, 127
1, 72653, Note_off_c, 10, 69, 127
1, 72653, Note_off_c, 5, 77, 127
1, 72655, Note_on_c, 0, 72, 127
1, 72655, Note_on_c, 7, 79, 127
1, 72655, Note_on_c, 4, 64, 127
1, 72809, Note_off_c, 4, 64, 127
1, 72809, Note_off_c, 7, 79, 127
1, 72811, Note_on_c, 10, 81, 127
1, 72811, Note_on_c, 5, 65, 127
1, 72963, Note_off_c, 0, 72, 127
1, 72965, Note_off_c, 5, 65, 127
1, 72965, Note_off_c, 10, 81, 127
1, 72967, Note_on_c, 7, 79, 127
1, 72967, Note_on_c, 0, 72, 127
1, 72967, Note_on_c, 0, 60, 127
1, 72967, Note_on_c, 4, 64, 127
1, 73121, Note_off_c, 4, 64, 127
1, 73121, Note_off_c, 7, 79, 127
1, 73123, Note_on_c, 10, 81, 127
1, 73123, Note_on_c, 5, 65, 127
1, 73259, Note_off_c, 0, 60, 127
1, 73275, Note_off_c, 0, 72, 127
1, 73277, Note_off_c, 5, 65, 127
1, 73277, Note_off_c, 10, 81, 127
1, 73279, Note_on_c, 0, 72, 127
1, 73279, Note_on_c, 7, 79, 127
1, 73279, Note_on_c, 4, 64, 127
1, 73279, Note_on_c, 0, 60, 127
1, 73433, Note_off_c, 4, 64, 127
1, 73433, Note_off_c, 7, 79, 127
1, 73435, Note_on_c, 10, 81, 127
1, 73435, Note_on_c, 5, 65, 127
1, 73571, Note_off_c, 0, 60, 127
1, 73587, Note_off_c, 0, 72, 127
1, 73589, Note_off_c, 5, 65, 127
1, 73589, Note_off_c, 10, 81, 127
1, 73591, Note_on_c, 7, 79, 127
1, 73591, Note_on_c, 0, 72, 127
1, 73591, Note_on_c, 0, 60, 127
1, 73591, Note_on_c, 4, 64, 127
1, 73745, Note_off_c, 4, 64, 127
1, 73745, Note_off_c, 7, 79, 127
1, 73747, Note_on_c, 10, 81, 127
1, 73747, Note_on_c, 5, 65, 127
1, 73883, Note_off_c, 0, 60, 127
1, 73899, Note_off_c, 0, 72, 127
1, 73901, Note_off_c, 5, 65, 127
1, 73901, Note_off_c, 10, 81, 127
1, 73903, Note_on_c, 0, 72, 127
1, 73903, Note_on_c, 5, 77, 127
1, 73903, Note_on_c, 7, 67, 127
1, 73903, Note_on_c, 0, 60, 127
1, 73955, Note_off_c, 5, 77, 127
1, 73961, Note_on_c, 4, 76, 127
1, 74013, Note_off_c, 4, 76, 127
1, 74019, Note_on_c, 5, 77, 127
1, 74056, Note_off_c, 0, 60, 127
1, 74056, Note_off_c, 7, 67, 127
1, 74058, Note_on_c, 10, 57, 127
1, 74071, Note_off_c, 5, 77, 127
1, 74077, Note_on_c, 4, 76, 127
1, 74153, Note_off_c, 4, 76, 127
1, 74210, Note_off_c, 0, 72, 127
1, 74212, Note_off_c, 10, 57, 127
1, 74214, Note_on_c, 0, 72, 127
1, 74214, Note_on_c, 7, 55, 127
1, 74368, Note_off_c, 7, 55, 127
1, 74370, Note_on_c, 5, 53, 127
1, 74524, Note_off_c, 5, 53, 127
1, 74526, Note_on_c, 4, 52, 127
1, 74680, Note_off_c, 4, 52, 127
1, 74682, Note_on_c, 2, 50, 127
1, 74766, Note_off_c, 0, 72, 127
1, 74836, Note_off_c, 2, 50, 127
1, 74838, Note_on_c, 4, 76, 127
1, 74838, Note_on_c, 0, 48, 127
1, 74992, Note_off_c, 0, 48, 127
1, 74994, Note_on_c, 12, 47, 127
1, 75148, Note_off_c, 12, 47, 127
1, 75148, Note_off_c, 4, 76, 127
1, 75150, Note_on_c, 4, 76, 127
1, 75150, Note_on_c, 10, 45, 127
1, 75304, Note_off_c, 10, 45, 127
1, 75304, Note_off_c, 4, 76, 127
1, 75306, Note_on_c, 5, 77, 127
1, 75306, Note_on_c, 2, 62, 127
1, 75460, Note_off_c, 2, 62, 127
1, 75460, Note_off_c, 5, 77, 127
1, 75462, Note_on_c, 4, 76, 127
1, 75462, Note_on_c, 0, 60, 127
1, 75462, Note_on_c, 10, 57, 127
1, 75616, Note_off_c, 0, 60, 127
1, 75616, Note_off_c, 4, 76, 127
1, 75618, Note_on_c, 5, 77, 127
1, 75618, Note_on_c, 2, 62, 127
1, 75754, Note_off_c, 10, 57, 127
1, 75772, Note_off_c, 2, 62, 127
1, 75772, Note_off_c, 5, 77, 127
1, 75774, Note_on_c, 4, 76, 127
1, 75774, Note_on_c, 0, 60, 127
1, 75774, Note_on_c, 10, 57, 127
1, 75928, Note_off_c, 0, 60, 127
1, 75928, Note_off_c, 4, 76, 127
1, 75930, Note_on_c, 5, 77, 127
1, 75930, Note_on_c, 2, 62, 127
1, 76066, Note_off_c, 10, 57, 127
1, 76084, Note_off_c, 2, 62, 127
1, 76084, Note_off_c, 5, 77, 127
1, 76086, Note_on_c, 4, 76, 127
1, 76086, Note_on_c, 10, 57, 127
1, 76086, Note_on_c, 0, 60, 127
1, 76240, Note_off_c, 0, 60, 127
1, 76240, Note_off_c, 4, 76, 127
1, 76242, Note_on_c, 5, 77, 127
1, 76242, Note_on_c, 2, 62, 127
1, 76378, Note_off_c, 10, 57, 127
1, 76396, Note_off_c, 2, 62, 127
1, 76396, Note_off_c, 5, 77, 127
1, 76398, Note_on_c, 0, 72, 127
1, 76398, Note_on_c, 10, 57, 127
1, 76398, Note_on_c, 4, 64, 127
1, 76552, Note_off_c, 4, 64, 127
1, 76552, Note_off_c, 0, 72, 127
1, 76554, Note_on_c, 2, 74, 127
1, 76554, Note_on_c, 5, 65, 127
1, 76690, Note_off_c, 10, 57, 127
1, 76708, Note_off_c, 5, 65, 127
1, 76708, Note_off_c, 2, 74, 127
1, 76710, Note_on_c, 10, 69, 127
1, 76710, Note_on_c, 0, 72, 127
1, 76710, Note_on_c, 4, 64, 127
1, 76864, Note_off_c, 4, 64, 127
1, 76864, Note_off_c, 0, 72, 127
1, 76866, Note_on_c, 2, 74, 127
1, 76866, Note_on_c, 5, 65, 127
1, 77018, Note_off_c, 10, 69, 127
1, 77020, Note_off_c, 5, 65, 127
1, 77020, Note_off_c, 2, 74, 127
1, 77022, Note_on_c, 0, 72, 127
1, 77022, Note_on_c, 10, 69, 127
1, 77022, Note_on_c, 4, 64, 127
1, 77176, Note_off_c, 4, 64, 127
1, 77176, Note_off_c, 0, 72, 127
1, 77178, Note_on_c, 2, 74, 127
1, 77178, Note_on_c, 5, 65, 127
1, 77330, Note_off_c, 10, 69, 127
1, 77332, Note_off_c, 5, 65, 127
1, 77332, Note_off_c, 2, 74, 127
1, 77334, Note_on_c, 10, 69, 127
1, 77334, Note_on_c, 0, 72, 127
1, 77334, Note_on_c, 4, 64, 127
1, 77488, Note_off_c, 4, 64, 127
1, 77488, Note_off_c, 0, 72, 127
1, 77490, Note_on_c, 2, 74, 127
1, 77490, Note_on_c, 5, 65, 127
1, 77642, Note_off_c, 10, 69, 127
1, 77644, Note_off_c, 5, 65, 127
1, 77644, Note_off_c, 2, 74, 127
1, 77646, Note_on_c, 10, 69, 127
1, 77646, Note_on_c, 4, 76, 127
1, 77646, Note_on_c, 0, 60, 127
1, 77800, Note_off_c, 0, 60, 127
1, 77800, Note_off_c, 4, 76, 127
1, 77802, Note_on_c, 5, 77, 127
1, 77802, Note_on_c, 2, 62, 127
1, 77954, Note_off_c, 10, 69, 127
1, 77956, Note_off_c, 2, 62, 127
1, 77956, Note_off_c, 5, 77, 127
1, 77958, Note_on_c, 10, 69, 127
1, 77958, Note_on_c, 4, 76, 127
1, 77958, Note_on_c, 10, 57, 127
1, 77958, Note_on_c, 0, 60, 127
1, 78112, Note_off_c, 0, 60, 127
1, 78112, Note_off_c, 4, 76, 127
1, 78114, Note_on_c, 5, 77, 127
1, 78114, Note_on_c, 2, 62, 127
1, 78250, Note_off_c, 10, 57, 127
1, 78266, Note_off_c, 10, 69, 127
1, 78268, Note_off_c, 2, 62, 127
1, 78268, Note_off_c, 5, 77, 127
1, 78270, Note_on_c, 4, 76, 127
1, 78270, Note_on_c, 10, 69, 127
1, 78270, Note_on_c, 10, 57, 127
1, 78270, Note_on_c, 0, 60, 127
1, 78424, Note_off_c, 0, 60, 127
1, 78424, Note_off_c, 4, 76, 127
1, 78426, Note_on_c, 5, 77, 127
1, 78426, Note_on_c, 2, 62, 127
1, 78562, Note_off_c, 10, 57, 127
1, 78578, Note_off_c, 10, 69, 127
1, 78580, Note_off_c, 2, 62, 127
1, 78580, Note_off_c, 5, 77, 127
1, 78582, Note_on_c, 10, 69, 127
1, 78582, Note_on_c, 4, 76, 127
1, 78582, Note_on_c, 10, 57, 127
1, 78582, Note_on_c, 0, 60, 127
1, 78736, Note_off_c, 0, 60, 127
1, 78736, Note_off_c, 4, 76, 127
1, 78738, Note_on_c, 5, 77, 127
1, 78738, Note_on_c, 2, 62, 127
1, 78874, Note_off_c, 10, 57, 127
1, 78890, Note_off_c, 10, 69, 127
1, 78892, Note_off_c, 2, 62, 127
1, 78892, Note_off_c, 5, 77, 127
1, 78894, Note_on_c, 2, 74, 127
1, 78894, Note_on_c, 4, 64, 127
1, 78894, Note_on_c, 10, 57, 127
1, 78959, Note_off_c, 2, 74, 127
1, 78959, Note_on_c, 0, 72, 127
1, 79024, Note_off_c, 0, 72, 127
1, 79024, Note_on_c, 2, 74, 127
1, 79048, Note_off_c, 10, 57, 127
1, 79048, Note_off_c, 4, 64, 127
1, 79050, Note_on_c, 5, 53, 127
1, 79089, Note_off_c, 2, 74, 127
1, 79089, Note_on_c, 0, 72, 127
1, 79190, Note_off_c, 0, 72, 127
1, 79205, Note_off_c, 5, 53, 127
1, 79207, Note_on_c, 10, 69, 127
1, 79207, Note_on_c, 4, 52, 127
1, 79361, Note_off_c, 4, 52, 127
1, 79363, Note_on_c, 2, 50, 127
1, 79517, Note_off_c, 2, 50, 127
1, 79519, Note_on_c, 0, 48, 127
1, 79662, Note_off_c, 10, 69, 127
1, 79673, Note_off_c, 0, 48, 127
1, 79675, Note_on_c, 12, 47, 127
1, 79829, Note_off_c, 12, 47, 127
1, 79831, Note_on_c, 4, 64, 127
1, 79831, Note_on_c, 10, 45, 127
1, 79985, Note_off_c, 10, 45, 127
1, 79987, Note_on_c, 8, 44, 127
1, 80141, Note_off_c, 8, 44, 127
1, 80141, Note_off_c, 4, 64, 127
1, 80143, Note_on_c, 10, 69, 127
1, 80143, Note_on_c, 10, 45, 127
1, 80297, Note_off_c, 10, 69, 127
1, 80299, Note_on_c, 4, 64, 127
1, 80453, Note_off_c, 4, 64, 127
1, 80453, Note_off_c, 10, 45, 127
1, 80455, Note_on_c, 10, 69, 127
1, 80455, Note_on_c, 10, 57, 127
1, 80609, Note_off_c, 10, 69, 127
1, 80611, Note_on_c, 0, 72, 127
1, 80765, Note_off_c, 0, 72, 127
1, 80765, Note_off_c, 10, 57, 127
1, 80767, Note_on_c, 12, 71, 127
1, 80767, Note_on_c, 8, 56, 127
1, 80921, Note_off_c, 12, 71, 127
1, 80923, Note_on_c, 4, 64, 127
1, 81077, Note_off_c, 4, 64, 127
1, 81077, Note_off_c, 8, 56, 127
1, 81079, Note_on_c, 12, 71, 127
1, 81079, Note_on_c, 4, 52, 127
1, 81233, Note_off_c, 12, 71, 127
1, 81235, Note_on_c, 2, 74, 127
1, 81389, Note_off_c, 2, 74, 127
1, 81389, Note_off_c, 4, 52, 127
1, 81391, Note_on_c, 0, 72, 127
1, 81391, Note_on_c, 10, 45, 127
1, 81545, Note_off_c, 0, 72, 127
1, 81547, Note_on_c, 4, 64, 127
1, 81701, Note_off_c, 4, 64, 127
1, 81701, Note_off_c, 10, 45, 127
1, 81703, Note_on_c, 10, 69, 127
1, 81703, Note_on_c, 10, 57, 127
1, 81857, Note_off_c, 10, 69, 127
1, 81859, Note_on_c, 12, 71, 127
1, 81935, Note_off_c, 12, 71, 127
1, 81937, Note_on_c, 0, 72, 127
1, 82013, Note_off_c, 0, 72, 127
1, 82013, Note_off_c, 10, 57, 127
1, 82015, Note_on_c, 12, 71, 127
1, 82015, Note_on_c, 8, 56, 127
1, 82169, Note_off_c, 12, 71, 127
1, 82171, Note_on_c, 4, 64, 127
1, 82325, Note_off_c, 4, 64, 127
1, 82325, Note_off_c, 8, 56, 127
1, 82327, Note_on_c, 12, 71, 127
1, 82327, Note_on_c, 4, 52, 127
1, 82481, Note_off_c, 12, 71, 127
1, 82483, Note_on_c, 2, 74, 127
1, 82637, Note_off_c, 2, 74, 127
1, 82637, Note_off_c, 4, 52, 127
1, 82639, Note_on_c, 0, 72, 127
1, 82639, Note_on_c, 10, 45, 127
1, 82793, Note_off_c, 0, 72, 127
1, 82795, Note_on_c, 4, 64, 127
1, 82949, Note_off_c, 4, 64, 127
1, 82949, Note_off_c, 10, 45, 127
1, 82951, Note_on_c, 10, 69, 127
1, 82951, Note_on_c, 10, 57, 127
1, 83053, Note_off_c, 10, 69, 127
1, 83055, Note_on_c, 12, 71, 127
1, 83157, Note_off_c, 12, 71, 127
1, 83159, Note_on_c, 0, 72, 127
1, 83261, Note_off_c, 0, 72, 127
1, 83261, Note_off_c, 10, 57, 127
1, 83263, Note_on_c, 12, 71, 127
1, 83263, Note_on_c, 8, 56, 127
1, 83417, Note_off_c, 12, 71, 127
1, 83419, Note_on_c, 4, 64, 127
1, 83573, Note_off_c, 4, 64, 127
1, 83573, Note_off_c, 8, 56, 127
1, 83575, Note_on_c, 12, 71, 127
1, 83575, Note_on_c, 4, 52, 127
1, 83677, Note_off_c, 12, 71, 127
1, 83679, Note_on_c, 0, 72, 127
1, 83781, Note_off_c, 0, 72, 127
1, 83783, Note_on_c, 2, 74, 127
1, 83885, Note_off_c, 2, 74, 127
1, 83885, Note_off_c, 4, 52, 127
1, 83887, Note_on_c, 0, 72, 127
1, 83887, Note_on_c, 10, 45, 127
1, 84041, Note_off_c, 10, 45, 127
1, 84043, Note_on_c, 12, 47, 127
1, 84167, Note_off_c, 0, 72, 127
1, 84197, Note_off_c, 12, 47, 127
1, 84199, Note_on_c, 10, 69, 127
1, 84199, Note_on_c, 0, 48, 127
1, 84353, Note_off_c, 0, 48, 127
1, 84355, Note_on_c, 2, 50, 127
1, 84507, Note_off_c, 10, 69, 127
1, 84509, Note_off_c, 2, 50, 127
1, 84511, Note_on_c, 4, 52, 127
1, 84665, Note_off_c, 4, 52, 127
1, 84667, Note_on_c, 6, 54, 127
1, 84821, Note_off_c, 6, 54, 127
1, 84823, Note_on_c, 4, 76, 127
1, 84823, Note_on_c, 8, 56, 127
1, 84977, Note_off_c, 8, 56, 127
1, 84979, Note_on_c, 10, 57, 127
1, 85133, Note_off_c, 10, 57, 127
1, 85133, Note_off_c, 4, 76, 127
1, 85135, Note_on_c, 4, 76, 127
1, 85135, Note_on_c, 8, 56, 127
1, 85289, Note_off_c, 8, 56, 127
1, 85291, Note_on_c, 8, 80, 127
1, 85291, Note_on_c, 4, 52, 127
1, 85362, Note_off_c, 4, 76, 127
1, 85445, Note_off_c, 4, 52, 127
1, 85445, Note_off_c, 8, 80, 127
1, 85447, Note_on_c, 4, 76, 127
1, 85447, Note_on_c, 8, 56, 127
1, 85601, Note_off_c, 8, 56, 127
1, 85603, Note_on_c, 8, 80, 127
1, 85603, Note_on_c, 12, 59, 127
1, 85674, Note_off_c, 4, 76, 127
1, 85757, Note_off_c, 12, 59, 127
1, 85757, Note_off_c, 8, 80, 127
1, 85759, Note_on_c, 4, 76, 127
1, 85759, Note_on_c, 2, 62, 127
1, 85913, Note_off_c, 2, 62, 127
1, 85913, Note_off_c, 4, 76, 127
1, 85915, Note_on_c, 8, 80, 127
1, 85915, Note_on_c, 12, 59, 127
1, 86069, Note_off_c, 12, 59, 127
1, 86071, Note_on_c, 12, 71, 127
1, 86071, Note_on_c, 4, 64, 127
1, 86207, Note_off_c, 8, 80, 127
1, 86225, Note_off_c, 4, 64, 127
1, 86225, Note_off_c, 12, 71, 127
1, 86227, Note_on_c, 8, 80, 127
1, 86227, Note_on_c, 2, 62, 127
1, 86381, Note_off_c, 2, 62, 127
1, 86381, Note_off_c, 8, 80, 127
1, 86383, Note_on_c, 4, 76, 127
1, 86383, Note_on_c, 0, 60, 127
1, 86537, Note_off_c, 0, 60, 127
1, 86539, Note_on_c, 10, 81, 127
1, 86539, Note_on_c, 2, 62, 127
1, 86610, Note_off_c, 4, 76, 127
1, 86693, Note_off_c, 2, 62, 127
1, 86693, Note_off_c, 10, 81, 127
1, 86695, Note_on_c, 4, 76, 127
1, 86695, Note_on_c, 0, 60, 127
1, 86849, Note_off_c, 0, 60, 127
1, 86851, Note_on_c, 10, 81, 127
1, 86851, Note_on_c, 12, 59, 127
1, 86922, Note_off_c, 4, 76, 127
1, 87005, Note_off_c, 12, 59, 127
1, 87005, Note_off_c, 10, 81, 127
1, 87007, Note_on_c, 4, 76, 127
1, 87007, Note_on_c, 10, 57, 127
1, 87161, Note_off_c, 10, 57, 127
1, 87161, Note_off_c, 4, 76, 127
1, 87163, Note_on_c, 10, 81, 127
1, 87163, Note_on_c, 0, 60, 127
1, 87317, Note_off_c, 0, 60, 127
1, 87319, Note_on_c, 0, 72, 127
1, 87319, Note_on_c, 12, 59, 127
1, 87455, Note_off_c, 10, 81, 127
1, 87473, Note_off_c, 12, 59, 127
1, 87473, Note_off_c, 0, 72, 127
1, 87475, Note_on_c, 10, 81, 127
1, 87475, Note_on_c, 10, 57, 127
1, 87629, Note_off_c, 10, 57, 127
1, 87629, Note_off_c, 10, 81, 127
1, 87631, Note_on_c, 4, 76, 127
1, 87631, Note_on_c, 8, 56, 127
1, 87785, Note_off_c, 8, 56, 127
1, 87787, Note_on_c, 8, 80, 127
1, 87787, Note_on_c, 4, 52, 127
1, 87858, Note_off_c, 4, 76, 127
1, 87941, Note_off_c, 4, 52, 127
1, 87941, Note_off_c, 8, 80, 127
1, 87943, Note_on_c, 4, 76, 127
1, 87943, Note_on_c, 8, 56, 127
1, 88097, Note_off_c, 8, 56, 127
1, 88099, Note_on_c, 8, 80, 127
1, 88099, Note_on_c, 12, 59, 127
1, 88170, Note_off_c, 4, 76, 127
1, 88253, Note_off_c, 12, 59, 127
1, 88253, Note_off_c, 8, 80, 127
1, 88255, Note_on_c, 4, 76, 127
1, 88255, Note_on_c, 2, 62, 127
1, 88409, Note_off_c, 2, 62, 127
1, 88409, Note_off_c, 4, 76, 127
1, 88411, Note_on_c, 8, 80, 127
1, 88411, Note_on_c, 12, 59, 127
1, 88565, Note_off_c, 12, 59, 127
1, 88567, Note_on_c, 12, 71, 127
1, 88567, Note_on_c, 4, 64, 127
1, 88703, Note_off_c, 8, 80, 127
1, 88721, Note_off_c, 4, 64, 127
1, 88721, Note_off_c, 12, 71, 127
1, 88723, Note_on_c, 8, 80, 127
1, 88723, Note_on_c, 2, 62, 127
1, 88877, Note_off_c, 2, 62, 127
1, 88877, Note_off_c, 8, 80, 127
1, 88879, Note_on_c, 4, 76, 127
1, 88879, Note_on_c, 0, 60, 127
1, 89033, Note_off_c, 0, 60, 127
1, 89035, Note_on_c, 10, 81, 127
1, 89035, Note_on_c, 2, 62, 127
1, 89106, Note_off_c, 4, 76, 127
1, 89189, Note_off_c, 2, 62, 127
1, 89189, Note_off_c, 10, 81, 127
1, 89191, Note_on_c, 4, 76, 127
1, 89191, Note_on_c, 0, 60, 127
1, 89345, Note_off_c, 0, 60, 127
1, 89347, Note_on_c, 10, 81, 127
1, 89347, Note_on_c, 12, 59, 127
1, 89435, Note_off_c, 4, 76, 127
1, 89501, Note_off_c, 12, 59, 127
1, 89501, Note_off_c, 10, 81, 127
1, 89503, Note_on_c, 4, 76, 127
1, 89503, Note_on_c, 10, 57, 127
1, 89657, Note_off_c, 10, 57, 127
1, 89659, Note_on_c, 10, 81, 127
1, 89659, Note_on_c, 12, 59, 127
1, 89763, Note_off_c, 4, 76, 127
1, 89813, Note_off_c, 12, 59, 127
1, 89813, Note_off_c, 10, 81, 127
1, 89815, Note_on_c, 0, 72, 127
1, 89815, Note_on_c, 10, 57, 127
1, 89969, Note_off_c, 10, 57, 127
1, 89971, Note_on_c, 10, 81, 127
1, 89971, Note_on_c, 7, 55, 127
1, 90091, Note_off_c, 0, 72, 127
1, 90125, Note_off_c, 7, 55, 127
1, 90125, Note_off_c, 10, 81, 127
1, 90127, Note_on_c, 2, 74, 127
1, 90127, Note_on_c, 5, 53, 127
1, 90281, Note_off_c, 5, 53, 127
1, 90283, Note_on_c, 10, 81, 127
1, 90283, Note_on_c, 4, 52, 127
1, 90435, Note_off_c, 2, 74, 127
1, 90437, Note_off_c, 4, 52, 127
1, 90437, Note_off_c, 10, 81, 127
1, 90439, Note_on_c, 8, 80, 127
1, 90439, Note_on_c, 5, 53, 127
1, 90593, Note_off_c, 5, 53, 127
1, 90593, Note_off_c, 8, 80, 127
1, 90595, Note_on_c, 10, 81, 127
1, 90595, Note_on_c, 2, 50, 127
1, 90749, Note_off_c, 2, 50, 127
1, 90749, Note_off_c, 10, 81, 127
1, 90751, Note_on_c, 4, 52, 127
1, 90751, Note_on_c, 0, 72, 127
1, 90815, Note_on_c, 12, 71, 127
1, 90816, Note_off_c, 0, 72, 127
1, 90879, Note_on_c, 0, 72, 127
1, 90880, Note_off_c, 12, 71, 127
1, 90911, Note_off_c, 4, 52, 127
1, 90912, Note_on_c, 10, 57, 127
1, 90943, Note_on_c, 12, 71, 127
1, 90944, Note_off_c, 0, 72, 127
1, 91006, Note_on_c, 0, 72, 127
1, 91008, Note_off_c, 12, 71, 127
1, 91071, Note_off_c, 0, 72, 127
1, 91072, Note_off_c, 10, 57, 127
1, 91072, Note_on_c, 12, 71, 127
1, 91073, Note_on_c, 8, 56, 127
1, 91135, Note_on_c, 0, 72, 127
1, 91137, Note_off_c, 12, 71, 127
1, 91199, Note_on_c, 12, 71, 127
1, 91200, Note_off_c, 0, 72, 127
1, 91233, Note_off_c, 8, 56, 127
1, 91234, Note_on_c, 10, 57, 127
1, 91264, Note_off_c, 12, 71, 127
1, 91264, Note_on_c, 10, 69, 127
1, 91327, Note_on_c, 12, 71, 127
1, 91329, Note_off_c, 10, 69, 127
1, 91384, Note_off_c, 10, 57, 127
1, 91387, Note_off_c, 12, 71, 127
1, 91396, Note_on_c, 10, 69, 127
1, 91396, Note_on_c, 10, 45, 127
1, 91558, Note_on_c, 10, 57, 127
1, 91566, Note_off_c, 10, 45, 127
1, 91726, Note_on_c, 7, 55, 127
1, 91728, Note_off_c, 10, 57, 127
1, 91880, Note_off_c, 7, 55, 127
1, 91882, Note_on_c, 5, 53, 127
1, 92036, Note_off_c, 5, 53, 127
1, 92038, Note_on_c, 4, 52, 127
1, 92192, Note_off_c, 4, 52, 127
1, 92194, Note_on_c, 2, 50, 127
1, 92330, Note_off_c, 10, 69, 127
1, 92348, Note_off_c, 2, 50, 127
1, 92350, Note_on_c, 0, 48, 127
1, 92350, Note_on_c, 4, 76, 127
1, 92504, Note_off_c, 4, 76, 127
1, 92504, Note_off_c, 0, 48, 127
1, 92506, Note_on_c, 12, 47, 127
1, 92506, Note_on_c, 2, 74, 127
1, 92660, Note_off_c, 2, 74, 127
1, 92660, Note_off_c, 12, 47, 127
1, 92662, Note_on_c, 10, 45, 127
1, 92662, Note_on_c, 0, 72, 127
1, 92816, Note_off_c, 0, 72, 127
1, 92816, Note_off_c, 10, 45, 127
1, 92818, Note_on_c, 4, 52, 127
1, 92818, Note_on_c, 10, 69, 127
1, 92972, Note_off_c, 10, 69, 127
1, 92972, Note_off_c, 4, 52, 127
1, 92974, Note_on_c, 6, 54, 127
1, 92974, Note_on_c, 0, 72, 127
1, 93128, Note_off_c, 0, 72, 127
1, 93128, Note_off_c, 6, 54, 127
1, 93130, Note_on_c, 8, 56, 127
1, 93130, Note_on_c, 4, 76, 127
1, 93284, Note_off_c, 4, 76, 127
1, 93284, Note_off_c, 8, 56, 127
1, 93286, Note_on_c, 10, 57, 127
1, 93286, Note_on_c, 0, 72, 127
1, 93440, Note_off_c, 0, 72, 127
1, 93440, Note_off_c, 10, 57, 127
1, 93442, Note_on_c, 7, 55, 127
1, 93442, Note_on_c, 10, 69, 127
1, 93596, Note_off_c, 10, 69, 127
1, 93596, Note_off_c, 7, 55, 127
1, 93598, Note_on_c, 5, 53, 127
1, 93598, Note_on_c, 0, 72, 127
1, 93752, Note_off_c, 0, 72, 127
1, 93752, Note_off_c, 5, 53, 127
1, 93754, Note_on_c, 4, 52, 127
1, 93754, Note_on_c, 4, 76, 127
1, 93908, Note_off_c, 4, 76, 127
1, 93908, Note_off_c, 4, 52, 127
1, 93910, Note_on_c, 2, 50, 127
1, 93910, Note_on_c, 5, 77, 127
1, 94064, Note_off_c, 2, 50, 127
1, 94066, Note_on_c, 10, 57, 127
1, 94066, Note_on_c, 10, 81, 127
1, 94186, Note_off_c, 5, 77, 127
1, 94220, Note_off_c, 10, 81, 127
1, 94220, Note_off_c, 10, 57, 127
1, 94222, Note_on_c, 12, 59, 127
1, 94222, Note_on_c, 4, 76, 127
1, 94376, Note_off_c, 12, 59, 127
1, 94378, Note_on_c, 0, 60, 127
1, 94378, Note_on_c, 10, 81, 127
1, 94498, Note_off_c, 4, 76, 127
1, 94532, Note_off_c, 10, 81, 127
1, 94532, Note_off_c, 0, 60, 127
1, 94534, Note_on_c, 2, 62, 127
1, 94534, Note_on_c, 5, 77, 127
1, 94688, Note_off_c, 2, 62, 127
1, 94690, Note_on_c, 0, 60, 127
1, 94690, Note_on_c, 10, 81, 127
1, 94810, Note_off_c, 5, 77, 127
1, 94844, Note_off_c, 10, 81, 127
1, 94844, Note_off_c, 0, 60, 127
1, 94846, Note_on_c, 12, 59, 127
1, 94846, Note_on_c, 2, 74, 127
1, 95000, Note_off_c, 2, 74, 127
1, 95000, Note_off_c, 12, 59, 127
1, 95002, Note_on_c, 10, 57, 127
1, 95002, Note_on_c, 10, 81, 127
1, 95156, Note_off_c, 10, 81, 127
1, 95156, Note_off_c, 10, 57, 127
1, 95158, Note_on_c, 7, 55, 127
1, 95158, Note_on_c, 12, 71, 127
1, 95312, Note_off_c, 12, 71, 127
1, 95312, Note_off_c, 7, 55, 127
1, 95314, Note_on_c, 2, 50, 127
1, 95314, Note_on_c, 7, 67, 127
1, 95468, Note_off_c, 7, 67, 127
1, 95468, Note_off_c, 2, 50, 127
1, 95470, Note_on_c, 4, 52, 127
1, 95470, Note_on_c, 12, 71, 127
1, 95624, Note_off_c, 12, 71, 127
1, 95624, Note_off_c, 4, 52, 127
1, 95626, Note_on_c, 5, 53, 127
1, 95626, Note_on_c, 2, 74, 127
1, 95780, Note_off_c, 2, 74, 127
1, 95780, Note_off_c, 5, 53, 127
1, 95782, Note_on_c, 7, 55, 127
1, 95782, Note_on_c, 12, 71, 127
1, 95936, Note_off_c, 12, 71, 127
1, 95936, Note_off_c, 7, 55, 127
1, 95938, Note_on_c, 5, 53, 127
1, 95938, Note_on_c, 7, 67, 127
1, 96092, Note_off_c, 7, 67, 127
1, 96092, Note_off_c, 5, 53, 127
1, 96094, Note_on_c, 4, 52, 127
1, 96094, Note_on_c, 12, 71, 127
1, 96248, Note_off_c, 12, 71, 127
1, 96248, Note_off_c, 4, 52, 127
1, 96250, Note_on_c, 2, 50, 127
1, 96250, Note_on_c, 2, 74, 127
1, 96404, Note_off_c, 2, 74, 127
1, 96404, Note_off_c, 2, 50, 127
1, 96406, Note_on_c, 0, 48, 127
1, 96406, Note_on_c, 4, 76, 127
1, 96560, Note_off_c, 0, 48, 127
1, 96562, Note_on_c, 7, 55, 127
1, 96562, Note_on_c, 7, 79, 127
1, 96666, Note_off_c, 4, 76, 127
1, 96716, Note_off_c, 7, 79, 127
1, 96716, Note_off_c, 7, 55, 127
1, 96718, Note_on_c, 10, 57, 127
1, 96718, Note_on_c, 2, 74, 127
1, 96872, Note_off_c, 10, 57, 127
1, 96874, Note_on_c, 12, 59, 127
1, 96874, Note_on_c, 7, 79, 127
1, 96978, Note_off_c, 2, 74, 127
1, 97028, Note_off_c, 7, 79, 127
1, 97028, Note_off_c, 12, 59, 127
1, 97030, Note_on_c, 0, 60, 127
1, 97030, Note_on_c, 4, 76, 127
1, 97184, Note_off_c, 0, 60, 127
1, 97186, Note_on_c, 12, 59, 127
1, 97186, Note_on_c, 7, 79, 127
1, 97290, Note_off_c, 4, 76, 127
1, 97340, Note_off_c, 7, 79, 127
1, 97340, Note_off_c, 12, 59, 127
1, 97342, Note_on_c, 10, 57, 127
1, 97342, Note_on_c, 0, 72, 127
1, 97496, Note_off_c, 0, 72, 127
1, 97496, Note_off_c, 10, 57, 127
1, 97498, Note_on_c, 7, 55, 127
1, 97498, Note_on_c, 7, 79, 127
1, 97652, Note_off_c, 7, 79, 127
1, 97652, Note_off_c, 7, 55, 127
1, 97654, Note_on_c, 5, 53, 127
1, 97654, Note_on_c, 10, 69, 127
1, 97808, Note_off_c, 10, 69, 127
1, 97808, Note_off_c, 5, 53, 127
1, 97810, Note_on_c, 0, 48, 127
1, 97810, Note_on_c, 5, 65, 127
1, 97964, Note_off_c, 5, 65, 127
1, 97964, Note_off_c, 0, 48, 127
1, 97966, Note_on_c, 2, 50, 127
1, 97966, Note_on_c, 10, 69, 127
1, 98120, Note_off_c, 10, 69, 127
1, 98120, Note_off_c, 2, 50, 127
1, 98122, Note_on_c, 4, 52, 127
1, 98122, Note_on_c, 0, 72, 127
1, 98276, Note_off_c, 0, 72, 127
1, 98276, Note_off_c, 4, 52, 127
1, 98278, Note_on_c, 5, 53, 127
1, 98278, Note_on_c, 10, 69, 127
1, 98432, Note_off_c, 10, 69, 127
1, 98432, Note_off_c, 5, 53, 127
1, 98434, Note_on_c, 4, 52, 127
1, 98434, Note_on_c, 5, 65, 127
1, 98588, Note_off_c, 5, 65, 127
1, 98588, Note_off_c, 4, 52, 127
1, 98590, Note_on_c, 2, 50, 127
1, 98590, Note_on_c, 10, 69, 127
1, 98744, Note_off_c, 10, 69, 127
1, 98744, Note_off_c, 2, 50, 127
1, 98746, Note_on_c, 0, 48, 127
1, 98746, Note_on_c, 0, 72, 127
1, 98900, Note_off_c, 0, 72, 127
1, 98900, Note_off_c, 0, 48, 127
1, 98902, Note_on_c, 12, 47, 127
1, 98902, Note_on_c, 2, 74, 127
1, 99056, Note_off_c, 12, 47, 127
1, 99058, Note_on_c, 2, 50, 127
1, 99058, Note_on_c, 5, 77, 127
1, 99146, Note_off_c, 2, 74, 127
1, 99212, Note_off_c, 5, 77, 127
1, 99212, Note_off_c, 2, 50, 127
1, 99214, Note_on_c, 5, 53, 127
1, 99214, Note_on_c, 0, 72, 127
1, 99368, Note_off_c, 5, 53, 127
1, 99370, Note_on_c, 4, 52, 127
1, 99370, Note_on_c, 5, 77, 127
1, 99458, Note_off_c, 0, 72, 127
1, 99524, Note_off_c, 5, 77, 127
1, 99524, Note_off_c, 4, 52, 127
1, 99526, Note_on_c, 2, 50, 127
1, 99526, Note_on_c, 2, 74, 127
1, 99680, Note_off_c, 2, 50, 127
1, 99682, Note_on_c, 0, 48, 127
1, 99682, Note_on_c, 5, 77, 127
1, 99770, Note_off_c, 2, 74, 127
1, 99836, Note_off_c, 5, 77, 127
1, 99836, Note_off_c, 0, 48, 127
1, 99838, Note_on_c, 12, 47, 127
1, 99838, Note_on_c, 0, 72, 127
1, 99992, Note_off_c, 0, 72, 127
1, 99992, Note_off_c, 12, 47, 127
1, 99994, Note_on_c, 10, 45, 127
1, 99994, Note_on_c, 5, 77, 127
1, 100148, Note_off_c, 5, 77, 127
1, 100148, Note_off_c, 10, 45, 127
1, 100150, Note_on_c, 7, 43, 127
1, 100150, Note_on_c, 12, 71, 127
1, 100304, Note_off_c, 12, 71, 127
1, 100304, Note_off_c, 7, 43, 127
1, 100306, Note_on_c, 0, 48, 127
1, 100306, Note_on_c, 7, 67, 127
1, 100460, Note_off_c, 7, 67, 127
1, 100460, Note_off_c, 0, 48, 127
1, 100462, Note_on_c, 12, 47, 127
1, 100462, Note_on_c, 12, 71, 127
1, 100616, Note_off_c, 12, 71, 127
1, 100616, Note_off_c, 12, 47, 127
1, 100618, Note_on_c, 10, 45, 127
1, 100618, Note_on_c, 2, 74, 127
1, 100772, Note_off_c, 2, 74, 127
1, 100772, Note_off_c, 10, 45, 127
1, 100774, Note_on_c, 7, 43, 127
1, 100774, Note_on_c, 12, 71, 127
1, 100928, Note_off_c, 12, 71, 127
1, 100928, Note_off_c, 7, 43, 127
1, 100930, Note_on_c, 5, 41, 127
1, 100930, Note_on_c, 7, 67, 127
1, 101084, Note_off_c, 7, 67, 127
1, 101084, Note_off_c, 5, 41, 127
1, 101086, Note_on_c, 4, 40, 127
1, 101086, Note_on_c, 12, 71, 127
1, 101240, Note_off_c, 12, 71, 127
1, 101240, Note_off_c, 4, 40, 127
1, 101242, Note_on_c, 2, 38, 127
1, 101242, Note_on_c, 2, 74, 127
1, 101396, Note_off_c, 2, 74, 127
1, 101396, Note_off_c, 2, 38, 127
1, 101398, Note_on_c, 0, 36, 127
1, 101398, Note_on_c, 4, 76, 127
1, 101552, Note_off_c, 4, 76, 127
1, 101554, Note_on_c, 2, 74, 127
1, 101708, Note_off_c, 2, 74, 127
1, 101708, Note_off_c, 0, 36, 127
1, 101710, Note_on_c, 2, 38, 127
1, 101710, Note_on_c, 0, 72, 127
1, 101864, Note_off_c, 2, 38, 127
1, 101866, Note_on_c, 4, 40, 127
1, 102020, Note_off_c, 4, 40, 127
1, 102022, Note_on_c, 5, 41, 127
1, 102165, Note_off_c, 0, 72, 127
1, 102176, Note_off_c, 5, 41, 127
1, 102178, Note_on_c, 7, 43, 127
1, 102332, Note_off_c, 7, 43, 127
1, 102334, Note_on_c, 10, 45, 127
1, 102334, Note_on_c, 0, 72, 127
1, 102488, Note_off_c, 10, 45, 127
1, 102490, Note_on_c, 12, 47, 127
1, 102644, Note_off_c, 12, 47, 127
1, 102644, Note_off_c, 0, 72, 127
1, 102646, Note_on_c, 0, 48, 127
1, 102646, Note_on_c, 0, 72, 127
1, 102646, Note_on_c, 7, 67, 127
1, 102646, Note_on_c, 4, 64, 127
1, 102956, Note_off_c, 7, 67, 127
1, 102956, Note_off_c, 0, 72, 127
1, 102956, Note_off_c, 0, 48, 127
1, 102958, Note_on_c, 0, 36, 127
1, 102958, Note_on_c, 11, 70, 127
1, 103263, Note_off_c, 4, 64, 127
1, 103268, Note_off_c, 11, 70, 127
1, 103270, Note_on_c, 11, 70, 127
1, 103348, Note_off_c, 0, 36, 127
1, 103426, Note_on_c, 0, 48, 127
1, 103580, Note_off_c, 0, 48, 127
1, 103580, Note_off_c, 11, 70, 127
1, 103582, Note_on_c, 4, 52, 127
1, 103582, Note_on_c, 11, 70, 127
1, 103736, Note_off_c, 4, 52, 127
1, 103738, Note_on_c, 7, 55, 127
1, 103892, Note_off_c, 7, 55, 127
1, 103892, Note_off_c, 11, 70, 127
1, 103894, Note_on_c, 0, 60, 127
1, 103894, Note_on_c, 4, 64, 127
1, 103894, Note_on_c, 0, 72, 127
1, 103894, Note_on_c, 7, 67, 127
1, 104048, Note_off_c, 7, 67, 127
1, 104048, Note_off_c, 0, 72, 127
1, 104050, Note_on_c, 11, 70, 127
1, 104204, Note_off_c, 11, 70, 127
1, 104204, Note_off_c, 0, 60, 127
1, 104206, Note_on_c, 0, 48, 127
1, 104206, Note_on_c, 10, 69, 127
1, 104360, Note_off_c, 10, 69, 127
1, 104362, Note_on_c, 7, 67, 127
1, 104511, Note_off_c, 4, 64, 127
1, 104516, Note_off_c, 7, 67, 127
1, 104516, Note_off_c, 0, 48, 127
1, 104518, Note_on_c, 5, 53, 127
1, 104518, Note_on_c, 10, 69, 127
1, 104518, Note_on_c, 5, 65, 127
1, 104672, Note_off_c, 5, 53, 127
1, 104674, Note_on_c, 4, 52, 127
1, 104828, Note_off_c, 4, 52, 127
1, 104828, Note_off_c, 10, 69, 127
1, 104830, Note_on_c, 2, 50, 127
1, 104830, Note_on_c, 2, 74, 127
1, 104973, Note_off_c, 5, 65, 127
1, 104984, Note_off_c, 2, 50, 127
1, 104986, Note_on_c, 0, 48, 127
1, 105140, Note_off_c, 0, 48, 127
1, 105140, Note_off_c, 2, 74, 127
1, 105142, Note_on_c, 2, 50, 127
1, 105142, Note_on_c, 2, 74, 127
1, 105452, Note_off_c, 2, 74, 127
1, 105452, Note_off_c, 2, 50, 127
1, 105454, Note_on_c, 2, 38, 127
1, 105454, Note_on_c, 2, 62, 127
1, 105764, Note_off_c, 2, 62, 127
1, 105766, Note_on_c, 0, 72, 127
1, 105844, Note_off_c, 2, 38, 127
1, 105922, Note_on_c, 2, 50, 127
1, 106076, Note_off_c, 2, 50, 127
1, 106076, Note_off_c, 0, 72, 127
1, 106078, Note_on_c, 4, 52, 127
1, 106078, Note_on_c, 0, 60, 127
1, 106232, Note_off_c, 4, 52, 127
1, 106234, Note_on_c, 6, 54, 127
1, 106388, Note_off_c, 6, 54, 127
1, 106388, Note_off_c, 0, 60, 127
1, 106390, Note_on_c, 7, 55, 127
1, 106390, Note_on_c, 12, 71, 127
1, 106700, Note_off_c, 12, 71, 127
1, 106700, Note_off_c, 7, 55, 127
1, 106702, Note_on_c, 7, 43, 127
1, 106702, Note_on_c, 12, 59, 127
1, 107012, Note_off_c, 12, 59, 127
1, 107012, Note_off_c, 7, 43, 127
1, 107014, Note_on_c, 5, 53, 127
1, 107014, Note_on_c, 12, 59, 127
1, 107324, Note_off_c, 12, 59, 127
1, 107324, Note_off_c, 5, 53, 127
1, 107326, Note_on_c, 5, 41, 127
1, 107326, Note_on_c, 4, 76, 127
1, 107636, Note_off_c, 4, 76, 127
1, 107636, Note_off_c, 5, 41, 127
1, 107638, Note_on_c, 4, 52, 127
1, 107638, Note_on_c, 4, 76, 127
1, 107638, Note_on_c, 12, 71, 127
1, 107638, Note_on_c, 8, 68, 127
1, 107948, Note_off_c, 12, 71, 127
1, 107948, Note_off_c, 4, 76, 127
1, 107948, Note_off_c, 4, 52, 127
1, 107950, Note_on_c, 4, 40, 127
1, 107950, Note_on_c, 2, 74, 127
1, 108255, Note_off_c, 8, 68, 127
1, 108260, Note_off_c, 2, 74, 127
1, 108262, Note_on_c, 2, 74, 127
1, 108340, Note_off_c, 4, 40, 127
1, 108418, Note_on_c, 4, 52, 127
1, 108572, Note_off_c, 4, 52, 127
1, 108572, Note_off_c, 2, 74, 127
1, 108574, Note_on_c, 8, 56, 127
1, 108574, Note_on_c, 2, 74, 127
1, 108728, Note_off_c, 8, 56, 127
1, 108730, Note_on_c, 12, 59, 127
1, 108884, Note_off_c, 12, 59, 127
1, 108884, Note_off_c, 2, 74, 127
1, 108886, Note_on_c, 4, 64, 127
1, 108886, Note_on_c, 8, 68, 127
1, 108886, Note_on_c, 4, 76, 127
1, 108886, Note_on_c, 12, 71, 127
1, 109040, Note_off_c, 12, 71, 127
1, 109040, Note_off_c, 4, 76, 127
1, 109042, Note_on_c, 2, 74, 127
1, 109196, Note_off_c, 2, 74, 127
1, 109196, Note_off_c, 4, 64, 127
1, 109198, Note_on_c, 4, 52, 127
1, 109198, Note_on_c, 0, 72, 127
1, 109352, Note_off_c, 0, 72, 127
1, 109354, Note_on_c, 12, 71, 127
1, 109503, Note_off_c, 8, 68, 127
1, 109508, Note_off_c, 12, 71, 127
1, 109508, Note_off_c, 4, 52, 127
1, 109510, Note_on_c, 10, 57, 127
1, 109510, Note_on_c, 0, 72, 127
1, 109510, Note_on_c, 10, 69, 127
1, 109664, Note_off_c, 10, 57, 127
1, 109666, Note_on_c, 7, 55, 127
1, 109820, Note_off_c, 7, 55, 127
1, 109820, Note_off_c, 0, 72, 127
1, 109822, Note_on_c, 5, 53, 127
1, 109822, Note_on_c, 5, 77, 127
1, 109965, Note_off_c, 10, 69, 127
1, 109976, Note_off_c, 5, 53, 127
1, 109978, Note_on_c, 4, 52, 127
1, 110132, Note_off_c, 4, 52, 127
1, 110132, Note_off_c, 5, 77, 127
1, 110134, Note_on_c, 5, 53, 127
1, 110134, Note_on_c, 5, 77, 127
1, 110444, Note_off_c, 5, 77, 127
1, 110444, Note_off_c, 5, 53, 127
1, 110446, Note_on_c, 5, 41, 127
1, 110446, Note_on_c, 5, 65, 127
1, 110756, Note_off_c, 5, 65, 127
1, 110758, Note_on_c, 4, 76, 127
1, 110836, Note_off_c, 5, 41, 127
1, 110914, Note_on_c, 10, 57, 127
1, 111068, Note_off_c, 10, 57, 127
1, 111068, Note_off_c, 4, 76, 127
1, 111070, Note_on_c, 12, 59, 127
1, 111070, Note_on_c, 4, 64, 127
1, 111224, Note_off_c, 12, 59, 127
1, 111226, Note_on_c, 0, 60, 127
1, 111380, Note_off_c, 0, 60, 127
1, 111380, Note_off_c, 4, 64, 127
1, 111382, Note_on_c, 12, 59, 127
1, 111382, Note_on_c, 2, 74, 127
1, 111692, Note_off_c, 2, 74, 127
1, 111692, Note_off_c, 12, 59, 127
1, 111694, Note_on_c, 12, 47, 127
1, 111694, Note_on_c, 2, 62, 127
1, 112004, Note_off_c, 2, 62, 127
1, 112004, Note_off_c, 12, 47, 127
1, 112006, Note_on_c, 10, 57, 127
1, 112006, Note_on_c, 2, 62, 127
1, 112316, Note_off_c, 2, 62, 127
1, 112316, Note_off_c, 10, 57, 127
1, 112318, Note_on_c, 10, 45, 127
1, 112318, Note_on_c, 7, 79, 127
1, 112628, Note_off_c, 7, 79, 127
1, 112628, Note_off_c, 10, 45, 127
1, 112630, Note_on_c, 7, 55, 127
1, 112630, Note_on_c, 7, 79, 127
1, 112786, Note_on_c, 7, 67, 127
1, 112938, Note_off_c, 7, 79, 127
1, 112940, Note_off_c, 7, 67, 127
1, 112940, Note_off_c, 7, 55, 127
1, 112942, Note_on_c, 4, 64, 127
1, 112942, Note_on_c, 0, 72, 127
1, 113096, Note_off_c, 0, 72, 127
1, 113098, Note_on_c, 4, 76, 127
1, 113252, Note_off_c, 4, 76, 127
1, 113252, Note_off_c, 4, 64, 127
1, 113254, Note_on_c, 7, 55, 127
1, 113254, Note_on_c, 5, 77, 127
1, 113410, Note_on_c, 5, 65, 127
1, 113562, Note_off_c, 5, 77, 127
1, 113564, Note_off_c, 5, 65, 127
1, 113564, Note_off_c, 7, 55, 127
1, 113566, Note_on_c, 2, 62, 127
1, 113566, Note_on_c, 12, 71, 127
1, 113720, Note_off_c, 12, 71, 127
1, 113722, Note_on_c, 2, 74, 127
1, 113876, Note_off_c, 2, 74, 127
1, 113876, Note_off_c, 2, 62, 127
1, 113878, Note_on_c, 7, 55, 127
1, 113878, Note_on_c, 4, 76, 127
1, 114034, Note_on_c, 4, 64, 127
1, 114186, Note_off_c, 4, 76, 127
1, 114188, Note_off_c, 4, 64, 127
1, 114188, Note_off_c, 7, 55, 127
1, 114190, Note_on_c, 0, 60, 127
1, 114190, Note_on_c, 7, 67, 127
1, 114344, Note_off_c, 7, 67, 127
1, 114346, Note_on_c, 0, 72, 127
1, 114500, Note_off_c, 0, 72, 127
1, 114500, Note_off_c, 0, 60, 127
1, 114502, Note_on_c, 7, 55, 127
1, 114502, Note_on_c, 2, 74, 127
1, 114502, Note_on_c, 12, 71, 127
1, 114656, Note_off_c, 7, 55, 127
1, 114658, Note_on_c, 7, 43, 127
1, 114812, Note_off_c, 7, 43, 127
1, 114812, Note_off_c, 12, 71, 127
1, 114812, Note_off_c, 2, 74, 127
1, 114814, Note_on_c, 12, 47, 127
1, 114814, Note_on_c, 7, 79, 127
1, 114814, Note_on_c, 2, 74, 127
1, 114968, Note_off_c, 12, 47, 127
1, 114970, Note_on_c, 2, 50, 127
1, 115124, Note_off_c, 2, 50, 127
1, 115124, Note_off_c, 2, 74, 127
1, 115124, Note_off_c, 7, 79, 127
1, 115126, Note_on_c, 7, 55, 127
1, 115126, Note_on_c, 7, 79, 127
1, 115126, Note_on_c, 4, 76, 127
1, 115280, Note_off_c, 7, 55, 127
1, 115282, Note_on_c, 7, 43, 127
1, 115436, Note_off_c, 7, 43, 127
1, 115436, Note_off_c, 4, 76, 127
1, 115436, Note_off_c, 7, 79, 127
1, 115438, Note_on_c, 0, 48, 127
1, 115438, Note_on_c, 7, 67, 127
1, 115438, Note_on_c, 4, 64, 127
1, 115592, Note_off_c, 0, 48, 127
1, 115594, Note_on_c, 4, 52, 127
1, 115748, Note_off_c, 4, 52, 127
1, 115748, Note_off_c, 4, 64, 127
1, 115748, Note_off_c, 7, 67, 127
1, 115750, Note_on_c, 7, 55, 127
1, 115750, Note_on_c, 5, 65, 127
1, 115750, Note_on_c, 2, 62, 127
1, 115904, Note_off_c, 7, 55, 127
1, 115906, Note_on_c, 7, 43, 127
1, 116060, Note_off_c, 7, 43, 127
1, 116060, Note_off_c, 2, 62, 127
1, 116060, Note_off_c, 5, 65, 127
1, 116062, Note_on_c, 12, 47, 127
1, 116062, Note_on_c, 5, 77, 127
1, 116062, Note_on_c, 2, 74, 127
1, 116216, Note_off_c, 12, 47, 127
1, 116218, Note_on_c, 2, 50, 127
1, 116372, Note_off_c, 2, 50, 127
1, 116372, Note_off_c, 2, 74, 127
1, 116372, Note_off_c, 5, 77, 127
1, 116374, Note_on_c, 7, 55, 127
1, 116374, Note_on_c, 0, 72, 127
1, 116374, Note_on_c, 4, 76, 127
1, 116528, Note_off_c, 7, 55, 127
1, 116530, Note_on_c, 7, 43, 127
1, 116684, Note_off_c, 7, 43, 127
1, 116684, Note_off_c, 4, 76, 127
1, 116684, Note_off_c, 0, 72, 127
1, 116686, Note_on_c, 0, 48, 127
1, 116686, Note_on_c, 4, 64, 127
1, 116686, Note_on_c, 0, 60, 127
1, 116840, Note_off_c, 0, 48, 127
1, 116842, Note_on_c, 4, 52, 127
1, 116996, Note_off_c, 4, 52, 127
1, 116996, Note_off_c, 0, 60, 127
1, 116996, Note_off_c, 4, 64, 127
1, 116998, Note_on_c, 7, 55, 127
1, 116998, Note_on_c, 12, 59, 127
1, 116998, Note_on_c, 2, 62, 127
1, 117152, Note_off_c, 7, 55, 127
1, 117154, Note_on_c, 5, 53, 127
1, 117232, Note_off_c, 2, 62, 127
1, 117232, Note_off_c, 12, 59, 127
1, 117308, Note_off_c, 5, 53, 127
1, 117310, Note_on_c, 4, 52, 127
1, 117310, Note_on_c, 0, 84, 127
1, 117464, Note_off_c, 4, 52, 127
1, 117466, Note_on_c, 0, 60, 127
1, 117620, Note_off_c, 0, 60, 127
1, 117620, Note_off_c, 0, 84, 127
1, 117622, Note_on_c, 10, 57, 127
1, 117622, Note_on_c, 0, 84, 127
1, 117776, Note_off_c, 0, 84, 127
1, 117776, Note_off_c, 10, 57, 127
1, 117778, Note_on_c, 0, 60, 127
1, 117778, Note_on_c, 5, 77, 127
1, 117932, Note_off_c, 5, 77, 127
1, 117932, Note_off_c, 0, 60, 127
1, 117934, Note_on_c, 5, 53, 127
1, 117934, Note_on_c, 10, 81, 127
1, 118088, Note_off_c, 10, 81, 127
1, 118088, Note_off_c, 5, 53, 127
1, 118090, Note_on_c, 0, 60, 127
1, 118090, Note_on_c, 11, 82, 127
1, 118166, Note_off_c, 11, 82, 127
1, 118168, Note_on_c, 0, 84, 127
1, 118244, Note_off_c, 0, 84, 127
1, 118244, Note_off_c, 0, 60, 127
1, 118246, Note_on_c, 7, 55, 127
1, 118246, Note_on_c, 11, 82, 127
1, 118400, Note_off_c, 7, 55, 127
1, 118402, Note_on_c, 0, 60, 127
1, 118402, Note_on_c, 4, 76, 127
1, 118408, Note_off_c, 11, 82, 127
1, 118556, Note_off_c, 4, 76, 127
1, 118556, Note_off_c, 0, 60, 127
1, 118558, Note_on_c, 4, 52, 127
1, 118558, Note_on_c, 7, 79, 127
1, 118712, Note_off_c, 7, 79, 127
1, 118712, Note_off_c, 4, 52, 127
1, 118714, Note_on_c, 0, 60, 127
1, 118714, Note_on_c, 10, 81, 127
1, 118790, Note_off_c, 10, 81, 127
1, 118792, Note_on_c, 11, 82, 127
1, 118868, Note_off_c, 11, 82, 127
1, 118868, Note_off_c, 0, 60, 127
1, 118870, Note_on_c, 5, 53, 127
1, 118870, Note_on_c, 10, 81, 127
1, 119024, Note_off_c, 5, 53, 127
1, 119026, Note_on_c, 0, 60, 127
1, 119026, Note_on_c, 2, 74, 127
1, 119041, Note_off_c, 10, 81, 127
1, 119180, Note_off_c, 2, 74, 127
1, 119180, Note_off_c, 0, 60, 127
1, 119182, Note_on_c, 2, 50, 127
1, 119182, Note_on_c, 5, 77, 127
1, 119336, Note_off_c, 5, 77, 127
1, 119336, Note_off_c, 2, 50, 127
1, 119338, Note_on_c, 0, 60, 127
1, 119338, Note_on_c, 7, 79, 127
1, 119414, Note_off_c, 7, 79, 127
1, 119416, Note_on_c, 10, 81, 127
1, 119492, Note_off_c, 10, 81, 127
1, 119492, Note_off_c, 0, 60, 127
1, 119494, Note_on_c, 4, 52, 127
1, 119494, Note_on_c, 7, 79, 127
1, 119648, Note_off_c, 4, 52, 127
1, 119650, Note_on_c, 0, 60, 127
1, 119650, Note_on_c, 0, 72, 127
1, 119673, Note_off_c, 7, 79, 127
1, 119804, Note_off_c, 0, 72, 127
1, 119804, Note_off_c, 0, 60, 127
1, 119806, Note_on_c, 0, 48, 127
1, 119806, Note_on_c, 4, 76, 127
1, 119960, Note_off_c, 4, 76, 127
1, 119960, Note_off_c, 0, 48, 127
1, 119962, Note_on_c, 0, 60, 127
1, 119962, Note_on_c, 5, 77, 127
1, 120038, Note_off_c, 5, 77, 127
1, 120040, Note_on_c, 7, 79, 127
1, 120116, Note_off_c, 7, 79, 127
1, 120116, Note_off_c, 0, 60, 127
1, 120118, Note_on_c, 2, 50, 127
1, 120118, Note_on_c, 5, 77, 127
1, 120272, Note_off_c, 2, 50, 127
1, 120274, Note_on_c, 7, 55, 127
1, 120274, Note_on_c, 12, 71, 127
1, 120305, Note_off_c, 5, 77, 127
1, 120428, Note_off_c, 12, 71, 127
1, 120428, Note_off_c, 7, 55, 127
1, 120430, Note_on_c, 12, 47, 127
1, 120430, Note_on_c, 2, 74, 127
1, 120584, Note_off_c, 2, 74, 127
1, 120584, Note_off_c, 12, 47, 127
1, 120586, Note_on_c, 7, 55, 127
1, 120586, Note_on_c, 4, 76, 127
1, 120662, Note_off_c, 4, 76, 127
1, 120664, Note_on_c, 5, 77, 127
1, 120740, Note_off_c, 5, 77, 127
1, 120740, Note_off_c, 7, 55, 127
1, 120742, Note_on_c, 0, 48, 127
1, 120742, Note_on_c, 4, 76, 127
1, 120896, Note_off_c, 0, 48, 127
1, 120898, Note_on_c, 7, 55, 127
1, 120898, Note_on_c, 7, 67, 127
1, 120937, Note_off_c, 4, 76, 127
1, 121052, Note_off_c, 7, 67, 127
1, 121052, Note_off_c, 7, 55, 127
1, 121054, Note_on_c, 10, 45, 127
1, 121054, Note_on_c, 0, 72, 127
1, 121208, Note_off_c, 0, 72, 127
1, 121208, Note_off_c, 10, 45, 127
1, 121210, Note_on_c, 7, 55, 127
1, 121210, Note_on_c, 2, 74, 127
1, 121286, Note_off_c, 2, 74, 127
1, 121288, Note_on_c, 4, 76, 127
1, 121364, Note_off_c, 4, 76, 127
1, 121364, Note_off_c, 7, 55, 127
1, 121366, Note_on_c, 12, 47, 127
1, 121366, Note_on_c, 2, 74, 127
1, 121520, Note_off_c, 12, 47, 127
1, 121522, Note_on_c, 7, 43, 127
1, 121676, Note_off_c, 7, 43, 127
1, 121676, Note_off_c, 2, 74, 127
1, 121678, Note_on_c, 12, 47, 127
1, 121678, Note_on_c, 7, 67, 127
1, 121832, Note_off_c, 12, 47, 127
1, 121834, Note_on_c, 2, 50, 127
1, 121988, Note_off_c, 2, 50, 127
1, 121990, Note_on_c, 7, 55, 127
1, 122068, Note_off_c, 7, 67, 127
1, 122144, Note_off_c, 7, 55, 127
1, 122146, Note_on_c, 10, 57, 127
1, 122146, Note_on_c, 7, 79, 127
1, 122300, Note_off_c, 7, 79, 127
1, 122300, Note_off_c, 10, 57, 127
1, 122302, Note_on_c, 7, 55, 127
1, 122302, Note_on_c, 10, 81, 127
1, 122456, Note_off_c, 10, 81, 127
1, 122456, Note_off_c, 7, 55, 127
1, 122458, Note_on_c, 5, 53, 127
1, 122458, Note_on_c, 12, 83, 127
1, 122612, Note_off_c, 12, 83, 127
1, 122612, Note_off_c, 5, 53, 127
1, 122614, Note_on_c, 4, 52, 127
1, 122614, Note_on_c, 0, 84, 127
1, 122768, Note_off_c, 0, 84, 127
1, 122768, Note_off_c, 4, 52, 127
1, 122770, Note_on_c, 2, 50, 127
1, 122770, Note_on_c, 12, 83, 127
1, 122924, Note_off_c, 12, 83, 127
1, 122924, Note_off_c, 2, 50, 127
1, 122926, Note_on_c, 4, 52, 127
1, 122926, Note_on_c, 0, 84, 127
1, 123080, Note_off_c, 4, 52, 127
1, 123082, Note_on_c, 0, 48, 127
1, 123082, Note_on_c, 10, 81, 127
1, 123170, Note_off_c, 0, 84, 127
1, 123236, Note_off_c, 10, 81, 127
1, 123236, Note_off_c, 0, 48, 127
1, 123238, Note_on_c, 7, 55, 127
1, 123238, Note_on_c, 12, 83, 127
1, 123392, Note_off_c, 12, 83, 127
1, 123392, Note_off_c, 7, 55, 127
1, 123394, Note_on_c, 10, 57, 127
1, 123394, Note_on_c, 10, 81, 127
1, 123548, Note_off_c, 10, 81, 127
1, 123548, Note_off_c, 10, 57, 127
1, 123550, Note_on_c, 7, 55, 127
1, 123550, Note_on_c, 12, 83, 127
1, 123704, Note_off_c, 7, 55, 127
1, 123706, Note_on_c, 5, 53, 127
1, 123706, Note_on_c, 7, 79, 127
1, 123794, Note_off_c, 12, 83, 127
1, 123860, Note_off_c, 7, 79, 127
1, 123860, Note_off_c, 5, 53, 127
1, 123862, Note_on_c, 4, 52, 127
1, 123862, Note_on_c, 0, 84, 127
1, 124016, Note_off_c, 0, 84, 127
1, 124016, Note_off_c, 4, 52, 127
1, 124018, Note_on_c, 2, 50, 127
1, 124018, Note_on_c, 12, 83, 127
1, 124172, Note_off_c, 12, 83, 127
1, 124172, Note_off_c, 2, 50, 127
1, 124174, Note_on_c, 4, 52, 127
1, 124174, Note_on_c, 0, 84, 127
1, 124328, Note_off_c, 0, 84, 127
1, 124328, Note_off_c, 4, 52, 127
1, 124330, Note_on_c, 0, 48, 127
1, 124330, Note_on_c, 10, 81, 127
1, 124484, Note_off_c, 10, 81, 127
1, 124484, Note_off_c, 0, 48, 127
1, 124486, Note_on_c, 7, 55, 127
1, 124486, Note_on_c, 12, 83, 127
1, 124640, Note_off_c, 12, 83, 127
1, 124640, Note_off_c, 7, 55, 127
1, 124642, Note_on_c, 10, 57, 127
1, 124642, Note_on_c, 10, 81, 127
1, 124796, Note_off_c, 10, 81, 127
1, 124796, Note_off_c, 10, 57, 127
1, 124798, Note_on_c, 7, 55, 127
1, 124798, Note_on_c, 12, 83, 127
1, 124952, Note_off_c, 12, 83, 127
1, 124952, Note_off_c, 7, 55, 127
1, 124954, Note_on_c, 5, 53, 127
1, 124954, Note_on_c, 7, 79, 127
1, 125108, Note_off_c, 7, 79, 127
1, 125108, Note_off_c, 5, 53, 127
1, 125110, Note_on_c, 4, 52, 127
1, 125110, Note_on_c, 0, 84, 127
1, 125264, Note_off_c, 0, 84, 127
1, 125264, Note_off_c, 4, 52, 127
1, 125266, Note_on_c, 2, 50, 127
1, 125266, Note_on_c, 12, 83, 127
1, 125420, Note_off_c, 12, 83, 127
1, 125420, Note_off_c, 2, 50, 127
1, 125422, Note_on_c, 4, 52, 127
1, 125422, Note_on_c, 0, 84, 127
1, 125576, Note_off_c, 4, 52, 127
1, 125578, Note_on_c, 0, 48, 127
1, 125578, Note_on_c, 10, 81, 127
1, 125682, Note_off_c, 0, 84, 127
1, 125732, Note_off_c, 10, 81, 127
1, 125732, Note_off_c, 0, 48, 127
1, 125734, Note_on_c, 7, 55, 127
1, 125734, Note_on_c, 12, 83, 127
1, 125888, Note_off_c, 12, 83, 127
1, 125888, Note_off_c, 7, 55, 127
1, 125890, Note_on_c, 10, 57, 127
1, 125890, Note_on_c, 10, 81, 127
1, 126044, Note_off_c, 10, 81, 127
1, 126044, Note_off_c, 10, 57, 127
1, 126046, Note_on_c, 7, 55, 127
1, 126046, Note_on_c, 12, 83, 127
1, 126200, Note_off_c, 7, 55, 127
1, 126202, Note_on_c, 5, 53, 127
1, 126202, Note_on_c, 7, 79, 127
1, 126306, Note_off_c, 12, 83, 127
1, 126356, Note_off_c, 7, 79, 127
1, 126356, Note_off_c, 5, 53, 127
1, 126358, Note_on_c, 4, 52, 127
1, 126358, Note_on_c, 0, 84, 127
1, 126512, Note_off_c, 4, 52, 127
1, 126514, Note_on_c, 0, 48, 127
1, 126668, Note_off_c, 0, 48, 127
1, 126668, Note_off_c, 0, 84, 127
1, 126670, Note_on_c, 4, 52, 127
1, 126670, Note_on_c, 0, 72, 127
1, 126824, Note_off_c, 4, 52, 127
1, 126826, Note_on_c, 7, 55, 127
1, 126980, Note_off_c, 7, 55, 127
1, 126982, Note_on_c, 0, 60, 127
1, 127125, Note_off_c, 0, 72, 127
1, 127136, Note_off_c, 0, 60, 127
1, 127138, Note_on_c, 7, 55, 127
1, 127292, Note_off_c, 7, 55, 127
1, 127294, Note_on_c, 12, 59, 127
1, 127294, Note_on_c, 2, 74, 127
1, 127448, Note_off_c, 12, 59, 127
1, 127450, Note_on_c, 7, 55, 127
1, 127604, Note_off_c, 7, 55, 127
1, 127604, Note_off_c, 2, 74, 127
1, 127606, Note_on_c, 0, 60, 127
1, 127606, Note_on_c, 4, 76, 127
1, 127760, Note_off_c, 0, 60, 127
1, 127762, Note_on_c, 4, 64, 127
1, 127762, Note_on_c, 7, 79, 127
1, 127914, Note_off_c, 4, 76, 127
1, 127916, Note_off_c, 7, 79, 127
1, 127916, Note_off_c, 4, 64, 127
1, 127918, Note_on_c, 0, 60, 127
1, 127918, Note_on_c, 4, 76, 127
1, 128072, Note_off_c, 0, 60, 127
1, 128074, Note_on_c, 7, 55, 127
1, 128074, Note_on_c, 7, 79, 127
1, 128226, Note_off_c, 4, 76, 127
1, 128228, Note_off_c, 7, 79, 127
1, 128228, Note_off_c, 7, 55, 127
1, 128230, Note_on_c, 0, 60, 127
1, 128230, Note_on_c, 4, 76, 127
1, 128384, Note_off_c, 0, 60, 127
1, 128386, Note_on_c, 7, 55, 127
1, 128386, Note_on_c, 7, 79, 127
1, 128538, Note_off_c, 4, 76, 127
1, 128540, Note_off_c, 7, 79, 127
1, 128540, Note_off_c, 7, 55, 127
1, 128542, Note_on_c, 4, 52, 127
1, 128542, Note_on_c, 0, 72, 127
1, 128696, Note_off_c, 0, 72, 127
1, 128696, Note_off_c, 4, 52, 127
1, 128698, Note_on_c, 0, 48, 127
1, 128698, Note_on_c, 4, 76, 127
1, 128852, Note_off_c, 4, 76, 127
1, 128852, Note_off_c, 0, 48, 127
1, 128854, Note_on_c, 2, 62, 127
1, 128854, Note_on_c, 5, 77, 127
1, 129008, Note_off_c, 2, 62, 127
1, 129010, Note_on_c, 5, 65, 127
1, 129010, Note_on_c, 10, 81, 127
1, 129162, Note_off_c, 5, 77, 127
1, 129164, Note_off_c, 10, 81, 127
1, 129164, Note_off_c, 5, 65, 127
1, 129166, Note_on_c, 2, 62, 127
1, 129166, Note_on_c, 5, 77, 127
1, 129320, Note_off_c, 2, 62, 127
1, 129322, Note_on_c, 10, 57, 127
1, 129322, Note_on_c, 10, 81, 127
1, 129474, Note_off_c, 5, 77, 127
1, 129476, Note_off_c, 10, 81, 127
1, 129476, Note_off_c, 10, 57, 127
1, 129478, Note_on_c, 2, 62, 127
1, 129478, Note_on_c, 5, 77, 127
1, 129632, Note_off_c, 2, 62, 127
1, 129634, Note_on_c, 10, 57, 127
1, 129634, Note_on_c, 10, 81, 127
1, 129786, Note_off_c, 5, 77, 127
1, 129788, Note_off_c, 10, 81, 127
1, 129788, Note_off_c, 10, 57, 127
1, 129790, Note_on_c, 5, 53, 127
1, 129790, Note_on_c, 2, 74, 127
1, 129944, Note_off_c, 2, 74, 127
1, 129944, Note_off_c, 5, 53, 127
1, 129946, Note_on_c, 2, 50, 127
1, 129946, Note_on_c, 5, 77, 127
1, 130100, Note_off_c, 5, 77, 127
1, 130100, Note_off_c, 2, 50, 127
1, 130102, Note_on_c, 4, 64, 127
1, 130102, Note_on_c, 7, 79, 127
1, 130256, Note_off_c, 4, 64, 127
1, 130258, Note_on_c, 7, 67, 127
1, 130258, Note_on_c, 12, 83, 127
1, 130410, Note_off_c, 7, 79, 127
1, 130412, Note_off_c, 12, 83, 127
1, 130412, Note_off_c, 7, 67, 127
1, 130414, Note_on_c, 4, 64, 127
1, 130414, Note_on_c, 7, 79, 127
1, 130568, Note_off_c, 4, 64, 127
1, 130570, Note_on_c, 12, 59, 127
1, 130570, Note_on_c, 12, 83, 127
1, 130722, Note_off_c, 7, 79, 127
1, 130724, Note_off_c, 12, 83, 127
1, 130724, Note_off_c, 12, 59, 127
1, 130726, Note_on_c, 4, 64, 127
1, 130726, Note_on_c, 7, 79, 127
1, 130880, Note_off_c, 4, 64, 127
1, 130882, Note_on_c, 12, 59, 127
1, 130882, Note_on_c, 12, 83, 127
1, 131034, Note_off_c, 7, 79, 127
1, 131036, Note_off_c, 12, 83, 127
1, 131036, Note_off_c, 12, 59, 127
1, 131038, Note_on_c, 7, 55, 127
1, 131038, Note_on_c, 4, 76, 127
1, 131192, Note_off_c, 4, 76, 127
1, 131192, Note_off_c, 7, 55, 127
1, 131194, Note_on_c, 4, 52, 127
1, 131194, Note_on_c, 7, 79, 127
1, 131348, Note_off_c, 7, 79, 127
1, 131348, Note_off_c, 4, 52, 127
1, 131350, Note_on_c, 5, 65, 127
1, 131350, Note_on_c, 10, 81, 127
1, 131504, Note_off_c, 5, 65, 127
1, 131506, Note_on_c, 10, 69, 127
1, 131506, Note_on_c, 0, 84, 127
1, 131610, Note_off_c, 10, 81, 127
1, 131660, Note_off_c, 0, 84, 127
1, 131660, Note_off_c, 10, 69, 127
1, 131662, Note_on_c, 5, 65, 127
1, 131662, Note_on_c, 10, 81, 127
1, 131816, Note_off_c, 5, 65, 127
1, 131818, Note_on_c, 2, 62, 127
1, 131818, Note_on_c, 0, 84, 127
1, 131922, Note_off_c, 10, 81, 127
1, 131972, Note_off_c, 0, 84, 127
1, 131972, Note_off_c, 2, 62, 127
1, 131974, Note_on_c, 5, 65, 127
1, 131974, Note_on_c, 10, 81, 127
1, 132128, Note_off_c, 5, 65, 127
1, 132130, Note_on_c, 0, 60, 127
1, 132130, Note_on_c, 0, 84, 127
1, 132234, Note_off_c, 10, 81, 127
1, 132284, Note_off_c, 0, 84, 127
1, 132284, Note_off_c, 0, 60, 127
1, 132286, Note_on_c, 10, 57, 127
1, 132286, Note_on_c, 5, 77, 127
1, 132440, Note_off_c, 5, 77, 127
1, 132440, Note_off_c, 10, 57, 127
1, 132442, Note_on_c, 5, 53, 127
1, 132442, Note_on_c, 10, 81, 127
1, 132596, Note_off_c, 10, 81, 127
1, 132596, Note_off_c, 5, 53, 127
1, 132598, Note_on_c, 7, 67, 127
1, 132598, Note_on_c, 12, 83, 127
1, 132752, Note_off_c, 12, 83, 127
1, 132752, Note_off_c, 7, 67, 127
1, 132754, Note_on_c, 12, 71, 127
1, 132754, Note_on_c, 0, 84, 127
1, 132908, Note_off_c, 0, 84, 127
1, 132908, Note_off_c, 12, 71, 127
1, 132910, Note_on_c, 7, 67, 127
1, 132910, Note_on_c, 12, 83, 127
1, 133064, Note_off_c, 12, 83, 127
1, 133064, Note_off_c, 7, 67, 127
1, 133066, Note_on_c, 2, 62, 127
1, 133066, Note_on_c, 10, 81, 127
1, 133220, Note_off_c, 10, 81, 127
1, 133220, Note_off_c, 2, 62, 127
1, 133222, Note_on_c, 7, 67, 127
1, 133222, Note_on_c, 12, 83, 127
1, 133376, Note_off_c, 12, 83, 127
1, 133376, Note_off_c, 7, 67, 127
1, 133378, Note_on_c, 2, 62, 127
1, 133378, Note_on_c, 0, 84, 127
1, 133532, Note_off_c, 0, 84, 127
1, 133532, Note_off_c, 2, 62, 127
1, 133534, Note_on_c, 12, 59, 127
1, 133534, Note_on_c, 10, 81, 127
1, 133688, Note_off_c, 10, 81, 127
1, 133688, Note_off_c, 12, 59, 127
1, 133690, Note_on_c, 5, 65, 127
1, 133690, Note_on_c, 12, 83, 127
1, 133844, Note_off_c, 12, 83, 127
1, 133844, Note_off_c, 5, 65, 127
1, 133846, Note_on_c, 4, 64, 127
1, 133846, Note_on_c, 0, 84, 127
1, 134002, Note_on_c, 7, 79, 127
1, 134154, Note_off_c, 0, 84, 127
1, 134156, Note_off_c, 7, 79, 127
1, 134156, Note_off_c, 4, 64, 127
1, 134158, Note_on_c, 0, 60, 127
1, 134158, Note_on_c, 4, 76, 127
1, 134277, Note_off_c, 4, 76, 127
1, 134277, Note_on_c, 5, 77, 127
1, 134372, Note_off_c, 5, 77, 127
1, 134373, Note_on_c, 7, 79, 127
1, 134468, Note_off_c, 7, 79, 127
1, 134469, Note_on_c, 0, 72, 127
1, 134547, Note_off_c, 0, 60, 127
1, 134625, Note_on_c, 0, 60, 127
1, 134779, Note_off_c, 0, 60, 127
1, 134781, Note_on_c, 2, 62, 127
1, 134781, Note_on_c, 7, 79, 127
1, 134935, Note_off_c, 2, 62, 127
1, 134937, Note_on_c, 4, 64, 127
1, 135091, Note_off_c, 4, 64, 127
1, 135091, Note_off_c, 7, 79, 127
1, 135093, Note_on_c, 5, 65, 127
1, 135093, Note_on_c, 10, 81, 127
1, 135247, Note_off_c, 5, 65, 127
1, 135249, Note_on_c, 10, 57, 127
1, 135403, Note_off_c, 10, 57, 127
1, 135403, Note_off_c, 10, 81, 127
1, 135405, Note_on_c, 11, 58, 127
1, 135405, Note_on_c, 7, 79, 127
1, 135559, Note_off_c, 11, 58, 127
1, 135561, Note_on_c, 0, 60, 127
1, 135715, Note_off_c, 0, 60, 127
1, 135715, Note_off_c, 7, 79, 127
1, 135717, Note_on_c, 5, 53, 127
1, 135717, Note_on_c, 10, 81, 127
1, 135871, Note_off_c, 5, 53, 127
1, 135873, Note_on_c, 10, 57, 127
1, 136027, Note_off_c, 10, 57, 127
1, 136027, Note_off_c, 10, 81, 127
1, 136029, Note_on_c, 7, 55, 127
1, 136029, Note_on_c, 5, 77, 127
1, 136183, Note_off_c, 7, 55, 127
1, 136185, Note_on_c, 5, 53, 127
1, 136339, Note_off_c, 5, 53, 127
1, 136339, Note_off_c, 5, 77, 127
1, 136341, Note_on_c, 4, 52, 127
1, 136341, Note_on_c, 7, 79, 127
1, 136495, Note_off_c, 4, 52, 127
1, 136497, Note_on_c, 0, 60, 127
1, 136651, Note_off_c, 7, 79, 127
1, 136653, Note_on_c, 2, 50, 127
1, 136653, Note_on_c, 5, 77, 127
1, 136724, Note_off_c, 0, 60, 127
1, 136807, Note_off_c, 2, 50, 127
1, 136809, Note_on_c, 0, 60, 127
1, 136963, Note_off_c, 5, 77, 127
1, 136965, Note_on_c, 4, 52, 127
1, 136965, Note_on_c, 7, 79, 127
1, 137036, Note_off_c, 0, 60, 127
1, 137119, Note_off_c, 4, 52, 127
1, 137121, Note_on_c, 0, 60, 127
1, 137275, Note_off_c, 7, 79, 127
1, 137277, Note_on_c, 0, 48, 127
1, 137277, Note_on_c, 4, 76, 127
1, 137348, Note_off_c, 0, 60, 127
1, 137431, Note_off_c, 0, 48, 127
1, 137433, Note_on_c, 4, 52, 127
1, 137566, Note_off_c, 0, 72, 127
1, 137587, Note_off_c, 4, 52, 127
1, 137587, Note_off_c, 4, 76, 127
1, 137589, Note_on_c, 5, 53, 127
1, 137589, Note_on_c, 10, 81, 127
1, 137589, Note_on_c, 0, 72, 127
1, 137743, Note_off_c, 5, 53, 127
1, 137745, Note_on_c, 10, 45, 127
1, 137899, Note_off_c, 10, 45, 127
1, 137899, Note_off_c, 10, 81, 127
1, 137901, Note_on_c, 11, 46, 127
1, 137901, Note_on_c, 7, 79, 127
1, 138055, Note_off_c, 11, 46, 127
1, 138057, Note_on_c, 0, 48, 127
1, 138211, Note_off_c, 0, 48, 127
1, 138211, Note_off_c, 7, 79, 127
1, 138213, Note_on_c, 5, 41, 127
1, 138213, Note_on_c, 10, 81, 127
1, 138367, Note_off_c, 5, 41, 127
1, 138369, Note_on_c, 10, 45, 127
1, 138523, Note_off_c, 10, 45, 127
1, 138523, Note_off_c, 10, 81, 127
1, 138525, Note_on_c, 7, 43, 127
1, 138525, Note_on_c, 5, 77, 127
1, 138679, Note_off_c, 7, 43, 127
1, 138681, Note_on_c, 5, 41, 127
1, 138835, Note_off_c, 5, 41, 127
1, 138835, Note_off_c, 5, 77, 127
1, 138837, Note_on_c, 4, 40, 127
1, 138837, Note_on_c, 7, 79, 127
1, 138993, Note_on_c, 0, 48, 127
1, 139016, Note_off_c, 4, 40, 127
1, 139147, Note_off_c, 0, 48, 127
1, 139147, Note_off_c, 7, 79, 127
1, 139149, Note_on_c, 2, 38, 127
1, 139149, Note_on_c, 10, 81, 127
1, 139305, Note_on_c, 0, 48, 127
1, 139328, Note_off_c, 2, 38, 127
1, 139459, Note_off_c, 0, 48, 127
1, 139459, Note_off_c, 10, 81, 127
1, 139461, Note_on_c, 4, 40, 127
1, 139461, Note_on_c, 7, 79, 127
1, 139617, Note_on_c, 0, 48, 127
1, 139640, Note_off_c, 4, 40, 127
1, 139771, Note_off_c, 0, 48, 127
1, 139771, Note_off_c, 7, 79, 127
1, 139773, Note_on_c, 5, 41, 127
1, 139773, Note_on_c, 5, 77, 127
1, 139929, Note_on_c, 0, 48, 127
1, 139952, Note_off_c, 5, 41, 127
1, 140075, Note_off_c, 0, 72, 127
1, 140083, Note_off_c, 0, 48, 127
1, 140083, Note_off_c, 5, 77, 127
1, 140085, Note_on_c, 7, 43, 127
1, 140085, Note_on_c, 4, 76, 127
1, 140085, Note_on_c, 0, 72, 127
1, 140085, Note_on_c, 7, 67, 127
1, 140241, Note_on_c, 0, 48, 127
1, 140280, Note_off_c, 7, 43, 127
1, 140395, Note_off_c, 0, 48, 127
1, 140397, Note_on_c, 12, 47, 127
1, 140551, Note_off_c, 12, 47, 127
1, 140553, Note_on_c, 10, 45, 127
1, 140707, Note_off_c, 10, 45, 127
1, 140707, Note_off_c, 0, 72, 127
1, 140707, Note_off_c, 4, 76, 127
1, 140709, Note_on_c, 7, 55, 127
1, 140709, Note_on_c, 2, 74, 127
1, 140872, Note_off_c, 2, 74, 127
1, 140872, Note_off_c, 7, 55, 127
1, 140874, Note_on_c, 4, 52, 127
1, 140874, Note_on_c, 4, 76, 127
1, 140955, Note_off_c, 4, 76, 127
1, 140957, Note_on_c, 2, 74, 127
1, 141038, Note_off_c, 2, 74, 127
1, 141038, Note_off_c, 4, 52, 127
1, 141040, Note_on_c, 5, 53, 127
1, 141040, Note_on_c, 4, 76, 127
1, 141121, Note_off_c, 4, 76, 127
1, 141123, Note_on_c, 2, 74, 127
1, 141204, Note_off_c, 2, 74, 127
1, 141204, Note_off_c, 5, 53, 127
1, 141206, Note_on_c, 7, 55, 127
1, 141206, Note_on_c, 0, 72, 127
1, 141287, Note_off_c, 0, 72, 127
1, 141289, Note_on_c, 2, 74, 127
1, 141370, Note_off_c, 2, 74, 127
1, 141370, Note_off_c, 7, 55, 127
1, 141370, Note_off_c, 7, 67, 127
1, 141372, Note_on_c, 0, 48, 127
1, 141372, Note_on_c, 0, 72, 127
1, 141699, Note_off_c, 0, 72, 127
1, 141699, Note_off_c, 0, 48, 127
1, 141701, Note_on_c, 10, 57, 127
1, 141701, Note_on_c, 0, 60, 127
1, 142028, Note_off_c, 0, 60, 127
1, 142028, Note_off_c, 10, 57, 127
1, 142030, Note_on_c, 11, 46, 127
1, 142030, Note_on_c, 11, 70, 127
1, 142357, Note_off_c, 11, 70, 127
1, 142357, Note_off_c, 11, 46, 127
1, 142359, Note_on_c, 7, 55, 127
1, 142359, Note_on_c, 11, 58, 127
1, 142686, Note_off_c, 11, 58, 127
1, 142686, Note_off_c, 7, 55, 127
1, 142688, Note_on_c, 10, 45, 127
1, 142688, Note_on_c, 10, 69, 127
1, 143015, Note_off_c, 10, 69, 127
1, 143015, Note_off_c, 10, 45, 127
1, 143017, Note_on_c, 5, 53, 127
1, 143017, Note_on_c, 10, 57, 127
1, 143344, Note_off_c, 10, 57, 127
1, 143344, Note_off_c, 5, 53, 127
1, 143346, Note_on_c, 7, 43, 127
1, 143346, Note_on_c, 7, 67, 127
1, 143673, Note_off_c, 7, 67, 127
1, 143673, Note_off_c, 7, 43, 127
1, 143675, Note_on_c, 4, 52, 127
1, 143675, Note_on_c, 7, 55, 127
1, 144002, Note_off_c, 7, 55, 127
1, 144002, Note_off_c, 4, 52, 127
1, 144020, Note_on_c, 5, 65, 127
1, 144020, Note_on_c, 5, 53, 127
1, 144195, Note_off_c, 5, 53, 127
1, 144195, Note_off_c, 5, 65, 127
1, 144197, Note_on_c, 4, 64, 127
1, 144197, Note_on_c, 4, 52, 127
1, 144372, Note_off_c, 4, 52, 127
1, 144372, Note_off_c, 4, 64, 127
1, 144374, Note_on_c, 2, 62, 127
1, 144374, Note_on_c, 2, 50, 127
1, 144549, Note_off_c, 2, 50, 127
1, 144549, Note_off_c, 2, 62, 127
1, 144551, Note_on_c, 0, 60, 127
1, 144551, Note_on_c, 0, 48, 127
1, 144726, Note_off_c, 0, 48, 127
1, 144726, Note_off_c, 0, 60, 127
1, 144728, Note_on_c, 7, 67, 127
1, 144728, Note_on_c, 7, 55, 127
1, 145145, Note_off_c, 7, 55, 127
1, 145145, Note_off_c, 7, 67, 127
1, 145147, Note_on_c, 7, 55, 127
1, 145147, Note_on_c, 12, 59, 127
1, 145147, Note_on_c, 2, 62, 127
1, 145147, Note_on_c, 5, 65, 127
1, 145147, Note_on_c, 12, 47, 127
1, 145147, Note_on_c, 2, 50, 127
1, 145147, Note_on_c, 7, 43, 127
1, 145564, Note_off_c, 7, 43, 127
1, 145564, Note_off_c, 2, 50, 127
1, 145564, Note_off_c, 12, 47, 127
1, 145564, Note_off_c, 5, 65, 127
1, 145564, Note_off_c, 2, 62, 127
1, 145564, Note_off_c, 12, 59, 127
1, 145564, Note_off_c, 7, 55, 127
1, 145638, Note_on_c, 4, 40, 127
1, 145638, Note_on_c, 0, 36, 127
1, 145638, Note_on_c, 0, 48, 127
1, 145638, Note_on_c, 7, 43, 127
1, 145638, Note_on_c, 0, 60, 127
1, 145638, Note_on_c, 7, 55, 127
1, 145638, Note_on_c, 4, 64, 127
1, 148985, Note_off_c, 4, 64, 127
1, 148985, Note_off_c, 7, 55, 127
1, 148985, Note_off_c, 0, 60, 127
1, 148985, Note_off_c, 7, 43, 127
1, 148985, Note_off_c, 0, 48, 127
1, 148985, Note_off_c, 0, 36, 127
1, 148985, Note_off_c, 4, 40, 127
1, 151862, Note_on_c, 10, 69, 127
1, 152207, Note_off_c, 10, 69, 127
1, 152211, Note_on_c, 12, 71, 127
1, 152382, Note_off_c, 12, 71, 127
1, 152386, Note_on_c, 2, 74, 127
1, 152557, Note_off_c, 2, 74, 127
1, 152561, Note_on_c, 0, 72, 127
1, 152906, Note_off_c, 0, 72, 127
1, 152910, Note_on_c, 12, 71, 127
1, 153081, Note_off_c, 12, 71, 127
1, 153085, Note_on_c, 10, 69, 127
1, 153256, Note_off_c, 10, 69, 127
1, 153260, Note_on_c, 4, 76, 127
1, 153431, Note_off_c, 4, 76, 127
1, 153435, Note_on_c, 2, 74, 127
1, 153606, Note_off_c, 2, 74, 127
1, 153610, Note_on_c, 4, 76, 127
1, 154657, Note_on_c, 4, 64, 127
1, 155002, Note_off_c, 4, 64, 127
1, 155006, Note_on_c, 6, 66, 127
1, 155177, Note_off_c, 6, 66, 127
1, 155181, Note_on_c, 10, 69, 127
1, 155352, Note_off_c, 10, 69, 127
1, 155356, Note_on_c, 8, 68, 127
1, 155701, Note_off_c, 8, 68, 127
1, 155705, Note_on_c, 6, 66, 127
1, 155876, Note_off_c, 6, 66, 127
1, 155880, Note_on_c, 4, 64, 127
1, 156051, Note_off_c, 4, 64, 127
1, 156055, Note_on_c, 10, 69, 127
1, 156186, Note_on_c, 8, 68, 127
1, 156201, Note_off_c, 10, 69, 127
1, 156317, Note_on_c, 10, 69, 127
1, 156332, Note_off_c, 8, 68, 127
1, 156401, Note_off_c, 4, 76, 127
1, 156405, Note_on_c, 5, 77, 127
1, 156576, Note_off_c, 5, 77, 127
1, 156580, Note_on_c, 4, 76, 127
1, 156751, Note_off_c, 4, 76, 127
1, 156755, Note_on_c, 2, 74, 127
1, 157100, Note_off_c, 2, 74, 127
1, 157104, Note_on_c, 4, 76, 127
1, 157275, Note_off_c, 4, 76, 127
1, 157279, Note_on_c, 0, 72, 127
1, 157450, Note_off_c, 0, 72, 127
1, 157454, Note_on_c, 2, 74, 127
1, 157679, Note_on_c, 4, 76, 127
1, 157683, Note_off_c, 2, 74, 127
1, 157847, Note_on_c, 2, 74, 127
1, 157851, Note_off_c, 4, 76, 127
1, 158015, Note_on_c, 4, 76, 127
1, 158019, Note_off_c, 2, 74, 127
1, 158183, Note_on_c, 5, 77, 127
1, 158187, Note_off_c, 4, 76, 127
1, 158351, Note_on_c, 4, 76, 127
1, 158355, Note_off_c, 5, 77, 127
1, 158519, Note_on_c, 2, 74, 127
1, 158523, Note_off_c, 4, 76, 127
1, 158687, Note_on_c, 4, 76, 127
1, 158691, Note_off_c, 2, 74, 127
1, 158855, Note_on_c, 5, 77, 127
1, 158859, Note_off_c, 4, 76, 127
1, 158939, Note_off_c, 10, 69, 127
1, 159052, Note_on_c, 2, 74, 127
1, 159197, Note_off_c, 2, 74, 127
1, 159219, Note_on_c, 0, 72, 127
1, 159386, Note_on_c, 12, 71, 127
1, 159390, Note_off_c, 0, 72, 127
1, 159554, Note_on_c, 10, 69, 127
1, 159558, Note_off_c, 12, 71, 127
1, 159900, Note_off_c, 10, 69, 127
1, 159904, Note_on_c, 12, 71, 127
1, 160075, Note_off_c, 12, 71, 127
1, 160079, Note_on_c, 8, 68, 127
1, 160250, Note_off_c, 8, 68, 127
1, 160254, Note_on_c, 10, 69, 127
1, 160599, Note_off_c, 5, 77, 127
1, 160603, Note_on_c, 7, 79, 127
1, 160774, Note_off_c, 7, 79, 127
1, 160778, Note_on_c, 5, 77, 127
1, 160949, Note_off_c, 5, 77, 127
1, 160949, Note_off_c, 10, 69, 127
1, 160953, Note_on_c, 12, 71, 127
1, 160953, Note_on_c, 4, 76, 127
1, 161298, Note_off_c, 4, 76, 127
1, 161302, Note_on_c, 5, 77, 127
1, 161473, Note_off_c, 5, 77, 127
1, 161477, Note_on_c, 2, 74, 127
1, 161644, Note_off_c, 12, 71, 127
1, 161648, Note_off_c, 2, 74, 127
1, 161652, Note_on_c, 0, 72, 127
1, 161848, Note_on_c, 4, 64, 127
1, 162015, Note_on_c, 6, 66, 127
1, 162019, Note_off_c, 4, 64, 127
1, 162183, Note_on_c, 8, 68, 127
1, 162187, Note_off_c, 6, 66, 127
1, 162347, Note_off_c, 0, 72, 127
1, 162351, Note_on_c, 10, 69, 127
1, 162351, Note_on_c, 12, 71, 127
1, 162355, Note_off_c, 8, 68, 127
1, 162522, Note_off_c, 10, 69, 127
1, 162526, Note_on_c, 8, 68, 127
1, 162697, Note_off_c, 8, 68, 127
1, 162701, Note_on_c, 6, 66, 127
1, 162872, Note_off_c, 6, 66, 127
1, 162876, Note_on_c, 8, 68, 127
1, 163047, Note_off_c, 8, 68, 127
1, 163047, Note_off_c, 12, 71, 127
1, 163051, Note_on_c, 10, 45, 127
1, 163051, Note_on_c, 10, 69, 127
1, 163051, Note_on_c, 0, 72, 127
1, 163396, Note_off_c, 0, 72, 127
1, 163396, Note_off_c, 10, 45, 127
1, 163400, Note_on_c, 0, 48, 127
1, 163400, Note_on_c, 5, 77, 127
1, 163571, Note_off_c, 5, 77, 127
1, 163575, Note_on_c, 4, 76, 127
1, 163746, Note_off_c, 4, 76, 127
1, 163746, Note_off_c, 0, 48, 127
1, 163750, Note_on_c, 12, 47, 127
1, 163750, Note_on_c, 2, 74, 127
1, 163921, Note_off_c, 2, 74, 127
1, 163925, Note_on_c, 0, 72, 127
1, 164096, Note_off_c, 0, 72, 127
1, 164096, Note_off_c, 12, 47, 127
1, 164100, Note_on_c, 10, 45, 127
1, 164100, Note_on_c, 12, 71, 127
1, 164271, Note_off_c, 12, 71, 127
1, 164275, Note_on_c, 0, 72, 127
1, 164446, Note_off_c, 0, 72, 127
1, 164446, Note_off_c, 10, 45, 127
1, 164450, Note_on_c, 4, 52, 127
1, 164450, Note_on_c, 12, 71, 127
1, 164970, Note_off_c, 12, 71, 127
1, 164974, Note_on_c, 2, 74, 127
1, 165145, Note_off_c, 2, 74, 127
1, 165149, Note_on_c, 0, 72, 127
1, 165494, Note_off_c, 0, 72, 127
1, 165498, Note_on_c, 4, 76, 127
1, 165669, Note_off_c, 4, 76, 127
1, 165673, Note_on_c, 2, 74, 127
1, 165844, Note_off_c, 2, 74, 127
1, 165844, Note_off_c, 10, 69, 127
1, 165848, Note_on_c, 12, 59, 127
1, 165848, Note_on_c, 8, 68, 127
1, 165848, Note_on_c, 4, 76, 127
1, 166193, Note_off_c, 8, 68, 127
1, 166193, Note_off_c, 12, 59, 127
1, 166204, Note_on_c, 2, 62, 127
1, 166204, Note_on_c, 10, 69, 127
1, 166375, Note_off_c, 10, 69, 127
1, 166375, Note_on_c, 12, 71, 127
1, 166546, Note_off_c, 12, 71, 127
1, 166546, Note_on_c, 0, 60, 127
1, 166546, Note_on_c, 10, 69, 127
1, 166550, Note_off_c, 2, 62, 127
1, 166892, Note_off_c, 10, 69, 127
1, 166892, Note_off_c, 0, 60, 127
1, 166903, Note_on_c, 12, 59, 127
1, 166903, Note_on_c, 12, 71, 127
1, 167074, Note_off_c, 12, 71, 127
1, 167074, Note_on_c, 8, 68, 127
1, 167245, Note_off_c, 8, 68, 127
1, 167245, Note_on_c, 0, 60, 127
1, 167245, Note_on_c, 10, 69, 127
1, 167249, Note_off_c, 12, 59, 127
1, 167591, Note_off_c, 4, 76, 127
1, 167595, Note_on_c, 5, 77, 127
1, 167766, Note_off_c, 5, 77, 127
1, 167770, Note_on_c, 4, 76, 127
1, 167941, Note_off_c, 4, 76, 127
1, 167941, Note_off_c, 4, 52, 127
1, 167945, Note_on_c, 0, 48, 127
1, 167945, Note_on_c, 2, 74, 127
1, 168116, Note_off_c, 2, 74, 127
1, 168120, Note_on_c, 0, 72, 127
1, 168291, Note_off_c, 0, 72, 127
1, 168295, Note_on_c, 2, 74, 127
1, 168466, Note_off_c, 2, 74, 127
1, 168470, Note_on_c, 4, 76, 127
1, 168641, Note_off_c, 4, 76, 127
1, 168641, Note_off_c, 0, 48, 127
1, 168645, Note_on_c, 2, 50, 127
1, 168645, Note_on_c, 5, 77, 127
1, 168878, Note_on_c, 7, 79, 127
1, 168882, Note_off_c, 5, 77, 127
1, 169038, Note_on_c, 5, 77, 127
1, 169049, Note_off_c, 7, 79, 127
1, 169198, Note_on_c, 7, 79, 127
1, 169209, Note_off_c, 5, 77, 127
1, 169340, Note_off_c, 2, 50, 127
1, 169344, Note_on_c, 4, 52, 127
1, 169359, Note_on_c, 10, 81, 127
1, 169370, Note_off_c, 7, 79, 127
1, 169530, Note_off_c, 10, 81, 127
1, 169541, Note_on_c, 7, 79, 127
1, 169708, Note_on_c, 5, 77, 127
1, 169712, Note_off_c, 7, 79, 127
1, 169876, Note_on_c, 7, 79, 127
1, 169880, Note_off_c, 5, 77, 127
1, 170040, Note_off_c, 4, 52, 127
1, 170044, Note_on_c, 5, 53, 127
1, 170044, Note_on_c, 10, 81, 127
1, 170048, Note_off_c, 7, 79, 127
1, 170390, Note_off_c, 10, 69, 127
1, 170394, Note_on_c, 0, 72, 127
1, 170739, Note_off_c, 0, 72, 127
1, 170739, Note_off_c, 0, 60, 127
1, 170743, Note_on_c, 0, 60, 127
1, 170743, Note_on_c, 4, 76, 127
1, 171088, Note_off_c, 4, 76, 127
1, 171092, Note_on_c, 7, 79, 127
1, 171437, Note_off_c, 7, 79, 127
1, 171437, Note_off_c, 0, 60, 127
1, 171441, Note_on_c, 2, 62, 127
1, 171441, Note_on_c, 5, 77, 127
1, 171648, Note_off_c, 5, 77, 127
1, 171652, Note_on_c, 4, 76, 127
1, 171819, Note_on_c, 2, 74, 127
1, 171823, Note_off_c, 4, 76, 127
1, 171987, Note_on_c, 4, 76, 127
1, 171991, Note_off_c, 2, 74, 127
1, 172136, Note_off_c, 2, 62, 127
1, 172154, Note_on_c, 2, 74, 127
1, 172154, Note_on_c, 4, 64, 127
1, 172158, Note_off_c, 4, 76, 127
1, 172325, Note_off_c, 2, 74, 127
1, 172336, Note_on_c, 0, 72, 127
1, 172503, Note_on_c, 12, 71, 127
1, 172507, Note_off_c, 0, 72, 127
1, 172671, Note_on_c, 0, 72, 127
1, 172675, Note_off_c, 12, 71, 127
1, 172835, Note_off_c, 10, 81, 127
1, 172839, Note_on_c, 2, 62, 127
1, 172839, Note_on_c, 12, 71, 127
1, 172839, Note_on_c, 7, 79, 127
1, 172843, Note_off_c, 0, 72, 127
1, 172850, Note_off_c, 4, 64, 127
1, 173185, Note_off_c, 12, 71, 127
1, 173185, Note_off_c, 2, 62, 127
1, 173203, Note_on_c, 12, 59, 127
1, 173203, Note_on_c, 7, 67, 127
1, 173538, Note_on_c, 0, 60, 127
1, 173538, Note_on_c, 10, 69, 127
1, 173549, Note_off_c, 7, 67, 127
1, 173549, Note_off_c, 12, 59, 127
1, 173884, Note_off_c, 10, 69, 127
1, 173884, Note_off_c, 0, 60, 127
1, 173895, Note_on_c, 2, 62, 127
1, 173895, Note_on_c, 0, 72, 127
1, 174066, Note_off_c, 0, 72, 127
1, 174066, Note_on_c, 12, 71, 127
1, 174230, Note_off_c, 5, 53, 127
1, 174237, Note_off_c, 12, 71, 127
1, 174237, Note_on_c, 4, 64, 127
1, 174237, Note_on_c, 0, 72, 127
1, 174241, Note_off_c, 2, 62, 127
1, 174583, Note_off_c, 7, 79, 127
1, 174587, Note_on_c, 4, 52, 127
1, 174587, Note_on_c, 7, 79, 127
1, 174929, Note_off_c, 4, 64, 127
1, 174933, Note_off_c, 7, 79, 127
1, 174933, Note_off_c, 4, 52, 127
1, 174937, Note_on_c, 2, 50, 127
1, 174937, Note_on_c, 5, 77, 127
1, 175282, Note_off_c, 5, 77, 127
1, 175282, Note_off_c, 2, 50, 127
1, 175286, Note_on_c, 0, 48, 127
1, 175286, Note_on_c, 4, 76, 127
1, 175631, Note_off_c, 4, 76, 127
1, 175631, Note_off_c, 0, 48, 127
1, 175635, Note_on_c, 5, 53, 127
1, 175635, Note_on_c, 2, 74, 127
1, 175980, Note_off_c, 0, 72, 127
1, 175984, Note_on_c, 0, 60, 127
1, 175984, Note_on_c, 10, 69, 127
1, 176329, Note_off_c, 10, 69, 127
1, 176329, Note_off_c, 0, 60, 127
1, 176329, Note_off_c, 5, 53, 127
1, 176333, Note_on_c, 12, 59, 127
1, 176333, Note_on_c, 6, 54, 127
1, 176333, Note_on_c, 12, 71, 127
1, 176678, Note_off_c, 12, 71, 127
1, 176678, Note_off_c, 12, 59, 127
1, 176682, Note_on_c, 10, 57, 127
1, 176682, Note_on_c, 0, 72, 127
1, 177027, Note_off_c, 0, 72, 127
1, 177027, Note_off_c, 10, 57, 127
1, 177027, Note_off_c, 6, 54, 127
1, 177032, Note_on_c, 7, 55, 127
1, 177032, Note_on_c, 12, 71, 127
1, 177376, Note_off_c, 2, 74, 127
1, 177393, Note_on_c, 12, 59, 127
1, 177394, Note_on_c, 4, 76, 127
1, 177726, Note_off_c, 7, 55, 127
1, 177738, Note_off_c, 4, 76, 127
1, 177738, Note_off_c, 12, 59, 127
1, 177745, Note_on_c, 3, 75, 127
1, 177745, Note_on_c, 6, 54, 127
1, 177745, Note_on_c, 10, 57, 127
1, 178090, Note_off_c, 10, 57, 127
1, 178090, Note_off_c, 6, 54, 127
1, 178090, Note_off_c, 3, 75, 127
1, 178094, Note_on_c, 4, 76, 127
1, 178094, Note_on_c, 4, 52, 127
1, 178094, Note_on_c, 7, 55, 127
1, 178439, Note_off_c, 7, 55, 127
1, 178439, Note_off_c, 4, 52, 127
1, 178439, Note_off_c, 4, 76, 127
1, 178443, Note_on_c, 6, 78, 127
1, 178443, Note_on_c, 3, 51, 127
1, 178443, Note_on_c, 10, 57, 127
1, 178773, Note_off_c, 12, 71, 127
1, 178792, Note_on_c, 0, 72, 127
1, 179137, Note_off_c, 0, 72, 127
1, 179137, Note_off_c, 10, 57, 127
1, 179141, Note_on_c, 12, 71, 127
1, 179141, Note_on_c, 6, 54, 127
1, 179486, Note_off_c, 12, 71, 127
1, 179490, Note_on_c, 10, 69, 127
1, 179835, Note_off_c, 10, 69, 127
1, 179835, Note_off_c, 6, 54, 127
1, 179835, Note_off_c, 3, 51, 127
1, 179839, Note_on_c, 7, 67, 127
1, 179839, Note_on_c, 4, 52, 127
1, 179839, Note_on_c, 12, 59, 127
1, 180184, Note_off_c, 7, 67, 127
1, 180188, Note_on_c, 12, 71, 127
1, 180533, Note_off_c, 12, 71, 127
1, 180533, Note_off_c, 12, 59, 127
1, 180533, Note_off_c, 4, 52, 127
1, 180533, Note_off_c, 6, 78, 127
1, 180537, Note_on_c, 4, 76, 127
1, 180537, Note_on_c, 7, 55, 127
1, 180537, Note_on_c, 12, 59, 127
1, 180886, Note_on_c, 2, 74, 127
1, 181228, Note_off_c, 4, 76, 127
1, 181232, Note_off_c, 2, 74, 127
1, 181232, Note_off_c, 12, 59, 127
1, 181232, Note_off_c, 7, 55, 127
1, 181236, Note_on_c, 6, 78, 127
1, 181236, Note_on_c, 0, 72, 127
1, 181236, Note_on_c, 10, 57, 127
1, 181236, Note_on_c, 0, 60, 127
1, 181581, Note_off_c, 0, 72, 127
1, 181585, Note_on_c, 12, 71, 127
1, 181930, Note_off_c, 12, 71, 127
1, 181930, Note_off_c, 0, 60, 127
1, 181930, Note_off_c, 10, 57, 127
1, 181934, Note_on_c, 10, 69, 127
1, 181934, Note_on_c, 6, 54, 127
1, 181934, Note_on_c, 4, 64, 127
1, 182279, Note_off_c, 10, 69, 127
1, 182283, Note_on_c, 7, 67, 127
1, 182628, Note_off_c, 7, 67, 127
1, 182628, Note_off_c, 6, 54, 127
1, 182632, Note_on_c, 6, 66, 127
1, 182632, Note_on_c, 12, 59, 127
1, 182977, Note_off_c, 4, 64, 127
1, 182977, Note_off_c, 6, 78, 127
1, 182981, Note_on_c, 6, 78, 127
1, 182981, Note_on_c, 4, 64, 127
1, 183326, Note_off_c, 4, 64, 127
1, 183326, Note_off_c, 6, 78, 127
1, 183330, Note_on_c, 8, 80, 127
1, 183330, Note_on_c, 3, 63, 127
1, 183672, Note_on_c, 1, 61, 127
1, 183676, Note_off_c, 3, 63, 127
1, 183854, Note_on_c, 10, 81, 127
1, 183865, Note_off_c, 8, 80, 127
1, 184014, Note_off_c, 6, 66, 127
1, 184018, Note_off_c, 1, 61, 127
1, 184025, Note_off_c, 10, 81, 127
1, 184029, Note_on_c, 8, 80, 127
1, 184029, Note_on_c, 2, 62, 127
1, 184374, Note_off_c, 2, 62, 127
1, 184374, Note_off_c, 12, 59, 127
1, 184389, Note_on_c, 5, 77, 127
1, 184389, Note_on_c, 12, 59, 127
1, 184389, Note_on_c, 8, 56, 127
1, 184734, Note_off_c, 8, 56, 127
1, 184734, Note_off_c, 12, 59, 127
1, 184734, Note_off_c, 5, 77, 127
1, 184743, Note_on_c, 0, 60, 127
1, 184743, Note_on_c, 10, 57, 127
1, 184743, Note_on_c, 4, 76, 127
1, 185088, Note_off_c, 4, 76, 127
1, 185088, Note_off_c, 10, 57, 127
1, 185088, Note_off_c, 0, 60, 127
1, 185092, Note_on_c, 2, 62, 127
1, 185092, Note_on_c, 12, 59, 127
1, 185092, Note_on_c, 2, 74, 127
1, 185421, Note_off_c, 8, 80, 127
1, 185437, Note_off_c, 2, 74, 127
1, 185437, Note_off_c, 12, 59, 127
1, 185437, Note_off_c, 2, 62, 127
1, 185441, Note_on_c, 4, 64, 127
1, 185441, Note_on_c, 0, 60, 127
1, 185441, Note_on_c, 0, 72, 127
1, 185441, Note_on_c, 10, 81, 127
1, 185786, Note_off_c, 0, 72, 127
1, 185786, Note_off_c, 0, 60, 127
1, 185786, Note_off_c, 4, 64, 127
1, 185790, Note_on_c, 0, 60, 127
1, 185790, Note_on_c, 10, 57, 127
1, 185790, Note_on_c, 4, 76, 127
1, 186135, Note_off_c, 4, 76, 127
1, 186135, Note_off_c, 10, 57, 127
1, 186135, Note_off_c, 0, 60, 127
1, 186139, Note_on_c, 2, 62, 127
1, 186139, Note_on_c, 12, 59, 127
1, 186139, Note_on_c, 2, 74, 127
1, 186484, Note_off_c, 2, 74, 127
1, 186484, Note_off_c, 12, 59, 127
1, 186484, Note_off_c, 2, 62, 127
1, 186488, Note_on_c, 4, 64, 127
1, 186488, Note_on_c, 0, 60, 127
1, 186488, Note_on_c, 0, 72, 127
1, 186833, Note_off_c, 0, 72, 127
1, 186833, Note_off_c, 0, 60, 127
1, 186833, Note_off_c, 4, 64, 127
1, 186837, Note_on_c, 5, 65, 127
1, 186837, Note_on_c, 2, 62, 127
1, 186837, Note_on_c, 12, 71, 127
1, 187193, Note_off_c, 2, 62, 127
1, 187193, Note_off_c, 5, 65, 127
1, 187193, Note_off_c, 10, 81, 127
1, 187208, Note_on_c, 12, 59, 127
1, 187208, Note_on_c, 2, 62, 127
1, 187208, Note_on_c, 0, 84, 127
1, 187564, Note_off_c, 0, 84, 127
1, 187564, Note_off_c, 2, 62, 127
1, 187564, Note_off_c, 12, 59, 127
1, 187573, Note_on_c, 12, 83, 127
1, 187573, Note_on_c, 0, 60, 127
1, 187573, Note_on_c, 4, 64, 127
1, 187929, Note_off_c, 4, 64, 127
1, 187929, Note_off_c, 0, 60, 127
1, 187929, Note_off_c, 12, 83, 127
1, 187933, Note_on_c, 10, 81, 127
1, 187933, Note_on_c, 2, 62, 127
1, 187933, Note_on_c, 5, 65, 127
1, 188289, Note_off_c, 5, 65, 127
1, 188289, Note_off_c, 2, 62, 127
1, 188289, Note_off_c, 10, 81, 127
1, 188293, Note_on_c, 8, 80, 127
1, 188293, Note_on_c, 4, 64, 127
1, 188657, Note_off_c, 12, 71, 127
1, 188677, Note_on_c, 2, 74, 127
1, 188677, Note_on_c, 5, 65, 127
1, 189057, Note_off_c, 5, 65, 127
1, 189057, Note_off_c, 2, 74, 127
1, 189057, Note_off_c, 4, 64, 127
1, 189061, Note_on_c, 0, 72, 127
1, 189061, Note_on_c, 4, 52, 127
1, 189061, Note_on_c, 4, 64, 127
1, 189441, Note_off_c, 4, 64, 127
1, 189441, Note_off_c, 0, 72, 127
1, 189461, Note_on_c, 2, 62, 127
1, 189461, Note_on_c, 12, 71, 127
1, 189825, Note_off_c, 4, 52, 127
1, 189825, Note_off_c, 8, 80, 127
1, 189841, Note_off_c, 12, 71, 127
1, 189841, Note_off_c, 2, 62, 127
1, 189869, Note_on_c, 10, 81, 127
1, 189869, Note_on_c, 10, 69, 127
1, 189869, Note_on_c, 10, 57, 127
1, 189869, Note_on_c, 0, 60, 127
1, 191594, Note_off_c, 0, 60, 127
1, 191594, Note_off_c, 10, 57, 127
1, 191594, Note_off_c, 10, 69, 127
1, 191594, Note_off_c, 10, 81, 127
1, 192173, Note_on_c, 12, 71, 127
1, 192173, Note_on_c, 4, 64, 127
1, 192173, Note_on_c, 7, 55, 127
1, 192173, Note_on_c, 12, 59, 127
1, 193898, Note_off_c, 12, 59, 127
1, 193898, Note_off_c, 7, 55, 127
1, 193898, Note_off_c, 4, 64, 127
1, 193898, Note_off_c, 12, 71, 127
1, 194413, Note_on_c, 0, 60, 127
1, 194413, Note_on_c, 5, 53, 127
1, 194413, Note_on_c, 4, 64, 127
1, 194413, Note_on_c, 10, 69, 127
1, 195562, Note_off_c, 4, 64, 127
1, 195562, Note_off_c, 0, 60, 127
1, 195565, Note_on_c, 12, 59, 127
1, 195565, Note_on_c, 2, 62, 127
1, 195769, Note_off_c, 2, 62, 127
1, 195773, Note_on_c, 4, 64, 127
1, 195869, Note_on_c, 2, 62, 127
1, 195893, Note_off_c, 4, 64, 127
1, 195965, Note_on_c, 0, 60, 127
1, 195989, Note_off_c, 2, 62, 127
1, 196061, Note_on_c, 2, 62, 127
1, 196085, Note_off_c, 0, 60, 127
1, 196157, Note_on_c, 4, 64, 127
1, 196181, Note_off_c, 2, 62, 127
1, 196253, Note_on_c, 2, 62, 127
1, 196277, Note_off_c, 4, 64, 127
1, 196349, Note_on_c, 4, 64, 127
1, 196373, Note_off_c, 2, 62, 127
1, 196390, Note_off_c, 12, 59, 127
1, 196415, Note_on_c, 10, 57, 127
1, 196445, Note_on_c, 2, 62, 127
1, 196469, Note_off_c, 4, 64, 127
1, 196544, Note_on_c, 0, 60, 127
1, 196565, Note_off_c, 2, 62, 127
1, 196658, Note_on_c, 2, 62, 127
1, 196664, Note_off_c, 0, 60, 127
1, 196813, Note_off_c, 10, 69, 127
1, 196813, Note_off_c, 5, 53, 127
1, 196871, Note_off_c, 2, 62, 127
1, 196878, Note_off_c, 10, 57, 127
1, 196885, Note_on_c, 8, 68, 127
1, 196885, Note_on_c, 4, 64, 127
1, 196885, Note_on_c, 4, 52, 127
1, 196885, Note_on_c, 12, 59, 127
1, 199685, Note_off_c, 12, 59, 127
1, 199685, Note_off_c, 4, 52, 127
1, 199685, Note_off_c, 4, 64, 127
1, 199685, Note_off_c, 8, 68, 127
1, 200605, Note_on_c, 0, 60, 127
1, 200605, Note_on_c, 0, 84, 127
1, 200770, Note_on_c, 4, 64, 127
1, 200934, Note_off_c, 4, 64, 127
1, 200934, Note_off_c, 0, 84, 127
1, 200935, Note_on_c, 7, 67, 127
1, 200935, Note_on_c, 0, 84, 127
1, 201082, Note_off_c, 0, 60, 127
1, 201099, Note_off_c, 0, 84, 127
1, 201099, Note_off_c, 7, 67, 127
1, 201100, Note_on_c, 12, 59, 127
1, 201100, Note_on_c, 0, 84, 127
1, 201265, Note_on_c, 2, 62, 127
1, 201429, Note_off_c, 2, 62, 127
1, 201429, Note_off_c, 0, 84, 127
1, 201430, Note_on_c, 7, 67, 127
1, 201430, Note_on_c, 0, 84, 127
1, 201577, Note_off_c, 12, 59, 127
1, 201594, Note_off_c, 0, 84, 127
1, 201594, Note_off_c, 7, 67, 127
1, 201595, Note_on_c, 10, 57, 127
1, 201595, Note_on_c, 0, 84, 127
1, 201760, Note_on_c, 0, 60, 127
1, 201924, Note_off_c, 0, 60, 127
1, 201924, Note_off_c, 0, 84, 127
1, 201925, Note_on_c, 4, 64, 127
1, 201925, Note_on_c, 0, 72, 127
1, 202072, Note_off_c, 10, 57, 127
1, 202089, Note_off_c, 0, 72, 127
1, 202089, Note_off_c, 4, 64, 127
1, 202090, Note_on_c, 4, 52, 127
1, 202090, Note_on_c, 0, 84, 127
1, 202255, Note_on_c, 7, 55, 127
1, 202419, Note_off_c, 7, 55, 127
1, 202419, Note_off_c, 0, 84, 127
1, 202420, Note_on_c, 0, 60, 127
1, 202420, Note_on_c, 0, 72, 127
1, 202567, Note_off_c, 4, 52, 127
1, 202584, Note_off_c, 0, 72, 127
1, 202584, Note_off_c, 0, 60, 127
1, 202585, Note_on_c, 5, 53, 127
1, 202585, Note_on_c, 0, 84, 127
1, 202749, Note_off_c, 0, 84, 127
1, 202750, Note_on_c, 10, 57, 127
1, 202750, Note_on_c, 12, 83, 127
1, 202914, Note_off_c, 12, 83, 127
1, 202914, Note_off_c, 10, 57, 127
1, 202915, Note_on_c, 0, 60, 127
1, 202915, Note_on_c, 10, 81, 127
1, 203062, Note_off_c, 5, 53, 127
1, 203079, Note_off_c, 10, 81, 127
1, 203079, Note_off_c, 0, 60, 127
1, 203080, Note_on_c, 7, 55, 127
1, 203080, Note_on_c, 7, 79, 127
1, 203244, Note_off_c, 7, 79, 127
1, 203245, Note_on_c, 0, 60, 127
1, 203245, Note_on_c, 10, 81, 127
1, 203409, Note_off_c, 10, 81, 127
1, 203409, Note_off_c, 0, 60, 127
1, 203410, Note_on_c, 12, 59, 127
1, 203410, Note_on_c, 5, 77, 127
1, 203557, Note_off_c, 7, 55, 127
1, 203574, Note_off_c, 5, 77, 127
1, 203574, Note_off_c, 12, 59, 127
1, 203575, Note_on_c, 0, 60, 127
1, 203575, Note_on_c, 4, 76, 127
1, 203739, Note_off_c, 4, 76, 127
1, 203739, Note_off_c, 0, 60, 127
1, 203740, Note_on_c, 0, 48, 127
1, 203740, Note_on_c, 2, 74, 127
1, 203904, Note_off_c, 2, 74, 127
1, 203904, Note_off_c, 0, 48, 127
1, 203905, Note_on_c, 2, 50, 127
1, 203905, Note_on_c, 0, 72, 127
1, 204069, Note_off_c, 2, 50, 127
1, 204070, Note_off_c, 0, 72, 127
1, 204070, Note_on_c, 4, 52, 127
1, 204234, Note_off_c, 4, 52, 127
1, 204235, Note_on_c, 2, 50, 127
1, 204399, Note_off_c, 2, 50, 127
1, 204400, Note_on_c, 0, 48, 127
1, 204564, Note_off_c, 0, 48, 127
1, 204565, Note_on_c, 7, 55, 127
1, 204565, Note_on_c, 7, 79, 127
1, 204730, Note_on_c, 12, 59, 127
1, 204894, Note_off_c, 12, 59, 127
1, 204894, Note_off_c, 7, 79, 127
1, 204895, Note_on_c, 2, 62, 127
1, 204895, Note_on_c, 7, 79, 127
1, 205042, Note_off_c, 7, 55, 127
1, 205059, Note_off_c, 7, 79, 127
1, 205059, Note_off_c, 2, 62, 127
1, 205060, Note_on_c, 6, 54, 127
1, 205060, Note_on_c, 7, 79, 127
1, 205225, Note_on_c, 10, 57, 127
1, 205389, Note_off_c, 10, 57, 127
1, 205389, Note_off_c, 7, 79, 127
1, 205390, Note_on_c, 2, 62, 127
1, 205390, Note_on_c, 7, 79, 127
1, 205537, Note_off_c, 6, 54, 127
1, 205554, Note_off_c, 7, 79, 127
1, 205554, Note_off_c, 2, 62, 127
1, 205555, Note_on_c, 4, 52, 127
1, 205555, Note_on_c, 7, 79, 127
1, 205720, Note_on_c, 7, 55, 127
1, 205884, Note_off_c, 7, 55, 127
1, 205884, Note_off_c, 7, 79, 127
1, 205885, Note_on_c, 12, 59, 127
1, 205885, Note_on_c, 7, 67, 127
1, 206032, Note_off_c, 4, 52, 127
1, 206049, Note_off_c, 7, 67, 127
1, 206049, Note_off_c, 12, 59, 127
1, 206050, Note_on_c, 12, 47, 127
1, 206050, Note_on_c, 7, 79, 127
1, 206215, Note_on_c, 2, 50, 127
1, 206379, Note_off_c, 2, 50, 127
1, 206379, Note_off_c, 7, 79, 127
1, 206380, Note_on_c, 7, 55, 127
1, 206380, Note_on_c, 7, 67, 127
1, 206527, Note_off_c, 12, 47, 127
1, 206544, Note_off_c, 7, 67, 127
1, 206544, Note_off_c, 7, 55, 127
1, 206545, Note_on_c, 0, 48, 127
1, 206545, Note_on_c, 7, 79, 127
1, 206709, Note_off_c, 7, 79, 127
1, 206710, Note_on_c, 4, 52, 127
1, 206710, Note_on_c, 6, 78, 127
1, 206874, Note_off_c, 6, 78, 127
1, 206874, Note_off_c, 4, 52, 127
1, 206875, Note_on_c, 7, 55, 127
1, 206875, Note_on_c, 4, 76, 127
1, 207022, Note_off_c, 0, 48, 127
1, 207039, Note_off_c, 4, 76, 127
1, 207039, Note_off_c, 7, 55, 127
1, 207040, Note_on_c, 2, 50, 127
1, 207040, Note_on_c, 2, 74, 127
1, 207204, Note_off_c, 2, 74, 127
1, 207205, Note_on_c, 7, 55, 127
1, 207205, Note_on_c, 4, 76, 127
1, 207369, Note_off_c, 4, 76, 127
1, 207369, Note_off_c, 7, 55, 127
1, 207370, Note_on_c, 6, 54, 127
1, 207370, Note_on_c, 0, 72, 127
1, 207517, Note_off_c, 2, 50, 127
1, 207534, Note_off_c, 0, 72, 127
1, 207534, Note_off_c, 6, 54, 127
1, 207535, Note_on_c, 7, 55, 127
1, 207535, Note_on_c, 12, 71, 127
1, 207699, Note_off_c, 12, 71, 127
1, 207699, Note_off_c, 7, 55, 127
1, 207700, Note_on_c, 10, 57, 127
1, 207700, Note_on_c, 10, 69, 127
1, 207864, Note_off_c, 10, 69, 127
1, 207864, Note_off_c, 10, 57, 127
1, 207865, Note_on_c, 12, 59, 127
1, 207865, Note_on_c, 7, 67, 127
1, 208029, Note_off_c, 7, 67, 127
1, 208029, Note_off_c, 12, 59, 127
1, 208030, Note_on_c, 7, 55, 127
1, 208194, Note_off_c, 7, 55, 127
1, 208195, Note_on_c, 10, 57, 127
1, 208195, Note_on_c, 7, 79, 127
1, 208359, Note_off_c, 7, 79, 127
1, 208359, Note_off_c, 10, 57, 127
1, 208360, Note_on_c, 12, 59, 127
1, 208360, Note_on_c, 5, 77, 127
1, 208524, Note_off_c, 5, 77, 127
1, 208524, Note_off_c, 12, 59, 127
1, 208525, Note_on_c, 0, 60, 127
1, 208525, Note_on_c, 4, 76, 127
1, 208689, Note_off_c, 4, 76, 127
1, 208690, Note_on_c, 2, 74, 127
1, 208854, Note_off_c, 2, 74, 127
1, 208854, Note_off_c, 0, 60, 127
1, 208855, Note_on_c, 0, 48, 127
1, 208855, Note_on_c, 0, 72, 127
1, 209019, Note_off_c, 0, 72, 127
1, 209019, Note_off_c, 0, 48, 127
1, 209020, Note_on_c, 11, 70, 127
1, 209185, Note_on_c, 7, 55, 127
1, 209349, Note_off_c, 7, 55, 127
1, 209349, Note_off_c, 11, 70, 127
1, 209350, Note_on_c, 5, 53, 127
1, 209350, Note_on_c, 11, 70, 127
1, 209514, Note_off_c, 11, 70, 127
1, 209514, Note_off_c, 5, 53, 127
1, 209515, Note_on_c, 4, 52, 127
1, 209515, Note_on_c, 0, 72, 127
1, 209576, Note_off_c, 0, 72, 127
1, 209577, Note_on_c, 11, 70, 127
1, 209638, Note_off_c, 11, 70, 127
1, 209639, Note_on_c, 0, 72, 127
1, 209679, Note_off_c, 4, 52, 127
1, 209680, Note_on_c, 2, 50, 127
1, 209699, Note_off_c, 0, 72, 127
1, 209700, Note_on_c, 11, 70, 127
1, 209843, Note_off_c, 2, 50, 127
1, 209844, Note_on_c, 0, 60, 127
1, 209844, Note_on_c, 0, 48, 127
1, 210008, Note_off_c, 0, 48, 127
1, 210009, Note_off_c, 11, 70, 127
1, 210009, Note_on_c, 5, 53, 127
1, 210009, Note_on_c, 10, 69, 127
1, 210173, Note_off_c, 10, 69, 127
1, 210173, Note_off_c, 0, 60, 127
1, 210174, Note_on_c, 10, 81, 127
1, 210338, Note_off_c, 10, 81, 127
1, 210339, Note_on_c, 7, 79, 127
1, 210499, Note_off_c, 5, 53, 127
1, 210503, Note_off_c, 7, 79, 127
1, 210504, Note_on_c, 6, 78, 127
1, 210668, Note_off_c, 6, 78, 127
1, 210669, Note_on_c, 4, 76, 127
1, 210833, Note_off_c, 4, 76, 127
1, 210834, Note_on_c, 2, 74, 127
1, 210998, Note_off_c, 2, 74, 127
1, 210999, Note_on_c, 0, 72, 127
1, 211164, Note_on_c, 10, 57, 127
1, 211328, Note_off_c, 10, 57, 127
1, 211328, Note_off_c, 0, 72, 127
1, 211329, Note_on_c, 7, 55, 127
1, 211329, Note_on_c, 0, 72, 127
1, 211493, Note_off_c, 0, 72, 127
1, 211493, Note_off_c, 7, 55, 127
1, 211494, Note_on_c, 6, 54, 127
1, 211494, Note_on_c, 2, 74, 127
1, 211555, Note_off_c, 2, 74, 127
1, 211556, Note_on_c, 0, 72, 127
1, 211617, Note_off_c, 0, 72, 127
1, 211618, Note_on_c, 2, 74, 127
1, 211658, Note_off_c, 6, 54, 127
1, 211659, Note_on_c, 4, 52, 127
1, 211678, Note_off_c, 2, 74, 127
1, 211679, Note_on_c, 0, 72, 127
1, 211822, Note_off_c, 4, 52, 127
1, 211823, Note_on_c, 2, 50, 127
1, 211823, Note_on_c, 2, 62, 127
1, 211982, Note_off_c, 0, 72, 127
1, 211987, Note_off_c, 2, 50, 127
1, 211988, Note_on_c, 7, 55, 127
1, 211988, Note_on_c, 12, 71, 127
1, 212152, Note_off_c, 12, 71, 127
1, 212152, Note_off_c, 7, 55, 127
1, 212152, Note_off_c, 2, 62, 127
1, 212153, Note_on_c, 10, 57, 127
1, 212153, Note_on_c, 7, 79, 127
1, 212317, Note_off_c, 7, 79, 127
1, 212317, Note_off_c, 10, 57, 127
1, 212318, Note_on_c, 12, 59, 127
1, 212318, Note_on_c, 5, 77, 127
1, 212482, Note_off_c, 5, 77, 127
1, 212482, Note_off_c, 12, 59, 127
1, 212483, Note_on_c, 0, 60, 127
1, 212483, Note_on_c, 4, 76, 127
1, 212647, Note_off_c, 4, 76, 127
1, 212648, Note_on_c, 4, 64, 127
1, 212648, Note_on_c, 7, 79, 127
1, 212812, Note_off_c, 7, 79, 127
1, 212812, Note_off_c, 4, 64, 127
1, 212813, Note_on_c, 7, 67, 127
1, 212813, Note_on_c, 4, 76, 127
1, 212960, Note_off_c, 0, 60, 127
1, 212977, Note_off_c, 4, 76, 127
1, 212977, Note_off_c, 7, 67, 127
1, 212978, Note_on_c, 12, 59, 127
1, 212978, Note_on_c, 2, 74, 127
1, 213142, Note_off_c, 2, 74, 127
1, 213143, Note_on_c, 2, 62, 127
1, 213143, Note_on_c, 7, 79, 127
1, 213307, Note_off_c, 7, 79, 127
1, 213307, Note_off_c, 2, 62, 127
1, 213308, Note_on_c, 7, 67, 127
1, 213308, Note_on_c, 2, 74, 127
1, 213455, Note_off_c, 12, 59, 127
1, 213472, Note_off_c, 2, 74, 127
1, 213472, Note_off_c, 7, 67, 127
1, 213473, Note_on_c, 10, 57, 127
1, 213473, Note_on_c, 0, 72, 127
1, 213637, Note_off_c, 0, 72, 127
1, 213638, Note_on_c, 0, 60, 127
1, 213638, Note_on_c, 7, 79, 127
1, 213802, Note_off_c, 7, 79, 127
1, 213802, Note_off_c, 0, 60, 127
1, 213803, Note_on_c, 6, 66, 127
1, 213803, Note_on_c, 0, 72, 127
1, 213950, Note_off_c, 10, 57, 127
1, 213967, Note_off_c, 0, 72, 127
1, 213967, Note_off_c, 6, 66, 127
1, 213968, Note_on_c, 7, 55, 127
1, 213968, Note_on_c, 12, 71, 127
1, 214132, Note_off_c, 12, 71, 127
1, 214132, Note_off_c, 7, 55, 127
1, 214133, Note_on_c, 10, 57, 127
1, 214133, Note_on_c, 7, 79, 127
1, 214297, Note_off_c, 7, 79, 127
1, 214297, Note_off_c, 10, 57, 127
1, 214298, Note_on_c, 12, 59, 127
1, 214298, Note_on_c, 5, 77, 127
1, 214462, Note_off_c, 5, 77, 127
1, 214462, Note_off_c, 12, 59, 127
1, 214463, Note_on_c, 0, 60, 127
1, 214463, Note_on_c, 4, 76, 127
1, 214627, Note_off_c, 4, 76, 127
1, 214628, Note_on_c, 4, 64, 127
1, 214628, Note_on_c, 7, 79, 127
1, 214792, Note_off_c, 7, 79, 127
1, 214792, Note_off_c, 4, 64, 127
1, 214793, Note_on_c, 7, 67, 127
1, 214793, Note_on_c, 4, 76, 127
1, 214824, Note_off_c, 0, 60, 127
1, 214957, Note_off_c, 4, 76, 127
1, 214958, Note_on_c, 12, 59, 127
1, 214958, Note_on_c, 2, 74, 127
1, 215122, Note_off_c, 2, 74, 127
1, 215122, Note_off_c, 7, 67, 127
1, 215123, Note_on_c, 2, 62, 127
1, 215123, Note_on_c, 7, 79, 127
1, 215287, Note_off_c, 7, 79, 127
1, 215287, Note_off_c, 2, 62, 127
1, 215288, Note_on_c, 7, 67, 127
1, 215288, Note_on_c, 2, 74, 127
1, 215319, Note_off_c, 12, 59, 127
1, 215452, Note_off_c, 2, 74, 127
1, 215453, Note_on_c, 10, 57, 127
1, 215453, Note_on_c, 0, 72, 127
1, 215617, Note_off_c, 0, 72, 127
1, 215617, Note_off_c, 7, 67, 127
1, 215618, Note_on_c, 0, 60, 127
1, 215618, Note_on_c, 7, 79, 127
1, 215782, Note_off_c, 7, 79, 127
1, 215782, Note_off_c, 0, 60, 127
1, 215783, Note_on_c, 6, 66, 127
1, 215783, Note_on_c, 0, 72, 127
1, 215814, Note_off_c, 10, 57, 127
1, 215947, Note_off_c, 0, 72, 127
1, 215947, Note_off_c, 6, 66, 127
1, 215948, Note_on_c, 7, 55, 127
1, 215948, Note_on_c, 12, 71, 127
1, 216112, Note_off_c, 12, 71, 127
1, 216112, Note_off_c, 7, 55, 127
1, 216113, Note_on_c, 10, 57, 127
1, 216113, Note_on_c, 7, 79, 127
1, 216277, Note_off_c, 7, 79, 127
1, 216277, Note_off_c, 10, 57, 127
1, 216278, Note_on_c, 12, 59, 127
1, 216278, Note_on_c, 5, 77, 127
1, 216442, Note_off_c, 5, 77, 127
1, 216442, Note_off_c, 12, 59, 127
1, 216443, Note_on_c, 0, 60, 127
1, 216443, Note_on_c, 4, 76, 127
1, 216607, Note_off_c, 4, 76, 127
1, 216607, Note_off_c, 0, 60, 127
1, 216608, Note_on_c, 2, 62, 127
1, 216608, Note_on_c, 2, 74, 127
1, 216772, Note_off_c, 2, 74, 127
1, 216772, Note_off_c, 2, 62, 127
1, 216773, Note_on_c, 4, 64, 127
1, 216773, Note_on_c, 0, 72, 127
1, 216937, Note_off_c, 0, 72, 127
1, 216937, Note_off_c, 4, 64, 127
1, 216938, Note_on_c, 5, 53, 127
1, 216938, Note_on_c, 10, 81, 127
1, 217102, Note_off_c, 10, 81, 127
1, 217103, Note_on_c, 7, 55, 127
1, 217103, Note_on_c, 5, 77, 127
1, 217267, Note_off_c, 5, 77, 127
1, 217267, Note_off_c, 7, 55, 127
1, 217268, Note_on_c, 10, 57, 127
1, 217268, Note_on_c, 2, 74, 127
1, 217432, Note_off_c, 2, 74, 127
1, 217432, Note_off_c, 10, 57, 127
1, 217433, Note_on_c, 7, 55, 127
1, 217433, Note_on_c, 12, 71, 127
1, 217597, Note_off_c, 12, 71, 127
1, 217597, Note_off_c, 7, 55, 127
1, 217598, Note_on_c, 10, 57, 127
1, 217598, Note_on_c, 10, 69, 127
1, 217762, Note_off_c, 10, 69, 127
1, 217762, Note_off_c, 10, 57, 127
1, 217763, Note_on_c, 12, 59, 127
1, 217763, Note_on_c, 7, 67, 127
1, 217927, Note_off_c, 7, 67, 127
1, 217927, Note_off_c, 12, 59, 127
1, 217927, Note_off_c, 5, 53, 127
1, 217928, Note_on_c, 7, 79, 127
1, 218093, Note_on_c, 4, 52, 127
1, 218257, Note_off_c, 4, 52, 127
1, 218258, Note_on_c, 2, 50, 127
1, 218418, Note_off_c, 7, 79, 127
1, 218422, Note_off_c, 2, 50, 127
1, 218423, Note_on_c, 0, 48, 127
1, 218587, Note_off_c, 0, 48, 127
1, 218588, Note_on_c, 12, 47, 127
1, 218752, Note_off_c, 12, 47, 127
1, 218753, Note_on_c, 10, 45, 127
1, 218753, Note_on_c, 0, 72, 127
1, 218917, Note_off_c, 0, 72, 127
1, 218917, Note_off_c, 10, 45, 127
1, 218918, Note_on_c, 5, 77, 127
1, 219083, Note_on_c, 2, 50, 127
1, 219247, Note_off_c, 2, 50, 127
1, 219248, Note_on_c, 0, 48, 127
1, 219408, Note_off_c, 5, 77, 127
1, 219412, Note_off_c, 0, 48, 127
1, 219413, Note_on_c, 12, 47, 127
1, 219577, Note_off_c, 12, 47, 127
1, 219578, Note_on_c, 10, 45, 127
1, 219742, Note_off_c, 10, 45, 127
1, 219743, Note_on_c, 7, 43, 127
1, 219743, Note_on_c, 12, 71, 127
1, 219907, Note_off_c, 12, 71, 127
1, 219907, Note_off_c, 7, 43, 127
1, 219908, Note_on_c, 4, 76, 127
1, 220073, Note_on_c, 0, 48, 127
1, 220237, Note_off_c, 0, 48, 127
1, 220238, Note_on_c, 12, 47, 127
1, 220398, Note_off_c, 4, 76, 127
1, 220402, Note_off_c, 12, 47, 127
1, 220403, Note_on_c, 10, 45, 127
1, 220567, Note_off_c, 10, 45, 127
1, 220568, Note_on_c, 7, 43, 127
1, 220732, Note_off_c, 7, 43, 127
1, 220733, Note_on_c, 5, 41, 127
1, 220733, Note_on_c, 10, 69, 127
1, 220897, Note_off_c, 10, 69, 127
1, 220897, Note_off_c, 5, 41, 127
1, 220898, Note_on_c, 2, 74, 127
1, 221063, Note_on_c, 12, 47, 127
1, 221227, Note_off_c, 12, 47, 127
1, 221228, Note_on_c, 10, 45, 127
1, 221388, Note_off_c, 2, 74, 127
1, 221392, Note_off_c, 10, 45, 127
1, 221393, Note_on_c, 7, 43, 127
1, 221557, Note_off_c, 7, 43, 127
1, 221558, Note_on_c, 5, 41, 127
1, 221722, Note_off_c, 5, 41, 127
1, 221723, Note_on_c, 4, 40, 127
1, 221723, Note_on_c, 7, 67, 127
1, 221887, Note_off_c, 7, 67, 127
1, 221887, Note_off_c, 4, 40, 127
1, 221888, Note_on_c, 0, 72, 127
1, 222053, Note_on_c, 10, 45, 127
1, 222134, Note_off_c, 10, 45, 127
1, 222135, Note_on_c, 7, 43, 127
1, 222216, Note_off_c, 7, 43, 127
1, 222216, Note_off_c, 0, 72, 127
1, 222217, Note_on_c, 5, 41, 127
1, 222217, Note_on_c, 10, 81, 127
1, 222381, Note_off_c, 10, 81, 127
1, 222381, Note_off_c, 5, 41, 127
1, 222382, Note_on_c, 4, 40, 127
1, 222382, Note_on_c, 7, 79, 127
1, 222546, Note_off_c, 7, 79, 127
1, 222547, Note_on_c, 0, 48, 127
1, 222547, Note_on_c, 10, 81, 127
1, 222627, Note_off_c, 4, 40, 127
1, 222711, Note_off_c, 10, 81, 127
1, 222712, Note_on_c, 5, 41, 127
1, 222712, Note_on_c, 5, 77, 127
1, 222792, Note_off_c, 0, 48, 127
1, 222876, Note_off_c, 5, 77, 127
1, 222876, Note_off_c, 5, 41, 127
1, 222877, Note_on_c, 7, 43, 127
1, 222877, Note_on_c, 4, 76, 127
1, 223042, Note_on_c, 0, 48, 127
1, 223206, Note_off_c, 0, 48, 127
1, 223206, Note_off_c, 4, 76, 127
1, 223207, Note_on_c, 12, 47, 127
1, 223207, Note_on_c, 2, 74, 127
1, 223264, Note_off_c, 7, 43, 127
1, 223371, Note_off_c, 2, 74, 127
1, 223371, Note_off_c, 12, 47, 127
1, 223372, Note_on_c, 0, 48, 127
1, 223372, Note_on_c, 0, 72, 127
1, 223536, Note_off_c, 0, 72, 127
1, 223537, Note_on_c, 4, 52, 127
1, 223537, Note_on_c, 7, 67, 127
1, 223604, Note_off_c, 0, 48, 127
1, 223701, Note_off_c, 7, 67, 127
1, 223701, Note_off_c, 4, 52, 127
1, 223702, Note_on_c, 7, 55, 127
1, 223702, Note_on_c, 4, 64, 127
1, 223866, Note_off_c, 4, 64, 127
1, 223866, Note_off_c, 7, 55, 127
1, 223867, Note_on_c, 0, 60, 127
1, 224032, Note_on_c, 0, 48, 127
1, 224113, Note_off_c, 0, 48, 127
1, 224114, Note_on_c, 11, 46, 127
1, 224195, Note_off_c, 11, 46, 127
1, 224195, Note_off_c, 0, 60, 127
1, 224196, Note_on_c, 10, 45, 127
1, 224196, Note_on_c, 0, 72, 127
1, 224196, Note_on_c, 3, 75, 127
1, 224277, Note_off_c, 10, 45, 127
1, 224278, Note_on_c, 7, 43, 127
1, 224359, Note_off_c, 7, 43, 127
1, 224359, Note_off_c, 3, 75, 127
1, 224359, Note_off_c, 0, 72, 127
1, 224360, Note_on_c, 6, 42, 127
1, 224360, Note_on_c, 0, 72, 127
1, 224360, Note_on_c, 3, 75, 127
1, 224524, Note_off_c, 3, 75, 127
1, 224525, Note_on_c, 5, 77, 127
1, 224689, Note_off_c, 5, 77, 127
1, 224689, Note_off_c, 0, 72, 127
1, 224690, Note_on_c, 0, 72, 127
1, 224690, Note_on_c, 3, 75, 127
1, 224854, Note_off_c, 3, 75, 127
1, 224854, Note_off_c, 0, 72, 127
1, 224855, Note_on_c, 3, 75, 127
1, 224855, Note_on_c, 0, 72, 127
1, 225019, Note_off_c, 3, 75, 127
1, 225020, Note_on_c, 5, 77, 127
1, 225101, Note_off_c, 6, 42, 127
1, 225184, Note_off_c, 5, 77, 127
1, 225184, Note_off_c, 0, 72, 127
1, 225185, Note_on_c, 0, 72, 127
1, 225185, Note_on_c, 3, 75, 127
1, 225349, Note_off_c, 3, 75, 127
1, 225349, Note_off_c, 0, 72, 127
1, 225350, Note_on_c, 7, 43, 127
1, 225350, Note_on_c, 12, 71, 127
1, 225350, Note_on_c, 2, 74, 127
1, 225514, Note_off_c, 7, 43, 127
1, 225515, Note_on_c, 12, 47, 127
1, 225679, Note_off_c, 12, 47, 127
1, 225680, Note_on_c, 2, 50, 127
1, 225840, Note_off_c, 2, 74, 127
1, 225840, Note_off_c, 12, 71, 127
1, 225844, Note_off_c, 2, 50, 127
1, 225845, Note_on_c, 7, 55, 127
1, 226009, Note_off_c, 7, 55, 127
1, 226010, Note_on_c, 12, 47, 127
1, 226091, Note_off_c, 12, 47, 127
1, 226092, Note_on_c, 10, 45, 127
1, 226173, Note_off_c, 10, 45, 127
1, 226174, Note_on_c, 7, 43, 127
1, 226174, Note_on_c, 1, 73, 127
1, 226174, Note_on_c, 11, 70, 127
1, 226255, Note_off_c, 7, 43, 127
1, 226256, Note_on_c, 5, 41, 127
1, 226337, Note_off_c, 5, 41, 127
1, 226337, Note_off_c, 11, 70, 127
1, 226337, Note_off_c, 1, 73, 127
1, 226338, Note_on_c, 4, 40, 127
1, 226338, Note_on_c, 11, 70, 127
1, 226338, Note_on_c, 1, 73, 127
1, 226502, Note_off_c, 1, 73, 127
1, 226503, Note_on_c, 3, 75, 127
1, 226667, Note_off_c, 3, 75, 127
1, 226667, Note_off_c, 11, 70, 127
1, 226668, Note_on_c, 11, 70, 127
1, 226668, Note_on_c, 1, 73, 127
1, 226832, Note_off_c, 1, 73, 127
1, 226832, Note_off_c, 11, 70, 127
1, 226833, Note_on_c, 1, 73, 127
1, 226833, Note_on_c, 11, 70, 127
1, 226997, Note_off_c, 1, 73, 127
1, 226998, Note_on_c, 3, 75, 127
1, 227162, Note_off_c, 3, 75, 127
1, 227162, Note_off_c, 11, 70, 127
1, 227163, Note_on_c, 11, 70, 127
1, 227163, Note_on_c, 1, 73, 127
1, 227215, Note_off_c, 4, 40, 127
1, 227327, Note_off_c, 1, 73, 127
1, 227327, Note_off_c, 11, 70, 127
1, 227328, Note_on_c, 5, 41, 127
1, 227328, Note_on_c, 10, 69, 127
1, 227328, Note_on_c, 0, 72, 127
1, 227492, Note_off_c, 5, 41, 127
1, 227493, Note_on_c, 10, 45, 127
1, 227657, Note_off_c, 10, 45, 127
1, 227658, Note_on_c, 0, 48, 127
1, 227822, Note_off_c, 0, 48, 127
1, 227823, Note_on_c, 5, 53, 127
1, 227895, Note_off_c, 0, 72, 127
1, 227895, Note_off_c, 10, 69, 127
1, 227987, Note_off_c, 5, 53, 127
1, 227988, Note_on_c, 10, 45, 127
1, 228069, Note_off_c, 10, 45, 127
1, 228070, Note_on_c, 7, 43, 127
1, 228151, Note_off_c, 7, 43, 127
1, 228152, Note_on_c, 5, 41, 127
1, 228152, Note_on_c, 0, 72, 127
1, 228233, Note_off_c, 5, 41, 127
1, 228234, Note_on_c, 4, 40, 127
1, 228315, Note_off_c, 4, 40, 127
1, 228315, Note_off_c, 0, 72, 127
1, 228316, Note_on_c, 2, 38, 127
1, 228316, Note_on_c, 0, 72, 127
1, 228316, Note_on_c, 6, 78, 127
1, 228480, Note_off_c, 6, 78, 127
1, 228481, Note_on_c, 7, 79, 127
1, 228626, Note_off_c, 0, 72, 127
1, 228645, Note_off_c, 7, 79, 127
1, 228645, Note_off_c, 2, 38, 127
1, 228646, Note_on_c, 10, 45, 127
1, 228646, Note_on_c, 6, 78, 127
1, 228646, Note_on_c, 0, 72, 127
1, 228810, Note_off_c, 0, 72, 127
1, 228810, Note_off_c, 6, 78, 127
1, 228810, Note_off_c, 10, 45, 127
1, 228811, Note_on_c, 2, 50, 127
1, 228811, Note_on_c, 0, 72, 127
1, 228811, Note_on_c, 6, 78, 127
1, 228975, Note_off_c, 6, 78, 127
1, 228975, Note_off_c, 2, 50, 127
1, 228976, Note_on_c, 4, 52, 127
1, 228976, Note_on_c, 7, 79, 127
1, 229057, Note_off_c, 4, 52, 127
1, 229058, Note_on_c, 2, 50, 127
1, 229120, Note_off_c, 0, 72, 127
1, 229139, Note_off_c, 2, 50, 127
1, 229139, Note_off_c, 7, 79, 127
1, 229140, Note_on_c, 0, 48, 127
1, 229140, Note_on_c, 0, 72, 127
1, 229140, Note_on_c, 10, 81, 127
1, 229221, Note_off_c, 0, 48, 127
1, 229222, Note_on_c, 12, 47, 127
1, 229303, Note_off_c, 12, 47, 127
1, 229303, Note_off_c, 10, 81, 127
1, 229303, Note_off_c, 0, 72, 127
1, 229304, Note_on_c, 10, 45, 127
1, 229304, Note_on_c, 6, 78, 127
1, 229468, Note_off_c, 6, 78, 127
1, 229468, Note_off_c, 10, 45, 127
1, 229469, Note_on_c, 12, 47, 127
1, 229469, Note_on_c, 4, 76, 127
1, 229633, Note_off_c, 4, 76, 127
1, 229633, Note_off_c, 12, 47, 127
1, 229634, Note_on_c, 0, 48, 127
1, 229634, Note_on_c, 2, 74, 127
1, 229798, Note_off_c, 2, 74, 127
1, 229798, Note_off_c, 0, 48, 127
1, 229799, Note_on_c, 12, 47, 127
1, 229799, Note_on_c, 7, 79, 127
1, 229963, Note_off_c, 7, 79, 127
1, 229963, Note_off_c, 12, 47, 127
1, 229964, Note_on_c, 0, 48, 127
1, 229964, Note_on_c, 6, 78, 127
1, 230128, Note_off_c, 6, 78, 127
1, 230128, Note_off_c, 0, 48, 127
1, 230129, Note_on_c, 2, 50, 127
1, 230129, Note_on_c, 4, 76, 127
1, 230293, Note_off_c, 4, 76, 127
1, 230293, Note_off_c, 2, 50, 127
1, 230294, Note_on_c, 4, 52, 127
1, 230294, Note_on_c, 2, 74, 127
1, 230458, Note_off_c, 2, 74, 127
1, 230458, Note_off_c, 4, 52, 127
1, 230459, Note_on_c, 6, 54, 127
1, 230459, Note_on_c, 0, 72, 127
1, 230623, Note_off_c, 0, 72, 127
1, 230623, Note_off_c, 6, 54, 127
1, 230624, Note_on_c, 7, 55, 127
1, 230624, Note_on_c, 12, 71, 127
1, 230788, Note_off_c, 12, 71, 127
1, 230788, Note_off_c, 7, 55, 127
1, 230789, Note_on_c, 2, 50, 127
1, 230789, Note_on_c, 12, 71, 127
1, 230850, Note_off_c, 12, 71, 127
1, 230851, Note_on_c, 10, 69, 127
1, 230912, Note_off_c, 10, 69, 127
1, 230913, Note_on_c, 12, 71, 127
1, 230953, Note_off_c, 2, 50, 127
1, 230954, Note_on_c, 7, 55, 127
1, 230973, Note_off_c, 12, 71, 127
1, 230974, Note_on_c, 10, 69, 127
1, 231117, Note_off_c, 7, 55, 127
1, 231118, Note_on_c, 6, 54, 127
1, 231118, Note_on_c, 7, 67, 127
1, 231119, Note_off_c, 10, 69, 127
1, 231282, Note_off_c, 7, 67, 127
1, 231282, Note_off_c, 6, 54, 127
1, 231283, Note_on_c, 7, 55, 127
1, 231283, Note_on_c, 7, 67, 127
1, 231447, Note_off_c, 7, 67, 127
1, 231448, Note_on_c, 2, 62, 127
1, 231612, Note_off_c, 2, 62, 127
1, 231613, Note_on_c, 12, 59, 127
1, 231777, Note_off_c, 12, 59, 127
1, 231777, Note_off_c, 7, 55, 127
1, 231778, Note_on_c, 7, 55, 127
1, 231942, Note_off_c, 7, 55, 127
1, 231943, Note_on_c, 2, 50, 127
1, 232107, Note_off_c, 2, 50, 127
1, 232108, Note_on_c, 7, 43, 127
1, 232272, Note_off_c, 7, 43, 127
1, 232273, Note_on_c, 7, 55, 127
1, 232273, Note_on_c, 2, 74, 127
1, 232438, Note_on_c, 12, 59, 127
1, 232602, Note_off_c, 12, 59, 127
1, 232602, Note_off_c, 2, 74, 127
1, 232603, Note_on_c, 2, 62, 127
1, 232603, Note_on_c, 2, 74, 127
1, 232750, Note_off_c, 7, 55, 127
1, 232767, Note_off_c, 2, 74, 127
1, 232767, Note_off_c, 2, 62, 127
1, 232768, Note_on_c, 6, 54, 127
1, 232768, Note_on_c, 2, 74, 127
1, 232933, Note_on_c, 10, 57, 127
1, 233097, Note_off_c, 10, 57, 127
1, 233097, Note_off_c, 2, 74, 127
1, 233098, Note_on_c, 2, 62, 127
1, 233098, Note_on_c, 2, 74, 127
1, 233245, Note_off_c, 6, 54, 127
1, 233262, Note_off_c, 2, 74, 127
1, 233262, Note_off_c, 2, 62, 127
1, 233263, Note_on_c, 4, 52, 127
1, 233263, Note_on_c, 2, 74, 127
1, 233428, Note_on_c, 7, 55, 127
1, 233592, Note_off_c, 7, 55, 127
1, 233592, Note_off_c, 2, 74, 127
1, 233593, Note_on_c, 12, 59, 127
1, 233593, Note_on_c, 2, 62, 127
1, 233740, Note_off_c, 4, 52, 127
1, 233757, Note_off_c, 2, 62, 127
1, 233757, Note_off_c, 12, 59, 127
1, 233758, Note_on_c, 12, 47, 127
1, 233758, Note_on_c, 2, 74, 127
1, 233923, Note_on_c, 2, 50, 127
1, 234087, Note_off_c, 2, 50, 127
1, 234087, Note_off_c, 2, 74, 127
1, 234088, Note_on_c, 7, 55, 127
1, 234088, Note_on_c, 2, 62, 127
1, 234235, Note_off_c, 12, 47, 127
1, 234252, Note_off_c, 2, 62, 127
1, 234252, Note_off_c, 7, 55, 127
1, 234253, Note_on_c, 0, 48, 127
1, 234253, Note_on_c, 2, 74, 127
1, 234417, Note_off_c, 2, 74, 127
1, 234418, Note_on_c, 4, 52, 127
1, 234418, Note_on_c, 0, 72, 127
1, 234582, Note_off_c, 0, 72, 127
1, 234582, Note_off_c, 4, 52, 127
1, 234583, Note_on_c, 7, 55, 127
1, 234583, Note_on_c, 12, 71, 127
1, 234730, Note_off_c, 0, 48, 127
1, 234747, Note_off_c, 12, 71, 127
1, 234747, Note_off_c, 7, 55, 127
1, 234748, Note_on_c, 2, 50, 127
1, 234748, Note_on_c, 0, 72, 127
1, 234912, Note_off_c, 0, 72, 127
1, 234913, Note_on_c, 7, 55, 127
1, 234913, Note_on_c, 2, 74, 127
1, 235077, Note_off_c, 2, 74, 127
1, 235077, Note_off_c, 7, 55, 127
1, 235078, Note_on_c, 6, 54, 127
1, 235078, Note_on_c, 0, 72, 127
1, 235225, Note_off_c, 2, 50, 127
1, 235242, Note_off_c, 0, 72, 127
1, 235242, Note_off_c, 6, 54, 127
1, 235243, Note_on_c, 7, 55, 127
1, 235243, Note_on_c, 12, 71, 127
1, 235407, Note_off_c, 12, 71, 127
1, 235407, Note_off_c, 7, 55, 127
1, 235408, Note_on_c, 10, 57, 127
1, 235408, Note_on_c, 10, 69, 127
1, 235572, Note_off_c, 10, 69, 127
1, 235572, Note_off_c, 10, 57, 127
1, 235573, Note_on_c, 12, 59, 127
1, 235573, Note_on_c, 7, 67, 127
1, 235737, Note_off_c, 7, 67, 127
1, 235737, Note_off_c, 12, 59, 127
1, 235738, Note_on_c, 0, 60, 127
1, 235902, Note_off_c, 0, 60, 127
1, 235903, Note_on_c, 2, 62, 127
1, 235903, Note_on_c, 4, 76, 127
1, 236067, Note_off_c, 4, 76, 127
1, 236067, Note_off_c, 2, 62, 127
1, 236068, Note_on_c, 4, 64, 127
1, 236068, Note_on_c, 2, 74, 127
1, 236232, Note_off_c, 2, 74, 127
1, 236232, Note_off_c, 4, 64, 127
1, 236233, Note_on_c, 10, 57, 127
1, 236233, Note_on_c, 0, 72, 127
1, 236397, Note_off_c, 0, 72, 127
1, 236398, Note_on_c, 0, 60, 127
1, 236398, Note_on_c, 12, 71, 127
1, 236562, Note_off_c, 12, 71, 127
1, 236562, Note_off_c, 0, 60, 127
1, 236562, Note_off_c, 10, 57, 127
1, 236563, Note_on_c, 5, 65, 127
1, 236563, Note_on_c, 10, 69, 127
1, 236727, Note_off_c, 10, 69, 127
1, 236727, Note_off_c, 5, 65, 127
1, 236728, Note_on_c, 8, 56, 127
1, 236728, Note_on_c, 5, 77, 127
1, 236892, Note_off_c, 5, 77, 127
1, 236892, Note_off_c, 8, 56, 127
1, 236893, Note_on_c, 12, 59, 127
1, 236893, Note_on_c, 4, 76, 127
1, 237057, Note_off_c, 4, 76, 127
1, 237057, Note_off_c, 12, 59, 127
1, 237058, Note_on_c, 4, 64, 127
1, 237058, Note_on_c, 2, 74, 127
1, 237222, Note_off_c, 2, 74, 127
1, 237223, Note_on_c, 10, 57, 127
1, 237223, Note_on_c, 0, 72, 127
1, 237387, Note_off_c, 0, 72, 127
1, 237387, Note_off_c, 4, 64, 127
1, 237388, Note_on_c, 0, 60, 127
1, 237388, Note_on_c, 12, 71, 127
1, 237552, Note_off_c, 12, 71, 127
1, 237552, Note_off_c, 0, 60, 127
1, 237552, Note_off_c, 10, 57, 127
1, 237553, Note_on_c, 5, 65, 127
1, 237553, Note_on_c, 10, 69, 127
1, 237717, Note_off_c, 10, 69, 127
1, 237717, Note_off_c, 5, 65, 127
1, 237718, Note_on_c, 8, 56, 127
1, 237718, Note_on_c, 5, 77, 127
1, 237882, Note_off_c, 5, 77, 127
1, 237882, Note_off_c, 8, 56, 127
1, 237883, Note_on_c, 12, 59, 127
1, 237883, Note_on_c, 4, 76, 127
1, 238047, Note_off_c, 4, 76, 127
1, 238047, Note_off_c, 12, 59, 127
1, 238048, Note_on_c, 4, 64, 127
1, 238048, Note_on_c, 2, 74, 127
1, 238212, Note_off_c, 2, 74, 127
1, 238212, Note_off_c, 4, 64, 127
1, 238213, Note_on_c, 10, 57, 127
1, 238213, Note_on_c, 0, 72, 127
1, 238294, Note_off_c, 10, 57, 127
1, 238295, Note_on_c, 12, 59, 127
1, 238376, Note_off_c, 12, 59, 127
1, 238376, Note_off_c, 0, 72, 127
1, 238377, Note_on_c, 0, 60, 127
1, 238377, Note_on_c, 12, 71, 127
1, 238458, Note_off_c, 0, 60, 127
1, 238459, Note_on_c, 2, 62, 127
1, 238540, Note_off_c, 2, 62, 127
1, 238540, Note_off_c, 12, 71, 127
1, 238541, Note_on_c, 4, 64, 127
1, 238541, Note_on_c, 10, 69, 127
1, 238622, Note_off_c, 4, 64, 127
1, 238623, Note_on_c, 5, 65, 127
1, 238704, Note_off_c, 5, 65, 127
1, 238704, Note_off_c, 10, 69, 127
1, 238705, Note_on_c, 8, 56, 127
1, 238705, Note_on_c, 2, 74, 127
1, 238869, Note_off_c, 2, 74, 127
1, 238869, Note_off_c, 8, 56, 127
1, 238870, Note_on_c, 12, 59, 127
1, 238870, Note_on_c, 4, 76, 127
1, 238951, Note_off_c, 4, 76, 127
1, 238952, Note_on_c, 2, 74, 127
1, 239033, Note_off_c, 2, 74, 127
1, 239033, Note_off_c, 12, 59, 127
1, 239034, Note_on_c, 4, 64, 127
1, 239034, Note_on_c, 0, 72, 127
1, 239115, Note_off_c, 0, 72, 127
1, 239116, Note_on_c, 12, 71, 127
1, 239197, Note_off_c, 12, 71, 127
1, 239197, Note_off_c, 4, 64, 127
1, 239198, Note_on_c, 10, 57, 127
1, 239198, Note_on_c, 0, 72, 127
1, 239362, Note_off_c, 0, 72, 127
1, 239362, Note_off_c, 10, 57, 127
1, 239363, Note_on_c, 12, 59, 127
1, 239363, Note_on_c, 2, 74, 127
1, 239444, Note_off_c, 2, 74, 127
1, 239445, Note_on_c, 0, 72, 127
1, 239526, Note_off_c, 0, 72, 127
1, 239526, Note_off_c, 12, 59, 127
1, 239527, Note_on_c, 0, 60, 127
1, 239527, Note_on_c, 12, 71, 127
1, 239608, Note_off_c, 12, 71, 127
1, 239609, Note_on_c, 10, 69, 127
1, 239690, Note_off_c, 10, 69, 127
1, 239690, Note_off_c, 0, 60, 127
1, 239691, Note_on_c, 2, 62, 127
1, 239691, Note_on_c, 11, 70, 127
1, 239855, Note_off_c, 11, 70, 127
1, 239855, Note_off_c, 2, 62, 127
1, 239856, Note_on_c, 0, 60, 127
1, 239856, Note_on_c, 0, 72, 127
1, 240020, Note_off_c, 0, 72, 127
1, 240020, Note_off_c, 0, 60, 127
1, 240021, Note_on_c, 2, 62, 127
1, 240021, Note_on_c, 11, 70, 127
1, 240185, Note_off_c, 11, 70, 127
1, 240185, Note_off_c, 2, 62, 127
1, 240186, Note_on_c, 2, 50, 127
1, 240186, Note_on_c, 11, 70, 127
1, 240350, Note_off_c, 11, 70, 127
1, 240350, Note_off_c, 2, 50, 127
1, 240351, Note_on_c, 5, 53, 127
1, 240351, Note_on_c, 0, 72, 127
1, 240515, Note_off_c, 0, 72, 127
1, 240515, Note_off_c, 5, 53, 127
1, 240516, Note_on_c, 2, 62, 127
1, 240516, Note_on_c, 11, 70, 127
1, 240680, Note_off_c, 11, 70, 127
1, 240680, Note_off_c, 2, 62, 127
1, 240681, Note_on_c, 2, 62, 127
1, 240681, Note_on_c, 11, 70, 127
1, 240845, Note_off_c, 11, 70, 127
1, 240845, Note_off_c, 2, 62, 127
1, 240846, Note_on_c, 0, 60, 127
1, 240846, Note_on_c, 0, 72, 127
1, 241010, Note_off_c, 0, 72, 127
1, 241010, Note_off_c, 0, 60, 127
1, 241011, Note_on_c, 2, 62, 127
1, 241011, Note_on_c, 11, 70, 127
1, 241175, Note_off_c, 11, 70, 127
1, 241175, Note_off_c, 2, 62, 127
1, 241176, Note_on_c, 4, 52, 127
1, 241176, Note_on_c, 11, 70, 127
1, 241340, Note_off_c, 11, 70, 127
1, 241340, Note_off_c, 4, 52, 127
1, 241341, Note_on_c, 7, 55, 127
1, 241341, Note_on_c, 0, 72, 127
1, 241505, Note_off_c, 0, 72, 127
1, 241505, Note_off_c, 7, 55, 127
1, 241506, Note_on_c, 0, 60, 127
1, 241506, Note_on_c, 11, 70, 127
1, 241670, Note_off_c, 11, 70, 127
1, 241670, Note_off_c, 0, 60, 127
1, 241671, Note_on_c, 0, 60, 127
1, 241671, Note_on_c, 11, 70, 127
1, 241835, Note_off_c, 11, 70, 127
1, 241835, Note_off_c, 0, 60, 127
1, 241836, Note_on_c, 11, 58, 127
1, 241836, Note_on_c, 10, 69, 127
1, 242000, Note_off_c, 10, 69, 127
1, 242000, Note_off_c, 11, 58, 127
1, 242001, Note_on_c, 0, 60, 127
1, 242001, Note_on_c, 7, 67, 127
1, 242165, Note_off_c, 7, 67, 127
1, 242165, Note_off_c, 0, 60, 127
1, 242166, Note_on_c, 5, 53, 127
1, 242166, Note_on_c, 10, 69, 127
1, 242330, Note_off_c, 10, 69, 127
1, 242330, Note_off_c, 5, 53, 127
1, 242331, Note_on_c, 10, 57, 127
1, 242331, Note_on_c, 7, 67, 127
1, 242495, Note_off_c, 7, 67, 127
1, 242495, Note_off_c, 10, 57, 127
1, 242496, Note_on_c, 11, 58, 127
1, 242496, Note_on_c, 5, 65, 127
1, 242660, Note_off_c, 5, 65, 127
1, 242660, Note_off_c, 11, 58, 127
1, 242661, Note_on_c, 0, 60, 127
1, 242825, Note_off_c, 0, 60, 127
1, 242826, Note_on_c, 11, 58, 127
1, 242826, Note_on_c, 7, 67, 127
1, 242907, Note_off_c, 7, 67, 127
1, 242908, Note_on_c, 5, 65, 127
1, 242989, Note_off_c, 5, 65, 127
1, 242989, Note_off_c, 11, 58, 127
1, 242990, Note_on_c, 0, 60, 127
1, 242990, Note_on_c, 4, 64, 127
1, 243154, Note_off_c, 4, 64, 127
1, 243154, Note_off_c, 0, 60, 127
1, 243155, Note_on_c, 5, 53, 127
1, 243155, Note_on_c, 5, 65, 127
1, 243319, Note_off_c, 5, 53, 127
1, 243320, Note_on_c, 10, 57, 127
1, 243484, Note_off_c, 10, 57, 127
1, 243485, Note_on_c, 7, 55, 127
1, 243649, Note_off_c, 7, 55, 127
1, 243650, Note_on_c, 5, 53, 127
1, 243814, Note_off_c, 5, 53, 127
1, 243815, Note_on_c, 4, 52, 127
1, 243896, Note_off_c, 5, 65, 127
1, 243979, Note_off_c, 4, 52, 127
1, 243980, Note_on_c, 2, 50, 127
1, 244144, Note_off_c, 2, 50, 127
1, 244145, Note_on_c, 1, 49, 127
1, 244145, Note_on_c, 10, 81, 127
1, 244309, Note_off_c, 1, 49, 127
1, 244310, Note_on_c, 4, 52, 127
1, 244474, Note_off_c, 4, 52, 127
1, 244474, Note_off_c, 10, 81, 127
1, 244475, Note_on_c, 10, 57, 127
1, 244475, Note_on_c, 10, 81, 127
1, 244639, Note_off_c, 10, 81, 127
1, 244639, Note_off_c, 10, 57, 127
1, 244640, Note_on_c, 1, 61, 127
1, 244640, Note_on_c, 10, 81, 127
1, 244804, Note_off_c, 1, 61, 127
1, 244805, Note_on_c, 4, 64, 127
1, 244969, Note_off_c, 4, 64, 127
1, 244969, Note_off_c, 10, 81, 127
1, 244970, Note_on_c, 10, 69, 127
1, 244970, Note_on_c, 10, 81, 127
1, 245134, Note_off_c, 10, 81, 127
1, 245134, Note_off_c, 10, 69, 127
1, 245135, Note_on_c, 4, 64, 127
1, 245135, Note_on_c, 10, 81, 127
1, 245299, Note_off_c, 4, 64, 127
1, 245300, Note_on_c, 1, 61, 127
1, 245464, Note_off_c, 1, 61, 127
1, 245465, Note_on_c, 10, 57, 127
1, 245465, Note_on_c, 10, 69, 127
1, 245625, Note_off_c, 10, 81, 127
1, 245629, Note_off_c, 10, 69, 127
1, 245629, Note_off_c, 10, 57, 127
1, 245630, Note_on_c, 4, 52, 127
1, 245630, Note_on_c, 10, 81, 127
1, 245794, Note_off_c, 4, 52, 127
1, 245795, Note_on_c, 1, 49, 127
1, 245959, Note_off_c, 1, 49, 127
1, 245960, Note_on_c, 10, 45, 127
1, 245960, Note_on_c, 10, 69, 127
1, 246120, Note_off_c, 10, 81, 127
1, 246124, Note_off_c, 10, 69, 127
1, 246124, Note_off_c, 10, 45, 127
1, 246125, Note_on_c, 12, 47, 127
1, 246125, Note_on_c, 10, 81, 127
1, 246289, Note_off_c, 10, 81, 127
1, 246289, Note_off_c, 12, 47, 127
1, 246290, Note_on_c, 2, 50, 127
1, 246290, Note_on_c, 7, 79, 127
1, 246454, Note_off_c, 7, 79, 127
1, 246454, Note_off_c, 2, 50, 127
1, 246455, Note_on_c, 7, 55, 127
1, 246455, Note_on_c, 5, 77, 127
1, 246619, Note_off_c, 5, 77, 127
1, 246619, Note_off_c, 7, 55, 127
1, 246620, Note_on_c, 1, 49, 127
1, 246620, Note_on_c, 7, 79, 127
1, 246784, Note_off_c, 7, 79, 127
1, 246784, Note_off_c, 1, 49, 127
1, 246785, Note_on_c, 4, 52, 127
1, 246785, Note_on_c, 10, 81, 127
1, 246949, Note_off_c, 10, 81, 127
1, 246949, Note_off_c, 4, 52, 127
1, 246950, Note_on_c, 10, 57, 127
1, 246950, Note_on_c, 7, 79, 127
1, 247114, Note_off_c, 7, 79, 127
1, 247114, Note_off_c, 10, 57, 127
1, 247115, Note_on_c, 2, 50, 127
1, 247115, Note_on_c, 5, 77, 127
1, 247279, Note_off_c, 5, 77, 127
1, 247279, Note_off_c, 2, 50, 127
1, 247280, Note_on_c, 5, 53, 127
1, 247280, Note_on_c, 4, 76, 127
1, 247444, Note_off_c, 4, 76, 127
1, 247444, Note_off_c, 5, 53, 127
1, 247445, Note_on_c, 10, 57, 127
1, 247445, Note_on_c, 2, 74, 127
1, 247609, Note_off_c, 2, 74, 127
1, 247609, Note_off_c, 10, 57, 127
1, 247610, Note_on_c, 2, 62, 127
1, 247774, Note_off_c, 2, 62, 127
1, 247775, Note_on_c, 4, 64, 127
1, 247939, Note_off_c, 4, 64, 127
1, 247940, Note_on_c, 5, 65, 127
1, 248104, Note_off_c, 5, 65, 127
1, 248105, Note_on_c, 12, 59, 127
1, 248105, Note_on_c, 7, 79, 127
1, 248269, Note_off_c, 12, 59, 127
1, 248270, Note_on_c, 0, 60, 127
1, 248434, Note_off_c, 0, 60, 127
1, 248434, Note_off_c, 7, 79, 127
1, 248435, Note_on_c, 2, 62, 127
1, 248435, Note_on_c, 7, 79, 127
1, 248599, Note_off_c, 7, 79, 127
1, 248599, Note_off_c, 2, 62, 127
1, 248600, Note_on_c, 7, 55, 127
1, 248600, Note_on_c, 7, 79, 127
1, 248764, Note_off_c, 7, 55, 127
1, 248765, Note_on_c, 10, 57, 127
1, 248929, Note_off_c, 10, 57, 127
1, 248929, Note_off_c, 7, 79, 127
1, 248930, Note_on_c, 12, 59, 127
1, 248930, Note_on_c, 7, 79, 127
1, 249094, Note_off_c, 7, 79, 127
1, 249094, Note_off_c, 12, 59, 127
1, 249095, Note_on_c, 4, 52, 127
1, 249095, Note_on_c, 7, 79, 127
1, 249259, Note_off_c, 7, 79, 127
1, 249259, Note_off_c, 4, 52, 127
1, 249260, Note_on_c, 5, 53, 127
1, 249260, Note_on_c, 0, 72, 127
1, 249424, Note_off_c, 0, 72, 127
1, 249424, Note_off_c, 5, 53, 127
1, 249425, Note_on_c, 7, 55, 127
1, 249425, Note_on_c, 12, 71, 127
1, 249589, Note_off_c, 12, 71, 127
1, 249589, Note_off_c, 7, 55, 127
1, 249590, Note_on_c, 0, 48, 127
1, 249590, Note_on_c, 0, 72, 127
1, 249673, Note_on_c, 4, 52, 127
1, 249754, Note_off_c, 4, 52, 127
1, 249754, Note_off_c, 0, 72, 127
1, 249754, Note_off_c, 0, 48, 127
1, 249755, Note_on_c, 7, 55, 127
1, 249755, Note_on_c, 4, 76, 127
1, 249919, Note_off_c, 4, 76, 127
1, 249919, Note_off_c, 7, 55, 127
1, 249920, Note_on_c, 0, 48, 127
1, 249920, Note_on_c, 5, 77, 127
1, 250084, Note_off_c, 5, 77, 127
1, 250084, Note_off_c, 0, 48, 127
1, 250085, Note_on_c, 12, 47, 127
1, 250085, Note_on_c, 7, 79, 127
1, 250249, Note_off_c, 7, 79, 127
1, 250249, Note_off_c, 12, 47, 127
1, 250250, Note_on_c, 2, 50, 127
1, 250250, Note_on_c, 5, 77, 127
1, 250414, Note_off_c, 5, 77, 127
1, 250414, Note_off_c, 2, 50, 127
1, 250415, Note_on_c, 7, 55, 127
1, 250415, Note_on_c, 4, 76, 127
1, 250579, Note_off_c, 4, 76, 127
1, 250579, Note_off_c, 7, 55, 127
1, 250580, Note_on_c, 7, 43, 127
1, 250580, Note_on_c, 5, 77, 127
1, 250744, Note_off_c, 5, 77, 127
1, 250744, Note_off_c, 7, 43, 127
1, 250745, Note_on_c, 12, 47, 127
1, 250745, Note_on_c, 7, 79, 127
1, 250909, Note_off_c, 7, 79, 127
1, 250909, Note_off_c, 12, 47, 127
1, 250910, Note_on_c, 2, 50, 127
1, 250910, Note_on_c, 5, 77, 127
1, 251074, Note_off_c, 5, 77, 127
1, 251074, Note_off_c, 2, 50, 127
1, 251075, Note_on_c, 0, 48, 127
1, 251075, Note_on_c, 4, 76, 127
1, 251239, Note_off_c, 4, 76, 127
1, 251239, Note_off_c, 0, 48, 127
1, 251240, Note_on_c, 7, 43, 127
1, 251240, Note_on_c, 2, 74, 127
1, 251404, Note_off_c, 2, 74, 127
1, 251404, Note_off_c, 7, 43, 127
1, 251405, Note_on_c, 4, 40, 127
1, 251405, Note_on_c, 0, 72, 127
1, 251569, Note_off_c, 0, 72, 127
1, 251569, Note_off_c, 4, 40, 127
1, 251570, Note_on_c, 0, 36, 127
1, 251735, Note_on_c, 7, 79, 127
1, 251899, Note_off_c, 7, 79, 127
1, 251900, Note_on_c, 5, 77, 127
1, 252008, Note_off_c, 0, 36, 127
1, 252063, Note_off_c, 5, 77, 127
1, 252064, Note_on_c, 4, 76, 127
1, 252228, Note_off_c, 4, 76, 127
1, 252229, Note_on_c, 2, 74, 127
1, 252393, Note_off_c, 2, 74, 127
1, 252394, Note_on_c, 0, 72, 127
1, 252558, Note_off_c, 0, 72, 127
1, 252559, Note_on_c, 11, 70, 127
1, 252724, Note_on_c, 7, 55, 127
1, 252888, Note_off_c, 7, 55, 127
1, 252888, Note_off_c, 11, 70, 127
1, 252889, Note_on_c, 5, 53, 127
1, 252889, Note_on_c, 11, 70, 127
1, 253053, Note_off_c, 11, 70, 127
1, 253053, Note_off_c, 5, 53, 127
1, 253054, Note_on_c, 4, 52, 127
1, 253054, Note_on_c, 0, 72, 127
1, 253115, Note_off_c, 0, 72, 127
1, 253116, Note_on_c, 11, 70, 127
1, 253177, Note_off_c, 11, 70, 127
1, 253178, Note_on_c, 0, 72, 127
1, 253218, Note_off_c, 4, 52, 127
1, 253219, Note_on_c, 2, 50, 127
1, 253238, Note_off_c, 0, 72, 127
1, 253239, Note_on_c, 11, 70, 127
1, 253382, Note_off_c, 2, 50, 127
1, 253383, Note_on_c, 0, 48, 127
1, 253383, Note_on_c, 0, 60, 127
1, 253547, Note_off_c, 0, 60, 127
1, 253547, Note_off_c, 0, 48, 127
1, 253548, Note_on_c, 5, 53, 127
1, 253548, Note_on_c, 10, 69, 127
1, 253554, Note_off_c, 11, 70, 127
1, 253711, Note_off_c, 10, 69, 127
1, 253712, Note_on_c, 10, 81, 127
1, 253876, Note_off_c, 10, 81, 127
1, 253876, Note_off_c, 5, 53, 127
1, 253877, Note_on_c, 7, 79, 127
1, 254041, Note_off_c, 7, 79, 127
1, 254042, Note_on_c, 6, 78, 127
1, 254206, Note_off_c, 6, 78, 127
1, 254207, Note_on_c, 4, 76, 127
1, 254371, Note_off_c, 4, 76, 127
1, 254372, Note_on_c, 2, 74, 127
1, 254536, Note_off_c, 2, 74, 127
1, 254537, Note_on_c, 0, 72, 127
1, 254702, Note_on_c, 10, 57, 127
1, 254866, Note_off_c, 10, 57, 127
1, 254866, Note_off_c, 0, 72, 127
1, 254867, Note_on_c, 7, 55, 127
1, 254867, Note_on_c, 0, 72, 127
1, 255031, Note_off_c, 0, 72, 127
1, 255031, Note_off_c, 7, 55, 127
1, 255032, Note_on_c, 6, 54, 127
1, 255032, Note_on_c, 2, 74, 127
1, 255093, Note_off_c, 2, 74, 127
1, 255094, Note_on_c, 0, 72, 127
1, 255155, Note_off_c, 0, 72, 127
1, 255156, Note_on_c, 2, 74, 127
1, 255196, Note_off_c, 6, 54, 127
1, 255197, Note_on_c, 4, 52, 127
1, 255216, Note_off_c, 2, 74, 127
1, 255217, Note_on_c, 0, 72, 127
1, 255360, Note_off_c, 4, 52, 127
1, 255361, Note_on_c, 2, 50, 127
1, 255361, Note_on_c, 2, 62, 127
1, 255525, Note_off_c, 2, 62, 127
1, 255525, Note_off_c, 2, 50, 127
1, 255526, Note_on_c, 7, 55, 127
1, 255526, Note_on_c, 12, 71, 127
1, 255532, Note_off_c, 0, 72, 127
1, 255689, Note_off_c, 12, 71, 127
1, 255689, Note_off_c, 7, 55, 127
1, 255690, Note_on_c, 10, 57, 127
1, 255690, Note_on_c, 12, 83, 127
1, 255854, Note_off_c, 12, 83, 127
1, 255854, Note_off_c, 10, 57, 127
1, 255855, Note_on_c, 12, 59, 127
1, 255855, Note_on_c, 10, 81, 127
1, 256019, Note_off_c, 10, 81, 127
1, 256019, Note_off_c, 12, 59, 127
1, 256020, Note_on_c, 4, 52, 127
1, 256020, Note_on_c, 7, 79, 127
1, 256184, Note_off_c, 7, 79, 127
1, 256184, Note_off_c, 4, 52, 127
1, 256185, Note_on_c, 5, 53, 127
1, 256185, Note_on_c, 5, 77, 127
1, 256349, Note_off_c, 5, 77, 127
1, 256349, Note_off_c, 5, 53, 127
1, 256350, Note_on_c, 7, 55, 127
1, 256350, Note_on_c, 4, 76, 127
1, 256514, Note_off_c, 4, 76, 127
1, 256514, Note_off_c, 7, 55, 127
1, 256515, Note_on_c, 0, 48, 127
1, 256515, Note_on_c, 4, 76, 127
1, 256679, Note_off_c, 4, 76, 127
1, 256679, Note_off_c, 0, 48, 127
1, 256680, Note_on_c, 2, 50, 127
1, 256680, Note_on_c, 2, 74, 127
1, 256844, Note_off_c, 2, 74, 127
1, 256844, Note_off_c, 2, 50, 127
1, 256851, Note_on_c, 4, 52, 127
1, 256851, Note_on_c, 0, 72, 127
1, 257015, Note_off_c, 0, 72, 127
1, 257015, Note_off_c, 4, 52, 127
1, 257026, Note_on_c, 0, 84, 127
1, 257026, Note_on_c, 10, 45, 127
1, 257026, Note_on_c, 0, 48, 127
1, 257190, Note_off_c, 0, 84, 127
1, 257191, Note_on_c, 7, 79, 127
1, 257355, Note_off_c, 7, 79, 127
1, 257355, Note_off_c, 0, 48, 127
1, 257355, Note_off_c, 10, 45, 127
1, 257356, Note_on_c, 5, 77, 127
1, 257356, Note_on_c, 12, 47, 127
1, 257356, Note_on_c, 2, 50, 127
1, 257520, Note_off_c, 2, 50, 127
1, 257520, Note_off_c, 12, 47, 127
1, 257520, Note_off_c, 5, 77, 127
1, 257521, Note_on_c, 4, 76, 127
1, 257521, Note_on_c, 4, 52, 127
1, 257521, Note_on_c, 0, 48, 127
1, 257685, Note_off_c, 4, 76, 127
1, 257686, Note_on_c, 2, 74, 127
1, 257850, Note_off_c, 2, 74, 127
1, 257850, Note_off_c, 0, 48, 127
1, 257850, Note_off_c, 4, 52, 127
1, 257851, Note_on_c, 0, 72, 127
1, 257851, Note_on_c, 2, 50, 127
1, 257851, Note_on_c, 5, 53, 127
1, 258015, Note_off_c, 5, 53, 127
1, 258015, Note_off_c, 2, 50, 127
1, 258015, Note_off_c, 0, 72, 127
1, 258024, Note_on_c, 0, 84, 127
1, 258024, Note_on_c, 7, 55, 127
1, 258024, Note_on_c, 4, 52, 127
1, 258189, Note_on_c, 7, 79, 127
1, 258353, Note_off_c, 7, 79, 127
1, 258353, Note_off_c, 4, 52, 127
1, 258353, Note_off_c, 7, 55, 127
1, 258354, Note_on_c, 5, 77, 127
1, 258354, Note_on_c, 10, 57, 127
1, 258354, Note_on_c, 5, 53, 127
1, 258518, Note_off_c, 5, 53, 127
1, 258518, Note_off_c, 10, 57, 127
1, 258518, Note_off_c, 5, 77, 127
1, 258519, Note_on_c, 4, 76, 127
1, 258519, Note_on_c, 7, 55, 127
1, 258519, Note_on_c, 12, 59, 127
1, 258683, Note_off_c, 4, 76, 127
1, 258684, Note_on_c, 2, 74, 127
1, 258848, Note_off_c, 2, 74, 127
1, 258848, Note_off_c, 12, 59, 127
1, 258848, Note_off_c, 7, 55, 127
1, 258849, Note_on_c, 0, 72, 127
1, 258849, Note_on_c, 0, 60, 127
1, 258849, Note_on_c, 10, 57, 127
1, 259013, Note_off_c, 10, 57, 127
1, 259013, Note_off_c, 0, 60, 127
1, 259013, Note_off_c, 0, 72, 127
1, 259013, Note_off_c, 0, 84, 127
1, 259030, Note_on_c, 0, 60, 127
1, 259030, Note_on_c, 4, 52, 127
1, 259030, Note_on_c, 7, 55, 127
1, 259030, Note_on_c, 4, 76, 127
1, 259194, Note_off_c, 4, 76, 127
1, 259195, Note_on_c, 5, 77, 127
1, 259359, Note_off_c, 5, 77, 127
1, 259360, Note_on_c, 7, 79, 127
1, 259524, Note_off_c, 7, 79, 127
1, 259525, Note_on_c, 4, 76, 127
1, 259689, Note_off_c, 4, 76, 127
1, 259689, Note_off_c, 7, 55, 127
1, 259689, Note_off_c, 4, 52, 127
1, 259689, Note_off_c, 0, 60, 127
1, 259690, Note_on_c, 5, 77, 127
1, 259854, Note_off_c, 5, 77, 127
1, 259855, Note_on_c, 7, 79, 127
1, 260019, Note_off_c, 7, 79, 127
1, 260020, Note_on_c, 0, 60, 127
1, 260020, Note_on_c, 6, 54, 127
1, 260020, Note_on_c, 10, 57, 127
1, 260020, Note_on_c, 3, 75, 127
1, 260184, Note_off_c, 3, 75, 127
1, 260185, Note_on_c, 5, 77, 127
1, 260349, Note_off_c, 5, 77, 127
1, 260350, Note_on_c, 7, 79, 127
1, 260514, Note_off_c, 7, 79, 127
1, 260515, Note_on_c, 3, 75, 127
1, 260678, Note_off_c, 0, 60, 127
1, 260679, Note_off_c, 3, 75, 127
1, 260679, Note_off_c, 10, 57, 127
1, 260679, Note_off_c, 6, 54, 127
1, 260680, Note_on_c, 5, 77, 127
1, 260844, Note_off_c, 5, 77, 127
1, 260845, Note_on_c, 7, 79, 127
1, 261009, Note_off_c, 7, 79, 127
1, 261010, Note_on_c, 11, 58, 127
1, 261010, Note_on_c, 0, 60, 127
1, 261010, Note_on_c, 7, 55, 127
1, 261010, Note_on_c, 3, 75, 127
1, 261174, Note_off_c, 3, 75, 127
1, 261175, Note_on_c, 5, 77, 127
1, 261339, Note_off_c, 5, 77, 127
1, 261340, Note_on_c, 7, 79, 127
1, 261504, Note_off_c, 7, 79, 127
1, 261505, Note_on_c, 3, 75, 127
1, 261669, Note_off_c, 3, 75, 127
1, 261669, Note_off_c, 7, 55, 127
1, 261669, Note_off_c, 0, 60, 127
1, 261669, Note_off_c, 11, 58, 127
1, 261670, Note_on_c, 5, 77, 127
1, 261834, Note_off_c, 5, 77, 127
1, 261835, Note_on_c, 7, 79, 127
1, 261999, Note_off_c, 7, 79, 127
1, 262000, Note_on_c, 0, 60, 127
1, 262000, Note_on_c, 8, 56, 127
1, 262000, Note_on_c, 5, 65, 127
1, 262000, Note_on_c, 2, 74, 127
1, 262164, Note_off_c, 2, 74, 127
1, 262165, Note_on_c, 3, 75, 127
1, 262329, Note_off_c, 3, 75, 127
1, 262330, Note_on_c, 5, 77, 127
1, 262494, Note_off_c, 5, 77, 127
1, 262495, Note_on_c, 0, 72, 127
1, 262659, Note_off_c, 0, 72, 127
1, 262660, Note_on_c, 2, 74, 127
1, 262741, Note_off_c, 5, 65, 127
1, 262741, Note_off_c, 8, 56, 127
1, 262741, Note_off_c, 0, 60, 127
1, 262824, Note_off_c, 2, 74, 127
1, 262825, Note_on_c, 10, 57, 127
1, 262825, Note_on_c, 5, 65, 127
1, 262825, Note_on_c, 0, 60, 127
1, 262825, Note_on_c, 3, 75, 127
1, 262989, Note_off_c, 3, 75, 127
1, 262989, Note_off_c, 0, 60, 127
1, 262989, Note_off_c, 5, 65, 127
1, 262989, Note_off_c, 10, 57, 127
1, 262990, Note_on_c, 7, 55, 127
1, 262990, Note_on_c, 7, 67, 127
1, 262990, Note_on_c, 2, 62, 127
1, 262990, Note_on_c, 12, 71, 127
1, 263156, Note_off_c, 12, 71, 127
1, 263156, Note_off_c, 7, 67, 127
1, 263157, Note_on_c, 10, 57, 127
1, 263157, Note_on_c, 10, 69, 127
1, 263171, Note_off_c, 7, 55, 127
1, 263323, Note_off_c, 10, 69, 127
1, 263323, Note_off_c, 10, 57, 127
1, 263324, Note_on_c, 12, 59, 127
1, 263324, Note_on_c, 7, 67, 127
1, 263486, Note_off_c, 2, 62, 127
1, 263490, Note_off_c, 7, 67, 127
1, 263490, Note_off_c, 12, 59, 127
1, 263491, Note_on_c, 0, 60, 127
1, 263491, Note_on_c, 3, 75, 127
1, 263657, Note_off_c, 0, 60, 127
1, 263658, Note_on_c, 2, 62, 127
1, 263824, Note_off_c, 2, 62, 127
1, 263825, Note_on_c, 3, 63, 127
1, 263991, Note_off_c, 3, 63, 127
1, 263992, Note_on_c, 5, 53, 127
1, 264159, Note_off_c, 5, 53, 127
1, 264159, Note_off_c, 3, 75, 127
1, 264160, Note_on_c, 7, 55, 127
1, 264160, Note_on_c, 2, 74, 127
1, 264292, Note_off_c, 2, 74, 127
1, 264328, Note_off_c, 7, 55, 127
1, 264329, Note_on_c, 10, 57, 127
1, 264329, Note_on_c, 0, 72, 127
1, 264461, Note_off_c, 0, 72, 127
1, 264497, Note_off_c, 10, 57, 127
1, 264498, Note_on_c, 11, 58, 127
1, 264498, Note_on_c, 1, 73, 127
1, 264665, Note_off_c, 11, 58, 127
1, 264666, Note_on_c, 0, 60, 127
1, 264833, Note_off_c, 0, 60, 127
1, 264834, Note_on_c, 1, 61, 127
1, 265001, Note_off_c, 1, 61, 127
1, 265002, Note_on_c, 3, 51, 127
1, 265171, Note_off_c, 3, 51, 127
1, 265171, Note_off_c, 1, 73, 127
1, 265172, Note_on_c, 5, 53, 127
1, 265172, Note_on_c, 0, 72, 127
1, 265305, Note_off_c, 0, 72, 127
1, 265341, Note_off_c, 5, 53, 127
1, 265342, Note_on_c, 7, 55, 127
1, 265342, Note_on_c, 12, 71, 127
1, 265475, Note_off_c, 12, 71, 127
1, 265511, Note_off_c, 7, 55, 127
1, 265512, Note_on_c, 8, 56, 127
1, 265512, Note_on_c, 0, 72, 127
1, 265681, Note_off_c, 8, 56, 127
1, 265682, Note_on_c, 11, 58, 127
1, 265851, Note_off_c, 11, 58, 127
1, 265852, Note_on_c, 0, 60, 127
1, 266021, Note_off_c, 0, 60, 127
1, 266038, Note_on_c, 2, 50, 127
1, 266186, Note_off_c, 0, 72, 127
1, 266203, Note_on_c, 2, 74, 127
1, 266367, Note_off_c, 2, 74, 127
1, 266368, Note_on_c, 4, 76, 127
1, 266532, Note_off_c, 4, 76, 127
1, 266533, Note_on_c, 5, 77, 127
1, 266657, Note_off_c, 2, 50, 127
1, 266697, Note_off_c, 5, 77, 127
1, 266698, Note_on_c, 7, 79, 127
1, 266698, Note_on_c, 4, 52, 127
1, 266862, Note_off_c, 4, 52, 127
1, 266862, Note_off_c, 7, 79, 127
1, 266863, Note_on_c, 10, 81, 127
1, 266863, Note_on_c, 5, 53, 127
1, 267027, Note_off_c, 5, 53, 127
1, 267027, Note_off_c, 10, 81, 127
1, 267028, Note_on_c, 7, 67, 127
1, 267028, Note_on_c, 12, 47, 127
1, 267192, Note_off_c, 12, 47, 127
1, 267192, Note_off_c, 7, 67, 127
1, 267193, Note_on_c, 10, 69, 127
1, 267193, Note_on_c, 0, 48, 127
1, 267357, Note_off_c, 0, 48, 127
1, 267357, Note_off_c, 10, 69, 127
1, 267358, Note_on_c, 12, 71, 127
1, 267358, Note_on_c, 2, 50, 127
1, 267522, Note_off_c, 2, 50, 127
1, 267522, Note_off_c, 12, 71, 127
1, 267523, Note_on_c, 0, 72, 127
1, 267523, Note_on_c, 4, 52, 127
1, 267687, Note_off_c, 4, 52, 127
1, 267688, Note_on_c, 5, 53, 127
1, 267852, Note_off_c, 5, 53, 127
1, 267852, Note_off_c, 0, 72, 127
1, 267869, Note_on_c, 7, 55, 127
1, 267869, Note_on_c, 7, 79, 127
1, 268033, Note_off_c, 7, 79, 127
1, 268033, Note_off_c, 7, 55, 127
1, 268034, Note_on_c, 0, 48, 127
1, 268034, Note_on_c, 4, 76, 127
1, 268198, Note_off_c, 4, 76, 127
1, 268198, Note_off_c, 0, 48, 127
1, 268199, Note_on_c, 4, 52, 127
1, 268199, Note_on_c, 2, 74, 127
1, 268363, Note_off_c, 2, 74, 127
1, 268363, Note_off_c, 4, 52, 127
1, 268364, Note_on_c, 5, 53, 127
1, 268364, Note_on_c, 0, 72, 127
1, 268528, Note_off_c, 0, 72, 127
1, 268528, Note_off_c, 5, 53, 127
1, 268529, Note_on_c, 7, 55, 127
1, 268529, Note_on_c, 7, 67, 127
1, 268693, Note_off_c, 7, 67, 127
1, 268693, Note_off_c, 7, 55, 127
1, 268694, Note_on_c, 5, 53, 127
1, 268694, Note_on_c, 0, 72, 127
1, 268858, Note_off_c, 0, 72, 127
1, 268858, Note_off_c, 5, 53, 127
1, 268859, Note_on_c, 7, 55, 127
1, 268859, Note_on_c, 12, 71, 127
1, 269023, Note_off_c, 12, 71, 127
1, 269023, Note_off_c, 7, 55, 127
1, 269024, Note_on_c, 0, 48, 127
1, 269024, Note_on_c, 0, 72, 127
1, 269227, Note_off_c, 0, 72, 127
1, 269227, Note_off_c, 0, 48, 127
1, 269245, Note_on_c, 7, 67, 127
1, 269245, Note_on_c, 4, 52, 127
1, 269460, Note_off_c, 4, 52, 127
1, 269460, Note_off_c, 7, 67, 127
1, 269482, Note_on_c, 4, 64, 127
1, 269482, Note_on_c, 7, 55, 127
1, 269708, Note_off_c, 7, 55, 127
1, 269708, Note_off_c, 4, 64, 127
1, 269735, Note_on_c, 0, 60, 127
1, 271333, Note_off_c, 0, 60, 127
1, 277880, End_track
0, 0, End_of_file
