0, 0, Header, 1, 8, 384
1, 0, Start_track
1, 0, Time_signature, 3, 2, 96, 8
1, 0, Sequencer_specific, 3, 0, 0, 65
1, 0, Sequencer_specific, 5, 0, 0, 119, 14, 1
1, 0, Tempo, 625000
1, 88704, Tempo, 625000
1, 88800, Tempo, 625000
1, 88896, Tempo, 638297
1, 88992, Tempo, 645161
1, 89088, Tempo, 645161
1, 89184, Tempo, 659340
1, 89280, Tempo, 666666
1, 89376, Tempo, 674157
1, 89472, Tempo, 674157
1, 89568, Tempo, 681818
1, 89664, Tempo, 689655
1, 89760, Tempo, 697674
1, 90624, Tempo, 1200000
1, 92160, Time_signature, 2, 2, 96, 8
1, 115968, Tempo, 645161
1, 173184, Tempo, 645161
1, 173248, Tempo, 659340
1, 173316, Tempo, 666666
1, 173384, Tempo, 674157
1, 173448, Tempo, 674157
1, 173516, Tempo, 681818
1, 173584, Tempo, 689655
1, 173648, Tempo, 697674
1, 173716, Tempo, 705882
1, 173784, Tempo, 722891
1, 173848, Tempo, 731707
1, 173916, Tempo, 731707
1, 173984, Tempo, 750000
1, 174052, Tempo, 750000
1, 174116, Tempo, 769230
1, 174184, Tempo, 779220
1, 174252, Tempo, 789473
1, 174316, Tempo, 800000
1, 174384, Tempo, 800000
1, 174452, Tempo, 821917
1, 174516, Tempo, 833333
1, 174584, Tempo, 833333
1, 174652, Tempo, 845070
1, 174720, Tempo, 869565
1, 176640, Time_signature, 6, 3, 96, 8
1, 176640, Tempo, 408163
1, 267460, Tempo, 408163
1, 267480, Tempo, 413793
1, 267486, Tempo, 413793
1, 267512, Tempo, 419580
1, 267544, Tempo, 419580
1, 267562, Tempo, 422535
1, 267576, Tempo, 428571
1, 267588, Tempo, 428571
1, 267666, Tempo, 434782
1, 267704, Tempo, 437956
1, 267800, Tempo, 437956
1, 267858, Tempo, 441176
1, 267908, Tempo, 444444
1, 267960, Tempo, 447761
1, 267972, Tempo, 454545
1, 267978, Tempo, 454545
1, 268018, Tempo, 458015
1, 268056, Tempo, 461538
1, 268074, Tempo, 465116
1, 268120, Tempo, 468750
1, 268132, Tempo, 476190
1, 268196, Tempo, 476190
1, 268210, Tempo, 480000
1, 268222, Tempo, 487804
1, 268274, Tempo, 491803
1, 268298, Tempo, 491803
1, 268338, Tempo, 500000
1, 268350, Tempo, 500000
1, 268376, Tempo, 508474
1, 268402, Tempo, 512820
1, 268440, Tempo, 517241
1, 268458, Tempo, 521739
1, 268510, Tempo, 530973
1, 268574, Tempo, 530973
1, 268594, Tempo, 545454
1, 268606, Tempo, 550458
1, 268612, Tempo, 555555
1, 268626, Tempo, 560747
1, 268632, Tempo, 566037
1, 268644, Tempo, 571428
1, 268658, Tempo, 576923
1, 268664, Tempo, 576923
1, 268670, Tempo, 582524
1, 268676, Tempo, 588235
1, 268690, Tempo, 600000
1, 268696, Tempo, 612244
1, 268708, Tempo, 618556
1, 268714, Tempo, 625000
1, 268722, Tempo, 645161
1, 268728, Tempo, 645161
1, 268734, Tempo, 674157
1, 268746, Tempo, 674157
1, 268754, Tempo, 697674
1, 268760, Tempo, 705882
1, 268766, Tempo, 731707
1, 268772, Tempo, 731707
1, 268778, Tempo, 750000
1, 268786, Tempo, 769230
1, 268810, Tempo, 731707
1, 268818, Tempo, 666666
1, 268824, Tempo, 618556
1, 268830, Tempo, 588235
1, 268836, Tempo, 576923
1, 268842, Tempo, 550458
1, 268850, Tempo, 545454
1, 268862, Tempo, 530973
1, 268900, Tempo, 535714
1, 268932, Tempo, 535714
1, 268946, Tempo, 550458
1, 269216, Tempo, 517241
1, 269216, End_track
2, 0, Start_track
2, 0, Title_t, "JS BACH: CONCERTO BWV 982"
2, 0, End_track
3, 0, Start_track
3, 0, Title_t, "SEQUENCE (c) 1997 BY T.L. HUBEART JR."
3, 0, End_track
4, 0, Start_track
4, 0, Title_t, "Manual 1 RH"
4, 0, Control_c, 0, 0, 0
4, 0, Program_c, 0, 6
4, 0, Control_c, 0, 7, 104
4, 0, Control_c, 0, 10, 64
4, 0, Key_signature, 0, "major"
4, 0, Note_on_c, 0, 58, 106
4, 188, Note_off_c, 0, 58, 0
4, 192, Note_on_c, 0, 70, 106
4, 284, Note_off_c, 0, 70, 0
4, 288, Note_on_c, 0, 72, 106
4, 380, Note_off_c, 0, 72, 0
4, 384, Note_on_c, 0, 74, 106
4, 572, Note_off_c, 0, 74, 0
4, 576, Note_on_c, 0, 77, 106
4, 576, Note_on_c, 0, 74, 106
4, 576, Note_on_c, 0, 70, 106
4, 764, Note_off_c, 0, 77, 0
4, 764, Note_off_c, 0, 74, 0
4, 764, Note_off_c, 0, 70, 0
4, 768, Note_on_c, 0, 74, 106
4, 768, Note_on_c, 0, 70, 106
4, 768, Note_on_c, 0, 65, 106
4, 956, Note_off_c, 0, 74, 0
4, 956, Note_off_c, 0, 70, 0
4, 956, Note_off_c, 0, 65, 0
4, 960, Note_on_c, 0, 70, 106
4, 960, Note_on_c, 0, 65, 106
4, 960, Note_on_c, 0, 62, 106
4, 1148, Note_off_c, 0, 70, 0
4, 1148, Note_off_c, 0, 65, 0
4, 1148, Note_off_c, 0, 62, 0
4, 1344, Note_on_c, 0, 70, 106
4, 1436, Note_off_c, 0, 70, 0
4, 1440, Note_on_c, 0, 72, 106
4, 1532, Note_off_c, 0, 72, 0
4, 1536, Note_on_c, 0, 74, 106
4, 1724, Note_off_c, 0, 74, 0
4, 1728, Note_on_c, 0, 77, 106
4, 1916, Note_off_c, 0, 77, 0
4, 1920, Note_on_c, 0, 74, 106
4, 2108, Note_off_c, 0, 74, 0
4, 2112, Note_on_c, 0, 70, 106
4, 2300, Note_off_c, 0, 70, 0
4, 2304, Note_on_c, 0, 60, 106
4, 2492, Note_off_c, 0, 60, 0
4, 2496, Note_on_c, 0, 72, 106
4, 2588, Note_off_c, 0, 72, 0
4, 2592, Note_on_c, 0, 74, 106
4, 2684, Note_off_c, 0, 74, 0
4, 2688, Note_on_c, 0, 75, 106
4, 2876, Note_off_c, 0, 75, 0
4, 2880, Note_on_c, 0, 79, 106
4, 2880, Note_on_c, 0, 75, 106
4, 2880, Note_on_c, 0, 72, 106
4, 3068, Note_off_c, 0, 79, 0
4, 3068, Note_off_c, 0, 75, 0
4, 3068, Note_off_c, 0, 72, 0
4, 3072, Note_on_c, 0, 72, 106
4, 3072, Note_on_c, 0, 75, 106
4, 3072, Note_on_c, 0, 67, 106
4, 3260, Note_off_c, 0, 72, 0
4, 3260, Note_off_c, 0, 75, 0
4, 3260, Note_off_c, 0, 67, 0
4, 3264, Note_on_c, 0, 72, 106
4, 3264, Note_on_c, 0, 67, 106
4, 3264, Note_on_c, 0, 63, 106
4, 3452, Note_off_c, 0, 72, 0
4, 3452, Note_off_c, 0, 67, 0
4, 3452, Note_off_c, 0, 63, 0
4, 3648, Note_on_c, 0, 72, 106
4, 3740, Note_off_c, 0, 72, 0
4, 3744, Note_on_c, 0, 74, 106
4, 3836, Note_off_c, 0, 74, 0
4, 3840, Note_on_c, 0, 75, 106
4, 4028, Note_off_c, 0, 75, 0
4, 4032, Note_on_c, 0, 79, 106
4, 4220, Note_off_c, 0, 79, 0
4, 4224, Note_on_c, 0, 75, 106
4, 4412, Note_off_c, 0, 75, 0
4, 4416, Note_on_c, 0, 72, 106
4, 4604, Note_off_c, 0, 72, 0
4, 4608, Note_on_c, 0, 62, 106
4, 4796, Note_off_c, 0, 62, 0
4, 4800, Note_on_c, 0, 74, 106
4, 4892, Note_off_c, 0, 74, 0
4, 4896, Note_on_c, 0, 75, 106
4, 4988, Note_off_c, 0, 75, 0
4, 4992, Note_on_c, 0, 77, 106
4, 5180, Note_off_c, 0, 77, 0
4, 5184, Note_on_c, 0, 82, 106
4, 5184, Note_on_c, 0, 77, 106
4, 5184, Note_on_c, 0, 74, 106
4, 5372, Note_off_c, 0, 82, 0
4, 5372, Note_off_c, 0, 77, 0
4, 5372, Note_off_c, 0, 74, 0
4, 5376, Note_on_c, 0, 77, 106
4, 5376, Note_on_c, 0, 74, 106
4, 5376, Note_on_c, 0, 70, 106
4, 5564, Note_off_c, 0, 77, 0
4, 5564, Note_off_c, 0, 74, 0
4, 5564, Note_off_c, 0, 70, 0
4, 5568, Note_on_c, 0, 74, 106
4, 5568, Note_on_c, 0, 70, 106
4, 5568, Note_on_c, 0, 65, 106
4, 5756, Note_off_c, 0, 74, 0
4, 5756, Note_off_c, 0, 70, 0
4, 5756, Note_off_c, 0, 65, 0
4, 5952, Note_on_c, 0, 74, 106
4, 6044, Note_off_c, 0, 74, 0
4, 6048, Note_on_c, 0, 75, 106
4, 6140, Note_off_c, 0, 75, 0
4, 6144, Note_on_c, 0, 77, 106
4, 6332, Note_off_c, 0, 77, 0
4, 6336, Note_on_c, 0, 82, 106
4, 6524, Note_off_c, 0, 82, 0
4, 6528, Note_on_c, 0, 77, 106
4, 6716, Note_off_c, 0, 77, 0
4, 6720, Note_on_c, 0, 74, 106
4, 6908, Note_off_c, 0, 74, 0
4, 6912, Note_on_c, 0, 79, 106
4, 7004, Note_off_c, 0, 79, 0
4, 7008, Note_on_c, 0, 77, 106
4, 7100, Note_off_c, 0, 77, 0
4, 7104, Note_on_c, 0, 75, 106
4, 7196, Note_off_c, 0, 75, 0
4, 7200, Note_on_c, 0, 74, 106
4, 7292, Note_off_c, 0, 74, 0
4, 7296, Note_on_c, 0, 75, 106
4, 7388, Note_off_c, 0, 75, 0
4, 7392, Note_on_c, 0, 74, 106
4, 7484, Note_off_c, 0, 74, 0
4, 7488, Note_on_c, 0, 72, 106
4, 7580, Note_off_c, 0, 72, 0
4, 7584, Note_on_c, 0, 70, 106
4, 7676, Note_off_c, 0, 70, 0
4, 7680, Note_on_c, 0, 72, 106
4, 7772, Note_off_c, 0, 72, 0
4, 7776, Note_on_c, 0, 70, 106
4, 7868, Note_off_c, 0, 70, 0
4, 7872, Note_on_c, 0, 69, 106
4, 7964, Note_off_c, 0, 69, 0
4, 7968, Note_on_c, 0, 67, 106
4, 8060, Note_off_c, 0, 67, 0
4, 8064, Note_on_c, 0, 65, 106
4, 8252, Note_off_c, 0, 65, 0
4, 8256, Note_on_c, 0, 70, 106
4, 8256, Note_on_c, 0, 65, 106
4, 8256, Note_on_c, 0, 62, 106
4, 8444, Note_off_c, 0, 70, 0
4, 8444, Note_off_c, 0, 65, 0
4, 8444, Note_off_c, 0, 62, 0
4, 8448, Note_on_c, 0, 65, 106
4, 8448, Note_on_c, 0, 60, 106
4, 8448, Note_on_c, 0, 70, 106
4, 8496, Note_on_c, 0, 69, 106
4, 8540, Note_off_c, 0, 70, 0
4, 8544, Note_on_c, 0, 70, 106
4, 8588, Note_off_c, 0, 69, 0
4, 8592, Note_on_c, 0, 69, 106
4, 8636, Note_off_c, 0, 70, 0
4, 8640, Note_on_c, 0, 70, 106
4, 8684, Note_off_c, 0, 69, 0
4, 8692, Note_on_c, 0, 69, 106
4, 8732, Note_off_c, 0, 70, 0
4, 8884, Note_off_c, 0, 69, 0
4, 9024, Note_on_c, 0, 70, 106
4, 9212, Note_off_c, 0, 65, 0
4, 9212, Note_off_c, 0, 60, 0
4, 9212, Note_off_c, 0, 70, 0
4, 9216, Note_on_c, 0, 70, 106
4, 9216, Note_on_c, 0, 65, 106
4, 9216, Note_on_c, 0, 62, 106
4, 9404, Note_off_c, 0, 70, 0
4, 9404, Note_off_c, 0, 65, 0
4, 9404, Note_off_c, 0, 62, 0
4, 30144, Note_on_c, 0, 67, 106
4, 30236, Note_off_c, 0, 67, 0
4, 30240, Note_on_c, 0, 69, 106
4, 30332, Note_off_c, 0, 69, 0
4, 30336, Note_on_c, 0, 70, 106
4, 30524, Note_off_c, 0, 70, 0
4, 30528, Note_on_c, 0, 74, 106
4, 30528, Note_on_c, 0, 70, 106
4, 30528, Note_on_c, 0, 67, 106
4, 30716, Note_off_c, 0, 74, 0
4, 30716, Note_off_c, 0, 70, 0
4, 30716, Note_off_c, 0, 67, 0
4, 30720, Note_on_c, 0, 70, 106
4, 30720, Note_on_c, 0, 67, 106
4, 30720, Note_on_c, 0, 62, 106
4, 30908, Note_off_c, 0, 70, 0
4, 30908, Note_off_c, 0, 67, 0
4, 30908, Note_off_c, 0, 62, 0
4, 30912, Note_on_c, 0, 67, 106
4, 30912, Note_on_c, 0, 62, 106
4, 30912, Note_on_c, 0, 58, 106
4, 31100, Note_off_c, 0, 67, 0
4, 31100, Note_off_c, 0, 62, 0
4, 31100, Note_off_c, 0, 58, 0
4, 31296, Note_on_c, 0, 67, 106
4, 31388, Note_off_c, 0, 67, 0
4, 31392, Note_on_c, 0, 69, 106
4, 31484, Note_off_c, 0, 69, 0
4, 31488, Note_on_c, 0, 70, 106
4, 31676, Note_off_c, 0, 70, 0
4, 31680, Note_on_c, 0, 74, 106
4, 31680, Note_on_c, 0, 70, 106
4, 31680, Note_on_c, 0, 67, 106
4, 31868, Note_off_c, 0, 74, 0
4, 31868, Note_off_c, 0, 70, 0
4, 31868, Note_off_c, 0, 67, 0
4, 31872, Note_on_c, 0, 70, 106
4, 31872, Note_on_c, 0, 67, 106
4, 31872, Note_on_c, 0, 62, 106
4, 32060, Note_off_c, 0, 70, 0
4, 32060, Note_off_c, 0, 67, 0
4, 32060, Note_off_c, 0, 62, 0
4, 32064, Note_on_c, 0, 67, 106
4, 32064, Note_on_c, 0, 62, 106
4, 32064, Note_on_c, 0, 58, 106
4, 32252, Note_off_c, 0, 67, 0
4, 32252, Note_off_c, 0, 62, 0
4, 32252, Note_off_c, 0, 58, 0
4, 32256, Note_on_c, 0, 59, 106
4, 32444, Note_off_c, 0, 59, 0
4, 32448, Note_on_c, 0, 67, 106
4, 32540, Note_off_c, 0, 67, 0
4, 32544, Note_on_c, 0, 69, 106
4, 32636, Note_off_c, 0, 69, 0
4, 32640, Note_on_c, 0, 71, 106
4, 32828, Note_off_c, 0, 71, 0
4, 32832, Note_on_c, 0, 74, 106
4, 32832, Note_on_c, 0, 71, 106
4, 32832, Note_on_c, 0, 67, 106
4, 33020, Note_off_c, 0, 74, 0
4, 33020, Note_off_c, 0, 71, 0
4, 33020, Note_off_c, 0, 67, 0
4, 33024, Note_on_c, 0, 71, 106
4, 33024, Note_on_c, 0, 67, 106
4, 33024, Note_on_c, 0, 62, 106
4, 33212, Note_off_c, 0, 71, 0
4, 33212, Note_off_c, 0, 67, 0
4, 33212, Note_off_c, 0, 62, 0
4, 33216, Note_on_c, 0, 67, 106
4, 33216, Note_on_c, 0, 62, 106
4, 33216, Note_on_c, 0, 59, 106
4, 33404, Note_off_c, 0, 67, 0
4, 33404, Note_off_c, 0, 62, 0
4, 33404, Note_off_c, 0, 59, 0
4, 33408, Note_on_c, 0, 59, 106
4, 33596, Note_off_c, 0, 59, 0
4, 33600, Note_on_c, 0, 67, 106
4, 33692, Note_off_c, 0, 67, 0
4, 33696, Note_on_c, 0, 69, 106
4, 33788, Note_off_c, 0, 69, 0
4, 33792, Note_on_c, 0, 71, 106
4, 33980, Note_off_c, 0, 71, 0
4, 33984, Note_on_c, 0, 74, 106
4, 33984, Note_on_c, 0, 71, 106
4, 33984, Note_on_c, 0, 67, 106
4, 34172, Note_off_c, 0, 74, 0
4, 34172, Note_off_c, 0, 71, 0
4, 34172, Note_off_c, 0, 67, 0
4, 34176, Note_on_c, 0, 71, 106
4, 34176, Note_on_c, 0, 67, 106
4, 34176, Note_on_c, 0, 62, 106
4, 34364, Note_off_c, 0, 71, 0
4, 34364, Note_off_c, 0, 67, 0
4, 34364, Note_off_c, 0, 62, 0
4, 34368, Note_on_c, 0, 67, 106
4, 34368, Note_on_c, 0, 62, 106
4, 34368, Note_on_c, 0, 59, 106
4, 34556, Note_off_c, 0, 67, 0
4, 34556, Note_off_c, 0, 62, 0
4, 34556, Note_off_c, 0, 59, 0
4, 34560, Note_on_c, 0, 60, 106
4, 34748, Note_off_c, 0, 60, 0
4, 34752, Note_on_c, 0, 72, 106
4, 34844, Note_off_c, 0, 72, 0
4, 34848, Note_on_c, 0, 74, 106
4, 34940, Note_off_c, 0, 74, 0
4, 34944, Note_on_c, 0, 75, 106
4, 35132, Note_off_c, 0, 75, 0
4, 35136, Note_on_c, 0, 79, 106
4, 35136, Note_on_c, 0, 75, 106
4, 35136, Note_on_c, 0, 72, 106
4, 35324, Note_off_c, 0, 79, 0
4, 35324, Note_off_c, 0, 75, 0
4, 35324, Note_off_c, 0, 72, 0
4, 35328, Note_on_c, 0, 75, 106
4, 35328, Note_on_c, 0, 72, 106
4, 35328, Note_on_c, 0, 67, 106
4, 35516, Note_off_c, 0, 75, 0
4, 35516, Note_off_c, 0, 72, 0
4, 35516, Note_off_c, 0, 67, 0
4, 35520, Note_on_c, 0, 72, 106
4, 35520, Note_on_c, 0, 67, 106
4, 35520, Note_on_c, 0, 63, 106
4, 35708, Note_off_c, 0, 72, 0
4, 35708, Note_off_c, 0, 67, 0
4, 35708, Note_off_c, 0, 63, 0
4, 35712, Note_on_c, 0, 60, 106
4, 35900, Note_off_c, 0, 60, 0
4, 35904, Note_on_c, 0, 72, 106
4, 35996, Note_off_c, 0, 72, 0
4, 36000, Note_on_c, 0, 74, 106
4, 36092, Note_off_c, 0, 74, 0
4, 36096, Note_on_c, 0, 75, 106
4, 36284, Note_off_c, 0, 75, 0
4, 36288, Note_on_c, 0, 79, 106
4, 36288, Note_on_c, 0, 75, 106
4, 36288, Note_on_c, 0, 72, 106
4, 36476, Note_off_c, 0, 79, 0
4, 36476, Note_off_c, 0, 75, 0
4, 36476, Note_off_c, 0, 72, 0
4, 36480, Note_on_c, 0, 75, 106
4, 36480, Note_on_c, 0, 72, 106
4, 36480, Note_on_c, 0, 67, 106
4, 36668, Note_off_c, 0, 75, 0
4, 36668, Note_off_c, 0, 72, 0
4, 36668, Note_off_c, 0, 67, 0
4, 36672, Note_on_c, 0, 72, 106
4, 36672, Note_on_c, 0, 67, 106
4, 36672, Note_on_c, 0, 63, 106
4, 36860, Note_off_c, 0, 72, 0
4, 36860, Note_off_c, 0, 67, 0
4, 36860, Note_off_c, 0, 63, 0
4, 36864, Note_on_c, 0, 62, 106
4, 37052, Note_off_c, 0, 62, 0
4, 37056, Note_on_c, 0, 74, 106
4, 37148, Note_off_c, 0, 74, 0
4, 37152, Note_on_c, 0, 75, 106
4, 37244, Note_off_c, 0, 75, 0
4, 37248, Note_on_c, 0, 77, 106
4, 37436, Note_off_c, 0, 77, 0
4, 37440, Note_on_c, 0, 80, 106
4, 37440, Note_on_c, 0, 77, 106
4, 37440, Note_on_c, 0, 74, 106
4, 37628, Note_off_c, 0, 80, 0
4, 37628, Note_off_c, 0, 77, 0
4, 37628, Note_off_c, 0, 74, 0
4, 37632, Note_on_c, 0, 77, 106
4, 37632, Note_on_c, 0, 74, 106
4, 37632, Note_on_c, 0, 68, 106
4, 37820, Note_off_c, 0, 77, 0
4, 37820, Note_off_c, 0, 74, 0
4, 37820, Note_off_c, 0, 68, 0
4, 37824, Note_on_c, 0, 74, 106
4, 37824, Note_on_c, 0, 68, 106
4, 37824, Note_on_c, 0, 65, 106
4, 38012, Note_off_c, 0, 74, 0
4, 38012, Note_off_c, 0, 68, 0
4, 38012, Note_off_c, 0, 65, 0
4, 38016, Note_on_c, 0, 62, 106
4, 38204, Note_off_c, 0, 62, 0
4, 38208, Note_on_c, 0, 74, 106
4, 38300, Note_off_c, 0, 74, 0
4, 38304, Note_on_c, 0, 75, 106
4, 38396, Note_off_c, 0, 75, 0
4, 38400, Note_on_c, 0, 77, 106
4, 38588, Note_off_c, 0, 77, 0
4, 38592, Note_on_c, 0, 80, 106
4, 38592, Note_on_c, 0, 77, 106
4, 38592, Note_on_c, 0, 74, 106
4, 38780, Note_off_c, 0, 80, 0
4, 38780, Note_off_c, 0, 77, 0
4, 38780, Note_off_c, 0, 74, 0
4, 38784, Note_on_c, 0, 77, 106
4, 38784, Note_on_c, 0, 74, 106
4, 38784, Note_on_c, 0, 68, 106
4, 38972, Note_off_c, 0, 77, 0
4, 38972, Note_off_c, 0, 74, 0
4, 38972, Note_off_c, 0, 68, 0
4, 38976, Note_on_c, 0, 74, 106
4, 38976, Note_on_c, 0, 68, 106
4, 38976, Note_on_c, 0, 65, 106
4, 39164, Note_off_c, 0, 74, 0
4, 39164, Note_off_c, 0, 68, 0
4, 39164, Note_off_c, 0, 65, 0
4, 39168, Note_on_c, 0, 75, 106
4, 39260, Note_off_c, 0, 75, 0
4, 39264, Note_on_c, 0, 72, 106
4, 39356, Note_off_c, 0, 72, 0
4, 39360, Note_on_c, 0, 67, 106
4, 39452, Note_off_c, 0, 67, 0
4, 39456, Note_on_c, 0, 71, 106
4, 39548, Note_off_c, 0, 71, 0
4, 39552, Note_on_c, 0, 72, 106
4, 39644, Note_off_c, 0, 72, 0
4, 39648, Note_on_c, 0, 67, 106
4, 39740, Note_off_c, 0, 67, 0
4, 39744, Note_on_c, 0, 63, 106
4, 39836, Note_off_c, 0, 63, 0
4, 39840, Note_on_c, 0, 60, 106
4, 39932, Note_off_c, 0, 60, 0
4, 39936, Note_on_c, 0, 62, 106
4, 40028, Note_off_c, 0, 62, 0
4, 40032, Note_on_c, 0, 65, 106
4, 40124, Note_off_c, 0, 65, 0
4, 40128, Note_on_c, 0, 72, 106
4, 40220, Note_off_c, 0, 72, 0
4, 40224, Note_on_c, 0, 71, 106
4, 40316, Note_off_c, 0, 71, 0
4, 62208, Note_on_c, 0, 55, 106
4, 62396, Note_off_c, 0, 55, 0
4, 62400, Note_on_c, 0, 67, 106
4, 62492, Note_off_c, 0, 67, 0
4, 62496, Note_on_c, 0, 69, 106
4, 62588, Note_off_c, 0, 69, 0
4, 62592, Note_on_c, 0, 70, 106
4, 62780, Note_off_c, 0, 70, 0
4, 62784, Note_on_c, 0, 74, 106
4, 62784, Note_on_c, 0, 70, 106
4, 62784, Note_on_c, 0, 67, 106
4, 62972, Note_off_c, 0, 74, 0
4, 62972, Note_off_c, 0, 70, 0
4, 62972, Note_off_c, 0, 67, 0
4, 62976, Note_on_c, 0, 70, 106
4, 62976, Note_on_c, 0, 67, 106
4, 62976, Note_on_c, 0, 62, 106
4, 63164, Note_off_c, 0, 70, 0
4, 63164, Note_off_c, 0, 67, 0
4, 63164, Note_off_c, 0, 62, 0
4, 63168, Note_on_c, 0, 67, 106
4, 63168, Note_on_c, 0, 62, 106
4, 63168, Note_on_c, 0, 58, 106
4, 63356, Note_off_c, 0, 67, 0
4, 63356, Note_off_c, 0, 62, 0
4, 63356, Note_off_c, 0, 58, 0
4, 63552, Note_on_c, 0, 67, 106
4, 63644, Note_off_c, 0, 67, 0
4, 63648, Note_on_c, 0, 69, 106
4, 63740, Note_off_c, 0, 69, 0
4, 63744, Note_on_c, 0, 70, 106
4, 63932, Note_off_c, 0, 70, 0
4, 63936, Note_on_c, 0, 74, 106
4, 64124, Note_off_c, 0, 74, 0
4, 64128, Note_on_c, 0, 70, 106
4, 64316, Note_off_c, 0, 70, 0
4, 64320, Note_on_c, 0, 67, 106
4, 64508, Note_off_c, 0, 67, 0
4, 64512, Note_on_c, 0, 57, 106
4, 64700, Note_off_c, 0, 57, 0
4, 64704, Note_on_c, 0, 69, 106
4, 64796, Note_off_c, 0, 69, 0
4, 64800, Note_on_c, 0, 70, 106
4, 64892, Note_off_c, 0, 70, 0
4, 64896, Note_on_c, 0, 72, 106
4, 65084, Note_off_c, 0, 72, 0
4, 65088, Note_on_c, 0, 77, 106
4, 65088, Note_on_c, 0, 72, 106
4, 65088, Note_on_c, 0, 69, 106
4, 65276, Note_off_c, 0, 77, 0
4, 65276, Note_off_c, 0, 72, 0
4, 65276, Note_off_c, 0, 69, 0
4, 65280, Note_on_c, 0, 72, 106
4, 65280, Note_on_c, 0, 69, 106
4, 65280, Note_on_c, 0, 65, 106
4, 65468, Note_off_c, 0, 72, 0
4, 65468, Note_off_c, 0, 69, 0
4, 65468, Note_off_c, 0, 65, 0
4, 65472, Note_on_c, 0, 69, 106
4, 65472, Note_on_c, 0, 65, 106
4, 65472, Note_on_c, 0, 60, 106
4, 65660, Note_off_c, 0, 69, 0
4, 65660, Note_off_c, 0, 65, 0
4, 65660, Note_off_c, 0, 60, 0
4, 65856, Note_on_c, 0, 69, 106
4, 65948, Note_off_c, 0, 69, 0
4, 65952, Note_on_c, 0, 70, 106
4, 66044, Note_off_c, 0, 70, 0
4, 66048, Note_on_c, 0, 72, 106
4, 66236, Note_off_c, 0, 72, 0
4, 66240, Note_on_c, 0, 77, 106
4, 66428, Note_off_c, 0, 77, 0
4, 66432, Note_on_c, 0, 72, 106
4, 66620, Note_off_c, 0, 72, 0
4, 66624, Note_on_c, 0, 69, 106
4, 66812, Note_off_c, 0, 69, 0
4, 66816, Note_on_c, 0, 58, 106
4, 67004, Note_off_c, 0, 58, 0
4, 67008, Note_on_c, 0, 74, 106
4, 67100, Note_off_c, 0, 74, 0
4, 67104, Note_on_c, 0, 75, 106
4, 67196, Note_off_c, 0, 75, 0
4, 67200, Note_on_c, 0, 77, 106
4, 67388, Note_off_c, 0, 77, 0
4, 67392, Note_on_c, 0, 82, 106
4, 67392, Note_on_c, 0, 77, 106
4, 67392, Note_on_c, 0, 74, 106
4, 67580, Note_off_c, 0, 82, 0
4, 67580, Note_off_c, 0, 77, 0
4, 67580, Note_off_c, 0, 74, 0
4, 67584, Note_on_c, 0, 77, 106
4, 67584, Note_on_c, 0, 74, 106
4, 67584, Note_on_c, 0, 70, 106
4, 67772, Note_off_c, 0, 77, 0
4, 67772, Note_off_c, 0, 74, 0
4, 67772, Note_off_c, 0, 70, 0
4, 67776, Note_on_c, 0, 74, 106
4, 67776, Note_on_c, 0, 70, 106
4, 67776, Note_on_c, 0, 65, 106
4, 67964, Note_off_c, 0, 74, 0
4, 67964, Note_off_c, 0, 70, 0
4, 67964, Note_off_c, 0, 65, 0
4, 68160, Note_on_c, 0, 74, 106
4, 68252, Note_off_c, 0, 74, 0
4, 68256, Note_on_c, 0, 75, 106
4, 68348, Note_off_c, 0, 75, 0
4, 68352, Note_on_c, 0, 77, 106
4, 68540, Note_off_c, 0, 77, 0
4, 68544, Note_on_c, 0, 82, 106
4, 68732, Note_off_c, 0, 82, 0
4, 68736, Note_on_c, 0, 77, 106
4, 68924, Note_off_c, 0, 77, 0
4, 68928, Note_on_c, 0, 74, 106
4, 69116, Note_off_c, 0, 74, 0
4, 78528, Note_on_c, 0, 70, 106
4, 78620, Note_off_c, 0, 70, 0
4, 78624, Note_on_c, 0, 72, 106
4, 78716, Note_off_c, 0, 72, 0
4, 78720, Note_on_c, 0, 74, 106
4, 78908, Note_off_c, 0, 74, 0
4, 78912, Note_on_c, 0, 77, 106
4, 78912, Note_on_c, 0, 74, 106
4, 78912, Note_on_c, 0, 70, 106
4, 79100, Note_off_c, 0, 77, 0
4, 79100, Note_off_c, 0, 74, 0
4, 79100, Note_off_c, 0, 70, 0
4, 79104, Note_on_c, 0, 74, 106
4, 79104, Note_on_c, 0, 70, 106
4, 79104, Note_on_c, 0, 65, 106
4, 79292, Note_off_c, 0, 74, 0
4, 79292, Note_off_c, 0, 70, 0
4, 79292, Note_off_c, 0, 65, 0
4, 79296, Note_on_c, 0, 70, 106
4, 79296, Note_on_c, 0, 65, 106
4, 79296, Note_on_c, 0, 62, 106
4, 79484, Note_off_c, 0, 70, 0
4, 79484, Note_off_c, 0, 65, 0
4, 79484, Note_off_c, 0, 62, 0
4, 79680, Note_on_c, 0, 70, 106
4, 79772, Note_off_c, 0, 70, 0
4, 79776, Note_on_c, 0, 72, 106
4, 79868, Note_off_c, 0, 72, 0
4, 79872, Note_on_c, 0, 74, 106
4, 80060, Note_off_c, 0, 74, 0
4, 80064, Note_on_c, 0, 77, 106
4, 80252, Note_off_c, 0, 77, 0
4, 80256, Note_on_c, 0, 74, 106
4, 80444, Note_off_c, 0, 74, 0
4, 80448, Note_on_c, 0, 70, 106
4, 80636, Note_off_c, 0, 70, 0
4, 80640, Note_on_c, 0, 60, 106
4, 80828, Note_off_c, 0, 60, 0
4, 80832, Note_on_c, 0, 72, 106
4, 80924, Note_off_c, 0, 72, 0
4, 80928, Note_on_c, 0, 74, 106
4, 81020, Note_off_c, 0, 74, 0
4, 81024, Note_on_c, 0, 75, 106
4, 81212, Note_off_c, 0, 75, 0
4, 81216, Note_on_c, 0, 79, 106
4, 81216, Note_on_c, 0, 75, 106
4, 81216, Note_on_c, 0, 72, 106
4, 81404, Note_off_c, 0, 79, 0
4, 81404, Note_off_c, 0, 75, 0
4, 81404, Note_off_c, 0, 72, 0
4, 81408, Note_on_c, 0, 72, 106
4, 81408, Note_on_c, 0, 75, 106
4, 81408, Note_on_c, 0, 67, 106
4, 81596, Note_off_c, 0, 72, 0
4, 81596, Note_off_c, 0, 75, 0
4, 81596, Note_off_c, 0, 67, 0
4, 81600, Note_on_c, 0, 72, 106
4, 81600, Note_on_c, 0, 67, 106
4, 81600, Note_on_c, 0, 63, 106
4, 81788, Note_off_c, 0, 72, 0
4, 81788, Note_off_c, 0, 67, 0
4, 81788, Note_off_c, 0, 63, 0
4, 81984, Note_on_c, 0, 72, 106
4, 82076, Note_off_c, 0, 72, 0
4, 82080, Note_on_c, 0, 74, 106
4, 82172, Note_off_c, 0, 74, 0
4, 82176, Note_on_c, 0, 75, 106
4, 82364, Note_off_c, 0, 75, 0
4, 82368, Note_on_c, 0, 79, 106
4, 82556, Note_off_c, 0, 79, 0
4, 82560, Note_on_c, 0, 75, 106
4, 82748, Note_off_c, 0, 75, 0
4, 82752, Note_on_c, 0, 72, 106
4, 82940, Note_off_c, 0, 72, 0
4, 82944, Note_on_c, 0, 62, 106
4, 83132, Note_off_c, 0, 62, 0
4, 83136, Note_on_c, 0, 74, 106
4, 83228, Note_off_c, 0, 74, 0
4, 83232, Note_on_c, 0, 75, 106
4, 83324, Note_off_c, 0, 75, 0
4, 83328, Note_on_c, 0, 77, 106
4, 83516, Note_off_c, 0, 77, 0
4, 83520, Note_on_c, 0, 82, 106
4, 83520, Note_on_c, 0, 77, 106
4, 83520, Note_on_c, 0, 74, 106
4, 83708, Note_off_c, 0, 82, 0
4, 83708, Note_off_c, 0, 77, 0
4, 83708, Note_off_c, 0, 74, 0
4, 83712, Note_on_c, 0, 77, 106
4, 83712, Note_on_c, 0, 74, 106
4, 83712, Note_on_c, 0, 70, 106
4, 83900, Note_off_c, 0, 77, 0
4, 83900, Note_off_c, 0, 74, 0
4, 83900, Note_off_c, 0, 70, 0
4, 83904, Note_on_c, 0, 74, 106
4, 83904, Note_on_c, 0, 70, 106
4, 83904, Note_on_c, 0, 65, 106
4, 84092, Note_off_c, 0, 74, 0
4, 84092, Note_off_c, 0, 70, 0
4, 84092, Note_off_c, 0, 65, 0
4, 84288, Note_on_c, 0, 74, 106
4, 84380, Note_off_c, 0, 74, 0
4, 84384, Note_on_c, 0, 75, 106
4, 84476, Note_off_c, 0, 75, 0
4, 84480, Note_on_c, 0, 77, 106
4, 84668, Note_off_c, 0, 77, 0
4, 84672, Note_on_c, 0, 82, 106
4, 84860, Note_off_c, 0, 82, 0
4, 84864, Note_on_c, 0, 77, 106
4, 85052, Note_off_c, 0, 77, 0
4, 85056, Note_on_c, 0, 74, 106
4, 85244, Note_off_c, 0, 74, 0
4, 85248, Note_on_c, 0, 79, 106
4, 85340, Note_off_c, 0, 79, 0
4, 85344, Note_on_c, 0, 77, 106
4, 85436, Note_off_c, 0, 77, 0
4, 85440, Note_on_c, 0, 75, 106
4, 85532, Note_off_c, 0, 75, 0
4, 85536, Note_on_c, 0, 74, 106
4, 85628, Note_off_c, 0, 74, 0
4, 85632, Note_on_c, 0, 75, 106
4, 85724, Note_off_c, 0, 75, 0
4, 85728, Note_on_c, 0, 74, 106
4, 85820, Note_off_c, 0, 74, 0
4, 85824, Note_on_c, 0, 72, 106
4, 85916, Note_off_c, 0, 72, 0
4, 85920, Note_on_c, 0, 70, 106
4, 86012, Note_off_c, 0, 70, 0
4, 86016, Note_on_c, 0, 72, 106
4, 86108, Note_off_c, 0, 72, 0
4, 86112, Note_on_c, 0, 70, 106
4, 86204, Note_off_c, 0, 70, 0
4, 86208, Note_on_c, 0, 69, 106
4, 86300, Note_off_c, 0, 69, 0
4, 86304, Note_on_c, 0, 67, 106
4, 86396, Note_off_c, 0, 67, 0
4, 86400, Note_on_c, 0, 69, 106
4, 86492, Note_off_c, 0, 69, 0
4, 86496, Note_on_c, 0, 65, 106
4, 86588, Note_off_c, 0, 65, 0
4, 86688, Note_on_c, 0, 62, 106
4, 86688, Note_on_c, 0, 50, 106
4, 86780, Note_off_c, 0, 62, 0
4, 86780, Note_off_c, 0, 50, 0
4, 86880, Note_on_c, 0, 63, 106
4, 86880, Note_on_c, 0, 51, 106
4, 86972, Note_off_c, 0, 63, 0
4, 86972, Note_off_c, 0, 51, 0
4, 87072, Note_on_c, 0, 65, 106
4, 87072, Note_on_c, 0, 53, 106
4, 87164, Note_off_c, 0, 65, 0
4, 87164, Note_off_c, 0, 53, 0
4, 87264, Note_on_c, 0, 67, 106
4, 87264, Note_on_c, 0, 55, 106
4, 87356, Note_off_c, 0, 67, 0
4, 87356, Note_off_c, 0, 55, 0
4, 87456, Note_on_c, 0, 69, 106
4, 87456, Note_on_c, 0, 57, 106
4, 87548, Note_off_c, 0, 69, 0
4, 87548, Note_off_c, 0, 57, 0
4, 87648, Note_on_c, 0, 70, 106
4, 87648, Note_on_c, 0, 58, 106
4, 87740, Note_off_c, 0, 70, 0
4, 87740, Note_off_c, 0, 58, 0
4, 87840, Note_on_c, 0, 74, 106
4, 87840, Note_on_c, 0, 62, 106
4, 87932, Note_off_c, 0, 74, 0
4, 87932, Note_off_c, 0, 62, 0
4, 88032, Note_on_c, 0, 75, 106
4, 88032, Note_on_c, 0, 63, 106
4, 88124, Note_off_c, 0, 75, 0
4, 88124, Note_off_c, 0, 63, 0
4, 88224, Note_on_c, 0, 77, 106
4, 88224, Note_on_c, 0, 65, 106
4, 88316, Note_off_c, 0, 77, 0
4, 88316, Note_off_c, 0, 65, 0
4, 88416, Note_on_c, 0, 79, 106
4, 88416, Note_on_c, 0, 67, 106
4, 88508, Note_off_c, 0, 79, 0
4, 88508, Note_off_c, 0, 67, 0
4, 88608, Note_on_c, 0, 81, 106
4, 88608, Note_on_c, 0, 69, 106
4, 88700, Note_off_c, 0, 81, 0
4, 88700, Note_off_c, 0, 69, 0
4, 88704, Note_on_c, 0, 70, 106
4, 88704, Note_on_c, 0, 82, 106
4, 89084, Note_off_c, 0, 70, 0
4, 89084, Note_off_c, 0, 82, 0
4, 89088, Note_on_c, 0, 62, 106
4, 89468, Note_off_c, 0, 62, 0
4, 89472, Note_on_c, 0, 65, 106
4, 89852, Note_off_c, 0, 65, 0
4, 89856, Note_on_c, 0, 58, 106
4, 90620, Note_off_c, 0, 58, 0
4, 92160, Note_on_c, 0, 70, 80
4, 92252, Note_off_c, 0, 70, 0
4, 92256, Note_on_c, 0, 67, 80
4, 92348, Note_off_c, 0, 67, 0
4, 92352, Note_on_c, 0, 75, 80
4, 92448, Note_on_c, 0, 70, 80
4, 92540, Note_off_c, 0, 75, 0
4, 92540, Note_off_c, 0, 70, 0
4, 92544, Note_on_c, 0, 68, 80
4, 92640, Note_on_c, 0, 75, 80
4, 92732, Note_off_c, 0, 75, 0
4, 92736, Note_on_c, 0, 74, 80
4, 92828, Note_off_c, 0, 74, 0
4, 92832, Note_on_c, 0, 72, 80
4, 92924, Note_off_c, 0, 68, 0
4, 92924, Note_off_c, 0, 72, 0
4, 92928, Note_on_c, 0, 71, 80
4, 93024, Note_on_c, 0, 68, 80
4, 93116, Note_off_c, 0, 68, 0
4, 93120, Note_on_c, 0, 67, 80
4, 93212, Note_off_c, 0, 67, 0
4, 93216, Note_on_c, 0, 65, 80
4, 93308, Note_off_c, 0, 71, 0
4, 93308, Note_off_c, 0, 65, 0
4, 93312, Note_on_c, 0, 67, 80
4, 93404, Note_off_c, 0, 67, 0
4, 93408, Note_on_c, 0, 65, 80
4, 93408, Note_on_c, 0, 74, 80
4, 93500, Note_off_c, 0, 65, 0
4, 93500, Note_off_c, 0, 74, 0
4, 93504, Note_on_c, 0, 63, 80
4, 93504, Note_on_c, 0, 72, 80
4, 93596, Note_off_c, 0, 63, 0
4, 93596, Note_off_c, 0, 72, 0
4, 93600, Note_on_c, 0, 62, 80
4, 93600, Note_on_c, 0, 71, 80
4, 93692, Note_off_c, 0, 62, 0
4, 93692, Note_off_c, 0, 71, 0
4, 93696, Note_on_c, 0, 60, 80
4, 93696, Note_on_c, 0, 72, 80
4, 93788, Note_off_c, 0, 72, 0
4, 93792, Note_on_c, 0, 67, 80
4, 93884, Note_off_c, 0, 67, 0
4, 93888, Note_on_c, 0, 65, 80
4, 93980, Note_off_c, 0, 65, 0
4, 93984, Note_on_c, 0, 63, 80
4, 94076, Note_off_c, 0, 63, 0
4, 94080, Note_on_c, 0, 62, 80
4, 94172, Note_off_c, 0, 62, 0
4, 94176, Note_on_c, 0, 63, 80
4, 94268, Note_off_c, 0, 60, 0
4, 94268, Note_off_c, 0, 63, 0
4, 94272, Note_on_c, 0, 59, 80
4, 94272, Note_on_c, 0, 65, 80
4, 94364, Note_off_c, 0, 65, 0
4, 94368, Note_on_c, 0, 67, 80
4, 94460, Note_off_c, 0, 59, 0
4, 94460, Note_off_c, 0, 67, 0
4, 94464, Note_on_c, 0, 63, 80
4, 94560, Note_on_c, 0, 67, 80
4, 94652, Note_off_c, 0, 67, 0
4, 94656, Note_on_c, 0, 72, 80
4, 94748, Note_off_c, 0, 72, 0
4, 94752, Note_on_c, 0, 75, 80
4, 94844, Note_off_c, 0, 63, 0
4, 94844, Note_off_c, 0, 75, 0
4, 94848, Note_on_c, 0, 62, 80
4, 94848, Note_on_c, 0, 67, 80
4, 94940, Note_off_c, 0, 67, 0
4, 94944, Note_on_c, 0, 66, 80
4, 95036, Note_off_c, 0, 66, 0
4, 95040, Note_on_c, 0, 63, 80
4, 95132, Note_off_c, 0, 63, 0
4, 95136, Note_on_c, 0, 62, 80
4, 95228, Note_off_c, 0, 62, 0
4, 95232, Note_on_c, 0, 67, 80
4, 95420, Note_off_c, 0, 62, 0
4, 95424, Note_on_c, 0, 63, 80
4, 95516, Note_off_c, 0, 67, 0
4, 95520, Note_on_c, 0, 69, 80
4, 95612, Note_off_c, 0, 63, 0
4, 95612, Note_off_c, 0, 69, 0
4, 95616, Note_on_c, 0, 66, 80
4, 95616, Note_on_c, 0, 60, 80
4, 95628, Note_on_c, 0, 70, 80
4, 95700, Note_on_c, 0, 69, 80
4, 95712, Note_off_c, 0, 70, 0
4, 95740, Note_off_c, 0, 69, 0
4, 95740, Note_on_c, 0, 70, 80
4, 95772, Note_off_c, 0, 70, 0
4, 95776, Note_on_c, 0, 69, 80
4, 95796, Note_on_c, 0, 70, 80
4, 95800, Note_off_c, 0, 69, 0
4, 95828, Note_off_c, 0, 70, 0
4, 95828, Note_on_c, 0, 69, 80
4, 95856, Note_on_c, 0, 70, 80
4, 95864, Note_off_c, 0, 69, 0
4, 95884, Note_off_c, 0, 70, 0
4, 95892, Note_on_c, 0, 69, 80
4, 95920, Note_on_c, 0, 67, 80
4, 95924, Note_off_c, 0, 69, 0
4, 95976, Note_off_c, 0, 67, 0
4, 95996, Note_off_c, 0, 66, 0
4, 95996, Note_off_c, 0, 60, 0
4, 96000, Note_on_c, 0, 69, 80
4, 96000, Note_off_c, 0, 69, 0
4, 96000, Note_on_c, 0, 58, 80
4, 96000, Note_on_c, 0, 62, 80
4, 96012, Note_on_c, 0, 67, 80
4, 96188, Note_off_c, 0, 58, 0
4, 96188, Note_off_c, 0, 62, 0
4, 96200, Note_off_c, 0, 67, 0
4, 112320, Note_on_c, 0, 82, 80
4, 112384, Note_off_c, 0, 82, 0
4, 112416, Note_on_c, 0, 81, 80
4, 112480, Note_off_c, 0, 81, 0
4, 112512, Note_on_c, 0, 79, 80
4, 112604, Note_off_c, 0, 79, 0
4, 112608, Note_on_c, 0, 77, 80
4, 112700, Note_off_c, 0, 77, 0
4, 112704, Note_on_c, 0, 75, 80
4, 112796, Note_off_c, 0, 75, 0
4, 112800, Note_on_c, 0, 74, 80
4, 112864, Note_off_c, 0, 74, 0
4, 112896, Note_on_c, 0, 75, 80
4, 112988, Note_off_c, 0, 75, 0
4, 112992, Note_on_c, 0, 77, 80
4, 113084, Note_off_c, 0, 77, 0
4, 113088, Note_on_c, 0, 79, 80
4, 113180, Note_off_c, 0, 79, 0
4, 113184, Note_on_c, 0, 74, 80
4, 113248, Note_off_c, 0, 74, 0
4, 113280, Note_on_c, 0, 74, 80
4, 113372, Note_off_c, 0, 74, 0
4, 113376, Note_on_c, 0, 73, 80
4, 113468, Note_off_c, 0, 73, 0
4, 113472, Note_on_c, 0, 70, 80
4, 113564, Note_off_c, 0, 70, 0
4, 113568, Note_on_c, 0, 69, 80
4, 113632, Note_off_c, 0, 69, 0
4, 113664, Note_on_c, 0, 74, 80
4, 113760, Note_on_c, 0, 82, 80
4, 113852, Note_off_c, 0, 82, 0
4, 113856, Note_on_c, 0, 81, 80
4, 113948, Note_off_c, 0, 81, 0
4, 113952, Note_on_c, 0, 79, 80
4, 114044, Note_off_c, 0, 79, 0
4, 114048, Note_on_c, 0, 77, 80
4, 114076, Note_on_c, 0, 79, 80
4, 114088, Note_off_c, 0, 77, 0
4, 114096, Note_on_c, 0, 77, 80
4, 114116, Note_off_c, 0, 79, 0
4, 114116, Note_on_c, 0, 79, 80
4, 114136, Note_off_c, 0, 77, 0
4, 114148, Note_on_c, 0, 77, 80
4, 114156, Note_off_c, 0, 79, 0
4, 114236, Note_off_c, 0, 74, 0
4, 114240, Note_off_c, 0, 77, 0
4, 114240, Note_on_c, 0, 76, 80
4, 114240, Note_on_c, 0, 73, 80
4, 114332, Note_off_c, 0, 76, 0
4, 114336, Note_on_c, 0, 74, 80
4, 114428, Note_off_c, 0, 73, 0
4, 114428, Note_off_c, 0, 74, 0
4, 114432, Note_on_c, 0, 74, 80
4, 114524, Note_off_c, 0, 74, 0
4, 114528, Note_on_c, 0, 69, 80
4, 114620, Note_off_c, 0, 69, 0
4, 114624, Note_on_c, 0, 70, 80
4, 114716, Note_off_c, 0, 70, 0
4, 114720, Note_on_c, 0, 72, 80
4, 114812, Note_off_c, 0, 72, 0
4, 114816, Note_on_c, 0, 67, 80
4, 114908, Note_off_c, 0, 67, 0
4, 114912, Note_on_c, 0, 66, 80
4, 115004, Note_off_c, 0, 66, 0
4, 115008, Note_on_c, 0, 63, 80
4, 115100, Note_off_c, 0, 63, 0
4, 115104, Note_on_c, 0, 62, 80
4, 115196, Note_off_c, 0, 62, 0
4, 115200, Note_on_c, 0, 67, 80
4, 115296, Note_on_c, 0, 75, 80
4, 115388, Note_off_c, 0, 75, 0
4, 115392, Note_on_c, 0, 74, 80
4, 115484, Note_off_c, 0, 74, 0
4, 115488, Note_on_c, 0, 72, 80
4, 115580, Note_off_c, 0, 72, 0
4, 115584, Note_on_c, 0, 70, 80
4, 115612, Note_on_c, 0, 72, 80
4, 115624, Note_off_c, 0, 70, 0
4, 115632, Note_on_c, 0, 70, 80
4, 115652, Note_off_c, 0, 72, 0
4, 115652, Note_on_c, 0, 72, 80
4, 115672, Note_off_c, 0, 70, 0
4, 115684, Note_on_c, 0, 70, 80
4, 115692, Note_off_c, 0, 72, 0
4, 115772, Note_off_c, 0, 67, 0
4, 115776, Note_off_c, 0, 70, 0
4, 115776, Note_on_c, 0, 69, 80
4, 115776, Note_on_c, 0, 66, 80
4, 115868, Note_off_c, 0, 69, 0
4, 115872, Note_on_c, 0, 67, 80
4, 115964, Note_off_c, 0, 66, 0
4, 115964, Note_off_c, 0, 67, 0
4, 115968, Note_on_c, 0, 67, 80
4, 116096, Note_off_c, 0, 67, 0
4, 116160, Note_on_c, 0, 67, 100
4, 116288, Note_off_c, 0, 67, 0
4, 116352, Note_on_c, 0, 67, 100
4, 116480, Note_off_c, 0, 67, 0
4, 116544, Note_on_c, 0, 69, 100
4, 116672, Note_off_c, 0, 69, 0
4, 116736, Note_on_c, 0, 70, 100
4, 116864, Note_off_c, 0, 70, 0
4, 116928, Note_on_c, 0, 67, 100
4, 117056, Note_off_c, 0, 67, 0
4, 117120, Note_on_c, 0, 70, 100
4, 117248, Note_off_c, 0, 70, 0
4, 117312, Note_on_c, 0, 72, 100
4, 117440, Note_off_c, 0, 72, 0
4, 117504, Note_on_c, 0, 74, 100
4, 117632, Note_off_c, 0, 74, 0
4, 117696, Note_on_c, 0, 62, 100
4, 117696, Note_on_c, 0, 74, 100
4, 117788, Note_off_c, 0, 74, 0
4, 117792, Note_on_c, 0, 75, 100
4, 117824, Note_off_c, 0, 62, 0
4, 117884, Note_off_c, 0, 75, 0
4, 117888, Note_on_c, 0, 62, 100
4, 117888, Note_on_c, 0, 74, 100
4, 117980, Note_off_c, 0, 74, 0
4, 117984, Note_on_c, 0, 72, 100
4, 118016, Note_off_c, 0, 62, 0
4, 118076, Note_off_c, 0, 72, 0
4, 118080, Note_on_c, 0, 62, 100
4, 118080, Note_on_c, 0, 70, 100
4, 118172, Note_off_c, 0, 70, 0
4, 118176, Note_on_c, 0, 69, 100
4, 118208, Note_off_c, 0, 62, 0
4, 118268, Note_off_c, 0, 69, 0
4, 118272, Note_on_c, 0, 67, 100
4, 118272, Note_on_c, 0, 64, 100
4, 118460, Note_off_c, 0, 67, 0
4, 118460, Note_off_c, 0, 64, 0
4, 118464, Note_on_c, 0, 69, 100
4, 118464, Note_on_c, 0, 62, 100
4, 118556, Note_off_c, 0, 69, 0
4, 118560, Note_on_c, 0, 70, 100
4, 118652, Note_off_c, 0, 62, 0
4, 118652, Note_off_c, 0, 70, 0
4, 118656, Note_on_c, 0, 72, 100
4, 118656, Note_on_c, 0, 64, 100
4, 118784, Note_off_c, 0, 72, 0
4, 118844, Note_off_c, 0, 64, 0
4, 118848, Note_on_c, 0, 72, 100
4, 118848, Note_on_c, 0, 66, 100
4, 118976, Note_off_c, 0, 72, 0
4, 119036, Note_off_c, 0, 66, 0
4, 119040, Note_on_c, 0, 67, 100
4, 119136, Note_on_c, 0, 72, 100
4, 119228, Note_off_c, 0, 67, 0
4, 119228, Note_off_c, 0, 72, 0
4, 119232, Note_on_c, 0, 62, 100
4, 119232, Note_on_c, 0, 70, 100
4, 119324, Note_off_c, 0, 70, 0
4, 119328, Note_on_c, 0, 69, 100
4, 119420, Note_off_c, 0, 62, 0
4, 119420, Note_off_c, 0, 69, 0
4, 119424, Note_on_c, 0, 67, 100
4, 119424, Note_on_c, 0, 70, 100
4, 119552, Note_off_c, 0, 67, 0
4, 119552, Note_off_c, 0, 70, 0
4, 119616, Note_on_c, 0, 67, 100
4, 119616, Note_on_c, 0, 70, 100
4, 119744, Note_off_c, 0, 70, 0
4, 119804, Note_off_c, 0, 67, 0
4, 119808, Note_on_c, 0, 69, 100
4, 119904, Note_on_c, 0, 67, 100
4, 119996, Note_off_c, 0, 67, 0
4, 120000, Note_on_c, 0, 66, 100
4, 120092, Note_off_c, 0, 66, 0
4, 120096, Note_on_c, 0, 64, 100
4, 120188, Note_off_c, 0, 69, 0
4, 120188, Note_off_c, 0, 64, 0
4, 120192, Note_on_c, 0, 66, 100
4, 120288, Note_on_c, 0, 75, 100
4, 120380, Note_off_c, 0, 75, 0
4, 120384, Note_on_c, 0, 74, 100
4, 120476, Note_off_c, 0, 74, 0
4, 120480, Note_on_c, 0, 72, 100
4, 120572, Note_off_c, 0, 66, 0
4, 120572, Note_off_c, 0, 72, 0
4, 120576, Note_on_c, 0, 67, 100
4, 120576, Note_on_c, 0, 70, 100
4, 120640, Note_off_c, 0, 70, 0
4, 120704, Note_off_c, 0, 67, 0
4, 126912, Note_on_c, 0, 77, 100
4, 127040, Note_off_c, 0, 77, 0
4, 127104, Note_on_c, 0, 77, 100
4, 127232, Note_off_c, 0, 77, 0
4, 127296, Note_on_c, 0, 79, 100
4, 127424, Note_off_c, 0, 79, 0
4, 127488, Note_on_c, 0, 81, 100
4, 127616, Note_off_c, 0, 81, 0
4, 127680, Note_on_c, 0, 77, 100
4, 127808, Note_off_c, 0, 77, 0
4, 127872, Note_on_c, 0, 79, 100
4, 128000, Note_off_c, 0, 79, 0
4, 128064, Note_on_c, 0, 81, 100
4, 128192, Note_off_c, 0, 81, 0
4, 128256, Note_on_c, 0, 82, 100
4, 128348, Note_off_c, 0, 82, 0
4, 128352, Note_on_c, 0, 77, 100
4, 128444, Note_off_c, 0, 77, 0
4, 128448, Note_on_c, 0, 79, 100
4, 128540, Note_off_c, 0, 79, 0
4, 128544, Note_on_c, 0, 81, 100
4, 128636, Note_off_c, 0, 81, 0
4, 128640, Note_on_c, 0, 82, 100
4, 128732, Note_off_c, 0, 82, 0
4, 128736, Note_on_c, 0, 77, 100
4, 128828, Note_off_c, 0, 77, 0
4, 128832, Note_on_c, 0, 75, 100
4, 128924, Note_off_c, 0, 75, 0
4, 128928, Note_on_c, 0, 74, 100
4, 129020, Note_off_c, 0, 74, 0
4, 129024, Note_on_c, 0, 72, 100
4, 129088, Note_off_c, 0, 72, 0
4, 129120, Note_on_c, 0, 82, 100
4, 129212, Note_off_c, 0, 82, 0
4, 129216, Note_on_c, 0, 81, 100
4, 129308, Note_off_c, 0, 81, 0
4, 129312, Note_on_c, 0, 79, 100
4, 129404, Note_off_c, 0, 79, 0
4, 129408, Note_on_c, 0, 81, 100
4, 129472, Note_off_c, 0, 81, 0
4, 129504, Note_on_c, 0, 72, 100
4, 129568, Note_off_c, 0, 72, 0
4, 129600, Note_on_c, 0, 81, 100
4, 129664, Note_off_c, 0, 81, 0
4, 129696, Note_on_c, 0, 72, 100
4, 129760, Note_off_c, 0, 72, 0
4, 129792, Note_on_c, 0, 70, 100
4, 129856, Note_off_c, 0, 70, 0
4, 129888, Note_on_c, 0, 81, 100
4, 129980, Note_off_c, 0, 81, 0
4, 129984, Note_on_c, 0, 79, 100
4, 130076, Note_off_c, 0, 79, 0
4, 130080, Note_on_c, 0, 78, 100
4, 130172, Note_off_c, 0, 78, 0
4, 130176, Note_on_c, 0, 79, 100
4, 130240, Note_off_c, 0, 79, 0
4, 130272, Note_on_c, 0, 70, 100
4, 130336, Note_off_c, 0, 70, 0
4, 130368, Note_on_c, 0, 79, 100
4, 130432, Note_off_c, 0, 79, 0
4, 130464, Note_on_c, 0, 70, 100
4, 130528, Note_off_c, 0, 70, 0
4, 130560, Note_on_c, 0, 69, 100
4, 130624, Note_off_c, 0, 69, 0
4, 130656, Note_on_c, 0, 79, 100
4, 130748, Note_off_c, 0, 79, 0
4, 130752, Note_on_c, 0, 77, 100
4, 130844, Note_off_c, 0, 77, 0
4, 130848, Note_on_c, 0, 76, 100
4, 130940, Note_off_c, 0, 76, 0
4, 130944, Note_on_c, 0, 77, 100
4, 131036, Note_off_c, 0, 77, 0
4, 131040, Note_on_c, 0, 69, 100
4, 131132, Note_off_c, 0, 69, 0
4, 131136, Note_on_c, 0, 70, 100
4, 131228, Note_off_c, 0, 70, 0
4, 131232, Note_on_c, 0, 72, 100
4, 131324, Note_off_c, 0, 72, 0
4, 131328, Note_on_c, 0, 74, 100
4, 131392, Note_off_c, 0, 74, 0
4, 131424, Note_on_c, 0, 82, 100
4, 131488, Note_off_c, 0, 82, 0
4, 131520, Note_on_c, 0, 72, 100
4, 131584, Note_off_c, 0, 72, 0
4, 131616, Note_on_c, 0, 81, 100
4, 131680, Note_off_c, 0, 81, 0
4, 131712, Note_on_c, 0, 70, 100
4, 131776, Note_off_c, 0, 70, 0
4, 131808, Note_on_c, 0, 79, 100
4, 131872, Note_off_c, 0, 79, 0
4, 131904, Note_on_c, 0, 69, 100
4, 131968, Note_off_c, 0, 69, 0
4, 132000, Note_on_c, 0, 77, 100
4, 132064, Note_off_c, 0, 77, 0
4, 132096, Note_on_c, 0, 67, 100
4, 132188, Note_off_c, 0, 67, 0
4, 132192, Note_on_c, 0, 70, 100
4, 132284, Note_off_c, 0, 70, 0
4, 132288, Note_on_c, 0, 77, 100
4, 132380, Note_off_c, 0, 77, 0
4, 132384, Note_on_c, 0, 70, 100
4, 132448, Note_off_c, 0, 70, 0
4, 132480, Note_on_c, 0, 67, 100
4, 132572, Note_off_c, 0, 67, 0
4, 132576, Note_on_c, 0, 70, 100
4, 132668, Note_off_c, 0, 70, 0
4, 132672, Note_on_c, 0, 76, 100
4, 132764, Note_off_c, 0, 76, 0
4, 132768, Note_on_c, 0, 70, 100
4, 132832, Note_off_c, 0, 70, 0
4, 139968, Note_on_c, 0, 77, 100
4, 140096, Note_off_c, 0, 77, 0
4, 140160, Note_on_c, 0, 77, 100
4, 140288, Note_off_c, 0, 77, 0
4, 140352, Note_on_c, 0, 79, 100
4, 140480, Note_off_c, 0, 79, 0
4, 140544, Note_on_c, 0, 81, 100
4, 140672, Note_off_c, 0, 81, 0
4, 140736, Note_on_c, 0, 77, 100
4, 140864, Note_off_c, 0, 77, 0
4, 140928, Note_on_c, 0, 81, 100
4, 141056, Note_off_c, 0, 81, 0
4, 141120, Note_on_c, 0, 82, 100
4, 141248, Note_off_c, 0, 82, 0
4, 141312, Note_on_c, 0, 84, 100
4, 141404, Note_off_c, 0, 84, 0
4, 141408, Note_on_c, 0, 82, 100
4, 141500, Note_off_c, 0, 82, 0
4, 141504, Note_on_c, 0, 81, 100
4, 141596, Note_off_c, 0, 81, 0
4, 141600, Note_on_c, 0, 82, 100
4, 141692, Note_off_c, 0, 82, 0
4, 141696, Note_on_c, 0, 84, 100
4, 141760, Note_off_c, 0, 84, 0
4, 141792, Note_on_c, 0, 79, 100
4, 141884, Note_off_c, 0, 79, 0
4, 141888, Note_on_c, 0, 77, 100
4, 141980, Note_off_c, 0, 77, 0
4, 141984, Note_on_c, 0, 75, 100
4, 142076, Note_off_c, 0, 75, 0
4, 142080, Note_on_c, 0, 74, 100
4, 142144, Note_off_c, 0, 74, 0
4, 142176, Note_on_c, 0, 84, 100
4, 142268, Note_off_c, 0, 84, 0
4, 142272, Note_on_c, 0, 82, 100
4, 142364, Note_off_c, 0, 82, 0
4, 142368, Note_on_c, 0, 81, 100
4, 142460, Note_off_c, 0, 81, 0
4, 142464, Note_on_c, 0, 82, 100
4, 142528, Note_off_c, 0, 82, 0
4, 142560, Note_on_c, 0, 74, 100
4, 142624, Note_off_c, 0, 74, 0
4, 142656, Note_on_c, 0, 82, 100
4, 142720, Note_off_c, 0, 82, 0
4, 142752, Note_on_c, 0, 74, 100
4, 142816, Note_off_c, 0, 74, 0
4, 142848, Note_on_c, 0, 72, 100
4, 142912, Note_off_c, 0, 72, 0
4, 142944, Note_on_c, 0, 82, 100
4, 143036, Note_off_c, 0, 82, 0
4, 143040, Note_on_c, 0, 81, 100
4, 143132, Note_off_c, 0, 81, 0
4, 143136, Note_on_c, 0, 79, 100
4, 143228, Note_off_c, 0, 79, 0
4, 143232, Note_on_c, 0, 81, 100
4, 143296, Note_off_c, 0, 81, 0
4, 143328, Note_on_c, 0, 72, 100
4, 143392, Note_off_c, 0, 72, 0
4, 143424, Note_on_c, 0, 81, 100
4, 143488, Note_off_c, 0, 81, 0
4, 143520, Note_on_c, 0, 72, 100
4, 143584, Note_off_c, 0, 72, 0
4, 143616, Note_on_c, 0, 70, 100
4, 143680, Note_off_c, 0, 70, 0
4, 143712, Note_on_c, 0, 81, 100
4, 143804, Note_off_c, 0, 81, 0
4, 143808, Note_on_c, 0, 79, 100
4, 143900, Note_off_c, 0, 79, 0
4, 143904, Note_on_c, 0, 77, 100
4, 143996, Note_off_c, 0, 77, 0
4, 144000, Note_on_c, 0, 79, 100
4, 144064, Note_off_c, 0, 79, 0
4, 144096, Note_on_c, 0, 70, 100
4, 144160, Note_off_c, 0, 70, 0
4, 144192, Note_on_c, 0, 79, 100
4, 144256, Note_off_c, 0, 79, 0
4, 144288, Note_on_c, 0, 70, 100
4, 144352, Note_off_c, 0, 70, 0
4, 144384, Note_on_c, 0, 69, 100
4, 144476, Note_off_c, 0, 69, 0
4, 144480, Note_on_c, 0, 79, 100
4, 144572, Note_off_c, 0, 79, 0
4, 144576, Note_on_c, 0, 77, 100
4, 144668, Note_off_c, 0, 77, 0
4, 144672, Note_on_c, 0, 76, 100
4, 144764, Note_off_c, 0, 76, 0
4, 144768, Note_on_c, 0, 77, 100
4, 144860, Note_off_c, 0, 77, 0
4, 144864, Note_on_c, 0, 69, 100
4, 144956, Note_off_c, 0, 69, 0
4, 144960, Note_on_c, 0, 77, 100
4, 145052, Note_off_c, 0, 77, 0
4, 145056, Note_on_c, 0, 69, 100
4, 145148, Note_off_c, 0, 69, 0
4, 145152, Note_on_c, 0, 67, 100
4, 145244, Note_off_c, 0, 67, 0
4, 145248, Note_on_c, 0, 70, 100
4, 145340, Note_off_c, 0, 70, 0
4, 145344, Note_on_c, 0, 77, 100
4, 145436, Note_off_c, 0, 77, 0
4, 145440, Note_on_c, 0, 70, 100
4, 145504, Note_off_c, 0, 70, 0
4, 145536, Note_on_c, 0, 67, 100
4, 145628, Note_off_c, 0, 67, 0
4, 145632, Note_on_c, 0, 70, 100
4, 145724, Note_off_c, 0, 70, 0
4, 145728, Note_on_c, 0, 76, 100
4, 145820, Note_off_c, 0, 76, 0
4, 145824, Note_on_c, 0, 70, 100
4, 145888, Note_off_c, 0, 70, 0
4, 156864, Note_on_c, 0, 69, 100
4, 156992, Note_off_c, 0, 69, 0
4, 157056, Note_on_c, 0, 69, 100
4, 157184, Note_off_c, 0, 69, 0
4, 157248, Note_on_c, 0, 71, 100
4, 157376, Note_off_c, 0, 71, 0
4, 157440, Note_on_c, 0, 72, 100
4, 157568, Note_off_c, 0, 72, 0
4, 157632, Note_on_c, 0, 69, 100
4, 157820, Note_off_c, 0, 69, 0
4, 157824, Note_on_c, 0, 72, 100
4, 158012, Note_off_c, 0, 72, 0
4, 158016, Note_on_c, 0, 74, 100
4, 158204, Note_off_c, 0, 74, 0
4, 166848, Note_on_c, 0, 67, 100
4, 166976, Note_off_c, 0, 67, 0
4, 167040, Note_on_c, 0, 67, 100
4, 167168, Note_off_c, 0, 67, 0
4, 167232, Note_on_c, 0, 69, 100
4, 167360, Note_off_c, 0, 69, 0
4, 167424, Note_on_c, 0, 70, 100
4, 167552, Note_off_c, 0, 70, 0
4, 167616, Note_on_c, 0, 67, 100
4, 167804, Note_off_c, 0, 67, 0
4, 167808, Note_on_c, 0, 70, 100
4, 167996, Note_off_c, 0, 70, 0
4, 168000, Note_on_c, 0, 72, 100
4, 168188, Note_off_c, 0, 72, 0
4, 168192, Note_on_c, 0, 74, 100
4, 168236, Note_off_c, 0, 74, 0
4, 168240, Note_on_c, 0, 72, 100
4, 168284, Note_off_c, 0, 72, 0
4, 168288, Note_on_c, 0, 74, 100
4, 168384, Note_on_c, 0, 62, 100
4, 168428, Note_off_c, 0, 74, 0
4, 168480, Note_on_c, 0, 75, 100
4, 168512, Note_off_c, 0, 62, 0
4, 168572, Note_off_c, 0, 75, 0
4, 168576, Note_on_c, 0, 62, 100
4, 168576, Note_on_c, 0, 74, 100
4, 168668, Note_off_c, 0, 74, 0
4, 168672, Note_on_c, 0, 72, 100
4, 168704, Note_off_c, 0, 62, 0
4, 168764, Note_off_c, 0, 72, 0
4, 168768, Note_on_c, 0, 62, 100
4, 168768, Note_on_c, 0, 70, 100
4, 168860, Note_off_c, 0, 70, 0
4, 168864, Note_on_c, 0, 69, 100
4, 168896, Note_off_c, 0, 62, 0
4, 168956, Note_off_c, 0, 69, 0
4, 168960, Note_on_c, 0, 67, 100
4, 168960, Note_on_c, 0, 64, 100
4, 169148, Note_off_c, 0, 67, 0
4, 169148, Note_off_c, 0, 64, 0
4, 169152, Note_on_c, 0, 69, 100
4, 169152, Note_on_c, 0, 62, 100
4, 169244, Note_off_c, 0, 69, 0
4, 169248, Note_on_c, 0, 70, 100
4, 169340, Note_off_c, 0, 62, 0
4, 169340, Note_off_c, 0, 70, 0
4, 169344, Note_on_c, 0, 64, 100
4, 169344, Note_on_c, 0, 72, 100
4, 169472, Note_off_c, 0, 64, 0
4, 169472, Note_off_c, 0, 72, 0
4, 169536, Note_on_c, 0, 66, 100
4, 169536, Note_on_c, 0, 72, 100
4, 169664, Note_off_c, 0, 66, 0
4, 169664, Note_off_c, 0, 72, 0
4, 169728, Note_on_c, 0, 67, 100
4, 169824, Note_on_c, 0, 72, 100
4, 169856, Note_off_c, 0, 67, 0
4, 169888, Note_off_c, 0, 72, 0
4, 169920, Note_on_c, 0, 62, 100
4, 169920, Note_on_c, 0, 70, 100
4, 169984, Note_off_c, 0, 70, 0
4, 170016, Note_on_c, 0, 69, 100
4, 170048, Note_off_c, 0, 62, 0
4, 170080, Note_off_c, 0, 69, 0
4, 170112, Note_on_c, 0, 67, 100
4, 170112, Note_on_c, 0, 70, 100
4, 170240, Note_off_c, 0, 67, 0
4, 170240, Note_off_c, 0, 70, 0
4, 170304, Note_on_c, 0, 67, 100
4, 170304, Note_on_c, 0, 70, 100
4, 170432, Note_off_c, 0, 67, 0
4, 170432, Note_off_c, 0, 70, 0
4, 170496, Note_on_c, 0, 69, 100
4, 170592, Note_on_c, 0, 67, 100
4, 170684, Note_off_c, 0, 67, 0
4, 170688, Note_on_c, 0, 66, 100
4, 170780, Note_off_c, 0, 66, 0
4, 170784, Note_on_c, 0, 64, 100
4, 170876, Note_off_c, 0, 69, 0
4, 170876, Note_off_c, 0, 64, 0
4, 170880, Note_on_c, 0, 66, 100
4, 170976, Note_on_c, 0, 75, 100
4, 171068, Note_off_c, 0, 75, 0
4, 171072, Note_on_c, 0, 74, 100
4, 171164, Note_off_c, 0, 74, 0
4, 171168, Note_on_c, 0, 72, 100
4, 171232, Note_off_c, 0, 72, 0
4, 171260, Note_off_c, 0, 66, 0
4, 177600, Note_on_c, 0, 77, 100
4, 177728, Note_off_c, 0, 77, 0
4, 177792, Note_on_c, 0, 77, 100
4, 177980, Note_off_c, 0, 77, 0
4, 177984, Note_on_c, 0, 82, 100
4, 178172, Note_off_c, 0, 82, 0
4, 178176, Note_on_c, 0, 74, 100
4, 178304, Note_off_c, 0, 74, 0
4, 178368, Note_on_c, 0, 75, 100
4, 178556, Note_off_c, 0, 75, 0
4, 178560, Note_on_c, 0, 79, 100
4, 178748, Note_off_c, 0, 79, 0
4, 178752, Note_on_c, 0, 72, 100
4, 178880, Note_off_c, 0, 72, 0
4, 178944, Note_on_c, 0, 74, 100
4, 179132, Note_off_c, 0, 74, 0
4, 179136, Note_on_c, 0, 77, 100
4, 179324, Note_off_c, 0, 77, 0
4, 179328, Note_on_c, 0, 69, 100
4, 179516, Note_off_c, 0, 69, 0
4, 179520, Note_on_c, 0, 70, 100
4, 179776, Note_off_c, 0, 70, 0
4, 179904, Note_on_c, 0, 72, 100
4, 180032, Note_off_c, 0, 72, 0
4, 180096, Note_on_c, 0, 74, 100
4, 180284, Note_off_c, 0, 74, 0
4, 180288, Note_on_c, 0, 75, 100
4, 180476, Note_off_c, 0, 75, 0
4, 180480, Note_on_c, 0, 77, 100
4, 180668, Note_off_c, 0, 77, 0
4, 180672, Note_on_c, 0, 75, 100
4, 180860, Note_off_c, 0, 75, 0
4, 180864, Note_on_c, 0, 77, 100
4, 181052, Note_off_c, 0, 77, 0
4, 181056, Note_on_c, 0, 79, 100
4, 181244, Note_off_c, 0, 79, 0
4, 181248, Note_on_c, 0, 77, 100
4, 181436, Note_off_c, 0, 77, 0
4, 181440, Note_on_c, 0, 79, 100
4, 181628, Note_off_c, 0, 79, 0
4, 181632, Note_on_c, 0, 81, 100
4, 181820, Note_off_c, 0, 81, 0
4, 181824, Note_on_c, 0, 79, 100
4, 182012, Note_off_c, 0, 79, 0
4, 182016, Note_on_c, 0, 81, 100
4, 182204, Note_off_c, 0, 81, 0
4, 182208, Note_on_c, 0, 82, 100
4, 182396, Note_off_c, 0, 82, 0
4, 182400, Note_on_c, 0, 81, 100
4, 182588, Note_off_c, 0, 81, 0
4, 182592, Note_on_c, 0, 79, 100
4, 182780, Note_off_c, 0, 79, 0
4, 182784, Note_on_c, 0, 77, 100
4, 182912, Note_off_c, 0, 77, 0
4, 182976, Note_on_c, 0, 77, 100
4, 183164, Note_off_c, 0, 77, 0
4, 183168, Note_on_c, 0, 79, 100
4, 183356, Note_off_c, 0, 79, 0
4, 183360, Note_on_c, 0, 76, 100
4, 183548, Note_off_c, 0, 76, 0
4, 183552, Note_on_c, 0, 77, 100
4, 183680, Note_off_c, 0, 77, 0
4, 183744, Note_on_c, 0, 81, 100
4, 183808, Note_off_c, 0, 81, 0
4, 183840, Note_on_c, 0, 79, 100
4, 183904, Note_off_c, 0, 79, 0
4, 183936, Note_on_c, 0, 77, 100
4, 184064, Note_off_c, 0, 77, 0
4, 184128, Note_on_c, 0, 77, 100
4, 184256, Note_off_c, 0, 77, 0
4, 184320, Note_on_c, 0, 81, 100
4, 184384, Note_off_c, 0, 81, 0
4, 184416, Note_on_c, 0, 79, 100
4, 184480, Note_off_c, 0, 79, 0
4, 184512, Note_on_c, 0, 77, 100
4, 184640, Note_off_c, 0, 77, 0
4, 184704, Note_on_c, 0, 79, 100
4, 184832, Note_off_c, 0, 79, 0
4, 184896, Note_on_c, 0, 82, 100
4, 184960, Note_off_c, 0, 82, 0
4, 184992, Note_on_c, 0, 81, 100
4, 185056, Note_off_c, 0, 81, 0
4, 185088, Note_on_c, 0, 79, 100
4, 185216, Note_off_c, 0, 79, 0
4, 185280, Note_on_c, 0, 79, 100
4, 185408, Note_off_c, 0, 79, 0
4, 185472, Note_on_c, 0, 82, 100
4, 185536, Note_off_c, 0, 82, 0
4, 185568, Note_on_c, 0, 81, 100
4, 185632, Note_off_c, 0, 81, 0
4, 185664, Note_on_c, 0, 79, 100
4, 185792, Note_off_c, 0, 79, 0
4, 185856, Note_on_c, 0, 81, 100
4, 186044, Note_off_c, 0, 81, 0
4, 186048, Note_on_c, 0, 77, 100
4, 186140, Note_off_c, 0, 77, 0
4, 186144, Note_on_c, 0, 79, 100
4, 186236, Note_off_c, 0, 79, 0
4, 186240, Note_on_c, 0, 81, 100
4, 186368, Note_off_c, 0, 81, 0
4, 186432, Note_on_c, 0, 79, 100
4, 186620, Note_off_c, 0, 79, 0
4, 186624, Note_on_c, 0, 76, 100
4, 186716, Note_off_c, 0, 76, 0
4, 186720, Note_on_c, 0, 77, 100
4, 186812, Note_off_c, 0, 77, 0
4, 186816, Note_on_c, 0, 79, 100
4, 186944, Note_off_c, 0, 79, 0
4, 187008, Note_on_c, 0, 77, 100
4, 187196, Note_off_c, 0, 77, 0
4, 187200, Note_on_c, 0, 74, 100
4, 187292, Note_off_c, 0, 74, 0
4, 187296, Note_on_c, 0, 76, 100
4, 187388, Note_off_c, 0, 76, 0
4, 187392, Note_on_c, 0, 77, 100
4, 187520, Note_off_c, 0, 77, 0
4, 187584, Note_on_c, 0, 76, 100
4, 187772, Note_off_c, 0, 76, 0
4, 187776, Note_on_c, 0, 72, 100
4, 187868, Note_off_c, 0, 72, 0
4, 187872, Note_on_c, 0, 74, 100
4, 187964, Note_off_c, 0, 74, 0
4, 187968, Note_on_c, 0, 76, 100
4, 188096, Note_off_c, 0, 76, 0
4, 188160, Note_on_c, 0, 74, 100
4, 188348, Note_off_c, 0, 74, 0
4, 188352, Note_on_c, 0, 70, 100
4, 188444, Note_off_c, 0, 70, 0
4, 188448, Note_on_c, 0, 72, 100
4, 188540, Note_off_c, 0, 72, 0
4, 188544, Note_on_c, 0, 74, 100
4, 188672, Note_off_c, 0, 74, 0
4, 188736, Note_on_c, 0, 72, 100
4, 188924, Note_off_c, 0, 72, 0
4, 188928, Note_on_c, 0, 69, 100
4, 189020, Note_off_c, 0, 69, 0
4, 189024, Note_on_c, 0, 70, 100
4, 189116, Note_off_c, 0, 70, 0
4, 189120, Note_on_c, 0, 72, 100
4, 189248, Note_off_c, 0, 72, 0
4, 189312, Note_on_c, 0, 70, 100
4, 189500, Note_off_c, 0, 70, 0
4, 189504, Note_on_c, 0, 74, 100
4, 189596, Note_off_c, 0, 74, 0
4, 189600, Note_on_c, 0, 72, 100
4, 189692, Note_off_c, 0, 72, 0
4, 189696, Note_on_c, 0, 70, 100
4, 189788, Note_off_c, 0, 70, 0
4, 189792, Note_on_c, 0, 69, 100
4, 189884, Note_off_c, 0, 69, 0
4, 189888, Note_on_c, 0, 70, 100
4, 190076, Note_off_c, 0, 70, 0
4, 190080, Note_on_c, 0, 74, 100
4, 190172, Note_off_c, 0, 74, 0
4, 190176, Note_on_c, 0, 72, 100
4, 190268, Note_off_c, 0, 72, 0
4, 190272, Note_on_c, 0, 70, 100
4, 190364, Note_off_c, 0, 70, 0
4, 190368, Note_on_c, 0, 69, 100
4, 190460, Note_off_c, 0, 69, 0
4, 190464, Note_on_c, 0, 70, 100
4, 190464, Note_on_c, 0, 76, 100
4, 190652, Note_off_c, 0, 70, 0
4, 190656, Note_on_c, 0, 67, 100
4, 190748, Note_off_c, 0, 67, 0
4, 190752, Note_on_c, 0, 69, 100
4, 190844, Note_off_c, 0, 69, 0
4, 190848, Note_on_c, 0, 70, 100
4, 190976, Note_off_c, 0, 70, 0
4, 191040, Note_on_c, 0, 70, 100
4, 191228, Note_off_c, 0, 70, 0
4, 191232, Note_on_c, 0, 67, 100
4, 191324, Note_off_c, 0, 67, 0
4, 191328, Note_on_c, 0, 69, 100
4, 191420, Note_off_c, 0, 69, 0
4, 191424, Note_on_c, 0, 70, 100
4, 191552, Note_off_c, 0, 70, 0
4, 191616, Note_on_c, 0, 70, 100
4, 191744, Note_off_c, 0, 76, 0
4, 191808, Note_on_c, 0, 79, 100
4, 191900, Note_off_c, 0, 79, 0
4, 191904, Note_on_c, 0, 77, 100
4, 191996, Note_off_c, 0, 77, 0
4, 192000, Note_on_c, 0, 76, 100
4, 192092, Note_off_c, 0, 76, 0
4, 192096, Note_on_c, 0, 74, 100
4, 192188, Note_off_c, 0, 74, 0
4, 192192, Note_on_c, 0, 76, 100
4, 192380, Note_off_c, 0, 76, 0
4, 192384, Note_on_c, 0, 79, 100
4, 192476, Note_off_c, 0, 79, 0
4, 192480, Note_on_c, 0, 77, 100
4, 192572, Note_off_c, 0, 77, 0
4, 192576, Note_on_c, 0, 76, 100
4, 192668, Note_off_c, 0, 76, 0
4, 192672, Note_on_c, 0, 74, 100
4, 192764, Note_off_c, 0, 70, 0
4, 192764, Note_off_c, 0, 74, 0
4, 192768, Note_on_c, 0, 76, 100
4, 192768, Note_on_c, 0, 82, 119
4, 192956, Note_off_c, 0, 76, 0
4, 192960, Note_on_c, 0, 72, 100
4, 193052, Note_off_c, 0, 72, 0
4, 193056, Note_on_c, 0, 74, 100
4, 193148, Note_off_c, 0, 74, 0
4, 193152, Note_on_c, 0, 76, 100
4, 193280, Note_off_c, 0, 76, 0
4, 193344, Note_on_c, 0, 76, 100
4, 193532, Note_off_c, 0, 76, 0
4, 193536, Note_on_c, 0, 72, 100
4, 193628, Note_off_c, 0, 72, 0
4, 193632, Note_on_c, 0, 74, 100
4, 193724, Note_off_c, 0, 74, 0
4, 193728, Note_on_c, 0, 76, 100
4, 193856, Note_off_c, 0, 76, 0
4, 193916, Note_off_c, 0, 82, 0
4, 193920, Note_on_c, 0, 77, 100
4, 193920, Note_on_c, 0, 81, 100
4, 194048, Note_off_c, 0, 81, 0
4, 194112, Note_on_c, 0, 79, 100
4, 194176, Note_off_c, 0, 77, 0
4, 194240, Note_off_c, 0, 79, 0
4, 194304, Note_on_c, 0, 77, 100
4, 194432, Note_off_c, 0, 77, 0
4, 194496, Note_on_c, 0, 72, 100
4, 194624, Note_off_c, 0, 72, 0
4, 194688, Note_on_c, 0, 77, 100
4, 194816, Note_off_c, 0, 77, 0
4, 194880, Note_on_c, 0, 76, 100
4, 195008, Note_off_c, 0, 76, 0
4, 195072, Note_on_c, 0, 77, 100
4, 195260, Note_off_c, 0, 77, 0
4, 195264, Note_on_c, 0, 81, 100
4, 195452, Note_off_c, 0, 81, 0
4, 195456, Note_on_c, 0, 72, 100
4, 195584, Note_off_c, 0, 72, 0
4, 195648, Note_on_c, 0, 74, 100
4, 195836, Note_off_c, 0, 74, 0
4, 195840, Note_on_c, 0, 77, 100
4, 196028, Note_off_c, 0, 77, 0
4, 196032, Note_on_c, 0, 70, 100
4, 196160, Note_off_c, 0, 70, 0
4, 196224, Note_on_c, 0, 72, 100
4, 196412, Note_off_c, 0, 72, 0
4, 196416, Note_on_c, 0, 77, 100
4, 196604, Note_off_c, 0, 77, 0
4, 196608, Note_on_c, 0, 69, 100
4, 196736, Note_off_c, 0, 69, 0
4, 196800, Note_on_c, 0, 60, 100
4, 196928, Note_off_c, 0, 60, 0
4, 196992, Note_on_c, 0, 65, 100
4, 197180, Note_off_c, 0, 65, 0
4, 197184, Note_on_c, 0, 64, 100
4, 197312, Note_off_c, 0, 64, 0
4, 221568, Note_on_c, 0, 77, 100
4, 221756, Note_off_c, 0, 77, 0
4, 221760, Note_on_c, 0, 82, 100
4, 221948, Note_off_c, 0, 82, 0
4, 221952, Note_on_c, 0, 74, 100
4, 222080, Note_off_c, 0, 74, 0
4, 222144, Note_on_c, 0, 75, 100
4, 222332, Note_off_c, 0, 75, 0
4, 222336, Note_on_c, 0, 79, 100
4, 222524, Note_off_c, 0, 79, 0
4, 222528, Note_on_c, 0, 72, 100
4, 222656, Note_off_c, 0, 72, 0
4, 222720, Note_on_c, 0, 74, 100
4, 222908, Note_off_c, 0, 74, 0
4, 222912, Note_on_c, 0, 77, 100
4, 223100, Note_off_c, 0, 77, 0
4, 223104, Note_on_c, 0, 70, 100
4, 223292, Note_off_c, 0, 70, 0
4, 223296, Note_on_c, 0, 69, 100
4, 223340, Note_off_c, 0, 69, 0
4, 223344, Note_on_c, 0, 70, 100
4, 223388, Note_off_c, 0, 70, 0
4, 223392, Note_on_c, 0, 69, 100
4, 223436, Note_off_c, 0, 69, 0
4, 223440, Note_on_c, 0, 70, 100
4, 223484, Note_off_c, 0, 70, 0
4, 223488, Note_on_c, 0, 69, 100
4, 223676, Note_off_c, 0, 69, 0
4, 223680, Note_on_c, 0, 70, 100
4, 223808, Note_off_c, 0, 70, 0
4, 261888, Note_on_c, 0, 70, 100
4, 262076, Note_off_c, 0, 70, 0
4, 262080, Note_on_c, 0, 82, 100
4, 262268, Note_off_c, 0, 82, 0
4, 262272, Note_on_c, 0, 74, 100
4, 262400, Note_off_c, 0, 74, 0
4, 262464, Note_on_c, 0, 75, 100
4, 262652, Note_off_c, 0, 75, 0
4, 262656, Note_on_c, 0, 79, 100
4, 262844, Note_off_c, 0, 79, 0
4, 262848, Note_on_c, 0, 72, 100
4, 262976, Note_off_c, 0, 72, 0
4, 263040, Note_on_c, 0, 74, 100
4, 263228, Note_off_c, 0, 74, 0
4, 263232, Note_on_c, 0, 77, 100
4, 263420, Note_off_c, 0, 77, 0
4, 263424, Note_on_c, 0, 70, 100
4, 263552, Note_off_c, 0, 70, 0
4, 263616, Note_on_c, 0, 72, 100
4, 263804, Note_off_c, 0, 72, 0
4, 263808, Note_on_c, 0, 75, 100
4, 263996, Note_off_c, 0, 75, 0
4, 264000, Note_on_c, 0, 69, 100
4, 264128, Note_off_c, 0, 69, 0
4, 264192, Note_on_c, 0, 70, 100
4, 264380, Note_off_c, 0, 70, 0
4, 264384, Note_on_c, 0, 74, 100
4, 264476, Note_off_c, 0, 74, 0
4, 264480, Note_on_c, 0, 72, 100
4, 264572, Note_off_c, 0, 72, 0
4, 264576, Note_on_c, 0, 70, 100
4, 264668, Note_off_c, 0, 70, 0
4, 264672, Note_on_c, 0, 69, 100
4, 264764, Note_off_c, 0, 69, 0
4, 264768, Note_on_c, 0, 70, 100
4, 264956, Note_off_c, 0, 70, 0
4, 264960, Note_on_c, 0, 74, 100
4, 265052, Note_off_c, 0, 74, 0
4, 265056, Note_on_c, 0, 72, 100
4, 265148, Note_off_c, 0, 72, 0
4, 265152, Note_on_c, 0, 70, 100
4, 265244, Note_off_c, 0, 70, 0
4, 265248, Note_on_c, 0, 69, 100
4, 265340, Note_off_c, 0, 69, 0
4, 265344, Note_on_c, 0, 70, 100
4, 265532, Note_off_c, 0, 70, 0
4, 265536, Note_on_c, 0, 74, 100
4, 265628, Note_off_c, 0, 74, 0
4, 265632, Note_on_c, 0, 72, 100
4, 265724, Note_off_c, 0, 72, 0
4, 265728, Note_on_c, 0, 70, 100
4, 265820, Note_off_c, 0, 70, 0
4, 265824, Note_on_c, 0, 69, 100
4, 265916, Note_off_c, 0, 69, 0
4, 265920, Note_on_c, 0, 70, 100
4, 266108, Note_off_c, 0, 70, 0
4, 266112, Note_on_c, 0, 74, 100
4, 266204, Note_off_c, 0, 74, 0
4, 266208, Note_on_c, 0, 72, 100
4, 266300, Note_off_c, 0, 72, 0
4, 266304, Note_on_c, 0, 70, 100
4, 266396, Note_off_c, 0, 70, 0
4, 266400, Note_on_c, 0, 69, 100
4, 266492, Note_off_c, 0, 69, 0
4, 266496, Note_on_c, 0, 70, 100
4, 266624, Note_off_c, 0, 70, 0
4, 266688, Note_on_c, 0, 62, 100
4, 266780, Note_off_c, 0, 62, 0
4, 266784, Note_on_c, 0, 63, 100
4, 266876, Note_off_c, 0, 63, 0
4, 266880, Note_on_c, 0, 65, 100
4, 267008, Note_off_c, 0, 65, 0
4, 267072, Note_on_c, 0, 65, 100
4, 267260, Note_off_c, 0, 65, 0
4, 267264, Note_on_c, 0, 62, 100
4, 267356, Note_off_c, 0, 62, 0
4, 267360, Note_on_c, 0, 63, 100
4, 267452, Note_off_c, 0, 63, 0
4, 267456, Note_on_c, 0, 65, 100
4, 267584, Note_off_c, 0, 65, 0
4, 267648, Note_on_c, 0, 65, 100
4, 267836, Note_off_c, 0, 65, 0
4, 267840, Note_on_c, 0, 62, 100
4, 267932, Note_off_c, 0, 62, 0
4, 267936, Note_on_c, 0, 63, 100
4, 268028, Note_off_c, 0, 63, 0
4, 268032, Note_on_c, 0, 65, 100
4, 268160, Note_off_c, 0, 65, 0
4, 268224, Note_on_c, 0, 65, 100
4, 268412, Note_off_c, 0, 65, 0
4, 268416, Note_on_c, 0, 62, 100
4, 268508, Note_off_c, 0, 62, 0
4, 268512, Note_on_c, 0, 63, 100
4, 268604, Note_off_c, 0, 63, 0
4, 268608, Note_on_c, 0, 65, 100
4, 268736, Note_off_c, 0, 65, 0
4, 268800, Note_on_c, 0, 58, 100
4, 270524, Note_off_c, 0, 58, 0
4, 270524, End_track
5, 0, Start_track
5, 0, Title_t, "Manual 1 LH"
5, 0, Control_c, 0, 0, 0
5, 0, Program_c, 0, 6
5, 0, Control_c, 0, 7, 104
5, 0, Control_c, 0, 10, 64
5, 0, Key_signature, 0, "major"
5, 576, Note_on_c, 0, 46, 112
5, 668, Note_off_c, 0, 46, 0
5, 672, Note_on_c, 0, 48, 112
5, 764, Note_off_c, 0, 48, 0
5, 768, Note_on_c, 0, 50, 112
5, 956, Note_off_c, 0, 50, 0
5, 960, Note_on_c, 0, 53, 112
5, 1148, Note_off_c, 0, 53, 0
5, 1152, Note_on_c, 0, 58, 112
5, 1532, Note_off_c, 0, 58, 0
5, 1536, Note_on_c, 0, 46, 112
5, 1916, Note_off_c, 0, 46, 0
5, 2880, Note_on_c, 0, 48, 112
5, 2972, Note_off_c, 0, 48, 0
5, 2976, Note_on_c, 0, 50, 112
5, 3068, Note_off_c, 0, 50, 0
5, 3072, Note_on_c, 0, 51, 112
5, 3260, Note_off_c, 0, 51, 0
5, 3264, Note_on_c, 0, 55, 112
5, 3452, Note_off_c, 0, 55, 0
5, 3456, Note_on_c, 0, 60, 112
5, 3836, Note_off_c, 0, 60, 0
5, 3840, Note_on_c, 0, 48, 112
5, 4220, Note_off_c, 0, 48, 0
5, 5184, Note_on_c, 0, 50, 112
5, 5276, Note_off_c, 0, 50, 0
5, 5280, Note_on_c, 0, 51, 112
5, 5372, Note_off_c, 0, 51, 0
5, 5376, Note_on_c, 0, 53, 112
5, 5564, Note_off_c, 0, 53, 0
5, 5568, Note_on_c, 0, 58, 112
5, 5756, Note_off_c, 0, 58, 0
5, 5760, Note_on_c, 0, 62, 112
5, 6140, Note_off_c, 0, 62, 0
5, 6144, Note_on_c, 0, 50, 112
5, 6524, Note_off_c, 0, 50, 0
5, 6720, Note_on_c, 0, 58, 112
5, 6908, Note_off_c, 0, 58, 0
5, 6912, Note_on_c, 0, 63, 112
5, 7100, Note_off_c, 0, 63, 0
5, 7104, Note_on_c, 0, 67, 112
5, 7292, Note_off_c, 0, 67, 0
5, 7296, Note_on_c, 0, 60, 112
5, 7484, Note_off_c, 0, 60, 0
5, 7488, Note_on_c, 0, 63, 112
5, 7676, Note_off_c, 0, 63, 0
5, 7680, Note_on_c, 0, 57, 112
5, 7868, Note_off_c, 0, 57, 0
5, 7872, Note_on_c, 0, 60, 112
5, 8060, Note_off_c, 0, 60, 0
5, 8064, Note_on_c, 0, 51, 112
5, 8156, Note_off_c, 0, 51, 0
5, 8160, Note_on_c, 0, 50, 112
5, 8252, Note_off_c, 0, 50, 0
5, 8256, Note_on_c, 0, 48, 112
5, 8348, Note_off_c, 0, 48, 0
5, 8352, Note_on_c, 0, 46, 112
5, 8444, Note_off_c, 0, 46, 0
5, 8448, Note_on_c, 0, 53, 112
5, 8828, Note_off_c, 0, 53, 0
5, 8832, Note_on_c, 0, 41, 112
5, 9212, Note_off_c, 0, 41, 0
5, 29952, Note_on_c, 0, 43, 112
5, 30332, Note_off_c, 0, 43, 0
5, 31104, Note_on_c, 0, 55, 112
5, 31484, Note_off_c, 0, 55, 0
5, 32256, Note_on_c, 0, 53, 112
5, 32636, Note_off_c, 0, 53, 0
5, 33408, Note_on_c, 0, 53, 112
5, 33788, Note_off_c, 0, 53, 0
5, 34560, Note_on_c, 0, 51, 112
5, 34940, Note_off_c, 0, 51, 0
5, 35712, Note_on_c, 0, 51, 112
5, 36092, Note_off_c, 0, 51, 0
5, 36864, Note_on_c, 0, 53, 112
5, 37244, Note_off_c, 0, 53, 0
5, 38016, Note_on_c, 0, 53, 112
5, 38396, Note_off_c, 0, 53, 0
5, 39168, Note_on_c, 0, 60, 112
5, 39168, Note_on_c, 0, 55, 112
5, 39548, Note_off_c, 0, 60, 0
5, 39548, Note_off_c, 0, 55, 0
5, 39936, Note_on_c, 0, 55, 112
5, 39936, Note_on_c, 0, 50, 112
5, 39936, Note_on_c, 0, 43, 112
5, 40316, Note_off_c, 0, 55, 0
5, 40316, Note_off_c, 0, 50, 0
5, 40316, Note_off_c, 0, 43, 0
5, 40320, Note_on_c, 0, 55, 112
5, 40320, Note_on_c, 0, 48, 112
5, 40508, Note_off_c, 0, 55, 0
5, 40508, Note_off_c, 0, 48, 0
5, 62784, Note_on_c, 0, 43, 112
5, 62876, Note_off_c, 0, 43, 0
5, 62880, Note_on_c, 0, 45, 112
5, 62972, Note_off_c, 0, 45, 0
5, 62976, Note_on_c, 0, 46, 112
5, 63164, Note_off_c, 0, 46, 0
5, 63168, Note_on_c, 0, 50, 112
5, 63356, Note_off_c, 0, 50, 0
5, 63360, Note_on_c, 0, 55, 112
5, 63740, Note_off_c, 0, 55, 0
5, 63744, Note_on_c, 0, 43, 112
5, 64124, Note_off_c, 0, 43, 0
5, 65088, Note_on_c, 0, 45, 112
5, 65180, Note_off_c, 0, 45, 0
5, 65184, Note_on_c, 0, 46, 112
5, 65276, Note_off_c, 0, 46, 0
5, 65280, Note_on_c, 0, 48, 112
5, 65468, Note_off_c, 0, 48, 0
5, 65472, Note_on_c, 0, 53, 112
5, 65660, Note_off_c, 0, 53, 0
5, 65664, Note_on_c, 0, 57, 112
5, 66044, Note_off_c, 0, 57, 0
5, 66048, Note_on_c, 0, 45, 112
5, 66428, Note_off_c, 0, 45, 0
5, 67392, Note_on_c, 0, 46, 112
5, 67484, Note_off_c, 0, 46, 0
5, 67488, Note_on_c, 0, 48, 112
5, 67580, Note_off_c, 0, 48, 0
5, 67584, Note_on_c, 0, 50, 112
5, 67772, Note_off_c, 0, 50, 0
5, 67776, Note_on_c, 0, 53, 112
5, 67964, Note_off_c, 0, 53, 0
5, 67968, Note_on_c, 0, 58, 112
5, 68348, Note_off_c, 0, 58, 0
5, 68352, Note_on_c, 0, 46, 112
5, 68732, Note_off_c, 0, 46, 0
5, 68832, Note_on_c, 0, 50, 112
5, 68924, Note_off_c, 0, 50, 0
5, 68928, Note_on_c, 0, 51, 112
5, 69020, Note_off_c, 0, 51, 0
5, 69024, Note_on_c, 0, 53, 112
5, 69116, Note_off_c, 0, 53, 0
5, 69120, Note_on_c, 0, 55, 112
5, 69308, Note_off_c, 0, 55, 0
5, 78912, Note_on_c, 0, 46, 112
5, 79004, Note_off_c, 0, 46, 0
5, 79008, Note_on_c, 0, 48, 112
5, 79100, Note_off_c, 0, 48, 0
5, 79104, Note_on_c, 0, 50, 112
5, 79292, Note_off_c, 0, 50, 0
5, 79296, Note_on_c, 0, 53, 112
5, 79484, Note_off_c, 0, 53, 0
5, 79488, Note_on_c, 0, 58, 112
5, 79868, Note_off_c, 0, 58, 0
5, 79872, Note_on_c, 0, 46, 112
5, 80252, Note_off_c, 0, 46, 0
5, 81216, Note_on_c, 0, 48, 112
5, 81308, Note_off_c, 0, 48, 0
5, 81312, Note_on_c, 0, 50, 112
5, 81404, Note_off_c, 0, 50, 0
5, 81408, Note_on_c, 0, 51, 112
5, 81596, Note_off_c, 0, 51, 0
5, 81600, Note_on_c, 0, 55, 112
5, 81788, Note_off_c, 0, 55, 0
5, 81792, Note_on_c, 0, 60, 112
5, 82172, Note_off_c, 0, 60, 0
5, 82176, Note_on_c, 0, 48, 112
5, 82556, Note_off_c, 0, 48, 0
5, 83520, Note_on_c, 0, 50, 112
5, 83612, Note_off_c, 0, 50, 0
5, 83616, Note_on_c, 0, 51, 112
5, 83708, Note_off_c, 0, 51, 0
5, 83712, Note_on_c, 0, 53, 112
5, 83900, Note_off_c, 0, 53, 0
5, 83904, Note_on_c, 0, 58, 112
5, 84092, Note_off_c, 0, 58, 0
5, 84096, Note_on_c, 0, 62, 112
5, 84476, Note_off_c, 0, 62, 0
5, 84480, Note_on_c, 0, 50, 112
5, 84860, Note_off_c, 0, 50, 0
5, 84960, Note_on_c, 0, 58, 112
5, 85052, Note_off_c, 0, 58, 0
5, 85056, Note_on_c, 0, 60, 112
5, 85148, Note_off_c, 0, 60, 0
5, 85152, Note_on_c, 0, 62, 112
5, 85244, Note_off_c, 0, 62, 0
5, 85248, Note_on_c, 0, 63, 112
5, 85436, Note_off_c, 0, 63, 0
5, 85440, Note_on_c, 0, 67, 112
5, 85628, Note_off_c, 0, 67, 0
5, 85632, Note_on_c, 0, 60, 112
5, 85820, Note_off_c, 0, 60, 0
5, 85824, Note_on_c, 0, 63, 112
5, 86012, Note_off_c, 0, 63, 0
5, 86016, Note_on_c, 0, 57, 112
5, 86204, Note_off_c, 0, 57, 0
5, 86208, Note_on_c, 0, 60, 112
5, 86396, Note_off_c, 0, 60, 0
5, 86400, Note_on_c, 0, 53, 112
5, 86588, Note_off_c, 0, 53, 0
5, 86592, Note_on_c, 0, 50, 112
5, 86592, Note_on_c, 0, 38, 112
5, 86780, Note_off_c, 0, 50, 0
5, 86780, Note_off_c, 0, 38, 0
5, 86784, Note_on_c, 0, 51, 112
5, 86784, Note_on_c, 0, 39, 112
5, 86972, Note_off_c, 0, 51, 0
5, 86972, Note_off_c, 0, 39, 0
5, 86976, Note_on_c, 0, 53, 112
5, 86976, Note_on_c, 0, 41, 112
5, 87164, Note_off_c, 0, 53, 0
5, 87164, Note_off_c, 0, 41, 0
5, 87168, Note_on_c, 0, 55, 112
5, 87168, Note_on_c, 0, 43, 112
5, 87356, Note_off_c, 0, 55, 0
5, 87356, Note_off_c, 0, 43, 0
5, 87360, Note_on_c, 0, 57, 112
5, 87360, Note_on_c, 0, 45, 112
5, 87548, Note_off_c, 0, 57, 0
5, 87548, Note_off_c, 0, 45, 0
5, 87552, Note_on_c, 0, 46, 112
5, 87552, Note_on_c, 0, 58, 112
5, 87740, Note_off_c, 0, 46, 0
5, 87740, Note_off_c, 0, 58, 0
5, 87744, Note_on_c, 0, 50, 112
5, 87744, Note_on_c, 0, 62, 112
5, 87932, Note_off_c, 0, 50, 0
5, 87932, Note_off_c, 0, 62, 0
5, 87936, Note_on_c, 0, 51, 112
5, 87936, Note_on_c, 0, 63, 112
5, 88124, Note_off_c, 0, 51, 0
5, 88124, Note_off_c, 0, 63, 0
5, 88128, Note_on_c, 0, 53, 112
5, 88128, Note_on_c, 0, 65, 112
5, 88316, Note_off_c, 0, 53, 0
5, 88316, Note_off_c, 0, 65, 0
5, 88320, Note_on_c, 0, 55, 112
5, 88320, Note_on_c, 0, 67, 112
5, 88508, Note_off_c, 0, 55, 0
5, 88508, Note_off_c, 0, 67, 0
5, 88512, Note_on_c, 0, 57, 112
5, 88512, Note_on_c, 0, 69, 112
5, 88700, Note_off_c, 0, 57, 0
5, 88700, Note_off_c, 0, 69, 0
5, 88704, Note_on_c, 0, 58, 112
5, 89084, Note_off_c, 0, 58, 0
5, 89088, Note_on_c, 0, 50, 112
5, 89088, Note_on_c, 0, 38, 112
5, 89468, Note_off_c, 0, 50, 0
5, 89468, Note_off_c, 0, 38, 0
5, 89472, Note_on_c, 0, 53, 112
5, 89472, Note_on_c, 0, 41, 112
5, 89852, Note_off_c, 0, 53, 0
5, 89852, Note_off_c, 0, 41, 0
5, 89856, Note_on_c, 0, 46, 112
5, 89856, Note_on_c, 0, 34, 112
5, 90620, Note_off_c, 0, 46, 0
5, 90620, Note_off_c, 0, 34, 0
5, 92160, Note_on_c, 0, 43, 80
5, 92348, Note_off_c, 0, 43, 0
5, 92352, Note_on_c, 0, 55, 80
5, 92540, Note_off_c, 0, 55, 0
5, 92544, Note_on_c, 0, 53, 80
5, 92636, Note_off_c, 0, 53, 0
5, 92640, Note_on_c, 0, 60, 80
5, 92732, Note_off_c, 0, 60, 0
5, 92736, Note_on_c, 0, 53, 80
5, 92736, Note_on_c, 0, 65, 80
5, 92828, Note_off_c, 0, 53, 0
5, 92828, Note_off_c, 0, 65, 0
5, 92832, Note_on_c, 0, 63, 80
5, 92924, Note_off_c, 0, 63, 0
5, 92928, Note_on_c, 0, 62, 80
5, 92928, Note_on_c, 0, 53, 80
5, 93020, Note_off_c, 0, 62, 0
5, 93020, Note_off_c, 0, 53, 0
5, 93120, Note_on_c, 0, 62, 80
5, 93120, Note_on_c, 0, 53, 80
5, 93212, Note_off_c, 0, 62, 0
5, 93212, Note_off_c, 0, 53, 0
5, 93312, Note_on_c, 0, 55, 80
5, 93312, Note_on_c, 0, 53, 80
5, 93404, Note_off_c, 0, 55, 0
5, 93404, Note_off_c, 0, 53, 0
5, 93504, Note_on_c, 0, 55, 80
5, 93504, Note_on_c, 0, 53, 80
5, 93596, Note_off_c, 0, 55, 0
5, 93596, Note_off_c, 0, 53, 0
5, 93696, Note_on_c, 0, 51, 80
5, 93696, Note_on_c, 0, 55, 80
5, 93884, Note_off_c, 0, 51, 0
5, 93884, Note_off_c, 0, 55, 0
5, 93888, Note_on_c, 0, 53, 80
5, 94076, Note_off_c, 0, 53, 0
5, 94080, Note_on_c, 0, 55, 80
5, 94272, Note_on_c, 0, 43, 80
5, 94460, Note_off_c, 0, 43, 0
5, 94464, Note_on_c, 0, 48, 80
5, 94604, Note_off_c, 0, 48, 0
5, 94652, Note_off_c, 0, 55, 0
5, 94656, Note_on_c, 0, 48, 80
5, 94656, Note_on_c, 0, 57, 80
5, 94748, Note_off_c, 0, 57, 0
5, 94752, Note_on_c, 0, 58, 80
5, 94796, Note_off_c, 0, 48, 0
5, 94844, Note_off_c, 0, 58, 0
5, 94848, Note_on_c, 0, 48, 80
5, 94848, Note_on_c, 0, 57, 80
5, 94988, Note_off_c, 0, 48, 0
5, 95036, Note_off_c, 0, 57, 0
5, 95040, Note_on_c, 0, 48, 80
5, 95040, Note_on_c, 0, 55, 80
5, 95132, Note_off_c, 0, 55, 0
5, 95136, Note_on_c, 0, 54, 80
5, 95180, Note_off_c, 0, 48, 0
5, 95228, Note_off_c, 0, 54, 0
5, 95232, Note_on_c, 0, 46, 80
5, 95232, Note_on_c, 0, 55, 80
5, 95420, Note_off_c, 0, 46, 0
5, 95424, Note_on_c, 0, 48, 80
5, 95612, Note_off_c, 0, 55, 0
5, 95612, Note_off_c, 0, 48, 0
5, 95616, Note_on_c, 0, 50, 80
5, 95808, Note_on_c, 0, 38, 80
5, 95996, Note_off_c, 0, 50, 0
5, 95996, Note_off_c, 0, 38, 0
5, 96000, Note_on_c, 0, 43, 80
5, 96192, Note_on_c, 0, 50, 80
5, 96380, Note_off_c, 0, 50, 0
5, 96384, Note_on_c, 0, 55, 80
5, 96764, Note_off_c, 0, 43, 0
5, 96764, Note_off_c, 0, 55, 0
5, 112320, Note_on_c, 0, 58, 80
5, 112448, Note_off_c, 0, 58, 0
5, 112512, Note_on_c, 0, 58, 80
5, 112640, Note_off_c, 0, 58, 0
5, 112704, Note_on_c, 0, 58, 80
5, 112832, Note_off_c, 0, 58, 0
5, 112896, Note_on_c, 0, 55, 80
5, 112896, Note_on_c, 0, 58, 80
5, 113024, Note_off_c, 0, 55, 0
5, 113024, Note_off_c, 0, 58, 0
5, 113088, Note_on_c, 0, 55, 80
5, 113088, Note_on_c, 0, 58, 80
5, 113216, Note_off_c, 0, 55, 0
5, 113216, Note_off_c, 0, 58, 0
5, 113280, Note_on_c, 0, 57, 80
5, 113280, Note_on_c, 0, 55, 80
5, 113408, Note_off_c, 0, 57, 0
5, 113408, Note_off_c, 0, 55, 0
5, 113472, Note_on_c, 0, 57, 80
5, 113472, Note_on_c, 0, 55, 80
5, 113600, Note_off_c, 0, 57, 0
5, 113600, Note_off_c, 0, 55, 0
5, 113664, Note_on_c, 0, 57, 80
5, 113664, Note_on_c, 0, 53, 80
5, 113852, Note_off_c, 0, 57, 0
5, 113852, Note_off_c, 0, 53, 0
5, 113856, Note_on_c, 0, 55, 80
5, 113856, Note_on_c, 0, 58, 80
5, 114044, Note_off_c, 0, 55, 0
5, 114044, Note_off_c, 0, 58, 0
5, 114048, Note_on_c, 0, 57, 80
5, 114236, Note_off_c, 0, 57, 0
5, 114240, Note_on_c, 0, 45, 80
5, 114240, Note_on_c, 0, 55, 80
5, 114428, Note_off_c, 0, 45, 0
5, 114428, Note_off_c, 0, 55, 0
5, 114432, Note_on_c, 0, 50, 80
5, 114432, Note_on_c, 0, 53, 80
5, 114620, Note_off_c, 0, 50, 0
5, 114620, Note_off_c, 0, 53, 0
5, 114624, Note_on_c, 0, 50, 80
5, 114624, Note_on_c, 0, 55, 80
5, 114812, Note_off_c, 0, 50, 0
5, 114812, Note_off_c, 0, 55, 0
5, 114816, Note_on_c, 0, 57, 80
5, 114816, Note_on_c, 0, 48, 80
5, 115004, Note_off_c, 0, 57, 0
5, 115004, Note_off_c, 0, 48, 0
5, 115008, Note_on_c, 0, 57, 80
5, 115008, Note_on_c, 0, 48, 80
5, 115196, Note_off_c, 0, 57, 0
5, 115196, Note_off_c, 0, 48, 0
5, 115200, Note_on_c, 0, 46, 80
5, 115200, Note_on_c, 0, 55, 80
5, 115388, Note_off_c, 0, 46, 0
5, 115392, Note_on_c, 0, 48, 80
5, 115580, Note_off_c, 0, 55, 0
5, 115580, Note_off_c, 0, 48, 0
5, 115584, Note_on_c, 0, 50, 80
5, 115776, Note_on_c, 0, 38, 80
5, 115964, Note_off_c, 0, 50, 0
5, 115964, Note_off_c, 0, 38, 0
5, 115968, Note_on_c, 0, 43, 80
5, 116224, Note_off_c, 0, 43, 0
5, 119232, Note_on_c, 0, 55, 100
5, 119324, Note_off_c, 0, 55, 0
5, 119328, Note_on_c, 0, 53, 100
5, 119420, Note_off_c, 0, 53, 0
5, 119424, Note_on_c, 0, 51, 100
5, 119516, Note_off_c, 0, 51, 0
5, 119520, Note_on_c, 0, 50, 100
5, 119612, Note_off_c, 0, 50, 0
5, 119616, Note_on_c, 0, 48, 100
5, 119708, Note_off_c, 0, 48, 0
5, 119712, Note_on_c, 0, 46, 100
5, 119804, Note_off_c, 0, 46, 0
5, 119808, Note_on_c, 0, 48, 100
5, 119996, Note_off_c, 0, 48, 0
5, 120000, Note_on_c, 0, 45, 100
5, 120188, Note_off_c, 0, 45, 0
5, 120192, Note_on_c, 0, 50, 100
5, 120380, Note_off_c, 0, 50, 0
5, 120384, Note_on_c, 0, 38, 100
5, 120572, Note_off_c, 0, 38, 0
5, 120576, Note_on_c, 0, 43, 100
5, 120764, Note_off_c, 0, 43, 0
5, 127680, Note_on_c, 0, 46, 100
5, 127808, Note_off_c, 0, 46, 0
5, 127872, Note_on_c, 0, 46, 100
5, 128000, Note_off_c, 0, 46, 0
5, 128064, Note_on_c, 0, 48, 100
5, 128192, Note_off_c, 0, 48, 0
5, 128256, Note_on_c, 0, 50, 100
5, 128444, Note_off_c, 0, 50, 0
5, 128448, Note_on_c, 0, 46, 100
5, 128636, Note_off_c, 0, 46, 0
5, 128640, Note_on_c, 0, 50, 100
5, 128828, Note_off_c, 0, 50, 0
5, 128832, Note_on_c, 0, 51, 100
5, 129020, Note_off_c, 0, 51, 0
5, 129024, Note_on_c, 0, 53, 100
5, 129404, Note_off_c, 0, 53, 0
5, 129504, Note_on_c, 0, 54, 100
5, 129596, Note_off_c, 0, 54, 0
5, 129600, Note_on_c, 0, 52, 100
5, 129692, Note_off_c, 0, 52, 0
5, 129696, Note_on_c, 0, 50, 100
5, 129788, Note_off_c, 0, 50, 0
5, 129792, Note_on_c, 0, 55, 100
5, 130048, Note_off_c, 0, 55, 0
5, 130272, Note_on_c, 0, 46, 100
5, 130364, Note_off_c, 0, 46, 0
5, 130368, Note_on_c, 0, 45, 100
5, 130460, Note_off_c, 0, 45, 0
5, 130464, Note_on_c, 0, 43, 100
5, 130556, Note_off_c, 0, 43, 0
5, 130560, Note_on_c, 0, 50, 100
5, 130816, Note_off_c, 0, 50, 0
5, 131040, Note_on_c, 0, 51, 100
5, 131132, Note_off_c, 0, 51, 0
5, 131136, Note_on_c, 0, 50, 100
5, 131228, Note_off_c, 0, 50, 0
5, 131232, Note_on_c, 0, 48, 100
5, 131324, Note_off_c, 0, 48, 0
5, 131328, Note_on_c, 0, 46, 100
5, 131420, Note_off_c, 0, 46, 0
5, 131424, Note_on_c, 0, 45, 100
5, 131516, Note_off_c, 0, 45, 0
5, 131520, Note_on_c, 0, 46, 100
5, 131612, Note_off_c, 0, 46, 0
5, 131616, Note_on_c, 0, 48, 100
5, 131708, Note_off_c, 0, 48, 0
5, 131712, Note_on_c, 0, 50, 100
5, 131804, Note_off_c, 0, 50, 0
5, 131808, Note_on_c, 0, 48, 100
5, 131900, Note_off_c, 0, 48, 0
5, 131904, Note_on_c, 0, 50, 100
5, 131996, Note_off_c, 0, 50, 0
5, 132000, Note_on_c, 0, 46, 100
5, 132092, Note_off_c, 0, 46, 0
5, 132096, Note_on_c, 0, 48, 100
5, 132188, Note_off_c, 0, 48, 0
5, 132192, Note_on_c, 0, 46, 100
5, 132284, Note_off_c, 0, 46, 0
5, 132288, Note_on_c, 0, 45, 100
5, 132380, Note_off_c, 0, 45, 0
5, 132384, Note_on_c, 0, 46, 100
5, 132476, Note_off_c, 0, 46, 0
5, 132480, Note_on_c, 0, 48, 100
5, 132572, Note_off_c, 0, 48, 0
5, 132576, Note_on_c, 0, 46, 100
5, 132668, Note_off_c, 0, 46, 0
5, 132672, Note_on_c, 0, 48, 100
5, 132764, Note_off_c, 0, 48, 0
5, 132768, Note_on_c, 0, 36, 100
5, 132860, Note_off_c, 0, 36, 0
5, 132864, Note_on_c, 0, 41, 100
5, 133052, Note_off_c, 0, 41, 0
5, 140736, Note_on_c, 0, 53, 100
5, 140864, Note_off_c, 0, 53, 0
5, 140928, Note_on_c, 0, 53, 100
5, 141056, Note_off_c, 0, 53, 0
5, 141120, Note_on_c, 0, 55, 100
5, 141248, Note_off_c, 0, 55, 0
5, 141312, Note_on_c, 0, 57, 100
5, 141500, Note_off_c, 0, 57, 0
5, 141504, Note_on_c, 0, 53, 100
5, 141692, Note_off_c, 0, 53, 0
5, 141696, Note_on_c, 0, 55, 100
5, 141884, Note_off_c, 0, 55, 0
5, 141888, Note_on_c, 0, 57, 100
5, 142076, Note_off_c, 0, 57, 0
5, 142080, Note_on_c, 0, 58, 100
5, 142460, Note_off_c, 0, 58, 0
5, 142560, Note_on_c, 0, 50, 100
5, 142652, Note_off_c, 0, 50, 0
5, 142656, Note_on_c, 0, 48, 100
5, 142748, Note_off_c, 0, 48, 0
5, 142752, Note_on_c, 0, 46, 100
5, 142844, Note_off_c, 0, 46, 0
5, 142848, Note_on_c, 0, 53, 100
5, 143228, Note_off_c, 0, 53, 0
5, 143328, Note_on_c, 0, 50, 100
5, 143420, Note_off_c, 0, 50, 0
5, 143424, Note_on_c, 0, 52, 100
5, 143516, Note_off_c, 0, 52, 0
5, 143520, Note_on_c, 0, 53, 100
5, 143612, Note_off_c, 0, 53, 0
5, 143616, Note_on_c, 0, 55, 100
5, 143996, Note_off_c, 0, 55, 0
5, 144096, Note_on_c, 0, 52, 100
5, 144188, Note_off_c, 0, 52, 0
5, 144192, Note_on_c, 0, 50, 100
5, 144284, Note_off_c, 0, 50, 0
5, 144288, Note_on_c, 0, 48, 100
5, 144380, Note_off_c, 0, 48, 0
5, 144384, Note_on_c, 0, 53, 100
5, 144764, Note_off_c, 0, 53, 0
5, 144864, Note_on_c, 0, 45, 100
5, 144956, Note_off_c, 0, 45, 0
5, 144960, Note_on_c, 0, 43, 100
5, 145052, Note_off_c, 0, 43, 0
5, 145056, Note_on_c, 0, 41, 100
5, 145148, Note_off_c, 0, 41, 0
5, 145152, Note_on_c, 0, 46, 100
5, 145244, Note_off_c, 0, 46, 0
5, 145248, Note_on_c, 0, 43, 100
5, 145340, Note_off_c, 0, 43, 0
5, 145344, Note_on_c, 0, 45, 100
5, 145436, Note_off_c, 0, 45, 0
5, 145440, Note_on_c, 0, 46, 100
5, 145532, Note_off_c, 0, 46, 0
5, 145536, Note_on_c, 0, 48, 100
5, 145628, Note_off_c, 0, 48, 0
5, 145632, Note_on_c, 0, 46, 100
5, 145724, Note_off_c, 0, 46, 0
5, 145728, Note_on_c, 0, 48, 100
5, 145820, Note_off_c, 0, 48, 0
5, 145824, Note_on_c, 0, 36, 100
5, 145916, Note_off_c, 0, 36, 0
5, 145920, Note_on_c, 0, 41, 100
5, 146300, Note_off_c, 0, 41, 0
5, 157632, Note_on_c, 0, 45, 100
5, 157760, Note_off_c, 0, 45, 0
5, 157824, Note_on_c, 0, 45, 100
5, 158012, Note_off_c, 0, 45, 0
5, 158016, Note_on_c, 0, 47, 100
5, 158204, Note_off_c, 0, 47, 0
5, 158208, Note_on_c, 0, 48, 100
5, 158396, Note_off_c, 0, 48, 0
5, 158400, Note_on_c, 0, 45, 100
5, 158588, Note_off_c, 0, 45, 0
5, 158592, Note_on_c, 0, 48, 100
5, 158780, Note_off_c, 0, 48, 0
5, 158784, Note_on_c, 0, 50, 100
5, 158972, Note_off_c, 0, 50, 0
5, 158976, Note_on_c, 0, 52, 100
5, 159164, Note_off_c, 0, 52, 0
5, 159168, Note_on_c, 0, 55, 100
5, 159260, Note_off_c, 0, 55, 0
5, 159264, Note_on_c, 0, 53, 100
5, 159356, Note_off_c, 0, 53, 0
5, 159360, Note_on_c, 0, 52, 100
5, 159452, Note_off_c, 0, 52, 0
5, 159456, Note_on_c, 0, 50, 100
5, 159548, Note_off_c, 0, 50, 0
5, 159552, Note_on_c, 0, 48, 100
5, 159644, Note_off_c, 0, 48, 0
5, 159648, Note_on_c, 0, 47, 100
5, 159740, Note_off_c, 0, 47, 0
5, 159744, Note_on_c, 0, 45, 100
5, 159932, Note_off_c, 0, 45, 0
5, 169920, Note_on_c, 0, 55, 100
5, 169984, Note_off_c, 0, 55, 0
5, 170016, Note_on_c, 0, 53, 100
5, 170080, Note_off_c, 0, 53, 0
5, 170112, Note_on_c, 0, 51, 100
5, 170176, Note_off_c, 0, 51, 0
5, 170208, Note_on_c, 0, 50, 100
5, 170272, Note_off_c, 0, 50, 0
5, 170304, Note_on_c, 0, 48, 100
5, 170368, Note_off_c, 0, 48, 0
5, 170400, Note_on_c, 0, 46, 100
5, 170464, Note_off_c, 0, 46, 0
5, 170496, Note_on_c, 0, 48, 100
5, 170684, Note_off_c, 0, 48, 0
5, 170688, Note_on_c, 0, 45, 100
5, 170876, Note_off_c, 0, 45, 0
5, 170880, Note_on_c, 0, 50, 100
5, 171068, Note_off_c, 0, 50, 0
5, 171072, Note_on_c, 0, 38, 100
5, 171260, Note_off_c, 0, 38, 0
5, 171264, Note_on_c, 0, 43, 100
5, 171392, Note_off_c, 0, 43, 0
5, 177600, Note_on_c, 0, 58, 100
5, 177728, Note_off_c, 0, 58, 0
5, 177792, Note_on_c, 0, 50, 100
5, 177980, Note_off_c, 0, 50, 0
5, 177984, Note_on_c, 0, 53, 100
5, 178172, Note_off_c, 0, 53, 0
5, 178176, Note_on_c, 0, 58, 100
5, 178364, Note_off_c, 0, 58, 0
5, 178368, Note_on_c, 0, 48, 100
5, 178556, Note_off_c, 0, 48, 0
5, 178560, Note_on_c, 0, 51, 100
5, 178748, Note_off_c, 0, 51, 0
5, 178752, Note_on_c, 0, 57, 100
5, 178940, Note_off_c, 0, 57, 0
5, 178944, Note_on_c, 0, 46, 100
5, 179132, Note_off_c, 0, 46, 0
5, 179136, Note_on_c, 0, 58, 100
5, 179324, Note_off_c, 0, 58, 0
5, 179328, Note_on_c, 0, 48, 100
5, 179516, Note_off_c, 0, 48, 0
5, 179520, Note_on_c, 0, 50, 100
5, 179708, Note_off_c, 0, 50, 0
5, 179712, Note_on_c, 0, 53, 100
5, 179900, Note_off_c, 0, 53, 0
5, 179904, Note_on_c, 0, 45, 100
5, 180092, Note_off_c, 0, 45, 0
5, 180096, Note_on_c, 0, 46, 100
5, 180096, Note_on_c, 0, 53, 100
5, 180476, Note_off_c, 0, 46, 0
5, 180476, Note_off_c, 0, 53, 0
5, 180672, Note_on_c, 0, 58, 100
5, 180672, Note_on_c, 0, 48, 100
5, 181052, Note_off_c, 0, 58, 0
5, 181052, Note_off_c, 0, 48, 0
5, 181248, Note_on_c, 0, 50, 100
5, 181248, Note_on_c, 0, 57, 100
5, 181628, Note_off_c, 0, 50, 0
5, 181628, Note_off_c, 0, 57, 0
5, 181824, Note_on_c, 0, 52, 100
5, 181824, Note_on_c, 0, 60, 100
5, 182204, Note_off_c, 0, 52, 0
5, 182204, Note_off_c, 0, 60, 0
5, 182400, Note_on_c, 0, 53, 100
5, 182592, Note_on_c, 0, 55, 100
5, 182780, Note_off_c, 0, 53, 0
5, 182780, Note_off_c, 0, 55, 0
5, 182784, Note_on_c, 0, 57, 100
5, 182784, Note_on_c, 0, 50, 100
5, 182972, Note_off_c, 0, 57, 0
5, 182972, Note_off_c, 0, 50, 0
5, 182976, Note_on_c, 0, 55, 100
5, 182976, Note_on_c, 0, 46, 100
5, 183356, Note_off_c, 0, 55, 0
5, 183356, Note_off_c, 0, 46, 0
5, 183360, Note_on_c, 0, 55, 100
5, 183360, Note_on_c, 0, 48, 100
5, 183548, Note_off_c, 0, 55, 0
5, 183548, Note_off_c, 0, 48, 0
5, 183552, Note_on_c, 0, 53, 100
5, 183552, Note_on_c, 0, 57, 100
5, 183808, Note_off_c, 0, 53, 0
5, 183808, Note_off_c, 0, 57, 0
5, 184128, Note_on_c, 0, 50, 100
5, 184128, Note_on_c, 0, 53, 100
5, 184384, Note_off_c, 0, 50, 0
5, 184384, Note_off_c, 0, 53, 0
5, 184704, Note_on_c, 0, 46, 100
5, 184704, Note_on_c, 0, 53, 100
5, 184960, Note_off_c, 0, 46, 0
5, 184960, Note_off_c, 0, 53, 0
5, 185280, Note_on_c, 0, 48, 100
5, 185280, Note_on_c, 0, 52, 100
5, 185536, Note_off_c, 0, 48, 0
5, 185536, Note_off_c, 0, 52, 0
5, 185856, Note_on_c, 0, 53, 100
5, 186044, Note_off_c, 0, 53, 0
5, 186048, Note_on_c, 0, 57, 100
5, 186236, Note_off_c, 0, 57, 0
5, 186240, Note_on_c, 0, 60, 100
5, 186368, Note_off_c, 0, 60, 0
5, 186432, Note_on_c, 0, 52, 100
5, 186620, Note_off_c, 0, 52, 0
5, 186624, Note_on_c, 0, 55, 100
5, 186812, Note_off_c, 0, 55, 0
5, 186816, Note_on_c, 0, 60, 100
5, 186944, Note_off_c, 0, 60, 0
5, 187008, Note_on_c, 0, 50, 100
5, 187196, Note_off_c, 0, 50, 0
5, 187200, Note_on_c, 0, 53, 100
5, 187388, Note_off_c, 0, 53, 0
5, 187392, Note_on_c, 0, 59, 100
5, 187520, Note_off_c, 0, 59, 0
5, 187584, Note_on_c, 0, 48, 100
5, 187772, Note_off_c, 0, 48, 0
5, 187776, Note_on_c, 0, 52, 100
5, 187964, Note_off_c, 0, 52, 0
5, 187968, Note_on_c, 0, 57, 100
5, 188096, Note_off_c, 0, 57, 0
5, 188160, Note_on_c, 0, 46, 100
5, 188348, Note_off_c, 0, 46, 0
5, 188352, Note_on_c, 0, 50, 100
5, 188540, Note_off_c, 0, 50, 0
5, 188544, Note_on_c, 0, 55, 100
5, 188672, Note_off_c, 0, 55, 0
5, 188736, Note_on_c, 0, 45, 100
5, 188924, Note_off_c, 0, 45, 0
5, 188928, Note_on_c, 0, 48, 100
5, 189116, Note_off_c, 0, 48, 0
5, 189120, Note_on_c, 0, 53, 100
5, 189248, Note_off_c, 0, 53, 0
5, 189312, Note_on_c, 0, 43, 100
5, 189500, Note_off_c, 0, 43, 0
5, 189504, Note_on_c, 0, 46, 100
5, 189692, Note_off_c, 0, 46, 0
5, 189696, Note_on_c, 0, 50, 100
5, 189884, Note_off_c, 0, 50, 0
5, 189888, Note_on_c, 0, 55, 100
5, 190076, Note_off_c, 0, 55, 0
5, 190080, Note_on_c, 0, 50, 100
5, 190268, Note_off_c, 0, 50, 0
5, 190272, Note_on_c, 0, 43, 100
5, 190460, Note_off_c, 0, 43, 0
5, 190464, Note_on_c, 0, 48, 100
5, 190652, Note_off_c, 0, 48, 0
5, 190656, Note_on_c, 0, 52, 100
5, 190748, Note_off_c, 0, 52, 0
5, 190752, Note_on_c, 0, 50, 100
5, 190844, Note_off_c, 0, 50, 0
5, 190848, Note_on_c, 0, 48, 100
5, 190976, Note_off_c, 0, 48, 0
5, 191040, Note_on_c, 0, 48, 100
5, 191228, Note_off_c, 0, 48, 0
5, 191232, Note_on_c, 0, 52, 100
5, 191324, Note_off_c, 0, 52, 0
5, 191328, Note_on_c, 0, 50, 100
5, 191420, Note_off_c, 0, 50, 0
5, 191424, Note_on_c, 0, 48, 100
5, 191552, Note_off_c, 0, 48, 0
5, 191616, Note_on_c, 0, 60, 100
5, 192764, Note_off_c, 0, 60, 0
5, 192768, Note_on_c, 0, 48, 100
5, 192956, Note_off_c, 0, 48, 0
5, 192960, Note_on_c, 0, 52, 100
5, 193052, Note_off_c, 0, 52, 0
5, 193056, Note_on_c, 0, 50, 100
5, 193148, Note_off_c, 0, 50, 0
5, 193152, Note_on_c, 0, 48, 100
5, 193280, Note_off_c, 0, 48, 0
5, 193344, Note_on_c, 0, 48, 100
5, 193532, Note_off_c, 0, 48, 0
5, 193536, Note_on_c, 0, 52, 100
5, 193628, Note_off_c, 0, 52, 0
5, 193632, Note_on_c, 0, 50, 100
5, 193724, Note_off_c, 0, 50, 0
5, 193728, Note_on_c, 0, 48, 100
5, 193856, Note_off_c, 0, 48, 0
5, 193920, Note_on_c, 0, 53, 100
5, 194176, Note_off_c, 0, 53, 0
5, 194304, Note_on_c, 0, 57, 100
5, 194432, Note_off_c, 0, 57, 0
5, 194496, Note_on_c, 0, 60, 100
5, 194752, Note_off_c, 0, 60, 0
5, 194880, Note_on_c, 0, 48, 100
5, 195008, Note_off_c, 0, 48, 0
5, 195072, Note_on_c, 0, 53, 100
5, 195452, Note_off_c, 0, 53, 0
5, 195456, Note_on_c, 0, 41, 100
5, 195644, Note_off_c, 0, 41, 0
5, 195648, Note_on_c, 0, 46, 100
5, 195836, Note_off_c, 0, 46, 0
5, 195840, Note_on_c, 0, 45, 100
5, 196028, Note_off_c, 0, 45, 0
5, 196032, Note_on_c, 0, 43, 100
5, 196220, Note_off_c, 0, 43, 0
5, 196224, Note_on_c, 0, 45, 100
5, 196412, Note_off_c, 0, 45, 0
5, 196416, Note_on_c, 0, 43, 100
5, 196604, Note_off_c, 0, 43, 0
5, 196608, Note_on_c, 0, 41, 100
5, 196796, Note_off_c, 0, 41, 0
5, 196800, Note_on_c, 0, 48, 100
5, 196928, Note_off_c, 0, 48, 0
5, 196992, Note_on_c, 0, 46, 100
5, 197180, Note_off_c, 0, 46, 0
5, 197184, Note_on_c, 0, 48, 100
5, 197312, Note_off_c, 0, 48, 0
5, 197376, Note_on_c, 0, 41, 100
5, 197756, Note_off_c, 0, 41, 0
5, 221568, Note_on_c, 0, 50, 100
5, 221756, Note_off_c, 0, 50, 0
5, 221760, Note_on_c, 0, 53, 100
5, 221948, Note_off_c, 0, 53, 0
5, 221952, Note_on_c, 0, 58, 100
5, 222140, Note_off_c, 0, 58, 0
5, 222144, Note_on_c, 0, 48, 100
5, 222332, Note_off_c, 0, 48, 0
5, 222336, Note_on_c, 0, 51, 100
5, 222524, Note_off_c, 0, 51, 0
5, 222528, Note_on_c, 0, 57, 100
5, 222716, Note_off_c, 0, 57, 0
5, 222720, Note_on_c, 0, 46, 100
5, 222908, Note_off_c, 0, 46, 0
5, 222912, Note_on_c, 0, 50, 100
5, 223100, Note_off_c, 0, 50, 0
5, 223104, Note_on_c, 0, 51, 100
5, 223292, Note_off_c, 0, 51, 0
5, 223296, Note_on_c, 0, 53, 100
5, 223484, Note_off_c, 0, 53, 0
5, 223488, Note_on_c, 0, 51, 100
5, 223676, Note_off_c, 0, 51, 0
5, 223680, Note_on_c, 0, 53, 100
5, 223868, Note_off_c, 0, 53, 0
5, 223872, Note_on_c, 0, 46, 100
5, 224060, Note_off_c, 0, 46, 0
5, 224256, Note_on_c, 0, 58, 100
5, 224444, Note_off_c, 0, 58, 0
5, 224448, Note_on_c, 0, 62, 100
5, 224636, Note_off_c, 0, 62, 0
5, 224640, Note_on_c, 0, 65, 100
5, 224828, Note_off_c, 0, 65, 0
5, 224832, Note_on_c, 0, 58, 100
5, 225020, Note_off_c, 0, 58, 0
5, 225024, Note_on_c, 0, 60, 100
5, 225212, Note_off_c, 0, 60, 0
5, 225216, Note_on_c, 0, 65, 100
5, 225404, Note_off_c, 0, 65, 0
5, 225408, Note_on_c, 0, 57, 100
5, 225536, Note_off_c, 0, 57, 0
5, 225600, Note_on_c, 0, 60, 100
5, 225788, Note_off_c, 0, 60, 0
5, 225792, Note_on_c, 0, 65, 100
5, 225980, Note_off_c, 0, 65, 0
5, 225984, Note_on_c, 0, 57, 100
5, 226112, Note_off_c, 0, 57, 0
5, 226176, Note_on_c, 0, 62, 100
5, 226364, Note_off_c, 0, 62, 0
5, 226368, Note_on_c, 0, 65, 100
5, 226556, Note_off_c, 0, 65, 0
5, 226560, Note_on_c, 0, 58, 100
5, 226748, Note_off_c, 0, 58, 0
5, 226752, Note_on_c, 0, 62, 100
5, 226940, Note_off_c, 0, 62, 0
5, 226944, Note_on_c, 0, 65, 100
5, 227132, Note_off_c, 0, 65, 0
5, 227136, Note_on_c, 0, 58, 100
5, 227324, Note_off_c, 0, 58, 0
5, 227328, Note_on_c, 0, 62, 100
5, 227516, Note_off_c, 0, 62, 0
5, 227520, Note_on_c, 0, 67, 100
5, 227708, Note_off_c, 0, 67, 0
5, 227712, Note_on_c, 0, 59, 100
5, 227900, Note_off_c, 0, 59, 0
5, 227904, Note_on_c, 0, 62, 100
5, 228092, Note_off_c, 0, 62, 0
5, 228096, Note_on_c, 0, 67, 100
5, 228284, Note_off_c, 0, 67, 0
5, 228288, Note_on_c, 0, 59, 100
5, 228476, Note_off_c, 0, 59, 0
5, 228480, Note_on_c, 0, 63, 100
5, 228668, Note_off_c, 0, 63, 0
5, 228672, Note_on_c, 0, 67, 100
5, 228860, Note_off_c, 0, 67, 0
5, 228864, Note_on_c, 0, 60, 100
5, 229052, Note_off_c, 0, 60, 0
5, 229056, Note_on_c, 0, 63, 100
5, 229244, Note_off_c, 0, 63, 0
5, 229248, Note_on_c, 0, 67, 100
5, 229436, Note_off_c, 0, 67, 0
5, 229440, Note_on_c, 0, 60, 100
5, 229628, Note_off_c, 0, 60, 0
5, 229632, Note_on_c, 0, 62, 100
5, 229820, Note_off_c, 0, 62, 0
5, 229824, Note_on_c, 0, 67, 100
5, 230012, Note_off_c, 0, 67, 0
5, 230016, Note_on_c, 0, 59, 100
5, 230204, Note_off_c, 0, 59, 0
5, 230208, Note_on_c, 0, 62, 100
5, 230396, Note_off_c, 0, 62, 0
5, 230400, Note_on_c, 0, 67, 100
5, 230588, Note_off_c, 0, 67, 0
5, 230592, Note_on_c, 0, 59, 100
5, 230780, Note_off_c, 0, 59, 0
5, 230784, Note_on_c, 0, 64, 100
5, 230972, Note_off_c, 0, 64, 0
5, 230976, Note_on_c, 0, 69, 100
5, 231164, Note_off_c, 0, 69, 0
5, 231168, Note_on_c, 0, 61, 100
5, 231356, Note_off_c, 0, 61, 0
5, 231360, Note_on_c, 0, 64, 100
5, 231548, Note_off_c, 0, 64, 0
5, 231552, Note_on_c, 0, 69, 100
5, 231740, Note_off_c, 0, 69, 0
5, 231744, Note_on_c, 0, 61, 100
5, 231932, Note_off_c, 0, 61, 0
5, 231936, Note_on_c, 0, 65, 100
5, 232124, Note_off_c, 0, 65, 0
5, 232128, Note_on_c, 0, 69, 100
5, 232316, Note_off_c, 0, 69, 0
5, 232320, Note_on_c, 0, 62, 100
5, 232508, Note_off_c, 0, 62, 0
5, 232512, Note_on_c, 0, 65, 100
5, 232700, Note_off_c, 0, 65, 0
5, 232704, Note_on_c, 0, 69, 100
5, 232892, Note_off_c, 0, 69, 0
5, 232896, Note_on_c, 0, 62, 100
5, 233084, Note_off_c, 0, 62, 0
5, 233088, Note_on_c, 0, 64, 100
5, 233276, Note_off_c, 0, 64, 0
5, 233280, Note_on_c, 0, 69, 100
5, 233468, Note_off_c, 0, 69, 0
5, 233472, Note_on_c, 0, 61, 100
5, 233660, Note_off_c, 0, 61, 0
5, 233664, Note_on_c, 0, 64, 100
5, 233852, Note_off_c, 0, 64, 0
5, 233856, Note_on_c, 0, 69, 100
5, 234044, Note_off_c, 0, 69, 0
5, 234048, Note_on_c, 0, 61, 100
5, 234236, Note_off_c, 0, 61, 0
5, 234240, Note_on_c, 0, 65, 100
5, 234428, Note_off_c, 0, 65, 0
5, 234432, Note_on_c, 0, 70, 100
5, 234620, Note_off_c, 0, 70, 0
5, 234624, Note_on_c, 0, 62, 100
5, 234812, Note_off_c, 0, 62, 0
5, 234816, Note_on_c, 0, 65, 100
5, 235004, Note_off_c, 0, 65, 0
5, 235008, Note_on_c, 0, 70, 100
5, 235196, Note_off_c, 0, 70, 0
5, 235200, Note_on_c, 0, 62, 100
5, 235388, Note_off_c, 0, 62, 0
5, 235392, Note_on_c, 0, 67, 100
5, 235580, Note_off_c, 0, 67, 0
5, 235584, Note_on_c, 0, 70, 100
5, 235772, Note_off_c, 0, 70, 0
5, 235776, Note_on_c, 0, 64, 100
5, 235964, Note_off_c, 0, 64, 0
5, 235968, Note_on_c, 0, 67, 100
5, 236156, Note_off_c, 0, 67, 0
5, 236160, Note_on_c, 0, 70, 100
5, 236348, Note_off_c, 0, 70, 0
5, 236352, Note_on_c, 0, 64, 100
5, 236540, Note_off_c, 0, 64, 0
5, 236544, Note_on_c, 0, 67, 100
5, 236732, Note_off_c, 0, 67, 0
5, 236736, Note_on_c, 0, 70, 100
5, 236924, Note_off_c, 0, 70, 0
5, 236928, Note_on_c, 0, 64, 100
5, 237116, Note_off_c, 0, 64, 0
5, 237120, Note_on_c, 0, 67, 100
5, 237308, Note_off_c, 0, 67, 0
5, 237312, Note_on_c, 0, 70, 100
5, 237500, Note_off_c, 0, 70, 0
5, 237504, Note_on_c, 0, 64, 100
5, 237692, Note_off_c, 0, 64, 0
5, 237696, Note_on_c, 0, 69, 100
5, 237884, Note_off_c, 0, 69, 0
5, 237888, Note_on_c, 0, 72, 100
5, 238076, Note_off_c, 0, 72, 0
5, 238080, Note_on_c, 0, 65, 100
5, 238268, Note_off_c, 0, 65, 0
5, 238272, Note_on_c, 0, 69, 100
5, 238460, Note_off_c, 0, 69, 0
5, 238464, Note_on_c, 0, 72, 100
5, 238652, Note_off_c, 0, 72, 0
5, 238656, Note_on_c, 0, 65, 100
5, 238844, Note_off_c, 0, 65, 0
5, 238848, Note_on_c, 0, 67, 100
5, 239036, Note_off_c, 0, 67, 0
5, 239040, Note_on_c, 0, 71, 100
5, 239228, Note_off_c, 0, 71, 0
5, 239232, Note_on_c, 0, 65, 100
5, 239420, Note_off_c, 0, 65, 0
5, 239424, Note_on_c, 0, 67, 100
5, 239612, Note_off_c, 0, 67, 0
5, 239616, Note_on_c, 0, 71, 100
5, 239804, Note_off_c, 0, 71, 0
5, 239808, Note_on_c, 0, 65, 100
5, 239996, Note_off_c, 0, 65, 0
5, 240000, Note_on_c, 0, 63, 100
5, 240188, Note_off_c, 0, 63, 0
5, 240192, Note_on_c, 0, 67, 100
5, 240380, Note_off_c, 0, 67, 0
5, 240384, Note_on_c, 0, 60, 100
5, 240572, Note_off_c, 0, 60, 0
5, 240576, Note_on_c, 0, 63, 100
5, 240764, Note_off_c, 0, 63, 0
5, 240768, Note_on_c, 0, 67, 100
5, 240956, Note_off_c, 0, 67, 0
5, 240960, Note_on_c, 0, 60, 100
5, 241148, Note_off_c, 0, 60, 0
5, 241152, Note_on_c, 0, 63, 100
5, 241340, Note_off_c, 0, 63, 0
5, 241344, Note_on_c, 0, 67, 100
5, 241532, Note_off_c, 0, 67, 0
5, 241536, Note_on_c, 0, 60, 100
5, 241724, Note_off_c, 0, 60, 0
5, 241728, Note_on_c, 0, 63, 100
5, 241916, Note_off_c, 0, 63, 0
5, 241920, Note_on_c, 0, 67, 100
5, 242108, Note_off_c, 0, 67, 0
5, 242112, Note_on_c, 0, 60, 100
5, 242300, Note_off_c, 0, 60, 0
5, 242304, Note_on_c, 0, 62, 100
5, 242492, Note_off_c, 0, 62, 0
5, 242496, Note_on_c, 0, 66, 100
5, 242684, Note_off_c, 0, 66, 0
5, 242688, Note_on_c, 0, 60, 100
5, 242876, Note_off_c, 0, 60, 0
5, 242880, Note_on_c, 0, 62, 100
5, 243068, Note_off_c, 0, 62, 0
5, 243072, Note_on_c, 0, 66, 100
5, 243260, Note_off_c, 0, 66, 0
5, 243264, Note_on_c, 0, 60, 100
5, 243452, Note_off_c, 0, 60, 0
5, 243456, Note_on_c, 0, 58, 100
5, 243644, Note_off_c, 0, 58, 0
5, 243648, Note_on_c, 0, 67, 100
5, 243836, Note_off_c, 0, 67, 0
5, 243840, Note_on_c, 0, 60, 100
5, 244028, Note_off_c, 0, 60, 0
5, 244032, Note_on_c, 0, 62, 100
5, 244220, Note_off_c, 0, 62, 0
5, 244224, Note_on_c, 0, 60, 100
5, 244412, Note_off_c, 0, 60, 0
5, 244416, Note_on_c, 0, 62, 100
5, 244604, Note_off_c, 0, 62, 0
5, 261888, Note_on_c, 0, 46, 100
5, 262268, Note_off_c, 0, 46, 0
5, 262272, Note_on_c, 0, 58, 100
5, 262460, Note_off_c, 0, 58, 0
5, 262464, Note_on_c, 0, 51, 100
5, 262652, Note_off_c, 0, 51, 0
5, 262656, Note_on_c, 0, 55, 100
5, 262844, Note_off_c, 0, 55, 0
5, 262848, Note_on_c, 0, 60, 100
5, 263036, Note_off_c, 0, 60, 0
5, 263040, Note_on_c, 0, 50, 100
5, 263228, Note_off_c, 0, 50, 0
5, 263232, Note_on_c, 0, 53, 100
5, 263420, Note_off_c, 0, 53, 0
5, 263424, Note_on_c, 0, 58, 100
5, 263612, Note_off_c, 0, 58, 0
5, 263616, Note_on_c, 0, 51, 100
5, 263808, Note_on_c, 0, 60, 100
5, 263996, Note_off_c, 0, 51, 0
5, 264000, Note_on_c, 0, 53, 100
5, 264188, Note_off_c, 0, 60, 0
5, 264188, Note_off_c, 0, 53, 0
5, 264192, Note_on_c, 0, 58, 100
5, 264192, Note_on_c, 0, 62, 100
5, 264576, Note_off_c, 0, 58, 0
5, 264576, Note_off_c, 0, 62, 0
5, 265344, Note_on_c, 0, 46, 100
5, 265344, Note_on_c, 0, 50, 100
5, 265344, Note_on_c, 0, 53, 100
5, 265344, Note_on_c, 0, 58, 100
5, 265916, Note_off_c, 0, 46, 0
5, 265916, Note_off_c, 0, 50, 0
5, 265916, Note_off_c, 0, 53, 0
5, 265916, Note_off_c, 0, 58, 0
5, 266496, Note_on_c, 0, 58, 100
5, 266624, Note_off_c, 0, 58, 0
5, 266688, Note_on_c, 0, 50, 100
5, 266780, Note_off_c, 0, 50, 0
5, 266784, Note_on_c, 0, 51, 100
5, 266876, Note_off_c, 0, 51, 0
5, 266880, Note_on_c, 0, 53, 100
5, 267008, Note_off_c, 0, 53, 0
5, 267072, Note_on_c, 0, 53, 100
5, 267260, Note_off_c, 0, 53, 0
5, 267264, Note_on_c, 0, 50, 100
5, 267356, Note_off_c, 0, 50, 0
5, 267360, Note_on_c, 0, 51, 100
5, 267452, Note_off_c, 0, 51, 0
5, 267456, Note_on_c, 0, 53, 100
5, 267584, Note_off_c, 0, 53, 0
5, 267648, Note_on_c, 0, 53, 100
5, 267836, Note_off_c, 0, 53, 0
5, 267840, Note_on_c, 0, 50, 100
5, 267932, Note_off_c, 0, 50, 0
5, 267936, Note_on_c, 0, 51, 100
5, 268028, Note_off_c, 0, 51, 0
5, 268032, Note_on_c, 0, 53, 100
5, 268160, Note_off_c, 0, 53, 0
5, 268224, Note_on_c, 0, 53, 100
5, 268412, Note_off_c, 0, 53, 0
5, 268416, Note_on_c, 0, 50, 100
5, 268508, Note_off_c, 0, 50, 0
5, 268512, Note_on_c, 0, 51, 100
5, 268604, Note_off_c, 0, 51, 0
5, 268608, Note_on_c, 0, 53, 100
5, 268736, Note_off_c, 0, 53, 0
5, 268800, Note_on_c, 0, 46, 100
5, 270524, Note_off_c, 0, 46, 0
5, 270524, End_track
6, 0, Start_track
6, 0, Title_t, "Manual 2 RH"
6, 0, Control_c, 1, 0, 0
6, 0, Program_c, 1, 6
6, 0, Control_c, 1, 7, 93
6, 0, Key_signature, 0, "major"
6, 9408, Note_on_c, 1, 65, 78
6, 9596, Note_off_c, 1, 65, 0
6, 9600, Note_on_c, 1, 70, 78
6, 9788, Note_off_c, 1, 70, 0
6, 9792, Note_on_c, 1, 74, 78
6, 9792, Note_on_c, 1, 70, 78
6, 9792, Note_on_c, 1, 65, 78
6, 9980, Note_off_c, 1, 74, 0
6, 9980, Note_off_c, 1, 70, 0
6, 9980, Note_off_c, 1, 65, 0
6, 9984, Note_on_c, 1, 77, 78
6, 9984, Note_on_c, 1, 74, 78
6, 9984, Note_on_c, 1, 70, 78
6, 10172, Note_off_c, 1, 77, 0
6, 10172, Note_off_c, 1, 74, 0
6, 10172, Note_off_c, 1, 70, 0
6, 10176, Note_on_c, 1, 82, 78
6, 10176, Note_on_c, 1, 77, 78
6, 10176, Note_on_c, 1, 74, 78
6, 10364, Note_off_c, 1, 82, 0
6, 10364, Note_off_c, 1, 77, 0
6, 10364, Note_off_c, 1, 74, 0
6, 10368, Note_on_c, 1, 81, 78
6, 10460, Note_off_c, 1, 81, 0
6, 10464, Note_on_c, 1, 79, 78
6, 10556, Note_off_c, 1, 79, 0
6, 10560, Note_on_c, 1, 77, 78
6, 10652, Note_off_c, 1, 77, 0
6, 10656, Note_on_c, 1, 75, 78
6, 10748, Note_off_c, 1, 75, 0
6, 10752, Note_on_c, 1, 77, 78
6, 10844, Note_off_c, 1, 77, 0
6, 10848, Note_on_c, 1, 75, 78
6, 10940, Note_off_c, 1, 75, 0
6, 10944, Note_on_c, 1, 74, 78
6, 11036, Note_off_c, 1, 74, 0
6, 11040, Note_on_c, 1, 72, 78
6, 11132, Note_off_c, 1, 72, 0
6, 11136, Note_on_c, 1, 74, 78
6, 11228, Note_off_c, 1, 74, 0
6, 11232, Note_on_c, 1, 72, 78
6, 11324, Note_off_c, 1, 72, 0
6, 11328, Note_on_c, 1, 70, 78
6, 11420, Note_off_c, 1, 70, 0
6, 11424, Note_on_c, 1, 69, 78
6, 11516, Note_off_c, 1, 69, 0
6, 11520, Note_on_c, 1, 67, 78
6, 11612, Note_off_c, 1, 67, 0
6, 11616, Note_on_c, 1, 70, 78
6, 11708, Note_off_c, 1, 70, 0
6, 11712, Note_on_c, 1, 79, 78
6, 11804, Note_off_c, 1, 79, 0
6, 11808, Note_on_c, 1, 81, 78
6, 11900, Note_off_c, 1, 81, 0
6, 11904, Note_on_c, 1, 79, 78
6, 11996, Note_off_c, 1, 79, 0
6, 12000, Note_on_c, 1, 77, 78
6, 12092, Note_off_c, 1, 77, 0
6, 12096, Note_on_c, 1, 75, 78
6, 12188, Note_off_c, 1, 75, 0
6, 12192, Note_on_c, 1, 74, 78
6, 12284, Note_off_c, 1, 74, 0
6, 12288, Note_on_c, 1, 75, 78
6, 12380, Note_off_c, 1, 75, 0
6, 12384, Note_on_c, 1, 74, 78
6, 12476, Note_off_c, 1, 74, 0
6, 12480, Note_on_c, 1, 72, 78
6, 12572, Note_off_c, 1, 72, 0
6, 12576, Note_on_c, 1, 70, 78
6, 12668, Note_off_c, 1, 70, 0
6, 12672, Note_on_c, 1, 69, 78
6, 12764, Note_off_c, 1, 69, 0
6, 12768, Note_on_c, 1, 72, 78
6, 12860, Note_off_c, 1, 72, 0
6, 12864, Note_on_c, 1, 81, 78
6, 12956, Note_off_c, 1, 81, 0
6, 12960, Note_on_c, 1, 82, 78
6, 13052, Note_off_c, 1, 82, 0
6, 13056, Note_on_c, 1, 81, 78
6, 13148, Note_off_c, 1, 81, 0
6, 13152, Note_on_c, 1, 79, 78
6, 13244, Note_off_c, 1, 79, 0
6, 13248, Note_on_c, 1, 77, 78
6, 13340, Note_off_c, 1, 77, 0
6, 13344, Note_on_c, 1, 75, 78
6, 13436, Note_off_c, 1, 75, 0
6, 13440, Note_on_c, 1, 77, 78
6, 13532, Note_off_c, 1, 77, 0
6, 13536, Note_on_c, 1, 75, 78
6, 13628, Note_off_c, 1, 75, 0
6, 13632, Note_on_c, 1, 74, 78
6, 13724, Note_off_c, 1, 74, 0
6, 13728, Note_on_c, 1, 72, 78
6, 13820, Note_off_c, 1, 72, 0
6, 13824, Note_on_c, 1, 70, 78
6, 13916, Note_off_c, 1, 70, 0
6, 13920, Note_on_c, 1, 74, 78
6, 14012, Note_off_c, 1, 74, 0
6, 14016, Note_on_c, 1, 82, 78
6, 14108, Note_off_c, 1, 82, 0
6, 14112, Note_on_c, 1, 84, 78
6, 14204, Note_off_c, 1, 84, 0
6, 14208, Note_on_c, 1, 82, 78
6, 14300, Note_off_c, 1, 82, 0
6, 14304, Note_on_c, 1, 81, 78
6, 14396, Note_off_c, 1, 81, 0
6, 14400, Note_on_c, 1, 79, 78
6, 14492, Note_off_c, 1, 79, 0
6, 14496, Note_on_c, 1, 77, 78
6, 14588, Note_off_c, 1, 77, 0
6, 14592, Note_on_c, 1, 79, 78
6, 14684, Note_off_c, 1, 79, 0
6, 14688, Note_on_c, 1, 77, 78
6, 14780, Note_off_c, 1, 77, 0
6, 14784, Note_on_c, 1, 75, 78
6, 14876, Note_off_c, 1, 75, 0
6, 14880, Note_on_c, 1, 74, 78
6, 14972, Note_off_c, 1, 74, 0
6, 14976, Note_on_c, 1, 72, 78
6, 15068, Note_off_c, 1, 72, 0
6, 15072, Note_on_c, 1, 75, 78
6, 15164, Note_off_c, 1, 75, 0
6, 15168, Note_on_c, 1, 77, 78
6, 15260, Note_off_c, 1, 77, 0
6, 15264, Note_on_c, 1, 79, 78
6, 15356, Note_off_c, 1, 79, 0
6, 15360, Note_on_c, 1, 81, 78
6, 15452, Note_off_c, 1, 81, 0
6, 15456, Note_on_c, 1, 82, 78
6, 15548, Note_off_c, 1, 82, 0
6, 15552, Note_on_c, 1, 84, 78
6, 15644, Note_off_c, 1, 84, 0
6, 15648, Note_on_c, 1, 82, 78
6, 15740, Note_off_c, 1, 82, 0
6, 15744, Note_on_c, 1, 81, 78
6, 15836, Note_off_c, 1, 81, 0
6, 15840, Note_on_c, 1, 79, 78
6, 15932, Note_off_c, 1, 79, 0
6, 15936, Note_on_c, 1, 77, 78
6, 16028, Note_off_c, 1, 77, 0
6, 16032, Note_on_c, 1, 75, 78
6, 16124, Note_off_c, 1, 75, 0
6, 16128, Note_on_c, 1, 74, 78
6, 16220, Note_off_c, 1, 74, 0
6, 16224, Note_on_c, 1, 70, 78
6, 16316, Note_off_c, 1, 70, 0
6, 16320, Note_on_c, 1, 72, 78
6, 16412, Note_off_c, 1, 72, 0
6, 16416, Note_on_c, 1, 74, 78
6, 16508, Note_off_c, 1, 74, 0
6, 16512, Note_on_c, 1, 75, 78
6, 16604, Note_off_c, 1, 75, 0
6, 16608, Note_on_c, 1, 77, 78
6, 16700, Note_off_c, 1, 77, 0
6, 16704, Note_on_c, 1, 79, 78
6, 16796, Note_off_c, 1, 79, 0
6, 16800, Note_on_c, 1, 77, 78
6, 16892, Note_off_c, 1, 77, 0
6, 16896, Note_on_c, 1, 75, 78
6, 16988, Note_off_c, 1, 75, 0
6, 16992, Note_on_c, 1, 74, 78
6, 17084, Note_off_c, 1, 74, 0
6, 17088, Note_on_c, 1, 72, 78
6, 17180, Note_off_c, 1, 72, 0
6, 17184, Note_on_c, 1, 70, 78
6, 17276, Note_off_c, 1, 70, 0
6, 17280, Note_on_c, 1, 69, 78
6, 17372, Note_off_c, 1, 69, 0
6, 17376, Note_on_c, 1, 72, 78
6, 17468, Note_off_c, 1, 72, 0
6, 17472, Note_on_c, 1, 77, 78
6, 17564, Note_off_c, 1, 77, 0
6, 17568, Note_on_c, 1, 77, 78
6, 17568, Note_on_c, 1, 72, 78
6, 17568, Note_on_c, 1, 69, 78
6, 17660, Note_off_c, 1, 77, 0
6, 17660, Note_off_c, 1, 72, 0
6, 17660, Note_off_c, 1, 69, 0
6, 17664, Note_on_c, 1, 77, 78
6, 17664, Note_on_c, 1, 72, 78
6, 17664, Note_on_c, 1, 69, 78
6, 17756, Note_off_c, 1, 77, 0
6, 17756, Note_off_c, 1, 72, 0
6, 17756, Note_off_c, 1, 69, 0
6, 17760, Note_on_c, 1, 77, 78
6, 17760, Note_on_c, 1, 72, 78
6, 17760, Note_on_c, 1, 69, 78
6, 17852, Note_off_c, 1, 77, 0
6, 17852, Note_off_c, 1, 72, 0
6, 17852, Note_off_c, 1, 69, 0
6, 17856, Note_on_c, 1, 77, 78
6, 17856, Note_on_c, 1, 72, 78
6, 17856, Note_on_c, 1, 69, 78
6, 17948, Note_off_c, 1, 77, 0
6, 17948, Note_off_c, 1, 72, 0
6, 17948, Note_off_c, 1, 69, 0
6, 17952, Note_on_c, 1, 77, 78
6, 17952, Note_on_c, 1, 72, 78
6, 17952, Note_on_c, 1, 69, 78
6, 18044, Note_off_c, 1, 77, 0
6, 18044, Note_off_c, 1, 72, 0
6, 18044, Note_off_c, 1, 69, 0
6, 18048, Note_on_c, 1, 69, 78
6, 18140, Note_off_c, 1, 69, 0
6, 18144, Note_on_c, 1, 77, 78
6, 18236, Note_off_c, 1, 77, 0
6, 18240, Note_on_c, 1, 69, 78
6, 18332, Note_off_c, 1, 69, 0
6, 18336, Note_on_c, 1, 77, 78
6, 18428, Note_off_c, 1, 77, 0
6, 18432, Note_on_c, 1, 70, 78
6, 18524, Note_off_c, 1, 70, 0
6, 18528, Note_on_c, 1, 74, 78
6, 18620, Note_off_c, 1, 74, 0
6, 18624, Note_on_c, 1, 77, 78
6, 18716, Note_off_c, 1, 77, 0
6, 18720, Note_on_c, 1, 77, 78
6, 18720, Note_on_c, 1, 74, 78
6, 18720, Note_on_c, 1, 70, 78
6, 18812, Note_off_c, 1, 77, 0
6, 18812, Note_off_c, 1, 74, 0
6, 18812, Note_off_c, 1, 70, 0
6, 18816, Note_on_c, 1, 77, 78
6, 18816, Note_on_c, 1, 74, 78
6, 18816, Note_on_c, 1, 70, 78
6, 18908, Note_off_c, 1, 77, 0
6, 18908, Note_off_c, 1, 74, 0
6, 18908, Note_off_c, 1, 70, 0
6, 18912, Note_on_c, 1, 77, 78
6, 18912, Note_on_c, 1, 74, 78
6, 18912, Note_on_c, 1, 70, 78
6, 19004, Note_off_c, 1, 77, 0
6, 19004, Note_off_c, 1, 74, 0
6, 19004, Note_off_c, 1, 70, 0
6, 19008, Note_on_c, 1, 77, 78
6, 19008, Note_on_c, 1, 74, 78
6, 19008, Note_on_c, 1, 70, 78
6, 19100, Note_off_c, 1, 77, 0
6, 19100, Note_off_c, 1, 74, 0
6, 19100, Note_off_c, 1, 70, 0
6, 19104, Note_on_c, 1, 77, 78
6, 19104, Note_on_c, 1, 74, 78
6, 19104, Note_on_c, 1, 70, 78
6, 19196, Note_off_c, 1, 77, 0
6, 19196, Note_off_c, 1, 74, 0
6, 19196, Note_off_c, 1, 70, 0
6, 19200, Note_on_c, 1, 74, 78
6, 19292, Note_off_c, 1, 74, 0
6, 19296, Note_on_c, 1, 77, 78
6, 19388, Note_off_c, 1, 77, 0
6, 19392, Note_on_c, 1, 74, 78
6, 19484, Note_off_c, 1, 74, 0
6, 19488, Note_on_c, 1, 77, 78
6, 19580, Note_off_c, 1, 77, 0
6, 19584, Note_on_c, 1, 69, 78
6, 19676, Note_off_c, 1, 69, 0
6, 19680, Note_on_c, 1, 72, 78
6, 19772, Note_off_c, 1, 72, 0
6, 19776, Note_on_c, 1, 77, 78
6, 19868, Note_off_c, 1, 77, 0
6, 19872, Note_on_c, 1, 77, 78
6, 19872, Note_on_c, 1, 72, 78
6, 19872, Note_on_c, 1, 69, 78
6, 19964, Note_off_c, 1, 77, 0
6, 19964, Note_off_c, 1, 72, 0
6, 19964, Note_off_c, 1, 69, 0
6, 19968, Note_on_c, 1, 77, 78
6, 19968, Note_on_c, 1, 72, 78
6, 19968, Note_on_c, 1, 69, 78
6, 20060, Note_off_c, 1, 77, 0
6, 20060, Note_off_c, 1, 72, 0
6, 20060, Note_off_c, 1, 69, 0
6, 20064, Note_on_c, 1, 77, 78
6, 20064, Note_on_c, 1, 72, 78
6, 20064, Note_on_c, 1, 69, 78
6, 20156, Note_off_c, 1, 77, 0
6, 20156, Note_off_c, 1, 72, 0
6, 20156, Note_off_c, 1, 69, 0
6, 20160, Note_on_c, 1, 77, 78
6, 20160, Note_on_c, 1, 72, 78
6, 20160, Note_on_c, 1, 69, 78
6, 20252, Note_off_c, 1, 77, 0
6, 20252, Note_off_c, 1, 72, 0
6, 20252, Note_off_c, 1, 69, 0
6, 20256, Note_on_c, 1, 77, 78
6, 20256, Note_on_c, 1, 72, 78
6, 20256, Note_on_c, 1, 69, 78
6, 20348, Note_off_c, 1, 77, 0
6, 20348, Note_off_c, 1, 72, 0
6, 20348, Note_off_c, 1, 69, 0
6, 20352, Note_on_c, 1, 69, 78
6, 20444, Note_off_c, 1, 69, 0
6, 20448, Note_on_c, 1, 77, 78
6, 20540, Note_off_c, 1, 77, 0
6, 20544, Note_on_c, 1, 69, 78
6, 20636, Note_off_c, 1, 69, 0
6, 20640, Note_on_c, 1, 77, 78
6, 20732, Note_off_c, 1, 77, 0
6, 20736, Note_on_c, 1, 71, 78
6, 20828, Note_off_c, 1, 71, 0
6, 20832, Note_on_c, 1, 74, 78
6, 20924, Note_off_c, 1, 74, 0
6, 20928, Note_on_c, 1, 79, 78
6, 21020, Note_off_c, 1, 79, 0
6, 21024, Note_on_c, 1, 79, 78
6, 21024, Note_on_c, 1, 74, 78
6, 21024, Note_on_c, 1, 71, 78
6, 21116, Note_off_c, 1, 79, 0
6, 21116, Note_off_c, 1, 74, 0
6, 21116, Note_off_c, 1, 71, 0
6, 21120, Note_on_c, 1, 79, 78
6, 21120, Note_on_c, 1, 74, 78
6, 21120, Note_on_c, 1, 71, 78
6, 21212, Note_off_c, 1, 79, 0
6, 21212, Note_off_c, 1, 74, 0
6, 21212, Note_off_c, 1, 71, 0
6, 21216, Note_on_c, 1, 79, 78
6, 21216, Note_on_c, 1, 74, 78
6, 21216, Note_on_c, 1, 71, 78
6, 21308, Note_off_c, 1, 79, 0
6, 21308, Note_off_c, 1, 74, 0
6, 21308, Note_off_c, 1, 71, 0
6, 21312, Note_on_c, 1, 79, 78
6, 21312, Note_on_c, 1, 74, 78
6, 21312, Note_on_c, 1, 71, 78
6, 21404, Note_off_c, 1, 79, 0
6, 21404, Note_off_c, 1, 74, 0
6, 21404, Note_off_c, 1, 71, 0
6, 21408, Note_on_c, 1, 79, 78
6, 21408, Note_on_c, 1, 74, 78
6, 21408, Note_on_c, 1, 71, 78
6, 21500, Note_off_c, 1, 79, 0
6, 21500, Note_off_c, 1, 74, 0
6, 21500, Note_off_c, 1, 71, 0
6, 21504, Note_on_c, 1, 71, 78
6, 21596, Note_off_c, 1, 71, 0
6, 21600, Note_on_c, 1, 79, 78
6, 21692, Note_off_c, 1, 79, 0
6, 21696, Note_on_c, 1, 71, 78
6, 21788, Note_off_c, 1, 71, 0
6, 21792, Note_on_c, 1, 79, 78
6, 21884, Note_off_c, 1, 79, 0
6, 21888, Note_on_c, 1, 72, 78
6, 21980, Note_off_c, 1, 72, 0
6, 21984, Note_on_c, 1, 75, 78
6, 22076, Note_off_c, 1, 75, 0
6, 22080, Note_on_c, 1, 79, 78
6, 22172, Note_off_c, 1, 79, 0
6, 22176, Note_on_c, 1, 72, 78
6, 22176, Note_on_c, 1, 79, 78
6, 22176, Note_on_c, 1, 75, 78
6, 22268, Note_off_c, 1, 72, 0
6, 22268, Note_off_c, 1, 79, 0
6, 22268, Note_off_c, 1, 75, 0
6, 22272, Note_on_c, 1, 72, 78
6, 22272, Note_on_c, 1, 79, 78
6, 22272, Note_on_c, 1, 75, 78
6, 22364, Note_off_c, 1, 72, 0
6, 22364, Note_off_c, 1, 79, 0
6, 22364, Note_off_c, 1, 75, 0
6, 22368, Note_on_c, 1, 72, 78
6, 22368, Note_on_c, 1, 79, 78
6, 22368, Note_on_c, 1, 75, 78
6, 22368, Note_on_c, 1, 75, 78
6, 22460, Note_off_c, 1, 72, 0
6, 22460, Note_off_c, 1, 79, 0
6, 22460, Note_off_c, 1, 75, 0
6, 22460, Note_off_c, 1, 75, 0
6, 22464, Note_on_c, 1, 79, 78
6, 22464, Note_on_c, 1, 75, 78
6, 22464, Note_on_c, 1, 72, 78
6, 22556, Note_off_c, 1, 79, 0
6, 22556, Note_off_c, 1, 75, 0
6, 22556, Note_off_c, 1, 72, 0
6, 22560, Note_on_c, 1, 72, 78
6, 22560, Note_on_c, 1, 79, 78
6, 22560, Note_on_c, 1, 75, 78
6, 22652, Note_off_c, 1, 72, 0
6, 22652, Note_off_c, 1, 79, 0
6, 22652, Note_off_c, 1, 75, 0
6, 22656, Note_on_c, 1, 75, 78
6, 22748, Note_off_c, 1, 75, 0
6, 22752, Note_on_c, 1, 79, 78
6, 22844, Note_off_c, 1, 79, 0
6, 22848, Note_on_c, 1, 75, 78
6, 22940, Note_off_c, 1, 75, 0
6, 22944, Note_on_c, 1, 79, 78
6, 23036, Note_off_c, 1, 79, 0
6, 23040, Note_on_c, 1, 73, 78
6, 23132, Note_off_c, 1, 73, 0
6, 23136, Note_on_c, 1, 76, 78
6, 23228, Note_off_c, 1, 76, 0
6, 23232, Note_on_c, 1, 81, 78
6, 23324, Note_off_c, 1, 81, 0
6, 23328, Note_on_c, 1, 81, 78
6, 23328, Note_on_c, 1, 76, 78
6, 23328, Note_on_c, 1, 73, 78
6, 23420, Note_off_c, 1, 81, 0
6, 23420, Note_off_c, 1, 76, 0
6, 23420, Note_off_c, 1, 73, 0
6, 23424, Note_on_c, 1, 81, 78
6, 23424, Note_on_c, 1, 76, 78
6, 23424, Note_on_c, 1, 73, 78
6, 23516, Note_off_c, 1, 81, 0
6, 23516, Note_off_c, 1, 76, 0
6, 23516, Note_off_c, 1, 73, 0
6, 23520, Note_on_c, 1, 81, 78
6, 23520, Note_on_c, 1, 76, 78
6, 23520, Note_on_c, 1, 73, 78
6, 23612, Note_off_c, 1, 81, 0
6, 23612, Note_off_c, 1, 76, 0
6, 23612, Note_off_c, 1, 73, 0
6, 23616, Note_on_c, 1, 81, 78
6, 23616, Note_on_c, 1, 76, 78
6, 23616, Note_on_c, 1, 73, 78
6, 23708, Note_off_c, 1, 81, 0
6, 23708, Note_off_c, 1, 76, 0
6, 23708, Note_off_c, 1, 73, 0
6, 23712, Note_on_c, 1, 81, 78
6, 23712, Note_on_c, 1, 76, 78
6, 23712, Note_on_c, 1, 73, 78
6, 23804, Note_off_c, 1, 81, 0
6, 23804, Note_off_c, 1, 76, 0
6, 23804, Note_off_c, 1, 73, 0
6, 23808, Note_on_c, 1, 73, 78
6, 23900, Note_off_c, 1, 73, 0
6, 23904, Note_on_c, 1, 81, 78
6, 23996, Note_off_c, 1, 81, 0
6, 24000, Note_on_c, 1, 73, 78
6, 24092, Note_off_c, 1, 73, 0
6, 24096, Note_on_c, 1, 81, 78
6, 24188, Note_off_c, 1, 81, 0
6, 24192, Note_on_c, 1, 72, 78
6, 24284, Note_off_c, 1, 72, 0
6, 24288, Note_on_c, 1, 74, 78
6, 24380, Note_off_c, 1, 74, 0
6, 24384, Note_on_c, 1, 81, 78
6, 24476, Note_off_c, 1, 81, 0
6, 24480, Note_on_c, 1, 81, 78
6, 24480, Note_on_c, 1, 74, 78
6, 24480, Note_on_c, 1, 72, 78
6, 24572, Note_off_c, 1, 81, 0
6, 24572, Note_off_c, 1, 74, 0
6, 24572, Note_off_c, 1, 72, 0
6, 24576, Note_on_c, 1, 81, 78
6, 24576, Note_on_c, 1, 74, 78
6, 24576, Note_on_c, 1, 72, 78
6, 24668, Note_off_c, 1, 81, 0
6, 24668, Note_off_c, 1, 74, 0
6, 24668, Note_off_c, 1, 72, 0
6, 24672, Note_on_c, 1, 81, 78
6, 24672, Note_on_c, 1, 74, 78
6, 24672, Note_on_c, 1, 72, 78
6, 24764, Note_off_c, 1, 81, 0
6, 24764, Note_off_c, 1, 74, 0
6, 24764, Note_off_c, 1, 72, 0
6, 24768, Note_on_c, 1, 81, 78
6, 24768, Note_on_c, 1, 74, 78
6, 24768, Note_on_c, 1, 72, 78
6, 24860, Note_off_c, 1, 81, 0
6, 24860, Note_off_c, 1, 74, 0
6, 24860, Note_off_c, 1, 72, 0
6, 24864, Note_on_c, 1, 81, 78
6, 24864, Note_on_c, 1, 74, 78
6, 24864, Note_on_c, 1, 72, 78
6, 24956, Note_off_c, 1, 81, 0
6, 24956, Note_off_c, 1, 74, 0
6, 24956, Note_off_c, 1, 72, 0
6, 24960, Note_on_c, 1, 72, 78
6, 25052, Note_off_c, 1, 72, 0
6, 25056, Note_on_c, 1, 81, 78
6, 25148, Note_off_c, 1, 81, 0
6, 25152, Note_on_c, 1, 72, 78
6, 25244, Note_off_c, 1, 72, 0
6, 25248, Note_on_c, 1, 81, 78
6, 25340, Note_off_c, 1, 81, 0
6, 25344, Note_on_c, 1, 70, 78
6, 25436, Note_off_c, 1, 70, 0
6, 25440, Note_on_c, 1, 74, 78
6, 25532, Note_off_c, 1, 74, 0
6, 25536, Note_on_c, 1, 79, 78
6, 25628, Note_off_c, 1, 79, 0
6, 25632, Note_on_c, 1, 79, 78
6, 25632, Note_on_c, 1, 74, 78
6, 25632, Note_on_c, 1, 70, 78
6, 25724, Note_off_c, 1, 79, 0
6, 25724, Note_off_c, 1, 74, 0
6, 25724, Note_off_c, 1, 70, 0
6, 25728, Note_on_c, 1, 79, 78
6, 25728, Note_on_c, 1, 74, 78
6, 25728, Note_on_c, 1, 70, 78
6, 25820, Note_off_c, 1, 79, 0
6, 25820, Note_off_c, 1, 74, 0
6, 25820, Note_off_c, 1, 70, 0
6, 25824, Note_on_c, 1, 79, 78
6, 25824, Note_on_c, 1, 74, 78
6, 25824, Note_on_c, 1, 70, 78
6, 25916, Note_off_c, 1, 79, 0
6, 25916, Note_off_c, 1, 74, 0
6, 25916, Note_off_c, 1, 70, 0
6, 25920, Note_on_c, 1, 79, 78
6, 25920, Note_on_c, 1, 74, 78
6, 25920, Note_on_c, 1, 70, 78
6, 26012, Note_off_c, 1, 79, 0
6, 26012, Note_off_c, 1, 74, 0
6, 26012, Note_off_c, 1, 70, 0
6, 26016, Note_on_c, 1, 79, 78
6, 26016, Note_on_c, 1, 74, 78
6, 26016, Note_on_c, 1, 70, 78
6, 26108, Note_off_c, 1, 79, 0
6, 26108, Note_off_c, 1, 74, 0
6, 26108, Note_off_c, 1, 70, 0
6, 26112, Note_on_c, 1, 70, 78
6, 26204, Note_off_c, 1, 70, 0
6, 26208, Note_on_c, 1, 79, 78
6, 26300, Note_off_c, 1, 79, 0
6, 26304, Note_on_c, 1, 70, 78
6, 26396, Note_off_c, 1, 70, 0
6, 26400, Note_on_c, 1, 79, 78
6, 26492, Note_off_c, 1, 79, 0
6, 26496, Note_on_c, 1, 69, 78
6, 26588, Note_off_c, 1, 69, 0
6, 26592, Note_on_c, 1, 72, 78
6, 26684, Note_off_c, 1, 72, 0
6, 26688, Note_on_c, 1, 79, 78
6, 26780, Note_off_c, 1, 79, 0
6, 26784, Note_on_c, 1, 72, 78
6, 26784, Note_on_c, 1, 69, 78
6, 26784, Note_on_c, 1, 79, 78
6, 26876, Note_off_c, 1, 72, 0
6, 26876, Note_off_c, 1, 69, 0
6, 26876, Note_off_c, 1, 79, 0
6, 26880, Note_on_c, 1, 69, 78
6, 26880, Note_on_c, 1, 72, 78
6, 26880, Note_on_c, 1, 79, 78
6, 26972, Note_off_c, 1, 69, 0
6, 26972, Note_off_c, 1, 72, 0
6, 26972, Note_off_c, 1, 79, 0
6, 26976, Note_on_c, 1, 72, 78
6, 26976, Note_on_c, 1, 69, 78
6, 26976, Note_on_c, 1, 79, 78
6, 27068, Note_off_c, 1, 72, 0
6, 27068, Note_off_c, 1, 69, 0
6, 27068, Note_off_c, 1, 79, 0
6, 27072, Note_on_c, 1, 72, 78
6, 27072, Note_on_c, 1, 69, 78
6, 27072, Note_on_c, 1, 79, 78
6, 27164, Note_off_c, 1, 72, 0
6, 27164, Note_off_c, 1, 69, 0
6, 27164, Note_off_c, 1, 79, 0
6, 27168, Note_on_c, 1, 72, 78
6, 27168, Note_on_c, 1, 69, 78
6, 27168, Note_on_c, 1, 79, 78
6, 27260, Note_off_c, 1, 72, 0
6, 27260, Note_off_c, 1, 69, 0
6, 27260, Note_off_c, 1, 79, 0
6, 27264, Note_on_c, 1, 69, 78
6, 27356, Note_off_c, 1, 69, 0
6, 27360, Note_on_c, 1, 79, 78
6, 27452, Note_off_c, 1, 79, 0
6, 27456, Note_on_c, 1, 69, 78
6, 27548, Note_off_c, 1, 69, 0
6, 27552, Note_on_c, 1, 79, 78
6, 27644, Note_off_c, 1, 79, 0
6, 27648, Note_on_c, 1, 69, 78
6, 27740, Note_off_c, 1, 69, 0
6, 27744, Note_on_c, 1, 72, 78
6, 27836, Note_off_c, 1, 72, 0
6, 27840, Note_on_c, 1, 78, 78
6, 27932, Note_off_c, 1, 78, 0
6, 27936, Note_on_c, 1, 78, 78
6, 27936, Note_on_c, 1, 72, 78
6, 27936, Note_on_c, 1, 69, 78
6, 28028, Note_off_c, 1, 78, 0
6, 28028, Note_off_c, 1, 72, 0
6, 28028, Note_off_c, 1, 69, 0
6, 28032, Note_on_c, 1, 78, 78
6, 28032, Note_on_c, 1, 72, 78
6, 28032, Note_on_c, 1, 69, 78
6, 28124, Note_off_c, 1, 78, 0
6, 28124, Note_off_c, 1, 72, 0
6, 28124, Note_off_c, 1, 69, 0
6, 28128, Note_on_c, 1, 78, 78
6, 28128, Note_on_c, 1, 72, 78
6, 28128, Note_on_c, 1, 69, 78
6, 28220, Note_off_c, 1, 78, 0
6, 28220, Note_off_c, 1, 72, 0
6, 28220, Note_off_c, 1, 69, 0
6, 28224, Note_on_c, 1, 78, 78
6, 28224, Note_on_c, 1, 72, 78
6, 28224, Note_on_c, 1, 69, 78
6, 28316, Note_off_c, 1, 78, 0
6, 28316, Note_off_c, 1, 72, 0
6, 28316, Note_off_c, 1, 69, 0
6, 28320, Note_on_c, 1, 78, 78
6, 28320, Note_on_c, 1, 72, 78
6, 28320, Note_on_c, 1, 69, 78
6, 28412, Note_off_c, 1, 78, 0
6, 28412, Note_off_c, 1, 72, 0
6, 28412, Note_off_c, 1, 69, 0
6, 28416, Note_on_c, 1, 69, 78
6, 28508, Note_off_c, 1, 69, 0
6, 28512, Note_on_c, 1, 78, 78
6, 28604, Note_off_c, 1, 78, 0
6, 28608, Note_on_c, 1, 69, 78
6, 28700, Note_off_c, 1, 69, 0
6, 28704, Note_on_c, 1, 78, 78
6, 28796, Note_off_c, 1, 78, 0
6, 28800, Note_on_c, 1, 79, 78
6, 28892, Note_off_c, 1, 79, 0
6, 28896, Note_on_c, 1, 74, 78
6, 28988, Note_off_c, 1, 74, 0
6, 28992, Note_on_c, 1, 70, 78
6, 29084, Note_off_c, 1, 70, 0
6, 29088, Note_on_c, 1, 67, 78
6, 29180, Note_off_c, 1, 67, 0
6, 29184, Note_on_c, 1, 74, 78
6, 29276, Note_off_c, 1, 74, 0
6, 29280, Note_on_c, 1, 70, 78
6, 29372, Note_off_c, 1, 70, 0
6, 29376, Note_on_c, 1, 67, 78
6, 29468, Note_off_c, 1, 67, 0
6, 29472, Note_on_c, 1, 62, 78
6, 29564, Note_off_c, 1, 62, 0
6, 29568, Note_on_c, 1, 70, 78
6, 29660, Note_off_c, 1, 70, 0
6, 29664, Note_on_c, 1, 67, 78
6, 29756, Note_off_c, 1, 67, 0
6, 29760, Note_on_c, 1, 62, 78
6, 29852, Note_off_c, 1, 62, 0
6, 29856, Note_on_c, 1, 58, 78
6, 29948, Note_off_c, 1, 58, 0
6, 29952, Note_on_c, 1, 55, 78
6, 30140, Note_off_c, 1, 55, 0
6, 40320, Note_on_c, 1, 72, 78
6, 40320, Note_on_c, 1, 60, 78
6, 40412, Note_off_c, 1, 72, 0
6, 40416, Note_on_c, 1, 75, 78
6, 40508, Note_off_c, 1, 60, 0
6, 40508, Note_off_c, 1, 75, 0
6, 40512, Note_on_c, 1, 72, 78
6, 40512, Note_on_c, 1, 60, 78
6, 40604, Note_off_c, 1, 72, 0
6, 40604, Note_off_c, 1, 60, 0
6, 40608, Note_on_c, 1, 75, 78
6, 40608, Note_on_c, 1, 62, 78
6, 40700, Note_off_c, 1, 75, 0
6, 40700, Note_off_c, 1, 62, 0
6, 40704, Note_on_c, 1, 63, 78
6, 40704, Note_on_c, 1, 67, 78
6, 40796, Note_off_c, 1, 67, 0
6, 40800, Note_on_c, 1, 75, 78
6, 40892, Note_off_c, 1, 63, 0
6, 40892, Note_off_c, 1, 75, 0
6, 40896, Note_on_c, 1, 67, 78
6, 40896, Note_on_c, 1, 72, 78
6, 40988, Note_off_c, 1, 72, 0
6, 40992, Note_on_c, 1, 75, 78
6, 41084, Note_off_c, 1, 67, 0
6, 41084, Note_off_c, 1, 75, 0
6, 41088, Note_on_c, 1, 63, 78
6, 41088, Note_on_c, 1, 67, 78
6, 41180, Note_off_c, 1, 67, 0
6, 41184, Note_on_c, 1, 75, 78
6, 41276, Note_off_c, 1, 63, 0
6, 41276, Note_off_c, 1, 75, 0
6, 41280, Note_on_c, 1, 60, 78
6, 41280, Note_on_c, 1, 67, 78
6, 41372, Note_off_c, 1, 67, 0
6, 41376, Note_on_c, 1, 75, 78
6, 41468, Note_off_c, 1, 60, 0
6, 41468, Note_off_c, 1, 75, 0
6, 41472, Note_on_c, 1, 67, 78
6, 41564, Note_off_c, 1, 67, 0
6, 41568, Note_on_c, 1, 74, 78
6, 41660, Note_off_c, 1, 74, 0
6, 41664, Note_on_c, 1, 71, 78
6, 41756, Note_off_c, 1, 71, 0
6, 41760, Note_on_c, 1, 74, 78
6, 41852, Note_off_c, 1, 74, 0
6, 41856, Note_on_c, 1, 67, 78
6, 41948, Note_off_c, 1, 67, 0
6, 41952, Note_on_c, 1, 74, 78
6, 42044, Note_off_c, 1, 74, 0
6, 42048, Note_on_c, 1, 71, 78
6, 42140, Note_off_c, 1, 71, 0
6, 42144, Note_on_c, 1, 74, 78
6, 42236, Note_off_c, 1, 74, 0
6, 42240, Note_on_c, 1, 67, 78
6, 42332, Note_off_c, 1, 67, 0
6, 42336, Note_on_c, 1, 74, 78
6, 42428, Note_off_c, 1, 74, 0
6, 42432, Note_on_c, 1, 67, 78
6, 42524, Note_off_c, 1, 67, 0
6, 42528, Note_on_c, 1, 74, 78
6, 42620, Note_off_c, 1, 74, 0
6, 42624, Note_on_c, 1, 67, 78
6, 42716, Note_off_c, 1, 67, 0
6, 42720, Note_on_c, 1, 75, 78
6, 42812, Note_off_c, 1, 75, 0
6, 42816, Note_on_c, 1, 72, 78
6, 42908, Note_off_c, 1, 72, 0
6, 42912, Note_on_c, 1, 75, 78
6, 43004, Note_off_c, 1, 75, 0
6, 43008, Note_on_c, 1, 67, 78
6, 43008, Note_on_c, 1, 63, 78
6, 43100, Note_off_c, 1, 67, 0
6, 43104, Note_on_c, 1, 75, 78
6, 43196, Note_off_c, 1, 63, 0
6, 43196, Note_off_c, 1, 75, 0
6, 43200, Note_on_c, 1, 72, 78
6, 43200, Note_on_c, 1, 67, 78
6, 43292, Note_off_c, 1, 72, 0
6, 43296, Note_on_c, 1, 75, 78
6, 43388, Note_off_c, 1, 67, 0
6, 43388, Note_off_c, 1, 75, 0
6, 43392, Note_on_c, 1, 67, 78
6, 43392, Note_on_c, 1, 63, 78
6, 43484, Note_off_c, 1, 67, 0
6, 43488, Note_on_c, 1, 75, 78
6, 43580, Note_off_c, 1, 63, 0
6, 43580, Note_off_c, 1, 75, 0
6, 43584, Note_on_c, 1, 67, 78
6, 43584, Note_on_c, 1, 60, 78
6, 43676, Note_off_c, 1, 67, 0
6, 43680, Note_on_c, 1, 75, 78
6, 43772, Note_off_c, 1, 60, 0
6, 43772, Note_off_c, 1, 75, 0
6, 43776, Note_on_c, 1, 65, 78
6, 43868, Note_off_c, 1, 65, 0
6, 43872, Note_on_c, 1, 75, 78
6, 43964, Note_off_c, 1, 75, 0
6, 43968, Note_on_c, 1, 72, 78
6, 44060, Note_off_c, 1, 72, 0
6, 44064, Note_on_c, 1, 75, 78
6, 44156, Note_off_c, 1, 75, 0
6, 44160, Note_on_c, 1, 65, 78
6, 44252, Note_off_c, 1, 65, 0
6, 44256, Note_on_c, 1, 75, 78
6, 44348, Note_off_c, 1, 75, 0
6, 44352, Note_on_c, 1, 72, 78
6, 44444, Note_off_c, 1, 72, 0
6, 44448, Note_on_c, 1, 75, 78
6, 44540, Note_off_c, 1, 75, 0
6, 44544, Note_on_c, 1, 65, 78
6, 44636, Note_off_c, 1, 65, 0
6, 44640, Note_on_c, 1, 75, 78
6, 44732, Note_off_c, 1, 75, 0
6, 44736, Note_on_c, 1, 65, 78
6, 44828, Note_off_c, 1, 65, 0
6, 44832, Note_on_c, 1, 75, 78
6, 44924, Note_off_c, 1, 75, 0
6, 44928, Note_on_c, 1, 65, 78
6, 45020, Note_off_c, 1, 65, 0
6, 45024, Note_on_c, 1, 73, 78
6, 45116, Note_off_c, 1, 73, 0
6, 45120, Note_on_c, 1, 70, 78
6, 45212, Note_off_c, 1, 70, 0
6, 45216, Note_on_c, 1, 73, 78
6, 45308, Note_off_c, 1, 73, 0
6, 45312, Note_on_c, 1, 65, 78
6, 45404, Note_off_c, 1, 65, 0
6, 45408, Note_on_c, 1, 73, 78
6, 45500, Note_off_c, 1, 73, 0
6, 45504, Note_on_c, 1, 70, 78
6, 45596, Note_off_c, 1, 70, 0
6, 45600, Note_on_c, 1, 73, 78
6, 45692, Note_off_c, 1, 73, 0
6, 45696, Note_on_c, 1, 65, 78
6, 45788, Note_off_c, 1, 65, 0
6, 45792, Note_on_c, 1, 73, 78
6, 45884, Note_off_c, 1, 73, 0
6, 45888, Note_on_c, 1, 65, 78
6, 45980, Note_off_c, 1, 65, 0
6, 45984, Note_on_c, 1, 73, 78
6, 46076, Note_off_c, 1, 73, 0
6, 46080, Note_on_c, 1, 65, 78
6, 46172, Note_off_c, 1, 65, 0
6, 46176, Note_on_c, 1, 73, 78
6, 46268, Note_off_c, 1, 73, 0
6, 46272, Note_on_c, 1, 70, 78
6, 46364, Note_off_c, 1, 70, 0
6, 46368, Note_on_c, 1, 73, 78
6, 46460, Note_off_c, 1, 73, 0
6, 46464, Note_on_c, 1, 65, 78
6, 46556, Note_off_c, 1, 65, 0
6, 46560, Note_on_c, 1, 73, 78
6, 46652, Note_off_c, 1, 73, 0
6, 46656, Note_on_c, 1, 70, 78
6, 46748, Note_off_c, 1, 70, 0
6, 46752, Note_on_c, 1, 73, 78
6, 46844, Note_off_c, 1, 73, 0
6, 46848, Note_on_c, 1, 65, 78
6, 46940, Note_off_c, 1, 65, 0
6, 46944, Note_on_c, 1, 73, 78
6, 47036, Note_off_c, 1, 73, 0
6, 47040, Note_on_c, 1, 65, 78
6, 47132, Note_off_c, 1, 65, 0
6, 47136, Note_on_c, 1, 73, 78
6, 47228, Note_off_c, 1, 73, 0
6, 47232, Note_on_c, 1, 63, 78
6, 47324, Note_off_c, 1, 63, 0
6, 47328, Note_on_c, 1, 72, 78
6, 47420, Note_off_c, 1, 72, 0
6, 47424, Note_on_c, 1, 68, 78
6, 47516, Note_off_c, 1, 68, 0
6, 47520, Note_on_c, 1, 72, 78
6, 47612, Note_off_c, 1, 72, 0
6, 47616, Note_on_c, 1, 63, 78
6, 47708, Note_off_c, 1, 63, 0
6, 47712, Note_on_c, 1, 72, 78
6, 47804, Note_off_c, 1, 72, 0
6, 47808, Note_on_c, 1, 68, 78
6, 47900, Note_off_c, 1, 68, 0
6, 47904, Note_on_c, 1, 72, 78
6, 47996, Note_off_c, 1, 72, 0
6, 48000, Note_on_c, 1, 63, 78
6, 48092, Note_off_c, 1, 63, 0
6, 48096, Note_on_c, 1, 72, 78
6, 48188, Note_off_c, 1, 72, 0
6, 48192, Note_on_c, 1, 63, 78
6, 48284, Note_off_c, 1, 63, 0
6, 48288, Note_on_c, 1, 72, 78
6, 48380, Note_off_c, 1, 72, 0
6, 48384, Note_on_c, 1, 62, 78
6, 48476, Note_off_c, 1, 62, 0
6, 48480, Note_on_c, 1, 72, 78
6, 48572, Note_off_c, 1, 72, 0
6, 48576, Note_on_c, 1, 69, 78
6, 48668, Note_off_c, 1, 69, 0
6, 48672, Note_on_c, 1, 72, 78
6, 48764, Note_off_c, 1, 72, 0
6, 48768, Note_on_c, 1, 62, 78
6, 48860, Note_off_c, 1, 62, 0
6, 48864, Note_on_c, 1, 72, 78
6, 48956, Note_off_c, 1, 72, 0
6, 48960, Note_on_c, 1, 69, 78
6, 49052, Note_off_c, 1, 69, 0
6, 49056, Note_on_c, 1, 72, 78
6, 49148, Note_off_c, 1, 72, 0
6, 49152, Note_on_c, 1, 62, 78
6, 49244, Note_off_c, 1, 62, 0
6, 49248, Note_on_c, 1, 72, 78
6, 49340, Note_off_c, 1, 72, 0
6, 49344, Note_on_c, 1, 62, 78
6, 49436, Note_off_c, 1, 62, 0
6, 49440, Note_on_c, 1, 72, 78
6, 49532, Note_off_c, 1, 72, 0
6, 49536, Note_on_c, 1, 63, 78
6, 49628, Note_off_c, 1, 63, 0
6, 49632, Note_on_c, 1, 72, 78
6, 49724, Note_off_c, 1, 72, 0
6, 49728, Note_on_c, 1, 67, 78
6, 49820, Note_off_c, 1, 67, 0
6, 49824, Note_on_c, 1, 72, 78
6, 49916, Note_off_c, 1, 72, 0
6, 49920, Note_on_c, 1, 63, 78
6, 50012, Note_off_c, 1, 63, 0
6, 50016, Note_on_c, 1, 72, 78
6, 50108, Note_off_c, 1, 72, 0
6, 50112, Note_on_c, 1, 67, 78
6, 50204, Note_off_c, 1, 67, 0
6, 50208, Note_on_c, 1, 72, 78
6, 50300, Note_off_c, 1, 72, 0
6, 50304, Note_on_c, 1, 63, 78
6, 50396, Note_off_c, 1, 63, 0
6, 50400, Note_on_c, 1, 72, 78
6, 50492, Note_off_c, 1, 72, 0
6, 50496, Note_on_c, 1, 63, 78
6, 50588, Note_off_c, 1, 63, 0
6, 50592, Note_on_c, 1, 72, 78
6, 50684, Note_off_c, 1, 72, 0
6, 50688, Note_on_c, 1, 62, 78
6, 50780, Note_off_c, 1, 62, 0
6, 50784, Note_on_c, 1, 70, 78
6, 50876, Note_off_c, 1, 70, 0
6, 50880, Note_on_c, 1, 67, 78
6, 50972, Note_off_c, 1, 67, 0
6, 50976, Note_on_c, 1, 70, 78
6, 51068, Note_off_c, 1, 70, 0
6, 51072, Note_on_c, 1, 62, 78
6, 51164, Note_off_c, 1, 62, 0
6, 51168, Note_on_c, 1, 70, 78
6, 51260, Note_off_c, 1, 70, 0
6, 51264, Note_on_c, 1, 67, 78
6, 51356, Note_off_c, 1, 67, 0
6, 51360, Note_on_c, 1, 70, 78
6, 51452, Note_off_c, 1, 70, 0
6, 51456, Note_on_c, 1, 62, 78
6, 51548, Note_off_c, 1, 62, 0
6, 51552, Note_on_c, 1, 70, 78
6, 51644, Note_off_c, 1, 70, 0
6, 51648, Note_on_c, 1, 62, 78
6, 51740, Note_off_c, 1, 62, 0
6, 51744, Note_on_c, 1, 70, 78
6, 51836, Note_off_c, 1, 70, 0
6, 51840, Note_on_c, 1, 67, 78
6, 51932, Note_off_c, 1, 67, 0
6, 51936, Note_on_c, 1, 76, 78
6, 52028, Note_off_c, 1, 76, 0
6, 52032, Note_on_c, 1, 70, 78
6, 52124, Note_off_c, 1, 70, 0
6, 52128, Note_on_c, 1, 76, 78
6, 52220, Note_off_c, 1, 76, 0
6, 52224, Note_on_c, 1, 67, 78
6, 52316, Note_off_c, 1, 67, 0
6, 52320, Note_on_c, 1, 76, 78
6, 52412, Note_off_c, 1, 76, 0
6, 52416, Note_on_c, 1, 70, 78
6, 52508, Note_off_c, 1, 70, 0
6, 52512, Note_on_c, 1, 76, 78
6, 52604, Note_off_c, 1, 76, 0
6, 52608, Note_on_c, 1, 67, 78
6, 52700, Note_off_c, 1, 67, 0
6, 52704, Note_on_c, 1, 76, 78
6, 52796, Note_off_c, 1, 76, 0
6, 52800, Note_on_c, 1, 67, 78
6, 52892, Note_off_c, 1, 67, 0
6, 52896, Note_on_c, 1, 76, 78
6, 52988, Note_off_c, 1, 76, 0
6, 52992, Note_on_c, 1, 67, 78
6, 53084, Note_off_c, 1, 67, 0
6, 53088, Note_on_c, 1, 76, 78
6, 53180, Note_off_c, 1, 76, 0
6, 53184, Note_on_c, 1, 69, 78
6, 53276, Note_off_c, 1, 69, 0
6, 53280, Note_on_c, 1, 76, 78
6, 53372, Note_off_c, 1, 76, 0
6, 53376, Note_on_c, 1, 67, 78
6, 53468, Note_off_c, 1, 67, 0
6, 53472, Note_on_c, 1, 76, 78
6, 53564, Note_off_c, 1, 76, 0
6, 53568, Note_on_c, 1, 69, 78
6, 53660, Note_off_c, 1, 69, 0
6, 53664, Note_on_c, 1, 76, 78
6, 53756, Note_off_c, 1, 76, 0
6, 53760, Note_on_c, 1, 67, 78
6, 53852, Note_off_c, 1, 67, 0
6, 53856, Note_on_c, 1, 76, 78
6, 53948, Note_off_c, 1, 76, 0
6, 53952, Note_on_c, 1, 67, 78
6, 54044, Note_off_c, 1, 67, 0
6, 54048, Note_on_c, 1, 76, 78
6, 54140, Note_off_c, 1, 76, 0
6, 54144, Note_on_c, 1, 65, 78
6, 54236, Note_off_c, 1, 65, 0
6, 54240, Note_on_c, 1, 77, 78
6, 54332, Note_off_c, 1, 77, 0
6, 54336, Note_on_c, 1, 74, 78
6, 54428, Note_off_c, 1, 74, 0
6, 54432, Note_on_c, 1, 77, 78
6, 54524, Note_off_c, 1, 77, 0
6, 54528, Note_on_c, 1, 69, 78
6, 54620, Note_off_c, 1, 69, 0
6, 54624, Note_on_c, 1, 77, 78
6, 54716, Note_off_c, 1, 77, 0
6, 54720, Note_on_c, 1, 74, 78
6, 54812, Note_off_c, 1, 74, 0
6, 54816, Note_on_c, 1, 77, 78
6, 54908, Note_off_c, 1, 77, 0
6, 54912, Note_on_c, 1, 74, 78
6, 55004, Note_off_c, 1, 74, 0
6, 55008, Note_on_c, 1, 77, 78
6, 55100, Note_off_c, 1, 77, 0
6, 55104, Note_on_c, 1, 76, 78
6, 55196, Note_off_c, 1, 76, 0
6, 55200, Note_on_c, 1, 77, 78
6, 55292, Note_off_c, 1, 77, 0
6, 55296, Note_on_c, 1, 74, 78
6, 55388, Note_off_c, 1, 74, 0
6, 55392, Note_on_c, 1, 79, 78
6, 55484, Note_off_c, 1, 79, 0
6, 55488, Note_on_c, 1, 75, 78
6, 55580, Note_off_c, 1, 75, 0
6, 55584, Note_on_c, 1, 79, 78
6, 55676, Note_off_c, 1, 79, 0
6, 55680, Note_on_c, 1, 74, 78
6, 55772, Note_off_c, 1, 74, 0
6, 55776, Note_on_c, 1, 79, 78
6, 55868, Note_off_c, 1, 79, 0
6, 55872, Note_on_c, 1, 75, 78
6, 55964, Note_off_c, 1, 75, 0
6, 55968, Note_on_c, 1, 79, 78
6, 56060, Note_off_c, 1, 79, 0
6, 56064, Note_on_c, 1, 74, 78
6, 56156, Note_off_c, 1, 74, 0
6, 56160, Note_on_c, 1, 79, 78
6, 56252, Note_off_c, 1, 79, 0
6, 56256, Note_on_c, 1, 74, 78
6, 56348, Note_off_c, 1, 74, 0
6, 56352, Note_on_c, 1, 79, 78
6, 56444, Note_off_c, 1, 79, 0
6, 56448, Note_on_c, 1, 72, 78
6, 56540, Note_off_c, 1, 72, 0
6, 56544, Note_on_c, 1, 79, 78
6, 56636, Note_off_c, 1, 79, 0
6, 56640, Note_on_c, 1, 75, 78
6, 56732, Note_off_c, 1, 75, 0
6, 56736, Note_on_c, 1, 79, 78
6, 56828, Note_off_c, 1, 79, 0
6, 56832, Note_on_c, 1, 72, 78
6, 56924, Note_off_c, 1, 72, 0
6, 56928, Note_on_c, 1, 79, 78
6, 57020, Note_off_c, 1, 79, 0
6, 57024, Note_on_c, 1, 75, 78
6, 57116, Note_off_c, 1, 75, 0
6, 57120, Note_on_c, 1, 79, 78
6, 57212, Note_off_c, 1, 79, 0
6, 57216, Note_on_c, 1, 72, 78
6, 57308, Note_off_c, 1, 72, 0
6, 57312, Note_on_c, 1, 79, 78
6, 57404, Note_off_c, 1, 79, 0
6, 57408, Note_on_c, 1, 72, 78
6, 57500, Note_off_c, 1, 72, 0
6, 57504, Note_on_c, 1, 79, 78
6, 57596, Note_off_c, 1, 79, 0
6, 57600, Note_on_c, 1, 72, 78
6, 57692, Note_off_c, 1, 72, 0
6, 57696, Note_on_c, 1, 78, 78
6, 57788, Note_off_c, 1, 78, 0
6, 57792, Note_on_c, 1, 74, 78
6, 57884, Note_off_c, 1, 74, 0
6, 57888, Note_on_c, 1, 78, 78
6, 57980, Note_off_c, 1, 78, 0
6, 57984, Note_on_c, 1, 72, 78
6, 58076, Note_off_c, 1, 72, 0
6, 58080, Note_on_c, 1, 78, 78
6, 58172, Note_off_c, 1, 78, 0
6, 58176, Note_on_c, 1, 74, 78
6, 58268, Note_off_c, 1, 74, 0
6, 58272, Note_on_c, 1, 78, 78
6, 58364, Note_off_c, 1, 78, 0
6, 58368, Note_on_c, 1, 72, 78
6, 58460, Note_off_c, 1, 72, 0
6, 58464, Note_on_c, 1, 78, 78
6, 58556, Note_off_c, 1, 78, 0
6, 58560, Note_on_c, 1, 72, 78
6, 58652, Note_off_c, 1, 72, 0
6, 58656, Note_on_c, 1, 78, 78
6, 58748, Note_off_c, 1, 78, 0
6, 58752, Note_on_c, 1, 70, 78
6, 58844, Note_off_c, 1, 70, 0
6, 58848, Note_on_c, 1, 79, 78
6, 58940, Note_off_c, 1, 79, 0
6, 58944, Note_on_c, 1, 74, 78
6, 59036, Note_off_c, 1, 74, 0
6, 59040, Note_on_c, 1, 79, 78
6, 59132, Note_off_c, 1, 79, 0
6, 59136, Note_on_c, 1, 70, 78
6, 59228, Note_off_c, 1, 70, 0
6, 59232, Note_on_c, 1, 79, 78
6, 59324, Note_off_c, 1, 79, 0
6, 59328, Note_on_c, 1, 74, 78
6, 59420, Note_off_c, 1, 74, 0
6, 59424, Note_on_c, 1, 79, 78
6, 59516, Note_off_c, 1, 79, 0
6, 59520, Note_on_c, 1, 70, 78
6, 59612, Note_off_c, 1, 70, 0
6, 59616, Note_on_c, 1, 79, 78
6, 59708, Note_off_c, 1, 79, 0
6, 59712, Note_on_c, 1, 70, 78
6, 59804, Note_off_c, 1, 70, 0
6, 59808, Note_on_c, 1, 79, 78
6, 59900, Note_off_c, 1, 79, 0
6, 59904, Note_on_c, 1, 69, 78
6, 59996, Note_off_c, 1, 69, 0
6, 60000, Note_on_c, 1, 79, 78
6, 60092, Note_off_c, 1, 79, 0
6, 60096, Note_on_c, 1, 72, 78
6, 60188, Note_off_c, 1, 72, 0
6, 60192, Note_on_c, 1, 79, 78
6, 60284, Note_off_c, 1, 79, 0
6, 60288, Note_on_c, 1, 69, 78
6, 60380, Note_off_c, 1, 69, 0
6, 60384, Note_on_c, 1, 79, 78
6, 60476, Note_off_c, 1, 79, 0
6, 60480, Note_on_c, 1, 72, 78
6, 60572, Note_off_c, 1, 72, 0
6, 60576, Note_on_c, 1, 79, 78
6, 60668, Note_off_c, 1, 79, 0
6, 60672, Note_on_c, 1, 69, 78
6, 60764, Note_off_c, 1, 69, 0
6, 60768, Note_on_c, 1, 79, 78
6, 60860, Note_off_c, 1, 79, 0
6, 60864, Note_on_c, 1, 69, 78
6, 60956, Note_off_c, 1, 69, 0
6, 60960, Note_on_c, 1, 79, 78
6, 61052, Note_off_c, 1, 79, 0
6, 61056, Note_on_c, 1, 69, 78
6, 61148, Note_off_c, 1, 69, 0
6, 61152, Note_on_c, 1, 78, 78
6, 61244, Note_off_c, 1, 78, 0
6, 61248, Note_on_c, 1, 72, 78
6, 61340, Note_off_c, 1, 72, 0
6, 61344, Note_on_c, 1, 78, 78
6, 61436, Note_off_c, 1, 78, 0
6, 61440, Note_on_c, 1, 69, 78
6, 61532, Note_off_c, 1, 69, 0
6, 61536, Note_on_c, 1, 78, 78
6, 61628, Note_off_c, 1, 78, 0
6, 61632, Note_on_c, 1, 72, 78
6, 61724, Note_off_c, 1, 72, 0
6, 61728, Note_on_c, 1, 78, 78
6, 61820, Note_off_c, 1, 78, 0
6, 61824, Note_on_c, 1, 69, 78
6, 61916, Note_off_c, 1, 69, 0
6, 61920, Note_on_c, 1, 78, 78
6, 62012, Note_off_c, 1, 78, 0
6, 62016, Note_on_c, 1, 69, 78
6, 62108, Note_off_c, 1, 69, 0
6, 62112, Note_on_c, 1, 78, 78
6, 62204, Note_off_c, 1, 78, 0
6, 69120, Note_on_c, 1, 75, 78
6, 69212, Note_off_c, 1, 75, 0
6, 69216, Note_on_c, 1, 77, 78
6, 69308, Note_off_c, 1, 77, 0
6, 69312, Note_on_c, 1, 79, 78
6, 69404, Note_off_c, 1, 79, 0
6, 69408, Note_on_c, 1, 77, 78
6, 69500, Note_off_c, 1, 77, 0
6, 69504, Note_on_c, 1, 75, 78
6, 69596, Note_off_c, 1, 75, 0
6, 69600, Note_on_c, 1, 74, 78
6, 69692, Note_off_c, 1, 74, 0
6, 69696, Note_on_c, 1, 72, 78
6, 69788, Note_off_c, 1, 72, 0
6, 69792, Note_on_c, 1, 70, 78
6, 69884, Note_off_c, 1, 70, 0
6, 69888, Note_on_c, 1, 75, 78
6, 69980, Note_off_c, 1, 75, 0
6, 69984, Note_on_c, 1, 74, 78
6, 70076, Note_off_c, 1, 74, 0
6, 70080, Note_on_c, 1, 72, 78
6, 70172, Note_off_c, 1, 72, 0
6, 70176, Note_on_c, 1, 70, 78
6, 70268, Note_off_c, 1, 70, 0
6, 70272, Note_on_c, 1, 72, 78
6, 70364, Note_off_c, 1, 72, 0
6, 70368, Note_on_c, 1, 74, 78
6, 70460, Note_off_c, 1, 74, 0
6, 70464, Note_on_c, 1, 75, 78
6, 70556, Note_off_c, 1, 75, 0
6, 70560, Note_on_c, 1, 74, 78
6, 70652, Note_off_c, 1, 74, 0
6, 70656, Note_on_c, 1, 72, 78
6, 70748, Note_off_c, 1, 72, 0
6, 70752, Note_on_c, 1, 70, 78
6, 70844, Note_off_c, 1, 70, 0
6, 70848, Note_on_c, 1, 69, 78
6, 70940, Note_off_c, 1, 69, 0
6, 70944, Note_on_c, 1, 67, 78
6, 71036, Note_off_c, 1, 67, 0
6, 71040, Note_on_c, 1, 72, 78
6, 71132, Note_off_c, 1, 72, 0
6, 71136, Note_on_c, 1, 70, 78
6, 71228, Note_off_c, 1, 70, 0
6, 71232, Note_on_c, 1, 69, 78
6, 71324, Note_off_c, 1, 69, 0
6, 71328, Note_on_c, 1, 67, 78
6, 71420, Note_off_c, 1, 67, 0
6, 71424, Note_on_c, 1, 69, 78
6, 71516, Note_off_c, 1, 69, 0
6, 71520, Note_on_c, 1, 70, 78
6, 71612, Note_off_c, 1, 70, 0
6, 71616, Note_on_c, 1, 72, 78
6, 71708, Note_off_c, 1, 72, 0
6, 71712, Note_on_c, 1, 70, 78
6, 71804, Note_off_c, 1, 70, 0
6, 71808, Note_on_c, 1, 69, 78
6, 71900, Note_off_c, 1, 69, 0
6, 71904, Note_on_c, 1, 67, 78
6, 71996, Note_off_c, 1, 67, 0
6, 72000, Note_on_c, 1, 65, 78
6, 72092, Note_off_c, 1, 65, 0
6, 72096, Note_on_c, 1, 63, 78
6, 72188, Note_off_c, 1, 63, 0
6, 72192, Note_on_c, 1, 69, 78
6, 72284, Note_off_c, 1, 69, 0
6, 72288, Note_on_c, 1, 67, 78
6, 72380, Note_off_c, 1, 67, 0
6, 72384, Note_on_c, 1, 65, 78
6, 72476, Note_off_c, 1, 65, 0
6, 72480, Note_on_c, 1, 63, 78
6, 72572, Note_off_c, 1, 63, 0
6, 72576, Note_on_c, 1, 62, 78
6, 72668, Note_off_c, 1, 62, 0
6, 72672, Note_on_c, 1, 65, 78
6, 72764, Note_off_c, 1, 65, 0
6, 72768, Note_on_c, 1, 70, 78
6, 72860, Note_off_c, 1, 70, 0
6, 72864, Note_on_c, 1, 70, 78
6, 72864, Note_on_c, 1, 65, 78
6, 72864, Note_on_c, 1, 62, 78
6, 72956, Note_off_c, 1, 70, 0
6, 72956, Note_off_c, 1, 65, 0
6, 72956, Note_off_c, 1, 62, 0
6, 72960, Note_on_c, 1, 70, 78
6, 72960, Note_on_c, 1, 65, 78
6, 72960, Note_on_c, 1, 62, 78
6, 73052, Note_off_c, 1, 70, 0
6, 73052, Note_off_c, 1, 65, 0
6, 73052, Note_off_c, 1, 62, 0
6, 73056, Note_on_c, 1, 70, 78
6, 73056, Note_on_c, 1, 65, 78
6, 73056, Note_on_c, 1, 62, 78
6, 73148, Note_off_c, 1, 70, 0
6, 73148, Note_off_c, 1, 65, 0
6, 73148, Note_off_c, 1, 62, 0
6, 73152, Note_on_c, 1, 70, 78
6, 73152, Note_on_c, 1, 65, 78
6, 73152, Note_on_c, 1, 62, 78
6, 73244, Note_off_c, 1, 70, 0
6, 73244, Note_off_c, 1, 65, 0
6, 73244, Note_off_c, 1, 62, 0
6, 73248, Note_on_c, 1, 70, 78
6, 73248, Note_on_c, 1, 65, 78
6, 73248, Note_on_c, 1, 62, 78
6, 73340, Note_off_c, 1, 70, 0
6, 73340, Note_off_c, 1, 65, 0
6, 73340, Note_off_c, 1, 62, 0
6, 73344, Note_on_c, 1, 62, 78
6, 73436, Note_off_c, 1, 62, 0
6, 73440, Note_on_c, 1, 70, 78
6, 73532, Note_off_c, 1, 70, 0
6, 73536, Note_on_c, 1, 62, 78
6, 73628, Note_off_c, 1, 62, 0
6, 73632, Note_on_c, 1, 70, 78
6, 73724, Note_off_c, 1, 70, 0
6, 73728, Note_on_c, 1, 63, 78
6, 73820, Note_off_c, 1, 63, 0
6, 73824, Note_on_c, 1, 67, 78
6, 73916, Note_off_c, 1, 67, 0
6, 73920, Note_on_c, 1, 70, 78
6, 74012, Note_off_c, 1, 70, 0
6, 74016, Note_on_c, 1, 70, 78
6, 74016, Note_on_c, 1, 67, 78
6, 74016, Note_on_c, 1, 63, 78
6, 74108, Note_off_c, 1, 70, 0
6, 74108, Note_off_c, 1, 67, 0
6, 74108, Note_off_c, 1, 63, 0
6, 74112, Note_on_c, 1, 70, 78
6, 74112, Note_on_c, 1, 67, 78
6, 74112, Note_on_c, 1, 63, 78
6, 74204, Note_off_c, 1, 70, 0
6, 74204, Note_off_c, 1, 67, 0
6, 74204, Note_off_c, 1, 63, 0
6, 74208, Note_on_c, 1, 70, 78
6, 74208, Note_on_c, 1, 67, 78
6, 74208, Note_on_c, 1, 63, 78
6, 74300, Note_off_c, 1, 70, 0
6, 74300, Note_off_c, 1, 67, 0
6, 74300, Note_off_c, 1, 63, 0
6, 74304, Note_on_c, 1, 70, 78
6, 74304, Note_on_c, 1, 67, 78
6, 74304, Note_on_c, 1, 63, 78
6, 74396, Note_off_c, 1, 70, 0
6, 74396, Note_off_c, 1, 67, 0
6, 74396, Note_off_c, 1, 63, 0
6, 74400, Note_on_c, 1, 70, 78
6, 74400, Note_on_c, 1, 67, 78
6, 74400, Note_on_c, 1, 63, 78
6, 74492, Note_off_c, 1, 70, 0
6, 74492, Note_off_c, 1, 67, 0
6, 74492, Note_off_c, 1, 63, 0
6, 74496, Note_on_c, 1, 67, 78
6, 74588, Note_off_c, 1, 67, 0
6, 74592, Note_on_c, 1, 70, 78
6, 74684, Note_off_c, 1, 70, 0
6, 74688, Note_on_c, 1, 67, 78
6, 74780, Note_off_c, 1, 67, 0
6, 74784, Note_on_c, 1, 70, 78
6, 74876, Note_off_c, 1, 70, 0
6, 74880, Note_on_c, 1, 62, 78
6, 74972, Note_off_c, 1, 62, 0
6, 74976, Note_on_c, 1, 65, 78
6, 75068, Note_off_c, 1, 65, 0
6, 75072, Note_on_c, 1, 70, 78
6, 75164, Note_off_c, 1, 70, 0
6, 75168, Note_on_c, 1, 70, 78
6, 75168, Note_on_c, 1, 65, 78
6, 75168, Note_on_c, 1, 62, 78
6, 75260, Note_off_c, 1, 70, 0
6, 75260, Note_off_c, 1, 65, 0
6, 75260, Note_off_c, 1, 62, 0
6, 75264, Note_on_c, 1, 70, 78
6, 75264, Note_on_c, 1, 65, 78
6, 75264, Note_on_c, 1, 62, 78
6, 75356, Note_off_c, 1, 70, 0
6, 75356, Note_off_c, 1, 65, 0
6, 75356, Note_off_c, 1, 62, 0
6, 75360, Note_on_c, 1, 70, 78
6, 75360, Note_on_c, 1, 65, 78
6, 75360, Note_on_c, 1, 62, 78
6, 75452, Note_off_c, 1, 70, 0
6, 75452, Note_off_c, 1, 65, 0
6, 75452, Note_off_c, 1, 62, 0
6, 75456, Note_on_c, 1, 70, 78
6, 75456, Note_on_c, 1, 65, 78
6, 75456, Note_on_c, 1, 62, 78
6, 75548, Note_off_c, 1, 70, 0
6, 75548, Note_off_c, 1, 65, 0
6, 75548, Note_off_c, 1, 62, 0
6, 75552, Note_on_c, 1, 70, 78
6, 75552, Note_on_c, 1, 65, 78
6, 75552, Note_on_c, 1, 62, 78
6, 75644, Note_off_c, 1, 70, 0
6, 75644, Note_off_c, 1, 65, 0
6, 75644, Note_off_c, 1, 62, 0
6, 75648, Note_on_c, 1, 62, 78
6, 75740, Note_off_c, 1, 62, 0
6, 75744, Note_on_c, 1, 70, 78
6, 75836, Note_off_c, 1, 70, 0
6, 75840, Note_on_c, 1, 62, 78
6, 75932, Note_off_c, 1, 62, 0
6, 75936, Note_on_c, 1, 70, 78
6, 76028, Note_off_c, 1, 70, 0
6, 76032, Note_on_c, 1, 60, 78
6, 76124, Note_off_c, 1, 60, 0
6, 76128, Note_on_c, 1, 63, 78
6, 76220, Note_off_c, 1, 63, 0
6, 76224, Note_on_c, 1, 70, 78
6, 76316, Note_off_c, 1, 70, 0
6, 76320, Note_on_c, 1, 70, 78
6, 76320, Note_on_c, 1, 63, 78
6, 76320, Note_on_c, 1, 60, 78
6, 76412, Note_off_c, 1, 70, 0
6, 76412, Note_off_c, 1, 63, 0
6, 76412, Note_off_c, 1, 60, 0
6, 76416, Note_on_c, 1, 70, 78
6, 76416, Note_on_c, 1, 63, 78
6, 76416, Note_on_c, 1, 60, 78
6, 76508, Note_off_c, 1, 70, 0
6, 76508, Note_off_c, 1, 63, 0
6, 76508, Note_off_c, 1, 60, 0
6, 76512, Note_on_c, 1, 70, 78
6, 76512, Note_on_c, 1, 63, 78
6, 76512, Note_on_c, 1, 60, 78
6, 76604, Note_off_c, 1, 70, 0
6, 76604, Note_off_c, 1, 63, 0
6, 76604, Note_off_c, 1, 60, 0
6, 76608, Note_on_c, 1, 70, 78
6, 76608, Note_on_c, 1, 63, 78
6, 76608, Note_on_c, 1, 60, 78
6, 76700, Note_off_c, 1, 70, 0
6, 76700, Note_off_c, 1, 63, 0
6, 76700, Note_off_c, 1, 60, 0
6, 76704, Note_on_c, 1, 70, 78
6, 76704, Note_on_c, 1, 63, 78
6, 76704, Note_on_c, 1, 60, 78
6, 76796, Note_off_c, 1, 70, 0
6, 76796, Note_off_c, 1, 63, 0
6, 76796, Note_off_c, 1, 60, 0
6, 76800, Note_on_c, 1, 63, 78
6, 76892, Note_off_c, 1, 63, 0
6, 76896, Note_on_c, 1, 70, 78
6, 76988, Note_off_c, 1, 70, 0
6, 76992, Note_on_c, 1, 63, 78
6, 77084, Note_off_c, 1, 63, 0
6, 77088, Note_on_c, 1, 70, 78
6, 77180, Note_off_c, 1, 70, 0
6, 77184, Note_on_c, 1, 60, 78
6, 77276, Note_off_c, 1, 60, 0
6, 77280, Note_on_c, 1, 63, 78
6, 77372, Note_off_c, 1, 63, 0
6, 77376, Note_on_c, 1, 69, 78
6, 77468, Note_off_c, 1, 69, 0
6, 77472, Note_on_c, 1, 69, 78
6, 77472, Note_on_c, 1, 63, 78
6, 77472, Note_on_c, 1, 60, 78
6, 77564, Note_off_c, 1, 69, 0
6, 77564, Note_off_c, 1, 63, 0
6, 77564, Note_off_c, 1, 60, 0
6, 77568, Note_on_c, 1, 69, 78
6, 77568, Note_on_c, 1, 63, 78
6, 77568, Note_on_c, 1, 60, 78
6, 77660, Note_off_c, 1, 69, 0
6, 77660, Note_off_c, 1, 63, 0
6, 77660, Note_off_c, 1, 60, 0
6, 77664, Note_on_c, 1, 69, 78
6, 77664, Note_on_c, 1, 63, 78
6, 77664, Note_on_c, 1, 60, 78
6, 77756, Note_off_c, 1, 69, 0
6, 77756, Note_off_c, 1, 63, 0
6, 77756, Note_off_c, 1, 60, 0
6, 77760, Note_on_c, 1, 69, 78
6, 77760, Note_on_c, 1, 63, 78
6, 77760, Note_on_c, 1, 60, 78
6, 77852, Note_off_c, 1, 69, 0
6, 77852, Note_off_c, 1, 63, 0
6, 77852, Note_off_c, 1, 60, 0
6, 77856, Note_on_c, 1, 69, 78
6, 77856, Note_on_c, 1, 63, 78
6, 77856, Note_on_c, 1, 60, 78
6, 77948, Note_off_c, 1, 69, 0
6, 77948, Note_off_c, 1, 63, 0
6, 77948, Note_off_c, 1, 60, 0
6, 77952, Note_on_c, 1, 63, 78
6, 78044, Note_off_c, 1, 63, 0
6, 78048, Note_on_c, 1, 69, 78
6, 78140, Note_off_c, 1, 69, 0
6, 78144, Note_on_c, 1, 63, 78
6, 78236, Note_off_c, 1, 63, 0
6, 78240, Note_on_c, 1, 69, 78
6, 78332, Note_off_c, 1, 69, 0
6, 78336, Note_on_c, 1, 58, 78
6, 78524, Note_off_c, 1, 58, 0
6, 96576, Note_on_c, 1, 74, 100
6, 96704, Note_off_c, 1, 74, 0
6, 96768, Note_on_c, 1, 79, 100
6, 96896, Note_off_c, 1, 79, 0
6, 96960, Note_on_c, 1, 79, 100
6, 97088, Note_off_c, 1, 79, 0
6, 97152, Note_on_c, 1, 79, 100
6, 97340, Note_off_c, 1, 79, 0
6, 97344, Note_on_c, 1, 81, 100
6, 97372, Note_off_c, 1, 81, 0
6, 97376, Note_on_c, 1, 79, 100
6, 97404, Note_off_c, 1, 79, 0
6, 97404, Note_on_c, 1, 81, 100
6, 97484, Note_off_c, 1, 81, 0
6, 97484, Note_on_c, 1, 82, 100
6, 97536, Note_on_c, 1, 78, 100
6, 97552, Note_off_c, 1, 82, 0
6, 97628, Note_off_c, 1, 78, 0
6, 97632, Note_on_c, 1, 76, 100
6, 97724, Note_off_c, 1, 76, 0
6, 97728, Note_on_c, 1, 74, 100
6, 97916, Note_off_c, 1, 74, 0
6, 98112, Note_on_c, 1, 81, 100
6, 98204, Note_off_c, 1, 81, 0
6, 98208, Note_on_c, 1, 84, 100
6, 98252, Note_off_c, 1, 84, 0
6, 98256, Note_on_c, 1, 82, 100
6, 98300, Note_off_c, 1, 82, 0
6, 98304, Note_on_c, 1, 84, 100
6, 98492, Note_off_c, 1, 84, 0
6, 98544, Note_on_c, 1, 82, 100
6, 98588, Note_off_c, 1, 82, 0
6, 98592, Note_on_c, 1, 81, 100
6, 98636, Note_off_c, 1, 81, 0
6, 98640, Note_on_c, 1, 82, 100
6, 98660, Note_off_c, 1, 82, 0
6, 98664, Note_on_c, 1, 84, 100
6, 98684, Note_off_c, 1, 84, 0
6, 98688, Note_on_c, 1, 74, 100
6, 98732, Note_off_c, 1, 74, 0
6, 98736, Note_on_c, 1, 78, 100
6, 98780, Note_off_c, 1, 78, 0
6, 98784, Note_on_c, 1, 81, 100
6, 98828, Note_off_c, 1, 81, 0
6, 98832, Note_on_c, 1, 84, 100
6, 98876, Note_off_c, 1, 84, 0
6, 98880, Note_on_c, 1, 82, 100
6, 98972, Note_off_c, 1, 82, 0
6, 98976, Note_on_c, 1, 84, 100
6, 99020, Note_off_c, 1, 84, 0
6, 99024, Note_on_c, 1, 81, 100
6, 99068, Note_off_c, 1, 81, 0
6, 99072, Note_on_c, 1, 82, 100
6, 99164, Note_off_c, 1, 82, 0
6, 99168, Note_on_c, 1, 81, 100
6, 99260, Note_off_c, 1, 81, 0
6, 99264, Note_on_c, 1, 79, 100
6, 99452, Note_off_c, 1, 79, 0
6, 99648, Note_on_c, 1, 74, 100
6, 99676, Note_off_c, 1, 74, 0
6, 99680, Note_on_c, 1, 75, 100
6, 99704, Note_off_c, 1, 75, 0
6, 99716, Note_on_c, 1, 74, 100
6, 99744, Note_off_c, 1, 74, 0
6, 99744, Note_on_c, 1, 72, 100
6, 99788, Note_off_c, 1, 72, 0
6, 99792, Note_on_c, 1, 74, 100
6, 99836, Note_off_c, 1, 74, 0
6, 99840, Note_on_c, 1, 67, 100
6, 99840, Note_on_c, 1, 75, 100
6, 99932, Note_off_c, 1, 75, 0
6, 99936, Note_on_c, 1, 72, 100
6, 100028, Note_off_c, 1, 67, 0
6, 100028, Note_off_c, 1, 72, 0
6, 100032, Note_on_c, 1, 69, 100
6, 100032, Note_on_c, 1, 69, 100
6, 100124, Note_off_c, 1, 69, 0
6, 100128, Note_on_c, 1, 66, 100
6, 100220, Note_off_c, 1, 69, 0
6, 100220, Note_off_c, 1, 66, 0
6, 100224, Note_on_c, 1, 70, 100
6, 100224, Note_on_c, 1, 75, 100
6, 100316, Note_off_c, 1, 75, 0
6, 100320, Note_on_c, 1, 72, 100
6, 100412, Note_off_c, 1, 70, 0
6, 100412, Note_off_c, 1, 72, 0
6, 100416, Note_on_c, 1, 72, 100
6, 100416, Note_on_c, 1, 69, 100
6, 100508, Note_off_c, 1, 69, 0
6, 100512, Note_on_c, 1, 66, 100
6, 100604, Note_off_c, 1, 72, 0
6, 100604, Note_off_c, 1, 66, 0
6, 100612, Note_on_c, 1, 79, 100
6, 100696, Note_on_c, 1, 78, 100
6, 100708, Note_off_c, 1, 79, 0
6, 100728, Note_off_c, 1, 78, 0
6, 100732, Note_on_c, 1, 79, 100
6, 100756, Note_on_c, 1, 78, 100
6, 100760, Note_off_c, 1, 79, 0
6, 100784, Note_off_c, 1, 78, 0
6, 100788, Note_on_c, 1, 79, 100
6, 100812, Note_off_c, 1, 79, 0
6, 100812, Note_on_c, 1, 78, 100
6, 100836, Note_off_c, 1, 78, 0
6, 100840, Note_on_c, 1, 79, 100
6, 100864, Note_off_c, 1, 79, 0
6, 100868, Note_on_c, 1, 78, 100
6, 100888, Note_off_c, 1, 78, 0
6, 100888, Note_on_c, 1, 79, 100
6, 100912, Note_off_c, 1, 79, 0
6, 100912, Note_on_c, 1, 78, 100
6, 100968, Note_off_c, 1, 78, 0
6, 101088, Note_on_c, 1, 74, 100
6, 101180, Note_off_c, 1, 74, 0
6, 101184, Note_on_c, 1, 76, 100
6, 101276, Note_off_c, 1, 76, 0
6, 101280, Note_on_c, 1, 79, 100
6, 101324, Note_off_c, 1, 79, 0
6, 101328, Note_on_c, 1, 78, 100
6, 101372, Note_off_c, 1, 78, 0
6, 101376, Note_on_c, 1, 79, 100
6, 101440, Note_off_c, 1, 79, 0
6, 101472, Note_on_c, 1, 70, 100
6, 101536, Note_off_c, 1, 70, 0
6, 101568, Note_on_c, 1, 72, 100
6, 101632, Note_off_c, 1, 72, 0
6, 101664, Note_on_c, 1, 74, 100
6, 101728, Note_off_c, 1, 74, 0
6, 101772, Note_on_c, 1, 70, 100
6, 101844, Note_on_c, 1, 69, 100
6, 101856, Note_off_c, 1, 70, 0
6, 101884, Note_off_c, 1, 69, 0
6, 101884, Note_on_c, 1, 70, 100
6, 101916, Note_off_c, 1, 70, 0
6, 101920, Note_on_c, 1, 69, 100
6, 101940, Note_on_c, 1, 70, 100
6, 101944, Note_off_c, 1, 69, 0
6, 101972, Note_off_c, 1, 70, 0
6, 101972, Note_on_c, 1, 69, 100
6, 102000, Note_on_c, 1, 70, 100
6, 102008, Note_off_c, 1, 69, 0
6, 102028, Note_off_c, 1, 70, 0
6, 102036, Note_on_c, 1, 69, 100
6, 102064, Note_on_c, 1, 67, 100
6, 102068, Note_off_c, 1, 69, 0
6, 102136, Note_off_c, 1, 67, 0
6, 102144, Note_on_c, 1, 67, 100
6, 102524, Note_off_c, 1, 67, 0
6, 102720, Note_on_c, 1, 74, 100
6, 102812, Note_off_c, 1, 74, 0
6, 102816, Note_on_c, 1, 77, 100
6, 102836, Note_off_c, 1, 77, 0
6, 102840, Note_on_c, 1, 75, 100
6, 102860, Note_off_c, 1, 75, 0
6, 102864, Note_on_c, 1, 74, 100
6, 102884, Note_off_c, 1, 74, 0
6, 102888, Note_on_c, 1, 75, 100
6, 102908, Note_off_c, 1, 75, 0
6, 102912, Note_on_c, 1, 77, 100
6, 103004, Note_off_c, 1, 77, 0
6, 103008, Note_on_c, 1, 74, 100
6, 103100, Note_off_c, 1, 74, 0
6, 103104, Note_on_c, 1, 71, 100
6, 103196, Note_off_c, 1, 71, 0
6, 103200, Note_on_c, 1, 67, 100
6, 103268, Note_off_c, 1, 67, 0
6, 103296, Note_on_c, 1, 77, 100
6, 103388, Note_off_c, 1, 77, 0
6, 103392, Note_on_c, 1, 74, 100
6, 103484, Note_off_c, 1, 74, 0
6, 103488, Note_on_c, 1, 71, 100
6, 103580, Note_off_c, 1, 71, 0
6, 103584, Note_on_c, 1, 67, 100
6, 103652, Note_off_c, 1, 67, 0
6, 103680, Note_on_c, 1, 77, 100
6, 104060, Note_off_c, 1, 77, 0
6, 104160, Note_on_c, 1, 80, 100
6, 104252, Note_off_c, 1, 80, 0
6, 104256, Note_on_c, 1, 79, 100
6, 104348, Note_off_c, 1, 79, 0
6, 104352, Note_on_c, 1, 77, 100
6, 104444, Note_off_c, 1, 77, 0
6, 104448, Note_on_c, 1, 75, 100
6, 104540, Note_off_c, 1, 75, 0
6, 104544, Note_on_c, 1, 71, 100
6, 104636, Note_off_c, 1, 71, 0
6, 104640, Note_on_c, 1, 72, 100
6, 104732, Note_off_c, 1, 72, 0
6, 104736, Note_on_c, 1, 67, 100
6, 104828, Note_off_c, 1, 67, 0
6, 104832, Note_on_c, 1, 68, 100
6, 104876, Note_off_c, 1, 68, 0
6, 104880, Note_on_c, 1, 72, 100
6, 104924, Note_off_c, 1, 72, 0
6, 104928, Note_on_c, 1, 68, 100
6, 104972, Note_off_c, 1, 68, 0
6, 104976, Note_on_c, 1, 65, 100
6, 105020, Note_off_c, 1, 65, 0
6, 105024, Note_on_c, 1, 62, 100
6, 105068, Note_off_c, 1, 62, 0
6, 105072, Note_on_c, 1, 65, 100
6, 105116, Note_off_c, 1, 65, 0
6, 105120, Note_on_c, 1, 72, 100
6, 105164, Note_off_c, 1, 72, 0
6, 105168, Note_on_c, 1, 71, 100
6, 105212, Note_off_c, 1, 71, 0
6, 105216, Note_on_c, 1, 72, 100
6, 105596, Note_off_c, 1, 72, 0
6, 105696, Note_on_c, 1, 75, 100
6, 105716, Note_on_c, 1, 77, 100
6, 105736, Note_off_c, 1, 77, 0
6, 105740, Note_off_c, 1, 75, 0
6, 105748, Note_on_c, 1, 79, 100
6, 105768, Note_off_c, 1, 79, 0
6, 105792, Note_on_c, 1, 77, 100
6, 105884, Note_off_c, 1, 77, 0
6, 105888, Note_on_c, 1, 75, 100
6, 105980, Note_off_c, 1, 75, 0
6, 105984, Note_on_c, 1, 74, 100
6, 106028, Note_off_c, 1, 74, 0
6, 106032, Note_on_c, 1, 72, 100
6, 106076, Note_off_c, 1, 72, 0
6, 106080, Note_on_c, 1, 70, 100
6, 106124, Note_off_c, 1, 70, 0
6, 106128, Note_on_c, 1, 69, 100
6, 106172, Note_off_c, 1, 69, 0
6, 106176, Note_on_c, 1, 70, 100
6, 106268, Note_off_c, 1, 70, 0
6, 106272, Note_on_c, 1, 65, 100
6, 106364, Note_off_c, 1, 65, 0
6, 106368, Note_on_c, 1, 67, 100
6, 106460, Note_off_c, 1, 67, 0
6, 106464, Note_on_c, 1, 69, 100
6, 106508, Note_off_c, 1, 69, 0
6, 106512, Note_on_c, 1, 70, 100
6, 106556, Note_off_c, 1, 70, 0
6, 106560, Note_on_c, 1, 60, 100
6, 106652, Note_off_c, 1, 60, 0
6, 106656, Note_on_c, 1, 70, 100
6, 106700, Note_off_c, 1, 70, 0
6, 106704, Note_on_c, 1, 69, 100
6, 106748, Note_off_c, 1, 69, 0
6, 106752, Note_on_c, 1, 70, 100
6, 107132, Note_off_c, 1, 70, 0
6, 107328, Note_on_c, 1, 74, 100
6, 107516, Note_off_c, 1, 74, 0
6, 107520, Note_on_c, 1, 77, 100
6, 107648, Note_off_c, 1, 77, 0
6, 107712, Note_on_c, 1, 77, 100
6, 107840, Note_off_c, 1, 77, 0
6, 107904, Note_on_c, 1, 77, 100
6, 108092, Note_off_c, 1, 77, 0
6, 108096, Note_on_c, 1, 79, 100
6, 108188, Note_off_c, 1, 79, 0
6, 108192, Note_on_c, 1, 77, 100
6, 108284, Note_off_c, 1, 77, 0
6, 108288, Note_on_c, 1, 76, 100
6, 108380, Note_off_c, 1, 76, 0
6, 108384, Note_on_c, 1, 74, 100
6, 108476, Note_off_c, 1, 74, 0
6, 108480, Note_on_c, 1, 72, 100
6, 108668, Note_off_c, 1, 72, 0
6, 108864, Note_on_c, 1, 76, 100
6, 108956, Note_off_c, 1, 76, 0
6, 108960, Note_on_c, 1, 77, 100
6, 109052, Note_off_c, 1, 77, 0
6, 109056, Note_on_c, 1, 79, 100
6, 109148, Note_off_c, 1, 79, 0
6, 109248, Note_on_c, 1, 79, 100
6, 109340, Note_off_c, 1, 79, 0
6, 109440, Note_on_c, 1, 79, 100
6, 109484, Note_off_c, 1, 79, 0
6, 109488, Note_on_c, 1, 77, 100
6, 109532, Note_off_c, 1, 77, 0
6, 109536, Note_on_c, 1, 76, 100
6, 109580, Note_off_c, 1, 76, 0
6, 109584, Note_on_c, 1, 77, 100
6, 109628, Note_off_c, 1, 77, 0
6, 109632, Note_on_c, 1, 79, 100
6, 109676, Note_off_c, 1, 79, 0
6, 109680, Note_on_c, 1, 81, 100
6, 109700, Note_off_c, 1, 81, 0
6, 109704, Note_on_c, 1, 82, 100
6, 109724, Note_off_c, 1, 82, 0
6, 109728, Note_on_c, 1, 81, 100
6, 109772, Note_off_c, 1, 81, 0
6, 109776, Note_on_c, 1, 79, 100
6, 109820, Note_off_c, 1, 79, 0
6, 109824, Note_on_c, 1, 77, 100
6, 109916, Note_off_c, 1, 77, 0
6, 109920, Note_on_c, 1, 76, 100
6, 110012, Note_off_c, 1, 76, 0
6, 110016, Note_on_c, 1, 74, 100
6, 110204, Note_off_c, 1, 74, 0
6, 110304, Note_on_c, 1, 77, 100
6, 110396, Note_off_c, 1, 77, 0
6, 110400, Note_on_c, 1, 79, 100
6, 110492, Note_off_c, 1, 79, 0
6, 110496, Note_on_c, 1, 81, 100
6, 110588, Note_off_c, 1, 81, 0
6, 110592, Note_on_c, 1, 82, 100
6, 110684, Note_off_c, 1, 82, 0
6, 110688, Note_on_c, 1, 77, 100
6, 110780, Note_off_c, 1, 77, 0
6, 110784, Note_on_c, 1, 74, 100
6, 110876, Note_off_c, 1, 74, 0
6, 110880, Note_on_c, 1, 70, 100
6, 110924, Note_off_c, 1, 70, 0
6, 110976, Note_on_c, 1, 82, 100
6, 111068, Note_off_c, 1, 82, 0
6, 111072, Note_on_c, 1, 77, 100
6, 111164, Note_off_c, 1, 77, 0
6, 111168, Note_on_c, 1, 74, 100
6, 111260, Note_off_c, 1, 74, 0
6, 111264, Note_on_c, 1, 70, 100
6, 111308, Note_off_c, 1, 70, 0
6, 111312, Note_on_c, 1, 80, 100
6, 111356, Note_off_c, 1, 80, 0
6, 111360, Note_on_c, 1, 79, 100
6, 111424, Note_off_c, 1, 79, 0
6, 111456, Note_on_c, 1, 69, 100
6, 111520, Note_off_c, 1, 69, 0
6, 111552, Note_on_c, 1, 70, 100
6, 111616, Note_off_c, 1, 70, 0
6, 111648, Note_on_c, 1, 72, 100
6, 111712, Note_off_c, 1, 72, 0
6, 111756, Note_on_c, 1, 70, 100
6, 111828, Note_on_c, 1, 69, 100
6, 111840, Note_off_c, 1, 70, 0
6, 111868, Note_off_c, 1, 69, 0
6, 111868, Note_on_c, 1, 70, 100
6, 111900, Note_off_c, 1, 70, 0
6, 111904, Note_on_c, 1, 69, 100
6, 111924, Note_on_c, 1, 70, 100
6, 111928, Note_off_c, 1, 69, 0
6, 111956, Note_off_c, 1, 70, 0
6, 111956, Note_on_c, 1, 69, 100
6, 112032, Note_off_c, 1, 69, 0
6, 112048, Note_on_c, 1, 70, 100
6, 112108, Note_off_c, 1, 70, 0
6, 112128, Note_on_c, 1, 70, 100
6, 112220, Note_off_c, 1, 70, 0
6, 120672, Note_on_c, 1, 74, 100
6, 120764, Note_off_c, 1, 74, 0
6, 120768, Note_on_c, 1, 79, 100
6, 120860, Note_off_c, 1, 79, 0
6, 120864, Note_on_c, 1, 77, 100
6, 120956, Note_off_c, 1, 77, 0
6, 120960, Note_on_c, 1, 75, 100
6, 121052, Note_off_c, 1, 75, 0
6, 121056, Note_on_c, 1, 74, 100
6, 121148, Note_off_c, 1, 74, 0
6, 121152, Note_on_c, 1, 72, 100
6, 121244, Note_off_c, 1, 72, 0
6, 121248, Note_on_c, 1, 70, 100
6, 121340, Note_off_c, 1, 70, 0
6, 121344, Note_on_c, 1, 69, 100
6, 121436, Note_off_c, 1, 69, 0
6, 121440, Note_on_c, 1, 72, 100
6, 121532, Note_off_c, 1, 72, 0
6, 121536, Note_on_c, 1, 77, 100
6, 121628, Note_off_c, 1, 77, 0
6, 121632, Note_on_c, 1, 75, 100
6, 121724, Note_off_c, 1, 75, 0
6, 121728, Note_on_c, 1, 74, 100
6, 121820, Note_off_c, 1, 74, 0
6, 121824, Note_on_c, 1, 72, 100
6, 121916, Note_off_c, 1, 72, 0
6, 121920, Note_on_c, 1, 70, 100
6, 122012, Note_off_c, 1, 70, 0
6, 122016, Note_on_c, 1, 69, 100
6, 122108, Note_off_c, 1, 69, 0
6, 122112, Note_on_c, 1, 67, 100
6, 122204, Note_off_c, 1, 67, 0
6, 122208, Note_on_c, 1, 70, 100
6, 122300, Note_off_c, 1, 70, 0
6, 122304, Note_on_c, 1, 75, 100
6, 122396, Note_off_c, 1, 75, 0
6, 122400, Note_on_c, 1, 74, 100
6, 122492, Note_off_c, 1, 74, 0
6, 122496, Note_on_c, 1, 72, 100
6, 122588, Note_off_c, 1, 72, 0
6, 122592, Note_on_c, 1, 70, 100
6, 122684, Note_off_c, 1, 70, 0
6, 122688, Note_on_c, 1, 69, 100
6, 122780, Note_off_c, 1, 69, 0
6, 122784, Note_on_c, 1, 67, 100
6, 122876, Note_off_c, 1, 67, 0
6, 122880, Note_on_c, 1, 65, 100
6, 122972, Note_off_c, 1, 65, 0
6, 122976, Note_on_c, 1, 69, 100
6, 123068, Note_off_c, 1, 69, 0
6, 123072, Note_on_c, 1, 74, 100
6, 123164, Note_off_c, 1, 74, 0
6, 123168, Note_on_c, 1, 72, 100
6, 123260, Note_off_c, 1, 72, 0
6, 123264, Note_on_c, 1, 70, 100
6, 123356, Note_off_c, 1, 70, 0
6, 123360, Note_on_c, 1, 69, 100
6, 123452, Note_off_c, 1, 69, 0
6, 123456, Note_on_c, 1, 67, 100
6, 123548, Note_off_c, 1, 67, 0
6, 123552, Note_on_c, 1, 65, 100
6, 123644, Note_off_c, 1, 65, 0
6, 123648, Note_on_c, 1, 63, 100
6, 123740, Note_off_c, 1, 63, 0
6, 123744, Note_on_c, 1, 67, 100
6, 123836, Note_off_c, 1, 67, 0
6, 123840, Note_on_c, 1, 72, 100
6, 123932, Note_off_c, 1, 72, 0
6, 123936, Note_on_c, 1, 70, 100
6, 124028, Note_off_c, 1, 70, 0
6, 124032, Note_on_c, 1, 69, 100
6, 124124, Note_off_c, 1, 69, 0
6, 124128, Note_on_c, 1, 67, 100
6, 124220, Note_off_c, 1, 67, 0
6, 124224, Note_on_c, 1, 65, 100
6, 124316, Note_off_c, 1, 65, 0
6, 124320, Note_on_c, 1, 63, 100
6, 124412, Note_off_c, 1, 63, 0
6, 124416, Note_on_c, 1, 62, 100
6, 124508, Note_off_c, 1, 62, 0
6, 124512, Note_on_c, 1, 65, 100
6, 124604, Note_off_c, 1, 65, 0
6, 124608, Note_on_c, 1, 67, 100
6, 124700, Note_off_c, 1, 67, 0
6, 124704, Note_on_c, 1, 69, 100
6, 124796, Note_off_c, 1, 69, 0
6, 124800, Note_on_c, 1, 70, 100
6, 124892, Note_off_c, 1, 70, 0
6, 124992, Note_on_c, 1, 70, 100
6, 125084, Note_off_c, 1, 70, 0
6, 125184, Note_on_c, 1, 60, 100
6, 125276, Note_off_c, 1, 60, 0
6, 125280, Note_on_c, 1, 70, 100
6, 125372, Note_off_c, 1, 70, 0
6, 125376, Note_on_c, 1, 58, 100
6, 125468, Note_off_c, 1, 58, 0
6, 125472, Note_on_c, 1, 70, 100
6, 125564, Note_off_c, 1, 70, 0
6, 125568, Note_on_c, 1, 60, 100
6, 125660, Note_off_c, 1, 60, 0
6, 125664, Note_on_c, 1, 70, 100
6, 125756, Note_off_c, 1, 70, 0
6, 125760, Note_on_c, 1, 62, 100
6, 125852, Note_off_c, 1, 62, 0
6, 125856, Note_on_c, 1, 70, 100
6, 125948, Note_off_c, 1, 70, 0
6, 125952, Note_on_c, 1, 63, 100
6, 126044, Note_off_c, 1, 63, 0
6, 126048, Note_on_c, 1, 69, 100
6, 126140, Note_off_c, 1, 69, 0
6, 126144, Note_on_c, 1, 62, 100
6, 126236, Note_off_c, 1, 62, 0
6, 126240, Note_on_c, 1, 69, 100
6, 126332, Note_off_c, 1, 69, 0
6, 126336, Note_on_c, 1, 63, 100
6, 126428, Note_off_c, 1, 63, 0
6, 126432, Note_on_c, 1, 69, 100
6, 126524, Note_off_c, 1, 69, 0
6, 126528, Note_on_c, 1, 65, 100
6, 126620, Note_off_c, 1, 65, 0
6, 126624, Note_on_c, 1, 69, 100
6, 126716, Note_off_c, 1, 69, 0
6, 126720, Note_on_c, 1, 58, 100
6, 126908, Note_off_c, 1, 58, 0
6, 132864, Note_on_c, 1, 77, 100
6, 132956, Note_off_c, 1, 77, 0
6, 132960, Note_on_c, 1, 72, 100
6, 133052, Note_off_c, 1, 72, 0
6, 133056, Note_on_c, 1, 69, 100
6, 133148, Note_off_c, 1, 69, 0
6, 133152, Note_on_c, 1, 65, 100
6, 133244, Note_off_c, 1, 65, 0
6, 133248, Note_on_c, 1, 69, 100
6, 133312, Note_off_c, 1, 69, 0
6, 133344, Note_on_c, 1, 77, 100
6, 133408, Note_off_c, 1, 77, 0
6, 133440, Note_on_c, 1, 69, 100
6, 133504, Note_off_c, 1, 69, 0
6, 133536, Note_on_c, 1, 77, 100
6, 133600, Note_off_c, 1, 77, 0
6, 133632, Note_on_c, 1, 70, 100
6, 133696, Note_off_c, 1, 70, 0
6, 133728, Note_on_c, 1, 77, 100
6, 133792, Note_off_c, 1, 77, 0
6, 133824, Note_on_c, 1, 70, 100
6, 133888, Note_off_c, 1, 70, 0
6, 133920, Note_on_c, 1, 77, 100
6, 133984, Note_off_c, 1, 77, 0
6, 134016, Note_on_c, 1, 70, 100
6, 134080, Note_off_c, 1, 70, 0
6, 134112, Note_on_c, 1, 77, 100
6, 134176, Note_off_c, 1, 77, 0
6, 134208, Note_on_c, 1, 70, 100
6, 134272, Note_off_c, 1, 70, 0
6, 134304, Note_on_c, 1, 77, 100
6, 134368, Note_off_c, 1, 77, 0
6, 134400, Note_on_c, 1, 72, 100
6, 134464, Note_off_c, 1, 72, 0
6, 134496, Note_on_c, 1, 77, 100
6, 134560, Note_off_c, 1, 77, 0
6, 134592, Note_on_c, 1, 72, 100
6, 134656, Note_off_c, 1, 72, 0
6, 134688, Note_on_c, 1, 77, 100
6, 134752, Note_off_c, 1, 77, 0
6, 134784, Note_on_c, 1, 72, 100
6, 134848, Note_off_c, 1, 72, 0
6, 134880, Note_on_c, 1, 77, 100
6, 134944, Note_off_c, 1, 77, 0
6, 134976, Note_on_c, 1, 72, 100
6, 135040, Note_off_c, 1, 72, 0
6, 135072, Note_on_c, 1, 77, 100
6, 135136, Note_off_c, 1, 77, 0
6, 135168, Note_on_c, 1, 74, 100
6, 135232, Note_off_c, 1, 74, 0
6, 135264, Note_on_c, 1, 77, 100
6, 135328, Note_off_c, 1, 77, 0
6, 135360, Note_on_c, 1, 74, 100
6, 135424, Note_off_c, 1, 74, 0
6, 135456, Note_on_c, 1, 77, 100
6, 135520, Note_off_c, 1, 77, 0
6, 135552, Note_on_c, 1, 74, 100
6, 135616, Note_off_c, 1, 74, 0
6, 135648, Note_on_c, 1, 77, 100
6, 135712, Note_off_c, 1, 77, 0
6, 135744, Note_on_c, 1, 74, 100
6, 135808, Note_off_c, 1, 74, 0
6, 135840, Note_on_c, 1, 77, 100
6, 135904, Note_off_c, 1, 77, 0
6, 135936, Note_on_c, 1, 74, 100
6, 136028, Note_off_c, 1, 74, 0
6, 136032, Note_on_c, 1, 79, 100
6, 136124, Note_off_c, 1, 79, 0
6, 136128, Note_on_c, 1, 74, 100
6, 136220, Note_off_c, 1, 74, 0
6, 136224, Note_on_c, 1, 79, 100
6, 136316, Note_off_c, 1, 79, 0
6, 136320, Note_on_c, 1, 74, 100
6, 136412, Note_off_c, 1, 74, 0
6, 136416, Note_on_c, 1, 79, 100
6, 136508, Note_off_c, 1, 79, 0
6, 136512, Note_on_c, 1, 74, 100
6, 136604, Note_off_c, 1, 74, 0
6, 136608, Note_on_c, 1, 79, 100
6, 136700, Note_off_c, 1, 79, 0
6, 136704, Note_on_c, 1, 76, 100
6, 136796, Note_off_c, 1, 76, 0
6, 136800, Note_on_c, 1, 79, 100
6, 136892, Note_off_c, 1, 79, 0
6, 136896, Note_on_c, 1, 76, 100
6, 136988, Note_off_c, 1, 76, 0
6, 136992, Note_on_c, 1, 79, 100
6, 137084, Note_off_c, 1, 79, 0
6, 137088, Note_on_c, 1, 76, 100
6, 137180, Note_off_c, 1, 76, 0
6, 137184, Note_on_c, 1, 79, 100
6, 137276, Note_off_c, 1, 79, 0
6, 137280, Note_on_c, 1, 76, 100
6, 137372, Note_off_c, 1, 76, 0
6, 137376, Note_on_c, 1, 79, 100
6, 137468, Note_off_c, 1, 79, 0
6, 137472, Note_on_c, 1, 72, 100
6, 137564, Note_off_c, 1, 72, 0
6, 137568, Note_on_c, 1, 77, 100
6, 137660, Note_off_c, 1, 77, 0
6, 137664, Note_on_c, 1, 72, 100
6, 137756, Note_off_c, 1, 72, 0
6, 137760, Note_on_c, 1, 77, 100
6, 137852, Note_off_c, 1, 77, 0
6, 137856, Note_on_c, 1, 72, 100
6, 137948, Note_off_c, 1, 72, 0
6, 137952, Note_on_c, 1, 77, 100
6, 138044, Note_off_c, 1, 77, 0
6, 138048, Note_on_c, 1, 72, 100
6, 138140, Note_off_c, 1, 72, 0
6, 138144, Note_on_c, 1, 77, 100
6, 138236, Note_off_c, 1, 77, 0
6, 138240, Note_on_c, 1, 74, 100
6, 138332, Note_off_c, 1, 74, 0
6, 138336, Note_on_c, 1, 77, 100
6, 138428, Note_off_c, 1, 77, 0
6, 138432, Note_on_c, 1, 72, 100
6, 138524, Note_off_c, 1, 72, 0
6, 138528, Note_on_c, 1, 77, 100
6, 138620, Note_off_c, 1, 77, 0
6, 138624, Note_on_c, 1, 70, 100
6, 138716, Note_off_c, 1, 70, 0
6, 138720, Note_on_c, 1, 77, 100
6, 138812, Note_off_c, 1, 77, 0
6, 138816, Note_on_c, 1, 69, 100
6, 138908, Note_off_c, 1, 69, 0
6, 138912, Note_on_c, 1, 77, 100
6, 139004, Note_off_c, 1, 77, 0
6, 139008, Note_on_c, 1, 67, 100
6, 139100, Note_off_c, 1, 67, 0
6, 139104, Note_on_c, 1, 77, 100
6, 139196, Note_off_c, 1, 77, 0
6, 139200, Note_on_c, 1, 69, 100
6, 139292, Note_off_c, 1, 69, 0
6, 139296, Note_on_c, 1, 77, 100
6, 139388, Note_off_c, 1, 77, 0
6, 139392, Note_on_c, 1, 70, 100
6, 139456, Note_off_c, 1, 70, 0
6, 139488, Note_on_c, 1, 76, 100
6, 139552, Note_off_c, 1, 76, 0
6, 139584, Note_on_c, 1, 72, 100
6, 139648, Note_off_c, 1, 72, 0
6, 139680, Note_on_c, 1, 76, 100
6, 139744, Note_off_c, 1, 76, 0
6, 139776, Note_on_c, 1, 65, 100
6, 139904, Note_off_c, 1, 65, 0
6, 145920, Note_on_c, 1, 69, 100
6, 145976, Note_on_c, 1, 72, 100
6, 145996, Note_off_c, 1, 69, 0
6, 146036, Note_on_c, 1, 74, 100
6, 146052, Note_off_c, 1, 72, 0
6, 146096, Note_on_c, 1, 76, 100
6, 146112, Note_off_c, 1, 74, 0
6, 146156, Note_on_c, 1, 77, 100
6, 146160, Note_off_c, 1, 76, 0
6, 146280, Note_off_c, 1, 77, 0
6, 146304, Note_on_c, 1, 69, 100
6, 146392, Note_off_c, 1, 69, 0
6, 146420, Note_on_c, 1, 72, 100
6, 146508, Note_off_c, 1, 72, 0
6, 146540, Note_on_c, 1, 77, 100
6, 146668, Note_off_c, 1, 77, 0
6, 146688, Note_on_c, 1, 74, 100
6, 146744, Note_on_c, 1, 77, 100
6, 146764, Note_off_c, 1, 74, 0
6, 146804, Note_on_c, 1, 79, 100
6, 146820, Note_off_c, 1, 77, 0
6, 146864, Note_on_c, 1, 81, 100
6, 146880, Note_off_c, 1, 79, 0
6, 146924, Note_on_c, 1, 82, 100
6, 146928, Note_off_c, 1, 81, 0
6, 147048, Note_off_c, 1, 82, 0
6, 147072, Note_on_c, 1, 74, 100
6, 147160, Note_off_c, 1, 74, 0
6, 147188, Note_on_c, 1, 77, 100
6, 147276, Note_off_c, 1, 77, 0
6, 147308, Note_on_c, 1, 82, 100
6, 147440, Note_off_c, 1, 82, 0
6, 147456, Note_on_c, 1, 74, 100
6, 147512, Note_on_c, 1, 76, 100
6, 147532, Note_off_c, 1, 74, 0
6, 147572, Note_on_c, 1, 79, 100
6, 147588, Note_off_c, 1, 76, 0
6, 147632, Note_on_c, 1, 81, 100
6, 147648, Note_off_c, 1, 79, 0
6, 147692, Note_on_c, 1, 82, 100
6, 147696, Note_off_c, 1, 81, 0
6, 147816, Note_off_c, 1, 82, 0
6, 147840, Note_on_c, 1, 74, 100
6, 147928, Note_off_c, 1, 74, 0
6, 147956, Note_on_c, 1, 76, 100
6, 148044, Note_off_c, 1, 76, 0
6, 148076, Note_on_c, 1, 82, 100
6, 148188, Note_off_c, 1, 82, 0
6, 148256, Note_on_c, 1, 72, 100
6, 148312, Note_on_c, 1, 76, 100
6, 148332, Note_off_c, 1, 72, 0
6, 148372, Note_on_c, 1, 77, 100
6, 148388, Note_off_c, 1, 76, 0
6, 148432, Note_on_c, 1, 79, 100
6, 148448, Note_off_c, 1, 77, 0
6, 148492, Note_on_c, 1, 81, 100
6, 148496, Note_off_c, 1, 79, 0
6, 148616, Note_off_c, 1, 81, 0
6, 148640, Note_on_c, 1, 72, 100
6, 148728, Note_off_c, 1, 72, 0
6, 148756, Note_on_c, 1, 76, 100
6, 148844, Note_off_c, 1, 76, 0
6, 148876, Note_on_c, 1, 81, 100
6, 148992, Note_on_c, 1, 72, 100
6, 149004, Note_off_c, 1, 81, 0
6, 149048, Note_on_c, 1, 74, 100
6, 149068, Note_off_c, 1, 72, 0
6, 149108, Note_on_c, 1, 78, 100
6, 149124, Note_off_c, 1, 74, 0
6, 149168, Note_on_c, 1, 79, 100
6, 149184, Note_off_c, 1, 78, 0
6, 149228, Note_on_c, 1, 81, 100
6, 149232, Note_off_c, 1, 79, 0
6, 149352, Note_off_c, 1, 81, 0
6, 149376, Note_on_c, 1, 72, 100
6, 149464, Note_off_c, 1, 72, 0
6, 149492, Note_on_c, 1, 78, 100
6, 149580, Note_off_c, 1, 78, 0
6, 149612, Note_on_c, 1, 81, 100
6, 149716, Note_off_c, 1, 81, 0
6, 149760, Note_on_c, 1, 70, 100
6, 149816, Note_on_c, 1, 74, 100
6, 149836, Note_off_c, 1, 70, 0
6, 149876, Note_on_c, 1, 76, 100
6, 149892, Note_off_c, 1, 74, 0
6, 149936, Note_on_c, 1, 78, 100
6, 149952, Note_off_c, 1, 76, 0
6, 149996, Note_on_c, 1, 79, 100
6, 150000, Note_off_c, 1, 78, 0
6, 150120, Note_off_c, 1, 79, 0
6, 150144, Note_on_c, 1, 70, 100
6, 150232, Note_off_c, 1, 70, 0
6, 150260, Note_on_c, 1, 74, 100
6, 150348, Note_off_c, 1, 74, 0
6, 150380, Note_on_c, 1, 79, 100
6, 150480, Note_off_c, 1, 79, 0
6, 150528, Note_on_c, 1, 73, 100
6, 150584, Note_on_c, 1, 74, 100
6, 150604, Note_off_c, 1, 73, 0
6, 150644, Note_on_c, 1, 76, 100
6, 150660, Note_off_c, 1, 74, 0
6, 150704, Note_on_c, 1, 77, 100
6, 150720, Note_off_c, 1, 76, 0
6, 150764, Note_on_c, 1, 79, 100
6, 150768, Note_off_c, 1, 77, 0
6, 150888, Note_off_c, 1, 79, 0
6, 150912, Note_on_c, 1, 73, 100
6, 151000, Note_off_c, 1, 73, 0
6, 151028, Note_on_c, 1, 76, 100
6, 151116, Note_off_c, 1, 76, 0
6, 151148, Note_on_c, 1, 79, 100
6, 151248, Note_off_c, 1, 79, 0
6, 151296, Note_on_c, 1, 77, 100
6, 151352, Note_on_c, 1, 76, 100
6, 151372, Note_off_c, 1, 77, 0
6, 151412, Note_on_c, 1, 74, 100
6, 151428, Note_off_c, 1, 76, 0
6, 151472, Note_on_c, 1, 73, 100
6, 151488, Note_off_c, 1, 74, 0
6, 151532, Note_on_c, 1, 74, 100
6, 151536, Note_off_c, 1, 73, 0
6, 151656, Note_off_c, 1, 74, 0
6, 151680, Note_on_c, 1, 69, 100
6, 151768, Note_off_c, 1, 69, 0
6, 151796, Note_on_c, 1, 74, 100
6, 151884, Note_off_c, 1, 74, 0
6, 151916, Note_on_c, 1, 77, 100
6, 152016, Note_off_c, 1, 77, 0
6, 152064, Note_on_c, 1, 82, 100
6, 152120, Note_on_c, 1, 81, 100
6, 152140, Note_off_c, 1, 82, 0
6, 152180, Note_on_c, 1, 79, 100
6, 152196, Note_off_c, 1, 81, 0
6, 152240, Note_on_c, 1, 78, 100
6, 152256, Note_off_c, 1, 79, 0
6, 152300, Note_on_c, 1, 79, 100
6, 152304, Note_off_c, 1, 78, 0
6, 152424, Note_off_c, 1, 79, 0
6, 152448, Note_on_c, 1, 74, 100
6, 152536, Note_off_c, 1, 74, 0
6, 152564, Note_on_c, 1, 79, 100
6, 152652, Note_off_c, 1, 79, 0
6, 152684, Note_on_c, 1, 82, 100
6, 152784, Note_off_c, 1, 82, 0
6, 152832, Note_on_c, 1, 81, 100
6, 152888, Note_on_c, 1, 79, 100
6, 152908, Note_off_c, 1, 81, 0
6, 152948, Note_on_c, 1, 77, 100
6, 152964, Note_off_c, 1, 79, 0
6, 153008, Note_on_c, 1, 76, 100
6, 153024, Note_off_c, 1, 77, 0
6, 153068, Note_on_c, 1, 77, 100
6, 153072, Note_off_c, 1, 76, 0
6, 153192, Note_off_c, 1, 77, 0
6, 153216, Note_on_c, 1, 74, 100
6, 153304, Note_off_c, 1, 74, 0
6, 153332, Note_on_c, 1, 77, 100
6, 153420, Note_off_c, 1, 77, 0
6, 153452, Note_on_c, 1, 81, 100
6, 153552, Note_off_c, 1, 81, 0
6, 153600, Note_on_c, 1, 80, 100
6, 153656, Note_on_c, 1, 78, 100
6, 153676, Note_off_c, 1, 80, 0
6, 153716, Note_on_c, 1, 76, 100
6, 153732, Note_off_c, 1, 78, 0
6, 153776, Note_on_c, 1, 74, 100
6, 153792, Note_off_c, 1, 76, 0
6, 153836, Note_on_c, 1, 76, 100
6, 153840, Note_off_c, 1, 74, 0
6, 153960, Note_off_c, 1, 76, 0
6, 153984, Note_on_c, 1, 74, 100
6, 154072, Note_off_c, 1, 74, 0
6, 154100, Note_on_c, 1, 76, 100
6, 154188, Note_off_c, 1, 76, 0
6, 154220, Note_on_c, 1, 80, 100
6, 154336, Note_off_c, 1, 80, 0
6, 154368, Note_on_c, 1, 72, 100
6, 154424, Note_on_c, 1, 76, 100
6, 154444, Note_off_c, 1, 72, 0
6, 154484, Note_on_c, 1, 77, 100
6, 154500, Note_off_c, 1, 76, 0
6, 154544, Note_on_c, 1, 79, 100
6, 154560, Note_off_c, 1, 77, 0
6, 154604, Note_on_c, 1, 81, 100
6, 154608, Note_off_c, 1, 79, 0
6, 154728, Note_off_c, 1, 81, 0
6, 154752, Note_on_c, 1, 72, 100
6, 154840, Note_off_c, 1, 72, 0
6, 154868, Note_on_c, 1, 77, 100
6, 154956, Note_off_c, 1, 77, 0
6, 154988, Note_on_c, 1, 81, 100
6, 155088, Note_off_c, 1, 81, 0
6, 155136, Note_on_c, 1, 81, 100
6, 155192, Note_on_c, 1, 79, 100
6, 155212, Note_off_c, 1, 81, 0
6, 155252, Note_on_c, 1, 77, 100
6, 155268, Note_off_c, 1, 79, 0
6, 155312, Note_on_c, 1, 76, 100
6, 155328, Note_off_c, 1, 77, 0
6, 155372, Note_on_c, 1, 77, 100
6, 155376, Note_off_c, 1, 76, 0
6, 155496, Note_off_c, 1, 77, 0
6, 155520, Note_on_c, 1, 71, 100
6, 155608, Note_off_c, 1, 71, 0
6, 155636, Note_on_c, 1, 77, 100
6, 155724, Note_off_c, 1, 77, 0
6, 155756, Note_on_c, 1, 81, 100
6, 155856, Note_off_c, 1, 81, 0
6, 155904, Note_on_c, 1, 71, 100
6, 155960, Note_on_c, 1, 74, 100
6, 155980, Note_off_c, 1, 71, 0
6, 156020, Note_on_c, 1, 76, 100
6, 156036, Note_off_c, 1, 74, 0
6, 156080, Note_on_c, 1, 78, 100
6, 156096, Note_off_c, 1, 76, 0
6, 156140, Note_on_c, 1, 80, 100
6, 156144, Note_off_c, 1, 78, 0
6, 156264, Note_off_c, 1, 80, 0
6, 156288, Note_on_c, 1, 71, 100
6, 156376, Note_off_c, 1, 71, 0
6, 156404, Note_on_c, 1, 74, 100
6, 156492, Note_off_c, 1, 74, 0
6, 156524, Note_on_c, 1, 80, 100
6, 156624, Note_off_c, 1, 80, 0
6, 156672, Note_on_c, 1, 81, 100
6, 156800, Note_off_c, 1, 81, 0
6, 158208, Note_on_c, 1, 76, 100
6, 158400, Note_off_c, 1, 76, 0
6, 158400, Note_on_c, 1, 64, 100
6, 158496, Note_on_c, 1, 76, 100
6, 158528, Note_off_c, 1, 64, 0
6, 158560, Note_off_c, 1, 76, 0
6, 158592, Note_on_c, 1, 64, 100
6, 158688, Note_on_c, 1, 76, 100
6, 158780, Note_off_c, 1, 64, 0
6, 158784, Note_on_c, 1, 65, 100
6, 158816, Note_off_c, 1, 76, 0
6, 158880, Note_on_c, 1, 76, 100
6, 158944, Note_off_c, 1, 76, 0
6, 158972, Note_off_c, 1, 65, 0
6, 158976, Note_on_c, 1, 67, 100
6, 159072, Note_on_c, 1, 76, 100
6, 159164, Note_off_c, 1, 67, 0
6, 159168, Note_on_c, 1, 64, 100
6, 159260, Note_off_c, 1, 76, 0
6, 159264, Note_on_c, 1, 76, 100
6, 159356, Note_off_c, 1, 64, 0
6, 159360, Note_on_c, 1, 65, 100
6, 159452, Note_off_c, 1, 76, 0
6, 159456, Note_on_c, 1, 76, 100
6, 159548, Note_off_c, 1, 65, 0
6, 159552, Note_on_c, 1, 67, 100
6, 159644, Note_off_c, 1, 76, 0
6, 159648, Note_on_c, 1, 76, 100
6, 159740, Note_off_c, 1, 67, 0
6, 159740, Note_off_c, 1, 76, 0
6, 159744, Note_on_c, 1, 65, 100
6, 159840, Note_on_c, 1, 76, 100
6, 159932, Note_off_c, 1, 76, 0
6, 159936, Note_on_c, 1, 74, 100
6, 160028, Note_off_c, 1, 74, 0
6, 160032, Note_on_c, 1, 73, 100
6, 160124, Note_off_c, 1, 65, 0
6, 160124, Note_off_c, 1, 73, 0
6, 160128, Note_on_c, 1, 74, 100
6, 160220, Note_off_c, 1, 74, 0
6, 160224, Note_on_c, 1, 65, 100
6, 160316, Note_off_c, 1, 65, 0
6, 160320, Note_on_c, 1, 74, 100
6, 160412, Note_off_c, 1, 74, 0
6, 160416, Note_on_c, 1, 65, 100
6, 160508, Note_off_c, 1, 65, 0
6, 160512, Note_on_c, 1, 64, 100
6, 160604, Note_off_c, 1, 64, 0
6, 160608, Note_on_c, 1, 74, 100
6, 160700, Note_off_c, 1, 74, 0
6, 160704, Note_on_c, 1, 72, 100
6, 160796, Note_off_c, 1, 72, 0
6, 160800, Note_on_c, 1, 70, 100
6, 160892, Note_off_c, 1, 70, 0
6, 160896, Note_on_c, 1, 72, 100
6, 160988, Note_off_c, 1, 72, 0
6, 160992, Note_on_c, 1, 63, 100
6, 161084, Note_off_c, 1, 63, 0
6, 161088, Note_on_c, 1, 72, 100
6, 161180, Note_off_c, 1, 72, 0
6, 161184, Note_on_c, 1, 63, 100
6, 161276, Note_off_c, 1, 63, 0
6, 161280, Note_on_c, 1, 62, 100
6, 161344, Note_off_c, 1, 62, 0
6, 161376, Note_on_c, 1, 72, 100
6, 161468, Note_off_c, 1, 72, 0
6, 161472, Note_on_c, 1, 78, 100
6, 161564, Note_off_c, 1, 78, 0
6, 161568, Note_on_c, 1, 72, 100
6, 161660, Note_off_c, 1, 72, 0
6, 161664, Note_on_c, 1, 70, 100
6, 161756, Note_off_c, 1, 70, 0
6, 161760, Note_on_c, 1, 74, 100
6, 161852, Note_off_c, 1, 74, 0
6, 161856, Note_on_c, 1, 79, 100
6, 161948, Note_off_c, 1, 79, 0
6, 161952, Note_on_c, 1, 74, 100
6, 162044, Note_off_c, 1, 74, 0
6, 162048, Note_on_c, 1, 69, 100
6, 162140, Note_off_c, 1, 69, 0
6, 162144, Note_on_c, 1, 72, 100
6, 162236, Note_off_c, 1, 72, 0
6, 162240, Note_on_c, 1, 79, 100
6, 162332, Note_off_c, 1, 79, 0
6, 162336, Note_on_c, 1, 72, 100
6, 162428, Note_off_c, 1, 72, 0
6, 162432, Note_on_c, 1, 69, 100
6, 162524, Note_off_c, 1, 69, 0
6, 162528, Note_on_c, 1, 72, 100
6, 162620, Note_off_c, 1, 72, 0
6, 162624, Note_on_c, 1, 78, 100
6, 162716, Note_off_c, 1, 78, 0
6, 162720, Note_on_c, 1, 72, 100
6, 162812, Note_off_c, 1, 72, 0
6, 162816, Note_on_c, 1, 67, 100
6, 162816, Note_on_c, 1, 70, 100
6, 162944, Note_off_c, 1, 67, 0
6, 162944, Note_off_c, 1, 70, 0
6, 163008, Note_on_c, 1, 82, 100
6, 163100, Note_off_c, 1, 82, 0
6, 163104, Note_on_c, 1, 81, 100
6, 163196, Note_off_c, 1, 81, 0
6, 163200, Note_on_c, 1, 79, 100
6, 163292, Note_off_c, 1, 79, 0
6, 163296, Note_on_c, 1, 77, 100
6, 163388, Note_off_c, 1, 77, 0
6, 163392, Note_on_c, 1, 75, 100
6, 163484, Note_off_c, 1, 75, 0
6, 163488, Note_on_c, 1, 74, 100
6, 163580, Note_off_c, 1, 74, 0
6, 163584, Note_on_c, 1, 69, 100
6, 163584, Note_on_c, 1, 72, 100
6, 163676, Note_off_c, 1, 72, 0
6, 163680, Note_on_c, 1, 77, 100
6, 163772, Note_off_c, 1, 69, 0
6, 163772, Note_off_c, 1, 77, 0
6, 163776, Note_on_c, 1, 81, 100
6, 163868, Note_off_c, 1, 81, 0
6, 163872, Note_on_c, 1, 79, 100
6, 163964, Note_off_c, 1, 79, 0
6, 163968, Note_on_c, 1, 77, 100
6, 164060, Note_off_c, 1, 77, 0
6, 164064, Note_on_c, 1, 75, 100
6, 164156, Note_off_c, 1, 75, 0
6, 164160, Note_on_c, 1, 74, 100
6, 164252, Note_off_c, 1, 74, 0
6, 164256, Note_on_c, 1, 72, 100
6, 164348, Note_off_c, 1, 72, 0
6, 164352, Note_on_c, 1, 67, 100
6, 164352, Note_on_c, 1, 70, 100
6, 164444, Note_off_c, 1, 70, 0
6, 164448, Note_on_c, 1, 75, 100
6, 164540, Note_off_c, 1, 67, 0
6, 164540, Note_off_c, 1, 75, 0
6, 164544, Note_on_c, 1, 79, 100
6, 164636, Note_off_c, 1, 79, 0
6, 164640, Note_on_c, 1, 77, 100
6, 164732, Note_off_c, 1, 77, 0
6, 164736, Note_on_c, 1, 75, 100
6, 164828, Note_off_c, 1, 75, 0
6, 164832, Note_on_c, 1, 74, 100
6, 164924, Note_off_c, 1, 74, 0
6, 164928, Note_on_c, 1, 72, 100
6, 165020, Note_off_c, 1, 72, 0
6, 165024, Note_on_c, 1, 70, 100
6, 165116, Note_off_c, 1, 70, 0
6, 165120, Note_on_c, 1, 69, 100
6, 165120, Note_on_c, 1, 65, 100
6, 165212, Note_off_c, 1, 69, 0
6, 165216, Note_on_c, 1, 74, 100
6, 165308, Note_off_c, 1, 65, 0
6, 165308, Note_off_c, 1, 74, 0
6, 165312, Note_on_c, 1, 77, 100
6, 165404, Note_off_c, 1, 77, 0
6, 165408, Note_on_c, 1, 75, 100
6, 165500, Note_off_c, 1, 75, 0
6, 165504, Note_on_c, 1, 74, 100
6, 165596, Note_off_c, 1, 74, 0
6, 165600, Note_on_c, 1, 72, 100
6, 165692, Note_off_c, 1, 72, 0
6, 165696, Note_on_c, 1, 70, 100
6, 165788, Note_off_c, 1, 70, 0
6, 165792, Note_on_c, 1, 69, 100
6, 165884, Note_off_c, 1, 69, 0
6, 165888, Note_on_c, 1, 67, 100
6, 165888, Note_on_c, 1, 63, 100
6, 165980, Note_off_c, 1, 67, 0
6, 165984, Note_on_c, 1, 72, 100
6, 166076, Note_off_c, 1, 63, 0
6, 166076, Note_off_c, 1, 72, 0
6, 166080, Note_on_c, 1, 75, 100
6, 166172, Note_off_c, 1, 75, 0
6, 166176, Note_on_c, 1, 74, 100
6, 166268, Note_off_c, 1, 74, 0
6, 166272, Note_on_c, 1, 72, 100
6, 166364, Note_off_c, 1, 72, 0
6, 166368, Note_on_c, 1, 70, 100
6, 166460, Note_off_c, 1, 70, 0
6, 166464, Note_on_c, 1, 69, 100
6, 166556, Note_off_c, 1, 69, 0
6, 166560, Note_on_c, 1, 67, 100
6, 166652, Note_off_c, 1, 67, 0
6, 166656, Note_on_c, 1, 62, 100
6, 166656, Note_on_c, 1, 66, 100
6, 166784, Note_off_c, 1, 62, 0
6, 166784, Note_off_c, 1, 66, 0
6, 171264, Note_on_c, 1, 67, 100
6, 171264, Note_on_c, 1, 70, 100
6, 171356, Note_off_c, 1, 70, 0
6, 171360, Note_on_c, 1, 79, 100
6, 171452, Note_off_c, 1, 67, 0
6, 171452, Note_off_c, 1, 79, 0
6, 171456, Note_on_c, 1, 77, 100
6, 171548, Note_off_c, 1, 77, 0
6, 171552, Note_on_c, 1, 75, 100
6, 171644, Note_off_c, 1, 75, 0
6, 171648, Note_on_c, 1, 74, 100
6, 171740, Note_off_c, 1, 74, 0
6, 171744, Note_on_c, 1, 72, 100
6, 171836, Note_off_c, 1, 72, 0
6, 171840, Note_on_c, 1, 70, 100
6, 171932, Note_off_c, 1, 70, 0
6, 171936, Note_on_c, 1, 69, 100
6, 172028, Note_off_c, 1, 69, 0
6, 172032, Note_on_c, 1, 67, 100
6, 172076, Note_off_c, 1, 67, 0
6, 172080, Note_on_c, 1, 74, 100
6, 172124, Note_off_c, 1, 74, 0
6, 172128, Note_on_c, 1, 79, 100
6, 172172, Note_off_c, 1, 79, 0
6, 172176, Note_on_c, 1, 74, 100
6, 172220, Note_off_c, 1, 74, 0
6, 172224, Note_on_c, 1, 70, 100
6, 172268, Note_off_c, 1, 70, 0
6, 172272, Note_on_c, 1, 74, 100
6, 172316, Note_off_c, 1, 74, 0
6, 172320, Note_on_c, 1, 79, 100
6, 172364, Note_off_c, 1, 79, 0
6, 172368, Note_on_c, 1, 74, 100
6, 172412, Note_off_c, 1, 74, 0
6, 172416, Note_on_c, 1, 70, 100
6, 172460, Note_off_c, 1, 70, 0
6, 172464, Note_on_c, 1, 74, 100
6, 172508, Note_off_c, 1, 74, 0
6, 172512, Note_on_c, 1, 79, 100
6, 172556, Note_off_c, 1, 79, 0
6, 172560, Note_on_c, 1, 74, 100
6, 172604, Note_off_c, 1, 74, 0
6, 172608, Note_on_c, 1, 70, 100
6, 172652, Note_off_c, 1, 70, 0
6, 172656, Note_on_c, 1, 74, 100
6, 172700, Note_off_c, 1, 74, 0
6, 172704, Note_on_c, 1, 79, 100
6, 172748, Note_off_c, 1, 79, 0
6, 172752, Note_on_c, 1, 74, 100
6, 172796, Note_off_c, 1, 74, 0
6, 172800, Note_on_c, 1, 70, 100
6, 172844, Note_off_c, 1, 70, 0
6, 172848, Note_on_c, 1, 74, 100
6, 172892, Note_off_c, 1, 74, 0
6, 172896, Note_on_c, 1, 79, 100
6, 172940, Note_off_c, 1, 79, 0
6, 172944, Note_on_c, 1, 74, 100
6, 172988, Note_off_c, 1, 74, 0
6, 172992, Note_on_c, 1, 70, 100
6, 173036, Note_off_c, 1, 70, 0
6, 173040, Note_on_c, 1, 74, 100
6, 173084, Note_off_c, 1, 74, 0
6, 173088, Note_on_c, 1, 79, 100
6, 173132, Note_off_c, 1, 79, 0
6, 173136, Note_on_c, 1, 74, 100
6, 173180, Note_off_c, 1, 74, 0
6, 173184, Note_on_c, 1, 70, 100
6, 173228, Note_off_c, 1, 70, 0
6, 173232, Note_on_c, 1, 74, 100
6, 173276, Note_off_c, 1, 74, 0
6, 173280, Note_on_c, 1, 79, 100
6, 173324, Note_off_c, 1, 79, 0
6, 173328, Note_on_c, 1, 74, 100
6, 173372, Note_off_c, 1, 74, 0
6, 173376, Note_on_c, 1, 70, 100
6, 173420, Note_off_c, 1, 70, 0
6, 173424, Note_on_c, 1, 74, 100
6, 173468, Note_off_c, 1, 74, 0
6, 173472, Note_on_c, 1, 79, 100
6, 173516, Note_off_c, 1, 79, 0
6, 173520, Note_on_c, 1, 74, 100
6, 173564, Note_off_c, 1, 74, 0
6, 173568, Note_on_c, 1, 69, 100
6, 173612, Note_off_c, 1, 69, 0
6, 173616, Note_on_c, 1, 72, 100
6, 173660, Note_off_c, 1, 72, 0
6, 173664, Note_on_c, 1, 79, 100
6, 173708, Note_off_c, 1, 79, 0
6, 173712, Note_on_c, 1, 72, 100
6, 173756, Note_off_c, 1, 72, 0
6, 173760, Note_on_c, 1, 69, 100
6, 173804, Note_off_c, 1, 69, 0
6, 173808, Note_on_c, 1, 72, 100
6, 173852, Note_off_c, 1, 72, 0
6, 173856, Note_on_c, 1, 79, 100
6, 173900, Note_off_c, 1, 79, 0
6, 173904, Note_on_c, 1, 72, 100
6, 173948, Note_off_c, 1, 72, 0
6, 173952, Note_on_c, 1, 69, 100
6, 173996, Note_off_c, 1, 69, 0
6, 174000, Note_on_c, 1, 72, 100
6, 174044, Note_off_c, 1, 72, 0
6, 174048, Note_on_c, 1, 78, 100
6, 174092, Note_off_c, 1, 78, 0
6, 174096, Note_on_c, 1, 72, 100
6, 174140, Note_off_c, 1, 72, 0
6, 174144, Note_on_c, 1, 69, 100
6, 174188, Note_off_c, 1, 69, 0
6, 174192, Note_on_c, 1, 72, 100
6, 174236, Note_off_c, 1, 72, 0
6, 174240, Note_on_c, 1, 78, 100
6, 174284, Note_off_c, 1, 78, 0
6, 174288, Note_on_c, 1, 72, 100
6, 174332, Note_off_c, 1, 72, 0
6, 174336, Note_on_c, 1, 67, 100
6, 174336, Note_on_c, 1, 70, 100
6, 174336, Note_on_c, 1, 74, 100
6, 174336, Note_on_c, 1, 79, 100
6, 175484, Note_off_c, 1, 67, 0
6, 175484, Note_off_c, 1, 70, 0
6, 175484, Note_off_c, 1, 74, 0
6, 175484, Note_off_c, 1, 79, 0
6, 197376, Note_on_c, 1, 65, 100
6, 197504, Note_off_c, 1, 65, 0
6, 197568, Note_on_c, 1, 69, 100
6, 197660, Note_off_c, 1, 69, 0
6, 197664, Note_on_c, 1, 67, 100
6, 197756, Note_off_c, 1, 67, 0
6, 197760, Note_on_c, 1, 65, 100
6, 197852, Note_off_c, 1, 65, 0
6, 197856, Note_on_c, 1, 64, 100
6, 197920, Note_off_c, 1, 64, 0
6, 197952, Note_on_c, 1, 65, 100
6, 198080, Note_off_c, 1, 65, 0
6, 198144, Note_on_c, 1, 69, 100
6, 198236, Note_off_c, 1, 69, 0
6, 198240, Note_on_c, 1, 67, 100
6, 198332, Note_off_c, 1, 67, 0
6, 198336, Note_on_c, 1, 65, 100
6, 198428, Note_off_c, 1, 65, 0
6, 198432, Note_on_c, 1, 64, 100
6, 198496, Note_off_c, 1, 64, 0
6, 198528, Note_on_c, 1, 65, 100
6, 198716, Note_off_c, 1, 65, 0
6, 198720, Note_on_c, 1, 69, 100
6, 198812, Note_off_c, 1, 69, 0
6, 198816, Note_on_c, 1, 67, 100
6, 198908, Note_off_c, 1, 67, 0
6, 198912, Note_on_c, 1, 65, 100
6, 199004, Note_off_c, 1, 65, 0
6, 199008, Note_on_c, 1, 64, 100
6, 199072, Note_off_c, 1, 64, 0
6, 199104, Note_on_c, 1, 65, 100
6, 199292, Note_off_c, 1, 65, 0
6, 199296, Note_on_c, 1, 69, 100
6, 199388, Note_off_c, 1, 69, 0
6, 199392, Note_on_c, 1, 67, 100
6, 199484, Note_off_c, 1, 67, 0
6, 199488, Note_on_c, 1, 65, 100
6, 199580, Note_off_c, 1, 65, 0
6, 199584, Note_on_c, 1, 64, 100
6, 199648, Note_off_c, 1, 64, 0
6, 199680, Note_on_c, 1, 62, 100
6, 199680, Note_on_c, 1, 67, 100
6, 199868, Note_off_c, 1, 67, 0
6, 199872, Note_on_c, 1, 70, 100
6, 199964, Note_off_c, 1, 70, 0
6, 199968, Note_on_c, 1, 69, 100
6, 200060, Note_off_c, 1, 62, 0
6, 200060, Note_off_c, 1, 69, 0
6, 200064, Note_on_c, 1, 67, 100
6, 200156, Note_off_c, 1, 67, 0
6, 200160, Note_on_c, 1, 66, 100
6, 200252, Note_off_c, 1, 66, 0
6, 200256, Note_on_c, 1, 67, 100
6, 200444, Note_off_c, 1, 67, 0
6, 200448, Note_on_c, 1, 70, 100
6, 200540, Note_off_c, 1, 70, 0
6, 200544, Note_on_c, 1, 69, 100
6, 200636, Note_off_c, 1, 69, 0
6, 200640, Note_on_c, 1, 67, 100
6, 200732, Note_off_c, 1, 67, 0
6, 200736, Note_on_c, 1, 66, 100
6, 200828, Note_off_c, 1, 66, 0
6, 200832, Note_on_c, 1, 67, 100
6, 201020, Note_off_c, 1, 67, 0
6, 201024, Note_on_c, 1, 70, 100
6, 201116, Note_off_c, 1, 70, 0
6, 201120, Note_on_c, 1, 69, 100
6, 201212, Note_off_c, 1, 69, 0
6, 201216, Note_on_c, 1, 67, 100
6, 201308, Note_off_c, 1, 67, 0
6, 201312, Note_on_c, 1, 66, 100
6, 201404, Note_off_c, 1, 66, 0
6, 201408, Note_on_c, 1, 67, 100
6, 201596, Note_off_c, 1, 67, 0
6, 201600, Note_on_c, 1, 70, 100
6, 201692, Note_off_c, 1, 70, 0
6, 201696, Note_on_c, 1, 69, 100
6, 201788, Note_off_c, 1, 69, 0
6, 201792, Note_on_c, 1, 67, 100
6, 201920, Note_off_c, 1, 67, 0
6, 201984, Note_on_c, 1, 69, 100
6, 202172, Note_off_c, 1, 69, 0
6, 202176, Note_on_c, 1, 72, 100
6, 202268, Note_off_c, 1, 72, 0
6, 202272, Note_on_c, 1, 70, 100
6, 202364, Note_off_c, 1, 70, 0
6, 202368, Note_on_c, 1, 69, 100
6, 202460, Note_off_c, 1, 69, 0
6, 202464, Note_on_c, 1, 67, 100
6, 202556, Note_off_c, 1, 67, 0
6, 202560, Note_on_c, 1, 69, 100
6, 202748, Note_off_c, 1, 69, 0
6, 202752, Note_on_c, 1, 72, 100
6, 202844, Note_off_c, 1, 72, 0
6, 202848, Note_on_c, 1, 70, 100
6, 202940, Note_off_c, 1, 70, 0
6, 202944, Note_on_c, 1, 69, 100
6, 203036, Note_off_c, 1, 69, 0
6, 203040, Note_on_c, 1, 67, 100
6, 203132, Note_off_c, 1, 67, 0
6, 203136, Note_on_c, 1, 69, 100
6, 203324, Note_off_c, 1, 69, 0
6, 203328, Note_on_c, 1, 72, 100
6, 203420, Note_off_c, 1, 72, 0
6, 203424, Note_on_c, 1, 70, 100
6, 203516, Note_off_c, 1, 70, 0
6, 203520, Note_on_c, 1, 69, 100
6, 203612, Note_off_c, 1, 69, 0
6, 203616, Note_on_c, 1, 67, 100
6, 203708, Note_off_c, 1, 67, 0
6, 203712, Note_on_c, 1, 69, 100
6, 203900, Note_off_c, 1, 69, 0
6, 203904, Note_on_c, 1, 72, 100
6, 203996, Note_off_c, 1, 72, 0
6, 204000, Note_on_c, 1, 70, 100
6, 204092, Note_off_c, 1, 70, 0
6, 204096, Note_on_c, 1, 69, 100
6, 204188, Note_off_c, 1, 69, 0
6, 204192, Note_on_c, 1, 67, 100
6, 204284, Note_off_c, 1, 67, 0
6, 204288, Note_on_c, 1, 65, 100
6, 204288, Note_on_c, 1, 70, 100
6, 204476, Note_off_c, 1, 70, 0
6, 204480, Note_on_c, 1, 74, 100
6, 204572, Note_off_c, 1, 74, 0
6, 204576, Note_on_c, 1, 72, 100
6, 204668, Note_off_c, 1, 65, 0
6, 204668, Note_off_c, 1, 72, 0
6, 204672, Note_on_c, 1, 70, 100
6, 204764, Note_off_c, 1, 70, 0
6, 204768, Note_on_c, 1, 69, 100
6, 204860, Note_off_c, 1, 69, 0
6, 204864, Note_on_c, 1, 70, 100
6, 205052, Note_off_c, 1, 70, 0
6, 205056, Note_on_c, 1, 74, 100
6, 205148, Note_off_c, 1, 74, 0
6, 205152, Note_on_c, 1, 72, 100
6, 205244, Note_off_c, 1, 72, 0
6, 205248, Note_on_c, 1, 70, 100
6, 205340, Note_off_c, 1, 70, 0
6, 205344, Note_on_c, 1, 69, 100
6, 205436, Note_off_c, 1, 69, 0
6, 205440, Note_on_c, 1, 70, 100
6, 205628, Note_off_c, 1, 70, 0
6, 205632, Note_on_c, 1, 74, 100
6, 205724, Note_off_c, 1, 74, 0
6, 205728, Note_on_c, 1, 72, 100
6, 205820, Note_off_c, 1, 72, 0
6, 205824, Note_on_c, 1, 70, 100
6, 205916, Note_off_c, 1, 70, 0
6, 205920, Note_on_c, 1, 69, 100
6, 206012, Note_off_c, 1, 69, 0
6, 206016, Note_on_c, 1, 70, 100
6, 206204, Note_off_c, 1, 70, 0
6, 206208, Note_on_c, 1, 74, 100
6, 206300, Note_off_c, 1, 74, 0
6, 206304, Note_on_c, 1, 72, 100
6, 206396, Note_off_c, 1, 72, 0
6, 206400, Note_on_c, 1, 70, 100
6, 206492, Note_off_c, 1, 70, 0
6, 206496, Note_on_c, 1, 69, 100
6, 206588, Note_off_c, 1, 69, 0
6, 206592, Note_on_c, 1, 67, 100
6, 206592, Note_on_c, 1, 76, 100
6, 206720, Note_off_c, 1, 76, 0
6, 206784, Note_on_c, 1, 70, 100
6, 206848, Note_off_c, 1, 67, 0
6, 206912, Note_off_c, 1, 70, 0
6, 206976, Note_on_c, 1, 69, 100
6, 207104, Note_off_c, 1, 69, 0
6, 207168, Note_on_c, 1, 67, 100
6, 207260, Note_off_c, 1, 67, 0
6, 207264, Note_on_c, 1, 69, 100
6, 207356, Note_off_c, 1, 69, 0
6, 207360, Note_on_c, 1, 70, 100
6, 207452, Note_off_c, 1, 70, 0
6, 207456, Note_on_c, 1, 69, 100
6, 207548, Note_off_c, 1, 69, 0
6, 207552, Note_on_c, 1, 67, 100
6, 207740, Note_off_c, 1, 67, 0
6, 207744, Note_on_c, 1, 76, 100
6, 207872, Note_off_c, 1, 76, 0
6, 207936, Note_on_c, 1, 70, 100
6, 208064, Note_off_c, 1, 70, 0
6, 208128, Note_on_c, 1, 69, 100
6, 208256, Note_off_c, 1, 69, 0
6, 208320, Note_on_c, 1, 67, 100
6, 208412, Note_off_c, 1, 67, 0
6, 208416, Note_on_c, 1, 69, 100
6, 208508, Note_off_c, 1, 69, 0
6, 208512, Note_on_c, 1, 70, 100
6, 208604, Note_off_c, 1, 70, 0
6, 208608, Note_on_c, 1, 69, 100
6, 208700, Note_off_c, 1, 69, 0
6, 208704, Note_on_c, 1, 67, 100
6, 208892, Note_off_c, 1, 67, 0
6, 208896, Note_on_c, 1, 77, 100
6, 209024, Note_off_c, 1, 77, 0
6, 209088, Note_on_c, 1, 72, 100
6, 209216, Note_off_c, 1, 72, 0
6, 209280, Note_on_c, 1, 70, 100
6, 209408, Note_off_c, 1, 70, 0
6, 209472, Note_on_c, 1, 69, 100
6, 209564, Note_off_c, 1, 69, 0
6, 209568, Note_on_c, 1, 70, 100
6, 209660, Note_off_c, 1, 70, 0
6, 209664, Note_on_c, 1, 72, 100
6, 209756, Note_off_c, 1, 72, 0
6, 209760, Note_on_c, 1, 70, 100
6, 209852, Note_off_c, 1, 70, 0
6, 209856, Note_on_c, 1, 69, 100
6, 210044, Note_off_c, 1, 69, 0
6, 210048, Note_on_c, 1, 77, 100
6, 210176, Note_off_c, 1, 77, 0
6, 210240, Note_on_c, 1, 72, 100
6, 210368, Note_off_c, 1, 72, 0
6, 210432, Note_on_c, 1, 70, 100
6, 210560, Note_off_c, 1, 70, 0
6, 210624, Note_on_c, 1, 69, 100
6, 210716, Note_off_c, 1, 69, 0
6, 210720, Note_on_c, 1, 70, 100
6, 210812, Note_off_c, 1, 70, 0
6, 210816, Note_on_c, 1, 72, 100
6, 210908, Note_off_c, 1, 72, 0
6, 210912, Note_on_c, 1, 70, 100
6, 211004, Note_off_c, 1, 70, 0
6, 211008, Note_on_c, 1, 69, 100
6, 211196, Note_off_c, 1, 69, 0
6, 211200, Note_on_c, 1, 79, 100
6, 211388, Note_off_c, 1, 79, 0
6, 211392, Note_on_c, 1, 76, 100
6, 211580, Note_off_c, 1, 76, 0
6, 211584, Note_on_c, 1, 72, 100
6, 211712, Note_off_c, 1, 72, 0
6, 211776, Note_on_c, 1, 77, 100
6, 211964, Note_off_c, 1, 77, 0
6, 211968, Note_on_c, 1, 79, 100
6, 212156, Note_off_c, 1, 79, 0
6, 212160, Note_on_c, 1, 76, 100
6, 212288, Note_off_c, 1, 76, 0
6, 212352, Note_on_c, 1, 77, 100
6, 212540, Note_off_c, 1, 77, 0
6, 212544, Note_on_c, 1, 81, 100
6, 212732, Note_off_c, 1, 81, 0
6, 212736, Note_on_c, 1, 72, 100
6, 212864, Note_off_c, 1, 72, 0
6, 212928, Note_on_c, 1, 74, 100
6, 213116, Note_off_c, 1, 74, 0
6, 213120, Note_on_c, 1, 77, 100
6, 213308, Note_off_c, 1, 77, 0
6, 213312, Note_on_c, 1, 70, 100
6, 213440, Note_off_c, 1, 70, 0
6, 213504, Note_on_c, 1, 72, 100
6, 213692, Note_off_c, 1, 72, 0
6, 213696, Note_on_c, 1, 69, 100
6, 213788, Note_off_c, 1, 69, 0
6, 213792, Note_on_c, 1, 70, 100
6, 213884, Note_off_c, 1, 70, 0
6, 213888, Note_on_c, 1, 72, 100
6, 214016, Note_off_c, 1, 72, 0
6, 214080, Note_on_c, 1, 72, 100
6, 214268, Note_off_c, 1, 72, 0
6, 214272, Note_on_c, 1, 69, 100
6, 214364, Note_off_c, 1, 69, 0
6, 214368, Note_on_c, 1, 70, 100
6, 214460, Note_off_c, 1, 70, 0
6, 214464, Note_on_c, 1, 72, 100
6, 214592, Note_off_c, 1, 72, 0
6, 214656, Note_on_c, 1, 74, 100
6, 214844, Note_off_c, 1, 74, 0
6, 214848, Note_on_c, 1, 70, 100
6, 214940, Note_off_c, 1, 70, 0
6, 214944, Note_on_c, 1, 72, 100
6, 215036, Note_off_c, 1, 72, 0
6, 215040, Note_on_c, 1, 74, 100
6, 215168, Note_off_c, 1, 74, 0
6, 215232, Note_on_c, 1, 74, 100
6, 215420, Note_off_c, 1, 74, 0
6, 215424, Note_on_c, 1, 70, 100
6, 215516, Note_off_c, 1, 70, 0
6, 215520, Note_on_c, 1, 72, 100
6, 215612, Note_off_c, 1, 72, 0
6, 215616, Note_on_c, 1, 74, 100
6, 215744, Note_off_c, 1, 74, 0
6, 215808, Note_on_c, 1, 76, 100
6, 215996, Note_off_c, 1, 76, 0
6, 216000, Note_on_c, 1, 72, 100
6, 216092, Note_off_c, 1, 72, 0
6, 216096, Note_on_c, 1, 74, 100
6, 216188, Note_off_c, 1, 74, 0
6, 216192, Note_on_c, 1, 76, 100
6, 216320, Note_off_c, 1, 76, 0
6, 216384, Note_on_c, 1, 76, 100
6, 216572, Note_off_c, 1, 76, 0
6, 216576, Note_on_c, 1, 72, 100
6, 216668, Note_off_c, 1, 72, 0
6, 216672, Note_on_c, 1, 74, 100
6, 216764, Note_off_c, 1, 74, 0
6, 216768, Note_on_c, 1, 76, 100
6, 216896, Note_off_c, 1, 76, 0
6, 216960, Note_on_c, 1, 77, 100
6, 217148, Note_off_c, 1, 77, 0
6, 217152, Note_on_c, 1, 74, 100
6, 217244, Note_off_c, 1, 74, 0
6, 217248, Note_on_c, 1, 76, 100
6, 217340, Note_off_c, 1, 76, 0
6, 217344, Note_on_c, 1, 77, 100
6, 217472, Note_off_c, 1, 77, 0
6, 217536, Note_on_c, 1, 77, 100
6, 217724, Note_off_c, 1, 77, 0
6, 217728, Note_on_c, 1, 74, 100
6, 217820, Note_off_c, 1, 74, 0
6, 217824, Note_on_c, 1, 76, 100
6, 217916, Note_off_c, 1, 76, 0
6, 217920, Note_on_c, 1, 77, 100
6, 218048, Note_off_c, 1, 77, 0
6, 218112, Note_on_c, 1, 79, 100
6, 218300, Note_off_c, 1, 79, 0
6, 218304, Note_on_c, 1, 76, 100
6, 218396, Note_off_c, 1, 76, 0
6, 218400, Note_on_c, 1, 77, 100
6, 218492, Note_off_c, 1, 77, 0
6, 218496, Note_on_c, 1, 79, 100
6, 218624, Note_off_c, 1, 79, 0
6, 218688, Note_on_c, 1, 79, 100
6, 218876, Note_off_c, 1, 79, 0
6, 218880, Note_on_c, 1, 76, 100
6, 218972, Note_off_c, 1, 76, 0
6, 218976, Note_on_c, 1, 77, 100
6, 219068, Note_off_c, 1, 77, 0
6, 219072, Note_on_c, 1, 79, 100
6, 219200, Note_off_c, 1, 79, 0
6, 219264, Note_on_c, 1, 81, 100
6, 219392, Note_off_c, 1, 81, 0
6, 219456, Note_on_c, 1, 82, 100
6, 219548, Note_off_c, 1, 82, 0
6, 219552, Note_on_c, 1, 81, 100
6, 219644, Note_off_c, 1, 81, 0
6, 219648, Note_on_c, 1, 79, 100
6, 219740, Note_off_c, 1, 79, 0
6, 219744, Note_on_c, 1, 77, 100
6, 219808, Note_off_c, 1, 77, 0
6, 219840, Note_on_c, 1, 81, 100
6, 219968, Note_off_c, 1, 81, 0
6, 220032, Note_on_c, 1, 82, 100
6, 220124, Note_off_c, 1, 82, 0
6, 220128, Note_on_c, 1, 81, 100
6, 220220, Note_off_c, 1, 81, 0
6, 220224, Note_on_c, 1, 79, 100
6, 220316, Note_off_c, 1, 79, 0
6, 220320, Note_on_c, 1, 77, 100
6, 220384, Note_off_c, 1, 77, 0
6, 220416, Note_on_c, 1, 82, 100
6, 220796, Note_off_c, 1, 82, 0
6, 220800, Note_on_c, 1, 77, 100
6, 220988, Note_off_c, 1, 77, 0
6, 220992, Note_on_c, 1, 79, 100
6, 221180, Note_off_c, 1, 79, 0
6, 221184, Note_on_c, 1, 81, 100
6, 221276, Note_off_c, 1, 81, 0
6, 221280, Note_on_c, 1, 79, 100
6, 221372, Note_off_c, 1, 79, 0
6, 221376, Note_on_c, 1, 77, 100
6, 221468, Note_off_c, 1, 77, 0
6, 221472, Note_on_c, 1, 75, 100
6, 221564, Note_off_c, 1, 75, 0
6, 223872, Note_on_c, 1, 70, 100
6, 224060, Note_off_c, 1, 70, 0
6, 224064, Note_on_c, 1, 74, 100
6, 224252, Note_off_c, 1, 74, 0
6, 224256, Note_on_c, 1, 77, 100
6, 224384, Note_off_c, 1, 77, 0
6, 224448, Note_on_c, 1, 77, 100
6, 224636, Note_off_c, 1, 77, 0
6, 224640, Note_on_c, 1, 74, 100
6, 224828, Note_off_c, 1, 74, 0
6, 224832, Note_on_c, 1, 70, 100
6, 224960, Note_off_c, 1, 70, 0
6, 225024, Note_on_c, 1, 69, 100
6, 225212, Note_off_c, 1, 69, 0
6, 225216, Note_on_c, 1, 72, 100
6, 225404, Note_off_c, 1, 72, 0
6, 225408, Note_on_c, 1, 77, 100
6, 225536, Note_off_c, 1, 77, 0
6, 225600, Note_on_c, 1, 77, 100
6, 225788, Note_off_c, 1, 77, 0
6, 225792, Note_on_c, 1, 72, 100
6, 225980, Note_off_c, 1, 72, 0
6, 225984, Note_on_c, 1, 69, 100
6, 226112, Note_off_c, 1, 69, 0
6, 226176, Note_on_c, 1, 70, 100
6, 226364, Note_off_c, 1, 70, 0
6, 226368, Note_on_c, 1, 74, 100
6, 226556, Note_off_c, 1, 74, 0
6, 226560, Note_on_c, 1, 77, 100
6, 226688, Note_off_c, 1, 77, 0
6, 226752, Note_on_c, 1, 77, 100
6, 226940, Note_off_c, 1, 77, 0
6, 226944, Note_on_c, 1, 74, 100
6, 227132, Note_off_c, 1, 74, 0
6, 227136, Note_on_c, 1, 70, 100
6, 227264, Note_off_c, 1, 70, 0
6, 227328, Note_on_c, 1, 71, 100
6, 227516, Note_off_c, 1, 71, 0
6, 227520, Note_on_c, 1, 74, 100
6, 227708, Note_off_c, 1, 74, 0
6, 227712, Note_on_c, 1, 79, 100
6, 227840, Note_off_c, 1, 79, 0
6, 227904, Note_on_c, 1, 79, 100
6, 228092, Note_off_c, 1, 79, 0
6, 228096, Note_on_c, 1, 74, 100
6, 228284, Note_off_c, 1, 74, 0
6, 228288, Note_on_c, 1, 71, 100
6, 228416, Note_off_c, 1, 71, 0
6, 228480, Note_on_c, 1, 72, 100
6, 228668, Note_off_c, 1, 72, 0
6, 228672, Note_on_c, 1, 75, 100
6, 228860, Note_off_c, 1, 75, 0
6, 228864, Note_on_c, 1, 79, 100
6, 228992, Note_off_c, 1, 79, 0
6, 229056, Note_on_c, 1, 79, 100
6, 229244, Note_off_c, 1, 79, 0
6, 229248, Note_on_c, 1, 75, 100
6, 229436, Note_off_c, 1, 75, 0
6, 229440, Note_on_c, 1, 72, 100
6, 229568, Note_off_c, 1, 72, 0
6, 229632, Note_on_c, 1, 71, 100
6, 229820, Note_off_c, 1, 71, 0
6, 229824, Note_on_c, 1, 74, 100
6, 230012, Note_off_c, 1, 74, 0
6, 230016, Note_on_c, 1, 79, 100
6, 230144, Note_off_c, 1, 79, 0
6, 230208, Note_on_c, 1, 79, 100
6, 230396, Note_off_c, 1, 79, 0
6, 230400, Note_on_c, 1, 74, 100
6, 230588, Note_off_c, 1, 74, 0
6, 230592, Note_on_c, 1, 71, 100
6, 230720, Note_off_c, 1, 71, 0
6, 230784, Note_on_c, 1, 73, 100
6, 230972, Note_off_c, 1, 73, 0
6, 230976, Note_on_c, 1, 76, 100
6, 231164, Note_off_c, 1, 76, 0
6, 231168, Note_on_c, 1, 81, 100
6, 231296, Note_off_c, 1, 81, 0
6, 231360, Note_on_c, 1, 81, 100
6, 231548, Note_off_c, 1, 81, 0
6, 231552, Note_on_c, 1, 76, 100
6, 231740, Note_off_c, 1, 76, 0
6, 231744, Note_on_c, 1, 73, 100
6, 231872, Note_off_c, 1, 73, 0
6, 231936, Note_on_c, 1, 74, 100
6, 232124, Note_off_c, 1, 74, 0
6, 232128, Note_on_c, 1, 77, 100
6, 232316, Note_off_c, 1, 77, 0
6, 232320, Note_on_c, 1, 81, 100
6, 232448, Note_off_c, 1, 81, 0
6, 232512, Note_on_c, 1, 81, 100
6, 232700, Note_off_c, 1, 81, 0
6, 232704, Note_on_c, 1, 77, 100
6, 232892, Note_off_c, 1, 77, 0
6, 232896, Note_on_c, 1, 74, 100
6, 233084, Note_off_c, 1, 74, 0
6, 233088, Note_on_c, 1, 73, 100
6, 233276, Note_off_c, 1, 73, 0
6, 233280, Note_on_c, 1, 76, 100
6, 233468, Note_off_c, 1, 76, 0
6, 233472, Note_on_c, 1, 81, 100
6, 233600, Note_off_c, 1, 81, 0
6, 233664, Note_on_c, 1, 81, 100
6, 233852, Note_off_c, 1, 81, 0
6, 233856, Note_on_c, 1, 76, 100
6, 234044, Note_off_c, 1, 76, 0
6, 234048, Note_on_c, 1, 73, 100
6, 234176, Note_off_c, 1, 73, 0
6, 234240, Note_on_c, 1, 74, 100
6, 234428, Note_off_c, 1, 74, 0
6, 234432, Note_on_c, 1, 77, 100
6, 234620, Note_off_c, 1, 77, 0
6, 234624, Note_on_c, 1, 82, 100
6, 234752, Note_off_c, 1, 82, 0
6, 234816, Note_on_c, 1, 82, 100
6, 235004, Note_off_c, 1, 82, 0
6, 235008, Note_on_c, 1, 77, 100
6, 235196, Note_off_c, 1, 77, 0
6, 235200, Note_on_c, 1, 74, 100
6, 235388, Note_off_c, 1, 74, 0
6, 235392, Note_on_c, 1, 73, 100
6, 235580, Note_off_c, 1, 73, 0
6, 235584, Note_on_c, 1, 76, 100
6, 235772, Note_off_c, 1, 76, 0
6, 235776, Note_on_c, 1, 82, 100
6, 235904, Note_off_c, 1, 82, 0
6, 235968, Note_on_c, 1, 82, 100
6, 236156, Note_off_c, 1, 82, 0
6, 236160, Note_on_c, 1, 76, 100
6, 236348, Note_off_c, 1, 76, 0
6, 236352, Note_on_c, 1, 73, 100
6, 236480, Note_off_c, 1, 73, 0
6, 236544, Note_on_c, 1, 72, 100
6, 236732, Note_off_c, 1, 72, 0
6, 236736, Note_on_c, 1, 76, 100
6, 236924, Note_off_c, 1, 76, 0
6, 236928, Note_on_c, 1, 82, 100
6, 237056, Note_off_c, 1, 82, 0
6, 237120, Note_on_c, 1, 82, 100
6, 237308, Note_off_c, 1, 82, 0
6, 237312, Note_on_c, 1, 76, 100
6, 237500, Note_off_c, 1, 76, 0
6, 237504, Note_on_c, 1, 72, 100
6, 237632, Note_off_c, 1, 72, 0
6, 237696, Note_on_c, 1, 72, 100
6, 237884, Note_off_c, 1, 72, 0
6, 237888, Note_on_c, 1, 77, 100
6, 238076, Note_off_c, 1, 77, 0
6, 238080, Note_on_c, 1, 81, 100
6, 238208, Note_off_c, 1, 81, 0
6, 238272, Note_on_c, 1, 81, 100
6, 238460, Note_off_c, 1, 81, 0
6, 238464, Note_on_c, 1, 77, 100
6, 238652, Note_off_c, 1, 77, 0
6, 238656, Note_on_c, 1, 72, 100
6, 238784, Note_off_c, 1, 72, 0
6, 238848, Note_on_c, 1, 71, 100
6, 239036, Note_off_c, 1, 71, 0
6, 239040, Note_on_c, 1, 74, 100
6, 239228, Note_off_c, 1, 74, 0
6, 239232, Note_on_c, 1, 79, 100
6, 239360, Note_off_c, 1, 79, 0
6, 239424, Note_on_c, 1, 79, 100
6, 239612, Note_off_c, 1, 79, 0
6, 239616, Note_on_c, 1, 74, 100
6, 239804, Note_off_c, 1, 74, 0
6, 239808, Note_on_c, 1, 71, 100
6, 239936, Note_off_c, 1, 71, 0
6, 240000, Note_on_c, 1, 72, 100
6, 240188, Note_off_c, 1, 72, 0
6, 240192, Note_on_c, 1, 75, 100
6, 240380, Note_off_c, 1, 75, 0
6, 240384, Note_on_c, 1, 79, 100
6, 240512, Note_off_c, 1, 79, 0
6, 240576, Note_on_c, 1, 79, 100
6, 240764, Note_off_c, 1, 79, 0
6, 240768, Note_on_c, 1, 75, 100
6, 240956, Note_off_c, 1, 75, 0
6, 240960, Note_on_c, 1, 72, 100
6, 241148, Note_off_c, 1, 72, 0
6, 241152, Note_on_c, 1, 69, 100
6, 241340, Note_off_c, 1, 69, 0
6, 241344, Note_on_c, 1, 72, 100
6, 241532, Note_off_c, 1, 72, 0
6, 241536, Note_on_c, 1, 79, 100
6, 241664, Note_off_c, 1, 79, 0
6, 241728, Note_on_c, 1, 79, 100
6, 241916, Note_off_c, 1, 79, 0
6, 241920, Note_on_c, 1, 72, 100
6, 242108, Note_off_c, 1, 72, 0
6, 242112, Note_on_c, 1, 69, 100
6, 242300, Note_off_c, 1, 69, 0
6, 242304, Note_on_c, 1, 69, 100
6, 242492, Note_off_c, 1, 69, 0
6, 242496, Note_on_c, 1, 72, 100
6, 242684, Note_off_c, 1, 72, 0
6, 242688, Note_on_c, 1, 78, 100
6, 242816, Note_off_c, 1, 78, 0
6, 242880, Note_on_c, 1, 78, 100
6, 243068, Note_off_c, 1, 78, 0
6, 243072, Note_on_c, 1, 72, 100
6, 243260, Note_off_c, 1, 72, 0
6, 243264, Note_on_c, 1, 69, 100
6, 243452, Note_off_c, 1, 69, 0
6, 243456, Note_on_c, 1, 79, 100
6, 243644, Note_off_c, 1, 79, 0
6, 243648, Note_on_c, 1, 74, 100
6, 243836, Note_off_c, 1, 74, 0
6, 243840, Note_on_c, 1, 70, 100
6, 244028, Note_off_c, 1, 70, 0
6, 244032, Note_on_c, 1, 74, 100
6, 244220, Note_off_c, 1, 74, 0
6, 244224, Note_on_c, 1, 70, 100
6, 244412, Note_off_c, 1, 70, 0
6, 244416, Note_on_c, 1, 66, 100
6, 244604, Note_off_c, 1, 66, 0
6, 244608, Note_on_c, 1, 67, 100
6, 244736, Note_off_c, 1, 67, 0
6, 244800, Note_on_c, 1, 69, 100
6, 244928, Note_off_c, 1, 69, 0
6, 244992, Note_on_c, 1, 70, 100
6, 245120, Note_off_c, 1, 70, 0
6, 245184, Note_on_c, 1, 67, 100
6, 245312, Note_off_c, 1, 67, 0
6, 245376, Note_on_c, 1, 69, 100
6, 245504, Note_off_c, 1, 69, 0
6, 245568, Note_on_c, 1, 70, 100
6, 245696, Note_off_c, 1, 70, 0
6, 245760, Note_on_c, 1, 69, 100
6, 245888, Note_off_c, 1, 69, 0
6, 245952, Note_on_c, 1, 70, 100
6, 246080, Note_off_c, 1, 70, 0
6, 246144, Note_on_c, 1, 72, 100
6, 246272, Note_off_c, 1, 72, 0
6, 246336, Note_on_c, 1, 69, 100
6, 246464, Note_off_c, 1, 69, 0
6, 246528, Note_on_c, 1, 70, 100
6, 246656, Note_off_c, 1, 70, 0
6, 246720, Note_on_c, 1, 72, 100
6, 246848, Note_off_c, 1, 72, 0
6, 246912, Note_on_c, 1, 70, 100
6, 247100, Note_off_c, 1, 70, 0
6, 247104, Note_on_c, 1, 72, 100
6, 247232, Note_off_c, 1, 72, 0
6, 247296, Note_on_c, 1, 74, 100
6, 247424, Note_off_c, 1, 74, 0
6, 247488, Note_on_c, 1, 70, 100
6, 247676, Note_off_c, 1, 70, 0
6, 247680, Note_on_c, 1, 72, 100
6, 247808, Note_off_c, 1, 72, 0
6, 247872, Note_on_c, 1, 74, 100
6, 248000, Note_off_c, 1, 74, 0
6, 248064, Note_on_c, 1, 72, 100
6, 248252, Note_off_c, 1, 72, 0
6, 248256, Note_on_c, 1, 74, 100
6, 248444, Note_off_c, 1, 74, 0
6, 248448, Note_on_c, 1, 75, 100
6, 248576, Note_off_c, 1, 75, 0
6, 248640, Note_on_c, 1, 72, 100
6, 248828, Note_off_c, 1, 72, 0
6, 248832, Note_on_c, 1, 74, 100
6, 249020, Note_off_c, 1, 74, 0
6, 249024, Note_on_c, 1, 75, 100
6, 249152, Note_off_c, 1, 75, 0
6, 249216, Note_on_c, 1, 74, 100
6, 249404, Note_off_c, 1, 74, 0
6, 249408, Note_on_c, 1, 76, 100
6, 249596, Note_off_c, 1, 76, 0
6, 249600, Note_on_c, 1, 78, 100
6, 249788, Note_off_c, 1, 78, 0
6, 249792, Note_on_c, 1, 74, 100
6, 249980, Note_off_c, 1, 74, 0
6, 249984, Note_on_c, 1, 76, 100
6, 250172, Note_off_c, 1, 76, 0
6, 250176, Note_on_c, 1, 78, 100
6, 250364, Note_off_c, 1, 78, 0
6, 250368, Note_on_c, 1, 79, 100
6, 250556, Note_off_c, 1, 79, 0
6, 250560, Note_on_c, 1, 74, 100
6, 250688, Note_off_c, 1, 74, 0
6, 250752, Note_on_c, 1, 79, 100
6, 250880, Note_off_c, 1, 79, 0
6, 250944, Note_on_c, 1, 79, 100
6, 251072, Note_off_c, 1, 79, 0
6, 251136, Note_on_c, 1, 82, 100
6, 251228, Note_off_c, 1, 82, 0
6, 251232, Note_on_c, 1, 81, 100
6, 251324, Note_off_c, 1, 81, 0
6, 251328, Note_on_c, 1, 79, 100
6, 251420, Note_off_c, 1, 79, 0
6, 251424, Note_on_c, 1, 78, 100
6, 251516, Note_off_c, 1, 78, 0
6, 251520, Note_on_c, 1, 79, 100
6, 251708, Note_off_c, 1, 79, 0
6, 251712, Note_on_c, 1, 74, 100
6, 251840, Note_off_c, 1, 74, 0
6, 251904, Note_on_c, 1, 79, 100
6, 252032, Note_off_c, 1, 79, 0
6, 252096, Note_on_c, 1, 79, 100
6, 252224, Note_off_c, 1, 79, 0
6, 252288, Note_on_c, 1, 82, 100
6, 252380, Note_off_c, 1, 82, 0
6, 252384, Note_on_c, 1, 81, 100
6, 252476, Note_off_c, 1, 81, 0
6, 252480, Note_on_c, 1, 79, 100
6, 252572, Note_off_c, 1, 79, 0
6, 252576, Note_on_c, 1, 78, 100
6, 252668, Note_off_c, 1, 78, 0
6, 252672, Note_on_c, 1, 79, 100
6, 252860, Note_off_c, 1, 79, 0
6, 252864, Note_on_c, 1, 82, 100
6, 253052, Note_off_c, 1, 82, 0
6, 253056, Note_on_c, 1, 74, 100
6, 253184, Note_off_c, 1, 74, 0
6, 253248, Note_on_c, 1, 75, 100
6, 253436, Note_off_c, 1, 75, 0
6, 253440, Note_on_c, 1, 79, 100
6, 253628, Note_off_c, 1, 79, 0
6, 253632, Note_on_c, 1, 72, 100
6, 253760, Note_off_c, 1, 72, 0
6, 253824, Note_on_c, 1, 74, 100
6, 254012, Note_off_c, 1, 74, 0
6, 254016, Note_on_c, 1, 79, 100
6, 254204, Note_off_c, 1, 79, 0
6, 254208, Note_on_c, 1, 70, 100
6, 254396, Note_off_c, 1, 70, 0
6, 254400, Note_on_c, 1, 69, 100
6, 254444, Note_off_c, 1, 69, 0
6, 254448, Note_on_c, 1, 70, 100
6, 254492, Note_off_c, 1, 70, 0
6, 254496, Note_on_c, 1, 69, 100
6, 254540, Note_off_c, 1, 69, 0
6, 254544, Note_on_c, 1, 70, 100
6, 254588, Note_off_c, 1, 70, 0
6, 254592, Note_on_c, 1, 69, 100
6, 254780, Note_off_c, 1, 69, 0
6, 254784, Note_on_c, 1, 67, 100
6, 254912, Note_off_c, 1, 67, 0
6, 254976, Note_on_c, 1, 67, 100
6, 255360, Note_off_c, 1, 67, 0
6, 255744, Note_on_c, 1, 74, 100
6, 255872, Note_off_c, 1, 74, 0
6, 255936, Note_on_c, 1, 72, 100
6, 256064, Note_off_c, 1, 72, 0
6, 256128, Note_on_c, 1, 71, 100
6, 256316, Note_off_c, 1, 71, 0
6, 256320, Note_on_c, 1, 69, 100
6, 256508, Note_off_c, 1, 69, 0
6, 256512, Note_on_c, 1, 67, 100
6, 256700, Note_off_c, 1, 67, 0
6, 256704, Note_on_c, 1, 72, 100
6, 256748, Note_off_c, 1, 72, 0
6, 256752, Note_on_c, 1, 71, 100
6, 256796, Note_off_c, 1, 71, 0
6, 256800, Note_on_c, 1, 72, 100
6, 256844, Note_off_c, 1, 72, 0
6, 256848, Note_on_c, 1, 71, 100
6, 256892, Note_off_c, 1, 71, 0
6, 256896, Note_on_c, 1, 72, 100
6, 256940, Note_off_c, 1, 72, 0
6, 256944, Note_on_c, 1, 71, 100
6, 257036, Note_off_c, 1, 71, 0
6, 257088, Note_on_c, 1, 72, 100
6, 257276, Note_off_c, 1, 72, 0
6, 257280, Note_on_c, 1, 72, 100
6, 257852, Note_off_c, 1, 72, 0
6, 258048, Note_on_c, 1, 75, 100
6, 258236, Note_off_c, 1, 75, 0
6, 258240, Note_on_c, 1, 74, 100
6, 258428, Note_off_c, 1, 74, 0
6, 258432, Note_on_c, 1, 73, 100
6, 258620, Note_off_c, 1, 73, 0
6, 258624, Note_on_c, 1, 71, 100
6, 258812, Note_off_c, 1, 71, 0
6, 258816, Note_on_c, 1, 69, 100
6, 259004, Note_off_c, 1, 69, 0
6, 259008, Note_on_c, 1, 74, 100
6, 259052, Note_off_c, 1, 74, 0
6, 259056, Note_on_c, 1, 73, 100
6, 259100, Note_off_c, 1, 73, 0
6, 259104, Note_on_c, 1, 74, 100
6, 259148, Note_off_c, 1, 74, 0
6, 259152, Note_on_c, 1, 73, 100
6, 259196, Note_off_c, 1, 73, 0
6, 259200, Note_on_c, 1, 74, 100
6, 259244, Note_off_c, 1, 74, 0
6, 259248, Note_on_c, 1, 73, 100
6, 259340, Note_off_c, 1, 73, 0
6, 259392, Note_on_c, 1, 74, 100
6, 259580, Note_off_c, 1, 74, 0
6, 259584, Note_on_c, 1, 74, 100
6, 260156, Note_off_c, 1, 74, 0
6, 260352, Note_on_c, 1, 77, 100
6, 260540, Note_off_c, 1, 77, 0
6, 260544, Note_on_c, 1, 75, 100
6, 260732, Note_off_c, 1, 75, 0
6, 260736, Note_on_c, 1, 74, 100
6, 260924, Note_off_c, 1, 74, 0
6, 260928, Note_on_c, 1, 72, 100
6, 261116, Note_off_c, 1, 72, 0
6, 261120, Note_on_c, 1, 70, 100
6, 261308, Note_off_c, 1, 70, 0
6, 261312, Note_on_c, 1, 70, 100
6, 261356, Note_off_c, 1, 70, 0
6, 261360, Note_on_c, 1, 69, 100
6, 261404, Note_off_c, 1, 69, 0
6, 261408, Note_on_c, 1, 70, 100
6, 261452, Note_off_c, 1, 70, 0
6, 261456, Note_on_c, 1, 69, 100
6, 261500, Note_off_c, 1, 69, 0
6, 261504, Note_on_c, 1, 70, 100
6, 261548, Note_off_c, 1, 70, 0
6, 261552, Note_on_c, 1, 69, 100
6, 261644, Note_off_c, 1, 69, 0
6, 261696, Note_on_c, 1, 70, 100
6, 261884, Note_off_c, 1, 70, 0
6, 261884, End_track
7, 0, Start_track
7, 0, Title_t, "Manual 2 LH"
7, 0, Control_c, 1, 0, 0
7, 0, Program_c, 1, 6
7, 0, Control_c, 1, 7, 93
7, 0, Key_signature, 0, "major"
7, 9408, Note_on_c, 1, 46, 78
7, 9500, Note_off_c, 1, 46, 0
7, 9504, Note_on_c, 1, 48, 78
7, 9596, Note_off_c, 1, 48, 0
7, 9600, Note_on_c, 1, 50, 78
7, 9788, Note_off_c, 1, 50, 0
7, 9792, Note_on_c, 1, 53, 78
7, 9980, Note_off_c, 1, 53, 0
7, 9984, Note_on_c, 1, 50, 78
7, 10172, Note_off_c, 1, 50, 0
7, 10176, Note_on_c, 1, 46, 78
7, 10364, Note_off_c, 1, 46, 0
7, 10368, Note_on_c, 1, 41, 78
7, 10748, Note_off_c, 1, 41, 0
7, 10944, Note_on_c, 1, 41, 78
7, 11132, Note_off_c, 1, 41, 0
7, 11136, Note_on_c, 1, 46, 78
7, 11324, Note_off_c, 1, 46, 0
7, 11328, Note_on_c, 1, 50, 78
7, 11516, Note_off_c, 1, 50, 0
7, 11520, Note_on_c, 1, 39, 78
7, 11708, Note_off_c, 1, 39, 0
7, 11712, Note_on_c, 1, 51, 78
7, 11804, Note_off_c, 1, 51, 0
7, 11808, Note_on_c, 1, 53, 78
7, 11900, Note_off_c, 1, 53, 0
7, 11904, Note_on_c, 1, 55, 78
7, 12092, Note_off_c, 1, 55, 0
7, 12096, Note_on_c, 1, 58, 78
7, 12284, Note_off_c, 1, 58, 0
7, 12288, Note_on_c, 1, 55, 78
7, 12476, Note_off_c, 1, 55, 0
7, 12480, Note_on_c, 1, 51, 78
7, 12668, Note_off_c, 1, 51, 0
7, 12672, Note_on_c, 1, 41, 78
7, 12860, Note_off_c, 1, 41, 0
7, 12864, Note_on_c, 1, 53, 78
7, 12956, Note_off_c, 1, 53, 0
7, 12960, Note_on_c, 1, 55, 78
7, 13052, Note_off_c, 1, 55, 0
7, 13056, Note_on_c, 1, 57, 78
7, 13244, Note_off_c, 1, 57, 0
7, 13248, Note_on_c, 1, 60, 78
7, 13436, Note_off_c, 1, 60, 0
7, 13440, Note_on_c, 1, 57, 78
7, 13628, Note_off_c, 1, 57, 0
7, 13632, Note_on_c, 1, 53, 78
7, 13820, Note_off_c, 1, 53, 0
7, 13824, Note_on_c, 1, 43, 78
7, 14012, Note_off_c, 1, 43, 0
7, 14016, Note_on_c, 1, 55, 78
7, 14108, Note_off_c, 1, 55, 0
7, 14112, Note_on_c, 1, 57, 78
7, 14204, Note_off_c, 1, 57, 0
7, 14208, Note_on_c, 1, 58, 78
7, 14396, Note_off_c, 1, 58, 0
7, 14400, Note_on_c, 1, 62, 78
7, 14588, Note_off_c, 1, 62, 0
7, 14592, Note_on_c, 1, 58, 78
7, 14780, Note_off_c, 1, 58, 0
7, 14784, Note_on_c, 1, 55, 78
7, 14972, Note_off_c, 1, 55, 0
7, 14976, Note_on_c, 1, 45, 78
7, 15164, Note_off_c, 1, 45, 0
7, 15168, Note_on_c, 1, 57, 78
7, 15260, Note_off_c, 1, 57, 0
7, 15264, Note_on_c, 1, 58, 78
7, 15356, Note_off_c, 1, 58, 0
7, 15360, Note_on_c, 1, 60, 78
7, 15548, Note_off_c, 1, 60, 0
7, 15552, Note_on_c, 1, 63, 78
7, 15740, Note_off_c, 1, 63, 0
7, 15744, Note_on_c, 1, 60, 78
7, 15932, Note_off_c, 1, 60, 0
7, 15936, Note_on_c, 1, 57, 78
7, 16124, Note_off_c, 1, 57, 0
7, 16128, Note_on_c, 1, 58, 78
7, 16220, Note_off_c, 1, 58, 0
7, 16224, Note_on_c, 1, 60, 78
7, 16316, Note_off_c, 1, 60, 0
7, 16320, Note_on_c, 1, 58, 78
7, 16412, Note_off_c, 1, 58, 0
7, 16416, Note_on_c, 1, 56, 78
7, 16508, Note_off_c, 1, 56, 0
7, 16512, Note_on_c, 1, 55, 78
7, 16604, Note_off_c, 1, 55, 0
7, 16608, Note_on_c, 1, 53, 78
7, 16700, Note_off_c, 1, 53, 0
7, 16704, Note_on_c, 1, 51, 78
7, 16796, Note_off_c, 1, 51, 0
7, 16800, Note_on_c, 1, 53, 78
7, 16892, Note_off_c, 1, 53, 0
7, 16896, Note_on_c, 1, 55, 78
7, 16988, Note_off_c, 1, 55, 0
7, 16992, Note_on_c, 1, 53, 78
7, 17084, Note_off_c, 1, 53, 0
7, 17088, Note_on_c, 1, 55, 78
7, 17180, Note_off_c, 1, 55, 0
7, 17184, Note_on_c, 1, 51, 78
7, 17276, Note_off_c, 1, 51, 0
7, 17280, Note_on_c, 1, 53, 78
7, 17468, Note_off_c, 1, 53, 0
7, 17472, Note_on_c, 1, 41, 78
7, 17660, Note_off_c, 1, 41, 0
7, 17856, Note_on_c, 1, 53, 78
7, 18044, Note_off_c, 1, 53, 0
7, 18048, Note_on_c, 1, 48, 78
7, 18236, Note_off_c, 1, 48, 0
7, 18240, Note_on_c, 1, 53, 78
7, 18428, Note_off_c, 1, 53, 0
7, 18432, Note_on_c, 1, 50, 78
7, 18620, Note_off_c, 1, 50, 0
7, 18624, Note_on_c, 1, 46, 78
7, 18812, Note_off_c, 1, 46, 0
7, 19008, Note_on_c, 1, 50, 78
7, 19196, Note_off_c, 1, 50, 0
7, 19200, Note_on_c, 1, 46, 78
7, 19388, Note_off_c, 1, 46, 0
7, 19392, Note_on_c, 1, 50, 78
7, 19580, Note_off_c, 1, 50, 0
7, 19584, Note_on_c, 1, 53, 78
7, 19772, Note_off_c, 1, 53, 0
7, 19776, Note_on_c, 1, 41, 78
7, 19964, Note_off_c, 1, 41, 0
7, 20160, Note_on_c, 1, 53, 78
7, 20348, Note_off_c, 1, 53, 0
7, 20352, Note_on_c, 1, 50, 78
7, 20540, Note_off_c, 1, 50, 0
7, 20544, Note_on_c, 1, 53, 78
7, 20732, Note_off_c, 1, 53, 0
7, 20736, Note_on_c, 1, 55, 78
7, 20924, Note_off_c, 1, 55, 0
7, 20928, Note_on_c, 1, 43, 78
7, 21116, Note_off_c, 1, 43, 0
7, 21312, Note_on_c, 1, 55, 78
7, 21500, Note_off_c, 1, 55, 0
7, 21504, Note_on_c, 1, 50, 78
7, 21692, Note_off_c, 1, 50, 0
7, 21696, Note_on_c, 1, 55, 78
7, 21884, Note_off_c, 1, 55, 0
7, 21888, Note_on_c, 1, 51, 78
7, 22076, Note_off_c, 1, 51, 0
7, 22080, Note_on_c, 1, 48, 78
7, 22268, Note_off_c, 1, 48, 0
7, 22464, Note_on_c, 1, 51, 78
7, 22652, Note_off_c, 1, 51, 0
7, 22656, Note_on_c, 1, 48, 78
7, 22844, Note_off_c, 1, 48, 0
7, 22848, Note_on_c, 1, 51, 78
7, 23036, Note_off_c, 1, 51, 0
7, 23040, Note_on_c, 1, 57, 78
7, 23228, Note_off_c, 1, 57, 0
7, 23232, Note_on_c, 1, 45, 78
7, 23420, Note_off_c, 1, 45, 0
7, 23616, Note_on_c, 1, 57, 78
7, 23804, Note_off_c, 1, 57, 0
7, 23808, Note_on_c, 1, 52, 78
7, 23996, Note_off_c, 1, 52, 0
7, 24000, Note_on_c, 1, 57, 78
7, 24188, Note_off_c, 1, 57, 0
7, 24192, Note_on_c, 1, 54, 78
7, 24380, Note_off_c, 1, 54, 0
7, 24384, Note_on_c, 1, 50, 78
7, 24572, Note_off_c, 1, 50, 0
7, 24768, Note_on_c, 1, 54, 78
7, 24956, Note_off_c, 1, 54, 0
7, 24960, Note_on_c, 1, 50, 78
7, 25148, Note_off_c, 1, 50, 0
7, 25152, Note_on_c, 1, 54, 78
7, 25340, Note_off_c, 1, 54, 0
7, 25344, Note_on_c, 1, 55, 78
7, 25532, Note_off_c, 1, 55, 0
7, 25536, Note_on_c, 1, 43, 78
7, 25724, Note_off_c, 1, 43, 0
7, 25920, Note_on_c, 1, 46, 78
7, 26108, Note_off_c, 1, 46, 0
7, 26112, Note_on_c, 1, 43, 78
7, 26300, Note_off_c, 1, 43, 0
7, 26304, Note_on_c, 1, 46, 78
7, 26492, Note_off_c, 1, 46, 0
7, 26496, Note_on_c, 1, 48, 78
7, 26876, Note_off_c, 1, 48, 0
7, 27072, Note_on_c, 1, 48, 78
7, 27260, Note_off_c, 1, 48, 0
7, 27264, Note_on_c, 1, 45, 78
7, 27452, Note_off_c, 1, 45, 0
7, 27456, Note_on_c, 1, 48, 78
7, 27644, Note_off_c, 1, 48, 0
7, 27648, Note_on_c, 1, 50, 78
7, 28028, Note_off_c, 1, 50, 0
7, 28224, Note_on_c, 1, 50, 78
7, 28412, Note_off_c, 1, 50, 0
7, 28416, Note_on_c, 1, 38, 78
7, 28604, Note_off_c, 1, 38, 0
7, 28608, Note_on_c, 1, 50, 78
7, 28796, Note_off_c, 1, 50, 0
7, 28800, Note_on_c, 1, 43, 78
7, 29180, Note_off_c, 1, 43, 0
7, 41472, Note_on_c, 1, 59, 78
7, 41660, Note_off_c, 1, 59, 0
7, 41664, Note_on_c, 1, 55, 78
7, 41756, Note_off_c, 1, 55, 0
7, 41760, Note_on_c, 1, 57, 78
7, 41852, Note_off_c, 1, 57, 0
7, 41856, Note_on_c, 1, 59, 78
7, 42044, Note_off_c, 1, 59, 0
7, 42048, Note_on_c, 1, 62, 78
7, 42236, Note_off_c, 1, 62, 0
7, 42240, Note_on_c, 1, 59, 78
7, 42428, Note_off_c, 1, 59, 0
7, 42432, Note_on_c, 1, 55, 78
7, 42620, Note_off_c, 1, 55, 0
7, 42624, Note_on_c, 1, 48, 78
7, 42812, Note_off_c, 1, 48, 0
7, 42816, Note_on_c, 1, 60, 78
7, 42908, Note_off_c, 1, 60, 0
7, 42912, Note_on_c, 1, 62, 78
7, 43004, Note_off_c, 1, 62, 0
7, 43776, Note_on_c, 1, 57, 78
7, 43964, Note_off_c, 1, 57, 0
7, 43968, Note_on_c, 1, 53, 78
7, 44060, Note_off_c, 1, 53, 0
7, 44064, Note_on_c, 1, 55, 78
7, 44156, Note_off_c, 1, 55, 0
7, 44160, Note_on_c, 1, 57, 78
7, 44348, Note_off_c, 1, 57, 0
7, 44352, Note_on_c, 1, 60, 78
7, 44540, Note_off_c, 1, 60, 0
7, 44544, Note_on_c, 1, 57, 78
7, 44732, Note_off_c, 1, 57, 0
7, 44736, Note_on_c, 1, 53, 78
7, 44924, Note_off_c, 1, 53, 0
7, 44928, Note_on_c, 1, 46, 78
7, 45116, Note_off_c, 1, 46, 0
7, 45120, Note_on_c, 1, 58, 78
7, 45212, Note_off_c, 1, 58, 0
7, 45216, Note_on_c, 1, 60, 78
7, 45308, Note_off_c, 1, 60, 0
7, 45312, Note_on_c, 1, 61, 78
7, 45500, Note_off_c, 1, 61, 0
7, 45504, Note_on_c, 1, 65, 78
7, 45692, Note_off_c, 1, 65, 0
7, 45696, Note_on_c, 1, 61, 78
7, 45884, Note_off_c, 1, 61, 0
7, 45888, Note_on_c, 1, 58, 78
7, 46076, Note_off_c, 1, 58, 0
7, 46080, Note_on_c, 1, 55, 78
7, 46268, Note_off_c, 1, 55, 0
7, 46272, Note_on_c, 1, 51, 78
7, 46364, Note_off_c, 1, 51, 0
7, 46368, Note_on_c, 1, 53, 78
7, 46460, Note_off_c, 1, 53, 0
7, 46464, Note_on_c, 1, 55, 78
7, 46652, Note_off_c, 1, 55, 0
7, 46656, Note_on_c, 1, 58, 78
7, 46844, Note_off_c, 1, 58, 0
7, 46848, Note_on_c, 1, 55, 78
7, 47036, Note_off_c, 1, 55, 0
7, 47040, Note_on_c, 1, 51, 78
7, 47228, Note_off_c, 1, 51, 0
7, 47232, Note_on_c, 1, 44, 78
7, 47420, Note_off_c, 1, 44, 0
7, 47424, Note_on_c, 1, 56, 78
7, 47516, Note_off_c, 1, 56, 0
7, 47520, Note_on_c, 1, 58, 78
7, 47612, Note_off_c, 1, 58, 0
7, 47616, Note_on_c, 1, 60, 78
7, 47804, Note_off_c, 1, 60, 0
7, 47808, Note_on_c, 1, 63, 78
7, 47996, Note_off_c, 1, 63, 0
7, 48000, Note_on_c, 1, 60, 78
7, 48188, Note_off_c, 1, 60, 0
7, 48192, Note_on_c, 1, 56, 78
7, 48380, Note_off_c, 1, 56, 0
7, 48384, Note_on_c, 1, 54, 78
7, 48572, Note_off_c, 1, 54, 0
7, 48576, Note_on_c, 1, 50, 78
7, 48668, Note_off_c, 1, 50, 0
7, 48672, Note_on_c, 1, 52, 78
7, 48764, Note_off_c, 1, 52, 0
7, 48768, Note_on_c, 1, 54, 78
7, 48956, Note_off_c, 1, 54, 0
7, 48960, Note_on_c, 1, 57, 78
7, 49148, Note_off_c, 1, 57, 0
7, 49152, Note_on_c, 1, 54, 78
7, 49340, Note_off_c, 1, 54, 0
7, 49344, Note_on_c, 1, 50, 78
7, 49532, Note_off_c, 1, 50, 0
7, 49536, Note_on_c, 1, 43, 78
7, 49724, Note_off_c, 1, 43, 0
7, 49728, Note_on_c, 1, 51, 78
7, 49820, Note_off_c, 1, 51, 0
7, 49824, Note_on_c, 1, 53, 78
7, 49916, Note_off_c, 1, 53, 0
7, 49920, Note_on_c, 1, 55, 78
7, 50108, Note_off_c, 1, 55, 0
7, 50112, Note_on_c, 1, 60, 78
7, 50300, Note_off_c, 1, 60, 0
7, 50304, Note_on_c, 1, 55, 78
7, 50492, Note_off_c, 1, 55, 0
7, 50496, Note_on_c, 1, 51, 78
7, 50684, Note_off_c, 1, 51, 0
7, 50688, Note_on_c, 1, 43, 78
7, 50876, Note_off_c, 1, 43, 0
7, 50880, Note_on_c, 1, 55, 78
7, 50972, Note_off_c, 1, 55, 0
7, 50976, Note_on_c, 1, 57, 78
7, 51068, Note_off_c, 1, 57, 0
7, 51072, Note_on_c, 1, 58, 78
7, 51260, Note_off_c, 1, 58, 0
7, 51264, Note_on_c, 1, 62, 78
7, 51452, Note_off_c, 1, 62, 0
7, 51456, Note_on_c, 1, 58, 78
7, 51644, Note_off_c, 1, 58, 0
7, 51648, Note_on_c, 1, 55, 78
7, 51836, Note_off_c, 1, 55, 0
7, 51840, Note_on_c, 1, 52, 78
7, 52028, Note_off_c, 1, 52, 0
7, 52032, Note_on_c, 1, 61, 78
7, 52124, Note_off_c, 1, 61, 0
7, 52128, Note_on_c, 1, 62, 78
7, 52220, Note_off_c, 1, 62, 0
7, 52224, Note_on_c, 1, 64, 78
7, 52412, Note_off_c, 1, 64, 0
7, 52416, Note_on_c, 1, 67, 78
7, 52604, Note_off_c, 1, 67, 0
7, 52608, Note_on_c, 1, 64, 78
7, 52796, Note_off_c, 1, 64, 0
7, 52800, Note_on_c, 1, 61, 78
7, 52988, Note_off_c, 1, 61, 0
7, 52992, Note_on_c, 1, 57, 78
7, 53180, Note_off_c, 1, 57, 0
7, 53184, Note_on_c, 1, 49, 78
7, 53276, Note_off_c, 1, 49, 0
7, 53280, Note_on_c, 1, 50, 78
7, 53372, Note_off_c, 1, 50, 0
7, 53376, Note_on_c, 1, 52, 78
7, 53564, Note_off_c, 1, 52, 0
7, 53568, Note_on_c, 1, 55, 78
7, 53756, Note_off_c, 1, 55, 0
7, 53760, Note_on_c, 1, 52, 78
7, 53948, Note_off_c, 1, 52, 0
7, 53952, Note_on_c, 1, 49, 78
7, 54140, Note_off_c, 1, 49, 0
7, 54144, Note_on_c, 1, 38, 78
7, 54332, Note_off_c, 1, 38, 0
7, 54336, Note_on_c, 1, 50, 78
7, 54428, Note_off_c, 1, 50, 0
7, 54432, Note_on_c, 1, 52, 78
7, 54524, Note_off_c, 1, 52, 0
7, 54528, Note_on_c, 1, 53, 78
7, 54716, Note_off_c, 1, 53, 0
7, 54720, Note_on_c, 1, 57, 78
7, 54908, Note_off_c, 1, 57, 0
7, 54912, Note_on_c, 1, 53, 78
7, 55100, Note_off_c, 1, 53, 0
7, 55104, Note_on_c, 1, 50, 78
7, 55292, Note_off_c, 1, 50, 0
7, 55296, Note_on_c, 1, 51, 78
7, 55484, Note_off_c, 1, 51, 0
7, 55488, Note_on_c, 1, 63, 78
7, 55580, Note_off_c, 1, 63, 0
7, 55584, Note_on_c, 1, 65, 78
7, 55676, Note_off_c, 1, 65, 0
7, 55680, Note_on_c, 1, 67, 78
7, 55868, Note_off_c, 1, 67, 0
7, 55872, Note_on_c, 1, 70, 78
7, 56060, Note_off_c, 1, 70, 0
7, 56064, Note_on_c, 1, 67, 78
7, 56252, Note_off_c, 1, 67, 0
7, 56256, Note_on_c, 1, 63, 78
7, 56444, Note_off_c, 1, 63, 0
7, 56448, Note_on_c, 1, 57, 78
7, 56636, Note_off_c, 1, 57, 0
7, 56640, Note_on_c, 1, 45, 78
7, 56732, Note_off_c, 1, 45, 0
7, 56736, Note_on_c, 1, 46, 78
7, 56828, Note_off_c, 1, 46, 0
7, 56832, Note_on_c, 1, 48, 78
7, 57020, Note_off_c, 1, 48, 0
7, 57024, Note_on_c, 1, 51, 78
7, 57212, Note_off_c, 1, 51, 0
7, 57216, Note_on_c, 1, 48, 78
7, 57404, Note_off_c, 1, 48, 0
7, 57408, Note_on_c, 1, 45, 78
7, 57596, Note_off_c, 1, 45, 0
7, 57600, Note_on_c, 1, 50, 78
7, 57788, Note_off_c, 1, 50, 0
7, 57792, Note_on_c, 1, 62, 78
7, 57884, Note_off_c, 1, 62, 0
7, 57888, Note_on_c, 1, 63, 78
7, 57980, Note_off_c, 1, 63, 0
7, 57984, Note_on_c, 1, 66, 78
7, 58172, Note_off_c, 1, 66, 0
7, 58176, Note_on_c, 1, 69, 78
7, 58364, Note_off_c, 1, 69, 0
7, 58368, Note_on_c, 1, 66, 78
7, 58556, Note_off_c, 1, 66, 0
7, 58560, Note_on_c, 1, 62, 78
7, 58748, Note_off_c, 1, 62, 0
7, 58752, Note_on_c, 1, 55, 78
7, 58940, Note_off_c, 1, 55, 0
7, 58944, Note_on_c, 1, 43, 78
7, 59036, Note_off_c, 1, 43, 0
7, 59040, Note_on_c, 1, 45, 78
7, 59132, Note_off_c, 1, 45, 0
7, 59136, Note_on_c, 1, 46, 78
7, 59324, Note_off_c, 1, 46, 0
7, 59328, Note_on_c, 1, 50, 78
7, 59516, Note_off_c, 1, 50, 0
7, 59520, Note_on_c, 1, 46, 78
7, 59708, Note_off_c, 1, 46, 0
7, 59712, Note_on_c, 1, 43, 78
7, 59900, Note_off_c, 1, 43, 0
7, 59904, Note_on_c, 1, 48, 78
7, 60092, Note_off_c, 1, 48, 0
7, 60096, Note_on_c, 1, 57, 78
7, 60188, Note_off_c, 1, 57, 0
7, 60192, Note_on_c, 1, 58, 78
7, 60284, Note_off_c, 1, 58, 0
7, 60288, Note_on_c, 1, 60, 78
7, 60476, Note_off_c, 1, 60, 0
7, 60480, Note_on_c, 1, 63, 78
7, 60668, Note_off_c, 1, 63, 0
7, 60672, Note_on_c, 1, 60, 78
7, 60860, Note_off_c, 1, 60, 0
7, 60864, Note_on_c, 1, 57, 78
7, 61052, Note_off_c, 1, 57, 0
7, 61056, Note_on_c, 1, 50, 78
7, 61244, Note_off_c, 1, 50, 0
7, 61248, Note_on_c, 1, 38, 78
7, 61340, Note_off_c, 1, 38, 0
7, 61344, Note_on_c, 1, 40, 78
7, 61436, Note_off_c, 1, 40, 0
7, 61440, Note_on_c, 1, 42, 78
7, 61628, Note_off_c, 1, 42, 0
7, 61632, Note_on_c, 1, 45, 78
7, 61820, Note_off_c, 1, 45, 0
7, 61824, Note_on_c, 1, 42, 78
7, 62012, Note_off_c, 1, 42, 0
7, 62016, Note_on_c, 1, 38, 78
7, 62204, Note_off_c, 1, 38, 0
7, 62208, Note_on_c, 1, 43, 78
7, 62588, Note_off_c, 1, 43, 0
7, 69312, Note_on_c, 1, 51, 78
7, 69404, Note_off_c, 1, 51, 0
7, 69408, Note_on_c, 1, 53, 78
7, 69500, Note_off_c, 1, 53, 0
7, 69504, Note_on_c, 1, 55, 78
7, 69692, Note_off_c, 1, 55, 0
7, 69696, Note_on_c, 1, 58, 78
7, 69884, Note_off_c, 1, 58, 0
7, 69888, Note_on_c, 1, 55, 78
7, 70076, Note_off_c, 1, 55, 0
7, 70080, Note_on_c, 1, 51, 78
7, 70268, Note_off_c, 1, 51, 0
7, 70464, Note_on_c, 1, 48, 78
7, 70556, Note_off_c, 1, 48, 0
7, 70560, Note_on_c, 1, 50, 78
7, 70652, Note_off_c, 1, 50, 0
7, 70656, Note_on_c, 1, 51, 78
7, 70844, Note_off_c, 1, 51, 0
7, 70848, Note_on_c, 1, 55, 78
7, 71036, Note_off_c, 1, 55, 0
7, 71040, Note_on_c, 1, 51, 78
7, 71228, Note_off_c, 1, 51, 0
7, 71232, Note_on_c, 1, 48, 78
7, 71420, Note_off_c, 1, 48, 0
7, 71616, Note_on_c, 1, 53, 78
7, 71708, Note_off_c, 1, 53, 0
7, 71712, Note_on_c, 1, 55, 78
7, 71804, Note_off_c, 1, 55, 0
7, 71808, Note_on_c, 1, 57, 78
7, 71996, Note_off_c, 1, 57, 0
7, 72000, Note_on_c, 1, 60, 78
7, 72188, Note_off_c, 1, 60, 0
7, 72192, Note_on_c, 1, 53, 78
7, 72380, Note_off_c, 1, 53, 0
7, 72384, Note_on_c, 1, 57, 78
7, 72572, Note_off_c, 1, 57, 0
7, 72576, Note_on_c, 1, 58, 78
7, 72764, Note_off_c, 1, 58, 0
7, 72768, Note_on_c, 1, 46, 78
7, 72956, Note_off_c, 1, 46, 0
7, 73152, Note_on_c, 1, 58, 78
7, 73340, Note_off_c, 1, 58, 0
7, 73344, Note_on_c, 1, 53, 78
7, 73532, Note_off_c, 1, 53, 0
7, 73536, Note_on_c, 1, 58, 78
7, 73724, Note_off_c, 1, 58, 0
7, 73728, Note_on_c, 1, 55, 78
7, 73916, Note_off_c, 1, 55, 0
7, 73920, Note_on_c, 1, 51, 78
7, 74108, Note_off_c, 1, 51, 0
7, 74304, Note_on_c, 1, 55, 78
7, 74492, Note_off_c, 1, 55, 0
7, 74496, Note_on_c, 1, 51, 78
7, 74684, Note_off_c, 1, 51, 0
7, 74688, Note_on_c, 1, 55, 78
7, 74876, Note_off_c, 1, 55, 0
7, 74880, Note_on_c, 1, 58, 78
7, 75068, Note_off_c, 1, 58, 0
7, 75072, Note_on_c, 1, 46, 78
7, 75260, Note_off_c, 1, 46, 0
7, 75456, Note_on_c, 1, 50, 78
7, 75644, Note_off_c, 1, 50, 0
7, 75648, Note_on_c, 1, 46, 78
7, 75836, Note_off_c, 1, 46, 0
7, 75840, Note_on_c, 1, 50, 78
7, 76028, Note_off_c, 1, 50, 0
7, 76032, Note_on_c, 1, 51, 78
7, 76220, Note_off_c, 1, 51, 0
7, 76224, Note_on_c, 1, 39, 78
7, 76412, Note_off_c, 1, 39, 0
7, 76608, Note_on_c, 1, 51, 78
7, 76796, Note_off_c, 1, 51, 0
7, 76800, Note_on_c, 1, 48, 78
7, 76988, Note_off_c, 1, 48, 0
7, 76992, Note_on_c, 1, 51, 78
7, 77180, Note_off_c, 1, 51, 0
7, 77184, Note_on_c, 1, 53, 78
7, 77372, Note_off_c, 1, 53, 0
7, 77376, Note_on_c, 1, 41, 78
7, 77564, Note_off_c, 1, 41, 0
7, 77760, Note_on_c, 1, 53, 78
7, 77948, Note_off_c, 1, 53, 0
7, 77952, Note_on_c, 1, 41, 78
7, 78140, Note_off_c, 1, 41, 0
7, 78144, Note_on_c, 1, 53, 78
7, 78332, Note_off_c, 1, 53, 0
7, 78336, Note_on_c, 1, 46, 78
7, 78716, Note_off_c, 1, 46, 0
7, 97344, Note_on_c, 1, 43, 100
7, 97344, Note_on_c, 1, 55, 100
7, 97532, Note_off_c, 1, 43, 0
7, 97532, Note_off_c, 1, 55, 0
7, 97536, Note_on_c, 1, 50, 100
7, 97536, Note_on_c, 1, 57, 100
7, 97628, Note_off_c, 1, 57, 0
7, 97632, Note_on_c, 1, 55, 100
7, 97676, Note_off_c, 1, 50, 0
7, 97724, Note_off_c, 1, 55, 0
7, 97728, Note_on_c, 1, 50, 100
7, 97728, Note_on_c, 1, 54, 100
7, 97820, Note_off_c, 1, 54, 0
7, 97824, Note_on_c, 1, 52, 100
7, 97868, Note_off_c, 1, 50, 0
7, 97916, Note_off_c, 1, 52, 0
7, 97920, Note_on_c, 1, 54, 100
7, 97920, Note_on_c, 1, 50, 100
7, 98108, Note_off_c, 1, 50, 0
7, 98112, Note_on_c, 1, 48, 100
7, 98204, Note_off_c, 1, 54, 0
7, 98204, Note_off_c, 1, 48, 0
7, 98208, Note_on_c, 1, 55, 100
7, 98208, Note_on_c, 1, 46, 100
7, 98300, Note_off_c, 1, 55, 0
7, 98300, Note_off_c, 1, 46, 0
7, 98304, Note_on_c, 1, 57, 100
7, 98304, Note_on_c, 1, 45, 100
7, 98432, Note_off_c, 1, 57, 0
7, 98492, Note_off_c, 1, 45, 0
7, 98496, Note_on_c, 1, 57, 100
7, 98592, Note_on_c, 1, 55, 100
7, 98624, Note_off_c, 1, 57, 0
7, 98656, Note_off_c, 1, 55, 0
7, 98688, Note_on_c, 1, 57, 100
7, 98688, Note_on_c, 1, 54, 100
7, 98876, Note_off_c, 1, 57, 0
7, 98876, Note_off_c, 1, 54, 0
7, 98880, Note_on_c, 1, 54, 100
7, 98880, Note_on_c, 1, 50, 100
7, 99068, Note_off_c, 1, 54, 0
7, 99068, Note_off_c, 1, 50, 0
7, 99072, Note_on_c, 1, 55, 100
7, 99200, Note_off_c, 1, 55, 0
7, 99264, Note_on_c, 1, 55, 100
7, 99360, Note_on_c, 1, 57, 100
7, 99392, Note_off_c, 1, 55, 0
7, 99452, Note_off_c, 1, 57, 0
7, 99456, Note_on_c, 1, 58, 100
7, 99456, Note_on_c, 1, 55, 100
7, 99548, Note_off_c, 1, 58, 0
7, 99552, Note_on_c, 1, 62, 100
7, 99584, Note_off_c, 1, 55, 0
7, 99644, Note_off_c, 1, 62, 0
7, 99648, Note_on_c, 1, 67, 100
7, 99648, Note_on_c, 1, 57, 100
7, 99712, Note_off_c, 1, 57, 0
7, 99744, Note_on_c, 1, 58, 100
7, 99808, Note_off_c, 1, 58, 0
7, 99836, Note_off_c, 1, 67, 0
7, 99840, Note_on_c, 1, 60, 100
7, 99968, Note_off_c, 1, 60, 0
7, 100032, Note_on_c, 1, 60, 100
7, 100160, Note_off_c, 1, 60, 0
7, 100224, Note_on_c, 1, 60, 100
7, 100352, Note_off_c, 1, 60, 0
7, 100416, Note_on_c, 1, 60, 100
7, 100544, Note_off_c, 1, 60, 0
7, 100608, Note_on_c, 1, 60, 100
7, 100608, Note_on_c, 1, 62, 100
7, 100796, Note_off_c, 1, 60, 0
7, 100800, Note_on_c, 1, 58, 100
7, 100892, Note_off_c, 1, 58, 0
7, 100896, Note_on_c, 1, 57, 100
7, 100988, Note_off_c, 1, 57, 0
7, 100992, Note_on_c, 1, 58, 100
7, 101180, Note_off_c, 1, 62, 0
7, 101180, Note_off_c, 1, 58, 0
7, 101184, Note_on_c, 1, 57, 100
7, 101184, Note_on_c, 1, 60, 100
7, 101372, Note_off_c, 1, 57, 0
7, 101372, Note_off_c, 1, 60, 0
7, 101376, Note_on_c, 1, 58, 100
7, 101376, Note_on_c, 1, 55, 100
7, 101564, Note_off_c, 1, 58, 0
7, 101564, Note_off_c, 1, 55, 0
7, 101568, Note_on_c, 1, 55, 100
7, 101568, Note_on_c, 1, 51, 100
7, 101756, Note_off_c, 1, 51, 0
7, 101760, Note_on_c, 1, 48, 100
7, 101948, Note_off_c, 1, 55, 0
7, 101948, Note_off_c, 1, 48, 0
7, 101952, Note_on_c, 1, 54, 100
7, 101952, Note_on_c, 1, 50, 100
7, 102140, Note_off_c, 1, 54, 0
7, 102140, Note_off_c, 1, 50, 0
7, 102144, Note_on_c, 1, 55, 100
7, 102240, Note_on_c, 1, 46, 100
7, 102332, Note_off_c, 1, 46, 0
7, 102336, Note_on_c, 1, 48, 100
7, 102428, Note_off_c, 1, 48, 0
7, 102432, Note_on_c, 1, 50, 100
7, 102524, Note_off_c, 1, 55, 0
7, 102524, Note_off_c, 1, 50, 0
7, 102528, Note_on_c, 1, 43, 100
7, 102716, Note_off_c, 1, 43, 0
7, 103488, Note_on_c, 1, 50, 100
7, 103584, Note_on_c, 1, 48, 100
7, 103676, Note_off_c, 1, 50, 0
7, 103676, Note_off_c, 1, 48, 0
7, 103680, Note_on_c, 1, 47, 100
7, 103680, Note_on_c, 1, 55, 100
7, 103772, Note_off_c, 1, 47, 0
7, 103776, Note_on_c, 1, 48, 100
7, 103808, Note_off_c, 1, 55, 0
7, 103868, Note_off_c, 1, 48, 0
7, 103872, Note_on_c, 1, 47, 100
7, 103872, Note_on_c, 1, 55, 100
7, 103964, Note_off_c, 1, 47, 0
7, 103968, Note_on_c, 1, 45, 100
7, 104000, Note_off_c, 1, 55, 0
7, 104060, Note_off_c, 1, 45, 0
7, 104064, Note_on_c, 1, 43, 100
7, 104064, Note_on_c, 1, 55, 100
7, 104192, Note_off_c, 1, 55, 0
7, 104252, Note_off_c, 1, 43, 0
7, 104256, Note_on_c, 1, 57, 100
7, 104320, Note_off_c, 1, 57, 0
7, 104352, Note_on_c, 1, 59, 100
7, 104416, Note_off_c, 1, 59, 0
7, 104448, Note_on_c, 1, 60, 100
7, 104636, Note_off_c, 1, 60, 0
7, 104640, Note_on_c, 1, 51, 100
7, 104828, Note_off_c, 1, 51, 0
7, 104832, Note_on_c, 1, 53, 100
7, 105020, Note_off_c, 1, 53, 0
7, 105024, Note_on_c, 1, 55, 100
7, 105212, Note_off_c, 1, 55, 0
7, 105216, Note_on_c, 1, 51, 100
7, 105216, Note_on_c, 1, 48, 100
7, 105308, Note_off_c, 1, 51, 0
7, 105308, Note_off_c, 1, 48, 0
7, 105312, Note_on_c, 1, 50, 100
7, 105404, Note_off_c, 1, 50, 0
7, 105408, Note_on_c, 1, 51, 100
7, 105408, Note_on_c, 1, 48, 100
7, 105500, Note_off_c, 1, 51, 0
7, 105500, Note_off_c, 1, 48, 0
7, 105504, Note_on_c, 1, 46, 100
7, 105596, Note_off_c, 1, 46, 0
7, 105600, Note_on_c, 1, 53, 100
7, 105600, Note_on_c, 1, 45, 100
7, 105788, Note_off_c, 1, 53, 0
7, 105788, Note_off_c, 1, 45, 0
7, 105792, Note_on_c, 1, 55, 100
7, 105884, Note_off_c, 1, 55, 0
7, 105888, Note_on_c, 1, 57, 100
7, 105980, Note_off_c, 1, 57, 0
7, 105984, Note_on_c, 1, 58, 100
7, 106172, Note_off_c, 1, 58, 0
7, 106176, Note_on_c, 1, 50, 100
7, 106364, Note_off_c, 1, 50, 0
7, 106368, Note_on_c, 1, 51, 100
7, 106556, Note_off_c, 1, 51, 0
7, 106560, Note_on_c, 1, 41, 100
7, 106560, Note_on_c, 1, 53, 100
7, 106748, Note_off_c, 1, 41, 0
7, 106748, Note_off_c, 1, 53, 0
7, 106752, Note_on_c, 1, 46, 100
7, 106940, Note_off_c, 1, 46, 0
7, 106944, Note_on_c, 1, 58, 100
7, 107036, Note_off_c, 1, 58, 0
7, 107040, Note_on_c, 1, 57, 100
7, 107132, Note_off_c, 1, 57, 0
7, 107136, Note_on_c, 1, 55, 100
7, 107324, Note_off_c, 1, 55, 0
7, 107328, Note_on_c, 1, 53, 100
7, 107420, Note_off_c, 1, 53, 0
7, 107424, Note_on_c, 1, 51, 100
7, 107516, Note_off_c, 1, 51, 0
7, 107520, Note_on_c, 1, 50, 100
7, 107616, Note_on_c, 1, 53, 100
7, 107708, Note_off_c, 1, 53, 0
7, 107712, Note_on_c, 1, 56, 100
7, 107804, Note_off_c, 1, 50, 0
7, 107808, Note_on_c, 1, 48, 100
7, 107900, Note_off_c, 1, 56, 0
7, 107900, Note_off_c, 1, 48, 0
7, 107904, Note_on_c, 1, 47, 100
7, 108000, Note_on_c, 1, 50, 100
7, 108092, Note_off_c, 1, 50, 0
7, 108096, Note_on_c, 1, 55, 100
7, 108188, Note_off_c, 1, 47, 0
7, 108192, Note_on_c, 1, 43, 100
7, 108284, Note_off_c, 1, 55, 0
7, 108284, Note_off_c, 1, 43, 0
7, 108288, Note_on_c, 1, 48, 100
7, 108476, Note_off_c, 1, 48, 0
7, 108480, Note_on_c, 1, 60, 100
7, 108572, Note_off_c, 1, 60, 0
7, 108576, Note_on_c, 1, 58, 100
7, 108668, Note_off_c, 1, 58, 0
7, 108672, Note_on_c, 1, 57, 100
7, 108860, Note_off_c, 1, 57, 0
7, 108864, Note_on_c, 1, 55, 100
7, 108956, Note_off_c, 1, 55, 0
7, 108960, Note_on_c, 1, 53, 100
7, 109052, Note_off_c, 1, 53, 0
7, 109056, Note_on_c, 1, 52, 100
7, 109152, Note_on_c, 1, 55, 100
7, 109244, Note_off_c, 1, 55, 0
7, 109248, Note_on_c, 1, 58, 100
7, 109340, Note_off_c, 1, 52, 0
7, 109344, Note_on_c, 1, 50, 100
7, 109436, Note_off_c, 1, 58, 0
7, 109436, Note_off_c, 1, 50, 0
7, 109440, Note_on_c, 1, 49, 100
7, 109536, Note_on_c, 1, 52, 100
7, 109628, Note_off_c, 1, 52, 0
7, 109632, Note_on_c, 1, 57, 100
7, 109724, Note_off_c, 1, 49, 0
7, 109728, Note_on_c, 1, 45, 100
7, 109820, Note_off_c, 1, 57, 0
7, 109820, Note_off_c, 1, 45, 0
7, 109824, Note_on_c, 1, 50, 100
7, 109916, Note_off_c, 1, 50, 0
7, 109920, Note_on_c, 1, 45, 100
7, 110012, Note_off_c, 1, 45, 0
7, 110016, Note_on_c, 1, 41, 100
7, 110108, Note_off_c, 1, 41, 0
7, 110112, Note_on_c, 1, 38, 100
7, 110204, Note_off_c, 1, 38, 0
7, 110208, Note_on_c, 1, 50, 100
7, 110300, Note_off_c, 1, 50, 0
7, 110304, Note_on_c, 1, 45, 100
7, 110396, Note_off_c, 1, 45, 0
7, 110400, Note_on_c, 1, 41, 100
7, 110492, Note_off_c, 1, 41, 0
7, 110496, Note_on_c, 1, 38, 100
7, 110588, Note_off_c, 1, 38, 0
7, 110592, Note_on_c, 1, 50, 100
7, 110720, Note_off_c, 1, 50, 0
7, 110784, Note_on_c, 1, 53, 100
7, 110784, Note_on_c, 1, 50, 100
7, 110912, Note_off_c, 1, 50, 0
7, 110972, Note_off_c, 1, 53, 0
7, 110976, Note_on_c, 1, 58, 100
7, 110976, Note_on_c, 1, 50, 100
7, 111104, Note_off_c, 1, 58, 0
7, 111104, Note_off_c, 1, 50, 0
7, 111168, Note_on_c, 1, 58, 100
7, 111168, Note_on_c, 1, 50, 100
7, 111296, Note_off_c, 1, 50, 0
7, 111360, Note_on_c, 1, 51, 100
7, 111424, Note_off_c, 1, 58, 0
7, 111456, Note_on_c, 1, 60, 100
7, 111488, Note_off_c, 1, 51, 0
7, 111520, Note_off_c, 1, 60, 0
7, 111552, Note_on_c, 1, 50, 100
7, 111552, Note_on_c, 1, 62, 100
7, 111616, Note_off_c, 1, 50, 0
7, 111648, Note_on_c, 1, 51, 100
7, 111680, Note_off_c, 1, 62, 0
7, 111712, Note_off_c, 1, 51, 0
7, 111744, Note_on_c, 1, 60, 100
7, 111744, Note_on_c, 1, 53, 100
7, 111932, Note_off_c, 1, 60, 0
7, 111932, Note_off_c, 1, 53, 0
7, 111936, Note_on_c, 1, 41, 100
7, 112124, Note_off_c, 1, 41, 0
7, 112128, Note_on_c, 1, 46, 100
7, 112220, Note_off_c, 1, 46, 0
7, 120768, Note_on_c, 1, 46, 100
7, 120956, Note_off_c, 1, 46, 0
7, 120960, Note_on_c, 1, 48, 100
7, 121148, Note_off_c, 1, 48, 0
7, 121152, Note_on_c, 1, 51, 100
7, 121340, Note_off_c, 1, 51, 0
7, 121344, Note_on_c, 1, 53, 100
7, 121532, Note_off_c, 1, 53, 0
7, 121536, Note_on_c, 1, 45, 100
7, 121724, Note_off_c, 1, 45, 0
7, 121728, Note_on_c, 1, 46, 100
7, 121916, Note_off_c, 1, 46, 0
7, 121920, Note_on_c, 1, 50, 100
7, 122108, Note_off_c, 1, 50, 0
7, 122112, Note_on_c, 1, 51, 100
7, 122300, Note_off_c, 1, 51, 0
7, 122304, Note_on_c, 1, 43, 100
7, 122492, Note_off_c, 1, 43, 0
7, 122496, Note_on_c, 1, 45, 100
7, 122684, Note_off_c, 1, 45, 0
7, 122688, Note_on_c, 1, 48, 100
7, 122876, Note_off_c, 1, 48, 0
7, 122880, Note_on_c, 1, 50, 100
7, 123068, Note_off_c, 1, 50, 0
7, 123072, Note_on_c, 1, 41, 100
7, 123260, Note_off_c, 1, 41, 0
7, 123264, Note_on_c, 1, 43, 100
7, 123452, Note_off_c, 1, 43, 0
7, 123456, Note_on_c, 1, 46, 100
7, 123644, Note_off_c, 1, 46, 0
7, 123648, Note_on_c, 1, 48, 100
7, 123836, Note_off_c, 1, 48, 0
7, 123840, Note_on_c, 1, 39, 100
7, 124028, Note_off_c, 1, 39, 0
7, 124032, Note_on_c, 1, 41, 100
7, 124220, Note_off_c, 1, 41, 0
7, 124224, Note_on_c, 1, 45, 100
7, 124412, Note_off_c, 1, 45, 0
7, 124416, Note_on_c, 1, 46, 100
7, 124508, Note_off_c, 1, 46, 0
7, 124608, Note_on_c, 1, 58, 100
7, 124700, Note_off_c, 1, 58, 0
7, 124704, Note_on_c, 1, 57, 100
7, 124796, Note_off_c, 1, 57, 0
7, 124800, Note_on_c, 1, 55, 100
7, 124892, Note_off_c, 1, 55, 0
7, 124896, Note_on_c, 1, 53, 100
7, 124988, Note_off_c, 1, 53, 0
7, 124992, Note_on_c, 1, 51, 100
7, 125084, Note_off_c, 1, 51, 0
7, 125088, Note_on_c, 1, 50, 100
7, 125180, Note_off_c, 1, 50, 0
7, 125184, Note_on_c, 1, 48, 100
7, 125372, Note_off_c, 1, 48, 0
7, 125376, Note_on_c, 1, 51, 100
7, 125468, Note_off_c, 1, 51, 0
7, 125472, Note_on_c, 1, 50, 100
7, 125564, Note_off_c, 1, 50, 0
7, 125568, Note_on_c, 1, 48, 100
7, 125660, Note_off_c, 1, 48, 0
7, 125664, Note_on_c, 1, 46, 100
7, 125756, Note_off_c, 1, 46, 0
7, 125760, Note_on_c, 1, 45, 100
7, 125852, Note_off_c, 1, 45, 0
7, 125856, Note_on_c, 1, 43, 100
7, 125948, Note_off_c, 1, 43, 0
7, 125952, Note_on_c, 1, 41, 100
7, 126044, Note_off_c, 1, 41, 0
7, 126144, Note_on_c, 1, 53, 100
7, 126236, Note_off_c, 1, 53, 0
7, 126240, Note_on_c, 1, 55, 100
7, 126332, Note_off_c, 1, 55, 0
7, 126336, Note_on_c, 1, 53, 100
7, 126428, Note_off_c, 1, 53, 0
7, 126432, Note_on_c, 1, 51, 100
7, 126524, Note_off_c, 1, 51, 0
7, 126528, Note_on_c, 1, 50, 100
7, 126620, Note_off_c, 1, 50, 0
7, 126624, Note_on_c, 1, 48, 100
7, 126716, Note_off_c, 1, 48, 0
7, 126720, Note_on_c, 1, 46, 100
7, 126908, Note_off_c, 1, 46, 0
7, 133248, Note_on_c, 1, 53, 100
7, 133436, Note_off_c, 1, 53, 0
7, 133632, Note_on_c, 1, 55, 100
7, 133820, Note_off_c, 1, 55, 0
7, 134016, Note_on_c, 1, 43, 100
7, 134204, Note_off_c, 1, 43, 0
7, 134400, Note_on_c, 1, 45, 100
7, 134528, Note_off_c, 1, 45, 0
7, 134784, Note_on_c, 1, 57, 100
7, 134912, Note_off_c, 1, 57, 0
7, 135168, Note_on_c, 1, 58, 100
7, 135296, Note_off_c, 1, 58, 0
7, 135552, Note_on_c, 1, 46, 100
7, 135680, Note_off_c, 1, 46, 0
7, 135936, Note_on_c, 1, 59, 100
7, 136124, Note_off_c, 1, 59, 0
7, 136320, Note_on_c, 1, 47, 100
7, 136508, Note_off_c, 1, 47, 0
7, 136704, Note_on_c, 1, 60, 100
7, 136892, Note_off_c, 1, 60, 0
7, 137088, Note_on_c, 1, 48, 100
7, 137276, Note_off_c, 1, 48, 0
7, 137472, Note_on_c, 1, 57, 100
7, 137660, Note_off_c, 1, 57, 0
7, 137856, Note_on_c, 1, 45, 100
7, 138044, Note_off_c, 1, 45, 0
7, 138240, Note_on_c, 1, 58, 100
7, 138428, Note_off_c, 1, 58, 0
7, 138624, Note_on_c, 1, 46, 100
7, 138812, Note_off_c, 1, 46, 0
7, 139008, Note_on_c, 1, 60, 100
7, 139196, Note_off_c, 1, 60, 0
7, 139392, Note_on_c, 1, 48, 100
7, 139580, Note_off_c, 1, 48, 0
7, 139776, Note_on_c, 1, 53, 100
7, 140032, Note_off_c, 1, 53, 0
7, 146304, Note_on_c, 1, 53, 100
7, 146560, Note_off_c, 1, 53, 0
7, 146688, Note_on_c, 1, 46, 100
7, 146944, Note_off_c, 1, 46, 0
7, 147456, Note_on_c, 1, 43, 100
7, 147712, Note_off_c, 1, 43, 0
7, 148224, Note_on_c, 1, 45, 100
7, 148480, Note_off_c, 1, 45, 0
7, 148992, Note_on_c, 1, 50, 100
7, 149248, Note_off_c, 1, 50, 0
7, 149760, Note_on_c, 1, 43, 100
7, 150016, Note_off_c, 1, 43, 0
7, 150528, Note_on_c, 1, 45, 100
7, 150784, Note_off_c, 1, 45, 0
7, 151296, Note_on_c, 1, 50, 100
7, 151552, Note_off_c, 1, 50, 0
7, 152064, Note_on_c, 1, 55, 100
7, 152320, Note_off_c, 1, 55, 0
7, 152832, Note_on_c, 1, 53, 100
7, 153088, Note_off_c, 1, 53, 0
7, 153600, Note_on_c, 1, 52, 100
7, 153856, Note_off_c, 1, 52, 0
7, 154368, Note_on_c, 1, 53, 100
7, 154624, Note_off_c, 1, 53, 0
7, 155136, Note_on_c, 1, 50, 100
7, 155392, Note_off_c, 1, 50, 0
7, 155904, Note_on_c, 1, 52, 100
7, 156160, Note_off_c, 1, 52, 0
7, 156672, Note_on_c, 1, 45, 100
7, 156928, Note_off_c, 1, 45, 0
7, 159936, Note_on_c, 1, 57, 100
7, 160124, Note_off_c, 1, 57, 0
7, 160128, Note_on_c, 1, 58, 100
7, 160316, Note_off_c, 1, 58, 0
7, 160320, Note_on_c, 1, 57, 100
7, 160508, Note_off_c, 1, 57, 0
7, 160512, Note_on_c, 1, 55, 100
7, 160700, Note_off_c, 1, 55, 0
7, 160704, Note_on_c, 1, 52, 100
7, 160892, Note_off_c, 1, 52, 0
7, 160896, Note_on_c, 1, 57, 100
7, 161084, Note_off_c, 1, 57, 0
7, 161088, Note_on_c, 1, 55, 100
7, 161276, Note_off_c, 1, 55, 0
7, 161280, Note_on_c, 1, 54, 100
7, 161468, Note_off_c, 1, 54, 0
7, 161472, Note_on_c, 1, 50, 100
7, 161660, Note_off_c, 1, 50, 0
7, 161664, Note_on_c, 1, 55, 100
7, 161852, Note_off_c, 1, 55, 0
7, 161856, Note_on_c, 1, 46, 100
7, 162044, Note_off_c, 1, 46, 0
7, 162048, Note_on_c, 1, 48, 100
7, 162236, Note_off_c, 1, 48, 0
7, 162240, Note_on_c, 1, 45, 100
7, 162428, Note_off_c, 1, 45, 0
7, 162432, Note_on_c, 1, 50, 100
7, 162620, Note_off_c, 1, 50, 0
7, 162624, Note_on_c, 1, 38, 100
7, 162812, Note_off_c, 1, 38, 0
7, 162816, Note_on_c, 1, 43, 100
7, 163072, Note_off_c, 1, 43, 0
7, 163200, Note_on_c, 1, 51, 100
7, 163580, Note_off_c, 1, 51, 0
7, 163584, Note_on_c, 1, 53, 100
7, 163964, Note_off_c, 1, 53, 0
7, 163968, Note_on_c, 1, 50, 100
7, 164348, Note_off_c, 1, 50, 0
7, 164352, Note_on_c, 1, 51, 100
7, 164732, Note_off_c, 1, 51, 0
7, 164736, Note_on_c, 1, 48, 100
7, 165116, Note_off_c, 1, 48, 0
7, 165120, Note_on_c, 1, 50, 100
7, 165500, Note_off_c, 1, 50, 0
7, 165504, Note_on_c, 1, 46, 100
7, 165884, Note_off_c, 1, 46, 0
7, 165888, Note_on_c, 1, 48, 100
7, 166268, Note_off_c, 1, 48, 0
7, 166272, Note_on_c, 1, 45, 100
7, 166652, Note_off_c, 1, 45, 0
7, 166656, Note_on_c, 1, 50, 100
7, 166784, Note_off_c, 1, 50, 0
7, 171456, Note_on_c, 1, 43, 100
7, 171584, Note_off_c, 1, 43, 0
7, 171648, Note_on_c, 1, 43, 100
7, 171776, Note_off_c, 1, 43, 0
7, 171840, Note_on_c, 1, 45, 100
7, 171968, Note_off_c, 1, 45, 0
7, 172032, Note_on_c, 1, 46, 100
7, 172220, Note_off_c, 1, 46, 0
7, 172224, Note_on_c, 1, 43, 100
7, 172412, Note_off_c, 1, 43, 0
7, 172416, Note_on_c, 1, 46, 100
7, 172604, Note_off_c, 1, 46, 0
7, 172608, Note_on_c, 1, 48, 100
7, 172796, Note_off_c, 1, 48, 0
7, 172800, Note_on_c, 1, 50, 100
7, 172988, Note_off_c, 1, 50, 0
7, 172992, Note_on_c, 1, 52, 100
7, 173084, Note_off_c, 1, 52, 0
7, 173088, Note_on_c, 1, 54, 100
7, 173180, Note_off_c, 1, 54, 0
7, 173184, Note_on_c, 1, 55, 100
7, 173276, Note_off_c, 1, 55, 0
7, 173280, Note_on_c, 1, 57, 100
7, 173372, Note_off_c, 1, 57, 0
7, 173376, Note_on_c, 1, 58, 100
7, 173468, Note_off_c, 1, 58, 0
7, 173472, Note_on_c, 1, 60, 100
7, 173564, Note_off_c, 1, 60, 0
7, 173568, Note_on_c, 1, 62, 100
7, 173756, Note_off_c, 1, 62, 0
7, 173760, Note_on_c, 1, 60, 100
7, 173948, Note_off_c, 1, 60, 0
7, 173952, Note_on_c, 1, 62, 100
7, 174140, Note_off_c, 1, 62, 0
7, 174144, Note_on_c, 1, 50, 100
7, 174332, Note_off_c, 1, 50, 0
7, 174336, Note_on_c, 1, 43, 100
7, 175484, Note_off_c, 1, 43, 0
7, 197952, Note_on_c, 1, 50, 100
7, 198208, Note_off_c, 1, 50, 0
7, 198528, Note_on_c, 1, 46, 100
7, 198908, Note_off_c, 1, 46, 0
7, 198912, Note_on_c, 1, 48, 100
7, 199100, Note_off_c, 1, 48, 0
7, 199104, Note_on_c, 1, 41, 100
7, 199484, Note_off_c, 1, 41, 0
7, 199680, Note_on_c, 1, 46, 100
7, 200060, Note_off_c, 1, 46, 0
7, 200256, Note_on_c, 1, 51, 100
7, 200636, Note_off_c, 1, 51, 0
7, 200832, Note_on_c, 1, 48, 100
7, 201212, Note_off_c, 1, 48, 0
7, 201216, Note_on_c, 1, 50, 100
7, 201404, Note_off_c, 1, 50, 0
7, 201408, Note_on_c, 1, 43, 100
7, 201788, Note_off_c, 1, 43, 0
7, 201984, Note_on_c, 1, 53, 100
7, 202240, Note_off_c, 1, 53, 0
7, 202560, Note_on_c, 1, 50, 100
7, 202816, Note_off_c, 1, 50, 0
7, 203136, Note_on_c, 1, 46, 100
7, 203516, Note_off_c, 1, 46, 0
7, 203520, Note_on_c, 1, 48, 100
7, 203708, Note_off_c, 1, 48, 0
7, 203712, Note_on_c, 1, 41, 100
7, 204092, Note_off_c, 1, 41, 0
7, 204288, Note_on_c, 1, 50, 100
7, 204668, Note_off_c, 1, 50, 0
7, 204864, Note_on_c, 1, 55, 100
7, 205244, Note_off_c, 1, 55, 0
7, 205440, Note_on_c, 1, 51, 100
7, 205820, Note_off_c, 1, 51, 0
7, 205824, Note_on_c, 1, 53, 100
7, 206012, Note_off_c, 1, 53, 0
7, 206016, Note_on_c, 1, 46, 100
7, 206396, Note_off_c, 1, 46, 0
7, 206592, Note_on_c, 1, 48, 100
7, 206972, Note_off_c, 1, 48, 0
7, 206976, Note_on_c, 1, 50, 100
7, 207164, Note_off_c, 1, 50, 0
7, 207168, Note_on_c, 1, 52, 100
7, 207548, Note_off_c, 1, 52, 0
7, 207552, Note_on_c, 1, 53, 100
7, 207740, Note_off_c, 1, 53, 0
7, 207744, Note_on_c, 1, 55, 100
7, 208124, Note_off_c, 1, 55, 0
7, 208128, Note_on_c, 1, 57, 100
7, 208316, Note_off_c, 1, 57, 0
7, 208320, Note_on_c, 1, 58, 100
7, 208508, Note_off_c, 1, 58, 0
7, 208512, Note_on_c, 1, 60, 100
7, 208700, Note_off_c, 1, 60, 0
7, 208704, Note_on_c, 1, 58, 100
7, 208892, Note_off_c, 1, 58, 0
7, 208896, Note_on_c, 1, 57, 100
7, 209276, Note_off_c, 1, 57, 0
7, 209280, Note_on_c, 1, 55, 100
7, 209468, Note_off_c, 1, 55, 0
7, 209472, Note_on_c, 1, 53, 100
7, 209660, Note_off_c, 1, 53, 0
7, 209664, Note_on_c, 1, 55, 100
7, 209852, Note_off_c, 1, 55, 0
7, 209856, Note_on_c, 1, 57, 100
7, 210044, Note_off_c, 1, 57, 0
7, 210048, Note_on_c, 1, 58, 100
7, 210236, Note_off_c, 1, 58, 0
7, 210240, Note_on_c, 1, 57, 100
7, 210428, Note_off_c, 1, 57, 0
7, 210432, Note_on_c, 1, 55, 100
7, 210620, Note_off_c, 1, 55, 0
7, 210624, Note_on_c, 1, 57, 100
7, 210812, Note_off_c, 1, 57, 0
7, 210816, Note_on_c, 1, 55, 100
7, 211004, Note_off_c, 1, 55, 0
7, 211008, Note_on_c, 1, 53, 100
7, 211196, Note_off_c, 1, 53, 0
7, 211200, Note_on_c, 1, 58, 100
7, 211388, Note_off_c, 1, 58, 0
7, 211392, Note_on_c, 1, 57, 100
7, 211580, Note_off_c, 1, 57, 0
7, 211584, Note_on_c, 1, 55, 100
7, 211712, Note_off_c, 1, 55, 0
7, 211776, Note_on_c, 1, 57, 100
7, 211964, Note_off_c, 1, 57, 0
7, 211968, Note_on_c, 1, 58, 100
7, 212156, Note_off_c, 1, 58, 0
7, 212160, Note_on_c, 1, 60, 100
7, 212348, Note_off_c, 1, 60, 0
7, 212352, Note_on_c, 1, 53, 100
7, 212540, Note_off_c, 1, 53, 0
7, 212544, Note_on_c, 1, 55, 100
7, 212732, Note_off_c, 1, 55, 0
7, 212736, Note_on_c, 1, 57, 100
7, 212924, Note_off_c, 1, 57, 0
7, 212928, Note_on_c, 1, 58, 100
7, 213116, Note_off_c, 1, 58, 0
7, 213120, Note_on_c, 1, 57, 100
7, 213308, Note_off_c, 1, 57, 0
7, 213312, Note_on_c, 1, 55, 100
7, 213500, Note_off_c, 1, 55, 0
7, 213504, Note_on_c, 1, 57, 100
7, 213760, Note_off_c, 1, 57, 0
7, 214080, Note_on_c, 1, 53, 100
7, 214080, Note_on_c, 1, 57, 100
7, 214336, Note_off_c, 1, 53, 0
7, 214336, Note_off_c, 1, 57, 0
7, 214656, Note_on_c, 1, 46, 100
7, 214656, Note_on_c, 1, 58, 100
7, 214912, Note_off_c, 1, 46, 0
7, 214912, Note_off_c, 1, 58, 0
7, 215232, Note_on_c, 1, 55, 100
7, 215232, Note_on_c, 1, 58, 100
7, 215488, Note_off_c, 1, 55, 0
7, 215488, Note_off_c, 1, 58, 0
7, 215808, Note_on_c, 1, 48, 100
7, 215808, Note_on_c, 1, 55, 100
7, 216064, Note_off_c, 1, 48, 0
7, 216064, Note_off_c, 1, 55, 0
7, 216384, Note_on_c, 1, 60, 100
7, 216384, Note_on_c, 1, 57, 100
7, 216640, Note_off_c, 1, 60, 0
7, 216640, Note_off_c, 1, 57, 0
7, 216960, Note_on_c, 1, 50, 100
7, 216960, Note_on_c, 1, 57, 100
7, 217216, Note_off_c, 1, 50, 0
7, 217216, Note_off_c, 1, 57, 0
7, 217536, Note_on_c, 1, 58, 100
7, 217536, Note_on_c, 1, 62, 100
7, 217792, Note_off_c, 1, 58, 0
7, 217792, Note_off_c, 1, 62, 0
7, 218112, Note_on_c, 1, 52, 100
7, 218112, Note_on_c, 1, 60, 100
7, 218368, Note_off_c, 1, 52, 0
7, 218368, Note_off_c, 1, 60, 0
7, 218688, Note_on_c, 1, 60, 100
7, 218688, Note_on_c, 1, 64, 100
7, 218944, Note_off_c, 1, 60, 0
7, 218944, Note_off_c, 1, 64, 0
7, 219264, Note_on_c, 1, 65, 100
7, 219264, Note_on_c, 1, 60, 100
7, 219264, Note_on_c, 1, 53, 100
7, 219520, Note_off_c, 1, 65, 0
7, 219520, Note_off_c, 1, 60, 0
7, 219520, Note_off_c, 1, 53, 0
7, 219840, Note_on_c, 1, 60, 100
7, 219840, Note_on_c, 1, 53, 100
7, 219840, Note_on_c, 1, 51, 100
7, 220096, Note_off_c, 1, 60, 0
7, 220096, Note_off_c, 1, 53, 0
7, 220096, Note_off_c, 1, 51, 0
7, 220416, Note_on_c, 1, 50, 100
7, 220604, Note_off_c, 1, 50, 0
7, 220608, Note_on_c, 1, 53, 100
7, 220796, Note_off_c, 1, 53, 0
7, 220800, Note_on_c, 1, 58, 100
7, 220988, Note_off_c, 1, 58, 0
7, 220992, Note_on_c, 1, 51, 100
7, 221180, Note_off_c, 1, 51, 0
7, 221184, Note_on_c, 1, 55, 100
7, 221372, Note_off_c, 1, 55, 0
7, 221376, Note_on_c, 1, 60, 100
7, 221564, Note_off_c, 1, 60, 0
7, 244608, Note_on_c, 1, 58, 100
7, 244736, Note_off_c, 1, 58, 0
7, 244800, Note_on_c, 1, 57, 100
7, 244928, Note_off_c, 1, 57, 0
7, 244992, Note_on_c, 1, 55, 100
7, 245120, Note_off_c, 1, 55, 0
7, 245184, Note_on_c, 1, 58, 100
7, 245312, Note_off_c, 1, 58, 0
7, 245376, Note_on_c, 1, 57, 100
7, 245504, Note_off_c, 1, 57, 0
7, 245568, Note_on_c, 1, 55, 100
7, 245696, Note_off_c, 1, 55, 0
7, 245760, Note_on_c, 1, 54, 100
7, 245888, Note_off_c, 1, 54, 0
7, 245952, Note_on_c, 1, 52, 100
7, 246080, Note_off_c, 1, 52, 0
7, 246144, Note_on_c, 1, 50, 100
7, 246272, Note_off_c, 1, 50, 0
7, 246336, Note_on_c, 1, 54, 100
7, 246464, Note_off_c, 1, 54, 0
7, 246528, Note_on_c, 1, 52, 100
7, 246656, Note_off_c, 1, 52, 0
7, 246720, Note_on_c, 1, 50, 100
7, 246848, Note_off_c, 1, 50, 0
7, 246912, Note_on_c, 1, 55, 100
7, 247100, Note_off_c, 1, 55, 0
7, 247104, Note_on_c, 1, 57, 100
7, 247232, Note_off_c, 1, 57, 0
7, 247296, Note_on_c, 1, 58, 100
7, 247424, Note_off_c, 1, 58, 0
7, 247488, Note_on_c, 1, 55, 100
7, 247676, Note_off_c, 1, 55, 0
7, 247680, Note_on_c, 1, 57, 100
7, 247808, Note_off_c, 1, 57, 0
7, 247872, Note_on_c, 1, 58, 100
7, 248000, Note_off_c, 1, 58, 0
7, 248064, Note_on_c, 1, 57, 100
7, 248252, Note_off_c, 1, 57, 0
7, 248256, Note_on_c, 1, 58, 100
7, 248444, Note_off_c, 1, 58, 0
7, 248448, Note_on_c, 1, 60, 100
7, 248576, Note_off_c, 1, 60, 0
7, 248640, Note_on_c, 1, 57, 100
7, 248828, Note_off_c, 1, 57, 0
7, 248832, Note_on_c, 1, 58, 100
7, 249020, Note_off_c, 1, 58, 0
7, 249024, Note_on_c, 1, 60, 100
7, 249152, Note_off_c, 1, 60, 0
7, 249216, Note_on_c, 1, 48, 100
7, 249216, Note_on_c, 1, 54, 100
7, 249788, Note_off_c, 1, 48, 0
7, 249788, Note_off_c, 1, 54, 0
7, 250368, Note_on_c, 1, 46, 100
7, 250748, Note_off_c, 1, 46, 0
7, 250752, Note_on_c, 1, 48, 100
7, 250940, Note_off_c, 1, 48, 0
7, 250944, Note_on_c, 1, 50, 100
7, 251132, Note_off_c, 1, 50, 0
7, 251136, Note_on_c, 1, 48, 100
7, 251324, Note_off_c, 1, 48, 0
7, 251328, Note_on_c, 1, 50, 100
7, 251516, Note_off_c, 1, 50, 0
7, 251520, Note_on_c, 1, 51, 100
7, 251708, Note_off_c, 1, 51, 0
7, 251712, Note_on_c, 1, 50, 100
7, 251900, Note_off_c, 1, 50, 0
7, 251904, Note_on_c, 1, 48, 100
7, 252092, Note_off_c, 1, 48, 0
7, 252096, Note_on_c, 1, 50, 100
7, 252284, Note_off_c, 1, 50, 0
7, 252288, Note_on_c, 1, 48, 100
7, 252476, Note_off_c, 1, 48, 0
7, 252480, Note_on_c, 1, 50, 100
7, 252668, Note_off_c, 1, 50, 0
7, 252672, Note_on_c, 1, 43, 100
7, 252860, Note_off_c, 1, 43, 0
7, 252864, Note_on_c, 1, 50, 100
7, 253052, Note_off_c, 1, 50, 0
7, 253056, Note_on_c, 1, 55, 100
7, 253244, Note_off_c, 1, 55, 0
7, 253248, Note_on_c, 1, 48, 100
7, 253436, Note_off_c, 1, 48, 0
7, 253440, Note_on_c, 1, 51, 100
7, 253628, Note_off_c, 1, 51, 0
7, 253632, Note_on_c, 1, 55, 100
7, 253820, Note_off_c, 1, 55, 0
7, 253824, Note_on_c, 1, 46, 100
7, 254012, Note_off_c, 1, 46, 0
7, 254016, Note_on_c, 1, 50, 100
7, 254204, Note_off_c, 1, 50, 0
7, 254208, Note_on_c, 1, 55, 100
7, 254396, Note_off_c, 1, 55, 0
7, 254400, Note_on_c, 1, 48, 100
7, 254592, Note_on_c, 1, 55, 100
7, 254780, Note_off_c, 1, 48, 0
7, 254780, Note_off_c, 1, 55, 0
7, 254784, Note_on_c, 1, 54, 100
7, 254784, Note_on_c, 1, 50, 100
7, 254972, Note_off_c, 1, 54, 0
7, 254972, Note_off_c, 1, 50, 0
7, 254976, Note_on_c, 1, 43, 100
7, 255104, Note_off_c, 1, 43, 0
7, 255168, Note_on_c, 1, 57, 100
7, 255296, Note_off_c, 1, 57, 0
7, 255360, Note_on_c, 1, 55, 100
7, 255488, Note_off_c, 1, 55, 0
7, 255552, Note_on_c, 1, 54, 100
7, 255680, Note_off_c, 1, 54, 0
7, 255744, Note_on_c, 1, 52, 100
7, 255872, Note_off_c, 1, 52, 0
7, 255936, Note_on_c, 1, 50, 100
7, 256064, Note_off_c, 1, 50, 0
7, 256128, Note_on_c, 1, 55, 100
7, 256508, Note_off_c, 1, 55, 0
7, 256512, Note_on_c, 1, 43, 100
7, 256700, Note_off_c, 1, 43, 0
7, 256896, Note_on_c, 1, 55, 100
7, 257084, Note_off_c, 1, 55, 0
7, 257088, Note_on_c, 1, 53, 100
7, 257276, Note_off_c, 1, 53, 0
7, 257280, Note_on_c, 1, 51, 100
7, 257468, Note_off_c, 1, 51, 0
7, 257472, Note_on_c, 1, 50, 100
7, 257660, Note_off_c, 1, 50, 0
7, 257664, Note_on_c, 1, 48, 100
7, 257852, Note_off_c, 1, 48, 0
7, 257856, Note_on_c, 1, 60, 100
7, 258044, Note_off_c, 1, 60, 0
7, 258048, Note_on_c, 1, 55, 100
7, 258236, Note_off_c, 1, 55, 0
7, 258240, Note_on_c, 1, 58, 100
7, 258428, Note_off_c, 1, 58, 0
7, 258432, Note_on_c, 1, 57, 100
7, 258812, Note_off_c, 1, 57, 0
7, 258816, Note_on_c, 1, 45, 100
7, 259004, Note_off_c, 1, 45, 0
7, 259200, Note_on_c, 1, 57, 100
7, 259388, Note_off_c, 1, 57, 0
7, 259392, Note_on_c, 1, 55, 100
7, 259580, Note_off_c, 1, 55, 0
7, 259584, Note_on_c, 1, 53, 100
7, 259772, Note_off_c, 1, 53, 0
7, 259776, Note_on_c, 1, 52, 100
7, 259964, Note_off_c, 1, 52, 0
7, 259968, Note_on_c, 1, 50, 100
7, 260156, Note_off_c, 1, 50, 0
7, 260160, Note_on_c, 1, 62, 100
7, 260348, Note_off_c, 1, 62, 0
7, 260352, Note_on_c, 1, 57, 100
7, 260540, Note_off_c, 1, 57, 0
7, 260544, Note_on_c, 1, 60, 100
7, 260732, Note_off_c, 1, 60, 0
7, 260736, Note_on_c, 1, 58, 100
7, 260924, Note_off_c, 1, 58, 0
7, 260928, Note_on_c, 1, 50, 100
7, 261116, Note_off_c, 1, 50, 0
7, 261120, Note_on_c, 1, 51, 100
7, 261308, Note_off_c, 1, 51, 0
7, 261312, Note_on_c, 1, 53, 100
7, 261500, Note_off_c, 1, 53, 0
7, 261504, Note_on_c, 1, 51, 100
7, 261692, Note_off_c, 1, 51, 0
7, 261696, Note_on_c, 1, 53, 100
7, 261884, Note_off_c, 1, 53, 0
7, 261884, End_track
8, 0, Start_track
8, 0, Title_t, "Sequenced & copyright 1997 by T.L. Hubeart Jr."
8, 0, End_track
0, 0, End_of_file
