0, 0, Header, 0, 1, 384
1, 0, Start_track
1, 0, Copyright_t, "(C) John Sankey 1998"
1, 0, Program_c, 0, 6
1, 0, Pitch_bend_c, 0, 8192
1, 0, Program_c, 1, 6
1, 0, Pitch_bend_c, 1, 7792
1, 0, Program_c, 2, 6
1, 0, Pitch_bend_c, 2, 7876
1, 0, Program_c, 3, 6
1, 0, Pitch_bend_c, 3, 7952
1, 0, Program_c, 4, 6
1, 0, Pitch_bend_c, 4, 7792
1, 0, Program_c, 5, 6
1, 0, Pitch_bend_c, 5, 8112
1, 0, Program_c, 6, 6
1, 0, Pitch_bend_c, 6, 7712
1, 0, Program_c, 7, 6
1, 0, Pitch_bend_c, 7, 8037
1, 0, Program_c, 8, 6
1, 0, Pitch_bend_c, 8, 7872
1, 0, Program_c, 10, 6
1, 0, Pitch_bend_c, 10, 7712
1, 0, Program_c, 11, 6
1, 0, Pitch_bend_c, 11, 8032
1, 0, Program_c, 12, 6
1, 0, Pitch_bend_c, 12, 7872
1, 0, Tempo, 500000
1, 206, Note_on_c, 0, 72, 127
1, 285, Note_on_c, 12, 71, 127
1, 328, Note_off_c, 0, 72, 127
1, 364, Note_on_c, 0, 72, 127
1, 401, Note_off_c, 12, 71, 127
1, 1136, Note_off_c, 0, 72, 127
1, 1355, Note_on_c, 7, 67, 127
1, 1462, Note_off_c, 7, 67, 127
1, 1466, Note_on_c, 10, 69, 127
1, 1573, Note_off_c, 10, 69, 127
1, 1577, Note_on_c, 12, 71, 127
1, 1684, Note_off_c, 12, 71, 127
1, 1688, Note_on_c, 0, 72, 127
1, 1797, Note_off_c, 0, 72, 127
1, 1799, Note_on_c, 2, 74, 127
1, 1906, Note_off_c, 2, 74, 127
1, 1908, Note_on_c, 3, 75, 127
1, 2015, Note_off_c, 3, 75, 127
1, 2019, Note_on_c, 5, 77, 127
1, 2126, Note_off_c, 5, 77, 127
1, 2130, Note_on_c, 3, 75, 127
1, 2237, Note_off_c, 3, 75, 127
1, 2241, Note_on_c, 2, 74, 127
1, 2348, Note_on_c, 3, 75, 127
1, 2350, Note_off_c, 2, 74, 127
1, 2455, Note_off_c, 3, 75, 127
1, 2464, Note_on_c, 0, 72, 127
1, 2601, Note_off_c, 0, 72, 127
1, 2618, Note_on_c, 8, 80, 127
1, 2772, Note_off_c, 8, 80, 127
1, 2774, Note_on_c, 7, 79, 127
1, 2881, Note_off_c, 7, 79, 127
1, 2885, Note_on_c, 5, 77, 127
1, 2992, Note_off_c, 5, 77, 127
1, 2996, Note_on_c, 7, 79, 127
1, 3103, Note_off_c, 7, 79, 127
1, 3107, Note_on_c, 5, 77, 127
1, 3214, Note_off_c, 5, 77, 127
1, 3218, Note_on_c, 7, 79, 127
1, 3325, Note_off_c, 7, 79, 127
1, 3327, Note_on_c, 8, 80, 127
1, 3546, Note_off_c, 8, 80, 127
1, 3606, Note_on_c, 12, 71, 127
1, 3713, Note_off_c, 12, 71, 127
1, 3717, Note_on_c, 0, 72, 127
1, 3824, Note_off_c, 0, 72, 127
1, 3828, Note_on_c, 12, 71, 127
1, 3935, Note_off_c, 12, 71, 127
1, 3937, Note_on_c, 0, 72, 127
1, 4044, Note_off_c, 0, 72, 127
1, 4057, Note_on_c, 2, 74, 127
1, 4111, Note_off_c, 2, 74, 127
1, 4113, Note_on_c, 0, 72, 127
1, 4167, Note_off_c, 0, 72, 127
1, 4169, Note_on_c, 2, 74, 127
1, 4223, Note_off_c, 2, 74, 127
1, 4234, Note_on_c, 0, 72, 127
1, 4463, Note_off_c, 0, 72, 127
1, 4487, Note_on_c, 12, 71, 127
1, 4608, Note_on_c, 0, 72, 127
1, 4616, Note_off_c, 12, 71, 127
1, 4929, Note_on_c, 2, 74, 127
1, 4936, Note_off_c, 0, 72, 127
1, 5030, Note_off_c, 2, 74, 127
1, 5032, Note_on_c, 12, 71, 127
1, 5133, Note_off_c, 12, 71, 127
1, 5135, Note_on_c, 0, 72, 127
1, 5339, Note_off_c, 0, 72, 127
1, 5345, Note_on_c, 2, 74, 127
1, 5454, Note_off_c, 2, 74, 127
1, 5456, Note_on_c, 12, 71, 127
1, 5570, Note_off_c, 12, 71, 127
1, 5572, Note_on_c, 0, 72, 127
1, 5806, Note_off_c, 0, 72, 127
1, 5808, Note_on_c, 11, 70, 127
1, 5909, Note_off_c, 11, 70, 127
1, 5911, Note_on_c, 8, 68, 127
1, 6012, Note_off_c, 8, 68, 127
1, 6014, Note_on_c, 7, 67, 127
1, 6115, Note_off_c, 7, 67, 127
1, 6117, Note_on_c, 5, 65, 127
1, 6218, Note_off_c, 5, 65, 127
1, 6220, Note_on_c, 3, 63, 127
1, 6321, Note_off_c, 3, 63, 127
1, 6323, Note_on_c, 2, 62, 127
1, 6424, Note_off_c, 2, 62, 127
1, 6426, Note_on_c, 0, 60, 127
1, 6655, Note_off_c, 0, 60, 127
1, 6683, Note_on_c, 2, 62, 127
1, 6784, Note_off_c, 2, 62, 127
1, 6786, Note_on_c, 12, 59, 127
1, 6887, Note_off_c, 12, 59, 127
1, 6889, Note_on_c, 0, 60, 127
1, 7093, Note_off_c, 0, 60, 127
1, 7095, Note_on_c, 2, 62, 127
1, 7204, Note_off_c, 2, 62, 127
1, 7206, Note_on_c, 12, 59, 127
1, 7320, Note_off_c, 12, 59, 127
1, 7322, Note_on_c, 0, 60, 127
1, 7556, Note_off_c, 0, 60, 127
1, 7558, Note_on_c, 11, 58, 127
1, 7659, Note_off_c, 11, 58, 127
1, 7661, Note_on_c, 8, 56, 127
1, 7762, Note_off_c, 8, 56, 127
1, 7764, Note_on_c, 7, 55, 127
1, 7865, Note_off_c, 7, 55, 127
1, 7867, Note_on_c, 5, 53, 127
1, 7968, Note_off_c, 5, 53, 127
1, 7970, Note_on_c, 3, 51, 127
1, 8071, Note_off_c, 3, 51, 127
1, 8073, Note_on_c, 2, 50, 127
1, 8174, Note_off_c, 2, 50, 127
1, 8176, Note_on_c, 0, 48, 127
1, 8403, Note_off_c, 0, 48, 127
1, 8433, Note_on_c, 2, 50, 127
1, 8534, Note_off_c, 2, 50, 127
1, 8536, Note_on_c, 12, 47, 127
1, 8637, Note_off_c, 12, 47, 127
1, 8639, Note_on_c, 0, 48, 127
1, 8843, Note_off_c, 0, 48, 127
1, 8845, Note_on_c, 2, 50, 127
1, 8954, Note_off_c, 2, 50, 127
1, 8956, Note_on_c, 12, 47, 127
1, 9072, Note_on_c, 0, 48, 127
1, 9076, Note_off_c, 12, 47, 127
1, 9305, Note_off_c, 0, 48, 127
1, 9307, Note_on_c, 11, 46, 127
1, 9408, Note_off_c, 11, 46, 127
1, 9410, Note_on_c, 8, 44, 127
1, 9511, Note_off_c, 8, 44, 127
1, 9513, Note_on_c, 7, 43, 127
1, 9614, Note_off_c, 7, 43, 127
1, 9616, Note_on_c, 5, 41, 127
1, 9717, Note_off_c, 5, 41, 127
1, 9719, Note_on_c, 3, 39, 127
1, 9820, Note_off_c, 3, 39, 127
1, 9822, Note_on_c, 2, 38, 127
1, 9923, Note_off_c, 2, 38, 127
1, 9925, Note_on_c, 3, 39, 127
1, 10214, Note_off_c, 3, 39, 127
1, 10216, Note_on_c, 12, 47, 127
1, 10317, Note_off_c, 12, 47, 127
1, 10319, Note_on_c, 0, 48, 127
1, 10420, Note_off_c, 0, 48, 127
1, 10422, Note_on_c, 5, 41, 127
1, 10679, Note_on_c, 0, 48, 127
1, 10780, Note_off_c, 0, 48, 127
1, 10782, Note_on_c, 2, 50, 127
1, 10786, Note_off_c, 5, 41, 127
1, 10882, Note_off_c, 2, 50, 127
1, 10884, Note_on_c, 7, 43, 127
1, 11141, Note_on_c, 2, 50, 127
1, 11242, Note_off_c, 2, 50, 127
1, 11244, Note_on_c, 3, 51, 127
1, 11291, Note_off_c, 7, 43, 127
1, 11345, Note_off_c, 3, 51, 127
1, 11347, Note_on_c, 10, 45, 127
1, 11604, Note_on_c, 3, 51, 127
1, 11705, Note_off_c, 3, 51, 127
1, 11707, Note_on_c, 5, 53, 127
1, 11754, Note_off_c, 10, 45, 127
1, 11808, Note_off_c, 5, 53, 127
1, 11810, Note_on_c, 12, 47, 127
1, 12056, Note_off_c, 12, 47, 127
1, 12067, Note_on_c, 6, 54, 127
1, 12176, Note_off_c, 6, 54, 127
1, 12178, Note_on_c, 7, 55, 127
1, 12277, Note_on_c, 3, 51, 127
1, 12288, Note_off_c, 7, 55, 127
1, 12575, Note_on_c, 6, 54, 127
1, 12678, Note_off_c, 3, 51, 127
1, 12684, Note_off_c, 6, 54, 127
1, 12688, Note_on_c, 7, 55, 127
1, 12797, Note_off_c, 7, 55, 127
1, 12801, Note_on_c, 2, 50, 127
1, 13084, Note_on_c, 6, 54, 127
1, 13193, Note_off_c, 6, 54, 127
1, 13197, Note_on_c, 7, 55, 127
1, 13201, Note_off_c, 2, 50, 127
1, 13306, Note_off_c, 7, 55, 127
1, 13308, Note_on_c, 0, 48, 127
1, 13591, Note_on_c, 6, 54, 127
1, 13685, Note_off_c, 0, 48, 127
1, 13700, Note_off_c, 6, 54, 127
1, 13704, Note_on_c, 7, 55, 127
1, 13813, Note_off_c, 7, 55, 127
1, 13817, Note_on_c, 12, 47, 127
1, 14134, Note_on_c, 7, 55, 127
1, 14147, Note_off_c, 12, 47, 127
1, 14254, Note_off_c, 7, 55, 127
1, 14256, Note_on_c, 7, 43, 127
1, 14370, Note_off_c, 7, 43, 127
1, 14374, Note_on_c, 0, 48, 127
1, 14556, Note_off_c, 0, 48, 127
1, 14620, Note_on_c, 5, 41, 127
1, 14843, Note_off_c, 5, 41, 127
1, 14914, Note_on_c, 7, 43, 127
1, 15190, Note_on_c, 3, 51, 127
1, 15295, Note_off_c, 3, 51, 127
1, 15299, Note_on_c, 2, 50, 127
1, 15440, Note_off_c, 2, 50, 127
1, 15442, Note_on_c, 0, 48, 127
1, 15693, Note_off_c, 0, 48, 127
1, 15740, Note_on_c, 2, 50, 127
1, 15860, Note_off_c, 7, 43, 127
1, 15869, Note_off_c, 2, 50, 127
1, 15886, Note_on_c, 12, 47, 127
1, 16036, Note_off_c, 12, 47, 127
1, 16101, Note_on_c, 0, 36, 127
1, 17157, Note_on_c, 7, 67, 127
1, 17260, Note_off_c, 7, 67, 127
1, 17264, Note_on_c, 5, 65, 127
1, 17367, Note_off_c, 5, 65, 127
1, 17369, Note_on_c, 3, 63, 127
1, 17577, Note_off_c, 3, 63, 127
1, 17581, Note_on_c, 5, 65, 127
1, 17590, Note_off_c, 0, 36, 127
1, 17684, Note_off_c, 5, 65, 127
1, 17686, Note_on_c, 2, 62, 127
1, 17789, Note_off_c, 2, 62, 127
1, 17793, Note_on_c, 3, 63, 127
1, 18005, Note_on_c, 7, 55, 127
1, 18108, Note_off_c, 7, 55, 127
1, 18108, Note_off_c, 3, 63, 127
1, 18110, Note_on_c, 5, 53, 127
1, 18110, Note_on_c, 2, 62, 127
1, 18213, Note_off_c, 2, 62, 127
1, 18213, Note_off_c, 5, 53, 127
1, 18217, Note_on_c, 3, 51, 127
1, 18217, Note_on_c, 0, 60, 127
1, 18425, Note_off_c, 0, 60, 127
1, 18425, Note_off_c, 3, 51, 127
1, 18427, Note_on_c, 5, 53, 127
1, 18427, Note_on_c, 2, 62, 127
1, 18530, Note_off_c, 2, 62, 127
1, 18530, Note_off_c, 5, 53, 127
1, 18534, Note_on_c, 2, 50, 127
1, 18534, Note_on_c, 12, 59, 127
1, 18637, Note_off_c, 12, 59, 127
1, 18637, Note_off_c, 2, 50, 127
1, 18639, Note_on_c, 0, 48, 127
1, 18639, Note_on_c, 3, 51, 127
1, 18639, Note_on_c, 0, 60, 127
1, 18851, Note_on_c, 0, 72, 127
1, 18954, Note_off_c, 0, 72, 127
1, 18958, Note_on_c, 11, 70, 127
1, 19059, Note_off_c, 3, 51, 127
1, 19061, Note_off_c, 11, 70, 127
1, 19063, Note_on_c, 4, 52, 127
1, 19063, Note_on_c, 8, 68, 127
1, 19271, Note_off_c, 8, 68, 127
1, 19275, Note_on_c, 11, 70, 127
1, 19378, Note_off_c, 11, 70, 127
1, 19380, Note_on_c, 7, 67, 127
1, 19483, Note_off_c, 7, 67, 127
1, 19483, Note_off_c, 4, 52, 127
1, 19487, Note_on_c, 5, 53, 127
1, 19487, Note_on_c, 8, 68, 127
1, 19695, Note_off_c, 8, 68, 127
1, 19699, Note_on_c, 5, 77, 127
1, 19802, Note_off_c, 5, 77, 127
1, 19804, Note_on_c, 3, 75, 127
1, 19907, Note_off_c, 3, 75, 127
1, 19911, Note_on_c, 8, 56, 127
1, 19911, Note_on_c, 2, 74, 127
1, 20119, Note_off_c, 2, 74, 127
1, 20121, Note_on_c, 3, 75, 127
1, 20224, Note_off_c, 3, 75, 127
1, 20228, Note_on_c, 0, 72, 127
1, 20331, Note_off_c, 0, 72, 127
1, 20331, Note_off_c, 0, 60, 127
1, 20333, Note_on_c, 2, 62, 127
1, 20333, Note_on_c, 12, 71, 127
1, 20541, Note_off_c, 12, 71, 127
1, 20545, Note_on_c, 8, 80, 127
1, 20648, Note_off_c, 8, 80, 127
1, 20652, Note_on_c, 7, 79, 127
1, 20755, Note_off_c, 7, 79, 127
1, 20757, Note_on_c, 5, 77, 127
1, 20965, Note_off_c, 5, 77, 127
1, 20969, Note_on_c, 7, 79, 127
1, 21072, Note_off_c, 7, 79, 127
1, 21074, Note_on_c, 3, 75, 127
1, 21177, Note_off_c, 3, 75, 127
1, 21179, Note_off_c, 5, 53, 127
1, 21181, Note_on_c, 2, 74, 127
1, 21284, Note_off_c, 2, 74, 127
1, 21286, Note_on_c, 3, 75, 127
1, 21389, Note_off_c, 3, 75, 127
1, 21393, Note_on_c, 5, 77, 127
1, 21599, Note_off_c, 5, 77, 127
1, 21603, Note_off_c, 8, 56, 127
1, 21605, Note_on_c, 5, 77, 127
1, 21755, Note_on_c, 3, 75, 127
1, 21776, Note_off_c, 5, 77, 127
1, 21797, Note_on_c, 5, 77, 127
1, 21829, Note_off_c, 3, 75, 127
1, 21842, Note_on_c, 3, 75, 127
1, 21872, Note_off_c, 5, 77, 127
1, 21885, Note_on_c, 5, 77, 127
1, 21917, Note_off_c, 3, 75, 127
1, 21930, Note_on_c, 3, 75, 127
1, 21960, Note_off_c, 5, 77, 127
1, 21975, Note_on_c, 5, 77, 127
1, 22005, Note_off_c, 3, 75, 127
1, 22011, Note_off_c, 0, 48, 127
1, 22017, Note_on_c, 3, 75, 127
1, 22049, Note_off_c, 5, 77, 127
1, 22062, Note_on_c, 5, 77, 127
1, 22092, Note_off_c, 3, 75, 127
1, 22105, Note_on_c, 3, 75, 127
1, 22137, Note_off_c, 5, 77, 127
1, 22334, Note_off_c, 3, 75, 127
1, 22345, Note_on_c, 2, 74, 127
1, 22437, Note_off_c, 2, 74, 127
1, 22446, Note_off_c, 2, 62, 127
1, 22467, Note_on_c, 0, 48, 127
1, 22467, Note_on_c, 7, 55, 127
1, 22467, Note_on_c, 3, 75, 127
1, 22467, Note_on_c, 0, 60, 127
1, 23791, Note_off_c, 0, 60, 127
1, 23791, Note_off_c, 7, 55, 127
1, 23791, Note_off_c, 0, 48, 127
1, 23824, Note_off_c, 3, 75, 127
1, 23858, Note_on_c, 7, 67, 127
1, 23961, Note_on_c, 8, 68, 127
1, 23963, Note_off_c, 7, 67, 127
1, 24066, Note_off_c, 8, 68, 127
1, 24066, Note_on_c, 11, 70, 127
1, 24171, Note_off_c, 11, 70, 127
1, 24173, Note_on_c, 0, 72, 127
1, 24282, Note_on_c, 7, 79, 127
1, 24387, Note_off_c, 7, 79, 127
1, 24387, Note_off_c, 0, 72, 127
1, 24391, Note_on_c, 8, 80, 127
1, 24391, Note_on_c, 11, 70, 127
1, 24496, Note_off_c, 8, 80, 127
1, 24500, Note_on_c, 11, 82, 127
1, 24605, Note_off_c, 11, 82, 127
1, 24605, Note_off_c, 11, 70, 127
1, 24607, Note_on_c, 0, 84, 127
1, 24607, Note_on_c, 8, 68, 127
1, 24821, Note_off_c, 8, 68, 127
1, 24821, Note_off_c, 0, 84, 127
1, 24825, Note_on_c, 5, 77, 127
1, 24825, Note_on_c, 0, 72, 127
1, 25039, Note_off_c, 0, 72, 127
1, 25039, Note_off_c, 5, 77, 127
1, 25043, Note_on_c, 11, 82, 127
1, 25043, Note_on_c, 7, 67, 127
1, 25257, Note_off_c, 7, 67, 127
1, 25257, Note_off_c, 11, 82, 127
1, 25261, Note_on_c, 4, 76, 127
1, 25261, Note_on_c, 0, 72, 127
1, 25475, Note_off_c, 0, 72, 127
1, 25475, Note_off_c, 4, 76, 127
1, 25477, Note_on_c, 8, 80, 127
1, 25477, Note_on_c, 5, 65, 127
1, 25593, Note_on_c, 2, 62, 127
1, 25631, Note_off_c, 5, 65, 127
1, 25702, Note_off_c, 8, 80, 127
1, 25714, Note_off_c, 2, 62, 127
1, 25719, Note_on_c, 3, 63, 127
1, 25833, Note_off_c, 3, 63, 127
1, 25839, Note_on_c, 5, 65, 127
1, 25944, Note_off_c, 5, 65, 127
1, 25948, Note_on_c, 7, 67, 127
1, 26057, Note_on_c, 2, 74, 127
1, 26162, Note_off_c, 2, 74, 127
1, 26162, Note_off_c, 7, 67, 127
1, 26166, Note_on_c, 5, 65, 127
1, 26166, Note_on_c, 3, 75, 127
1, 26271, Note_off_c, 3, 75, 127
1, 26275, Note_on_c, 5, 77, 127
1, 26380, Note_off_c, 5, 77, 127
1, 26380, Note_off_c, 5, 65, 127
1, 26384, Note_on_c, 3, 63, 127
1, 26384, Note_on_c, 7, 79, 127
1, 26598, Note_off_c, 7, 79, 127
1, 26598, Note_off_c, 3, 63, 127
1, 26600, Note_on_c, 7, 67, 127
1, 26600, Note_on_c, 0, 72, 127
1, 26814, Note_off_c, 0, 72, 127
1, 26814, Note_off_c, 7, 67, 127
1, 26818, Note_on_c, 2, 62, 127
1, 26818, Note_on_c, 5, 77, 127
1, 27032, Note_off_c, 5, 77, 127
1, 27032, Note_off_c, 2, 62, 127
1, 27036, Note_on_c, 7, 67, 127
1, 27036, Note_on_c, 12, 71, 127
1, 27250, Note_off_c, 12, 71, 127
1, 27250, Note_off_c, 7, 67, 127
1, 27254, Note_on_c, 0, 60, 127
1, 27254, Note_on_c, 3, 75, 127
1, 27468, Note_off_c, 3, 75, 127
1, 27470, Note_on_c, 7, 67, 127
1, 27689, Note_on_c, 8, 56, 127
1, 27689, Note_on_c, 2, 74, 127
1, 27728, Note_off_c, 7, 67, 127
1, 27904, Note_off_c, 2, 74, 127
1, 27908, Note_on_c, 5, 65, 127
1, 28122, Note_off_c, 8, 56, 127
1, 28126, Note_on_c, 7, 55, 127
1, 28126, Note_on_c, 0, 72, 127
1, 28165, Note_off_c, 5, 65, 127
1, 28343, Note_on_c, 3, 63, 127
1, 28384, Note_off_c, 0, 72, 127
1, 28560, Note_off_c, 7, 55, 127
1, 28562, Note_on_c, 5, 53, 127
1, 28562, Note_on_c, 12, 71, 127
1, 28601, Note_off_c, 3, 63, 127
1, 28781, Note_on_c, 2, 62, 127
1, 28948, Note_off_c, 12, 71, 127
1, 28995, Note_off_c, 2, 62, 127
1, 28995, Note_off_c, 5, 53, 127
1, 28997, Note_off_c, 0, 60, 127
1, 28999, Note_on_c, 3, 51, 127
1, 28999, Note_on_c, 7, 55, 127
1, 28999, Note_on_c, 0, 60, 127
1, 28999, Note_on_c, 3, 63, 127
1, 28999, Note_on_c, 0, 72, 127
1, 29498, Note_off_c, 0, 72, 127
1, 29498, Note_off_c, 3, 63, 127
1, 29541, Note_off_c, 7, 55, 127
1, 29541, Note_off_c, 3, 51, 127
1, 29604, Note_off_c, 0, 60, 127
1, 29699, Note_on_c, 7, 43, 127
1, 29804, Note_off_c, 7, 43, 127
1, 29808, Note_on_c, 10, 45, 127
1, 29913, Note_off_c, 10, 45, 127
1, 29917, Note_on_c, 12, 47, 127
1, 30022, Note_off_c, 12, 47, 127
1, 30026, Note_on_c, 0, 48, 127
1, 30240, Note_off_c, 0, 48, 127
1, 30244, Note_on_c, 7, 43, 127
1, 30458, Note_off_c, 7, 43, 127
1, 30462, Note_on_c, 2, 50, 127
1, 30676, Note_off_c, 2, 50, 127
1, 30678, Note_on_c, 7, 43, 127
1, 30892, Note_off_c, 7, 43, 127
1, 30896, Note_on_c, 3, 51, 127
1, 31110, Note_off_c, 3, 51, 127
1, 31114, Note_on_c, 7, 43, 127
1, 31328, Note_off_c, 7, 43, 127
1, 31332, Note_on_c, 5, 53, 127
1, 31441, Note_on_c, 7, 55, 127
1, 31546, Note_off_c, 7, 55, 127
1, 31546, Note_off_c, 5, 53, 127
1, 31548, Note_on_c, 7, 43, 127
1, 31548, Note_on_c, 10, 57, 127
1, 31653, Note_off_c, 10, 57, 127
1, 31657, Note_on_c, 12, 59, 127
1, 31762, Note_off_c, 12, 59, 127
1, 31762, Note_off_c, 7, 43, 127
1, 31766, Note_on_c, 3, 51, 127
1, 31766, Note_on_c, 0, 60, 127
1, 31980, Note_off_c, 0, 60, 127
1, 31980, Note_off_c, 3, 51, 127
1, 31984, Note_on_c, 5, 53, 127
1, 31984, Note_on_c, 7, 55, 127
1, 32198, Note_off_c, 7, 55, 127
1, 32198, Note_off_c, 5, 53, 127
1, 32202, Note_on_c, 3, 51, 127
1, 32202, Note_on_c, 2, 62, 127
1, 32416, Note_off_c, 2, 62, 127
1, 32416, Note_off_c, 3, 51, 127
1, 32418, Note_on_c, 2, 50, 127
1, 32418, Note_on_c, 7, 55, 127
1, 32630, Note_on_c, 3, 63, 127
1, 32630, Note_on_c, 0, 48, 127
1, 32632, Note_off_c, 7, 55, 127
1, 32632, Note_off_c, 2, 50, 127
1, 32752, Note_off_c, 0, 48, 127
1, 32779, Note_on_c, 5, 53, 127
1, 32878, Note_off_c, 3, 63, 127
1, 32884, Note_off_c, 5, 53, 127
1, 32888, Note_on_c, 7, 55, 127
1, 32993, Note_off_c, 7, 55, 127
1, 32997, Note_on_c, 8, 56, 127
1, 33102, Note_off_c, 8, 56, 127
1, 33106, Note_on_c, 11, 58, 127
1, 33215, Note_on_c, 0, 60, 127
1, 33320, Note_off_c, 0, 60, 127
1, 33320, Note_off_c, 11, 58, 127
1, 33324, Note_on_c, 2, 62, 127
1, 33324, Note_on_c, 0, 48, 127
1, 33429, Note_off_c, 2, 62, 127
1, 33431, Note_on_c, 4, 64, 127
1, 33536, Note_off_c, 4, 64, 127
1, 33538, Note_off_c, 0, 48, 127
1, 33540, Note_on_c, 5, 65, 127
1, 33540, Note_on_c, 8, 56, 127
1, 33754, Note_off_c, 8, 56, 127
1, 33758, Note_on_c, 0, 60, 127
1, 33758, Note_on_c, 11, 58, 127
1, 33797, Note_off_c, 5, 65, 127
1, 33973, Note_off_c, 11, 58, 127
1, 33973, Note_off_c, 0, 60, 127
1, 33977, Note_on_c, 7, 67, 127
1, 33977, Note_on_c, 8, 56, 127
1, 34191, Note_off_c, 8, 56, 127
1, 34195, Note_on_c, 0, 60, 127
1, 34195, Note_on_c, 7, 55, 127
1, 34234, Note_off_c, 7, 67, 127
1, 34410, Note_off_c, 7, 55, 127
1, 34410, Note_off_c, 0, 60, 127
1, 34412, Note_on_c, 8, 68, 127
1, 34412, Note_on_c, 5, 53, 127
1, 34626, Note_off_c, 5, 53, 127
1, 34630, Note_on_c, 0, 60, 127
1, 34630, Note_on_c, 7, 55, 127
1, 34754, Note_off_c, 8, 68, 127
1, 34844, Note_off_c, 7, 55, 127
1, 34848, Note_on_c, 10, 69, 127
1, 34848, Note_on_c, 5, 53, 127
1, 34887, Note_off_c, 0, 60, 127
1, 35063, Note_off_c, 5, 53, 127
1, 35067, Note_on_c, 0, 60, 127
1, 35067, Note_on_c, 3, 51, 127
1, 35213, Note_off_c, 10, 69, 127
1, 35282, Note_off_c, 3, 51, 127
1, 35284, Note_on_c, 12, 71, 127
1, 35284, Note_on_c, 2, 50, 127
1, 35325, Note_off_c, 0, 60, 127
1, 35499, Note_off_c, 2, 50, 127
1, 35503, Note_on_c, 2, 62, 127
1, 35503, Note_on_c, 3, 51, 127
1, 35670, Note_off_c, 12, 71, 127
1, 35717, Note_off_c, 3, 51, 127
1, 35721, Note_on_c, 0, 72, 127
1, 35721, Note_on_c, 2, 50, 127
1, 35760, Note_off_c, 2, 62, 127
1, 35936, Note_off_c, 2, 50, 127
1, 35940, Note_on_c, 3, 63, 127
1, 35940, Note_on_c, 0, 48, 127
1, 36107, Note_off_c, 0, 72, 127
1, 36154, Note_off_c, 0, 48, 127
1, 36156, Note_on_c, 2, 74, 127
1, 36156, Note_on_c, 12, 47, 127
1, 36197, Note_off_c, 3, 63, 127
1, 36454, Note_on_c, 5, 65, 127
1, 36668, Note_off_c, 5, 65, 127
1, 36681, Note_on_c, 8, 68, 127
1, 36895, Note_off_c, 8, 68, 127
1, 36899, Note_on_c, 7, 67, 127
1, 37017, Note_off_c, 12, 47, 127
1, 37017, Note_off_c, 2, 74, 127
1, 37113, Note_off_c, 7, 67, 127
1, 37117, Note_on_c, 5, 65, 127
1, 37331, Note_off_c, 5, 65, 127
1, 37359, Note_on_c, 7, 67, 127
1, 37359, Note_on_c, 7, 43, 127
1, 37464, Note_off_c, 7, 67, 127
1, 37479, Note_on_c, 5, 65, 127
1, 37573, Note_off_c, 7, 43, 127
1, 37584, Note_off_c, 5, 65, 127
1, 37586, Note_on_c, 10, 45, 127
1, 37586, Note_on_c, 3, 63, 127
1, 37800, Note_off_c, 3, 63, 127
1, 37800, Note_off_c, 10, 45, 127
1, 37804, Note_on_c, 12, 47, 127
1, 37804, Note_on_c, 5, 65, 127
1, 37909, Note_off_c, 5, 65, 127
1, 37913, Note_on_c, 2, 62, 127
1, 38018, Note_off_c, 2, 62, 127
1, 38018, Note_off_c, 12, 47, 127
1, 38022, Note_on_c, 0, 48, 127
1, 38022, Note_on_c, 3, 63, 127
1, 38294, Note_on_c, 7, 67, 127
1, 38294, Note_on_c, 2, 50, 127
1, 38508, Note_off_c, 2, 50, 127
1, 38508, Note_off_c, 7, 67, 127
1, 38512, Note_on_c, 0, 72, 127
1, 38512, Note_on_c, 3, 51, 127
1, 38726, Note_off_c, 3, 51, 127
1, 38726, Note_off_c, 0, 72, 127
1, 38730, Note_on_c, 2, 74, 127
1, 38730, Note_on_c, 2, 50, 127
1, 38835, Note_off_c, 2, 74, 127
1, 38839, Note_on_c, 12, 71, 127
1, 38882, Note_off_c, 3, 63, 127
1, 38944, Note_off_c, 12, 71, 127
1, 38944, Note_off_c, 2, 50, 127
1, 38946, Note_on_c, 0, 72, 127
1, 38946, Note_on_c, 3, 51, 127
1, 39160, Note_off_c, 3, 51, 127
1, 39196, Note_on_c, 3, 63, 127
1, 39196, Note_on_c, 7, 55, 127
1, 39376, Note_off_c, 0, 72, 127
1, 39410, Note_off_c, 7, 55, 127
1, 39434, Note_off_c, 3, 63, 127
1, 39436, Note_on_c, 10, 57, 127
1, 39436, Note_on_c, 2, 62, 127
1, 39436, Note_on_c, 6, 66, 127
1, 39650, Note_off_c, 2, 62, 127
1, 39654, Note_on_c, 3, 63, 127
1, 39759, Note_off_c, 3, 63, 127
1, 39761, Note_off_c, 0, 48, 127
1, 39763, Note_on_c, 0, 60, 127
1, 39862, Note_off_c, 6, 66, 127
1, 39868, Note_off_c, 0, 60, 127
1, 39868, Note_off_c, 10, 57, 127
1, 39872, Note_on_c, 7, 43, 127
1, 39872, Note_on_c, 12, 59, 127
1, 39872, Note_on_c, 7, 67, 127
1, 40144, Note_on_c, 2, 62, 127
1, 40198, Note_off_c, 7, 67, 127
1, 40305, Note_off_c, 12, 59, 127
1, 40359, Note_off_c, 2, 62, 127
1, 40363, Note_on_c, 3, 63, 127
1, 40363, Note_on_c, 7, 55, 127
1, 40577, Note_off_c, 3, 63, 127
1, 40581, Note_on_c, 0, 60, 127
1, 40795, Note_off_c, 0, 60, 127
1, 40795, Note_off_c, 7, 55, 127
1, 40797, Note_on_c, 2, 62, 127
1, 40797, Note_on_c, 5, 53, 127
1, 41011, Note_off_c, 2, 62, 127
1, 41015, Note_on_c, 12, 59, 127
1, 41229, Note_off_c, 12, 59, 127
1, 41229, Note_off_c, 5, 53, 127
1, 41233, Note_on_c, 0, 60, 127
1, 41233, Note_on_c, 3, 51, 127
1, 41447, Note_off_c, 0, 60, 127
1, 41451, Note_on_c, 10, 57, 127
1, 41665, Note_off_c, 10, 57, 127
1, 41665, Note_off_c, 3, 51, 127
1, 41667, Note_on_c, 5, 65, 127
1, 41667, Note_on_c, 2, 50, 127
1, 41886, Note_on_c, 12, 59, 127
1, 41985, Note_off_c, 2, 50, 127
1, 42101, Note_off_c, 5, 65, 127
1, 42105, Note_on_c, 3, 63, 127
1, 42105, Note_on_c, 0, 48, 127
1, 42294, Note_off_c, 12, 59, 127
1, 42324, Note_on_c, 10, 57, 127
1, 42423, Note_off_c, 0, 48, 127
1, 42539, Note_off_c, 3, 63, 127
1, 42541, Note_on_c, 2, 62, 127
1, 42541, Note_on_c, 12, 47, 127
1, 42732, Note_off_c, 10, 57, 127
1, 42760, Note_on_c, 7, 55, 127
1, 42859, Note_off_c, 12, 47, 127
1, 42906, Note_off_c, 7, 43, 127
1, 42975, Note_off_c, 2, 62, 127
1, 42979, Note_on_c, 0, 60, 127
1, 42979, Note_on_c, 10, 45, 127
1, 43168, Note_off_c, 7, 55, 127
1, 43198, Note_on_c, 6, 54, 127
1, 43429, Note_off_c, 10, 45, 127
1, 43429, Note_off_c, 0, 60, 127
1, 43476, Note_off_c, 6, 54, 127
1, 43494, Note_on_c, 2, 50, 127
1, 43494, Note_on_c, 12, 59, 127
1, 43494, Note_on_c, 7, 55, 127
1, 43494, Note_on_c, 7, 43, 127
1, 45394, Note_off_c, 7, 43, 127
1, 45394, Note_off_c, 7, 55, 127
1, 45394, Note_off_c, 12, 59, 127
1, 45394, Note_off_c, 2, 50, 127
1, 45770, Note_on_c, 7, 43, 127
1, 45770, Note_on_c, 7, 55, 127
1, 45770, Note_on_c, 12, 59, 127
1, 45770, Note_on_c, 7, 67, 127
1, 46202, Note_off_c, 7, 67, 127
1, 46202, Note_off_c, 12, 59, 127
1, 46202, Note_off_c, 7, 43, 127
1, 46204, Note_on_c, 0, 60, 127
1, 46204, Note_on_c, 8, 44, 127
1, 46543, Note_on_c, 2, 62, 127
1, 46785, Note_off_c, 7, 55, 127
1, 46880, Note_off_c, 2, 62, 127
1, 46882, Note_on_c, 3, 63, 127
1, 46882, Note_on_c, 5, 53, 127
1, 47219, Note_off_c, 3, 63, 127
1, 47221, Note_on_c, 5, 65, 127
1, 47558, Note_off_c, 5, 65, 127
1, 47558, Note_off_c, 8, 44, 127
1, 47558, Note_off_c, 0, 60, 127
1, 47560, Note_on_c, 7, 67, 127
1, 47560, Note_on_c, 11, 58, 127
1, 47560, Note_on_c, 7, 43, 127
1, 47897, Note_off_c, 7, 67, 127
1, 47899, Note_on_c, 8, 68, 127
1, 48231, Note_off_c, 11, 58, 127
1, 48236, Note_off_c, 8, 68, 127
1, 48236, Note_off_c, 5, 53, 127
1, 48238, Note_on_c, 0, 60, 127
1, 48238, Note_on_c, 11, 70, 127
1, 48238, Note_on_c, 4, 52, 127
1, 48575, Note_off_c, 11, 70, 127
1, 48575, Note_off_c, 7, 43, 127
1, 48577, Note_on_c, 8, 68, 127
1, 48577, Note_on_c, 0, 48, 127
1, 48745, Note_off_c, 8, 68, 127
1, 48747, Note_on_c, 7, 67, 127
1, 48909, Note_off_c, 4, 52, 127
1, 48909, Note_off_c, 0, 60, 127
1, 48914, Note_off_c, 7, 67, 127
1, 48914, Note_off_c, 0, 48, 127
1, 48916, Note_on_c, 0, 60, 127
1, 48916, Note_on_c, 8, 68, 127
1, 48916, Note_on_c, 5, 41, 127
1, 48916, Note_on_c, 5, 53, 127
1, 49253, Note_off_c, 5, 41, 127
1, 49255, Note_on_c, 7, 43, 127
1, 49587, Note_off_c, 5, 53, 127
1, 49592, Note_off_c, 7, 43, 127
1, 49594, Note_on_c, 8, 44, 127
1, 49594, Note_on_c, 5, 53, 127
1, 49931, Note_off_c, 8, 44, 127
1, 49933, Note_on_c, 11, 46, 127
1, 50270, Note_off_c, 11, 46, 127
1, 50270, Note_off_c, 8, 68, 127
1, 50272, Note_on_c, 7, 67, 127
1, 50272, Note_on_c, 0, 48, 127
1, 50609, Note_off_c, 0, 48, 127
1, 50611, Note_on_c, 2, 50, 127
1, 50946, Note_off_c, 0, 60, 127
1, 50948, Note_off_c, 2, 50, 127
1, 50948, Note_off_c, 7, 67, 127
1, 50948, Note_off_c, 5, 53, 127
1, 50950, Note_on_c, 0, 72, 127
1, 50950, Note_on_c, 3, 51, 127
1, 51287, Note_off_c, 3, 51, 127
1, 51289, Note_on_c, 3, 63, 127
1, 51289, Note_on_c, 7, 55, 127
1, 51289, Note_on_c, 2, 50, 127
1, 51457, Note_off_c, 2, 50, 127
1, 51459, Note_on_c, 0, 48, 127
1, 51625, Note_off_c, 7, 55, 127
1, 51627, Note_off_c, 0, 48, 127
1, 51627, Note_off_c, 3, 63, 127
1, 51629, Note_on_c, 2, 62, 127
1, 51629, Note_on_c, 5, 53, 127
1, 51629, Note_on_c, 8, 56, 127
1, 51966, Note_off_c, 5, 53, 127
1, 51966, Note_off_c, 2, 62, 127
1, 51968, Note_on_c, 3, 63, 127
1, 51968, Note_on_c, 2, 50, 127
1, 52300, Note_off_c, 8, 56, 127
1, 52305, Note_off_c, 2, 50, 127
1, 52305, Note_off_c, 3, 63, 127
1, 52305, Note_off_c, 0, 72, 127
1, 52307, Note_on_c, 5, 65, 127
1, 52307, Note_on_c, 12, 71, 127
1, 52307, Note_on_c, 7, 55, 127
1, 52644, Note_off_c, 5, 65, 127
1, 52646, Note_on_c, 3, 63, 127
1, 52646, Note_on_c, 7, 43, 127
1, 52814, Note_off_c, 3, 63, 127
1, 52816, Note_on_c, 2, 62, 127
1, 52978, Note_off_c, 12, 71, 127
1, 52983, Note_off_c, 2, 62, 127
1, 52983, Note_off_c, 7, 43, 127
1, 52985, Note_on_c, 3, 63, 127
1, 52985, Note_on_c, 0, 72, 127
1, 52985, Note_on_c, 0, 48, 127
1, 53322, Note_off_c, 0, 48, 127
1, 53322, Note_off_c, 3, 63, 127
1, 53324, Note_on_c, 5, 65, 127
1, 53324, Note_on_c, 2, 50, 127
1, 53656, Note_off_c, 0, 72, 127
1, 53661, Note_off_c, 2, 50, 127
1, 53661, Note_off_c, 5, 65, 127
1, 53661, Note_off_c, 7, 55, 127
1, 53663, Note_on_c, 7, 67, 127
1, 53663, Note_on_c, 3, 51, 127
1, 54000, Note_off_c, 3, 51, 127
1, 54000, Note_off_c, 7, 67, 127
1, 54002, Note_on_c, 5, 65, 127
1, 54002, Note_on_c, 0, 72, 127
1, 54002, Note_on_c, 5, 53, 127
1, 54170, Note_off_c, 5, 65, 127
1, 54172, Note_on_c, 3, 63, 127
1, 54338, Note_off_c, 0, 72, 127
1, 54340, Note_off_c, 3, 63, 127
1, 54340, Note_off_c, 5, 53, 127
1, 54342, Note_on_c, 11, 70, 127
1, 54342, Note_on_c, 2, 62, 127
1, 54342, Note_on_c, 7, 55, 127
1, 54679, Note_off_c, 7, 55, 127
1, 54679, Note_off_c, 11, 70, 127
1, 54681, Note_on_c, 0, 72, 127
1, 54681, Note_on_c, 10, 57, 127
1, 55013, Note_off_c, 2, 62, 127
1, 55018, Note_off_c, 10, 57, 127
1, 55018, Note_off_c, 0, 72, 127
1, 55020, Note_on_c, 7, 67, 127
1, 55020, Note_on_c, 2, 74, 127
1, 55020, Note_on_c, 11, 58, 127
1, 55357, Note_off_c, 11, 58, 127
1, 55357, Note_off_c, 2, 74, 127
1, 55359, Note_on_c, 0, 72, 127
1, 55359, Note_on_c, 10, 57, 127
1, 55527, Note_off_c, 10, 57, 127
1, 55527, Note_off_c, 0, 72, 127
1, 55529, Note_on_c, 11, 70, 127
1, 55529, Note_on_c, 7, 55, 127
1, 55697, Note_off_c, 7, 55, 127
1, 55697, Note_off_c, 11, 70, 127
1, 55699, Note_on_c, 10, 69, 127
1, 55699, Note_on_c, 0, 60, 127
1, 56036, Note_off_c, 0, 60, 127
1, 56036, Note_off_c, 10, 69, 127
1, 56038, Note_on_c, 11, 70, 127
1, 56038, Note_on_c, 10, 57, 127
1, 56375, Note_off_c, 10, 57, 127
1, 56375, Note_off_c, 11, 70, 127
1, 56375, Note_off_c, 7, 67, 127
1, 56377, Note_on_c, 6, 66, 127
1, 56377, Note_on_c, 0, 72, 127
1, 56377, Note_on_c, 2, 62, 127
1, 56714, Note_off_c, 2, 62, 127
1, 56714, Note_off_c, 0, 72, 127
1, 56716, Note_on_c, 11, 70, 127
1, 56716, Note_on_c, 2, 50, 127
1, 56716, Note_on_c, 2, 62, 127
1, 56884, Note_off_c, 11, 70, 127
1, 56886, Note_on_c, 10, 69, 127
1, 57048, Note_off_c, 6, 66, 127
1, 57053, Note_off_c, 10, 69, 127
1, 57053, Note_off_c, 2, 62, 127
1, 57053, Note_off_c, 2, 50, 127
1, 57055, Note_on_c, 7, 67, 127
1, 57055, Note_on_c, 11, 70, 127
1, 57055, Note_on_c, 7, 55, 127
1, 57392, Note_off_c, 11, 70, 127
1, 57394, Note_on_c, 0, 72, 127
1, 57394, Note_on_c, 10, 57, 127
1, 57726, Note_off_c, 7, 55, 127
1, 57726, Note_off_c, 7, 67, 127
1, 57731, Note_off_c, 10, 57, 127
1, 57731, Note_off_c, 0, 72, 127
1, 57733, Note_on_c, 2, 74, 127
1, 57733, Note_on_c, 11, 58, 127
1, 58070, Note_off_c, 11, 58, 127
1, 58070, Note_off_c, 2, 74, 127
1, 58072, Note_on_c, 11, 70, 127
1, 58072, Note_on_c, 3, 75, 127
1, 58072, Note_on_c, 0, 60, 127
1, 58409, Note_off_c, 0, 60, 127
1, 58409, Note_off_c, 3, 75, 127
1, 58409, Note_off_c, 11, 70, 127
1, 58411, Note_on_c, 5, 77, 127
1, 58411, Note_on_c, 8, 68, 127
1, 58411, Note_on_c, 2, 62, 127
1, 58748, Note_off_c, 2, 62, 127
1, 58748, Note_off_c, 8, 68, 127
1, 58748, Note_off_c, 5, 77, 127
1, 58750, Note_on_c, 7, 79, 127
1, 58750, Note_on_c, 7, 67, 127
1, 58750, Note_on_c, 3, 63, 127
1, 59087, Note_off_c, 3, 63, 127
1, 59087, Note_off_c, 7, 67, 127
1, 59087, Note_off_c, 7, 79, 127
1, 59089, Note_on_c, 8, 80, 127
1, 59089, Note_on_c, 5, 65, 127
1, 59426, Note_off_c, 5, 65, 127
1, 59426, Note_off_c, 8, 80, 127
1, 59428, Note_on_c, 11, 70, 127
1, 59428, Note_on_c, 7, 79, 127
1, 59428, Note_on_c, 11, 58, 127
1, 59428, Note_on_c, 3, 63, 127
1, 59596, Note_off_c, 3, 63, 127
1, 59596, Note_off_c, 7, 79, 127
1, 59598, Note_on_c, 5, 77, 127
1, 59598, Note_on_c, 2, 62, 127
1, 59764, Note_off_c, 11, 58, 127
1, 59764, Note_off_c, 11, 70, 127
1, 59766, Note_off_c, 2, 62, 127
1, 59766, Note_off_c, 5, 77, 127
1, 59768, Note_on_c, 7, 79, 127
1, 59768, Note_on_c, 11, 70, 127
1, 59768, Note_on_c, 3, 51, 127
1, 59768, Note_on_c, 3, 63, 127
1, 60105, Note_off_c, 3, 51, 127
1, 60107, Note_on_c, 5, 53, 127
1, 60439, Note_off_c, 3, 63, 127
1, 60444, Note_off_c, 5, 53, 127
1, 60446, Note_on_c, 7, 55, 127
1, 60446, Note_on_c, 3, 63, 127
1, 60783, Note_off_c, 7, 55, 127
1, 60785, Note_on_c, 8, 56, 127
1, 61122, Note_off_c, 8, 56, 127
1, 61122, Note_off_c, 7, 79, 127
1, 61124, Note_on_c, 5, 77, 127
1, 61124, Note_on_c, 11, 58, 127
1, 61461, Note_off_c, 11, 58, 127
1, 61463, Note_on_c, 0, 60, 127
1, 61798, Note_off_c, 11, 70, 127
1, 61800, Note_off_c, 0, 60, 127
1, 61800, Note_off_c, 5, 77, 127
1, 61800, Note_off_c, 3, 63, 127
1, 61802, Note_on_c, 11, 82, 127
1, 61802, Note_on_c, 2, 62, 127
1, 62139, Note_off_c, 2, 62, 127
1, 62141, Note_on_c, 2, 74, 127
1, 62141, Note_on_c, 5, 65, 127
1, 62141, Note_on_c, 0, 60, 127
1, 62309, Note_off_c, 0, 60, 127
1, 62311, Note_on_c, 11, 58, 127
1, 62477, Note_off_c, 5, 65, 127
1, 62479, Note_off_c, 11, 58, 127
1, 62479, Note_off_c, 2, 74, 127
1, 62481, Note_on_c, 0, 72, 127
1, 62481, Note_on_c, 4, 64, 127
1, 62481, Note_on_c, 7, 67, 127
1, 62818, Note_off_c, 7, 67, 127
1, 62818, Note_off_c, 11, 82, 127
1, 62820, Note_on_c, 8, 80, 127
1, 62820, Note_on_c, 8, 68, 127
1, 62988, Note_off_c, 8, 80, 127
1, 62990, Note_on_c, 7, 79, 127
1, 63152, Note_off_c, 0, 72, 127
1, 63157, Note_off_c, 8, 68, 127
1, 63159, Note_on_c, 0, 84, 127
1, 63159, Note_on_c, 11, 70, 127
1, 63496, Note_off_c, 11, 70, 127
1, 63498, Note_on_c, 8, 68, 127
1, 63660, Note_off_c, 7, 79, 127
1, 63665, Note_off_c, 8, 68, 127
1, 63667, Note_on_c, 7, 67, 127
1, 63835, Note_off_c, 7, 67, 127
1, 63835, Note_off_c, 4, 64, 127
1, 63837, Note_on_c, 5, 65, 127
1, 63837, Note_on_c, 8, 68, 127
1, 64006, Note_off_c, 0, 84, 127
1, 64175, Note_on_c, 11, 82, 127
1, 64175, Note_on_c, 7, 79, 127
1, 64512, Note_off_c, 7, 79, 127
1, 64512, Note_off_c, 11, 82, 127
1, 64514, Note_on_c, 8, 80, 127
1, 64514, Note_on_c, 5, 77, 127
1, 64851, Note_off_c, 5, 77, 127
1, 64851, Note_off_c, 8, 80, 127
1, 64853, Note_on_c, 7, 79, 127
1, 64853, Note_on_c, 3, 75, 127
1, 65190, Note_off_c, 3, 75, 127
1, 65190, Note_off_c, 7, 79, 127
1, 65192, Note_on_c, 2, 74, 127
1, 65192, Note_on_c, 5, 77, 127
1, 65340, Note_on_c, 0, 72, 127
1, 65359, Note_off_c, 2, 74, 127
1, 65435, Note_on_c, 2, 74, 127
1, 65440, Note_off_c, 0, 72, 127
1, 65526, Note_off_c, 5, 77, 127
1, 65528, Note_off_c, 2, 74, 127
1, 65528, Note_off_c, 8, 68, 127
1, 65528, Note_off_c, 5, 65, 127
1, 65530, Note_on_c, 0, 72, 127
1, 65530, Note_on_c, 3, 75, 127
1, 65530, Note_on_c, 7, 67, 127
1, 65698, Note_off_c, 0, 72, 127
1, 65700, Note_on_c, 11, 70, 127
1, 65868, Note_off_c, 11, 70, 127
1, 65868, Note_off_c, 7, 67, 127
1, 65870, Note_on_c, 8, 68, 127
1, 65870, Note_on_c, 5, 53, 127
1, 65870, Note_on_c, 5, 65, 127
1, 66025, Note_off_c, 3, 75, 127
1, 66039, Note_on_c, 2, 74, 127
1, 66207, Note_off_c, 2, 74, 127
1, 66207, Note_off_c, 5, 65, 127
1, 66209, Note_on_c, 3, 75, 127
1, 66209, Note_on_c, 3, 63, 127
1, 66377, Note_off_c, 3, 75, 127
1, 66379, Note_on_c, 5, 77, 127
1, 66541, Note_off_c, 8, 68, 127
1, 66546, Note_off_c, 5, 77, 127
1, 66546, Note_off_c, 3, 63, 127
1, 66548, Note_on_c, 12, 71, 127
1, 66548, Note_on_c, 7, 67, 127
1, 66548, Note_on_c, 2, 62, 127
1, 66885, Note_off_c, 2, 62, 127
1, 66885, Note_off_c, 7, 67, 127
1, 66885, Note_off_c, 12, 71, 127
1, 66885, Note_off_c, 5, 53, 127
1, 66887, Note_on_c, 10, 69, 127
1, 66887, Note_on_c, 5, 53, 127
1, 66887, Note_on_c, 7, 55, 127
1, 67055, Note_off_c, 10, 69, 127
1, 67057, Note_on_c, 7, 67, 127
1, 67225, Note_off_c, 7, 67, 127
1, 67225, Note_off_c, 7, 55, 127
1, 67225, Note_off_c, 5, 53, 127
1, 67227, Note_on_c, 0, 72, 127
1, 67227, Note_on_c, 3, 51, 127
1, 67227, Note_on_c, 10, 57, 127
1, 67564, Note_off_c, 10, 57, 127
1, 67564, Note_off_c, 3, 51, 127
1, 67564, Note_off_c, 0, 72, 127
1, 67566, Note_on_c, 2, 74, 127
1, 67566, Note_on_c, 5, 65, 127
1, 67566, Note_on_c, 2, 50, 127
1, 67566, Note_on_c, 12, 59, 127
1, 67903, Note_off_c, 12, 59, 127
1, 67903, Note_off_c, 2, 50, 127
1, 67903, Note_off_c, 5, 65, 127
1, 67903, Note_off_c, 2, 74, 127
1, 67905, Note_on_c, 3, 75, 127
1, 67905, Note_on_c, 3, 63, 127
1, 67905, Note_on_c, 0, 48, 127
1, 67905, Note_on_c, 0, 60, 127
1, 68242, Note_off_c, 0, 48, 127
1, 68242, Note_off_c, 3, 63, 127
1, 68244, Note_on_c, 7, 67, 127
1, 68244, Note_on_c, 11, 46, 127
1, 68576, Note_off_c, 0, 60, 127
1, 68581, Note_off_c, 11, 46, 127
1, 68581, Note_off_c, 7, 67, 127
1, 68583, Note_on_c, 0, 72, 127
1, 68583, Note_on_c, 10, 45, 127
1, 68920, Note_off_c, 10, 45, 127
1, 68922, Note_on_c, 11, 46, 127
1, 68922, Note_on_c, 7, 55, 127
1, 69090, Note_off_c, 11, 46, 127
1, 69092, Note_on_c, 0, 48, 127
1, 69258, Note_off_c, 7, 55, 127
1, 69260, Note_off_c, 0, 48, 127
1, 69260, Note_off_c, 3, 75, 127
1, 69262, Note_on_c, 2, 74, 127
1, 69262, Note_on_c, 6, 42, 127
1, 69262, Note_on_c, 2, 50, 127
1, 69599, Note_off_c, 2, 50, 127
1, 69599, Note_off_c, 6, 42, 127
1, 69599, Note_off_c, 0, 72, 127
1, 69601, Note_on_c, 11, 70, 127
1, 69601, Note_on_c, 7, 55, 127
1, 69601, Note_on_c, 4, 52, 127
1, 69938, Note_off_c, 4, 52, 127
1, 69938, Note_off_c, 7, 55, 127
1, 69938, Note_off_c, 11, 70, 127
1, 69940, Note_on_c, 10, 69, 127
1, 69940, Note_on_c, 6, 54, 127
1, 70109, Note_off_c, 2, 74, 127
1, 70277, Note_off_c, 6, 54, 127
1, 70277, Note_off_c, 10, 69, 127
1, 70279, Note_on_c, 7, 67, 127
1, 70279, Note_on_c, 0, 72, 127
1, 70279, Note_on_c, 4, 52, 127
1, 70279, Note_on_c, 7, 55, 127
1, 70616, Note_off_c, 7, 55, 127
1, 70616, Note_off_c, 4, 52, 127
1, 70616, Note_off_c, 7, 67, 127
1, 70618, Note_on_c, 6, 66, 127
1, 70618, Note_on_c, 2, 50, 127
1, 70618, Note_on_c, 10, 57, 127
1, 70950, Note_off_c, 0, 72, 127
1, 70955, Note_off_c, 10, 57, 127
1, 70955, Note_off_c, 6, 66, 127
1, 70957, Note_on_c, 7, 67, 127
1, 70957, Note_on_c, 11, 70, 127
1, 70957, Note_on_c, 11, 58, 127
1, 71294, Note_off_c, 11, 58, 127
1, 71294, Note_off_c, 11, 70, 127
1, 71294, Note_off_c, 7, 67, 127
1, 71296, Note_on_c, 10, 69, 127
1, 71296, Note_on_c, 0, 60, 127
1, 71633, Note_off_c, 0, 60, 127
1, 71633, Note_off_c, 10, 69, 127
1, 71635, Note_on_c, 6, 66, 127
1, 71635, Note_on_c, 2, 74, 127
1, 71635, Note_on_c, 11, 58, 127
1, 71803, Note_off_c, 11, 58, 127
1, 71805, Note_on_c, 10, 57, 127
1, 71973, Note_off_c, 10, 57, 127
1, 71973, Note_off_c, 6, 66, 127
1, 71973, Note_off_c, 2, 50, 127
1, 71975, Note_on_c, 7, 67, 127
1, 71975, Note_on_c, 11, 58, 127
1, 72307, Note_off_c, 2, 74, 127
1, 72312, Note_off_c, 11, 58, 127
1, 72312, Note_off_c, 7, 67, 127
1, 72314, Note_on_c, 5, 65, 127
1, 72314, Note_on_c, 2, 50, 127
1, 72314, Note_on_c, 10, 57, 127
1, 72651, Note_off_c, 10, 57, 127
1, 72651, Note_off_c, 2, 50, 127
1, 72651, Note_off_c, 5, 65, 127
1, 72653, Note_on_c, 3, 63, 127
1, 72653, Note_on_c, 10, 69, 127
1, 72653, Note_on_c, 0, 60, 127
1, 72653, Note_on_c, 0, 48, 127
1, 72990, Note_off_c, 0, 48, 127
1, 72990, Note_off_c, 0, 60, 127
1, 72990, Note_off_c, 10, 69, 127
1, 72990, Note_off_c, 3, 63, 127
1, 72992, Note_on_c, 2, 62, 127
1, 72992, Note_on_c, 11, 70, 127
1, 72992, Note_on_c, 11, 46, 127
1, 73160, Note_off_c, 2, 62, 127
1, 73162, Note_on_c, 4, 64, 127
1, 73328, Note_off_c, 11, 70, 127
1, 73330, Note_off_c, 4, 64, 127
1, 73330, Note_off_c, 11, 46, 127
1, 73332, Note_on_c, 0, 60, 127
1, 73332, Note_on_c, 6, 66, 127
1, 73332, Note_on_c, 0, 72, 127
1, 73332, Note_on_c, 10, 45, 127
1, 73669, Note_off_c, 10, 45, 127
1, 73669, Note_off_c, 0, 72, 127
1, 73669, Note_off_c, 6, 66, 127
1, 73669, Note_off_c, 0, 60, 127
1, 73671, Note_on_c, 7, 67, 127
1, 73671, Note_on_c, 2, 74, 127
1, 73671, Note_on_c, 11, 58, 127
1, 73671, Note_on_c, 7, 43, 127
1, 74008, Note_off_c, 7, 43, 127
1, 74008, Note_off_c, 11, 58, 127
1, 74008, Note_off_c, 2, 74, 127
1, 74008, Note_off_c, 7, 67, 127
1, 74010, Note_on_c, 3, 75, 127
1, 74010, Note_on_c, 0, 48, 127
1, 74010, Note_on_c, 10, 57, 127
1, 74179, Note_on_c, 6, 66, 127
1, 74345, Note_off_c, 3, 75, 127
1, 74347, Note_off_c, 6, 66, 127
1, 74347, Note_off_c, 10, 57, 127
1, 74349, Note_on_c, 3, 63, 127
1, 74349, Note_on_c, 7, 67, 127
1, 74349, Note_on_c, 11, 58, 127
1, 74517, Note_off_c, 11, 58, 127
1, 74517, Note_off_c, 7, 67, 127
1, 74519, Note_on_c, 10, 69, 127
1, 74519, Note_on_c, 0, 60, 127
1, 74681, Note_off_c, 0, 48, 127
1, 74685, Note_off_c, 3, 63, 127
1, 74687, Note_off_c, 0, 60, 127
1, 74687, Note_off_c, 10, 69, 127
1, 74689, Note_on_c, 2, 62, 127
1, 74689, Note_on_c, 6, 54, 127
1, 74689, Note_on_c, 2, 50, 127
1, 75026, Note_off_c, 2, 62, 127
1, 75028, Note_on_c, 10, 69, 127
1, 75028, Note_on_c, 0, 60, 127
1, 75360, Note_off_c, 2, 50, 127
1, 75360, Note_off_c, 6, 54, 127
1, 75365, Note_off_c, 0, 60, 127
1, 75365, Note_off_c, 10, 69, 127
1, 75367, Note_on_c, 2, 74, 127
1, 75367, Note_on_c, 11, 58, 127
1, 75704, Note_off_c, 11, 58, 127
1, 75704, Note_off_c, 2, 74, 127
1, 75706, Note_on_c, 0, 72, 127
1, 75706, Note_on_c, 6, 66, 127
1, 75706, Note_on_c, 2, 50, 127
1, 75706, Note_on_c, 10, 57, 127
1, 76043, Note_off_c, 10, 57, 127
1, 76043, Note_off_c, 2, 50, 127
1, 76043, Note_off_c, 6, 66, 127
1, 76043, Note_off_c, 0, 72, 127
1, 76045, Note_on_c, 7, 67, 127
1, 76045, Note_on_c, 11, 70, 127
1, 76045, Note_on_c, 7, 43, 127
1, 76045, Note_on_c, 7, 55, 127
1, 76382, Note_off_c, 7, 55, 127
1, 76382, Note_off_c, 11, 70, 127
1, 76384, Note_on_c, 2, 74, 127
1, 76384, Note_on_c, 5, 53, 127
1, 76716, Note_off_c, 7, 43, 127
1, 76716, Note_off_c, 7, 67, 127
1, 76721, Note_off_c, 5, 53, 127
1, 76721, Note_off_c, 2, 74, 127
1, 76723, Note_on_c, 7, 79, 127
1, 76723, Note_on_c, 3, 51, 127
1, 77060, Note_off_c, 3, 51, 127
1, 77060, Note_off_c, 7, 79, 127
1, 77062, Note_on_c, 12, 59, 127
1, 77062, Note_on_c, 5, 77, 127
1, 77062, Note_on_c, 5, 53, 127
1, 77230, Note_off_c, 5, 53, 127
1, 77232, Note_on_c, 7, 55, 127
1, 77400, Note_off_c, 7, 55, 127
1, 77400, Note_off_c, 5, 77, 127
1, 77400, Note_off_c, 12, 59, 127
1, 77402, Note_on_c, 3, 75, 127
1, 77402, Note_on_c, 0, 60, 127
1, 77402, Note_on_c, 0, 48, 127
1, 77739, Note_off_c, 0, 60, 127
1, 77741, Note_on_c, 2, 62, 127
1, 77896, Note_off_c, 3, 75, 127
1, 77910, Note_on_c, 2, 74, 127
1, 78072, Note_off_c, 0, 48, 127
1, 78076, Note_off_c, 2, 62, 127
1, 78080, Note_on_c, 4, 64, 127
1, 78246, Note_off_c, 2, 74, 127
1, 78250, Note_on_c, 0, 72, 127
1, 78416, Note_off_c, 4, 64, 127
1, 78418, Note_off_c, 0, 72, 127
1, 78420, Note_on_c, 6, 66, 127
1, 78420, Note_on_c, 11, 70, 127
1, 78420, Note_on_c, 2, 50, 127
1, 78588, Note_off_c, 11, 70, 127
1, 78590, Note_on_c, 0, 72, 127
1, 78673, Note_off_c, 0, 72, 127
1, 78675, Note_on_c, 10, 69, 127
1, 78756, Note_off_c, 6, 66, 127
1, 78758, Note_off_c, 10, 69, 127
1, 78758, Note_off_c, 2, 50, 127
1, 78760, Note_on_c, 7, 67, 127
1, 78760, Note_on_c, 11, 70, 127
1, 78760, Note_on_c, 7, 55, 127
1, 78928, Note_off_c, 11, 70, 127
1, 78930, Note_on_c, 0, 72, 127
1, 79013, Note_off_c, 0, 72, 127
1, 79015, Note_on_c, 2, 74, 127
1, 79096, Note_off_c, 7, 67, 127
1, 79098, Note_off_c, 2, 74, 127
1, 79100, Note_on_c, 0, 72, 127
1, 79100, Note_on_c, 10, 69, 127
1, 79268, Note_off_c, 0, 72, 127
1, 79270, Note_on_c, 2, 74, 127
1, 79353, Note_off_c, 2, 74, 127
1, 79355, Note_on_c, 3, 75, 127
1, 79433, Note_off_c, 7, 55, 127
1, 79437, Note_off_c, 10, 69, 127
1, 79439, Note_off_c, 3, 75, 127
1, 79441, Note_on_c, 2, 74, 127
1, 79441, Note_on_c, 11, 70, 127
1, 79609, Note_off_c, 11, 70, 127
1, 79611, Note_on_c, 0, 72, 127
1, 79694, Note_off_c, 0, 72, 127
1, 79696, Note_on_c, 11, 70, 127
1, 79777, Note_off_c, 2, 74, 127
1, 79779, Note_off_c, 11, 70, 127
1, 79781, Note_on_c, 10, 69, 127
1, 79781, Note_on_c, 3, 75, 127
1, 79781, Note_on_c, 0, 60, 127
1, 79949, Note_off_c, 10, 69, 127
1, 79951, Note_on_c, 11, 70, 127
1, 80034, Note_off_c, 11, 70, 127
1, 80036, Note_on_c, 7, 67, 127
1, 80117, Note_off_c, 3, 75, 127
1, 80119, Note_off_c, 7, 67, 127
1, 80119, Note_off_c, 0, 60, 127
1, 80121, Note_on_c, 10, 69, 127
1, 80121, Note_on_c, 6, 66, 127
1, 80121, Note_on_c, 2, 62, 127
1, 80458, Note_off_c, 2, 62, 127
1, 80460, Note_on_c, 0, 60, 127
1, 80628, Note_off_c, 10, 69, 127
1, 80630, Note_on_c, 10, 69, 127
1, 80798, Note_off_c, 10, 69, 127
1, 80798, Note_off_c, 0, 60, 127
1, 80800, Note_on_c, 2, 74, 127
1, 80800, Note_on_c, 11, 58, 127
1, 80864, Note_off_c, 6, 66, 127
1, 80970, Note_on_c, 7, 67, 127
1, 81136, Note_off_c, 2, 74, 127
1, 81138, Note_off_c, 11, 58, 127
1, 81140, Note_on_c, 0, 72, 127
1, 81140, Note_on_c, 10, 57, 127
1, 81140, Note_on_c, 2, 50, 127
1, 81306, Note_off_c, 7, 67, 127
1, 81310, Note_on_c, 6, 66, 127
1, 81476, Note_off_c, 0, 72, 127
1, 81478, Note_off_c, 6, 66, 127
1, 81478, Note_off_c, 2, 50, 127
1, 81478, Note_off_c, 10, 57, 127
1, 81480, Note_on_c, 7, 67, 127
1, 81480, Note_on_c, 11, 70, 127
1, 81480, Note_on_c, 7, 55, 127
1, 81480, Note_on_c, 7, 43, 127
1, 81817, Note_off_c, 7, 43, 127
1, 81819, Note_on_c, 10, 45, 127
1, 82151, Note_off_c, 7, 55, 127
1, 82156, Note_off_c, 10, 45, 127
1, 82156, Note_off_c, 7, 67, 127
1, 82158, Note_on_c, 2, 62, 127
1, 82158, Note_on_c, 7, 67, 127
1, 82158, Note_on_c, 11, 46, 127
1, 82495, Note_off_c, 11, 46, 127
1, 82497, Note_on_c, 0, 48, 127
1, 82834, Note_off_c, 0, 48, 127
1, 82834, Note_off_c, 11, 70, 127
1, 82836, Note_on_c, 10, 69, 127
1, 82836, Note_on_c, 2, 50, 127
1, 82900, Note_off_c, 7, 67, 127
1, 83006, Note_on_c, 6, 66, 127
1, 83174, Note_off_c, 2, 50, 127
1, 83176, Note_on_c, 4, 52, 127
1, 83344, Note_off_c, 6, 66, 127
1, 83346, Note_on_c, 7, 67, 127
1, 83508, Note_off_c, 10, 69, 127
1, 83513, Note_off_c, 4, 52, 127
1, 83513, Note_off_c, 2, 62, 127
1, 83515, Note_on_c, 2, 74, 127
1, 83515, Note_on_c, 6, 54, 127
1, 83681, Note_off_c, 7, 67, 127
1, 83685, Note_on_c, 10, 69, 127
1, 83853, Note_off_c, 10, 69, 127
1, 83853, Note_off_c, 6, 54, 127
1, 83855, Note_on_c, 7, 67, 127
1, 83855, Note_on_c, 4, 52, 127
1, 83855, Note_on_c, 2, 62, 127
1, 84023, Note_off_c, 4, 52, 127
1, 84023, Note_off_c, 7, 67, 127
1, 84025, Note_on_c, 6, 66, 127
1, 84025, Note_on_c, 2, 50, 127
1, 84191, Note_off_c, 2, 62, 127
1, 84193, Note_off_c, 2, 50, 127
1, 84193, Note_off_c, 6, 66, 127
1, 84195, Note_on_c, 7, 67, 127
1, 84195, Note_on_c, 3, 51, 127
1, 84195, Note_on_c, 11, 58, 127
1, 84532, Note_off_c, 11, 58, 127
1, 84532, Note_off_c, 2, 74, 127
1, 84534, Note_on_c, 0, 72, 127
1, 84534, Note_on_c, 10, 57, 127
1, 84702, Note_off_c, 10, 57, 127
1, 84702, Note_off_c, 0, 72, 127
1, 84704, Note_on_c, 11, 70, 127
1, 84704, Note_on_c, 7, 55, 127
1, 84866, Note_off_c, 7, 67, 127
1, 84871, Note_off_c, 7, 55, 127
1, 84871, Note_off_c, 11, 70, 127
1, 84873, Note_on_c, 0, 72, 127
1, 84873, Note_on_c, 0, 60, 127
1, 85041, Note_off_c, 0, 72, 127
1, 85043, Note_on_c, 2, 74, 127
1, 85126, Note_off_c, 2, 74, 127
1, 85128, Note_on_c, 3, 75, 127
1, 85211, Note_off_c, 3, 75, 127
1, 85211, Note_off_c, 0, 60, 127
1, 85211, Note_off_c, 3, 51, 127
1, 85213, Note_on_c, 3, 63, 127
1, 85213, Note_on_c, 10, 69, 127
1, 85213, Note_on_c, 0, 48, 127
1, 85213, Note_on_c, 11, 58, 127
1, 85381, Note_off_c, 10, 69, 127
1, 85383, Note_on_c, 11, 70, 127
1, 85466, Note_off_c, 11, 70, 127
1, 85468, Note_on_c, 7, 67, 127
1, 85549, Note_off_c, 3, 63, 127
1, 85551, Note_off_c, 7, 67, 127
1, 85551, Note_off_c, 11, 58, 127
1, 85551, Note_off_c, 0, 48, 127
1, 85553, Note_on_c, 10, 57, 127
1, 85553, Note_on_c, 0, 48, 127
1, 85553, Note_on_c, 6, 66, 127
1, 85553, Note_on_c, 2, 62, 127
1, 85738, Note_off_c, 0, 48, 127
1, 85740, Note_on_c, 2, 50, 127
1, 85828, Note_off_c, 2, 50, 127
1, 85835, Note_on_c, 3, 51, 127
1, 85923, Note_off_c, 3, 51, 127
1, 85925, Note_off_c, 10, 57, 127
1, 85927, Note_off_c, 2, 62, 127
1, 85927, Note_off_c, 6, 66, 127
1, 85929, Note_on_c, 2, 50, 127
1, 85929, Note_on_c, 10, 57, 127
1, 85929, Note_on_c, 6, 66, 127
1, 85929, Note_on_c, 2, 62, 127
1, 86114, Note_off_c, 2, 50, 127
1, 86118, Note_on_c, 3, 51, 127
1, 86206, Note_off_c, 3, 51, 127
1, 86213, Note_on_c, 0, 48, 127
1, 86301, Note_off_c, 0, 48, 127
1, 86301, Note_off_c, 10, 57, 127
1, 86303, Note_off_c, 2, 62, 127
1, 86303, Note_off_c, 6, 66, 127
1, 86307, Note_on_c, 11, 46, 127
1, 86307, Note_on_c, 7, 67, 127
1, 86307, Note_on_c, 2, 62, 127
1, 86307, Note_on_c, 4, 64, 127
1, 86570, Note_on_c, 2, 50, 127
1, 86586, Note_off_c, 11, 46, 127
1, 86680, Note_off_c, 2, 50, 127
1, 86682, Note_off_c, 4, 64, 127
1, 86682, Note_off_c, 2, 62, 127
1, 86682, Note_off_c, 7, 67, 127
1, 86686, Note_on_c, 10, 45, 127
1, 86686, Note_on_c, 6, 66, 127
1, 86686, Note_on_c, 10, 69, 127
1, 86686, Note_on_c, 2, 62, 127
1, 86949, Note_on_c, 2, 50, 127
1, 86965, Note_off_c, 10, 45, 127
1, 87059, Note_off_c, 2, 50, 127
1, 87061, Note_off_c, 2, 62, 127
1, 87061, Note_off_c, 10, 69, 127
1, 87061, Note_off_c, 6, 66, 127
1, 87065, Note_on_c, 7, 43, 127
1, 87065, Note_on_c, 7, 67, 127
1, 87065, Note_on_c, 11, 58, 127
1, 87065, Note_on_c, 2, 62, 127
1, 87065, Note_on_c, 11, 70, 127
1, 87328, Note_on_c, 2, 50, 127
1, 87344, Note_off_c, 7, 43, 127
1, 87438, Note_off_c, 2, 50, 127
1, 87440, Note_off_c, 11, 70, 127
1, 87440, Note_off_c, 2, 62, 127
1, 87440, Note_off_c, 11, 58, 127
1, 87440, Note_off_c, 7, 67, 127
1, 87442, Note_on_c, 7, 55, 127
1, 87442, Note_on_c, 12, 71, 127
1, 87442, Note_on_c, 7, 67, 127
1, 87442, Note_on_c, 2, 62, 127
1, 87627, Note_off_c, 7, 55, 127
1, 87631, Note_on_c, 8, 56, 127
1, 87719, Note_off_c, 8, 56, 127
1, 87726, Note_on_c, 5, 53, 127
1, 87814, Note_off_c, 5, 53, 127
1, 87816, Note_off_c, 2, 62, 127
1, 87816, Note_off_c, 7, 67, 127
1, 87816, Note_off_c, 12, 71, 127
1, 87820, Note_on_c, 3, 51, 127
1, 87820, Note_on_c, 10, 69, 127
1, 87820, Note_on_c, 7, 67, 127
1, 87820, Note_on_c, 0, 72, 127
1, 88085, Note_on_c, 7, 55, 127
1, 88099, Note_off_c, 3, 51, 127
1, 88194, Note_off_c, 7, 55, 127
1, 88194, Note_off_c, 0, 72, 127
1, 88194, Note_off_c, 7, 67, 127
1, 88194, Note_off_c, 10, 69, 127
1, 88196, Note_on_c, 2, 50, 127
1, 88196, Note_on_c, 2, 74, 127
1, 88196, Note_on_c, 12, 71, 127
1, 88196, Note_on_c, 7, 67, 127
1, 88196, Note_on_c, 5, 65, 127
1, 88461, Note_on_c, 7, 55, 127
1, 88475, Note_off_c, 2, 50, 127
1, 88570, Note_off_c, 7, 55, 127
1, 88570, Note_off_c, 5, 65, 127
1, 88570, Note_off_c, 7, 67, 127
1, 88570, Note_off_c, 12, 71, 127
1, 88570, Note_off_c, 2, 74, 127
1, 88575, Note_on_c, 0, 48, 127
1, 88575, Note_on_c, 3, 75, 127
1, 88575, Note_on_c, 0, 72, 127
1, 88575, Note_on_c, 3, 63, 127
1, 88575, Note_on_c, 7, 67, 127
1, 88838, Note_on_c, 7, 55, 127
1, 88854, Note_off_c, 0, 48, 127
1, 88948, Note_off_c, 7, 55, 127
1, 88950, Note_off_c, 7, 67, 127
1, 88950, Note_off_c, 3, 63, 127
1, 88950, Note_off_c, 0, 72, 127
1, 88950, Note_off_c, 3, 75, 127
1, 88952, Note_on_c, 0, 60, 127
1, 88952, Note_on_c, 4, 76, 127
1, 88952, Note_on_c, 0, 72, 127
1, 88952, Note_on_c, 7, 67, 127
1, 89137, Note_off_c, 0, 60, 127
1, 89141, Note_on_c, 2, 62, 127
1, 89229, Note_off_c, 2, 62, 127
1, 89236, Note_on_c, 11, 58, 127
1, 89324, Note_off_c, 11, 58, 127
1, 89326, Note_off_c, 7, 67, 127
1, 89326, Note_off_c, 0, 72, 127
1, 89326, Note_off_c, 4, 76, 127
1, 89330, Note_on_c, 10, 57, 127
1, 89330, Note_on_c, 6, 78, 127
1, 89330, Note_on_c, 2, 74, 127
1, 89330, Note_on_c, 0, 72, 127
1, 89593, Note_on_c, 0, 60, 127
1, 89609, Note_off_c, 10, 57, 127
1, 89703, Note_off_c, 0, 60, 127
1, 89705, Note_off_c, 0, 72, 127
1, 89705, Note_off_c, 2, 74, 127
1, 89705, Note_off_c, 6, 78, 127
1, 89707, Note_on_c, 7, 55, 127
1, 89707, Note_on_c, 11, 70, 127
1, 89707, Note_on_c, 3, 75, 127
1, 89707, Note_on_c, 7, 79, 127
1, 89707, Note_on_c, 2, 74, 127
1, 89972, Note_on_c, 0, 60, 127
1, 89986, Note_off_c, 7, 55, 127
1, 90081, Note_off_c, 0, 60, 127
1, 90081, Note_off_c, 2, 74, 127
1, 90081, Note_off_c, 7, 79, 127
1, 90081, Note_off_c, 3, 75, 127
1, 90081, Note_off_c, 11, 70, 127
1, 90097, Note_on_c, 3, 75, 127
1, 90097, Note_on_c, 10, 69, 127
1, 90097, Note_on_c, 0, 72, 127
1, 90097, Note_on_c, 10, 81, 127
1, 90097, Note_on_c, 6, 54, 127
1, 90268, Note_off_c, 6, 54, 127
1, 90282, Note_on_c, 0, 60, 127
1, 90379, Note_on_c, 11, 58, 127
1, 90381, Note_off_c, 0, 60, 127
1, 90443, Note_off_c, 10, 81, 127
1, 90443, Note_off_c, 0, 72, 127
1, 90443, Note_off_c, 10, 69, 127
1, 90443, Note_off_c, 3, 75, 127
1, 90475, Note_on_c, 10, 57, 127
1, 90475, Note_on_c, 2, 74, 127
1, 90475, Note_on_c, 7, 79, 127
1, 90475, Note_on_c, 11, 70, 127
1, 90479, Note_off_c, 11, 58, 127
1, 90647, Note_off_c, 10, 57, 127
1, 90661, Note_on_c, 11, 58, 127
1, 90756, Note_off_c, 11, 58, 127
1, 90760, Note_on_c, 7, 55, 127
1, 90822, Note_off_c, 11, 70, 127
1, 90822, Note_off_c, 7, 79, 127
1, 90822, Note_off_c, 2, 74, 127
1, 90854, Note_on_c, 10, 81, 127
1, 90854, Note_on_c, 2, 74, 127
1, 90854, Note_on_c, 6, 54, 127
1, 90858, Note_off_c, 7, 55, 127
1, 91109, Note_on_c, 0, 60, 127
1, 91201, Note_off_c, 2, 74, 127
1, 91201, Note_off_c, 10, 81, 127
1, 91208, Note_off_c, 6, 54, 127
1, 91212, Note_off_c, 0, 60, 127
1, 91233, Note_on_c, 4, 52, 127
1, 91233, Note_on_c, 7, 79, 127
1, 91233, Note_on_c, 11, 82, 127
1, 91496, Note_on_c, 0, 60, 127
1, 91547, Note_off_c, 4, 52, 127
1, 91596, Note_off_c, 11, 82, 127
1, 91596, Note_off_c, 7, 79, 127
1, 91610, Note_off_c, 0, 60, 127
1, 91658, Note_on_c, 10, 81, 127
1, 91658, Note_on_c, 0, 84, 127
1, 91658, Note_on_c, 6, 78, 127
1, 91658, Note_on_c, 2, 50, 127
1, 92230, Note_on_c, 2, 74, 127
1, 92230, Note_on_c, 7, 79, 127
1, 92246, Note_off_c, 6, 78, 127
1, 92246, Note_off_c, 0, 84, 127
1, 92246, Note_off_c, 10, 81, 127
1, 92454, Note_on_c, 11, 82, 127
1, 92608, Note_off_c, 7, 79, 127
1, 92608, Note_off_c, 2, 74, 127
1, 92643, Note_off_c, 11, 82, 127
1, 92677, Note_on_c, 0, 72, 127
1, 92677, Note_on_c, 6, 78, 127
1, 92901, Note_on_c, 10, 81, 127
1, 93055, Note_off_c, 6, 78, 127
1, 93055, Note_off_c, 0, 72, 127
1, 93090, Note_off_c, 10, 81, 127
1, 93125, Note_on_c, 11, 70, 127
1, 93125, Note_on_c, 1, 73, 127
1, 93125, Note_on_c, 4, 76, 127
1, 93347, Note_on_c, 7, 79, 127
1, 93502, Note_off_c, 4, 76, 127
1, 93502, Note_off_c, 1, 73, 127
1, 93502, Note_off_c, 11, 70, 127
1, 93536, Note_off_c, 7, 79, 127
1, 93587, Note_on_c, 6, 78, 127
1, 93587, Note_on_c, 2, 74, 127
1, 93587, Note_on_c, 10, 69, 127
1, 94017, Note_off_c, 2, 50, 127
1, 94987, Note_off_c, 10, 69, 127
1, 94987, Note_off_c, 2, 74, 127
1, 94987, Note_off_c, 6, 78, 127
1, 95039, Note_on_c, 2, 62, 127
1, 95039, Note_on_c, 11, 70, 127
1, 95411, Note_on_c, 0, 72, 127
1, 95411, Note_on_c, 3, 63, 127
1, 95418, Note_off_c, 11, 70, 127
1, 95418, Note_off_c, 2, 62, 127
1, 95603, Note_on_c, 3, 75, 127
1, 95659, Note_off_c, 0, 72, 127
1, 95693, Note_off_c, 3, 75, 127
1, 95704, Note_on_c, 0, 72, 127
1, 95778, Note_off_c, 3, 63, 127
1, 95794, Note_off_c, 0, 72, 127
1, 95812, Note_on_c, 2, 62, 127
1, 95812, Note_on_c, 11, 70, 127
1, 96006, Note_on_c, 3, 75, 127
1, 96061, Note_off_c, 11, 70, 127
1, 96096, Note_off_c, 3, 75, 127
1, 96108, Note_on_c, 11, 70, 127
1, 96179, Note_off_c, 2, 62, 127
1, 96198, Note_off_c, 11, 70, 127
1, 96210, Note_on_c, 10, 69, 127
1, 96210, Note_on_c, 0, 60, 127
1, 96408, Note_on_c, 3, 75, 127
1, 96459, Note_off_c, 10, 69, 127
1, 96498, Note_off_c, 3, 75, 127
1, 96512, Note_on_c, 10, 69, 127
1, 96577, Note_off_c, 0, 60, 127
1, 96602, Note_off_c, 10, 69, 127
1, 96611, Note_on_c, 11, 58, 127
1, 96611, Note_on_c, 7, 67, 127
1, 96814, Note_on_c, 3, 75, 127
1, 96860, Note_off_c, 7, 67, 127
1, 96934, Note_on_c, 7, 67, 127
1, 96936, Note_off_c, 3, 75, 127
1, 96978, Note_off_c, 11, 58, 127
1, 97050, Note_off_c, 7, 67, 127
1, 97071, Note_on_c, 0, 36, 127
1, 97071, Note_on_c, 0, 48, 127
1, 97071, Note_on_c, 2, 62, 127
1, 97071, Note_on_c, 6, 66, 127
1, 97071, Note_on_c, 10, 57, 127
1, 97579, Note_off_c, 6, 66, 127
1, 97881, Note_off_c, 2, 62, 127
1, 97927, Note_on_c, 7, 67, 127
1, 98024, Note_off_c, 7, 67, 127
1, 98028, Note_on_c, 6, 66, 127
1, 98095, Note_off_c, 10, 57, 127
1, 98125, Note_off_c, 6, 66, 127
1, 98130, Note_on_c, 4, 64, 127
1, 98227, Note_off_c, 4, 64, 127
1, 98232, Note_on_c, 2, 62, 127
1, 98299, Note_off_c, 0, 48, 127
1, 98299, Note_off_c, 0, 36, 127
1, 98329, Note_off_c, 2, 62, 127
1, 98336, Note_on_c, 0, 60, 127
1, 98433, Note_off_c, 0, 60, 127
1, 98438, Note_on_c, 11, 58, 127
1, 98535, Note_off_c, 11, 58, 127
1, 98542, Note_on_c, 10, 57, 127
1, 98639, Note_off_c, 10, 57, 127
1, 98643, Note_on_c, 7, 55, 127
1, 98740, Note_off_c, 7, 55, 127
1, 98745, Note_on_c, 6, 54, 127
1, 98842, Note_off_c, 6, 54, 127
1, 98849, Note_on_c, 7, 55, 127
1, 98946, Note_off_c, 7, 55, 127
1, 98951, Note_on_c, 1, 49, 127
1, 99048, Note_off_c, 1, 49, 127
1, 99055, Note_on_c, 2, 50, 127
1, 99311, Note_on_c, 4, 52, 127
1, 99408, Note_off_c, 4, 52, 127
1, 99412, Note_on_c, 6, 54, 127
1, 99509, Note_off_c, 6, 54, 127
1, 99516, Note_on_c, 10, 57, 127
1, 99613, Note_off_c, 10, 57, 127
1, 99618, Note_on_c, 7, 55, 127
1, 99715, Note_off_c, 7, 55, 127
1, 99722, Note_on_c, 10, 57, 127
1, 99923, Note_off_c, 10, 57, 127
1, 99960, Note_on_c, 0, 60, 127
1, 100057, Note_off_c, 0, 60, 127
1, 100064, Note_on_c, 11, 58, 127
1, 100161, Note_off_c, 11, 58, 127
1, 100165, Note_on_c, 0, 60, 127
1, 100396, Note_off_c, 0, 60, 127
1, 100405, Note_on_c, 2, 62, 127
1, 100627, Note_on_c, 4, 52, 127
1, 100636, Note_off_c, 2, 62, 127
1, 100692, Note_off_c, 2, 50, 127
1, 100851, Note_on_c, 2, 38, 127
1, 100851, Note_on_c, 6, 54, 127
1, 100858, Note_off_c, 4, 52, 127
1, 101089, Note_on_c, 0, 60, 127
1, 101290, Note_off_c, 0, 60, 127
1, 101329, Note_on_c, 11, 58, 127
1, 101447, Note_off_c, 6, 54, 127
1, 101569, Note_on_c, 7, 55, 127
1, 101770, Note_off_c, 7, 55, 127
1, 101809, Note_on_c, 1, 49, 127
1, 101940, Note_off_c, 11, 58, 127
1, 102049, Note_on_c, 4, 64, 127
1, 102280, Note_off_c, 4, 64, 127
1, 102289, Note_on_c, 6, 66, 127
1, 102520, Note_off_c, 6, 66, 127
1, 102527, Note_on_c, 7, 67, 127
1, 102626, Note_off_c, 1, 49, 127
1, 102767, Note_on_c, 2, 50, 127
1, 102767, Note_on_c, 11, 58, 127
1, 102968, Note_off_c, 11, 58, 127
1, 102972, Note_on_c, 0, 60, 127
1, 103069, Note_off_c, 0, 60, 127
1, 103076, Note_on_c, 11, 58, 127
1, 103173, Note_off_c, 11, 58, 127
1, 103178, Note_on_c, 10, 57, 127
1, 103275, Note_off_c, 10, 57, 127
1, 103280, Note_on_c, 11, 58, 127
1, 103336, Note_off_c, 7, 67, 127
1, 103377, Note_off_c, 11, 58, 127
1, 103382, Note_on_c, 7, 55, 127
1, 103622, Note_on_c, 0, 60, 127
1, 103686, Note_off_c, 7, 55, 127
1, 103725, Note_on_c, 11, 58, 127
1, 103822, Note_off_c, 11, 58, 127
1, 103827, Note_on_c, 10, 57, 127
1, 103924, Note_off_c, 10, 57, 127
1, 103929, Note_on_c, 7, 55, 127
1, 103994, Note_off_c, 2, 50, 127
1, 104026, Note_off_c, 7, 55, 127
1, 104044, Note_on_c, 6, 54, 127
1, 104153, Note_on_c, 2, 50, 127
1, 104185, Note_off_c, 2, 38, 127
1, 104250, Note_off_c, 2, 50, 127
1, 104266, Note_on_c, 0, 48, 127
1, 104363, Note_off_c, 0, 48, 127
1, 104372, Note_on_c, 2, 50, 127
1, 104448, Note_off_c, 6, 54, 127
1, 104469, Note_off_c, 2, 50, 127
1, 104494, Note_on_c, 3, 51, 127
1, 104494, Note_on_c, 7, 55, 127
1, 104494, Note_on_c, 7, 43, 127
1, 104969, Note_off_c, 0, 60, 127
1, 105190, Note_on_c, 2, 62, 127
1, 105287, Note_off_c, 2, 62, 127
1, 105294, Note_on_c, 3, 63, 127
1, 105391, Note_off_c, 3, 63, 127
1, 105395, Note_on_c, 2, 62, 127
1, 105492, Note_off_c, 2, 62, 127
1, 105499, Note_on_c, 0, 60, 127
1, 105700, Note_off_c, 0, 60, 127
1, 105728, Note_on_c, 2, 62, 127
1, 105825, Note_off_c, 2, 62, 127
1, 105846, Note_on_c, 12, 59, 127
1, 105927, Note_off_c, 7, 55, 127
1, 105927, Note_off_c, 3, 51, 127
1, 105943, Note_off_c, 12, 59, 127
1, 105961, Note_on_c, 0, 60, 127
1, 106141, Note_on_c, 3, 63, 127
1, 106162, Note_off_c, 0, 60, 127
1, 106238, Note_off_c, 3, 63, 127
1, 106256, Note_on_c, 7, 67, 127
1, 106353, Note_off_c, 7, 67, 127
1, 106371, Note_on_c, 10, 57, 127
1, 106371, Note_on_c, 0, 48, 127
1, 106572, Note_off_c, 10, 57, 127
1, 106604, Note_on_c, 0, 60, 127
1, 106701, Note_off_c, 0, 60, 127
1, 106717, Note_on_c, 6, 66, 127
1, 106733, Note_off_c, 7, 43, 127
1, 106779, Note_off_c, 0, 48, 127
1, 106814, Note_off_c, 6, 66, 127
1, 106835, Note_on_c, 2, 50, 127
1, 106835, Note_on_c, 12, 59, 127
1, 107079, Note_on_c, 2, 62, 127
1, 107211, Note_on_c, 7, 67, 127
1, 107243, Note_off_c, 2, 50, 127
1, 107400, Note_on_c, 7, 43, 127
1, 107554, Note_on_c, 12, 47, 127
1, 107708, Note_on_c, 2, 50, 127
1, 107863, Note_on_c, 7, 55, 127
1, 109691, Note_off_c, 12, 59, 127
1, 109837, Note_off_c, 2, 62, 127
1, 109864, Note_off_c, 7, 67, 127
1, 109960, Note_off_c, 7, 43, 127
1, 109963, Note_off_c, 2, 50, 127
1, 109969, Note_off_c, 7, 55, 127
1, 109975, Note_off_c, 12, 47, 127
1, 111367, Note_on_c, 7, 67, 127
1, 111585, Note_off_c, 7, 67, 127
1, 111648, Note_on_c, 3, 63, 127
1, 111928, Note_off_c, 3, 63, 127
1, 111929, Note_on_c, 0, 60, 127
1, 112068, Note_off_c, 0, 60, 127
1, 112069, Note_on_c, 2, 62, 127
1, 112208, Note_off_c, 2, 62, 127
1, 112209, Note_on_c, 3, 63, 127
1, 112489, Note_off_c, 3, 63, 127
1, 112490, Note_on_c, 7, 67, 127
1, 112736, Note_off_c, 7, 67, 127
1, 112771, Note_on_c, 3, 63, 127
1, 113051, Note_off_c, 3, 63, 127
1, 113052, Note_on_c, 0, 60, 127
1, 113462, Note_off_c, 0, 60, 127
1, 113614, Note_on_c, 7, 67, 127
1, 113852, Note_off_c, 7, 67, 127
1, 113895, Note_on_c, 3, 63, 127
1, 114175, Note_off_c, 3, 63, 127
1, 114176, Note_on_c, 0, 60, 127
1, 114315, Note_off_c, 0, 60, 127
1, 114316, Note_on_c, 2, 62, 127
1, 114455, Note_off_c, 2, 62, 127
1, 114456, Note_on_c, 3, 63, 127
1, 114736, Note_off_c, 3, 63, 127
1, 114737, Note_on_c, 7, 67, 127
1, 115017, Note_off_c, 7, 67, 127
1, 115018, Note_on_c, 3, 63, 127
1, 115298, Note_off_c, 3, 63, 127
1, 115299, Note_on_c, 0, 60, 127
1, 115709, Note_off_c, 0, 60, 127
1, 115861, Note_on_c, 7, 67, 127
1, 116141, Note_off_c, 7, 67, 127
1, 116142, Note_on_c, 8, 68, 127
1, 116422, Note_off_c, 8, 68, 127
1, 116423, Note_on_c, 8, 68, 127
1, 116843, Note_off_c, 8, 68, 127
1, 116844, Note_on_c, 7, 67, 127
1, 116983, Note_off_c, 7, 67, 127
1, 116984, Note_on_c, 8, 68, 127
1, 117123, Note_off_c, 8, 68, 127
1, 117124, Note_on_c, 5, 65, 127
1, 117263, Note_off_c, 5, 65, 127
1, 117264, Note_on_c, 7, 67, 127
1, 117544, Note_off_c, 7, 67, 127
1, 117545, Note_on_c, 7, 67, 127
1, 117965, Note_off_c, 7, 67, 127
1, 117966, Note_on_c, 5, 65, 127
1, 118105, Note_off_c, 5, 65, 127
1, 118106, Note_on_c, 7, 67, 127
1, 118245, Note_off_c, 7, 67, 127
1, 118246, Note_on_c, 3, 63, 127
1, 118385, Note_off_c, 3, 63, 127
1, 118386, Note_on_c, 5, 65, 127
1, 118666, Note_off_c, 5, 65, 127
1, 118667, Note_on_c, 5, 65, 127
1, 119087, Note_off_c, 5, 65, 127
1, 119088, Note_on_c, 3, 63, 127
1, 119227, Note_off_c, 3, 63, 127
1, 119228, Note_on_c, 5, 65, 127
1, 119367, Note_off_c, 5, 65, 127
1, 119368, Note_on_c, 2, 62, 127
1, 119507, Note_off_c, 2, 62, 127
1, 119508, Note_on_c, 3, 63, 127
1, 119647, Note_off_c, 3, 63, 127
1, 119648, Note_on_c, 2, 62, 127
1, 119787, Note_off_c, 2, 62, 127
1, 119788, Note_on_c, 0, 60, 127
1, 119927, Note_off_c, 0, 60, 127
1, 119928, Note_on_c, 2, 62, 127
1, 120067, Note_off_c, 2, 62, 127
1, 120068, Note_on_c, 3, 63, 127
1, 120207, Note_off_c, 3, 63, 127
1, 120208, Note_on_c, 5, 65, 127
1, 120347, Note_off_c, 5, 65, 127
1, 120348, Note_on_c, 7, 67, 127
1, 120487, Note_off_c, 7, 67, 127
1, 120488, Note_on_c, 3, 63, 127
1, 120627, Note_off_c, 3, 63, 127
1, 120628, Note_on_c, 8, 68, 127
1, 120767, Note_off_c, 8, 68, 127
1, 120768, Note_on_c, 12, 59, 127
1, 120907, Note_off_c, 12, 59, 127
1, 120908, Note_on_c, 0, 60, 127
1, 121047, Note_off_c, 0, 60, 127
1, 121048, Note_on_c, 2, 62, 127
1, 121187, Note_off_c, 2, 62, 127
1, 121188, Note_on_c, 7, 55, 127
1, 121327, Note_off_c, 7, 55, 127
1, 121328, Note_on_c, 3, 63, 127
1, 121467, Note_off_c, 3, 63, 127
1, 121468, Note_on_c, 2, 62, 127
1, 121607, Note_off_c, 2, 62, 127
1, 121608, Note_on_c, 0, 60, 127
1, 121747, Note_off_c, 0, 60, 127
1, 121748, Note_on_c, 0, 60, 127
1, 122028, Note_off_c, 0, 60, 127
1, 122029, Note_on_c, 0, 60, 127
1, 122168, Note_off_c, 0, 60, 127
1, 122169, Note_on_c, 2, 62, 127
1, 122308, Note_off_c, 2, 62, 127
1, 122309, Note_on_c, 3, 63, 127
1, 122589, Note_off_c, 3, 63, 127
1, 122590, Note_on_c, 0, 60, 127
1, 122590, Note_on_c, 0, 72, 127
1, 122870, Note_off_c, 0, 72, 127
1, 122870, Note_off_c, 0, 60, 127
1, 122871, Note_on_c, 7, 67, 127
1, 122871, Note_on_c, 11, 70, 127
1, 123151, Note_off_c, 11, 70, 127
1, 123151, Note_off_c, 7, 67, 127
1, 123152, Note_on_c, 7, 55, 127
1, 123152, Note_on_c, 7, 67, 127
1, 123291, Note_off_c, 7, 67, 127
1, 123292, Note_on_c, 10, 69, 127
1, 123431, Note_off_c, 10, 69, 127
1, 123432, Note_on_c, 11, 70, 127
1, 123561, Note_off_c, 7, 55, 127
1, 123712, Note_off_c, 11, 70, 127
1, 123713, Note_on_c, 6, 66, 127
1, 123713, Note_on_c, 2, 74, 127
1, 123993, Note_off_c, 2, 74, 127
1, 123993, Note_off_c, 6, 66, 127
1, 123994, Note_on_c, 7, 67, 127
1, 123994, Note_on_c, 11, 70, 127
1, 124274, Note_off_c, 11, 70, 127
1, 124274, Note_off_c, 7, 67, 127
1, 124275, Note_on_c, 7, 55, 127
1, 124275, Note_on_c, 7, 67, 127
1, 124414, Note_off_c, 7, 55, 127
1, 124415, Note_on_c, 10, 57, 127
1, 124554, Note_off_c, 10, 57, 127
1, 124555, Note_on_c, 11, 58, 127
1, 124684, Note_off_c, 7, 67, 127
1, 124835, Note_off_c, 11, 58, 127
1, 124836, Note_on_c, 6, 66, 127
1, 124836, Note_on_c, 2, 74, 127
1, 125116, Note_off_c, 2, 74, 127
1, 125116, Note_off_c, 6, 66, 127
1, 125117, Note_on_c, 7, 67, 127
1, 125117, Note_on_c, 11, 70, 127
1, 125397, Note_off_c, 11, 70, 127
1, 125397, Note_off_c, 7, 67, 127
1, 125398, Note_on_c, 7, 55, 127
1, 125398, Note_on_c, 7, 67, 127
1, 125537, Note_off_c, 7, 67, 127
1, 125538, Note_on_c, 10, 69, 127
1, 125677, Note_off_c, 10, 69, 127
1, 125678, Note_on_c, 11, 70, 127
1, 125807, Note_off_c, 7, 55, 127
1, 125958, Note_off_c, 11, 70, 127
1, 125959, Note_on_c, 6, 66, 127
1, 125959, Note_on_c, 2, 74, 127
1, 126239, Note_off_c, 2, 74, 127
1, 126239, Note_off_c, 6, 66, 127
1, 126240, Note_on_c, 7, 67, 127
1, 126240, Note_on_c, 11, 70, 127
1, 126379, Note_off_c, 7, 67, 127
1, 126380, Note_on_c, 10, 69, 127
1, 126519, Note_off_c, 10, 69, 127
1, 126519, Note_off_c, 11, 70, 127
1, 126520, Note_on_c, 11, 70, 127
1, 126520, Note_on_c, 7, 67, 127
1, 126659, Note_off_c, 11, 70, 127
1, 126660, Note_on_c, 10, 69, 127
1, 126798, Note_off_c, 7, 67, 127
1, 126799, Note_off_c, 10, 69, 127
1, 126800, Note_on_c, 7, 67, 127
1, 126939, Note_off_c, 7, 67, 127
1, 126940, Note_on_c, 5, 65, 127
1, 127079, Note_off_c, 5, 65, 127
1, 127080, Note_on_c, 3, 63, 127
1, 127080, Note_on_c, 2, 74, 127
1, 127219, Note_off_c, 3, 63, 127
1, 127220, Note_on_c, 2, 62, 127
1, 127359, Note_off_c, 2, 62, 127
1, 127359, Note_off_c, 2, 74, 127
1, 127360, Note_on_c, 0, 60, 127
1, 127360, Note_on_c, 3, 75, 127
1, 127499, Note_off_c, 0, 60, 127
1, 127500, Note_on_c, 7, 67, 127
1, 127639, Note_off_c, 7, 67, 127
1, 127639, Note_off_c, 3, 75, 127
1, 127640, Note_on_c, 0, 72, 127
1, 127640, Note_on_c, 3, 75, 127
1, 127779, Note_off_c, 0, 72, 127
1, 127780, Note_on_c, 11, 70, 127
1, 127919, Note_off_c, 11, 70, 127
1, 127920, Note_on_c, 10, 69, 127
1, 128059, Note_off_c, 3, 75, 127
1, 128060, Note_on_c, 2, 74, 127
1, 128199, Note_off_c, 2, 74, 127
1, 128199, Note_off_c, 10, 69, 127
1, 128200, Note_on_c, 5, 65, 127
1, 128200, Note_on_c, 3, 75, 127
1, 128339, Note_off_c, 3, 75, 127
1, 128340, Note_on_c, 0, 72, 127
1, 128479, Note_off_c, 0, 72, 127
1, 128479, Note_off_c, 5, 65, 127
1, 128480, Note_on_c, 11, 58, 127
1, 128480, Note_on_c, 2, 74, 127
1, 128619, Note_off_c, 11, 58, 127
1, 128620, Note_on_c, 5, 65, 127
1, 128759, Note_off_c, 5, 65, 127
1, 128759, Note_off_c, 2, 74, 127
1, 128760, Note_on_c, 11, 70, 127
1, 128760, Note_on_c, 2, 74, 127
1, 128899, Note_off_c, 11, 70, 127
1, 128900, Note_on_c, 10, 69, 127
1, 129039, Note_off_c, 10, 69, 127
1, 129040, Note_on_c, 7, 67, 127
1, 129179, Note_off_c, 2, 74, 127
1, 129180, Note_on_c, 0, 72, 127
1, 129319, Note_off_c, 0, 72, 127
1, 129319, Note_off_c, 7, 67, 127
1, 129320, Note_on_c, 3, 63, 127
1, 129320, Note_on_c, 2, 74, 127
1, 129459, Note_off_c, 2, 74, 127
1, 129460, Note_on_c, 11, 70, 127
1, 129599, Note_off_c, 11, 70, 127
1, 129599, Note_off_c, 3, 63, 127
1, 129600, Note_on_c, 10, 57, 127
1, 129600, Note_on_c, 0, 72, 127
1, 129739, Note_off_c, 10, 57, 127
1, 129740, Note_on_c, 4, 64, 127
1, 129879, Note_off_c, 4, 64, 127
1, 129879, Note_off_c, 0, 72, 127
1, 129880, Note_on_c, 10, 69, 127
1, 129880, Note_on_c, 0, 72, 127
1, 130019, Note_off_c, 10, 69, 127
1, 130020, Note_on_c, 7, 67, 127
1, 130159, Note_off_c, 7, 67, 127
1, 130160, Note_on_c, 6, 66, 127
1, 130299, Note_off_c, 0, 72, 127
1, 130300, Note_on_c, 11, 70, 127
1, 130439, Note_off_c, 11, 70, 127
1, 130439, Note_off_c, 6, 66, 127
1, 130440, Note_on_c, 2, 62, 127
1, 130440, Note_on_c, 0, 72, 127
1, 130579, Note_off_c, 0, 72, 127
1, 130580, Note_on_c, 10, 69, 127
1, 130719, Note_off_c, 10, 69, 127
1, 130719, Note_off_c, 2, 62, 127
1, 130720, Note_on_c, 7, 55, 127
1, 130720, Note_on_c, 11, 70, 127
1, 130859, Note_off_c, 11, 70, 127
1, 130860, Note_on_c, 10, 69, 127
1, 130999, Note_off_c, 10, 69, 127
1, 130999, Note_off_c, 7, 55, 127
1, 131000, Note_on_c, 11, 58, 127
1, 131000, Note_on_c, 7, 67, 127
1, 131139, Note_off_c, 7, 67, 127
1, 131139, Note_off_c, 11, 58, 127
1, 131140, Note_on_c, 10, 57, 127
1, 131140, Note_on_c, 10, 69, 127
1, 131279, Note_off_c, 10, 69, 127
1, 131279, Note_off_c, 10, 57, 127
1, 131280, Note_on_c, 7, 55, 127
1, 131280, Note_on_c, 11, 70, 127
1, 131419, Note_off_c, 11, 70, 127
1, 131420, Note_on_c, 0, 72, 127
1, 131559, Note_off_c, 0, 72, 127
1, 131559, Note_off_c, 7, 55, 127
1, 131560, Note_on_c, 7, 67, 127
1, 131560, Note_on_c, 2, 74, 127
1, 131699, Note_off_c, 2, 74, 127
1, 131700, Note_on_c, 11, 70, 127
1, 131839, Note_off_c, 11, 70, 127
1, 131839, Note_off_c, 7, 67, 127
1, 131840, Note_on_c, 0, 60, 127
1, 131840, Note_on_c, 3, 75, 127
1, 131979, Note_off_c, 3, 75, 127
1, 131980, Note_on_c, 6, 66, 127
1, 132119, Note_off_c, 6, 66, 127
1, 132119, Note_off_c, 0, 60, 127
1, 132120, Note_on_c, 3, 63, 127
1, 132120, Note_on_c, 7, 67, 127
1, 132259, Note_off_c, 7, 67, 127
1, 132260, Note_on_c, 10, 69, 127
1, 132399, Note_off_c, 3, 63, 127
1, 132400, Note_on_c, 2, 62, 127
1, 132464, Note_off_c, 10, 69, 127
1, 132540, Note_on_c, 11, 70, 127
1, 132679, Note_off_c, 11, 70, 127
1, 132679, Note_off_c, 2, 62, 127
1, 132680, Note_on_c, 2, 50, 127
1, 132680, Note_on_c, 10, 69, 127
1, 132819, Note_off_c, 10, 69, 127
1, 132820, Note_on_c, 7, 67, 127
1, 132959, Note_off_c, 7, 67, 127
1, 132959, Note_off_c, 2, 50, 127
1, 132960, Note_on_c, 7, 67, 127
1, 132960, Note_on_c, 7, 55, 127
1, 133242, Note_off_c, 7, 67, 127
1, 133243, Note_off_c, 7, 55, 127
1, 133244, Note_on_c, 7, 67, 127
1, 133384, Note_off_c, 7, 67, 127
1, 133387, Note_on_c, 10, 69, 127
1, 133527, Note_off_c, 10, 69, 127
1, 133530, Note_on_c, 12, 71, 127
1, 133673, Note_on_c, 8, 80, 127
1, 133813, Note_off_c, 8, 80, 127
1, 133813, Note_off_c, 12, 71, 127
1, 133816, Note_on_c, 7, 79, 127
1, 133816, Note_on_c, 7, 67, 127
1, 133956, Note_off_c, 7, 79, 127
1, 133959, Note_on_c, 5, 77, 127
1, 134099, Note_off_c, 5, 77, 127
1, 134099, Note_off_c, 7, 67, 127
1, 134102, Note_on_c, 3, 75, 127
1, 134102, Note_on_c, 0, 72, 127
1, 134242, Note_off_c, 3, 75, 127
1, 134245, Note_on_c, 2, 74, 127
1, 134385, Note_off_c, 2, 74, 127
1, 134385, Note_off_c, 0, 72, 127
1, 134388, Note_on_c, 0, 72, 127
1, 134388, Note_on_c, 0, 60, 127
1, 134528, Note_off_c, 0, 60, 127
1, 134531, Note_on_c, 2, 62, 127
1, 134670, Note_off_c, 0, 72, 127
1, 134671, Note_off_c, 2, 62, 127
1, 134674, Note_on_c, 3, 63, 127
1, 134816, Note_on_c, 2, 74, 127
1, 134956, Note_off_c, 2, 74, 127
1, 134957, Note_off_c, 3, 63, 127
1, 134958, Note_on_c, 0, 72, 127
1, 134958, Note_on_c, 0, 60, 127
1, 135098, Note_off_c, 0, 72, 127
1, 135101, Note_on_c, 11, 70, 127
1, 135241, Note_off_c, 11, 70, 127
1, 135241, Note_off_c, 0, 60, 127
1, 135244, Note_on_c, 8, 68, 127
1, 135244, Note_on_c, 5, 65, 127
1, 135384, Note_off_c, 8, 68, 127
1, 135387, Note_on_c, 7, 67, 127
1, 135527, Note_off_c, 7, 67, 127
1, 135527, Note_off_c, 5, 65, 127
1, 135530, Note_on_c, 5, 65, 127
1, 135673, Note_on_c, 7, 67, 127
1, 135812, Note_off_c, 5, 65, 127
1, 135813, Note_off_c, 7, 67, 127
1, 135816, Note_on_c, 8, 68, 127
1, 135959, Note_on_c, 7, 79, 127
1, 136099, Note_off_c, 7, 79, 127
1, 136099, Note_off_c, 8, 68, 127
1, 136102, Note_on_c, 5, 77, 127
1, 136102, Note_on_c, 5, 65, 127
1, 136242, Note_off_c, 5, 77, 127
1, 136245, Note_on_c, 3, 75, 127
1, 136385, Note_off_c, 3, 75, 127
1, 136385, Note_off_c, 5, 65, 127
1, 136388, Note_on_c, 2, 74, 127
1, 136388, Note_on_c, 11, 70, 127
1, 136528, Note_off_c, 2, 74, 127
1, 136531, Note_on_c, 0, 72, 127
1, 136671, Note_off_c, 0, 72, 127
1, 136671, Note_off_c, 11, 70, 127
1, 136672, Note_on_c, 11, 70, 127
1, 136672, Note_on_c, 11, 58, 127
1, 136812, Note_off_c, 11, 58, 127
1, 136815, Note_on_c, 0, 60, 127
1, 136954, Note_off_c, 11, 70, 127
1, 136955, Note_off_c, 0, 60, 127
1, 136958, Note_on_c, 2, 62, 127
1, 137101, Note_on_c, 0, 72, 127
1, 137241, Note_off_c, 0, 72, 127
1, 137241, Note_off_c, 2, 62, 127
1, 137244, Note_on_c, 11, 70, 127
1, 137244, Note_on_c, 11, 58, 127
1, 137384, Note_off_c, 11, 70, 127
1, 137387, Note_on_c, 8, 68, 127
1, 137527, Note_off_c, 8, 68, 127
1, 137527, Note_off_c, 11, 58, 127
1, 137530, Note_on_c, 7, 67, 127
1, 137530, Note_on_c, 3, 63, 127
1, 137670, Note_off_c, 7, 67, 127
1, 137673, Note_on_c, 11, 70, 127
1, 137813, Note_off_c, 11, 70, 127
1, 137813, Note_off_c, 3, 63, 127
1, 137816, Note_on_c, 3, 75, 127
1, 137816, Note_on_c, 3, 63, 127
1, 137956, Note_off_c, 3, 63, 127
1, 137959, Note_on_c, 5, 65, 127
1, 138099, Note_off_c, 5, 65, 127
1, 138102, Note_on_c, 7, 67, 127
1, 138242, Note_off_c, 3, 75, 127
1, 138245, Note_on_c, 2, 74, 127
1, 138385, Note_off_c, 2, 74, 127
1, 138385, Note_off_c, 7, 67, 127
1, 138386, Note_on_c, 0, 72, 127
1, 138386, Note_on_c, 3, 63, 127
1, 138526, Note_off_c, 0, 72, 127
1, 138529, Note_on_c, 11, 70, 127
1, 138669, Note_off_c, 11, 70, 127
1, 138669, Note_off_c, 3, 63, 127
1, 138672, Note_on_c, 8, 68, 127
1, 138672, Note_on_c, 5, 65, 127
1, 138812, Note_off_c, 8, 68, 127
1, 138815, Note_on_c, 0, 72, 127
1, 138955, Note_off_c, 0, 72, 127
1, 138955, Note_off_c, 5, 65, 127
1, 138958, Note_on_c, 5, 77, 127
1, 138958, Note_on_c, 5, 65, 127
1, 139098, Note_off_c, 5, 65, 127
1, 139101, Note_on_c, 7, 67, 127
1, 139241, Note_off_c, 7, 67, 127
1, 139244, Note_on_c, 8, 68, 127
1, 139384, Note_off_c, 5, 77, 127
1, 139387, Note_on_c, 3, 75, 127
1, 139527, Note_off_c, 3, 75, 127
1, 139527, Note_off_c, 8, 68, 127
1, 139530, Note_on_c, 2, 74, 127
1, 139530, Note_on_c, 5, 65, 127
1, 139670, Note_off_c, 2, 74, 127
1, 139673, Note_on_c, 0, 72, 127
1, 139813, Note_off_c, 0, 72, 127
1, 139816, Note_on_c, 12, 71, 127
1, 139956, Note_off_c, 12, 71, 127
1, 139959, Note_on_c, 7, 67, 127
1, 140099, Note_off_c, 7, 67, 127
1, 140099, Note_off_c, 5, 65, 127
1, 140102, Note_on_c, 0, 72, 127
1, 140102, Note_on_c, 3, 63, 127
1, 140242, Note_off_c, 3, 63, 127
1, 140242, Note_off_c, 0, 72, 127
1, 140243, Note_on_c, 2, 74, 127
1, 140243, Note_on_c, 5, 65, 127
1, 140376, Note_off_c, 5, 65, 127
1, 140383, Note_off_c, 2, 74, 127
1, 140386, Note_on_c, 0, 72, 127
1, 140386, Note_on_c, 2, 62, 127
1, 140452, Note_on_c, 12, 71, 127
1, 140456, Note_off_c, 0, 72, 127
1, 140517, Note_on_c, 0, 72, 127
1, 140521, Note_off_c, 12, 71, 127
1, 140582, Note_on_c, 12, 71, 127
1, 140586, Note_off_c, 0, 72, 127
1, 140671, Note_on_c, 7, 55, 127
1, 140814, Note_on_c, 0, 72, 127
1, 140820, Note_off_c, 12, 71, 127
1, 140955, Note_off_c, 0, 72, 127
1, 140955, Note_off_c, 7, 55, 127
1, 140955, Note_off_c, 2, 62, 127
1, 140959, Note_on_c, 0, 72, 127
1, 140959, Note_on_c, 3, 51, 127
1, 140959, Note_on_c, 0, 60, 127
1, 141239, Note_off_c, 0, 60, 127
1, 141239, Note_off_c, 3, 51, 127
1, 141240, Note_on_c, 0, 48, 127
1, 141240, Note_on_c, 3, 63, 127
1, 141379, Note_off_c, 3, 63, 127
1, 141379, Note_off_c, 0, 48, 127
1, 141380, Note_on_c, 2, 50, 127
1, 141380, Note_on_c, 5, 65, 127
1, 141515, Note_off_c, 0, 72, 127
1, 141519, Note_off_c, 5, 65, 127
1, 141519, Note_off_c, 2, 50, 127
1, 141520, Note_on_c, 3, 51, 127
1, 141520, Note_on_c, 7, 67, 127
1, 141800, Note_off_c, 7, 67, 127
1, 141800, Note_off_c, 3, 51, 127
1, 141801, Note_on_c, 12, 71, 127
1, 141801, Note_on_c, 7, 55, 127
1, 141801, Note_on_c, 2, 62, 127
1, 142081, Note_off_c, 2, 62, 127
1, 142081, Note_off_c, 7, 55, 127
1, 142081, Note_off_c, 12, 71, 127
1, 142082, Note_on_c, 0, 72, 127
1, 142082, Note_on_c, 3, 51, 127
1, 142082, Note_on_c, 0, 60, 127
1, 142362, Note_off_c, 0, 60, 127
1, 142362, Note_off_c, 3, 51, 127
1, 142362, Note_off_c, 0, 72, 127
1, 142363, Note_on_c, 0, 60, 127
1, 142363, Note_on_c, 0, 48, 127
1, 142363, Note_on_c, 3, 51, 127
1, 142502, Note_off_c, 3, 51, 127
1, 142502, Note_off_c, 0, 60, 127
1, 142503, Note_on_c, 2, 62, 127
1, 142503, Note_on_c, 5, 53, 127
1, 142642, Note_off_c, 5, 53, 127
1, 142642, Note_off_c, 2, 62, 127
1, 142643, Note_on_c, 3, 63, 127
1, 142643, Note_on_c, 7, 55, 127
1, 142772, Note_off_c, 0, 48, 127
1, 142923, Note_off_c, 7, 55, 127
1, 142923, Note_off_c, 3, 63, 127
1, 142924, Note_on_c, 12, 71, 127
1, 142924, Note_on_c, 7, 55, 127
1, 142924, Note_on_c, 2, 62, 127
1, 143204, Note_off_c, 2, 62, 127
1, 143204, Note_off_c, 7, 55, 127
1, 143204, Note_off_c, 12, 71, 127
1, 143205, Note_on_c, 0, 72, 127
1, 143205, Note_on_c, 3, 51, 127
1, 143205, Note_on_c, 7, 67, 127
1, 143485, Note_off_c, 7, 67, 127
1, 143485, Note_off_c, 3, 51, 127
1, 143485, Note_off_c, 0, 72, 127
1, 143486, Note_on_c, 0, 60, 127
1, 143486, Note_on_c, 0, 48, 127
1, 143486, Note_on_c, 3, 63, 127
1, 143625, Note_off_c, 3, 63, 127
1, 143625, Note_off_c, 0, 48, 127
1, 143626, Note_on_c, 2, 50, 127
1, 143626, Note_on_c, 5, 65, 127
1, 143765, Note_off_c, 5, 65, 127
1, 143765, Note_off_c, 2, 50, 127
1, 143766, Note_on_c, 3, 51, 127
1, 143766, Note_on_c, 7, 67, 127
1, 143895, Note_off_c, 0, 60, 127
1, 144046, Note_off_c, 7, 67, 127
1, 144046, Note_off_c, 3, 51, 127
1, 144047, Note_on_c, 12, 71, 127
1, 144047, Note_on_c, 7, 55, 127
1, 144047, Note_on_c, 2, 62, 127
1, 144327, Note_off_c, 2, 62, 127
1, 144327, Note_off_c, 7, 55, 127
1, 144327, Note_off_c, 12, 71, 127
1, 144328, Note_on_c, 0, 72, 127
1, 144328, Note_on_c, 3, 51, 127
1, 144328, Note_on_c, 7, 55, 127
1, 144608, Note_off_c, 7, 55, 127
1, 144608, Note_off_c, 3, 51, 127
1, 144608, Note_off_c, 0, 72, 127
1, 144609, Note_on_c, 0, 60, 127
1, 144609, Note_on_c, 0, 48, 127
1, 144609, Note_on_c, 3, 51, 127
1, 144748, Note_off_c, 3, 51, 127
1, 144748, Note_off_c, 0, 60, 127
1, 144749, Note_on_c, 2, 62, 127
1, 144749, Note_on_c, 5, 53, 127
1, 144888, Note_off_c, 5, 53, 127
1, 144888, Note_off_c, 2, 62, 127
1, 144889, Note_on_c, 3, 63, 127
1, 144889, Note_on_c, 7, 55, 127
1, 145018, Note_off_c, 0, 48, 127
1, 145169, Note_off_c, 7, 55, 127
1, 145169, Note_off_c, 3, 63, 127
1, 145170, Note_on_c, 12, 71, 127
1, 145170, Note_on_c, 7, 55, 127
1, 145170, Note_on_c, 7, 67, 127
1, 145309, Note_off_c, 7, 67, 127
1, 145310, Note_on_c, 5, 65, 127
1, 145449, Note_off_c, 5, 65, 127
1, 145449, Note_off_c, 7, 55, 127
1, 145449, Note_off_c, 12, 71, 127
1, 145450, Note_on_c, 0, 72, 127
1, 145450, Note_on_c, 8, 56, 127
1, 145450, Note_on_c, 3, 63, 127
1, 145589, Note_off_c, 0, 72, 127
1, 145590, Note_on_c, 0, 72, 127
1, 145729, Note_off_c, 0, 72, 127
1, 145729, Note_off_c, 3, 63, 127
1, 145729, Note_off_c, 8, 56, 127
1, 145730, Note_on_c, 5, 77, 127
1, 145730, Note_on_c, 8, 56, 127
1, 145730, Note_on_c, 0, 60, 127
1, 145869, Note_off_c, 5, 77, 127
1, 145870, Note_on_c, 3, 75, 127
1, 146009, Note_off_c, 3, 75, 127
1, 146009, Note_off_c, 0, 60, 127
1, 146010, Note_on_c, 2, 74, 127
1, 146010, Note_on_c, 5, 65, 127
1, 146149, Note_off_c, 8, 56, 127
1, 146150, Note_on_c, 7, 55, 127
1, 146289, Note_off_c, 7, 55, 127
1, 146289, Note_off_c, 5, 65, 127
1, 146289, Note_off_c, 2, 74, 127
1, 146290, Note_on_c, 11, 70, 127
1, 146290, Note_on_c, 8, 56, 127
1, 146290, Note_on_c, 2, 62, 127
1, 146429, Note_off_c, 8, 56, 127
1, 146430, Note_on_c, 5, 53, 127
1, 146569, Note_off_c, 5, 53, 127
1, 146569, Note_off_c, 2, 62, 127
1, 146570, Note_on_c, 7, 55, 127
1, 146570, Note_on_c, 3, 63, 127
1, 146709, Note_off_c, 11, 70, 127
1, 146710, Note_on_c, 11, 70, 127
1, 146849, Note_off_c, 11, 70, 127
1, 146849, Note_off_c, 3, 63, 127
1, 146849, Note_off_c, 7, 55, 127
1, 146850, Note_on_c, 3, 75, 127
1, 146850, Note_on_c, 7, 55, 127
1, 146850, Note_on_c, 11, 58, 127
1, 146989, Note_off_c, 3, 75, 127
1, 146990, Note_on_c, 2, 74, 127
1, 147129, Note_off_c, 2, 74, 127
1, 147129, Note_off_c, 11, 58, 127
1, 147130, Note_on_c, 0, 72, 127
1, 147130, Note_on_c, 3, 63, 127
1, 147269, Note_off_c, 7, 55, 127
1, 147270, Note_on_c, 5, 53, 127
1, 147409, Note_off_c, 5, 53, 127
1, 147409, Note_off_c, 3, 63, 127
1, 147409, Note_off_c, 0, 72, 127
1, 147410, Note_on_c, 8, 68, 127
1, 147410, Note_on_c, 7, 55, 127
1, 147410, Note_on_c, 0, 60, 127
1, 147549, Note_off_c, 7, 55, 127
1, 147550, Note_on_c, 3, 51, 127
1, 147689, Note_off_c, 3, 51, 127
1, 147689, Note_off_c, 0, 60, 127
1, 147690, Note_on_c, 5, 53, 127
1, 147690, Note_on_c, 2, 62, 127
1, 147829, Note_off_c, 8, 68, 127
1, 147830, Note_on_c, 8, 68, 127
1, 147969, Note_off_c, 8, 68, 127
1, 147969, Note_off_c, 2, 62, 127
1, 147969, Note_off_c, 5, 53, 127
1, 147970, Note_on_c, 2, 74, 127
1, 147970, Note_on_c, 5, 53, 127
1, 147970, Note_on_c, 12, 59, 127
1, 148109, Note_off_c, 2, 74, 127
1, 148110, Note_on_c, 0, 72, 127
1, 148249, Note_off_c, 0, 72, 127
1, 148249, Note_off_c, 12, 59, 127
1, 148250, Note_on_c, 12, 71, 127
1, 148250, Note_on_c, 2, 62, 127
1, 148389, Note_off_c, 5, 53, 127
1, 148390, Note_on_c, 3, 51, 127
1, 148529, Note_off_c, 3, 51, 127
1, 148529, Note_off_c, 2, 62, 127
1, 148529, Note_off_c, 12, 71, 127
1, 148530, Note_on_c, 7, 67, 127
1, 148530, Note_on_c, 5, 53, 127
1, 148530, Note_on_c, 12, 59, 127
1, 148669, Note_off_c, 5, 53, 127
1, 148670, Note_on_c, 2, 50, 127
1, 148809, Note_off_c, 2, 50, 127
1, 148809, Note_off_c, 12, 59, 127
1, 148810, Note_on_c, 3, 51, 127
1, 148810, Note_on_c, 0, 60, 127
1, 148949, Note_off_c, 3, 51, 127
1, 148950, Note_on_c, 2, 50, 127
1, 149089, Note_off_c, 2, 50, 127
1, 149089, Note_off_c, 0, 60, 127
1, 149090, Note_on_c, 0, 48, 127
1, 149090, Note_on_c, 3, 63, 127
1, 149229, Note_off_c, 3, 63, 127
1, 149229, Note_off_c, 0, 48, 127
1, 149230, Note_on_c, 2, 50, 127
1, 149230, Note_on_c, 2, 62, 127
1, 149369, Note_off_c, 2, 62, 127
1, 149369, Note_off_c, 2, 50, 127
1, 149370, Note_on_c, 3, 51, 127
1, 149370, Note_on_c, 0, 60, 127
1, 149509, Note_off_c, 3, 51, 127
1, 149510, Note_on_c, 5, 53, 127
1, 149649, Note_off_c, 5, 53, 127
1, 149649, Note_off_c, 0, 60, 127
1, 149649, Note_off_c, 7, 67, 127
1, 149650, Note_on_c, 7, 67, 127
1, 149650, Note_on_c, 7, 55, 127
1, 149650, Note_on_c, 3, 63, 127
1, 149789, Note_off_c, 7, 55, 127
1, 149790, Note_on_c, 3, 51, 127
1, 149929, Note_off_c, 3, 51, 127
1, 149929, Note_off_c, 3, 63, 127
1, 149929, Note_off_c, 7, 67, 127
1, 149930, Note_on_c, 5, 65, 127
1, 149930, Note_on_c, 8, 56, 127
1, 149930, Note_on_c, 2, 62, 127
1, 150069, Note_off_c, 8, 56, 127
1, 150070, Note_on_c, 12, 47, 127
1, 150209, Note_off_c, 12, 47, 127
1, 150209, Note_off_c, 2, 62, 127
1, 150209, Note_off_c, 5, 65, 127
1, 150210, Note_on_c, 3, 63, 127
1, 150210, Note_on_c, 0, 48, 127
1, 150210, Note_on_c, 0, 60, 127
1, 150349, Note_off_c, 0, 48, 127
1, 150349, Note_off_c, 3, 63, 127
1, 150350, Note_on_c, 5, 65, 127
1, 150350, Note_on_c, 2, 50, 127
1, 150489, Note_off_c, 2, 50, 127
1, 150489, Note_off_c, 5, 65, 127
1, 150490, Note_on_c, 2, 62, 127
1, 150490, Note_on_c, 7, 43, 127
1, 150629, Note_off_c, 7, 43, 127
1, 150629, Note_off_c, 2, 62, 127
1, 150630, Note_on_c, 3, 63, 127
1, 150630, Note_on_c, 3, 51, 127
1, 150769, Note_off_c, 3, 51, 127
1, 150769, Note_off_c, 3, 63, 127
1, 150769, Note_off_c, 0, 60, 127
1, 150770, Note_on_c, 5, 65, 127
1, 150770, Note_on_c, 2, 50, 127
1, 150770, Note_on_c, 12, 59, 127
1, 150909, Note_off_c, 2, 50, 127
1, 150909, Note_off_c, 5, 65, 127
1, 150910, Note_on_c, 7, 67, 127
1, 150910, Note_on_c, 0, 48, 127
1, 151049, Note_off_c, 0, 48, 127
1, 151049, Note_off_c, 7, 67, 127
1, 151049, Note_off_c, 12, 59, 127
1, 151050, Note_on_c, 0, 60, 127
1, 151050, Note_on_c, 0, 48, 127
1, 151050, Note_on_c, 3, 63, 127
1, 151332, Note_off_c, 3, 63, 127
1, 151333, Note_off_c, 0, 48, 127
1, 151333, Note_off_c, 0, 60, 127
1, 151334, Note_on_c, 3, 63, 127
1, 151334, Note_on_c, 0, 48, 127
1, 151474, Note_off_c, 0, 48, 127
1, 151477, Note_on_c, 2, 50, 127
1, 151477, Note_on_c, 7, 67, 127
1, 151617, Note_off_c, 7, 67, 127
1, 151617, Note_off_c, 2, 50, 127
1, 151617, Note_off_c, 3, 63, 127
1, 151620, Note_on_c, 7, 67, 127
1, 151620, Note_on_c, 3, 51, 127
1, 151620, Note_on_c, 0, 72, 127
1, 151760, Note_off_c, 0, 72, 127
1, 151763, Note_on_c, 11, 70, 127
1, 151903, Note_off_c, 11, 70, 127
1, 151903, Note_off_c, 3, 51, 127
1, 151903, Note_off_c, 7, 67, 127
1, 151906, Note_on_c, 3, 63, 127
1, 151906, Note_on_c, 0, 48, 127
1, 151906, Note_on_c, 8, 68, 127
1, 152046, Note_off_c, 8, 68, 127
1, 152049, Note_on_c, 7, 67, 127
1, 152189, Note_off_c, 7, 67, 127
1, 152189, Note_off_c, 0, 48, 127
1, 152192, Note_on_c, 2, 50, 127
1, 152192, Note_on_c, 5, 65, 127
1, 152476, Note_off_c, 2, 50, 127
1, 152476, Note_off_c, 3, 63, 127
1, 152479, Note_on_c, 2, 62, 127
1, 152479, Note_on_c, 11, 46, 127
1, 152619, Note_off_c, 11, 46, 127
1, 152619, Note_off_c, 5, 65, 127
1, 152622, Note_on_c, 0, 48, 127
1, 152622, Note_on_c, 5, 65, 127
1, 152762, Note_off_c, 5, 65, 127
1, 152762, Note_off_c, 0, 48, 127
1, 152765, Note_on_c, 2, 50, 127
1, 152765, Note_on_c, 11, 70, 127
1, 152905, Note_off_c, 11, 70, 127
1, 152906, Note_on_c, 8, 68, 127
1, 153046, Note_off_c, 8, 68, 127
1, 153047, Note_off_c, 2, 50, 127
1, 153047, Note_off_c, 2, 62, 127
1, 153048, Note_on_c, 2, 62, 127
1, 153048, Note_on_c, 11, 46, 127
1, 153048, Note_on_c, 7, 67, 127
1, 153188, Note_off_c, 7, 67, 127
1, 153191, Note_on_c, 5, 65, 127
1, 153331, Note_off_c, 5, 65, 127
1, 153331, Note_off_c, 11, 46, 127
1, 153334, Note_on_c, 0, 48, 127
1, 153334, Note_on_c, 3, 63, 127
1, 153618, Note_off_c, 0, 48, 127
1, 153618, Note_off_c, 2, 62, 127
1, 153621, Note_on_c, 0, 60, 127
1, 153621, Note_on_c, 8, 44, 127
1, 153761, Note_off_c, 8, 44, 127
1, 153761, Note_off_c, 3, 63, 127
1, 153764, Note_on_c, 11, 46, 127
1, 153764, Note_on_c, 3, 63, 127
1, 153904, Note_off_c, 3, 63, 127
1, 153904, Note_off_c, 11, 46, 127
1, 153907, Note_on_c, 0, 48, 127
1, 153907, Note_on_c, 8, 68, 127
1, 154047, Note_off_c, 8, 68, 127
1, 154050, Note_on_c, 7, 67, 127
1, 154190, Note_off_c, 7, 67, 127
1, 154190, Note_off_c, 0, 48, 127
1, 154190, Note_off_c, 0, 60, 127
1, 154193, Note_on_c, 0, 60, 127
1, 154193, Note_on_c, 8, 44, 127
1, 154193, Note_on_c, 5, 65, 127
1, 154333, Note_off_c, 5, 65, 127
1, 154336, Note_on_c, 3, 63, 127
1, 154476, Note_off_c, 3, 63, 127
1, 154476, Note_off_c, 8, 44, 127
1, 154479, Note_on_c, 11, 46, 127
1, 154479, Note_on_c, 2, 62, 127
1, 154763, Note_off_c, 11, 46, 127
1, 154763, Note_off_c, 0, 60, 127
1, 154764, Note_on_c, 11, 58, 127
1, 154764, Note_on_c, 11, 46, 127
1, 154904, Note_off_c, 11, 46, 127
1, 154905, Note_off_c, 2, 62, 127
1, 154906, Note_on_c, 0, 48, 127
1, 154906, Note_on_c, 5, 65, 127
1, 155046, Note_off_c, 5, 65, 127
1, 155046, Note_off_c, 0, 48, 127
1, 155049, Note_on_c, 2, 50, 127
1, 155049, Note_on_c, 11, 70, 127
1, 155189, Note_off_c, 11, 58, 127
1, 155192, Note_on_c, 8, 68, 127
1, 155332, Note_off_c, 8, 68, 127
1, 155332, Note_off_c, 2, 50, 127
1, 155335, Note_on_c, 7, 67, 127
1, 155335, Note_on_c, 11, 46, 127
1, 155475, Note_off_c, 7, 67, 127
1, 155478, Note_on_c, 5, 65, 127
1, 155618, Note_off_c, 11, 46, 127
1, 155618, Note_off_c, 11, 70, 127
1, 155621, Note_on_c, 3, 51, 127
1, 155621, Note_on_c, 7, 67, 127
1, 155905, Note_off_c, 3, 51, 127
1, 155905, Note_off_c, 5, 65, 127
1, 155908, Note_on_c, 3, 63, 127
1, 155908, Note_on_c, 3, 51, 127
1, 156048, Note_off_c, 3, 51, 127
1, 156048, Note_off_c, 7, 67, 127
1, 156051, Note_on_c, 5, 53, 127
1, 156051, Note_on_c, 11, 70, 127
1, 156191, Note_off_c, 11, 70, 127
1, 156191, Note_off_c, 5, 53, 127
1, 156194, Note_on_c, 7, 55, 127
1, 156194, Note_on_c, 3, 75, 127
1, 156334, Note_off_c, 3, 63, 127
1, 156337, Note_on_c, 1, 73, 127
1, 156477, Note_off_c, 1, 73, 127
1, 156477, Note_off_c, 7, 55, 127
1, 156478, Note_on_c, 0, 72, 127
1, 156478, Note_on_c, 3, 51, 127
1, 156618, Note_off_c, 0, 72, 127
1, 156621, Note_on_c, 11, 70, 127
1, 156761, Note_off_c, 3, 51, 127
1, 156762, Note_off_c, 3, 75, 127
1, 156763, Note_on_c, 8, 56, 127
1, 156763, Note_on_c, 0, 72, 127
1, 157047, Note_off_c, 8, 56, 127
1, 157047, Note_off_c, 11, 70, 127
1, 157050, Note_on_c, 8, 68, 127
1, 157050, Note_on_c, 5, 53, 127
1, 157190, Note_off_c, 5, 53, 127
1, 157190, Note_off_c, 0, 72, 127
1, 157193, Note_on_c, 7, 55, 127
1, 157193, Note_on_c, 0, 72, 127
1, 157333, Note_off_c, 0, 72, 127
1, 157333, Note_off_c, 7, 55, 127
1, 157336, Note_on_c, 8, 56, 127
1, 157336, Note_on_c, 5, 77, 127
1, 157476, Note_off_c, 8, 68, 127
1, 157479, Note_on_c, 3, 75, 127
1, 157619, Note_off_c, 3, 75, 127
1, 157619, Note_off_c, 8, 56, 127
1, 157622, Note_on_c, 2, 74, 127
1, 157622, Note_on_c, 5, 53, 127
1, 157762, Note_off_c, 2, 74, 127
1, 157765, Note_on_c, 0, 72, 127
1, 157905, Note_off_c, 5, 53, 127
1, 157905, Note_off_c, 5, 77, 127
1, 157908, Note_on_c, 11, 58, 127
1, 157908, Note_on_c, 2, 74, 127
1, 158192, Note_off_c, 11, 58, 127
1, 158192, Note_off_c, 0, 72, 127
1, 158195, Note_on_c, 11, 70, 127
1, 158195, Note_on_c, 7, 55, 127
1, 158335, Note_off_c, 7, 55, 127
1, 158335, Note_off_c, 2, 74, 127
1, 158336, Note_on_c, 8, 56, 127
1, 158336, Note_on_c, 2, 74, 127
1, 158476, Note_off_c, 2, 74, 127
1, 158476, Note_off_c, 8, 56, 127
1, 158479, Note_on_c, 11, 58, 127
1, 158479, Note_on_c, 7, 79, 127
1, 158619, Note_off_c, 7, 79, 127
1, 158622, Note_on_c, 5, 77, 127
1, 158762, Note_off_c, 5, 77, 127
1, 158762, Note_off_c, 11, 58, 127
1, 158763, Note_off_c, 11, 70, 127
1, 158764, Note_on_c, 11, 70, 127
1, 158764, Note_on_c, 7, 55, 127
1, 158764, Note_on_c, 3, 75, 127
1, 158904, Note_off_c, 3, 75, 127
1, 158907, Note_on_c, 2, 74, 127
1, 159047, Note_off_c, 2, 74, 127
1, 159047, Note_off_c, 7, 55, 127
1, 159050, Note_on_c, 8, 56, 127
1, 159050, Note_on_c, 0, 72, 127
1, 159334, Note_off_c, 8, 56, 127
1, 159334, Note_off_c, 11, 70, 127
1, 159337, Note_on_c, 8, 68, 127
1, 159337, Note_on_c, 5, 53, 127
1, 159477, Note_off_c, 5, 53, 127
1, 159477, Note_off_c, 0, 72, 127
1, 159480, Note_on_c, 7, 55, 127
1, 159480, Note_on_c, 0, 72, 127
1, 159620, Note_off_c, 0, 72, 127
1, 159620, Note_off_c, 7, 55, 127
1, 159623, Note_on_c, 8, 56, 127
1, 159623, Note_on_c, 5, 77, 127
1, 159763, Note_off_c, 5, 77, 127
1, 159766, Note_on_c, 3, 75, 127
1, 159906, Note_off_c, 3, 75, 127
1, 159906, Note_off_c, 8, 56, 127
1, 159906, Note_off_c, 8, 68, 127
1, 159909, Note_on_c, 8, 68, 127
1, 159909, Note_on_c, 5, 53, 127
1, 159909, Note_on_c, 2, 74, 127
1, 160049, Note_off_c, 2, 74, 127
1, 160050, Note_on_c, 0, 72, 127
1, 160190, Note_off_c, 0, 72, 127
1, 160191, Note_off_c, 5, 53, 127
1, 160192, Note_on_c, 7, 55, 127
1, 160192, Note_on_c, 11, 70, 127
1, 160476, Note_off_c, 7, 55, 127
1, 160477, Note_off_c, 8, 68, 127
1, 160478, Note_on_c, 7, 67, 127
1, 160478, Note_on_c, 3, 51, 127
1, 160618, Note_off_c, 3, 51, 127
1, 160618, Note_off_c, 11, 70, 127
1, 160621, Note_on_c, 5, 53, 127
1, 160621, Note_on_c, 11, 70, 127
1, 160761, Note_off_c, 11, 70, 127
1, 160761, Note_off_c, 5, 53, 127
1, 160764, Note_on_c, 7, 55, 127
1, 160764, Note_on_c, 3, 75, 127
1, 160904, Note_off_c, 3, 75, 127
1, 160907, Note_on_c, 2, 74, 127
1, 161047, Note_off_c, 2, 74, 127
1, 161047, Note_off_c, 7, 55, 127
1, 161047, Note_off_c, 7, 67, 127
1, 161050, Note_on_c, 7, 67, 127
1, 161050, Note_on_c, 3, 51, 127
1, 161050, Note_on_c, 0, 72, 127
1, 161190, Note_off_c, 0, 72, 127
1, 161193, Note_on_c, 11, 70, 127
1, 161333, Note_off_c, 11, 70, 127
1, 161333, Note_off_c, 3, 51, 127
1, 161336, Note_on_c, 8, 56, 127
1, 161336, Note_on_c, 0, 72, 127
1, 161476, Note_off_c, 7, 67, 127
1, 161479, Note_on_c, 11, 70, 127
1, 161619, Note_off_c, 11, 70, 127
1, 161619, Note_off_c, 8, 56, 127
1, 161622, Note_on_c, 8, 68, 127
1, 161622, Note_on_c, 5, 53, 127
1, 161762, Note_off_c, 8, 68, 127
1, 161762, Note_off_c, 0, 72, 127
1, 161765, Note_on_c, 7, 67, 127
1, 161765, Note_on_c, 5, 77, 127
1, 161905, Note_off_c, 5, 77, 127
1, 161905, Note_off_c, 7, 67, 127
1, 161905, Note_off_c, 5, 53, 127
1, 161906, Note_on_c, 5, 65, 127
1, 161906, Note_on_c, 11, 58, 127
1, 161906, Note_on_c, 3, 75, 127
1, 161972, Note_on_c, 2, 74, 127
1, 161976, Note_off_c, 3, 75, 127
1, 162037, Note_on_c, 3, 75, 127
1, 162041, Note_off_c, 2, 74, 127
1, 162102, Note_on_c, 2, 74, 127
1, 162106, Note_off_c, 3, 75, 127
1, 162188, Note_off_c, 11, 58, 127
1, 162188, Note_off_c, 5, 65, 127
1, 162191, Note_on_c, 11, 70, 127
1, 162191, Note_on_c, 11, 46, 127
1, 162334, Note_on_c, 3, 75, 127
1, 162340, Note_off_c, 2, 74, 127
1, 162475, Note_off_c, 3, 75, 127
1, 162475, Note_off_c, 11, 46, 127
1, 162475, Note_off_c, 11, 70, 127
1, 162479, Note_on_c, 7, 67, 127
1, 162479, Note_on_c, 3, 51, 127
1, 162479, Note_on_c, 3, 75, 127
1, 162759, Note_off_c, 3, 51, 127
1, 162759, Note_off_c, 7, 67, 127
1, 162760, Note_on_c, 3, 63, 127
1, 162760, Note_on_c, 3, 39, 127
1, 162899, Note_off_c, 3, 63, 127
1, 162900, Note_on_c, 5, 65, 127
1, 163035, Note_off_c, 3, 75, 127
1, 163039, Note_off_c, 5, 65, 127
1, 163040, Note_on_c, 7, 67, 127
1, 163169, Note_off_c, 3, 39, 127
1, 163320, Note_off_c, 7, 67, 127
1, 163321, Note_on_c, 11, 70, 127
1, 163321, Note_on_c, 2, 50, 127
1, 163321, Note_on_c, 5, 77, 127
1, 163601, Note_off_c, 5, 77, 127
1, 163601, Note_off_c, 2, 50, 127
1, 163601, Note_off_c, 11, 70, 127
1, 163602, Note_on_c, 7, 67, 127
1, 163602, Note_on_c, 3, 51, 127
1, 163602, Note_on_c, 3, 75, 127
1, 163882, Note_off_c, 3, 75, 127
1, 163882, Note_off_c, 3, 51, 127
1, 163882, Note_off_c, 7, 67, 127
1, 163883, Note_on_c, 3, 75, 127
1, 163883, Note_on_c, 3, 39, 127
1, 163883, Note_on_c, 7, 79, 127
1, 164022, Note_off_c, 7, 79, 127
1, 164022, Note_off_c, 3, 39, 127
1, 164023, Note_on_c, 5, 41, 127
1, 164023, Note_on_c, 8, 80, 127
1, 164162, Note_off_c, 8, 80, 127
1, 164162, Note_off_c, 5, 41, 127
1, 164163, Note_on_c, 7, 43, 127
1, 164163, Note_on_c, 11, 82, 127
1, 164292, Note_off_c, 3, 75, 127
1, 164443, Note_off_c, 11, 82, 127
1, 164443, Note_off_c, 7, 43, 127
1, 164444, Note_on_c, 11, 70, 127
1, 164444, Note_on_c, 2, 50, 127
1, 164444, Note_on_c, 5, 77, 127
1, 164724, Note_off_c, 5, 77, 127
1, 164724, Note_off_c, 2, 50, 127
1, 164724, Note_off_c, 11, 70, 127
1, 164725, Note_on_c, 7, 67, 127
1, 164725, Note_on_c, 3, 51, 127
1, 164725, Note_on_c, 3, 75, 127
1, 165005, Note_off_c, 3, 75, 127
1, 165005, Note_off_c, 3, 51, 127
1, 165005, Note_off_c, 7, 67, 127
1, 165006, Note_on_c, 3, 63, 127
1, 165006, Note_on_c, 3, 39, 127
1, 165006, Note_on_c, 7, 67, 127
1, 165145, Note_off_c, 7, 67, 127
1, 165145, Note_off_c, 3, 63, 127
1, 165146, Note_on_c, 5, 65, 127
1, 165146, Note_on_c, 8, 68, 127
1, 165285, Note_off_c, 8, 68, 127
1, 165285, Note_off_c, 5, 65, 127
1, 165286, Note_on_c, 7, 67, 127
1, 165286, Note_on_c, 11, 70, 127
1, 165415, Note_off_c, 3, 39, 127
1, 165566, Note_off_c, 11, 70, 127
1, 165566, Note_off_c, 7, 67, 127
1, 165567, Note_on_c, 11, 70, 127
1, 165567, Note_on_c, 2, 50, 127
1, 165567, Note_on_c, 5, 65, 127
1, 165810, Note_off_c, 5, 65, 127
1, 165847, Note_off_c, 2, 50, 127
1, 165847, Note_off_c, 11, 70, 127
1, 165848, Note_on_c, 7, 67, 127
1, 165848, Note_on_c, 3, 51, 127
1, 165848, Note_on_c, 3, 63, 127
1, 165987, Note_off_c, 3, 63, 127
1, 165988, Note_on_c, 11, 70, 127
1, 166127, Note_off_c, 11, 70, 127
1, 166127, Note_off_c, 3, 51, 127
1, 166127, Note_off_c, 7, 67, 127
1, 166128, Note_on_c, 3, 63, 127
1, 166128, Note_on_c, 3, 39, 127
1, 166128, Note_on_c, 0, 72, 127
1, 166267, Note_off_c, 0, 72, 127
1, 166267, Note_off_c, 3, 39, 127
1, 166268, Note_on_c, 5, 41, 127
1, 166268, Note_on_c, 2, 74, 127
1, 166407, Note_off_c, 2, 74, 127
1, 166407, Note_off_c, 5, 41, 127
1, 166408, Note_on_c, 7, 43, 127
1, 166408, Note_on_c, 3, 75, 127
1, 166537, Note_off_c, 3, 63, 127
1, 166547, Note_off_c, 3, 75, 127
1, 166548, Note_on_c, 5, 77, 127
1, 166687, Note_off_c, 5, 77, 127
1, 166687, Note_off_c, 7, 43, 127
1, 166688, Note_on_c, 11, 70, 127
1, 166688, Note_on_c, 3, 39, 127
1, 166688, Note_on_c, 7, 79, 127
1, 166968, Note_off_c, 3, 39, 127
1, 166969, Note_on_c, 8, 44, 127
1, 167108, Note_off_c, 8, 44, 127
1, 167109, Note_on_c, 3, 51, 127
1, 167248, Note_off_c, 3, 51, 127
1, 167248, Note_off_c, 7, 79, 127
1, 167248, Note_off_c, 11, 70, 127
1, 167249, Note_on_c, 0, 72, 127
1, 167249, Note_on_c, 8, 56, 127
1, 167249, Note_on_c, 5, 77, 127
1, 167388, Note_off_c, 5, 77, 127
1, 167388, Note_off_c, 8, 56, 127
1, 167389, Note_on_c, 7, 55, 127
1, 167389, Note_on_c, 7, 79, 127
1, 167528, Note_off_c, 7, 79, 127
1, 167528, Note_off_c, 7, 55, 127
1, 167529, Note_on_c, 5, 53, 127
1, 167529, Note_on_c, 8, 80, 127
1, 167668, Note_off_c, 0, 72, 127
1, 167669, Note_on_c, 11, 70, 127
1, 167808, Note_off_c, 11, 70, 127
1, 167808, Note_off_c, 5, 53, 127
1, 167809, Note_on_c, 0, 72, 127
1, 167809, Note_on_c, 2, 50, 127
1, 167948, Note_off_c, 0, 72, 127
1, 167949, Note_on_c, 8, 68, 127
1, 168088, Note_off_c, 8, 68, 127
1, 168088, Note_off_c, 2, 50, 127
1, 168089, Note_on_c, 11, 70, 127
1, 168089, Note_on_c, 7, 43, 127
1, 168228, Note_off_c, 7, 43, 127
1, 168229, Note_on_c, 2, 50, 127
1, 168368, Note_off_c, 2, 50, 127
1, 168368, Note_off_c, 11, 70, 127
1, 168368, Note_off_c, 8, 80, 127
1, 168369, Note_on_c, 11, 70, 127
1, 168369, Note_on_c, 7, 55, 127
1, 168369, Note_on_c, 11, 82, 127
1, 168508, Note_off_c, 11, 82, 127
1, 168508, Note_off_c, 7, 55, 127
1, 168509, Note_on_c, 5, 53, 127
1, 168509, Note_on_c, 8, 80, 127
1, 168648, Note_off_c, 8, 80, 127
1, 168648, Note_off_c, 5, 53, 127
1, 168649, Note_on_c, 3, 51, 127
1, 168649, Note_on_c, 7, 79, 127
1, 168788, Note_off_c, 11, 70, 127
1, 168789, Note_on_c, 8, 68, 127
1, 168928, Note_off_c, 8, 68, 127
1, 168928, Note_off_c, 3, 51, 127
1, 168929, Note_on_c, 11, 70, 127
1, 168929, Note_on_c, 0, 48, 127
1, 169068, Note_off_c, 11, 70, 127
1, 169069, Note_on_c, 7, 67, 127
1, 169208, Note_off_c, 7, 67, 127
1, 169208, Note_off_c, 0, 48, 127
1, 169209, Note_on_c, 8, 68, 127
1, 169209, Note_on_c, 5, 41, 127
1, 169348, Note_off_c, 5, 41, 127
1, 169349, Note_on_c, 0, 48, 127
1, 169488, Note_off_c, 0, 48, 127
1, 169488, Note_off_c, 8, 68, 127
1, 169488, Note_off_c, 7, 79, 127
1, 169489, Note_on_c, 8, 68, 127
1, 169489, Note_on_c, 5, 53, 127
1, 169489, Note_on_c, 8, 80, 127
1, 169628, Note_off_c, 8, 80, 127
1, 169628, Note_off_c, 5, 53, 127
1, 169629, Note_on_c, 3, 51, 127
1, 169629, Note_on_c, 7, 79, 127
1, 169768, Note_off_c, 7, 79, 127
1, 169768, Note_off_c, 3, 51, 127
1, 169769, Note_on_c, 2, 50, 127
1, 169769, Note_on_c, 5, 77, 127
1, 169908, Note_off_c, 8, 68, 127
1, 169909, Note_on_c, 7, 67, 127
1, 170048, Note_off_c, 7, 67, 127
1, 170048, Note_off_c, 2, 50, 127
1, 170049, Note_on_c, 8, 68, 127
1, 170049, Note_on_c, 11, 46, 127
1, 170188, Note_off_c, 8, 68, 127
1, 170189, Note_on_c, 5, 65, 127
1, 170328, Note_off_c, 5, 65, 127
1, 170328, Note_off_c, 11, 46, 127
1, 170329, Note_on_c, 7, 67, 127
1, 170329, Note_on_c, 3, 51, 127
1, 170468, Note_off_c, 7, 67, 127
1, 170469, Note_on_c, 5, 65, 127
1, 170608, Note_off_c, 5, 65, 127
1, 170608, Note_off_c, 5, 77, 127
1, 170609, Note_on_c, 3, 63, 127
1, 170609, Note_on_c, 7, 79, 127
1, 170748, Note_off_c, 7, 79, 127
1, 170748, Note_off_c, 3, 63, 127
1, 170749, Note_on_c, 5, 65, 127
1, 170749, Note_on_c, 5, 77, 127
1, 170884, Note_off_c, 3, 51, 127
1, 170888, Note_off_c, 5, 77, 127
1, 170888, Note_off_c, 5, 65, 127
1, 170889, Note_on_c, 7, 67, 127
1, 170889, Note_on_c, 3, 75, 127
1, 171028, Note_off_c, 7, 67, 127
1, 171029, Note_on_c, 8, 68, 127
1, 171168, Note_off_c, 8, 68, 127
1, 171169, Note_on_c, 11, 70, 127
1, 171169, Note_on_c, 7, 55, 127
1, 171308, Note_off_c, 11, 70, 127
1, 171309, Note_on_c, 7, 67, 127
1, 171448, Note_off_c, 7, 67, 127
1, 171448, Note_off_c, 7, 55, 127
1, 171449, Note_on_c, 0, 72, 127
1, 171449, Note_on_c, 8, 56, 127
1, 171588, Note_off_c, 0, 72, 127
1, 171588, Note_off_c, 3, 75, 127
1, 171589, Note_on_c, 2, 62, 127
1, 171589, Note_on_c, 5, 77, 127
1, 171728, Note_off_c, 5, 77, 127
1, 171728, Note_off_c, 2, 62, 127
1, 171729, Note_on_c, 3, 63, 127
1, 171729, Note_on_c, 7, 79, 127
1, 171868, Note_off_c, 7, 79, 127
1, 171868, Note_off_c, 3, 63, 127
1, 171869, Note_on_c, 5, 65, 127
1, 171869, Note_on_c, 8, 80, 127
1, 172004, Note_off_c, 8, 56, 127
1, 172008, Note_off_c, 8, 80, 127
1, 172008, Note_off_c, 5, 65, 127
1, 172009, Note_on_c, 11, 58, 127
1, 172009, Note_on_c, 3, 75, 127
1, 172073, Note_on_c, 2, 74, 127
1, 172079, Note_off_c, 3, 75, 127
1, 172138, Note_on_c, 3, 75, 127
1, 172144, Note_off_c, 2, 74, 127
1, 172150, Note_on_c, 7, 67, 127
1, 172203, Note_on_c, 2, 74, 127
1, 172209, Note_off_c, 3, 75, 127
1, 172289, Note_off_c, 7, 67, 127
1, 172290, Note_on_c, 5, 65, 127
1, 172429, Note_off_c, 5, 65, 127
1, 172430, Note_on_c, 3, 63, 127
1, 172430, Note_on_c, 3, 75, 127
1, 172436, Note_off_c, 2, 74, 127
1, 172565, Note_off_c, 11, 58, 127
1, 172569, Note_off_c, 3, 75, 127
1, 172569, Note_off_c, 3, 63, 127
1, 172570, Note_on_c, 3, 63, 127
1, 172570, Note_on_c, 3, 75, 127
1, 172710, Note_on_c, 3, 51, 127
1, 172849, Note_off_c, 3, 51, 127
1, 172849, Note_off_c, 3, 75, 127
1, 172850, Note_on_c, 7, 55, 127
1, 172850, Note_on_c, 11, 70, 127
1, 172989, Note_off_c, 7, 55, 127
1, 172990, Note_on_c, 5, 53, 127
1, 173125, Note_off_c, 3, 63, 127
1, 173129, Note_off_c, 5, 53, 127
1, 173129, Note_off_c, 11, 70, 127
1, 173130, Note_on_c, 3, 51, 127
1, 173130, Note_on_c, 3, 75, 127
1, 173269, Note_off_c, 3, 51, 127
1, 173270, Note_on_c, 2, 50, 127
1, 173409, Note_off_c, 2, 50, 127
1, 173410, Note_on_c, 11, 70, 127
1, 173410, Note_on_c, 0, 48, 127
1, 173549, Note_off_c, 0, 48, 127
1, 173550, Note_on_c, 11, 46, 127
1, 173689, Note_off_c, 11, 46, 127
1, 173689, Note_off_c, 11, 70, 127
1, 173690, Note_on_c, 0, 72, 127
1, 173690, Note_on_c, 10, 45, 127
1, 173829, Note_off_c, 0, 72, 127
1, 173830, Note_on_c, 5, 65, 127
1, 173968, Note_off_c, 10, 45, 127
1, 173969, Note_off_c, 5, 65, 127
1, 173969, Note_off_c, 3, 75, 127
1, 173970, Note_on_c, 11, 70, 127
1, 173970, Note_on_c, 11, 46, 127
1, 173970, Note_on_c, 2, 74, 127
1, 174109, Note_off_c, 11, 70, 127
1, 174110, Note_on_c, 8, 68, 127
1, 174248, Note_off_c, 11, 46, 127
1, 174249, Note_off_c, 8, 68, 127
1, 174250, Note_on_c, 7, 67, 127
1, 174250, Note_on_c, 3, 51, 127
1, 174389, Note_off_c, 7, 67, 127
1, 174390, Note_on_c, 5, 65, 127
1, 174529, Note_off_c, 5, 65, 127
1, 174529, Note_off_c, 2, 74, 127
1, 174530, Note_on_c, 3, 63, 127
1, 174530, Note_on_c, 0, 72, 127
1, 174669, Note_off_c, 0, 72, 127
1, 174669, Note_off_c, 3, 63, 127
1, 174670, Note_on_c, 2, 62, 127
1, 174670, Note_on_c, 11, 70, 127
1, 174805, Note_off_c, 3, 51, 127
1, 174809, Note_off_c, 11, 70, 127
1, 174809, Note_off_c, 2, 62, 127
1, 174810, Note_on_c, 0, 60, 127
1, 174810, Note_on_c, 5, 53, 127
1, 174810, Note_on_c, 10, 69, 127
1, 175090, Note_off_c, 10, 69, 127
1, 175090, Note_off_c, 5, 53, 127
1, 175090, Note_off_c, 0, 60, 127
1, 175091, Note_on_c, 10, 69, 127
1, 175091, Note_on_c, 5, 41, 127
1, 175091, Note_on_c, 5, 65, 127
1, 175230, Note_off_c, 5, 41, 127
1, 175230, Note_off_c, 10, 69, 127
1, 175231, Note_on_c, 11, 70, 127
1, 175231, Note_on_c, 7, 43, 127
1, 175370, Note_off_c, 7, 43, 127
1, 175370, Note_off_c, 11, 70, 127
1, 175371, Note_on_c, 0, 72, 127
1, 175371, Note_on_c, 10, 45, 127
1, 175500, Note_off_c, 5, 65, 127
1, 175651, Note_off_c, 10, 45, 127
1, 175651, Note_off_c, 0, 72, 127
1, 175652, Note_on_c, 10, 69, 127
1, 175652, Note_on_c, 7, 43, 127
1, 175652, Note_on_c, 5, 77, 127
1, 175791, Note_off_c, 7, 43, 127
1, 175792, Note_on_c, 5, 41, 127
1, 175931, Note_off_c, 5, 41, 127
1, 175931, Note_off_c, 5, 77, 127
1, 175931, Note_off_c, 10, 69, 127
1, 175932, Note_on_c, 11, 70, 127
1, 175932, Note_on_c, 11, 46, 127
1, 175932, Note_on_c, 2, 74, 127
1, 176212, Note_off_c, 2, 74, 127
1, 176212, Note_off_c, 11, 46, 127
1, 176212, Note_off_c, 11, 70, 127
1, 176213, Note_on_c, 11, 70, 127
1, 176213, Note_on_c, 11, 46, 127
1, 176213, Note_on_c, 2, 74, 127
1, 176352, Note_off_c, 2, 74, 127
1, 176352, Note_off_c, 11, 46, 127
1, 176353, Note_on_c, 0, 48, 127
1, 176353, Note_on_c, 3, 75, 127
1, 176492, Note_off_c, 3, 75, 127
1, 176492, Note_off_c, 0, 48, 127
1, 176493, Note_on_c, 2, 50, 127
1, 176493, Note_on_c, 5, 77, 127
1, 176622, Note_off_c, 11, 70, 127
1, 176773, Note_off_c, 5, 77, 127
1, 176773, Note_off_c, 2, 50, 127
1, 176774, Note_on_c, 2, 74, 127
1, 176774, Note_on_c, 0, 48, 127
1, 176774, Note_on_c, 11, 82, 127
1, 176913, Note_off_c, 0, 48, 127
1, 176914, Note_on_c, 11, 46, 127
1, 177053, Note_off_c, 11, 46, 127
1, 177053, Note_off_c, 11, 82, 127
1, 177053, Note_off_c, 2, 74, 127
1, 177054, Note_on_c, 11, 70, 127
1, 177054, Note_on_c, 3, 51, 127
1, 177054, Note_on_c, 7, 79, 127
1, 177334, Note_off_c, 7, 79, 127
1, 177334, Note_off_c, 3, 51, 127
1, 177334, Note_off_c, 11, 70, 127
1, 177335, Note_on_c, 3, 75, 127
1, 177335, Note_on_c, 2, 50, 127
1, 177335, Note_on_c, 0, 84, 127
1, 177474, Note_off_c, 2, 50, 127
1, 177475, Note_on_c, 0, 48, 127
1, 177614, Note_off_c, 0, 48, 127
1, 177614, Note_off_c, 0, 84, 127
1, 177615, Note_on_c, 5, 53, 127
1, 177615, Note_on_c, 11, 82, 127
1, 177679, Note_on_c, 10, 81, 127
1, 177685, Note_off_c, 11, 82, 127
1, 177744, Note_on_c, 11, 82, 127
1, 177750, Note_off_c, 10, 81, 127
1, 177809, Note_on_c, 10, 81, 127
1, 177815, Note_off_c, 11, 82, 127
1, 177895, Note_off_c, 5, 53, 127
1, 177895, Note_off_c, 3, 75, 127
1, 177896, Note_on_c, 2, 74, 127
1, 177896, Note_on_c, 5, 41, 127
1, 178035, Note_off_c, 2, 74, 127
1, 178036, Note_on_c, 0, 72, 127
1, 178036, Note_on_c, 11, 82, 127
1, 178042, Note_off_c, 10, 81, 127
1, 178175, Note_off_c, 11, 82, 127
1, 178175, Note_off_c, 0, 72, 127
1, 178175, Note_off_c, 5, 41, 127
1, 178176, Note_on_c, 11, 82, 127
1, 178176, Note_on_c, 11, 46, 127
1, 178176, Note_on_c, 2, 74, 127
1, 178457, Note_off_c, 11, 46, 127
1, 178461, Note_on_c, 11, 58, 127
1, 178600, Note_off_c, 11, 58, 127
1, 178604, Note_on_c, 0, 60, 127
1, 178736, Note_off_c, 2, 74, 127
1, 178736, Note_off_c, 11, 82, 127
1, 178743, Note_off_c, 0, 60, 127
1, 178747, Note_on_c, 2, 62, 127
1, 178890, Note_on_c, 0, 84, 127
1, 179028, Note_off_c, 2, 62, 127
1, 179029, Note_off_c, 0, 84, 127
1, 179033, Note_on_c, 11, 82, 127
1, 179033, Note_on_c, 11, 58, 127
1, 179033, Note_on_c, 2, 74, 127
1, 179172, Note_off_c, 11, 82, 127
1, 179176, Note_on_c, 8, 80, 127
1, 179314, Note_off_c, 2, 74, 127
1, 179314, Note_off_c, 11, 58, 127
1, 179315, Note_off_c, 8, 80, 127
1, 179319, Note_on_c, 7, 79, 127
1, 179319, Note_on_c, 3, 63, 127
1, 179462, Note_on_c, 5, 77, 127
1, 179600, Note_off_c, 3, 63, 127
1, 179600, Note_off_c, 7, 79, 127
1, 179601, Note_off_c, 5, 77, 127
1, 179605, Note_on_c, 0, 84, 127
1, 179605, Note_on_c, 0, 60, 127
1, 179605, Note_on_c, 3, 75, 127
1, 179744, Note_off_c, 3, 75, 127
1, 179744, Note_off_c, 0, 60, 127
1, 179748, Note_on_c, 2, 62, 127
1, 179748, Note_on_c, 2, 74, 127
1, 179887, Note_off_c, 2, 74, 127
1, 179887, Note_off_c, 2, 62, 127
1, 179891, Note_on_c, 3, 63, 127
1, 179891, Note_on_c, 0, 72, 127
1, 180027, Note_off_c, 0, 84, 127
1, 180033, Note_on_c, 11, 82, 127
1, 180172, Note_off_c, 11, 82, 127
1, 180172, Note_off_c, 0, 72, 127
1, 180172, Note_off_c, 3, 63, 127
1, 180176, Note_on_c, 10, 81, 127
1, 180176, Note_on_c, 0, 60, 127
1, 180176, Note_on_c, 3, 75, 127
1, 180315, Note_off_c, 10, 81, 127
1, 180319, Note_on_c, 7, 79, 127
1, 180457, Note_off_c, 3, 75, 127
1, 180457, Note_off_c, 0, 60, 127
1, 180458, Note_off_c, 7, 79, 127
1, 180462, Note_on_c, 6, 78, 127
1, 180462, Note_on_c, 2, 62, 127
1, 180462, Note_on_c, 10, 69, 127
1, 180601, Note_off_c, 6, 78, 127
1, 180605, Note_on_c, 4, 76, 127
1, 180743, Note_off_c, 10, 69, 127
1, 180743, Note_off_c, 2, 62, 127
1, 180744, Note_off_c, 4, 76, 127
1, 180748, Note_on_c, 2, 74, 127
1, 180748, Note_on_c, 2, 50, 127
1, 180748, Note_on_c, 6, 66, 127
1, 180887, Note_off_c, 6, 66, 127
1, 180887, Note_off_c, 2, 50, 127
1, 180891, Note_on_c, 4, 52, 127
1, 180891, Note_on_c, 7, 67, 127
1, 181027, Note_off_c, 2, 74, 127
1, 181030, Note_off_c, 7, 67, 127
1, 181030, Note_off_c, 4, 52, 127
1, 181037, Note_on_c, 6, 54, 127
1, 181037, Note_on_c, 10, 69, 127
1, 181317, Note_off_c, 10, 69, 127
1, 181317, Note_off_c, 6, 54, 127
1, 181318, Note_on_c, 2, 74, 127
1, 181318, Note_on_c, 2, 50, 127
1, 181318, Note_on_c, 6, 66, 127
1, 181598, Note_off_c, 6, 66, 127
1, 181598, Note_off_c, 2, 50, 127
1, 181598, Note_off_c, 2, 74, 127
1, 181599, Note_on_c, 11, 70, 127
1, 181599, Note_on_c, 7, 55, 127
1, 181599, Note_on_c, 7, 67, 127
1, 181879, Note_off_c, 7, 67, 127
1, 181879, Note_off_c, 7, 55, 127
1, 181879, Note_off_c, 11, 70, 127
1, 181880, Note_on_c, 7, 67, 127
1, 181880, Note_on_c, 7, 43, 127
1, 181880, Note_on_c, 11, 58, 127
1, 182019, Note_off_c, 11, 58, 127
1, 182019, Note_off_c, 7, 67, 127
1, 182020, Note_on_c, 10, 69, 127
1, 182020, Note_on_c, 0, 60, 127
1, 182159, Note_off_c, 0, 60, 127
1, 182159, Note_off_c, 10, 69, 127
1, 182160, Note_on_c, 11, 70, 127
1, 182160, Note_on_c, 2, 62, 127
1, 182289, Note_off_c, 7, 43, 127
1, 182440, Note_off_c, 2, 62, 127
1, 182440, Note_off_c, 11, 70, 127
1, 182441, Note_on_c, 2, 74, 127
1, 182441, Note_on_c, 6, 54, 127
1, 182441, Note_on_c, 10, 57, 127
1, 182721, Note_off_c, 10, 57, 127
1, 182721, Note_off_c, 6, 54, 127
1, 182721, Note_off_c, 2, 74, 127
1, 182722, Note_on_c, 11, 70, 127
1, 182722, Note_on_c, 7, 55, 127
1, 183002, Note_off_c, 7, 55, 127
1, 183002, Note_off_c, 11, 70, 127
1, 183003, Note_on_c, 7, 67, 127
1, 183003, Note_on_c, 7, 43, 127
1, 183142, Note_off_c, 7, 43, 127
1, 183143, Note_on_c, 10, 45, 127
1, 183282, Note_off_c, 10, 45, 127
1, 183283, Note_on_c, 11, 46, 127
1, 183412, Note_off_c, 7, 67, 127
1, 183563, Note_off_c, 11, 46, 127
1, 183564, Note_on_c, 2, 74, 127
1, 183564, Note_on_c, 6, 54, 127
1, 183564, Note_on_c, 10, 69, 127
1, 183844, Note_off_c, 10, 69, 127
1, 183844, Note_off_c, 6, 54, 127
1, 183844, Note_off_c, 2, 74, 127
1, 183845, Note_on_c, 11, 70, 127
1, 183845, Note_on_c, 7, 55, 127
1, 183845, Note_on_c, 2, 62, 127
1, 184125, Note_off_c, 2, 62, 127
1, 184125, Note_off_c, 7, 55, 127
1, 184125, Note_off_c, 11, 70, 127
1, 184126, Note_on_c, 7, 67, 127
1, 184126, Note_on_c, 7, 43, 127
1, 184126, Note_on_c, 11, 58, 127
1, 184265, Note_off_c, 11, 58, 127
1, 184265, Note_off_c, 7, 67, 127
1, 184266, Note_on_c, 10, 69, 127
1, 184266, Note_on_c, 0, 60, 127
1, 184405, Note_off_c, 0, 60, 127
1, 184405, Note_off_c, 10, 69, 127
1, 184406, Note_on_c, 11, 70, 127
1, 184406, Note_on_c, 2, 62, 127
1, 184535, Note_off_c, 7, 43, 127
1, 184686, Note_off_c, 2, 62, 127
1, 184686, Note_off_c, 11, 70, 127
1, 184687, Note_on_c, 2, 74, 127
1, 184687, Note_on_c, 6, 54, 127
1, 184687, Note_on_c, 10, 57, 127
1, 184965, Note_off_c, 10, 57, 127
1, 184966, Note_off_c, 6, 54, 127
1, 184966, Note_off_c, 2, 74, 127
1, 184967, Note_on_c, 11, 70, 127
1, 184967, Note_on_c, 7, 55, 127
1, 185247, Note_off_c, 7, 55, 127
1, 185247, Note_off_c, 11, 70, 127
1, 185248, Note_on_c, 7, 67, 127
1, 185248, Note_on_c, 7, 43, 127
1, 185248, Note_on_c, 11, 70, 127
1, 185387, Note_off_c, 11, 70, 127
1, 185387, Note_off_c, 7, 43, 127
1, 185388, Note_on_c, 10, 45, 127
1, 185388, Note_on_c, 0, 72, 127
1, 185527, Note_off_c, 0, 72, 127
1, 185527, Note_off_c, 10, 45, 127
1, 185528, Note_on_c, 11, 46, 127
1, 185528, Note_on_c, 2, 74, 127
1, 185657, Note_off_c, 7, 67, 127
1, 185667, Note_off_c, 2, 74, 127
1, 185668, Note_on_c, 0, 72, 127
1, 185807, Note_off_c, 0, 72, 127
1, 185807, Note_off_c, 11, 46, 127
1, 185808, Note_on_c, 2, 74, 127
1, 185808, Note_on_c, 7, 43, 127
1, 185808, Note_on_c, 11, 70, 127
1, 185947, Note_off_c, 11, 70, 127
1, 185948, Note_on_c, 10, 69, 127
1, 186087, Note_off_c, 10, 69, 127
1, 186087, Note_off_c, 7, 43, 127
1, 186087, Note_off_c, 2, 74, 127
1, 186088, Note_on_c, 3, 75, 127
1, 186088, Note_on_c, 0, 48, 127
1, 186088, Note_on_c, 7, 67, 127
1, 186227, Note_off_c, 0, 48, 127
1, 186228, Note_on_c, 7, 55, 127
1, 186367, Note_off_c, 7, 55, 127
1, 186367, Note_off_c, 3, 75, 127
1, 186368, Note_on_c, 3, 75, 127
1, 186368, Note_on_c, 0, 60, 127
1, 186507, Note_off_c, 0, 60, 127
1, 186507, Note_off_c, 7, 67, 127
1, 186508, Note_on_c, 11, 58, 127
1, 186508, Note_on_c, 7, 67, 127
1, 186647, Note_off_c, 7, 67, 127
1, 186647, Note_off_c, 11, 58, 127
1, 186648, Note_on_c, 10, 57, 127
1, 186648, Note_on_c, 0, 72, 127
1, 186787, Note_off_c, 3, 75, 127
1, 186788, Note_on_c, 2, 74, 127
1, 186927, Note_off_c, 2, 74, 127
1, 186927, Note_off_c, 10, 57, 127
1, 186928, Note_on_c, 3, 75, 127
1, 186928, Note_on_c, 5, 53, 127
1, 187057, Note_off_c, 0, 72, 127
1, 187067, Note_off_c, 3, 75, 127
1, 187068, Note_on_c, 0, 72, 127
1, 187207, Note_off_c, 0, 72, 127
1, 187207, Note_off_c, 5, 53, 127
1, 187208, Note_on_c, 2, 74, 127
1, 187208, Note_on_c, 11, 46, 127
1, 187347, Note_off_c, 11, 46, 127
1, 187348, Note_on_c, 5, 53, 127
1, 187487, Note_off_c, 5, 53, 127
1, 187487, Note_off_c, 2, 74, 127
1, 187488, Note_on_c, 2, 74, 127
1, 187488, Note_on_c, 11, 58, 127
1, 187627, Note_off_c, 11, 58, 127
1, 187628, Note_on_c, 10, 57, 127
1, 187628, Note_on_c, 5, 65, 127
1, 187767, Note_off_c, 5, 65, 127
1, 187767, Note_off_c, 10, 57, 127
1, 187768, Note_on_c, 7, 55, 127
1, 187768, Note_on_c, 11, 70, 127
1, 187907, Note_off_c, 2, 74, 127
1, 187908, Note_on_c, 0, 72, 127
1, 188047, Note_off_c, 0, 72, 127
1, 188047, Note_off_c, 7, 55, 127
1, 188048, Note_on_c, 2, 74, 127
1, 188048, Note_on_c, 3, 51, 127
1, 188177, Note_off_c, 11, 70, 127
1, 188187, Note_off_c, 2, 74, 127
1, 188188, Note_on_c, 11, 70, 127
1, 188327, Note_off_c, 11, 70, 127
1, 188327, Note_off_c, 3, 51, 127
1, 188328, Note_on_c, 0, 72, 127
1, 188328, Note_on_c, 10, 45, 127
1, 188467, Note_off_c, 10, 45, 127
1, 188468, Note_on_c, 4, 52, 127
1, 188607, Note_off_c, 4, 52, 127
1, 188607, Note_off_c, 0, 72, 127
1, 188608, Note_on_c, 0, 72, 127
1, 188608, Note_on_c, 10, 57, 127
1, 188747, Note_off_c, 10, 57, 127
1, 188748, Note_on_c, 7, 55, 127
1, 188748, Note_on_c, 4, 64, 127
1, 188887, Note_off_c, 4, 64, 127
1, 188887, Note_off_c, 7, 55, 127
1, 188888, Note_on_c, 6, 54, 127
1, 188888, Note_on_c, 10, 69, 127
1, 189027, Note_off_c, 0, 72, 127
1, 189028, Note_on_c, 11, 70, 127
1, 189167, Note_off_c, 11, 70, 127
1, 189167, Note_off_c, 6, 54, 127
1, 189168, Note_on_c, 0, 72, 127
1, 189168, Note_on_c, 2, 50, 127
1, 189297, Note_off_c, 10, 69, 127
1, 189307, Note_off_c, 0, 72, 127
1, 189308, Note_on_c, 10, 69, 127
1, 189447, Note_off_c, 10, 69, 127
1, 189447, Note_off_c, 2, 50, 127
1, 189448, Note_on_c, 11, 70, 127
1, 189448, Note_on_c, 7, 43, 127
1, 189587, Note_off_c, 7, 43, 127
1, 189587, Note_off_c, 11, 70, 127
1, 189588, Note_on_c, 10, 69, 127
1, 189588, Note_on_c, 7, 55, 127
1, 189727, Note_off_c, 7, 55, 127
1, 189727, Note_off_c, 10, 69, 127
1, 189728, Note_on_c, 7, 67, 127
1, 189728, Note_on_c, 11, 58, 127
1, 189867, Note_off_c, 11, 58, 127
1, 189867, Note_off_c, 7, 67, 127
1, 189868, Note_on_c, 10, 69, 127
1, 189868, Note_on_c, 10, 57, 127
1, 190007, Note_off_c, 10, 57, 127
1, 190007, Note_off_c, 10, 69, 127
1, 190008, Note_on_c, 11, 70, 127
1, 190008, Note_on_c, 7, 55, 127
1, 190147, Note_off_c, 7, 55, 127
1, 190147, Note_off_c, 11, 70, 127
1, 190148, Note_on_c, 2, 74, 127
1, 190148, Note_on_c, 5, 53, 127
1, 190287, Note_off_c, 5, 53, 127
1, 190287, Note_off_c, 2, 74, 127
1, 190288, Note_on_c, 7, 79, 127
1, 190288, Note_on_c, 3, 51, 127
1, 190427, Note_off_c, 3, 51, 127
1, 190427, Note_off_c, 7, 79, 127
1, 190428, Note_on_c, 5, 77, 127
1, 190428, Note_on_c, 2, 50, 127
1, 190567, Note_off_c, 2, 50, 127
1, 190567, Note_off_c, 5, 77, 127
1, 190568, Note_on_c, 3, 75, 127
1, 190568, Note_on_c, 0, 48, 127
1, 190568, Note_on_c, 0, 72, 127
1, 190707, Note_off_c, 3, 75, 127
1, 190708, Note_on_c, 2, 74, 127
1, 190847, Note_off_c, 2, 74, 127
1, 190847, Note_off_c, 0, 72, 127
1, 190847, Note_off_c, 0, 48, 127
1, 190848, Note_on_c, 0, 72, 127
1, 190848, Note_on_c, 3, 51, 127
1, 190848, Note_on_c, 7, 67, 127
1, 190987, Note_off_c, 0, 72, 127
1, 190988, Note_on_c, 2, 74, 127
1, 191127, Note_off_c, 2, 74, 127
1, 191127, Note_off_c, 3, 51, 127
1, 191128, Note_on_c, 0, 72, 127
1, 191128, Note_on_c, 2, 50, 127
1, 191267, Note_off_c, 0, 72, 127
1, 191268, Note_on_c, 11, 70, 127
1, 191407, Note_off_c, 11, 70, 127
1, 191407, Note_off_c, 2, 50, 127
1, 191407, Note_off_c, 7, 67, 127
1, 191408, Note_on_c, 10, 69, 127
1, 191408, Note_on_c, 2, 38, 127
1, 191408, Note_on_c, 6, 66, 127
1, 191547, Note_off_c, 10, 69, 127
1, 191548, Note_on_c, 7, 67, 127
1, 191687, Note_off_c, 7, 67, 127
1, 191687, Note_off_c, 6, 66, 127
1, 191687, Note_off_c, 2, 38, 127
1, 191688, Note_on_c, 7, 43, 127
1, 191688, Note_on_c, 7, 67, 127
1, 191828, Note_on_c, 2, 74, 127
1, 191967, Note_off_c, 2, 74, 127
1, 191968, Note_on_c, 7, 79, 127
1, 192107, Note_off_c, 7, 79, 127
1, 192108, Note_on_c, 10, 81, 127
1, 192243, Note_off_c, 7, 67, 127
1, 192243, Note_off_c, 7, 43, 127
1, 192247, Note_off_c, 10, 81, 127
1, 192248, Note_on_c, 12, 83, 127
1, 192387, Note_off_c, 12, 83, 127
1, 192388, Note_on_c, 0, 84, 127
1, 192527, Note_off_c, 0, 84, 127
1, 192528, Note_on_c, 10, 81, 127
1, 192528, Note_on_c, 7, 67, 127
1, 192667, Note_off_c, 10, 81, 127
1, 192668, Note_on_c, 12, 83, 127
1, 192807, Note_off_c, 12, 83, 127
1, 192807, Note_off_c, 7, 67, 127
1, 192808, Note_on_c, 0, 84, 127
1, 192808, Note_on_c, 3, 63, 127
1, 192947, Note_off_c, 0, 84, 127
1, 192948, Note_on_c, 0, 72, 127
1, 193087, Note_off_c, 0, 72, 127
1, 193087, Note_off_c, 3, 63, 127
1, 193088, Note_on_c, 3, 75, 127
1, 193088, Note_on_c, 0, 60, 127
1, 193227, Note_off_c, 0, 60, 127
1, 193227, Note_off_c, 3, 75, 127
1, 193228, Note_on_c, 5, 77, 127
1, 193228, Note_on_c, 2, 62, 127
1, 193367, Note_off_c, 2, 62, 127
1, 193367, Note_off_c, 5, 77, 127
1, 193368, Note_on_c, 7, 79, 127
1, 193368, Note_on_c, 3, 63, 127
1, 193507, Note_off_c, 7, 79, 127
1, 193508, Note_on_c, 7, 67, 127
1, 193647, Note_off_c, 7, 67, 127
1, 193647, Note_off_c, 3, 63, 127
1, 193648, Note_on_c, 10, 69, 127
1, 193648, Note_on_c, 7, 67, 127
1, 193787, Note_off_c, 10, 69, 127
1, 193788, Note_on_c, 12, 71, 127
1, 193927, Note_off_c, 12, 71, 127
1, 193927, Note_off_c, 7, 67, 127
1, 193928, Note_on_c, 0, 72, 127
1, 193928, Note_on_c, 3, 63, 127
1, 194067, Note_off_c, 0, 72, 127
1, 194068, Note_on_c, 0, 60, 127
1, 194207, Note_off_c, 0, 60, 127
1, 194207, Note_off_c, 3, 63, 127
1, 194208, Note_on_c, 3, 63, 127
1, 194208, Note_on_c, 0, 60, 127
1, 194347, Note_off_c, 3, 63, 127
1, 194348, Note_on_c, 5, 65, 127
1, 194487, Note_off_c, 5, 65, 127
1, 194488, Note_on_c, 7, 67, 127
1, 194617, Note_off_c, 0, 60, 127
1, 194627, Note_off_c, 7, 67, 127
1, 194628, Note_on_c, 7, 55, 127
1, 194767, Note_off_c, 7, 55, 127
1, 194768, Note_on_c, 10, 57, 127
1, 194768, Note_on_c, 7, 67, 127
1, 194907, Note_off_c, 10, 57, 127
1, 194908, Note_on_c, 12, 59, 127
1, 195047, Note_off_c, 12, 59, 127
1, 195047, Note_off_c, 7, 67, 127
1, 195048, Note_on_c, 0, 60, 127
1, 195048, Note_on_c, 3, 63, 127
1, 195187, Note_off_c, 0, 60, 127
1, 195188, Note_on_c, 0, 48, 127
1, 195327, Note_off_c, 0, 48, 127
1, 195327, Note_off_c, 3, 63, 127
1, 195328, Note_on_c, 3, 51, 127
1, 195328, Note_on_c, 0, 60, 127
1, 195467, Note_off_c, 0, 60, 127
1, 195467, Note_off_c, 3, 51, 127
1, 195468, Note_on_c, 5, 53, 127
1, 195468, Note_on_c, 2, 62, 127
1, 195607, Note_off_c, 2, 62, 127
1, 195607, Note_off_c, 5, 53, 127
1, 195608, Note_on_c, 7, 55, 127
1, 195608, Note_on_c, 3, 63, 127
1, 195747, Note_off_c, 7, 55, 127
1, 195748, Note_on_c, 7, 43, 127
1, 195887, Note_off_c, 7, 43, 127
1, 195887, Note_off_c, 3, 63, 127
1, 195888, Note_on_c, 10, 45, 127
1, 195888, Note_on_c, 7, 67, 127
1, 196027, Note_off_c, 10, 45, 127
1, 196028, Note_on_c, 12, 47, 127
1, 196167, Note_off_c, 12, 47, 127
1, 196167, Note_off_c, 7, 67, 127
1, 196168, Note_on_c, 0, 48, 127
1, 196168, Note_on_c, 3, 63, 127
1, 196307, Note_off_c, 0, 48, 127
1, 196308, Note_on_c, 0, 60, 127
1, 196447, Note_off_c, 0, 60, 127
1, 196447, Note_off_c, 3, 63, 127
1, 196448, Note_on_c, 3, 63, 127
1, 196448, Note_on_c, 0, 60, 127
1, 196587, Note_off_c, 3, 63, 127
1, 196588, Note_on_c, 5, 65, 127
1, 196727, Note_off_c, 5, 65, 127
1, 196728, Note_on_c, 7, 67, 127
1, 196857, Note_off_c, 0, 60, 127
1, 196867, Note_off_c, 7, 67, 127
1, 196868, Note_on_c, 10, 69, 127
1, 197007, Note_off_c, 10, 69, 127
1, 197008, Note_on_c, 12, 71, 127
1, 197008, Note_on_c, 7, 67, 127
1, 197140, Note_off_c, 7, 67, 127
1, 197147, Note_off_c, 12, 71, 127
1, 197148, Note_on_c, 7, 67, 127
1, 197287, Note_off_c, 7, 67, 127
1, 197288, Note_on_c, 0, 72, 127
1, 197288, Note_on_c, 8, 68, 127
1, 197427, Note_off_c, 0, 72, 127
1, 197428, Note_on_c, 5, 65, 127
1, 197567, Note_off_c, 5, 65, 127
1, 197567, Note_off_c, 8, 68, 127
1, 197568, Note_on_c, 5, 77, 127
1, 197568, Note_on_c, 8, 68, 127
1, 197707, Note_off_c, 5, 77, 127
1, 197708, Note_on_c, 3, 75, 127
1, 197847, Note_off_c, 3, 75, 127
1, 197848, Note_on_c, 2, 74, 127
1, 197987, Note_off_c, 8, 68, 127
1, 197988, Note_on_c, 7, 67, 127
1, 198127, Note_off_c, 7, 67, 127
1, 198127, Note_off_c, 2, 74, 127
1, 198128, Note_on_c, 11, 70, 127
1, 198128, Note_on_c, 8, 68, 127
1, 198267, Note_off_c, 8, 68, 127
1, 198268, Note_on_c, 5, 65, 127
1, 198407, Note_off_c, 5, 65, 127
1, 198408, Note_on_c, 7, 67, 127
1, 198547, Note_off_c, 11, 70, 127
1, 198548, Note_on_c, 3, 63, 127
1, 198687, Note_off_c, 3, 63, 127
1, 198687, Note_off_c, 7, 67, 127
1, 198688, Note_on_c, 3, 75, 127
1, 198688, Note_on_c, 7, 67, 127
1, 198827, Note_off_c, 3, 75, 127
1, 198828, Note_on_c, 2, 74, 127
1, 198967, Note_off_c, 2, 74, 127
1, 198968, Note_on_c, 0, 72, 127
1, 199107, Note_off_c, 7, 67, 127
1, 199108, Note_on_c, 5, 65, 127
1, 199247, Note_off_c, 5, 65, 127
1, 199247, Note_off_c, 0, 72, 127
1, 199248, Note_on_c, 8, 68, 127
1, 199248, Note_on_c, 7, 67, 127
1, 199387, Note_off_c, 7, 67, 127
1, 199388, Note_on_c, 3, 63, 127
1, 199527, Note_off_c, 3, 63, 127
1, 199528, Note_on_c, 5, 65, 127
1, 199667, Note_off_c, 8, 68, 127
1, 199668, Note_on_c, 2, 62, 127
1, 199807, Note_off_c, 2, 62, 127
1, 199807, Note_off_c, 5, 65, 127
1, 199808, Note_on_c, 2, 74, 127
1, 199808, Note_on_c, 5, 65, 127
1, 199947, Note_off_c, 2, 74, 127
1, 199948, Note_on_c, 0, 72, 127
1, 200087, Note_off_c, 0, 72, 127
1, 200088, Note_on_c, 12, 71, 127
1, 200227, Note_off_c, 5, 65, 127
1, 200228, Note_on_c, 3, 63, 127
1, 200367, Note_off_c, 3, 63, 127
1, 200367, Note_off_c, 12, 71, 127
1, 200368, Note_on_c, 7, 67, 127
1, 200368, Note_on_c, 5, 65, 127
1, 200507, Note_off_c, 5, 65, 127
1, 200508, Note_on_c, 2, 62, 127
1, 200646, Note_off_c, 7, 67, 127
1, 200647, Note_off_c, 2, 62, 127
1, 200648, Note_on_c, 7, 67, 127
1, 200648, Note_on_c, 3, 63, 127
1, 200787, Note_off_c, 3, 63, 127
1, 200788, Note_on_c, 2, 62, 127
1, 200927, Note_off_c, 2, 62, 127
1, 200927, Note_off_c, 7, 67, 127
1, 200928, Note_on_c, 10, 69, 127
1, 200928, Note_on_c, 0, 60, 127
1, 201067, Note_off_c, 0, 60, 127
1, 201067, Note_off_c, 10, 69, 127
1, 201068, Note_on_c, 12, 71, 127
1, 201068, Note_on_c, 2, 62, 127
1, 201207, Note_off_c, 2, 62, 127
1, 201207, Note_off_c, 12, 71, 127
1, 201208, Note_on_c, 0, 72, 127
1, 201208, Note_on_c, 3, 63, 127
1, 201347, Note_off_c, 3, 63, 127
1, 201347, Note_off_c, 0, 72, 127
1, 201348, Note_on_c, 2, 74, 127
1, 201348, Note_on_c, 5, 65, 127
1, 201487, Note_off_c, 5, 65, 127
1, 201487, Note_off_c, 2, 74, 127
1, 201488, Note_on_c, 3, 75, 127
1, 201488, Note_on_c, 7, 67, 127
1, 201627, Note_off_c, 7, 67, 127
1, 201627, Note_off_c, 3, 75, 127
1, 201628, Note_on_c, 0, 72, 127
1, 201628, Note_on_c, 3, 63, 127
1, 201767, Note_off_c, 3, 63, 127
1, 201767, Note_off_c, 0, 72, 127
1, 201768, Note_on_c, 5, 77, 127
1, 201768, Note_on_c, 8, 68, 127
1, 201907, Note_off_c, 8, 68, 127
1, 201907, Note_off_c, 5, 77, 127
1, 201908, Note_on_c, 2, 74, 127
1, 201908, Note_on_c, 12, 59, 127
1, 202047, Note_off_c, 12, 59, 127
1, 202047, Note_off_c, 2, 74, 127
1, 202048, Note_on_c, 3, 75, 127
1, 202048, Note_on_c, 0, 60, 127
1, 202187, Note_off_c, 0, 60, 127
1, 202187, Note_off_c, 3, 75, 127
1, 202188, Note_on_c, 0, 72, 127
1, 202188, Note_on_c, 2, 62, 127
1, 202327, Note_off_c, 2, 62, 127
1, 202327, Note_off_c, 0, 72, 127
1, 202328, Note_on_c, 0, 72, 127
1, 202328, Note_on_c, 7, 55, 127
1, 202392, Note_on_c, 12, 71, 127
1, 202398, Note_off_c, 0, 72, 127
1, 202457, Note_on_c, 0, 72, 127
1, 202463, Note_off_c, 12, 71, 127
1, 202467, Note_off_c, 7, 55, 127
1, 202468, Note_on_c, 3, 63, 127
1, 202521, Note_on_c, 12, 71, 127
1, 202527, Note_off_c, 0, 72, 127
1, 202607, Note_off_c, 3, 63, 127
1, 202608, Note_on_c, 2, 62, 127
1, 202747, Note_off_c, 2, 62, 127
1, 202748, Note_on_c, 0, 72, 127
1, 202748, Note_on_c, 0, 60, 127
1, 202754, Note_off_c, 12, 71, 127
1, 202890, Note_off_c, 0, 60, 127
1, 202890, Note_off_c, 0, 72, 127
1, 202907, Note_on_c, 0, 72, 127
1, 202907, Note_on_c, 0, 60, 127
1, 203046, Note_on_c, 11, 70, 127
1, 203049, Note_off_c, 0, 72, 127
1, 203187, Note_off_c, 11, 70, 127
1, 203191, Note_on_c, 8, 68, 127
1, 203191, Note_on_c, 5, 65, 127
1, 203195, Note_off_c, 0, 60, 127
1, 203333, Note_off_c, 5, 65, 127
1, 203333, Note_off_c, 8, 68, 127
1, 203337, Note_on_c, 7, 67, 127
1, 203337, Note_on_c, 3, 63, 127
1, 203479, Note_off_c, 3, 63, 127
1, 203479, Note_off_c, 7, 67, 127
1, 203485, Note_on_c, 5, 65, 127
1, 203485, Note_on_c, 2, 62, 127
1, 203627, Note_off_c, 2, 62, 127
1, 203627, Note_off_c, 5, 65, 127
1, 203633, Note_on_c, 8, 68, 127
1, 203633, Note_on_c, 0, 60, 127
1, 203775, Note_off_c, 0, 60, 127
1, 203775, Note_off_c, 8, 68, 127
1, 203781, Note_on_c, 7, 67, 127
1, 203781, Note_on_c, 12, 59, 127
1, 203923, Note_off_c, 12, 59, 127
1, 203923, Note_off_c, 7, 67, 127
1, 203929, Note_on_c, 5, 65, 127
1, 203929, Note_on_c, 2, 62, 127
1, 204071, Note_off_c, 2, 62, 127
1, 204071, Note_off_c, 5, 65, 127
1, 204077, Note_on_c, 3, 63, 127
1, 204077, Note_on_c, 0, 60, 127
1, 204219, Note_off_c, 0, 60, 127
1, 204219, Note_off_c, 3, 63, 127
1, 204225, Note_on_c, 7, 67, 127
1, 204225, Note_on_c, 11, 58, 127
1, 204367, Note_off_c, 11, 58, 127
1, 204367, Note_off_c, 7, 67, 127
1, 204373, Note_on_c, 0, 72, 127
1, 204373, Note_on_c, 8, 56, 127
1, 204515, Note_off_c, 8, 56, 127
1, 204515, Note_off_c, 0, 72, 127
1, 204519, Note_on_c, 11, 70, 127
1, 204519, Note_on_c, 0, 60, 127
1, 204661, Note_off_c, 0, 60, 127
1, 204661, Note_off_c, 11, 70, 127
1, 204665, Note_on_c, 8, 68, 127
1, 204665, Note_on_c, 5, 65, 127
1, 204807, Note_off_c, 5, 65, 127
1, 204807, Note_off_c, 8, 68, 127
1, 204813, Note_on_c, 0, 72, 127
1, 204813, Note_on_c, 3, 63, 127
1, 204955, Note_off_c, 3, 63, 127
1, 204955, Note_off_c, 0, 72, 127
1, 204961, Note_on_c, 5, 77, 127
1, 204961, Note_on_c, 2, 62, 127
1, 205103, Note_off_c, 2, 62, 127
1, 205103, Note_off_c, 5, 77, 127
1, 205109, Note_on_c, 3, 75, 127
1, 205109, Note_on_c, 0, 60, 127
1, 205251, Note_off_c, 0, 60, 127
1, 205251, Note_off_c, 3, 75, 127
1, 205257, Note_on_c, 2, 74, 127
1, 205257, Note_on_c, 12, 59, 127
1, 205399, Note_off_c, 12, 59, 127
1, 205399, Note_off_c, 2, 74, 127
1, 205405, Note_on_c, 0, 72, 127
1, 205405, Note_on_c, 2, 62, 127
1, 205547, Note_off_c, 2, 62, 127
1, 205547, Note_off_c, 0, 72, 127
1, 205553, Note_on_c, 12, 71, 127
1, 205553, Note_on_c, 7, 67, 127
1, 205695, Note_off_c, 7, 67, 127
1, 205695, Note_off_c, 12, 71, 127
1, 205701, Note_on_c, 2, 74, 127
1, 205701, Note_on_c, 5, 65, 127
1, 205843, Note_off_c, 5, 65, 127
1, 205843, Note_off_c, 2, 74, 127
1, 205847, Note_on_c, 7, 79, 127
1, 205847, Note_on_c, 3, 63, 127
1, 205989, Note_off_c, 3, 63, 127
1, 205989, Note_off_c, 7, 79, 127
1, 205995, Note_on_c, 5, 77, 127
1, 205995, Note_on_c, 7, 67, 127
1, 206137, Note_off_c, 7, 67, 127
1, 206137, Note_off_c, 5, 77, 127
1, 206143, Note_on_c, 3, 75, 127
1, 206143, Note_on_c, 0, 72, 127
1, 206285, Note_off_c, 0, 72, 127
1, 206285, Note_off_c, 3, 75, 127
1, 206291, Note_on_c, 7, 79, 127
1, 206291, Note_on_c, 11, 70, 127
1, 206433, Note_off_c, 11, 70, 127
1, 206433, Note_off_c, 7, 79, 127
1, 206439, Note_on_c, 0, 72, 127
1, 206439, Note_on_c, 8, 68, 127
1, 206581, Note_off_c, 8, 68, 127
1, 206581, Note_off_c, 0, 72, 127
1, 206587, Note_on_c, 3, 75, 127
1, 206587, Note_on_c, 7, 67, 127
1, 206729, Note_off_c, 7, 67, 127
1, 206729, Note_off_c, 3, 75, 127
1, 206735, Note_on_c, 2, 74, 127
1, 206735, Note_on_c, 5, 65, 127
1, 206877, Note_off_c, 5, 65, 127
1, 206877, Note_off_c, 2, 74, 127
1, 206883, Note_on_c, 0, 72, 127
1, 206883, Note_on_c, 8, 68, 127
1, 207025, Note_off_c, 8, 68, 127
1, 207025, Note_off_c, 0, 72, 127
1, 207029, Note_on_c, 12, 71, 127
1, 207029, Note_on_c, 3, 63, 127
1, 207098, Note_on_c, 2, 62, 127
1, 207101, Note_off_c, 3, 63, 127
1, 207165, Note_on_c, 3, 63, 127
1, 207169, Note_off_c, 2, 62, 127
1, 207232, Note_on_c, 2, 62, 127
1, 207236, Note_off_c, 3, 63, 127
1, 207324, Note_on_c, 7, 55, 127
1, 207419, Note_off_c, 12, 71, 127
1, 207472, Note_on_c, 0, 60, 127
1, 207472, Note_on_c, 0, 72, 127
1, 207473, Note_off_c, 2, 62, 127
1, 207611, Note_off_c, 0, 72, 127
1, 207611, Note_off_c, 0, 60, 127
1, 207611, Note_off_c, 7, 55, 127
1, 207612, Note_on_c, 0, 60, 127
1, 207612, Note_on_c, 3, 51, 127
1, 207612, Note_on_c, 0, 72, 127
1, 207892, Note_off_c, 0, 72, 127
1, 207892, Note_off_c, 3, 51, 127
1, 207893, Note_on_c, 0, 48, 127
1, 207893, Note_on_c, 3, 75, 127
1, 208032, Note_off_c, 3, 75, 127
1, 208032, Note_off_c, 0, 48, 127
1, 208033, Note_on_c, 2, 50, 127
1, 208033, Note_on_c, 5, 77, 127
1, 208168, Note_off_c, 0, 60, 127
1, 208172, Note_off_c, 5, 77, 127
1, 208172, Note_off_c, 2, 50, 127
1, 208173, Note_on_c, 3, 51, 127
1, 208173, Note_on_c, 7, 79, 127
1, 208453, Note_off_c, 7, 79, 127
1, 208453, Note_off_c, 3, 51, 127
1, 208454, Note_on_c, 12, 71, 127
1, 208454, Note_on_c, 7, 55, 127
1, 208454, Note_on_c, 2, 74, 127
1, 208734, Note_off_c, 2, 74, 127
1, 208734, Note_off_c, 7, 55, 127
1, 208734, Note_off_c, 12, 71, 127
1, 208735, Note_on_c, 0, 72, 127
1, 208735, Note_on_c, 3, 51, 127
1, 208735, Note_on_c, 3, 75, 127
1, 209015, Note_off_c, 3, 75, 127
1, 209015, Note_off_c, 3, 51, 127
1, 209015, Note_off_c, 0, 72, 127
1, 209016, Note_on_c, 0, 60, 127
1, 209016, Note_on_c, 0, 48, 127
1, 209016, Note_on_c, 3, 63, 127
1, 209155, Note_off_c, 3, 63, 127
1, 209155, Note_off_c, 0, 60, 127
1, 209156, Note_on_c, 2, 62, 127
1, 209156, Note_on_c, 5, 65, 127
1, 209295, Note_off_c, 5, 65, 127
1, 209295, Note_off_c, 2, 62, 127
1, 209296, Note_on_c, 3, 63, 127
1, 209296, Note_on_c, 7, 67, 127
1, 209425, Note_off_c, 0, 48, 127
1, 209576, Note_off_c, 7, 67, 127
1, 209576, Note_off_c, 3, 63, 127
1, 209577, Note_on_c, 2, 62, 127
1, 209577, Note_on_c, 7, 55, 127
1, 209577, Note_on_c, 12, 71, 127
1, 209857, Note_off_c, 12, 71, 127
1, 209857, Note_off_c, 7, 55, 127
1, 209857, Note_off_c, 2, 62, 127
1, 209858, Note_on_c, 3, 63, 127
1, 209858, Note_on_c, 3, 51, 127
1, 209858, Note_on_c, 0, 72, 127
1, 210138, Note_off_c, 0, 72, 127
1, 210138, Note_off_c, 3, 51, 127
1, 210138, Note_off_c, 3, 63, 127
1, 210139, Note_on_c, 0, 60, 127
1, 210139, Note_on_c, 0, 48, 127
1, 210139, Note_on_c, 3, 75, 127
1, 210278, Note_off_c, 3, 75, 127
1, 210278, Note_off_c, 0, 48, 127
1, 210279, Note_on_c, 2, 50, 127
1, 210279, Note_on_c, 5, 77, 127
1, 210418, Note_off_c, 5, 77, 127
1, 210418, Note_off_c, 2, 50, 127
1, 210419, Note_on_c, 3, 51, 127
1, 210419, Note_on_c, 7, 79, 127
1, 210548, Note_off_c, 0, 60, 127
1, 210699, Note_off_c, 7, 79, 127
1, 210699, Note_off_c, 3, 51, 127
1, 210700, Note_on_c, 7, 67, 127
1, 210700, Note_on_c, 7, 55, 127
1, 210700, Note_on_c, 2, 74, 127
1, 210700, Note_on_c, 12, 71, 127
1, 210980, Note_off_c, 12, 71, 127
1, 210980, Note_off_c, 2, 74, 127
1, 210980, Note_off_c, 7, 55, 127
1, 210980, Note_off_c, 7, 67, 127
1, 210981, Note_on_c, 3, 51, 127
1, 210981, Note_on_c, 0, 72, 127
1, 210981, Note_on_c, 3, 75, 127
1, 211261, Note_off_c, 3, 75, 127
1, 211261, Note_off_c, 0, 72, 127
1, 211261, Note_off_c, 3, 51, 127
1, 211262, Note_on_c, 3, 63, 127
1, 211262, Note_on_c, 0, 48, 127
1, 211262, Note_on_c, 0, 72, 127
1, 211401, Note_off_c, 0, 72, 127
1, 211401, Note_off_c, 3, 63, 127
1, 211402, Note_on_c, 5, 65, 127
1, 211402, Note_on_c, 2, 74, 127
1, 211541, Note_off_c, 2, 74, 127
1, 211541, Note_off_c, 5, 65, 127
1, 211542, Note_on_c, 7, 67, 127
1, 211542, Note_on_c, 3, 75, 127
1, 211671, Note_off_c, 0, 48, 127
1, 211681, Note_off_c, 7, 67, 127
1, 211682, Note_on_c, 10, 69, 127
1, 211821, Note_off_c, 10, 69, 127
1, 211821, Note_off_c, 3, 75, 127
1, 211822, Note_on_c, 7, 67, 127
1, 211822, Note_on_c, 7, 55, 127
1, 211822, Note_on_c, 12, 71, 127
1, 211961, Note_off_c, 7, 67, 127
1, 211962, Note_on_c, 5, 65, 127
1, 212101, Note_off_c, 5, 65, 127
1, 212101, Note_off_c, 12, 71, 127
1, 212101, Note_off_c, 7, 55, 127
1, 212102, Note_on_c, 3, 63, 127
1, 212102, Note_on_c, 8, 56, 127
1, 212102, Note_on_c, 0, 72, 127
1, 212241, Note_off_c, 3, 63, 127
1, 212242, Note_on_c, 0, 60, 127
1, 212381, Note_off_c, 0, 60, 127
1, 212381, Note_off_c, 0, 72, 127
1, 212381, Note_off_c, 8, 56, 127
1, 212382, Note_on_c, 5, 65, 127
1, 212382, Note_on_c, 8, 56, 127
1, 212382, Note_on_c, 8, 68, 127
1, 212521, Note_off_c, 8, 68, 127
1, 212521, Note_off_c, 5, 65, 127
1, 212522, Note_on_c, 3, 63, 127
1, 212522, Note_on_c, 7, 67, 127
1, 212661, Note_off_c, 7, 67, 127
1, 212661, Note_off_c, 3, 63, 127
1, 212662, Note_on_c, 2, 62, 127
1, 212662, Note_on_c, 5, 65, 127
1, 212801, Note_off_c, 8, 56, 127
1, 212802, Note_on_c, 7, 55, 127
1, 212941, Note_off_c, 7, 55, 127
1, 212941, Note_off_c, 5, 65, 127
1, 212941, Note_off_c, 2, 62, 127
1, 212942, Note_on_c, 11, 58, 127
1, 212942, Note_on_c, 8, 56, 127
1, 212942, Note_on_c, 2, 62, 127
1, 213081, Note_off_c, 8, 56, 127
1, 213082, Note_on_c, 5, 53, 127
1, 213221, Note_off_c, 5, 53, 127
1, 213221, Note_off_c, 2, 62, 127
1, 213222, Note_on_c, 7, 55, 127
1, 213222, Note_on_c, 3, 63, 127
1, 213361, Note_off_c, 11, 58, 127
1, 213362, Note_on_c, 11, 58, 127
1, 213501, Note_off_c, 11, 58, 127
1, 213501, Note_off_c, 3, 63, 127
1, 213501, Note_off_c, 7, 55, 127
1, 213502, Note_on_c, 3, 63, 127
1, 213502, Note_on_c, 7, 55, 127
1, 213502, Note_on_c, 7, 67, 127
1, 213641, Note_off_c, 7, 67, 127
1, 213641, Note_off_c, 3, 63, 127
1, 213642, Note_on_c, 2, 62, 127
1, 213642, Note_on_c, 5, 65, 127
1, 213781, Note_off_c, 5, 65, 127
1, 213781, Note_off_c, 2, 62, 127
1, 213782, Note_on_c, 0, 60, 127
1, 213782, Note_on_c, 3, 63, 127
1, 213921, Note_off_c, 7, 55, 127
1, 213922, Note_on_c, 5, 53, 127
1, 214061, Note_off_c, 5, 53, 127
1, 214061, Note_off_c, 3, 63, 127
1, 214061, Note_off_c, 0, 60, 127
1, 214062, Note_on_c, 8, 56, 127
1, 214062, Note_on_c, 7, 55, 127
1, 214062, Note_on_c, 0, 60, 127
1, 214201, Note_off_c, 7, 55, 127
1, 214202, Note_on_c, 3, 51, 127
1, 214341, Note_off_c, 3, 51, 127
1, 214341, Note_off_c, 0, 60, 127
1, 214342, Note_on_c, 5, 53, 127
1, 214342, Note_on_c, 2, 62, 127
1, 214481, Note_off_c, 8, 56, 127
1, 214482, Note_on_c, 10, 57, 127
1, 214621, Note_off_c, 10, 57, 127
1, 214621, Note_off_c, 2, 62, 127
1, 214621, Note_off_c, 5, 53, 127
1, 214622, Note_on_c, 2, 62, 127
1, 214622, Note_on_c, 5, 53, 127
1, 214622, Note_on_c, 5, 65, 127
1, 214761, Note_off_c, 5, 65, 127
1, 214761, Note_off_c, 2, 62, 127
1, 214762, Note_on_c, 0, 60, 127
1, 214762, Note_on_c, 3, 63, 127
1, 214901, Note_off_c, 3, 63, 127
1, 214901, Note_off_c, 0, 60, 127
1, 214902, Note_on_c, 12, 59, 127
1, 214902, Note_on_c, 2, 62, 127
1, 215041, Note_off_c, 5, 53, 127
1, 215042, Note_on_c, 3, 51, 127
1, 215181, Note_off_c, 3, 51, 127
1, 215181, Note_off_c, 2, 62, 127
1, 215181, Note_off_c, 12, 59, 127
1, 215182, Note_on_c, 7, 55, 127
1, 215182, Note_on_c, 5, 53, 127
1, 215182, Note_on_c, 12, 59, 127
1, 215321, Note_off_c, 5, 53, 127
1, 215322, Note_on_c, 2, 50, 127
1, 215461, Note_off_c, 2, 50, 127
1, 215461, Note_off_c, 12, 59, 127
1, 215462, Note_on_c, 3, 51, 127
1, 215462, Note_on_c, 0, 60, 127
1, 215601, Note_off_c, 0, 60, 127
1, 215601, Note_off_c, 3, 51, 127
1, 215602, Note_on_c, 2, 50, 127
1, 215602, Note_on_c, 2, 62, 127
1, 215741, Note_off_c, 2, 62, 127
1, 215741, Note_off_c, 2, 50, 127
1, 215742, Note_on_c, 0, 48, 127
1, 215742, Note_on_c, 3, 63, 127
1, 215881, Note_off_c, 3, 63, 127
1, 215881, Note_off_c, 0, 48, 127
1, 215882, Note_on_c, 2, 50, 127
1, 215882, Note_on_c, 5, 65, 127
1, 216021, Note_off_c, 5, 65, 127
1, 216021, Note_off_c, 2, 50, 127
1, 216021, Note_off_c, 7, 55, 127
1, 216022, Note_on_c, 3, 51, 127
1, 216022, Note_on_c, 7, 67, 127
1, 216161, Note_off_c, 7, 67, 127
1, 216161, Note_off_c, 3, 51, 127
1, 216162, Note_on_c, 5, 53, 127
1, 216162, Note_on_c, 10, 69, 127
1, 216301, Note_off_c, 10, 69, 127
1, 216301, Note_off_c, 5, 53, 127
1, 216302, Note_on_c, 2, 62, 127
1, 216302, Note_on_c, 7, 55, 127
1, 216302, Note_on_c, 12, 71, 127
1, 216441, Note_off_c, 12, 71, 127
1, 216441, Note_off_c, 7, 55, 127
1, 216441, Note_off_c, 2, 62, 127
1, 216442, Note_on_c, 3, 63, 127
1, 216442, Note_on_c, 3, 51, 127
1, 216442, Note_on_c, 0, 72, 127
1, 216581, Note_off_c, 0, 72, 127
1, 216581, Note_off_c, 3, 51, 127
1, 216581, Note_off_c, 3, 63, 127
1, 216582, Note_on_c, 5, 65, 127
1, 216582, Note_on_c, 8, 56, 127
1, 216582, Note_on_c, 2, 74, 127
1, 216721, Note_off_c, 2, 74, 127
1, 216721, Note_off_c, 8, 56, 127
1, 216722, Note_on_c, 12, 47, 127
1, 216722, Note_on_c, 7, 67, 127
1, 216861, Note_off_c, 7, 67, 127
1, 216861, Note_off_c, 12, 47, 127
1, 216861, Note_off_c, 5, 65, 127
1, 216862, Note_on_c, 3, 63, 127
1, 216862, Note_on_c, 0, 48, 127
1, 216862, Note_on_c, 0, 72, 127
1, 217001, Note_off_c, 0, 72, 127
1, 217001, Note_off_c, 0, 48, 127
1, 217001, Note_off_c, 3, 63, 127
1, 217002, Note_on_c, 5, 65, 127
1, 217002, Note_on_c, 5, 41, 127
1, 217002, Note_on_c, 2, 74, 127
1, 217141, Note_off_c, 2, 74, 127
1, 217141, Note_off_c, 5, 41, 127
1, 217141, Note_off_c, 5, 65, 127
1, 217142, Note_on_c, 2, 62, 127
1, 217142, Note_on_c, 7, 43, 127
1, 217142, Note_on_c, 0, 72, 127
1, 217203, Note_on_c, 12, 71, 127
1, 217212, Note_off_c, 0, 72, 127
1, 217265, Note_on_c, 0, 72, 127
1, 217274, Note_off_c, 12, 71, 127
1, 217327, Note_on_c, 12, 71, 127
1, 217336, Note_off_c, 0, 72, 127
1, 217389, Note_on_c, 0, 72, 127
1, 217398, Note_off_c, 12, 71, 127
1, 217451, Note_on_c, 12, 71, 127
1, 217460, Note_off_c, 0, 72, 127
1, 217557, Note_off_c, 12, 71, 127
1, 217564, Note_off_c, 7, 43, 127
1, 217564, Note_off_c, 2, 62, 127
1, 217565, Note_on_c, 2, 62, 127
1, 217565, Note_on_c, 7, 43, 127
1, 217565, Note_on_c, 12, 71, 127
1, 217704, Note_off_c, 12, 71, 127
1, 217704, Note_off_c, 7, 43, 127
1, 217704, Note_off_c, 2, 62, 127
1, 217705, Note_on_c, 3, 63, 127
1, 217705, Note_on_c, 0, 36, 127
1, 217705, Note_on_c, 0, 72, 127
1, 217881, Note_off_c, 0, 72, 127
1, 217916, Note_on_c, 3, 75, 127
1, 218055, Note_off_c, 3, 75, 127
1, 218056, Note_on_c, 2, 74, 127
1, 218195, Note_off_c, 2, 74, 127
1, 218196, Note_on_c, 0, 72, 127
1, 218260, Note_off_c, 0, 36, 127
1, 218260, Note_off_c, 3, 63, 127
1, 218335, Note_off_c, 0, 72, 127
1, 218336, Note_on_c, 7, 79, 127
1, 218506, Note_on_c, 12, 71, 127
1, 218614, Note_off_c, 7, 79, 127
1, 218652, Note_on_c, 10, 69, 127
1, 218656, Note_off_c, 12, 71, 127
1, 218791, Note_off_c, 10, 69, 127
1, 218792, Note_on_c, 7, 67, 127
1, 218931, Note_off_c, 7, 67, 127
1, 218932, Note_on_c, 0, 72, 127
1, 219102, Note_on_c, 3, 63, 127
1, 219210, Note_off_c, 0, 72, 127
1, 219241, Note_off_c, 3, 63, 127
1, 219248, Note_on_c, 2, 62, 127
1, 219387, Note_off_c, 2, 62, 127
1, 219388, Note_on_c, 0, 60, 127
1, 219527, Note_off_c, 0, 60, 127
1, 219528, Note_on_c, 7, 67, 127
1, 219692, Note_on_c, 12, 59, 127
1, 219806, Note_off_c, 7, 67, 127
1, 219831, Note_off_c, 12, 59, 127
1, 219832, Note_on_c, 10, 57, 127
1, 219971, Note_off_c, 10, 57, 127
1, 219972, Note_on_c, 7, 55, 127
1, 220111, Note_off_c, 7, 55, 127
1, 220112, Note_on_c, 0, 60, 127
1, 220276, Note_on_c, 3, 51, 127
1, 220390, Note_off_c, 0, 60, 127
1, 220415, Note_off_c, 3, 51, 127
1, 220416, Note_on_c, 2, 50, 127
1, 220555, Note_off_c, 2, 50, 127
1, 220556, Note_on_c, 0, 48, 127
1, 220695, Note_off_c, 0, 48, 127
1, 220696, Note_on_c, 7, 55, 127
1, 220836, Note_on_c, 12, 47, 127
1, 220974, Note_off_c, 7, 55, 127
1, 220975, Note_off_c, 12, 47, 127
1, 220976, Note_on_c, 10, 45, 127
1, 221115, Note_off_c, 10, 45, 127
1, 221116, Note_on_c, 7, 43, 127
1, 221255, Note_off_c, 7, 43, 127
1, 221256, Note_on_c, 0, 48, 127
1, 221443, Note_on_c, 2, 50, 127
1, 221444, Note_off_c, 0, 48, 127
1, 221511, Note_off_c, 2, 50, 127
1, 221518, Note_on_c, 3, 51, 127
1, 221587, Note_off_c, 3, 51, 127
1, 221594, Note_on_c, 2, 50, 127
1, 221723, Note_on_c, 3, 51, 127
1, 221733, Note_off_c, 2, 50, 127
1, 221792, Note_off_c, 3, 51, 127
1, 221799, Note_on_c, 0, 48, 127
1, 221868, Note_off_c, 0, 48, 127
1, 221875, Note_on_c, 7, 55, 127
1, 222015, Note_on_c, 12, 59, 127
1, 222153, Note_off_c, 7, 55, 127
1, 222154, Note_off_c, 12, 59, 127
1, 222155, Note_on_c, 10, 57, 127
1, 222155, Note_on_c, 5, 53, 127
1, 222294, Note_off_c, 10, 57, 127
1, 222295, Note_on_c, 7, 55, 127
1, 222434, Note_off_c, 7, 55, 127
1, 222434, Note_off_c, 5, 53, 127
1, 222435, Note_on_c, 0, 60, 127
1, 222435, Note_on_c, 3, 51, 127
1, 222549, Note_on_c, 2, 62, 127
1, 222574, Note_off_c, 0, 60, 127
1, 222630, Note_off_c, 2, 62, 127
1, 222633, Note_on_c, 3, 63, 127
1, 222713, Note_off_c, 3, 63, 127
1, 222714, Note_off_c, 3, 51, 127
1, 222715, Note_on_c, 2, 62, 127
1, 222715, Note_on_c, 0, 48, 127
1, 222829, Note_on_c, 3, 63, 127
1, 222854, Note_off_c, 2, 62, 127
1, 222910, Note_off_c, 3, 63, 127
1, 222913, Note_on_c, 0, 60, 127
1, 222993, Note_off_c, 0, 60, 127
1, 222994, Note_off_c, 0, 48, 127
1, 222995, Note_on_c, 7, 67, 127
1, 222995, Note_on_c, 11, 46, 127
1, 222995, Note_on_c, 2, 50, 127
1, 223109, Note_on_c, 8, 68, 127
1, 223134, Note_off_c, 7, 67, 127
1, 223190, Note_off_c, 8, 68, 127
1, 223193, Note_on_c, 11, 70, 127
1, 223273, Note_off_c, 11, 70, 127
1, 223274, Note_off_c, 2, 50, 127
1, 223275, Note_on_c, 8, 68, 127
1, 223275, Note_on_c, 7, 55, 127
1, 223389, Note_on_c, 11, 70, 127
1, 223414, Note_off_c, 8, 68, 127
1, 223470, Note_off_c, 11, 70, 127
1, 223473, Note_on_c, 7, 67, 127
1, 223551, Note_off_c, 11, 46, 127
1, 223554, Note_off_c, 7, 67, 127
1, 223557, Note_on_c, 0, 72, 127
1, 223557, Note_on_c, 8, 44, 127
1, 223768, Note_on_c, 3, 63, 127
1, 223791, Note_off_c, 0, 72, 127
1, 223832, Note_off_c, 7, 55, 127
1, 223907, Note_off_c, 3, 63, 127
1, 223908, Note_on_c, 5, 65, 127
1, 223908, Note_on_c, 0, 48, 127
1, 224047, Note_off_c, 5, 65, 127
1, 224069, Note_on_c, 8, 68, 127
1, 224147, Note_on_c, 7, 67, 127
1, 224163, Note_off_c, 8, 68, 127
1, 224188, Note_off_c, 0, 48, 127
1, 224223, Note_off_c, 7, 67, 127
1, 224224, Note_on_c, 5, 53, 127
1, 224224, Note_on_c, 8, 68, 127
1, 224398, Note_off_c, 8, 44, 127
1, 224410, Note_off_c, 8, 68, 127
1, 224411, Note_on_c, 2, 62, 127
1, 224503, Note_off_c, 2, 62, 127
1, 224504, Note_on_c, 5, 65, 127
1, 224596, Note_off_c, 5, 65, 127
1, 224597, Note_on_c, 5, 41, 127
1, 224597, Note_on_c, 3, 63, 127
1, 224689, Note_off_c, 3, 63, 127
1, 224690, Note_on_c, 2, 62, 127
1, 224773, Note_off_c, 5, 53, 127
1, 224782, Note_off_c, 2, 62, 127
1, 224783, Note_on_c, 3, 51, 127
1, 224783, Note_on_c, 3, 63, 127
1, 224875, Note_off_c, 3, 63, 127
1, 224876, Note_on_c, 5, 65, 127
1, 224959, Note_off_c, 3, 51, 127
1, 224968, Note_off_c, 5, 65, 127
1, 224969, Note_on_c, 7, 43, 127
1, 224969, Note_on_c, 2, 50, 127
1, 224969, Note_on_c, 0, 60, 127
1, 224970, Note_off_c, 5, 41, 127
1, 225356, Note_off_c, 0, 60, 127
1, 225426, Note_on_c, 12, 59, 127
1, 225809, Note_off_c, 7, 43, 127
1, 225855, Note_off_c, 2, 50, 127
1, 226213, Note_off_c, 12, 59, 127
1, 226677, Note_on_c, 3, 75, 127
1, 226782, Note_on_c, 2, 74, 127
1, 226804, Note_off_c, 3, 75, 127
1, 226851, Note_off_c, 2, 74, 127
1, 226852, Note_on_c, 0, 72, 127
1, 226921, Note_off_c, 0, 72, 127
1, 226922, Note_on_c, 2, 74, 127
1, 226991, Note_off_c, 2, 74, 127
1, 226992, Note_on_c, 0, 72, 127
1, 227061, Note_off_c, 0, 72, 127
1, 227062, Note_on_c, 11, 70, 127
1, 227131, Note_off_c, 11, 70, 127
1, 227132, Note_on_c, 0, 72, 127
1, 227201, Note_off_c, 0, 72, 127
1, 227202, Note_on_c, 11, 70, 127
1, 227271, Note_off_c, 11, 70, 127
1, 227272, Note_on_c, 10, 69, 127
1, 227341, Note_off_c, 10, 69, 127
1, 227342, Note_on_c, 11, 70, 127
1, 227411, Note_off_c, 11, 70, 127
1, 227412, Note_on_c, 10, 69, 127
1, 227481, Note_off_c, 10, 69, 127
1, 227482, Note_on_c, 7, 67, 127
1, 227551, Note_off_c, 7, 67, 127
1, 227552, Note_on_c, 10, 69, 127
1, 227621, Note_off_c, 10, 69, 127
1, 227622, Note_on_c, 7, 67, 127
1, 227691, Note_off_c, 7, 67, 127
1, 227692, Note_on_c, 6, 66, 127
1, 227761, Note_off_c, 6, 66, 127
1, 227762, Note_on_c, 7, 67, 127
1, 227831, Note_off_c, 7, 67, 127
1, 227832, Note_on_c, 5, 65, 127
1, 227901, Note_off_c, 5, 65, 127
1, 227902, Note_on_c, 3, 63, 127
1, 227971, Note_off_c, 3, 63, 127
1, 227972, Note_on_c, 2, 62, 127
1, 228041, Note_off_c, 2, 62, 127
1, 228042, Note_on_c, 0, 60, 127
1, 228111, Note_off_c, 0, 60, 127
1, 228112, Note_on_c, 11, 58, 127
1, 228181, Note_off_c, 11, 58, 127
1, 228182, Note_on_c, 10, 57, 127
1, 228251, Note_off_c, 10, 57, 127
1, 228252, Note_on_c, 7, 55, 127
1, 228321, Note_off_c, 7, 55, 127
1, 228322, Note_on_c, 6, 54, 127
1, 228391, Note_off_c, 6, 54, 127
1, 228392, Note_on_c, 4, 52, 127
1, 228461, Note_off_c, 4, 52, 127
1, 228462, Note_on_c, 2, 50, 127
1, 228531, Note_off_c, 2, 50, 127
1, 228532, Note_on_c, 0, 48, 127
1, 228601, Note_off_c, 0, 48, 127
1, 228602, Note_on_c, 11, 46, 127
1, 228671, Note_off_c, 11, 46, 127
1, 228672, Note_on_c, 10, 45, 127
1, 228741, Note_off_c, 10, 45, 127
1, 228742, Note_on_c, 7, 43, 127
1, 228944, Note_off_c, 7, 43, 127
1, 228967, Note_on_c, 10, 45, 127
1, 229021, Note_off_c, 10, 45, 127
1, 229028, Note_on_c, 11, 46, 127
1, 229088, Note_off_c, 11, 46, 127
1, 229089, Note_on_c, 0, 48, 127
1, 229149, Note_off_c, 0, 48, 127
1, 229150, Note_on_c, 2, 50, 127
1, 229210, Note_off_c, 2, 50, 127
1, 229211, Note_on_c, 3, 51, 127
1, 229271, Note_off_c, 3, 51, 127
1, 229272, Note_on_c, 5, 53, 127
1, 229332, Note_off_c, 5, 53, 127
1, 229333, Note_on_c, 7, 55, 127
1, 229393, Note_off_c, 7, 55, 127
1, 229394, Note_on_c, 8, 56, 127
1, 229454, Note_off_c, 8, 56, 127
1, 229455, Note_on_c, 11, 58, 127
1, 229533, Note_off_c, 11, 58, 127
1, 229534, Note_on_c, 1, 49, 127
1, 229604, Note_on_c, 2, 50, 127
1, 229611, Note_off_c, 1, 49, 127
1, 229838, Note_on_c, 6, 54, 127
1, 229838, Note_on_c, 2, 62, 127
1, 229883, Note_off_c, 2, 50, 127
1, 229977, Note_off_c, 2, 62, 127
1, 229977, Note_off_c, 6, 54, 127
1, 229978, Note_on_c, 3, 63, 127
1, 229978, Note_on_c, 7, 67, 127
1, 229978, Note_on_c, 11, 58, 127
1, 229978, Note_on_c, 0, 36, 127
1, 230117, Note_off_c, 7, 67, 127
1, 230118, Note_on_c, 10, 69, 127
1, 230256, Note_off_c, 11, 58, 127
1, 230256, Note_off_c, 3, 63, 127
1, 230257, Note_off_c, 10, 69, 127
1, 230257, Note_off_c, 0, 36, 127
1, 230258, Note_on_c, 10, 57, 127
1, 230258, Note_on_c, 2, 62, 127
1, 230258, Note_on_c, 6, 66, 127
1, 230258, Note_on_c, 2, 38, 127
1, 230538, Note_off_c, 10, 57, 127
1, 230610, Note_on_c, 2, 50, 127
1, 230610, Note_on_c, 0, 60, 127
1, 230669, Note_off_c, 6, 66, 127
1, 230751, Note_on_c, 7, 67, 127
1, 230815, Note_off_c, 2, 38, 127
1, 230815, Note_off_c, 2, 62, 127
1, 230888, Note_off_c, 0, 60, 127
1, 230889, Note_off_c, 7, 67, 127
1, 230890, Note_on_c, 7, 43, 127
1, 230890, Note_on_c, 12, 59, 127
1, 230890, Note_on_c, 2, 62, 127
1, 230890, Note_on_c, 7, 67, 127
1, 232292, Note_off_c, 2, 50, 127
1, 232295, Note_off_c, 7, 67, 127
1, 232295, Note_off_c, 2, 62, 127
1, 232295, Note_off_c, 12, 59, 127
1, 232295, Note_off_c, 7, 43, 127
1, 232646, Note_on_c, 7, 67, 127
1, 232895, Note_off_c, 7, 67, 127
1, 232927, Note_on_c, 3, 63, 127
1, 233207, Note_off_c, 3, 63, 127
1, 233208, Note_on_c, 0, 60, 127
1, 233347, Note_off_c, 0, 60, 127
1, 233348, Note_on_c, 2, 62, 127
1, 233487, Note_off_c, 2, 62, 127
1, 233488, Note_on_c, 3, 63, 127
1, 233628, Note_on_c, 7, 79, 127
1, 233767, Note_off_c, 7, 79, 127
1, 233767, Note_off_c, 3, 63, 127
1, 233768, Note_on_c, 7, 67, 127
1, 233768, Note_on_c, 10, 81, 127
1, 233907, Note_off_c, 10, 81, 127
1, 233908, Note_on_c, 12, 83, 127
1, 234047, Note_off_c, 12, 83, 127
1, 234047, Note_off_c, 7, 67, 127
1, 234048, Note_on_c, 3, 63, 127
1, 234048, Note_on_c, 0, 84, 127
1, 234187, Note_off_c, 0, 84, 127
1, 234188, Note_on_c, 7, 79, 127
1, 234327, Note_off_c, 7, 79, 127
1, 234327, Note_off_c, 3, 63, 127
1, 234328, Note_on_c, 0, 60, 127
1, 234328, Note_on_c, 3, 75, 127
1, 234467, Note_off_c, 3, 75, 127
1, 234468, Note_on_c, 7, 79, 127
1, 234607, Note_off_c, 7, 79, 127
1, 234608, Note_on_c, 0, 72, 127
1, 234737, Note_off_c, 0, 60, 127
1, 234747, Note_off_c, 0, 72, 127
1, 234748, Note_on_c, 7, 79, 127
1, 234887, Note_off_c, 7, 79, 127
1, 234888, Note_on_c, 7, 67, 127
1, 234888, Note_on_c, 10, 81, 127
1, 235027, Note_off_c, 10, 81, 127
1, 235028, Note_on_c, 12, 83, 127
1, 235167, Note_off_c, 12, 83, 127
1, 235167, Note_off_c, 7, 67, 127
1, 235168, Note_on_c, 3, 63, 127
1, 235168, Note_on_c, 0, 84, 127
1, 235307, Note_off_c, 0, 84, 127
1, 235308, Note_on_c, 7, 79, 127
1, 235447, Note_off_c, 7, 79, 127
1, 235447, Note_off_c, 3, 63, 127
1, 235448, Note_on_c, 0, 60, 127
1, 235448, Note_on_c, 3, 75, 127
1, 235587, Note_off_c, 3, 75, 127
1, 235587, Note_off_c, 0, 60, 127
1, 235588, Note_on_c, 2, 62, 127
1, 235588, Note_on_c, 7, 79, 127
1, 235727, Note_off_c, 7, 79, 127
1, 235727, Note_off_c, 2, 62, 127
1, 235728, Note_on_c, 3, 63, 127
1, 235728, Note_on_c, 0, 72, 127
1, 235867, Note_off_c, 0, 72, 127
1, 235868, Note_on_c, 7, 79, 127
1, 236007, Note_off_c, 7, 79, 127
1, 236007, Note_off_c, 3, 63, 127
1, 236008, Note_on_c, 7, 67, 127
1, 236008, Note_on_c, 10, 81, 127
1, 236147, Note_off_c, 10, 81, 127
1, 236148, Note_on_c, 12, 83, 127
1, 236287, Note_off_c, 12, 83, 127
1, 236287, Note_off_c, 7, 67, 127
1, 236288, Note_on_c, 3, 63, 127
1, 236288, Note_on_c, 0, 84, 127
1, 236427, Note_off_c, 0, 84, 127
1, 236428, Note_on_c, 7, 79, 127
1, 236567, Note_off_c, 7, 79, 127
1, 236567, Note_off_c, 3, 63, 127
1, 236568, Note_on_c, 0, 60, 127
1, 236568, Note_on_c, 3, 75, 127
1, 236707, Note_off_c, 3, 75, 127
1, 236708, Note_on_c, 7, 79, 127
1, 236847, Note_off_c, 7, 79, 127
1, 236848, Note_on_c, 0, 72, 127
1, 236977, Note_off_c, 0, 60, 127
1, 236987, Note_off_c, 0, 72, 127
1, 236988, Note_on_c, 3, 75, 127
1, 237127, Note_off_c, 3, 75, 127
1, 237128, Note_on_c, 7, 67, 127
1, 237128, Note_on_c, 2, 74, 127
1, 237267, Note_off_c, 2, 74, 127
1, 237268, Note_on_c, 0, 72, 127
1, 237407, Note_off_c, 0, 72, 127
1, 237407, Note_off_c, 7, 67, 127
1, 237408, Note_on_c, 8, 68, 127
1, 237408, Note_on_c, 5, 77, 127
1, 237547, Note_off_c, 5, 77, 127
1, 237548, Note_on_c, 8, 80, 127
1, 237687, Note_off_c, 8, 80, 127
1, 237687, Note_off_c, 8, 68, 127
1, 237688, Note_on_c, 8, 68, 127
1, 237688, Note_on_c, 5, 77, 127
1, 237827, Note_off_c, 5, 77, 127
1, 237828, Note_on_c, 0, 72, 127
1, 237967, Note_off_c, 0, 72, 127
1, 237968, Note_on_c, 2, 74, 127
1, 238107, Note_off_c, 2, 74, 127
1, 238107, Note_off_c, 8, 68, 127
1, 238108, Note_on_c, 7, 67, 127
1, 238108, Note_on_c, 11, 82, 127
1, 238247, Note_off_c, 11, 82, 127
1, 238247, Note_off_c, 7, 67, 127
1, 238248, Note_on_c, 8, 68, 127
1, 238248, Note_on_c, 5, 77, 127
1, 238387, Note_off_c, 5, 77, 127
1, 238387, Note_off_c, 8, 68, 127
1, 238388, Note_on_c, 5, 65, 127
1, 238388, Note_on_c, 2, 74, 127
1, 238527, Note_off_c, 2, 74, 127
1, 238527, Note_off_c, 5, 65, 127
1, 238528, Note_on_c, 7, 67, 127
1, 238528, Note_on_c, 3, 75, 127
1, 238667, Note_off_c, 3, 75, 127
1, 238668, Note_on_c, 7, 79, 127
1, 238807, Note_off_c, 7, 79, 127
1, 238807, Note_off_c, 7, 67, 127
1, 238808, Note_on_c, 7, 67, 127
1, 238808, Note_on_c, 3, 75, 127
1, 238947, Note_off_c, 3, 75, 127
1, 238948, Note_on_c, 12, 71, 127
1, 239087, Note_off_c, 12, 71, 127
1, 239088, Note_on_c, 0, 72, 127
1, 239227, Note_off_c, 0, 72, 127
1, 239227, Note_off_c, 7, 67, 127
1, 239228, Note_on_c, 5, 65, 127
1, 239228, Note_on_c, 8, 80, 127
1, 239367, Note_off_c, 8, 80, 127
1, 239367, Note_off_c, 5, 65, 127
1, 239368, Note_on_c, 7, 67, 127
1, 239368, Note_on_c, 3, 75, 127
1, 239507, Note_off_c, 3, 75, 127
1, 239507, Note_off_c, 7, 67, 127
1, 239508, Note_on_c, 3, 63, 127
1, 239508, Note_on_c, 0, 72, 127
1, 239647, Note_off_c, 0, 72, 127
1, 239647, Note_off_c, 3, 63, 127
1, 239648, Note_on_c, 5, 65, 127
1, 239648, Note_on_c, 2, 74, 127
1, 239787, Note_off_c, 2, 74, 127
1, 239788, Note_on_c, 5, 77, 127
1, 239927, Note_off_c, 5, 77, 127
1, 239927, Note_off_c, 5, 65, 127
1, 239928, Note_on_c, 5, 65, 127
1, 239928, Note_on_c, 2, 74, 127
1, 240067, Note_off_c, 2, 74, 127
1, 240068, Note_on_c, 10, 69, 127
1, 240207, Note_off_c, 10, 69, 127
1, 240208, Note_on_c, 12, 71, 127
1, 240347, Note_off_c, 12, 71, 127
1, 240347, Note_off_c, 5, 65, 127
1, 240348, Note_on_c, 3, 63, 127
1, 240348, Note_on_c, 7, 79, 127
1, 240487, Note_off_c, 7, 79, 127
1, 240487, Note_off_c, 3, 63, 127
1, 240488, Note_on_c, 5, 65, 127
1, 240488, Note_on_c, 2, 74, 127
1, 240627, Note_off_c, 2, 74, 127
1, 240627, Note_off_c, 5, 65, 127
1, 240628, Note_on_c, 2, 62, 127
1, 240628, Note_on_c, 12, 71, 127
1, 240767, Note_off_c, 12, 71, 127
1, 240767, Note_off_c, 2, 62, 127
1, 240768, Note_on_c, 3, 63, 127
1, 240768, Note_on_c, 0, 72, 127
1, 240907, Note_off_c, 3, 63, 127
1, 240908, Note_on_c, 2, 62, 127
1, 241047, Note_off_c, 2, 62, 127
1, 241048, Note_on_c, 0, 60, 127
1, 241187, Note_off_c, 0, 60, 127
1, 241188, Note_on_c, 2, 62, 127
1, 241327, Note_off_c, 2, 62, 127
1, 241328, Note_on_c, 3, 63, 127
1, 241467, Note_off_c, 3, 63, 127
1, 241468, Note_on_c, 5, 65, 127
1, 241607, Note_off_c, 5, 65, 127
1, 241608, Note_on_c, 7, 67, 127
1, 241747, Note_off_c, 7, 67, 127
1, 241748, Note_on_c, 3, 63, 127
1, 241887, Note_off_c, 3, 63, 127
1, 241887, Note_off_c, 0, 72, 127
1, 241888, Note_on_c, 8, 68, 127
1, 242027, Note_off_c, 8, 68, 127
1, 242028, Note_on_c, 12, 59, 127
1, 242028, Note_on_c, 2, 74, 127
1, 242167, Note_off_c, 2, 74, 127
1, 242167, Note_off_c, 12, 59, 127
1, 242168, Note_on_c, 0, 60, 127
1, 242168, Note_on_c, 3, 75, 127
1, 242307, Note_off_c, 3, 75, 127
1, 242307, Note_off_c, 0, 60, 127
1, 242308, Note_on_c, 2, 62, 127
1, 242308, Note_on_c, 5, 77, 127
1, 242447, Note_off_c, 5, 77, 127
1, 242447, Note_off_c, 2, 62, 127
1, 242448, Note_on_c, 7, 55, 127
1, 242448, Note_on_c, 0, 72, 127
1, 242518, Note_off_c, 0, 72, 127
1, 242530, Note_on_c, 12, 71, 127
1, 242587, Note_off_c, 7, 55, 127
1, 242588, Note_on_c, 3, 63, 127
1, 242600, Note_off_c, 12, 71, 127
1, 242600, Note_on_c, 0, 72, 127
1, 242670, Note_off_c, 0, 72, 127
1, 242670, Note_on_c, 12, 71, 127
1, 242727, Note_off_c, 3, 63, 127
1, 242728, Note_on_c, 2, 62, 127
1, 242867, Note_off_c, 2, 62, 127
1, 242868, Note_on_c, 0, 60, 127
1, 242868, Note_on_c, 0, 72, 127
1, 242874, Note_off_c, 12, 71, 127
1, 243007, Note_off_c, 0, 72, 127
1, 243007, Note_off_c, 0, 60, 127
1, 243008, Note_on_c, 0, 60, 127
1, 243008, Note_on_c, 0, 72, 127
1, 243147, Note_off_c, 0, 72, 127
1, 243148, Note_on_c, 7, 79, 127
1, 243287, Note_off_c, 7, 79, 127
1, 243288, Note_on_c, 0, 84, 127
1, 243427, Note_off_c, 0, 60, 127
1, 243428, Note_on_c, 2, 62, 127
1, 243567, Note_off_c, 2, 62, 127
1, 243568, Note_on_c, 3, 63, 127
1, 243707, Note_off_c, 3, 63, 127
1, 243707, Note_off_c, 0, 84, 127
1, 243708, Note_on_c, 7, 67, 127
1, 243708, Note_on_c, 11, 82, 127
1, 243847, Note_off_c, 11, 82, 127
1, 243847, Note_off_c, 7, 67, 127
1, 243851, Note_on_c, 0, 60, 127
1, 243851, Note_on_c, 10, 81, 127
1, 243990, Note_off_c, 10, 81, 127
1, 243990, Note_off_c, 0, 60, 127
1, 243994, Note_on_c, 3, 63, 127
1, 243994, Note_on_c, 11, 82, 127
1, 244063, Note_off_c, 11, 82, 127
1, 244064, Note_on_c, 7, 79, 127
1, 244131, Note_on_c, 6, 78, 127
1, 244131, Note_on_c, 2, 62, 127
1, 244132, Note_off_c, 7, 79, 127
1, 244132, Note_off_c, 3, 63, 127
1, 244272, Note_off_c, 6, 78, 127
1, 244278, Note_on_c, 7, 79, 127
1, 244348, Note_off_c, 7, 79, 127
1, 244351, Note_on_c, 10, 81, 127
1, 244421, Note_off_c, 10, 81, 127
1, 244425, Note_on_c, 2, 74, 127
1, 244567, Note_off_c, 2, 62, 127
1, 244571, Note_on_c, 0, 60, 127
1, 244713, Note_off_c, 0, 60, 127
1, 244719, Note_on_c, 11, 58, 127
1, 244861, Note_off_c, 11, 58, 127
1, 244862, Note_off_c, 2, 74, 127
1, 244868, Note_on_c, 2, 62, 127
1, 244868, Note_on_c, 0, 72, 127
1, 245019, Note_on_c, 11, 70, 127
1, 245019, Note_on_c, 7, 55, 127
1, 245022, Note_off_c, 0, 72, 127
1, 245022, Note_off_c, 2, 62, 127
1, 245168, Note_off_c, 7, 55, 127
1, 245168, Note_off_c, 11, 70, 127
1, 245171, Note_on_c, 11, 58, 127
1, 245171, Note_on_c, 0, 72, 127
1, 245243, Note_off_c, 0, 72, 127
1, 245247, Note_on_c, 10, 69, 127
1, 245319, Note_off_c, 10, 69, 127
1, 245320, Note_off_c, 11, 58, 127
1, 245324, Note_on_c, 7, 67, 127
1, 245324, Note_on_c, 3, 51, 127
1, 245473, Note_off_c, 3, 51, 127
1, 245473, Note_off_c, 7, 67, 127
1, 245479, Note_on_c, 7, 55, 127
1, 245479, Note_on_c, 10, 69, 127
1, 245551, Note_off_c, 10, 69, 127
1, 245555, Note_on_c, 11, 70, 127
1, 245627, Note_off_c, 11, 70, 127
1, 245628, Note_off_c, 7, 55, 127
1, 245634, Note_on_c, 10, 69, 127
1, 245634, Note_on_c, 0, 48, 127
1, 245783, Note_off_c, 0, 48, 127
1, 245783, Note_off_c, 10, 69, 127
1, 245790, Note_on_c, 11, 70, 127
1, 245790, Note_on_c, 3, 51, 127
1, 245862, Note_off_c, 11, 70, 127
1, 245866, Note_on_c, 7, 67, 127
1, 245938, Note_off_c, 7, 67, 127
1, 245939, Note_off_c, 3, 51, 127
1, 245943, Note_on_c, 2, 50, 127
1, 245943, Note_on_c, 6, 66, 127
1, 246092, Note_off_c, 2, 50, 127
1, 246096, Note_on_c, 2, 62, 127
1, 246245, Note_off_c, 6, 66, 127
1, 246249, Note_off_c, 2, 62, 127
1, 246258, Note_on_c, 2, 74, 127
1, 246258, Note_on_c, 0, 60, 127
1, 246397, Note_off_c, 0, 60, 127
1, 246417, Note_on_c, 2, 62, 127
1, 246537, Note_off_c, 2, 74, 127
1, 246556, Note_off_c, 2, 62, 127
1, 246557, Note_on_c, 11, 70, 127
1, 246557, Note_on_c, 7, 55, 127
1, 246837, Note_off_c, 11, 70, 127
1, 246838, Note_on_c, 7, 67, 127
1, 246977, Note_off_c, 7, 67, 127
1, 246978, Note_on_c, 10, 69, 127
1, 247113, Note_off_c, 7, 55, 127
1, 247117, Note_off_c, 10, 69, 127
1, 247118, Note_on_c, 11, 70, 127
1, 247258, Note_on_c, 2, 62, 127
1, 247397, Note_off_c, 2, 62, 127
1, 247397, Note_off_c, 11, 70, 127
1, 247398, Note_on_c, 2, 74, 127
1, 247398, Note_on_c, 4, 64, 127
1, 247537, Note_off_c, 4, 64, 127
1, 247538, Note_on_c, 6, 66, 127
1, 247677, Note_off_c, 6, 66, 127
1, 247677, Note_off_c, 2, 74, 127
1, 247678, Note_on_c, 11, 70, 127
1, 247678, Note_on_c, 7, 67, 127
1, 247817, Note_off_c, 7, 67, 127
1, 247818, Note_on_c, 2, 62, 127
1, 247957, Note_off_c, 2, 62, 127
1, 247957, Note_off_c, 11, 70, 127
1, 247958, Note_on_c, 7, 67, 127
1, 247958, Note_on_c, 11, 58, 127
1, 248097, Note_off_c, 11, 58, 127
1, 248098, Note_on_c, 2, 62, 127
1, 248237, Note_off_c, 2, 62, 127
1, 248238, Note_on_c, 7, 55, 127
1, 248367, Note_off_c, 7, 67, 127
1, 248377, Note_off_c, 7, 55, 127
1, 248378, Note_on_c, 2, 62, 127
1, 248517, Note_off_c, 2, 62, 127
1, 248518, Note_on_c, 2, 74, 127
1, 248518, Note_on_c, 4, 64, 127
1, 248657, Note_off_c, 4, 64, 127
1, 248658, Note_on_c, 6, 66, 127
1, 248797, Note_off_c, 6, 66, 127
1, 248797, Note_off_c, 2, 74, 127
1, 248798, Note_on_c, 11, 70, 127
1, 248798, Note_on_c, 7, 67, 127
1, 248937, Note_off_c, 7, 67, 127
1, 248938, Note_on_c, 2, 62, 127
1, 249077, Note_off_c, 2, 62, 127
1, 249077, Note_off_c, 11, 70, 127
1, 249078, Note_on_c, 7, 67, 127
1, 249078, Note_on_c, 11, 58, 127
1, 249217, Note_off_c, 11, 58, 127
1, 249217, Note_off_c, 7, 67, 127
1, 249218, Note_on_c, 10, 69, 127
1, 249218, Note_on_c, 2, 62, 127
1, 249357, Note_off_c, 2, 62, 127
1, 249357, Note_off_c, 10, 69, 127
1, 249358, Note_on_c, 11, 70, 127
1, 249358, Note_on_c, 7, 55, 127
1, 249497, Note_off_c, 7, 55, 127
1, 249498, Note_on_c, 2, 62, 127
1, 249637, Note_off_c, 2, 62, 127
1, 249637, Note_off_c, 11, 70, 127
1, 249638, Note_on_c, 2, 74, 127
1, 249638, Note_on_c, 4, 64, 127
1, 249777, Note_off_c, 4, 64, 127
1, 249778, Note_on_c, 6, 66, 127
1, 249917, Note_off_c, 6, 66, 127
1, 249917, Note_off_c, 2, 74, 127
1, 249918, Note_on_c, 11, 70, 127
1, 249918, Note_on_c, 7, 67, 127
1, 250057, Note_off_c, 7, 67, 127
1, 250058, Note_on_c, 2, 62, 127
1, 250197, Note_off_c, 2, 62, 127
1, 250197, Note_off_c, 11, 70, 127
1, 250198, Note_on_c, 7, 67, 127
1, 250198, Note_on_c, 11, 58, 127
1, 250337, Note_off_c, 11, 58, 127
1, 250338, Note_on_c, 2, 62, 127
1, 250477, Note_off_c, 2, 62, 127
1, 250478, Note_on_c, 7, 55, 127
1, 250607, Note_off_c, 7, 67, 127
1, 250617, Note_off_c, 7, 55, 127
1, 250618, Note_on_c, 11, 58, 127
1, 250757, Note_off_c, 11, 58, 127
1, 250758, Note_on_c, 2, 74, 127
1, 250758, Note_on_c, 10, 57, 127
1, 250897, Note_off_c, 10, 57, 127
1, 250898, Note_on_c, 7, 55, 127
1, 251037, Note_off_c, 7, 55, 127
1, 251037, Note_off_c, 2, 74, 127
1, 251038, Note_on_c, 3, 75, 127
1, 251038, Note_on_c, 0, 60, 127
1, 251177, Note_off_c, 0, 60, 127
1, 251178, Note_on_c, 3, 63, 127
1, 251317, Note_off_c, 3, 63, 127
1, 251317, Note_off_c, 3, 75, 127
1, 251318, Note_on_c, 3, 75, 127
1, 251318, Note_on_c, 0, 60, 127
1, 251457, Note_off_c, 0, 60, 127
1, 251458, Note_on_c, 7, 55, 127
1, 251597, Note_off_c, 7, 55, 127
1, 251598, Note_on_c, 10, 57, 127
1, 251737, Note_off_c, 10, 57, 127
1, 251737, Note_off_c, 3, 75, 127
1, 251738, Note_on_c, 2, 74, 127
1, 251738, Note_on_c, 5, 65, 127
1, 251877, Note_off_c, 5, 65, 127
1, 251877, Note_off_c, 2, 74, 127
1, 251878, Note_on_c, 3, 75, 127
1, 251878, Note_on_c, 0, 60, 127
1, 252017, Note_off_c, 0, 60, 127
1, 252017, Note_off_c, 3, 75, 127
1, 252018, Note_on_c, 0, 72, 127
1, 252018, Note_on_c, 10, 57, 127
1, 252157, Note_off_c, 10, 57, 127
1, 252157, Note_off_c, 0, 72, 127
1, 252158, Note_on_c, 2, 74, 127
1, 252158, Note_on_c, 11, 58, 127
1, 252297, Note_off_c, 11, 58, 127
1, 252298, Note_on_c, 2, 62, 127
1, 252437, Note_off_c, 2, 62, 127
1, 252437, Note_off_c, 2, 74, 127
1, 252438, Note_on_c, 2, 74, 127
1, 252438, Note_on_c, 11, 58, 127
1, 252577, Note_off_c, 11, 58, 127
1, 252578, Note_on_c, 5, 53, 127
1, 252717, Note_off_c, 5, 53, 127
1, 252718, Note_on_c, 7, 55, 127
1, 252857, Note_off_c, 7, 55, 127
1, 252857, Note_off_c, 2, 74, 127
1, 252858, Note_on_c, 0, 72, 127
1, 252858, Note_on_c, 3, 63, 127
1, 252997, Note_off_c, 3, 63, 127
1, 252997, Note_off_c, 0, 72, 127
1, 252998, Note_on_c, 2, 74, 127
1, 252998, Note_on_c, 11, 58, 127
1, 253137, Note_off_c, 11, 58, 127
1, 253137, Note_off_c, 2, 74, 127
1, 253138, Note_on_c, 11, 70, 127
1, 253138, Note_on_c, 7, 55, 127
1, 253277, Note_off_c, 7, 55, 127
1, 253277, Note_off_c, 11, 70, 127
1, 253278, Note_on_c, 0, 72, 127
1, 253278, Note_on_c, 10, 57, 127
1, 253417, Note_off_c, 10, 57, 127
1, 253418, Note_on_c, 0, 60, 127
1, 253557, Note_off_c, 0, 60, 127
1, 253557, Note_off_c, 0, 72, 127
1, 253558, Note_on_c, 0, 72, 127
1, 253558, Note_on_c, 10, 57, 127
1, 253697, Note_off_c, 10, 57, 127
1, 253698, Note_on_c, 4, 52, 127
1, 253837, Note_off_c, 4, 52, 127
1, 253838, Note_on_c, 6, 54, 127
1, 253977, Note_off_c, 6, 54, 127
1, 253977, Note_off_c, 0, 72, 127
1, 253978, Note_on_c, 11, 70, 127
1, 253978, Note_on_c, 2, 62, 127
1, 254117, Note_off_c, 2, 62, 127
1, 254117, Note_off_c, 11, 70, 127
1, 254118, Note_on_c, 0, 72, 127
1, 254118, Note_on_c, 10, 57, 127
1, 254257, Note_off_c, 10, 57, 127
1, 254257, Note_off_c, 0, 72, 127
1, 254258, Note_on_c, 10, 69, 127
1, 254258, Note_on_c, 6, 54, 127
1, 254397, Note_off_c, 6, 54, 127
1, 254397, Note_off_c, 10, 69, 127
1, 254398, Note_on_c, 11, 70, 127
1, 254398, Note_on_c, 7, 55, 127
1, 254537, Note_off_c, 11, 70, 127
1, 254538, Note_on_c, 10, 69, 127
1, 254677, Note_off_c, 10, 69, 127
1, 254678, Note_on_c, 7, 67, 127
1, 254817, Note_off_c, 7, 67, 127
1, 254818, Note_on_c, 10, 69, 127
1, 254957, Note_off_c, 10, 69, 127
1, 254958, Note_on_c, 11, 70, 127
1, 255097, Note_off_c, 11, 70, 127
1, 255098, Note_on_c, 0, 72, 127
1, 255237, Note_off_c, 0, 72, 127
1, 255237, Note_off_c, 7, 55, 127
1, 255238, Note_on_c, 2, 74, 127
1, 255377, Note_off_c, 2, 74, 127
1, 255378, Note_on_c, 11, 70, 127
1, 255517, Note_off_c, 11, 70, 127
1, 255518, Note_on_c, 3, 75, 127
1, 255657, Note_off_c, 3, 75, 127
1, 255658, Note_on_c, 6, 66, 127
1, 255658, Note_on_c, 10, 57, 127
1, 255797, Note_off_c, 10, 57, 127
1, 255797, Note_off_c, 6, 66, 127
1, 255798, Note_on_c, 7, 67, 127
1, 255798, Note_on_c, 11, 58, 127
1, 255937, Note_off_c, 11, 58, 127
1, 255937, Note_off_c, 7, 67, 127
1, 255938, Note_on_c, 10, 69, 127
1, 255938, Note_on_c, 0, 60, 127
1, 256077, Note_off_c, 0, 60, 127
1, 256077, Note_off_c, 10, 69, 127
1, 256078, Note_on_c, 2, 62, 127
1, 256078, Note_on_c, 7, 55, 127
1, 256166, Note_off_c, 7, 55, 127
1, 256166, Note_on_c, 6, 54, 127
1, 256217, Note_off_c, 2, 62, 127
1, 256218, Note_on_c, 11, 70, 127
1, 256253, Note_off_c, 6, 54, 127
1, 256253, Note_on_c, 7, 55, 127
1, 256341, Note_off_c, 7, 55, 127
1, 256341, Note_on_c, 6, 54, 127
1, 256357, Note_off_c, 11, 70, 127
1, 256358, Note_on_c, 10, 69, 127
1, 256497, Note_off_c, 10, 69, 127
1, 256498, Note_on_c, 7, 67, 127
1, 256498, Note_on_c, 7, 55, 127
1, 256504, Note_off_c, 6, 54, 127
1, 256637, Note_off_c, 7, 55, 127
1, 256637, Note_off_c, 7, 67, 127
1, 256638, Note_on_c, 7, 67, 127
1, 256638, Note_on_c, 7, 55, 127
1, 256777, Note_off_c, 7, 55, 127
1, 256778, Note_on_c, 2, 62, 127
1, 256916, Note_off_c, 7, 67, 127
1, 256917, Note_off_c, 2, 62, 127
1, 256918, Note_on_c, 7, 67, 127
1, 257058, Note_on_c, 10, 69, 127
1, 257197, Note_off_c, 10, 69, 127
1, 257198, Note_on_c, 12, 71, 127
1, 257337, Note_off_c, 12, 71, 127
1, 257337, Note_off_c, 7, 67, 127
1, 257338, Note_on_c, 2, 74, 127
1, 257338, Note_on_c, 5, 65, 127
1, 257477, Note_off_c, 5, 65, 127
1, 257477, Note_off_c, 2, 74, 127
1, 257478, Note_on_c, 7, 67, 127
1, 257478, Note_on_c, 3, 63, 127
1, 257617, Note_off_c, 3, 63, 127
1, 257617, Note_off_c, 7, 67, 127
1, 257618, Note_on_c, 12, 71, 127
1, 257618, Note_on_c, 5, 65, 127
1, 257687, Note_off_c, 5, 65, 127
1, 257688, Note_on_c, 2, 62, 127
1, 257757, Note_off_c, 2, 62, 127
1, 257757, Note_off_c, 12, 71, 127
1, 257758, Note_on_c, 0, 72, 127
1, 257758, Note_on_c, 3, 63, 127
1, 257897, Note_off_c, 3, 63, 127
1, 257898, Note_on_c, 7, 67, 127
1, 258036, Note_off_c, 0, 72, 127
1, 258037, Note_off_c, 7, 67, 127
1, 258038, Note_on_c, 0, 72, 127
1, 258178, Note_on_c, 2, 74, 127
1, 258317, Note_off_c, 2, 74, 127
1, 258318, Note_on_c, 4, 76, 127
1, 258457, Note_off_c, 4, 76, 127
1, 258457, Note_off_c, 0, 72, 127
1, 258458, Note_on_c, 7, 79, 127
1, 258458, Note_on_c, 11, 70, 127
1, 258597, Note_off_c, 11, 70, 127
1, 258597, Note_off_c, 7, 79, 127
1, 258598, Note_on_c, 0, 72, 127
1, 258598, Note_on_c, 8, 68, 127
1, 258737, Note_off_c, 8, 68, 127
1, 258737, Note_off_c, 0, 72, 127
1, 258738, Note_on_c, 4, 76, 127
1, 258738, Note_on_c, 11, 70, 127
1, 258807, Note_off_c, 11, 70, 127
1, 258808, Note_on_c, 7, 67, 127
1, 258877, Note_off_c, 7, 67, 127
1, 258877, Note_off_c, 4, 76, 127
1, 258878, Note_on_c, 5, 77, 127
1, 258878, Note_on_c, 8, 68, 127
1, 259017, Note_off_c, 8, 68, 127
1, 259017, Note_off_c, 5, 77, 127
1, 259018, Note_on_c, 12, 71, 127
1, 259018, Note_on_c, 2, 62, 127
1, 259157, Note_off_c, 2, 62, 127
1, 259157, Note_off_c, 12, 71, 127
1, 259158, Note_on_c, 0, 72, 127
1, 259158, Note_on_c, 3, 63, 127
1, 259297, Note_off_c, 3, 63, 127
1, 259297, Note_off_c, 0, 72, 127
1, 259298, Note_on_c, 2, 74, 127
1, 259298, Note_on_c, 5, 65, 127
1, 259437, Note_off_c, 5, 65, 127
1, 259437, Note_off_c, 2, 74, 127
1, 259438, Note_on_c, 0, 72, 127
1, 259438, Note_on_c, 2, 62, 127
1, 259502, Note_on_c, 12, 71, 127
1, 259508, Note_off_c, 0, 72, 127
1, 259561, Note_on_c, 0, 72, 127
1, 259573, Note_off_c, 12, 71, 127
1, 259626, Note_on_c, 12, 71, 127
1, 259632, Note_off_c, 0, 72, 127
1, 259720, Note_on_c, 7, 55, 127
1, 259846, Note_off_c, 12, 71, 127
1, 259859, Note_off_c, 2, 62, 127
1, 259860, Note_on_c, 0, 72, 127
1, 259860, Note_on_c, 0, 60, 127
1, 259999, Note_off_c, 0, 60, 127
1, 259999, Note_off_c, 0, 72, 127
1, 259999, Note_off_c, 7, 55, 127
1, 260000, Note_on_c, 0, 72, 127
1, 260000, Note_on_c, 3, 51, 127
1, 260000, Note_on_c, 0, 60, 127
1, 260139, Note_off_c, 0, 60, 127
1, 260140, Note_on_c, 2, 62, 127
1, 260279, Note_off_c, 2, 62, 127
1, 260279, Note_off_c, 3, 51, 127
1, 260280, Note_on_c, 0, 48, 127
1, 260280, Note_on_c, 3, 63, 127
1, 260419, Note_off_c, 3, 63, 127
1, 260419, Note_off_c, 0, 48, 127
1, 260420, Note_on_c, 2, 50, 127
1, 260420, Note_on_c, 5, 65, 127
1, 260555, Note_off_c, 0, 72, 127
1, 260559, Note_off_c, 5, 65, 127
1, 260559, Note_off_c, 2, 50, 127
1, 260560, Note_on_c, 3, 51, 127
1, 260560, Note_on_c, 7, 67, 127
1, 260699, Note_off_c, 7, 67, 127
1, 260700, Note_on_c, 7, 67, 127
1, 260839, Note_off_c, 7, 67, 127
1, 260839, Note_off_c, 3, 51, 127
1, 260840, Note_on_c, 7, 55, 127
1, 260840, Note_on_c, 10, 69, 127
1, 260979, Note_off_c, 10, 69, 127
1, 260980, Note_on_c, 12, 71, 127
1, 261119, Note_off_c, 12, 71, 127
1, 261119, Note_off_c, 7, 55, 127
1, 261120, Note_on_c, 7, 55, 127
1, 261120, Note_on_c, 3, 51, 127
1, 261120, Note_on_c, 0, 72, 127
1, 261260, Note_on_c, 7, 67, 127
1, 261399, Note_off_c, 7, 67, 127
1, 261399, Note_off_c, 3, 51, 127
1, 261400, Note_on_c, 0, 48, 127
1, 261400, Note_on_c, 3, 63, 127
1, 261539, Note_off_c, 3, 63, 127
1, 261540, Note_on_c, 7, 67, 127
1, 261675, Note_off_c, 7, 55, 127
1, 261679, Note_off_c, 7, 67, 127
1, 261680, Note_on_c, 0, 60, 127
1, 261809, Note_off_c, 0, 48, 127
1, 261819, Note_off_c, 0, 60, 127
1, 261820, Note_on_c, 7, 67, 127
1, 261959, Note_off_c, 7, 67, 127
1, 261959, Note_off_c, 0, 72, 127
1, 261960, Note_on_c, 10, 69, 127
1, 261960, Note_on_c, 7, 55, 127
1, 262099, Note_off_c, 10, 69, 127
1, 262100, Note_on_c, 12, 71, 127
1, 262239, Note_off_c, 12, 71, 127
1, 262239, Note_off_c, 7, 55, 127
1, 262240, Note_on_c, 0, 72, 127
1, 262240, Note_on_c, 3, 51, 127
1, 262240, Note_on_c, 7, 55, 127
1, 262380, Note_on_c, 7, 67, 127
1, 262519, Note_off_c, 7, 67, 127
1, 262520, Note_on_c, 3, 63, 127
1, 262520, Note_on_c, 0, 48, 127
1, 262561, Note_off_c, 3, 51, 127
1, 262659, Note_off_c, 0, 48, 127
1, 262659, Note_off_c, 3, 63, 127
1, 262660, Note_on_c, 7, 67, 127
1, 262660, Note_on_c, 2, 50, 127
1, 262795, Note_off_c, 7, 55, 127
1, 262799, Note_off_c, 2, 50, 127
1, 262799, Note_off_c, 7, 67, 127
1, 262800, Note_on_c, 0, 60, 127
1, 262800, Note_on_c, 3, 51, 127
1, 262939, Note_off_c, 0, 60, 127
1, 262940, Note_on_c, 7, 67, 127
1, 263079, Note_off_c, 7, 67, 127
1, 263079, Note_off_c, 3, 51, 127
1, 263079, Note_off_c, 0, 72, 127
1, 263080, Note_on_c, 10, 69, 127
1, 263080, Note_on_c, 7, 55, 127
1, 263219, Note_off_c, 10, 69, 127
1, 263220, Note_on_c, 12, 71, 127
1, 263359, Note_off_c, 12, 71, 127
1, 263359, Note_off_c, 7, 55, 127
1, 263360, Note_on_c, 0, 72, 127
1, 263360, Note_on_c, 3, 51, 127
1, 263360, Note_on_c, 7, 55, 127
1, 263500, Note_on_c, 7, 67, 127
1, 263639, Note_off_c, 7, 67, 127
1, 263639, Note_off_c, 3, 51, 127
1, 263640, Note_on_c, 3, 63, 127
1, 263640, Note_on_c, 0, 48, 127
1, 263779, Note_off_c, 3, 63, 127
1, 263780, Note_on_c, 7, 67, 127
1, 263915, Note_off_c, 7, 55, 127
1, 263919, Note_off_c, 7, 67, 127
1, 263920, Note_on_c, 0, 60, 127
1, 264049, Note_off_c, 0, 48, 127
1, 264059, Note_off_c, 0, 60, 127
1, 264060, Note_on_c, 3, 63, 127
1, 264199, Note_off_c, 3, 63, 127
1, 264199, Note_off_c, 0, 72, 127
1, 264200, Note_on_c, 2, 62, 127
1, 264200, Note_on_c, 7, 55, 127
1, 264339, Note_off_c, 2, 62, 127
1, 264340, Note_on_c, 0, 60, 127
1, 264479, Note_off_c, 0, 60, 127
1, 264479, Note_off_c, 7, 55, 127
1, 264480, Note_on_c, 5, 65, 127
1, 264480, Note_on_c, 8, 56, 127
1, 264619, Note_off_c, 5, 65, 127
1, 264620, Note_on_c, 8, 68, 127
1, 264759, Note_off_c, 8, 68, 127
1, 264759, Note_off_c, 8, 56, 127
1, 264760, Note_on_c, 5, 65, 127
1, 264760, Note_on_c, 8, 56, 127
1, 264899, Note_off_c, 5, 65, 127
1, 264900, Note_on_c, 0, 60, 127
1, 265039, Note_off_c, 0, 60, 127
1, 265040, Note_on_c, 2, 62, 127
1, 265040, Note_on_c, 11, 58, 127
1, 265179, Note_off_c, 2, 62, 127
1, 265179, Note_off_c, 8, 56, 127
1, 265180, Note_on_c, 11, 70, 127
1, 265180, Note_on_c, 7, 55, 127
1, 265319, Note_off_c, 7, 55, 127
1, 265319, Note_off_c, 11, 70, 127
1, 265320, Note_on_c, 5, 65, 127
1, 265320, Note_on_c, 8, 56, 127
1, 265459, Note_off_c, 8, 56, 127
1, 265459, Note_off_c, 5, 65, 127
1, 265460, Note_on_c, 2, 62, 127
1, 265460, Note_on_c, 5, 53, 127
1, 265599, Note_off_c, 5, 53, 127
1, 265599, Note_off_c, 2, 62, 127
1, 265600, Note_on_c, 3, 63, 127
1, 265600, Note_on_c, 7, 55, 127
1, 265739, Note_off_c, 3, 63, 127
1, 265740, Note_on_c, 7, 67, 127
1, 265879, Note_off_c, 7, 67, 127
1, 265879, Note_off_c, 7, 55, 127
1, 265880, Note_on_c, 3, 63, 127
1, 265880, Note_on_c, 7, 55, 127
1, 266019, Note_off_c, 3, 63, 127
1, 266020, Note_on_c, 12, 59, 127
1, 266159, Note_off_c, 12, 59, 127
1, 266159, Note_off_c, 11, 58, 127
1, 266160, Note_on_c, 0, 60, 127
1, 266160, Note_on_c, 8, 56, 127
1, 266299, Note_off_c, 0, 60, 127
1, 266299, Note_off_c, 7, 55, 127
1, 266300, Note_on_c, 8, 68, 127
1, 266300, Note_on_c, 5, 53, 127
1, 266439, Note_off_c, 5, 53, 127
1, 266439, Note_off_c, 8, 68, 127
1, 266440, Note_on_c, 3, 63, 127
1, 266440, Note_on_c, 7, 55, 127
1, 266579, Note_off_c, 7, 55, 127
1, 266579, Note_off_c, 3, 63, 127
1, 266580, Note_on_c, 0, 60, 127
1, 266580, Note_on_c, 3, 51, 127
1, 266719, Note_off_c, 3, 51, 127
1, 266719, Note_off_c, 0, 60, 127
1, 266720, Note_on_c, 2, 62, 127
1, 266720, Note_on_c, 5, 53, 127
1, 266859, Note_off_c, 2, 62, 127
1, 266860, Note_on_c, 5, 65, 127
1, 266999, Note_off_c, 5, 65, 127
1, 266999, Note_off_c, 5, 53, 127
1, 267000, Note_on_c, 2, 62, 127
1, 267000, Note_on_c, 5, 53, 127
1, 267139, Note_off_c, 2, 62, 127
1, 267140, Note_on_c, 10, 57, 127
1, 267279, Note_off_c, 10, 57, 127
1, 267279, Note_off_c, 8, 56, 127
1, 267280, Note_on_c, 12, 59, 127
1, 267280, Note_on_c, 7, 55, 127
1, 267419, Note_off_c, 12, 59, 127
1, 267419, Note_off_c, 5, 53, 127
1, 267420, Note_on_c, 7, 67, 127
1, 267420, Note_on_c, 3, 51, 127
1, 267559, Note_off_c, 3, 51, 127
1, 267559, Note_off_c, 7, 67, 127
1, 267560, Note_on_c, 2, 62, 127
1, 267560, Note_on_c, 5, 53, 127
1, 267699, Note_off_c, 5, 53, 127
1, 267699, Note_off_c, 2, 62, 127
1, 267700, Note_on_c, 12, 59, 127
1, 267700, Note_on_c, 2, 50, 127
1, 267835, Note_off_c, 7, 55, 127
1, 267839, Note_off_c, 2, 50, 127
1, 267839, Note_off_c, 12, 59, 127
1, 267840, Note_on_c, 0, 60, 127
1, 267840, Note_on_c, 3, 51, 127
1, 267979, Note_off_c, 3, 51, 127
1, 267980, Note_on_c, 2, 62, 127
1, 267980, Note_on_c, 2, 50, 127
1, 268119, Note_off_c, 2, 50, 127
1, 268119, Note_off_c, 2, 62, 127
1, 268120, Note_on_c, 3, 63, 127
1, 268120, Note_on_c, 0, 48, 127
1, 268259, Note_off_c, 0, 48, 127
1, 268259, Note_off_c, 3, 63, 127
1, 268260, Note_on_c, 5, 65, 127
1, 268260, Note_on_c, 2, 50, 127
1, 268399, Note_off_c, 2, 50, 127
1, 268399, Note_off_c, 5, 65, 127
1, 268400, Note_on_c, 7, 67, 127
1, 268400, Note_on_c, 3, 51, 127
1, 268539, Note_off_c, 3, 51, 127
1, 268539, Note_off_c, 7, 67, 127
1, 268540, Note_on_c, 10, 69, 127
1, 268540, Note_on_c, 5, 53, 127
1, 268679, Note_off_c, 5, 53, 127
1, 268679, Note_off_c, 10, 69, 127
1, 268680, Note_on_c, 12, 71, 127
1, 268680, Note_on_c, 7, 55, 127
1, 268819, Note_off_c, 7, 55, 127
1, 268819, Note_off_c, 12, 71, 127
1, 268820, Note_on_c, 7, 67, 127
1, 268820, Note_on_c, 3, 51, 127
1, 268959, Note_off_c, 3, 51, 127
1, 268959, Note_off_c, 7, 67, 127
1, 268959, Note_off_c, 0, 60, 127
1, 268960, Note_on_c, 0, 72, 127
1, 268960, Note_on_c, 8, 56, 127
1, 269099, Note_off_c, 8, 56, 127
1, 269100, Note_on_c, 12, 47, 127
1, 269100, Note_on_c, 2, 62, 127
1, 269239, Note_off_c, 2, 62, 127
1, 269239, Note_off_c, 12, 47, 127
1, 269240, Note_on_c, 0, 48, 127
1, 269240, Note_on_c, 3, 63, 127
1, 269369, Note_off_c, 0, 72, 127
1, 269379, Note_off_c, 3, 63, 127
1, 269379, Note_off_c, 0, 48, 127
1, 269380, Note_on_c, 2, 50, 127
1, 269380, Note_on_c, 5, 65, 127
1, 269519, Note_off_c, 5, 65, 127
1, 269519, Note_off_c, 2, 50, 127
1, 269520, Note_on_c, 7, 43, 127
1, 269520, Note_on_c, 0, 60, 127
1, 269590, Note_off_c, 0, 60, 127
1, 269590, Note_on_c, 12, 59, 127
1, 269659, Note_off_c, 7, 43, 127
1, 269660, Note_off_c, 12, 59, 127
1, 269660, Note_on_c, 0, 60, 127
1, 269660, Note_on_c, 3, 51, 127
1, 269730, Note_off_c, 0, 60, 127
1, 269730, Note_on_c, 12, 59, 127
1, 269799, Note_off_c, 3, 51, 127
1, 269800, Note_on_c, 5, 65, 127
1, 269800, Note_on_c, 2, 50, 127
1, 269935, Note_off_c, 12, 59, 127
1, 269939, Note_off_c, 2, 50, 127
1, 269940, Note_on_c, 0, 48, 127
1, 269940, Note_on_c, 0, 60, 127
1, 270079, Note_off_c, 0, 60, 127
1, 270079, Note_off_c, 0, 48, 127
1, 270079, Note_off_c, 5, 65, 127
1, 270095, Note_on_c, 0, 48, 127
1, 270095, Note_on_c, 0, 60, 127
1, 270095, Note_on_c, 3, 63, 127
1, 270224, Note_off_c, 0, 60, 127
1, 270255, Note_on_c, 0, 60, 127
1, 270255, Note_on_c, 7, 67, 127
1, 270256, Note_off_c, 3, 63, 127
1, 270256, Note_off_c, 0, 48, 127
1, 270332, Note_on_c, 11, 58, 127
1, 270405, Note_off_c, 11, 58, 127
1, 270408, Note_off_c, 7, 67, 127
1, 270411, Note_on_c, 0, 72, 127
1, 270411, Note_on_c, 10, 57, 127
1, 270551, Note_off_c, 0, 60, 127
1, 270564, Note_off_c, 10, 57, 127
1, 270567, Note_on_c, 0, 60, 127
1, 270721, Note_off_c, 0, 60, 127
1, 270724, Note_on_c, 2, 62, 127
1, 270724, Note_on_c, 6, 54, 127
1, 270870, Note_off_c, 0, 72, 127
1, 270877, Note_off_c, 6, 54, 127
1, 270878, Note_on_c, 2, 74, 127
1, 270878, Note_on_c, 10, 57, 127
1, 270951, Note_off_c, 2, 74, 127
1, 270955, Note_on_c, 0, 72, 127
1, 271028, Note_off_c, 0, 72, 127
1, 271031, Note_off_c, 10, 57, 127
1, 271034, Note_on_c, 11, 70, 127
1, 271034, Note_on_c, 2, 50, 127
1, 271188, Note_off_c, 2, 50, 127
1, 271188, Note_off_c, 11, 70, 127
1, 271191, Note_on_c, 0, 72, 127
1, 271191, Note_on_c, 6, 54, 127
1, 271264, Note_off_c, 0, 72, 127
1, 271268, Note_on_c, 10, 69, 127
1, 271341, Note_off_c, 10, 69, 127
1, 271344, Note_off_c, 6, 54, 127
1, 271345, Note_on_c, 11, 70, 127
1, 271345, Note_on_c, 7, 55, 127
1, 271499, Note_off_c, 7, 55, 127
1, 271502, Note_on_c, 7, 67, 127
1, 271502, Note_on_c, 7, 43, 127
1, 271527, Note_off_c, 2, 62, 127
1, 271575, Note_off_c, 7, 67, 127
1, 271579, Note_on_c, 5, 65, 127
1, 271652, Note_off_c, 5, 65, 127
1, 271658, Note_on_c, 4, 64, 127
1, 271658, Note_on_c, 7, 55, 127
1, 271670, Note_off_c, 7, 43, 127
1, 271812, Note_off_c, 4, 64, 127
1, 271815, Note_on_c, 7, 67, 127
1, 271966, Note_off_c, 11, 70, 127
1, 271969, Note_off_c, 7, 67, 127
1, 271970, Note_on_c, 10, 69, 127
1, 271970, Note_on_c, 0, 60, 127
1, 272122, Note_off_c, 7, 55, 127
1, 272122, Note_on_c, 3, 63, 127
1, 272122, Note_on_c, 10, 57, 127
1, 272123, Note_off_c, 0, 60, 127
1, 272195, Note_off_c, 10, 57, 127
1, 272205, Note_on_c, 7, 55, 127
1, 272275, Note_off_c, 3, 63, 127
1, 272278, Note_off_c, 7, 55, 127
1, 272287, Note_on_c, 6, 54, 127
1, 272287, Note_on_c, 10, 57, 127
1, 272438, Note_on_c, 7, 55, 127
1, 272438, Note_on_c, 0, 60, 127
1, 272441, Note_off_c, 10, 57, 127
1, 272441, Note_off_c, 6, 54, 127
1, 272511, Note_off_c, 7, 55, 127
1, 272524, Note_on_c, 4, 52, 127
1, 272591, Note_off_c, 0, 60, 127
1, 272597, Note_off_c, 4, 52, 127
1, 272603, Note_on_c, 6, 54, 127
1, 272603, Note_on_c, 2, 62, 127
1, 272743, Note_off_c, 10, 69, 127
1, 272744, Note_off_c, 2, 62, 127
1, 272747, Note_on_c, 2, 62, 127
1, 272747, Note_on_c, 2, 50, 127
1, 272747, Note_on_c, 6, 66, 127
1, 272756, Note_off_c, 6, 54, 127
1, 272834, Note_off_c, 2, 50, 127
1, 272835, Note_on_c, 0, 48, 127
1, 272913, Note_off_c, 2, 62, 127
1, 272922, Note_off_c, 0, 48, 127
1, 272922, Note_off_c, 6, 66, 127
1, 272923, Note_on_c, 7, 67, 127
1, 272923, Note_on_c, 11, 46, 127
1, 272923, Note_on_c, 4, 64, 127
1, 273071, Note_off_c, 4, 64, 127
1, 273071, Note_off_c, 11, 46, 127
1, 273071, Note_off_c, 7, 67, 127
1, 273083, Note_on_c, 10, 69, 127
1, 273083, Note_on_c, 2, 50, 127
1, 273083, Note_on_c, 6, 66, 127
1, 273231, Note_off_c, 6, 66, 127
1, 273231, Note_off_c, 2, 50, 127
1, 273231, Note_off_c, 10, 69, 127
1, 273244, Note_on_c, 11, 70, 127
1, 273244, Note_on_c, 7, 43, 127
1, 273244, Note_on_c, 7, 67, 127
1, 273392, Note_off_c, 7, 67, 127
1, 273392, Note_off_c, 7, 43, 127
1, 273392, Note_off_c, 11, 70, 127
1, 273399, Note_on_c, 11, 70, 127
1, 273399, Note_on_c, 11, 46, 127
1, 273399, Note_on_c, 7, 67, 127
1, 273547, Note_off_c, 7, 67, 127
1, 273547, Note_off_c, 11, 46, 127
1, 273547, Note_off_c, 11, 70, 127
1, 273562, Note_on_c, 0, 72, 127
1, 273562, Note_on_c, 3, 39, 127
1, 273562, Note_on_c, 10, 69, 127
1, 273710, Note_off_c, 10, 69, 127
1, 273710, Note_off_c, 3, 39, 127
1, 273710, Note_off_c, 0, 72, 127
1, 273722, Note_on_c, 2, 74, 127
1, 273722, Note_on_c, 7, 43, 127
1, 273722, Note_on_c, 11, 70, 127
1, 273870, Note_off_c, 11, 70, 127
1, 273870, Note_off_c, 7, 43, 127
1, 273870, Note_off_c, 2, 74, 127
1, 273880, Note_on_c, 3, 75, 127
1, 273880, Note_on_c, 0, 36, 127
1, 273880, Note_on_c, 0, 72, 127
1, 274028, Note_off_c, 0, 72, 127
1, 274038, Note_on_c, 6, 66, 127
1, 274183, Note_off_c, 3, 75, 127
1, 274186, Note_off_c, 6, 66, 127
1, 274186, Note_off_c, 0, 36, 127
1, 274198, Note_on_c, 3, 51, 127
1, 274198, Note_on_c, 7, 67, 127
1, 274346, Note_off_c, 7, 67, 127
1, 274358, Note_on_c, 0, 72, 127
1, 274504, Note_off_c, 3, 51, 127
1, 274505, Note_off_c, 0, 72, 127
1, 274515, Note_on_c, 2, 50, 127
1, 274515, Note_on_c, 11, 70, 127
1, 274661, Note_on_c, 0, 72, 127
1, 274662, Note_off_c, 11, 70, 127
1, 274741, Note_off_c, 0, 72, 127
1, 274745, Note_on_c, 10, 69, 127
1, 274820, Note_off_c, 2, 50, 127
1, 274824, Note_off_c, 10, 69, 127
1, 274833, Note_on_c, 2, 62, 127
1, 274833, Note_on_c, 2, 38, 127
1, 274833, Note_on_c, 7, 67, 127
1, 274972, Note_on_c, 10, 69, 127
1, 274981, Note_off_c, 7, 67, 127
1, 275053, Note_off_c, 10, 69, 127
1, 275063, Note_on_c, 6, 66, 127
1, 275139, Note_off_c, 2, 38, 127
1, 275139, Note_off_c, 2, 62, 127
1, 275143, Note_off_c, 6, 66, 127
1, 275152, Note_on_c, 11, 58, 127
1, 275152, Note_on_c, 7, 43, 127
1, 275152, Note_on_c, 7, 67, 127
1, 275477, Note_on_c, 7, 55, 127
1, 275483, Note_off_c, 11, 58, 127
1, 275490, Note_off_c, 7, 43, 127
1, 275616, Note_off_c, 7, 55, 127
1, 275628, Note_on_c, 10, 57, 127
1, 275767, Note_off_c, 10, 57, 127
1, 275776, Note_on_c, 11, 58, 127
1, 275782, Note_off_c, 7, 67, 127
1, 275917, Note_on_c, 2, 50, 127
1, 276056, Note_off_c, 2, 50, 127
1, 276056, Note_off_c, 11, 58, 127
1, 276057, Note_on_c, 2, 62, 127
1, 276057, Note_on_c, 4, 52, 127
1, 276057, Note_on_c, 10, 69, 127
1, 276196, Note_off_c, 4, 52, 127
1, 276197, Note_on_c, 6, 54, 127
1, 276336, Note_off_c, 6, 54, 127
1, 276336, Note_off_c, 10, 69, 127
1, 276336, Note_off_c, 2, 62, 127
1, 276337, Note_on_c, 11, 58, 127
1, 276337, Note_on_c, 7, 55, 127
1, 276337, Note_on_c, 7, 67, 127
1, 276476, Note_off_c, 7, 55, 127
1, 276477, Note_on_c, 2, 50, 127
1, 276616, Note_off_c, 2, 50, 127
1, 276616, Note_off_c, 11, 58, 127
1, 276617, Note_on_c, 7, 55, 127
1, 276617, Note_on_c, 11, 46, 127
1, 276756, Note_off_c, 11, 46, 127
1, 276757, Note_on_c, 2, 50, 127
1, 276892, Note_off_c, 7, 67, 127
1, 276896, Note_off_c, 2, 50, 127
1, 276897, Note_on_c, 7, 43, 127
1, 277026, Note_off_c, 7, 55, 127
1, 277036, Note_off_c, 7, 43, 127
1, 277037, Note_on_c, 2, 50, 127
1, 277176, Note_off_c, 2, 50, 127
1, 277177, Note_on_c, 2, 62, 127
1, 277177, Note_on_c, 4, 52, 127
1, 277177, Note_on_c, 10, 69, 127
1, 277316, Note_off_c, 4, 52, 127
1, 277317, Note_on_c, 6, 54, 127
1, 277456, Note_off_c, 6, 54, 127
1, 277456, Note_off_c, 10, 69, 127
1, 277456, Note_off_c, 2, 62, 127
1, 277457, Note_on_c, 11, 58, 127
1, 277457, Note_on_c, 7, 55, 127
1, 277457, Note_on_c, 7, 67, 127
1, 277596, Note_off_c, 7, 55, 127
1, 277597, Note_on_c, 2, 50, 127
1, 277736, Note_off_c, 2, 50, 127
1, 277736, Note_off_c, 11, 58, 127
1, 277737, Note_on_c, 7, 55, 127
1, 277737, Note_on_c, 11, 46, 127
1, 277876, Note_off_c, 11, 46, 127
1, 277876, Note_off_c, 7, 55, 127
1, 277877, Note_on_c, 10, 57, 127
1, 277877, Note_on_c, 2, 50, 127
1, 278012, Note_off_c, 7, 67, 127
1, 278016, Note_off_c, 2, 50, 127
1, 278016, Note_off_c, 10, 57, 127
1, 278017, Note_on_c, 11, 58, 127
1, 278017, Note_on_c, 7, 43, 127
1, 278156, Note_off_c, 7, 43, 127
1, 278157, Note_on_c, 2, 50, 127
1, 278296, Note_off_c, 2, 50, 127
1, 278296, Note_off_c, 11, 58, 127
1, 278297, Note_on_c, 2, 62, 127
1, 278297, Note_on_c, 4, 52, 127
1, 278297, Note_on_c, 10, 69, 127
1, 278436, Note_off_c, 4, 52, 127
1, 278437, Note_on_c, 6, 54, 127
1, 278576, Note_off_c, 6, 54, 127
1, 278576, Note_off_c, 10, 69, 127
1, 278576, Note_off_c, 2, 62, 127
1, 278577, Note_on_c, 11, 58, 127
1, 278577, Note_on_c, 7, 55, 127
1, 278577, Note_on_c, 7, 67, 127
1, 278716, Note_off_c, 7, 55, 127
1, 278717, Note_on_c, 2, 50, 127
1, 278856, Note_off_c, 2, 50, 127
1, 278856, Note_off_c, 11, 58, 127
1, 278857, Note_on_c, 7, 55, 127
1, 278857, Note_on_c, 11, 46, 127
1, 278996, Note_off_c, 11, 46, 127
1, 278996, Note_off_c, 7, 67, 127
1, 278997, Note_on_c, 2, 50, 127
1, 278997, Note_on_c, 10, 69, 127
1, 279136, Note_off_c, 10, 69, 127
1, 279136, Note_off_c, 2, 50, 127
1, 279137, Note_on_c, 7, 43, 127
1, 279137, Note_on_c, 11, 70, 127
1, 279266, Note_off_c, 7, 55, 127
1, 279276, Note_off_c, 7, 43, 127
1, 279277, Note_on_c, 11, 46, 127
1, 279416, Note_off_c, 11, 46, 127
1, 279417, Note_on_c, 2, 62, 127
1, 279417, Note_on_c, 10, 45, 127
1, 279556, Note_off_c, 10, 45, 127
1, 279557, Note_on_c, 7, 43, 127
1, 279696, Note_off_c, 7, 43, 127
1, 279696, Note_off_c, 2, 62, 127
1, 279697, Note_on_c, 3, 63, 127
1, 279697, Note_on_c, 0, 48, 127
1, 279836, Note_off_c, 0, 48, 127
1, 279837, Note_on_c, 3, 51, 127
1, 279976, Note_off_c, 3, 51, 127
1, 279976, Note_off_c, 3, 63, 127
1, 279976, Note_off_c, 11, 70, 127
1, 279977, Note_on_c, 3, 63, 127
1, 279977, Note_on_c, 0, 48, 127
1, 279977, Note_on_c, 10, 69, 127
1, 280116, Note_off_c, 10, 69, 127
1, 280116, Note_off_c, 0, 48, 127
1, 280117, Note_on_c, 7, 43, 127
1, 280117, Note_on_c, 11, 70, 127
1, 280256, Note_off_c, 11, 70, 127
1, 280256, Note_off_c, 7, 43, 127
1, 280257, Note_on_c, 10, 45, 127
1, 280257, Note_on_c, 0, 72, 127
1, 280396, Note_off_c, 10, 45, 127
1, 280396, Note_off_c, 3, 63, 127
1, 280397, Note_on_c, 2, 62, 127
1, 280397, Note_on_c, 5, 53, 127
1, 280536, Note_off_c, 5, 53, 127
1, 280536, Note_off_c, 2, 62, 127
1, 280537, Note_on_c, 3, 63, 127
1, 280537, Note_on_c, 0, 48, 127
1, 280676, Note_off_c, 0, 48, 127
1, 280676, Note_off_c, 3, 63, 127
1, 280677, Note_on_c, 0, 60, 127
1, 280677, Note_on_c, 10, 45, 127
1, 280816, Note_off_c, 10, 45, 127
1, 280816, Note_off_c, 0, 60, 127
1, 280817, Note_on_c, 2, 62, 127
1, 280817, Note_on_c, 11, 46, 127
1, 280956, Note_off_c, 11, 46, 127
1, 280957, Note_on_c, 2, 50, 127
1, 281096, Note_off_c, 2, 50, 127
1, 281096, Note_off_c, 2, 62, 127
1, 281096, Note_off_c, 0, 72, 127
1, 281097, Note_on_c, 2, 62, 127
1, 281097, Note_on_c, 11, 46, 127
1, 281097, Note_on_c, 5, 65, 127
1, 281236, Note_off_c, 11, 46, 127
1, 281237, Note_on_c, 5, 41, 127
1, 281376, Note_off_c, 5, 41, 127
1, 281376, Note_off_c, 5, 65, 127
1, 281377, Note_on_c, 7, 43, 127
1, 281377, Note_on_c, 11, 70, 127
1, 281516, Note_off_c, 7, 43, 127
1, 281516, Note_off_c, 2, 62, 127
1, 281517, Note_on_c, 0, 60, 127
1, 281517, Note_on_c, 3, 51, 127
1, 281656, Note_off_c, 3, 51, 127
1, 281656, Note_off_c, 0, 60, 127
1, 281657, Note_on_c, 2, 62, 127
1, 281657, Note_on_c, 11, 46, 127
1, 281796, Note_off_c, 11, 46, 127
1, 281796, Note_off_c, 2, 62, 127
1, 281797, Note_on_c, 11, 58, 127
1, 281797, Note_on_c, 7, 43, 127
1, 281936, Note_off_c, 7, 43, 127
1, 281936, Note_off_c, 11, 58, 127
1, 281937, Note_on_c, 0, 60, 127
1, 281937, Note_on_c, 10, 45, 127
1, 282076, Note_off_c, 10, 45, 127
1, 282077, Note_on_c, 0, 48, 127
1, 282216, Note_off_c, 0, 48, 127
1, 282216, Note_off_c, 0, 60, 127
1, 282216, Note_off_c, 11, 70, 127
1, 282217, Note_on_c, 0, 60, 127
1, 282217, Note_on_c, 10, 45, 127
1, 282217, Note_on_c, 10, 69, 127
1, 282356, Note_off_c, 10, 69, 127
1, 282356, Note_off_c, 10, 45, 127
1, 282357, Note_on_c, 4, 40, 127
1, 282357, Note_on_c, 7, 67, 127
1, 282496, Note_off_c, 7, 67, 127
1, 282496, Note_off_c, 4, 40, 127
1, 282497, Note_on_c, 6, 42, 127
1, 282497, Note_on_c, 10, 69, 127
1, 282636, Note_off_c, 6, 42, 127
1, 282636, Note_off_c, 0, 60, 127
1, 282637, Note_on_c, 11, 58, 127
1, 282637, Note_on_c, 2, 50, 127
1, 282776, Note_off_c, 2, 50, 127
1, 282776, Note_off_c, 11, 58, 127
1, 282777, Note_on_c, 0, 60, 127
1, 282777, Note_on_c, 10, 45, 127
1, 282916, Note_off_c, 10, 45, 127
1, 282916, Note_off_c, 0, 60, 127
1, 282917, Note_on_c, 10, 57, 127
1, 282917, Note_on_c, 6, 42, 127
1, 283056, Note_off_c, 6, 42, 127
1, 283056, Note_off_c, 10, 57, 127
1, 283056, Note_off_c, 10, 69, 127
1, 283057, Note_on_c, 11, 58, 127
1, 283057, Note_on_c, 7, 43, 127
1, 283057, Note_on_c, 2, 62, 127
1, 283196, Note_off_c, 11, 58, 127
1, 283197, Note_on_c, 10, 57, 127
1, 283336, Note_off_c, 10, 57, 127
1, 283337, Note_on_c, 7, 55, 127
1, 283476, Note_off_c, 7, 55, 127
1, 283477, Note_on_c, 10, 57, 127
1, 283616, Note_off_c, 10, 57, 127
1, 283616, Note_off_c, 2, 62, 127
1, 283617, Note_on_c, 11, 58, 127
1, 283617, Note_on_c, 7, 67, 127
1, 283756, Note_off_c, 11, 58, 127
1, 283757, Note_on_c, 0, 60, 127
1, 283896, Note_off_c, 0, 60, 127
1, 283896, Note_off_c, 7, 43, 127
1, 283897, Note_on_c, 2, 62, 127
1, 283897, Note_on_c, 11, 46, 127
1, 284036, Note_off_c, 2, 62, 127
1, 284037, Note_on_c, 11, 58, 127
1, 284176, Note_off_c, 11, 58, 127
1, 284176, Note_off_c, 11, 46, 127
1, 284177, Note_on_c, 3, 63, 127
1, 284177, Note_on_c, 0, 48, 127
1, 284316, Note_off_c, 3, 63, 127
1, 284316, Note_off_c, 7, 67, 127
1, 284317, Note_on_c, 6, 54, 127
1, 284317, Note_on_c, 10, 69, 127
1, 284456, Note_off_c, 10, 69, 127
1, 284456, Note_off_c, 6, 54, 127
1, 284457, Note_on_c, 7, 55, 127
1, 284457, Note_on_c, 11, 70, 127
1, 284596, Note_off_c, 11, 70, 127
1, 284596, Note_off_c, 7, 55, 127
1, 284597, Note_on_c, 10, 57, 127
1, 284597, Note_on_c, 0, 72, 127
1, 284736, Note_off_c, 0, 72, 127
1, 284736, Note_off_c, 10, 57, 127
1, 284736, Note_off_c, 0, 48, 127
1, 284737, Note_on_c, 2, 50, 127
1, 284737, Note_on_c, 7, 67, 127
1, 284801, Note_on_c, 6, 66, 127
1, 284807, Note_off_c, 7, 67, 127
1, 284866, Note_on_c, 7, 67, 127
1, 284872, Note_off_c, 6, 66, 127
1, 284878, Note_on_c, 11, 58, 127
1, 284931, Note_on_c, 6, 66, 127
1, 284937, Note_off_c, 7, 67, 127
1, 285017, Note_off_c, 11, 58, 127
1, 285018, Note_on_c, 10, 57, 127
1, 285135, Note_off_c, 6, 66, 127
1, 285157, Note_off_c, 10, 57, 127
1, 285158, Note_on_c, 7, 55, 127
1, 285158, Note_on_c, 7, 67, 127
1, 285297, Note_off_c, 7, 67, 127
1, 285297, Note_off_c, 7, 55, 127
1, 285297, Note_off_c, 2, 50, 127
1, 285298, Note_on_c, 7, 67, 127
1, 285298, Note_on_c, 7, 43, 127
1, 285298, Note_on_c, 7, 55, 127
1, 285443, Note_off_c, 7, 67, 127
1, 285447, Note_on_c, 2, 74, 127
1, 285589, Note_off_c, 7, 55, 127
1, 285592, Note_off_c, 2, 74, 127
1, 285596, Note_on_c, 7, 79, 127
1, 285738, Note_off_c, 7, 43, 127
1, 285741, Note_off_c, 7, 79, 127
1, 285744, Note_on_c, 5, 77, 127
1, 285744, Note_on_c, 7, 55, 127
1, 285889, Note_off_c, 7, 55, 127
1, 285889, Note_off_c, 5, 77, 127
1, 285893, Note_on_c, 4, 76, 127
1, 285893, Note_on_c, 0, 60, 127
1, 286038, Note_off_c, 0, 60, 127
1, 286038, Note_off_c, 4, 76, 127
1, 286042, Note_on_c, 5, 77, 127
1, 286042, Note_on_c, 0, 48, 127
1, 286114, Note_off_c, 5, 77, 127
1, 286117, Note_on_c, 7, 79, 127
1, 286187, Note_off_c, 0, 48, 127
1, 286188, Note_off_c, 7, 79, 127
1, 286191, Note_on_c, 0, 72, 127
1, 286191, Note_on_c, 0, 60, 127
1, 286336, Note_off_c, 0, 60, 127
1, 286336, Note_off_c, 0, 72, 127
1, 286339, Note_on_c, 4, 76, 127
1, 286339, Note_on_c, 11, 58, 127
1, 286484, Note_off_c, 11, 58, 127
1, 286484, Note_off_c, 4, 76, 127
1, 286488, Note_on_c, 5, 77, 127
1, 286488, Note_on_c, 10, 57, 127
1, 286633, Note_off_c, 10, 57, 127
1, 286633, Note_off_c, 5, 77, 127
1, 286637, Note_on_c, 5, 65, 127
1, 286637, Note_on_c, 11, 58, 127
1, 286709, Note_off_c, 11, 58, 127
1, 286712, Note_on_c, 0, 60, 127
1, 286782, Note_off_c, 5, 65, 127
1, 286783, Note_off_c, 0, 60, 127
1, 286786, Note_on_c, 5, 77, 127
1, 286786, Note_on_c, 5, 53, 127
1, 286931, Note_off_c, 5, 53, 127
1, 286931, Note_off_c, 5, 77, 127
1, 286934, Note_on_c, 3, 75, 127
1, 286934, Note_on_c, 10, 57, 127
1, 287079, Note_off_c, 10, 57, 127
1, 287079, Note_off_c, 3, 75, 127
1, 287083, Note_on_c, 2, 74, 127
1, 287083, Note_on_c, 11, 58, 127
1, 287228, Note_off_c, 11, 58, 127
1, 287228, Note_off_c, 2, 74, 127
1, 287232, Note_on_c, 3, 75, 127
1, 287232, Note_on_c, 11, 46, 127
1, 287304, Note_off_c, 3, 75, 127
1, 287307, Note_on_c, 5, 77, 127
1, 287377, Note_off_c, 11, 46, 127
1, 287378, Note_off_c, 5, 77, 127
1, 287381, Note_on_c, 11, 70, 127
1, 287381, Note_on_c, 11, 58, 127
1, 287526, Note_off_c, 11, 58, 127
1, 287526, Note_off_c, 11, 70, 127
1, 287529, Note_on_c, 2, 74, 127
1, 287529, Note_on_c, 8, 56, 127
1, 287674, Note_off_c, 8, 56, 127
1, 287674, Note_off_c, 2, 74, 127
1, 287678, Note_on_c, 3, 75, 127
1, 287678, Note_on_c, 7, 55, 127
1, 287823, Note_off_c, 7, 55, 127
1, 287823, Note_off_c, 3, 75, 127
1, 287827, Note_on_c, 3, 63, 127
1, 287827, Note_on_c, 8, 56, 127
1, 287899, Note_off_c, 8, 56, 127
1, 287902, Note_on_c, 11, 58, 127
1, 287972, Note_off_c, 3, 63, 127
1, 287973, Note_off_c, 11, 58, 127
1, 287976, Note_on_c, 3, 75, 127
1, 287976, Note_on_c, 3, 51, 127
1, 288121, Note_off_c, 3, 51, 127
1, 288121, Note_off_c, 3, 75, 127
1, 288124, Note_on_c, 2, 74, 127
1, 288124, Note_on_c, 7, 55, 127
1, 288269, Note_off_c, 7, 55, 127
1, 288269, Note_off_c, 2, 74, 127
1, 288273, Note_on_c, 0, 72, 127
1, 288273, Note_on_c, 8, 56, 127
1, 288418, Note_off_c, 8, 56, 127
1, 288418, Note_off_c, 0, 72, 127
1, 288422, Note_on_c, 2, 74, 127
1, 288422, Note_on_c, 8, 44, 127
1, 288494, Note_off_c, 2, 74, 127
1, 288497, Note_on_c, 3, 75, 127
1, 288567, Note_off_c, 8, 44, 127
1, 288568, Note_off_c, 3, 75, 127
1, 288571, Note_on_c, 8, 68, 127
1, 288571, Note_on_c, 5, 53, 127
1, 288716, Note_off_c, 5, 53, 127
1, 288716, Note_off_c, 8, 68, 127
1, 288719, Note_on_c, 5, 77, 127
1, 288719, Note_on_c, 8, 44, 127
1, 288864, Note_off_c, 8, 44, 127
1, 288864, Note_off_c, 5, 77, 127
1, 288868, Note_on_c, 2, 74, 127
1, 288868, Note_on_c, 11, 58, 127
1, 289013, Note_off_c, 11, 58, 127
1, 289013, Note_off_c, 2, 74, 127
1, 289017, Note_on_c, 3, 75, 127
1, 289017, Note_on_c, 11, 46, 127
1, 289089, Note_off_c, 3, 75, 127
1, 289092, Note_on_c, 5, 77, 127
1, 289162, Note_off_c, 11, 46, 127
1, 289163, Note_off_c, 5, 77, 127
1, 289166, Note_on_c, 11, 70, 127
1, 289166, Note_on_c, 7, 55, 127
1, 289311, Note_off_c, 7, 55, 127
1, 289311, Note_off_c, 11, 70, 127
1, 289315, Note_on_c, 7, 79, 127
1, 289315, Note_on_c, 11, 46, 127
1, 289460, Note_off_c, 11, 46, 127
1, 289460, Note_off_c, 7, 79, 127
1, 289463, Note_on_c, 3, 75, 127
1, 289463, Note_on_c, 0, 60, 127
1, 289608, Note_off_c, 0, 60, 127
1, 289608, Note_off_c, 3, 75, 127
1, 289612, Note_on_c, 5, 77, 127
1, 289612, Note_on_c, 0, 48, 127
1, 289684, Note_off_c, 5, 77, 127
1, 289687, Note_on_c, 7, 79, 127
1, 289757, Note_off_c, 0, 48, 127
1, 289758, Note_off_c, 7, 79, 127
1, 289761, Note_on_c, 0, 72, 127
1, 289761, Note_on_c, 8, 56, 127
1, 289906, Note_off_c, 8, 56, 127
1, 289906, Note_off_c, 0, 72, 127
1, 289910, Note_on_c, 8, 80, 127
1, 289910, Note_on_c, 0, 48, 127
1, 290055, Note_off_c, 0, 48, 127
1, 290055, Note_off_c, 8, 80, 127
1, 290058, Note_on_c, 5, 77, 127
1, 290058, Note_on_c, 2, 62, 127
1, 290203, Note_off_c, 2, 62, 127
1, 290203, Note_off_c, 5, 77, 127
1, 290207, Note_on_c, 7, 79, 127
1, 290207, Note_on_c, 2, 50, 127
1, 290279, Note_off_c, 7, 79, 127
1, 290282, Note_on_c, 8, 80, 127
1, 290352, Note_off_c, 2, 50, 127
1, 290353, Note_off_c, 8, 80, 127
1, 290356, Note_on_c, 2, 74, 127
1, 290356, Note_on_c, 11, 58, 127
1, 290501, Note_off_c, 11, 58, 127
1, 290501, Note_off_c, 2, 74, 127
1, 290505, Note_on_c, 11, 82, 127
1, 290505, Note_on_c, 2, 50, 127
1, 290650, Note_off_c, 2, 50, 127
1, 290650, Note_off_c, 11, 82, 127
1, 290653, Note_on_c, 7, 79, 127
1, 290653, Note_on_c, 3, 63, 127
1, 290798, Note_off_c, 3, 63, 127
1, 290798, Note_off_c, 7, 79, 127
1, 290802, Note_on_c, 8, 80, 127
1, 290802, Note_on_c, 3, 51, 127
1, 290874, Note_off_c, 8, 80, 127
1, 290877, Note_on_c, 11, 82, 127
1, 290947, Note_off_c, 3, 51, 127
1, 290948, Note_off_c, 11, 82, 127
1, 290951, Note_on_c, 3, 75, 127
1, 290951, Note_on_c, 7, 55, 127
1, 291096, Note_off_c, 7, 55, 127
1, 291096, Note_off_c, 3, 75, 127
1, 291100, Note_on_c, 7, 79, 127
1, 291100, Note_on_c, 3, 51, 127
1, 291245, Note_off_c, 3, 51, 127
1, 291245, Note_off_c, 7, 79, 127
1, 291248, Note_on_c, 0, 84, 127
1, 291248, Note_on_c, 8, 56, 127
1, 291393, Note_off_c, 8, 56, 127
1, 291393, Note_off_c, 0, 84, 127
1, 291397, Note_on_c, 2, 74, 127
1, 291397, Note_on_c, 5, 53, 127
1, 291542, Note_off_c, 5, 53, 127
1, 291542, Note_off_c, 2, 74, 127
1, 291546, Note_on_c, 3, 75, 127
1, 291546, Note_on_c, 0, 60, 127
1, 291691, Note_off_c, 0, 60, 127
1, 291691, Note_off_c, 3, 75, 127
1, 291695, Note_on_c, 5, 65, 127
1, 291695, Note_on_c, 8, 56, 127
1, 291840, Note_off_c, 8, 56, 127
1, 291840, Note_off_c, 5, 65, 127
1, 291843, Note_on_c, 7, 67, 127
1, 291843, Note_on_c, 11, 58, 127
1, 291988, Note_off_c, 11, 58, 127
1, 291988, Note_off_c, 7, 67, 127
1, 291992, Note_on_c, 3, 75, 127
1, 291992, Note_on_c, 8, 56, 127
1, 292137, Note_off_c, 8, 56, 127
1, 292137, Note_off_c, 3, 75, 127
1, 292141, Note_on_c, 5, 65, 127
1, 292141, Note_on_c, 11, 58, 127
1, 292286, Note_off_c, 11, 58, 127
1, 292286, Note_off_c, 5, 65, 127
1, 292290, Note_on_c, 2, 74, 127
1, 292290, Note_on_c, 11, 46, 127
1, 292435, Note_off_c, 11, 46, 127
1, 292435, Note_off_c, 2, 74, 127
1, 292438, Note_on_c, 3, 75, 127
1, 292438, Note_on_c, 3, 51, 127
1, 292583, Note_off_c, 3, 75, 127
1, 292587, Note_on_c, 11, 70, 127
1, 292659, Note_off_c, 11, 70, 127
1, 292662, Note_on_c, 7, 67, 127
1, 292734, Note_off_c, 7, 67, 127
1, 292737, Note_on_c, 3, 63, 127
1, 292879, Note_off_c, 3, 51, 127
1, 292882, Note_off_c, 3, 63, 127
1, 292889, Note_on_c, 0, 48, 127
1, 292889, Note_on_c, 3, 75, 127
1, 293034, Note_off_c, 3, 75, 127
1, 293034, Note_off_c, 0, 48, 127
1, 293041, Note_on_c, 5, 53, 127
1, 293041, Note_on_c, 2, 74, 127
1, 293186, Note_off_c, 2, 74, 127
1, 293186, Note_off_c, 5, 53, 127
1, 293192, Note_on_c, 8, 56, 127
1, 293192, Note_on_c, 3, 75, 127
1, 293264, Note_off_c, 3, 75, 127
1, 293268, Note_on_c, 5, 77, 127
1, 293337, Note_off_c, 8, 56, 127
1, 293340, Note_off_c, 5, 77, 127
1, 293344, Note_on_c, 2, 50, 127
1, 293344, Note_on_c, 5, 77, 127
1, 293489, Note_off_c, 5, 77, 127
1, 293489, Note_off_c, 2, 50, 127
1, 293496, Note_on_c, 5, 53, 127
1, 293496, Note_on_c, 7, 79, 127
1, 293568, Note_off_c, 7, 79, 127
1, 293572, Note_on_c, 8, 80, 127
1, 293641, Note_off_c, 5, 53, 127
1, 293644, Note_off_c, 8, 80, 127
1, 293648, Note_on_c, 7, 55, 127
1, 293648, Note_on_c, 12, 71, 127
1, 293793, Note_off_c, 12, 71, 127
1, 293800, Note_on_c, 0, 72, 127
1, 293872, Note_off_c, 0, 72, 127
1, 293876, Note_on_c, 2, 74, 127
1, 293948, Note_off_c, 2, 74, 127
1, 293952, Note_on_c, 7, 67, 127
1, 294092, Note_off_c, 7, 55, 127
1, 294096, Note_off_c, 7, 67, 127
1, 294103, Note_on_c, 5, 53, 127
1, 294103, Note_on_c, 12, 71, 127
1, 294175, Note_off_c, 12, 71, 127
1, 294179, Note_on_c, 2, 74, 127
1, 294248, Note_off_c, 5, 53, 127
1, 294251, Note_off_c, 2, 74, 127
1, 294255, Note_on_c, 3, 51, 127
1, 294255, Note_on_c, 7, 79, 127
1, 294400, Note_off_c, 7, 79, 127
1, 294400, Note_off_c, 3, 51, 127
1, 294406, Note_on_c, 5, 53, 127
1, 294406, Note_on_c, 5, 77, 127
1, 294478, Note_off_c, 5, 53, 127
1, 294482, Note_on_c, 7, 55, 127
1, 294551, Note_off_c, 5, 77, 127
1, 294554, Note_off_c, 7, 55, 127
1, 294558, Note_on_c, 7, 55, 127
1, 294558, Note_on_c, 3, 75, 127
1, 294703, Note_off_c, 3, 75, 127
1, 294703, Note_off_c, 7, 55, 127
1, 294710, Note_on_c, 10, 57, 127
1, 294710, Note_on_c, 5, 77, 127
1, 294782, Note_off_c, 5, 77, 127
1, 294782, Note_off_c, 10, 57, 127
1, 294786, Note_on_c, 12, 59, 127
1, 294786, Note_on_c, 2, 74, 127
1, 294858, Note_off_c, 2, 74, 127
1, 294858, Note_off_c, 12, 59, 127
1, 294862, Note_on_c, 0, 60, 127
1, 294862, Note_on_c, 3, 75, 127
1, 295007, Note_off_c, 3, 75, 127
1, 295013, Note_on_c, 7, 79, 127
1, 295158, Note_off_c, 7, 79, 127
1, 295165, Note_on_c, 0, 84, 127
1, 295307, Note_off_c, 0, 60, 127
1, 295310, Note_off_c, 0, 84, 127
1, 295317, Note_on_c, 3, 63, 127
1, 295317, Note_on_c, 7, 79, 127
1, 295462, Note_off_c, 7, 79, 127
1, 295462, Note_off_c, 3, 63, 127
1, 295469, Note_on_c, 5, 65, 127
1, 295469, Note_on_c, 8, 80, 127
1, 295614, Note_off_c, 8, 80, 127
1, 295614, Note_off_c, 5, 65, 127
1, 295620, Note_on_c, 8, 68, 127
1, 295620, Note_on_c, 11, 82, 127
1, 295692, Note_off_c, 11, 82, 127
1, 295696, Note_on_c, 0, 84, 127
1, 295765, Note_off_c, 8, 68, 127
1, 295768, Note_off_c, 0, 84, 127
1, 295772, Note_on_c, 2, 62, 127
1, 295772, Note_on_c, 5, 77, 127
1, 295917, Note_off_c, 5, 77, 127
1, 295917, Note_off_c, 2, 62, 127
1, 295924, Note_on_c, 5, 65, 127
1, 295924, Note_on_c, 7, 79, 127
1, 295996, Note_off_c, 7, 79, 127
1, 296000, Note_on_c, 8, 80, 127
1, 296069, Note_off_c, 5, 65, 127
1, 296072, Note_off_c, 8, 80, 127
1, 296076, Note_on_c, 11, 58, 127
1, 296076, Note_on_c, 2, 74, 127
1, 296221, Note_off_c, 2, 74, 127
1, 296227, Note_on_c, 5, 77, 127
1, 296372, Note_off_c, 5, 77, 127
1, 296379, Note_on_c, 11, 82, 127
1, 296521, Note_off_c, 11, 58, 127
1, 296524, Note_off_c, 11, 82, 127
1, 296531, Note_on_c, 2, 62, 127
1, 296531, Note_on_c, 5, 77, 127
1, 296676, Note_off_c, 5, 77, 127
1, 296676, Note_off_c, 2, 62, 127
1, 296683, Note_on_c, 3, 63, 127
1, 296683, Note_on_c, 7, 79, 127
1, 296828, Note_off_c, 7, 79, 127
1, 296828, Note_off_c, 3, 63, 127
1, 296835, Note_on_c, 7, 67, 127
1, 296835, Note_on_c, 8, 80, 127
1, 296907, Note_off_c, 8, 80, 127
1, 296910, Note_on_c, 11, 82, 127
1, 296980, Note_off_c, 7, 67, 127
1, 296981, Note_off_c, 11, 82, 127
1, 296985, Note_on_c, 0, 60, 127
1, 296985, Note_on_c, 3, 75, 127
1, 297130, Note_off_c, 3, 75, 127
1, 297130, Note_off_c, 0, 60, 127
1, 297137, Note_on_c, 3, 63, 127
1, 297137, Note_on_c, 5, 77, 127
1, 297209, Note_off_c, 5, 77, 127
1, 297213, Note_on_c, 7, 79, 127
1, 297282, Note_off_c, 3, 63, 127
1, 297285, Note_off_c, 7, 79, 127
1, 297289, Note_on_c, 8, 56, 127
1, 297289, Note_on_c, 0, 72, 127
1, 297434, Note_off_c, 0, 72, 127
1, 297441, Note_on_c, 3, 75, 127
1, 297586, Note_off_c, 3, 75, 127
1, 297592, Note_on_c, 8, 80, 127
1, 297734, Note_off_c, 8, 56, 127
1, 297737, Note_off_c, 8, 80, 127
1, 297744, Note_on_c, 0, 60, 127
1, 297744, Note_on_c, 3, 75, 127
1, 297889, Note_off_c, 3, 75, 127
1, 297889, Note_off_c, 0, 60, 127
1, 297896, Note_on_c, 2, 62, 127
1, 297896, Note_on_c, 5, 77, 127
1, 298041, Note_off_c, 5, 77, 127
1, 298041, Note_off_c, 2, 62, 127
1, 298050, Note_on_c, 5, 65, 127
1, 298050, Note_on_c, 7, 79, 127
1, 298122, Note_off_c, 7, 79, 127
1, 298125, Note_on_c, 8, 80, 127
1, 298195, Note_off_c, 5, 65, 127
1, 298196, Note_off_c, 8, 80, 127
1, 298200, Note_on_c, 12, 59, 127
1, 298200, Note_on_c, 2, 74, 127
1, 298345, Note_off_c, 2, 74, 127
1, 298345, Note_off_c, 12, 59, 127
1, 298352, Note_on_c, 2, 62, 127
1, 298352, Note_on_c, 3, 75, 127
1, 298424, Note_off_c, 3, 75, 127
1, 298428, Note_on_c, 5, 77, 127
1, 298497, Note_off_c, 2, 62, 127
1, 298500, Note_off_c, 5, 77, 127
1, 298504, Note_on_c, 7, 55, 127
1, 298504, Note_on_c, 12, 71, 127
1, 298649, Note_off_c, 12, 71, 127
1, 298656, Note_on_c, 2, 74, 127
1, 298801, Note_off_c, 2, 74, 127
1, 298807, Note_on_c, 7, 79, 127
1, 298949, Note_off_c, 7, 55, 127
1, 298952, Note_off_c, 7, 79, 127
1, 298959, Note_on_c, 12, 59, 127
1, 298959, Note_on_c, 2, 74, 127
1, 299104, Note_off_c, 2, 74, 127
1, 299104, Note_off_c, 12, 59, 127
1, 299111, Note_on_c, 0, 60, 127
1, 299111, Note_on_c, 3, 75, 127
1, 299256, Note_off_c, 3, 75, 127
1, 299256, Note_off_c, 0, 60, 127
1, 299263, Note_on_c, 3, 63, 127
1, 299263, Note_on_c, 5, 77, 127
1, 299335, Note_off_c, 5, 77, 127
1, 299339, Note_on_c, 7, 79, 127
1, 299408, Note_off_c, 3, 63, 127
1, 299411, Note_off_c, 7, 79, 127
1, 299414, Note_on_c, 8, 56, 127
1, 299414, Note_on_c, 0, 72, 127
1, 299559, Note_off_c, 0, 72, 127
1, 299559, Note_off_c, 8, 56, 127
1, 299566, Note_on_c, 0, 60, 127
1, 299566, Note_on_c, 2, 74, 127
1, 299638, Note_off_c, 2, 74, 127
1, 299642, Note_on_c, 3, 75, 127
1, 299711, Note_off_c, 0, 60, 127
1, 299714, Note_off_c, 3, 75, 127
1, 299718, Note_on_c, 5, 53, 127
1, 299718, Note_on_c, 1, 73, 127
1, 299863, Note_off_c, 1, 73, 127
1, 299863, Note_off_c, 5, 53, 127
1, 299870, Note_on_c, 8, 56, 127
1, 299870, Note_on_c, 0, 72, 127
1, 299942, Note_off_c, 0, 72, 127
1, 299946, Note_on_c, 12, 71, 127
1, 300015, Note_off_c, 8, 56, 127
1, 300018, Note_off_c, 12, 71, 127
1, 300021, Note_on_c, 2, 50, 127
1, 300021, Note_on_c, 0, 72, 127
1, 300166, Note_off_c, 0, 72, 127
1, 300166, Note_off_c, 2, 50, 127
1, 300173, Note_on_c, 5, 53, 127
1, 300173, Note_on_c, 2, 74, 127
1, 300245, Note_off_c, 2, 74, 127
1, 300249, Note_on_c, 3, 75, 127
1, 300318, Note_off_c, 5, 53, 127
1, 300321, Note_off_c, 3, 75, 127
1, 300325, Note_on_c, 7, 55, 127
1, 300325, Note_on_c, 7, 67, 127
1, 300470, Note_off_c, 7, 67, 127
1, 300477, Note_on_c, 0, 72, 127
1, 300620, Note_off_c, 7, 55, 127
1, 300621, Note_off_c, 0, 72, 127
1, 300628, Note_on_c, 7, 67, 127
1, 300628, Note_on_c, 7, 43, 127
1, 300628, Note_on_c, 12, 71, 127
1, 300849, Note_off_c, 12, 71, 127
1, 300855, Note_on_c, 0, 72, 127
1, 300924, Note_off_c, 7, 43, 127
1, 300924, Note_off_c, 7, 67, 127
1, 300927, Note_off_c, 0, 72, 127
1, 300953, Note_on_c, 0, 72, 127
1, 300953, Note_on_c, 3, 63, 127
1, 300953, Note_on_c, 0, 48, 127
1, 301231, Note_off_c, 0, 48, 127
1, 301232, Note_off_c, 3, 63, 127
1, 301251, Note_on_c, 0, 60, 127
1, 301390, Note_off_c, 0, 60, 127
1, 301391, Note_on_c, 2, 62, 127
1, 301508, Note_off_c, 0, 72, 127
1, 301530, Note_off_c, 2, 62, 127
1, 301531, Note_on_c, 3, 63, 127
1, 301671, Note_on_c, 7, 79, 127
1, 301810, Note_off_c, 7, 79, 127
1, 301810, Note_off_c, 3, 63, 127
1, 301811, Note_on_c, 10, 81, 127
1, 301811, Note_on_c, 7, 67, 127
1, 301950, Note_off_c, 10, 81, 127
1, 301951, Note_on_c, 12, 83, 127
1, 302090, Note_off_c, 12, 83, 127
1, 302090, Note_off_c, 7, 67, 127
1, 302091, Note_on_c, 0, 84, 127
1, 302091, Note_on_c, 3, 63, 127
1, 302230, Note_off_c, 0, 84, 127
1, 302231, Note_on_c, 7, 79, 127
1, 302370, Note_off_c, 7, 79, 127
1, 302370, Note_off_c, 3, 63, 127
1, 302371, Note_on_c, 3, 75, 127
1, 302371, Note_on_c, 0, 60, 127
1, 302510, Note_off_c, 3, 75, 127
1, 302511, Note_on_c, 7, 79, 127
1, 302650, Note_off_c, 7, 79, 127
1, 302651, Note_on_c, 0, 72, 127
1, 302780, Note_off_c, 0, 60, 127
1, 302792, Note_on_c, 7, 55, 127
1, 302931, Note_off_c, 7, 55, 127
1, 302931, Note_off_c, 0, 72, 127
1, 302932, Note_on_c, 7, 67, 127
1, 302932, Note_on_c, 10, 57, 127
1, 303071, Note_off_c, 10, 57, 127
1, 303072, Note_on_c, 12, 59, 127
1, 303211, Note_off_c, 12, 59, 127
1, 303211, Note_off_c, 7, 67, 127
1, 303212, Note_on_c, 3, 63, 127
1, 303212, Note_on_c, 0, 60, 127
1, 303351, Note_off_c, 0, 60, 127
1, 303352, Note_on_c, 7, 55, 127
1, 303491, Note_off_c, 7, 55, 127
1, 303491, Note_off_c, 3, 63, 127
1, 303492, Note_on_c, 0, 60, 127
1, 303492, Note_on_c, 3, 51, 127
1, 303631, Note_off_c, 3, 51, 127
1, 303631, Note_off_c, 0, 60, 127
1, 303632, Note_on_c, 2, 62, 127
1, 303632, Note_on_c, 7, 55, 127
1, 303771, Note_off_c, 7, 55, 127
1, 303771, Note_off_c, 2, 62, 127
1, 303772, Note_on_c, 3, 63, 127
1, 303772, Note_on_c, 0, 48, 127
1, 303911, Note_off_c, 0, 48, 127
1, 303912, Note_on_c, 7, 43, 127
1, 304051, Note_off_c, 7, 43, 127
1, 304051, Note_off_c, 3, 63, 127
1, 304052, Note_on_c, 7, 67, 127
1, 304052, Note_on_c, 10, 45, 127
1, 304191, Note_off_c, 10, 45, 127
1, 304192, Note_on_c, 12, 47, 127
1, 304331, Note_off_c, 12, 47, 127
1, 304331, Note_off_c, 7, 67, 127
1, 304332, Note_on_c, 3, 63, 127
1, 304332, Note_on_c, 0, 48, 127
1, 304471, Note_off_c, 0, 48, 127
1, 304472, Note_on_c, 7, 43, 127
1, 304611, Note_off_c, 7, 43, 127
1, 304611, Note_off_c, 3, 63, 127
1, 304612, Note_on_c, 0, 60, 127
1, 304612, Note_on_c, 3, 39, 127
1, 304751, Note_off_c, 3, 39, 127
1, 304752, Note_on_c, 7, 43, 127
1, 304891, Note_off_c, 7, 43, 127
1, 304892, Note_on_c, 0, 36, 127
1, 305021, Note_off_c, 0, 60, 127
1, 305031, Note_off_c, 0, 36, 127
1, 305032, Note_on_c, 3, 51, 127
1, 305171, Note_off_c, 3, 51, 127
1, 305172, Note_on_c, 7, 67, 127
1, 305172, Note_on_c, 2, 50, 127
1, 305311, Note_off_c, 2, 50, 127
1, 305312, Note_on_c, 0, 48, 127
1, 305451, Note_off_c, 0, 48, 127
1, 305451, Note_off_c, 7, 67, 127
1, 305452, Note_on_c, 8, 68, 127
1, 305452, Note_on_c, 5, 53, 127
1, 305591, Note_off_c, 5, 53, 127
1, 305592, Note_on_c, 8, 56, 127
1, 305731, Note_off_c, 8, 56, 127
1, 305731, Note_off_c, 8, 68, 127
1, 305732, Note_on_c, 0, 72, 127
1, 305732, Note_on_c, 5, 53, 127
1, 305732, Note_on_c, 8, 68, 127
1, 305871, Note_off_c, 5, 53, 127
1, 305872, Note_on_c, 0, 48, 127
1, 306011, Note_off_c, 0, 48, 127
1, 306011, Note_off_c, 0, 72, 127
1, 306012, Note_on_c, 5, 77, 127
1, 306012, Note_on_c, 2, 50, 127
1, 306151, Note_off_c, 2, 50, 127
1, 306151, Note_off_c, 8, 68, 127
1, 306152, Note_on_c, 11, 58, 127
1, 306152, Note_on_c, 7, 67, 127
1, 306291, Note_off_c, 7, 67, 127
1, 306291, Note_off_c, 11, 58, 127
1, 306292, Note_on_c, 5, 53, 127
1, 306292, Note_on_c, 8, 68, 127
1, 306431, Note_off_c, 8, 68, 127
1, 306431, Note_off_c, 5, 53, 127
1, 306432, Note_on_c, 2, 50, 127
1, 306432, Note_on_c, 5, 65, 127
1, 306571, Note_off_c, 5, 65, 127
1, 306571, Note_off_c, 2, 50, 127
1, 306572, Note_on_c, 3, 51, 127
1, 306572, Note_on_c, 7, 67, 127
1, 306711, Note_off_c, 3, 51, 127
1, 306711, Note_off_c, 5, 77, 127
1, 306712, Note_on_c, 11, 70, 127
1, 306712, Note_on_c, 7, 55, 127
1, 306851, Note_off_c, 7, 55, 127
1, 306851, Note_off_c, 11, 70, 127
1, 306851, Note_off_c, 7, 67, 127
1, 306852, Note_on_c, 0, 72, 127
1, 306852, Note_on_c, 3, 51, 127
1, 306852, Note_on_c, 7, 67, 127
1, 306991, Note_off_c, 3, 51, 127
1, 306991, Note_off_c, 0, 72, 127
1, 306992, Note_on_c, 2, 74, 127
1, 306992, Note_on_c, 12, 47, 127
1, 307131, Note_off_c, 12, 47, 127
1, 307131, Note_off_c, 2, 74, 127
1, 307132, Note_on_c, 3, 75, 127
1, 307132, Note_on_c, 0, 48, 127
1, 307271, Note_off_c, 0, 48, 127
1, 307271, Note_off_c, 7, 67, 127
1, 307272, Note_on_c, 8, 56, 127
1, 307272, Note_on_c, 5, 65, 127
1, 307411, Note_off_c, 5, 65, 127
1, 307411, Note_off_c, 8, 56, 127
1, 307412, Note_on_c, 3, 51, 127
1, 307412, Note_on_c, 7, 67, 127
1, 307551, Note_off_c, 7, 67, 127
1, 307551, Note_off_c, 3, 51, 127
1, 307552, Note_on_c, 0, 48, 127
1, 307552, Note_on_c, 3, 63, 127
1, 307691, Note_off_c, 3, 63, 127
1, 307691, Note_off_c, 0, 48, 127
1, 307692, Note_on_c, 2, 50, 127
1, 307692, Note_on_c, 5, 65, 127
1, 307831, Note_off_c, 2, 50, 127
1, 307832, Note_on_c, 5, 53, 127
1, 307971, Note_off_c, 5, 53, 127
1, 307971, Note_off_c, 5, 65, 127
1, 307971, Note_off_c, 3, 75, 127
1, 307972, Note_on_c, 10, 69, 127
1, 307972, Note_on_c, 2, 50, 127
1, 307972, Note_on_c, 5, 65, 127
1, 308111, Note_off_c, 2, 50, 127
1, 308112, Note_on_c, 10, 45, 127
1, 308251, Note_off_c, 10, 45, 127
1, 308251, Note_off_c, 10, 69, 127
1, 308252, Note_on_c, 2, 74, 127
1, 308252, Note_on_c, 12, 47, 127
1, 308391, Note_off_c, 12, 47, 127
1, 308391, Note_off_c, 5, 65, 127
1, 308392, Note_on_c, 7, 55, 127
1, 308392, Note_on_c, 3, 63, 127
1, 308531, Note_off_c, 3, 63, 127
1, 308531, Note_off_c, 7, 55, 127
1, 308532, Note_on_c, 2, 50, 127
1, 308532, Note_on_c, 5, 65, 127
1, 308671, Note_off_c, 5, 65, 127
1, 308671, Note_off_c, 2, 50, 127
1, 308672, Note_on_c, 12, 47, 127
1, 308672, Note_on_c, 2, 62, 127
1, 308811, Note_off_c, 2, 62, 127
1, 308811, Note_off_c, 12, 47, 127
1, 308812, Note_on_c, 0, 48, 127
1, 308812, Note_on_c, 3, 63, 127
1, 308951, Note_off_c, 3, 63, 127
1, 308952, Note_on_c, 2, 62, 127
1, 309091, Note_off_c, 2, 62, 127
1, 309092, Note_on_c, 0, 60, 127
1, 309231, Note_off_c, 0, 60, 127
1, 309232, Note_on_c, 2, 62, 127
1, 309371, Note_off_c, 2, 62, 127
1, 309371, Note_off_c, 2, 74, 127
1, 309372, Note_on_c, 0, 72, 127
1, 309372, Note_on_c, 3, 63, 127
1, 309511, Note_off_c, 3, 63, 127
1, 309511, Note_off_c, 0, 48, 127
1, 309512, Note_on_c, 2, 50, 127
1, 309512, Note_on_c, 5, 65, 127
1, 309651, Note_off_c, 5, 65, 127
1, 309651, Note_off_c, 2, 50, 127
1, 309652, Note_on_c, 3, 51, 127
1, 309652, Note_on_c, 7, 67, 127
1, 309791, Note_off_c, 7, 67, 127
1, 309791, Note_off_c, 3, 51, 127
1, 309792, Note_on_c, 0, 48, 127
1, 309792, Note_on_c, 3, 63, 127
1, 309931, Note_off_c, 3, 63, 127
1, 309931, Note_off_c, 0, 48, 127
1, 309932, Note_on_c, 5, 53, 127
1, 309932, Note_on_c, 8, 68, 127
1, 310071, Note_off_c, 8, 68, 127
1, 310071, Note_off_c, 0, 72, 127
1, 310072, Note_on_c, 2, 74, 127
1, 310072, Note_on_c, 12, 59, 127
1, 310211, Note_off_c, 12, 59, 127
1, 310211, Note_off_c, 2, 74, 127
1, 310212, Note_on_c, 3, 75, 127
1, 310212, Note_on_c, 0, 60, 127
1, 310351, Note_off_c, 0, 60, 127
1, 310351, Note_off_c, 3, 75, 127
1, 310352, Note_on_c, 5, 77, 127
1, 310352, Note_on_c, 2, 62, 127
1, 310491, Note_off_c, 5, 77, 127
1, 310491, Note_off_c, 5, 53, 127
1, 310492, Note_on_c, 0, 72, 127
1, 310492, Note_on_c, 7, 55, 127
1, 310559, Note_on_c, 12, 71, 127
1, 310562, Note_off_c, 0, 72, 127
1, 310626, Note_on_c, 0, 72, 127
1, 310629, Note_off_c, 12, 71, 127
1, 310630, Note_off_c, 2, 62, 127
1, 310631, Note_on_c, 3, 63, 127
1, 310692, Note_on_c, 12, 71, 127
1, 310695, Note_off_c, 0, 72, 127
1, 310770, Note_off_c, 3, 63, 127
1, 310771, Note_on_c, 2, 62, 127
1, 310897, Note_off_c, 12, 71, 127
1, 310910, Note_off_c, 2, 62, 127
1, 310911, Note_on_c, 0, 72, 127
1, 310911, Note_on_c, 0, 60, 127
1, 311050, Note_off_c, 0, 60, 127
1, 311050, Note_off_c, 0, 72, 127
1, 311050, Note_off_c, 7, 55, 127
1, 311051, Note_on_c, 0, 72, 127
1, 311051, Note_on_c, 8, 56, 127
1, 311051, Note_on_c, 0, 60, 127
1, 311190, Note_off_c, 0, 72, 127
1, 311191, Note_on_c, 11, 70, 127
1, 311330, Note_off_c, 11, 70, 127
1, 311331, Note_on_c, 8, 68, 127
1, 311470, Note_off_c, 8, 68, 127
1, 311471, Note_on_c, 7, 67, 127
1, 311610, Note_off_c, 7, 67, 127
1, 311611, Note_on_c, 5, 65, 127
1, 311750, Note_off_c, 8, 56, 127
1, 311751, Note_on_c, 3, 63, 127
1, 311890, Note_off_c, 3, 63, 127
1, 311890, Note_off_c, 0, 60, 127
1, 311891, Note_on_c, 2, 62, 127
1, 312030, Note_off_c, 2, 62, 127
1, 312031, Note_on_c, 0, 60, 127
1, 312166, Note_off_c, 5, 65, 127
1, 312170, Note_off_c, 0, 60, 127
1, 312171, Note_on_c, 2, 62, 127
1, 312311, Note_on_c, 3, 63, 127
1, 312450, Note_off_c, 3, 63, 127
1, 312451, Note_on_c, 5, 65, 127
1, 312590, Note_off_c, 5, 65, 127
1, 312591, Note_on_c, 7, 67, 127
1, 312726, Note_off_c, 2, 62, 127
1, 312730, Note_off_c, 7, 67, 127
1, 312731, Note_on_c, 5, 65, 127
1, 312871, Note_on_c, 3, 63, 127
1, 313010, Note_off_c, 3, 63, 127
1, 313011, Note_on_c, 2, 62, 127
1, 313150, Note_off_c, 2, 62, 127
1, 313151, Note_on_c, 0, 60, 127
1, 313290, Note_off_c, 0, 60, 127
1, 313291, Note_on_c, 12, 59, 127
1, 313291, Note_on_c, 2, 62, 127
1, 313430, Note_off_c, 5, 65, 127
1, 313431, Note_on_c, 8, 68, 127
1, 313569, Note_off_c, 2, 62, 127
1, 313569, Note_off_c, 12, 59, 127
1, 313570, Note_off_c, 8, 68, 127
1, 313571, Note_on_c, 2, 62, 127
1, 313710, Note_off_c, 2, 62, 127
1, 313711, Note_on_c, 5, 65, 127
1, 313850, Note_off_c, 5, 65, 127
1, 313851, Note_on_c, 12, 59, 127
1, 313990, Note_off_c, 12, 59, 127
1, 313991, Note_on_c, 2, 62, 127
1, 314130, Note_off_c, 2, 62, 127
1, 314131, Note_on_c, 8, 56, 127
1, 314270, Note_off_c, 8, 56, 127
1, 314271, Note_on_c, 12, 59, 127
1, 314410, Note_off_c, 12, 59, 127
1, 314411, Note_on_c, 5, 53, 127
1, 314550, Note_off_c, 5, 53, 127
1, 314551, Note_on_c, 8, 56, 127
1, 314690, Note_off_c, 8, 56, 127
1, 314691, Note_on_c, 2, 50, 127
1, 314830, Note_off_c, 2, 50, 127
1, 314831, Note_on_c, 5, 53, 127
1, 314970, Note_off_c, 5, 53, 127
1, 314971, Note_on_c, 12, 47, 127
1, 315110, Note_off_c, 12, 47, 127
1, 315111, Note_on_c, 2, 50, 127
1, 315250, Note_off_c, 2, 50, 127
1, 315251, Note_on_c, 12, 71, 127
1, 315251, Note_on_c, 7, 43, 127
1, 315251, Note_on_c, 2, 62, 127
1, 315390, Note_off_c, 7, 43, 127
1, 315391, Note_on_c, 12, 47, 127
1, 315530, Note_off_c, 12, 47, 127
1, 315530, Note_off_c, 2, 62, 127
1, 315530, Note_off_c, 12, 71, 127
1, 315531, Note_on_c, 0, 72, 127
1, 315531, Note_on_c, 3, 39, 127
1, 315531, Note_on_c, 7, 67, 127
1, 315670, Note_off_c, 0, 72, 127
1, 315671, Note_on_c, 2, 74, 127
1, 315740, Note_off_c, 2, 74, 127
1, 315741, Note_on_c, 3, 75, 127
1, 315810, Note_off_c, 3, 75, 127
1, 315810, Note_off_c, 3, 39, 127
1, 315811, Note_on_c, 10, 69, 127
1, 315811, Note_on_c, 5, 41, 127
1, 315950, Note_off_c, 10, 69, 127
1, 315951, Note_on_c, 12, 71, 127
1, 316020, Note_off_c, 12, 71, 127
1, 316021, Note_on_c, 0, 72, 127
1, 316090, Note_off_c, 0, 72, 127
1, 316090, Note_off_c, 5, 41, 127
1, 316091, Note_on_c, 12, 71, 127
1, 316091, Note_on_c, 7, 43, 127
1, 316230, Note_off_c, 7, 67, 127
1, 316231, Note_on_c, 5, 65, 127
1, 316370, Note_off_c, 5, 65, 127
1, 316370, Note_off_c, 7, 43, 127
1, 316371, Note_on_c, 7, 43, 127
1, 316371, Note_on_c, 7, 67, 127
1, 316510, Note_off_c, 7, 67, 127
1, 316510, Note_off_c, 12, 71, 127
1, 316511, Note_on_c, 12, 71, 127
1, 316511, Note_on_c, 2, 62, 127
1, 316650, Note_off_c, 2, 62, 127
1, 316650, Note_off_c, 12, 71, 127
1, 316650, Note_off_c, 7, 43, 127
1, 316651, Note_on_c, 0, 72, 127
1, 316651, Note_on_c, 0, 48, 127
1, 316651, Note_on_c, 3, 63, 127
1, 316931, Note_off_c, 0, 48, 127
1, 316932, Note_on_c, 0, 36, 127
1, 317071, Note_off_c, 0, 36, 127
1, 317072, Note_on_c, 2, 38, 127
1, 317207, Note_off_c, 3, 63, 127
1, 317207, Note_off_c, 0, 72, 127
1, 317211, Note_off_c, 2, 38, 127
1, 317212, Note_on_c, 3, 39, 127
1, 317352, Note_on_c, 7, 55, 127
1, 317491, Note_off_c, 7, 55, 127
1, 317491, Note_off_c, 3, 39, 127
1, 317492, Note_on_c, 10, 57, 127
1, 317492, Note_on_c, 7, 43, 127
1, 317631, Note_off_c, 10, 57, 127
1, 317632, Note_on_c, 12, 59, 127
1, 317771, Note_off_c, 12, 59, 127
1, 317771, Note_off_c, 7, 43, 127
1, 317772, Note_on_c, 0, 60, 127
1, 317772, Note_on_c, 3, 39, 127
1, 317911, Note_off_c, 0, 60, 127
1, 317912, Note_on_c, 7, 55, 127
1, 318051, Note_off_c, 7, 55, 127
1, 318051, Note_off_c, 3, 39, 127
1, 318052, Note_on_c, 3, 51, 127
1, 318052, Note_on_c, 0, 36, 127
1, 318191, Note_off_c, 3, 51, 127
1, 318192, Note_on_c, 7, 55, 127
1, 318331, Note_off_c, 7, 55, 127
1, 318332, Note_on_c, 0, 48, 127
1, 318461, Note_off_c, 0, 36, 127
1, 318471, Note_off_c, 0, 48, 127
1, 318472, Note_on_c, 7, 67, 127
1, 318611, Note_off_c, 7, 67, 127
1, 318612, Note_on_c, 10, 69, 127
1, 318612, Note_on_c, 7, 55, 127
1, 318751, Note_off_c, 10, 69, 127
1, 318752, Note_on_c, 12, 71, 127
1, 318891, Note_off_c, 12, 71, 127
1, 318891, Note_off_c, 7, 55, 127
1, 318892, Note_on_c, 0, 72, 127
1, 318892, Note_on_c, 3, 51, 127
1, 319031, Note_off_c, 0, 72, 127
1, 319032, Note_on_c, 7, 67, 127
1, 319171, Note_off_c, 7, 67, 127
1, 319171, Note_off_c, 3, 51, 127
1, 319172, Note_on_c, 3, 63, 127
1, 319172, Note_on_c, 0, 48, 127
1, 319311, Note_off_c, 0, 48, 127
1, 319311, Note_off_c, 3, 63, 127
1, 319312, Note_on_c, 7, 67, 127
1, 319312, Note_on_c, 2, 50, 127
1, 319451, Note_off_c, 2, 50, 127
1, 319451, Note_off_c, 7, 67, 127
1, 319452, Note_on_c, 0, 60, 127
1, 319452, Note_on_c, 3, 51, 127
1, 319591, Note_off_c, 0, 60, 127
1, 319592, Note_on_c, 7, 79, 127
1, 319731, Note_off_c, 7, 79, 127
1, 319731, Note_off_c, 3, 51, 127
1, 319732, Note_on_c, 10, 81, 127
1, 319732, Note_on_c, 7, 55, 127
1, 319871, Note_off_c, 10, 81, 127
1, 319872, Note_on_c, 12, 83, 127
1, 320011, Note_off_c, 12, 83, 127
1, 320011, Note_off_c, 7, 55, 127
1, 320012, Note_on_c, 0, 84, 127
1, 320012, Note_on_c, 3, 51, 127
1, 320151, Note_off_c, 0, 84, 127
1, 320152, Note_on_c, 7, 79, 127
1, 320291, Note_off_c, 7, 79, 127
1, 320291, Note_off_c, 3, 51, 127
1, 320292, Note_on_c, 3, 75, 127
1, 320292, Note_on_c, 0, 48, 127
1, 320431, Note_off_c, 3, 75, 127
1, 320432, Note_on_c, 7, 79, 127
1, 320571, Note_off_c, 7, 79, 127
1, 320572, Note_on_c, 0, 72, 127
1, 320701, Note_off_c, 0, 48, 127
1, 320711, Note_off_c, 0, 72, 127
1, 320712, Note_on_c, 3, 75, 127
1, 320851, Note_off_c, 3, 75, 127
1, 320852, Note_on_c, 2, 74, 127
1, 320852, Note_on_c, 7, 55, 127
1, 320991, Note_off_c, 2, 74, 127
1, 320992, Note_on_c, 0, 72, 127
1, 321131, Note_off_c, 0, 72, 127
1, 321131, Note_off_c, 7, 55, 127
1, 321132, Note_on_c, 5, 77, 127
1, 321132, Note_on_c, 8, 56, 127
1, 321271, Note_off_c, 5, 77, 127
1, 321272, Note_on_c, 8, 80, 127
1, 321411, Note_off_c, 8, 80, 127
1, 321411, Note_off_c, 8, 56, 127
1, 321412, Note_on_c, 5, 77, 127
1, 321412, Note_on_c, 8, 56, 127
1, 321551, Note_off_c, 5, 77, 127
1, 321552, Note_on_c, 0, 72, 127
1, 321691, Note_off_c, 0, 72, 127
1, 321692, Note_on_c, 2, 74, 127
1, 321831, Note_off_c, 2, 74, 127
1, 321831, Note_off_c, 8, 56, 127
1, 321832, Note_on_c, 11, 82, 127
1, 321832, Note_on_c, 7, 55, 127
1, 321971, Note_off_c, 7, 55, 127
1, 321971, Note_off_c, 11, 82, 127
1, 321972, Note_on_c, 5, 77, 127
1, 321972, Note_on_c, 8, 56, 127
1, 322111, Note_off_c, 8, 56, 127
1, 322111, Note_off_c, 5, 77, 127
1, 322112, Note_on_c, 2, 74, 127
1, 322112, Note_on_c, 5, 53, 127
1, 322251, Note_off_c, 5, 53, 127
1, 322251, Note_off_c, 2, 74, 127
1, 322252, Note_on_c, 3, 75, 127
1, 322252, Note_on_c, 7, 55, 127
1, 322391, Note_off_c, 3, 75, 127
1, 322392, Note_on_c, 7, 79, 127
1, 322531, Note_off_c, 7, 79, 127
1, 322531, Note_off_c, 7, 55, 127
1, 322532, Note_on_c, 3, 75, 127
1, 322532, Note_on_c, 7, 55, 127
1, 322671, Note_off_c, 3, 75, 127
1, 322672, Note_on_c, 12, 71, 127
1, 322811, Note_off_c, 12, 71, 127
1, 322812, Note_on_c, 0, 72, 127
1, 322951, Note_off_c, 0, 72, 127
1, 322951, Note_off_c, 7, 55, 127
1, 322952, Note_on_c, 8, 80, 127
1, 322952, Note_on_c, 5, 53, 127
1, 323091, Note_off_c, 5, 53, 127
1, 323091, Note_off_c, 8, 80, 127
1, 323092, Note_on_c, 3, 75, 127
1, 323092, Note_on_c, 7, 55, 127
1, 323231, Note_off_c, 7, 55, 127
1, 323231, Note_off_c, 3, 75, 127
1, 323232, Note_on_c, 0, 72, 127
1, 323232, Note_on_c, 3, 51, 127
1, 323371, Note_off_c, 3, 51, 127
1, 323371, Note_off_c, 0, 72, 127
1, 323372, Note_on_c, 2, 74, 127
1, 323372, Note_on_c, 5, 53, 127
1, 323511, Note_off_c, 2, 74, 127
1, 323512, Note_on_c, 5, 77, 127
1, 323651, Note_off_c, 5, 77, 127
1, 323651, Note_off_c, 5, 53, 127
1, 323652, Note_on_c, 2, 74, 127
1, 323652, Note_on_c, 5, 53, 127
1, 323791, Note_off_c, 2, 74, 127
1, 323792, Note_on_c, 10, 69, 127
1, 323931, Note_off_c, 10, 69, 127
1, 323932, Note_on_c, 12, 71, 127
1, 324071, Note_off_c, 12, 71, 127
1, 324071, Note_off_c, 5, 53, 127
1, 324072, Note_on_c, 7, 79, 127
1, 324072, Note_on_c, 3, 51, 127
1, 324211, Note_off_c, 3, 51, 127
1, 324211, Note_off_c, 7, 79, 127
1, 324212, Note_on_c, 2, 74, 127
1, 324212, Note_on_c, 5, 53, 127
1, 324351, Note_off_c, 5, 53, 127
1, 324351, Note_off_c, 2, 74, 127
1, 324352, Note_on_c, 12, 71, 127
1, 324352, Note_on_c, 2, 50, 127
1, 324491, Note_off_c, 2, 50, 127
1, 324491, Note_off_c, 12, 71, 127
1, 324492, Note_on_c, 0, 72, 127
1, 324492, Note_on_c, 3, 51, 127
1, 324631, Note_off_c, 3, 51, 127
1, 324632, Note_on_c, 2, 50, 127
1, 324771, Note_off_c, 2, 50, 127
1, 324772, Note_on_c, 0, 48, 127
1, 324911, Note_off_c, 0, 48, 127
1, 324912, Note_on_c, 2, 50, 127
1, 325051, Note_off_c, 2, 50, 127
1, 325052, Note_on_c, 3, 51, 127
1, 325191, Note_off_c, 3, 51, 127
1, 325192, Note_on_c, 5, 53, 127
1, 325331, Note_off_c, 5, 53, 127
1, 325332, Note_on_c, 7, 55, 127
1, 325471, Note_off_c, 7, 55, 127
1, 325472, Note_on_c, 3, 51, 127
1, 325611, Note_off_c, 3, 51, 127
1, 325611, Note_off_c, 0, 72, 127
1, 325612, Note_on_c, 8, 56, 127
1, 325751, Note_off_c, 8, 56, 127
1, 325752, Note_on_c, 2, 74, 127
1, 325752, Note_on_c, 12, 47, 127
1, 325891, Note_off_c, 12, 47, 127
1, 325891, Note_off_c, 2, 74, 127
1, 325892, Note_on_c, 3, 75, 127
1, 325892, Note_on_c, 0, 48, 127
1, 326031, Note_off_c, 0, 48, 127
1, 326031, Note_off_c, 3, 75, 127
1, 326032, Note_on_c, 5, 77, 127
1, 326032, Note_on_c, 2, 50, 127
1, 326171, Note_off_c, 2, 50, 127
1, 326171, Note_off_c, 5, 77, 127
1, 326172, Note_on_c, 12, 71, 127
1, 326172, Note_on_c, 7, 43, 127
1, 326311, Note_off_c, 7, 43, 127
1, 326311, Note_off_c, 12, 71, 127
1, 326312, Note_on_c, 8, 68, 127
1, 326312, Note_on_c, 5, 53, 127
1, 326451, Note_off_c, 5, 53, 127
1, 326451, Note_off_c, 8, 68, 127
1, 326452, Note_on_c, 7, 67, 127
1, 326452, Note_on_c, 3, 51, 127
1, 326591, Note_off_c, 3, 51, 127
1, 326591, Note_off_c, 7, 67, 127
1, 326592, Note_on_c, 5, 65, 127
1, 326592, Note_on_c, 2, 50, 127
1, 326731, Note_off_c, 2, 50, 127
1, 326731, Note_off_c, 5, 65, 127
1, 326732, Note_on_c, 0, 48, 127
1, 326732, Note_on_c, 3, 63, 127
1, 326872, Note_off_c, 3, 63, 127
1, 326876, Note_on_c, 7, 67, 127
1, 327016, Note_off_c, 7, 67, 127
1, 327019, Note_on_c, 0, 72, 127
1, 327158, Note_off_c, 0, 48, 127
1, 327164, Note_on_c, 2, 50, 127
1, 327304, Note_off_c, 2, 50, 127
1, 327308, Note_on_c, 4, 52, 127
1, 327446, Note_off_c, 0, 72, 127
1, 327449, Note_off_c, 4, 52, 127
1, 327453, Note_on_c, 7, 55, 127
1, 327453, Note_on_c, 11, 70, 127
1, 327593, Note_off_c, 11, 70, 127
1, 327593, Note_off_c, 7, 55, 127
1, 327597, Note_on_c, 0, 48, 127
1, 327597, Note_on_c, 8, 68, 127
1, 327737, Note_off_c, 8, 68, 127
1, 327737, Note_off_c, 0, 48, 127
1, 327741, Note_on_c, 4, 52, 127
1, 327741, Note_on_c, 11, 70, 127
1, 327810, Note_off_c, 11, 70, 127
1, 327813, Note_on_c, 7, 67, 127
1, 327882, Note_off_c, 7, 67, 127
1, 327882, Note_off_c, 4, 52, 127
1, 327886, Note_on_c, 5, 53, 127
1, 327886, Note_on_c, 8, 68, 127
1, 328026, Note_off_c, 8, 68, 127
1, 328030, Note_on_c, 0, 60, 127
1, 328170, Note_off_c, 0, 60, 127
1, 328173, Note_on_c, 5, 65, 127
1, 328312, Note_off_c, 5, 53, 127
1, 328318, Note_on_c, 7, 55, 127
1, 328458, Note_off_c, 7, 55, 127
1, 328462, Note_on_c, 8, 56, 127
1, 328600, Note_off_c, 5, 65, 127
1, 328603, Note_off_c, 8, 56, 127
1, 328607, Note_on_c, 0, 60, 127
1, 328607, Note_on_c, 3, 63, 127
1, 328747, Note_off_c, 3, 63, 127
1, 328747, Note_off_c, 0, 60, 127
1, 328751, Note_on_c, 5, 53, 127
1, 328751, Note_on_c, 2, 62, 127
1, 328891, Note_off_c, 2, 62, 127
1, 328891, Note_off_c, 5, 53, 127
1, 328895, Note_on_c, 8, 56, 127
1, 328895, Note_on_c, 3, 63, 127
1, 328964, Note_off_c, 3, 63, 127
1, 328967, Note_on_c, 0, 60, 127
1, 329036, Note_off_c, 0, 60, 127
1, 329036, Note_off_c, 8, 56, 127
1, 329040, Note_on_c, 7, 55, 127
1, 329040, Note_on_c, 12, 59, 127
1, 329180, Note_off_c, 12, 59, 127
1, 329184, Note_on_c, 2, 62, 127
1, 329324, Note_off_c, 2, 62, 127
1, 329328, Note_on_c, 7, 67, 127
1, 329466, Note_off_c, 7, 55, 127
1, 329472, Note_on_c, 10, 57, 127
1, 329612, Note_off_c, 10, 57, 127
1, 329616, Note_on_c, 12, 59, 127
1, 329755, Note_off_c, 7, 67, 127
1, 329756, Note_off_c, 12, 59, 127
1, 329760, Note_on_c, 2, 62, 127
1, 329760, Note_on_c, 5, 65, 127
1, 329900, Note_off_c, 5, 65, 127
1, 329900, Note_off_c, 2, 62, 127
1, 329904, Note_on_c, 7, 55, 127
1, 329904, Note_on_c, 3, 63, 127
1, 330044, Note_off_c, 3, 63, 127
1, 330044, Note_off_c, 7, 55, 127
1, 330048, Note_on_c, 12, 59, 127
1, 330048, Note_on_c, 5, 65, 127
1, 330117, Note_off_c, 5, 65, 127
1, 330120, Note_on_c, 2, 62, 127
1, 330189, Note_off_c, 2, 62, 127
1, 330189, Note_off_c, 12, 59, 127
1, 330193, Note_on_c, 0, 60, 127
1, 330193, Note_on_c, 3, 63, 127
1, 330333, Note_off_c, 3, 63, 127
1, 330337, Note_on_c, 7, 67, 127
1, 330476, Note_off_c, 0, 60, 127
1, 330477, Note_off_c, 7, 67, 127
1, 330481, Note_on_c, 5, 53, 127
1, 330481, Note_on_c, 8, 68, 127
1, 330621, Note_off_c, 5, 53, 127
1, 330624, Note_on_c, 8, 56, 127
1, 330764, Note_off_c, 8, 56, 127
1, 330768, Note_on_c, 0, 60, 127
1, 330907, Note_off_c, 8, 68, 127
1, 330908, Note_off_c, 0, 60, 127
1, 330912, Note_on_c, 3, 63, 127
1, 330912, Note_on_c, 7, 67, 127
1, 331052, Note_off_c, 7, 67, 127
1, 331052, Note_off_c, 3, 63, 127
1, 331056, Note_on_c, 8, 56, 127
1, 331056, Note_on_c, 5, 65, 127
1, 331196, Note_off_c, 5, 65, 127
1, 331196, Note_off_c, 8, 56, 127
1, 331200, Note_on_c, 0, 60, 127
1, 331200, Note_on_c, 7, 67, 127
1, 331269, Note_off_c, 7, 67, 127
1, 331272, Note_on_c, 3, 63, 127
1, 331341, Note_off_c, 3, 63, 127
1, 331341, Note_off_c, 0, 60, 127
1, 331345, Note_on_c, 11, 58, 127
1, 331345, Note_on_c, 2, 62, 127
1, 331485, Note_off_c, 2, 62, 127
1, 331489, Note_on_c, 5, 65, 127
1, 331629, Note_off_c, 5, 65, 127
1, 331633, Note_on_c, 11, 70, 127
1, 331771, Note_off_c, 11, 58, 127
1, 331777, Note_on_c, 0, 60, 127
1, 331917, Note_off_c, 0, 60, 127
1, 331921, Note_on_c, 2, 62, 127
1, 332060, Note_off_c, 11, 70, 127
1, 332061, Note_off_c, 2, 62, 127
1, 332065, Note_on_c, 5, 65, 127
1, 332065, Note_on_c, 8, 68, 127
1, 332205, Note_off_c, 8, 68, 127
1, 332205, Note_off_c, 5, 65, 127
1, 332209, Note_on_c, 11, 58, 127
1, 332209, Note_on_c, 7, 67, 127
1, 332349, Note_off_c, 7, 67, 127
1, 332349, Note_off_c, 11, 58, 127
1, 332353, Note_on_c, 2, 62, 127
1, 332353, Note_on_c, 8, 68, 127
1, 332422, Note_off_c, 8, 68, 127
1, 332425, Note_on_c, 5, 65, 127
1, 332494, Note_off_c, 5, 65, 127
1, 332494, Note_off_c, 2, 62, 127
1, 332498, Note_on_c, 0, 60, 127
1, 332498, Note_on_c, 4, 64, 127
1, 332638, Note_off_c, 4, 64, 127
1, 332642, Note_on_c, 7, 67, 127
1, 332782, Note_off_c, 7, 67, 127
1, 332786, Note_on_c, 0, 72, 127
1, 332924, Note_off_c, 0, 60, 127
1, 332931, Note_on_c, 2, 62, 127
1, 333071, Note_off_c, 2, 62, 127
1, 333074, Note_on_c, 4, 64, 127
1, 333213, Note_off_c, 0, 72, 127
1, 333214, Note_off_c, 4, 64, 127
1, 333218, Note_on_c, 7, 67, 127
1, 333218, Note_on_c, 11, 70, 127
1, 333358, Note_off_c, 11, 70, 127
1, 333358, Note_off_c, 7, 67, 127
1, 333362, Note_on_c, 0, 60, 127
1, 333362, Note_on_c, 8, 68, 127
1, 333502, Note_off_c, 8, 68, 127
1, 333502, Note_off_c, 0, 60, 127
1, 333506, Note_on_c, 4, 64, 127
1, 333506, Note_on_c, 11, 70, 127
1, 333575, Note_off_c, 11, 70, 127
1, 333578, Note_on_c, 7, 67, 127
1, 333647, Note_off_c, 7, 67, 127
1, 333647, Note_off_c, 4, 64, 127
1, 333651, Note_on_c, 5, 65, 127
1, 333651, Note_on_c, 8, 68, 127
1, 333791, Note_off_c, 8, 68, 127
1, 333795, Note_on_c, 0, 72, 127
1, 333934, Note_off_c, 5, 65, 127
1, 333935, Note_off_c, 0, 72, 127
1, 333939, Note_on_c, 5, 53, 127
1, 333939, Note_on_c, 5, 77, 127
1, 334079, Note_off_c, 5, 53, 127
1, 334083, Note_on_c, 7, 55, 127
1, 334223, Note_off_c, 7, 55, 127
1, 334226, Note_on_c, 8, 56, 127
1, 334365, Note_off_c, 5, 77, 127
1, 334366, Note_off_c, 8, 56, 127
1, 334370, Note_on_c, 0, 60, 127
1, 334370, Note_on_c, 3, 75, 127
1, 334510, Note_off_c, 3, 75, 127
1, 334510, Note_off_c, 0, 60, 127
1, 334514, Note_on_c, 5, 53, 127
1, 334514, Note_on_c, 2, 74, 127
1, 334654, Note_off_c, 2, 74, 127
1, 334654, Note_off_c, 5, 53, 127
1, 334658, Note_on_c, 8, 56, 127
1, 334658, Note_on_c, 3, 75, 127
1, 334727, Note_off_c, 3, 75, 127
1, 334731, Note_on_c, 0, 72, 127
1, 334798, Note_off_c, 8, 56, 127
1, 334799, Note_off_c, 0, 72, 127
1, 334802, Note_on_c, 7, 55, 127
1, 334802, Note_on_c, 12, 71, 127
1, 334942, Note_off_c, 12, 71, 127
1, 334946, Note_on_c, 7, 67, 127
1, 335085, Note_off_c, 7, 55, 127
1, 335086, Note_off_c, 7, 67, 127
1, 335090, Note_on_c, 3, 51, 127
1, 335090, Note_on_c, 3, 75, 127
1, 335230, Note_off_c, 3, 51, 127
1, 335234, Note_on_c, 5, 53, 127
1, 335374, Note_off_c, 5, 53, 127
1, 335377, Note_on_c, 7, 55, 127
1, 335516, Note_off_c, 3, 75, 127
1, 335517, Note_off_c, 7, 55, 127
1, 335521, Note_on_c, 11, 58, 127
1, 335521, Note_on_c, 2, 74, 127
1, 335661, Note_off_c, 2, 74, 127
1, 335661, Note_off_c, 11, 58, 127
1, 335665, Note_on_c, 3, 51, 127
1, 335665, Note_on_c, 0, 72, 127
1, 335805, Note_off_c, 0, 72, 127
1, 335805, Note_off_c, 3, 51, 127
1, 335809, Note_on_c, 7, 55, 127
1, 335809, Note_on_c, 2, 74, 127
1, 335878, Note_off_c, 2, 74, 127
1, 335882, Note_on_c, 11, 70, 127
1, 335949, Note_off_c, 7, 55, 127
1, 335950, Note_off_c, 11, 70, 127
1, 335953, Note_on_c, 5, 53, 127
1, 335953, Note_on_c, 8, 68, 127
1, 336093, Note_off_c, 8, 68, 127
1, 336097, Note_on_c, 5, 65, 127
1, 336235, Note_off_c, 5, 53, 127
1, 336238, Note_off_c, 5, 65, 127
1, 336242, Note_on_c, 11, 46, 127
1, 336242, Note_on_c, 2, 74, 127
1, 336382, Note_off_c, 11, 46, 127
1, 336386, Note_on_c, 2, 50, 127
1, 336526, Note_off_c, 2, 50, 127
1, 336530, Note_on_c, 5, 53, 127
1, 336668, Note_off_c, 2, 74, 127
1, 336671, Note_off_c, 5, 53, 127
1, 336674, Note_on_c, 8, 56, 127
1, 336674, Note_on_c, 0, 72, 127
1, 336814, Note_off_c, 0, 72, 127
1, 336814, Note_off_c, 8, 56, 127
1, 336818, Note_on_c, 2, 50, 127
1, 336818, Note_on_c, 11, 70, 127
1, 336958, Note_off_c, 11, 70, 127
1, 336958, Note_off_c, 2, 50, 127
1, 336962, Note_on_c, 5, 53, 127
1, 336962, Note_on_c, 0, 72, 127
1, 337031, Note_off_c, 0, 72, 127
1, 337035, Note_on_c, 8, 68, 127
1, 337102, Note_off_c, 5, 53, 127
1, 337103, Note_off_c, 8, 68, 127
1, 337106, Note_on_c, 3, 51, 127
1, 337106, Note_on_c, 7, 67, 127
1, 337246, Note_off_c, 7, 67, 127
1, 337250, Note_on_c, 8, 68, 127
1, 337319, Note_off_c, 8, 68, 127
1, 337322, Note_on_c, 11, 70, 127
1, 337389, Note_off_c, 3, 51, 127
1, 337390, Note_off_c, 11, 70, 127
1, 337394, Note_on_c, 7, 55, 127
1, 337394, Note_on_c, 3, 63, 127
1, 337534, Note_off_c, 3, 63, 127
1, 337538, Note_on_c, 5, 65, 127
1, 337677, Note_off_c, 7, 55, 127
1, 337678, Note_off_c, 5, 65, 127
1, 337682, Note_on_c, 2, 50, 127
1, 337682, Note_on_c, 7, 67, 127
1, 337822, Note_off_c, 7, 67, 127
1, 337825, Note_on_c, 11, 70, 127
1, 337965, Note_off_c, 11, 70, 127
1, 337965, Note_off_c, 2, 50, 127
1, 337969, Note_on_c, 7, 55, 127
1, 337969, Note_on_c, 3, 63, 127
1, 338109, Note_off_c, 3, 63, 127
1, 338113, Note_on_c, 5, 65, 127
1, 338252, Note_off_c, 7, 55, 127
1, 338253, Note_off_c, 5, 65, 127
1, 338257, Note_on_c, 0, 48, 127
1, 338257, Note_on_c, 7, 67, 127
1, 338397, Note_off_c, 7, 67, 127
1, 338401, Note_on_c, 8, 68, 127
1, 338470, Note_off_c, 8, 68, 127
1, 338473, Note_on_c, 11, 70, 127
1, 338540, Note_off_c, 0, 48, 127
1, 338541, Note_off_c, 11, 70, 127
1, 338545, Note_on_c, 7, 55, 127
1, 338545, Note_on_c, 3, 63, 127
1, 338685, Note_off_c, 3, 63, 127
1, 338689, Note_on_c, 5, 65, 127
1, 338828, Note_off_c, 7, 55, 127
1, 338829, Note_off_c, 5, 65, 127
1, 338833, Note_on_c, 11, 46, 127
1, 338833, Note_on_c, 7, 67, 127
1, 338973, Note_off_c, 7, 67, 127
1, 338976, Note_on_c, 11, 70, 127
1, 339116, Note_off_c, 11, 70, 127
1, 339116, Note_off_c, 11, 46, 127
1, 339120, Note_on_c, 7, 55, 127
1, 339120, Note_on_c, 3, 63, 127
1, 339260, Note_off_c, 3, 63, 127
1, 339264, Note_on_c, 5, 65, 127
1, 339403, Note_off_c, 7, 55, 127
1, 339404, Note_off_c, 5, 65, 127
1, 339408, Note_on_c, 8, 44, 127
1, 339408, Note_on_c, 7, 67, 127
1, 339548, Note_off_c, 7, 67, 127
1, 339552, Note_on_c, 8, 68, 127
1, 339621, Note_off_c, 8, 68, 127
1, 339624, Note_on_c, 11, 70, 127
1, 339691, Note_off_c, 8, 44, 127
1, 339692, Note_off_c, 11, 70, 127
1, 339696, Note_on_c, 7, 55, 127
1, 339696, Note_on_c, 3, 63, 127
1, 339836, Note_off_c, 3, 63, 127
1, 339840, Note_on_c, 5, 65, 127
1, 339979, Note_off_c, 7, 55, 127
1, 339980, Note_off_c, 5, 65, 127
1, 339984, Note_on_c, 11, 46, 127
1, 339984, Note_on_c, 7, 67, 127
1, 340124, Note_off_c, 7, 67, 127
1, 340128, Note_on_c, 11, 70, 127
1, 340197, Note_off_c, 11, 70, 127
1, 340200, Note_on_c, 3, 75, 127
1, 340267, Note_off_c, 11, 46, 127
1, 340268, Note_off_c, 3, 75, 127
1, 340271, Note_on_c, 5, 53, 127
1, 340271, Note_on_c, 8, 68, 127
1, 340411, Note_off_c, 8, 68, 127
1, 340415, Note_on_c, 2, 74, 127
1, 340554, Note_off_c, 5, 53, 127
1, 340555, Note_off_c, 2, 74, 127
1, 340559, Note_on_c, 3, 51, 127
1, 340559, Note_on_c, 7, 67, 127
1, 340699, Note_off_c, 7, 67, 127
1, 340703, Note_on_c, 11, 70, 127
1, 340772, Note_off_c, 11, 70, 127
1, 340775, Note_on_c, 3, 75, 127
1, 340842, Note_off_c, 3, 51, 127
1, 340843, Note_off_c, 3, 75, 127
1, 340847, Note_on_c, 3, 39, 127
1, 340847, Note_on_c, 3, 63, 127
1, 340987, Note_off_c, 3, 39, 127
1, 340991, Note_on_c, 3, 51, 127
1, 341131, Note_off_c, 3, 51, 127
1, 341135, Note_on_c, 2, 50, 127
1, 341262, Note_off_c, 3, 63, 127
1, 341275, Note_off_c, 2, 50, 127
1, 341275, Note_on_c, 3, 51, 127
1, 341344, Note_off_c, 3, 51, 127
1, 341345, Note_on_c, 7, 55, 127
1, 341414, Note_off_c, 7, 55, 127
1, 341415, Note_on_c, 11, 46, 127
1, 341415, Note_on_c, 11, 82, 127
1, 341554, Note_off_c, 11, 46, 127
1, 341555, Note_on_c, 2, 50, 127
1, 341694, Note_off_c, 2, 50, 127
1, 341694, Note_off_c, 11, 82, 127
1, 341695, Note_on_c, 3, 51, 127
1, 341695, Note_on_c, 7, 79, 127
1, 341975, Note_off_c, 7, 79, 127
1, 341975, Note_off_c, 3, 51, 127
1, 341976, Note_on_c, 3, 39, 127
1, 341976, Note_on_c, 3, 75, 127
1, 342115, Note_off_c, 3, 75, 127
1, 342116, Note_on_c, 5, 77, 127
1, 342255, Note_off_c, 5, 77, 127
1, 342256, Note_on_c, 7, 79, 127
1, 342395, Note_off_c, 3, 39, 127
1, 342396, Note_on_c, 11, 58, 127
1, 342535, Note_off_c, 11, 58, 127
1, 342535, Note_off_c, 7, 79, 127
1, 342536, Note_on_c, 0, 60, 127
1, 342536, Note_on_c, 11, 82, 127
1, 342675, Note_off_c, 0, 60, 127
1, 342676, Note_on_c, 2, 62, 127
1, 342815, Note_off_c, 2, 62, 127
1, 342815, Note_off_c, 11, 82, 127
1, 342816, Note_on_c, 3, 63, 127
1, 342816, Note_on_c, 7, 79, 127
1, 342955, Note_off_c, 3, 63, 127
1, 342956, Note_on_c, 11, 58, 127
1, 343095, Note_off_c, 11, 58, 127
1, 343095, Note_off_c, 7, 79, 127
1, 343096, Note_on_c, 7, 55, 127
1, 343096, Note_on_c, 3, 75, 127
1, 343235, Note_off_c, 7, 55, 127
1, 343236, Note_on_c, 11, 58, 127
1, 343375, Note_off_c, 11, 58, 127
1, 343376, Note_on_c, 3, 51, 127
1, 343505, Note_off_c, 3, 75, 127
1, 343515, Note_off_c, 3, 51, 127
1, 343516, Note_on_c, 11, 58, 127
1, 343655, Note_off_c, 11, 58, 127
1, 343656, Note_on_c, 0, 60, 127
1, 343656, Note_on_c, 11, 82, 127
1, 343795, Note_off_c, 0, 60, 127
1, 343796, Note_on_c, 2, 62, 127
1, 343935, Note_off_c, 2, 62, 127
1, 343935, Note_off_c, 11, 82, 127
1, 343936, Note_on_c, 3, 63, 127
1, 343936, Note_on_c, 7, 79, 127
1, 344075, Note_off_c, 3, 63, 127
1, 344076, Note_on_c, 11, 58, 127
1, 344215, Note_off_c, 11, 58, 127
1, 344215, Note_off_c, 7, 79, 127
1, 344216, Note_on_c, 7, 55, 127
1, 344216, Note_on_c, 3, 75, 127
1, 344355, Note_off_c, 3, 75, 127
1, 344355, Note_off_c, 7, 55, 127
1, 344356, Note_on_c, 11, 58, 127
1, 344356, Note_on_c, 5, 77, 127
1, 344495, Note_off_c, 5, 77, 127
1, 344495, Note_off_c, 11, 58, 127
1, 344496, Note_on_c, 3, 51, 127
1, 344496, Note_on_c, 7, 79, 127
1, 344635, Note_off_c, 3, 51, 127
1, 344636, Note_on_c, 11, 58, 127
1, 344775, Note_off_c, 11, 58, 127
1, 344775, Note_off_c, 7, 79, 127
1, 344776, Note_on_c, 0, 60, 127
1, 344776, Note_on_c, 11, 82, 127
1, 344915, Note_off_c, 0, 60, 127
1, 344916, Note_on_c, 2, 62, 127
1, 345055, Note_off_c, 2, 62, 127
1, 345055, Note_off_c, 11, 82, 127
1, 345056, Note_on_c, 3, 63, 127
1, 345056, Note_on_c, 7, 79, 127
1, 345195, Note_off_c, 3, 63, 127
1, 345196, Note_on_c, 11, 58, 127
1, 345335, Note_off_c, 11, 58, 127
1, 345335, Note_off_c, 7, 79, 127
1, 345336, Note_on_c, 7, 55, 127
1, 345336, Note_on_c, 3, 75, 127
1, 345475, Note_off_c, 7, 55, 127
1, 345476, Note_on_c, 11, 58, 127
1, 345615, Note_off_c, 11, 58, 127
1, 345616, Note_on_c, 3, 51, 127
1, 345745, Note_off_c, 3, 75, 127
1, 345755, Note_off_c, 3, 51, 127
1, 345756, Note_on_c, 7, 55, 127
1, 345895, Note_off_c, 7, 55, 127
1, 345896, Note_on_c, 5, 53, 127
1, 345896, Note_on_c, 11, 82, 127
1, 346035, Note_off_c, 5, 53, 127
1, 346036, Note_on_c, 3, 51, 127
1, 346175, Note_off_c, 3, 51, 127
1, 346175, Note_off_c, 11, 82, 127
1, 346176, Note_on_c, 8, 56, 127
1, 346176, Note_on_c, 0, 84, 127
1, 346315, Note_off_c, 8, 56, 127
1, 346316, Note_on_c, 0, 60, 127
1, 346455, Note_off_c, 0, 60, 127
1, 346455, Note_off_c, 0, 84, 127
1, 346456, Note_on_c, 3, 63, 127
1, 346456, Note_on_c, 0, 84, 127
1, 346595, Note_off_c, 3, 63, 127
1, 346596, Note_on_c, 8, 68, 127
1, 346735, Note_off_c, 8, 68, 127
1, 346736, Note_on_c, 2, 62, 127
1, 346875, Note_off_c, 2, 62, 127
1, 346875, Note_off_c, 0, 84, 127
1, 346876, Note_on_c, 7, 67, 127
1, 346876, Note_on_c, 11, 82, 127
1, 347015, Note_off_c, 11, 82, 127
1, 347015, Note_off_c, 7, 67, 127
1, 347016, Note_on_c, 8, 68, 127
1, 347016, Note_on_c, 0, 84, 127
1, 347155, Note_off_c, 0, 84, 127
1, 347155, Note_off_c, 8, 68, 127
1, 347156, Note_on_c, 5, 65, 127
1, 347156, Note_on_c, 8, 80, 127
1, 347295, Note_off_c, 8, 80, 127
1, 347295, Note_off_c, 5, 65, 127
1, 347296, Note_on_c, 7, 55, 127
1, 347296, Note_on_c, 11, 82, 127
1, 347435, Note_off_c, 7, 55, 127
1, 347436, Note_on_c, 11, 58, 127
1, 347575, Note_off_c, 11, 58, 127
1, 347575, Note_off_c, 11, 82, 127
1, 347576, Note_on_c, 2, 62, 127
1, 347576, Note_on_c, 11, 82, 127
1, 347715, Note_off_c, 2, 62, 127
1, 347716, Note_on_c, 7, 67, 127
1, 347855, Note_off_c, 7, 67, 127
1, 347856, Note_on_c, 0, 60, 127
1, 347995, Note_off_c, 0, 60, 127
1, 347995, Note_off_c, 11, 82, 127
1, 347996, Note_on_c, 5, 65, 127
1, 347996, Note_on_c, 8, 80, 127
1, 348135, Note_off_c, 8, 80, 127
1, 348135, Note_off_c, 5, 65, 127
1, 348136, Note_on_c, 7, 67, 127
1, 348136, Note_on_c, 11, 82, 127
1, 348275, Note_off_c, 11, 82, 127
1, 348275, Note_off_c, 7, 67, 127
1, 348276, Note_on_c, 3, 63, 127
1, 348276, Note_on_c, 7, 79, 127
1, 348415, Note_off_c, 7, 79, 127
1, 348415, Note_off_c, 3, 63, 127
1, 348416, Note_on_c, 5, 53, 127
1, 348416, Note_on_c, 8, 80, 127
1, 348555, Note_off_c, 5, 53, 127
1, 348556, Note_on_c, 8, 56, 127
1, 348695, Note_off_c, 8, 56, 127
1, 348695, Note_off_c, 8, 80, 127
1, 348696, Note_on_c, 0, 60, 127
1, 348696, Note_on_c, 8, 80, 127
1, 348835, Note_off_c, 0, 60, 127
1, 348836, Note_on_c, 5, 65, 127
1, 348975, Note_off_c, 5, 65, 127
1, 348976, Note_on_c, 11, 58, 127
1, 349115, Note_off_c, 11, 58, 127
1, 349115, Note_off_c, 8, 80, 127
1, 349116, Note_on_c, 3, 63, 127
1, 349116, Note_on_c, 7, 79, 127
1, 349255, Note_off_c, 7, 79, 127
1, 349255, Note_off_c, 3, 63, 127
1, 349256, Note_on_c, 5, 65, 127
1, 349256, Note_on_c, 8, 80, 127
1, 349395, Note_off_c, 8, 80, 127
1, 349395, Note_off_c, 5, 65, 127
1, 349396, Note_on_c, 2, 62, 127
1, 349396, Note_on_c, 5, 77, 127
1, 349535, Note_off_c, 5, 77, 127
1, 349535, Note_off_c, 2, 62, 127
1, 349536, Note_on_c, 3, 63, 127
1, 349536, Note_on_c, 7, 79, 127
1, 349675, Note_off_c, 7, 79, 127
1, 349676, Note_on_c, 5, 77, 127
1, 349815, Note_off_c, 5, 77, 127
1, 349816, Note_on_c, 3, 75, 127
1, 349955, Note_off_c, 3, 75, 127
1, 349956, Note_on_c, 5, 77, 127
1, 350095, Note_off_c, 5, 77, 127
1, 350096, Note_on_c, 3, 51, 127
1, 350096, Note_on_c, 7, 79, 127
1, 350235, Note_off_c, 7, 79, 127
1, 350236, Note_on_c, 8, 80, 127
1, 350375, Note_off_c, 8, 80, 127
1, 350376, Note_on_c, 11, 82, 127
1, 350515, Note_off_c, 11, 82, 127
1, 350516, Note_on_c, 7, 79, 127
1, 350655, Note_off_c, 7, 79, 127
1, 350655, Note_off_c, 3, 51, 127
1, 350655, Note_off_c, 3, 63, 127
1, 350656, Note_on_c, 8, 56, 127
1, 350656, Note_on_c, 0, 84, 127
1, 350796, Note_on_c, 2, 62, 127
1, 350935, Note_off_c, 2, 62, 127
1, 350936, Note_on_c, 0, 60, 127
1, 351075, Note_off_c, 0, 60, 127
1, 351076, Note_on_c, 2, 62, 127
1, 351211, Note_off_c, 8, 56, 127
1, 351215, Note_off_c, 2, 62, 127
1, 351216, Note_on_c, 3, 63, 127
1, 351355, Note_off_c, 3, 63, 127
1, 351356, Note_on_c, 5, 65, 127
1, 351495, Note_off_c, 5, 65, 127
1, 351496, Note_on_c, 7, 67, 127
1, 351635, Note_off_c, 7, 67, 127
1, 351636, Note_on_c, 3, 63, 127
1, 351775, Note_off_c, 3, 63, 127
1, 351776, Note_on_c, 8, 68, 127
1, 351776, Note_on_c, 11, 58, 127
1, 351915, Note_off_c, 0, 84, 127
1, 351916, Note_on_c, 2, 74, 127
1, 352055, Note_off_c, 2, 74, 127
1, 352056, Note_on_c, 3, 75, 127
1, 352195, Note_off_c, 3, 75, 127
1, 352196, Note_on_c, 5, 77, 127
1, 352331, Note_off_c, 11, 58, 127
1, 352331, Note_off_c, 8, 68, 127
1, 352335, Note_off_c, 5, 77, 127
1, 352336, Note_on_c, 11, 70, 127
1, 352476, Note_on_c, 7, 79, 127
1, 352615, Note_off_c, 7, 79, 127
1, 352616, Note_on_c, 5, 77, 127
1, 352686, Note_off_c, 11, 70, 127
1, 352755, Note_off_c, 5, 77, 127
1, 352756, Note_on_c, 3, 75, 127
1, 352895, Note_off_c, 3, 75, 127
1, 352896, Note_on_c, 7, 67, 127
1, 352896, Note_on_c, 11, 58, 127
1, 352896, Note_on_c, 3, 75, 127
1, 353035, Note_off_c, 3, 75, 127
1, 353036, Note_on_c, 0, 72, 127
1, 353175, Note_off_c, 0, 72, 127
1, 353176, Note_on_c, 2, 74, 127
1, 353315, Note_off_c, 2, 74, 127
1, 353316, Note_on_c, 3, 75, 127
1, 353451, Note_off_c, 11, 58, 127
1, 353451, Note_off_c, 7, 67, 127
1, 353455, Note_off_c, 3, 75, 127
1, 353456, Note_on_c, 8, 68, 127
1, 353596, Note_on_c, 7, 79, 127
1, 353735, Note_off_c, 7, 79, 127
1, 353736, Note_on_c, 5, 77, 127
1, 353865, Note_off_c, 8, 68, 127
1, 353875, Note_off_c, 5, 77, 127
1, 353876, Note_on_c, 3, 75, 127
1, 354015, Note_off_c, 3, 75, 127
1, 354016, Note_on_c, 5, 65, 127
1, 354016, Note_on_c, 11, 58, 127
1, 354016, Note_on_c, 3, 75, 127
1, 354155, Note_off_c, 3, 75, 127
1, 354156, Note_on_c, 2, 74, 127
1, 354295, Note_off_c, 2, 74, 127
1, 354295, Note_off_c, 5, 65, 127
1, 354296, Note_on_c, 3, 63, 127
1, 354296, Note_on_c, 3, 75, 127
1, 354435, Note_off_c, 3, 75, 127
1, 354436, Note_on_c, 5, 77, 127
1, 354571, Note_off_c, 11, 58, 127
1, 354575, Note_off_c, 5, 77, 127
1, 354576, Note_on_c, 11, 70, 127
1, 354716, Note_on_c, 7, 79, 127
1, 354854, Note_off_c, 11, 70, 127
1, 354855, Note_off_c, 7, 79, 127
1, 354855, Note_off_c, 3, 63, 127
1, 354856, Note_on_c, 2, 62, 127
1, 354856, Note_on_c, 11, 58, 127
1, 354856, Note_on_c, 5, 77, 127
1, 354995, Note_off_c, 5, 77, 127
1, 354996, Note_on_c, 3, 75, 127
1, 355135, Note_off_c, 3, 75, 127
1, 355135, Note_off_c, 11, 58, 127
1, 355135, Note_off_c, 2, 62, 127
1, 355136, Note_on_c, 0, 60, 127
1, 355136, Note_on_c, 3, 75, 127
1, 355275, Note_off_c, 0, 60, 127
1, 355281, Note_on_c, 2, 62, 127
1, 355351, Note_off_c, 2, 62, 127
1, 355354, Note_on_c, 0, 60, 127
1, 355424, Note_off_c, 0, 60, 127
1, 355427, Note_on_c, 11, 58, 127
1, 355427, Note_on_c, 7, 67, 127
1, 355569, Note_off_c, 11, 58, 127
1, 355573, Note_on_c, 0, 60, 127
1, 355643, Note_off_c, 0, 60, 127
1, 355646, Note_on_c, 8, 56, 127
1, 355716, Note_off_c, 8, 56, 127
1, 355719, Note_on_c, 7, 55, 127
1, 355836, Note_off_c, 3, 75, 127
1, 355858, Note_off_c, 7, 67, 127
1, 355864, Note_on_c, 7, 79, 127
1, 355864, Note_on_c, 11, 70, 127
1, 356006, Note_off_c, 11, 70, 127
1, 356006, Note_off_c, 7, 79, 127
1, 356010, Note_on_c, 5, 77, 127
1, 356010, Note_on_c, 8, 68, 127
1, 356152, Note_off_c, 8, 68, 127
1, 356152, Note_off_c, 5, 77, 127
1, 356156, Note_on_c, 3, 75, 127
1, 356156, Note_on_c, 7, 67, 127
1, 356298, Note_off_c, 7, 67, 127
1, 356298, Note_off_c, 3, 75, 127
1, 356302, Note_on_c, 3, 75, 127
1, 356302, Note_on_c, 7, 67, 127
1, 356440, Note_off_c, 7, 55, 127
1, 356449, Note_on_c, 11, 58, 127
1, 356519, Note_off_c, 11, 58, 127
1, 356522, Note_on_c, 8, 56, 127
1, 356592, Note_off_c, 8, 56, 127
1, 356595, Note_on_c, 7, 55, 127
1, 356737, Note_off_c, 7, 55, 127
1, 356741, Note_on_c, 8, 56, 127
1, 356811, Note_off_c, 8, 56, 127
1, 356812, Note_on_c, 5, 53, 127
1, 356882, Note_off_c, 5, 53, 127
1, 356885, Note_on_c, 3, 51, 127
1, 357023, Note_off_c, 7, 67, 127
1, 357023, Note_off_c, 3, 75, 127
1, 357032, Note_on_c, 7, 79, 127
1, 357032, Note_on_c, 11, 70, 127
1, 357174, Note_off_c, 11, 70, 127
1, 357174, Note_off_c, 7, 79, 127
1, 357178, Note_on_c, 5, 77, 127
1, 357178, Note_on_c, 8, 68, 127
1, 357320, Note_off_c, 8, 68, 127
1, 357320, Note_off_c, 5, 77, 127
1, 357324, Note_on_c, 3, 75, 127
1, 357324, Note_on_c, 7, 67, 127
1, 357466, Note_off_c, 7, 67, 127
1, 357466, Note_off_c, 3, 75, 127
1, 357470, Note_on_c, 3, 75, 127
1, 357470, Note_on_c, 7, 67, 127
1, 357558, Note_off_c, 3, 51, 127
1, 357567, Note_on_c, 2, 50, 127
1, 357661, Note_off_c, 2, 50, 127
1, 357665, Note_on_c, 0, 48, 127
1, 357759, Note_off_c, 0, 48, 127
1, 357762, Note_on_c, 0, 48, 127
1, 357856, Note_off_c, 0, 48, 127
1, 357860, Note_on_c, 11, 46, 127
1, 357954, Note_off_c, 11, 46, 127
1, 357958, Note_on_c, 8, 44, 127
1, 358052, Note_off_c, 8, 44, 127
1, 358055, Note_on_c, 11, 46, 127
1, 358193, Note_off_c, 7, 67, 127
1, 358193, Note_off_c, 3, 75, 127
1, 358202, Note_on_c, 7, 79, 127
1, 358202, Note_on_c, 11, 70, 127
1, 358344, Note_off_c, 11, 70, 127
1, 358344, Note_off_c, 7, 79, 127
1, 358348, Note_on_c, 5, 77, 127
1, 358348, Note_on_c, 8, 68, 127
1, 358487, Note_off_c, 11, 46, 127
1, 358490, Note_off_c, 8, 68, 127
1, 358490, Note_off_c, 5, 77, 127
1, 358494, Note_on_c, 3, 75, 127
1, 358494, Note_on_c, 11, 46, 127
1, 358494, Note_on_c, 7, 67, 127
1, 358636, Note_off_c, 7, 67, 127
1, 358636, Note_off_c, 11, 46, 127
1, 358637, Note_off_c, 3, 75, 127
1, 358647, Note_on_c, 7, 67, 127
1, 358647, Note_on_c, 3, 51, 127
1, 358647, Note_on_c, 3, 75, 127
1, 358789, Note_off_c, 3, 75, 127
1, 358821, Note_on_c, 2, 74, 127
1, 358932, Note_off_c, 7, 67, 127
1, 358933, Note_off_c, 3, 51, 127
1, 358962, Note_off_c, 2, 74, 127
1, 358965, Note_on_c, 3, 39, 127
1, 358965, Note_on_c, 0, 72, 127
1, 359107, Note_off_c, 0, 72, 127
1, 359111, Note_on_c, 3, 75, 127
1, 359251, Note_off_c, 3, 39, 127
1, 359252, Note_off_c, 3, 75, 127
1, 359256, Note_on_c, 5, 41, 127
1, 359256, Note_on_c, 10, 69, 127
1, 359398, Note_off_c, 10, 69, 127
1, 359402, Note_on_c, 11, 70, 127
1, 359472, Note_off_c, 11, 70, 127
1, 359475, Note_on_c, 0, 72, 127
1, 359542, Note_off_c, 5, 41, 127
1, 359545, Note_off_c, 0, 72, 127
1, 359548, Note_on_c, 10, 45, 127
1, 359548, Note_on_c, 5, 65, 127
1, 359690, Note_off_c, 5, 65, 127
1, 359694, Note_on_c, 3, 75, 127
1, 359834, Note_off_c, 10, 45, 127
1, 359835, Note_off_c, 3, 75, 127
1, 359838, Note_on_c, 11, 46, 127
1, 359838, Note_on_c, 2, 74, 127
1, 359908, Note_off_c, 2, 74, 127
1, 359911, Note_on_c, 3, 75, 127
1, 359981, Note_off_c, 3, 75, 127
1, 359984, Note_on_c, 5, 77, 127
1, 360124, Note_off_c, 11, 46, 127
1, 360125, Note_off_c, 5, 77, 127
1, 360129, Note_on_c, 2, 50, 127
1, 360129, Note_on_c, 11, 70, 127
1, 360199, Note_off_c, 11, 70, 127
1, 360202, Note_on_c, 0, 72, 127
1, 360272, Note_off_c, 0, 72, 127
1, 360275, Note_on_c, 2, 74, 127
1, 360415, Note_off_c, 2, 50, 127
1, 360416, Note_off_c, 2, 74, 127
1, 360420, Note_on_c, 3, 51, 127
1, 360420, Note_on_c, 0, 72, 127
1, 360490, Note_off_c, 0, 72, 127
1, 360493, Note_on_c, 2, 74, 127
1, 360563, Note_off_c, 2, 74, 127
1, 360566, Note_on_c, 3, 75, 127
1, 360706, Note_off_c, 3, 51, 127
1, 360707, Note_off_c, 3, 75, 127
1, 360710, Note_on_c, 5, 65, 127
1, 360710, Note_on_c, 5, 53, 127
1, 360710, Note_on_c, 10, 69, 127
1, 360780, Note_off_c, 10, 69, 127
1, 360783, Note_on_c, 11, 70, 127
1, 360853, Note_off_c, 11, 70, 127
1, 360856, Note_on_c, 0, 72, 127
1, 360996, Note_off_c, 5, 53, 127
1, 360996, Note_off_c, 5, 65, 127
1, 360997, Note_off_c, 0, 72, 127
1, 361001, Note_on_c, 2, 62, 127
1, 361001, Note_on_c, 11, 46, 127
1, 361001, Note_on_c, 11, 70, 127
1, 361137, Note_on_c, 5, 53, 127
1, 361143, Note_off_c, 11, 46, 127
1, 361276, Note_off_c, 5, 53, 127
1, 361286, Note_off_c, 11, 70, 127
1, 361286, Note_on_c, 7, 55, 127
1, 361286, Note_on_c, 11, 58, 127
1, 361287, Note_off_c, 2, 62, 127
1, 361425, Note_off_c, 11, 58, 127
1, 361425, Note_off_c, 7, 55, 127
1, 361426, Note_on_c, 10, 57, 127
1, 361426, Note_on_c, 0, 60, 127
1, 361565, Note_off_c, 0, 60, 127
1, 361565, Note_off_c, 10, 57, 127
1, 361566, Note_on_c, 11, 58, 127
1, 361566, Note_on_c, 2, 62, 127
1, 361705, Note_off_c, 11, 58, 127
1, 361706, Note_on_c, 5, 53, 127
1, 361845, Note_off_c, 5, 53, 127
1, 361845, Note_off_c, 2, 62, 127
1, 361846, Note_on_c, 2, 50, 127
1, 361846, Note_on_c, 5, 65, 127
1, 361985, Note_off_c, 2, 50, 127
1, 361986, Note_on_c, 5, 53, 127
1, 362125, Note_off_c, 5, 53, 127
1, 362125, Note_off_c, 5, 65, 127
1, 362126, Note_on_c, 11, 46, 127
1, 362126, Note_on_c, 2, 62, 127
1, 362265, Note_off_c, 11, 46, 127
1, 362266, Note_on_c, 5, 53, 127
1, 362405, Note_off_c, 5, 53, 127
1, 362405, Note_off_c, 2, 62, 127
1, 362406, Note_on_c, 7, 55, 127
1, 362406, Note_on_c, 11, 58, 127
1, 362545, Note_off_c, 7, 55, 127
1, 362546, Note_on_c, 10, 57, 127
1, 362684, Note_off_c, 11, 58, 127
1, 362685, Note_off_c, 10, 57, 127
1, 362686, Note_on_c, 11, 58, 127
1, 362826, Note_on_c, 5, 77, 127
1, 362965, Note_off_c, 5, 77, 127
1, 362965, Note_off_c, 11, 58, 127
1, 362966, Note_on_c, 7, 79, 127
1, 362966, Note_on_c, 5, 65, 127
1, 363105, Note_off_c, 7, 79, 127
1, 363106, Note_on_c, 10, 81, 127
1, 363245, Note_off_c, 10, 81, 127
1, 363245, Note_off_c, 5, 65, 127
1, 363246, Note_on_c, 11, 82, 127
1, 363246, Note_on_c, 2, 62, 127
1, 363385, Note_off_c, 11, 82, 127
1, 363386, Note_on_c, 5, 77, 127
1, 363525, Note_off_c, 5, 77, 127
1, 363525, Note_off_c, 2, 62, 127
1, 363526, Note_on_c, 2, 74, 127
1, 363526, Note_on_c, 11, 58, 127
1, 363665, Note_off_c, 11, 58, 127
1, 363665, Note_off_c, 2, 74, 127
1, 363666, Note_on_c, 5, 77, 127
1, 363666, Note_on_c, 0, 60, 127
1, 363805, Note_off_c, 0, 60, 127
1, 363805, Note_off_c, 5, 77, 127
1, 363806, Note_on_c, 11, 70, 127
1, 363806, Note_on_c, 2, 62, 127
1, 363945, Note_off_c, 11, 70, 127
1, 363946, Note_on_c, 5, 77, 127
1, 364085, Note_off_c, 5, 77, 127
1, 364085, Note_off_c, 2, 62, 127
1, 364086, Note_on_c, 7, 79, 127
1, 364086, Note_on_c, 5, 65, 127
1, 364225, Note_off_c, 7, 79, 127
1, 364226, Note_on_c, 10, 81, 127
1, 364365, Note_off_c, 10, 81, 127
1, 364365, Note_off_c, 5, 65, 127
1, 364366, Note_on_c, 11, 82, 127
1, 364366, Note_on_c, 2, 62, 127
1, 364505, Note_off_c, 11, 82, 127
1, 364506, Note_on_c, 5, 77, 127
1, 364645, Note_off_c, 5, 77, 127
1, 364645, Note_off_c, 2, 62, 127
1, 364646, Note_on_c, 2, 74, 127
1, 364646, Note_on_c, 11, 58, 127
1, 364785, Note_off_c, 2, 74, 127
1, 364786, Note_on_c, 5, 77, 127
1, 364925, Note_off_c, 5, 77, 127
1, 364926, Note_on_c, 11, 70, 127
1, 365065, Note_off_c, 11, 70, 127
1, 365065, Note_off_c, 11, 58, 127
1, 365066, Note_on_c, 2, 74, 127
1, 365066, Note_on_c, 11, 58, 127
1, 365205, Note_off_c, 11, 58, 127
1, 365205, Note_off_c, 2, 74, 127
1, 365206, Note_on_c, 11, 70, 127
1, 365206, Note_on_c, 0, 60, 127
1, 365206, Note_on_c, 5, 65, 127
1, 365345, Note_off_c, 0, 60, 127
1, 365345, Note_off_c, 11, 70, 127
1, 365346, Note_on_c, 2, 74, 127
1, 365346, Note_on_c, 2, 62, 127
1, 365485, Note_off_c, 2, 62, 127
1, 365485, Note_off_c, 5, 65, 127
1, 365486, Note_on_c, 3, 63, 127
1, 365486, Note_on_c, 7, 67, 127
1, 365625, Note_off_c, 3, 63, 127
1, 365626, Note_on_c, 11, 58, 127
1, 365765, Note_off_c, 11, 58, 127
1, 365765, Note_off_c, 7, 67, 127
1, 365765, Note_off_c, 2, 74, 127
1, 365766, Note_on_c, 2, 74, 127
1, 365766, Note_on_c, 7, 55, 127
1, 365766, Note_on_c, 7, 67, 127
1, 365905, Note_off_c, 7, 55, 127
1, 365906, Note_on_c, 11, 58, 127
1, 366045, Note_off_c, 11, 58, 127
1, 366045, Note_off_c, 2, 74, 127
1, 366046, Note_on_c, 0, 72, 127
1, 366046, Note_on_c, 3, 51, 127
1, 366185, Note_off_c, 3, 51, 127
1, 366185, Note_off_c, 7, 67, 127
1, 366186, Note_on_c, 2, 62, 127
1, 366186, Note_on_c, 5, 65, 127
1, 366325, Note_off_c, 5, 65, 127
1, 366325, Note_off_c, 2, 62, 127
1, 366326, Note_on_c, 3, 63, 127
1, 366326, Note_on_c, 7, 67, 127
1, 366465, Note_off_c, 7, 67, 127
1, 366465, Note_off_c, 3, 63, 127
1, 366466, Note_on_c, 0, 60, 127
1, 366466, Note_on_c, 3, 63, 127
1, 366605, Note_off_c, 3, 63, 127
1, 366605, Note_off_c, 0, 60, 127
1, 366606, Note_on_c, 2, 62, 127
1, 366606, Note_on_c, 5, 65, 127
1, 366745, Note_off_c, 2, 62, 127
1, 366746, Note_on_c, 0, 60, 127
1, 366885, Note_off_c, 0, 60, 127
1, 366885, Note_off_c, 5, 65, 127
1, 366885, Note_off_c, 0, 72, 127
1, 366886, Note_on_c, 0, 72, 127
1, 366886, Note_on_c, 10, 57, 127
1, 366886, Note_on_c, 5, 65, 127
1, 367025, Note_off_c, 10, 57, 127
1, 367026, Note_on_c, 0, 60, 127
1, 367165, Note_off_c, 0, 60, 127
1, 367165, Note_off_c, 0, 72, 127
1, 367166, Note_on_c, 11, 70, 127
1, 367166, Note_on_c, 2, 50, 127
1, 367305, Note_off_c, 2, 50, 127
1, 367305, Note_off_c, 5, 65, 127
1, 367306, Note_on_c, 0, 60, 127
1, 367306, Note_on_c, 3, 63, 127
1, 367445, Note_off_c, 3, 63, 127
1, 367445, Note_off_c, 0, 60, 127
1, 367446, Note_on_c, 2, 62, 127
1, 367446, Note_on_c, 5, 65, 127
1, 367585, Note_off_c, 5, 65, 127
1, 367585, Note_off_c, 2, 62, 127
1, 367586, Note_on_c, 11, 58, 127
1, 367586, Note_on_c, 2, 62, 127
1, 367725, Note_off_c, 2, 62, 127
1, 367725, Note_off_c, 11, 58, 127
1, 367726, Note_on_c, 0, 60, 127
1, 367726, Note_on_c, 3, 63, 127
1, 367865, Note_off_c, 0, 60, 127
1, 367866, Note_on_c, 11, 58, 127
1, 368005, Note_off_c, 11, 58, 127
1, 368005, Note_off_c, 3, 63, 127
1, 368005, Note_off_c, 11, 70, 127
1, 368006, Note_on_c, 11, 70, 127
1, 368006, Note_on_c, 7, 55, 127
1, 368006, Note_on_c, 3, 63, 127
1, 368145, Note_off_c, 7, 55, 127
1, 368146, Note_on_c, 11, 58, 127
1, 368285, Note_off_c, 11, 58, 127
1, 368285, Note_off_c, 11, 70, 127
1, 368286, Note_on_c, 10, 69, 127
1, 368286, Note_on_c, 0, 48, 127
1, 368425, Note_off_c, 0, 48, 127
1, 368425, Note_off_c, 3, 63, 127
1, 368426, Note_on_c, 5, 53, 127
1, 368426, Note_on_c, 2, 62, 127
1, 368565, Note_off_c, 2, 62, 127
1, 368565, Note_off_c, 5, 53, 127
1, 368566, Note_on_c, 3, 51, 127
1, 368566, Note_on_c, 3, 63, 127
1, 368705, Note_off_c, 3, 63, 127
1, 368705, Note_off_c, 3, 51, 127
1, 368706, Note_on_c, 5, 53, 127
1, 368706, Note_on_c, 0, 60, 127
1, 368845, Note_off_c, 0, 60, 127
1, 368845, Note_off_c, 5, 53, 127
1, 368845, Note_off_c, 10, 69, 127
1, 368846, Note_on_c, 11, 70, 127
1, 368846, Note_on_c, 11, 46, 127
1, 368846, Note_on_c, 2, 62, 127
1, 368985, Note_off_c, 2, 62, 127
1, 368985, Note_off_c, 11, 46, 127
1, 368986, Note_on_c, 0, 48, 127
1, 368986, Note_on_c, 0, 60, 127
1, 369124, Note_off_c, 11, 70, 127
1, 369125, Note_off_c, 0, 60, 127
1, 369125, Note_off_c, 0, 48, 127
1, 369126, Note_on_c, 2, 50, 127
1, 369126, Note_on_c, 11, 58, 127
1, 369265, Note_off_c, 11, 58, 127
1, 369265, Note_off_c, 2, 50, 127
1, 369266, Note_on_c, 0, 48, 127
1, 369266, Note_on_c, 0, 60, 127
1, 369405, Note_off_c, 0, 60, 127
1, 369405, Note_off_c, 0, 48, 127
1, 369406, Note_on_c, 11, 46, 127
1, 369406, Note_on_c, 2, 62, 127
1, 369545, Note_off_c, 2, 62, 127
1, 369545, Note_off_c, 11, 46, 127
1, 369546, Note_on_c, 8, 44, 127
1, 369546, Note_on_c, 3, 63, 127
1, 369685, Note_off_c, 3, 63, 127
1, 369685, Note_off_c, 8, 44, 127
1, 369686, Note_on_c, 7, 43, 127
1, 369686, Note_on_c, 5, 65, 127
1, 369825, Note_off_c, 5, 65, 127
1, 369825, Note_off_c, 7, 43, 127
1, 369826, Note_on_c, 5, 41, 127
1, 369826, Note_on_c, 2, 62, 127
1, 369965, Note_off_c, 2, 62, 127
1, 369965, Note_off_c, 5, 41, 127
1, 369966, Note_on_c, 3, 39, 127
1, 369966, Note_on_c, 7, 67, 127
1, 370105, Note_off_c, 7, 67, 127
1, 370106, Note_on_c, 10, 57, 127
1, 370245, Note_off_c, 10, 57, 127
1, 370246, Note_on_c, 11, 58, 127
1, 370375, Note_off_c, 3, 39, 127
1, 370385, Note_off_c, 11, 58, 127
1, 370386, Note_on_c, 0, 60, 127
1, 370525, Note_off_c, 0, 60, 127
1, 370526, Note_on_c, 10, 45, 127
1, 370526, Note_on_c, 5, 53, 127
1, 370666, Note_on_c, 7, 67, 127
1, 370805, Note_off_c, 7, 67, 127
1, 370806, Note_on_c, 5, 65, 127
1, 370935, Note_off_c, 5, 53, 127
1, 370935, Note_off_c, 10, 45, 127
1, 370945, Note_off_c, 5, 65, 127
1, 370946, Note_on_c, 3, 63, 127
1, 371085, Note_off_c, 3, 63, 127
1, 371086, Note_on_c, 2, 62, 127
1, 371086, Note_on_c, 11, 46, 127
1, 371086, Note_on_c, 5, 53, 127
1, 371225, Note_off_c, 2, 62, 127
1, 371229, Note_on_c, 3, 63, 127
1, 371298, Note_off_c, 3, 63, 127
1, 371302, Note_on_c, 5, 65, 127
1, 371363, Note_off_c, 5, 53, 127
1, 371363, Note_off_c, 11, 46, 127
1, 371370, Note_off_c, 5, 65, 127
1, 371373, Note_on_c, 7, 55, 127
1, 371373, Note_on_c, 3, 51, 127
1, 371373, Note_on_c, 0, 60, 127
1, 371513, Note_off_c, 0, 60, 127
1, 371517, Note_on_c, 11, 58, 127
1, 371655, Note_off_c, 7, 55, 127
1, 371656, Note_off_c, 3, 51, 127
1, 371657, Note_off_c, 11, 58, 127
1, 371661, Note_on_c, 5, 53, 127
1, 371661, Note_on_c, 10, 57, 127
1, 371801, Note_off_c, 10, 57, 127
1, 371805, Note_on_c, 11, 58, 127
1, 371874, Note_off_c, 11, 58, 127
1, 371877, Note_on_c, 0, 60, 127
1, 371943, Note_off_c, 5, 53, 127
1, 371946, Note_off_c, 0, 60, 127
1, 371950, Note_on_c, 5, 41, 127
1, 371950, Note_on_c, 5, 53, 127
1, 372090, Note_off_c, 5, 41, 127
1, 372093, Note_on_c, 3, 51, 127
1, 372233, Note_off_c, 3, 51, 127
1, 372233, Note_off_c, 5, 53, 127
1, 372237, Note_on_c, 5, 53, 127
1, 372237, Note_on_c, 11, 46, 127
1, 372237, Note_on_c, 11, 58, 127
1, 372370, Note_off_c, 5, 53, 127
1, 372377, Note_off_c, 11, 46, 127
1, 372381, Note_on_c, 3, 51, 127
1, 372450, Note_off_c, 3, 51, 127
1, 372454, Note_on_c, 5, 53, 127
1, 372523, Note_off_c, 5, 53, 127
1, 372526, Note_on_c, 0, 48, 127
1, 372653, Note_off_c, 11, 58, 127
1, 372666, Note_off_c, 0, 48, 127
1, 372670, Note_on_c, 11, 46, 127
1, 372810, Note_off_c, 11, 46, 127
1, 372814, Note_on_c, 5, 53, 127
1, 372814, Note_on_c, 10, 45, 127
1, 372814, Note_on_c, 0, 60, 127
1, 372954, Note_off_c, 10, 45, 127
1, 372958, Note_on_c, 11, 46, 127
1, 373027, Note_off_c, 11, 46, 127
1, 373030, Note_on_c, 0, 48, 127
1, 373099, Note_off_c, 0, 48, 127
1, 373103, Note_on_c, 5, 41, 127
1, 373230, Note_off_c, 0, 60, 127
1, 373230, Note_off_c, 5, 53, 127
1, 373243, Note_off_c, 5, 41, 127
1, 373247, Note_on_c, 3, 39, 127
1, 373387, Note_off_c, 3, 39, 127
1, 373390, Note_on_c, 2, 38, 127
1, 373390, Note_on_c, 2, 62, 127
1, 373530, Note_off_c, 2, 62, 127
1, 373534, Note_on_c, 3, 63, 127
1, 373603, Note_off_c, 3, 63, 127
1, 373607, Note_on_c, 5, 65, 127
1, 373676, Note_off_c, 5, 65, 127
1, 373679, Note_on_c, 5, 53, 127
1, 373806, Note_off_c, 2, 38, 127
1, 373819, Note_off_c, 5, 53, 127
1, 373823, Note_on_c, 11, 58, 127
1, 373963, Note_off_c, 11, 58, 127
1, 373967, Note_on_c, 3, 39, 127
1, 373967, Note_on_c, 0, 60, 127
1, 374107, Note_off_c, 0, 60, 127
1, 374111, Note_on_c, 2, 62, 127
1, 374180, Note_off_c, 2, 62, 127
1, 374183, Note_on_c, 3, 63, 127
1, 374252, Note_off_c, 3, 63, 127
1, 374256, Note_on_c, 7, 55, 127
1, 374383, Note_off_c, 3, 39, 127
1, 374396, Note_off_c, 7, 55, 127
1, 374400, Note_on_c, 0, 60, 127
1, 374540, Note_off_c, 0, 60, 127
1, 374543, Note_on_c, 5, 41, 127
1, 374543, Note_on_c, 2, 62, 127
1, 374683, Note_off_c, 2, 62, 127
1, 374687, Note_on_c, 3, 63, 127
1, 374756, Note_off_c, 3, 63, 127
1, 374760, Note_on_c, 5, 65, 127
1, 374829, Note_off_c, 5, 65, 127
1, 374832, Note_on_c, 10, 57, 127
1, 374959, Note_off_c, 5, 41, 127
1, 374972, Note_off_c, 10, 57, 127
1, 374976, Note_on_c, 2, 62, 127
1, 375116, Note_off_c, 2, 62, 127
1, 375120, Note_on_c, 7, 43, 127
1, 375120, Note_on_c, 3, 63, 127
1, 375260, Note_off_c, 3, 63, 127
1, 375264, Note_on_c, 5, 65, 127
1, 375333, Note_off_c, 5, 65, 127
1, 375336, Note_on_c, 7, 67, 127
1, 375405, Note_off_c, 7, 67, 127
1, 375409, Note_on_c, 11, 58, 127
1, 375536, Note_off_c, 7, 43, 127
1, 375549, Note_off_c, 11, 58, 127
1, 375553, Note_on_c, 3, 63, 127
1, 375693, Note_off_c, 3, 63, 127
1, 375696, Note_on_c, 10, 45, 127
1, 375696, Note_on_c, 5, 65, 127
1, 375836, Note_off_c, 5, 65, 127
1, 375840, Note_on_c, 7, 67, 127
1, 375909, Note_off_c, 7, 67, 127
1, 375913, Note_on_c, 10, 69, 127
1, 375982, Note_off_c, 10, 69, 127
1, 375985, Note_on_c, 0, 60, 127
1, 376112, Note_off_c, 10, 45, 127
1, 376125, Note_off_c, 0, 60, 127
1, 376129, Note_on_c, 3, 63, 127
1, 376269, Note_off_c, 3, 63, 127
1, 376273, Note_on_c, 11, 46, 127
1, 376273, Note_on_c, 2, 62, 127
1, 376413, Note_off_c, 2, 62, 127
1, 376417, Note_on_c, 5, 65, 127
1, 376557, Note_off_c, 5, 65, 127
1, 376561, Note_on_c, 11, 58, 127
1, 376659, Note_off_c, 11, 46, 127
1, 376701, Note_off_c, 11, 58, 127
1, 376705, Note_on_c, 0, 60, 127
1, 376845, Note_off_c, 0, 60, 127
1, 376849, Note_on_c, 2, 38, 127
1, 376849, Note_on_c, 2, 62, 127
1, 376989, Note_off_c, 2, 62, 127
1, 376992, Note_on_c, 3, 63, 127
1, 377061, Note_off_c, 3, 63, 127
1, 377065, Note_on_c, 5, 65, 127
1, 377132, Note_off_c, 2, 38, 127
1, 377133, Note_off_c, 5, 65, 127
1, 377136, Note_on_c, 3, 39, 127
1, 377136, Note_on_c, 11, 58, 127
1, 377276, Note_off_c, 11, 58, 127
1, 377280, Note_on_c, 0, 60, 127
1, 377419, Note_off_c, 3, 39, 127
1, 377420, Note_off_c, 0, 60, 127
1, 377424, Note_on_c, 5, 41, 127
1, 377424, Note_on_c, 2, 62, 127
1, 377564, Note_off_c, 2, 62, 127
1, 377568, Note_on_c, 5, 65, 127
1, 377707, Note_off_c, 5, 41, 127
1, 377708, Note_off_c, 5, 65, 127
1, 377712, Note_on_c, 7, 43, 127
1, 377712, Note_on_c, 11, 58, 127
1, 377852, Note_off_c, 11, 58, 127
1, 377856, Note_on_c, 0, 60, 127
1, 377950, Note_off_c, 7, 43, 127
1, 377997, Note_off_c, 0, 60, 127
1, 378001, Note_on_c, 2, 50, 127
1, 378001, Note_on_c, 2, 62, 127
1, 378141, Note_off_c, 2, 62, 127
1, 378144, Note_on_c, 3, 63, 127
1, 378213, Note_off_c, 3, 63, 127
1, 378217, Note_on_c, 5, 65, 127
1, 378284, Note_off_c, 2, 50, 127
1, 378285, Note_off_c, 5, 65, 127
1, 378288, Note_on_c, 3, 51, 127
1, 378288, Note_on_c, 11, 58, 127
1, 378428, Note_off_c, 11, 58, 127
1, 378432, Note_on_c, 0, 60, 127
1, 378571, Note_off_c, 3, 51, 127
1, 378572, Note_off_c, 0, 60, 127
1, 378576, Note_on_c, 5, 53, 127
1, 378576, Note_on_c, 1, 61, 127
1, 378716, Note_off_c, 1, 61, 127
1, 378720, Note_on_c, 5, 65, 127
1, 378859, Note_off_c, 5, 53, 127
1, 378860, Note_off_c, 5, 65, 127
1, 378864, Note_on_c, 8, 56, 127
1, 378864, Note_on_c, 11, 58, 127
1, 379004, Note_off_c, 11, 58, 127
1, 379008, Note_on_c, 0, 60, 127
1, 379102, Note_off_c, 8, 56, 127
1, 379149, Note_off_c, 0, 60, 127
1, 379153, Note_on_c, 1, 49, 127
1, 379153, Note_on_c, 1, 61, 127
1, 379293, Note_off_c, 1, 61, 127
1, 379296, Note_on_c, 3, 63, 127
1, 379365, Note_off_c, 3, 63, 127
1, 379369, Note_on_c, 5, 65, 127
1, 379436, Note_off_c, 1, 49, 127
1, 379437, Note_off_c, 5, 65, 127
1, 379440, Note_on_c, 3, 51, 127
1, 379440, Note_on_c, 11, 58, 127
1, 379580, Note_off_c, 11, 58, 127
1, 379584, Note_on_c, 0, 60, 127
1, 379723, Note_off_c, 3, 51, 127
1, 379724, Note_off_c, 0, 60, 127
1, 379728, Note_on_c, 5, 53, 127
1, 379728, Note_on_c, 1, 61, 127
1, 379868, Note_off_c, 1, 61, 127
1, 379872, Note_on_c, 5, 65, 127
1, 380011, Note_off_c, 5, 53, 127
1, 380012, Note_off_c, 5, 65, 127
1, 380016, Note_on_c, 6, 54, 127
1, 380016, Note_on_c, 11, 58, 127
1, 380156, Note_off_c, 11, 58, 127
1, 380160, Note_on_c, 1, 61, 127
1, 380283, Note_off_c, 6, 54, 127
1, 380301, Note_off_c, 1, 61, 127
1, 380305, Note_on_c, 3, 51, 127
1, 380305, Note_on_c, 0, 60, 127
1, 380445, Note_off_c, 0, 60, 127
1, 380449, Note_on_c, 1, 61, 127
1, 380518, Note_off_c, 1, 61, 127
1, 380521, Note_on_c, 3, 63, 127
1, 380588, Note_off_c, 3, 51, 127
1, 380589, Note_off_c, 3, 63, 127
1, 380592, Note_on_c, 0, 48, 127
1, 380592, Note_on_c, 5, 53, 127
1, 380732, Note_off_c, 5, 53, 127
1, 380736, Note_on_c, 11, 58, 127
1, 380875, Note_off_c, 0, 48, 127
1, 380876, Note_off_c, 11, 58, 127
1, 380880, Note_on_c, 5, 53, 127
1, 380880, Note_on_c, 10, 57, 127
1, 381020, Note_off_c, 10, 57, 127
1, 381024, Note_on_c, 5, 65, 127
1, 381164, Note_off_c, 5, 65, 127
1, 381168, Note_on_c, 5, 41, 127
1, 381168, Note_on_c, 0, 60, 127
1, 381295, Note_off_c, 5, 53, 127
1, 381308, Note_off_c, 0, 60, 127
1, 381312, Note_on_c, 3, 63, 127
1, 381428, Note_off_c, 5, 41, 127
1, 381453, Note_off_c, 3, 63, 127
1, 381457, Note_on_c, 11, 46, 127
1, 381457, Note_on_c, 1, 61, 127
1, 381597, Note_off_c, 1, 61, 127
1, 381601, Note_on_c, 3, 63, 127
1, 381670, Note_off_c, 3, 63, 127
1, 381673, Note_on_c, 5, 65, 127
1, 381742, Note_off_c, 5, 65, 127
1, 381745, Note_on_c, 11, 58, 127
1, 381884, Note_off_c, 11, 46, 127
1, 381885, Note_off_c, 11, 58, 127
1, 381889, Note_on_c, 0, 48, 127
1, 381889, Note_on_c, 8, 68, 127
1, 382029, Note_off_c, 8, 68, 127
1, 382029, Note_off_c, 0, 48, 127
1, 382033, Note_on_c, 1, 49, 127
1, 382033, Note_on_c, 7, 67, 127
1, 382173, Note_off_c, 7, 67, 127
1, 382177, Note_on_c, 11, 70, 127
1, 382316, Note_off_c, 1, 49, 127
1, 382317, Note_off_c, 11, 70, 127
1, 382321, Note_on_c, 11, 46, 127
1, 382321, Note_on_c, 1, 73, 127
1, 382461, Note_off_c, 1, 73, 127
1, 382465, Note_on_c, 5, 65, 127
1, 382573, Note_off_c, 11, 46, 127
1, 382605, Note_off_c, 5, 65, 127
1, 382609, Note_on_c, 0, 48, 127
1, 382609, Note_on_c, 4, 64, 127
1, 382749, Note_off_c, 4, 64, 127
1, 382753, Note_on_c, 5, 65, 127
1, 382822, Note_off_c, 5, 65, 127
1, 382825, Note_on_c, 7, 67, 127
1, 382892, Note_off_c, 0, 48, 127
1, 382893, Note_off_c, 7, 67, 127
1, 382896, Note_on_c, 11, 46, 127
1, 382896, Note_on_c, 0, 60, 127
1, 383036, Note_off_c, 0, 60, 127
1, 383040, Note_on_c, 4, 64, 127
1, 383179, Note_off_c, 11, 46, 127
1, 383180, Note_off_c, 4, 64, 127
1, 383184, Note_on_c, 8, 44, 127
1, 383184, Note_on_c, 5, 65, 127
1, 383324, Note_off_c, 5, 65, 127
1, 383328, Note_on_c, 7, 67, 127
1, 383397, Note_off_c, 7, 67, 127
1, 383401, Note_on_c, 8, 68, 127
1, 383467, Note_off_c, 8, 44, 127
1, 383470, Note_off_c, 8, 68, 127
1, 383473, Note_on_c, 4, 40, 127
1, 383473, Note_on_c, 7, 67, 127
1, 383613, Note_off_c, 7, 67, 127
1, 383617, Note_on_c, 8, 68, 127
1, 383686, Note_off_c, 8, 68, 127
1, 383689, Note_on_c, 11, 70, 127
1, 383756, Note_off_c, 4, 40, 127
1, 383757, Note_off_c, 11, 70, 127
1, 383761, Note_on_c, 5, 41, 127
1, 383761, Note_on_c, 8, 68, 127
1, 383901, Note_off_c, 8, 68, 127
1, 383905, Note_on_c, 11, 70, 127
1, 383974, Note_off_c, 11, 70, 127
1, 383977, Note_on_c, 0, 72, 127
1, 384044, Note_off_c, 5, 41, 127
1, 384045, Note_off_c, 0, 72, 127
1, 384049, Note_on_c, 0, 48, 127
1, 384049, Note_on_c, 4, 64, 127
1, 384189, Note_off_c, 4, 64, 127
1, 384189, Note_off_c, 0, 48, 127
1, 384192, Note_on_c, 11, 46, 127
1, 384192, Note_on_c, 7, 67, 127
1, 384332, Note_off_c, 7, 67, 127
1, 384332, Note_off_c, 11, 46, 127
1, 384336, Note_on_c, 8, 44, 127
1, 384336, Note_on_c, 5, 65, 127
1, 384476, Note_off_c, 5, 65, 127
1, 384476, Note_off_c, 8, 44, 127
1, 384480, Note_on_c, 5, 53, 127
1, 384480, Note_on_c, 7, 67, 127
1, 384549, Note_off_c, 7, 67, 127
1, 384553, Note_on_c, 8, 68, 127
1, 384620, Note_off_c, 5, 53, 127
1, 384621, Note_off_c, 8, 68, 127
1, 384624, Note_on_c, 4, 52, 127
1, 384624, Note_on_c, 7, 67, 127
1, 384764, Note_off_c, 7, 67, 127
1, 384764, Note_off_c, 4, 52, 127
1, 384768, Note_on_c, 0, 48, 127
1, 384768, Note_on_c, 0, 72, 127
1, 384908, Note_off_c, 0, 72, 127
1, 384908, Note_off_c, 0, 48, 127
1, 384912, Note_on_c, 5, 65, 127
1, 384912, Note_on_c, 5, 53, 127
1, 384912, Note_on_c, 8, 68, 127
1, 385052, Note_off_c, 5, 53, 127
1, 385058, Note_on_c, 0, 48, 127
1, 385194, Note_off_c, 5, 65, 127
1, 385195, Note_off_c, 8, 68, 127
1, 385198, Note_off_c, 0, 48, 127
1, 385204, Note_on_c, 8, 44, 127
1, 385204, Note_on_c, 5, 65, 127
1, 385343, Note_off_c, 5, 65, 127
1, 385344, Note_off_c, 8, 44, 127
1, 385348, Note_on_c, 0, 48, 127
1, 385348, Note_on_c, 7, 67, 127
1, 385487, Note_off_c, 7, 67, 127
1, 385487, Note_off_c, 0, 48, 127
1, 385488, Note_on_c, 5, 41, 127
1, 385488, Note_on_c, 8, 68, 127
1, 385627, Note_off_c, 5, 41, 127
1, 385628, Note_on_c, 0, 48, 127
1, 385767, Note_off_c, 0, 48, 127
1, 385767, Note_off_c, 8, 68, 127
1, 385768, Note_on_c, 2, 50, 127
1, 385768, Note_on_c, 0, 72, 127
1, 385907, Note_off_c, 2, 50, 127
1, 385908, Note_on_c, 4, 52, 127
1, 386047, Note_off_c, 4, 52, 127
1, 386047, Note_off_c, 0, 72, 127
1, 386048, Note_on_c, 5, 53, 127
1, 386048, Note_on_c, 8, 68, 127
1, 386187, Note_off_c, 5, 53, 127
1, 386188, Note_on_c, 0, 60, 127
1, 386327, Note_off_c, 0, 60, 127
1, 386327, Note_off_c, 8, 68, 127
1, 386328, Note_on_c, 2, 62, 127
1, 386328, Note_on_c, 5, 65, 127
1, 386467, Note_off_c, 2, 62, 127
1, 386468, Note_on_c, 4, 64, 127
1, 386606, Note_off_c, 5, 65, 127
1, 386607, Note_off_c, 4, 64, 127
1, 386608, Note_on_c, 5, 65, 127
1, 386747, Note_off_c, 5, 65, 127
1, 386748, Note_on_c, 0, 60, 127
1, 386887, Note_off_c, 0, 60, 127
1, 386888, Note_on_c, 8, 56, 127
1, 386888, Note_on_c, 0, 72, 127
1, 387027, Note_off_c, 8, 56, 127
1, 387028, Note_on_c, 0, 60, 127
1, 387167, Note_off_c, 0, 60, 127
1, 387167, Note_off_c, 0, 72, 127
1, 387168, Note_on_c, 5, 53, 127
1, 387168, Note_on_c, 8, 68, 127
1, 387307, Note_off_c, 5, 53, 127
1, 387308, Note_on_c, 0, 60, 127
1, 387447, Note_off_c, 0, 60, 127
1, 387447, Note_off_c, 8, 68, 127
1, 387448, Note_on_c, 2, 62, 127
1, 387448, Note_on_c, 5, 65, 127
1, 387587, Note_off_c, 5, 65, 127
1, 387587, Note_off_c, 2, 62, 127
1, 387588, Note_on_c, 4, 64, 127
1, 387588, Note_on_c, 7, 67, 127
1, 387727, Note_off_c, 7, 67, 127
1, 387727, Note_off_c, 4, 64, 127
1, 387728, Note_on_c, 5, 65, 127
1, 387728, Note_on_c, 8, 68, 127
1, 387867, Note_off_c, 5, 65, 127
1, 387868, Note_on_c, 0, 60, 127
1, 388007, Note_off_c, 0, 60, 127
1, 388007, Note_off_c, 8, 68, 127
1, 388008, Note_on_c, 8, 56, 127
1, 388008, Note_on_c, 0, 72, 127
1, 388147, Note_off_c, 8, 56, 127
1, 388148, Note_on_c, 0, 60, 127
1, 388287, Note_off_c, 0, 60, 127
1, 388287, Note_off_c, 0, 72, 127
1, 388288, Note_on_c, 5, 53, 127
1, 388288, Note_on_c, 8, 68, 127
1, 388427, Note_off_c, 5, 53, 127
1, 388428, Note_on_c, 0, 60, 127
1, 388567, Note_off_c, 0, 60, 127
1, 388567, Note_off_c, 8, 68, 127
1, 388568, Note_on_c, 2, 62, 127
1, 388568, Note_on_c, 5, 65, 127
1, 388707, Note_off_c, 2, 62, 127
1, 388708, Note_on_c, 4, 64, 127
1, 388847, Note_off_c, 4, 64, 127
1, 388847, Note_off_c, 5, 65, 127
1, 388848, Note_on_c, 5, 65, 127
1, 388988, Note_on_c, 5, 53, 127
1, 389127, Note_off_c, 5, 53, 127
1, 389127, Note_off_c, 5, 65, 127
1, 389128, Note_on_c, 7, 55, 127
1, 389128, Note_on_c, 0, 72, 127
1, 389267, Note_off_c, 7, 55, 127
1, 389268, Note_on_c, 8, 56, 127
1, 389407, Note_off_c, 8, 56, 127
1, 389407, Note_off_c, 0, 72, 127
1, 389408, Note_on_c, 11, 58, 127
1, 389408, Note_on_c, 1, 73, 127
1, 389548, Note_on_c, 8, 68, 127
1, 389687, Note_off_c, 8, 68, 127
1, 389687, Note_off_c, 1, 73, 127
1, 389687, Note_off_c, 11, 58, 127
1, 389688, Note_on_c, 7, 67, 127
1, 389688, Note_on_c, 11, 46, 127
1, 389688, Note_on_c, 1, 73, 127
1, 389827, Note_off_c, 7, 67, 127
1, 389828, Note_on_c, 5, 65, 127
1, 389967, Note_off_c, 5, 65, 127
1, 389968, Note_on_c, 7, 67, 127
1, 390107, Note_off_c, 1, 73, 127
1, 390107, Note_off_c, 11, 46, 127
1, 390108, Note_on_c, 3, 51, 127
1, 390108, Note_on_c, 0, 72, 127
1, 390247, Note_off_c, 0, 72, 127
1, 390247, Note_off_c, 3, 51, 127
1, 390248, Note_on_c, 5, 53, 127
1, 390248, Note_on_c, 1, 73, 127
1, 390387, Note_off_c, 1, 73, 127
1, 390387, Note_off_c, 5, 53, 127
1, 390388, Note_on_c, 7, 55, 127
1, 390388, Note_on_c, 11, 70, 127
1, 390527, Note_off_c, 11, 70, 127
1, 390527, Note_off_c, 7, 55, 127
1, 390528, Note_on_c, 8, 56, 127
1, 390528, Note_on_c, 0, 72, 127
1, 390667, Note_off_c, 7, 67, 127
1, 390668, Note_on_c, 7, 67, 127
1, 390807, Note_off_c, 7, 67, 127
1, 390807, Note_off_c, 0, 72, 127
1, 390807, Note_off_c, 8, 56, 127
1, 390808, Note_on_c, 5, 65, 127
1, 390808, Note_on_c, 8, 44, 127
1, 390808, Note_on_c, 0, 72, 127
1, 390947, Note_off_c, 5, 65, 127
1, 390948, Note_on_c, 4, 64, 127
1, 391087, Note_off_c, 4, 64, 127
1, 391088, Note_on_c, 5, 65, 127
1, 391227, Note_off_c, 0, 72, 127
1, 391227, Note_off_c, 8, 44, 127
1, 391228, Note_on_c, 2, 50, 127
1, 391228, Note_on_c, 11, 70, 127
1, 391367, Note_off_c, 11, 70, 127
1, 391367, Note_off_c, 2, 50, 127
1, 391368, Note_on_c, 4, 52, 127
1, 391368, Note_on_c, 0, 72, 127
1, 391507, Note_off_c, 0, 72, 127
1, 391507, Note_off_c, 4, 52, 127
1, 391508, Note_on_c, 5, 53, 127
1, 391508, Note_on_c, 8, 68, 127
1, 391647, Note_off_c, 8, 68, 127
1, 391647, Note_off_c, 5, 53, 127
1, 391648, Note_on_c, 7, 55, 127
1, 391648, Note_on_c, 11, 70, 127
1, 391787, Note_off_c, 5, 65, 127
1, 391788, Note_on_c, 5, 65, 127
1, 391927, Note_off_c, 5, 65, 127
1, 391927, Note_off_c, 11, 70, 127
1, 391927, Note_off_c, 7, 55, 127
1, 391928, Note_on_c, 4, 64, 127
1, 391928, Note_on_c, 7, 43, 127
1, 391928, Note_on_c, 11, 70, 127
1, 392067, Note_off_c, 4, 64, 127
1, 392068, Note_on_c, 2, 62, 127
1, 392207, Note_off_c, 2, 62, 127
1, 392208, Note_on_c, 4, 64, 127
1, 392347, Note_off_c, 11, 70, 127
1, 392347, Note_off_c, 7, 43, 127
1, 392348, Note_on_c, 0, 48, 127
1, 392348, Note_on_c, 8, 68, 127
1, 392487, Note_off_c, 8, 68, 127
1, 392487, Note_off_c, 0, 48, 127
1, 392488, Note_on_c, 11, 46, 127
1, 392488, Note_on_c, 11, 70, 127
1, 392627, Note_off_c, 11, 70, 127
1, 392627, Note_off_c, 11, 46, 127
1, 392628, Note_on_c, 0, 48, 127
1, 392628, Note_on_c, 7, 67, 127
1, 392767, Note_off_c, 7, 67, 127
1, 392767, Note_off_c, 0, 48, 127
1, 392767, Note_off_c, 4, 64, 127
1, 392768, Note_on_c, 5, 65, 127
1, 392768, Note_on_c, 5, 41, 127
1, 392768, Note_on_c, 8, 68, 127
1, 392907, Note_off_c, 8, 68, 127
1, 392907, Note_off_c, 5, 41, 127
1, 392908, Note_on_c, 0, 48, 127
1, 392908, Note_on_c, 7, 67, 127
1, 393046, Note_off_c, 5, 65, 127
1, 393047, Note_off_c, 7, 67, 127
1, 393047, Note_off_c, 0, 48, 127
1, 393048, Note_on_c, 2, 50, 127
1, 393048, Note_on_c, 5, 65, 127
1, 393187, Note_off_c, 2, 50, 127
1, 393188, Note_on_c, 4, 52, 127
1, 393188, Note_on_c, 7, 67, 127
1, 393327, Note_off_c, 7, 67, 127
1, 393327, Note_off_c, 4, 52, 127
1, 393328, Note_on_c, 5, 53, 127
1, 393328, Note_on_c, 8, 68, 127
1, 393467, Note_off_c, 8, 68, 127
1, 393467, Note_off_c, 5, 53, 127
1, 393468, Note_on_c, 3, 51, 127
1, 393468, Note_on_c, 11, 70, 127
1, 393607, Note_off_c, 11, 70, 127
1, 393607, Note_off_c, 3, 51, 127
1, 393608, Note_on_c, 1, 49, 127
1, 393608, Note_on_c, 0, 72, 127
1, 393747, Note_off_c, 0, 72, 127
1, 393747, Note_off_c, 1, 49, 127
1, 393748, Note_on_c, 0, 48, 127
1, 393748, Note_on_c, 8, 68, 127
1, 393887, Note_off_c, 8, 68, 127
1, 393887, Note_off_c, 0, 48, 127
1, 393888, Note_on_c, 11, 46, 127
1, 393888, Note_on_c, 1, 73, 127
1, 394027, Note_off_c, 1, 73, 127
1, 394027, Note_off_c, 11, 46, 127
1, 394028, Note_on_c, 5, 53, 127
1, 394028, Note_on_c, 0, 72, 127
1, 394167, Note_off_c, 0, 72, 127
1, 394167, Note_off_c, 5, 53, 127
1, 394167, Note_off_c, 5, 65, 127
1, 394168, Note_on_c, 7, 55, 127
1, 394168, Note_on_c, 11, 70, 127
1, 394307, Note_off_c, 11, 70, 127
1, 394307, Note_off_c, 7, 55, 127
1, 394308, Note_on_c, 10, 57, 127
1, 394308, Note_on_c, 0, 72, 127
1, 394447, Note_off_c, 0, 72, 127
1, 394447, Note_off_c, 10, 57, 127
1, 394448, Note_on_c, 11, 58, 127
1, 394448, Note_on_c, 1, 73, 127
1, 394587, Note_off_c, 1, 73, 127
1, 394587, Note_off_c, 11, 58, 127
1, 394588, Note_on_c, 8, 56, 127
1, 394588, Note_on_c, 3, 75, 127
1, 394727, Note_off_c, 3, 75, 127
1, 394727, Note_off_c, 8, 56, 127
1, 394728, Note_on_c, 7, 55, 127
1, 394728, Note_on_c, 5, 77, 127
1, 394867, Note_off_c, 5, 77, 127
1, 394867, Note_off_c, 7, 55, 127
1, 394868, Note_on_c, 5, 53, 127
1, 394868, Note_on_c, 11, 70, 127
1, 395007, Note_off_c, 5, 53, 127
1, 395008, Note_on_c, 4, 52, 127
1, 395008, Note_on_c, 7, 79, 127
1, 395147, Note_off_c, 7, 79, 127
1, 395148, Note_on_c, 0, 72, 127
1, 395277, Note_off_c, 11, 70, 127
1, 395287, Note_off_c, 0, 72, 127
1, 395287, Note_off_c, 4, 52, 127
1, 395288, Note_on_c, 8, 68, 127
1, 395288, Note_on_c, 5, 53, 127
1, 395288, Note_on_c, 5, 77, 127
1, 395427, Note_off_c, 5, 77, 127
1, 395427, Note_off_c, 5, 53, 127
1, 395428, Note_on_c, 11, 46, 127
1, 395428, Note_on_c, 7, 79, 127
1, 395566, Note_off_c, 8, 68, 127
1, 395567, Note_off_c, 7, 79, 127
1, 395567, Note_off_c, 11, 46, 127
1, 395568, Note_on_c, 0, 48, 127
1, 395568, Note_on_c, 5, 77, 127
1, 395634, Note_on_c, 4, 76, 127
1, 395638, Note_off_c, 5, 77, 127
1, 395698, Note_on_c, 5, 77, 127
1, 395704, Note_off_c, 4, 76, 127
1, 395708, Note_on_c, 7, 67, 127
1, 395762, Note_on_c, 4, 76, 127
1, 395768, Note_off_c, 5, 77, 127
1, 395847, Note_off_c, 7, 67, 127
1, 395847, Note_off_c, 0, 48, 127
1, 395848, Note_on_c, 0, 72, 127
1, 395848, Note_on_c, 0, 36, 127
1, 395987, Note_off_c, 0, 72, 127
1, 395988, Note_on_c, 11, 70, 127
1, 396127, Note_off_c, 11, 70, 127
1, 396127, Note_off_c, 0, 36, 127
1, 396128, Note_on_c, 8, 68, 127
1, 396128, Note_on_c, 5, 41, 127
1, 396128, Note_on_c, 5, 77, 127
1, 396141, Note_off_c, 4, 76, 127
1, 396267, Note_off_c, 8, 68, 127
1, 396271, Note_on_c, 11, 70, 127
1, 396340, Note_off_c, 11, 70, 127
1, 396344, Note_on_c, 0, 72, 127
1, 396407, Note_off_c, 5, 41, 127
1, 396413, Note_off_c, 0, 72, 127
1, 396416, Note_on_c, 5, 53, 127
1, 396416, Note_on_c, 5, 65, 127
1, 396537, Note_off_c, 5, 77, 127
1, 396556, Note_off_c, 5, 65, 127
1, 396560, Note_on_c, 8, 68, 127
1, 396699, Note_off_c, 5, 53, 127
1, 396700, Note_off_c, 8, 68, 127
1, 396704, Note_on_c, 4, 52, 127
1, 396704, Note_on_c, 7, 67, 127
1, 396844, Note_off_c, 7, 67, 127
1, 396848, Note_on_c, 0, 72, 127
1, 396987, Note_off_c, 4, 52, 127
1, 396988, Note_off_c, 0, 72, 127
1, 396992, Note_on_c, 4, 76, 127
1, 396992, Note_on_c, 0, 48, 127
1, 397135, Note_on_c, 11, 70, 127
1, 397275, Note_off_c, 11, 70, 127
1, 397275, Note_off_c, 0, 48, 127
1, 397275, Note_off_c, 4, 76, 127
1, 397279, Note_on_c, 5, 77, 127
1, 397279, Note_on_c, 5, 53, 127
1, 397279, Note_on_c, 8, 68, 127
1, 397419, Note_off_c, 8, 68, 127
1, 397423, Note_on_c, 11, 70, 127
1, 397492, Note_off_c, 11, 70, 127
1, 397496, Note_on_c, 0, 72, 127
1, 397562, Note_off_c, 5, 53, 127
1, 397565, Note_off_c, 0, 72, 127
1, 397568, Note_on_c, 5, 41, 127
1, 397568, Note_on_c, 5, 65, 127
1, 397695, Note_off_c, 5, 77, 127
1, 397708, Note_off_c, 5, 65, 127
1, 397712, Note_on_c, 8, 68, 127
1, 397851, Note_off_c, 5, 41, 127
1, 397852, Note_off_c, 8, 68, 127
1, 397856, Note_on_c, 4, 52, 127
1, 397856, Note_on_c, 7, 67, 127
1, 397996, Note_off_c, 7, 67, 127
1, 398000, Note_on_c, 0, 72, 127
1, 398139, Note_off_c, 4, 52, 127
1, 398145, Note_on_c, 4, 76, 127
1, 398145, Note_on_c, 0, 48, 127
1, 398284, Note_off_c, 0, 72, 127
1, 398290, Note_on_c, 11, 70, 127
1, 398429, Note_off_c, 0, 48, 127
1, 398429, Note_off_c, 4, 76, 127
1, 398430, Note_off_c, 11, 70, 127
1, 398433, Note_on_c, 5, 77, 127
1, 398433, Note_on_c, 5, 53, 127
1, 398433, Note_on_c, 8, 68, 127
1, 398573, Note_off_c, 8, 68, 127
1, 398577, Note_on_c, 11, 70, 127
1, 398646, Note_off_c, 11, 70, 127
1, 398650, Note_on_c, 0, 72, 127
1, 398716, Note_off_c, 5, 53, 127
1, 398719, Note_off_c, 0, 72, 127
1, 398722, Note_on_c, 8, 56, 127
1, 398722, Note_on_c, 5, 65, 127
1, 398849, Note_off_c, 5, 77, 127
1, 398862, Note_off_c, 5, 65, 127
1, 398866, Note_on_c, 8, 68, 127
1, 399005, Note_off_c, 8, 56, 127
1, 399006, Note_off_c, 8, 68, 127
1, 399010, Note_on_c, 11, 58, 127
1, 399010, Note_on_c, 2, 62, 127
1, 399150, Note_off_c, 2, 62, 127
1, 399154, Note_on_c, 5, 65, 127
1, 399293, Note_off_c, 11, 58, 127
1, 399299, Note_on_c, 2, 74, 127
1, 399299, Note_on_c, 11, 46, 127
1, 399438, Note_off_c, 5, 65, 127
1, 399444, Note_on_c, 8, 68, 127
1, 399583, Note_off_c, 11, 46, 127
1, 399583, Note_off_c, 2, 74, 127
1, 399584, Note_off_c, 8, 68, 127
1, 399587, Note_on_c, 3, 75, 127
1, 399587, Note_on_c, 3, 51, 127
1, 399587, Note_on_c, 7, 67, 127
1, 399727, Note_off_c, 7, 67, 127
1, 399731, Note_on_c, 8, 68, 127
1, 399800, Note_off_c, 8, 68, 127
1, 399804, Note_on_c, 11, 70, 127
1, 399870, Note_off_c, 3, 51, 127
1, 399873, Note_off_c, 11, 70, 127
1, 399876, Note_on_c, 7, 55, 127
1, 399876, Note_on_c, 3, 63, 127
1, 400003, Note_off_c, 3, 75, 127
1, 400016, Note_off_c, 3, 63, 127
1, 400020, Note_on_c, 7, 67, 127
1, 400159, Note_off_c, 7, 55, 127
1, 400160, Note_off_c, 7, 67, 127
1, 400164, Note_on_c, 11, 58, 127
1, 400164, Note_on_c, 2, 62, 127
1, 400304, Note_off_c, 2, 62, 127
1, 400308, Note_on_c, 5, 65, 127
1, 400447, Note_off_c, 11, 58, 127
1, 400453, Note_on_c, 2, 74, 127
1, 400453, Note_on_c, 11, 46, 127
1, 400592, Note_off_c, 5, 65, 127
1, 400598, Note_on_c, 8, 68, 127
1, 400737, Note_off_c, 11, 46, 127
1, 400737, Note_off_c, 2, 74, 127
1, 400738, Note_off_c, 8, 68, 127
1, 400741, Note_on_c, 3, 75, 127
1, 400741, Note_on_c, 3, 51, 127
1, 400741, Note_on_c, 7, 67, 127
1, 400881, Note_off_c, 7, 67, 127
1, 400885, Note_on_c, 0, 72, 127
1, 400954, Note_off_c, 0, 72, 127
1, 400958, Note_on_c, 12, 71, 127
1, 401024, Note_off_c, 3, 51, 127
1, 401027, Note_off_c, 12, 71, 127
1, 401030, Note_on_c, 0, 48, 127
1, 401030, Note_on_c, 0, 72, 127
1, 401157, Note_off_c, 3, 75, 127
1, 401170, Note_off_c, 0, 72, 127
1, 401174, Note_on_c, 0, 60, 127
1, 401313, Note_off_c, 0, 48, 127
1, 401314, Note_off_c, 0, 60, 127
1, 401318, Note_on_c, 7, 55, 127
1, 401318, Note_on_c, 2, 62, 127
1, 401458, Note_off_c, 2, 62, 127
1, 401462, Note_on_c, 5, 65, 127
1, 401601, Note_off_c, 7, 55, 127
1, 401602, Note_off_c, 5, 65, 127
1, 401606, Note_on_c, 12, 71, 127
1, 401606, Note_on_c, 7, 43, 127
1, 401751, Note_on_c, 5, 65, 127
1, 401890, Note_off_c, 7, 43, 127
1, 401890, Note_off_c, 12, 71, 127
1, 401891, Note_off_c, 5, 65, 127
1, 401895, Note_on_c, 0, 72, 127
1, 401895, Note_on_c, 0, 48, 127
1, 401895, Note_on_c, 3, 63, 127
1, 402035, Note_off_c, 3, 63, 127
1, 402038, Note_on_c, 5, 65, 127
1, 402107, Note_off_c, 5, 65, 127
1, 402111, Note_on_c, 7, 67, 127
1, 402178, Note_off_c, 0, 48, 127
1, 402179, Note_off_c, 7, 67, 127
1, 402182, Note_on_c, 3, 51, 127
1, 402182, Note_on_c, 0, 60, 127
1, 402311, Note_off_c, 0, 72, 127
1, 402323, Note_off_c, 0, 60, 127
1, 402327, Note_on_c, 2, 62, 127
1, 402396, Note_off_c, 2, 62, 127
1, 402400, Note_on_c, 3, 63, 127
1, 402466, Note_off_c, 3, 51, 127
1, 402469, Note_off_c, 3, 63, 127
1, 402472, Note_on_c, 7, 55, 127
1, 402472, Note_on_c, 12, 59, 127
1, 402612, Note_off_c, 12, 59, 127
1, 402616, Note_on_c, 2, 62, 127
1, 402755, Note_off_c, 7, 55, 127
1, 402756, Note_off_c, 2, 62, 127
1, 402760, Note_on_c, 12, 71, 127
1, 402760, Note_on_c, 7, 43, 127
1, 402760, Note_on_c, 7, 67, 127
1, 402900, Note_off_c, 7, 67, 127
1, 402904, Note_on_c, 5, 65, 127
1, 403043, Note_off_c, 7, 43, 127
1, 403043, Note_off_c, 12, 71, 127
1, 403044, Note_off_c, 5, 65, 127
1, 403048, Note_on_c, 0, 72, 127
1, 403048, Note_on_c, 0, 48, 127
1, 403048, Note_on_c, 3, 63, 127
1, 403117, Note_off_c, 3, 63, 127
1, 403120, Note_on_c, 5, 65, 127
1, 403189, Note_off_c, 5, 65, 127
1, 403192, Note_on_c, 7, 67, 127
1, 403332, Note_off_c, 7, 67, 127
1, 403332, Note_off_c, 0, 48, 127
1, 403336, Note_on_c, 12, 47, 127
1, 403336, Note_on_c, 2, 62, 127
1, 403405, Note_off_c, 2, 62, 127
1, 403409, Note_on_c, 3, 63, 127
1, 403465, Note_off_c, 0, 72, 127
1, 403478, Note_off_c, 3, 63, 127
1, 403481, Note_on_c, 5, 65, 127
1, 403620, Note_off_c, 12, 47, 127
1, 403621, Note_off_c, 5, 65, 127
1, 403625, Note_on_c, 0, 48, 127
1, 403625, Note_on_c, 3, 63, 127
1, 403694, Note_off_c, 3, 63, 127
1, 403698, Note_on_c, 5, 65, 127
1, 403767, Note_off_c, 5, 65, 127
1, 403770, Note_on_c, 7, 67, 127
1, 403909, Note_off_c, 0, 48, 127
1, 403910, Note_off_c, 7, 67, 127
1, 403914, Note_on_c, 12, 71, 127
1, 403914, Note_on_c, 2, 50, 127
1, 403914, Note_on_c, 5, 65, 127
1, 403983, Note_off_c, 5, 65, 127
1, 403986, Note_on_c, 7, 67, 127
1, 404055, Note_off_c, 7, 67, 127
1, 404059, Note_on_c, 8, 68, 127
1, 404198, Note_off_c, 2, 50, 127
1, 404198, Note_off_c, 12, 71, 127
1, 404199, Note_off_c, 8, 68, 127
1, 404203, Note_on_c, 0, 72, 127
1, 404203, Note_on_c, 3, 51, 127
1, 404203, Note_on_c, 7, 67, 127
1, 404343, Note_off_c, 7, 67, 127
1, 404346, Note_on_c, 0, 60, 127
1, 404486, Note_off_c, 0, 60, 127
1, 404486, Note_off_c, 3, 51, 127
1, 404490, Note_on_c, 2, 50, 127
1, 404490, Note_on_c, 5, 65, 127
1, 404619, Note_off_c, 0, 72, 127
1, 404631, Note_off_c, 5, 65, 127
1, 404635, Note_on_c, 0, 60, 127
1, 404774, Note_off_c, 2, 50, 127
1, 404775, Note_off_c, 0, 60, 127
1, 404779, Note_on_c, 3, 51, 127
1, 404779, Note_on_c, 7, 67, 127
1, 404919, Note_off_c, 7, 67, 127
1, 404923, Note_on_c, 0, 60, 127
1, 405062, Note_off_c, 3, 51, 127
1, 405063, Note_off_c, 0, 60, 127
1, 405067, Note_on_c, 2, 74, 127
1, 405067, Note_on_c, 12, 47, 127
1, 405067, Note_on_c, 7, 67, 127
1, 405207, Note_off_c, 7, 67, 127
1, 405211, Note_on_c, 2, 62, 127
1, 405350, Note_off_c, 12, 47, 127
1, 405350, Note_off_c, 2, 74, 127
1, 405351, Note_off_c, 2, 62, 127
1, 405355, Note_on_c, 0, 72, 127
1, 405355, Note_on_c, 0, 48, 127
1, 405355, Note_on_c, 3, 63, 127
1, 405424, Note_off_c, 3, 63, 127
1, 405427, Note_on_c, 5, 65, 127
1, 405496, Note_off_c, 5, 65, 127
1, 405500, Note_on_c, 7, 67, 127
1, 405639, Note_off_c, 0, 48, 127
1, 405640, Note_off_c, 7, 67, 127
1, 405643, Note_on_c, 12, 47, 127
1, 405643, Note_on_c, 2, 62, 127
1, 405712, Note_off_c, 2, 62, 127
1, 405716, Note_on_c, 3, 63, 127
1, 405772, Note_off_c, 0, 72, 127
1, 405785, Note_off_c, 3, 63, 127
1, 405788, Note_on_c, 5, 65, 127
1, 405927, Note_off_c, 12, 47, 127
1, 405928, Note_off_c, 5, 65, 127
1, 405932, Note_on_c, 0, 48, 127
1, 405932, Note_on_c, 3, 63, 127
1, 406001, Note_off_c, 3, 63, 127
1, 406005, Note_on_c, 5, 65, 127
1, 406074, Note_off_c, 5, 65, 127
1, 406077, Note_on_c, 7, 67, 127
1, 406216, Note_off_c, 0, 48, 127
1, 406217, Note_off_c, 7, 67, 127
1, 406221, Note_on_c, 12, 71, 127
1, 406221, Note_on_c, 2, 50, 127
1, 406221, Note_on_c, 5, 65, 127
1, 406290, Note_off_c, 5, 65, 127
1, 406293, Note_on_c, 7, 67, 127
1, 406362, Note_off_c, 7, 67, 127
1, 406366, Note_on_c, 8, 68, 127
1, 406505, Note_off_c, 2, 50, 127
1, 406505, Note_off_c, 12, 71, 127
1, 406506, Note_off_c, 8, 68, 127
1, 406510, Note_on_c, 0, 72, 127
1, 406510, Note_on_c, 3, 51, 127
1, 406510, Note_on_c, 7, 67, 127
1, 406650, Note_off_c, 7, 67, 127
1, 406654, Note_on_c, 0, 60, 127
1, 406793, Note_off_c, 3, 51, 127
1, 406794, Note_off_c, 0, 60, 127
1, 406797, Note_on_c, 8, 56, 127
1, 406797, Note_on_c, 5, 65, 127
1, 406866, Note_off_c, 5, 65, 127
1, 406870, Note_on_c, 3, 63, 127
1, 406926, Note_off_c, 0, 72, 127
1, 406938, Note_off_c, 8, 56, 127
1, 406939, Note_off_c, 3, 63, 127
1, 406942, Note_on_c, 5, 53, 127
1, 406942, Note_on_c, 2, 62, 127
1, 407082, Note_off_c, 2, 62, 127
1, 407082, Note_off_c, 5, 53, 127
1, 407086, Note_on_c, 7, 55, 127
1, 407086, Note_on_c, 3, 63, 127
1, 407231, Note_on_c, 0, 72, 127
1, 407370, Note_off_c, 3, 63, 127
1, 407370, Note_off_c, 7, 55, 127
1, 407376, Note_on_c, 7, 43, 127
1, 407376, Note_on_c, 2, 62, 127
1, 407515, Note_off_c, 0, 72, 127
1, 407516, Note_off_c, 2, 62, 127
1, 407520, Note_on_c, 12, 71, 127
1, 407520, Note_on_c, 7, 67, 127
1, 407659, Note_off_c, 7, 43, 127
1, 407660, Note_off_c, 7, 67, 127
1, 407660, Note_off_c, 12, 71, 127
1, 407664, Note_on_c, 0, 72, 127
1, 407664, Note_on_c, 0, 48, 127
1, 407664, Note_on_c, 3, 63, 127
1, 407799, Note_on_c, 7, 55, 127
1, 407805, Note_off_c, 0, 48, 127
1, 407938, Note_off_c, 7, 55, 127
1, 407939, Note_on_c, 10, 57, 127
1, 407939, Note_on_c, 0, 60, 127
1, 407948, Note_off_c, 3, 63, 127
1, 408078, Note_off_c, 0, 60, 127
1, 408078, Note_off_c, 10, 57, 127
1, 408079, Note_on_c, 12, 59, 127
1, 408079, Note_on_c, 2, 62, 127
1, 408218, Note_off_c, 2, 62, 127
1, 408218, Note_off_c, 12, 59, 127
1, 408219, Note_on_c, 0, 60, 127
1, 408219, Note_on_c, 3, 63, 127
1, 408229, Note_off_c, 0, 72, 127
1, 408358, Note_off_c, 0, 60, 127
1, 408359, Note_on_c, 7, 55, 127
1, 408498, Note_off_c, 7, 55, 127
1, 408498, Note_off_c, 3, 63, 127
1, 408499, Note_on_c, 3, 51, 127
1, 408499, Note_on_c, 7, 67, 127
1, 408638, Note_off_c, 3, 51, 127
1, 408639, Note_on_c, 7, 55, 127
1, 408778, Note_off_c, 7, 55, 127
1, 408778, Note_off_c, 7, 67, 127
1, 408779, Note_on_c, 0, 48, 127
1, 408779, Note_on_c, 3, 63, 127
1, 408918, Note_off_c, 0, 48, 127
1, 408919, Note_on_c, 7, 55, 127
1, 409058, Note_off_c, 7, 55, 127
1, 409058, Note_off_c, 3, 63, 127
1, 409059, Note_on_c, 10, 57, 127
1, 409059, Note_on_c, 0, 60, 127
1, 409198, Note_off_c, 10, 57, 127
1, 409199, Note_on_c, 12, 59, 127
1, 409337, Note_off_c, 0, 60, 127
1, 409338, Note_off_c, 12, 59, 127
1, 409339, Note_on_c, 0, 60, 127
1, 409478, Note_off_c, 0, 60, 127
1, 409479, Note_on_c, 7, 67, 127
1, 409618, Note_off_c, 7, 67, 127
1, 409619, Note_on_c, 7, 79, 127
1, 409619, Note_on_c, 10, 69, 127
1, 409758, Note_off_c, 10, 69, 127
1, 409759, Note_on_c, 12, 71, 127
1, 409898, Note_off_c, 12, 71, 127
1, 409898, Note_off_c, 7, 79, 127
1, 409899, Note_on_c, 3, 75, 127
1, 409899, Note_on_c, 0, 72, 127
1, 410038, Note_off_c, 0, 72, 127
1, 410039, Note_on_c, 7, 67, 127
1, 410178, Note_off_c, 7, 67, 127
1, 410178, Note_off_c, 3, 75, 127
1, 410179, Note_on_c, 0, 72, 127
1, 410179, Note_on_c, 3, 63, 127
1, 410318, Note_off_c, 3, 63, 127
1, 410318, Note_off_c, 0, 72, 127
1, 410319, Note_on_c, 2, 74, 127
1, 410319, Note_on_c, 7, 67, 127
1, 410458, Note_off_c, 7, 67, 127
1, 410458, Note_off_c, 2, 74, 127
1, 410459, Note_on_c, 3, 75, 127
1, 410459, Note_on_c, 0, 60, 127
1, 410598, Note_off_c, 0, 60, 127
1, 410599, Note_on_c, 7, 67, 127
1, 410738, Note_off_c, 7, 67, 127
1, 410738, Note_off_c, 3, 75, 127
1, 410739, Note_on_c, 7, 79, 127
1, 410739, Note_on_c, 10, 69, 127
1, 410878, Note_off_c, 10, 69, 127
1, 410879, Note_on_c, 12, 71, 127
1, 411018, Note_off_c, 12, 71, 127
1, 411018, Note_off_c, 7, 79, 127
1, 411019, Note_on_c, 3, 75, 127
1, 411019, Note_on_c, 0, 72, 127
1, 411158, Note_off_c, 0, 72, 127
1, 411159, Note_on_c, 7, 67, 127
1, 411298, Note_off_c, 7, 67, 127
1, 411298, Note_off_c, 3, 75, 127
1, 411299, Note_on_c, 0, 72, 127
1, 411299, Note_on_c, 3, 63, 127
1, 411438, Note_off_c, 3, 63, 127
1, 411439, Note_on_c, 7, 67, 127
1, 411578, Note_off_c, 7, 67, 127
1, 411579, Note_on_c, 0, 60, 127
1, 411708, Note_off_c, 0, 72, 127
1, 411718, Note_off_c, 0, 60, 127
1, 411719, Note_on_c, 7, 55, 127
1, 411858, Note_off_c, 7, 55, 127
1, 411859, Note_on_c, 7, 79, 127
1, 411859, Note_on_c, 3, 51, 127
1, 411998, Note_off_c, 3, 51, 127
1, 411999, Note_on_c, 7, 55, 127
1, 412138, Note_off_c, 7, 55, 127
1, 412138, Note_off_c, 7, 79, 127
1, 412139, Note_on_c, 8, 80, 127
1, 412139, Note_on_c, 0, 48, 127
1, 412278, Note_off_c, 0, 48, 127
1, 412279, Note_on_c, 8, 56, 127
1, 412418, Note_off_c, 8, 56, 127
1, 412418, Note_off_c, 8, 80, 127
1, 412419, Note_on_c, 8, 80, 127
1, 412419, Note_on_c, 3, 51, 127
1, 412419, Note_on_c, 7, 79, 127
1, 412558, Note_off_c, 3, 51, 127
1, 412559, Note_on_c, 0, 48, 127
1, 412698, Note_off_c, 0, 48, 127
1, 412698, Note_off_c, 7, 79, 127
1, 412699, Note_on_c, 2, 50, 127
1, 412699, Note_on_c, 5, 77, 127
1, 412838, Note_off_c, 2, 50, 127
1, 412838, Note_off_c, 8, 80, 127
1, 412839, Note_on_c, 7, 79, 127
1, 412839, Note_on_c, 11, 58, 127
1, 412978, Note_off_c, 11, 58, 127
1, 412978, Note_off_c, 7, 79, 127
1, 412979, Note_on_c, 8, 80, 127
1, 412979, Note_on_c, 5, 53, 127
1, 413108, Note_off_c, 5, 77, 127
1, 413118, Note_off_c, 5, 53, 127
1, 413118, Note_off_c, 8, 80, 127
1, 413119, Note_on_c, 5, 77, 127
1, 413119, Note_on_c, 2, 50, 127
1, 413258, Note_off_c, 2, 50, 127
1, 413259, Note_on_c, 7, 79, 127
1, 413259, Note_on_c, 3, 51, 127
1, 413398, Note_off_c, 3, 51, 127
1, 413399, Note_on_c, 7, 55, 127
1, 413528, Note_off_c, 5, 77, 127
1, 413538, Note_off_c, 7, 55, 127
1, 413538, Note_off_c, 7, 79, 127
1, 413539, Note_on_c, 7, 79, 127
1, 413539, Note_on_c, 3, 51, 127
1, 413539, Note_on_c, 3, 75, 127
1, 413678, Note_off_c, 3, 75, 127
1, 413678, Note_off_c, 3, 51, 127
1, 413679, Note_on_c, 12, 47, 127
1, 413679, Note_on_c, 2, 74, 127
1, 413818, Note_off_c, 2, 74, 127
1, 413818, Note_off_c, 12, 47, 127
1, 413819, Note_on_c, 0, 48, 127
1, 413819, Note_on_c, 3, 75, 127
1, 413958, Note_off_c, 0, 48, 127
1, 413958, Note_off_c, 7, 79, 127
1, 413959, Note_on_c, 5, 77, 127
1, 413959, Note_on_c, 8, 56, 127
1, 414098, Note_off_c, 8, 56, 127
1, 414098, Note_off_c, 5, 77, 127
1, 414099, Note_on_c, 7, 79, 127
1, 414099, Note_on_c, 3, 51, 127
1, 414228, Note_off_c, 3, 75, 127
1, 414238, Note_off_c, 3, 51, 127
1, 414238, Note_off_c, 7, 79, 127
1, 414239, Note_on_c, 3, 75, 127
1, 414239, Note_on_c, 0, 48, 127
1, 414378, Note_off_c, 0, 48, 127
1, 414379, Note_on_c, 5, 77, 127
1, 414379, Note_on_c, 2, 50, 127
1, 414518, Note_off_c, 2, 50, 127
1, 414519, Note_on_c, 5, 53, 127
1, 414648, Note_off_c, 3, 75, 127
1, 414658, Note_off_c, 5, 53, 127
1, 414658, Note_off_c, 5, 77, 127
1, 414659, Note_on_c, 5, 77, 127
1, 414659, Note_on_c, 2, 50, 127
1, 414659, Note_on_c, 2, 74, 127
1, 414798, Note_off_c, 2, 74, 127
1, 414798, Note_off_c, 2, 50, 127
1, 414799, Note_on_c, 10, 45, 127
1, 414799, Note_on_c, 0, 72, 127
1, 414938, Note_off_c, 0, 72, 127
1, 414938, Note_off_c, 10, 45, 127
1, 414939, Note_on_c, 12, 47, 127
1, 414939, Note_on_c, 2, 74, 127
1, 415078, Note_off_c, 12, 47, 127
1, 415078, Note_off_c, 5, 77, 127
1, 415079, Note_on_c, 3, 75, 127
1, 415079, Note_on_c, 7, 55, 127
1, 415218, Note_off_c, 7, 55, 127
1, 415218, Note_off_c, 3, 75, 127
1, 415219, Note_on_c, 5, 77, 127
1, 415219, Note_on_c, 2, 50, 127
1, 415348, Note_off_c, 2, 74, 127
1, 415358, Note_off_c, 2, 50, 127
1, 415358, Note_off_c, 5, 77, 127
1, 415359, Note_on_c, 2, 74, 127
1, 415359, Note_on_c, 12, 47, 127
1, 415498, Note_off_c, 12, 47, 127
1, 415499, Note_on_c, 3, 75, 127
1, 415499, Note_on_c, 0, 48, 127
1, 415638, Note_off_c, 0, 48, 127
1, 415639, Note_on_c, 12, 47, 127
1, 415768, Note_off_c, 2, 74, 127
1, 415778, Note_off_c, 12, 47, 127
1, 415778, Note_off_c, 3, 75, 127
1, 415779, Note_on_c, 3, 75, 127
1, 415779, Note_on_c, 0, 48, 127
1, 415779, Note_on_c, 0, 72, 127
1, 415918, Note_off_c, 0, 72, 127
1, 415918, Note_off_c, 0, 48, 127
1, 415919, Note_on_c, 2, 50, 127
1, 415919, Note_on_c, 12, 71, 127
1, 416058, Note_off_c, 12, 71, 127
1, 416058, Note_off_c, 2, 50, 127
1, 416059, Note_on_c, 3, 51, 127
1, 416059, Note_on_c, 0, 72, 127
1, 416198, Note_off_c, 3, 51, 127
1, 416198, Note_off_c, 3, 75, 127
1, 416199, Note_on_c, 2, 74, 127
1, 416199, Note_on_c, 5, 53, 127
1, 416338, Note_off_c, 5, 53, 127
1, 416338, Note_off_c, 2, 74, 127
1, 416339, Note_on_c, 3, 75, 127
1, 416339, Note_on_c, 7, 55, 127
1, 416468, Note_off_c, 0, 72, 127
1, 416478, Note_off_c, 7, 55, 127
1, 416478, Note_off_c, 3, 75, 127
1, 416479, Note_on_c, 0, 72, 127
1, 416479, Note_on_c, 3, 51, 127
1, 416618, Note_off_c, 3, 51, 127
1, 416618, Note_off_c, 0, 72, 127
1, 416619, Note_on_c, 1, 73, 127
1, 416619, Note_on_c, 5, 53, 127
1, 416619, Note_on_c, 8, 68, 127
1, 416758, Note_off_c, 8, 68, 127
1, 416758, Note_off_c, 5, 53, 127
1, 416759, Note_on_c, 3, 51, 127
1, 416759, Note_on_c, 11, 70, 127
1, 416898, Note_off_c, 11, 70, 127
1, 416898, Note_off_c, 3, 51, 127
1, 416898, Note_off_c, 1, 73, 127
1, 416899, Note_on_c, 1, 73, 127
1, 416899, Note_on_c, 5, 53, 127
1, 416899, Note_on_c, 8, 68, 127
1, 417038, Note_off_c, 8, 68, 127
1, 417038, Note_off_c, 5, 53, 127
1, 417039, Note_on_c, 7, 55, 127
1, 417039, Note_on_c, 7, 67, 127
1, 417178, Note_off_c, 7, 67, 127
1, 417178, Note_off_c, 7, 55, 127
1, 417179, Note_on_c, 8, 56, 127
1, 417179, Note_on_c, 5, 65, 127
1, 417318, Note_off_c, 8, 56, 127
1, 417318, Note_off_c, 1, 73, 127
1, 417319, Note_on_c, 12, 71, 127
1, 417319, Note_on_c, 7, 55, 127
1, 417458, Note_off_c, 7, 55, 127
1, 417458, Note_off_c, 12, 71, 127
1, 417459, Note_on_c, 0, 72, 127
1, 417459, Note_on_c, 8, 56, 127
1, 417598, Note_off_c, 8, 56, 127
1, 417598, Note_off_c, 0, 72, 127
1, 417599, Note_on_c, 2, 74, 127
1, 417599, Note_on_c, 5, 53, 127
1, 417738, Note_off_c, 5, 53, 127
1, 417738, Note_off_c, 2, 74, 127
1, 417739, Note_on_c, 7, 55, 127
1, 417739, Note_on_c, 12, 71, 127
1, 417878, Note_off_c, 5, 65, 127
1, 417887, Note_on_c, 7, 67, 127
1, 417959, Note_off_c, 7, 67, 127
1, 417962, Note_on_c, 8, 68, 127
1, 418034, Note_off_c, 8, 68, 127
1, 418037, Note_on_c, 7, 67, 127
1, 418183, Note_off_c, 7, 67, 127
1, 418184, Note_off_c, 12, 71, 127
1, 418185, Note_on_c, 5, 65, 127
1, 418185, Note_on_c, 12, 71, 127
1, 418331, Note_off_c, 12, 71, 127
1, 418331, Note_off_c, 5, 65, 127
1, 418334, Note_on_c, 3, 63, 127
1, 418334, Note_on_c, 0, 72, 127
1, 418480, Note_off_c, 0, 72, 127
1, 418480, Note_off_c, 3, 63, 127
1, 418481, Note_on_c, 2, 62, 127
1, 418481, Note_on_c, 2, 74, 127
1, 418553, Note_off_c, 2, 74, 127
1, 418556, Note_on_c, 3, 75, 127
1, 418628, Note_off_c, 3, 75, 127
1, 418628, Note_off_c, 2, 62, 127
1, 418631, Note_on_c, 0, 60, 127
1, 418631, Note_on_c, 10, 69, 127
1, 418777, Note_off_c, 10, 69, 127
1, 418777, Note_off_c, 0, 60, 127
1, 418780, Note_on_c, 3, 63, 127
1, 418780, Note_on_c, 0, 72, 127
1, 418926, Note_off_c, 0, 72, 127
1, 418926, Note_off_c, 3, 63, 127
1, 418929, Note_on_c, 2, 62, 127
1, 418929, Note_on_c, 12, 71, 127
1, 419075, Note_off_c, 12, 71, 127
1, 419075, Note_off_c, 2, 62, 127
1, 419076, Note_on_c, 3, 63, 127
1, 419076, Note_on_c, 0, 72, 127
1, 419148, Note_off_c, 0, 72, 127
1, 419151, Note_on_c, 2, 74, 127
1, 419223, Note_off_c, 2, 74, 127
1, 419223, Note_off_c, 3, 63, 127
1, 419226, Note_on_c, 5, 65, 127
1, 419226, Note_on_c, 7, 67, 127
1, 419372, Note_off_c, 7, 67, 127
1, 419372, Note_off_c, 5, 65, 127
1, 419375, Note_on_c, 2, 62, 127
1, 419375, Note_on_c, 12, 71, 127
1, 419521, Note_off_c, 12, 71, 127
1, 419521, Note_off_c, 2, 62, 127
1, 419524, Note_on_c, 3, 63, 127
1, 419524, Note_on_c, 0, 72, 127
1, 419670, Note_off_c, 0, 72, 127
1, 419670, Note_off_c, 3, 63, 127
1, 419671, Note_on_c, 2, 62, 127
1, 419671, Note_on_c, 2, 74, 127
1, 419743, Note_off_c, 2, 74, 127
1, 419746, Note_on_c, 3, 75, 127
1, 419818, Note_off_c, 3, 75, 127
1, 419818, Note_off_c, 2, 62, 127
1, 419821, Note_on_c, 0, 60, 127
1, 419821, Note_on_c, 10, 69, 127
1, 419967, Note_off_c, 10, 69, 127
1, 419967, Note_off_c, 0, 60, 127
1, 419970, Note_on_c, 3, 63, 127
1, 419970, Note_on_c, 0, 72, 127
1, 420116, Note_off_c, 0, 72, 127
1, 420116, Note_off_c, 3, 63, 127
1, 420119, Note_on_c, 2, 62, 127
1, 420119, Note_on_c, 12, 71, 127
1, 420265, Note_off_c, 12, 71, 127
1, 420265, Note_off_c, 2, 62, 127
1, 420266, Note_on_c, 3, 63, 127
1, 420266, Note_on_c, 0, 72, 127
1, 420338, Note_off_c, 0, 72, 127
1, 420341, Note_on_c, 2, 74, 127
1, 420413, Note_off_c, 2, 74, 127
1, 420413, Note_off_c, 3, 63, 127
1, 420416, Note_on_c, 5, 65, 127
1, 420416, Note_on_c, 7, 67, 127
1, 420562, Note_off_c, 7, 67, 127
1, 420562, Note_off_c, 5, 65, 127
1, 420563, Note_off_c, 7, 55, 127
1, 420564, Note_on_c, 2, 62, 127
1, 420564, Note_on_c, 5, 53, 127
1, 420564, Note_on_c, 12, 71, 127
1, 420710, Note_off_c, 12, 71, 127
1, 420710, Note_off_c, 5, 53, 127
1, 420710, Note_off_c, 2, 62, 127
1, 420713, Note_on_c, 7, 67, 127
1, 420713, Note_on_c, 4, 52, 127
1, 420713, Note_on_c, 0, 72, 127
1, 420859, Note_off_c, 4, 52, 127
1, 420859, Note_off_c, 7, 67, 127
1, 420860, Note_on_c, 5, 65, 127
1, 420860, Note_on_c, 5, 53, 127
1, 420932, Note_off_c, 5, 53, 127
1, 420935, Note_on_c, 7, 55, 127
1, 421007, Note_off_c, 7, 55, 127
1, 421007, Note_off_c, 5, 65, 127
1, 421010, Note_on_c, 4, 64, 127
1, 421010, Note_on_c, 0, 48, 127
1, 421156, Note_off_c, 0, 48, 127
1, 421156, Note_off_c, 4, 64, 127
1, 421159, Note_on_c, 7, 67, 127
1, 421159, Note_on_c, 11, 58, 127
1, 421305, Note_off_c, 11, 58, 127
1, 421305, Note_off_c, 7, 67, 127
1, 421308, Note_on_c, 5, 65, 127
1, 421308, Note_on_c, 8, 56, 127
1, 421454, Note_off_c, 8, 56, 127
1, 421454, Note_off_c, 5, 65, 127
1, 421457, Note_on_c, 7, 67, 127
1, 421457, Note_on_c, 11, 58, 127
1, 421529, Note_off_c, 11, 58, 127
1, 421529, Note_off_c, 7, 67, 127
1, 421530, Note_on_c, 8, 68, 127
1, 421530, Note_on_c, 0, 60, 127
1, 421602, Note_off_c, 0, 60, 127
1, 421602, Note_off_c, 8, 68, 127
1, 421605, Note_on_c, 2, 62, 127
1, 421605, Note_on_c, 5, 53, 127
1, 421751, Note_off_c, 5, 53, 127
1, 421751, Note_off_c, 2, 62, 127
1, 421754, Note_on_c, 5, 65, 127
1, 421754, Note_on_c, 8, 56, 127
1, 421900, Note_off_c, 8, 56, 127
1, 421900, Note_off_c, 5, 65, 127
1, 421903, Note_on_c, 4, 64, 127
1, 421903, Note_on_c, 7, 55, 127
1, 422049, Note_off_c, 7, 55, 127
1, 422049, Note_off_c, 4, 64, 127
1, 422052, Note_on_c, 5, 65, 127
1, 422052, Note_on_c, 8, 56, 127
1, 422124, Note_off_c, 8, 56, 127
1, 422124, Note_off_c, 5, 65, 127
1, 422125, Note_on_c, 7, 67, 127
1, 422125, Note_on_c, 11, 58, 127
1, 422197, Note_off_c, 11, 58, 127
1, 422197, Note_off_c, 7, 67, 127
1, 422200, Note_on_c, 0, 60, 127
1, 422200, Note_on_c, 4, 52, 127
1, 422346, Note_off_c, 4, 52, 127
1, 422346, Note_off_c, 0, 60, 127
1, 422349, Note_on_c, 4, 64, 127
1, 422349, Note_on_c, 7, 55, 127
1, 422495, Note_off_c, 7, 55, 127
1, 422495, Note_off_c, 4, 64, 127
1, 422498, Note_on_c, 5, 65, 127
1, 422498, Note_on_c, 8, 56, 127
1, 422644, Note_off_c, 8, 56, 127
1, 422644, Note_off_c, 5, 65, 127
1, 422647, Note_on_c, 7, 67, 127
1, 422647, Note_on_c, 11, 58, 127
1, 422719, Note_off_c, 11, 58, 127
1, 422719, Note_off_c, 7, 67, 127
1, 422720, Note_on_c, 8, 68, 127
1, 422720, Note_on_c, 0, 60, 127
1, 422792, Note_off_c, 0, 60, 127
1, 422792, Note_off_c, 8, 68, 127
1, 422795, Note_on_c, 2, 62, 127
1, 422795, Note_on_c, 5, 53, 127
1, 422941, Note_off_c, 5, 53, 127
1, 422941, Note_off_c, 2, 62, 127
1, 422944, Note_on_c, 5, 65, 127
1, 422944, Note_on_c, 8, 56, 127
1, 423090, Note_off_c, 8, 56, 127
1, 423090, Note_off_c, 5, 65, 127
1, 423093, Note_on_c, 4, 64, 127
1, 423093, Note_on_c, 7, 55, 127
1, 423193, Note_off_c, 0, 72, 127
1, 423240, Note_off_c, 7, 55, 127
1, 423240, Note_off_c, 4, 64, 127
1, 423243, Note_on_c, 5, 65, 127
1, 423243, Note_on_c, 8, 56, 127
1, 423315, Note_off_c, 8, 56, 127
1, 423315, Note_off_c, 5, 65, 127
1, 423318, Note_on_c, 7, 67, 127
1, 423318, Note_on_c, 11, 58, 127
1, 423390, Note_off_c, 11, 58, 127
1, 423390, Note_off_c, 7, 67, 127
1, 423391, Note_on_c, 4, 52, 127
1, 423391, Note_on_c, 0, 60, 127
1, 423540, Note_off_c, 0, 60, 127
1, 423540, Note_off_c, 4, 52, 127
1, 423543, Note_on_c, 7, 55, 127
1, 423543, Note_on_c, 4, 64, 127
1, 423692, Note_off_c, 4, 64, 127
1, 423692, Note_off_c, 7, 55, 127
1, 423695, Note_on_c, 8, 56, 127
1, 423695, Note_on_c, 5, 65, 127
1, 423847, Note_on_c, 5, 77, 127
1, 423996, Note_off_c, 5, 77, 127
1, 423996, Note_off_c, 5, 65, 127
1, 423997, Note_on_c, 3, 75, 127
1, 423997, Note_on_c, 0, 72, 127
1, 424146, Note_off_c, 0, 72, 127
1, 424147, Note_off_c, 8, 56, 127
1, 424148, Note_on_c, 7, 55, 127
1, 424148, Note_on_c, 11, 70, 127
1, 424297, Note_off_c, 11, 70, 127
1, 424297, Note_off_c, 7, 55, 127
1, 424300, Note_on_c, 5, 53, 127
1, 424300, Note_on_c, 8, 68, 127
1, 424449, Note_off_c, 3, 75, 127
1, 424452, Note_on_c, 1, 73, 127
1, 424601, Note_off_c, 1, 73, 127
1, 424602, Note_on_c, 0, 72, 127
1, 424753, Note_off_c, 8, 68, 127
1, 424753, Note_off_c, 5, 53, 127
1, 424754, Note_on_c, 3, 51, 127
1, 424754, Note_on_c, 7, 67, 127
1, 424903, Note_off_c, 7, 67, 127
1, 424903, Note_off_c, 3, 51, 127
1, 424906, Note_on_c, 2, 50, 127
1, 424906, Note_on_c, 5, 65, 127
1, 425055, Note_off_c, 0, 72, 127
1, 425058, Note_on_c, 12, 71, 127
1, 425207, Note_off_c, 12, 71, 127
1, 425210, Note_on_c, 0, 72, 127
1, 425359, Note_off_c, 0, 72, 127
1, 425359, Note_off_c, 2, 50, 127
1, 425360, Note_on_c, 2, 74, 127
1, 425360, Note_on_c, 0, 48, 127
1, 425509, Note_off_c, 0, 48, 127
1, 425509, Note_off_c, 2, 74, 127
1, 425512, Note_on_c, 7, 67, 127
1, 425512, Note_on_c, 12, 47, 127
1, 425661, Note_off_c, 5, 65, 127
1, 425664, Note_on_c, 5, 65, 127
1, 425813, Note_off_c, 5, 65, 127
1, 425816, Note_on_c, 3, 63, 127
1, 425965, Note_off_c, 3, 63, 127
1, 425965, Note_off_c, 12, 47, 127
1, 425968, Note_on_c, 7, 43, 127
1, 425968, Note_on_c, 2, 62, 127
1, 426117, Note_off_c, 2, 62, 127
1, 426117, Note_off_c, 7, 43, 127
1, 426120, Note_on_c, 0, 48, 127
1, 426120, Note_on_c, 3, 63, 127
1, 426268, Note_off_c, 7, 67, 127
1, 426272, Note_on_c, 5, 65, 127
1, 426344, Note_off_c, 5, 65, 127
1, 426348, Note_on_c, 7, 67, 127
1, 426420, Note_off_c, 7, 67, 127
1, 426424, Note_on_c, 8, 68, 127
1, 426573, Note_off_c, 8, 68, 127
1, 426573, Note_off_c, 3, 63, 127
1, 426573, Note_off_c, 0, 48, 127
1, 426583, Note_on_c, 0, 60, 127
1, 426583, Note_on_c, 5, 41, 127
1, 426583, Note_on_c, 2, 62, 127
1, 426750, Note_off_c, 5, 41, 127
1, 426750, Note_off_c, 0, 60, 127
1, 426753, Note_on_c, 0, 60, 127
1, 426753, Note_on_c, 7, 43, 127
1, 426920, Note_off_c, 2, 62, 127
1, 426921, Note_on_c, 5, 65, 127
1, 427085, Note_off_c, 5, 65, 127
1, 427089, Note_off_c, 0, 60, 127
1, 427093, Note_on_c, 3, 63, 127
1, 427093, Note_on_c, 12, 59, 127
1, 427324, Note_off_c, 3, 63, 127
1, 427328, Note_on_c, 2, 62, 127
1, 427428, Note_off_c, 7, 43, 127
1, 427438, Note_off_c, 2, 62, 127
1, 427448, Note_on_c, 0, 60, 127
1, 427558, Note_off_c, 0, 60, 127
1, 427559, Note_off_c, 12, 59, 127
1, 427566, Note_on_c, 10, 57, 127
1, 427566, Note_on_c, 6, 42, 127
1, 427566, Note_on_c, 3, 51, 127
1, 427566, Note_on_c, 0, 60, 127
1, 428707, Note_off_c, 3, 51, 127
1, 428707, Note_off_c, 6, 42, 127
1, 428836, Note_off_c, 0, 60, 127
1, 428968, Note_on_c, 12, 59, 127
1, 429088, Note_off_c, 12, 59, 127
1, 429089, Note_off_c, 10, 57, 127
1, 429095, Note_on_c, 10, 57, 127
1, 429215, Note_off_c, 10, 57, 127
1, 429224, Note_on_c, 7, 55, 127
1, 429344, Note_off_c, 7, 55, 127
1, 429351, Note_on_c, 6, 54, 127
1, 429471, Note_off_c, 6, 54, 127
1, 429478, Note_on_c, 7, 55, 127
1, 429598, Note_off_c, 7, 55, 127
1, 429605, Note_on_c, 10, 57, 127
1, 429725, Note_off_c, 10, 57, 127
1, 429735, Note_on_c, 12, 59, 127
1, 429855, Note_off_c, 12, 59, 127
1, 429862, Note_on_c, 0, 60, 127
1, 429982, Note_off_c, 0, 60, 127
1, 429986, Note_on_c, 2, 62, 127
1, 430106, Note_off_c, 2, 62, 127
1, 430112, Note_on_c, 3, 63, 127
1, 430232, Note_off_c, 3, 63, 127
1, 430244, Note_on_c, 2, 62, 127
1, 430364, Note_off_c, 2, 62, 127
1, 430373, Note_on_c, 0, 60, 127
1, 430493, Note_off_c, 0, 60, 127
1, 430499, Note_on_c, 2, 62, 127
1, 430619, Note_off_c, 2, 62, 127
1, 430629, Note_on_c, 12, 59, 127
1, 430749, Note_off_c, 12, 59, 127
1, 430756, Note_on_c, 2, 62, 127
1, 430812, Note_off_c, 2, 62, 127
1, 430818, Note_on_c, 0, 60, 127
1, 430874, Note_off_c, 0, 60, 127
1, 430883, Note_on_c, 0, 60, 127
1, 431392, Note_on_c, 5, 41, 127
1, 431392, Note_on_c, 2, 50, 127
1, 431392, Note_on_c, 8, 56, 127
1, 431895, Note_off_c, 8, 56, 127
1, 431895, Note_off_c, 2, 50, 127
1, 431895, Note_off_c, 5, 41, 127
1, 431904, Note_on_c, 7, 55, 127
1, 431904, Note_on_c, 3, 51, 127
1, 431904, Note_on_c, 7, 43, 127
1, 432024, Note_off_c, 0, 60, 127
1, 432358, Note_on_c, 2, 62, 127
1, 432478, Note_off_c, 2, 62, 127
1, 432482, Note_on_c, 3, 63, 127
1, 432602, Note_off_c, 3, 63, 127
1, 432612, Note_on_c, 2, 62, 127
1, 432732, Note_off_c, 2, 62, 127
1, 432739, Note_on_c, 0, 60, 127
1, 432859, Note_off_c, 0, 60, 127
1, 432866, Note_on_c, 2, 62, 127
1, 432986, Note_off_c, 2, 62, 127
1, 432998, Note_on_c, 12, 59, 127
1, 433118, Note_off_c, 12, 59, 127
1, 433122, Note_on_c, 2, 62, 127
1, 433178, Note_off_c, 2, 62, 127
1, 433188, Note_on_c, 0, 60, 127
1, 433244, Note_off_c, 0, 60, 127
1, 433251, Note_on_c, 0, 60, 127
1, 433427, Note_off_c, 7, 43, 127
1, 433427, Note_off_c, 3, 51, 127
1, 433427, Note_off_c, 7, 55, 127
1, 433761, Note_on_c, 3, 51, 127
1, 433761, Note_on_c, 7, 43, 127
1, 433761, Note_on_c, 7, 55, 127
1, 434281, Note_off_c, 7, 43, 127
1, 434291, Note_on_c, 8, 44, 127
1, 434393, Note_off_c, 0, 60, 127
1, 434760, Note_on_c, 2, 62, 127
1, 434883, Note_off_c, 2, 62, 127
1, 434892, Note_on_c, 3, 63, 127
1, 435015, Note_off_c, 3, 63, 127
1, 435028, Note_on_c, 2, 62, 127
1, 435151, Note_off_c, 2, 62, 127
1, 435160, Note_on_c, 0, 60, 127
1, 435283, Note_off_c, 0, 60, 127
1, 435295, Note_on_c, 2, 62, 127
1, 435343, Note_off_c, 7, 55, 127
1, 435343, Note_off_c, 3, 51, 127
1, 435418, Note_off_c, 2, 62, 127
1, 435424, Note_on_c, 12, 59, 127
1, 435547, Note_off_c, 12, 59, 127
1, 435556, Note_on_c, 2, 62, 127
1, 435612, Note_off_c, 2, 62, 127
1, 435624, Note_on_c, 0, 60, 127
1, 435680, Note_off_c, 0, 60, 127
1, 435692, Note_on_c, 0, 60, 127
1, 435875, Note_off_c, 8, 44, 127
1, 436225, Note_on_c, 0, 48, 127
1, 436225, Note_on_c, 10, 45, 127
1, 436225, Note_on_c, 2, 50, 127
1, 436225, Note_on_c, 6, 54, 127
1, 436826, Note_off_c, 6, 54, 127
1, 436826, Note_off_c, 2, 50, 127
1, 436826, Note_off_c, 10, 45, 127
1, 436826, Note_off_c, 0, 48, 127
1, 436842, Note_on_c, 7, 43, 127
1, 436842, Note_on_c, 7, 55, 127
1, 436842, Note_on_c, 3, 51, 127
1, 436876, Note_off_c, 0, 60, 127
1, 437308, Note_on_c, 2, 62, 127
1, 437437, Note_off_c, 2, 62, 127
1, 437440, Note_on_c, 3, 63, 127
1, 437569, Note_off_c, 3, 63, 127
1, 437572, Note_on_c, 5, 65, 127
1, 437699, Note_off_c, 5, 65, 127
1, 437706, Note_on_c, 7, 67, 127
1, 437835, Note_off_c, 7, 67, 127
1, 437836, Note_on_c, 8, 68, 127
1, 437893, Note_off_c, 3, 51, 127
1, 437893, Note_off_c, 7, 55, 127
1, 437893, Note_off_c, 7, 43, 127
1, 437965, Note_off_c, 8, 68, 127
1, 437969, Note_on_c, 7, 67, 127
1, 438033, Note_off_c, 7, 67, 127
1, 438034, Note_on_c, 5, 65, 127
1, 438093, Note_off_c, 5, 65, 127
1, 438105, Note_on_c, 7, 67, 127
1, 438164, Note_off_c, 7, 67, 127
1, 438183, Note_on_c, 8, 68, 127
1, 438334, Note_off_c, 8, 68, 127
1, 438368, Note_on_c, 2, 50, 127
1, 438368, Note_on_c, 5, 53, 127
1, 438368, Note_on_c, 0, 60, 127
1, 438623, Note_off_c, 0, 60, 127
1, 438635, Note_on_c, 12, 59, 127
1, 438691, Note_off_c, 12, 59, 127
1, 438703, Note_on_c, 0, 60, 127
1, 438759, Note_off_c, 0, 60, 127
1, 438772, Note_on_c, 12, 59, 127
1, 438828, Note_off_c, 12, 59, 127
1, 438835, Note_on_c, 0, 60, 127
1, 438891, Note_off_c, 0, 60, 127
1, 438903, Note_on_c, 12, 59, 127
1, 438959, Note_off_c, 12, 59, 127
1, 438969, Note_on_c, 0, 60, 127
1, 439025, Note_off_c, 0, 60, 127
1, 439037, Note_on_c, 12, 59, 127
1, 439352, Note_off_c, 12, 59, 127
1, 439372, Note_on_c, 0, 60, 127
1, 439422, Note_off_c, 5, 53, 127
1, 439422, Note_off_c, 2, 50, 127
1, 439554, Note_off_c, 0, 60, 127
1, 439601, Note_on_c, 0, 48, 127
1, 439601, Note_on_c, 8, 56, 127
1, 439601, Note_on_c, 0, 60, 127
1, 439601, Note_on_c, 5, 53, 127
1, 439601, Note_on_c, 5, 77, 127
1, 439601, Note_on_c, 0, 72, 127
1, 439601, Note_on_c, 5, 65, 127
1, 439601, Note_on_c, 8, 68, 127
1, 441796, Note_off_c, 8, 68, 127
1, 441796, Note_off_c, 5, 65, 127
1, 441796, Note_off_c, 0, 72, 127
1, 441796, Note_off_c, 5, 77, 127
1, 441844, Note_on_c, 7, 79, 127
1, 441938, Note_off_c, 7, 79, 127
1, 441945, Note_on_c, 8, 80, 127
1, 442039, Note_off_c, 8, 80, 127
1, 442046, Note_on_c, 7, 79, 127
1, 442140, Note_off_c, 7, 79, 127
1, 442146, Note_on_c, 5, 77, 127
1, 442240, Note_off_c, 5, 77, 127
1, 442247, Note_on_c, 3, 75, 127
1, 442341, Note_off_c, 3, 75, 127
1, 442348, Note_on_c, 2, 74, 127
1, 442442, Note_off_c, 2, 74, 127
1, 442446, Note_on_c, 3, 75, 127
1, 442540, Note_off_c, 3, 75, 127
1, 442546, Note_on_c, 2, 74, 127
1, 442640, Note_off_c, 2, 74, 127
1, 442649, Note_on_c, 0, 72, 127
1, 442743, Note_off_c, 0, 72, 127
1, 442749, Note_on_c, 12, 71, 127
1, 442822, Note_off_c, 5, 53, 127
1, 442822, Note_off_c, 0, 48, 127
1, 442842, Note_off_c, 12, 71, 127
1, 442849, Note_on_c, 10, 69, 127
1, 442943, Note_off_c, 10, 69, 127
1, 442950, Note_on_c, 0, 48, 127
1, 442950, Note_on_c, 5, 53, 127
1, 442950, Note_on_c, 2, 62, 127
1, 442950, Note_on_c, 12, 71, 127
1, 443044, Note_off_c, 12, 71, 127
1, 443050, Note_on_c, 0, 72, 127
1, 443144, Note_off_c, 0, 72, 127
1, 443151, Note_on_c, 2, 74, 127
1, 443245, Note_off_c, 2, 74, 127
1, 443252, Note_on_c, 0, 72, 127
1, 443261, Note_off_c, 0, 60, 127
1, 443346, Note_off_c, 0, 72, 127
1, 443352, Note_on_c, 12, 71, 127
1, 443446, Note_off_c, 12, 71, 127
1, 443452, Note_on_c, 8, 68, 127
1, 443481, Note_off_c, 8, 56, 127
1, 443545, Note_off_c, 8, 68, 127
1, 443551, Note_on_c, 7, 67, 127
1, 443645, Note_off_c, 7, 67, 127
1, 443654, Note_on_c, 8, 68, 127
1, 443748, Note_off_c, 8, 68, 127
1, 443754, Note_on_c, 7, 67, 127
1, 443848, Note_off_c, 7, 67, 127
1, 443855, Note_on_c, 5, 65, 127
1, 443944, Note_off_c, 2, 62, 127
1, 443948, Note_off_c, 5, 65, 127
1, 443955, Note_on_c, 4, 64, 127
1, 444049, Note_off_c, 4, 64, 127
1, 444055, Note_on_c, 2, 62, 127
1, 444141, Note_off_c, 5, 53, 127
1, 444141, Note_off_c, 0, 48, 127
1, 444148, Note_off_c, 2, 62, 127
1, 444154, Note_on_c, 0, 48, 127
1, 444154, Note_on_c, 7, 55, 127
1, 444154, Note_on_c, 0, 60, 127
1, 444154, Note_on_c, 4, 64, 127
1, 444248, Note_off_c, 4, 64, 127
1, 444255, Note_on_c, 5, 65, 127
1, 444349, Note_off_c, 5, 65, 127
1, 444356, Note_on_c, 7, 67, 127
1, 444450, Note_off_c, 7, 67, 127
1, 444456, Note_on_c, 5, 65, 127
1, 444550, Note_off_c, 5, 65, 127
1, 444557, Note_on_c, 4, 64, 127
1, 444651, Note_off_c, 4, 64, 127
1, 444658, Note_on_c, 2, 62, 127
1, 444733, Note_off_c, 0, 60, 127
1, 444733, Note_off_c, 7, 55, 127
1, 444752, Note_off_c, 2, 62, 127
1, 444758, Note_on_c, 0, 60, 127
1, 444852, Note_off_c, 0, 60, 127
1, 444859, Note_on_c, 7, 55, 127
1, 444944, Note_off_c, 0, 48, 127
1, 444953, Note_off_c, 7, 55, 127
1, 444960, Note_on_c, 4, 52, 127
1, 445054, Note_off_c, 4, 52, 127
1, 445058, Note_on_c, 7, 55, 127
1, 445152, Note_off_c, 7, 55, 127
1, 445159, Note_on_c, 0, 48, 127
1, 445253, Note_off_c, 0, 48, 127
1, 445260, Note_on_c, 4, 52, 127
1, 445354, Note_off_c, 4, 52, 127
1, 445361, Note_on_c, 7, 55, 127
1, 445455, Note_off_c, 7, 55, 127
1, 445459, Note_on_c, 4, 52, 127
1, 445553, Note_off_c, 4, 52, 127
1, 445562, Note_on_c, 0, 48, 127
1, 445656, Note_off_c, 0, 48, 127
1, 445663, Note_on_c, 4, 52, 127
1, 445757, Note_off_c, 4, 52, 127
1, 445763, Note_on_c, 7, 43, 127
1, 445857, Note_off_c, 7, 43, 127
1, 445873, Note_on_c, 0, 48, 127
1, 445967, Note_off_c, 0, 48, 127
1, 445992, Note_on_c, 0, 36, 127
1, 448175, Note_off_c, 0, 36, 127
1, 451584, End_track
0, 0, End_of_file
