0, 0, Header, 0, 1, 384
1, 0, Start_track
1, 0, Copyright_t, "(C) John Sankey 1998"
1, 0, Program_c, 0, 6
1, 0, Pitch_bend_c, 0, 8192
1, 0, Program_c, 1, 6
1, 0, Pitch_bend_c, 1, 7792
1, 0, Program_c, 2, 6
1, 0, Pitch_bend_c, 2, 7876
1, 0, Program_c, 3, 6
1, 0, Pitch_bend_c, 3, 7952
1, 0, Program_c, 4, 6
1, 0, Pitch_bend_c, 4, 7792
1, 0, Program_c, 5, 6
1, 0, Pitch_bend_c, 5, 8112
1, 0, Program_c, 6, 6
1, 0, Pitch_bend_c, 6, 7712
1, 0, Program_c, 7, 6
1, 0, Pitch_bend_c, 7, 8037
1, 0, Program_c, 8, 6
1, 0, Pitch_bend_c, 8, 7872
1, 0, Program_c, 10, 6
1, 0, Pitch_bend_c, 10, 7712
1, 0, Program_c, 11, 6
1, 0, Pitch_bend_c, 11, 8032
1, 0, Program_c, 12, 6
1, 0, Pitch_bend_c, 12, 7872
1, 0, Tempo, 500000
1, 48, Note_on_c, 11, 58, 127
1, 355, Note_on_c, 11, 70, 127
1, 507, Note_off_c, 11, 70, 127
1, 509, Note_on_c, 0, 72, 127
1, 656, Note_off_c, 11, 58, 127
1, 661, Note_off_c, 0, 72, 127
1, 663, Note_on_c, 2, 74, 127
1, 969, Note_off_c, 2, 74, 127
1, 971, Note_on_c, 11, 46, 127
1, 971, Note_on_c, 11, 70, 127
1, 971, Note_on_c, 5, 77, 127
1, 971, Note_on_c, 2, 74, 127
1, 1123, Note_off_c, 11, 46, 127
1, 1125, Note_on_c, 0, 48, 127
1, 1277, Note_off_c, 0, 48, 127
1, 1277, Note_off_c, 2, 74, 127
1, 1277, Note_off_c, 5, 77, 127
1, 1277, Note_off_c, 11, 70, 127
1, 1279, Note_on_c, 2, 50, 127
1, 1279, Note_on_c, 11, 70, 127
1, 1279, Note_on_c, 2, 74, 127
1, 1279, Note_on_c, 5, 65, 127
1, 1585, Note_off_c, 5, 65, 127
1, 1585, Note_off_c, 2, 74, 127
1, 1585, Note_off_c, 11, 70, 127
1, 1585, Note_off_c, 2, 50, 127
1, 1587, Note_on_c, 5, 53, 127
1, 1587, Note_on_c, 2, 62, 127
1, 1587, Note_on_c, 11, 70, 127
1, 1587, Note_on_c, 5, 65, 127
1, 1893, Note_off_c, 5, 53, 127
1, 1895, Note_on_c, 11, 58, 127
1, 2036, Note_off_c, 5, 65, 127
1, 2036, Note_off_c, 11, 70, 127
1, 2036, Note_off_c, 2, 62, 127
1, 2202, Note_on_c, 11, 70, 127
1, 2354, Note_off_c, 11, 70, 127
1, 2356, Note_on_c, 0, 72, 127
1, 2508, Note_off_c, 0, 72, 127
1, 2508, Note_off_c, 11, 58, 127
1, 2510, Note_on_c, 11, 46, 127
1, 2510, Note_on_c, 2, 74, 127
1, 2816, Note_off_c, 2, 74, 127
1, 2818, Note_on_c, 5, 77, 127
1, 3119, Note_off_c, 11, 46, 127
1, 3124, Note_off_c, 5, 77, 127
1, 3126, Note_on_c, 2, 74, 127
1, 3432, Note_off_c, 2, 74, 127
1, 3434, Note_on_c, 11, 70, 127
1, 3740, Note_off_c, 11, 70, 127
1, 3742, Note_on_c, 0, 60, 127
1, 4049, Note_on_c, 0, 72, 127
1, 4201, Note_off_c, 0, 72, 127
1, 4203, Note_on_c, 2, 74, 127
1, 4355, Note_off_c, 2, 74, 127
1, 4357, Note_on_c, 3, 75, 127
1, 4511, Note_off_c, 0, 60, 127
1, 4663, Note_off_c, 3, 75, 127
1, 4665, Note_on_c, 0, 48, 127
1, 4665, Note_on_c, 7, 79, 127
1, 4665, Note_on_c, 3, 75, 127
1, 4665, Note_on_c, 0, 72, 127
1, 4817, Note_off_c, 0, 48, 127
1, 4819, Note_on_c, 2, 50, 127
1, 4971, Note_off_c, 2, 50, 127
1, 4971, Note_off_c, 0, 72, 127
1, 4971, Note_off_c, 3, 75, 127
1, 4971, Note_off_c, 7, 79, 127
1, 4973, Note_on_c, 3, 51, 127
1, 4973, Note_on_c, 3, 75, 127
1, 4973, Note_on_c, 0, 72, 127
1, 4973, Note_on_c, 7, 67, 127
1, 5279, Note_off_c, 7, 67, 127
1, 5279, Note_off_c, 0, 72, 127
1, 5279, Note_off_c, 3, 75, 127
1, 5279, Note_off_c, 3, 51, 127
1, 5281, Note_on_c, 7, 55, 127
1, 5281, Note_on_c, 7, 67, 127
1, 5281, Note_on_c, 3, 63, 127
1, 5281, Note_on_c, 0, 72, 127
1, 5587, Note_off_c, 7, 55, 127
1, 5589, Note_on_c, 0, 60, 127
1, 5666, Note_off_c, 3, 63, 127
1, 5730, Note_off_c, 0, 72, 127
1, 5730, Note_off_c, 7, 67, 127
1, 5896, Note_on_c, 0, 72, 127
1, 6048, Note_off_c, 0, 72, 127
1, 6050, Note_on_c, 2, 74, 127
1, 6202, Note_off_c, 2, 74, 127
1, 6202, Note_off_c, 0, 60, 127
1, 6204, Note_on_c, 0, 48, 127
1, 6204, Note_on_c, 3, 75, 127
1, 6510, Note_off_c, 3, 75, 127
1, 6512, Note_on_c, 7, 79, 127
1, 6813, Note_off_c, 0, 48, 127
1, 6818, Note_off_c, 7, 79, 127
1, 6820, Note_on_c, 3, 75, 127
1, 7126, Note_off_c, 3, 75, 127
1, 7128, Note_on_c, 0, 72, 127
1, 7434, Note_off_c, 0, 72, 127
1, 7436, Note_on_c, 2, 62, 127
1, 7743, Note_on_c, 2, 74, 127
1, 7895, Note_off_c, 2, 74, 127
1, 7897, Note_on_c, 3, 75, 127
1, 8049, Note_off_c, 3, 75, 127
1, 8051, Note_on_c, 5, 77, 127
1, 8317, Note_off_c, 2, 62, 127
1, 8357, Note_off_c, 5, 77, 127
1, 8359, Note_on_c, 2, 50, 127
1, 8359, Note_on_c, 2, 74, 127
1, 8359, Note_on_c, 11, 82, 127
1, 8359, Note_on_c, 5, 77, 127
1, 8511, Note_off_c, 2, 50, 127
1, 8513, Note_on_c, 3, 51, 127
1, 8665, Note_off_c, 3, 51, 127
1, 8665, Note_off_c, 5, 77, 127
1, 8665, Note_off_c, 11, 82, 127
1, 8665, Note_off_c, 2, 74, 127
1, 8667, Note_on_c, 5, 53, 127
1, 8667, Note_on_c, 5, 77, 127
1, 8667, Note_on_c, 2, 74, 127
1, 8667, Note_on_c, 11, 70, 127
1, 8973, Note_off_c, 11, 70, 127
1, 8973, Note_off_c, 2, 74, 127
1, 8973, Note_off_c, 5, 77, 127
1, 8973, Note_off_c, 5, 53, 127
1, 8975, Note_on_c, 11, 58, 127
1, 8975, Note_on_c, 11, 70, 127
1, 8975, Note_on_c, 2, 74, 127
1, 8975, Note_on_c, 5, 65, 127
1, 9279, Note_off_c, 5, 65, 127
1, 9281, Note_off_c, 11, 58, 127
1, 9283, Note_on_c, 2, 62, 127
1, 9424, Note_off_c, 2, 74, 127
1, 9424, Note_off_c, 11, 70, 127
1, 9590, Note_on_c, 2, 74, 127
1, 9742, Note_off_c, 2, 74, 127
1, 9744, Note_on_c, 3, 75, 127
1, 9896, Note_off_c, 3, 75, 127
1, 9896, Note_off_c, 2, 62, 127
1, 9898, Note_on_c, 2, 50, 127
1, 9898, Note_on_c, 5, 77, 127
1, 10204, Note_off_c, 5, 77, 127
1, 10206, Note_on_c, 11, 82, 127
1, 10512, Note_off_c, 11, 82, 127
1, 10514, Note_on_c, 5, 77, 127
1, 10668, Note_off_c, 2, 50, 127
1, 10820, Note_off_c, 5, 77, 127
1, 10822, Note_on_c, 11, 58, 127
1, 10822, Note_on_c, 2, 74, 127
1, 11118, Note_off_c, 11, 58, 127
1, 11128, Note_off_c, 2, 74, 127
1, 11130, Note_on_c, 3, 63, 127
1, 11130, Note_on_c, 7, 79, 127
1, 11282, Note_off_c, 7, 79, 127
1, 11284, Note_on_c, 5, 77, 127
1, 11436, Note_off_c, 5, 77, 127
1, 11436, Note_off_c, 3, 63, 127
1, 11438, Note_on_c, 7, 67, 127
1, 11438, Note_on_c, 3, 75, 127
1, 11590, Note_off_c, 3, 75, 127
1, 11592, Note_on_c, 2, 74, 127
1, 11744, Note_off_c, 2, 74, 127
1, 11744, Note_off_c, 7, 67, 127
1, 11746, Note_on_c, 0, 60, 127
1, 11746, Note_on_c, 3, 75, 127
1, 11898, Note_off_c, 3, 75, 127
1, 11900, Note_on_c, 2, 74, 127
1, 12052, Note_off_c, 2, 74, 127
1, 12052, Note_off_c, 0, 60, 127
1, 12054, Note_on_c, 3, 63, 127
1, 12054, Note_on_c, 0, 72, 127
1, 12206, Note_off_c, 0, 72, 127
1, 12208, Note_on_c, 11, 70, 127
1, 12360, Note_off_c, 11, 70, 127
1, 12360, Note_off_c, 3, 63, 127
1, 12362, Note_on_c, 10, 57, 127
1, 12362, Note_on_c, 0, 72, 127
1, 12514, Note_off_c, 0, 72, 127
1, 12516, Note_on_c, 11, 70, 127
1, 12668, Note_off_c, 11, 70, 127
1, 12668, Note_off_c, 10, 57, 127
1, 12670, Note_on_c, 0, 60, 127
1, 12670, Note_on_c, 10, 69, 127
1, 12822, Note_off_c, 10, 69, 127
1, 12824, Note_on_c, 7, 67, 127
1, 12976, Note_off_c, 7, 67, 127
1, 12976, Note_off_c, 0, 60, 127
1, 12978, Note_on_c, 3, 51, 127
1, 12978, Note_on_c, 5, 65, 127
1, 13130, Note_off_c, 3, 51, 127
1, 13132, Note_on_c, 2, 50, 127
1, 13284, Note_off_c, 2, 50, 127
1, 13284, Note_off_c, 5, 65, 127
1, 13286, Note_on_c, 0, 48, 127
1, 13286, Note_on_c, 5, 65, 127
1, 13286, Note_on_c, 11, 70, 127
1, 13286, Note_on_c, 2, 62, 127
1, 13438, Note_off_c, 0, 48, 127
1, 13440, Note_on_c, 11, 46, 127
1, 13592, Note_off_c, 11, 46, 127
1, 13592, Note_off_c, 2, 62, 127
1, 13592, Note_off_c, 11, 70, 127
1, 13592, Note_off_c, 5, 65, 127
1, 13594, Note_on_c, 5, 53, 127
1, 13594, Note_on_c, 5, 65, 127
1, 13594, Note_on_c, 11, 70, 127
1, 13594, Note_on_c, 0, 60, 127
1, 13898, Note_off_c, 11, 70, 127
1, 13901, Note_on_c, 10, 69, 127
1, 13965, Note_off_c, 10, 69, 127
1, 13965, Note_on_c, 11, 70, 127
1, 14029, Note_off_c, 11, 70, 127
1, 14029, Note_on_c, 10, 69, 127
1, 14093, Note_off_c, 10, 69, 127
1, 14093, Note_on_c, 11, 70, 127
1, 14157, Note_off_c, 11, 70, 127
1, 14157, Note_on_c, 10, 69, 127
1, 14207, Note_off_c, 5, 53, 127
1, 14209, Note_on_c, 5, 41, 127
1, 14510, Note_off_c, 10, 69, 127
1, 14515, Note_off_c, 5, 65, 127
1, 14517, Note_on_c, 11, 70, 127
1, 14818, Note_off_c, 5, 41, 127
1, 14823, Note_off_c, 11, 70, 127
1, 14823, Note_off_c, 0, 60, 127
1, 14825, Note_on_c, 11, 70, 127
1, 14825, Note_on_c, 5, 65, 127
1, 14825, Note_on_c, 2, 62, 127
1, 15131, Note_off_c, 2, 62, 127
1, 15131, Note_off_c, 5, 65, 127
1, 15131, Note_off_c, 11, 70, 127
1, 15133, Note_on_c, 11, 46, 127
1, 15133, Note_on_c, 5, 65, 127
1, 15285, Note_off_c, 11, 46, 127
1, 15287, Note_on_c, 0, 48, 127
1, 15439, Note_off_c, 0, 48, 127
1, 15439, Note_off_c, 5, 65, 127
1, 15441, Note_on_c, 2, 50, 127
1, 15441, Note_on_c, 11, 70, 127
1, 15747, Note_off_c, 11, 70, 127
1, 15747, Note_off_c, 2, 50, 127
1, 15749, Note_on_c, 5, 53, 127
1, 15749, Note_on_c, 11, 70, 127
1, 15749, Note_on_c, 2, 74, 127
1, 15749, Note_on_c, 5, 65, 127
1, 16055, Note_off_c, 5, 65, 127
1, 16055, Note_off_c, 2, 74, 127
1, 16055, Note_off_c, 11, 70, 127
1, 16055, Note_off_c, 5, 53, 127
1, 16057, Note_on_c, 2, 50, 127
1, 16057, Note_on_c, 11, 70, 127
1, 16057, Note_on_c, 5, 77, 127
1, 16057, Note_on_c, 2, 74, 127
1, 16363, Note_off_c, 2, 74, 127
1, 16363, Note_off_c, 5, 77, 127
1, 16363, Note_off_c, 11, 70, 127
1, 16363, Note_off_c, 2, 50, 127
1, 16365, Note_on_c, 11, 46, 127
1, 16365, Note_on_c, 5, 77, 127
1, 16365, Note_on_c, 2, 74, 127
1, 16365, Note_on_c, 11, 82, 127
1, 16671, Note_off_c, 11, 82, 127
1, 16671, Note_off_c, 2, 74, 127
1, 16671, Note_off_c, 5, 77, 127
1, 16671, Note_off_c, 11, 46, 127
1, 16673, Note_on_c, 5, 41, 127
1, 16673, Note_on_c, 10, 81, 127
1, 16825, Note_off_c, 10, 81, 127
1, 16827, Note_on_c, 7, 79, 127
1, 16979, Note_off_c, 7, 79, 127
1, 16981, Note_on_c, 5, 77, 127
1, 17133, Note_off_c, 5, 77, 127
1, 17135, Note_on_c, 3, 75, 127
1, 17282, Note_off_c, 5, 41, 127
1, 17287, Note_off_c, 3, 75, 127
1, 17289, Note_on_c, 5, 77, 127
1, 17441, Note_off_c, 5, 77, 127
1, 17443, Note_on_c, 3, 75, 127
1, 17595, Note_off_c, 3, 75, 127
1, 17597, Note_on_c, 5, 41, 127
1, 17597, Note_on_c, 2, 74, 127
1, 17749, Note_off_c, 2, 74, 127
1, 17751, Note_on_c, 0, 72, 127
1, 17903, Note_off_c, 0, 72, 127
1, 17903, Note_off_c, 5, 41, 127
1, 17905, Note_on_c, 11, 46, 127
1, 17905, Note_on_c, 2, 74, 127
1, 18057, Note_off_c, 2, 74, 127
1, 18059, Note_on_c, 0, 72, 127
1, 18211, Note_off_c, 0, 72, 127
1, 18211, Note_off_c, 11, 46, 127
1, 18213, Note_on_c, 2, 50, 127
1, 18213, Note_on_c, 11, 70, 127
1, 18365, Note_off_c, 11, 70, 127
1, 18367, Note_on_c, 10, 69, 127
1, 18519, Note_off_c, 10, 69, 127
1, 18519, Note_off_c, 2, 50, 127
1, 18521, Note_on_c, 3, 39, 127
1, 18521, Note_on_c, 7, 67, 127
1, 18673, Note_off_c, 7, 67, 127
1, 18675, Note_on_c, 11, 70, 127
1, 18827, Note_off_c, 11, 70, 127
1, 18827, Note_off_c, 3, 39, 127
1, 18829, Note_on_c, 3, 51, 127
1, 18829, Note_on_c, 7, 79, 127
1, 18981, Note_off_c, 7, 79, 127
1, 18981, Note_off_c, 3, 51, 127
1, 18983, Note_on_c, 5, 53, 127
1, 18983, Note_on_c, 10, 81, 127
1, 19135, Note_off_c, 10, 81, 127
1, 19135, Note_off_c, 5, 53, 127
1, 19137, Note_on_c, 7, 55, 127
1, 19137, Note_on_c, 7, 79, 127
1, 19289, Note_off_c, 7, 79, 127
1, 19291, Note_on_c, 5, 77, 127
1, 19443, Note_off_c, 5, 77, 127
1, 19443, Note_off_c, 7, 55, 127
1, 19445, Note_on_c, 11, 58, 127
1, 19445, Note_on_c, 3, 75, 127
1, 19597, Note_off_c, 3, 75, 127
1, 19599, Note_on_c, 2, 74, 127
1, 19751, Note_off_c, 2, 74, 127
1, 19751, Note_off_c, 11, 58, 127
1, 19753, Note_on_c, 7, 55, 127
1, 19753, Note_on_c, 3, 75, 127
1, 19905, Note_off_c, 3, 75, 127
1, 19907, Note_on_c, 2, 74, 127
1, 20059, Note_off_c, 2, 74, 127
1, 20059, Note_off_c, 7, 55, 127
1, 20061, Note_on_c, 3, 51, 127
1, 20061, Note_on_c, 0, 72, 127
1, 20213, Note_off_c, 0, 72, 127
1, 20215, Note_on_c, 11, 70, 127
1, 20367, Note_off_c, 11, 70, 127
1, 20367, Note_off_c, 3, 51, 127
1, 20369, Note_on_c, 5, 41, 127
1, 20369, Note_on_c, 10, 69, 127
1, 20521, Note_off_c, 10, 69, 127
1, 20523, Note_on_c, 0, 72, 127
1, 20675, Note_off_c, 0, 72, 127
1, 20675, Note_off_c, 5, 41, 127
1, 20677, Note_on_c, 5, 53, 127
1, 20677, Note_on_c, 10, 81, 127
1, 20829, Note_off_c, 10, 81, 127
1, 20829, Note_off_c, 5, 53, 127
1, 20831, Note_on_c, 7, 55, 127
1, 20831, Note_on_c, 11, 82, 127
1, 20983, Note_off_c, 11, 82, 127
1, 20983, Note_off_c, 7, 55, 127
1, 20985, Note_on_c, 10, 57, 127
1, 20985, Note_on_c, 10, 81, 127
1, 21137, Note_off_c, 10, 81, 127
1, 21139, Note_on_c, 7, 79, 127
1, 21291, Note_off_c, 7, 79, 127
1, 21291, Note_off_c, 10, 57, 127
1, 21293, Note_on_c, 0, 60, 127
1, 21293, Note_on_c, 5, 77, 127
1, 21445, Note_off_c, 5, 77, 127
1, 21447, Note_on_c, 3, 75, 127
1, 21599, Note_off_c, 3, 75, 127
1, 21599, Note_off_c, 0, 60, 127
1, 21601, Note_on_c, 10, 57, 127
1, 21601, Note_on_c, 5, 77, 127
1, 21753, Note_off_c, 5, 77, 127
1, 21755, Note_on_c, 3, 75, 127
1, 21907, Note_off_c, 3, 75, 127
1, 21907, Note_off_c, 10, 57, 127
1, 21909, Note_on_c, 5, 53, 127
1, 21909, Note_on_c, 2, 74, 127
1, 22061, Note_off_c, 2, 74, 127
1, 22063, Note_on_c, 0, 72, 127
1, 22215, Note_off_c, 0, 72, 127
1, 22215, Note_off_c, 5, 53, 127
1, 22217, Note_on_c, 7, 43, 127
1, 22217, Note_on_c, 11, 70, 127
1, 22369, Note_off_c, 11, 70, 127
1, 22371, Note_on_c, 2, 74, 127
1, 22523, Note_off_c, 2, 74, 127
1, 22523, Note_off_c, 7, 43, 127
1, 22525, Note_on_c, 7, 55, 127
1, 22525, Note_on_c, 11, 82, 127
1, 22677, Note_off_c, 11, 82, 127
1, 22677, Note_off_c, 7, 55, 127
1, 22679, Note_on_c, 10, 57, 127
1, 22679, Note_on_c, 0, 84, 127
1, 22831, Note_off_c, 0, 84, 127
1, 22831, Note_off_c, 10, 57, 127
1, 22833, Note_on_c, 11, 58, 127
1, 22833, Note_on_c, 11, 82, 127
1, 22985, Note_off_c, 11, 82, 127
1, 22987, Note_on_c, 10, 81, 127
1, 23139, Note_off_c, 10, 81, 127
1, 23139, Note_off_c, 11, 58, 127
1, 23141, Note_on_c, 2, 62, 127
1, 23141, Note_on_c, 7, 79, 127
1, 23293, Note_off_c, 7, 79, 127
1, 23295, Note_on_c, 5, 77, 127
1, 23447, Note_off_c, 5, 77, 127
1, 23447, Note_off_c, 2, 62, 127
1, 23449, Note_on_c, 11, 58, 127
1, 23449, Note_on_c, 7, 79, 127
1, 23601, Note_off_c, 7, 79, 127
1, 23603, Note_on_c, 5, 77, 127
1, 23755, Note_off_c, 5, 77, 127
1, 23755, Note_off_c, 11, 58, 127
1, 23757, Note_on_c, 7, 55, 127
1, 23757, Note_on_c, 3, 75, 127
1, 23909, Note_off_c, 3, 75, 127
1, 23911, Note_on_c, 2, 74, 127
1, 24063, Note_off_c, 2, 74, 127
1, 24063, Note_off_c, 7, 55, 127
1, 24065, Note_on_c, 10, 45, 127
1, 24065, Note_on_c, 0, 72, 127
1, 24217, Note_off_c, 0, 72, 127
1, 24219, Note_on_c, 3, 75, 127
1, 24371, Note_off_c, 3, 75, 127
1, 24371, Note_off_c, 10, 45, 127
1, 24373, Note_on_c, 10, 57, 127
1, 24373, Note_on_c, 5, 77, 127
1, 24525, Note_off_c, 5, 77, 127
1, 24525, Note_off_c, 10, 57, 127
1, 24527, Note_on_c, 11, 58, 127
1, 24527, Note_on_c, 7, 79, 127
1, 24679, Note_off_c, 7, 79, 127
1, 24679, Note_off_c, 11, 58, 127
1, 24681, Note_on_c, 0, 60, 127
1, 24681, Note_on_c, 10, 81, 127
1, 24833, Note_off_c, 10, 81, 127
1, 24835, Note_on_c, 11, 82, 127
1, 24987, Note_off_c, 11, 82, 127
1, 24987, Note_off_c, 0, 60, 127
1, 24989, Note_on_c, 3, 63, 127
1, 24989, Note_on_c, 0, 84, 127
1, 25141, Note_off_c, 0, 84, 127
1, 25143, Note_on_c, 11, 82, 127
1, 25295, Note_off_c, 11, 82, 127
1, 25295, Note_off_c, 3, 63, 127
1, 25297, Note_on_c, 0, 60, 127
1, 25297, Note_on_c, 10, 81, 127
1, 25449, Note_off_c, 10, 81, 127
1, 25451, Note_on_c, 7, 79, 127
1, 25603, Note_off_c, 7, 79, 127
1, 25603, Note_off_c, 0, 60, 127
1, 25605, Note_on_c, 10, 57, 127
1, 25605, Note_on_c, 5, 77, 127
1, 25757, Note_off_c, 5, 77, 127
1, 25759, Note_on_c, 3, 75, 127
1, 25911, Note_off_c, 3, 75, 127
1, 25911, Note_off_c, 10, 57, 127
1, 25913, Note_on_c, 11, 58, 127
1, 25913, Note_on_c, 2, 74, 127
1, 26065, Note_off_c, 2, 74, 127
1, 26065, Note_off_c, 11, 58, 127
1, 26067, Note_on_c, 0, 60, 127
1, 26067, Note_on_c, 11, 70, 127
1, 26219, Note_off_c, 11, 70, 127
1, 26219, Note_off_c, 0, 60, 127
1, 26221, Note_on_c, 11, 58, 127
1, 26221, Note_on_c, 0, 72, 127
1, 26373, Note_off_c, 0, 72, 127
1, 26373, Note_off_c, 11, 58, 127
1, 26375, Note_on_c, 8, 56, 127
1, 26375, Note_on_c, 2, 74, 127
1, 26527, Note_off_c, 2, 74, 127
1, 26527, Note_off_c, 8, 56, 127
1, 26529, Note_on_c, 7, 55, 127
1, 26529, Note_on_c, 3, 75, 127
1, 26681, Note_off_c, 3, 75, 127
1, 26681, Note_off_c, 7, 55, 127
1, 26683, Note_on_c, 5, 53, 127
1, 26683, Note_on_c, 5, 77, 127
1, 26835, Note_off_c, 5, 77, 127
1, 26835, Note_off_c, 5, 53, 127
1, 26837, Note_on_c, 3, 51, 127
1, 26837, Note_on_c, 7, 79, 127
1, 26989, Note_off_c, 7, 79, 127
1, 26989, Note_off_c, 3, 51, 127
1, 26991, Note_on_c, 5, 53, 127
1, 26991, Note_on_c, 5, 77, 127
1, 27143, Note_off_c, 5, 77, 127
1, 27143, Note_off_c, 5, 53, 127
1, 27145, Note_on_c, 7, 55, 127
1, 27145, Note_on_c, 3, 75, 127
1, 27297, Note_off_c, 3, 75, 127
1, 27297, Note_off_c, 7, 55, 127
1, 27299, Note_on_c, 5, 53, 127
1, 27299, Note_on_c, 2, 74, 127
1, 27451, Note_off_c, 2, 74, 127
1, 27451, Note_off_c, 5, 53, 127
1, 27453, Note_on_c, 7, 55, 127
1, 27453, Note_on_c, 0, 72, 127
1, 27605, Note_off_c, 0, 72, 127
1, 27605, Note_off_c, 7, 55, 127
1, 27607, Note_on_c, 3, 51, 127
1, 27607, Note_on_c, 11, 70, 127
1, 27759, Note_off_c, 11, 70, 127
1, 27759, Note_off_c, 3, 51, 127
1, 27761, Note_on_c, 5, 53, 127
1, 27761, Note_on_c, 10, 69, 127
1, 27915, Note_on_c, 0, 72, 127
1, 28067, Note_off_c, 5, 53, 127
1, 28069, Note_on_c, 5, 41, 127
1, 28069, Note_on_c, 5, 77, 127
1, 28210, Note_off_c, 10, 69, 127
1, 28220, Note_off_c, 0, 72, 127
1, 28222, Note_off_c, 5, 77, 127
1, 28224, Note_on_c, 0, 72, 127
1, 28224, Note_on_c, 10, 69, 127
1, 28224, Note_on_c, 5, 77, 127
1, 28376, Note_off_c, 5, 77, 127
1, 28376, Note_off_c, 10, 69, 127
1, 28376, Note_off_c, 0, 72, 127
1, 28378, Note_on_c, 0, 72, 127
1, 28378, Note_on_c, 10, 69, 127
1, 28378, Note_on_c, 5, 77, 127
1, 28519, Note_off_c, 5, 41, 127
1, 28530, Note_off_c, 5, 77, 127
1, 28530, Note_off_c, 10, 69, 127
1, 28530, Note_off_c, 0, 72, 127
1, 28532, Note_on_c, 0, 72, 127
1, 28532, Note_on_c, 10, 69, 127
1, 28532, Note_on_c, 5, 77, 127
1, 28684, Note_off_c, 5, 77, 127
1, 28684, Note_off_c, 10, 69, 127
1, 28684, Note_off_c, 0, 72, 127
1, 28686, Note_on_c, 5, 53, 127
1, 28686, Note_on_c, 0, 72, 127
1, 28686, Note_on_c, 10, 69, 127
1, 28686, Note_on_c, 5, 77, 127
1, 28838, Note_off_c, 5, 77, 127
1, 28838, Note_off_c, 10, 69, 127
1, 28838, Note_off_c, 0, 72, 127
1, 28840, Note_on_c, 5, 77, 127
1, 28840, Note_on_c, 0, 72, 127
1, 28840, Note_on_c, 10, 69, 127
1, 28992, Note_off_c, 10, 69, 127
1, 28992, Note_off_c, 0, 72, 127
1, 28992, Note_off_c, 5, 77, 127
1, 28992, Note_off_c, 5, 53, 127
1, 28994, Note_on_c, 0, 48, 127
1, 28994, Note_on_c, 10, 69, 127
1, 29148, Note_on_c, 5, 77, 127
1, 29282, Note_off_c, 10, 69, 127
1, 29300, Note_off_c, 0, 48, 127
1, 29302, Note_on_c, 5, 53, 127
1, 29302, Note_on_c, 10, 69, 127
1, 29436, Note_off_c, 5, 77, 127
1, 29455, Note_on_c, 5, 77, 127
1, 29589, Note_off_c, 10, 69, 127
1, 29607, Note_off_c, 5, 77, 127
1, 29607, Note_off_c, 5, 53, 127
1, 29609, Note_on_c, 2, 50, 127
1, 29609, Note_on_c, 11, 70, 127
1, 29763, Note_on_c, 2, 74, 127
1, 29915, Note_off_c, 2, 50, 127
1, 29917, Note_on_c, 11, 46, 127
1, 29917, Note_on_c, 5, 77, 127
1, 30058, Note_off_c, 11, 70, 127
1, 30068, Note_off_c, 2, 74, 127
1, 30070, Note_off_c, 5, 77, 127
1, 30072, Note_on_c, 2, 74, 127
1, 30072, Note_on_c, 11, 70, 127
1, 30072, Note_on_c, 5, 77, 127
1, 30224, Note_off_c, 5, 77, 127
1, 30224, Note_off_c, 11, 70, 127
1, 30224, Note_off_c, 2, 74, 127
1, 30226, Note_on_c, 2, 74, 127
1, 30226, Note_on_c, 11, 70, 127
1, 30226, Note_on_c, 5, 77, 127
1, 30367, Note_off_c, 11, 46, 127
1, 30378, Note_off_c, 5, 77, 127
1, 30378, Note_off_c, 11, 70, 127
1, 30378, Note_off_c, 2, 74, 127
1, 30380, Note_on_c, 2, 74, 127
1, 30380, Note_on_c, 11, 70, 127
1, 30380, Note_on_c, 5, 77, 127
1, 30532, Note_off_c, 5, 77, 127
1, 30532, Note_off_c, 11, 70, 127
1, 30532, Note_off_c, 2, 74, 127
1, 30534, Note_on_c, 2, 50, 127
1, 30534, Note_on_c, 11, 70, 127
1, 30534, Note_on_c, 5, 77, 127
1, 30534, Note_on_c, 2, 74, 127
1, 30686, Note_off_c, 2, 74, 127
1, 30686, Note_off_c, 5, 77, 127
1, 30686, Note_off_c, 11, 70, 127
1, 30688, Note_on_c, 5, 77, 127
1, 30688, Note_on_c, 2, 74, 127
1, 30688, Note_on_c, 11, 70, 127
1, 30840, Note_off_c, 11, 70, 127
1, 30840, Note_off_c, 2, 74, 127
1, 30840, Note_off_c, 5, 77, 127
1, 30840, Note_off_c, 2, 50, 127
1, 30842, Note_on_c, 11, 46, 127
1, 30842, Note_on_c, 2, 74, 127
1, 30996, Note_on_c, 5, 77, 127
1, 31114, Note_off_c, 2, 74, 127
1, 31148, Note_off_c, 11, 46, 127
1, 31150, Note_on_c, 2, 50, 127
1, 31150, Note_on_c, 2, 74, 127
1, 31268, Note_off_c, 5, 77, 127
1, 31303, Note_on_c, 5, 77, 127
1, 31421, Note_off_c, 2, 74, 127
1, 31455, Note_off_c, 5, 77, 127
1, 31455, Note_off_c, 2, 50, 127
1, 31457, Note_on_c, 5, 53, 127
1, 31457, Note_on_c, 10, 69, 127
1, 31611, Note_on_c, 0, 72, 127
1, 31763, Note_off_c, 5, 53, 127
1, 31765, Note_on_c, 5, 41, 127
1, 31765, Note_on_c, 5, 77, 127
1, 31906, Note_off_c, 10, 69, 127
1, 31916, Note_off_c, 0, 72, 127
1, 31918, Note_off_c, 5, 77, 127
1, 31920, Note_on_c, 0, 72, 127
1, 31920, Note_on_c, 10, 69, 127
1, 31920, Note_on_c, 5, 77, 127
1, 32072, Note_off_c, 5, 77, 127
1, 32072, Note_off_c, 10, 69, 127
1, 32072, Note_off_c, 0, 72, 127
1, 32074, Note_on_c, 0, 72, 127
1, 32074, Note_on_c, 10, 69, 127
1, 32074, Note_on_c, 5, 77, 127
1, 32215, Note_off_c, 5, 41, 127
1, 32226, Note_off_c, 5, 77, 127
1, 32226, Note_off_c, 10, 69, 127
1, 32226, Note_off_c, 0, 72, 127
1, 32228, Note_on_c, 0, 72, 127
1, 32228, Note_on_c, 10, 69, 127
1, 32228, Note_on_c, 5, 77, 127
1, 32380, Note_off_c, 5, 77, 127
1, 32380, Note_off_c, 10, 69, 127
1, 32380, Note_off_c, 0, 72, 127
1, 32382, Note_on_c, 5, 53, 127
1, 32382, Note_on_c, 5, 77, 127
1, 32382, Note_on_c, 0, 72, 127
1, 32382, Note_on_c, 10, 69, 127
1, 32534, Note_off_c, 10, 69, 127
1, 32534, Note_off_c, 0, 72, 127
1, 32534, Note_off_c, 5, 77, 127
1, 32536, Note_on_c, 0, 72, 127
1, 32536, Note_on_c, 10, 69, 127
1, 32536, Note_on_c, 5, 77, 127
1, 32688, Note_off_c, 5, 77, 127
1, 32688, Note_off_c, 10, 69, 127
1, 32688, Note_off_c, 0, 72, 127
1, 32688, Note_off_c, 5, 53, 127
1, 32690, Note_on_c, 2, 50, 127
1, 32690, Note_on_c, 10, 69, 127
1, 32844, Note_on_c, 5, 77, 127
1, 32978, Note_off_c, 10, 69, 127
1, 32996, Note_off_c, 2, 50, 127
1, 32998, Note_on_c, 5, 53, 127
1, 32998, Note_on_c, 10, 69, 127
1, 33132, Note_off_c, 5, 77, 127
1, 33150, Note_off_c, 10, 69, 127
1, 33152, Note_on_c, 5, 77, 127
1, 33304, Note_off_c, 5, 77, 127
1, 33304, Note_off_c, 5, 53, 127
1, 33306, Note_on_c, 7, 55, 127
1, 33306, Note_on_c, 12, 71, 127
1, 33460, Note_on_c, 2, 74, 127
1, 33612, Note_off_c, 7, 55, 127
1, 33614, Note_on_c, 7, 43, 127
1, 33614, Note_on_c, 7, 79, 127
1, 33755, Note_off_c, 12, 71, 127
1, 33765, Note_off_c, 2, 74, 127
1, 33767, Note_off_c, 7, 79, 127
1, 33769, Note_on_c, 7, 79, 127
1, 33769, Note_on_c, 2, 74, 127
1, 33769, Note_on_c, 12, 71, 127
1, 33921, Note_off_c, 12, 71, 127
1, 33921, Note_off_c, 2, 74, 127
1, 33921, Note_off_c, 7, 79, 127
1, 33923, Note_on_c, 12, 71, 127
1, 33923, Note_on_c, 7, 79, 127
1, 33923, Note_on_c, 2, 74, 127
1, 34064, Note_off_c, 7, 43, 127
1, 34075, Note_off_c, 2, 74, 127
1, 34075, Note_off_c, 7, 79, 127
1, 34075, Note_off_c, 12, 71, 127
1, 34077, Note_on_c, 12, 71, 127
1, 34077, Note_on_c, 7, 79, 127
1, 34077, Note_on_c, 2, 74, 127
1, 34229, Note_off_c, 2, 74, 127
1, 34229, Note_off_c, 7, 79, 127
1, 34229, Note_off_c, 12, 71, 127
1, 34231, Note_on_c, 7, 55, 127
1, 34231, Note_on_c, 7, 79, 127
1, 34231, Note_on_c, 2, 74, 127
1, 34231, Note_on_c, 12, 71, 127
1, 34383, Note_off_c, 12, 71, 127
1, 34383, Note_off_c, 2, 74, 127
1, 34383, Note_off_c, 7, 79, 127
1, 34385, Note_on_c, 12, 71, 127
1, 34385, Note_on_c, 7, 79, 127
1, 34385, Note_on_c, 2, 74, 127
1, 34537, Note_off_c, 2, 74, 127
1, 34537, Note_off_c, 7, 79, 127
1, 34537, Note_off_c, 12, 71, 127
1, 34537, Note_off_c, 7, 55, 127
1, 34539, Note_on_c, 2, 50, 127
1, 34539, Note_on_c, 12, 71, 127
1, 34693, Note_on_c, 7, 79, 127
1, 34827, Note_off_c, 12, 71, 127
1, 34845, Note_off_c, 2, 50, 127
1, 34847, Note_on_c, 7, 55, 127
1, 34847, Note_on_c, 12, 71, 127
1, 34981, Note_off_c, 7, 79, 127
1, 34999, Note_off_c, 12, 71, 127
1, 35001, Note_on_c, 7, 79, 127
1, 35153, Note_off_c, 7, 79, 127
1, 35153, Note_off_c, 7, 55, 127
1, 35155, Note_on_c, 3, 51, 127
1, 35155, Note_on_c, 0, 72, 127
1, 35309, Note_on_c, 3, 75, 127
1, 35461, Note_off_c, 3, 51, 127
1, 35463, Note_on_c, 0, 48, 127
1, 35463, Note_on_c, 7, 79, 127
1, 35604, Note_off_c, 0, 72, 127
1, 35614, Note_off_c, 3, 75, 127
1, 35616, Note_off_c, 7, 79, 127
1, 35618, Note_on_c, 7, 79, 127
1, 35618, Note_on_c, 3, 75, 127
1, 35618, Note_on_c, 0, 72, 127
1, 35770, Note_off_c, 0, 72, 127
1, 35770, Note_off_c, 3, 75, 127
1, 35770, Note_off_c, 7, 79, 127
1, 35772, Note_on_c, 3, 75, 127
1, 35772, Note_on_c, 0, 72, 127
1, 35772, Note_on_c, 7, 79, 127
1, 35913, Note_off_c, 0, 48, 127
1, 35924, Note_off_c, 7, 79, 127
1, 35924, Note_off_c, 0, 72, 127
1, 35924, Note_off_c, 3, 75, 127
1, 35926, Note_on_c, 3, 75, 127
1, 35926, Note_on_c, 0, 72, 127
1, 35926, Note_on_c, 7, 79, 127
1, 36078, Note_off_c, 7, 79, 127
1, 36078, Note_off_c, 0, 72, 127
1, 36078, Note_off_c, 3, 75, 127
1, 36080, Note_on_c, 3, 51, 127
1, 36080, Note_on_c, 3, 75, 127
1, 36080, Note_on_c, 0, 72, 127
1, 36080, Note_on_c, 7, 79, 127
1, 36232, Note_off_c, 7, 79, 127
1, 36232, Note_off_c, 0, 72, 127
1, 36232, Note_off_c, 3, 75, 127
1, 36234, Note_on_c, 3, 75, 127
1, 36234, Note_on_c, 0, 72, 127
1, 36234, Note_on_c, 7, 79, 127
1, 36386, Note_off_c, 7, 79, 127
1, 36386, Note_off_c, 0, 72, 127
1, 36386, Note_off_c, 3, 75, 127
1, 36386, Note_off_c, 3, 51, 127
1, 36388, Note_on_c, 0, 48, 127
1, 36388, Note_on_c, 3, 75, 127
1, 36542, Note_on_c, 7, 79, 127
1, 36660, Note_off_c, 3, 75, 127
1, 36694, Note_off_c, 0, 48, 127
1, 36696, Note_on_c, 3, 51, 127
1, 36696, Note_on_c, 3, 75, 127
1, 36814, Note_off_c, 7, 79, 127
1, 36848, Note_off_c, 3, 75, 127
1, 36850, Note_on_c, 7, 79, 127
1, 37002, Note_off_c, 7, 79, 127
1, 37002, Note_off_c, 3, 51, 127
1, 37004, Note_on_c, 10, 57, 127
1, 37004, Note_on_c, 1, 73, 127
1, 37158, Note_on_c, 4, 76, 127
1, 37310, Note_off_c, 10, 57, 127
1, 37312, Note_on_c, 10, 45, 127
1, 37312, Note_on_c, 10, 81, 127
1, 37453, Note_off_c, 1, 73, 127
1, 37463, Note_off_c, 4, 76, 127
1, 37465, Note_off_c, 10, 81, 127
1, 37467, Note_on_c, 10, 81, 127
1, 37467, Note_on_c, 4, 76, 127
1, 37467, Note_on_c, 1, 73, 127
1, 37619, Note_off_c, 1, 73, 127
1, 37619, Note_off_c, 4, 76, 127
1, 37619, Note_off_c, 10, 81, 127
1, 37621, Note_on_c, 1, 73, 127
1, 37621, Note_on_c, 10, 81, 127
1, 37621, Note_on_c, 4, 76, 127
1, 37762, Note_off_c, 10, 45, 127
1, 37773, Note_off_c, 4, 76, 127
1, 37773, Note_off_c, 10, 81, 127
1, 37773, Note_off_c, 1, 73, 127
1, 37775, Note_on_c, 10, 81, 127
1, 37775, Note_on_c, 4, 76, 127
1, 37775, Note_on_c, 1, 73, 127
1, 37927, Note_off_c, 1, 73, 127
1, 37927, Note_off_c, 4, 76, 127
1, 37927, Note_off_c, 10, 81, 127
1, 37929, Note_on_c, 10, 57, 127
1, 37929, Note_on_c, 4, 76, 127
1, 37929, Note_on_c, 1, 73, 127
1, 37929, Note_on_c, 10, 81, 127
1, 38081, Note_off_c, 10, 81, 127
1, 38081, Note_off_c, 1, 73, 127
1, 38081, Note_off_c, 4, 76, 127
1, 38083, Note_on_c, 4, 76, 127
1, 38083, Note_on_c, 1, 73, 127
1, 38083, Note_on_c, 10, 81, 127
1, 38235, Note_off_c, 10, 81, 127
1, 38235, Note_off_c, 1, 73, 127
1, 38235, Note_off_c, 4, 76, 127
1, 38235, Note_off_c, 10, 57, 127
1, 38237, Note_on_c, 4, 52, 127
1, 38237, Note_on_c, 1, 73, 127
1, 38391, Note_on_c, 10, 81, 127
1, 38525, Note_off_c, 1, 73, 127
1, 38543, Note_off_c, 4, 52, 127
1, 38545, Note_on_c, 10, 57, 127
1, 38545, Note_on_c, 1, 73, 127
1, 38679, Note_off_c, 10, 81, 127
1, 38697, Note_off_c, 1, 73, 127
1, 38699, Note_on_c, 10, 81, 127
1, 38851, Note_off_c, 10, 81, 127
1, 38851, Note_off_c, 10, 57, 127
1, 38853, Note_on_c, 6, 54, 127
1, 38853, Note_on_c, 0, 72, 127
1, 39007, Note_on_c, 2, 74, 127
1, 39159, Note_off_c, 6, 54, 127
1, 39161, Note_on_c, 2, 50, 127
1, 39161, Note_on_c, 10, 81, 127
1, 39302, Note_off_c, 0, 72, 127
1, 39312, Note_off_c, 2, 74, 127
1, 39314, Note_off_c, 10, 81, 127
1, 39316, Note_on_c, 10, 81, 127
1, 39316, Note_on_c, 0, 72, 127
1, 39316, Note_on_c, 2, 74, 127
1, 39468, Note_off_c, 2, 74, 127
1, 39468, Note_off_c, 0, 72, 127
1, 39468, Note_off_c, 10, 81, 127
1, 39470, Note_on_c, 2, 74, 127
1, 39470, Note_on_c, 0, 72, 127
1, 39470, Note_on_c, 10, 81, 127
1, 39611, Note_off_c, 2, 50, 127
1, 39622, Note_off_c, 10, 81, 127
1, 39622, Note_off_c, 0, 72, 127
1, 39622, Note_off_c, 2, 74, 127
1, 39624, Note_on_c, 0, 72, 127
1, 39624, Note_on_c, 10, 81, 127
1, 39624, Note_on_c, 2, 74, 127
1, 39776, Note_off_c, 2, 74, 127
1, 39776, Note_off_c, 10, 81, 127
1, 39776, Note_off_c, 0, 72, 127
1, 39778, Note_on_c, 6, 54, 127
1, 39778, Note_on_c, 10, 81, 127
1, 39778, Note_on_c, 2, 74, 127
1, 39778, Note_on_c, 0, 72, 127
1, 39930, Note_off_c, 0, 72, 127
1, 39930, Note_off_c, 2, 74, 127
1, 39930, Note_off_c, 10, 81, 127
1, 39932, Note_on_c, 2, 74, 127
1, 39932, Note_on_c, 0, 72, 127
1, 39932, Note_on_c, 10, 81, 127
1, 40084, Note_off_c, 10, 81, 127
1, 40084, Note_off_c, 0, 72, 127
1, 40084, Note_off_c, 2, 74, 127
1, 40084, Note_off_c, 6, 54, 127
1, 40086, Note_on_c, 2, 50, 127
1, 40086, Note_on_c, 0, 72, 127
1, 40240, Note_on_c, 10, 81, 127
1, 40374, Note_off_c, 0, 72, 127
1, 40392, Note_off_c, 2, 50, 127
1, 40394, Note_on_c, 6, 54, 127
1, 40394, Note_on_c, 0, 72, 127
1, 40528, Note_off_c, 10, 81, 127
1, 40546, Note_off_c, 0, 72, 127
1, 40548, Note_on_c, 10, 81, 127
1, 40700, Note_off_c, 10, 81, 127
1, 40700, Note_off_c, 6, 54, 127
1, 40702, Note_on_c, 7, 55, 127
1, 40702, Note_on_c, 11, 70, 127
1, 40856, Note_on_c, 2, 74, 127
1, 41008, Note_off_c, 7, 55, 127
1, 41010, Note_on_c, 7, 43, 127
1, 41010, Note_on_c, 7, 79, 127
1, 41151, Note_off_c, 11, 70, 127
1, 41161, Note_off_c, 2, 74, 127
1, 41163, Note_off_c, 7, 79, 127
1, 41165, Note_on_c, 7, 79, 127
1, 41165, Note_on_c, 2, 74, 127
1, 41165, Note_on_c, 11, 70, 127
1, 41317, Note_off_c, 11, 70, 127
1, 41317, Note_off_c, 2, 74, 127
1, 41317, Note_off_c, 7, 79, 127
1, 41319, Note_on_c, 7, 79, 127
1, 41319, Note_on_c, 2, 74, 127
1, 41319, Note_on_c, 11, 70, 127
1, 41460, Note_off_c, 7, 43, 127
1, 41471, Note_off_c, 11, 70, 127
1, 41471, Note_off_c, 2, 74, 127
1, 41471, Note_off_c, 7, 79, 127
1, 41473, Note_on_c, 2, 74, 127
1, 41473, Note_on_c, 11, 70, 127
1, 41473, Note_on_c, 7, 79, 127
1, 41625, Note_off_c, 7, 79, 127
1, 41625, Note_off_c, 11, 70, 127
1, 41625, Note_off_c, 2, 74, 127
1, 41627, Note_on_c, 11, 46, 127
1, 41627, Note_on_c, 2, 74, 127
1, 41627, Note_on_c, 11, 70, 127
1, 41627, Note_on_c, 7, 79, 127
1, 41779, Note_off_c, 7, 79, 127
1, 41779, Note_off_c, 11, 70, 127
1, 41779, Note_off_c, 2, 74, 127
1, 41781, Note_on_c, 7, 79, 127
1, 41781, Note_on_c, 2, 74, 127
1, 41781, Note_on_c, 11, 70, 127
1, 41933, Note_off_c, 11, 70, 127
1, 41933, Note_off_c, 2, 74, 127
1, 41933, Note_off_c, 7, 79, 127
1, 41933, Note_off_c, 11, 46, 127
1, 41935, Note_on_c, 7, 43, 127
1, 41935, Note_on_c, 11, 70, 127
1, 42089, Note_on_c, 7, 79, 127
1, 42223, Note_off_c, 11, 70, 127
1, 42241, Note_off_c, 7, 43, 127
1, 42243, Note_on_c, 11, 46, 127
1, 42243, Note_on_c, 11, 70, 127
1, 42377, Note_off_c, 7, 79, 127
1, 42395, Note_off_c, 11, 70, 127
1, 42397, Note_on_c, 7, 79, 127
1, 42549, Note_off_c, 7, 79, 127
1, 42549, Note_off_c, 11, 46, 127
1, 42551, Note_on_c, 0, 48, 127
1, 42551, Note_on_c, 10, 69, 127
1, 42705, Note_on_c, 0, 72, 127
1, 42859, Note_on_c, 7, 79, 127
1, 43000, Note_off_c, 10, 69, 127
1, 43010, Note_off_c, 0, 72, 127
1, 43012, Note_off_c, 7, 79, 127
1, 43014, Note_on_c, 7, 79, 127
1, 43014, Note_on_c, 0, 72, 127
1, 43014, Note_on_c, 10, 69, 127
1, 43161, Note_off_c, 0, 48, 127
1, 43166, Note_off_c, 10, 69, 127
1, 43166, Note_off_c, 0, 72, 127
1, 43166, Note_off_c, 7, 79, 127
1, 43168, Note_on_c, 10, 69, 127
1, 43168, Note_on_c, 0, 72, 127
1, 43168, Note_on_c, 7, 79, 127
1, 43320, Note_off_c, 7, 79, 127
1, 43320, Note_off_c, 0, 72, 127
1, 43320, Note_off_c, 10, 69, 127
1, 43322, Note_on_c, 7, 79, 127
1, 43322, Note_on_c, 0, 72, 127
1, 43322, Note_on_c, 10, 69, 127
1, 43474, Note_off_c, 10, 69, 127
1, 43474, Note_off_c, 0, 72, 127
1, 43474, Note_off_c, 7, 79, 127
1, 43476, Note_on_c, 0, 48, 127
1, 43476, Note_on_c, 7, 79, 127
1, 43476, Note_on_c, 0, 72, 127
1, 43476, Note_on_c, 10, 69, 127
1, 43628, Note_off_c, 10, 69, 127
1, 43628, Note_off_c, 0, 72, 127
1, 43628, Note_off_c, 7, 79, 127
1, 43630, Note_on_c, 0, 72, 127
1, 43630, Note_on_c, 10, 69, 127
1, 43630, Note_on_c, 7, 79, 127
1, 43782, Note_off_c, 7, 79, 127
1, 43782, Note_off_c, 10, 69, 127
1, 43782, Note_off_c, 0, 72, 127
1, 43782, Note_off_c, 0, 48, 127
1, 43784, Note_on_c, 10, 45, 127
1, 43784, Note_on_c, 10, 69, 127
1, 43938, Note_on_c, 7, 79, 127
1, 44072, Note_off_c, 10, 69, 127
1, 44090, Note_off_c, 10, 45, 127
1, 44092, Note_on_c, 0, 48, 127
1, 44092, Note_on_c, 10, 69, 127
1, 44226, Note_off_c, 7, 79, 127
1, 44244, Note_off_c, 10, 69, 127
1, 44246, Note_on_c, 7, 79, 127
1, 44398, Note_off_c, 7, 79, 127
1, 44398, Note_off_c, 0, 48, 127
1, 44400, Note_on_c, 2, 50, 127
1, 44400, Note_on_c, 10, 69, 127
1, 44554, Note_on_c, 0, 72, 127
1, 44708, Note_on_c, 6, 78, 127
1, 44849, Note_off_c, 10, 69, 127
1, 44859, Note_off_c, 0, 72, 127
1, 44861, Note_off_c, 6, 78, 127
1, 44863, Note_on_c, 6, 78, 127
1, 44863, Note_on_c, 0, 72, 127
1, 44863, Note_on_c, 10, 69, 127
1, 45015, Note_off_c, 10, 69, 127
1, 45015, Note_off_c, 0, 72, 127
1, 45015, Note_off_c, 6, 78, 127
1, 45017, Note_on_c, 6, 78, 127
1, 45017, Note_on_c, 10, 69, 127
1, 45017, Note_on_c, 0, 72, 127
1, 45169, Note_off_c, 0, 72, 127
1, 45169, Note_off_c, 10, 69, 127
1, 45169, Note_off_c, 6, 78, 127
1, 45171, Note_on_c, 10, 69, 127
1, 45171, Note_on_c, 6, 78, 127
1, 45171, Note_on_c, 0, 72, 127
1, 45323, Note_off_c, 0, 72, 127
1, 45323, Note_off_c, 6, 78, 127
1, 45323, Note_off_c, 10, 69, 127
1, 45323, Note_off_c, 2, 50, 127
1, 45325, Note_on_c, 2, 50, 127
1, 45325, Note_on_c, 10, 69, 127
1, 45325, Note_on_c, 6, 78, 127
1, 45325, Note_on_c, 0, 72, 127
1, 45477, Note_off_c, 0, 72, 127
1, 45477, Note_off_c, 6, 78, 127
1, 45477, Note_off_c, 10, 69, 127
1, 45479, Note_on_c, 6, 78, 127
1, 45479, Note_on_c, 10, 69, 127
1, 45479, Note_on_c, 0, 72, 127
1, 45631, Note_off_c, 0, 72, 127
1, 45631, Note_off_c, 10, 69, 127
1, 45631, Note_off_c, 6, 78, 127
1, 45631, Note_off_c, 2, 50, 127
1, 45633, Note_on_c, 2, 38, 127
1, 45633, Note_on_c, 10, 69, 127
1, 45787, Note_on_c, 6, 78, 127
1, 45921, Note_off_c, 10, 69, 127
1, 45939, Note_off_c, 2, 38, 127
1, 45941, Note_on_c, 2, 50, 127
1, 45941, Note_on_c, 10, 69, 127
1, 46075, Note_off_c, 6, 78, 127
1, 46093, Note_off_c, 10, 69, 127
1, 46095, Note_on_c, 6, 78, 127
1, 46247, Note_off_c, 6, 78, 127
1, 46247, Note_off_c, 2, 50, 127
1, 46249, Note_on_c, 7, 43, 127
1, 46249, Note_on_c, 7, 79, 127
1, 46401, Note_off_c, 7, 79, 127
1, 46403, Note_on_c, 2, 74, 127
1, 46555, Note_off_c, 2, 74, 127
1, 46557, Note_on_c, 11, 70, 127
1, 46709, Note_off_c, 11, 70, 127
1, 46711, Note_on_c, 7, 67, 127
1, 46863, Note_off_c, 7, 67, 127
1, 46865, Note_on_c, 2, 74, 127
1, 47017, Note_off_c, 2, 74, 127
1, 47019, Note_on_c, 11, 70, 127
1, 47171, Note_off_c, 11, 70, 127
1, 47173, Note_on_c, 7, 67, 127
1, 47325, Note_off_c, 7, 67, 127
1, 47327, Note_on_c, 2, 62, 127
1, 47479, Note_off_c, 2, 62, 127
1, 47481, Note_on_c, 11, 70, 127
1, 47633, Note_off_c, 11, 70, 127
1, 47635, Note_on_c, 7, 67, 127
1, 47787, Note_off_c, 7, 67, 127
1, 47789, Note_on_c, 2, 62, 127
1, 47941, Note_off_c, 2, 62, 127
1, 47943, Note_on_c, 11, 58, 127
1, 48095, Note_off_c, 11, 58, 127
1, 48095, Note_off_c, 7, 43, 127
1, 48097, Note_on_c, 7, 43, 127
1, 48097, Note_on_c, 7, 55, 127
1, 48403, Note_off_c, 7, 55, 127
1, 48405, Note_on_c, 7, 67, 127
1, 48557, Note_off_c, 7, 67, 127
1, 48559, Note_on_c, 10, 69, 127
1, 48711, Note_off_c, 10, 69, 127
1, 48713, Note_on_c, 11, 70, 127
1, 49019, Note_off_c, 11, 70, 127
1, 49021, Note_on_c, 7, 67, 127
1, 49021, Note_on_c, 11, 70, 127
1, 49021, Note_on_c, 2, 74, 127
1, 49327, Note_off_c, 2, 74, 127
1, 49327, Note_off_c, 11, 70, 127
1, 49327, Note_off_c, 7, 67, 127
1, 49329, Note_on_c, 7, 67, 127
1, 49329, Note_on_c, 2, 62, 127
1, 49329, Note_on_c, 11, 70, 127
1, 49635, Note_off_c, 11, 70, 127
1, 49635, Note_off_c, 2, 62, 127
1, 49635, Note_off_c, 7, 67, 127
1, 49637, Note_on_c, 2, 62, 127
1, 49637, Note_on_c, 11, 58, 127
1, 49637, Note_on_c, 7, 67, 127
1, 49944, Note_on_c, 7, 55, 127
1, 50085, Note_off_c, 7, 67, 127
1, 50085, Note_off_c, 11, 58, 127
1, 50085, Note_off_c, 2, 62, 127
1, 50251, Note_on_c, 7, 67, 127
1, 50403, Note_off_c, 7, 67, 127
1, 50405, Note_on_c, 10, 69, 127
1, 50557, Note_off_c, 10, 69, 127
1, 50559, Note_on_c, 11, 70, 127
1, 50865, Note_off_c, 11, 70, 127
1, 50867, Note_on_c, 11, 70, 127
1, 50867, Note_on_c, 2, 74, 127
1, 50867, Note_on_c, 7, 67, 127
1, 51173, Note_off_c, 7, 67, 127
1, 51173, Note_off_c, 2, 74, 127
1, 51173, Note_off_c, 11, 70, 127
1, 51175, Note_on_c, 2, 62, 127
1, 51175, Note_on_c, 11, 70, 127
1, 51175, Note_on_c, 7, 67, 127
1, 51463, Note_off_c, 7, 43, 127
1, 51466, Note_off_c, 7, 55, 127
1, 51480, Note_off_c, 7, 67, 127
1, 51480, Note_off_c, 11, 70, 127
1, 51480, Note_off_c, 2, 62, 127
1, 51482, Note_on_c, 7, 67, 127
1, 51482, Note_on_c, 2, 62, 127
1, 51482, Note_on_c, 11, 58, 127
1, 51788, Note_off_c, 11, 58, 127
1, 51788, Note_off_c, 2, 62, 127
1, 51788, Note_off_c, 7, 67, 127
1, 51790, Note_on_c, 5, 53, 127
1, 51790, Note_on_c, 12, 59, 127
1, 52097, Note_on_c, 7, 67, 127
1, 52249, Note_off_c, 7, 67, 127
1, 52251, Note_on_c, 10, 69, 127
1, 52403, Note_off_c, 10, 69, 127
1, 52405, Note_on_c, 12, 71, 127
1, 52711, Note_off_c, 12, 71, 127
1, 52713, Note_on_c, 2, 74, 127
1, 52713, Note_on_c, 12, 71, 127
1, 52713, Note_on_c, 7, 67, 127
1, 53019, Note_off_c, 7, 67, 127
1, 53019, Note_off_c, 12, 71, 127
1, 53019, Note_off_c, 2, 74, 127
1, 53019, Note_off_c, 12, 59, 127
1, 53021, Note_on_c, 7, 67, 127
1, 53021, Note_on_c, 2, 62, 127
1, 53021, Note_on_c, 12, 71, 127
1, 53327, Note_off_c, 12, 71, 127
1, 53327, Note_off_c, 2, 62, 127
1, 53327, Note_off_c, 7, 67, 127
1, 53329, Note_on_c, 12, 59, 127
1, 53329, Note_on_c, 7, 67, 127
1, 53329, Note_on_c, 2, 62, 127
1, 53391, Note_off_c, 5, 53, 127
1, 53634, Note_off_c, 2, 62, 127
1, 53634, Note_off_c, 7, 67, 127
1, 53634, Note_off_c, 12, 59, 127
1, 53636, Note_on_c, 5, 53, 127
1, 53636, Note_on_c, 12, 59, 127
1, 53943, Note_on_c, 7, 67, 127
1, 54095, Note_off_c, 7, 67, 127
1, 54097, Note_on_c, 10, 69, 127
1, 54249, Note_off_c, 10, 69, 127
1, 54251, Note_on_c, 12, 71, 127
1, 54557, Note_off_c, 12, 71, 127
1, 54559, Note_on_c, 2, 74, 127
1, 54559, Note_on_c, 12, 71, 127
1, 54559, Note_on_c, 7, 67, 127
1, 54805, Note_off_c, 12, 59, 127
1, 54864, Note_off_c, 7, 67, 127
1, 54864, Note_off_c, 12, 71, 127
1, 54864, Note_off_c, 2, 74, 127
1, 54866, Note_on_c, 12, 71, 127
1, 54866, Note_on_c, 2, 62, 127
1, 54866, Note_on_c, 7, 67, 127
1, 55172, Note_off_c, 7, 67, 127
1, 55172, Note_off_c, 2, 62, 127
1, 55172, Note_off_c, 12, 71, 127
1, 55174, Note_on_c, 12, 59, 127
1, 55174, Note_on_c, 7, 67, 127
1, 55174, Note_on_c, 2, 62, 127
1, 55236, Note_off_c, 5, 53, 127
1, 55479, Note_off_c, 2, 62, 127
1, 55479, Note_off_c, 7, 67, 127
1, 55479, Note_off_c, 12, 59, 127
1, 55481, Note_on_c, 3, 51, 127
1, 55481, Note_on_c, 0, 60, 127
1, 55788, Note_on_c, 0, 72, 127
1, 55940, Note_off_c, 0, 72, 127
1, 55942, Note_on_c, 2, 74, 127
1, 56094, Note_off_c, 2, 74, 127
1, 56096, Note_on_c, 3, 75, 127
1, 56402, Note_off_c, 3, 75, 127
1, 56404, Note_on_c, 3, 75, 127
1, 56404, Note_on_c, 0, 72, 127
1, 56404, Note_on_c, 7, 79, 127
1, 56410, Note_off_c, 0, 60, 127
1, 56709, Note_off_c, 7, 79, 127
1, 56709, Note_off_c, 0, 72, 127
1, 56709, Note_off_c, 3, 75, 127
1, 56711, Note_on_c, 0, 72, 127
1, 56711, Note_on_c, 7, 67, 127
1, 56711, Note_on_c, 3, 75, 127
1, 57017, Note_off_c, 3, 75, 127
1, 57017, Note_off_c, 7, 67, 127
1, 57017, Note_off_c, 0, 72, 127
1, 57019, Note_on_c, 0, 72, 127
1, 57019, Note_on_c, 7, 67, 127
1, 57019, Note_on_c, 3, 63, 127
1, 57081, Note_off_c, 3, 51, 127
1, 57324, Note_off_c, 3, 63, 127
1, 57324, Note_off_c, 7, 67, 127
1, 57324, Note_off_c, 0, 72, 127
1, 57326, Note_on_c, 3, 51, 127
1, 57326, Note_on_c, 0, 60, 127
1, 57633, Note_on_c, 0, 72, 127
1, 57785, Note_off_c, 0, 72, 127
1, 57787, Note_on_c, 2, 74, 127
1, 57939, Note_off_c, 2, 74, 127
1, 57941, Note_on_c, 3, 75, 127
1, 58247, Note_off_c, 3, 75, 127
1, 58249, Note_on_c, 0, 72, 127
1, 58249, Note_on_c, 3, 75, 127
1, 58249, Note_on_c, 7, 79, 127
1, 58255, Note_off_c, 0, 60, 127
1, 58554, Note_off_c, 7, 79, 127
1, 58554, Note_off_c, 3, 75, 127
1, 58554, Note_off_c, 0, 72, 127
1, 58556, Note_on_c, 7, 67, 127
1, 58556, Note_on_c, 0, 72, 127
1, 58556, Note_on_c, 3, 75, 127
1, 58862, Note_off_c, 3, 75, 127
1, 58862, Note_off_c, 0, 72, 127
1, 58862, Note_off_c, 7, 67, 127
1, 58864, Note_on_c, 7, 67, 127
1, 58864, Note_on_c, 3, 63, 127
1, 58864, Note_on_c, 0, 72, 127
1, 58926, Note_off_c, 3, 51, 127
1, 59169, Note_off_c, 0, 72, 127
1, 59169, Note_off_c, 3, 63, 127
1, 59169, Note_off_c, 7, 67, 127
1, 59171, Note_on_c, 5, 53, 127
1, 59171, Note_on_c, 2, 62, 127
1, 59478, Note_on_c, 2, 74, 127
1, 59630, Note_off_c, 2, 74, 127
1, 59632, Note_on_c, 3, 75, 127
1, 59784, Note_off_c, 3, 75, 127
1, 59786, Note_on_c, 5, 77, 127
1, 60092, Note_off_c, 5, 77, 127
1, 60094, Note_on_c, 8, 80, 127
1, 60094, Note_on_c, 5, 77, 127
1, 60094, Note_on_c, 2, 74, 127
1, 60100, Note_off_c, 2, 62, 127
1, 60399, Note_off_c, 2, 74, 127
1, 60399, Note_off_c, 5, 77, 127
1, 60399, Note_off_c, 8, 80, 127
1, 60401, Note_on_c, 8, 68, 127
1, 60401, Note_on_c, 2, 74, 127
1, 60401, Note_on_c, 5, 77, 127
1, 60707, Note_off_c, 5, 77, 127
1, 60707, Note_off_c, 2, 74, 127
1, 60707, Note_off_c, 8, 68, 127
1, 60709, Note_on_c, 8, 68, 127
1, 60709, Note_on_c, 5, 65, 127
1, 60709, Note_on_c, 2, 74, 127
1, 60771, Note_off_c, 5, 53, 127
1, 61014, Note_off_c, 2, 74, 127
1, 61014, Note_off_c, 5, 65, 127
1, 61014, Note_off_c, 8, 68, 127
1, 61016, Note_on_c, 5, 53, 127
1, 61016, Note_on_c, 2, 62, 127
1, 61323, Note_on_c, 2, 74, 127
1, 61475, Note_off_c, 2, 74, 127
1, 61477, Note_on_c, 3, 75, 127
1, 61629, Note_off_c, 3, 75, 127
1, 61631, Note_on_c, 5, 77, 127
1, 61937, Note_off_c, 5, 77, 127
1, 61939, Note_on_c, 2, 74, 127
1, 61939, Note_on_c, 8, 80, 127
1, 61939, Note_on_c, 5, 77, 127
1, 61945, Note_off_c, 2, 62, 127
1, 62244, Note_off_c, 5, 77, 127
1, 62244, Note_off_c, 8, 80, 127
1, 62244, Note_off_c, 2, 74, 127
1, 62246, Note_on_c, 2, 74, 127
1, 62246, Note_on_c, 8, 68, 127
1, 62246, Note_on_c, 5, 77, 127
1, 62552, Note_off_c, 5, 77, 127
1, 62552, Note_off_c, 8, 68, 127
1, 62552, Note_off_c, 2, 74, 127
1, 62554, Note_on_c, 5, 65, 127
1, 62554, Note_on_c, 2, 74, 127
1, 62554, Note_on_c, 8, 68, 127
1, 62616, Note_off_c, 5, 53, 127
1, 62859, Note_off_c, 8, 68, 127
1, 62859, Note_off_c, 2, 74, 127
1, 62859, Note_off_c, 5, 65, 127
1, 62861, Note_on_c, 0, 60, 127
1, 62861, Note_on_c, 7, 55, 127
1, 62861, Note_on_c, 3, 75, 127
1, 62861, Note_on_c, 7, 67, 127
1, 63013, Note_off_c, 7, 67, 127
1, 63013, Note_off_c, 3, 75, 127
1, 63015, Note_on_c, 0, 72, 127
1, 63167, Note_off_c, 0, 72, 127
1, 63169, Note_on_c, 7, 67, 127
1, 63321, Note_off_c, 7, 67, 127
1, 63323, Note_on_c, 12, 71, 127
1, 63475, Note_off_c, 12, 71, 127
1, 63477, Note_on_c, 0, 72, 127
1, 63629, Note_off_c, 0, 72, 127
1, 63631, Note_on_c, 7, 67, 127
1, 63783, Note_off_c, 7, 67, 127
1, 63783, Note_off_c, 0, 60, 127
1, 63785, Note_on_c, 3, 63, 127
1, 63937, Note_off_c, 3, 63, 127
1, 63939, Note_on_c, 0, 60, 127
1, 64080, Note_off_c, 7, 55, 127
1, 64091, Note_off_c, 0, 60, 127
1, 64093, Note_on_c, 7, 43, 127
1, 64093, Note_on_c, 7, 55, 127
1, 64093, Note_on_c, 2, 50, 127
1, 64093, Note_on_c, 2, 62, 127
1, 64245, Note_off_c, 2, 62, 127
1, 64247, Note_on_c, 5, 65, 127
1, 64399, Note_off_c, 5, 65, 127
1, 64401, Note_on_c, 0, 72, 127
1, 64553, Note_off_c, 0, 72, 127
1, 64555, Note_on_c, 12, 71, 127
1, 64707, Note_off_c, 12, 71, 127
1, 64707, Note_off_c, 2, 50, 127
1, 64707, Note_off_c, 7, 55, 127
1, 64707, Note_off_c, 7, 43, 127
1, 64709, Note_on_c, 0, 48, 127
1, 64709, Note_on_c, 7, 55, 127
1, 64709, Note_on_c, 0, 72, 127
1, 64863, Note_on_c, 3, 75, 127
1, 64893, Note_off_c, 0, 72, 127
1, 65015, Note_off_c, 7, 55, 127
1, 65015, Note_off_c, 0, 48, 127
1, 65017, Note_on_c, 0, 60, 127
1, 65017, Note_on_c, 0, 72, 127
1, 65047, Note_off_c, 3, 75, 127
1, 65169, Note_off_c, 0, 60, 127
1, 65171, Note_on_c, 2, 62, 127
1, 65171, Note_on_c, 3, 75, 127
1, 65201, Note_off_c, 0, 72, 127
1, 65323, Note_off_c, 2, 62, 127
1, 65325, Note_on_c, 3, 63, 127
1, 65325, Note_on_c, 7, 67, 127
1, 65355, Note_off_c, 3, 75, 127
1, 65478, Note_on_c, 3, 75, 127
1, 65508, Note_off_c, 7, 67, 127
1, 65630, Note_off_c, 3, 63, 127
1, 65632, Note_on_c, 7, 67, 127
1, 65632, Note_on_c, 0, 72, 127
1, 65662, Note_off_c, 3, 75, 127
1, 65785, Note_on_c, 3, 75, 127
1, 65815, Note_off_c, 0, 72, 127
1, 65937, Note_off_c, 7, 67, 127
1, 65939, Note_on_c, 3, 63, 127
1, 65939, Note_on_c, 7, 67, 127
1, 65969, Note_off_c, 3, 75, 127
1, 66092, Note_on_c, 3, 75, 127
1, 66122, Note_off_c, 7, 67, 127
1, 66244, Note_off_c, 3, 63, 127
1, 66246, Note_on_c, 0, 60, 127
1, 66246, Note_on_c, 7, 67, 127
1, 66276, Note_off_c, 3, 75, 127
1, 66399, Note_on_c, 3, 75, 127
1, 66429, Note_off_c, 7, 67, 127
1, 66551, Note_off_c, 3, 75, 127
1, 66551, Note_off_c, 0, 60, 127
1, 66553, Note_on_c, 12, 59, 127
1, 66553, Note_on_c, 7, 67, 127
1, 66707, Note_on_c, 2, 74, 127
1, 66737, Note_off_c, 7, 67, 127
1, 66859, Note_off_c, 12, 59, 127
1, 66861, Note_on_c, 7, 55, 127
1, 66861, Note_on_c, 12, 71, 127
1, 66891, Note_off_c, 2, 74, 127
1, 67013, Note_off_c, 7, 55, 127
1, 67015, Note_on_c, 10, 57, 127
1, 67015, Note_on_c, 2, 74, 127
1, 67045, Note_off_c, 12, 71, 127
1, 67167, Note_off_c, 10, 57, 127
1, 67169, Note_on_c, 12, 59, 127
1, 67169, Note_on_c, 7, 67, 127
1, 67199, Note_off_c, 2, 74, 127
1, 67322, Note_on_c, 2, 74, 127
1, 67352, Note_off_c, 7, 67, 127
1, 67474, Note_off_c, 12, 59, 127
1, 67476, Note_on_c, 2, 62, 127
1, 67476, Note_on_c, 12, 71, 127
1, 67506, Note_off_c, 2, 74, 127
1, 67629, Note_on_c, 2, 74, 127
1, 67659, Note_off_c, 12, 71, 127
1, 67781, Note_off_c, 2, 62, 127
1, 67783, Note_on_c, 12, 59, 127
1, 67783, Note_on_c, 7, 67, 127
1, 67813, Note_off_c, 2, 74, 127
1, 67936, Note_on_c, 2, 74, 127
1, 67966, Note_off_c, 7, 67, 127
1, 68088, Note_off_c, 12, 59, 127
1, 68090, Note_on_c, 7, 55, 127
1, 68090, Note_on_c, 7, 67, 127
1, 68120, Note_off_c, 2, 74, 127
1, 68243, Note_on_c, 2, 74, 127
1, 68273, Note_off_c, 7, 67, 127
1, 68395, Note_off_c, 2, 74, 127
1, 68395, Note_off_c, 7, 55, 127
1, 68397, Note_on_c, 0, 48, 127
1, 68397, Note_on_c, 7, 67, 127
1, 68551, Note_on_c, 3, 75, 127
1, 68581, Note_off_c, 7, 67, 127
1, 68703, Note_off_c, 0, 48, 127
1, 68705, Note_on_c, 0, 60, 127
1, 68705, Note_on_c, 0, 72, 127
1, 68735, Note_off_c, 3, 75, 127
1, 68857, Note_off_c, 0, 60, 127
1, 68859, Note_on_c, 2, 62, 127
1, 68859, Note_on_c, 3, 75, 127
1, 68889, Note_off_c, 0, 72, 127
1, 69011, Note_off_c, 2, 62, 127
1, 69013, Note_on_c, 3, 63, 127
1, 69013, Note_on_c, 7, 67, 127
1, 69043, Note_off_c, 3, 75, 127
1, 69166, Note_on_c, 3, 75, 127
1, 69196, Note_off_c, 7, 67, 127
1, 69318, Note_off_c, 3, 63, 127
1, 69320, Note_on_c, 7, 67, 127
1, 69320, Note_on_c, 0, 72, 127
1, 69350, Note_off_c, 3, 75, 127
1, 69473, Note_on_c, 3, 75, 127
1, 69503, Note_off_c, 0, 72, 127
1, 69625, Note_off_c, 7, 67, 127
1, 69627, Note_on_c, 3, 63, 127
1, 69627, Note_on_c, 7, 67, 127
1, 69657, Note_off_c, 3, 75, 127
1, 69780, Note_on_c, 3, 75, 127
1, 69810, Note_off_c, 7, 67, 127
1, 69932, Note_off_c, 3, 63, 127
1, 69934, Note_on_c, 0, 60, 127
1, 69934, Note_on_c, 7, 67, 127
1, 69964, Note_off_c, 3, 75, 127
1, 70087, Note_on_c, 3, 75, 127
1, 70117, Note_off_c, 7, 67, 127
1, 70239, Note_off_c, 0, 60, 127
1, 70241, Note_on_c, 10, 57, 127
1, 70241, Note_on_c, 5, 65, 127
1, 70271, Note_off_c, 3, 75, 127
1, 70394, Note_on_c, 3, 75, 127
1, 70424, Note_off_c, 5, 65, 127
1, 70546, Note_off_c, 10, 57, 127
1, 70548, Note_on_c, 5, 53, 127
1, 70548, Note_on_c, 0, 72, 127
1, 70578, Note_off_c, 3, 75, 127
1, 70700, Note_off_c, 5, 53, 127
1, 70702, Note_on_c, 7, 55, 127
1, 70702, Note_on_c, 3, 75, 127
1, 70732, Note_off_c, 0, 72, 127
1, 70854, Note_off_c, 7, 55, 127
1, 70856, Note_on_c, 10, 57, 127
1, 70856, Note_on_c, 5, 65, 127
1, 70886, Note_off_c, 3, 75, 127
1, 71009, Note_on_c, 3, 75, 127
1, 71039, Note_off_c, 5, 65, 127
1, 71161, Note_off_c, 10, 57, 127
1, 71163, Note_on_c, 0, 60, 127
1, 71163, Note_on_c, 0, 72, 127
1, 71193, Note_off_c, 3, 75, 127
1, 71316, Note_on_c, 3, 75, 127
1, 71346, Note_off_c, 0, 72, 127
1, 71468, Note_off_c, 0, 60, 127
1, 71470, Note_on_c, 10, 57, 127
1, 71470, Note_on_c, 5, 65, 127
1, 71500, Note_off_c, 3, 75, 127
1, 71623, Note_on_c, 3, 75, 127
1, 71653, Note_off_c, 5, 65, 127
1, 71775, Note_off_c, 10, 57, 127
1, 71777, Note_on_c, 5, 53, 127
1, 71777, Note_on_c, 5, 65, 127
1, 71807, Note_off_c, 3, 75, 127
1, 71930, Note_on_c, 3, 75, 127
1, 71960, Note_off_c, 5, 65, 127
1, 72082, Note_off_c, 3, 75, 127
1, 72082, Note_off_c, 5, 53, 127
1, 72084, Note_on_c, 11, 46, 127
1, 72084, Note_on_c, 5, 65, 127
1, 72238, Note_on_c, 1, 73, 127
1, 72268, Note_off_c, 5, 65, 127
1, 72390, Note_off_c, 11, 46, 127
1, 72392, Note_on_c, 11, 58, 127
1, 72392, Note_on_c, 11, 70, 127
1, 72422, Note_off_c, 1, 73, 127
1, 72544, Note_off_c, 11, 58, 127
1, 72546, Note_on_c, 0, 60, 127
1, 72546, Note_on_c, 1, 73, 127
1, 72576, Note_off_c, 11, 70, 127
1, 72698, Note_off_c, 0, 60, 127
1, 72700, Note_on_c, 1, 61, 127
1, 72700, Note_on_c, 5, 65, 127
1, 72730, Note_off_c, 1, 73, 127
1, 72853, Note_on_c, 1, 73, 127
1, 72883, Note_off_c, 5, 65, 127
1, 73005, Note_off_c, 1, 61, 127
1, 73007, Note_on_c, 5, 65, 127
1, 73007, Note_on_c, 11, 70, 127
1, 73037, Note_off_c, 1, 73, 127
1, 73160, Note_on_c, 1, 73, 127
1, 73190, Note_off_c, 11, 70, 127
1, 73312, Note_off_c, 5, 65, 127
1, 73314, Note_on_c, 1, 61, 127
1, 73314, Note_on_c, 5, 65, 127
1, 73344, Note_off_c, 1, 73, 127
1, 73467, Note_on_c, 1, 73, 127
1, 73497, Note_off_c, 5, 65, 127
1, 73619, Note_off_c, 1, 61, 127
1, 73621, Note_on_c, 11, 58, 127
1, 73621, Note_on_c, 5, 65, 127
1, 73651, Note_off_c, 1, 73, 127
1, 73774, Note_on_c, 1, 73, 127
1, 73804, Note_off_c, 5, 65, 127
1, 73926, Note_off_c, 11, 58, 127
1, 73928, Note_on_c, 7, 55, 127
1, 73928, Note_on_c, 3, 63, 127
1, 73958, Note_off_c, 1, 73, 127
1, 74081, Note_on_c, 1, 73, 127
1, 74111, Note_off_c, 3, 63, 127
1, 74233, Note_off_c, 7, 55, 127
1, 74235, Note_on_c, 3, 51, 127
1, 74235, Note_on_c, 11, 70, 127
1, 74265, Note_off_c, 1, 73, 127
1, 74387, Note_off_c, 3, 51, 127
1, 74389, Note_on_c, 5, 53, 127
1, 74389, Note_on_c, 1, 73, 127
1, 74419, Note_off_c, 11, 70, 127
1, 74541, Note_off_c, 5, 53, 127
1, 74543, Note_on_c, 7, 55, 127
1, 74543, Note_on_c, 3, 63, 127
1, 74573, Note_off_c, 1, 73, 127
1, 74696, Note_on_c, 1, 73, 127
1, 74726, Note_off_c, 3, 63, 127
1, 74848, Note_off_c, 7, 55, 127
1, 74850, Note_on_c, 11, 58, 127
1, 74850, Note_on_c, 11, 70, 127
1, 74880, Note_off_c, 1, 73, 127
1, 75003, Note_on_c, 1, 73, 127
1, 75033, Note_off_c, 11, 70, 127
1, 75155, Note_off_c, 11, 58, 127
1, 75157, Note_on_c, 7, 55, 127
1, 75157, Note_on_c, 3, 63, 127
1, 75187, Note_off_c, 1, 73, 127
1, 75310, Note_on_c, 1, 73, 127
1, 75340, Note_off_c, 3, 63, 127
1, 75462, Note_off_c, 7, 55, 127
1, 75464, Note_on_c, 3, 51, 127
1, 75464, Note_on_c, 3, 63, 127
1, 75494, Note_off_c, 1, 73, 127
1, 75617, Note_on_c, 1, 73, 127
1, 75647, Note_off_c, 3, 63, 127
1, 75769, Note_off_c, 1, 73, 127
1, 75769, Note_off_c, 3, 51, 127
1, 75771, Note_on_c, 8, 44, 127
1, 75771, Note_on_c, 3, 63, 127
1, 75925, Note_on_c, 0, 72, 127
1, 75955, Note_off_c, 3, 63, 127
1, 76077, Note_off_c, 8, 44, 127
1, 76079, Note_on_c, 8, 56, 127
1, 76079, Note_on_c, 8, 68, 127
1, 76109, Note_off_c, 0, 72, 127
1, 76231, Note_off_c, 8, 56, 127
1, 76233, Note_on_c, 11, 58, 127
1, 76233, Note_on_c, 0, 72, 127
1, 76263, Note_off_c, 8, 68, 127
1, 76385, Note_off_c, 11, 58, 127
1, 76387, Note_on_c, 0, 60, 127
1, 76387, Note_on_c, 3, 63, 127
1, 76417, Note_off_c, 0, 72, 127
1, 76540, Note_on_c, 0, 72, 127
1, 76570, Note_off_c, 3, 63, 127
1, 76692, Note_off_c, 0, 60, 127
1, 76694, Note_on_c, 3, 63, 127
1, 76694, Note_on_c, 8, 68, 127
1, 76724, Note_off_c, 0, 72, 127
1, 76847, Note_on_c, 0, 72, 127
1, 76877, Note_off_c, 8, 68, 127
1, 76999, Note_off_c, 3, 63, 127
1, 77001, Note_on_c, 0, 60, 127
1, 77001, Note_on_c, 3, 63, 127
1, 77031, Note_off_c, 0, 72, 127
1, 77154, Note_on_c, 0, 72, 127
1, 77184, Note_off_c, 3, 63, 127
1, 77306, Note_off_c, 0, 60, 127
1, 77308, Note_on_c, 8, 56, 127
1, 77308, Note_on_c, 3, 63, 127
1, 77338, Note_off_c, 0, 72, 127
1, 77461, Note_on_c, 0, 72, 127
1, 77491, Note_off_c, 3, 63, 127
1, 77613, Note_off_c, 8, 56, 127
1, 77615, Note_on_c, 6, 54, 127
1, 77615, Note_on_c, 2, 62, 127
1, 77645, Note_off_c, 0, 72, 127
1, 77768, Note_on_c, 0, 72, 127
1, 77798, Note_off_c, 2, 62, 127
1, 77920, Note_off_c, 6, 54, 127
1, 77922, Note_on_c, 2, 50, 127
1, 77922, Note_on_c, 10, 69, 127
1, 77952, Note_off_c, 0, 72, 127
1, 78074, Note_off_c, 2, 50, 127
1, 78076, Note_on_c, 4, 52, 127
1, 78076, Note_on_c, 0, 72, 127
1, 78106, Note_off_c, 10, 69, 127
1, 78228, Note_off_c, 4, 52, 127
1, 78230, Note_on_c, 6, 54, 127
1, 78230, Note_on_c, 2, 62, 127
1, 78260, Note_off_c, 0, 72, 127
1, 78383, Note_on_c, 0, 72, 127
1, 78413, Note_off_c, 2, 62, 127
1, 78535, Note_off_c, 6, 54, 127
1, 78537, Note_on_c, 10, 57, 127
1, 78537, Note_on_c, 10, 69, 127
1, 78567, Note_off_c, 0, 72, 127
1, 78690, Note_on_c, 0, 72, 127
1, 78720, Note_off_c, 10, 69, 127
1, 78842, Note_off_c, 10, 57, 127
1, 78844, Note_on_c, 6, 54, 127
1, 78844, Note_on_c, 2, 62, 127
1, 78874, Note_off_c, 0, 72, 127
1, 78997, Note_on_c, 0, 72, 127
1, 79027, Note_off_c, 2, 62, 127
1, 79149, Note_off_c, 6, 54, 127
1, 79151, Note_on_c, 2, 50, 127
1, 79151, Note_on_c, 2, 62, 127
1, 79181, Note_off_c, 0, 72, 127
1, 79304, Note_on_c, 0, 72, 127
1, 79334, Note_off_c, 2, 62, 127
1, 79456, Note_off_c, 2, 50, 127
1, 79458, Note_on_c, 7, 43, 127
1, 79458, Note_on_c, 3, 63, 127
1, 79488, Note_off_c, 0, 72, 127
1, 79611, Note_on_c, 0, 72, 127
1, 79641, Note_off_c, 3, 63, 127
1, 79763, Note_off_c, 7, 43, 127
1, 79765, Note_on_c, 3, 51, 127
1, 79765, Note_on_c, 7, 67, 127
1, 79795, Note_off_c, 0, 72, 127
1, 79917, Note_off_c, 3, 51, 127
1, 79919, Note_on_c, 5, 53, 127
1, 79919, Note_on_c, 0, 72, 127
1, 79949, Note_off_c, 7, 67, 127
1, 80071, Note_off_c, 5, 53, 127
1, 80073, Note_on_c, 7, 55, 127
1, 80073, Note_on_c, 3, 63, 127
1, 80103, Note_off_c, 0, 72, 127
1, 80226, Note_on_c, 0, 72, 127
1, 80256, Note_off_c, 3, 63, 127
1, 80378, Note_off_c, 7, 55, 127
1, 80380, Note_on_c, 0, 60, 127
1, 80380, Note_on_c, 7, 67, 127
1, 80410, Note_off_c, 0, 72, 127
1, 80533, Note_on_c, 0, 72, 127
1, 80563, Note_off_c, 7, 67, 127
1, 80685, Note_off_c, 0, 60, 127
1, 80687, Note_on_c, 7, 55, 127
1, 80687, Note_on_c, 3, 63, 127
1, 80717, Note_off_c, 0, 72, 127
1, 80840, Note_on_c, 0, 72, 127
1, 80870, Note_off_c, 3, 63, 127
1, 80992, Note_off_c, 7, 55, 127
1, 80994, Note_on_c, 3, 51, 127
1, 80994, Note_on_c, 3, 63, 127
1, 81024, Note_off_c, 0, 72, 127
1, 81147, Note_on_c, 0, 72, 127
1, 81177, Note_off_c, 3, 63, 127
1, 81299, Note_off_c, 0, 72, 127
1, 81299, Note_off_c, 3, 51, 127
1, 81301, Note_on_c, 7, 43, 127
1, 81301, Note_on_c, 2, 62, 127
1, 81455, Note_on_c, 11, 70, 127
1, 81485, Note_off_c, 2, 62, 127
1, 81607, Note_off_c, 7, 43, 127
1, 81609, Note_on_c, 7, 55, 127
1, 81609, Note_on_c, 7, 67, 127
1, 81639, Note_off_c, 11, 70, 127
1, 81761, Note_off_c, 7, 55, 127
1, 81763, Note_on_c, 10, 57, 127
1, 81763, Note_on_c, 11, 70, 127
1, 81793, Note_off_c, 7, 67, 127
1, 81915, Note_off_c, 10, 57, 127
1, 81917, Note_on_c, 11, 58, 127
1, 81917, Note_on_c, 2, 62, 127
1, 81947, Note_off_c, 11, 70, 127
1, 82070, Note_on_c, 11, 70, 127
1, 82100, Note_off_c, 2, 62, 127
1, 82222, Note_off_c, 11, 58, 127
1, 82224, Note_on_c, 2, 62, 127
1, 82224, Note_on_c, 7, 67, 127
1, 82254, Note_off_c, 11, 70, 127
1, 82377, Note_on_c, 11, 70, 127
1, 82407, Note_off_c, 7, 67, 127
1, 82529, Note_off_c, 2, 62, 127
1, 82531, Note_on_c, 11, 58, 127
1, 82531, Note_on_c, 2, 62, 127
1, 82561, Note_off_c, 11, 70, 127
1, 82684, Note_on_c, 11, 70, 127
1, 82714, Note_off_c, 2, 62, 127
1, 82836, Note_off_c, 11, 58, 127
1, 82838, Note_on_c, 7, 55, 127
1, 82838, Note_on_c, 2, 62, 127
1, 82868, Note_off_c, 11, 70, 127
1, 82991, Note_on_c, 11, 70, 127
1, 83021, Note_off_c, 2, 62, 127
1, 83143, Note_off_c, 11, 70, 127
1, 83143, Note_off_c, 7, 55, 127
1, 83145, Note_on_c, 1, 49, 127
1, 83145, Note_on_c, 7, 67, 127
1, 83299, Note_on_c, 4, 76, 127
1, 83329, Note_off_c, 7, 67, 127
1, 83451, Note_off_c, 1, 49, 127
1, 83453, Note_on_c, 1, 61, 127
1, 83453, Note_on_c, 11, 70, 127
1, 83483, Note_off_c, 4, 76, 127
1, 83605, Note_off_c, 1, 61, 127
1, 83607, Note_on_c, 2, 62, 127
1, 83607, Note_on_c, 4, 76, 127
1, 83637, Note_off_c, 11, 70, 127
1, 83759, Note_off_c, 2, 62, 127
1, 83761, Note_on_c, 4, 64, 127
1, 83761, Note_on_c, 7, 67, 127
1, 83791, Note_off_c, 4, 76, 127
1, 83914, Note_on_c, 4, 76, 127
1, 83944, Note_off_c, 7, 67, 127
1, 84066, Note_off_c, 4, 64, 127
1, 84068, Note_on_c, 7, 67, 127
1, 84068, Note_on_c, 11, 70, 127
1, 84098, Note_off_c, 4, 76, 127
1, 84221, Note_on_c, 4, 76, 127
1, 84251, Note_off_c, 11, 70, 127
1, 84373, Note_off_c, 7, 67, 127
1, 84375, Note_on_c, 4, 64, 127
1, 84375, Note_on_c, 7, 67, 127
1, 84405, Note_off_c, 4, 76, 127
1, 84528, Note_on_c, 4, 76, 127
1, 84558, Note_off_c, 7, 67, 127
1, 84680, Note_off_c, 4, 64, 127
1, 84682, Note_on_c, 1, 61, 127
1, 84682, Note_on_c, 7, 67, 127
1, 84712, Note_off_c, 4, 76, 127
1, 84835, Note_on_c, 4, 76, 127
1, 84865, Note_off_c, 7, 67, 127
1, 84987, Note_off_c, 1, 61, 127
1, 84989, Note_on_c, 10, 57, 127
1, 84989, Note_on_c, 7, 67, 127
1, 85019, Note_off_c, 4, 76, 127
1, 85142, Note_on_c, 4, 76, 127
1, 85172, Note_off_c, 7, 67, 127
1, 85294, Note_off_c, 10, 57, 127
1, 85296, Note_on_c, 1, 49, 127
1, 85296, Note_on_c, 10, 69, 127
1, 85326, Note_off_c, 4, 76, 127
1, 85448, Note_off_c, 1, 49, 127
1, 85450, Note_on_c, 2, 50, 127
1, 85450, Note_on_c, 4, 76, 127
1, 85480, Note_off_c, 10, 69, 127
1, 85602, Note_off_c, 2, 50, 127
1, 85604, Note_on_c, 4, 52, 127
1, 85604, Note_on_c, 7, 67, 127
1, 85634, Note_off_c, 4, 76, 127
1, 85757, Note_on_c, 4, 76, 127
1, 85787, Note_off_c, 7, 67, 127
1, 85909, Note_off_c, 4, 76, 127
1, 85909, Note_off_c, 4, 52, 127
1, 85911, Note_on_c, 7, 55, 127
1, 85911, Note_on_c, 10, 69, 127
1, 86065, Note_on_c, 4, 76, 127
1, 86095, Note_off_c, 10, 69, 127
1, 86217, Note_off_c, 7, 55, 127
1, 86219, Note_on_c, 4, 52, 127
1, 86219, Note_on_c, 7, 67, 127
1, 86249, Note_off_c, 4, 76, 127
1, 86372, Note_on_c, 4, 76, 127
1, 86402, Note_off_c, 7, 67, 127
1, 86524, Note_off_c, 4, 52, 127
1, 86526, Note_on_c, 1, 49, 127
1, 86526, Note_on_c, 7, 67, 127
1, 86556, Note_off_c, 4, 76, 127
1, 86679, Note_on_c, 4, 76, 127
1, 86709, Note_off_c, 7, 67, 127
1, 86831, Note_off_c, 4, 76, 127
1, 86831, Note_off_c, 1, 49, 127
1, 86833, Note_on_c, 2, 38, 127
1, 86833, Note_on_c, 5, 65, 127
1, 86987, Note_on_c, 5, 77, 127
1, 87017, Note_off_c, 5, 65, 127
1, 87139, Note_off_c, 2, 38, 127
1, 87141, Note_on_c, 2, 50, 127
1, 87141, Note_on_c, 2, 74, 127
1, 87171, Note_off_c, 5, 77, 127
1, 87293, Note_off_c, 2, 50, 127
1, 87295, Note_on_c, 4, 52, 127
1, 87295, Note_on_c, 5, 77, 127
1, 87325, Note_off_c, 2, 74, 127
1, 87447, Note_off_c, 4, 52, 127
1, 87449, Note_on_c, 5, 53, 127
1, 87449, Note_on_c, 10, 69, 127
1, 87479, Note_off_c, 5, 77, 127
1, 87602, Note_on_c, 5, 77, 127
1, 87632, Note_off_c, 10, 69, 127
1, 87754, Note_off_c, 5, 53, 127
1, 87756, Note_on_c, 10, 57, 127
1, 87756, Note_on_c, 2, 74, 127
1, 87786, Note_off_c, 5, 77, 127
1, 87909, Note_on_c, 5, 77, 127
1, 87939, Note_off_c, 2, 74, 127
1, 88061, Note_off_c, 10, 57, 127
1, 88063, Note_on_c, 5, 53, 127
1, 88063, Note_on_c, 2, 74, 127
1, 88093, Note_off_c, 5, 77, 127
1, 88216, Note_on_c, 5, 77, 127
1, 88246, Note_off_c, 2, 74, 127
1, 88368, Note_off_c, 5, 53, 127
1, 88370, Note_on_c, 2, 50, 127
1, 88370, Note_on_c, 4, 76, 127
1, 88400, Note_off_c, 5, 77, 127
1, 88523, Note_on_c, 5, 77, 127
1, 88553, Note_off_c, 4, 76, 127
1, 88675, Note_off_c, 5, 77, 127
1, 88675, Note_off_c, 2, 50, 127
1, 88677, Note_on_c, 3, 51, 127
1, 88677, Note_on_c, 2, 74, 127
1, 88831, Note_on_c, 7, 79, 127
1, 88861, Note_off_c, 2, 74, 127
1, 88983, Note_off_c, 3, 51, 127
1, 88985, Note_on_c, 3, 63, 127
1, 88985, Note_on_c, 3, 75, 127
1, 89015, Note_off_c, 7, 79, 127
1, 89137, Note_off_c, 3, 63, 127
1, 89139, Note_on_c, 5, 65, 127
1, 89139, Note_on_c, 7, 79, 127
1, 89169, Note_off_c, 3, 75, 127
1, 89291, Note_off_c, 5, 65, 127
1, 89293, Note_on_c, 7, 67, 127
1, 89293, Note_on_c, 2, 74, 127
1, 89323, Note_off_c, 7, 79, 127
1, 89446, Note_on_c, 7, 79, 127
1, 89476, Note_off_c, 2, 74, 127
1, 89598, Note_off_c, 7, 67, 127
1, 89600, Note_on_c, 11, 70, 127
1, 89600, Note_on_c, 3, 75, 127
1, 89630, Note_off_c, 7, 79, 127
1, 89753, Note_on_c, 7, 79, 127
1, 89783, Note_off_c, 3, 75, 127
1, 89905, Note_off_c, 11, 70, 127
1, 89907, Note_on_c, 7, 67, 127
1, 89907, Note_on_c, 2, 74, 127
1, 89937, Note_off_c, 7, 79, 127
1, 90060, Note_on_c, 7, 79, 127
1, 90090, Note_off_c, 2, 74, 127
1, 90212, Note_off_c, 7, 67, 127
1, 90214, Note_on_c, 3, 63, 127
1, 90214, Note_on_c, 2, 74, 127
1, 90244, Note_off_c, 7, 79, 127
1, 90367, Note_on_c, 7, 79, 127
1, 90397, Note_off_c, 2, 74, 127
1, 90519, Note_off_c, 3, 63, 127
1, 90521, Note_on_c, 10, 57, 127
1, 90521, Note_on_c, 0, 72, 127
1, 90551, Note_off_c, 7, 79, 127
1, 90674, Note_on_c, 7, 79, 127
1, 90704, Note_off_c, 0, 72, 127
1, 90826, Note_off_c, 10, 57, 127
1, 90828, Note_on_c, 10, 45, 127
1, 90828, Note_on_c, 3, 75, 127
1, 90858, Note_off_c, 7, 79, 127
1, 90980, Note_off_c, 10, 45, 127
1, 90982, Note_on_c, 11, 46, 127
1, 90982, Note_on_c, 7, 79, 127
1, 91012, Note_off_c, 3, 75, 127
1, 91134, Note_off_c, 11, 46, 127
1, 91136, Note_on_c, 0, 48, 127
1, 91136, Note_on_c, 0, 72, 127
1, 91166, Note_off_c, 7, 79, 127
1, 91289, Note_on_c, 7, 79, 127
1, 91319, Note_off_c, 0, 72, 127
1, 91441, Note_off_c, 0, 48, 127
1, 91443, Note_on_c, 3, 51, 127
1, 91443, Note_on_c, 3, 75, 127
1, 91473, Note_off_c, 7, 79, 127
1, 91596, Note_on_c, 7, 79, 127
1, 91626, Note_off_c, 3, 75, 127
1, 91748, Note_off_c, 3, 51, 127
1, 91750, Note_on_c, 0, 48, 127
1, 91750, Note_on_c, 0, 72, 127
1, 91780, Note_off_c, 7, 79, 127
1, 91903, Note_on_c, 7, 79, 127
1, 91933, Note_off_c, 0, 72, 127
1, 92055, Note_off_c, 0, 48, 127
1, 92057, Note_on_c, 10, 45, 127
1, 92057, Note_on_c, 0, 72, 127
1, 92087, Note_off_c, 7, 79, 127
1, 92210, Note_on_c, 7, 79, 127
1, 92240, Note_off_c, 0, 72, 127
1, 92362, Note_off_c, 7, 79, 127
1, 92362, Note_off_c, 10, 45, 127
1, 92364, Note_on_c, 2, 50, 127
1, 92364, Note_on_c, 0, 72, 127
1, 92518, Note_on_c, 6, 78, 127
1, 92548, Note_off_c, 0, 72, 127
1, 92670, Note_off_c, 2, 50, 127
1, 92672, Note_on_c, 2, 62, 127
1, 92672, Note_on_c, 2, 74, 127
1, 92702, Note_off_c, 6, 78, 127
1, 92824, Note_off_c, 2, 62, 127
1, 92826, Note_on_c, 4, 64, 127
1, 92826, Note_on_c, 6, 78, 127
1, 92856, Note_off_c, 2, 74, 127
1, 92978, Note_off_c, 4, 64, 127
1, 92980, Note_on_c, 6, 66, 127
1, 92980, Note_on_c, 0, 72, 127
1, 93010, Note_off_c, 6, 78, 127
1, 93133, Note_on_c, 6, 78, 127
1, 93163, Note_off_c, 0, 72, 127
1, 93285, Note_off_c, 6, 66, 127
1, 93287, Note_on_c, 10, 69, 127
1, 93287, Note_on_c, 2, 74, 127
1, 93317, Note_off_c, 6, 78, 127
1, 93440, Note_on_c, 6, 78, 127
1, 93470, Note_off_c, 2, 74, 127
1, 93592, Note_off_c, 10, 69, 127
1, 93594, Note_on_c, 6, 66, 127
1, 93594, Note_on_c, 0, 72, 127
1, 93624, Note_off_c, 6, 78, 127
1, 93747, Note_on_c, 6, 78, 127
1, 93777, Note_off_c, 0, 72, 127
1, 93899, Note_off_c, 6, 66, 127
1, 93901, Note_on_c, 2, 62, 127
1, 93901, Note_on_c, 0, 72, 127
1, 93931, Note_off_c, 6, 78, 127
1, 94054, Note_on_c, 6, 78, 127
1, 94084, Note_off_c, 0, 72, 127
1, 94206, Note_off_c, 6, 78, 127
1, 94206, Note_off_c, 2, 62, 127
1, 94208, Note_on_c, 7, 55, 127
1, 94208, Note_on_c, 11, 70, 127
1, 94362, Note_on_c, 7, 79, 127
1, 94392, Note_off_c, 11, 70, 127
1, 94514, Note_off_c, 7, 55, 127
1, 94516, Note_on_c, 7, 43, 127
1, 94516, Note_on_c, 2, 74, 127
1, 94546, Note_off_c, 7, 79, 127
1, 94668, Note_off_c, 7, 43, 127
1, 94670, Note_on_c, 10, 45, 127
1, 94670, Note_on_c, 7, 79, 127
1, 94700, Note_off_c, 2, 74, 127
1, 94822, Note_off_c, 10, 45, 127
1, 94824, Note_on_c, 11, 46, 127
1, 94824, Note_on_c, 11, 70, 127
1, 94854, Note_off_c, 7, 79, 127
1, 94977, Note_on_c, 7, 79, 127
1, 95007, Note_off_c, 11, 70, 127
1, 95129, Note_off_c, 11, 46, 127
1, 95131, Note_on_c, 2, 50, 127
1, 95131, Note_on_c, 2, 74, 127
1, 95161, Note_off_c, 7, 79, 127
1, 95284, Note_on_c, 7, 79, 127
1, 95314, Note_off_c, 2, 74, 127
1, 95436, Note_off_c, 2, 50, 127
1, 95438, Note_on_c, 11, 46, 127
1, 95438, Note_on_c, 11, 70, 127
1, 95468, Note_off_c, 7, 79, 127
1, 95591, Note_on_c, 7, 79, 127
1, 95621, Note_off_c, 11, 70, 127
1, 95743, Note_off_c, 11, 46, 127
1, 95745, Note_on_c, 7, 43, 127
1, 95745, Note_on_c, 11, 70, 127
1, 95775, Note_off_c, 7, 79, 127
1, 95898, Note_on_c, 7, 79, 127
1, 95928, Note_off_c, 11, 70, 127
1, 96050, Note_off_c, 7, 43, 127
1, 96052, Note_on_c, 0, 48, 127
1, 96052, Note_on_c, 10, 69, 127
1, 96082, Note_off_c, 7, 79, 127
1, 96205, Note_on_c, 7, 79, 127
1, 96235, Note_off_c, 10, 69, 127
1, 96357, Note_off_c, 0, 48, 127
1, 96359, Note_on_c, 10, 57, 127
1, 96359, Note_on_c, 0, 72, 127
1, 96389, Note_off_c, 7, 79, 127
1, 96511, Note_off_c, 10, 57, 127
1, 96513, Note_on_c, 11, 58, 127
1, 96513, Note_on_c, 7, 79, 127
1, 96543, Note_off_c, 0, 72, 127
1, 96665, Note_off_c, 11, 58, 127
1, 96667, Note_on_c, 0, 60, 127
1, 96667, Note_on_c, 10, 69, 127
1, 96697, Note_off_c, 7, 79, 127
1, 96820, Note_on_c, 7, 79, 127
1, 96850, Note_off_c, 10, 69, 127
1, 96972, Note_off_c, 0, 60, 127
1, 96974, Note_on_c, 3, 63, 127
1, 96974, Note_on_c, 0, 72, 127
1, 97004, Note_off_c, 7, 79, 127
1, 97127, Note_on_c, 7, 79, 127
1, 97157, Note_off_c, 0, 72, 127
1, 97279, Note_off_c, 3, 63, 127
1, 97281, Note_on_c, 0, 60, 127
1, 97281, Note_on_c, 10, 69, 127
1, 97311, Note_off_c, 7, 79, 127
1, 97434, Note_on_c, 7, 79, 127
1, 97464, Note_off_c, 10, 69, 127
1, 97586, Note_off_c, 0, 60, 127
1, 97588, Note_on_c, 10, 57, 127
1, 97588, Note_on_c, 10, 69, 127
1, 97618, Note_off_c, 7, 79, 127
1, 97741, Note_on_c, 7, 79, 127
1, 97771, Note_off_c, 10, 69, 127
1, 97893, Note_off_c, 7, 79, 127
1, 97893, Note_off_c, 10, 57, 127
1, 97895, Note_on_c, 2, 50, 127
1, 97895, Note_on_c, 10, 69, 127
1, 98049, Note_on_c, 6, 78, 127
1, 98079, Note_off_c, 10, 69, 127
1, 98201, Note_off_c, 2, 50, 127
1, 98203, Note_on_c, 2, 38, 127
1, 98203, Note_on_c, 0, 72, 127
1, 98233, Note_off_c, 6, 78, 127
1, 98355, Note_off_c, 2, 38, 127
1, 98357, Note_on_c, 4, 40, 127
1, 98357, Note_on_c, 6, 78, 127
1, 98387, Note_off_c, 0, 72, 127
1, 98509, Note_off_c, 4, 40, 127
1, 98511, Note_on_c, 6, 42, 127
1, 98511, Note_on_c, 10, 69, 127
1, 98541, Note_off_c, 6, 78, 127
1, 98664, Note_on_c, 6, 78, 127
1, 98694, Note_off_c, 10, 69, 127
1, 98816, Note_off_c, 6, 42, 127
1, 98818, Note_on_c, 10, 45, 127
1, 98818, Note_on_c, 0, 72, 127
1, 98848, Note_off_c, 6, 78, 127
1, 98971, Note_on_c, 6, 78, 127
1, 99001, Note_off_c, 0, 72, 127
1, 99123, Note_off_c, 10, 45, 127
1, 99125, Note_on_c, 6, 42, 127
1, 99125, Note_on_c, 10, 69, 127
1, 99155, Note_off_c, 6, 78, 127
1, 99278, Note_on_c, 6, 78, 127
1, 99308, Note_off_c, 10, 69, 127
1, 99430, Note_off_c, 6, 42, 127
1, 99432, Note_on_c, 2, 38, 127
1, 99432, Note_on_c, 10, 69, 127
1, 99462, Note_off_c, 6, 78, 127
1, 99585, Note_on_c, 6, 78, 127
1, 99615, Note_off_c, 10, 69, 127
1, 99713, Note_off_c, 6, 78, 127
1, 99737, Note_off_c, 2, 38, 127
1, 99739, Note_on_c, 7, 43, 127
1, 99739, Note_on_c, 7, 55, 127
1, 100045, Note_off_c, 7, 55, 127
1, 100047, Note_on_c, 7, 67, 127
1, 100199, Note_off_c, 7, 67, 127
1, 100201, Note_on_c, 10, 69, 127
1, 100348, Note_off_c, 7, 43, 127
1, 100353, Note_off_c, 10, 69, 127
1, 100355, Note_on_c, 11, 70, 127
1, 100661, Note_off_c, 11, 70, 127
1, 100663, Note_on_c, 7, 43, 127
1, 100663, Note_on_c, 2, 74, 127
1, 100663, Note_on_c, 11, 70, 127
1, 100663, Note_on_c, 7, 67, 127
1, 100815, Note_off_c, 7, 43, 127
1, 100817, Note_on_c, 10, 45, 127
1, 100969, Note_off_c, 10, 45, 127
1, 100969, Note_off_c, 7, 67, 127
1, 100969, Note_off_c, 11, 70, 127
1, 100969, Note_off_c, 2, 74, 127
1, 100971, Note_on_c, 11, 46, 127
1, 100971, Note_on_c, 2, 62, 127
1, 100971, Note_on_c, 11, 70, 127
1, 100971, Note_on_c, 7, 67, 127
1, 101277, Note_off_c, 7, 67, 127
1, 101277, Note_off_c, 11, 70, 127
1, 101277, Note_off_c, 2, 62, 127
1, 101277, Note_off_c, 11, 46, 127
1, 101279, Note_on_c, 2, 50, 127
1, 101279, Note_on_c, 11, 58, 127
1, 101279, Note_on_c, 7, 67, 127
1, 101279, Note_on_c, 2, 62, 127
1, 101585, Note_off_c, 2, 50, 127
1, 101587, Note_on_c, 7, 55, 127
1, 101664, Note_off_c, 11, 58, 127
1, 101728, Note_off_c, 2, 62, 127
1, 101728, Note_off_c, 7, 67, 127
1, 101894, Note_on_c, 7, 67, 127
1, 102046, Note_off_c, 7, 67, 127
1, 102048, Note_on_c, 10, 69, 127
1, 102200, Note_off_c, 10, 69, 127
1, 102200, Note_off_c, 7, 55, 127
1, 102202, Note_on_c, 7, 43, 127
1, 102202, Note_on_c, 11, 70, 127
1, 102508, Note_off_c, 11, 70, 127
1, 102510, Note_on_c, 2, 74, 127
1, 102811, Note_off_c, 7, 43, 127
1, 102816, Note_off_c, 2, 74, 127
1, 102818, Note_on_c, 11, 70, 127
1, 103124, Note_off_c, 11, 70, 127
1, 103126, Note_on_c, 7, 67, 127
1, 103432, Note_off_c, 7, 67, 127
1, 103434, Note_on_c, 10, 57, 127
1, 103741, Note_on_c, 10, 69, 127
1, 103893, Note_off_c, 10, 69, 127
1, 103895, Note_on_c, 11, 70, 127
1, 104047, Note_off_c, 11, 70, 127
1, 104049, Note_on_c, 0, 72, 127
1, 104355, Note_off_c, 0, 72, 127
1, 104355, Note_off_c, 10, 57, 127
1, 104357, Note_on_c, 10, 45, 127
1, 104357, Note_on_c, 5, 77, 127
1, 104357, Note_on_c, 10, 69, 127
1, 104357, Note_on_c, 0, 72, 127
1, 104509, Note_off_c, 10, 45, 127
1, 104511, Note_on_c, 11, 46, 127
1, 104663, Note_off_c, 11, 46, 127
1, 104663, Note_off_c, 0, 72, 127
1, 104663, Note_off_c, 10, 69, 127
1, 104663, Note_off_c, 5, 77, 127
1, 104665, Note_on_c, 0, 48, 127
1, 104665, Note_on_c, 0, 72, 127
1, 104665, Note_on_c, 10, 69, 127
1, 104665, Note_on_c, 5, 65, 127
1, 104971, Note_off_c, 5, 65, 127
1, 104971, Note_off_c, 10, 69, 127
1, 104971, Note_off_c, 0, 72, 127
1, 104971, Note_off_c, 0, 48, 127
1, 104973, Note_on_c, 5, 53, 127
1, 104973, Note_on_c, 5, 65, 127
1, 104973, Note_on_c, 0, 60, 127
1, 104973, Note_on_c, 10, 69, 127
1, 105279, Note_off_c, 5, 53, 127
1, 105281, Note_on_c, 10, 57, 127
1, 105358, Note_off_c, 0, 60, 127
1, 105422, Note_off_c, 10, 69, 127
1, 105422, Note_off_c, 5, 65, 127
1, 105588, Note_on_c, 10, 69, 127
1, 105740, Note_off_c, 10, 69, 127
1, 105742, Note_on_c, 11, 70, 127
1, 105894, Note_off_c, 11, 70, 127
1, 105894, Note_off_c, 10, 57, 127
1, 105896, Note_on_c, 10, 45, 127
1, 105896, Note_on_c, 0, 72, 127
1, 106202, Note_off_c, 0, 72, 127
1, 106204, Note_on_c, 5, 77, 127
1, 106505, Note_off_c, 10, 45, 127
1, 106510, Note_off_c, 5, 77, 127
1, 106512, Note_on_c, 0, 72, 127
1, 106818, Note_off_c, 0, 72, 127
1, 106820, Note_on_c, 10, 69, 127
1, 107126, Note_off_c, 10, 69, 127
1, 107128, Note_on_c, 11, 58, 127
1, 107435, Note_on_c, 2, 74, 127
1, 107587, Note_off_c, 2, 74, 127
1, 107589, Note_on_c, 3, 75, 127
1, 107741, Note_off_c, 3, 75, 127
1, 107743, Note_on_c, 5, 77, 127
1, 108041, Note_off_c, 11, 58, 127
1, 108049, Note_off_c, 5, 77, 127
1, 108051, Note_on_c, 11, 46, 127
1, 108051, Note_on_c, 5, 77, 127
1, 108051, Note_on_c, 2, 74, 127
1, 108051, Note_on_c, 11, 82, 127
1, 108203, Note_off_c, 11, 46, 127
1, 108205, Note_on_c, 0, 48, 127
1, 108357, Note_off_c, 0, 48, 127
1, 108357, Note_off_c, 11, 82, 127
1, 108357, Note_off_c, 2, 74, 127
1, 108357, Note_off_c, 5, 77, 127
1, 108359, Note_on_c, 2, 50, 127
1, 108359, Note_on_c, 5, 77, 127
1, 108359, Note_on_c, 11, 70, 127
1, 108359, Note_on_c, 2, 74, 127
1, 108665, Note_off_c, 2, 74, 127
1, 108665, Note_off_c, 11, 70, 127
1, 108665, Note_off_c, 5, 77, 127
1, 108665, Note_off_c, 2, 50, 127
1, 108667, Note_on_c, 5, 53, 127
1, 108667, Note_on_c, 11, 70, 127
1, 108667, Note_on_c, 5, 65, 127
1, 108667, Note_on_c, 2, 74, 127
1, 108973, Note_off_c, 5, 53, 127
1, 108975, Note_on_c, 11, 58, 127
1, 109052, Note_off_c, 5, 65, 127
1, 109116, Note_off_c, 2, 74, 127
1, 109116, Note_off_c, 11, 70, 127
1, 109282, Note_on_c, 2, 74, 127
1, 109434, Note_off_c, 2, 74, 127
1, 109436, Note_on_c, 3, 75, 127
1, 109588, Note_off_c, 3, 75, 127
1, 109588, Note_off_c, 11, 58, 127
1, 109590, Note_on_c, 11, 46, 127
1, 109590, Note_on_c, 5, 77, 127
1, 109896, Note_off_c, 5, 77, 127
1, 109898, Note_on_c, 11, 82, 127
1, 110199, Note_off_c, 11, 46, 127
1, 110204, Note_off_c, 11, 82, 127
1, 110206, Note_on_c, 5, 77, 127
1, 110360, Note_on_c, 2, 50, 127
1, 110512, Note_off_c, 2, 50, 127
1, 110512, Note_off_c, 5, 77, 127
1, 110514, Note_on_c, 3, 51, 127
1, 110514, Note_on_c, 2, 74, 127
1, 110666, Note_off_c, 3, 51, 127
1, 110668, Note_on_c, 5, 53, 127
1, 110820, Note_off_c, 5, 53, 127
1, 110820, Note_off_c, 2, 74, 127
1, 110822, Note_on_c, 7, 55, 127
1, 110822, Note_on_c, 3, 75, 127
1, 110974, Note_off_c, 3, 75, 127
1, 110976, Note_on_c, 5, 77, 127
1, 111128, Note_off_c, 5, 77, 127
1, 111128, Note_off_c, 7, 55, 127
1, 111130, Note_on_c, 3, 51, 127
1, 111130, Note_on_c, 7, 79, 127
1, 111282, Note_off_c, 7, 79, 127
1, 111282, Note_off_c, 3, 51, 127
1, 111284, Note_on_c, 5, 53, 127
1, 111284, Note_on_c, 5, 77, 127
1, 111436, Note_off_c, 5, 77, 127
1, 111436, Note_off_c, 5, 53, 127
1, 111438, Note_on_c, 7, 55, 127
1, 111438, Note_on_c, 3, 75, 127
1, 111590, Note_off_c, 3, 75, 127
1, 111592, Note_on_c, 2, 74, 127
1, 111744, Note_off_c, 2, 74, 127
1, 111744, Note_off_c, 7, 55, 127
1, 111746, Note_on_c, 11, 58, 127
1, 111746, Note_on_c, 0, 72, 127
1, 111898, Note_off_c, 0, 72, 127
1, 111900, Note_on_c, 11, 70, 127
1, 112052, Note_off_c, 11, 70, 127
1, 112052, Note_off_c, 11, 58, 127
1, 112054, Note_on_c, 7, 55, 127
1, 112054, Note_on_c, 3, 75, 127
1, 112206, Note_off_c, 3, 75, 127
1, 112208, Note_on_c, 2, 74, 127
1, 112360, Note_off_c, 2, 74, 127
1, 112360, Note_off_c, 7, 55, 127
1, 112362, Note_on_c, 3, 51, 127
1, 112362, Note_on_c, 0, 72, 127
1, 112514, Note_off_c, 0, 72, 127
1, 112516, Note_on_c, 11, 70, 127
1, 112666, Note_off_c, 3, 51, 127
1, 112668, Note_off_c, 11, 70, 127
1, 112670, Note_on_c, 0, 72, 127
1, 112822, Note_off_c, 0, 72, 127
1, 112824, Note_on_c, 2, 74, 127
1, 112976, Note_off_c, 2, 74, 127
1, 112978, Note_on_c, 0, 48, 127
1, 112978, Note_on_c, 3, 75, 127
1, 113130, Note_off_c, 3, 75, 127
1, 113130, Note_off_c, 0, 48, 127
1, 113132, Note_on_c, 2, 50, 127
1, 113132, Note_on_c, 2, 74, 127
1, 113284, Note_off_c, 2, 74, 127
1, 113284, Note_off_c, 2, 50, 127
1, 113286, Note_on_c, 3, 51, 127
1, 113286, Note_on_c, 0, 72, 127
1, 113438, Note_off_c, 0, 72, 127
1, 113440, Note_on_c, 11, 70, 127
1, 113592, Note_off_c, 11, 70, 127
1, 113592, Note_off_c, 3, 51, 127
1, 113594, Note_on_c, 7, 55, 127
1, 113594, Note_on_c, 10, 69, 127
1, 113746, Note_off_c, 10, 69, 127
1, 113748, Note_on_c, 7, 67, 127
1, 113900, Note_off_c, 7, 67, 127
1, 113900, Note_off_c, 7, 55, 127
1, 113902, Note_on_c, 3, 51, 127
1, 113902, Note_on_c, 0, 72, 127
1, 114054, Note_off_c, 0, 72, 127
1, 114056, Note_on_c, 11, 70, 127
1, 114208, Note_off_c, 11, 70, 127
1, 114208, Note_off_c, 3, 51, 127
1, 114210, Note_on_c, 0, 48, 127
1, 114210, Note_on_c, 10, 69, 127
1, 114362, Note_off_c, 10, 69, 127
1, 114364, Note_on_c, 7, 67, 127
1, 114514, Note_off_c, 0, 48, 127
1, 114516, Note_off_c, 7, 67, 127
1, 114518, Note_on_c, 10, 69, 127
1, 114670, Note_off_c, 10, 69, 127
1, 114672, Note_on_c, 11, 70, 127
1, 114824, Note_off_c, 11, 70, 127
1, 114826, Note_on_c, 5, 53, 127
1, 114826, Note_on_c, 0, 72, 127
1, 114978, Note_off_c, 0, 72, 127
1, 114978, Note_off_c, 5, 53, 127
1, 114980, Note_on_c, 7, 55, 127
1, 114980, Note_on_c, 11, 70, 127
1, 115132, Note_off_c, 11, 70, 127
1, 115132, Note_off_c, 7, 55, 127
1, 115134, Note_on_c, 10, 57, 127
1, 115134, Note_on_c, 10, 69, 127
1, 115286, Note_off_c, 10, 69, 127
1, 115288, Note_on_c, 7, 67, 127
1, 115440, Note_off_c, 7, 67, 127
1, 115440, Note_off_c, 10, 57, 127
1, 115442, Note_on_c, 0, 60, 127
1, 115442, Note_on_c, 5, 65, 127
1, 115594, Note_off_c, 5, 65, 127
1, 115596, Note_on_c, 3, 63, 127
1, 115748, Note_off_c, 3, 63, 127
1, 115748, Note_off_c, 0, 60, 127
1, 115750, Note_on_c, 5, 53, 127
1, 115750, Note_on_c, 10, 69, 127
1, 115902, Note_off_c, 10, 69, 127
1, 115904, Note_on_c, 7, 67, 127
1, 116056, Note_off_c, 7, 67, 127
1, 116056, Note_off_c, 5, 53, 127
1, 116058, Note_on_c, 10, 57, 127
1, 116058, Note_on_c, 5, 65, 127
1, 116210, Note_off_c, 5, 65, 127
1, 116212, Note_on_c, 3, 63, 127
1, 116364, Note_off_c, 3, 63, 127
1, 116364, Note_off_c, 10, 57, 127
1, 116366, Note_on_c, 11, 58, 127
1, 116366, Note_on_c, 2, 62, 127
1, 116518, Note_off_c, 2, 62, 127
1, 116520, Note_on_c, 5, 65, 127
1, 116672, Note_off_c, 5, 65, 127
1, 116674, Note_on_c, 11, 46, 127
1, 116674, Note_on_c, 11, 70, 127
1, 116826, Note_off_c, 11, 70, 127
1, 116828, Note_on_c, 11, 70, 127
1, 116828, Note_on_c, 2, 62, 127
1, 116828, Note_on_c, 5, 65, 127
1, 116975, Note_off_c, 11, 58, 127
1, 116980, Note_off_c, 5, 65, 127
1, 116980, Note_off_c, 2, 62, 127
1, 116980, Note_off_c, 11, 70, 127
1, 116982, Note_on_c, 2, 62, 127
1, 116982, Note_on_c, 11, 70, 127
1, 116982, Note_on_c, 5, 65, 127
1, 117123, Note_off_c, 11, 46, 127
1, 117134, Note_off_c, 5, 65, 127
1, 117134, Note_off_c, 11, 70, 127
1, 117134, Note_off_c, 2, 62, 127
1, 117136, Note_on_c, 5, 65, 127
1, 117136, Note_on_c, 2, 62, 127
1, 117136, Note_on_c, 11, 70, 127
1, 117288, Note_off_c, 11, 70, 127
1, 117288, Note_off_c, 2, 62, 127
1, 117288, Note_off_c, 5, 65, 127
1, 117290, Note_on_c, 11, 58, 127
1, 117290, Note_on_c, 11, 70, 127
1, 117290, Note_on_c, 5, 65, 127
1, 117290, Note_on_c, 2, 62, 127
1, 117442, Note_off_c, 2, 62, 127
1, 117442, Note_off_c, 5, 65, 127
1, 117442, Note_off_c, 11, 70, 127
1, 117444, Note_on_c, 11, 70, 127
1, 117444, Note_on_c, 5, 65, 127
1, 117444, Note_on_c, 2, 62, 127
1, 117596, Note_off_c, 2, 62, 127
1, 117596, Note_off_c, 5, 65, 127
1, 117596, Note_off_c, 11, 58, 127
1, 117598, Note_on_c, 5, 53, 127
1, 117598, Note_on_c, 2, 62, 127
1, 117748, Note_off_c, 11, 70, 127
1, 117750, Note_off_c, 2, 62, 127
1, 117752, Note_on_c, 11, 70, 127
1, 117904, Note_off_c, 5, 53, 127
1, 117906, Note_on_c, 11, 58, 127
1, 117906, Note_on_c, 2, 62, 127
1, 118056, Note_off_c, 11, 70, 127
1, 118058, Note_off_c, 2, 62, 127
1, 118060, Note_on_c, 11, 70, 127
1, 118212, Note_off_c, 11, 58, 127
1, 118214, Note_on_c, 7, 55, 127
1, 118214, Note_on_c, 3, 63, 127
1, 118366, Note_off_c, 3, 63, 127
1, 118368, Note_on_c, 7, 67, 127
1, 118509, Note_off_c, 11, 70, 127
1, 118520, Note_off_c, 7, 67, 127
1, 118520, Note_off_c, 7, 55, 127
1, 118522, Note_on_c, 3, 51, 127
1, 118522, Note_on_c, 11, 70, 127
1, 118674, Note_off_c, 11, 70, 127
1, 118676, Note_on_c, 11, 70, 127
1, 118676, Note_on_c, 3, 63, 127
1, 118676, Note_on_c, 7, 67, 127
1, 118828, Note_off_c, 7, 67, 127
1, 118828, Note_off_c, 3, 63, 127
1, 118828, Note_off_c, 11, 70, 127
1, 118830, Note_on_c, 11, 70, 127
1, 118830, Note_on_c, 3, 63, 127
1, 118830, Note_on_c, 7, 67, 127
1, 118971, Note_off_c, 3, 51, 127
1, 118982, Note_off_c, 7, 67, 127
1, 118982, Note_off_c, 3, 63, 127
1, 118982, Note_off_c, 11, 70, 127
1, 118984, Note_on_c, 11, 70, 127
1, 118984, Note_on_c, 7, 67, 127
1, 118984, Note_on_c, 3, 63, 127
1, 119136, Note_off_c, 3, 63, 127
1, 119136, Note_off_c, 7, 67, 127
1, 119136, Note_off_c, 11, 70, 127
1, 119138, Note_on_c, 7, 55, 127
1, 119138, Note_on_c, 11, 70, 127
1, 119138, Note_on_c, 3, 63, 127
1, 119138, Note_on_c, 7, 67, 127
1, 119290, Note_off_c, 7, 67, 127
1, 119290, Note_off_c, 3, 63, 127
1, 119290, Note_off_c, 11, 70, 127
1, 119292, Note_on_c, 11, 70, 127
1, 119292, Note_on_c, 3, 63, 127
1, 119292, Note_on_c, 7, 67, 127
1, 119444, Note_off_c, 7, 67, 127
1, 119444, Note_off_c, 3, 63, 127
1, 119444, Note_off_c, 7, 55, 127
1, 119446, Note_on_c, 3, 51, 127
1, 119446, Note_on_c, 7, 67, 127
1, 119596, Note_off_c, 11, 70, 127
1, 119598, Note_off_c, 7, 67, 127
1, 119600, Note_on_c, 11, 70, 127
1, 119752, Note_off_c, 3, 51, 127
1, 119754, Note_on_c, 7, 55, 127
1, 119754, Note_on_c, 7, 67, 127
1, 119904, Note_off_c, 11, 70, 127
1, 119906, Note_off_c, 7, 67, 127
1, 119908, Note_on_c, 11, 70, 127
1, 120060, Note_off_c, 7, 55, 127
1, 120062, Note_on_c, 11, 58, 127
1, 120062, Note_on_c, 2, 62, 127
1, 120214, Note_off_c, 2, 62, 127
1, 120216, Note_on_c, 5, 65, 127
1, 120357, Note_off_c, 11, 70, 127
1, 120368, Note_off_c, 5, 65, 127
1, 120368, Note_off_c, 11, 58, 127
1, 120370, Note_on_c, 11, 46, 127
1, 120370, Note_on_c, 11, 70, 127
1, 120522, Note_off_c, 11, 70, 127
1, 120524, Note_on_c, 5, 65, 127
1, 120524, Note_on_c, 2, 62, 127
1, 120524, Note_on_c, 11, 70, 127
1, 120676, Note_off_c, 11, 70, 127
1, 120676, Note_off_c, 2, 62, 127
1, 120676, Note_off_c, 5, 65, 127
1, 120678, Note_on_c, 11, 70, 127
1, 120678, Note_on_c, 5, 65, 127
1, 120678, Note_on_c, 2, 62, 127
1, 120819, Note_off_c, 11, 46, 127
1, 120830, Note_off_c, 2, 62, 127
1, 120830, Note_off_c, 5, 65, 127
1, 120830, Note_off_c, 11, 70, 127
1, 120832, Note_on_c, 11, 70, 127
1, 120832, Note_on_c, 2, 62, 127
1, 120832, Note_on_c, 5, 65, 127
1, 120984, Note_off_c, 5, 65, 127
1, 120984, Note_off_c, 2, 62, 127
1, 120984, Note_off_c, 11, 70, 127
1, 120986, Note_on_c, 2, 50, 127
1, 120986, Note_on_c, 5, 65, 127
1, 120986, Note_on_c, 11, 70, 127
1, 120986, Note_on_c, 2, 62, 127
1, 121138, Note_off_c, 2, 62, 127
1, 121138, Note_off_c, 11, 70, 127
1, 121138, Note_off_c, 5, 65, 127
1, 121140, Note_on_c, 11, 70, 127
1, 121140, Note_on_c, 5, 65, 127
1, 121140, Note_on_c, 2, 62, 127
1, 121292, Note_off_c, 2, 62, 127
1, 121292, Note_off_c, 5, 65, 127
1, 121292, Note_off_c, 2, 50, 127
1, 121294, Note_on_c, 11, 46, 127
1, 121294, Note_on_c, 2, 62, 127
1, 121444, Note_off_c, 11, 70, 127
1, 121446, Note_off_c, 2, 62, 127
1, 121448, Note_on_c, 11, 70, 127
1, 121600, Note_off_c, 11, 46, 127
1, 121602, Note_on_c, 2, 50, 127
1, 121602, Note_on_c, 2, 62, 127
1, 121752, Note_off_c, 11, 70, 127
1, 121754, Note_off_c, 2, 62, 127
1, 121756, Note_on_c, 11, 70, 127
1, 121908, Note_off_c, 2, 50, 127
1, 121910, Note_on_c, 3, 51, 127
1, 121910, Note_on_c, 0, 60, 127
1, 122062, Note_off_c, 0, 60, 127
1, 122064, Note_on_c, 3, 63, 127
1, 122205, Note_off_c, 11, 70, 127
1, 122216, Note_off_c, 3, 63, 127
1, 122216, Note_off_c, 3, 51, 127
1, 122218, Note_on_c, 3, 39, 127
1, 122218, Note_on_c, 11, 70, 127
1, 122370, Note_off_c, 11, 70, 127
1, 122372, Note_on_c, 11, 70, 127
1, 122372, Note_on_c, 3, 63, 127
1, 122372, Note_on_c, 0, 60, 127
1, 122524, Note_off_c, 0, 60, 127
1, 122524, Note_off_c, 3, 63, 127
1, 122524, Note_off_c, 11, 70, 127
1, 122526, Note_on_c, 11, 70, 127
1, 122526, Note_on_c, 0, 60, 127
1, 122526, Note_on_c, 3, 63, 127
1, 122667, Note_off_c, 3, 39, 127
1, 122678, Note_off_c, 3, 63, 127
1, 122678, Note_off_c, 0, 60, 127
1, 122678, Note_off_c, 11, 70, 127
1, 122680, Note_on_c, 11, 70, 127
1, 122680, Note_on_c, 3, 63, 127
1, 122680, Note_on_c, 0, 60, 127
1, 122832, Note_off_c, 0, 60, 127
1, 122832, Note_off_c, 3, 63, 127
1, 122832, Note_off_c, 11, 70, 127
1, 122834, Note_on_c, 3, 51, 127
1, 122834, Note_on_c, 11, 70, 127
1, 122834, Note_on_c, 3, 63, 127
1, 122834, Note_on_c, 0, 60, 127
1, 122986, Note_off_c, 0, 60, 127
1, 122986, Note_off_c, 3, 63, 127
1, 122986, Note_off_c, 11, 70, 127
1, 122988, Note_on_c, 3, 63, 127
1, 122988, Note_on_c, 0, 60, 127
1, 122988, Note_on_c, 11, 70, 127
1, 123140, Note_off_c, 0, 60, 127
1, 123140, Note_off_c, 3, 63, 127
1, 123140, Note_off_c, 3, 51, 127
1, 123142, Note_on_c, 0, 48, 127
1, 123142, Note_on_c, 3, 63, 127
1, 123292, Note_off_c, 11, 70, 127
1, 123294, Note_off_c, 3, 63, 127
1, 123296, Note_on_c, 11, 70, 127
1, 123448, Note_off_c, 0, 48, 127
1, 123450, Note_on_c, 3, 51, 127
1, 123450, Note_on_c, 3, 63, 127
1, 123600, Note_off_c, 11, 70, 127
1, 123602, Note_off_c, 3, 63, 127
1, 123604, Note_on_c, 11, 70, 127
1, 123756, Note_off_c, 11, 70, 127
1, 123756, Note_off_c, 3, 51, 127
1, 123758, Note_on_c, 5, 53, 127
1, 123758, Note_on_c, 0, 60, 127
1, 123912, Note_on_c, 3, 63, 127
1, 124064, Note_off_c, 3, 63, 127
1, 124064, Note_off_c, 5, 53, 127
1, 124066, Note_on_c, 5, 41, 127
1, 124066, Note_on_c, 10, 69, 127
1, 124207, Note_off_c, 0, 60, 127
1, 124218, Note_off_c, 10, 69, 127
1, 124220, Note_on_c, 3, 63, 127
1, 124220, Note_on_c, 0, 60, 127
1, 124220, Note_on_c, 10, 69, 127
1, 124372, Note_off_c, 10, 69, 127
1, 124372, Note_off_c, 0, 60, 127
1, 124372, Note_off_c, 3, 63, 127
1, 124374, Note_on_c, 0, 60, 127
1, 124374, Note_on_c, 10, 69, 127
1, 124374, Note_on_c, 3, 63, 127
1, 124515, Note_off_c, 5, 41, 127
1, 124526, Note_off_c, 3, 63, 127
1, 124526, Note_off_c, 10, 69, 127
1, 124526, Note_off_c, 0, 60, 127
1, 124528, Note_on_c, 3, 63, 127
1, 124528, Note_on_c, 0, 60, 127
1, 124528, Note_on_c, 10, 69, 127
1, 124680, Note_off_c, 10, 69, 127
1, 124680, Note_off_c, 0, 60, 127
1, 124680, Note_off_c, 3, 63, 127
1, 124682, Note_on_c, 5, 53, 127
1, 124682, Note_on_c, 10, 69, 127
1, 124682, Note_on_c, 3, 63, 127
1, 124682, Note_on_c, 0, 60, 127
1, 124834, Note_off_c, 0, 60, 127
1, 124834, Note_off_c, 3, 63, 127
1, 124834, Note_off_c, 10, 69, 127
1, 124836, Note_on_c, 10, 69, 127
1, 124836, Note_on_c, 3, 63, 127
1, 124836, Note_on_c, 0, 60, 127
1, 124988, Note_off_c, 0, 60, 127
1, 124988, Note_off_c, 3, 63, 127
1, 124988, Note_off_c, 5, 53, 127
1, 124990, Note_on_c, 5, 41, 127
1, 124990, Note_on_c, 3, 63, 127
1, 125140, Note_off_c, 10, 69, 127
1, 125142, Note_off_c, 3, 63, 127
1, 125144, Note_on_c, 10, 69, 127
1, 125296, Note_off_c, 5, 41, 127
1, 125298, Note_on_c, 5, 53, 127
1, 125298, Note_on_c, 3, 63, 127
1, 125448, Note_off_c, 10, 69, 127
1, 125450, Note_off_c, 3, 63, 127
1, 125452, Note_on_c, 10, 69, 127
1, 125588, Note_off_c, 10, 69, 127
1, 125604, Note_off_c, 5, 53, 127
1, 125606, Note_on_c, 11, 46, 127
1, 125606, Note_on_c, 11, 58, 127
1, 125929, Note_on_c, 11, 70, 127
1, 126081, Note_off_c, 11, 70, 127
1, 126083, Note_on_c, 0, 72, 127
1, 126214, Note_off_c, 11, 58, 127
1, 126214, Note_off_c, 11, 46, 127
1, 126235, Note_off_c, 0, 72, 127
1, 126237, Note_on_c, 2, 74, 127
1, 126543, Note_off_c, 2, 74, 127
1, 126545, Note_on_c, 5, 77, 127
1, 126545, Note_on_c, 11, 70, 127
1, 126545, Note_on_c, 2, 74, 127
1, 126545, Note_on_c, 11, 46, 127
1, 126697, Note_off_c, 11, 46, 127
1, 126699, Note_on_c, 0, 48, 127
1, 126851, Note_off_c, 0, 48, 127
1, 126851, Note_off_c, 2, 74, 127
1, 126851, Note_off_c, 11, 70, 127
1, 126851, Note_off_c, 5, 77, 127
1, 126853, Note_on_c, 2, 74, 127
1, 126853, Note_on_c, 5, 65, 127
1, 126853, Note_on_c, 11, 70, 127
1, 126853, Note_on_c, 2, 50, 127
1, 127159, Note_off_c, 2, 50, 127
1, 127159, Note_off_c, 11, 70, 127
1, 127159, Note_off_c, 5, 65, 127
1, 127159, Note_off_c, 2, 74, 127
1, 127161, Note_on_c, 2, 62, 127
1, 127161, Note_on_c, 5, 65, 127
1, 127161, Note_on_c, 11, 70, 127
1, 127161, Note_on_c, 5, 53, 127
1, 127467, Note_off_c, 5, 53, 127
1, 127469, Note_on_c, 11, 58, 127
1, 127610, Note_off_c, 11, 70, 127
1, 127610, Note_off_c, 5, 65, 127
1, 127610, Note_off_c, 2, 62, 127
1, 127776, Note_on_c, 11, 70, 127
1, 127928, Note_off_c, 11, 70, 127
1, 127930, Note_on_c, 0, 72, 127
1, 128082, Note_off_c, 0, 72, 127
1, 128082, Note_off_c, 11, 58, 127
1, 128084, Note_on_c, 2, 74, 127
1, 128084, Note_on_c, 11, 46, 127
1, 128390, Note_off_c, 2, 74, 127
1, 128392, Note_on_c, 5, 77, 127
1, 128693, Note_off_c, 11, 46, 127
1, 128698, Note_off_c, 5, 77, 127
1, 128700, Note_on_c, 2, 74, 127
1, 129006, Note_off_c, 2, 74, 127
1, 129008, Note_on_c, 11, 70, 127
1, 129314, Note_off_c, 11, 70, 127
1, 129316, Note_on_c, 0, 60, 127
1, 129623, Note_on_c, 0, 72, 127
1, 129775, Note_off_c, 0, 72, 127
1, 129777, Note_on_c, 2, 74, 127
1, 129924, Note_off_c, 0, 60, 127
1, 129929, Note_off_c, 2, 74, 127
1, 129931, Note_on_c, 3, 75, 127
1, 130237, Note_off_c, 3, 75, 127
1, 130239, Note_on_c, 3, 75, 127
1, 130239, Note_on_c, 7, 79, 127
1, 130239, Note_on_c, 0, 72, 127
1, 130239, Note_on_c, 0, 48, 127
1, 130391, Note_off_c, 0, 48, 127
1, 130393, Note_on_c, 2, 50, 127
1, 130545, Note_off_c, 2, 50, 127
1, 130545, Note_off_c, 0, 72, 127
1, 130545, Note_off_c, 7, 79, 127
1, 130545, Note_off_c, 3, 75, 127
1, 130547, Note_on_c, 3, 75, 127
1, 130547, Note_on_c, 7, 67, 127
1, 130547, Note_on_c, 0, 72, 127
1, 130547, Note_on_c, 3, 51, 127
1, 130853, Note_off_c, 3, 51, 127
1, 130853, Note_off_c, 0, 72, 127
1, 130853, Note_off_c, 7, 67, 127
1, 130853, Note_off_c, 3, 75, 127
1, 130855, Note_on_c, 0, 72, 127
1, 130855, Note_on_c, 3, 63, 127
1, 130855, Note_on_c, 7, 67, 127
1, 130855, Note_on_c, 7, 55, 127
1, 131161, Note_off_c, 7, 55, 127
1, 131163, Note_on_c, 0, 60, 127
1, 131240, Note_off_c, 3, 63, 127
1, 131304, Note_off_c, 7, 67, 127
1, 131304, Note_off_c, 0, 72, 127
1, 131470, Note_on_c, 0, 72, 127
1, 131622, Note_off_c, 0, 72, 127
1, 131624, Note_on_c, 2, 74, 127
1, 131776, Note_off_c, 2, 74, 127
1, 131776, Note_off_c, 0, 60, 127
1, 131778, Note_on_c, 3, 75, 127
1, 131778, Note_on_c, 0, 48, 127
1, 132084, Note_off_c, 3, 75, 127
1, 132086, Note_on_c, 7, 79, 127
1, 132387, Note_off_c, 0, 48, 127
1, 132392, Note_off_c, 7, 79, 127
1, 132394, Note_on_c, 3, 75, 127
1, 132700, Note_off_c, 3, 75, 127
1, 132702, Note_on_c, 0, 72, 127
1, 133008, Note_off_c, 0, 72, 127
1, 133010, Note_on_c, 2, 62, 127
1, 133317, Note_on_c, 2, 74, 127
1, 133469, Note_off_c, 2, 74, 127
1, 133471, Note_on_c, 3, 75, 127
1, 133618, Note_off_c, 2, 62, 127
1, 133623, Note_off_c, 3, 75, 127
1, 133625, Note_on_c, 5, 77, 127
1, 133931, Note_off_c, 5, 77, 127
1, 133933, Note_on_c, 2, 74, 127
1, 133933, Note_on_c, 5, 77, 127
1, 133933, Note_on_c, 11, 82, 127
1, 133933, Note_on_c, 2, 50, 127
1, 134085, Note_off_c, 2, 50, 127
1, 134087, Note_on_c, 3, 51, 127
1, 134239, Note_off_c, 3, 51, 127
1, 134239, Note_off_c, 11, 82, 127
1, 134239, Note_off_c, 5, 77, 127
1, 134239, Note_off_c, 2, 74, 127
1, 134241, Note_on_c, 11, 70, 127
1, 134241, Note_on_c, 5, 77, 127
1, 134241, Note_on_c, 2, 74, 127
1, 134241, Note_on_c, 5, 53, 127
1, 134547, Note_off_c, 5, 53, 127
1, 134547, Note_off_c, 2, 74, 127
1, 134547, Note_off_c, 5, 77, 127
1, 134547, Note_off_c, 11, 70, 127
1, 134549, Note_on_c, 5, 65, 127
1, 134549, Note_on_c, 11, 70, 127
1, 134549, Note_on_c, 2, 74, 127
1, 134549, Note_on_c, 11, 58, 127
1, 134853, Note_off_c, 5, 65, 127
1, 134855, Note_off_c, 11, 58, 127
1, 134857, Note_on_c, 2, 62, 127
1, 134998, Note_off_c, 2, 74, 127
1, 134998, Note_off_c, 11, 70, 127
1, 135164, Note_on_c, 2, 74, 127
1, 135316, Note_off_c, 2, 74, 127
1, 135318, Note_on_c, 3, 75, 127
1, 135470, Note_off_c, 3, 75, 127
1, 135470, Note_off_c, 2, 62, 127
1, 135472, Note_on_c, 5, 77, 127
1, 135472, Note_on_c, 2, 50, 127
1, 135778, Note_off_c, 5, 77, 127
1, 135780, Note_on_c, 11, 82, 127
1, 136081, Note_off_c, 2, 50, 127
1, 136086, Note_off_c, 11, 82, 127
1, 136088, Note_on_c, 5, 77, 127
1, 136242, Note_on_c, 11, 58, 127
1, 136394, Note_off_c, 11, 58, 127
1, 136394, Note_off_c, 5, 77, 127
1, 136396, Note_on_c, 2, 74, 127
1, 136396, Note_on_c, 0, 60, 127
1, 136548, Note_off_c, 0, 60, 127
1, 136550, Note_on_c, 2, 62, 127
1, 136702, Note_off_c, 2, 62, 127
1, 136702, Note_off_c, 2, 74, 127
1, 136704, Note_on_c, 7, 79, 127
1, 136704, Note_on_c, 3, 63, 127
1, 136856, Note_off_c, 7, 79, 127
1, 136858, Note_on_c, 5, 77, 127
1, 137010, Note_off_c, 5, 77, 127
1, 137010, Note_off_c, 3, 63, 127
1, 137012, Note_on_c, 3, 75, 127
1, 137012, Note_on_c, 7, 67, 127
1, 137164, Note_off_c, 3, 75, 127
1, 137166, Note_on_c, 2, 74, 127
1, 137318, Note_off_c, 2, 74, 127
1, 137318, Note_off_c, 7, 67, 127
1, 137320, Note_on_c, 3, 75, 127
1, 137320, Note_on_c, 0, 60, 127
1, 137472, Note_off_c, 3, 75, 127
1, 137474, Note_on_c, 2, 74, 127
1, 137626, Note_off_c, 2, 74, 127
1, 137626, Note_off_c, 0, 60, 127
1, 137628, Note_on_c, 0, 72, 127
1, 137628, Note_on_c, 3, 63, 127
1, 137780, Note_off_c, 0, 72, 127
1, 137782, Note_on_c, 11, 70, 127
1, 137934, Note_off_c, 11, 70, 127
1, 137934, Note_off_c, 3, 63, 127
1, 137936, Note_on_c, 0, 72, 127
1, 137936, Note_on_c, 10, 57, 127
1, 138088, Note_off_c, 0, 72, 127
1, 138090, Note_on_c, 11, 70, 127
1, 138242, Note_off_c, 11, 70, 127
1, 138242, Note_off_c, 10, 57, 127
1, 138244, Note_on_c, 10, 69, 127
1, 138244, Note_on_c, 0, 60, 127
1, 138396, Note_off_c, 10, 69, 127
1, 138398, Note_on_c, 7, 67, 127
1, 138550, Note_off_c, 7, 67, 127
1, 138550, Note_off_c, 0, 60, 127
1, 138552, Note_on_c, 10, 69, 127
1, 138552, Note_on_c, 5, 53, 127
1, 138704, Note_off_c, 10, 69, 127
1, 138706, Note_on_c, 5, 65, 127
1, 138858, Note_off_c, 5, 65, 127
1, 138858, Note_off_c, 5, 53, 127
1, 138870, Note_on_c, 2, 50, 127
1, 138870, Note_on_c, 2, 38, 127
1, 139022, Note_off_c, 2, 50, 127
1, 139030, Note_on_c, 2, 50, 127
1, 139030, Note_on_c, 2, 62, 127
1, 139176, Note_off_c, 2, 38, 127
1, 139182, Note_off_c, 2, 50, 127
1, 139184, Note_on_c, 3, 39, 127
1, 139184, Note_on_c, 3, 51, 127
1, 139222, Note_off_c, 2, 62, 127
1, 139336, Note_off_c, 3, 51, 127
1, 139338, Note_on_c, 3, 63, 127
1, 139338, Note_on_c, 3, 51, 127
1, 139490, Note_off_c, 3, 51, 127
1, 139490, Note_off_c, 3, 39, 127
1, 139492, Note_on_c, 5, 41, 127
1, 139492, Note_on_c, 5, 53, 127
1, 139530, Note_off_c, 3, 63, 127
1, 139644, Note_off_c, 5, 53, 127
1, 139646, Note_on_c, 5, 65, 127
1, 139646, Note_on_c, 5, 53, 127
1, 139798, Note_off_c, 5, 53, 127
1, 139798, Note_off_c, 5, 41, 127
1, 139800, Note_on_c, 7, 43, 127
1, 139800, Note_on_c, 7, 55, 127
1, 139838, Note_off_c, 5, 65, 127
1, 139952, Note_off_c, 7, 55, 127
1, 139954, Note_on_c, 7, 67, 127
1, 139954, Note_on_c, 7, 55, 127
1, 140106, Note_off_c, 7, 55, 127
1, 140106, Note_off_c, 7, 43, 127
1, 140108, Note_on_c, 10, 57, 127
1, 140108, Note_on_c, 10, 45, 127
1, 140146, Note_off_c, 7, 67, 127
1, 140260, Note_off_c, 10, 57, 127
1, 140262, Note_on_c, 10, 69, 127
1, 140262, Note_on_c, 10, 57, 127
1, 140414, Note_off_c, 10, 57, 127
1, 140414, Note_off_c, 10, 45, 127
1, 140416, Note_on_c, 11, 46, 127
1, 140416, Note_on_c, 11, 58, 127
1, 140454, Note_off_c, 10, 69, 127
1, 140568, Note_off_c, 11, 58, 127
1, 140570, Note_on_c, 11, 70, 127
1, 140570, Note_on_c, 11, 58, 127
1, 140722, Note_off_c, 11, 58, 127
1, 140722, Note_off_c, 11, 46, 127
1, 140724, Note_on_c, 2, 62, 127
1, 140724, Note_on_c, 2, 50, 127
1, 140762, Note_off_c, 11, 70, 127
1, 140876, Note_off_c, 2, 62, 127
1, 140878, Note_on_c, 2, 62, 127
1, 140878, Note_on_c, 2, 74, 127
1, 141030, Note_off_c, 2, 62, 127
1, 141030, Note_off_c, 2, 50, 127
1, 141032, Note_on_c, 3, 63, 127
1, 141032, Note_on_c, 3, 51, 127
1, 141070, Note_off_c, 2, 74, 127
1, 141184, Note_off_c, 3, 63, 127
1, 141186, Note_on_c, 3, 75, 127
1, 141186, Note_on_c, 3, 63, 127
1, 141338, Note_off_c, 3, 63, 127
1, 141338, Note_off_c, 3, 51, 127
1, 141340, Note_on_c, 5, 53, 127
1, 141340, Note_on_c, 5, 65, 127
1, 141378, Note_off_c, 3, 75, 127
1, 141492, Note_off_c, 5, 65, 127
1, 141494, Note_on_c, 5, 77, 127
1, 141494, Note_on_c, 5, 65, 127
1, 141646, Note_off_c, 5, 65, 127
1, 141646, Note_off_c, 5, 53, 127
1, 141648, Note_on_c, 7, 67, 127
1, 141648, Note_on_c, 7, 55, 127
1, 141686, Note_off_c, 5, 77, 127
1, 141800, Note_off_c, 7, 67, 127
1, 141802, Note_on_c, 7, 67, 127
1, 141802, Note_on_c, 7, 79, 127
1, 141954, Note_off_c, 7, 67, 127
1, 141954, Note_off_c, 7, 55, 127
1, 141956, Note_on_c, 10, 57, 127
1, 141956, Note_on_c, 10, 69, 127
1, 141994, Note_off_c, 7, 79, 127
1, 142108, Note_off_c, 10, 69, 127
1, 142110, Note_on_c, 10, 69, 127
1, 142110, Note_on_c, 10, 81, 127
1, 142254, Note_off_c, 10, 81, 127
1, 142262, Note_off_c, 10, 69, 127
1, 142262, Note_off_c, 10, 57, 127
1, 142272, Note_on_c, 11, 58, 127
1, 142272, Note_on_c, 11, 82, 127
1, 142272, Note_on_c, 11, 70, 127
1, 142885, Note_off_c, 11, 70, 127
1, 142885, Note_off_c, 11, 82, 127
1, 142885, Note_off_c, 11, 58, 127
1, 143007, Note_on_c, 2, 62, 127
1, 143007, Note_on_c, 2, 50, 127
1, 143007, Note_on_c, 2, 38, 127
1, 143620, Note_off_c, 2, 38, 127
1, 143620, Note_off_c, 2, 50, 127
1, 143620, Note_off_c, 2, 62, 127
1, 143694, Note_on_c, 5, 53, 127
1, 143694, Note_on_c, 5, 41, 127
1, 143694, Note_on_c, 5, 65, 127
1, 144307, Note_off_c, 5, 65, 127
1, 144307, Note_off_c, 5, 41, 127
1, 144307, Note_off_c, 5, 53, 127
1, 144381, Note_on_c, 11, 58, 127
1, 144381, Note_on_c, 11, 34, 127
1, 144381, Note_on_c, 11, 46, 127
1, 146681, Note_off_c, 11, 46, 127
1, 146681, Note_off_c, 11, 34, 127
1, 146681, Note_off_c, 11, 58, 127
1, 149987, Note_on_c, 11, 70, 127
1, 149987, Note_on_c, 7, 43, 127
1, 150246, Note_off_c, 11, 70, 127
1, 150249, Note_on_c, 7, 67, 127
1, 150508, Note_off_c, 7, 67, 127
1, 150508, Note_off_c, 7, 43, 127
1, 150511, Note_on_c, 3, 75, 127
1, 150511, Note_on_c, 7, 55, 127
1, 150773, Note_on_c, 11, 70, 127
1, 151032, Note_off_c, 11, 70, 127
1, 151032, Note_off_c, 7, 55, 127
1, 151035, Note_on_c, 8, 68, 127
1, 151035, Note_on_c, 5, 53, 127
1, 151275, Note_off_c, 3, 75, 127
1, 151297, Note_on_c, 3, 75, 127
1, 151297, Note_on_c, 0, 60, 127
1, 151553, Note_off_c, 5, 53, 127
1, 151556, Note_off_c, 0, 60, 127
1, 151556, Note_off_c, 3, 75, 127
1, 151559, Note_on_c, 2, 74, 127
1, 151559, Note_on_c, 5, 53, 127
1, 151559, Note_on_c, 5, 65, 127
1, 151818, Note_off_c, 5, 65, 127
1, 151818, Note_off_c, 2, 74, 127
1, 151821, Note_on_c, 0, 72, 127
1, 151821, Note_on_c, 3, 63, 127
1, 152077, Note_off_c, 5, 53, 127
1, 152080, Note_off_c, 3, 63, 127
1, 152080, Note_off_c, 0, 72, 127
1, 152083, Note_on_c, 12, 71, 127
1, 152083, Note_on_c, 2, 62, 127
1, 152083, Note_on_c, 5, 53, 127
1, 152345, Note_off_c, 8, 68, 127
1, 152345, Note_on_c, 8, 68, 127
1, 152604, Note_off_c, 8, 68, 127
1, 152604, Note_off_c, 5, 53, 127
1, 152604, Note_off_c, 2, 62, 127
1, 152607, Note_on_c, 7, 67, 127
1, 152607, Note_on_c, 2, 62, 127
1, 152607, Note_on_c, 5, 53, 127
1, 152866, Note_off_c, 7, 67, 127
1, 152869, Note_on_c, 5, 65, 127
1, 153128, Note_off_c, 5, 65, 127
1, 153128, Note_off_c, 5, 53, 127
1, 153128, Note_off_c, 2, 62, 127
1, 153131, Note_on_c, 7, 67, 127
1, 153131, Note_on_c, 5, 53, 127
1, 153131, Note_on_c, 7, 55, 127
1, 153390, Note_off_c, 7, 67, 127
1, 153393, Note_off_c, 12, 71, 127
1, 153393, Note_on_c, 2, 74, 127
1, 153393, Note_on_c, 5, 65, 127
1, 153652, Note_off_c, 5, 65, 127
1, 153652, Note_off_c, 2, 74, 127
1, 153652, Note_off_c, 7, 55, 127
1, 153652, Note_off_c, 5, 53, 127
1, 153655, Note_on_c, 3, 63, 127
1, 153655, Note_on_c, 0, 72, 127
1, 153655, Note_on_c, 7, 55, 127
1, 153655, Note_on_c, 5, 53, 127
1, 153914, Note_off_c, 0, 72, 127
1, 153914, Note_off_c, 3, 63, 127
1, 153917, Note_on_c, 12, 71, 127
1, 153917, Note_on_c, 2, 62, 127
1, 154176, Note_off_c, 2, 62, 127
1, 154176, Note_off_c, 12, 71, 127
1, 154176, Note_off_c, 5, 53, 127
1, 154176, Note_off_c, 7, 55, 127
1, 154179, Note_on_c, 0, 72, 127
1, 154179, Note_on_c, 0, 60, 127
1, 154179, Note_on_c, 3, 51, 127
1, 154179, Note_on_c, 7, 55, 127
1, 154438, Note_off_c, 0, 72, 127
1, 154441, Note_on_c, 7, 67, 127
1, 154700, Note_off_c, 7, 67, 127
1, 154700, Note_off_c, 3, 51, 127
1, 154703, Note_on_c, 5, 65, 127
1, 154703, Note_on_c, 5, 53, 127
1, 154962, Note_off_c, 5, 65, 127
1, 154965, Note_on_c, 3, 63, 127
1, 155216, Note_off_c, 7, 55, 127
1, 155224, Note_off_c, 3, 63, 127
1, 155224, Note_off_c, 5, 53, 127
1, 155227, Note_on_c, 2, 62, 127
1, 155227, Note_on_c, 7, 55, 127
1, 155486, Note_off_c, 2, 62, 127
1, 155489, Note_on_c, 3, 63, 127
1, 155748, Note_off_c, 3, 63, 127
1, 155748, Note_off_c, 0, 60, 127
1, 155751, Note_on_c, 12, 59, 127
1, 155751, Note_on_c, 5, 65, 127
1, 155751, Note_on_c, 7, 43, 127
1, 156010, Note_off_c, 5, 65, 127
1, 156013, Note_on_c, 7, 67, 127
1, 156269, Note_off_c, 12, 59, 127
1, 156272, Note_off_c, 7, 67, 127
1, 156272, Note_off_c, 7, 43, 127
1, 156275, Note_on_c, 3, 63, 127
1, 156275, Note_on_c, 0, 48, 127
1, 156537, Note_on_c, 7, 67, 127
1, 156796, Note_off_c, 7, 67, 127
1, 156796, Note_off_c, 0, 48, 127
1, 156796, Note_off_c, 7, 55, 127
1, 156799, Note_on_c, 0, 72, 127
1, 156799, Note_on_c, 0, 48, 127
1, 156799, Note_on_c, 10, 57, 127
1, 157058, Note_off_c, 10, 57, 127
1, 157058, Note_off_c, 0, 72, 127
1, 157061, Note_on_c, 3, 75, 127
1, 157061, Note_on_c, 11, 58, 127
1, 157312, Note_off_c, 3, 63, 127
1, 157317, Note_off_c, 0, 48, 127
1, 157320, Note_off_c, 11, 58, 127
1, 157320, Note_off_c, 3, 75, 127
1, 157323, Note_on_c, 7, 67, 127
1, 157323, Note_on_c, 2, 62, 127
1, 157323, Note_on_c, 0, 48, 127
1, 157323, Note_on_c, 10, 57, 127
1, 157582, Note_off_c, 7, 67, 127
1, 157585, Note_on_c, 6, 66, 127
1, 157844, Note_off_c, 6, 66, 127
1, 157844, Note_off_c, 10, 57, 127
1, 157844, Note_off_c, 0, 48, 127
1, 157847, Note_on_c, 4, 64, 127
1, 157847, Note_on_c, 7, 55, 127
1, 157847, Note_on_c, 0, 48, 127
1, 158087, Note_off_c, 2, 62, 127
1, 158106, Note_off_c, 7, 55, 127
1, 158106, Note_off_c, 4, 64, 127
1, 158109, Note_on_c, 2, 62, 127
1, 158109, Note_on_c, 6, 54, 127
1, 158365, Note_off_c, 0, 48, 127
1, 158368, Note_off_c, 6, 54, 127
1, 158371, Note_on_c, 7, 67, 127
1, 158371, Note_on_c, 7, 55, 127
1, 158371, Note_on_c, 11, 46, 127
1, 158494, Note_off_c, 7, 67, 127
1, 158502, Note_on_c, 6, 66, 127
1, 158625, Note_off_c, 6, 66, 127
1, 158628, Note_off_c, 2, 62, 127
1, 158633, Note_on_c, 7, 67, 127
1, 158892, Note_off_c, 11, 46, 127
1, 158895, Note_on_c, 0, 48, 127
1, 159151, Note_off_c, 7, 67, 127
1, 159156, Note_on_c, 10, 69, 127
1, 159407, Note_off_c, 7, 55, 127
1, 159415, Note_off_c, 10, 69, 127
1, 159415, Note_off_c, 0, 48, 127
1, 159418, Note_on_c, 0, 60, 127
1, 159418, Note_on_c, 6, 66, 127
1, 159418, Note_on_c, 11, 70, 127
1, 159418, Note_on_c, 2, 50, 127
1, 159767, Note_off_c, 11, 70, 127
1, 159767, Note_on_c, 10, 69, 127
1, 159854, Note_on_c, 11, 70, 127
1, 159876, Note_off_c, 10, 69, 127
1, 159941, Note_on_c, 10, 69, 127
1, 159941, Note_on_c, 2, 38, 127
1, 159963, Note_off_c, 11, 70, 127
1, 160200, Note_off_c, 10, 69, 127
1, 160200, Note_off_c, 6, 66, 127
1, 160203, Note_on_c, 7, 67, 127
1, 160454, Note_off_c, 0, 60, 127
1, 160462, Note_off_c, 7, 67, 127
1, 160462, Note_off_c, 2, 38, 127
1, 160465, Note_on_c, 7, 67, 127
1, 160465, Note_on_c, 2, 62, 127
1, 160465, Note_on_c, 11, 58, 127
1, 160465, Note_on_c, 7, 43, 127
1, 160986, Note_off_c, 2, 50, 127
1, 160996, Note_on_c, 2, 50, 127
1, 161502, Note_off_c, 11, 58, 127
1, 161502, Note_off_c, 2, 62, 127
1, 161502, Note_off_c, 7, 67, 127
1, 161517, Note_off_c, 2, 50, 127
1, 161527, Note_on_c, 7, 55, 127
1, 162053, Note_on_c, 2, 74, 127
1, 162558, Note_off_c, 7, 43, 127
1, 162564, Note_off_c, 7, 55, 127
1, 162574, Note_off_c, 2, 74, 127
1, 162577, Note_on_c, 7, 79, 127
1, 163098, Note_off_c, 7, 79, 127
1, 163101, Note_on_c, 7, 79, 127
1, 163622, Note_off_c, 7, 79, 127
1, 163625, Note_on_c, 7, 79, 127
1, 164146, Note_off_c, 7, 79, 127
1, 164149, Note_on_c, 7, 43, 127
1, 164149, Note_on_c, 7, 55, 127
1, 164149, Note_on_c, 10, 81, 127
1, 164408, Note_off_c, 10, 81, 127
1, 164411, Note_on_c, 11, 82, 127
1, 164670, Note_off_c, 11, 82, 127
1, 164670, Note_off_c, 7, 55, 127
1, 164670, Note_off_c, 7, 43, 127
1, 164673, Note_on_c, 10, 57, 127
1, 164673, Note_on_c, 2, 50, 127
1, 164673, Note_on_c, 6, 78, 127
1, 164932, Note_off_c, 6, 78, 127
1, 164932, Note_off_c, 10, 57, 127
1, 164935, Note_on_c, 7, 55, 127
1, 164935, Note_on_c, 4, 76, 127
1, 165191, Note_off_c, 2, 50, 127
1, 165194, Note_off_c, 4, 76, 127
1, 165194, Note_off_c, 7, 55, 127
1, 165197, Note_on_c, 6, 54, 127
1, 165197, Note_on_c, 2, 50, 127
1, 165197, Note_on_c, 2, 74, 127
1, 165456, Note_off_c, 6, 54, 127
1, 165459, Note_on_c, 4, 52, 127
1, 165715, Note_off_c, 2, 50, 127
1, 165718, Note_off_c, 4, 52, 127
1, 165721, Note_on_c, 6, 54, 127
1, 165721, Note_on_c, 2, 50, 127
1, 165961, Note_off_c, 2, 74, 127
1, 166242, Note_off_c, 2, 50, 127
1, 166245, Note_on_c, 0, 48, 127
1, 166245, Note_on_c, 10, 81, 127
1, 166485, Note_off_c, 6, 54, 127
1, 166504, Note_off_c, 10, 81, 127
1, 166504, Note_off_c, 0, 48, 127
1, 166507, Note_on_c, 11, 46, 127
1, 166507, Note_on_c, 7, 55, 127
1, 166507, Note_on_c, 0, 84, 127
1, 166635, Note_off_c, 0, 84, 127
1, 166638, Note_on_c, 11, 82, 127
1, 166766, Note_off_c, 11, 82, 127
1, 166766, Note_off_c, 7, 55, 127
1, 166766, Note_off_c, 11, 46, 127
1, 166769, Note_on_c, 10, 57, 127
1, 166769, Note_on_c, 10, 45, 127
1, 166769, Note_on_c, 0, 84, 127
1, 167290, Note_off_c, 10, 45, 127
1, 167290, Note_off_c, 10, 57, 127
1, 167293, Note_on_c, 10, 57, 127
1, 167421, Note_off_c, 0, 84, 127
1, 167424, Note_on_c, 11, 82, 127
1, 167552, Note_off_c, 11, 82, 127
1, 167555, Note_on_c, 7, 55, 127
1, 167555, Note_on_c, 10, 81, 127
1, 167642, Note_on_c, 11, 82, 127
1, 167664, Note_off_c, 10, 81, 127
1, 167729, Note_on_c, 0, 84, 127
1, 167751, Note_off_c, 11, 82, 127
1, 167811, Note_off_c, 10, 57, 127
1, 167814, Note_off_c, 7, 55, 127
1, 167817, Note_on_c, 10, 57, 127
1, 167817, Note_on_c, 6, 54, 127
1, 167817, Note_on_c, 2, 74, 127
1, 167839, Note_off_c, 0, 84, 127
1, 167945, Note_off_c, 2, 74, 127
1, 167948, Note_on_c, 6, 78, 127
1, 168076, Note_off_c, 6, 78, 127
1, 168079, Note_on_c, 10, 81, 127
1, 168207, Note_off_c, 10, 81, 127
1, 168210, Note_on_c, 0, 84, 127
1, 168338, Note_off_c, 0, 84, 127
1, 168338, Note_off_c, 6, 54, 127
1, 168338, Note_off_c, 10, 57, 127
1, 168341, Note_on_c, 2, 50, 127
1, 168341, Note_on_c, 6, 54, 127
1, 168341, Note_on_c, 11, 82, 127
1, 168600, Note_off_c, 11, 82, 127
1, 168603, Note_on_c, 0, 84, 127
1, 168731, Note_off_c, 0, 84, 127
1, 168734, Note_on_c, 10, 81, 127
1, 168862, Note_off_c, 10, 81, 127
1, 168862, Note_off_c, 6, 54, 127
1, 168862, Note_off_c, 2, 50, 127
1, 168865, Note_on_c, 7, 55, 127
1, 168865, Note_on_c, 11, 82, 127
1, 169124, Note_off_c, 11, 82, 127
1, 169127, Note_on_c, 10, 81, 127
1, 169386, Note_off_c, 10, 81, 127
1, 169386, Note_off_c, 7, 55, 127
1, 169389, Note_on_c, 7, 55, 127
1, 169389, Note_on_c, 7, 79, 127
1, 169651, Note_on_c, 10, 57, 127
1, 169907, Note_off_c, 7, 55, 127
1, 169910, Note_off_c, 10, 57, 127
1, 169913, Note_on_c, 7, 55, 127
1, 169913, Note_on_c, 11, 58, 127
1, 170153, Note_off_c, 7, 79, 127
1, 170172, Note_off_c, 11, 58, 127
1, 170175, Note_on_c, 2, 62, 127
1, 170431, Note_off_c, 7, 55, 127
1, 170434, Note_off_c, 2, 62, 127
1, 170437, Note_on_c, 7, 67, 127
1, 170437, Note_on_c, 7, 55, 127
1, 170437, Note_on_c, 2, 74, 127
1, 170644, Note_off_c, 2, 74, 127
1, 170644, Note_on_c, 0, 72, 127
1, 170696, Note_off_c, 7, 55, 127
1, 170699, Note_on_c, 10, 57, 127
1, 170800, Note_off_c, 0, 72, 127
1, 170803, Note_on_c, 2, 74, 127
1, 170956, Note_off_c, 7, 67, 127
1, 170959, Note_off_c, 2, 74, 127
1, 170959, Note_off_c, 10, 57, 127
1, 170962, Note_on_c, 7, 67, 127
1, 170962, Note_on_c, 0, 60, 127
1, 170962, Note_on_c, 3, 75, 127
1, 171221, Note_off_c, 3, 75, 127
1, 171224, Note_on_c, 0, 72, 127
1, 171483, Note_off_c, 0, 72, 127
1, 171483, Note_off_c, 0, 60, 127
1, 171483, Note_off_c, 7, 67, 127
1, 171486, Note_on_c, 0, 60, 127
1, 171486, Note_on_c, 10, 69, 127
1, 171748, Note_on_c, 6, 66, 127
1, 172007, Note_off_c, 6, 66, 127
1, 172007, Note_off_c, 10, 69, 127
1, 172007, Note_off_c, 0, 60, 127
1, 172010, Note_on_c, 0, 60, 127
1, 172010, Note_on_c, 11, 70, 127
1, 172010, Note_on_c, 3, 75, 127
1, 172269, Note_off_c, 3, 75, 127
1, 172272, Note_on_c, 0, 72, 127
1, 172531, Note_off_c, 0, 72, 127
1, 172531, Note_off_c, 11, 70, 127
1, 172531, Note_off_c, 0, 60, 127
1, 172534, Note_on_c, 0, 60, 127
1, 172534, Note_on_c, 0, 72, 127
1, 172534, Note_on_c, 10, 69, 127
1, 172793, Note_off_c, 10, 69, 127
1, 172796, Note_on_c, 6, 66, 127
1, 173055, Note_off_c, 6, 66, 127
1, 173055, Note_off_c, 0, 72, 127
1, 173055, Note_off_c, 0, 60, 127
1, 173058, Note_on_c, 2, 62, 127
1, 173058, Note_on_c, 0, 60, 127
1, 173058, Note_on_c, 7, 79, 127
1, 173579, Note_off_c, 7, 79, 127
1, 173579, Note_off_c, 0, 60, 127
1, 173582, Note_on_c, 11, 58, 127
1, 173582, Note_on_c, 6, 78, 127
1, 173841, Note_off_c, 11, 58, 127
1, 173844, Note_on_c, 10, 57, 127
1, 174100, Note_off_c, 6, 78, 127
1, 174103, Note_off_c, 10, 57, 127
1, 174106, Note_on_c, 11, 58, 127
1, 174368, Note_on_c, 2, 74, 127
1, 174627, Note_off_c, 2, 74, 127
1, 174627, Note_off_c, 11, 58, 127
1, 174627, Note_off_c, 2, 62, 127
1, 174630, Note_on_c, 10, 57, 127
1, 174630, Note_on_c, 0, 60, 127
1, 174630, Note_on_c, 4, 76, 127
1, 174835, Note_off_c, 4, 76, 127
1, 174838, Note_on_c, 7, 79, 127
1, 174993, Note_off_c, 7, 79, 127
1, 174996, Note_on_c, 6, 78, 127
1, 175151, Note_off_c, 6, 78, 127
1, 175151, Note_off_c, 0, 60, 127
1, 175151, Note_off_c, 10, 57, 127
1, 175154, Note_on_c, 7, 55, 127
1, 175154, Note_on_c, 11, 58, 127
1, 175154, Note_on_c, 7, 79, 127
1, 175413, Note_off_c, 7, 79, 127
1, 175416, Note_on_c, 11, 70, 127
1, 175675, Note_off_c, 11, 70, 127
1, 175675, Note_off_c, 11, 58, 127
1, 175675, Note_off_c, 7, 55, 127
1, 175678, Note_on_c, 7, 55, 127
1, 175678, Note_on_c, 3, 51, 127
1, 175678, Note_on_c, 0, 72, 127
1, 175937, Note_off_c, 0, 72, 127
1, 175940, Note_on_c, 2, 74, 127
1, 176199, Note_off_c, 2, 74, 127
1, 176199, Note_off_c, 3, 51, 127
1, 176202, Note_on_c, 0, 48, 127
1, 176202, Note_on_c, 11, 70, 127
1, 176338, Note_off_c, 11, 70, 127
1, 176338, Note_on_c, 10, 69, 127
1, 176433, Note_on_c, 11, 70, 127
1, 176447, Note_off_c, 10, 69, 127
1, 176529, Note_on_c, 10, 69, 127
1, 176543, Note_off_c, 11, 70, 127
1, 176715, Note_off_c, 7, 55, 127
1, 176723, Note_off_c, 0, 48, 127
1, 176726, Note_on_c, 2, 50, 127
1, 176726, Note_on_c, 6, 54, 127
1, 176980, Note_off_c, 10, 69, 127
1, 176988, Note_on_c, 7, 67, 127
1, 177247, Note_off_c, 7, 67, 127
1, 177247, Note_off_c, 6, 54, 127
1, 177247, Note_off_c, 2, 50, 127
1, 177250, Note_on_c, 7, 55, 127
1, 177250, Note_on_c, 7, 67, 127
1, 177509, Note_off_c, 7, 55, 127
1, 177512, Note_on_c, 11, 46, 127
1, 177771, Note_off_c, 11, 46, 127
1, 177774, Note_on_c, 0, 48, 127
1, 178033, Note_off_c, 0, 48, 127
1, 178036, Note_on_c, 2, 50, 127
1, 178287, Note_off_c, 7, 67, 127
1, 178295, Note_off_c, 2, 50, 127
1, 178298, Note_on_c, 7, 43, 127
1, 178838, Note_on_c, 2, 74, 127
1, 179084, Note_off_c, 7, 43, 127
1, 179097, Note_off_c, 2, 74, 127
1, 179100, Note_on_c, 3, 75, 127
1, 179359, Note_off_c, 3, 75, 127
1, 179362, Note_on_c, 5, 77, 127
1, 179621, Note_off_c, 5, 77, 127
1, 179624, Note_on_c, 2, 74, 127
1, 179883, Note_off_c, 2, 74, 127
1, 179886, Note_on_c, 12, 71, 127
1, 180145, Note_off_c, 12, 71, 127
1, 180148, Note_on_c, 7, 67, 127
1, 180407, Note_off_c, 7, 67, 127
1, 180410, Note_on_c, 5, 77, 127
1, 180669, Note_off_c, 5, 77, 127
1, 180672, Note_on_c, 2, 74, 127
1, 180931, Note_off_c, 2, 74, 127
1, 180934, Note_on_c, 12, 71, 127
1, 180934, Note_on_c, 2, 50, 127
1, 181193, Note_off_c, 12, 71, 127
1, 181196, Note_on_c, 7, 67, 127
1, 181196, Note_on_c, 0, 48, 127
1, 181452, Note_off_c, 2, 50, 127
1, 181455, Note_off_c, 0, 48, 127
1, 181455, Note_off_c, 7, 67, 127
1, 181458, Note_on_c, 2, 74, 127
1, 181458, Note_on_c, 12, 47, 127
1, 181458, Note_on_c, 7, 55, 127
1, 181589, Note_on_c, 3, 75, 127
1, 181704, Note_off_c, 2, 74, 127
1, 181718, Note_off_c, 12, 47, 127
1, 181721, Note_off_c, 3, 75, 127
1, 181721, Note_on_c, 5, 77, 127
1, 181721, Note_on_c, 0, 48, 127
1, 181977, Note_off_c, 7, 55, 127
1, 181980, Note_off_c, 0, 48, 127
1, 181983, Note_on_c, 7, 55, 127
1, 181983, Note_on_c, 12, 47, 127
1, 182242, Note_off_c, 12, 47, 127
1, 182245, Note_on_c, 10, 45, 127
1, 182501, Note_off_c, 7, 55, 127
1, 182504, Note_off_c, 10, 45, 127
1, 182507, Note_on_c, 7, 43, 127
1, 182507, Note_on_c, 7, 55, 127
1, 182758, Note_off_c, 5, 77, 127
1, 182769, Note_on_c, 8, 80, 127
1, 183028, Note_off_c, 8, 80, 127
1, 183028, Note_off_c, 7, 55, 127
1, 183028, Note_off_c, 7, 43, 127
1, 183031, Note_on_c, 7, 79, 127
1, 183031, Note_on_c, 10, 57, 127
1, 183290, Note_off_c, 10, 57, 127
1, 183290, Note_off_c, 7, 79, 127
1, 183293, Note_on_c, 5, 77, 127
1, 183293, Note_on_c, 12, 59, 127
1, 183552, Note_off_c, 12, 59, 127
1, 183552, Note_off_c, 5, 77, 127
1, 183555, Note_on_c, 3, 75, 127
1, 183555, Note_on_c, 0, 60, 127
1, 183814, Note_off_c, 3, 75, 127
1, 183817, Note_on_c, 12, 71, 127
1, 184076, Note_off_c, 12, 71, 127
1, 184076, Note_off_c, 0, 60, 127
1, 184079, Note_on_c, 0, 72, 127
1, 184079, Note_on_c, 3, 51, 127
1, 184338, Note_off_c, 0, 72, 127
1, 184341, Note_on_c, 7, 67, 127
1, 184600, Note_off_c, 7, 67, 127
1, 184600, Note_off_c, 3, 51, 127
1, 184603, Note_on_c, 8, 68, 127
1, 184603, Note_on_c, 5, 53, 127
1, 184731, Note_off_c, 8, 68, 127
1, 184734, Note_on_c, 0, 72, 127
1, 184862, Note_off_c, 0, 72, 127
1, 184865, Note_on_c, 8, 68, 127
1, 184993, Note_off_c, 8, 68, 127
1, 184996, Note_on_c, 5, 65, 127
1, 185124, Note_off_c, 5, 65, 127
1, 185124, Note_off_c, 5, 53, 127
1, 185127, Note_on_c, 2, 62, 127
1, 185127, Note_on_c, 7, 55, 127
1, 185255, Note_off_c, 2, 62, 127
1, 185258, Note_on_c, 5, 65, 127
1, 185386, Note_off_c, 5, 65, 127
1, 185389, Note_on_c, 0, 72, 127
1, 185517, Note_off_c, 0, 72, 127
1, 185520, Note_on_c, 12, 71, 127
1, 185648, Note_off_c, 12, 71, 127
1, 185648, Note_off_c, 7, 55, 127
1, 185651, Note_on_c, 0, 72, 127
1, 185651, Note_on_c, 3, 51, 127
1, 185651, Note_on_c, 0, 48, 127
1, 185910, Note_off_c, 0, 48, 127
1, 185910, Note_off_c, 3, 51, 127
1, 185913, Note_on_c, 2, 50, 127
1, 186172, Note_off_c, 2, 50, 127
1, 186175, Note_on_c, 3, 51, 127
1, 186175, Note_on_c, 0, 48, 127
1, 186434, Note_off_c, 0, 48, 127
1, 186437, Note_on_c, 11, 46, 127
1, 186688, Note_off_c, 0, 72, 127
1, 186693, Note_off_c, 3, 51, 127
1, 186696, Note_off_c, 11, 46, 127
1, 186699, Note_on_c, 5, 53, 127
1, 186699, Note_on_c, 10, 45, 127
1, 186977, Note_on_c, 3, 75, 127
1, 187064, Note_on_c, 5, 77, 127
1, 187086, Note_off_c, 3, 75, 127
1, 187151, Note_on_c, 7, 79, 127
1, 187173, Note_off_c, 5, 77, 127
1, 187220, Note_off_c, 10, 45, 127
1, 187220, Note_off_c, 5, 53, 127
1, 187239, Note_on_c, 7, 55, 127
1, 187239, Note_on_c, 5, 77, 127
1, 187261, Note_off_c, 7, 79, 127
1, 187498, Note_off_c, 5, 77, 127
1, 187498, Note_off_c, 7, 55, 127
1, 187501, Note_on_c, 10, 57, 127
1, 187501, Note_on_c, 3, 75, 127
1, 187760, Note_off_c, 3, 75, 127
1, 187760, Note_off_c, 10, 57, 127
1, 187763, Note_on_c, 11, 58, 127
1, 187763, Note_on_c, 2, 74, 127
1, 187891, Note_off_c, 2, 74, 127
1, 187894, Note_on_c, 0, 72, 127
1, 188022, Note_off_c, 0, 72, 127
1, 188025, Note_on_c, 11, 70, 127
1, 188153, Note_off_c, 11, 70, 127
1, 188156, Note_on_c, 10, 69, 127
1, 188284, Note_off_c, 10, 69, 127
1, 188284, Note_off_c, 11, 58, 127
1, 188287, Note_on_c, 2, 50, 127
1, 188287, Note_on_c, 11, 70, 127
1, 188546, Note_off_c, 11, 70, 127
1, 188549, Note_on_c, 5, 65, 127
1, 188808, Note_off_c, 5, 65, 127
1, 188808, Note_off_c, 2, 50, 127
1, 188811, Note_on_c, 3, 51, 127
1, 188811, Note_on_c, 7, 67, 127
1, 189070, Note_off_c, 7, 67, 127
1, 189073, Note_on_c, 10, 69, 127
1, 189201, Note_off_c, 10, 69, 127
1, 189204, Note_on_c, 11, 70, 127
1, 189332, Note_off_c, 11, 70, 127
1, 189332, Note_off_c, 3, 51, 127
1, 189335, Note_on_c, 5, 41, 127
1, 189335, Note_on_c, 5, 53, 127
1, 189335, Note_on_c, 0, 60, 127
1, 189594, Note_off_c, 0, 60, 127
1, 189597, Note_on_c, 11, 70, 127
1, 189725, Note_off_c, 11, 70, 127
1, 189728, Note_on_c, 10, 69, 127
1, 189856, Note_off_c, 10, 69, 127
1, 189856, Note_off_c, 5, 53, 127
1, 189856, Note_off_c, 5, 41, 127
1, 189859, Note_on_c, 11, 46, 127
1, 189859, Note_on_c, 11, 70, 127
1, 190380, Note_off_c, 11, 46, 127
1, 190383, Note_on_c, 11, 58, 127
1, 190642, Note_off_c, 11, 58, 127
1, 190645, Note_on_c, 10, 57, 127
1, 190896, Note_off_c, 11, 70, 127
1, 190904, Note_off_c, 10, 57, 127
1, 190907, Note_on_c, 7, 55, 127
1, 191428, Note_off_c, 7, 55, 127
1, 191431, Note_on_c, 5, 53, 127
1, 191431, Note_on_c, 2, 74, 127
1, 191690, Note_off_c, 5, 53, 127
1, 191693, Note_on_c, 3, 51, 127
1, 191952, Note_off_c, 3, 51, 127
1, 191952, Note_off_c, 2, 74, 127
1, 191955, Note_on_c, 2, 50, 127
1, 191955, Note_on_c, 5, 77, 127
1, 192217, Note_on_c, 5, 53, 127
1, 192476, Note_off_c, 5, 53, 127
1, 192476, Note_off_c, 5, 77, 127
1, 192479, Note_on_c, 8, 56, 127
1, 192479, Note_on_c, 5, 77, 127
1, 192719, Note_off_c, 2, 50, 127
1, 192741, Note_on_c, 0, 48, 127
1, 192997, Note_off_c, 8, 56, 127
1, 193000, Note_off_c, 0, 48, 127
1, 193000, Note_off_c, 5, 77, 127
1, 193003, Note_on_c, 12, 47, 127
1, 193003, Note_on_c, 5, 77, 127
1, 193265, Note_on_c, 2, 50, 127
1, 193524, Note_off_c, 2, 50, 127
1, 193524, Note_off_c, 5, 77, 127
1, 193527, Note_on_c, 7, 55, 127
1, 193527, Note_on_c, 7, 79, 127
1, 193767, Note_off_c, 12, 47, 127
1, 193786, Note_off_c, 7, 79, 127
1, 193789, Note_on_c, 7, 43, 127
1, 193789, Note_on_c, 5, 77, 127
1, 194045, Note_off_c, 7, 55, 127
1, 194048, Note_off_c, 5, 77, 127
1, 194048, Note_off_c, 7, 43, 127
1, 194051, Note_on_c, 0, 48, 127
1, 194051, Note_on_c, 4, 76, 127
1, 194310, Note_off_c, 4, 76, 127
1, 194313, Note_on_c, 2, 74, 127
1, 194572, Note_off_c, 2, 74, 127
1, 194572, Note_off_c, 0, 48, 127
1, 194575, Note_on_c, 0, 60, 127
1, 194575, Note_on_c, 0, 72, 127
1, 194834, Note_off_c, 0, 60, 127
1, 194837, Note_on_c, 11, 58, 127
1, 195096, Note_off_c, 11, 58, 127
1, 195099, Note_on_c, 10, 57, 127
1, 195339, Note_off_c, 0, 72, 127
1, 195620, Note_off_c, 10, 57, 127
1, 195623, Note_on_c, 7, 55, 127
1, 195623, Note_on_c, 4, 76, 127
1, 195882, Note_off_c, 4, 76, 127
1, 195882, Note_off_c, 7, 55, 127
1, 195885, Note_on_c, 5, 53, 127
1, 195885, Note_on_c, 5, 77, 127
1, 196144, Note_off_c, 5, 77, 127
1, 196144, Note_off_c, 5, 53, 127
1, 196147, Note_on_c, 4, 52, 127
1, 196147, Note_on_c, 7, 79, 127
1, 196409, Note_on_c, 7, 55, 127
1, 196668, Note_off_c, 7, 55, 127
1, 196668, Note_off_c, 7, 79, 127
1, 196671, Note_on_c, 11, 58, 127
1, 196671, Note_on_c, 7, 79, 127
1, 196911, Note_off_c, 4, 52, 127
1, 196933, Note_on_c, 2, 50, 127
1, 197189, Note_off_c, 11, 58, 127
1, 197192, Note_off_c, 2, 50, 127
1, 197192, Note_off_c, 7, 79, 127
1, 197195, Note_on_c, 1, 49, 127
1, 197195, Note_on_c, 7, 79, 127
1, 197323, Note_off_c, 7, 79, 127
1, 197326, Note_on_c, 5, 77, 127
1, 197454, Note_off_c, 5, 77, 127
1, 197457, Note_on_c, 4, 52, 127
1, 197457, Note_on_c, 4, 76, 127
1, 197585, Note_off_c, 4, 76, 127
1, 197588, Note_on_c, 5, 77, 127
1, 197716, Note_off_c, 5, 77, 127
1, 197716, Note_off_c, 4, 52, 127
1, 197719, Note_on_c, 10, 57, 127
1, 197719, Note_on_c, 7, 79, 127
1, 197828, Note_off_c, 7, 79, 127
1, 197828, Note_on_c, 10, 81, 127
1, 197904, Note_on_c, 11, 82, 127
1, 197937, Note_off_c, 10, 81, 127
1, 197959, Note_off_c, 1, 49, 127
1, 197981, Note_on_c, 10, 45, 127
1, 197981, Note_on_c, 10, 81, 127
1, 198014, Note_off_c, 11, 82, 127
1, 198109, Note_off_c, 10, 81, 127
1, 198112, Note_on_c, 7, 79, 127
1, 198237, Note_off_c, 10, 57, 127
1, 198240, Note_off_c, 7, 79, 127
1, 198240, Note_off_c, 10, 45, 127
1, 198243, Note_on_c, 2, 50, 127
1, 198243, Note_on_c, 5, 77, 127
1, 198502, Note_off_c, 5, 77, 127
1, 198502, Note_off_c, 2, 50, 127
1, 198505, Note_on_c, 10, 45, 127
1, 198505, Note_on_c, 4, 76, 127
1, 198764, Note_off_c, 4, 76, 127
1, 198764, Note_off_c, 10, 45, 127
1, 198767, Note_on_c, 5, 41, 127
1, 198767, Note_on_c, 2, 74, 127
1, 199026, Note_off_c, 5, 41, 127
1, 199029, Note_on_c, 2, 38, 127
1, 199285, Note_off_c, 2, 74, 127
1, 199288, Note_off_c, 2, 38, 127
1, 199291, Note_on_c, 2, 50, 127
1, 199550, Note_off_c, 2, 50, 127
1, 199553, Note_on_c, 10, 45, 127
1, 199553, Note_on_c, 5, 77, 127
1, 199812, Note_off_c, 5, 77, 127
1, 199812, Note_off_c, 10, 45, 127
1, 199815, Note_on_c, 5, 41, 127
1, 199815, Note_on_c, 7, 79, 127
1, 200074, Note_off_c, 7, 79, 127
1, 200074, Note_off_c, 5, 41, 127
1, 200077, Note_on_c, 2, 38, 127
1, 200077, Note_on_c, 10, 81, 127
1, 200336, Note_off_c, 10, 81, 127
1, 200336, Note_off_c, 2, 38, 127
1, 200339, Note_on_c, 2, 50, 127
1, 200339, Note_on_c, 11, 82, 127
1, 200598, Note_off_c, 11, 82, 127
1, 200601, Note_on_c, 5, 77, 127
1, 200860, Note_off_c, 5, 77, 127
1, 200860, Note_off_c, 2, 50, 127
1, 200863, Note_on_c, 5, 53, 127
1, 200863, Note_on_c, 2, 50, 127
1, 200863, Note_on_c, 2, 74, 127
1, 201122, Note_off_c, 2, 74, 127
1, 201125, Note_on_c, 11, 70, 127
1, 201384, Note_off_c, 11, 70, 127
1, 201384, Note_off_c, 2, 50, 127
1, 201384, Note_off_c, 5, 53, 127
1, 201387, Note_on_c, 11, 58, 127
1, 201387, Note_on_c, 2, 50, 127
1, 201387, Note_on_c, 11, 82, 127
1, 201646, Note_off_c, 11, 82, 127
1, 201649, Note_on_c, 5, 77, 127
1, 201908, Note_off_c, 5, 77, 127
1, 201908, Note_off_c, 2, 50, 127
1, 201908, Note_off_c, 11, 58, 127
1, 201911, Note_on_c, 2, 50, 127
1, 201911, Note_on_c, 11, 58, 127
1, 201911, Note_on_c, 2, 74, 127
1, 202170, Note_off_c, 2, 74, 127
1, 202173, Note_on_c, 11, 70, 127
1, 202301, Note_off_c, 11, 70, 127
1, 202304, Note_on_c, 8, 80, 127
1, 202432, Note_off_c, 8, 80, 127
1, 202432, Note_off_c, 2, 50, 127
1, 202435, Note_on_c, 3, 51, 127
1, 202435, Note_on_c, 7, 79, 127
1, 202675, Note_off_c, 11, 58, 127
1, 202694, Note_off_c, 7, 79, 127
1, 202697, Note_on_c, 0, 60, 127
1, 202697, Note_on_c, 10, 69, 127
1, 202953, Note_off_c, 3, 51, 127
1, 202956, Note_off_c, 10, 69, 127
1, 202956, Note_off_c, 0, 60, 127
1, 202959, Note_on_c, 2, 50, 127
1, 202959, Note_on_c, 2, 62, 127
1, 202959, Note_on_c, 11, 70, 127
1, 203218, Note_off_c, 11, 70, 127
1, 203218, Note_off_c, 2, 50, 127
1, 203221, Note_on_c, 3, 51, 127
1, 203221, Note_on_c, 0, 72, 127
1, 203477, Note_off_c, 2, 62, 127
1, 203480, Note_off_c, 0, 72, 127
1, 203480, Note_off_c, 3, 51, 127
1, 203483, Note_on_c, 5, 53, 127
1, 203483, Note_on_c, 0, 60, 127
1, 203483, Note_on_c, 11, 70, 127
1, 203655, Note_off_c, 11, 70, 127
1, 203658, Note_on_c, 10, 69, 127
1, 203745, Note_on_c, 11, 70, 127
1, 203767, Note_off_c, 10, 69, 127
1, 203832, Note_on_c, 10, 69, 127
1, 203854, Note_off_c, 11, 70, 127
1, 203919, Note_on_c, 11, 70, 127
1, 203941, Note_off_c, 10, 69, 127
1, 204004, Note_off_c, 0, 60, 127
1, 204004, Note_off_c, 5, 53, 127
1, 204007, Note_on_c, 5, 41, 127
1, 204007, Note_on_c, 10, 69, 127
1, 204029, Note_off_c, 11, 70, 127
1, 204266, Note_off_c, 10, 69, 127
1, 204269, Note_on_c, 11, 70, 127
1, 204528, Note_off_c, 11, 70, 127
1, 204528, Note_off_c, 5, 41, 127
1, 204531, Note_on_c, 11, 46, 127
1, 204531, Note_on_c, 11, 70, 127
1, 205052, Note_off_c, 11, 70, 127
1, 205052, Note_off_c, 11, 46, 127
1, 205081, Note_on_c, 11, 58, 127
1, 205081, Note_on_c, 11, 82, 127
1, 205340, Note_off_c, 11, 82, 127
1, 205349, Note_on_c, 10, 81, 127
1, 205602, Note_off_c, 11, 58, 127
1, 205608, Note_off_c, 10, 81, 127
1, 205611, Note_on_c, 11, 58, 127
1, 205611, Note_on_c, 7, 79, 127
1, 205870, Note_off_c, 7, 79, 127
1, 205873, Note_on_c, 5, 77, 127
1, 206132, Note_off_c, 5, 77, 127
1, 206132, Note_off_c, 11, 58, 127
1, 206135, Note_on_c, 11, 58, 127
1, 206135, Note_on_c, 3, 75, 127
1, 206394, Note_off_c, 3, 75, 127
1, 206397, Note_on_c, 2, 74, 127
1, 206656, Note_off_c, 2, 74, 127
1, 206656, Note_off_c, 11, 58, 127
1, 206659, Note_on_c, 7, 55, 127
1, 206659, Note_on_c, 11, 58, 127
1, 206659, Note_on_c, 3, 75, 127
1, 206918, Note_off_c, 3, 75, 127
1, 206921, Note_on_c, 5, 77, 127
1, 207180, Note_off_c, 5, 77, 127
1, 207180, Note_off_c, 11, 58, 127
1, 207180, Note_off_c, 7, 55, 127
1, 207183, Note_on_c, 7, 55, 127
1, 207183, Note_on_c, 11, 58, 127
1, 207183, Note_on_c, 7, 79, 127
1, 207442, Note_off_c, 7, 79, 127
1, 207445, Note_on_c, 2, 74, 127
1, 207704, Note_off_c, 2, 74, 127
1, 207704, Note_off_c, 11, 58, 127
1, 207704, Note_off_c, 7, 55, 127
1, 207707, Note_on_c, 10, 57, 127
1, 207707, Note_on_c, 7, 55, 127
1, 207707, Note_on_c, 2, 74, 127
1, 207966, Note_off_c, 2, 74, 127
1, 207969, Note_on_c, 1, 73, 127
1, 208228, Note_off_c, 1, 73, 127
1, 208228, Note_off_c, 7, 55, 127
1, 208228, Note_off_c, 10, 57, 127
1, 208231, Note_on_c, 10, 57, 127
1, 208231, Note_on_c, 7, 55, 127
1, 208231, Note_on_c, 12, 71, 127
1, 208490, Note_off_c, 12, 71, 127
1, 208493, Note_on_c, 10, 69, 127
1, 208752, Note_off_c, 10, 69, 127
1, 208752, Note_off_c, 7, 55, 127
1, 208752, Note_off_c, 10, 57, 127
1, 208755, Note_on_c, 10, 57, 127
1, 208755, Note_on_c, 5, 53, 127
1, 208755, Note_on_c, 2, 74, 127
1, 209017, Note_on_c, 11, 82, 127
1, 209276, Note_off_c, 11, 82, 127
1, 209276, Note_off_c, 5, 53, 127
1, 209276, Note_off_c, 10, 57, 127
1, 209279, Note_on_c, 7, 55, 127
1, 209279, Note_on_c, 11, 58, 127
1, 209279, Note_on_c, 10, 81, 127
1, 209538, Note_off_c, 10, 81, 127
1, 209541, Note_on_c, 7, 79, 127
1, 209800, Note_off_c, 7, 79, 127
1, 209800, Note_off_c, 11, 58, 127
1, 209800, Note_off_c, 7, 55, 127
1, 209803, Note_on_c, 10, 57, 127
1, 209803, Note_on_c, 7, 79, 127
1, 209912, Note_off_c, 7, 79, 127
1, 209912, Note_on_c, 5, 77, 127
1, 210021, Note_off_c, 5, 77, 127
1, 210021, Note_on_c, 7, 79, 127
1, 210130, Note_off_c, 7, 79, 127
1, 210130, Note_on_c, 5, 77, 127
1, 210296, Note_off_c, 5, 77, 127
1, 210323, Note_off_c, 10, 57, 127
1, 210323, Note_off_c, 2, 74, 127
1, 210326, Note_on_c, 10, 45, 127
1, 210326, Note_on_c, 7, 55, 127
1, 210326, Note_on_c, 1, 73, 127
1, 210326, Note_on_c, 4, 76, 127
1, 210585, Note_off_c, 4, 76, 127
1, 210585, Note_off_c, 1, 73, 127
1, 210588, Note_on_c, 2, 74, 127
1, 210847, Note_off_c, 2, 74, 127
1, 210847, Note_off_c, 7, 55, 127
1, 210847, Note_off_c, 10, 45, 127
1, 210850, Note_on_c, 6, 54, 127
1, 210850, Note_on_c, 2, 50, 127
1, 210850, Note_on_c, 2, 74, 127
1, 211109, Note_off_c, 2, 74, 127
1, 211128, Note_on_c, 10, 69, 127
1, 211371, Note_off_c, 2, 50, 127
1, 211371, Note_off_c, 6, 54, 127
1, 211387, Note_off_c, 10, 69, 127
1, 211390, Note_on_c, 12, 71, 127
1, 211390, Note_on_c, 0, 48, 127
1, 211390, Note_on_c, 7, 55, 127
1, 211649, Note_off_c, 12, 71, 127
1, 211652, Note_on_c, 0, 72, 127
1, 211911, Note_off_c, 0, 72, 127
1, 211911, Note_off_c, 7, 55, 127
1, 211911, Note_off_c, 0, 48, 127
1, 211914, Note_on_c, 7, 67, 127
1, 211914, Note_on_c, 0, 48, 127
1, 211914, Note_on_c, 10, 57, 127
1, 212173, Note_off_c, 7, 67, 127
1, 212176, Note_on_c, 6, 66, 127
1, 212435, Note_off_c, 6, 66, 127
1, 212435, Note_off_c, 10, 57, 127
1, 212435, Note_off_c, 0, 48, 127
1, 212438, Note_on_c, 3, 63, 127
1, 212438, Note_on_c, 0, 48, 127
1, 212438, Note_on_c, 10, 57, 127
1, 212697, Note_off_c, 3, 63, 127
1, 212700, Note_on_c, 2, 62, 127
1, 212959, Note_off_c, 2, 62, 127
1, 212959, Note_off_c, 10, 57, 127
1, 212959, Note_off_c, 0, 48, 127
1, 212962, Note_on_c, 7, 67, 127
1, 212962, Note_on_c, 11, 46, 127
1, 212962, Note_on_c, 7, 55, 127
1, 213224, Note_on_c, 3, 75, 127
1, 213483, Note_off_c, 3, 75, 127
1, 213483, Note_off_c, 7, 55, 127
1, 213483, Note_off_c, 11, 46, 127
1, 213486, Note_on_c, 2, 74, 127
1, 213486, Note_on_c, 0, 48, 127
1, 213745, Note_off_c, 2, 74, 127
1, 213748, Note_on_c, 0, 72, 127
1, 214007, Note_off_c, 0, 72, 127
1, 214007, Note_off_c, 0, 48, 127
1, 214010, Note_on_c, 11, 70, 127
1, 214010, Note_on_c, 2, 50, 127
1, 214531, Note_off_c, 2, 50, 127
1, 214531, Note_off_c, 11, 70, 127
1, 214531, Note_off_c, 7, 67, 127
1, 214534, Note_on_c, 6, 66, 127
1, 214534, Note_on_c, 11, 70, 127
1, 214534, Note_on_c, 2, 38, 127
1, 214632, Note_on_c, 10, 69, 127
1, 214643, Note_off_c, 11, 70, 127
1, 214730, Note_on_c, 11, 70, 127
1, 214741, Note_off_c, 10, 69, 127
1, 214793, Note_off_c, 6, 66, 127
1, 214828, Note_on_c, 10, 69, 127
1, 214839, Note_off_c, 11, 70, 127
1, 214937, Note_off_c, 10, 69, 127
1, 214958, Note_on_c, 7, 67, 127
1, 215051, Note_off_c, 2, 38, 127
1, 215067, Note_off_c, 7, 67, 127
1, 215088, Note_on_c, 7, 67, 127
1, 215088, Note_on_c, 7, 43, 127
1, 215329, Note_off_c, 7, 67, 127
1, 215330, Note_on_c, 7, 67, 127
1, 215571, Note_off_c, 7, 67, 127
1, 215572, Note_on_c, 7, 67, 127
1, 215813, Note_off_c, 7, 67, 127
1, 215813, Note_off_c, 7, 43, 127
1, 215814, Note_on_c, 10, 69, 127
1, 216055, Note_off_c, 10, 69, 127
1, 216056, Note_on_c, 11, 70, 127
1, 216297, Note_off_c, 11, 70, 127
1, 216298, Note_on_c, 7, 67, 127
1, 216539, Note_off_c, 7, 67, 127
1, 216540, Note_on_c, 11, 70, 127
1, 216781, Note_off_c, 11, 70, 127
1, 216782, Note_on_c, 0, 72, 127
1, 217023, Note_off_c, 0, 72, 127
1, 217024, Note_on_c, 2, 74, 127
1, 217265, Note_off_c, 2, 74, 127
1, 217266, Note_on_c, 2, 74, 127
1, 217266, Note_on_c, 2, 62, 127
1, 217386, Note_off_c, 2, 74, 127
1, 217387, Note_on_c, 3, 75, 127
1, 217506, Note_off_c, 2, 62, 127
1, 217507, Note_off_c, 3, 75, 127
1, 217508, Note_on_c, 2, 62, 127
1, 217508, Note_on_c, 2, 74, 127
1, 217628, Note_off_c, 2, 74, 127
1, 217629, Note_on_c, 0, 72, 127
1, 217748, Note_off_c, 2, 62, 127
1, 217749, Note_off_c, 0, 72, 127
1, 217750, Note_on_c, 2, 62, 127
1, 217750, Note_on_c, 11, 70, 127
1, 217870, Note_off_c, 11, 70, 127
1, 217871, Note_on_c, 10, 69, 127
1, 217990, Note_off_c, 2, 62, 127
1, 217991, Note_off_c, 10, 69, 127
1, 217992, Note_on_c, 4, 64, 127
1, 217992, Note_on_c, 7, 67, 127
1, 218233, Note_off_c, 7, 67, 127
1, 218233, Note_off_c, 4, 64, 127
1, 218234, Note_on_c, 2, 62, 127
1, 218234, Note_on_c, 10, 69, 127
1, 218354, Note_off_c, 10, 69, 127
1, 218355, Note_on_c, 11, 70, 127
1, 218474, Note_off_c, 2, 62, 127
1, 218475, Note_off_c, 11, 70, 127
1, 218476, Note_on_c, 0, 72, 127
1, 218476, Note_on_c, 4, 64, 127
1, 218717, Note_off_c, 4, 64, 127
1, 218717, Note_off_c, 0, 72, 127
1, 218718, Note_on_c, 6, 66, 127
1, 218718, Note_on_c, 0, 72, 127
1, 218959, Note_off_c, 0, 72, 127
1, 218959, Note_off_c, 6, 66, 127
1, 218960, Note_on_c, 7, 67, 127
1, 219081, Note_on_c, 0, 72, 127
1, 219200, Note_off_c, 7, 67, 127
1, 219201, Note_off_c, 0, 72, 127
1, 219202, Note_on_c, 11, 70, 127
1, 219202, Note_on_c, 2, 62, 127
1, 219202, Note_on_c, 7, 55, 127
1, 219322, Note_off_c, 7, 55, 127
1, 219322, Note_off_c, 11, 70, 127
1, 219323, Note_on_c, 10, 69, 127
1, 219323, Note_on_c, 5, 53, 127
1, 219442, Note_off_c, 2, 62, 127
1, 219443, Note_off_c, 5, 53, 127
1, 219443, Note_off_c, 10, 69, 127
1, 219444, Note_on_c, 7, 67, 127
1, 219444, Note_on_c, 11, 70, 127
1, 219444, Note_on_c, 3, 51, 127
1, 219564, Note_off_c, 3, 51, 127
1, 219565, Note_on_c, 2, 50, 127
1, 219685, Note_off_c, 2, 50, 127
1, 219685, Note_off_c, 11, 70, 127
1, 219685, Note_off_c, 7, 67, 127
1, 219686, Note_on_c, 7, 67, 127
1, 219686, Note_on_c, 11, 70, 127
1, 219686, Note_on_c, 0, 48, 127
1, 219806, Note_off_c, 0, 48, 127
1, 219807, Note_on_c, 11, 46, 127
1, 219927, Note_off_c, 11, 46, 127
1, 219927, Note_off_c, 11, 70, 127
1, 219927, Note_off_c, 7, 67, 127
1, 219928, Note_on_c, 10, 69, 127
1, 219928, Note_on_c, 0, 48, 127
1, 220049, Note_on_c, 7, 67, 127
1, 220169, Note_off_c, 7, 67, 127
1, 220169, Note_off_c, 0, 48, 127
1, 220170, Note_on_c, 6, 66, 127
1, 220170, Note_on_c, 10, 45, 127
1, 220290, Note_off_c, 6, 66, 127
1, 220291, Note_on_c, 4, 64, 127
1, 220407, Note_off_c, 10, 69, 127
1, 220411, Note_off_c, 4, 64, 127
1, 220411, Note_off_c, 10, 45, 127
1, 220412, Note_on_c, 6, 66, 127
1, 220412, Note_on_c, 2, 50, 127
1, 220533, Note_on_c, 3, 75, 127
1, 220653, Note_off_c, 3, 75, 127
1, 220653, Note_off_c, 2, 50, 127
1, 220654, Note_on_c, 2, 74, 127
1, 220654, Note_on_c, 2, 38, 127
1, 220774, Note_off_c, 2, 74, 127
1, 220775, Note_on_c, 0, 72, 127
1, 220891, Note_off_c, 6, 66, 127
1, 220895, Note_off_c, 0, 72, 127
1, 220895, Note_off_c, 2, 38, 127
1, 220896, Note_on_c, 7, 67, 127
1, 220896, Note_on_c, 11, 70, 127
1, 220896, Note_on_c, 7, 43, 127
1, 221016, Note_off_c, 11, 70, 127
1, 221017, Note_on_c, 2, 74, 127
1, 221136, Note_off_c, 7, 67, 127
1, 221137, Note_off_c, 2, 74, 127
1, 221137, Note_off_c, 7, 43, 127
1, 221138, Note_on_c, 7, 79, 127
1, 221138, Note_on_c, 11, 46, 127
1, 221258, Note_off_c, 7, 79, 127
1, 221259, Note_on_c, 5, 77, 127
1, 221379, Note_off_c, 5, 77, 127
1, 221379, Note_off_c, 11, 46, 127
1, 221380, Note_on_c, 3, 75, 127
1, 221380, Note_on_c, 0, 48, 127
1, 221500, Note_off_c, 3, 75, 127
1, 221501, Note_on_c, 2, 74, 127
1, 221621, Note_off_c, 2, 74, 127
1, 221621, Note_off_c, 0, 48, 127
1, 221622, Note_on_c, 0, 72, 127
1, 221622, Note_on_c, 3, 51, 127
1, 221742, Note_off_c, 0, 72, 127
1, 221743, Note_on_c, 11, 70, 127
1, 221863, Note_off_c, 11, 70, 127
1, 221863, Note_off_c, 3, 51, 127
1, 221864, Note_on_c, 10, 69, 127
1, 221864, Note_on_c, 5, 53, 127
1, 221984, Note_off_c, 10, 69, 127
1, 221985, Note_on_c, 0, 72, 127
1, 222105, Note_off_c, 0, 72, 127
1, 222105, Note_off_c, 5, 53, 127
1, 222106, Note_on_c, 5, 77, 127
1, 222106, Note_on_c, 10, 45, 127
1, 222226, Note_off_c, 5, 77, 127
1, 222227, Note_on_c, 3, 75, 127
1, 222347, Note_off_c, 3, 75, 127
1, 222347, Note_off_c, 10, 45, 127
1, 222348, Note_on_c, 2, 74, 127
1, 222348, Note_on_c, 11, 46, 127
1, 222468, Note_off_c, 2, 74, 127
1, 222469, Note_on_c, 0, 72, 127
1, 222589, Note_off_c, 0, 72, 127
1, 222589, Note_off_c, 11, 46, 127
1, 222590, Note_on_c, 11, 70, 127
1, 222590, Note_on_c, 2, 50, 127
1, 222710, Note_off_c, 11, 70, 127
1, 222711, Note_on_c, 10, 69, 127
1, 222831, Note_off_c, 10, 69, 127
1, 222831, Note_off_c, 2, 50, 127
1, 222832, Note_on_c, 7, 67, 127
1, 222832, Note_on_c, 3, 51, 127
1, 222952, Note_off_c, 7, 67, 127
1, 222953, Note_on_c, 11, 70, 127
1, 223073, Note_off_c, 11, 70, 127
1, 223073, Note_off_c, 3, 51, 127
1, 223074, Note_on_c, 3, 75, 127
1, 223074, Note_on_c, 7, 43, 127
1, 223194, Note_off_c, 3, 75, 127
1, 223195, Note_on_c, 2, 74, 127
1, 223315, Note_off_c, 2, 74, 127
1, 223315, Note_off_c, 7, 43, 127
1, 223316, Note_on_c, 0, 72, 127
1, 223316, Note_on_c, 10, 45, 127
1, 223436, Note_off_c, 0, 72, 127
1, 223437, Note_on_c, 11, 70, 127
1, 223557, Note_off_c, 11, 70, 127
1, 223557, Note_off_c, 10, 45, 127
1, 223558, Note_on_c, 10, 69, 127
1, 223558, Note_on_c, 0, 48, 127
1, 223678, Note_off_c, 10, 69, 127
1, 223679, Note_on_c, 7, 67, 127
1, 223799, Note_off_c, 7, 67, 127
1, 223799, Note_off_c, 0, 48, 127
1, 223800, Note_on_c, 5, 65, 127
1, 223800, Note_on_c, 2, 50, 127
1, 223920, Note_off_c, 5, 65, 127
1, 223921, Note_on_c, 10, 69, 127
1, 224041, Note_off_c, 10, 69, 127
1, 224041, Note_off_c, 2, 50, 127
1, 224042, Note_on_c, 2, 74, 127
1, 224042, Note_on_c, 5, 41, 127
1, 224162, Note_off_c, 2, 74, 127
1, 224163, Note_on_c, 0, 72, 127
1, 224283, Note_off_c, 0, 72, 127
1, 224283, Note_off_c, 5, 41, 127
1, 224284, Note_on_c, 11, 70, 127
1, 224284, Note_on_c, 7, 43, 127
1, 224404, Note_off_c, 11, 70, 127
1, 224405, Note_on_c, 10, 69, 127
1, 224525, Note_off_c, 10, 69, 127
1, 224525, Note_off_c, 7, 43, 127
1, 224526, Note_on_c, 7, 67, 127
1, 224526, Note_on_c, 11, 46, 127
1, 224646, Note_off_c, 7, 67, 127
1, 224647, Note_on_c, 5, 65, 127
1, 224767, Note_off_c, 5, 65, 127
1, 224767, Note_off_c, 11, 46, 127
1, 224768, Note_on_c, 3, 63, 127
1, 224768, Note_on_c, 0, 48, 127
1, 224888, Note_off_c, 3, 63, 127
1, 224889, Note_on_c, 7, 67, 127
1, 225009, Note_off_c, 7, 67, 127
1, 225009, Note_off_c, 0, 48, 127
1, 225010, Note_on_c, 0, 72, 127
1, 225010, Note_on_c, 3, 39, 127
1, 225130, Note_off_c, 0, 72, 127
1, 225131, Note_on_c, 11, 70, 127
1, 225251, Note_off_c, 11, 70, 127
1, 225251, Note_off_c, 3, 39, 127
1, 225252, Note_on_c, 10, 69, 127
1, 225252, Note_on_c, 5, 41, 127
1, 225372, Note_off_c, 10, 69, 127
1, 225373, Note_on_c, 7, 67, 127
1, 225493, Note_off_c, 7, 67, 127
1, 225493, Note_off_c, 5, 41, 127
1, 225494, Note_on_c, 5, 65, 127
1, 225494, Note_on_c, 10, 45, 127
1, 225614, Note_off_c, 5, 65, 127
1, 225615, Note_on_c, 3, 63, 127
1, 225735, Note_off_c, 3, 63, 127
1, 225735, Note_off_c, 10, 45, 127
1, 225736, Note_on_c, 2, 62, 127
1, 225736, Note_on_c, 11, 46, 127
1, 225856, Note_off_c, 2, 62, 127
1, 225857, Note_on_c, 5, 65, 127
1, 225977, Note_off_c, 5, 65, 127
1, 225977, Note_off_c, 11, 46, 127
1, 225978, Note_on_c, 7, 67, 127
1, 225978, Note_on_c, 11, 58, 127
1, 226098, Note_off_c, 11, 58, 127
1, 226098, Note_off_c, 7, 67, 127
1, 226099, Note_on_c, 10, 69, 127
1, 226099, Note_on_c, 10, 57, 127
1, 226219, Note_off_c, 10, 57, 127
1, 226219, Note_off_c, 10, 69, 127
1, 226220, Note_on_c, 11, 70, 127
1, 226220, Note_on_c, 7, 55, 127
1, 226340, Note_off_c, 7, 55, 127
1, 226341, Note_on_c, 5, 53, 127
1, 226461, Note_off_c, 5, 53, 127
1, 226461, Note_off_c, 11, 70, 127
1, 226462, Note_on_c, 11, 58, 127
1, 226462, Note_on_c, 11, 70, 127
1, 226462, Note_on_c, 3, 51, 127
1, 226582, Note_off_c, 3, 51, 127
1, 226583, Note_on_c, 2, 50, 127
1, 226703, Note_off_c, 2, 50, 127
1, 226703, Note_off_c, 11, 58, 127
1, 226704, Note_on_c, 0, 60, 127
1, 226704, Note_on_c, 0, 48, 127
1, 226815, Note_off_c, 11, 70, 127
1, 226825, Note_on_c, 11, 70, 127
1, 226931, Note_off_c, 0, 60, 127
1, 226945, Note_off_c, 0, 48, 127
1, 226946, Note_on_c, 11, 58, 127
1, 226946, Note_on_c, 3, 51, 127
1, 227065, Note_off_c, 11, 70, 127
1, 227066, Note_off_c, 3, 51, 127
1, 227067, Note_on_c, 11, 70, 127
1, 227067, Note_on_c, 2, 50, 127
1, 227173, Note_off_c, 11, 58, 127
1, 227187, Note_off_c, 2, 50, 127
1, 227188, Note_on_c, 0, 60, 127
1, 227188, Note_on_c, 0, 48, 127
1, 227307, Note_off_c, 11, 70, 127
1, 227308, Note_off_c, 0, 48, 127
1, 227309, Note_on_c, 11, 70, 127
1, 227309, Note_on_c, 11, 46, 127
1, 227415, Note_off_c, 0, 60, 127
1, 227429, Note_off_c, 11, 46, 127
1, 227430, Note_on_c, 2, 62, 127
1, 227430, Note_on_c, 10, 45, 127
1, 227549, Note_off_c, 11, 70, 127
1, 227550, Note_off_c, 10, 45, 127
1, 227551, Note_on_c, 11, 70, 127
1, 227551, Note_on_c, 7, 43, 127
1, 227657, Note_off_c, 2, 62, 127
1, 227671, Note_off_c, 7, 43, 127
1, 227671, Note_off_c, 11, 70, 127
1, 227672, Note_on_c, 3, 63, 127
1, 227672, Note_on_c, 5, 41, 127
1, 227793, Note_on_c, 10, 69, 127
1, 227899, Note_off_c, 3, 63, 127
1, 227913, Note_off_c, 5, 41, 127
1, 227914, Note_on_c, 2, 62, 127
1, 227914, Note_on_c, 5, 53, 127
1, 228033, Note_off_c, 10, 69, 127
1, 228034, Note_off_c, 5, 53, 127
1, 228035, Note_on_c, 10, 69, 127
1, 228035, Note_on_c, 7, 55, 127
1, 228141, Note_off_c, 2, 62, 127
1, 228155, Note_off_c, 7, 55, 127
1, 228156, Note_on_c, 3, 63, 127
1, 228156, Note_on_c, 5, 53, 127
1, 228275, Note_off_c, 10, 69, 127
1, 228276, Note_off_c, 5, 53, 127
1, 228277, Note_on_c, 10, 69, 127
1, 228277, Note_on_c, 3, 51, 127
1, 228358, Note_off_c, 3, 63, 127
1, 228397, Note_off_c, 3, 51, 127
1, 228398, Note_on_c, 5, 65, 127
1, 228398, Note_on_c, 2, 50, 127
1, 228479, Note_off_c, 10, 69, 127
1, 228512, Note_off_c, 5, 65, 127
1, 228518, Note_off_c, 2, 50, 127
1, 228519, Note_on_c, 10, 69, 127
1, 228519, Note_on_c, 0, 48, 127
1, 228620, Note_off_c, 10, 69, 127
1, 228631, Note_off_c, 0, 48, 127
1, 228656, Note_on_c, 11, 46, 127
1, 228656, Note_on_c, 11, 58, 127
1, 228915, Note_on_c, 5, 77, 127
1, 229010, Note_off_c, 11, 58, 127
1, 229010, Note_off_c, 11, 46, 127
1, 229156, Note_off_c, 5, 77, 127
1, 229157, Note_on_c, 5, 77, 127
1, 229398, Note_off_c, 5, 77, 127
1, 229399, Note_on_c, 7, 79, 127
1, 229640, Note_off_c, 7, 79, 127
1, 229641, Note_on_c, 10, 81, 127
1, 229882, Note_off_c, 10, 81, 127
1, 229883, Note_on_c, 5, 77, 127
1, 229883, Note_on_c, 11, 46, 127
1, 230124, Note_off_c, 11, 46, 127
1, 230124, Note_off_c, 5, 77, 127
1, 230125, Note_on_c, 7, 79, 127
1, 230125, Note_on_c, 11, 46, 127
1, 230366, Note_off_c, 11, 46, 127
1, 230366, Note_off_c, 7, 79, 127
1, 230367, Note_on_c, 10, 81, 127
1, 230367, Note_on_c, 0, 48, 127
1, 230608, Note_off_c, 0, 48, 127
1, 230608, Note_off_c, 10, 81, 127
1, 230609, Note_on_c, 11, 82, 127
1, 230609, Note_on_c, 2, 50, 127
1, 230729, Note_off_c, 11, 82, 127
1, 230730, Note_on_c, 5, 77, 127
1, 230850, Note_off_c, 5, 77, 127
1, 230850, Note_off_c, 2, 50, 127
1, 230851, Note_on_c, 7, 79, 127
1, 230851, Note_on_c, 11, 46, 127
1, 230971, Note_off_c, 7, 79, 127
1, 230972, Note_on_c, 10, 81, 127
1, 231092, Note_off_c, 10, 81, 127
1, 231092, Note_off_c, 11, 46, 127
1, 231093, Note_on_c, 11, 82, 127
1, 231093, Note_on_c, 2, 50, 127
1, 231213, Note_off_c, 11, 82, 127
1, 231214, Note_on_c, 5, 77, 127
1, 231334, Note_off_c, 5, 77, 127
1, 231334, Note_off_c, 2, 50, 127
1, 231335, Note_on_c, 3, 75, 127
1, 231335, Note_on_c, 3, 51, 127
1, 231455, Note_off_c, 3, 75, 127
1, 231456, Note_on_c, 2, 74, 127
1, 231576, Note_off_c, 2, 74, 127
1, 231576, Note_off_c, 3, 51, 127
1, 231577, Note_on_c, 0, 72, 127
1, 231577, Note_on_c, 5, 53, 127
1, 231697, Note_off_c, 0, 72, 127
1, 231698, Note_on_c, 11, 82, 127
1, 231818, Note_off_c, 11, 82, 127
1, 231819, Note_on_c, 10, 81, 127
1, 231939, Note_off_c, 10, 81, 127
1, 231940, Note_on_c, 7, 79, 127
1, 232056, Note_off_c, 5, 53, 127
1, 232060, Note_off_c, 7, 79, 127
1, 232061, Note_on_c, 10, 81, 127
1, 232181, Note_off_c, 10, 81, 127
1, 232182, Note_on_c, 0, 72, 127
1, 232182, Note_on_c, 6, 54, 127
1, 232302, Note_off_c, 6, 54, 127
1, 232302, Note_off_c, 0, 72, 127
1, 232303, Note_on_c, 10, 81, 127
1, 232303, Note_on_c, 4, 52, 127
1, 232423, Note_off_c, 4, 52, 127
1, 232423, Note_off_c, 10, 81, 127
1, 232424, Note_on_c, 0, 72, 127
1, 232424, Note_on_c, 2, 50, 127
1, 232544, Note_off_c, 2, 50, 127
1, 232544, Note_off_c, 0, 72, 127
1, 232545, Note_on_c, 11, 70, 127
1, 232545, Note_on_c, 7, 55, 127
1, 232665, Note_off_c, 11, 70, 127
1, 232666, Note_on_c, 10, 81, 127
1, 232786, Note_off_c, 10, 81, 127
1, 232787, Note_on_c, 7, 79, 127
1, 232907, Note_off_c, 7, 79, 127
1, 232908, Note_on_c, 6, 78, 127
1, 233024, Note_off_c, 7, 55, 127
1, 233028, Note_off_c, 6, 78, 127
1, 233029, Note_on_c, 7, 79, 127
1, 233149, Note_off_c, 7, 79, 127
1, 233150, Note_on_c, 11, 70, 127
1, 233150, Note_on_c, 11, 46, 127
1, 233270, Note_off_c, 11, 46, 127
1, 233270, Note_off_c, 11, 70, 127
1, 233271, Note_on_c, 7, 79, 127
1, 233271, Note_on_c, 10, 45, 127
1, 233391, Note_off_c, 10, 45, 127
1, 233391, Note_off_c, 7, 79, 127
1, 233392, Note_on_c, 11, 70, 127
1, 233392, Note_on_c, 7, 43, 127
1, 233512, Note_off_c, 7, 43, 127
1, 233512, Note_off_c, 11, 70, 127
1, 233513, Note_on_c, 10, 69, 127
1, 233513, Note_on_c, 2, 50, 127
1, 233633, Note_off_c, 10, 69, 127
1, 233634, Note_on_c, 7, 79, 127
1, 233754, Note_off_c, 7, 79, 127
1, 233755, Note_on_c, 5, 77, 127
1, 233875, Note_off_c, 5, 77, 127
1, 233876, Note_on_c, 4, 76, 127
1, 233992, Note_off_c, 2, 50, 127
1, 233996, Note_off_c, 4, 76, 127
1, 233997, Note_on_c, 5, 77, 127
1, 234117, Note_off_c, 5, 77, 127
1, 234118, Note_on_c, 10, 69, 127
1, 234118, Note_on_c, 3, 51, 127
1, 234238, Note_off_c, 3, 51, 127
1, 234238, Note_off_c, 10, 69, 127
1, 234239, Note_on_c, 11, 70, 127
1, 234239, Note_on_c, 2, 50, 127
1, 234359, Note_off_c, 2, 50, 127
1, 234359, Note_off_c, 11, 70, 127
1, 234360, Note_on_c, 0, 72, 127
1, 234360, Note_on_c, 0, 48, 127
1, 234480, Note_off_c, 0, 48, 127
1, 234480, Note_off_c, 0, 72, 127
1, 234481, Note_on_c, 2, 74, 127
1, 234481, Note_on_c, 11, 46, 127
1, 234601, Note_off_c, 11, 46, 127
1, 234602, Note_on_c, 11, 82, 127
1, 234602, Note_on_c, 10, 45, 127
1, 234632, Note_off_c, 2, 74, 127
1, 234722, Note_off_c, 10, 45, 127
1, 234722, Note_off_c, 11, 82, 127
1, 234723, Note_on_c, 0, 72, 127
1, 234723, Note_on_c, 11, 46, 127
1, 234843, Note_off_c, 11, 46, 127
1, 234844, Note_on_c, 10, 81, 127
1, 234844, Note_on_c, 0, 48, 127
1, 234874, Note_off_c, 0, 72, 127
1, 234964, Note_off_c, 0, 48, 127
1, 234964, Note_off_c, 10, 81, 127
1, 234965, Note_on_c, 11, 70, 127
1, 234965, Note_on_c, 2, 50, 127
1, 235085, Note_off_c, 2, 50, 127
1, 235086, Note_on_c, 7, 79, 127
1, 235086, Note_on_c, 0, 48, 127
1, 235116, Note_off_c, 11, 70, 127
1, 235206, Note_off_c, 0, 48, 127
1, 235206, Note_off_c, 7, 79, 127
1, 235207, Note_on_c, 10, 69, 127
1, 235207, Note_on_c, 2, 50, 127
1, 235327, Note_off_c, 2, 50, 127
1, 235328, Note_on_c, 5, 77, 127
1, 235328, Note_on_c, 11, 46, 127
1, 235358, Note_off_c, 10, 69, 127
1, 235448, Note_off_c, 11, 46, 127
1, 235448, Note_off_c, 5, 77, 127
1, 235449, Note_on_c, 7, 67, 127
1, 235449, Note_on_c, 0, 48, 127
1, 235569, Note_off_c, 0, 48, 127
1, 235570, Note_on_c, 11, 70, 127
1, 235570, Note_on_c, 11, 46, 127
1, 235689, Note_off_c, 7, 67, 127
1, 235690, Note_off_c, 11, 46, 127
1, 235690, Note_off_c, 11, 70, 127
1, 235691, Note_on_c, 5, 77, 127
1, 235691, Note_on_c, 10, 45, 127
1, 235811, Note_off_c, 10, 45, 127
1, 235811, Note_off_c, 5, 77, 127
1, 235812, Note_on_c, 11, 70, 127
1, 235812, Note_on_c, 11, 46, 127
1, 235932, Note_off_c, 11, 46, 127
1, 235932, Note_off_c, 11, 70, 127
1, 235933, Note_on_c, 7, 67, 127
1, 235933, Note_on_c, 0, 48, 127
1, 236053, Note_off_c, 0, 48, 127
1, 236054, Note_on_c, 11, 70, 127
1, 236054, Note_on_c, 11, 46, 127
1, 236173, Note_off_c, 7, 67, 127
1, 236174, Note_off_c, 11, 46, 127
1, 236174, Note_off_c, 11, 70, 127
1, 236175, Note_on_c, 4, 76, 127
1, 236175, Note_on_c, 0, 48, 127
1, 236295, Note_off_c, 0, 48, 127
1, 236295, Note_off_c, 4, 76, 127
1, 236296, Note_on_c, 11, 70, 127
1, 236296, Note_on_c, 0, 36, 127
1, 236416, Note_off_c, 0, 36, 127
1, 236416, Note_off_c, 11, 70, 127
1, 236417, Note_on_c, 5, 77, 127
1, 236417, Note_on_c, 5, 41, 127
1, 236538, Note_on_c, 0, 72, 127
1, 236575, Note_off_c, 5, 77, 127
1, 236660, Note_on_c, 10, 69, 127
1, 236697, Note_off_c, 0, 72, 127
1, 236772, Note_off_c, 5, 41, 127
1, 236782, Note_on_c, 5, 65, 127
1, 236819, Note_off_c, 10, 69, 127
1, 236904, Note_on_c, 10, 69, 127
1, 236904, Note_on_c, 5, 53, 127
1, 236941, Note_off_c, 5, 65, 127
1, 237026, Note_on_c, 5, 77, 127
1, 237063, Note_off_c, 10, 69, 127
1, 237148, Note_on_c, 10, 69, 127
1, 237185, Note_off_c, 5, 77, 127
1, 237260, Note_off_c, 5, 53, 127
1, 237270, Note_on_c, 5, 77, 127
1, 237307, Note_off_c, 10, 69, 127
1, 237392, Note_on_c, 11, 70, 127
1, 237392, Note_on_c, 7, 55, 127
1, 237429, Note_off_c, 5, 77, 127
1, 237514, Note_on_c, 5, 77, 127
1, 237551, Note_off_c, 11, 70, 127
1, 237636, Note_on_c, 11, 70, 127
1, 237673, Note_off_c, 5, 77, 127
1, 237748, Note_off_c, 7, 55, 127
1, 237758, Note_on_c, 5, 77, 127
1, 237795, Note_off_c, 11, 70, 127
1, 237880, Note_on_c, 11, 70, 127
1, 237880, Note_on_c, 7, 43, 127
1, 237917, Note_off_c, 5, 77, 127
1, 238002, Note_on_c, 5, 77, 127
1, 238039, Note_off_c, 11, 70, 127
1, 238124, Note_on_c, 11, 70, 127
1, 238161, Note_off_c, 5, 77, 127
1, 238236, Note_off_c, 7, 43, 127
1, 238246, Note_on_c, 5, 77, 127
1, 238283, Note_off_c, 11, 70, 127
1, 238368, Note_on_c, 0, 72, 127
1, 238368, Note_on_c, 10, 45, 127
1, 238405, Note_off_c, 5, 77, 127
1, 238490, Note_on_c, 5, 77, 127
1, 238527, Note_off_c, 0, 72, 127
1, 238612, Note_on_c, 0, 72, 127
1, 238649, Note_off_c, 5, 77, 127
1, 238724, Note_off_c, 10, 45, 127
1, 238734, Note_on_c, 5, 77, 127
1, 238771, Note_off_c, 0, 72, 127
1, 238856, Note_on_c, 0, 72, 127
1, 238856, Note_on_c, 10, 57, 127
1, 238893, Note_off_c, 5, 77, 127
1, 238978, Note_on_c, 5, 77, 127
1, 239015, Note_off_c, 0, 72, 127
1, 239100, Note_on_c, 0, 72, 127
1, 239137, Note_off_c, 5, 77, 127
1, 239212, Note_off_c, 10, 57, 127
1, 239222, Note_on_c, 5, 77, 127
1, 239259, Note_off_c, 0, 72, 127
1, 239344, Note_on_c, 2, 74, 127
1, 239344, Note_on_c, 11, 58, 127
1, 239381, Note_off_c, 5, 77, 127
1, 239466, Note_on_c, 5, 77, 127
1, 239503, Note_off_c, 2, 74, 127
1, 239588, Note_on_c, 2, 74, 127
1, 239625, Note_off_c, 5, 77, 127
1, 239700, Note_off_c, 11, 58, 127
1, 239710, Note_on_c, 5, 77, 127
1, 239747, Note_off_c, 2, 74, 127
1, 239832, Note_on_c, 2, 74, 127
1, 239832, Note_on_c, 11, 46, 127
1, 239869, Note_off_c, 5, 77, 127
1, 239954, Note_on_c, 5, 77, 127
1, 239991, Note_off_c, 2, 74, 127
1, 240076, Note_on_c, 2, 74, 127
1, 240113, Note_off_c, 5, 77, 127
1, 240188, Note_off_c, 11, 46, 127
1, 240198, Note_on_c, 5, 77, 127
1, 240235, Note_off_c, 2, 74, 127
1, 240318, Note_off_c, 5, 77, 127
1, 240319, Note_on_c, 2, 74, 127
1, 240319, Note_on_c, 12, 59, 127
1, 240440, Note_on_c, 7, 79, 127
1, 240477, Note_off_c, 2, 74, 127
1, 240562, Note_on_c, 2, 74, 127
1, 240599, Note_off_c, 7, 79, 127
1, 240674, Note_off_c, 12, 59, 127
1, 240684, Note_on_c, 7, 79, 127
1, 240721, Note_off_c, 2, 74, 127
1, 240806, Note_on_c, 2, 74, 127
1, 240806, Note_on_c, 12, 47, 127
1, 240843, Note_off_c, 7, 79, 127
1, 240928, Note_on_c, 7, 79, 127
1, 240965, Note_off_c, 2, 74, 127
1, 241050, Note_on_c, 2, 74, 127
1, 241087, Note_off_c, 7, 79, 127
1, 241162, Note_off_c, 12, 47, 127
1, 241172, Note_on_c, 7, 79, 127
1, 241209, Note_off_c, 2, 74, 127
1, 241294, Note_on_c, 4, 76, 127
1, 241294, Note_on_c, 0, 60, 127
1, 241331, Note_off_c, 7, 79, 127
1, 241416, Note_on_c, 7, 79, 127
1, 241453, Note_off_c, 4, 76, 127
1, 241538, Note_on_c, 4, 76, 127
1, 241575, Note_off_c, 7, 79, 127
1, 241650, Note_off_c, 0, 60, 127
1, 241660, Note_on_c, 7, 79, 127
1, 241697, Note_off_c, 4, 76, 127
1, 241782, Note_on_c, 4, 76, 127
1, 241782, Note_on_c, 0, 48, 127
1, 241819, Note_off_c, 7, 79, 127
1, 241904, Note_on_c, 7, 79, 127
1, 241941, Note_off_c, 4, 76, 127
1, 242026, Note_on_c, 4, 76, 127
1, 242063, Note_off_c, 7, 79, 127
1, 242138, Note_off_c, 0, 48, 127
1, 242148, Note_on_c, 7, 79, 127
1, 242185, Note_off_c, 4, 76, 127
1, 242268, Note_off_c, 7, 79, 127
1, 242269, Note_on_c, 0, 72, 127
1, 242269, Note_on_c, 10, 57, 127
1, 242390, Note_on_c, 5, 77, 127
1, 242427, Note_off_c, 0, 72, 127
1, 242512, Note_on_c, 0, 72, 127
1, 242549, Note_off_c, 5, 77, 127
1, 242624, Note_off_c, 10, 57, 127
1, 242634, Note_on_c, 5, 77, 127
1, 242671, Note_off_c, 0, 72, 127
1, 242756, Note_on_c, 0, 72, 127
1, 242756, Note_on_c, 10, 45, 127
1, 242793, Note_off_c, 5, 77, 127
1, 242878, Note_on_c, 5, 77, 127
1, 242915, Note_off_c, 0, 72, 127
1, 243000, Note_on_c, 0, 72, 127
1, 243037, Note_off_c, 5, 77, 127
1, 243112, Note_off_c, 10, 45, 127
1, 243122, Note_on_c, 5, 77, 127
1, 243159, Note_off_c, 0, 72, 127
1, 243244, Note_on_c, 2, 74, 127
1, 243244, Note_on_c, 11, 58, 127
1, 243281, Note_off_c, 5, 77, 127
1, 243366, Note_on_c, 5, 77, 127
1, 243403, Note_off_c, 2, 74, 127
1, 243488, Note_on_c, 0, 72, 127
1, 243525, Note_off_c, 5, 77, 127
1, 243600, Note_off_c, 11, 58, 127
1, 243610, Note_on_c, 5, 77, 127
1, 243647, Note_off_c, 0, 72, 127
1, 243732, Note_on_c, 11, 70, 127
1, 243732, Note_on_c, 11, 46, 127
1, 243769, Note_off_c, 5, 77, 127
1, 243854, Note_on_c, 5, 77, 127
1, 243891, Note_off_c, 11, 70, 127
1, 243976, Note_on_c, 10, 69, 127
1, 244013, Note_off_c, 5, 77, 127
1, 244088, Note_off_c, 11, 46, 127
1, 244098, Note_on_c, 5, 77, 127
1, 244135, Note_off_c, 10, 69, 127
1, 244220, Note_on_c, 7, 67, 127
1, 244220, Note_on_c, 0, 60, 127
1, 244257, Note_off_c, 5, 77, 127
1, 244342, Note_on_c, 5, 77, 127
1, 244379, Note_off_c, 7, 67, 127
1, 244464, Note_on_c, 10, 69, 127
1, 244501, Note_off_c, 5, 77, 127
1, 244576, Note_off_c, 0, 60, 127
1, 244586, Note_on_c, 5, 77, 127
1, 244623, Note_off_c, 10, 69, 127
1, 244706, Note_off_c, 5, 77, 127
1, 244707, Note_on_c, 11, 70, 127
1, 244707, Note_on_c, 0, 48, 127
1, 244828, Note_on_c, 4, 76, 127
1, 244865, Note_off_c, 11, 70, 127
1, 244950, Note_on_c, 0, 72, 127
1, 244987, Note_off_c, 4, 76, 127
1, 245062, Note_off_c, 0, 48, 127
1, 245072, Note_on_c, 4, 76, 127
1, 245109, Note_off_c, 0, 72, 127
1, 245194, Note_on_c, 5, 65, 127
1, 245194, Note_on_c, 5, 53, 127
1, 245231, Note_off_c, 4, 76, 127
1, 245436, Note_off_c, 5, 65, 127
1, 245453, Note_on_c, 5, 77, 127
1, 245674, Note_off_c, 5, 53, 127
1, 245694, Note_off_c, 5, 77, 127
1, 245695, Note_on_c, 5, 77, 127
1, 245936, Note_off_c, 5, 77, 127
1, 245937, Note_on_c, 7, 79, 127
1, 246178, Note_off_c, 7, 79, 127
1, 246179, Note_on_c, 10, 81, 127
1, 246420, Note_off_c, 10, 81, 127
1, 246421, Note_on_c, 5, 53, 127
1, 246421, Note_on_c, 5, 77, 127
1, 246662, Note_off_c, 5, 77, 127
1, 246662, Note_off_c, 5, 53, 127
1, 246663, Note_on_c, 5, 53, 127
1, 246663, Note_on_c, 10, 81, 127
1, 246904, Note_off_c, 10, 81, 127
1, 246904, Note_off_c, 5, 53, 127
1, 246905, Note_on_c, 7, 55, 127
1, 246905, Note_on_c, 11, 82, 127
1, 247146, Note_off_c, 11, 82, 127
1, 247146, Note_off_c, 7, 55, 127
1, 247147, Note_on_c, 10, 57, 127
1, 247147, Note_on_c, 0, 84, 127
1, 247267, Note_off_c, 0, 84, 127
1, 247268, Note_on_c, 11, 82, 127
1, 247388, Note_off_c, 11, 82, 127
1, 247388, Note_off_c, 10, 57, 127
1, 247389, Note_on_c, 5, 53, 127
1, 247389, Note_on_c, 10, 81, 127
1, 247509, Note_off_c, 10, 81, 127
1, 247510, Note_on_c, 11, 82, 127
1, 247630, Note_off_c, 11, 82, 127
1, 247630, Note_off_c, 5, 53, 127
1, 247631, Note_on_c, 7, 55, 127
1, 247631, Note_on_c, 0, 84, 127
1, 247751, Note_off_c, 0, 84, 127
1, 247752, Note_on_c, 7, 79, 127
1, 247872, Note_off_c, 7, 79, 127
1, 247872, Note_off_c, 7, 55, 127
1, 247873, Note_on_c, 10, 57, 127
1, 247873, Note_on_c, 5, 77, 127
1, 247993, Note_off_c, 5, 77, 127
1, 247994, Note_on_c, 3, 75, 127
1, 248114, Note_off_c, 3, 75, 127
1, 248114, Note_off_c, 10, 57, 127
1, 248115, Note_on_c, 11, 58, 127
1, 248115, Note_on_c, 2, 74, 127
1, 248235, Note_off_c, 2, 74, 127
1, 248236, Note_on_c, 0, 84, 127
1, 248356, Note_off_c, 0, 84, 127
1, 248357, Note_on_c, 11, 82, 127
1, 248477, Note_off_c, 11, 82, 127
1, 248478, Note_on_c, 10, 81, 127
1, 248594, Note_off_c, 11, 58, 127
1, 248598, Note_off_c, 10, 81, 127
1, 248599, Note_on_c, 11, 82, 127
1, 248719, Note_off_c, 11, 82, 127
1, 248720, Note_on_c, 2, 50, 127
1, 248720, Note_on_c, 2, 74, 127
1, 248840, Note_off_c, 2, 74, 127
1, 248840, Note_off_c, 2, 50, 127
1, 248841, Note_on_c, 0, 48, 127
1, 248841, Note_on_c, 11, 82, 127
1, 248961, Note_off_c, 11, 82, 127
1, 248961, Note_off_c, 0, 48, 127
1, 248962, Note_on_c, 11, 46, 127
1, 248962, Note_on_c, 2, 74, 127
1, 249082, Note_off_c, 2, 74, 127
1, 249082, Note_off_c, 11, 46, 127
1, 249083, Note_on_c, 5, 53, 127
1, 249083, Note_on_c, 0, 72, 127
1, 249203, Note_off_c, 0, 72, 127
1, 249204, Note_on_c, 11, 82, 127
1, 249324, Note_off_c, 11, 82, 127
1, 249325, Note_on_c, 10, 81, 127
1, 249445, Note_off_c, 10, 81, 127
1, 249446, Note_on_c, 7, 79, 127
1, 249562, Note_off_c, 5, 53, 127
1, 249566, Note_off_c, 7, 79, 127
1, 249567, Note_on_c, 10, 81, 127
1, 249687, Note_off_c, 10, 81, 127
1, 249688, Note_on_c, 2, 50, 127
1, 249688, Note_on_c, 0, 72, 127
1, 249808, Note_off_c, 0, 72, 127
1, 249808, Note_off_c, 2, 50, 127
1, 249809, Note_on_c, 4, 52, 127
1, 249809, Note_on_c, 10, 81, 127
1, 249929, Note_off_c, 10, 81, 127
1, 249929, Note_off_c, 4, 52, 127
1, 249930, Note_on_c, 5, 53, 127
1, 249930, Note_on_c, 0, 72, 127
1, 250050, Note_off_c, 0, 72, 127
1, 250050, Note_off_c, 5, 53, 127
1, 250051, Note_on_c, 7, 55, 127
1, 250051, Note_on_c, 11, 70, 127
1, 250171, Note_off_c, 11, 70, 127
1, 250172, Note_on_c, 10, 81, 127
1, 250292, Note_off_c, 10, 81, 127
1, 250293, Note_on_c, 7, 79, 127
1, 250413, Note_off_c, 7, 79, 127
1, 250414, Note_on_c, 5, 77, 127
1, 250530, Note_off_c, 7, 55, 127
1, 250534, Note_off_c, 5, 77, 127
1, 250535, Note_on_c, 7, 79, 127
1, 250655, Note_off_c, 7, 79, 127
1, 250656, Note_on_c, 4, 52, 127
1, 250656, Note_on_c, 11, 70, 127
1, 250776, Note_off_c, 11, 70, 127
1, 250776, Note_off_c, 4, 52, 127
1, 250777, Note_on_c, 2, 50, 127
1, 250777, Note_on_c, 7, 79, 127
1, 250897, Note_off_c, 7, 79, 127
1, 250897, Note_off_c, 2, 50, 127
1, 250898, Note_on_c, 0, 48, 127
1, 250898, Note_on_c, 11, 70, 127
1, 251018, Note_off_c, 11, 70, 127
1, 251018, Note_off_c, 0, 48, 127
1, 251019, Note_on_c, 5, 53, 127
1, 251019, Note_on_c, 10, 69, 127
1, 251139, Note_off_c, 10, 69, 127
1, 251140, Note_on_c, 7, 79, 127
1, 251260, Note_off_c, 7, 79, 127
1, 251261, Note_on_c, 5, 77, 127
1, 251381, Note_off_c, 5, 77, 127
1, 251382, Note_on_c, 4, 76, 127
1, 251498, Note_off_c, 5, 53, 127
1, 251502, Note_off_c, 4, 76, 127
1, 251503, Note_on_c, 5, 77, 127
1, 251623, Note_off_c, 5, 77, 127
1, 251624, Note_on_c, 10, 45, 127
1, 251624, Note_on_c, 10, 69, 127
1, 251744, Note_off_c, 10, 69, 127
1, 251744, Note_off_c, 10, 45, 127
1, 251745, Note_on_c, 7, 43, 127
1, 251745, Note_on_c, 5, 77, 127
1, 251865, Note_off_c, 5, 77, 127
1, 251865, Note_off_c, 7, 43, 127
1, 251866, Note_on_c, 5, 41, 127
1, 251866, Note_on_c, 10, 69, 127
1, 251986, Note_off_c, 10, 69, 127
1, 251986, Note_off_c, 5, 41, 127
1, 251987, Note_on_c, 11, 46, 127
1, 251987, Note_on_c, 7, 67, 127
1, 252107, Note_off_c, 7, 67, 127
1, 252107, Note_off_c, 11, 46, 127
1, 252108, Note_on_c, 7, 43, 127
1, 252108, Note_on_c, 11, 70, 127
1, 252228, Note_off_c, 11, 70, 127
1, 252228, Note_off_c, 7, 43, 127
1, 252229, Note_on_c, 10, 45, 127
1, 252229, Note_on_c, 5, 77, 127
1, 252349, Note_off_c, 5, 77, 127
1, 252349, Note_off_c, 10, 45, 127
1, 252350, Note_on_c, 11, 46, 127
1, 252350, Note_on_c, 11, 70, 127
1, 252470, Note_off_c, 11, 70, 127
1, 252470, Note_off_c, 11, 46, 127
1, 252471, Note_on_c, 0, 48, 127
1, 252471, Note_on_c, 7, 67, 127
1, 252591, Note_off_c, 7, 67, 127
1, 252591, Note_off_c, 0, 48, 127
1, 252592, Note_on_c, 11, 46, 127
1, 252592, Note_on_c, 11, 70, 127
1, 252712, Note_off_c, 11, 70, 127
1, 252712, Note_off_c, 11, 46, 127
1, 252713, Note_on_c, 0, 48, 127
1, 252713, Note_on_c, 4, 76, 127
1, 252833, Note_off_c, 4, 76, 127
1, 252833, Note_off_c, 0, 48, 127
1, 252834, Note_on_c, 0, 36, 127
1, 252834, Note_on_c, 11, 70, 127
1, 252954, Note_off_c, 11, 70, 127
1, 252954, Note_off_c, 0, 36, 127
1, 252968, Note_on_c, 5, 41, 127
1, 252968, Note_on_c, 10, 69, 127
1, 253052, Note_off_c, 10, 69, 127
1, 253056, Note_on_c, 0, 72, 127
1, 253140, Note_off_c, 0, 72, 127
1, 253141, Note_on_c, 2, 74, 127
1, 253225, Note_off_c, 2, 74, 127
1, 253226, Note_on_c, 4, 76, 127
1, 253310, Note_off_c, 4, 76, 127
1, 253311, Note_on_c, 5, 77, 127
1, 253477, Note_off_c, 5, 41, 127
1, 253480, Note_off_c, 5, 77, 127
1, 253481, Note_on_c, 10, 69, 127
1, 253481, Note_on_c, 5, 53, 127
1, 253650, Note_off_c, 10, 69, 127
1, 253651, Note_on_c, 0, 72, 127
1, 253820, Note_off_c, 0, 72, 127
1, 253821, Note_on_c, 5, 77, 127
1, 253990, Note_off_c, 5, 77, 127
1, 253990, Note_off_c, 5, 53, 127
1, 253991, Note_on_c, 2, 74, 127
1, 253991, Note_on_c, 11, 46, 127
1, 254075, Note_off_c, 2, 74, 127
1, 254076, Note_on_c, 5, 77, 127
1, 254160, Note_off_c, 5, 77, 127
1, 254161, Note_on_c, 7, 79, 127
1, 254245, Note_off_c, 7, 79, 127
1, 254246, Note_on_c, 10, 81, 127
1, 254330, Note_off_c, 10, 81, 127
1, 254331, Note_on_c, 11, 82, 127
1, 254500, Note_off_c, 11, 82, 127
1, 254501, Note_on_c, 2, 74, 127
1, 254670, Note_off_c, 2, 74, 127
1, 254671, Note_on_c, 5, 77, 127
1, 254755, Note_off_c, 11, 46, 127
1, 254840, Note_off_c, 5, 77, 127
1, 254841, Note_on_c, 11, 82, 127
1, 255010, Note_off_c, 11, 82, 127
1, 255011, Note_on_c, 2, 74, 127
1, 255011, Note_on_c, 7, 43, 127
1, 255095, Note_off_c, 2, 74, 127
1, 255096, Note_on_c, 4, 76, 127
1, 255180, Note_off_c, 4, 76, 127
1, 255181, Note_on_c, 7, 79, 127
1, 255265, Note_off_c, 7, 79, 127
1, 255266, Note_on_c, 10, 81, 127
1, 255350, Note_off_c, 10, 81, 127
1, 255351, Note_on_c, 11, 82, 127
1, 255520, Note_off_c, 11, 82, 127
1, 255521, Note_on_c, 2, 74, 127
1, 255690, Note_off_c, 2, 74, 127
1, 255691, Note_on_c, 4, 76, 127
1, 255775, Note_off_c, 7, 43, 127
1, 255860, Note_off_c, 4, 76, 127
1, 255861, Note_on_c, 11, 82, 127
1, 256030, Note_off_c, 11, 82, 127
1, 256031, Note_on_c, 0, 72, 127
1, 256031, Note_on_c, 10, 45, 127
1, 256115, Note_off_c, 0, 72, 127
1, 256116, Note_on_c, 4, 76, 127
1, 256200, Note_off_c, 4, 76, 127
1, 256201, Note_on_c, 5, 77, 127
1, 256285, Note_off_c, 5, 77, 127
1, 256286, Note_on_c, 7, 79, 127
1, 256370, Note_off_c, 7, 79, 127
1, 256371, Note_on_c, 10, 81, 127
1, 256540, Note_off_c, 10, 81, 127
1, 256541, Note_on_c, 0, 72, 127
1, 256710, Note_off_c, 0, 72, 127
1, 256711, Note_on_c, 4, 76, 127
1, 256795, Note_off_c, 10, 45, 127
1, 256880, Note_off_c, 4, 76, 127
1, 256881, Note_on_c, 10, 81, 127
1, 257050, Note_off_c, 10, 81, 127
1, 257051, Note_on_c, 0, 72, 127
1, 257051, Note_on_c, 11, 46, 127
1, 257135, Note_off_c, 0, 72, 127
1, 257136, Note_on_c, 2, 74, 127
1, 257220, Note_off_c, 2, 74, 127
1, 257221, Note_on_c, 6, 78, 127
1, 257305, Note_off_c, 6, 78, 127
1, 257306, Note_on_c, 7, 79, 127
1, 257390, Note_off_c, 7, 79, 127
1, 257391, Note_on_c, 10, 81, 127
1, 257560, Note_off_c, 10, 81, 127
1, 257561, Note_on_c, 0, 72, 127
1, 257730, Note_off_c, 0, 72, 127
1, 257731, Note_on_c, 6, 78, 127
1, 257815, Note_off_c, 11, 46, 127
1, 257900, Note_off_c, 6, 78, 127
1, 257901, Note_on_c, 10, 81, 127
1, 258070, Note_off_c, 10, 81, 127
1, 258071, Note_on_c, 11, 70, 127
1, 258071, Note_on_c, 7, 43, 127
1, 258155, Note_off_c, 11, 70, 127
1, 258156, Note_on_c, 2, 74, 127
1, 258240, Note_off_c, 2, 74, 127
1, 258241, Note_on_c, 4, 76, 127
1, 258325, Note_off_c, 4, 76, 127
1, 258326, Note_on_c, 6, 78, 127
1, 258410, Note_off_c, 6, 78, 127
1, 258411, Note_on_c, 7, 79, 127
1, 258580, Note_off_c, 7, 79, 127
1, 258581, Note_on_c, 11, 70, 127
1, 258750, Note_off_c, 11, 70, 127
1, 258751, Note_on_c, 2, 74, 127
1, 258835, Note_off_c, 7, 43, 127
1, 258920, Note_off_c, 2, 74, 127
1, 258921, Note_on_c, 7, 79, 127
1, 259090, Note_off_c, 7, 79, 127
1, 259091, Note_on_c, 1, 73, 127
1, 259091, Note_on_c, 10, 45, 127
1, 259175, Note_off_c, 1, 73, 127
1, 259176, Note_on_c, 2, 74, 127
1, 259260, Note_off_c, 2, 74, 127
1, 259261, Note_on_c, 4, 76, 127
1, 259345, Note_off_c, 4, 76, 127
1, 259346, Note_on_c, 5, 77, 127
1, 259430, Note_off_c, 5, 77, 127
1, 259431, Note_on_c, 7, 79, 127
1, 259600, Note_off_c, 7, 79, 127
1, 259601, Note_on_c, 1, 73, 127
1, 259770, Note_off_c, 1, 73, 127
1, 259771, Note_on_c, 4, 76, 127
1, 259855, Note_off_c, 10, 45, 127
1, 259940, Note_off_c, 4, 76, 127
1, 259941, Note_on_c, 7, 79, 127
1, 260110, Note_off_c, 7, 79, 127
1, 260111, Note_on_c, 5, 77, 127
1, 260111, Note_on_c, 2, 50, 127
1, 260195, Note_off_c, 5, 77, 127
1, 260196, Note_on_c, 4, 76, 127
1, 260280, Note_off_c, 4, 76, 127
1, 260281, Note_on_c, 2, 74, 127
1, 260365, Note_off_c, 2, 74, 127
1, 260366, Note_on_c, 1, 73, 127
1, 260450, Note_off_c, 1, 73, 127
1, 260451, Note_on_c, 2, 74, 127
1, 260620, Note_off_c, 2, 74, 127
1, 260621, Note_on_c, 10, 69, 127
1, 260790, Note_off_c, 10, 69, 127
1, 260791, Note_on_c, 2, 74, 127
1, 260875, Note_off_c, 2, 50, 127
1, 260960, Note_off_c, 2, 74, 127
1, 260961, Note_on_c, 5, 77, 127
1, 261130, Note_off_c, 5, 77, 127
1, 261131, Note_on_c, 11, 82, 127
1, 261131, Note_on_c, 7, 55, 127
1, 261215, Note_off_c, 11, 82, 127
1, 261216, Note_on_c, 10, 81, 127
1, 261300, Note_off_c, 10, 81, 127
1, 261301, Note_on_c, 7, 79, 127
1, 261385, Note_off_c, 7, 79, 127
1, 261386, Note_on_c, 6, 78, 127
1, 261470, Note_off_c, 6, 78, 127
1, 261471, Note_on_c, 7, 79, 127
1, 261640, Note_off_c, 7, 79, 127
1, 261641, Note_on_c, 2, 74, 127
1, 261810, Note_off_c, 2, 74, 127
1, 261811, Note_on_c, 7, 79, 127
1, 261895, Note_off_c, 7, 55, 127
1, 261980, Note_off_c, 7, 79, 127
1, 261981, Note_on_c, 11, 82, 127
1, 262150, Note_off_c, 11, 82, 127
1, 262151, Note_on_c, 10, 81, 127
1, 262151, Note_on_c, 5, 53, 127
1, 262235, Note_off_c, 10, 81, 127
1, 262236, Note_on_c, 7, 79, 127
1, 262320, Note_off_c, 7, 79, 127
1, 262321, Note_on_c, 5, 77, 127
1, 262405, Note_off_c, 5, 77, 127
1, 262406, Note_on_c, 4, 76, 127
1, 262490, Note_off_c, 4, 76, 127
1, 262491, Note_on_c, 5, 77, 127
1, 262660, Note_off_c, 5, 77, 127
1, 262661, Note_on_c, 2, 74, 127
1, 262830, Note_off_c, 2, 74, 127
1, 262831, Note_on_c, 5, 77, 127
1, 262915, Note_off_c, 5, 53, 127
1, 263000, Note_off_c, 5, 77, 127
1, 263001, Note_on_c, 10, 81, 127
1, 263170, Note_off_c, 10, 81, 127
1, 263171, Note_on_c, 8, 80, 127
1, 263171, Note_on_c, 4, 52, 127
1, 263255, Note_off_c, 8, 80, 127
1, 263256, Note_on_c, 6, 78, 127
1, 263340, Note_off_c, 6, 78, 127
1, 263341, Note_on_c, 4, 76, 127
1, 263425, Note_off_c, 4, 76, 127
1, 263426, Note_on_c, 2, 74, 127
1, 263510, Note_off_c, 2, 74, 127
1, 263511, Note_on_c, 4, 76, 127
1, 263680, Note_off_c, 4, 76, 127
1, 263681, Note_on_c, 2, 74, 127
1, 263850, Note_off_c, 2, 74, 127
1, 263851, Note_on_c, 4, 76, 127
1, 263935, Note_off_c, 4, 52, 127
1, 264020, Note_off_c, 4, 76, 127
1, 264021, Note_on_c, 8, 80, 127
1, 264190, Note_off_c, 8, 80, 127
1, 264191, Note_on_c, 0, 72, 127
1, 264191, Note_on_c, 5, 53, 127
1, 264275, Note_off_c, 0, 72, 127
1, 264276, Note_on_c, 4, 76, 127
1, 264360, Note_off_c, 4, 76, 127
1, 264361, Note_on_c, 5, 77, 127
1, 264445, Note_off_c, 5, 77, 127
1, 264446, Note_on_c, 7, 79, 127
1, 264530, Note_off_c, 7, 79, 127
1, 264531, Note_on_c, 10, 81, 127
1, 264700, Note_off_c, 10, 81, 127
1, 264701, Note_on_c, 0, 72, 127
1, 264870, Note_off_c, 0, 72, 127
1, 264871, Note_on_c, 5, 77, 127
1, 264955, Note_off_c, 5, 53, 127
1, 265040, Note_off_c, 5, 77, 127
1, 265041, Note_on_c, 10, 81, 127
1, 265210, Note_off_c, 10, 81, 127
1, 265211, Note_on_c, 10, 81, 127
1, 265211, Note_on_c, 2, 50, 127
1, 265295, Note_off_c, 10, 81, 127
1, 265296, Note_on_c, 7, 79, 127
1, 265380, Note_off_c, 7, 79, 127
1, 265381, Note_on_c, 5, 77, 127
1, 265465, Note_off_c, 5, 77, 127
1, 265466, Note_on_c, 4, 76, 127
1, 265550, Note_off_c, 4, 76, 127
1, 265551, Note_on_c, 5, 77, 127
1, 265720, Note_off_c, 5, 77, 127
1, 265721, Note_on_c, 12, 71, 127
1, 265890, Note_off_c, 12, 71, 127
1, 265891, Note_on_c, 5, 77, 127
1, 265975, Note_off_c, 2, 50, 127
1, 266060, Note_off_c, 5, 77, 127
1, 266061, Note_on_c, 10, 81, 127
1, 266230, Note_off_c, 10, 81, 127
1, 266231, Note_on_c, 12, 71, 127
1, 266231, Note_on_c, 4, 52, 127
1, 266315, Note_off_c, 12, 71, 127
1, 266316, Note_on_c, 2, 74, 127
1, 266400, Note_off_c, 2, 74, 127
1, 266401, Note_on_c, 4, 76, 127
1, 266485, Note_off_c, 4, 76, 127
1, 266486, Note_on_c, 6, 78, 127
1, 266570, Note_off_c, 6, 78, 127
1, 266571, Note_on_c, 8, 80, 127
1, 266740, Note_off_c, 8, 80, 127
1, 266741, Note_on_c, 12, 71, 127
1, 266910, Note_off_c, 12, 71, 127
1, 266911, Note_on_c, 2, 74, 127
1, 266995, Note_off_c, 4, 52, 127
1, 267080, Note_off_c, 2, 74, 127
1, 267081, Note_on_c, 8, 80, 127
1, 267250, Note_off_c, 8, 80, 127
1, 267251, Note_on_c, 10, 81, 127
1, 267251, Note_on_c, 10, 45, 127
1, 267492, Note_off_c, 10, 81, 127
1, 267493, Note_on_c, 10, 69, 127
1, 267730, Note_off_c, 10, 45, 127
1, 267734, Note_off_c, 10, 69, 127
1, 267735, Note_on_c, 10, 69, 127
1, 267976, Note_off_c, 10, 69, 127
1, 267977, Note_on_c, 12, 71, 127
1, 268218, Note_off_c, 12, 71, 127
1, 268219, Note_on_c, 0, 72, 127
1, 268460, Note_off_c, 0, 72, 127
1, 268461, Note_on_c, 10, 69, 127
1, 268461, Note_on_c, 10, 45, 127
1, 268702, Note_off_c, 10, 45, 127
1, 268702, Note_off_c, 10, 69, 127
1, 268703, Note_on_c, 0, 72, 127
1, 268703, Note_on_c, 10, 45, 127
1, 268944, Note_off_c, 10, 45, 127
1, 268944, Note_off_c, 0, 72, 127
1, 268945, Note_on_c, 2, 74, 127
1, 268945, Note_on_c, 12, 47, 127
1, 269186, Note_off_c, 12, 47, 127
1, 269186, Note_off_c, 2, 74, 127
1, 269187, Note_on_c, 4, 76, 127
1, 269187, Note_on_c, 0, 48, 127
1, 269428, Note_off_c, 0, 48, 127
1, 269429, Note_on_c, 4, 64, 127
1, 269429, Note_on_c, 10, 45, 127
1, 269540, Note_off_c, 4, 76, 127
1, 269550, Note_on_c, 4, 76, 127
1, 269669, Note_off_c, 4, 64, 127
1, 269670, Note_off_c, 4, 76, 127
1, 269670, Note_off_c, 10, 45, 127
1, 269671, Note_on_c, 4, 64, 127
1, 269671, Note_on_c, 0, 48, 127
1, 269792, Note_on_c, 4, 76, 127
1, 269911, Note_off_c, 4, 64, 127
1, 269912, Note_off_c, 0, 48, 127
1, 269913, Note_on_c, 5, 65, 127
1, 269913, Note_on_c, 2, 50, 127
1, 270032, Note_off_c, 4, 76, 127
1, 270035, Note_on_c, 4, 76, 127
1, 270154, Note_off_c, 5, 65, 127
1, 270155, Note_off_c, 4, 76, 127
1, 270155, Note_off_c, 2, 50, 127
1, 270156, Note_on_c, 7, 67, 127
1, 270156, Note_on_c, 4, 52, 127
1, 270277, Note_on_c, 4, 76, 127
1, 270396, Note_off_c, 7, 67, 127
1, 270397, Note_off_c, 4, 52, 127
1, 270398, Note_on_c, 4, 64, 127
1, 270398, Note_on_c, 7, 55, 127
1, 270517, Note_off_c, 4, 76, 127
1, 270518, Note_off_c, 7, 55, 127
1, 270519, Note_on_c, 4, 76, 127
1, 270519, Note_on_c, 5, 53, 127
1, 270638, Note_off_c, 4, 64, 127
1, 270639, Note_off_c, 5, 53, 127
1, 270640, Note_on_c, 5, 65, 127
1, 270640, Note_on_c, 4, 52, 127
1, 270759, Note_off_c, 4, 76, 127
1, 270760, Note_off_c, 4, 52, 127
1, 270761, Note_on_c, 4, 76, 127
1, 270761, Note_on_c, 2, 50, 127
1, 270880, Note_off_c, 5, 65, 127
1, 270881, Note_off_c, 2, 50, 127
1, 270882, Note_on_c, 7, 67, 127
1, 270882, Note_on_c, 0, 48, 127
1, 271001, Note_off_c, 4, 76, 127
1, 271002, Note_off_c, 0, 48, 127
1, 271003, Note_on_c, 4, 76, 127
1, 271003, Note_on_c, 12, 47, 127
1, 271122, Note_off_c, 7, 67, 127
1, 271123, Note_off_c, 12, 47, 127
1, 271123, Note_off_c, 4, 76, 127
1, 271124, Note_on_c, 5, 65, 127
1, 271124, Note_on_c, 10, 45, 127
1, 271245, Note_on_c, 4, 76, 127
1, 271365, Note_off_c, 4, 76, 127
1, 271365, Note_off_c, 10, 45, 127
1, 271366, Note_on_c, 2, 74, 127
1, 271366, Note_on_c, 10, 57, 127
1, 271486, Note_off_c, 2, 74, 127
1, 271487, Note_on_c, 1, 73, 127
1, 271603, Note_off_c, 5, 65, 127
1, 271607, Note_off_c, 1, 73, 127
1, 271607, Note_off_c, 10, 57, 127
1, 271608, Note_on_c, 2, 74, 127
1, 271608, Note_on_c, 11, 58, 127
1, 271728, Note_off_c, 2, 74, 127
1, 271729, Note_on_c, 5, 65, 127
1, 271849, Note_off_c, 5, 65, 127
1, 271849, Note_off_c, 11, 58, 127
1, 271850, Note_on_c, 2, 74, 127
1, 271850, Note_on_c, 10, 57, 127
1, 271970, Note_off_c, 2, 74, 127
1, 271971, Note_on_c, 5, 65, 127
1, 272091, Note_off_c, 5, 65, 127
1, 272091, Note_off_c, 10, 57, 127
1, 272092, Note_on_c, 4, 64, 127
1, 272092, Note_on_c, 7, 55, 127
1, 272213, Note_on_c, 2, 74, 127
1, 272332, Note_off_c, 4, 64, 127
1, 272333, Note_off_c, 2, 74, 127
1, 272333, Note_off_c, 7, 55, 127
1, 272334, Note_on_c, 0, 72, 127
1, 272334, Note_on_c, 4, 52, 127
1, 272454, Note_off_c, 0, 72, 127
1, 272455, Note_on_c, 11, 70, 127
1, 272575, Note_off_c, 11, 70, 127
1, 272575, Note_off_c, 4, 52, 127
1, 272576, Note_on_c, 0, 72, 127
1, 272576, Note_on_c, 10, 57, 127
1, 272696, Note_off_c, 0, 72, 127
1, 272697, Note_on_c, 3, 63, 127
1, 272817, Note_off_c, 3, 63, 127
1, 272817, Note_off_c, 10, 57, 127
1, 272818, Note_on_c, 0, 72, 127
1, 272818, Note_on_c, 7, 55, 127
1, 272938, Note_off_c, 0, 72, 127
1, 272939, Note_on_c, 3, 63, 127
1, 273059, Note_off_c, 3, 63, 127
1, 273059, Note_off_c, 7, 55, 127
1, 273060, Note_on_c, 2, 62, 127
1, 273060, Note_on_c, 6, 54, 127
1, 273181, Note_on_c, 0, 72, 127
1, 273262, Note_off_c, 2, 62, 127
1, 273301, Note_off_c, 0, 72, 127
1, 273301, Note_off_c, 6, 54, 127
1, 273302, Note_on_c, 6, 78, 127
1, 273302, Note_on_c, 2, 50, 127
1, 273422, Note_off_c, 6, 78, 127
1, 273423, Note_on_c, 0, 72, 127
1, 273543, Note_off_c, 0, 72, 127
1, 273543, Note_off_c, 2, 50, 127
1, 273544, Note_on_c, 11, 70, 127
1, 273544, Note_on_c, 7, 55, 127
1, 273665, Note_on_c, 2, 74, 127
1, 273721, Note_off_c, 11, 70, 127
1, 273785, Note_off_c, 2, 74, 127
1, 273785, Note_off_c, 7, 55, 127
1, 273786, Note_on_c, 7, 79, 127
1, 273786, Note_on_c, 11, 46, 127
1, 273906, Note_off_c, 7, 79, 127
1, 273907, Note_on_c, 2, 74, 127
1, 274027, Note_off_c, 2, 74, 127
1, 274027, Note_off_c, 11, 46, 127
1, 274028, Note_on_c, 10, 69, 127
1, 274028, Note_on_c, 0, 48, 127
1, 274149, Note_on_c, 0, 72, 127
1, 274205, Note_off_c, 10, 69, 127
1, 274269, Note_off_c, 0, 72, 127
1, 274269, Note_off_c, 0, 48, 127
1, 274270, Note_on_c, 7, 79, 127
1, 274270, Note_on_c, 10, 45, 127
1, 274390, Note_off_c, 7, 79, 127
1, 274391, Note_on_c, 0, 72, 127
1, 274511, Note_off_c, 0, 72, 127
1, 274511, Note_off_c, 10, 45, 127
1, 274512, Note_on_c, 10, 69, 127
1, 274512, Note_on_c, 2, 50, 127
1, 274633, Note_on_c, 0, 72, 127
1, 274689, Note_off_c, 10, 69, 127
1, 274753, Note_off_c, 0, 72, 127
1, 274753, Note_off_c, 2, 50, 127
1, 274754, Note_on_c, 6, 78, 127
1, 274754, Note_on_c, 2, 38, 127
1, 274874, Note_off_c, 6, 78, 127
1, 274875, Note_on_c, 0, 72, 127
1, 274995, Note_off_c, 0, 72, 127
1, 274995, Note_off_c, 2, 38, 127
1, 274996, Note_on_c, 7, 67, 127
1, 274996, Note_on_c, 11, 70, 127
1, 274996, Note_on_c, 7, 43, 127
1, 275237, Note_off_c, 11, 70, 127
1, 275238, Note_on_c, 11, 82, 127
1, 275349, Note_off_c, 7, 67, 127
1, 275358, Note_off_c, 11, 82, 127
1, 275359, Note_on_c, 10, 81, 127
1, 275479, Note_off_c, 10, 81, 127
1, 275479, Note_off_c, 7, 43, 127
1, 275480, Note_on_c, 7, 79, 127
1, 275480, Note_on_c, 3, 51, 127
1, 275600, Note_off_c, 7, 79, 127
1, 275601, Note_on_c, 5, 77, 127
1, 275721, Note_off_c, 5, 77, 127
1, 275722, Note_on_c, 3, 75, 127
1, 275842, Note_off_c, 3, 75, 127
1, 275843, Note_on_c, 2, 74, 127
1, 275963, Note_off_c, 2, 74, 127
1, 275963, Note_off_c, 3, 51, 127
1, 275964, Note_on_c, 10, 69, 127
1, 275964, Note_on_c, 0, 72, 127
1, 275964, Note_on_c, 5, 53, 127
1, 276084, Note_off_c, 0, 72, 127
1, 276085, Note_on_c, 5, 77, 127
1, 276205, Note_off_c, 5, 77, 127
1, 276206, Note_on_c, 10, 81, 127
1, 276317, Note_off_c, 10, 69, 127
1, 276326, Note_off_c, 10, 81, 127
1, 276327, Note_on_c, 7, 79, 127
1, 276447, Note_off_c, 7, 79, 127
1, 276447, Note_off_c, 5, 53, 127
1, 276448, Note_on_c, 5, 77, 127
1, 276448, Note_on_c, 2, 50, 127
1, 276568, Note_off_c, 5, 77, 127
1, 276569, Note_on_c, 3, 75, 127
1, 276689, Note_off_c, 3, 75, 127
1, 276690, Note_on_c, 2, 74, 127
1, 276810, Note_off_c, 2, 74, 127
1, 276811, Note_on_c, 0, 72, 127
1, 276931, Note_off_c, 0, 72, 127
1, 276931, Note_off_c, 2, 50, 127
1, 276932, Note_on_c, 7, 67, 127
1, 276932, Note_on_c, 11, 70, 127
1, 276932, Note_on_c, 3, 51, 127
1, 277052, Note_off_c, 11, 70, 127
1, 277053, Note_on_c, 3, 75, 127
1, 277173, Note_off_c, 3, 75, 127
1, 277174, Note_on_c, 7, 79, 127
1, 277285, Note_off_c, 7, 67, 127
1, 277294, Note_off_c, 7, 79, 127
1, 277295, Note_on_c, 5, 77, 127
1, 277415, Note_off_c, 5, 77, 127
1, 277415, Note_off_c, 3, 51, 127
1, 277416, Note_on_c, 3, 75, 127
1, 277416, Note_on_c, 0, 48, 127
1, 277536, Note_off_c, 3, 75, 127
1, 277537, Note_on_c, 2, 74, 127
1, 277657, Note_off_c, 2, 74, 127
1, 277658, Note_on_c, 0, 72, 127
1, 277778, Note_off_c, 0, 72, 127
1, 277779, Note_on_c, 11, 70, 127
1, 277899, Note_off_c, 11, 70, 127
1, 277899, Note_off_c, 0, 48, 127
1, 277900, Note_on_c, 5, 65, 127
1, 277900, Note_on_c, 10, 69, 127
1, 277900, Note_on_c, 2, 50, 127
1, 278020, Note_off_c, 10, 69, 127
1, 278021, Note_on_c, 2, 74, 127
1, 278141, Note_off_c, 2, 74, 127
1, 278142, Note_on_c, 5, 77, 127
1, 278253, Note_off_c, 5, 65, 127
1, 278262, Note_off_c, 5, 77, 127
1, 278263, Note_on_c, 3, 75, 127
1, 278383, Note_off_c, 3, 75, 127
1, 278383, Note_off_c, 2, 50, 127
1, 278384, Note_on_c, 2, 74, 127
1, 278384, Note_on_c, 11, 46, 127
1, 278504, Note_off_c, 2, 74, 127
1, 278505, Note_on_c, 0, 72, 127
1, 278625, Note_off_c, 0, 72, 127
1, 278626, Note_on_c, 11, 70, 127
1, 278746, Note_off_c, 11, 70, 127
1, 278747, Note_on_c, 10, 69, 127
1, 278867, Note_off_c, 10, 69, 127
1, 278867, Note_off_c, 11, 46, 127
1, 278868, Note_on_c, 3, 63, 127
1, 278868, Note_on_c, 7, 67, 127
1, 278868, Note_on_c, 0, 48, 127
1, 278988, Note_off_c, 7, 67, 127
1, 278989, Note_on_c, 0, 72, 127
1, 279109, Note_off_c, 0, 72, 127
1, 279110, Note_on_c, 3, 75, 127
1, 279221, Note_off_c, 3, 63, 127
1, 279230, Note_off_c, 3, 75, 127
1, 279231, Note_on_c, 2, 74, 127
1, 279351, Note_off_c, 2, 74, 127
1, 279351, Note_off_c, 0, 48, 127
1, 279352, Note_on_c, 0, 72, 127
1, 279352, Note_on_c, 10, 45, 127
1, 279472, Note_off_c, 0, 72, 127
1, 279473, Note_on_c, 11, 70, 127
1, 279593, Note_off_c, 11, 70, 127
1, 279594, Note_on_c, 10, 69, 127
1, 279714, Note_off_c, 10, 69, 127
1, 279715, Note_on_c, 7, 67, 127
1, 279835, Note_off_c, 7, 67, 127
1, 279835, Note_off_c, 10, 45, 127
1, 279836, Note_on_c, 2, 62, 127
1, 279836, Note_on_c, 6, 66, 127
1, 279836, Note_on_c, 2, 50, 127
1, 280096, Note_off_c, 2, 50, 127
1, 280096, Note_off_c, 6, 66, 127
1, 280096, Note_off_c, 2, 62, 127
1, 280110, Note_on_c, 7, 67, 127
1, 280351, Note_off_c, 7, 67, 127
1, 280352, Note_on_c, 7, 67, 127
1, 280593, Note_off_c, 7, 67, 127
1, 280594, Note_on_c, 10, 69, 127
1, 280835, Note_off_c, 10, 69, 127
1, 280836, Note_on_c, 11, 70, 127
1, 281077, Note_off_c, 11, 70, 127
1, 281078, Note_on_c, 7, 67, 127
1, 281319, Note_off_c, 7, 67, 127
1, 281320, Note_on_c, 11, 70, 127
1, 281561, Note_off_c, 11, 70, 127
1, 281562, Note_on_c, 0, 72, 127
1, 281803, Note_off_c, 0, 72, 127
1, 281804, Note_on_c, 2, 74, 127
1, 282047, Note_on_c, 2, 62, 127
1, 282158, Note_off_c, 2, 74, 127
1, 282168, Note_on_c, 3, 75, 127
1, 282287, Note_off_c, 2, 62, 127
1, 282288, Note_off_c, 3, 75, 127
1, 282289, Note_on_c, 2, 62, 127
1, 282289, Note_on_c, 2, 74, 127
1, 282409, Note_off_c, 2, 74, 127
1, 282410, Note_on_c, 0, 72, 127
1, 282529, Note_off_c, 2, 62, 127
1, 282530, Note_off_c, 0, 72, 127
1, 282531, Note_on_c, 2, 62, 127
1, 282531, Note_on_c, 11, 70, 127
1, 282651, Note_off_c, 11, 70, 127
1, 282652, Note_on_c, 10, 69, 127
1, 282771, Note_off_c, 2, 62, 127
1, 282772, Note_off_c, 10, 69, 127
1, 282773, Note_on_c, 4, 64, 127
1, 282773, Note_on_c, 7, 67, 127
1, 283014, Note_off_c, 7, 67, 127
1, 283014, Note_off_c, 4, 64, 127
1, 283015, Note_on_c, 2, 62, 127
1, 283015, Note_on_c, 10, 69, 127
1, 283135, Note_off_c, 10, 69, 127
1, 283136, Note_on_c, 11, 70, 127
1, 283255, Note_off_c, 2, 62, 127
1, 283256, Note_off_c, 11, 70, 127
1, 283257, Note_on_c, 0, 72, 127
1, 283257, Note_on_c, 4, 64, 127
1, 283498, Note_off_c, 4, 64, 127
1, 283498, Note_off_c, 0, 72, 127
1, 283499, Note_on_c, 6, 66, 127
1, 283499, Note_on_c, 0, 72, 127
1, 283740, Note_off_c, 0, 72, 127
1, 283740, Note_off_c, 6, 66, 127
1, 283741, Note_on_c, 7, 67, 127
1, 283862, Note_on_c, 0, 72, 127
1, 283981, Note_off_c, 7, 67, 127
1, 283982, Note_off_c, 0, 72, 127
1, 283983, Note_on_c, 11, 70, 127
1, 283983, Note_on_c, 2, 62, 127
1, 283983, Note_on_c, 7, 55, 127
1, 284103, Note_off_c, 7, 55, 127
1, 284103, Note_off_c, 11, 70, 127
1, 284104, Note_on_c, 10, 69, 127
1, 284104, Note_on_c, 5, 53, 127
1, 284223, Note_off_c, 2, 62, 127
1, 284224, Note_off_c, 5, 53, 127
1, 284224, Note_off_c, 10, 69, 127
1, 284225, Note_on_c, 7, 67, 127
1, 284225, Note_on_c, 11, 70, 127
1, 284225, Note_on_c, 3, 51, 127
1, 284345, Note_off_c, 3, 51, 127
1, 284346, Note_on_c, 2, 50, 127
1, 284466, Note_off_c, 2, 50, 127
1, 284466, Note_off_c, 11, 70, 127
1, 284466, Note_off_c, 7, 67, 127
1, 284467, Note_on_c, 7, 67, 127
1, 284467, Note_on_c, 11, 70, 127
1, 284467, Note_on_c, 0, 48, 127
1, 284587, Note_off_c, 0, 48, 127
1, 284588, Note_on_c, 11, 46, 127
1, 284708, Note_off_c, 11, 46, 127
1, 284708, Note_off_c, 11, 70, 127
1, 284708, Note_off_c, 7, 67, 127
1, 284709, Note_on_c, 10, 69, 127
1, 284709, Note_on_c, 0, 48, 127
1, 284829, Note_off_c, 10, 69, 127
1, 284830, Note_on_c, 7, 67, 127
1, 284950, Note_off_c, 7, 67, 127
1, 284950, Note_off_c, 0, 48, 127
1, 284951, Note_on_c, 6, 66, 127
1, 284951, Note_on_c, 10, 45, 127
1, 285071, Note_off_c, 6, 66, 127
1, 285072, Note_on_c, 4, 64, 127
1, 285192, Note_off_c, 4, 64, 127
1, 285192, Note_off_c, 10, 45, 127
1, 285193, Note_on_c, 6, 66, 127
1, 285193, Note_on_c, 2, 50, 127
1, 285313, Note_off_c, 6, 66, 127
1, 285314, Note_on_c, 3, 75, 127
1, 285434, Note_off_c, 3, 75, 127
1, 285434, Note_off_c, 2, 50, 127
1, 285435, Note_on_c, 2, 74, 127
1, 285435, Note_on_c, 2, 38, 127
1, 285555, Note_off_c, 2, 74, 127
1, 285556, Note_on_c, 0, 72, 127
1, 285676, Note_off_c, 0, 72, 127
1, 285676, Note_off_c, 2, 38, 127
1, 285677, Note_on_c, 7, 67, 127
1, 285677, Note_on_c, 11, 70, 127
1, 285677, Note_on_c, 7, 43, 127
1, 285797, Note_off_c, 11, 70, 127
1, 285798, Note_on_c, 7, 79, 127
1, 285917, Note_off_c, 7, 67, 127
1, 285918, Note_off_c, 7, 79, 127
1, 285918, Note_off_c, 7, 43, 127
1, 285919, Note_on_c, 5, 77, 127
1, 285919, Note_on_c, 7, 43, 127
1, 286039, Note_off_c, 5, 77, 127
1, 286040, Note_on_c, 3, 75, 127
1, 286160, Note_off_c, 3, 75, 127
1, 286160, Note_off_c, 7, 43, 127
1, 286161, Note_on_c, 2, 74, 127
1, 286161, Note_on_c, 7, 43, 127
1, 286281, Note_off_c, 2, 74, 127
1, 286282, Note_on_c, 0, 72, 127
1, 286402, Note_off_c, 0, 72, 127
1, 286402, Note_off_c, 7, 43, 127
1, 286403, Note_on_c, 11, 70, 127
1, 286403, Note_on_c, 10, 45, 127
1, 286523, Note_off_c, 11, 70, 127
1, 286524, Note_on_c, 10, 69, 127
1, 286644, Note_off_c, 10, 69, 127
1, 286644, Note_off_c, 10, 45, 127
1, 286645, Note_on_c, 7, 67, 127
1, 286645, Note_on_c, 11, 46, 127
1, 286708, Note_on_c, 2, 74, 127
1, 286765, Note_off_c, 7, 67, 127
1, 286772, Note_on_c, 7, 79, 127
1, 286829, Note_off_c, 2, 74, 127
1, 286836, Note_on_c, 2, 74, 127
1, 286893, Note_off_c, 7, 79, 127
1, 286898, Note_off_c, 11, 46, 127
1, 286899, Note_on_c, 11, 70, 127
1, 286899, Note_on_c, 7, 43, 127
1, 286956, Note_off_c, 2, 74, 127
1, 286963, Note_on_c, 2, 74, 127
1, 287020, Note_off_c, 11, 70, 127
1, 287027, Note_on_c, 7, 79, 127
1, 287084, Note_off_c, 2, 74, 127
1, 287091, Note_on_c, 2, 74, 127
1, 287148, Note_off_c, 7, 79, 127
1, 287153, Note_off_c, 7, 43, 127
1, 287154, Note_on_c, 11, 70, 127
1, 287154, Note_on_c, 11, 46, 127
1, 287213, Note_off_c, 2, 74, 127
1, 287220, Note_on_c, 2, 74, 127
1, 287279, Note_off_c, 11, 70, 127
1, 287286, Note_on_c, 7, 79, 127
1, 287345, Note_off_c, 2, 74, 127
1, 287352, Note_on_c, 2, 74, 127
1, 287411, Note_off_c, 7, 79, 127
1, 287417, Note_off_c, 11, 46, 127
1, 287418, Note_on_c, 11, 70, 127
1, 287418, Note_on_c, 0, 48, 127
1, 287477, Note_off_c, 2, 74, 127
1, 287484, Note_on_c, 2, 74, 127
1, 287543, Note_off_c, 11, 70, 127
1, 287550, Note_on_c, 7, 79, 127
1, 287609, Note_off_c, 2, 74, 127
1, 287616, Note_on_c, 2, 74, 127
1, 287675, Note_off_c, 7, 79, 127
1, 287681, Note_off_c, 0, 48, 127
1, 287682, Note_on_c, 11, 70, 127
1, 287682, Note_on_c, 2, 50, 127
1, 287744, Note_off_c, 2, 74, 127
1, 287751, Note_on_c, 2, 74, 127
1, 287813, Note_off_c, 11, 70, 127
1, 287820, Note_on_c, 7, 79, 127
1, 287882, Note_off_c, 2, 74, 127
1, 287889, Note_on_c, 2, 74, 127
1, 287951, Note_off_c, 7, 79, 127
1, 287957, Note_off_c, 2, 50, 127
1, 287958, Note_on_c, 11, 70, 127
1, 287958, Note_on_c, 4, 52, 127
1, 288020, Note_off_c, 2, 74, 127
1, 288027, Note_on_c, 2, 74, 127
1, 288089, Note_off_c, 11, 70, 127
1, 288095, Note_off_c, 4, 52, 127
1, 288096, Note_on_c, 7, 79, 127
1, 288096, Note_on_c, 6, 54, 127
1, 288158, Note_off_c, 2, 74, 127
1, 288165, Note_on_c, 2, 74, 127
1, 288227, Note_off_c, 7, 79, 127
1, 288233, Note_off_c, 6, 54, 127
1, 288234, Note_on_c, 11, 70, 127
1, 288234, Note_on_c, 7, 55, 127
1, 288299, Note_off_c, 2, 74, 127
1, 288307, Note_on_c, 2, 74, 127
1, 288372, Note_off_c, 11, 70, 127
1, 288378, Note_off_c, 7, 55, 127
1, 288380, Note_on_c, 7, 79, 127
1, 288380, Note_on_c, 10, 57, 127
1, 288445, Note_off_c, 2, 74, 127
1, 288453, Note_on_c, 2, 74, 127
1, 288518, Note_off_c, 7, 79, 127
1, 288524, Note_off_c, 10, 57, 127
1, 288526, Note_on_c, 11, 70, 127
1, 288526, Note_on_c, 11, 58, 127
1, 288591, Note_off_c, 2, 74, 127
1, 288599, Note_on_c, 2, 74, 127
1, 288664, Note_off_c, 11, 70, 127
1, 288670, Note_off_c, 11, 58, 127
1, 288672, Note_on_c, 7, 79, 127
1, 288672, Note_on_c, 0, 60, 127
1, 288737, Note_off_c, 2, 74, 127
1, 288745, Note_on_c, 2, 74, 127
1, 288810, Note_off_c, 7, 79, 127
1, 288816, Note_off_c, 0, 60, 127
1, 288818, Note_on_c, 10, 69, 127
1, 288818, Note_on_c, 2, 62, 127
1, 288891, Note_off_c, 2, 74, 127
1, 288899, Note_on_c, 0, 72, 127
1, 288972, Note_off_c, 10, 69, 127
1, 288980, Note_on_c, 7, 79, 127
1, 289053, Note_off_c, 0, 72, 127
1, 289061, Note_on_c, 0, 72, 127
1, 289134, Note_off_c, 7, 79, 127
1, 289141, Note_off_c, 2, 62, 127
1, 289143, Note_on_c, 10, 69, 127
1, 289143, Note_on_c, 0, 60, 127
1, 289216, Note_off_c, 0, 72, 127
1, 289224, Note_on_c, 0, 72, 127
1, 289297, Note_off_c, 10, 69, 127
1, 289305, Note_on_c, 7, 79, 127
1, 289378, Note_off_c, 0, 72, 127
1, 289386, Note_on_c, 0, 72, 127
1, 289459, Note_off_c, 7, 79, 127
1, 289466, Note_off_c, 0, 60, 127
1, 289468, Note_on_c, 10, 69, 127
1, 289468, Note_on_c, 2, 62, 127
1, 289554, Note_off_c, 0, 72, 127
1, 289564, Note_on_c, 0, 72, 127
1, 289650, Note_off_c, 10, 69, 127
1, 289660, Note_on_c, 6, 78, 127
1, 289746, Note_off_c, 0, 72, 127
1, 289756, Note_on_c, 0, 72, 127
1, 289842, Note_off_c, 6, 78, 127
1, 289850, Note_off_c, 2, 62, 127
1, 289852, Note_on_c, 10, 69, 127
1, 289852, Note_on_c, 2, 50, 127
1, 289938, Note_off_c, 0, 72, 127
1, 289948, Note_on_c, 0, 72, 127
1, 290034, Note_off_c, 10, 69, 127
1, 290044, Note_on_c, 6, 78, 127
1, 290130, Note_off_c, 0, 72, 127
1, 290140, Note_on_c, 0, 72, 127
1, 290226, Note_off_c, 6, 78, 127
1, 290234, Note_off_c, 0, 72, 127
1, 290234, Note_off_c, 2, 50, 127
1, 290284, Note_on_c, 7, 79, 127
1, 290284, Note_on_c, 2, 74, 127
1, 290284, Note_on_c, 11, 70, 127
1, 290284, Note_on_c, 7, 67, 127
1, 290284, Note_on_c, 7, 43, 127
1, 292282, Note_off_c, 7, 43, 127
1, 292282, Note_off_c, 7, 67, 127
1, 292282, Note_off_c, 11, 70, 127
1, 292282, Note_off_c, 2, 74, 127
1, 292282, Note_off_c, 7, 79, 127
1, 294136, Note_on_c, 5, 77, 127
1, 294136, Note_on_c, 11, 58, 127
1, 294697, Note_off_c, 11, 58, 127
1, 294697, Note_off_c, 5, 77, 127
1, 294698, Note_on_c, 5, 77, 127
1, 294698, Note_on_c, 2, 50, 127
1, 294884, Note_off_c, 2, 50, 127
1, 294884, Note_off_c, 5, 77, 127
1, 294885, Note_on_c, 11, 82, 127
1, 294885, Note_on_c, 5, 53, 127
1, 295071, Note_off_c, 5, 53, 127
1, 295071, Note_off_c, 11, 82, 127
1, 295072, Note_on_c, 2, 74, 127
1, 295072, Note_on_c, 11, 58, 127
1, 295258, Note_off_c, 11, 58, 127
1, 295258, Note_off_c, 2, 74, 127
1, 295259, Note_on_c, 3, 75, 127
1, 295259, Note_on_c, 0, 48, 127
1, 295445, Note_off_c, 0, 48, 127
1, 295445, Note_off_c, 3, 75, 127
1, 295446, Note_on_c, 7, 79, 127
1, 295446, Note_on_c, 3, 51, 127
1, 295632, Note_off_c, 3, 51, 127
1, 295632, Note_off_c, 7, 79, 127
1, 295633, Note_on_c, 0, 72, 127
1, 295633, Note_on_c, 10, 57, 127
1, 295819, Note_off_c, 10, 57, 127
1, 295819, Note_off_c, 0, 72, 127
1, 295820, Note_on_c, 2, 74, 127
1, 295820, Note_on_c, 11, 46, 127
1, 296006, Note_off_c, 11, 46, 127
1, 296006, Note_off_c, 2, 74, 127
1, 296007, Note_on_c, 5, 77, 127
1, 296007, Note_on_c, 11, 58, 127
1, 296193, Note_off_c, 11, 58, 127
1, 296193, Note_off_c, 5, 77, 127
1, 296194, Note_on_c, 10, 69, 127
1, 296194, Note_on_c, 0, 48, 127
1, 296380, Note_off_c, 0, 48, 127
1, 296380, Note_off_c, 10, 69, 127
1, 296381, Note_on_c, 11, 70, 127
1, 296381, Note_on_c, 2, 50, 127
1, 296567, Note_off_c, 2, 50, 127
1, 296568, Note_on_c, 5, 53, 127
1, 296754, Note_off_c, 5, 53, 127
1, 296754, Note_off_c, 11, 70, 127
1, 296755, Note_on_c, 0, 72, 127
1, 296755, Note_on_c, 10, 45, 127
1, 296941, Note_off_c, 10, 45, 127
1, 296941, Note_off_c, 0, 72, 127
1, 296942, Note_on_c, 2, 74, 127
1, 296942, Note_on_c, 5, 53, 127
1, 296942, Note_on_c, 11, 46, 127
1, 297128, Note_off_c, 2, 74, 127
1, 297129, Note_on_c, 4, 76, 127
1, 297312, Note_off_c, 11, 46, 127
1, 297312, Note_off_c, 5, 53, 127
1, 297315, Note_off_c, 4, 76, 127
1, 297316, Note_on_c, 5, 77, 127
1, 297502, Note_off_c, 5, 77, 127
1, 297503, Note_on_c, 4, 76, 127
1, 297503, Note_on_c, 7, 55, 127
1, 297503, Note_on_c, 11, 46, 127
1, 297689, Note_off_c, 4, 76, 127
1, 297690, Note_on_c, 5, 77, 127
1, 297873, Note_off_c, 11, 46, 127
1, 297873, Note_off_c, 7, 55, 127
1, 297876, Note_off_c, 5, 77, 127
1, 297877, Note_on_c, 7, 79, 127
1, 298063, Note_off_c, 7, 79, 127
1, 298064, Note_on_c, 5, 77, 127
1, 298064, Note_on_c, 2, 50, 127
1, 298064, Note_on_c, 10, 57, 127
1, 298250, Note_off_c, 5, 77, 127
1, 298251, Note_on_c, 7, 79, 127
1, 298434, Note_off_c, 10, 57, 127
1, 298434, Note_off_c, 2, 50, 127
1, 298437, Note_off_c, 7, 79, 127
1, 298438, Note_on_c, 10, 81, 127
1, 298624, Note_off_c, 10, 81, 127
1, 298625, Note_on_c, 7, 79, 127
1, 298625, Note_on_c, 0, 60, 127
1, 298625, Note_on_c, 4, 52, 127
1, 298811, Note_off_c, 7, 79, 127
1, 298812, Note_on_c, 10, 81, 127
1, 298995, Note_off_c, 4, 52, 127
1, 298995, Note_off_c, 0, 60, 127
1, 298998, Note_off_c, 10, 81, 127
1, 298999, Note_on_c, 11, 82, 127
1, 299185, Note_off_c, 11, 82, 127
1, 299186, Note_on_c, 10, 81, 127
1, 299186, Note_on_c, 5, 53, 127
1, 299372, Note_off_c, 10, 81, 127
1, 299373, Note_on_c, 7, 79, 127
1, 299373, Note_on_c, 7, 55, 127
1, 299556, Note_off_c, 5, 53, 127
1, 299559, Note_off_c, 7, 55, 127
1, 299559, Note_off_c, 7, 79, 127
1, 299560, Note_on_c, 5, 77, 127
1, 299560, Note_on_c, 10, 57, 127
1, 299560, Note_on_c, 2, 50, 127
1, 299746, Note_off_c, 2, 50, 127
1, 299746, Note_off_c, 10, 57, 127
1, 299746, Note_off_c, 5, 77, 127
1, 299747, Note_on_c, 5, 77, 127
1, 299747, Note_on_c, 7, 55, 127
1, 299747, Note_on_c, 11, 46, 127
1, 299933, Note_off_c, 5, 77, 127
1, 299934, Note_on_c, 7, 79, 127
1, 300120, Note_off_c, 7, 79, 127
1, 300120, Note_off_c, 11, 46, 127
1, 300120, Note_off_c, 7, 55, 127
1, 300121, Note_on_c, 4, 76, 127
1, 300121, Note_on_c, 0, 48, 127
1, 300121, Note_on_c, 7, 55, 127
1, 300307, Note_off_c, 7, 55, 127
1, 300307, Note_off_c, 0, 48, 127
1, 300307, Note_off_c, 4, 76, 127
1, 300308, Note_on_c, 5, 77, 127
1, 300308, Note_on_c, 10, 57, 127
1, 300308, Note_on_c, 5, 53, 127
1, 300494, Note_off_c, 5, 77, 127
1, 300495, Note_on_c, 10, 81, 127
1, 300588, Note_off_c, 10, 81, 127
1, 300589, Note_on_c, 7, 79, 127
1, 300679, Note_off_c, 5, 53, 127
1, 300679, Note_off_c, 10, 57, 127
1, 300682, Note_off_c, 7, 79, 127
1, 300683, Note_on_c, 5, 77, 127
1, 300869, Note_off_c, 5, 77, 127
1, 300870, Note_on_c, 5, 77, 127
1, 300870, Note_on_c, 5, 53, 127
1, 300870, Note_on_c, 2, 50, 127
1, 301056, Note_off_c, 5, 77, 127
1, 301057, Note_on_c, 10, 81, 127
1, 301150, Note_off_c, 10, 81, 127
1, 301151, Note_on_c, 7, 79, 127
1, 301241, Note_off_c, 2, 50, 127
1, 301241, Note_off_c, 5, 53, 127
1, 301244, Note_off_c, 7, 79, 127
1, 301245, Note_on_c, 5, 77, 127
1, 301431, Note_off_c, 5, 77, 127
1, 301432, Note_on_c, 7, 79, 127
1, 301432, Note_on_c, 5, 53, 127
1, 301432, Note_on_c, 11, 46, 127
1, 301618, Note_off_c, 7, 79, 127
1, 301619, Note_on_c, 11, 82, 127
1, 301712, Note_off_c, 11, 82, 127
1, 301713, Note_on_c, 10, 81, 127
1, 301803, Note_off_c, 11, 46, 127
1, 301803, Note_off_c, 5, 53, 127
1, 301806, Note_off_c, 10, 81, 127
1, 301807, Note_on_c, 7, 79, 127
1, 301993, Note_off_c, 7, 79, 127
1, 301994, Note_on_c, 7, 79, 127
1, 301994, Note_on_c, 0, 48, 127
1, 301994, Note_on_c, 4, 52, 127
1, 302180, Note_off_c, 7, 79, 127
1, 302181, Note_on_c, 11, 82, 127
1, 302274, Note_off_c, 11, 82, 127
1, 302275, Note_on_c, 10, 81, 127
1, 302365, Note_off_c, 4, 52, 127
1, 302365, Note_off_c, 0, 48, 127
1, 302368, Note_off_c, 10, 81, 127
1, 302369, Note_on_c, 7, 79, 127
1, 302555, Note_off_c, 7, 79, 127
1, 302556, Note_on_c, 10, 81, 127
1, 302556, Note_on_c, 5, 53, 127
1, 302742, Note_off_c, 5, 53, 127
1, 302742, Note_off_c, 10, 81, 127
1, 302743, Note_on_c, 5, 77, 127
1, 302743, Note_on_c, 10, 57, 127
1, 302836, Note_off_c, 5, 77, 127
1, 302837, Note_on_c, 7, 79, 127
1, 302930, Note_off_c, 7, 79, 127
1, 302930, Note_off_c, 10, 57, 127
1, 302931, Note_on_c, 10, 81, 127
1, 302931, Note_on_c, 0, 60, 127
1, 303117, Note_off_c, 0, 60, 127
1, 303117, Note_off_c, 10, 81, 127
1, 303118, Note_on_c, 7, 79, 127
1, 303118, Note_on_c, 4, 52, 127
1, 303304, Note_off_c, 4, 52, 127
1, 303304, Note_off_c, 7, 79, 127
1, 303305, Note_on_c, 4, 76, 127
1, 303305, Note_on_c, 7, 55, 127
1, 303398, Note_off_c, 4, 76, 127
1, 303399, Note_on_c, 5, 77, 127
1, 303492, Note_off_c, 5, 77, 127
1, 303492, Note_off_c, 7, 55, 127
1, 303493, Note_on_c, 7, 79, 127
1, 303493, Note_on_c, 0, 60, 127
1, 303679, Note_off_c, 0, 60, 127
1, 303679, Note_off_c, 7, 79, 127
1, 303680, Note_on_c, 5, 77, 127
1, 303680, Note_on_c, 2, 50, 127
1, 303866, Note_off_c, 2, 50, 127
1, 303866, Note_off_c, 5, 77, 127
1, 303867, Note_on_c, 2, 74, 127
1, 303867, Note_on_c, 5, 53, 127
1, 303960, Note_off_c, 2, 74, 127
1, 303961, Note_on_c, 4, 76, 127
1, 304054, Note_off_c, 4, 76, 127
1, 304054, Note_off_c, 5, 53, 127
1, 304055, Note_on_c, 5, 77, 127
1, 304055, Note_on_c, 12, 59, 127
1, 304241, Note_off_c, 12, 59, 127
1, 304241, Note_off_c, 5, 77, 127
1, 304242, Note_on_c, 4, 76, 127
1, 304242, Note_on_c, 0, 48, 127
1, 304428, Note_off_c, 0, 48, 127
1, 304428, Note_off_c, 4, 76, 127
1, 304429, Note_on_c, 0, 72, 127
1, 304429, Note_on_c, 4, 52, 127
1, 304522, Note_off_c, 0, 72, 127
1, 304523, Note_on_c, 2, 74, 127
1, 304616, Note_off_c, 2, 74, 127
1, 304616, Note_off_c, 4, 52, 127
1, 304617, Note_on_c, 4, 76, 127
1, 304617, Note_on_c, 10, 57, 127
1, 304803, Note_off_c, 10, 57, 127
1, 304803, Note_off_c, 4, 76, 127
1, 304804, Note_on_c, 2, 74, 127
1, 304804, Note_on_c, 11, 46, 127
1, 304990, Note_off_c, 11, 46, 127
1, 304990, Note_off_c, 2, 74, 127
1, 304991, Note_on_c, 11, 70, 127
1, 304991, Note_on_c, 2, 50, 127
1, 305084, Note_off_c, 11, 70, 127
1, 305085, Note_on_c, 0, 72, 127
1, 305178, Note_off_c, 0, 72, 127
1, 305178, Note_off_c, 2, 50, 127
1, 305179, Note_on_c, 2, 74, 127
1, 305179, Note_on_c, 7, 55, 127
1, 305365, Note_off_c, 7, 55, 127
1, 305365, Note_off_c, 2, 74, 127
1, 305366, Note_on_c, 0, 72, 127
1, 305366, Note_on_c, 10, 45, 127
1, 305552, Note_off_c, 10, 45, 127
1, 305552, Note_off_c, 0, 72, 127
1, 305553, Note_on_c, 10, 69, 127
1, 305553, Note_on_c, 0, 48, 127
1, 305646, Note_off_c, 10, 69, 127
1, 305647, Note_on_c, 11, 70, 127
1, 305740, Note_off_c, 11, 70, 127
1, 305740, Note_off_c, 0, 48, 127
1, 305741, Note_on_c, 0, 72, 127
1, 305741, Note_on_c, 5, 53, 127
1, 305927, Note_off_c, 5, 53, 127
1, 305927, Note_off_c, 0, 72, 127
1, 305928, Note_on_c, 11, 70, 127
1, 305928, Note_on_c, 7, 43, 127
1, 306114, Note_off_c, 7, 43, 127
1, 306114, Note_off_c, 11, 70, 127
1, 306115, Note_on_c, 2, 74, 127
1, 306115, Note_on_c, 11, 46, 127
1, 306208, Note_off_c, 2, 74, 127
1, 306209, Note_on_c, 0, 72, 127
1, 306302, Note_off_c, 0, 72, 127
1, 306302, Note_off_c, 11, 46, 127
1, 306303, Note_on_c, 11, 70, 127
1, 306303, Note_on_c, 2, 50, 127
1, 306396, Note_off_c, 11, 70, 127
1, 306397, Note_on_c, 10, 69, 127
1, 306490, Note_off_c, 10, 69, 127
1, 306490, Note_off_c, 2, 50, 127
1, 306491, Note_on_c, 11, 70, 127
1, 306491, Note_on_c, 7, 55, 127
1, 306677, Note_off_c, 7, 55, 127
1, 306677, Note_off_c, 11, 70, 127
1, 306678, Note_on_c, 2, 74, 127
1, 306678, Note_on_c, 2, 50, 127
1, 306771, Note_off_c, 2, 74, 127
1, 306772, Note_on_c, 0, 72, 127
1, 306865, Note_off_c, 0, 72, 127
1, 306865, Note_off_c, 2, 50, 127
1, 306866, Note_on_c, 11, 70, 127
1, 306866, Note_on_c, 7, 43, 127
1, 306959, Note_off_c, 11, 70, 127
1, 306960, Note_on_c, 10, 69, 127
1, 307053, Note_off_c, 10, 69, 127
1, 307053, Note_off_c, 7, 43, 127
1, 307054, Note_on_c, 11, 70, 127
1, 307054, Note_on_c, 4, 76, 127
1, 307054, Note_on_c, 0, 48, 127
1, 307240, Note_off_c, 0, 48, 127
1, 307240, Note_off_c, 11, 70, 127
1, 307241, Note_on_c, 7, 67, 127
1, 307241, Note_on_c, 4, 52, 127
1, 307334, Note_off_c, 4, 52, 127
1, 307334, Note_off_c, 7, 67, 127
1, 307335, Note_on_c, 10, 69, 127
1, 307335, Note_on_c, 2, 50, 127
1, 307428, Note_off_c, 2, 50, 127
1, 307428, Note_off_c, 10, 69, 127
1, 307429, Note_on_c, 11, 70, 127
1, 307429, Note_on_c, 0, 48, 127
1, 307615, Note_off_c, 0, 48, 127
1, 307615, Note_off_c, 11, 70, 127
1, 307616, Note_on_c, 11, 70, 127
1, 307616, Note_on_c, 0, 48, 127
1, 307802, Note_off_c, 0, 48, 127
1, 307802, Note_off_c, 11, 70, 127
1, 307803, Note_on_c, 7, 67, 127
1, 307803, Note_on_c, 4, 52, 127
1, 307896, Note_off_c, 4, 52, 127
1, 307896, Note_off_c, 7, 67, 127
1, 307897, Note_on_c, 10, 69, 127
1, 307897, Note_on_c, 2, 50, 127
1, 307990, Note_off_c, 2, 50, 127
1, 307990, Note_off_c, 10, 69, 127
1, 307991, Note_on_c, 11, 70, 127
1, 307991, Note_on_c, 0, 48, 127
1, 308176, Note_off_c, 4, 76, 127
1, 308177, Note_off_c, 0, 48, 127
1, 308177, Note_off_c, 11, 70, 127
1, 308178, Note_on_c, 11, 70, 127
1, 308178, Note_on_c, 0, 60, 127
1, 308365, Note_on_c, 7, 79, 127
1, 308458, Note_off_c, 7, 79, 127
1, 308459, Note_on_c, 5, 77, 127
1, 308552, Note_off_c, 5, 77, 127
1, 308553, Note_on_c, 4, 76, 127
1, 308646, Note_off_c, 4, 76, 127
1, 308647, Note_on_c, 2, 74, 127
1, 308740, Note_off_c, 2, 74, 127
1, 308741, Note_on_c, 4, 76, 127
1, 308927, Note_off_c, 4, 76, 127
1, 308928, Note_on_c, 7, 79, 127
1, 309021, Note_off_c, 7, 79, 127
1, 309022, Note_on_c, 5, 77, 127
1, 309115, Note_off_c, 5, 77, 127
1, 309116, Note_on_c, 4, 76, 127
1, 309209, Note_off_c, 4, 76, 127
1, 309210, Note_on_c, 2, 74, 127
1, 309302, Note_off_c, 11, 70, 127
1, 309303, Note_off_c, 2, 74, 127
1, 309303, Note_off_c, 0, 60, 127
1, 309304, Note_on_c, 11, 82, 127
1, 309304, Note_on_c, 4, 76, 127
1, 309304, Note_on_c, 0, 48, 127
1, 309490, Note_off_c, 0, 48, 127
1, 309490, Note_off_c, 4, 76, 127
1, 309491, Note_on_c, 0, 72, 127
1, 309491, Note_on_c, 4, 52, 127
1, 309584, Note_off_c, 4, 52, 127
1, 309584, Note_off_c, 0, 72, 127
1, 309585, Note_on_c, 2, 74, 127
1, 309585, Note_on_c, 2, 50, 127
1, 309678, Note_off_c, 2, 50, 127
1, 309678, Note_off_c, 2, 74, 127
1, 309679, Note_on_c, 4, 76, 127
1, 309679, Note_on_c, 0, 48, 127
1, 309865, Note_off_c, 0, 48, 127
1, 309865, Note_off_c, 4, 76, 127
1, 309866, Note_on_c, 4, 76, 127
1, 309866, Note_on_c, 0, 48, 127
1, 310052, Note_off_c, 0, 48, 127
1, 310052, Note_off_c, 4, 76, 127
1, 310053, Note_on_c, 0, 72, 127
1, 310053, Note_on_c, 4, 52, 127
1, 310146, Note_off_c, 4, 52, 127
1, 310146, Note_off_c, 0, 72, 127
1, 310147, Note_on_c, 2, 74, 127
1, 310147, Note_on_c, 2, 50, 127
1, 310240, Note_off_c, 2, 50, 127
1, 310240, Note_off_c, 2, 74, 127
1, 310241, Note_on_c, 4, 76, 127
1, 310241, Note_on_c, 0, 48, 127
1, 310426, Note_off_c, 11, 82, 127
1, 310427, Note_off_c, 0, 48, 127
1, 310427, Note_off_c, 4, 76, 127
1, 310428, Note_on_c, 10, 81, 127
1, 310428, Note_on_c, 5, 77, 127
1, 310428, Note_on_c, 5, 53, 127
1, 310614, Note_off_c, 5, 77, 127
1, 310614, Note_off_c, 10, 81, 127
1, 310615, Note_on_c, 7, 79, 127
1, 310801, Note_off_c, 7, 79, 127
1, 310801, Note_off_c, 5, 53, 127
1, 310802, Note_on_c, 5, 77, 127
1, 310802, Note_on_c, 10, 57, 127
1, 310988, Note_off_c, 10, 57, 127
1, 310988, Note_off_c, 5, 77, 127
1, 310989, Note_on_c, 0, 72, 127
1, 310989, Note_on_c, 0, 60, 127
1, 311175, Note_off_c, 0, 72, 127
1, 311176, Note_on_c, 5, 77, 127
1, 311362, Note_off_c, 5, 77, 127
1, 311362, Note_off_c, 0, 60, 127
1, 311363, Note_on_c, 4, 76, 127
1, 311363, Note_on_c, 0, 48, 127
1, 311549, Note_off_c, 0, 48, 127
1, 311549, Note_off_c, 4, 76, 127
1, 311550, Note_on_c, 5, 77, 127
1, 311550, Note_on_c, 5, 53, 127
1, 311736, Note_off_c, 5, 77, 127
1, 311737, Note_on_c, 10, 81, 127
1, 311923, Note_off_c, 10, 81, 127
1, 311923, Note_off_c, 5, 53, 127
1, 311924, Note_on_c, 0, 72, 127
1, 311924, Note_on_c, 5, 41, 127
1, 312110, Note_off_c, 5, 41, 127
1, 312110, Note_off_c, 0, 72, 127
1, 312111, Note_on_c, 2, 74, 127
1, 312111, Note_on_c, 11, 46, 127
1, 312297, Note_off_c, 11, 46, 127
1, 312297, Note_off_c, 2, 74, 127
1, 312298, Note_on_c, 5, 77, 127
1, 312298, Note_on_c, 10, 45, 127
1, 312484, Note_off_c, 10, 45, 127
1, 312484, Note_off_c, 5, 77, 127
1, 312485, Note_on_c, 11, 70, 127
1, 312485, Note_on_c, 7, 43, 127
1, 312671, Note_off_c, 7, 43, 127
1, 312671, Note_off_c, 11, 70, 127
1, 312672, Note_on_c, 0, 72, 127
1, 312672, Note_on_c, 10, 45, 127
1, 312858, Note_off_c, 10, 45, 127
1, 312858, Note_off_c, 0, 72, 127
1, 312859, Note_on_c, 5, 77, 127
1, 312859, Note_on_c, 7, 43, 127
1, 313045, Note_off_c, 7, 43, 127
1, 313045, Note_off_c, 5, 77, 127
1, 313046, Note_on_c, 10, 69, 127
1, 313046, Note_on_c, 5, 41, 127
1, 313232, Note_off_c, 5, 41, 127
1, 313232, Note_off_c, 10, 69, 127
1, 313233, Note_on_c, 0, 60, 127
1, 313233, Note_on_c, 0, 48, 127
1, 313419, Note_off_c, 0, 48, 127
1, 313419, Note_off_c, 0, 60, 127
1, 313420, Note_on_c, 5, 65, 127
1, 313420, Note_on_c, 11, 46, 127
1, 313606, Note_off_c, 11, 46, 127
1, 313606, Note_off_c, 5, 65, 127
1, 313607, Note_on_c, 4, 64, 127
1, 313607, Note_on_c, 0, 48, 127
1, 313793, Note_off_c, 0, 48, 127
1, 313793, Note_off_c, 4, 64, 127
1, 313794, Note_on_c, 5, 65, 127
1, 313794, Note_on_c, 5, 41, 127
1, 313980, Note_off_c, 5, 65, 127
1, 313981, Note_on_c, 10, 69, 127
1, 314074, Note_off_c, 10, 69, 127
1, 314075, Note_on_c, 7, 67, 127
1, 314165, Note_off_c, 5, 41, 127
1, 314168, Note_off_c, 7, 67, 127
1, 314169, Note_on_c, 5, 65, 127
1, 314262, Note_off_c, 5, 65, 127
1, 314263, Note_on_c, 4, 64, 127
1, 314356, Note_off_c, 4, 64, 127
1, 314357, Note_on_c, 5, 65, 127
1, 314357, Note_on_c, 2, 50, 127
1, 314543, Note_off_c, 5, 65, 127
1, 314544, Note_on_c, 10, 69, 127
1, 314637, Note_off_c, 10, 69, 127
1, 314638, Note_on_c, 7, 67, 127
1, 314728, Note_off_c, 2, 50, 127
1, 314731, Note_off_c, 7, 67, 127
1, 314732, Note_on_c, 5, 65, 127
1, 314825, Note_off_c, 5, 65, 127
1, 314826, Note_on_c, 4, 64, 127
1, 314919, Note_off_c, 4, 64, 127
1, 314920, Note_on_c, 5, 65, 127
1, 314920, Note_on_c, 11, 46, 127
1, 315106, Note_off_c, 5, 65, 127
1, 315107, Note_on_c, 10, 69, 127
1, 315200, Note_off_c, 10, 69, 127
1, 315201, Note_on_c, 7, 67, 127
1, 315294, Note_off_c, 7, 67, 127
1, 315294, Note_off_c, 11, 46, 127
1, 315295, Note_on_c, 5, 65, 127
1, 315295, Note_on_c, 0, 48, 127
1, 315388, Note_off_c, 5, 65, 127
1, 315389, Note_on_c, 4, 64, 127
1, 315482, Note_off_c, 4, 64, 127
1, 315482, Note_off_c, 0, 48, 127
1, 315483, Note_on_c, 5, 65, 127
1, 315483, Note_on_c, 5, 41, 127
1, 315669, Note_off_c, 5, 65, 127
1, 315670, Note_on_c, 10, 69, 127
1, 315763, Note_off_c, 10, 69, 127
1, 315764, Note_on_c, 7, 67, 127
1, 315854, Note_off_c, 5, 41, 127
1, 315857, Note_off_c, 7, 67, 127
1, 315858, Note_on_c, 5, 65, 127
1, 315951, Note_off_c, 5, 65, 127
1, 315952, Note_on_c, 4, 64, 127
1, 316045, Note_off_c, 4, 64, 127
1, 316046, Note_on_c, 2, 62, 127
1, 316046, Note_on_c, 7, 67, 127
1, 316046, Note_on_c, 11, 46, 127
1, 316232, Note_off_c, 7, 67, 127
1, 316233, Note_on_c, 11, 70, 127
1, 316326, Note_off_c, 11, 70, 127
1, 316327, Note_on_c, 10, 69, 127
1, 316417, Note_off_c, 11, 46, 127
1, 316417, Note_off_c, 2, 62, 127
1, 316420, Note_off_c, 10, 69, 127
1, 316421, Note_on_c, 7, 67, 127
1, 316514, Note_off_c, 7, 67, 127
1, 316515, Note_on_c, 6, 66, 127
1, 316608, Note_off_c, 6, 66, 127
1, 316609, Note_on_c, 7, 67, 127
1, 316609, Note_on_c, 3, 51, 127
1, 316795, Note_off_c, 7, 67, 127
1, 316796, Note_on_c, 11, 70, 127
1, 316889, Note_off_c, 11, 70, 127
1, 316890, Note_on_c, 10, 69, 127
1, 316980, Note_off_c, 3, 51, 127
1, 316983, Note_off_c, 10, 69, 127
1, 316984, Note_on_c, 7, 67, 127
1, 317077, Note_off_c, 7, 67, 127
1, 317078, Note_on_c, 6, 66, 127
1, 317171, Note_off_c, 6, 66, 127
1, 317172, Note_on_c, 7, 67, 127
1, 317172, Note_on_c, 0, 48, 127
1, 317358, Note_off_c, 7, 67, 127
1, 317359, Note_on_c, 11, 70, 127
1, 317452, Note_off_c, 11, 70, 127
1, 317453, Note_on_c, 10, 69, 127
1, 317546, Note_off_c, 10, 69, 127
1, 317546, Note_off_c, 0, 48, 127
1, 317547, Note_on_c, 7, 67, 127
1, 317547, Note_on_c, 2, 50, 127
1, 317640, Note_off_c, 7, 67, 127
1, 317641, Note_on_c, 6, 66, 127
1, 317734, Note_off_c, 6, 66, 127
1, 317734, Note_off_c, 2, 50, 127
1, 317735, Note_on_c, 7, 67, 127
1, 317735, Note_on_c, 7, 43, 127
1, 317921, Note_off_c, 7, 67, 127
1, 317922, Note_on_c, 11, 70, 127
1, 318015, Note_off_c, 11, 70, 127
1, 318016, Note_on_c, 10, 69, 127
1, 318106, Note_off_c, 7, 43, 127
1, 318109, Note_off_c, 10, 69, 127
1, 318110, Note_on_c, 7, 67, 127
1, 318296, Note_off_c, 7, 67, 127
1, 318297, Note_on_c, 10, 69, 127
1, 318297, Note_on_c, 5, 53, 127
1, 318483, Note_off_c, 10, 69, 127
1, 318484, Note_on_c, 0, 72, 127
1, 318577, Note_off_c, 0, 72, 127
1, 318578, Note_on_c, 11, 70, 127
1, 318668, Note_off_c, 5, 53, 127
1, 318671, Note_off_c, 11, 70, 127
1, 318672, Note_on_c, 10, 69, 127
1, 318765, Note_off_c, 10, 69, 127
1, 318766, Note_on_c, 7, 67, 127
1, 318859, Note_off_c, 7, 67, 127
1, 318860, Note_on_c, 10, 69, 127
1, 318860, Note_on_c, 2, 50, 127
1, 319046, Note_off_c, 10, 69, 127
1, 319047, Note_on_c, 0, 72, 127
1, 319140, Note_off_c, 0, 72, 127
1, 319141, Note_on_c, 11, 70, 127
1, 319231, Note_off_c, 2, 50, 127
1, 319234, Note_off_c, 11, 70, 127
1, 319235, Note_on_c, 10, 69, 127
1, 319328, Note_off_c, 10, 69, 127
1, 319329, Note_on_c, 7, 67, 127
1, 319422, Note_off_c, 7, 67, 127
1, 319423, Note_on_c, 10, 69, 127
1, 319423, Note_on_c, 11, 46, 127
1, 319609, Note_off_c, 10, 69, 127
1, 319610, Note_on_c, 0, 72, 127
1, 319703, Note_off_c, 0, 72, 127
1, 319704, Note_on_c, 11, 70, 127
1, 319797, Note_off_c, 11, 70, 127
1, 319797, Note_off_c, 11, 46, 127
1, 319798, Note_on_c, 10, 69, 127
1, 319798, Note_on_c, 0, 48, 127
1, 319891, Note_off_c, 10, 69, 127
1, 319892, Note_on_c, 7, 67, 127
1, 319985, Note_off_c, 7, 67, 127
1, 319985, Note_off_c, 0, 48, 127
1, 319986, Note_on_c, 10, 69, 127
1, 319986, Note_on_c, 5, 41, 127
1, 320172, Note_off_c, 10, 69, 127
1, 320173, Note_on_c, 0, 72, 127
1, 320266, Note_off_c, 0, 72, 127
1, 320267, Note_on_c, 11, 70, 127
1, 320357, Note_off_c, 5, 41, 127
1, 320360, Note_off_c, 11, 70, 127
1, 320361, Note_on_c, 10, 69, 127
1, 320454, Note_off_c, 10, 69, 127
1, 320455, Note_on_c, 7, 67, 127
1, 320548, Note_off_c, 7, 67, 127
1, 320549, Note_on_c, 11, 70, 127
1, 320549, Note_on_c, 5, 65, 127
1, 320549, Note_on_c, 2, 50, 127
1, 320735, Note_off_c, 11, 70, 127
1, 320736, Note_on_c, 2, 74, 127
1, 320829, Note_off_c, 2, 74, 127
1, 320830, Note_on_c, 0, 72, 127
1, 320920, Note_off_c, 2, 50, 127
1, 320920, Note_off_c, 5, 65, 127
1, 320923, Note_off_c, 0, 72, 127
1, 320924, Note_on_c, 11, 70, 127
1, 321017, Note_off_c, 11, 70, 127
1, 321018, Note_on_c, 10, 69, 127
1, 321111, Note_off_c, 10, 69, 127
1, 321112, Note_on_c, 11, 70, 127
1, 321112, Note_on_c, 7, 55, 127
1, 321298, Note_off_c, 11, 70, 127
1, 321299, Note_on_c, 2, 74, 127
1, 321392, Note_off_c, 2, 74, 127
1, 321393, Note_on_c, 0, 72, 127
1, 321483, Note_off_c, 7, 55, 127
1, 321486, Note_off_c, 0, 72, 127
1, 321487, Note_on_c, 11, 70, 127
1, 321580, Note_off_c, 11, 70, 127
1, 321581, Note_on_c, 10, 69, 127
1, 321674, Note_off_c, 10, 69, 127
1, 321675, Note_on_c, 11, 70, 127
1, 321675, Note_on_c, 3, 51, 127
1, 321861, Note_off_c, 11, 70, 127
1, 321862, Note_on_c, 2, 74, 127
1, 321955, Note_off_c, 2, 74, 127
1, 321956, Note_on_c, 0, 72, 127
1, 322049, Note_off_c, 0, 72, 127
1, 322049, Note_off_c, 3, 51, 127
1, 322050, Note_on_c, 11, 70, 127
1, 322050, Note_on_c, 5, 53, 127
1, 322143, Note_off_c, 11, 70, 127
1, 322144, Note_on_c, 10, 69, 127
1, 322237, Note_off_c, 10, 69, 127
1, 322237, Note_off_c, 5, 53, 127
1, 322238, Note_on_c, 11, 70, 127
1, 322238, Note_on_c, 11, 46, 127
1, 322424, Note_off_c, 11, 70, 127
1, 322425, Note_on_c, 2, 74, 127
1, 322518, Note_off_c, 2, 74, 127
1, 322519, Note_on_c, 0, 72, 127
1, 322612, Note_off_c, 0, 72, 127
1, 322613, Note_on_c, 11, 70, 127
1, 322706, Note_off_c, 11, 70, 127
1, 322707, Note_off_c, 11, 46, 127
1, 322707, Note_on_c, 10, 69, 127
1, 322800, Note_off_c, 10, 69, 127
1, 322801, Note_on_c, 4, 76, 127
1, 322801, Note_on_c, 7, 67, 127
1, 322801, Note_on_c, 0, 48, 127
1, 322988, Note_on_c, 11, 70, 127
1, 323015, Note_off_c, 4, 76, 127
1, 323171, Note_off_c, 7, 67, 127
1, 323174, Note_off_c, 11, 70, 127
1, 323174, Note_off_c, 0, 48, 127
1, 323175, Note_on_c, 10, 69, 127
1, 323175, Note_on_c, 2, 50, 127
1, 323361, Note_off_c, 2, 50, 127
1, 323361, Note_off_c, 10, 69, 127
1, 323362, Note_on_c, 7, 67, 127
1, 323362, Note_on_c, 4, 52, 127
1, 323455, Note_off_c, 7, 67, 127
1, 323456, Note_on_c, 10, 69, 127
1, 323549, Note_off_c, 10, 69, 127
1, 323550, Note_on_c, 11, 70, 127
1, 323643, Note_off_c, 11, 70, 127
1, 323644, Note_on_c, 10, 69, 127
1, 323737, Note_off_c, 10, 69, 127
1, 323737, Note_off_c, 4, 52, 127
1, 323738, Note_on_c, 7, 67, 127
1, 323738, Note_on_c, 5, 53, 127
1, 323924, Note_off_c, 5, 53, 127
1, 323924, Note_off_c, 7, 67, 127
1, 323925, Note_on_c, 4, 76, 127
1, 323925, Note_on_c, 7, 55, 127
1, 324111, Note_off_c, 4, 76, 127
1, 324112, Note_on_c, 11, 70, 127
1, 324298, Note_off_c, 11, 70, 127
1, 324298, Note_off_c, 7, 55, 127
1, 324299, Note_on_c, 10, 69, 127
1, 324299, Note_on_c, 10, 57, 127
1, 324485, Note_off_c, 10, 57, 127
1, 324485, Note_off_c, 10, 69, 127
1, 324486, Note_on_c, 7, 67, 127
1, 324486, Note_on_c, 11, 58, 127
1, 324579, Note_off_c, 7, 67, 127
1, 324580, Note_on_c, 10, 69, 127
1, 324673, Note_off_c, 10, 69, 127
1, 324673, Note_off_c, 11, 58, 127
1, 324674, Note_on_c, 11, 70, 127
1, 324674, Note_on_c, 0, 60, 127
1, 324767, Note_off_c, 11, 70, 127
1, 324768, Note_on_c, 10, 69, 127
1, 324861, Note_off_c, 10, 69, 127
1, 324861, Note_off_c, 0, 60, 127
1, 324862, Note_on_c, 7, 67, 127
1, 324862, Note_on_c, 11, 58, 127
1, 325048, Note_off_c, 11, 58, 127
1, 325048, Note_off_c, 7, 67, 127
1, 325049, Note_on_c, 5, 77, 127
1, 325049, Note_on_c, 10, 57, 127
1, 325235, Note_off_c, 5, 77, 127
1, 325236, Note_on_c, 0, 72, 127
1, 325422, Note_off_c, 0, 72, 127
1, 325422, Note_off_c, 10, 57, 127
1, 325423, Note_on_c, 11, 70, 127
1, 325423, Note_on_c, 7, 55, 127
1, 325609, Note_off_c, 7, 55, 127
1, 325609, Note_off_c, 11, 70, 127
1, 325610, Note_on_c, 10, 69, 127
1, 325610, Note_on_c, 5, 53, 127
1, 325703, Note_off_c, 10, 69, 127
1, 325704, Note_on_c, 11, 70, 127
1, 325797, Note_off_c, 11, 70, 127
1, 325797, Note_off_c, 5, 53, 127
1, 325798, Note_on_c, 0, 72, 127
1, 325798, Note_on_c, 7, 55, 127
1, 325891, Note_off_c, 0, 72, 127
1, 325892, Note_on_c, 11, 70, 127
1, 325985, Note_off_c, 11, 70, 127
1, 325985, Note_off_c, 7, 55, 127
1, 325986, Note_on_c, 10, 69, 127
1, 325986, Note_on_c, 10, 57, 127
1, 326172, Note_off_c, 10, 57, 127
1, 326172, Note_off_c, 10, 69, 127
1, 326173, Note_on_c, 5, 77, 127
1, 326173, Note_on_c, 11, 58, 127
1, 326359, Note_off_c, 11, 58, 127
1, 326359, Note_off_c, 5, 77, 127
1, 326360, Note_on_c, 0, 72, 127
1, 326360, Note_on_c, 10, 57, 127
1, 326546, Note_off_c, 10, 57, 127
1, 326546, Note_off_c, 0, 72, 127
1, 326547, Note_on_c, 11, 70, 127
1, 326547, Note_on_c, 7, 55, 127
1, 326733, Note_off_c, 7, 55, 127
1, 326733, Note_off_c, 11, 70, 127
1, 326734, Note_on_c, 10, 69, 127
1, 326734, Note_on_c, 10, 57, 127
1, 326827, Note_off_c, 10, 69, 127
1, 326828, Note_on_c, 11, 70, 127
1, 326921, Note_off_c, 11, 70, 127
1, 326921, Note_off_c, 10, 57, 127
1, 326922, Note_on_c, 0, 72, 127
1, 326922, Note_on_c, 7, 55, 127
1, 327015, Note_off_c, 0, 72, 127
1, 327016, Note_on_c, 11, 70, 127
1, 327109, Note_off_c, 11, 70, 127
1, 327109, Note_off_c, 7, 55, 127
1, 327110, Note_on_c, 10, 69, 127
1, 327110, Note_on_c, 5, 53, 127
1, 327296, Note_off_c, 5, 53, 127
1, 327296, Note_off_c, 10, 69, 127
1, 327297, Note_on_c, 7, 79, 127
1, 327297, Note_on_c, 11, 58, 127
1, 327483, Note_off_c, 11, 58, 127
1, 327483, Note_off_c, 7, 79, 127
1, 327484, Note_on_c, 4, 76, 127
1, 327484, Note_on_c, 10, 57, 127
1, 327670, Note_off_c, 10, 57, 127
1, 327670, Note_off_c, 4, 76, 127
1, 327671, Note_on_c, 0, 72, 127
1, 327671, Note_on_c, 7, 55, 127
1, 327857, Note_off_c, 7, 55, 127
1, 327857, Note_off_c, 0, 72, 127
1, 327858, Note_on_c, 5, 77, 127
1, 327858, Note_on_c, 10, 57, 127
1, 328044, Note_off_c, 10, 57, 127
1, 328044, Note_off_c, 5, 77, 127
1, 328045, Note_on_c, 7, 79, 127
1, 328045, Note_on_c, 11, 58, 127
1, 328231, Note_off_c, 11, 58, 127
1, 328231, Note_off_c, 7, 79, 127
1, 328232, Note_on_c, 4, 76, 127
1, 328232, Note_on_c, 0, 60, 127
1, 328418, Note_off_c, 0, 60, 127
1, 328418, Note_off_c, 4, 76, 127
1, 328419, Note_on_c, 5, 77, 127
1, 328419, Note_on_c, 5, 53, 127
1, 328605, Note_off_c, 5, 53, 127
1, 328605, Note_off_c, 5, 77, 127
1, 328606, Note_on_c, 10, 81, 127
1, 328606, Note_on_c, 7, 55, 127
1, 328792, Note_off_c, 7, 55, 127
1, 328792, Note_off_c, 10, 81, 127
1, 328793, Note_on_c, 0, 72, 127
1, 328793, Note_on_c, 10, 57, 127
1, 328979, Note_off_c, 10, 57, 127
1, 328979, Note_off_c, 0, 72, 127
1, 328980, Note_on_c, 2, 74, 127
1, 328980, Note_on_c, 11, 58, 127
1, 329166, Note_off_c, 11, 58, 127
1, 329166, Note_off_c, 2, 74, 127
1, 329167, Note_on_c, 5, 77, 127
1, 329167, Note_on_c, 10, 57, 127
1, 329353, Note_off_c, 10, 57, 127
1, 329353, Note_off_c, 5, 77, 127
1, 329354, Note_on_c, 11, 70, 127
1, 329354, Note_on_c, 7, 55, 127
1, 329540, Note_off_c, 7, 55, 127
1, 329540, Note_off_c, 11, 70, 127
1, 329541, Note_on_c, 0, 72, 127
1, 329541, Note_on_c, 10, 57, 127
1, 329727, Note_off_c, 0, 72, 127
1, 329728, Note_on_c, 10, 69, 127
1, 329821, Note_off_c, 10, 69, 127
1, 329822, Note_on_c, 11, 70, 127
1, 329912, Note_off_c, 10, 57, 127
1, 329915, Note_off_c, 11, 70, 127
1, 329916, Note_on_c, 0, 72, 127
1, 330102, Note_off_c, 0, 72, 127
1, 330103, Note_on_c, 0, 72, 127
1, 330103, Note_on_c, 5, 53, 127
1, 330103, Note_on_c, 10, 57, 127
1, 330289, Note_off_c, 0, 72, 127
1, 330290, Note_on_c, 10, 69, 127
1, 330383, Note_off_c, 10, 69, 127
1, 330384, Note_on_c, 11, 70, 127
1, 330474, Note_off_c, 10, 57, 127
1, 330474, Note_off_c, 5, 53, 127
1, 330477, Note_off_c, 11, 70, 127
1, 330478, Note_on_c, 0, 72, 127
1, 330664, Note_off_c, 0, 72, 127
1, 330665, Note_on_c, 2, 74, 127
1, 330665, Note_on_c, 11, 58, 127
1, 330665, Note_on_c, 11, 46, 127
1, 330851, Note_off_c, 2, 74, 127
1, 330852, Note_on_c, 11, 70, 127
1, 330945, Note_off_c, 11, 70, 127
1, 330946, Note_on_c, 0, 72, 127
1, 331036, Note_off_c, 11, 46, 127
1, 331036, Note_off_c, 11, 58, 127
1, 331039, Note_off_c, 0, 72, 127
1, 331040, Note_on_c, 2, 74, 127
1, 331226, Note_off_c, 2, 74, 127
1, 331227, Note_on_c, 2, 74, 127
1, 331227, Note_on_c, 11, 58, 127
1, 331227, Note_on_c, 7, 55, 127
1, 331413, Note_off_c, 2, 74, 127
1, 331414, Note_on_c, 11, 70, 127
1, 331507, Note_off_c, 11, 70, 127
1, 331508, Note_on_c, 0, 72, 127
1, 331598, Note_off_c, 7, 55, 127
1, 331598, Note_off_c, 11, 58, 127
1, 331601, Note_off_c, 0, 72, 127
1, 331602, Note_on_c, 2, 74, 127
1, 331788, Note_off_c, 2, 74, 127
1, 331789, Note_on_c, 4, 76, 127
1, 331789, Note_on_c, 0, 48, 127
1, 331789, Note_on_c, 7, 55, 127
1, 331975, Note_off_c, 4, 76, 127
1, 331976, Note_on_c, 0, 72, 127
1, 332069, Note_off_c, 0, 72, 127
1, 332070, Note_on_c, 2, 74, 127
1, 332160, Note_off_c, 7, 55, 127
1, 332160, Note_off_c, 0, 48, 127
1, 332163, Note_off_c, 2, 74, 127
1, 332164, Note_on_c, 4, 76, 127
1, 332350, Note_off_c, 4, 76, 127
1, 332351, Note_on_c, 4, 76, 127
1, 332351, Note_on_c, 0, 60, 127
1, 332351, Note_on_c, 10, 57, 127
1, 332537, Note_off_c, 4, 76, 127
1, 332538, Note_on_c, 0, 72, 127
1, 332631, Note_off_c, 0, 72, 127
1, 332632, Note_on_c, 2, 74, 127
1, 332722, Note_off_c, 10, 57, 127
1, 332722, Note_off_c, 0, 60, 127
1, 332725, Note_off_c, 2, 74, 127
1, 332726, Note_on_c, 4, 76, 127
1, 332912, Note_off_c, 4, 76, 127
1, 332913, Note_on_c, 5, 77, 127
1, 332913, Note_on_c, 2, 50, 127
1, 332913, Note_on_c, 10, 57, 127
1, 333099, Note_off_c, 5, 77, 127
1, 333100, Note_on_c, 2, 74, 127
1, 333193, Note_off_c, 2, 74, 127
1, 333194, Note_on_c, 4, 76, 127
1, 333284, Note_off_c, 10, 57, 127
1, 333284, Note_off_c, 2, 50, 127
1, 333287, Note_off_c, 4, 76, 127
1, 333288, Note_on_c, 5, 77, 127
1, 333474, Note_off_c, 5, 77, 127
1, 333475, Note_on_c, 5, 77, 127
1, 333475, Note_on_c, 2, 62, 127
1, 333475, Note_on_c, 11, 58, 127
1, 333661, Note_off_c, 5, 77, 127
1, 333662, Note_on_c, 2, 74, 127
1, 333755, Note_off_c, 2, 74, 127
1, 333756, Note_on_c, 4, 76, 127
1, 333846, Note_off_c, 11, 58, 127
1, 333846, Note_off_c, 2, 62, 127
1, 333849, Note_off_c, 4, 76, 127
1, 333850, Note_on_c, 5, 77, 127
1, 334036, Note_off_c, 5, 77, 127
1, 334037, Note_on_c, 7, 79, 127
1, 334037, Note_on_c, 4, 52, 127
1, 334037, Note_on_c, 0, 60, 127
1, 334223, Note_off_c, 7, 79, 127
1, 334224, Note_on_c, 4, 76, 127
1, 334317, Note_off_c, 4, 76, 127
1, 334318, Note_on_c, 5, 77, 127
1, 334408, Note_off_c, 0, 60, 127
1, 334408, Note_off_c, 4, 52, 127
1, 334411, Note_off_c, 5, 77, 127
1, 334412, Note_on_c, 7, 79, 127
1, 334598, Note_off_c, 7, 79, 127
1, 334599, Note_on_c, 7, 79, 127
1, 334599, Note_on_c, 4, 64, 127
1, 334599, Note_on_c, 0, 60, 127
1, 334785, Note_off_c, 7, 79, 127
1, 334786, Note_on_c, 4, 76, 127
1, 334879, Note_off_c, 4, 76, 127
1, 334880, Note_on_c, 5, 77, 127
1, 334970, Note_off_c, 0, 60, 127
1, 334970, Note_off_c, 4, 64, 127
1, 334973, Note_off_c, 5, 77, 127
1, 334974, Note_on_c, 7, 79, 127
1, 335160, Note_off_c, 7, 79, 127
1, 335161, Note_on_c, 10, 81, 127
1, 335161, Note_on_c, 5, 65, 127
1, 335161, Note_on_c, 5, 53, 127
1, 335161, Note_on_c, 0, 60, 127
1, 335347, Note_off_c, 10, 81, 127
1, 335348, Note_on_c, 11, 82, 127
1, 335441, Note_off_c, 11, 82, 127
1, 335442, Note_on_c, 10, 81, 127
1, 335535, Note_off_c, 10, 81, 127
1, 335536, Note_on_c, 7, 79, 127
1, 335629, Note_off_c, 7, 79, 127
1, 335630, Note_off_c, 0, 60, 127
1, 335630, Note_off_c, 5, 53, 127
1, 335630, Note_off_c, 5, 65, 127
1, 335630, Note_on_c, 5, 77, 127
1, 335723, Note_off_c, 5, 77, 127
1, 335724, Note_on_c, 10, 81, 127
1, 335724, Note_on_c, 0, 60, 127
1, 335724, Note_on_c, 3, 51, 127
1, 335724, Note_on_c, 5, 53, 127
1, 335910, Note_off_c, 10, 81, 127
1, 335911, Note_on_c, 11, 82, 127
1, 336004, Note_off_c, 11, 82, 127
1, 336005, Note_on_c, 10, 81, 127
1, 336098, Note_off_c, 10, 81, 127
1, 336099, Note_on_c, 7, 79, 127
1, 336192, Note_off_c, 7, 79, 127
1, 336193, Note_off_c, 5, 53, 127
1, 336193, Note_off_c, 3, 51, 127
1, 336193, Note_off_c, 0, 60, 127
1, 336193, Note_on_c, 5, 77, 127
1, 336286, Note_off_c, 5, 77, 127
1, 336287, Note_on_c, 11, 82, 127
1, 336287, Note_on_c, 2, 50, 127
1, 336473, Note_off_c, 2, 50, 127
1, 336474, Note_on_c, 5, 53, 127
1, 336660, Note_off_c, 5, 53, 127
1, 336660, Note_off_c, 11, 82, 127
1, 336661, Note_on_c, 5, 77, 127
1, 336661, Note_on_c, 11, 58, 127
1, 336847, Note_off_c, 11, 58, 127
1, 336847, Note_off_c, 5, 77, 127
1, 336848, Note_on_c, 7, 79, 127
1, 336848, Note_on_c, 3, 51, 127
1, 336941, Note_off_c, 7, 79, 127
1, 336942, Note_on_c, 10, 81, 127
1, 337035, Note_off_c, 10, 81, 127
1, 337035, Note_off_c, 3, 51, 127
1, 337036, Note_on_c, 7, 79, 127
1, 337036, Note_on_c, 7, 55, 127
1, 337129, Note_off_c, 7, 79, 127
1, 337130, Note_on_c, 5, 77, 127
1, 337223, Note_off_c, 5, 77, 127
1, 337223, Note_off_c, 7, 55, 127
1, 337224, Note_on_c, 3, 75, 127
1, 337224, Note_on_c, 0, 60, 127
1, 337410, Note_off_c, 0, 60, 127
1, 337410, Note_off_c, 3, 75, 127
1, 337411, Note_on_c, 5, 77, 127
1, 337411, Note_on_c, 2, 50, 127
1, 337597, Note_off_c, 2, 50, 127
1, 337597, Note_off_c, 5, 77, 127
1, 337598, Note_on_c, 11, 82, 127
1, 337598, Note_on_c, 5, 53, 127
1, 337784, Note_off_c, 5, 53, 127
1, 337784, Note_off_c, 11, 82, 127
1, 337785, Note_on_c, 2, 74, 127
1, 337785, Note_on_c, 11, 58, 127
1, 337971, Note_off_c, 11, 58, 127
1, 337971, Note_off_c, 2, 74, 127
1, 337972, Note_on_c, 3, 75, 127
1, 337972, Note_on_c, 0, 48, 127
1, 338158, Note_off_c, 0, 48, 127
1, 338158, Note_off_c, 3, 75, 127
1, 338159, Note_on_c, 7, 79, 127
1, 338159, Note_on_c, 3, 51, 127
1, 338345, Note_off_c, 3, 51, 127
1, 338345, Note_off_c, 7, 79, 127
1, 338346, Note_on_c, 0, 72, 127
1, 338346, Note_on_c, 10, 57, 127
1, 338532, Note_off_c, 10, 57, 127
1, 338532, Note_off_c, 0, 72, 127
1, 338533, Note_on_c, 2, 74, 127
1, 338533, Note_on_c, 11, 46, 127
1, 338719, Note_off_c, 11, 46, 127
1, 338719, Note_off_c, 2, 74, 127
1, 338720, Note_on_c, 5, 77, 127
1, 338720, Note_on_c, 2, 50, 127
1, 338906, Note_off_c, 2, 50, 127
1, 338906, Note_off_c, 5, 77, 127
1, 338907, Note_on_c, 11, 70, 127
1, 338907, Note_on_c, 3, 51, 127
1, 339093, Note_off_c, 3, 51, 127
1, 339093, Note_off_c, 11, 70, 127
1, 339094, Note_on_c, 11, 70, 127
1, 339094, Note_on_c, 5, 53, 127
1, 339182, Note_off_c, 11, 70, 127
1, 339188, Note_on_c, 10, 69, 127
1, 339241, Note_on_c, 11, 70, 127
1, 339242, Note_off_c, 10, 69, 127
1, 339281, Note_off_c, 5, 53, 127
1, 339282, Note_on_c, 3, 51, 127
1, 339294, Note_on_c, 10, 69, 127
1, 339295, Note_off_c, 11, 70, 127
1, 339466, Note_off_c, 10, 69, 127
1, 339469, Note_off_c, 3, 51, 127
1, 339470, Note_on_c, 11, 70, 127
1, 339470, Note_on_c, 5, 53, 127
1, 339656, Note_off_c, 5, 53, 127
1, 339656, Note_off_c, 11, 70, 127
1, 339657, Note_on_c, 11, 70, 127
1, 339657, Note_on_c, 11, 46, 127
1, 339844, Note_on_c, 2, 74, 127
1, 339969, Note_off_c, 11, 46, 127
1, 340031, Note_on_c, 5, 77, 127
1, 340031, Note_on_c, 11, 58, 127
1, 340124, Note_off_c, 2, 74, 127
1, 340212, Note_off_c, 5, 77, 127
1, 340218, Note_off_c, 11, 58, 127
1, 340218, Note_off_c, 11, 70, 127
1, 340219, Note_on_c, 5, 77, 127
1, 340219, Note_on_c, 2, 62, 127
1, 340405, Note_off_c, 2, 62, 127
1, 340406, Note_on_c, 2, 74, 127
1, 340406, Note_on_c, 5, 65, 127
1, 340433, Note_off_c, 5, 77, 127
1, 340592, Note_off_c, 5, 65, 127
1, 340592, Note_off_c, 2, 74, 127
1, 340593, Note_on_c, 11, 70, 127
1, 340593, Note_on_c, 11, 58, 127
1, 340779, Note_off_c, 11, 58, 127
1, 340779, Note_off_c, 11, 70, 127
1, 340780, Note_on_c, 10, 69, 127
1, 340780, Note_on_c, 0, 60, 127
1, 340966, Note_off_c, 0, 60, 127
1, 340967, Note_on_c, 0, 72, 127
1, 340967, Note_on_c, 5, 65, 127
1, 341153, Note_off_c, 5, 65, 127
1, 341154, Note_on_c, 5, 77, 127
1, 341154, Note_on_c, 10, 57, 127
1, 341247, Note_off_c, 0, 72, 127
1, 341335, Note_off_c, 5, 77, 127
1, 341341, Note_off_c, 10, 57, 127
1, 341341, Note_off_c, 10, 69, 127
1, 341342, Note_on_c, 5, 77, 127
1, 341342, Note_on_c, 0, 60, 127
1, 341528, Note_off_c, 0, 60, 127
1, 341529, Note_on_c, 0, 72, 127
1, 341529, Note_on_c, 5, 65, 127
1, 341556, Note_off_c, 5, 77, 127
1, 341715, Note_off_c, 5, 65, 127
1, 341715, Note_off_c, 0, 72, 127
1, 341716, Note_on_c, 10, 69, 127
1, 341716, Note_on_c, 10, 57, 127
1, 341902, Note_off_c, 10, 57, 127
1, 341902, Note_off_c, 10, 69, 127
1, 341903, Note_on_c, 11, 70, 127
1, 341903, Note_on_c, 2, 62, 127
1, 342089, Note_off_c, 2, 62, 127
1, 342090, Note_on_c, 2, 74, 127
1, 342090, Note_on_c, 5, 65, 127
1, 342276, Note_off_c, 5, 65, 127
1, 342277, Note_on_c, 5, 77, 127
1, 342277, Note_on_c, 11, 58, 127
1, 342370, Note_off_c, 2, 74, 127
1, 342458, Note_off_c, 5, 77, 127
1, 342464, Note_off_c, 11, 58, 127
1, 342464, Note_off_c, 11, 70, 127
1, 342465, Note_on_c, 5, 77, 127
1, 342465, Note_on_c, 2, 62, 127
1, 342651, Note_off_c, 2, 62, 127
1, 342652, Note_on_c, 2, 74, 127
1, 342652, Note_on_c, 5, 65, 127
1, 342679, Note_off_c, 5, 77, 127
1, 342838, Note_off_c, 5, 65, 127
1, 342838, Note_off_c, 2, 74, 127
1, 342839, Note_on_c, 11, 70, 127
1, 342839, Note_on_c, 11, 58, 127
1, 343025, Note_off_c, 11, 58, 127
1, 343025, Note_off_c, 11, 70, 127
1, 343026, Note_on_c, 12, 71, 127
1, 343026, Note_on_c, 2, 62, 127
1, 343212, Note_off_c, 2, 62, 127
1, 343213, Note_on_c, 2, 74, 127
1, 343213, Note_on_c, 7, 67, 127
1, 343399, Note_off_c, 7, 67, 127
1, 343400, Note_on_c, 7, 79, 127
1, 343400, Note_on_c, 12, 59, 127
1, 343493, Note_off_c, 2, 74, 127
1, 343581, Note_off_c, 7, 79, 127
1, 343587, Note_off_c, 12, 59, 127
1, 343587, Note_off_c, 12, 71, 127
1, 343588, Note_on_c, 7, 79, 127
1, 343588, Note_on_c, 2, 62, 127
1, 343774, Note_off_c, 2, 62, 127
1, 343775, Note_on_c, 2, 74, 127
1, 343775, Note_on_c, 7, 67, 127
1, 343802, Note_off_c, 7, 79, 127
1, 343961, Note_off_c, 7, 67, 127
1, 343961, Note_off_c, 2, 74, 127
1, 343962, Note_on_c, 12, 71, 127
1, 343962, Note_on_c, 12, 59, 127
1, 344148, Note_off_c, 12, 59, 127
1, 344148, Note_off_c, 12, 71, 127
1, 344149, Note_on_c, 0, 72, 127
1, 344149, Note_on_c, 3, 63, 127
1, 344335, Note_off_c, 3, 63, 127
1, 344336, Note_on_c, 3, 75, 127
1, 344336, Note_on_c, 7, 67, 127
1, 344522, Note_off_c, 7, 67, 127
1, 344523, Note_on_c, 7, 79, 127
1, 344523, Note_on_c, 0, 60, 127
1, 344616, Note_off_c, 3, 75, 127
1, 344704, Note_off_c, 7, 79, 127
1, 344710, Note_off_c, 0, 60, 127
1, 344710, Note_off_c, 0, 72, 127
1, 344711, Note_on_c, 7, 79, 127
1, 344711, Note_on_c, 3, 63, 127
1, 344897, Note_off_c, 3, 63, 127
1, 344898, Note_on_c, 3, 75, 127
1, 344898, Note_on_c, 7, 67, 127
1, 344925, Note_off_c, 7, 79, 127
1, 345084, Note_off_c, 7, 67, 127
1, 345084, Note_off_c, 3, 75, 127
1, 345085, Note_on_c, 0, 72, 127
1, 345085, Note_on_c, 0, 60, 127
1, 345271, Note_off_c, 0, 60, 127
1, 345271, Note_off_c, 0, 72, 127
1, 345272, Note_on_c, 12, 71, 127
1, 345272, Note_on_c, 2, 62, 127
1, 345458, Note_off_c, 2, 62, 127
1, 345459, Note_on_c, 2, 74, 127
1, 345459, Note_on_c, 7, 67, 127
1, 345645, Note_off_c, 7, 67, 127
1, 345646, Note_on_c, 7, 79, 127
1, 345646, Note_on_c, 12, 59, 127
1, 345739, Note_off_c, 2, 74, 127
1, 345827, Note_off_c, 7, 79, 127
1, 345833, Note_off_c, 12, 59, 127
1, 345833, Note_off_c, 12, 71, 127
1, 345834, Note_on_c, 7, 79, 127
1, 345834, Note_on_c, 2, 62, 127
1, 346020, Note_off_c, 2, 62, 127
1, 346021, Note_on_c, 2, 74, 127
1, 346021, Note_on_c, 7, 67, 127
1, 346048, Note_off_c, 7, 79, 127
1, 346207, Note_off_c, 7, 67, 127
1, 346207, Note_off_c, 2, 74, 127
1, 346208, Note_on_c, 12, 71, 127
1, 346208, Note_on_c, 12, 59, 127
1, 346394, Note_off_c, 12, 59, 127
1, 346394, Note_off_c, 12, 71, 127
1, 346395, Note_on_c, 1, 73, 127
1, 346395, Note_on_c, 4, 64, 127
1, 346581, Note_off_c, 4, 64, 127
1, 346582, Note_on_c, 4, 76, 127
1, 346582, Note_on_c, 10, 69, 127
1, 346768, Note_off_c, 10, 69, 127
1, 346769, Note_on_c, 10, 81, 127
1, 346769, Note_on_c, 1, 61, 127
1, 346862, Note_off_c, 4, 76, 127
1, 346950, Note_off_c, 10, 81, 127
1, 346956, Note_off_c, 1, 61, 127
1, 346956, Note_off_c, 1, 73, 127
1, 346957, Note_on_c, 10, 81, 127
1, 346957, Note_on_c, 4, 64, 127
1, 347143, Note_off_c, 4, 64, 127
1, 347144, Note_on_c, 4, 76, 127
1, 347144, Note_on_c, 10, 69, 127
1, 347171, Note_off_c, 10, 81, 127
1, 347330, Note_off_c, 10, 69, 127
1, 347330, Note_off_c, 4, 76, 127
1, 347331, Note_on_c, 1, 73, 127
1, 347331, Note_on_c, 1, 61, 127
1, 347517, Note_off_c, 1, 61, 127
1, 347517, Note_off_c, 1, 73, 127
1, 347518, Note_on_c, 2, 74, 127
1, 347518, Note_on_c, 5, 65, 127
1, 347704, Note_off_c, 5, 65, 127
1, 347705, Note_on_c, 5, 77, 127
1, 347705, Note_on_c, 10, 69, 127
1, 347891, Note_off_c, 10, 69, 127
1, 347892, Note_on_c, 10, 81, 127
1, 347892, Note_on_c, 2, 62, 127
1, 347985, Note_off_c, 5, 77, 127
1, 348073, Note_off_c, 10, 81, 127
1, 348079, Note_off_c, 2, 62, 127
1, 348079, Note_off_c, 2, 74, 127
1, 348080, Note_on_c, 10, 81, 127
1, 348080, Note_on_c, 5, 65, 127
1, 348266, Note_off_c, 5, 65, 127
1, 348267, Note_on_c, 5, 77, 127
1, 348267, Note_on_c, 10, 69, 127
1, 348294, Note_off_c, 10, 81, 127
1, 348453, Note_off_c, 10, 69, 127
1, 348453, Note_off_c, 5, 77, 127
1, 348454, Note_on_c, 2, 74, 127
1, 348454, Note_on_c, 2, 62, 127
1, 348640, Note_off_c, 2, 62, 127
1, 348640, Note_off_c, 2, 74, 127
1, 348641, Note_on_c, 1, 73, 127
1, 348641, Note_on_c, 4, 64, 127
1, 348827, Note_off_c, 4, 64, 127
1, 348828, Note_on_c, 4, 76, 127
1, 348828, Note_on_c, 10, 69, 127
1, 349014, Note_off_c, 10, 69, 127
1, 349015, Note_on_c, 10, 81, 127
1, 349015, Note_on_c, 1, 61, 127
1, 349108, Note_off_c, 4, 76, 127
1, 349196, Note_off_c, 10, 81, 127
1, 349202, Note_off_c, 1, 61, 127
1, 349202, Note_off_c, 1, 73, 127
1, 349203, Note_on_c, 10, 81, 127
1, 349203, Note_on_c, 4, 64, 127
1, 349389, Note_off_c, 4, 64, 127
1, 349390, Note_on_c, 4, 76, 127
1, 349390, Note_on_c, 10, 69, 127
1, 349417, Note_off_c, 10, 81, 127
1, 349576, Note_off_c, 10, 69, 127
1, 349576, Note_off_c, 4, 76, 127
1, 349577, Note_on_c, 1, 73, 127
1, 349577, Note_on_c, 1, 61, 127
1, 349763, Note_off_c, 1, 61, 127
1, 349763, Note_off_c, 1, 73, 127
1, 349764, Note_on_c, 2, 74, 127
1, 349764, Note_on_c, 5, 65, 127
1, 349950, Note_off_c, 5, 65, 127
1, 349951, Note_on_c, 5, 77, 127
1, 349951, Note_on_c, 11, 70, 127
1, 350137, Note_off_c, 11, 70, 127
1, 350138, Note_on_c, 11, 82, 127
1, 350138, Note_on_c, 2, 62, 127
1, 350231, Note_off_c, 5, 77, 127
1, 350319, Note_off_c, 11, 82, 127
1, 350325, Note_off_c, 2, 62, 127
1, 350325, Note_off_c, 2, 74, 127
1, 350326, Note_on_c, 11, 82, 127
1, 350326, Note_on_c, 5, 65, 127
1, 350512, Note_off_c, 5, 65, 127
1, 350513, Note_on_c, 5, 77, 127
1, 350513, Note_on_c, 11, 70, 127
1, 350540, Note_off_c, 11, 82, 127
1, 350699, Note_off_c, 11, 70, 127
1, 350699, Note_off_c, 5, 77, 127
1, 350700, Note_on_c, 2, 74, 127
1, 350700, Note_on_c, 2, 62, 127
1, 350886, Note_off_c, 2, 62, 127
1, 350886, Note_off_c, 2, 74, 127
1, 350887, Note_on_c, 1, 73, 127
1, 350887, Note_on_c, 7, 67, 127
1, 351073, Note_off_c, 7, 67, 127
1, 351074, Note_on_c, 4, 76, 127
1, 351074, Note_on_c, 11, 70, 127
1, 351260, Note_off_c, 11, 70, 127
1, 351261, Note_on_c, 11, 82, 127
1, 351261, Note_on_c, 4, 64, 127
1, 351354, Note_off_c, 4, 76, 127
1, 351442, Note_off_c, 11, 82, 127
1, 351448, Note_off_c, 4, 64, 127
1, 351448, Note_off_c, 1, 73, 127
1, 351449, Note_on_c, 11, 82, 127
1, 351449, Note_on_c, 7, 67, 127
1, 351635, Note_off_c, 7, 67, 127
1, 351636, Note_on_c, 4, 76, 127
1, 351636, Note_on_c, 11, 70, 127
1, 351663, Note_off_c, 11, 82, 127
1, 351822, Note_off_c, 11, 70, 127
1, 351822, Note_off_c, 4, 76, 127
1, 351823, Note_on_c, 1, 73, 127
1, 351823, Note_on_c, 4, 64, 127
1, 352009, Note_off_c, 4, 64, 127
1, 352009, Note_off_c, 1, 73, 127
1, 352010, Note_on_c, 0, 72, 127
1, 352010, Note_on_c, 7, 67, 127
1, 352196, Note_off_c, 7, 67, 127
1, 352197, Note_on_c, 4, 76, 127
1, 352197, Note_on_c, 11, 70, 127
1, 352383, Note_off_c, 11, 70, 127
1, 352384, Note_on_c, 11, 82, 127
1, 352384, Note_on_c, 4, 64, 127
1, 352477, Note_off_c, 4, 76, 127
1, 352565, Note_off_c, 11, 82, 127
1, 352571, Note_off_c, 4, 64, 127
1, 352571, Note_off_c, 0, 72, 127
1, 352572, Note_on_c, 11, 82, 127
1, 352572, Note_on_c, 7, 67, 127
1, 352758, Note_off_c, 7, 67, 127
1, 352759, Note_on_c, 4, 76, 127
1, 352759, Note_on_c, 11, 70, 127
1, 352786, Note_off_c, 11, 82, 127
1, 352945, Note_off_c, 11, 70, 127
1, 352945, Note_off_c, 4, 76, 127
1, 352946, Note_on_c, 0, 72, 127
1, 352946, Note_on_c, 4, 64, 127
1, 353132, Note_off_c, 4, 64, 127
1, 353132, Note_off_c, 0, 72, 127
1, 353133, Note_on_c, 0, 72, 127
1, 353133, Note_on_c, 10, 69, 127
1, 353318, Note_off_c, 0, 72, 127
1, 353319, Note_off_c, 10, 69, 127
1, 353320, Note_on_c, 5, 77, 127
1, 353320, Note_on_c, 0, 72, 127
1, 353506, Note_off_c, 0, 72, 127
1, 353507, Note_on_c, 10, 81, 127
1, 353507, Note_on_c, 5, 65, 127
1, 353600, Note_off_c, 5, 77, 127
1, 353688, Note_off_c, 10, 81, 127
1, 353694, Note_off_c, 5, 65, 127
1, 353695, Note_on_c, 10, 81, 127
1, 353695, Note_on_c, 10, 69, 127
1, 353881, Note_off_c, 10, 69, 127
1, 353882, Note_on_c, 5, 77, 127
1, 353882, Note_on_c, 0, 72, 127
1, 353909, Note_off_c, 10, 81, 127
1, 354068, Note_off_c, 0, 72, 127
1, 354068, Note_off_c, 5, 77, 127
1, 354069, Note_on_c, 0, 72, 127
1, 354069, Note_on_c, 5, 65, 127
1, 354255, Note_off_c, 5, 65, 127
1, 354255, Note_off_c, 0, 72, 127
1, 354256, Note_on_c, 12, 71, 127
1, 354256, Note_on_c, 7, 67, 127
1, 354441, Note_off_c, 12, 71, 127
1, 354442, Note_off_c, 7, 67, 127
1, 354443, Note_on_c, 2, 74, 127
1, 354443, Note_on_c, 12, 71, 127
1, 354629, Note_off_c, 12, 71, 127
1, 354630, Note_on_c, 7, 79, 127
1, 354630, Note_on_c, 5, 65, 127
1, 354723, Note_off_c, 2, 74, 127
1, 354811, Note_off_c, 7, 79, 127
1, 354817, Note_off_c, 5, 65, 127
1, 354818, Note_on_c, 7, 79, 127
1, 354818, Note_on_c, 7, 67, 127
1, 355004, Note_off_c, 7, 67, 127
1, 355005, Note_on_c, 2, 74, 127
1, 355005, Note_on_c, 12, 71, 127
1, 355032, Note_off_c, 7, 79, 127
1, 355191, Note_off_c, 12, 71, 127
1, 355191, Note_off_c, 2, 74, 127
1, 355192, Note_on_c, 12, 71, 127
1, 355192, Note_on_c, 5, 65, 127
1, 355378, Note_off_c, 5, 65, 127
1, 355378, Note_off_c, 12, 71, 127
1, 355379, Note_on_c, 0, 72, 127
1, 355379, Note_on_c, 3, 63, 127
1, 355565, Note_off_c, 3, 63, 127
1, 355566, Note_on_c, 3, 75, 127
1, 355566, Note_on_c, 7, 67, 127
1, 355752, Note_off_c, 7, 67, 127
1, 355753, Note_on_c, 7, 79, 127
1, 355753, Note_on_c, 0, 60, 127
1, 355846, Note_off_c, 3, 75, 127
1, 355934, Note_off_c, 7, 79, 127
1, 355940, Note_off_c, 0, 60, 127
1, 355940, Note_off_c, 0, 72, 127
1, 355941, Note_on_c, 7, 79, 127
1, 355941, Note_on_c, 3, 63, 127
1, 356127, Note_off_c, 3, 63, 127
1, 356128, Note_on_c, 3, 75, 127
1, 356128, Note_on_c, 7, 67, 127
1, 356155, Note_off_c, 7, 79, 127
1, 356314, Note_off_c, 7, 67, 127
1, 356314, Note_off_c, 3, 75, 127
1, 356315, Note_on_c, 0, 72, 127
1, 356315, Note_on_c, 0, 60, 127
1, 356501, Note_off_c, 0, 60, 127
1, 356501, Note_off_c, 0, 72, 127
1, 356502, Note_on_c, 10, 69, 127
1, 356502, Note_on_c, 3, 63, 127
1, 356688, Note_off_c, 3, 63, 127
1, 356689, Note_on_c, 0, 72, 127
1, 356689, Note_on_c, 7, 67, 127
1, 356872, Note_off_c, 10, 69, 127
1, 356875, Note_off_c, 7, 67, 127
1, 356876, Note_on_c, 7, 79, 127
1, 356876, Note_on_c, 0, 60, 127
1, 356969, Note_off_c, 0, 72, 127
1, 357057, Note_off_c, 7, 79, 127
1, 357063, Note_off_c, 0, 60, 127
1, 357064, Note_on_c, 7, 79, 127
1, 357064, Note_on_c, 3, 63, 127
1, 357250, Note_off_c, 3, 63, 127
1, 357251, Note_on_c, 0, 72, 127
1, 357251, Note_on_c, 7, 67, 127
1, 357278, Note_off_c, 7, 79, 127
1, 357437, Note_off_c, 7, 67, 127
1, 357437, Note_off_c, 0, 72, 127
1, 357438, Note_on_c, 10, 69, 127
1, 357438, Note_on_c, 0, 60, 127
1, 357624, Note_off_c, 0, 60, 127
1, 357624, Note_off_c, 10, 69, 127
1, 357625, Note_on_c, 10, 69, 127
1, 357625, Note_on_c, 2, 62, 127
1, 357811, Note_off_c, 2, 62, 127
1, 357812, Note_on_c, 0, 72, 127
1, 357812, Note_on_c, 6, 66, 127
1, 357898, Note_off_c, 10, 69, 127
1, 357998, Note_off_c, 6, 66, 127
1, 357999, Note_on_c, 6, 78, 127
1, 357999, Note_on_c, 0, 60, 127
1, 358092, Note_off_c, 0, 72, 127
1, 358180, Note_off_c, 6, 78, 127
1, 358186, Note_off_c, 0, 60, 127
1, 358187, Note_on_c, 6, 78, 127
1, 358187, Note_on_c, 2, 62, 127
1, 358373, Note_off_c, 2, 62, 127
1, 358374, Note_on_c, 0, 72, 127
1, 358374, Note_on_c, 6, 66, 127
1, 358401, Note_off_c, 6, 78, 127
1, 358560, Note_off_c, 6, 66, 127
1, 358560, Note_off_c, 0, 72, 127
1, 358561, Note_on_c, 10, 69, 127
1, 358561, Note_on_c, 0, 60, 127
1, 358747, Note_off_c, 0, 60, 127
1, 358747, Note_off_c, 10, 69, 127
1, 358748, Note_on_c, 7, 79, 127
1, 358748, Note_on_c, 11, 58, 127
1, 358934, Note_off_c, 11, 58, 127
1, 358935, Note_on_c, 2, 74, 127
1, 358935, Note_on_c, 7, 67, 127
1, 359118, Note_off_c, 7, 79, 127
1, 359121, Note_off_c, 7, 67, 127
1, 359121, Note_off_c, 2, 74, 127
1, 359122, Note_on_c, 11, 70, 127
1, 359122, Note_on_c, 0, 60, 127
1, 359308, Note_off_c, 0, 60, 127
1, 359308, Note_off_c, 11, 70, 127
1, 359309, Note_on_c, 2, 74, 127
1, 359309, Note_on_c, 2, 62, 127
1, 359495, Note_off_c, 2, 62, 127
1, 359496, Note_on_c, 11, 70, 127
1, 359496, Note_on_c, 0, 60, 127
1, 359590, Note_off_c, 2, 74, 127
1, 359683, Note_off_c, 0, 60, 127
1, 359683, Note_off_c, 11, 70, 127
1, 359684, Note_on_c, 6, 66, 127
1, 359684, Note_on_c, 2, 62, 127
1, 359870, Note_off_c, 2, 62, 127
1, 359870, Note_off_c, 6, 66, 127
1, 359871, Note_on_c, 7, 67, 127
1, 359871, Note_on_c, 11, 58, 127
1, 360057, Note_off_c, 11, 58, 127
1, 360057, Note_off_c, 7, 67, 127
1, 360058, Note_on_c, 10, 69, 127
1, 360058, Note_on_c, 10, 57, 127
1, 360244, Note_off_c, 10, 57, 127
1, 360244, Note_off_c, 10, 69, 127
1, 360245, Note_on_c, 11, 70, 127
1, 360245, Note_on_c, 7, 55, 127
1, 360431, Note_off_c, 7, 55, 127
1, 360431, Note_off_c, 11, 70, 127
1, 360432, Note_on_c, 7, 67, 127
1, 360432, Note_on_c, 11, 58, 127
1, 360618, Note_off_c, 11, 58, 127
1, 360618, Note_off_c, 7, 67, 127
1, 360619, Note_on_c, 10, 69, 127
1, 360619, Note_on_c, 10, 57, 127
1, 360805, Note_off_c, 10, 57, 127
1, 360805, Note_off_c, 10, 69, 127
1, 360806, Note_on_c, 11, 70, 127
1, 360806, Note_on_c, 7, 55, 127
1, 360992, Note_off_c, 7, 55, 127
1, 360992, Note_off_c, 11, 70, 127
1, 360993, Note_on_c, 10, 69, 127
1, 360993, Note_on_c, 6, 54, 127
1, 361179, Note_off_c, 6, 54, 127
1, 361179, Note_off_c, 10, 69, 127
1, 361180, Note_on_c, 11, 70, 127
1, 361180, Note_on_c, 4, 52, 127
1, 361366, Note_off_c, 4, 52, 127
1, 361366, Note_off_c, 11, 70, 127
1, 361367, Note_on_c, 0, 72, 127
1, 361367, Note_on_c, 2, 50, 127
1, 361553, Note_off_c, 2, 50, 127
1, 361553, Note_off_c, 0, 72, 127
1, 361554, Note_on_c, 10, 69, 127
1, 361554, Note_on_c, 6, 54, 127
1, 361740, Note_off_c, 6, 54, 127
1, 361740, Note_off_c, 10, 69, 127
1, 361741, Note_on_c, 11, 70, 127
1, 361741, Note_on_c, 4, 52, 127
1, 361927, Note_off_c, 4, 52, 127
1, 361927, Note_off_c, 11, 70, 127
1, 361928, Note_on_c, 0, 72, 127
1, 361928, Note_on_c, 2, 50, 127
1, 362114, Note_off_c, 2, 50, 127
1, 362114, Note_off_c, 0, 72, 127
1, 362115, Note_on_c, 11, 70, 127
1, 362115, Note_on_c, 7, 55, 127
1, 362301, Note_off_c, 7, 55, 127
1, 362301, Note_off_c, 11, 70, 127
1, 362302, Note_on_c, 0, 72, 127
1, 362302, Note_on_c, 10, 57, 127
1, 362488, Note_off_c, 10, 57, 127
1, 362488, Note_off_c, 0, 72, 127
1, 362489, Note_on_c, 2, 74, 127
1, 362489, Note_on_c, 11, 58, 127
1, 362675, Note_off_c, 11, 58, 127
1, 362675, Note_off_c, 2, 74, 127
1, 362676, Note_on_c, 11, 70, 127
1, 362676, Note_on_c, 7, 55, 127
1, 362862, Note_off_c, 7, 55, 127
1, 362862, Note_off_c, 11, 70, 127
1, 362863, Note_on_c, 0, 72, 127
1, 362863, Note_on_c, 10, 57, 127
1, 363049, Note_off_c, 10, 57, 127
1, 363049, Note_off_c, 0, 72, 127
1, 363050, Note_on_c, 2, 74, 127
1, 363050, Note_on_c, 11, 58, 127
1, 363236, Note_off_c, 11, 58, 127
1, 363236, Note_off_c, 2, 74, 127
1, 363237, Note_on_c, 0, 72, 127
1, 363237, Note_on_c, 10, 57, 127
1, 363423, Note_off_c, 10, 57, 127
1, 363423, Note_off_c, 0, 72, 127
1, 363424, Note_on_c, 2, 74, 127
1, 363424, Note_on_c, 11, 58, 127
1, 363610, Note_off_c, 11, 58, 127
1, 363610, Note_off_c, 2, 74, 127
1, 363611, Note_on_c, 3, 75, 127
1, 363611, Note_on_c, 0, 60, 127
1, 363797, Note_off_c, 0, 60, 127
1, 363797, Note_off_c, 3, 75, 127
1, 363798, Note_on_c, 0, 72, 127
1, 363798, Note_on_c, 10, 57, 127
1, 363984, Note_off_c, 10, 57, 127
1, 363984, Note_off_c, 0, 72, 127
1, 363985, Note_on_c, 2, 74, 127
1, 363985, Note_on_c, 11, 58, 127
1, 364171, Note_off_c, 11, 58, 127
1, 364171, Note_off_c, 2, 74, 127
1, 364172, Note_on_c, 3, 75, 127
1, 364172, Note_on_c, 0, 60, 127
1, 364358, Note_off_c, 0, 60, 127
1, 364358, Note_off_c, 3, 75, 127
1, 364359, Note_on_c, 2, 74, 127
1, 364359, Note_on_c, 0, 48, 127
1, 364359, Note_on_c, 6, 54, 127
1, 364545, Note_off_c, 2, 74, 127
1, 364546, Note_on_c, 4, 76, 127
1, 364732, Note_off_c, 4, 76, 127
1, 364733, Note_on_c, 6, 78, 127
1, 364919, Note_off_c, 6, 78, 127
1, 364919, Note_off_c, 6, 54, 127
1, 364919, Note_off_c, 0, 48, 127
1, 364920, Note_on_c, 2, 74, 127
1, 365106, Note_off_c, 2, 74, 127
1, 365107, Note_on_c, 4, 76, 127
1, 365293, Note_off_c, 4, 76, 127
1, 365294, Note_on_c, 6, 78, 127
1, 365480, Note_off_c, 6, 78, 127
1, 365481, Note_on_c, 7, 79, 127
1, 365481, Note_on_c, 11, 46, 127
1, 365667, Note_off_c, 7, 79, 127
1, 365668, Note_on_c, 2, 74, 127
1, 365854, Note_off_c, 2, 74, 127
1, 365854, Note_off_c, 11, 46, 127
1, 365855, Note_on_c, 7, 79, 127
1, 365855, Note_on_c, 0, 48, 127
1, 366041, Note_off_c, 0, 48, 127
1, 366041, Note_off_c, 7, 79, 127
1, 366042, Note_on_c, 7, 79, 127
1, 366042, Note_on_c, 2, 50, 127
1, 366228, Note_off_c, 2, 50, 127
1, 366228, Note_off_c, 7, 79, 127
1, 366229, Note_on_c, 11, 82, 127
1, 366229, Note_on_c, 0, 48, 127
1, 366322, Note_off_c, 11, 82, 127
1, 366323, Note_on_c, 10, 81, 127
1, 366416, Note_off_c, 10, 81, 127
1, 366416, Note_off_c, 0, 48, 127
1, 366417, Note_on_c, 7, 79, 127
1, 366417, Note_on_c, 2, 50, 127
1, 366510, Note_off_c, 7, 79, 127
1, 366511, Note_on_c, 6, 78, 127
1, 366604, Note_off_c, 6, 78, 127
1, 366604, Note_off_c, 2, 50, 127
1, 366605, Note_on_c, 7, 79, 127
1, 366605, Note_on_c, 3, 51, 127
1, 366791, Note_off_c, 3, 51, 127
1, 366791, Note_off_c, 7, 79, 127
1, 366792, Note_on_c, 2, 74, 127
1, 366792, Note_on_c, 2, 50, 127
1, 366978, Note_off_c, 2, 50, 127
1, 366978, Note_off_c, 2, 74, 127
1, 366979, Note_on_c, 7, 79, 127
1, 366979, Note_on_c, 0, 48, 127
1, 367165, Note_off_c, 0, 48, 127
1, 367165, Note_off_c, 7, 79, 127
1, 367166, Note_on_c, 7, 79, 127
1, 367166, Note_on_c, 2, 50, 127
1, 367352, Note_off_c, 2, 50, 127
1, 367352, Note_off_c, 7, 79, 127
1, 367353, Note_on_c, 11, 82, 127
1, 367353, Note_on_c, 0, 48, 127
1, 367446, Note_off_c, 11, 82, 127
1, 367447, Note_on_c, 10, 81, 127
1, 367540, Note_off_c, 10, 81, 127
1, 367540, Note_off_c, 0, 48, 127
1, 367541, Note_on_c, 7, 79, 127
1, 367541, Note_on_c, 2, 50, 127
1, 367634, Note_off_c, 7, 79, 127
1, 367635, Note_on_c, 6, 78, 127
1, 367728, Note_off_c, 6, 78, 127
1, 367728, Note_off_c, 2, 50, 127
1, 367729, Note_on_c, 7, 79, 127
1, 367729, Note_on_c, 7, 43, 127
1, 367915, Note_off_c, 7, 43, 127
1, 367915, Note_off_c, 7, 79, 127
1, 367916, Note_on_c, 11, 82, 127
1, 367916, Note_on_c, 2, 50, 127
1, 368102, Note_off_c, 2, 50, 127
1, 368102, Note_off_c, 11, 82, 127
1, 368103, Note_on_c, 2, 74, 127
1, 368103, Note_on_c, 7, 55, 127
1, 368289, Note_off_c, 7, 55, 127
1, 368289, Note_off_c, 2, 74, 127
1, 368290, Note_on_c, 3, 75, 127
1, 368290, Note_on_c, 0, 48, 127
1, 368476, Note_off_c, 0, 48, 127
1, 368476, Note_off_c, 3, 75, 127
1, 368477, Note_on_c, 7, 79, 127
1, 368477, Note_on_c, 3, 51, 127
1, 368663, Note_off_c, 3, 51, 127
1, 368663, Note_off_c, 7, 79, 127
1, 368664, Note_on_c, 0, 72, 127
1, 368664, Note_on_c, 7, 55, 127
1, 368850, Note_off_c, 7, 55, 127
1, 368850, Note_off_c, 0, 72, 127
1, 368851, Note_on_c, 2, 74, 127
1, 368851, Note_on_c, 11, 46, 127
1, 369037, Note_off_c, 11, 46, 127
1, 369037, Note_off_c, 2, 74, 127
1, 369038, Note_on_c, 7, 79, 127
1, 369038, Note_on_c, 2, 50, 127
1, 369224, Note_off_c, 2, 50, 127
1, 369224, Note_off_c, 7, 79, 127
1, 369225, Note_on_c, 11, 70, 127
1, 369225, Note_on_c, 7, 55, 127
1, 369411, Note_off_c, 7, 55, 127
1, 369411, Note_off_c, 11, 70, 127
1, 369412, Note_on_c, 11, 70, 127
1, 369412, Note_on_c, 0, 48, 127
1, 369486, Note_on_c, 10, 69, 127
1, 369490, Note_off_c, 11, 70, 127
1, 369543, Note_on_c, 11, 70, 127
1, 369545, Note_off_c, 10, 69, 127
1, 369600, Note_on_c, 10, 69, 127
1, 369600, Note_on_c, 7, 55, 127
1, 369602, Note_off_c, 11, 70, 127
1, 369783, Note_off_c, 0, 48, 127
1, 369786, Note_off_c, 7, 55, 127
1, 369786, Note_off_c, 10, 69, 127
1, 369787, Note_on_c, 7, 67, 127
1, 369787, Note_on_c, 2, 50, 127
1, 369787, Note_on_c, 6, 54, 127
1, 369973, Note_off_c, 6, 54, 127
1, 369973, Note_off_c, 2, 50, 127
1, 369973, Note_off_c, 7, 67, 127
1, 369974, Note_on_c, 7, 67, 127
1, 369974, Note_on_c, 7, 43, 127
1, 370160, Note_off_c, 7, 43, 127
1, 370169, Note_on_c, 10, 57, 127
1, 370355, Note_off_c, 10, 57, 127
1, 370356, Note_on_c, 7, 55, 127
1, 370534, Note_off_c, 7, 67, 127
1, 370542, Note_off_c, 7, 55, 127
1, 370543, Note_on_c, 6, 54, 127
1, 370729, Note_off_c, 6, 54, 127
1, 370730, Note_on_c, 2, 74, 127
1, 370730, Note_on_c, 4, 52, 127
1, 370916, Note_off_c, 4, 52, 127
1, 370916, Note_off_c, 2, 74, 127
1, 370917, Note_on_c, 0, 72, 127
1, 370917, Note_on_c, 2, 50, 127
1, 371103, Note_off_c, 2, 50, 127
1, 371103, Note_off_c, 0, 72, 127
1, 371104, Note_on_c, 12, 71, 127
1, 371104, Note_on_c, 7, 55, 127
1, 371290, Note_off_c, 12, 71, 127
1, 371291, Note_on_c, 10, 69, 127
1, 371477, Note_off_c, 10, 69, 127
1, 371477, Note_off_c, 7, 55, 127
1, 371478, Note_on_c, 7, 67, 127
1, 371478, Note_on_c, 7, 43, 127
1, 371663, Note_off_c, 7, 43, 127
1, 371664, Note_off_c, 7, 67, 127
1, 371665, Note_on_c, 0, 72, 127
1, 371747, Note_off_c, 0, 72, 127
1, 371747, Note_on_c, 12, 71, 127
1, 371800, Note_on_c, 0, 72, 127
1, 371801, Note_off_c, 12, 71, 127
1, 371853, Note_on_c, 12, 71, 127
1, 371853, Note_on_c, 7, 55, 127
1, 371854, Note_off_c, 0, 72, 127
1, 372039, Note_off_c, 7, 55, 127
1, 372039, Note_off_c, 12, 71, 127
1, 372040, Note_on_c, 0, 72, 127
1, 372040, Note_on_c, 5, 53, 127
1, 372226, Note_off_c, 5, 53, 127
1, 372226, Note_off_c, 0, 72, 127
1, 372227, Note_on_c, 0, 72, 127
1, 372227, Note_on_c, 3, 51, 127
1, 372413, Note_off_c, 3, 51, 127
1, 372414, Note_on_c, 2, 50, 127
1, 372600, Note_off_c, 2, 50, 127
1, 372601, Note_on_c, 0, 48, 127
1, 372787, Note_off_c, 0, 48, 127
1, 372787, Note_off_c, 0, 72, 127
1, 372788, Note_on_c, 0, 60, 127
1, 372974, Note_off_c, 0, 60, 127
1, 372975, Note_on_c, 3, 75, 127
1, 372975, Note_on_c, 7, 55, 127
1, 373161, Note_off_c, 7, 55, 127
1, 373161, Note_off_c, 3, 75, 127
1, 373162, Note_on_c, 2, 74, 127
1, 373162, Note_on_c, 11, 58, 127
1, 373348, Note_off_c, 11, 58, 127
1, 373348, Note_off_c, 2, 74, 127
1, 373349, Note_on_c, 1, 73, 127
1, 373349, Note_on_c, 10, 57, 127
1, 373535, Note_off_c, 1, 73, 127
1, 373536, Note_on_c, 12, 71, 127
1, 373722, Note_off_c, 12, 71, 127
1, 373722, Note_off_c, 10, 57, 127
1, 373723, Note_on_c, 10, 69, 127
1, 373723, Note_on_c, 10, 45, 127
1, 373908, Note_off_c, 10, 45, 127
1, 373909, Note_off_c, 10, 69, 127
1, 373910, Note_on_c, 2, 74, 127
1, 373991, Note_off_c, 2, 74, 127
1, 373992, Note_on_c, 1, 73, 127
1, 374045, Note_on_c, 2, 74, 127
1, 374046, Note_off_c, 1, 73, 127
1, 374098, Note_on_c, 1, 73, 127
1, 374098, Note_on_c, 10, 57, 127
1, 374099, Note_off_c, 2, 74, 127
1, 374284, Note_off_c, 10, 57, 127
1, 374284, Note_off_c, 1, 73, 127
1, 374285, Note_on_c, 2, 74, 127
1, 374285, Note_on_c, 7, 55, 127
1, 374471, Note_off_c, 7, 55, 127
1, 374471, Note_off_c, 2, 74, 127
1, 374472, Note_on_c, 2, 74, 127
1, 374472, Note_on_c, 5, 53, 127
1, 374658, Note_off_c, 5, 53, 127
1, 374659, Note_on_c, 4, 52, 127
1, 374845, Note_off_c, 4, 52, 127
1, 374846, Note_on_c, 2, 50, 127
1, 375032, Note_off_c, 2, 50, 127
1, 375032, Note_off_c, 2, 74, 127
1, 375033, Note_on_c, 2, 62, 127
1, 375219, Note_off_c, 2, 62, 127
1, 375220, Note_on_c, 5, 77, 127
1, 375220, Note_on_c, 10, 57, 127
1, 375406, Note_off_c, 10, 57, 127
1, 375406, Note_off_c, 5, 77, 127
1, 375407, Note_on_c, 3, 75, 127
1, 375407, Note_on_c, 0, 60, 127
1, 375593, Note_off_c, 0, 60, 127
1, 375593, Note_off_c, 3, 75, 127
1, 375594, Note_on_c, 2, 74, 127
1, 375594, Note_on_c, 11, 58, 127
1, 375780, Note_off_c, 11, 58, 127
1, 375780, Note_off_c, 2, 74, 127
1, 375781, Note_on_c, 0, 72, 127
1, 375781, Note_on_c, 2, 50, 127
1, 375967, Note_off_c, 2, 50, 127
1, 375967, Note_off_c, 0, 72, 127
1, 375968, Note_on_c, 11, 70, 127
1, 375968, Note_on_c, 3, 51, 127
1, 376154, Note_off_c, 3, 51, 127
1, 376154, Note_off_c, 11, 70, 127
1, 376155, Note_on_c, 11, 70, 127
1, 376155, Note_on_c, 5, 53, 127
1, 376245, Note_on_c, 10, 69, 127
1, 376248, Note_off_c, 11, 70, 127
1, 376291, Note_off_c, 10, 69, 127
1, 376294, Note_on_c, 11, 70, 127
1, 376340, Note_off_c, 11, 70, 127
1, 376342, Note_off_c, 5, 53, 127
1, 376343, Note_on_c, 10, 69, 127
1, 376343, Note_on_c, 3, 51, 127
1, 376389, Note_off_c, 10, 69, 127
1, 376392, Note_on_c, 11, 70, 127
1, 376438, Note_off_c, 11, 70, 127
1, 376441, Note_on_c, 10, 69, 127
1, 376530, Note_off_c, 3, 51, 127
1, 376531, Note_on_c, 11, 70, 127
1, 376531, Note_on_c, 5, 53, 127
1, 376534, Note_off_c, 10, 69, 127
1, 376717, Note_off_c, 5, 53, 127
1, 376717, Note_off_c, 11, 70, 127
1, 376718, Note_on_c, 11, 70, 127
1, 376718, Note_on_c, 11, 46, 127
1, 376904, Note_off_c, 11, 70, 127
1, 376905, Note_on_c, 11, 82, 127
1, 377091, Note_off_c, 11, 82, 127
1, 377091, Note_off_c, 11, 46, 127
1, 377092, Note_on_c, 2, 74, 127
1, 377092, Note_on_c, 11, 58, 127
1, 377278, Note_off_c, 11, 58, 127
1, 377278, Note_off_c, 2, 74, 127
1, 377279, Note_on_c, 3, 75, 127
1, 377279, Note_on_c, 3, 51, 127
1, 377465, Note_off_c, 3, 51, 127
1, 377465, Note_off_c, 3, 75, 127
1, 377466, Note_on_c, 7, 79, 127
1, 377466, Note_on_c, 7, 55, 127
1, 377652, Note_off_c, 7, 55, 127
1, 377652, Note_off_c, 7, 79, 127
1, 377653, Note_on_c, 0, 72, 127
1, 377653, Note_on_c, 0, 60, 127
1, 377839, Note_off_c, 0, 60, 127
1, 377839, Note_off_c, 0, 72, 127
1, 377840, Note_on_c, 2, 74, 127
1, 377840, Note_on_c, 2, 50, 127
1, 378026, Note_off_c, 2, 50, 127
1, 378026, Note_off_c, 2, 74, 127
1, 378027, Note_on_c, 5, 77, 127
1, 378027, Note_on_c, 5, 53, 127
1, 378213, Note_off_c, 5, 53, 127
1, 378213, Note_off_c, 5, 77, 127
1, 378214, Note_on_c, 11, 70, 127
1, 378214, Note_on_c, 11, 58, 127
1, 378400, Note_off_c, 11, 58, 127
1, 378400, Note_off_c, 11, 70, 127
1, 378401, Note_on_c, 0, 72, 127
1, 378401, Note_on_c, 3, 51, 127
1, 378587, Note_off_c, 0, 72, 127
1, 378588, Note_on_c, 3, 75, 127
1, 378588, Note_on_c, 0, 60, 127
1, 378771, Note_off_c, 3, 51, 127
1, 378774, Note_off_c, 3, 75, 127
1, 378775, Note_on_c, 10, 69, 127
1, 378775, Note_on_c, 5, 53, 127
1, 378958, Note_off_c, 0, 60, 127
1, 378961, Note_off_c, 5, 53, 127
1, 378961, Note_off_c, 10, 69, 127
1, 378962, Note_on_c, 11, 70, 127
1, 378962, Note_on_c, 2, 62, 127
1, 378962, Note_on_c, 11, 58, 127
1, 379148, Note_off_c, 11, 70, 127
1, 379149, Note_on_c, 2, 74, 127
1, 379242, Note_off_c, 2, 74, 127
1, 379243, Note_on_c, 0, 72, 127
1, 379336, Note_off_c, 0, 72, 127
1, 379337, Note_on_c, 11, 70, 127
1, 379430, Note_off_c, 11, 70, 127
1, 379431, Note_on_c, 10, 69, 127
1, 379524, Note_off_c, 10, 69, 127
1, 379524, Note_off_c, 11, 58, 127
1, 379524, Note_off_c, 2, 62, 127
1, 379525, Note_on_c, 11, 70, 127
1, 379711, Note_off_c, 11, 70, 127
1, 379712, Note_on_c, 2, 74, 127
1, 379805, Note_off_c, 2, 74, 127
1, 379806, Note_on_c, 0, 72, 127
1, 379899, Note_off_c, 0, 72, 127
1, 379900, Note_on_c, 11, 70, 127
1, 379993, Note_off_c, 11, 70, 127
1, 379994, Note_on_c, 10, 69, 127
1, 380087, Note_off_c, 10, 69, 127
1, 380088, Note_on_c, 11, 70, 127
1, 380088, Note_on_c, 5, 53, 127
1, 380088, Note_on_c, 11, 58, 127
1, 380088, Note_on_c, 11, 46, 127
1, 380088, Note_on_c, 2, 50, 127
1, 380274, Note_off_c, 11, 70, 127
1, 380275, Note_on_c, 2, 74, 127
1, 380368, Note_off_c, 2, 74, 127
1, 380369, Note_on_c, 0, 72, 127
1, 380462, Note_off_c, 0, 72, 127
1, 380463, Note_on_c, 11, 70, 127
1, 380556, Note_off_c, 11, 70, 127
1, 380557, Note_on_c, 10, 69, 127
1, 380650, Note_off_c, 10, 69, 127
1, 380650, Note_off_c, 2, 50, 127
1, 380650, Note_off_c, 11, 46, 127
1, 380650, Note_off_c, 11, 58, 127
1, 380650, Note_off_c, 5, 53, 127
1, 380651, Note_on_c, 11, 70, 127
1, 380837, Note_off_c, 11, 70, 127
1, 380838, Note_on_c, 2, 74, 127
1, 380931, Note_off_c, 2, 74, 127
1, 380932, Note_on_c, 0, 72, 127
1, 381025, Note_off_c, 0, 72, 127
1, 381026, Note_on_c, 11, 70, 127
1, 381119, Note_off_c, 11, 70, 127
1, 381120, Note_on_c, 10, 69, 127
1, 381213, Note_off_c, 10, 69, 127
1, 381214, Note_on_c, 11, 70, 127
1, 381214, Note_on_c, 11, 58, 127
1, 381400, Note_off_c, 11, 58, 127
1, 381400, Note_off_c, 11, 70, 127
1, 381417, Note_on_c, 2, 50, 127
1, 381417, Note_on_c, 2, 62, 127
1, 381510, Note_off_c, 2, 62, 127
1, 381510, Note_off_c, 2, 50, 127
1, 381511, Note_on_c, 3, 51, 127
1, 381511, Note_on_c, 3, 63, 127
1, 381604, Note_off_c, 3, 63, 127
1, 381604, Note_off_c, 3, 51, 127
1, 381605, Note_on_c, 5, 53, 127
1, 381605, Note_on_c, 5, 65, 127
1, 381791, Note_off_c, 5, 65, 127
1, 381791, Note_off_c, 5, 53, 127
1, 381792, Note_on_c, 5, 53, 127
1, 381792, Note_on_c, 5, 65, 127
1, 381978, Note_off_c, 5, 65, 127
1, 381978, Note_off_c, 5, 53, 127
1, 381979, Note_on_c, 2, 50, 127
1, 381979, Note_on_c, 2, 62, 127
1, 382072, Note_off_c, 2, 62, 127
1, 382072, Note_off_c, 2, 50, 127
1, 382073, Note_on_c, 3, 51, 127
1, 382073, Note_on_c, 3, 63, 127
1, 382166, Note_off_c, 3, 63, 127
1, 382166, Note_off_c, 3, 51, 127
1, 382167, Note_on_c, 5, 53, 127
1, 382167, Note_on_c, 5, 65, 127
1, 382353, Note_off_c, 5, 65, 127
1, 382353, Note_off_c, 5, 53, 127
1, 382354, Note_on_c, 5, 53, 127
1, 382354, Note_on_c, 5, 65, 127
1, 382540, Note_off_c, 5, 65, 127
1, 382540, Note_off_c, 5, 53, 127
1, 382541, Note_on_c, 2, 50, 127
1, 382541, Note_on_c, 2, 62, 127
1, 382634, Note_off_c, 2, 62, 127
1, 382634, Note_off_c, 2, 50, 127
1, 382635, Note_on_c, 3, 51, 127
1, 382635, Note_on_c, 3, 63, 127
1, 382728, Note_off_c, 3, 63, 127
1, 382728, Note_off_c, 3, 51, 127
1, 382729, Note_on_c, 5, 53, 127
1, 382729, Note_on_c, 5, 65, 127
1, 382915, Note_off_c, 5, 65, 127
1, 382915, Note_off_c, 5, 53, 127
1, 382916, Note_on_c, 5, 53, 127
1, 382916, Note_on_c, 5, 65, 127
1, 383102, Note_off_c, 5, 65, 127
1, 383102, Note_off_c, 5, 53, 127
1, 383103, Note_on_c, 2, 50, 127
1, 383103, Note_on_c, 2, 62, 127
1, 383196, Note_off_c, 2, 62, 127
1, 383196, Note_off_c, 2, 50, 127
1, 383197, Note_on_c, 3, 51, 127
1, 383197, Note_on_c, 3, 63, 127
1, 383290, Note_off_c, 3, 63, 127
1, 383290, Note_off_c, 3, 51, 127
1, 383291, Note_on_c, 5, 53, 127
1, 383291, Note_on_c, 5, 65, 127
1, 383477, Note_off_c, 5, 65, 127
1, 383477, Note_off_c, 5, 53, 127
1, 383526, Note_on_c, 11, 58, 127
1, 383526, Note_on_c, 11, 46, 127
1, 385380, Note_off_c, 11, 46, 127
1, 385380, Note_off_c, 11, 58, 127
1, 391680, End_track
0, 0, End_of_file
