0, 0, Header, 0, 1, 384
1, 0, Start_track
1, 0, Copyright_t, "(C) John Sankey 1998"
1, 0, Program_c, 0, 6
1, 0, Pitch_bend_c, 0, 8192
1, 0, Program_c, 1, 6
1, 0, Pitch_bend_c, 1, 7792
1, 0, Program_c, 2, 6
1, 0, Pitch_bend_c, 2, 7876
1, 0, Program_c, 3, 6
1, 0, Pitch_bend_c, 3, 7952
1, 0, Program_c, 4, 6
1, 0, Pitch_bend_c, 4, 7792
1, 0, Program_c, 5, 6
1, 0, Pitch_bend_c, 5, 8112
1, 0, Program_c, 6, 6
1, 0, Pitch_bend_c, 6, 7712
1, 0, Program_c, 7, 6
1, 0, Pitch_bend_c, 7, 8037
1, 0, Program_c, 8, 6
1, 0, Pitch_bend_c, 8, 7872
1, 0, Program_c, 10, 6
1, 0, Pitch_bend_c, 10, 7712
1, 0, Program_c, 11, 6
1, 0, Pitch_bend_c, 11, 8032
1, 0, Program_c, 12, 6
1, 0, Pitch_bend_c, 12, 7872
1, 0, Tempo, 500000
1, 48, Note_on_c, 2, 74, 127
1, 648, Note_off_c, 2, 74, 127
1, 654, Note_on_c, 11, 70, 127
1, 957, Note_on_c, 2, 62, 127
1, 1102, Note_off_c, 11, 70, 127
1, 1107, Note_off_c, 2, 62, 127
1, 1109, Note_on_c, 0, 60, 127
1, 1109, Note_on_c, 10, 69, 127
1, 1257, Note_off_c, 10, 69, 127
1, 1259, Note_off_c, 0, 60, 127
1, 1261, Note_on_c, 11, 58, 127
1, 1261, Note_on_c, 7, 67, 127
1, 1411, Note_off_c, 11, 58, 127
1, 1413, Note_on_c, 0, 60, 127
1, 1563, Note_off_c, 0, 60, 127
1, 1565, Note_on_c, 11, 58, 127
1, 1565, Note_on_c, 2, 62, 127
1, 1713, Note_off_c, 2, 62, 127
1, 1715, Note_off_c, 11, 58, 127
1, 1717, Note_on_c, 10, 57, 127
1, 1717, Note_on_c, 0, 60, 127
1, 1858, Note_off_c, 7, 67, 127
1, 1866, Note_off_c, 0, 60, 127
1, 1868, Note_off_c, 10, 57, 127
1, 1870, Note_on_c, 7, 55, 127
1, 1870, Note_on_c, 11, 58, 127
1, 2020, Note_off_c, 7, 55, 127
1, 2022, Note_on_c, 10, 57, 127
1, 2167, Note_off_c, 11, 58, 127
1, 2172, Note_off_c, 10, 57, 127
1, 2174, Note_on_c, 7, 55, 127
1, 2174, Note_on_c, 11, 70, 127
1, 2174, Note_on_c, 2, 74, 127
1, 2174, Note_on_c, 7, 67, 127
1, 2324, Note_off_c, 7, 55, 127
1, 2326, Note_on_c, 5, 53, 127
1, 2471, Note_off_c, 7, 67, 127
1, 2471, Note_off_c, 2, 74, 127
1, 2471, Note_off_c, 11, 70, 127
1, 2476, Note_off_c, 5, 53, 127
1, 2478, Note_on_c, 3, 51, 127
1, 2478, Note_on_c, 11, 70, 127
1, 2478, Note_on_c, 7, 67, 127
1, 2478, Note_on_c, 7, 79, 127
1, 2626, Note_off_c, 3, 51, 127
1, 2629, Note_on_c, 3, 51, 127
1, 2774, Note_off_c, 7, 79, 127
1, 2774, Note_off_c, 7, 67, 127
1, 2774, Note_off_c, 11, 70, 127
1, 2779, Note_off_c, 3, 51, 127
1, 2781, Note_on_c, 2, 50, 127
1, 2781, Note_on_c, 3, 75, 127
1, 2781, Note_on_c, 10, 69, 127
1, 2781, Note_on_c, 7, 79, 127
1, 2931, Note_off_c, 2, 50, 127
1, 2933, Note_on_c, 0, 48, 127
1, 3078, Note_off_c, 7, 79, 127
1, 3078, Note_off_c, 10, 69, 127
1, 3078, Note_off_c, 3, 75, 127
1, 3083, Note_off_c, 0, 48, 127
1, 3085, Note_on_c, 2, 50, 127
1, 3085, Note_on_c, 10, 69, 127
1, 3085, Note_on_c, 6, 78, 127
1, 3382, Note_off_c, 6, 78, 127
1, 3387, Note_off_c, 2, 50, 127
1, 3389, Note_on_c, 2, 38, 127
1, 3389, Note_on_c, 4, 76, 127
1, 3537, Note_off_c, 4, 76, 127
1, 3540, Note_on_c, 6, 78, 127
1, 3681, Note_off_c, 10, 69, 127
1, 3689, Note_off_c, 6, 78, 127
1, 3691, Note_off_c, 2, 38, 127
1, 3693, Note_on_c, 7, 43, 127
1, 3693, Note_on_c, 7, 79, 127
1, 3693, Note_on_c, 11, 70, 127
1, 3693, Note_on_c, 7, 67, 127
1, 3990, Note_off_c, 11, 70, 127
1, 3990, Note_off_c, 7, 79, 127
1, 3996, Note_on_c, 2, 74, 127
1, 4288, Note_off_c, 7, 67, 127
1, 4293, Note_off_c, 2, 74, 127
1, 4293, Note_off_c, 7, 43, 127
1, 4299, Note_on_c, 11, 70, 127
1, 4596, Note_off_c, 11, 70, 127
1, 4602, Note_on_c, 2, 62, 127
1, 4602, Note_on_c, 11, 58, 127
1, 4602, Note_on_c, 7, 67, 127
1, 4899, Note_off_c, 7, 67, 127
1, 4904, Note_off_c, 11, 58, 127
1, 4904, Note_off_c, 2, 62, 127
1, 4906, Note_on_c, 0, 60, 127
1, 4906, Note_on_c, 10, 57, 127
1, 4906, Note_on_c, 5, 77, 127
1, 5203, Note_off_c, 5, 77, 127
1, 5209, Note_on_c, 0, 72, 127
1, 5506, Note_off_c, 0, 72, 127
1, 5512, Note_on_c, 10, 69, 127
1, 5664, Note_off_c, 10, 57, 127
1, 5664, Note_off_c, 0, 60, 127
1, 5809, Note_off_c, 10, 69, 127
1, 5815, Note_on_c, 10, 57, 127
1, 5815, Note_on_c, 0, 60, 127
1, 5815, Note_on_c, 5, 65, 127
1, 6112, Note_off_c, 5, 65, 127
1, 6117, Note_off_c, 0, 60, 127
1, 6117, Note_off_c, 10, 57, 127
1, 6119, Note_on_c, 11, 58, 127
1, 6119, Note_on_c, 7, 55, 127
1, 6119, Note_on_c, 3, 75, 127
1, 6416, Note_off_c, 3, 75, 127
1, 6422, Note_on_c, 11, 70, 127
1, 6719, Note_off_c, 11, 70, 127
1, 6725, Note_on_c, 7, 67, 127
1, 6877, Note_off_c, 7, 55, 127
1, 6877, Note_off_c, 11, 58, 127
1, 7022, Note_off_c, 7, 67, 127
1, 7028, Note_on_c, 7, 55, 127
1, 7028, Note_on_c, 11, 58, 127
1, 7028, Note_on_c, 3, 63, 127
1, 7325, Note_off_c, 3, 63, 127
1, 7330, Note_off_c, 11, 58, 127
1, 7330, Note_off_c, 7, 55, 127
1, 7332, Note_on_c, 10, 57, 127
1, 7332, Note_on_c, 6, 54, 127
1, 7332, Note_on_c, 2, 74, 127
1, 7629, Note_off_c, 2, 74, 127
1, 7635, Note_on_c, 10, 69, 127
1, 7932, Note_off_c, 10, 69, 127
1, 7938, Note_on_c, 6, 66, 127
1, 8153, Note_off_c, 6, 54, 127
1, 8153, Note_off_c, 10, 57, 127
1, 8235, Note_off_c, 6, 66, 127
1, 8241, Note_on_c, 11, 58, 127
1, 8241, Note_on_c, 7, 55, 127
1, 8241, Note_on_c, 2, 62, 127
1, 8538, Note_off_c, 2, 62, 127
1, 8543, Note_off_c, 7, 55, 127
1, 8543, Note_off_c, 11, 58, 127
1, 8545, Note_on_c, 10, 57, 127
1, 8545, Note_on_c, 0, 60, 127
1, 8545, Note_on_c, 0, 72, 127
1, 8842, Note_off_c, 0, 72, 127
1, 8847, Note_off_c, 0, 60, 127
1, 8847, Note_off_c, 10, 57, 127
1, 8849, Note_on_c, 11, 58, 127
1, 8849, Note_on_c, 2, 62, 127
1, 8849, Note_on_c, 10, 69, 127
1, 8997, Note_off_c, 10, 69, 127
1, 9000, Note_on_c, 11, 70, 127
1, 9148, Note_off_c, 11, 70, 127
1, 9150, Note_off_c, 2, 62, 127
1, 9150, Note_off_c, 11, 58, 127
1, 9152, Note_on_c, 10, 57, 127
1, 9152, Note_on_c, 0, 60, 127
1, 9152, Note_on_c, 0, 72, 127
1, 9449, Note_off_c, 0, 72, 127
1, 9454, Note_off_c, 0, 60, 127
1, 9454, Note_off_c, 10, 57, 127
1, 9456, Note_on_c, 11, 58, 127
1, 9456, Note_on_c, 7, 55, 127
1, 9456, Note_on_c, 0, 72, 127
1, 9753, Note_off_c, 0, 72, 127
1, 9758, Note_off_c, 7, 55, 127
1, 9758, Note_off_c, 11, 58, 127
1, 9760, Note_on_c, 10, 57, 127
1, 9760, Note_on_c, 6, 54, 127
1, 9760, Note_on_c, 0, 72, 127
1, 10057, Note_off_c, 0, 72, 127
1, 10062, Note_off_c, 6, 54, 127
1, 10062, Note_off_c, 10, 57, 127
1, 10064, Note_on_c, 7, 55, 127
1, 10064, Note_on_c, 4, 52, 127
1, 10064, Note_on_c, 10, 69, 127
1, 10212, Note_off_c, 10, 69, 127
1, 10215, Note_on_c, 11, 70, 127
1, 10363, Note_off_c, 11, 70, 127
1, 10365, Note_off_c, 4, 52, 127
1, 10365, Note_off_c, 7, 55, 127
1, 10367, Note_on_c, 6, 54, 127
1, 10367, Note_on_c, 2, 50, 127
1, 10367, Note_on_c, 0, 72, 127
1, 10664, Note_off_c, 0, 72, 127
1, 10669, Note_off_c, 2, 50, 127
1, 10669, Note_off_c, 6, 54, 127
1, 10671, Note_on_c, 7, 55, 127
1, 10671, Note_on_c, 4, 52, 127
1, 10671, Note_on_c, 0, 72, 127
1, 10968, Note_off_c, 0, 72, 127
1, 10973, Note_off_c, 4, 52, 127
1, 10973, Note_off_c, 7, 55, 127
1, 10975, Note_on_c, 10, 57, 127
1, 10975, Note_on_c, 6, 54, 127
1, 10975, Note_on_c, 3, 75, 127
1, 11272, Note_off_c, 3, 75, 127
1, 11277, Note_off_c, 6, 54, 127
1, 11277, Note_off_c, 10, 57, 127
1, 11279, Note_on_c, 11, 58, 127
1, 11279, Note_on_c, 7, 55, 127
1, 11279, Note_on_c, 0, 72, 127
1, 11427, Note_off_c, 0, 72, 127
1, 11430, Note_on_c, 2, 74, 127
1, 11578, Note_off_c, 2, 74, 127
1, 11580, Note_off_c, 7, 55, 127
1, 11580, Note_off_c, 11, 58, 127
1, 11582, Note_on_c, 10, 57, 127
1, 11582, Note_on_c, 0, 60, 127
1, 11582, Note_on_c, 3, 75, 127
1, 11879, Note_off_c, 3, 75, 127
1, 11884, Note_off_c, 0, 60, 127
1, 11884, Note_off_c, 10, 57, 127
1, 11886, Note_on_c, 11, 58, 127
1, 11886, Note_on_c, 2, 62, 127
1, 11886, Note_on_c, 3, 75, 127
1, 12183, Note_off_c, 3, 75, 127
1, 12188, Note_off_c, 2, 62, 127
1, 12188, Note_off_c, 11, 58, 127
1, 12190, Note_on_c, 3, 63, 127
1, 12190, Note_on_c, 0, 60, 127
1, 12190, Note_on_c, 3, 75, 127
1, 12190, Note_on_c, 6, 66, 127
1, 12190, Note_on_c, 0, 72, 127
1, 12190, Note_on_c, 10, 69, 127
1, 12492, Note_off_c, 0, 60, 127
1, 12494, Note_on_c, 10, 57, 127
1, 12644, Note_off_c, 10, 57, 127
1, 12646, Note_on_c, 11, 58, 127
1, 12791, Note_off_c, 3, 63, 127
1, 12796, Note_off_c, 11, 58, 127
1, 12798, Note_on_c, 0, 60, 127
1, 12945, Note_off_c, 10, 69, 127
1, 12945, Note_off_c, 0, 72, 127
1, 12945, Note_off_c, 6, 66, 127
1, 12945, Note_off_c, 3, 75, 127
1, 13100, Note_off_c, 0, 60, 127
1, 13102, Note_on_c, 0, 48, 127
1, 13102, Note_on_c, 10, 57, 127
1, 13102, Note_on_c, 6, 66, 127
1, 13102, Note_on_c, 2, 62, 127
1, 13399, Note_off_c, 2, 62, 127
1, 13399, Note_off_c, 6, 66, 127
1, 13404, Note_off_c, 10, 57, 127
1, 13404, Note_off_c, 0, 48, 127
1, 13406, Note_on_c, 11, 46, 127
1, 13406, Note_on_c, 7, 55, 127
1, 13406, Note_on_c, 7, 67, 127
1, 13406, Note_on_c, 2, 62, 127
1, 13708, Note_off_c, 11, 46, 127
1, 13710, Note_on_c, 0, 48, 127
1, 13855, Note_off_c, 7, 67, 127
1, 13861, Note_on_c, 10, 69, 127
1, 14002, Note_off_c, 2, 62, 127
1, 14007, Note_off_c, 7, 55, 127
1, 14010, Note_off_c, 10, 69, 127
1, 14012, Note_off_c, 0, 48, 127
1, 14014, Note_on_c, 2, 50, 127
1, 14014, Note_on_c, 6, 66, 127
1, 14014, Note_on_c, 11, 70, 127
1, 14113, Note_off_c, 11, 70, 127
1, 14115, Note_on_c, 10, 69, 127
1, 14164, Note_off_c, 10, 69, 127
1, 14166, Note_on_c, 11, 70, 127
1, 14215, Note_off_c, 11, 70, 127
1, 14217, Note_on_c, 10, 69, 127
1, 14266, Note_off_c, 10, 69, 127
1, 14268, Note_on_c, 11, 70, 127
1, 14317, Note_off_c, 11, 70, 127
1, 14319, Note_on_c, 2, 38, 127
1, 14319, Note_on_c, 10, 69, 127
1, 14464, Note_off_c, 6, 66, 127
1, 14467, Note_off_c, 10, 69, 127
1, 14470, Note_on_c, 7, 67, 127
1, 14615, Note_off_c, 2, 50, 127
1, 14618, Note_off_c, 7, 67, 127
1, 14620, Note_off_c, 2, 38, 127
1, 14622, Note_on_c, 7, 43, 127
1, 14622, Note_on_c, 7, 67, 127
1, 14925, Note_on_c, 7, 79, 127
1, 15217, Note_off_c, 7, 67, 127
1, 15222, Note_off_c, 7, 79, 127
1, 15222, Note_off_c, 7, 43, 127
1, 15228, Note_on_c, 2, 74, 127
1, 15380, Note_on_c, 7, 55, 127
1, 15525, Note_off_c, 2, 74, 127
1, 15530, Note_off_c, 7, 55, 127
1, 15532, Note_on_c, 5, 53, 127
1, 15532, Note_on_c, 11, 70, 127
1, 15682, Note_off_c, 5, 53, 127
1, 15684, Note_on_c, 3, 51, 127
1, 15829, Note_off_c, 11, 70, 127
1, 15834, Note_off_c, 3, 51, 127
1, 15836, Note_on_c, 2, 50, 127
1, 15836, Note_on_c, 5, 77, 127
1, 15986, Note_off_c, 2, 50, 127
1, 15988, Note_on_c, 3, 51, 127
1, 16133, Note_off_c, 5, 77, 127
1, 16138, Note_off_c, 3, 51, 127
1, 16140, Note_on_c, 2, 50, 127
1, 16140, Note_on_c, 5, 77, 127
1, 16290, Note_off_c, 2, 50, 127
1, 16292, Note_on_c, 0, 48, 127
1, 16437, Note_off_c, 5, 77, 127
1, 16442, Note_off_c, 0, 48, 127
1, 16444, Note_on_c, 11, 46, 127
1, 16444, Note_on_c, 5, 77, 127
1, 16594, Note_off_c, 11, 46, 127
1, 16596, Note_on_c, 2, 50, 127
1, 16741, Note_off_c, 5, 77, 127
1, 16746, Note_off_c, 2, 50, 127
1, 16748, Note_on_c, 0, 48, 127
1, 16748, Note_on_c, 3, 75, 127
1, 16896, Note_off_c, 3, 75, 127
1, 16898, Note_off_c, 0, 48, 127
1, 16900, Note_on_c, 11, 46, 127
1, 16900, Note_on_c, 5, 77, 127
1, 17048, Note_off_c, 5, 77, 127
1, 17050, Note_off_c, 11, 46, 127
1, 17052, Note_on_c, 3, 51, 127
1, 17052, Note_on_c, 7, 79, 127
1, 17202, Note_off_c, 3, 51, 127
1, 17204, Note_on_c, 5, 53, 127
1, 17349, Note_off_c, 7, 79, 127
1, 17354, Note_off_c, 5, 53, 127
1, 17356, Note_on_c, 3, 51, 127
1, 17356, Note_on_c, 7, 79, 127
1, 17506, Note_off_c, 3, 51, 127
1, 17508, Note_on_c, 2, 50, 127
1, 17653, Note_off_c, 7, 79, 127
1, 17658, Note_off_c, 2, 50, 127
1, 17660, Note_on_c, 0, 48, 127
1, 17660, Note_on_c, 7, 79, 127
1, 17810, Note_off_c, 0, 48, 127
1, 17812, Note_on_c, 3, 51, 127
1, 17957, Note_off_c, 7, 79, 127
1, 17962, Note_off_c, 3, 51, 127
1, 17964, Note_on_c, 2, 50, 127
1, 17964, Note_on_c, 5, 77, 127
1, 18112, Note_off_c, 5, 77, 127
1, 18114, Note_off_c, 2, 50, 127
1, 18116, Note_on_c, 0, 48, 127
1, 18116, Note_on_c, 7, 79, 127
1, 18264, Note_off_c, 7, 79, 127
1, 18266, Note_off_c, 0, 48, 127
1, 18268, Note_on_c, 5, 53, 127
1, 18268, Note_on_c, 10, 81, 127
1, 18418, Note_off_c, 5, 53, 127
1, 18420, Note_on_c, 7, 55, 127
1, 18565, Note_off_c, 10, 81, 127
1, 18570, Note_off_c, 7, 55, 127
1, 18572, Note_on_c, 5, 53, 127
1, 18572, Note_on_c, 10, 81, 127
1, 18722, Note_off_c, 5, 53, 127
1, 18724, Note_on_c, 3, 51, 127
1, 18869, Note_off_c, 10, 81, 127
1, 18874, Note_off_c, 3, 51, 127
1, 18876, Note_on_c, 2, 50, 127
1, 18876, Note_on_c, 10, 81, 127
1, 19026, Note_off_c, 2, 50, 127
1, 19028, Note_on_c, 5, 53, 127
1, 19173, Note_off_c, 10, 81, 127
1, 19178, Note_off_c, 5, 53, 127
1, 19180, Note_on_c, 3, 51, 127
1, 19180, Note_on_c, 7, 79, 127
1, 19328, Note_off_c, 7, 79, 127
1, 19330, Note_off_c, 3, 51, 127
1, 19332, Note_on_c, 2, 50, 127
1, 19332, Note_on_c, 10, 81, 127
1, 19480, Note_off_c, 10, 81, 127
1, 19482, Note_off_c, 2, 50, 127
1, 19484, Note_on_c, 7, 55, 127
1, 19484, Note_on_c, 11, 82, 127
1, 19634, Note_off_c, 7, 55, 127
1, 19636, Note_on_c, 10, 57, 127
1, 19781, Note_off_c, 11, 82, 127
1, 19786, Note_off_c, 10, 57, 127
1, 19788, Note_on_c, 7, 55, 127
1, 19788, Note_on_c, 11, 70, 127
1, 19938, Note_off_c, 7, 55, 127
1, 19940, Note_on_c, 5, 53, 127
1, 20085, Note_off_c, 11, 70, 127
1, 20090, Note_off_c, 5, 53, 127
1, 20092, Note_on_c, 3, 51, 127
1, 20092, Note_on_c, 11, 70, 127
1, 20242, Note_off_c, 3, 51, 127
1, 20244, Note_on_c, 7, 55, 127
1, 20389, Note_off_c, 11, 70, 127
1, 20394, Note_off_c, 7, 55, 127
1, 20396, Note_on_c, 5, 53, 127
1, 20396, Note_on_c, 10, 69, 127
1, 20544, Note_off_c, 10, 69, 127
1, 20546, Note_off_c, 5, 53, 127
1, 20548, Note_on_c, 3, 51, 127
1, 20548, Note_on_c, 11, 70, 127
1, 20696, Note_off_c, 11, 70, 127
1, 20698, Note_off_c, 3, 51, 127
1, 20700, Note_on_c, 10, 57, 127
1, 20700, Note_on_c, 0, 72, 127
1, 20850, Note_off_c, 10, 57, 127
1, 20852, Note_on_c, 11, 58, 127
1, 20997, Note_off_c, 0, 72, 127
1, 21002, Note_off_c, 11, 58, 127
1, 21004, Note_on_c, 10, 57, 127
1, 21004, Note_on_c, 0, 72, 127
1, 21154, Note_off_c, 10, 57, 127
1, 21156, Note_on_c, 7, 55, 127
1, 21301, Note_off_c, 0, 72, 127
1, 21306, Note_off_c, 7, 55, 127
1, 21308, Note_on_c, 5, 53, 127
1, 21308, Note_on_c, 0, 72, 127
1, 21458, Note_off_c, 5, 53, 127
1, 21460, Note_on_c, 10, 57, 127
1, 21605, Note_off_c, 0, 72, 127
1, 21610, Note_off_c, 10, 57, 127
1, 21612, Note_on_c, 7, 55, 127
1, 21612, Note_on_c, 11, 70, 127
1, 21760, Note_off_c, 11, 70, 127
1, 21762, Note_off_c, 7, 55, 127
1, 21764, Note_on_c, 5, 53, 127
1, 21764, Note_on_c, 0, 72, 127
1, 21912, Note_off_c, 0, 72, 127
1, 21914, Note_off_c, 5, 53, 127
1, 21916, Note_on_c, 11, 58, 127
1, 21916, Note_on_c, 2, 74, 127
1, 22066, Note_off_c, 11, 58, 127
1, 22068, Note_on_c, 0, 60, 127
1, 22213, Note_off_c, 2, 74, 127
1, 22218, Note_off_c, 0, 60, 127
1, 22220, Note_on_c, 11, 58, 127
1, 22220, Note_on_c, 2, 74, 127
1, 22370, Note_off_c, 11, 58, 127
1, 22372, Note_on_c, 10, 57, 127
1, 22517, Note_off_c, 2, 74, 127
1, 22522, Note_off_c, 10, 57, 127
1, 22524, Note_on_c, 7, 55, 127
1, 22524, Note_on_c, 2, 74, 127
1, 22674, Note_off_c, 7, 55, 127
1, 22676, Note_on_c, 11, 58, 127
1, 22821, Note_off_c, 2, 74, 127
1, 22826, Note_off_c, 11, 58, 127
1, 22828, Note_on_c, 10, 57, 127
1, 22828, Note_on_c, 0, 72, 127
1, 22976, Note_off_c, 0, 72, 127
1, 22978, Note_off_c, 10, 57, 127
1, 22980, Note_on_c, 7, 55, 127
1, 22980, Note_on_c, 2, 74, 127
1, 23128, Note_off_c, 2, 74, 127
1, 23130, Note_off_c, 7, 55, 127
1, 23132, Note_on_c, 0, 60, 127
1, 23132, Note_on_c, 3, 75, 127
1, 23282, Note_off_c, 0, 60, 127
1, 23284, Note_on_c, 2, 62, 127
1, 23429, Note_off_c, 3, 75, 127
1, 23434, Note_off_c, 2, 62, 127
1, 23436, Note_on_c, 0, 60, 127
1, 23436, Note_on_c, 3, 75, 127
1, 23586, Note_off_c, 0, 60, 127
1, 23588, Note_on_c, 11, 58, 127
1, 23716, Note_off_c, 3, 75, 127
1, 23738, Note_off_c, 11, 58, 127
1, 23740, Note_on_c, 10, 57, 127
1, 23740, Note_on_c, 4, 76, 127
1, 23890, Note_off_c, 10, 57, 127
1, 23892, Note_on_c, 0, 60, 127
1, 24037, Note_off_c, 4, 76, 127
1, 24042, Note_off_c, 0, 60, 127
1, 24044, Note_on_c, 11, 58, 127
1, 24044, Note_on_c, 2, 74, 127
1, 24192, Note_off_c, 2, 74, 127
1, 24194, Note_off_c, 11, 58, 127
1, 24196, Note_on_c, 10, 57, 127
1, 24196, Note_on_c, 4, 76, 127
1, 24344, Note_off_c, 4, 76, 127
1, 24346, Note_off_c, 10, 57, 127
1, 24348, Note_on_c, 2, 62, 127
1, 24348, Note_on_c, 5, 77, 127
1, 24498, Note_off_c, 2, 62, 127
1, 24500, Note_on_c, 5, 65, 127
1, 24645, Note_off_c, 5, 77, 127
1, 24650, Note_off_c, 5, 65, 127
1, 24652, Note_on_c, 3, 63, 127
1, 24652, Note_on_c, 5, 77, 127
1, 24802, Note_off_c, 3, 63, 127
1, 24804, Note_on_c, 2, 62, 127
1, 24932, Note_off_c, 5, 77, 127
1, 24954, Note_off_c, 2, 62, 127
1, 24956, Note_on_c, 0, 60, 127
1, 24956, Note_on_c, 6, 78, 127
1, 25106, Note_off_c, 0, 60, 127
1, 25108, Note_on_c, 3, 63, 127
1, 25253, Note_off_c, 6, 78, 127
1, 25258, Note_off_c, 3, 63, 127
1, 25260, Note_on_c, 2, 62, 127
1, 25260, Note_on_c, 4, 76, 127
1, 25408, Note_off_c, 4, 76, 127
1, 25410, Note_off_c, 2, 62, 127
1, 25412, Note_on_c, 0, 60, 127
1, 25412, Note_on_c, 6, 78, 127
1, 25560, Note_off_c, 6, 78, 127
1, 25562, Note_off_c, 0, 60, 127
1, 25564, Note_on_c, 11, 58, 127
1, 25564, Note_on_c, 7, 79, 127
1, 25714, Note_off_c, 11, 58, 127
1, 25716, Note_on_c, 2, 62, 127
1, 25861, Note_off_c, 7, 79, 127
1, 25866, Note_off_c, 2, 62, 127
1, 25868, Note_on_c, 0, 60, 127
1, 25868, Note_on_c, 7, 79, 127
1, 26018, Note_off_c, 0, 60, 127
1, 26020, Note_on_c, 11, 58, 127
1, 26165, Note_off_c, 7, 79, 127
1, 26170, Note_off_c, 11, 58, 127
1, 26172, Note_on_c, 10, 57, 127
1, 26172, Note_on_c, 10, 81, 127
1, 26322, Note_off_c, 10, 57, 127
1, 26324, Note_on_c, 0, 60, 127
1, 26469, Note_off_c, 10, 81, 127
1, 26474, Note_off_c, 0, 60, 127
1, 26476, Note_on_c, 11, 58, 127
1, 26476, Note_on_c, 7, 79, 127
1, 26624, Note_off_c, 7, 79, 127
1, 26626, Note_off_c, 11, 58, 127
1, 26628, Note_on_c, 10, 57, 127
1, 26628, Note_on_c, 10, 81, 127
1, 26776, Note_off_c, 10, 81, 127
1, 26778, Note_off_c, 10, 57, 127
1, 26780, Note_on_c, 7, 55, 127
1, 26780, Note_on_c, 11, 82, 127
1, 26930, Note_off_c, 7, 55, 127
1, 26932, Note_on_c, 6, 54, 127
1, 27082, Note_off_c, 6, 54, 127
1, 27084, Note_on_c, 7, 55, 127
1, 27084, Note_on_c, 2, 74, 127
1, 27234, Note_off_c, 7, 55, 127
1, 27236, Note_on_c, 10, 57, 127
1, 27377, Note_off_c, 11, 82, 127
1, 27382, Note_off_c, 2, 74, 127
1, 27387, Note_off_c, 10, 57, 127
1, 27389, Note_on_c, 11, 58, 127
1, 27389, Note_on_c, 2, 74, 127
1, 27389, Note_on_c, 7, 79, 127
1, 27539, Note_off_c, 11, 58, 127
1, 27541, Note_on_c, 10, 57, 127
1, 27686, Note_off_c, 7, 79, 127
1, 27686, Note_off_c, 2, 74, 127
1, 27691, Note_off_c, 10, 57, 127
1, 27693, Note_on_c, 11, 58, 127
1, 27693, Note_on_c, 10, 81, 127
1, 27693, Note_on_c, 3, 75, 127
1, 27843, Note_off_c, 11, 58, 127
1, 27845, Note_on_c, 0, 60, 127
1, 27990, Note_off_c, 3, 75, 127
1, 27990, Note_off_c, 10, 81, 127
1, 27995, Note_off_c, 0, 60, 127
1, 27997, Note_on_c, 2, 62, 127
1, 27997, Note_on_c, 7, 79, 127
1, 27997, Note_on_c, 10, 69, 127
1, 28095, Note_off_c, 7, 79, 127
1, 28098, Note_on_c, 6, 78, 127
1, 28147, Note_off_c, 2, 62, 127
1, 28149, Note_on_c, 0, 60, 127
1, 28196, Note_off_c, 6, 78, 127
1, 28199, Note_on_c, 7, 79, 127
1, 28297, Note_off_c, 7, 79, 127
1, 28299, Note_off_c, 0, 60, 127
1, 28301, Note_on_c, 11, 58, 127
1, 28301, Note_on_c, 6, 78, 127
1, 28451, Note_off_c, 11, 58, 127
1, 28453, Note_on_c, 0, 60, 127
1, 28603, Note_off_c, 0, 60, 127
1, 28605, Note_on_c, 2, 62, 127
1, 28897, Note_off_c, 6, 78, 127
1, 28902, Note_off_c, 10, 69, 127
1, 28907, Note_off_c, 2, 62, 127
1, 28909, Note_on_c, 2, 50, 127
1, 28909, Note_on_c, 7, 79, 127
1, 29206, Note_off_c, 7, 79, 127
1, 29211, Note_off_c, 2, 50, 127
1, 29213, Note_on_c, 7, 55, 127
1, 29213, Note_on_c, 7, 79, 127
1, 29213, Note_on_c, 11, 70, 127
1, 29510, Note_off_c, 11, 70, 127
1, 29510, Note_off_c, 7, 79, 127
1, 29516, Note_on_c, 2, 74, 127
1, 29813, Note_off_c, 2, 74, 127
1, 29813, Note_off_c, 7, 55, 127
1, 29819, Note_on_c, 11, 70, 127
1, 30116, Note_off_c, 11, 70, 127
1, 30122, Note_on_c, 2, 62, 127
1, 30122, Note_on_c, 11, 58, 127
1, 30122, Note_on_c, 7, 67, 127
1, 30419, Note_off_c, 7, 67, 127
1, 30424, Note_off_c, 11, 58, 127
1, 30424, Note_off_c, 2, 62, 127
1, 30426, Note_on_c, 0, 60, 127
1, 30426, Note_on_c, 10, 57, 127
1, 30426, Note_on_c, 5, 77, 127
1, 30723, Note_off_c, 5, 77, 127
1, 30729, Note_on_c, 0, 72, 127
1, 31026, Note_off_c, 0, 72, 127
1, 31032, Note_on_c, 10, 69, 127
1, 31184, Note_off_c, 10, 57, 127
1, 31184, Note_off_c, 0, 60, 127
1, 31329, Note_off_c, 10, 69, 127
1, 31335, Note_on_c, 0, 60, 127
1, 31335, Note_on_c, 10, 57, 127
1, 31335, Note_on_c, 5, 65, 127
1, 31632, Note_off_c, 5, 65, 127
1, 31637, Note_off_c, 10, 57, 127
1, 31637, Note_off_c, 0, 60, 127
1, 31639, Note_on_c, 11, 58, 127
1, 31639, Note_on_c, 5, 65, 127
1, 31639, Note_on_c, 2, 74, 127
1, 31936, Note_off_c, 2, 74, 127
1, 31942, Note_on_c, 11, 70, 127
1, 32081, Note_off_c, 5, 65, 127
1, 32239, Note_off_c, 11, 70, 127
1, 32245, Note_on_c, 5, 65, 127
1, 32460, Note_off_c, 11, 58, 127
1, 32542, Note_off_c, 5, 65, 127
1, 32548, Note_on_c, 11, 58, 127
1, 32548, Note_on_c, 2, 62, 127
1, 32845, Note_off_c, 2, 62, 127
1, 32850, Note_off_c, 11, 58, 127
1, 32852, Note_on_c, 0, 60, 127
1, 32852, Note_on_c, 3, 75, 127
1, 33149, Note_off_c, 3, 75, 127
1, 33154, Note_off_c, 0, 60, 127
1, 33156, Note_on_c, 7, 55, 127
1, 33156, Note_on_c, 0, 72, 127
1, 33304, Note_off_c, 0, 72, 127
1, 33307, Note_on_c, 2, 74, 127
1, 33455, Note_off_c, 2, 74, 127
1, 33457, Note_off_c, 7, 55, 127
1, 33459, Note_on_c, 3, 51, 127
1, 33459, Note_on_c, 3, 75, 127
1, 33756, Note_off_c, 3, 75, 127
1, 33761, Note_off_c, 3, 51, 127
1, 33763, Note_on_c, 0, 48, 127
1, 33763, Note_on_c, 3, 75, 127
1, 34060, Note_off_c, 3, 75, 127
1, 34065, Note_off_c, 0, 48, 127
1, 34067, Note_on_c, 0, 60, 127
1, 34067, Note_on_c, 6, 66, 127
1, 34364, Note_off_c, 6, 66, 127
1, 34370, Note_on_c, 2, 62, 127
1, 34518, Note_off_c, 2, 62, 127
1, 34521, Note_on_c, 4, 64, 127
1, 34669, Note_off_c, 4, 64, 127
1, 34672, Note_on_c, 6, 66, 127
1, 34824, Note_off_c, 0, 60, 127
1, 34969, Note_off_c, 6, 66, 127
1, 34975, Note_on_c, 0, 48, 127
1, 34975, Note_on_c, 10, 57, 127
1, 34975, Note_on_c, 6, 66, 127
1, 34975, Note_on_c, 2, 62, 127
1, 35272, Note_off_c, 2, 62, 127
1, 35272, Note_off_c, 6, 66, 127
1, 35277, Note_off_c, 10, 57, 127
1, 35277, Note_off_c, 0, 48, 127
1, 35279, Note_on_c, 11, 46, 127
1, 35279, Note_on_c, 7, 55, 127
1, 35279, Note_on_c, 7, 67, 127
1, 35279, Note_on_c, 2, 62, 127
1, 35581, Note_off_c, 11, 46, 127
1, 35583, Note_on_c, 0, 48, 127
1, 35728, Note_off_c, 7, 67, 127
1, 35734, Note_on_c, 10, 69, 127
1, 35875, Note_off_c, 2, 62, 127
1, 35880, Note_off_c, 7, 55, 127
1, 35883, Note_off_c, 10, 69, 127
1, 35885, Note_off_c, 0, 48, 127
1, 35887, Note_on_c, 2, 50, 127
1, 35887, Note_on_c, 11, 70, 127
1, 35887, Note_on_c, 6, 66, 127
1, 35969, Note_off_c, 11, 70, 127
1, 35972, Note_on_c, 10, 69, 127
1, 36054, Note_off_c, 10, 69, 127
1, 36057, Note_on_c, 11, 70, 127
1, 36139, Note_off_c, 11, 70, 127
1, 36142, Note_on_c, 10, 69, 127
1, 36189, Note_on_c, 2, 38, 127
1, 36224, Note_off_c, 10, 69, 127
1, 36227, Note_on_c, 11, 70, 127
1, 36309, Note_off_c, 11, 70, 127
1, 36312, Note_on_c, 10, 69, 127
1, 36334, Note_off_c, 6, 66, 127
1, 36394, Note_off_c, 10, 69, 127
1, 36397, Note_on_c, 7, 67, 127
1, 36479, Note_off_c, 7, 67, 127
1, 36485, Note_off_c, 2, 50, 127
1, 36490, Note_off_c, 2, 38, 127
1, 36492, Note_on_c, 7, 43, 127
1, 36492, Note_on_c, 7, 67, 127
1, 36644, Note_on_c, 7, 79, 127
1, 36792, Note_off_c, 7, 79, 127
1, 36794, Note_off_c, 7, 43, 127
1, 36796, Note_on_c, 10, 57, 127
1, 36796, Note_on_c, 6, 78, 127
1, 36930, Note_off_c, 7, 67, 127
1, 36944, Note_off_c, 6, 78, 127
1, 36947, Note_on_c, 7, 79, 127
1, 37095, Note_off_c, 7, 79, 127
1, 37097, Note_off_c, 10, 57, 127
1, 37099, Note_on_c, 11, 58, 127
1, 37099, Note_on_c, 2, 74, 127
1, 37251, Note_on_c, 7, 79, 127
1, 37325, Note_off_c, 2, 74, 127
1, 37399, Note_off_c, 7, 79, 127
1, 37401, Note_off_c, 11, 58, 127
1, 37403, Note_on_c, 10, 57, 127
1, 37403, Note_on_c, 0, 72, 127
1, 37555, Note_on_c, 7, 79, 127
1, 37629, Note_off_c, 0, 72, 127
1, 37703, Note_off_c, 7, 79, 127
1, 37705, Note_off_c, 10, 57, 127
1, 37707, Note_on_c, 7, 55, 127
1, 37707, Note_on_c, 11, 70, 127
1, 37859, Note_on_c, 7, 79, 127
1, 37933, Note_off_c, 11, 70, 127
1, 38007, Note_off_c, 7, 79, 127
1, 38009, Note_off_c, 7, 55, 127
1, 38011, Note_on_c, 10, 57, 127
1, 38011, Note_on_c, 10, 69, 127
1, 38163, Note_on_c, 7, 79, 127
1, 38237, Note_off_c, 10, 69, 127
1, 38311, Note_off_c, 7, 79, 127
1, 38313, Note_off_c, 10, 57, 127
1, 38315, Note_on_c, 11, 58, 127
1, 38315, Note_on_c, 7, 67, 127
1, 38463, Note_off_c, 7, 67, 127
1, 38466, Note_on_c, 10, 69, 127
1, 38614, Note_off_c, 10, 69, 127
1, 38616, Note_off_c, 11, 58, 127
1, 38618, Note_on_c, 0, 60, 127
1, 38618, Note_on_c, 11, 70, 127
1, 38766, Note_off_c, 11, 70, 127
1, 38769, Note_on_c, 0, 72, 127
1, 38917, Note_off_c, 0, 72, 127
1, 38919, Note_off_c, 0, 60, 127
1, 38921, Note_on_c, 5, 53, 127
1, 38921, Note_on_c, 10, 69, 127
1, 39073, Note_on_c, 5, 77, 127
1, 39221, Note_off_c, 5, 77, 127
1, 39223, Note_off_c, 5, 53, 127
1, 39225, Note_on_c, 7, 55, 127
1, 39225, Note_on_c, 4, 76, 127
1, 39359, Note_off_c, 10, 69, 127
1, 39373, Note_off_c, 4, 76, 127
1, 39376, Note_on_c, 5, 77, 127
1, 39524, Note_off_c, 5, 77, 127
1, 39526, Note_off_c, 7, 55, 127
1, 39528, Note_on_c, 10, 57, 127
1, 39528, Note_on_c, 0, 72, 127
1, 39680, Note_on_c, 5, 77, 127
1, 39754, Note_off_c, 0, 72, 127
1, 39828, Note_off_c, 5, 77, 127
1, 39830, Note_off_c, 10, 57, 127
1, 39832, Note_on_c, 7, 55, 127
1, 39832, Note_on_c, 11, 70, 127
1, 39984, Note_on_c, 5, 77, 127
1, 40058, Note_off_c, 11, 70, 127
1, 40132, Note_off_c, 5, 77, 127
1, 40134, Note_off_c, 7, 55, 127
1, 40136, Note_on_c, 5, 53, 127
1, 40136, Note_on_c, 10, 69, 127
1, 40288, Note_on_c, 5, 77, 127
1, 40362, Note_off_c, 10, 69, 127
1, 40436, Note_off_c, 5, 77, 127
1, 40438, Note_off_c, 5, 53, 127
1, 40440, Note_on_c, 7, 55, 127
1, 40440, Note_on_c, 7, 67, 127
1, 40592, Note_on_c, 5, 77, 127
1, 40666, Note_off_c, 7, 67, 127
1, 40740, Note_off_c, 5, 77, 127
1, 40742, Note_off_c, 7, 55, 127
1, 40744, Note_on_c, 8, 56, 127
1, 40744, Note_on_c, 5, 65, 127
1, 40892, Note_off_c, 5, 65, 127
1, 40895, Note_on_c, 7, 67, 127
1, 41043, Note_off_c, 7, 67, 127
1, 41045, Note_off_c, 8, 56, 127
1, 41047, Note_on_c, 11, 58, 127
1, 41047, Note_on_c, 8, 68, 127
1, 41195, Note_off_c, 8, 68, 127
1, 41198, Note_on_c, 11, 70, 127
1, 41346, Note_off_c, 11, 70, 127
1, 41348, Note_off_c, 11, 58, 127
1, 41350, Note_on_c, 3, 51, 127
1, 41350, Note_on_c, 7, 67, 127
1, 41502, Note_on_c, 3, 75, 127
1, 41650, Note_off_c, 3, 75, 127
1, 41652, Note_off_c, 3, 51, 127
1, 41654, Note_on_c, 5, 53, 127
1, 41654, Note_on_c, 2, 74, 127
1, 41788, Note_off_c, 7, 67, 127
1, 41802, Note_off_c, 2, 74, 127
1, 41805, Note_on_c, 3, 75, 127
1, 41953, Note_off_c, 3, 75, 127
1, 41955, Note_off_c, 5, 53, 127
1, 41957, Note_on_c, 7, 55, 127
1, 41957, Note_on_c, 11, 70, 127
1, 42109, Note_on_c, 3, 75, 127
1, 42183, Note_off_c, 11, 70, 127
1, 42257, Note_off_c, 3, 75, 127
1, 42259, Note_off_c, 7, 55, 127
1, 42261, Note_on_c, 5, 53, 127
1, 42261, Note_on_c, 8, 68, 127
1, 42413, Note_on_c, 3, 75, 127
1, 42487, Note_off_c, 8, 68, 127
1, 42561, Note_off_c, 3, 75, 127
1, 42563, Note_off_c, 5, 53, 127
1, 42565, Note_on_c, 3, 51, 127
1, 42565, Note_on_c, 7, 67, 127
1, 42717, Note_on_c, 3, 75, 127
1, 42791, Note_off_c, 7, 67, 127
1, 42865, Note_off_c, 3, 75, 127
1, 42867, Note_off_c, 3, 51, 127
1, 42869, Note_on_c, 5, 53, 127
1, 42869, Note_on_c, 5, 65, 127
1, 43021, Note_on_c, 3, 75, 127
1, 43095, Note_off_c, 5, 65, 127
1, 43169, Note_off_c, 3, 75, 127
1, 43171, Note_off_c, 5, 53, 127
1, 43173, Note_on_c, 7, 55, 127
1, 43173, Note_on_c, 3, 63, 127
1, 43321, Note_off_c, 3, 63, 127
1, 43324, Note_on_c, 5, 65, 127
1, 43472, Note_off_c, 5, 65, 127
1, 43474, Note_off_c, 7, 55, 127
1, 43476, Note_on_c, 10, 57, 127
1, 43476, Note_on_c, 7, 67, 127
1, 43624, Note_off_c, 7, 67, 127
1, 43627, Note_on_c, 10, 69, 127
1, 43775, Note_off_c, 10, 69, 127
1, 43777, Note_off_c, 10, 57, 127
1, 43779, Note_on_c, 2, 50, 127
1, 43779, Note_on_c, 6, 66, 127
1, 43931, Note_on_c, 2, 74, 127
1, 44079, Note_off_c, 2, 74, 127
1, 44081, Note_off_c, 2, 50, 127
1, 44083, Note_on_c, 4, 52, 127
1, 44083, Note_on_c, 0, 72, 127
1, 44154, Note_off_c, 6, 66, 127
1, 44231, Note_off_c, 0, 72, 127
1, 44234, Note_on_c, 2, 74, 127
1, 44382, Note_off_c, 2, 74, 127
1, 44384, Note_off_c, 4, 52, 127
1, 44386, Note_on_c, 6, 54, 127
1, 44386, Note_on_c, 10, 69, 127
1, 44538, Note_on_c, 2, 74, 127
1, 44612, Note_off_c, 10, 69, 127
1, 44686, Note_off_c, 2, 74, 127
1, 44688, Note_off_c, 6, 54, 127
1, 44690, Note_on_c, 4, 52, 127
1, 44690, Note_on_c, 7, 67, 127
1, 44842, Note_on_c, 2, 74, 127
1, 44916, Note_off_c, 7, 67, 127
1, 44990, Note_off_c, 2, 74, 127
1, 44992, Note_off_c, 4, 52, 127
1, 44994, Note_on_c, 2, 50, 127
1, 44994, Note_on_c, 6, 66, 127
1, 45146, Note_on_c, 2, 74, 127
1, 45220, Note_off_c, 6, 66, 127
1, 45294, Note_off_c, 2, 74, 127
1, 45296, Note_off_c, 2, 50, 127
1, 45298, Note_on_c, 4, 52, 127
1, 45298, Note_on_c, 4, 64, 127
1, 45450, Note_on_c, 2, 74, 127
1, 45524, Note_off_c, 4, 64, 127
1, 45598, Note_off_c, 2, 74, 127
1, 45600, Note_off_c, 4, 52, 127
1, 45602, Note_on_c, 6, 54, 127
1, 45602, Note_on_c, 2, 62, 127
1, 45750, Note_off_c, 2, 62, 127
1, 45753, Note_on_c, 4, 64, 127
1, 45901, Note_off_c, 4, 64, 127
1, 45903, Note_off_c, 6, 54, 127
1, 45905, Note_on_c, 7, 55, 127
1, 45905, Note_on_c, 6, 66, 127
1, 46053, Note_off_c, 6, 66, 127
1, 46056, Note_on_c, 7, 67, 127
1, 46204, Note_off_c, 7, 67, 127
1, 46206, Note_off_c, 7, 55, 127
1, 46208, Note_on_c, 6, 54, 127
1, 46208, Note_on_c, 10, 69, 127
1, 46356, Note_off_c, 10, 69, 127
1, 46359, Note_on_c, 7, 67, 127
1, 46507, Note_off_c, 7, 67, 127
1, 46509, Note_off_c, 6, 54, 127
1, 46511, Note_on_c, 4, 52, 127
1, 46511, Note_on_c, 10, 69, 127
1, 46659, Note_off_c, 10, 69, 127
1, 46662, Note_on_c, 11, 70, 127
1, 46810, Note_off_c, 11, 70, 127
1, 46812, Note_off_c, 4, 52, 127
1, 46814, Note_on_c, 6, 54, 127
1, 46814, Note_on_c, 10, 69, 127
1, 46962, Note_off_c, 10, 69, 127
1, 46965, Note_on_c, 11, 70, 127
1, 47113, Note_off_c, 11, 70, 127
1, 47115, Note_off_c, 6, 54, 127
1, 47117, Note_on_c, 2, 50, 127
1, 47117, Note_on_c, 0, 72, 127
1, 47265, Note_off_c, 0, 72, 127
1, 47268, Note_on_c, 2, 74, 127
1, 47416, Note_off_c, 2, 74, 127
1, 47418, Note_off_c, 2, 50, 127
1, 47420, Note_on_c, 7, 55, 127
1, 47420, Note_on_c, 11, 70, 127
1, 47570, Note_off_c, 7, 55, 127
1, 47572, Note_on_c, 10, 57, 127
1, 47717, Note_off_c, 11, 70, 127
1, 47722, Note_off_c, 10, 57, 127
1, 47724, Note_on_c, 11, 58, 127
1, 47724, Note_on_c, 7, 79, 127
1, 47874, Note_off_c, 11, 58, 127
1, 47876, Note_on_c, 0, 60, 127
1, 48021, Note_off_c, 7, 79, 127
1, 48026, Note_off_c, 0, 60, 127
1, 48028, Note_on_c, 2, 62, 127
1, 48028, Note_on_c, 10, 69, 127
1, 48325, Note_off_c, 10, 69, 127
1, 48331, Note_on_c, 2, 50, 127
1, 48331, Note_on_c, 7, 79, 127
1, 48404, Note_off_c, 7, 79, 127
1, 48407, Note_on_c, 6, 78, 127
1, 48480, Note_off_c, 6, 78, 127
1, 48483, Note_on_c, 4, 76, 127
1, 48556, Note_off_c, 4, 76, 127
1, 48559, Note_on_c, 6, 78, 127
1, 48628, Note_off_c, 2, 62, 127
1, 48631, Note_off_c, 6, 78, 127
1, 48633, Note_off_c, 2, 50, 127
1, 48635, Note_on_c, 7, 55, 127
1, 48635, Note_on_c, 11, 70, 127
1, 48635, Note_on_c, 7, 79, 127
1, 48635, Note_on_c, 2, 74, 127
1, 48635, Note_on_c, 7, 67, 127
1, 49235, Note_off_c, 7, 67, 127
1, 49235, Note_off_c, 2, 74, 127
1, 49235, Note_off_c, 7, 79, 127
1, 49235, Note_off_c, 11, 70, 127
1, 49241, Note_on_c, 11, 70, 127
1, 49393, Note_off_c, 7, 55, 127
1, 49545, Note_on_c, 2, 62, 127
1, 49690, Note_off_c, 11, 70, 127
1, 49695, Note_off_c, 2, 62, 127
1, 49697, Note_on_c, 0, 60, 127
1, 49697, Note_on_c, 10, 69, 127
1, 49845, Note_off_c, 10, 69, 127
1, 49847, Note_off_c, 0, 60, 127
1, 49849, Note_on_c, 11, 58, 127
1, 49849, Note_on_c, 7, 67, 127
1, 49999, Note_off_c, 11, 58, 127
1, 50001, Note_on_c, 0, 60, 127
1, 50151, Note_off_c, 0, 60, 127
1, 50153, Note_on_c, 11, 58, 127
1, 50153, Note_on_c, 2, 62, 127
1, 50301, Note_off_c, 2, 62, 127
1, 50303, Note_off_c, 11, 58, 127
1, 50305, Note_on_c, 10, 57, 127
1, 50305, Note_on_c, 0, 60, 127
1, 50446, Note_off_c, 7, 67, 127
1, 50454, Note_off_c, 0, 60, 127
1, 50456, Note_off_c, 10, 57, 127
1, 50458, Note_on_c, 7, 55, 127
1, 50458, Note_on_c, 11, 58, 127
1, 50608, Note_off_c, 7, 55, 127
1, 50610, Note_on_c, 10, 57, 127
1, 50755, Note_off_c, 11, 58, 127
1, 50760, Note_off_c, 10, 57, 127
1, 50762, Note_on_c, 7, 55, 127
1, 50762, Note_on_c, 11, 70, 127
1, 50762, Note_on_c, 7, 67, 127
1, 50762, Note_on_c, 2, 74, 127
1, 50912, Note_off_c, 7, 55, 127
1, 50914, Note_on_c, 5, 53, 127
1, 51059, Note_off_c, 2, 74, 127
1, 51059, Note_off_c, 7, 67, 127
1, 51059, Note_off_c, 11, 70, 127
1, 51064, Note_off_c, 5, 53, 127
1, 51066, Note_on_c, 3, 51, 127
1, 51066, Note_on_c, 11, 70, 127
1, 51066, Note_on_c, 7, 67, 127
1, 51066, Note_on_c, 7, 79, 127
1, 51216, Note_off_c, 3, 51, 127
1, 51218, Note_on_c, 3, 51, 127
1, 51363, Note_off_c, 7, 79, 127
1, 51363, Note_off_c, 7, 67, 127
1, 51363, Note_off_c, 11, 70, 127
1, 51368, Note_off_c, 3, 51, 127
1, 51370, Note_on_c, 2, 50, 127
1, 51370, Note_on_c, 10, 69, 127
1, 51370, Note_on_c, 3, 75, 127
1, 51370, Note_on_c, 7, 79, 127
1, 51520, Note_off_c, 2, 50, 127
1, 51522, Note_on_c, 0, 48, 127
1, 51667, Note_off_c, 7, 79, 127
1, 51667, Note_off_c, 3, 75, 127
1, 51667, Note_off_c, 10, 69, 127
1, 51672, Note_off_c, 0, 48, 127
1, 51674, Note_on_c, 2, 50, 127
1, 51674, Note_on_c, 10, 69, 127
1, 51674, Note_on_c, 6, 78, 127
1, 51971, Note_off_c, 6, 78, 127
1, 51976, Note_off_c, 2, 50, 127
1, 51978, Note_on_c, 2, 38, 127
1, 51978, Note_on_c, 4, 76, 127
1, 52126, Note_off_c, 4, 76, 127
1, 52129, Note_on_c, 6, 78, 127
1, 52270, Note_off_c, 10, 69, 127
1, 52278, Note_off_c, 6, 78, 127
1, 52280, Note_off_c, 2, 38, 127
1, 52282, Note_on_c, 7, 43, 127
1, 52282, Note_on_c, 7, 67, 127
1, 52282, Note_on_c, 11, 70, 127
1, 52282, Note_on_c, 7, 79, 127
1, 52579, Note_off_c, 7, 79, 127
1, 52579, Note_off_c, 11, 70, 127
1, 52585, Note_on_c, 2, 74, 127
1, 52877, Note_off_c, 7, 67, 127
1, 52882, Note_off_c, 2, 74, 127
1, 52882, Note_off_c, 7, 43, 127
1, 52888, Note_on_c, 11, 70, 127
1, 53036, Note_off_c, 11, 70, 127
1, 53039, Note_on_c, 7, 55, 127
1, 53039, Note_on_c, 7, 67, 127
1, 53187, Note_off_c, 7, 67, 127
1, 53189, Note_off_c, 7, 55, 127
1, 53191, Note_on_c, 5, 53, 127
1, 53191, Note_on_c, 11, 70, 127
1, 53339, Note_off_c, 11, 70, 127
1, 53341, Note_off_c, 5, 53, 127
1, 53343, Note_on_c, 3, 51, 127
1, 53343, Note_on_c, 2, 74, 127
1, 53491, Note_off_c, 2, 74, 127
1, 53493, Note_off_c, 3, 51, 127
1, 53495, Note_on_c, 2, 50, 127
1, 53495, Note_on_c, 5, 77, 127
1, 53645, Note_off_c, 2, 50, 127
1, 53647, Note_on_c, 3, 51, 127
1, 53792, Note_off_c, 5, 77, 127
1, 53797, Note_off_c, 3, 51, 127
1, 53799, Note_on_c, 2, 50, 127
1, 53799, Note_on_c, 5, 77, 127
1, 53949, Note_off_c, 2, 50, 127
1, 53951, Note_on_c, 0, 48, 127
1, 54096, Note_off_c, 5, 77, 127
1, 54101, Note_off_c, 0, 48, 127
1, 54103, Note_on_c, 11, 46, 127
1, 54103, Note_on_c, 5, 77, 127
1, 54253, Note_off_c, 11, 46, 127
1, 54255, Note_on_c, 2, 50, 127
1, 54400, Note_off_c, 5, 77, 127
1, 54405, Note_off_c, 2, 50, 127
1, 54407, Note_on_c, 0, 48, 127
1, 54407, Note_on_c, 3, 75, 127
1, 54555, Note_off_c, 3, 75, 127
1, 54557, Note_off_c, 0, 48, 127
1, 54559, Note_on_c, 11, 46, 127
1, 54559, Note_on_c, 5, 77, 127
1, 54707, Note_off_c, 5, 77, 127
1, 54709, Note_off_c, 11, 46, 127
1, 54711, Note_on_c, 3, 51, 127
1, 54711, Note_on_c, 7, 79, 127
1, 54861, Note_off_c, 3, 51, 127
1, 54863, Note_on_c, 5, 53, 127
1, 55008, Note_off_c, 7, 79, 127
1, 55013, Note_off_c, 5, 53, 127
1, 55015, Note_on_c, 3, 51, 127
1, 55015, Note_on_c, 7, 79, 127
1, 55165, Note_off_c, 3, 51, 127
1, 55167, Note_on_c, 2, 50, 127
1, 55312, Note_off_c, 7, 79, 127
1, 55317, Note_off_c, 2, 50, 127
1, 55319, Note_on_c, 0, 48, 127
1, 55319, Note_on_c, 7, 79, 127
1, 55469, Note_off_c, 0, 48, 127
1, 55471, Note_on_c, 3, 51, 127
1, 55616, Note_off_c, 7, 79, 127
1, 55621, Note_off_c, 3, 51, 127
1, 55623, Note_on_c, 2, 50, 127
1, 55623, Note_on_c, 5, 77, 127
1, 55771, Note_off_c, 5, 77, 127
1, 55773, Note_off_c, 2, 50, 127
1, 55775, Note_on_c, 0, 48, 127
1, 55775, Note_on_c, 7, 79, 127
1, 55923, Note_off_c, 7, 79, 127
1, 55925, Note_off_c, 0, 48, 127
1, 55927, Note_on_c, 5, 53, 127
1, 55927, Note_on_c, 10, 81, 127
1, 56077, Note_off_c, 5, 53, 127
1, 56079, Note_on_c, 7, 55, 127
1, 56224, Note_off_c, 10, 81, 127
1, 56229, Note_off_c, 7, 55, 127
1, 56231, Note_on_c, 5, 53, 127
1, 56231, Note_on_c, 10, 81, 127
1, 56381, Note_off_c, 5, 53, 127
1, 56383, Note_on_c, 3, 51, 127
1, 56528, Note_off_c, 10, 81, 127
1, 56533, Note_off_c, 3, 51, 127
1, 56535, Note_on_c, 2, 50, 127
1, 56535, Note_on_c, 10, 81, 127
1, 56685, Note_off_c, 2, 50, 127
1, 56687, Note_on_c, 5, 53, 127
1, 56832, Note_off_c, 10, 81, 127
1, 56837, Note_off_c, 5, 53, 127
1, 56839, Note_on_c, 3, 51, 127
1, 56839, Note_on_c, 7, 79, 127
1, 56987, Note_off_c, 7, 79, 127
1, 56989, Note_off_c, 3, 51, 127
1, 56991, Note_on_c, 2, 50, 127
1, 56991, Note_on_c, 10, 81, 127
1, 57139, Note_off_c, 10, 81, 127
1, 57141, Note_off_c, 2, 50, 127
1, 57143, Note_on_c, 7, 55, 127
1, 57143, Note_on_c, 11, 82, 127
1, 57291, Note_off_c, 11, 82, 127
1, 57294, Note_on_c, 0, 72, 127
1, 57442, Note_off_c, 0, 72, 127
1, 57444, Note_off_c, 7, 55, 127
1, 57446, Note_on_c, 5, 53, 127
1, 57446, Note_on_c, 2, 74, 127
1, 57594, Note_off_c, 2, 74, 127
1, 57596, Note_off_c, 5, 53, 127
1, 57598, Note_on_c, 3, 51, 127
1, 57598, Note_on_c, 3, 75, 127
1, 57746, Note_off_c, 3, 75, 127
1, 57748, Note_off_c, 3, 51, 127
1, 57750, Note_on_c, 5, 53, 127
1, 57750, Note_on_c, 11, 70, 127
1, 57898, Note_off_c, 11, 70, 127
1, 57901, Note_on_c, 10, 69, 127
1, 57974, Note_off_c, 10, 69, 127
1, 57977, Note_on_c, 11, 70, 127
1, 58050, Note_off_c, 11, 70, 127
1, 58052, Note_off_c, 5, 53, 127
1, 58054, Note_on_c, 5, 41, 127
1, 58054, Note_on_c, 10, 69, 127
1, 58202, Note_off_c, 10, 69, 127
1, 58205, Note_on_c, 11, 70, 127
1, 58353, Note_off_c, 11, 70, 127
1, 58355, Note_off_c, 5, 41, 127
1, 58357, Note_on_c, 11, 46, 127
1, 58357, Note_on_c, 11, 70, 127
1, 58357, Note_on_c, 5, 77, 127
1, 58357, Note_on_c, 2, 74, 127
1, 58957, Note_off_c, 2, 74, 127
1, 58957, Note_off_c, 5, 77, 127
1, 58957, Note_off_c, 11, 70, 127
1, 58963, Note_on_c, 2, 74, 127
1, 59115, Note_off_c, 11, 46, 127
1, 59267, Note_on_c, 5, 65, 127
1, 59412, Note_off_c, 2, 74, 127
1, 59417, Note_off_c, 5, 65, 127
1, 59419, Note_on_c, 3, 63, 127
1, 59419, Note_on_c, 0, 72, 127
1, 59567, Note_off_c, 0, 72, 127
1, 59569, Note_off_c, 3, 63, 127
1, 59571, Note_on_c, 2, 62, 127
1, 59571, Note_on_c, 11, 70, 127
1, 59721, Note_off_c, 2, 62, 127
1, 59723, Note_on_c, 3, 63, 127
1, 59873, Note_off_c, 3, 63, 127
1, 59875, Note_on_c, 2, 62, 127
1, 59875, Note_on_c, 5, 65, 127
1, 60023, Note_off_c, 5, 65, 127
1, 60025, Note_off_c, 2, 62, 127
1, 60027, Note_on_c, 0, 60, 127
1, 60027, Note_on_c, 3, 63, 127
1, 60168, Note_off_c, 11, 70, 127
1, 60176, Note_off_c, 3, 63, 127
1, 60178, Note_off_c, 0, 60, 127
1, 60180, Note_on_c, 11, 58, 127
1, 60180, Note_on_c, 2, 62, 127
1, 60330, Note_off_c, 11, 58, 127
1, 60332, Note_on_c, 0, 60, 127
1, 60477, Note_off_c, 2, 62, 127
1, 60482, Note_off_c, 0, 60, 127
1, 60484, Note_on_c, 11, 58, 127
1, 60484, Note_on_c, 5, 77, 127
1, 60484, Note_on_c, 2, 74, 127
1, 60484, Note_on_c, 11, 70, 127
1, 60634, Note_off_c, 11, 58, 127
1, 60636, Note_on_c, 10, 57, 127
1, 60781, Note_off_c, 11, 70, 127
1, 60781, Note_off_c, 2, 74, 127
1, 60781, Note_off_c, 5, 77, 127
1, 60786, Note_off_c, 10, 57, 127
1, 60788, Note_on_c, 7, 55, 127
1, 60788, Note_on_c, 11, 82, 127
1, 60788, Note_on_c, 2, 74, 127
1, 60788, Note_on_c, 11, 70, 127
1, 60938, Note_off_c, 7, 55, 127
1, 60940, Note_on_c, 7, 55, 127
1, 61085, Note_off_c, 11, 70, 127
1, 61085, Note_off_c, 2, 74, 127
1, 61085, Note_off_c, 11, 82, 127
1, 61090, Note_off_c, 7, 55, 127
1, 61092, Note_on_c, 5, 53, 127
1, 61092, Note_on_c, 0, 72, 127
1, 61092, Note_on_c, 11, 82, 127
1, 61092, Note_on_c, 7, 79, 127
1, 61242, Note_off_c, 5, 53, 127
1, 61244, Note_on_c, 3, 51, 127
1, 61389, Note_off_c, 7, 79, 127
1, 61389, Note_off_c, 11, 82, 127
1, 61389, Note_off_c, 0, 72, 127
1, 61394, Note_off_c, 3, 51, 127
1, 61396, Note_on_c, 5, 53, 127
1, 61396, Note_on_c, 10, 81, 127
1, 61396, Note_on_c, 0, 72, 127
1, 61693, Note_off_c, 10, 81, 127
1, 61698, Note_off_c, 5, 53, 127
1, 61700, Note_on_c, 5, 41, 127
1, 61700, Note_on_c, 7, 79, 127
1, 61848, Note_off_c, 7, 79, 127
1, 61851, Note_on_c, 10, 81, 127
1, 61992, Note_off_c, 0, 72, 127
1, 62000, Note_off_c, 10, 81, 127
1, 62002, Note_off_c, 5, 41, 127
1, 62004, Note_on_c, 11, 46, 127
1, 62004, Note_on_c, 11, 82, 127
1, 62004, Note_on_c, 2, 74, 127
1, 62004, Note_on_c, 11, 70, 127
1, 62301, Note_off_c, 2, 74, 127
1, 62301, Note_off_c, 11, 82, 127
1, 62307, Note_on_c, 5, 77, 127
1, 62441, Note_off_c, 11, 70, 127
1, 62604, Note_off_c, 5, 77, 127
1, 62604, Note_off_c, 11, 46, 127
1, 62610, Note_on_c, 2, 74, 127
1, 62762, Note_on_c, 0, 60, 127
1, 62907, Note_off_c, 2, 74, 127
1, 62912, Note_off_c, 0, 60, 127
1, 62914, Note_on_c, 11, 58, 127
1, 62914, Note_on_c, 11, 70, 127
1, 63064, Note_off_c, 11, 58, 127
1, 63066, Note_on_c, 10, 57, 127
1, 63211, Note_off_c, 11, 70, 127
1, 63216, Note_off_c, 10, 57, 127
1, 63218, Note_on_c, 7, 55, 127
1, 63218, Note_on_c, 3, 75, 127
1, 63368, Note_off_c, 7, 55, 127
1, 63370, Note_on_c, 5, 53, 127
1, 63515, Note_off_c, 3, 75, 127
1, 63520, Note_off_c, 5, 53, 127
1, 63522, Note_on_c, 7, 55, 127
1, 63522, Note_on_c, 3, 75, 127
1, 63672, Note_off_c, 7, 55, 127
1, 63674, Note_on_c, 10, 57, 127
1, 63819, Note_off_c, 3, 75, 127
1, 63824, Note_off_c, 10, 57, 127
1, 63826, Note_on_c, 7, 55, 127
1, 63826, Note_on_c, 3, 75, 127
1, 63976, Note_off_c, 7, 55, 127
1, 63978, Note_on_c, 11, 58, 127
1, 64123, Note_off_c, 3, 75, 127
1, 64128, Note_off_c, 11, 58, 127
1, 64130, Note_on_c, 10, 57, 127
1, 64130, Note_on_c, 2, 74, 127
1, 64264, Note_off_c, 2, 74, 127
1, 64280, Note_off_c, 10, 57, 127
1, 64282, Note_on_c, 7, 55, 127
1, 64282, Note_on_c, 3, 75, 127
1, 64405, Note_off_c, 3, 75, 127
1, 64432, Note_off_c, 7, 55, 127
1, 64434, Note_on_c, 10, 57, 127
1, 64434, Note_on_c, 1, 73, 127
1, 64584, Note_off_c, 10, 57, 127
1, 64586, Note_on_c, 7, 55, 127
1, 64731, Note_off_c, 1, 73, 127
1, 64736, Note_off_c, 7, 55, 127
1, 64738, Note_on_c, 10, 57, 127
1, 64738, Note_on_c, 1, 73, 127
1, 64888, Note_off_c, 10, 57, 127
1, 64890, Note_on_c, 11, 58, 127
1, 65035, Note_off_c, 1, 73, 127
1, 65040, Note_off_c, 11, 58, 127
1, 65042, Note_on_c, 10, 57, 127
1, 65042, Note_on_c, 1, 73, 127
1, 65192, Note_off_c, 10, 57, 127
1, 65194, Note_on_c, 11, 58, 127
1, 65339, Note_off_c, 1, 73, 127
1, 65344, Note_off_c, 11, 58, 127
1, 65346, Note_on_c, 10, 57, 127
1, 65346, Note_on_c, 12, 71, 127
1, 65494, Note_off_c, 12, 71, 127
1, 65496, Note_off_c, 10, 57, 127
1, 65498, Note_on_c, 7, 55, 127
1, 65498, Note_on_c, 1, 73, 127
1, 65646, Note_off_c, 1, 73, 127
1, 65648, Note_off_c, 7, 55, 127
1, 65650, Note_on_c, 5, 53, 127
1, 65650, Note_on_c, 2, 74, 127
1, 65798, Note_off_c, 2, 74, 127
1, 65801, Note_on_c, 4, 76, 127
1, 65949, Note_off_c, 4, 76, 127
1, 65951, Note_off_c, 5, 53, 127
1, 65953, Note_on_c, 10, 57, 127
1, 65953, Note_on_c, 5, 77, 127
1, 66101, Note_off_c, 5, 77, 127
1, 66104, Note_on_c, 7, 79, 127
1, 66252, Note_off_c, 7, 79, 127
1, 66254, Note_off_c, 10, 57, 127
1, 66256, Note_on_c, 1, 49, 127
1, 66256, Note_on_c, 4, 76, 127
1, 66404, Note_off_c, 4, 76, 127
1, 66407, Note_on_c, 5, 77, 127
1, 66555, Note_off_c, 5, 77, 127
1, 66557, Note_off_c, 1, 49, 127
1, 66559, Note_on_c, 10, 57, 127
1, 66559, Note_on_c, 7, 79, 127
1, 66707, Note_off_c, 7, 79, 127
1, 66710, Note_on_c, 10, 81, 127
1, 66858, Note_off_c, 10, 81, 127
1, 66860, Note_off_c, 10, 57, 127
1, 66862, Note_on_c, 2, 50, 127
1, 66862, Note_on_c, 5, 77, 127
1, 67010, Note_off_c, 5, 77, 127
1, 67012, Note_off_c, 2, 50, 127
1, 67014, Note_on_c, 4, 52, 127
1, 67014, Note_on_c, 11, 82, 127
1, 67162, Note_off_c, 11, 82, 127
1, 67164, Note_off_c, 4, 52, 127
1, 67166, Note_on_c, 5, 53, 127
1, 67166, Note_on_c, 10, 81, 127
1, 67314, Note_off_c, 10, 81, 127
1, 67316, Note_off_c, 5, 53, 127
1, 67318, Note_on_c, 7, 55, 127
1, 67318, Note_on_c, 7, 79, 127
1, 67466, Note_off_c, 7, 79, 127
1, 67468, Note_off_c, 7, 55, 127
1, 67470, Note_on_c, 10, 57, 127
1, 67470, Note_on_c, 5, 77, 127
1, 67568, Note_off_c, 5, 77, 127
1, 67571, Note_on_c, 7, 79, 127
1, 67669, Note_off_c, 7, 79, 127
1, 67672, Note_on_c, 5, 77, 127
1, 67770, Note_off_c, 5, 77, 127
1, 67772, Note_off_c, 10, 57, 127
1, 67774, Note_on_c, 10, 45, 127
1, 67774, Note_on_c, 4, 76, 127
1, 67922, Note_off_c, 4, 76, 127
1, 67925, Note_on_c, 2, 74, 127
1, 68073, Note_off_c, 2, 74, 127
1, 68075, Note_off_c, 10, 45, 127
1, 68077, Note_on_c, 2, 50, 127
1, 68077, Note_on_c, 5, 65, 127
1, 68077, Note_on_c, 10, 69, 127
1, 68077, Note_on_c, 2, 74, 127
1, 68677, Note_off_c, 2, 74, 127
1, 68677, Note_off_c, 10, 69, 127
1, 68677, Note_off_c, 5, 65, 127
1, 68683, Note_on_c, 5, 65, 127
1, 68835, Note_off_c, 2, 50, 127
1, 68987, Note_on_c, 10, 57, 127
1, 69132, Note_off_c, 5, 65, 127
1, 69137, Note_off_c, 10, 57, 127
1, 69139, Note_on_c, 7, 55, 127
1, 69139, Note_on_c, 4, 64, 127
1, 69287, Note_off_c, 4, 64, 127
1, 69289, Note_off_c, 7, 55, 127
1, 69291, Note_on_c, 5, 53, 127
1, 69291, Note_on_c, 2, 62, 127
1, 69441, Note_off_c, 5, 53, 127
1, 69443, Note_on_c, 7, 55, 127
1, 69593, Note_off_c, 7, 55, 127
1, 69595, Note_on_c, 10, 57, 127
1, 69595, Note_on_c, 5, 53, 127
1, 69745, Note_off_c, 5, 53, 127
1, 69745, Note_off_c, 10, 57, 127
1, 69747, Note_on_c, 7, 55, 127
1, 69747, Note_on_c, 4, 52, 127
1, 69897, Note_off_c, 4, 52, 127
1, 69897, Note_off_c, 7, 55, 127
1, 69899, Note_on_c, 5, 53, 127
1, 69899, Note_on_c, 2, 50, 127
1, 70049, Note_off_c, 2, 50, 127
1, 70049, Note_off_c, 5, 53, 127
1, 70051, Note_on_c, 4, 52, 127
1, 70196, Note_off_c, 2, 62, 127
1, 70201, Note_off_c, 4, 52, 127
1, 70203, Note_on_c, 2, 50, 127
1, 70203, Note_on_c, 2, 62, 127
1, 70203, Note_on_c, 10, 69, 127
1, 70203, Note_on_c, 5, 65, 127
1, 70353, Note_off_c, 2, 50, 127
1, 70355, Note_on_c, 0, 48, 127
1, 70500, Note_off_c, 5, 65, 127
1, 70500, Note_off_c, 10, 69, 127
1, 70500, Note_off_c, 2, 62, 127
1, 70505, Note_off_c, 0, 48, 127
1, 70507, Note_on_c, 11, 46, 127
1, 70507, Note_on_c, 5, 65, 127
1, 70507, Note_on_c, 2, 62, 127
1, 70507, Note_on_c, 2, 74, 127
1, 70657, Note_off_c, 11, 46, 127
1, 70659, Note_on_c, 11, 58, 127
1, 70804, Note_off_c, 2, 74, 127
1, 70804, Note_off_c, 2, 62, 127
1, 70804, Note_off_c, 5, 65, 127
1, 70809, Note_off_c, 11, 58, 127
1, 70811, Note_on_c, 10, 57, 127
1, 70811, Note_on_c, 4, 64, 127
1, 70811, Note_on_c, 11, 70, 127
1, 70811, Note_on_c, 2, 74, 127
1, 70961, Note_off_c, 10, 57, 127
1, 70963, Note_on_c, 7, 55, 127
1, 71108, Note_off_c, 2, 74, 127
1, 71108, Note_off_c, 11, 70, 127
1, 71108, Note_off_c, 4, 64, 127
1, 71113, Note_off_c, 7, 55, 127
1, 71115, Note_on_c, 10, 57, 127
1, 71115, Note_on_c, 4, 64, 127
1, 71115, Note_on_c, 1, 73, 127
1, 71412, Note_off_c, 1, 73, 127
1, 71417, Note_off_c, 10, 57, 127
1, 71419, Note_on_c, 10, 45, 127
1, 71419, Note_on_c, 12, 71, 127
1, 71567, Note_off_c, 12, 71, 127
1, 71570, Note_on_c, 1, 73, 127
1, 71711, Note_off_c, 4, 64, 127
1, 71719, Note_off_c, 1, 73, 127
1, 71721, Note_off_c, 10, 45, 127
1, 71723, Note_on_c, 2, 50, 127
1, 71723, Note_on_c, 2, 62, 127
1, 71723, Note_on_c, 5, 65, 127
1, 71723, Note_on_c, 2, 74, 127
1, 72020, Note_off_c, 2, 74, 127
1, 72020, Note_off_c, 5, 65, 127
1, 72026, Note_on_c, 10, 69, 127
1, 72318, Note_off_c, 2, 62, 127
1, 72323, Note_off_c, 10, 69, 127
1, 72329, Note_on_c, 5, 65, 127
1, 72481, Note_off_c, 2, 50, 127
1, 72626, Note_off_c, 5, 65, 127
1, 72632, Note_on_c, 10, 57, 127
1, 72632, Note_on_c, 5, 53, 127
1, 72632, Note_on_c, 2, 62, 127
1, 72929, Note_off_c, 2, 62, 127
1, 72934, Note_off_c, 5, 53, 127
1, 72934, Note_off_c, 10, 57, 127
1, 72936, Note_on_c, 4, 52, 127
1, 72936, Note_on_c, 7, 55, 127
1, 72936, Note_on_c, 0, 72, 127
1, 73233, Note_off_c, 0, 72, 127
1, 73239, Note_on_c, 7, 67, 127
1, 73536, Note_off_c, 7, 67, 127
1, 73542, Note_on_c, 4, 64, 127
1, 73694, Note_off_c, 7, 55, 127
1, 73694, Note_off_c, 4, 52, 127
1, 73839, Note_off_c, 4, 64, 127
1, 73845, Note_on_c, 4, 52, 127
1, 73845, Note_on_c, 7, 55, 127
1, 73845, Note_on_c, 0, 60, 127
1, 74142, Note_off_c, 0, 60, 127
1, 74147, Note_off_c, 7, 55, 127
1, 74147, Note_off_c, 4, 52, 127
1, 74149, Note_on_c, 5, 53, 127
1, 74149, Note_on_c, 2, 50, 127
1, 74149, Note_on_c, 11, 70, 127
1, 74446, Note_off_c, 11, 70, 127
1, 74452, Note_on_c, 5, 65, 127
1, 74749, Note_off_c, 5, 65, 127
1, 74755, Note_on_c, 2, 62, 127
1, 74907, Note_off_c, 2, 50, 127
1, 74907, Note_off_c, 5, 53, 127
1, 75052, Note_off_c, 2, 62, 127
1, 75058, Note_on_c, 2, 50, 127
1, 75058, Note_on_c, 5, 53, 127
1, 75058, Note_on_c, 11, 58, 127
1, 75355, Note_off_c, 11, 58, 127
1, 75360, Note_off_c, 5, 53, 127
1, 75360, Note_off_c, 2, 50, 127
1, 75362, Note_on_c, 1, 49, 127
1, 75362, Note_on_c, 4, 52, 127
1, 75362, Note_on_c, 10, 69, 127
1, 75659, Note_off_c, 10, 69, 127
1, 75665, Note_on_c, 4, 64, 127
1, 75962, Note_off_c, 4, 64, 127
1, 75968, Note_on_c, 1, 61, 127
1, 76230, Note_off_c, 4, 52, 127
1, 76230, Note_off_c, 1, 49, 127
1, 76265, Note_off_c, 1, 61, 127
1, 76271, Note_on_c, 5, 53, 127
1, 76271, Note_on_c, 2, 50, 127
1, 76271, Note_on_c, 10, 57, 127
1, 76568, Note_off_c, 10, 57, 127
1, 76573, Note_off_c, 2, 50, 127
1, 76573, Note_off_c, 5, 53, 127
1, 76575, Note_on_c, 7, 55, 127
1, 76575, Note_on_c, 4, 52, 127
1, 76575, Note_on_c, 7, 79, 127
1, 76872, Note_off_c, 7, 79, 127
1, 76877, Note_off_c, 4, 52, 127
1, 76877, Note_off_c, 7, 55, 127
1, 76879, Note_on_c, 5, 53, 127
1, 76879, Note_on_c, 10, 57, 127
1, 76879, Note_on_c, 4, 76, 127
1, 77027, Note_off_c, 4, 76, 127
1, 77030, Note_on_c, 5, 77, 127
1, 77178, Note_off_c, 5, 77, 127
1, 77180, Note_off_c, 10, 57, 127
1, 77180, Note_off_c, 5, 53, 127
1, 77182, Note_on_c, 7, 55, 127
1, 77182, Note_on_c, 4, 52, 127
1, 77182, Note_on_c, 7, 79, 127
1, 77479, Note_off_c, 7, 79, 127
1, 77484, Note_off_c, 4, 52, 127
1, 77484, Note_off_c, 7, 55, 127
1, 77486, Note_on_c, 5, 53, 127
1, 77486, Note_on_c, 2, 50, 127
1, 77486, Note_on_c, 7, 79, 127
1, 77783, Note_off_c, 7, 79, 127
1, 77788, Note_off_c, 2, 50, 127
1, 77788, Note_off_c, 5, 53, 127
1, 77790, Note_on_c, 1, 49, 127
1, 77790, Note_on_c, 4, 52, 127
1, 77790, Note_on_c, 7, 79, 127
1, 78087, Note_off_c, 7, 79, 127
1, 78092, Note_off_c, 4, 52, 127
1, 78092, Note_off_c, 1, 49, 127
1, 78094, Note_on_c, 2, 50, 127
1, 78094, Note_on_c, 12, 47, 127
1, 78094, Note_on_c, 4, 76, 127
1, 78242, Note_off_c, 4, 76, 127
1, 78245, Note_on_c, 5, 77, 127
1, 78393, Note_off_c, 5, 77, 127
1, 78395, Note_off_c, 12, 47, 127
1, 78395, Note_off_c, 2, 50, 127
1, 78397, Note_on_c, 1, 49, 127
1, 78397, Note_on_c, 10, 45, 127
1, 78397, Note_on_c, 7, 79, 127
1, 78694, Note_off_c, 7, 79, 127
1, 78699, Note_off_c, 10, 45, 127
1, 78699, Note_off_c, 1, 49, 127
1, 78701, Note_on_c, 2, 50, 127
1, 78701, Note_on_c, 12, 47, 127
1, 78701, Note_on_c, 7, 79, 127
1, 78998, Note_off_c, 7, 79, 127
1, 79003, Note_off_c, 12, 47, 127
1, 79003, Note_off_c, 2, 50, 127
1, 79005, Note_on_c, 1, 49, 127
1, 79005, Note_on_c, 4, 52, 127
1, 79005, Note_on_c, 11, 82, 127
1, 79302, Note_off_c, 11, 82, 127
1, 79307, Note_off_c, 4, 52, 127
1, 79307, Note_off_c, 1, 49, 127
1, 79309, Note_on_c, 5, 53, 127
1, 79309, Note_on_c, 2, 50, 127
1, 79309, Note_on_c, 7, 79, 127
1, 79457, Note_off_c, 7, 79, 127
1, 79460, Note_on_c, 10, 81, 127
1, 79608, Note_off_c, 10, 81, 127
1, 79610, Note_off_c, 2, 50, 127
1, 79610, Note_off_c, 5, 53, 127
1, 79612, Note_on_c, 7, 55, 127
1, 79612, Note_on_c, 4, 52, 127
1, 79612, Note_on_c, 11, 82, 127
1, 79909, Note_off_c, 11, 82, 127
1, 79914, Note_off_c, 4, 52, 127
1, 79914, Note_off_c, 7, 55, 127
1, 79916, Note_on_c, 10, 57, 127
1, 79916, Note_on_c, 5, 53, 127
1, 79916, Note_on_c, 11, 82, 127
1, 80213, Note_off_c, 11, 82, 127
1, 80218, Note_off_c, 5, 53, 127
1, 80218, Note_off_c, 10, 57, 127
1, 80220, Note_on_c, 7, 55, 127
1, 80220, Note_on_c, 11, 58, 127
1, 80220, Note_on_c, 7, 79, 127
1, 80220, Note_on_c, 1, 73, 127
1, 80220, Note_on_c, 4, 76, 127
1, 80220, Note_on_c, 11, 82, 127
1, 80523, Note_on_c, 4, 52, 127
1, 80662, Note_off_c, 7, 55, 127
1, 80673, Note_off_c, 4, 52, 127
1, 80675, Note_on_c, 5, 53, 127
1, 80825, Note_off_c, 5, 53, 127
1, 80827, Note_on_c, 7, 55, 127
1, 80974, Note_off_c, 11, 82, 127
1, 80974, Note_off_c, 4, 76, 127
1, 80974, Note_off_c, 1, 73, 127
1, 80974, Note_off_c, 7, 79, 127
1, 81129, Note_off_c, 7, 55, 127
1, 81129, Note_off_c, 11, 58, 127
1, 81131, Note_on_c, 7, 55, 127
1, 81131, Note_on_c, 4, 64, 127
1, 81131, Note_on_c, 1, 73, 127
1, 81131, Note_on_c, 10, 69, 127
1, 81428, Note_off_c, 10, 69, 127
1, 81428, Note_off_c, 1, 73, 127
1, 81433, Note_off_c, 4, 64, 127
1, 81433, Note_off_c, 7, 55, 127
1, 81435, Note_on_c, 2, 62, 127
1, 81435, Note_on_c, 5, 53, 127
1, 81435, Note_on_c, 10, 69, 127
1, 81435, Note_on_c, 2, 74, 127
1, 81737, Note_off_c, 5, 53, 127
1, 81739, Note_on_c, 7, 55, 127
1, 81884, Note_off_c, 2, 74, 127
1, 81890, Note_on_c, 4, 76, 127
1, 82031, Note_off_c, 10, 69, 127
1, 82036, Note_off_c, 2, 62, 127
1, 82039, Note_off_c, 4, 76, 127
1, 82041, Note_off_c, 7, 55, 127
1, 82043, Note_on_c, 10, 57, 127
1, 82043, Note_on_c, 5, 77, 127
1, 82043, Note_on_c, 1, 73, 127
1, 82116, Note_off_c, 5, 77, 127
1, 82119, Note_on_c, 4, 76, 127
1, 82192, Note_off_c, 4, 76, 127
1, 82195, Note_on_c, 5, 77, 127
1, 82268, Note_off_c, 5, 77, 127
1, 82271, Note_on_c, 4, 76, 127
1, 82344, Note_off_c, 4, 76, 127
1, 82347, Note_on_c, 10, 45, 127
1, 82347, Note_on_c, 5, 77, 127
1, 82420, Note_off_c, 5, 77, 127
1, 82423, Note_on_c, 4, 76, 127
1, 82492, Note_off_c, 1, 73, 127
1, 82495, Note_off_c, 4, 76, 127
1, 82498, Note_on_c, 2, 74, 127
1, 82643, Note_off_c, 10, 57, 127
1, 82646, Note_off_c, 2, 74, 127
1, 82648, Note_off_c, 10, 45, 127
1, 82650, Note_on_c, 2, 50, 127
1, 82650, Note_on_c, 2, 74, 127
1, 82650, Note_on_c, 10, 69, 127
1, 82650, Note_on_c, 5, 65, 127
1, 82952, Note_off_c, 2, 50, 127
1, 82954, Note_on_c, 5, 53, 127
1, 83256, Note_off_c, 5, 53, 127
1, 83258, Note_on_c, 10, 57, 127
1, 83405, Note_off_c, 5, 65, 127
1, 83405, Note_off_c, 10, 69, 127
1, 83555, Note_off_c, 2, 74, 127
1, 83560, Note_off_c, 10, 57, 127
1, 83562, Note_on_c, 5, 53, 127
1, 83562, Note_on_c, 2, 74, 127
1, 83710, Note_off_c, 2, 74, 127
1, 83713, Note_on_c, 3, 75, 127
1, 83861, Note_off_c, 3, 75, 127
1, 83863, Note_off_c, 5, 53, 127
1, 83865, Note_on_c, 2, 50, 127
1, 83865, Note_on_c, 5, 77, 127
1, 84162, Note_off_c, 5, 77, 127
1, 84167, Note_off_c, 2, 50, 127
1, 84169, Note_on_c, 5, 53, 127
1, 84169, Note_on_c, 2, 74, 127
1, 84317, Note_off_c, 2, 74, 127
1, 84320, Note_on_c, 3, 75, 127
1, 84468, Note_off_c, 3, 75, 127
1, 84470, Note_off_c, 5, 53, 127
1, 84472, Note_on_c, 10, 57, 127
1, 84472, Note_on_c, 5, 77, 127
1, 84769, Note_off_c, 5, 77, 127
1, 84774, Note_off_c, 10, 57, 127
1, 84776, Note_on_c, 0, 48, 127
1, 84776, Note_on_c, 5, 77, 127
1, 85073, Note_off_c, 5, 77, 127
1, 85078, Note_off_c, 0, 48, 127
1, 85080, Note_on_c, 12, 47, 127
1, 85080, Note_on_c, 5, 77, 127
1, 85377, Note_off_c, 5, 77, 127
1, 85382, Note_off_c, 12, 47, 127
1, 85384, Note_on_c, 2, 50, 127
1, 85384, Note_on_c, 2, 74, 127
1, 85532, Note_off_c, 2, 74, 127
1, 85535, Note_on_c, 3, 75, 127
1, 85683, Note_off_c, 3, 75, 127
1, 85685, Note_off_c, 2, 50, 127
1, 85687, Note_on_c, 7, 55, 127
1, 85687, Note_on_c, 5, 77, 127
1, 85984, Note_off_c, 5, 77, 127
1, 85989, Note_off_c, 7, 55, 127
1, 85991, Note_on_c, 12, 47, 127
1, 85991, Note_on_c, 5, 77, 127
1, 86288, Note_off_c, 5, 77, 127
1, 86293, Note_off_c, 12, 47, 127
1, 86295, Note_on_c, 0, 48, 127
1, 86295, Note_on_c, 3, 75, 127
1, 86592, Note_off_c, 3, 75, 127
1, 86597, Note_off_c, 0, 48, 127
1, 86599, Note_on_c, 3, 51, 127
1, 86599, Note_on_c, 0, 72, 127
1, 86747, Note_off_c, 0, 72, 127
1, 86750, Note_on_c, 2, 74, 127
1, 86898, Note_off_c, 2, 74, 127
1, 86900, Note_off_c, 3, 51, 127
1, 86902, Note_on_c, 7, 55, 127
1, 86902, Note_on_c, 3, 75, 127
1, 87199, Note_off_c, 3, 75, 127
1, 87204, Note_off_c, 7, 55, 127
1, 87206, Note_on_c, 11, 46, 127
1, 87206, Note_on_c, 3, 75, 127
1, 87503, Note_off_c, 3, 75, 127
1, 87508, Note_off_c, 11, 46, 127
1, 87510, Note_on_c, 10, 45, 127
1, 87510, Note_on_c, 3, 75, 127
1, 87807, Note_off_c, 3, 75, 127
1, 87812, Note_off_c, 10, 45, 127
1, 87814, Note_on_c, 0, 48, 127
1, 87814, Note_on_c, 0, 72, 127
1, 87962, Note_off_c, 0, 72, 127
1, 87965, Note_on_c, 2, 74, 127
1, 88113, Note_off_c, 2, 74, 127
1, 88115, Note_off_c, 0, 48, 127
1, 88117, Note_on_c, 5, 53, 127
1, 88117, Note_on_c, 3, 75, 127
1, 88414, Note_off_c, 3, 75, 127
1, 88419, Note_off_c, 5, 53, 127
1, 88421, Note_on_c, 10, 45, 127
1, 88421, Note_on_c, 3, 75, 127
1, 88718, Note_off_c, 3, 75, 127
1, 88723, Note_off_c, 10, 45, 127
1, 88725, Note_on_c, 11, 46, 127
1, 88725, Note_on_c, 2, 74, 127
1, 89022, Note_off_c, 2, 74, 127
1, 89027, Note_off_c, 11, 46, 127
1, 89029, Note_on_c, 2, 50, 127
1, 89029, Note_on_c, 11, 70, 127
1, 89177, Note_off_c, 11, 70, 127
1, 89180, Note_on_c, 0, 72, 127
1, 89328, Note_off_c, 0, 72, 127
1, 89330, Note_off_c, 2, 50, 127
1, 89332, Note_on_c, 5, 53, 127
1, 89332, Note_on_c, 2, 74, 127
1, 89629, Note_off_c, 2, 74, 127
1, 89634, Note_off_c, 5, 53, 127
1, 89636, Note_on_c, 11, 46, 127
1, 89636, Note_on_c, 2, 74, 127
1, 89933, Note_off_c, 2, 74, 127
1, 89938, Note_off_c, 11, 46, 127
1, 89940, Note_on_c, 10, 45, 127
1, 89940, Note_on_c, 0, 72, 127
1, 90242, Note_off_c, 10, 45, 127
1, 90244, Note_on_c, 6, 54, 127
1, 90457, Note_off_c, 0, 72, 127
1, 90471, Note_on_c, 11, 70, 127
1, 90544, Note_off_c, 11, 70, 127
1, 90546, Note_off_c, 6, 54, 127
1, 90548, Note_on_c, 7, 43, 127
1, 90548, Note_on_c, 0, 72, 127
1, 90621, Note_off_c, 0, 72, 127
1, 90624, Note_on_c, 11, 70, 127
1, 90697, Note_off_c, 11, 70, 127
1, 90700, Note_on_c, 0, 72, 127
1, 90773, Note_off_c, 0, 72, 127
1, 90776, Note_on_c, 11, 70, 127
1, 90849, Note_off_c, 11, 70, 127
1, 90851, Note_off_c, 7, 43, 127
1, 90853, Note_on_c, 7, 55, 127
1, 90853, Note_on_c, 0, 72, 127
1, 90926, Note_off_c, 0, 72, 127
1, 90929, Note_on_c, 11, 70, 127
1, 91002, Note_off_c, 11, 70, 127
1, 91005, Note_on_c, 0, 72, 127
1, 91078, Note_off_c, 0, 72, 127
1, 91081, Note_on_c, 11, 70, 127
1, 91154, Note_off_c, 11, 70, 127
1, 91156, Note_off_c, 7, 55, 127
1, 91158, Note_on_c, 2, 50, 127
1, 91158, Note_on_c, 6, 66, 127
1, 91308, Note_off_c, 2, 50, 127
1, 91310, Note_on_c, 3, 51, 127
1, 91310, Note_on_c, 7, 67, 127
1, 91458, Note_off_c, 7, 67, 127
1, 91460, Note_off_c, 3, 51, 127
1, 91462, Note_on_c, 2, 50, 127
1, 91462, Note_on_c, 10, 69, 127
1, 91612, Note_off_c, 2, 50, 127
1, 91614, Note_on_c, 0, 48, 127
1, 91755, Note_off_c, 6, 66, 127
1, 91764, Note_off_c, 0, 48, 127
1, 91766, Note_on_c, 11, 46, 127
1, 91900, Note_off_c, 10, 69, 127
1, 91916, Note_off_c, 11, 46, 127
1, 91918, Note_on_c, 10, 45, 127
1, 92068, Note_off_c, 10, 45, 127
1, 92070, Note_on_c, 7, 43, 127
1, 92070, Note_on_c, 7, 67, 127
1, 92070, Note_on_c, 11, 70, 127
1, 92070, Note_on_c, 2, 74, 127
1, 92220, Note_off_c, 7, 43, 127
1, 92222, Note_on_c, 5, 41, 127
1, 92367, Note_off_c, 2, 74, 127
1, 92367, Note_off_c, 11, 70, 127
1, 92367, Note_off_c, 7, 67, 127
1, 92372, Note_off_c, 5, 41, 127
1, 92374, Note_on_c, 3, 39, 127
1, 92374, Note_on_c, 11, 70, 127
1, 92374, Note_on_c, 7, 79, 127
1, 92374, Note_on_c, 7, 67, 127
1, 92524, Note_off_c, 3, 39, 127
1, 92526, Note_on_c, 3, 51, 127
1, 92671, Note_off_c, 7, 67, 127
1, 92671, Note_off_c, 7, 79, 127
1, 92671, Note_off_c, 11, 70, 127
1, 92676, Note_off_c, 3, 51, 127
1, 92678, Note_on_c, 2, 50, 127
1, 92678, Note_on_c, 10, 69, 127
1, 92678, Note_on_c, 3, 75, 127
1, 92678, Note_on_c, 7, 79, 127
1, 92828, Note_off_c, 2, 50, 127
1, 92830, Note_on_c, 0, 48, 127
1, 92975, Note_off_c, 7, 79, 127
1, 92975, Note_off_c, 3, 75, 127
1, 92975, Note_off_c, 10, 69, 127
1, 92980, Note_off_c, 0, 48, 127
1, 92982, Note_on_c, 2, 50, 127
1, 92982, Note_on_c, 10, 69, 127
1, 92982, Note_on_c, 6, 78, 127
1, 93279, Note_off_c, 6, 78, 127
1, 93284, Note_off_c, 2, 50, 127
1, 93286, Note_on_c, 2, 38, 127
1, 93286, Note_on_c, 4, 76, 127
1, 93434, Note_off_c, 4, 76, 127
1, 93437, Note_on_c, 6, 78, 127
1, 93578, Note_off_c, 10, 69, 127
1, 93586, Note_off_c, 6, 78, 127
1, 93588, Note_off_c, 2, 38, 127
1, 93590, Note_on_c, 7, 43, 127
1, 93590, Note_on_c, 7, 79, 127
1, 93590, Note_on_c, 7, 67, 127
1, 93590, Note_on_c, 11, 70, 127
1, 93887, Note_off_c, 11, 70, 127
1, 93887, Note_off_c, 7, 79, 127
1, 93893, Note_on_c, 2, 74, 127
1, 94185, Note_off_c, 7, 67, 127
1, 94190, Note_off_c, 2, 74, 127
1, 94196, Note_on_c, 11, 70, 127
1, 94348, Note_off_c, 7, 43, 127
1, 94493, Note_off_c, 11, 70, 127
1, 94499, Note_on_c, 2, 62, 127
1, 94499, Note_on_c, 11, 58, 127
1, 94499, Note_on_c, 7, 67, 127
1, 94796, Note_off_c, 7, 67, 127
1, 94801, Note_off_c, 11, 58, 127
1, 94801, Note_off_c, 2, 62, 127
1, 94803, Note_on_c, 10, 57, 127
1, 94803, Note_on_c, 0, 60, 127
1, 94803, Note_on_c, 5, 77, 127
1, 95100, Note_off_c, 5, 77, 127
1, 95106, Note_on_c, 0, 72, 127
1, 95403, Note_off_c, 0, 72, 127
1, 95409, Note_on_c, 10, 69, 127
1, 95561, Note_off_c, 0, 60, 127
1, 95561, Note_off_c, 10, 57, 127
1, 95706, Note_off_c, 10, 69, 127
1, 95712, Note_on_c, 0, 60, 127
1, 95712, Note_on_c, 10, 57, 127
1, 95712, Note_on_c, 5, 65, 127
1, 96009, Note_off_c, 5, 65, 127
1, 96014, Note_off_c, 10, 57, 127
1, 96014, Note_off_c, 0, 60, 127
1, 96016, Note_on_c, 11, 58, 127
1, 96016, Note_on_c, 7, 55, 127
1, 96016, Note_on_c, 3, 75, 127
1, 96313, Note_off_c, 3, 75, 127
1, 96319, Note_on_c, 11, 70, 127
1, 96616, Note_off_c, 11, 70, 127
1, 96622, Note_on_c, 7, 67, 127
1, 96774, Note_off_c, 7, 55, 127
1, 96774, Note_off_c, 11, 58, 127
1, 96919, Note_off_c, 7, 67, 127
1, 96925, Note_on_c, 11, 58, 127
1, 96925, Note_on_c, 7, 55, 127
1, 96925, Note_on_c, 3, 63, 127
1, 97222, Note_off_c, 3, 63, 127
1, 97227, Note_off_c, 7, 55, 127
1, 97227, Note_off_c, 11, 58, 127
1, 97229, Note_on_c, 10, 57, 127
1, 97229, Note_on_c, 6, 54, 127
1, 97229, Note_on_c, 2, 74, 127
1, 97526, Note_off_c, 2, 74, 127
1, 97532, Note_on_c, 10, 69, 127
1, 97829, Note_off_c, 10, 69, 127
1, 97835, Note_on_c, 6, 66, 127
1, 98050, Note_off_c, 6, 54, 127
1, 98050, Note_off_c, 10, 57, 127
1, 98132, Note_off_c, 6, 66, 127
1, 98138, Note_on_c, 11, 58, 127
1, 98138, Note_on_c, 7, 55, 127
1, 98138, Note_on_c, 2, 62, 127
1, 98435, Note_off_c, 2, 62, 127
1, 98440, Note_off_c, 7, 55, 127
1, 98440, Note_off_c, 11, 58, 127
1, 98442, Note_on_c, 10, 57, 127
1, 98442, Note_on_c, 0, 72, 127
1, 98739, Note_off_c, 0, 72, 127
1, 98745, Note_on_c, 0, 60, 127
1, 98745, Note_on_c, 10, 69, 127
1, 98893, Note_off_c, 10, 69, 127
1, 98896, Note_on_c, 11, 70, 127
1, 99044, Note_off_c, 11, 70, 127
1, 99046, Note_off_c, 0, 60, 127
1, 99048, Note_on_c, 3, 63, 127
1, 99048, Note_on_c, 0, 72, 127
1, 99345, Note_off_c, 0, 72, 127
1, 99350, Note_off_c, 10, 57, 127
1, 99352, Note_on_c, 7, 55, 127
1, 99352, Note_on_c, 0, 72, 127
1, 99649, Note_off_c, 0, 72, 127
1, 99654, Note_off_c, 7, 55, 127
1, 99656, Note_on_c, 6, 54, 127
1, 99656, Note_on_c, 0, 72, 127
1, 99953, Note_off_c, 0, 72, 127
1, 99958, Note_off_c, 6, 54, 127
1, 99960, Note_on_c, 10, 57, 127
1, 99960, Note_on_c, 10, 69, 127
1, 100108, Note_off_c, 10, 69, 127
1, 100111, Note_on_c, 11, 70, 127
1, 100259, Note_off_c, 11, 70, 127
1, 100261, Note_off_c, 3, 63, 127
1, 100263, Note_on_c, 2, 62, 127
1, 100263, Note_on_c, 0, 72, 127
1, 100560, Note_off_c, 0, 72, 127
1, 100560, Note_off_c, 10, 57, 127
1, 100566, Note_on_c, 6, 54, 127
1, 100566, Note_on_c, 0, 72, 127
1, 100863, Note_off_c, 0, 72, 127
1, 100863, Note_off_c, 2, 62, 127
1, 100868, Note_off_c, 6, 54, 127
1, 100870, Note_on_c, 7, 55, 127
1, 100870, Note_on_c, 11, 70, 127
1, 101167, Note_off_c, 11, 70, 127
1, 101172, Note_off_c, 7, 55, 127
1, 101174, Note_on_c, 11, 58, 127
1, 101174, Note_on_c, 7, 67, 127
1, 101322, Note_off_c, 7, 67, 127
1, 101325, Note_on_c, 10, 69, 127
1, 101473, Note_off_c, 10, 69, 127
1, 101475, Note_off_c, 11, 58, 127
1, 101477, Note_on_c, 2, 62, 127
1, 101477, Note_on_c, 11, 70, 127
1, 101774, Note_off_c, 11, 70, 127
1, 101779, Note_off_c, 2, 62, 127
1, 101781, Note_on_c, 11, 58, 127
1, 101781, Note_on_c, 2, 62, 127
1, 101781, Note_on_c, 7, 67, 127
1, 102078, Note_off_c, 7, 67, 127
1, 102083, Note_off_c, 2, 62, 127
1, 102083, Note_off_c, 11, 58, 127
1, 102085, Note_on_c, 0, 60, 127
1, 102085, Note_on_c, 10, 57, 127
1, 102085, Note_on_c, 3, 75, 127
1, 102382, Note_off_c, 3, 75, 127
1, 102387, Note_off_c, 10, 57, 127
1, 102387, Note_off_c, 0, 60, 127
1, 102389, Note_on_c, 11, 58, 127
1, 102389, Note_on_c, 2, 62, 127
1, 102389, Note_on_c, 0, 72, 127
1, 102537, Note_off_c, 0, 72, 127
1, 102540, Note_on_c, 2, 74, 127
1, 102688, Note_off_c, 2, 74, 127
1, 102690, Note_off_c, 2, 62, 127
1, 102690, Note_off_c, 11, 58, 127
1, 102692, Note_on_c, 0, 60, 127
1, 102692, Note_on_c, 10, 57, 127
1, 102692, Note_on_c, 3, 75, 127
1, 102989, Note_off_c, 3, 75, 127
1, 102994, Note_off_c, 10, 57, 127
1, 102994, Note_off_c, 0, 60, 127
1, 102996, Note_on_c, 11, 58, 127
1, 102996, Note_on_c, 7, 55, 127
1, 102996, Note_on_c, 3, 75, 127
1, 103293, Note_off_c, 3, 75, 127
1, 103298, Note_off_c, 7, 55, 127
1, 103298, Note_off_c, 11, 58, 127
1, 103300, Note_on_c, 10, 57, 127
1, 103300, Note_on_c, 6, 54, 127
1, 103300, Note_on_c, 3, 75, 127
1, 103597, Note_off_c, 3, 75, 127
1, 103602, Note_off_c, 6, 54, 127
1, 103602, Note_off_c, 10, 57, 127
1, 103604, Note_on_c, 11, 58, 127
1, 103604, Note_on_c, 7, 55, 127
1, 103604, Note_on_c, 0, 72, 127
1, 103752, Note_off_c, 0, 72, 127
1, 103755, Note_on_c, 2, 74, 127
1, 103903, Note_off_c, 2, 74, 127
1, 103905, Note_off_c, 7, 55, 127
1, 103905, Note_off_c, 11, 58, 127
1, 103907, Note_on_c, 10, 57, 127
1, 103907, Note_on_c, 0, 60, 127
1, 103907, Note_on_c, 3, 75, 127
1, 104204, Note_off_c, 3, 75, 127
1, 104209, Note_off_c, 0, 60, 127
1, 104209, Note_off_c, 10, 57, 127
1, 104211, Note_on_c, 11, 58, 127
1, 104211, Note_on_c, 2, 62, 127
1, 104211, Note_on_c, 3, 75, 127
1, 104508, Note_off_c, 3, 75, 127
1, 104513, Note_off_c, 2, 62, 127
1, 104513, Note_off_c, 11, 58, 127
1, 104515, Note_on_c, 0, 60, 127
1, 104515, Note_on_c, 3, 63, 127
1, 104515, Note_on_c, 0, 72, 127
1, 104515, Note_on_c, 10, 69, 127
1, 104515, Note_on_c, 6, 66, 127
1, 104515, Note_on_c, 3, 75, 127
1, 104817, Note_off_c, 3, 63, 127
1, 104817, Note_off_c, 0, 60, 127
1, 104819, Note_on_c, 10, 57, 127
1, 104969, Note_off_c, 10, 57, 127
1, 104971, Note_on_c, 11, 58, 127
1, 105121, Note_off_c, 11, 58, 127
1, 105123, Note_on_c, 0, 60, 127
1, 105270, Note_off_c, 3, 75, 127
1, 105270, Note_off_c, 6, 66, 127
1, 105270, Note_off_c, 10, 69, 127
1, 105270, Note_off_c, 0, 72, 127
1, 105425, Note_off_c, 0, 60, 127
1, 105427, Note_on_c, 0, 48, 127
1, 105427, Note_on_c, 10, 57, 127
1, 105427, Note_on_c, 6, 66, 127
1, 105427, Note_on_c, 2, 62, 127
1, 105724, Note_off_c, 2, 62, 127
1, 105724, Note_off_c, 6, 66, 127
1, 105729, Note_off_c, 10, 57, 127
1, 105729, Note_off_c, 0, 48, 127
1, 105731, Note_on_c, 11, 46, 127
1, 105731, Note_on_c, 7, 55, 127
1, 105731, Note_on_c, 7, 67, 127
1, 105731, Note_on_c, 2, 62, 127
1, 106033, Note_off_c, 11, 46, 127
1, 106035, Note_on_c, 0, 48, 127
1, 106180, Note_off_c, 7, 67, 127
1, 106186, Note_on_c, 10, 69, 127
1, 106325, Note_off_c, 10, 69, 127
1, 106327, Note_off_c, 2, 62, 127
1, 106332, Note_off_c, 7, 55, 127
1, 106337, Note_off_c, 0, 48, 127
1, 106339, Note_on_c, 2, 50, 127
1, 106339, Note_on_c, 10, 69, 127
1, 106405, Note_on_c, 7, 67, 127
1, 106460, Note_off_c, 7, 67, 127
1, 106471, Note_on_c, 6, 66, 127
1, 106537, Note_off_c, 10, 69, 127
1, 106537, Note_on_c, 7, 67, 127
1, 106592, Note_off_c, 7, 67, 127
1, 106603, Note_on_c, 10, 69, 127
1, 106641, Note_on_c, 2, 38, 127
1, 106782, Note_off_c, 10, 69, 127
1, 106793, Note_on_c, 7, 67, 127
1, 106795, Note_off_c, 6, 66, 127
1, 106939, Note_off_c, 2, 50, 127
1, 106942, Note_off_c, 7, 67, 127
1, 106944, Note_off_c, 2, 38, 127
1, 106946, Note_on_c, 7, 43, 127
1, 106946, Note_on_c, 7, 67, 127
1, 107243, Note_off_c, 7, 67, 127
1, 107249, Note_on_c, 11, 70, 127
1, 107546, Note_off_c, 11, 70, 127
1, 107546, Note_off_c, 7, 43, 127
1, 107552, Note_on_c, 2, 74, 127
1, 107849, Note_off_c, 2, 74, 127
1, 107855, Note_on_c, 2, 62, 127
1, 107855, Note_on_c, 11, 58, 127
1, 107855, Note_on_c, 7, 79, 127
1, 108152, Note_off_c, 7, 79, 127
1, 108157, Note_off_c, 11, 58, 127
1, 108157, Note_off_c, 2, 62, 127
1, 108159, Note_on_c, 0, 60, 127
1, 108159, Note_on_c, 10, 57, 127
1, 108159, Note_on_c, 5, 65, 127
1, 108456, Note_off_c, 5, 65, 127
1, 108462, Note_on_c, 10, 69, 127
1, 108759, Note_off_c, 10, 69, 127
1, 108765, Note_on_c, 0, 72, 127
1, 108917, Note_off_c, 10, 57, 127
1, 108917, Note_off_c, 0, 60, 127
1, 109062, Note_off_c, 0, 72, 127
1, 109068, Note_on_c, 0, 60, 127
1, 109068, Note_on_c, 10, 57, 127
1, 109068, Note_on_c, 5, 77, 127
1, 109365, Note_off_c, 5, 77, 127
1, 109370, Note_off_c, 10, 57, 127
1, 109370, Note_off_c, 0, 60, 127
1, 109372, Note_on_c, 11, 58, 127
1, 109372, Note_on_c, 7, 55, 127
1, 109372, Note_on_c, 3, 63, 127
1, 109669, Note_off_c, 3, 63, 127
1, 109675, Note_on_c, 7, 67, 127
1, 109972, Note_off_c, 7, 67, 127
1, 109978, Note_on_c, 11, 70, 127
1, 110130, Note_off_c, 7, 55, 127
1, 110130, Note_off_c, 11, 58, 127
1, 110275, Note_off_c, 11, 70, 127
1, 110281, Note_on_c, 11, 58, 127
1, 110281, Note_on_c, 7, 55, 127
1, 110281, Note_on_c, 3, 75, 127
1, 110578, Note_off_c, 3, 75, 127
1, 110583, Note_off_c, 7, 55, 127
1, 110583, Note_off_c, 11, 58, 127
1, 110585, Note_on_c, 10, 57, 127
1, 110585, Note_on_c, 5, 53, 127
1, 110585, Note_on_c, 2, 62, 127
1, 110882, Note_off_c, 2, 62, 127
1, 110888, Note_on_c, 5, 65, 127
1, 111185, Note_off_c, 5, 65, 127
1, 111191, Note_on_c, 10, 69, 127
1, 111343, Note_off_c, 5, 53, 127
1, 111343, Note_off_c, 10, 57, 127
1, 111488, Note_off_c, 10, 69, 127
1, 111494, Note_on_c, 10, 57, 127
1, 111494, Note_on_c, 5, 53, 127
1, 111494, Note_on_c, 2, 74, 127
1, 111791, Note_off_c, 2, 74, 127
1, 111796, Note_off_c, 5, 53, 127
1, 111796, Note_off_c, 10, 57, 127
1, 111798, Note_on_c, 3, 51, 127
1, 111798, Note_on_c, 7, 55, 127
1, 111798, Note_on_c, 0, 60, 127
1, 112095, Note_off_c, 0, 60, 127
1, 112101, Note_on_c, 3, 63, 127
1, 112398, Note_off_c, 3, 63, 127
1, 112404, Note_on_c, 7, 67, 127
1, 112556, Note_off_c, 7, 55, 127
1, 112556, Note_off_c, 3, 51, 127
1, 112701, Note_off_c, 7, 67, 127
1, 112707, Note_on_c, 7, 55, 127
1, 112707, Note_on_c, 3, 51, 127
1, 112707, Note_on_c, 0, 72, 127
1, 113004, Note_off_c, 0, 72, 127
1, 113009, Note_off_c, 3, 51, 127
1, 113009, Note_off_c, 7, 55, 127
1, 113011, Note_on_c, 5, 53, 127
1, 113011, Note_on_c, 5, 65, 127
1, 113011, Note_on_c, 11, 70, 127
1, 113084, Note_off_c, 11, 70, 127
1, 113087, Note_on_c, 10, 69, 127
1, 113160, Note_off_c, 10, 69, 127
1, 113162, Note_off_c, 5, 53, 127
1, 113164, Note_on_c, 3, 51, 127
1, 113164, Note_on_c, 11, 70, 127
1, 113237, Note_off_c, 11, 70, 127
1, 113240, Note_on_c, 10, 69, 127
1, 113314, Note_off_c, 3, 51, 127
1, 113316, Note_on_c, 2, 50, 127
1, 113466, Note_off_c, 2, 50, 127
1, 113468, Note_on_c, 3, 51, 127
1, 113618, Note_off_c, 3, 51, 127
1, 113620, Note_on_c, 5, 53, 127
1, 113915, Note_off_c, 10, 69, 127
1, 113917, Note_off_c, 5, 65, 127
1, 113923, Note_on_c, 5, 41, 127
1, 113923, Note_on_c, 11, 70, 127
1, 114220, Note_off_c, 11, 70, 127
1, 114220, Note_off_c, 5, 53, 127
1, 114225, Note_off_c, 5, 41, 127
1, 114227, Note_on_c, 11, 46, 127
1, 114227, Note_on_c, 11, 70, 127
1, 114379, Note_on_c, 11, 82, 127
1, 114523, Note_off_c, 11, 70, 127
1, 114528, Note_off_c, 11, 82, 127
1, 114530, Note_off_c, 11, 46, 127
1, 114532, Note_on_c, 11, 58, 127
1, 114532, Note_on_c, 10, 81, 127
1, 114680, Note_off_c, 10, 81, 127
1, 114683, Note_on_c, 7, 79, 127
1, 114831, Note_off_c, 7, 79, 127
1, 114833, Note_off_c, 11, 58, 127
1, 114835, Note_on_c, 2, 62, 127
1, 114835, Note_on_c, 5, 77, 127
1, 114983, Note_off_c, 5, 77, 127
1, 114986, Note_on_c, 7, 79, 127
1, 115134, Note_off_c, 7, 79, 127
1, 115136, Note_off_c, 2, 62, 127
1, 115138, Note_on_c, 5, 65, 127
1, 115138, Note_on_c, 3, 75, 127
1, 115286, Note_off_c, 3, 75, 127
1, 115289, Note_on_c, 5, 77, 127
1, 115437, Note_off_c, 5, 77, 127
1, 115439, Note_off_c, 5, 65, 127
1, 115441, Note_on_c, 11, 70, 127
1, 115441, Note_on_c, 2, 74, 127
1, 115589, Note_off_c, 2, 74, 127
1, 115592, Note_on_c, 3, 75, 127
1, 115740, Note_off_c, 3, 75, 127
1, 115742, Note_off_c, 11, 70, 127
1, 115744, Note_on_c, 5, 65, 127
1, 115744, Note_on_c, 0, 72, 127
1, 115892, Note_off_c, 0, 72, 127
1, 115895, Note_on_c, 2, 74, 127
1, 116043, Note_off_c, 2, 74, 127
1, 116045, Note_off_c, 5, 65, 127
1, 116047, Note_on_c, 2, 62, 127
1, 116047, Note_on_c, 11, 70, 127
1, 116195, Note_off_c, 11, 70, 127
1, 116198, Note_on_c, 0, 72, 127
1, 116346, Note_off_c, 0, 72, 127
1, 116348, Note_off_c, 2, 62, 127
1, 116350, Note_on_c, 5, 65, 127
1, 116350, Note_on_c, 10, 69, 127
1, 116498, Note_off_c, 10, 69, 127
1, 116501, Note_on_c, 0, 72, 127
1, 116649, Note_off_c, 0, 72, 127
1, 116651, Note_off_c, 5, 65, 127
1, 116653, Note_on_c, 2, 62, 127
1, 116653, Note_on_c, 11, 70, 127
1, 116726, Note_off_c, 11, 70, 127
1, 116729, Note_on_c, 0, 72, 127
1, 116802, Note_off_c, 0, 72, 127
1, 116805, Note_on_c, 2, 74, 127
1, 116878, Note_off_c, 2, 74, 127
1, 116881, Note_on_c, 3, 75, 127
1, 116954, Note_off_c, 3, 75, 127
1, 116956, Note_off_c, 2, 62, 127
1, 116958, Note_on_c, 11, 58, 127
1, 116958, Note_on_c, 5, 77, 127
1, 117106, Note_off_c, 5, 77, 127
1, 117109, Note_on_c, 2, 74, 127
1, 117257, Note_off_c, 2, 74, 127
1, 117259, Note_off_c, 11, 58, 127
1, 117261, Note_on_c, 2, 62, 127
1, 117261, Note_on_c, 11, 70, 127
1, 117409, Note_off_c, 11, 70, 127
1, 117412, Note_on_c, 2, 74, 127
1, 117560, Note_off_c, 2, 74, 127
1, 117562, Note_off_c, 2, 62, 127
1, 117564, Note_on_c, 11, 58, 127
1, 117564, Note_on_c, 5, 77, 127
1, 117712, Note_off_c, 5, 77, 127
1, 117715, Note_on_c, 2, 74, 127
1, 117863, Note_off_c, 2, 74, 127
1, 117865, Note_off_c, 11, 58, 127
1, 117867, Note_on_c, 5, 65, 127
1, 117867, Note_on_c, 10, 69, 127
1, 118015, Note_off_c, 10, 69, 127
1, 118018, Note_on_c, 0, 72, 127
1, 118166, Note_off_c, 0, 72, 127
1, 118168, Note_off_c, 5, 65, 127
1, 118170, Note_on_c, 10, 57, 127
1, 118170, Note_on_c, 5, 77, 127
1, 118318, Note_off_c, 5, 77, 127
1, 118321, Note_on_c, 0, 72, 127
1, 118469, Note_off_c, 0, 72, 127
1, 118471, Note_off_c, 10, 57, 127
1, 118473, Note_on_c, 5, 53, 127
1, 118473, Note_on_c, 10, 69, 127
1, 118621, Note_off_c, 10, 69, 127
1, 118624, Note_on_c, 0, 72, 127
1, 118772, Note_off_c, 0, 72, 127
1, 118774, Note_off_c, 5, 53, 127
1, 118776, Note_on_c, 10, 57, 127
1, 118776, Note_on_c, 5, 77, 127
1, 118924, Note_off_c, 5, 77, 127
1, 118927, Note_on_c, 0, 72, 127
1, 119075, Note_off_c, 0, 72, 127
1, 119077, Note_off_c, 10, 57, 127
1, 119079, Note_on_c, 7, 55, 127
1, 119079, Note_on_c, 7, 67, 127
1, 119152, Note_off_c, 7, 67, 127
1, 119155, Note_on_c, 11, 70, 127
1, 119228, Note_off_c, 11, 70, 127
1, 119231, Note_on_c, 0, 72, 127
1, 119304, Note_off_c, 0, 72, 127
1, 119307, Note_on_c, 2, 74, 127
1, 119380, Note_off_c, 2, 74, 127
1, 119382, Note_off_c, 7, 55, 127
1, 119384, Note_on_c, 11, 58, 127
1, 119384, Note_on_c, 3, 75, 127
1, 119532, Note_off_c, 3, 75, 127
1, 119535, Note_on_c, 11, 70, 127
1, 119683, Note_off_c, 11, 70, 127
1, 119685, Note_off_c, 11, 58, 127
1, 119687, Note_on_c, 0, 48, 127
1, 119687, Note_on_c, 7, 67, 127
1, 119835, Note_off_c, 7, 67, 127
1, 119838, Note_on_c, 11, 70, 127
1, 119986, Note_off_c, 11, 70, 127
1, 119988, Note_off_c, 0, 48, 127
1, 119990, Note_on_c, 11, 58, 127
1, 119990, Note_on_c, 3, 75, 127
1, 120138, Note_off_c, 3, 75, 127
1, 120141, Note_on_c, 11, 70, 127
1, 120289, Note_off_c, 11, 70, 127
1, 120291, Note_off_c, 11, 58, 127
1, 120293, Note_on_c, 5, 53, 127
1, 120293, Note_on_c, 5, 65, 127
1, 120366, Note_off_c, 5, 65, 127
1, 120369, Note_on_c, 10, 69, 127
1, 120442, Note_off_c, 10, 69, 127
1, 120445, Note_on_c, 11, 70, 127
1, 120518, Note_off_c, 11, 70, 127
1, 120521, Note_on_c, 0, 72, 127
1, 120594, Note_off_c, 0, 72, 127
1, 120596, Note_off_c, 5, 53, 127
1, 120598, Note_on_c, 10, 57, 127
1, 120598, Note_on_c, 2, 74, 127
1, 120746, Note_off_c, 2, 74, 127
1, 120749, Note_on_c, 10, 69, 127
1, 120897, Note_off_c, 10, 69, 127
1, 120899, Note_off_c, 10, 57, 127
1, 120901, Note_on_c, 11, 46, 127
1, 120901, Note_on_c, 5, 65, 127
1, 121049, Note_off_c, 5, 65, 127
1, 121052, Note_on_c, 10, 69, 127
1, 121200, Note_off_c, 10, 69, 127
1, 121202, Note_off_c, 11, 46, 127
1, 121204, Note_on_c, 10, 57, 127
1, 121204, Note_on_c, 2, 74, 127
1, 121352, Note_off_c, 2, 74, 127
1, 121355, Note_on_c, 10, 69, 127
1, 121503, Note_off_c, 10, 69, 127
1, 121505, Note_off_c, 10, 57, 127
1, 121507, Note_on_c, 3, 51, 127
1, 121507, Note_on_c, 3, 63, 127
1, 121580, Note_off_c, 3, 63, 127
1, 121583, Note_on_c, 7, 67, 127
1, 121656, Note_off_c, 7, 67, 127
1, 121659, Note_on_c, 10, 69, 127
1, 121732, Note_off_c, 10, 69, 127
1, 121735, Note_on_c, 11, 70, 127
1, 121808, Note_off_c, 11, 70, 127
1, 121810, Note_off_c, 3, 51, 127
1, 121812, Note_on_c, 7, 55, 127
1, 121812, Note_on_c, 0, 72, 127
1, 121960, Note_off_c, 0, 72, 127
1, 121963, Note_on_c, 7, 67, 127
1, 122111, Note_off_c, 7, 67, 127
1, 122113, Note_off_c, 7, 55, 127
1, 122115, Note_on_c, 10, 45, 127
1, 122115, Note_on_c, 3, 63, 127
1, 122263, Note_off_c, 3, 63, 127
1, 122266, Note_on_c, 7, 67, 127
1, 122414, Note_off_c, 7, 67, 127
1, 122416, Note_off_c, 10, 45, 127
1, 122418, Note_on_c, 7, 55, 127
1, 122418, Note_on_c, 0, 72, 127
1, 122566, Note_off_c, 0, 72, 127
1, 122569, Note_on_c, 3, 63, 127
1, 122717, Note_off_c, 3, 63, 127
1, 122719, Note_off_c, 7, 55, 127
1, 122721, Note_on_c, 2, 50, 127
1, 122721, Note_on_c, 2, 62, 127
1, 122794, Note_off_c, 2, 62, 127
1, 122797, Note_on_c, 5, 65, 127
1, 122870, Note_off_c, 5, 65, 127
1, 122873, Note_on_c, 7, 67, 127
1, 122946, Note_off_c, 7, 67, 127
1, 122949, Note_on_c, 10, 69, 127
1, 123022, Note_off_c, 10, 69, 127
1, 123024, Note_off_c, 2, 50, 127
1, 123026, Note_on_c, 5, 53, 127
1, 123026, Note_on_c, 11, 70, 127
1, 123174, Note_off_c, 11, 70, 127
1, 123177, Note_on_c, 5, 65, 127
1, 123325, Note_off_c, 5, 65, 127
1, 123327, Note_off_c, 5, 53, 127
1, 123329, Note_on_c, 7, 43, 127
1, 123329, Note_on_c, 2, 62, 127
1, 123477, Note_off_c, 2, 62, 127
1, 123480, Note_on_c, 5, 65, 127
1, 123628, Note_off_c, 5, 65, 127
1, 123630, Note_off_c, 7, 43, 127
1, 123632, Note_on_c, 5, 53, 127
1, 123632, Note_on_c, 11, 70, 127
1, 123780, Note_off_c, 11, 70, 127
1, 123783, Note_on_c, 2, 62, 127
1, 123931, Note_off_c, 2, 62, 127
1, 123933, Note_off_c, 5, 53, 127
1, 123935, Note_on_c, 0, 48, 127
1, 123935, Note_on_c, 0, 60, 127
1, 124083, Note_off_c, 0, 60, 127
1, 124086, Note_on_c, 3, 63, 127
1, 124159, Note_off_c, 3, 63, 127
1, 124162, Note_on_c, 7, 67, 127
1, 124235, Note_off_c, 7, 67, 127
1, 124237, Note_off_c, 0, 48, 127
1, 124239, Note_on_c, 7, 55, 127
1, 124239, Note_on_c, 11, 70, 127
1, 124387, Note_off_c, 11, 70, 127
1, 124390, Note_on_c, 7, 67, 127
1, 124463, Note_off_c, 7, 67, 127
1, 124466, Note_on_c, 3, 63, 127
1, 124539, Note_off_c, 3, 63, 127
1, 124541, Note_off_c, 7, 55, 127
1, 124543, Note_on_c, 3, 51, 127
1, 124543, Note_on_c, 0, 60, 127
1, 124691, Note_off_c, 0, 60, 127
1, 124694, Note_on_c, 3, 63, 127
1, 124767, Note_off_c, 3, 63, 127
1, 124770, Note_on_c, 7, 67, 127
1, 124843, Note_off_c, 7, 67, 127
1, 124845, Note_off_c, 3, 51, 127
1, 124847, Note_on_c, 0, 48, 127
1, 124847, Note_on_c, 11, 70, 127
1, 124995, Note_off_c, 11, 70, 127
1, 124998, Note_on_c, 7, 67, 127
1, 125071, Note_off_c, 7, 67, 127
1, 125074, Note_on_c, 3, 63, 127
1, 125147, Note_off_c, 3, 63, 127
1, 125149, Note_off_c, 0, 48, 127
1, 125151, Note_on_c, 5, 53, 127
1, 125151, Note_on_c, 0, 60, 127
1, 125299, Note_off_c, 0, 60, 127
1, 125302, Note_on_c, 3, 63, 127
1, 125375, Note_off_c, 3, 63, 127
1, 125378, Note_on_c, 5, 65, 127
1, 125451, Note_off_c, 5, 65, 127
1, 125453, Note_off_c, 5, 53, 127
1, 125455, Note_on_c, 0, 48, 127
1, 125455, Note_on_c, 10, 69, 127
1, 125603, Note_off_c, 10, 69, 127
1, 125606, Note_on_c, 5, 65, 127
1, 125679, Note_off_c, 5, 65, 127
1, 125682, Note_on_c, 3, 63, 127
1, 125755, Note_off_c, 3, 63, 127
1, 125757, Note_off_c, 0, 48, 127
1, 125759, Note_on_c, 10, 45, 127
1, 125759, Note_on_c, 0, 60, 127
1, 125907, Note_off_c, 0, 60, 127
1, 125910, Note_on_c, 3, 63, 127
1, 125983, Note_off_c, 3, 63, 127
1, 125986, Note_on_c, 5, 65, 127
1, 126059, Note_off_c, 5, 65, 127
1, 126061, Note_off_c, 10, 45, 127
1, 126063, Note_on_c, 5, 41, 127
1, 126063, Note_on_c, 10, 69, 127
1, 126211, Note_off_c, 10, 69, 127
1, 126214, Note_on_c, 5, 65, 127
1, 126323, Note_off_c, 5, 65, 127
1, 126364, Note_off_c, 5, 41, 127
1, 126366, Note_on_c, 11, 46, 127
1, 126366, Note_on_c, 11, 70, 127
1, 126366, Note_on_c, 5, 77, 127
1, 126366, Note_on_c, 2, 74, 127
1, 126966, Note_off_c, 2, 74, 127
1, 126966, Note_off_c, 5, 77, 127
1, 126966, Note_off_c, 11, 70, 127
1, 126972, Note_on_c, 2, 74, 127
1, 127124, Note_off_c, 11, 46, 127
1, 127276, Note_on_c, 5, 65, 127
1, 127421, Note_off_c, 2, 74, 127
1, 127426, Note_off_c, 5, 65, 127
1, 127428, Note_on_c, 3, 63, 127
1, 127428, Note_on_c, 0, 72, 127
1, 127576, Note_off_c, 0, 72, 127
1, 127578, Note_off_c, 3, 63, 127
1, 127580, Note_on_c, 2, 62, 127
1, 127580, Note_on_c, 11, 70, 127
1, 127730, Note_off_c, 2, 62, 127
1, 127732, Note_on_c, 3, 63, 127
1, 127882, Note_off_c, 3, 63, 127
1, 127884, Note_on_c, 2, 62, 127
1, 127884, Note_on_c, 5, 65, 127
1, 128032, Note_off_c, 5, 65, 127
1, 128034, Note_off_c, 2, 62, 127
1, 128036, Note_on_c, 0, 60, 127
1, 128036, Note_on_c, 3, 63, 127
1, 128177, Note_off_c, 11, 70, 127
1, 128185, Note_off_c, 3, 63, 127
1, 128187, Note_off_c, 0, 60, 127
1, 128189, Note_on_c, 11, 58, 127
1, 128189, Note_on_c, 2, 62, 127
1, 128339, Note_off_c, 11, 58, 127
1, 128341, Note_on_c, 0, 60, 127
1, 128486, Note_off_c, 2, 62, 127
1, 128491, Note_off_c, 0, 60, 127
1, 128493, Note_on_c, 11, 58, 127
1, 128493, Note_on_c, 11, 70, 127
1, 128493, Note_on_c, 5, 77, 127
1, 128493, Note_on_c, 2, 74, 127
1, 128643, Note_off_c, 11, 58, 127
1, 128645, Note_on_c, 10, 57, 127
1, 128790, Note_off_c, 2, 74, 127
1, 128790, Note_off_c, 5, 77, 127
1, 128790, Note_off_c, 11, 70, 127
1, 128795, Note_off_c, 10, 57, 127
1, 128797, Note_on_c, 7, 55, 127
1, 128797, Note_on_c, 11, 70, 127
1, 128797, Note_on_c, 11, 82, 127
1, 128797, Note_on_c, 2, 74, 127
1, 128947, Note_off_c, 7, 55, 127
1, 128949, Note_on_c, 7, 55, 127
1, 129094, Note_off_c, 2, 74, 127
1, 129094, Note_off_c, 11, 82, 127
1, 129094, Note_off_c, 11, 70, 127
1, 129099, Note_off_c, 7, 55, 127
1, 129101, Note_on_c, 5, 53, 127
1, 129101, Note_on_c, 0, 72, 127
1, 129101, Note_on_c, 7, 79, 127
1, 129101, Note_on_c, 11, 82, 127
1, 129251, Note_off_c, 5, 53, 127
1, 129253, Note_on_c, 3, 51, 127
1, 129398, Note_off_c, 11, 82, 127
1, 129398, Note_off_c, 7, 79, 127
1, 129398, Note_off_c, 0, 72, 127
1, 129403, Note_off_c, 3, 51, 127
1, 129405, Note_on_c, 5, 53, 127
1, 129405, Note_on_c, 0, 72, 127
1, 129405, Note_on_c, 10, 81, 127
1, 129702, Note_off_c, 10, 81, 127
1, 129707, Note_off_c, 5, 53, 127
1, 129709, Note_on_c, 5, 41, 127
1, 129709, Note_on_c, 7, 79, 127
1, 129857, Note_off_c, 7, 79, 127
1, 129860, Note_on_c, 10, 81, 127
1, 130001, Note_off_c, 0, 72, 127
1, 130009, Note_off_c, 10, 81, 127
1, 130011, Note_off_c, 5, 41, 127
1, 130013, Note_on_c, 11, 46, 127
1, 130013, Note_on_c, 2, 74, 127
1, 130013, Note_on_c, 11, 70, 127
1, 130013, Note_on_c, 11, 82, 127
1, 130310, Note_off_c, 11, 82, 127
1, 130310, Note_off_c, 2, 74, 127
1, 130315, Note_off_c, 11, 46, 127
1, 130317, Note_on_c, 2, 50, 127
1, 130317, Note_on_c, 5, 77, 127
1, 130609, Note_off_c, 11, 70, 127
1, 130614, Note_off_c, 5, 77, 127
1, 130619, Note_off_c, 2, 50, 127
1, 130621, Note_on_c, 5, 53, 127
1, 130621, Note_on_c, 2, 74, 127
1, 130769, Note_off_c, 2, 74, 127
1, 130772, Note_on_c, 11, 70, 127
1, 130920, Note_off_c, 11, 70, 127
1, 130922, Note_off_c, 5, 53, 127
1, 130924, Note_on_c, 11, 58, 127
1, 130924, Note_on_c, 2, 74, 127
1, 131072, Note_off_c, 2, 74, 127
1, 131075, Note_on_c, 5, 77, 127
1, 131223, Note_off_c, 5, 77, 127
1, 131225, Note_off_c, 11, 58, 127
1, 131227, Note_on_c, 3, 51, 127
1, 131227, Note_on_c, 7, 79, 127
1, 131375, Note_off_c, 7, 79, 127
1, 131378, Note_on_c, 5, 77, 127
1, 131526, Note_off_c, 5, 77, 127
1, 131528, Note_off_c, 3, 51, 127
1, 131530, Note_on_c, 7, 55, 127
1, 131530, Note_on_c, 3, 75, 127
1, 131678, Note_off_c, 3, 75, 127
1, 131681, Note_on_c, 2, 74, 127
1, 131829, Note_off_c, 2, 74, 127
1, 131831, Note_off_c, 7, 55, 127
1, 131833, Note_on_c, 10, 45, 127
1, 131833, Note_on_c, 0, 72, 127
1, 131981, Note_off_c, 0, 72, 127
1, 131984, Note_on_c, 3, 75, 127
1, 132132, Note_off_c, 3, 75, 127
1, 132134, Note_off_c, 10, 45, 127
1, 132136, Note_on_c, 7, 55, 127
1, 132136, Note_on_c, 2, 74, 127
1, 132284, Note_off_c, 2, 74, 127
1, 132287, Note_on_c, 3, 75, 127
1, 132435, Note_off_c, 3, 75, 127
1, 132437, Note_off_c, 7, 55, 127
1, 132439, Note_on_c, 2, 50, 127
1, 132439, Note_on_c, 5, 77, 127
1, 132587, Note_off_c, 5, 77, 127
1, 132590, Note_on_c, 3, 75, 127
1, 132738, Note_off_c, 3, 75, 127
1, 132740, Note_off_c, 2, 50, 127
1, 132742, Note_on_c, 5, 53, 127
1, 132742, Note_on_c, 2, 74, 127
1, 132890, Note_off_c, 2, 74, 127
1, 132893, Note_on_c, 0, 72, 127
1, 133041, Note_off_c, 0, 72, 127
1, 133043, Note_off_c, 5, 53, 127
1, 133045, Note_on_c, 7, 43, 127
1, 133045, Note_on_c, 11, 70, 127
1, 133193, Note_off_c, 11, 70, 127
1, 133196, Note_on_c, 2, 74, 127
1, 133344, Note_off_c, 2, 74, 127
1, 133346, Note_off_c, 7, 43, 127
1, 133348, Note_on_c, 5, 53, 127
1, 133348, Note_on_c, 0, 72, 127
1, 133496, Note_off_c, 0, 72, 127
1, 133499, Note_on_c, 2, 74, 127
1, 133647, Note_off_c, 2, 74, 127
1, 133649, Note_off_c, 5, 53, 127
1, 133651, Note_on_c, 0, 48, 127
1, 133651, Note_on_c, 3, 75, 127
1, 133799, Note_off_c, 3, 75, 127
1, 133802, Note_on_c, 2, 74, 127
1, 133950, Note_off_c, 2, 74, 127
1, 133952, Note_off_c, 0, 48, 127
1, 133954, Note_on_c, 3, 51, 127
1, 133954, Note_on_c, 0, 72, 127
1, 134102, Note_off_c, 0, 72, 127
1, 134105, Note_on_c, 11, 70, 127
1, 134253, Note_off_c, 11, 70, 127
1, 134255, Note_off_c, 3, 51, 127
1, 134257, Note_on_c, 5, 41, 127
1, 134257, Note_on_c, 10, 69, 127
1, 134405, Note_off_c, 10, 69, 127
1, 134408, Note_on_c, 0, 72, 127
1, 134556, Note_off_c, 0, 72, 127
1, 134558, Note_off_c, 5, 41, 127
1, 134560, Note_on_c, 3, 51, 127
1, 134560, Note_on_c, 11, 70, 127
1, 134708, Note_off_c, 11, 70, 127
1, 134711, Note_on_c, 0, 72, 127
1, 134859, Note_off_c, 0, 72, 127
1, 134861, Note_off_c, 3, 51, 127
1, 134863, Note_on_c, 11, 46, 127
1, 134863, Note_on_c, 2, 74, 127
1, 135011, Note_off_c, 2, 74, 127
1, 135013, Note_off_c, 11, 46, 127
1, 135015, Note_on_c, 0, 48, 127
1, 135015, Note_on_c, 3, 75, 127
1, 135163, Note_off_c, 3, 75, 127
1, 135165, Note_off_c, 0, 48, 127
1, 135167, Note_on_c, 2, 50, 127
1, 135167, Note_on_c, 5, 77, 127
1, 135315, Note_off_c, 5, 77, 127
1, 135317, Note_off_c, 2, 50, 127
1, 135319, Note_on_c, 3, 51, 127
1, 135319, Note_on_c, 7, 79, 127
1, 135467, Note_off_c, 7, 79, 127
1, 135469, Note_off_c, 3, 51, 127
1, 135471, Note_on_c, 5, 53, 127
1, 135471, Note_on_c, 10, 69, 127
1, 135471, Note_on_c, 2, 74, 127
1, 135533, Note_off_c, 2, 74, 127
1, 135535, Note_on_c, 0, 72, 127
1, 135597, Note_off_c, 0, 72, 127
1, 135599, Note_on_c, 2, 74, 127
1, 135661, Note_off_c, 2, 74, 127
1, 135663, Note_on_c, 0, 72, 127
1, 135725, Note_off_c, 0, 72, 127
1, 135727, Note_on_c, 2, 74, 127
1, 135776, Note_off_c, 5, 53, 127
1, 135778, Note_on_c, 5, 41, 127
1, 135789, Note_off_c, 2, 74, 127
1, 135791, Note_on_c, 0, 72, 127
1, 135913, Note_off_c, 10, 69, 127
1, 135924, Note_off_c, 0, 72, 127
1, 135930, Note_on_c, 11, 70, 127
1, 136078, Note_off_c, 11, 70, 127
1, 136080, Note_off_c, 5, 41, 127
1, 136082, Note_on_c, 11, 46, 127
1, 136082, Note_on_c, 11, 70, 127
1, 136230, Note_off_c, 11, 70, 127
1, 136233, Note_on_c, 5, 65, 127
1, 136381, Note_off_c, 5, 65, 127
1, 136384, Note_on_c, 7, 67, 127
1, 136532, Note_off_c, 7, 67, 127
1, 136535, Note_on_c, 10, 69, 127
1, 136617, Note_off_c, 11, 46, 127
1, 136683, Note_off_c, 10, 69, 127
1, 136686, Note_on_c, 11, 70, 127
1, 136834, Note_off_c, 11, 70, 127
1, 136837, Note_on_c, 5, 41, 127
1, 136837, Note_on_c, 10, 69, 127
1, 136985, Note_off_c, 10, 69, 127
1, 136987, Note_off_c, 5, 41, 127
1, 136989, Note_on_c, 7, 43, 127
1, 136989, Note_on_c, 11, 70, 127
1, 137137, Note_off_c, 11, 70, 127
1, 137139, Note_off_c, 7, 43, 127
1, 137141, Note_on_c, 10, 45, 127
1, 137141, Note_on_c, 0, 72, 127
1, 137289, Note_off_c, 0, 72, 127
1, 137291, Note_off_c, 10, 45, 127
1, 137293, Note_on_c, 11, 46, 127
1, 137293, Note_on_c, 2, 74, 127
1, 137441, Note_off_c, 2, 74, 127
1, 137443, Note_off_c, 11, 46, 127
1, 137445, Note_on_c, 10, 45, 127
1, 137445, Note_on_c, 0, 72, 127
1, 137593, Note_off_c, 0, 72, 127
1, 137595, Note_off_c, 10, 45, 127
1, 137597, Note_on_c, 11, 46, 127
1, 137597, Note_on_c, 2, 74, 127
1, 137745, Note_off_c, 2, 74, 127
1, 137747, Note_off_c, 11, 46, 127
1, 137749, Note_on_c, 0, 48, 127
1, 137749, Note_on_c, 3, 75, 127
1, 137897, Note_off_c, 3, 75, 127
1, 137899, Note_off_c, 0, 48, 127
1, 137901, Note_on_c, 2, 50, 127
1, 137901, Note_on_c, 5, 77, 127
1, 138049, Note_off_c, 5, 77, 127
1, 138051, Note_off_c, 2, 50, 127
1, 138053, Note_on_c, 0, 48, 127
1, 138053, Note_on_c, 11, 82, 127
1, 138201, Note_off_c, 11, 82, 127
1, 138203, Note_off_c, 0, 48, 127
1, 138205, Note_on_c, 2, 50, 127
1, 138205, Note_on_c, 10, 81, 127
1, 138353, Note_off_c, 10, 81, 127
1, 138355, Note_off_c, 2, 50, 127
1, 138357, Note_on_c, 3, 51, 127
1, 138357, Note_on_c, 7, 79, 127
1, 138505, Note_off_c, 7, 79, 127
1, 138507, Note_off_c, 3, 51, 127
1, 138509, Note_on_c, 5, 53, 127
1, 138509, Note_on_c, 5, 77, 127
1, 138657, Note_off_c, 5, 77, 127
1, 138659, Note_off_c, 5, 53, 127
1, 138661, Note_on_c, 11, 58, 127
1, 138661, Note_on_c, 7, 79, 127
1, 138809, Note_off_c, 7, 79, 127
1, 138811, Note_off_c, 11, 58, 127
1, 138813, Note_on_c, 10, 57, 127
1, 138813, Note_on_c, 5, 77, 127
1, 138961, Note_off_c, 5, 77, 127
1, 138963, Note_off_c, 10, 57, 127
1, 138965, Note_on_c, 7, 55, 127
1, 138965, Note_on_c, 3, 75, 127
1, 139113, Note_off_c, 3, 75, 127
1, 139115, Note_off_c, 7, 55, 127
1, 139117, Note_on_c, 5, 53, 127
1, 139117, Note_on_c, 2, 74, 127
1, 139265, Note_off_c, 2, 74, 127
1, 139267, Note_off_c, 5, 53, 127
1, 139269, Note_on_c, 7, 55, 127
1, 139269, Note_on_c, 3, 75, 127
1, 139417, Note_off_c, 3, 75, 127
1, 139419, Note_off_c, 7, 55, 127
1, 139421, Note_on_c, 5, 53, 127
1, 139421, Note_on_c, 2, 74, 127
1, 139569, Note_off_c, 2, 74, 127
1, 139571, Note_off_c, 5, 53, 127
1, 139573, Note_on_c, 3, 51, 127
1, 139573, Note_on_c, 0, 72, 127
1, 139721, Note_off_c, 0, 72, 127
1, 139723, Note_off_c, 3, 51, 127
1, 139725, Note_on_c, 2, 50, 127
1, 139725, Note_on_c, 11, 70, 127
1, 139873, Note_off_c, 11, 70, 127
1, 139875, Note_off_c, 2, 50, 127
1, 139877, Note_on_c, 3, 51, 127
1, 139877, Note_on_c, 10, 69, 127
1, 140025, Note_off_c, 10, 69, 127
1, 140027, Note_off_c, 3, 51, 127
1, 140029, Note_on_c, 2, 50, 127
1, 140029, Note_on_c, 11, 70, 127
1, 140177, Note_off_c, 11, 70, 127
1, 140179, Note_off_c, 2, 50, 127
1, 140181, Note_on_c, 0, 48, 127
1, 140181, Note_on_c, 0, 72, 127
1, 140329, Note_off_c, 0, 72, 127
1, 140331, Note_off_c, 0, 48, 127
1, 140333, Note_on_c, 11, 46, 127
1, 140333, Note_on_c, 2, 74, 127
1, 140481, Note_off_c, 2, 74, 127
1, 140483, Note_off_c, 11, 46, 127
1, 140485, Note_on_c, 0, 48, 127
1, 140485, Note_on_c, 0, 72, 127
1, 140633, Note_off_c, 0, 72, 127
1, 140635, Note_off_c, 0, 48, 127
1, 140637, Note_on_c, 2, 50, 127
1, 140637, Note_on_c, 11, 70, 127
1, 140785, Note_off_c, 11, 70, 127
1, 140787, Note_off_c, 2, 50, 127
1, 140789, Note_on_c, 11, 46, 127
1, 140789, Note_on_c, 10, 69, 127
1, 140937, Note_off_c, 10, 69, 127
1, 140939, Note_off_c, 11, 46, 127
1, 140941, Note_on_c, 3, 51, 127
1, 140941, Note_on_c, 7, 67, 127
1, 141091, Note_off_c, 3, 51, 127
1, 141093, Note_on_c, 5, 53, 127
1, 141243, Note_off_c, 5, 53, 127
1, 141245, Note_on_c, 3, 51, 127
1, 141379, Note_off_c, 7, 67, 127
1, 141395, Note_off_c, 3, 51, 127
1, 141397, Note_on_c, 2, 50, 127
1, 141547, Note_off_c, 2, 50, 127
1, 141549, Note_on_c, 0, 48, 127
1, 141549, Note_on_c, 7, 79, 127
1, 141697, Note_off_c, 7, 79, 127
1, 141700, Note_on_c, 10, 81, 127
1, 141848, Note_off_c, 10, 81, 127
1, 141851, Note_on_c, 7, 79, 127
1, 141999, Note_off_c, 7, 79, 127
1, 142002, Note_on_c, 5, 77, 127
1, 142084, Note_off_c, 0, 48, 127
1, 142150, Note_off_c, 5, 77, 127
1, 142153, Note_on_c, 0, 60, 127
1, 142153, Note_on_c, 3, 75, 127
1, 142301, Note_off_c, 3, 75, 127
1, 142303, Note_off_c, 0, 60, 127
1, 142305, Note_on_c, 2, 62, 127
1, 142305, Note_on_c, 5, 77, 127
1, 142453, Note_off_c, 5, 77, 127
1, 142455, Note_off_c, 2, 62, 127
1, 142457, Note_on_c, 0, 60, 127
1, 142457, Note_on_c, 3, 75, 127
1, 142605, Note_off_c, 3, 75, 127
1, 142607, Note_off_c, 0, 60, 127
1, 142609, Note_on_c, 11, 58, 127
1, 142609, Note_on_c, 2, 74, 127
1, 142757, Note_off_c, 2, 74, 127
1, 142759, Note_off_c, 11, 58, 127
1, 142761, Note_on_c, 10, 57, 127
1, 142761, Note_on_c, 0, 72, 127
1, 142909, Note_off_c, 0, 72, 127
1, 142911, Note_off_c, 10, 57, 127
1, 142913, Note_on_c, 11, 58, 127
1, 142913, Note_on_c, 2, 74, 127
1, 143061, Note_off_c, 2, 74, 127
1, 143063, Note_off_c, 11, 58, 127
1, 143065, Note_on_c, 10, 57, 127
1, 143065, Note_on_c, 0, 72, 127
1, 143213, Note_off_c, 0, 72, 127
1, 143215, Note_off_c, 10, 57, 127
1, 143217, Note_on_c, 7, 55, 127
1, 143217, Note_on_c, 11, 70, 127
1, 143365, Note_off_c, 11, 70, 127
1, 143367, Note_off_c, 7, 55, 127
1, 143369, Note_on_c, 5, 53, 127
1, 143369, Note_on_c, 10, 69, 127
1, 143519, Note_off_c, 5, 53, 127
1, 143521, Note_on_c, 7, 55, 127
1, 143671, Note_off_c, 7, 55, 127
1, 143673, Note_on_c, 5, 53, 127
1, 143807, Note_off_c, 10, 69, 127
1, 143823, Note_off_c, 5, 53, 127
1, 143825, Note_on_c, 3, 51, 127
1, 143975, Note_off_c, 3, 51, 127
1, 143977, Note_on_c, 2, 50, 127
1, 143977, Note_on_c, 10, 81, 127
1, 144125, Note_off_c, 10, 81, 127
1, 144128, Note_on_c, 11, 82, 127
1, 144276, Note_off_c, 11, 82, 127
1, 144279, Note_on_c, 10, 81, 127
1, 144427, Note_off_c, 10, 81, 127
1, 144430, Note_on_c, 7, 79, 127
1, 144512, Note_off_c, 2, 50, 127
1, 144578, Note_off_c, 7, 79, 127
1, 144581, Note_on_c, 2, 62, 127
1, 144581, Note_on_c, 5, 77, 127
1, 144729, Note_off_c, 5, 77, 127
1, 144731, Note_off_c, 2, 62, 127
1, 144733, Note_on_c, 3, 63, 127
1, 144733, Note_on_c, 7, 79, 127
1, 144881, Note_off_c, 7, 79, 127
1, 144883, Note_off_c, 3, 63, 127
1, 144885, Note_on_c, 2, 62, 127
1, 144885, Note_on_c, 5, 77, 127
1, 145033, Note_off_c, 5, 77, 127
1, 145035, Note_off_c, 2, 62, 127
1, 145037, Note_on_c, 0, 60, 127
1, 145037, Note_on_c, 3, 75, 127
1, 145185, Note_off_c, 3, 75, 127
1, 145187, Note_off_c, 0, 60, 127
1, 145189, Note_on_c, 11, 58, 127
1, 145189, Note_on_c, 2, 74, 127
1, 145337, Note_off_c, 2, 74, 127
1, 145339, Note_off_c, 11, 58, 127
1, 145341, Note_on_c, 0, 60, 127
1, 145341, Note_on_c, 3, 75, 127
1, 145489, Note_off_c, 3, 75, 127
1, 145491, Note_off_c, 0, 60, 127
1, 145493, Note_on_c, 11, 58, 127
1, 145493, Note_on_c, 2, 74, 127
1, 145641, Note_off_c, 2, 74, 127
1, 145643, Note_off_c, 11, 58, 127
1, 145645, Note_on_c, 10, 57, 127
1, 145645, Note_on_c, 0, 72, 127
1, 145793, Note_off_c, 0, 72, 127
1, 145795, Note_off_c, 10, 57, 127
1, 145797, Note_on_c, 7, 55, 127
1, 145797, Note_on_c, 11, 70, 127
1, 145947, Note_off_c, 7, 55, 127
1, 145949, Note_on_c, 10, 57, 127
1, 146099, Note_off_c, 10, 57, 127
1, 146101, Note_on_c, 7, 55, 127
1, 146235, Note_off_c, 11, 70, 127
1, 146251, Note_off_c, 7, 55, 127
1, 146253, Note_on_c, 5, 53, 127
1, 146403, Note_off_c, 5, 53, 127
1, 146405, Note_on_c, 3, 51, 127
1, 146405, Note_on_c, 11, 82, 127
1, 146553, Note_off_c, 11, 82, 127
1, 146556, Note_on_c, 0, 84, 127
1, 146704, Note_off_c, 0, 84, 127
1, 146707, Note_on_c, 11, 82, 127
1, 146855, Note_off_c, 11, 82, 127
1, 146858, Note_on_c, 10, 81, 127
1, 146940, Note_off_c, 3, 51, 127
1, 147006, Note_off_c, 10, 81, 127
1, 147009, Note_on_c, 3, 63, 127
1, 147009, Note_on_c, 7, 79, 127
1, 147157, Note_off_c, 7, 79, 127
1, 147159, Note_off_c, 3, 63, 127
1, 147161, Note_on_c, 5, 65, 127
1, 147161, Note_on_c, 10, 81, 127
1, 147309, Note_off_c, 10, 81, 127
1, 147311, Note_off_c, 5, 65, 127
1, 147313, Note_on_c, 3, 63, 127
1, 147313, Note_on_c, 7, 79, 127
1, 147461, Note_off_c, 7, 79, 127
1, 147463, Note_off_c, 3, 63, 127
1, 147465, Note_on_c, 2, 62, 127
1, 147465, Note_on_c, 5, 77, 127
1, 147613, Note_off_c, 5, 77, 127
1, 147615, Note_off_c, 2, 62, 127
1, 147617, Note_on_c, 0, 60, 127
1, 147617, Note_on_c, 3, 75, 127
1, 147765, Note_off_c, 3, 75, 127
1, 147767, Note_off_c, 0, 60, 127
1, 147769, Note_on_c, 2, 62, 127
1, 147769, Note_on_c, 5, 77, 127
1, 147917, Note_off_c, 5, 77, 127
1, 147919, Note_off_c, 2, 62, 127
1, 147921, Note_on_c, 0, 60, 127
1, 147921, Note_on_c, 3, 75, 127
1, 148069, Note_off_c, 3, 75, 127
1, 148071, Note_off_c, 0, 60, 127
1, 148073, Note_on_c, 11, 58, 127
1, 148073, Note_on_c, 2, 74, 127
1, 148221, Note_off_c, 2, 74, 127
1, 148223, Note_off_c, 11, 58, 127
1, 148225, Note_on_c, 10, 57, 127
1, 148225, Note_on_c, 0, 72, 127
1, 148375, Note_off_c, 10, 57, 127
1, 148377, Note_on_c, 11, 58, 127
1, 148527, Note_off_c, 11, 58, 127
1, 148529, Note_on_c, 10, 57, 127
1, 148663, Note_off_c, 0, 72, 127
1, 148679, Note_off_c, 10, 57, 127
1, 148681, Note_on_c, 7, 55, 127
1, 148831, Note_off_c, 7, 55, 127
1, 148833, Note_on_c, 5, 53, 127
1, 148833, Note_on_c, 10, 81, 127
1, 148981, Note_off_c, 10, 81, 127
1, 148984, Note_on_c, 11, 82, 127
1, 149132, Note_off_c, 11, 82, 127
1, 149135, Note_on_c, 0, 84, 127
1, 149283, Note_off_c, 0, 84, 127
1, 149286, Note_on_c, 11, 82, 127
1, 149368, Note_off_c, 5, 53, 127
1, 149434, Note_off_c, 11, 82, 127
1, 149437, Note_on_c, 5, 65, 127
1, 149437, Note_on_c, 10, 81, 127
1, 149585, Note_off_c, 10, 81, 127
1, 149587, Note_off_c, 5, 65, 127
1, 149589, Note_on_c, 7, 67, 127
1, 149589, Note_on_c, 11, 82, 127
1, 149737, Note_off_c, 11, 82, 127
1, 149739, Note_off_c, 7, 67, 127
1, 149741, Note_on_c, 5, 65, 127
1, 149741, Note_on_c, 10, 81, 127
1, 149889, Note_off_c, 10, 81, 127
1, 149891, Note_off_c, 5, 65, 127
1, 149893, Note_on_c, 3, 63, 127
1, 149893, Note_on_c, 7, 79, 127
1, 150041, Note_off_c, 7, 79, 127
1, 150043, Note_off_c, 3, 63, 127
1, 150045, Note_on_c, 2, 62, 127
1, 150045, Note_on_c, 5, 77, 127
1, 150193, Note_off_c, 5, 77, 127
1, 150195, Note_off_c, 2, 62, 127
1, 150197, Note_on_c, 3, 63, 127
1, 150197, Note_on_c, 7, 79, 127
1, 150345, Note_off_c, 7, 79, 127
1, 150347, Note_off_c, 3, 63, 127
1, 150349, Note_on_c, 2, 62, 127
1, 150349, Note_on_c, 5, 77, 127
1, 150497, Note_off_c, 5, 77, 127
1, 150499, Note_off_c, 2, 62, 127
1, 150501, Note_on_c, 0, 60, 127
1, 150501, Note_on_c, 3, 75, 127
1, 150649, Note_off_c, 3, 75, 127
1, 150651, Note_off_c, 0, 60, 127
1, 150653, Note_on_c, 11, 58, 127
1, 150653, Note_on_c, 2, 74, 127
1, 150950, Note_off_c, 2, 74, 127
1, 150955, Note_off_c, 11, 58, 127
1, 150957, Note_on_c, 2, 62, 127
1, 150957, Note_on_c, 11, 70, 127
1, 151105, Note_off_c, 11, 70, 127
1, 151108, Note_on_c, 0, 72, 127
1, 151256, Note_off_c, 0, 72, 127
1, 151258, Note_off_c, 2, 62, 127
1, 151260, Note_on_c, 5, 65, 127
1, 151260, Note_on_c, 2, 74, 127
1, 151557, Note_off_c, 2, 74, 127
1, 151562, Note_off_c, 5, 65, 127
1, 151564, Note_on_c, 11, 58, 127
1, 151564, Note_on_c, 2, 74, 127
1, 151861, Note_off_c, 2, 74, 127
1, 151866, Note_off_c, 11, 58, 127
1, 151868, Note_on_c, 10, 57, 127
1, 151868, Note_on_c, 0, 72, 127
1, 152165, Note_off_c, 0, 72, 127
1, 152170, Note_off_c, 10, 57, 127
1, 152172, Note_on_c, 0, 60, 127
1, 152172, Note_on_c, 10, 69, 127
1, 152320, Note_off_c, 10, 69, 127
1, 152323, Note_on_c, 11, 70, 127
1, 152471, Note_off_c, 11, 70, 127
1, 152473, Note_off_c, 0, 60, 127
1, 152475, Note_on_c, 6, 66, 127
1, 152475, Note_on_c, 0, 72, 127
1, 152772, Note_off_c, 0, 72, 127
1, 152777, Note_off_c, 6, 66, 127
1, 152779, Note_on_c, 10, 57, 127
1, 152779, Note_on_c, 0, 72, 127
1, 153076, Note_off_c, 0, 72, 127
1, 153081, Note_off_c, 10, 57, 127
1, 153083, Note_on_c, 7, 55, 127
1, 153083, Note_on_c, 11, 70, 127
1, 153233, Note_off_c, 7, 55, 127
1, 153235, Note_on_c, 10, 57, 127
1, 153380, Note_off_c, 11, 70, 127
1, 153385, Note_off_c, 10, 57, 127
1, 153387, Note_on_c, 11, 58, 127
1, 153387, Note_on_c, 11, 70, 127
1, 153537, Note_off_c, 11, 58, 127
1, 153539, Note_on_c, 10, 57, 127
1, 153684, Note_off_c, 11, 70, 127
1, 153689, Note_off_c, 10, 57, 127
1, 153691, Note_on_c, 7, 55, 127
1, 153691, Note_on_c, 11, 70, 127
1, 153841, Note_off_c, 7, 55, 127
1, 153843, Note_on_c, 10, 57, 127
1, 153988, Note_off_c, 11, 70, 127
1, 153993, Note_off_c, 10, 57, 127
1, 153995, Note_on_c, 7, 55, 127
1, 153995, Note_on_c, 10, 69, 127
1, 154143, Note_off_c, 10, 69, 127
1, 154145, Note_off_c, 7, 55, 127
1, 154147, Note_on_c, 5, 53, 127
1, 154147, Note_on_c, 11, 70, 127
1, 154295, Note_off_c, 11, 70, 127
1, 154297, Note_off_c, 5, 53, 127
1, 154299, Note_on_c, 3, 51, 127
1, 154299, Note_on_c, 0, 72, 127
1, 154449, Note_off_c, 3, 51, 127
1, 154451, Note_on_c, 7, 55, 127
1, 154596, Note_off_c, 0, 72, 127
1, 154601, Note_off_c, 7, 55, 127
1, 154603, Note_on_c, 5, 53, 127
1, 154603, Note_on_c, 0, 72, 127
1, 154753, Note_off_c, 5, 53, 127
1, 154755, Note_on_c, 3, 51, 127
1, 154900, Note_off_c, 0, 72, 127
1, 154905, Note_off_c, 3, 51, 127
1, 154907, Note_on_c, 5, 53, 127
1, 154907, Note_on_c, 0, 72, 127
1, 155057, Note_off_c, 5, 53, 127
1, 155059, Note_on_c, 3, 51, 127
1, 155204, Note_off_c, 0, 72, 127
1, 155209, Note_off_c, 3, 51, 127
1, 155211, Note_on_c, 2, 50, 127
1, 155211, Note_on_c, 11, 70, 127
1, 155359, Note_off_c, 11, 70, 127
1, 155361, Note_off_c, 2, 50, 127
1, 155363, Note_on_c, 0, 48, 127
1, 155363, Note_on_c, 0, 72, 127
1, 155511, Note_off_c, 0, 72, 127
1, 155513, Note_off_c, 0, 48, 127
1, 155515, Note_on_c, 11, 46, 127
1, 155515, Note_on_c, 2, 74, 127
1, 155665, Note_off_c, 11, 46, 127
1, 155667, Note_on_c, 0, 48, 127
1, 155812, Note_off_c, 2, 74, 127
1, 155817, Note_off_c, 0, 48, 127
1, 155819, Note_on_c, 11, 46, 127
1, 155819, Note_on_c, 2, 74, 127
1, 155969, Note_off_c, 11, 46, 127
1, 155971, Note_on_c, 10, 45, 127
1, 156116, Note_off_c, 2, 74, 127
1, 156121, Note_off_c, 10, 45, 127
1, 156123, Note_on_c, 7, 43, 127
1, 156123, Note_on_c, 2, 74, 127
1, 156273, Note_off_c, 7, 43, 127
1, 156275, Note_on_c, 11, 46, 127
1, 156420, Note_off_c, 2, 74, 127
1, 156425, Note_off_c, 11, 46, 127
1, 156427, Note_on_c, 10, 45, 127
1, 156427, Note_on_c, 0, 72, 127
1, 156575, Note_off_c, 0, 72, 127
1, 156577, Note_off_c, 10, 45, 127
1, 156579, Note_on_c, 7, 43, 127
1, 156579, Note_on_c, 2, 74, 127
1, 156727, Note_off_c, 2, 74, 127
1, 156729, Note_off_c, 7, 43, 127
1, 156731, Note_on_c, 0, 48, 127
1, 156731, Note_on_c, 3, 75, 127
1, 156881, Note_off_c, 0, 48, 127
1, 156883, Note_on_c, 2, 50, 127
1, 157028, Note_off_c, 3, 75, 127
1, 157033, Note_off_c, 2, 50, 127
1, 157035, Note_on_c, 0, 48, 127
1, 157035, Note_on_c, 3, 75, 127
1, 157185, Note_off_c, 0, 48, 127
1, 157187, Note_on_c, 11, 46, 127
1, 157315, Note_off_c, 3, 75, 127
1, 157337, Note_off_c, 11, 46, 127
1, 157339, Note_on_c, 10, 45, 127
1, 157339, Note_on_c, 4, 76, 127
1, 157489, Note_off_c, 10, 45, 127
1, 157491, Note_on_c, 0, 48, 127
1, 157636, Note_off_c, 4, 76, 127
1, 157641, Note_off_c, 0, 48, 127
1, 157643, Note_on_c, 11, 46, 127
1, 157643, Note_on_c, 2, 74, 127
1, 157791, Note_off_c, 2, 74, 127
1, 157793, Note_off_c, 11, 46, 127
1, 157795, Note_on_c, 10, 45, 127
1, 157795, Note_on_c, 4, 76, 127
1, 157943, Note_off_c, 4, 76, 127
1, 157945, Note_off_c, 10, 45, 127
1, 157947, Note_on_c, 2, 50, 127
1, 157947, Note_on_c, 5, 77, 127
1, 158097, Note_off_c, 2, 50, 127
1, 158099, Note_on_c, 3, 51, 127
1, 158244, Note_off_c, 5, 77, 127
1, 158249, Note_off_c, 3, 51, 127
1, 158251, Note_on_c, 2, 50, 127
1, 158251, Note_on_c, 5, 77, 127
1, 158401, Note_off_c, 2, 50, 127
1, 158403, Note_on_c, 0, 48, 127
1, 158531, Note_off_c, 5, 77, 127
1, 158553, Note_off_c, 0, 48, 127
1, 158555, Note_on_c, 11, 46, 127
1, 158555, Note_on_c, 6, 78, 127
1, 158705, Note_off_c, 11, 46, 127
1, 158707, Note_on_c, 2, 50, 127
1, 158852, Note_off_c, 6, 78, 127
1, 158857, Note_off_c, 2, 50, 127
1, 158859, Note_on_c, 0, 48, 127
1, 158859, Note_on_c, 4, 76, 127
1, 159007, Note_off_c, 4, 76, 127
1, 159009, Note_off_c, 0, 48, 127
1, 159011, Note_on_c, 11, 46, 127
1, 159011, Note_on_c, 6, 78, 127
1, 159159, Note_off_c, 6, 78, 127
1, 159161, Note_off_c, 11, 46, 127
1, 159163, Note_on_c, 3, 51, 127
1, 159163, Note_on_c, 7, 79, 127
1, 159313, Note_off_c, 3, 51, 127
1, 159315, Note_on_c, 2, 50, 127
1, 159460, Note_off_c, 7, 79, 127
1, 159465, Note_off_c, 2, 50, 127
1, 159467, Note_on_c, 3, 51, 127
1, 159467, Note_on_c, 10, 81, 127
1, 159617, Note_off_c, 3, 51, 127
1, 159619, Note_on_c, 0, 48, 127
1, 159764, Note_off_c, 10, 81, 127
1, 159769, Note_off_c, 0, 48, 127
1, 159771, Note_on_c, 2, 50, 127
1, 159771, Note_on_c, 2, 74, 127
1, 160035, Note_off_c, 2, 74, 127
1, 160073, Note_off_c, 2, 50, 127
1, 160075, Note_on_c, 2, 38, 127
1, 160075, Note_on_c, 6, 78, 127
1, 160339, Note_off_c, 6, 78, 127
1, 160377, Note_off_c, 2, 38, 127
1, 160379, Note_on_c, 7, 43, 127
1, 160379, Note_on_c, 2, 74, 127
1, 160379, Note_on_c, 11, 70, 127
1, 160379, Note_on_c, 7, 79, 127
1, 160379, Note_on_c, 7, 67, 127
1, 160979, Note_off_c, 7, 67, 127
1, 160979, Note_off_c, 7, 79, 127
1, 160979, Note_off_c, 11, 70, 127
1, 160979, Note_off_c, 2, 74, 127
1, 160985, Note_on_c, 11, 70, 127
1, 161137, Note_off_c, 7, 43, 127
1, 161289, Note_on_c, 2, 62, 127
1, 161434, Note_off_c, 11, 70, 127
1, 161439, Note_off_c, 2, 62, 127
1, 161441, Note_on_c, 0, 60, 127
1, 161441, Note_on_c, 10, 69, 127
1, 161589, Note_off_c, 10, 69, 127
1, 161591, Note_off_c, 0, 60, 127
1, 161593, Note_on_c, 11, 58, 127
1, 161593, Note_on_c, 7, 67, 127
1, 161743, Note_off_c, 11, 58, 127
1, 161745, Note_on_c, 0, 60, 127
1, 161895, Note_off_c, 0, 60, 127
1, 161897, Note_on_c, 11, 58, 127
1, 161897, Note_on_c, 2, 62, 127
1, 162045, Note_off_c, 2, 62, 127
1, 162047, Note_off_c, 11, 58, 127
1, 162049, Note_on_c, 10, 57, 127
1, 162049, Note_on_c, 0, 60, 127
1, 162190, Note_off_c, 7, 67, 127
1, 162198, Note_off_c, 0, 60, 127
1, 162200, Note_off_c, 10, 57, 127
1, 162202, Note_on_c, 7, 55, 127
1, 162202, Note_on_c, 11, 58, 127
1, 162352, Note_off_c, 7, 55, 127
1, 162354, Note_on_c, 10, 57, 127
1, 162499, Note_off_c, 11, 58, 127
1, 162504, Note_off_c, 10, 57, 127
1, 162506, Note_on_c, 7, 55, 127
1, 162506, Note_on_c, 7, 67, 127
1, 162506, Note_on_c, 2, 74, 127
1, 162506, Note_on_c, 11, 70, 127
1, 162656, Note_off_c, 7, 55, 127
1, 162658, Note_on_c, 5, 53, 127
1, 162803, Note_off_c, 11, 70, 127
1, 162803, Note_off_c, 2, 74, 127
1, 162803, Note_off_c, 7, 67, 127
1, 162808, Note_off_c, 5, 53, 127
1, 162810, Note_on_c, 3, 51, 127
1, 162810, Note_on_c, 7, 79, 127
1, 162810, Note_on_c, 11, 70, 127
1, 162810, Note_on_c, 7, 67, 127
1, 162960, Note_off_c, 3, 51, 127
1, 162962, Note_on_c, 3, 51, 127
1, 163107, Note_off_c, 7, 67, 127
1, 163107, Note_off_c, 11, 70, 127
1, 163107, Note_off_c, 7, 79, 127
1, 163112, Note_off_c, 3, 51, 127
1, 163114, Note_on_c, 2, 50, 127
1, 163114, Note_on_c, 10, 69, 127
1, 163114, Note_on_c, 3, 75, 127
1, 163114, Note_on_c, 7, 79, 127
1, 163264, Note_off_c, 2, 50, 127
1, 163266, Note_on_c, 0, 48, 127
1, 163411, Note_off_c, 7, 79, 127
1, 163411, Note_off_c, 3, 75, 127
1, 163411, Note_off_c, 10, 69, 127
1, 163416, Note_off_c, 0, 48, 127
1, 163418, Note_on_c, 2, 50, 127
1, 163418, Note_on_c, 10, 69, 127
1, 163418, Note_on_c, 6, 78, 127
1, 163715, Note_off_c, 6, 78, 127
1, 163720, Note_off_c, 2, 50, 127
1, 163722, Note_on_c, 2, 38, 127
1, 163722, Note_on_c, 4, 76, 127
1, 163870, Note_off_c, 4, 76, 127
1, 163873, Note_on_c, 6, 78, 127
1, 164014, Note_off_c, 10, 69, 127
1, 164022, Note_off_c, 6, 78, 127
1, 164024, Note_off_c, 2, 38, 127
1, 164026, Note_on_c, 7, 43, 127
1, 164026, Note_on_c, 7, 67, 127
1, 164026, Note_on_c, 7, 79, 127
1, 164026, Note_on_c, 11, 70, 127
1, 164323, Note_off_c, 11, 70, 127
1, 164323, Note_off_c, 7, 79, 127
1, 164323, Note_off_c, 7, 67, 127
1, 164329, Note_on_c, 2, 74, 127
1, 164626, Note_off_c, 2, 74, 127
1, 164626, Note_off_c, 7, 43, 127
1, 164632, Note_on_c, 11, 70, 127
1, 164929, Note_off_c, 11, 70, 127
1, 164935, Note_on_c, 11, 58, 127
1, 164935, Note_on_c, 2, 62, 127
1, 164935, Note_on_c, 7, 67, 127
1, 165232, Note_off_c, 7, 67, 127
1, 165237, Note_off_c, 2, 62, 127
1, 165237, Note_off_c, 11, 58, 127
1, 165239, Note_on_c, 10, 57, 127
1, 165239, Note_on_c, 0, 60, 127
1, 165239, Note_on_c, 5, 77, 127
1, 165536, Note_off_c, 5, 77, 127
1, 165542, Note_on_c, 0, 72, 127
1, 165839, Note_off_c, 0, 72, 127
1, 165845, Note_on_c, 10, 69, 127
1, 165997, Note_off_c, 0, 60, 127
1, 165997, Note_off_c, 10, 57, 127
1, 166142, Note_off_c, 10, 69, 127
1, 166148, Note_on_c, 0, 60, 127
1, 166148, Note_on_c, 10, 57, 127
1, 166148, Note_on_c, 5, 65, 127
1, 166445, Note_off_c, 5, 65, 127
1, 166450, Note_off_c, 10, 57, 127
1, 166450, Note_off_c, 0, 60, 127
1, 166452, Note_on_c, 11, 58, 127
1, 166452, Note_on_c, 7, 55, 127
1, 166452, Note_on_c, 3, 75, 127
1, 166749, Note_off_c, 3, 75, 127
1, 166755, Note_on_c, 11, 70, 127
1, 167052, Note_off_c, 11, 70, 127
1, 167058, Note_on_c, 7, 67, 127
1, 167210, Note_off_c, 7, 55, 127
1, 167210, Note_off_c, 11, 58, 127
1, 167355, Note_off_c, 7, 67, 127
1, 167361, Note_on_c, 11, 58, 127
1, 167361, Note_on_c, 7, 55, 127
1, 167361, Note_on_c, 3, 63, 127
1, 167658, Note_off_c, 3, 63, 127
1, 167663, Note_off_c, 7, 55, 127
1, 167663, Note_off_c, 11, 58, 127
1, 167665, Note_on_c, 6, 54, 127
1, 167665, Note_on_c, 10, 57, 127
1, 167665, Note_on_c, 2, 74, 127
1, 167962, Note_off_c, 2, 74, 127
1, 167968, Note_on_c, 10, 69, 127
1, 168265, Note_off_c, 10, 69, 127
1, 168265, Note_off_c, 10, 57, 127
1, 168265, Note_off_c, 6, 54, 127
1, 168271, Note_on_c, 6, 66, 127
1, 168568, Note_off_c, 6, 66, 127
1, 168574, Note_on_c, 11, 58, 127
1, 168574, Note_on_c, 7, 55, 127
1, 168574, Note_on_c, 2, 62, 127
1, 168871, Note_off_c, 2, 62, 127
1, 168876, Note_off_c, 7, 55, 127
1, 168876, Note_off_c, 11, 58, 127
1, 168878, Note_on_c, 0, 60, 127
1, 168878, Note_on_c, 10, 57, 127
1, 168878, Note_on_c, 0, 72, 127
1, 169175, Note_off_c, 0, 72, 127
1, 169180, Note_off_c, 10, 57, 127
1, 169180, Note_off_c, 0, 60, 127
1, 169182, Note_on_c, 11, 58, 127
1, 169182, Note_on_c, 2, 62, 127
1, 169182, Note_on_c, 10, 69, 127
1, 169330, Note_off_c, 10, 69, 127
1, 169333, Note_on_c, 11, 70, 127
1, 169481, Note_off_c, 11, 70, 127
1, 169483, Note_off_c, 2, 62, 127
1, 169483, Note_off_c, 11, 58, 127
1, 169485, Note_on_c, 0, 60, 127
1, 169485, Note_on_c, 10, 57, 127
1, 169485, Note_on_c, 0, 72, 127
1, 169782, Note_off_c, 0, 72, 127
1, 169787, Note_off_c, 10, 57, 127
1, 169787, Note_off_c, 0, 60, 127
1, 169789, Note_on_c, 11, 58, 127
1, 169789, Note_on_c, 7, 55, 127
1, 169789, Note_on_c, 0, 72, 127
1, 170086, Note_off_c, 0, 72, 127
1, 170091, Note_off_c, 7, 55, 127
1, 170091, Note_off_c, 11, 58, 127
1, 170093, Note_on_c, 6, 54, 127
1, 170093, Note_on_c, 10, 57, 127
1, 170093, Note_on_c, 0, 72, 127
1, 170390, Note_off_c, 0, 72, 127
1, 170395, Note_off_c, 10, 57, 127
1, 170395, Note_off_c, 6, 54, 127
1, 170397, Note_on_c, 7, 55, 127
1, 170397, Note_on_c, 4, 52, 127
1, 170397, Note_on_c, 10, 69, 127
1, 170545, Note_off_c, 10, 69, 127
1, 170548, Note_on_c, 11, 70, 127
1, 170696, Note_off_c, 11, 70, 127
1, 170698, Note_off_c, 4, 52, 127
1, 170698, Note_off_c, 7, 55, 127
1, 170700, Note_on_c, 6, 54, 127
1, 170700, Note_on_c, 2, 50, 127
1, 170700, Note_on_c, 0, 72, 127
1, 170997, Note_off_c, 0, 72, 127
1, 171002, Note_off_c, 2, 50, 127
1, 171002, Note_off_c, 6, 54, 127
1, 171004, Note_on_c, 7, 55, 127
1, 171004, Note_on_c, 4, 52, 127
1, 171004, Note_on_c, 0, 72, 127
1, 171301, Note_off_c, 0, 72, 127
1, 171306, Note_off_c, 4, 52, 127
1, 171306, Note_off_c, 7, 55, 127
1, 171308, Note_on_c, 6, 54, 127
1, 171308, Note_on_c, 10, 57, 127
1, 171308, Note_on_c, 3, 75, 127
1, 171605, Note_off_c, 3, 75, 127
1, 171610, Note_off_c, 10, 57, 127
1, 171610, Note_off_c, 6, 54, 127
1, 171612, Note_on_c, 11, 58, 127
1, 171612, Note_on_c, 7, 55, 127
1, 171612, Note_on_c, 0, 72, 127
1, 171760, Note_off_c, 0, 72, 127
1, 171763, Note_on_c, 2, 74, 127
1, 171911, Note_off_c, 2, 74, 127
1, 171913, Note_off_c, 7, 55, 127
1, 171913, Note_off_c, 11, 58, 127
1, 171915, Note_on_c, 10, 57, 127
1, 171915, Note_on_c, 0, 60, 127
1, 171915, Note_on_c, 3, 75, 127
1, 172212, Note_off_c, 3, 75, 127
1, 172217, Note_off_c, 0, 60, 127
1, 172217, Note_off_c, 10, 57, 127
1, 172219, Note_on_c, 11, 58, 127
1, 172219, Note_on_c, 2, 62, 127
1, 172219, Note_on_c, 3, 75, 127
1, 172516, Note_off_c, 3, 75, 127
1, 172521, Note_off_c, 2, 62, 127
1, 172521, Note_off_c, 11, 58, 127
1, 172523, Note_on_c, 3, 63, 127
1, 172523, Note_on_c, 0, 60, 127
1, 172523, Note_on_c, 6, 66, 127
1, 172523, Note_on_c, 0, 72, 127
1, 172523, Note_on_c, 10, 69, 127
1, 172523, Note_on_c, 3, 75, 127
1, 172825, Note_off_c, 0, 60, 127
1, 172825, Note_off_c, 3, 63, 127
1, 172827, Note_on_c, 10, 57, 127
1, 172977, Note_off_c, 10, 57, 127
1, 172979, Note_on_c, 11, 58, 127
1, 173129, Note_off_c, 11, 58, 127
1, 173131, Note_on_c, 0, 60, 127
1, 173278, Note_off_c, 3, 75, 127
1, 173278, Note_off_c, 10, 69, 127
1, 173278, Note_off_c, 0, 72, 127
1, 173278, Note_off_c, 6, 66, 127
1, 173433, Note_off_c, 0, 60, 127
1, 173451, Note_on_c, 6, 66, 127
1, 173451, Note_on_c, 2, 62, 127
1, 173451, Note_on_c, 10, 57, 127
1, 173451, Note_on_c, 0, 48, 127
1, 173748, Note_off_c, 2, 62, 127
1, 173748, Note_off_c, 6, 66, 127
1, 173753, Note_off_c, 0, 48, 127
1, 173753, Note_off_c, 10, 57, 127
1, 173755, Note_on_c, 7, 67, 127
1, 173755, Note_on_c, 2, 62, 127
1, 173755, Note_on_c, 11, 46, 127
1, 173755, Note_on_c, 7, 55, 127
1, 174073, Note_off_c, 7, 55, 127
1, 174073, Note_off_c, 11, 46, 127
1, 174075, Note_on_c, 0, 48, 127
1, 174228, Note_off_c, 7, 67, 127
1, 174235, Note_on_c, 10, 69, 127
1, 174383, Note_off_c, 2, 62, 127
1, 174391, Note_off_c, 10, 69, 127
1, 174393, Note_off_c, 0, 48, 127
1, 174395, Note_on_c, 11, 70, 127
1, 174395, Note_on_c, 6, 66, 127
1, 174395, Note_on_c, 2, 50, 127
1, 174472, Note_off_c, 11, 70, 127
1, 174475, Note_on_c, 10, 69, 127
1, 174552, Note_off_c, 10, 69, 127
1, 174555, Note_on_c, 11, 70, 127
1, 174632, Note_off_c, 11, 70, 127
1, 174635, Note_on_c, 10, 69, 127
1, 174712, Note_off_c, 10, 69, 127
1, 174715, Note_on_c, 11, 70, 127
1, 174715, Note_on_c, 2, 38, 127
1, 174792, Note_off_c, 11, 70, 127
1, 174795, Note_on_c, 10, 69, 127
1, 174867, Note_off_c, 6, 66, 127
1, 174872, Note_off_c, 10, 69, 127
1, 174875, Note_on_c, 7, 67, 127
1, 175028, Note_off_c, 2, 50, 127
1, 175031, Note_off_c, 7, 67, 127
1, 175033, Note_off_c, 2, 38, 127
1, 175035, Note_on_c, 7, 67, 127
1, 175035, Note_on_c, 3, 39, 127
1, 175228, Note_on_c, 3, 51, 127
1, 175242, Note_off_c, 3, 39, 127
1, 175411, Note_off_c, 7, 67, 127
1, 175419, Note_on_c, 3, 75, 127
1, 175419, Note_on_c, 7, 79, 127
1, 175419, Note_on_c, 10, 69, 127
1, 175419, Note_on_c, 2, 50, 127
1, 175428, Note_off_c, 3, 51, 127
1, 175609, Note_off_c, 2, 50, 127
1, 175611, Note_on_c, 0, 48, 127
1, 175795, Note_off_c, 10, 69, 127
1, 175795, Note_off_c, 3, 75, 127
1, 175801, Note_off_c, 0, 48, 127
1, 175819, Note_on_c, 2, 50, 127
1, 175819, Note_on_c, 2, 74, 127
1, 175819, Note_on_c, 11, 70, 127
1, 176173, Note_off_c, 7, 79, 127
1, 176195, Note_off_c, 11, 70, 127
1, 176195, Note_off_c, 2, 74, 127
1, 176219, Note_on_c, 6, 78, 127
1, 176219, Note_on_c, 10, 69, 127
1, 176219, Note_on_c, 0, 72, 127
1, 176219, Note_on_c, 2, 38, 127
1, 176633, Note_off_c, 2, 50, 127
1, 176639, Note_off_c, 2, 38, 127
1, 176639, Note_off_c, 0, 72, 127
1, 176639, Note_off_c, 10, 69, 127
1, 176639, Note_off_c, 6, 78, 127
1, 176715, Note_on_c, 7, 43, 127
1, 176715, Note_on_c, 2, 74, 127
1, 176715, Note_on_c, 11, 70, 127
1, 176715, Note_on_c, 7, 67, 127
1, 176715, Note_on_c, 7, 79, 127
1, 179015, Note_off_c, 7, 79, 127
1, 179015, Note_off_c, 7, 67, 127
1, 179015, Note_off_c, 11, 70, 127
1, 179015, Note_off_c, 2, 74, 127
1, 179015, Note_off_c, 7, 43, 127
1, 181707, Note_on_c, 7, 79, 127
1, 182448, Note_off_c, 7, 79, 127
1, 182450, Note_on_c, 3, 75, 127
1, 183191, Note_off_c, 3, 75, 127
1, 183193, Note_on_c, 5, 77, 127
1, 183563, Note_off_c, 5, 77, 127
1, 183565, Note_on_c, 7, 79, 127
1, 183935, Note_off_c, 7, 79, 127
1, 183937, Note_on_c, 7, 67, 127
1, 183937, Note_on_c, 12, 71, 127
1, 183937, Note_on_c, 2, 62, 127
1, 183937, Note_on_c, 7, 55, 127
1, 184678, Note_off_c, 7, 55, 127
1, 184678, Note_off_c, 2, 62, 127
1, 184678, Note_off_c, 12, 71, 127
1, 184680, Note_on_c, 0, 72, 127
1, 184680, Note_on_c, 0, 60, 127
1, 184680, Note_on_c, 3, 51, 127
1, 184825, Note_on_c, 12, 71, 127
1, 184835, Note_off_c, 0, 72, 127
1, 184970, Note_on_c, 0, 72, 127
1, 184980, Note_off_c, 12, 71, 127
1, 185421, Note_off_c, 3, 51, 127
1, 185423, Note_on_c, 5, 53, 127
1, 185793, Note_off_c, 5, 53, 127
1, 185795, Note_on_c, 7, 55, 127
1, 186151, Note_off_c, 0, 72, 127
1, 186165, Note_off_c, 7, 55, 127
1, 186165, Note_off_c, 0, 60, 127
1, 186167, Note_on_c, 2, 74, 127
1, 186167, Note_on_c, 12, 47, 127
1, 186167, Note_on_c, 7, 55, 127
1, 186899, Note_off_c, 7, 67, 127
1, 186909, Note_off_c, 12, 47, 127
1, 186909, Note_off_c, 2, 74, 127
1, 186911, Note_on_c, 0, 72, 127
1, 186911, Note_on_c, 3, 75, 127
1, 186911, Note_on_c, 0, 48, 127
1, 187281, Note_off_c, 3, 75, 127
1, 187281, Note_off_c, 0, 72, 127
1, 187283, Note_on_c, 2, 74, 127
1, 187283, Note_on_c, 5, 77, 127
1, 187653, Note_off_c, 5, 77, 127
1, 187653, Note_off_c, 2, 74, 127
1, 187653, Note_off_c, 7, 55, 127
1, 187655, Note_on_c, 7, 79, 127
1, 187655, Note_on_c, 3, 75, 127
1, 187655, Note_on_c, 0, 60, 127
1, 188396, Note_off_c, 0, 60, 127
1, 188396, Note_off_c, 3, 75, 127
1, 188396, Note_off_c, 7, 79, 127
1, 188396, Note_off_c, 0, 48, 127
1, 188398, Note_on_c, 2, 74, 127
1, 188398, Note_on_c, 5, 77, 127
1, 188398, Note_on_c, 12, 59, 127
1, 188398, Note_on_c, 5, 53, 127
1, 188768, Note_off_c, 12, 59, 127
1, 188768, Note_off_c, 5, 77, 127
1, 188768, Note_off_c, 2, 74, 127
1, 188770, Note_on_c, 0, 72, 127
1, 188770, Note_on_c, 3, 75, 127
1, 188770, Note_on_c, 0, 60, 127
1, 189134, Note_off_c, 5, 53, 127
1, 189140, Note_off_c, 0, 60, 127
1, 189140, Note_off_c, 3, 75, 127
1, 189140, Note_off_c, 0, 72, 127
1, 189142, Note_on_c, 3, 75, 127
1, 189142, Note_on_c, 12, 71, 127
1, 189142, Note_on_c, 7, 55, 127
1, 189421, Note_off_c, 3, 75, 127
1, 189421, Note_on_c, 2, 74, 127
1, 189512, Note_off_c, 2, 74, 127
1, 189514, Note_on_c, 3, 75, 127
1, 189605, Note_off_c, 3, 75, 127
1, 189607, Note_on_c, 2, 74, 127
1, 189698, Note_off_c, 2, 74, 127
1, 189700, Note_on_c, 3, 75, 127
1, 189791, Note_off_c, 3, 75, 127
1, 189793, Note_on_c, 2, 74, 127
1, 189886, Note_on_c, 7, 43, 127
1, 190256, Note_off_c, 2, 74, 127
1, 190256, Note_off_c, 12, 71, 127
1, 190258, Note_on_c, 0, 72, 127
1, 190628, Note_off_c, 0, 72, 127
1, 190628, Note_off_c, 7, 43, 127
1, 190630, Note_on_c, 7, 67, 127
1, 190630, Note_on_c, 0, 72, 127
1, 190630, Note_on_c, 3, 63, 127
1, 190630, Note_on_c, 0, 48, 127
1, 191369, Note_off_c, 7, 55, 127
1, 191371, Note_off_c, 0, 48, 127
1, 191371, Note_off_c, 3, 63, 127
1, 191371, Note_off_c, 0, 72, 127
1, 191371, Note_off_c, 7, 67, 127
1, 191405, Note_on_c, 3, 75, 127
1, 191405, Note_on_c, 7, 67, 127
1, 191405, Note_on_c, 0, 72, 127
1, 191405, Note_on_c, 0, 60, 127
1, 192146, Note_off_c, 0, 60, 127
1, 192146, Note_off_c, 0, 72, 127
1, 192146, Note_off_c, 7, 67, 127
1, 192146, Note_off_c, 3, 75, 127
1, 192148, Note_on_c, 0, 72, 127
1, 192148, Note_on_c, 4, 76, 127
1, 192148, Note_on_c, 7, 67, 127
1, 192148, Note_on_c, 11, 58, 127
1, 192889, Note_off_c, 11, 58, 127
1, 192889, Note_off_c, 7, 67, 127
1, 192889, Note_off_c, 4, 76, 127
1, 192889, Note_off_c, 0, 72, 127
1, 192891, Note_on_c, 0, 72, 127
1, 192891, Note_on_c, 5, 77, 127
1, 192891, Note_on_c, 10, 57, 127
1, 192891, Note_on_c, 0, 60, 127
1, 193261, Note_off_c, 0, 60, 127
1, 193263, Note_on_c, 3, 63, 127
1, 193447, Note_off_c, 3, 63, 127
1, 193449, Note_on_c, 2, 62, 127
1, 193633, Note_off_c, 2, 62, 127
1, 193633, Note_off_c, 5, 77, 127
1, 193635, Note_on_c, 6, 78, 127
1, 193635, Note_on_c, 3, 63, 127
1, 194376, Note_off_c, 6, 78, 127
1, 194376, Note_off_c, 10, 57, 127
1, 194378, Note_on_c, 7, 79, 127
1, 194378, Note_on_c, 7, 55, 127
1, 194750, Note_off_c, 0, 72, 127
1, 194750, Note_on_c, 2, 74, 127
1, 194934, Note_off_c, 2, 74, 127
1, 194936, Note_on_c, 3, 75, 127
1, 195114, Note_off_c, 7, 79, 127
1, 195120, Note_off_c, 3, 75, 127
1, 195120, Note_off_c, 7, 55, 127
1, 195122, Note_on_c, 10, 69, 127
1, 195122, Note_on_c, 10, 81, 127
1, 195122, Note_on_c, 6, 54, 127
1, 195494, Note_off_c, 3, 63, 127
1, 195494, Note_on_c, 2, 62, 127
1, 195678, Note_off_c, 2, 62, 127
1, 195680, Note_on_c, 0, 60, 127
1, 195864, Note_off_c, 0, 60, 127
1, 195864, Note_off_c, 10, 81, 127
1, 195866, Note_on_c, 2, 74, 127
1, 195866, Note_on_c, 11, 58, 127
1, 196236, Note_off_c, 11, 58, 127
1, 196236, Note_off_c, 6, 54, 127
1, 196238, Note_on_c, 10, 57, 127
1, 196608, Note_off_c, 10, 57, 127
1, 196608, Note_off_c, 2, 74, 127
1, 196608, Note_off_c, 10, 69, 127
1, 196610, Note_on_c, 2, 74, 127
1, 196610, Note_on_c, 7, 79, 127
1, 196610, Note_on_c, 11, 82, 127
1, 196610, Note_on_c, 7, 55, 127
1, 197345, Note_off_c, 2, 74, 127
1, 197353, Note_on_c, 3, 75, 127
1, 197353, Note_on_c, 0, 48, 127
1, 197723, Note_off_c, 11, 82, 127
1, 197723, Note_off_c, 7, 79, 127
1, 197725, Note_on_c, 10, 81, 127
1, 198089, Note_off_c, 3, 75, 127
1, 198095, Note_off_c, 10, 81, 127
1, 198095, Note_off_c, 0, 48, 127
1, 198095, Note_off_c, 7, 55, 127
1, 198097, Note_on_c, 6, 78, 127
1, 198097, Note_on_c, 2, 74, 127
1, 198097, Note_on_c, 2, 50, 127
1, 198283, Note_on_c, 7, 79, 127
1, 198457, Note_off_c, 7, 79, 127
1, 198469, Note_on_c, 10, 81, 127
1, 198839, Note_off_c, 2, 74, 127
1, 198841, Note_on_c, 0, 72, 127
1, 198841, Note_on_c, 2, 38, 127
1, 199205, Note_off_c, 10, 81, 127
1, 199211, Note_off_c, 6, 78, 127
1, 199213, Note_on_c, 7, 79, 127
1, 199577, Note_off_c, 0, 72, 127
1, 199583, Note_off_c, 7, 79, 127
1, 199583, Note_off_c, 2, 38, 127
1, 199585, Note_on_c, 12, 71, 127
1, 199585, Note_on_c, 2, 74, 127
1, 199585, Note_on_c, 7, 79, 127
1, 199585, Note_on_c, 7, 43, 127
1, 201060, Note_off_c, 2, 50, 127
1, 201385, Note_off_c, 7, 43, 127
1, 201385, Note_off_c, 7, 79, 127
1, 201385, Note_off_c, 2, 74, 127
1, 201385, Note_off_c, 12, 71, 127
1, 201815, Note_on_c, 7, 79, 127
1, 202556, Note_off_c, 7, 79, 127
1, 202558, Note_on_c, 3, 75, 127
1, 203299, Note_off_c, 3, 75, 127
1, 203301, Note_on_c, 2, 74, 127
1, 203671, Note_off_c, 2, 74, 127
1, 203673, Note_on_c, 0, 72, 127
1, 204043, Note_off_c, 0, 72, 127
1, 204045, Note_on_c, 12, 71, 127
1, 204045, Note_on_c, 7, 55, 127
1, 204229, Note_off_c, 12, 71, 127
1, 204231, Note_on_c, 0, 72, 127
1, 204415, Note_off_c, 0, 72, 127
1, 204417, Note_on_c, 12, 71, 127
1, 204601, Note_off_c, 12, 71, 127
1, 204603, Note_on_c, 0, 72, 127
1, 204787, Note_off_c, 0, 72, 127
1, 204787, Note_off_c, 7, 55, 127
1, 204789, Note_on_c, 2, 74, 127
1, 204789, Note_on_c, 3, 51, 127
1, 205137, Note_off_c, 2, 74, 127
1, 205141, Note_on_c, 0, 72, 127
1, 205282, Note_off_c, 0, 72, 127
1, 205284, Note_on_c, 2, 74, 127
1, 205406, Note_off_c, 2, 74, 127
1, 205408, Note_on_c, 0, 72, 127
1, 205530, Note_off_c, 0, 72, 127
1, 205530, Note_off_c, 3, 51, 127
1, 205532, Note_on_c, 2, 74, 127
1, 205532, Note_on_c, 2, 50, 127
1, 205654, Note_off_c, 2, 74, 127
1, 205656, Note_on_c, 0, 72, 127
1, 205778, Note_off_c, 0, 72, 127
1, 205780, Note_on_c, 2, 74, 127
1, 205902, Note_off_c, 2, 74, 127
1, 205902, Note_off_c, 2, 50, 127
1, 205904, Note_on_c, 0, 72, 127
1, 205904, Note_on_c, 0, 48, 127
1, 206026, Note_off_c, 0, 72, 127
1, 206028, Note_on_c, 12, 71, 127
1, 206150, Note_off_c, 12, 71, 127
1, 206152, Note_on_c, 0, 72, 127
1, 206274, Note_off_c, 0, 72, 127
1, 206274, Note_off_c, 0, 48, 127
1, 206276, Note_on_c, 2, 74, 127
1, 206276, Note_on_c, 7, 67, 127
1, 206276, Note_on_c, 12, 47, 127
1, 207017, Note_off_c, 12, 47, 127
1, 207017, Note_off_c, 7, 67, 127
1, 207017, Note_off_c, 2, 74, 127
1, 207019, Note_on_c, 3, 63, 127
1, 207019, Note_on_c, 3, 75, 127
1, 207019, Note_on_c, 0, 48, 127
1, 207760, Note_off_c, 3, 63, 127
1, 207762, Note_on_c, 2, 62, 127
1, 208132, Note_off_c, 2, 62, 127
1, 208132, Note_off_c, 3, 75, 127
1, 208134, Note_on_c, 5, 77, 127
1, 208134, Note_on_c, 0, 60, 127
1, 208504, Note_off_c, 0, 60, 127
1, 208504, Note_off_c, 5, 77, 127
1, 208504, Note_off_c, 0, 48, 127
1, 208506, Note_on_c, 2, 74, 127
1, 208506, Note_on_c, 7, 55, 127
1, 208506, Note_on_c, 12, 59, 127
1, 209247, Note_off_c, 2, 74, 127
1, 209249, Note_on_c, 7, 67, 127
1, 209990, Note_off_c, 12, 59, 127
1, 209990, Note_off_c, 7, 55, 127
1, 209992, Note_on_c, 5, 53, 127
1, 210362, Note_off_c, 7, 67, 127
1, 210364, Note_on_c, 7, 67, 127
1, 210734, Note_off_c, 7, 67, 127
1, 210734, Note_off_c, 5, 53, 127
1, 210736, Note_on_c, 0, 72, 127
1, 210736, Note_on_c, 7, 55, 127
1, 210736, Note_on_c, 0, 60, 127
1, 210736, Note_on_c, 3, 51, 127
1, 211477, Note_off_c, 3, 51, 127
1, 211477, Note_off_c, 0, 72, 127
1, 211479, Note_on_c, 2, 74, 127
1, 211479, Note_on_c, 2, 50, 127
1, 212220, Note_off_c, 2, 50, 127
1, 212220, Note_off_c, 2, 74, 127
1, 212222, Note_on_c, 3, 75, 127
1, 212222, Note_on_c, 0, 48, 127
1, 212961, Note_off_c, 0, 60, 127
1, 212961, Note_off_c, 7, 55, 127
1, 212963, Note_off_c, 0, 48, 127
1, 212963, Note_off_c, 3, 75, 127
1, 212965, Note_on_c, 5, 77, 127
1, 212965, Note_on_c, 8, 56, 127
1, 212965, Note_on_c, 12, 47, 127
1, 212965, Note_on_c, 5, 53, 127
1, 213706, Note_off_c, 5, 53, 127
1, 213706, Note_off_c, 8, 56, 127
1, 213706, Note_off_c, 5, 77, 127
1, 213708, Note_on_c, 7, 79, 127
1, 213708, Note_on_c, 7, 55, 127
1, 213708, Note_on_c, 3, 51, 127
1, 214449, Note_off_c, 3, 51, 127
1, 214449, Note_off_c, 7, 55, 127
1, 214449, Note_off_c, 7, 79, 127
1, 214451, Note_on_c, 8, 80, 127
1, 214451, Note_on_c, 2, 50, 127
1, 214451, Note_on_c, 5, 53, 127
1, 215190, Note_off_c, 12, 47, 127
1, 215192, Note_off_c, 5, 53, 127
1, 215192, Note_off_c, 2, 50, 127
1, 215192, Note_off_c, 8, 80, 127
1, 215194, Note_on_c, 7, 79, 127
1, 215194, Note_on_c, 0, 48, 127
1, 215194, Note_on_c, 3, 51, 127
1, 215564, Note_off_c, 3, 51, 127
1, 215564, Note_off_c, 7, 79, 127
1, 215566, Note_on_c, 5, 77, 127
1, 215566, Note_on_c, 5, 53, 127
1, 215930, Note_off_c, 0, 48, 127
1, 215936, Note_off_c, 5, 53, 127
1, 215936, Note_off_c, 5, 77, 127
1, 215938, Note_on_c, 3, 75, 127
1, 215938, Note_on_c, 7, 55, 127
1, 216679, Note_off_c, 3, 75, 127
1, 216681, Note_on_c, 2, 74, 127
1, 216681, Note_on_c, 7, 43, 127
1, 217236, Note_off_c, 2, 74, 127
1, 217238, Note_on_c, 0, 72, 127
1, 217422, Note_off_c, 0, 72, 127
1, 217422, Note_off_c, 7, 43, 127
1, 217424, Note_on_c, 0, 72, 127
1, 217424, Note_on_c, 0, 48, 127
1, 218163, Note_off_c, 7, 55, 127
1, 218165, Note_off_c, 0, 48, 127
1, 218165, Note_off_c, 0, 72, 127
1, 218167, Note_on_c, 3, 75, 127
1, 218167, Note_on_c, 0, 60, 127
1, 218908, Note_off_c, 3, 75, 127
1, 218910, Note_on_c, 4, 76, 127
1, 218910, Note_on_c, 11, 58, 127
1, 219651, Note_off_c, 11, 58, 127
1, 219651, Note_off_c, 4, 76, 127
1, 219653, Note_on_c, 5, 77, 127
1, 219653, Note_on_c, 10, 57, 127
1, 220025, Note_off_c, 0, 60, 127
1, 220025, Note_on_c, 2, 62, 127
1, 220209, Note_off_c, 2, 62, 127
1, 220211, Note_on_c, 3, 63, 127
1, 220395, Note_off_c, 3, 63, 127
1, 220395, Note_off_c, 5, 77, 127
1, 220397, Note_on_c, 6, 78, 127
1, 220397, Note_on_c, 2, 62, 127
1, 220767, Note_off_c, 2, 62, 127
1, 220769, Note_on_c, 0, 60, 127
1, 221139, Note_off_c, 0, 60, 127
1, 221139, Note_off_c, 10, 57, 127
1, 221141, Note_on_c, 7, 79, 127
1, 221141, Note_on_c, 7, 55, 127
1, 221141, Note_on_c, 11, 58, 127
1, 221146, Note_off_c, 6, 78, 127
1, 221511, Note_off_c, 11, 58, 127
1, 221513, Note_on_c, 10, 57, 127
1, 221799, Note_off_c, 7, 55, 127
1, 221882, Note_off_c, 10, 57, 127
1, 221884, Note_on_c, 10, 81, 127
1, 221884, Note_on_c, 7, 55, 127
1, 221884, Note_on_c, 2, 50, 127
1, 221904, Note_off_c, 7, 79, 127
1, 222625, Note_off_c, 7, 55, 127
1, 222625, Note_off_c, 10, 81, 127
1, 222627, Note_on_c, 2, 74, 127
1, 222627, Note_on_c, 6, 54, 127
1, 222997, Note_off_c, 2, 50, 127
1, 222999, Note_on_c, 0, 48, 127
1, 223363, Note_off_c, 6, 54, 127
1, 223369, Note_off_c, 0, 48, 127
1, 223371, Note_on_c, 7, 79, 127
1, 223371, Note_on_c, 11, 46, 127
1, 223371, Note_on_c, 11, 58, 127
1, 223741, Note_off_c, 2, 74, 127
1, 223743, Note_on_c, 3, 75, 127
1, 224113, Note_off_c, 3, 75, 127
1, 224113, Note_off_c, 11, 58, 127
1, 224113, Note_off_c, 11, 46, 127
1, 224115, Note_on_c, 0, 72, 127
1, 224115, Note_on_c, 10, 57, 127
1, 224115, Note_on_c, 0, 48, 127
1, 224485, Note_off_c, 10, 57, 127
1, 224485, Note_off_c, 0, 72, 127
1, 224485, Note_off_c, 7, 79, 127
1, 224487, Note_on_c, 11, 70, 127
1, 224487, Note_on_c, 10, 81, 127
1, 224487, Note_on_c, 7, 55, 127
1, 224851, Note_off_c, 0, 48, 127
1, 224857, Note_off_c, 7, 55, 127
1, 224857, Note_off_c, 10, 81, 127
1, 224857, Note_off_c, 11, 70, 127
1, 224859, Note_on_c, 10, 69, 127
1, 224859, Note_on_c, 6, 78, 127
1, 224859, Note_on_c, 2, 50, 127
1, 224994, Note_on_c, 4, 76, 127
1, 225013, Note_off_c, 6, 78, 127
1, 225129, Note_on_c, 6, 78, 127
1, 225148, Note_off_c, 4, 76, 127
1, 225601, Note_on_c, 2, 38, 127
1, 225971, Note_off_c, 6, 78, 127
1, 225971, Note_off_c, 10, 69, 127
1, 225973, Note_on_c, 7, 79, 127
1, 226343, Note_off_c, 7, 79, 127
1, 226343, Note_off_c, 2, 38, 127
1, 226345, Note_on_c, 12, 71, 127
1, 226345, Note_on_c, 7, 79, 127
1, 226345, Note_on_c, 7, 43, 127
1, 227084, Note_off_c, 2, 50, 127
1, 227105, Note_off_c, 7, 43, 127
1, 227105, Note_off_c, 7, 79, 127
1, 227105, Note_off_c, 12, 71, 127
1, 227136, Note_on_c, 7, 55, 127
1, 227136, Note_on_c, 12, 47, 127
1, 227136, Note_on_c, 2, 74, 127
1, 227136, Note_on_c, 7, 67, 127
1, 227136, Note_on_c, 7, 79, 127
1, 227506, Note_off_c, 7, 79, 127
1, 227508, Note_on_c, 5, 77, 127
1, 227872, Note_off_c, 2, 74, 127
1, 227878, Note_off_c, 5, 77, 127
1, 227880, Note_on_c, 7, 79, 127
1, 228250, Note_off_c, 7, 79, 127
1, 228252, Note_on_c, 2, 74, 127
1, 228622, Note_off_c, 2, 74, 127
1, 228622, Note_off_c, 12, 47, 127
1, 228622, Note_off_c, 7, 55, 127
1, 228624, Note_on_c, 0, 48, 127
1, 228624, Note_on_c, 3, 75, 127
1, 228624, Note_on_c, 0, 72, 127
1, 228994, Note_off_c, 0, 72, 127
1, 228994, Note_off_c, 3, 75, 127
1, 228994, Note_off_c, 0, 48, 127
1, 228996, Note_off_c, 7, 67, 127
1, 229012, Note_on_c, 7, 79, 127
1, 229012, Note_on_c, 3, 63, 127
1, 229382, Note_off_c, 3, 63, 127
1, 229382, Note_off_c, 7, 79, 127
1, 229384, Note_on_c, 3, 75, 127
1, 229384, Note_on_c, 0, 60, 127
1, 229754, Note_off_c, 0, 60, 127
1, 229754, Note_off_c, 3, 75, 127
1, 229756, Note_on_c, 5, 77, 127
1, 229756, Note_on_c, 2, 62, 127
1, 230126, Note_off_c, 2, 62, 127
1, 230126, Note_off_c, 5, 77, 127
1, 230128, Note_on_c, 7, 79, 127
1, 230128, Note_on_c, 3, 63, 127
1, 230498, Note_off_c, 3, 63, 127
1, 230498, Note_off_c, 7, 79, 127
1, 230500, Note_on_c, 3, 75, 127
1, 230500, Note_on_c, 0, 60, 127
1, 230870, Note_off_c, 0, 60, 127
1, 230870, Note_off_c, 3, 75, 127
1, 230872, Note_on_c, 8, 80, 127
1, 230872, Note_on_c, 5, 65, 127
1, 231613, Note_off_c, 5, 65, 127
1, 231613, Note_off_c, 8, 80, 127
1, 231615, Note_on_c, 5, 65, 127
1, 231615, Note_on_c, 5, 77, 127
1, 231615, Note_on_c, 0, 72, 127
1, 231615, Note_on_c, 10, 45, 127
1, 231615, Note_on_c, 5, 53, 127
1, 231985, Note_off_c, 5, 77, 127
1, 231987, Note_on_c, 3, 75, 127
1, 232351, Note_off_c, 0, 72, 127
1, 232357, Note_off_c, 3, 75, 127
1, 232359, Note_on_c, 5, 77, 127
1, 232729, Note_off_c, 5, 77, 127
1, 232731, Note_on_c, 0, 72, 127
1, 233101, Note_off_c, 0, 72, 127
1, 233101, Note_off_c, 5, 53, 127
1, 233101, Note_off_c, 10, 45, 127
1, 233103, Note_on_c, 2, 74, 127
1, 233103, Note_on_c, 11, 70, 127
1, 233103, Note_on_c, 11, 46, 127
1, 233473, Note_off_c, 11, 46, 127
1, 233473, Note_off_c, 11, 70, 127
1, 233473, Note_off_c, 2, 74, 127
1, 233475, Note_off_c, 5, 65, 127
1, 233491, Note_on_c, 2, 62, 127
1, 233491, Note_on_c, 5, 77, 127
1, 233861, Note_off_c, 5, 77, 127
1, 233861, Note_off_c, 2, 62, 127
1, 233863, Note_on_c, 11, 58, 127
1, 233863, Note_on_c, 2, 74, 127
1, 234233, Note_off_c, 2, 74, 127
1, 234233, Note_off_c, 11, 58, 127
1, 234235, Note_on_c, 0, 60, 127
1, 234235, Note_on_c, 3, 75, 127
1, 234605, Note_off_c, 3, 75, 127
1, 234605, Note_off_c, 0, 60, 127
1, 234607, Note_on_c, 2, 62, 127
1, 234607, Note_on_c, 5, 77, 127
1, 234977, Note_off_c, 5, 77, 127
1, 234977, Note_off_c, 2, 62, 127
1, 234979, Note_on_c, 11, 58, 127
1, 234979, Note_on_c, 2, 74, 127
1, 235349, Note_off_c, 2, 74, 127
1, 235349, Note_off_c, 11, 58, 127
1, 235351, Note_on_c, 3, 63, 127
1, 235351, Note_on_c, 7, 79, 127
1, 236092, Note_off_c, 7, 79, 127
1, 236092, Note_off_c, 3, 63, 127
1, 236094, Note_on_c, 7, 43, 127
1, 236094, Note_on_c, 3, 51, 127
1, 236094, Note_on_c, 3, 75, 127
1, 236094, Note_on_c, 11, 70, 127
1, 236094, Note_on_c, 3, 63, 127
1, 236464, Note_off_c, 11, 70, 127
1, 236464, Note_off_c, 3, 75, 127
1, 236466, Note_on_c, 2, 74, 127
1, 236836, Note_off_c, 2, 74, 127
1, 236838, Note_on_c, 3, 75, 127
1, 237208, Note_off_c, 3, 75, 127
1, 237210, Note_on_c, 11, 70, 127
1, 237580, Note_off_c, 11, 70, 127
1, 237580, Note_off_c, 3, 51, 127
1, 237580, Note_off_c, 7, 43, 127
1, 237582, Note_on_c, 8, 44, 127
1, 237582, Note_on_c, 0, 72, 127
1, 237582, Note_on_c, 8, 68, 127
1, 237952, Note_off_c, 8, 68, 127
1, 237952, Note_off_c, 0, 72, 127
1, 237952, Note_off_c, 8, 44, 127
1, 237954, Note_off_c, 3, 63, 127
1, 237970, Note_on_c, 3, 75, 127
1, 237970, Note_on_c, 0, 60, 127
1, 238340, Note_off_c, 0, 60, 127
1, 238340, Note_off_c, 3, 75, 127
1, 238342, Note_on_c, 0, 72, 127
1, 238342, Note_on_c, 8, 56, 127
1, 238712, Note_off_c, 8, 56, 127
1, 238712, Note_off_c, 0, 72, 127
1, 238714, Note_on_c, 2, 74, 127
1, 238714, Note_on_c, 11, 58, 127
1, 239084, Note_off_c, 11, 58, 127
1, 239084, Note_off_c, 2, 74, 127
1, 239086, Note_on_c, 3, 75, 127
1, 239086, Note_on_c, 0, 60, 127
1, 239456, Note_off_c, 0, 60, 127
1, 239456, Note_off_c, 3, 75, 127
1, 239458, Note_on_c, 0, 72, 127
1, 239458, Note_on_c, 8, 56, 127
1, 239828, Note_off_c, 8, 56, 127
1, 239828, Note_off_c, 0, 72, 127
1, 239830, Note_on_c, 5, 77, 127
1, 239830, Note_on_c, 2, 50, 127
1, 240200, Note_off_c, 2, 50, 127
1, 240202, Note_on_c, 2, 62, 127
1, 240572, Note_off_c, 2, 62, 127
1, 240574, Note_on_c, 0, 60, 127
1, 240944, Note_off_c, 0, 60, 127
1, 240946, Note_on_c, 11, 58, 127
1, 241037, Note_off_c, 5, 77, 127
1, 241039, Note_on_c, 7, 79, 127
1, 241130, Note_off_c, 7, 79, 127
1, 241132, Note_on_c, 8, 80, 127
1, 241223, Note_off_c, 8, 80, 127
1, 241225, Note_on_c, 7, 79, 127
1, 241316, Note_off_c, 7, 79, 127
1, 241316, Note_off_c, 11, 58, 127
1, 241318, Note_on_c, 5, 77, 127
1, 241318, Note_on_c, 3, 63, 127
1, 241686, Note_off_c, 5, 77, 127
1, 241688, Note_off_c, 3, 63, 127
1, 241690, Note_on_c, 3, 75, 127
1, 241690, Note_on_c, 0, 60, 127
1, 242060, Note_off_c, 0, 60, 127
1, 242062, Note_on_c, 11, 58, 127
1, 242194, Note_off_c, 3, 75, 127
1, 242248, Note_on_c, 2, 74, 127
1, 242432, Note_off_c, 11, 58, 127
1, 242434, Note_on_c, 8, 56, 127
1, 242618, Note_off_c, 2, 74, 127
1, 242620, Note_on_c, 3, 75, 127
1, 242804, Note_off_c, 3, 75, 127
1, 242804, Note_off_c, 8, 56, 127
1, 242806, Note_on_c, 7, 67, 127
1, 242806, Note_on_c, 11, 58, 127
1, 243085, Note_off_c, 7, 67, 127
1, 243085, Note_on_c, 5, 65, 127
1, 243176, Note_off_c, 5, 65, 127
1, 243178, Note_on_c, 7, 67, 127
1, 243240, Note_on_c, 5, 65, 127
1, 243255, Note_off_c, 7, 67, 127
1, 243301, Note_on_c, 7, 67, 127
1, 243316, Note_off_c, 5, 65, 127
1, 243362, Note_on_c, 5, 65, 127
1, 243377, Note_off_c, 7, 67, 127
1, 243423, Note_on_c, 7, 67, 127
1, 243438, Note_off_c, 5, 65, 127
1, 243484, Note_on_c, 5, 65, 127
1, 243499, Note_off_c, 7, 67, 127
1, 243544, Note_off_c, 11, 58, 127
1, 243546, Note_on_c, 11, 46, 127
1, 243910, Note_off_c, 5, 65, 127
1, 243918, Note_on_c, 3, 63, 127
1, 244288, Note_off_c, 3, 63, 127
1, 244288, Note_off_c, 11, 46, 127
1, 244306, Note_on_c, 3, 51, 127
1, 244306, Note_on_c, 3, 63, 127
1, 244306, Note_on_c, 7, 79, 127
1, 245047, Note_off_c, 7, 79, 127
1, 245049, Note_on_c, 3, 75, 127
1, 245419, Note_off_c, 3, 63, 127
1, 245419, Note_off_c, 3, 51, 127
1, 245791, Note_off_c, 3, 75, 127
1, 245793, Note_on_c, 5, 77, 127
1, 246163, Note_off_c, 5, 77, 127
1, 246165, Note_on_c, 7, 79, 127
1, 246535, Note_off_c, 7, 79, 127
1, 246537, Note_on_c, 7, 55, 127
1, 246537, Note_on_c, 2, 62, 127
1, 246537, Note_on_c, 7, 67, 127
1, 246537, Note_on_c, 12, 71, 127
1, 247278, Note_off_c, 12, 71, 127
1, 247278, Note_off_c, 2, 62, 127
1, 247278, Note_off_c, 7, 55, 127
1, 247280, Note_on_c, 3, 51, 127
1, 247280, Note_on_c, 0, 60, 127
1, 247280, Note_on_c, 0, 72, 127
1, 247414, Note_off_c, 0, 72, 127
1, 247416, Note_on_c, 12, 71, 127
1, 247550, Note_off_c, 12, 71, 127
1, 247552, Note_on_c, 0, 72, 127
1, 248022, Note_off_c, 3, 51, 127
1, 248024, Note_on_c, 5, 53, 127
1, 248394, Note_off_c, 5, 53, 127
1, 248396, Note_on_c, 7, 55, 127
1, 248713, Note_off_c, 0, 72, 127
1, 248765, Note_off_c, 7, 55, 127
1, 248765, Note_off_c, 0, 60, 127
1, 248767, Note_on_c, 12, 47, 127
1, 248767, Note_on_c, 7, 55, 127
1, 248767, Note_on_c, 2, 74, 127
1, 249499, Note_off_c, 7, 67, 127
1, 249509, Note_off_c, 2, 74, 127
1, 249509, Note_off_c, 12, 47, 127
1, 249511, Note_on_c, 0, 48, 127
1, 249511, Note_on_c, 3, 75, 127
1, 249511, Note_on_c, 0, 72, 127
1, 249881, Note_off_c, 0, 72, 127
1, 249881, Note_off_c, 3, 75, 127
1, 249883, Note_on_c, 2, 74, 127
1, 249883, Note_on_c, 5, 77, 127
1, 250253, Note_off_c, 5, 77, 127
1, 250253, Note_off_c, 2, 74, 127
1, 250253, Note_off_c, 7, 55, 127
1, 250255, Note_on_c, 0, 60, 127
1, 250255, Note_on_c, 3, 75, 127
1, 250255, Note_on_c, 7, 79, 127
1, 250996, Note_off_c, 7, 79, 127
1, 250996, Note_off_c, 3, 75, 127
1, 250996, Note_off_c, 0, 60, 127
1, 250996, Note_off_c, 0, 48, 127
1, 250998, Note_on_c, 12, 59, 127
1, 250998, Note_on_c, 5, 53, 127
1, 250998, Note_on_c, 5, 77, 127
1, 250998, Note_on_c, 2, 74, 127
1, 251368, Note_off_c, 2, 74, 127
1, 251368, Note_off_c, 5, 77, 127
1, 251368, Note_off_c, 12, 59, 127
1, 251370, Note_on_c, 0, 60, 127
1, 251370, Note_on_c, 0, 72, 127
1, 251370, Note_on_c, 3, 75, 127
1, 251734, Note_off_c, 5, 53, 127
1, 251740, Note_off_c, 3, 75, 127
1, 251740, Note_off_c, 0, 72, 127
1, 251740, Note_off_c, 0, 60, 127
1, 251742, Note_on_c, 7, 55, 127
1, 251742, Note_on_c, 12, 71, 127
1, 251742, Note_on_c, 3, 75, 127
1, 251926, Note_off_c, 3, 75, 127
1, 251928, Note_on_c, 2, 74, 127
1, 252019, Note_off_c, 2, 74, 127
1, 252021, Note_on_c, 3, 75, 127
1, 252112, Note_off_c, 3, 75, 127
1, 252114, Note_on_c, 2, 74, 127
1, 252205, Note_off_c, 2, 74, 127
1, 252207, Note_on_c, 3, 75, 127
1, 252298, Note_off_c, 3, 75, 127
1, 252300, Note_on_c, 2, 74, 127
1, 252391, Note_off_c, 2, 74, 127
1, 252393, Note_on_c, 3, 75, 127
1, 252484, Note_off_c, 3, 75, 127
1, 252486, Note_on_c, 7, 43, 127
1, 252486, Note_on_c, 2, 74, 127
1, 252577, Note_off_c, 2, 74, 127
1, 252579, Note_on_c, 3, 75, 127
1, 252670, Note_off_c, 3, 75, 127
1, 252672, Note_on_c, 2, 74, 127
1, 252856, Note_off_c, 2, 74, 127
1, 252856, Note_off_c, 12, 71, 127
1, 252858, Note_on_c, 0, 72, 127
1, 253228, Note_off_c, 0, 72, 127
1, 253228, Note_off_c, 7, 43, 127
1, 253230, Note_on_c, 0, 48, 127
1, 253230, Note_on_c, 3, 63, 127
1, 253230, Note_on_c, 0, 72, 127
1, 253230, Note_on_c, 7, 67, 127
1, 253969, Note_off_c, 7, 55, 127
1, 253971, Note_off_c, 7, 67, 127
1, 253971, Note_off_c, 0, 72, 127
1, 253971, Note_off_c, 3, 63, 127
1, 253971, Note_off_c, 0, 48, 127
1, 253989, Note_on_c, 0, 72, 127
1, 253989, Note_on_c, 7, 55, 127
1, 253989, Note_on_c, 4, 52, 127
1, 254359, Note_off_c, 0, 72, 127
1, 254361, Note_on_c, 11, 70, 127
1, 254731, Note_off_c, 11, 70, 127
1, 254733, Note_on_c, 0, 72, 127
1, 255103, Note_off_c, 0, 72, 127
1, 255105, Note_on_c, 7, 67, 127
1, 255475, Note_off_c, 7, 67, 127
1, 255475, Note_off_c, 4, 52, 127
1, 255475, Note_off_c, 7, 55, 127
1, 255477, Note_on_c, 10, 69, 127
1, 255477, Note_on_c, 5, 53, 127
1, 255663, Note_on_c, 0, 60, 127
1, 255847, Note_off_c, 0, 60, 127
1, 255849, Note_on_c, 2, 62, 127
1, 256033, Note_off_c, 2, 62, 127
1, 256035, Note_on_c, 3, 63, 127
1, 256213, Note_off_c, 5, 53, 127
1, 256219, Note_off_c, 3, 63, 127
1, 256219, Note_off_c, 10, 69, 127
1, 256221, Note_on_c, 2, 74, 127
1, 256221, Note_on_c, 10, 57, 127
1, 256221, Note_on_c, 6, 54, 127
1, 256591, Note_off_c, 2, 74, 127
1, 256593, Note_on_c, 0, 72, 127
1, 256963, Note_off_c, 0, 72, 127
1, 256965, Note_on_c, 2, 74, 127
1, 257335, Note_off_c, 2, 74, 127
1, 257337, Note_on_c, 10, 69, 127
1, 257707, Note_off_c, 10, 69, 127
1, 257707, Note_off_c, 6, 54, 127
1, 257707, Note_off_c, 10, 57, 127
1, 257709, Note_on_c, 12, 71, 127
1, 257709, Note_on_c, 7, 55, 127
1, 257895, Note_on_c, 2, 62, 127
1, 258079, Note_off_c, 2, 62, 127
1, 258081, Note_on_c, 3, 63, 127
1, 258251, Note_off_c, 12, 71, 127
1, 258265, Note_off_c, 3, 63, 127
1, 258267, Note_on_c, 5, 65, 127
1, 258445, Note_off_c, 7, 55, 127
1, 258451, Note_off_c, 5, 65, 127
1, 258453, Note_on_c, 4, 76, 127
1, 258453, Note_on_c, 7, 55, 127
1, 258453, Note_on_c, 11, 58, 127
1, 258699, Note_off_c, 4, 76, 127
1, 258701, Note_on_c, 5, 77, 127
1, 258823, Note_off_c, 5, 77, 127
1, 258825, Note_on_c, 4, 76, 127
1, 258947, Note_off_c, 4, 76, 127
1, 258949, Note_on_c, 5, 77, 127
1, 259071, Note_off_c, 5, 77, 127
1, 259073, Note_on_c, 7, 79, 127
1, 259195, Note_off_c, 7, 79, 127
1, 259197, Note_on_c, 5, 77, 127
1, 259319, Note_off_c, 5, 77, 127
1, 259321, Note_on_c, 7, 79, 127
1, 259443, Note_off_c, 7, 79, 127
1, 259445, Note_on_c, 5, 77, 127
1, 259567, Note_off_c, 5, 77, 127
1, 259569, Note_on_c, 4, 76, 127
1, 259691, Note_off_c, 4, 76, 127
1, 259693, Note_on_c, 5, 77, 127
1, 259815, Note_off_c, 5, 77, 127
1, 259817, Note_on_c, 7, 79, 127
1, 259939, Note_off_c, 7, 79, 127
1, 259939, Note_off_c, 11, 58, 127
1, 259939, Note_off_c, 7, 55, 127
1, 259941, Note_on_c, 1, 73, 127
1, 259941, Note_on_c, 8, 56, 127
1, 260483, Note_off_c, 1, 73, 127
1, 260682, Note_off_c, 8, 56, 127
1, 260684, Note_on_c, 2, 74, 127
1, 260684, Note_on_c, 5, 53, 127
1, 260775, Note_off_c, 2, 74, 127
1, 260777, Note_on_c, 1, 73, 127
1, 260868, Note_off_c, 1, 73, 127
1, 260870, Note_on_c, 2, 74, 127
1, 261425, Note_off_c, 5, 53, 127
1, 261427, Note_on_c, 7, 55, 127
1, 261795, Note_off_c, 7, 55, 127
1, 261799, Note_on_c, 10, 57, 127
1, 262167, Note_off_c, 10, 57, 127
1, 262169, Note_off_c, 2, 74, 127
1, 262171, Note_on_c, 10, 69, 127
1, 262171, Note_on_c, 4, 76, 127
1, 262171, Note_on_c, 1, 49, 127
1, 262912, Note_off_c, 1, 49, 127
1, 262912, Note_off_c, 4, 76, 127
1, 262912, Note_off_c, 10, 69, 127
1, 262914, Note_on_c, 7, 67, 127
1, 262914, Note_on_c, 5, 77, 127
1, 262914, Note_on_c, 2, 50, 127
1, 263146, Note_off_c, 7, 67, 127
1, 263146, Note_on_c, 5, 65, 127
1, 263465, Note_off_c, 5, 65, 127
1, 263471, Note_on_c, 7, 67, 127
1, 263655, Note_off_c, 7, 67, 127
1, 263655, Note_off_c, 2, 50, 127
1, 263657, Note_on_c, 10, 69, 127
1, 263657, Note_on_c, 2, 62, 127
1, 264027, Note_off_c, 10, 69, 127
1, 264027, Note_off_c, 5, 77, 127
1, 264029, Note_on_c, 11, 70, 127
1, 264029, Note_on_c, 7, 79, 127
1, 264399, Note_off_c, 7, 79, 127
1, 264399, Note_off_c, 11, 70, 127
1, 264399, Note_off_c, 2, 62, 127
1, 264401, Note_on_c, 4, 76, 127
1, 264401, Note_on_c, 10, 57, 127
1, 264401, Note_on_c, 1, 61, 127
1, 265142, Note_off_c, 4, 76, 127
1, 265144, Note_on_c, 10, 69, 127
1, 265885, Note_off_c, 10, 57, 127
1, 265887, Note_on_c, 7, 55, 127
1, 266257, Note_off_c, 10, 69, 127
1, 266259, Note_off_c, 1, 61, 127
1, 266259, Note_on_c, 10, 69, 127
1, 266629, Note_off_c, 10, 69, 127
1, 266629, Note_off_c, 7, 55, 127
1, 266631, Note_on_c, 2, 74, 127
1, 266631, Note_on_c, 2, 62, 127
1, 266631, Note_on_c, 5, 53, 127
1, 266631, Note_on_c, 10, 57, 127
1, 267372, Note_off_c, 5, 53, 127
1, 267372, Note_off_c, 2, 74, 127
1, 267374, Note_on_c, 4, 76, 127
1, 267374, Note_on_c, 4, 52, 127
1, 268115, Note_off_c, 4, 52, 127
1, 268115, Note_off_c, 4, 76, 127
1, 268117, Note_on_c, 5, 77, 127
1, 268117, Note_on_c, 2, 50, 127
1, 268856, Note_off_c, 10, 57, 127
1, 268856, Note_off_c, 2, 62, 127
1, 268858, Note_off_c, 2, 50, 127
1, 268858, Note_off_c, 5, 77, 127
1, 268860, Note_on_c, 7, 79, 127
1, 268860, Note_on_c, 11, 58, 127
1, 268860, Note_on_c, 7, 55, 127
1, 268860, Note_on_c, 1, 49, 127
1, 269601, Note_off_c, 7, 55, 127
1, 269601, Note_off_c, 11, 58, 127
1, 269601, Note_off_c, 7, 79, 127
1, 269603, Note_on_c, 10, 81, 127
1, 269603, Note_on_c, 10, 57, 127
1, 269603, Note_on_c, 5, 53, 127
1, 270344, Note_off_c, 5, 53, 127
1, 270344, Note_off_c, 10, 57, 127
1, 270344, Note_off_c, 10, 81, 127
1, 270346, Note_on_c, 11, 82, 127
1, 270346, Note_on_c, 4, 52, 127
1, 270346, Note_on_c, 7, 55, 127
1, 271085, Note_off_c, 1, 49, 127
1, 271087, Note_off_c, 7, 55, 127
1, 271087, Note_off_c, 4, 52, 127
1, 271087, Note_off_c, 11, 82, 127
1, 271089, Note_on_c, 10, 81, 127
1, 271089, Note_on_c, 2, 50, 127
1, 271089, Note_on_c, 5, 53, 127
1, 271459, Note_off_c, 5, 53, 127
1, 271459, Note_off_c, 10, 81, 127
1, 271461, Note_on_c, 7, 79, 127
1, 271461, Note_on_c, 7, 55, 127
1, 271825, Note_off_c, 2, 50, 127
1, 271831, Note_off_c, 7, 55, 127
1, 271831, Note_off_c, 7, 79, 127
1, 271833, Note_on_c, 5, 77, 127
1, 271833, Note_on_c, 10, 57, 127
1, 272576, Note_on_c, 10, 45, 127
1, 272665, Note_off_c, 5, 77, 127
1, 272669, Note_on_c, 4, 76, 127
1, 272752, Note_on_c, 5, 77, 127
1, 272760, Note_off_c, 4, 76, 127
1, 272835, Note_on_c, 4, 76, 127
1, 272843, Note_off_c, 5, 77, 127
1, 272918, Note_on_c, 5, 77, 127
1, 272926, Note_off_c, 4, 76, 127
1, 273001, Note_on_c, 4, 76, 127
1, 273009, Note_off_c, 5, 77, 127
1, 273133, Note_on_c, 2, 74, 127
1, 273135, Note_off_c, 4, 76, 127
1, 273317, Note_off_c, 2, 74, 127
1, 273317, Note_off_c, 10, 45, 127
1, 273319, Note_on_c, 2, 74, 127
1, 273319, Note_on_c, 2, 50, 127
1, 273319, Note_on_c, 6, 54, 127
1, 273503, Note_off_c, 6, 54, 127
1, 273505, Note_on_c, 7, 55, 127
1, 273689, Note_off_c, 7, 55, 127
1, 273691, Note_on_c, 6, 54, 127
1, 273875, Note_off_c, 6, 54, 127
1, 273877, Note_on_c, 7, 55, 127
1, 274059, Note_off_c, 10, 57, 127
1, 274061, Note_off_c, 7, 55, 127
1, 274061, Note_off_c, 2, 74, 127
1, 274063, Note_on_c, 11, 70, 127
1, 274063, Note_on_c, 10, 57, 127
1, 274185, Note_off_c, 10, 57, 127
1, 274187, Note_on_c, 7, 55, 127
1, 274309, Note_off_c, 7, 55, 127
1, 274311, Note_on_c, 10, 57, 127
1, 274433, Note_off_c, 10, 57, 127
1, 274435, Note_on_c, 7, 55, 127
1, 274557, Note_off_c, 7, 55, 127
1, 274559, Note_on_c, 10, 57, 127
1, 274681, Note_off_c, 10, 57, 127
1, 274683, Note_on_c, 7, 55, 127
1, 274805, Note_off_c, 7, 55, 127
1, 274805, Note_off_c, 11, 70, 127
1, 274807, Note_on_c, 0, 72, 127
1, 274807, Note_on_c, 10, 57, 127
1, 274929, Note_off_c, 10, 57, 127
1, 274931, Note_on_c, 7, 55, 127
1, 275053, Note_off_c, 7, 55, 127
1, 275055, Note_on_c, 10, 57, 127
1, 275177, Note_off_c, 10, 57, 127
1, 275177, Note_off_c, 0, 72, 127
1, 275179, Note_on_c, 2, 74, 127
1, 275179, Note_on_c, 7, 55, 127
1, 275301, Note_off_c, 7, 55, 127
1, 275303, Note_on_c, 6, 54, 127
1, 275425, Note_off_c, 6, 54, 127
1, 275427, Note_on_c, 7, 55, 127
1, 275547, Note_off_c, 2, 50, 127
1, 275549, Note_off_c, 7, 55, 127
1, 275549, Note_off_c, 2, 74, 127
1, 275551, Note_on_c, 2, 62, 127
1, 275551, Note_on_c, 6, 66, 127
1, 275551, Note_on_c, 10, 57, 127
1, 275551, Note_on_c, 2, 50, 127
1, 276292, Note_off_c, 2, 50, 127
1, 276292, Note_off_c, 10, 57, 127
1, 276292, Note_off_c, 6, 66, 127
1, 276294, Note_on_c, 7, 67, 127
1, 276294, Note_on_c, 11, 46, 127
1, 276294, Note_on_c, 7, 55, 127
1, 276385, Note_off_c, 7, 67, 127
1, 276387, Note_on_c, 6, 66, 127
1, 276478, Note_off_c, 6, 66, 127
1, 276480, Note_on_c, 7, 67, 127
1, 277035, Note_off_c, 11, 46, 127
1, 277037, Note_on_c, 0, 48, 127
1, 277407, Note_off_c, 0, 48, 127
1, 277409, Note_on_c, 2, 50, 127
1, 277779, Note_off_c, 2, 50, 127
1, 277779, Note_off_c, 7, 67, 127
1, 277779, Note_off_c, 7, 55, 127
1, 277781, Note_on_c, 10, 69, 127
1, 277781, Note_on_c, 2, 50, 127
1, 277781, Note_on_c, 6, 42, 127
1, 278513, Note_off_c, 2, 62, 127
1, 278523, Note_off_c, 6, 42, 127
1, 278523, Note_off_c, 10, 69, 127
1, 278525, Note_on_c, 7, 67, 127
1, 278525, Note_on_c, 11, 70, 127
1, 278525, Note_on_c, 7, 43, 127
1, 278895, Note_off_c, 11, 70, 127
1, 278895, Note_off_c, 7, 67, 127
1, 278897, Note_on_c, 10, 69, 127
1, 278897, Note_on_c, 0, 72, 127
1, 279267, Note_off_c, 0, 72, 127
1, 279267, Note_off_c, 10, 69, 127
1, 279267, Note_off_c, 2, 50, 127
1, 279269, Note_on_c, 11, 70, 127
1, 279269, Note_on_c, 2, 74, 127
1, 279269, Note_on_c, 7, 55, 127
1, 280010, Note_off_c, 7, 55, 127
1, 280010, Note_off_c, 2, 74, 127
1, 280010, Note_off_c, 11, 70, 127
1, 280010, Note_off_c, 7, 43, 127
1, 280012, Note_on_c, 10, 69, 127
1, 280012, Note_on_c, 0, 72, 127
1, 280012, Note_on_c, 6, 54, 127
1, 280012, Note_on_c, 0, 48, 127
1, 280382, Note_off_c, 6, 54, 127
1, 280382, Note_off_c, 0, 72, 127
1, 280382, Note_off_c, 10, 69, 127
1, 280384, Note_on_c, 7, 67, 127
1, 280384, Note_on_c, 11, 70, 127
1, 280384, Note_on_c, 7, 55, 127
1, 280748, Note_off_c, 0, 48, 127
1, 280754, Note_off_c, 7, 55, 127
1, 280754, Note_off_c, 11, 70, 127
1, 280754, Note_off_c, 7, 67, 127
1, 280756, Note_on_c, 2, 62, 127
1, 280756, Note_on_c, 6, 66, 127
1, 280756, Note_on_c, 10, 69, 127
1, 280756, Note_on_c, 2, 50, 127
1, 281497, Note_off_c, 2, 62, 127
1, 281499, Note_on_c, 0, 60, 127
1, 281499, Note_on_c, 2, 38, 127
1, 281869, Note_off_c, 10, 69, 127
1, 281871, Note_on_c, 7, 67, 127
1, 282235, Note_off_c, 0, 60, 127
1, 282241, Note_off_c, 7, 67, 127
1, 282241, Note_off_c, 2, 38, 127
1, 282241, Note_off_c, 6, 66, 127
1, 282243, Note_on_c, 11, 58, 127
1, 282243, Note_on_c, 7, 67, 127
1, 282243, Note_on_c, 7, 43, 127
1, 284161, Note_off_c, 2, 50, 127
1, 284176, Note_off_c, 7, 43, 127
1, 284176, Note_off_c, 7, 67, 127
1, 284176, Note_off_c, 11, 58, 127
1, 284520, Note_on_c, 5, 41, 127
1, 284520, Note_on_c, 5, 53, 127
1, 284520, Note_on_c, 2, 62, 127
1, 284520, Note_on_c, 2, 74, 127
1, 284520, Note_on_c, 10, 69, 127
1, 286376, Note_off_c, 10, 69, 127
1, 286376, Note_off_c, 2, 74, 127
1, 286376, Note_off_c, 2, 62, 127
1, 286378, Note_on_c, 3, 75, 127
1, 286748, Note_off_c, 3, 75, 127
1, 286748, Note_off_c, 5, 53, 127
1, 286748, Note_off_c, 5, 41, 127
1, 286750, Note_on_c, 3, 39, 127
1, 286750, Note_on_c, 3, 51, 127
1, 286750, Note_on_c, 7, 67, 127
1, 286750, Note_on_c, 10, 69, 127
1, 286750, Note_on_c, 0, 72, 127
1, 288978, Note_off_c, 0, 72, 127
1, 288978, Note_off_c, 10, 69, 127
1, 288978, Note_off_c, 7, 67, 127
1, 288978, Note_off_c, 3, 51, 127
1, 288978, Note_off_c, 3, 39, 127
1, 289004, Note_on_c, 2, 74, 127
1, 289004, Note_on_c, 10, 69, 127
1, 289004, Note_on_c, 6, 66, 127
1, 289004, Note_on_c, 2, 50, 127
1, 289004, Note_on_c, 2, 38, 127
1, 292875, Note_off_c, 2, 38, 127
1, 292875, Note_off_c, 2, 50, 127
1, 292875, Note_off_c, 6, 66, 127
1, 292875, Note_off_c, 10, 69, 127
1, 292875, Note_off_c, 2, 74, 127
1, 293463, Note_on_c, 11, 70, 127
1, 293463, Note_on_c, 7, 55, 127
1, 293765, Note_off_c, 7, 55, 127
1, 293767, Note_on_c, 10, 57, 127
1, 293866, Note_off_c, 10, 57, 127
1, 293866, Note_off_c, 11, 70, 127
1, 293868, Note_on_c, 11, 70, 127
1, 293868, Note_on_c, 11, 58, 127
1, 294069, Note_off_c, 11, 58, 127
1, 294069, Note_off_c, 11, 70, 127
1, 294071, Note_on_c, 11, 70, 127
1, 294071, Note_on_c, 7, 55, 127
1, 294373, Note_off_c, 7, 55, 127
1, 294373, Note_off_c, 11, 70, 127
1, 294375, Note_on_c, 10, 69, 127
1, 294375, Note_on_c, 10, 57, 127
1, 294474, Note_off_c, 10, 57, 127
1, 294474, Note_off_c, 10, 69, 127
1, 294476, Note_on_c, 7, 67, 127
1, 294476, Note_on_c, 11, 58, 127
1, 294677, Note_off_c, 11, 58, 127
1, 294677, Note_off_c, 7, 67, 127
1, 294679, Note_on_c, 2, 74, 127
1, 294679, Note_on_c, 6, 54, 127
1, 295082, Note_off_c, 2, 74, 127
1, 295084, Note_on_c, 2, 62, 127
1, 295280, Note_off_c, 6, 54, 127
1, 295285, Note_off_c, 2, 62, 127
1, 295287, Note_on_c, 2, 62, 127
1, 295590, Note_on_c, 2, 50, 127
1, 295689, Note_off_c, 2, 50, 127
1, 295689, Note_off_c, 2, 62, 127
1, 295691, Note_on_c, 2, 74, 127
1, 295691, Note_on_c, 4, 52, 127
1, 295790, Note_off_c, 4, 52, 127
1, 295792, Note_on_c, 6, 54, 127
1, 295891, Note_off_c, 6, 54, 127
1, 295891, Note_off_c, 2, 74, 127
1, 295893, Note_on_c, 11, 70, 127
1, 295893, Note_on_c, 7, 55, 127
1, 296195, Note_off_c, 7, 55, 127
1, 296197, Note_on_c, 10, 57, 127
1, 296296, Note_off_c, 10, 57, 127
1, 296296, Note_off_c, 11, 70, 127
1, 296298, Note_on_c, 11, 70, 127
1, 296298, Note_on_c, 11, 58, 127
1, 296499, Note_off_c, 11, 58, 127
1, 296499, Note_off_c, 11, 70, 127
1, 296501, Note_on_c, 11, 70, 127
1, 296501, Note_on_c, 7, 55, 127
1, 296803, Note_off_c, 7, 55, 127
1, 296803, Note_off_c, 11, 70, 127
1, 296805, Note_on_c, 10, 69, 127
1, 296805, Note_on_c, 10, 57, 127
1, 296904, Note_off_c, 10, 57, 127
1, 296904, Note_off_c, 10, 69, 127
1, 296906, Note_on_c, 7, 67, 127
1, 296906, Note_on_c, 11, 58, 127
1, 297107, Note_off_c, 11, 58, 127
1, 297107, Note_off_c, 7, 67, 127
1, 297109, Note_on_c, 2, 74, 127
1, 297109, Note_on_c, 6, 54, 127
1, 297512, Note_off_c, 2, 74, 127
1, 297514, Note_on_c, 2, 62, 127
1, 297710, Note_off_c, 6, 54, 127
1, 297715, Note_off_c, 2, 62, 127
1, 297717, Note_on_c, 2, 62, 127
1, 298120, Note_off_c, 2, 62, 127
1, 298122, Note_on_c, 2, 74, 127
1, 298122, Note_on_c, 5, 53, 127
1, 298323, Note_off_c, 5, 53, 127
1, 298323, Note_off_c, 2, 74, 127
1, 298325, Note_on_c, 7, 79, 127
1, 298325, Note_on_c, 3, 51, 127
1, 298627, Note_off_c, 3, 51, 127
1, 298627, Note_off_c, 7, 79, 127
1, 298629, Note_on_c, 10, 81, 127
1, 298629, Note_on_c, 5, 53, 127
1, 298728, Note_off_c, 5, 53, 127
1, 298728, Note_off_c, 10, 81, 127
1, 298730, Note_on_c, 11, 82, 127
1, 298730, Note_on_c, 2, 50, 127
1, 298931, Note_off_c, 2, 50, 127
1, 298931, Note_off_c, 11, 82, 127
1, 298933, Note_on_c, 10, 81, 127
1, 298933, Note_on_c, 0, 48, 127
1, 299235, Note_off_c, 0, 48, 127
1, 299235, Note_off_c, 10, 81, 127
1, 299237, Note_on_c, 11, 82, 127
1, 299237, Note_on_c, 2, 50, 127
1, 299336, Note_off_c, 2, 50, 127
1, 299336, Note_off_c, 11, 82, 127
1, 299338, Note_on_c, 7, 79, 127
1, 299338, Note_on_c, 3, 51, 127
1, 299539, Note_off_c, 3, 51, 127
1, 299539, Note_off_c, 7, 79, 127
1, 299541, Note_on_c, 6, 78, 127
1, 299541, Note_on_c, 2, 50, 127
1, 299944, Note_off_c, 6, 78, 127
1, 299946, Note_on_c, 2, 74, 127
1, 300142, Note_off_c, 2, 50, 127
1, 300147, Note_off_c, 2, 74, 127
1, 300149, Note_on_c, 2, 74, 127
1, 300452, Note_on_c, 11, 46, 127
1, 300551, Note_off_c, 11, 46, 127
1, 300551, Note_off_c, 2, 74, 127
1, 300553, Note_on_c, 2, 74, 127
1, 300553, Note_on_c, 0, 48, 127
1, 300652, Note_off_c, 0, 48, 127
1, 300654, Note_on_c, 2, 50, 127
1, 300753, Note_off_c, 2, 50, 127
1, 300753, Note_off_c, 2, 74, 127
1, 300755, Note_on_c, 7, 79, 127
1, 300755, Note_on_c, 3, 51, 127
1, 301057, Note_off_c, 3, 51, 127
1, 301057, Note_off_c, 7, 79, 127
1, 301059, Note_on_c, 10, 81, 127
1, 301059, Note_on_c, 5, 53, 127
1, 301158, Note_off_c, 5, 53, 127
1, 301158, Note_off_c, 10, 81, 127
1, 301160, Note_on_c, 11, 82, 127
1, 301160, Note_on_c, 2, 50, 127
1, 301361, Note_off_c, 2, 50, 127
1, 301361, Note_off_c, 11, 82, 127
1, 301363, Note_on_c, 10, 81, 127
1, 301363, Note_on_c, 0, 48, 127
1, 301665, Note_off_c, 0, 48, 127
1, 301665, Note_off_c, 10, 81, 127
1, 301667, Note_on_c, 11, 82, 127
1, 301667, Note_on_c, 2, 50, 127
1, 301766, Note_off_c, 2, 50, 127
1, 301766, Note_off_c, 11, 82, 127
1, 301768, Note_on_c, 7, 79, 127
1, 301768, Note_on_c, 3, 51, 127
1, 301969, Note_off_c, 3, 51, 127
1, 301969, Note_off_c, 7, 79, 127
1, 301971, Note_on_c, 6, 78, 127
1, 301971, Note_on_c, 2, 50, 127
1, 302374, Note_off_c, 6, 78, 127
1, 302376, Note_on_c, 2, 74, 127
1, 302572, Note_off_c, 2, 50, 127
1, 302577, Note_off_c, 2, 74, 127
1, 302579, Note_on_c, 2, 74, 127
1, 302882, Note_on_c, 2, 50, 127
1, 302981, Note_off_c, 2, 50, 127
1, 302981, Note_off_c, 2, 74, 127
1, 302983, Note_on_c, 7, 79, 127
1, 302983, Note_on_c, 4, 52, 127
1, 303082, Note_off_c, 4, 52, 127
1, 303082, Note_off_c, 7, 79, 127
1, 303084, Note_on_c, 10, 81, 127
1, 303084, Note_on_c, 6, 54, 127
1, 303183, Note_off_c, 6, 54, 127
1, 303183, Note_off_c, 10, 81, 127
1, 303185, Note_on_c, 11, 82, 127
1, 303185, Note_on_c, 7, 55, 127
1, 303487, Note_off_c, 7, 55, 127
1, 303487, Note_off_c, 11, 82, 127
1, 303489, Note_on_c, 10, 81, 127
1, 303489, Note_on_c, 11, 46, 127
1, 303588, Note_off_c, 11, 46, 127
1, 303588, Note_off_c, 10, 81, 127
1, 303590, Note_on_c, 7, 79, 127
1, 303590, Note_on_c, 0, 48, 127
1, 303791, Note_off_c, 0, 48, 127
1, 303791, Note_off_c, 7, 79, 127
1, 303793, Note_on_c, 7, 79, 127
1, 303793, Note_on_c, 2, 50, 127
1, 304095, Note_off_c, 2, 50, 127
1, 304095, Note_off_c, 7, 79, 127
1, 304097, Note_on_c, 10, 81, 127
1, 304097, Note_on_c, 0, 48, 127
1, 304196, Note_off_c, 0, 48, 127
1, 304196, Note_off_c, 10, 81, 127
1, 304198, Note_on_c, 6, 78, 127
1, 304198, Note_on_c, 2, 50, 127
1, 304399, Note_off_c, 2, 50, 127
1, 304399, Note_off_c, 6, 78, 127
1, 304401, Note_on_c, 7, 79, 127
1, 304401, Note_on_c, 3, 39, 127
1, 304804, Note_off_c, 7, 79, 127
1, 304806, Note_on_c, 7, 67, 127
1, 305002, Note_off_c, 3, 39, 127
1, 305007, Note_off_c, 7, 67, 127
1, 305009, Note_on_c, 7, 67, 127
1, 305312, Note_on_c, 3, 51, 127
1, 305411, Note_off_c, 3, 51, 127
1, 305411, Note_off_c, 7, 67, 127
1, 305413, Note_on_c, 7, 79, 127
1, 305413, Note_on_c, 2, 50, 127
1, 305512, Note_off_c, 2, 50, 127
1, 305512, Note_off_c, 7, 79, 127
1, 305514, Note_on_c, 10, 81, 127
1, 305514, Note_on_c, 0, 48, 127
1, 305613, Note_off_c, 0, 48, 127
1, 305613, Note_off_c, 10, 81, 127
1, 305615, Note_on_c, 11, 82, 127
1, 305615, Note_on_c, 11, 46, 127
1, 305917, Note_off_c, 11, 46, 127
1, 305917, Note_off_c, 11, 82, 127
1, 305919, Note_on_c, 10, 81, 127
1, 305919, Note_on_c, 11, 58, 127
1, 306018, Note_off_c, 11, 58, 127
1, 306018, Note_off_c, 10, 81, 127
1, 306020, Note_on_c, 7, 79, 127
1, 306020, Note_on_c, 0, 60, 127
1, 306221, Note_off_c, 0, 60, 127
1, 306221, Note_off_c, 7, 79, 127
1, 306223, Note_on_c, 7, 79, 127
1, 306223, Note_on_c, 2, 62, 127
1, 306525, Note_off_c, 2, 62, 127
1, 306525, Note_off_c, 7, 79, 127
1, 306527, Note_on_c, 10, 81, 127
1, 306527, Note_on_c, 0, 60, 127
1, 306626, Note_off_c, 0, 60, 127
1, 306626, Note_off_c, 10, 81, 127
1, 306628, Note_on_c, 6, 78, 127
1, 306628, Note_on_c, 2, 62, 127
1, 306829, Note_off_c, 2, 62, 127
1, 306829, Note_off_c, 6, 78, 127
1, 306831, Note_on_c, 7, 79, 127
1, 306831, Note_on_c, 7, 55, 127
1, 307133, Note_off_c, 7, 55, 127
1, 307135, Note_on_c, 2, 50, 127
1, 307234, Note_off_c, 2, 50, 127
1, 307234, Note_off_c, 7, 79, 127
1, 307236, Note_on_c, 7, 67, 127
1, 307236, Note_on_c, 11, 46, 127
1, 307437, Note_off_c, 11, 46, 127
1, 307437, Note_off_c, 7, 67, 127
1, 307439, Note_on_c, 7, 67, 127
1, 307439, Note_on_c, 7, 43, 127
1, 307842, Note_off_c, 7, 67, 127
1, 307844, Note_on_c, 7, 79, 127
1, 308045, Note_off_c, 7, 79, 127
1, 308045, Note_off_c, 7, 43, 127
1, 308047, Note_on_c, 2, 74, 127
1, 308047, Note_on_c, 11, 58, 127
1, 308349, Note_off_c, 11, 58, 127
1, 308351, Note_on_c, 0, 60, 127
1, 308450, Note_off_c, 0, 60, 127
1, 308450, Note_off_c, 2, 74, 127
1, 308452, Note_on_c, 2, 74, 127
1, 308452, Note_on_c, 2, 62, 127
1, 308653, Note_off_c, 2, 62, 127
1, 308653, Note_off_c, 2, 74, 127
1, 308655, Note_on_c, 2, 74, 127
1, 308655, Note_on_c, 11, 58, 127
1, 308957, Note_off_c, 11, 58, 127
1, 308957, Note_off_c, 2, 74, 127
1, 308959, Note_on_c, 0, 72, 127
1, 308959, Note_on_c, 0, 60, 127
1, 309058, Note_off_c, 0, 60, 127
1, 309058, Note_off_c, 0, 72, 127
1, 309060, Note_on_c, 11, 70, 127
1, 309060, Note_on_c, 2, 62, 127
1, 309261, Note_off_c, 2, 62, 127
1, 309261, Note_off_c, 11, 70, 127
1, 309263, Note_on_c, 5, 77, 127
1, 309263, Note_on_c, 10, 57, 127
1, 309666, Note_off_c, 5, 77, 127
1, 309668, Note_on_c, 5, 65, 127
1, 309869, Note_off_c, 5, 65, 127
1, 309871, Note_on_c, 5, 65, 127
1, 310023, Note_off_c, 10, 57, 127
1, 310175, Note_on_c, 5, 53, 127
1, 310274, Note_off_c, 5, 53, 127
1, 310274, Note_off_c, 5, 65, 127
1, 310276, Note_on_c, 5, 77, 127
1, 310276, Note_on_c, 7, 55, 127
1, 310375, Note_off_c, 7, 55, 127
1, 310377, Note_on_c, 10, 57, 127
1, 310476, Note_off_c, 10, 57, 127
1, 310476, Note_off_c, 5, 77, 127
1, 310478, Note_on_c, 2, 74, 127
1, 310478, Note_on_c, 11, 58, 127
1, 310780, Note_off_c, 11, 58, 127
1, 310782, Note_on_c, 0, 60, 127
1, 310881, Note_off_c, 0, 60, 127
1, 310881, Note_off_c, 2, 74, 127
1, 310883, Note_on_c, 2, 74, 127
1, 310883, Note_on_c, 2, 62, 127
1, 311084, Note_off_c, 2, 62, 127
1, 311084, Note_off_c, 2, 74, 127
1, 311086, Note_on_c, 2, 74, 127
1, 311086, Note_on_c, 11, 58, 127
1, 311388, Note_off_c, 11, 58, 127
1, 311388, Note_off_c, 2, 74, 127
1, 311390, Note_on_c, 0, 72, 127
1, 311390, Note_on_c, 0, 60, 127
1, 311489, Note_off_c, 0, 60, 127
1, 311489, Note_off_c, 0, 72, 127
1, 311491, Note_on_c, 11, 70, 127
1, 311491, Note_on_c, 2, 62, 127
1, 311692, Note_off_c, 2, 62, 127
1, 311692, Note_off_c, 11, 70, 127
1, 311694, Note_on_c, 5, 77, 127
1, 311694, Note_on_c, 10, 57, 127
1, 312097, Note_off_c, 5, 77, 127
1, 312099, Note_on_c, 5, 65, 127
1, 312300, Note_off_c, 5, 65, 127
1, 312302, Note_on_c, 5, 65, 127
1, 312454, Note_off_c, 10, 57, 127
1, 312606, Note_on_c, 5, 53, 127
1, 312705, Note_off_c, 5, 53, 127
1, 312705, Note_off_c, 5, 65, 127
1, 312707, Note_on_c, 5, 77, 127
1, 312707, Note_on_c, 7, 55, 127
1, 312806, Note_off_c, 7, 55, 127
1, 312808, Note_on_c, 10, 57, 127
1, 312907, Note_off_c, 10, 57, 127
1, 312907, Note_off_c, 5, 77, 127
1, 312909, Note_on_c, 2, 74, 127
1, 312909, Note_on_c, 11, 58, 127
1, 313211, Note_off_c, 11, 58, 127
1, 313211, Note_off_c, 2, 74, 127
1, 313213, Note_on_c, 0, 72, 127
1, 313213, Note_on_c, 2, 50, 127
1, 313312, Note_off_c, 2, 50, 127
1, 313312, Note_off_c, 0, 72, 127
1, 313314, Note_on_c, 11, 70, 127
1, 313314, Note_on_c, 3, 51, 127
1, 313515, Note_off_c, 3, 51, 127
1, 313515, Note_off_c, 11, 70, 127
1, 313517, Note_on_c, 11, 70, 127
1, 313517, Note_on_c, 5, 53, 127
1, 313819, Note_off_c, 5, 53, 127
1, 313819, Note_off_c, 11, 70, 127
1, 313821, Note_on_c, 0, 72, 127
1, 313821, Note_on_c, 3, 51, 127
1, 313920, Note_off_c, 3, 51, 127
1, 313920, Note_off_c, 0, 72, 127
1, 313922, Note_on_c, 10, 69, 127
1, 313922, Note_on_c, 5, 53, 127
1, 314123, Note_off_c, 5, 53, 127
1, 314123, Note_off_c, 10, 69, 127
1, 314125, Note_on_c, 11, 70, 127
1, 314125, Note_on_c, 11, 58, 127
1, 314215, Note_off_c, 11, 70, 127
1, 314217, Note_on_c, 10, 69, 127
1, 314307, Note_off_c, 10, 69, 127
1, 314309, Note_on_c, 11, 70, 127
1, 314427, Note_off_c, 11, 58, 127
1, 314429, Note_on_c, 5, 53, 127
1, 314528, Note_off_c, 5, 53, 127
1, 314530, Note_on_c, 2, 50, 127
1, 314731, Note_off_c, 2, 50, 127
1, 314733, Note_on_c, 11, 46, 127
1, 314910, Note_off_c, 11, 70, 127
1, 315136, Note_off_c, 11, 46, 127
1, 315138, Note_on_c, 7, 79, 127
1, 315138, Note_on_c, 12, 59, 127
1, 315339, Note_off_c, 12, 59, 127
1, 315339, Note_off_c, 7, 79, 127
1, 315341, Note_on_c, 3, 75, 127
1, 315341, Note_on_c, 0, 60, 127
1, 315643, Note_off_c, 0, 60, 127
1, 315645, Note_on_c, 2, 62, 127
1, 315744, Note_off_c, 2, 62, 127
1, 315744, Note_off_c, 3, 75, 127
1, 315746, Note_on_c, 3, 75, 127
1, 315746, Note_on_c, 3, 63, 127
1, 315947, Note_off_c, 3, 63, 127
1, 315947, Note_off_c, 3, 75, 127
1, 315949, Note_on_c, 3, 75, 127
1, 315949, Note_on_c, 0, 60, 127
1, 316251, Note_off_c, 0, 60, 127
1, 316251, Note_off_c, 3, 75, 127
1, 316253, Note_on_c, 2, 74, 127
1, 316253, Note_on_c, 2, 62, 127
1, 316352, Note_off_c, 2, 62, 127
1, 316352, Note_off_c, 2, 74, 127
1, 316354, Note_on_c, 0, 72, 127
1, 316354, Note_on_c, 3, 63, 127
1, 316555, Note_off_c, 3, 63, 127
1, 316555, Note_off_c, 0, 72, 127
1, 316557, Note_on_c, 7, 79, 127
1, 316557, Note_on_c, 12, 59, 127
1, 316960, Note_off_c, 7, 79, 127
1, 316962, Note_on_c, 7, 67, 127
1, 317158, Note_off_c, 12, 59, 127
1, 317163, Note_off_c, 7, 67, 127
1, 317165, Note_on_c, 7, 67, 127
1, 317468, Note_on_c, 7, 55, 127
1, 317567, Note_off_c, 7, 55, 127
1, 317567, Note_off_c, 7, 67, 127
1, 317569, Note_on_c, 7, 79, 127
1, 317569, Note_on_c, 10, 57, 127
1, 317668, Note_off_c, 10, 57, 127
1, 317670, Note_on_c, 12, 59, 127
1, 317769, Note_off_c, 12, 59, 127
1, 317769, Note_off_c, 7, 79, 127
1, 317771, Note_on_c, 3, 75, 127
1, 317771, Note_on_c, 0, 60, 127
1, 318073, Note_off_c, 0, 60, 127
1, 318075, Note_on_c, 2, 62, 127
1, 318174, Note_off_c, 2, 62, 127
1, 318174, Note_off_c, 3, 75, 127
1, 318176, Note_on_c, 3, 75, 127
1, 318176, Note_on_c, 3, 63, 127
1, 318377, Note_off_c, 3, 63, 127
1, 318377, Note_off_c, 3, 75, 127
1, 318379, Note_on_c, 3, 75, 127
1, 318379, Note_on_c, 0, 60, 127
1, 318681, Note_off_c, 0, 60, 127
1, 318681, Note_off_c, 3, 75, 127
1, 318683, Note_on_c, 2, 74, 127
1, 318683, Note_on_c, 2, 62, 127
1, 318782, Note_off_c, 2, 62, 127
1, 318782, Note_off_c, 2, 74, 127
1, 318784, Note_on_c, 0, 72, 127
1, 318784, Note_on_c, 3, 63, 127
1, 318985, Note_off_c, 3, 63, 127
1, 318985, Note_off_c, 0, 72, 127
1, 318987, Note_on_c, 7, 79, 127
1, 318987, Note_on_c, 12, 59, 127
1, 319390, Note_off_c, 7, 79, 127
1, 319392, Note_on_c, 7, 67, 127
1, 319588, Note_off_c, 12, 59, 127
1, 319593, Note_off_c, 7, 67, 127
1, 319595, Note_on_c, 7, 67, 127
1, 319898, Note_on_c, 7, 55, 127
1, 319997, Note_off_c, 7, 55, 127
1, 319997, Note_off_c, 7, 67, 127
1, 319999, Note_on_c, 7, 79, 127
1, 319999, Note_on_c, 10, 57, 127
1, 320098, Note_off_c, 10, 57, 127
1, 320100, Note_on_c, 12, 59, 127
1, 320199, Note_off_c, 12, 59, 127
1, 320199, Note_off_c, 7, 79, 127
1, 320201, Note_on_c, 3, 75, 127
1, 320201, Note_on_c, 0, 60, 127
1, 320503, Note_off_c, 0, 60, 127
1, 320503, Note_off_c, 3, 75, 127
1, 320505, Note_on_c, 2, 74, 127
1, 320505, Note_on_c, 3, 51, 127
1, 320604, Note_off_c, 3, 51, 127
1, 320604, Note_off_c, 2, 74, 127
1, 320606, Note_on_c, 0, 72, 127
1, 320606, Note_on_c, 5, 53, 127
1, 320807, Note_off_c, 5, 53, 127
1, 320807, Note_off_c, 0, 72, 127
1, 320809, Note_on_c, 0, 72, 127
1, 320809, Note_on_c, 7, 55, 127
1, 321111, Note_off_c, 7, 55, 127
1, 321111, Note_off_c, 0, 72, 127
1, 321113, Note_on_c, 2, 74, 127
1, 321113, Note_on_c, 5, 53, 127
1, 321212, Note_off_c, 5, 53, 127
1, 321212, Note_off_c, 2, 74, 127
1, 321214, Note_on_c, 12, 71, 127
1, 321214, Note_on_c, 7, 55, 127
1, 321415, Note_off_c, 7, 55, 127
1, 321415, Note_off_c, 12, 71, 127
1, 321417, Note_on_c, 0, 72, 127
1, 321417, Note_on_c, 0, 60, 127
1, 321719, Note_off_c, 0, 60, 127
1, 321721, Note_on_c, 7, 55, 127
1, 321820, Note_off_c, 7, 55, 127
1, 321822, Note_on_c, 3, 51, 127
1, 322018, Note_off_c, 0, 72, 127
1, 322023, Note_off_c, 3, 51, 127
1, 322025, Note_on_c, 0, 48, 127
1, 322428, Note_off_c, 0, 48, 127
1, 322430, Note_on_c, 10, 81, 127
1, 322430, Note_on_c, 1, 61, 127
1, 322631, Note_off_c, 1, 61, 127
1, 322631, Note_off_c, 10, 81, 127
1, 322633, Note_on_c, 5, 77, 127
1, 322633, Note_on_c, 2, 62, 127
1, 322935, Note_off_c, 2, 62, 127
1, 322935, Note_off_c, 5, 77, 127
1, 322937, Note_on_c, 4, 76, 127
1, 322937, Note_on_c, 5, 53, 127
1, 323036, Note_off_c, 5, 53, 127
1, 323036, Note_off_c, 4, 76, 127
1, 323038, Note_on_c, 2, 74, 127
1, 323038, Note_on_c, 7, 55, 127
1, 323239, Note_off_c, 7, 55, 127
1, 323239, Note_off_c, 2, 74, 127
1, 323241, Note_on_c, 2, 74, 127
1, 323241, Note_on_c, 10, 57, 127
1, 323543, Note_off_c, 10, 57, 127
1, 323543, Note_off_c, 2, 74, 127
1, 323545, Note_on_c, 4, 76, 127
1, 323545, Note_on_c, 7, 55, 127
1, 323644, Note_off_c, 7, 55, 127
1, 323644, Note_off_c, 4, 76, 127
1, 323646, Note_on_c, 1, 73, 127
1, 323646, Note_on_c, 10, 57, 127
1, 323847, Note_off_c, 10, 57, 127
1, 323847, Note_off_c, 1, 73, 127
1, 323849, Note_on_c, 2, 74, 127
1, 323849, Note_on_c, 2, 62, 127
1, 324151, Note_off_c, 2, 62, 127
1, 324153, Note_on_c, 10, 57, 127
1, 324252, Note_off_c, 10, 57, 127
1, 324252, Note_off_c, 2, 74, 127
1, 324254, Note_on_c, 2, 62, 127
1, 324254, Note_on_c, 5, 53, 127
1, 324455, Note_off_c, 5, 53, 127
1, 324455, Note_off_c, 2, 62, 127
1, 324457, Note_on_c, 2, 62, 127
1, 324457, Note_on_c, 2, 50, 127
1, 324760, Note_on_c, 2, 74, 127
1, 324859, Note_off_c, 2, 74, 127
1, 324859, Note_off_c, 2, 50, 127
1, 324859, Note_off_c, 2, 62, 127
1, 324861, Note_on_c, 4, 76, 127
1, 324960, Note_off_c, 4, 76, 127
1, 324962, Note_on_c, 6, 78, 127
1, 325061, Note_off_c, 6, 78, 127
1, 325063, Note_on_c, 7, 79, 127
1, 325264, Note_off_c, 7, 79, 127
1, 325266, Note_on_c, 11, 82, 127
1, 325367, Note_on_c, 2, 50, 127
1, 325466, Note_off_c, 2, 50, 127
1, 325466, Note_off_c, 11, 82, 127
1, 325468, Note_on_c, 7, 79, 127
1, 325468, Note_on_c, 4, 52, 127
1, 325567, Note_off_c, 4, 52, 127
1, 325569, Note_on_c, 6, 54, 127
1, 325668, Note_off_c, 6, 54, 127
1, 325668, Note_off_c, 7, 79, 127
1, 325670, Note_on_c, 2, 74, 127
1, 325670, Note_on_c, 7, 55, 127
1, 325871, Note_off_c, 7, 55, 127
1, 325871, Note_off_c, 2, 74, 127
1, 325873, Note_on_c, 7, 79, 127
1, 325873, Note_on_c, 11, 58, 127
1, 326074, Note_off_c, 11, 58, 127
1, 326074, Note_off_c, 7, 79, 127
1, 326076, Note_on_c, 2, 74, 127
1, 326076, Note_on_c, 7, 55, 127
1, 326277, Note_off_c, 7, 55, 127
1, 326277, Note_off_c, 2, 74, 127
1, 326279, Note_on_c, 11, 70, 127
1, 326279, Note_on_c, 2, 50, 127
1, 326480, Note_off_c, 2, 50, 127
1, 326480, Note_off_c, 11, 70, 127
1, 326482, Note_on_c, 2, 74, 127
1, 326482, Note_on_c, 7, 55, 127
1, 326683, Note_off_c, 7, 55, 127
1, 326683, Note_off_c, 2, 74, 127
1, 326685, Note_on_c, 11, 70, 127
1, 326685, Note_on_c, 2, 50, 127
1, 326886, Note_off_c, 2, 50, 127
1, 326886, Note_off_c, 11, 70, 127
1, 326888, Note_on_c, 7, 67, 127
1, 326888, Note_on_c, 11, 46, 127
1, 327089, Note_off_c, 11, 46, 127
1, 327091, Note_on_c, 2, 50, 127
1, 327142, Note_off_c, 7, 67, 127
1, 327193, Note_on_c, 0, 72, 127
1, 327292, Note_off_c, 0, 72, 127
1, 327292, Note_off_c, 2, 50, 127
1, 327294, Note_on_c, 2, 74, 127
1, 327294, Note_on_c, 11, 46, 127
1, 327393, Note_off_c, 2, 74, 127
1, 327395, Note_on_c, 4, 76, 127
1, 327494, Note_off_c, 4, 76, 127
1, 327494, Note_off_c, 11, 46, 127
1, 327496, Note_on_c, 5, 77, 127
1, 327496, Note_on_c, 10, 45, 127
1, 327697, Note_off_c, 5, 77, 127
1, 327699, Note_on_c, 10, 81, 127
1, 327789, Note_off_c, 10, 45, 127
1, 327800, Note_on_c, 0, 48, 127
1, 327899, Note_off_c, 0, 48, 127
1, 327899, Note_off_c, 10, 81, 127
1, 327901, Note_on_c, 5, 77, 127
1, 327901, Note_on_c, 2, 50, 127
1, 328000, Note_off_c, 2, 50, 127
1, 328002, Note_on_c, 4, 52, 127
1, 328101, Note_off_c, 4, 52, 127
1, 328101, Note_off_c, 5, 77, 127
1, 328103, Note_on_c, 0, 72, 127
1, 328103, Note_on_c, 5, 53, 127
1, 328304, Note_off_c, 5, 53, 127
1, 328304, Note_off_c, 0, 72, 127
1, 328306, Note_on_c, 5, 77, 127
1, 328306, Note_on_c, 10, 57, 127
1, 328507, Note_off_c, 10, 57, 127
1, 328507, Note_off_c, 5, 77, 127
1, 328509, Note_on_c, 0, 72, 127
1, 328509, Note_on_c, 5, 53, 127
1, 328710, Note_off_c, 5, 53, 127
1, 328710, Note_off_c, 0, 72, 127
1, 328712, Note_on_c, 10, 69, 127
1, 328712, Note_on_c, 0, 48, 127
1, 328913, Note_off_c, 0, 48, 127
1, 328913, Note_off_c, 10, 69, 127
1, 328915, Note_on_c, 0, 72, 127
1, 328915, Note_on_c, 5, 53, 127
1, 329116, Note_off_c, 5, 53, 127
1, 329116, Note_off_c, 0, 72, 127
1, 329118, Note_on_c, 10, 69, 127
1, 329118, Note_on_c, 0, 48, 127
1, 329319, Note_off_c, 0, 48, 127
1, 329319, Note_off_c, 10, 69, 127
1, 329321, Note_on_c, 5, 65, 127
1, 329321, Note_on_c, 10, 45, 127
1, 329522, Note_off_c, 10, 45, 127
1, 329524, Note_on_c, 0, 48, 127
1, 329575, Note_off_c, 5, 65, 127
1, 329626, Note_on_c, 11, 70, 127
1, 329725, Note_off_c, 11, 70, 127
1, 329725, Note_off_c, 0, 48, 127
1, 329727, Note_on_c, 0, 72, 127
1, 329727, Note_on_c, 10, 45, 127
1, 329826, Note_off_c, 0, 72, 127
1, 329828, Note_on_c, 2, 74, 127
1, 329927, Note_off_c, 2, 74, 127
1, 329927, Note_off_c, 10, 45, 127
1, 329929, Note_on_c, 3, 75, 127
1, 329929, Note_on_c, 7, 43, 127
1, 330130, Note_off_c, 3, 75, 127
1, 330132, Note_on_c, 7, 79, 127
1, 330222, Note_off_c, 7, 43, 127
1, 330233, Note_on_c, 11, 46, 127
1, 330332, Note_off_c, 11, 46, 127
1, 330332, Note_off_c, 7, 79, 127
1, 330334, Note_on_c, 3, 75, 127
1, 330334, Note_on_c, 0, 48, 127
1, 330433, Note_off_c, 0, 48, 127
1, 330435, Note_on_c, 2, 50, 127
1, 330534, Note_off_c, 2, 50, 127
1, 330534, Note_off_c, 3, 75, 127
1, 330536, Note_on_c, 11, 70, 127
1, 330536, Note_on_c, 3, 51, 127
1, 330737, Note_off_c, 3, 51, 127
1, 330737, Note_off_c, 11, 70, 127
1, 330739, Note_on_c, 3, 75, 127
1, 330739, Note_on_c, 7, 55, 127
1, 330940, Note_off_c, 7, 55, 127
1, 330940, Note_off_c, 3, 75, 127
1, 330942, Note_on_c, 11, 70, 127
1, 330942, Note_on_c, 3, 51, 127
1, 331143, Note_off_c, 3, 51, 127
1, 331143, Note_off_c, 11, 70, 127
1, 331145, Note_on_c, 7, 67, 127
1, 331145, Note_on_c, 11, 46, 127
1, 331346, Note_off_c, 11, 46, 127
1, 331346, Note_off_c, 7, 67, 127
1, 331348, Note_on_c, 11, 70, 127
1, 331348, Note_on_c, 3, 51, 127
1, 331549, Note_off_c, 3, 51, 127
1, 331549, Note_off_c, 11, 70, 127
1, 331551, Note_on_c, 7, 67, 127
1, 331551, Note_on_c, 11, 46, 127
1, 331752, Note_off_c, 11, 46, 127
1, 331752, Note_off_c, 7, 67, 127
1, 331754, Note_on_c, 3, 63, 127
1, 331754, Note_on_c, 7, 43, 127
1, 331955, Note_off_c, 7, 43, 127
1, 331957, Note_on_c, 11, 46, 127
1, 332158, Note_off_c, 11, 46, 127
1, 332160, Note_on_c, 3, 75, 127
1, 332160, Note_on_c, 7, 43, 127
1, 332356, Note_off_c, 3, 63, 127
1, 332361, Note_off_c, 7, 43, 127
1, 332361, Note_off_c, 3, 75, 127
1, 332363, Note_on_c, 6, 66, 127
1, 332363, Note_on_c, 10, 45, 127
1, 332564, Note_off_c, 6, 66, 127
1, 332566, Note_on_c, 7, 67, 127
1, 332767, Note_off_c, 7, 67, 127
1, 332767, Note_off_c, 10, 45, 127
1, 332769, Note_on_c, 6, 66, 127
1, 332970, Note_off_c, 6, 66, 127
1, 332972, Note_on_c, 7, 67, 127
1, 332972, Note_on_c, 11, 46, 127
1, 333173, Note_off_c, 7, 67, 127
1, 333175, Note_on_c, 10, 69, 127
1, 333376, Note_off_c, 10, 69, 127
1, 333376, Note_off_c, 11, 46, 127
1, 333378, Note_on_c, 7, 67, 127
1, 333579, Note_off_c, 7, 67, 127
1, 333581, Note_on_c, 10, 69, 127
1, 333581, Note_on_c, 6, 42, 127
1, 333782, Note_off_c, 6, 42, 127
1, 333782, Note_off_c, 10, 69, 127
1, 333784, Note_on_c, 11, 70, 127
1, 333784, Note_on_c, 7, 43, 127
1, 333985, Note_off_c, 7, 43, 127
1, 333985, Note_off_c, 11, 70, 127
1, 333987, Note_on_c, 10, 69, 127
1, 333987, Note_on_c, 6, 42, 127
1, 334188, Note_off_c, 6, 42, 127
1, 334188, Note_off_c, 10, 69, 127
1, 334190, Note_on_c, 11, 70, 127
1, 334190, Note_on_c, 7, 43, 127
1, 334391, Note_off_c, 7, 43, 127
1, 334391, Note_off_c, 11, 70, 127
1, 334393, Note_on_c, 0, 72, 127
1, 334393, Note_on_c, 10, 45, 127
1, 334594, Note_off_c, 10, 45, 127
1, 334594, Note_off_c, 0, 72, 127
1, 334596, Note_on_c, 11, 70, 127
1, 334596, Note_on_c, 7, 43, 127
1, 334797, Note_off_c, 7, 43, 127
1, 334797, Note_off_c, 11, 70, 127
1, 334799, Note_on_c, 0, 72, 127
1, 334799, Note_on_c, 10, 45, 127
1, 335000, Note_off_c, 10, 45, 127
1, 335000, Note_off_c, 0, 72, 127
1, 335002, Note_on_c, 2, 74, 127
1, 335002, Note_on_c, 11, 46, 127
1, 335203, Note_off_c, 11, 46, 127
1, 335203, Note_off_c, 2, 74, 127
1, 335205, Note_on_c, 0, 72, 127
1, 335205, Note_on_c, 10, 45, 127
1, 335406, Note_off_c, 10, 45, 127
1, 335406, Note_off_c, 0, 72, 127
1, 335408, Note_on_c, 2, 74, 127
1, 335408, Note_on_c, 11, 46, 127
1, 335609, Note_off_c, 11, 46, 127
1, 335609, Note_off_c, 2, 74, 127
1, 335611, Note_on_c, 4, 76, 127
1, 335611, Note_on_c, 0, 48, 127
1, 335812, Note_off_c, 0, 48, 127
1, 335812, Note_off_c, 4, 76, 127
1, 335814, Note_on_c, 2, 74, 127
1, 335814, Note_on_c, 11, 46, 127
1, 336015, Note_off_c, 11, 46, 127
1, 336015, Note_off_c, 2, 74, 127
1, 336017, Note_on_c, 4, 76, 127
1, 336017, Note_on_c, 0, 48, 127
1, 336218, Note_off_c, 0, 48, 127
1, 336218, Note_off_c, 4, 76, 127
1, 336220, Note_on_c, 6, 78, 127
1, 336220, Note_on_c, 2, 50, 127
1, 336421, Note_off_c, 2, 50, 127
1, 336421, Note_off_c, 6, 78, 127
1, 336423, Note_on_c, 4, 76, 127
1, 336423, Note_on_c, 0, 48, 127
1, 336612, Note_off_c, 0, 48, 127
1, 336623, Note_off_c, 4, 76, 127
1, 336625, Note_on_c, 6, 78, 127
1, 336625, Note_on_c, 0, 48, 127
1, 336826, Note_off_c, 0, 48, 127
1, 336826, Note_off_c, 6, 78, 127
1, 336828, Note_on_c, 7, 79, 127
1, 336828, Note_on_c, 11, 46, 127
1, 337029, Note_off_c, 11, 46, 127
1, 337029, Note_off_c, 7, 79, 127
1, 337031, Note_on_c, 6, 78, 127
1, 337031, Note_on_c, 10, 45, 127
1, 337232, Note_off_c, 10, 45, 127
1, 337232, Note_off_c, 6, 78, 127
1, 337234, Note_on_c, 7, 79, 127
1, 337234, Note_on_c, 11, 46, 127
1, 337435, Note_off_c, 11, 46, 127
1, 337435, Note_off_c, 7, 79, 127
1, 337437, Note_on_c, 2, 74, 127
1, 337437, Note_on_c, 7, 43, 127
1, 337638, Note_off_c, 7, 43, 127
1, 337638, Note_off_c, 2, 74, 127
1, 337640, Note_on_c, 7, 79, 127
1, 337640, Note_on_c, 11, 46, 127
1, 337841, Note_off_c, 11, 46, 127
1, 337841, Note_off_c, 7, 79, 127
1, 337843, Note_on_c, 3, 75, 127
1, 337843, Note_on_c, 0, 48, 127
1, 338044, Note_off_c, 0, 48, 127
1, 338044, Note_off_c, 3, 75, 127
1, 338046, Note_on_c, 0, 72, 127
1, 338046, Note_on_c, 3, 51, 127
1, 338247, Note_off_c, 3, 51, 127
1, 338247, Note_off_c, 0, 72, 127
1, 338249, Note_on_c, 3, 75, 127
1, 338249, Note_on_c, 0, 48, 127
1, 338450, Note_off_c, 0, 48, 127
1, 338450, Note_off_c, 3, 75, 127
1, 338452, Note_on_c, 5, 77, 127
1, 338452, Note_on_c, 10, 45, 127
1, 338653, Note_off_c, 10, 45, 127
1, 338653, Note_off_c, 5, 77, 127
1, 338655, Note_on_c, 0, 72, 127
1, 338655, Note_on_c, 5, 41, 127
1, 338856, Note_off_c, 5, 41, 127
1, 338856, Note_off_c, 0, 72, 127
1, 338858, Note_on_c, 5, 77, 127
1, 338858, Note_on_c, 10, 45, 127
1, 339059, Note_off_c, 10, 45, 127
1, 339059, Note_off_c, 5, 77, 127
1, 339061, Note_on_c, 2, 74, 127
1, 339061, Note_on_c, 11, 46, 127
1, 339262, Note_off_c, 11, 46, 127
1, 339262, Note_off_c, 2, 74, 127
1, 339264, Note_on_c, 11, 70, 127
1, 339264, Note_on_c, 2, 50, 127
1, 339465, Note_off_c, 2, 50, 127
1, 339465, Note_off_c, 11, 70, 127
1, 339467, Note_on_c, 2, 74, 127
1, 339467, Note_on_c, 11, 46, 127
1, 339668, Note_off_c, 11, 46, 127
1, 339668, Note_off_c, 2, 74, 127
1, 339670, Note_on_c, 3, 75, 127
1, 339670, Note_on_c, 7, 43, 127
1, 339871, Note_off_c, 7, 43, 127
1, 339871, Note_off_c, 3, 75, 127
1, 339873, Note_on_c, 11, 70, 127
1, 339873, Note_on_c, 3, 39, 127
1, 340074, Note_off_c, 3, 39, 127
1, 340074, Note_off_c, 11, 70, 127
1, 340076, Note_on_c, 3, 75, 127
1, 340076, Note_on_c, 7, 43, 127
1, 340277, Note_off_c, 7, 43, 127
1, 340277, Note_off_c, 3, 75, 127
1, 340279, Note_on_c, 0, 72, 127
1, 340279, Note_on_c, 10, 45, 127
1, 340480, Note_off_c, 10, 45, 127
1, 340480, Note_off_c, 0, 72, 127
1, 340482, Note_on_c, 10, 69, 127
1, 340482, Note_on_c, 0, 48, 127
1, 340683, Note_off_c, 0, 48, 127
1, 340683, Note_off_c, 10, 69, 127
1, 340685, Note_on_c, 0, 72, 127
1, 340685, Note_on_c, 10, 45, 127
1, 340886, Note_off_c, 10, 45, 127
1, 340886, Note_off_c, 0, 72, 127
1, 340888, Note_on_c, 2, 74, 127
1, 340888, Note_on_c, 6, 42, 127
1, 341089, Note_off_c, 6, 42, 127
1, 341089, Note_off_c, 2, 74, 127
1, 341091, Note_on_c, 10, 69, 127
1, 341091, Note_on_c, 2, 38, 127
1, 341292, Note_off_c, 2, 38, 127
1, 341292, Note_off_c, 10, 69, 127
1, 341294, Note_on_c, 2, 74, 127
1, 341294, Note_on_c, 6, 42, 127
1, 341495, Note_off_c, 6, 42, 127
1, 341495, Note_off_c, 2, 74, 127
1, 341497, Note_on_c, 11, 70, 127
1, 341497, Note_on_c, 7, 43, 127
1, 341698, Note_off_c, 7, 43, 127
1, 341698, Note_off_c, 11, 70, 127
1, 341700, Note_on_c, 7, 67, 127
1, 341700, Note_on_c, 11, 46, 127
1, 341901, Note_off_c, 11, 46, 127
1, 341901, Note_off_c, 7, 67, 127
1, 341903, Note_on_c, 11, 70, 127
1, 341903, Note_on_c, 7, 43, 127
1, 342104, Note_off_c, 7, 43, 127
1, 342104, Note_off_c, 11, 70, 127
1, 342106, Note_on_c, 0, 72, 127
1, 342106, Note_on_c, 3, 39, 127
1, 342307, Note_off_c, 0, 72, 127
1, 342309, Note_on_c, 2, 74, 127
1, 342510, Note_off_c, 2, 74, 127
1, 342510, Note_off_c, 3, 39, 127
1, 342512, Note_on_c, 0, 72, 127
1, 342512, Note_on_c, 3, 51, 127
1, 342713, Note_off_c, 3, 51, 127
1, 342713, Note_off_c, 0, 72, 127
1, 342715, Note_on_c, 10, 69, 127
1, 342715, Note_on_c, 0, 48, 127
1, 342916, Note_off_c, 10, 69, 127
1, 342918, Note_on_c, 11, 70, 127
1, 343119, Note_off_c, 11, 70, 127
1, 343119, Note_off_c, 0, 48, 127
1, 343121, Note_on_c, 10, 69, 127
1, 343121, Note_on_c, 3, 51, 127
1, 343322, Note_off_c, 3, 51, 127
1, 343322, Note_off_c, 10, 69, 127
1, 343324, Note_on_c, 0, 72, 127
1, 343324, Note_on_c, 10, 45, 127
1, 343525, Note_off_c, 0, 72, 127
1, 343527, Note_on_c, 2, 74, 127
1, 343728, Note_off_c, 2, 74, 127
1, 343728, Note_off_c, 10, 45, 127
1, 343730, Note_on_c, 0, 72, 127
1, 343730, Note_on_c, 0, 48, 127
1, 343931, Note_off_c, 0, 48, 127
1, 343931, Note_off_c, 0, 72, 127
1, 343933, Note_on_c, 10, 69, 127
1, 343933, Note_on_c, 6, 42, 127
1, 344134, Note_off_c, 10, 69, 127
1, 344136, Note_on_c, 11, 70, 127
1, 344337, Note_off_c, 11, 70, 127
1, 344337, Note_off_c, 6, 42, 127
1, 344339, Note_on_c, 10, 69, 127
1, 344339, Note_on_c, 10, 45, 127
1, 344540, Note_off_c, 10, 45, 127
1, 344540, Note_off_c, 10, 69, 127
1, 344542, Note_on_c, 0, 72, 127
1, 344542, Note_on_c, 2, 38, 127
1, 344743, Note_off_c, 2, 38, 127
1, 344743, Note_off_c, 0, 72, 127
1, 344745, Note_on_c, 2, 74, 127
1, 344745, Note_on_c, 6, 42, 127
1, 344946, Note_off_c, 6, 42, 127
1, 344946, Note_off_c, 2, 74, 127
1, 344948, Note_on_c, 0, 72, 127
1, 344948, Note_on_c, 10, 45, 127
1, 345149, Note_off_c, 10, 45, 127
1, 345149, Note_off_c, 0, 72, 127
1, 345151, Note_on_c, 6, 66, 127
1, 345151, Note_on_c, 2, 50, 127
1, 345352, Note_off_c, 2, 50, 127
1, 345352, Note_off_c, 6, 66, 127
1, 345354, Note_on_c, 7, 67, 127
1, 345354, Note_on_c, 6, 54, 127
1, 345555, Note_off_c, 6, 54, 127
1, 345555, Note_off_c, 7, 67, 127
1, 345557, Note_on_c, 6, 66, 127
1, 345557, Note_on_c, 10, 57, 127
1, 345758, Note_off_c, 10, 57, 127
1, 345758, Note_off_c, 6, 66, 127
1, 345760, Note_on_c, 0, 72, 127
1, 345760, Note_on_c, 2, 62, 127
1, 345961, Note_off_c, 2, 62, 127
1, 345961, Note_off_c, 0, 72, 127
1, 345963, Note_on_c, 2, 74, 127
1, 345963, Note_on_c, 10, 57, 127
1, 346164, Note_off_c, 10, 57, 127
1, 346164, Note_off_c, 2, 74, 127
1, 346166, Note_on_c, 0, 72, 127
1, 346166, Note_on_c, 6, 54, 127
1, 346367, Note_off_c, 6, 54, 127
1, 346367, Note_off_c, 0, 72, 127
1, 346369, Note_on_c, 6, 66, 127
1, 346369, Note_on_c, 2, 50, 127
1, 346570, Note_off_c, 2, 50, 127
1, 346570, Note_off_c, 6, 66, 127
1, 346572, Note_on_c, 7, 67, 127
1, 346572, Note_on_c, 10, 45, 127
1, 346773, Note_off_c, 10, 45, 127
1, 346773, Note_off_c, 7, 67, 127
1, 346775, Note_on_c, 6, 66, 127
1, 346775, Note_on_c, 6, 42, 127
1, 346976, Note_off_c, 6, 42, 127
1, 346976, Note_off_c, 6, 66, 127
1, 346978, Note_on_c, 3, 75, 127
1, 346978, Note_on_c, 0, 36, 127
1, 347179, Note_off_c, 3, 75, 127
1, 347181, Note_on_c, 2, 74, 127
1, 347382, Note_off_c, 2, 74, 127
1, 347384, Note_on_c, 0, 72, 127
1, 347517, Note_off_c, 0, 36, 127
1, 347585, Note_off_c, 0, 72, 127
1, 347587, Note_on_c, 0, 72, 127
1, 347587, Note_on_c, 3, 51, 127
1, 347788, Note_off_c, 3, 51, 127
1, 347788, Note_off_c, 0, 72, 127
1, 347790, Note_on_c, 11, 70, 127
1, 347790, Note_on_c, 2, 50, 127
1, 347991, Note_off_c, 2, 50, 127
1, 347991, Note_off_c, 11, 70, 127
1, 347993, Note_on_c, 10, 69, 127
1, 347993, Note_on_c, 0, 48, 127
1, 348194, Note_off_c, 0, 48, 127
1, 348194, Note_off_c, 10, 69, 127
1, 348196, Note_on_c, 3, 75, 127
1, 348196, Note_on_c, 0, 48, 127
1, 348397, Note_off_c, 0, 48, 127
1, 348397, Note_off_c, 3, 75, 127
1, 348399, Note_on_c, 2, 74, 127
1, 348399, Note_on_c, 11, 46, 127
1, 348600, Note_off_c, 11, 46, 127
1, 348600, Note_off_c, 2, 74, 127
1, 348602, Note_on_c, 0, 72, 127
1, 348602, Note_on_c, 10, 45, 127
1, 348803, Note_off_c, 10, 45, 127
1, 348803, Note_off_c, 0, 72, 127
1, 348805, Note_on_c, 0, 72, 127
1, 348805, Note_on_c, 3, 51, 127
1, 349006, Note_off_c, 3, 51, 127
1, 349006, Note_off_c, 0, 72, 127
1, 349008, Note_on_c, 11, 70, 127
1, 349008, Note_on_c, 2, 50, 127
1, 349209, Note_off_c, 2, 50, 127
1, 349209, Note_off_c, 11, 70, 127
1, 349211, Note_on_c, 10, 69, 127
1, 349211, Note_on_c, 0, 48, 127
1, 349412, Note_off_c, 0, 48, 127
1, 349412, Note_off_c, 10, 69, 127
1, 349414, Note_on_c, 6, 78, 127
1, 349414, Note_on_c, 0, 60, 127
1, 349615, Note_off_c, 6, 78, 127
1, 349617, Note_on_c, 4, 76, 127
1, 349818, Note_off_c, 4, 76, 127
1, 349820, Note_on_c, 2, 74, 127
1, 350021, Note_off_c, 2, 74, 127
1, 350023, Note_on_c, 6, 78, 127
1, 350224, Note_off_c, 6, 78, 127
1, 350226, Note_on_c, 4, 76, 127
1, 350325, Note_off_c, 0, 60, 127
1, 350426, Note_off_c, 4, 76, 127
1, 350428, Note_on_c, 2, 74, 127
1, 350428, Note_on_c, 0, 48, 127
1, 350629, Note_off_c, 0, 48, 127
1, 350629, Note_off_c, 2, 74, 127
1, 350631, Note_on_c, 7, 79, 127
1, 350631, Note_on_c, 11, 46, 127
1, 350832, Note_off_c, 11, 46, 127
1, 350834, Note_on_c, 10, 45, 127
1, 351035, Note_off_c, 10, 45, 127
1, 351035, Note_off_c, 7, 79, 127
1, 351037, Note_on_c, 11, 70, 127
1, 351037, Note_on_c, 7, 43, 127
1, 351238, Note_off_c, 7, 43, 127
1, 351238, Note_off_c, 11, 70, 127
1, 351240, Note_on_c, 11, 70, 127
1, 351240, Note_on_c, 2, 50, 127
1, 351305, Note_off_c, 11, 70, 127
1, 351307, Note_on_c, 10, 69, 127
1, 351372, Note_off_c, 10, 69, 127
1, 351374, Note_on_c, 11, 70, 127
1, 351442, Note_off_c, 11, 70, 127
1, 351444, Note_on_c, 10, 69, 127
1, 351645, Note_off_c, 10, 69, 127
1, 351645, Note_off_c, 2, 50, 127
1, 351647, Note_on_c, 7, 67, 127
1, 351647, Note_on_c, 2, 38, 127
1, 351848, Note_off_c, 2, 38, 127
1, 351848, Note_off_c, 7, 67, 127
1, 351850, Note_on_c, 7, 67, 127
1, 351850, Note_on_c, 7, 43, 127
1, 352152, Note_off_c, 7, 67, 127
1, 352154, Note_on_c, 10, 69, 127
1, 352253, Note_off_c, 10, 69, 127
1, 352255, Note_on_c, 7, 67, 127
1, 352456, Note_off_c, 7, 67, 127
1, 352458, Note_on_c, 11, 70, 127
1, 352610, Note_off_c, 7, 43, 127
1, 352760, Note_off_c, 11, 70, 127
1, 352762, Note_on_c, 0, 72, 127
1, 352861, Note_off_c, 0, 72, 127
1, 352863, Note_on_c, 11, 70, 127
1, 352863, Note_on_c, 7, 55, 127
1, 353064, Note_off_c, 7, 55, 127
1, 353064, Note_off_c, 11, 70, 127
1, 353066, Note_on_c, 2, 74, 127
1, 353066, Note_on_c, 6, 54, 127
1, 353267, Note_off_c, 6, 54, 127
1, 353269, Note_on_c, 10, 57, 127
1, 353470, Note_off_c, 10, 57, 127
1, 353470, Note_off_c, 2, 74, 127
1, 353472, Note_on_c, 2, 62, 127
1, 353472, Note_on_c, 6, 54, 127
1, 353673, Note_off_c, 6, 54, 127
1, 353673, Note_off_c, 2, 62, 127
1, 353675, Note_on_c, 2, 62, 127
1, 353675, Note_on_c, 2, 50, 127
1, 353876, Note_off_c, 2, 50, 127
1, 353878, Note_on_c, 6, 54, 127
1, 354079, Note_off_c, 6, 54, 127
1, 354079, Note_off_c, 2, 62, 127
1, 354081, Note_on_c, 2, 62, 127
1, 354081, Note_on_c, 2, 50, 127
1, 354282, Note_off_c, 2, 50, 127
1, 354282, Note_off_c, 2, 62, 127
1, 354284, Note_on_c, 7, 67, 127
1, 354284, Note_on_c, 11, 46, 127
1, 354485, Note_off_c, 11, 46, 127
1, 354487, Note_on_c, 2, 50, 127
1, 354586, Note_off_c, 7, 67, 127
1, 354588, Note_on_c, 10, 69, 127
1, 354687, Note_off_c, 10, 69, 127
1, 354687, Note_off_c, 2, 50, 127
1, 354689, Note_on_c, 7, 67, 127
1, 354689, Note_on_c, 11, 46, 127
1, 354890, Note_off_c, 11, 46, 127
1, 354890, Note_off_c, 7, 67, 127
1, 354892, Note_on_c, 11, 70, 127
1, 354892, Note_on_c, 7, 43, 127
1, 355093, Note_off_c, 7, 43, 127
1, 355095, Note_on_c, 11, 46, 127
1, 355194, Note_off_c, 11, 70, 127
1, 355196, Note_on_c, 0, 72, 127
1, 355295, Note_off_c, 0, 72, 127
1, 355295, Note_off_c, 11, 46, 127
1, 355297, Note_on_c, 11, 70, 127
1, 355297, Note_on_c, 7, 43, 127
1, 355498, Note_off_c, 7, 43, 127
1, 355498, Note_off_c, 11, 70, 127
1, 355500, Note_on_c, 2, 74, 127
1, 355500, Note_on_c, 6, 42, 127
1, 355701, Note_off_c, 6, 42, 127
1, 355703, Note_on_c, 10, 45, 127
1, 355904, Note_off_c, 10, 45, 127
1, 355904, Note_off_c, 2, 74, 127
1, 355906, Note_on_c, 2, 62, 127
1, 355906, Note_on_c, 6, 42, 127
1, 356107, Note_off_c, 6, 42, 127
1, 356107, Note_off_c, 2, 62, 127
1, 356109, Note_on_c, 2, 62, 127
1, 356109, Note_on_c, 2, 38, 127
1, 356310, Note_off_c, 2, 38, 127
1, 356312, Note_on_c, 2, 50, 127
1, 356513, Note_off_c, 2, 50, 127
1, 356513, Note_off_c, 2, 62, 127
1, 356515, Note_on_c, 11, 70, 127
1, 356515, Note_on_c, 0, 48, 127
1, 356614, Note_off_c, 11, 70, 127
1, 356616, Note_on_c, 0, 72, 127
1, 356715, Note_off_c, 0, 72, 127
1, 356715, Note_off_c, 0, 48, 127
1, 356717, Note_on_c, 2, 74, 127
1, 356717, Note_on_c, 11, 46, 127
1, 357019, Note_off_c, 2, 74, 127
1, 357021, Note_on_c, 3, 75, 127
1, 357120, Note_off_c, 3, 75, 127
1, 357120, Note_off_c, 11, 46, 127
1, 357122, Note_on_c, 2, 74, 127
1, 357323, Note_off_c, 2, 74, 127
1, 357325, Note_on_c, 5, 77, 127
1, 357627, Note_off_c, 5, 77, 127
1, 357629, Note_on_c, 7, 79, 127
1, 357629, Note_on_c, 11, 46, 127
1, 357728, Note_off_c, 11, 46, 127
1, 357728, Note_off_c, 7, 79, 127
1, 357730, Note_on_c, 5, 77, 127
1, 357730, Note_on_c, 0, 48, 127
1, 357931, Note_off_c, 0, 48, 127
1, 357931, Note_off_c, 5, 77, 127
1, 357933, Note_on_c, 11, 82, 127
1, 357933, Note_on_c, 2, 50, 127
1, 358235, Note_off_c, 2, 50, 127
1, 358237, Note_on_c, 3, 51, 127
1, 358336, Note_off_c, 3, 51, 127
1, 358336, Note_off_c, 11, 82, 127
1, 358338, Note_on_c, 11, 70, 127
1, 358338, Note_on_c, 2, 50, 127
1, 358539, Note_off_c, 2, 50, 127
1, 358539, Note_off_c, 11, 70, 127
1, 358541, Note_on_c, 11, 70, 127
1, 358541, Note_on_c, 5, 53, 127
1, 358843, Note_off_c, 5, 53, 127
1, 358845, Note_on_c, 7, 55, 127
1, 358944, Note_off_c, 7, 55, 127
1, 358944, Note_off_c, 11, 70, 127
1, 358946, Note_on_c, 11, 70, 127
1, 358946, Note_on_c, 5, 53, 127
1, 359045, Note_off_c, 11, 70, 127
1, 359047, Note_on_c, 0, 72, 127
1, 359146, Note_off_c, 0, 72, 127
1, 359146, Note_off_c, 5, 53, 127
1, 359148, Note_on_c, 2, 74, 127
1, 359148, Note_on_c, 11, 58, 127
1, 359349, Note_off_c, 11, 58, 127
1, 359351, Note_on_c, 5, 53, 127
1, 359450, Note_off_c, 2, 74, 127
1, 359452, Note_on_c, 3, 75, 127
1, 359551, Note_off_c, 3, 75, 127
1, 359551, Note_off_c, 5, 53, 127
1, 359553, Note_on_c, 2, 74, 127
1, 359553, Note_on_c, 2, 50, 127
1, 359754, Note_off_c, 2, 50, 127
1, 359754, Note_off_c, 2, 74, 127
1, 359756, Note_on_c, 5, 77, 127
1, 359756, Note_on_c, 11, 46, 127
1, 359957, Note_off_c, 11, 46, 127
1, 359959, Note_on_c, 2, 50, 127
1, 360058, Note_off_c, 5, 77, 127
1, 360060, Note_on_c, 7, 79, 127
1, 360159, Note_off_c, 7, 79, 127
1, 360159, Note_off_c, 2, 50, 127
1, 360161, Note_on_c, 5, 77, 127
1, 360161, Note_on_c, 11, 46, 127
1, 360362, Note_off_c, 11, 46, 127
1, 360362, Note_off_c, 5, 77, 127
1, 360364, Note_on_c, 11, 82, 127
1, 360364, Note_on_c, 7, 43, 127
1, 360565, Note_off_c, 7, 43, 127
1, 360567, Note_on_c, 11, 46, 127
1, 360768, Note_off_c, 11, 46, 127
1, 360768, Note_off_c, 11, 82, 127
1, 360770, Note_on_c, 11, 70, 127
1, 360770, Note_on_c, 7, 43, 127
1, 360971, Note_off_c, 7, 43, 127
1, 360971, Note_off_c, 11, 70, 127
1, 360973, Note_on_c, 11, 70, 127
1, 360973, Note_on_c, 4, 40, 127
1, 361174, Note_off_c, 4, 40, 127
1, 361176, Note_on_c, 7, 43, 127
1, 361377, Note_off_c, 7, 43, 127
1, 361377, Note_off_c, 11, 70, 127
1, 361379, Note_on_c, 7, 79, 127
1, 361379, Note_on_c, 4, 40, 127
1, 361580, Note_off_c, 4, 40, 127
1, 361580, Note_off_c, 7, 79, 127
1, 361582, Note_on_c, 1, 73, 127
1, 361582, Note_on_c, 10, 45, 127
1, 361884, Note_off_c, 1, 73, 127
1, 361886, Note_on_c, 2, 74, 127
1, 361985, Note_off_c, 2, 74, 127
1, 361987, Note_on_c, 1, 73, 127
1, 362183, Note_off_c, 10, 45, 127
1, 362188, Note_off_c, 1, 73, 127
1, 362190, Note_on_c, 4, 76, 127
1, 362492, Note_off_c, 4, 76, 127
1, 362494, Note_on_c, 5, 77, 127
1, 362593, Note_off_c, 5, 77, 127
1, 362595, Note_on_c, 4, 76, 127
1, 362595, Note_on_c, 10, 57, 127
1, 362796, Note_off_c, 10, 57, 127
1, 362796, Note_off_c, 4, 76, 127
1, 362798, Note_on_c, 10, 81, 127
1, 362798, Note_on_c, 5, 53, 127
1, 362999, Note_off_c, 5, 53, 127
1, 363001, Note_on_c, 10, 57, 127
1, 363202, Note_off_c, 10, 57, 127
1, 363202, Note_off_c, 10, 81, 127
1, 363204, Note_on_c, 10, 69, 127
1, 363204, Note_on_c, 5, 53, 127
1, 363405, Note_off_c, 5, 53, 127
1, 363405, Note_off_c, 10, 69, 127
1, 363407, Note_on_c, 10, 69, 127
1, 363407, Note_on_c, 2, 50, 127
1, 363608, Note_off_c, 2, 50, 127
1, 363610, Note_on_c, 5, 53, 127
1, 363811, Note_off_c, 5, 53, 127
1, 363811, Note_off_c, 10, 69, 127
1, 363813, Note_on_c, 10, 69, 127
1, 363813, Note_on_c, 2, 50, 127
1, 364014, Note_off_c, 2, 50, 127
1, 364014, Note_off_c, 10, 69, 127
1, 364016, Note_on_c, 11, 70, 127
1, 364016, Note_on_c, 7, 43, 127
1, 364318, Note_off_c, 11, 70, 127
1, 364320, Note_on_c, 0, 72, 127
1, 364419, Note_off_c, 0, 72, 127
1, 364421, Note_on_c, 11, 70, 127
1, 364617, Note_off_c, 7, 43, 127
1, 364622, Note_off_c, 11, 70, 127
1, 364624, Note_on_c, 2, 74, 127
1, 364926, Note_off_c, 2, 74, 127
1, 364928, Note_on_c, 3, 75, 127
1, 365027, Note_off_c, 3, 75, 127
1, 365029, Note_on_c, 2, 74, 127
1, 365029, Note_on_c, 7, 55, 127
1, 365230, Note_off_c, 7, 55, 127
1, 365230, Note_off_c, 2, 74, 127
1, 365232, Note_on_c, 7, 79, 127
1, 365232, Note_on_c, 3, 51, 127
1, 365433, Note_off_c, 3, 51, 127
1, 365435, Note_on_c, 7, 55, 127
1, 365636, Note_off_c, 7, 55, 127
1, 365636, Note_off_c, 7, 79, 127
1, 365638, Note_on_c, 7, 67, 127
1, 365638, Note_on_c, 3, 51, 127
1, 365839, Note_off_c, 3, 51, 127
1, 365839, Note_off_c, 7, 67, 127
1, 365841, Note_on_c, 7, 67, 127
1, 365841, Note_on_c, 0, 48, 127
1, 366042, Note_off_c, 0, 48, 127
1, 366044, Note_on_c, 3, 51, 127
1, 366245, Note_off_c, 3, 51, 127
1, 366245, Note_off_c, 7, 67, 127
1, 366247, Note_on_c, 7, 67, 127
1, 366247, Note_on_c, 0, 48, 127
1, 366448, Note_off_c, 0, 48, 127
1, 366448, Note_off_c, 7, 67, 127
1, 366450, Note_on_c, 10, 69, 127
1, 366450, Note_on_c, 5, 41, 127
1, 366752, Note_off_c, 10, 69, 127
1, 366754, Note_on_c, 11, 70, 127
1, 366853, Note_off_c, 11, 70, 127
1, 366855, Note_on_c, 10, 69, 127
1, 367056, Note_off_c, 10, 69, 127
1, 367058, Note_on_c, 0, 72, 127
1, 367210, Note_off_c, 5, 41, 127
1, 367360, Note_off_c, 0, 72, 127
1, 367362, Note_on_c, 2, 74, 127
1, 367461, Note_off_c, 2, 74, 127
1, 367463, Note_on_c, 0, 72, 127
1, 367463, Note_on_c, 5, 53, 127
1, 367664, Note_off_c, 5, 53, 127
1, 367664, Note_off_c, 0, 72, 127
1, 367666, Note_on_c, 5, 77, 127
1, 367666, Note_on_c, 2, 50, 127
1, 367867, Note_off_c, 2, 50, 127
1, 367869, Note_on_c, 5, 53, 127
1, 368070, Note_off_c, 5, 53, 127
1, 368070, Note_off_c, 5, 77, 127
1, 368072, Note_on_c, 5, 65, 127
1, 368072, Note_on_c, 2, 50, 127
1, 368273, Note_off_c, 2, 50, 127
1, 368273, Note_off_c, 5, 65, 127
1, 368275, Note_on_c, 5, 65, 127
1, 368275, Note_on_c, 11, 46, 127
1, 368476, Note_off_c, 11, 46, 127
1, 368478, Note_on_c, 2, 50, 127
1, 368679, Note_off_c, 2, 50, 127
1, 368679, Note_off_c, 5, 65, 127
1, 368681, Note_on_c, 5, 65, 127
1, 368681, Note_on_c, 11, 46, 127
1, 368882, Note_off_c, 11, 46, 127
1, 368882, Note_off_c, 5, 65, 127
1, 368884, Note_on_c, 7, 67, 127
1, 368884, Note_on_c, 3, 39, 127
1, 369186, Note_off_c, 7, 67, 127
1, 369188, Note_on_c, 10, 69, 127
1, 369287, Note_off_c, 10, 69, 127
1, 369289, Note_on_c, 7, 67, 127
1, 369490, Note_off_c, 7, 67, 127
1, 369492, Note_on_c, 10, 69, 127
1, 369644, Note_off_c, 3, 39, 127
1, 369794, Note_off_c, 10, 69, 127
1, 369796, Note_on_c, 11, 70, 127
1, 369895, Note_off_c, 11, 70, 127
1, 369897, Note_on_c, 10, 69, 127
1, 369897, Note_on_c, 3, 51, 127
1, 370098, Note_off_c, 3, 51, 127
1, 370098, Note_off_c, 10, 69, 127
1, 370100, Note_on_c, 11, 70, 127
1, 370100, Note_on_c, 2, 50, 127
1, 370301, Note_off_c, 2, 50, 127
1, 370303, Note_on_c, 7, 55, 127
1, 370504, Note_off_c, 7, 55, 127
1, 370504, Note_off_c, 11, 70, 127
1, 370506, Note_on_c, 0, 72, 127
1, 370506, Note_on_c, 3, 51, 127
1, 370707, Note_off_c, 3, 51, 127
1, 370707, Note_off_c, 0, 72, 127
1, 370709, Note_on_c, 11, 70, 127
1, 370709, Note_on_c, 5, 53, 127
1, 370774, Note_off_c, 11, 70, 127
1, 370776, Note_on_c, 10, 69, 127
1, 370841, Note_off_c, 10, 69, 127
1, 370843, Note_on_c, 11, 70, 127
1, 370908, Note_off_c, 11, 70, 127
1, 370911, Note_off_c, 5, 53, 127
1, 370913, Note_on_c, 10, 69, 127
1, 370913, Note_on_c, 3, 51, 127
1, 371114, Note_off_c, 3, 51, 127
1, 371116, Note_off_c, 10, 69, 127
1, 371116, Note_on_c, 11, 70, 127
1, 371116, Note_on_c, 5, 53, 127
1, 371317, Note_off_c, 5, 53, 127
1, 371317, Note_off_c, 11, 70, 127
1, 371319, Note_on_c, 11, 70, 127
1, 371319, Note_on_c, 11, 46, 127
1, 371521, Note_on_c, 11, 82, 127
1, 371722, Note_off_c, 11, 82, 127
1, 371722, Note_off_c, 11, 70, 127
1, 371724, Note_on_c, 5, 77, 127
1, 371925, Note_off_c, 5, 77, 127
1, 371927, Note_on_c, 2, 74, 127
1, 372128, Note_off_c, 2, 74, 127
1, 372130, Note_on_c, 11, 82, 127
1, 372229, Note_off_c, 11, 46, 127
1, 372330, Note_off_c, 11, 82, 127
1, 372332, Note_on_c, 5, 77, 127
1, 372332, Note_on_c, 2, 50, 127
1, 372533, Note_off_c, 2, 50, 127
1, 372533, Note_off_c, 5, 77, 127
1, 372535, Note_on_c, 2, 74, 127
1, 372535, Note_on_c, 7, 55, 127
1, 372736, Note_off_c, 2, 74, 127
1, 372738, Note_on_c, 11, 82, 127
1, 372939, Note_off_c, 11, 82, 127
1, 372939, Note_off_c, 7, 55, 127
1, 372941, Note_on_c, 5, 77, 127
1, 372941, Note_on_c, 7, 55, 127
1, 373142, Note_off_c, 7, 55, 127
1, 373142, Note_off_c, 5, 77, 127
1, 373144, Note_on_c, 2, 74, 127
1, 373144, Note_on_c, 11, 58, 127
1, 373345, Note_off_c, 2, 74, 127
1, 373347, Note_on_c, 11, 82, 127
1, 373446, Note_off_c, 11, 58, 127
1, 373448, Note_on_c, 10, 57, 127
1, 373547, Note_off_c, 10, 57, 127
1, 373547, Note_off_c, 11, 82, 127
1, 373549, Note_on_c, 2, 74, 127
1, 373549, Note_on_c, 7, 55, 127
1, 373750, Note_off_c, 7, 55, 127
1, 373750, Note_off_c, 2, 74, 127
1, 373752, Note_on_c, 0, 72, 127
1, 373752, Note_on_c, 0, 60, 127
1, 373953, Note_off_c, 0, 72, 127
1, 373955, Note_on_c, 11, 82, 127
1, 374156, Note_off_c, 11, 82, 127
1, 374156, Note_off_c, 0, 60, 127
1, 374158, Note_on_c, 3, 75, 127
1, 374158, Note_on_c, 0, 48, 127
1, 374359, Note_off_c, 0, 48, 127
1, 374359, Note_off_c, 3, 75, 127
1, 374361, Note_on_c, 0, 72, 127
1, 374361, Note_on_c, 0, 48, 127
1, 374562, Note_off_c, 0, 72, 127
1, 374564, Note_on_c, 11, 82, 127
1, 374765, Note_off_c, 11, 82, 127
1, 374765, Note_off_c, 0, 48, 127
1, 374767, Note_on_c, 3, 75, 127
1, 374767, Note_on_c, 0, 48, 127
1, 374968, Note_off_c, 0, 48, 127
1, 374968, Note_off_c, 3, 75, 127
1, 374970, Note_on_c, 0, 72, 127
1, 374970, Note_on_c, 5, 53, 127
1, 375171, Note_off_c, 0, 72, 127
1, 375173, Note_on_c, 10, 81, 127
1, 375374, Note_off_c, 10, 81, 127
1, 375374, Note_off_c, 5, 53, 127
1, 375376, Note_on_c, 3, 75, 127
1, 375376, Note_on_c, 5, 53, 127
1, 375577, Note_off_c, 5, 53, 127
1, 375577, Note_off_c, 3, 75, 127
1, 375579, Note_on_c, 0, 72, 127
1, 375579, Note_on_c, 10, 57, 127
1, 375780, Note_off_c, 0, 72, 127
1, 375782, Note_on_c, 10, 81, 127
1, 375881, Note_off_c, 10, 57, 127
1, 375883, Note_on_c, 7, 55, 127
1, 375982, Note_off_c, 7, 55, 127
1, 375982, Note_off_c, 10, 81, 127
1, 375984, Note_on_c, 0, 72, 127
1, 375984, Note_on_c, 5, 53, 127
1, 376185, Note_off_c, 5, 53, 127
1, 376185, Note_off_c, 0, 72, 127
1, 376187, Note_on_c, 11, 70, 127
1, 376187, Note_on_c, 11, 58, 127
1, 376388, Note_off_c, 11, 70, 127
1, 376390, Note_on_c, 10, 81, 127
1, 376591, Note_off_c, 10, 81, 127
1, 376591, Note_off_c, 11, 58, 127
1, 376593, Note_on_c, 2, 74, 127
1, 376593, Note_on_c, 11, 46, 127
1, 376794, Note_off_c, 11, 46, 127
1, 376794, Note_off_c, 2, 74, 127
1, 376796, Note_on_c, 11, 70, 127
1, 376796, Note_on_c, 11, 46, 127
1, 376997, Note_off_c, 11, 70, 127
1, 376999, Note_on_c, 10, 81, 127
1, 377200, Note_off_c, 10, 81, 127
1, 377200, Note_off_c, 11, 46, 127
1, 377202, Note_on_c, 2, 74, 127
1, 377202, Note_on_c, 11, 46, 127
1, 377403, Note_off_c, 11, 46, 127
1, 377403, Note_off_c, 2, 74, 127
1, 377405, Note_on_c, 11, 70, 127
1, 377405, Note_on_c, 3, 51, 127
1, 377606, Note_off_c, 11, 70, 127
1, 377608, Note_on_c, 7, 79, 127
1, 377809, Note_off_c, 7, 79, 127
1, 377809, Note_off_c, 3, 51, 127
1, 377811, Note_on_c, 2, 74, 127
1, 377811, Note_on_c, 3, 51, 127
1, 378012, Note_off_c, 3, 51, 127
1, 378012, Note_off_c, 2, 74, 127
1, 378014, Note_on_c, 11, 70, 127
1, 378014, Note_on_c, 7, 55, 127
1, 378215, Note_off_c, 11, 70, 127
1, 378217, Note_on_c, 7, 79, 127
1, 378316, Note_off_c, 7, 55, 127
1, 378318, Note_on_c, 5, 53, 127
1, 378417, Note_off_c, 5, 53, 127
1, 378417, Note_off_c, 7, 79, 127
1, 378419, Note_on_c, 11, 70, 127
1, 378419, Note_on_c, 3, 51, 127
1, 378620, Note_off_c, 3, 51, 127
1, 378620, Note_off_c, 11, 70, 127
1, 378622, Note_on_c, 10, 69, 127
1, 378622, Note_on_c, 10, 57, 127
1, 378823, Note_off_c, 10, 69, 127
1, 378825, Note_on_c, 7, 79, 127
1, 379026, Note_off_c, 7, 79, 127
1, 379026, Note_off_c, 10, 57, 127
1, 379028, Note_on_c, 0, 72, 127
1, 379028, Note_on_c, 10, 45, 127
1, 379229, Note_off_c, 10, 45, 127
1, 379229, Note_off_c, 0, 72, 127
1, 379231, Note_on_c, 10, 69, 127
1, 379231, Note_on_c, 10, 45, 127
1, 379432, Note_off_c, 10, 69, 127
1, 379434, Note_on_c, 7, 79, 127
1, 379635, Note_off_c, 7, 79, 127
1, 379635, Note_off_c, 10, 45, 127
1, 379637, Note_on_c, 0, 72, 127
1, 379637, Note_on_c, 10, 45, 127
1, 379838, Note_off_c, 10, 45, 127
1, 379838, Note_off_c, 0, 72, 127
1, 379840, Note_on_c, 10, 69, 127
1, 379840, Note_on_c, 2, 50, 127
1, 380041, Note_off_c, 10, 69, 127
1, 380043, Note_on_c, 5, 77, 127
1, 380244, Note_off_c, 5, 77, 127
1, 380244, Note_off_c, 2, 50, 127
1, 380246, Note_on_c, 0, 72, 127
1, 380246, Note_on_c, 2, 50, 127
1, 380447, Note_off_c, 2, 50, 127
1, 380447, Note_off_c, 0, 72, 127
1, 380449, Note_on_c, 10, 69, 127
1, 380449, Note_on_c, 5, 53, 127
1, 380650, Note_off_c, 10, 69, 127
1, 380652, Note_on_c, 5, 77, 127
1, 380751, Note_off_c, 5, 53, 127
1, 380753, Note_on_c, 3, 51, 127
1, 380852, Note_off_c, 3, 51, 127
1, 380852, Note_off_c, 5, 77, 127
1, 380854, Note_on_c, 10, 69, 127
1, 380854, Note_on_c, 2, 50, 127
1, 381055, Note_off_c, 2, 50, 127
1, 381055, Note_off_c, 10, 69, 127
1, 381057, Note_on_c, 7, 67, 127
1, 381057, Note_on_c, 7, 55, 127
1, 381258, Note_off_c, 7, 67, 127
1, 381260, Note_on_c, 5, 77, 127
1, 381461, Note_off_c, 5, 77, 127
1, 381461, Note_off_c, 7, 55, 127
1, 381463, Note_on_c, 11, 70, 127
1, 381463, Note_on_c, 7, 43, 127
1, 381664, Note_off_c, 7, 43, 127
1, 381664, Note_off_c, 11, 70, 127
1, 381666, Note_on_c, 7, 67, 127
1, 381666, Note_on_c, 7, 43, 127
1, 381867, Note_off_c, 7, 67, 127
1, 381869, Note_on_c, 5, 77, 127
1, 382070, Note_off_c, 5, 77, 127
1, 382070, Note_off_c, 7, 43, 127
1, 382072, Note_on_c, 11, 70, 127
1, 382072, Note_on_c, 7, 43, 127
1, 382273, Note_off_c, 7, 43, 127
1, 382273, Note_off_c, 11, 70, 127
1, 382275, Note_on_c, 7, 67, 127
1, 382275, Note_on_c, 0, 48, 127
1, 382476, Note_off_c, 7, 67, 127
1, 382478, Note_on_c, 3, 75, 127
1, 382679, Note_off_c, 3, 75, 127
1, 382679, Note_off_c, 0, 48, 127
1, 382681, Note_on_c, 11, 70, 127
1, 382681, Note_on_c, 0, 48, 127
1, 382882, Note_off_c, 0, 48, 127
1, 382882, Note_off_c, 11, 70, 127
1, 382884, Note_on_c, 7, 67, 127
1, 382884, Note_on_c, 3, 51, 127
1, 383085, Note_off_c, 7, 67, 127
1, 383087, Note_on_c, 3, 75, 127
1, 383186, Note_off_c, 3, 51, 127
1, 383188, Note_on_c, 2, 50, 127
1, 383287, Note_off_c, 2, 50, 127
1, 383287, Note_off_c, 3, 75, 127
1, 383289, Note_on_c, 7, 67, 127
1, 383289, Note_on_c, 0, 48, 127
1, 383490, Note_off_c, 0, 48, 127
1, 383490, Note_off_c, 7, 67, 127
1, 383492, Note_on_c, 5, 65, 127
1, 383492, Note_on_c, 5, 53, 127
1, 383693, Note_off_c, 5, 65, 127
1, 383695, Note_on_c, 3, 75, 127
1, 383896, Note_off_c, 3, 75, 127
1, 383896, Note_off_c, 5, 53, 127
1, 383898, Note_on_c, 10, 69, 127
1, 383898, Note_on_c, 5, 41, 127
1, 384099, Note_off_c, 5, 41, 127
1, 384099, Note_off_c, 10, 69, 127
1, 384101, Note_on_c, 5, 65, 127
1, 384101, Note_on_c, 5, 41, 127
1, 384302, Note_off_c, 5, 65, 127
1, 384304, Note_on_c, 3, 75, 127
1, 384505, Note_off_c, 3, 75, 127
1, 384505, Note_off_c, 5, 41, 127
1, 384507, Note_on_c, 10, 69, 127
1, 384507, Note_on_c, 5, 41, 127
1, 384708, Note_off_c, 5, 41, 127
1, 384708, Note_off_c, 10, 69, 127
1, 384710, Note_on_c, 5, 65, 127
1, 384710, Note_on_c, 11, 46, 127
1, 384911, Note_off_c, 5, 65, 127
1, 384913, Note_on_c, 2, 74, 127
1, 385114, Note_off_c, 2, 74, 127
1, 385114, Note_off_c, 11, 46, 127
1, 385116, Note_on_c, 11, 70, 127
1, 385116, Note_on_c, 11, 46, 127
1, 385317, Note_off_c, 11, 46, 127
1, 385317, Note_off_c, 11, 70, 127
1, 385319, Note_on_c, 5, 65, 127
1, 385319, Note_on_c, 2, 50, 127
1, 385520, Note_off_c, 5, 65, 127
1, 385522, Note_on_c, 2, 74, 127
1, 385621, Note_off_c, 2, 50, 127
1, 385623, Note_on_c, 0, 48, 127
1, 385722, Note_off_c, 0, 48, 127
1, 385722, Note_off_c, 2, 74, 127
1, 385724, Note_on_c, 5, 65, 127
1, 385724, Note_on_c, 11, 46, 127
1, 385925, Note_off_c, 11, 46, 127
1, 385925, Note_off_c, 5, 65, 127
1, 385927, Note_on_c, 7, 67, 127
1, 385927, Note_on_c, 3, 51, 127
1, 386128, Note_off_c, 7, 67, 127
1, 386130, Note_on_c, 10, 69, 127
1, 386331, Note_off_c, 10, 69, 127
1, 386331, Note_off_c, 3, 51, 127
1, 386333, Note_on_c, 11, 70, 127
1, 386333, Note_on_c, 3, 39, 127
1, 386534, Note_off_c, 3, 39, 127
1, 386534, Note_off_c, 11, 70, 127
1, 386536, Note_on_c, 10, 69, 127
1, 386536, Note_on_c, 3, 39, 127
1, 386737, Note_off_c, 10, 69, 127
1, 386739, Note_on_c, 11, 70, 127
1, 386940, Note_off_c, 11, 70, 127
1, 386940, Note_off_c, 3, 39, 127
1, 386942, Note_on_c, 0, 72, 127
1, 386942, Note_on_c, 3, 51, 127
1, 387143, Note_off_c, 3, 51, 127
1, 387143, Note_off_c, 0, 72, 127
1, 387145, Note_on_c, 11, 70, 127
1, 387145, Note_on_c, 2, 50, 127
1, 387346, Note_off_c, 2, 50, 127
1, 387346, Note_off_c, 11, 70, 127
1, 387348, Note_on_c, 0, 72, 127
1, 387348, Note_on_c, 0, 48, 127
1, 387549, Note_off_c, 0, 48, 127
1, 387549, Note_off_c, 0, 72, 127
1, 387551, Note_on_c, 2, 74, 127
1, 387551, Note_on_c, 11, 46, 127
1, 387752, Note_off_c, 11, 46, 127
1, 387752, Note_off_c, 2, 74, 127
1, 387754, Note_on_c, 0, 72, 127
1, 387754, Note_on_c, 10, 45, 127
1, 387955, Note_off_c, 10, 45, 127
1, 387955, Note_off_c, 0, 72, 127
1, 387957, Note_on_c, 2, 74, 127
1, 387957, Note_on_c, 7, 43, 127
1, 388158, Note_off_c, 7, 43, 127
1, 388158, Note_off_c, 2, 74, 127
1, 388160, Note_on_c, 3, 75, 127
1, 388160, Note_on_c, 5, 41, 127
1, 388361, Note_off_c, 5, 41, 127
1, 388361, Note_off_c, 3, 75, 127
1, 388363, Note_on_c, 2, 74, 127
1, 388363, Note_on_c, 11, 46, 127
1, 388564, Note_off_c, 11, 46, 127
1, 388564, Note_off_c, 2, 74, 127
1, 388566, Note_on_c, 0, 72, 127
1, 388566, Note_on_c, 0, 48, 127
1, 388767, Note_off_c, 0, 48, 127
1, 388767, Note_off_c, 0, 72, 127
1, 388769, Note_on_c, 11, 70, 127
1, 388769, Note_on_c, 2, 50, 127
1, 388970, Note_off_c, 2, 50, 127
1, 388970, Note_off_c, 11, 70, 127
1, 388972, Note_on_c, 3, 75, 127
1, 388972, Note_on_c, 0, 48, 127
1, 389173, Note_off_c, 0, 48, 127
1, 389173, Note_off_c, 3, 75, 127
1, 389175, Note_on_c, 2, 74, 127
1, 389175, Note_on_c, 2, 50, 127
1, 389376, Note_off_c, 2, 50, 127
1, 389376, Note_off_c, 2, 74, 127
1, 389378, Note_on_c, 0, 72, 127
1, 389378, Note_on_c, 3, 51, 127
1, 389579, Note_off_c, 3, 51, 127
1, 389579, Note_off_c, 0, 72, 127
1, 389581, Note_on_c, 5, 77, 127
1, 389581, Note_on_c, 2, 50, 127
1, 389782, Note_off_c, 2, 50, 127
1, 389782, Note_off_c, 5, 77, 127
1, 389784, Note_on_c, 11, 70, 127
1, 389784, Note_on_c, 7, 55, 127
1, 389985, Note_off_c, 7, 55, 127
1, 389985, Note_off_c, 11, 70, 127
1, 389987, Note_on_c, 0, 72, 127
1, 389987, Note_on_c, 3, 51, 127
1, 390188, Note_off_c, 3, 51, 127
1, 390188, Note_off_c, 0, 72, 127
1, 390190, Note_on_c, 5, 65, 127
1, 390190, Note_on_c, 5, 53, 127
1, 390391, Note_off_c, 5, 53, 127
1, 390391, Note_off_c, 5, 65, 127
1, 390393, Note_on_c, 11, 70, 127
1, 390393, Note_on_c, 3, 51, 127
1, 390594, Note_off_c, 3, 51, 127
1, 390594, Note_off_c, 11, 70, 127
1, 390596, Note_on_c, 10, 69, 127
1, 390596, Note_on_c, 5, 53, 127
1, 390797, Note_off_c, 5, 53, 127
1, 390797, Note_off_c, 10, 69, 127
1, 390799, Note_on_c, 11, 70, 127
1, 390799, Note_on_c, 11, 46, 127
1, 391202, Note_off_c, 11, 70, 127
1, 391204, Note_on_c, 11, 70, 127
1, 391405, Note_off_c, 11, 70, 127
1, 391407, Note_on_c, 2, 74, 127
1, 391709, Note_off_c, 2, 74, 127
1, 391709, Note_off_c, 11, 46, 127
1, 391711, Note_on_c, 0, 72, 127
1, 391810, Note_off_c, 0, 72, 127
1, 391812, Note_on_c, 11, 70, 127
1, 391812, Note_on_c, 11, 58, 127
1, 392013, Note_off_c, 11, 58, 127
1, 392013, Note_off_c, 11, 70, 127
1, 392015, Note_on_c, 5, 77, 127
1, 392015, Note_on_c, 10, 57, 127
1, 392216, Note_off_c, 10, 57, 127
1, 392218, Note_on_c, 0, 60, 127
1, 392419, Note_off_c, 0, 60, 127
1, 392419, Note_off_c, 5, 77, 127
1, 392421, Note_on_c, 5, 65, 127
1, 392421, Note_on_c, 10, 57, 127
1, 392622, Note_off_c, 10, 57, 127
1, 392622, Note_off_c, 5, 65, 127
1, 392624, Note_on_c, 5, 65, 127
1, 392624, Note_on_c, 5, 53, 127
1, 392825, Note_off_c, 5, 53, 127
1, 392827, Note_on_c, 10, 57, 127
1, 393028, Note_off_c, 10, 57, 127
1, 393028, Note_off_c, 5, 65, 127
1, 393030, Note_on_c, 5, 65, 127
1, 393030, Note_on_c, 5, 53, 127
1, 393231, Note_off_c, 5, 53, 127
1, 393231, Note_off_c, 5, 65, 127
1, 393233, Note_on_c, 11, 70, 127
1, 393233, Note_on_c, 2, 50, 127
1, 393434, Note_off_c, 2, 50, 127
1, 393436, Note_on_c, 5, 53, 127
1, 393637, Note_off_c, 5, 53, 127
1, 393637, Note_off_c, 11, 70, 127
1, 393639, Note_on_c, 11, 70, 127
1, 393639, Note_on_c, 2, 50, 127
1, 393840, Note_off_c, 2, 50, 127
1, 393840, Note_off_c, 11, 70, 127
1, 393842, Note_on_c, 2, 74, 127
1, 393842, Note_on_c, 11, 46, 127
1, 394043, Note_off_c, 11, 46, 127
1, 394045, Note_on_c, 2, 50, 127
1, 394144, Note_off_c, 2, 74, 127
1, 394146, Note_on_c, 0, 72, 127
1, 394245, Note_off_c, 0, 72, 127
1, 394245, Note_off_c, 2, 50, 127
1, 394247, Note_on_c, 11, 70, 127
1, 394247, Note_on_c, 11, 46, 127
1, 394448, Note_off_c, 11, 46, 127
1, 394448, Note_off_c, 11, 70, 127
1, 394450, Note_on_c, 5, 77, 127
1, 394450, Note_on_c, 10, 45, 127
1, 394651, Note_off_c, 10, 45, 127
1, 394653, Note_on_c, 0, 48, 127
1, 394854, Note_off_c, 0, 48, 127
1, 394854, Note_off_c, 5, 77, 127
1, 394856, Note_on_c, 5, 65, 127
1, 394856, Note_on_c, 10, 45, 127
1, 395057, Note_off_c, 10, 45, 127
1, 395057, Note_off_c, 5, 65, 127
1, 395059, Note_on_c, 5, 65, 127
1, 395059, Note_on_c, 5, 41, 127
1, 395260, Note_off_c, 5, 41, 127
1, 395262, Note_on_c, 10, 45, 127
1, 395463, Note_off_c, 10, 45, 127
1, 395463, Note_off_c, 5, 65, 127
1, 395465, Note_on_c, 5, 65, 127
1, 395465, Note_on_c, 5, 41, 127
1, 395666, Note_off_c, 5, 41, 127
1, 395666, Note_off_c, 5, 65, 127
1, 395668, Note_on_c, 0, 72, 127
1, 395668, Note_on_c, 3, 39, 127
1, 395869, Note_off_c, 3, 39, 127
1, 395871, Note_on_c, 7, 43, 127
1, 396072, Note_off_c, 7, 43, 127
1, 396072, Note_off_c, 0, 72, 127
1, 396074, Note_on_c, 0, 72, 127
1, 396074, Note_on_c, 3, 39, 127
1, 396275, Note_off_c, 3, 39, 127
1, 396275, Note_off_c, 0, 72, 127
1, 396277, Note_on_c, 3, 75, 127
1, 396277, Note_on_c, 0, 36, 127
1, 396579, Note_off_c, 3, 75, 127
1, 396581, Note_on_c, 2, 74, 127
1, 396657, Note_off_c, 0, 36, 127
1, 396681, Note_off_c, 2, 74, 127
1, 396683, Note_on_c, 0, 72, 127
1, 396683, Note_on_c, 0, 60, 127
1, 396884, Note_off_c, 0, 60, 127
1, 396884, Note_off_c, 0, 72, 127
1, 396886, Note_on_c, 7, 79, 127
1, 396886, Note_on_c, 12, 59, 127
1, 397087, Note_off_c, 12, 59, 127
1, 397089, Note_on_c, 2, 62, 127
1, 397290, Note_off_c, 2, 62, 127
1, 397290, Note_off_c, 7, 79, 127
1, 397292, Note_on_c, 7, 67, 127
1, 397292, Note_on_c, 12, 59, 127
1, 397493, Note_off_c, 12, 59, 127
1, 397493, Note_off_c, 7, 67, 127
1, 397495, Note_on_c, 7, 67, 127
1, 397495, Note_on_c, 7, 55, 127
1, 397696, Note_off_c, 7, 55, 127
1, 397698, Note_on_c, 12, 59, 127
1, 397899, Note_off_c, 12, 59, 127
1, 397899, Note_off_c, 7, 67, 127
1, 397901, Note_on_c, 7, 67, 127
1, 397901, Note_on_c, 7, 55, 127
1, 398102, Note_off_c, 7, 55, 127
1, 398102, Note_off_c, 7, 67, 127
1, 398104, Note_on_c, 0, 72, 127
1, 398104, Note_on_c, 3, 51, 127
1, 398305, Note_off_c, 3, 51, 127
1, 398307, Note_on_c, 7, 55, 127
1, 398508, Note_off_c, 7, 55, 127
1, 398508, Note_off_c, 0, 72, 127
1, 398510, Note_on_c, 0, 72, 127
1, 398510, Note_on_c, 3, 51, 127
1, 398711, Note_off_c, 3, 51, 127
1, 398711, Note_off_c, 0, 72, 127
1, 398713, Note_on_c, 3, 75, 127
1, 398713, Note_on_c, 0, 48, 127
1, 398914, Note_off_c, 0, 48, 127
1, 398916, Note_on_c, 3, 51, 127
1, 399015, Note_off_c, 3, 75, 127
1, 399017, Note_on_c, 2, 74, 127
1, 399116, Note_off_c, 2, 74, 127
1, 399116, Note_off_c, 3, 51, 127
1, 399118, Note_on_c, 0, 72, 127
1, 399118, Note_on_c, 0, 48, 127
1, 399319, Note_off_c, 0, 48, 127
1, 399319, Note_off_c, 0, 72, 127
1, 399321, Note_on_c, 7, 79, 127
1, 399321, Note_on_c, 12, 47, 127
1, 399522, Note_off_c, 12, 47, 127
1, 399524, Note_on_c, 2, 50, 127
1, 399725, Note_off_c, 2, 50, 127
1, 399725, Note_off_c, 7, 79, 127
1, 399727, Note_on_c, 7, 67, 127
1, 399727, Note_on_c, 12, 47, 127
1, 399928, Note_off_c, 12, 47, 127
1, 399928, Note_off_c, 7, 67, 127
1, 399930, Note_on_c, 7, 67, 127
1, 399930, Note_on_c, 7, 43, 127
1, 400131, Note_off_c, 7, 43, 127
1, 400133, Note_on_c, 12, 47, 127
1, 400334, Note_off_c, 12, 47, 127
1, 400334, Note_off_c, 7, 67, 127
1, 400336, Note_on_c, 7, 79, 127
1, 400336, Note_on_c, 7, 43, 127
1, 400537, Note_off_c, 7, 43, 127
1, 400537, Note_off_c, 7, 79, 127
1, 400539, Note_on_c, 3, 75, 127
1, 400539, Note_on_c, 0, 48, 127
1, 400740, Note_off_c, 0, 48, 127
1, 400742, Note_on_c, 3, 51, 127
1, 400841, Note_off_c, 3, 75, 127
1, 400843, Note_on_c, 2, 74, 127
1, 400942, Note_off_c, 2, 74, 127
1, 400942, Note_off_c, 3, 51, 127
1, 400944, Note_on_c, 0, 72, 127
1, 400944, Note_on_c, 5, 53, 127
1, 401145, Note_off_c, 5, 53, 127
1, 401145, Note_off_c, 0, 72, 127
1, 401147, Note_on_c, 0, 72, 127
1, 401147, Note_on_c, 7, 55, 127
1, 401348, Note_off_c, 7, 55, 127
1, 401350, Note_on_c, 5, 53, 127
1, 401449, Note_off_c, 0, 72, 127
1, 401451, Note_on_c, 2, 74, 127
1, 401550, Note_off_c, 2, 74, 127
1, 401550, Note_off_c, 5, 53, 127
1, 401552, Note_on_c, 12, 71, 127
1, 401552, Note_on_c, 7, 55, 127
1, 401753, Note_off_c, 7, 55, 127
1, 401753, Note_off_c, 12, 71, 127
1, 401755, Note_on_c, 0, 72, 127
1, 401755, Note_on_c, 0, 48, 127
1, 401956, Note_off_c, 0, 48, 127
1, 401958, Note_on_c, 0, 60, 127
1, 402159, Note_off_c, 0, 60, 127
1, 402161, Note_on_c, 11, 58, 127
1, 402357, Note_off_c, 0, 72, 127
1, 402362, Note_off_c, 11, 58, 127
1, 402364, Note_on_c, 0, 60, 127
1, 402364, Note_on_c, 10, 57, 127
1, 402565, Note_off_c, 10, 57, 127
1, 402567, Note_on_c, 7, 55, 127
1, 402768, Note_off_c, 7, 55, 127
1, 402768, Note_off_c, 0, 60, 127
1, 402770, Note_on_c, 5, 77, 127
1, 402770, Note_on_c, 5, 53, 127
1, 402971, Note_off_c, 5, 53, 127
1, 402971, Note_off_c, 5, 77, 127
1, 402973, Note_on_c, 2, 74, 127
1, 402973, Note_on_c, 11, 58, 127
1, 403174, Note_off_c, 11, 58, 127
1, 403176, Note_on_c, 2, 50, 127
1, 403275, Note_off_c, 2, 74, 127
1, 403277, Note_on_c, 0, 72, 127
1, 403376, Note_off_c, 0, 72, 127
1, 403376, Note_off_c, 2, 50, 127
1, 403378, Note_on_c, 11, 70, 127
1, 403378, Note_on_c, 3, 51, 127
1, 403579, Note_off_c, 3, 51, 127
1, 403579, Note_off_c, 11, 70, 127
1, 403581, Note_on_c, 11, 70, 127
1, 403581, Note_on_c, 5, 53, 127
1, 403782, Note_off_c, 5, 53, 127
1, 403784, Note_on_c, 3, 51, 127
1, 403883, Note_off_c, 11, 70, 127
1, 403885, Note_on_c, 0, 72, 127
1, 403984, Note_off_c, 0, 72, 127
1, 403984, Note_off_c, 3, 51, 127
1, 403986, Note_on_c, 10, 69, 127
1, 403986, Note_on_c, 5, 53, 127
1, 404187, Note_off_c, 5, 53, 127
1, 404187, Note_off_c, 10, 69, 127
1, 404189, Note_on_c, 11, 70, 127
1, 404189, Note_on_c, 11, 58, 127
1, 404491, Note_off_c, 11, 58, 127
1, 404493, Note_on_c, 5, 53, 127
1, 404592, Note_off_c, 5, 53, 127
1, 404592, Note_off_c, 11, 70, 127
1, 404594, Note_on_c, 2, 50, 127
1, 404795, Note_off_c, 2, 50, 127
1, 404797, Note_on_c, 11, 46, 127
1, 405099, Note_off_c, 11, 46, 127
1, 405101, Note_on_c, 11, 58, 127
1, 405200, Note_off_c, 11, 58, 127
1, 405202, Note_on_c, 2, 74, 127
1, 405202, Note_on_c, 6, 54, 127
1, 405403, Note_off_c, 6, 54, 127
1, 405403, Note_off_c, 2, 74, 127
1, 405405, Note_on_c, 11, 70, 127
1, 405405, Note_on_c, 7, 55, 127
1, 405707, Note_off_c, 7, 55, 127
1, 405709, Note_on_c, 10, 57, 127
1, 405808, Note_off_c, 10, 57, 127
1, 405808, Note_off_c, 11, 70, 127
1, 405810, Note_on_c, 11, 70, 127
1, 405810, Note_on_c, 11, 58, 127
1, 406011, Note_off_c, 11, 58, 127
1, 406011, Note_off_c, 11, 70, 127
1, 406013, Note_on_c, 11, 70, 127
1, 406013, Note_on_c, 7, 55, 127
1, 406315, Note_off_c, 7, 55, 127
1, 406315, Note_off_c, 11, 70, 127
1, 406317, Note_on_c, 10, 69, 127
1, 406317, Note_on_c, 10, 57, 127
1, 406416, Note_off_c, 10, 57, 127
1, 406416, Note_off_c, 10, 69, 127
1, 406418, Note_on_c, 7, 67, 127
1, 406418, Note_on_c, 11, 58, 127
1, 406619, Note_off_c, 11, 58, 127
1, 406619, Note_off_c, 7, 67, 127
1, 406621, Note_on_c, 2, 74, 127
1, 406621, Note_on_c, 6, 54, 127
1, 407024, Note_off_c, 2, 74, 127
1, 407026, Note_on_c, 2, 62, 127
1, 407222, Note_off_c, 6, 54, 127
1, 407227, Note_off_c, 2, 62, 127
1, 407229, Note_on_c, 2, 62, 127
1, 407532, Note_on_c, 2, 50, 127
1, 407631, Note_off_c, 2, 50, 127
1, 407631, Note_off_c, 2, 62, 127
1, 407633, Note_on_c, 2, 74, 127
1, 407633, Note_on_c, 4, 52, 127
1, 407732, Note_off_c, 4, 52, 127
1, 407734, Note_on_c, 6, 54, 127
1, 407833, Note_off_c, 6, 54, 127
1, 407833, Note_off_c, 2, 74, 127
1, 407835, Note_on_c, 11, 70, 127
1, 407835, Note_on_c, 7, 55, 127
1, 408137, Note_off_c, 7, 55, 127
1, 408139, Note_on_c, 10, 57, 127
1, 408238, Note_off_c, 10, 57, 127
1, 408238, Note_off_c, 11, 70, 127
1, 408240, Note_on_c, 11, 70, 127
1, 408240, Note_on_c, 11, 58, 127
1, 408441, Note_off_c, 11, 58, 127
1, 408441, Note_off_c, 11, 70, 127
1, 408443, Note_on_c, 11, 70, 127
1, 408443, Note_on_c, 7, 55, 127
1, 408745, Note_off_c, 7, 55, 127
1, 408745, Note_off_c, 11, 70, 127
1, 408747, Note_on_c, 10, 69, 127
1, 408747, Note_on_c, 10, 57, 127
1, 408846, Note_off_c, 10, 57, 127
1, 408846, Note_off_c, 10, 69, 127
1, 408848, Note_on_c, 7, 67, 127
1, 408848, Note_on_c, 11, 58, 127
1, 409049, Note_off_c, 11, 58, 127
1, 409049, Note_off_c, 7, 67, 127
1, 409051, Note_on_c, 2, 74, 127
1, 409051, Note_on_c, 6, 54, 127
1, 409454, Note_off_c, 2, 74, 127
1, 409456, Note_on_c, 2, 62, 127
1, 409657, Note_off_c, 2, 62, 127
1, 409659, Note_on_c, 2, 62, 127
1, 409961, Note_off_c, 6, 54, 127
1, 410062, Note_off_c, 2, 62, 127
1, 410064, Note_on_c, 2, 74, 127
1, 410064, Note_on_c, 5, 53, 127
1, 410265, Note_off_c, 5, 53, 127
1, 410265, Note_off_c, 2, 74, 127
1, 410267, Note_on_c, 7, 79, 127
1, 410267, Note_on_c, 3, 51, 127
1, 410569, Note_off_c, 3, 51, 127
1, 410569, Note_off_c, 7, 79, 127
1, 410571, Note_on_c, 10, 81, 127
1, 410571, Note_on_c, 5, 53, 127
1, 410670, Note_off_c, 5, 53, 127
1, 410670, Note_off_c, 10, 81, 127
1, 410672, Note_on_c, 11, 82, 127
1, 410672, Note_on_c, 2, 50, 127
1, 410873, Note_off_c, 2, 50, 127
1, 410873, Note_off_c, 11, 82, 127
1, 410875, Note_on_c, 10, 81, 127
1, 410875, Note_on_c, 0, 48, 127
1, 411177, Note_off_c, 0, 48, 127
1, 411177, Note_off_c, 10, 81, 127
1, 411179, Note_on_c, 11, 82, 127
1, 411179, Note_on_c, 2, 50, 127
1, 411278, Note_off_c, 2, 50, 127
1, 411278, Note_off_c, 11, 82, 127
1, 411280, Note_on_c, 7, 79, 127
1, 411280, Note_on_c, 3, 51, 127
1, 411481, Note_off_c, 3, 51, 127
1, 411481, Note_off_c, 7, 79, 127
1, 411483, Note_on_c, 6, 78, 127
1, 411483, Note_on_c, 2, 50, 127
1, 411886, Note_off_c, 6, 78, 127
1, 411888, Note_on_c, 2, 74, 127
1, 412089, Note_off_c, 2, 74, 127
1, 412091, Note_on_c, 2, 74, 127
1, 412243, Note_off_c, 2, 50, 127
1, 412395, Note_on_c, 11, 46, 127
1, 412494, Note_off_c, 11, 46, 127
1, 412494, Note_off_c, 2, 74, 127
1, 412496, Note_on_c, 2, 74, 127
1, 412496, Note_on_c, 0, 48, 127
1, 412595, Note_off_c, 0, 48, 127
1, 412597, Note_on_c, 2, 50, 127
1, 412696, Note_off_c, 2, 50, 127
1, 412696, Note_off_c, 2, 74, 127
1, 412698, Note_on_c, 7, 79, 127
1, 412698, Note_on_c, 3, 51, 127
1, 413000, Note_off_c, 3, 51, 127
1, 413000, Note_off_c, 7, 79, 127
1, 413002, Note_on_c, 10, 81, 127
1, 413002, Note_on_c, 5, 53, 127
1, 413101, Note_off_c, 5, 53, 127
1, 413101, Note_off_c, 10, 81, 127
1, 413103, Note_on_c, 11, 82, 127
1, 413103, Note_on_c, 2, 50, 127
1, 413304, Note_off_c, 2, 50, 127
1, 413304, Note_off_c, 11, 82, 127
1, 413306, Note_on_c, 10, 81, 127
1, 413306, Note_on_c, 0, 48, 127
1, 413608, Note_off_c, 0, 48, 127
1, 413608, Note_off_c, 10, 81, 127
1, 413610, Note_on_c, 11, 82, 127
1, 413610, Note_on_c, 2, 50, 127
1, 413709, Note_off_c, 2, 50, 127
1, 413709, Note_off_c, 11, 82, 127
1, 413711, Note_on_c, 7, 79, 127
1, 413711, Note_on_c, 3, 51, 127
1, 413912, Note_off_c, 3, 51, 127
1, 413912, Note_off_c, 7, 79, 127
1, 413914, Note_on_c, 6, 78, 127
1, 413914, Note_on_c, 2, 50, 127
1, 414317, Note_off_c, 6, 78, 127
1, 414319, Note_on_c, 2, 74, 127
1, 414520, Note_off_c, 2, 74, 127
1, 414522, Note_on_c, 2, 74, 127
1, 414674, Note_off_c, 2, 50, 127
1, 414826, Note_on_c, 2, 50, 127
1, 414925, Note_off_c, 2, 50, 127
1, 414925, Note_off_c, 2, 74, 127
1, 414927, Note_on_c, 2, 74, 127
1, 414927, Note_on_c, 4, 52, 127
1, 415026, Note_off_c, 4, 52, 127
1, 415028, Note_on_c, 6, 54, 127
1, 415127, Note_off_c, 6, 54, 127
1, 415127, Note_off_c, 2, 74, 127
1, 415129, Note_on_c, 11, 70, 127
1, 415129, Note_on_c, 7, 55, 127
1, 415435, Note_off_c, 7, 55, 127
1, 415435, Note_off_c, 11, 70, 127
1, 415437, Note_on_c, 10, 69, 127
1, 415437, Note_on_c, 11, 46, 127
1, 415538, Note_off_c, 11, 46, 127
1, 415538, Note_off_c, 10, 69, 127
1, 415540, Note_on_c, 7, 67, 127
1, 415540, Note_on_c, 0, 48, 127
1, 415743, Note_off_c, 0, 48, 127
1, 415743, Note_off_c, 7, 67, 127
1, 415745, Note_on_c, 7, 67, 127
1, 415745, Note_on_c, 2, 50, 127
1, 416051, Note_off_c, 2, 50, 127
1, 416051, Note_off_c, 7, 67, 127
1, 416053, Note_on_c, 10, 69, 127
1, 416053, Note_on_c, 0, 48, 127
1, 416154, Note_off_c, 0, 48, 127
1, 416154, Note_off_c, 10, 69, 127
1, 416156, Note_on_c, 6, 66, 127
1, 416156, Note_on_c, 2, 50, 127
1, 416359, Note_off_c, 2, 50, 127
1, 416359, Note_off_c, 6, 66, 127
1, 416361, Note_on_c, 7, 67, 127
1, 416361, Note_on_c, 3, 39, 127
1, 416769, Note_off_c, 7, 67, 127
1, 416771, Note_on_c, 7, 67, 127
1, 416969, Note_off_c, 3, 39, 127
1, 416974, Note_off_c, 7, 67, 127
1, 416976, Note_on_c, 7, 67, 127
1, 417283, Note_on_c, 2, 38, 127
1, 417384, Note_off_c, 2, 38, 127
1, 417384, Note_off_c, 7, 67, 127
1, 417386, Note_on_c, 2, 74, 127
1, 417386, Note_on_c, 4, 40, 127
1, 417487, Note_off_c, 4, 40, 127
1, 417489, Note_on_c, 6, 42, 127
1, 417590, Note_off_c, 6, 42, 127
1, 417590, Note_off_c, 2, 74, 127
1, 417592, Note_on_c, 11, 70, 127
1, 417592, Note_on_c, 7, 43, 127
1, 417919, Note_off_c, 7, 43, 127
1, 417919, Note_off_c, 11, 70, 127
1, 417921, Note_on_c, 10, 69, 127
1, 417921, Note_on_c, 11, 46, 127
1, 418029, Note_off_c, 11, 46, 127
1, 418029, Note_off_c, 10, 69, 127
1, 418031, Note_on_c, 7, 67, 127
1, 418031, Note_on_c, 0, 48, 127
1, 418249, Note_off_c, 0, 48, 127
1, 418249, Note_off_c, 7, 67, 127
1, 418251, Note_on_c, 7, 67, 127
1, 418251, Note_on_c, 2, 50, 127
1, 418578, Note_off_c, 2, 50, 127
1, 418578, Note_off_c, 7, 67, 127
1, 418580, Note_on_c, 10, 69, 127
1, 418580, Note_on_c, 0, 48, 127
1, 418705, Note_off_c, 0, 48, 127
1, 418705, Note_off_c, 10, 69, 127
1, 418717, Note_on_c, 2, 50, 127
1, 418717, Note_on_c, 6, 66, 127
1, 418977, Note_off_c, 6, 66, 127
1, 418977, Note_off_c, 2, 50, 127
1, 419043, Note_on_c, 7, 43, 127
1, 419043, Note_on_c, 7, 67, 127
1, 421443, Note_off_c, 7, 67, 127
1, 421443, Note_off_c, 7, 43, 127
1, 428544, End_track
0, 0, End_of_file
