0, 0, Header, 0, 1, 384
1, 0, Start_track
1, 0, Copyright_t, "(C) John Sankey 1998"
1, 0, Program_c, 0, 6
1, 0, Pitch_bend_c, 0, 8192
1, 0, Program_c, 1, 6
1, 0, Pitch_bend_c, 1, 7792
1, 0, Program_c, 2, 6
1, 0, Pitch_bend_c, 2, 7876
1, 0, Program_c, 3, 6
1, 0, Pitch_bend_c, 3, 7952
1, 0, Program_c, 4, 6
1, 0, Pitch_bend_c, 4, 7792
1, 0, Program_c, 5, 6
1, 0, Pitch_bend_c, 5, 8112
1, 0, Program_c, 6, 6
1, 0, Pitch_bend_c, 6, 7712
1, 0, Program_c, 7, 6
1, 0, Pitch_bend_c, 7, 8037
1, 0, Program_c, 8, 6
1, 0, Pitch_bend_c, 8, 7872
1, 0, Program_c, 10, 6
1, 0, Pitch_bend_c, 10, 7712
1, 0, Program_c, 11, 6
1, 0, Pitch_bend_c, 11, 8032
1, 0, Program_c, 12, 6
1, 0, Pitch_bend_c, 12, 7872
1, 0, Tempo, 500000
1, 48, Note_on_c, 2, 50, 127
1, 48, Note_on_c, 5, 53, 127
1, 48, Note_on_c, 10, 57, 127
1, 48, Note_on_c, 2, 62, 127
1, 48, Note_on_c, 5, 65, 127
1, 48, Note_on_c, 10, 69, 127
1, 48, Note_on_c, 2, 74, 127
1, 1648, Note_off_c, 2, 74, 127
1, 1648, Note_off_c, 10, 69, 127
1, 1648, Note_off_c, 5, 65, 127
1, 1648, Note_off_c, 2, 62, 127
1, 1648, Note_off_c, 10, 57, 127
1, 1648, Note_off_c, 5, 53, 127
1, 1787, Note_on_c, 2, 38, 127
1, 1787, Note_on_c, 10, 69, 127
1, 2222, Note_on_c, 5, 65, 127
1, 2648, Note_off_c, 10, 69, 127
1, 2655, Note_off_c, 5, 65, 127
1, 2657, Note_on_c, 10, 69, 127
1, 3089, Note_off_c, 10, 69, 127
1, 3091, Note_on_c, 2, 62, 127
1, 3523, Note_off_c, 2, 62, 127
1, 3523, Note_off_c, 2, 38, 127
1, 3532, Note_off_c, 2, 50, 127
1, 3541, Note_on_c, 11, 70, 127
1, 3541, Note_on_c, 5, 65, 127
1, 3541, Note_on_c, 5, 53, 127
1, 3541, Note_on_c, 2, 50, 127
1, 3973, Note_off_c, 2, 50, 127
1, 3973, Note_off_c, 5, 53, 127
1, 3973, Note_off_c, 5, 65, 127
1, 3975, Note_on_c, 2, 62, 127
1, 3975, Note_on_c, 5, 53, 127
1, 3975, Note_on_c, 11, 46, 127
1, 4407, Note_off_c, 11, 46, 127
1, 4407, Note_off_c, 5, 53, 127
1, 4407, Note_off_c, 2, 62, 127
1, 4409, Note_on_c, 5, 65, 127
1, 4409, Note_on_c, 2, 50, 127
1, 4409, Note_on_c, 5, 53, 127
1, 4841, Note_off_c, 5, 53, 127
1, 4841, Note_off_c, 2, 50, 127
1, 4841, Note_off_c, 5, 65, 127
1, 4843, Note_on_c, 11, 58, 127
1, 4843, Note_on_c, 7, 55, 127
1, 4843, Note_on_c, 7, 43, 127
1, 5058, Note_off_c, 7, 55, 127
1, 5079, Note_on_c, 8, 56, 127
1, 5275, Note_off_c, 11, 70, 127
1, 5283, Note_off_c, 7, 43, 127
1, 5293, Note_off_c, 11, 58, 127
1, 5310, Note_off_c, 8, 56, 127
1, 5319, Note_on_c, 7, 67, 127
1, 5319, Note_on_c, 11, 58, 127
1, 5319, Note_on_c, 3, 51, 127
1, 5784, Note_on_c, 11, 70, 127
1, 6216, Note_off_c, 11, 70, 127
1, 6218, Note_on_c, 11, 70, 127
1, 6650, Note_off_c, 11, 70, 127
1, 6652, Note_on_c, 11, 70, 127
1, 7049, Note_off_c, 7, 67, 127
1, 7054, Note_off_c, 3, 51, 127
1, 7054, Note_off_c, 11, 58, 127
1, 7084, Note_off_c, 11, 70, 127
1, 7086, Note_on_c, 12, 71, 127
1, 7521, Note_on_c, 2, 50, 127
1, 7521, Note_on_c, 2, 62, 127
1, 7521, Note_on_c, 5, 65, 127
1, 7953, Note_off_c, 5, 65, 127
1, 7953, Note_off_c, 2, 62, 127
1, 7953, Note_off_c, 2, 50, 127
1, 7955, Note_on_c, 2, 62, 127
1, 7955, Note_on_c, 2, 50, 127
1, 7955, Note_on_c, 5, 65, 127
1, 8387, Note_off_c, 5, 65, 127
1, 8387, Note_off_c, 2, 50, 127
1, 8387, Note_off_c, 2, 62, 127
1, 8389, Note_on_c, 0, 60, 127
1, 8389, Note_on_c, 5, 53, 127
1, 8389, Note_on_c, 3, 63, 127
1, 8604, Note_off_c, 5, 53, 127
1, 8618, Note_on_c, 3, 51, 127
1, 8829, Note_off_c, 3, 63, 127
1, 8829, Note_off_c, 0, 60, 127
1, 8833, Note_off_c, 3, 51, 127
1, 8838, Note_off_c, 12, 71, 127
1, 8839, Note_on_c, 2, 62, 127
1, 8839, Note_on_c, 5, 53, 127
1, 8839, Note_on_c, 12, 59, 127
1, 9302, Note_on_c, 12, 71, 127
1, 9734, Note_off_c, 12, 71, 127
1, 9746, Note_on_c, 12, 71, 127
1, 10178, Note_off_c, 12, 71, 127
1, 10190, Note_on_c, 12, 71, 127
1, 10569, Note_off_c, 2, 62, 127
1, 10574, Note_off_c, 12, 59, 127
1, 10574, Note_off_c, 5, 53, 127
1, 10622, Note_off_c, 12, 71, 127
1, 10632, Note_on_c, 1, 73, 127
1, 11067, Note_on_c, 7, 67, 127
1, 11067, Note_on_c, 4, 64, 127
1, 11067, Note_on_c, 4, 52, 127
1, 11499, Note_off_c, 4, 52, 127
1, 11499, Note_off_c, 4, 64, 127
1, 11499, Note_off_c, 7, 67, 127
1, 11501, Note_on_c, 7, 67, 127
1, 11501, Note_on_c, 4, 64, 127
1, 11501, Note_on_c, 4, 52, 127
1, 11933, Note_off_c, 4, 52, 127
1, 11933, Note_off_c, 4, 64, 127
1, 11933, Note_off_c, 7, 67, 127
1, 11935, Note_on_c, 5, 65, 127
1, 11935, Note_on_c, 2, 62, 127
1, 11935, Note_on_c, 7, 55, 127
1, 12150, Note_off_c, 7, 55, 127
1, 12152, Note_on_c, 5, 53, 127
1, 12365, Note_off_c, 2, 62, 127
1, 12367, Note_off_c, 5, 53, 127
1, 12367, Note_off_c, 5, 65, 127
1, 12367, Note_off_c, 1, 73, 127
1, 12369, Note_on_c, 4, 64, 127
1, 12369, Note_on_c, 7, 55, 127
1, 12369, Note_on_c, 1, 61, 127
1, 12872, Note_on_c, 1, 73, 127
1, 13304, Note_off_c, 1, 73, 127
1, 13336, Note_on_c, 1, 73, 127
1, 13768, Note_off_c, 1, 73, 127
1, 13800, Note_on_c, 1, 73, 127
1, 14104, Note_off_c, 1, 61, 127
1, 14104, Note_off_c, 7, 55, 127
1, 14104, Note_off_c, 4, 64, 127
1, 14232, Note_off_c, 1, 73, 127
1, 14250, Note_on_c, 2, 74, 127
1, 14685, Note_on_c, 10, 69, 127
1, 14685, Note_on_c, 5, 65, 127
1, 14685, Note_on_c, 5, 53, 127
1, 14900, Note_off_c, 5, 65, 127
1, 14900, Note_off_c, 10, 69, 127
1, 14902, Note_on_c, 7, 67, 127
1, 14902, Note_on_c, 4, 64, 127
1, 15110, Note_off_c, 2, 74, 127
1, 15115, Note_off_c, 5, 53, 127
1, 15117, Note_off_c, 4, 64, 127
1, 15117, Note_off_c, 7, 67, 127
1, 15119, Note_on_c, 5, 65, 127
1, 15119, Note_on_c, 5, 53, 127
1, 15119, Note_on_c, 2, 62, 127
1, 15334, Note_off_c, 2, 62, 127
1, 15334, Note_off_c, 5, 65, 127
1, 15336, Note_on_c, 4, 64, 127
1, 15336, Note_on_c, 1, 61, 127
1, 15549, Note_off_c, 5, 53, 127
1, 15551, Note_off_c, 1, 61, 127
1, 15551, Note_off_c, 4, 64, 127
1, 15553, Note_on_c, 5, 65, 127
1, 15553, Note_on_c, 2, 62, 127
1, 15553, Note_on_c, 10, 57, 127
1, 15768, Note_off_c, 10, 57, 127
1, 15770, Note_on_c, 8, 56, 127
1, 15983, Note_off_c, 2, 62, 127
1, 15985, Note_off_c, 8, 56, 127
1, 15985, Note_off_c, 5, 65, 127
1, 15987, Note_on_c, 5, 65, 127
1, 15987, Note_on_c, 10, 57, 127
1, 15987, Note_on_c, 2, 62, 127
1, 16078, Note_off_c, 5, 65, 127
1, 16078, Note_on_c, 4, 64, 127
1, 16169, Note_off_c, 4, 64, 127
1, 16169, Note_on_c, 5, 65, 127
1, 16260, Note_off_c, 5, 65, 127
1, 16260, Note_on_c, 4, 64, 127
1, 16421, Note_off_c, 2, 62, 127
1, 16423, Note_on_c, 1, 61, 127
1, 16855, Note_off_c, 1, 61, 127
1, 16857, Note_on_c, 10, 45, 127
1, 17267, Note_off_c, 4, 64, 127
1, 17292, Note_on_c, 2, 62, 127
1, 17724, Note_off_c, 2, 62, 127
1, 17724, Note_off_c, 10, 45, 127
1, 17724, Note_off_c, 10, 57, 127
1, 17742, Note_on_c, 5, 53, 127
1, 17742, Note_on_c, 2, 50, 127
1, 17742, Note_on_c, 10, 57, 127
1, 17742, Note_on_c, 2, 62, 127
1, 17851, Note_off_c, 2, 62, 127
1, 17852, Note_on_c, 4, 64, 127
1, 17961, Note_off_c, 4, 64, 127
1, 17962, Note_on_c, 5, 65, 127
1, 18071, Note_off_c, 5, 65, 127
1, 18072, Note_on_c, 7, 67, 127
1, 18177, Note_off_c, 10, 57, 127
1, 18177, Note_off_c, 2, 50, 127
1, 18177, Note_off_c, 5, 53, 127
1, 18180, Note_off_c, 7, 67, 127
1, 18181, Note_on_c, 10, 69, 127
1, 18290, Note_off_c, 10, 69, 127
1, 18291, Note_on_c, 2, 50, 127
1, 18291, Note_on_c, 12, 71, 127
1, 18400, Note_off_c, 12, 71, 127
1, 18400, Note_off_c, 2, 50, 127
1, 18401, Note_on_c, 1, 49, 127
1, 18401, Note_on_c, 1, 73, 127
1, 18510, Note_off_c, 1, 73, 127
1, 18510, Note_off_c, 1, 49, 127
1, 18511, Note_on_c, 12, 47, 127
1, 18511, Note_on_c, 2, 74, 127
1, 18620, Note_off_c, 2, 74, 127
1, 18620, Note_off_c, 12, 47, 127
1, 18621, Note_on_c, 10, 45, 127
1, 18621, Note_on_c, 1, 73, 127
1, 18730, Note_off_c, 1, 73, 127
1, 18730, Note_off_c, 10, 45, 127
1, 18731, Note_on_c, 11, 46, 127
1, 18731, Note_on_c, 2, 74, 127
1, 18840, Note_off_c, 2, 74, 127
1, 18840, Note_off_c, 11, 46, 127
1, 18841, Note_on_c, 10, 45, 127
1, 18841, Note_on_c, 1, 73, 127
1, 18950, Note_off_c, 1, 73, 127
1, 18950, Note_off_c, 10, 45, 127
1, 18951, Note_on_c, 7, 43, 127
1, 18951, Note_on_c, 12, 71, 127
1, 19060, Note_off_c, 12, 71, 127
1, 19060, Note_off_c, 7, 43, 127
1, 19061, Note_on_c, 5, 41, 127
1, 19061, Note_on_c, 10, 69, 127
1, 19170, Note_off_c, 10, 69, 127
1, 19170, Note_off_c, 5, 41, 127
1, 19171, Note_on_c, 7, 43, 127
1, 19171, Note_on_c, 11, 70, 127
1, 19280, Note_off_c, 11, 70, 127
1, 19280, Note_off_c, 7, 43, 127
1, 19281, Note_on_c, 5, 41, 127
1, 19281, Note_on_c, 10, 69, 127
1, 19390, Note_off_c, 10, 69, 127
1, 19390, Note_off_c, 5, 41, 127
1, 19391, Note_on_c, 4, 40, 127
1, 19391, Note_on_c, 7, 67, 127
1, 19500, Note_off_c, 7, 67, 127
1, 19500, Note_off_c, 4, 40, 127
1, 19501, Note_on_c, 2, 38, 127
1, 19501, Note_on_c, 5, 65, 127
1, 19610, Note_off_c, 5, 65, 127
1, 19611, Note_on_c, 7, 67, 127
1, 19720, Note_off_c, 7, 67, 127
1, 19721, Note_on_c, 5, 65, 127
1, 19830, Note_off_c, 5, 65, 127
1, 19831, Note_on_c, 4, 64, 127
1, 19936, Note_off_c, 2, 38, 127
1, 19939, Note_off_c, 4, 64, 127
1, 19940, Note_on_c, 2, 62, 127
1, 20049, Note_off_c, 2, 62, 127
1, 20050, Note_on_c, 4, 64, 127
1, 20159, Note_off_c, 4, 64, 127
1, 20160, Note_on_c, 5, 65, 127
1, 20269, Note_off_c, 5, 65, 127
1, 20270, Note_on_c, 7, 67, 127
1, 20379, Note_off_c, 7, 67, 127
1, 20380, Note_on_c, 10, 69, 127
1, 20490, Note_on_c, 2, 62, 127
1, 20599, Note_off_c, 2, 62, 127
1, 20600, Note_on_c, 2, 38, 127
1, 20600, Note_on_c, 5, 65, 127
1, 20701, Note_off_c, 10, 69, 127
1, 20709, Note_off_c, 5, 65, 127
1, 20710, Note_on_c, 10, 69, 127
1, 20819, Note_off_c, 2, 38, 127
1, 20820, Note_on_c, 5, 41, 127
1, 20820, Note_on_c, 2, 62, 127
1, 20927, Note_off_c, 10, 69, 127
1, 20928, Note_off_c, 2, 62, 127
1, 20929, Note_on_c, 10, 69, 127
1, 21038, Note_off_c, 5, 41, 127
1, 21039, Note_on_c, 10, 45, 127
1, 21039, Note_on_c, 5, 65, 127
1, 21148, Note_off_c, 5, 65, 127
1, 21149, Note_on_c, 2, 62, 127
1, 21250, Note_off_c, 10, 69, 127
1, 21258, Note_off_c, 2, 62, 127
1, 21258, Note_off_c, 10, 45, 127
1, 21259, Note_on_c, 2, 50, 127
1, 21259, Note_on_c, 10, 69, 127
1, 21369, Note_on_c, 2, 62, 127
1, 21478, Note_off_c, 2, 62, 127
1, 21479, Note_on_c, 5, 65, 127
1, 21580, Note_off_c, 10, 69, 127
1, 21588, Note_off_c, 5, 65, 127
1, 21589, Note_on_c, 10, 69, 127
1, 21694, Note_off_c, 2, 50, 127
1, 21699, Note_on_c, 2, 62, 127
1, 21806, Note_off_c, 10, 69, 127
1, 21807, Note_off_c, 2, 62, 127
1, 21808, Note_on_c, 10, 69, 127
1, 21918, Note_on_c, 5, 65, 127
1, 22027, Note_off_c, 5, 65, 127
1, 22028, Note_on_c, 2, 62, 127
1, 22083, Note_off_c, 10, 69, 127
1, 22137, Note_off_c, 2, 62, 127
1, 22138, Note_on_c, 11, 70, 127
1, 22248, Note_on_c, 2, 62, 127
1, 22357, Note_off_c, 2, 62, 127
1, 22358, Note_on_c, 7, 43, 127
1, 22358, Note_on_c, 7, 67, 127
1, 22459, Note_off_c, 11, 70, 127
1, 22467, Note_off_c, 7, 67, 127
1, 22468, Note_on_c, 11, 70, 127
1, 22577, Note_off_c, 7, 43, 127
1, 22578, Note_on_c, 11, 46, 127
1, 22578, Note_on_c, 2, 62, 127
1, 22685, Note_off_c, 11, 70, 127
1, 22686, Note_off_c, 2, 62, 127
1, 22687, Note_on_c, 11, 70, 127
1, 22796, Note_off_c, 11, 46, 127
1, 22797, Note_on_c, 2, 50, 127
1, 22797, Note_on_c, 7, 67, 127
1, 22906, Note_off_c, 7, 67, 127
1, 22907, Note_on_c, 2, 62, 127
1, 23008, Note_off_c, 11, 70, 127
1, 23016, Note_off_c, 2, 62, 127
1, 23016, Note_off_c, 2, 50, 127
1, 23017, Note_on_c, 7, 55, 127
1, 23017, Note_on_c, 11, 70, 127
1, 23127, Note_on_c, 2, 62, 127
1, 23236, Note_off_c, 2, 62, 127
1, 23237, Note_on_c, 7, 67, 127
1, 23338, Note_off_c, 11, 70, 127
1, 23346, Note_off_c, 7, 67, 127
1, 23347, Note_on_c, 11, 70, 127
1, 23452, Note_off_c, 7, 55, 127
1, 23457, Note_on_c, 2, 62, 127
1, 23564, Note_off_c, 11, 70, 127
1, 23565, Note_off_c, 2, 62, 127
1, 23566, Note_on_c, 11, 70, 127
1, 23676, Note_on_c, 7, 67, 127
1, 23785, Note_off_c, 7, 67, 127
1, 23786, Note_on_c, 2, 62, 127
1, 23841, Note_off_c, 11, 70, 127
1, 23895, Note_off_c, 2, 62, 127
1, 23896, Note_on_c, 12, 71, 127
1, 24006, Note_on_c, 2, 62, 127
1, 24115, Note_off_c, 2, 62, 127
1, 24116, Note_on_c, 7, 43, 127
1, 24116, Note_on_c, 5, 65, 127
1, 24196, Note_off_c, 12, 71, 127
1, 24225, Note_off_c, 5, 65, 127
1, 24226, Note_on_c, 12, 71, 127
1, 24335, Note_off_c, 7, 43, 127
1, 24336, Note_on_c, 12, 47, 127
1, 24336, Note_on_c, 2, 62, 127
1, 24443, Note_off_c, 12, 71, 127
1, 24444, Note_off_c, 2, 62, 127
1, 24445, Note_on_c, 12, 71, 127
1, 24554, Note_off_c, 12, 47, 127
1, 24555, Note_on_c, 2, 50, 127
1, 24555, Note_on_c, 5, 65, 127
1, 24664, Note_off_c, 5, 65, 127
1, 24665, Note_on_c, 2, 62, 127
1, 24745, Note_off_c, 12, 71, 127
1, 24774, Note_off_c, 2, 62, 127
1, 24774, Note_off_c, 2, 50, 127
1, 24775, Note_on_c, 7, 55, 127
1, 24775, Note_on_c, 12, 71, 127
1, 24885, Note_on_c, 2, 62, 127
1, 24994, Note_off_c, 2, 62, 127
1, 24995, Note_on_c, 5, 65, 127
1, 25075, Note_off_c, 12, 71, 127
1, 25104, Note_off_c, 5, 65, 127
1, 25105, Note_on_c, 12, 71, 127
1, 25210, Note_off_c, 7, 55, 127
1, 25215, Note_on_c, 2, 62, 127
1, 25322, Note_off_c, 12, 71, 127
1, 25323, Note_off_c, 2, 62, 127
1, 25324, Note_on_c, 12, 71, 127
1, 25434, Note_on_c, 5, 65, 127
1, 25484, Note_off_c, 12, 71, 127
1, 25543, Note_off_c, 5, 65, 127
1, 25544, Note_on_c, 2, 62, 127
1, 25653, Note_off_c, 2, 62, 127
1, 25654, Note_on_c, 0, 72, 127
1, 25764, Note_on_c, 3, 63, 127
1, 25854, Note_off_c, 0, 72, 127
1, 25873, Note_off_c, 3, 63, 127
1, 25874, Note_on_c, 0, 48, 127
1, 25874, Note_on_c, 7, 67, 127
1, 25983, Note_off_c, 7, 67, 127
1, 25984, Note_on_c, 0, 72, 127
1, 26093, Note_off_c, 0, 48, 127
1, 26094, Note_on_c, 3, 51, 127
1, 26094, Note_on_c, 3, 63, 127
1, 26164, Note_off_c, 0, 72, 127
1, 26204, Note_on_c, 0, 72, 127
1, 26311, Note_off_c, 3, 63, 127
1, 26312, Note_off_c, 3, 51, 127
1, 26313, Note_on_c, 7, 55, 127
1, 26313, Note_on_c, 7, 67, 127
1, 26404, Note_off_c, 0, 72, 127
1, 26422, Note_off_c, 7, 67, 127
1, 26423, Note_on_c, 3, 63, 127
1, 26532, Note_off_c, 3, 63, 127
1, 26532, Note_off_c, 7, 55, 127
1, 26533, Note_on_c, 0, 60, 127
1, 26533, Note_on_c, 0, 72, 127
1, 26643, Note_on_c, 3, 63, 127
1, 26733, Note_off_c, 0, 72, 127
1, 26752, Note_off_c, 3, 63, 127
1, 26753, Note_on_c, 7, 67, 127
1, 26862, Note_off_c, 7, 67, 127
1, 26863, Note_on_c, 0, 72, 127
1, 26968, Note_off_c, 0, 60, 127
1, 26972, Note_on_c, 3, 63, 127
1, 27023, Note_off_c, 0, 72, 127
1, 27082, Note_on_c, 0, 72, 127
1, 27189, Note_off_c, 3, 63, 127
1, 27191, Note_on_c, 7, 67, 127
1, 27282, Note_off_c, 0, 72, 127
1, 27300, Note_off_c, 7, 67, 127
1, 27301, Note_on_c, 3, 63, 127
1, 27410, Note_off_c, 3, 63, 127
1, 27411, Note_on_c, 1, 73, 127
1, 27521, Note_on_c, 4, 64, 127
1, 27630, Note_off_c, 4, 64, 127
1, 27631, Note_on_c, 10, 45, 127
1, 27631, Note_on_c, 7, 67, 127
1, 27691, Note_off_c, 1, 73, 127
1, 27740, Note_off_c, 7, 67, 127
1, 27741, Note_on_c, 1, 73, 127
1, 27850, Note_off_c, 10, 45, 127
1, 27851, Note_on_c, 1, 49, 127
1, 27851, Note_on_c, 4, 64, 127
1, 27871, Note_off_c, 1, 73, 127
1, 27961, Note_on_c, 1, 73, 127
1, 28070, Note_off_c, 1, 49, 127
1, 28071, Note_on_c, 4, 52, 127
1, 28071, Note_on_c, 7, 67, 127
1, 28121, Note_off_c, 1, 73, 127
1, 28172, Note_off_c, 4, 64, 127
1, 28180, Note_off_c, 7, 67, 127
1, 28181, Note_on_c, 4, 64, 127
1, 28290, Note_off_c, 4, 64, 127
1, 28290, Note_off_c, 4, 52, 127
1, 28291, Note_on_c, 10, 57, 127
1, 28291, Note_on_c, 1, 73, 127
1, 28401, Note_on_c, 4, 64, 127
1, 28510, Note_off_c, 4, 64, 127
1, 28511, Note_on_c, 7, 67, 127
1, 28551, Note_off_c, 1, 73, 127
1, 28620, Note_off_c, 7, 67, 127
1, 28621, Note_on_c, 1, 73, 127
1, 28726, Note_off_c, 10, 57, 127
1, 28730, Note_on_c, 4, 64, 127
1, 28781, Note_off_c, 1, 73, 127
1, 28840, Note_on_c, 1, 73, 127
1, 28949, Note_off_c, 1, 73, 127
1, 28950, Note_on_c, 7, 67, 127
1, 29051, Note_off_c, 4, 64, 127
1, 29059, Note_off_c, 7, 67, 127
1, 29060, Note_on_c, 4, 64, 127
1, 29169, Note_off_c, 4, 64, 127
1, 29170, Note_on_c, 2, 74, 127
1, 29280, Note_on_c, 5, 65, 127
1, 29389, Note_off_c, 5, 65, 127
1, 29390, Note_on_c, 2, 50, 127
1, 29390, Note_on_c, 10, 69, 127
1, 29491, Note_off_c, 2, 74, 127
1, 29499, Note_off_c, 10, 69, 127
1, 29500, Note_on_c, 2, 74, 127
1, 29609, Note_off_c, 2, 74, 127
1, 29609, Note_off_c, 2, 50, 127
1, 29610, Note_on_c, 5, 53, 127
1, 29610, Note_on_c, 5, 65, 127
1, 29720, Note_on_c, 2, 74, 127
1, 29829, Note_off_c, 2, 74, 127
1, 29829, Note_off_c, 5, 53, 127
1, 29830, Note_on_c, 10, 57, 127
1, 29830, Note_on_c, 10, 69, 127
1, 29931, Note_off_c, 5, 65, 127
1, 29939, Note_off_c, 10, 69, 127
1, 29940, Note_on_c, 5, 65, 127
1, 30049, Note_off_c, 10, 57, 127
1, 30050, Note_on_c, 2, 62, 127
1, 30050, Note_on_c, 2, 74, 127
1, 30157, Note_off_c, 5, 65, 127
1, 30159, Note_on_c, 5, 65, 127
1, 30268, Note_off_c, 5, 65, 127
1, 30269, Note_on_c, 10, 69, 127
1, 30370, Note_off_c, 2, 74, 127
1, 30378, Note_off_c, 10, 69, 127
1, 30379, Note_on_c, 2, 74, 127
1, 30484, Note_off_c, 2, 62, 127
1, 30487, Note_off_c, 2, 74, 127
1, 30488, Note_on_c, 5, 65, 127
1, 30598, Note_on_c, 2, 74, 127
1, 30707, Note_off_c, 2, 74, 127
1, 30708, Note_on_c, 10, 69, 127
1, 30809, Note_off_c, 5, 65, 127
1, 30817, Note_off_c, 10, 69, 127
1, 30818, Note_on_c, 5, 65, 127
1, 30927, Note_off_c, 5, 65, 127
1, 30928, Note_on_c, 5, 77, 127
1, 31037, Note_off_c, 5, 77, 127
1, 31038, Note_on_c, 2, 50, 127
1, 31038, Note_on_c, 10, 69, 127
1, 31147, Note_off_c, 2, 50, 127
1, 31148, Note_on_c, 5, 53, 127
1, 31148, Note_on_c, 2, 74, 127
1, 31257, Note_off_c, 2, 74, 127
1, 31257, Note_off_c, 5, 53, 127
1, 31258, Note_on_c, 10, 57, 127
1, 31258, Note_on_c, 5, 77, 127
1, 31359, Note_off_c, 10, 69, 127
1, 31367, Note_off_c, 5, 77, 127
1, 31367, Note_off_c, 10, 57, 127
1, 31368, Note_on_c, 2, 62, 127
1, 31368, Note_on_c, 10, 69, 127
1, 31477, Note_off_c, 2, 62, 127
1, 31478, Note_on_c, 10, 57, 127
1, 31478, Note_on_c, 5, 77, 127
1, 31587, Note_off_c, 5, 77, 127
1, 31587, Note_off_c, 10, 57, 127
1, 31588, Note_on_c, 5, 53, 127
1, 31588, Note_on_c, 2, 74, 127
1, 31689, Note_off_c, 10, 69, 127
1, 31697, Note_off_c, 2, 74, 127
1, 31697, Note_off_c, 5, 53, 127
1, 31698, Note_on_c, 2, 50, 127
1, 31698, Note_on_c, 10, 69, 127
1, 31807, Note_off_c, 2, 50, 127
1, 31808, Note_on_c, 2, 62, 127
1, 31808, Note_on_c, 5, 77, 127
1, 31915, Note_off_c, 10, 69, 127
1, 31916, Note_off_c, 5, 77, 127
1, 31916, Note_off_c, 2, 62, 127
1, 31917, Note_on_c, 2, 50, 127
1, 31917, Note_on_c, 10, 69, 127
1, 32026, Note_off_c, 2, 50, 127
1, 32027, Note_on_c, 5, 53, 127
1, 32027, Note_on_c, 2, 74, 127
1, 32136, Note_off_c, 2, 74, 127
1, 32136, Note_off_c, 5, 53, 127
1, 32137, Note_on_c, 10, 57, 127
1, 32137, Note_on_c, 5, 77, 127
1, 32238, Note_off_c, 10, 69, 127
1, 32246, Note_off_c, 5, 77, 127
1, 32246, Note_off_c, 10, 57, 127
1, 32247, Note_on_c, 2, 62, 127
1, 32247, Note_on_c, 10, 69, 127
1, 32356, Note_off_c, 2, 62, 127
1, 32357, Note_on_c, 10, 57, 127
1, 32357, Note_on_c, 5, 77, 127
1, 32466, Note_off_c, 5, 77, 127
1, 32466, Note_off_c, 10, 57, 127
1, 32467, Note_on_c, 5, 53, 127
1, 32467, Note_on_c, 2, 74, 127
1, 32568, Note_off_c, 10, 69, 127
1, 32576, Note_off_c, 2, 74, 127
1, 32576, Note_off_c, 5, 53, 127
1, 32577, Note_on_c, 2, 50, 127
1, 32577, Note_on_c, 10, 69, 127
1, 32686, Note_off_c, 10, 69, 127
1, 32686, Note_off_c, 2, 50, 127
1, 32687, Note_on_c, 0, 60, 127
1, 32687, Note_on_c, 6, 78, 127
1, 32796, Note_off_c, 6, 78, 127
1, 32796, Note_off_c, 0, 60, 127
1, 32797, Note_on_c, 2, 50, 127
1, 32797, Note_on_c, 10, 69, 127
1, 32906, Note_off_c, 2, 50, 127
1, 32907, Note_on_c, 6, 54, 127
1, 32907, Note_on_c, 0, 72, 127
1, 33016, Note_off_c, 0, 72, 127
1, 33016, Note_off_c, 6, 54, 127
1, 33017, Note_on_c, 10, 57, 127
1, 33017, Note_on_c, 6, 78, 127
1, 33118, Note_off_c, 10, 69, 127
1, 33126, Note_off_c, 6, 78, 127
1, 33126, Note_off_c, 10, 57, 127
1, 33127, Note_on_c, 0, 60, 127
1, 33127, Note_on_c, 10, 69, 127
1, 33236, Note_off_c, 0, 60, 127
1, 33237, Note_on_c, 10, 57, 127
1, 33237, Note_on_c, 6, 78, 127
1, 33346, Note_off_c, 6, 78, 127
1, 33346, Note_off_c, 10, 57, 127
1, 33347, Note_on_c, 6, 54, 127
1, 33347, Note_on_c, 0, 72, 127
1, 33448, Note_off_c, 10, 69, 127
1, 33456, Note_off_c, 0, 72, 127
1, 33456, Note_off_c, 6, 54, 127
1, 33457, Note_on_c, 2, 50, 127
1, 33457, Note_on_c, 10, 69, 127
1, 33566, Note_off_c, 2, 50, 127
1, 33567, Note_on_c, 0, 60, 127
1, 33567, Note_on_c, 6, 78, 127
1, 33674, Note_off_c, 10, 69, 127
1, 33675, Note_off_c, 6, 78, 127
1, 33675, Note_off_c, 0, 60, 127
1, 33676, Note_on_c, 2, 50, 127
1, 33676, Note_on_c, 10, 69, 127
1, 33785, Note_off_c, 2, 50, 127
1, 33786, Note_on_c, 6, 54, 127
1, 33786, Note_on_c, 0, 72, 127
1, 33895, Note_off_c, 0, 72, 127
1, 33895, Note_off_c, 6, 54, 127
1, 33896, Note_on_c, 10, 57, 127
1, 33896, Note_on_c, 6, 78, 127
1, 33997, Note_off_c, 10, 69, 127
1, 34005, Note_off_c, 6, 78, 127
1, 34005, Note_off_c, 10, 57, 127
1, 34006, Note_on_c, 0, 60, 127
1, 34006, Note_on_c, 10, 69, 127
1, 34115, Note_off_c, 0, 60, 127
1, 34116, Note_on_c, 10, 57, 127
1, 34116, Note_on_c, 6, 78, 127
1, 34223, Note_off_c, 10, 69, 127
1, 34224, Note_off_c, 6, 78, 127
1, 34224, Note_off_c, 10, 57, 127
1, 34225, Note_on_c, 6, 54, 127
1, 34225, Note_on_c, 0, 72, 127
1, 34334, Note_off_c, 0, 72, 127
1, 34334, Note_off_c, 6, 54, 127
1, 34335, Note_on_c, 2, 50, 127
1, 34335, Note_on_c, 10, 69, 127
1, 34444, Note_off_c, 10, 69, 127
1, 34444, Note_off_c, 2, 50, 127
1, 34469, Note_on_c, 7, 79, 127
1, 34469, Note_on_c, 12, 59, 127
1, 34967, Note_off_c, 12, 59, 127
1, 34970, Note_on_c, 7, 67, 127
1, 34970, Note_on_c, 2, 62, 127
1, 34970, Note_on_c, 7, 55, 127
1, 34970, Note_on_c, 12, 47, 127
1, 35218, Note_off_c, 7, 55, 127
1, 35221, Note_on_c, 2, 50, 127
1, 35461, Note_off_c, 7, 79, 127
1, 35466, Note_off_c, 12, 47, 127
1, 35469, Note_off_c, 2, 50, 127
1, 35469, Note_off_c, 2, 62, 127
1, 35469, Note_off_c, 7, 67, 127
1, 35472, Note_on_c, 7, 67, 127
1, 35472, Note_on_c, 2, 62, 127
1, 35472, Note_on_c, 12, 59, 127
1, 35472, Note_on_c, 12, 47, 127
1, 35720, Note_off_c, 12, 59, 127
1, 35723, Note_on_c, 7, 55, 127
1, 35968, Note_off_c, 12, 47, 127
1, 35971, Note_off_c, 7, 55, 127
1, 35971, Note_off_c, 2, 62, 127
1, 35971, Note_off_c, 7, 67, 127
1, 35974, Note_on_c, 7, 67, 127
1, 35974, Note_on_c, 2, 62, 127
1, 35974, Note_on_c, 12, 47, 127
1, 36224, Note_on_c, 5, 53, 127
1, 36469, Note_off_c, 12, 47, 127
1, 36472, Note_off_c, 5, 53, 127
1, 36472, Note_off_c, 2, 62, 127
1, 36472, Note_off_c, 7, 67, 127
1, 36475, Note_on_c, 7, 67, 127
1, 36475, Note_on_c, 0, 60, 127
1, 36475, Note_on_c, 4, 52, 127
1, 36475, Note_on_c, 0, 48, 127
1, 37008, Note_off_c, 0, 60, 127
1, 37008, Note_off_c, 7, 67, 127
1, 37011, Note_on_c, 4, 76, 127
1, 37536, Note_off_c, 0, 48, 127
1, 37536, Note_off_c, 4, 52, 127
1, 37544, Note_off_c, 4, 76, 127
1, 37547, Note_on_c, 4, 76, 127
1, 37678, Note_off_c, 4, 76, 127
1, 37681, Note_on_c, 5, 77, 127
1, 37812, Note_off_c, 5, 77, 127
1, 37815, Note_on_c, 4, 76, 127
1, 37946, Note_off_c, 4, 76, 127
1, 37949, Note_on_c, 5, 77, 127
1, 38080, Note_off_c, 5, 77, 127
1, 38083, Note_on_c, 7, 79, 127
1, 38206, Note_on_c, 5, 77, 127
1, 38221, Note_off_c, 7, 79, 127
1, 38326, Note_off_c, 5, 77, 127
1, 38329, Note_on_c, 4, 76, 127
1, 38420, Note_off_c, 4, 76, 127
1, 38435, Note_on_c, 5, 77, 127
1, 38537, Note_off_c, 5, 77, 127
1, 38540, Note_on_c, 7, 79, 127
1, 38642, Note_off_c, 7, 79, 127
1, 38645, Note_on_c, 0, 72, 127
1, 39157, Note_on_c, 7, 67, 127
1, 39157, Note_on_c, 0, 60, 127
1, 39157, Note_on_c, 4, 52, 127
1, 39410, Note_off_c, 0, 60, 127
1, 39413, Note_on_c, 7, 55, 127
1, 39664, Note_off_c, 4, 52, 127
1, 39667, Note_off_c, 7, 55, 127
1, 39667, Note_off_c, 7, 67, 127
1, 39670, Note_on_c, 7, 67, 127
1, 39670, Note_on_c, 4, 52, 127
1, 39670, Note_on_c, 4, 64, 127
1, 39923, Note_off_c, 4, 64, 127
1, 39926, Note_on_c, 0, 60, 127
1, 40177, Note_off_c, 4, 52, 127
1, 40180, Note_off_c, 0, 60, 127
1, 40180, Note_off_c, 7, 67, 127
1, 40183, Note_on_c, 7, 67, 127
1, 40183, Note_on_c, 4, 52, 127
1, 40439, Note_on_c, 11, 58, 127
1, 40690, Note_off_c, 4, 52, 127
1, 40693, Note_off_c, 11, 58, 127
1, 40693, Note_off_c, 7, 67, 127
1, 40693, Note_off_c, 0, 72, 127
1, 40696, Note_on_c, 5, 65, 127
1, 40696, Note_on_c, 10, 57, 127
1, 40696, Note_on_c, 5, 53, 127
1, 41258, Note_on_c, 2, 74, 127
1, 41808, Note_off_c, 5, 53, 127
1, 41808, Note_off_c, 10, 57, 127
1, 41808, Note_off_c, 5, 65, 127
1, 41817, Note_off_c, 2, 74, 127
1, 41820, Note_on_c, 2, 74, 127
1, 41958, Note_off_c, 2, 74, 127
1, 41961, Note_on_c, 4, 76, 127
1, 42099, Note_off_c, 4, 76, 127
1, 42102, Note_on_c, 5, 77, 127
1, 42240, Note_off_c, 5, 77, 127
1, 42243, Note_on_c, 4, 76, 127
1, 42381, Note_off_c, 4, 76, 127
1, 42384, Note_on_c, 2, 74, 127
1, 42510, Note_off_c, 2, 74, 127
1, 42513, Note_on_c, 0, 72, 127
1, 42639, Note_off_c, 0, 72, 127
1, 42642, Note_on_c, 12, 71, 127
1, 42750, Note_off_c, 12, 71, 127
1, 42753, Note_on_c, 0, 72, 127
1, 42861, Note_off_c, 0, 72, 127
1, 42864, Note_on_c, 2, 74, 127
1, 42972, Note_off_c, 2, 74, 127
1, 42975, Note_on_c, 8, 68, 127
1, 43496, Note_off_c, 8, 68, 127
1, 43499, Note_on_c, 4, 64, 127
1, 43499, Note_on_c, 4, 52, 127
1, 43499, Note_on_c, 12, 59, 127
1, 43758, Note_off_c, 4, 52, 127
1, 43761, Note_on_c, 12, 47, 127
1, 44017, Note_off_c, 12, 59, 127
1, 44020, Note_off_c, 12, 47, 127
1, 44020, Note_off_c, 4, 64, 127
1, 44023, Note_on_c, 4, 64, 127
1, 44023, Note_on_c, 8, 56, 127
1, 44023, Note_on_c, 12, 59, 127
1, 44282, Note_off_c, 8, 56, 127
1, 44285, Note_on_c, 4, 52, 127
1, 44541, Note_off_c, 12, 59, 127
1, 44544, Note_off_c, 4, 52, 127
1, 44544, Note_off_c, 4, 64, 127
1, 44547, Note_on_c, 4, 64, 127
1, 44547, Note_on_c, 12, 59, 127
1, 44809, Note_on_c, 2, 50, 127
1, 45065, Note_off_c, 12, 59, 127
1, 45068, Note_off_c, 2, 50, 127
1, 45068, Note_off_c, 4, 64, 127
1, 45071, Note_on_c, 4, 64, 127
1, 45071, Note_on_c, 1, 49, 127
1, 45071, Note_on_c, 10, 57, 127
1, 45647, Note_on_c, 7, 67, 127
1, 46211, Note_off_c, 10, 57, 127
1, 46211, Note_off_c, 1, 49, 127
1, 46211, Note_off_c, 4, 64, 127
1, 46220, Note_off_c, 7, 67, 127
1, 46223, Note_on_c, 7, 67, 127
1, 46364, Note_off_c, 7, 67, 127
1, 46367, Note_on_c, 4, 76, 127
1, 46508, Note_off_c, 4, 76, 127
1, 46511, Note_on_c, 1, 73, 127
1, 46652, Note_off_c, 1, 73, 127
1, 46655, Note_on_c, 11, 70, 127
1, 46796, Note_off_c, 11, 70, 127
1, 46799, Note_on_c, 10, 69, 127
1, 46947, Note_off_c, 10, 69, 127
1, 46950, Note_on_c, 7, 67, 127
1, 47096, Note_on_c, 11, 70, 127
1, 47098, Note_off_c, 7, 67, 127
1, 47252, Note_off_c, 11, 70, 127
1, 47264, Note_on_c, 10, 69, 127
1, 47405, Note_on_c, 6, 66, 127
1, 47407, Note_off_c, 10, 69, 127
1, 47929, Note_on_c, 2, 62, 127
1, 47929, Note_on_c, 10, 57, 127
1, 47929, Note_on_c, 2, 50, 127
1, 48188, Note_off_c, 2, 50, 127
1, 48191, Note_on_c, 10, 45, 127
1, 48447, Note_off_c, 10, 57, 127
1, 48450, Note_off_c, 10, 45, 127
1, 48450, Note_off_c, 2, 62, 127
1, 48453, Note_on_c, 2, 62, 127
1, 48453, Note_on_c, 6, 54, 127
1, 48453, Note_on_c, 10, 57, 127
1, 48712, Note_off_c, 6, 54, 127
1, 48715, Note_on_c, 2, 50, 127
1, 48971, Note_off_c, 10, 57, 127
1, 48974, Note_off_c, 2, 50, 127
1, 48974, Note_off_c, 2, 62, 127
1, 48977, Note_on_c, 2, 62, 127
1, 48977, Note_on_c, 10, 57, 127
1, 49239, Note_on_c, 0, 48, 127
1, 49495, Note_off_c, 10, 57, 127
1, 49498, Note_off_c, 0, 48, 127
1, 49498, Note_off_c, 2, 62, 127
1, 49498, Note_off_c, 6, 66, 127
1, 49501, Note_on_c, 2, 62, 127
1, 49501, Note_on_c, 12, 47, 127
1, 49501, Note_on_c, 7, 55, 127
1, 50077, Note_on_c, 5, 65, 127
1, 50641, Note_off_c, 7, 55, 127
1, 50641, Note_off_c, 12, 47, 127
1, 50641, Note_off_c, 2, 62, 127
1, 50650, Note_off_c, 5, 65, 127
1, 50653, Note_on_c, 5, 65, 127
1, 50794, Note_off_c, 5, 65, 127
1, 50797, Note_on_c, 4, 64, 127
1, 50938, Note_off_c, 4, 64, 127
1, 50941, Note_on_c, 2, 62, 127
1, 51082, Note_off_c, 2, 62, 127
1, 51085, Note_on_c, 4, 64, 127
1, 51226, Note_off_c, 4, 64, 127
1, 51229, Note_on_c, 5, 65, 127
1, 51392, Note_off_c, 5, 65, 127
1, 51395, Note_on_c, 7, 67, 127
1, 51537, Note_on_c, 10, 69, 127
1, 51540, Note_off_c, 7, 67, 127
1, 51678, Note_on_c, 7, 67, 127
1, 51681, Note_off_c, 10, 69, 127
1, 51819, Note_on_c, 4, 64, 127
1, 51822, Note_off_c, 7, 67, 127
1, 52331, Note_on_c, 0, 60, 127
1, 52331, Note_on_c, 7, 55, 127
1, 52587, Note_on_c, 0, 48, 127
1, 52838, Note_off_c, 7, 55, 127
1, 52841, Note_off_c, 0, 60, 127
1, 52844, Note_on_c, 0, 60, 127
1, 52844, Note_on_c, 7, 55, 127
1, 53097, Note_off_c, 7, 55, 127
1, 53100, Note_on_c, 4, 52, 127
1, 53335, Note_off_c, 0, 48, 127
1, 53354, Note_off_c, 4, 52, 127
1, 53354, Note_off_c, 0, 60, 127
1, 53357, Note_on_c, 0, 60, 127
1, 53357, Note_on_c, 0, 48, 127
1, 53613, Note_on_c, 4, 52, 127
1, 53864, Note_off_c, 0, 48, 127
1, 53867, Note_off_c, 4, 52, 127
1, 53867, Note_off_c, 0, 60, 127
1, 53867, Note_off_c, 4, 64, 127
1, 53870, Note_on_c, 12, 59, 127
1, 53870, Note_on_c, 2, 50, 127
1, 53870, Note_on_c, 8, 44, 127
1, 54358, Note_off_c, 2, 50, 127
1, 54358, Note_off_c, 12, 59, 127
1, 54377, Note_on_c, 12, 47, 127
1, 54377, Note_on_c, 4, 64, 127
1, 54620, Note_off_c, 4, 64, 127
1, 54623, Note_on_c, 6, 66, 127
1, 54866, Note_off_c, 6, 66, 127
1, 54866, Note_off_c, 12, 47, 127
1, 54869, Note_on_c, 4, 52, 127
1, 54869, Note_on_c, 8, 68, 127
1, 55114, Note_on_c, 4, 64, 127
1, 55328, Note_off_c, 8, 68, 127
1, 55340, Note_off_c, 8, 44, 127
1, 55359, Note_on_c, 8, 44, 127
1, 55359, Note_on_c, 12, 71, 127
1, 55573, Note_off_c, 4, 64, 127
1, 55619, Note_on_c, 2, 62, 127
1, 55665, Note_off_c, 12, 71, 127
1, 55847, Note_off_c, 8, 44, 127
1, 55860, Note_off_c, 4, 52, 127
1, 55866, Note_on_c, 0, 60, 127
1, 55866, Note_on_c, 4, 64, 127
1, 55866, Note_on_c, 10, 57, 127
1, 55866, Note_on_c, 10, 45, 127
1, 55877, Note_off_c, 2, 62, 127
1, 55975, Note_off_c, 4, 64, 127
1, 55975, Note_off_c, 0, 60, 127
1, 55976, Note_on_c, 4, 76, 127
1, 56083, Note_off_c, 10, 45, 127
1, 56083, Note_off_c, 10, 57, 127
1, 56084, Note_off_c, 4, 76, 127
1, 56085, Note_on_c, 0, 72, 127
1, 56194, Note_off_c, 0, 72, 127
1, 56195, Note_on_c, 4, 76, 127
1, 56304, Note_off_c, 4, 76, 127
1, 56305, Note_on_c, 10, 69, 127
1, 56414, Note_off_c, 10, 69, 127
1, 56415, Note_on_c, 4, 76, 127
1, 56524, Note_off_c, 4, 76, 127
1, 56525, Note_on_c, 0, 72, 127
1, 56634, Note_off_c, 0, 72, 127
1, 56635, Note_on_c, 4, 76, 127
1, 56744, Note_off_c, 4, 76, 127
1, 56745, Note_on_c, 4, 64, 127
1, 56854, Note_off_c, 4, 64, 127
1, 56855, Note_on_c, 4, 76, 127
1, 56964, Note_off_c, 4, 76, 127
1, 56965, Note_on_c, 0, 72, 127
1, 56965, Note_on_c, 10, 45, 127
1, 57074, Note_off_c, 0, 72, 127
1, 57075, Note_on_c, 4, 76, 127
1, 57137, Note_off_c, 10, 45, 127
1, 57184, Note_off_c, 4, 76, 127
1, 57185, Note_on_c, 10, 69, 127
1, 57185, Note_on_c, 0, 48, 127
1, 57294, Note_off_c, 10, 69, 127
1, 57295, Note_on_c, 4, 76, 127
1, 57357, Note_off_c, 0, 48, 127
1, 57404, Note_off_c, 4, 76, 127
1, 57405, Note_on_c, 0, 72, 127
1, 57405, Note_on_c, 10, 45, 127
1, 57514, Note_off_c, 0, 72, 127
1, 57515, Note_on_c, 4, 76, 127
1, 57622, Note_off_c, 10, 45, 127
1, 57623, Note_off_c, 4, 76, 127
1, 57624, Note_on_c, 2, 74, 127
1, 57733, Note_off_c, 2, 74, 127
1, 57734, Note_on_c, 5, 77, 127
1, 57843, Note_off_c, 5, 77, 127
1, 57844, Note_on_c, 2, 74, 127
1, 57844, Note_on_c, 2, 50, 127
1, 57953, Note_off_c, 2, 74, 127
1, 57954, Note_on_c, 10, 69, 127
1, 58021, Note_off_c, 2, 50, 127
1, 58062, Note_off_c, 10, 69, 127
1, 58063, Note_on_c, 0, 72, 127
1, 58063, Note_on_c, 10, 57, 127
1, 58172, Note_off_c, 0, 72, 127
1, 58173, Note_on_c, 4, 76, 127
1, 58282, Note_off_c, 4, 76, 127
1, 58283, Note_on_c, 0, 72, 127
1, 58283, Note_on_c, 10, 45, 127
1, 58384, Note_off_c, 10, 57, 127
1, 58392, Note_off_c, 0, 72, 127
1, 58393, Note_on_c, 10, 69, 127
1, 58500, Note_off_c, 10, 45, 127
1, 58501, Note_off_c, 10, 69, 127
1, 58502, Note_on_c, 2, 74, 127
1, 58611, Note_off_c, 2, 74, 127
1, 58612, Note_on_c, 5, 77, 127
1, 58721, Note_off_c, 5, 77, 127
1, 58722, Note_on_c, 2, 74, 127
1, 58722, Note_on_c, 2, 50, 127
1, 58831, Note_off_c, 2, 74, 127
1, 58832, Note_on_c, 10, 69, 127
1, 58905, Note_off_c, 2, 50, 127
1, 58940, Note_off_c, 10, 69, 127
1, 58941, Note_on_c, 0, 72, 127
1, 58941, Note_on_c, 10, 57, 127
1, 59050, Note_off_c, 0, 72, 127
1, 59051, Note_on_c, 4, 76, 127
1, 59160, Note_off_c, 4, 76, 127
1, 59161, Note_on_c, 0, 72, 127
1, 59161, Note_on_c, 10, 45, 127
1, 59216, Note_off_c, 10, 57, 127
1, 59270, Note_off_c, 0, 72, 127
1, 59271, Note_on_c, 10, 69, 127
1, 59378, Note_off_c, 10, 45, 127
1, 59379, Note_off_c, 10, 69, 127
1, 59380, Note_on_c, 12, 71, 127
1, 59489, Note_off_c, 12, 71, 127
1, 59490, Note_on_c, 2, 74, 127
1, 59599, Note_off_c, 2, 74, 127
1, 59600, Note_on_c, 12, 71, 127
1, 59600, Note_on_c, 12, 47, 127
1, 59709, Note_off_c, 12, 71, 127
1, 59710, Note_on_c, 6, 66, 127
1, 59789, Note_off_c, 12, 47, 127
1, 59819, Note_off_c, 6, 66, 127
1, 59820, Note_on_c, 8, 68, 127
1, 59820, Note_on_c, 4, 52, 127
1, 59929, Note_off_c, 8, 68, 127
1, 59930, Note_on_c, 12, 71, 127
1, 60039, Note_off_c, 12, 71, 127
1, 60040, Note_on_c, 8, 68, 127
1, 60040, Note_on_c, 4, 40, 127
1, 60055, Note_off_c, 4, 52, 127
1, 60149, Note_off_c, 8, 68, 127
1, 60150, Note_on_c, 4, 64, 127
1, 60257, Note_off_c, 4, 40, 127
1, 60258, Note_off_c, 4, 64, 127
1, 60259, Note_on_c, 12, 71, 127
1, 60368, Note_off_c, 12, 71, 127
1, 60369, Note_on_c, 2, 74, 127
1, 60478, Note_off_c, 2, 74, 127
1, 60479, Note_on_c, 12, 71, 127
1, 60479, Note_on_c, 12, 47, 127
1, 60588, Note_off_c, 12, 71, 127
1, 60589, Note_on_c, 6, 66, 127
1, 60685, Note_off_c, 12, 47, 127
1, 60698, Note_off_c, 6, 66, 127
1, 60699, Note_on_c, 8, 68, 127
1, 60699, Note_on_c, 4, 52, 127
1, 60808, Note_off_c, 8, 68, 127
1, 60809, Note_on_c, 12, 71, 127
1, 60918, Note_off_c, 12, 71, 127
1, 60919, Note_on_c, 8, 68, 127
1, 60919, Note_on_c, 4, 40, 127
1, 61028, Note_off_c, 8, 68, 127
1, 61029, Note_on_c, 4, 64, 127
1, 61134, Note_off_c, 4, 52, 127
1, 61137, Note_off_c, 4, 64, 127
1, 61137, Note_off_c, 4, 40, 127
1, 61138, Note_on_c, 0, 72, 127
1, 61138, Note_on_c, 4, 52, 127
1, 61138, Note_on_c, 10, 45, 127
1, 61247, Note_off_c, 0, 72, 127
1, 61248, Note_on_c, 4, 76, 127
1, 61357, Note_off_c, 4, 76, 127
1, 61358, Note_on_c, 10, 69, 127
1, 61467, Note_off_c, 10, 69, 127
1, 61468, Note_on_c, 12, 71, 127
1, 61573, Note_off_c, 10, 45, 127
1, 61573, Note_off_c, 4, 52, 127
1, 61576, Note_off_c, 12, 71, 127
1, 61577, Note_on_c, 0, 72, 127
1, 61686, Note_off_c, 0, 72, 127
1, 61687, Note_on_c, 4, 76, 127
1, 61687, Note_on_c, 10, 45, 127
1, 61796, Note_off_c, 10, 45, 127
1, 61796, Note_off_c, 4, 76, 127
1, 61797, Note_on_c, 0, 72, 127
1, 61797, Note_on_c, 0, 48, 127
1, 61906, Note_off_c, 0, 48, 127
1, 61906, Note_off_c, 0, 72, 127
1, 61907, Note_on_c, 10, 69, 127
1, 61907, Note_on_c, 4, 52, 127
1, 62016, Note_off_c, 4, 52, 127
1, 62016, Note_off_c, 10, 69, 127
1, 62017, Note_on_c, 0, 72, 127
1, 62017, Note_on_c, 10, 57, 127
1, 62126, Note_off_c, 0, 72, 127
1, 62127, Note_on_c, 4, 76, 127
1, 62236, Note_off_c, 4, 76, 127
1, 62237, Note_on_c, 10, 69, 127
1, 62346, Note_off_c, 10, 69, 127
1, 62347, Note_on_c, 12, 71, 127
1, 62456, Note_off_c, 12, 71, 127
1, 62457, Note_on_c, 0, 72, 127
1, 62521, Note_off_c, 10, 57, 127
1, 62566, Note_off_c, 0, 72, 127
1, 62567, Note_on_c, 4, 76, 127
1, 62567, Note_on_c, 10, 45, 127
1, 62676, Note_off_c, 10, 45, 127
1, 62676, Note_off_c, 4, 76, 127
1, 62677, Note_on_c, 0, 72, 127
1, 62677, Note_on_c, 0, 48, 127
1, 62786, Note_off_c, 0, 48, 127
1, 62786, Note_off_c, 0, 72, 127
1, 62787, Note_on_c, 10, 69, 127
1, 62787, Note_on_c, 4, 52, 127
1, 62896, Note_off_c, 4, 52, 127
1, 62896, Note_off_c, 10, 69, 127
1, 62897, Note_on_c, 1, 73, 127
1, 62897, Note_on_c, 10, 57, 127
1, 63006, Note_off_c, 1, 73, 127
1, 63007, Note_on_c, 4, 76, 127
1, 63116, Note_off_c, 4, 76, 127
1, 63117, Note_on_c, 10, 69, 127
1, 63226, Note_off_c, 10, 69, 127
1, 63227, Note_on_c, 12, 71, 127
1, 63336, Note_off_c, 12, 71, 127
1, 63337, Note_on_c, 1, 73, 127
1, 63435, Note_off_c, 10, 57, 127
1, 63445, Note_off_c, 1, 73, 127
1, 63446, Note_on_c, 4, 76, 127
1, 63446, Note_on_c, 10, 45, 127
1, 63555, Note_off_c, 10, 45, 127
1, 63555, Note_off_c, 4, 76, 127
1, 63556, Note_on_c, 1, 73, 127
1, 63556, Note_on_c, 1, 49, 127
1, 63665, Note_off_c, 1, 49, 127
1, 63665, Note_off_c, 1, 73, 127
1, 63666, Note_on_c, 10, 69, 127
1, 63666, Note_on_c, 4, 52, 127
1, 63775, Note_off_c, 4, 52, 127
1, 63775, Note_off_c, 10, 69, 127
1, 63776, Note_on_c, 1, 73, 127
1, 63776, Note_on_c, 7, 55, 127
1, 63885, Note_off_c, 7, 55, 127
1, 63885, Note_off_c, 1, 73, 127
1, 63886, Note_on_c, 4, 76, 127
1, 63886, Note_on_c, 4, 52, 127
1, 63995, Note_off_c, 4, 52, 127
1, 63995, Note_off_c, 4, 76, 127
1, 63996, Note_on_c, 10, 69, 127
1, 63996, Note_on_c, 1, 49, 127
1, 64105, Note_off_c, 1, 49, 127
1, 64105, Note_off_c, 10, 69, 127
1, 64106, Note_on_c, 12, 71, 127
1, 64106, Note_on_c, 4, 52, 127
1, 64215, Note_off_c, 4, 52, 127
1, 64215, Note_off_c, 12, 71, 127
1, 64216, Note_on_c, 1, 73, 127
1, 64216, Note_on_c, 10, 45, 127
1, 64325, Note_off_c, 10, 45, 127
1, 64325, Note_off_c, 1, 73, 127
1, 64326, Note_on_c, 4, 76, 127
1, 64326, Note_on_c, 1, 49, 127
1, 64435, Note_off_c, 1, 49, 127
1, 64435, Note_off_c, 4, 76, 127
1, 64436, Note_on_c, 1, 73, 127
1, 64436, Note_on_c, 4, 52, 127
1, 64545, Note_off_c, 4, 52, 127
1, 64545, Note_off_c, 1, 73, 127
1, 64546, Note_on_c, 10, 69, 127
1, 64546, Note_on_c, 7, 55, 127
1, 64655, Note_off_c, 7, 55, 127
1, 64655, Note_off_c, 10, 69, 127
1, 64656, Note_on_c, 2, 74, 127
1, 64656, Note_on_c, 2, 50, 127
1, 64656, Note_on_c, 5, 53, 127
1, 64765, Note_off_c, 2, 74, 127
1, 64766, Note_on_c, 5, 77, 127
1, 64875, Note_off_c, 5, 77, 127
1, 64876, Note_on_c, 2, 74, 127
1, 64985, Note_off_c, 2, 74, 127
1, 64986, Note_on_c, 4, 76, 127
1, 65091, Note_off_c, 5, 53, 127
1, 65091, Note_off_c, 2, 50, 127
1, 65094, Note_off_c, 4, 76, 127
1, 65095, Note_on_c, 5, 77, 127
1, 65204, Note_off_c, 5, 77, 127
1, 65205, Note_on_c, 10, 81, 127
1, 65205, Note_on_c, 2, 50, 127
1, 65314, Note_off_c, 2, 50, 127
1, 65314, Note_off_c, 10, 81, 127
1, 65315, Note_on_c, 5, 77, 127
1, 65315, Note_on_c, 5, 53, 127
1, 65424, Note_off_c, 5, 53, 127
1, 65424, Note_off_c, 5, 77, 127
1, 65425, Note_on_c, 2, 74, 127
1, 65425, Note_on_c, 10, 57, 127
1, 65534, Note_off_c, 10, 57, 127
1, 65534, Note_off_c, 2, 74, 127
1, 65535, Note_on_c, 5, 77, 127
1, 65535, Note_on_c, 2, 62, 127
1, 65644, Note_off_c, 5, 77, 127
1, 65645, Note_on_c, 10, 81, 127
1, 65754, Note_off_c, 10, 81, 127
1, 65755, Note_on_c, 2, 74, 127
1, 65864, Note_off_c, 2, 74, 127
1, 65865, Note_on_c, 4, 76, 127
1, 65974, Note_off_c, 4, 76, 127
1, 65975, Note_on_c, 5, 77, 127
1, 66039, Note_off_c, 2, 62, 127
1, 66084, Note_off_c, 5, 77, 127
1, 66085, Note_on_c, 10, 81, 127
1, 66085, Note_on_c, 2, 50, 127
1, 66194, Note_off_c, 2, 50, 127
1, 66194, Note_off_c, 10, 81, 127
1, 66195, Note_on_c, 5, 77, 127
1, 66195, Note_on_c, 5, 53, 127
1, 66304, Note_off_c, 5, 53, 127
1, 66304, Note_off_c, 5, 77, 127
1, 66305, Note_on_c, 2, 74, 127
1, 66305, Note_on_c, 10, 57, 127
1, 66414, Note_off_c, 10, 57, 127
1, 66414, Note_off_c, 2, 74, 127
1, 66415, Note_on_c, 6, 78, 127
1, 66415, Note_on_c, 0, 60, 127
1, 66524, Note_off_c, 0, 60, 127
1, 66524, Note_off_c, 6, 78, 127
1, 66525, Note_on_c, 10, 81, 127
1, 66525, Note_on_c, 10, 57, 127
1, 66634, Note_off_c, 10, 57, 127
1, 66634, Note_off_c, 10, 81, 127
1, 66635, Note_on_c, 2, 74, 127
1, 66635, Note_on_c, 6, 54, 127
1, 66744, Note_off_c, 6, 54, 127
1, 66744, Note_off_c, 2, 74, 127
1, 66745, Note_on_c, 4, 76, 127
1, 66745, Note_on_c, 10, 57, 127
1, 66854, Note_off_c, 10, 57, 127
1, 66854, Note_off_c, 4, 76, 127
1, 66855, Note_on_c, 6, 78, 127
1, 66855, Note_on_c, 2, 50, 127
1, 66964, Note_off_c, 2, 50, 127
1, 66964, Note_off_c, 6, 78, 127
1, 66965, Note_on_c, 10, 81, 127
1, 66965, Note_on_c, 6, 54, 127
1, 67074, Note_off_c, 6, 54, 127
1, 67074, Note_off_c, 10, 81, 127
1, 67075, Note_on_c, 6, 78, 127
1, 67075, Note_on_c, 10, 57, 127
1, 67184, Note_off_c, 10, 57, 127
1, 67184, Note_off_c, 6, 78, 127
1, 67185, Note_on_c, 2, 74, 127
1, 67185, Note_on_c, 0, 60, 127
1, 67294, Note_off_c, 0, 60, 127
1, 67294, Note_off_c, 2, 74, 127
1, 67295, Note_on_c, 6, 78, 127
1, 67295, Note_on_c, 2, 62, 127
1, 67404, Note_off_c, 6, 78, 127
1, 67405, Note_on_c, 10, 81, 127
1, 67514, Note_off_c, 10, 81, 127
1, 67515, Note_on_c, 2, 74, 127
1, 67624, Note_off_c, 2, 74, 127
1, 67625, Note_on_c, 4, 76, 127
1, 67734, Note_off_c, 4, 76, 127
1, 67735, Note_on_c, 6, 78, 127
1, 67833, Note_off_c, 2, 62, 127
1, 67843, Note_off_c, 6, 78, 127
1, 67844, Note_on_c, 10, 81, 127
1, 67844, Note_on_c, 2, 50, 127
1, 67953, Note_off_c, 2, 50, 127
1, 67953, Note_off_c, 10, 81, 127
1, 67954, Note_on_c, 6, 78, 127
1, 67954, Note_on_c, 6, 54, 127
1, 68063, Note_off_c, 6, 54, 127
1, 68063, Note_off_c, 6, 78, 127
1, 68064, Note_on_c, 2, 74, 127
1, 68064, Note_on_c, 10, 57, 127
1, 68173, Note_off_c, 10, 57, 127
1, 68173, Note_off_c, 2, 74, 127
1, 68174, Note_on_c, 7, 79, 127
1, 68174, Note_on_c, 7, 55, 127
1, 68174, Note_on_c, 11, 58, 127
1, 68283, Note_off_c, 7, 79, 127
1, 68284, Note_on_c, 11, 70, 127
1, 68393, Note_off_c, 11, 70, 127
1, 68394, Note_on_c, 2, 74, 127
1, 68503, Note_off_c, 2, 74, 127
1, 68504, Note_on_c, 7, 79, 127
1, 68609, Note_off_c, 11, 58, 127
1, 68612, Note_off_c, 7, 79, 127
1, 68613, Note_on_c, 11, 70, 127
1, 68722, Note_off_c, 11, 70, 127
1, 68723, Note_on_c, 2, 74, 127
1, 68723, Note_on_c, 7, 43, 127
1, 68832, Note_off_c, 7, 43, 127
1, 68832, Note_off_c, 2, 74, 127
1, 68833, Note_on_c, 11, 70, 127
1, 68833, Note_on_c, 11, 46, 127
1, 68942, Note_off_c, 11, 46, 127
1, 68942, Note_off_c, 11, 70, 127
1, 68943, Note_on_c, 7, 67, 127
1, 68943, Note_on_c, 2, 50, 127
1, 69044, Note_off_c, 7, 55, 127
1, 69052, Note_off_c, 2, 50, 127
1, 69052, Note_off_c, 7, 67, 127
1, 69053, Note_on_c, 7, 79, 127
1, 69053, Note_on_c, 7, 55, 127
1, 69162, Note_off_c, 7, 55, 127
1, 69162, Note_off_c, 7, 79, 127
1, 69163, Note_on_c, 11, 70, 127
1, 69163, Note_on_c, 2, 50, 127
1, 69272, Note_off_c, 2, 50, 127
1, 69272, Note_off_c, 11, 70, 127
1, 69273, Note_on_c, 2, 74, 127
1, 69273, Note_on_c, 11, 46, 127
1, 69382, Note_off_c, 11, 46, 127
1, 69382, Note_off_c, 2, 74, 127
1, 69383, Note_on_c, 7, 79, 127
1, 69383, Note_on_c, 2, 50, 127
1, 69492, Note_off_c, 2, 50, 127
1, 69492, Note_off_c, 7, 79, 127
1, 69493, Note_on_c, 11, 70, 127
1, 69493, Note_on_c, 7, 43, 127
1, 69602, Note_off_c, 7, 43, 127
1, 69602, Note_off_c, 11, 70, 127
1, 69603, Note_on_c, 2, 74, 127
1, 69603, Note_on_c, 11, 46, 127
1, 69712, Note_off_c, 11, 46, 127
1, 69712, Note_off_c, 2, 74, 127
1, 69713, Note_on_c, 11, 70, 127
1, 69713, Note_on_c, 2, 50, 127
1, 69822, Note_off_c, 2, 50, 127
1, 69822, Note_off_c, 11, 70, 127
1, 69823, Note_on_c, 7, 67, 127
1, 69823, Note_on_c, 7, 55, 127
1, 69943, Note_off_c, 7, 55, 127
1, 69943, Note_off_c, 7, 67, 127
1, 69960, Note_on_c, 7, 79, 127
1, 69960, Note_on_c, 1, 37, 127
1, 70418, Note_off_c, 1, 37, 127
1, 70441, Note_on_c, 1, 49, 127
1, 70671, Note_on_c, 4, 52, 127
1, 70871, Note_off_c, 7, 79, 127
1, 70897, Note_off_c, 1, 49, 127
1, 70899, Note_off_c, 4, 52, 127
1, 70901, Note_on_c, 10, 57, 127
1, 70901, Note_on_c, 1, 49, 127
1, 71131, Note_on_c, 1, 61, 127
1, 71359, Note_off_c, 1, 61, 127
1, 71359, Note_off_c, 1, 49, 127
1, 71359, Note_off_c, 10, 57, 127
1, 71361, Note_on_c, 10, 57, 127
1, 71361, Note_on_c, 1, 49, 127
1, 71361, Note_on_c, 4, 64, 127
1, 71591, Note_on_c, 7, 67, 127
1, 71817, Note_off_c, 4, 64, 127
1, 71819, Note_off_c, 7, 67, 127
1, 71819, Note_off_c, 1, 49, 127
1, 71819, Note_off_c, 10, 57, 127
1, 71821, Note_on_c, 10, 57, 127
1, 71821, Note_on_c, 2, 50, 127
1, 71821, Note_on_c, 2, 62, 127
1, 71821, Note_on_c, 7, 67, 127
1, 72049, Note_off_c, 7, 67, 127
1, 72051, Note_on_c, 5, 65, 127
1, 72277, Note_off_c, 2, 62, 127
1, 72277, Note_off_c, 2, 50, 127
1, 72277, Note_off_c, 10, 57, 127
1, 72279, Note_off_c, 5, 65, 127
1, 72297, Note_on_c, 5, 77, 127
1, 72755, Note_off_c, 5, 77, 127
1, 72757, Note_on_c, 5, 77, 127
1, 72987, Note_on_c, 11, 82, 127
1, 73009, Note_off_c, 5, 77, 127
1, 73215, Note_off_c, 11, 82, 127
1, 73217, Note_on_c, 7, 79, 127
1, 73445, Note_off_c, 7, 79, 127
1, 73447, Note_on_c, 3, 75, 127
1, 73675, Note_off_c, 3, 75, 127
1, 73677, Note_on_c, 1, 73, 127
1, 74138, Note_on_c, 4, 52, 127
1, 74368, Note_on_c, 7, 55, 127
1, 74594, Note_off_c, 4, 52, 127
1, 74596, Note_off_c, 7, 55, 127
1, 74598, Note_on_c, 4, 52, 127
1, 74598, Note_on_c, 11, 58, 127
1, 74828, Note_on_c, 4, 64, 127
1, 75056, Note_off_c, 4, 64, 127
1, 75056, Note_off_c, 11, 58, 127
1, 75056, Note_off_c, 4, 52, 127
1, 75058, Note_on_c, 7, 67, 127
1, 75058, Note_on_c, 1, 61, 127
1, 75058, Note_on_c, 4, 52, 127
1, 75288, Note_on_c, 11, 70, 127
1, 75514, Note_off_c, 7, 67, 127
1, 75516, Note_off_c, 11, 70, 127
1, 75516, Note_off_c, 4, 52, 127
1, 75516, Note_off_c, 1, 61, 127
1, 75516, Note_off_c, 1, 73, 127
1, 75518, Note_on_c, 7, 67, 127
1, 75518, Note_on_c, 11, 70, 127
1, 75518, Note_on_c, 1, 61, 127
1, 75518, Note_on_c, 5, 53, 127
1, 75746, Note_off_c, 1, 61, 127
1, 75746, Note_off_c, 11, 70, 127
1, 75746, Note_off_c, 7, 67, 127
1, 75748, Note_on_c, 5, 65, 127
1, 75748, Note_on_c, 10, 69, 127
1, 75748, Note_on_c, 2, 62, 127
1, 75976, Note_off_c, 10, 69, 127
1, 75976, Note_off_c, 5, 65, 127
1, 75994, Note_on_c, 2, 74, 127
1, 76420, Note_off_c, 2, 62, 127
1, 76430, Note_off_c, 5, 53, 127
1, 76453, Note_off_c, 2, 74, 127
1, 76455, Note_on_c, 2, 74, 127
1, 76568, Note_off_c, 2, 74, 127
1, 76570, Note_on_c, 5, 77, 127
1, 76683, Note_off_c, 5, 77, 127
1, 76685, Note_on_c, 4, 76, 127
1, 76798, Note_off_c, 4, 76, 127
1, 76800, Note_on_c, 2, 74, 127
1, 76913, Note_off_c, 2, 74, 127
1, 76915, Note_on_c, 4, 76, 127
1, 77028, Note_off_c, 4, 76, 127
1, 77030, Note_on_c, 1, 73, 127
1, 77143, Note_off_c, 1, 73, 127
1, 77145, Note_on_c, 2, 74, 127
1, 77373, Note_off_c, 2, 74, 127
1, 77375, Note_on_c, 10, 69, 127
1, 77836, Note_on_c, 6, 54, 127
1, 78066, Note_on_c, 10, 57, 127
1, 78287, Note_off_c, 10, 69, 127
1, 78294, Note_off_c, 10, 57, 127
1, 78294, Note_off_c, 6, 54, 127
1, 78296, Note_on_c, 6, 54, 127
1, 78296, Note_on_c, 10, 57, 127
1, 78296, Note_on_c, 2, 62, 127
1, 78526, Note_on_c, 6, 66, 127
1, 78754, Note_off_c, 6, 66, 127
1, 78754, Note_off_c, 10, 57, 127
1, 78754, Note_off_c, 6, 54, 127
1, 78756, Note_on_c, 10, 57, 127
1, 78756, Note_on_c, 6, 54, 127
1, 78756, Note_on_c, 10, 69, 127
1, 78967, Note_off_c, 2, 62, 127
1, 78986, Note_on_c, 0, 60, 127
1, 79212, Note_off_c, 10, 69, 127
1, 79214, Note_off_c, 0, 60, 127
1, 79214, Note_off_c, 6, 54, 127
1, 79214, Note_off_c, 10, 57, 127
1, 79216, Note_on_c, 7, 55, 127
1, 79216, Note_on_c, 0, 60, 127
1, 79216, Note_on_c, 2, 62, 127
1, 79444, Note_off_c, 0, 60, 127
1, 79478, Note_on_c, 11, 58, 127
1, 79939, Note_on_c, 11, 70, 127
1, 80128, Note_off_c, 2, 62, 127
1, 80128, Note_off_c, 7, 55, 127
1, 80150, Note_off_c, 11, 58, 127
1, 80167, Note_off_c, 11, 70, 127
1, 80169, Note_on_c, 11, 70, 127
1, 80282, Note_off_c, 11, 70, 127
1, 80284, Note_on_c, 10, 69, 127
1, 80397, Note_off_c, 10, 69, 127
1, 80399, Note_on_c, 7, 67, 127
1, 80512, Note_off_c, 7, 67, 127
1, 80514, Note_on_c, 10, 69, 127
1, 80627, Note_off_c, 10, 69, 127
1, 80629, Note_on_c, 7, 67, 127
1, 80742, Note_off_c, 7, 67, 127
1, 80744, Note_on_c, 5, 65, 127
1, 80857, Note_off_c, 5, 65, 127
1, 80859, Note_on_c, 4, 64, 127
1, 80972, Note_off_c, 4, 64, 127
1, 80974, Note_on_c, 5, 65, 127
1, 81087, Note_off_c, 5, 65, 127
1, 81089, Note_on_c, 4, 64, 127
1, 81550, Note_on_c, 8, 56, 127
1, 81780, Note_on_c, 12, 59, 127
1, 82001, Note_off_c, 4, 64, 127
1, 82008, Note_off_c, 12, 59, 127
1, 82008, Note_off_c, 8, 56, 127
1, 82010, Note_on_c, 12, 59, 127
1, 82010, Note_on_c, 8, 56, 127
1, 82010, Note_on_c, 2, 62, 127
1, 82238, Note_off_c, 2, 62, 127
1, 82240, Note_on_c, 5, 65, 127
1, 82468, Note_off_c, 5, 65, 127
1, 82468, Note_off_c, 8, 56, 127
1, 82468, Note_off_c, 12, 59, 127
1, 82470, Note_on_c, 12, 59, 127
1, 82470, Note_on_c, 8, 56, 127
1, 82470, Note_on_c, 12, 71, 127
1, 82698, Note_off_c, 12, 71, 127
1, 82700, Note_on_c, 2, 62, 127
1, 82928, Note_off_c, 2, 62, 127
1, 82928, Note_off_c, 8, 56, 127
1, 82928, Note_off_c, 12, 59, 127
1, 82930, Note_on_c, 10, 57, 127
1, 82930, Note_on_c, 2, 62, 127
1, 83408, Note_off_c, 2, 62, 127
1, 83408, Note_off_c, 10, 57, 127
1, 83426, Note_on_c, 4, 64, 127
1, 83426, Note_on_c, 10, 45, 127
1, 83426, Note_on_c, 4, 52, 127
1, 83426, Note_on_c, 10, 57, 127
1, 83666, Note_on_c, 2, 62, 127
1, 83901, Note_off_c, 4, 64, 127
1, 83903, Note_off_c, 2, 62, 127
1, 83903, Note_off_c, 10, 57, 127
1, 83903, Note_off_c, 4, 52, 127
1, 83903, Note_off_c, 10, 45, 127
1, 83905, Note_on_c, 4, 64, 127
1, 83905, Note_on_c, 1, 61, 127
1, 83905, Note_on_c, 10, 57, 127
1, 83905, Note_on_c, 4, 52, 127
1, 83905, Note_on_c, 10, 45, 127
1, 84176, Note_off_c, 4, 64, 127
1, 84179, Note_on_c, 5, 65, 127
1, 84313, Note_off_c, 5, 65, 127
1, 84316, Note_on_c, 7, 67, 127
1, 84447, Note_off_c, 1, 61, 127
1, 84450, Note_off_c, 7, 67, 127
1, 84450, Note_off_c, 10, 45, 127
1, 84450, Note_off_c, 4, 52, 127
1, 84450, Note_off_c, 10, 57, 127
1, 84453, Note_on_c, 1, 61, 127
1, 84453, Note_on_c, 5, 65, 127
1, 84453, Note_on_c, 10, 57, 127
1, 84453, Note_on_c, 4, 52, 127
1, 84453, Note_on_c, 10, 45, 127
1, 84587, Note_off_c, 5, 65, 127
1, 84590, Note_on_c, 4, 64, 127
1, 84861, Note_off_c, 4, 64, 127
1, 84864, Note_off_c, 1, 61, 127
1, 84880, Note_on_c, 2, 62, 127
1, 85013, Note_off_c, 10, 45, 127
1, 85013, Note_off_c, 4, 52, 127
1, 85013, Note_off_c, 10, 57, 127
1, 85014, Note_off_c, 2, 62, 127
1, 85049, Note_on_c, 2, 38, 127
1, 85049, Note_on_c, 5, 41, 127
1, 85049, Note_on_c, 10, 45, 127
1, 85049, Note_on_c, 2, 50, 127
1, 85049, Note_on_c, 2, 62, 127
1, 88192, Note_off_c, 2, 62, 127
1, 88192, Note_off_c, 2, 50, 127
1, 88192, Note_off_c, 10, 45, 127
1, 88192, Note_off_c, 5, 41, 127
1, 88192, Note_off_c, 2, 38, 127
1, 90864, Note_on_c, 2, 62, 127
1, 90864, Note_on_c, 10, 57, 127
1, 90864, Note_on_c, 5, 53, 127
1, 90864, Note_on_c, 2, 50, 127
1, 91108, Note_off_c, 2, 62, 127
1, 91109, Note_on_c, 2, 62, 127
1, 91353, Note_off_c, 2, 62, 127
1, 91353, Note_off_c, 2, 50, 127
1, 91353, Note_off_c, 5, 53, 127
1, 91353, Note_off_c, 10, 57, 127
1, 91354, Note_on_c, 5, 65, 127
1, 91598, Note_off_c, 5, 65, 127
1, 91599, Note_on_c, 5, 65, 127
1, 91843, Note_off_c, 5, 65, 127
1, 91844, Note_on_c, 10, 69, 127
1, 91844, Note_on_c, 5, 53, 127
1, 92088, Note_off_c, 10, 69, 127
1, 92089, Note_on_c, 10, 69, 127
1, 92333, Note_off_c, 10, 69, 127
1, 92333, Note_off_c, 5, 53, 127
1, 92334, Note_on_c, 1, 61, 127
1, 92334, Note_on_c, 10, 57, 127
1, 92578, Note_off_c, 1, 61, 127
1, 92579, Note_on_c, 1, 61, 127
1, 92819, Note_off_c, 10, 57, 127
1, 92823, Note_off_c, 1, 61, 127
1, 92824, Note_on_c, 4, 64, 127
1, 93068, Note_off_c, 4, 64, 127
1, 93069, Note_on_c, 4, 64, 127
1, 93313, Note_off_c, 4, 64, 127
1, 93314, Note_on_c, 10, 69, 127
1, 93314, Note_on_c, 7, 55, 127
1, 93314, Note_on_c, 10, 45, 127
1, 93314, Note_on_c, 1, 49, 127
1, 93314, Note_on_c, 4, 52, 127
1, 93558, Note_off_c, 10, 69, 127
1, 93559, Note_on_c, 10, 69, 127
1, 93803, Note_off_c, 10, 69, 127
1, 93803, Note_off_c, 4, 52, 127
1, 93803, Note_off_c, 1, 49, 127
1, 93803, Note_off_c, 10, 45, 127
1, 93803, Note_off_c, 7, 55, 127
1, 93804, Note_on_c, 2, 62, 127
1, 93804, Note_on_c, 5, 53, 127
1, 93804, Note_on_c, 2, 50, 127
1, 94048, Note_off_c, 2, 62, 127
1, 94049, Note_on_c, 2, 62, 127
1, 94289, Note_off_c, 2, 50, 127
1, 94289, Note_off_c, 5, 53, 127
1, 94293, Note_off_c, 2, 62, 127
1, 94294, Note_on_c, 5, 65, 127
1, 94538, Note_off_c, 5, 65, 127
1, 94539, Note_on_c, 5, 65, 127
1, 94783, Note_off_c, 5, 65, 127
1, 94784, Note_on_c, 11, 70, 127
1, 94784, Note_on_c, 7, 55, 127
1, 94784, Note_on_c, 2, 50, 127
1, 94784, Note_on_c, 7, 43, 127
1, 95028, Note_off_c, 11, 70, 127
1, 95029, Note_on_c, 11, 70, 127
1, 95273, Note_off_c, 11, 70, 127
1, 95273, Note_off_c, 7, 43, 127
1, 95273, Note_off_c, 2, 50, 127
1, 95273, Note_off_c, 7, 55, 127
1, 95274, Note_on_c, 4, 64, 127
1, 95274, Note_on_c, 7, 55, 127
1, 95274, Note_on_c, 0, 48, 127
1, 95518, Note_off_c, 4, 64, 127
1, 95519, Note_on_c, 4, 64, 127
1, 95759, Note_off_c, 0, 48, 127
1, 95759, Note_off_c, 7, 55, 127
1, 95763, Note_off_c, 4, 64, 127
1, 95764, Note_on_c, 7, 67, 127
1, 96008, Note_off_c, 7, 67, 127
1, 96009, Note_on_c, 7, 67, 127
1, 96253, Note_off_c, 7, 67, 127
1, 96254, Note_on_c, 0, 72, 127
1, 96254, Note_on_c, 4, 52, 127
1, 96254, Note_on_c, 7, 55, 127
1, 96498, Note_off_c, 0, 72, 127
1, 96499, Note_on_c, 0, 72, 127
1, 96743, Note_off_c, 0, 72, 127
1, 96743, Note_off_c, 7, 55, 127
1, 96743, Note_off_c, 4, 52, 127
1, 96744, Note_on_c, 10, 69, 127
1, 96744, Note_on_c, 0, 60, 127
1, 96744, Note_on_c, 5, 53, 127
1, 96988, Note_off_c, 10, 69, 127
1, 96989, Note_on_c, 10, 69, 127
1, 97229, Note_off_c, 5, 53, 127
1, 97229, Note_off_c, 0, 60, 127
1, 97233, Note_off_c, 10, 69, 127
1, 97234, Note_on_c, 0, 72, 127
1, 97478, Note_off_c, 0, 72, 127
1, 97479, Note_on_c, 0, 72, 127
1, 97723, Note_off_c, 0, 72, 127
1, 97724, Note_on_c, 5, 77, 127
1, 97724, Note_on_c, 0, 48, 127
1, 97724, Note_on_c, 5, 53, 127
1, 97724, Note_on_c, 10, 45, 127
1, 97968, Note_off_c, 5, 77, 127
1, 97969, Note_on_c, 5, 77, 127
1, 98213, Note_off_c, 5, 77, 127
1, 98213, Note_off_c, 10, 45, 127
1, 98213, Note_off_c, 5, 53, 127
1, 98213, Note_off_c, 0, 48, 127
1, 98214, Note_on_c, 2, 74, 127
1, 98214, Note_on_c, 5, 53, 127
1, 98214, Note_on_c, 11, 46, 127
1, 98458, Note_off_c, 2, 74, 127
1, 98459, Note_on_c, 2, 74, 127
1, 98699, Note_off_c, 11, 46, 127
1, 98699, Note_off_c, 5, 53, 127
1, 98703, Note_off_c, 2, 74, 127
1, 98704, Note_on_c, 5, 77, 127
1, 98948, Note_off_c, 5, 77, 127
1, 98949, Note_on_c, 5, 77, 127
1, 99193, Note_off_c, 5, 77, 127
1, 99194, Note_on_c, 11, 82, 127
1, 99194, Note_on_c, 2, 50, 127
1, 99194, Note_on_c, 7, 43, 127
1, 99194, Note_on_c, 7, 55, 127
1, 99438, Note_off_c, 11, 82, 127
1, 99439, Note_on_c, 11, 82, 127
1, 99683, Note_off_c, 11, 82, 127
1, 99683, Note_off_c, 7, 55, 127
1, 99683, Note_off_c, 7, 43, 127
1, 99683, Note_off_c, 2, 50, 127
1, 99684, Note_on_c, 2, 74, 127
1, 99684, Note_on_c, 7, 55, 127
1, 99684, Note_on_c, 10, 57, 127
1, 99805, Note_off_c, 2, 74, 127
1, 99806, Note_on_c, 1, 73, 127
1, 99927, Note_off_c, 1, 73, 127
1, 99928, Note_on_c, 2, 74, 127
1, 100049, Note_off_c, 2, 74, 127
1, 100050, Note_on_c, 1, 73, 127
1, 100171, Note_off_c, 1, 73, 127
1, 100172, Note_on_c, 2, 74, 127
1, 100293, Note_off_c, 2, 74, 127
1, 100294, Note_on_c, 1, 73, 127
1, 100415, Note_off_c, 1, 73, 127
1, 100416, Note_on_c, 12, 71, 127
1, 100537, Note_off_c, 12, 71, 127
1, 100538, Note_on_c, 10, 69, 127
1, 100659, Note_off_c, 10, 69, 127
1, 100659, Note_off_c, 10, 57, 127
1, 100659, Note_off_c, 7, 55, 127
1, 100660, Note_on_c, 2, 74, 127
1, 100660, Note_on_c, 10, 57, 127
1, 100660, Note_on_c, 5, 53, 127
1, 101149, Note_off_c, 5, 53, 127
1, 101149, Note_off_c, 10, 57, 127
1, 101150, Note_on_c, 7, 55, 127
1, 101150, Note_on_c, 11, 58, 127
1, 101394, Note_off_c, 2, 74, 127
1, 101395, Note_on_c, 4, 76, 127
1, 101639, Note_off_c, 4, 76, 127
1, 101639, Note_off_c, 11, 58, 127
1, 101639, Note_off_c, 7, 55, 127
1, 101640, Note_on_c, 1, 73, 127
1, 101640, Note_on_c, 5, 77, 127
1, 101640, Note_on_c, 10, 57, 127
1, 101761, Note_off_c, 5, 77, 127
1, 101761, Note_off_c, 1, 73, 127
1, 101762, Note_on_c, 4, 76, 127
1, 101831, Note_off_c, 4, 76, 127
1, 101831, Note_on_c, 5, 77, 127
1, 101900, Note_off_c, 5, 77, 127
1, 101900, Note_on_c, 4, 76, 127
1, 101969, Note_off_c, 4, 76, 127
1, 101969, Note_on_c, 5, 77, 127
1, 102038, Note_off_c, 5, 77, 127
1, 102038, Note_on_c, 4, 76, 127
1, 102130, Note_on_c, 10, 45, 127
1, 102365, Note_off_c, 4, 76, 127
1, 102375, Note_on_c, 2, 74, 127
1, 102611, Note_off_c, 2, 74, 127
1, 102619, Note_off_c, 10, 45, 127
1, 102619, Note_off_c, 10, 57, 127
1, 102620, Note_on_c, 2, 74, 127
1, 102620, Note_on_c, 2, 50, 127
1, 102741, Note_off_c, 2, 74, 127
1, 102742, Note_on_c, 1, 73, 127
1, 102863, Note_off_c, 1, 73, 127
1, 102863, Note_off_c, 2, 50, 127
1, 102864, Note_on_c, 2, 74, 127
1, 102864, Note_on_c, 2, 50, 127
1, 102985, Note_off_c, 2, 74, 127
1, 102986, Note_on_c, 4, 76, 127
1, 103107, Note_off_c, 4, 76, 127
1, 103107, Note_off_c, 2, 50, 127
1, 103108, Note_on_c, 2, 74, 127
1, 103108, Note_on_c, 5, 53, 127
1, 103229, Note_off_c, 2, 74, 127
1, 103230, Note_on_c, 1, 73, 127
1, 103351, Note_off_c, 1, 73, 127
1, 103351, Note_off_c, 5, 53, 127
1, 103352, Note_on_c, 2, 74, 127
1, 103352, Note_on_c, 5, 53, 127
1, 103473, Note_off_c, 2, 74, 127
1, 103474, Note_on_c, 4, 76, 127
1, 103595, Note_off_c, 4, 76, 127
1, 103595, Note_off_c, 5, 53, 127
1, 103596, Note_on_c, 1, 73, 127
1, 103596, Note_on_c, 10, 57, 127
1, 103717, Note_off_c, 1, 73, 127
1, 103718, Note_on_c, 12, 71, 127
1, 103839, Note_off_c, 12, 71, 127
1, 103839, Note_off_c, 10, 57, 127
1, 103840, Note_on_c, 1, 73, 127
1, 103840, Note_on_c, 10, 57, 127
1, 103961, Note_off_c, 1, 73, 127
1, 103962, Note_on_c, 2, 74, 127
1, 104083, Note_off_c, 2, 74, 127
1, 104083, Note_off_c, 10, 57, 127
1, 104084, Note_on_c, 4, 76, 127
1, 104084, Note_on_c, 1, 49, 127
1, 104205, Note_off_c, 4, 76, 127
1, 104206, Note_on_c, 2, 74, 127
1, 104327, Note_off_c, 2, 74, 127
1, 104327, Note_off_c, 1, 49, 127
1, 104328, Note_on_c, 1, 73, 127
1, 104328, Note_on_c, 1, 49, 127
1, 104449, Note_off_c, 1, 73, 127
1, 104450, Note_on_c, 12, 71, 127
1, 104571, Note_off_c, 12, 71, 127
1, 104571, Note_off_c, 1, 49, 127
1, 104572, Note_on_c, 10, 69, 127
1, 104572, Note_on_c, 4, 52, 127
1, 104693, Note_off_c, 10, 69, 127
1, 104694, Note_on_c, 12, 71, 127
1, 104815, Note_off_c, 12, 71, 127
1, 104815, Note_off_c, 4, 52, 127
1, 104816, Note_on_c, 1, 73, 127
1, 104816, Note_on_c, 4, 52, 127
1, 104937, Note_off_c, 1, 73, 127
1, 104938, Note_on_c, 2, 74, 127
1, 105059, Note_off_c, 2, 74, 127
1, 105059, Note_off_c, 4, 52, 127
1, 105060, Note_on_c, 4, 76, 127
1, 105060, Note_on_c, 10, 57, 127
1, 105181, Note_off_c, 4, 76, 127
1, 105182, Note_on_c, 5, 77, 127
1, 105303, Note_off_c, 5, 77, 127
1, 105303, Note_off_c, 10, 57, 127
1, 105304, Note_on_c, 7, 79, 127
1, 105304, Note_on_c, 10, 57, 127
1, 105425, Note_off_c, 7, 79, 127
1, 105426, Note_on_c, 4, 76, 127
1, 105547, Note_off_c, 4, 76, 127
1, 105547, Note_off_c, 10, 57, 127
1, 105548, Note_on_c, 5, 77, 127
1, 105548, Note_on_c, 2, 50, 127
1, 105669, Note_off_c, 5, 77, 127
1, 105670, Note_on_c, 4, 76, 127
1, 105791, Note_off_c, 4, 76, 127
1, 105791, Note_off_c, 2, 50, 127
1, 105792, Note_on_c, 5, 77, 127
1, 105792, Note_on_c, 2, 50, 127
1, 105913, Note_off_c, 5, 77, 127
1, 105914, Note_on_c, 7, 79, 127
1, 106035, Note_off_c, 7, 79, 127
1, 106035, Note_off_c, 2, 50, 127
1, 106036, Note_on_c, 5, 77, 127
1, 106036, Note_on_c, 5, 53, 127
1, 106157, Note_off_c, 5, 77, 127
1, 106158, Note_on_c, 4, 76, 127
1, 106279, Note_off_c, 4, 76, 127
1, 106279, Note_off_c, 5, 53, 127
1, 106280, Note_on_c, 5, 77, 127
1, 106280, Note_on_c, 5, 53, 127
1, 106401, Note_off_c, 5, 77, 127
1, 106402, Note_on_c, 7, 79, 127
1, 106523, Note_off_c, 7, 79, 127
1, 106523, Note_off_c, 5, 53, 127
1, 106524, Note_on_c, 5, 77, 127
1, 106524, Note_on_c, 10, 57, 127
1, 106645, Note_off_c, 5, 77, 127
1, 106646, Note_on_c, 7, 79, 127
1, 106767, Note_off_c, 7, 79, 127
1, 106767, Note_off_c, 10, 57, 127
1, 106768, Note_on_c, 5, 77, 127
1, 106768, Note_on_c, 10, 57, 127
1, 106889, Note_off_c, 5, 77, 127
1, 106890, Note_on_c, 4, 76, 127
1, 107011, Note_off_c, 4, 76, 127
1, 107011, Note_off_c, 10, 57, 127
1, 107012, Note_on_c, 2, 74, 127
1, 107012, Note_on_c, 12, 47, 127
1, 107133, Note_off_c, 2, 74, 127
1, 107134, Note_on_c, 0, 72, 127
1, 107255, Note_off_c, 0, 72, 127
1, 107255, Note_off_c, 12, 47, 127
1, 107256, Note_on_c, 12, 71, 127
1, 107256, Note_on_c, 12, 47, 127
1, 107377, Note_off_c, 12, 71, 127
1, 107378, Note_on_c, 10, 69, 127
1, 107499, Note_off_c, 10, 69, 127
1, 107499, Note_off_c, 12, 47, 127
1, 107500, Note_on_c, 7, 67, 127
1, 107500, Note_on_c, 2, 50, 127
1, 107621, Note_off_c, 7, 67, 127
1, 107622, Note_on_c, 10, 69, 127
1, 107743, Note_off_c, 10, 69, 127
1, 107743, Note_off_c, 2, 50, 127
1, 107744, Note_on_c, 12, 71, 127
1, 107744, Note_on_c, 2, 50, 127
1, 107865, Note_off_c, 12, 71, 127
1, 107866, Note_on_c, 0, 72, 127
1, 107987, Note_off_c, 0, 72, 127
1, 107987, Note_off_c, 2, 50, 127
1, 107988, Note_on_c, 2, 74, 127
1, 107988, Note_on_c, 7, 55, 127
1, 108109, Note_off_c, 2, 74, 127
1, 108110, Note_on_c, 4, 76, 127
1, 108231, Note_off_c, 4, 76, 127
1, 108231, Note_off_c, 7, 55, 127
1, 108232, Note_on_c, 5, 77, 127
1, 108232, Note_on_c, 7, 55, 127
1, 108353, Note_off_c, 5, 77, 127
1, 108354, Note_on_c, 2, 74, 127
1, 108475, Note_off_c, 2, 74, 127
1, 108475, Note_off_c, 7, 55, 127
1, 108476, Note_on_c, 4, 76, 127
1, 108476, Note_on_c, 0, 48, 127
1, 108597, Note_off_c, 4, 76, 127
1, 108598, Note_on_c, 2, 74, 127
1, 108719, Note_off_c, 2, 74, 127
1, 108719, Note_off_c, 0, 48, 127
1, 108720, Note_on_c, 4, 76, 127
1, 108720, Note_on_c, 0, 48, 127
1, 108841, Note_off_c, 4, 76, 127
1, 108842, Note_on_c, 5, 77, 127
1, 108963, Note_off_c, 5, 77, 127
1, 108963, Note_off_c, 0, 48, 127
1, 108964, Note_on_c, 4, 76, 127
1, 108964, Note_on_c, 4, 52, 127
1, 109085, Note_off_c, 4, 76, 127
1, 109086, Note_on_c, 2, 74, 127
1, 109207, Note_off_c, 2, 74, 127
1, 109207, Note_off_c, 4, 52, 127
1, 109208, Note_on_c, 4, 76, 127
1, 109208, Note_on_c, 4, 52, 127
1, 109329, Note_off_c, 4, 76, 127
1, 109330, Note_on_c, 5, 77, 127
1, 109451, Note_off_c, 5, 77, 127
1, 109451, Note_off_c, 4, 52, 127
1, 109452, Note_on_c, 4, 76, 127
1, 109452, Note_on_c, 7, 55, 127
1, 109573, Note_off_c, 4, 76, 127
1, 109574, Note_on_c, 5, 77, 127
1, 109695, Note_off_c, 5, 77, 127
1, 109695, Note_off_c, 7, 55, 127
1, 109696, Note_on_c, 4, 76, 127
1, 109696, Note_on_c, 7, 55, 127
1, 109817, Note_off_c, 4, 76, 127
1, 109818, Note_on_c, 2, 74, 127
1, 109939, Note_off_c, 2, 74, 127
1, 109939, Note_off_c, 7, 55, 127
1, 109940, Note_on_c, 0, 72, 127
1, 109940, Note_on_c, 10, 45, 127
1, 110061, Note_off_c, 0, 72, 127
1, 110062, Note_on_c, 11, 70, 127
1, 110183, Note_off_c, 11, 70, 127
1, 110183, Note_off_c, 10, 45, 127
1, 110184, Note_on_c, 10, 69, 127
1, 110184, Note_on_c, 10, 45, 127
1, 110305, Note_off_c, 10, 69, 127
1, 110306, Note_on_c, 7, 67, 127
1, 110427, Note_off_c, 7, 67, 127
1, 110427, Note_off_c, 10, 45, 127
1, 110428, Note_on_c, 5, 65, 127
1, 110428, Note_on_c, 0, 48, 127
1, 110549, Note_off_c, 5, 65, 127
1, 110550, Note_on_c, 7, 67, 127
1, 110671, Note_off_c, 7, 67, 127
1, 110671, Note_off_c, 0, 48, 127
1, 110672, Note_on_c, 10, 69, 127
1, 110672, Note_on_c, 0, 48, 127
1, 110793, Note_off_c, 10, 69, 127
1, 110794, Note_on_c, 11, 70, 127
1, 110915, Note_off_c, 11, 70, 127
1, 110915, Note_off_c, 0, 48, 127
1, 110916, Note_on_c, 0, 72, 127
1, 110916, Note_on_c, 5, 53, 127
1, 111037, Note_off_c, 0, 72, 127
1, 111038, Note_on_c, 2, 74, 127
1, 111159, Note_off_c, 2, 74, 127
1, 111159, Note_off_c, 5, 53, 127
1, 111160, Note_on_c, 3, 75, 127
1, 111160, Note_on_c, 5, 53, 127
1, 111281, Note_off_c, 3, 75, 127
1, 111282, Note_on_c, 0, 72, 127
1, 111403, Note_off_c, 0, 72, 127
1, 111403, Note_off_c, 5, 53, 127
1, 111404, Note_on_c, 2, 74, 127
1, 111404, Note_on_c, 11, 46, 127
1, 111525, Note_off_c, 2, 74, 127
1, 111526, Note_on_c, 0, 72, 127
1, 111647, Note_off_c, 0, 72, 127
1, 111647, Note_off_c, 11, 46, 127
1, 111648, Note_on_c, 2, 74, 127
1, 111648, Note_on_c, 11, 46, 127
1, 111769, Note_off_c, 2, 74, 127
1, 111770, Note_on_c, 3, 75, 127
1, 111891, Note_off_c, 3, 75, 127
1, 111891, Note_off_c, 11, 46, 127
1, 111892, Note_on_c, 2, 74, 127
1, 111892, Note_on_c, 2, 50, 127
1, 112013, Note_off_c, 2, 74, 127
1, 112014, Note_on_c, 0, 72, 127
1, 112135, Note_off_c, 0, 72, 127
1, 112135, Note_off_c, 2, 50, 127
1, 112136, Note_on_c, 2, 74, 127
1, 112136, Note_on_c, 2, 50, 127
1, 112257, Note_off_c, 2, 74, 127
1, 112258, Note_on_c, 3, 75, 127
1, 112379, Note_off_c, 3, 75, 127
1, 112379, Note_off_c, 2, 50, 127
1, 112380, Note_on_c, 2, 74, 127
1, 112380, Note_on_c, 5, 53, 127
1, 112501, Note_off_c, 2, 74, 127
1, 112502, Note_on_c, 0, 72, 127
1, 112623, Note_off_c, 0, 72, 127
1, 112623, Note_off_c, 5, 53, 127
1, 112624, Note_on_c, 11, 70, 127
1, 112624, Note_on_c, 5, 53, 127
1, 112745, Note_off_c, 11, 70, 127
1, 112746, Note_on_c, 10, 69, 127
1, 112867, Note_off_c, 10, 69, 127
1, 112867, Note_off_c, 5, 53, 127
1, 112868, Note_on_c, 7, 67, 127
1, 112868, Note_on_c, 0, 48, 127
1, 112989, Note_off_c, 7, 67, 127
1, 112990, Note_on_c, 5, 65, 127
1, 113111, Note_off_c, 5, 65, 127
1, 113112, Note_on_c, 4, 64, 127
1, 113233, Note_off_c, 4, 64, 127
1, 113233, Note_off_c, 0, 48, 127
1, 113234, Note_on_c, 2, 62, 127
1, 113234, Note_on_c, 2, 50, 127
1, 113355, Note_off_c, 2, 50, 127
1, 113355, Note_off_c, 2, 62, 127
1, 113356, Note_on_c, 0, 60, 127
1, 113356, Note_on_c, 4, 52, 127
1, 113477, Note_off_c, 4, 52, 127
1, 113477, Note_off_c, 0, 60, 127
1, 113478, Note_on_c, 2, 62, 127
1, 113478, Note_on_c, 5, 53, 127
1, 113599, Note_off_c, 5, 53, 127
1, 113599, Note_off_c, 2, 62, 127
1, 113600, Note_on_c, 4, 64, 127
1, 113600, Note_on_c, 7, 55, 127
1, 113721, Note_off_c, 7, 55, 127
1, 113721, Note_off_c, 4, 64, 127
1, 113722, Note_on_c, 5, 65, 127
1, 113722, Note_on_c, 10, 57, 127
1, 113843, Note_off_c, 10, 57, 127
1, 113843, Note_off_c, 5, 65, 127
1, 113844, Note_on_c, 7, 67, 127
1, 113844, Note_on_c, 11, 58, 127
1, 113965, Note_off_c, 11, 58, 127
1, 113965, Note_off_c, 7, 67, 127
1, 113966, Note_on_c, 10, 69, 127
1, 113966, Note_on_c, 0, 60, 127
1, 114087, Note_off_c, 0, 60, 127
1, 114087, Note_off_c, 10, 69, 127
1, 114088, Note_on_c, 11, 70, 127
1, 114088, Note_on_c, 2, 62, 127
1, 114209, Note_off_c, 2, 62, 127
1, 114209, Note_off_c, 11, 70, 127
1, 114210, Note_on_c, 7, 67, 127
1, 114210, Note_on_c, 4, 64, 127
1, 114331, Note_off_c, 4, 64, 127
1, 114331, Note_off_c, 7, 67, 127
1, 114332, Note_on_c, 10, 69, 127
1, 114332, Note_on_c, 5, 65, 127
1, 114453, Note_off_c, 5, 65, 127
1, 114454, Note_on_c, 4, 64, 127
1, 114575, Note_off_c, 4, 64, 127
1, 114575, Note_off_c, 10, 69, 127
1, 114576, Note_on_c, 10, 69, 127
1, 114576, Note_on_c, 5, 65, 127
1, 114697, Note_off_c, 5, 65, 127
1, 114698, Note_on_c, 7, 67, 127
1, 114819, Note_off_c, 7, 67, 127
1, 114819, Note_off_c, 10, 69, 127
1, 114820, Note_on_c, 0, 72, 127
1, 114820, Note_on_c, 5, 65, 127
1, 114941, Note_off_c, 5, 65, 127
1, 114942, Note_on_c, 4, 64, 127
1, 115063, Note_off_c, 4, 64, 127
1, 115063, Note_off_c, 0, 72, 127
1, 115064, Note_on_c, 0, 72, 127
1, 115064, Note_on_c, 2, 62, 127
1, 115185, Note_off_c, 2, 62, 127
1, 115186, Note_on_c, 0, 60, 127
1, 115307, Note_off_c, 0, 60, 127
1, 115307, Note_off_c, 0, 72, 127
1, 115308, Note_on_c, 5, 77, 127
1, 115308, Note_on_c, 11, 58, 127
1, 115429, Note_off_c, 11, 58, 127
1, 115430, Note_on_c, 10, 57, 127
1, 115551, Note_off_c, 10, 57, 127
1, 115551, Note_off_c, 5, 77, 127
1, 115552, Note_on_c, 5, 77, 127
1, 115552, Note_on_c, 7, 55, 127
1, 115673, Note_off_c, 7, 55, 127
1, 115674, Note_on_c, 5, 53, 127
1, 115795, Note_off_c, 5, 53, 127
1, 115795, Note_off_c, 5, 77, 127
1, 115796, Note_on_c, 4, 76, 127
1, 115796, Note_on_c, 0, 60, 127
1, 115917, Note_off_c, 0, 60, 127
1, 115918, Note_on_c, 11, 58, 127
1, 116039, Note_off_c, 11, 58, 127
1, 116039, Note_off_c, 4, 76, 127
1, 116040, Note_on_c, 4, 76, 127
1, 116040, Note_on_c, 0, 60, 127
1, 116161, Note_off_c, 0, 60, 127
1, 116162, Note_on_c, 2, 62, 127
1, 116283, Note_off_c, 2, 62, 127
1, 116283, Note_off_c, 4, 76, 127
1, 116284, Note_on_c, 7, 79, 127
1, 116284, Note_on_c, 0, 60, 127
1, 116405, Note_off_c, 0, 60, 127
1, 116406, Note_on_c, 11, 58, 127
1, 116527, Note_off_c, 11, 58, 127
1, 116527, Note_off_c, 7, 79, 127
1, 116528, Note_on_c, 7, 79, 127
1, 116528, Note_on_c, 10, 57, 127
1, 116649, Note_off_c, 10, 57, 127
1, 116650, Note_on_c, 7, 55, 127
1, 116771, Note_off_c, 7, 55, 127
1, 116771, Note_off_c, 7, 79, 127
1, 116772, Note_on_c, 0, 84, 127
1, 116772, Note_on_c, 5, 53, 127
1, 116893, Note_off_c, 5, 53, 127
1, 116894, Note_on_c, 4, 52, 127
1, 117015, Note_off_c, 4, 52, 127
1, 117015, Note_off_c, 0, 84, 127
1, 117016, Note_on_c, 0, 84, 127
1, 117016, Note_on_c, 2, 50, 127
1, 117137, Note_off_c, 2, 50, 127
1, 117138, Note_on_c, 0, 48, 127
1, 117259, Note_off_c, 0, 48, 127
1, 117259, Note_off_c, 0, 84, 127
1, 117260, Note_on_c, 10, 81, 127
1, 117260, Note_on_c, 5, 53, 127
1, 117381, Note_off_c, 5, 53, 127
1, 117382, Note_on_c, 4, 52, 127
1, 117503, Note_off_c, 4, 52, 127
1, 117504, Note_on_c, 5, 53, 127
1, 117625, Note_off_c, 5, 53, 127
1, 117625, Note_off_c, 10, 81, 127
1, 117626, Note_on_c, 11, 82, 127
1, 117626, Note_on_c, 11, 46, 127
1, 117747, Note_off_c, 11, 46, 127
1, 117747, Note_off_c, 11, 82, 127
1, 117748, Note_on_c, 10, 81, 127
1, 117748, Note_on_c, 4, 76, 127
1, 117748, Note_on_c, 0, 48, 127
1, 117869, Note_off_c, 10, 81, 127
1, 117872, Note_on_c, 7, 79, 127
1, 117938, Note_on_c, 10, 81, 127
1, 117942, Note_off_c, 7, 79, 127
1, 117991, Note_off_c, 0, 48, 127
1, 117992, Note_on_c, 11, 46, 127
1, 118004, Note_on_c, 7, 79, 127
1, 118008, Note_off_c, 10, 81, 127
1, 118070, Note_on_c, 10, 81, 127
1, 118074, Note_off_c, 7, 79, 127
1, 118136, Note_on_c, 7, 79, 127
1, 118140, Note_off_c, 10, 81, 127
1, 118202, Note_on_c, 10, 81, 127
1, 118206, Note_off_c, 7, 79, 127
1, 118235, Note_off_c, 11, 46, 127
1, 118236, Note_on_c, 0, 48, 127
1, 118268, Note_on_c, 7, 79, 127
1, 118272, Note_off_c, 10, 81, 127
1, 118334, Note_on_c, 10, 81, 127
1, 118338, Note_off_c, 7, 79, 127
1, 118400, Note_on_c, 7, 79, 127
1, 118404, Note_off_c, 10, 81, 127
1, 118479, Note_off_c, 0, 48, 127
1, 118480, Note_on_c, 0, 36, 127
1, 118489, Note_on_c, 5, 77, 127
1, 118491, Note_off_c, 7, 79, 127
1, 118607, Note_on_c, 7, 79, 127
1, 118609, Note_off_c, 5, 77, 127
1, 118724, Note_off_c, 0, 36, 127
1, 118724, Note_off_c, 4, 76, 127
1, 118725, Note_on_c, 10, 81, 127
1, 118725, Note_on_c, 5, 77, 127
1, 118725, Note_on_c, 5, 41, 127
1, 118727, Note_off_c, 7, 79, 127
1, 118846, Note_off_c, 5, 77, 127
1, 118846, Note_off_c, 10, 81, 127
1, 118847, Note_on_c, 7, 79, 127
1, 118968, Note_off_c, 7, 79, 127
1, 118969, Note_on_c, 10, 81, 127
1, 119090, Note_off_c, 10, 81, 127
1, 119091, Note_on_c, 11, 82, 127
1, 119212, Note_off_c, 11, 82, 127
1, 119213, Note_on_c, 10, 81, 127
1, 119334, Note_off_c, 10, 81, 127
1, 119335, Note_off_c, 5, 41, 127
1, 119335, Note_on_c, 7, 79, 127
1, 119456, Note_off_c, 7, 79, 127
1, 119457, Note_on_c, 10, 81, 127
1, 119578, Note_off_c, 10, 81, 127
1, 119579, Note_on_c, 11, 82, 127
1, 119700, Note_off_c, 11, 82, 127
1, 119701, Note_on_c, 10, 81, 127
1, 119822, Note_off_c, 10, 81, 127
1, 119823, Note_on_c, 7, 79, 127
1, 119823, Note_on_c, 5, 53, 127
1, 119944, Note_off_c, 5, 53, 127
1, 119944, Note_off_c, 7, 79, 127
1, 119945, Note_on_c, 5, 77, 127
1, 119945, Note_on_c, 7, 55, 127
1, 120066, Note_off_c, 7, 55, 127
1, 120066, Note_off_c, 5, 77, 127
1, 120067, Note_on_c, 4, 76, 127
1, 120067, Note_on_c, 10, 57, 127
1, 120188, Note_off_c, 10, 57, 127
1, 120188, Note_off_c, 4, 76, 127
1, 120189, Note_on_c, 2, 74, 127
1, 120189, Note_on_c, 11, 58, 127
1, 120310, Note_off_c, 11, 58, 127
1, 120310, Note_off_c, 2, 74, 127
1, 120311, Note_on_c, 1, 73, 127
1, 120311, Note_on_c, 10, 57, 127
1, 120432, Note_off_c, 10, 57, 127
1, 120432, Note_off_c, 1, 73, 127
1, 120433, Note_on_c, 2, 74, 127
1, 120433, Note_on_c, 11, 58, 127
1, 120554, Note_off_c, 11, 58, 127
1, 120554, Note_off_c, 2, 74, 127
1, 120555, Note_on_c, 4, 76, 127
1, 120555, Note_on_c, 0, 60, 127
1, 120676, Note_off_c, 0, 60, 127
1, 120676, Note_off_c, 4, 76, 127
1, 120677, Note_on_c, 2, 74, 127
1, 120677, Note_on_c, 11, 58, 127
1, 120798, Note_off_c, 11, 58, 127
1, 120798, Note_off_c, 2, 74, 127
1, 120799, Note_on_c, 1, 73, 127
1, 120799, Note_on_c, 10, 57, 127
1, 120920, Note_off_c, 10, 57, 127
1, 120920, Note_off_c, 1, 73, 127
1, 120921, Note_on_c, 2, 74, 127
1, 120921, Note_on_c, 11, 58, 127
1, 121042, Note_off_c, 11, 58, 127
1, 121042, Note_off_c, 2, 74, 127
1, 121043, Note_on_c, 4, 76, 127
1, 121043, Note_on_c, 0, 60, 127
1, 121164, Note_off_c, 0, 60, 127
1, 121164, Note_off_c, 4, 76, 127
1, 121165, Note_on_c, 2, 74, 127
1, 121165, Note_on_c, 11, 58, 127
1, 121286, Note_off_c, 11, 58, 127
1, 121286, Note_off_c, 2, 74, 127
1, 121287, Note_on_c, 4, 76, 127
1, 121287, Note_on_c, 10, 57, 127
1, 121408, Note_off_c, 10, 57, 127
1, 121408, Note_off_c, 4, 76, 127
1, 121409, Note_on_c, 5, 77, 127
1, 121409, Note_on_c, 7, 55, 127
1, 121530, Note_off_c, 7, 55, 127
1, 121530, Note_off_c, 5, 77, 127
1, 121531, Note_on_c, 2, 74, 127
1, 121531, Note_on_c, 5, 53, 127
1, 121652, Note_off_c, 5, 53, 127
1, 121652, Note_off_c, 2, 74, 127
1, 121653, Note_on_c, 7, 79, 127
1, 121653, Note_on_c, 4, 52, 127
1, 121774, Note_off_c, 7, 79, 127
1, 121775, Note_on_c, 5, 77, 127
1, 121896, Note_off_c, 5, 77, 127
1, 121897, Note_on_c, 7, 79, 127
1, 122018, Note_off_c, 7, 79, 127
1, 122019, Note_on_c, 10, 81, 127
1, 122140, Note_off_c, 10, 81, 127
1, 122140, Note_off_c, 4, 52, 127
1, 122141, Note_on_c, 7, 79, 127
1, 122141, Note_on_c, 4, 64, 127
1, 122262, Note_off_c, 7, 79, 127
1, 122263, Note_on_c, 5, 77, 127
1, 122384, Note_off_c, 5, 77, 127
1, 122385, Note_on_c, 7, 79, 127
1, 122506, Note_off_c, 7, 79, 127
1, 122507, Note_on_c, 10, 81, 127
1, 122624, Note_off_c, 4, 64, 127
1, 122628, Note_off_c, 10, 81, 127
1, 122629, Note_on_c, 7, 79, 127
1, 122750, Note_off_c, 7, 79, 127
1, 122751, Note_on_c, 5, 77, 127
1, 122751, Note_on_c, 4, 52, 127
1, 122872, Note_off_c, 4, 52, 127
1, 122872, Note_off_c, 5, 77, 127
1, 122873, Note_on_c, 4, 76, 127
1, 122873, Note_on_c, 5, 53, 127
1, 122994, Note_off_c, 5, 53, 127
1, 122994, Note_off_c, 4, 76, 127
1, 122995, Note_on_c, 2, 74, 127
1, 122995, Note_on_c, 7, 55, 127
1, 123116, Note_off_c, 7, 55, 127
1, 123116, Note_off_c, 2, 74, 127
1, 123117, Note_on_c, 1, 73, 127
1, 123117, Note_on_c, 10, 57, 127
1, 123238, Note_off_c, 10, 57, 127
1, 123238, Note_off_c, 1, 73, 127
1, 123239, Note_on_c, 12, 71, 127
1, 123239, Note_on_c, 7, 55, 127
1, 123360, Note_off_c, 7, 55, 127
1, 123360, Note_off_c, 12, 71, 127
1, 123361, Note_on_c, 1, 73, 127
1, 123361, Note_on_c, 10, 57, 127
1, 123482, Note_off_c, 10, 57, 127
1, 123482, Note_off_c, 1, 73, 127
1, 123483, Note_on_c, 2, 74, 127
1, 123483, Note_on_c, 11, 58, 127
1, 123604, Note_off_c, 11, 58, 127
1, 123604, Note_off_c, 2, 74, 127
1, 123605, Note_on_c, 1, 73, 127
1, 123605, Note_on_c, 10, 57, 127
1, 123726, Note_off_c, 10, 57, 127
1, 123726, Note_off_c, 1, 73, 127
1, 123727, Note_on_c, 12, 71, 127
1, 123727, Note_on_c, 7, 55, 127
1, 123848, Note_off_c, 7, 55, 127
1, 123848, Note_off_c, 12, 71, 127
1, 123849, Note_on_c, 1, 73, 127
1, 123849, Note_on_c, 10, 57, 127
1, 123970, Note_off_c, 10, 57, 127
1, 123970, Note_off_c, 1, 73, 127
1, 123971, Note_on_c, 2, 74, 127
1, 123971, Note_on_c, 11, 58, 127
1, 124092, Note_off_c, 11, 58, 127
1, 124092, Note_off_c, 2, 74, 127
1, 124093, Note_on_c, 1, 73, 127
1, 124093, Note_on_c, 10, 57, 127
1, 124214, Note_off_c, 10, 57, 127
1, 124214, Note_off_c, 1, 73, 127
1, 124215, Note_on_c, 2, 74, 127
1, 124215, Note_on_c, 7, 55, 127
1, 124336, Note_off_c, 7, 55, 127
1, 124336, Note_off_c, 2, 74, 127
1, 124337, Note_on_c, 4, 76, 127
1, 124337, Note_on_c, 5, 53, 127
1, 124458, Note_off_c, 5, 53, 127
1, 124458, Note_off_c, 4, 76, 127
1, 124459, Note_on_c, 1, 73, 127
1, 124459, Note_on_c, 4, 52, 127
1, 124580, Note_off_c, 4, 52, 127
1, 124580, Note_off_c, 1, 73, 127
1, 124581, Note_on_c, 5, 77, 127
1, 124581, Note_on_c, 2, 50, 127
1, 124702, Note_off_c, 5, 77, 127
1, 124703, Note_on_c, 4, 76, 127
1, 124824, Note_off_c, 4, 76, 127
1, 124825, Note_on_c, 5, 77, 127
1, 124946, Note_off_c, 5, 77, 127
1, 124947, Note_on_c, 7, 79, 127
1, 125068, Note_off_c, 7, 79, 127
1, 125068, Note_off_c, 2, 50, 127
1, 125069, Note_on_c, 5, 77, 127
1, 125069, Note_on_c, 2, 62, 127
1, 125190, Note_off_c, 5, 77, 127
1, 125191, Note_on_c, 4, 76, 127
1, 125312, Note_off_c, 4, 76, 127
1, 125313, Note_on_c, 5, 77, 127
1, 125434, Note_off_c, 5, 77, 127
1, 125435, Note_on_c, 7, 79, 127
1, 125552, Note_off_c, 2, 62, 127
1, 125556, Note_off_c, 7, 79, 127
1, 125557, Note_on_c, 5, 77, 127
1, 125678, Note_off_c, 5, 77, 127
1, 125679, Note_on_c, 4, 76, 127
1, 125679, Note_on_c, 2, 50, 127
1, 125800, Note_off_c, 2, 50, 127
1, 125800, Note_off_c, 4, 76, 127
1, 125801, Note_on_c, 2, 74, 127
1, 125801, Note_on_c, 4, 52, 127
1, 125922, Note_off_c, 4, 52, 127
1, 125922, Note_off_c, 2, 74, 127
1, 125923, Note_on_c, 0, 72, 127
1, 125923, Note_on_c, 5, 53, 127
1, 126044, Note_off_c, 5, 53, 127
1, 126044, Note_off_c, 0, 72, 127
1, 126045, Note_on_c, 12, 71, 127
1, 126045, Note_on_c, 7, 55, 127
1, 126166, Note_off_c, 7, 55, 127
1, 126166, Note_off_c, 12, 71, 127
1, 126167, Note_on_c, 10, 69, 127
1, 126167, Note_on_c, 5, 53, 127
1, 126288, Note_off_c, 5, 53, 127
1, 126288, Note_off_c, 10, 69, 127
1, 126289, Note_on_c, 12, 71, 127
1, 126289, Note_on_c, 7, 55, 127
1, 126410, Note_off_c, 7, 55, 127
1, 126410, Note_off_c, 12, 71, 127
1, 126411, Note_on_c, 0, 72, 127
1, 126411, Note_on_c, 10, 57, 127
1, 126532, Note_off_c, 10, 57, 127
1, 126532, Note_off_c, 0, 72, 127
1, 126533, Note_on_c, 12, 71, 127
1, 126533, Note_on_c, 7, 55, 127
1, 126654, Note_off_c, 7, 55, 127
1, 126654, Note_off_c, 12, 71, 127
1, 126655, Note_on_c, 10, 69, 127
1, 126655, Note_on_c, 5, 53, 127
1, 126776, Note_off_c, 5, 53, 127
1, 126776, Note_off_c, 10, 69, 127
1, 126777, Note_on_c, 12, 71, 127
1, 126777, Note_on_c, 7, 55, 127
1, 126898, Note_off_c, 7, 55, 127
1, 126898, Note_off_c, 12, 71, 127
1, 126899, Note_on_c, 0, 72, 127
1, 126899, Note_on_c, 10, 57, 127
1, 127020, Note_off_c, 10, 57, 127
1, 127020, Note_off_c, 0, 72, 127
1, 127021, Note_on_c, 12, 71, 127
1, 127021, Note_on_c, 7, 55, 127
1, 127142, Note_off_c, 7, 55, 127
1, 127142, Note_off_c, 12, 71, 127
1, 127143, Note_on_c, 0, 72, 127
1, 127143, Note_on_c, 5, 53, 127
1, 127264, Note_off_c, 5, 53, 127
1, 127264, Note_off_c, 0, 72, 127
1, 127265, Note_on_c, 2, 74, 127
1, 127265, Note_on_c, 4, 52, 127
1, 127386, Note_off_c, 4, 52, 127
1, 127386, Note_off_c, 2, 74, 127
1, 127387, Note_on_c, 12, 71, 127
1, 127387, Note_on_c, 2, 50, 127
1, 127508, Note_off_c, 2, 50, 127
1, 127508, Note_off_c, 12, 71, 127
1, 127509, Note_on_c, 4, 76, 127
1, 127509, Note_on_c, 0, 48, 127
1, 127630, Note_off_c, 0, 48, 127
1, 127630, Note_off_c, 4, 76, 127
1, 127631, Note_on_c, 2, 74, 127
1, 127631, Note_on_c, 12, 47, 127
1, 127752, Note_off_c, 12, 47, 127
1, 127752, Note_off_c, 2, 74, 127
1, 127753, Note_on_c, 4, 76, 127
1, 127753, Note_on_c, 0, 48, 127
1, 127874, Note_off_c, 0, 48, 127
1, 127874, Note_off_c, 4, 76, 127
1, 127875, Note_on_c, 5, 77, 127
1, 127875, Note_on_c, 2, 50, 127
1, 127996, Note_off_c, 2, 50, 127
1, 127996, Note_off_c, 5, 77, 127
1, 127997, Note_on_c, 4, 76, 127
1, 127997, Note_on_c, 0, 48, 127
1, 128118, Note_off_c, 0, 48, 127
1, 128118, Note_off_c, 4, 76, 127
1, 128119, Note_on_c, 2, 74, 127
1, 128119, Note_on_c, 12, 47, 127
1, 128240, Note_off_c, 12, 47, 127
1, 128240, Note_off_c, 2, 74, 127
1, 128241, Note_on_c, 4, 76, 127
1, 128241, Note_on_c, 0, 48, 127
1, 128362, Note_off_c, 0, 48, 127
1, 128362, Note_off_c, 4, 76, 127
1, 128363, Note_on_c, 5, 77, 127
1, 128363, Note_on_c, 2, 50, 127
1, 128484, Note_off_c, 2, 50, 127
1, 128484, Note_off_c, 5, 77, 127
1, 128485, Note_on_c, 4, 76, 127
1, 128485, Note_on_c, 0, 48, 127
1, 128606, Note_off_c, 0, 48, 127
1, 128606, Note_off_c, 4, 76, 127
1, 128607, Note_on_c, 2, 74, 127
1, 128607, Note_on_c, 2, 50, 127
1, 128728, Note_off_c, 2, 50, 127
1, 128728, Note_off_c, 2, 74, 127
1, 128729, Note_on_c, 0, 72, 127
1, 128729, Note_on_c, 4, 52, 127
1, 128850, Note_off_c, 4, 52, 127
1, 128850, Note_off_c, 0, 72, 127
1, 128851, Note_on_c, 12, 71, 127
1, 128851, Note_on_c, 0, 48, 127
1, 128972, Note_off_c, 0, 48, 127
1, 128972, Note_off_c, 12, 71, 127
1, 128973, Note_on_c, 10, 69, 127
1, 128973, Note_on_c, 5, 53, 127
1, 129094, Note_off_c, 5, 53, 127
1, 129094, Note_off_c, 10, 69, 127
1, 129095, Note_on_c, 8, 68, 127
1, 129095, Note_on_c, 4, 52, 127
1, 129216, Note_off_c, 4, 52, 127
1, 129216, Note_off_c, 8, 68, 127
1, 129217, Note_on_c, 10, 69, 127
1, 129217, Note_on_c, 5, 53, 127
1, 129338, Note_off_c, 5, 53, 127
1, 129338, Note_off_c, 10, 69, 127
1, 129339, Note_on_c, 12, 71, 127
1, 129339, Note_on_c, 7, 55, 127
1, 129460, Note_off_c, 7, 55, 127
1, 129460, Note_off_c, 12, 71, 127
1, 129461, Note_on_c, 10, 69, 127
1, 129461, Note_on_c, 5, 53, 127
1, 129582, Note_off_c, 5, 53, 127
1, 129582, Note_off_c, 10, 69, 127
1, 129583, Note_on_c, 8, 68, 127
1, 129583, Note_on_c, 4, 52, 127
1, 129704, Note_off_c, 4, 52, 127
1, 129704, Note_off_c, 8, 68, 127
1, 129705, Note_on_c, 10, 69, 127
1, 129705, Note_on_c, 5, 53, 127
1, 129826, Note_off_c, 5, 53, 127
1, 129826, Note_off_c, 10, 69, 127
1, 129827, Note_on_c, 12, 71, 127
1, 129827, Note_on_c, 7, 55, 127
1, 129948, Note_off_c, 7, 55, 127
1, 129948, Note_off_c, 12, 71, 127
1, 129949, Note_on_c, 10, 69, 127
1, 129949, Note_on_c, 5, 53, 127
1, 130070, Note_off_c, 5, 53, 127
1, 130070, Note_off_c, 10, 69, 127
1, 130071, Note_on_c, 12, 71, 127
1, 130071, Note_on_c, 4, 52, 127
1, 130192, Note_off_c, 4, 52, 127
1, 130192, Note_off_c, 12, 71, 127
1, 130193, Note_on_c, 0, 72, 127
1, 130193, Note_on_c, 2, 50, 127
1, 130314, Note_off_c, 2, 50, 127
1, 130314, Note_off_c, 0, 72, 127
1, 130315, Note_on_c, 10, 69, 127
1, 130315, Note_on_c, 0, 48, 127
1, 130436, Note_off_c, 0, 48, 127
1, 130436, Note_off_c, 10, 69, 127
1, 130437, Note_on_c, 2, 74, 127
1, 130437, Note_on_c, 12, 47, 127
1, 130558, Note_off_c, 12, 47, 127
1, 130558, Note_off_c, 2, 74, 127
1, 130559, Note_on_c, 0, 72, 127
1, 130559, Note_on_c, 10, 45, 127
1, 130680, Note_off_c, 10, 45, 127
1, 130680, Note_off_c, 0, 72, 127
1, 130681, Note_on_c, 2, 74, 127
1, 130681, Note_on_c, 12, 47, 127
1, 130802, Note_off_c, 12, 47, 127
1, 130802, Note_off_c, 2, 74, 127
1, 130803, Note_on_c, 4, 76, 127
1, 130803, Note_on_c, 0, 48, 127
1, 130924, Note_off_c, 0, 48, 127
1, 130924, Note_off_c, 4, 76, 127
1, 130925, Note_on_c, 2, 74, 127
1, 130925, Note_on_c, 12, 47, 127
1, 131046, Note_off_c, 12, 47, 127
1, 131046, Note_off_c, 2, 74, 127
1, 131047, Note_on_c, 0, 72, 127
1, 131047, Note_on_c, 10, 45, 127
1, 131168, Note_off_c, 10, 45, 127
1, 131168, Note_off_c, 0, 72, 127
1, 131169, Note_on_c, 2, 74, 127
1, 131169, Note_on_c, 12, 47, 127
1, 131290, Note_off_c, 12, 47, 127
1, 131290, Note_off_c, 2, 74, 127
1, 131291, Note_on_c, 4, 76, 127
1, 131291, Note_on_c, 0, 48, 127
1, 131412, Note_off_c, 0, 48, 127
1, 131412, Note_off_c, 4, 76, 127
1, 131413, Note_on_c, 2, 74, 127
1, 131413, Note_on_c, 12, 47, 127
1, 131534, Note_off_c, 12, 47, 127
1, 131534, Note_off_c, 2, 74, 127
1, 131535, Note_on_c, 0, 72, 127
1, 131535, Note_on_c, 0, 48, 127
1, 131656, Note_off_c, 0, 48, 127
1, 131656, Note_off_c, 0, 72, 127
1, 131657, Note_on_c, 12, 71, 127
1, 131657, Note_on_c, 2, 50, 127
1, 131778, Note_off_c, 2, 50, 127
1, 131778, Note_off_c, 12, 71, 127
1, 131779, Note_on_c, 10, 69, 127
1, 131779, Note_on_c, 12, 47, 127
1, 131900, Note_off_c, 12, 47, 127
1, 131900, Note_off_c, 10, 69, 127
1, 131901, Note_on_c, 8, 68, 127
1, 131901, Note_on_c, 4, 52, 127
1, 132022, Note_off_c, 4, 52, 127
1, 132022, Note_off_c, 8, 68, 127
1, 132023, Note_on_c, 6, 66, 127
1, 132023, Note_on_c, 2, 50, 127
1, 132144, Note_off_c, 2, 50, 127
1, 132144, Note_off_c, 6, 66, 127
1, 132145, Note_on_c, 8, 68, 127
1, 132145, Note_on_c, 4, 52, 127
1, 132266, Note_off_c, 4, 52, 127
1, 132266, Note_off_c, 8, 68, 127
1, 132267, Note_on_c, 10, 69, 127
1, 132267, Note_on_c, 5, 53, 127
1, 132388, Note_off_c, 5, 53, 127
1, 132388, Note_off_c, 10, 69, 127
1, 132389, Note_on_c, 8, 68, 127
1, 132389, Note_on_c, 4, 52, 127
1, 132510, Note_off_c, 4, 52, 127
1, 132510, Note_off_c, 8, 68, 127
1, 132511, Note_on_c, 6, 66, 127
1, 132511, Note_on_c, 2, 50, 127
1, 132632, Note_off_c, 2, 50, 127
1, 132632, Note_off_c, 6, 66, 127
1, 132633, Note_on_c, 8, 68, 127
1, 132633, Note_on_c, 4, 52, 127
1, 132754, Note_off_c, 4, 52, 127
1, 132754, Note_off_c, 8, 68, 127
1, 132755, Note_on_c, 10, 69, 127
1, 132755, Note_on_c, 5, 53, 127
1, 132876, Note_off_c, 5, 53, 127
1, 132876, Note_off_c, 10, 69, 127
1, 132877, Note_on_c, 8, 68, 127
1, 132877, Note_on_c, 4, 52, 127
1, 132998, Note_off_c, 4, 52, 127
1, 132998, Note_off_c, 8, 68, 127
1, 132999, Note_on_c, 10, 69, 127
1, 132999, Note_on_c, 2, 50, 127
1, 133120, Note_off_c, 2, 50, 127
1, 133120, Note_off_c, 10, 69, 127
1, 133121, Note_on_c, 12, 71, 127
1, 133121, Note_on_c, 0, 48, 127
1, 133242, Note_off_c, 0, 48, 127
1, 133242, Note_off_c, 12, 71, 127
1, 133243, Note_on_c, 8, 68, 127
1, 133243, Note_on_c, 12, 47, 127
1, 133364, Note_off_c, 12, 47, 127
1, 133364, Note_off_c, 8, 68, 127
1, 133365, Note_on_c, 0, 72, 127
1, 133365, Note_on_c, 10, 45, 127
1, 133486, Note_off_c, 10, 45, 127
1, 133486, Note_off_c, 0, 72, 127
1, 133487, Note_on_c, 12, 71, 127
1, 133487, Note_on_c, 8, 44, 127
1, 133608, Note_off_c, 8, 44, 127
1, 133608, Note_off_c, 12, 71, 127
1, 133609, Note_on_c, 0, 72, 127
1, 133609, Note_on_c, 10, 45, 127
1, 133730, Note_off_c, 10, 45, 127
1, 133730, Note_off_c, 0, 72, 127
1, 133731, Note_on_c, 2, 74, 127
1, 133731, Note_on_c, 12, 47, 127
1, 133852, Note_off_c, 12, 47, 127
1, 133852, Note_off_c, 2, 74, 127
1, 133853, Note_on_c, 4, 76, 127
1, 133853, Note_on_c, 0, 48, 127
1, 133974, Note_off_c, 0, 48, 127
1, 133974, Note_off_c, 4, 76, 127
1, 133975, Note_on_c, 2, 74, 127
1, 133975, Note_on_c, 12, 47, 127
1, 134096, Note_off_c, 12, 47, 127
1, 134096, Note_off_c, 2, 74, 127
1, 134097, Note_on_c, 4, 76, 127
1, 134097, Note_on_c, 0, 48, 127
1, 134218, Note_off_c, 0, 48, 127
1, 134218, Note_off_c, 4, 76, 127
1, 134219, Note_on_c, 5, 77, 127
1, 134219, Note_on_c, 2, 50, 127
1, 134340, Note_off_c, 2, 50, 127
1, 134340, Note_off_c, 5, 77, 127
1, 134341, Note_on_c, 0, 72, 127
1, 134341, Note_on_c, 4, 52, 127
1, 134401, Note_off_c, 0, 72, 127
1, 134402, Note_on_c, 12, 71, 127
1, 134462, Note_off_c, 12, 71, 127
1, 134462, Note_off_c, 4, 52, 127
1, 134463, Note_on_c, 0, 72, 127
1, 134463, Note_on_c, 2, 50, 127
1, 134523, Note_off_c, 0, 72, 127
1, 134524, Note_on_c, 12, 71, 127
1, 134584, Note_off_c, 12, 71, 127
1, 134584, Note_off_c, 2, 50, 127
1, 134585, Note_on_c, 0, 72, 127
1, 134585, Note_on_c, 4, 52, 127
1, 134645, Note_off_c, 0, 72, 127
1, 134646, Note_on_c, 12, 71, 127
1, 134706, Note_off_c, 12, 71, 127
1, 134706, Note_off_c, 4, 52, 127
1, 134707, Note_on_c, 10, 69, 127
1, 134707, Note_on_c, 4, 40, 127
1, 134828, Note_off_c, 4, 40, 127
1, 134828, Note_off_c, 10, 69, 127
1, 134829, Note_on_c, 10, 69, 127
1, 134829, Note_on_c, 10, 45, 127
1, 134950, Note_off_c, 10, 45, 127
1, 134951, Note_on_c, 4, 40, 127
1, 135072, Note_off_c, 4, 40, 127
1, 135072, Note_off_c, 10, 69, 127
1, 135073, Note_on_c, 10, 69, 127
1, 135073, Note_on_c, 6, 42, 127
1, 135194, Note_off_c, 6, 42, 127
1, 135195, Note_on_c, 8, 44, 127
1, 135316, Note_off_c, 8, 44, 127
1, 135316, Note_off_c, 10, 69, 127
1, 135317, Note_on_c, 0, 72, 127
1, 135317, Note_on_c, 10, 45, 127
1, 135438, Note_off_c, 10, 45, 127
1, 135439, Note_on_c, 8, 44, 127
1, 135560, Note_off_c, 8, 44, 127
1, 135560, Note_off_c, 0, 72, 127
1, 135561, Note_on_c, 0, 72, 127
1, 135561, Note_on_c, 10, 45, 127
1, 135682, Note_off_c, 10, 45, 127
1, 135683, Note_on_c, 12, 47, 127
1, 135804, Note_off_c, 12, 47, 127
1, 135804, Note_off_c, 0, 72, 127
1, 135805, Note_on_c, 4, 76, 127
1, 135805, Note_on_c, 0, 48, 127
1, 135926, Note_off_c, 0, 48, 127
1, 135927, Note_on_c, 12, 47, 127
1, 136048, Note_off_c, 12, 47, 127
1, 136048, Note_off_c, 4, 76, 127
1, 136049, Note_on_c, 4, 76, 127
1, 136049, Note_on_c, 0, 48, 127
1, 136170, Note_off_c, 0, 48, 127
1, 136171, Note_on_c, 2, 50, 127
1, 136292, Note_off_c, 2, 50, 127
1, 136292, Note_off_c, 4, 76, 127
1, 136293, Note_on_c, 8, 68, 127
1, 136293, Note_on_c, 4, 52, 127
1, 136414, Note_off_c, 4, 52, 127
1, 136415, Note_on_c, 12, 47, 127
1, 136536, Note_off_c, 12, 47, 127
1, 136536, Note_off_c, 8, 68, 127
1, 136537, Note_on_c, 8, 68, 127
1, 136537, Note_on_c, 0, 48, 127
1, 136658, Note_off_c, 0, 48, 127
1, 136659, Note_on_c, 2, 50, 127
1, 136780, Note_off_c, 2, 50, 127
1, 136780, Note_off_c, 8, 68, 127
1, 136781, Note_on_c, 12, 71, 127
1, 136781, Note_on_c, 4, 52, 127
1, 136902, Note_off_c, 4, 52, 127
1, 136903, Note_on_c, 2, 50, 127
1, 137024, Note_off_c, 2, 50, 127
1, 137024, Note_off_c, 12, 71, 127
1, 137025, Note_on_c, 12, 71, 127
1, 137025, Note_on_c, 4, 52, 127
1, 137146, Note_off_c, 4, 52, 127
1, 137147, Note_on_c, 6, 54, 127
1, 137268, Note_off_c, 6, 54, 127
1, 137268, Note_off_c, 12, 71, 127
1, 137269, Note_on_c, 4, 76, 127
1, 137269, Note_on_c, 8, 56, 127
1, 137390, Note_off_c, 8, 56, 127
1, 137391, Note_on_c, 4, 52, 127
1, 137512, Note_off_c, 4, 52, 127
1, 137512, Note_off_c, 4, 76, 127
1, 137513, Note_on_c, 4, 76, 127
1, 137513, Note_on_c, 6, 54, 127
1, 137634, Note_off_c, 6, 54, 127
1, 137635, Note_on_c, 8, 56, 127
1, 137756, Note_off_c, 8, 56, 127
1, 137756, Note_off_c, 4, 76, 127
1, 137757, Note_on_c, 10, 69, 127
1, 137757, Note_on_c, 10, 57, 127
1, 137878, Note_off_c, 10, 57, 127
1, 137879, Note_on_c, 8, 56, 127
1, 138000, Note_off_c, 8, 56, 127
1, 138000, Note_off_c, 10, 69, 127
1, 138001, Note_on_c, 10, 69, 127
1, 138001, Note_on_c, 10, 57, 127
1, 138122, Note_off_c, 10, 57, 127
1, 138123, Note_on_c, 12, 59, 127
1, 138244, Note_off_c, 12, 59, 127
1, 138244, Note_off_c, 10, 69, 127
1, 138245, Note_on_c, 0, 72, 127
1, 138245, Note_on_c, 10, 57, 127
1, 138366, Note_off_c, 10, 57, 127
1, 138367, Note_on_c, 7, 55, 127
1, 138488, Note_off_c, 7, 55, 127
1, 138488, Note_off_c, 0, 72, 127
1, 138489, Note_on_c, 0, 72, 127
1, 138489, Note_on_c, 5, 53, 127
1, 138610, Note_off_c, 5, 53, 127
1, 138611, Note_on_c, 4, 52, 127
1, 138732, Note_off_c, 4, 52, 127
1, 138732, Note_off_c, 0, 72, 127
1, 138733, Note_on_c, 5, 77, 127
1, 138733, Note_on_c, 2, 50, 127
1, 138854, Note_off_c, 2, 50, 127
1, 138855, Note_on_c, 4, 52, 127
1, 138976, Note_off_c, 4, 52, 127
1, 138976, Note_off_c, 5, 77, 127
1, 138977, Note_on_c, 5, 77, 127
1, 138977, Note_on_c, 5, 53, 127
1, 139098, Note_off_c, 5, 53, 127
1, 139099, Note_on_c, 2, 50, 127
1, 139220, Note_off_c, 2, 50, 127
1, 139220, Note_off_c, 5, 77, 127
1, 139221, Note_on_c, 12, 71, 127
1, 139221, Note_on_c, 7, 55, 127
1, 139342, Note_off_c, 7, 55, 127
1, 139343, Note_on_c, 2, 50, 127
1, 139464, Note_off_c, 2, 50, 127
1, 139464, Note_off_c, 12, 71, 127
1, 139465, Note_on_c, 12, 71, 127
1, 139465, Note_on_c, 4, 52, 127
1, 139586, Note_off_c, 4, 52, 127
1, 139587, Note_on_c, 6, 54, 127
1, 139708, Note_off_c, 6, 54, 127
1, 139708, Note_off_c, 12, 71, 127
1, 139709, Note_on_c, 2, 74, 127
1, 139709, Note_on_c, 7, 55, 127
1, 139830, Note_off_c, 7, 55, 127
1, 139831, Note_on_c, 6, 54, 127
1, 139952, Note_off_c, 6, 54, 127
1, 139952, Note_off_c, 2, 74, 127
1, 139953, Note_on_c, 2, 74, 127
1, 139953, Note_on_c, 7, 55, 127
1, 140074, Note_off_c, 7, 55, 127
1, 140075, Note_on_c, 10, 57, 127
1, 140196, Note_off_c, 10, 57, 127
1, 140196, Note_off_c, 2, 74, 127
1, 140197, Note_on_c, 7, 79, 127
1, 140197, Note_on_c, 12, 59, 127
1, 140318, Note_off_c, 12, 59, 127
1, 140319, Note_on_c, 7, 55, 127
1, 140440, Note_off_c, 7, 55, 127
1, 140440, Note_off_c, 7, 79, 127
1, 140441, Note_on_c, 7, 79, 127
1, 140441, Note_on_c, 10, 57, 127
1, 140562, Note_off_c, 10, 57, 127
1, 140563, Note_on_c, 12, 59, 127
1, 140684, Note_off_c, 12, 59, 127
1, 140684, Note_off_c, 7, 79, 127
1, 140685, Note_on_c, 0, 72, 127
1, 140685, Note_on_c, 0, 60, 127
1, 140806, Note_off_c, 0, 72, 127
1, 140807, Note_on_c, 12, 71, 127
1, 140928, Note_off_c, 12, 71, 127
1, 140928, Note_off_c, 0, 60, 127
1, 140929, Note_on_c, 0, 72, 127
1, 140929, Note_on_c, 0, 60, 127
1, 141050, Note_off_c, 0, 72, 127
1, 141051, Note_on_c, 2, 74, 127
1, 141172, Note_off_c, 2, 74, 127
1, 141172, Note_off_c, 0, 60, 127
1, 141173, Note_on_c, 0, 72, 127
1, 141173, Note_on_c, 4, 64, 127
1, 141294, Note_off_c, 0, 72, 127
1, 141295, Note_on_c, 12, 71, 127
1, 141416, Note_off_c, 12, 71, 127
1, 141416, Note_off_c, 4, 64, 127
1, 141417, Note_on_c, 0, 72, 127
1, 141417, Note_on_c, 4, 64, 127
1, 141538, Note_off_c, 0, 72, 127
1, 141539, Note_on_c, 2, 74, 127
1, 141660, Note_off_c, 2, 74, 127
1, 141660, Note_off_c, 4, 64, 127
1, 141661, Note_on_c, 12, 71, 127
1, 141661, Note_on_c, 7, 67, 127
1, 141782, Note_off_c, 12, 71, 127
1, 141783, Note_on_c, 10, 69, 127
1, 141904, Note_off_c, 10, 69, 127
1, 141904, Note_off_c, 7, 67, 127
1, 141905, Note_on_c, 12, 71, 127
1, 141905, Note_on_c, 7, 67, 127
1, 142026, Note_off_c, 12, 71, 127
1, 142027, Note_on_c, 0, 72, 127
1, 142148, Note_off_c, 0, 72, 127
1, 142148, Note_off_c, 7, 67, 127
1, 142149, Note_on_c, 2, 74, 127
1, 142149, Note_on_c, 12, 59, 127
1, 142270, Note_off_c, 2, 74, 127
1, 142271, Note_on_c, 0, 72, 127
1, 142392, Note_off_c, 0, 72, 127
1, 142392, Note_off_c, 12, 59, 127
1, 142393, Note_on_c, 12, 71, 127
1, 142393, Note_on_c, 12, 59, 127
1, 142514, Note_off_c, 12, 71, 127
1, 142515, Note_on_c, 10, 69, 127
1, 142636, Note_off_c, 10, 69, 127
1, 142636, Note_off_c, 12, 59, 127
1, 142637, Note_on_c, 7, 67, 127
1, 142637, Note_on_c, 2, 62, 127
1, 142758, Note_off_c, 7, 67, 127
1, 142759, Note_on_c, 10, 69, 127
1, 142880, Note_off_c, 10, 69, 127
1, 142880, Note_off_c, 2, 62, 127
1, 142881, Note_on_c, 12, 71, 127
1, 142881, Note_on_c, 2, 62, 127
1, 143002, Note_off_c, 12, 71, 127
1, 143003, Note_on_c, 0, 72, 127
1, 143124, Note_off_c, 0, 72, 127
1, 143124, Note_off_c, 2, 62, 127
1, 143125, Note_on_c, 2, 74, 127
1, 143125, Note_on_c, 7, 67, 127
1, 143246, Note_off_c, 2, 74, 127
1, 143247, Note_on_c, 4, 76, 127
1, 143368, Note_off_c, 4, 76, 127
1, 143368, Note_off_c, 7, 67, 127
1, 143369, Note_on_c, 5, 77, 127
1, 143369, Note_on_c, 7, 67, 127
1, 143490, Note_off_c, 5, 77, 127
1, 143491, Note_on_c, 2, 74, 127
1, 143612, Note_off_c, 2, 74, 127
1, 143612, Note_off_c, 7, 67, 127
1, 143613, Note_on_c, 4, 76, 127
1, 143613, Note_on_c, 0, 60, 127
1, 143734, Note_off_c, 0, 60, 127
1, 143735, Note_on_c, 12, 59, 127
1, 143856, Note_off_c, 12, 59, 127
1, 143856, Note_off_c, 4, 76, 127
1, 143857, Note_on_c, 5, 77, 127
1, 143857, Note_on_c, 0, 60, 127
1, 143978, Note_off_c, 0, 60, 127
1, 143978, Note_off_c, 5, 77, 127
1, 143979, Note_on_c, 7, 79, 127
1, 143979, Note_on_c, 2, 62, 127
1, 144100, Note_off_c, 2, 62, 127
1, 144100, Note_off_c, 7, 79, 127
1, 144101, Note_on_c, 7, 67, 127
1, 144101, Note_on_c, 4, 64, 127
1, 144222, Note_off_c, 4, 64, 127
1, 144223, Note_on_c, 2, 62, 127
1, 144344, Note_off_c, 2, 62, 127
1, 144344, Note_off_c, 7, 67, 127
1, 144345, Note_on_c, 0, 72, 127
1, 144345, Note_on_c, 4, 64, 127
1, 144466, Note_off_c, 4, 64, 127
1, 144467, Note_on_c, 5, 65, 127
1, 144588, Note_off_c, 5, 65, 127
1, 144588, Note_off_c, 0, 72, 127
1, 144589, Note_on_c, 0, 72, 127
1, 144589, Note_on_c, 7, 67, 127
1, 144649, Note_off_c, 0, 72, 127
1, 144650, Note_on_c, 12, 71, 127
1, 144710, Note_off_c, 12, 71, 127
1, 144710, Note_off_c, 7, 67, 127
1, 144711, Note_on_c, 0, 72, 127
1, 144711, Note_on_c, 5, 65, 127
1, 144771, Note_off_c, 0, 72, 127
1, 144772, Note_on_c, 12, 71, 127
1, 144832, Note_off_c, 5, 65, 127
1, 144833, Note_on_c, 7, 67, 127
1, 144954, Note_off_c, 7, 67, 127
1, 144955, Note_on_c, 7, 55, 127
1, 145076, Note_off_c, 7, 55, 127
1, 145076, Note_off_c, 12, 71, 127
1, 145077, Note_on_c, 0, 72, 127
1, 145077, Note_on_c, 0, 60, 127
1, 145321, Note_off_c, 0, 72, 127
1, 145322, Note_on_c, 0, 72, 127
1, 145562, Note_off_c, 0, 60, 127
1, 145566, Note_off_c, 0, 72, 127
1, 145567, Note_on_c, 4, 76, 127
1, 145811, Note_off_c, 4, 76, 127
1, 145812, Note_on_c, 4, 76, 127
1, 146056, Note_off_c, 4, 76, 127
1, 146057, Note_on_c, 7, 79, 127
1, 146057, Note_on_c, 4, 52, 127
1, 146057, Note_on_c, 7, 55, 127
1, 146057, Note_on_c, 0, 60, 127
1, 146057, Note_on_c, 0, 48, 127
1, 146301, Note_off_c, 7, 79, 127
1, 146302, Note_on_c, 7, 79, 127
1, 146546, Note_off_c, 7, 79, 127
1, 146546, Note_off_c, 0, 48, 127
1, 146546, Note_off_c, 0, 60, 127
1, 146546, Note_off_c, 7, 55, 127
1, 146546, Note_off_c, 4, 52, 127
1, 146547, Note_on_c, 12, 71, 127
1, 146547, Note_on_c, 7, 55, 127
1, 146547, Note_on_c, 2, 62, 127
1, 146791, Note_off_c, 12, 71, 127
1, 146792, Note_on_c, 12, 71, 127
1, 147032, Note_off_c, 2, 62, 127
1, 147032, Note_off_c, 7, 55, 127
1, 147036, Note_off_c, 12, 71, 127
1, 147037, Note_on_c, 2, 74, 127
1, 147281, Note_off_c, 2, 74, 127
1, 147282, Note_on_c, 2, 74, 127
1, 147526, Note_off_c, 2, 74, 127
1, 147527, Note_on_c, 7, 79, 127
1, 147527, Note_on_c, 12, 59, 127
1, 147527, Note_on_c, 4, 64, 127
1, 147527, Note_on_c, 4, 52, 127
1, 147771, Note_off_c, 7, 79, 127
1, 147772, Note_on_c, 7, 79, 127
1, 148016, Note_off_c, 7, 79, 127
1, 148016, Note_off_c, 4, 52, 127
1, 148016, Note_off_c, 4, 64, 127
1, 148016, Note_off_c, 12, 59, 127
1, 148017, Note_on_c, 0, 72, 127
1, 148017, Note_on_c, 10, 57, 127
1, 148017, Note_on_c, 4, 64, 127
1, 148261, Note_off_c, 0, 72, 127
1, 148262, Note_on_c, 0, 72, 127
1, 148502, Note_off_c, 4, 64, 127
1, 148502, Note_off_c, 10, 57, 127
1, 148506, Note_off_c, 0, 72, 127
1, 148507, Note_on_c, 5, 77, 127
1, 148630, Note_on_c, 10, 57, 127
1, 148751, Note_off_c, 10, 57, 127
1, 148751, Note_off_c, 5, 77, 127
1, 148752, Note_on_c, 5, 77, 127
1, 148752, Note_on_c, 7, 55, 127
1, 148873, Note_off_c, 7, 55, 127
1, 148874, Note_on_c, 10, 57, 127
1, 148995, Note_off_c, 5, 77, 127
1, 148996, Note_on_c, 5, 65, 127
1, 148996, Note_on_c, 0, 72, 127
1, 148996, Note_on_c, 10, 45, 127
1, 149116, Note_off_c, 10, 57, 127
1, 149117, Note_off_c, 10, 45, 127
1, 149118, Note_on_c, 10, 57, 127
1, 149239, Note_off_c, 10, 57, 127
1, 149239, Note_off_c, 0, 72, 127
1, 149239, Note_off_c, 5, 65, 127
1, 149240, Note_on_c, 5, 65, 127
1, 149240, Note_on_c, 0, 72, 127
1, 149240, Note_on_c, 7, 55, 127
1, 149361, Note_off_c, 7, 55, 127
1, 149362, Note_on_c, 5, 53, 127
1, 149483, Note_off_c, 5, 53, 127
1, 149483, Note_off_c, 0, 72, 127
1, 149483, Note_off_c, 5, 65, 127
1, 149484, Note_on_c, 5, 65, 127
1, 149484, Note_on_c, 12, 71, 127
1, 149484, Note_on_c, 7, 55, 127
1, 149728, Note_off_c, 12, 71, 127
1, 149729, Note_on_c, 12, 71, 127
1, 149969, Note_off_c, 7, 55, 127
1, 149969, Note_off_c, 5, 65, 127
1, 149973, Note_off_c, 12, 71, 127
1, 149974, Note_on_c, 4, 76, 127
1, 150097, Note_on_c, 7, 55, 127
1, 150218, Note_off_c, 7, 55, 127
1, 150218, Note_off_c, 4, 76, 127
1, 150219, Note_on_c, 4, 76, 127
1, 150219, Note_on_c, 5, 53, 127
1, 150340, Note_off_c, 5, 53, 127
1, 150341, Note_on_c, 7, 55, 127
1, 150462, Note_off_c, 4, 76, 127
1, 150463, Note_on_c, 4, 64, 127
1, 150463, Note_on_c, 12, 71, 127
1, 150463, Note_on_c, 7, 43, 127
1, 150583, Note_off_c, 7, 55, 127
1, 150584, Note_off_c, 7, 43, 127
1, 150585, Note_on_c, 7, 55, 127
1, 150706, Note_off_c, 7, 55, 127
1, 150706, Note_off_c, 12, 71, 127
1, 150706, Note_off_c, 4, 64, 127
1, 150707, Note_on_c, 4, 64, 127
1, 150707, Note_on_c, 12, 71, 127
1, 150707, Note_on_c, 5, 53, 127
1, 150828, Note_off_c, 5, 53, 127
1, 150829, Note_on_c, 4, 52, 127
1, 150950, Note_off_c, 4, 52, 127
1, 150950, Note_off_c, 12, 71, 127
1, 150950, Note_off_c, 4, 64, 127
1, 150951, Note_on_c, 4, 64, 127
1, 150951, Note_on_c, 10, 69, 127
1, 150951, Note_on_c, 5, 53, 127
1, 151195, Note_off_c, 10, 69, 127
1, 151196, Note_on_c, 10, 69, 127
1, 151436, Note_off_c, 5, 53, 127
1, 151436, Note_off_c, 4, 64, 127
1, 151440, Note_off_c, 10, 69, 127
1, 151441, Note_on_c, 2, 74, 127
1, 151564, Note_on_c, 5, 53, 127
1, 151685, Note_off_c, 5, 53, 127
1, 151685, Note_off_c, 2, 74, 127
1, 151686, Note_on_c, 2, 74, 127
1, 151686, Note_on_c, 4, 52, 127
1, 151807, Note_off_c, 4, 52, 127
1, 151808, Note_on_c, 5, 53, 127
1, 151929, Note_off_c, 2, 74, 127
1, 151930, Note_on_c, 10, 69, 127
1, 151930, Note_on_c, 2, 62, 127
1, 151930, Note_on_c, 5, 41, 127
1, 152050, Note_off_c, 5, 53, 127
1, 152051, Note_off_c, 5, 41, 127
1, 152052, Note_on_c, 5, 53, 127
1, 152173, Note_off_c, 5, 53, 127
1, 152173, Note_off_c, 2, 62, 127
1, 152173, Note_off_c, 10, 69, 127
1, 152174, Note_on_c, 10, 69, 127
1, 152174, Note_on_c, 2, 62, 127
1, 152174, Note_on_c, 4, 52, 127
1, 152295, Note_off_c, 4, 52, 127
1, 152296, Note_on_c, 2, 50, 127
1, 152417, Note_off_c, 2, 50, 127
1, 152417, Note_off_c, 2, 62, 127
1, 152417, Note_off_c, 10, 69, 127
1, 152418, Note_on_c, 8, 68, 127
1, 152418, Note_on_c, 12, 59, 127
1, 152418, Note_on_c, 4, 52, 127
1, 152662, Note_off_c, 8, 68, 127
1, 152663, Note_on_c, 4, 64, 127
1, 152903, Note_off_c, 4, 52, 127
1, 152907, Note_off_c, 4, 64, 127
1, 152908, Note_on_c, 4, 64, 127
1, 153031, Note_on_c, 4, 52, 127
1, 153152, Note_off_c, 4, 52, 127
1, 153152, Note_off_c, 4, 64, 127
1, 153152, Note_off_c, 12, 59, 127
1, 153153, Note_on_c, 4, 64, 127
1, 153153, Note_on_c, 2, 50, 127
1, 153274, Note_off_c, 2, 50, 127
1, 153275, Note_on_c, 4, 52, 127
1, 153396, Note_off_c, 4, 64, 127
1, 153397, Note_on_c, 10, 69, 127
1, 153397, Note_on_c, 0, 72, 127
1, 153397, Note_on_c, 4, 40, 127
1, 153517, Note_off_c, 4, 52, 127
1, 153518, Note_off_c, 4, 40, 127
1, 153519, Note_on_c, 4, 52, 127
1, 153640, Note_off_c, 4, 52, 127
1, 153640, Note_off_c, 0, 72, 127
1, 153641, Note_on_c, 4, 64, 127
1, 153641, Note_on_c, 2, 50, 127
1, 153762, Note_off_c, 2, 50, 127
1, 153763, Note_on_c, 4, 52, 127
1, 153880, Note_off_c, 10, 69, 127
1, 153884, Note_off_c, 4, 64, 127
1, 153885, Note_on_c, 12, 71, 127
1, 153885, Note_on_c, 8, 68, 127
1, 153885, Note_on_c, 4, 40, 127
1, 154005, Note_off_c, 4, 52, 127
1, 154006, Note_off_c, 4, 40, 127
1, 154007, Note_on_c, 4, 52, 127
1, 154128, Note_off_c, 4, 52, 127
1, 154128, Note_off_c, 12, 71, 127
1, 154129, Note_on_c, 4, 64, 127
1, 154129, Note_on_c, 2, 50, 127
1, 154250, Note_off_c, 2, 50, 127
1, 154251, Note_on_c, 4, 52, 127
1, 154368, Note_off_c, 8, 68, 127
1, 154372, Note_off_c, 4, 64, 127
1, 154373, Note_on_c, 4, 64, 127
1, 154373, Note_on_c, 4, 40, 127
1, 154493, Note_off_c, 4, 52, 127
1, 154494, Note_off_c, 4, 40, 127
1, 154495, Note_on_c, 4, 52, 127
1, 154616, Note_off_c, 4, 52, 127
1, 154616, Note_off_c, 4, 64, 127
1, 154617, Note_on_c, 4, 64, 127
1, 154617, Note_on_c, 2, 50, 127
1, 154738, Note_off_c, 2, 50, 127
1, 154739, Note_on_c, 4, 52, 127
1, 154860, Note_off_c, 4, 64, 127
1, 154861, Note_on_c, 10, 69, 127
1, 154861, Note_on_c, 0, 60, 127
1, 154861, Note_on_c, 4, 40, 127
1, 154981, Note_off_c, 4, 52, 127
1, 154982, Note_off_c, 4, 40, 127
1, 154983, Note_on_c, 4, 52, 127
1, 155104, Note_off_c, 4, 52, 127
1, 155104, Note_off_c, 10, 69, 127
1, 155105, Note_on_c, 4, 64, 127
1, 155105, Note_on_c, 2, 50, 127
1, 155226, Note_off_c, 2, 50, 127
1, 155227, Note_on_c, 4, 52, 127
1, 155344, Note_off_c, 0, 60, 127
1, 155348, Note_off_c, 4, 64, 127
1, 155349, Note_on_c, 12, 59, 127
1, 155349, Note_on_c, 8, 68, 127
1, 155349, Note_on_c, 4, 40, 127
1, 155469, Note_off_c, 4, 52, 127
1, 155470, Note_off_c, 4, 40, 127
1, 155471, Note_on_c, 4, 52, 127
1, 155592, Note_off_c, 4, 52, 127
1, 155592, Note_off_c, 8, 68, 127
1, 155593, Note_on_c, 4, 64, 127
1, 155593, Note_on_c, 2, 50, 127
1, 155714, Note_off_c, 2, 50, 127
1, 155715, Note_on_c, 4, 52, 127
1, 155832, Note_off_c, 12, 59, 127
1, 155836, Note_off_c, 4, 64, 127
1, 155837, Note_on_c, 4, 64, 127
1, 155837, Note_on_c, 4, 40, 127
1, 155957, Note_off_c, 4, 52, 127
1, 155958, Note_off_c, 4, 40, 127
1, 155959, Note_on_c, 4, 52, 127
1, 156080, Note_off_c, 4, 52, 127
1, 156080, Note_off_c, 4, 64, 127
1, 156081, Note_on_c, 4, 64, 127
1, 156081, Note_on_c, 2, 50, 127
1, 156202, Note_off_c, 2, 50, 127
1, 156203, Note_on_c, 4, 52, 127
1, 156324, Note_off_c, 4, 64, 127
1, 156325, Note_on_c, 10, 69, 127
1, 156325, Note_on_c, 0, 72, 127
1, 156325, Note_on_c, 4, 40, 127
1, 156445, Note_off_c, 4, 52, 127
1, 156446, Note_off_c, 4, 40, 127
1, 156447, Note_on_c, 4, 52, 127
1, 156568, Note_off_c, 4, 52, 127
1, 156568, Note_off_c, 0, 72, 127
1, 156569, Note_on_c, 4, 64, 127
1, 156569, Note_on_c, 2, 50, 127
1, 156690, Note_off_c, 2, 50, 127
1, 156691, Note_on_c, 4, 52, 127
1, 156808, Note_off_c, 10, 69, 127
1, 156812, Note_off_c, 4, 52, 127
1, 156812, Note_off_c, 4, 64, 127
1, 156813, Note_on_c, 12, 71, 127
1, 156813, Note_on_c, 8, 68, 127
1, 156813, Note_on_c, 4, 40, 127
1, 156934, Note_off_c, 4, 40, 127
1, 156935, Note_on_c, 2, 50, 127
1, 157056, Note_off_c, 2, 50, 127
1, 157056, Note_off_c, 12, 71, 127
1, 157057, Note_on_c, 4, 64, 127
1, 157057, Note_on_c, 4, 52, 127
1, 157178, Note_off_c, 4, 52, 127
1, 157179, Note_on_c, 5, 53, 127
1, 157296, Note_off_c, 8, 68, 127
1, 157300, Note_off_c, 5, 53, 127
1, 157300, Note_off_c, 4, 64, 127
1, 157301, Note_on_c, 4, 64, 127
1, 157301, Note_on_c, 4, 52, 127
1, 157422, Note_off_c, 4, 52, 127
1, 157423, Note_on_c, 2, 50, 127
1, 157544, Note_off_c, 2, 50, 127
1, 157544, Note_off_c, 4, 64, 127
1, 157545, Note_on_c, 4, 64, 127
1, 157545, Note_on_c, 0, 48, 127
1, 157666, Note_off_c, 0, 48, 127
1, 157667, Note_on_c, 12, 47, 127
1, 157788, Note_off_c, 12, 47, 127
1, 157788, Note_off_c, 4, 64, 127
1, 157789, Note_on_c, 0, 72, 127
1, 157789, Note_on_c, 10, 45, 127
1, 157910, Note_off_c, 10, 45, 127
1, 157910, Note_off_c, 0, 72, 127
1, 157911, Note_on_c, 12, 71, 127
1, 157911, Note_on_c, 12, 47, 127
1, 158032, Note_off_c, 12, 47, 127
1, 158032, Note_off_c, 12, 71, 127
1, 158033, Note_on_c, 0, 72, 127
1, 158033, Note_on_c, 10, 45, 127
1, 158154, Note_off_c, 10, 45, 127
1, 158154, Note_off_c, 0, 72, 127
1, 158155, Note_on_c, 10, 69, 127
1, 158155, Note_on_c, 7, 43, 127
1, 158276, Note_off_c, 7, 43, 127
1, 158276, Note_off_c, 10, 69, 127
1, 158277, Note_on_c, 2, 62, 127
1, 158277, Note_on_c, 0, 72, 127
1, 158277, Note_on_c, 2, 74, 127
1, 158277, Note_on_c, 6, 42, 127
1, 158521, Note_off_c, 6, 42, 127
1, 158522, Note_on_c, 6, 54, 127
1, 158766, Note_off_c, 6, 54, 127
1, 158766, Note_off_c, 0, 72, 127
1, 158766, Note_off_c, 2, 62, 127
1, 158767, Note_on_c, 4, 64, 127
1, 158767, Note_on_c, 12, 71, 127
1, 158767, Note_on_c, 8, 56, 127
1, 159011, Note_off_c, 8, 56, 127
1, 159011, Note_off_c, 2, 74, 127
1, 159012, Note_on_c, 4, 76, 127
1, 159012, Note_on_c, 8, 44, 127
1, 159252, Note_off_c, 12, 71, 127
1, 159252, Note_off_c, 4, 64, 127
1, 159256, Note_off_c, 8, 44, 127
1, 159256, Note_off_c, 4, 76, 127
1, 159257, Note_on_c, 4, 64, 127
1, 159257, Note_on_c, 10, 69, 127
1, 159257, Note_on_c, 0, 72, 127
1, 159257, Note_on_c, 10, 45, 127
1, 159378, Note_off_c, 10, 45, 127
1, 159379, Note_on_c, 0, 48, 127
1, 159500, Note_off_c, 0, 48, 127
1, 159501, Note_on_c, 2, 50, 127
1, 159622, Note_off_c, 2, 50, 127
1, 159623, Note_on_c, 4, 52, 127
1, 159744, Note_off_c, 4, 52, 127
1, 159745, Note_on_c, 5, 53, 127
1, 159866, Note_off_c, 5, 53, 127
1, 159867, Note_on_c, 4, 52, 127
1, 159988, Note_off_c, 4, 52, 127
1, 159988, Note_off_c, 0, 72, 127
1, 159988, Note_off_c, 10, 69, 127
1, 159988, Note_off_c, 4, 64, 127
1, 159989, Note_on_c, 2, 62, 127
1, 159989, Note_on_c, 12, 71, 127
1, 159989, Note_on_c, 10, 69, 127
1, 159989, Note_on_c, 5, 53, 127
1, 160110, Note_off_c, 5, 53, 127
1, 160111, Note_on_c, 2, 50, 127
1, 160232, Note_off_c, 2, 50, 127
1, 160232, Note_off_c, 10, 69, 127
1, 160232, Note_off_c, 12, 71, 127
1, 160232, Note_off_c, 2, 62, 127
1, 160233, Note_on_c, 8, 68, 127
1, 160233, Note_on_c, 0, 72, 127
1, 160233, Note_on_c, 2, 62, 127
1, 160233, Note_on_c, 4, 52, 127
1, 160354, Note_off_c, 0, 72, 127
1, 160355, Note_on_c, 12, 71, 127
1, 160415, Note_off_c, 12, 71, 127
1, 160416, Note_on_c, 0, 72, 127
1, 160476, Note_off_c, 0, 72, 127
1, 160477, Note_on_c, 12, 71, 127
1, 160537, Note_off_c, 12, 71, 127
1, 160538, Note_on_c, 0, 72, 127
1, 160598, Note_off_c, 0, 72, 127
1, 160599, Note_on_c, 12, 71, 127
1, 160720, Note_off_c, 4, 52, 127
1, 160721, Note_on_c, 4, 40, 127
1, 160965, Note_off_c, 12, 71, 127
1, 160966, Note_on_c, 10, 69, 127
1, 161210, Note_off_c, 10, 69, 127
1, 161210, Note_off_c, 4, 40, 127
1, 161210, Note_off_c, 2, 62, 127
1, 161210, Note_off_c, 8, 68, 127
1, 161211, Note_on_c, 10, 69, 127
1, 161211, Note_on_c, 10, 45, 127
1, 161211, Note_on_c, 0, 60, 127
1, 161272, Note_on_c, 12, 71, 127
1, 161281, Note_off_c, 10, 69, 127
1, 161333, Note_on_c, 0, 72, 127
1, 161342, Note_off_c, 12, 71, 127
1, 161394, Note_on_c, 2, 74, 127
1, 161403, Note_off_c, 0, 72, 127
1, 161453, Note_off_c, 0, 60, 127
1, 161456, Note_on_c, 4, 76, 127
1, 161465, Note_off_c, 2, 74, 127
1, 161577, Note_off_c, 4, 76, 127
1, 161578, Note_on_c, 0, 72, 127
1, 161695, Note_off_c, 10, 45, 127
1, 161699, Note_off_c, 0, 72, 127
1, 161700, Note_on_c, 10, 69, 127
1, 161821, Note_off_c, 10, 69, 127
1, 161822, Note_on_c, 0, 72, 127
1, 161943, Note_off_c, 0, 72, 127
1, 161944, Note_on_c, 4, 76, 127
1, 162065, Note_off_c, 4, 76, 127
1, 162066, Note_on_c, 0, 72, 127
1, 162187, Note_off_c, 0, 72, 127
1, 162188, Note_on_c, 10, 69, 127
1, 162309, Note_off_c, 10, 69, 127
1, 162310, Note_on_c, 0, 72, 127
1, 162431, Note_off_c, 0, 72, 127
1, 162432, Note_on_c, 4, 76, 127
1, 162553, Note_off_c, 4, 76, 127
1, 162554, Note_on_c, 0, 72, 127
1, 162675, Note_off_c, 0, 72, 127
1, 162676, Note_on_c, 5, 77, 127
1, 162676, Note_on_c, 2, 50, 127
1, 162737, Note_on_c, 4, 52, 127
1, 162746, Note_off_c, 2, 50, 127
1, 162798, Note_on_c, 5, 53, 127
1, 162807, Note_off_c, 4, 52, 127
1, 162859, Note_on_c, 7, 55, 127
1, 162868, Note_off_c, 5, 53, 127
1, 162919, Note_off_c, 5, 77, 127
1, 162920, Note_on_c, 5, 65, 127
1, 162920, Note_on_c, 10, 57, 127
1, 162929, Note_off_c, 7, 55, 127
1, 163041, Note_off_c, 10, 57, 127
1, 163042, Note_on_c, 5, 53, 127
1, 163163, Note_off_c, 5, 53, 127
1, 163163, Note_off_c, 5, 65, 127
1, 163164, Note_on_c, 5, 65, 127
1, 163164, Note_on_c, 2, 50, 127
1, 163285, Note_off_c, 2, 50, 127
1, 163286, Note_on_c, 5, 53, 127
1, 163407, Note_off_c, 5, 53, 127
1, 163407, Note_off_c, 5, 65, 127
1, 163408, Note_on_c, 5, 65, 127
1, 163408, Note_on_c, 10, 57, 127
1, 163529, Note_off_c, 10, 57, 127
1, 163530, Note_on_c, 5, 53, 127
1, 163651, Note_off_c, 5, 53, 127
1, 163651, Note_off_c, 5, 65, 127
1, 163652, Note_on_c, 5, 65, 127
1, 163652, Note_on_c, 2, 50, 127
1, 163773, Note_off_c, 2, 50, 127
1, 163774, Note_on_c, 5, 53, 127
1, 163895, Note_off_c, 5, 53, 127
1, 163895, Note_off_c, 5, 65, 127
1, 163896, Note_on_c, 5, 65, 127
1, 163896, Note_on_c, 10, 57, 127
1, 164017, Note_off_c, 10, 57, 127
1, 164018, Note_on_c, 5, 53, 127
1, 164139, Note_off_c, 5, 53, 127
1, 164139, Note_off_c, 5, 65, 127
1, 164140, Note_on_c, 7, 67, 127
1, 164140, Note_on_c, 12, 59, 127
1, 164201, Note_on_c, 10, 69, 127
1, 164210, Note_off_c, 7, 67, 127
1, 164262, Note_on_c, 12, 71, 127
1, 164271, Note_off_c, 10, 69, 127
1, 164323, Note_on_c, 0, 72, 127
1, 164332, Note_off_c, 12, 71, 127
1, 164383, Note_off_c, 12, 59, 127
1, 164384, Note_on_c, 2, 74, 127
1, 164384, Note_on_c, 12, 47, 127
1, 164393, Note_off_c, 0, 72, 127
1, 164505, Note_off_c, 2, 74, 127
1, 164506, Note_on_c, 12, 71, 127
1, 164627, Note_off_c, 12, 71, 127
1, 164627, Note_off_c, 12, 47, 127
1, 164628, Note_on_c, 7, 67, 127
1, 164628, Note_on_c, 12, 47, 127
1, 164749, Note_off_c, 7, 67, 127
1, 164750, Note_on_c, 12, 71, 127
1, 164871, Note_off_c, 12, 71, 127
1, 164871, Note_off_c, 12, 47, 127
1, 164872, Note_on_c, 2, 74, 127
1, 164872, Note_on_c, 12, 47, 127
1, 164993, Note_off_c, 2, 74, 127
1, 164994, Note_on_c, 12, 71, 127
1, 165115, Note_off_c, 12, 71, 127
1, 165115, Note_off_c, 12, 47, 127
1, 165116, Note_on_c, 7, 67, 127
1, 165116, Note_on_c, 12, 47, 127
1, 165237, Note_off_c, 7, 67, 127
1, 165238, Note_on_c, 12, 71, 127
1, 165359, Note_off_c, 12, 71, 127
1, 165359, Note_off_c, 12, 47, 127
1, 165360, Note_on_c, 2, 74, 127
1, 165360, Note_on_c, 12, 47, 127
1, 165481, Note_off_c, 2, 74, 127
1, 165482, Note_on_c, 12, 71, 127
1, 165603, Note_off_c, 12, 71, 127
1, 165603, Note_off_c, 12, 47, 127
1, 165604, Note_on_c, 4, 76, 127
1, 165604, Note_on_c, 0, 48, 127
1, 165665, Note_on_c, 2, 50, 127
1, 165674, Note_off_c, 0, 48, 127
1, 165726, Note_on_c, 4, 52, 127
1, 165735, Note_off_c, 2, 50, 127
1, 165787, Note_on_c, 5, 53, 127
1, 165796, Note_off_c, 4, 52, 127
1, 165847, Note_off_c, 4, 76, 127
1, 165848, Note_on_c, 4, 64, 127
1, 165848, Note_on_c, 7, 55, 127
1, 165857, Note_off_c, 5, 53, 127
1, 165969, Note_off_c, 7, 55, 127
1, 165970, Note_on_c, 4, 52, 127
1, 166091, Note_off_c, 4, 52, 127
1, 166091, Note_off_c, 4, 64, 127
1, 166092, Note_on_c, 4, 64, 127
1, 166092, Note_on_c, 0, 48, 127
1, 166213, Note_off_c, 0, 48, 127
1, 166214, Note_on_c, 4, 52, 127
1, 166335, Note_off_c, 4, 52, 127
1, 166335, Note_off_c, 4, 64, 127
1, 166336, Note_on_c, 4, 64, 127
1, 166336, Note_on_c, 7, 55, 127
1, 166457, Note_off_c, 7, 55, 127
1, 166458, Note_on_c, 4, 52, 127
1, 166579, Note_off_c, 4, 52, 127
1, 166579, Note_off_c, 4, 64, 127
1, 166580, Note_on_c, 4, 64, 127
1, 166580, Note_on_c, 0, 48, 127
1, 166701, Note_off_c, 0, 48, 127
1, 166702, Note_on_c, 4, 52, 127
1, 166823, Note_off_c, 4, 52, 127
1, 166823, Note_off_c, 4, 64, 127
1, 166824, Note_on_c, 4, 64, 127
1, 166824, Note_on_c, 7, 55, 127
1, 166945, Note_off_c, 7, 55, 127
1, 166946, Note_on_c, 4, 52, 127
1, 167067, Note_off_c, 4, 52, 127
1, 167067, Note_off_c, 4, 64, 127
1, 167068, Note_on_c, 5, 65, 127
1, 167068, Note_on_c, 10, 57, 127
1, 167129, Note_on_c, 7, 67, 127
1, 167138, Note_off_c, 5, 65, 127
1, 167190, Note_on_c, 10, 69, 127
1, 167199, Note_off_c, 7, 67, 127
1, 167251, Note_on_c, 12, 71, 127
1, 167260, Note_off_c, 10, 69, 127
1, 167311, Note_off_c, 10, 57, 127
1, 167312, Note_on_c, 0, 72, 127
1, 167312, Note_on_c, 10, 45, 127
1, 167321, Note_off_c, 12, 71, 127
1, 167433, Note_off_c, 0, 72, 127
1, 167434, Note_on_c, 10, 69, 127
1, 167555, Note_off_c, 10, 69, 127
1, 167555, Note_off_c, 10, 45, 127
1, 167556, Note_on_c, 5, 65, 127
1, 167556, Note_on_c, 10, 45, 127
1, 167677, Note_off_c, 5, 65, 127
1, 167678, Note_on_c, 10, 69, 127
1, 167799, Note_off_c, 10, 69, 127
1, 167799, Note_off_c, 10, 45, 127
1, 167800, Note_on_c, 0, 72, 127
1, 167800, Note_on_c, 10, 45, 127
1, 167921, Note_off_c, 0, 72, 127
1, 167922, Note_on_c, 10, 69, 127
1, 168043, Note_off_c, 10, 69, 127
1, 168043, Note_off_c, 10, 45, 127
1, 168044, Note_on_c, 5, 65, 127
1, 168044, Note_on_c, 10, 45, 127
1, 168165, Note_off_c, 5, 65, 127
1, 168166, Note_on_c, 10, 69, 127
1, 168287, Note_off_c, 10, 69, 127
1, 168287, Note_off_c, 10, 45, 127
1, 168288, Note_on_c, 0, 72, 127
1, 168288, Note_on_c, 10, 45, 127
1, 168409, Note_off_c, 0, 72, 127
1, 168410, Note_on_c, 10, 69, 127
1, 168531, Note_off_c, 10, 69, 127
1, 168531, Note_off_c, 10, 45, 127
1, 168532, Note_on_c, 2, 74, 127
1, 168532, Note_on_c, 12, 47, 127
1, 168593, Note_on_c, 0, 48, 127
1, 168602, Note_off_c, 12, 47, 127
1, 168654, Note_on_c, 2, 50, 127
1, 168663, Note_off_c, 0, 48, 127
1, 168715, Note_on_c, 4, 52, 127
1, 168724, Note_off_c, 2, 50, 127
1, 168775, Note_off_c, 2, 74, 127
1, 168776, Note_on_c, 2, 62, 127
1, 168776, Note_on_c, 5, 53, 127
1, 168785, Note_off_c, 4, 52, 127
1, 168897, Note_off_c, 5, 53, 127
1, 168898, Note_on_c, 2, 50, 127
1, 169019, Note_off_c, 2, 50, 127
1, 169019, Note_off_c, 2, 62, 127
1, 169020, Note_on_c, 2, 62, 127
1, 169020, Note_on_c, 12, 47, 127
1, 169141, Note_off_c, 12, 47, 127
1, 169142, Note_on_c, 2, 50, 127
1, 169263, Note_off_c, 2, 50, 127
1, 169263, Note_off_c, 2, 62, 127
1, 169264, Note_on_c, 2, 62, 127
1, 169264, Note_on_c, 5, 53, 127
1, 169385, Note_off_c, 5, 53, 127
1, 169386, Note_on_c, 2, 50, 127
1, 169507, Note_off_c, 2, 50, 127
1, 169507, Note_off_c, 2, 62, 127
1, 169508, Note_on_c, 2, 62, 127
1, 169508, Note_on_c, 12, 47, 127
1, 169629, Note_off_c, 12, 47, 127
1, 169630, Note_on_c, 2, 50, 127
1, 169751, Note_off_c, 2, 50, 127
1, 169751, Note_off_c, 2, 62, 127
1, 169752, Note_on_c, 2, 62, 127
1, 169752, Note_on_c, 5, 53, 127
1, 169873, Note_off_c, 5, 53, 127
1, 169874, Note_on_c, 2, 50, 127
1, 169995, Note_off_c, 2, 50, 127
1, 169995, Note_off_c, 2, 62, 127
1, 169996, Note_on_c, 4, 64, 127
1, 169996, Note_on_c, 8, 56, 127
1, 170057, Note_on_c, 6, 66, 127
1, 170066, Note_off_c, 4, 64, 127
1, 170118, Note_on_c, 8, 68, 127
1, 170127, Note_off_c, 6, 66, 127
1, 170179, Note_on_c, 10, 69, 127
1, 170188, Note_off_c, 8, 68, 127
1, 170239, Note_off_c, 8, 56, 127
1, 170240, Note_on_c, 12, 71, 127
1, 170240, Note_on_c, 8, 44, 127
1, 170249, Note_off_c, 10, 69, 127
1, 170361, Note_off_c, 12, 71, 127
1, 170362, Note_on_c, 8, 68, 127
1, 170483, Note_off_c, 8, 68, 127
1, 170483, Note_off_c, 8, 44, 127
1, 170484, Note_on_c, 4, 64, 127
1, 170484, Note_on_c, 8, 44, 127
1, 170605, Note_off_c, 4, 64, 127
1, 170606, Note_on_c, 8, 68, 127
1, 170727, Note_off_c, 8, 68, 127
1, 170727, Note_off_c, 8, 44, 127
1, 170728, Note_on_c, 12, 71, 127
1, 170728, Note_on_c, 8, 44, 127
1, 170849, Note_off_c, 12, 71, 127
1, 170850, Note_on_c, 8, 68, 127
1, 170971, Note_off_c, 8, 68, 127
1, 170971, Note_off_c, 8, 44, 127
1, 170972, Note_on_c, 4, 64, 127
1, 170972, Note_on_c, 8, 44, 127
1, 171093, Note_off_c, 4, 64, 127
1, 171094, Note_on_c, 8, 68, 127
1, 171215, Note_off_c, 8, 68, 127
1, 171215, Note_off_c, 8, 44, 127
1, 171216, Note_on_c, 12, 71, 127
1, 171216, Note_on_c, 8, 44, 127
1, 171337, Note_off_c, 12, 71, 127
1, 171338, Note_on_c, 8, 68, 127
1, 171459, Note_off_c, 8, 68, 127
1, 171459, Note_off_c, 8, 44, 127
1, 171460, Note_on_c, 0, 72, 127
1, 171460, Note_on_c, 10, 45, 127
1, 171521, Note_on_c, 12, 47, 127
1, 171530, Note_off_c, 10, 45, 127
1, 171582, Note_on_c, 0, 48, 127
1, 171591, Note_off_c, 12, 47, 127
1, 171643, Note_on_c, 2, 50, 127
1, 171652, Note_off_c, 0, 48, 127
1, 171703, Note_off_c, 0, 72, 127
1, 171704, Note_on_c, 0, 60, 127
1, 171704, Note_on_c, 4, 52, 127
1, 171713, Note_off_c, 2, 50, 127
1, 171825, Note_off_c, 4, 52, 127
1, 171826, Note_on_c, 0, 48, 127
1, 171947, Note_off_c, 0, 48, 127
1, 171947, Note_off_c, 0, 60, 127
1, 171948, Note_on_c, 0, 60, 127
1, 171948, Note_on_c, 10, 45, 127
1, 172069, Note_off_c, 10, 45, 127
1, 172070, Note_on_c, 0, 48, 127
1, 172191, Note_off_c, 0, 48, 127
1, 172191, Note_off_c, 0, 60, 127
1, 172192, Note_on_c, 0, 60, 127
1, 172192, Note_on_c, 4, 52, 127
1, 172313, Note_off_c, 4, 52, 127
1, 172314, Note_on_c, 0, 48, 127
1, 172435, Note_off_c, 0, 48, 127
1, 172435, Note_off_c, 0, 60, 127
1, 172436, Note_on_c, 0, 60, 127
1, 172436, Note_on_c, 10, 45, 127
1, 172557, Note_off_c, 10, 45, 127
1, 172558, Note_on_c, 0, 48, 127
1, 172679, Note_off_c, 0, 48, 127
1, 172679, Note_off_c, 0, 60, 127
1, 172680, Note_on_c, 0, 60, 127
1, 172680, Note_on_c, 4, 52, 127
1, 172801, Note_off_c, 4, 52, 127
1, 172802, Note_on_c, 0, 48, 127
1, 172923, Note_off_c, 0, 48, 127
1, 172923, Note_off_c, 0, 60, 127
1, 172924, Note_on_c, 2, 62, 127
1, 172924, Note_on_c, 5, 53, 127
1, 172986, Note_on_c, 4, 64, 127
1, 172995, Note_off_c, 2, 62, 127
1, 173048, Note_on_c, 5, 65, 127
1, 173057, Note_off_c, 4, 64, 127
1, 173110, Note_on_c, 7, 67, 127
1, 173119, Note_off_c, 5, 65, 127
1, 173171, Note_off_c, 5, 53, 127
1, 173172, Note_on_c, 10, 69, 127
1, 173172, Note_on_c, 5, 41, 127
1, 173181, Note_off_c, 7, 67, 127
1, 173295, Note_off_c, 10, 69, 127
1, 173296, Note_on_c, 5, 65, 127
1, 173419, Note_off_c, 5, 65, 127
1, 173419, Note_off_c, 5, 41, 127
1, 173420, Note_on_c, 2, 62, 127
1, 173420, Note_on_c, 5, 41, 127
1, 173543, Note_off_c, 2, 62, 127
1, 173544, Note_on_c, 5, 65, 127
1, 173667, Note_off_c, 5, 65, 127
1, 173667, Note_off_c, 5, 41, 127
1, 173668, Note_on_c, 10, 69, 127
1, 173668, Note_on_c, 5, 41, 127
1, 173791, Note_off_c, 10, 69, 127
1, 173792, Note_on_c, 5, 65, 127
1, 173915, Note_off_c, 5, 65, 127
1, 173915, Note_off_c, 5, 41, 127
1, 173916, Note_on_c, 2, 62, 127
1, 173916, Note_on_c, 5, 41, 127
1, 174039, Note_off_c, 2, 62, 127
1, 174040, Note_on_c, 5, 65, 127
1, 174163, Note_off_c, 5, 65, 127
1, 174163, Note_off_c, 5, 41, 127
1, 174164, Note_on_c, 10, 69, 127
1, 174164, Note_on_c, 5, 41, 127
1, 174287, Note_off_c, 10, 69, 127
1, 174288, Note_on_c, 5, 65, 127
1, 174411, Note_off_c, 5, 65, 127
1, 174411, Note_off_c, 5, 41, 127
1, 174412, Note_on_c, 12, 71, 127
1, 174412, Note_on_c, 8, 44, 127
1, 174474, Note_on_c, 10, 45, 127
1, 174483, Note_off_c, 8, 44, 127
1, 174536, Note_on_c, 12, 47, 127
1, 174545, Note_off_c, 10, 45, 127
1, 174598, Note_on_c, 0, 48, 127
1, 174607, Note_off_c, 12, 47, 127
1, 174659, Note_off_c, 12, 71, 127
1, 174660, Note_on_c, 12, 59, 127
1, 174660, Note_on_c, 2, 50, 127
1, 174669, Note_off_c, 0, 48, 127
1, 174783, Note_off_c, 2, 50, 127
1, 174784, Note_on_c, 12, 47, 127
1, 174907, Note_off_c, 12, 47, 127
1, 174907, Note_off_c, 12, 59, 127
1, 174908, Note_on_c, 12, 59, 127
1, 174908, Note_on_c, 8, 44, 127
1, 175031, Note_off_c, 8, 44, 127
1, 175032, Note_on_c, 12, 47, 127
1, 175155, Note_off_c, 12, 47, 127
1, 175155, Note_off_c, 12, 59, 127
1, 175156, Note_on_c, 12, 59, 127
1, 175156, Note_on_c, 2, 50, 127
1, 175279, Note_off_c, 2, 50, 127
1, 175280, Note_on_c, 12, 47, 127
1, 175403, Note_off_c, 12, 47, 127
1, 175403, Note_off_c, 12, 59, 127
1, 175404, Note_on_c, 12, 59, 127
1, 175404, Note_on_c, 8, 44, 127
1, 175527, Note_off_c, 8, 44, 127
1, 175528, Note_on_c, 12, 47, 127
1, 175651, Note_off_c, 12, 47, 127
1, 175651, Note_off_c, 12, 59, 127
1, 175652, Note_on_c, 12, 59, 127
1, 175652, Note_on_c, 2, 50, 127
1, 175775, Note_off_c, 2, 50, 127
1, 175776, Note_on_c, 12, 47, 127
1, 175899, Note_off_c, 12, 47, 127
1, 175899, Note_off_c, 12, 59, 127
1, 175908, Note_on_c, 0, 60, 127
1, 175908, Note_on_c, 10, 45, 127
1, 175970, Note_on_c, 4, 64, 127
1, 175989, Note_off_c, 0, 60, 127
1, 176032, Note_on_c, 6, 66, 127
1, 176051, Note_off_c, 4, 64, 127
1, 176094, Note_on_c, 8, 68, 127
1, 176113, Note_off_c, 6, 66, 127
1, 176154, Note_off_c, 10, 45, 127
1, 176155, Note_on_c, 10, 69, 127
1, 176155, Note_on_c, 8, 44, 127
1, 176174, Note_off_c, 8, 68, 127
1, 176217, Note_on_c, 8, 68, 127
1, 176236, Note_off_c, 10, 69, 127
1, 176279, Note_on_c, 6, 66, 127
1, 176298, Note_off_c, 8, 68, 127
1, 176341, Note_on_c, 4, 64, 127
1, 176360, Note_off_c, 6, 66, 127
1, 176401, Note_off_c, 8, 44, 127
1, 176402, Note_on_c, 0, 60, 127
1, 176402, Note_on_c, 10, 45, 127
1, 176421, Note_off_c, 4, 64, 127
1, 176464, Note_on_c, 4, 64, 127
1, 176483, Note_off_c, 0, 60, 127
1, 176526, Note_on_c, 6, 66, 127
1, 176545, Note_off_c, 4, 64, 127
1, 176588, Note_on_c, 8, 68, 127
1, 176607, Note_off_c, 6, 66, 127
1, 176648, Note_off_c, 10, 45, 127
1, 176649, Note_on_c, 10, 69, 127
1, 176649, Note_on_c, 12, 47, 127
1, 176668, Note_off_c, 8, 68, 127
1, 176711, Note_on_c, 8, 68, 127
1, 176730, Note_off_c, 10, 69, 127
1, 176773, Note_on_c, 6, 66, 127
1, 176792, Note_off_c, 8, 68, 127
1, 176835, Note_on_c, 4, 64, 127
1, 176854, Note_off_c, 6, 66, 127
1, 176895, Note_off_c, 12, 47, 127
1, 176896, Note_on_c, 0, 60, 127
1, 176896, Note_on_c, 0, 48, 127
1, 176915, Note_off_c, 4, 64, 127
1, 176958, Note_on_c, 4, 64, 127
1, 176977, Note_off_c, 0, 60, 127
1, 177020, Note_on_c, 6, 66, 127
1, 177039, Note_off_c, 4, 64, 127
1, 177082, Note_on_c, 8, 68, 127
1, 177101, Note_off_c, 6, 66, 127
1, 177142, Note_off_c, 0, 48, 127
1, 177143, Note_on_c, 10, 69, 127
1, 177143, Note_on_c, 10, 45, 127
1, 177162, Note_off_c, 8, 68, 127
1, 177205, Note_on_c, 8, 68, 127
1, 177224, Note_off_c, 10, 69, 127
1, 177267, Note_on_c, 6, 66, 127
1, 177286, Note_off_c, 8, 68, 127
1, 177329, Note_on_c, 4, 64, 127
1, 177348, Note_off_c, 6, 66, 127
1, 177389, Note_off_c, 10, 45, 127
1, 177390, Note_on_c, 12, 59, 127
1, 177390, Note_on_c, 2, 50, 127
1, 177410, Note_off_c, 4, 64, 127
1, 177453, Note_on_c, 2, 62, 127
1, 177473, Note_off_c, 12, 59, 127
1, 177516, Note_on_c, 5, 65, 127
1, 177536, Note_off_c, 2, 62, 127
1, 177579, Note_on_c, 8, 68, 127
1, 177599, Note_off_c, 5, 65, 127
1, 177641, Note_off_c, 2, 50, 127
1, 177642, Note_on_c, 10, 69, 127
1, 177642, Note_on_c, 0, 48, 127
1, 177662, Note_off_c, 8, 68, 127
1, 177705, Note_on_c, 8, 68, 127
1, 177725, Note_off_c, 10, 69, 127
1, 177768, Note_on_c, 5, 65, 127
1, 177788, Note_off_c, 8, 68, 127
1, 177831, Note_on_c, 2, 62, 127
1, 177851, Note_off_c, 5, 65, 127
1, 177893, Note_off_c, 0, 48, 127
1, 177894, Note_on_c, 12, 59, 127
1, 177894, Note_on_c, 2, 50, 127
1, 177914, Note_off_c, 2, 62, 127
1, 177957, Note_on_c, 2, 62, 127
1, 177977, Note_off_c, 12, 59, 127
1, 178020, Note_on_c, 5, 65, 127
1, 178040, Note_off_c, 2, 62, 127
1, 178083, Note_on_c, 8, 68, 127
1, 178103, Note_off_c, 5, 65, 127
1, 178145, Note_off_c, 2, 50, 127
1, 178146, Note_on_c, 10, 69, 127
1, 178146, Note_on_c, 4, 52, 127
1, 178166, Note_off_c, 8, 68, 127
1, 178209, Note_on_c, 8, 68, 127
1, 178229, Note_off_c, 10, 69, 127
1, 178272, Note_on_c, 5, 65, 127
1, 178292, Note_off_c, 8, 68, 127
1, 178335, Note_on_c, 2, 62, 127
1, 178355, Note_off_c, 5, 65, 127
1, 178397, Note_off_c, 4, 52, 127
1, 178398, Note_on_c, 12, 59, 127
1, 178398, Note_on_c, 5, 53, 127
1, 178418, Note_off_c, 2, 62, 127
1, 178462, Note_on_c, 2, 62, 127
1, 178482, Note_off_c, 12, 59, 127
1, 178526, Note_on_c, 5, 65, 127
1, 178546, Note_off_c, 2, 62, 127
1, 178590, Note_on_c, 8, 68, 127
1, 178610, Note_off_c, 5, 65, 127
1, 178652, Note_off_c, 5, 53, 127
1, 178653, Note_on_c, 10, 69, 127
1, 178653, Note_on_c, 4, 52, 127
1, 178673, Note_off_c, 8, 68, 127
1, 178717, Note_on_c, 8, 68, 127
1, 178737, Note_off_c, 10, 69, 127
1, 178781, Note_on_c, 5, 65, 127
1, 178801, Note_off_c, 8, 68, 127
1, 178845, Note_on_c, 2, 62, 127
1, 178865, Note_off_c, 5, 65, 127
1, 178907, Note_off_c, 4, 52, 127
1, 178908, Note_on_c, 12, 59, 127
1, 178908, Note_on_c, 4, 52, 127
1, 178928, Note_off_c, 2, 62, 127
1, 178972, Note_on_c, 2, 62, 127
1, 178992, Note_off_c, 12, 59, 127
1, 179036, Note_on_c, 4, 64, 127
1, 179056, Note_off_c, 2, 62, 127
1, 179100, Note_on_c, 6, 66, 127
1, 179120, Note_off_c, 4, 64, 127
1, 179163, Note_off_c, 4, 52, 127
1, 179164, Note_on_c, 8, 68, 127
1, 179164, Note_on_c, 5, 53, 127
1, 179184, Note_off_c, 6, 66, 127
1, 179228, Note_on_c, 6, 66, 127
1, 179248, Note_off_c, 8, 68, 127
1, 179292, Note_on_c, 4, 64, 127
1, 179312, Note_off_c, 6, 66, 127
1, 179356, Note_on_c, 2, 62, 127
1, 179376, Note_off_c, 4, 64, 127
1, 179419, Note_off_c, 5, 53, 127
1, 179420, Note_on_c, 12, 59, 127
1, 179420, Note_on_c, 4, 52, 127
1, 179440, Note_off_c, 2, 62, 127
1, 179484, Note_on_c, 2, 62, 127
1, 179504, Note_off_c, 12, 59, 127
1, 179548, Note_on_c, 4, 64, 127
1, 179568, Note_off_c, 2, 62, 127
1, 179612, Note_on_c, 6, 66, 127
1, 179632, Note_off_c, 4, 64, 127
1, 179675, Note_off_c, 4, 52, 127
1, 179676, Note_on_c, 8, 68, 127
1, 179676, Note_on_c, 2, 50, 127
1, 179696, Note_off_c, 6, 66, 127
1, 179740, Note_on_c, 6, 66, 127
1, 179760, Note_off_c, 8, 68, 127
1, 179804, Note_on_c, 4, 64, 127
1, 179824, Note_off_c, 6, 66, 127
1, 179868, Note_on_c, 2, 62, 127
1, 179888, Note_off_c, 4, 64, 127
1, 179931, Note_off_c, 2, 50, 127
1, 179932, Note_on_c, 12, 59, 127
1, 179932, Note_on_c, 4, 52, 127
1, 179953, Note_off_c, 2, 62, 127
1, 180000, Note_on_c, 2, 62, 127
1, 180021, Note_off_c, 12, 59, 127
1, 180068, Note_on_c, 4, 64, 127
1, 180089, Note_off_c, 2, 62, 127
1, 180136, Note_on_c, 6, 66, 127
1, 180167, Note_off_c, 4, 64, 127
1, 180203, Note_off_c, 4, 52, 127
1, 180204, Note_on_c, 8, 68, 127
1, 180204, Note_on_c, 4, 40, 127
1, 180228, Note_off_c, 6, 66, 127
1, 180272, Note_on_c, 6, 66, 127
1, 180289, Note_off_c, 8, 68, 127
1, 180340, Note_on_c, 4, 64, 127
1, 180350, Note_off_c, 6, 66, 127
1, 180409, Note_on_c, 2, 62, 127
1, 180412, Note_off_c, 4, 64, 127
1, 180473, Note_off_c, 2, 62, 127
1, 180476, Note_off_c, 4, 40, 127
1, 180493, Note_on_c, 10, 45, 127
1, 180493, Note_on_c, 10, 57, 127
1, 180737, Note_off_c, 10, 57, 127
1, 180737, Note_off_c, 10, 45, 127
1, 180738, Note_on_c, 10, 45, 127
1, 180738, Note_on_c, 10, 57, 127
1, 180982, Note_off_c, 10, 57, 127
1, 180982, Note_off_c, 10, 45, 127
1, 180983, Note_on_c, 0, 48, 127
1, 180983, Note_on_c, 0, 60, 127
1, 181227, Note_off_c, 0, 60, 127
1, 181227, Note_off_c, 0, 48, 127
1, 181228, Note_on_c, 0, 48, 127
1, 181228, Note_on_c, 0, 60, 127
1, 181472, Note_off_c, 0, 60, 127
1, 181472, Note_off_c, 0, 48, 127
1, 181473, Note_on_c, 4, 52, 127
1, 181473, Note_on_c, 4, 64, 127
1, 181717, Note_off_c, 4, 64, 127
1, 181717, Note_off_c, 4, 52, 127
1, 181718, Note_on_c, 4, 52, 127
1, 181718, Note_on_c, 4, 64, 127
1, 181962, Note_off_c, 4, 64, 127
1, 181962, Note_off_c, 4, 52, 127
1, 181963, Note_on_c, 8, 44, 127
1, 181963, Note_on_c, 8, 56, 127
1, 182207, Note_off_c, 8, 56, 127
1, 182207, Note_off_c, 8, 44, 127
1, 182208, Note_on_c, 8, 44, 127
1, 182208, Note_on_c, 8, 56, 127
1, 182452, Note_off_c, 8, 56, 127
1, 182452, Note_off_c, 8, 44, 127
1, 182453, Note_on_c, 12, 47, 127
1, 182453, Note_on_c, 12, 59, 127
1, 182697, Note_off_c, 12, 59, 127
1, 182697, Note_off_c, 12, 47, 127
1, 182698, Note_on_c, 12, 47, 127
1, 182698, Note_on_c, 12, 59, 127
1, 182942, Note_off_c, 12, 59, 127
1, 182942, Note_off_c, 12, 47, 127
1, 182943, Note_on_c, 4, 52, 127
1, 182943, Note_on_c, 4, 64, 127
1, 183187, Note_off_c, 4, 64, 127
1, 183187, Note_off_c, 4, 52, 127
1, 183188, Note_on_c, 4, 52, 127
1, 183188, Note_on_c, 4, 64, 127
1, 183432, Note_off_c, 4, 64, 127
1, 183432, Note_off_c, 4, 52, 127
1, 183433, Note_on_c, 10, 45, 127
1, 183433, Note_on_c, 1, 61, 127
1, 183554, Note_off_c, 10, 45, 127
1, 183555, Note_on_c, 10, 57, 127
1, 183676, Note_off_c, 10, 57, 127
1, 183676, Note_off_c, 1, 61, 127
1, 183677, Note_on_c, 7, 55, 127
1, 183677, Note_on_c, 1, 61, 127
1, 183798, Note_off_c, 7, 55, 127
1, 183799, Note_on_c, 5, 53, 127
1, 183920, Note_off_c, 5, 53, 127
1, 183920, Note_off_c, 1, 61, 127
1, 183921, Note_on_c, 4, 52, 127
1, 183921, Note_on_c, 4, 64, 127
1, 184042, Note_off_c, 4, 52, 127
1, 184043, Note_on_c, 2, 50, 127
1, 184164, Note_off_c, 2, 50, 127
1, 184164, Note_off_c, 4, 64, 127
1, 184165, Note_on_c, 1, 49, 127
1, 184165, Note_on_c, 4, 64, 127
1, 184286, Note_off_c, 1, 49, 127
1, 184287, Note_on_c, 12, 47, 127
1, 184408, Note_off_c, 12, 47, 127
1, 184408, Note_off_c, 4, 64, 127
1, 184409, Note_on_c, 10, 45, 127
1, 184409, Note_on_c, 10, 69, 127
1, 184530, Note_off_c, 10, 45, 127
1, 184531, Note_on_c, 7, 43, 127
1, 184652, Note_off_c, 7, 43, 127
1, 184652, Note_off_c, 10, 69, 127
1, 184653, Note_on_c, 5, 41, 127
1, 184653, Note_on_c, 10, 69, 127
1, 184774, Note_off_c, 5, 41, 127
1, 184775, Note_on_c, 4, 40, 127
1, 184896, Note_off_c, 4, 40, 127
1, 184896, Note_off_c, 10, 69, 127
1, 184897, Note_on_c, 2, 38, 127
1, 184897, Note_on_c, 2, 62, 127
1, 185141, Note_off_c, 2, 62, 127
1, 185141, Note_off_c, 2, 38, 127
1, 185142, Note_on_c, 2, 50, 127
1, 185142, Note_on_c, 2, 62, 127
1, 185386, Note_off_c, 2, 62, 127
1, 185386, Note_off_c, 2, 50, 127
1, 185387, Note_on_c, 5, 53, 127
1, 185387, Note_on_c, 5, 65, 127
1, 185631, Note_off_c, 5, 65, 127
1, 185631, Note_off_c, 5, 53, 127
1, 185632, Note_on_c, 5, 53, 127
1, 185632, Note_on_c, 5, 65, 127
1, 185876, Note_off_c, 5, 65, 127
1, 185876, Note_off_c, 5, 53, 127
1, 185877, Note_on_c, 10, 57, 127
1, 185877, Note_on_c, 10, 69, 127
1, 186121, Note_off_c, 10, 69, 127
1, 186121, Note_off_c, 10, 57, 127
1, 186122, Note_on_c, 10, 57, 127
1, 186122, Note_on_c, 10, 69, 127
1, 186366, Note_off_c, 10, 69, 127
1, 186366, Note_off_c, 10, 57, 127
1, 186367, Note_on_c, 1, 49, 127
1, 186367, Note_on_c, 1, 61, 127
1, 186611, Note_off_c, 1, 61, 127
1, 186611, Note_off_c, 1, 49, 127
1, 186612, Note_on_c, 1, 49, 127
1, 186612, Note_on_c, 1, 61, 127
1, 186856, Note_off_c, 1, 61, 127
1, 186856, Note_off_c, 1, 49, 127
1, 186857, Note_on_c, 4, 52, 127
1, 186857, Note_on_c, 4, 64, 127
1, 187101, Note_off_c, 4, 64, 127
1, 187101, Note_off_c, 4, 52, 127
1, 187102, Note_on_c, 4, 52, 127
1, 187102, Note_on_c, 4, 64, 127
1, 187346, Note_off_c, 4, 64, 127
1, 187346, Note_off_c, 4, 52, 127
1, 187347, Note_on_c, 10, 57, 127
1, 187347, Note_on_c, 10, 69, 127
1, 187591, Note_off_c, 10, 69, 127
1, 187591, Note_off_c, 10, 57, 127
1, 187592, Note_on_c, 10, 57, 127
1, 187592, Note_on_c, 10, 69, 127
1, 187836, Note_off_c, 10, 69, 127
1, 187836, Note_off_c, 10, 57, 127
1, 187837, Note_on_c, 2, 50, 127
1, 187837, Note_on_c, 2, 62, 127
1, 187958, Note_off_c, 2, 62, 127
1, 187959, Note_on_c, 2, 74, 127
1, 188080, Note_off_c, 2, 74, 127
1, 188080, Note_off_c, 2, 50, 127
1, 188081, Note_on_c, 2, 50, 127
1, 188081, Note_on_c, 1, 73, 127
1, 188202, Note_off_c, 1, 73, 127
1, 188203, Note_on_c, 2, 74, 127
1, 188324, Note_off_c, 2, 74, 127
1, 188324, Note_off_c, 2, 50, 127
1, 188325, Note_on_c, 5, 53, 127
1, 188325, Note_on_c, 10, 69, 127
1, 188446, Note_off_c, 10, 69, 127
1, 188447, Note_on_c, 2, 74, 127
1, 188568, Note_off_c, 2, 74, 127
1, 188568, Note_off_c, 5, 53, 127
1, 188569, Note_on_c, 5, 53, 127
1, 188569, Note_on_c, 1, 73, 127
1, 188690, Note_off_c, 1, 73, 127
1, 188691, Note_on_c, 2, 74, 127
1, 188812, Note_off_c, 2, 74, 127
1, 188812, Note_off_c, 5, 53, 127
1, 188813, Note_on_c, 10, 57, 127
1, 188813, Note_on_c, 5, 65, 127
1, 188934, Note_off_c, 5, 65, 127
1, 188935, Note_on_c, 10, 69, 127
1, 189056, Note_off_c, 10, 69, 127
1, 189056, Note_off_c, 10, 57, 127
1, 189057, Note_on_c, 10, 57, 127
1, 189057, Note_on_c, 7, 67, 127
1, 189178, Note_off_c, 7, 67, 127
1, 189179, Note_on_c, 10, 69, 127
1, 189300, Note_off_c, 10, 69, 127
1, 189300, Note_off_c, 10, 57, 127
1, 189301, Note_on_c, 2, 50, 127
1, 189301, Note_on_c, 2, 62, 127
1, 189422, Note_off_c, 2, 62, 127
1, 189423, Note_on_c, 2, 74, 127
1, 189544, Note_off_c, 2, 74, 127
1, 189544, Note_off_c, 2, 50, 127
1, 189545, Note_on_c, 2, 50, 127
1, 189545, Note_on_c, 1, 73, 127
1, 189666, Note_off_c, 1, 73, 127
1, 189667, Note_on_c, 2, 74, 127
1, 189788, Note_off_c, 2, 74, 127
1, 189788, Note_off_c, 2, 50, 127
1, 189789, Note_on_c, 5, 53, 127
1, 189789, Note_on_c, 10, 69, 127
1, 189910, Note_off_c, 10, 69, 127
1, 189911, Note_on_c, 2, 74, 127
1, 190032, Note_off_c, 2, 74, 127
1, 190032, Note_off_c, 5, 53, 127
1, 190033, Note_on_c, 5, 53, 127
1, 190033, Note_on_c, 1, 73, 127
1, 190154, Note_off_c, 1, 73, 127
1, 190155, Note_on_c, 2, 74, 127
1, 190276, Note_off_c, 2, 74, 127
1, 190276, Note_off_c, 5, 53, 127
1, 190277, Note_on_c, 10, 57, 127
1, 190277, Note_on_c, 5, 65, 127
1, 190398, Note_off_c, 5, 65, 127
1, 190399, Note_on_c, 10, 69, 127
1, 190520, Note_off_c, 10, 69, 127
1, 190520, Note_off_c, 10, 57, 127
1, 190521, Note_on_c, 10, 57, 127
1, 190521, Note_on_c, 7, 67, 127
1, 190642, Note_off_c, 7, 67, 127
1, 190643, Note_on_c, 10, 69, 127
1, 190764, Note_off_c, 10, 69, 127
1, 190764, Note_off_c, 10, 57, 127
1, 190765, Note_on_c, 2, 50, 127
1, 190765, Note_on_c, 2, 62, 127
1, 190886, Note_off_c, 2, 62, 127
1, 190887, Note_on_c, 4, 64, 127
1, 191008, Note_off_c, 4, 64, 127
1, 191008, Note_off_c, 2, 50, 127
1, 191009, Note_on_c, 2, 50, 127
1, 191009, Note_on_c, 5, 65, 127
1, 191130, Note_off_c, 5, 65, 127
1, 191131, Note_on_c, 7, 67, 127
1, 191252, Note_off_c, 7, 67, 127
1, 191252, Note_off_c, 2, 50, 127
1, 191253, Note_on_c, 5, 53, 127
1, 191253, Note_on_c, 10, 69, 127
1, 191374, Note_off_c, 10, 69, 127
1, 191375, Note_on_c, 12, 71, 127
1, 191496, Note_off_c, 12, 71, 127
1, 191496, Note_off_c, 5, 53, 127
1, 191497, Note_on_c, 5, 53, 127
1, 191497, Note_on_c, 1, 73, 127
1, 191618, Note_off_c, 1, 73, 127
1, 191619, Note_on_c, 2, 74, 127
1, 191740, Note_off_c, 2, 74, 127
1, 191740, Note_off_c, 5, 53, 127
1, 191741, Note_on_c, 10, 57, 127
1, 191741, Note_on_c, 1, 73, 127
1, 191862, Note_off_c, 1, 73, 127
1, 191863, Note_on_c, 2, 74, 127
1, 191984, Note_off_c, 2, 74, 127
1, 191984, Note_off_c, 10, 57, 127
1, 191985, Note_on_c, 10, 57, 127
1, 191985, Note_on_c, 1, 73, 127
1, 192106, Note_off_c, 1, 73, 127
1, 192107, Note_on_c, 12, 71, 127
1, 192228, Note_off_c, 12, 71, 127
1, 192228, Note_off_c, 10, 57, 127
1, 192229, Note_on_c, 2, 50, 127
1, 192229, Note_on_c, 10, 69, 127
1, 192350, Note_off_c, 10, 69, 127
1, 192351, Note_on_c, 2, 74, 127
1, 192472, Note_off_c, 2, 74, 127
1, 192472, Note_off_c, 2, 50, 127
1, 192473, Note_on_c, 2, 50, 127
1, 192473, Note_on_c, 1, 73, 127
1, 192594, Note_off_c, 1, 73, 127
1, 192595, Note_on_c, 12, 71, 127
1, 192716, Note_off_c, 12, 71, 127
1, 192716, Note_off_c, 2, 50, 127
1, 192717, Note_on_c, 5, 53, 127
1, 192717, Note_on_c, 10, 69, 127
1, 192838, Note_off_c, 10, 69, 127
1, 192839, Note_on_c, 2, 74, 127
1, 192960, Note_off_c, 2, 74, 127
1, 192960, Note_off_c, 5, 53, 127
1, 192961, Note_on_c, 5, 53, 127
1, 192961, Note_on_c, 1, 73, 127
1, 193082, Note_off_c, 1, 73, 127
1, 193083, Note_on_c, 12, 71, 127
1, 193204, Note_off_c, 12, 71, 127
1, 193204, Note_off_c, 5, 53, 127
1, 193205, Note_on_c, 10, 57, 127
1, 193205, Note_on_c, 10, 69, 127
1, 193326, Note_off_c, 10, 69, 127
1, 193327, Note_on_c, 7, 67, 127
1, 193448, Note_off_c, 7, 67, 127
1, 193448, Note_off_c, 10, 57, 127
1, 193449, Note_on_c, 10, 57, 127
1, 193449, Note_on_c, 5, 65, 127
1, 193570, Note_off_c, 5, 65, 127
1, 193571, Note_on_c, 4, 64, 127
1, 193692, Note_off_c, 4, 64, 127
1, 193692, Note_off_c, 10, 57, 127
1, 193693, Note_on_c, 2, 50, 127
1, 193693, Note_on_c, 5, 65, 127
1, 193814, Note_off_c, 5, 65, 127
1, 193815, Note_on_c, 10, 69, 127
1, 193936, Note_off_c, 10, 69, 127
1, 193936, Note_off_c, 2, 50, 127
1, 193937, Note_on_c, 2, 50, 127
1, 193937, Note_on_c, 7, 67, 127
1, 194058, Note_off_c, 7, 67, 127
1, 194059, Note_on_c, 10, 69, 127
1, 194180, Note_off_c, 10, 69, 127
1, 194180, Note_off_c, 2, 50, 127
1, 194181, Note_on_c, 5, 53, 127
1, 194181, Note_on_c, 5, 65, 127
1, 194302, Note_off_c, 5, 65, 127
1, 194303, Note_on_c, 10, 69, 127
1, 194424, Note_off_c, 10, 69, 127
1, 194424, Note_off_c, 5, 53, 127
1, 194425, Note_on_c, 5, 53, 127
1, 194425, Note_on_c, 7, 67, 127
1, 194546, Note_off_c, 7, 67, 127
1, 194547, Note_on_c, 10, 69, 127
1, 194668, Note_off_c, 10, 69, 127
1, 194668, Note_off_c, 5, 53, 127
1, 194669, Note_on_c, 10, 57, 127
1, 194669, Note_on_c, 5, 65, 127
1, 194790, Note_off_c, 5, 65, 127
1, 194791, Note_on_c, 10, 69, 127
1, 194912, Note_off_c, 10, 69, 127
1, 194912, Note_off_c, 10, 57, 127
1, 194913, Note_on_c, 10, 57, 127
1, 194913, Note_on_c, 7, 67, 127
1, 195034, Note_off_c, 7, 67, 127
1, 195035, Note_on_c, 10, 69, 127
1, 195156, Note_off_c, 10, 69, 127
1, 195156, Note_off_c, 10, 57, 127
1, 195157, Note_on_c, 1, 49, 127
1, 195157, Note_on_c, 4, 64, 127
1, 195278, Note_off_c, 4, 64, 127
1, 195279, Note_on_c, 10, 69, 127
1, 195400, Note_off_c, 10, 69, 127
1, 195400, Note_off_c, 1, 49, 127
1, 195401, Note_on_c, 1, 49, 127
1, 195401, Note_on_c, 7, 67, 127
1, 195522, Note_off_c, 7, 67, 127
1, 195523, Note_on_c, 10, 69, 127
1, 195644, Note_off_c, 10, 69, 127
1, 195644, Note_off_c, 1, 49, 127
1, 195645, Note_on_c, 4, 52, 127
1, 195645, Note_on_c, 4, 64, 127
1, 195766, Note_off_c, 4, 64, 127
1, 195767, Note_on_c, 10, 69, 127
1, 195888, Note_off_c, 10, 69, 127
1, 195888, Note_off_c, 4, 52, 127
1, 195889, Note_on_c, 4, 52, 127
1, 195889, Note_on_c, 7, 67, 127
1, 196010, Note_off_c, 7, 67, 127
1, 196011, Note_on_c, 10, 69, 127
1, 196132, Note_off_c, 10, 69, 127
1, 196132, Note_off_c, 4, 52, 127
1, 196133, Note_on_c, 10, 57, 127
1, 196133, Note_on_c, 4, 64, 127
1, 196254, Note_off_c, 4, 64, 127
1, 196255, Note_on_c, 10, 69, 127
1, 196376, Note_off_c, 10, 69, 127
1, 196376, Note_off_c, 10, 57, 127
1, 196377, Note_on_c, 10, 57, 127
1, 196377, Note_on_c, 7, 67, 127
1, 196498, Note_off_c, 7, 67, 127
1, 196499, Note_on_c, 10, 69, 127
1, 196620, Note_off_c, 10, 69, 127
1, 196620, Note_off_c, 10, 57, 127
1, 196621, Note_on_c, 2, 50, 127
1, 196621, Note_on_c, 5, 53, 127
1, 196621, Note_on_c, 10, 57, 127
1, 196621, Note_on_c, 2, 62, 127
1, 196865, Note_off_c, 2, 62, 127
1, 196866, Note_on_c, 2, 62, 127
1, 197106, Note_off_c, 10, 57, 127
1, 197106, Note_off_c, 5, 53, 127
1, 197106, Note_off_c, 2, 50, 127
1, 197110, Note_off_c, 2, 62, 127
1, 197111, Note_on_c, 5, 65, 127
1, 197355, Note_off_c, 5, 65, 127
1, 197356, Note_on_c, 5, 65, 127
1, 197600, Note_off_c, 5, 65, 127
1, 197601, Note_on_c, 5, 53, 127
1, 197601, Note_on_c, 10, 69, 127
1, 197845, Note_off_c, 10, 69, 127
1, 197846, Note_on_c, 10, 69, 127
1, 198090, Note_off_c, 10, 69, 127
1, 198090, Note_off_c, 5, 53, 127
1, 198091, Note_on_c, 10, 57, 127
1, 198091, Note_on_c, 1, 61, 127
1, 198335, Note_off_c, 1, 61, 127
1, 198336, Note_on_c, 1, 61, 127
1, 198576, Note_off_c, 10, 57, 127
1, 198580, Note_off_c, 1, 61, 127
1, 198581, Note_on_c, 4, 64, 127
1, 198825, Note_off_c, 4, 64, 127
1, 198826, Note_on_c, 4, 64, 127
1, 199070, Note_off_c, 4, 64, 127
1, 199071, Note_on_c, 7, 55, 127
1, 199071, Note_on_c, 1, 49, 127
1, 199071, Note_on_c, 10, 45, 127
1, 199071, Note_on_c, 4, 52, 127
1, 199071, Note_on_c, 10, 69, 127
1, 199315, Note_off_c, 10, 69, 127
1, 199316, Note_on_c, 10, 69, 127
1, 199560, Note_off_c, 10, 69, 127
1, 199560, Note_off_c, 4, 52, 127
1, 199560, Note_off_c, 10, 45, 127
1, 199560, Note_off_c, 1, 49, 127
1, 199560, Note_off_c, 7, 55, 127
1, 199561, Note_on_c, 5, 53, 127
1, 199561, Note_on_c, 2, 50, 127
1, 199561, Note_on_c, 2, 62, 127
1, 199805, Note_off_c, 2, 62, 127
1, 199806, Note_on_c, 2, 62, 127
1, 200046, Note_off_c, 2, 50, 127
1, 200046, Note_off_c, 5, 53, 127
1, 200050, Note_off_c, 2, 62, 127
1, 200051, Note_on_c, 5, 65, 127
1, 200295, Note_off_c, 5, 65, 127
1, 200296, Note_on_c, 5, 65, 127
1, 200540, Note_off_c, 5, 65, 127
1, 200541, Note_on_c, 2, 50, 127
1, 200541, Note_on_c, 7, 43, 127
1, 200541, Note_on_c, 7, 55, 127
1, 200541, Note_on_c, 11, 70, 127
1, 200785, Note_off_c, 11, 70, 127
1, 200786, Note_on_c, 11, 70, 127
1, 201030, Note_off_c, 11, 70, 127
1, 201030, Note_off_c, 7, 55, 127
1, 201030, Note_off_c, 7, 43, 127
1, 201030, Note_off_c, 2, 50, 127
1, 201031, Note_on_c, 0, 48, 127
1, 201031, Note_on_c, 7, 55, 127
1, 201031, Note_on_c, 4, 64, 127
1, 201275, Note_off_c, 4, 64, 127
1, 201276, Note_on_c, 4, 64, 127
1, 201516, Note_off_c, 7, 55, 127
1, 201516, Note_off_c, 0, 48, 127
1, 201520, Note_off_c, 4, 64, 127
1, 201521, Note_on_c, 7, 67, 127
1, 201765, Note_off_c, 7, 67, 127
1, 201766, Note_on_c, 7, 67, 127
1, 202010, Note_off_c, 7, 67, 127
1, 202011, Note_on_c, 4, 52, 127
1, 202011, Note_on_c, 7, 55, 127
1, 202011, Note_on_c, 0, 72, 127
1, 202255, Note_off_c, 0, 72, 127
1, 202256, Note_on_c, 0, 72, 127
1, 202500, Note_off_c, 0, 72, 127
1, 202500, Note_off_c, 7, 55, 127
1, 202500, Note_off_c, 4, 52, 127
1, 202501, Note_on_c, 5, 53, 127
1, 202501, Note_on_c, 0, 60, 127
1, 202501, Note_on_c, 10, 69, 127
1, 202745, Note_off_c, 10, 69, 127
1, 202746, Note_on_c, 10, 69, 127
1, 202986, Note_off_c, 0, 60, 127
1, 202986, Note_off_c, 5, 53, 127
1, 202990, Note_off_c, 10, 69, 127
1, 202991, Note_on_c, 0, 72, 127
1, 203235, Note_off_c, 0, 72, 127
1, 203236, Note_on_c, 0, 72, 127
1, 203480, Note_off_c, 0, 72, 127
1, 203481, Note_on_c, 10, 45, 127
1, 203481, Note_on_c, 5, 53, 127
1, 203481, Note_on_c, 0, 48, 127
1, 203481, Note_on_c, 5, 77, 127
1, 203725, Note_off_c, 5, 77, 127
1, 203726, Note_on_c, 5, 77, 127
1, 203970, Note_off_c, 5, 77, 127
1, 203970, Note_off_c, 0, 48, 127
1, 203970, Note_off_c, 5, 53, 127
1, 203970, Note_off_c, 10, 45, 127
1, 203971, Note_on_c, 11, 46, 127
1, 203971, Note_on_c, 5, 53, 127
1, 203971, Note_on_c, 2, 74, 127
1, 204215, Note_off_c, 2, 74, 127
1, 204216, Note_on_c, 2, 74, 127
1, 204456, Note_off_c, 5, 53, 127
1, 204456, Note_off_c, 11, 46, 127
1, 204460, Note_off_c, 2, 74, 127
1, 204461, Note_on_c, 5, 77, 127
1, 204705, Note_off_c, 5, 77, 127
1, 204706, Note_on_c, 5, 77, 127
1, 204950, Note_off_c, 5, 77, 127
1, 204951, Note_on_c, 7, 55, 127
1, 204951, Note_on_c, 2, 50, 127
1, 204951, Note_on_c, 7, 43, 127
1, 204951, Note_on_c, 11, 82, 127
1, 205195, Note_off_c, 11, 82, 127
1, 205196, Note_on_c, 11, 82, 127
1, 205440, Note_off_c, 11, 82, 127
1, 205440, Note_off_c, 7, 43, 127
1, 205440, Note_off_c, 2, 50, 127
1, 205440, Note_off_c, 7, 55, 127
1, 205441, Note_on_c, 7, 55, 127
1, 205441, Note_on_c, 10, 57, 127
1, 205441, Note_on_c, 2, 74, 127
1, 205518, Note_on_c, 1, 73, 127
1, 205531, Note_off_c, 2, 74, 127
1, 205595, Note_on_c, 2, 74, 127
1, 205608, Note_off_c, 1, 73, 127
1, 205678, Note_on_c, 1, 73, 127
1, 205684, Note_off_c, 2, 74, 127
1, 205928, Note_off_c, 1, 73, 127
1, 205932, Note_on_c, 12, 71, 127
1, 206176, Note_off_c, 12, 71, 127
1, 206177, Note_on_c, 10, 69, 127
1, 206421, Note_off_c, 10, 69, 127
1, 206421, Note_off_c, 10, 57, 127
1, 206421, Note_off_c, 7, 55, 127
1, 206422, Note_on_c, 5, 53, 127
1, 206422, Note_on_c, 10, 57, 127
1, 206422, Note_on_c, 2, 74, 127
1, 206911, Note_off_c, 10, 57, 127
1, 206911, Note_off_c, 5, 53, 127
1, 206912, Note_on_c, 7, 55, 127
1, 206912, Note_on_c, 11, 58, 127
1, 207156, Note_off_c, 2, 74, 127
1, 207157, Note_on_c, 4, 76, 127
1, 207401, Note_off_c, 4, 76, 127
1, 207401, Note_off_c, 11, 58, 127
1, 207401, Note_off_c, 7, 55, 127
1, 207402, Note_on_c, 10, 57, 127
1, 207402, Note_on_c, 1, 73, 127
1, 207402, Note_on_c, 5, 77, 127
1, 207646, Note_off_c, 5, 77, 127
1, 207646, Note_off_c, 1, 73, 127
1, 207647, Note_on_c, 4, 76, 127
1, 207707, Note_off_c, 4, 76, 127
1, 207708, Note_on_c, 5, 77, 127
1, 207768, Note_off_c, 5, 77, 127
1, 207769, Note_on_c, 4, 76, 127
1, 207829, Note_off_c, 4, 76, 127
1, 207830, Note_on_c, 5, 77, 127
1, 207890, Note_off_c, 5, 77, 127
1, 207891, Note_on_c, 10, 45, 127
1, 207891, Note_on_c, 4, 76, 127
1, 208135, Note_off_c, 4, 76, 127
1, 208136, Note_on_c, 2, 74, 127
1, 208380, Note_off_c, 2, 74, 127
1, 208380, Note_off_c, 10, 45, 127
1, 208380, Note_off_c, 10, 57, 127
1, 208397, Note_on_c, 10, 69, 127
1, 208397, Note_on_c, 5, 65, 127
1, 208397, Note_on_c, 2, 74, 127
1, 208397, Note_on_c, 2, 50, 127
1, 208397, Note_on_c, 10, 57, 127
1, 210797, Note_off_c, 10, 57, 127
1, 210797, Note_off_c, 2, 50, 127
1, 210797, Note_off_c, 2, 74, 127
1, 210797, Note_off_c, 5, 65, 127
1, 210797, Note_off_c, 10, 69, 127
1, 212107, Note_on_c, 2, 74, 127
1, 212107, Note_on_c, 4, 76, 127
1, 212107, Note_on_c, 4, 64, 127
1, 212107, Note_on_c, 12, 71, 127
1, 212107, Note_on_c, 4, 52, 127
1, 212107, Note_on_c, 8, 44, 127
1, 213193, Note_off_c, 12, 71, 127
1, 213193, Note_off_c, 4, 64, 127
1, 213193, Note_off_c, 2, 74, 127
1, 213339, Note_off_c, 4, 76, 127
1, 213342, Note_on_c, 5, 77, 127
1, 213476, Note_off_c, 5, 77, 127
1, 213479, Note_on_c, 4, 76, 127
1, 213613, Note_off_c, 4, 76, 127
1, 213616, Note_on_c, 2, 74, 127
1, 213750, Note_off_c, 2, 74, 127
1, 213750, Note_off_c, 8, 44, 127
1, 213750, Note_off_c, 4, 52, 127
1, 213753, Note_on_c, 1, 73, 127
1, 213879, Note_off_c, 1, 73, 127
1, 213882, Note_on_c, 4, 76, 127
1, 214008, Note_off_c, 4, 76, 127
1, 214011, Note_on_c, 2, 74, 127
1, 214105, Note_off_c, 2, 74, 127
1, 214108, Note_on_c, 5, 77, 127
1, 214202, Note_off_c, 5, 77, 127
1, 214205, Note_on_c, 4, 76, 127
1, 214299, Note_off_c, 4, 76, 127
1, 214302, Note_on_c, 5, 77, 127
1, 214302, Note_on_c, 4, 76, 127
1, 214302, Note_on_c, 10, 69, 127
1, 214302, Note_on_c, 1, 73, 127
1, 214302, Note_on_c, 10, 57, 127
1, 214302, Note_on_c, 10, 45, 127
1, 215388, Note_off_c, 1, 73, 127
1, 215388, Note_off_c, 10, 69, 127
1, 215388, Note_off_c, 4, 76, 127
1, 215534, Note_off_c, 5, 77, 127
1, 215537, Note_on_c, 4, 76, 127
1, 215674, Note_off_c, 4, 76, 127
1, 215674, Note_on_c, 2, 74, 127
1, 215794, Note_off_c, 2, 74, 127
1, 215794, Note_on_c, 1, 73, 127
1, 215914, Note_off_c, 1, 73, 127
1, 215914, Note_on_c, 2, 74, 127
1, 215945, Note_off_c, 10, 45, 127
1, 215945, Note_off_c, 10, 57, 127
1, 216016, Note_off_c, 2, 74, 127
1, 216016, Note_on_c, 4, 76, 127
1, 216119, Note_off_c, 4, 76, 127
1, 216119, Note_on_c, 5, 77, 127
1, 216216, Note_off_c, 5, 77, 127
1, 216216, Note_on_c, 4, 76, 127
1, 216313, Note_off_c, 4, 76, 127
1, 216313, Note_on_c, 7, 79, 127
1, 216404, Note_off_c, 7, 79, 127
1, 216404, Note_on_c, 5, 77, 127
1, 216495, Note_off_c, 5, 77, 127
1, 216495, Note_on_c, 7, 79, 127
1, 216495, Note_on_c, 2, 74, 127
1, 216495, Note_on_c, 5, 77, 127
1, 216495, Note_on_c, 12, 47, 127
1, 216632, Note_on_c, 2, 50, 127
1, 216766, Note_off_c, 2, 50, 127
1, 216769, Note_on_c, 5, 53, 127
1, 216903, Note_off_c, 5, 53, 127
1, 216906, Note_on_c, 4, 52, 127
1, 217040, Note_off_c, 4, 52, 127
1, 217043, Note_on_c, 7, 55, 127
1, 217172, Note_off_c, 7, 55, 127
1, 217172, Note_on_c, 5, 53, 127
1, 217301, Note_off_c, 5, 53, 127
1, 217301, Note_on_c, 4, 52, 127
1, 217395, Note_off_c, 4, 52, 127
1, 217398, Note_on_c, 5, 53, 127
1, 217492, Note_off_c, 5, 53, 127
1, 217495, Note_on_c, 2, 50, 127
1, 217581, Note_off_c, 12, 47, 127
1, 217581, Note_off_c, 2, 74, 127
1, 217590, Note_off_c, 2, 50, 127
1, 217593, Note_on_c, 10, 57, 127
1, 217593, Note_on_c, 1, 49, 127
1, 217727, Note_off_c, 7, 79, 127
1, 217730, Note_on_c, 11, 82, 127
1, 217864, Note_off_c, 11, 82, 127
1, 217867, Note_on_c, 10, 81, 127
1, 218001, Note_off_c, 10, 81, 127
1, 218004, Note_on_c, 7, 79, 127
1, 218018, Note_off_c, 5, 77, 127
1, 218138, Note_off_c, 7, 79, 127
1, 218141, Note_on_c, 5, 77, 127
1, 218412, Note_off_c, 5, 77, 127
1, 218415, Note_on_c, 7, 79, 127
1, 218549, Note_off_c, 7, 79, 127
1, 218552, Note_on_c, 4, 76, 127
1, 218678, Note_off_c, 1, 49, 127
1, 218687, Note_off_c, 4, 76, 127
1, 218690, Note_on_c, 2, 74, 127
1, 218690, Note_on_c, 5, 77, 127
1, 218690, Note_on_c, 2, 50, 127
1, 218824, Note_off_c, 5, 77, 127
1, 218827, Note_on_c, 7, 79, 127
1, 218961, Note_off_c, 7, 79, 127
1, 218964, Note_on_c, 5, 77, 127
1, 219098, Note_off_c, 5, 77, 127
1, 219101, Note_on_c, 7, 79, 127
1, 219232, Note_off_c, 2, 74, 127
1, 219235, Note_off_c, 7, 79, 127
1, 219235, Note_off_c, 10, 57, 127
1, 219238, Note_on_c, 4, 76, 127
1, 219238, Note_on_c, 10, 81, 127
1, 219392, Note_off_c, 10, 81, 127
1, 219392, Note_on_c, 7, 79, 127
1, 219523, Note_off_c, 7, 79, 127
1, 219523, Note_on_c, 5, 77, 127
1, 219654, Note_off_c, 5, 77, 127
1, 219654, Note_on_c, 7, 79, 127
1, 219780, Note_off_c, 4, 76, 127
1, 219786, Note_off_c, 7, 79, 127
1, 219786, Note_on_c, 5, 77, 127
1, 219786, Note_on_c, 10, 81, 127
1, 219920, Note_off_c, 2, 50, 127
1, 219923, Note_on_c, 4, 52, 127
1, 220057, Note_off_c, 4, 52, 127
1, 220060, Note_on_c, 5, 53, 127
1, 220194, Note_off_c, 5, 53, 127
1, 220197, Note_on_c, 7, 55, 127
1, 220331, Note_off_c, 7, 55, 127
1, 220331, Note_off_c, 5, 77, 127
1, 220334, Note_on_c, 4, 76, 127
1, 220334, Note_on_c, 10, 57, 127
1, 220468, Note_off_c, 10, 57, 127
1, 220471, Note_on_c, 11, 58, 127
1, 220605, Note_off_c, 11, 58, 127
1, 220608, Note_on_c, 0, 60, 127
1, 220742, Note_off_c, 0, 60, 127
1, 220745, Note_on_c, 2, 62, 127
1, 220879, Note_off_c, 2, 62, 127
1, 220879, Note_off_c, 4, 76, 127
1, 220882, Note_on_c, 2, 74, 127
1, 220882, Note_on_c, 11, 46, 127
1, 221005, Note_off_c, 10, 81, 127
1, 221019, Note_on_c, 0, 84, 127
1, 221153, Note_off_c, 0, 84, 127
1, 221156, Note_on_c, 11, 82, 127
1, 221290, Note_off_c, 11, 82, 127
1, 221293, Note_on_c, 10, 81, 127
1, 221424, Note_off_c, 2, 74, 127
1, 221427, Note_off_c, 10, 81, 127
1, 221430, Note_on_c, 7, 79, 127
1, 221564, Note_off_c, 7, 79, 127
1, 221564, Note_on_c, 5, 77, 127
1, 221698, Note_off_c, 5, 77, 127
1, 221698, Note_on_c, 4, 76, 127
1, 221792, Note_off_c, 4, 76, 127
1, 221795, Note_on_c, 5, 77, 127
1, 221884, Note_off_c, 5, 77, 127
1, 221887, Note_on_c, 2, 74, 127
1, 221978, Note_on_c, 7, 79, 127
1, 221978, Note_on_c, 11, 58, 127
1, 222798, Note_off_c, 7, 79, 127
1, 222801, Note_on_c, 10, 81, 127
1, 223058, Note_off_c, 2, 74, 127
1, 223072, Note_off_c, 10, 81, 127
1, 223072, Note_off_c, 11, 58, 127
1, 223072, Note_off_c, 11, 46, 127
1, 223075, Note_on_c, 10, 81, 127
1, 223075, Note_on_c, 4, 76, 127
1, 223075, Note_on_c, 1, 73, 127
1, 223075, Note_on_c, 4, 52, 127
1, 223075, Note_on_c, 10, 45, 127
1, 225264, Note_off_c, 10, 45, 127
1, 225264, Note_off_c, 4, 52, 127
1, 225264, Note_off_c, 1, 73, 127
1, 225264, Note_off_c, 4, 76, 127
1, 225264, Note_off_c, 10, 81, 127
1, 226038, Note_on_c, 5, 77, 127
1, 226038, Note_on_c, 2, 74, 127
1, 226038, Note_on_c, 2, 50, 127
1, 226154, Note_off_c, 5, 77, 127
1, 226155, Note_on_c, 4, 76, 127
1, 226271, Note_off_c, 4, 76, 127
1, 226271, Note_off_c, 2, 50, 127
1, 226272, Note_on_c, 5, 77, 127
1, 226272, Note_on_c, 5, 53, 127
1, 226380, Note_off_c, 2, 74, 127
1, 226389, Note_off_c, 5, 77, 127
1, 226390, Note_on_c, 7, 79, 127
1, 226506, Note_off_c, 7, 79, 127
1, 226506, Note_off_c, 5, 53, 127
1, 226507, Note_on_c, 5, 77, 127
1, 226507, Note_on_c, 2, 50, 127
1, 226623, Note_off_c, 5, 77, 127
1, 226624, Note_on_c, 7, 79, 127
1, 226740, Note_off_c, 7, 79, 127
1, 226740, Note_off_c, 2, 50, 127
1, 226741, Note_on_c, 4, 76, 127
1, 226741, Note_on_c, 1, 73, 127
1, 226741, Note_on_c, 10, 57, 127
1, 226857, Note_off_c, 4, 76, 127
1, 226858, Note_on_c, 2, 74, 127
1, 226974, Note_off_c, 2, 74, 127
1, 226974, Note_off_c, 10, 57, 127
1, 226975, Note_on_c, 4, 76, 127
1, 226975, Note_on_c, 1, 61, 127
1, 227083, Note_off_c, 1, 73, 127
1, 227092, Note_off_c, 4, 76, 127
1, 227093, Note_on_c, 5, 77, 127
1, 227209, Note_off_c, 5, 77, 127
1, 227209, Note_off_c, 1, 61, 127
1, 227210, Note_on_c, 4, 76, 127
1, 227210, Note_on_c, 10, 57, 127
1, 227326, Note_off_c, 4, 76, 127
1, 227327, Note_on_c, 5, 77, 127
1, 227443, Note_off_c, 5, 77, 127
1, 227443, Note_off_c, 10, 57, 127
1, 227444, Note_on_c, 5, 65, 127
1, 227444, Note_on_c, 2, 74, 127
1, 227444, Note_on_c, 2, 62, 127
1, 227560, Note_off_c, 2, 74, 127
1, 227560, Note_off_c, 5, 65, 127
1, 227561, Note_on_c, 4, 64, 127
1, 227561, Note_on_c, 1, 73, 127
1, 227677, Note_off_c, 1, 73, 127
1, 227677, Note_off_c, 4, 64, 127
1, 227678, Note_on_c, 2, 74, 127
1, 227678, Note_on_c, 5, 65, 127
1, 227786, Note_off_c, 2, 62, 127
1, 227795, Note_off_c, 5, 65, 127
1, 227795, Note_off_c, 2, 74, 127
1, 227796, Note_on_c, 4, 76, 127
1, 227796, Note_on_c, 7, 67, 127
1, 227912, Note_off_c, 7, 67, 127
1, 227912, Note_off_c, 4, 76, 127
1, 227913, Note_on_c, 2, 74, 127
1, 227913, Note_on_c, 5, 65, 127
1, 228029, Note_off_c, 5, 65, 127
1, 228029, Note_off_c, 2, 74, 127
1, 228030, Note_on_c, 7, 67, 127
1, 228030, Note_on_c, 4, 76, 127
1, 228146, Note_off_c, 4, 76, 127
1, 228146, Note_off_c, 7, 67, 127
1, 228147, Note_on_c, 4, 64, 127
1, 228147, Note_on_c, 1, 73, 127
1, 228147, Note_on_c, 10, 57, 127
1, 228263, Note_off_c, 1, 73, 127
1, 228264, Note_on_c, 10, 69, 127
1, 228379, Note_off_c, 4, 64, 127
1, 228380, Note_off_c, 10, 69, 127
1, 228380, Note_off_c, 10, 57, 127
1, 228381, Note_on_c, 1, 73, 127
1, 228381, Note_on_c, 10, 45, 127
1, 228497, Note_off_c, 1, 73, 127
1, 228498, Note_on_c, 4, 76, 127
1, 228614, Note_off_c, 4, 76, 127
1, 228614, Note_off_c, 10, 45, 127
1, 228615, Note_on_c, 5, 77, 127
1, 228615, Note_on_c, 2, 50, 127
1, 228733, Note_on_c, 10, 69, 127
1, 228849, Note_off_c, 10, 69, 127
1, 228849, Note_off_c, 2, 50, 127
1, 228850, Note_on_c, 11, 70, 127
1, 228850, Note_on_c, 7, 55, 127
1, 228966, Note_off_c, 11, 70, 127
1, 228967, Note_on_c, 10, 69, 127
1, 229083, Note_off_c, 10, 69, 127
1, 229084, Note_on_c, 11, 70, 127
1, 229084, Note_on_c, 7, 43, 127
1, 229200, Note_off_c, 11, 70, 127
1, 229201, Note_on_c, 0, 72, 127
1, 229274, Note_off_c, 5, 77, 127
1, 229317, Note_off_c, 0, 72, 127
1, 229317, Note_off_c, 7, 43, 127
1, 229318, Note_on_c, 4, 76, 127
1, 229318, Note_on_c, 11, 70, 127
1, 229318, Note_on_c, 0, 48, 127
1, 229434, Note_off_c, 11, 70, 127
1, 229435, Note_off_c, 7, 55, 127
1, 229435, Note_on_c, 0, 72, 127
1, 229551, Note_off_c, 0, 72, 127
1, 229551, Note_off_c, 0, 48, 127
1, 229552, Note_on_c, 10, 69, 127
1, 229552, Note_on_c, 5, 53, 127
1, 229668, Note_off_c, 10, 69, 127
1, 229669, Note_on_c, 7, 67, 127
1, 229785, Note_off_c, 7, 67, 127
1, 229786, Note_on_c, 10, 69, 127
1, 229786, Note_on_c, 5, 41, 127
1, 229902, Note_off_c, 10, 69, 127
1, 229903, Note_on_c, 11, 70, 127
1, 229976, Note_off_c, 4, 76, 127
1, 230019, Note_off_c, 11, 70, 127
1, 230019, Note_off_c, 5, 41, 127
1, 230020, Note_on_c, 2, 74, 127
1, 230020, Note_on_c, 10, 69, 127
1, 230020, Note_on_c, 11, 46, 127
1, 230136, Note_off_c, 10, 69, 127
1, 230137, Note_off_c, 5, 53, 127
1, 230137, Note_on_c, 11, 70, 127
1, 230253, Note_off_c, 11, 70, 127
1, 230253, Note_off_c, 11, 46, 127
1, 230254, Note_on_c, 7, 67, 127
1, 230254, Note_on_c, 4, 52, 127
1, 230370, Note_off_c, 7, 67, 127
1, 230371, Note_on_c, 5, 65, 127
1, 230487, Note_off_c, 5, 65, 127
1, 230488, Note_on_c, 7, 67, 127
1, 230488, Note_on_c, 4, 40, 127
1, 230604, Note_off_c, 7, 67, 127
1, 230605, Note_on_c, 10, 69, 127
1, 230678, Note_off_c, 2, 74, 127
1, 230721, Note_off_c, 10, 69, 127
1, 230721, Note_off_c, 4, 40, 127
1, 230722, Note_on_c, 7, 67, 127
1, 230722, Note_on_c, 1, 73, 127
1, 230722, Note_on_c, 10, 45, 127
1, 230838, Note_off_c, 7, 67, 127
1, 230839, Note_off_c, 4, 52, 127
1, 230839, Note_on_c, 10, 69, 127
1, 230954, Note_off_c, 1, 73, 127
1, 230955, Note_off_c, 10, 69, 127
1, 230955, Note_off_c, 10, 45, 127
1, 230956, Note_on_c, 5, 65, 127
1, 230956, Note_on_c, 2, 74, 127
1, 230956, Note_on_c, 2, 50, 127
1, 231190, Note_off_c, 2, 74, 127
1, 231190, Note_off_c, 5, 65, 127
1, 231191, Note_on_c, 10, 69, 127
1, 231191, Note_on_c, 2, 38, 127
1, 231307, Note_off_c, 10, 69, 127
1, 231308, Note_on_c, 11, 70, 127
1, 231421, Note_off_c, 2, 50, 127
1, 231425, Note_off_c, 11, 70, 127
1, 231425, Note_off_c, 2, 38, 127
1, 231426, Note_on_c, 0, 72, 127
1, 231426, Note_on_c, 2, 50, 127
1, 231426, Note_on_c, 5, 53, 127
1, 231542, Note_off_c, 0, 72, 127
1, 231543, Note_on_c, 10, 69, 127
1, 231659, Note_off_c, 10, 69, 127
1, 231659, Note_off_c, 2, 50, 127
1, 231660, Note_on_c, 11, 70, 127
1, 231660, Note_on_c, 7, 43, 127
1, 231890, Note_off_c, 5, 53, 127
1, 231894, Note_off_c, 7, 43, 127
1, 231894, Note_off_c, 11, 70, 127
1, 231895, Note_on_c, 7, 67, 127
1, 231895, Note_on_c, 0, 48, 127
1, 232011, Note_off_c, 7, 67, 127
1, 232012, Note_on_c, 10, 69, 127
1, 232128, Note_off_c, 10, 69, 127
1, 232129, Note_on_c, 11, 70, 127
1, 232129, Note_on_c, 4, 52, 127
1, 232245, Note_off_c, 11, 70, 127
1, 232246, Note_on_c, 7, 67, 127
1, 232359, Note_off_c, 0, 48, 127
1, 232363, Note_off_c, 7, 67, 127
1, 232364, Note_on_c, 10, 69, 127
1, 232364, Note_on_c, 5, 41, 127
1, 232598, Note_off_c, 5, 41, 127
1, 232598, Note_off_c, 10, 69, 127
1, 232599, Note_on_c, 5, 65, 127
1, 232599, Note_on_c, 11, 46, 127
1, 232715, Note_off_c, 5, 65, 127
1, 232716, Note_off_c, 4, 52, 127
1, 232716, Note_on_c, 7, 67, 127
1, 232832, Note_off_c, 7, 67, 127
1, 232833, Note_on_c, 10, 69, 127
1, 232833, Note_on_c, 2, 50, 127
1, 232949, Note_off_c, 10, 69, 127
1, 232950, Note_on_c, 5, 65, 127
1, 233063, Note_off_c, 11, 46, 127
1, 233067, Note_off_c, 5, 65, 127
1, 233068, Note_on_c, 7, 67, 127
1, 233068, Note_on_c, 4, 40, 127
1, 233302, Note_off_c, 4, 40, 127
1, 233302, Note_off_c, 7, 67, 127
1, 233303, Note_on_c, 4, 64, 127
1, 233303, Note_on_c, 10, 45, 127
1, 233419, Note_off_c, 4, 64, 127
1, 233420, Note_off_c, 2, 50, 127
1, 233420, Note_on_c, 5, 65, 127
1, 233536, Note_off_c, 5, 65, 127
1, 233537, Note_on_c, 7, 67, 127
1, 233537, Note_on_c, 1, 49, 127
1, 233653, Note_off_c, 7, 67, 127
1, 233654, Note_on_c, 4, 64, 127
1, 233767, Note_off_c, 10, 45, 127
1, 233771, Note_off_c, 4, 64, 127
1, 233771, Note_off_c, 1, 49, 127
1, 233772, Note_on_c, 2, 62, 127
1, 233772, Note_on_c, 5, 65, 127
1, 233772, Note_on_c, 2, 50, 127
1, 233888, Note_off_c, 2, 62, 127
1, 233889, Note_on_c, 1, 61, 127
1, 234005, Note_off_c, 1, 61, 127
1, 234005, Note_off_c, 2, 50, 127
1, 234006, Note_on_c, 2, 62, 127
1, 234006, Note_on_c, 2, 38, 127
1, 234114, Note_off_c, 5, 65, 127
1, 234123, Note_off_c, 2, 62, 127
1, 234124, Note_on_c, 4, 64, 127
1, 234240, Note_off_c, 4, 64, 127
1, 234240, Note_off_c, 2, 38, 127
1, 234241, Note_on_c, 5, 65, 127
1, 234241, Note_on_c, 2, 50, 127
1, 234357, Note_off_c, 5, 65, 127
1, 234358, Note_on_c, 7, 67, 127
1, 234474, Note_off_c, 7, 67, 127
1, 234474, Note_off_c, 2, 50, 127
1, 234475, Note_on_c, 2, 50, 127
1, 234475, Note_on_c, 4, 64, 127
1, 234548, Note_off_c, 2, 50, 127
1, 234553, Note_on_c, 1, 49, 127
1, 234591, Note_off_c, 4, 64, 127
1, 234592, Note_on_c, 2, 62, 127
1, 234626, Note_off_c, 1, 49, 127
1, 234631, Note_on_c, 2, 50, 127
1, 234704, Note_off_c, 2, 50, 127
1, 234708, Note_off_c, 2, 62, 127
1, 234709, Note_on_c, 1, 49, 127
1, 234709, Note_on_c, 4, 64, 127
1, 234782, Note_off_c, 1, 49, 127
1, 234787, Note_on_c, 2, 50, 127
1, 234825, Note_off_c, 4, 64, 127
1, 234826, Note_on_c, 5, 65, 127
1, 234885, Note_off_c, 2, 50, 127
1, 234885, Note_on_c, 1, 49, 127
1, 234943, Note_off_c, 5, 65, 127
1, 234944, Note_on_c, 7, 67, 127
1, 234983, Note_off_c, 1, 49, 127
1, 234983, Note_on_c, 12, 47, 127
1, 235060, Note_off_c, 7, 67, 127
1, 235061, Note_on_c, 10, 69, 127
1, 235081, Note_off_c, 12, 47, 127
1, 235081, Note_on_c, 10, 45, 127
1, 235178, Note_off_c, 10, 69, 127
1, 235179, Note_off_c, 10, 45, 127
1, 235179, Note_on_c, 5, 65, 127
1, 235179, Note_on_c, 2, 50, 127
1, 235295, Note_off_c, 2, 50, 127
1, 235295, Note_off_c, 5, 65, 127
1, 235296, Note_on_c, 4, 64, 127
1, 235296, Note_on_c, 1, 49, 127
1, 235412, Note_off_c, 1, 49, 127
1, 235412, Note_off_c, 4, 64, 127
1, 235413, Note_on_c, 5, 65, 127
1, 235413, Note_on_c, 2, 50, 127
1, 235529, Note_off_c, 2, 50, 127
1, 235529, Note_off_c, 5, 65, 127
1, 235530, Note_on_c, 7, 67, 127
1, 235530, Note_on_c, 4, 52, 127
1, 235646, Note_off_c, 4, 52, 127
1, 235646, Note_off_c, 7, 67, 127
1, 235647, Note_on_c, 10, 69, 127
1, 235647, Note_on_c, 5, 53, 127
1, 235763, Note_off_c, 5, 53, 127
1, 235763, Note_off_c, 10, 69, 127
1, 235764, Note_on_c, 11, 70, 127
1, 235764, Note_on_c, 2, 50, 127
1, 235880, Note_off_c, 2, 50, 127
1, 235880, Note_off_c, 11, 70, 127
1, 235881, Note_on_c, 7, 67, 127
1, 235881, Note_on_c, 4, 52, 127
1, 235997, Note_off_c, 4, 52, 127
1, 235997, Note_off_c, 7, 67, 127
1, 235998, Note_on_c, 5, 65, 127
1, 235998, Note_on_c, 2, 50, 127
1, 236114, Note_off_c, 2, 50, 127
1, 236114, Note_off_c, 5, 65, 127
1, 236115, Note_on_c, 7, 67, 127
1, 236115, Note_on_c, 4, 52, 127
1, 236231, Note_off_c, 4, 52, 127
1, 236231, Note_off_c, 7, 67, 127
1, 236232, Note_on_c, 10, 69, 127
1, 236232, Note_on_c, 5, 53, 127
1, 236348, Note_off_c, 5, 53, 127
1, 236348, Note_off_c, 10, 69, 127
1, 236349, Note_on_c, 11, 70, 127
1, 236349, Note_on_c, 7, 55, 127
1, 236465, Note_off_c, 7, 55, 127
1, 236465, Note_off_c, 11, 70, 127
1, 236466, Note_on_c, 0, 72, 127
1, 236466, Note_on_c, 4, 52, 127
1, 236582, Note_off_c, 4, 52, 127
1, 236582, Note_off_c, 0, 72, 127
1, 236583, Note_on_c, 10, 69, 127
1, 236583, Note_on_c, 5, 53, 127
1, 236699, Note_off_c, 5, 53, 127
1, 236699, Note_off_c, 10, 69, 127
1, 236700, Note_on_c, 7, 67, 127
1, 236700, Note_on_c, 4, 52, 127
1, 236816, Note_off_c, 4, 52, 127
1, 236816, Note_off_c, 7, 67, 127
1, 236817, Note_on_c, 10, 69, 127
1, 236817, Note_on_c, 5, 53, 127
1, 236933, Note_off_c, 5, 53, 127
1, 236933, Note_off_c, 10, 69, 127
1, 236934, Note_on_c, 12, 71, 127
1, 236934, Note_on_c, 7, 55, 127
1, 237050, Note_off_c, 7, 55, 127
1, 237050, Note_off_c, 12, 71, 127
1, 237051, Note_on_c, 0, 72, 127
1, 237051, Note_on_c, 10, 57, 127
1, 237167, Note_off_c, 10, 57, 127
1, 237167, Note_off_c, 0, 72, 127
1, 237168, Note_on_c, 2, 74, 127
1, 237168, Note_on_c, 5, 53, 127
1, 237284, Note_off_c, 5, 53, 127
1, 237284, Note_off_c, 2, 74, 127
1, 237285, Note_on_c, 12, 71, 127
1, 237285, Note_on_c, 7, 55, 127
1, 237401, Note_off_c, 7, 55, 127
1, 237401, Note_off_c, 12, 71, 127
1, 237402, Note_on_c, 10, 69, 127
1, 237402, Note_on_c, 5, 53, 127
1, 237518, Note_off_c, 5, 53, 127
1, 237518, Note_off_c, 10, 69, 127
1, 237519, Note_on_c, 12, 71, 127
1, 237519, Note_on_c, 7, 55, 127
1, 237635, Note_off_c, 7, 55, 127
1, 237635, Note_off_c, 12, 71, 127
1, 237636, Note_on_c, 1, 73, 127
1, 237636, Note_on_c, 10, 57, 127
1, 237752, Note_off_c, 10, 57, 127
1, 237752, Note_off_c, 1, 73, 127
1, 237753, Note_on_c, 2, 74, 127
1, 237753, Note_on_c, 11, 58, 127
1, 237869, Note_off_c, 11, 58, 127
1, 237869, Note_off_c, 2, 74, 127
1, 237870, Note_on_c, 4, 76, 127
1, 237870, Note_on_c, 7, 55, 127
1, 237986, Note_off_c, 7, 55, 127
1, 237986, Note_off_c, 4, 76, 127
1, 237987, Note_on_c, 1, 73, 127
1, 237987, Note_on_c, 10, 57, 127
1, 238103, Note_off_c, 10, 57, 127
1, 238103, Note_off_c, 1, 73, 127
1, 238104, Note_on_c, 12, 71, 127
1, 238104, Note_on_c, 7, 55, 127
1, 238220, Note_off_c, 7, 55, 127
1, 238220, Note_off_c, 12, 71, 127
1, 238221, Note_on_c, 1, 73, 127
1, 238221, Note_on_c, 10, 57, 127
1, 238337, Note_off_c, 10, 57, 127
1, 238337, Note_off_c, 1, 73, 127
1, 238338, Note_on_c, 2, 74, 127
1, 238338, Note_on_c, 11, 58, 127
1, 238454, Note_off_c, 11, 58, 127
1, 238454, Note_off_c, 2, 74, 127
1, 238455, Note_on_c, 4, 76, 127
1, 238455, Note_on_c, 10, 57, 127
1, 238571, Note_off_c, 10, 57, 127
1, 238571, Note_off_c, 4, 76, 127
1, 238572, Note_on_c, 5, 77, 127
1, 238572, Note_on_c, 7, 55, 127
1, 238688, Note_off_c, 7, 55, 127
1, 238688, Note_off_c, 5, 77, 127
1, 238689, Note_on_c, 2, 74, 127
1, 238689, Note_on_c, 5, 53, 127
1, 238805, Note_off_c, 5, 53, 127
1, 238805, Note_off_c, 2, 74, 127
1, 238806, Note_on_c, 1, 73, 127
1, 238806, Note_on_c, 10, 57, 127
1, 238922, Note_off_c, 10, 57, 127
1, 238922, Note_off_c, 1, 73, 127
1, 238923, Note_on_c, 2, 74, 127
1, 238923, Note_on_c, 7, 55, 127
1, 239039, Note_off_c, 7, 55, 127
1, 239039, Note_off_c, 2, 74, 127
1, 239040, Note_on_c, 4, 76, 127
1, 239040, Note_on_c, 5, 53, 127
1, 239156, Note_off_c, 5, 53, 127
1, 239156, Note_off_c, 4, 76, 127
1, 239157, Note_on_c, 5, 77, 127
1, 239157, Note_on_c, 4, 52, 127
1, 239273, Note_off_c, 4, 52, 127
1, 239273, Note_off_c, 5, 77, 127
1, 239274, Note_on_c, 7, 79, 127
1, 239274, Note_on_c, 2, 50, 127
1, 239390, Note_off_c, 2, 50, 127
1, 239390, Note_off_c, 7, 79, 127
1, 239391, Note_on_c, 4, 76, 127
1, 239391, Note_on_c, 1, 49, 127
1, 239507, Note_off_c, 1, 49, 127
1, 239507, Note_off_c, 4, 76, 127
1, 239508, Note_on_c, 2, 74, 127
1, 239508, Note_on_c, 4, 52, 127
1, 239624, Note_off_c, 4, 52, 127
1, 239624, Note_off_c, 2, 74, 127
1, 239625, Note_on_c, 4, 76, 127
1, 239625, Note_on_c, 2, 50, 127
1, 239741, Note_off_c, 2, 50, 127
1, 239741, Note_off_c, 4, 76, 127
1, 239742, Note_on_c, 5, 77, 127
1, 239742, Note_on_c, 1, 49, 127
1, 239858, Note_off_c, 1, 49, 127
1, 239858, Note_off_c, 5, 77, 127
1, 239859, Note_on_c, 7, 79, 127
1, 239859, Note_on_c, 12, 47, 127
1, 239975, Note_off_c, 12, 47, 127
1, 239975, Note_off_c, 7, 79, 127
1, 239976, Note_on_c, 10, 81, 127
1, 239976, Note_on_c, 10, 45, 127
1, 240092, Note_off_c, 10, 45, 127
1, 240092, Note_off_c, 10, 81, 127
1, 240093, Note_on_c, 5, 77, 127
1, 240093, Note_on_c, 2, 50, 127
1, 240209, Note_off_c, 5, 77, 127
1, 240210, Note_on_c, 4, 76, 127
1, 240326, Note_off_c, 4, 76, 127
1, 240326, Note_off_c, 2, 50, 127
1, 240327, Note_on_c, 5, 77, 127
1, 240327, Note_on_c, 2, 62, 127
1, 240443, Note_off_c, 5, 77, 127
1, 240444, Note_on_c, 7, 79, 127
1, 240560, Note_off_c, 7, 79, 127
1, 240560, Note_off_c, 2, 62, 127
1, 240561, Note_on_c, 10, 81, 127
1, 240561, Note_on_c, 0, 60, 127
1, 240561, Note_on_c, 4, 64, 127
1, 240795, Note_off_c, 4, 64, 127
1, 240795, Note_off_c, 0, 60, 127
1, 240796, Note_on_c, 11, 58, 127
1, 240796, Note_on_c, 2, 62, 127
1, 240912, Note_off_c, 10, 81, 127
1, 240913, Note_on_c, 11, 82, 127
1, 241029, Note_off_c, 11, 82, 127
1, 241030, Note_on_c, 10, 81, 127
1, 241088, Note_off_c, 10, 81, 127
1, 241089, Note_on_c, 7, 79, 127
1, 241147, Note_off_c, 7, 79, 127
1, 241147, Note_off_c, 2, 62, 127
1, 241148, Note_on_c, 10, 81, 127
1, 241148, Note_on_c, 5, 65, 127
1, 241206, Note_off_c, 10, 81, 127
1, 241207, Note_on_c, 7, 79, 127
1, 241265, Note_off_c, 7, 79, 127
1, 241265, Note_off_c, 5, 65, 127
1, 241266, Note_on_c, 10, 81, 127
1, 241266, Note_on_c, 4, 64, 127
1, 241324, Note_off_c, 10, 81, 127
1, 241325, Note_on_c, 7, 79, 127
1, 241383, Note_off_c, 7, 79, 127
1, 241383, Note_off_c, 4, 64, 127
1, 241384, Note_on_c, 5, 77, 127
1, 241384, Note_on_c, 2, 62, 127
1, 241442, Note_off_c, 5, 77, 127
1, 241443, Note_on_c, 7, 79, 127
1, 241501, Note_off_c, 7, 79, 127
1, 241501, Note_off_c, 2, 62, 127
1, 241501, Note_off_c, 11, 58, 127
1, 241502, Note_on_c, 10, 81, 127
1, 241502, Note_on_c, 10, 57, 127
1, 241502, Note_on_c, 1, 61, 127
1, 241736, Note_off_c, 10, 81, 127
1, 241737, Note_on_c, 10, 81, 127
1, 241971, Note_off_c, 10, 81, 127
1, 241972, Note_on_c, 10, 81, 127
1, 242206, Note_off_c, 10, 81, 127
1, 242206, Note_off_c, 1, 61, 127
1, 242206, Note_off_c, 10, 57, 127
1, 242207, Note_on_c, 10, 81, 127
1, 242207, Note_on_c, 10, 45, 127
1, 242323, Note_off_c, 10, 81, 127
1, 242324, Note_on_c, 11, 82, 127
1, 242440, Note_off_c, 11, 82, 127
1, 242440, Note_off_c, 10, 45, 127
1, 242441, Note_on_c, 10, 81, 127
1, 242441, Note_on_c, 1, 49, 127
1, 242557, Note_off_c, 10, 81, 127
1, 242558, Note_on_c, 11, 82, 127
1, 242674, Note_off_c, 11, 82, 127
1, 242674, Note_off_c, 1, 49, 127
1, 242675, Note_on_c, 10, 81, 127
1, 242675, Note_on_c, 10, 45, 127
1, 242791, Note_off_c, 10, 81, 127
1, 242792, Note_on_c, 11, 82, 127
1, 242908, Note_off_c, 11, 82, 127
1, 242908, Note_off_c, 10, 45, 127
1, 242909, Note_on_c, 7, 79, 127
1, 242909, Note_on_c, 4, 52, 127
1, 243025, Note_off_c, 4, 52, 127
1, 243026, Note_on_c, 5, 53, 127
1, 243142, Note_off_c, 5, 53, 127
1, 243143, Note_on_c, 4, 76, 127
1, 243143, Note_on_c, 4, 52, 127
1, 243259, Note_off_c, 4, 52, 127
1, 243260, Note_on_c, 5, 53, 127
1, 243376, Note_off_c, 5, 53, 127
1, 243376, Note_off_c, 4, 76, 127
1, 243377, Note_on_c, 12, 71, 127
1, 243377, Note_on_c, 4, 52, 127
1, 243493, Note_off_c, 4, 52, 127
1, 243494, Note_on_c, 5, 53, 127
1, 243610, Note_off_c, 5, 53, 127
1, 243610, Note_off_c, 12, 71, 127
1, 243610, Note_off_c, 7, 79, 127
1, 243611, Note_on_c, 1, 73, 127
1, 243611, Note_on_c, 4, 52, 127
1, 243729, Note_on_c, 10, 81, 127
1, 243844, Note_off_c, 1, 73, 127
1, 243845, Note_off_c, 10, 81, 127
1, 243845, Note_off_c, 4, 52, 127
1, 243846, Note_on_c, 7, 79, 127
1, 243846, Note_on_c, 2, 74, 127
1, 243846, Note_on_c, 12, 47, 127
1, 243962, Note_off_c, 7, 79, 127
1, 243963, Note_on_c, 10, 81, 127
1, 244078, Note_off_c, 2, 74, 127
1, 244079, Note_off_c, 10, 81, 127
1, 244079, Note_off_c, 12, 47, 127
1, 244080, Note_on_c, 4, 76, 127
1, 244080, Note_on_c, 7, 79, 127
1, 244080, Note_on_c, 1, 49, 127
1, 244196, Note_off_c, 7, 79, 127
1, 244197, Note_on_c, 10, 81, 127
1, 244312, Note_off_c, 4, 76, 127
1, 244313, Note_off_c, 10, 81, 127
1, 244313, Note_off_c, 1, 49, 127
1, 244314, Note_on_c, 10, 69, 127
1, 244314, Note_on_c, 5, 77, 127
1, 244314, Note_on_c, 2, 50, 127
1, 244430, Note_off_c, 2, 50, 127
1, 244431, Note_on_c, 4, 52, 127
1, 244547, Note_off_c, 4, 52, 127
1, 244547, Note_off_c, 10, 69, 127
1, 244548, Note_on_c, 2, 74, 127
1, 244548, Note_on_c, 2, 50, 127
1, 244664, Note_off_c, 2, 50, 127
1, 244665, Note_on_c, 4, 52, 127
1, 244781, Note_off_c, 4, 52, 127
1, 244781, Note_off_c, 2, 74, 127
1, 244782, Note_on_c, 10, 69, 127
1, 244782, Note_on_c, 2, 50, 127
1, 244898, Note_off_c, 2, 50, 127
1, 244899, Note_on_c, 4, 52, 127
1, 245015, Note_off_c, 4, 52, 127
1, 245015, Note_off_c, 10, 69, 127
1, 245015, Note_off_c, 5, 77, 127
1, 245016, Note_on_c, 12, 71, 127
1, 245016, Note_on_c, 2, 50, 127
1, 245134, Note_on_c, 7, 79, 127
1, 245249, Note_off_c, 12, 71, 127
1, 245250, Note_off_c, 7, 79, 127
1, 245250, Note_off_c, 2, 50, 127
1, 245251, Note_on_c, 5, 77, 127
1, 245251, Note_on_c, 0, 72, 127
1, 245251, Note_on_c, 10, 45, 127
1, 245367, Note_off_c, 5, 77, 127
1, 245368, Note_on_c, 7, 79, 127
1, 245483, Note_off_c, 0, 72, 127
1, 245484, Note_off_c, 7, 79, 127
1, 245484, Note_off_c, 10, 45, 127
1, 245485, Note_on_c, 5, 77, 127
1, 245485, Note_on_c, 2, 74, 127
1, 245485, Note_on_c, 12, 47, 127
1, 245601, Note_off_c, 5, 77, 127
1, 245602, Note_on_c, 7, 79, 127
1, 245717, Note_off_c, 2, 74, 127
1, 245718, Note_off_c, 7, 79, 127
1, 245718, Note_off_c, 12, 47, 127
1, 245719, Note_on_c, 7, 67, 127
1, 245719, Note_on_c, 4, 76, 127
1, 245719, Note_on_c, 0, 48, 127
1, 245835, Note_off_c, 0, 48, 127
1, 245836, Note_on_c, 2, 50, 127
1, 245952, Note_off_c, 2, 50, 127
1, 245952, Note_off_c, 7, 67, 127
1, 245953, Note_on_c, 0, 72, 127
1, 245953, Note_on_c, 0, 48, 127
1, 246069, Note_off_c, 0, 48, 127
1, 246070, Note_on_c, 2, 50, 127
1, 246186, Note_off_c, 2, 50, 127
1, 246186, Note_off_c, 0, 72, 127
1, 246187, Note_on_c, 7, 67, 127
1, 246187, Note_on_c, 0, 48, 127
1, 246303, Note_off_c, 0, 48, 127
1, 246304, Note_on_c, 2, 50, 127
1, 246420, Note_off_c, 2, 50, 127
1, 246420, Note_off_c, 7, 67, 127
1, 246420, Note_off_c, 4, 76, 127
1, 246421, Note_on_c, 10, 69, 127
1, 246421, Note_on_c, 0, 48, 127
1, 246539, Note_on_c, 5, 77, 127
1, 246654, Note_off_c, 10, 69, 127
1, 246655, Note_off_c, 5, 77, 127
1, 246655, Note_off_c, 0, 48, 127
1, 246656, Note_on_c, 4, 76, 127
1, 246656, Note_on_c, 11, 70, 127
1, 246656, Note_on_c, 7, 43, 127
1, 246772, Note_off_c, 4, 76, 127
1, 246773, Note_on_c, 5, 77, 127
1, 246888, Note_off_c, 11, 70, 127
1, 246889, Note_off_c, 5, 77, 127
1, 246889, Note_off_c, 7, 43, 127
1, 246890, Note_on_c, 4, 76, 127
1, 246890, Note_on_c, 0, 72, 127
1, 246890, Note_on_c, 10, 45, 127
1, 247006, Note_off_c, 4, 76, 127
1, 247007, Note_on_c, 5, 77, 127
1, 247122, Note_off_c, 0, 72, 127
1, 247123, Note_off_c, 5, 77, 127
1, 247123, Note_off_c, 10, 45, 127
1, 247124, Note_on_c, 5, 65, 127
1, 247124, Note_on_c, 2, 74, 127
1, 247124, Note_on_c, 11, 46, 127
1, 247240, Note_off_c, 11, 46, 127
1, 247241, Note_on_c, 0, 48, 127
1, 247357, Note_off_c, 0, 48, 127
1, 247357, Note_off_c, 5, 65, 127
1, 247358, Note_on_c, 11, 70, 127
1, 247358, Note_on_c, 11, 46, 127
1, 247474, Note_off_c, 11, 46, 127
1, 247475, Note_on_c, 0, 48, 127
1, 247591, Note_off_c, 0, 48, 127
1, 247591, Note_off_c, 11, 70, 127
1, 247592, Note_on_c, 5, 65, 127
1, 247592, Note_on_c, 11, 46, 127
1, 247708, Note_off_c, 11, 46, 127
1, 247709, Note_on_c, 0, 48, 127
1, 247825, Note_off_c, 0, 48, 127
1, 247825, Note_off_c, 5, 65, 127
1, 247825, Note_off_c, 2, 74, 127
1, 247826, Note_on_c, 7, 67, 127
1, 247826, Note_on_c, 11, 46, 127
1, 247944, Note_on_c, 4, 76, 127
1, 248059, Note_off_c, 7, 67, 127
1, 248060, Note_off_c, 4, 76, 127
1, 248060, Note_off_c, 11, 46, 127
1, 248061, Note_on_c, 2, 74, 127
1, 248061, Note_on_c, 10, 69, 127
1, 248061, Note_on_c, 5, 41, 127
1, 248177, Note_off_c, 2, 74, 127
1, 248178, Note_on_c, 4, 76, 127
1, 248293, Note_off_c, 10, 69, 127
1, 248294, Note_off_c, 4, 76, 127
1, 248294, Note_off_c, 5, 41, 127
1, 248295, Note_on_c, 2, 74, 127
1, 248295, Note_on_c, 11, 70, 127
1, 248295, Note_on_c, 7, 43, 127
1, 248411, Note_off_c, 2, 74, 127
1, 248412, Note_on_c, 4, 76, 127
1, 248527, Note_off_c, 11, 70, 127
1, 248528, Note_off_c, 4, 76, 127
1, 248528, Note_off_c, 7, 43, 127
1, 248529, Note_on_c, 4, 64, 127
1, 248529, Note_on_c, 1, 73, 127
1, 248529, Note_on_c, 10, 45, 127
1, 248645, Note_off_c, 1, 73, 127
1, 248646, Note_on_c, 2, 74, 127
1, 248762, Note_off_c, 2, 74, 127
1, 248762, Note_off_c, 10, 45, 127
1, 248763, Note_on_c, 1, 73, 127
1, 248763, Note_on_c, 10, 57, 127
1, 248871, Note_off_c, 4, 64, 127
1, 248880, Note_off_c, 1, 73, 127
1, 248881, Note_on_c, 2, 74, 127
1, 248997, Note_off_c, 2, 74, 127
1, 248997, Note_off_c, 10, 57, 127
1, 248998, Note_on_c, 4, 76, 127
1, 248998, Note_on_c, 1, 49, 127
1, 249116, Note_on_c, 7, 67, 127
1, 249231, Note_off_c, 4, 76, 127
1, 249232, Note_off_c, 7, 67, 127
1, 249232, Note_off_c, 1, 49, 127
1, 249233, Note_on_c, 5, 65, 127
1, 249233, Note_on_c, 2, 50, 127
1, 249351, Note_on_c, 2, 74, 127
1, 249466, Note_off_c, 5, 65, 127
1, 249467, Note_off_c, 2, 74, 127
1, 249467, Note_off_c, 2, 50, 127
1, 249468, Note_on_c, 2, 74, 127
1, 249468, Note_on_c, 4, 64, 127
1, 249468, Note_on_c, 10, 57, 127
1, 249584, Note_off_c, 2, 74, 127
1, 249585, Note_on_c, 1, 73, 127
1, 249643, Note_off_c, 1, 73, 127
1, 249644, Note_on_c, 2, 74, 127
1, 249702, Note_off_c, 2, 74, 127
1, 249702, Note_off_c, 10, 57, 127
1, 249703, Note_on_c, 1, 73, 127
1, 249703, Note_on_c, 10, 45, 127
1, 249819, Note_off_c, 1, 73, 127
1, 249820, Note_on_c, 2, 74, 127
1, 249933, Note_off_c, 4, 64, 127
1, 249937, Note_off_c, 2, 74, 127
1, 249937, Note_off_c, 10, 45, 127
1, 249938, Note_on_c, 2, 74, 127
1, 249938, Note_on_c, 2, 50, 127
1, 250054, Note_off_c, 2, 74, 127
1, 250055, Note_on_c, 5, 77, 127
1, 250171, Note_off_c, 5, 77, 127
1, 250171, Note_off_c, 2, 50, 127
1, 250172, Note_on_c, 11, 82, 127
1, 250172, Note_on_c, 2, 62, 127
1, 250288, Note_off_c, 11, 82, 127
1, 250289, Note_on_c, 10, 81, 127
1, 250405, Note_off_c, 10, 81, 127
1, 250405, Note_off_c, 2, 62, 127
1, 250406, Note_on_c, 11, 82, 127
1, 250406, Note_on_c, 2, 50, 127
1, 250524, Note_on_c, 5, 77, 127
1, 250640, Note_off_c, 5, 77, 127
1, 250640, Note_off_c, 2, 50, 127
1, 250641, Note_on_c, 4, 76, 127
1, 250641, Note_on_c, 0, 48, 127
1, 250757, Note_off_c, 4, 76, 127
1, 250758, Note_on_c, 2, 74, 127
1, 250871, Note_off_c, 11, 82, 127
1, 250875, Note_off_c, 2, 74, 127
1, 250875, Note_off_c, 0, 48, 127
1, 250876, Note_on_c, 4, 76, 127
1, 250876, Note_on_c, 10, 81, 127
1, 250876, Note_on_c, 0, 60, 127
1, 250992, Note_off_c, 4, 76, 127
1, 250993, Note_on_c, 5, 77, 127
1, 251109, Note_off_c, 5, 77, 127
1, 251109, Note_off_c, 0, 60, 127
1, 251110, Note_on_c, 4, 76, 127
1, 251110, Note_on_c, 0, 48, 127
1, 251226, Note_off_c, 4, 76, 127
1, 251227, Note_on_c, 5, 77, 127
1, 251343, Note_off_c, 5, 77, 127
1, 251343, Note_off_c, 0, 48, 127
1, 251344, Note_on_c, 2, 74, 127
1, 251344, Note_on_c, 11, 46, 127
1, 251460, Note_off_c, 2, 74, 127
1, 251461, Note_on_c, 1, 73, 127
1, 251577, Note_off_c, 1, 73, 127
1, 251577, Note_off_c, 11, 46, 127
1, 251577, Note_off_c, 10, 81, 127
1, 251578, Note_on_c, 7, 79, 127
1, 251578, Note_on_c, 2, 74, 127
1, 251578, Note_on_c, 11, 58, 127
1, 251694, Note_off_c, 2, 74, 127
1, 251695, Note_on_c, 4, 76, 127
1, 251811, Note_off_c, 4, 76, 127
1, 251811, Note_off_c, 11, 58, 127
1, 251812, Note_on_c, 2, 74, 127
1, 251812, Note_on_c, 11, 46, 127
1, 251928, Note_off_c, 2, 74, 127
1, 251929, Note_on_c, 4, 76, 127
1, 252042, Note_off_c, 7, 79, 127
1, 252046, Note_off_c, 4, 76, 127
1, 252046, Note_off_c, 11, 46, 127
1, 252047, Note_on_c, 1, 73, 127
1, 252047, Note_on_c, 10, 81, 127
1, 252047, Note_on_c, 10, 45, 127
1, 252163, Note_off_c, 10, 81, 127
1, 252164, Note_on_c, 7, 79, 127
1, 252280, Note_off_c, 7, 79, 127
1, 252281, Note_on_c, 10, 81, 127
1, 252397, Note_off_c, 10, 81, 127
1, 252398, Note_on_c, 11, 82, 127
1, 252514, Note_off_c, 11, 82, 127
1, 252515, Note_on_c, 10, 81, 127
1, 252631, Note_off_c, 10, 81, 127
1, 252632, Note_on_c, 7, 79, 127
1, 252748, Note_off_c, 7, 79, 127
1, 252748, Note_off_c, 10, 45, 127
1, 252748, Note_off_c, 1, 73, 127
1, 252749, Note_on_c, 2, 74, 127
1, 252749, Note_on_c, 6, 78, 127
1, 252865, Note_off_c, 2, 74, 127
1, 252866, Note_on_c, 0, 72, 127
1, 252982, Note_off_c, 0, 72, 127
1, 252983, Note_on_c, 2, 74, 127
1, 252983, Note_on_c, 2, 62, 127
1, 253099, Note_off_c, 2, 74, 127
1, 253100, Note_on_c, 4, 76, 127
1, 253216, Note_off_c, 4, 76, 127
1, 253217, Note_on_c, 2, 74, 127
1, 253217, Note_on_c, 2, 50, 127
1, 253333, Note_off_c, 2, 74, 127
1, 253334, Note_on_c, 0, 72, 127
1, 253447, Note_off_c, 2, 62, 127
1, 253449, Note_off_c, 2, 50, 127
1, 253450, Note_off_c, 0, 72, 127
1, 253450, Note_off_c, 6, 78, 127
1, 253451, Note_on_c, 12, 71, 127
1, 253451, Note_on_c, 7, 79, 127
1, 253567, Note_off_c, 7, 79, 127
1, 253568, Note_on_c, 5, 77, 127
1, 253684, Note_off_c, 5, 77, 127
1, 253685, Note_on_c, 7, 79, 127
1, 253685, Note_on_c, 7, 55, 127
1, 253801, Note_off_c, 7, 79, 127
1, 253802, Note_on_c, 10, 81, 127
1, 253918, Note_off_c, 10, 81, 127
1, 253919, Note_on_c, 7, 79, 127
1, 253919, Note_on_c, 7, 43, 127
1, 254035, Note_off_c, 7, 79, 127
1, 254036, Note_on_c, 5, 77, 127
1, 254149, Note_off_c, 7, 55, 127
1, 254151, Note_off_c, 7, 43, 127
1, 254152, Note_off_c, 5, 77, 127
1, 254152, Note_off_c, 12, 71, 127
1, 254153, Note_on_c, 4, 76, 127
1, 254153, Note_on_c, 0, 72, 127
1, 254269, Note_off_c, 0, 72, 127
1, 254270, Note_on_c, 12, 71, 127
1, 254386, Note_off_c, 12, 71, 127
1, 254387, Note_on_c, 0, 72, 127
1, 254387, Note_on_c, 0, 60, 127
1, 254503, Note_off_c, 0, 72, 127
1, 254504, Note_on_c, 2, 74, 127
1, 254620, Note_off_c, 2, 74, 127
1, 254621, Note_on_c, 0, 72, 127
1, 254621, Note_on_c, 0, 48, 127
1, 254737, Note_off_c, 0, 72, 127
1, 254738, Note_on_c, 11, 70, 127
1, 254851, Note_off_c, 0, 60, 127
1, 254853, Note_off_c, 0, 48, 127
1, 254854, Note_off_c, 11, 70, 127
1, 254854, Note_off_c, 4, 76, 127
1, 254855, Note_on_c, 10, 69, 127
1, 254855, Note_on_c, 5, 77, 127
1, 254971, Note_off_c, 5, 77, 127
1, 254972, Note_on_c, 4, 76, 127
1, 255088, Note_off_c, 4, 76, 127
1, 255089, Note_on_c, 5, 77, 127
1, 255089, Note_on_c, 5, 53, 127
1, 255205, Note_off_c, 5, 77, 127
1, 255206, Note_on_c, 7, 79, 127
1, 255322, Note_off_c, 7, 79, 127
1, 255323, Note_on_c, 5, 77, 127
1, 255323, Note_on_c, 5, 41, 127
1, 255439, Note_off_c, 5, 77, 127
1, 255440, Note_on_c, 4, 76, 127
1, 255553, Note_off_c, 5, 53, 127
1, 255555, Note_off_c, 5, 41, 127
1, 255556, Note_off_c, 4, 76, 127
1, 255556, Note_off_c, 10, 69, 127
1, 255557, Note_on_c, 11, 70, 127
1, 255557, Note_on_c, 2, 74, 127
1, 255673, Note_off_c, 11, 70, 127
1, 255674, Note_on_c, 10, 69, 127
1, 255790, Note_off_c, 10, 69, 127
1, 255791, Note_on_c, 11, 70, 127
1, 255791, Note_on_c, 11, 58, 127
1, 255907, Note_off_c, 11, 70, 127
1, 255908, Note_on_c, 0, 72, 127
1, 256024, Note_off_c, 0, 72, 127
1, 256025, Note_on_c, 11, 70, 127
1, 256025, Note_on_c, 11, 46, 127
1, 256141, Note_off_c, 11, 70, 127
1, 256142, Note_on_c, 10, 69, 127
1, 256255, Note_off_c, 11, 58, 127
1, 256257, Note_off_c, 11, 46, 127
1, 256258, Note_off_c, 10, 69, 127
1, 256258, Note_off_c, 2, 74, 127
1, 256259, Note_on_c, 7, 67, 127
1, 256259, Note_on_c, 4, 76, 127
1, 256375, Note_off_c, 4, 76, 127
1, 256376, Note_on_c, 2, 74, 127
1, 256492, Note_off_c, 2, 74, 127
1, 256493, Note_on_c, 4, 76, 127
1, 256493, Note_on_c, 4, 52, 127
1, 256609, Note_off_c, 4, 76, 127
1, 256610, Note_on_c, 5, 77, 127
1, 256726, Note_off_c, 5, 77, 127
1, 256726, Note_off_c, 4, 52, 127
1, 256727, Note_on_c, 4, 76, 127
1, 256727, Note_on_c, 4, 40, 127
1, 256843, Note_off_c, 4, 76, 127
1, 256844, Note_off_c, 7, 67, 127
1, 256844, Note_on_c, 2, 74, 127
1, 256844, Note_on_c, 5, 65, 127
1, 256960, Note_off_c, 5, 65, 127
1, 256960, Note_off_c, 2, 74, 127
1, 256960, Note_off_c, 4, 40, 127
1, 256961, Note_on_c, 4, 64, 127
1, 256961, Note_on_c, 1, 73, 127
1, 256961, Note_on_c, 10, 45, 127
1, 257077, Note_off_c, 1, 73, 127
1, 257078, Note_on_c, 10, 69, 127
1, 257193, Note_off_c, 4, 64, 127
1, 257194, Note_off_c, 10, 69, 127
1, 257195, Note_on_c, 10, 69, 127
1, 257195, Note_on_c, 10, 57, 127
1, 257311, Note_off_c, 10, 69, 127
1, 257312, Note_on_c, 10, 69, 127
1, 257425, Note_off_c, 10, 45, 127
1, 257429, Note_off_c, 10, 69, 127
1, 257429, Note_off_c, 10, 57, 127
1, 257430, Note_on_c, 2, 74, 127
1, 257430, Note_on_c, 12, 59, 127
1, 257546, Note_off_c, 2, 74, 127
1, 257547, Note_on_c, 10, 69, 127
1, 257663, Note_off_c, 10, 69, 127
1, 257663, Note_off_c, 12, 59, 127
1, 257664, Note_on_c, 4, 76, 127
1, 257664, Note_on_c, 1, 61, 127
1, 257780, Note_off_c, 4, 76, 127
1, 257781, Note_on_c, 10, 69, 127
1, 257897, Note_off_c, 10, 69, 127
1, 257898, Note_on_c, 10, 69, 127
1, 257898, Note_on_c, 10, 57, 127
1, 258014, Note_off_c, 10, 69, 127
1, 258015, Note_on_c, 10, 69, 127
1, 258128, Note_off_c, 1, 61, 127
1, 258132, Note_off_c, 10, 69, 127
1, 258132, Note_off_c, 10, 57, 127
1, 258133, Note_on_c, 5, 77, 127
1, 258133, Note_on_c, 2, 74, 127
1, 258133, Note_on_c, 10, 57, 127
1, 258133, Note_on_c, 2, 50, 127
1, 258249, Note_off_c, 5, 77, 127
1, 258250, Note_on_c, 10, 69, 127
1, 258365, Note_off_c, 2, 74, 127
1, 258366, Note_off_c, 10, 69, 127
1, 258366, Note_off_c, 2, 50, 127
1, 258367, Note_on_c, 7, 79, 127
1, 258367, Note_on_c, 4, 76, 127
1, 258367, Note_on_c, 1, 49, 127
1, 258483, Note_off_c, 7, 79, 127
1, 258484, Note_on_c, 10, 69, 127
1, 258600, Note_off_c, 10, 69, 127
1, 258600, Note_off_c, 1, 49, 127
1, 258601, Note_on_c, 10, 69, 127
1, 258601, Note_on_c, 10, 45, 127
1, 258709, Note_off_c, 4, 76, 127
1, 258718, Note_off_c, 10, 69, 127
1, 258719, Note_on_c, 10, 69, 127
1, 258835, Note_off_c, 10, 69, 127
1, 258835, Note_off_c, 10, 45, 127
1, 258835, Note_off_c, 10, 57, 127
1, 258836, Note_on_c, 5, 77, 127
1, 258836, Note_on_c, 2, 74, 127
1, 258836, Note_on_c, 2, 50, 127
1, 258836, Note_on_c, 10, 57, 127
1, 258952, Note_off_c, 5, 77, 127
1, 258953, Note_on_c, 10, 69, 127
1, 259068, Note_off_c, 2, 74, 127
1, 259069, Note_off_c, 10, 69, 127
1, 259069, Note_off_c, 2, 50, 127
1, 259070, Note_on_c, 1, 73, 127
1, 259070, Note_on_c, 4, 76, 127
1, 259070, Note_on_c, 10, 45, 127
1, 259186, Note_off_c, 4, 76, 127
1, 259187, Note_on_c, 10, 69, 127
1, 259300, Note_off_c, 10, 57, 127
1, 259304, Note_off_c, 10, 69, 127
1, 259305, Note_on_c, 10, 69, 127
1, 259305, Note_on_c, 10, 57, 127
1, 259413, Note_off_c, 1, 73, 127
1, 259422, Note_off_c, 10, 69, 127
1, 259423, Note_on_c, 10, 69, 127
1, 259536, Note_off_c, 10, 45, 127
1, 259540, Note_off_c, 10, 69, 127
1, 259540, Note_off_c, 10, 57, 127
1, 259541, Note_on_c, 2, 74, 127
1, 259541, Note_on_c, 12, 59, 127
1, 259657, Note_off_c, 2, 74, 127
1, 259658, Note_on_c, 10, 69, 127
1, 259774, Note_off_c, 10, 69, 127
1, 259774, Note_off_c, 12, 59, 127
1, 259775, Note_on_c, 4, 76, 127
1, 259775, Note_on_c, 1, 61, 127
1, 259893, Note_on_c, 10, 69, 127
1, 260009, Note_off_c, 10, 69, 127
1, 260010, Note_on_c, 10, 69, 127
1, 260010, Note_on_c, 10, 57, 127
1, 260126, Note_off_c, 10, 69, 127
1, 260127, Note_on_c, 10, 69, 127
1, 260191, Note_off_c, 4, 76, 127
1, 260240, Note_off_c, 1, 61, 127
1, 260244, Note_off_c, 10, 69, 127
1, 260244, Note_off_c, 10, 57, 127
1, 260245, Note_on_c, 2, 74, 127
1, 260245, Note_on_c, 5, 77, 127
1, 260245, Note_on_c, 10, 57, 127
1, 260245, Note_on_c, 2, 50, 127
1, 260361, Note_off_c, 5, 77, 127
1, 260362, Note_on_c, 10, 69, 127
1, 260477, Note_off_c, 2, 74, 127
1, 260478, Note_off_c, 10, 69, 127
1, 260478, Note_off_c, 2, 50, 127
1, 260479, Note_on_c, 7, 79, 127
1, 260479, Note_on_c, 4, 76, 127
1, 260479, Note_on_c, 1, 49, 127
1, 260713, Note_off_c, 1, 49, 127
1, 260714, Note_on_c, 10, 45, 127
1, 260830, Note_off_c, 4, 76, 127
1, 260830, Note_off_c, 7, 79, 127
1, 260831, Note_on_c, 10, 81, 127
1, 260947, Note_off_c, 10, 81, 127
1, 260947, Note_off_c, 10, 45, 127
1, 260947, Note_off_c, 10, 57, 127
1, 260948, Note_on_c, 5, 77, 127
1, 260948, Note_on_c, 2, 74, 127
1, 260948, Note_on_c, 2, 50, 127
1, 261182, Note_off_c, 2, 50, 127
1, 261183, Note_on_c, 7, 55, 127
1, 261183, Note_on_c, 11, 58, 127
1, 261299, Note_off_c, 2, 74, 127
1, 261299, Note_off_c, 5, 77, 127
1, 261300, Note_on_c, 4, 76, 127
1, 261416, Note_off_c, 4, 76, 127
1, 261416, Note_off_c, 11, 58, 127
1, 261416, Note_off_c, 7, 55, 127
1, 261417, Note_on_c, 5, 77, 127
1, 261417, Note_on_c, 1, 73, 127
1, 261417, Note_on_c, 10, 57, 127
1, 261475, Note_off_c, 5, 77, 127
1, 261476, Note_on_c, 4, 76, 127
1, 261534, Note_off_c, 4, 76, 127
1, 261535, Note_on_c, 5, 77, 127
1, 261593, Note_off_c, 5, 77, 127
1, 261594, Note_on_c, 4, 76, 127
1, 261652, Note_off_c, 4, 76, 127
1, 261653, Note_on_c, 5, 77, 127
1, 261653, Note_on_c, 10, 45, 127
1, 261711, Note_off_c, 5, 77, 127
1, 261712, Note_on_c, 4, 76, 127
1, 261770, Note_off_c, 4, 76, 127
1, 261771, Note_on_c, 2, 74, 127
1, 261829, Note_off_c, 2, 74, 127
1, 261830, Note_on_c, 4, 76, 127
1, 261884, Note_off_c, 10, 57, 127
1, 261884, Note_off_c, 1, 73, 127
1, 261888, Note_off_c, 4, 76, 127
1, 261888, Note_off_c, 10, 45, 127
1, 261889, Note_on_c, 2, 74, 127
1, 261889, Note_on_c, 2, 50, 127
1, 261968, Note_off_c, 2, 50, 127
1, 261969, Note_on_c, 4, 52, 127
1, 262048, Note_off_c, 4, 52, 127
1, 262049, Note_on_c, 5, 53, 127
1, 262128, Note_off_c, 5, 53, 127
1, 262128, Note_off_c, 2, 74, 127
1, 262129, Note_on_c, 7, 67, 127
1, 262129, Note_on_c, 2, 62, 127
1, 262129, Note_on_c, 11, 70, 127
1, 262129, Note_on_c, 7, 55, 127
1, 262248, Note_off_c, 7, 55, 127
1, 262249, Note_on_c, 10, 57, 127
1, 262368, Note_off_c, 10, 57, 127
1, 262368, Note_off_c, 11, 70, 127
1, 262368, Note_off_c, 2, 62, 127
1, 262368, Note_off_c, 7, 67, 127
1, 262369, Note_on_c, 2, 62, 127
1, 262369, Note_on_c, 7, 67, 127
1, 262369, Note_on_c, 11, 70, 127
1, 262369, Note_on_c, 7, 55, 127
1, 262488, Note_off_c, 7, 55, 127
1, 262489, Note_on_c, 5, 53, 127
1, 262608, Note_off_c, 5, 53, 127
1, 262608, Note_off_c, 11, 70, 127
1, 262608, Note_off_c, 7, 67, 127
1, 262608, Note_off_c, 2, 62, 127
1, 262609, Note_on_c, 0, 60, 127
1, 262609, Note_on_c, 11, 70, 127
1, 262609, Note_on_c, 7, 67, 127
1, 262609, Note_on_c, 4, 52, 127
1, 262688, Note_off_c, 4, 52, 127
1, 262689, Note_on_c, 2, 50, 127
1, 262768, Note_off_c, 2, 50, 127
1, 262769, Note_on_c, 4, 52, 127
1, 262848, Note_off_c, 4, 52, 127
1, 262848, Note_off_c, 7, 67, 127
1, 262848, Note_off_c, 11, 70, 127
1, 262848, Note_off_c, 0, 60, 127
1, 262849, Note_on_c, 10, 69, 127
1, 262849, Note_on_c, 0, 60, 127
1, 262849, Note_on_c, 5, 65, 127
1, 262849, Note_on_c, 5, 53, 127
1, 262968, Note_off_c, 5, 53, 127
1, 262969, Note_on_c, 7, 55, 127
1, 263088, Note_off_c, 7, 55, 127
1, 263088, Note_off_c, 5, 65, 127
1, 263088, Note_off_c, 0, 60, 127
1, 263088, Note_off_c, 10, 69, 127
1, 263089, Note_on_c, 0, 60, 127
1, 263089, Note_on_c, 10, 69, 127
1, 263089, Note_on_c, 5, 65, 127
1, 263089, Note_on_c, 5, 53, 127
1, 263208, Note_off_c, 5, 53, 127
1, 263209, Note_on_c, 4, 52, 127
1, 263328, Note_off_c, 4, 52, 127
1, 263328, Note_off_c, 5, 65, 127
1, 263328, Note_off_c, 10, 69, 127
1, 263328, Note_off_c, 0, 60, 127
1, 263329, Note_on_c, 11, 58, 127
1, 263329, Note_on_c, 10, 69, 127
1, 263329, Note_on_c, 2, 50, 127
1, 263408, Note_off_c, 2, 50, 127
1, 263409, Note_on_c, 1, 49, 127
1, 263488, Note_off_c, 1, 49, 127
1, 263489, Note_on_c, 2, 50, 127
1, 263568, Note_off_c, 2, 50, 127
1, 263568, Note_off_c, 10, 69, 127
1, 263568, Note_off_c, 11, 58, 127
1, 263569, Note_on_c, 11, 58, 127
1, 263569, Note_on_c, 1, 61, 127
1, 263569, Note_on_c, 7, 67, 127
1, 263569, Note_on_c, 4, 52, 127
1, 263688, Note_off_c, 4, 52, 127
1, 263689, Note_on_c, 5, 53, 127
1, 263808, Note_off_c, 5, 53, 127
1, 263808, Note_off_c, 7, 67, 127
1, 263808, Note_off_c, 1, 61, 127
1, 263808, Note_off_c, 11, 58, 127
1, 263809, Note_on_c, 7, 67, 127
1, 263809, Note_on_c, 11, 58, 127
1, 263809, Note_on_c, 2, 62, 127
1, 263809, Note_on_c, 4, 52, 127
1, 263928, Note_off_c, 4, 52, 127
1, 263929, Note_on_c, 2, 50, 127
1, 264048, Note_off_c, 2, 50, 127
1, 264048, Note_off_c, 2, 62, 127
1, 264048, Note_off_c, 11, 58, 127
1, 264048, Note_off_c, 7, 67, 127
1, 264049, Note_on_c, 7, 67, 127
1, 264049, Note_on_c, 10, 57, 127
1, 264049, Note_on_c, 4, 64, 127
1, 264049, Note_on_c, 1, 49, 127
1, 264168, Note_off_c, 1, 49, 127
1, 264168, Note_off_c, 4, 64, 127
1, 264168, Note_off_c, 10, 57, 127
1, 264168, Note_off_c, 7, 67, 127
1, 264169, Note_on_c, 4, 64, 127
1, 264169, Note_on_c, 12, 47, 127
1, 264288, Note_off_c, 12, 47, 127
1, 264288, Note_off_c, 4, 64, 127
1, 264289, Note_on_c, 10, 69, 127
1, 264289, Note_on_c, 1, 49, 127
1, 264408, Note_off_c, 1, 49, 127
1, 264408, Note_off_c, 10, 69, 127
1, 264409, Note_on_c, 1, 73, 127
1, 264409, Note_on_c, 10, 45, 127
1, 264528, Note_off_c, 10, 45, 127
1, 264528, Note_off_c, 1, 73, 127
1, 264529, Note_on_c, 4, 76, 127
1, 264529, Note_on_c, 12, 47, 127
1, 264648, Note_off_c, 12, 47, 127
1, 264649, Note_on_c, 7, 67, 127
1, 264649, Note_on_c, 1, 49, 127
1, 264768, Note_off_c, 1, 49, 127
1, 264768, Note_off_c, 7, 67, 127
1, 264769, Note_on_c, 5, 65, 127
1, 264769, Note_on_c, 2, 50, 127
1, 264879, Note_off_c, 4, 76, 127
1, 264888, Note_off_c, 2, 50, 127
1, 264889, Note_on_c, 10, 69, 127
1, 264889, Note_on_c, 1, 49, 127
1, 265008, Note_off_c, 1, 49, 127
1, 265008, Note_off_c, 10, 69, 127
1, 265009, Note_on_c, 2, 74, 127
1, 265009, Note_on_c, 2, 50, 127
1, 265128, Note_off_c, 2, 50, 127
1, 265128, Note_off_c, 2, 74, 127
1, 265129, Note_on_c, 1, 73, 127
1, 265129, Note_on_c, 4, 52, 127
1, 265248, Note_off_c, 4, 52, 127
1, 265248, Note_off_c, 1, 73, 127
1, 265249, Note_on_c, 2, 74, 127
1, 265249, Note_on_c, 5, 53, 127
1, 265368, Note_off_c, 5, 53, 127
1, 265369, Note_off_c, 5, 65, 127
1, 265369, Note_on_c, 5, 65, 127
1, 265369, Note_on_c, 2, 50, 127
1, 265488, Note_off_c, 2, 50, 127
1, 265488, Note_off_c, 5, 65, 127
1, 265489, Note_on_c, 4, 64, 127
1, 265489, Note_on_c, 7, 55, 127
1, 265599, Note_off_c, 2, 74, 127
1, 265608, Note_off_c, 7, 55, 127
1, 265609, Note_on_c, 2, 74, 127
1, 265609, Note_on_c, 4, 52, 127
1, 265728, Note_off_c, 4, 52, 127
1, 265728, Note_off_c, 2, 74, 127
1, 265729, Note_on_c, 2, 74, 127
1, 265729, Note_on_c, 10, 57, 127
1, 265788, Note_off_c, 2, 74, 127
1, 265789, Note_on_c, 1, 73, 127
1, 265848, Note_off_c, 1, 73, 127
1, 265848, Note_off_c, 10, 57, 127
1, 265849, Note_on_c, 2, 74, 127
1, 265849, Note_on_c, 7, 55, 127
1, 265908, Note_off_c, 2, 74, 127
1, 265909, Note_on_c, 1, 73, 127
1, 265968, Note_off_c, 7, 55, 127
1, 265969, Note_on_c, 10, 57, 127
1, 266088, Note_off_c, 10, 57, 127
1, 266088, Note_off_c, 1, 73, 127
1, 266089, Note_on_c, 2, 74, 127
1, 266089, Note_on_c, 10, 45, 127
1, 266208, Note_off_c, 10, 45, 127
1, 266208, Note_off_c, 2, 74, 127
1, 266208, Note_off_c, 4, 64, 127
1, 266209, Note_on_c, 2, 74, 127
1, 266209, Note_on_c, 5, 65, 127
1, 266209, Note_on_c, 2, 50, 127
1, 266328, Note_off_c, 5, 65, 127
1, 266328, Note_off_c, 2, 74, 127
1, 266329, Note_on_c, 1, 73, 127
1, 266329, Note_on_c, 4, 64, 127
1, 266447, Note_off_c, 2, 50, 127
1, 266448, Note_off_c, 4, 64, 127
1, 266448, Note_off_c, 1, 73, 127
1, 266449, Note_on_c, 2, 74, 127
1, 266449, Note_on_c, 2, 62, 127
1, 266568, Note_off_c, 2, 62, 127
1, 266568, Note_off_c, 2, 74, 127
1, 266569, Note_on_c, 4, 76, 127
1, 266569, Note_on_c, 1, 61, 127
1, 266688, Note_off_c, 1, 61, 127
1, 266688, Note_off_c, 4, 76, 127
1, 266689, Note_on_c, 5, 77, 127
1, 266689, Note_on_c, 2, 62, 127
1, 266808, Note_off_c, 2, 62, 127
1, 266808, Note_off_c, 5, 77, 127
1, 266809, Note_on_c, 7, 79, 127
1, 266809, Note_on_c, 4, 64, 127
1, 266928, Note_off_c, 4, 64, 127
1, 266928, Note_off_c, 7, 79, 127
1, 266929, Note_on_c, 5, 77, 127
1, 266929, Note_on_c, 5, 65, 127
1, 267048, Note_off_c, 5, 65, 127
1, 267048, Note_off_c, 5, 77, 127
1, 267049, Note_on_c, 4, 76, 127
1, 267049, Note_on_c, 7, 67, 127
1, 267168, Note_off_c, 7, 67, 127
1, 267168, Note_off_c, 4, 76, 127
1, 267169, Note_on_c, 2, 74, 127
1, 267169, Note_on_c, 5, 65, 127
1, 267288, Note_off_c, 5, 65, 127
1, 267288, Note_off_c, 2, 74, 127
1, 267289, Note_on_c, 4, 76, 127
1, 267289, Note_on_c, 4, 64, 127
1, 267408, Note_off_c, 4, 64, 127
1, 267408, Note_off_c, 4, 76, 127
1, 267409, Note_on_c, 5, 77, 127
1, 267409, Note_on_c, 2, 62, 127
1, 267528, Note_off_c, 2, 62, 127
1, 267528, Note_off_c, 5, 77, 127
1, 267529, Note_on_c, 7, 79, 127
1, 267529, Note_on_c, 4, 64, 127
1, 267648, Note_off_c, 4, 64, 127
1, 267648, Note_off_c, 7, 79, 127
1, 267649, Note_on_c, 10, 81, 127
1, 267649, Note_on_c, 5, 65, 127
1, 267768, Note_off_c, 5, 65, 127
1, 267769, Note_on_c, 7, 67, 127
1, 267888, Note_off_c, 7, 67, 127
1, 267889, Note_on_c, 10, 69, 127
1, 267949, Note_off_c, 10, 81, 127
1, 268008, Note_off_c, 10, 69, 127
1, 268009, Note_on_c, 12, 71, 127
1, 268009, Note_on_c, 7, 67, 127
1, 268128, Note_off_c, 7, 67, 127
1, 268128, Note_off_c, 12, 71, 127
1, 268129, Note_on_c, 0, 72, 127
1, 268129, Note_on_c, 5, 65, 127
1, 268248, Note_off_c, 5, 65, 127
1, 268248, Note_off_c, 0, 72, 127
1, 268249, Note_on_c, 2, 74, 127
1, 268249, Note_on_c, 4, 64, 127
1, 268368, Note_off_c, 4, 64, 127
1, 268368, Note_off_c, 2, 74, 127
1, 268369, Note_on_c, 12, 71, 127
1, 268369, Note_on_c, 2, 62, 127
1, 268488, Note_off_c, 12, 71, 127
1, 268489, Note_on_c, 10, 69, 127
1, 268608, Note_off_c, 10, 69, 127
1, 268608, Note_off_c, 2, 62, 127
1, 268609, Note_on_c, 12, 71, 127
1, 268609, Note_on_c, 12, 59, 127
1, 268728, Note_off_c, 12, 71, 127
1, 268729, Note_on_c, 1, 73, 127
1, 268848, Note_off_c, 1, 73, 127
1, 268848, Note_off_c, 12, 59, 127
1, 268849, Note_on_c, 2, 74, 127
1, 268849, Note_on_c, 4, 64, 127
1, 268968, Note_off_c, 2, 74, 127
1, 268969, Note_on_c, 4, 76, 127
1, 269088, Note_off_c, 4, 76, 127
1, 269088, Note_off_c, 4, 64, 127
1, 269089, Note_on_c, 1, 73, 127
1, 269089, Note_on_c, 10, 57, 127
1, 269209, Note_on_c, 10, 69, 127
1, 269239, Note_off_c, 1, 73, 127
1, 269328, Note_off_c, 10, 69, 127
1, 269328, Note_off_c, 10, 57, 127
1, 269329, Note_on_c, 1, 73, 127
1, 269329, Note_on_c, 10, 45, 127
1, 269449, Note_on_c, 10, 69, 127
1, 269479, Note_off_c, 1, 73, 127
1, 269568, Note_off_c, 10, 69, 127
1, 269568, Note_off_c, 10, 45, 127
1, 269569, Note_on_c, 1, 73, 127
1, 269569, Note_on_c, 10, 57, 127
1, 269689, Note_on_c, 10, 69, 127
1, 269719, Note_off_c, 1, 73, 127
1, 269808, Note_off_c, 10, 69, 127
1, 269808, Note_off_c, 10, 57, 127
1, 269809, Note_on_c, 2, 74, 127
1, 269809, Note_on_c, 11, 58, 127
1, 269929, Note_on_c, 5, 65, 127
1, 269989, Note_off_c, 2, 74, 127
1, 270048, Note_off_c, 5, 65, 127
1, 270048, Note_off_c, 11, 58, 127
1, 270049, Note_on_c, 2, 74, 127
1, 270049, Note_on_c, 11, 46, 127
1, 270169, Note_on_c, 5, 65, 127
1, 270229, Note_off_c, 2, 74, 127
1, 270288, Note_off_c, 5, 65, 127
1, 270288, Note_off_c, 11, 46, 127
1, 270289, Note_on_c, 2, 74, 127
1, 270289, Note_on_c, 11, 58, 127
1, 270409, Note_on_c, 5, 65, 127
1, 270469, Note_off_c, 2, 74, 127
1, 270528, Note_off_c, 5, 65, 127
1, 270528, Note_off_c, 11, 58, 127
1, 270529, Note_on_c, 2, 74, 127
1, 270529, Note_on_c, 7, 55, 127
1, 270649, Note_on_c, 4, 64, 127
1, 270767, Note_off_c, 2, 74, 127
1, 270768, Note_off_c, 4, 64, 127
1, 270768, Note_off_c, 7, 55, 127
1, 270769, Note_on_c, 2, 74, 127
1, 270769, Note_on_c, 7, 43, 127
1, 270889, Note_on_c, 4, 64, 127
1, 271007, Note_off_c, 2, 74, 127
1, 271008, Note_off_c, 4, 64, 127
1, 271008, Note_off_c, 7, 43, 127
1, 271009, Note_on_c, 2, 74, 127
1, 271009, Note_on_c, 7, 55, 127
1, 271129, Note_on_c, 4, 64, 127
1, 271247, Note_off_c, 2, 74, 127
1, 271248, Note_off_c, 4, 64, 127
1, 271248, Note_off_c, 7, 55, 127
1, 271249, Note_on_c, 1, 73, 127
1, 271249, Note_on_c, 10, 57, 127
1, 271369, Note_on_c, 4, 64, 127
1, 271429, Note_off_c, 1, 73, 127
1, 271488, Note_off_c, 4, 64, 127
1, 271488, Note_off_c, 10, 57, 127
1, 271489, Note_on_c, 1, 73, 127
1, 271489, Note_on_c, 10, 45, 127
1, 271609, Note_on_c, 4, 64, 127
1, 271669, Note_off_c, 1, 73, 127
1, 271728, Note_off_c, 4, 64, 127
1, 271728, Note_off_c, 10, 45, 127
1, 271729, Note_on_c, 1, 73, 127
1, 271729, Note_on_c, 10, 57, 127
1, 271849, Note_on_c, 4, 64, 127
1, 271909, Note_off_c, 1, 73, 127
1, 271968, Note_off_c, 4, 64, 127
1, 271968, Note_off_c, 10, 57, 127
1, 271969, Note_on_c, 2, 74, 127
1, 271969, Note_on_c, 2, 38, 127
1, 272113, Note_on_c, 10, 69, 127
1, 272232, Note_off_c, 10, 69, 127
1, 272233, Note_on_c, 5, 65, 127
1, 272249, Note_off_c, 2, 74, 127
1, 272352, Note_off_c, 5, 65, 127
1, 272353, Note_on_c, 2, 62, 127
1, 272472, Note_off_c, 2, 62, 127
1, 272473, Note_on_c, 10, 57, 127
1, 272592, Note_off_c, 10, 57, 127
1, 272593, Note_on_c, 5, 53, 127
1, 272687, Note_off_c, 2, 38, 127
1, 272712, Note_off_c, 5, 53, 127
1, 272729, Note_on_c, 2, 50, 127
1, 274729, Note_off_c, 2, 50, 127
1, 281088, End_track
0, 0, End_of_file
