0, 0, Header, 0, 1, 384
1, 0, Start_track
1, 0, Copyright_t, "(C) John Sankey 1998"
1, 0, Program_c, 0, 6
1, 0, Pitch_bend_c, 0, 8192
1, 0, Program_c, 1, 6
1, 0, Pitch_bend_c, 1, 7792
1, 0, Program_c, 2, 6
1, 0, Pitch_bend_c, 2, 7876
1, 0, Program_c, 3, 6
1, 0, Pitch_bend_c, 3, 7952
1, 0, Program_c, 4, 6
1, 0, Pitch_bend_c, 4, 7792
1, 0, Program_c, 5, 6
1, 0, Pitch_bend_c, 5, 8112
1, 0, Program_c, 6, 6
1, 0, Pitch_bend_c, 6, 7712
1, 0, Program_c, 7, 6
1, 0, Pitch_bend_c, 7, 8037
1, 0, Program_c, 8, 6
1, 0, Pitch_bend_c, 8, 7872
1, 0, Program_c, 10, 6
1, 0, Pitch_bend_c, 10, 7712
1, 0, Program_c, 11, 6
1, 0, Pitch_bend_c, 11, 8032
1, 0, Program_c, 12, 6
1, 0, Pitch_bend_c, 12, 7872
1, 0, Tempo, 500000
1, 48, Note_on_c, 2, 62, 127
1, 48, Note_on_c, 10, 69, 127
1, 48, Note_on_c, 2, 74, 127
1, 48, Note_on_c, 6, 78, 127
1, 145, Note_off_c, 6, 78, 127
1, 145, Note_off_c, 2, 74, 127
1, 145, Note_off_c, 10, 69, 127
1, 145, Note_off_c, 2, 62, 127
1, 151, Note_on_c, 2, 62, 127
1, 151, Note_on_c, 10, 69, 127
1, 151, Note_on_c, 2, 74, 127
1, 151, Note_on_c, 6, 78, 127
1, 821, Note_off_c, 6, 78, 127
1, 821, Note_off_c, 2, 74, 127
1, 821, Note_off_c, 10, 69, 127
1, 821, Note_off_c, 2, 62, 127
1, 1163, Note_on_c, 2, 74, 127
1, 1163, Note_on_c, 10, 69, 127
1, 1163, Note_on_c, 6, 78, 127
1, 1163, Note_on_c, 2, 62, 127
1, 1247, Note_off_c, 2, 62, 127
1, 1247, Note_off_c, 6, 78, 127
1, 1247, Note_off_c, 10, 69, 127
1, 1247, Note_off_c, 2, 74, 127
1, 1278, Note_on_c, 10, 69, 127
1, 1278, Note_on_c, 2, 74, 127
1, 1278, Note_on_c, 6, 78, 127
1, 1278, Note_on_c, 2, 62, 127
1, 1545, Note_off_c, 6, 78, 127
1, 1546, Note_on_c, 10, 81, 127
1, 1679, Note_off_c, 10, 81, 127
1, 1680, Note_on_c, 7, 79, 127
1, 1813, Note_off_c, 7, 79, 127
1, 1813, Note_off_c, 2, 62, 127
1, 1813, Note_off_c, 2, 74, 127
1, 1813, Note_off_c, 10, 69, 127
1, 1814, Note_on_c, 10, 69, 127
1, 1814, Note_on_c, 10, 81, 127
1, 1814, Note_on_c, 1, 73, 127
1, 1814, Note_on_c, 10, 57, 127
1, 2081, Note_off_c, 1, 73, 127
1, 2081, Note_off_c, 10, 81, 127
1, 2081, Note_off_c, 10, 69, 127
1, 2082, Note_on_c, 7, 67, 127
1, 2082, Note_on_c, 1, 73, 127
1, 2082, Note_on_c, 10, 81, 127
1, 2349, Note_off_c, 10, 81, 127
1, 2349, Note_off_c, 1, 73, 127
1, 2349, Note_off_c, 7, 67, 127
1, 2349, Note_off_c, 10, 57, 127
1, 2350, Note_on_c, 2, 74, 127
1, 2350, Note_on_c, 12, 71, 127
1, 2350, Note_on_c, 6, 66, 127
1, 2350, Note_on_c, 12, 59, 127
1, 3152, Note_off_c, 12, 59, 127
1, 3152, Note_off_c, 6, 66, 127
1, 3152, Note_off_c, 12, 71, 127
1, 3152, Note_off_c, 2, 74, 127
1, 3271, Note_on_c, 12, 59, 127
1, 3271, Note_on_c, 12, 71, 127
1, 3271, Note_on_c, 6, 66, 127
1, 3271, Note_on_c, 2, 74, 127
1, 3404, Note_off_c, 2, 74, 127
1, 3404, Note_off_c, 6, 66, 127
1, 3404, Note_off_c, 12, 71, 127
1, 3404, Note_off_c, 12, 59, 127
1, 3405, Note_on_c, 12, 59, 127
1, 3405, Note_on_c, 2, 74, 127
1, 3405, Note_on_c, 6, 66, 127
1, 3405, Note_on_c, 12, 71, 127
1, 3672, Note_off_c, 2, 74, 127
1, 3673, Note_on_c, 6, 78, 127
1, 3806, Note_off_c, 6, 78, 127
1, 3807, Note_on_c, 4, 76, 127
1, 3940, Note_off_c, 4, 76, 127
1, 3940, Note_off_c, 12, 71, 127
1, 3940, Note_off_c, 6, 66, 127
1, 3940, Note_off_c, 12, 59, 127
1, 3941, Note_on_c, 6, 54, 127
1, 3941, Note_on_c, 10, 69, 127
1, 3941, Note_on_c, 6, 66, 127
1, 3941, Note_on_c, 6, 78, 127
1, 4208, Note_off_c, 6, 78, 127
1, 4208, Note_off_c, 6, 66, 127
1, 4208, Note_off_c, 10, 69, 127
1, 4209, Note_on_c, 6, 78, 127
1, 4209, Note_on_c, 4, 64, 127
1, 4209, Note_on_c, 10, 69, 127
1, 4476, Note_off_c, 10, 69, 127
1, 4476, Note_off_c, 4, 64, 127
1, 4476, Note_off_c, 6, 78, 127
1, 4476, Note_off_c, 6, 54, 127
1, 4477, Note_on_c, 7, 55, 127
1, 4477, Note_on_c, 2, 62, 127
1, 4477, Note_on_c, 12, 71, 127
1, 4477, Note_on_c, 7, 67, 127
1, 5279, Note_off_c, 7, 67, 127
1, 5279, Note_off_c, 12, 71, 127
1, 5279, Note_off_c, 2, 62, 127
1, 5279, Note_off_c, 7, 55, 127
1, 5382, Note_on_c, 2, 62, 127
1, 5382, Note_on_c, 12, 71, 127
1, 5382, Note_on_c, 7, 67, 127
1, 5382, Note_on_c, 7, 55, 127
1, 5515, Note_off_c, 7, 55, 127
1, 5515, Note_off_c, 7, 67, 127
1, 5515, Note_off_c, 12, 71, 127
1, 5515, Note_off_c, 2, 62, 127
1, 5516, Note_on_c, 2, 62, 127
1, 5516, Note_on_c, 7, 67, 127
1, 5516, Note_on_c, 12, 71, 127
1, 5516, Note_on_c, 7, 55, 127
1, 5783, Note_off_c, 12, 71, 127
1, 5783, Note_off_c, 2, 62, 127
1, 5784, Note_on_c, 4, 64, 127
1, 5784, Note_on_c, 2, 74, 127
1, 5917, Note_off_c, 2, 74, 127
1, 5918, Note_on_c, 1, 73, 127
1, 6051, Note_off_c, 1, 73, 127
1, 6051, Note_off_c, 4, 64, 127
1, 6051, Note_off_c, 7, 55, 127
1, 6051, Note_off_c, 7, 67, 127
1, 6052, Note_on_c, 10, 69, 127
1, 6052, Note_on_c, 2, 74, 127
1, 6052, Note_on_c, 6, 66, 127
1, 6052, Note_on_c, 2, 50, 127
1, 6319, Note_off_c, 6, 66, 127
1, 6319, Note_off_c, 2, 74, 127
1, 6319, Note_off_c, 10, 69, 127
1, 6320, Note_on_c, 6, 66, 127
1, 6320, Note_on_c, 10, 69, 127
1, 6320, Note_on_c, 2, 74, 127
1, 6587, Note_off_c, 2, 74, 127
1, 6587, Note_off_c, 10, 69, 127
1, 6587, Note_off_c, 6, 66, 127
1, 6587, Note_off_c, 2, 50, 127
1, 6588, Note_on_c, 4, 64, 127
1, 6588, Note_on_c, 2, 74, 127
1, 6588, Note_on_c, 10, 69, 127
1, 6588, Note_on_c, 10, 57, 127
1, 6855, Note_off_c, 2, 74, 127
1, 6856, Note_on_c, 1, 73, 127
1, 7390, Note_off_c, 1, 73, 127
1, 7390, Note_off_c, 10, 57, 127
1, 7390, Note_off_c, 10, 69, 127
1, 7390, Note_off_c, 4, 64, 127
1, 7391, Note_on_c, 10, 81, 127
1, 7658, Note_off_c, 10, 81, 127
1, 7659, Note_on_c, 4, 76, 127
1, 7659, Note_on_c, 10, 57, 127
1, 7659, Note_on_c, 1, 49, 127
1, 7659, Note_on_c, 4, 52, 127
1, 7792, Note_off_c, 4, 76, 127
1, 7793, Note_on_c, 2, 74, 127
1, 7926, Note_off_c, 2, 74, 127
1, 7927, Note_on_c, 4, 76, 127
1, 8060, Note_off_c, 4, 76, 127
1, 8061, Note_on_c, 7, 79, 127
1, 8194, Note_off_c, 7, 79, 127
1, 8194, Note_off_c, 4, 52, 127
1, 8194, Note_off_c, 1, 49, 127
1, 8194, Note_off_c, 10, 57, 127
1, 8195, Note_on_c, 6, 78, 127
1, 8195, Note_on_c, 10, 57, 127
1, 8195, Note_on_c, 2, 50, 127
1, 8328, Note_off_c, 6, 78, 127
1, 8329, Note_on_c, 4, 76, 127
1, 8462, Note_off_c, 4, 76, 127
1, 8463, Note_on_c, 6, 78, 127
1, 8596, Note_off_c, 6, 78, 127
1, 8597, Note_on_c, 10, 81, 127
1, 8730, Note_off_c, 10, 81, 127
1, 8730, Note_off_c, 2, 50, 127
1, 8730, Note_off_c, 10, 57, 127
1, 8731, Note_on_c, 7, 79, 127
1, 8731, Note_on_c, 4, 52, 127
1, 8731, Note_on_c, 12, 47, 127
1, 8731, Note_on_c, 2, 50, 127
1, 8731, Note_on_c, 7, 43, 127
1, 8864, Note_off_c, 7, 79, 127
1, 8865, Note_on_c, 6, 78, 127
1, 8998, Note_off_c, 6, 78, 127
1, 8999, Note_on_c, 7, 79, 127
1, 9132, Note_off_c, 7, 79, 127
1, 9133, Note_on_c, 10, 81, 127
1, 9266, Note_off_c, 10, 81, 127
1, 9266, Note_off_c, 7, 43, 127
1, 9266, Note_off_c, 2, 50, 127
1, 9266, Note_off_c, 12, 47, 127
1, 9266, Note_off_c, 4, 52, 127
1, 9267, Note_on_c, 7, 79, 127
1, 9267, Note_on_c, 10, 45, 127
1, 9267, Note_on_c, 4, 52, 127
1, 9267, Note_on_c, 1, 49, 127
1, 9400, Note_off_c, 7, 79, 127
1, 9401, Note_on_c, 12, 83, 127
1, 9534, Note_off_c, 12, 83, 127
1, 9535, Note_on_c, 10, 81, 127
1, 9668, Note_off_c, 10, 81, 127
1, 9669, Note_on_c, 7, 79, 127
1, 9802, Note_off_c, 7, 79, 127
1, 9802, Note_off_c, 1, 49, 127
1, 9802, Note_off_c, 4, 52, 127
1, 9802, Note_off_c, 10, 45, 127
1, 9803, Note_on_c, 6, 78, 127
1, 9803, Note_on_c, 2, 50, 127
1, 9936, Note_off_c, 6, 78, 127
1, 9937, Note_on_c, 4, 76, 127
1, 10070, Note_off_c, 4, 76, 127
1, 10071, Note_on_c, 6, 78, 127
1, 10071, Note_on_c, 10, 57, 127
1, 10204, Note_off_c, 6, 78, 127
1, 10205, Note_on_c, 7, 79, 127
1, 10338, Note_off_c, 7, 79, 127
1, 10338, Note_off_c, 10, 57, 127
1, 10339, Note_on_c, 6, 78, 127
1, 10339, Note_on_c, 2, 62, 127
1, 10472, Note_off_c, 6, 78, 127
1, 10473, Note_on_c, 10, 81, 127
1, 10606, Note_off_c, 10, 81, 127
1, 10606, Note_off_c, 2, 50, 127
1, 10607, Note_on_c, 7, 79, 127
1, 10607, Note_on_c, 2, 50, 127
1, 10740, Note_off_c, 7, 79, 127
1, 10741, Note_on_c, 6, 78, 127
1, 10869, Note_off_c, 2, 62, 127
1, 10873, Note_off_c, 6, 78, 127
1, 10873, Note_off_c, 2, 50, 127
1, 10874, Note_on_c, 4, 76, 127
1, 10874, Note_on_c, 1, 61, 127
1, 10874, Note_on_c, 10, 57, 127
1, 11141, Note_off_c, 1, 61, 127
1, 11141, Note_off_c, 4, 76, 127
1, 11142, Note_on_c, 10, 69, 127
1, 11142, Note_on_c, 10, 45, 127
1, 11275, Note_off_c, 10, 45, 127
1, 11276, Note_on_c, 12, 47, 127
1, 11404, Note_off_c, 10, 57, 127
1, 11408, Note_off_c, 12, 47, 127
1, 11409, Note_on_c, 1, 49, 127
1, 11676, Note_off_c, 1, 49, 127
1, 11676, Note_off_c, 10, 69, 127
1, 11677, Note_on_c, 4, 76, 127
1, 11677, Note_on_c, 10, 81, 127
1, 11677, Note_on_c, 1, 73, 127
1, 11677, Note_on_c, 10, 57, 127
1, 11677, Note_on_c, 10, 45, 127
1, 11677, Note_on_c, 4, 52, 127
1, 11944, Note_off_c, 4, 52, 127
1, 11944, Note_off_c, 10, 45, 127
1, 11944, Note_off_c, 10, 57, 127
1, 11944, Note_off_c, 1, 73, 127
1, 11944, Note_off_c, 10, 81, 127
1, 11944, Note_off_c, 4, 76, 127
1, 11945, Note_on_c, 6, 78, 127
1, 11945, Note_on_c, 10, 69, 127
1, 11945, Note_on_c, 2, 74, 127
1, 11945, Note_on_c, 10, 57, 127
1, 11945, Note_on_c, 2, 50, 127
1, 11945, Note_on_c, 6, 54, 127
1, 12212, Note_off_c, 2, 74, 127
1, 12212, Note_off_c, 10, 69, 127
1, 12212, Note_off_c, 6, 78, 127
1, 12213, Note_on_c, 10, 81, 127
1, 12346, Note_off_c, 10, 81, 127
1, 12347, Note_on_c, 7, 79, 127
1, 12480, Note_off_c, 7, 79, 127
1, 12480, Note_off_c, 6, 54, 127
1, 12480, Note_off_c, 2, 50, 127
1, 12480, Note_off_c, 10, 57, 127
1, 12481, Note_on_c, 10, 81, 127
1, 12748, Note_off_c, 10, 81, 127
1, 12749, Note_on_c, 10, 81, 127
1, 13016, Note_off_c, 10, 81, 127
1, 13017, Note_on_c, 4, 76, 127
1, 13017, Note_on_c, 10, 69, 127
1, 13017, Note_on_c, 10, 57, 127
1, 13017, Note_on_c, 1, 61, 127
1, 13284, Note_off_c, 10, 69, 127
1, 13284, Note_off_c, 4, 76, 127
1, 13285, Note_on_c, 10, 81, 127
1, 13418, Note_off_c, 10, 81, 127
1, 13419, Note_on_c, 7, 79, 127
1, 13552, Note_off_c, 7, 79, 127
1, 13552, Note_off_c, 1, 61, 127
1, 13552, Note_off_c, 10, 57, 127
1, 13553, Note_on_c, 10, 81, 127
1, 13820, Note_off_c, 10, 81, 127
1, 13821, Note_on_c, 10, 81, 127
1, 14088, Note_off_c, 10, 81, 127
1, 14089, Note_on_c, 10, 69, 127
1, 14089, Note_on_c, 2, 74, 127
1, 14089, Note_on_c, 6, 78, 127
1, 14089, Note_on_c, 2, 62, 127
1, 14089, Note_on_c, 10, 57, 127
1, 14089, Note_on_c, 2, 50, 127
1, 14356, Note_off_c, 6, 78, 127
1, 14356, Note_off_c, 2, 74, 127
1, 14356, Note_off_c, 10, 69, 127
1, 14357, Note_on_c, 10, 81, 127
1, 14490, Note_off_c, 10, 81, 127
1, 14491, Note_on_c, 7, 79, 127
1, 14624, Note_off_c, 7, 79, 127
1, 14624, Note_off_c, 2, 50, 127
1, 14624, Note_off_c, 10, 57, 127
1, 14624, Note_off_c, 2, 62, 127
1, 14625, Note_on_c, 10, 81, 127
1, 14892, Note_off_c, 10, 81, 127
1, 14893, Note_on_c, 10, 81, 127
1, 15160, Note_off_c, 10, 81, 127
1, 15161, Note_on_c, 10, 69, 127
1, 15161, Note_on_c, 4, 76, 127
1, 15161, Note_on_c, 10, 57, 127
1, 15161, Note_on_c, 1, 61, 127
1, 15428, Note_off_c, 4, 76, 127
1, 15428, Note_off_c, 10, 69, 127
1, 15429, Note_on_c, 10, 81, 127
1, 15562, Note_off_c, 10, 81, 127
1, 15563, Note_on_c, 7, 79, 127
1, 15696, Note_off_c, 7, 79, 127
1, 15696, Note_off_c, 1, 61, 127
1, 15696, Note_off_c, 10, 57, 127
1, 15697, Note_on_c, 10, 81, 127
1, 15964, Note_off_c, 10, 81, 127
1, 15965, Note_on_c, 10, 81, 127
1, 16232, Note_off_c, 10, 81, 127
1, 16233, Note_on_c, 10, 69, 127
1, 16233, Note_on_c, 6, 78, 127
1, 16233, Note_on_c, 2, 62, 127
1, 16233, Note_on_c, 2, 50, 127
1, 16233, Note_on_c, 10, 57, 127
1, 16366, Note_off_c, 6, 78, 127
1, 16366, Note_off_c, 10, 69, 127
1, 16367, Note_on_c, 10, 81, 127
1, 16500, Note_off_c, 10, 81, 127
1, 16501, Note_on_c, 7, 79, 127
1, 16634, Note_off_c, 7, 79, 127
1, 16635, Note_on_c, 6, 78, 127
1, 16768, Note_off_c, 6, 78, 127
1, 16768, Note_off_c, 10, 57, 127
1, 16768, Note_off_c, 2, 50, 127
1, 16768, Note_off_c, 2, 62, 127
1, 16769, Note_on_c, 4, 76, 127
1, 16769, Note_on_c, 4, 64, 127
1, 16769, Note_on_c, 7, 55, 127
1, 16769, Note_on_c, 12, 59, 127
1, 16902, Note_off_c, 4, 64, 127
1, 16902, Note_off_c, 4, 76, 127
1, 16903, Note_on_c, 2, 74, 127
1, 17036, Note_off_c, 2, 74, 127
1, 17037, Note_on_c, 1, 73, 127
1, 17170, Note_off_c, 1, 73, 127
1, 17171, Note_on_c, 12, 71, 127
1, 17304, Note_off_c, 12, 71, 127
1, 17304, Note_off_c, 12, 59, 127
1, 17304, Note_off_c, 7, 55, 127
1, 17305, Note_on_c, 4, 64, 127
1, 17305, Note_on_c, 10, 69, 127
1, 17305, Note_on_c, 10, 57, 127
1, 17305, Note_on_c, 1, 61, 127
1, 17572, Note_off_c, 1, 61, 127
1, 17572, Note_off_c, 10, 57, 127
1, 17572, Note_off_c, 10, 69, 127
1, 17572, Note_off_c, 4, 64, 127
1, 17573, Note_on_c, 6, 66, 127
1, 17573, Note_on_c, 2, 74, 127
1, 17573, Note_on_c, 10, 57, 127
1, 17573, Note_on_c, 6, 54, 127
1, 17706, Note_off_c, 6, 54, 127
1, 17706, Note_off_c, 10, 57, 127
1, 17707, Note_on_c, 7, 55, 127
1, 17840, Note_off_c, 7, 55, 127
1, 17840, Note_off_c, 6, 66, 127
1, 17841, Note_on_c, 4, 64, 127
1, 17841, Note_on_c, 7, 67, 127
1, 17841, Note_on_c, 10, 57, 127
1, 18108, Note_off_c, 2, 74, 127
1, 18109, Note_on_c, 1, 73, 127
1, 18109, Note_on_c, 10, 45, 127
1, 18376, Note_off_c, 10, 45, 127
1, 18376, Note_off_c, 1, 73, 127
1, 18376, Note_off_c, 10, 57, 127
1, 18376, Note_off_c, 7, 67, 127
1, 18376, Note_off_c, 4, 64, 127
1, 18377, Note_on_c, 10, 69, 127
1, 18377, Note_on_c, 2, 74, 127
1, 18377, Note_on_c, 6, 66, 127
1, 18377, Note_on_c, 2, 50, 127
1, 18377, Note_on_c, 10, 57, 127
1, 18644, Note_off_c, 6, 66, 127
1, 18644, Note_off_c, 2, 74, 127
1, 18644, Note_off_c, 10, 69, 127
1, 18654, Note_on_c, 6, 78, 127
1, 18787, Note_off_c, 6, 78, 127
1, 18795, Note_on_c, 4, 76, 127
1, 18907, Note_off_c, 10, 57, 127
1, 18907, Note_off_c, 2, 50, 127
1, 18927, Note_off_c, 4, 76, 127
1, 18928, Note_on_c, 2, 74, 127
1, 19195, Note_off_c, 2, 74, 127
1, 19196, Note_on_c, 10, 57, 127
1, 19196, Note_on_c, 1, 61, 127
1, 19196, Note_on_c, 4, 76, 127
1, 19463, Note_off_c, 4, 76, 127
1, 19463, Note_off_c, 1, 61, 127
1, 19463, Note_off_c, 10, 57, 127
1, 19464, Note_on_c, 2, 50, 127
1, 19464, Note_on_c, 2, 62, 127
1, 19464, Note_on_c, 6, 78, 127
1, 19597, Note_off_c, 6, 78, 127
1, 19598, Note_on_c, 7, 79, 127
1, 19731, Note_off_c, 7, 79, 127
1, 19732, Note_on_c, 6, 78, 127
1, 19865, Note_off_c, 6, 78, 127
1, 19866, Note_on_c, 4, 76, 127
1, 19999, Note_off_c, 4, 76, 127
1, 19999, Note_off_c, 2, 62, 127
1, 19999, Note_off_c, 2, 50, 127
1, 20000, Note_on_c, 2, 74, 127
1, 20267, Note_off_c, 2, 74, 127
1, 20268, Note_on_c, 1, 49, 127
1, 20268, Note_on_c, 10, 57, 127
1, 20268, Note_on_c, 4, 76, 127
1, 20535, Note_off_c, 4, 76, 127
1, 20535, Note_off_c, 10, 57, 127
1, 20535, Note_off_c, 1, 49, 127
1, 20536, Note_on_c, 2, 50, 127
1, 20536, Note_on_c, 10, 57, 127
1, 20536, Note_on_c, 6, 78, 127
1, 20803, Note_off_c, 6, 78, 127
1, 20803, Note_off_c, 2, 50, 127
1, 20804, Note_on_c, 4, 52, 127
1, 20804, Note_on_c, 7, 79, 127
1, 21071, Note_off_c, 7, 79, 127
1, 21071, Note_off_c, 4, 52, 127
1, 21072, Note_on_c, 6, 54, 127
1, 21072, Note_on_c, 2, 62, 127
1, 21072, Note_on_c, 10, 81, 127
1, 21339, Note_off_c, 10, 81, 127
1, 21339, Note_off_c, 6, 54, 127
1, 21340, Note_on_c, 2, 50, 127
1, 21340, Note_on_c, 7, 79, 127
1, 21473, Note_off_c, 7, 79, 127
1, 21474, Note_on_c, 6, 78, 127
1, 21607, Note_off_c, 6, 78, 127
1, 21607, Note_off_c, 2, 50, 127
1, 21607, Note_off_c, 2, 62, 127
1, 21607, Note_off_c, 10, 57, 127
1, 21608, Note_on_c, 1, 61, 127
1, 21608, Note_on_c, 10, 57, 127
1, 21608, Note_on_c, 4, 76, 127
1, 21875, Note_off_c, 4, 76, 127
1, 21875, Note_off_c, 10, 57, 127
1, 21875, Note_off_c, 1, 61, 127
1, 21876, Note_on_c, 12, 59, 127
1, 21876, Note_on_c, 2, 62, 127
1, 21876, Note_on_c, 10, 69, 127
1, 22143, Note_off_c, 2, 62, 127
1, 22143, Note_off_c, 12, 59, 127
1, 22144, Note_on_c, 1, 61, 127
1, 22144, Note_on_c, 4, 64, 127
1, 22277, Note_off_c, 10, 69, 127
1, 22278, Note_on_c, 10, 81, 127
1, 22411, Note_off_c, 10, 81, 127
1, 22411, Note_off_c, 4, 64, 127
1, 22411, Note_off_c, 1, 61, 127
1, 22412, Note_on_c, 1, 61, 127
1, 22412, Note_on_c, 10, 57, 127
1, 22412, Note_on_c, 7, 79, 127
1, 22545, Note_off_c, 7, 79, 127
1, 22546, Note_on_c, 10, 81, 127
1, 22679, Note_off_c, 10, 81, 127
1, 22679, Note_off_c, 10, 57, 127
1, 22679, Note_off_c, 1, 61, 127
1, 22680, Note_on_c, 2, 62, 127
1, 22680, Note_on_c, 6, 78, 127
1, 22813, Note_off_c, 6, 78, 127
1, 22814, Note_on_c, 7, 79, 127
1, 22947, Note_off_c, 7, 79, 127
1, 22948, Note_on_c, 6, 66, 127
1, 22948, Note_on_c, 4, 76, 127
1, 23081, Note_off_c, 4, 76, 127
1, 23082, Note_on_c, 6, 78, 127
1, 23215, Note_off_c, 6, 78, 127
1, 23215, Note_off_c, 6, 66, 127
1, 23216, Note_on_c, 12, 71, 127
1, 23216, Note_on_c, 2, 74, 127
1, 23349, Note_off_c, 2, 74, 127
1, 23350, Note_off_c, 2, 62, 127
1, 23350, Note_on_c, 7, 79, 127
1, 23483, Note_off_c, 7, 79, 127
1, 23484, Note_on_c, 12, 59, 127
1, 23484, Note_on_c, 6, 78, 127
1, 23617, Note_off_c, 6, 78, 127
1, 23618, Note_on_c, 7, 79, 127
1, 23751, Note_off_c, 7, 79, 127
1, 23751, Note_off_c, 12, 59, 127
1, 23752, Note_on_c, 1, 61, 127
1, 23752, Note_on_c, 4, 76, 127
1, 23885, Note_off_c, 4, 76, 127
1, 23886, Note_off_c, 12, 71, 127
1, 23886, Note_on_c, 6, 78, 127
1, 24019, Note_off_c, 6, 78, 127
1, 24020, Note_on_c, 4, 64, 127
1, 24020, Note_on_c, 2, 74, 127
1, 24153, Note_off_c, 2, 74, 127
1, 24154, Note_on_c, 4, 76, 127
1, 24287, Note_off_c, 4, 76, 127
1, 24287, Note_off_c, 4, 64, 127
1, 24288, Note_on_c, 10, 69, 127
1, 24288, Note_on_c, 1, 73, 127
1, 24421, Note_off_c, 1, 73, 127
1, 24422, Note_off_c, 1, 61, 127
1, 24422, Note_on_c, 6, 78, 127
1, 24555, Note_off_c, 6, 78, 127
1, 24556, Note_on_c, 10, 57, 127
1, 24556, Note_on_c, 4, 76, 127
1, 24689, Note_off_c, 4, 76, 127
1, 24690, Note_on_c, 6, 78, 127
1, 24823, Note_off_c, 6, 78, 127
1, 24823, Note_off_c, 10, 57, 127
1, 24824, Note_on_c, 12, 59, 127
1, 24824, Note_on_c, 2, 74, 127
1, 24957, Note_off_c, 2, 74, 127
1, 24958, Note_off_c, 10, 69, 127
1, 24958, Note_on_c, 4, 76, 127
1, 25091, Note_off_c, 4, 76, 127
1, 25092, Note_on_c, 2, 62, 127
1, 25092, Note_on_c, 1, 73, 127
1, 25225, Note_off_c, 1, 73, 127
1, 25226, Note_on_c, 2, 74, 127
1, 25359, Note_off_c, 2, 74, 127
1, 25359, Note_off_c, 2, 62, 127
1, 25360, Note_on_c, 4, 64, 127
1, 25360, Note_on_c, 12, 71, 127
1, 25493, Note_off_c, 12, 71, 127
1, 25494, Note_off_c, 12, 59, 127
1, 25494, Note_on_c, 4, 76, 127
1, 25627, Note_off_c, 4, 76, 127
1, 25628, Note_on_c, 8, 56, 127
1, 25628, Note_on_c, 2, 74, 127
1, 25761, Note_off_c, 2, 74, 127
1, 25762, Note_on_c, 4, 76, 127
1, 25895, Note_off_c, 4, 76, 127
1, 25895, Note_off_c, 8, 56, 127
1, 25896, Note_on_c, 10, 57, 127
1, 25896, Note_on_c, 1, 73, 127
1, 26029, Note_off_c, 1, 73, 127
1, 26030, Note_off_c, 4, 64, 127
1, 26030, Note_on_c, 2, 74, 127
1, 26163, Note_off_c, 2, 74, 127
1, 26163, Note_off_c, 10, 57, 127
1, 26164, Note_on_c, 12, 59, 127
1, 26164, Note_on_c, 12, 71, 127
1, 26297, Note_off_c, 12, 71, 127
1, 26298, Note_on_c, 1, 73, 127
1, 26431, Note_off_c, 1, 73, 127
1, 26431, Note_off_c, 12, 59, 127
1, 26432, Note_on_c, 1, 61, 127
1, 26432, Note_on_c, 10, 69, 127
1, 26565, Note_off_c, 10, 69, 127
1, 26566, Note_on_c, 4, 76, 127
1, 26699, Note_off_c, 4, 76, 127
1, 26699, Note_off_c, 1, 61, 127
1, 26700, Note_on_c, 10, 57, 127
1, 26700, Note_on_c, 2, 74, 127
1, 26833, Note_off_c, 2, 74, 127
1, 26834, Note_on_c, 4, 76, 127
1, 26967, Note_off_c, 4, 76, 127
1, 26967, Note_off_c, 10, 57, 127
1, 26968, Note_on_c, 2, 50, 127
1, 26968, Note_on_c, 6, 78, 127
1, 27101, Note_off_c, 6, 78, 127
1, 27102, Note_on_c, 8, 80, 127
1, 27235, Note_off_c, 8, 80, 127
1, 27236, Note_on_c, 2, 62, 127
1, 27236, Note_on_c, 4, 76, 127
1, 27369, Note_off_c, 4, 76, 127
1, 27370, Note_on_c, 6, 78, 127
1, 27498, Note_off_c, 2, 50, 127
1, 27502, Note_off_c, 6, 78, 127
1, 27502, Note_off_c, 2, 62, 127
1, 27503, Note_on_c, 4, 52, 127
1, 27503, Note_on_c, 8, 80, 127
1, 27636, Note_off_c, 8, 80, 127
1, 27637, Note_on_c, 10, 81, 127
1, 27770, Note_off_c, 10, 81, 127
1, 27771, Note_on_c, 4, 64, 127
1, 27771, Note_on_c, 6, 78, 127
1, 27904, Note_off_c, 6, 78, 127
1, 27905, Note_on_c, 8, 80, 127
1, 28033, Note_off_c, 4, 52, 127
1, 28037, Note_off_c, 8, 80, 127
1, 28037, Note_off_c, 4, 64, 127
1, 28038, Note_on_c, 10, 57, 127
1, 28038, Note_on_c, 10, 81, 127
1, 28171, Note_off_c, 10, 81, 127
1, 28172, Note_on_c, 8, 80, 127
1, 28305, Note_off_c, 8, 80, 127
1, 28306, Note_on_c, 4, 64, 127
1, 28306, Note_on_c, 1, 61, 127
1, 28306, Note_on_c, 10, 81, 127
1, 28439, Note_off_c, 10, 81, 127
1, 28440, Note_on_c, 12, 83, 127
1, 28485, Note_off_c, 10, 57, 127
1, 28573, Note_off_c, 12, 83, 127
1, 28573, Note_off_c, 1, 61, 127
1, 28573, Note_off_c, 4, 64, 127
1, 28574, Note_on_c, 8, 56, 127
1, 28574, Note_on_c, 10, 81, 127
1, 28707, Note_off_c, 10, 81, 127
1, 28708, Note_on_c, 8, 80, 127
1, 28841, Note_off_c, 8, 80, 127
1, 28842, Note_on_c, 12, 59, 127
1, 28842, Note_on_c, 4, 64, 127
1, 28842, Note_on_c, 10, 81, 127
1, 28975, Note_off_c, 10, 81, 127
1, 28976, Note_on_c, 12, 83, 127
1, 29021, Note_off_c, 8, 56, 127
1, 29109, Note_off_c, 12, 83, 127
1, 29109, Note_off_c, 4, 64, 127
1, 29109, Note_off_c, 12, 59, 127
1, 29110, Note_on_c, 6, 54, 127
1, 29110, Note_on_c, 10, 81, 127
1, 29243, Note_off_c, 10, 81, 127
1, 29244, Note_on_c, 8, 80, 127
1, 29377, Note_off_c, 8, 80, 127
1, 29378, Note_on_c, 1, 61, 127
1, 29378, Note_on_c, 10, 57, 127
1, 29378, Note_on_c, 10, 81, 127
1, 29511, Note_off_c, 10, 81, 127
1, 29512, Note_on_c, 12, 83, 127
1, 29557, Note_off_c, 6, 54, 127
1, 29645, Note_off_c, 12, 83, 127
1, 29645, Note_off_c, 10, 57, 127
1, 29645, Note_off_c, 1, 61, 127
1, 29646, Note_on_c, 4, 52, 127
1, 29646, Note_on_c, 10, 81, 127
1, 29779, Note_off_c, 10, 81, 127
1, 29780, Note_on_c, 8, 80, 127
1, 29913, Note_off_c, 8, 80, 127
1, 29914, Note_on_c, 8, 56, 127
1, 29914, Note_on_c, 1, 61, 127
1, 29914, Note_on_c, 10, 81, 127
1, 30047, Note_off_c, 10, 81, 127
1, 30048, Note_on_c, 12, 83, 127
1, 30093, Note_off_c, 4, 52, 127
1, 30181, Note_off_c, 12, 83, 127
1, 30181, Note_off_c, 1, 61, 127
1, 30181, Note_off_c, 8, 56, 127
1, 30182, Note_on_c, 2, 50, 127
1, 30182, Note_on_c, 10, 81, 127
1, 30315, Note_off_c, 10, 81, 127
1, 30316, Note_on_c, 8, 80, 127
1, 30449, Note_off_c, 8, 80, 127
1, 30450, Note_on_c, 6, 54, 127
1, 30450, Note_on_c, 10, 57, 127
1, 30450, Note_on_c, 10, 81, 127
1, 30583, Note_off_c, 10, 81, 127
1, 30584, Note_on_c, 12, 83, 127
1, 30629, Note_off_c, 2, 50, 127
1, 30717, Note_off_c, 12, 83, 127
1, 30717, Note_off_c, 10, 57, 127
1, 30717, Note_off_c, 6, 54, 127
1, 30718, Note_on_c, 1, 49, 127
1, 30718, Note_on_c, 10, 81, 127
1, 30851, Note_off_c, 10, 81, 127
1, 30852, Note_on_c, 8, 80, 127
1, 30985, Note_off_c, 8, 80, 127
1, 30986, Note_on_c, 4, 52, 127
1, 30986, Note_on_c, 10, 57, 127
1, 30986, Note_on_c, 10, 81, 127
1, 31119, Note_off_c, 10, 81, 127
1, 31120, Note_on_c, 12, 83, 127
1, 31165, Note_off_c, 1, 49, 127
1, 31253, Note_off_c, 12, 83, 127
1, 31253, Note_off_c, 10, 57, 127
1, 31253, Note_off_c, 4, 52, 127
1, 31254, Note_on_c, 2, 50, 127
1, 31254, Note_on_c, 10, 81, 127
1, 31387, Note_off_c, 10, 81, 127
1, 31388, Note_on_c, 8, 80, 127
1, 31521, Note_off_c, 8, 80, 127
1, 31522, Note_on_c, 6, 54, 127
1, 31522, Note_on_c, 10, 57, 127
1, 31522, Note_on_c, 10, 81, 127
1, 31655, Note_off_c, 10, 81, 127
1, 31656, Note_on_c, 12, 83, 127
1, 31701, Note_off_c, 2, 50, 127
1, 31789, Note_off_c, 12, 83, 127
1, 31789, Note_off_c, 10, 57, 127
1, 31789, Note_off_c, 6, 54, 127
1, 31790, Note_on_c, 4, 52, 127
1, 31790, Note_on_c, 8, 80, 127
1, 31923, Note_off_c, 8, 80, 127
1, 31924, Note_on_c, 10, 81, 127
1, 32057, Note_off_c, 10, 81, 127
1, 32058, Note_on_c, 4, 40, 127
1, 32058, Note_on_c, 12, 83, 127
1, 32191, Note_off_c, 12, 83, 127
1, 32192, Note_on_c, 8, 80, 127
1, 32325, Note_off_c, 8, 80, 127
1, 32325, Note_off_c, 4, 40, 127
1, 32325, Note_off_c, 4, 52, 127
1, 32326, Note_on_c, 10, 45, 127
1, 32326, Note_on_c, 10, 81, 127
1, 32392, Note_off_c, 10, 81, 127
1, 32393, Note_on_c, 8, 80, 127
1, 32459, Note_off_c, 8, 80, 127
1, 32459, Note_off_c, 10, 45, 127
1, 32460, Note_on_c, 10, 57, 127
1, 32460, Note_on_c, 10, 81, 127
1, 32593, Note_off_c, 10, 57, 127
1, 32594, Note_on_c, 12, 59, 127
1, 32594, Note_on_c, 10, 69, 127
1, 32727, Note_off_c, 12, 59, 127
1, 32728, Note_on_c, 1, 61, 127
1, 32859, Note_off_c, 10, 69, 127
1, 32860, Note_off_c, 1, 61, 127
1, 32861, Note_on_c, 2, 62, 127
1, 32994, Note_off_c, 10, 81, 127
1, 32995, Note_on_c, 10, 81, 127
1, 33128, Note_off_c, 10, 81, 127
1, 33128, Note_off_c, 2, 62, 127
1, 33129, Note_on_c, 2, 50, 127
1, 33129, Note_on_c, 2, 62, 127
1, 33129, Note_on_c, 7, 79, 127
1, 33262, Note_off_c, 7, 79, 127
1, 33263, Note_on_c, 6, 78, 127
1, 33396, Note_off_c, 6, 78, 127
1, 33396, Note_off_c, 2, 62, 127
1, 33396, Note_off_c, 2, 50, 127
1, 33397, Note_on_c, 10, 57, 127
1, 33397, Note_on_c, 1, 61, 127
1, 33397, Note_on_c, 4, 76, 127
1, 33530, Note_off_c, 4, 76, 127
1, 33531, Note_on_c, 2, 74, 127
1, 33664, Note_off_c, 2, 74, 127
1, 33664, Note_off_c, 1, 61, 127
1, 33664, Note_off_c, 10, 57, 127
1, 33665, Note_on_c, 1, 61, 127
1, 33665, Note_on_c, 10, 57, 127
1, 33665, Note_on_c, 1, 73, 127
1, 33798, Note_off_c, 1, 73, 127
1, 33799, Note_on_c, 4, 76, 127
1, 33932, Note_off_c, 4, 76, 127
1, 33932, Note_off_c, 10, 57, 127
1, 33932, Note_off_c, 1, 61, 127
1, 33933, Note_on_c, 2, 62, 127
1, 33933, Note_on_c, 2, 50, 127
1, 33933, Note_on_c, 6, 78, 127
1, 34066, Note_off_c, 6, 78, 127
1, 34067, Note_on_c, 7, 79, 127
1, 34200, Note_off_c, 7, 79, 127
1, 34200, Note_off_c, 2, 50, 127
1, 34200, Note_off_c, 2, 62, 127
1, 34201, Note_on_c, 2, 62, 127
1, 34201, Note_on_c, 2, 50, 127
1, 34201, Note_on_c, 6, 78, 127
1, 34334, Note_off_c, 6, 78, 127
1, 34335, Note_on_c, 7, 79, 127
1, 34468, Note_off_c, 7, 79, 127
1, 34468, Note_off_c, 2, 50, 127
1, 34468, Note_off_c, 2, 62, 127
1, 34469, Note_on_c, 10, 57, 127
1, 34469, Note_on_c, 1, 61, 127
1, 34469, Note_on_c, 4, 76, 127
1, 34602, Note_off_c, 4, 76, 127
1, 34603, Note_on_c, 2, 74, 127
1, 34736, Note_off_c, 2, 74, 127
1, 34736, Note_off_c, 1, 61, 127
1, 34736, Note_off_c, 10, 57, 127
1, 34737, Note_on_c, 1, 61, 127
1, 34737, Note_on_c, 10, 57, 127
1, 34737, Note_on_c, 1, 73, 127
1, 34870, Note_off_c, 1, 73, 127
1, 34871, Note_on_c, 4, 76, 127
1, 35004, Note_off_c, 4, 76, 127
1, 35004, Note_off_c, 10, 57, 127
1, 35004, Note_off_c, 1, 61, 127
1, 35005, Note_on_c, 2, 62, 127
1, 35005, Note_on_c, 2, 50, 127
1, 35005, Note_on_c, 6, 78, 127
1, 35138, Note_off_c, 6, 78, 127
1, 35139, Note_on_c, 7, 79, 127
1, 35272, Note_off_c, 7, 79, 127
1, 35272, Note_off_c, 2, 50, 127
1, 35272, Note_off_c, 2, 62, 127
1, 35273, Note_on_c, 2, 50, 127
1, 35273, Note_on_c, 2, 62, 127
1, 35273, Note_on_c, 6, 78, 127
1, 35406, Note_off_c, 6, 78, 127
1, 35407, Note_on_c, 7, 79, 127
1, 35540, Note_off_c, 7, 79, 127
1, 35540, Note_off_c, 2, 62, 127
1, 35540, Note_off_c, 2, 50, 127
1, 35541, Note_on_c, 10, 57, 127
1, 35541, Note_on_c, 1, 61, 127
1, 35541, Note_on_c, 4, 76, 127
1, 35674, Note_off_c, 4, 76, 127
1, 35675, Note_on_c, 2, 74, 127
1, 35808, Note_off_c, 2, 74, 127
1, 35808, Note_off_c, 1, 61, 127
1, 35808, Note_off_c, 10, 57, 127
1, 35809, Note_on_c, 10, 57, 127
1, 35809, Note_on_c, 1, 61, 127
1, 35809, Note_on_c, 1, 73, 127
1, 35942, Note_off_c, 1, 73, 127
1, 35943, Note_on_c, 4, 76, 127
1, 36076, Note_off_c, 4, 76, 127
1, 36076, Note_off_c, 1, 61, 127
1, 36076, Note_off_c, 10, 57, 127
1, 36077, Note_on_c, 2, 50, 127
1, 36077, Note_on_c, 2, 62, 127
1, 36077, Note_on_c, 6, 78, 127
1, 36210, Note_off_c, 6, 78, 127
1, 36211, Note_on_c, 7, 79, 127
1, 36344, Note_off_c, 7, 79, 127
1, 36344, Note_off_c, 2, 62, 127
1, 36344, Note_off_c, 2, 50, 127
1, 36345, Note_on_c, 2, 50, 127
1, 36345, Note_on_c, 2, 62, 127
1, 36345, Note_on_c, 6, 78, 127
1, 36478, Note_off_c, 6, 78, 127
1, 36479, Note_on_c, 7, 79, 127
1, 36612, Note_off_c, 7, 79, 127
1, 36612, Note_off_c, 2, 62, 127
1, 36612, Note_off_c, 2, 50, 127
1, 36613, Note_on_c, 10, 57, 127
1, 36613, Note_on_c, 1, 61, 127
1, 36613, Note_on_c, 4, 76, 127
1, 36880, Note_off_c, 4, 76, 127
1, 36880, Note_off_c, 1, 61, 127
1, 36881, Note_on_c, 10, 45, 127
1, 36881, Note_on_c, 10, 69, 127
1, 37014, Note_off_c, 10, 45, 127
1, 37015, Note_on_c, 12, 47, 127
1, 37148, Note_off_c, 12, 47, 127
1, 37149, Note_on_c, 1, 49, 127
1, 37216, Note_off_c, 10, 69, 127
1, 37283, Note_on_c, 4, 76, 127
1, 37416, Note_off_c, 4, 76, 127
1, 37416, Note_off_c, 10, 57, 127
1, 37417, Note_on_c, 10, 45, 127
1, 37417, Note_on_c, 4, 52, 127
1, 37417, Note_on_c, 10, 57, 127
1, 37417, Note_on_c, 6, 78, 127
1, 37550, Note_off_c, 6, 78, 127
1, 37551, Note_on_c, 4, 76, 127
1, 37684, Note_off_c, 4, 76, 127
1, 37684, Note_off_c, 10, 57, 127
1, 37684, Note_off_c, 4, 52, 127
1, 37684, Note_off_c, 10, 45, 127
1, 37684, Note_off_c, 1, 49, 127
1, 37685, Note_on_c, 8, 56, 127
1, 37685, Note_on_c, 4, 52, 127
1, 37685, Note_on_c, 12, 59, 127
1, 37685, Note_on_c, 2, 74, 127
1, 37818, Note_off_c, 2, 74, 127
1, 37819, Note_on_c, 1, 73, 127
1, 37952, Note_off_c, 1, 73, 127
1, 37952, Note_off_c, 12, 59, 127
1, 37952, Note_off_c, 4, 52, 127
1, 37952, Note_off_c, 8, 56, 127
1, 37953, Note_on_c, 12, 59, 127
1, 37953, Note_on_c, 8, 56, 127
1, 37953, Note_on_c, 4, 52, 127
1, 37953, Note_on_c, 12, 71, 127
1, 38086, Note_off_c, 12, 71, 127
1, 38087, Note_on_c, 1, 73, 127
1, 38220, Note_off_c, 1, 73, 127
1, 38220, Note_off_c, 4, 52, 127
1, 38220, Note_off_c, 8, 56, 127
1, 38220, Note_off_c, 12, 59, 127
1, 38221, Note_on_c, 8, 56, 127
1, 38221, Note_on_c, 4, 52, 127
1, 38221, Note_on_c, 12, 59, 127
1, 38221, Note_on_c, 2, 74, 127
1, 38354, Note_off_c, 2, 74, 127
1, 38355, Note_on_c, 4, 76, 127
1, 38488, Note_off_c, 4, 76, 127
1, 38488, Note_off_c, 12, 59, 127
1, 38488, Note_off_c, 4, 52, 127
1, 38488, Note_off_c, 8, 56, 127
1, 38489, Note_on_c, 8, 56, 127
1, 38489, Note_on_c, 4, 52, 127
1, 38489, Note_on_c, 12, 59, 127
1, 38489, Note_on_c, 2, 74, 127
1, 38622, Note_off_c, 2, 74, 127
1, 38623, Note_on_c, 4, 76, 127
1, 38756, Note_off_c, 4, 76, 127
1, 38756, Note_off_c, 12, 59, 127
1, 38756, Note_off_c, 4, 52, 127
1, 38756, Note_off_c, 8, 56, 127
1, 38757, Note_on_c, 12, 59, 127
1, 38757, Note_on_c, 8, 56, 127
1, 38757, Note_on_c, 4, 52, 127
1, 38757, Note_on_c, 2, 74, 127
1, 38890, Note_off_c, 2, 74, 127
1, 38891, Note_on_c, 1, 73, 127
1, 39024, Note_off_c, 1, 73, 127
1, 39024, Note_off_c, 4, 52, 127
1, 39024, Note_off_c, 8, 56, 127
1, 39024, Note_off_c, 12, 59, 127
1, 39025, Note_on_c, 8, 56, 127
1, 39025, Note_on_c, 12, 59, 127
1, 39025, Note_on_c, 4, 52, 127
1, 39025, Note_on_c, 12, 71, 127
1, 39158, Note_off_c, 12, 71, 127
1, 39159, Note_on_c, 1, 73, 127
1, 39292, Note_off_c, 1, 73, 127
1, 39292, Note_off_c, 4, 52, 127
1, 39292, Note_off_c, 12, 59, 127
1, 39292, Note_off_c, 8, 56, 127
1, 39293, Note_on_c, 12, 59, 127
1, 39293, Note_on_c, 8, 56, 127
1, 39293, Note_on_c, 4, 52, 127
1, 39293, Note_on_c, 2, 74, 127
1, 39426, Note_off_c, 2, 74, 127
1, 39427, Note_on_c, 4, 76, 127
1, 39560, Note_off_c, 4, 76, 127
1, 39560, Note_off_c, 4, 52, 127
1, 39560, Note_off_c, 8, 56, 127
1, 39560, Note_off_c, 12, 59, 127
1, 39561, Note_on_c, 12, 59, 127
1, 39561, Note_on_c, 8, 56, 127
1, 39561, Note_on_c, 4, 52, 127
1, 39561, Note_on_c, 2, 74, 127
1, 39694, Note_off_c, 2, 74, 127
1, 39695, Note_on_c, 4, 76, 127
1, 39828, Note_off_c, 4, 76, 127
1, 39828, Note_off_c, 4, 52, 127
1, 39828, Note_off_c, 8, 56, 127
1, 39828, Note_off_c, 12, 59, 127
1, 39829, Note_on_c, 8, 56, 127
1, 39829, Note_on_c, 12, 59, 127
1, 39829, Note_on_c, 4, 52, 127
1, 39829, Note_on_c, 2, 74, 127
1, 39962, Note_off_c, 2, 74, 127
1, 39963, Note_on_c, 1, 73, 127
1, 40096, Note_off_c, 1, 73, 127
1, 40096, Note_off_c, 4, 52, 127
1, 40096, Note_off_c, 12, 59, 127
1, 40096, Note_off_c, 8, 56, 127
1, 40097, Note_on_c, 8, 56, 127
1, 40097, Note_on_c, 12, 59, 127
1, 40097, Note_on_c, 4, 52, 127
1, 40097, Note_on_c, 12, 71, 127
1, 40230, Note_off_c, 12, 71, 127
1, 40231, Note_on_c, 1, 73, 127
1, 40364, Note_off_c, 1, 73, 127
1, 40364, Note_off_c, 4, 52, 127
1, 40364, Note_off_c, 12, 59, 127
1, 40364, Note_off_c, 8, 56, 127
1, 40365, Note_on_c, 8, 56, 127
1, 40365, Note_on_c, 12, 59, 127
1, 40365, Note_on_c, 4, 52, 127
1, 40365, Note_on_c, 2, 74, 127
1, 40498, Note_off_c, 2, 74, 127
1, 40499, Note_on_c, 6, 78, 127
1, 40632, Note_off_c, 6, 78, 127
1, 40632, Note_off_c, 4, 52, 127
1, 40632, Note_off_c, 12, 59, 127
1, 40632, Note_off_c, 8, 56, 127
1, 40633, Note_on_c, 4, 52, 127
1, 40633, Note_on_c, 8, 56, 127
1, 40633, Note_on_c, 12, 59, 127
1, 40633, Note_on_c, 4, 76, 127
1, 40766, Note_off_c, 4, 76, 127
1, 40767, Note_on_c, 2, 74, 127
1, 40900, Note_off_c, 2, 74, 127
1, 40900, Note_off_c, 12, 59, 127
1, 40900, Note_off_c, 8, 56, 127
1, 40900, Note_off_c, 4, 52, 127
1, 40901, Note_on_c, 10, 45, 127
1, 40901, Note_on_c, 10, 57, 127
1, 40901, Note_on_c, 1, 73, 127
1, 41034, Note_off_c, 1, 73, 127
1, 41035, Note_on_c, 2, 74, 127
1, 41168, Note_off_c, 2, 74, 127
1, 41168, Note_off_c, 10, 57, 127
1, 41168, Note_off_c, 10, 45, 127
1, 41169, Note_on_c, 12, 59, 127
1, 41169, Note_on_c, 1, 73, 127
1, 41302, Note_off_c, 1, 73, 127
1, 41303, Note_on_c, 12, 71, 127
1, 41436, Note_off_c, 12, 71, 127
1, 41436, Note_off_c, 12, 59, 127
1, 41437, Note_on_c, 1, 61, 127
1, 41437, Note_on_c, 10, 69, 127
1, 41570, Note_off_c, 10, 69, 127
1, 41571, Note_on_c, 10, 81, 127
1, 41704, Note_off_c, 10, 81, 127
1, 41704, Note_off_c, 1, 61, 127
1, 41705, Note_on_c, 2, 62, 127
1, 41705, Note_on_c, 12, 83, 127
1, 41838, Note_off_c, 12, 83, 127
1, 41839, Note_on_c, 10, 81, 127
1, 41972, Note_off_c, 10, 81, 127
1, 41972, Note_off_c, 2, 62, 127
1, 41973, Note_on_c, 4, 64, 127
1, 41973, Note_on_c, 7, 79, 127
1, 42106, Note_off_c, 7, 79, 127
1, 42106, Note_off_c, 4, 64, 127
1, 42107, Note_on_c, 2, 62, 127
1, 42107, Note_on_c, 6, 78, 127
1, 42240, Note_off_c, 6, 78, 127
1, 42240, Note_off_c, 2, 62, 127
1, 42241, Note_on_c, 1, 61, 127
1, 42241, Note_on_c, 4, 76, 127
1, 42374, Note_off_c, 4, 76, 127
1, 42374, Note_off_c, 1, 61, 127
1, 42375, Note_on_c, 12, 59, 127
1, 42375, Note_on_c, 6, 78, 127
1, 42508, Note_off_c, 6, 78, 127
1, 42508, Note_off_c, 12, 59, 127
1, 42509, Note_on_c, 10, 57, 127
1, 42509, Note_on_c, 7, 79, 127
1, 42642, Note_off_c, 7, 79, 127
1, 42643, Note_on_c, 10, 81, 127
1, 42776, Note_off_c, 10, 81, 127
1, 42776, Note_off_c, 10, 57, 127
1, 42777, Note_on_c, 1, 61, 127
1, 42777, Note_on_c, 7, 79, 127
1, 42910, Note_off_c, 7, 79, 127
1, 42911, Note_on_c, 10, 81, 127
1, 43044, Note_off_c, 10, 81, 127
1, 43044, Note_off_c, 1, 61, 127
1, 43045, Note_on_c, 4, 64, 127
1, 43045, Note_on_c, 7, 79, 127
1, 43178, Note_off_c, 7, 79, 127
1, 43178, Note_off_c, 4, 64, 127
1, 43179, Note_on_c, 2, 62, 127
1, 43179, Note_on_c, 6, 78, 127
1, 43312, Note_off_c, 6, 78, 127
1, 43312, Note_off_c, 2, 62, 127
1, 43313, Note_on_c, 1, 61, 127
1, 43313, Note_on_c, 4, 76, 127
1, 43446, Note_off_c, 4, 76, 127
1, 43446, Note_off_c, 1, 61, 127
1, 43447, Note_on_c, 12, 59, 127
1, 43447, Note_on_c, 6, 78, 127
1, 43580, Note_off_c, 6, 78, 127
1, 43580, Note_off_c, 12, 59, 127
1, 43581, Note_on_c, 10, 57, 127
1, 43581, Note_on_c, 7, 79, 127
1, 43714, Note_off_c, 7, 79, 127
1, 43715, Note_on_c, 12, 83, 127
1, 43848, Note_off_c, 12, 83, 127
1, 43848, Note_off_c, 10, 57, 127
1, 43849, Note_on_c, 1, 61, 127
1, 43849, Note_on_c, 10, 81, 127
1, 43982, Note_off_c, 10, 81, 127
1, 43983, Note_on_c, 7, 79, 127
1, 44116, Note_off_c, 7, 79, 127
1, 44116, Note_off_c, 1, 61, 127
1, 44117, Note_on_c, 2, 62, 127
1, 44117, Note_on_c, 6, 78, 127
1, 44250, Note_off_c, 6, 78, 127
1, 44251, Note_on_c, 4, 76, 127
1, 44384, Note_off_c, 4, 76, 127
1, 44384, Note_off_c, 2, 62, 127
1, 44385, Note_on_c, 10, 57, 127
1, 44385, Note_on_c, 2, 74, 127
1, 44518, Note_off_c, 2, 74, 127
1, 44519, Note_on_c, 4, 76, 127
1, 44652, Note_off_c, 4, 76, 127
1, 44652, Note_off_c, 10, 57, 127
1, 44653, Note_on_c, 2, 50, 127
1, 44653, Note_on_c, 6, 78, 127
1, 44786, Note_off_c, 6, 78, 127
1, 44787, Note_on_c, 7, 79, 127
1, 44920, Note_off_c, 7, 79, 127
1, 44920, Note_off_c, 2, 50, 127
1, 44921, Note_on_c, 10, 57, 127
1, 44921, Note_on_c, 6, 78, 127
1, 45054, Note_off_c, 6, 78, 127
1, 45055, Note_on_c, 7, 79, 127
1, 45188, Note_off_c, 7, 79, 127
1, 45188, Note_off_c, 10, 57, 127
1, 45189, Note_on_c, 2, 62, 127
1, 45189, Note_on_c, 6, 78, 127
1, 45322, Note_off_c, 6, 78, 127
1, 45322, Note_off_c, 2, 62, 127
1, 45323, Note_on_c, 1, 61, 127
1, 45323, Note_on_c, 4, 76, 127
1, 45456, Note_off_c, 4, 76, 127
1, 45456, Note_off_c, 1, 61, 127
1, 45457, Note_on_c, 12, 59, 127
1, 45457, Note_on_c, 2, 74, 127
1, 45590, Note_off_c, 2, 74, 127
1, 45590, Note_off_c, 12, 59, 127
1, 45591, Note_on_c, 10, 57, 127
1, 45591, Note_on_c, 4, 76, 127
1, 45724, Note_off_c, 4, 76, 127
1, 45724, Note_off_c, 10, 57, 127
1, 45725, Note_on_c, 8, 56, 127
1, 45725, Note_on_c, 6, 78, 127
1, 45858, Note_off_c, 6, 78, 127
1, 45859, Note_on_c, 10, 81, 127
1, 45992, Note_off_c, 10, 81, 127
1, 45992, Note_off_c, 8, 56, 127
1, 45993, Note_on_c, 12, 59, 127
1, 45993, Note_on_c, 8, 80, 127
1, 46126, Note_off_c, 8, 80, 127
1, 46127, Note_on_c, 6, 78, 127
1, 46260, Note_off_c, 6, 78, 127
1, 46260, Note_off_c, 12, 59, 127
1, 46261, Note_on_c, 1, 61, 127
1, 46261, Note_on_c, 4, 76, 127
1, 46394, Note_off_c, 4, 76, 127
1, 46395, Note_on_c, 2, 74, 127
1, 46528, Note_off_c, 2, 74, 127
1, 46528, Note_off_c, 1, 61, 127
1, 46529, Note_on_c, 8, 56, 127
1, 46529, Note_on_c, 1, 73, 127
1, 46662, Note_off_c, 1, 73, 127
1, 46663, Note_on_c, 2, 74, 127
1, 46796, Note_off_c, 2, 74, 127
1, 46796, Note_off_c, 8, 56, 127
1, 46797, Note_on_c, 1, 49, 127
1, 46797, Note_on_c, 4, 76, 127
1, 46930, Note_off_c, 4, 76, 127
1, 46931, Note_on_c, 6, 78, 127
1, 47064, Note_off_c, 6, 78, 127
1, 47064, Note_off_c, 1, 49, 127
1, 47065, Note_on_c, 8, 56, 127
1, 47065, Note_on_c, 4, 76, 127
1, 47198, Note_off_c, 4, 76, 127
1, 47199, Note_on_c, 6, 78, 127
1, 47332, Note_off_c, 6, 78, 127
1, 47332, Note_off_c, 8, 56, 127
1, 47333, Note_on_c, 1, 61, 127
1, 47333, Note_on_c, 4, 76, 127
1, 47466, Note_off_c, 4, 76, 127
1, 47466, Note_off_c, 1, 61, 127
1, 47467, Note_on_c, 12, 59, 127
1, 47467, Note_on_c, 2, 74, 127
1, 47600, Note_off_c, 2, 74, 127
1, 47600, Note_off_c, 12, 59, 127
1, 47601, Note_on_c, 11, 58, 127
1, 47601, Note_on_c, 1, 73, 127
1, 47734, Note_off_c, 1, 73, 127
1, 47734, Note_off_c, 11, 58, 127
1, 47735, Note_on_c, 8, 56, 127
1, 47735, Note_on_c, 2, 74, 127
1, 47868, Note_off_c, 2, 74, 127
1, 47868, Note_off_c, 8, 56, 127
1, 47869, Note_on_c, 6, 54, 127
1, 47869, Note_on_c, 4, 76, 127
1, 48002, Note_off_c, 4, 76, 127
1, 48003, Note_on_c, 7, 79, 127
1, 48136, Note_off_c, 7, 79, 127
1, 48136, Note_off_c, 6, 54, 127
1, 48137, Note_on_c, 11, 58, 127
1, 48137, Note_on_c, 6, 78, 127
1, 48270, Note_off_c, 6, 78, 127
1, 48271, Note_on_c, 4, 76, 127
1, 48404, Note_off_c, 4, 76, 127
1, 48404, Note_off_c, 11, 58, 127
1, 48405, Note_on_c, 12, 59, 127
1, 48405, Note_on_c, 2, 74, 127
1, 48538, Note_off_c, 2, 74, 127
1, 48539, Note_on_c, 6, 78, 127
1, 48672, Note_off_c, 6, 78, 127
1, 48673, Note_on_c, 12, 47, 127
1, 48673, Note_on_c, 4, 76, 127
1, 48796, Note_off_c, 12, 59, 127
1, 48806, Note_off_c, 4, 76, 127
1, 48807, Note_on_c, 6, 78, 127
1, 48940, Note_off_c, 6, 78, 127
1, 48940, Note_off_c, 12, 47, 127
1, 48941, Note_on_c, 11, 46, 127
1, 48941, Note_on_c, 1, 73, 127
1, 49074, Note_off_c, 1, 73, 127
1, 49075, Note_on_c, 6, 78, 127
1, 49208, Note_off_c, 6, 78, 127
1, 49208, Note_off_c, 11, 46, 127
1, 49209, Note_on_c, 11, 58, 127
1, 49209, Note_on_c, 4, 76, 127
1, 49342, Note_off_c, 4, 76, 127
1, 49343, Note_on_c, 6, 78, 127
1, 49476, Note_off_c, 6, 78, 127
1, 49476, Note_off_c, 11, 58, 127
1, 49477, Note_on_c, 12, 59, 127
1, 49477, Note_on_c, 2, 74, 127
1, 49610, Note_off_c, 2, 74, 127
1, 49611, Note_on_c, 6, 78, 127
1, 49744, Note_off_c, 6, 78, 127
1, 49745, Note_on_c, 12, 47, 127
1, 49745, Note_on_c, 4, 76, 127
1, 49868, Note_off_c, 12, 59, 127
1, 49878, Note_off_c, 4, 76, 127
1, 49879, Note_on_c, 6, 78, 127
1, 50012, Note_off_c, 6, 78, 127
1, 50012, Note_off_c, 12, 47, 127
1, 50013, Note_on_c, 11, 46, 127
1, 50013, Note_on_c, 1, 73, 127
1, 50146, Note_off_c, 1, 73, 127
1, 50147, Note_on_c, 6, 78, 127
1, 50280, Note_off_c, 6, 78, 127
1, 50280, Note_off_c, 11, 46, 127
1, 50281, Note_on_c, 11, 58, 127
1, 50281, Note_on_c, 4, 76, 127
1, 50414, Note_off_c, 4, 76, 127
1, 50415, Note_on_c, 6, 78, 127
1, 50548, Note_off_c, 6, 78, 127
1, 50548, Note_off_c, 11, 58, 127
1, 50549, Note_on_c, 12, 59, 127
1, 50549, Note_on_c, 2, 74, 127
1, 50816, Note_off_c, 2, 74, 127
1, 50817, Note_on_c, 12, 47, 127
1, 50817, Note_on_c, 12, 71, 127
1, 50950, Note_off_c, 12, 47, 127
1, 50951, Note_on_c, 1, 49, 127
1, 51084, Note_off_c, 1, 49, 127
1, 51084, Note_off_c, 12, 71, 127
1, 51085, Note_on_c, 2, 50, 127
1, 51085, Note_on_c, 6, 78, 127
1, 51352, Note_off_c, 6, 78, 127
1, 51352, Note_off_c, 2, 50, 127
1, 51352, Note_off_c, 12, 59, 127
1, 51353, Note_on_c, 12, 47, 127
1, 51353, Note_on_c, 12, 59, 127
1, 51353, Note_on_c, 6, 78, 127
1, 51353, Note_on_c, 2, 74, 127
1, 51620, Note_off_c, 2, 74, 127
1, 51620, Note_off_c, 6, 78, 127
1, 51620, Note_off_c, 12, 59, 127
1, 51620, Note_off_c, 12, 47, 127
1, 51621, Note_on_c, 1, 49, 127
1, 51621, Note_on_c, 7, 55, 127
1, 51621, Note_on_c, 6, 78, 127
1, 51621, Note_on_c, 2, 74, 127
1, 51888, Note_off_c, 6, 78, 127
1, 51888, Note_off_c, 1, 49, 127
1, 51889, Note_on_c, 12, 47, 127
1, 51889, Note_on_c, 7, 79, 127
1, 52022, Note_off_c, 7, 79, 127
1, 52023, Note_on_c, 6, 78, 127
1, 52151, Note_off_c, 2, 74, 127
1, 52155, Note_off_c, 6, 78, 127
1, 52155, Note_off_c, 12, 47, 127
1, 52156, Note_on_c, 1, 49, 127
1, 52156, Note_on_c, 4, 76, 127
1, 52423, Note_off_c, 4, 76, 127
1, 52423, Note_off_c, 1, 49, 127
1, 52423, Note_off_c, 7, 55, 127
1, 52424, Note_on_c, 7, 55, 127
1, 52424, Note_on_c, 11, 46, 127
1, 52424, Note_on_c, 4, 76, 127
1, 52424, Note_on_c, 1, 73, 127
1, 52691, Note_off_c, 1, 73, 127
1, 52691, Note_off_c, 4, 76, 127
1, 52691, Note_off_c, 11, 46, 127
1, 52691, Note_off_c, 7, 55, 127
1, 52692, Note_on_c, 12, 47, 127
1, 52692, Note_on_c, 6, 54, 127
1, 52692, Note_on_c, 4, 76, 127
1, 52692, Note_on_c, 1, 73, 127
1, 52959, Note_off_c, 4, 76, 127
1, 52959, Note_off_c, 12, 47, 127
1, 52960, Note_on_c, 1, 49, 127
1, 52960, Note_on_c, 6, 78, 127
1, 53093, Note_off_c, 6, 78, 127
1, 53094, Note_on_c, 4, 76, 127
1, 53222, Note_off_c, 1, 73, 127
1, 53226, Note_off_c, 4, 76, 127
1, 53226, Note_off_c, 1, 49, 127
1, 53227, Note_on_c, 2, 50, 127
1, 53227, Note_on_c, 2, 74, 127
1, 53494, Note_off_c, 2, 74, 127
1, 53494, Note_off_c, 2, 50, 127
1, 53494, Note_off_c, 6, 54, 127
1, 53495, Note_on_c, 6, 54, 127
1, 53495, Note_on_c, 12, 47, 127
1, 53495, Note_on_c, 12, 71, 127
1, 53495, Note_on_c, 2, 74, 127
1, 53762, Note_off_c, 2, 74, 127
1, 53762, Note_off_c, 12, 71, 127
1, 53762, Note_off_c, 12, 47, 127
1, 53762, Note_off_c, 6, 54, 127
1, 53763, Note_on_c, 4, 52, 127
1, 53763, Note_on_c, 7, 55, 127
1, 53763, Note_on_c, 12, 71, 127
1, 53763, Note_on_c, 2, 74, 127
1, 53896, Note_off_c, 2, 74, 127
1, 53897, Note_on_c, 6, 78, 127
1, 54030, Note_off_c, 6, 78, 127
1, 54030, Note_off_c, 7, 55, 127
1, 54030, Note_off_c, 4, 52, 127
1, 54031, Note_on_c, 1, 49, 127
1, 54031, Note_on_c, 4, 52, 127
1, 54031, Note_on_c, 4, 76, 127
1, 54164, Note_off_c, 4, 76, 127
1, 54165, Note_on_c, 2, 74, 127
1, 54298, Note_off_c, 2, 74, 127
1, 54298, Note_off_c, 4, 52, 127
1, 54298, Note_off_c, 1, 49, 127
1, 54298, Note_off_c, 12, 71, 127
1, 54299, Note_on_c, 6, 54, 127
1, 54299, Note_on_c, 11, 70, 127
1, 54299, Note_on_c, 2, 74, 127
1, 54387, Note_off_c, 2, 74, 127
1, 54388, Note_on_c, 1, 73, 127
1, 54431, Note_off_c, 1, 73, 127
1, 54432, Note_on_c, 2, 74, 127
1, 54475, Note_off_c, 2, 74, 127
1, 54476, Note_on_c, 1, 73, 127
1, 54519, Note_off_c, 1, 73, 127
1, 54520, Note_on_c, 2, 74, 127
1, 54563, Note_off_c, 2, 74, 127
1, 54564, Note_on_c, 6, 42, 127
1, 54564, Note_on_c, 1, 73, 127
1, 54697, Note_off_c, 1, 73, 127
1, 54698, Note_off_c, 11, 70, 127
1, 54698, Note_on_c, 12, 71, 127
1, 54826, Note_off_c, 6, 54, 127
1, 54830, Note_off_c, 12, 71, 127
1, 54830, Note_off_c, 6, 42, 127
1, 54831, Note_on_c, 12, 47, 127
1, 54831, Note_on_c, 12, 71, 127
1, 54964, Note_off_c, 12, 47, 127
1, 54965, Note_on_c, 6, 54, 127
1, 55098, Note_off_c, 6, 54, 127
1, 55099, Note_on_c, 8, 56, 127
1, 55232, Note_off_c, 8, 56, 127
1, 55233, Note_on_c, 11, 58, 127
1, 55366, Note_off_c, 11, 58, 127
1, 55366, Note_off_c, 12, 71, 127
1, 55367, Note_on_c, 12, 59, 127
1, 55367, Note_on_c, 6, 78, 127
1, 55367, Note_on_c, 2, 74, 127
1, 55500, Note_off_c, 12, 59, 127
1, 55501, Note_on_c, 2, 62, 127
1, 55634, Note_off_c, 2, 62, 127
1, 55634, Note_off_c, 2, 74, 127
1, 55634, Note_off_c, 6, 78, 127
1, 55635, Note_on_c, 4, 64, 127
1, 55635, Note_on_c, 1, 73, 127
1, 55635, Note_on_c, 6, 78, 127
1, 55768, Note_off_c, 4, 64, 127
1, 55769, Note_on_c, 6, 66, 127
1, 55902, Note_off_c, 6, 66, 127
1, 55902, Note_off_c, 6, 78, 127
1, 55902, Note_off_c, 1, 73, 127
1, 55903, Note_on_c, 7, 67, 127
1, 55903, Note_on_c, 6, 78, 127
1, 55903, Note_on_c, 12, 71, 127
1, 56036, Note_off_c, 6, 78, 127
1, 56037, Note_on_c, 10, 81, 127
1, 56168, Note_off_c, 12, 71, 127
1, 56169, Note_off_c, 10, 81, 127
1, 56169, Note_off_c, 7, 67, 127
1, 56170, Note_on_c, 7, 55, 127
1, 56170, Note_on_c, 7, 79, 127
1, 56303, Note_off_c, 7, 79, 127
1, 56304, Note_on_c, 6, 78, 127
1, 56437, Note_off_c, 6, 78, 127
1, 56438, Note_on_c, 4, 76, 127
1, 56438, Note_on_c, 1, 73, 127
1, 56571, Note_off_c, 7, 55, 127
1, 56572, Note_on_c, 1, 61, 127
1, 56705, Note_off_c, 1, 61, 127
1, 56705, Note_off_c, 1, 73, 127
1, 56705, Note_off_c, 4, 76, 127
1, 56706, Note_on_c, 2, 62, 127
1, 56706, Note_on_c, 4, 76, 127
1, 56706, Note_on_c, 12, 71, 127
1, 56839, Note_off_c, 2, 62, 127
1, 56840, Note_on_c, 4, 64, 127
1, 56973, Note_off_c, 4, 64, 127
1, 56973, Note_off_c, 12, 71, 127
1, 56973, Note_off_c, 4, 76, 127
1, 56974, Note_on_c, 6, 66, 127
1, 56974, Note_on_c, 4, 76, 127
1, 56974, Note_on_c, 11, 70, 127
1, 57107, Note_off_c, 4, 76, 127
1, 57108, Note_on_c, 7, 79, 127
1, 57239, Note_off_c, 11, 70, 127
1, 57240, Note_off_c, 7, 79, 127
1, 57240, Note_off_c, 6, 66, 127
1, 57241, Note_on_c, 6, 54, 127
1, 57241, Note_on_c, 6, 78, 127
1, 57374, Note_off_c, 6, 78, 127
1, 57375, Note_on_c, 4, 76, 127
1, 57508, Note_off_c, 4, 76, 127
1, 57509, Note_on_c, 2, 74, 127
1, 57509, Note_on_c, 12, 71, 127
1, 57642, Note_off_c, 6, 54, 127
1, 57643, Note_on_c, 12, 59, 127
1, 57776, Note_off_c, 12, 59, 127
1, 57776, Note_off_c, 12, 71, 127
1, 57776, Note_off_c, 2, 74, 127
1, 57777, Note_on_c, 1, 61, 127
1, 57777, Note_on_c, 12, 83, 127
1, 57910, Note_off_c, 12, 83, 127
1, 57910, Note_off_c, 1, 61, 127
1, 57911, Note_on_c, 2, 62, 127
1, 57911, Note_on_c, 10, 81, 127
1, 58044, Note_off_c, 10, 81, 127
1, 58044, Note_off_c, 2, 62, 127
1, 58045, Note_on_c, 4, 64, 127
1, 58045, Note_on_c, 7, 79, 127
1, 58178, Note_off_c, 7, 79, 127
1, 58179, Note_on_c, 6, 78, 127
1, 58312, Note_off_c, 6, 78, 127
1, 58312, Note_off_c, 4, 64, 127
1, 58313, Note_on_c, 1, 61, 127
1, 58313, Note_on_c, 4, 76, 127
1, 58446, Note_off_c, 4, 76, 127
1, 58447, Note_on_c, 2, 74, 127
1, 58580, Note_off_c, 2, 74, 127
1, 58580, Note_off_c, 1, 61, 127
1, 58581, Note_on_c, 6, 66, 127
1, 58581, Note_on_c, 2, 74, 127
1, 58581, Note_on_c, 11, 70, 127
1, 58635, Note_off_c, 2, 74, 127
1, 58636, Note_on_c, 1, 73, 127
1, 58690, Note_off_c, 1, 73, 127
1, 58691, Note_on_c, 2, 74, 127
1, 58745, Note_off_c, 2, 74, 127
1, 58746, Note_on_c, 1, 73, 127
1, 58845, Note_off_c, 6, 66, 127
1, 58846, Note_on_c, 6, 54, 127
1, 58958, Note_off_c, 1, 73, 127
1, 58980, Note_off_c, 11, 70, 127
1, 58980, Note_on_c, 12, 71, 127
1, 59113, Note_off_c, 12, 71, 127
1, 59113, Note_off_c, 6, 54, 127
1, 59114, Note_on_c, 12, 59, 127
1, 59114, Note_on_c, 12, 71, 127
1, 59247, Note_off_c, 12, 71, 127
1, 59248, Note_on_c, 6, 78, 127
1, 59381, Note_off_c, 6, 78, 127
1, 59382, Note_on_c, 12, 47, 127
1, 59382, Note_on_c, 4, 76, 127
1, 59515, Note_off_c, 4, 76, 127
1, 59516, Note_on_c, 6, 78, 127
1, 59644, Note_off_c, 12, 59, 127
1, 59648, Note_off_c, 6, 78, 127
1, 59649, Note_on_c, 2, 74, 127
1, 59782, Note_off_c, 2, 74, 127
1, 59783, Note_off_c, 12, 47, 127
1, 59783, Note_on_c, 4, 76, 127
1, 59916, Note_off_c, 4, 76, 127
1, 59917, Note_on_c, 1, 73, 127
1, 60050, Note_off_c, 1, 73, 127
1, 60051, Note_on_c, 2, 74, 127
1, 60184, Note_off_c, 2, 74, 127
1, 60185, Note_on_c, 12, 47, 127
1, 60185, Note_on_c, 12, 71, 127
1, 60318, Note_off_c, 12, 71, 127
1, 60318, Note_off_c, 12, 47, 127
1, 60319, Note_on_c, 2, 50, 127
1, 60319, Note_on_c, 12, 71, 127
1, 60452, Note_off_c, 12, 71, 127
1, 60452, Note_off_c, 2, 50, 127
1, 60453, Note_on_c, 6, 54, 127
1, 60453, Note_on_c, 1, 73, 127
1, 60586, Note_off_c, 1, 73, 127
1, 60586, Note_off_c, 6, 54, 127
1, 60587, Note_on_c, 12, 59, 127
1, 60587, Note_on_c, 2, 74, 127
1, 60720, Note_off_c, 2, 74, 127
1, 60720, Note_off_c, 12, 59, 127
1, 60721, Note_on_c, 10, 45, 127
1, 60721, Note_on_c, 12, 71, 127
1, 60854, Note_off_c, 12, 71, 127
1, 60854, Note_off_c, 10, 45, 127
1, 60855, Note_on_c, 3, 51, 127
1, 60855, Note_on_c, 12, 71, 127
1, 60988, Note_off_c, 12, 71, 127
1, 60988, Note_off_c, 3, 51, 127
1, 60989, Note_on_c, 6, 54, 127
1, 60989, Note_on_c, 1, 73, 127
1, 61122, Note_off_c, 1, 73, 127
1, 61122, Note_off_c, 6, 54, 127
1, 61123, Note_on_c, 12, 59, 127
1, 61123, Note_on_c, 3, 75, 127
1, 61256, Note_off_c, 3, 75, 127
1, 61256, Note_off_c, 12, 59, 127
1, 61257, Note_on_c, 7, 43, 127
1, 61257, Note_on_c, 4, 76, 127
1, 61390, Note_off_c, 4, 76, 127
1, 61390, Note_off_c, 7, 43, 127
1, 61391, Note_on_c, 4, 52, 127
1, 61391, Note_on_c, 7, 79, 127
1, 61524, Note_off_c, 7, 79, 127
1, 61524, Note_off_c, 4, 52, 127
1, 61525, Note_on_c, 2, 50, 127
1, 61525, Note_on_c, 6, 78, 127
1, 61658, Note_off_c, 6, 78, 127
1, 61658, Note_off_c, 2, 50, 127
1, 61659, Note_on_c, 4, 52, 127
1, 61659, Note_on_c, 7, 79, 127
1, 61792, Note_off_c, 7, 79, 127
1, 61792, Note_off_c, 4, 52, 127
1, 61793, Note_on_c, 1, 49, 127
1, 61793, Note_on_c, 4, 76, 127
1, 61926, Note_off_c, 4, 76, 127
1, 61926, Note_off_c, 1, 49, 127
1, 61927, Note_on_c, 2, 50, 127
1, 61927, Note_on_c, 6, 78, 127
1, 62060, Note_off_c, 6, 78, 127
1, 62060, Note_off_c, 2, 50, 127
1, 62061, Note_on_c, 12, 47, 127
1, 62061, Note_on_c, 2, 74, 127
1, 62194, Note_off_c, 2, 74, 127
1, 62194, Note_off_c, 12, 47, 127
1, 62195, Note_on_c, 1, 49, 127
1, 62195, Note_on_c, 4, 76, 127
1, 62328, Note_off_c, 4, 76, 127
1, 62328, Note_off_c, 1, 49, 127
1, 62329, Note_on_c, 10, 45, 127
1, 62329, Note_on_c, 1, 73, 127
1, 62462, Note_off_c, 1, 73, 127
1, 62462, Note_off_c, 10, 45, 127
1, 62463, Note_on_c, 1, 49, 127
1, 62463, Note_on_c, 1, 73, 127
1, 62596, Note_off_c, 1, 73, 127
1, 62596, Note_off_c, 1, 49, 127
1, 62597, Note_on_c, 4, 52, 127
1, 62597, Note_on_c, 2, 74, 127
1, 62730, Note_off_c, 2, 74, 127
1, 62730, Note_off_c, 4, 52, 127
1, 62731, Note_on_c, 10, 57, 127
1, 62731, Note_on_c, 4, 76, 127
1, 62864, Note_off_c, 4, 76, 127
1, 62864, Note_off_c, 10, 57, 127
1, 62865, Note_on_c, 10, 45, 127
1, 62865, Note_on_c, 1, 73, 127
1, 62998, Note_off_c, 1, 73, 127
1, 62998, Note_off_c, 10, 45, 127
1, 62999, Note_on_c, 1, 49, 127
1, 62999, Note_on_c, 1, 73, 127
1, 63132, Note_off_c, 1, 73, 127
1, 63132, Note_off_c, 1, 49, 127
1, 63133, Note_on_c, 4, 52, 127
1, 63133, Note_on_c, 2, 74, 127
1, 63266, Note_off_c, 2, 74, 127
1, 63266, Note_off_c, 4, 52, 127
1, 63267, Note_on_c, 7, 55, 127
1, 63267, Note_on_c, 4, 76, 127
1, 63400, Note_off_c, 4, 76, 127
1, 63400, Note_off_c, 7, 55, 127
1, 63401, Note_on_c, 2, 50, 127
1, 63401, Note_on_c, 6, 78, 127
1, 63534, Note_off_c, 6, 78, 127
1, 63534, Note_off_c, 2, 50, 127
1, 63535, Note_on_c, 6, 54, 127
1, 63535, Note_on_c, 10, 81, 127
1, 63668, Note_off_c, 10, 81, 127
1, 63668, Note_off_c, 6, 54, 127
1, 63669, Note_on_c, 4, 52, 127
1, 63669, Note_on_c, 7, 79, 127
1, 63802, Note_off_c, 7, 79, 127
1, 63802, Note_off_c, 4, 52, 127
1, 63803, Note_on_c, 6, 54, 127
1, 63803, Note_on_c, 10, 81, 127
1, 63936, Note_off_c, 10, 81, 127
1, 63936, Note_off_c, 6, 54, 127
1, 63937, Note_on_c, 2, 50, 127
1, 63937, Note_on_c, 6, 78, 127
1, 64070, Note_off_c, 6, 78, 127
1, 64070, Note_off_c, 2, 50, 127
1, 64071, Note_on_c, 4, 52, 127
1, 64071, Note_on_c, 7, 79, 127
1, 64204, Note_off_c, 7, 79, 127
1, 64204, Note_off_c, 4, 52, 127
1, 64205, Note_on_c, 1, 49, 127
1, 64205, Note_on_c, 4, 76, 127
1, 64338, Note_off_c, 4, 76, 127
1, 64338, Note_off_c, 1, 49, 127
1, 64339, Note_on_c, 2, 50, 127
1, 64339, Note_on_c, 6, 78, 127
1, 64472, Note_off_c, 6, 78, 127
1, 64472, Note_off_c, 2, 50, 127
1, 64473, Note_on_c, 12, 47, 127
1, 64473, Note_on_c, 2, 74, 127
1, 64606, Note_off_c, 2, 74, 127
1, 64606, Note_off_c, 12, 47, 127
1, 64607, Note_on_c, 2, 50, 127
1, 64607, Note_on_c, 2, 74, 127
1, 64740, Note_off_c, 2, 74, 127
1, 64740, Note_off_c, 2, 50, 127
1, 64741, Note_on_c, 6, 54, 127
1, 64741, Note_on_c, 4, 76, 127
1, 64874, Note_off_c, 4, 76, 127
1, 64874, Note_off_c, 6, 54, 127
1, 64875, Note_on_c, 12, 59, 127
1, 64875, Note_on_c, 6, 78, 127
1, 65008, Note_off_c, 6, 78, 127
1, 65008, Note_off_c, 12, 59, 127
1, 65009, Note_on_c, 12, 47, 127
1, 65009, Note_on_c, 2, 74, 127
1, 65142, Note_off_c, 2, 74, 127
1, 65142, Note_off_c, 12, 47, 127
1, 65143, Note_on_c, 2, 50, 127
1, 65143, Note_on_c, 2, 74, 127
1, 65276, Note_off_c, 2, 74, 127
1, 65276, Note_off_c, 2, 50, 127
1, 65277, Note_on_c, 6, 54, 127
1, 65277, Note_on_c, 4, 76, 127
1, 65410, Note_off_c, 4, 76, 127
1, 65410, Note_off_c, 6, 54, 127
1, 65411, Note_on_c, 10, 57, 127
1, 65411, Note_on_c, 6, 78, 127
1, 65544, Note_off_c, 6, 78, 127
1, 65544, Note_off_c, 10, 57, 127
1, 65545, Note_on_c, 4, 52, 127
1, 65545, Note_on_c, 7, 79, 127
1, 65678, Note_off_c, 7, 79, 127
1, 65678, Note_off_c, 4, 52, 127
1, 65679, Note_on_c, 6, 54, 127
1, 65679, Note_on_c, 10, 81, 127
1, 65812, Note_off_c, 10, 81, 127
1, 65812, Note_off_c, 6, 54, 127
1, 65813, Note_on_c, 7, 55, 127
1, 65813, Note_on_c, 12, 83, 127
1, 65946, Note_off_c, 12, 83, 127
1, 65946, Note_off_c, 7, 55, 127
1, 65947, Note_on_c, 6, 54, 127
1, 65947, Note_on_c, 10, 81, 127
1, 66080, Note_off_c, 10, 81, 127
1, 66080, Note_off_c, 6, 54, 127
1, 66081, Note_on_c, 4, 52, 127
1, 66081, Note_on_c, 7, 79, 127
1, 66214, Note_off_c, 7, 79, 127
1, 66214, Note_off_c, 4, 52, 127
1, 66215, Note_on_c, 6, 54, 127
1, 66215, Note_on_c, 10, 81, 127
1, 66348, Note_off_c, 10, 81, 127
1, 66348, Note_off_c, 6, 54, 127
1, 66349, Note_on_c, 2, 50, 127
1, 66349, Note_on_c, 6, 78, 127
1, 66482, Note_off_c, 6, 78, 127
1, 66482, Note_off_c, 2, 50, 127
1, 66483, Note_on_c, 4, 52, 127
1, 66483, Note_on_c, 7, 79, 127
1, 66616, Note_off_c, 7, 79, 127
1, 66616, Note_off_c, 4, 52, 127
1, 66617, Note_on_c, 1, 49, 127
1, 66617, Note_on_c, 4, 76, 127
1, 66750, Note_off_c, 4, 76, 127
1, 66750, Note_off_c, 1, 49, 127
1, 66751, Note_on_c, 2, 50, 127
1, 66751, Note_on_c, 6, 78, 127
1, 66884, Note_off_c, 6, 78, 127
1, 66884, Note_off_c, 2, 50, 127
1, 66885, Note_on_c, 4, 52, 127
1, 66885, Note_on_c, 7, 79, 127
1, 67018, Note_off_c, 7, 79, 127
1, 67018, Note_off_c, 4, 52, 127
1, 67019, Note_on_c, 2, 50, 127
1, 67019, Note_on_c, 6, 78, 127
1, 67152, Note_off_c, 6, 78, 127
1, 67152, Note_off_c, 2, 50, 127
1, 67153, Note_on_c, 1, 49, 127
1, 67153, Note_on_c, 4, 76, 127
1, 67286, Note_off_c, 4, 76, 127
1, 67286, Note_off_c, 1, 49, 127
1, 67287, Note_on_c, 2, 50, 127
1, 67287, Note_on_c, 6, 78, 127
1, 67420, Note_off_c, 6, 78, 127
1, 67420, Note_off_c, 2, 50, 127
1, 67421, Note_on_c, 12, 47, 127
1, 67421, Note_on_c, 2, 74, 127
1, 67554, Note_off_c, 2, 74, 127
1, 67554, Note_off_c, 12, 47, 127
1, 67555, Note_on_c, 1, 49, 127
1, 67555, Note_on_c, 4, 76, 127
1, 67688, Note_off_c, 4, 76, 127
1, 67688, Note_off_c, 1, 49, 127
1, 67689, Note_on_c, 10, 45, 127
1, 67689, Note_on_c, 1, 73, 127
1, 67822, Note_off_c, 1, 73, 127
1, 67823, Note_on_c, 2, 74, 127
1, 67956, Note_off_c, 2, 74, 127
1, 67957, Note_on_c, 4, 76, 127
1, 68090, Note_off_c, 4, 76, 127
1, 68091, Note_on_c, 2, 74, 127
1, 68224, Note_off_c, 2, 74, 127
1, 68225, Note_on_c, 1, 73, 127
1, 68358, Note_off_c, 1, 73, 127
1, 68359, Note_on_c, 2, 74, 127
1, 68492, Note_off_c, 2, 74, 127
1, 68493, Note_on_c, 12, 71, 127
1, 68626, Note_off_c, 12, 71, 127
1, 68627, Note_on_c, 1, 73, 127
1, 68760, Note_off_c, 1, 73, 127
1, 68760, Note_off_c, 10, 45, 127
1, 68761, Note_on_c, 10, 69, 127
1, 68895, Note_on_c, 10, 57, 127
1, 69028, Note_off_c, 10, 57, 127
1, 69029, Note_on_c, 12, 59, 127
1, 69162, Note_off_c, 12, 59, 127
1, 69163, Note_on_c, 1, 61, 127
1, 69291, Note_off_c, 10, 69, 127
1, 69295, Note_off_c, 1, 61, 127
1, 69296, Note_on_c, 2, 62, 127
1, 69430, Note_on_c, 10, 81, 127
1, 69563, Note_off_c, 10, 81, 127
1, 69563, Note_off_c, 2, 62, 127
1, 69564, Note_on_c, 2, 62, 127
1, 69564, Note_on_c, 2, 50, 127
1, 69564, Note_on_c, 7, 79, 127
1, 69697, Note_off_c, 7, 79, 127
1, 69698, Note_on_c, 6, 78, 127
1, 69831, Note_off_c, 6, 78, 127
1, 69831, Note_off_c, 2, 50, 127
1, 69831, Note_off_c, 2, 62, 127
1, 69832, Note_on_c, 1, 61, 127
1, 69832, Note_on_c, 10, 57, 127
1, 69832, Note_on_c, 4, 76, 127
1, 69965, Note_off_c, 4, 76, 127
1, 69966, Note_on_c, 2, 74, 127
1, 70099, Note_off_c, 2, 74, 127
1, 70099, Note_off_c, 10, 57, 127
1, 70099, Note_off_c, 1, 61, 127
1, 70100, Note_on_c, 1, 61, 127
1, 70100, Note_on_c, 10, 57, 127
1, 70100, Note_on_c, 1, 73, 127
1, 70233, Note_off_c, 1, 73, 127
1, 70234, Note_on_c, 4, 76, 127
1, 70367, Note_off_c, 4, 76, 127
1, 70367, Note_off_c, 10, 57, 127
1, 70367, Note_off_c, 1, 61, 127
1, 70368, Note_on_c, 2, 62, 127
1, 70368, Note_on_c, 2, 50, 127
1, 70368, Note_on_c, 6, 78, 127
1, 70501, Note_off_c, 6, 78, 127
1, 70502, Note_on_c, 7, 79, 127
1, 70635, Note_off_c, 7, 79, 127
1, 70635, Note_off_c, 2, 50, 127
1, 70635, Note_off_c, 2, 62, 127
1, 70636, Note_on_c, 2, 62, 127
1, 70636, Note_on_c, 2, 50, 127
1, 70636, Note_on_c, 6, 78, 127
1, 70769, Note_off_c, 6, 78, 127
1, 70770, Note_on_c, 7, 79, 127
1, 70903, Note_off_c, 7, 79, 127
1, 70903, Note_off_c, 2, 50, 127
1, 70903, Note_off_c, 2, 62, 127
1, 70904, Note_on_c, 1, 61, 127
1, 70904, Note_on_c, 10, 57, 127
1, 70904, Note_on_c, 4, 76, 127
1, 71037, Note_off_c, 4, 76, 127
1, 71038, Note_on_c, 2, 74, 127
1, 71171, Note_off_c, 2, 74, 127
1, 71171, Note_off_c, 10, 57, 127
1, 71171, Note_off_c, 1, 61, 127
1, 71172, Note_on_c, 1, 61, 127
1, 71172, Note_on_c, 10, 57, 127
1, 71172, Note_on_c, 1, 73, 127
1, 71305, Note_off_c, 1, 73, 127
1, 71306, Note_on_c, 4, 76, 127
1, 71439, Note_off_c, 4, 76, 127
1, 71439, Note_off_c, 10, 57, 127
1, 71439, Note_off_c, 1, 61, 127
1, 71440, Note_on_c, 2, 62, 127
1, 71440, Note_on_c, 2, 50, 127
1, 71440, Note_on_c, 6, 78, 127
1, 71573, Note_off_c, 6, 78, 127
1, 71574, Note_on_c, 7, 79, 127
1, 71707, Note_off_c, 7, 79, 127
1, 71707, Note_off_c, 2, 50, 127
1, 71707, Note_off_c, 2, 62, 127
1, 71708, Note_on_c, 2, 62, 127
1, 71708, Note_on_c, 2, 50, 127
1, 71708, Note_on_c, 6, 78, 127
1, 71841, Note_off_c, 6, 78, 127
1, 71842, Note_on_c, 7, 79, 127
1, 71975, Note_off_c, 7, 79, 127
1, 71975, Note_off_c, 2, 50, 127
1, 71975, Note_off_c, 2, 62, 127
1, 71976, Note_on_c, 10, 57, 127
1, 71976, Note_on_c, 1, 61, 127
1, 71976, Note_on_c, 4, 76, 127
1, 72109, Note_off_c, 4, 76, 127
1, 72110, Note_on_c, 2, 74, 127
1, 72243, Note_off_c, 2, 74, 127
1, 72243, Note_off_c, 1, 61, 127
1, 72243, Note_off_c, 10, 57, 127
1, 72244, Note_on_c, 10, 57, 127
1, 72244, Note_on_c, 1, 61, 127
1, 72244, Note_on_c, 1, 73, 127
1, 72377, Note_off_c, 1, 73, 127
1, 72378, Note_on_c, 4, 76, 127
1, 72511, Note_off_c, 4, 76, 127
1, 72511, Note_off_c, 1, 61, 127
1, 72511, Note_off_c, 10, 57, 127
1, 72512, Note_on_c, 2, 62, 127
1, 72512, Note_on_c, 2, 50, 127
1, 72512, Note_on_c, 6, 78, 127
1, 72645, Note_off_c, 6, 78, 127
1, 72646, Note_on_c, 7, 79, 127
1, 72779, Note_off_c, 7, 79, 127
1, 72779, Note_off_c, 2, 50, 127
1, 72779, Note_off_c, 2, 62, 127
1, 72780, Note_on_c, 2, 50, 127
1, 72780, Note_on_c, 2, 62, 127
1, 72780, Note_on_c, 6, 78, 127
1, 72913, Note_off_c, 6, 78, 127
1, 72914, Note_on_c, 7, 79, 127
1, 73047, Note_off_c, 7, 79, 127
1, 73047, Note_off_c, 2, 62, 127
1, 73047, Note_off_c, 2, 50, 127
1, 73048, Note_on_c, 10, 57, 127
1, 73048, Note_on_c, 4, 76, 127
1, 73181, Note_off_c, 10, 57, 127
1, 73182, Note_on_c, 10, 69, 127
1, 73315, Note_off_c, 10, 69, 127
1, 73316, Note_on_c, 7, 67, 127
1, 73316, Note_on_c, 10, 69, 127
1, 73449, Note_off_c, 10, 69, 127
1, 73449, Note_off_c, 7, 67, 127
1, 73450, Note_on_c, 10, 69, 127
1, 73584, Note_on_c, 6, 66, 127
1, 73584, Note_on_c, 10, 81, 127
1, 73717, Note_off_c, 6, 66, 127
1, 73718, Note_on_c, 7, 67, 127
1, 73841, Note_off_c, 10, 69, 127
1, 73851, Note_off_c, 7, 67, 127
1, 73851, Note_off_c, 10, 81, 127
1, 73851, Note_off_c, 4, 76, 127
1, 73852, Note_on_c, 4, 64, 127
1, 73852, Note_on_c, 6, 78, 127
1, 73852, Note_on_c, 1, 73, 127
1, 73852, Note_on_c, 10, 81, 127
1, 73985, Note_off_c, 4, 64, 127
1, 73986, Note_on_c, 6, 66, 127
1, 74119, Note_off_c, 6, 66, 127
1, 74119, Note_off_c, 10, 81, 127
1, 74119, Note_off_c, 1, 73, 127
1, 74119, Note_off_c, 6, 78, 127
1, 74120, Note_on_c, 2, 62, 127
1, 74120, Note_on_c, 10, 81, 127
1, 74120, Note_on_c, 6, 78, 127
1, 74120, Note_on_c, 12, 71, 127
1, 74253, Note_off_c, 2, 62, 127
1, 74254, Note_on_c, 6, 66, 127
1, 74387, Note_off_c, 6, 66, 127
1, 74387, Note_off_c, 6, 78, 127
1, 74387, Note_off_c, 10, 81, 127
1, 74388, Note_on_c, 12, 59, 127
1, 74388, Note_on_c, 7, 79, 127
1, 74521, Note_off_c, 7, 79, 127
1, 74521, Note_off_c, 12, 59, 127
1, 74522, Note_on_c, 2, 62, 127
1, 74522, Note_on_c, 6, 78, 127
1, 74650, Note_off_c, 12, 71, 127
1, 74654, Note_off_c, 6, 78, 127
1, 74654, Note_off_c, 2, 62, 127
1, 74655, Note_on_c, 4, 52, 127
1, 74655, Note_on_c, 7, 79, 127
1, 74788, Note_off_c, 4, 52, 127
1, 74789, Note_on_c, 4, 64, 127
1, 74922, Note_off_c, 4, 64, 127
1, 74922, Note_off_c, 7, 79, 127
1, 74923, Note_on_c, 2, 62, 127
1, 74923, Note_on_c, 12, 71, 127
1, 74923, Note_on_c, 7, 79, 127
1, 74923, Note_on_c, 4, 76, 127
1, 75056, Note_off_c, 2, 62, 127
1, 75057, Note_on_c, 4, 64, 127
1, 75190, Note_off_c, 4, 64, 127
1, 75190, Note_off_c, 4, 76, 127
1, 75190, Note_off_c, 7, 79, 127
1, 75190, Note_off_c, 12, 71, 127
1, 75191, Note_on_c, 1, 61, 127
1, 75191, Note_on_c, 4, 76, 127
1, 75191, Note_on_c, 10, 69, 127
1, 75191, Note_on_c, 7, 79, 127
1, 75324, Note_off_c, 1, 61, 127
1, 75325, Note_on_c, 4, 64, 127
1, 75458, Note_off_c, 4, 64, 127
1, 75458, Note_off_c, 7, 79, 127
1, 75458, Note_off_c, 4, 76, 127
1, 75459, Note_on_c, 10, 57, 127
1, 75459, Note_on_c, 6, 78, 127
1, 75592, Note_off_c, 6, 78, 127
1, 75592, Note_off_c, 10, 57, 127
1, 75593, Note_on_c, 1, 61, 127
1, 75593, Note_on_c, 4, 76, 127
1, 75721, Note_off_c, 10, 69, 127
1, 75725, Note_off_c, 4, 76, 127
1, 75725, Note_off_c, 1, 61, 127
1, 75726, Note_on_c, 2, 50, 127
1, 75726, Note_on_c, 6, 78, 127
1, 75859, Note_off_c, 2, 50, 127
1, 75860, Note_on_c, 2, 62, 127
1, 75993, Note_off_c, 2, 62, 127
1, 75993, Note_off_c, 6, 78, 127
1, 75994, Note_on_c, 1, 61, 127
1, 75994, Note_on_c, 6, 78, 127
1, 75994, Note_on_c, 2, 74, 127
1, 75994, Note_on_c, 10, 69, 127
1, 76127, Note_off_c, 1, 61, 127
1, 76128, Note_on_c, 2, 62, 127
1, 76261, Note_off_c, 2, 62, 127
1, 76261, Note_off_c, 10, 69, 127
1, 76261, Note_off_c, 2, 74, 127
1, 76261, Note_off_c, 6, 78, 127
1, 76262, Note_on_c, 12, 59, 127
1, 76262, Note_on_c, 6, 78, 127
1, 76262, Note_on_c, 2, 74, 127
1, 76262, Note_on_c, 7, 67, 127
1, 76395, Note_off_c, 12, 59, 127
1, 76396, Note_on_c, 2, 62, 127
1, 76529, Note_off_c, 2, 62, 127
1, 76529, Note_off_c, 2, 74, 127
1, 76529, Note_off_c, 6, 78, 127
1, 76530, Note_on_c, 7, 55, 127
1, 76530, Note_on_c, 4, 76, 127
1, 76663, Note_off_c, 4, 76, 127
1, 76663, Note_off_c, 7, 55, 127
1, 76664, Note_on_c, 12, 59, 127
1, 76664, Note_on_c, 2, 74, 127
1, 76792, Note_off_c, 7, 67, 127
1, 76796, Note_off_c, 2, 74, 127
1, 76796, Note_off_c, 12, 59, 127
1, 76797, Note_on_c, 1, 49, 127
1, 76797, Note_on_c, 4, 76, 127
1, 76930, Note_off_c, 1, 49, 127
1, 76931, Note_on_c, 1, 61, 127
1, 77064, Note_off_c, 1, 61, 127
1, 77064, Note_off_c, 4, 76, 127
1, 77065, Note_on_c, 12, 59, 127
1, 77065, Note_on_c, 4, 76, 127
1, 77065, Note_on_c, 1, 73, 127
1, 77065, Note_on_c, 7, 67, 127
1, 77198, Note_off_c, 12, 59, 127
1, 77199, Note_on_c, 1, 61, 127
1, 77332, Note_off_c, 1, 61, 127
1, 77332, Note_off_c, 7, 67, 127
1, 77332, Note_off_c, 1, 73, 127
1, 77332, Note_off_c, 4, 76, 127
1, 77333, Note_on_c, 10, 57, 127
1, 77333, Note_on_c, 1, 73, 127
1, 77333, Note_on_c, 4, 76, 127
1, 77333, Note_on_c, 6, 66, 127
1, 77466, Note_off_c, 10, 57, 127
1, 77467, Note_on_c, 1, 61, 127
1, 77600, Note_off_c, 1, 61, 127
1, 77600, Note_off_c, 4, 76, 127
1, 77600, Note_off_c, 1, 73, 127
1, 77601, Note_on_c, 6, 54, 127
1, 77601, Note_on_c, 2, 74, 127
1, 77734, Note_off_c, 2, 74, 127
1, 77734, Note_off_c, 6, 54, 127
1, 77735, Note_on_c, 10, 57, 127
1, 77735, Note_on_c, 1, 73, 127
1, 77863, Note_off_c, 6, 66, 127
1, 77867, Note_off_c, 1, 73, 127
1, 77867, Note_off_c, 10, 57, 127
1, 77868, Note_on_c, 12, 47, 127
1, 77868, Note_on_c, 2, 74, 127
1, 78001, Note_off_c, 12, 47, 127
1, 78002, Note_on_c, 12, 59, 127
1, 78135, Note_off_c, 12, 59, 127
1, 78135, Note_off_c, 2, 74, 127
1, 78136, Note_on_c, 10, 57, 127
1, 78136, Note_on_c, 6, 66, 127
1, 78136, Note_on_c, 2, 74, 127
1, 78136, Note_on_c, 12, 71, 127
1, 78269, Note_off_c, 10, 57, 127
1, 78270, Note_on_c, 12, 59, 127
1, 78403, Note_off_c, 12, 59, 127
1, 78403, Note_off_c, 12, 71, 127
1, 78403, Note_off_c, 2, 74, 127
1, 78403, Note_off_c, 6, 66, 127
1, 78404, Note_on_c, 7, 55, 127
1, 78404, Note_on_c, 2, 74, 127
1, 78404, Note_on_c, 12, 71, 127
1, 78404, Note_on_c, 4, 64, 127
1, 78537, Note_off_c, 7, 55, 127
1, 78538, Note_on_c, 12, 59, 127
1, 78671, Note_off_c, 12, 59, 127
1, 78672, Note_on_c, 4, 52, 127
1, 78805, Note_off_c, 4, 52, 127
1, 78806, Note_on_c, 7, 55, 127
1, 78939, Note_off_c, 7, 55, 127
1, 78939, Note_off_c, 4, 64, 127
1, 78939, Note_off_c, 12, 71, 127
1, 78939, Note_off_c, 2, 74, 127
1, 78940, Note_on_c, 10, 45, 127
1, 78940, Note_on_c, 1, 73, 127
1, 78940, Note_on_c, 7, 67, 127
1, 78940, Note_on_c, 4, 64, 127
1, 78940, Note_on_c, 10, 69, 127
1, 79073, Note_off_c, 10, 45, 127
1, 79074, Note_on_c, 10, 57, 127
1, 79207, Note_off_c, 10, 57, 127
1, 79208, Note_on_c, 7, 55, 127
1, 79341, Note_off_c, 7, 55, 127
1, 79342, Note_on_c, 10, 57, 127
1, 79475, Note_off_c, 10, 57, 127
1, 79475, Note_off_c, 10, 69, 127
1, 79475, Note_off_c, 4, 64, 127
1, 79475, Note_off_c, 7, 67, 127
1, 79475, Note_off_c, 1, 73, 127
1, 79476, Note_on_c, 2, 50, 127
1, 79476, Note_on_c, 6, 66, 127
1, 79476, Note_on_c, 2, 74, 127
1, 79476, Note_on_c, 10, 69, 127
1, 79741, Note_off_c, 2, 50, 127
1, 79742, Note_off_c, 10, 69, 127
1, 79742, Note_off_c, 2, 74, 127
1, 79742, Note_off_c, 6, 66, 127
1, 79759, Note_on_c, 10, 81, 127
1, 79892, Note_off_c, 10, 81, 127
1, 79893, Note_on_c, 7, 79, 127
1, 80026, Note_off_c, 7, 79, 127
1, 80027, Note_on_c, 10, 81, 127
1, 80294, Note_off_c, 10, 81, 127
1, 80295, Note_on_c, 10, 81, 127
1, 80295, Note_on_c, 2, 74, 127
1, 80295, Note_on_c, 6, 78, 127
1, 80295, Note_on_c, 10, 57, 127
1, 80428, Note_off_c, 10, 57, 127
1, 80429, Note_on_c, 8, 56, 127
1, 80562, Note_off_c, 8, 56, 127
1, 80562, Note_off_c, 6, 78, 127
1, 80562, Note_off_c, 2, 74, 127
1, 80563, Note_on_c, 4, 76, 127
1, 80563, Note_on_c, 1, 73, 127
1, 80563, Note_on_c, 10, 57, 127
1, 80825, Note_off_c, 10, 81, 127
1, 80829, Note_off_c, 10, 57, 127
1, 80829, Note_off_c, 1, 73, 127
1, 80829, Note_off_c, 4, 76, 127
1, 80830, Note_on_c, 10, 81, 127
1, 80830, Note_on_c, 10, 45, 127
1, 80963, Note_off_c, 10, 81, 127
1, 80964, Note_on_c, 7, 79, 127
1, 81095, Note_off_c, 10, 45, 127
1, 81096, Note_off_c, 7, 79, 127
1, 81097, Note_on_c, 10, 81, 127
1, 81364, Note_off_c, 10, 81, 127
1, 81365, Note_on_c, 10, 81, 127
1, 81365, Note_on_c, 1, 73, 127
1, 81365, Note_on_c, 4, 76, 127
1, 81365, Note_on_c, 10, 57, 127
1, 81498, Note_off_c, 10, 57, 127
1, 81499, Note_on_c, 8, 56, 127
1, 81632, Note_off_c, 8, 56, 127
1, 81632, Note_off_c, 4, 76, 127
1, 81632, Note_off_c, 1, 73, 127
1, 81633, Note_on_c, 2, 74, 127
1, 81633, Note_on_c, 6, 78, 127
1, 81633, Note_on_c, 10, 57, 127
1, 81895, Note_off_c, 10, 81, 127
1, 81899, Note_off_c, 10, 57, 127
1, 81899, Note_off_c, 6, 78, 127
1, 81899, Note_off_c, 2, 74, 127
1, 81900, Note_on_c, 10, 81, 127
1, 81900, Note_on_c, 2, 50, 127
1, 82033, Note_off_c, 10, 81, 127
1, 82034, Note_on_c, 7, 79, 127
1, 82165, Note_off_c, 2, 50, 127
1, 82166, Note_off_c, 7, 79, 127
1, 82167, Note_on_c, 10, 81, 127
1, 82434, Note_off_c, 10, 81, 127
1, 82435, Note_on_c, 10, 81, 127
1, 82435, Note_on_c, 2, 74, 127
1, 82435, Note_on_c, 6, 78, 127
1, 82435, Note_on_c, 10, 57, 127
1, 82568, Note_off_c, 10, 57, 127
1, 82569, Note_on_c, 8, 56, 127
1, 82702, Note_off_c, 8, 56, 127
1, 82702, Note_off_c, 6, 78, 127
1, 82702, Note_off_c, 2, 74, 127
1, 82703, Note_on_c, 1, 73, 127
1, 82703, Note_on_c, 4, 76, 127
1, 82703, Note_on_c, 10, 57, 127
1, 82965, Note_off_c, 10, 81, 127
1, 82969, Note_off_c, 10, 57, 127
1, 82969, Note_off_c, 4, 76, 127
1, 82969, Note_off_c, 1, 73, 127
1, 82970, Note_on_c, 10, 81, 127
1, 82970, Note_on_c, 10, 45, 127
1, 83103, Note_off_c, 10, 81, 127
1, 83104, Note_on_c, 7, 79, 127
1, 83235, Note_off_c, 10, 45, 127
1, 83236, Note_off_c, 7, 79, 127
1, 83237, Note_on_c, 10, 81, 127
1, 83371, Note_on_c, 10, 57, 127
1, 83504, Note_off_c, 10, 57, 127
1, 83504, Note_off_c, 10, 81, 127
1, 83505, Note_on_c, 1, 73, 127
1, 83505, Note_on_c, 4, 76, 127
1, 83505, Note_on_c, 10, 81, 127
1, 83505, Note_on_c, 7, 55, 127
1, 83638, Note_off_c, 7, 55, 127
1, 83639, Note_on_c, 10, 57, 127
1, 83772, Note_off_c, 10, 57, 127
1, 83772, Note_off_c, 10, 81, 127
1, 83772, Note_off_c, 4, 76, 127
1, 83772, Note_off_c, 1, 73, 127
1, 83773, Note_on_c, 2, 74, 127
1, 83773, Note_on_c, 6, 78, 127
1, 83773, Note_on_c, 2, 50, 127
1, 83906, Note_off_c, 6, 78, 127
1, 83907, Note_on_c, 7, 79, 127
1, 84040, Note_off_c, 7, 79, 127
1, 84040, Note_off_c, 2, 50, 127
1, 84041, Note_on_c, 6, 78, 127
1, 84041, Note_on_c, 10, 57, 127
1, 84174, Note_off_c, 6, 78, 127
1, 84175, Note_off_c, 2, 74, 127
1, 84175, Note_on_c, 4, 76, 127
1, 84308, Note_off_c, 4, 76, 127
1, 84309, Note_on_c, 2, 74, 127
1, 84376, Note_off_c, 10, 57, 127
1, 84443, Note_on_c, 10, 57, 127
1, 84576, Note_off_c, 10, 57, 127
1, 84576, Note_off_c, 2, 74, 127
1, 84577, Note_on_c, 6, 78, 127
1, 84577, Note_on_c, 7, 55, 127
1, 84710, Note_off_c, 7, 55, 127
1, 84711, Note_on_c, 10, 57, 127
1, 84844, Note_off_c, 10, 57, 127
1, 84844, Note_off_c, 6, 78, 127
1, 84845, Note_on_c, 4, 76, 127
1, 84845, Note_on_c, 1, 49, 127
1, 84978, Note_off_c, 4, 76, 127
1, 84979, Note_on_c, 2, 74, 127
1, 84979, Note_on_c, 10, 57, 127
1, 85112, Note_off_c, 10, 57, 127
1, 85112, Note_off_c, 2, 74, 127
1, 85113, Note_on_c, 4, 76, 127
1, 85113, Note_on_c, 7, 55, 127
1, 85246, Note_off_c, 7, 55, 127
1, 85246, Note_off_c, 4, 76, 127
1, 85247, Note_off_c, 1, 49, 127
1, 85247, Note_on_c, 7, 79, 127
1, 85247, Note_on_c, 10, 57, 127
1, 85380, Note_off_c, 10, 57, 127
1, 85380, Note_off_c, 7, 79, 127
1, 85381, Note_on_c, 6, 78, 127
1, 85381, Note_on_c, 2, 50, 127
1, 85514, Note_off_c, 6, 78, 127
1, 85515, Note_on_c, 4, 76, 127
1, 85515, Note_on_c, 12, 59, 127
1, 85648, Note_off_c, 12, 59, 127
1, 85648, Note_off_c, 4, 76, 127
1, 85649, Note_on_c, 6, 78, 127
1, 85649, Note_on_c, 10, 57, 127
1, 85782, Note_off_c, 10, 57, 127
1, 85782, Note_off_c, 6, 78, 127
1, 85783, Note_off_c, 2, 50, 127
1, 85783, Note_on_c, 10, 81, 127
1, 85783, Note_on_c, 12, 59, 127
1, 85916, Note_off_c, 12, 59, 127
1, 85916, Note_off_c, 10, 81, 127
1, 85917, Note_on_c, 7, 79, 127
1, 85917, Note_on_c, 4, 52, 127
1, 86050, Note_off_c, 7, 79, 127
1, 86051, Note_on_c, 6, 78, 127
1, 86051, Note_on_c, 1, 61, 127
1, 86184, Note_off_c, 1, 61, 127
1, 86184, Note_off_c, 6, 78, 127
1, 86185, Note_on_c, 7, 79, 127
1, 86185, Note_on_c, 12, 59, 127
1, 86318, Note_off_c, 12, 59, 127
1, 86318, Note_off_c, 7, 79, 127
1, 86319, Note_off_c, 4, 52, 127
1, 86319, Note_on_c, 10, 81, 127
1, 86319, Note_on_c, 1, 61, 127
1, 86452, Note_off_c, 1, 61, 127
1, 86452, Note_off_c, 10, 81, 127
1, 86453, Note_on_c, 7, 79, 127
1, 86453, Note_on_c, 10, 57, 127
1, 86586, Note_off_c, 7, 79, 127
1, 86587, Note_on_c, 12, 83, 127
1, 86587, Note_on_c, 1, 61, 127
1, 86720, Note_off_c, 1, 61, 127
1, 86720, Note_off_c, 12, 83, 127
1, 86721, Note_on_c, 10, 81, 127
1, 86721, Note_on_c, 12, 59, 127
1, 86854, Note_off_c, 12, 59, 127
1, 86854, Note_off_c, 10, 81, 127
1, 86855, Note_off_c, 10, 57, 127
1, 86855, Note_on_c, 7, 79, 127
1, 86855, Note_on_c, 1, 61, 127
1, 86988, Note_off_c, 1, 61, 127
1, 86988, Note_off_c, 7, 79, 127
1, 86989, Note_on_c, 6, 78, 127
1, 86989, Note_on_c, 2, 62, 127
1, 87122, Note_off_c, 2, 62, 127
1, 87122, Note_off_c, 6, 78, 127
1, 87123, Note_on_c, 4, 76, 127
1, 87123, Note_on_c, 1, 61, 127
1, 87256, Note_off_c, 1, 61, 127
1, 87256, Note_off_c, 4, 76, 127
1, 87257, Note_on_c, 6, 78, 127
1, 87257, Note_on_c, 2, 62, 127
1, 87390, Note_off_c, 2, 62, 127
1, 87390, Note_off_c, 6, 78, 127
1, 87391, Note_on_c, 7, 79, 127
1, 87391, Note_on_c, 10, 57, 127
1, 87524, Note_off_c, 10, 57, 127
1, 87524, Note_off_c, 7, 79, 127
1, 87525, Note_on_c, 6, 78, 127
1, 87525, Note_on_c, 2, 50, 127
1, 87658, Note_off_c, 2, 50, 127
1, 87658, Note_off_c, 6, 78, 127
1, 87659, Note_on_c, 10, 81, 127
1, 87659, Note_on_c, 6, 54, 127
1, 87792, Note_off_c, 6, 54, 127
1, 87798, Note_off_c, 10, 81, 127
1, 87801, Note_on_c, 7, 79, 127
1, 87801, Note_on_c, 4, 52, 127
1, 87934, Note_off_c, 4, 52, 127
1, 87934, Note_off_c, 7, 79, 127
1, 87939, Note_on_c, 6, 78, 127
1, 87939, Note_on_c, 2, 50, 127
1, 88072, Note_off_c, 2, 50, 127
1, 88077, Note_on_c, 4, 76, 127
1, 88077, Note_on_c, 10, 57, 127
1, 88088, Note_off_c, 6, 78, 127
1, 88230, Note_off_c, 4, 76, 127
1, 88259, Note_on_c, 2, 74, 127
1, 88392, Note_off_c, 2, 74, 127
1, 88393, Note_on_c, 1, 73, 127
1, 88502, Note_off_c, 1, 73, 127
1, 88503, Note_on_c, 4, 76, 127
1, 88612, Note_off_c, 4, 76, 127
1, 88613, Note_on_c, 10, 45, 127
1, 88613, Note_on_c, 6, 78, 127
1, 88722, Note_off_c, 6, 78, 127
1, 88723, Note_on_c, 4, 76, 127
1, 88832, Note_off_c, 4, 76, 127
1, 88833, Note_on_c, 2, 74, 127
1, 88937, Note_off_c, 2, 74, 127
1, 88938, Note_on_c, 6, 78, 127
1, 89042, Note_off_c, 6, 78, 127
1, 89043, Note_on_c, 4, 76, 127
1, 89180, Note_on_c, 2, 74, 127
1, 89190, Note_off_c, 4, 76, 127
1, 89284, Note_off_c, 2, 74, 127
1, 89285, Note_on_c, 1, 73, 127
1, 89384, Note_off_c, 1, 73, 127
1, 89385, Note_on_c, 4, 76, 127
1, 89484, Note_off_c, 4, 76, 127
1, 89485, Note_on_c, 6, 78, 127
1, 89584, Note_off_c, 6, 78, 127
1, 89585, Note_on_c, 4, 76, 127
1, 89684, Note_off_c, 4, 76, 127
1, 89685, Note_on_c, 2, 74, 127
1, 89780, Note_off_c, 2, 74, 127
1, 89781, Note_on_c, 6, 78, 127
1, 89876, Note_off_c, 6, 78, 127
1, 89877, Note_on_c, 4, 76, 127
1, 89972, Note_off_c, 4, 76, 127
1, 89989, Note_on_c, 2, 74, 127
1, 90084, Note_off_c, 2, 74, 127
1, 90085, Note_on_c, 1, 73, 127
1, 90177, Note_off_c, 1, 73, 127
1, 90178, Note_on_c, 4, 76, 127
1, 90270, Note_off_c, 4, 76, 127
1, 90271, Note_on_c, 2, 74, 127
1, 90363, Note_off_c, 2, 74, 127
1, 90364, Note_on_c, 1, 73, 127
1, 90456, Note_off_c, 1, 73, 127
1, 90457, Note_on_c, 12, 71, 127
1, 90546, Note_off_c, 12, 71, 127
1, 90547, Note_on_c, 2, 74, 127
1, 90636, Note_off_c, 2, 74, 127
1, 90637, Note_on_c, 1, 73, 127
1, 90726, Note_off_c, 1, 73, 127
1, 90727, Note_on_c, 12, 71, 127
1, 90816, Note_off_c, 12, 71, 127
1, 90817, Note_on_c, 10, 69, 127
1, 90906, Note_off_c, 10, 69, 127
1, 90907, Note_on_c, 1, 73, 127
1, 90996, Note_off_c, 1, 73, 127
1, 90997, Note_on_c, 2, 74, 127
1, 91086, Note_off_c, 2, 74, 127
1, 91087, Note_on_c, 1, 73, 127
1, 91176, Note_off_c, 1, 73, 127
1, 91177, Note_on_c, 12, 71, 127
1, 91265, Note_off_c, 12, 71, 127
1, 91266, Note_on_c, 2, 74, 127
1, 91354, Note_off_c, 2, 74, 127
1, 91355, Note_on_c, 1, 73, 127
1, 91463, Note_off_c, 1, 73, 127
1, 91476, Note_on_c, 12, 71, 127
1, 91564, Note_off_c, 12, 71, 127
1, 91565, Note_on_c, 10, 69, 127
1, 91653, Note_off_c, 10, 69, 127
1, 91654, Note_on_c, 1, 73, 127
1, 91742, Note_off_c, 1, 73, 127
1, 91743, Note_on_c, 2, 74, 127
1, 91831, Note_off_c, 2, 74, 127
1, 91832, Note_on_c, 1, 73, 127
1, 91920, Note_off_c, 1, 73, 127
1, 91921, Note_on_c, 12, 71, 127
1, 92009, Note_off_c, 12, 71, 127
1, 92010, Note_on_c, 2, 74, 127
1, 92098, Note_off_c, 2, 74, 127
1, 92099, Note_on_c, 4, 76, 127
1, 92119, Note_off_c, 10, 57, 127
1, 92187, Note_off_c, 4, 76, 127
1, 92204, Note_on_c, 2, 74, 127
1, 92292, Note_off_c, 2, 74, 127
1, 92293, Note_on_c, 1, 73, 127
1, 92384, Note_off_c, 1, 73, 127
1, 92385, Note_on_c, 4, 76, 127
1, 92476, Note_off_c, 4, 76, 127
1, 92477, Note_on_c, 6, 78, 127
1, 92552, Note_off_c, 10, 45, 127
1, 92568, Note_off_c, 6, 78, 127
1, 92569, Note_on_c, 4, 76, 127
1, 92660, Note_off_c, 4, 76, 127
1, 92661, Note_on_c, 2, 74, 127
1, 92756, Note_off_c, 2, 74, 127
1, 92757, Note_on_c, 6, 78, 127
1, 92876, Note_on_c, 7, 79, 127
1, 92877, Note_off_c, 6, 78, 127
1, 93132, Note_off_c, 7, 79, 127
1, 93141, Note_on_c, 6, 78, 127
1, 93245, Note_on_c, 4, 76, 127
1, 93260, Note_off_c, 6, 78, 127
1, 93349, Note_on_c, 6, 78, 127
1, 93364, Note_off_c, 4, 76, 127
1, 93453, Note_on_c, 7, 79, 127
1, 93468, Note_off_c, 6, 78, 127
1, 93586, Note_off_c, 7, 79, 127
1, 93603, Note_on_c, 6, 78, 127
1, 93603, Note_on_c, 10, 57, 127
1, 93736, Note_off_c, 10, 57, 127
1, 93736, Note_off_c, 6, 78, 127
1, 93737, Note_on_c, 7, 79, 127
1, 93737, Note_on_c, 12, 59, 127
1, 93870, Note_off_c, 12, 59, 127
1, 93870, Note_off_c, 7, 79, 127
1, 93871, Note_on_c, 4, 76, 127
1, 93871, Note_on_c, 1, 61, 127
1, 94004, Note_off_c, 1, 61, 127
1, 94004, Note_off_c, 4, 76, 127
1, 94005, Note_on_c, 10, 81, 127
1, 94005, Note_on_c, 2, 62, 127
1, 94138, Note_off_c, 2, 62, 127
1, 94138, Note_off_c, 10, 81, 127
1, 94139, Note_on_c, 7, 79, 127
1, 94139, Note_on_c, 6, 66, 127
1, 94272, Note_off_c, 6, 66, 127
1, 94272, Note_off_c, 7, 79, 127
1, 94273, Note_on_c, 10, 81, 127
1, 94273, Note_on_c, 4, 64, 127
1, 94406, Note_off_c, 4, 64, 127
1, 94406, Note_off_c, 10, 81, 127
1, 94407, Note_on_c, 12, 83, 127
1, 94407, Note_on_c, 2, 62, 127
1, 94540, Note_off_c, 2, 62, 127
1, 94540, Note_off_c, 12, 83, 127
1, 94541, Note_on_c, 10, 81, 127
1, 94541, Note_on_c, 1, 61, 127
1, 94674, Note_off_c, 1, 61, 127
1, 94674, Note_off_c, 10, 81, 127
1, 94675, Note_on_c, 7, 79, 127
1, 94675, Note_on_c, 12, 59, 127
1, 94808, Note_off_c, 12, 59, 127
1, 94808, Note_off_c, 7, 79, 127
1, 94809, Note_on_c, 10, 81, 127
1, 94809, Note_on_c, 10, 57, 127
1, 94942, Note_off_c, 10, 57, 127
1, 94942, Note_off_c, 10, 81, 127
1, 94943, Note_on_c, 12, 83, 127
1, 94943, Note_on_c, 7, 55, 127
1, 95076, Note_off_c, 7, 55, 127
1, 95076, Note_off_c, 12, 83, 127
1, 95077, Note_on_c, 10, 81, 127
1, 95077, Note_on_c, 6, 54, 127
1, 95210, Note_off_c, 6, 54, 127
1, 95210, Note_off_c, 10, 81, 127
1, 95211, Note_on_c, 7, 79, 127
1, 95211, Note_on_c, 12, 59, 127
1, 95344, Note_off_c, 12, 59, 127
1, 95344, Note_off_c, 7, 79, 127
1, 95345, Note_on_c, 10, 81, 127
1, 95345, Note_on_c, 10, 57, 127
1, 95478, Note_off_c, 10, 57, 127
1, 95478, Note_off_c, 10, 81, 127
1, 95479, Note_on_c, 12, 83, 127
1, 95479, Note_on_c, 7, 55, 127
1, 95612, Note_off_c, 7, 55, 127
1, 95612, Note_off_c, 12, 83, 127
1, 95613, Note_on_c, 10, 81, 127
1, 95613, Note_on_c, 6, 54, 127
1, 95746, Note_off_c, 6, 54, 127
1, 95746, Note_off_c, 10, 81, 127
1, 95747, Note_on_c, 7, 79, 127
1, 95747, Note_on_c, 4, 52, 127
1, 95880, Note_off_c, 4, 52, 127
1, 95880, Note_off_c, 7, 79, 127
1, 95881, Note_on_c, 10, 81, 127
1, 95881, Note_on_c, 2, 50, 127
1, 96014, Note_off_c, 2, 50, 127
1, 96014, Note_off_c, 10, 81, 127
1, 96015, Note_on_c, 12, 83, 127
1, 96015, Note_on_c, 1, 49, 127
1, 96148, Note_off_c, 1, 49, 127
1, 96148, Note_off_c, 12, 83, 127
1, 96149, Note_on_c, 10, 81, 127
1, 96149, Note_on_c, 2, 50, 127
1, 96282, Note_off_c, 2, 50, 127
1, 96282, Note_off_c, 10, 81, 127
1, 96283, Note_on_c, 7, 79, 127
1, 96283, Note_on_c, 6, 54, 127
1, 96416, Note_off_c, 6, 54, 127
1, 96416, Note_off_c, 7, 79, 127
1, 96417, Note_on_c, 10, 81, 127
1, 96417, Note_on_c, 4, 52, 127
1, 96550, Note_off_c, 4, 52, 127
1, 96550, Note_off_c, 10, 81, 127
1, 96551, Note_on_c, 12, 83, 127
1, 96551, Note_on_c, 2, 50, 127
1, 96684, Note_off_c, 2, 50, 127
1, 96684, Note_off_c, 12, 83, 127
1, 96685, Note_on_c, 10, 81, 127
1, 96685, Note_on_c, 1, 49, 127
1, 96818, Note_off_c, 1, 49, 127
1, 96818, Note_off_c, 10, 81, 127
1, 96819, Note_on_c, 7, 79, 127
1, 96819, Note_on_c, 12, 47, 127
1, 96952, Note_off_c, 12, 47, 127
1, 96952, Note_off_c, 7, 79, 127
1, 96953, Note_on_c, 10, 81, 127
1, 96953, Note_on_c, 10, 45, 127
1, 97086, Note_off_c, 10, 45, 127
1, 97086, Note_off_c, 10, 81, 127
1, 97087, Note_on_c, 12, 83, 127
1, 97087, Note_on_c, 7, 43, 127
1, 97220, Note_off_c, 7, 43, 127
1, 97220, Note_off_c, 12, 83, 127
1, 97221, Note_on_c, 10, 81, 127
1, 97221, Note_on_c, 6, 42, 127
1, 97354, Note_off_c, 6, 42, 127
1, 97355, Note_on_c, 10, 45, 127
1, 97488, Note_off_c, 10, 45, 127
1, 97488, Note_off_c, 10, 81, 127
1, 97489, Note_on_c, 7, 79, 127
1, 97489, Note_on_c, 12, 47, 127
1, 97622, Note_off_c, 12, 47, 127
1, 97622, Note_off_c, 7, 79, 127
1, 97623, Note_on_c, 6, 78, 127
1, 97623, Note_on_c, 10, 45, 127
1, 97756, Note_off_c, 10, 45, 127
1, 97756, Note_off_c, 6, 78, 127
1, 97757, Note_on_c, 4, 76, 127
1, 97757, Note_on_c, 7, 43, 127
1, 97890, Note_off_c, 7, 43, 127
1, 97890, Note_off_c, 4, 76, 127
1, 97891, Note_on_c, 2, 74, 127
1, 97891, Note_on_c, 6, 42, 127
1, 98024, Note_off_c, 6, 42, 127
1, 98024, Note_off_c, 2, 74, 127
1, 98025, Note_on_c, 1, 73, 127
1, 98025, Note_on_c, 4, 40, 127
1, 98158, Note_off_c, 4, 40, 127
1, 98158, Note_off_c, 1, 73, 127
1, 98159, Note_on_c, 12, 71, 127
1, 98159, Note_on_c, 2, 38, 127
1, 98292, Note_off_c, 2, 38, 127
1, 98292, Note_off_c, 12, 71, 127
1, 98293, Note_on_c, 1, 73, 127
1, 98293, Note_on_c, 10, 45, 127
1, 98426, Note_off_c, 10, 45, 127
1, 98427, Note_on_c, 7, 43, 127
1, 98560, Note_off_c, 7, 43, 127
1, 98561, Note_on_c, 10, 69, 127
1, 98561, Note_on_c, 6, 42, 127
1, 98694, Note_off_c, 6, 42, 127
1, 98695, Note_on_c, 4, 40, 127
1, 98823, Note_off_c, 1, 73, 127
1, 98827, Note_off_c, 4, 40, 127
1, 98827, Note_off_c, 10, 69, 127
1, 98828, Note_on_c, 2, 74, 127
1, 98828, Note_on_c, 10, 69, 127
1, 98828, Note_on_c, 6, 78, 127
1, 98828, Note_on_c, 2, 38, 127
1, 98961, Note_off_c, 2, 38, 127
1, 98962, Note_on_c, 2, 50, 127
1, 99095, Note_off_c, 2, 50, 127
1, 99095, Note_off_c, 6, 78, 127
1, 99095, Note_off_c, 10, 69, 127
1, 99095, Note_off_c, 2, 74, 127
1, 99096, Note_on_c, 6, 78, 127
1, 99096, Note_on_c, 10, 69, 127
1, 99096, Note_on_c, 2, 74, 127
1, 99096, Note_on_c, 1, 49, 127
1, 99229, Note_off_c, 1, 49, 127
1, 99230, Note_on_c, 2, 50, 127
1, 99363, Note_off_c, 2, 74, 127
1, 99363, Note_off_c, 10, 69, 127
1, 99363, Note_off_c, 6, 78, 127
1, 99364, Note_on_c, 2, 74, 127
1, 99364, Note_on_c, 4, 76, 127
1, 99364, Note_on_c, 12, 71, 127
1, 99364, Note_on_c, 7, 43, 127
1, 99495, Note_off_c, 2, 50, 127
1, 99498, Note_on_c, 7, 55, 127
1, 99629, Note_off_c, 7, 43, 127
1, 99630, Note_off_c, 7, 55, 127
1, 99630, Note_off_c, 4, 76, 127
1, 99630, Note_off_c, 2, 74, 127
1, 99631, Note_on_c, 4, 76, 127
1, 99631, Note_on_c, 6, 54, 127
1, 99764, Note_off_c, 6, 54, 127
1, 99764, Note_off_c, 4, 76, 127
1, 99765, Note_on_c, 2, 74, 127
1, 99765, Note_on_c, 7, 55, 127
1, 99898, Note_off_c, 7, 55, 127
1, 99898, Note_off_c, 2, 74, 127
1, 99898, Note_off_c, 12, 71, 127
1, 99899, Note_on_c, 10, 69, 127
1, 99899, Note_on_c, 4, 76, 127
1, 99899, Note_on_c, 1, 73, 127
1, 99899, Note_on_c, 10, 45, 127
1, 100033, Note_on_c, 10, 57, 127
1, 100164, Note_off_c, 10, 45, 127
1, 100165, Note_off_c, 10, 57, 127
1, 100165, Note_off_c, 1, 73, 127
1, 100165, Note_off_c, 4, 76, 127
1, 100165, Note_off_c, 10, 69, 127
1, 100166, Note_on_c, 7, 67, 127
1, 100166, Note_on_c, 4, 76, 127
1, 100166, Note_on_c, 1, 73, 127
1, 100166, Note_on_c, 7, 55, 127
1, 100299, Note_off_c, 7, 55, 127
1, 100300, Note_on_c, 10, 57, 127
1, 100433, Note_off_c, 10, 57, 127
1, 100433, Note_off_c, 1, 73, 127
1, 100433, Note_off_c, 4, 76, 127
1, 100433, Note_off_c, 7, 67, 127
1, 100434, Note_on_c, 2, 74, 127
1, 100434, Note_on_c, 6, 66, 127
1, 100434, Note_on_c, 10, 69, 127
1, 100434, Note_on_c, 2, 50, 127
1, 100699, Note_off_c, 2, 50, 127
1, 100700, Note_off_c, 10, 69, 127
1, 100700, Note_off_c, 6, 66, 127
1, 100700, Note_off_c, 2, 74, 127
1, 100717, Note_on_c, 10, 81, 127
1, 100850, Note_off_c, 10, 81, 127
1, 100851, Note_on_c, 7, 79, 127
1, 100984, Note_off_c, 7, 79, 127
1, 100985, Note_on_c, 10, 81, 127
1, 101252, Note_off_c, 10, 81, 127
1, 101253, Note_on_c, 10, 69, 127
1, 101253, Note_on_c, 6, 78, 127
1, 101253, Note_on_c, 2, 74, 127
1, 101253, Note_on_c, 10, 81, 127
1, 101386, Note_off_c, 10, 69, 127
1, 101387, Note_on_c, 8, 68, 127
1, 101520, Note_off_c, 8, 68, 127
1, 101520, Note_off_c, 2, 74, 127
1, 101520, Note_off_c, 6, 78, 127
1, 101521, Note_on_c, 10, 69, 127
1, 101521, Note_on_c, 4, 76, 127
1, 101521, Note_on_c, 1, 73, 127
1, 101783, Note_off_c, 10, 81, 127
1, 101787, Note_off_c, 1, 73, 127
1, 101787, Note_off_c, 4, 76, 127
1, 101788, Note_on_c, 10, 57, 127
1, 101788, Note_on_c, 10, 81, 127
1, 101921, Note_off_c, 10, 81, 127
1, 101922, Note_on_c, 7, 79, 127
1, 102050, Note_off_c, 10, 69, 127
1, 102053, Note_off_c, 10, 57, 127
1, 102054, Note_off_c, 7, 79, 127
1, 102055, Note_on_c, 10, 81, 127
1, 102322, Note_off_c, 10, 81, 127
1, 102323, Note_on_c, 2, 62, 127
1, 102323, Note_on_c, 4, 76, 127
1, 102323, Note_on_c, 10, 69, 127
1, 102323, Note_on_c, 10, 81, 127
1, 102456, Note_off_c, 2, 62, 127
1, 102457, Note_on_c, 1, 61, 127
1, 102590, Note_off_c, 1, 61, 127
1, 102590, Note_off_c, 10, 69, 127
1, 102590, Note_off_c, 4, 76, 127
1, 102591, Note_on_c, 2, 62, 127
1, 102591, Note_on_c, 10, 69, 127
1, 102591, Note_on_c, 6, 78, 127
1, 102591, Note_on_c, 2, 74, 127
1, 102853, Note_off_c, 10, 81, 127
1, 102857, Note_off_c, 2, 74, 127
1, 102857, Note_off_c, 6, 78, 127
1, 102857, Note_off_c, 10, 69, 127
1, 102858, Note_on_c, 2, 50, 127
1, 102858, Note_on_c, 10, 81, 127
1, 102991, Note_off_c, 10, 81, 127
1, 102992, Note_on_c, 7, 79, 127
1, 103051, Note_off_c, 2, 62, 127
1, 103124, Note_off_c, 2, 50, 127
1, 103125, Note_off_c, 7, 79, 127
1, 103126, Note_on_c, 10, 81, 127
1, 103393, Note_off_c, 10, 81, 127
1, 103394, Note_on_c, 10, 57, 127
1, 103394, Note_on_c, 6, 78, 127
1, 103394, Note_on_c, 2, 74, 127
1, 103394, Note_on_c, 10, 81, 127
1, 103527, Note_off_c, 10, 57, 127
1, 103528, Note_on_c, 8, 56, 127
1, 103661, Note_off_c, 8, 56, 127
1, 103661, Note_off_c, 2, 74, 127
1, 103661, Note_off_c, 6, 78, 127
1, 103662, Note_on_c, 10, 57, 127
1, 103662, Note_on_c, 4, 76, 127
1, 103662, Note_on_c, 1, 73, 127
1, 103924, Note_off_c, 10, 81, 127
1, 103928, Note_off_c, 1, 73, 127
1, 103928, Note_off_c, 4, 76, 127
1, 103929, Note_on_c, 10, 45, 127
1, 103929, Note_on_c, 10, 81, 127
1, 104052, Note_off_c, 10, 57, 127
1, 104062, Note_off_c, 10, 81, 127
1, 104063, Note_on_c, 7, 79, 127
1, 104194, Note_off_c, 10, 45, 127
1, 104195, Note_off_c, 7, 79, 127
1, 104196, Note_on_c, 10, 81, 127
1, 104463, Note_off_c, 10, 81, 127
1, 104464, Note_on_c, 2, 50, 127
1, 104464, Note_on_c, 4, 76, 127
1, 104464, Note_on_c, 10, 69, 127
1, 104464, Note_on_c, 10, 81, 127
1, 104597, Note_off_c, 2, 50, 127
1, 104598, Note_on_c, 1, 49, 127
1, 104731, Note_off_c, 1, 49, 127
1, 104731, Note_off_c, 10, 81, 127
1, 104731, Note_off_c, 10, 69, 127
1, 104731, Note_off_c, 4, 76, 127
1, 104732, Note_on_c, 2, 50, 127
1, 104732, Note_on_c, 6, 78, 127
1, 104732, Note_on_c, 10, 69, 127
1, 104732, Note_on_c, 2, 74, 127
1, 104866, Note_off_c, 2, 74, 127
1, 104866, Note_off_c, 6, 78, 127
1, 104866, Note_off_c, 2, 50, 127
1, 104867, Note_on_c, 2, 38, 127
1, 104867, Note_on_c, 10, 81, 127
1, 105000, Note_off_c, 10, 69, 127
1, 105001, Note_off_c, 10, 81, 127
1, 105001, Note_off_c, 2, 38, 127
1, 105002, Note_on_c, 4, 40, 127
1, 105002, Note_on_c, 7, 79, 127
1, 105136, Note_off_c, 7, 79, 127
1, 105136, Note_off_c, 4, 40, 127
1, 105137, Note_on_c, 6, 42, 127
1, 105137, Note_on_c, 6, 78, 127
1, 105271, Note_off_c, 6, 78, 127
1, 105271, Note_off_c, 6, 42, 127
1, 105272, Note_on_c, 7, 43, 127
1, 105272, Note_on_c, 4, 76, 127
1, 105409, Note_off_c, 4, 76, 127
1, 105409, Note_off_c, 7, 43, 127
1, 105410, Note_on_c, 10, 45, 127
1, 105410, Note_on_c, 2, 74, 127
1, 105547, Note_off_c, 2, 74, 127
1, 105547, Note_off_c, 10, 45, 127
1, 105548, Note_on_c, 12, 47, 127
1, 105548, Note_on_c, 1, 73, 127
1, 105685, Note_off_c, 1, 73, 127
1, 105685, Note_off_c, 12, 47, 127
1, 105686, Note_on_c, 1, 49, 127
1, 105686, Note_on_c, 12, 71, 127
1, 105823, Note_off_c, 12, 71, 127
1, 105823, Note_off_c, 1, 49, 127
1, 105824, Note_on_c, 2, 50, 127
1, 105824, Note_on_c, 10, 69, 127
1, 105824, Note_on_c, 6, 66, 127
1, 105966, Note_off_c, 2, 50, 127
1, 105968, Note_on_c, 4, 52, 127
1, 106110, Note_off_c, 4, 52, 127
1, 106112, Note_on_c, 6, 54, 127
1, 106112, Note_on_c, 2, 74, 127
1, 106262, Note_off_c, 6, 54, 127
1, 106264, Note_on_c, 7, 55, 127
1, 106409, Note_off_c, 6, 66, 127
1, 106409, Note_off_c, 10, 69, 127
1, 106414, Note_off_c, 7, 55, 127
1, 106416, Note_on_c, 10, 57, 127
1, 106416, Note_on_c, 7, 67, 127
1, 106416, Note_on_c, 4, 64, 127
1, 106579, Note_off_c, 10, 57, 127
1, 106581, Note_on_c, 7, 55, 127
1, 106739, Note_off_c, 2, 74, 127
1, 106744, Note_off_c, 7, 55, 127
1, 106746, Note_on_c, 10, 57, 127
1, 106746, Note_on_c, 1, 73, 127
1, 106954, Note_on_c, 10, 45, 127
1, 107122, Note_off_c, 4, 64, 127
1, 107122, Note_off_c, 7, 67, 127
1, 107126, Note_off_c, 10, 57, 127
1, 107148, Note_off_c, 1, 73, 127
1, 107154, Note_off_c, 10, 45, 127
1, 107178, Note_on_c, 2, 74, 127
1, 107178, Note_on_c, 10, 69, 127
1, 107178, Note_on_c, 6, 66, 127
1, 107178, Note_on_c, 2, 50, 127
1, 107178, Note_on_c, 2, 38, 127
1, 109578, Note_off_c, 2, 38, 127
1, 109578, Note_off_c, 2, 50, 127
1, 109578, Note_off_c, 6, 66, 127
1, 109578, Note_off_c, 10, 69, 127
1, 109578, Note_off_c, 2, 74, 127
1, 112554, Note_on_c, 2, 50, 127
1, 112554, Note_on_c, 6, 78, 127
1, 112554, Note_on_c, 10, 69, 127
1, 112554, Note_on_c, 2, 74, 127
1, 113032, Note_off_c, 2, 74, 127
1, 113032, Note_off_c, 10, 69, 127
1, 113032, Note_off_c, 6, 78, 127
1, 113032, Note_off_c, 2, 50, 127
1, 113034, Note_on_c, 2, 50, 127
1, 113034, Note_on_c, 6, 78, 127
1, 113034, Note_on_c, 10, 69, 127
1, 113034, Note_on_c, 2, 74, 127
1, 113512, Note_off_c, 2, 74, 127
1, 113512, Note_off_c, 10, 69, 127
1, 113512, Note_off_c, 6, 78, 127
1, 113512, Note_off_c, 2, 50, 127
1, 113514, Note_on_c, 2, 50, 127
1, 113514, Note_on_c, 6, 78, 127
1, 113514, Note_on_c, 2, 74, 127
1, 113514, Note_on_c, 10, 69, 127
1, 113992, Note_off_c, 10, 69, 127
1, 113992, Note_off_c, 2, 74, 127
1, 113992, Note_off_c, 6, 78, 127
1, 113992, Note_off_c, 2, 50, 127
1, 113994, Note_on_c, 2, 50, 127
1, 113994, Note_on_c, 6, 78, 127
1, 113994, Note_on_c, 10, 69, 127
1, 113994, Note_on_c, 2, 74, 127
1, 114472, Note_off_c, 2, 74, 127
1, 114472, Note_off_c, 10, 69, 127
1, 114472, Note_off_c, 6, 78, 127
1, 114472, Note_off_c, 2, 50, 127
1, 114474, Note_on_c, 2, 50, 127
1, 114474, Note_on_c, 6, 78, 127
1, 114474, Note_on_c, 10, 69, 127
1, 114474, Note_on_c, 2, 74, 127
1, 114952, Note_off_c, 2, 74, 127
1, 114952, Note_off_c, 10, 69, 127
1, 114952, Note_off_c, 6, 78, 127
1, 114952, Note_off_c, 2, 50, 127
1, 114954, Note_on_c, 2, 50, 127
1, 114954, Note_on_c, 6, 78, 127
1, 114954, Note_on_c, 2, 74, 127
1, 114954, Note_on_c, 10, 69, 127
1, 115432, Note_off_c, 10, 69, 127
1, 115432, Note_off_c, 2, 74, 127
1, 115432, Note_off_c, 6, 78, 127
1, 115432, Note_off_c, 2, 50, 127
1, 115434, Note_on_c, 4, 52, 127
1, 115434, Note_on_c, 7, 67, 127
1, 115434, Note_on_c, 7, 79, 127
1, 115434, Note_on_c, 2, 74, 127
1, 115912, Note_off_c, 2, 74, 127
1, 115912, Note_off_c, 7, 79, 127
1, 115912, Note_off_c, 7, 67, 127
1, 115912, Note_off_c, 4, 52, 127
1, 115914, Note_on_c, 4, 52, 127
1, 115914, Note_on_c, 7, 67, 127
1, 115914, Note_on_c, 2, 74, 127
1, 115914, Note_on_c, 7, 79, 127
1, 116392, Note_off_c, 7, 79, 127
1, 116392, Note_off_c, 2, 74, 127
1, 116392, Note_off_c, 7, 67, 127
1, 116392, Note_off_c, 4, 52, 127
1, 116394, Note_on_c, 10, 45, 127
1, 116394, Note_on_c, 7, 79, 127
1, 116394, Note_on_c, 1, 73, 127
1, 116394, Note_on_c, 10, 69, 127
1, 116872, Note_off_c, 10, 69, 127
1, 116872, Note_off_c, 1, 73, 127
1, 116872, Note_off_c, 7, 79, 127
1, 116872, Note_off_c, 10, 45, 127
1, 116874, Note_on_c, 10, 45, 127
1, 116874, Note_on_c, 7, 79, 127
1, 116874, Note_on_c, 1, 73, 127
1, 116874, Note_on_c, 10, 69, 127
1, 117352, Note_off_c, 10, 69, 127
1, 117352, Note_off_c, 1, 73, 127
1, 117352, Note_off_c, 7, 79, 127
1, 117352, Note_off_c, 10, 45, 127
1, 117354, Note_on_c, 10, 45, 127
1, 117354, Note_on_c, 1, 73, 127
1, 117354, Note_on_c, 10, 69, 127
1, 117354, Note_on_c, 7, 79, 127
1, 117832, Note_off_c, 7, 79, 127
1, 117832, Note_off_c, 10, 69, 127
1, 117832, Note_off_c, 1, 73, 127
1, 117832, Note_off_c, 10, 45, 127
1, 117834, Note_on_c, 10, 45, 127
1, 117834, Note_on_c, 1, 73, 127
1, 117834, Note_on_c, 10, 69, 127
1, 117834, Note_on_c, 7, 79, 127
1, 118312, Note_off_c, 7, 79, 127
1, 118312, Note_off_c, 10, 69, 127
1, 118312, Note_off_c, 1, 73, 127
1, 118312, Note_off_c, 10, 45, 127
1, 118314, Note_on_c, 2, 50, 127
1, 118314, Note_on_c, 10, 69, 127
1, 118314, Note_on_c, 7, 79, 127
1, 118314, Note_on_c, 2, 74, 127
1, 118792, Note_off_c, 2, 74, 127
1, 118792, Note_off_c, 7, 79, 127
1, 118792, Note_off_c, 10, 69, 127
1, 118792, Note_off_c, 2, 50, 127
1, 118794, Note_on_c, 2, 50, 127
1, 118794, Note_on_c, 2, 74, 127
1, 118794, Note_on_c, 10, 69, 127
1, 118794, Note_on_c, 7, 79, 127
1, 119272, Note_off_c, 7, 79, 127
1, 119272, Note_off_c, 10, 69, 127
1, 119272, Note_off_c, 2, 74, 127
1, 119272, Note_off_c, 2, 50, 127
1, 119274, Note_on_c, 2, 50, 127
1, 119274, Note_on_c, 2, 74, 127
1, 119274, Note_on_c, 10, 69, 127
1, 119274, Note_on_c, 6, 78, 127
1, 119752, Note_off_c, 6, 78, 127
1, 119752, Note_off_c, 10, 69, 127
1, 119752, Note_off_c, 2, 74, 127
1, 119752, Note_off_c, 2, 50, 127
1, 119754, Note_on_c, 2, 50, 127
1, 119754, Note_on_c, 10, 69, 127
1, 119754, Note_on_c, 6, 78, 127
1, 119754, Note_on_c, 2, 74, 127
1, 120232, Note_off_c, 2, 74, 127
1, 120232, Note_off_c, 6, 78, 127
1, 120232, Note_off_c, 10, 69, 127
1, 120232, Note_off_c, 2, 50, 127
1, 120242, Note_on_c, 2, 62, 127
1, 120242, Note_on_c, 10, 69, 127
1, 120242, Note_on_c, 2, 74, 127
1, 120242, Note_on_c, 5, 77, 127
1, 120720, Note_off_c, 5, 77, 127
1, 120720, Note_off_c, 2, 74, 127
1, 120720, Note_off_c, 10, 69, 127
1, 120720, Note_off_c, 2, 62, 127
1, 120722, Note_on_c, 2, 62, 127
1, 120722, Note_on_c, 2, 74, 127
1, 120722, Note_on_c, 10, 69, 127
1, 120722, Note_on_c, 5, 77, 127
1, 121200, Note_off_c, 5, 77, 127
1, 121200, Note_off_c, 10, 69, 127
1, 121200, Note_off_c, 2, 74, 127
1, 121200, Note_off_c, 2, 62, 127
1, 121202, Note_on_c, 8, 56, 127
1, 121202, Note_on_c, 2, 74, 127
1, 121202, Note_on_c, 12, 71, 127
1, 121202, Note_on_c, 5, 77, 127
1, 121680, Note_off_c, 5, 77, 127
1, 121680, Note_off_c, 12, 71, 127
1, 121680, Note_off_c, 2, 74, 127
1, 121680, Note_off_c, 8, 56, 127
1, 121682, Note_on_c, 8, 56, 127
1, 121682, Note_on_c, 12, 71, 127
1, 121682, Note_on_c, 5, 77, 127
1, 121682, Note_on_c, 2, 74, 127
1, 122160, Note_off_c, 2, 74, 127
1, 122160, Note_off_c, 5, 77, 127
1, 122160, Note_off_c, 12, 71, 127
1, 122160, Note_off_c, 8, 56, 127
1, 122162, Note_on_c, 10, 57, 127
1, 122162, Note_on_c, 4, 64, 127
1, 122162, Note_on_c, 4, 76, 127
1, 122162, Note_on_c, 2, 74, 127
1, 122640, Note_off_c, 2, 74, 127
1, 122640, Note_off_c, 4, 76, 127
1, 122640, Note_off_c, 10, 57, 127
1, 122642, Note_off_c, 4, 64, 127
1, 122642, Note_on_c, 10, 57, 127
1, 122642, Note_on_c, 4, 64, 127
1, 122642, Note_on_c, 4, 76, 127
1, 122642, Note_on_c, 2, 74, 127
1, 123120, Note_off_c, 2, 74, 127
1, 123120, Note_off_c, 4, 76, 127
1, 123120, Note_off_c, 4, 64, 127
1, 123120, Note_off_c, 10, 57, 127
1, 123130, Note_on_c, 10, 45, 127
1, 123130, Note_on_c, 7, 67, 127
1, 123130, Note_on_c, 1, 73, 127
1, 123130, Note_on_c, 4, 76, 127
1, 123618, Note_off_c, 4, 76, 127
1, 123618, Note_off_c, 1, 73, 127
1, 123618, Note_off_c, 7, 67, 127
1, 123618, Note_off_c, 10, 45, 127
1, 123634, Note_on_c, 1, 73, 127
1, 123634, Note_on_c, 4, 76, 127
1, 123634, Note_on_c, 7, 67, 127
1, 123634, Note_on_c, 10, 45, 127
1, 124122, Note_off_c, 10, 45, 127
1, 124122, Note_off_c, 7, 67, 127
1, 124122, Note_off_c, 4, 76, 127
1, 124122, Note_off_c, 1, 73, 127
1, 124138, Note_on_c, 2, 50, 127
1, 124138, Note_on_c, 2, 74, 127
1, 124138, Note_on_c, 6, 66, 127
1, 125038, Note_off_c, 6, 66, 127
1, 125038, Note_off_c, 2, 74, 127
1, 125136, Note_on_c, 6, 78, 127
1, 125254, Note_off_c, 6, 78, 127
1, 125261, Note_on_c, 4, 76, 127
1, 125338, Note_off_c, 2, 50, 127
1, 125379, Note_off_c, 4, 76, 127
1, 125386, Note_on_c, 6, 78, 127
1, 125386, Note_on_c, 2, 62, 127
1, 125624, Note_off_c, 6, 78, 127
1, 125626, Note_on_c, 2, 74, 127
1, 125864, Note_off_c, 2, 74, 127
1, 125864, Note_off_c, 2, 62, 127
1, 125866, Note_on_c, 2, 74, 127
1, 125866, Note_on_c, 2, 62, 127
1, 126104, Note_off_c, 2, 74, 127
1, 126106, Note_on_c, 6, 78, 127
1, 126224, Note_off_c, 6, 78, 127
1, 126226, Note_on_c, 4, 76, 127
1, 126344, Note_off_c, 4, 76, 127
1, 126344, Note_off_c, 2, 62, 127
1, 126346, Note_on_c, 6, 78, 127
1, 126346, Note_on_c, 2, 62, 127
1, 126584, Note_off_c, 6, 78, 127
1, 126586, Note_on_c, 10, 69, 127
1, 126824, Note_off_c, 10, 69, 127
1, 126824, Note_off_c, 2, 62, 127
1, 126826, Note_on_c, 10, 69, 127
1, 126826, Note_on_c, 2, 62, 127
1, 127064, Note_off_c, 10, 69, 127
1, 127066, Note_on_c, 6, 78, 127
1, 127304, Note_off_c, 6, 78, 127
1, 127304, Note_off_c, 2, 62, 127
1, 127306, Note_on_c, 7, 79, 127
1, 127306, Note_on_c, 2, 62, 127
1, 127424, Note_off_c, 7, 79, 127
1, 127426, Note_on_c, 6, 78, 127
1, 127544, Note_off_c, 6, 78, 127
1, 127546, Note_on_c, 4, 76, 127
1, 127664, Note_off_c, 4, 76, 127
1, 127666, Note_on_c, 2, 74, 127
1, 127784, Note_off_c, 2, 74, 127
1, 127784, Note_off_c, 2, 62, 127
1, 127786, Note_on_c, 4, 76, 127
1, 127786, Note_on_c, 2, 62, 127
1, 127786, Note_on_c, 10, 57, 127
1, 128024, Note_off_c, 4, 76, 127
1, 128026, Note_on_c, 7, 79, 127
1, 128144, Note_off_c, 7, 79, 127
1, 128146, Note_on_c, 6, 78, 127
1, 128264, Note_off_c, 6, 78, 127
1, 128264, Note_off_c, 10, 57, 127
1, 128264, Note_off_c, 2, 62, 127
1, 128266, Note_on_c, 7, 79, 127
1, 128266, Note_on_c, 2, 62, 127
1, 128266, Note_on_c, 10, 57, 127
1, 128504, Note_off_c, 7, 79, 127
1, 128506, Note_on_c, 4, 76, 127
1, 128744, Note_off_c, 4, 76, 127
1, 128744, Note_off_c, 10, 57, 127
1, 128744, Note_off_c, 2, 62, 127
1, 128746, Note_on_c, 4, 76, 127
1, 128746, Note_on_c, 2, 62, 127
1, 128746, Note_on_c, 10, 57, 127
1, 128984, Note_off_c, 4, 76, 127
1, 128986, Note_on_c, 7, 79, 127
1, 129104, Note_off_c, 7, 79, 127
1, 129106, Note_on_c, 6, 78, 127
1, 129224, Note_off_c, 6, 78, 127
1, 129224, Note_off_c, 10, 57, 127
1, 129224, Note_off_c, 2, 62, 127
1, 129226, Note_on_c, 7, 79, 127
1, 129226, Note_on_c, 2, 62, 127
1, 129226, Note_on_c, 10, 57, 127
1, 129464, Note_off_c, 7, 79, 127
1, 129466, Note_on_c, 10, 69, 127
1, 129704, Note_off_c, 10, 69, 127
1, 129704, Note_off_c, 10, 57, 127
1, 129704, Note_off_c, 2, 62, 127
1, 129706, Note_on_c, 10, 69, 127
1, 129706, Note_on_c, 1, 61, 127
1, 129706, Note_on_c, 10, 57, 127
1, 129944, Note_off_c, 10, 69, 127
1, 129946, Note_on_c, 7, 79, 127
1, 130184, Note_off_c, 7, 79, 127
1, 130184, Note_off_c, 10, 57, 127
1, 130184, Note_off_c, 1, 61, 127
1, 130186, Note_on_c, 10, 81, 127
1, 130186, Note_on_c, 1, 61, 127
1, 130186, Note_on_c, 10, 57, 127
1, 130304, Note_off_c, 10, 81, 127
1, 130306, Note_on_c, 7, 79, 127
1, 130424, Note_off_c, 7, 79, 127
1, 130426, Note_on_c, 6, 78, 127
1, 130544, Note_off_c, 6, 78, 127
1, 130546, Note_on_c, 4, 76, 127
1, 130664, Note_off_c, 4, 76, 127
1, 130664, Note_off_c, 10, 57, 127
1, 130664, Note_off_c, 1, 61, 127
1, 130666, Note_on_c, 6, 78, 127
1, 130666, Note_on_c, 2, 62, 127
1, 130666, Note_on_c, 2, 50, 127
1, 131144, Note_off_c, 2, 50, 127
1, 131144, Note_off_c, 6, 78, 127
1, 131178, Note_on_c, 10, 69, 127
1, 131178, Note_on_c, 2, 74, 127
1, 131178, Note_on_c, 6, 78, 127
1, 131178, Note_on_c, 2, 50, 127
1, 131656, Note_off_c, 2, 50, 127
1, 131656, Note_off_c, 6, 78, 127
1, 131656, Note_off_c, 2, 74, 127
1, 131656, Note_off_c, 10, 69, 127
1, 131658, Note_on_c, 10, 69, 127
1, 131658, Note_on_c, 2, 74, 127
1, 131658, Note_on_c, 6, 78, 127
1, 131658, Note_on_c, 2, 50, 127
1, 132136, Note_off_c, 2, 50, 127
1, 132136, Note_off_c, 6, 78, 127
1, 132136, Note_off_c, 2, 74, 127
1, 132136, Note_off_c, 10, 69, 127
1, 132138, Note_on_c, 2, 74, 127
1, 132138, Note_on_c, 6, 78, 127
1, 132138, Note_on_c, 10, 69, 127
1, 132138, Note_on_c, 2, 50, 127
1, 132584, Note_off_c, 2, 62, 127
1, 132616, Note_off_c, 2, 50, 127
1, 132616, Note_off_c, 10, 69, 127
1, 132616, Note_off_c, 6, 78, 127
1, 132616, Note_off_c, 2, 74, 127
1, 132618, Note_on_c, 10, 69, 127
1, 132618, Note_on_c, 2, 74, 127
1, 132618, Note_on_c, 5, 77, 127
1, 132618, Note_on_c, 2, 62, 127
1, 133096, Note_off_c, 2, 62, 127
1, 133096, Note_off_c, 5, 77, 127
1, 133096, Note_off_c, 2, 74, 127
1, 133096, Note_off_c, 10, 69, 127
1, 133098, Note_on_c, 5, 77, 127
1, 133098, Note_on_c, 10, 69, 127
1, 133098, Note_on_c, 2, 74, 127
1, 133098, Note_on_c, 2, 62, 127
1, 133576, Note_off_c, 2, 62, 127
1, 133576, Note_off_c, 2, 74, 127
1, 133576, Note_off_c, 10, 69, 127
1, 133576, Note_off_c, 5, 77, 127
1, 133578, Note_on_c, 12, 71, 127
1, 133578, Note_on_c, 2, 74, 127
1, 133578, Note_on_c, 5, 77, 127
1, 133578, Note_on_c, 8, 56, 127
1, 134056, Note_off_c, 8, 56, 127
1, 134056, Note_off_c, 5, 77, 127
1, 134056, Note_off_c, 2, 74, 127
1, 134056, Note_off_c, 12, 71, 127
1, 134058, Note_on_c, 5, 77, 127
1, 134058, Note_on_c, 12, 71, 127
1, 134058, Note_on_c, 2, 74, 127
1, 134058, Note_on_c, 8, 56, 127
1, 134536, Note_off_c, 8, 56, 127
1, 134536, Note_off_c, 2, 74, 127
1, 134536, Note_off_c, 12, 71, 127
1, 134536, Note_off_c, 5, 77, 127
1, 134538, Note_on_c, 4, 76, 127
1, 134538, Note_on_c, 4, 64, 127
1, 134538, Note_on_c, 2, 74, 127
1, 134538, Note_on_c, 10, 57, 127
1, 135016, Note_off_c, 10, 57, 127
1, 135016, Note_off_c, 2, 74, 127
1, 135016, Note_off_c, 4, 64, 127
1, 135016, Note_off_c, 4, 76, 127
1, 135018, Note_on_c, 4, 64, 127
1, 135018, Note_on_c, 4, 76, 127
1, 135018, Note_on_c, 2, 74, 127
1, 135018, Note_on_c, 10, 57, 127
1, 135496, Note_off_c, 10, 57, 127
1, 135496, Note_off_c, 2, 74, 127
1, 135496, Note_off_c, 4, 76, 127
1, 135496, Note_off_c, 4, 64, 127
1, 135498, Note_on_c, 7, 67, 127
1, 135498, Note_on_c, 1, 73, 127
1, 135498, Note_on_c, 4, 76, 127
1, 135498, Note_on_c, 10, 45, 127
1, 135986, Note_off_c, 10, 45, 127
1, 135986, Note_off_c, 4, 76, 127
1, 135986, Note_off_c, 1, 73, 127
1, 135986, Note_off_c, 7, 67, 127
1, 135994, Note_on_c, 10, 45, 127
1, 135994, Note_on_c, 4, 76, 127
1, 135994, Note_on_c, 1, 73, 127
1, 135994, Note_on_c, 7, 67, 127
1, 136472, Note_off_c, 7, 67, 127
1, 136472, Note_off_c, 1, 73, 127
1, 136472, Note_off_c, 4, 76, 127
1, 136472, Note_off_c, 10, 45, 127
1, 136490, Note_on_c, 2, 74, 127
1, 136490, Note_on_c, 2, 50, 127
1, 137210, Note_off_c, 2, 74, 127
1, 137296, Note_on_c, 6, 78, 127
1, 137414, Note_off_c, 6, 78, 127
1, 137421, Note_on_c, 4, 76, 127
1, 137539, Note_off_c, 4, 76, 127
1, 137546, Note_on_c, 2, 62, 127
1, 137546, Note_on_c, 6, 78, 127
1, 137590, Note_off_c, 2, 50, 127
1, 137784, Note_off_c, 6, 78, 127
1, 137786, Note_on_c, 2, 74, 127
1, 138024, Note_off_c, 2, 74, 127
1, 138024, Note_off_c, 2, 62, 127
1, 138026, Note_on_c, 2, 62, 127
1, 138026, Note_on_c, 2, 74, 127
1, 138264, Note_off_c, 2, 74, 127
1, 138266, Note_on_c, 6, 78, 127
1, 138384, Note_off_c, 6, 78, 127
1, 138386, Note_on_c, 4, 76, 127
1, 138504, Note_off_c, 4, 76, 127
1, 138504, Note_off_c, 2, 62, 127
1, 138506, Note_on_c, 2, 62, 127
1, 138506, Note_on_c, 6, 78, 127
1, 138744, Note_off_c, 6, 78, 127
1, 138746, Note_on_c, 10, 69, 127
1, 138984, Note_off_c, 10, 69, 127
1, 138984, Note_off_c, 2, 62, 127
1, 138986, Note_on_c, 2, 62, 127
1, 138986, Note_on_c, 10, 69, 127
1, 139224, Note_off_c, 10, 69, 127
1, 139226, Note_on_c, 6, 78, 127
1, 139464, Note_off_c, 6, 78, 127
1, 139464, Note_off_c, 2, 62, 127
1, 139466, Note_on_c, 2, 62, 127
1, 139466, Note_on_c, 7, 79, 127
1, 139584, Note_off_c, 7, 79, 127
1, 139586, Note_on_c, 6, 78, 127
1, 139704, Note_off_c, 6, 78, 127
1, 139706, Note_on_c, 4, 76, 127
1, 139824, Note_off_c, 4, 76, 127
1, 139826, Note_on_c, 2, 74, 127
1, 139944, Note_off_c, 2, 74, 127
1, 139944, Note_off_c, 2, 62, 127
1, 139946, Note_on_c, 2, 62, 127
1, 139946, Note_on_c, 10, 57, 127
1, 139946, Note_on_c, 4, 76, 127
1, 140184, Note_off_c, 4, 76, 127
1, 140186, Note_on_c, 7, 79, 127
1, 140304, Note_off_c, 7, 79, 127
1, 140306, Note_on_c, 6, 78, 127
1, 140424, Note_off_c, 6, 78, 127
1, 140424, Note_off_c, 10, 57, 127
1, 140424, Note_off_c, 2, 62, 127
1, 140426, Note_on_c, 2, 62, 127
1, 140426, Note_on_c, 10, 57, 127
1, 140426, Note_on_c, 7, 79, 127
1, 140664, Note_off_c, 7, 79, 127
1, 140666, Note_on_c, 4, 76, 127
1, 140904, Note_off_c, 4, 76, 127
1, 140904, Note_off_c, 10, 57, 127
1, 140904, Note_off_c, 2, 62, 127
1, 140906, Note_on_c, 10, 57, 127
1, 140906, Note_on_c, 2, 62, 127
1, 140906, Note_on_c, 4, 76, 127
1, 141144, Note_off_c, 4, 76, 127
1, 141146, Note_on_c, 7, 79, 127
1, 141264, Note_off_c, 7, 79, 127
1, 141266, Note_on_c, 6, 78, 127
1, 141384, Note_off_c, 6, 78, 127
1, 141384, Note_off_c, 2, 62, 127
1, 141384, Note_off_c, 10, 57, 127
1, 141386, Note_on_c, 2, 62, 127
1, 141386, Note_on_c, 10, 57, 127
1, 141386, Note_on_c, 7, 79, 127
1, 141624, Note_off_c, 7, 79, 127
1, 141626, Note_on_c, 10, 69, 127
1, 141864, Note_off_c, 10, 69, 127
1, 141864, Note_off_c, 10, 57, 127
1, 141864, Note_off_c, 2, 62, 127
1, 141866, Note_on_c, 10, 57, 127
1, 141866, Note_on_c, 1, 61, 127
1, 141866, Note_on_c, 10, 69, 127
1, 142104, Note_off_c, 10, 69, 127
1, 142106, Note_on_c, 7, 79, 127
1, 142344, Note_off_c, 7, 79, 127
1, 142344, Note_off_c, 1, 61, 127
1, 142344, Note_off_c, 10, 57, 127
1, 142346, Note_on_c, 10, 57, 127
1, 142346, Note_on_c, 1, 61, 127
1, 142346, Note_on_c, 10, 81, 127
1, 142464, Note_off_c, 10, 81, 127
1, 142466, Note_on_c, 7, 79, 127
1, 142584, Note_off_c, 7, 79, 127
1, 142586, Note_on_c, 6, 78, 127
1, 142704, Note_off_c, 6, 78, 127
1, 142706, Note_on_c, 4, 76, 127
1, 142824, Note_off_c, 4, 76, 127
1, 142824, Note_off_c, 1, 61, 127
1, 142824, Note_off_c, 10, 57, 127
1, 142826, Note_on_c, 2, 62, 127
1, 142826, Note_on_c, 6, 78, 127
1, 143064, Note_off_c, 6, 78, 127
1, 143066, Note_on_c, 10, 81, 127
1, 143184, Note_off_c, 10, 81, 127
1, 143186, Note_on_c, 7, 79, 127
1, 143304, Note_off_c, 7, 79, 127
1, 143304, Note_off_c, 2, 62, 127
1, 143306, Note_on_c, 2, 62, 127
1, 143306, Note_on_c, 10, 81, 127
1, 143544, Note_off_c, 10, 81, 127
1, 143546, Note_on_c, 2, 74, 127
1, 143784, Note_off_c, 2, 74, 127
1, 143784, Note_off_c, 2, 62, 127
1, 143786, Note_on_c, 2, 62, 127
1, 143786, Note_on_c, 2, 74, 127
1, 144024, Note_off_c, 2, 74, 127
1, 144026, Note_on_c, 6, 78, 127
1, 144144, Note_off_c, 6, 78, 127
1, 144146, Note_on_c, 4, 76, 127
1, 144264, Note_off_c, 4, 76, 127
1, 144264, Note_off_c, 2, 62, 127
1, 144266, Note_on_c, 2, 62, 127
1, 144266, Note_on_c, 6, 78, 127
1, 144504, Note_off_c, 6, 78, 127
1, 144506, Note_on_c, 12, 71, 127
1, 144744, Note_off_c, 12, 71, 127
1, 144744, Note_off_c, 2, 62, 127
1, 144746, Note_on_c, 2, 62, 127
1, 144746, Note_on_c, 12, 71, 127
1, 144984, Note_off_c, 12, 71, 127
1, 144986, Note_on_c, 2, 74, 127
1, 145104, Note_off_c, 2, 74, 127
1, 145106, Note_on_c, 1, 73, 127
1, 145224, Note_off_c, 1, 73, 127
1, 145224, Note_off_c, 2, 62, 127
1, 145226, Note_on_c, 2, 62, 127
1, 145226, Note_on_c, 2, 74, 127
1, 145464, Note_off_c, 2, 74, 127
1, 145466, Note_on_c, 4, 64, 127
1, 145704, Note_off_c, 4, 64, 127
1, 145704, Note_off_c, 2, 62, 127
1, 145706, Note_on_c, 8, 56, 127
1, 145706, Note_on_c, 12, 59, 127
1, 145706, Note_on_c, 4, 64, 127
1, 145944, Note_off_c, 4, 64, 127
1, 145946, Note_on_c, 12, 71, 127
1, 146184, Note_off_c, 12, 71, 127
1, 146184, Note_off_c, 12, 59, 127
1, 146184, Note_off_c, 8, 56, 127
1, 146186, Note_on_c, 12, 59, 127
1, 146186, Note_on_c, 8, 56, 127
1, 146186, Note_on_c, 12, 71, 127
1, 146424, Note_off_c, 12, 71, 127
1, 146426, Note_on_c, 4, 76, 127
1, 146664, Note_off_c, 4, 76, 127
1, 146664, Note_off_c, 8, 56, 127
1, 146664, Note_off_c, 12, 59, 127
1, 146666, Note_on_c, 8, 56, 127
1, 146666, Note_on_c, 12, 59, 127
1, 146666, Note_on_c, 4, 76, 127
1, 146904, Note_off_c, 4, 76, 127
1, 146906, Note_on_c, 8, 68, 127
1, 147144, Note_off_c, 8, 68, 127
1, 147144, Note_off_c, 12, 59, 127
1, 147144, Note_off_c, 8, 56, 127
1, 147146, Note_on_c, 8, 56, 127
1, 147146, Note_on_c, 12, 59, 127
1, 147146, Note_on_c, 8, 68, 127
1, 147384, Note_off_c, 8, 68, 127
1, 147386, Note_on_c, 12, 71, 127
1, 147624, Note_off_c, 12, 71, 127
1, 147624, Note_off_c, 12, 59, 127
1, 147624, Note_off_c, 8, 56, 127
1, 147626, Note_on_c, 8, 56, 127
1, 147626, Note_on_c, 12, 59, 127
1, 147626, Note_on_c, 12, 71, 127
1, 147864, Note_off_c, 12, 71, 127
1, 147866, Note_on_c, 4, 64, 127
1, 148104, Note_off_c, 4, 64, 127
1, 148104, Note_off_c, 12, 59, 127
1, 148104, Note_off_c, 8, 56, 127
1, 148106, Note_on_c, 12, 59, 127
1, 148106, Note_on_c, 8, 56, 127
1, 148106, Note_on_c, 4, 64, 127
1, 148344, Note_off_c, 4, 64, 127
1, 148346, Note_on_c, 2, 74, 127
1, 148584, Note_off_c, 2, 74, 127
1, 148584, Note_off_c, 8, 56, 127
1, 148584, Note_off_c, 12, 59, 127
1, 148586, Note_on_c, 10, 57, 127
1, 148586, Note_on_c, 4, 64, 127
1, 148586, Note_on_c, 2, 74, 127
1, 148824, Note_off_c, 2, 74, 127
1, 148826, Note_on_c, 1, 73, 127
1, 149064, Note_off_c, 1, 73, 127
1, 149064, Note_off_c, 4, 64, 127
1, 149064, Note_off_c, 10, 57, 127
1, 149066, Note_on_c, 10, 57, 127
1, 149066, Note_on_c, 4, 64, 127
1, 149066, Note_on_c, 1, 73, 127
1, 149304, Note_off_c, 1, 73, 127
1, 149306, Note_on_c, 4, 76, 127
1, 149544, Note_off_c, 4, 76, 127
1, 149544, Note_off_c, 4, 64, 127
1, 149544, Note_off_c, 10, 57, 127
1, 149546, Note_on_c, 1, 61, 127
1, 149546, Note_on_c, 10, 57, 127
1, 149546, Note_on_c, 4, 76, 127
1, 149784, Note_off_c, 4, 76, 127
1, 149786, Note_on_c, 10, 69, 127
1, 150024, Note_off_c, 10, 69, 127
1, 150024, Note_off_c, 10, 57, 127
1, 150024, Note_off_c, 1, 61, 127
1, 150026, Note_on_c, 1, 61, 127
1, 150026, Note_on_c, 10, 57, 127
1, 150026, Note_on_c, 10, 69, 127
1, 150264, Note_off_c, 10, 69, 127
1, 150266, Note_on_c, 4, 76, 127
1, 150504, Note_off_c, 4, 76, 127
1, 150504, Note_off_c, 10, 57, 127
1, 150504, Note_off_c, 1, 61, 127
1, 150506, Note_on_c, 2, 62, 127
1, 150506, Note_on_c, 6, 78, 127
1, 150746, Note_on_c, 10, 69, 127
1, 150984, Note_off_c, 10, 69, 127
1, 150984, Note_off_c, 2, 62, 127
1, 150986, Note_on_c, 2, 62, 127
1, 150986, Note_on_c, 10, 69, 127
1, 151206, Note_off_c, 6, 78, 127
1, 151224, Note_off_c, 10, 69, 127
1, 151226, Note_on_c, 6, 78, 127
1, 151464, Note_off_c, 6, 78, 127
1, 151464, Note_off_c, 2, 62, 127
1, 151466, Note_on_c, 2, 62, 127
1, 151466, Note_on_c, 8, 56, 127
1, 151466, Note_on_c, 4, 76, 127
1, 151776, Note_off_c, 4, 76, 127
1, 151826, Note_on_c, 6, 78, 127
1, 151944, Note_off_c, 6, 78, 127
1, 151944, Note_off_c, 8, 56, 127
1, 151944, Note_off_c, 2, 62, 127
1, 151946, Note_on_c, 8, 56, 127
1, 151946, Note_on_c, 2, 62, 127
1, 151946, Note_on_c, 4, 76, 127
1, 152256, Note_off_c, 4, 76, 127
1, 152306, Note_on_c, 6, 78, 127
1, 152424, Note_off_c, 6, 78, 127
1, 152424, Note_off_c, 2, 62, 127
1, 152424, Note_off_c, 8, 56, 127
1, 152426, Note_on_c, 10, 57, 127
1, 152426, Note_on_c, 1, 61, 127
1, 152426, Note_on_c, 4, 76, 127
1, 152664, Note_off_c, 4, 76, 127
1, 152666, Note_on_c, 6, 78, 127
1, 152784, Note_off_c, 6, 78, 127
1, 152786, Note_on_c, 4, 76, 127
1, 152904, Note_off_c, 4, 76, 127
1, 152904, Note_off_c, 1, 61, 127
1, 152904, Note_off_c, 10, 57, 127
1, 152906, Note_on_c, 2, 62, 127
1, 152906, Note_on_c, 2, 74, 127
1, 153144, Note_off_c, 2, 74, 127
1, 153146, Note_on_c, 1, 73, 127
1, 153384, Note_off_c, 1, 73, 127
1, 153384, Note_off_c, 2, 62, 127
1, 153386, Note_on_c, 4, 64, 127
1, 153386, Note_on_c, 1, 73, 127
1, 153546, Note_on_c, 12, 71, 127
1, 153564, Note_off_c, 1, 73, 127
1, 153624, Note_off_c, 12, 71, 127
1, 153626, Note_on_c, 1, 73, 127
1, 153704, Note_off_c, 1, 73, 127
1, 153706, Note_on_c, 12, 71, 127
1, 153784, Note_off_c, 12, 71, 127
1, 153786, Note_on_c, 1, 73, 127
1, 153864, Note_off_c, 1, 73, 127
1, 153864, Note_off_c, 4, 64, 127
1, 153866, Note_on_c, 4, 52, 127
1, 153866, Note_on_c, 2, 62, 127
1, 153866, Note_on_c, 12, 71, 127
1, 154104, Note_off_c, 12, 71, 127
1, 154106, Note_on_c, 10, 69, 127
1, 154344, Note_off_c, 10, 69, 127
1, 154344, Note_off_c, 2, 62, 127
1, 154344, Note_off_c, 4, 52, 127
1, 154346, Note_on_c, 10, 57, 127
1, 154346, Note_on_c, 1, 61, 127
1, 154346, Note_on_c, 10, 69, 127
1, 154824, Note_off_c, 1, 61, 127
1, 154824, Note_off_c, 10, 57, 127
1, 154826, Note_on_c, 1, 61, 127
1, 154826, Note_on_c, 10, 57, 127
1, 155296, Note_off_c, 10, 69, 127
1, 155304, Note_off_c, 10, 57, 127
1, 155304, Note_off_c, 1, 61, 127
1, 155306, Note_on_c, 1, 61, 127
1, 155306, Note_on_c, 10, 57, 127
1, 155546, Note_on_c, 10, 81, 127
1, 155784, Note_off_c, 10, 81, 127
1, 155784, Note_off_c, 10, 57, 127
1, 155784, Note_off_c, 1, 61, 127
1, 155786, Note_on_c, 1, 61, 127
1, 155786, Note_on_c, 10, 57, 127
1, 155786, Note_on_c, 10, 81, 127
1, 156024, Note_off_c, 10, 81, 127
1, 156026, Note_on_c, 10, 81, 127
1, 156264, Note_off_c, 10, 81, 127
1, 156264, Note_off_c, 10, 57, 127
1, 156264, Note_off_c, 1, 61, 127
1, 156266, Note_on_c, 1, 61, 127
1, 156266, Note_on_c, 10, 57, 127
1, 156266, Note_on_c, 10, 81, 127
1, 156504, Note_off_c, 10, 81, 127
1, 156506, Note_on_c, 12, 83, 127
1, 156624, Note_off_c, 12, 83, 127
1, 156626, Note_on_c, 10, 81, 127
1, 156744, Note_off_c, 10, 81, 127
1, 156744, Note_off_c, 10, 57, 127
1, 156744, Note_off_c, 1, 61, 127
1, 156746, Note_on_c, 1, 61, 127
1, 156746, Note_on_c, 10, 57, 127
1, 156746, Note_on_c, 12, 83, 127
1, 156864, Note_off_c, 12, 83, 127
1, 156866, Note_on_c, 10, 81, 127
1, 156984, Note_off_c, 10, 81, 127
1, 156986, Note_on_c, 7, 79, 127
1, 157104, Note_off_c, 7, 79, 127
1, 157106, Note_on_c, 6, 78, 127
1, 157224, Note_off_c, 6, 78, 127
1, 157224, Note_off_c, 10, 57, 127
1, 157224, Note_off_c, 1, 61, 127
1, 157226, Note_on_c, 10, 57, 127
1, 157226, Note_on_c, 1, 61, 127
1, 157226, Note_on_c, 7, 79, 127
1, 157344, Note_off_c, 7, 79, 127
1, 157346, Note_on_c, 6, 78, 127
1, 157464, Note_off_c, 6, 78, 127
1, 157466, Note_on_c, 4, 76, 127
1, 157584, Note_off_c, 4, 76, 127
1, 157586, Note_on_c, 6, 78, 127
1, 157704, Note_off_c, 6, 78, 127
1, 157704, Note_off_c, 1, 61, 127
1, 157704, Note_off_c, 10, 57, 127
1, 157706, Note_on_c, 1, 61, 127
1, 157706, Note_on_c, 10, 57, 127
1, 157706, Note_on_c, 7, 79, 127
1, 157826, Note_on_c, 6, 78, 127
1, 157834, Note_off_c, 7, 79, 127
1, 157944, Note_off_c, 6, 78, 127
1, 157946, Note_on_c, 4, 76, 127
1, 158066, Note_on_c, 6, 78, 127
1, 158078, Note_off_c, 4, 76, 127
1, 158183, Note_off_c, 10, 57, 127
1, 158183, Note_off_c, 1, 61, 127
1, 158185, Note_on_c, 1, 61, 127
1, 158185, Note_on_c, 10, 57, 127
1, 158185, Note_on_c, 7, 79, 127
1, 158193, Note_off_c, 6, 78, 127
1, 158305, Note_off_c, 7, 79, 127
1, 158305, Note_on_c, 6, 78, 127
1, 158423, Note_off_c, 6, 78, 127
1, 158425, Note_on_c, 4, 76, 127
1, 158543, Note_off_c, 4, 76, 127
1, 158545, Note_on_c, 6, 78, 127
1, 158663, Note_off_c, 10, 57, 127
1, 158663, Note_off_c, 1, 61, 127
1, 158665, Note_off_c, 6, 78, 127
1, 158665, Note_on_c, 1, 61, 127
1, 158665, Note_on_c, 10, 57, 127
1, 158665, Note_on_c, 7, 79, 127
1, 158783, Note_off_c, 7, 79, 127
1, 158785, Note_on_c, 6, 78, 127
1, 158905, Note_on_c, 4, 76, 127
1, 158915, Note_off_c, 6, 78, 127
1, 159025, Note_on_c, 6, 78, 127
1, 159027, Note_off_c, 4, 76, 127
1, 159142, Note_off_c, 6, 78, 127
1, 159142, Note_off_c, 10, 57, 127
1, 159142, Note_off_c, 1, 61, 127
1, 159144, Note_on_c, 1, 61, 127
1, 159144, Note_on_c, 10, 57, 127
1, 159144, Note_on_c, 7, 79, 127
1, 159382, Note_off_c, 7, 79, 127
1, 159384, Note_on_c, 10, 81, 127
1, 159502, Note_off_c, 10, 81, 127
1, 159504, Note_on_c, 7, 79, 127
1, 159622, Note_off_c, 10, 57, 127
1, 159622, Note_off_c, 1, 61, 127
1, 159624, Note_on_c, 10, 57, 127
1, 159624, Note_on_c, 1, 61, 127
1, 159624, Note_on_c, 10, 81, 127
1, 159629, Note_off_c, 7, 79, 127
1, 159741, Note_off_c, 10, 81, 127
1, 159743, Note_on_c, 7, 79, 127
1, 159861, Note_off_c, 7, 79, 127
1, 159863, Note_on_c, 6, 78, 127
1, 159983, Note_off_c, 6, 78, 127
1, 159983, Note_on_c, 4, 76, 127
1, 160101, Note_off_c, 1, 61, 127
1, 160101, Note_off_c, 10, 57, 127
1, 160103, Note_on_c, 2, 62, 127
1, 160103, Note_on_c, 6, 78, 127
1, 160113, Note_off_c, 4, 76, 127
1, 160221, Note_off_c, 6, 78, 127
1, 160223, Note_on_c, 4, 76, 127
1, 160341, Note_off_c, 4, 76, 127
1, 160343, Note_on_c, 6, 78, 127
1, 160461, Note_off_c, 6, 78, 127
1, 160463, Note_on_c, 4, 76, 127
1, 160581, Note_off_c, 4, 76, 127
1, 160581, Note_off_c, 2, 62, 127
1, 160583, Note_on_c, 2, 62, 127
1, 160583, Note_on_c, 2, 74, 127
1, 161061, Note_off_c, 2, 62, 127
1, 161063, Note_on_c, 2, 62, 127
1, 161301, Note_off_c, 2, 74, 127
1, 161303, Note_on_c, 6, 78, 127
1, 161541, Note_off_c, 6, 78, 127
1, 161541, Note_off_c, 2, 62, 127
1, 161543, Note_on_c, 2, 62, 127
1, 161543, Note_on_c, 6, 78, 127
1, 161781, Note_off_c, 6, 78, 127
1, 161783, Note_on_c, 6, 78, 127
1, 162021, Note_off_c, 6, 78, 127
1, 162021, Note_off_c, 2, 62, 127
1, 162023, Note_on_c, 2, 62, 127
1, 162023, Note_on_c, 6, 78, 127
1, 162261, Note_off_c, 6, 78, 127
1, 162263, Note_on_c, 7, 79, 127
1, 162381, Note_off_c, 7, 79, 127
1, 162383, Note_on_c, 6, 78, 127
1, 162501, Note_off_c, 6, 78, 127
1, 162501, Note_off_c, 2, 62, 127
1, 162503, Note_on_c, 2, 62, 127
1, 162503, Note_on_c, 7, 79, 127
1, 162621, Note_off_c, 7, 79, 127
1, 162623, Note_on_c, 6, 78, 127
1, 162741, Note_off_c, 6, 78, 127
1, 162743, Note_on_c, 4, 76, 127
1, 162861, Note_off_c, 4, 76, 127
1, 162863, Note_on_c, 2, 74, 127
1, 162981, Note_off_c, 2, 74, 127
1, 162981, Note_off_c, 2, 62, 127
1, 162983, Note_on_c, 1, 61, 127
1, 162983, Note_on_c, 11, 58, 127
1, 162983, Note_on_c, 4, 76, 127
1, 163101, Note_off_c, 4, 76, 127
1, 163103, Note_on_c, 2, 74, 127
1, 163221, Note_off_c, 2, 74, 127
1, 163223, Note_on_c, 1, 73, 127
1, 163341, Note_off_c, 1, 73, 127
1, 163343, Note_on_c, 2, 74, 127
1, 163461, Note_off_c, 2, 74, 127
1, 163461, Note_off_c, 11, 58, 127
1, 163461, Note_off_c, 1, 61, 127
1, 163463, Note_on_c, 1, 61, 127
1, 163463, Note_on_c, 11, 58, 127
1, 163463, Note_on_c, 4, 76, 127
1, 163581, Note_off_c, 4, 76, 127
1, 163583, Note_on_c, 2, 74, 127
1, 163701, Note_off_c, 2, 74, 127
1, 163703, Note_on_c, 1, 73, 127
1, 163821, Note_off_c, 1, 73, 127
1, 163823, Note_on_c, 2, 74, 127
1, 163941, Note_off_c, 2, 74, 127
1, 163941, Note_off_c, 11, 58, 127
1, 163941, Note_off_c, 1, 61, 127
1, 163943, Note_on_c, 1, 61, 127
1, 163943, Note_on_c, 11, 58, 127
1, 163943, Note_on_c, 4, 76, 127
1, 164061, Note_off_c, 4, 76, 127
1, 164063, Note_on_c, 2, 74, 127
1, 164181, Note_off_c, 2, 74, 127
1, 164183, Note_on_c, 1, 73, 127
1, 164301, Note_off_c, 1, 73, 127
1, 164303, Note_on_c, 2, 74, 127
1, 164421, Note_off_c, 2, 74, 127
1, 164421, Note_off_c, 11, 58, 127
1, 164421, Note_off_c, 1, 61, 127
1, 164423, Note_on_c, 1, 61, 127
1, 164423, Note_on_c, 11, 58, 127
1, 164423, Note_on_c, 4, 76, 127
1, 164541, Note_off_c, 4, 76, 127
1, 164543, Note_on_c, 2, 74, 127
1, 164661, Note_off_c, 2, 74, 127
1, 164663, Note_on_c, 1, 73, 127
1, 164781, Note_off_c, 1, 73, 127
1, 164783, Note_on_c, 2, 74, 127
1, 164901, Note_off_c, 2, 74, 127
1, 164901, Note_off_c, 11, 58, 127
1, 164901, Note_off_c, 1, 61, 127
1, 164903, Note_on_c, 11, 58, 127
1, 164903, Note_on_c, 1, 61, 127
1, 164903, Note_on_c, 4, 76, 127
1, 165141, Note_off_c, 4, 76, 127
1, 165143, Note_on_c, 6, 78, 127
1, 165261, Note_off_c, 6, 78, 127
1, 165263, Note_on_c, 4, 76, 127
1, 165381, Note_off_c, 4, 76, 127
1, 165381, Note_off_c, 1, 61, 127
1, 165381, Note_off_c, 11, 58, 127
1, 165383, Note_on_c, 11, 58, 127
1, 165383, Note_on_c, 1, 61, 127
1, 165383, Note_on_c, 6, 78, 127
1, 165501, Note_off_c, 6, 78, 127
1, 165503, Note_on_c, 4, 76, 127
1, 165621, Note_off_c, 4, 76, 127
1, 165623, Note_on_c, 2, 74, 127
1, 165741, Note_off_c, 2, 74, 127
1, 165743, Note_on_c, 1, 73, 127
1, 165861, Note_off_c, 1, 73, 127
1, 165861, Note_off_c, 1, 61, 127
1, 165861, Note_off_c, 11, 58, 127
1, 165863, Note_on_c, 6, 66, 127
1, 165863, Note_on_c, 12, 59, 127
1, 165863, Note_on_c, 2, 74, 127
1, 166101, Note_off_c, 2, 74, 127
1, 166103, Note_on_c, 12, 71, 127
1, 166221, Note_off_c, 12, 71, 127
1, 166223, Note_on_c, 1, 73, 127
1, 166341, Note_off_c, 1, 73, 127
1, 166341, Note_off_c, 12, 59, 127
1, 166341, Note_off_c, 6, 66, 127
1, 166343, Note_on_c, 6, 66, 127
1, 166343, Note_on_c, 12, 59, 127
1, 166343, Note_on_c, 2, 74, 127
1, 166461, Note_off_c, 2, 74, 127
1, 166463, Note_on_c, 4, 76, 127
1, 166581, Note_off_c, 4, 76, 127
1, 166583, Note_on_c, 6, 78, 127
1, 166701, Note_off_c, 6, 78, 127
1, 166703, Note_on_c, 4, 76, 127
1, 166821, Note_off_c, 4, 76, 127
1, 166821, Note_off_c, 12, 59, 127
1, 166821, Note_off_c, 6, 66, 127
1, 166823, Note_on_c, 6, 66, 127
1, 166823, Note_on_c, 12, 59, 127
1, 166823, Note_on_c, 2, 74, 127
1, 167061, Note_off_c, 2, 74, 127
1, 167063, Note_on_c, 12, 71, 127
1, 167301, Note_off_c, 12, 71, 127
1, 167301, Note_off_c, 12, 59, 127
1, 167301, Note_off_c, 6, 66, 127
1, 167303, Note_on_c, 6, 66, 127
1, 167303, Note_on_c, 12, 59, 127
1, 167303, Note_on_c, 2, 74, 127
1, 167541, Note_off_c, 2, 74, 127
1, 167543, Note_on_c, 6, 78, 127
1, 167781, Note_off_c, 6, 78, 127
1, 167781, Note_off_c, 12, 59, 127
1, 167781, Note_off_c, 6, 66, 127
1, 167783, Note_on_c, 6, 66, 127
1, 167783, Note_on_c, 11, 58, 127
1, 167783, Note_on_c, 1, 73, 127
1, 168021, Note_off_c, 1, 73, 127
1, 168023, Note_on_c, 2, 74, 127
1, 168141, Note_off_c, 2, 74, 127
1, 168143, Note_on_c, 4, 76, 127
1, 168261, Note_off_c, 4, 76, 127
1, 168261, Note_off_c, 11, 58, 127
1, 168261, Note_off_c, 6, 66, 127
1, 168263, Note_on_c, 6, 66, 127
1, 168263, Note_on_c, 11, 58, 127
1, 168263, Note_on_c, 6, 78, 127
1, 168381, Note_off_c, 6, 78, 127
1, 168383, Note_on_c, 4, 76, 127
1, 168501, Note_off_c, 4, 76, 127
1, 168503, Note_on_c, 2, 74, 127
1, 168621, Note_off_c, 2, 74, 127
1, 168623, Note_on_c, 1, 73, 127
1, 168741, Note_off_c, 1, 73, 127
1, 168741, Note_off_c, 11, 58, 127
1, 168741, Note_off_c, 6, 66, 127
1, 168743, Note_on_c, 12, 59, 127
1, 168743, Note_on_c, 6, 66, 127
1, 168743, Note_on_c, 2, 74, 127
1, 168981, Note_off_c, 2, 74, 127
1, 168983, Note_on_c, 12, 71, 127
1, 169101, Note_off_c, 12, 71, 127
1, 169103, Note_on_c, 1, 73, 127
1, 169221, Note_off_c, 1, 73, 127
1, 169221, Note_off_c, 6, 66, 127
1, 169221, Note_off_c, 12, 59, 127
1, 169223, Note_on_c, 6, 66, 127
1, 169223, Note_on_c, 12, 59, 127
1, 169223, Note_on_c, 2, 74, 127
1, 169341, Note_off_c, 2, 74, 127
1, 169343, Note_on_c, 4, 76, 127
1, 169461, Note_off_c, 4, 76, 127
1, 169463, Note_on_c, 6, 78, 127
1, 169581, Note_off_c, 6, 78, 127
1, 169583, Note_on_c, 4, 76, 127
1, 169701, Note_off_c, 4, 76, 127
1, 169701, Note_off_c, 12, 59, 127
1, 169701, Note_off_c, 6, 66, 127
1, 169703, Note_on_c, 2, 62, 127
1, 169703, Note_on_c, 12, 71, 127
1, 169703, Note_on_c, 2, 74, 127
1, 169941, Note_off_c, 2, 74, 127
1, 169943, Note_on_c, 6, 78, 127
1, 170181, Note_off_c, 6, 78, 127
1, 170181, Note_off_c, 12, 71, 127
1, 170181, Note_off_c, 2, 62, 127
1, 170183, Note_on_c, 12, 71, 127
1, 170183, Note_on_c, 4, 64, 127
1, 170183, Note_on_c, 12, 83, 127
1, 170421, Note_off_c, 12, 83, 127
1, 170423, Note_on_c, 2, 74, 127
1, 170661, Note_off_c, 2, 74, 127
1, 170661, Note_off_c, 4, 64, 127
1, 170661, Note_off_c, 12, 71, 127
1, 170663, Note_on_c, 6, 66, 127
1, 170663, Note_on_c, 11, 70, 127
1, 170663, Note_on_c, 2, 74, 127
1, 170821, Note_off_c, 2, 74, 127
1, 170823, Note_on_c, 1, 73, 127
1, 170901, Note_off_c, 1, 73, 127
1, 170903, Note_on_c, 2, 74, 127
1, 170981, Note_off_c, 2, 74, 127
1, 170983, Note_on_c, 1, 73, 127
1, 171061, Note_off_c, 1, 73, 127
1, 171063, Note_on_c, 2, 74, 127
1, 171141, Note_off_c, 2, 74, 127
1, 171141, Note_off_c, 11, 70, 127
1, 171141, Note_off_c, 6, 66, 127
1, 171143, Note_on_c, 6, 66, 127
1, 171143, Note_on_c, 11, 70, 127
1, 171143, Note_on_c, 1, 73, 127
1, 171381, Note_off_c, 1, 73, 127
1, 171383, Note_on_c, 12, 71, 127
1, 171621, Note_off_c, 12, 71, 127
1, 171621, Note_off_c, 11, 70, 127
1, 171621, Note_off_c, 6, 66, 127
1, 171623, Note_on_c, 12, 59, 127
1, 171623, Note_on_c, 12, 71, 127
1, 171866, Note_off_c, 12, 71, 127
1, 171885, Note_on_c, 2, 74, 127
1, 172128, Note_off_c, 2, 74, 127
1, 172131, Note_on_c, 1, 73, 127
1, 172374, Note_off_c, 1, 73, 127
1, 172377, Note_on_c, 12, 71, 127
1, 172596, Note_off_c, 12, 59, 127
1, 172620, Note_off_c, 12, 71, 127
1, 172623, Note_on_c, 6, 78, 127
1, 172866, Note_off_c, 6, 78, 127
1, 172869, Note_on_c, 3, 75, 127
1, 173112, Note_off_c, 3, 75, 127
1, 173115, Note_on_c, 1, 73, 127
1, 173358, Note_off_c, 1, 73, 127
1, 173361, Note_on_c, 12, 71, 127
1, 173604, Note_off_c, 12, 71, 127
1, 173607, Note_on_c, 12, 83, 127
1, 173874, Note_off_c, 12, 83, 127
1, 173879, Note_on_c, 3, 75, 127
1, 174132, Note_off_c, 3, 75, 127
1, 174135, Note_on_c, 1, 73, 127
1, 174388, Note_off_c, 1, 73, 127
1, 174391, Note_on_c, 12, 71, 127
1, 174644, Note_off_c, 12, 71, 127
1, 174647, Note_on_c, 12, 59, 127
1, 174647, Note_on_c, 4, 52, 127
1, 174647, Note_on_c, 7, 79, 127
1, 174765, Note_off_c, 7, 79, 127
1, 174767, Note_on_c, 6, 78, 127
1, 174885, Note_off_c, 6, 78, 127
1, 174887, Note_on_c, 4, 76, 127
1, 175005, Note_off_c, 4, 76, 127
1, 175007, Note_on_c, 6, 78, 127
1, 175125, Note_off_c, 6, 78, 127
1, 175125, Note_off_c, 4, 52, 127
1, 175125, Note_off_c, 12, 59, 127
1, 175127, Note_on_c, 12, 59, 127
1, 175127, Note_on_c, 4, 52, 127
1, 175127, Note_on_c, 7, 79, 127
1, 175245, Note_off_c, 7, 79, 127
1, 175247, Note_on_c, 6, 78, 127
1, 175365, Note_off_c, 6, 78, 127
1, 175367, Note_on_c, 4, 76, 127
1, 175485, Note_off_c, 4, 76, 127
1, 175487, Note_on_c, 6, 78, 127
1, 175605, Note_off_c, 6, 78, 127
1, 175605, Note_off_c, 4, 52, 127
1, 175605, Note_off_c, 12, 59, 127
1, 175607, Note_on_c, 10, 57, 127
1, 175607, Note_on_c, 1, 61, 127
1, 175607, Note_on_c, 7, 79, 127
1, 175725, Note_off_c, 7, 79, 127
1, 175727, Note_on_c, 6, 78, 127
1, 175845, Note_off_c, 6, 78, 127
1, 175847, Note_on_c, 4, 76, 127
1, 175965, Note_off_c, 4, 76, 127
1, 175967, Note_on_c, 6, 78, 127
1, 176085, Note_off_c, 6, 78, 127
1, 176085, Note_off_c, 1, 61, 127
1, 176085, Note_off_c, 10, 57, 127
1, 176087, Note_on_c, 1, 61, 127
1, 176087, Note_on_c, 10, 57, 127
1, 176087, Note_on_c, 7, 79, 127
1, 176205, Note_off_c, 7, 79, 127
1, 176207, Note_on_c, 6, 78, 127
1, 176325, Note_off_c, 6, 78, 127
1, 176327, Note_on_c, 4, 76, 127
1, 176445, Note_off_c, 4, 76, 127
1, 176447, Note_on_c, 6, 78, 127
1, 176565, Note_off_c, 6, 78, 127
1, 176565, Note_off_c, 10, 57, 127
1, 176565, Note_off_c, 1, 61, 127
1, 176567, Note_on_c, 1, 61, 127
1, 176567, Note_on_c, 10, 57, 127
1, 176567, Note_on_c, 7, 79, 127
1, 176805, Note_off_c, 7, 79, 127
1, 176807, Note_on_c, 10, 81, 127
1, 176925, Note_off_c, 10, 81, 127
1, 176927, Note_on_c, 7, 79, 127
1, 177045, Note_off_c, 7, 79, 127
1, 177045, Note_off_c, 10, 57, 127
1, 177045, Note_off_c, 1, 61, 127
1, 177047, Note_on_c, 1, 61, 127
1, 177047, Note_on_c, 10, 57, 127
1, 177047, Note_on_c, 10, 81, 127
1, 177165, Note_off_c, 10, 81, 127
1, 177167, Note_on_c, 7, 79, 127
1, 177285, Note_off_c, 7, 79, 127
1, 177287, Note_on_c, 6, 78, 127
1, 177405, Note_off_c, 6, 78, 127
1, 177407, Note_on_c, 4, 76, 127
1, 177525, Note_off_c, 4, 76, 127
1, 177525, Note_off_c, 10, 57, 127
1, 177525, Note_off_c, 1, 61, 127
1, 177527, Note_on_c, 2, 62, 127
1, 177527, Note_on_c, 2, 50, 127
1, 177527, Note_on_c, 6, 78, 127
1, 177765, Note_off_c, 6, 78, 127
1, 177767, Note_on_c, 7, 79, 127
1, 177885, Note_off_c, 7, 79, 127
1, 177887, Note_on_c, 6, 78, 127
1, 178005, Note_off_c, 6, 78, 127
1, 178005, Note_off_c, 2, 50, 127
1, 178005, Note_off_c, 2, 62, 127
1, 178007, Note_on_c, 2, 50, 127
1, 178007, Note_on_c, 2, 62, 127
1, 178007, Note_on_c, 7, 79, 127
1, 178245, Note_off_c, 7, 79, 127
1, 178247, Note_on_c, 10, 81, 127
1, 178485, Note_off_c, 10, 81, 127
1, 178485, Note_off_c, 2, 62, 127
1, 178485, Note_off_c, 2, 50, 127
1, 178487, Note_on_c, 2, 62, 127
1, 178487, Note_on_c, 7, 55, 127
1, 178487, Note_on_c, 12, 83, 127
1, 178725, Note_off_c, 12, 83, 127
1, 178727, Note_on_c, 4, 76, 127
1, 178965, Note_off_c, 4, 76, 127
1, 178965, Note_off_c, 7, 55, 127
1, 178965, Note_off_c, 2, 62, 127
1, 178967, Note_on_c, 12, 59, 127
1, 178967, Note_on_c, 7, 55, 127
1, 178967, Note_on_c, 4, 76, 127
1, 179205, Note_off_c, 4, 76, 127
1, 179207, Note_on_c, 7, 79, 127
1, 179325, Note_off_c, 7, 79, 127
1, 179327, Note_on_c, 6, 78, 127
1, 179445, Note_off_c, 6, 78, 127
1, 179445, Note_off_c, 7, 55, 127
1, 179445, Note_off_c, 12, 59, 127
1, 179447, Note_on_c, 7, 55, 127
1, 179447, Note_on_c, 12, 59, 127
1, 179447, Note_on_c, 7, 79, 127
1, 179685, Note_off_c, 7, 79, 127
1, 179687, Note_on_c, 4, 76, 127
1, 179925, Note_off_c, 4, 76, 127
1, 179925, Note_off_c, 12, 59, 127
1, 179925, Note_off_c, 7, 55, 127
1, 179927, Note_on_c, 7, 55, 127
1, 179927, Note_on_c, 12, 59, 127
1, 179927, Note_on_c, 4, 76, 127
1, 180165, Note_off_c, 4, 76, 127
1, 180167, Note_on_c, 2, 74, 127
1, 180405, Note_off_c, 2, 74, 127
1, 180405, Note_off_c, 12, 59, 127
1, 180405, Note_off_c, 7, 55, 127
1, 180407, Note_on_c, 10, 57, 127
1, 180407, Note_on_c, 2, 74, 127
1, 180472, Note_on_c, 1, 73, 127
1, 180492, Note_off_c, 2, 74, 127
1, 180537, Note_on_c, 2, 74, 127
1, 180557, Note_off_c, 1, 73, 127
1, 180602, Note_on_c, 1, 73, 127
1, 180622, Note_off_c, 2, 74, 127
1, 180667, Note_on_c, 10, 69, 127
1, 180687, Note_off_c, 1, 73, 127
1, 180865, Note_off_c, 10, 69, 127
1, 180885, Note_off_c, 10, 57, 127
1, 180887, Note_on_c, 10, 57, 127
1, 180887, Note_on_c, 1, 61, 127
1, 180887, Note_on_c, 10, 69, 127
1, 181125, Note_off_c, 10, 69, 127
1, 181143, Note_on_c, 10, 69, 127
1, 181365, Note_off_c, 1, 61, 127
1, 181365, Note_off_c, 10, 57, 127
1, 181381, Note_off_c, 10, 69, 127
1, 181383, Note_on_c, 5, 77, 127
1, 181383, Note_on_c, 8, 56, 127
1, 181383, Note_on_c, 2, 62, 127
1, 181621, Note_off_c, 5, 77, 127
1, 181623, Note_on_c, 2, 74, 127
1, 181741, Note_off_c, 2, 74, 127
1, 181743, Note_on_c, 4, 76, 127
1, 181861, Note_off_c, 4, 76, 127
1, 181861, Note_off_c, 2, 62, 127
1, 181861, Note_off_c, 8, 56, 127
1, 181863, Note_on_c, 5, 77, 127
1, 181863, Note_on_c, 8, 56, 127
1, 181863, Note_on_c, 2, 62, 127
1, 182101, Note_off_c, 5, 77, 127
1, 182103, Note_on_c, 5, 77, 127
1, 182341, Note_off_c, 5, 77, 127
1, 182341, Note_off_c, 2, 62, 127
1, 182341, Note_off_c, 8, 56, 127
1, 182343, Note_on_c, 7, 79, 127
1, 182343, Note_on_c, 8, 56, 127
1, 182343, Note_on_c, 2, 62, 127
1, 182403, Note_on_c, 5, 77, 127
1, 182448, Note_off_c, 7, 79, 127
1, 182463, Note_on_c, 7, 79, 127
1, 182508, Note_off_c, 5, 77, 127
1, 182523, Note_on_c, 5, 77, 127
1, 182568, Note_off_c, 7, 79, 127
1, 182583, Note_on_c, 2, 74, 127
1, 182628, Note_off_c, 5, 77, 127
1, 182700, Note_off_c, 2, 74, 127
1, 182702, Note_on_c, 4, 76, 127
1, 182820, Note_off_c, 4, 76, 127
1, 182820, Note_off_c, 2, 62, 127
1, 182820, Note_off_c, 8, 56, 127
1, 182822, Note_on_c, 5, 77, 127
1, 182822, Note_on_c, 2, 62, 127
1, 182822, Note_on_c, 8, 56, 127
1, 183060, Note_off_c, 5, 77, 127
1, 183062, Note_on_c, 5, 77, 127
1, 183300, Note_off_c, 5, 77, 127
1, 183300, Note_off_c, 8, 56, 127
1, 183300, Note_off_c, 2, 62, 127
1, 183302, Note_on_c, 7, 79, 127
1, 183302, Note_on_c, 2, 62, 127
1, 183302, Note_on_c, 10, 57, 127
1, 183362, Note_on_c, 5, 77, 127
1, 183400, Note_off_c, 7, 79, 127
1, 183422, Note_on_c, 7, 79, 127
1, 183460, Note_off_c, 5, 77, 127
1, 183482, Note_on_c, 5, 77, 127
1, 183520, Note_off_c, 7, 79, 127
1, 183542, Note_on_c, 4, 76, 127
1, 183580, Note_off_c, 5, 77, 127
1, 183780, Note_off_c, 4, 76, 127
1, 183780, Note_off_c, 10, 57, 127
1, 183780, Note_off_c, 2, 62, 127
1, 183782, Note_on_c, 4, 76, 127
1, 183782, Note_on_c, 1, 61, 127
1, 183782, Note_on_c, 10, 57, 127
1, 184020, Note_off_c, 4, 76, 127
1, 184022, Note_on_c, 10, 69, 127
1, 184260, Note_off_c, 10, 69, 127
1, 184260, Note_off_c, 10, 57, 127
1, 184260, Note_off_c, 1, 61, 127
1, 184262, Note_on_c, 5, 77, 127
1, 184262, Note_on_c, 2, 62, 127
1, 184262, Note_on_c, 8, 56, 127
1, 184500, Note_off_c, 5, 77, 127
1, 184502, Note_on_c, 2, 74, 127
1, 184620, Note_off_c, 2, 74, 127
1, 184622, Note_on_c, 4, 76, 127
1, 184740, Note_off_c, 4, 76, 127
1, 184740, Note_off_c, 8, 56, 127
1, 184740, Note_off_c, 2, 62, 127
1, 184742, Note_on_c, 5, 77, 127
1, 184742, Note_on_c, 8, 56, 127
1, 184742, Note_on_c, 2, 62, 127
1, 184980, Note_off_c, 5, 77, 127
1, 184982, Note_on_c, 5, 77, 127
1, 185220, Note_off_c, 5, 77, 127
1, 185220, Note_off_c, 2, 62, 127
1, 185220, Note_off_c, 8, 56, 127
1, 185222, Note_on_c, 7, 79, 127
1, 185222, Note_on_c, 2, 62, 127
1, 185222, Note_on_c, 8, 56, 127
1, 185340, Note_off_c, 7, 79, 127
1, 185342, Note_on_c, 5, 77, 127
1, 185460, Note_off_c, 5, 77, 127
1, 185462, Note_on_c, 2, 74, 127
1, 185580, Note_off_c, 2, 74, 127
1, 185582, Note_on_c, 4, 76, 127
1, 185700, Note_off_c, 4, 76, 127
1, 185700, Note_off_c, 8, 56, 127
1, 185700, Note_off_c, 2, 62, 127
1, 185702, Note_on_c, 5, 77, 127
1, 185702, Note_on_c, 2, 62, 127
1, 185702, Note_on_c, 8, 56, 127
1, 185940, Note_off_c, 5, 77, 127
1, 185942, Note_on_c, 5, 77, 127
1, 186180, Note_off_c, 5, 77, 127
1, 186180, Note_off_c, 8, 56, 127
1, 186180, Note_off_c, 2, 62, 127
1, 186182, Note_on_c, 5, 77, 127
1, 186182, Note_on_c, 10, 57, 127
1, 186182, Note_on_c, 2, 62, 127
1, 186420, Note_off_c, 5, 77, 127
1, 186422, Note_on_c, 4, 76, 127
1, 186660, Note_off_c, 4, 76, 127
1, 186660, Note_off_c, 2, 62, 127
1, 186660, Note_off_c, 10, 57, 127
1, 186662, Note_on_c, 4, 76, 127
1, 186662, Note_on_c, 10, 57, 127
1, 186662, Note_on_c, 1, 61, 127
1, 186900, Note_off_c, 4, 76, 127
1, 186902, Note_on_c, 10, 69, 127
1, 187140, Note_off_c, 10, 69, 127
1, 187140, Note_off_c, 1, 61, 127
1, 187140, Note_off_c, 10, 57, 127
1, 187142, Note_on_c, 7, 79, 127
1, 187142, Note_on_c, 1, 61, 127
1, 187142, Note_on_c, 10, 57, 127
1, 187260, Note_off_c, 7, 79, 127
1, 187262, Note_on_c, 6, 78, 127
1, 187380, Note_off_c, 6, 78, 127
1, 187382, Note_on_c, 7, 79, 127
1, 187500, Note_off_c, 7, 79, 127
1, 187502, Note_on_c, 10, 81, 127
1, 187620, Note_off_c, 10, 81, 127
1, 187620, Note_off_c, 10, 57, 127
1, 187620, Note_off_c, 1, 61, 127
1, 187622, Note_on_c, 7, 79, 127
1, 187622, Note_on_c, 1, 61, 127
1, 187622, Note_on_c, 10, 57, 127
1, 187740, Note_off_c, 7, 79, 127
1, 187742, Note_on_c, 6, 78, 127
1, 187860, Note_off_c, 6, 78, 127
1, 187862, Note_on_c, 7, 79, 127
1, 187980, Note_off_c, 7, 79, 127
1, 187982, Note_on_c, 10, 81, 127
1, 188100, Note_off_c, 10, 81, 127
1, 188100, Note_off_c, 10, 57, 127
1, 188100, Note_off_c, 1, 61, 127
1, 188102, Note_on_c, 7, 79, 127
1, 188102, Note_on_c, 10, 57, 127
1, 188102, Note_on_c, 1, 61, 127
1, 188340, Note_off_c, 7, 79, 127
1, 188342, Note_on_c, 10, 81, 127
1, 188460, Note_off_c, 10, 81, 127
1, 188462, Note_on_c, 7, 79, 127
1, 188580, Note_off_c, 7, 79, 127
1, 188580, Note_off_c, 1, 61, 127
1, 188580, Note_off_c, 10, 57, 127
1, 188582, Note_on_c, 10, 81, 127
1, 188582, Note_on_c, 1, 61, 127
1, 188582, Note_on_c, 10, 57, 127
1, 188700, Note_off_c, 10, 81, 127
1, 188702, Note_on_c, 7, 79, 127
1, 188820, Note_off_c, 7, 79, 127
1, 188822, Note_on_c, 6, 78, 127
1, 188940, Note_off_c, 6, 78, 127
1, 188942, Note_on_c, 4, 76, 127
1, 189060, Note_off_c, 4, 76, 127
1, 189060, Note_off_c, 10, 57, 127
1, 189060, Note_off_c, 1, 61, 127
1, 189062, Note_on_c, 6, 78, 127
1, 189062, Note_on_c, 2, 62, 127
1, 189180, Note_off_c, 6, 78, 127
1, 189182, Note_on_c, 7, 79, 127
1, 189300, Note_off_c, 7, 79, 127
1, 189302, Note_on_c, 10, 81, 127
1, 189420, Note_off_c, 10, 81, 127
1, 189422, Note_on_c, 7, 79, 127
1, 189540, Note_off_c, 7, 79, 127
1, 189540, Note_off_c, 2, 62, 127
1, 189542, Note_on_c, 6, 78, 127
1, 189542, Note_on_c, 1, 61, 127
1, 189660, Note_off_c, 6, 78, 127
1, 189662, Note_on_c, 4, 76, 127
1, 189780, Note_off_c, 4, 76, 127
1, 189782, Note_on_c, 2, 74, 127
1, 189900, Note_off_c, 2, 74, 127
1, 189902, Note_on_c, 1, 73, 127
1, 190020, Note_off_c, 1, 73, 127
1, 190020, Note_off_c, 1, 61, 127
1, 190022, Note_on_c, 2, 74, 127
1, 190022, Note_on_c, 2, 62, 127
1, 190022, Note_on_c, 12, 59, 127
1, 190260, Note_off_c, 2, 74, 127
1, 190262, Note_on_c, 6, 66, 127
1, 190500, Note_off_c, 6, 66, 127
1, 190500, Note_off_c, 12, 59, 127
1, 190500, Note_off_c, 2, 62, 127
1, 190502, Note_on_c, 2, 74, 127
1, 190502, Note_on_c, 10, 57, 127
1, 190502, Note_on_c, 1, 61, 127
1, 190740, Note_off_c, 2, 74, 127
1, 190742, Note_on_c, 6, 66, 127
1, 190980, Note_off_c, 6, 66, 127
1, 190980, Note_off_c, 1, 61, 127
1, 190980, Note_off_c, 10, 57, 127
1, 190982, Note_on_c, 4, 64, 127
1, 190982, Note_on_c, 7, 55, 127
1, 190982, Note_on_c, 12, 59, 127
1, 191220, Note_off_c, 4, 64, 127
1, 191222, Note_on_c, 2, 74, 127
1, 191460, Note_off_c, 2, 74, 127
1, 191460, Note_off_c, 12, 59, 127
1, 191460, Note_off_c, 7, 55, 127
1, 191462, Note_on_c, 4, 64, 127
1, 191462, Note_on_c, 10, 57, 127
1, 191700, Note_off_c, 4, 64, 127
1, 191702, Note_on_c, 1, 73, 127
1, 191940, Note_off_c, 1, 73, 127
1, 191940, Note_off_c, 10, 57, 127
1, 191942, Note_on_c, 2, 74, 127
1, 191942, Note_on_c, 2, 62, 127
1, 191942, Note_on_c, 2, 50, 127
1, 192060, Note_off_c, 2, 74, 127
1, 192062, Note_on_c, 1, 73, 127
1, 192180, Note_off_c, 1, 73, 127
1, 192182, Note_on_c, 2, 74, 127
1, 192300, Note_off_c, 2, 74, 127
1, 192302, Note_on_c, 4, 76, 127
1, 192420, Note_off_c, 4, 76, 127
1, 192420, Note_off_c, 2, 50, 127
1, 192420, Note_off_c, 2, 62, 127
1, 192422, Note_on_c, 2, 74, 127
1, 192422, Note_on_c, 6, 66, 127
1, 192422, Note_on_c, 2, 62, 127
1, 192540, Note_off_c, 2, 74, 127
1, 192542, Note_on_c, 1, 73, 127
1, 192660, Note_off_c, 1, 73, 127
1, 192662, Note_on_c, 2, 74, 127
1, 192780, Note_off_c, 2, 74, 127
1, 192782, Note_on_c, 6, 78, 127
1, 192900, Note_off_c, 6, 78, 127
1, 192900, Note_off_c, 2, 62, 127
1, 192900, Note_off_c, 6, 66, 127
1, 192902, Note_on_c, 2, 74, 127
1, 192902, Note_on_c, 2, 62, 127
1, 192902, Note_on_c, 1, 61, 127
1, 192902, Note_on_c, 6, 66, 127
1, 193020, Note_off_c, 2, 74, 127
1, 193022, Note_on_c, 1, 73, 127
1, 193140, Note_off_c, 1, 73, 127
1, 193142, Note_on_c, 2, 74, 127
1, 193260, Note_off_c, 2, 74, 127
1, 193262, Note_on_c, 7, 79, 127
1, 193380, Note_off_c, 7, 79, 127
1, 193380, Note_off_c, 6, 66, 127
1, 193380, Note_off_c, 1, 61, 127
1, 193380, Note_off_c, 2, 62, 127
1, 193382, Note_on_c, 2, 74, 127
1, 193382, Note_on_c, 2, 62, 127
1, 193382, Note_on_c, 1, 61, 127
1, 193382, Note_on_c, 6, 66, 127
1, 193500, Note_off_c, 2, 74, 127
1, 193502, Note_on_c, 1, 73, 127
1, 193620, Note_off_c, 1, 73, 127
1, 193622, Note_on_c, 2, 74, 127
1, 193740, Note_off_c, 2, 74, 127
1, 193742, Note_on_c, 10, 81, 127
1, 193860, Note_off_c, 10, 81, 127
1, 193860, Note_off_c, 6, 66, 127
1, 193860, Note_off_c, 1, 61, 127
1, 193860, Note_off_c, 2, 62, 127
1, 193862, Note_on_c, 2, 74, 127
1, 193862, Note_on_c, 12, 59, 127
1, 193862, Note_on_c, 2, 62, 127
1, 193862, Note_on_c, 6, 66, 127
1, 193980, Note_off_c, 2, 74, 127
1, 193982, Note_on_c, 1, 73, 127
1, 194100, Note_off_c, 1, 73, 127
1, 194102, Note_on_c, 2, 74, 127
1, 194220, Note_off_c, 2, 74, 127
1, 194222, Note_on_c, 4, 76, 127
1, 194340, Note_off_c, 4, 76, 127
1, 194340, Note_off_c, 6, 66, 127
1, 194340, Note_off_c, 2, 62, 127
1, 194340, Note_off_c, 12, 59, 127
1, 194342, Note_on_c, 6, 78, 127
1, 194342, Note_on_c, 12, 59, 127
1, 194342, Note_on_c, 2, 62, 127
1, 194342, Note_on_c, 6, 66, 127
1, 194460, Note_off_c, 6, 78, 127
1, 194462, Note_on_c, 7, 79, 127
1, 194580, Note_off_c, 7, 79, 127
1, 194582, Note_on_c, 10, 81, 127
1, 194700, Note_off_c, 10, 81, 127
1, 194702, Note_on_c, 12, 83, 127
1, 194820, Note_off_c, 12, 83, 127
1, 194820, Note_off_c, 6, 66, 127
1, 194820, Note_off_c, 2, 62, 127
1, 194820, Note_off_c, 12, 59, 127
1, 194822, Note_on_c, 2, 74, 127
1, 194822, Note_on_c, 6, 66, 127
1, 194822, Note_on_c, 2, 62, 127
1, 194822, Note_on_c, 10, 57, 127
1, 194940, Note_off_c, 2, 74, 127
1, 194942, Note_on_c, 1, 73, 127
1, 195060, Note_off_c, 1, 73, 127
1, 195062, Note_on_c, 2, 74, 127
1, 195180, Note_off_c, 2, 74, 127
1, 195182, Note_on_c, 4, 76, 127
1, 195300, Note_off_c, 4, 76, 127
1, 195300, Note_off_c, 10, 57, 127
1, 195300, Note_off_c, 2, 62, 127
1, 195300, Note_off_c, 6, 66, 127
1, 195302, Note_on_c, 2, 74, 127
1, 195302, Note_on_c, 6, 66, 127
1, 195302, Note_on_c, 10, 57, 127
1, 195302, Note_on_c, 2, 62, 127
1, 195420, Note_off_c, 2, 74, 127
1, 195422, Note_on_c, 1, 73, 127
1, 195540, Note_off_c, 1, 73, 127
1, 195542, Note_on_c, 2, 74, 127
1, 195660, Note_off_c, 2, 74, 127
1, 195662, Note_on_c, 6, 78, 127
1, 195780, Note_off_c, 6, 78, 127
1, 195780, Note_off_c, 2, 62, 127
1, 195780, Note_off_c, 10, 57, 127
1, 195780, Note_off_c, 6, 66, 127
1, 195782, Note_on_c, 2, 74, 127
1, 195782, Note_on_c, 6, 66, 127
1, 195782, Note_on_c, 2, 62, 127
1, 195782, Note_on_c, 7, 55, 127
1, 195900, Note_off_c, 2, 74, 127
1, 195902, Note_on_c, 1, 73, 127
1, 196020, Note_off_c, 1, 73, 127
1, 196022, Note_on_c, 2, 74, 127
1, 196140, Note_off_c, 2, 74, 127
1, 196142, Note_on_c, 7, 79, 127
1, 196260, Note_off_c, 7, 79, 127
1, 196260, Note_off_c, 7, 55, 127
1, 196260, Note_off_c, 2, 62, 127
1, 196260, Note_off_c, 6, 66, 127
1, 196262, Note_on_c, 2, 74, 127
1, 196262, Note_on_c, 6, 66, 127
1, 196262, Note_on_c, 7, 55, 127
1, 196262, Note_on_c, 2, 62, 127
1, 196380, Note_off_c, 2, 74, 127
1, 196382, Note_on_c, 1, 73, 127
1, 196500, Note_off_c, 1, 73, 127
1, 196502, Note_on_c, 2, 74, 127
1, 196620, Note_off_c, 2, 74, 127
1, 196622, Note_on_c, 10, 81, 127
1, 196740, Note_off_c, 10, 81, 127
1, 196740, Note_off_c, 2, 62, 127
1, 196740, Note_off_c, 7, 55, 127
1, 196740, Note_off_c, 6, 66, 127
1, 196742, Note_on_c, 2, 74, 127
1, 196742, Note_on_c, 2, 62, 127
1, 196742, Note_on_c, 6, 66, 127
1, 196742, Note_on_c, 6, 54, 127
1, 196860, Note_off_c, 2, 74, 127
1, 196862, Note_on_c, 1, 73, 127
1, 196980, Note_off_c, 1, 73, 127
1, 196982, Note_on_c, 2, 74, 127
1, 197100, Note_off_c, 2, 74, 127
1, 197102, Note_on_c, 4, 76, 127
1, 197220, Note_off_c, 4, 76, 127
1, 197220, Note_off_c, 6, 54, 127
1, 197220, Note_off_c, 6, 66, 127
1, 197220, Note_off_c, 2, 62, 127
1, 197222, Note_on_c, 6, 78, 127
1, 197222, Note_on_c, 6, 54, 127
1, 197222, Note_on_c, 2, 62, 127
1, 197222, Note_on_c, 6, 66, 127
1, 197340, Note_off_c, 6, 78, 127
1, 197342, Note_on_c, 7, 79, 127
1, 197460, Note_off_c, 7, 79, 127
1, 197462, Note_on_c, 10, 81, 127
1, 197580, Note_off_c, 10, 81, 127
1, 197588, Note_on_c, 12, 83, 127
1, 197700, Note_off_c, 6, 54, 127
1, 197710, Note_off_c, 6, 66, 127
1, 197710, Note_off_c, 2, 62, 127
1, 197718, Note_on_c, 2, 62, 127
1, 197718, Note_on_c, 6, 66, 127
1, 197718, Note_on_c, 7, 55, 127
1, 197718, Note_on_c, 2, 74, 127
1, 197721, Note_off_c, 12, 83, 127
1, 197836, Note_off_c, 2, 74, 127
1, 197838, Note_on_c, 1, 73, 127
1, 197956, Note_off_c, 1, 73, 127
1, 197958, Note_on_c, 2, 74, 127
1, 198078, Note_on_c, 12, 83, 127
1, 198080, Note_off_c, 2, 74, 127
1, 198195, Note_off_c, 12, 83, 127
1, 198195, Note_off_c, 7, 55, 127
1, 198195, Note_off_c, 6, 66, 127
1, 198195, Note_off_c, 2, 62, 127
1, 198197, Note_on_c, 2, 74, 127
1, 198197, Note_on_c, 6, 66, 127
1, 198197, Note_on_c, 7, 55, 127
1, 198197, Note_on_c, 2, 62, 127
1, 198316, Note_off_c, 2, 74, 127
1, 198318, Note_on_c, 1, 73, 127
1, 198437, Note_off_c, 1, 73, 127
1, 198439, Note_on_c, 2, 74, 127
1, 198558, Note_off_c, 2, 74, 127
1, 198560, Note_on_c, 12, 83, 127
1, 198679, Note_off_c, 12, 83, 127
1, 198679, Note_off_c, 2, 62, 127
1, 198679, Note_off_c, 7, 55, 127
1, 198679, Note_off_c, 6, 66, 127
1, 198682, Note_on_c, 2, 74, 127
1, 198682, Note_on_c, 2, 62, 127
1, 198682, Note_on_c, 6, 66, 127
1, 198682, Note_on_c, 10, 57, 127
1, 198801, Note_off_c, 2, 74, 127
1, 198803, Note_on_c, 1, 73, 127
1, 198922, Note_off_c, 1, 73, 127
1, 198924, Note_on_c, 2, 74, 127
1, 199043, Note_off_c, 2, 74, 127
1, 199045, Note_on_c, 10, 81, 127
1, 199164, Note_off_c, 10, 81, 127
1, 199164, Note_off_c, 10, 57, 127
1, 199164, Note_off_c, 6, 66, 127
1, 199164, Note_off_c, 2, 62, 127
1, 199166, Note_on_c, 2, 74, 127
1, 199166, Note_on_c, 6, 66, 127
1, 199166, Note_on_c, 10, 57, 127
1, 199166, Note_on_c, 2, 62, 127
1, 199285, Note_off_c, 2, 74, 127
1, 199288, Note_on_c, 1, 73, 127
1, 199407, Note_off_c, 1, 73, 127
1, 199409, Note_on_c, 2, 74, 127
1, 199528, Note_off_c, 2, 74, 127
1, 199530, Note_on_c, 10, 81, 127
1, 199648, Note_off_c, 2, 62, 127
1, 199648, Note_off_c, 10, 57, 127
1, 199648, Note_off_c, 6, 66, 127
1, 199649, Note_off_c, 10, 81, 127
1, 199651, Note_on_c, 2, 74, 127
1, 199651, Note_on_c, 4, 64, 127
1, 199651, Note_on_c, 10, 57, 127
1, 199770, Note_off_c, 2, 74, 127
1, 199773, Note_on_c, 1, 73, 127
1, 199893, Note_off_c, 1, 73, 127
1, 199897, Note_on_c, 2, 74, 127
1, 200017, Note_off_c, 2, 74, 127
1, 200021, Note_on_c, 7, 79, 127
1, 200133, Note_off_c, 10, 57, 127
1, 200133, Note_off_c, 4, 64, 127
1, 200141, Note_off_c, 7, 79, 127
1, 200144, Note_on_c, 10, 57, 127
1, 200144, Note_on_c, 4, 64, 127
1, 200144, Note_on_c, 2, 74, 127
1, 200264, Note_off_c, 2, 74, 127
1, 200267, Note_on_c, 1, 73, 127
1, 200387, Note_off_c, 1, 73, 127
1, 200392, Note_on_c, 2, 74, 127
1, 200512, Note_off_c, 2, 74, 127
1, 200524, Note_on_c, 4, 76, 127
1, 200656, Note_off_c, 4, 64, 127
1, 200662, Note_off_c, 10, 57, 127
1, 200665, Note_off_c, 4, 76, 127
1, 200676, Note_on_c, 2, 50, 127
1, 200676, Note_on_c, 2, 62, 127
1, 200676, Note_on_c, 2, 74, 127
1, 201226, Note_off_c, 2, 74, 127
1, 201231, Note_off_c, 2, 62, 127
1, 201231, Note_off_c, 2, 50, 127
1, 201231, Note_on_c, 2, 50, 127
1, 201231, Note_on_c, 2, 62, 127
1, 201231, Note_on_c, 2, 74, 127
1, 201231, Note_on_c, 10, 69, 127
1, 201231, Note_on_c, 6, 78, 127
1, 201717, Note_off_c, 6, 78, 127
1, 201717, Note_off_c, 10, 69, 127
1, 201717, Note_off_c, 2, 74, 127
1, 201717, Note_off_c, 2, 62, 127
1, 201717, Note_off_c, 2, 50, 127
1, 201725, Note_on_c, 2, 50, 127
1, 201725, Note_on_c, 2, 62, 127
1, 201725, Note_on_c, 10, 69, 127
1, 201725, Note_on_c, 6, 78, 127
1, 201725, Note_on_c, 2, 74, 127
1, 202203, Note_off_c, 2, 74, 127
1, 202203, Note_off_c, 6, 78, 127
1, 202203, Note_off_c, 10, 69, 127
1, 202203, Note_off_c, 2, 62, 127
1, 202203, Note_off_c, 2, 50, 127
1, 202205, Note_on_c, 2, 50, 127
1, 202205, Note_on_c, 2, 62, 127
1, 202205, Note_on_c, 10, 69, 127
1, 202205, Note_on_c, 2, 74, 127
1, 202205, Note_on_c, 6, 78, 127
1, 202683, Note_off_c, 6, 78, 127
1, 202683, Note_off_c, 2, 74, 127
1, 202683, Note_off_c, 10, 69, 127
1, 202683, Note_off_c, 2, 62, 127
1, 202683, Note_off_c, 2, 50, 127
1, 202685, Note_on_c, 2, 50, 127
1, 202685, Note_on_c, 2, 62, 127
1, 202685, Note_on_c, 6, 78, 127
1, 202685, Note_on_c, 10, 69, 127
1, 202685, Note_on_c, 2, 74, 127
1, 203163, Note_off_c, 2, 74, 127
1, 203163, Note_off_c, 10, 69, 127
1, 203163, Note_off_c, 6, 78, 127
1, 203163, Note_off_c, 2, 62, 127
1, 203163, Note_off_c, 2, 50, 127
1, 203165, Note_on_c, 2, 50, 127
1, 203165, Note_on_c, 2, 62, 127
1, 203165, Note_on_c, 10, 69, 127
1, 203165, Note_on_c, 6, 78, 127
1, 203165, Note_on_c, 2, 74, 127
1, 203643, Note_off_c, 2, 74, 127
1, 203643, Note_off_c, 6, 78, 127
1, 203643, Note_off_c, 10, 69, 127
1, 203643, Note_off_c, 2, 62, 127
1, 203643, Note_off_c, 2, 50, 127
1, 203645, Note_on_c, 12, 59, 127
1, 203645, Note_on_c, 4, 52, 127
1, 203645, Note_on_c, 2, 74, 127
1, 203645, Note_on_c, 7, 67, 127
1, 203645, Note_on_c, 7, 79, 127
1, 204123, Note_off_c, 7, 79, 127
1, 204123, Note_off_c, 7, 67, 127
1, 204123, Note_off_c, 2, 74, 127
1, 204123, Note_off_c, 4, 52, 127
1, 204123, Note_off_c, 12, 59, 127
1, 204125, Note_on_c, 12, 59, 127
1, 204125, Note_on_c, 4, 52, 127
1, 204125, Note_on_c, 2, 74, 127
1, 204125, Note_on_c, 7, 67, 127
1, 204125, Note_on_c, 7, 79, 127
1, 204603, Note_off_c, 7, 79, 127
1, 204603, Note_off_c, 7, 67, 127
1, 204603, Note_off_c, 2, 74, 127
1, 204603, Note_off_c, 4, 52, 127
1, 204603, Note_off_c, 12, 59, 127
1, 204605, Note_on_c, 10, 57, 127
1, 204605, Note_on_c, 10, 45, 127
1, 204605, Note_on_c, 10, 69, 127
1, 204605, Note_on_c, 7, 79, 127
1, 204605, Note_on_c, 1, 73, 127
1, 205083, Note_off_c, 1, 73, 127
1, 205083, Note_off_c, 7, 79, 127
1, 205083, Note_off_c, 10, 69, 127
1, 205083, Note_off_c, 10, 45, 127
1, 205083, Note_off_c, 10, 57, 127
1, 205085, Note_on_c, 10, 57, 127
1, 205085, Note_on_c, 10, 45, 127
1, 205085, Note_on_c, 10, 69, 127
1, 205085, Note_on_c, 7, 79, 127
1, 205085, Note_on_c, 1, 73, 127
1, 205563, Note_off_c, 1, 73, 127
1, 205563, Note_off_c, 7, 79, 127
1, 205563, Note_off_c, 10, 69, 127
1, 205563, Note_off_c, 10, 45, 127
1, 205563, Note_off_c, 10, 57, 127
1, 205565, Note_on_c, 10, 57, 127
1, 205565, Note_on_c, 10, 45, 127
1, 205565, Note_on_c, 7, 79, 127
1, 205565, Note_on_c, 1, 73, 127
1, 205565, Note_on_c, 10, 69, 127
1, 206043, Note_off_c, 10, 69, 127
1, 206043, Note_off_c, 1, 73, 127
1, 206043, Note_off_c, 7, 79, 127
1, 206043, Note_off_c, 10, 45, 127
1, 206043, Note_off_c, 10, 57, 127
1, 206045, Note_on_c, 10, 45, 127
1, 206045, Note_on_c, 10, 57, 127
1, 206045, Note_on_c, 7, 79, 127
1, 206045, Note_on_c, 1, 73, 127
1, 206045, Note_on_c, 10, 69, 127
1, 206523, Note_off_c, 10, 69, 127
1, 206523, Note_off_c, 1, 73, 127
1, 206523, Note_off_c, 7, 79, 127
1, 206523, Note_off_c, 10, 57, 127
1, 206523, Note_off_c, 10, 45, 127
1, 206525, Note_on_c, 2, 50, 127
1, 206525, Note_on_c, 10, 57, 127
1, 206525, Note_on_c, 2, 74, 127
1, 206525, Note_on_c, 10, 69, 127
1, 206525, Note_on_c, 7, 79, 127
1, 207003, Note_off_c, 7, 79, 127
1, 207003, Note_off_c, 10, 69, 127
1, 207003, Note_off_c, 2, 74, 127
1, 207003, Note_off_c, 10, 57, 127
1, 207003, Note_off_c, 2, 50, 127
1, 207005, Note_on_c, 10, 57, 127
1, 207005, Note_on_c, 2, 50, 127
1, 207005, Note_on_c, 7, 79, 127
1, 207005, Note_on_c, 2, 74, 127
1, 207005, Note_on_c, 10, 69, 127
1, 207483, Note_off_c, 10, 69, 127
1, 207483, Note_off_c, 2, 74, 127
1, 207483, Note_off_c, 7, 79, 127
1, 207483, Note_off_c, 2, 50, 127
1, 207483, Note_off_c, 10, 57, 127
1, 207485, Note_on_c, 2, 50, 127
1, 207485, Note_on_c, 2, 62, 127
1, 207485, Note_on_c, 2, 74, 127
1, 207485, Note_on_c, 10, 69, 127
1, 207485, Note_on_c, 6, 78, 127
1, 207963, Note_off_c, 6, 78, 127
1, 207963, Note_off_c, 10, 69, 127
1, 207963, Note_off_c, 2, 74, 127
1, 207963, Note_off_c, 2, 62, 127
1, 207963, Note_off_c, 2, 50, 127
1, 207965, Note_on_c, 2, 62, 127
1, 207965, Note_on_c, 2, 50, 127
1, 207965, Note_on_c, 2, 74, 127
1, 207965, Note_on_c, 10, 69, 127
1, 207965, Note_on_c, 6, 78, 127
1, 208443, Note_off_c, 6, 78, 127
1, 208443, Note_off_c, 10, 69, 127
1, 208443, Note_off_c, 2, 74, 127
1, 208443, Note_off_c, 2, 50, 127
1, 208443, Note_off_c, 2, 62, 127
1, 208445, Note_on_c, 2, 50, 127
1, 208445, Note_on_c, 2, 62, 127
1, 208445, Note_on_c, 2, 74, 127
1, 208445, Note_on_c, 10, 69, 127
1, 208445, Note_on_c, 6, 78, 127
1, 208923, Note_off_c, 6, 78, 127
1, 208923, Note_off_c, 10, 69, 127
1, 208923, Note_off_c, 2, 74, 127
1, 208923, Note_off_c, 2, 62, 127
1, 208923, Note_off_c, 2, 50, 127
1, 208925, Note_on_c, 2, 50, 127
1, 208925, Note_on_c, 2, 62, 127
1, 208925, Note_on_c, 6, 78, 127
1, 208925, Note_on_c, 2, 74, 127
1, 208925, Note_on_c, 10, 69, 127
1, 209403, Note_off_c, 10, 69, 127
1, 209403, Note_off_c, 2, 74, 127
1, 209403, Note_off_c, 6, 78, 127
1, 209403, Note_off_c, 2, 62, 127
1, 209403, Note_off_c, 2, 50, 127
1, 209405, Note_on_c, 12, 59, 127
1, 209405, Note_on_c, 7, 55, 127
1, 209405, Note_on_c, 2, 74, 127
1, 209405, Note_on_c, 12, 71, 127
1, 209405, Note_on_c, 4, 76, 127
1, 209893, Note_off_c, 4, 76, 127
1, 209893, Note_off_c, 12, 71, 127
1, 209893, Note_off_c, 2, 74, 127
1, 209893, Note_off_c, 7, 55, 127
1, 209893, Note_off_c, 12, 59, 127
1, 209896, Note_on_c, 12, 59, 127
1, 209896, Note_on_c, 7, 55, 127
1, 209896, Note_on_c, 2, 74, 127
1, 209896, Note_on_c, 12, 71, 127
1, 209896, Note_on_c, 4, 76, 127
1, 210384, Note_off_c, 4, 76, 127
1, 210384, Note_off_c, 12, 71, 127
1, 210384, Note_off_c, 2, 74, 127
1, 210384, Note_off_c, 7, 55, 127
1, 210384, Note_off_c, 12, 59, 127
1, 210387, Note_on_c, 10, 57, 127
1, 210387, Note_on_c, 4, 64, 127
1, 210387, Note_on_c, 2, 74, 127
1, 210387, Note_on_c, 10, 69, 127
1, 210387, Note_on_c, 4, 76, 127
1, 210885, Note_off_c, 4, 76, 127
1, 210885, Note_off_c, 10, 69, 127
1, 210885, Note_off_c, 2, 74, 127
1, 210885, Note_off_c, 4, 64, 127
1, 210885, Note_off_c, 10, 57, 127
1, 210888, Note_on_c, 4, 64, 127
1, 210888, Note_on_c, 10, 57, 127
1, 210888, Note_on_c, 10, 69, 127
1, 210888, Note_on_c, 2, 74, 127
1, 210888, Note_on_c, 4, 76, 127
1, 211386, Note_off_c, 4, 76, 127
1, 211386, Note_off_c, 2, 74, 127
1, 211386, Note_off_c, 10, 69, 127
1, 211386, Note_off_c, 10, 57, 127
1, 211386, Note_off_c, 4, 64, 127
1, 211389, Note_on_c, 10, 45, 127
1, 211389, Note_on_c, 7, 67, 127
1, 211389, Note_on_c, 1, 73, 127
1, 211389, Note_on_c, 10, 69, 127
1, 211389, Note_on_c, 4, 76, 127
1, 211910, Note_off_c, 4, 76, 127
1, 211910, Note_off_c, 10, 69, 127
1, 211910, Note_off_c, 1, 73, 127
1, 211910, Note_off_c, 7, 67, 127
1, 211910, Note_off_c, 10, 45, 127
1, 211913, Note_on_c, 10, 45, 127
1, 211913, Note_on_c, 7, 67, 127
1, 211913, Note_on_c, 10, 69, 127
1, 211913, Note_on_c, 4, 76, 127
1, 211913, Note_on_c, 1, 73, 127
1, 212434, Note_off_c, 1, 73, 127
1, 212434, Note_off_c, 4, 76, 127
1, 212434, Note_off_c, 10, 69, 127
1, 212434, Note_off_c, 7, 67, 127
1, 212434, Note_off_c, 10, 45, 127
1, 212453, Note_on_c, 2, 74, 127
1, 212453, Note_on_c, 10, 69, 127
1, 212453, Note_on_c, 2, 38, 127
1, 212453, Note_on_c, 2, 50, 127
1, 212453, Note_on_c, 6, 66, 127
1, 215589, Note_off_c, 6, 66, 127
1, 215589, Note_off_c, 2, 50, 127
1, 215589, Note_off_c, 2, 38, 127
1, 215589, Note_off_c, 10, 69, 127
1, 215589, Note_off_c, 2, 74, 127
1, 217776, Note_on_c, 10, 81, 127
1, 217776, Note_on_c, 6, 78, 127
1, 218165, Note_off_c, 6, 78, 127
1, 218165, Note_off_c, 10, 81, 127
1, 218166, Note_on_c, 2, 74, 127
1, 218166, Note_on_c, 6, 78, 127
1, 218360, Note_off_c, 6, 78, 127
1, 218360, Note_off_c, 2, 74, 127
1, 218361, Note_on_c, 4, 76, 127
1, 218361, Note_on_c, 7, 79, 127
1, 218555, Note_off_c, 7, 79, 127
1, 218555, Note_off_c, 4, 76, 127
1, 218556, Note_on_c, 10, 81, 127
1, 218556, Note_on_c, 6, 78, 127
1, 218945, Note_off_c, 6, 78, 127
1, 218945, Note_off_c, 10, 81, 127
1, 218946, Note_on_c, 6, 78, 127
1, 218946, Note_on_c, 10, 81, 127
1, 219335, Note_off_c, 10, 81, 127
1, 219335, Note_off_c, 6, 78, 127
1, 219336, Note_on_c, 6, 78, 127
1, 219336, Note_on_c, 2, 74, 127
1, 219530, Note_off_c, 2, 74, 127
1, 219530, Note_off_c, 6, 78, 127
1, 219531, Note_on_c, 4, 76, 127
1, 219531, Note_on_c, 7, 79, 127
1, 219725, Note_off_c, 7, 79, 127
1, 219725, Note_off_c, 4, 76, 127
1, 219726, Note_on_c, 10, 81, 127
1, 219726, Note_on_c, 6, 78, 127
1, 220115, Note_off_c, 6, 78, 127
1, 220115, Note_off_c, 10, 81, 127
1, 220116, Note_on_c, 10, 81, 127
1, 220116, Note_on_c, 6, 78, 127
1, 220505, Note_off_c, 6, 78, 127
1, 220505, Note_off_c, 10, 81, 127
1, 220506, Note_on_c, 12, 83, 127
1, 220506, Note_on_c, 7, 79, 127
1, 220700, Note_off_c, 7, 79, 127
1, 220700, Note_off_c, 12, 83, 127
1, 220701, Note_on_c, 10, 81, 127
1, 220701, Note_on_c, 6, 78, 127
1, 220895, Note_off_c, 6, 78, 127
1, 220895, Note_off_c, 10, 81, 127
1, 220896, Note_on_c, 12, 83, 127
1, 220896, Note_on_c, 7, 79, 127
1, 221090, Note_off_c, 7, 79, 127
1, 221090, Note_off_c, 12, 83, 127
1, 221091, Note_on_c, 10, 81, 127
1, 221091, Note_on_c, 6, 78, 127
1, 221285, Note_off_c, 6, 78, 127
1, 221285, Note_off_c, 10, 81, 127
1, 221286, Note_on_c, 7, 79, 127
1, 221286, Note_on_c, 4, 76, 127
1, 221480, Note_off_c, 4, 76, 127
1, 221480, Note_off_c, 7, 79, 127
1, 221481, Note_on_c, 2, 74, 127
1, 221481, Note_on_c, 6, 78, 127
1, 221675, Note_off_c, 6, 78, 127
1, 221675, Note_off_c, 2, 74, 127
1, 221676, Note_on_c, 4, 76, 127
1, 221676, Note_on_c, 1, 73, 127
1, 221870, Note_off_c, 1, 73, 127
1, 221870, Note_off_c, 4, 76, 127
1, 221871, Note_on_c, 2, 74, 127
1, 221871, Note_on_c, 6, 78, 127
1, 222065, Note_off_c, 6, 78, 127
1, 222065, Note_off_c, 2, 74, 127
1, 222066, Note_on_c, 4, 76, 127
1, 222066, Note_on_c, 7, 79, 127
1, 222455, Note_off_c, 7, 79, 127
1, 222455, Note_off_c, 4, 76, 127
1, 222456, Note_on_c, 7, 79, 127
1, 222456, Note_on_c, 4, 76, 127
1, 222845, Note_off_c, 4, 76, 127
1, 222845, Note_off_c, 7, 79, 127
1, 222846, Note_on_c, 1, 73, 127
1, 222846, Note_on_c, 4, 76, 127
1, 223040, Note_off_c, 4, 76, 127
1, 223040, Note_off_c, 1, 73, 127
1, 223041, Note_on_c, 2, 74, 127
1, 223041, Note_on_c, 6, 78, 127
1, 223235, Note_off_c, 6, 78, 127
1, 223235, Note_off_c, 2, 74, 127
1, 223236, Note_on_c, 4, 76, 127
1, 223236, Note_on_c, 7, 79, 127
1, 223625, Note_off_c, 7, 79, 127
1, 223625, Note_off_c, 4, 76, 127
1, 223626, Note_on_c, 4, 76, 127
1, 223626, Note_on_c, 7, 79, 127
1, 224015, Note_off_c, 7, 79, 127
1, 224015, Note_off_c, 4, 76, 127
1, 224016, Note_on_c, 1, 73, 127
1, 224016, Note_on_c, 4, 76, 127
1, 224210, Note_off_c, 4, 76, 127
1, 224210, Note_off_c, 1, 73, 127
1, 224211, Note_on_c, 6, 78, 127
1, 224211, Note_on_c, 2, 74, 127
1, 224405, Note_off_c, 2, 74, 127
1, 224405, Note_off_c, 6, 78, 127
1, 224406, Note_on_c, 4, 76, 127
1, 224406, Note_on_c, 7, 79, 127
1, 224795, Note_off_c, 7, 79, 127
1, 224795, Note_off_c, 4, 76, 127
1, 224796, Note_on_c, 7, 79, 127
1, 224796, Note_on_c, 4, 76, 127
1, 225185, Note_off_c, 4, 76, 127
1, 225185, Note_off_c, 7, 79, 127
1, 225186, Note_on_c, 6, 78, 127
1, 225186, Note_on_c, 10, 81, 127
1, 225380, Note_off_c, 10, 81, 127
1, 225380, Note_off_c, 6, 78, 127
1, 225381, Note_on_c, 4, 76, 127
1, 225381, Note_on_c, 7, 79, 127
1, 225575, Note_off_c, 7, 79, 127
1, 225575, Note_off_c, 4, 76, 127
1, 225576, Note_on_c, 10, 81, 127
1, 225576, Note_on_c, 6, 78, 127
1, 225770, Note_off_c, 6, 78, 127
1, 225770, Note_off_c, 10, 81, 127
1, 225771, Note_on_c, 7, 79, 127
1, 225771, Note_on_c, 4, 76, 127
1, 225965, Note_off_c, 4, 76, 127
1, 225965, Note_off_c, 7, 79, 127
1, 225966, Note_on_c, 2, 74, 127
1, 225966, Note_on_c, 6, 78, 127
1, 226160, Note_off_c, 6, 78, 127
1, 226160, Note_off_c, 2, 74, 127
1, 226161, Note_on_c, 1, 73, 127
1, 226161, Note_on_c, 4, 76, 127
1, 226355, Note_off_c, 4, 76, 127
1, 226355, Note_off_c, 1, 73, 127
1, 226356, Note_on_c, 2, 74, 127
1, 226356, Note_on_c, 6, 78, 127
1, 226550, Note_off_c, 6, 78, 127
1, 226550, Note_off_c, 2, 74, 127
1, 226551, Note_on_c, 7, 79, 127
1, 226551, Note_on_c, 4, 76, 127
1, 226745, Note_off_c, 4, 76, 127
1, 226745, Note_off_c, 7, 79, 127
1, 226746, Note_on_c, 6, 78, 127
1, 226746, Note_on_c, 2, 74, 127
1, 227135, Note_off_c, 2, 74, 127
1, 227135, Note_off_c, 6, 78, 127
1, 227136, Note_on_c, 2, 74, 127
1, 227136, Note_on_c, 6, 78, 127
1, 227136, Note_on_c, 10, 69, 127
1, 227136, Note_on_c, 10, 81, 127
1, 227234, Note_on_c, 10, 57, 127
1, 227331, Note_off_c, 10, 57, 127
1, 227331, Note_off_c, 10, 81, 127
1, 227331, Note_off_c, 10, 69, 127
1, 227331, Note_off_c, 6, 78, 127
1, 227331, Note_off_c, 2, 74, 127
1, 227332, Note_on_c, 10, 81, 127
1, 227332, Note_on_c, 2, 74, 127
1, 227332, Note_on_c, 6, 78, 127
1, 227332, Note_on_c, 10, 69, 127
1, 227332, Note_on_c, 12, 59, 127
1, 227429, Note_off_c, 12, 59, 127
1, 227430, Note_on_c, 1, 61, 127
1, 227527, Note_off_c, 1, 61, 127
1, 227527, Note_off_c, 10, 69, 127
1, 227527, Note_off_c, 6, 78, 127
1, 227527, Note_off_c, 2, 74, 127
1, 227527, Note_off_c, 10, 81, 127
1, 227528, Note_on_c, 2, 74, 127
1, 227528, Note_on_c, 10, 81, 127
1, 227528, Note_on_c, 10, 69, 127
1, 227528, Note_on_c, 6, 78, 127
1, 227528, Note_on_c, 2, 62, 127
1, 227722, Note_off_c, 2, 62, 127
1, 227722, Note_off_c, 6, 78, 127
1, 227722, Note_off_c, 10, 69, 127
1, 227722, Note_off_c, 10, 81, 127
1, 227722, Note_off_c, 2, 74, 127
1, 227723, Note_on_c, 10, 81, 127
1, 227723, Note_on_c, 10, 69, 127
1, 227723, Note_on_c, 2, 74, 127
1, 227723, Note_on_c, 6, 78, 127
1, 227723, Note_on_c, 10, 57, 127
1, 227917, Note_off_c, 10, 57, 127
1, 227917, Note_off_c, 6, 78, 127
1, 227917, Note_off_c, 2, 74, 127
1, 227917, Note_off_c, 10, 69, 127
1, 227917, Note_off_c, 10, 81, 127
1, 227918, Note_on_c, 6, 78, 127
1, 227918, Note_on_c, 10, 81, 127
1, 227918, Note_on_c, 10, 69, 127
1, 227918, Note_on_c, 2, 74, 127
1, 227918, Note_on_c, 6, 54, 127
1, 228112, Note_off_c, 6, 54, 127
1, 228112, Note_off_c, 2, 74, 127
1, 228112, Note_off_c, 10, 69, 127
1, 228112, Note_off_c, 10, 81, 127
1, 228112, Note_off_c, 6, 78, 127
1, 228113, Note_on_c, 6, 78, 127
1, 228113, Note_on_c, 10, 81, 127
1, 228113, Note_on_c, 10, 69, 127
1, 228113, Note_on_c, 2, 74, 127
1, 228113, Note_on_c, 10, 57, 127
1, 228307, Note_off_c, 10, 57, 127
1, 228307, Note_off_c, 2, 74, 127
1, 228307, Note_off_c, 10, 69, 127
1, 228307, Note_off_c, 10, 81, 127
1, 228307, Note_off_c, 6, 78, 127
1, 228308, Note_on_c, 10, 81, 127
1, 228308, Note_on_c, 2, 74, 127
1, 228308, Note_on_c, 6, 78, 127
1, 228308, Note_on_c, 12, 71, 127
1, 228308, Note_on_c, 2, 50, 127
1, 228502, Note_off_c, 2, 50, 127
1, 228502, Note_off_c, 12, 71, 127
1, 228502, Note_off_c, 6, 78, 127
1, 228502, Note_off_c, 2, 74, 127
1, 228502, Note_off_c, 10, 81, 127
1, 228503, Note_on_c, 10, 81, 127
1, 228503, Note_on_c, 12, 71, 127
1, 228503, Note_on_c, 2, 74, 127
1, 228503, Note_on_c, 6, 78, 127
1, 228503, Note_on_c, 6, 54, 127
1, 228697, Note_off_c, 6, 54, 127
1, 228697, Note_off_c, 6, 78, 127
1, 228697, Note_off_c, 2, 74, 127
1, 228697, Note_off_c, 12, 71, 127
1, 228697, Note_off_c, 10, 81, 127
1, 228698, Note_on_c, 2, 74, 127
1, 228698, Note_on_c, 6, 78, 127
1, 228698, Note_on_c, 12, 71, 127
1, 228698, Note_on_c, 10, 81, 127
1, 228698, Note_on_c, 12, 59, 127
1, 228892, Note_off_c, 12, 59, 127
1, 228892, Note_off_c, 10, 81, 127
1, 228892, Note_off_c, 12, 71, 127
1, 228892, Note_off_c, 6, 78, 127
1, 228892, Note_off_c, 2, 74, 127
1, 228893, Note_on_c, 12, 71, 127
1, 228893, Note_on_c, 10, 81, 127
1, 228893, Note_on_c, 2, 74, 127
1, 228893, Note_on_c, 6, 78, 127
1, 228893, Note_on_c, 10, 57, 127
1, 229087, Note_off_c, 10, 57, 127
1, 229087, Note_off_c, 6, 78, 127
1, 229087, Note_off_c, 2, 74, 127
1, 229087, Note_off_c, 10, 81, 127
1, 229087, Note_off_c, 12, 71, 127
1, 229088, Note_on_c, 10, 81, 127
1, 229088, Note_on_c, 2, 74, 127
1, 229088, Note_on_c, 6, 78, 127
1, 229088, Note_on_c, 12, 71, 127
1, 229088, Note_on_c, 7, 55, 127
1, 229282, Note_off_c, 7, 55, 127
1, 229282, Note_off_c, 12, 71, 127
1, 229282, Note_off_c, 6, 78, 127
1, 229282, Note_off_c, 2, 74, 127
1, 229282, Note_off_c, 10, 81, 127
1, 229283, Note_on_c, 2, 74, 127
1, 229283, Note_on_c, 6, 78, 127
1, 229283, Note_on_c, 10, 81, 127
1, 229283, Note_on_c, 12, 71, 127
1, 229283, Note_on_c, 6, 54, 127
1, 229477, Note_off_c, 6, 54, 127
1, 229477, Note_off_c, 12, 71, 127
1, 229477, Note_off_c, 10, 81, 127
1, 229477, Note_off_c, 6, 78, 127
1, 229477, Note_off_c, 2, 74, 127
1, 229478, Note_on_c, 7, 79, 127
1, 229478, Note_on_c, 2, 74, 127
1, 229478, Note_on_c, 6, 78, 127
1, 229478, Note_on_c, 12, 71, 127
1, 229478, Note_on_c, 4, 52, 127
1, 229575, Note_off_c, 4, 52, 127
1, 229576, Note_on_c, 12, 59, 127
1, 229673, Note_off_c, 12, 59, 127
1, 229673, Note_off_c, 12, 71, 127
1, 229673, Note_off_c, 6, 78, 127
1, 229673, Note_off_c, 2, 74, 127
1, 229673, Note_off_c, 7, 79, 127
1, 229674, Note_on_c, 7, 79, 127
1, 229674, Note_on_c, 12, 71, 127
1, 229674, Note_on_c, 2, 74, 127
1, 229674, Note_on_c, 6, 78, 127
1, 229674, Note_on_c, 1, 61, 127
1, 229771, Note_off_c, 1, 61, 127
1, 229772, Note_on_c, 2, 62, 127
1, 229869, Note_off_c, 2, 62, 127
1, 229869, Note_off_c, 6, 78, 127
1, 229869, Note_off_c, 2, 74, 127
1, 229869, Note_off_c, 12, 71, 127
1, 229869, Note_off_c, 7, 79, 127
1, 229870, Note_on_c, 4, 76, 127
1, 229870, Note_on_c, 7, 79, 127
1, 229870, Note_on_c, 12, 71, 127
1, 229870, Note_on_c, 2, 74, 127
1, 229870, Note_on_c, 4, 64, 127
1, 230064, Note_off_c, 4, 64, 127
1, 230064, Note_off_c, 2, 74, 127
1, 230064, Note_off_c, 12, 71, 127
1, 230064, Note_off_c, 7, 79, 127
1, 230064, Note_off_c, 4, 76, 127
1, 230065, Note_on_c, 12, 71, 127
1, 230065, Note_on_c, 2, 74, 127
1, 230065, Note_on_c, 7, 79, 127
1, 230065, Note_on_c, 4, 76, 127
1, 230065, Note_on_c, 12, 59, 127
1, 230259, Note_off_c, 12, 59, 127
1, 230259, Note_off_c, 4, 76, 127
1, 230259, Note_off_c, 7, 79, 127
1, 230259, Note_off_c, 2, 74, 127
1, 230259, Note_off_c, 12, 71, 127
1, 230260, Note_on_c, 4, 76, 127
1, 230260, Note_on_c, 7, 79, 127
1, 230260, Note_on_c, 12, 71, 127
1, 230260, Note_on_c, 2, 74, 127
1, 230260, Note_on_c, 7, 55, 127
1, 230454, Note_off_c, 7, 55, 127
1, 230454, Note_off_c, 2, 74, 127
1, 230454, Note_off_c, 12, 71, 127
1, 230454, Note_off_c, 7, 79, 127
1, 230454, Note_off_c, 4, 76, 127
1, 230455, Note_on_c, 7, 79, 127
1, 230455, Note_on_c, 2, 74, 127
1, 230455, Note_on_c, 4, 76, 127
1, 230455, Note_on_c, 12, 71, 127
1, 230455, Note_on_c, 4, 52, 127
1, 230649, Note_off_c, 4, 52, 127
1, 230649, Note_off_c, 12, 71, 127
1, 230649, Note_off_c, 4, 76, 127
1, 230649, Note_off_c, 2, 74, 127
1, 230649, Note_off_c, 7, 79, 127
1, 230650, Note_on_c, 4, 76, 127
1, 230650, Note_on_c, 7, 79, 127
1, 230650, Note_on_c, 10, 69, 127
1, 230650, Note_on_c, 1, 73, 127
1, 230650, Note_on_c, 10, 57, 127
1, 230844, Note_off_c, 10, 57, 127
1, 230844, Note_off_c, 1, 73, 127
1, 230844, Note_off_c, 10, 69, 127
1, 230844, Note_off_c, 7, 79, 127
1, 230844, Note_off_c, 4, 76, 127
1, 230845, Note_on_c, 1, 73, 127
1, 230845, Note_on_c, 4, 76, 127
1, 230845, Note_on_c, 7, 79, 127
1, 230845, Note_on_c, 10, 69, 127
1, 230845, Note_on_c, 1, 61, 127
1, 231039, Note_off_c, 1, 61, 127
1, 231039, Note_off_c, 10, 69, 127
1, 231039, Note_off_c, 7, 79, 127
1, 231039, Note_off_c, 4, 76, 127
1, 231039, Note_off_c, 1, 73, 127
1, 231040, Note_on_c, 1, 73, 127
1, 231040, Note_on_c, 4, 76, 127
1, 231040, Note_on_c, 7, 79, 127
1, 231040, Note_on_c, 10, 69, 127
1, 231040, Note_on_c, 4, 64, 127
1, 231234, Note_off_c, 4, 64, 127
1, 231234, Note_off_c, 10, 69, 127
1, 231234, Note_off_c, 7, 79, 127
1, 231234, Note_off_c, 4, 76, 127
1, 231234, Note_off_c, 1, 73, 127
1, 231235, Note_on_c, 4, 76, 127
1, 231235, Note_on_c, 7, 79, 127
1, 231235, Note_on_c, 10, 69, 127
1, 231235, Note_on_c, 1, 61, 127
1, 231429, Note_off_c, 1, 61, 127
1, 231429, Note_off_c, 10, 69, 127
1, 231429, Note_off_c, 7, 79, 127
1, 231429, Note_off_c, 4, 76, 127
1, 231430, Note_on_c, 2, 74, 127
1, 231430, Note_on_c, 6, 78, 127
1, 231430, Note_on_c, 10, 69, 127
1, 231430, Note_on_c, 2, 62, 127
1, 231624, Note_off_c, 2, 62, 127
1, 231624, Note_off_c, 10, 69, 127
1, 231624, Note_off_c, 6, 78, 127
1, 231624, Note_off_c, 2, 74, 127
1, 231625, Note_on_c, 6, 78, 127
1, 231625, Note_on_c, 10, 69, 127
1, 231625, Note_on_c, 2, 74, 127
1, 231625, Note_on_c, 6, 54, 127
1, 231819, Note_off_c, 6, 54, 127
1, 231819, Note_off_c, 2, 74, 127
1, 231819, Note_off_c, 10, 69, 127
1, 231819, Note_off_c, 6, 78, 127
1, 231820, Note_on_c, 4, 76, 127
1, 231820, Note_on_c, 12, 71, 127
1, 231820, Note_on_c, 2, 74, 127
1, 231820, Note_on_c, 7, 55, 127
1, 231917, Note_off_c, 7, 55, 127
1, 231918, Note_on_c, 4, 52, 127
1, 232015, Note_off_c, 4, 52, 127
1, 232015, Note_off_c, 2, 74, 127
1, 232015, Note_off_c, 12, 71, 127
1, 232015, Note_off_c, 4, 76, 127
1, 232016, Note_on_c, 4, 76, 127
1, 232016, Note_on_c, 2, 74, 127
1, 232016, Note_on_c, 12, 71, 127
1, 232016, Note_on_c, 6, 54, 127
1, 232113, Note_off_c, 6, 54, 127
1, 232114, Note_on_c, 7, 55, 127
1, 232211, Note_off_c, 7, 55, 127
1, 232211, Note_off_c, 12, 71, 127
1, 232211, Note_off_c, 2, 74, 127
1, 232211, Note_off_c, 4, 76, 127
1, 232212, Note_on_c, 4, 76, 127
1, 232212, Note_on_c, 2, 74, 127
1, 232212, Note_on_c, 10, 69, 127
1, 232212, Note_on_c, 10, 57, 127
1, 232406, Note_off_c, 10, 57, 127
1, 232406, Note_off_c, 10, 69, 127
1, 232406, Note_off_c, 2, 74, 127
1, 232406, Note_off_c, 4, 76, 127
1, 232407, Note_on_c, 2, 74, 127
1, 232407, Note_on_c, 4, 76, 127
1, 232407, Note_on_c, 10, 69, 127
1, 232407, Note_on_c, 7, 55, 127
1, 232601, Note_off_c, 7, 55, 127
1, 232601, Note_off_c, 10, 69, 127
1, 232601, Note_off_c, 4, 76, 127
1, 232601, Note_off_c, 2, 74, 127
1, 232602, Note_on_c, 7, 67, 127
1, 232602, Note_on_c, 4, 76, 127
1, 232602, Note_on_c, 1, 73, 127
1, 232602, Note_on_c, 10, 57, 127
1, 232796, Note_off_c, 10, 57, 127
1, 232796, Note_off_c, 1, 73, 127
1, 232796, Note_off_c, 4, 76, 127
1, 232796, Note_off_c, 7, 67, 127
1, 232797, Note_on_c, 4, 76, 127
1, 232797, Note_on_c, 1, 73, 127
1, 232797, Note_on_c, 7, 67, 127
1, 232797, Note_on_c, 10, 45, 127
1, 232991, Note_off_c, 10, 45, 127
1, 232991, Note_off_c, 7, 67, 127
1, 232991, Note_off_c, 1, 73, 127
1, 232991, Note_off_c, 4, 76, 127
1, 232992, Note_on_c, 10, 69, 127
1, 232992, Note_on_c, 2, 74, 127
1, 232992, Note_on_c, 6, 66, 127
1, 232992, Note_on_c, 2, 50, 127
1, 233186, Note_off_c, 6, 66, 127
1, 233186, Note_off_c, 2, 74, 127
1, 233186, Note_off_c, 10, 69, 127
1, 233187, Note_on_c, 10, 69, 127
1, 233381, Note_off_c, 10, 69, 127
1, 233382, Note_on_c, 10, 69, 127
1, 233576, Note_off_c, 10, 69, 127
1, 233577, Note_on_c, 10, 69, 127
1, 233771, Note_off_c, 10, 69, 127
1, 233771, Note_off_c, 2, 50, 127
1, 233772, Note_on_c, 10, 69, 127
1, 233966, Note_off_c, 10, 69, 127
1, 233967, Note_on_c, 10, 69, 127
1, 234161, Note_off_c, 10, 69, 127
1, 234162, Note_on_c, 2, 74, 127
1, 234162, Note_on_c, 10, 57, 127
1, 234162, Note_on_c, 6, 54, 127
1, 234162, Note_on_c, 2, 50, 127
1, 234356, Note_off_c, 2, 74, 127
1, 234357, Note_on_c, 10, 69, 127
1, 234551, Note_off_c, 10, 69, 127
1, 234552, Note_on_c, 2, 74, 127
1, 234746, Note_off_c, 2, 74, 127
1, 234747, Note_on_c, 4, 76, 127
1, 234941, Note_off_c, 4, 76, 127
1, 234941, Note_off_c, 2, 50, 127
1, 234941, Note_off_c, 6, 54, 127
1, 234941, Note_off_c, 10, 57, 127
1, 234942, Note_on_c, 7, 79, 127
1, 235039, Note_off_c, 7, 79, 127
1, 235040, Note_on_c, 6, 78, 127
1, 235137, Note_off_c, 6, 78, 127
1, 235138, Note_on_c, 4, 76, 127
1, 235235, Note_off_c, 4, 76, 127
1, 235236, Note_on_c, 2, 74, 127
1, 235333, Note_off_c, 2, 74, 127
1, 235334, Note_on_c, 4, 76, 127
1, 235334, Note_on_c, 10, 57, 127
1, 235334, Note_on_c, 1, 49, 127
1, 235334, Note_on_c, 4, 52, 127
1, 235528, Note_off_c, 4, 76, 127
1, 235529, Note_on_c, 10, 69, 127
1, 235723, Note_off_c, 10, 69, 127
1, 235724, Note_on_c, 10, 69, 127
1, 235821, Note_off_c, 10, 69, 127
1, 235822, Note_on_c, 12, 71, 127
1, 235919, Note_off_c, 12, 71, 127
1, 235920, Note_on_c, 10, 69, 127
1, 236114, Note_off_c, 10, 69, 127
1, 236114, Note_off_c, 4, 52, 127
1, 236114, Note_off_c, 1, 49, 127
1, 236114, Note_off_c, 10, 57, 127
1, 236115, Note_on_c, 10, 69, 127
1, 236212, Note_off_c, 10, 69, 127
1, 236213, Note_on_c, 12, 71, 127
1, 236310, Note_off_c, 12, 71, 127
1, 236311, Note_on_c, 10, 69, 127
1, 236505, Note_off_c, 10, 69, 127
1, 236506, Note_on_c, 4, 76, 127
1, 236506, Note_on_c, 10, 57, 127
1, 236506, Note_on_c, 10, 45, 127
1, 236506, Note_on_c, 1, 49, 127
1, 236506, Note_on_c, 4, 52, 127
1, 236700, Note_off_c, 4, 76, 127
1, 236701, Note_on_c, 10, 69, 127
1, 236895, Note_off_c, 10, 69, 127
1, 236896, Note_on_c, 4, 76, 127
1, 237090, Note_off_c, 4, 76, 127
1, 237091, Note_on_c, 6, 78, 127
1, 237285, Note_off_c, 6, 78, 127
1, 237285, Note_off_c, 4, 52, 127
1, 237285, Note_off_c, 1, 49, 127
1, 237285, Note_off_c, 10, 45, 127
1, 237285, Note_off_c, 10, 57, 127
1, 237286, Note_on_c, 10, 81, 127
1, 237383, Note_off_c, 10, 81, 127
1, 237384, Note_on_c, 7, 79, 127
1, 237481, Note_off_c, 7, 79, 127
1, 237482, Note_on_c, 6, 78, 127
1, 237579, Note_off_c, 6, 78, 127
1, 237580, Note_on_c, 4, 76, 127
1, 237677, Note_off_c, 4, 76, 127
1, 237678, Note_on_c, 6, 78, 127
1, 237678, Note_on_c, 2, 50, 127
1, 237678, Note_on_c, 10, 57, 127
1, 237775, Note_off_c, 6, 78, 127
1, 237776, Note_on_c, 10, 69, 127
1, 237873, Note_off_c, 10, 69, 127
1, 237874, Note_on_c, 12, 71, 127
1, 237971, Note_off_c, 12, 71, 127
1, 237972, Note_on_c, 1, 73, 127
1, 238069, Note_off_c, 1, 73, 127
1, 238070, Note_on_c, 2, 74, 127
1, 238167, Note_off_c, 2, 74, 127
1, 238168, Note_on_c, 4, 76, 127
1, 238265, Note_off_c, 4, 76, 127
1, 238266, Note_on_c, 6, 78, 127
1, 238363, Note_off_c, 6, 78, 127
1, 238364, Note_on_c, 7, 79, 127
1, 238461, Note_off_c, 7, 79, 127
1, 238461, Note_off_c, 10, 57, 127
1, 238461, Note_off_c, 2, 50, 127
1, 238462, Note_on_c, 10, 81, 127
1, 238656, Note_off_c, 10, 81, 127
1, 238657, Note_on_c, 6, 78, 127
1, 238851, Note_off_c, 6, 78, 127
1, 238852, Note_on_c, 4, 76, 127
1, 238852, Note_on_c, 1, 61, 127
1, 238852, Note_on_c, 10, 57, 127
1, 239046, Note_off_c, 4, 76, 127
1, 239047, Note_on_c, 10, 81, 127
1, 239144, Note_off_c, 10, 81, 127
1, 239145, Note_on_c, 8, 80, 127
1, 239242, Note_off_c, 8, 80, 127
1, 239243, Note_on_c, 10, 81, 127
1, 239437, Note_off_c, 10, 81, 127
1, 239438, Note_on_c, 4, 76, 127
1, 239503, Note_off_c, 10, 57, 127
1, 239503, Note_off_c, 1, 61, 127
1, 239632, Note_off_c, 4, 76, 127
1, 239633, Note_on_c, 4, 76, 127
1, 239633, Note_on_c, 2, 62, 127
1, 239633, Note_on_c, 12, 59, 127
1, 239633, Note_on_c, 8, 56, 127
1, 239827, Note_off_c, 4, 76, 127
1, 239828, Note_on_c, 6, 78, 127
1, 240022, Note_off_c, 6, 78, 127
1, 240022, Note_off_c, 8, 56, 127
1, 240022, Note_off_c, 12, 59, 127
1, 240022, Note_off_c, 2, 62, 127
1, 240023, Note_on_c, 4, 76, 127
1, 240023, Note_on_c, 10, 57, 127
1, 240023, Note_on_c, 1, 61, 127
1, 240217, Note_off_c, 4, 76, 127
1, 240218, Note_on_c, 10, 81, 127
1, 240315, Note_off_c, 10, 81, 127
1, 240316, Note_on_c, 8, 80, 127
1, 240413, Note_off_c, 8, 80, 127
1, 240414, Note_on_c, 10, 81, 127
1, 240608, Note_off_c, 10, 81, 127
1, 240609, Note_on_c, 4, 76, 127
1, 240674, Note_off_c, 1, 61, 127
1, 240674, Note_off_c, 10, 57, 127
1, 240803, Note_off_c, 4, 76, 127
1, 240804, Note_on_c, 4, 76, 127
1, 240804, Note_on_c, 2, 62, 127
1, 240804, Note_on_c, 8, 56, 127
1, 240804, Note_on_c, 12, 59, 127
1, 240998, Note_off_c, 4, 76, 127
1, 240999, Note_on_c, 6, 78, 127
1, 241193, Note_off_c, 6, 78, 127
1, 241193, Note_off_c, 12, 59, 127
1, 241193, Note_off_c, 8, 56, 127
1, 241193, Note_off_c, 2, 62, 127
1, 241194, Note_on_c, 4, 76, 127
1, 241194, Note_on_c, 10, 57, 127
1, 241194, Note_on_c, 1, 61, 127
1, 241779, Note_off_c, 1, 61, 127
1, 241779, Note_off_c, 10, 57, 127
1, 241779, Note_off_c, 4, 76, 127
1, 241780, Note_on_c, 2, 74, 127
1, 241780, Note_on_c, 12, 59, 127
1, 241974, Note_off_c, 12, 59, 127
1, 241974, Note_off_c, 2, 74, 127
1, 241975, Note_on_c, 1, 73, 127
1, 241975, Note_on_c, 10, 45, 127
1, 241975, Note_on_c, 10, 57, 127
1, 242169, Note_off_c, 1, 73, 127
1, 242170, Note_on_c, 12, 71, 127
1, 242364, Note_off_c, 12, 71, 127
1, 242364, Note_off_c, 10, 45, 127
1, 242365, Note_on_c, 1, 73, 127
1, 242365, Note_on_c, 2, 50, 127
1, 242559, Note_off_c, 1, 73, 127
1, 242560, Note_on_c, 2, 74, 127
1, 242754, Note_off_c, 2, 74, 127
1, 242754, Note_off_c, 2, 50, 127
1, 242754, Note_off_c, 10, 57, 127
1, 242755, Note_on_c, 1, 73, 127
1, 242755, Note_on_c, 8, 68, 127
1, 242755, Note_on_c, 4, 52, 127
1, 242852, Note_off_c, 1, 73, 127
1, 242853, Note_on_c, 12, 71, 127
1, 242901, Note_off_c, 12, 71, 127
1, 242902, Note_on_c, 1, 73, 127
1, 242950, Note_off_c, 1, 73, 127
1, 242951, Note_on_c, 12, 71, 127
1, 242999, Note_off_c, 12, 71, 127
1, 243000, Note_on_c, 1, 73, 127
1, 243048, Note_off_c, 1, 73, 127
1, 243049, Note_on_c, 12, 71, 127
1, 243097, Note_off_c, 12, 71, 127
1, 243098, Note_on_c, 1, 73, 127
1, 243146, Note_off_c, 1, 73, 127
1, 243147, Note_on_c, 12, 71, 127
1, 243147, Note_on_c, 4, 40, 127
1, 243341, Note_off_c, 8, 68, 127
1, 243439, Note_off_c, 12, 71, 127
1, 243440, Note_on_c, 10, 69, 127
1, 243537, Note_off_c, 10, 69, 127
1, 243537, Note_off_c, 4, 40, 127
1, 243537, Note_off_c, 4, 52, 127
1, 243538, Note_on_c, 10, 69, 127
1, 243538, Note_on_c, 10, 45, 127
1, 243635, Note_off_c, 10, 45, 127
1, 243636, Note_on_c, 4, 52, 127
1, 243733, Note_off_c, 4, 52, 127
1, 243733, Note_off_c, 10, 69, 127
1, 243734, Note_on_c, 1, 73, 127
1, 243734, Note_on_c, 4, 76, 127
1, 243734, Note_on_c, 10, 69, 127
1, 243734, Note_on_c, 6, 54, 127
1, 243831, Note_off_c, 6, 54, 127
1, 243832, Note_on_c, 8, 56, 127
1, 243929, Note_off_c, 8, 56, 127
1, 243929, Note_off_c, 10, 69, 127
1, 243929, Note_off_c, 4, 76, 127
1, 243929, Note_off_c, 1, 73, 127
1, 243930, Note_on_c, 4, 76, 127
1, 243930, Note_on_c, 1, 73, 127
1, 243930, Note_on_c, 10, 69, 127
1, 243930, Note_on_c, 10, 57, 127
1, 244124, Note_off_c, 10, 57, 127
1, 244124, Note_off_c, 10, 69, 127
1, 244124, Note_off_c, 1, 73, 127
1, 244124, Note_off_c, 4, 76, 127
1, 244125, Note_on_c, 1, 73, 127
1, 244125, Note_on_c, 4, 76, 127
1, 244125, Note_on_c, 10, 69, 127
1, 244125, Note_on_c, 4, 52, 127
1, 244319, Note_off_c, 4, 52, 127
1, 244319, Note_off_c, 10, 69, 127
1, 244319, Note_off_c, 4, 76, 127
1, 244319, Note_off_c, 1, 73, 127
1, 244320, Note_on_c, 1, 73, 127
1, 244320, Note_on_c, 4, 76, 127
1, 244320, Note_on_c, 10, 69, 127
1, 244320, Note_on_c, 1, 49, 127
1, 244514, Note_off_c, 1, 49, 127
1, 244514, Note_off_c, 10, 69, 127
1, 244514, Note_off_c, 4, 76, 127
1, 244514, Note_off_c, 1, 73, 127
1, 244515, Note_on_c, 10, 69, 127
1, 244515, Note_on_c, 1, 73, 127
1, 244515, Note_on_c, 4, 76, 127
1, 244515, Note_on_c, 4, 52, 127
1, 244709, Note_off_c, 4, 52, 127
1, 244709, Note_off_c, 4, 76, 127
1, 244709, Note_off_c, 1, 73, 127
1, 244709, Note_off_c, 10, 69, 127
1, 244710, Note_on_c, 10, 69, 127
1, 244710, Note_on_c, 2, 74, 127
1, 244710, Note_on_c, 6, 78, 127
1, 244710, Note_on_c, 2, 50, 127
1, 244904, Note_off_c, 2, 50, 127
1, 244904, Note_off_c, 6, 78, 127
1, 244904, Note_off_c, 2, 74, 127
1, 244904, Note_off_c, 10, 69, 127
1, 244905, Note_on_c, 10, 69, 127
1, 244905, Note_on_c, 2, 74, 127
1, 244905, Note_on_c, 6, 78, 127
1, 244905, Note_on_c, 6, 54, 127
1, 245099, Note_off_c, 6, 54, 127
1, 245099, Note_off_c, 6, 78, 127
1, 245099, Note_off_c, 2, 74, 127
1, 245099, Note_off_c, 10, 69, 127
1, 245100, Note_on_c, 10, 69, 127
1, 245100, Note_on_c, 6, 78, 127
1, 245100, Note_on_c, 2, 74, 127
1, 245100, Note_on_c, 10, 57, 127
1, 245294, Note_off_c, 10, 57, 127
1, 245294, Note_off_c, 2, 74, 127
1, 245294, Note_off_c, 6, 78, 127
1, 245294, Note_off_c, 10, 69, 127
1, 245295, Note_on_c, 6, 78, 127
1, 245295, Note_on_c, 10, 69, 127
1, 245295, Note_on_c, 2, 74, 127
1, 245295, Note_on_c, 7, 55, 127
1, 245489, Note_off_c, 7, 55, 127
1, 245489, Note_off_c, 2, 74, 127
1, 245489, Note_off_c, 10, 69, 127
1, 245489, Note_off_c, 6, 78, 127
1, 245490, Note_on_c, 10, 69, 127
1, 245490, Note_on_c, 2, 74, 127
1, 245490, Note_on_c, 6, 78, 127
1, 245490, Note_on_c, 6, 54, 127
1, 245684, Note_off_c, 6, 54, 127
1, 245684, Note_off_c, 6, 78, 127
1, 245684, Note_off_c, 2, 74, 127
1, 245684, Note_off_c, 10, 69, 127
1, 245685, Note_on_c, 2, 74, 127
1, 245685, Note_on_c, 6, 78, 127
1, 245685, Note_on_c, 10, 69, 127
1, 245685, Note_on_c, 4, 52, 127
1, 245879, Note_off_c, 4, 52, 127
1, 245879, Note_off_c, 10, 69, 127
1, 245879, Note_off_c, 6, 78, 127
1, 245879, Note_off_c, 2, 74, 127
1, 245880, Note_on_c, 2, 74, 127
1, 245880, Note_on_c, 6, 78, 127
1, 245880, Note_on_c, 12, 71, 127
1, 245880, Note_on_c, 2, 50, 127
1, 245977, Note_off_c, 2, 50, 127
1, 245978, Note_on_c, 6, 54, 127
1, 246075, Note_off_c, 6, 54, 127
1, 246075, Note_off_c, 12, 71, 127
1, 246075, Note_off_c, 6, 78, 127
1, 246075, Note_off_c, 2, 74, 127
1, 246076, Note_on_c, 12, 71, 127
1, 246076, Note_on_c, 2, 74, 127
1, 246076, Note_on_c, 6, 78, 127
1, 246076, Note_on_c, 8, 56, 127
1, 246173, Note_off_c, 8, 56, 127
1, 246174, Note_on_c, 10, 57, 127
1, 246271, Note_off_c, 10, 57, 127
1, 246271, Note_off_c, 6, 78, 127
1, 246271, Note_off_c, 2, 74, 127
1, 246271, Note_off_c, 12, 71, 127
1, 246272, Note_on_c, 12, 71, 127
1, 246272, Note_on_c, 2, 74, 127
1, 246272, Note_on_c, 6, 78, 127
1, 246272, Note_on_c, 12, 59, 127
1, 246466, Note_off_c, 12, 59, 127
1, 246466, Note_off_c, 6, 78, 127
1, 246466, Note_off_c, 2, 74, 127
1, 246466, Note_off_c, 12, 71, 127
1, 246467, Note_on_c, 12, 71, 127
1, 246467, Note_on_c, 2, 74, 127
1, 246467, Note_on_c, 6, 78, 127
1, 246467, Note_on_c, 6, 54, 127
1, 246661, Note_off_c, 6, 54, 127
1, 246661, Note_off_c, 6, 78, 127
1, 246661, Note_off_c, 2, 74, 127
1, 246661, Note_off_c, 12, 71, 127
1, 246662, Note_on_c, 12, 71, 127
1, 246662, Note_on_c, 6, 78, 127
1, 246662, Note_on_c, 2, 74, 127
1, 246662, Note_on_c, 2, 50, 127
1, 246856, Note_off_c, 2, 50, 127
1, 246856, Note_off_c, 2, 74, 127
1, 246856, Note_off_c, 6, 78, 127
1, 246856, Note_off_c, 12, 71, 127
1, 246857, Note_on_c, 12, 71, 127
1, 246857, Note_on_c, 2, 74, 127
1, 246857, Note_on_c, 6, 78, 127
1, 246857, Note_on_c, 6, 54, 127
1, 247051, Note_off_c, 6, 54, 127
1, 247051, Note_off_c, 6, 78, 127
1, 247051, Note_off_c, 2, 74, 127
1, 247051, Note_off_c, 12, 71, 127
1, 247052, Note_on_c, 8, 80, 127
1, 247052, Note_on_c, 12, 71, 127
1, 247052, Note_on_c, 2, 74, 127
1, 247052, Note_on_c, 4, 52, 127
1, 247246, Note_off_c, 4, 52, 127
1, 247246, Note_off_c, 2, 74, 127
1, 247246, Note_off_c, 12, 71, 127
1, 247246, Note_off_c, 8, 80, 127
1, 247247, Note_on_c, 12, 71, 127
1, 247247, Note_on_c, 2, 74, 127
1, 247247, Note_on_c, 8, 80, 127
1, 247247, Note_on_c, 12, 59, 127
1, 247441, Note_off_c, 12, 59, 127
1, 247441, Note_off_c, 8, 80, 127
1, 247441, Note_off_c, 2, 74, 127
1, 247441, Note_off_c, 12, 71, 127
1, 247442, Note_on_c, 8, 80, 127
1, 247442, Note_on_c, 12, 71, 127
1, 247442, Note_on_c, 2, 74, 127
1, 247442, Note_on_c, 4, 64, 127
1, 247636, Note_off_c, 4, 64, 127
1, 247636, Note_off_c, 2, 74, 127
1, 247636, Note_off_c, 12, 71, 127
1, 247636, Note_off_c, 8, 80, 127
1, 247637, Note_on_c, 8, 80, 127
1, 247637, Note_on_c, 12, 71, 127
1, 247637, Note_on_c, 2, 74, 127
1, 247637, Note_on_c, 2, 62, 127
1, 247831, Note_off_c, 2, 62, 127
1, 247831, Note_off_c, 2, 74, 127
1, 247831, Note_off_c, 12, 71, 127
1, 247831, Note_off_c, 8, 80, 127
1, 247832, Note_on_c, 1, 73, 127
1, 247832, Note_on_c, 10, 81, 127
1, 247832, Note_on_c, 4, 76, 127
1, 247832, Note_on_c, 1, 61, 127
1, 248026, Note_off_c, 1, 61, 127
1, 248026, Note_off_c, 4, 76, 127
1, 248026, Note_off_c, 10, 81, 127
1, 248026, Note_off_c, 1, 73, 127
1, 248027, Note_on_c, 10, 81, 127
1, 248027, Note_on_c, 1, 73, 127
1, 248027, Note_on_c, 4, 76, 127
1, 248027, Note_on_c, 10, 57, 127
1, 248221, Note_off_c, 10, 57, 127
1, 248221, Note_off_c, 4, 76, 127
1, 248221, Note_off_c, 1, 73, 127
1, 248221, Note_off_c, 10, 81, 127
1, 248222, Note_on_c, 6, 78, 127
1, 248222, Note_on_c, 2, 74, 127
1, 248222, Note_on_c, 12, 71, 127
1, 248222, Note_on_c, 10, 81, 127
1, 248222, Note_on_c, 2, 62, 127
1, 248319, Note_off_c, 2, 62, 127
1, 248320, Note_on_c, 12, 59, 127
1, 248417, Note_off_c, 12, 59, 127
1, 248417, Note_off_c, 10, 81, 127
1, 248417, Note_off_c, 12, 71, 127
1, 248417, Note_off_c, 2, 74, 127
1, 248417, Note_off_c, 6, 78, 127
1, 248418, Note_on_c, 2, 74, 127
1, 248418, Note_on_c, 6, 78, 127
1, 248418, Note_on_c, 12, 71, 127
1, 248418, Note_on_c, 10, 81, 127
1, 248418, Note_on_c, 1, 61, 127
1, 248515, Note_off_c, 1, 61, 127
1, 248516, Note_on_c, 2, 62, 127
1, 248613, Note_off_c, 2, 62, 127
1, 248613, Note_off_c, 10, 81, 127
1, 248613, Note_off_c, 12, 71, 127
1, 248613, Note_off_c, 6, 78, 127
1, 248613, Note_off_c, 2, 74, 127
1, 248614, Note_on_c, 8, 80, 127
1, 248614, Note_on_c, 12, 71, 127
1, 248614, Note_on_c, 2, 74, 127
1, 248614, Note_on_c, 4, 76, 127
1, 248614, Note_on_c, 4, 64, 127
1, 248808, Note_off_c, 4, 64, 127
1, 248808, Note_off_c, 4, 76, 127
1, 248808, Note_off_c, 2, 74, 127
1, 248808, Note_off_c, 12, 71, 127
1, 248808, Note_off_c, 8, 80, 127
1, 248809, Note_on_c, 8, 80, 127
1, 248809, Note_on_c, 2, 74, 127
1, 248809, Note_on_c, 4, 76, 127
1, 248809, Note_on_c, 12, 71, 127
1, 248809, Note_on_c, 2, 62, 127
1, 249003, Note_off_c, 2, 62, 127
1, 249003, Note_off_c, 12, 71, 127
1, 249003, Note_off_c, 4, 76, 127
1, 249003, Note_off_c, 2, 74, 127
1, 249003, Note_off_c, 8, 80, 127
1, 249004, Note_on_c, 8, 80, 127
1, 249004, Note_on_c, 12, 71, 127
1, 249004, Note_on_c, 2, 74, 127
1, 249004, Note_on_c, 4, 76, 127
1, 249004, Note_on_c, 4, 64, 127
1, 249198, Note_off_c, 4, 64, 127
1, 249198, Note_off_c, 4, 76, 127
1, 249198, Note_off_c, 2, 74, 127
1, 249198, Note_off_c, 12, 71, 127
1, 249198, Note_off_c, 8, 80, 127
1, 249199, Note_on_c, 8, 80, 127
1, 249199, Note_on_c, 4, 76, 127
1, 249199, Note_on_c, 12, 71, 127
1, 249199, Note_on_c, 2, 74, 127
1, 249199, Note_on_c, 4, 52, 127
1, 249393, Note_off_c, 4, 52, 127
1, 249393, Note_off_c, 2, 74, 127
1, 249393, Note_off_c, 12, 71, 127
1, 249393, Note_off_c, 4, 76, 127
1, 249393, Note_off_c, 8, 80, 127
1, 249394, Note_on_c, 1, 73, 127
1, 249394, Note_on_c, 10, 81, 127
1, 249394, Note_on_c, 10, 57, 127
1, 249588, Note_off_c, 1, 73, 127
1, 249605, Note_on_c, 10, 69, 127
1, 249614, Note_off_c, 10, 81, 127
1, 249799, Note_off_c, 10, 69, 127
1, 249800, Note_on_c, 10, 81, 127
1, 249994, Note_off_c, 10, 81, 127
1, 249995, Note_on_c, 10, 81, 127
1, 250173, Note_off_c, 10, 57, 127
1, 250189, Note_off_c, 10, 81, 127
1, 250190, Note_on_c, 10, 81, 127
1, 250384, Note_off_c, 10, 81, 127
1, 250385, Note_on_c, 10, 81, 127
1, 250579, Note_off_c, 10, 81, 127
1, 250580, Note_on_c, 10, 57, 127
1, 250580, Note_on_c, 4, 52, 127
1, 250580, Note_on_c, 10, 45, 127
1, 250580, Note_on_c, 1, 49, 127
1, 250580, Note_on_c, 10, 81, 127
1, 250677, Note_off_c, 10, 81, 127
1, 250678, Note_on_c, 10, 69, 127
1, 250775, Note_off_c, 10, 69, 127
1, 250776, Note_on_c, 1, 73, 127
1, 250873, Note_off_c, 1, 73, 127
1, 250874, Note_on_c, 4, 76, 127
1, 250971, Note_off_c, 4, 76, 127
1, 250972, Note_on_c, 10, 81, 127
1, 251166, Note_off_c, 10, 81, 127
1, 251167, Note_on_c, 10, 81, 127
1, 251361, Note_off_c, 10, 81, 127
1, 251361, Note_off_c, 1, 49, 127
1, 251361, Note_off_c, 10, 45, 127
1, 251361, Note_off_c, 4, 52, 127
1, 251361, Note_off_c, 10, 57, 127
1, 251362, Note_on_c, 12, 83, 127
1, 251459, Note_off_c, 12, 83, 127
1, 251460, Note_on_c, 10, 81, 127
1, 251557, Note_off_c, 10, 81, 127
1, 251558, Note_on_c, 7, 79, 127
1, 251655, Note_off_c, 7, 79, 127
1, 251656, Note_on_c, 6, 78, 127
1, 251753, Note_off_c, 6, 78, 127
1, 251754, Note_on_c, 10, 45, 127
1, 251754, Note_on_c, 1, 49, 127
1, 251754, Note_on_c, 10, 57, 127
1, 251754, Note_on_c, 4, 52, 127
1, 251754, Note_on_c, 7, 79, 127
1, 251948, Note_off_c, 7, 79, 127
1, 251949, Note_on_c, 10, 69, 127
1, 252143, Note_off_c, 10, 69, 127
1, 252144, Note_on_c, 7, 79, 127
1, 252338, Note_off_c, 7, 79, 127
1, 252339, Note_on_c, 7, 79, 127
1, 252533, Note_off_c, 7, 79, 127
1, 252533, Note_off_c, 4, 52, 127
1, 252533, Note_off_c, 10, 57, 127
1, 252533, Note_off_c, 1, 49, 127
1, 252533, Note_off_c, 10, 45, 127
1, 252534, Note_on_c, 7, 79, 127
1, 252728, Note_off_c, 7, 79, 127
1, 252729, Note_on_c, 7, 79, 127
1, 252923, Note_off_c, 7, 79, 127
1, 252924, Note_on_c, 10, 57, 127
1, 252924, Note_on_c, 4, 52, 127
1, 252924, Note_on_c, 1, 49, 127
1, 252924, Note_on_c, 10, 45, 127
1, 252924, Note_on_c, 7, 79, 127
1, 253021, Note_off_c, 7, 79, 127
1, 253022, Note_on_c, 10, 69, 127
1, 253119, Note_off_c, 10, 69, 127
1, 253120, Note_on_c, 1, 73, 127
1, 253217, Note_off_c, 1, 73, 127
1, 253218, Note_on_c, 4, 76, 127
1, 253315, Note_off_c, 4, 76, 127
1, 253316, Note_on_c, 7, 79, 127
1, 253510, Note_off_c, 7, 79, 127
1, 253511, Note_on_c, 7, 79, 127
1, 253705, Note_off_c, 7, 79, 127
1, 253705, Note_off_c, 10, 45, 127
1, 253705, Note_off_c, 1, 49, 127
1, 253705, Note_off_c, 4, 52, 127
1, 253705, Note_off_c, 10, 57, 127
1, 253706, Note_on_c, 10, 81, 127
1, 253803, Note_off_c, 10, 81, 127
1, 253804, Note_on_c, 7, 79, 127
1, 253901, Note_off_c, 7, 79, 127
1, 253902, Note_on_c, 6, 78, 127
1, 253999, Note_off_c, 6, 78, 127
1, 254000, Note_on_c, 4, 76, 127
1, 254097, Note_off_c, 4, 76, 127
1, 254098, Note_on_c, 10, 57, 127
1, 254098, Note_on_c, 2, 50, 127
1, 254098, Note_on_c, 10, 45, 127
1, 254098, Note_on_c, 6, 78, 127
1, 254195, Note_off_c, 6, 78, 127
1, 254196, Note_on_c, 10, 69, 127
1, 254293, Note_off_c, 10, 69, 127
1, 254294, Note_on_c, 2, 74, 127
1, 254391, Note_off_c, 2, 74, 127
1, 254392, Note_on_c, 4, 76, 127
1, 254489, Note_off_c, 4, 76, 127
1, 254490, Note_on_c, 6, 78, 127
1, 254684, Note_off_c, 6, 78, 127
1, 254685, Note_on_c, 6, 78, 127
1, 254879, Note_off_c, 6, 78, 127
1, 254879, Note_off_c, 10, 45, 127
1, 254879, Note_off_c, 2, 50, 127
1, 254879, Note_off_c, 10, 57, 127
1, 254880, Note_on_c, 7, 79, 127
1, 254977, Note_off_c, 7, 79, 127
1, 254978, Note_on_c, 6, 78, 127
1, 255075, Note_off_c, 6, 78, 127
1, 255076, Note_on_c, 4, 76, 127
1, 255173, Note_off_c, 4, 76, 127
1, 255174, Note_on_c, 2, 74, 127
1, 255271, Note_off_c, 2, 74, 127
1, 255272, Note_on_c, 4, 52, 127
1, 255272, Note_on_c, 1, 49, 127
1, 255272, Note_on_c, 7, 55, 127
1, 255272, Note_on_c, 10, 45, 127
1, 255272, Note_on_c, 10, 57, 127
1, 255272, Note_on_c, 4, 76, 127
1, 255369, Note_off_c, 4, 76, 127
1, 255370, Note_on_c, 10, 69, 127
1, 255467, Note_off_c, 10, 69, 127
1, 255468, Note_on_c, 1, 73, 127
1, 255565, Note_off_c, 1, 73, 127
1, 255566, Note_on_c, 2, 74, 127
1, 255663, Note_off_c, 2, 74, 127
1, 255664, Note_on_c, 4, 76, 127
1, 255858, Note_off_c, 4, 76, 127
1, 255859, Note_on_c, 4, 76, 127
1, 256053, Note_off_c, 4, 76, 127
1, 256053, Note_off_c, 10, 57, 127
1, 256053, Note_off_c, 10, 45, 127
1, 256053, Note_off_c, 7, 55, 127
1, 256053, Note_off_c, 1, 49, 127
1, 256053, Note_off_c, 4, 52, 127
1, 256054, Note_on_c, 6, 78, 127
1, 256151, Note_off_c, 6, 78, 127
1, 256152, Note_on_c, 4, 76, 127
1, 256249, Note_off_c, 4, 76, 127
1, 256250, Note_on_c, 2, 74, 127
1, 256347, Note_off_c, 2, 74, 127
1, 256348, Note_on_c, 1, 73, 127
1, 256445, Note_off_c, 1, 73, 127
1, 256446, Note_on_c, 6, 54, 127
1, 256446, Note_on_c, 10, 45, 127
1, 256446, Note_on_c, 10, 57, 127
1, 256446, Note_on_c, 2, 50, 127
1, 256446, Note_on_c, 6, 78, 127
1, 256543, Note_off_c, 6, 78, 127
1, 256544, Note_on_c, 10, 69, 127
1, 256641, Note_off_c, 10, 69, 127
1, 256642, Note_on_c, 2, 74, 127
1, 256739, Note_off_c, 2, 74, 127
1, 256740, Note_on_c, 4, 76, 127
1, 256837, Note_off_c, 4, 76, 127
1, 256838, Note_on_c, 6, 78, 127
1, 257032, Note_off_c, 6, 78, 127
1, 257033, Note_on_c, 6, 78, 127
1, 257227, Note_off_c, 6, 78, 127
1, 257227, Note_off_c, 2, 50, 127
1, 257227, Note_off_c, 10, 57, 127
1, 257227, Note_off_c, 10, 45, 127
1, 257227, Note_off_c, 6, 54, 127
1, 257228, Note_on_c, 7, 79, 127
1, 257325, Note_off_c, 7, 79, 127
1, 257326, Note_on_c, 6, 78, 127
1, 257423, Note_off_c, 6, 78, 127
1, 257424, Note_on_c, 4, 76, 127
1, 257521, Note_off_c, 4, 76, 127
1, 257522, Note_on_c, 2, 74, 127
1, 257619, Note_off_c, 2, 74, 127
1, 257620, Note_on_c, 1, 49, 127
1, 257620, Note_on_c, 10, 45, 127
1, 257620, Note_on_c, 4, 52, 127
1, 257620, Note_on_c, 10, 57, 127
1, 257620, Note_on_c, 4, 76, 127
1, 257814, Note_off_c, 4, 76, 127
1, 257815, Note_on_c, 10, 69, 127
1, 258009, Note_off_c, 10, 69, 127
1, 258010, Note_on_c, 10, 69, 127
1, 258204, Note_off_c, 10, 69, 127
1, 258204, Note_off_c, 10, 57, 127
1, 258204, Note_off_c, 4, 52, 127
1, 258204, Note_off_c, 10, 45, 127
1, 258204, Note_off_c, 1, 49, 127
1, 258205, Note_on_c, 0, 72, 127
1, 258302, Note_off_c, 0, 72, 127
1, 258303, Note_on_c, 12, 71, 127
1, 258400, Note_off_c, 12, 71, 127
1, 258401, Note_on_c, 10, 57, 127
1, 258401, Note_on_c, 6, 54, 127
1, 258401, Note_on_c, 2, 62, 127
1, 258401, Note_on_c, 0, 72, 127
1, 258595, Note_off_c, 0, 72, 127
1, 258596, Note_on_c, 0, 72, 127
1, 258790, Note_off_c, 0, 72, 127
1, 258790, Note_off_c, 2, 62, 127
1, 258790, Note_off_c, 6, 54, 127
1, 258790, Note_off_c, 10, 57, 127
1, 258791, Note_on_c, 7, 55, 127
1, 258791, Note_on_c, 2, 62, 127
1, 258791, Note_on_c, 2, 74, 127
1, 258888, Note_off_c, 2, 74, 127
1, 258889, Note_on_c, 0, 72, 127
1, 258986, Note_off_c, 0, 72, 127
1, 258987, Note_on_c, 12, 71, 127
1, 259181, Note_off_c, 12, 71, 127
1, 259182, Note_on_c, 12, 71, 127
1, 259376, Note_off_c, 12, 71, 127
1, 259376, Note_off_c, 2, 62, 127
1, 259376, Note_off_c, 7, 55, 127
1, 259377, Note_on_c, 2, 74, 127
1, 259474, Note_off_c, 2, 74, 127
1, 259475, Note_on_c, 1, 73, 127
1, 259572, Note_off_c, 1, 73, 127
1, 259573, Note_on_c, 8, 56, 127
1, 259573, Note_on_c, 4, 64, 127
1, 259573, Note_on_c, 12, 59, 127
1, 259573, Note_on_c, 2, 74, 127
1, 259767, Note_off_c, 2, 74, 127
1, 259768, Note_on_c, 2, 74, 127
1, 259962, Note_off_c, 2, 74, 127
1, 259962, Note_off_c, 12, 59, 127
1, 259962, Note_off_c, 4, 64, 127
1, 259962, Note_off_c, 8, 56, 127
1, 259963, Note_on_c, 10, 57, 127
1, 259963, Note_on_c, 4, 64, 127
1, 259963, Note_on_c, 4, 76, 127
1, 260060, Note_off_c, 4, 76, 127
1, 260061, Note_on_c, 2, 74, 127
1, 260158, Note_off_c, 2, 74, 127
1, 260159, Note_on_c, 1, 73, 127
1, 260353, Note_off_c, 1, 73, 127
1, 260354, Note_on_c, 1, 73, 127
1, 260548, Note_off_c, 1, 73, 127
1, 260548, Note_off_c, 4, 64, 127
1, 260548, Note_off_c, 10, 57, 127
1, 260549, Note_on_c, 4, 76, 127
1, 260646, Note_off_c, 4, 76, 127
1, 260647, Note_on_c, 2, 74, 127
1, 260744, Note_off_c, 2, 74, 127
1, 260745, Note_on_c, 11, 58, 127
1, 260745, Note_on_c, 1, 61, 127
1, 260745, Note_on_c, 6, 66, 127
1, 260745, Note_on_c, 4, 76, 127
1, 260939, Note_off_c, 4, 76, 127
1, 260940, Note_on_c, 4, 76, 127
1, 261134, Note_off_c, 4, 76, 127
1, 261134, Note_off_c, 6, 66, 127
1, 261134, Note_off_c, 1, 61, 127
1, 261134, Note_off_c, 11, 58, 127
1, 261135, Note_on_c, 12, 59, 127
1, 261135, Note_on_c, 6, 66, 127
1, 261135, Note_on_c, 6, 78, 127
1, 261232, Note_off_c, 6, 78, 127
1, 261233, Note_on_c, 4, 76, 127
1, 261330, Note_off_c, 4, 76, 127
1, 261331, Note_on_c, 2, 74, 127
1, 261525, Note_off_c, 2, 74, 127
1, 261526, Note_on_c, 2, 74, 127
1, 261720, Note_off_c, 2, 74, 127
1, 261720, Note_off_c, 6, 66, 127
1, 261720, Note_off_c, 12, 59, 127
1, 261721, Note_on_c, 6, 78, 127
1, 261818, Note_off_c, 6, 78, 127
1, 261819, Note_on_c, 4, 76, 127
1, 261916, Note_off_c, 4, 76, 127
1, 261917, Note_on_c, 12, 59, 127
1, 261917, Note_on_c, 2, 62, 127
1, 261917, Note_on_c, 6, 78, 127
1, 262111, Note_off_c, 6, 78, 127
1, 262112, Note_on_c, 6, 78, 127
1, 262306, Note_off_c, 6, 78, 127
1, 262306, Note_off_c, 2, 62, 127
1, 262306, Note_off_c, 12, 59, 127
1, 262307, Note_on_c, 4, 52, 127
1, 262307, Note_on_c, 4, 64, 127
1, 262307, Note_on_c, 7, 79, 127
1, 262501, Note_off_c, 7, 79, 127
1, 262502, Note_on_c, 4, 76, 127
1, 262696, Note_off_c, 4, 76, 127
1, 262697, Note_on_c, 4, 76, 127
1, 262891, Note_off_c, 4, 76, 127
1, 262892, Note_on_c, 0, 72, 127
1, 263086, Note_off_c, 0, 72, 127
1, 263086, Note_off_c, 4, 64, 127
1, 263086, Note_off_c, 4, 52, 127
1, 263087, Note_on_c, 0, 72, 127
1, 263281, Note_off_c, 0, 72, 127
1, 263282, Note_on_c, 7, 79, 127
1, 263476, Note_off_c, 7, 79, 127
1, 263477, Note_on_c, 4, 52, 127
1, 263477, Note_on_c, 4, 64, 127
1, 263477, Note_on_c, 7, 79, 127
1, 263671, Note_off_c, 7, 79, 127
1, 263672, Note_on_c, 4, 76, 127
1, 263866, Note_off_c, 4, 76, 127
1, 263867, Note_on_c, 4, 76, 127
1, 264061, Note_off_c, 4, 76, 127
1, 264062, Note_on_c, 0, 72, 127
1, 264256, Note_off_c, 0, 72, 127
1, 264256, Note_off_c, 4, 64, 127
1, 264256, Note_off_c, 4, 52, 127
1, 264257, Note_on_c, 0, 72, 127
1, 264451, Note_off_c, 0, 72, 127
1, 264452, Note_on_c, 11, 70, 127
1, 264646, Note_off_c, 11, 70, 127
1, 264647, Note_on_c, 6, 54, 127
1, 264647, Note_on_c, 11, 70, 127
1, 264841, Note_off_c, 11, 70, 127
1, 264842, Note_on_c, 4, 64, 127
1, 264842, Note_on_c, 7, 79, 127
1, 265036, Note_off_c, 7, 79, 127
1, 265036, Note_off_c, 4, 64, 127
1, 265037, Note_on_c, 2, 62, 127
1, 265037, Note_on_c, 6, 78, 127
1, 265231, Note_off_c, 6, 78, 127
1, 265231, Note_off_c, 2, 62, 127
1, 265232, Note_on_c, 1, 61, 127
1, 265232, Note_on_c, 4, 76, 127
1, 265338, Note_off_c, 6, 54, 127
1, 265426, Note_off_c, 4, 76, 127
1, 265426, Note_off_c, 1, 61, 127
1, 265427, Note_on_c, 7, 55, 127
1, 265427, Note_on_c, 12, 59, 127
1, 265427, Note_on_c, 2, 74, 127
1, 265621, Note_off_c, 2, 74, 127
1, 265621, Note_off_c, 12, 59, 127
1, 265622, Note_on_c, 11, 58, 127
1, 265622, Note_on_c, 1, 73, 127
1, 265813, Note_off_c, 7, 55, 127
1, 265816, Note_off_c, 1, 73, 127
1, 265816, Note_off_c, 11, 58, 127
1, 265817, Note_on_c, 4, 52, 127
1, 265817, Note_on_c, 12, 59, 127
1, 265817, Note_on_c, 2, 74, 127
1, 266011, Note_off_c, 2, 74, 127
1, 266012, Note_on_c, 12, 83, 127
1, 266206, Note_off_c, 12, 83, 127
1, 266206, Note_off_c, 4, 52, 127
1, 266207, Note_on_c, 6, 54, 127
1, 266207, Note_on_c, 2, 74, 127
1, 266402, Note_off_c, 2, 74, 127
1, 266402, Note_on_c, 1, 73, 127
1, 266466, Note_off_c, 1, 73, 127
1, 266467, Note_on_c, 2, 74, 127
1, 266531, Note_off_c, 2, 74, 127
1, 266532, Note_on_c, 1, 73, 127
1, 266596, Note_off_c, 1, 73, 127
1, 266596, Note_off_c, 12, 59, 127
1, 266597, Note_on_c, 11, 58, 127
1, 266597, Note_on_c, 2, 74, 127
1, 266661, Note_off_c, 2, 74, 127
1, 266662, Note_on_c, 1, 73, 127
1, 266726, Note_off_c, 1, 73, 127
1, 266727, Note_on_c, 2, 74, 127
1, 266791, Note_off_c, 2, 74, 127
1, 266792, Note_on_c, 1, 73, 127
1, 266889, Note_off_c, 1, 73, 127
1, 266890, Note_on_c, 12, 71, 127
1, 266987, Note_off_c, 12, 71, 127
1, 266987, Note_off_c, 11, 58, 127
1, 266987, Note_off_c, 6, 54, 127
1, 266988, Note_on_c, 12, 47, 127
1, 266988, Note_on_c, 12, 59, 127
1, 266988, Note_on_c, 12, 71, 127
1, 267182, Note_off_c, 12, 71, 127
1, 267183, Note_on_c, 6, 78, 127
1, 267377, Note_off_c, 6, 78, 127
1, 267377, Note_off_c, 12, 59, 127
1, 267377, Note_off_c, 12, 47, 127
1, 267378, Note_on_c, 2, 50, 127
1, 267378, Note_on_c, 12, 47, 127
1, 267378, Note_on_c, 6, 54, 127
1, 267378, Note_on_c, 2, 74, 127
1, 267572, Note_off_c, 2, 74, 127
1, 267573, Note_on_c, 6, 78, 127
1, 267767, Note_off_c, 6, 78, 127
1, 267767, Note_off_c, 6, 54, 127
1, 267767, Note_off_c, 12, 47, 127
1, 267767, Note_off_c, 2, 50, 127
1, 267768, Note_on_c, 6, 54, 127
1, 267768, Note_on_c, 2, 50, 127
1, 267768, Note_on_c, 12, 47, 127
1, 267768, Note_on_c, 12, 71, 127
1, 267962, Note_off_c, 12, 71, 127
1, 267963, Note_on_c, 2, 74, 127
1, 268157, Note_off_c, 2, 74, 127
1, 268157, Note_off_c, 12, 47, 127
1, 268157, Note_off_c, 2, 50, 127
1, 268157, Note_off_c, 6, 54, 127
1, 268158, Note_on_c, 11, 46, 127
1, 268158, Note_on_c, 6, 54, 127
1, 268158, Note_on_c, 4, 52, 127
1, 268158, Note_on_c, 1, 73, 127
1, 268352, Note_off_c, 1, 73, 127
1, 268353, Note_on_c, 11, 70, 127
1, 268547, Note_off_c, 11, 70, 127
1, 268547, Note_off_c, 4, 52, 127
1, 268547, Note_off_c, 6, 54, 127
1, 268547, Note_off_c, 11, 46, 127
1, 268548, Note_on_c, 4, 52, 127
1, 268548, Note_on_c, 11, 46, 127
1, 268548, Note_on_c, 6, 54, 127
1, 268548, Note_on_c, 6, 66, 127
1, 268742, Note_off_c, 6, 66, 127
1, 268743, Note_on_c, 11, 70, 127
1, 268937, Note_off_c, 11, 70, 127
1, 268937, Note_off_c, 6, 54, 127
1, 268937, Note_off_c, 11, 46, 127
1, 268937, Note_off_c, 4, 52, 127
1, 268938, Note_on_c, 1, 49, 127
1, 268938, Note_on_c, 11, 46, 127
1, 268938, Note_on_c, 6, 54, 127
1, 268938, Note_on_c, 1, 73, 127
1, 269132, Note_off_c, 1, 73, 127
1, 269133, Note_on_c, 4, 76, 127
1, 269327, Note_off_c, 4, 76, 127
1, 269327, Note_off_c, 6, 54, 127
1, 269327, Note_off_c, 11, 46, 127
1, 269327, Note_off_c, 1, 49, 127
1, 269328, Note_on_c, 6, 54, 127
1, 269328, Note_on_c, 12, 47, 127
1, 269328, Note_on_c, 12, 59, 127
1, 269328, Note_on_c, 2, 74, 127
1, 269522, Note_off_c, 2, 74, 127
1, 269523, Note_on_c, 1, 73, 127
1, 269717, Note_off_c, 1, 73, 127
1, 269717, Note_off_c, 12, 59, 127
1, 269717, Note_off_c, 12, 47, 127
1, 269717, Note_off_c, 6, 54, 127
1, 269718, Note_on_c, 6, 54, 127
1, 269718, Note_on_c, 12, 59, 127
1, 269718, Note_on_c, 2, 50, 127
1, 269718, Note_on_c, 12, 71, 127
1, 269912, Note_off_c, 12, 71, 127
1, 269913, Note_on_c, 6, 78, 127
1, 270107, Note_off_c, 6, 78, 127
1, 270107, Note_off_c, 2, 50, 127
1, 270107, Note_off_c, 12, 59, 127
1, 270107, Note_off_c, 6, 54, 127
1, 270108, Note_on_c, 6, 54, 127
1, 270108, Note_on_c, 12, 59, 127
1, 270108, Note_on_c, 2, 50, 127
1, 270108, Note_on_c, 12, 83, 127
1, 270302, Note_off_c, 12, 83, 127
1, 270303, Note_on_c, 10, 81, 127
1, 270497, Note_off_c, 10, 81, 127
1, 270497, Note_off_c, 2, 50, 127
1, 270497, Note_off_c, 12, 59, 127
1, 270497, Note_off_c, 6, 54, 127
1, 270498, Note_on_c, 4, 52, 127
1, 270498, Note_on_c, 7, 55, 127
1, 270498, Note_on_c, 12, 59, 127
1, 270498, Note_on_c, 7, 79, 127
1, 270692, Note_off_c, 7, 79, 127
1, 270693, Note_on_c, 4, 76, 127
1, 270887, Note_off_c, 4, 76, 127
1, 270887, Note_off_c, 12, 59, 127
1, 270887, Note_off_c, 7, 55, 127
1, 270887, Note_off_c, 4, 52, 127
1, 270888, Note_on_c, 4, 52, 127
1, 270888, Note_on_c, 10, 45, 127
1, 270888, Note_on_c, 10, 57, 127
1, 270888, Note_on_c, 1, 73, 127
1, 271082, Note_off_c, 1, 73, 127
1, 271083, Note_on_c, 4, 76, 127
1, 271277, Note_off_c, 4, 76, 127
1, 271277, Note_off_c, 10, 57, 127
1, 271277, Note_off_c, 10, 45, 127
1, 271277, Note_off_c, 4, 52, 127
1, 271278, Note_on_c, 1, 49, 127
1, 271278, Note_on_c, 10, 57, 127
1, 271278, Note_on_c, 4, 52, 127
1, 271278, Note_on_c, 10, 81, 127
1, 271472, Note_off_c, 10, 81, 127
1, 271473, Note_on_c, 7, 79, 127
1, 271667, Note_off_c, 7, 79, 127
1, 271667, Note_off_c, 4, 52, 127
1, 271667, Note_off_c, 10, 57, 127
1, 271667, Note_off_c, 1, 49, 127
1, 271668, Note_on_c, 2, 50, 127
1, 271668, Note_on_c, 6, 54, 127
1, 271668, Note_on_c, 10, 57, 127
1, 271668, Note_on_c, 6, 78, 127
1, 271862, Note_off_c, 6, 78, 127
1, 271863, Note_on_c, 4, 76, 127
1, 272057, Note_off_c, 4, 76, 127
1, 272057, Note_off_c, 10, 57, 127
1, 272057, Note_off_c, 6, 54, 127
1, 272057, Note_off_c, 2, 50, 127
1, 272058, Note_on_c, 6, 54, 127
1, 272058, Note_on_c, 2, 50, 127
1, 272058, Note_on_c, 10, 57, 127
1, 272058, Note_on_c, 2, 74, 127
1, 272252, Note_off_c, 2, 74, 127
1, 272253, Note_on_c, 6, 78, 127
1, 272447, Note_off_c, 6, 78, 127
1, 272447, Note_off_c, 10, 57, 127
1, 272447, Note_off_c, 2, 50, 127
1, 272447, Note_off_c, 6, 54, 127
1, 272448, Note_on_c, 12, 47, 127
1, 272448, Note_on_c, 12, 59, 127
1, 272448, Note_on_c, 2, 50, 127
1, 272448, Note_on_c, 7, 79, 127
1, 272642, Note_off_c, 7, 79, 127
1, 272643, Note_on_c, 6, 78, 127
1, 272837, Note_off_c, 6, 78, 127
1, 272837, Note_off_c, 2, 50, 127
1, 272837, Note_off_c, 12, 59, 127
1, 272837, Note_off_c, 12, 47, 127
1, 272838, Note_on_c, 1, 49, 127
1, 272838, Note_on_c, 4, 52, 127
1, 272838, Note_on_c, 7, 55, 127
1, 272838, Note_on_c, 4, 76, 127
1, 273032, Note_off_c, 4, 76, 127
1, 273033, Note_on_c, 1, 73, 127
1, 273227, Note_off_c, 1, 73, 127
1, 273227, Note_off_c, 7, 55, 127
1, 273227, Note_off_c, 4, 52, 127
1, 273227, Note_off_c, 1, 49, 127
1, 273228, Note_on_c, 1, 49, 127
1, 273228, Note_on_c, 6, 42, 127
1, 273228, Note_on_c, 6, 54, 127
1, 273228, Note_on_c, 11, 70, 127
1, 273422, Note_off_c, 11, 70, 127
1, 273423, Note_on_c, 1, 73, 127
1, 273617, Note_off_c, 1, 73, 127
1, 273617, Note_off_c, 6, 54, 127
1, 273617, Note_off_c, 6, 42, 127
1, 273617, Note_off_c, 1, 49, 127
1, 273618, Note_on_c, 11, 46, 127
1, 273618, Note_on_c, 6, 54, 127
1, 273618, Note_on_c, 1, 49, 127
1, 273618, Note_on_c, 6, 78, 127
1, 273812, Note_off_c, 6, 78, 127
1, 273813, Note_on_c, 4, 76, 127
1, 274007, Note_off_c, 4, 76, 127
1, 274007, Note_off_c, 1, 49, 127
1, 274007, Note_off_c, 6, 54, 127
1, 274007, Note_off_c, 11, 46, 127
1, 274008, Note_on_c, 6, 54, 127
1, 274008, Note_on_c, 2, 50, 127
1, 274008, Note_on_c, 12, 47, 127
1, 274008, Note_on_c, 2, 74, 127
1, 274202, Note_off_c, 2, 74, 127
1, 274203, Note_on_c, 1, 73, 127
1, 274397, Note_off_c, 1, 73, 127
1, 274397, Note_off_c, 12, 47, 127
1, 274397, Note_off_c, 2, 50, 127
1, 274397, Note_off_c, 6, 54, 127
1, 274398, Note_on_c, 2, 50, 127
1, 274398, Note_on_c, 6, 54, 127
1, 274398, Note_on_c, 12, 71, 127
1, 274592, Note_off_c, 12, 71, 127
1, 274593, Note_on_c, 6, 78, 127
1, 274787, Note_off_c, 6, 78, 127
1, 274787, Note_off_c, 6, 54, 127
1, 274787, Note_off_c, 2, 50, 127
1, 274788, Note_on_c, 2, 50, 127
1, 274788, Note_on_c, 6, 54, 127
1, 274788, Note_on_c, 12, 47, 127
1, 274788, Note_on_c, 12, 83, 127
1, 274982, Note_off_c, 12, 83, 127
1, 274983, Note_on_c, 10, 81, 127
1, 275177, Note_off_c, 10, 81, 127
1, 275177, Note_off_c, 12, 47, 127
1, 275177, Note_off_c, 6, 54, 127
1, 275177, Note_off_c, 2, 50, 127
1, 275178, Note_on_c, 8, 56, 127
1, 275178, Note_on_c, 5, 53, 127
1, 275178, Note_on_c, 1, 61, 127
1, 275178, Note_on_c, 8, 80, 127
1, 275372, Note_off_c, 8, 80, 127
1, 275373, Note_on_c, 5, 77, 127
1, 275567, Note_off_c, 5, 77, 127
1, 275567, Note_off_c, 1, 61, 127
1, 275567, Note_off_c, 5, 53, 127
1, 275567, Note_off_c, 8, 56, 127
1, 275568, Note_on_c, 8, 56, 127
1, 275568, Note_on_c, 5, 53, 127
1, 275568, Note_on_c, 1, 61, 127
1, 275568, Note_on_c, 1, 73, 127
1, 275762, Note_off_c, 1, 73, 127
1, 275763, Note_on_c, 2, 74, 127
1, 275957, Note_off_c, 2, 74, 127
1, 275957, Note_off_c, 1, 61, 127
1, 275957, Note_off_c, 5, 53, 127
1, 275957, Note_off_c, 8, 56, 127
1, 275958, Note_on_c, 5, 53, 127
1, 275958, Note_on_c, 1, 61, 127
1, 275958, Note_on_c, 8, 56, 127
1, 275958, Note_on_c, 1, 73, 127
1, 276152, Note_off_c, 1, 73, 127
1, 276153, Note_on_c, 12, 71, 127
1, 276347, Note_off_c, 12, 71, 127
1, 276347, Note_off_c, 8, 56, 127
1, 276347, Note_off_c, 1, 61, 127
1, 276347, Note_off_c, 5, 53, 127
1, 276348, Note_on_c, 6, 54, 127
1, 276348, Note_on_c, 1, 61, 127
1, 276348, Note_on_c, 10, 69, 127
1, 276542, Note_off_c, 10, 69, 127
1, 276542, Note_off_c, 1, 61, 127
1, 276542, Note_off_c, 6, 54, 127
1, 276543, Note_on_c, 10, 57, 127
1, 276543, Note_on_c, 6, 78, 127
1, 276737, Note_off_c, 6, 78, 127
1, 276737, Note_off_c, 10, 57, 127
1, 276738, Note_on_c, 6, 54, 127
1, 276738, Note_on_c, 10, 69, 127
1, 276932, Note_off_c, 10, 69, 127
1, 276932, Note_off_c, 6, 54, 127
1, 276933, Note_on_c, 10, 57, 127
1, 276933, Note_on_c, 6, 78, 127
1, 277127, Note_off_c, 6, 78, 127
1, 277127, Note_off_c, 10, 57, 127
1, 277128, Note_on_c, 6, 54, 127
1, 277128, Note_on_c, 10, 69, 127
1, 277322, Note_off_c, 10, 69, 127
1, 277322, Note_off_c, 6, 54, 127
1, 277323, Note_on_c, 10, 57, 127
1, 277323, Note_on_c, 6, 78, 127
1, 277517, Note_off_c, 6, 78, 127
1, 277517, Note_off_c, 10, 57, 127
1, 277518, Note_on_c, 8, 56, 127
1, 277518, Note_on_c, 12, 71, 127
1, 277712, Note_off_c, 12, 71, 127
1, 277712, Note_off_c, 8, 56, 127
1, 277713, Note_on_c, 12, 59, 127
1, 277713, Note_on_c, 6, 78, 127
1, 277907, Note_off_c, 6, 78, 127
1, 277907, Note_off_c, 12, 59, 127
1, 277908, Note_on_c, 8, 56, 127
1, 277908, Note_on_c, 12, 71, 127
1, 278102, Note_off_c, 12, 71, 127
1, 278102, Note_off_c, 8, 56, 127
1, 278103, Note_on_c, 12, 59, 127
1, 278103, Note_on_c, 6, 78, 127
1, 278297, Note_off_c, 6, 78, 127
1, 278297, Note_off_c, 12, 59, 127
1, 278298, Note_on_c, 8, 56, 127
1, 278298, Note_on_c, 12, 71, 127
1, 278492, Note_off_c, 12, 71, 127
1, 278492, Note_off_c, 8, 56, 127
1, 278493, Note_on_c, 12, 59, 127
1, 278493, Note_on_c, 6, 78, 127
1, 278687, Note_off_c, 6, 78, 127
1, 278687, Note_off_c, 12, 59, 127
1, 278688, Note_on_c, 10, 57, 127
1, 278688, Note_on_c, 1, 73, 127
1, 278882, Note_off_c, 1, 73, 127
1, 278882, Note_off_c, 10, 57, 127
1, 278883, Note_on_c, 1, 61, 127
1, 278883, Note_on_c, 6, 78, 127
1, 279077, Note_off_c, 6, 78, 127
1, 279077, Note_off_c, 1, 61, 127
1, 279078, Note_on_c, 10, 57, 127
1, 279078, Note_on_c, 1, 73, 127
1, 279272, Note_off_c, 1, 73, 127
1, 279272, Note_off_c, 10, 57, 127
1, 279273, Note_on_c, 1, 61, 127
1, 279273, Note_on_c, 6, 78, 127
1, 279467, Note_off_c, 6, 78, 127
1, 279467, Note_off_c, 1, 61, 127
1, 279468, Note_on_c, 10, 57, 127
1, 279468, Note_on_c, 1, 73, 127
1, 279662, Note_off_c, 1, 73, 127
1, 279662, Note_off_c, 10, 57, 127
1, 279663, Note_on_c, 1, 61, 127
1, 279663, Note_on_c, 6, 78, 127
1, 279857, Note_off_c, 6, 78, 127
1, 279857, Note_off_c, 1, 61, 127
1, 279858, Note_on_c, 12, 59, 127
1, 279858, Note_on_c, 2, 74, 127
1, 280052, Note_off_c, 2, 74, 127
1, 280052, Note_off_c, 12, 59, 127
1, 280053, Note_on_c, 2, 62, 127
1, 280053, Note_on_c, 6, 78, 127
1, 280247, Note_off_c, 6, 78, 127
1, 280247, Note_off_c, 2, 62, 127
1, 280248, Note_on_c, 12, 59, 127
1, 280248, Note_on_c, 2, 74, 127
1, 280442, Note_off_c, 2, 74, 127
1, 280442, Note_off_c, 12, 59, 127
1, 280443, Note_on_c, 2, 62, 127
1, 280443, Note_on_c, 6, 78, 127
1, 280637, Note_off_c, 6, 78, 127
1, 280637, Note_off_c, 2, 62, 127
1, 280638, Note_on_c, 12, 59, 127
1, 280638, Note_on_c, 2, 74, 127
1, 280832, Note_off_c, 2, 74, 127
1, 280832, Note_off_c, 12, 59, 127
1, 280833, Note_on_c, 2, 62, 127
1, 280833, Note_on_c, 6, 78, 127
1, 281027, Note_off_c, 6, 78, 127
1, 281027, Note_off_c, 2, 62, 127
1, 281028, Note_on_c, 6, 54, 127
1, 281028, Note_on_c, 10, 69, 127
1, 281222, Note_off_c, 6, 54, 127
1, 281223, Note_on_c, 10, 57, 127
1, 281223, Note_on_c, 6, 78, 127
1, 281394, Note_off_c, 10, 69, 127
1, 281417, Note_off_c, 6, 78, 127
1, 281417, Note_off_c, 10, 57, 127
1, 281418, Note_on_c, 6, 54, 127
1, 281418, Note_on_c, 10, 69, 127
1, 281612, Note_off_c, 6, 54, 127
1, 281613, Note_on_c, 10, 57, 127
1, 281613, Note_on_c, 6, 78, 127
1, 281784, Note_off_c, 10, 69, 127
1, 281807, Note_off_c, 6, 78, 127
1, 281807, Note_off_c, 10, 57, 127
1, 281808, Note_on_c, 6, 54, 127
1, 281808, Note_on_c, 10, 69, 127
1, 282002, Note_off_c, 6, 54, 127
1, 282003, Note_on_c, 10, 57, 127
1, 282003, Note_on_c, 6, 78, 127
1, 282174, Note_off_c, 10, 69, 127
1, 282197, Note_off_c, 6, 78, 127
1, 282197, Note_off_c, 10, 57, 127
1, 282198, Note_on_c, 8, 56, 127
1, 282198, Note_on_c, 12, 71, 127
1, 282392, Note_off_c, 8, 56, 127
1, 282393, Note_on_c, 12, 59, 127
1, 282393, Note_on_c, 6, 78, 127
1, 282564, Note_off_c, 12, 71, 127
1, 282587, Note_off_c, 6, 78, 127
1, 282587, Note_off_c, 12, 59, 127
1, 282588, Note_on_c, 8, 56, 127
1, 282588, Note_on_c, 12, 71, 127
1, 282782, Note_off_c, 8, 56, 127
1, 282783, Note_on_c, 12, 59, 127
1, 282783, Note_on_c, 6, 78, 127
1, 282954, Note_off_c, 12, 71, 127
1, 282977, Note_off_c, 6, 78, 127
1, 282977, Note_off_c, 12, 59, 127
1, 282978, Note_on_c, 8, 56, 127
1, 282978, Note_on_c, 12, 71, 127
1, 283172, Note_off_c, 8, 56, 127
1, 283173, Note_on_c, 12, 59, 127
1, 283173, Note_on_c, 6, 78, 127
1, 283344, Note_off_c, 12, 71, 127
1, 283367, Note_off_c, 6, 78, 127
1, 283367, Note_off_c, 12, 59, 127
1, 283368, Note_on_c, 1, 49, 127
1, 283368, Note_on_c, 1, 73, 127
1, 283562, Note_off_c, 1, 49, 127
1, 283563, Note_on_c, 12, 59, 127
1, 283563, Note_on_c, 6, 78, 127
1, 283652, Note_off_c, 1, 73, 127
1, 283757, Note_off_c, 6, 78, 127
1, 283757, Note_off_c, 12, 59, 127
1, 283758, Note_on_c, 1, 49, 127
1, 283758, Note_on_c, 1, 73, 127
1, 283952, Note_off_c, 1, 49, 127
1, 283953, Note_on_c, 12, 59, 127
1, 283953, Note_on_c, 6, 78, 127
1, 284042, Note_off_c, 1, 73, 127
1, 284147, Note_off_c, 6, 78, 127
1, 284147, Note_off_c, 12, 59, 127
1, 284148, Note_on_c, 1, 49, 127
1, 284148, Note_on_c, 1, 73, 127
1, 284342, Note_off_c, 1, 73, 127
1, 284342, Note_off_c, 1, 49, 127
1, 284343, Note_on_c, 12, 59, 127
1, 284343, Note_on_c, 5, 77, 127
1, 284537, Note_off_c, 5, 77, 127
1, 284537, Note_off_c, 12, 59, 127
1, 284538, Note_on_c, 6, 54, 127
1, 284538, Note_on_c, 6, 78, 127
1, 284636, Note_on_c, 1, 73, 127
1, 284733, Note_off_c, 1, 73, 127
1, 284733, Note_off_c, 6, 54, 127
1, 284734, Note_on_c, 1, 61, 127
1, 284734, Note_on_c, 11, 70, 127
1, 284831, Note_off_c, 11, 70, 127
1, 284832, Note_on_c, 1, 73, 127
1, 284926, Note_off_c, 6, 78, 127
1, 284929, Note_off_c, 1, 73, 127
1, 284929, Note_off_c, 1, 61, 127
1, 284930, Note_on_c, 11, 58, 127
1, 284930, Note_on_c, 6, 78, 127
1, 285028, Note_on_c, 1, 73, 127
1, 285125, Note_off_c, 1, 73, 127
1, 285125, Note_off_c, 11, 58, 127
1, 285126, Note_on_c, 6, 54, 127
1, 285126, Note_on_c, 11, 70, 127
1, 285223, Note_off_c, 11, 70, 127
1, 285224, Note_on_c, 1, 73, 127
1, 285318, Note_off_c, 6, 78, 127
1, 285321, Note_off_c, 1, 73, 127
1, 285321, Note_off_c, 6, 54, 127
1, 285322, Note_on_c, 6, 66, 127
1, 285322, Note_on_c, 4, 76, 127
1, 285420, Note_on_c, 1, 73, 127
1, 285517, Note_off_c, 1, 73, 127
1, 285518, Note_on_c, 11, 70, 127
1, 285607, Note_off_c, 4, 76, 127
1, 285614, Note_off_c, 11, 70, 127
1, 285615, Note_on_c, 1, 73, 127
1, 285709, Note_off_c, 6, 66, 127
1, 285712, Note_off_c, 1, 73, 127
1, 285713, Note_on_c, 3, 75, 127
1, 285811, Note_on_c, 12, 71, 127
1, 285908, Note_off_c, 12, 71, 127
1, 285909, Note_on_c, 12, 59, 127
1, 285909, Note_on_c, 10, 69, 127
1, 286006, Note_off_c, 10, 69, 127
1, 286007, Note_on_c, 12, 71, 127
1, 286101, Note_off_c, 3, 75, 127
1, 286104, Note_off_c, 12, 71, 127
1, 286104, Note_off_c, 12, 59, 127
1, 286105, Note_on_c, 6, 54, 127
1, 286105, Note_on_c, 3, 75, 127
1, 286203, Note_on_c, 12, 71, 127
1, 286300, Note_off_c, 12, 71, 127
1, 286300, Note_off_c, 6, 54, 127
1, 286301, Note_on_c, 3, 51, 127
1, 286301, Note_on_c, 10, 69, 127
1, 286390, Note_off_c, 3, 75, 127
1, 286397, Note_off_c, 10, 69, 127
1, 286398, Note_on_c, 12, 71, 127
1, 286495, Note_off_c, 12, 71, 127
1, 286495, Note_off_c, 3, 51, 127
1, 286496, Note_on_c, 12, 47, 127
1, 286496, Note_on_c, 3, 75, 127
1, 286594, Note_on_c, 12, 71, 127
1, 286691, Note_off_c, 12, 71, 127
1, 286692, Note_on_c, 10, 69, 127
1, 286781, Note_off_c, 3, 75, 127
1, 286788, Note_off_c, 10, 69, 127
1, 286789, Note_on_c, 12, 71, 127
1, 286883, Note_off_c, 12, 47, 127
1, 286886, Note_off_c, 12, 71, 127
1, 286887, Note_on_c, 4, 76, 127
1, 286985, Note_on_c, 12, 71, 127
1, 287082, Note_off_c, 12, 71, 127
1, 287083, Note_on_c, 12, 59, 127
1, 287083, Note_on_c, 8, 68, 127
1, 287180, Note_off_c, 8, 68, 127
1, 287181, Note_on_c, 12, 71, 127
1, 287254, Note_off_c, 4, 76, 127
1, 287277, Note_off_c, 12, 71, 127
1, 287277, Note_off_c, 12, 59, 127
1, 287278, Note_on_c, 8, 56, 127
1, 287278, Note_on_c, 4, 76, 127
1, 287376, Note_on_c, 12, 71, 127
1, 287473, Note_off_c, 12, 71, 127
1, 287473, Note_off_c, 8, 56, 127
1, 287474, Note_on_c, 4, 52, 127
1, 287474, Note_on_c, 8, 68, 127
1, 287571, Note_off_c, 8, 68, 127
1, 287572, Note_on_c, 12, 71, 127
1, 287645, Note_off_c, 4, 76, 127
1, 287668, Note_off_c, 12, 71, 127
1, 287668, Note_off_c, 4, 52, 127
1, 287669, Note_on_c, 4, 64, 127
1, 287669, Note_on_c, 2, 74, 127
1, 287767, Note_on_c, 12, 71, 127
1, 287864, Note_off_c, 12, 71, 127
1, 287865, Note_on_c, 8, 68, 127
1, 287954, Note_off_c, 2, 74, 127
1, 287961, Note_off_c, 8, 68, 127
1, 287962, Note_on_c, 12, 71, 127
1, 288056, Note_off_c, 4, 64, 127
1, 288059, Note_off_c, 12, 71, 127
1, 288060, Note_on_c, 1, 73, 127
1, 288158, Note_on_c, 10, 69, 127
1, 288255, Note_off_c, 10, 69, 127
1, 288256, Note_on_c, 10, 57, 127
1, 288256, Note_on_c, 7, 67, 127
1, 288353, Note_off_c, 7, 67, 127
1, 288354, Note_on_c, 10, 69, 127
1, 288427, Note_off_c, 1, 73, 127
1, 288450, Note_off_c, 10, 69, 127
1, 288450, Note_off_c, 10, 57, 127
1, 288451, Note_on_c, 4, 52, 127
1, 288451, Note_on_c, 1, 73, 127
1, 288549, Note_on_c, 10, 69, 127
1, 288646, Note_off_c, 10, 69, 127
1, 288646, Note_off_c, 4, 52, 127
1, 288647, Note_on_c, 1, 49, 127
1, 288647, Note_on_c, 7, 67, 127
1, 288736, Note_off_c, 1, 73, 127
1, 288743, Note_off_c, 7, 67, 127
1, 288744, Note_on_c, 10, 69, 127
1, 288841, Note_off_c, 10, 69, 127
1, 288841, Note_off_c, 1, 49, 127
1, 288842, Note_on_c, 10, 45, 127
1, 288842, Note_on_c, 1, 73, 127
1, 288940, Note_on_c, 10, 69, 127
1, 289037, Note_off_c, 10, 69, 127
1, 289038, Note_on_c, 7, 67, 127
1, 289127, Note_off_c, 1, 73, 127
1, 289134, Note_off_c, 7, 67, 127
1, 289135, Note_on_c, 10, 69, 127
1, 289229, Note_off_c, 10, 45, 127
1, 289232, Note_off_c, 10, 69, 127
1, 289233, Note_on_c, 2, 74, 127
1, 289331, Note_on_c, 10, 69, 127
1, 289428, Note_off_c, 10, 69, 127
1, 289429, Note_on_c, 10, 57, 127
1, 289429, Note_on_c, 6, 66, 127
1, 289526, Note_off_c, 6, 66, 127
1, 289527, Note_on_c, 10, 69, 127
1, 289600, Note_off_c, 2, 74, 127
1, 289623, Note_off_c, 10, 69, 127
1, 289623, Note_off_c, 10, 57, 127
1, 289624, Note_on_c, 6, 54, 127
1, 289624, Note_on_c, 2, 74, 127
1, 289722, Note_on_c, 10, 69, 127
1, 289819, Note_off_c, 10, 69, 127
1, 289819, Note_off_c, 6, 54, 127
1, 289820, Note_on_c, 2, 50, 127
1, 289820, Note_on_c, 6, 66, 127
1, 289917, Note_off_c, 6, 66, 127
1, 289918, Note_on_c, 10, 69, 127
1, 289991, Note_off_c, 2, 74, 127
1, 290014, Note_off_c, 10, 69, 127
1, 290014, Note_off_c, 2, 50, 127
1, 290015, Note_on_c, 0, 60, 127
1, 290015, Note_on_c, 2, 74, 127
1, 290113, Note_on_c, 10, 69, 127
1, 290210, Note_off_c, 10, 69, 127
1, 290211, Note_on_c, 6, 66, 127
1, 290308, Note_off_c, 6, 66, 127
1, 290309, Note_on_c, 10, 69, 127
1, 290382, Note_off_c, 2, 74, 127
1, 290402, Note_off_c, 0, 60, 127
1, 290405, Note_off_c, 10, 69, 127
1, 290406, Note_on_c, 2, 74, 127
1, 290504, Note_on_c, 12, 71, 127
1, 290601, Note_off_c, 12, 71, 127
1, 290602, Note_on_c, 7, 55, 127
1, 290602, Note_on_c, 7, 67, 127
1, 290699, Note_off_c, 7, 67, 127
1, 290700, Note_on_c, 12, 71, 127
1, 290773, Note_off_c, 2, 74, 127
1, 290796, Note_off_c, 12, 71, 127
1, 290796, Note_off_c, 7, 55, 127
1, 290797, Note_on_c, 2, 50, 127
1, 290797, Note_on_c, 2, 74, 127
1, 290895, Note_on_c, 12, 71, 127
1, 290992, Note_off_c, 12, 71, 127
1, 290992, Note_off_c, 2, 50, 127
1, 290993, Note_on_c, 12, 47, 127
1, 290993, Note_on_c, 7, 67, 127
1, 291082, Note_off_c, 2, 74, 127
1, 291089, Note_off_c, 7, 67, 127
1, 291090, Note_on_c, 12, 71, 127
1, 291187, Note_off_c, 12, 71, 127
1, 291187, Note_off_c, 12, 47, 127
1, 291188, Note_on_c, 7, 43, 127
1, 291188, Note_on_c, 2, 74, 127
1, 291286, Note_on_c, 12, 71, 127
1, 291383, Note_off_c, 12, 71, 127
1, 291384, Note_on_c, 7, 67, 127
1, 291473, Note_off_c, 2, 74, 127
1, 291480, Note_off_c, 7, 67, 127
1, 291481, Note_on_c, 12, 71, 127
1, 291575, Note_off_c, 7, 43, 127
1, 291578, Note_off_c, 12, 71, 127
1, 291579, Note_on_c, 4, 76, 127
1, 291677, Note_on_c, 12, 71, 127
1, 291774, Note_off_c, 12, 71, 127
1, 291775, Note_on_c, 12, 59, 127
1, 291775, Note_on_c, 8, 68, 127
1, 291872, Note_off_c, 8, 68, 127
1, 291873, Note_on_c, 12, 71, 127
1, 291946, Note_off_c, 4, 76, 127
1, 291969, Note_off_c, 12, 71, 127
1, 291969, Note_off_c, 12, 59, 127
1, 291970, Note_on_c, 8, 56, 127
1, 291970, Note_on_c, 4, 76, 127
1, 292068, Note_on_c, 12, 71, 127
1, 292165, Note_off_c, 12, 71, 127
1, 292165, Note_off_c, 8, 56, 127
1, 292166, Note_on_c, 4, 52, 127
1, 292166, Note_on_c, 8, 68, 127
1, 292263, Note_off_c, 8, 68, 127
1, 292264, Note_on_c, 12, 71, 127
1, 292337, Note_off_c, 4, 76, 127
1, 292360, Note_off_c, 12, 71, 127
1, 292360, Note_off_c, 4, 52, 127
1, 292361, Note_on_c, 2, 62, 127
1, 292361, Note_on_c, 4, 76, 127
1, 292459, Note_on_c, 12, 71, 127
1, 292556, Note_off_c, 12, 71, 127
1, 292557, Note_on_c, 8, 68, 127
1, 292654, Note_off_c, 8, 68, 127
1, 292655, Note_on_c, 12, 71, 127
1, 292728, Note_off_c, 4, 76, 127
1, 292748, Note_off_c, 2, 62, 127
1, 292751, Note_off_c, 12, 71, 127
1, 292752, Note_on_c, 4, 76, 127
1, 292850, Note_on_c, 1, 73, 127
1, 292947, Note_off_c, 1, 73, 127
1, 292948, Note_on_c, 10, 57, 127
1, 292948, Note_on_c, 10, 69, 127
1, 293045, Note_off_c, 10, 69, 127
1, 293046, Note_on_c, 1, 73, 127
1, 293119, Note_off_c, 4, 76, 127
1, 293142, Note_off_c, 1, 73, 127
1, 293142, Note_off_c, 10, 57, 127
1, 293143, Note_on_c, 4, 52, 127
1, 293143, Note_on_c, 4, 76, 127
1, 293241, Note_on_c, 1, 73, 127
1, 293338, Note_off_c, 1, 73, 127
1, 293338, Note_off_c, 4, 52, 127
1, 293339, Note_on_c, 1, 49, 127
1, 293339, Note_on_c, 10, 69, 127
1, 293428, Note_off_c, 4, 76, 127
1, 293435, Note_off_c, 10, 69, 127
1, 293436, Note_on_c, 1, 73, 127
1, 293533, Note_off_c, 1, 73, 127
1, 293533, Note_off_c, 1, 49, 127
1, 293534, Note_on_c, 10, 45, 127
1, 293534, Note_on_c, 4, 76, 127
1, 293632, Note_on_c, 1, 73, 127
1, 293729, Note_off_c, 1, 73, 127
1, 293730, Note_on_c, 10, 69, 127
1, 293819, Note_off_c, 4, 76, 127
1, 293826, Note_off_c, 10, 69, 127
1, 293827, Note_on_c, 1, 73, 127
1, 293921, Note_off_c, 10, 45, 127
1, 293924, Note_off_c, 1, 73, 127
1, 293925, Note_on_c, 6, 78, 127
1, 294023, Note_on_c, 1, 73, 127
1, 294120, Note_off_c, 1, 73, 127
1, 294121, Note_on_c, 1, 61, 127
1, 294121, Note_on_c, 11, 70, 127
1, 294218, Note_off_c, 11, 70, 127
1, 294219, Note_on_c, 1, 73, 127
1, 294292, Note_off_c, 6, 78, 127
1, 294315, Note_off_c, 1, 73, 127
1, 294315, Note_off_c, 1, 61, 127
1, 294316, Note_on_c, 11, 58, 127
1, 294316, Note_on_c, 6, 78, 127
1, 294414, Note_on_c, 1, 73, 127
1, 294511, Note_off_c, 1, 73, 127
1, 294511, Note_off_c, 11, 58, 127
1, 294512, Note_on_c, 6, 54, 127
1, 294512, Note_on_c, 11, 70, 127
1, 294609, Note_off_c, 11, 70, 127
1, 294610, Note_on_c, 1, 73, 127
1, 294683, Note_off_c, 6, 78, 127
1, 294706, Note_off_c, 1, 73, 127
1, 294706, Note_off_c, 6, 54, 127
1, 294707, Note_on_c, 4, 64, 127
1, 294707, Note_on_c, 6, 78, 127
1, 294805, Note_on_c, 1, 73, 127
1, 294902, Note_off_c, 1, 73, 127
1, 294903, Note_on_c, 11, 70, 127
1, 295000, Note_off_c, 11, 70, 127
1, 295001, Note_on_c, 1, 73, 127
1, 295074, Note_off_c, 6, 78, 127
1, 295094, Note_off_c, 4, 64, 127
1, 295097, Note_off_c, 1, 73, 127
1, 295098, Note_on_c, 6, 78, 127
1, 295196, Note_on_c, 2, 74, 127
1, 295293, Note_off_c, 2, 74, 127
1, 295294, Note_on_c, 12, 59, 127
1, 295294, Note_on_c, 12, 71, 127
1, 295391, Note_off_c, 12, 71, 127
1, 295392, Note_on_c, 2, 74, 127
1, 295465, Note_off_c, 6, 78, 127
1, 295488, Note_off_c, 2, 74, 127
1, 295488, Note_off_c, 12, 59, 127
1, 295489, Note_on_c, 6, 54, 127
1, 295489, Note_on_c, 6, 78, 127
1, 295587, Note_on_c, 2, 74, 127
1, 295684, Note_off_c, 2, 74, 127
1, 295684, Note_off_c, 6, 54, 127
1, 295685, Note_on_c, 2, 50, 127
1, 295685, Note_on_c, 12, 71, 127
1, 295774, Note_off_c, 6, 78, 127
1, 295781, Note_off_c, 12, 71, 127
1, 295782, Note_on_c, 2, 74, 127
1, 295879, Note_off_c, 2, 74, 127
1, 295879, Note_off_c, 2, 50, 127
1, 295880, Note_on_c, 12, 47, 127
1, 295880, Note_on_c, 6, 78, 127
1, 295978, Note_on_c, 2, 74, 127
1, 296075, Note_off_c, 2, 74, 127
1, 296076, Note_on_c, 12, 71, 127
1, 296165, Note_off_c, 6, 78, 127
1, 296172, Note_off_c, 12, 71, 127
1, 296173, Note_on_c, 2, 74, 127
1, 296270, Note_off_c, 2, 74, 127
1, 296271, Note_on_c, 7, 79, 127
1, 296369, Note_on_c, 2, 74, 127
1, 296442, Note_off_c, 12, 47, 127
1, 296465, Note_off_c, 2, 74, 127
1, 296466, Note_on_c, 2, 62, 127
1, 296466, Note_on_c, 12, 71, 127
1, 296555, Note_off_c, 7, 79, 127
1, 296562, Note_off_c, 12, 71, 127
1, 296563, Note_on_c, 2, 74, 127
1, 296660, Note_off_c, 2, 74, 127
1, 296660, Note_off_c, 2, 62, 127
1, 296661, Note_on_c, 12, 59, 127
1, 296661, Note_on_c, 7, 79, 127
1, 296759, Note_on_c, 2, 74, 127
1, 296855, Note_off_c, 7, 79, 127
1, 296856, Note_off_c, 2, 74, 127
1, 296856, Note_off_c, 12, 59, 127
1, 296857, Note_on_c, 7, 55, 127
1, 296857, Note_on_c, 12, 71, 127
1, 296954, Note_off_c, 12, 71, 127
1, 296955, Note_on_c, 2, 74, 127
1, 297052, Note_off_c, 2, 74, 127
1, 297052, Note_off_c, 7, 55, 127
1, 297053, Note_on_c, 4, 52, 127
1, 297053, Note_on_c, 7, 79, 127
1, 297150, Note_off_c, 7, 79, 127
1, 297151, Note_on_c, 2, 74, 127
1, 297248, Note_off_c, 2, 74, 127
1, 297248, Note_off_c, 4, 52, 127
1, 297249, Note_on_c, 7, 55, 127
1, 297249, Note_on_c, 12, 71, 127
1, 297346, Note_off_c, 12, 71, 127
1, 297347, Note_on_c, 2, 74, 127
1, 297444, Note_off_c, 2, 74, 127
1, 297444, Note_off_c, 7, 55, 127
1, 297445, Note_on_c, 10, 57, 127
1, 297445, Note_on_c, 1, 73, 127
1, 297542, Note_off_c, 1, 73, 127
1, 297543, Note_on_c, 2, 74, 127
1, 297640, Note_off_c, 2, 74, 127
1, 297641, Note_on_c, 10, 45, 127
1, 297641, Note_on_c, 1, 73, 127
1, 297738, Note_off_c, 1, 73, 127
1, 297739, Note_on_c, 12, 71, 127
1, 297833, Note_off_c, 10, 57, 127
1, 297835, Note_off_c, 10, 45, 127
1, 297836, Note_off_c, 12, 71, 127
1, 297837, Note_on_c, 10, 69, 127
1, 297934, Note_off_c, 10, 69, 127
1, 297935, Note_on_c, 7, 67, 127
1, 298032, Note_off_c, 7, 67, 127
1, 298033, Note_on_c, 6, 66, 127
1, 298130, Note_off_c, 6, 66, 127
1, 298131, Note_on_c, 4, 64, 127
1, 298228, Note_off_c, 4, 64, 127
1, 298229, Note_on_c, 2, 62, 127
1, 298326, Note_off_c, 2, 62, 127
1, 298327, Note_on_c, 0, 60, 127
1, 298424, Note_off_c, 0, 60, 127
1, 298425, Note_on_c, 12, 59, 127
1, 298425, Note_on_c, 10, 69, 127
1, 298425, Note_on_c, 6, 66, 127
1, 298425, Note_on_c, 0, 72, 127
1, 298522, Note_off_c, 12, 59, 127
1, 298523, Note_on_c, 10, 57, 127
1, 298620, Note_off_c, 10, 57, 127
1, 298620, Note_off_c, 0, 72, 127
1, 298620, Note_off_c, 6, 66, 127
1, 298620, Note_off_c, 10, 69, 127
1, 298621, Note_on_c, 7, 55, 127
1, 298621, Note_on_c, 10, 69, 127
1, 298621, Note_on_c, 6, 66, 127
1, 298621, Note_on_c, 0, 72, 127
1, 298718, Note_off_c, 0, 72, 127
1, 298718, Note_off_c, 6, 66, 127
1, 298718, Note_off_c, 10, 69, 127
1, 298719, Note_on_c, 4, 76, 127
1, 298816, Note_off_c, 4, 76, 127
1, 298816, Note_off_c, 7, 55, 127
1, 298817, Note_on_c, 7, 43, 127
1, 298817, Note_on_c, 2, 74, 127
1, 298914, Note_off_c, 2, 74, 127
1, 298915, Note_on_c, 0, 72, 127
1, 299012, Note_off_c, 0, 72, 127
1, 299013, Note_on_c, 12, 71, 127
1, 299110, Note_off_c, 12, 71, 127
1, 299111, Note_on_c, 10, 69, 127
1, 299205, Note_off_c, 7, 43, 127
1, 299208, Note_off_c, 10, 69, 127
1, 299209, Note_on_c, 8, 68, 127
1, 299306, Note_off_c, 8, 68, 127
1, 299307, Note_on_c, 6, 66, 127
1, 299404, Note_off_c, 6, 66, 127
1, 299405, Note_on_c, 4, 64, 127
1, 299502, Note_off_c, 4, 64, 127
1, 299503, Note_on_c, 2, 62, 127
1, 299600, Note_off_c, 2, 62, 127
1, 299601, Note_on_c, 1, 61, 127
1, 299601, Note_on_c, 2, 74, 127
1, 299601, Note_on_c, 12, 71, 127
1, 299601, Note_on_c, 8, 68, 127
1, 299698, Note_off_c, 1, 61, 127
1, 299699, Note_on_c, 12, 59, 127
1, 299796, Note_off_c, 12, 59, 127
1, 299796, Note_off_c, 8, 68, 127
1, 299796, Note_off_c, 12, 71, 127
1, 299796, Note_off_c, 2, 74, 127
1, 299797, Note_on_c, 10, 57, 127
1, 299797, Note_on_c, 2, 74, 127
1, 299797, Note_on_c, 12, 71, 127
1, 299797, Note_on_c, 8, 68, 127
1, 299894, Note_off_c, 8, 68, 127
1, 299894, Note_off_c, 12, 71, 127
1, 299894, Note_off_c, 2, 74, 127
1, 299895, Note_on_c, 6, 78, 127
1, 299992, Note_off_c, 6, 78, 127
1, 299992, Note_off_c, 10, 57, 127
1, 299993, Note_on_c, 10, 45, 127
1, 299993, Note_on_c, 4, 76, 127
1, 300090, Note_off_c, 4, 76, 127
1, 300091, Note_on_c, 2, 74, 127
1, 300188, Note_off_c, 2, 74, 127
1, 300189, Note_on_c, 1, 73, 127
1, 300286, Note_off_c, 1, 73, 127
1, 300287, Note_on_c, 12, 71, 127
1, 300381, Note_off_c, 10, 45, 127
1, 300384, Note_off_c, 12, 71, 127
1, 300385, Note_on_c, 10, 69, 127
1, 300482, Note_off_c, 10, 69, 127
1, 300483, Note_on_c, 7, 67, 127
1, 300580, Note_off_c, 7, 67, 127
1, 300581, Note_on_c, 6, 66, 127
1, 300678, Note_off_c, 6, 66, 127
1, 300679, Note_on_c, 4, 64, 127
1, 300776, Note_off_c, 4, 64, 127
1, 300777, Note_on_c, 2, 62, 127
1, 300777, Note_on_c, 1, 73, 127
1, 300777, Note_on_c, 4, 76, 127
1, 300777, Note_on_c, 11, 70, 127
1, 300874, Note_off_c, 2, 62, 127
1, 300875, Note_on_c, 1, 61, 127
1, 300972, Note_off_c, 1, 61, 127
1, 300972, Note_off_c, 11, 70, 127
1, 300972, Note_off_c, 4, 76, 127
1, 300972, Note_off_c, 1, 73, 127
1, 300973, Note_on_c, 12, 59, 127
1, 300973, Note_on_c, 1, 73, 127
1, 300973, Note_on_c, 11, 70, 127
1, 300973, Note_on_c, 4, 76, 127
1, 301070, Note_off_c, 4, 76, 127
1, 301070, Note_off_c, 11, 70, 127
1, 301070, Note_off_c, 1, 73, 127
1, 301071, Note_on_c, 7, 79, 127
1, 301168, Note_off_c, 7, 79, 127
1, 301168, Note_off_c, 12, 59, 127
1, 301169, Note_on_c, 12, 47, 127
1, 301169, Note_on_c, 6, 78, 127
1, 301266, Note_off_c, 6, 78, 127
1, 301267, Note_on_c, 4, 76, 127
1, 301364, Note_off_c, 4, 76, 127
1, 301365, Note_on_c, 2, 74, 127
1, 301462, Note_off_c, 2, 74, 127
1, 301463, Note_on_c, 1, 73, 127
1, 301557, Note_off_c, 12, 47, 127
1, 301560, Note_off_c, 1, 73, 127
1, 301561, Note_on_c, 12, 71, 127
1, 301658, Note_off_c, 12, 71, 127
1, 301659, Note_on_c, 10, 69, 127
1, 301756, Note_off_c, 10, 69, 127
1, 301757, Note_on_c, 7, 67, 127
1, 301854, Note_off_c, 7, 67, 127
1, 301855, Note_on_c, 6, 66, 127
1, 301952, Note_off_c, 6, 66, 127
1, 301953, Note_on_c, 4, 64, 127
1, 301953, Note_on_c, 12, 71, 127
1, 301953, Note_on_c, 6, 78, 127
1, 302050, Note_off_c, 4, 64, 127
1, 302051, Note_on_c, 3, 63, 127
1, 302148, Note_off_c, 3, 63, 127
1, 302148, Note_off_c, 6, 78, 127
1, 302148, Note_off_c, 12, 71, 127
1, 302149, Note_on_c, 4, 64, 127
1, 302149, Note_on_c, 4, 76, 127
1, 302149, Note_on_c, 7, 79, 127
1, 302149, Note_on_c, 12, 71, 127
1, 302246, Note_off_c, 12, 71, 127
1, 302246, Note_off_c, 7, 79, 127
1, 302246, Note_off_c, 4, 76, 127
1, 302247, Note_on_c, 7, 79, 127
1, 302344, Note_off_c, 7, 79, 127
1, 302345, Note_on_c, 4, 52, 127
1, 302345, Note_on_c, 12, 83, 127
1, 302442, Note_off_c, 12, 83, 127
1, 302443, Note_on_c, 10, 81, 127
1, 302537, Note_off_c, 4, 64, 127
1, 302539, Note_off_c, 4, 52, 127
1, 302540, Note_off_c, 10, 81, 127
1, 302541, Note_on_c, 7, 79, 127
1, 302638, Note_off_c, 7, 79, 127
1, 302639, Note_on_c, 3, 51, 127
1, 302639, Note_on_c, 10, 81, 127
1, 302736, Note_off_c, 10, 81, 127
1, 302736, Note_off_c, 3, 51, 127
1, 302737, Note_on_c, 4, 52, 127
1, 302737, Note_on_c, 7, 79, 127
1, 302834, Note_off_c, 7, 79, 127
1, 302834, Note_off_c, 4, 52, 127
1, 302835, Note_on_c, 6, 54, 127
1, 302835, Note_on_c, 6, 78, 127
1, 302932, Note_off_c, 6, 78, 127
1, 302932, Note_off_c, 6, 54, 127
1, 302933, Note_on_c, 7, 55, 127
1, 302933, Note_on_c, 4, 76, 127
1, 303030, Note_off_c, 4, 76, 127
1, 303030, Note_off_c, 7, 55, 127
1, 303031, Note_on_c, 4, 52, 127
1, 303031, Note_on_c, 6, 78, 127
1, 303128, Note_off_c, 6, 78, 127
1, 303128, Note_off_c, 4, 52, 127
1, 303129, Note_on_c, 6, 54, 127
1, 303129, Note_on_c, 4, 76, 127
1, 303226, Note_off_c, 4, 76, 127
1, 303226, Note_off_c, 6, 54, 127
1, 303227, Note_on_c, 7, 55, 127
1, 303227, Note_on_c, 2, 74, 127
1, 303324, Note_off_c, 2, 74, 127
1, 303324, Note_off_c, 7, 55, 127
1, 303325, Note_on_c, 10, 45, 127
1, 303325, Note_on_c, 1, 73, 127
1, 303422, Note_off_c, 10, 45, 127
1, 303423, Note_on_c, 10, 57, 127
1, 303520, Note_off_c, 10, 57, 127
1, 303520, Note_off_c, 1, 73, 127
1, 303521, Note_on_c, 12, 59, 127
1, 303521, Note_on_c, 10, 69, 127
1, 303618, Note_off_c, 12, 59, 127
1, 303619, Note_on_c, 1, 61, 127
1, 303716, Note_off_c, 1, 61, 127
1, 303716, Note_off_c, 10, 69, 127
1, 303717, Note_on_c, 2, 62, 127
1, 303717, Note_on_c, 10, 69, 127
1, 303814, Note_off_c, 2, 62, 127
1, 303815, Note_on_c, 10, 57, 127
1, 303912, Note_off_c, 10, 57, 127
1, 303913, Note_off_c, 10, 69, 127
1, 303921, Note_on_c, 6, 54, 127
1, 303921, Note_on_c, 0, 72, 127
1, 304018, Note_off_c, 0, 72, 127
1, 304018, Note_off_c, 6, 54, 127
1, 304019, Note_on_c, 10, 57, 127
1, 304019, Note_on_c, 12, 71, 127
1, 304116, Note_off_c, 12, 71, 127
1, 304116, Note_off_c, 10, 57, 127
1, 304117, Note_on_c, 2, 50, 127
1, 304117, Note_on_c, 0, 72, 127
1, 304214, Note_off_c, 2, 50, 127
1, 304215, Note_on_c, 6, 54, 127
1, 304312, Note_off_c, 6, 54, 127
1, 304312, Note_off_c, 0, 72, 127
1, 304313, Note_on_c, 4, 52, 127
1, 304313, Note_on_c, 0, 72, 127
1, 304410, Note_off_c, 4, 52, 127
1, 304411, Note_on_c, 2, 50, 127
1, 304508, Note_off_c, 2, 50, 127
1, 304508, Note_off_c, 0, 72, 127
1, 304509, Note_on_c, 7, 55, 127
1, 304509, Note_on_c, 2, 74, 127
1, 304557, Note_off_c, 2, 74, 127
1, 304558, Note_on_c, 0, 72, 127
1, 304606, Note_off_c, 0, 72, 127
1, 304606, Note_off_c, 7, 55, 127
1, 304607, Note_on_c, 12, 59, 127
1, 304607, Note_on_c, 2, 74, 127
1, 304655, Note_off_c, 2, 74, 127
1, 304656, Note_on_c, 0, 72, 127
1, 304704, Note_off_c, 0, 72, 127
1, 304704, Note_off_c, 12, 59, 127
1, 304705, Note_on_c, 1, 61, 127
1, 304705, Note_on_c, 12, 71, 127
1, 304802, Note_off_c, 1, 61, 127
1, 304803, Note_on_c, 2, 62, 127
1, 304900, Note_off_c, 2, 62, 127
1, 304900, Note_off_c, 12, 71, 127
1, 304901, Note_on_c, 4, 64, 127
1, 304901, Note_on_c, 12, 71, 127
1, 304998, Note_off_c, 4, 64, 127
1, 304999, Note_on_c, 12, 59, 127
1, 305096, Note_off_c, 12, 59, 127
1, 305096, Note_off_c, 12, 71, 127
1, 305097, Note_on_c, 8, 56, 127
1, 305097, Note_on_c, 2, 74, 127
1, 305194, Note_off_c, 2, 74, 127
1, 305194, Note_off_c, 8, 56, 127
1, 305195, Note_on_c, 12, 59, 127
1, 305195, Note_on_c, 1, 73, 127
1, 305292, Note_off_c, 1, 73, 127
1, 305292, Note_off_c, 12, 59, 127
1, 305293, Note_on_c, 4, 52, 127
1, 305293, Note_on_c, 2, 74, 127
1, 305390, Note_off_c, 4, 52, 127
1, 305391, Note_on_c, 8, 56, 127
1, 305488, Note_off_c, 8, 56, 127
1, 305488, Note_off_c, 2, 74, 127
1, 305489, Note_on_c, 6, 54, 127
1, 305489, Note_on_c, 2, 74, 127
1, 305586, Note_off_c, 6, 54, 127
1, 305587, Note_on_c, 4, 52, 127
1, 305684, Note_off_c, 4, 52, 127
1, 305684, Note_off_c, 2, 74, 127
1, 305685, Note_on_c, 10, 57, 127
1, 305685, Note_on_c, 4, 76, 127
1, 305733, Note_off_c, 4, 76, 127
1, 305734, Note_on_c, 2, 74, 127
1, 305782, Note_off_c, 2, 74, 127
1, 305782, Note_off_c, 10, 57, 127
1, 305783, Note_on_c, 1, 61, 127
1, 305783, Note_on_c, 4, 76, 127
1, 305831, Note_off_c, 4, 76, 127
1, 305832, Note_on_c, 2, 74, 127
1, 305880, Note_off_c, 2, 74, 127
1, 305880, Note_off_c, 1, 61, 127
1, 305881, Note_on_c, 2, 62, 127
1, 305881, Note_on_c, 1, 73, 127
1, 305978, Note_off_c, 2, 62, 127
1, 305979, Note_on_c, 4, 64, 127
1, 306076, Note_off_c, 4, 64, 127
1, 306076, Note_off_c, 1, 73, 127
1, 306077, Note_on_c, 6, 66, 127
1, 306077, Note_on_c, 1, 73, 127
1, 306174, Note_off_c, 6, 66, 127
1, 306175, Note_on_c, 1, 61, 127
1, 306272, Note_off_c, 1, 61, 127
1, 306272, Note_off_c, 1, 73, 127
1, 306273, Note_on_c, 11, 58, 127
1, 306273, Note_on_c, 4, 76, 127
1, 306370, Note_off_c, 4, 76, 127
1, 306370, Note_off_c, 11, 58, 127
1, 306371, Note_on_c, 1, 61, 127
1, 306371, Note_on_c, 2, 74, 127
1, 306468, Note_off_c, 2, 74, 127
1, 306468, Note_off_c, 1, 61, 127
1, 306469, Note_on_c, 6, 54, 127
1, 306469, Note_on_c, 4, 76, 127
1, 306566, Note_off_c, 6, 54, 127
1, 306567, Note_on_c, 11, 58, 127
1, 306664, Note_off_c, 11, 58, 127
1, 306664, Note_off_c, 4, 76, 127
1, 306665, Note_on_c, 8, 56, 127
1, 306665, Note_on_c, 4, 76, 127
1, 306762, Note_off_c, 8, 56, 127
1, 306763, Note_on_c, 6, 54, 127
1, 306860, Note_off_c, 6, 54, 127
1, 306860, Note_off_c, 4, 76, 127
1, 306861, Note_on_c, 12, 59, 127
1, 306861, Note_on_c, 6, 78, 127
1, 306909, Note_off_c, 6, 78, 127
1, 306910, Note_on_c, 4, 76, 127
1, 306958, Note_off_c, 4, 76, 127
1, 306958, Note_off_c, 12, 59, 127
1, 306959, Note_on_c, 6, 66, 127
1, 306959, Note_on_c, 6, 78, 127
1, 307007, Note_off_c, 6, 78, 127
1, 307008, Note_on_c, 4, 76, 127
1, 307056, Note_off_c, 4, 76, 127
1, 307056, Note_off_c, 6, 66, 127
1, 307057, Note_on_c, 7, 67, 127
1, 307057, Note_on_c, 2, 74, 127
1, 307154, Note_off_c, 7, 67, 127
1, 307155, Note_on_c, 10, 69, 127
1, 307252, Note_off_c, 10, 69, 127
1, 307252, Note_off_c, 2, 74, 127
1, 307253, Note_on_c, 12, 71, 127
1, 307253, Note_on_c, 2, 74, 127
1, 307350, Note_off_c, 12, 71, 127
1, 307351, Note_on_c, 6, 66, 127
1, 307448, Note_off_c, 6, 66, 127
1, 307448, Note_off_c, 2, 74, 127
1, 307449, Note_on_c, 2, 62, 127
1, 307449, Note_on_c, 6, 78, 127
1, 307546, Note_off_c, 6, 78, 127
1, 307546, Note_off_c, 2, 62, 127
1, 307547, Note_on_c, 6, 66, 127
1, 307547, Note_on_c, 4, 76, 127
1, 307644, Note_off_c, 4, 76, 127
1, 307644, Note_off_c, 6, 66, 127
1, 307645, Note_on_c, 12, 59, 127
1, 307645, Note_on_c, 6, 78, 127
1, 307742, Note_off_c, 12, 59, 127
1, 307743, Note_on_c, 2, 62, 127
1, 307840, Note_off_c, 2, 62, 127
1, 307840, Note_off_c, 6, 78, 127
1, 307841, Note_on_c, 1, 61, 127
1, 307841, Note_on_c, 6, 78, 127
1, 307938, Note_off_c, 1, 61, 127
1, 307939, Note_on_c, 12, 59, 127
1, 308036, Note_off_c, 12, 59, 127
1, 308036, Note_off_c, 6, 78, 127
1, 308037, Note_on_c, 4, 64, 127
1, 308037, Note_on_c, 7, 79, 127
1, 308107, Note_off_c, 7, 79, 127
1, 308108, Note_on_c, 6, 78, 127
1, 308134, Note_off_c, 4, 64, 127
1, 308135, Note_on_c, 12, 59, 127
1, 308178, Note_off_c, 6, 78, 127
1, 308179, Note_on_c, 7, 79, 127
1, 308231, Note_off_c, 12, 59, 127
1, 308232, Note_on_c, 1, 61, 127
1, 308328, Note_off_c, 7, 79, 127
1, 308329, Note_off_c, 1, 61, 127
1, 308330, Note_on_c, 2, 62, 127
1, 308330, Note_on_c, 10, 81, 127
1, 308427, Note_off_c, 10, 81, 127
1, 308427, Note_off_c, 2, 62, 127
1, 308428, Note_on_c, 4, 64, 127
1, 308428, Note_on_c, 7, 79, 127
1, 308525, Note_off_c, 4, 64, 127
1, 308526, Note_on_c, 12, 59, 127
1, 308623, Note_off_c, 12, 59, 127
1, 308623, Note_off_c, 7, 79, 127
1, 308624, Note_on_c, 7, 55, 127
1, 308624, Note_on_c, 6, 78, 127
1, 308721, Note_off_c, 7, 55, 127
1, 308722, Note_on_c, 12, 59, 127
1, 308819, Note_off_c, 12, 59, 127
1, 308819, Note_off_c, 6, 78, 127
1, 308820, Note_on_c, 4, 52, 127
1, 308820, Note_on_c, 4, 76, 127
1, 308917, Note_off_c, 4, 52, 127
1, 308918, Note_on_c, 7, 55, 127
1, 309015, Note_off_c, 7, 55, 127
1, 309015, Note_off_c, 4, 76, 127
1, 309016, Note_on_c, 6, 54, 127
1, 309016, Note_on_c, 2, 74, 127
1, 309113, Note_off_c, 6, 54, 127
1, 309114, Note_on_c, 4, 52, 127
1, 309211, Note_off_c, 4, 52, 127
1, 309211, Note_off_c, 2, 74, 127
1, 309212, Note_on_c, 10, 57, 127
1, 309212, Note_on_c, 1, 73, 127
1, 309406, Note_off_c, 1, 73, 127
1, 309407, Note_on_c, 10, 69, 127
1, 309601, Note_off_c, 10, 69, 127
1, 309601, Note_off_c, 10, 57, 127
1, 309602, Note_on_c, 5, 53, 127
1, 309602, Note_on_c, 2, 74, 127
1, 309796, Note_off_c, 2, 74, 127
1, 309797, Note_on_c, 10, 69, 127
1, 309991, Note_off_c, 10, 69, 127
1, 309991, Note_off_c, 5, 53, 127
1, 309992, Note_on_c, 1, 49, 127
1, 309992, Note_on_c, 4, 76, 127
1, 310186, Note_off_c, 4, 76, 127
1, 310187, Note_on_c, 10, 69, 127
1, 310381, Note_off_c, 10, 69, 127
1, 310381, Note_off_c, 1, 49, 127
1, 310382, Note_on_c, 2, 50, 127
1, 310382, Note_on_c, 5, 77, 127
1, 310576, Note_off_c, 5, 77, 127
1, 310577, Note_on_c, 10, 69, 127
1, 310771, Note_off_c, 10, 69, 127
1, 310771, Note_off_c, 2, 50, 127
1, 310772, Note_on_c, 1, 49, 127
1, 310772, Note_on_c, 7, 79, 127
1, 310966, Note_off_c, 7, 79, 127
1, 310967, Note_on_c, 10, 69, 127
1, 311161, Note_off_c, 10, 69, 127
1, 311161, Note_off_c, 1, 49, 127
1, 311162, Note_on_c, 10, 45, 127
1, 311162, Note_on_c, 10, 81, 127
1, 311356, Note_off_c, 10, 81, 127
1, 311357, Note_on_c, 4, 76, 127
1, 311551, Note_off_c, 4, 76, 127
1, 311551, Note_off_c, 10, 45, 127
1, 311552, Note_on_c, 2, 50, 127
1, 311552, Note_on_c, 5, 77, 127
1, 311746, Note_off_c, 5, 77, 127
1, 311746, Note_off_c, 2, 50, 127
1, 311747, Note_on_c, 7, 55, 127
1, 311747, Note_on_c, 11, 58, 127
1, 311747, Note_on_c, 2, 74, 127
1, 311941, Note_off_c, 2, 74, 127
1, 311941, Note_off_c, 11, 58, 127
1, 311941, Note_off_c, 7, 55, 127
1, 311942, Note_on_c, 10, 57, 127
1, 311942, Note_on_c, 2, 74, 127
1, 312002, Note_off_c, 2, 74, 127
1, 312002, Note_on_c, 1, 73, 127
1, 312062, Note_off_c, 1, 73, 127
1, 312062, Note_on_c, 2, 74, 127
1, 312122, Note_off_c, 2, 74, 127
1, 312122, Note_on_c, 1, 73, 127
1, 312182, Note_off_c, 1, 73, 127
1, 312182, Note_on_c, 2, 74, 127
1, 312242, Note_off_c, 2, 74, 127
1, 312242, Note_on_c, 1, 73, 127
1, 312302, Note_off_c, 1, 73, 127
1, 312302, Note_on_c, 2, 74, 127
1, 312334, Note_on_c, 10, 45, 127
1, 312362, Note_off_c, 2, 74, 127
1, 312362, Note_on_c, 1, 73, 127
1, 312549, Note_on_c, 2, 74, 127
1, 312552, Note_off_c, 1, 73, 127
1, 312716, Note_off_c, 2, 74, 127
1, 312723, Note_off_c, 10, 45, 127
1, 312723, Note_off_c, 10, 57, 127
1, 312724, Note_on_c, 2, 50, 127
1, 312724, Note_on_c, 2, 74, 127
1, 312821, Note_off_c, 2, 50, 127
1, 312822, Note_on_c, 10, 57, 127
1, 312919, Note_off_c, 10, 57, 127
1, 312919, Note_off_c, 2, 74, 127
1, 312920, Note_on_c, 12, 59, 127
1, 312920, Note_on_c, 6, 78, 127
1, 312920, Note_on_c, 10, 69, 127
1, 312920, Note_on_c, 10, 81, 127
1, 312920, Note_on_c, 2, 74, 127
1, 313017, Note_off_c, 12, 59, 127
1, 313018, Note_on_c, 1, 61, 127
1, 313115, Note_off_c, 1, 61, 127
1, 313115, Note_off_c, 2, 74, 127
1, 313115, Note_off_c, 10, 81, 127
1, 313115, Note_off_c, 10, 69, 127
1, 313115, Note_off_c, 6, 78, 127
1, 313116, Note_on_c, 2, 62, 127
1, 313116, Note_on_c, 2, 74, 127
1, 313116, Note_on_c, 10, 69, 127
1, 313116, Note_on_c, 10, 81, 127
1, 313116, Note_on_c, 6, 78, 127
1, 313310, Note_off_c, 6, 78, 127
1, 313310, Note_off_c, 10, 81, 127
1, 313310, Note_off_c, 10, 69, 127
1, 313310, Note_off_c, 2, 74, 127
1, 313310, Note_off_c, 2, 62, 127
1, 313311, Note_on_c, 10, 57, 127
1, 313311, Note_on_c, 10, 69, 127
1, 313311, Note_on_c, 6, 78, 127
1, 313311, Note_on_c, 2, 74, 127
1, 313311, Note_on_c, 10, 81, 127
1, 313505, Note_off_c, 10, 81, 127
1, 313505, Note_off_c, 2, 74, 127
1, 313505, Note_off_c, 6, 78, 127
1, 313505, Note_off_c, 10, 69, 127
1, 313505, Note_off_c, 10, 57, 127
1, 313506, Note_on_c, 6, 54, 127
1, 313506, Note_on_c, 2, 74, 127
1, 313506, Note_on_c, 10, 69, 127
1, 313506, Note_on_c, 6, 78, 127
1, 313506, Note_on_c, 10, 81, 127
1, 313700, Note_off_c, 10, 81, 127
1, 313700, Note_off_c, 6, 78, 127
1, 313700, Note_off_c, 10, 69, 127
1, 313700, Note_off_c, 2, 74, 127
1, 313700, Note_off_c, 6, 54, 127
1, 313701, Note_on_c, 10, 57, 127
1, 313701, Note_on_c, 6, 78, 127
1, 313701, Note_on_c, 2, 74, 127
1, 313701, Note_on_c, 10, 69, 127
1, 313701, Note_on_c, 10, 81, 127
1, 313895, Note_off_c, 10, 81, 127
1, 313895, Note_off_c, 10, 69, 127
1, 313895, Note_off_c, 2, 74, 127
1, 313895, Note_off_c, 6, 78, 127
1, 313895, Note_off_c, 10, 57, 127
1, 313896, Note_on_c, 2, 50, 127
1, 313896, Note_on_c, 2, 74, 127
1, 313896, Note_on_c, 12, 71, 127
1, 313896, Note_on_c, 10, 81, 127
1, 313896, Note_on_c, 6, 78, 127
1, 314090, Note_off_c, 6, 78, 127
1, 314090, Note_off_c, 10, 81, 127
1, 314090, Note_off_c, 12, 71, 127
1, 314090, Note_off_c, 2, 74, 127
1, 314090, Note_off_c, 2, 50, 127
1, 314091, Note_on_c, 6, 54, 127
1, 314091, Note_on_c, 12, 71, 127
1, 314091, Note_on_c, 6, 78, 127
1, 314091, Note_on_c, 2, 74, 127
1, 314091, Note_on_c, 10, 81, 127
1, 314285, Note_off_c, 10, 81, 127
1, 314285, Note_off_c, 2, 74, 127
1, 314285, Note_off_c, 6, 78, 127
1, 314285, Note_off_c, 12, 71, 127
1, 314285, Note_off_c, 6, 54, 127
1, 314286, Note_on_c, 12, 59, 127
1, 314286, Note_on_c, 6, 78, 127
1, 314286, Note_on_c, 2, 74, 127
1, 314286, Note_on_c, 10, 81, 127
1, 314286, Note_on_c, 12, 71, 127
1, 314480, Note_off_c, 12, 71, 127
1, 314480, Note_off_c, 10, 81, 127
1, 314480, Note_off_c, 2, 74, 127
1, 314480, Note_off_c, 6, 78, 127
1, 314480, Note_off_c, 12, 59, 127
1, 314481, Note_on_c, 10, 57, 127
1, 314481, Note_on_c, 12, 71, 127
1, 314481, Note_on_c, 6, 78, 127
1, 314481, Note_on_c, 2, 74, 127
1, 314481, Note_on_c, 10, 81, 127
1, 314675, Note_off_c, 10, 81, 127
1, 314675, Note_off_c, 2, 74, 127
1, 314675, Note_off_c, 6, 78, 127
1, 314675, Note_off_c, 12, 71, 127
1, 314675, Note_off_c, 10, 57, 127
1, 314676, Note_on_c, 7, 55, 127
1, 314676, Note_on_c, 6, 78, 127
1, 314676, Note_on_c, 2, 74, 127
1, 314676, Note_on_c, 10, 81, 127
1, 314676, Note_on_c, 12, 71, 127
1, 314870, Note_off_c, 12, 71, 127
1, 314870, Note_off_c, 10, 81, 127
1, 314870, Note_off_c, 2, 74, 127
1, 314870, Note_off_c, 6, 78, 127
1, 314870, Note_off_c, 7, 55, 127
1, 314871, Note_on_c, 6, 54, 127
1, 314871, Note_on_c, 6, 78, 127
1, 314871, Note_on_c, 12, 71, 127
1, 314871, Note_on_c, 10, 81, 127
1, 314871, Note_on_c, 2, 74, 127
1, 315065, Note_off_c, 2, 74, 127
1, 315065, Note_off_c, 10, 81, 127
1, 315065, Note_off_c, 12, 71, 127
1, 315065, Note_off_c, 6, 78, 127
1, 315065, Note_off_c, 6, 54, 127
1, 315066, Note_on_c, 4, 52, 127
1, 315066, Note_on_c, 12, 71, 127
1, 315066, Note_on_c, 7, 79, 127
1, 315066, Note_on_c, 6, 78, 127
1, 315066, Note_on_c, 2, 74, 127
1, 315163, Note_off_c, 4, 52, 127
1, 315164, Note_on_c, 12, 59, 127
1, 315261, Note_off_c, 12, 59, 127
1, 315261, Note_off_c, 2, 74, 127
1, 315261, Note_off_c, 6, 78, 127
1, 315261, Note_off_c, 7, 79, 127
1, 315261, Note_off_c, 12, 71, 127
1, 315262, Note_on_c, 1, 61, 127
1, 315262, Note_on_c, 6, 78, 127
1, 315262, Note_on_c, 7, 79, 127
1, 315262, Note_on_c, 2, 74, 127
1, 315262, Note_on_c, 12, 71, 127
1, 315359, Note_off_c, 1, 61, 127
1, 315360, Note_on_c, 2, 62, 127
1, 315457, Note_off_c, 2, 62, 127
1, 315457, Note_off_c, 12, 71, 127
1, 315457, Note_off_c, 2, 74, 127
1, 315457, Note_off_c, 7, 79, 127
1, 315457, Note_off_c, 6, 78, 127
1, 315458, Note_on_c, 4, 64, 127
1, 315458, Note_on_c, 4, 76, 127
1, 315458, Note_on_c, 7, 79, 127
1, 315458, Note_on_c, 2, 74, 127
1, 315458, Note_on_c, 12, 71, 127
1, 315652, Note_off_c, 12, 71, 127
1, 315652, Note_off_c, 2, 74, 127
1, 315652, Note_off_c, 7, 79, 127
1, 315652, Note_off_c, 4, 76, 127
1, 315652, Note_off_c, 4, 64, 127
1, 315653, Note_on_c, 12, 59, 127
1, 315653, Note_on_c, 2, 74, 127
1, 315653, Note_on_c, 12, 71, 127
1, 315653, Note_on_c, 7, 79, 127
1, 315653, Note_on_c, 4, 76, 127
1, 315847, Note_off_c, 4, 76, 127
1, 315847, Note_off_c, 7, 79, 127
1, 315847, Note_off_c, 12, 71, 127
1, 315847, Note_off_c, 2, 74, 127
1, 315847, Note_off_c, 12, 59, 127
1, 315848, Note_on_c, 7, 55, 127
1, 315848, Note_on_c, 2, 74, 127
1, 315848, Note_on_c, 12, 71, 127
1, 315848, Note_on_c, 4, 76, 127
1, 315848, Note_on_c, 7, 79, 127
1, 316042, Note_off_c, 7, 79, 127
1, 316042, Note_off_c, 4, 76, 127
1, 316042, Note_off_c, 12, 71, 127
1, 316042, Note_off_c, 2, 74, 127
1, 316042, Note_off_c, 7, 55, 127
1, 316043, Note_on_c, 4, 52, 127
1, 316043, Note_on_c, 12, 71, 127
1, 316043, Note_on_c, 4, 76, 127
1, 316043, Note_on_c, 2, 74, 127
1, 316043, Note_on_c, 7, 79, 127
1, 316237, Note_off_c, 7, 79, 127
1, 316237, Note_off_c, 2, 74, 127
1, 316237, Note_off_c, 4, 76, 127
1, 316237, Note_off_c, 12, 71, 127
1, 316237, Note_off_c, 4, 52, 127
1, 316238, Note_on_c, 10, 57, 127
1, 316238, Note_on_c, 4, 76, 127
1, 316238, Note_on_c, 1, 73, 127
1, 316238, Note_on_c, 7, 79, 127
1, 316432, Note_off_c, 7, 79, 127
1, 316432, Note_off_c, 1, 73, 127
1, 316432, Note_off_c, 4, 76, 127
1, 316441, Note_on_c, 10, 69, 127
1, 316635, Note_off_c, 10, 69, 127
1, 316636, Note_on_c, 10, 45, 127
1, 316636, Note_on_c, 10, 69, 127
1, 316830, Note_off_c, 10, 69, 127
1, 316831, Note_on_c, 10, 69, 127
1, 317022, Note_off_c, 10, 45, 127
1, 317025, Note_off_c, 10, 69, 127
1, 317026, Note_on_c, 1, 73, 127
1, 317220, Note_off_c, 1, 73, 127
1, 317221, Note_on_c, 10, 69, 127
1, 317406, Note_off_c, 10, 57, 127
1, 317415, Note_off_c, 10, 69, 127
1, 317416, Note_on_c, 10, 57, 127
1, 317416, Note_on_c, 7, 79, 127
1, 317610, Note_off_c, 7, 79, 127
1, 317611, Note_on_c, 10, 69, 127
1, 317805, Note_off_c, 10, 69, 127
1, 317806, Note_on_c, 10, 45, 127
1, 317806, Note_on_c, 10, 69, 127
1, 317903, Note_off_c, 10, 69, 127
1, 317904, Note_on_c, 12, 71, 127
1, 318001, Note_off_c, 12, 71, 127
1, 318002, Note_on_c, 10, 69, 127
1, 318193, Note_off_c, 10, 45, 127
1, 318196, Note_off_c, 10, 69, 127
1, 318197, Note_on_c, 1, 73, 127
1, 318391, Note_off_c, 1, 73, 127
1, 318392, Note_on_c, 10, 69, 127
1, 318585, Note_off_c, 10, 57, 127
1, 318586, Note_off_c, 10, 69, 127
1, 318587, Note_on_c, 10, 57, 127
1, 318587, Note_on_c, 7, 79, 127
1, 318781, Note_off_c, 7, 79, 127
1, 318782, Note_on_c, 10, 69, 127
1, 318976, Note_off_c, 10, 69, 127
1, 318977, Note_on_c, 10, 45, 127
1, 318977, Note_on_c, 1, 73, 127
1, 319074, Note_off_c, 1, 73, 127
1, 319075, Note_on_c, 12, 71, 127
1, 319172, Note_off_c, 12, 71, 127
1, 319173, Note_on_c, 10, 69, 127
1, 319364, Note_off_c, 10, 45, 127
1, 319367, Note_off_c, 10, 69, 127
1, 319368, Note_on_c, 1, 73, 127
1, 319465, Note_off_c, 1, 73, 127
1, 319466, Note_on_c, 12, 71, 127
1, 319563, Note_off_c, 12, 71, 127
1, 319564, Note_on_c, 10, 69, 127
1, 319757, Note_off_c, 10, 57, 127
1, 319758, Note_off_c, 10, 69, 127
1, 319759, Note_on_c, 2, 50, 127
1, 319759, Note_on_c, 10, 57, 127
1, 319759, Note_on_c, 2, 62, 127
1, 319759, Note_on_c, 5, 77, 127
1, 319953, Note_off_c, 5, 77, 127
1, 319954, Note_on_c, 2, 74, 127
1, 320148, Note_off_c, 2, 74, 127
1, 320148, Note_off_c, 2, 62, 127
1, 320148, Note_off_c, 10, 57, 127
1, 320148, Note_off_c, 2, 50, 127
1, 320149, Note_on_c, 10, 57, 127
1, 320149, Note_on_c, 2, 50, 127
1, 320149, Note_on_c, 2, 62, 127
1, 320149, Note_on_c, 1, 73, 127
1, 320343, Note_off_c, 1, 73, 127
1, 320344, Note_on_c, 2, 74, 127
1, 320538, Note_off_c, 2, 74, 127
1, 320538, Note_off_c, 2, 62, 127
1, 320538, Note_off_c, 2, 50, 127
1, 320538, Note_off_c, 10, 57, 127
1, 320539, Note_on_c, 10, 57, 127
1, 320539, Note_on_c, 2, 50, 127
1, 320539, Note_on_c, 2, 62, 127
1, 320539, Note_on_c, 5, 77, 127
1, 320733, Note_off_c, 5, 77, 127
1, 320734, Note_on_c, 4, 76, 127
1, 320928, Note_off_c, 4, 76, 127
1, 320928, Note_off_c, 2, 62, 127
1, 320928, Note_off_c, 2, 50, 127
1, 320928, Note_off_c, 10, 57, 127
1, 320929, Note_on_c, 2, 62, 127
1, 320929, Note_on_c, 12, 59, 127
1, 320929, Note_on_c, 8, 56, 127
1, 320929, Note_on_c, 5, 77, 127
1, 321123, Note_off_c, 5, 77, 127
1, 321124, Note_on_c, 2, 74, 127
1, 321318, Note_off_c, 2, 74, 127
1, 321318, Note_off_c, 8, 56, 127
1, 321318, Note_off_c, 12, 59, 127
1, 321318, Note_off_c, 2, 62, 127
1, 321319, Note_on_c, 2, 62, 127
1, 321319, Note_on_c, 12, 59, 127
1, 321319, Note_on_c, 8, 56, 127
1, 321319, Note_on_c, 1, 73, 127
1, 321513, Note_off_c, 1, 73, 127
1, 321514, Note_on_c, 2, 74, 127
1, 321708, Note_off_c, 2, 74, 127
1, 321708, Note_off_c, 8, 56, 127
1, 321708, Note_off_c, 12, 59, 127
1, 321708, Note_off_c, 2, 62, 127
1, 321709, Note_on_c, 8, 56, 127
1, 321709, Note_on_c, 2, 62, 127
1, 321709, Note_on_c, 12, 59, 127
1, 321709, Note_on_c, 5, 77, 127
1, 321903, Note_off_c, 5, 77, 127
1, 321904, Note_on_c, 4, 76, 127
1, 322098, Note_off_c, 4, 76, 127
1, 322098, Note_off_c, 12, 59, 127
1, 322098, Note_off_c, 2, 62, 127
1, 322098, Note_off_c, 8, 56, 127
1, 322099, Note_on_c, 12, 59, 127
1, 322099, Note_on_c, 8, 56, 127
1, 322099, Note_on_c, 2, 62, 127
1, 322099, Note_on_c, 5, 77, 127
1, 322196, Note_off_c, 5, 77, 127
1, 322197, Note_on_c, 4, 76, 127
1, 322294, Note_off_c, 4, 76, 127
1, 322295, Note_on_c, 5, 77, 127
1, 322392, Note_off_c, 5, 77, 127
1, 322393, Note_on_c, 7, 79, 127
1, 322490, Note_off_c, 7, 79, 127
1, 322490, Note_off_c, 2, 62, 127
1, 322490, Note_off_c, 8, 56, 127
1, 322490, Note_off_c, 12, 59, 127
1, 322491, Note_on_c, 2, 62, 127
1, 322491, Note_on_c, 12, 59, 127
1, 322491, Note_on_c, 8, 56, 127
1, 322491, Note_on_c, 5, 77, 127
1, 322588, Note_off_c, 5, 77, 127
1, 322589, Note_on_c, 4, 76, 127
1, 322686, Note_off_c, 4, 76, 127
1, 322687, Note_on_c, 5, 77, 127
1, 322784, Note_off_c, 5, 77, 127
1, 322785, Note_on_c, 7, 79, 127
1, 322882, Note_off_c, 7, 79, 127
1, 322882, Note_off_c, 8, 56, 127
1, 322882, Note_off_c, 12, 59, 127
1, 322882, Note_off_c, 2, 62, 127
1, 322883, Note_on_c, 8, 56, 127
1, 322883, Note_on_c, 12, 59, 127
1, 322883, Note_on_c, 2, 62, 127
1, 322883, Note_on_c, 5, 77, 127
1, 322980, Note_off_c, 5, 77, 127
1, 322981, Note_on_c, 4, 76, 127
1, 323078, Note_off_c, 4, 76, 127
1, 323079, Note_on_c, 5, 77, 127
1, 323176, Note_off_c, 5, 77, 127
1, 323177, Note_on_c, 7, 79, 127
1, 323274, Note_off_c, 7, 79, 127
1, 323274, Note_off_c, 2, 62, 127
1, 323274, Note_off_c, 12, 59, 127
1, 323274, Note_off_c, 8, 56, 127
1, 323275, Note_on_c, 12, 59, 127
1, 323275, Note_on_c, 8, 56, 127
1, 323275, Note_on_c, 4, 64, 127
1, 323275, Note_on_c, 4, 76, 127
1, 323372, Note_off_c, 4, 76, 127
1, 323373, Note_on_c, 2, 74, 127
1, 323470, Note_off_c, 2, 74, 127
1, 323471, Note_on_c, 4, 76, 127
1, 323568, Note_off_c, 4, 76, 127
1, 323569, Note_on_c, 5, 77, 127
1, 323666, Note_off_c, 5, 77, 127
1, 323666, Note_off_c, 4, 64, 127
1, 323666, Note_off_c, 8, 56, 127
1, 323666, Note_off_c, 12, 59, 127
1, 323667, Note_on_c, 8, 56, 127
1, 323667, Note_on_c, 4, 64, 127
1, 323667, Note_on_c, 12, 59, 127
1, 323667, Note_on_c, 4, 76, 127
1, 323764, Note_off_c, 4, 76, 127
1, 323765, Note_on_c, 2, 74, 127
1, 323862, Note_off_c, 2, 74, 127
1, 323863, Note_on_c, 4, 76, 127
1, 323960, Note_off_c, 4, 76, 127
1, 323961, Note_on_c, 5, 77, 127
1, 324058, Note_off_c, 5, 77, 127
1, 324058, Note_off_c, 12, 59, 127
1, 324058, Note_off_c, 4, 64, 127
1, 324058, Note_off_c, 8, 56, 127
1, 324059, Note_on_c, 8, 56, 127
1, 324059, Note_on_c, 4, 64, 127
1, 324059, Note_on_c, 12, 59, 127
1, 324059, Note_on_c, 4, 76, 127
1, 324156, Note_off_c, 4, 76, 127
1, 324157, Note_on_c, 2, 74, 127
1, 324254, Note_off_c, 2, 74, 127
1, 324255, Note_on_c, 4, 76, 127
1, 324352, Note_off_c, 4, 76, 127
1, 324353, Note_on_c, 5, 77, 127
1, 324450, Note_off_c, 5, 77, 127
1, 324450, Note_off_c, 12, 59, 127
1, 324450, Note_off_c, 4, 64, 127
1, 324450, Note_off_c, 8, 56, 127
1, 324451, Note_on_c, 8, 56, 127
1, 324451, Note_on_c, 4, 64, 127
1, 324451, Note_on_c, 12, 59, 127
1, 324451, Note_on_c, 2, 74, 127
1, 324548, Note_off_c, 2, 74, 127
1, 324549, Note_on_c, 1, 73, 127
1, 324646, Note_off_c, 1, 73, 127
1, 324647, Note_on_c, 2, 74, 127
1, 324744, Note_off_c, 2, 74, 127
1, 324745, Note_on_c, 4, 76, 127
1, 324842, Note_off_c, 4, 76, 127
1, 324842, Note_off_c, 12, 59, 127
1, 324842, Note_off_c, 4, 64, 127
1, 324842, Note_off_c, 8, 56, 127
1, 324843, Note_on_c, 8, 56, 127
1, 324843, Note_on_c, 4, 64, 127
1, 324843, Note_on_c, 12, 59, 127
1, 324843, Note_on_c, 2, 74, 127
1, 324940, Note_off_c, 2, 74, 127
1, 324941, Note_on_c, 1, 73, 127
1, 325038, Note_off_c, 1, 73, 127
1, 325039, Note_on_c, 2, 74, 127
1, 325136, Note_off_c, 2, 74, 127
1, 325137, Note_on_c, 4, 76, 127
1, 325234, Note_off_c, 4, 76, 127
1, 325234, Note_off_c, 12, 59, 127
1, 325234, Note_off_c, 4, 64, 127
1, 325234, Note_off_c, 8, 56, 127
1, 325235, Note_on_c, 8, 56, 127
1, 325235, Note_on_c, 12, 59, 127
1, 325235, Note_on_c, 4, 64, 127
1, 325235, Note_on_c, 2, 74, 127
1, 325332, Note_off_c, 2, 74, 127
1, 325333, Note_on_c, 1, 73, 127
1, 325430, Note_off_c, 1, 73, 127
1, 325431, Note_on_c, 2, 74, 127
1, 325528, Note_off_c, 2, 74, 127
1, 325529, Note_on_c, 4, 76, 127
1, 325626, Note_off_c, 4, 76, 127
1, 325626, Note_off_c, 4, 64, 127
1, 325626, Note_off_c, 12, 59, 127
1, 325626, Note_off_c, 8, 56, 127
1, 325627, Note_on_c, 1, 61, 127
1, 325627, Note_on_c, 10, 57, 127
1, 325627, Note_on_c, 4, 64, 127
1, 325627, Note_on_c, 1, 73, 127
1, 325724, Note_off_c, 1, 73, 127
1, 325725, Note_on_c, 10, 69, 127
1, 325822, Note_off_c, 10, 69, 127
1, 325823, Note_on_c, 12, 71, 127
1, 325920, Note_off_c, 12, 71, 127
1, 325921, Note_on_c, 1, 73, 127
1, 326018, Note_off_c, 1, 73, 127
1, 326019, Note_on_c, 2, 74, 127
1, 326116, Note_off_c, 2, 74, 127
1, 326117, Note_on_c, 4, 76, 127
1, 326214, Note_off_c, 4, 76, 127
1, 326215, Note_on_c, 6, 78, 127
1, 326312, Note_off_c, 6, 78, 127
1, 326313, Note_on_c, 7, 79, 127
1, 326410, Note_off_c, 7, 79, 127
1, 326410, Note_off_c, 4, 64, 127
1, 326410, Note_off_c, 10, 57, 127
1, 326410, Note_off_c, 1, 61, 127
1, 326411, Note_on_c, 10, 81, 127
1, 326508, Note_off_c, 10, 81, 127
1, 326509, Note_on_c, 12, 83, 127
1, 326606, Note_off_c, 12, 83, 127
1, 326607, Note_on_c, 10, 81, 127
1, 326704, Note_off_c, 10, 81, 127
1, 326705, Note_on_c, 12, 83, 127
1, 326802, Note_off_c, 12, 83, 127
1, 326803, Note_on_c, 1, 61, 127
1, 326803, Note_on_c, 10, 57, 127
1, 326803, Note_on_c, 4, 64, 127
1, 326803, Note_on_c, 10, 81, 127
1, 326901, Note_on_c, 10, 69, 127
1, 326997, Note_off_c, 10, 81, 127
1, 326998, Note_off_c, 10, 69, 127
1, 326999, Note_on_c, 12, 71, 127
1, 327096, Note_off_c, 12, 71, 127
1, 327097, Note_on_c, 1, 73, 127
1, 327194, Note_off_c, 1, 73, 127
1, 327195, Note_on_c, 2, 74, 127
1, 327292, Note_off_c, 2, 74, 127
1, 327293, Note_on_c, 4, 76, 127
1, 327390, Note_off_c, 4, 76, 127
1, 327391, Note_on_c, 6, 78, 127
1, 327488, Note_off_c, 6, 78, 127
1, 327489, Note_on_c, 7, 79, 127
1, 327586, Note_off_c, 7, 79, 127
1, 327586, Note_off_c, 4, 64, 127
1, 327586, Note_off_c, 10, 57, 127
1, 327586, Note_off_c, 1, 61, 127
1, 327587, Note_on_c, 10, 81, 127
1, 327684, Note_off_c, 10, 81, 127
1, 327685, Note_on_c, 12, 83, 127
1, 327782, Note_off_c, 12, 83, 127
1, 327783, Note_on_c, 10, 81, 127
1, 327880, Note_off_c, 10, 81, 127
1, 327881, Note_on_c, 7, 79, 127
1, 327978, Note_off_c, 7, 79, 127
1, 327979, Note_on_c, 2, 62, 127
1, 327979, Note_on_c, 6, 78, 127
1, 328173, Note_off_c, 6, 78, 127
1, 328173, Note_off_c, 2, 62, 127
1, 328174, Note_on_c, 1, 61, 127
1, 328174, Note_on_c, 4, 76, 127
1, 328271, Note_off_c, 4, 76, 127
1, 328271, Note_off_c, 1, 61, 127
1, 328272, Note_on_c, 12, 59, 127
1, 328272, Note_on_c, 2, 74, 127
1, 328369, Note_off_c, 2, 74, 127
1, 328369, Note_off_c, 12, 59, 127
1, 328370, Note_on_c, 10, 57, 127
1, 328370, Note_on_c, 2, 74, 127
1, 328467, Note_off_c, 2, 74, 127
1, 328467, Note_off_c, 10, 57, 127
1, 328468, Note_on_c, 7, 55, 127
1, 328468, Note_on_c, 1, 73, 127
1, 328565, Note_off_c, 1, 73, 127
1, 328565, Note_off_c, 7, 55, 127
1, 328566, Note_on_c, 6, 54, 127
1, 328566, Note_on_c, 2, 74, 127
1, 328663, Note_off_c, 2, 74, 127
1, 328663, Note_off_c, 6, 54, 127
1, 328664, Note_on_c, 7, 55, 127
1, 328664, Note_on_c, 4, 76, 127
1, 328761, Note_off_c, 4, 76, 127
1, 328761, Note_off_c, 7, 55, 127
1, 328762, Note_on_c, 10, 57, 127
1, 328762, Note_on_c, 10, 69, 127
1, 328956, Note_off_c, 10, 69, 127
1, 328956, Note_off_c, 10, 57, 127
1, 328957, Note_on_c, 10, 45, 127
1, 328957, Note_on_c, 2, 74, 127
1, 329054, Note_off_c, 2, 74, 127
1, 329055, Note_on_c, 1, 73, 127
1, 329158, Note_on_c, 2, 74, 127
1, 329158, Note_on_c, 2, 50, 127
1, 329161, Note_off_c, 1, 73, 127
1, 329162, Note_off_c, 10, 45, 127
1, 329255, Note_off_c, 2, 50, 127
1, 329267, Note_on_c, 10, 57, 127
1, 329353, Note_off_c, 2, 74, 127
1, 329364, Note_off_c, 10, 57, 127
1, 329365, Note_on_c, 2, 74, 127
1, 329365, Note_on_c, 6, 78, 127
1, 329365, Note_on_c, 10, 81, 127
1, 329365, Note_on_c, 10, 69, 127
1, 329365, Note_on_c, 12, 59, 127
1, 329462, Note_off_c, 12, 59, 127
1, 329463, Note_on_c, 1, 61, 127
1, 329560, Note_off_c, 1, 61, 127
1, 329560, Note_off_c, 10, 69, 127
1, 329560, Note_off_c, 10, 81, 127
1, 329560, Note_off_c, 6, 78, 127
1, 329560, Note_off_c, 2, 74, 127
1, 329561, Note_on_c, 6, 78, 127
1, 329561, Note_on_c, 10, 81, 127
1, 329561, Note_on_c, 10, 69, 127
1, 329561, Note_on_c, 2, 74, 127
1, 329561, Note_on_c, 2, 62, 127
1, 329755, Note_off_c, 2, 62, 127
1, 329755, Note_off_c, 2, 74, 127
1, 329755, Note_off_c, 10, 69, 127
1, 329755, Note_off_c, 10, 81, 127
1, 329755, Note_off_c, 6, 78, 127
1, 329756, Note_on_c, 2, 74, 127
1, 329756, Note_on_c, 10, 81, 127
1, 329756, Note_on_c, 10, 69, 127
1, 329756, Note_on_c, 6, 78, 127
1, 329756, Note_on_c, 10, 57, 127
1, 329950, Note_off_c, 10, 57, 127
1, 329950, Note_off_c, 6, 78, 127
1, 329950, Note_off_c, 10, 69, 127
1, 329950, Note_off_c, 10, 81, 127
1, 329950, Note_off_c, 2, 74, 127
1, 329951, Note_on_c, 10, 81, 127
1, 329951, Note_on_c, 2, 74, 127
1, 329951, Note_on_c, 6, 78, 127
1, 329951, Note_on_c, 10, 69, 127
1, 329951, Note_on_c, 6, 54, 127
1, 330145, Note_off_c, 6, 54, 127
1, 330145, Note_off_c, 10, 69, 127
1, 330145, Note_off_c, 6, 78, 127
1, 330145, Note_off_c, 2, 74, 127
1, 330145, Note_off_c, 10, 81, 127
1, 330146, Note_on_c, 6, 78, 127
1, 330146, Note_on_c, 10, 81, 127
1, 330146, Note_on_c, 10, 69, 127
1, 330146, Note_on_c, 2, 74, 127
1, 330146, Note_on_c, 10, 57, 127
1, 330340, Note_off_c, 10, 57, 127
1, 330340, Note_off_c, 2, 74, 127
1, 330340, Note_off_c, 10, 69, 127
1, 330340, Note_off_c, 10, 81, 127
1, 330340, Note_off_c, 6, 78, 127
1, 330341, Note_on_c, 10, 81, 127
1, 330341, Note_on_c, 12, 71, 127
1, 330341, Note_on_c, 2, 74, 127
1, 330341, Note_on_c, 6, 78, 127
1, 330341, Note_on_c, 2, 50, 127
1, 330535, Note_off_c, 2, 50, 127
1, 330535, Note_off_c, 6, 78, 127
1, 330535, Note_off_c, 2, 74, 127
1, 330535, Note_off_c, 12, 71, 127
1, 330535, Note_off_c, 10, 81, 127
1, 330536, Note_on_c, 6, 78, 127
1, 330536, Note_on_c, 10, 81, 127
1, 330536, Note_on_c, 2, 74, 127
1, 330536, Note_on_c, 12, 71, 127
1, 330536, Note_on_c, 6, 54, 127
1, 330730, Note_off_c, 6, 54, 127
1, 330730, Note_off_c, 12, 71, 127
1, 330730, Note_off_c, 2, 74, 127
1, 330730, Note_off_c, 10, 81, 127
1, 330730, Note_off_c, 6, 78, 127
1, 330731, Note_on_c, 10, 81, 127
1, 330731, Note_on_c, 12, 71, 127
1, 330731, Note_on_c, 2, 74, 127
1, 330731, Note_on_c, 6, 78, 127
1, 330731, Note_on_c, 12, 59, 127
1, 330925, Note_off_c, 12, 59, 127
1, 330925, Note_off_c, 6, 78, 127
1, 330925, Note_off_c, 2, 74, 127
1, 330925, Note_off_c, 12, 71, 127
1, 330925, Note_off_c, 10, 81, 127
1, 330926, Note_on_c, 12, 71, 127
1, 330926, Note_on_c, 2, 74, 127
1, 330926, Note_on_c, 10, 81, 127
1, 330926, Note_on_c, 6, 78, 127
1, 330926, Note_on_c, 10, 57, 127
1, 331120, Note_off_c, 10, 57, 127
1, 331120, Note_off_c, 6, 78, 127
1, 331120, Note_off_c, 10, 81, 127
1, 331120, Note_off_c, 2, 74, 127
1, 331120, Note_off_c, 12, 71, 127
1, 331121, Note_on_c, 6, 78, 127
1, 331121, Note_on_c, 10, 81, 127
1, 331121, Note_on_c, 12, 71, 127
1, 331121, Note_on_c, 2, 74, 127
1, 331121, Note_on_c, 7, 55, 127
1, 331315, Note_off_c, 7, 55, 127
1, 331315, Note_off_c, 2, 74, 127
1, 331315, Note_off_c, 12, 71, 127
1, 331315, Note_off_c, 10, 81, 127
1, 331315, Note_off_c, 6, 78, 127
1, 331316, Note_on_c, 10, 81, 127
1, 331316, Note_on_c, 2, 74, 127
1, 331316, Note_on_c, 6, 78, 127
1, 331316, Note_on_c, 12, 71, 127
1, 331316, Note_on_c, 6, 54, 127
1, 331510, Note_off_c, 6, 54, 127
1, 331510, Note_off_c, 12, 71, 127
1, 331510, Note_off_c, 6, 78, 127
1, 331510, Note_off_c, 2, 74, 127
1, 331510, Note_off_c, 10, 81, 127
1, 331511, Note_on_c, 7, 79, 127
1, 331511, Note_on_c, 2, 74, 127
1, 331511, Note_on_c, 6, 78, 127
1, 331511, Note_on_c, 12, 71, 127
1, 331511, Note_on_c, 4, 52, 127
1, 331608, Note_off_c, 4, 52, 127
1, 331609, Note_on_c, 12, 59, 127
1, 331706, Note_off_c, 12, 59, 127
1, 331706, Note_off_c, 12, 71, 127
1, 331706, Note_off_c, 6, 78, 127
1, 331706, Note_off_c, 2, 74, 127
1, 331706, Note_off_c, 7, 79, 127
1, 331707, Note_on_c, 2, 74, 127
1, 331707, Note_on_c, 7, 79, 127
1, 331707, Note_on_c, 12, 71, 127
1, 331707, Note_on_c, 6, 78, 127
1, 331707, Note_on_c, 1, 61, 127
1, 331804, Note_off_c, 1, 61, 127
1, 331805, Note_on_c, 2, 62, 127
1, 331902, Note_off_c, 2, 62, 127
1, 331902, Note_off_c, 6, 78, 127
1, 331902, Note_off_c, 12, 71, 127
1, 331902, Note_off_c, 7, 79, 127
1, 331902, Note_off_c, 2, 74, 127
1, 331903, Note_on_c, 12, 71, 127
1, 331903, Note_on_c, 2, 74, 127
1, 331903, Note_on_c, 7, 79, 127
1, 331903, Note_on_c, 4, 76, 127
1, 331903, Note_on_c, 4, 64, 127
1, 332097, Note_off_c, 4, 64, 127
1, 332097, Note_off_c, 4, 76, 127
1, 332097, Note_off_c, 7, 79, 127
1, 332097, Note_off_c, 2, 74, 127
1, 332097, Note_off_c, 12, 71, 127
1, 332098, Note_on_c, 4, 76, 127
1, 332098, Note_on_c, 7, 79, 127
1, 332098, Note_on_c, 12, 71, 127
1, 332098, Note_on_c, 2, 74, 127
1, 332098, Note_on_c, 12, 59, 127
1, 332292, Note_off_c, 12, 59, 127
1, 332292, Note_off_c, 2, 74, 127
1, 332292, Note_off_c, 12, 71, 127
1, 332292, Note_off_c, 7, 79, 127
1, 332292, Note_off_c, 4, 76, 127
1, 332293, Note_on_c, 2, 74, 127
1, 332293, Note_on_c, 4, 76, 127
1, 332293, Note_on_c, 7, 79, 127
1, 332293, Note_on_c, 12, 71, 127
1, 332293, Note_on_c, 7, 55, 127
1, 332487, Note_off_c, 7, 55, 127
1, 332487, Note_off_c, 12, 71, 127
1, 332487, Note_off_c, 7, 79, 127
1, 332487, Note_off_c, 4, 76, 127
1, 332487, Note_off_c, 2, 74, 127
1, 332488, Note_on_c, 4, 76, 127
1, 332488, Note_on_c, 7, 79, 127
1, 332488, Note_on_c, 12, 71, 127
1, 332488, Note_on_c, 2, 74, 127
1, 332488, Note_on_c, 4, 52, 127
1, 332682, Note_off_c, 4, 52, 127
1, 332682, Note_off_c, 2, 74, 127
1, 332682, Note_off_c, 12, 71, 127
1, 332682, Note_off_c, 7, 79, 127
1, 332682, Note_off_c, 4, 76, 127
1, 332683, Note_on_c, 7, 79, 127
1, 332683, Note_on_c, 1, 73, 127
1, 332683, Note_on_c, 4, 76, 127
1, 332683, Note_on_c, 10, 69, 127
1, 332683, Note_on_c, 10, 57, 127
1, 332877, Note_off_c, 10, 57, 127
1, 332877, Note_off_c, 10, 69, 127
1, 332877, Note_off_c, 4, 76, 127
1, 332877, Note_off_c, 1, 73, 127
1, 332877, Note_off_c, 7, 79, 127
1, 332878, Note_on_c, 10, 69, 127
1, 332878, Note_on_c, 7, 79, 127
1, 332878, Note_on_c, 4, 76, 127
1, 332878, Note_on_c, 1, 73, 127
1, 332878, Note_on_c, 4, 52, 127
1, 333072, Note_off_c, 4, 52, 127
1, 333072, Note_off_c, 1, 73, 127
1, 333072, Note_off_c, 4, 76, 127
1, 333072, Note_off_c, 7, 79, 127
1, 333072, Note_off_c, 10, 69, 127
1, 333073, Note_on_c, 10, 69, 127
1, 333073, Note_on_c, 4, 76, 127
1, 333073, Note_on_c, 7, 79, 127
1, 333073, Note_on_c, 1, 73, 127
1, 333073, Note_on_c, 1, 49, 127
1, 333267, Note_off_c, 1, 49, 127
1, 333267, Note_off_c, 1, 73, 127
1, 333267, Note_off_c, 7, 79, 127
1, 333267, Note_off_c, 4, 76, 127
1, 333267, Note_off_c, 10, 69, 127
1, 333268, Note_on_c, 4, 76, 127
1, 333268, Note_on_c, 7, 79, 127
1, 333268, Note_on_c, 10, 69, 127
1, 333268, Note_on_c, 1, 73, 127
1, 333268, Note_on_c, 10, 45, 127
1, 333462, Note_off_c, 10, 45, 127
1, 333462, Note_off_c, 1, 73, 127
1, 333462, Note_off_c, 10, 69, 127
1, 333462, Note_off_c, 7, 79, 127
1, 333462, Note_off_c, 4, 76, 127
1, 333463, Note_on_c, 2, 74, 127
1, 333463, Note_on_c, 5, 77, 127
1, 333463, Note_on_c, 12, 71, 127
1, 333463, Note_on_c, 8, 44, 127
1, 333657, Note_off_c, 12, 71, 127
1, 333657, Note_off_c, 5, 77, 127
1, 333657, Note_off_c, 2, 74, 127
1, 333658, Note_on_c, 5, 77, 127
1, 333658, Note_on_c, 12, 71, 127
1, 333658, Note_on_c, 2, 74, 127
1, 333658, Note_on_c, 8, 56, 127
1, 333849, Note_off_c, 8, 44, 127
1, 333852, Note_off_c, 8, 56, 127
1, 333852, Note_off_c, 2, 74, 127
1, 333852, Note_off_c, 12, 71, 127
1, 333852, Note_off_c, 5, 77, 127
1, 333853, Note_on_c, 1, 73, 127
1, 333853, Note_on_c, 4, 76, 127
1, 333853, Note_on_c, 4, 64, 127
1, 333853, Note_on_c, 10, 69, 127
1, 333853, Note_on_c, 10, 57, 127
1, 334047, Note_off_c, 10, 57, 127
1, 334047, Note_off_c, 10, 69, 127
1, 334047, Note_off_c, 4, 64, 127
1, 334047, Note_off_c, 4, 76, 127
1, 334047, Note_off_c, 1, 73, 127
1, 334048, Note_on_c, 4, 76, 127
1, 334048, Note_on_c, 4, 64, 127
1, 334048, Note_on_c, 10, 69, 127
1, 334048, Note_on_c, 1, 73, 127
1, 334048, Note_on_c, 4, 52, 127
1, 334242, Note_off_c, 4, 52, 127
1, 334242, Note_off_c, 1, 73, 127
1, 334242, Note_off_c, 10, 69, 127
1, 334242, Note_off_c, 4, 64, 127
1, 334242, Note_off_c, 4, 76, 127
1, 334243, Note_on_c, 10, 69, 127
1, 334243, Note_on_c, 1, 73, 127
1, 334243, Note_on_c, 4, 64, 127
1, 334243, Note_on_c, 4, 76, 127
1, 334243, Note_on_c, 1, 49, 127
1, 334437, Note_off_c, 1, 49, 127
1, 334437, Note_off_c, 4, 76, 127
1, 334437, Note_off_c, 4, 64, 127
1, 334437, Note_off_c, 1, 73, 127
1, 334437, Note_off_c, 10, 69, 127
1, 334438, Note_on_c, 10, 69, 127
1, 334438, Note_on_c, 1, 73, 127
1, 334438, Note_on_c, 4, 76, 127
1, 334438, Note_on_c, 4, 64, 127
1, 334438, Note_on_c, 10, 45, 127
1, 334632, Note_off_c, 10, 45, 127
1, 334632, Note_off_c, 4, 64, 127
1, 334632, Note_off_c, 4, 76, 127
1, 334632, Note_off_c, 1, 73, 127
1, 334632, Note_off_c, 10, 69, 127
1, 334633, Note_on_c, 2, 74, 127
1, 334633, Note_on_c, 12, 71, 127
1, 334633, Note_on_c, 5, 77, 127
1, 334633, Note_on_c, 8, 44, 127
1, 334827, Note_off_c, 5, 77, 127
1, 334827, Note_off_c, 12, 71, 127
1, 334827, Note_off_c, 2, 74, 127
1, 334828, Note_on_c, 12, 71, 127
1, 334828, Note_on_c, 2, 74, 127
1, 334828, Note_on_c, 5, 77, 127
1, 334828, Note_on_c, 8, 56, 127
1, 335019, Note_off_c, 8, 44, 127
1, 335022, Note_off_c, 8, 56, 127
1, 335022, Note_off_c, 5, 77, 127
1, 335022, Note_off_c, 2, 74, 127
1, 335022, Note_off_c, 12, 71, 127
1, 335023, Note_on_c, 1, 73, 127
1, 335023, Note_on_c, 4, 76, 127
1, 335023, Note_on_c, 4, 64, 127
1, 335023, Note_on_c, 10, 69, 127
1, 335023, Note_on_c, 10, 57, 127
1, 335217, Note_off_c, 10, 57, 127
1, 335217, Note_off_c, 10, 69, 127
1, 335217, Note_off_c, 4, 64, 127
1, 335217, Note_off_c, 4, 76, 127
1, 335217, Note_off_c, 1, 73, 127
1, 335218, Note_on_c, 10, 69, 127
1, 335218, Note_on_c, 1, 73, 127
1, 335218, Note_on_c, 4, 76, 127
1, 335218, Note_on_c, 4, 64, 127
1, 335218, Note_on_c, 7, 55, 127
1, 335412, Note_off_c, 7, 55, 127
1, 335412, Note_off_c, 4, 64, 127
1, 335412, Note_off_c, 4, 76, 127
1, 335412, Note_off_c, 1, 73, 127
1, 335412, Note_off_c, 10, 69, 127
1, 335413, Note_on_c, 10, 69, 127
1, 335413, Note_on_c, 1, 73, 127
1, 335413, Note_on_c, 4, 76, 127
1, 335413, Note_on_c, 4, 64, 127
1, 335413, Note_on_c, 5, 53, 127
1, 335607, Note_off_c, 5, 53, 127
1, 335607, Note_off_c, 4, 64, 127
1, 335607, Note_off_c, 4, 76, 127
1, 335607, Note_off_c, 1, 73, 127
1, 335607, Note_off_c, 10, 69, 127
1, 335608, Note_on_c, 1, 73, 127
1, 335608, Note_on_c, 4, 76, 127
1, 335608, Note_on_c, 10, 69, 127
1, 335608, Note_on_c, 4, 64, 127
1, 335608, Note_on_c, 4, 52, 127
1, 335802, Note_off_c, 4, 52, 127
1, 335802, Note_off_c, 4, 64, 127
1, 335802, Note_off_c, 10, 69, 127
1, 335802, Note_off_c, 4, 76, 127
1, 335802, Note_off_c, 1, 73, 127
1, 335803, Note_on_c, 10, 69, 127
1, 335803, Note_on_c, 2, 74, 127
1, 335803, Note_on_c, 5, 77, 127
1, 335803, Note_on_c, 2, 50, 127
1, 335997, Note_off_c, 2, 50, 127
1, 335997, Note_off_c, 5, 77, 127
1, 335997, Note_off_c, 2, 74, 127
1, 335997, Note_off_c, 10, 69, 127
1, 335998, Note_on_c, 10, 69, 127
1, 335998, Note_on_c, 2, 74, 127
1, 335998, Note_on_c, 5, 77, 127
1, 335998, Note_on_c, 5, 53, 127
1, 336192, Note_off_c, 5, 53, 127
1, 336192, Note_off_c, 5, 77, 127
1, 336192, Note_off_c, 2, 74, 127
1, 336192, Note_off_c, 10, 69, 127
1, 336193, Note_on_c, 2, 74, 127
1, 336193, Note_on_c, 4, 76, 127
1, 336193, Note_on_c, 11, 70, 127
1, 336193, Note_on_c, 7, 55, 127
1, 336290, Note_off_c, 7, 55, 127
1, 336291, Note_on_c, 4, 52, 127
1, 336388, Note_off_c, 4, 52, 127
1, 336388, Note_off_c, 11, 70, 127
1, 336388, Note_off_c, 4, 76, 127
1, 336388, Note_off_c, 2, 74, 127
1, 336389, Note_on_c, 2, 74, 127
1, 336389, Note_on_c, 4, 76, 127
1, 336389, Note_on_c, 11, 70, 127
1, 336389, Note_on_c, 5, 53, 127
1, 336486, Note_off_c, 5, 53, 127
1, 336487, Note_on_c, 7, 55, 127
1, 336584, Note_off_c, 7, 55, 127
1, 336584, Note_off_c, 11, 70, 127
1, 336584, Note_off_c, 4, 76, 127
1, 336584, Note_off_c, 2, 74, 127
1, 336585, Note_on_c, 10, 69, 127
1, 336585, Note_on_c, 2, 74, 127
1, 336585, Note_on_c, 4, 76, 127
1, 336585, Note_on_c, 10, 57, 127
1, 336781, Note_off_c, 10, 57, 127
1, 336781, Note_off_c, 4, 76, 127
1, 336781, Note_off_c, 2, 74, 127
1, 336781, Note_off_c, 10, 69, 127
1, 336782, Note_on_c, 4, 76, 127
1, 336782, Note_on_c, 10, 69, 127
1, 336782, Note_on_c, 2, 74, 127
1, 336782, Note_on_c, 7, 55, 127
1, 336978, Note_off_c, 7, 55, 127
1, 336978, Note_off_c, 2, 74, 127
1, 336978, Note_off_c, 10, 69, 127
1, 336978, Note_off_c, 4, 76, 127
1, 336979, Note_on_c, 7, 67, 127
1, 336979, Note_on_c, 4, 76, 127
1, 336979, Note_on_c, 1, 73, 127
1, 336979, Note_on_c, 10, 57, 127
1, 337175, Note_off_c, 10, 57, 127
1, 337175, Note_off_c, 1, 73, 127
1, 337175, Note_off_c, 4, 76, 127
1, 337175, Note_off_c, 7, 67, 127
1, 337176, Note_on_c, 4, 76, 127
1, 337176, Note_on_c, 1, 73, 127
1, 337176, Note_on_c, 7, 67, 127
1, 337176, Note_on_c, 10, 45, 127
1, 337372, Note_off_c, 10, 45, 127
1, 337372, Note_off_c, 7, 67, 127
1, 337372, Note_off_c, 1, 73, 127
1, 337372, Note_off_c, 4, 76, 127
1, 337373, Note_on_c, 6, 66, 127
1, 337373, Note_on_c, 2, 74, 127
1, 337373, Note_on_c, 10, 69, 127
1, 337373, Note_on_c, 2, 50, 127
1, 337473, Note_off_c, 2, 50, 127
1, 337490, Note_on_c, 10, 45, 127
1, 337574, Note_off_c, 10, 69, 127
1, 337574, Note_off_c, 2, 74, 127
1, 337574, Note_off_c, 6, 66, 127
1, 337590, Note_off_c, 10, 45, 127
1, 337591, Note_on_c, 12, 47, 127
1, 337591, Note_on_c, 6, 66, 127
1, 337591, Note_on_c, 2, 62, 127
1, 337591, Note_on_c, 10, 57, 127
1, 337691, Note_off_c, 12, 47, 127
1, 337692, Note_on_c, 1, 49, 127
1, 337792, Note_off_c, 1, 49, 127
1, 337792, Note_off_c, 10, 57, 127
1, 337792, Note_off_c, 2, 62, 127
1, 337792, Note_off_c, 6, 66, 127
1, 337793, Note_on_c, 2, 50, 127
1, 337793, Note_on_c, 6, 66, 127
1, 337793, Note_on_c, 2, 62, 127
1, 337793, Note_on_c, 10, 57, 127
1, 337994, Note_off_c, 10, 57, 127
1, 337994, Note_off_c, 2, 62, 127
1, 337994, Note_off_c, 6, 66, 127
1, 337994, Note_off_c, 2, 50, 127
1, 337995, Note_on_c, 10, 45, 127
1, 337995, Note_on_c, 2, 62, 127
1, 337995, Note_on_c, 10, 57, 127
1, 337995, Note_on_c, 6, 66, 127
1, 338196, Note_off_c, 6, 66, 127
1, 338196, Note_off_c, 10, 57, 127
1, 338196, Note_off_c, 2, 62, 127
1, 338196, Note_off_c, 10, 45, 127
1, 338197, Note_on_c, 6, 42, 127
1, 338197, Note_on_c, 2, 62, 127
1, 338197, Note_on_c, 10, 57, 127
1, 338197, Note_on_c, 6, 66, 127
1, 338398, Note_off_c, 6, 66, 127
1, 338398, Note_off_c, 10, 57, 127
1, 338398, Note_off_c, 2, 62, 127
1, 338398, Note_off_c, 6, 42, 127
1, 338399, Note_on_c, 2, 38, 127
1, 338399, Note_on_c, 10, 57, 127
1, 338399, Note_on_c, 6, 66, 127
1, 338399, Note_on_c, 2, 62, 127
1, 338600, Note_off_c, 2, 62, 127
1, 338600, Note_off_c, 6, 66, 127
1, 338600, Note_off_c, 10, 57, 127
1, 338600, Note_off_c, 2, 38, 127
1, 338601, Note_on_c, 7, 43, 127
1, 338601, Note_on_c, 2, 62, 127
1, 338601, Note_on_c, 12, 59, 127
1, 338601, Note_on_c, 4, 64, 127
1, 338710, Note_off_c, 7, 43, 127
1, 338711, Note_on_c, 4, 40, 127
1, 338820, Note_off_c, 4, 40, 127
1, 338820, Note_off_c, 4, 64, 127
1, 338820, Note_off_c, 12, 59, 127
1, 338820, Note_off_c, 2, 62, 127
1, 338821, Note_on_c, 6, 42, 127
1, 338821, Note_on_c, 2, 62, 127
1, 338821, Note_on_c, 12, 59, 127
1, 338821, Note_on_c, 4, 64, 127
1, 338930, Note_off_c, 6, 42, 127
1, 338931, Note_on_c, 7, 43, 127
1, 339040, Note_off_c, 7, 43, 127
1, 339040, Note_off_c, 4, 64, 127
1, 339040, Note_off_c, 12, 59, 127
1, 339040, Note_off_c, 2, 62, 127
1, 339041, Note_on_c, 10, 45, 127
1, 339041, Note_on_c, 4, 64, 127
1, 339041, Note_on_c, 10, 57, 127
1, 339041, Note_on_c, 2, 62, 127
1, 339259, Note_off_c, 2, 62, 127
1, 339259, Note_off_c, 10, 57, 127
1, 339259, Note_off_c, 4, 64, 127
1, 339259, Note_off_c, 10, 45, 127
1, 339260, Note_on_c, 7, 43, 127
1, 339260, Note_on_c, 4, 64, 127
1, 339260, Note_on_c, 10, 57, 127
1, 339260, Note_on_c, 2, 62, 127
1, 339501, Note_off_c, 2, 62, 127
1, 339501, Note_off_c, 10, 57, 127
1, 339501, Note_off_c, 4, 64, 127
1, 339501, Note_off_c, 7, 43, 127
1, 339502, Note_on_c, 10, 45, 127
1, 339502, Note_on_c, 1, 61, 127
1, 339502, Note_on_c, 7, 55, 127
1, 339502, Note_on_c, 4, 64, 127
1, 339743, Note_off_c, 4, 64, 127
1, 339743, Note_off_c, 7, 55, 127
1, 339743, Note_off_c, 1, 61, 127
1, 339743, Note_off_c, 10, 45, 127
1, 339768, Note_on_c, 7, 55, 127
1, 339768, Note_on_c, 1, 61, 127
1, 339768, Note_on_c, 4, 64, 127
1, 339768, Note_on_c, 10, 45, 127
1, 340009, Note_off_c, 10, 45, 127
1, 340009, Note_off_c, 4, 64, 127
1, 340009, Note_off_c, 1, 61, 127
1, 340009, Note_off_c, 7, 55, 127
1, 340090, Note_on_c, 2, 38, 127
1, 340090, Note_on_c, 6, 54, 127
1, 340090, Note_on_c, 2, 62, 127
1, 340090, Note_on_c, 10, 57, 127
1, 342290, Note_off_c, 10, 57, 127
1, 342290, Note_off_c, 2, 62, 127
1, 342290, Note_off_c, 6, 54, 127
1, 342290, Note_off_c, 2, 38, 127
1, 348672, End_track
0, 0, End_of_file
